{"metadata": {"schema_version": "0.2", "title": "None", "source_filename": "001.mid", "source_format": "midi"}, "resolution": 12, "tempos": [{"time": 0, "qpm": 90.0002250005625}], "time_signatures": [{"time": 0, "numerator": 2, "denominator": 4}], "tracks": [{"program": 0, "is_drum": false, "name": "MELODY", "notes": [{"time": 229, "pitch": 61, "duration": 2, "velocity": 115}, {"time": 232, "pitch": 63, "duration": 1, "velocity": 109}, {"time": 235, "pitch": 66, "duration": 1, "velocity": 118}, {"time": 238, "pitch": 68, "duration": 2, "velocity": 112}, {"time": 241, "pitch": 70, "duration": 2, "velocity": 112}, {"time": 247, "pitch": 66, "duration": 4, "velocity": 112}, {"time": 253, "pitch": 63, "duration": 4, "velocity": 118}, {"time": 259, "pitch": 68, "duration": 18, "velocity": 115}, {"time": 289, "pitch": 68, "duration": 4, "velocity": 112}, {"time": 295, "pitch": 65, "duration": 3, "velocity": 115}, {"time": 301, "pitch": 61, "duration": 3, "velocity": 115}, {"time": 307, "pitch": 66, "duration": 14, "velocity": 118}, {"time": 325, "pitch": 61, "duration": 2, "velocity": 112}, {"time": 328, "pitch": 63, "duration": 1, "velocity": 112}, {"time": 331, "pitch": 66, "duration": 1, "velocity": 115}, {"time": 334, "pitch": 68, "duration": 2, "velocity": 112}, {"time": 337, "pitch": 70, "duration": 2, "velocity": 109}, {"time": 343, "pitch": 66, "duration": 4, "velocity": 112}, {"time": 349, "pitch": 63, "duration": 3, "velocity": 115}, {"time": 355, "pitch": 68, "duration": 9, "velocity": 115}, {"time": 367, "pitch": 61, "duration": 2, "velocity": 115}, {"time": 373, "pitch": 68, "duration": 2, "velocity": 115}, {"time": 379, "pitch": 66, "duration": 22, "velocity": 118}, {"time": 433, "pitch": 66, "duration": 7, "velocity": 115}, {"time": 445, "pitch": 66, "duration": 6, "velocity": 115}, {"time": 457, "pitch": 65, "duration": 4, "velocity": 115}, {"time": 463, "pitch": 66, "duration": 2, "velocity": 115}, {"time": 466, "pitch": 65, "duration": 4, "velocity": 115}, {"time": 481, "pitch": 65, "duration": 3, "velocity": 112}, {"time": 487, "pitch": 66, "duration": 2, "velocity": 115}, {"time": 490, "pitch": 65, "duration": 2, "velocity": 115}, {"time": 496, "pitch": 61, "duration": 2, "velocity": 115}, {"time": 502, "pitch": 63, "duration": 11, "velocity": 115}, {"time": 523, "pitch": 63, "duration": 2, "velocity": 115}, {"time": 526, "pitch": 65, "duration": 1, "velocity": 112}, {"time": 529, "pitch": 66, "duration": 9, "velocity": 115}, {"time": 541, "pitch": 66, "duration": 7, "velocity": 115}, {"time": 553, "pitch": 65, "duration": 3, "velocity": 115}, {"time": 559, "pitch": 66, "duration": 2, "velocity": 112}, {"time": 562, "pitch": 65, "duration": 3, "velocity": 115}, {"time": 568, "pitch": 63, "duration": 4, "velocity": 112}, {"time": 574, "pitch": 61, "duration": 23, "velocity": 115}, {"time": 625, "pitch": 66, "duration": 7, "velocity": 118}, {"time": 637, "pitch": 66, "duration": 8, "velocity": 118}, {"time": 649, "pitch": 68, "duration": 3, "velocity": 112}, {"time": 655, "pitch": 70, "duration": 1, "velocity": 112}, {"time": 658, "pitch": 68, "duration": 3, "velocity": 118}, {"time": 673, "pitch": 68, "duration": 3, "velocity": 112}, {"time": 679, "pitch": 70, "duration": 1, "velocity": 115}, {"time": 682, "pitch": 68, "duration": 3, "velocity": 115}, {"time": 688, "pitch": 65, "duration": 2, "velocity": 115}, {"time": 694, "pitch": 66, "duration": 16, "velocity": 118}, {"time": 715, "pitch": 61, "duration": 2, "velocity": 115}, {"time": 718, "pitch": 63, "duration": 1, "velocity": 115}, {"time": 721, "pitch": 66, "duration": 2, "velocity": 118}, {"time": 727, "pitch": 70, "duration": 2, "velocity": 115}, {"time": 730, "pitch": 68, "duration": 2, "velocity": 112}, {"time": 736, "pitch": 66, "duration": 2, "velocity": 115}, {"time": 745, "pitch": 68, "duration": 3, "velocity": 109}, {"time": 751, "pitch": 70, "duration": 1, "velocity": 112}, {"time": 754, "pitch": 68, "duration": 2, "velocity": 115}, {"time": 760, "pitch": 66, "duration": 3, "velocity": 115}, {"time": 769, "pitch": 66, "duration": 19, "velocity": 115}, {"time": 805, "pitch": 61, "duration": 2, "velocity": 115}, {"time": 808, "pitch": 63, "duration": 1, "velocity": 109}, {"time": 811, "pitch": 66, "duration": 1, "velocity": 118}, {"time": 814, "pitch": 68, "duration": 2, "velocity": 112}, {"time": 817, "pitch": 70, "duration": 2, "velocity": 112}, {"time": 823, "pitch": 66, "duration": 4, "velocity": 112}, {"time": 829, "pitch": 63, "duration": 4, "velocity": 118}, {"time": 835, "pitch": 68, "duration": 18, "velocity": 115}, {"time": 865, "pitch": 68, "duration": 4, "velocity": 112}, {"time": 871, "pitch": 65, "duration": 3, "velocity": 115}, {"time": 877, "pitch": 61, "duration": 3, "velocity": 115}, {"time": 883, "pitch": 66, "duration": 14, "velocity": 118}, {"time": 901, "pitch": 61, "duration": 2, "velocity": 112}, {"time": 904, "pitch": 63, "duration": 1, "velocity": 112}, {"time": 907, "pitch": 66, "duration": 1, "velocity": 115}, {"time": 910, "pitch": 68, "duration": 2, "velocity": 112}, {"time": 913, "pitch": 70, "duration": 2, "velocity": 109}, {"time": 919, "pitch": 66, "duration": 4, "velocity": 112}, {"time": 925, "pitch": 63, "duration": 3, "velocity": 115}, {"time": 931, "pitch": 68, "duration": 9, "velocity": 115}, {"time": 943, "pitch": 61, "duration": 2, "velocity": 115}, {"time": 949, "pitch": 68, "duration": 2, "velocity": 115}, {"time": 955, "pitch": 70, "duration": 22, "velocity": 118}, {"time": 997, "pitch": 61, "duration": 2, "velocity": 115}, {"time": 1000, "pitch": 63, "duration": 1, "velocity": 109}, {"time": 1003, "pitch": 66, "duration": 1, "velocity": 118}, {"time": 1006, "pitch": 68, "duration": 2, "velocity": 112}, {"time": 1009, "pitch": 70, "duration": 2, "velocity": 112}, {"time": 1015, "pitch": 66, "duration": 4, "velocity": 112}, {"time": 1021, "pitch": 63, "duration": 4, "velocity": 118}, {"time": 1027, "pitch": 68, "duration": 18, "velocity": 115}, {"time": 1057, "pitch": 68, "duration": 4, "velocity": 112}, {"time": 1063, "pitch": 65, "duration": 3, "velocity": 115}, {"time": 1069, "pitch": 61, "duration": 3, "velocity": 115}, {"time": 1075, "pitch": 66, "duration": 14, "velocity": 118}, {"time": 1093, "pitch": 61, "duration": 2, "velocity": 112}, {"time": 1096, "pitch": 63, "duration": 1, "velocity": 112}, {"time": 1099, "pitch": 66, "duration": 1, "velocity": 115}, {"time": 1102, "pitch": 68, "duration": 2, "velocity": 112}, {"time": 1105, "pitch": 70, "duration": 2, "velocity": 109}, {"time": 1111, "pitch": 66, "duration": 4, "velocity": 112}, {"time": 1117, "pitch": 63, "duration": 3, "velocity": 115}, {"time": 1123, "pitch": 68, "duration": 9, "velocity": 115}, {"time": 1135, "pitch": 61, "duration": 2, "velocity": 115}, {"time": 1141, "pitch": 68, "duration": 2, "velocity": 115}, {"time": 1147, "pitch": 66, "duration": 22, "velocity": 118}, {"time": 1393, "pitch": 66, "duration": 7, "velocity": 115}, {"time": 1405, "pitch": 66, "duration": 6, "velocity": 115}, {"time": 1417, "pitch": 65, "duration": 4, "velocity": 115}, {"time": 1423, "pitch": 66, "duration": 2, "velocity": 115}, {"time": 1426, "pitch": 65, "duration": 4, "velocity": 115}, {"time": 1441, "pitch": 65, "duration": 3, "velocity": 112}, {"time": 1447, "pitch": 66, "duration": 2, "velocity": 115}, {"time": 1450, "pitch": 65, "duration": 2, "velocity": 115}, {"time": 1456, "pitch": 61, "duration": 2, "velocity": 115}, {"time": 1462, "pitch": 63, "duration": 11, "velocity": 115}, {"time": 1483, "pitch": 63, "duration": 2, "velocity": 115}, {"time": 1486, "pitch": 65, "duration": 1, "velocity": 112}, {"time": 1489, "pitch": 66, "duration": 9, "velocity": 115}, {"time": 1501, "pitch": 66, "duration": 7, "velocity": 115}, {"time": 1513, "pitch": 65, "duration": 3, "velocity": 115}, {"time": 1519, "pitch": 66, "duration": 2, "velocity": 112}, {"time": 1522, "pitch": 65, "duration": 3, "velocity": 115}, {"time": 1528, "pitch": 63, "duration": 4, "velocity": 112}, {"time": 1534, "pitch": 61, "duration": 23, "velocity": 115}, {"time": 1585, "pitch": 66, "duration": 7, "velocity": 118}, {"time": 1597, "pitch": 66, "duration": 8, "velocity": 118}, {"time": 1609, "pitch": 68, "duration": 3, "velocity": 112}, {"time": 1615, "pitch": 70, "duration": 1, "velocity": 112}, {"time": 1618, "pitch": 68, "duration": 3, "velocity": 118}, {"time": 1633, "pitch": 68, "duration": 3, "velocity": 112}, {"time": 1639, "pitch": 70, "duration": 1, "velocity": 115}, {"time": 1642, "pitch": 68, "duration": 3, "velocity": 115}, {"time": 1648, "pitch": 65, "duration": 2, "velocity": 115}, {"time": 1654, "pitch": 66, "duration": 16, "velocity": 118}, {"time": 1675, "pitch": 61, "duration": 2, "velocity": 115}, {"time": 1678, "pitch": 63, "duration": 1, "velocity": 115}, {"time": 1681, "pitch": 66, "duration": 2, "velocity": 118}, {"time": 1687, "pitch": 70, "duration": 2, "velocity": 115}, {"time": 1690, "pitch": 68, "duration": 2, "velocity": 112}, {"time": 1696, "pitch": 66, "duration": 2, "velocity": 115}, {"time": 1705, "pitch": 68, "duration": 3, "velocity": 109}, {"time": 1711, "pitch": 70, "duration": 1, "velocity": 112}, {"time": 1714, "pitch": 68, "duration": 2, "velocity": 115}, {"time": 1720, "pitch": 66, "duration": 3, "velocity": 115}, {"time": 1729, "pitch": 66, "duration": 19, "velocity": 115}, {"time": 1765, "pitch": 61, "duration": 2, "velocity": 115}, {"time": 1768, "pitch": 63, "duration": 1, "velocity": 109}, {"time": 1771, "pitch": 66, "duration": 1, "velocity": 118}, {"time": 1774, "pitch": 68, "duration": 2, "velocity": 112}, {"time": 1777, "pitch": 70, "duration": 2, "velocity": 112}, {"time": 1783, "pitch": 66, "duration": 4, "velocity": 112}, {"time": 1789, "pitch": 63, "duration": 4, "velocity": 118}, {"time": 1795, "pitch": 68, "duration": 18, "velocity": 115}, {"time": 1825, "pitch": 68, "duration": 4, "velocity": 112}, {"time": 1831, "pitch": 65, "duration": 3, "velocity": 115}, {"time": 1837, "pitch": 61, "duration": 3, "velocity": 115}, {"time": 1843, "pitch": 66, "duration": 14, "velocity": 118}, {"time": 1861, "pitch": 61, "duration": 2, "velocity": 112}, {"time": 1864, "pitch": 63, "duration": 1, "velocity": 112}, {"time": 1867, "pitch": 66, "duration": 1, "velocity": 115}, {"time": 1870, "pitch": 68, "duration": 2, "velocity": 112}, {"time": 1873, "pitch": 70, "duration": 2, "velocity": 109}, {"time": 1879, "pitch": 66, "duration": 4, "velocity": 112}, {"time": 1885, "pitch": 63, "duration": 3, "velocity": 115}, {"time": 1891, "pitch": 68, "duration": 9, "velocity": 115}, {"time": 1903, "pitch": 61, "duration": 2, "velocity": 115}, {"time": 1909, "pitch": 68, "duration": 2, "velocity": 115}, {"time": 1915, "pitch": 70, "duration": 22, "velocity": 118}, {"time": 1957, "pitch": 61, "duration": 2, "velocity": 115}, {"time": 1960, "pitch": 63, "duration": 1, "velocity": 109}, {"time": 1963, "pitch": 66, "duration": 1, "velocity": 118}, {"time": 1966, "pitch": 68, "duration": 2, "velocity": 112}, {"time": 1969, "pitch": 70, "duration": 2, "velocity": 112}, {"time": 1975, "pitch": 66, "duration": 4, "velocity": 112}, {"time": 1981, "pitch": 63, "duration": 4, "velocity": 118}, {"time": 1987, "pitch": 68, "duration": 18, "velocity": 115}, {"time": 2017, "pitch": 68, "duration": 4, "velocity": 112}, {"time": 2023, "pitch": 65, "duration": 3, "velocity": 115}, {"time": 2029, "pitch": 61, "duration": 3, "velocity": 115}, {"time": 2035, "pitch": 66, "duration": 14, "velocity": 118}, {"time": 2053, "pitch": 61, "duration": 2, "velocity": 112}, {"time": 2056, "pitch": 63, "duration": 1, "velocity": 112}, {"time": 2059, "pitch": 66, "duration": 1, "velocity": 115}, {"time": 2062, "pitch": 68, "duration": 2, "velocity": 112}, {"time": 2065, "pitch": 70, "duration": 2, "velocity": 109}, {"time": 2071, "pitch": 66, "duration": 4, "velocity": 112}, {"time": 2077, "pitch": 63, "duration": 3, "velocity": 115}, {"time": 2083, "pitch": 68, "duration": 9, "velocity": 115}, {"time": 2095, "pitch": 61, "duration": 2, "velocity": 115}, {"time": 2101, "pitch": 68, "duration": 2, "velocity": 115}, {"time": 2107, "pitch": 66, "duration": 22, "velocity": 118}, {"time": 2533, "pitch": 61, "duration": 2, "velocity": 115}, {"time": 2536, "pitch": 63, "duration": 1, "velocity": 109}, {"time": 2539, "pitch": 66, "duration": 1, "velocity": 118}, {"time": 2542, "pitch": 68, "duration": 2, "velocity": 112}, {"time": 2545, "pitch": 70, "duration": 2, "velocity": 112}, {"time": 2551, "pitch": 66, "duration": 4, "velocity": 112}, {"time": 2557, "pitch": 63, "duration": 4, "velocity": 118}, {"time": 2563, "pitch": 68, "duration": 18, "velocity": 115}, {"time": 2593, "pitch": 68, "duration": 4, "velocity": 112}, {"time": 2599, "pitch": 65, "duration": 3, "velocity": 115}, {"time": 2605, "pitch": 61, "duration": 3, "velocity": 115}, {"time": 2611, "pitch": 66, "duration": 14, "velocity": 118}, {"time": 2629, "pitch": 61, "duration": 2, "velocity": 112}, {"time": 2632, "pitch": 63, "duration": 1, "velocity": 112}, {"time": 2635, "pitch": 66, "duration": 1, "velocity": 115}, {"time": 2638, "pitch": 68, "duration": 2, "velocity": 112}, {"time": 2641, "pitch": 70, "duration": 2, "velocity": 109}, {"time": 2647, "pitch": 66, "duration": 4, "velocity": 112}, {"time": 2653, "pitch": 63, "duration": 3, "velocity": 115}, {"time": 2659, "pitch": 68, "duration": 9, "velocity": 115}, {"time": 2671, "pitch": 61, "duration": 2, "velocity": 115}, {"time": 2677, "pitch": 68, "duration": 2, "velocity": 115}, {"time": 2683, "pitch": 70, "duration": 22, "velocity": 118}, {"time": 2725, "pitch": 61, "duration": 2, "velocity": 115}, {"time": 2728, "pitch": 63, "duration": 1, "velocity": 109}, {"time": 2731, "pitch": 66, "duration": 1, "velocity": 118}, {"time": 2734, "pitch": 68, "duration": 2, "velocity": 112}, {"time": 2737, "pitch": 70, "duration": 2, "velocity": 112}, {"time": 2743, "pitch": 66, "duration": 4, "velocity": 112}, {"time": 2749, "pitch": 63, "duration": 4, "velocity": 118}, {"time": 2755, "pitch": 68, "duration": 18, "velocity": 115}, {"time": 2785, "pitch": 68, "duration": 4, "velocity": 112}, {"time": 2791, "pitch": 65, "duration": 3, "velocity": 115}, {"time": 2797, "pitch": 61, "duration": 3, "velocity": 115}, {"time": 2803, "pitch": 66, "duration": 14, "velocity": 118}, {"time": 2821, "pitch": 61, "duration": 2, "velocity": 112}, {"time": 2824, "pitch": 63, "duration": 1, "velocity": 112}, {"time": 2827, "pitch": 66, "duration": 1, "velocity": 115}, {"time": 2830, "pitch": 68, "duration": 2, "velocity": 112}, {"time": 2833, "pitch": 70, "duration": 2, "velocity": 109}, {"time": 2839, "pitch": 66, "duration": 4, "velocity": 112}, {"time": 2845, "pitch": 63, "duration": 3, "velocity": 115}, {"time": 2851, "pitch": 68, "duration": 9, "velocity": 115}, {"time": 2863, "pitch": 61, "duration": 2, "velocity": 115}, {"time": 2869, "pitch": 68, "duration": 2, "velocity": 115}, {"time": 2875, "pitch": 66, "duration": 22, "velocity": 118}, {"time": 3109, "pitch": 61, "duration": 2, "velocity": 115}, {"time": 3112, "pitch": 63, "duration": 1, "velocity": 109}, {"time": 3115, "pitch": 66, "duration": 1, "velocity": 118}, {"time": 3118, "pitch": 68, "duration": 2, "velocity": 112}, {"time": 3121, "pitch": 70, "duration": 2, "velocity": 112}, {"time": 3127, "pitch": 66, "duration": 4, "velocity": 112}, {"time": 3133, "pitch": 63, "duration": 4, "velocity": 118}, {"time": 3139, "pitch": 68, "duration": 18, "velocity": 115}, {"time": 3169, "pitch": 68, "duration": 4, "velocity": 112}, {"time": 3175, "pitch": 65, "duration": 3, "velocity": 115}, {"time": 3181, "pitch": 61, "duration": 3, "velocity": 115}, {"time": 3187, "pitch": 66, "duration": 14, "velocity": 118}, {"time": 3205, "pitch": 61, "duration": 2, "velocity": 112}, {"time": 3208, "pitch": 63, "duration": 1, "velocity": 112}, {"time": 3211, "pitch": 66, "duration": 1, "velocity": 115}, {"time": 3214, "pitch": 68, "duration": 2, "velocity": 112}, {"time": 3217, "pitch": 70, "duration": 2, "velocity": 109}, {"time": 3223, "pitch": 66, "duration": 4, "velocity": 112}, {"time": 3229, "pitch": 63, "duration": 3, "velocity": 115}, {"time": 3235, "pitch": 68, "duration": 9, "velocity": 115}, {"time": 3247, "pitch": 61, "duration": 2, "velocity": 115}, {"time": 3253, "pitch": 68, "duration": 2, "velocity": 115}, {"time": 3259, "pitch": 66, "duration": 22, "velocity": 118}]}, {"program": 0, "is_drum": false, "name": "BRIDGE", "notes": [{"time": 43, "pitch": 66, "duration": 5, "velocity": 121}, {"time": 49, "pitch": 75, "duration": 6, "velocity": 121}, {"time": 55, "pitch": 73, "duration": 3, "velocity": 118}, {"time": 61, "pitch": 71, "duration": 4, "velocity": 123}, {"time": 67, "pitch": 80, "duration": 2, "velocity": 118}, {"time": 70, "pitch": 82, "duration": 3, "velocity": 104}, {"time": 73, "pitch": 80, "duration": 15, "velocity": 121}, {"time": 91, "pitch": 66, "duration": 4, "velocity": 118}, {"time": 97, "pitch": 75, "duration": 6, "velocity": 118}, {"time": 103, "pitch": 73, "duration": 9, "velocity": 118}, {"time": 115, "pitch": 70, "duration": 19, "velocity": 118}, {"time": 139, "pitch": 73, "duration": 4, "velocity": 112}, {"time": 145, "pitch": 78, "duration": 3, "velocity": 118}, {"time": 148, "pitch": 80, "duration": 1, "velocity": 118}, {"time": 151, "pitch": 82, "duration": 11, "velocity": 118}, {"time": 163, "pitch": 73, "duration": 2, "velocity": 78}, {"time": 169, "pitch": 78, "duration": 3, "velocity": 115}, {"time": 172, "pitch": 80, "duration": 2, "velocity": 118}, {"time": 175, "pitch": 82, "duration": 8, "velocity": 118}, {"time": 199, "pitch": 66, "duration": 5, "velocity": 121}, {"time": 205, "pitch": 75, "duration": 5, "velocity": 118}, {"time": 211, "pitch": 73, "duration": 21, "velocity": 118}, {"time": 244, "pitch": 78, "duration": 2, "velocity": 97}, {"time": 247, "pitch": 80, "duration": 2, "velocity": 108}, {"time": 250, "pitch": 82, "duration": 2, "velocity": 114}, {"time": 271, "pitch": 80, "duration": 2, "velocity": 114}, {"time": 274, "pitch": 82, "duration": 1, "velocity": 108}, {"time": 277, "pitch": 80, "duration": 4, "velocity": 120}, {"time": 313, "pitch": 78, "duration": 1, "velocity": 114}, {"time": 316, "pitch": 80, "duration": 2, "velocity": 108}, {"time": 319, "pitch": 82, "duration": 4, "velocity": 111}, {"time": 469, "pitch": 73, "duration": 1, "velocity": 108}, {"time": 470, "pitch": 75, "duration": 5, "velocity": 94}, {"time": 475, "pitch": 73, "duration": 4, "velocity": 97}, {"time": 511, "pitch": 68, "duration": 2, "velocity": 108}, {"time": 512, "pitch": 70, "duration": 7, "velocity": 97}, {"time": 524, "pitch": 66, "duration": 1, "velocity": 108}, {"time": 526, "pitch": 68, "duration": 2, "velocity": 89}, {"time": 529, "pitch": 70, "duration": 7, "velocity": 102}, {"time": 583, "pitch": 78, "duration": 2, "velocity": 114}, {"time": 586, "pitch": 80, "duration": 1, "velocity": 117}, {"time": 589, "pitch": 80, "duration": 2, "velocity": 120}, {"time": 591, "pitch": 82, "duration": 2, "velocity": 89}, {"time": 593, "pitch": 80, "duration": 2, "velocity": 111}, {"time": 596, "pitch": 78, "duration": 1, "velocity": 111}, {"time": 602, "pitch": 73, "duration": 2, "velocity": 114}, {"time": 603, "pitch": 75, "duration": 5, "velocity": 45}, {"time": 608, "pitch": 73, "duration": 2, "velocity": 111}, {"time": 614, "pitch": 68, "duration": 1, "velocity": 117}, {"time": 615, "pitch": 70, "duration": 2, "velocity": 69}, {"time": 617, "pitch": 68, "duration": 3, "velocity": 97}, {"time": 620, "pitch": 66, "duration": 5, "velocity": 108}, {"time": 661, "pitch": 73, "duration": 1, "velocity": 117}, {"time": 662, "pitch": 75, "duration": 5, "velocity": 82}, {"time": 666, "pitch": 73, "duration": 3, "velocity": 82}, {"time": 701, "pitch": 73, "duration": 1, "velocity": 111}, {"time": 703, "pitch": 78, "duration": 2, "velocity": 105}, {"time": 706, "pitch": 80, "duration": 2, "velocity": 114}, {"time": 709, "pitch": 80, "duration": 2, "velocity": 108}, {"time": 710, "pitch": 82, "duration": 7, "velocity": 87}, {"time": 772, "pitch": 73, "duration": 2, "velocity": 117}, {"time": 775, "pitch": 78, "duration": 3, "velocity": 111}, {"time": 778, "pitch": 80, "duration": 1, "velocity": 117}, {"time": 781, "pitch": 80, "duration": 1, "velocity": 102}, {"time": 782, "pitch": 82, "duration": 3, "velocity": 69}, {"time": 784, "pitch": 80, "duration": 3, "velocity": 102}, {"time": 787, "pitch": 78, "duration": 2, "velocity": 117}, {"time": 793, "pitch": 73, "duration": 1, "velocity": 108}, {"time": 794, "pitch": 75, "duration": 5, "velocity": 73}, {"time": 799, "pitch": 73, "duration": 1, "velocity": 92}, {"time": 805, "pitch": 68, "duration": 1, "velocity": 120}, {"time": 806, "pitch": 70, "duration": 2, "velocity": 40}, {"time": 808, "pitch": 68, "duration": 3, "velocity": 66}, {"time": 811, "pitch": 66, "duration": 3, "velocity": 108}, {"time": 820, "pitch": 78, "duration": 2, "velocity": 97}, {"time": 823, "pitch": 80, "duration": 2, "velocity": 108}, {"time": 826, "pitch": 82, "duration": 2, "velocity": 114}, {"time": 847, "pitch": 80, "duration": 2, "velocity": 114}, {"time": 850, "pitch": 82, "duration": 1, "velocity": 108}, {"time": 853, "pitch": 80, "duration": 4, "velocity": 120}, {"time": 889, "pitch": 78, "duration": 1, "velocity": 114}, {"time": 892, "pitch": 80, "duration": 2, "velocity": 108}, {"time": 895, "pitch": 82, "duration": 4, "velocity": 111}, {"time": 967, "pitch": 78, "duration": 3, "velocity": 120}, {"time": 973, "pitch": 85, "duration": 1, "velocity": 120}, {"time": 973, "pitch": 87, "duration": 6, "velocity": 58}, {"time": 979, "pitch": 85, "duration": 2, "velocity": 102}, {"time": 985, "pitch": 85, "duration": 1, "velocity": 127}, {"time": 985, "pitch": 87, "duration": 6, "velocity": 82}, {"time": 991, "pitch": 85, "duration": 1, "velocity": 100}, {"time": 997, "pitch": 80, "duration": 1, "velocity": 117}, {"time": 997, "pitch": 82, "duration": 3, "velocity": 117}, {"time": 1000, "pitch": 80, "duration": 2, "velocity": 94}, {"time": 1003, "pitch": 78, "duration": 5, "velocity": 111}, {"time": 1012, "pitch": 78, "duration": 2, "velocity": 97}, {"time": 1015, "pitch": 80, "duration": 2, "velocity": 108}, {"time": 1018, "pitch": 82, "duration": 2, "velocity": 114}, {"time": 1039, "pitch": 80, "duration": 2, "velocity": 114}, {"time": 1042, "pitch": 82, "duration": 1, "velocity": 108}, {"time": 1045, "pitch": 80, "duration": 4, "velocity": 120}, {"time": 1081, "pitch": 78, "duration": 1, "velocity": 114}, {"time": 1084, "pitch": 80, "duration": 2, "velocity": 108}, {"time": 1087, "pitch": 82, "duration": 4, "velocity": 111}, {"time": 1189, "pitch": 73, "duration": 3, "velocity": 118}, {"time": 1192, "pitch": 75, "duration": 2, "velocity": 115}, {"time": 1195, "pitch": 78, "duration": 2, "velocity": 118}, {"time": 1198, "pitch": 80, "duration": 2, "velocity": 112}, {"time": 1201, "pitch": 82, "duration": 5, "velocity": 115}, {"time": 1207, "pitch": 80, "duration": 2, "velocity": 89}, {"time": 1210, "pitch": 82, "duration": 2, "velocity": 112}, {"time": 1213, "pitch": 78, "duration": 2, "velocity": 115}, {"time": 1219, "pitch": 80, "duration": 12, "velocity": 118}, {"time": 1249, "pitch": 80, "duration": 5, "velocity": 121}, {"time": 1255, "pitch": 78, "duration": 2, "velocity": 118}, {"time": 1258, "pitch": 80, "duration": 2, "velocity": 121}, {"time": 1261, "pitch": 77, "duration": 4, "velocity": 104}, {"time": 1267, "pitch": 78, "duration": 12, "velocity": 118}, {"time": 1291, "pitch": 61, "duration": 2, "velocity": 118}, {"time": 1294, "pitch": 63, "duration": 1, "velocity": 112}, {"time": 1297, "pitch": 66, "duration": 5, "velocity": 118}, {"time": 1303, "pitch": 63, "duration": 2, "velocity": 118}, {"time": 1306, "pitch": 66, "duration": 1, "velocity": 118}, {"time": 1309, "pitch": 68, "duration": 5, "velocity": 121}, {"time": 1315, "pitch": 66, "duration": 2, "velocity": 115}, {"time": 1318, "pitch": 68, "duration": 1, "velocity": 118}, {"time": 1320, "pitch": 68, "duration": 2, "velocity": 115}, {"time": 1321, "pitch": 70, "duration": 3, "velocity": 104}, {"time": 1327, "pitch": 73, "duration": 5, "velocity": 115}, {"time": 1333, "pitch": 73, "duration": 2, "velocity": 115}, {"time": 1336, "pitch": 75, "duration": 2, "velocity": 115}, {"time": 1339, "pitch": 78, "duration": 2, "velocity": 115}, {"time": 1342, "pitch": 80, "duration": 2, "velocity": 112}, {"time": 1345, "pitch": 82, "duration": 28, "velocity": 118}, {"time": 1429, "pitch": 73, "duration": 1, "velocity": 108}, {"time": 1430, "pitch": 75, "duration": 5, "velocity": 94}, {"time": 1435, "pitch": 73, "duration": 4, "velocity": 97}, {"time": 1471, "pitch": 68, "duration": 2, "velocity": 108}, {"time": 1472, "pitch": 70, "duration": 7, "velocity": 97}, {"time": 1484, "pitch": 66, "duration": 1, "velocity": 108}, {"time": 1486, "pitch": 68, "duration": 2, "velocity": 89}, {"time": 1489, "pitch": 70, "duration": 7, "velocity": 102}, {"time": 1543, "pitch": 78, "duration": 2, "velocity": 114}, {"time": 1546, "pitch": 80, "duration": 1, "velocity": 117}, {"time": 1549, "pitch": 80, "duration": 2, "velocity": 120}, {"time": 1551, "pitch": 82, "duration": 2, "velocity": 89}, {"time": 1553, "pitch": 80, "duration": 2, "velocity": 111}, {"time": 1556, "pitch": 78, "duration": 1, "velocity": 111}, {"time": 1562, "pitch": 73, "duration": 2, "velocity": 114}, {"time": 1563, "pitch": 75, "duration": 5, "velocity": 45}, {"time": 1568, "pitch": 73, "duration": 2, "velocity": 111}, {"time": 1574, "pitch": 68, "duration": 1, "velocity": 117}, {"time": 1575, "pitch": 70, "duration": 2, "velocity": 69}, {"time": 1577, "pitch": 68, "duration": 3, "velocity": 97}, {"time": 1580, "pitch": 66, "duration": 5, "velocity": 108}, {"time": 1621, "pitch": 73, "duration": 1, "velocity": 117}, {"time": 1622, "pitch": 75, "duration": 5, "velocity": 82}, {"time": 1626, "pitch": 73, "duration": 3, "velocity": 82}, {"time": 1661, "pitch": 73, "duration": 1, "velocity": 111}, {"time": 1663, "pitch": 78, "duration": 2, "velocity": 105}, {"time": 1666, "pitch": 80, "duration": 2, "velocity": 114}, {"time": 1669, "pitch": 80, "duration": 2, "velocity": 108}, {"time": 1670, "pitch": 82, "duration": 7, "velocity": 87}, {"time": 1732, "pitch": 73, "duration": 2, "velocity": 117}, {"time": 1735, "pitch": 78, "duration": 3, "velocity": 111}, {"time": 1738, "pitch": 80, "duration": 1, "velocity": 117}, {"time": 1741, "pitch": 80, "duration": 1, "velocity": 102}, {"time": 1742, "pitch": 82, "duration": 3, "velocity": 69}, {"time": 1744, "pitch": 80, "duration": 3, "velocity": 102}, {"time": 1747, "pitch": 78, "duration": 2, "velocity": 117}, {"time": 1753, "pitch": 73, "duration": 1, "velocity": 108}, {"time": 1754, "pitch": 75, "duration": 5, "velocity": 73}, {"time": 1759, "pitch": 73, "duration": 1, "velocity": 92}, {"time": 1765, "pitch": 68, "duration": 1, "velocity": 120}, {"time": 1766, "pitch": 70, "duration": 2, "velocity": 40}, {"time": 1768, "pitch": 68, "duration": 3, "velocity": 66}, {"time": 1771, "pitch": 66, "duration": 3, "velocity": 108}, {"time": 1780, "pitch": 78, "duration": 2, "velocity": 97}, {"time": 1783, "pitch": 80, "duration": 2, "velocity": 108}, {"time": 1786, "pitch": 82, "duration": 2, "velocity": 114}, {"time": 1807, "pitch": 80, "duration": 2, "velocity": 114}, {"time": 1810, "pitch": 82, "duration": 1, "velocity": 108}, {"time": 1813, "pitch": 80, "duration": 4, "velocity": 120}, {"time": 1849, "pitch": 78, "duration": 1, "velocity": 114}, {"time": 1852, "pitch": 80, "duration": 2, "velocity": 108}, {"time": 1855, "pitch": 82, "duration": 4, "velocity": 111}, {"time": 1927, "pitch": 78, "duration": 3, "velocity": 120}, {"time": 1933, "pitch": 85, "duration": 1, "velocity": 120}, {"time": 1933, "pitch": 87, "duration": 6, "velocity": 58}, {"time": 1939, "pitch": 85, "duration": 2, "velocity": 102}, {"time": 1945, "pitch": 85, "duration": 1, "velocity": 127}, {"time": 1945, "pitch": 87, "duration": 6, "velocity": 82}, {"time": 1951, "pitch": 85, "duration": 1, "velocity": 100}, {"time": 1957, "pitch": 80, "duration": 1, "velocity": 117}, {"time": 1957, "pitch": 82, "duration": 3, "velocity": 117}, {"time": 1960, "pitch": 80, "duration": 2, "velocity": 94}, {"time": 1963, "pitch": 78, "duration": 5, "velocity": 111}, {"time": 1972, "pitch": 78, "duration": 2, "velocity": 97}, {"time": 1975, "pitch": 80, "duration": 2, "velocity": 108}, {"time": 1978, "pitch": 82, "duration": 2, "velocity": 114}, {"time": 1999, "pitch": 80, "duration": 2, "velocity": 114}, {"time": 2002, "pitch": 82, "duration": 1, "velocity": 108}, {"time": 2005, "pitch": 80, "duration": 4, "velocity": 120}, {"time": 2041, "pitch": 78, "duration": 1, "velocity": 114}, {"time": 2044, "pitch": 80, "duration": 2, "velocity": 108}, {"time": 2047, "pitch": 82, "duration": 4, "velocity": 111}, {"time": 2149, "pitch": 73, "duration": 2, "velocity": 115}, {"time": 2152, "pitch": 75, "duration": 1, "velocity": 109}, {"time": 2155, "pitch": 78, "duration": 1, "velocity": 118}, {"time": 2158, "pitch": 80, "duration": 2, "velocity": 112}, {"time": 2161, "pitch": 82, "duration": 2, "velocity": 112}, {"time": 2167, "pitch": 78, "duration": 4, "velocity": 112}, {"time": 2173, "pitch": 75, "duration": 4, "velocity": 118}, {"time": 2179, "pitch": 80, "duration": 18, "velocity": 115}, {"time": 2209, "pitch": 80, "duration": 4, "velocity": 112}, {"time": 2215, "pitch": 77, "duration": 3, "velocity": 115}, {"time": 2221, "pitch": 73, "duration": 3, "velocity": 115}, {"time": 2227, "pitch": 78, "duration": 14, "velocity": 118}, {"time": 2245, "pitch": 73, "duration": 2, "velocity": 112}, {"time": 2248, "pitch": 75, "duration": 1, "velocity": 112}, {"time": 2251, "pitch": 78, "duration": 1, "velocity": 115}, {"time": 2254, "pitch": 80, "duration": 2, "velocity": 112}, {"time": 2257, "pitch": 82, "duration": 2, "velocity": 109}, {"time": 2263, "pitch": 78, "duration": 4, "velocity": 112}, {"time": 2269, "pitch": 75, "duration": 3, "velocity": 115}, {"time": 2275, "pitch": 80, "duration": 9, "velocity": 115}, {"time": 2287, "pitch": 73, "duration": 2, "velocity": 115}, {"time": 2293, "pitch": 80, "duration": 2, "velocity": 115}, {"time": 2299, "pitch": 78, "duration": 22, "velocity": 118}, {"time": 2328, "pitch": 73, "duration": 2, "velocity": 115}, {"time": 2329, "pitch": 75, "duration": 5, "velocity": 115}, {"time": 2335, "pitch": 73, "duration": 2, "velocity": 118}, {"time": 2341, "pitch": 68, "duration": 1, "velocity": 112}, {"time": 2341, "pitch": 70, "duration": 3, "velocity": 109}, {"time": 2341, "pitch": 73, "duration": 2, "velocity": 115}, {"time": 2344, "pitch": 68, "duration": 2, "velocity": 112}, {"time": 2344, "pitch": 75, "duration": 1, "velocity": 109}, {"time": 2347, "pitch": 66, "duration": 6, "velocity": 121}, {"time": 2347, "pitch": 78, "duration": 1, "velocity": 118}, {"time": 2350, "pitch": 80, "duration": 2, "velocity": 112}, {"time": 2353, "pitch": 82, "duration": 2, "velocity": 112}, {"time": 2359, "pitch": 78, "duration": 4, "velocity": 112}, {"time": 2365, "pitch": 75, "duration": 4, "velocity": 118}, {"time": 2371, "pitch": 80, "duration": 18, "velocity": 115}, {"time": 2401, "pitch": 80, "duration": 4, "velocity": 112}, {"time": 2407, "pitch": 77, "duration": 3, "velocity": 115}, {"time": 2413, "pitch": 73, "duration": 3, "velocity": 115}, {"time": 2419, "pitch": 78, "duration": 14, "velocity": 118}, {"time": 2437, "pitch": 73, "duration": 2, "velocity": 112}, {"time": 2440, "pitch": 75, "duration": 1, "velocity": 112}, {"time": 2443, "pitch": 78, "duration": 1, "velocity": 115}, {"time": 2446, "pitch": 80, "duration": 2, "velocity": 112}, {"time": 2449, "pitch": 82, "duration": 2, "velocity": 109}, {"time": 2455, "pitch": 78, "duration": 4, "velocity": 112}, {"time": 2461, "pitch": 75, "duration": 3, "velocity": 115}, {"time": 2467, "pitch": 80, "duration": 9, "velocity": 115}, {"time": 2479, "pitch": 73, "duration": 2, "velocity": 115}, {"time": 2485, "pitch": 80, "duration": 2, "velocity": 115}, {"time": 2491, "pitch": 78, "duration": 22, "velocity": 118}, {"time": 2712, "pitch": 73, "duration": 2, "velocity": 115}, {"time": 2713, "pitch": 75, "duration": 5, "velocity": 115}, {"time": 2719, "pitch": 73, "duration": 2, "velocity": 118}, {"time": 2725, "pitch": 68, "duration": 1, "velocity": 112}, {"time": 2725, "pitch": 70, "duration": 3, "velocity": 109}, {"time": 2728, "pitch": 68, "duration": 2, "velocity": 112}, {"time": 2731, "pitch": 66, "duration": 6, "velocity": 121}, {"time": 2917, "pitch": 73, "duration": 2, "velocity": 115}, {"time": 2920, "pitch": 75, "duration": 1, "velocity": 109}, {"time": 2923, "pitch": 78, "duration": 1, "velocity": 118}, {"time": 2926, "pitch": 80, "duration": 2, "velocity": 112}, {"time": 2929, "pitch": 82, "duration": 2, "velocity": 112}, {"time": 2935, "pitch": 78, "duration": 4, "velocity": 112}, {"time": 2941, "pitch": 75, "duration": 4, "velocity": 118}, {"time": 2947, "pitch": 80, "duration": 18, "velocity": 115}, {"time": 2977, "pitch": 80, "duration": 4, "velocity": 112}, {"time": 2983, "pitch": 77, "duration": 3, "velocity": 115}, {"time": 2989, "pitch": 73, "duration": 3, "velocity": 115}, {"time": 2995, "pitch": 78, "duration": 14, "velocity": 118}, {"time": 3013, "pitch": 73, "duration": 2, "velocity": 112}, {"time": 3016, "pitch": 75, "duration": 1, "velocity": 112}, {"time": 3019, "pitch": 78, "duration": 1, "velocity": 115}, {"time": 3022, "pitch": 80, "duration": 2, "velocity": 112}, {"time": 3025, "pitch": 82, "duration": 2, "velocity": 109}, {"time": 3031, "pitch": 78, "duration": 4, "velocity": 112}, {"time": 3037, "pitch": 75, "duration": 3, "velocity": 115}, {"time": 3043, "pitch": 80, "duration": 9, "velocity": 115}, {"time": 3055, "pitch": 73, "duration": 2, "velocity": 115}, {"time": 3061, "pitch": 80, "duration": 2, "velocity": 115}, {"time": 3067, "pitch": 78, "duration": 22, "velocity": 118}, {"time": 3307, "pitch": 66, "duration": 5, "velocity": 121}, {"time": 3313, "pitch": 75, "duration": 6, "velocity": 121}, {"time": 3319, "pitch": 73, "duration": 3, "velocity": 118}, {"time": 3325, "pitch": 71, "duration": 4, "velocity": 123}, {"time": 3331, "pitch": 80, "duration": 2, "velocity": 118}, {"time": 3334, "pitch": 82, "duration": 3, "velocity": 104}, {"time": 3337, "pitch": 80, "duration": 15, "velocity": 121}, {"time": 3355, "pitch": 66, "duration": 4, "velocity": 118}, {"time": 3361, "pitch": 75, "duration": 6, "velocity": 118}, {"time": 3367, "pitch": 73, "duration": 9, "velocity": 118}, {"time": 3379, "pitch": 70, "duration": 19, "velocity": 118}, {"time": 3403, "pitch": 73, "duration": 4, "velocity": 112}, {"time": 3409, "pitch": 78, "duration": 3, "velocity": 118}, {"time": 3412, "pitch": 80, "duration": 1, "velocity": 118}, {"time": 3415, "pitch": 82, "duration": 11, "velocity": 118}, {"time": 3427, "pitch": 73, "duration": 2, "velocity": 78}, {"time": 3433, "pitch": 78, "duration": 3, "velocity": 115}, {"time": 3436, "pitch": 80, "duration": 2, "velocity": 118}, {"time": 3439, "pitch": 82, "duration": 8, "velocity": 118}]}, {"program": 0, "is_drum": false, "name": "PIANO", "notes": [{"time": 49, "pitch": 47, "duration": 17, "velocity": 65}, {"time": 52, "pitch": 54, "duration": 14, "velocity": 49}, {"time": 55, "pitch": 59, "duration": 9, "velocity": 59}, {"time": 58, "pitch": 66, "duration": 15, "velocity": 100}, {"time": 73, "pitch": 49, "duration": 15, "velocity": 97}, {"time": 76, "pitch": 56, "duration": 11, "velocity": 71}, {"time": 79, "pitch": 61, "duration": 11, "velocity": 87}, {"time": 82, "pitch": 65, "duration": 8, "velocity": 80}, {"time": 97, "pitch": 46, "duration": 20, "velocity": 84}, {"time": 100, "pitch": 53, "duration": 16, "velocity": 73}, {"time": 103, "pitch": 58, "duration": 18, "velocity": 87}, {"time": 106, "pitch": 61, "duration": 13, "velocity": 94}, {"time": 121, "pitch": 51, "duration": 6, "velocity": 102}, {"time": 124, "pitch": 54, "duration": 15, "velocity": 71}, {"time": 127, "pitch": 58, "duration": 14, "velocity": 100}, {"time": 130, "pitch": 66, "duration": 13, "velocity": 94}, {"time": 145, "pitch": 47, "duration": 16, "velocity": 63}, {"time": 148, "pitch": 54, "duration": 13, "velocity": 52}, {"time": 151, "pitch": 59, "duration": 11, "velocity": 82}, {"time": 154, "pitch": 63, "duration": 11, "velocity": 84}, {"time": 169, "pitch": 49, "duration": 17, "velocity": 82}, {"time": 169, "pitch": 56, "duration": 4, "velocity": 69}, {"time": 169, "pitch": 61, "duration": 10, "velocity": 89}, {"time": 175, "pitch": 56, "duration": 4, "velocity": 58}, {"time": 178, "pitch": 65, "duration": 7, "velocity": 94}, {"time": 193, "pitch": 42, "duration": 22, "velocity": 97}, {"time": 196, "pitch": 49, "duration": 18, "velocity": 69}, {"time": 199, "pitch": 54, "duration": 15, "velocity": 76}, {"time": 202, "pitch": 61, "duration": 11, "velocity": 89}, {"time": 211, "pitch": 58, "duration": 4, "velocity": 89}, {"time": 217, "pitch": 42, "duration": 16, "velocity": 87}, {"time": 217, "pitch": 54, "duration": 10, "velocity": 52}, {"time": 217, "pitch": 58, "duration": 7, "velocity": 78}, {"time": 217, "pitch": 61, "duration": 7, "velocity": 73}, {"time": 217, "pitch": 66, "duration": 8, "velocity": 92}, {"time": 223, "pitch": 49, "duration": 8, "velocity": 46}, {"time": 229, "pitch": 54, "duration": 4, "velocity": 84}, {"time": 229, "pitch": 58, "duration": 4, "velocity": 94}, {"time": 229, "pitch": 61, "duration": 5, "velocity": 89}, {"time": 241, "pitch": 47, "duration": 14, "velocity": 109}, {"time": 241, "pitch": 59, "duration": 6, "velocity": 90}, {"time": 241, "pitch": 63, "duration": 8, "velocity": 92}, {"time": 247, "pitch": 54, "duration": 8, "velocity": 76}, {"time": 250, "pitch": 59, "duration": 5, "velocity": 109}, {"time": 253, "pitch": 66, "duration": 4, "velocity": 102}, {"time": 259, "pitch": 61, "duration": 14, "velocity": 84}, {"time": 259, "pitch": 65, "duration": 13, "velocity": 105}, {"time": 265, "pitch": 49, "duration": 14, "velocity": 111}, {"time": 271, "pitch": 56, "duration": 7, "velocity": 97}, {"time": 277, "pitch": 61, "duration": 3, "velocity": 111}, {"time": 277, "pitch": 65, "duration": 4, "velocity": 111}, {"time": 277, "pitch": 68, "duration": 7, "velocity": 111}, {"time": 283, "pitch": 61, "duration": 2, "velocity": 97}, {"time": 289, "pitch": 46, "duration": 16, "velocity": 102}, {"time": 289, "pitch": 58, "duration": 6, "velocity": 111}, {"time": 289, "pitch": 61, "duration": 6, "velocity": 111}, {"time": 295, "pitch": 53, "duration": 9, "velocity": 80}, {"time": 298, "pitch": 58, "duration": 2, "velocity": 102}, {"time": 301, "pitch": 58, "duration": 3, "velocity": 111}, {"time": 301, "pitch": 61, "duration": 2, "velocity": 105}, {"time": 301, "pitch": 65, "duration": 3, "velocity": 111}, {"time": 307, "pitch": 58, "duration": 12, "velocity": 111}, {"time": 307, "pitch": 63, "duration": 13, "velocity": 108}, {"time": 313, "pitch": 51, "duration": 18, "velocity": 100}, {"time": 319, "pitch": 54, "duration": 12, "velocity": 94}, {"time": 325, "pitch": 58, "duration": 3, "velocity": 117}, {"time": 325, "pitch": 63, "duration": 7, "velocity": 114}, {"time": 325, "pitch": 66, "duration": 7, "velocity": 108}, {"time": 331, "pitch": 58, "duration": 2, "velocity": 102}, {"time": 337, "pitch": 47, "duration": 13, "velocity": 109}, {"time": 337, "pitch": 59, "duration": 6, "velocity": 96}, {"time": 337, "pitch": 63, "duration": 7, "velocity": 102}, {"time": 343, "pitch": 54, "duration": 8, "velocity": 76}, {"time": 346, "pitch": 59, "duration": 2, "velocity": 99}, {"time": 349, "pitch": 59, "duration": 2, "velocity": 79}, {"time": 349, "pitch": 63, "duration": 2, "velocity": 92}, {"time": 349, "pitch": 66, "duration": 3, "velocity": 108}, {"time": 355, "pitch": 61, "duration": 13, "velocity": 94}, {"time": 355, "pitch": 65, "duration": 13, "velocity": 108}, {"time": 361, "pitch": 49, "duration": 16, "velocity": 108}, {"time": 367, "pitch": 56, "duration": 8, "velocity": 66}, {"time": 373, "pitch": 61, "duration": 3, "velocity": 117}, {"time": 373, "pitch": 65, "duration": 8, "velocity": 111}, {"time": 373, "pitch": 68, "duration": 7, "velocity": 111}, {"time": 379, "pitch": 61, "duration": 4, "velocity": 100}, {"time": 385, "pitch": 42, "duration": 44, "velocity": 97}, {"time": 385, "pitch": 54, "duration": 8, "velocity": 92}, {"time": 385, "pitch": 58, "duration": 7, "velocity": 100}, {"time": 391, "pitch": 49, "duration": 8, "velocity": 66}, {"time": 397, "pitch": 54, "duration": 1, "velocity": 82}, {"time": 397, "pitch": 58, "duration": 7, "velocity": 108}, {"time": 397, "pitch": 61, "duration": 7, "velocity": 102}, {"time": 403, "pitch": 49, "duration": 9, "velocity": 73}, {"time": 406, "pitch": 54, "duration": 2, "velocity": 89}, {"time": 409, "pitch": 54, "duration": 8, "velocity": 89}, {"time": 409, "pitch": 58, "duration": 8, "velocity": 111}, {"time": 409, "pitch": 61, "duration": 8, "velocity": 102}, {"time": 409, "pitch": 66, "duration": 7, "velocity": 102}, {"time": 415, "pitch": 49, "duration": 8, "velocity": 84}, {"time": 421, "pitch": 54, "duration": 6, "velocity": 117}, {"time": 421, "pitch": 58, "duration": 9, "velocity": 111}, {"time": 427, "pitch": 49, "duration": 4, "velocity": 92}, {"time": 430, "pitch": 54, "duration": 3, "velocity": 89}, {"time": 433, "pitch": 47, "duration": 12, "velocity": 102}, {"time": 436, "pitch": 54, "duration": 9, "velocity": 69}, {"time": 439, "pitch": 59, "duration": 9, "velocity": 102}, {"time": 442, "pitch": 63, "duration": 5, "velocity": 94}, {"time": 442, "pitch": 66, "duration": 6, "velocity": 94}, {"time": 457, "pitch": 49, "duration": 12, "velocity": 102}, {"time": 460, "pitch": 56, "duration": 8, "velocity": 66}, {"time": 463, "pitch": 61, "duration": 8, "velocity": 87}, {"time": 466, "pitch": 65, "duration": 4, "velocity": 102}, {"time": 481, "pitch": 46, "duration": 13, "velocity": 94}, {"time": 484, "pitch": 53, "duration": 9, "velocity": 60}, {"time": 487, "pitch": 58, "duration": 6, "velocity": 87}, {"time": 490, "pitch": 61, "duration": 3, "velocity": 111}, {"time": 505, "pitch": 51, "duration": 12, "velocity": 105}, {"time": 508, "pitch": 54, "duration": 10, "velocity": 82}, {"time": 511, "pitch": 58, "duration": 8, "velocity": 111}, {"time": 514, "pitch": 66, "duration": 4, "velocity": 102}, {"time": 529, "pitch": 47, "duration": 14, "velocity": 72}, {"time": 532, "pitch": 54, "duration": 11, "velocity": 60}, {"time": 535, "pitch": 59, "duration": 8, "velocity": 93}, {"time": 538, "pitch": 63, "duration": 4, "velocity": 100}, {"time": 538, "pitch": 66, "duration": 4, "velocity": 102}, {"time": 553, "pitch": 49, "duration": 14, "velocity": 105}, {"time": 556, "pitch": 56, "duration": 10, "velocity": 73}, {"time": 559, "pitch": 61, "duration": 7, "velocity": 97}, {"time": 562, "pitch": 65, "duration": 3, "velocity": 111}, {"time": 577, "pitch": 42, "duration": 48, "velocity": 94}, {"time": 577, "pitch": 54, "duration": 8, "velocity": 76}, {"time": 577, "pitch": 58, "duration": 7, "velocity": 87}, {"time": 583, "pitch": 49, "duration": 8, "velocity": 43}, {"time": 589, "pitch": 54, "duration": 6, "velocity": 100}, {"time": 589, "pitch": 66, "duration": 5, "velocity": 100}, {"time": 595, "pitch": 49, "duration": 8, "velocity": 40}, {"time": 601, "pitch": 54, "duration": 7, "velocity": 73}, {"time": 601, "pitch": 58, "duration": 10, "velocity": 71}, {"time": 601, "pitch": 61, "duration": 10, "velocity": 89}, {"time": 607, "pitch": 49, "duration": 11, "velocity": 73}, {"time": 610, "pitch": 54, "duration": 14, "velocity": 89}, {"time": 613, "pitch": 58, "duration": 10, "velocity": 108}, {"time": 613, "pitch": 61, "duration": 11, "velocity": 100}, {"time": 613, "pitch": 66, "duration": 11, "velocity": 100}, {"time": 619, "pitch": 49, "duration": 4, "velocity": 29}, {"time": 625, "pitch": 47, "duration": 12, "velocity": 102}, {"time": 628, "pitch": 54, "duration": 9, "velocity": 69}, {"time": 631, "pitch": 59, "duration": 9, "velocity": 102}, {"time": 634, "pitch": 63, "duration": 5, "velocity": 94}, {"time": 634, "pitch": 66, "duration": 6, "velocity": 94}, {"time": 649, "pitch": 49, "duration": 12, "velocity": 102}, {"time": 652, "pitch": 56, "duration": 8, "velocity": 66}, {"time": 655, "pitch": 61, "duration": 8, "velocity": 87}, {"time": 658, "pitch": 65, "duration": 4, "velocity": 102}, {"time": 673, "pitch": 46, "duration": 13, "velocity": 94}, {"time": 676, "pitch": 53, "duration": 9, "velocity": 60}, {"time": 679, "pitch": 58, "duration": 6, "velocity": 87}, {"time": 682, "pitch": 61, "duration": 3, "velocity": 111}, {"time": 697, "pitch": 51, "duration": 12, "velocity": 105}, {"time": 700, "pitch": 54, "duration": 10, "velocity": 82}, {"time": 703, "pitch": 58, "duration": 8, "velocity": 111}, {"time": 706, "pitch": 66, "duration": 4, "velocity": 102}, {"time": 721, "pitch": 47, "duration": 14, "velocity": 72}, {"time": 724, "pitch": 54, "duration": 11, "velocity": 60}, {"time": 727, "pitch": 59, "duration": 8, "velocity": 93}, {"time": 730, "pitch": 63, "duration": 4, "velocity": 100}, {"time": 730, "pitch": 66, "duration": 4, "velocity": 102}, {"time": 745, "pitch": 49, "duration": 14, "velocity": 105}, {"time": 748, "pitch": 56, "duration": 10, "velocity": 73}, {"time": 751, "pitch": 61, "duration": 7, "velocity": 97}, {"time": 754, "pitch": 65, "duration": 3, "velocity": 111}, {"time": 769, "pitch": 42, "duration": 48, "velocity": 94}, {"time": 769, "pitch": 54, "duration": 8, "velocity": 76}, {"time": 769, "pitch": 58, "duration": 7, "velocity": 87}, {"time": 775, "pitch": 49, "duration": 8, "velocity": 43}, {"time": 781, "pitch": 54, "duration": 6, "velocity": 100}, {"time": 781, "pitch": 66, "duration": 5, "velocity": 100}, {"time": 787, "pitch": 49, "duration": 8, "velocity": 40}, {"time": 793, "pitch": 54, "duration": 7, "velocity": 73}, {"time": 793, "pitch": 58, "duration": 10, "velocity": 71}, {"time": 793, "pitch": 61, "duration": 10, "velocity": 89}, {"time": 799, "pitch": 49, "duration": 11, "velocity": 73}, {"time": 802, "pitch": 54, "duration": 14, "velocity": 89}, {"time": 805, "pitch": 58, "duration": 10, "velocity": 108}, {"time": 805, "pitch": 61, "duration": 11, "velocity": 100}, {"time": 805, "pitch": 66, "duration": 11, "velocity": 100}, {"time": 811, "pitch": 49, "duration": 4, "velocity": 29}, {"time": 817, "pitch": 47, "duration": 14, "velocity": 109}, {"time": 817, "pitch": 59, "duration": 6, "velocity": 90}, {"time": 817, "pitch": 63, "duration": 8, "velocity": 92}, {"time": 823, "pitch": 54, "duration": 8, "velocity": 76}, {"time": 826, "pitch": 59, "duration": 5, "velocity": 109}, {"time": 829, "pitch": 66, "duration": 4, "velocity": 102}, {"time": 835, "pitch": 61, "duration": 14, "velocity": 84}, {"time": 835, "pitch": 65, "duration": 13, "velocity": 105}, {"time": 841, "pitch": 49, "duration": 14, "velocity": 111}, {"time": 847, "pitch": 56, "duration": 7, "velocity": 97}, {"time": 853, "pitch": 61, "duration": 3, "velocity": 111}, {"time": 853, "pitch": 65, "duration": 4, "velocity": 111}, {"time": 853, "pitch": 68, "duration": 7, "velocity": 111}, {"time": 859, "pitch": 61, "duration": 2, "velocity": 97}, {"time": 865, "pitch": 46, "duration": 16, "velocity": 102}, {"time": 865, "pitch": 58, "duration": 6, "velocity": 111}, {"time": 865, "pitch": 61, "duration": 6, "velocity": 111}, {"time": 871, "pitch": 53, "duration": 9, "velocity": 80}, {"time": 874, "pitch": 58, "duration": 2, "velocity": 102}, {"time": 877, "pitch": 58, "duration": 3, "velocity": 111}, {"time": 877, "pitch": 61, "duration": 2, "velocity": 105}, {"time": 877, "pitch": 65, "duration": 3, "velocity": 111}, {"time": 883, "pitch": 58, "duration": 12, "velocity": 111}, {"time": 883, "pitch": 63, "duration": 13, "velocity": 108}, {"time": 889, "pitch": 51, "duration": 18, "velocity": 100}, {"time": 895, "pitch": 54, "duration": 12, "velocity": 94}, {"time": 901, "pitch": 58, "duration": 3, "velocity": 117}, {"time": 901, "pitch": 63, "duration": 7, "velocity": 114}, {"time": 901, "pitch": 66, "duration": 7, "velocity": 108}, {"time": 907, "pitch": 58, "duration": 2, "velocity": 102}, {"time": 913, "pitch": 47, "duration": 13, "velocity": 109}, {"time": 913, "pitch": 59, "duration": 6, "velocity": 96}, {"time": 913, "pitch": 63, "duration": 7, "velocity": 102}, {"time": 919, "pitch": 54, "duration": 8, "velocity": 76}, {"time": 922, "pitch": 59, "duration": 2, "velocity": 99}, {"time": 925, "pitch": 59, "duration": 2, "velocity": 79}, {"time": 925, "pitch": 63, "duration": 2, "velocity": 92}, {"time": 925, "pitch": 66, "duration": 3, "velocity": 108}, {"time": 931, "pitch": 61, "duration": 13, "velocity": 94}, {"time": 931, "pitch": 65, "duration": 13, "velocity": 108}, {"time": 937, "pitch": 49, "duration": 16, "velocity": 108}, {"time": 943, "pitch": 56, "duration": 8, "velocity": 66}, {"time": 949, "pitch": 61, "duration": 3, "velocity": 117}, {"time": 949, "pitch": 65, "duration": 8, "velocity": 111}, {"time": 949, "pitch": 68, "duration": 7, "velocity": 111}, {"time": 955, "pitch": 61, "duration": 4, "velocity": 100}, {"time": 961, "pitch": 42, "duration": 44, "velocity": 97}, {"time": 961, "pitch": 54, "duration": 8, "velocity": 92}, {"time": 961, "pitch": 58, "duration": 7, "velocity": 100}, {"time": 967, "pitch": 49, "duration": 8, "velocity": 66}, {"time": 973, "pitch": 54, "duration": 1, "velocity": 82}, {"time": 973, "pitch": 58, "duration": 7, "velocity": 108}, {"time": 973, "pitch": 61, "duration": 7, "velocity": 102}, {"time": 979, "pitch": 49, "duration": 9, "velocity": 73}, {"time": 982, "pitch": 54, "duration": 2, "velocity": 89}, {"time": 985, "pitch": 54, "duration": 8, "velocity": 89}, {"time": 985, "pitch": 58, "duration": 8, "velocity": 111}, {"time": 985, "pitch": 61, "duration": 8, "velocity": 102}, {"time": 985, "pitch": 66, "duration": 7, "velocity": 102}, {"time": 991, "pitch": 49, "duration": 8, "velocity": 84}, {"time": 997, "pitch": 54, "duration": 6, "velocity": 117}, {"time": 997, "pitch": 58, "duration": 9, "velocity": 111}, {"time": 1003, "pitch": 49, "duration": 4, "velocity": 92}, {"time": 1006, "pitch": 54, "duration": 3, "velocity": 89}, {"time": 1009, "pitch": 47, "duration": 14, "velocity": 109}, {"time": 1009, "pitch": 59, "duration": 6, "velocity": 90}, {"time": 1009, "pitch": 63, "duration": 8, "velocity": 92}, {"time": 1015, "pitch": 54, "duration": 8, "velocity": 76}, {"time": 1018, "pitch": 59, "duration": 5, "velocity": 109}, {"time": 1021, "pitch": 66, "duration": 4, "velocity": 102}, {"time": 1027, "pitch": 61, "duration": 14, "velocity": 84}, {"time": 1027, "pitch": 65, "duration": 13, "velocity": 105}, {"time": 1033, "pitch": 49, "duration": 14, "velocity": 111}, {"time": 1039, "pitch": 56, "duration": 7, "velocity": 97}, {"time": 1045, "pitch": 61, "duration": 3, "velocity": 111}, {"time": 1045, "pitch": 65, "duration": 4, "velocity": 111}, {"time": 1045, "pitch": 68, "duration": 7, "velocity": 111}, {"time": 1051, "pitch": 61, "duration": 2, "velocity": 97}, {"time": 1057, "pitch": 46, "duration": 16, "velocity": 102}, {"time": 1057, "pitch": 58, "duration": 6, "velocity": 111}, {"time": 1057, "pitch": 61, "duration": 6, "velocity": 111}, {"time": 1063, "pitch": 53, "duration": 9, "velocity": 80}, {"time": 1066, "pitch": 58, "duration": 2, "velocity": 102}, {"time": 1069, "pitch": 58, "duration": 3, "velocity": 111}, {"time": 1069, "pitch": 61, "duration": 2, "velocity": 105}, {"time": 1069, "pitch": 65, "duration": 3, "velocity": 111}, {"time": 1075, "pitch": 58, "duration": 12, "velocity": 111}, {"time": 1075, "pitch": 63, "duration": 13, "velocity": 108}, {"time": 1081, "pitch": 51, "duration": 18, "velocity": 100}, {"time": 1087, "pitch": 54, "duration": 12, "velocity": 94}, {"time": 1093, "pitch": 58, "duration": 3, "velocity": 117}, {"time": 1093, "pitch": 63, "duration": 7, "velocity": 114}, {"time": 1093, "pitch": 66, "duration": 7, "velocity": 108}, {"time": 1099, "pitch": 58, "duration": 2, "velocity": 102}, {"time": 1105, "pitch": 47, "duration": 13, "velocity": 109}, {"time": 1105, "pitch": 59, "duration": 6, "velocity": 96}, {"time": 1105, "pitch": 63, "duration": 7, "velocity": 102}, {"time": 1111, "pitch": 54, "duration": 8, "velocity": 76}, {"time": 1114, "pitch": 59, "duration": 2, "velocity": 99}, {"time": 1117, "pitch": 59, "duration": 2, "velocity": 79}, {"time": 1117, "pitch": 63, "duration": 2, "velocity": 92}, {"time": 1117, "pitch": 66, "duration": 3, "velocity": 108}, {"time": 1123, "pitch": 61, "duration": 13, "velocity": 94}, {"time": 1123, "pitch": 65, "duration": 13, "velocity": 108}, {"time": 1129, "pitch": 49, "duration": 16, "velocity": 108}, {"time": 1135, "pitch": 56, "duration": 8, "velocity": 66}, {"time": 1141, "pitch": 61, "duration": 3, "velocity": 117}, {"time": 1141, "pitch": 65, "duration": 8, "velocity": 111}, {"time": 1141, "pitch": 68, "duration": 7, "velocity": 111}, {"time": 1147, "pitch": 61, "duration": 4, "velocity": 100}, {"time": 1153, "pitch": 42, "duration": 44, "velocity": 97}, {"time": 1153, "pitch": 54, "duration": 8, "velocity": 92}, {"time": 1153, "pitch": 58, "duration": 7, "velocity": 100}, {"time": 1159, "pitch": 49, "duration": 8, "velocity": 66}, {"time": 1165, "pitch": 54, "duration": 1, "velocity": 82}, {"time": 1165, "pitch": 58, "duration": 7, "velocity": 108}, {"time": 1165, "pitch": 61, "duration": 7, "velocity": 102}, {"time": 1171, "pitch": 49, "duration": 9, "velocity": 73}, {"time": 1174, "pitch": 54, "duration": 2, "velocity": 89}, {"time": 1177, "pitch": 54, "duration": 8, "velocity": 89}, {"time": 1177, "pitch": 58, "duration": 8, "velocity": 111}, {"time": 1177, "pitch": 61, "duration": 8, "velocity": 102}, {"time": 1177, "pitch": 66, "duration": 7, "velocity": 102}, {"time": 1183, "pitch": 49, "duration": 8, "velocity": 84}, {"time": 1189, "pitch": 54, "duration": 6, "velocity": 117}, {"time": 1189, "pitch": 58, "duration": 9, "velocity": 111}, {"time": 1195, "pitch": 49, "duration": 4, "velocity": 92}, {"time": 1198, "pitch": 54, "duration": 3, "velocity": 89}, {"time": 1201, "pitch": 47, "duration": 18, "velocity": 112}, {"time": 1201, "pitch": 59, "duration": 7, "velocity": 90}, {"time": 1201, "pitch": 63, "duration": 9, "velocity": 105}, {"time": 1207, "pitch": 54, "duration": 12, "velocity": 69}, {"time": 1210, "pitch": 59, "duration": 5, "velocity": 102}, {"time": 1213, "pitch": 66, "duration": 9, "velocity": 94}, {"time": 1219, "pitch": 59, "duration": 3, "velocity": 90}, {"time": 1225, "pitch": 49, "duration": 14, "velocity": 105}, {"time": 1225, "pitch": 61, "duration": 15, "velocity": 76}, {"time": 1225, "pitch": 65, "duration": 14, "velocity": 73}, {"time": 1249, "pitch": 46, "duration": 22, "velocity": 102}, {"time": 1249, "pitch": 58, "duration": 6, "velocity": 89}, {"time": 1249, "pitch": 61, "duration": 8, "velocity": 89}, {"time": 1255, "pitch": 53, "duration": 15, "velocity": 67}, {"time": 1258, "pitch": 58, "duration": 6, "velocity": 82}, {"time": 1261, "pitch": 61, "duration": 5, "velocity": 82}, {"time": 1267, "pitch": 65, "duration": 4, "velocity": 97}, {"time": 1273, "pitch": 51, "duration": 14, "velocity": 89}, {"time": 1273, "pitch": 58, "duration": 13, "velocity": 84}, {"time": 1273, "pitch": 63, "duration": 13, "velocity": 89}, {"time": 1297, "pitch": 47, "duration": 17, "velocity": 105}, {"time": 1303, "pitch": 54, "duration": 11, "velocity": 78}, {"time": 1306, "pitch": 59, "duration": 7, "velocity": 105}, {"time": 1312, "pitch": 63, "duration": 7, "velocity": 102}, {"time": 1312, "pitch": 66, "duration": 8, "velocity": 105}, {"time": 1318, "pitch": 59, "duration": 2, "velocity": 90}, {"time": 1321, "pitch": 49, "duration": 16, "velocity": 97}, {"time": 1324, "pitch": 56, "duration": 11, "velocity": 80}, {"time": 1327, "pitch": 61, "duration": 5, "velocity": 94}, {"time": 1333, "pitch": 61, "duration": 4, "velocity": 111}, {"time": 1333, "pitch": 65, "duration": 5, "velocity": 111}, {"time": 1345, "pitch": 42, "duration": 47, "velocity": 97}, {"time": 1345, "pitch": 54, "duration": 7, "velocity": 111}, {"time": 1345, "pitch": 58, "duration": 7, "velocity": 108}, {"time": 1351, "pitch": 49, "duration": 8, "velocity": 57}, {"time": 1357, "pitch": 54, "duration": 5, "velocity": 108}, {"time": 1357, "pitch": 61, "duration": 3, "velocity": 108}, {"time": 1363, "pitch": 49, "duration": 8, "velocity": 53}, {"time": 1366, "pitch": 54, "duration": 2, "velocity": 94}, {"time": 1369, "pitch": 54, "duration": 7, "velocity": 105}, {"time": 1369, "pitch": 66, "duration": 6, "velocity": 102}, {"time": 1375, "pitch": 49, "duration": 17, "velocity": 67}, {"time": 1381, "pitch": 54, "duration": 11, "velocity": 87}, {"time": 1381, "pitch": 58, "duration": 11, "velocity": 84}, {"time": 1381, "pitch": 61, "duration": 11, "velocity": 92}, {"time": 1393, "pitch": 47, "duration": 12, "velocity": 102}, {"time": 1396, "pitch": 54, "duration": 9, "velocity": 69}, {"time": 1399, "pitch": 59, "duration": 9, "velocity": 102}, {"time": 1402, "pitch": 63, "duration": 5, "velocity": 94}, {"time": 1402, "pitch": 66, "duration": 6, "velocity": 94}, {"time": 1417, "pitch": 49, "duration": 12, "velocity": 102}, {"time": 1420, "pitch": 56, "duration": 8, "velocity": 66}, {"time": 1423, "pitch": 61, "duration": 8, "velocity": 87}, {"time": 1426, "pitch": 65, "duration": 4, "velocity": 102}, {"time": 1441, "pitch": 46, "duration": 13, "velocity": 94}, {"time": 1444, "pitch": 53, "duration": 9, "velocity": 60}, {"time": 1447, "pitch": 58, "duration": 6, "velocity": 87}, {"time": 1450, "pitch": 61, "duration": 3, "velocity": 111}, {"time": 1465, "pitch": 51, "duration": 12, "velocity": 105}, {"time": 1468, "pitch": 54, "duration": 10, "velocity": 82}, {"time": 1471, "pitch": 58, "duration": 8, "velocity": 111}, {"time": 1474, "pitch": 66, "duration": 4, "velocity": 102}, {"time": 1489, "pitch": 47, "duration": 14, "velocity": 72}, {"time": 1492, "pitch": 54, "duration": 11, "velocity": 60}, {"time": 1495, "pitch": 59, "duration": 8, "velocity": 93}, {"time": 1498, "pitch": 63, "duration": 4, "velocity": 100}, {"time": 1498, "pitch": 66, "duration": 4, "velocity": 102}, {"time": 1513, "pitch": 49, "duration": 14, "velocity": 105}, {"time": 1516, "pitch": 56, "duration": 10, "velocity": 73}, {"time": 1519, "pitch": 61, "duration": 7, "velocity": 97}, {"time": 1522, "pitch": 65, "duration": 3, "velocity": 111}, {"time": 1537, "pitch": 42, "duration": 48, "velocity": 94}, {"time": 1537, "pitch": 54, "duration": 8, "velocity": 76}, {"time": 1537, "pitch": 58, "duration": 7, "velocity": 87}, {"time": 1543, "pitch": 49, "duration": 8, "velocity": 43}, {"time": 1549, "pitch": 54, "duration": 6, "velocity": 100}, {"time": 1549, "pitch": 66, "duration": 5, "velocity": 100}, {"time": 1555, "pitch": 49, "duration": 8, "velocity": 40}, {"time": 1561, "pitch": 54, "duration": 7, "velocity": 73}, {"time": 1561, "pitch": 58, "duration": 10, "velocity": 71}, {"time": 1561, "pitch": 61, "duration": 10, "velocity": 89}, {"time": 1567, "pitch": 49, "duration": 11, "velocity": 73}, {"time": 1570, "pitch": 54, "duration": 14, "velocity": 89}, {"time": 1573, "pitch": 58, "duration": 10, "velocity": 108}, {"time": 1573, "pitch": 61, "duration": 11, "velocity": 100}, {"time": 1573, "pitch": 66, "duration": 11, "velocity": 100}, {"time": 1579, "pitch": 49, "duration": 4, "velocity": 29}, {"time": 1585, "pitch": 47, "duration": 12, "velocity": 102}, {"time": 1588, "pitch": 54, "duration": 9, "velocity": 69}, {"time": 1591, "pitch": 59, "duration": 9, "velocity": 102}, {"time": 1594, "pitch": 63, "duration": 5, "velocity": 94}, {"time": 1594, "pitch": 66, "duration": 6, "velocity": 94}, {"time": 1609, "pitch": 49, "duration": 12, "velocity": 102}, {"time": 1612, "pitch": 56, "duration": 8, "velocity": 66}, {"time": 1615, "pitch": 61, "duration": 8, "velocity": 87}, {"time": 1618, "pitch": 65, "duration": 4, "velocity": 102}, {"time": 1633, "pitch": 46, "duration": 13, "velocity": 94}, {"time": 1636, "pitch": 53, "duration": 9, "velocity": 60}, {"time": 1639, "pitch": 58, "duration": 6, "velocity": 87}, {"time": 1642, "pitch": 61, "duration": 3, "velocity": 111}, {"time": 1657, "pitch": 51, "duration": 12, "velocity": 105}, {"time": 1660, "pitch": 54, "duration": 10, "velocity": 82}, {"time": 1663, "pitch": 58, "duration": 8, "velocity": 111}, {"time": 1666, "pitch": 66, "duration": 4, "velocity": 102}, {"time": 1681, "pitch": 47, "duration": 14, "velocity": 72}, {"time": 1684, "pitch": 54, "duration": 11, "velocity": 60}, {"time": 1687, "pitch": 59, "duration": 8, "velocity": 93}, {"time": 1690, "pitch": 63, "duration": 4, "velocity": 100}, {"time": 1690, "pitch": 66, "duration": 4, "velocity": 102}, {"time": 1705, "pitch": 49, "duration": 14, "velocity": 105}, {"time": 1708, "pitch": 56, "duration": 10, "velocity": 73}, {"time": 1711, "pitch": 61, "duration": 7, "velocity": 97}, {"time": 1714, "pitch": 65, "duration": 3, "velocity": 111}, {"time": 1729, "pitch": 42, "duration": 48, "velocity": 94}, {"time": 1729, "pitch": 54, "duration": 8, "velocity": 76}, {"time": 1729, "pitch": 58, "duration": 7, "velocity": 87}, {"time": 1735, "pitch": 49, "duration": 8, "velocity": 43}, {"time": 1741, "pitch": 54, "duration": 6, "velocity": 100}, {"time": 1741, "pitch": 66, "duration": 5, "velocity": 100}, {"time": 1747, "pitch": 49, "duration": 8, "velocity": 40}, {"time": 1753, "pitch": 54, "duration": 7, "velocity": 73}, {"time": 1753, "pitch": 58, "duration": 10, "velocity": 71}, {"time": 1753, "pitch": 61, "duration": 10, "velocity": 89}, {"time": 1759, "pitch": 49, "duration": 11, "velocity": 73}, {"time": 1762, "pitch": 54, "duration": 14, "velocity": 89}, {"time": 1765, "pitch": 58, "duration": 10, "velocity": 108}, {"time": 1765, "pitch": 61, "duration": 11, "velocity": 100}, {"time": 1765, "pitch": 66, "duration": 11, "velocity": 100}, {"time": 1771, "pitch": 49, "duration": 4, "velocity": 29}, {"time": 1777, "pitch": 47, "duration": 14, "velocity": 109}, {"time": 1777, "pitch": 59, "duration": 6, "velocity": 90}, {"time": 1777, "pitch": 63, "duration": 8, "velocity": 92}, {"time": 1783, "pitch": 54, "duration": 8, "velocity": 76}, {"time": 1786, "pitch": 59, "duration": 5, "velocity": 109}, {"time": 1789, "pitch": 66, "duration": 4, "velocity": 102}, {"time": 1795, "pitch": 61, "duration": 14, "velocity": 84}, {"time": 1795, "pitch": 65, "duration": 13, "velocity": 105}, {"time": 1801, "pitch": 49, "duration": 14, "velocity": 111}, {"time": 1807, "pitch": 56, "duration": 7, "velocity": 97}, {"time": 1813, "pitch": 61, "duration": 3, "velocity": 111}, {"time": 1813, "pitch": 65, "duration": 4, "velocity": 111}, {"time": 1813, "pitch": 68, "duration": 7, "velocity": 111}, {"time": 1819, "pitch": 61, "duration": 2, "velocity": 97}, {"time": 1825, "pitch": 46, "duration": 16, "velocity": 102}, {"time": 1825, "pitch": 58, "duration": 6, "velocity": 111}, {"time": 1825, "pitch": 61, "duration": 6, "velocity": 111}, {"time": 1831, "pitch": 53, "duration": 9, "velocity": 80}, {"time": 1834, "pitch": 58, "duration": 2, "velocity": 102}, {"time": 1837, "pitch": 58, "duration": 3, "velocity": 111}, {"time": 1837, "pitch": 61, "duration": 2, "velocity": 105}, {"time": 1837, "pitch": 65, "duration": 3, "velocity": 111}, {"time": 1843, "pitch": 58, "duration": 12, "velocity": 111}, {"time": 1843, "pitch": 63, "duration": 13, "velocity": 108}, {"time": 1849, "pitch": 51, "duration": 18, "velocity": 100}, {"time": 1855, "pitch": 54, "duration": 12, "velocity": 94}, {"time": 1861, "pitch": 58, "duration": 3, "velocity": 117}, {"time": 1861, "pitch": 63, "duration": 7, "velocity": 114}, {"time": 1861, "pitch": 66, "duration": 7, "velocity": 108}, {"time": 1867, "pitch": 58, "duration": 2, "velocity": 102}, {"time": 1873, "pitch": 47, "duration": 13, "velocity": 109}, {"time": 1873, "pitch": 59, "duration": 6, "velocity": 96}, {"time": 1873, "pitch": 63, "duration": 7, "velocity": 102}, {"time": 1879, "pitch": 54, "duration": 8, "velocity": 76}, {"time": 1882, "pitch": 59, "duration": 2, "velocity": 99}, {"time": 1885, "pitch": 59, "duration": 2, "velocity": 79}, {"time": 1885, "pitch": 63, "duration": 2, "velocity": 92}, {"time": 1885, "pitch": 66, "duration": 3, "velocity": 108}, {"time": 1891, "pitch": 61, "duration": 13, "velocity": 94}, {"time": 1891, "pitch": 65, "duration": 13, "velocity": 108}, {"time": 1897, "pitch": 49, "duration": 16, "velocity": 108}, {"time": 1903, "pitch": 56, "duration": 8, "velocity": 66}, {"time": 1909, "pitch": 61, "duration": 3, "velocity": 117}, {"time": 1909, "pitch": 65, "duration": 8, "velocity": 111}, {"time": 1909, "pitch": 68, "duration": 7, "velocity": 111}, {"time": 1915, "pitch": 61, "duration": 4, "velocity": 100}, {"time": 1921, "pitch": 42, "duration": 44, "velocity": 97}, {"time": 1921, "pitch": 54, "duration": 8, "velocity": 92}, {"time": 1921, "pitch": 58, "duration": 7, "velocity": 100}, {"time": 1927, "pitch": 49, "duration": 8, "velocity": 66}, {"time": 1933, "pitch": 54, "duration": 1, "velocity": 82}, {"time": 1933, "pitch": 58, "duration": 7, "velocity": 108}, {"time": 1933, "pitch": 61, "duration": 7, "velocity": 102}, {"time": 1939, "pitch": 49, "duration": 9, "velocity": 73}, {"time": 1942, "pitch": 54, "duration": 2, "velocity": 89}, {"time": 1945, "pitch": 54, "duration": 8, "velocity": 89}, {"time": 1945, "pitch": 58, "duration": 8, "velocity": 111}, {"time": 1945, "pitch": 61, "duration": 8, "velocity": 102}, {"time": 1945, "pitch": 66, "duration": 7, "velocity": 102}, {"time": 1951, "pitch": 49, "duration": 8, "velocity": 84}, {"time": 1957, "pitch": 54, "duration": 6, "velocity": 117}, {"time": 1957, "pitch": 58, "duration": 9, "velocity": 111}, {"time": 1963, "pitch": 49, "duration": 4, "velocity": 92}, {"time": 1966, "pitch": 54, "duration": 3, "velocity": 89}, {"time": 1969, "pitch": 47, "duration": 14, "velocity": 109}, {"time": 1969, "pitch": 59, "duration": 6, "velocity": 90}, {"time": 1969, "pitch": 63, "duration": 8, "velocity": 92}, {"time": 1975, "pitch": 54, "duration": 8, "velocity": 76}, {"time": 1978, "pitch": 59, "duration": 5, "velocity": 109}, {"time": 1981, "pitch": 66, "duration": 4, "velocity": 102}, {"time": 1987, "pitch": 61, "duration": 14, "velocity": 84}, {"time": 1987, "pitch": 65, "duration": 13, "velocity": 105}, {"time": 1993, "pitch": 49, "duration": 14, "velocity": 111}, {"time": 1999, "pitch": 56, "duration": 7, "velocity": 97}, {"time": 2005, "pitch": 61, "duration": 3, "velocity": 111}, {"time": 2005, "pitch": 65, "duration": 4, "velocity": 111}, {"time": 2005, "pitch": 68, "duration": 7, "velocity": 111}, {"time": 2011, "pitch": 61, "duration": 2, "velocity": 97}, {"time": 2017, "pitch": 46, "duration": 16, "velocity": 102}, {"time": 2017, "pitch": 58, "duration": 6, "velocity": 111}, {"time": 2017, "pitch": 61, "duration": 6, "velocity": 111}, {"time": 2023, "pitch": 53, "duration": 9, "velocity": 80}, {"time": 2026, "pitch": 58, "duration": 2, "velocity": 102}, {"time": 2029, "pitch": 58, "duration": 3, "velocity": 111}, {"time": 2029, "pitch": 61, "duration": 2, "velocity": 105}, {"time": 2029, "pitch": 65, "duration": 3, "velocity": 111}, {"time": 2035, "pitch": 58, "duration": 12, "velocity": 111}, {"time": 2035, "pitch": 63, "duration": 13, "velocity": 108}, {"time": 2041, "pitch": 51, "duration": 18, "velocity": 100}, {"time": 2047, "pitch": 54, "duration": 12, "velocity": 94}, {"time": 2053, "pitch": 58, "duration": 3, "velocity": 117}, {"time": 2053, "pitch": 63, "duration": 7, "velocity": 114}, {"time": 2053, "pitch": 66, "duration": 7, "velocity": 108}, {"time": 2059, "pitch": 58, "duration": 2, "velocity": 102}, {"time": 2065, "pitch": 47, "duration": 13, "velocity": 109}, {"time": 2065, "pitch": 59, "duration": 6, "velocity": 96}, {"time": 2065, "pitch": 63, "duration": 7, "velocity": 102}, {"time": 2071, "pitch": 54, "duration": 8, "velocity": 76}, {"time": 2074, "pitch": 59, "duration": 2, "velocity": 99}, {"time": 2077, "pitch": 59, "duration": 2, "velocity": 79}, {"time": 2077, "pitch": 63, "duration": 2, "velocity": 92}, {"time": 2077, "pitch": 66, "duration": 3, "velocity": 108}, {"time": 2083, "pitch": 61, "duration": 13, "velocity": 94}, {"time": 2083, "pitch": 65, "duration": 13, "velocity": 108}, {"time": 2089, "pitch": 49, "duration": 16, "velocity": 108}, {"time": 2095, "pitch": 56, "duration": 8, "velocity": 66}, {"time": 2101, "pitch": 61, "duration": 3, "velocity": 117}, {"time": 2101, "pitch": 65, "duration": 8, "velocity": 111}, {"time": 2101, "pitch": 68, "duration": 7, "velocity": 111}, {"time": 2107, "pitch": 61, "duration": 4, "velocity": 100}, {"time": 2113, "pitch": 42, "duration": 44, "velocity": 97}, {"time": 2113, "pitch": 54, "duration": 8, "velocity": 92}, {"time": 2113, "pitch": 58, "duration": 7, "velocity": 100}, {"time": 2119, "pitch": 49, "duration": 8, "velocity": 66}, {"time": 2125, "pitch": 54, "duration": 1, "velocity": 82}, {"time": 2125, "pitch": 58, "duration": 7, "velocity": 108}, {"time": 2125, "pitch": 61, "duration": 7, "velocity": 102}, {"time": 2131, "pitch": 49, "duration": 9, "velocity": 73}, {"time": 2134, "pitch": 54, "duration": 2, "velocity": 89}, {"time": 2137, "pitch": 54, "duration": 8, "velocity": 89}, {"time": 2137, "pitch": 58, "duration": 8, "velocity": 111}, {"time": 2137, "pitch": 61, "duration": 8, "velocity": 102}, {"time": 2137, "pitch": 66, "duration": 7, "velocity": 102}, {"time": 2143, "pitch": 49, "duration": 8, "velocity": 84}, {"time": 2149, "pitch": 54, "duration": 6, "velocity": 117}, {"time": 2149, "pitch": 58, "duration": 9, "velocity": 111}, {"time": 2155, "pitch": 49, "duration": 4, "velocity": 92}, {"time": 2158, "pitch": 54, "duration": 3, "velocity": 89}, {"time": 2161, "pitch": 47, "duration": 19, "velocity": 104}, {"time": 2161, "pitch": 54, "duration": 8, "velocity": 99}, {"time": 2161, "pitch": 59, "duration": 8, "velocity": 96}, {"time": 2161, "pitch": 63, "duration": 8, "velocity": 101}, {"time": 2173, "pitch": 54, "duration": 4, "velocity": 109}, {"time": 2173, "pitch": 59, "duration": 4, "velocity": 106}, {"time": 2173, "pitch": 63, "duration": 4, "velocity": 106}, {"time": 2185, "pitch": 49, "duration": 14, "velocity": 101}, {"time": 2185, "pitch": 56, "duration": 7, "velocity": 106}, {"time": 2185, "pitch": 61, "duration": 6, "velocity": 106}, {"time": 2185, "pitch": 65, "duration": 7, "velocity": 107}, {"time": 2197, "pitch": 56, "duration": 4, "velocity": 106}, {"time": 2197, "pitch": 61, "duration": 6, "velocity": 112}, {"time": 2197, "pitch": 65, "duration": 7, "velocity": 117}, {"time": 2209, "pitch": 46, "duration": 12, "velocity": 99}, {"time": 2209, "pitch": 58, "duration": 8, "velocity": 99}, {"time": 2209, "pitch": 61, "duration": 7, "velocity": 104}, {"time": 2209, "pitch": 65, "duration": 8, "velocity": 101}, {"time": 2215, "pitch": 53, "duration": 5, "velocity": 55}, {"time": 2221, "pitch": 58, "duration": 3, "velocity": 101}, {"time": 2221, "pitch": 61, "duration": 6, "velocity": 109}, {"time": 2221, "pitch": 65, "duration": 6, "velocity": 113}, {"time": 2227, "pitch": 58, "duration": 2, "velocity": 74}, {"time": 2233, "pitch": 39, "duration": 14, "velocity": 104}, {"time": 2233, "pitch": 51, "duration": 9, "velocity": 106}, {"time": 2233, "pitch": 54, "duration": 7, "velocity": 104}, {"time": 2239, "pitch": 46, "duration": 6, "velocity": 59}, {"time": 2245, "pitch": 51, "duration": 2, "velocity": 94}, {"time": 2245, "pitch": 54, "duration": 6, "velocity": 106}, {"time": 2245, "pitch": 58, "duration": 7, "velocity": 106}, {"time": 2257, "pitch": 47, "duration": 14, "velocity": 91}, {"time": 2257, "pitch": 54, "duration": 8, "velocity": 94}, {"time": 2257, "pitch": 59, "duration": 8, "velocity": 104}, {"time": 2269, "pitch": 54, "duration": 2, "velocity": 106}, {"time": 2269, "pitch": 59, "duration": 6, "velocity": 109}, {"time": 2269, "pitch": 63, "duration": 6, "velocity": 106}, {"time": 2281, "pitch": 49, "duration": 16, "velocity": 106}, {"time": 2281, "pitch": 56, "duration": 7, "velocity": 99}, {"time": 2281, "pitch": 61, "duration": 7, "velocity": 106}, {"time": 2281, "pitch": 65, "duration": 7, "velocity": 101}, {"time": 2293, "pitch": 56, "duration": 3, "velocity": 104}, {"time": 2293, "pitch": 61, "duration": 7, "velocity": 106}, {"time": 2293, "pitch": 65, "duration": 6, "velocity": 117}, {"time": 2299, "pitch": 56, "duration": 2, "velocity": 87}, {"time": 2305, "pitch": 42, "duration": 44, "velocity": 101}, {"time": 2305, "pitch": 54, "duration": 9, "velocity": 96}, {"time": 2305, "pitch": 58, "duration": 8, "velocity": 101}, {"time": 2311, "pitch": 49, "duration": 8, "velocity": 87}, {"time": 2317, "pitch": 54, "duration": 5, "velocity": 106}, {"time": 2317, "pitch": 58, "duration": 5, "velocity": 112}, {"time": 2317, "pitch": 61, "duration": 5, "velocity": 112}, {"time": 2323, "pitch": 49, "duration": 7, "velocity": 78}, {"time": 2329, "pitch": 58, "duration": 5, "velocity": 112}, {"time": 2329, "pitch": 61, "duration": 6, "velocity": 115}, {"time": 2335, "pitch": 49, "duration": 14, "velocity": 82}, {"time": 2341, "pitch": 58, "duration": 9, "velocity": 118}, {"time": 2341, "pitch": 61, "duration": 9, "velocity": 115}, {"time": 2341, "pitch": 66, "duration": 9, "velocity": 106}, {"time": 2347, "pitch": 54, "duration": 4, "velocity": 91}, {"time": 2353, "pitch": 47, "duration": 19, "velocity": 104}, {"time": 2353, "pitch": 54, "duration": 8, "velocity": 99}, {"time": 2353, "pitch": 59, "duration": 8, "velocity": 96}, {"time": 2353, "pitch": 63, "duration": 8, "velocity": 101}, {"time": 2365, "pitch": 54, "duration": 4, "velocity": 109}, {"time": 2365, "pitch": 59, "duration": 4, "velocity": 106}, {"time": 2365, "pitch": 63, "duration": 4, "velocity": 106}, {"time": 2377, "pitch": 49, "duration": 14, "velocity": 101}, {"time": 2377, "pitch": 56, "duration": 7, "velocity": 106}, {"time": 2377, "pitch": 61, "duration": 6, "velocity": 106}, {"time": 2377, "pitch": 65, "duration": 7, "velocity": 107}, {"time": 2389, "pitch": 56, "duration": 4, "velocity": 106}, {"time": 2389, "pitch": 61, "duration": 6, "velocity": 112}, {"time": 2389, "pitch": 65, "duration": 7, "velocity": 117}, {"time": 2401, "pitch": 46, "duration": 12, "velocity": 99}, {"time": 2401, "pitch": 58, "duration": 8, "velocity": 99}, {"time": 2401, "pitch": 61, "duration": 7, "velocity": 104}, {"time": 2401, "pitch": 65, "duration": 8, "velocity": 101}, {"time": 2407, "pitch": 53, "duration": 5, "velocity": 55}, {"time": 2413, "pitch": 58, "duration": 3, "velocity": 101}, {"time": 2413, "pitch": 61, "duration": 6, "velocity": 109}, {"time": 2413, "pitch": 65, "duration": 6, "velocity": 113}, {"time": 2419, "pitch": 58, "duration": 2, "velocity": 74}, {"time": 2425, "pitch": 39, "duration": 14, "velocity": 104}, {"time": 2425, "pitch": 51, "duration": 9, "velocity": 106}, {"time": 2425, "pitch": 54, "duration": 7, "velocity": 104}, {"time": 2431, "pitch": 46, "duration": 6, "velocity": 59}, {"time": 2437, "pitch": 51, "duration": 2, "velocity": 94}, {"time": 2437, "pitch": 54, "duration": 6, "velocity": 106}, {"time": 2437, "pitch": 58, "duration": 7, "velocity": 106}, {"time": 2449, "pitch": 47, "duration": 14, "velocity": 91}, {"time": 2449, "pitch": 54, "duration": 8, "velocity": 94}, {"time": 2449, "pitch": 59, "duration": 8, "velocity": 104}, {"time": 2461, "pitch": 54, "duration": 2, "velocity": 106}, {"time": 2461, "pitch": 59, "duration": 6, "velocity": 109}, {"time": 2461, "pitch": 63, "duration": 6, "velocity": 106}, {"time": 2473, "pitch": 49, "duration": 16, "velocity": 106}, {"time": 2473, "pitch": 56, "duration": 7, "velocity": 99}, {"time": 2473, "pitch": 61, "duration": 7, "velocity": 106}, {"time": 2473, "pitch": 65, "duration": 7, "velocity": 101}, {"time": 2485, "pitch": 56, "duration": 3, "velocity": 104}, {"time": 2485, "pitch": 61, "duration": 7, "velocity": 106}, {"time": 2485, "pitch": 65, "duration": 6, "velocity": 117}, {"time": 2491, "pitch": 56, "duration": 2, "velocity": 87}, {"time": 2497, "pitch": 42, "duration": 44, "velocity": 101}, {"time": 2497, "pitch": 54, "duration": 9, "velocity": 96}, {"time": 2497, "pitch": 58, "duration": 8, "velocity": 101}, {"time": 2503, "pitch": 49, "duration": 8, "velocity": 87}, {"time": 2509, "pitch": 54, "duration": 5, "velocity": 106}, {"time": 2509, "pitch": 58, "duration": 5, "velocity": 112}, {"time": 2509, "pitch": 61, "duration": 5, "velocity": 112}, {"time": 2515, "pitch": 49, "duration": 7, "velocity": 78}, {"time": 2521, "pitch": 58, "duration": 5, "velocity": 112}, {"time": 2521, "pitch": 61, "duration": 6, "velocity": 115}, {"time": 2527, "pitch": 49, "duration": 14, "velocity": 82}, {"time": 2533, "pitch": 58, "duration": 9, "velocity": 118}, {"time": 2533, "pitch": 61, "duration": 9, "velocity": 115}, {"time": 2533, "pitch": 66, "duration": 9, "velocity": 106}, {"time": 2539, "pitch": 54, "duration": 4, "velocity": 91}, {"time": 2545, "pitch": 47, "duration": 19, "velocity": 104}, {"time": 2545, "pitch": 54, "duration": 8, "velocity": 99}, {"time": 2545, "pitch": 59, "duration": 8, "velocity": 96}, {"time": 2545, "pitch": 63, "duration": 8, "velocity": 101}, {"time": 2557, "pitch": 54, "duration": 4, "velocity": 109}, {"time": 2557, "pitch": 59, "duration": 4, "velocity": 106}, {"time": 2557, "pitch": 63, "duration": 4, "velocity": 106}, {"time": 2569, "pitch": 49, "duration": 14, "velocity": 101}, {"time": 2569, "pitch": 56, "duration": 7, "velocity": 106}, {"time": 2569, "pitch": 61, "duration": 6, "velocity": 106}, {"time": 2569, "pitch": 65, "duration": 7, "velocity": 107}, {"time": 2581, "pitch": 56, "duration": 4, "velocity": 106}, {"time": 2581, "pitch": 61, "duration": 6, "velocity": 112}, {"time": 2581, "pitch": 65, "duration": 7, "velocity": 117}, {"time": 2593, "pitch": 46, "duration": 12, "velocity": 99}, {"time": 2593, "pitch": 58, "duration": 8, "velocity": 99}, {"time": 2593, "pitch": 61, "duration": 7, "velocity": 104}, {"time": 2593, "pitch": 65, "duration": 8, "velocity": 101}, {"time": 2599, "pitch": 53, "duration": 5, "velocity": 55}, {"time": 2605, "pitch": 58, "duration": 3, "velocity": 101}, {"time": 2605, "pitch": 61, "duration": 6, "velocity": 109}, {"time": 2605, "pitch": 65, "duration": 6, "velocity": 113}, {"time": 2611, "pitch": 58, "duration": 2, "velocity": 74}, {"time": 2617, "pitch": 39, "duration": 14, "velocity": 104}, {"time": 2617, "pitch": 51, "duration": 9, "velocity": 106}, {"time": 2617, "pitch": 54, "duration": 7, "velocity": 104}, {"time": 2623, "pitch": 46, "duration": 6, "velocity": 59}, {"time": 2629, "pitch": 51, "duration": 2, "velocity": 94}, {"time": 2629, "pitch": 54, "duration": 6, "velocity": 106}, {"time": 2629, "pitch": 58, "duration": 7, "velocity": 106}, {"time": 2641, "pitch": 47, "duration": 14, "velocity": 91}, {"time": 2641, "pitch": 54, "duration": 8, "velocity": 94}, {"time": 2641, "pitch": 59, "duration": 8, "velocity": 104}, {"time": 2653, "pitch": 54, "duration": 2, "velocity": 106}, {"time": 2653, "pitch": 59, "duration": 6, "velocity": 109}, {"time": 2653, "pitch": 63, "duration": 6, "velocity": 106}, {"time": 2665, "pitch": 49, "duration": 16, "velocity": 106}, {"time": 2665, "pitch": 56, "duration": 7, "velocity": 99}, {"time": 2665, "pitch": 61, "duration": 7, "velocity": 106}, {"time": 2665, "pitch": 65, "duration": 7, "velocity": 101}, {"time": 2677, "pitch": 56, "duration": 3, "velocity": 104}, {"time": 2677, "pitch": 61, "duration": 7, "velocity": 106}, {"time": 2677, "pitch": 65, "duration": 6, "velocity": 117}, {"time": 2683, "pitch": 56, "duration": 2, "velocity": 87}, {"time": 2689, "pitch": 42, "duration": 44, "velocity": 101}, {"time": 2689, "pitch": 54, "duration": 9, "velocity": 96}, {"time": 2689, "pitch": 58, "duration": 8, "velocity": 101}, {"time": 2695, "pitch": 49, "duration": 8, "velocity": 87}, {"time": 2701, "pitch": 54, "duration": 5, "velocity": 106}, {"time": 2701, "pitch": 58, "duration": 5, "velocity": 112}, {"time": 2701, "pitch": 61, "duration": 5, "velocity": 112}, {"time": 2707, "pitch": 49, "duration": 7, "velocity": 78}, {"time": 2713, "pitch": 58, "duration": 5, "velocity": 112}, {"time": 2713, "pitch": 61, "duration": 6, "velocity": 115}, {"time": 2719, "pitch": 49, "duration": 14, "velocity": 82}, {"time": 2725, "pitch": 58, "duration": 9, "velocity": 118}, {"time": 2725, "pitch": 61, "duration": 9, "velocity": 115}, {"time": 2725, "pitch": 66, "duration": 9, "velocity": 106}, {"time": 2731, "pitch": 54, "duration": 4, "velocity": 91}, {"time": 2737, "pitch": 47, "duration": 14, "velocity": 109}, {"time": 2737, "pitch": 59, "duration": 6, "velocity": 90}, {"time": 2737, "pitch": 63, "duration": 8, "velocity": 92}, {"time": 2743, "pitch": 54, "duration": 8, "velocity": 76}, {"time": 2746, "pitch": 59, "duration": 5, "velocity": 109}, {"time": 2749, "pitch": 66, "duration": 4, "velocity": 102}, {"time": 2755, "pitch": 61, "duration": 14, "velocity": 84}, {"time": 2755, "pitch": 65, "duration": 13, "velocity": 105}, {"time": 2761, "pitch": 49, "duration": 14, "velocity": 111}, {"time": 2767, "pitch": 56, "duration": 7, "velocity": 97}, {"time": 2773, "pitch": 61, "duration": 3, "velocity": 111}, {"time": 2773, "pitch": 65, "duration": 4, "velocity": 111}, {"time": 2773, "pitch": 68, "duration": 7, "velocity": 111}, {"time": 2779, "pitch": 61, "duration": 2, "velocity": 97}, {"time": 2785, "pitch": 46, "duration": 16, "velocity": 102}, {"time": 2785, "pitch": 58, "duration": 6, "velocity": 111}, {"time": 2785, "pitch": 61, "duration": 6, "velocity": 111}, {"time": 2791, "pitch": 53, "duration": 9, "velocity": 80}, {"time": 2794, "pitch": 58, "duration": 2, "velocity": 102}, {"time": 2797, "pitch": 58, "duration": 3, "velocity": 111}, {"time": 2797, "pitch": 61, "duration": 2, "velocity": 105}, {"time": 2797, "pitch": 65, "duration": 3, "velocity": 111}, {"time": 2803, "pitch": 58, "duration": 12, "velocity": 111}, {"time": 2803, "pitch": 63, "duration": 13, "velocity": 108}, {"time": 2809, "pitch": 51, "duration": 18, "velocity": 100}, {"time": 2815, "pitch": 54, "duration": 12, "velocity": 94}, {"time": 2821, "pitch": 58, "duration": 3, "velocity": 117}, {"time": 2821, "pitch": 63, "duration": 7, "velocity": 114}, {"time": 2821, "pitch": 66, "duration": 7, "velocity": 108}, {"time": 2827, "pitch": 58, "duration": 2, "velocity": 102}, {"time": 2833, "pitch": 47, "duration": 13, "velocity": 109}, {"time": 2833, "pitch": 59, "duration": 6, "velocity": 96}, {"time": 2833, "pitch": 63, "duration": 7, "velocity": 102}, {"time": 2839, "pitch": 54, "duration": 8, "velocity": 76}, {"time": 2842, "pitch": 59, "duration": 2, "velocity": 99}, {"time": 2845, "pitch": 59, "duration": 2, "velocity": 79}, {"time": 2845, "pitch": 63, "duration": 2, "velocity": 92}, {"time": 2845, "pitch": 66, "duration": 3, "velocity": 108}, {"time": 2851, "pitch": 61, "duration": 13, "velocity": 94}, {"time": 2851, "pitch": 65, "duration": 13, "velocity": 108}, {"time": 2857, "pitch": 49, "duration": 16, "velocity": 108}, {"time": 2863, "pitch": 56, "duration": 8, "velocity": 66}, {"time": 2869, "pitch": 61, "duration": 3, "velocity": 117}, {"time": 2869, "pitch": 65, "duration": 8, "velocity": 111}, {"time": 2869, "pitch": 68, "duration": 7, "velocity": 111}, {"time": 2875, "pitch": 61, "duration": 4, "velocity": 100}, {"time": 2881, "pitch": 42, "duration": 44, "velocity": 97}, {"time": 2881, "pitch": 54, "duration": 8, "velocity": 92}, {"time": 2881, "pitch": 58, "duration": 7, "velocity": 100}, {"time": 2887, "pitch": 49, "duration": 8, "velocity": 66}, {"time": 2893, "pitch": 54, "duration": 1, "velocity": 82}, {"time": 2893, "pitch": 58, "duration": 7, "velocity": 108}, {"time": 2893, "pitch": 61, "duration": 7, "velocity": 102}, {"time": 2899, "pitch": 49, "duration": 9, "velocity": 73}, {"time": 2902, "pitch": 54, "duration": 2, "velocity": 89}, {"time": 2905, "pitch": 54, "duration": 8, "velocity": 89}, {"time": 2905, "pitch": 58, "duration": 8, "velocity": 111}, {"time": 2905, "pitch": 61, "duration": 8, "velocity": 102}, {"time": 2905, "pitch": 66, "duration": 7, "velocity": 102}, {"time": 2911, "pitch": 49, "duration": 8, "velocity": 84}, {"time": 2917, "pitch": 54, "duration": 6, "velocity": 117}, {"time": 2917, "pitch": 58, "duration": 9, "velocity": 111}, {"time": 2923, "pitch": 49, "duration": 4, "velocity": 92}, {"time": 2926, "pitch": 54, "duration": 3, "velocity": 89}, {"time": 2929, "pitch": 47, "duration": 14, "velocity": 109}, {"time": 2929, "pitch": 59, "duration": 6, "velocity": 90}, {"time": 2929, "pitch": 63, "duration": 8, "velocity": 92}, {"time": 2935, "pitch": 54, "duration": 8, "velocity": 76}, {"time": 2938, "pitch": 59, "duration": 5, "velocity": 109}, {"time": 2941, "pitch": 66, "duration": 4, "velocity": 102}, {"time": 2947, "pitch": 61, "duration": 14, "velocity": 84}, {"time": 2947, "pitch": 65, "duration": 13, "velocity": 105}, {"time": 2953, "pitch": 49, "duration": 14, "velocity": 111}, {"time": 2959, "pitch": 56, "duration": 7, "velocity": 97}, {"time": 2965, "pitch": 61, "duration": 3, "velocity": 111}, {"time": 2965, "pitch": 65, "duration": 4, "velocity": 111}, {"time": 2965, "pitch": 68, "duration": 7, "velocity": 111}, {"time": 2971, "pitch": 61, "duration": 2, "velocity": 97}, {"time": 2977, "pitch": 46, "duration": 16, "velocity": 102}, {"time": 2977, "pitch": 58, "duration": 6, "velocity": 111}, {"time": 2977, "pitch": 61, "duration": 6, "velocity": 111}, {"time": 2983, "pitch": 53, "duration": 9, "velocity": 80}, {"time": 2986, "pitch": 58, "duration": 2, "velocity": 102}, {"time": 2989, "pitch": 58, "duration": 3, "velocity": 111}, {"time": 2989, "pitch": 61, "duration": 2, "velocity": 105}, {"time": 2989, "pitch": 65, "duration": 3, "velocity": 111}, {"time": 2995, "pitch": 58, "duration": 12, "velocity": 111}, {"time": 2995, "pitch": 63, "duration": 13, "velocity": 108}, {"time": 3001, "pitch": 51, "duration": 18, "velocity": 100}, {"time": 3007, "pitch": 54, "duration": 12, "velocity": 94}, {"time": 3013, "pitch": 58, "duration": 3, "velocity": 117}, {"time": 3013, "pitch": 63, "duration": 7, "velocity": 114}, {"time": 3013, "pitch": 66, "duration": 7, "velocity": 108}, {"time": 3019, "pitch": 58, "duration": 2, "velocity": 102}, {"time": 3025, "pitch": 47, "duration": 13, "velocity": 109}, {"time": 3025, "pitch": 59, "duration": 6, "velocity": 96}, {"time": 3025, "pitch": 63, "duration": 7, "velocity": 102}, {"time": 3031, "pitch": 54, "duration": 8, "velocity": 76}, {"time": 3034, "pitch": 59, "duration": 2, "velocity": 99}, {"time": 3037, "pitch": 59, "duration": 2, "velocity": 79}, {"time": 3037, "pitch": 63, "duration": 2, "velocity": 92}, {"time": 3037, "pitch": 66, "duration": 3, "velocity": 108}, {"time": 3043, "pitch": 61, "duration": 13, "velocity": 94}, {"time": 3043, "pitch": 65, "duration": 13, "velocity": 108}, {"time": 3049, "pitch": 49, "duration": 16, "velocity": 108}, {"time": 3055, "pitch": 56, "duration": 8, "velocity": 66}, {"time": 3061, "pitch": 61, "duration": 3, "velocity": 117}, {"time": 3061, "pitch": 65, "duration": 8, "velocity": 111}, {"time": 3061, "pitch": 68, "duration": 7, "velocity": 111}, {"time": 3067, "pitch": 61, "duration": 4, "velocity": 100}, {"time": 3073, "pitch": 42, "duration": 44, "velocity": 97}, {"time": 3073, "pitch": 54, "duration": 8, "velocity": 92}, {"time": 3073, "pitch": 58, "duration": 7, "velocity": 100}, {"time": 3079, "pitch": 49, "duration": 8, "velocity": 66}, {"time": 3085, "pitch": 54, "duration": 1, "velocity": 82}, {"time": 3085, "pitch": 58, "duration": 7, "velocity": 108}, {"time": 3085, "pitch": 61, "duration": 7, "velocity": 102}, {"time": 3091, "pitch": 49, "duration": 9, "velocity": 73}, {"time": 3094, "pitch": 54, "duration": 2, "velocity": 89}, {"time": 3097, "pitch": 54, "duration": 8, "velocity": 89}, {"time": 3097, "pitch": 58, "duration": 8, "velocity": 111}, {"time": 3097, "pitch": 61, "duration": 8, "velocity": 102}, {"time": 3097, "pitch": 66, "duration": 7, "velocity": 102}, {"time": 3103, "pitch": 49, "duration": 8, "velocity": 84}, {"time": 3109, "pitch": 54, "duration": 6, "velocity": 117}, {"time": 3109, "pitch": 58, "duration": 9, "velocity": 111}, {"time": 3115, "pitch": 49, "duration": 4, "velocity": 92}, {"time": 3118, "pitch": 54, "duration": 3, "velocity": 89}, {"time": 3121, "pitch": 47, "duration": 14, "velocity": 109}, {"time": 3121, "pitch": 59, "duration": 6, "velocity": 90}, {"time": 3121, "pitch": 63, "duration": 8, "velocity": 92}, {"time": 3127, "pitch": 54, "duration": 8, "velocity": 76}, {"time": 3130, "pitch": 59, "duration": 5, "velocity": 109}, {"time": 3133, "pitch": 66, "duration": 4, "velocity": 102}, {"time": 3139, "pitch": 61, "duration": 14, "velocity": 84}, {"time": 3139, "pitch": 65, "duration": 13, "velocity": 105}, {"time": 3145, "pitch": 49, "duration": 14, "velocity": 111}, {"time": 3151, "pitch": 56, "duration": 7, "velocity": 97}, {"time": 3157, "pitch": 61, "duration": 3, "velocity": 111}, {"time": 3157, "pitch": 65, "duration": 4, "velocity": 111}, {"time": 3157, "pitch": 68, "duration": 7, "velocity": 111}, {"time": 3163, "pitch": 61, "duration": 2, "velocity": 97}, {"time": 3169, "pitch": 46, "duration": 16, "velocity": 102}, {"time": 3169, "pitch": 58, "duration": 6, "velocity": 111}, {"time": 3169, "pitch": 61, "duration": 6, "velocity": 111}, {"time": 3175, "pitch": 53, "duration": 9, "velocity": 80}, {"time": 3178, "pitch": 58, "duration": 2, "velocity": 102}, {"time": 3181, "pitch": 58, "duration": 3, "velocity": 111}, {"time": 3181, "pitch": 61, "duration": 2, "velocity": 105}, {"time": 3181, "pitch": 65, "duration": 3, "velocity": 111}, {"time": 3187, "pitch": 58, "duration": 12, "velocity": 111}, {"time": 3187, "pitch": 63, "duration": 13, "velocity": 108}, {"time": 3193, "pitch": 51, "duration": 18, "velocity": 100}, {"time": 3199, "pitch": 54, "duration": 12, "velocity": 94}, {"time": 3205, "pitch": 58, "duration": 3, "velocity": 117}, {"time": 3205, "pitch": 63, "duration": 7, "velocity": 114}, {"time": 3205, "pitch": 66, "duration": 7, "velocity": 108}, {"time": 3211, "pitch": 58, "duration": 2, "velocity": 102}, {"time": 3217, "pitch": 47, "duration": 13, "velocity": 109}, {"time": 3217, "pitch": 59, "duration": 6, "velocity": 96}, {"time": 3217, "pitch": 63, "duration": 7, "velocity": 102}, {"time": 3223, "pitch": 54, "duration": 8, "velocity": 76}, {"time": 3226, "pitch": 59, "duration": 2, "velocity": 99}, {"time": 3229, "pitch": 59, "duration": 2, "velocity": 79}, {"time": 3229, "pitch": 63, "duration": 2, "velocity": 92}, {"time": 3229, "pitch": 66, "duration": 3, "velocity": 108}, {"time": 3235, "pitch": 61, "duration": 13, "velocity": 94}, {"time": 3235, "pitch": 65, "duration": 13, "velocity": 108}, {"time": 3241, "pitch": 49, "duration": 16, "velocity": 108}, {"time": 3247, "pitch": 56, "duration": 8, "velocity": 66}, {"time": 3253, "pitch": 61, "duration": 3, "velocity": 117}, {"time": 3253, "pitch": 65, "duration": 8, "velocity": 111}, {"time": 3253, "pitch": 68, "duration": 7, "velocity": 111}, {"time": 3259, "pitch": 61, "duration": 4, "velocity": 100}, {"time": 3265, "pitch": 42, "duration": 44, "velocity": 97}, {"time": 3265, "pitch": 54, "duration": 8, "velocity": 92}, {"time": 3265, "pitch": 58, "duration": 7, "velocity": 100}, {"time": 3271, "pitch": 49, "duration": 8, "velocity": 66}, {"time": 3277, "pitch": 54, "duration": 1, "velocity": 82}, {"time": 3277, "pitch": 58, "duration": 7, "velocity": 108}, {"time": 3277, "pitch": 61, "duration": 7, "velocity": 102}, {"time": 3283, "pitch": 49, "duration": 9, "velocity": 73}, {"time": 3286, "pitch": 54, "duration": 2, "velocity": 89}, {"time": 3289, "pitch": 54, "duration": 8, "velocity": 89}, {"time": 3289, "pitch": 58, "duration": 8, "velocity": 111}, {"time": 3289, "pitch": 61, "duration": 8, "velocity": 102}, {"time": 3289, "pitch": 66, "duration": 7, "velocity": 102}, {"time": 3295, "pitch": 49, "duration": 8, "velocity": 84}, {"time": 3301, "pitch": 54, "duration": 6, "velocity": 117}, {"time": 3301, "pitch": 58, "duration": 9, "velocity": 111}, {"time": 3307, "pitch": 49, "duration": 4, "velocity": 92}, {"time": 3310, "pitch": 54, "duration": 3, "velocity": 89}, {"time": 3313, "pitch": 47, "duration": 12, "velocity": 113}, {"time": 3313, "pitch": 59, "duration": 7, "velocity": 104}, {"time": 3313, "pitch": 63, "duration": 9, "velocity": 109}, {"time": 3319, "pitch": 54, "duration": 6, "velocity": 71}, {"time": 3322, "pitch": 59, "duration": 3, "velocity": 107}, {"time": 3325, "pitch": 66, "duration": 3, "velocity": 109}, {"time": 3331, "pitch": 49, "duration": 20, "velocity": 104}, {"time": 3331, "pitch": 61, "duration": 15, "velocity": 82}, {"time": 3331, "pitch": 65, "duration": 15, "velocity": 104}, {"time": 3343, "pitch": 56, "duration": 7, "velocity": 99}, {"time": 3349, "pitch": 61, "duration": 3, "velocity": 109}, {"time": 3349, "pitch": 65, "duration": 3, "velocity": 115}, {"time": 3349, "pitch": 68, "duration": 3, "velocity": 109}, {"time": 3361, "pitch": 46, "duration": 11, "velocity": 112}, {"time": 3361, "pitch": 58, "duration": 6, "velocity": 109}, {"time": 3361, "pitch": 61, "duration": 7, "velocity": 106}, {"time": 3367, "pitch": 53, "duration": 5, "velocity": 94}, {"time": 3370, "pitch": 58, "duration": 3, "velocity": 112}, {"time": 3373, "pitch": 65, "duration": 2, "velocity": 109}, {"time": 3379, "pitch": 51, "duration": 19, "velocity": 109}, {"time": 3379, "pitch": 63, "duration": 16, "velocity": 104}, {"time": 3379, "pitch": 66, "duration": 15, "velocity": 109}, {"time": 3391, "pitch": 58, "duration": 7, "velocity": 109}, {"time": 3397, "pitch": 63, "duration": 3, "velocity": 109}, {"time": 3397, "pitch": 66, "duration": 2, "velocity": 115}, {"time": 3397, "pitch": 70, "duration": 2, "velocity": 104}, {"time": 3409, "pitch": 47, "duration": 10, "velocity": 117}, {"time": 3409, "pitch": 59, "duration": 7, "velocity": 110}, {"time": 3409, "pitch": 63, "duration": 9, "velocity": 112}, {"time": 3415, "pitch": 54, "duration": 4, "velocity": 91}, {"time": 3418, "pitch": 59, "duration": 3, "velocity": 110}, {"time": 3421, "pitch": 63, "duration": 2, "velocity": 115}, {"time": 3427, "pitch": 49, "duration": 20, "velocity": 106}, {"time": 3427, "pitch": 61, "duration": 16, "velocity": 96}, {"time": 3427, "pitch": 65, "duration": 16, "velocity": 112}, {"time": 3439, "pitch": 56, "duration": 9, "velocity": 101}, {"time": 3445, "pitch": 61, "duration": 3, "velocity": 109}, {"time": 3445, "pitch": 65, "duration": 3, "velocity": 109}, {"time": 3455, "pitch": 42, "duration": 34, "velocity": 104}, {"time": 3456, "pitch": 54, "duration": 35, "velocity": 96}, {"time": 3457, "pitch": 49, "duration": 31, "velocity": 80}, {"time": 3458, "pitch": 58, "duration": 33, "velocity": 104}, {"time": 3459, "pitch": 61, "duration": 32, "velocity": 87}, {"time": 3460, "pitch": 66, "duration": 30, "velocity": 73}], "annotations": [{"time": 52, "annotation": {"number": 64, "value": 127}, "group": "control_change"}, {"time": 71, "annotation": {"number": 64, "value": 0}, "group": "control_change"}, {"time": 77, "annotation": {"number": 64, "value": 127}, "group": "control_change"}, {"time": 96, "annotation": {"number": 64, "value": 0}, "group": "control_change"}, {"time": 101, "annotation": {"number": 64, "value": 127}, "group": "control_change"}, {"time": 120, "annotation": {"number": 64, "value": 0}, "group": "control_change"}, {"time": 124, "annotation": {"number": 64, "value": 127}, "group": "control_change"}, {"time": 144, "annotation": {"number": 64, "value": 0}, "group": "control_change"}, {"time": 148, "annotation": {"number": 64, "value": 127}, "group": "control_change"}, {"time": 168, "annotation": {"number": 64, "value": 0}, "group": "control_change"}, {"time": 175, "annotation": {"number": 64, "value": 127}, "group": "control_change"}, {"time": 192, "annotation": {"number": 64, "value": 0}, "group": "control_change"}, {"time": 195, "annotation": {"number": 64, "value": 127}, "group": "control_change"}, {"time": 218, "annotation": {"number": 64, "value": 0}, "group": "control_change"}, {"time": 219, "annotation": {"number": 64, "value": 127}, "group": "control_change"}, {"time": 240, "annotation": {"number": 64, "value": 0}, "group": "control_change"}, {"time": 243, "annotation": {"number": 64, "value": 127}, "group": "control_change"}, {"time": 265, "annotation": {"number": 64, "value": 0}, "group": "control_change"}, {"time": 269, "annotation": {"number": 64, "value": 127}, "group": "control_change"}, {"time": 288, "annotation": {"number": 64, "value": 0}, "group": "control_change"}, {"time": 291, "annotation": {"number": 64, "value": 127}, "group": "control_change"}, {"time": 311, "annotation": {"number": 64, "value": 0}, "group": "control_change"}, {"time": 314, "annotation": {"number": 64, "value": 127}, "group": "control_change"}, {"time": 336, "annotation": {"number": 64, "value": 0}, "group": "control_change"}, {"time": 341, "annotation": {"number": 64, "value": 127}, "group": "control_change"}, {"time": 360, "annotation": {"number": 64, "value": 0}, "group": "control_change"}, {"time": 363, "annotation": {"number": 64, "value": 127}, "group": "control_change"}, {"time": 384, "annotation": {"number": 64, "value": 0}, "group": "control_change"}, {"time": 386, "annotation": {"number": 64, "value": 127}, "group": "control_change"}, {"time": 410, "annotation": {"number": 64, "value": 0}, "group": "control_change"}, {"time": 411, "annotation": {"number": 64, "value": 127}, "group": "control_change"}, {"time": 429, "annotation": {"number": 64, "value": 0}, "group": "control_change"}, {"time": 436, "annotation": {"number": 64, "value": 127}, "group": "control_change"}, {"time": 448, "annotation": {"number": 64, "value": 0}, "group": "control_change"}, {"time": 462, "annotation": {"number": 64, "value": 127}, "group": "control_change"}, {"time": 473, "annotation": {"number": 64, "value": 0}, "group": "control_change"}, {"time": 484, "annotation": {"number": 64, "value": 127}, "group": "control_change"}, {"time": 493, "annotation": {"number": 64, "value": 0}, "group": "control_change"}, {"time": 508, "annotation": {"number": 64, "value": 127}, "group": "control_change"}, {"time": 521, "annotation": {"number": 64, "value": 0}, "group": "control_change"}, {"time": 536, "annotation": {"number": 64, "value": 127}, "group": "control_change"}, {"time": 543, "annotation": {"number": 64, "value": 0}, "group": "control_change"}, {"time": 557, "annotation": {"number": 64, "value": 127}, "group": "control_change"}, {"time": 564, "annotation": {"number": 64, "value": 0}, "group": "control_change"}, {"time": 580, "annotation": {"number": 64, "value": 127}, "group": "control_change"}, {"time": 605, "annotation": {"number": 64, "value": 0}, "group": "control_change"}, {"time": 607, "annotation": {"number": 64, "value": 127}, "group": "control_change"}, {"time": 622, "annotation": {"number": 64, "value": 0}, "group": "control_change"}, {"time": 628, "annotation": {"number": 64, "value": 127}, "group": "control_change"}, {"time": 640, "annotation": {"number": 64, "value": 0}, "group": "control_change"}, {"time": 654, "annotation": {"number": 64, "value": 127}, "group": "control_change"}, {"time": 665, "annotation": {"number": 64, "value": 0}, "group": "control_change"}, {"time": 676, "annotation": {"number": 64, "value": 127}, "group": "control_change"}, {"time": 685, "annotation": {"number": 64, "value": 0}, "group": "control_change"}, {"time": 700, "annotation": {"number": 64, "value": 127}, "group": "control_change"}, {"time": 713, "annotation": {"number": 64, "value": 0}, "group": "control_change"}, {"time": 728, "annotation": {"number": 64, "value": 127}, "group": "control_change"}, {"time": 735, "annotation": {"number": 64, "value": 0}, "group": "control_change"}, {"time": 749, "annotation": {"number": 64, "value": 127}, "group": "control_change"}, {"time": 756, "annotation": {"number": 64, "value": 0}, "group": "control_change"}, {"time": 772, "annotation": {"number": 64, "value": 127}, "group": "control_change"}, {"time": 797, "annotation": {"number": 64, "value": 0}, "group": "control_change"}, {"time": 799, "annotation": {"number": 64, "value": 127}, "group": "control_change"}, {"time": 814, "annotation": {"number": 64, "value": 0}, "group": "control_change"}, {"time": 819, "annotation": {"number": 64, "value": 127}, "group": "control_change"}, {"time": 841, "annotation": {"number": 64, "value": 0}, "group": "control_change"}, {"time": 845, "annotation": {"number": 64, "value": 127}, "group": "control_change"}, {"time": 864, "annotation": {"number": 64, "value": 0}, "group": "control_change"}, {"time": 867, "annotation": {"number": 64, "value": 127}, "group": "control_change"}, {"time": 887, "annotation": {"number": 64, "value": 0}, "group": "control_change"}, {"time": 890, "annotation": {"number": 64, "value": 127}, "group": "control_change"}, {"time": 912, "annotation": {"number": 64, "value": 0}, "group": "control_change"}, {"time": 917, "annotation": {"number": 64, "value": 127}, "group": "control_change"}, {"time": 936, "annotation": {"number": 64, "value": 0}, "group": "control_change"}, {"time": 939, "annotation": {"number": 64, "value": 127}, "group": "control_change"}, {"time": 960, "annotation": {"number": 64, "value": 0}, "group": "control_change"}, {"time": 962, "annotation": {"number": 64, "value": 127}, "group": "control_change"}, {"time": 986, "annotation": {"number": 64, "value": 0}, "group": "control_change"}, {"time": 987, "annotation": {"number": 64, "value": 127}, "group": "control_change"}, {"time": 1005, "annotation": {"number": 64, "value": 0}, "group": "control_change"}, {"time": 1011, "annotation": {"number": 64, "value": 127}, "group": "control_change"}, {"time": 1033, "annotation": {"number": 64, "value": 0}, "group": "control_change"}, {"time": 1037, "annotation": {"number": 64, "value": 127}, "group": "control_change"}, {"time": 1056, "annotation": {"number": 64, "value": 0}, "group": "control_change"}, {"time": 1059, "annotation": {"number": 64, "value": 127}, "group": "control_change"}, {"time": 1079, "annotation": {"number": 64, "value": 0}, "group": "control_change"}, {"time": 1082, "annotation": {"number": 64, "value": 127}, "group": "control_change"}, {"time": 1104, "annotation": {"number": 64, "value": 0}, "group": "control_change"}, {"time": 1109, "annotation": {"number": 64, "value": 127}, "group": "control_change"}, {"time": 1128, "annotation": {"number": 64, "value": 0}, "group": "control_change"}, {"time": 1131, "annotation": {"number": 64, "value": 127}, "group": "control_change"}, {"time": 1152, "annotation": {"number": 64, "value": 0}, "group": "control_change"}, {"time": 1154, "annotation": {"number": 64, "value": 127}, "group": "control_change"}, {"time": 1178, "annotation": {"number": 64, "value": 0}, "group": "control_change"}, {"time": 1179, "annotation": {"number": 64, "value": 127}, "group": "control_change"}, {"time": 1197, "annotation": {"number": 64, "value": 0}, "group": "control_change"}, {"time": 1204, "annotation": {"number": 64, "value": 127}, "group": "control_change"}, {"time": 1225, "annotation": {"number": 64, "value": 0}, "group": "control_change"}, {"time": 1257, "annotation": {"number": 64, "value": 127}, "group": "control_change"}, {"time": 1273, "annotation": {"number": 64, "value": 0}, "group": "control_change"}, {"time": 1305, "annotation": {"number": 64, "value": 127}, "group": "control_change"}, {"time": 1320, "annotation": {"number": 64, "value": 0}, "group": "control_change"}, {"time": 1326, "annotation": {"number": 64, "value": 127}, "group": "control_change"}, {"time": 1344, "annotation": {"number": 64, "value": 0}, "group": "control_change"}, {"time": 1348, "annotation": {"number": 64, "value": 127}, "group": "control_change"}, {"time": 1391, "annotation": {"number": 64, "value": 0}, "group": "control_change"}, {"time": 1396, "annotation": {"number": 64, "value": 127}, "group": "control_change"}, {"time": 1408, "annotation": {"number": 64, "value": 0}, "group": "control_change"}, {"time": 1422, "annotation": {"number": 64, "value": 127}, "group": "control_change"}, {"time": 1433, "annotation": {"number": 64, "value": 0}, "group": "control_change"}, {"time": 1444, "annotation": {"number": 64, "value": 127}, "group": "control_change"}, {"time": 1453, "annotation": {"number": 64, "value": 0}, "group": "control_change"}, {"time": 1468, "annotation": {"number": 64, "value": 127}, "group": "control_change"}, {"time": 1481, "annotation": {"number": 64, "value": 0}, "group": "control_change"}, {"time": 1496, "annotation": {"number": 64, "value": 127}, "group": "control_change"}, {"time": 1503, "annotation": {"number": 64, "value": 0}, "group": "control_change"}, {"time": 1517, "annotation": {"number": 64, "value": 127}, "group": "control_change"}, {"time": 1524, "annotation": {"number": 64, "value": 0}, "group": "control_change"}, {"time": 1540, "annotation": {"number": 64, "value": 127}, "group": "control_change"}, {"time": 1565, "annotation": {"number": 64, "value": 0}, "group": "control_change"}, {"time": 1567, "annotation": {"number": 64, "value": 127}, "group": "control_change"}, {"time": 1582, "annotation": {"number": 64, "value": 0}, "group": "control_change"}, {"time": 1588, "annotation": {"number": 64, "value": 127}, "group": "control_change"}, {"time": 1600, "annotation": {"number": 64, "value": 0}, "group": "control_change"}, {"time": 1614, "annotation": {"number": 64, "value": 127}, "group": "control_change"}, {"time": 1625, "annotation": {"number": 64, "value": 0}, "group": "control_change"}, {"time": 1636, "annotation": {"number": 64, "value": 127}, "group": "control_change"}, {"time": 1645, "annotation": {"number": 64, "value": 0}, "group": "control_change"}, {"time": 1660, "annotation": {"number": 64, "value": 127}, "group": "control_change"}, {"time": 1673, "annotation": {"number": 64, "value": 0}, "group": "control_change"}, {"time": 1688, "annotation": {"number": 64, "value": 127}, "group": "control_change"}, {"time": 1695, "annotation": {"number": 64, "value": 0}, "group": "control_change"}, {"time": 1709, "annotation": {"number": 64, "value": 127}, "group": "control_change"}, {"time": 1716, "annotation": {"number": 64, "value": 0}, "group": "control_change"}, {"time": 1732, "annotation": {"number": 64, "value": 127}, "group": "control_change"}, {"time": 1757, "annotation": {"number": 64, "value": 0}, "group": "control_change"}, {"time": 1759, "annotation": {"number": 64, "value": 127}, "group": "control_change"}, {"time": 1774, "annotation": {"number": 64, "value": 0}, "group": "control_change"}, {"time": 1779, "annotation": {"number": 64, "value": 127}, "group": "control_change"}, {"time": 1801, "annotation": {"number": 64, "value": 0}, "group": "control_change"}, {"time": 1805, "annotation": {"number": 64, "value": 127}, "group": "control_change"}, {"time": 1824, "annotation": {"number": 64, "value": 0}, "group": "control_change"}, {"time": 1827, "annotation": {"number": 64, "value": 127}, "group": "control_change"}, {"time": 1847, "annotation": {"number": 64, "value": 0}, "group": "control_change"}, {"time": 1850, "annotation": {"number": 64, "value": 127}, "group": "control_change"}, {"time": 1872, "annotation": {"number": 64, "value": 0}, "group": "control_change"}, {"time": 1877, "annotation": {"number": 64, "value": 127}, "group": "control_change"}, {"time": 1896, "annotation": {"number": 64, "value": 0}, "group": "control_change"}, {"time": 1899, "annotation": {"number": 64, "value": 127}, "group": "control_change"}, {"time": 1920, "annotation": {"number": 64, "value": 0}, "group": "control_change"}, {"time": 1922, "annotation": {"number": 64, "value": 127}, "group": "control_change"}, {"time": 1946, "annotation": {"number": 64, "value": 0}, "group": "control_change"}, {"time": 1947, "annotation": {"number": 64, "value": 127}, "group": "control_change"}, {"time": 1965, "annotation": {"number": 64, "value": 0}, "group": "control_change"}, {"time": 1971, "annotation": {"number": 64, "value": 127}, "group": "control_change"}, {"time": 1993, "annotation": {"number": 64, "value": 0}, "group": "control_change"}, {"time": 1997, "annotation": {"number": 64, "value": 127}, "group": "control_change"}, {"time": 2016, "annotation": {"number": 64, "value": 0}, "group": "control_change"}, {"time": 2019, "annotation": {"number": 64, "value": 127}, "group": "control_change"}, {"time": 2039, "annotation": {"number": 64, "value": 0}, "group": "control_change"}, {"time": 2042, "annotation": {"number": 64, "value": 127}, "group": "control_change"}, {"time": 2064, "annotation": {"number": 64, "value": 0}, "group": "control_change"}, {"time": 2069, "annotation": {"number": 64, "value": 127}, "group": "control_change"}, {"time": 2088, "annotation": {"number": 64, "value": 0}, "group": "control_change"}, {"time": 2091, "annotation": {"number": 64, "value": 127}, "group": "control_change"}, {"time": 2112, "annotation": {"number": 64, "value": 0}, "group": "control_change"}, {"time": 2114, "annotation": {"number": 64, "value": 127}, "group": "control_change"}, {"time": 2138, "annotation": {"number": 64, "value": 0}, "group": "control_change"}, {"time": 2139, "annotation": {"number": 64, "value": 127}, "group": "control_change"}, {"time": 2157, "annotation": {"number": 64, "value": 0}, "group": "control_change"}, {"time": 2163, "annotation": {"number": 64, "value": 127}, "group": "control_change"}, {"time": 2183, "annotation": {"number": 64, "value": 0}, "group": "control_change"}, {"time": 2187, "annotation": {"number": 64, "value": 127}, "group": "control_change"}, {"time": 2206, "annotation": {"number": 64, "value": 0}, "group": "control_change"}, {"time": 2211, "annotation": {"number": 64, "value": 127}, "group": "control_change"}, {"time": 2232, "annotation": {"number": 64, "value": 0}, "group": "control_change"}, {"time": 2239, "annotation": {"number": 64, "value": 127}, "group": "control_change"}, {"time": 2256, "annotation": {"number": 64, "value": 0}, "group": "control_change"}, {"time": 2263, "annotation": {"number": 64, "value": 127}, "group": "control_change"}, {"time": 2280, "annotation": {"number": 64, "value": 0}, "group": "control_change"}, {"time": 2285, "annotation": {"number": 64, "value": 127}, "group": "control_change"}, {"time": 2303, "annotation": {"number": 64, "value": 0}, "group": "control_change"}, {"time": 2312, "annotation": {"number": 64, "value": 127}, "group": "control_change"}, {"time": 2348, "annotation": {"number": 64, "value": 0}, "group": "control_change"}, {"time": 2355, "annotation": {"number": 64, "value": 127}, "group": "control_change"}, {"time": 2375, "annotation": {"number": 64, "value": 0}, "group": "control_change"}, {"time": 2379, "annotation": {"number": 64, "value": 127}, "group": "control_change"}, {"time": 2398, "annotation": {"number": 64, "value": 0}, "group": "control_change"}, {"time": 2403, "annotation": {"number": 64, "value": 127}, "group": "control_change"}, {"time": 2424, "annotation": {"number": 64, "value": 0}, "group": "control_change"}, {"time": 2431, "annotation": {"number": 64, "value": 127}, "group": "control_change"}, {"time": 2448, "annotation": {"number": 64, "value": 0}, "group": "control_change"}, {"time": 2455, "annotation": {"number": 64, "value": 127}, "group": "control_change"}, {"time": 2472, "annotation": {"number": 64, "value": 0}, "group": "control_change"}, {"time": 2477, "annotation": {"number": 64, "value": 127}, "group": "control_change"}, {"time": 2495, "annotation": {"number": 64, "value": 0}, "group": "control_change"}, {"time": 2504, "annotation": {"number": 64, "value": 127}, "group": "control_change"}, {"time": 2540, "annotation": {"number": 64, "value": 0}, "group": "control_change"}, {"time": 2547, "annotation": {"number": 64, "value": 127}, "group": "control_change"}, {"time": 2567, "annotation": {"number": 64, "value": 0}, "group": "control_change"}, {"time": 2571, "annotation": {"number": 64, "value": 127}, "group": "control_change"}, {"time": 2590, "annotation": {"number": 64, "value": 0}, "group": "control_change"}, {"time": 2595, "annotation": {"number": 64, "value": 127}, "group": "control_change"}, {"time": 2616, "annotation": {"number": 64, "value": 0}, "group": "control_change"}, {"time": 2623, "annotation": {"number": 64, "value": 127}, "group": "control_change"}, {"time": 2640, "annotation": {"number": 64, "value": 0}, "group": "control_change"}, {"time": 2647, "annotation": {"number": 64, "value": 127}, "group": "control_change"}, {"time": 2664, "annotation": {"number": 64, "value": 0}, "group": "control_change"}, {"time": 2669, "annotation": {"number": 64, "value": 127}, "group": "control_change"}, {"time": 2687, "annotation": {"number": 64, "value": 0}, "group": "control_change"}, {"time": 2696, "annotation": {"number": 64, "value": 127}, "group": "control_change"}, {"time": 2732, "annotation": {"number": 64, "value": 0}, "group": "control_change"}, {"time": 2739, "annotation": {"number": 64, "value": 127}, "group": "control_change"}, {"time": 2761, "annotation": {"number": 64, "value": 0}, "group": "control_change"}, {"time": 2765, "annotation": {"number": 64, "value": 127}, "group": "control_change"}, {"time": 2784, "annotation": {"number": 64, "value": 0}, "group": "control_change"}, {"time": 2787, "annotation": {"number": 64, "value": 127}, "group": "control_change"}, {"time": 2807, "annotation": {"number": 64, "value": 0}, "group": "control_change"}, {"time": 2810, "annotation": {"number": 64, "value": 127}, "group": "control_change"}, {"time": 2832, "annotation": {"number": 64, "value": 0}, "group": "control_change"}, {"time": 2837, "annotation": {"number": 64, "value": 127}, "group": "control_change"}, {"time": 2856, "annotation": {"number": 64, "value": 0}, "group": "control_change"}, {"time": 2859, "annotation": {"number": 64, "value": 127}, "group": "control_change"}, {"time": 2880, "annotation": {"number": 64, "value": 0}, "group": "control_change"}, {"time": 2882, "annotation": {"number": 64, "value": 127}, "group": "control_change"}, {"time": 2906, "annotation": {"number": 64, "value": 0}, "group": "control_change"}, {"time": 2907, "annotation": {"number": 64, "value": 127}, "group": "control_change"}, {"time": 2925, "annotation": {"number": 64, "value": 0}, "group": "control_change"}, {"time": 2931, "annotation": {"number": 64, "value": 127}, "group": "control_change"}, {"time": 2953, "annotation": {"number": 64, "value": 0}, "group": "control_change"}, {"time": 2957, "annotation": {"number": 64, "value": 127}, "group": "control_change"}, {"time": 2976, "annotation": {"number": 64, "value": 0}, "group": "control_change"}, {"time": 2979, "annotation": {"number": 64, "value": 127}, "group": "control_change"}, {"time": 2999, "annotation": {"number": 64, "value": 0}, "group": "control_change"}, {"time": 3002, "annotation": {"number": 64, "value": 127}, "group": "control_change"}, {"time": 3024, "annotation": {"number": 64, "value": 0}, "group": "control_change"}, {"time": 3029, "annotation": {"number": 64, "value": 127}, "group": "control_change"}, {"time": 3048, "annotation": {"number": 64, "value": 0}, "group": "control_change"}, {"time": 3051, "annotation": {"number": 64, "value": 127}, "group": "control_change"}, {"time": 3072, "annotation": {"number": 64, "value": 0}, "group": "control_change"}, {"time": 3074, "annotation": {"number": 64, "value": 127}, "group": "control_change"}, {"time": 3098, "annotation": {"number": 64, "value": 0}, "group": "control_change"}, {"time": 3099, "annotation": {"number": 64, "value": 127}, "group": "control_change"}, {"time": 3117, "annotation": {"number": 64, "value": 0}, "group": "control_change"}, {"time": 3123, "annotation": {"number": 64, "value": 127}, "group": "control_change"}, {"time": 3145, "annotation": {"number": 64, "value": 0}, "group": "control_change"}, {"time": 3149, "annotation": {"number": 64, "value": 127}, "group": "control_change"}, {"time": 3168, "annotation": {"number": 64, "value": 0}, "group": "control_change"}, {"time": 3171, "annotation": {"number": 64, "value": 127}, "group": "control_change"}, {"time": 3191, "annotation": {"number": 64, "value": 0}, "group": "control_change"}, {"time": 3194, "annotation": {"number": 64, "value": 127}, "group": "control_change"}, {"time": 3216, "annotation": {"number": 64, "value": 0}, "group": "control_change"}, {"time": 3221, "annotation": {"number": 64, "value": 127}, "group": "control_change"}, {"time": 3240, "annotation": {"number": 64, "value": 0}, "group": "control_change"}, {"time": 3243, "annotation": {"number": 64, "value": 127}, "group": "control_change"}, {"time": 3264, "annotation": {"number": 64, "value": 0}, "group": "control_change"}, {"time": 3266, "annotation": {"number": 64, "value": 127}, "group": "control_change"}, {"time": 3290, "annotation": {"number": 64, "value": 0}, "group": "control_change"}, {"time": 3291, "annotation": {"number": 64, "value": 127}, "group": "control_change"}, {"time": 3309, "annotation": {"number": 64, "value": 0}, "group": "control_change"}, {"time": 3315, "annotation": {"number": 64, "value": 127}, "group": "control_change"}, {"time": 3331, "annotation": {"number": 64, "value": 0}, "group": "control_change"}, {"time": 3343, "annotation": {"number": 64, "value": 127}, "group": "control_change"}, {"time": 3357, "annotation": {"number": 64, "value": 0}, "group": "control_change"}, {"time": 3364, "annotation": {"number": 64, "value": 127}, "group": "control_change"}, {"time": 3378, "annotation": {"number": 64, "value": 0}, "group": "control_change"}, {"time": 3393, "annotation": {"number": 64, "value": 127}, "group": "control_change"}, {"time": 3407, "annotation": {"number": 64, "value": 0}, "group": "control_change"}, {"time": 3413, "annotation": {"number": 64, "value": 127}, "group": "control_change"}, {"time": 3426, "annotation": {"number": 64, "value": 0}, "group": "control_change"}, {"time": 3441, "annotation": {"number": 64, "value": 127}, "group": "control_change"}, {"time": 3456, "annotation": {"number": 64, "value": 0}, "group": "control_change"}, {"time": 3459, "annotation": {"number": 64, "value": 127}, "group": "control_change"}, {"time": 3528, "annotation": {"number": 64, "value": 0}, "group": "control_change"}]}]}