{"metadata": {"schema_version": "0.2", "title": "None", "source_filename": "002.mid", "source_format": "midi"}, "resolution": 12, "tempos": [{"time": 0, "qpm": 61.99999586666694}, {"time": 112, "qpm": 58.00004253336452}, {"time": 116, "qpm": 52.000006933334255}, {"time": 120, "qpm": 46.99999060000188}, {"time": 123, "qpm": 50.0}, {"time": 125, "qpm": 45.000011250002814}, {"time": 126, "qpm": 46.99999060000188}, {"time": 128, "qpm": 45.99999386666749}, {"time": 132, "qpm": 61.99999586666694}, {"time": 207, "qpm": 59.00006686674245}, {"time": 208, "qpm": 55.99997760000896}, {"time": 232, "qpm": 61.99999586666694}, {"time": 246, "qpm": 64.0}, {"time": 1035, "qpm": 60.99997255001235}, {"time": 1044, "qpm": 64.0}, {"time": 2654, "qpm": 57.00008550012825}], "time_signatures": [{"time": 0, "numerator": 2, "denominator": 4}], "tracks": [{"program": 0, "is_drum": false, "name": "MELODY", "notes": [{"time": 246, "pitch": 75, "duration": 2, "velocity": 105}, {"time": 249, "pitch": 73, "duration": 2, "velocity": 66}, {"time": 252, "pitch": 75, "duration": 2, "velocity": 105}, {"time": 255, "pitch": 73, "duration": 2, "velocity": 92}, {"time": 258, "pitch": 75, "duration": 5, "velocity": 111}, {"time": 264, "pitch": 71, "duration": 4, "velocity": 111}, {"time": 270, "pitch": 70, "duration": 5, "velocity": 114}, {"time": 276, "pitch": 71, "duration": 2, "velocity": 108}, {"time": 279, "pitch": 73, "duration": 8, "velocity": 105}, {"time": 294, "pitch": 71, "duration": 2, "velocity": 89}, {"time": 297, "pitch": 70, "duration": 2, "velocity": 87}, {"time": 300, "pitch": 71, "duration": 2, "velocity": 100}, {"time": 303, "pitch": 70, "duration": 2, "velocity": 102}, {"time": 306, "pitch": 71, "duration": 9, "velocity": 114}, {"time": 318, "pitch": 71, "duration": 5, "velocity": 108}, {"time": 324, "pitch": 70, "duration": 4, "velocity": 108}, {"time": 330, "pitch": 68, "duration": 2, "velocity": 102}, {"time": 333, "pitch": 70, "duration": 8, "velocity": 111}, {"time": 342, "pitch": 75, "duration": 2, "velocity": 108}, {"time": 345, "pitch": 73, "duration": 2, "velocity": 89}, {"time": 348, "pitch": 75, "duration": 2, "velocity": 102}, {"time": 351, "pitch": 73, "duration": 2, "velocity": 105}, {"time": 354, "pitch": 75, "duration": 4, "velocity": 111}, {"time": 360, "pitch": 80, "duration": 4, "velocity": 102}, {"time": 366, "pitch": 78, "duration": 5, "velocity": 108}, {"time": 372, "pitch": 73, "duration": 4, "velocity": 94}, {"time": 378, "pitch": 73, "duration": 11, "velocity": 105}, {"time": 390, "pitch": 71, "duration": 5, "velocity": 102}, {"time": 396, "pitch": 70, "duration": 2, "velocity": 114}, {"time": 399, "pitch": 71, "duration": 10, "velocity": 97}, {"time": 411, "pitch": 73, "duration": 2, "velocity": 100}, {"time": 414, "pitch": 75, "duration": 5, "velocity": 105}, {"time": 420, "pitch": 73, "duration": 4, "velocity": 108}, {"time": 426, "pitch": 71, "duration": 2, "velocity": 105}, {"time": 429, "pitch": 73, "duration": 8, "velocity": 108}, {"time": 438, "pitch": 75, "duration": 2, "velocity": 102}, {"time": 441, "pitch": 73, "duration": 2, "velocity": 92}, {"time": 444, "pitch": 75, "duration": 2, "velocity": 108}, {"time": 447, "pitch": 73, "duration": 2, "velocity": 94}, {"time": 450, "pitch": 75, "duration": 4, "velocity": 114}, {"time": 456, "pitch": 71, "duration": 4, "velocity": 114}, {"time": 462, "pitch": 70, "duration": 4, "velocity": 114}, {"time": 468, "pitch": 71, "duration": 2, "velocity": 105}, {"time": 471, "pitch": 73, "duration": 10, "velocity": 111}, {"time": 486, "pitch": 71, "duration": 2, "velocity": 105}, {"time": 489, "pitch": 70, "duration": 1, "velocity": 76}, {"time": 492, "pitch": 71, "duration": 2, "velocity": 108}, {"time": 495, "pitch": 70, "duration": 1, "velocity": 108}, {"time": 498, "pitch": 71, "duration": 9, "velocity": 111}, {"time": 510, "pitch": 71, "duration": 5, "velocity": 105}, {"time": 516, "pitch": 70, "duration": 4, "velocity": 114}, {"time": 522, "pitch": 68, "duration": 2, "velocity": 111}, {"time": 525, "pitch": 70, "duration": 7, "velocity": 117}, {"time": 534, "pitch": 75, "duration": 2, "velocity": 80}, {"time": 537, "pitch": 73, "duration": 2, "velocity": 102}, {"time": 540, "pitch": 75, "duration": 2, "velocity": 102}, {"time": 543, "pitch": 73, "duration": 2, "velocity": 102}, {"time": 546, "pitch": 75, "duration": 4, "velocity": 114}, {"time": 552, "pitch": 80, "duration": 4, "velocity": 111}, {"time": 558, "pitch": 82, "duration": 4, "velocity": 111}, {"time": 564, "pitch": 80, "duration": 4, "velocity": 111}, {"time": 570, "pitch": 78, "duration": 7, "velocity": 114}, {"time": 582, "pitch": 76, "duration": 2, "velocity": 108}, {"time": 585, "pitch": 75, "duration": 1, "velocity": 105}, {"time": 588, "pitch": 76, "duration": 2, "velocity": 117}, {"time": 591, "pitch": 75, "duration": 2, "velocity": 89}, {"time": 594, "pitch": 76, "duration": 4, "velocity": 111}, {"time": 600, "pitch": 83, "duration": 4, "velocity": 108}, {"time": 606, "pitch": 78, "duration": 14, "velocity": 108}, {"time": 624, "pitch": 78, "duration": 2, "velocity": 108}, {"time": 627, "pitch": 76, "duration": 2, "velocity": 108}, {"time": 630, "pitch": 75, "duration": 4, "velocity": 114}, {"time": 636, "pitch": 75, "duration": 4, "velocity": 108}, {"time": 642, "pitch": 75, "duration": 7, "velocity": 114}, {"time": 654, "pitch": 73, "duration": 2, "velocity": 111}, {"time": 657, "pitch": 73, "duration": 4, "velocity": 108}, {"time": 663, "pitch": 73, "duration": 7, "velocity": 111}, {"time": 672, "pitch": 75, "duration": 2, "velocity": 108}, {"time": 675, "pitch": 73, "duration": 2, "velocity": 105}, {"time": 678, "pitch": 71, "duration": 4, "velocity": 114}, {"time": 684, "pitch": 73, "duration": 4, "velocity": 105}, {"time": 690, "pitch": 75, "duration": 4, "velocity": 108}, {"time": 696, "pitch": 83, "duration": 4, "velocity": 120}, {"time": 702, "pitch": 82, "duration": 4, "velocity": 105}, {"time": 708, "pitch": 80, "duration": 2, "velocity": 105}, {"time": 711, "pitch": 78, "duration": 7, "velocity": 114}, {"time": 726, "pitch": 80, "duration": 5, "velocity": 102}, {"time": 732, "pitch": 76, "duration": 2, "velocity": 97}, {"time": 735, "pitch": 76, "duration": 2, "velocity": 100}, {"time": 738, "pitch": 76, "duration": 4, "velocity": 102}, {"time": 744, "pitch": 75, "duration": 4, "velocity": 108}, {"time": 750, "pitch": 76, "duration": 11, "velocity": 102}, {"time": 768, "pitch": 73, "duration": 2, "velocity": 108}, {"time": 771, "pitch": 75, "duration": 2, "velocity": 105}, {"time": 774, "pitch": 76, "duration": 4, "velocity": 108}, {"time": 780, "pitch": 83, "duration": 4, "velocity": 105}, {"time": 786, "pitch": 82, "duration": 4, "velocity": 111}, {"time": 792, "pitch": 78, "duration": 4, "velocity": 114}, {"time": 798, "pitch": 80, "duration": 2, "velocity": 105}, {"time": 801, "pitch": 78, "duration": 5, "velocity": 117}, {"time": 807, "pitch": 78, "duration": 6, "velocity": 117}, {"time": 816, "pitch": 78, "duration": 2, "velocity": 108}, {"time": 819, "pitch": 76, "duration": 2, "velocity": 108}, {"time": 822, "pitch": 75, "duration": 4, "velocity": 114}, {"time": 828, "pitch": 75, "duration": 4, "velocity": 108}, {"time": 834, "pitch": 75, "duration": 7, "velocity": 114}, {"time": 846, "pitch": 73, "duration": 2, "velocity": 111}, {"time": 849, "pitch": 78, "duration": 4, "velocity": 108}, {"time": 855, "pitch": 82, "duration": 7, "velocity": 111}, {"time": 864, "pitch": 80, "duration": 2, "velocity": 108}, {"time": 867, "pitch": 82, "duration": 2, "velocity": 105}, {"time": 870, "pitch": 83, "duration": 4, "velocity": 114}, {"time": 876, "pitch": 82, "duration": 4, "velocity": 105}, {"time": 882, "pitch": 78, "duration": 4, "velocity": 108}, {"time": 888, "pitch": 75, "duration": 4, "velocity": 120}, {"time": 894, "pitch": 80, "duration": 3, "velocity": 105}, {"time": 897, "pitch": 82, "duration": 6, "velocity": 105}, {"time": 903, "pitch": 78, "duration": 7, "velocity": 114}, {"time": 918, "pitch": 76, "duration": 9, "velocity": 111}, {"time": 930, "pitch": 85, "duration": 4, "velocity": 114}, {"time": 936, "pitch": 83, "duration": 2, "velocity": 105}, {"time": 939, "pitch": 78, "duration": 15, "velocity": 92}, {"time": 960, "pitch": 73, "duration": 2, "velocity": 105}, {"time": 963, "pitch": 75, "duration": 2, "velocity": 105}, {"time": 966, "pitch": 76, "duration": 5, "velocity": 108}, {"time": 972, "pitch": 76, "duration": 2, "velocity": 105}, {"time": 975, "pitch": 75, "duration": 2, "velocity": 100}, {"time": 978, "pitch": 76, "duration": 4, "velocity": 105}, {"time": 984, "pitch": 78, "duration": 4, "velocity": 108}, {"time": 990, "pitch": 75, "duration": 9, "velocity": 111}, {"time": 1002, "pitch": 73, "duration": 10, "velocity": 108}, {"time": 1014, "pitch": 71, "duration": 35, "velocity": 105}, {"time": 1254, "pitch": 75, "duration": 2, "velocity": 102}, {"time": 1257, "pitch": 73, "duration": 2, "velocity": 92}, {"time": 1260, "pitch": 75, "duration": 2, "velocity": 108}, {"time": 1263, "pitch": 73, "duration": 2, "velocity": 94}, {"time": 1266, "pitch": 75, "duration": 4, "velocity": 114}, {"time": 1272, "pitch": 71, "duration": 4, "velocity": 114}, {"time": 1278, "pitch": 70, "duration": 4, "velocity": 114}, {"time": 1284, "pitch": 71, "duration": 2, "velocity": 105}, {"time": 1287, "pitch": 73, "duration": 10, "velocity": 111}, {"time": 1302, "pitch": 71, "duration": 2, "velocity": 105}, {"time": 1305, "pitch": 70, "duration": 1, "velocity": 76}, {"time": 1308, "pitch": 71, "duration": 2, "velocity": 108}, {"time": 1311, "pitch": 70, "duration": 1, "velocity": 108}, {"time": 1314, "pitch": 71, "duration": 9, "velocity": 111}, {"time": 1326, "pitch": 71, "duration": 5, "velocity": 105}, {"time": 1332, "pitch": 70, "duration": 4, "velocity": 114}, {"time": 1338, "pitch": 68, "duration": 2, "velocity": 111}, {"time": 1341, "pitch": 70, "duration": 7, "velocity": 117}, {"time": 1350, "pitch": 75, "duration": 2, "velocity": 80}, {"time": 1353, "pitch": 73, "duration": 2, "velocity": 102}, {"time": 1356, "pitch": 75, "duration": 2, "velocity": 102}, {"time": 1359, "pitch": 73, "duration": 2, "velocity": 102}, {"time": 1362, "pitch": 75, "duration": 4, "velocity": 114}, {"time": 1368, "pitch": 80, "duration": 4, "velocity": 111}, {"time": 1374, "pitch": 82, "duration": 4, "velocity": 111}, {"time": 1380, "pitch": 80, "duration": 4, "velocity": 111}, {"time": 1386, "pitch": 78, "duration": 7, "velocity": 114}, {"time": 1398, "pitch": 76, "duration": 2, "velocity": 108}, {"time": 1401, "pitch": 75, "duration": 1, "velocity": 105}, {"time": 1404, "pitch": 76, "duration": 2, "velocity": 117}, {"time": 1407, "pitch": 75, "duration": 2, "velocity": 89}, {"time": 1410, "pitch": 76, "duration": 4, "velocity": 111}, {"time": 1416, "pitch": 83, "duration": 4, "velocity": 108}, {"time": 1422, "pitch": 78, "duration": 14, "velocity": 108}, {"time": 1440, "pitch": 78, "duration": 2, "velocity": 108}, {"time": 1443, "pitch": 76, "duration": 2, "velocity": 108}, {"time": 1446, "pitch": 75, "duration": 4, "velocity": 114}, {"time": 1452, "pitch": 75, "duration": 4, "velocity": 108}, {"time": 1458, "pitch": 75, "duration": 7, "velocity": 114}, {"time": 1470, "pitch": 73, "duration": 2, "velocity": 111}, {"time": 1473, "pitch": 73, "duration": 4, "velocity": 108}, {"time": 1479, "pitch": 73, "duration": 7, "velocity": 111}, {"time": 1488, "pitch": 75, "duration": 2, "velocity": 108}, {"time": 1491, "pitch": 73, "duration": 2, "velocity": 105}, {"time": 1494, "pitch": 71, "duration": 4, "velocity": 114}, {"time": 1500, "pitch": 73, "duration": 4, "velocity": 105}, {"time": 1506, "pitch": 75, "duration": 4, "velocity": 108}, {"time": 1512, "pitch": 83, "duration": 4, "velocity": 120}, {"time": 1518, "pitch": 82, "duration": 4, "velocity": 105}, {"time": 1524, "pitch": 80, "duration": 2, "velocity": 105}, {"time": 1527, "pitch": 78, "duration": 7, "velocity": 114}, {"time": 1542, "pitch": 80, "duration": 5, "velocity": 102}, {"time": 1548, "pitch": 76, "duration": 2, "velocity": 97}, {"time": 1551, "pitch": 76, "duration": 2, "velocity": 100}, {"time": 1554, "pitch": 76, "duration": 4, "velocity": 102}, {"time": 1560, "pitch": 75, "duration": 4, "velocity": 108}, {"time": 1566, "pitch": 76, "duration": 11, "velocity": 102}, {"time": 1584, "pitch": 73, "duration": 2, "velocity": 108}, {"time": 1587, "pitch": 75, "duration": 2, "velocity": 105}, {"time": 1590, "pitch": 76, "duration": 4, "velocity": 108}, {"time": 1596, "pitch": 83, "duration": 4, "velocity": 105}, {"time": 1602, "pitch": 82, "duration": 4, "velocity": 111}, {"time": 1608, "pitch": 78, "duration": 4, "velocity": 114}, {"time": 1614, "pitch": 80, "duration": 2, "velocity": 105}, {"time": 1617, "pitch": 78, "duration": 5, "velocity": 117}, {"time": 1623, "pitch": 78, "duration": 6, "velocity": 117}, {"time": 1632, "pitch": 78, "duration": 2, "velocity": 108}, {"time": 1635, "pitch": 76, "duration": 2, "velocity": 108}, {"time": 1638, "pitch": 75, "duration": 4, "velocity": 114}, {"time": 1644, "pitch": 75, "duration": 4, "velocity": 108}, {"time": 1650, "pitch": 75, "duration": 7, "velocity": 114}, {"time": 1662, "pitch": 73, "duration": 2, "velocity": 111}, {"time": 1665, "pitch": 78, "duration": 4, "velocity": 108}, {"time": 1671, "pitch": 82, "duration": 7, "velocity": 111}, {"time": 1680, "pitch": 80, "duration": 2, "velocity": 108}, {"time": 1683, "pitch": 82, "duration": 2, "velocity": 105}, {"time": 1686, "pitch": 83, "duration": 4, "velocity": 114}, {"time": 1692, "pitch": 82, "duration": 4, "velocity": 105}, {"time": 1698, "pitch": 78, "duration": 4, "velocity": 108}, {"time": 1704, "pitch": 75, "duration": 4, "velocity": 120}, {"time": 1710, "pitch": 80, "duration": 3, "velocity": 105}, {"time": 1713, "pitch": 82, "duration": 6, "velocity": 105}, {"time": 1719, "pitch": 78, "duration": 7, "velocity": 114}, {"time": 1734, "pitch": 76, "duration": 9, "velocity": 111}, {"time": 1746, "pitch": 85, "duration": 4, "velocity": 114}, {"time": 1752, "pitch": 83, "duration": 2, "velocity": 105}, {"time": 1755, "pitch": 78, "duration": 15, "velocity": 92}, {"time": 1776, "pitch": 73, "duration": 2, "velocity": 105}, {"time": 1779, "pitch": 75, "duration": 2, "velocity": 105}, {"time": 1782, "pitch": 76, "duration": 5, "velocity": 108}, {"time": 1788, "pitch": 76, "duration": 2, "velocity": 105}, {"time": 1791, "pitch": 75, "duration": 2, "velocity": 100}, {"time": 1794, "pitch": 76, "duration": 4, "velocity": 105}, {"time": 1800, "pitch": 78, "duration": 4, "velocity": 108}, {"time": 1806, "pitch": 80, "duration": 9, "velocity": 111}, {"time": 1818, "pitch": 82, "duration": 10, "velocity": 108}, {"time": 1830, "pitch": 83, "duration": 45, "velocity": 105}, {"time": 2070, "pitch": 75, "duration": 4, "velocity": 114}, {"time": 2076, "pitch": 75, "duration": 4, "velocity": 108}, {"time": 2082, "pitch": 75, "duration": 7, "velocity": 114}, {"time": 2094, "pitch": 73, "duration": 2, "velocity": 111}, {"time": 2097, "pitch": 73, "duration": 4, "velocity": 108}, {"time": 2103, "pitch": 73, "duration": 7, "velocity": 111}, {"time": 2112, "pitch": 75, "duration": 2, "velocity": 108}, {"time": 2115, "pitch": 73, "duration": 2, "velocity": 105}, {"time": 2118, "pitch": 71, "duration": 4, "velocity": 114}, {"time": 2124, "pitch": 73, "duration": 4, "velocity": 105}, {"time": 2130, "pitch": 75, "duration": 4, "velocity": 108}, {"time": 2136, "pitch": 83, "duration": 4, "velocity": 120}, {"time": 2142, "pitch": 82, "duration": 4, "velocity": 105}, {"time": 2148, "pitch": 80, "duration": 2, "velocity": 105}, {"time": 2151, "pitch": 78, "duration": 7, "velocity": 114}, {"time": 2166, "pitch": 80, "duration": 5, "velocity": 102}, {"time": 2172, "pitch": 76, "duration": 2, "velocity": 97}, {"time": 2175, "pitch": 76, "duration": 2, "velocity": 100}, {"time": 2178, "pitch": 76, "duration": 4, "velocity": 102}, {"time": 2184, "pitch": 75, "duration": 4, "velocity": 108}, {"time": 2190, "pitch": 76, "duration": 11, "velocity": 102}, {"time": 2208, "pitch": 73, "duration": 2, "velocity": 108}, {"time": 2211, "pitch": 75, "duration": 2, "velocity": 105}, {"time": 2214, "pitch": 76, "duration": 4, "velocity": 108}, {"time": 2220, "pitch": 83, "duration": 4, "velocity": 105}, {"time": 2226, "pitch": 82, "duration": 4, "velocity": 111}, {"time": 2232, "pitch": 78, "duration": 4, "velocity": 114}, {"time": 2238, "pitch": 80, "duration": 2, "velocity": 105}, {"time": 2241, "pitch": 78, "duration": 5, "velocity": 117}, {"time": 2247, "pitch": 78, "duration": 6, "velocity": 117}, {"time": 2256, "pitch": 78, "duration": 2, "velocity": 108}, {"time": 2259, "pitch": 76, "duration": 2, "velocity": 108}, {"time": 2262, "pitch": 75, "duration": 4, "velocity": 114}, {"time": 2268, "pitch": 75, "duration": 4, "velocity": 108}, {"time": 2274, "pitch": 75, "duration": 7, "velocity": 114}, {"time": 2286, "pitch": 73, "duration": 2, "velocity": 111}, {"time": 2289, "pitch": 78, "duration": 4, "velocity": 108}, {"time": 2295, "pitch": 82, "duration": 7, "velocity": 111}, {"time": 2304, "pitch": 80, "duration": 2, "velocity": 108}, {"time": 2307, "pitch": 82, "duration": 2, "velocity": 105}, {"time": 2310, "pitch": 83, "duration": 4, "velocity": 114}, {"time": 2316, "pitch": 82, "duration": 4, "velocity": 105}, {"time": 2322, "pitch": 78, "duration": 4, "velocity": 108}, {"time": 2328, "pitch": 75, "duration": 4, "velocity": 120}, {"time": 2334, "pitch": 80, "duration": 3, "velocity": 105}, {"time": 2337, "pitch": 82, "duration": 6, "velocity": 105}, {"time": 2343, "pitch": 78, "duration": 7, "velocity": 114}, {"time": 2358, "pitch": 76, "duration": 9, "velocity": 111}, {"time": 2370, "pitch": 85, "duration": 4, "velocity": 114}, {"time": 2376, "pitch": 83, "duration": 2, "velocity": 105}, {"time": 2379, "pitch": 78, "duration": 15, "velocity": 92}, {"time": 2400, "pitch": 73, "duration": 2, "velocity": 105}, {"time": 2403, "pitch": 75, "duration": 2, "velocity": 105}, {"time": 2406, "pitch": 76, "duration": 5, "velocity": 108}, {"time": 2412, "pitch": 76, "duration": 2, "velocity": 105}, {"time": 2415, "pitch": 75, "duration": 2, "velocity": 100}, {"time": 2418, "pitch": 76, "duration": 4, "velocity": 105}, {"time": 2424, "pitch": 78, "duration": 4, "velocity": 108}, {"time": 2430, "pitch": 80, "duration": 9, "velocity": 111}, {"time": 2442, "pitch": 82, "duration": 10, "velocity": 108}, {"time": 2454, "pitch": 83, "duration": 39, "velocity": 105}, {"time": 2496, "pitch": 73, "duration": 2, "velocity": 105}, {"time": 2499, "pitch": 75, "duration": 2, "velocity": 100}, {"time": 2502, "pitch": 76, "duration": 4, "velocity": 102}, {"time": 2508, "pitch": 76, "duration": 2, "velocity": 100}, {"time": 2511, "pitch": 75, "duration": 2, "velocity": 102}, {"time": 2514, "pitch": 76, "duration": 4, "velocity": 108}, {"time": 2520, "pitch": 78, "duration": 4, "velocity": 108}, {"time": 2526, "pitch": 75, "duration": 10, "velocity": 111}, {"time": 2538, "pitch": 73, "duration": 10, "velocity": 105}, {"time": 2550, "pitch": 71, "duration": 38, "velocity": 102}, {"time": 2593, "pitch": 73, "duration": 1, "velocity": 94}, {"time": 2596, "pitch": 75, "duration": 1, "velocity": 108}, {"time": 2598, "pitch": 76, "duration": 4, "velocity": 108}, {"time": 2605, "pitch": 76, "duration": 3, "velocity": 105}, {"time": 2609, "pitch": 75, "duration": 1, "velocity": 108}, {"time": 2612, "pitch": 76, "duration": 4, "velocity": 114}, {"time": 2618, "pitch": 78, "duration": 10, "velocity": 114}, {"time": 2626, "pitch": 80, "duration": 16, "velocity": 108}, {"time": 2640, "pitch": 82, "duration": 12, "velocity": 120}, {"time": 2653, "pitch": 83, "duration": 54, "velocity": 114}]}, {"program": 0, "is_drum": false, "name": "BRIDGE", "notes": [{"time": 47, "pitch": 78, "duration": 3, "velocity": 114}, {"time": 50, "pitch": 76, "duration": 2, "velocity": 105}, {"time": 53, "pitch": 75, "duration": 4, "velocity": 117}, {"time": 59, "pitch": 75, "duration": 4, "velocity": 111}, {"time": 65, "pitch": 75, "duration": 9, "velocity": 117}, {"time": 77, "pitch": 73, "duration": 2, "velocity": 108}, {"time": 80, "pitch": 73, "duration": 5, "velocity": 102}, {"time": 86, "pitch": 73, "duration": 3, "velocity": 100}, {"time": 90, "pitch": 70, "duration": 10, "velocity": 117}, {"time": 102, "pitch": 71, "duration": 5, "velocity": 114}, {"time": 108, "pitch": 71, "duration": 2, "velocity": 111}, {"time": 111, "pitch": 70, "duration": 2, "velocity": 111}, {"time": 114, "pitch": 71, "duration": 6, "velocity": 120}, {"time": 120, "pitch": 78, "duration": 5, "velocity": 114}, {"time": 126, "pitch": 75, "duration": 14, "velocity": 111}, {"time": 143, "pitch": 71, "duration": 5, "velocity": 120}, {"time": 150, "pitch": 83, "duration": 10, "velocity": 120}, {"time": 162, "pitch": 83, "duration": 10, "velocity": 114}, {"time": 174, "pitch": 82, "duration": 4, "velocity": 117}, {"time": 180, "pitch": 82, "duration": 2, "velocity": 102}, {"time": 183, "pitch": 78, "duration": 11, "velocity": 108}, {"time": 198, "pitch": 71, "duration": 18, "velocity": 117}, {"time": 218, "pitch": 71, "duration": 3, "velocity": 66}, {"time": 220, "pitch": 73, "duration": 2, "velocity": 74}, {"time": 221, "pitch": 75, "duration": 2, "velocity": 71}, {"time": 222, "pitch": 78, "duration": 22, "velocity": 105}, {"time": 1062, "pitch": 71, "duration": 4, "velocity": 102}, {"time": 1065, "pitch": 70, "duration": 4, "velocity": 92}, {"time": 1068, "pitch": 71, "duration": 4, "velocity": 111}, {"time": 1071, "pitch": 78, "duration": 9, "velocity": 105}, {"time": 1077, "pitch": 70, "duration": 4, "velocity": 84}, {"time": 1080, "pitch": 71, "duration": 4, "velocity": 100}, {"time": 1083, "pitch": 78, "duration": 6, "velocity": 102}, {"time": 1086, "pitch": 71, "duration": 4, "velocity": 84}, {"time": 1089, "pitch": 70, "duration": 4, "velocity": 100}, {"time": 1092, "pitch": 71, "duration": 4, "velocity": 105}, {"time": 1095, "pitch": 78, "duration": 10, "velocity": 102}, {"time": 1101, "pitch": 70, "duration": 4, "velocity": 76}, {"time": 1104, "pitch": 71, "duration": 4, "velocity": 97}, {"time": 1107, "pitch": 78, "duration": 3, "velocity": 87}, {"time": 1110, "pitch": 71, "duration": 6, "velocity": 84}, {"time": 1110, "pitch": 75, "duration": 5, "velocity": 92}, {"time": 1116, "pitch": 75, "duration": 4, "velocity": 87}, {"time": 1119, "pitch": 73, "duration": 4, "velocity": 87}, {"time": 1122, "pitch": 75, "duration": 5, "velocity": 111}, {"time": 1128, "pitch": 75, "duration": 4, "velocity": 100}, {"time": 1131, "pitch": 73, "duration": 3, "velocity": 97}, {"time": 1134, "pitch": 75, "duration": 4, "velocity": 105}, {"time": 1137, "pitch": 73, "duration": 4, "velocity": 71}, {"time": 1140, "pitch": 75, "duration": 4, "velocity": 94}, {"time": 1143, "pitch": 78, "duration": 8, "velocity": 111}, {"time": 1149, "pitch": 78, "duration": 2, "velocity": 117}, {"time": 1152, "pitch": 83, "duration": 2, "velocity": 111}, {"time": 1155, "pitch": 85, "duration": 2, "velocity": 114}, {"time": 1158, "pitch": 87, "duration": 10, "velocity": 111}, {"time": 1170, "pitch": 90, "duration": 11, "velocity": 111}, {"time": 1182, "pitch": 85, "duration": 11, "velocity": 120}, {"time": 1194, "pitch": 90, "duration": 7, "velocity": 114}, {"time": 1206, "pitch": 87, "duration": 5, "velocity": 117}, {"time": 1212, "pitch": 83, "duration": 2, "velocity": 105}, {"time": 1215, "pitch": 83, "duration": 2, "velocity": 114}, {"time": 1218, "pitch": 85, "duration": 3, "velocity": 111}, {"time": 1221, "pitch": 83, "duration": 2, "velocity": 117}, {"time": 1224, "pitch": 78, "duration": 18, "velocity": 120}, {"time": 1426, "pitch": 66, "duration": 1, "velocity": 82}, {"time": 1428, "pitch": 68, "duration": 2, "velocity": 88}, {"time": 1431, "pitch": 70, "duration": 1, "velocity": 91}, {"time": 1434, "pitch": 71, "duration": 2, "velocity": 99}, {"time": 1437, "pitch": 73, "duration": 2, "velocity": 101}, {"time": 1440, "pitch": 75, "duration": 1, "velocity": 106}, {"time": 1443, "pitch": 76, "duration": 2, "velocity": 119}, {"time": 1446, "pitch": 78, "duration": 11, "velocity": 127}, {"time": 1822, "pitch": 59, "duration": 3, "velocity": 89}, {"time": 1822, "pitch": 71, "duration": 3, "velocity": 98}, {"time": 1824, "pitch": 61, "duration": 3, "velocity": 105}, {"time": 1824, "pitch": 73, "duration": 3, "velocity": 104}, {"time": 1827, "pitch": 63, "duration": 2, "velocity": 117}, {"time": 1827, "pitch": 75, "duration": 2, "velocity": 125}, {"time": 1830, "pitch": 63, "duration": 18, "velocity": 127}, {"time": 1830, "pitch": 75, "duration": 7, "velocity": 127}, {"time": 1830, "pitch": 87, "duration": 7, "velocity": 127}, {"time": 1837, "pitch": 73, "duration": 5, "velocity": 127}, {"time": 1837, "pitch": 85, "duration": 5, "velocity": 127}, {"time": 1842, "pitch": 71, "duration": 3, "velocity": 127}, {"time": 1842, "pitch": 83, "duration": 3, "velocity": 127}, {"time": 1845, "pitch": 73, "duration": 3, "velocity": 127}, {"time": 1845, "pitch": 85, "duration": 3, "velocity": 127}, {"time": 1848, "pitch": 66, "duration": 19, "velocity": 127}, {"time": 1848, "pitch": 78, "duration": 19, "velocity": 127}, {"time": 1872, "pitch": 63, "duration": 5, "velocity": 127}, {"time": 1872, "pitch": 75, "duration": 5, "velocity": 127}, {"time": 1878, "pitch": 64, "duration": 2, "velocity": 108}, {"time": 1878, "pitch": 76, "duration": 2, "velocity": 100}, {"time": 1887, "pitch": 71, "duration": 8, "velocity": 111}, {"time": 1887, "pitch": 83, "duration": 7, "velocity": 105}, {"time": 1896, "pitch": 64, "duration": 3, "velocity": 111}, {"time": 1896, "pitch": 76, "duration": 3, "velocity": 100}, {"time": 1902, "pitch": 66, "duration": 4, "velocity": 102}, {"time": 1902, "pitch": 78, "duration": 4, "velocity": 105}, {"time": 1911, "pitch": 73, "duration": 6, "velocity": 105}, {"time": 1911, "pitch": 85, "duration": 7, "velocity": 111}, {"time": 1917, "pitch": 66, "duration": 9, "velocity": 111}, {"time": 1917, "pitch": 78, "duration": 9, "velocity": 97}, {"time": 1926, "pitch": 76, "duration": 4, "velocity": 111}, {"time": 1926, "pitch": 88, "duration": 4, "velocity": 102}, {"time": 1932, "pitch": 75, "duration": 4, "velocity": 114}, {"time": 1932, "pitch": 87, "duration": 3, "velocity": 108}, {"time": 1938, "pitch": 73, "duration": 2, "velocity": 111}, {"time": 1938, "pitch": 85, "duration": 2, "velocity": 102}, {"time": 1941, "pitch": 71, "duration": 1, "velocity": 111}, {"time": 1941, "pitch": 83, "duration": 1, "velocity": 100}, {"time": 1944, "pitch": 78, "duration": 2, "velocity": 89}, {"time": 1944, "pitch": 90, "duration": 1, "velocity": 108}, {"time": 1947, "pitch": 78, "duration": 24, "velocity": 108}, {"time": 1947, "pitch": 90, "duration": 23, "velocity": 108}, {"time": 1974, "pitch": 76, "duration": 4, "velocity": 102}, {"time": 1974, "pitch": 88, "duration": 4, "velocity": 105}, {"time": 1977, "pitch": 75, "duration": 2, "velocity": 94}, {"time": 1977, "pitch": 87, "duration": 2, "velocity": 111}, {"time": 1980, "pitch": 71, "duration": 2, "velocity": 105}, {"time": 1980, "pitch": 83, "duration": 2, "velocity": 108}, {"time": 1983, "pitch": 66, "duration": 4, "velocity": 89}, {"time": 1983, "pitch": 78, "duration": 5, "velocity": 111}, {"time": 1989, "pitch": 71, "duration": 2, "velocity": 105}, {"time": 1989, "pitch": 83, "duration": 2, "velocity": 78}, {"time": 1992, "pitch": 68, "duration": 13, "velocity": 94}, {"time": 1992, "pitch": 80, "duration": 13, "velocity": 114}, {"time": 2007, "pitch": 71, "duration": 3, "velocity": 84}, {"time": 2007, "pitch": 83, "duration": 3, "velocity": 102}, {"time": 2010, "pitch": 75, "duration": 10, "velocity": 117}, {"time": 2010, "pitch": 87, "duration": 11, "velocity": 108}, {"time": 2022, "pitch": 73, "duration": 34, "velocity": 100}, {"time": 2022, "pitch": 85, "duration": 42, "velocity": 87}, {"time": 2653, "pitch": 75, "duration": 4, "velocity": 110}, {"time": 2659, "pitch": 75, "duration": 4, "velocity": 103}, {"time": 2665, "pitch": 75, "duration": 5, "velocity": 101}, {"time": 2670, "pitch": 73, "duration": 3, "velocity": 108}, {"time": 2673, "pitch": 71, "duration": 1, "velocity": 99}, {"time": 2676, "pitch": 73, "duration": 4, "velocity": 98}, {"time": 2680, "pitch": 78, "duration": 1, "velocity": 100}, {"time": 2686, "pitch": 78, "duration": 7, "velocity": 100}, {"time": 2700, "pitch": 71, "duration": 3, "velocity": 103}, {"time": 2703, "pitch": 70, "duration": 4, "velocity": 101}, {"time": 2707, "pitch": 71, "duration": 3, "velocity": 101}, {"time": 2709, "pitch": 70, "duration": 4, "velocity": 96}, {"time": 2713, "pitch": 71, "duration": 4, "velocity": 93}, {"time": 2719, "pitch": 70, "duration": 1, "velocity": 93}, {"time": 2722, "pitch": 70, "duration": 2, "velocity": 94}, {"time": 2725, "pitch": 71, "duration": 2, "velocity": 92}, {"time": 2727, "pitch": 70, "duration": 3, "velocity": 92}, {"time": 2730, "pitch": 71, "duration": 3, "velocity": 92}, {"time": 2733, "pitch": 70, "duration": 2, "velocity": 92}, {"time": 2736, "pitch": 75, "duration": 7, "velocity": 92}, {"time": 2742, "pitch": 73, "duration": 5, "velocity": 95}, {"time": 2748, "pitch": 66, "duration": 9, "velocity": 95}, {"time": 2761, "pitch": 66, "duration": 11, "velocity": 95}, {"time": 2772, "pitch": 75, "duration": 12, "velocity": 91}, {"time": 2784, "pitch": 73, "duration": 12, "velocity": 91}, {"time": 2796, "pitch": 71, "duration": 16, "velocity": 91}, {"time": 2817, "pitch": 95, "duration": 1, "velocity": 87}, {"time": 2818, "pitch": 90, "duration": 1, "velocity": 86}, {"time": 2818, "pitch": 87, "duration": 2, "velocity": 86}, {"time": 2820, "pitch": 83, "duration": 13, "velocity": 84}], "annotations": [{"time": 1878, "annotation": {"number": 64, "value": 127}, "group": "control_change"}, {"time": 1886, "annotation": {"number": 64, "value": 0}, "group": "control_change"}, {"time": 1892, "annotation": {"number": 64, "value": 127}, "group": "control_change"}, {"time": 1901, "annotation": {"number": 64, "value": 0}, "group": "control_change"}, {"time": 1903, "annotation": {"number": 64, "value": 127}, "group": "control_change"}, {"time": 1913, "annotation": {"number": 64, "value": 0}, "group": "control_change"}, {"time": 1928, "annotation": {"number": 64, "value": 127}, "group": "control_change"}, {"time": 1936, "annotation": {"number": 64, "value": 0}, "group": "control_change"}, {"time": 1940, "annotation": {"number": 64, "value": 127}, "group": "control_change"}, {"time": 1947, "annotation": {"number": 64, "value": 0}, "group": "control_change"}, {"time": 2645, "annotation": {"number": 64, "value": 0}, "group": "control_change"}, {"time": 2653, "annotation": {"number": 64, "value": 0}, "group": "control_change"}]}, {"program": 0, "is_drum": false, "name": "PIANO", "notes": [{"time": 53, "pitch": 47, "duration": 18, "velocity": 80}, {"time": 53, "pitch": 59, "duration": 8, "velocity": 78}, {"time": 53, "pitch": 63, "duration": 8, "velocity": 89}, {"time": 65, "pitch": 59, "duration": 6, "velocity": 82}, {"time": 65, "pitch": 63, "duration": 12, "velocity": 87}, {"time": 72, "pitch": 54, "duration": 15, "velocity": 92}, {"time": 78, "pitch": 42, "duration": 21, "velocity": 92}, {"time": 78, "pitch": 58, "duration": 9, "velocity": 71}, {"time": 78, "pitch": 61, "duration": 10, "velocity": 80}, {"time": 90, "pitch": 54, "duration": 6, "velocity": 87}, {"time": 90, "pitch": 58, "duration": 6, "velocity": 100}, {"time": 90, "pitch": 61, "duration": 12, "velocity": 92}, {"time": 96, "pitch": 49, "duration": 6, "velocity": 80}, {"time": 102, "pitch": 40, "duration": 23, "velocity": 84}, {"time": 102, "pitch": 52, "duration": 10, "velocity": 69}, {"time": 102, "pitch": 56, "duration": 8, "velocity": 80}, {"time": 108, "pitch": 47, "duration": 9, "velocity": 40}, {"time": 114, "pitch": 52, "duration": 6, "velocity": 82}, {"time": 114, "pitch": 56, "duration": 6, "velocity": 100}, {"time": 114, "pitch": 59, "duration": 6, "velocity": 87}, {"time": 120, "pitch": 47, "duration": 6, "velocity": 67}, {"time": 126, "pitch": 40, "duration": 14, "velocity": 66}, {"time": 126, "pitch": 52, "duration": 10, "velocity": 71}, {"time": 126, "pitch": 56, "duration": 10, "velocity": 78}, {"time": 126, "pitch": 64, "duration": 7, "velocity": 64}, {"time": 132, "pitch": 47, "duration": 7, "velocity": 37}, {"time": 138, "pitch": 52, "duration": 7, "velocity": 78}, {"time": 138, "pitch": 56, "duration": 7, "velocity": 92}, {"time": 138, "pitch": 59, "duration": 7, "velocity": 82}, {"time": 150, "pitch": 44, "duration": 23, "velocity": 97}, {"time": 150, "pitch": 56, "duration": 9, "velocity": 84}, {"time": 150, "pitch": 59, "duration": 7, "velocity": 87}, {"time": 156, "pitch": 51, "duration": 7, "velocity": 52}, {"time": 162, "pitch": 56, "duration": 5, "velocity": 102}, {"time": 162, "pitch": 59, "duration": 7, "velocity": 111}, {"time": 162, "pitch": 63, "duration": 10, "velocity": 92}, {"time": 165, "pitch": 51, "duration": 9, "velocity": 31}, {"time": 168, "pitch": 56, "duration": 5, "velocity": 94}, {"time": 174, "pitch": 42, "duration": 22, "velocity": 64}, {"time": 174, "pitch": 54, "duration": 13, "velocity": 69}, {"time": 174, "pitch": 58, "duration": 9, "velocity": 69}, {"time": 180, "pitch": 51, "duration": 17, "velocity": 87}, {"time": 186, "pitch": 58, "duration": 7, "velocity": 105}, {"time": 186, "pitch": 63, "duration": 11, "velocity": 105}, {"time": 192, "pitch": 54, "duration": 4, "velocity": 102}, {"time": 198, "pitch": 40, "duration": 23, "velocity": 84}, {"time": 198, "pitch": 52, "duration": 13, "velocity": 87}, {"time": 198, "pitch": 56, "duration": 13, "velocity": 92}, {"time": 204, "pitch": 47, "duration": 7, "velocity": 52}, {"time": 210, "pitch": 59, "duration": 9, "velocity": 97}, {"time": 213, "pitch": 47, "duration": 8, "velocity": 60}, {"time": 216, "pitch": 52, "duration": 29, "velocity": 87}, {"time": 219, "pitch": 56, "duration": 26, "velocity": 87}, {"time": 222, "pitch": 40, "duration": 23, "velocity": 82}, {"time": 222, "pitch": 64, "duration": 23, "velocity": 100}, {"time": 246, "pitch": 47, "duration": 22, "velocity": 97}, {"time": 246, "pitch": 59, "duration": 10, "velocity": 71}, {"time": 246, "pitch": 63, "duration": 9, "velocity": 78}, {"time": 252, "pitch": 54, "duration": 10, "velocity": 42}, {"time": 258, "pitch": 59, "duration": 6, "velocity": 92}, {"time": 258, "pitch": 63, "duration": 6, "velocity": 102}, {"time": 258, "pitch": 66, "duration": 12, "velocity": 94}, {"time": 264, "pitch": 54, "duration": 10, "velocity": 64}, {"time": 270, "pitch": 58, "duration": 10, "velocity": 76}, {"time": 270, "pitch": 61, "duration": 8, "velocity": 82}, {"time": 270, "pitch": 42, "duration": 15, "velocity": 80}, {"time": 276, "pitch": 54, "duration": 10, "velocity": 42}, {"time": 282, "pitch": 58, "duration": 3, "velocity": 92}, {"time": 282, "pitch": 61, "duration": 7, "velocity": 100}, {"time": 282, "pitch": 66, "duration": 13, "velocity": 92}, {"time": 288, "pitch": 58, "duration": 3, "velocity": 100}, {"time": 294, "pitch": 44, "duration": 18, "velocity": 87}, {"time": 294, "pitch": 56, "duration": 9, "velocity": 89}, {"time": 294, "pitch": 59, "duration": 6, "velocity": 71}, {"time": 300, "pitch": 51, "duration": 9, "velocity": 29}, {"time": 306, "pitch": 56, "duration": 4, "velocity": 97}, {"time": 306, "pitch": 59, "duration": 7, "velocity": 100}, {"time": 306, "pitch": 63, "duration": 12, "velocity": 84}, {"time": 312, "pitch": 56, "duration": 4, "velocity": 87}, {"time": 318, "pitch": 42, "duration": 16, "velocity": 80}, {"time": 318, "pitch": 54, "duration": 8, "velocity": 76}, {"time": 318, "pitch": 58, "duration": 7, "velocity": 71}, {"time": 324, "pitch": 49, "duration": 10, "velocity": 19}, {"time": 330, "pitch": 54, "duration": 6, "velocity": 89}, {"time": 330, "pitch": 58, "duration": 6, "velocity": 105}, {"time": 330, "pitch": 61, "duration": 7, "velocity": 89}, {"time": 336, "pitch": 42, "duration": 4, "velocity": 97}, {"time": 342, "pitch": 44, "duration": 16, "velocity": 89}, {"time": 342, "pitch": 56, "duration": 9, "velocity": 82}, {"time": 342, "pitch": 59, "duration": 8, "velocity": 78}, {"time": 348, "pitch": 51, "duration": 10, "velocity": 25}, {"time": 354, "pitch": 56, "duration": 6, "velocity": 97}, {"time": 354, "pitch": 59, "duration": 5, "velocity": 102}, {"time": 354, "pitch": 63, "duration": 11, "velocity": 87}, {"time": 360, "pitch": 44, "duration": 5, "velocity": 97}, {"time": 366, "pitch": 42, "duration": 17, "velocity": 94}, {"time": 366, "pitch": 54, "duration": 10, "velocity": 69}, {"time": 366, "pitch": 58, "duration": 7, "velocity": 76}, {"time": 372, "pitch": 49, "duration": 11, "velocity": 22}, {"time": 378, "pitch": 54, "duration": 3, "velocity": 84}, {"time": 378, "pitch": 58, "duration": 8, "velocity": 102}, {"time": 378, "pitch": 61, "duration": 8, "velocity": 87}, {"time": 384, "pitch": 54, "duration": 2, "velocity": 80}, {"time": 390, "pitch": 49, "duration": 19, "velocity": 76}, {"time": 390, "pitch": 56, "duration": 4, "velocity": 84}, {"time": 390, "pitch": 61, "duration": 8, "velocity": 49}, {"time": 390, "pitch": 64, "duration": 8, "velocity": 64}, {"time": 396, "pitch": 56, "duration": 4, "velocity": 73}, {"time": 402, "pitch": 56, "duration": 3, "velocity": 102}, {"time": 402, "pitch": 61, "duration": 8, "velocity": 94}, {"time": 402, "pitch": 64, "duration": 11, "velocity": 94}, {"time": 408, "pitch": 56, "duration": 4, "velocity": 97}, {"time": 414, "pitch": 42, "duration": 19, "velocity": 94}, {"time": 414, "pitch": 54, "duration": 9, "velocity": 87}, {"time": 414, "pitch": 61, "duration": 9, "velocity": 76}, {"time": 420, "pitch": 49, "duration": 8, "velocity": 46}, {"time": 426, "pitch": 54, "duration": 8, "velocity": 97}, {"time": 426, "pitch": 61, "duration": 7, "velocity": 87}, {"time": 432, "pitch": 49, "duration": 5, "velocity": 102}, {"time": 438, "pitch": 47, "duration": 23, "velocity": 80}, {"time": 438, "pitch": 54, "duration": 4, "velocity": 73}, {"time": 438, "pitch": 59, "duration": 7, "velocity": 84}, {"time": 444, "pitch": 54, "duration": 5, "velocity": 87}, {"time": 450, "pitch": 54, "duration": 3, "velocity": 94}, {"time": 450, "pitch": 59, "duration": 7, "velocity": 108}, {"time": 450, "pitch": 63, "duration": 11, "velocity": 97}, {"time": 456, "pitch": 54, "duration": 4, "velocity": 105}, {"time": 462, "pitch": 42, "duration": 19, "velocity": 92}, {"time": 462, "pitch": 54, "duration": 10, "velocity": 87}, {"time": 462, "pitch": 58, "duration": 6, "velocity": 89}, {"time": 468, "pitch": 49, "duration": 8, "velocity": 37}, {"time": 474, "pitch": 54, "duration": 7, "velocity": 105}, {"time": 474, "pitch": 61, "duration": 7, "velocity": 97}, {"time": 480, "pitch": 49, "duration": 6, "velocity": 108}, {"time": 486, "pitch": 40, "duration": 15, "velocity": 89}, {"time": 486, "pitch": 52, "duration": 10, "velocity": 78}, {"time": 486, "pitch": 56, "duration": 7, "velocity": 92}, {"time": 492, "pitch": 47, "duration": 8, "velocity": 34}, {"time": 498, "pitch": 52, "duration": 5, "velocity": 92}, {"time": 498, "pitch": 56, "duration": 6, "velocity": 120}, {"time": 498, "pitch": 59, "duration": 8, "velocity": 105}, {"time": 504, "pitch": 40, "duration": 5, "velocity": 92}, {"time": 510, "pitch": 42, "duration": 19, "velocity": 100}, {"time": 510, "pitch": 54, "duration": 8, "velocity": 80}, {"time": 510, "pitch": 58, "duration": 7, "velocity": 89}, {"time": 516, "pitch": 49, "duration": 8, "velocity": 41}, {"time": 522, "pitch": 54, "duration": 4, "velocity": 94}, {"time": 522, "pitch": 58, "duration": 4, "velocity": 111}, {"time": 522, "pitch": 61, "duration": 5, "velocity": 94}, {"time": 525, "pitch": 49, "duration": 7, "velocity": 80}, {"time": 528, "pitch": 54, "duration": 4, "velocity": 105}, {"time": 531, "pitch": 58, "duration": 2, "velocity": 97}, {"time": 534, "pitch": 44, "duration": 21, "velocity": 100}, {"time": 534, "pitch": 56, "duration": 7, "velocity": 92}, {"time": 534, "pitch": 59, "duration": 6, "velocity": 102}, {"time": 540, "pitch": 51, "duration": 7, "velocity": 37}, {"time": 546, "pitch": 56, "duration": 7, "velocity": 97}, {"time": 546, "pitch": 59, "duration": 8, "velocity": 108}, {"time": 546, "pitch": 63, "duration": 11, "velocity": 97}, {"time": 552, "pitch": 51, "duration": 6, "velocity": 92}, {"time": 558, "pitch": 54, "duration": 4, "velocity": 94}, {"time": 558, "pitch": 58, "duration": 7, "velocity": 102}, {"time": 564, "pitch": 54, "duration": 5, "velocity": 73}, {"time": 570, "pitch": 54, "duration": 3, "velocity": 89}, {"time": 570, "pitch": 58, "duration": 7, "velocity": 105}, {"time": 570, "pitch": 63, "duration": 9, "velocity": 105}, {"time": 576, "pitch": 54, "duration": 2, "velocity": 94}, {"time": 582, "pitch": 49, "duration": 18, "velocity": 84}, {"time": 582, "pitch": 56, "duration": 3, "velocity": 97}, {"time": 582, "pitch": 61, "duration": 8, "velocity": 97}, {"time": 588, "pitch": 56, "duration": 4, "velocity": 69}, {"time": 594, "pitch": 56, "duration": 3, "velocity": 108}, {"time": 594, "pitch": 61, "duration": 7, "velocity": 108}, {"time": 594, "pitch": 64, "duration": 9, "velocity": 94}, {"time": 600, "pitch": 56, "duration": 2, "velocity": 105}, {"time": 606, "pitch": 42, "duration": 20, "velocity": 102}, {"time": 606, "pitch": 54, "duration": 6, "velocity": 84}, {"time": 606, "pitch": 58, "duration": 7, "velocity": 92}, {"time": 606, "pitch": 61, "duration": 7, "velocity": 87}, {"time": 612, "pitch": 49, "duration": 8, "velocity": 66}, {"time": 615, "pitch": 54, "duration": 2, "velocity": 82}, {"time": 618, "pitch": 54, "duration": 10, "velocity": 94}, {"time": 618, "pitch": 58, "duration": 10, "velocity": 108}, {"time": 618, "pitch": 61, "duration": 10, "velocity": 97}, {"time": 624, "pitch": 49, "duration": 5, "velocity": 64}, {"time": 630, "pitch": 47, "duration": 22, "velocity": 92}, {"time": 630, "pitch": 54, "duration": 4, "velocity": 80}, {"time": 630, "pitch": 59, "duration": 7, "velocity": 94}, {"time": 630, "pitch": 63, "duration": 7, "velocity": 92}, {"time": 636, "pitch": 54, "duration": 3, "velocity": 46}, {"time": 642, "pitch": 54, "duration": 3, "velocity": 97}, {"time": 642, "pitch": 63, "duration": 10, "velocity": 92}, {"time": 648, "pitch": 54, "duration": 4, "velocity": 108}, {"time": 654, "pitch": 42, "duration": 19, "velocity": 100}, {"time": 654, "pitch": 54, "duration": 7, "velocity": 89}, {"time": 654, "pitch": 61, "duration": 7, "velocity": 84}, {"time": 660, "pitch": 49, "duration": 16, "velocity": 49}, {"time": 666, "pitch": 54, "duration": 5, "velocity": 105}, {"time": 666, "pitch": 61, "duration": 5, "velocity": 100}, {"time": 672, "pitch": 58, "duration": 5, "velocity": 111}, {"time": 678, "pitch": 44, "duration": 20, "velocity": 97}, {"time": 678, "pitch": 56, "duration": 9, "velocity": 92}, {"time": 678, "pitch": 59, "duration": 5, "velocity": 97}, {"time": 684, "pitch": 51, "duration": 7, "velocity": 55}, {"time": 690, "pitch": 56, "duration": 4, "velocity": 89}, {"time": 690, "pitch": 59, "duration": 4, "velocity": 100}, {"time": 690, "pitch": 63, "duration": 4, "velocity": 94}, {"time": 693, "pitch": 51, "duration": 8, "velocity": 78}, {"time": 696, "pitch": 56, "duration": 3, "velocity": 108}, {"time": 702, "pitch": 51, "duration": 16, "velocity": 102}, {"time": 702, "pitch": 58, "duration": 3, "velocity": 94}, {"time": 702, "pitch": 63, "duration": 8, "velocity": 92}, {"time": 708, "pitch": 58, "duration": 4, "velocity": 82}, {"time": 714, "pitch": 58, "duration": 2, "velocity": 102}, {"time": 714, "pitch": 63, "duration": 4, "velocity": 108}, {"time": 714, "pitch": 66, "duration": 5, "velocity": 100}, {"time": 717, "pitch": 58, "duration": 4, "velocity": 94}, {"time": 720, "pitch": 63, "duration": 3, "velocity": 87}, {"time": 726, "pitch": 40, "duration": 15, "velocity": 94}, {"time": 726, "pitch": 56, "duration": 9, "velocity": 97}, {"time": 726, "pitch": 59, "duration": 9, "velocity": 100}, {"time": 732, "pitch": 47, "duration": 9, "velocity": 60}, {"time": 738, "pitch": 56, "duration": 4, "velocity": 97}, {"time": 738, "pitch": 59, "duration": 6, "velocity": 105}, {"time": 738, "pitch": 64, "duration": 7, "velocity": 97}, {"time": 744, "pitch": 40, "duration": 2, "velocity": 92}, {"time": 750, "pitch": 37, "duration": 11, "velocity": 78}, {"time": 750, "pitch": 49, "duration": 15, "velocity": 67}, {"time": 750, "pitch": 56, "duration": 4, "velocity": 89}, {"time": 750, "pitch": 61, "duration": 8, "velocity": 84}, {"time": 756, "pitch": 56, "duration": 5, "velocity": 94}, {"time": 762, "pitch": 56, "duration": 3, "velocity": 105}, {"time": 762, "pitch": 61, "duration": 8, "velocity": 105}, {"time": 762, "pitch": 64, "duration": 10, "velocity": 97}, {"time": 768, "pitch": 49, "duration": 4, "velocity": 78}, {"time": 771, "pitch": 56, "duration": 2, "velocity": 94}, {"time": 774, "pitch": 40, "duration": 16, "velocity": 102}, {"time": 774, "pitch": 52, "duration": 9, "velocity": 80}, {"time": 774, "pitch": 56, "duration": 7, "velocity": 97}, {"time": 780, "pitch": 47, "duration": 6, "velocity": 55}, {"time": 786, "pitch": 52, "duration": 4, "velocity": 105}, {"time": 786, "pitch": 59, "duration": 5, "velocity": 97}, {"time": 789, "pitch": 47, "duration": 6, "velocity": 100}, {"time": 792, "pitch": 52, "duration": 4, "velocity": 102}, {"time": 795, "pitch": 56, "duration": 2, "velocity": 102}, {"time": 798, "pitch": 42, "duration": 15, "velocity": 100}, {"time": 798, "pitch": 54, "duration": 10, "velocity": 89}, {"time": 798, "pitch": 56, "duration": 3, "velocity": 92}, {"time": 804, "pitch": 49, "duration": 8, "velocity": 80}, {"time": 810, "pitch": 54, "duration": 9, "velocity": 108}, {"time": 810, "pitch": 58, "duration": 8, "velocity": 117}, {"time": 816, "pitch": 49, "duration": 5, "velocity": 84}, {"time": 822, "pitch": 47, "duration": 14, "velocity": 89}, {"time": 822, "pitch": 54, "duration": 4, "velocity": 80}, {"time": 822, "pitch": 59, "duration": 7, "velocity": 82}, {"time": 822, "pitch": 63, "duration": 8, "velocity": 92}, {"time": 828, "pitch": 54, "duration": 4, "velocity": 78}, {"time": 834, "pitch": 54, "duration": 3, "velocity": 102}, {"time": 834, "pitch": 63, "duration": 9, "velocity": 89}, {"time": 837, "pitch": 47, "duration": 3, "velocity": 97}, {"time": 840, "pitch": 54, "duration": 5, "velocity": 100}, {"time": 846, "pitch": 42, "duration": 16, "velocity": 102}, {"time": 846, "pitch": 54, "duration": 9, "velocity": 87}, {"time": 846, "pitch": 58, "duration": 8, "velocity": 89}, {"time": 852, "pitch": 49, "duration": 7, "velocity": 55}, {"time": 858, "pitch": 54, "duration": 4, "velocity": 100}, {"time": 858, "pitch": 58, "duration": 6, "velocity": 111}, {"time": 858, "pitch": 61, "duration": 9, "velocity": 97}, {"time": 861, "pitch": 49, "duration": 8, "velocity": 87}, {"time": 864, "pitch": 54, "duration": 4, "velocity": 84}, {"time": 870, "pitch": 44, "duration": 21, "velocity": 97}, {"time": 870, "pitch": 56, "duration": 7, "velocity": 97}, {"time": 870, "pitch": 59, "duration": 6, "velocity": 97}, {"time": 876, "pitch": 51, "duration": 7, "velocity": 57}, {"time": 879, "pitch": 56, "duration": 2, "velocity": 89}, {"time": 882, "pitch": 56, "duration": 4, "velocity": 111}, {"time": 882, "pitch": 63, "duration": 4, "velocity": 100}, {"time": 885, "pitch": 51, "duration": 7, "velocity": 94}, {"time": 888, "pitch": 56, "duration": 3, "velocity": 97}, {"time": 888, "pitch": 61, "duration": 4, "velocity": 97}, {"time": 891, "pitch": 59, "duration": 2, "velocity": 73}, {"time": 894, "pitch": 51, "duration": 16, "velocity": 100}, {"time": 894, "pitch": 58, "duration": 4, "velocity": 87}, {"time": 894, "pitch": 63, "duration": 7, "velocity": 76}, {"time": 900, "pitch": 58, "duration": 4, "velocity": 84}, {"time": 906, "pitch": 58, "duration": 3, "velocity": 108}, {"time": 906, "pitch": 63, "duration": 7, "velocity": 105}, {"time": 906, "pitch": 66, "duration": 8, "velocity": 100}, {"time": 912, "pitch": 58, "duration": 2, "velocity": 97}, {"time": 918, "pitch": 40, "duration": 12, "velocity": 84}, {"time": 918, "pitch": 59, "duration": 4, "velocity": 92}, {"time": 918, "pitch": 64, "duration": 7, "velocity": 76}, {"time": 924, "pitch": 59, "duration": 4, "velocity": 97}, {"time": 930, "pitch": 59, "duration": 3, "velocity": 102}, {"time": 930, "pitch": 64, "duration": 9, "velocity": 102}, {"time": 930, "pitch": 68, "duration": 10, "velocity": 100}, {"time": 936, "pitch": 59, "duration": 3, "velocity": 82}, {"time": 942, "pitch": 51, "duration": 17, "velocity": 80}, {"time": 942, "pitch": 63, "duration": 4, "velocity": 84}, {"time": 942, "pitch": 66, "duration": 11, "velocity": 82}, {"time": 948, "pitch": 63, "duration": 5, "velocity": 67}, {"time": 954, "pitch": 63, "duration": 4, "velocity": 108}, {"time": 954, "pitch": 66, "duration": 8, "velocity": 108}, {"time": 954, "pitch": 70, "duration": 8, "velocity": 100}, {"time": 960, "pitch": 63, "duration": 3, "velocity": 67}, {"time": 966, "pitch": 49, "duration": 16, "velocity": 97}, {"time": 966, "pitch": 61, "duration": 7, "velocity": 80}, {"time": 966, "pitch": 64, "duration": 10, "velocity": 87}, {"time": 972, "pitch": 56, "duration": 4, "velocity": 66}, {"time": 975, "pitch": 59, "duration": 6, "velocity": 114}, {"time": 978, "pitch": 56, "duration": 4, "velocity": 100}, {"time": 981, "pitch": 64, "duration": 4, "velocity": 114}, {"time": 984, "pitch": 61, "duration": 4, "velocity": 69}, {"time": 987, "pitch": 64, "duration": 1, "velocity": 78}, {"time": 990, "pitch": 42, "duration": 17, "velocity": 94}, {"time": 990, "pitch": 54, "duration": 4, "velocity": 82}, {"time": 990, "pitch": 58, "duration": 6, "velocity": 102}, {"time": 993, "pitch": 49, "duration": 7, "velocity": 58}, {"time": 996, "pitch": 54, "duration": 8, "velocity": 62}, {"time": 999, "pitch": 61, "duration": 6, "velocity": 100}, {"time": 1002, "pitch": 49, "duration": 5, "velocity": 80}, {"time": 1005, "pitch": 66, "duration": 7, "velocity": 111}, {"time": 1008, "pitch": 54, "duration": 3, "velocity": 92}, {"time": 1014, "pitch": 47, "duration": 22, "velocity": 92}, {"time": 1014, "pitch": 54, "duration": 4, "velocity": 92}, {"time": 1014, "pitch": 59, "duration": 10, "velocity": 92}, {"time": 1020, "pitch": 54, "duration": 5, "velocity": 40}, {"time": 1026, "pitch": 54, "duration": 3, "velocity": 94}, {"time": 1026, "pitch": 61, "duration": 4, "velocity": 89}, {"time": 1029, "pitch": 59, "duration": 4, "velocity": 80}, {"time": 1032, "pitch": 54, "duration": 4, "velocity": 82}, {"time": 1038, "pitch": 47, "duration": 15, "velocity": 89}, {"time": 1038, "pitch": 54, "duration": 4, "velocity": 73}, {"time": 1038, "pitch": 59, "duration": 10, "velocity": 69}, {"time": 1038, "pitch": 63, "duration": 10, "velocity": 80}, {"time": 1044, "pitch": 54, "duration": 5, "velocity": 46}, {"time": 1050, "pitch": 54, "duration": 10, "velocity": 64}, {"time": 1050, "pitch": 59, "duration": 10, "velocity": 73}, {"time": 1050, "pitch": 63, "duration": 10, "velocity": 69}, {"time": 1062, "pitch": 47, "duration": 42, "velocity": 97}, {"time": 1062, "pitch": 59, "duration": 4, "velocity": 73}, {"time": 1062, "pitch": 63, "duration": 7, "velocity": 78}, {"time": 1065, "pitch": 54, "duration": 25, "velocity": 78}, {"time": 1068, "pitch": 59, "duration": 28, "velocity": 92}, {"time": 1071, "pitch": 63, "duration": 28, "velocity": 102}, {"time": 1071, "pitch": 66, "duration": 29, "velocity": 97}, {"time": 1095, "pitch": 54, "duration": 8, "velocity": 52}, {"time": 1098, "pitch": 59, "duration": 6, "velocity": 82}, {"time": 1101, "pitch": 63, "duration": 3, "velocity": 97}, {"time": 1110, "pitch": 44, "duration": 16, "velocity": 92}, {"time": 1110, "pitch": 56, "duration": 7, "velocity": 78}, {"time": 1110, "pitch": 59, "duration": 10, "velocity": 92}, {"time": 1116, "pitch": 51, "duration": 7, "velocity": 23}, {"time": 1119, "pitch": 56, "duration": 7, "velocity": 82}, {"time": 1122, "pitch": 59, "duration": 3, "velocity": 73}, {"time": 1125, "pitch": 63, "duration": 2, "velocity": 100}, {"time": 1134, "pitch": 40, "duration": 17, "velocity": 89}, {"time": 1134, "pitch": 52, "duration": 15, "velocity": 67}, {"time": 1134, "pitch": 56, "duration": 15, "velocity": 73}, {"time": 1134, "pitch": 59, "duration": 16, "velocity": 82}, {"time": 1158, "pitch": 44, "duration": 22, "velocity": 84}, {"time": 1158, "pitch": 56, "duration": 4, "velocity": 40}, {"time": 1158, "pitch": 59, "duration": 7, "velocity": 78}, {"time": 1161, "pitch": 51, "duration": 7, "velocity": 58}, {"time": 1164, "pitch": 56, "duration": 2, "velocity": 105}, {"time": 1167, "pitch": 56, "duration": 9, "velocity": 94}, {"time": 1167, "pitch": 59, "duration": 13, "velocity": 97}, {"time": 1167, "pitch": 63, "duration": 13, "velocity": 100}, {"time": 1176, "pitch": 51, "duration": 5, "velocity": 73}, {"time": 1179, "pitch": 56, "duration": 2, "velocity": 82}, {"time": 1182, "pitch": 42, "duration": 13, "velocity": 92}, {"time": 1182, "pitch": 54, "duration": 4, "velocity": 84}, {"time": 1182, "pitch": 58, "duration": 8, "velocity": 89}, {"time": 1185, "pitch": 51, "duration": 8, "velocity": 58}, {"time": 1188, "pitch": 54, "duration": 8, "velocity": 84}, {"time": 1191, "pitch": 58, "duration": 7, "velocity": 105}, {"time": 1191, "pitch": 63, "duration": 10, "velocity": 100}, {"time": 1194, "pitch": 51, "duration": 7, "velocity": 89}, {"time": 1197, "pitch": 54, "duration": 4, "velocity": 92}, {"time": 1200, "pitch": 58, "duration": 2, "velocity": 87}, {"time": 1206, "pitch": 40, "duration": 1, "velocity": 97}, {"time": 1206, "pitch": 52, "duration": 5, "velocity": 78}, {"time": 1206, "pitch": 56, "duration": 6, "velocity": 89}, {"time": 1212, "pitch": 52, "duration": 16, "velocity": 87}, {"time": 1215, "pitch": 59, "duration": 7, "velocity": 87}, {"time": 1218, "pitch": 64, "duration": 3, "velocity": 111}, {"time": 1221, "pitch": 64, "duration": 1, "velocity": 23}, {"time": 1221, "pitch": 71, "duration": 8, "velocity": 102}, {"time": 1224, "pitch": 59, "duration": 4, "velocity": 73}, {"time": 1227, "pitch": 64, "duration": 2, "velocity": 76}, {"time": 1230, "pitch": 52, "duration": 12, "velocity": 89}, {"time": 1230, "pitch": 59, "duration": 12, "velocity": 89}, {"time": 1230, "pitch": 64, "duration": 10, "velocity": 78}, {"time": 1230, "pitch": 68, "duration": 10, "velocity": 84}, {"time": 1242, "pitch": 52, "duration": 2, "velocity": 111}, {"time": 1242, "pitch": 56, "duration": 2, "velocity": 84}, {"time": 1242, "pitch": 64, "duration": 2, "velocity": 92}, {"time": 1245, "pitch": 51, "duration": 2, "velocity": 89}, {"time": 1245, "pitch": 54, "duration": 2, "velocity": 82}, {"time": 1245, "pitch": 63, "duration": 2, "velocity": 89}, {"time": 1248, "pitch": 49, "duration": 5, "velocity": 94}, {"time": 1248, "pitch": 52, "duration": 5, "velocity": 92}, {"time": 1248, "pitch": 61, "duration": 5, "velocity": 94}, {"time": 1254, "pitch": 47, "duration": 23, "velocity": 80}, {"time": 1254, "pitch": 54, "duration": 4, "velocity": 73}, {"time": 1254, "pitch": 59, "duration": 7, "velocity": 84}, {"time": 1260, "pitch": 54, "duration": 5, "velocity": 87}, {"time": 1266, "pitch": 54, "duration": 3, "velocity": 94}, {"time": 1266, "pitch": 59, "duration": 7, "velocity": 108}, {"time": 1266, "pitch": 63, "duration": 11, "velocity": 97}, {"time": 1272, "pitch": 54, "duration": 4, "velocity": 105}, {"time": 1278, "pitch": 42, "duration": 19, "velocity": 92}, {"time": 1278, "pitch": 54, "duration": 10, "velocity": 87}, {"time": 1278, "pitch": 58, "duration": 6, "velocity": 89}, {"time": 1284, "pitch": 49, "duration": 8, "velocity": 37}, {"time": 1290, "pitch": 54, "duration": 7, "velocity": 105}, {"time": 1290, "pitch": 61, "duration": 7, "velocity": 97}, {"time": 1296, "pitch": 49, "duration": 6, "velocity": 108}, {"time": 1302, "pitch": 40, "duration": 15, "velocity": 89}, {"time": 1302, "pitch": 52, "duration": 10, "velocity": 78}, {"time": 1302, "pitch": 56, "duration": 7, "velocity": 92}, {"time": 1308, "pitch": 47, "duration": 8, "velocity": 34}, {"time": 1314, "pitch": 52, "duration": 5, "velocity": 92}, {"time": 1314, "pitch": 56, "duration": 6, "velocity": 120}, {"time": 1314, "pitch": 59, "duration": 8, "velocity": 105}, {"time": 1320, "pitch": 40, "duration": 5, "velocity": 92}, {"time": 1326, "pitch": 42, "duration": 19, "velocity": 100}, {"time": 1326, "pitch": 54, "duration": 8, "velocity": 80}, {"time": 1326, "pitch": 58, "duration": 7, "velocity": 89}, {"time": 1332, "pitch": 49, "duration": 8, "velocity": 41}, {"time": 1338, "pitch": 54, "duration": 4, "velocity": 94}, {"time": 1338, "pitch": 58, "duration": 4, "velocity": 111}, {"time": 1338, "pitch": 61, "duration": 5, "velocity": 94}, {"time": 1341, "pitch": 49, "duration": 7, "velocity": 80}, {"time": 1344, "pitch": 54, "duration": 4, "velocity": 105}, {"time": 1347, "pitch": 58, "duration": 2, "velocity": 97}, {"time": 1350, "pitch": 44, "duration": 21, "velocity": 100}, {"time": 1350, "pitch": 56, "duration": 7, "velocity": 92}, {"time": 1350, "pitch": 59, "duration": 6, "velocity": 102}, {"time": 1356, "pitch": 51, "duration": 7, "velocity": 37}, {"time": 1362, "pitch": 56, "duration": 7, "velocity": 97}, {"time": 1362, "pitch": 59, "duration": 8, "velocity": 108}, {"time": 1362, "pitch": 63, "duration": 11, "velocity": 97}, {"time": 1368, "pitch": 51, "duration": 6, "velocity": 92}, {"time": 1374, "pitch": 54, "duration": 4, "velocity": 94}, {"time": 1374, "pitch": 58, "duration": 7, "velocity": 102}, {"time": 1380, "pitch": 54, "duration": 5, "velocity": 73}, {"time": 1386, "pitch": 54, "duration": 3, "velocity": 89}, {"time": 1386, "pitch": 58, "duration": 7, "velocity": 105}, {"time": 1386, "pitch": 63, "duration": 9, "velocity": 105}, {"time": 1392, "pitch": 54, "duration": 2, "velocity": 94}, {"time": 1398, "pitch": 49, "duration": 18, "velocity": 84}, {"time": 1398, "pitch": 56, "duration": 3, "velocity": 97}, {"time": 1398, "pitch": 61, "duration": 8, "velocity": 97}, {"time": 1404, "pitch": 56, "duration": 4, "velocity": 69}, {"time": 1410, "pitch": 56, "duration": 3, "velocity": 108}, {"time": 1410, "pitch": 61, "duration": 7, "velocity": 108}, {"time": 1410, "pitch": 64, "duration": 9, "velocity": 94}, {"time": 1416, "pitch": 56, "duration": 2, "velocity": 105}, {"time": 1422, "pitch": 42, "duration": 20, "velocity": 102}, {"time": 1422, "pitch": 54, "duration": 6, "velocity": 84}, {"time": 1422, "pitch": 58, "duration": 7, "velocity": 92}, {"time": 1422, "pitch": 61, "duration": 7, "velocity": 87}, {"time": 1428, "pitch": 49, "duration": 8, "velocity": 66}, {"time": 1431, "pitch": 54, "duration": 2, "velocity": 82}, {"time": 1434, "pitch": 54, "duration": 10, "velocity": 94}, {"time": 1434, "pitch": 58, "duration": 10, "velocity": 108}, {"time": 1434, "pitch": 61, "duration": 10, "velocity": 97}, {"time": 1440, "pitch": 49, "duration": 5, "velocity": 64}, {"time": 1446, "pitch": 47, "duration": 22, "velocity": 92}, {"time": 1446, "pitch": 54, "duration": 4, "velocity": 80}, {"time": 1446, "pitch": 59, "duration": 7, "velocity": 94}, {"time": 1446, "pitch": 63, "duration": 7, "velocity": 92}, {"time": 1452, "pitch": 54, "duration": 3, "velocity": 46}, {"time": 1458, "pitch": 54, "duration": 3, "velocity": 97}, {"time": 1458, "pitch": 63, "duration": 10, "velocity": 92}, {"time": 1464, "pitch": 54, "duration": 4, "velocity": 108}, {"time": 1470, "pitch": 42, "duration": 19, "velocity": 100}, {"time": 1470, "pitch": 54, "duration": 7, "velocity": 89}, {"time": 1470, "pitch": 61, "duration": 7, "velocity": 84}, {"time": 1476, "pitch": 49, "duration": 16, "velocity": 49}, {"time": 1482, "pitch": 54, "duration": 5, "velocity": 105}, {"time": 1482, "pitch": 61, "duration": 5, "velocity": 100}, {"time": 1488, "pitch": 58, "duration": 5, "velocity": 111}, {"time": 1494, "pitch": 44, "duration": 20, "velocity": 97}, {"time": 1494, "pitch": 56, "duration": 9, "velocity": 92}, {"time": 1494, "pitch": 59, "duration": 5, "velocity": 97}, {"time": 1500, "pitch": 51, "duration": 7, "velocity": 55}, {"time": 1506, "pitch": 56, "duration": 4, "velocity": 89}, {"time": 1506, "pitch": 59, "duration": 4, "velocity": 100}, {"time": 1506, "pitch": 63, "duration": 4, "velocity": 94}, {"time": 1509, "pitch": 51, "duration": 8, "velocity": 78}, {"time": 1512, "pitch": 56, "duration": 3, "velocity": 108}, {"time": 1518, "pitch": 51, "duration": 16, "velocity": 102}, {"time": 1518, "pitch": 58, "duration": 3, "velocity": 94}, {"time": 1518, "pitch": 63, "duration": 8, "velocity": 92}, {"time": 1524, "pitch": 58, "duration": 4, "velocity": 82}, {"time": 1530, "pitch": 58, "duration": 2, "velocity": 102}, {"time": 1530, "pitch": 63, "duration": 4, "velocity": 108}, {"time": 1530, "pitch": 66, "duration": 5, "velocity": 100}, {"time": 1533, "pitch": 58, "duration": 4, "velocity": 94}, {"time": 1536, "pitch": 63, "duration": 3, "velocity": 87}, {"time": 1542, "pitch": 40, "duration": 15, "velocity": 94}, {"time": 1542, "pitch": 56, "duration": 9, "velocity": 97}, {"time": 1542, "pitch": 59, "duration": 9, "velocity": 100}, {"time": 1548, "pitch": 47, "duration": 9, "velocity": 60}, {"time": 1554, "pitch": 56, "duration": 4, "velocity": 97}, {"time": 1554, "pitch": 59, "duration": 6, "velocity": 105}, {"time": 1554, "pitch": 64, "duration": 7, "velocity": 97}, {"time": 1560, "pitch": 40, "duration": 2, "velocity": 92}, {"time": 1566, "pitch": 37, "duration": 11, "velocity": 78}, {"time": 1566, "pitch": 49, "duration": 15, "velocity": 67}, {"time": 1566, "pitch": 56, "duration": 4, "velocity": 89}, {"time": 1566, "pitch": 61, "duration": 8, "velocity": 84}, {"time": 1572, "pitch": 56, "duration": 5, "velocity": 94}, {"time": 1578, "pitch": 56, "duration": 3, "velocity": 105}, {"time": 1578, "pitch": 61, "duration": 8, "velocity": 105}, {"time": 1578, "pitch": 64, "duration": 10, "velocity": 97}, {"time": 1584, "pitch": 49, "duration": 4, "velocity": 78}, {"time": 1587, "pitch": 56, "duration": 2, "velocity": 94}, {"time": 1590, "pitch": 40, "duration": 16, "velocity": 102}, {"time": 1590, "pitch": 52, "duration": 9, "velocity": 80}, {"time": 1590, "pitch": 56, "duration": 7, "velocity": 97}, {"time": 1596, "pitch": 47, "duration": 6, "velocity": 55}, {"time": 1602, "pitch": 52, "duration": 4, "velocity": 105}, {"time": 1602, "pitch": 59, "duration": 5, "velocity": 97}, {"time": 1605, "pitch": 47, "duration": 6, "velocity": 100}, {"time": 1608, "pitch": 52, "duration": 4, "velocity": 102}, {"time": 1611, "pitch": 56, "duration": 2, "velocity": 102}, {"time": 1614, "pitch": 42, "duration": 15, "velocity": 100}, {"time": 1614, "pitch": 54, "duration": 10, "velocity": 89}, {"time": 1614, "pitch": 56, "duration": 3, "velocity": 92}, {"time": 1620, "pitch": 49, "duration": 8, "velocity": 80}, {"time": 1626, "pitch": 54, "duration": 9, "velocity": 108}, {"time": 1626, "pitch": 58, "duration": 8, "velocity": 117}, {"time": 1632, "pitch": 49, "duration": 5, "velocity": 84}, {"time": 1638, "pitch": 47, "duration": 14, "velocity": 89}, {"time": 1638, "pitch": 54, "duration": 4, "velocity": 80}, {"time": 1638, "pitch": 59, "duration": 7, "velocity": 82}, {"time": 1638, "pitch": 63, "duration": 8, "velocity": 92}, {"time": 1644, "pitch": 54, "duration": 4, "velocity": 78}, {"time": 1650, "pitch": 54, "duration": 3, "velocity": 102}, {"time": 1650, "pitch": 63, "duration": 9, "velocity": 89}, {"time": 1653, "pitch": 47, "duration": 3, "velocity": 97}, {"time": 1656, "pitch": 54, "duration": 5, "velocity": 100}, {"time": 1662, "pitch": 42, "duration": 16, "velocity": 102}, {"time": 1662, "pitch": 54, "duration": 9, "velocity": 87}, {"time": 1662, "pitch": 58, "duration": 8, "velocity": 89}, {"time": 1668, "pitch": 49, "duration": 7, "velocity": 55}, {"time": 1674, "pitch": 54, "duration": 4, "velocity": 100}, {"time": 1674, "pitch": 58, "duration": 6, "velocity": 111}, {"time": 1674, "pitch": 61, "duration": 9, "velocity": 97}, {"time": 1677, "pitch": 49, "duration": 8, "velocity": 87}, {"time": 1680, "pitch": 54, "duration": 4, "velocity": 84}, {"time": 1686, "pitch": 44, "duration": 21, "velocity": 97}, {"time": 1686, "pitch": 56, "duration": 7, "velocity": 97}, {"time": 1686, "pitch": 59, "duration": 6, "velocity": 97}, {"time": 1692, "pitch": 51, "duration": 7, "velocity": 57}, {"time": 1695, "pitch": 56, "duration": 2, "velocity": 89}, {"time": 1698, "pitch": 56, "duration": 4, "velocity": 111}, {"time": 1698, "pitch": 63, "duration": 4, "velocity": 100}, {"time": 1701, "pitch": 51, "duration": 7, "velocity": 94}, {"time": 1704, "pitch": 56, "duration": 3, "velocity": 97}, {"time": 1704, "pitch": 61, "duration": 4, "velocity": 97}, {"time": 1707, "pitch": 59, "duration": 2, "velocity": 73}, {"time": 1710, "pitch": 51, "duration": 16, "velocity": 100}, {"time": 1710, "pitch": 58, "duration": 4, "velocity": 87}, {"time": 1710, "pitch": 63, "duration": 7, "velocity": 76}, {"time": 1716, "pitch": 58, "duration": 4, "velocity": 84}, {"time": 1722, "pitch": 58, "duration": 3, "velocity": 108}, {"time": 1722, "pitch": 63, "duration": 7, "velocity": 105}, {"time": 1722, "pitch": 66, "duration": 8, "velocity": 100}, {"time": 1728, "pitch": 58, "duration": 2, "velocity": 97}, {"time": 1734, "pitch": 40, "duration": 12, "velocity": 84}, {"time": 1734, "pitch": 59, "duration": 4, "velocity": 92}, {"time": 1734, "pitch": 64, "duration": 7, "velocity": 76}, {"time": 1740, "pitch": 59, "duration": 4, "velocity": 97}, {"time": 1746, "pitch": 59, "duration": 3, "velocity": 102}, {"time": 1746, "pitch": 64, "duration": 9, "velocity": 102}, {"time": 1746, "pitch": 68, "duration": 10, "velocity": 100}, {"time": 1752, "pitch": 59, "duration": 3, "velocity": 82}, {"time": 1758, "pitch": 51, "duration": 17, "velocity": 80}, {"time": 1758, "pitch": 63, "duration": 4, "velocity": 84}, {"time": 1758, "pitch": 66, "duration": 11, "velocity": 82}, {"time": 1764, "pitch": 63, "duration": 5, "velocity": 67}, {"time": 1770, "pitch": 63, "duration": 4, "velocity": 108}, {"time": 1770, "pitch": 66, "duration": 8, "velocity": 108}, {"time": 1770, "pitch": 70, "duration": 8, "velocity": 100}, {"time": 1776, "pitch": 63, "duration": 3, "velocity": 67}, {"time": 1782, "pitch": 49, "duration": 16, "velocity": 97}, {"time": 1782, "pitch": 61, "duration": 7, "velocity": 80}, {"time": 1782, "pitch": 64, "duration": 10, "velocity": 87}, {"time": 1788, "pitch": 56, "duration": 4, "velocity": 66}, {"time": 1791, "pitch": 59, "duration": 6, "velocity": 114}, {"time": 1794, "pitch": 56, "duration": 4, "velocity": 100}, {"time": 1797, "pitch": 64, "duration": 4, "velocity": 114}, {"time": 1800, "pitch": 61, "duration": 4, "velocity": 69}, {"time": 1803, "pitch": 64, "duration": 1, "velocity": 78}, {"time": 1806, "pitch": 42, "duration": 17, "velocity": 94}, {"time": 1806, "pitch": 54, "duration": 4, "velocity": 82}, {"time": 1806, "pitch": 58, "duration": 6, "velocity": 102}, {"time": 1809, "pitch": 49, "duration": 7, "velocity": 58}, {"time": 1812, "pitch": 54, "duration": 8, "velocity": 62}, {"time": 1815, "pitch": 61, "duration": 6, "velocity": 100}, {"time": 1818, "pitch": 49, "duration": 5, "velocity": 80}, {"time": 1821, "pitch": 66, "duration": 7, "velocity": 111}, {"time": 1824, "pitch": 54, "duration": 3, "velocity": 92}, {"time": 1830, "pitch": 47, "duration": 22, "velocity": 92}, {"time": 1830, "pitch": 54, "duration": 4, "velocity": 92}, {"time": 1830, "pitch": 59, "duration": 10, "velocity": 92}, {"time": 1836, "pitch": 54, "duration": 5, "velocity": 40}, {"time": 1842, "pitch": 54, "duration": 3, "velocity": 94}, {"time": 1842, "pitch": 61, "duration": 4, "velocity": 89}, {"time": 1845, "pitch": 59, "duration": 4, "velocity": 80}, {"time": 1848, "pitch": 54, "duration": 4, "velocity": 82}, {"time": 1854, "pitch": 47, "duration": 15, "velocity": 89}, {"time": 1854, "pitch": 54, "duration": 4, "velocity": 73}, {"time": 1854, "pitch": 59, "duration": 10, "velocity": 69}, {"time": 1854, "pitch": 63, "duration": 10, "velocity": 80}, {"time": 1860, "pitch": 54, "duration": 5, "velocity": 46}, {"time": 1866, "pitch": 54, "duration": 10, "velocity": 64}, {"time": 1866, "pitch": 59, "duration": 10, "velocity": 73}, {"time": 1866, "pitch": 63, "duration": 10, "velocity": 69}, {"time": 1878, "pitch": 40, "duration": 2, "velocity": 97}, {"time": 1878, "pitch": 59, "duration": 6, "velocity": 97}, {"time": 1878, "pitch": 64, "duration": 10, "velocity": 100}, {"time": 1878, "pitch": 68, "duration": 11, "velocity": 94}, {"time": 1884, "pitch": 52, "duration": 16, "velocity": 84}, {"time": 1887, "pitch": 59, "duration": 7, "velocity": 111}, {"time": 1890, "pitch": 64, "duration": 3, "velocity": 108}, {"time": 1893, "pitch": 68, "duration": 3, "velocity": 117}, {"time": 1899, "pitch": 64, "duration": 2, "velocity": 84}, {"time": 1902, "pitch": 52, "duration": 5, "velocity": 92}, {"time": 1902, "pitch": 59, "duration": 4, "velocity": 89}, {"time": 1902, "pitch": 64, "duration": 3, "velocity": 100}, {"time": 1902, "pitch": 68, "duration": 5, "velocity": 100}, {"time": 1908, "pitch": 64, "duration": 1, "velocity": 92}, {"time": 1911, "pitch": 64, "duration": 2, "velocity": 105}, {"time": 1911, "pitch": 68, "duration": 2, "velocity": 108}, {"time": 1914, "pitch": 42, "duration": 1, "velocity": 76}, {"time": 1917, "pitch": 42, "duration": 6, "velocity": 105}, {"time": 1917, "pitch": 54, "duration": 5, "velocity": 100}, {"time": 1917, "pitch": 58, "duration": 5, "velocity": 111}, {"time": 1926, "pitch": 44, "duration": 16, "velocity": 102}, {"time": 1926, "pitch": 56, "duration": 7, "velocity": 97}, {"time": 1926, "pitch": 59, "duration": 7, "velocity": 102}, {"time": 1932, "pitch": 51, "duration": 4, "velocity": 66}, {"time": 1935, "pitch": 56, "duration": 4, "velocity": 102}, {"time": 1935, "pitch": 59, "duration": 3, "velocity": 114}, {"time": 1935, "pitch": 63, "duration": 4, "velocity": 108}, {"time": 1938, "pitch": 51, "duration": 5, "velocity": 66}, {"time": 1941, "pitch": 56, "duration": 5, "velocity": 108}, {"time": 1941, "pitch": 68, "duration": 1, "velocity": 66}, {"time": 1944, "pitch": 44, "duration": 4, "velocity": 102}, {"time": 1944, "pitch": 51, "duration": 1, "velocity": 78}, {"time": 1947, "pitch": 68, "duration": 4, "velocity": 102}, {"time": 1950, "pitch": 42, "duration": 15, "velocity": 108}, {"time": 1953, "pitch": 49, "duration": 7, "velocity": 44}, {"time": 1956, "pitch": 54, "duration": 2, "velocity": 82}, {"time": 1959, "pitch": 54, "duration": 5, "velocity": 100}, {"time": 1959, "pitch": 58, "duration": 5, "velocity": 117}, {"time": 1959, "pitch": 61, "duration": 5, "velocity": 100}, {"time": 1962, "pitch": 49, "duration": 6, "velocity": 84}, {"time": 1965, "pitch": 54, "duration": 3, "velocity": 105}, {"time": 1965, "pitch": 58, "duration": 3, "velocity": 102}, {"time": 1968, "pitch": 42, "duration": 2, "velocity": 94}, {"time": 1974, "pitch": 49, "duration": 8, "velocity": 100}, {"time": 1974, "pitch": 61, "duration": 4, "velocity": 97}, {"time": 1974, "pitch": 64, "duration": 7, "velocity": 108}, {"time": 1977, "pitch": 56, "duration": 5, "velocity": 87}, {"time": 1980, "pitch": 61, "duration": 2, "velocity": 100}, {"time": 1983, "pitch": 51, "duration": 7, "velocity": 105}, {"time": 1983, "pitch": 63, "duration": 6, "velocity": 97}, {"time": 1983, "pitch": 66, "duration": 6, "velocity": 92}, {"time": 1992, "pitch": 52, "duration": 22, "velocity": 105}, {"time": 1992, "pitch": 64, "duration": 10, "velocity": 94}, {"time": 1992, "pitch": 68, "duration": 13, "velocity": 102}, {"time": 2001, "pitch": 59, "duration": 7, "velocity": 100}, {"time": 2004, "pitch": 64, "duration": 2, "velocity": 76}, {"time": 2007, "pitch": 64, "duration": 4, "velocity": 94}, {"time": 2007, "pitch": 71, "duration": 4, "velocity": 92}, {"time": 2010, "pitch": 59, "duration": 3, "velocity": 82}, {"time": 2013, "pitch": 64, "duration": 2, "velocity": 97}, {"time": 2013, "pitch": 68, "duration": 4, "velocity": 102}, {"time": 2016, "pitch": 64, "duration": 2, "velocity": 84}, {"time": 2022, "pitch": 42, "duration": 21, "velocity": 97}, {"time": 2022, "pitch": 54, "duration": 4, "velocity": 97}, {"time": 2022, "pitch": 58, "duration": 7, "velocity": 102}, {"time": 2025, "pitch": 49, "duration": 8, "velocity": 57}, {"time": 2028, "pitch": 54, "duration": 4, "velocity": 84}, {"time": 2031, "pitch": 61, "duration": 7, "velocity": 108}, {"time": 2034, "pitch": 49, "duration": 5, "velocity": 45}, {"time": 2037, "pitch": 66, "duration": 6, "velocity": 105}, {"time": 2040, "pitch": 54, "duration": 2, "velocity": 92}, {"time": 2046, "pitch": 42, "duration": 23, "velocity": 94}, {"time": 2046, "pitch": 66, "duration": 23, "velocity": 58}, {"time": 2046, "pitch": 70, "duration": 23, "velocity": 52}, {"time": 2070, "pitch": 47, "duration": 22, "velocity": 92}, {"time": 2070, "pitch": 54, "duration": 4, "velocity": 80}, {"time": 2070, "pitch": 59, "duration": 7, "velocity": 94}, {"time": 2070, "pitch": 63, "duration": 7, "velocity": 92}, {"time": 2076, "pitch": 54, "duration": 3, "velocity": 46}, {"time": 2082, "pitch": 54, "duration": 3, "velocity": 97}, {"time": 2082, "pitch": 63, "duration": 10, "velocity": 92}, {"time": 2088, "pitch": 54, "duration": 4, "velocity": 108}, {"time": 2094, "pitch": 42, "duration": 19, "velocity": 100}, {"time": 2094, "pitch": 54, "duration": 7, "velocity": 89}, {"time": 2094, "pitch": 61, "duration": 7, "velocity": 84}, {"time": 2100, "pitch": 49, "duration": 16, "velocity": 49}, {"time": 2106, "pitch": 54, "duration": 5, "velocity": 105}, {"time": 2106, "pitch": 61, "duration": 5, "velocity": 100}, {"time": 2112, "pitch": 58, "duration": 5, "velocity": 111}, {"time": 2118, "pitch": 44, "duration": 20, "velocity": 97}, {"time": 2118, "pitch": 56, "duration": 9, "velocity": 92}, {"time": 2118, "pitch": 59, "duration": 5, "velocity": 97}, {"time": 2124, "pitch": 51, "duration": 7, "velocity": 55}, {"time": 2130, "pitch": 56, "duration": 4, "velocity": 89}, {"time": 2130, "pitch": 59, "duration": 4, "velocity": 100}, {"time": 2130, "pitch": 63, "duration": 4, "velocity": 94}, {"time": 2133, "pitch": 51, "duration": 8, "velocity": 78}, {"time": 2136, "pitch": 56, "duration": 3, "velocity": 108}, {"time": 2142, "pitch": 51, "duration": 16, "velocity": 102}, {"time": 2142, "pitch": 58, "duration": 3, "velocity": 94}, {"time": 2142, "pitch": 63, "duration": 8, "velocity": 92}, {"time": 2148, "pitch": 58, "duration": 4, "velocity": 82}, {"time": 2154, "pitch": 58, "duration": 2, "velocity": 102}, {"time": 2154, "pitch": 63, "duration": 4, "velocity": 108}, {"time": 2154, "pitch": 66, "duration": 5, "velocity": 100}, {"time": 2157, "pitch": 58, "duration": 4, "velocity": 94}, {"time": 2160, "pitch": 63, "duration": 3, "velocity": 87}, {"time": 2166, "pitch": 40, "duration": 15, "velocity": 94}, {"time": 2166, "pitch": 56, "duration": 9, "velocity": 97}, {"time": 2166, "pitch": 59, "duration": 9, "velocity": 100}, {"time": 2172, "pitch": 47, "duration": 9, "velocity": 60}, {"time": 2178, "pitch": 56, "duration": 4, "velocity": 97}, {"time": 2178, "pitch": 59, "duration": 6, "velocity": 105}, {"time": 2178, "pitch": 64, "duration": 7, "velocity": 97}, {"time": 2184, "pitch": 40, "duration": 2, "velocity": 92}, {"time": 2190, "pitch": 37, "duration": 11, "velocity": 78}, {"time": 2190, "pitch": 49, "duration": 15, "velocity": 67}, {"time": 2190, "pitch": 56, "duration": 4, "velocity": 89}, {"time": 2190, "pitch": 61, "duration": 8, "velocity": 84}, {"time": 2196, "pitch": 56, "duration": 5, "velocity": 94}, {"time": 2202, "pitch": 56, "duration": 3, "velocity": 105}, {"time": 2202, "pitch": 61, "duration": 8, "velocity": 105}, {"time": 2202, "pitch": 64, "duration": 10, "velocity": 97}, {"time": 2208, "pitch": 49, "duration": 4, "velocity": 78}, {"time": 2211, "pitch": 56, "duration": 2, "velocity": 94}, {"time": 2214, "pitch": 40, "duration": 16, "velocity": 102}, {"time": 2214, "pitch": 52, "duration": 9, "velocity": 80}, {"time": 2214, "pitch": 56, "duration": 7, "velocity": 97}, {"time": 2220, "pitch": 47, "duration": 6, "velocity": 55}, {"time": 2226, "pitch": 52, "duration": 4, "velocity": 105}, {"time": 2226, "pitch": 59, "duration": 5, "velocity": 97}, {"time": 2229, "pitch": 47, "duration": 6, "velocity": 100}, {"time": 2232, "pitch": 52, "duration": 4, "velocity": 102}, {"time": 2235, "pitch": 56, "duration": 2, "velocity": 102}, {"time": 2238, "pitch": 42, "duration": 15, "velocity": 100}, {"time": 2238, "pitch": 54, "duration": 10, "velocity": 89}, {"time": 2238, "pitch": 56, "duration": 3, "velocity": 92}, {"time": 2244, "pitch": 49, "duration": 8, "velocity": 80}, {"time": 2250, "pitch": 54, "duration": 9, "velocity": 108}, {"time": 2250, "pitch": 58, "duration": 8, "velocity": 117}, {"time": 2256, "pitch": 49, "duration": 5, "velocity": 84}, {"time": 2262, "pitch": 47, "duration": 14, "velocity": 89}, {"time": 2262, "pitch": 54, "duration": 4, "velocity": 80}, {"time": 2262, "pitch": 59, "duration": 7, "velocity": 82}, {"time": 2262, "pitch": 63, "duration": 8, "velocity": 92}, {"time": 2268, "pitch": 54, "duration": 4, "velocity": 78}, {"time": 2274, "pitch": 54, "duration": 3, "velocity": 102}, {"time": 2274, "pitch": 63, "duration": 9, "velocity": 89}, {"time": 2277, "pitch": 47, "duration": 3, "velocity": 97}, {"time": 2280, "pitch": 54, "duration": 5, "velocity": 100}, {"time": 2286, "pitch": 42, "duration": 16, "velocity": 102}, {"time": 2286, "pitch": 54, "duration": 9, "velocity": 87}, {"time": 2286, "pitch": 58, "duration": 8, "velocity": 89}, {"time": 2292, "pitch": 49, "duration": 7, "velocity": 55}, {"time": 2298, "pitch": 54, "duration": 4, "velocity": 100}, {"time": 2298, "pitch": 58, "duration": 6, "velocity": 111}, {"time": 2298, "pitch": 61, "duration": 9, "velocity": 97}, {"time": 2301, "pitch": 49, "duration": 8, "velocity": 87}, {"time": 2304, "pitch": 54, "duration": 4, "velocity": 84}, {"time": 2310, "pitch": 44, "duration": 21, "velocity": 97}, {"time": 2310, "pitch": 56, "duration": 7, "velocity": 97}, {"time": 2310, "pitch": 59, "duration": 6, "velocity": 97}, {"time": 2316, "pitch": 51, "duration": 7, "velocity": 57}, {"time": 2319, "pitch": 56, "duration": 2, "velocity": 89}, {"time": 2322, "pitch": 56, "duration": 4, "velocity": 111}, {"time": 2322, "pitch": 63, "duration": 4, "velocity": 100}, {"time": 2325, "pitch": 51, "duration": 7, "velocity": 94}, {"time": 2328, "pitch": 56, "duration": 3, "velocity": 97}, {"time": 2328, "pitch": 61, "duration": 4, "velocity": 97}, {"time": 2331, "pitch": 59, "duration": 2, "velocity": 73}, {"time": 2334, "pitch": 51, "duration": 16, "velocity": 100}, {"time": 2334, "pitch": 58, "duration": 4, "velocity": 87}, {"time": 2334, "pitch": 63, "duration": 7, "velocity": 76}, {"time": 2340, "pitch": 58, "duration": 4, "velocity": 84}, {"time": 2346, "pitch": 58, "duration": 3, "velocity": 108}, {"time": 2346, "pitch": 63, "duration": 7, "velocity": 105}, {"time": 2346, "pitch": 66, "duration": 8, "velocity": 100}, {"time": 2352, "pitch": 58, "duration": 2, "velocity": 97}, {"time": 2358, "pitch": 40, "duration": 12, "velocity": 84}, {"time": 2358, "pitch": 59, "duration": 4, "velocity": 92}, {"time": 2358, "pitch": 64, "duration": 7, "velocity": 76}, {"time": 2364, "pitch": 59, "duration": 4, "velocity": 97}, {"time": 2370, "pitch": 59, "duration": 3, "velocity": 102}, {"time": 2370, "pitch": 64, "duration": 9, "velocity": 102}, {"time": 2370, "pitch": 68, "duration": 10, "velocity": 100}, {"time": 2376, "pitch": 59, "duration": 3, "velocity": 82}, {"time": 2382, "pitch": 51, "duration": 17, "velocity": 80}, {"time": 2382, "pitch": 63, "duration": 4, "velocity": 84}, {"time": 2382, "pitch": 66, "duration": 11, "velocity": 82}, {"time": 2388, "pitch": 63, "duration": 5, "velocity": 67}, {"time": 2394, "pitch": 63, "duration": 4, "velocity": 108}, {"time": 2394, "pitch": 66, "duration": 8, "velocity": 108}, {"time": 2394, "pitch": 70, "duration": 8, "velocity": 100}, {"time": 2400, "pitch": 63, "duration": 3, "velocity": 67}, {"time": 2406, "pitch": 49, "duration": 16, "velocity": 97}, {"time": 2406, "pitch": 61, "duration": 7, "velocity": 80}, {"time": 2406, "pitch": 64, "duration": 10, "velocity": 87}, {"time": 2412, "pitch": 56, "duration": 4, "velocity": 66}, {"time": 2415, "pitch": 59, "duration": 6, "velocity": 114}, {"time": 2418, "pitch": 56, "duration": 4, "velocity": 100}, {"time": 2421, "pitch": 64, "duration": 4, "velocity": 114}, {"time": 2424, "pitch": 61, "duration": 4, "velocity": 69}, {"time": 2427, "pitch": 64, "duration": 1, "velocity": 78}, {"time": 2430, "pitch": 42, "duration": 17, "velocity": 94}, {"time": 2430, "pitch": 54, "duration": 4, "velocity": 82}, {"time": 2430, "pitch": 58, "duration": 6, "velocity": 102}, {"time": 2433, "pitch": 49, "duration": 7, "velocity": 58}, {"time": 2436, "pitch": 54, "duration": 8, "velocity": 62}, {"time": 2439, "pitch": 61, "duration": 6, "velocity": 100}, {"time": 2442, "pitch": 49, "duration": 5, "velocity": 80}, {"time": 2445, "pitch": 66, "duration": 7, "velocity": 111}, {"time": 2448, "pitch": 54, "duration": 3, "velocity": 92}, {"time": 2454, "pitch": 44, "duration": 22, "velocity": 92}, {"time": 2454, "pitch": 51, "duration": 4, "velocity": 92}, {"time": 2454, "pitch": 59, "duration": 10, "velocity": 92}, {"time": 2460, "pitch": 51, "duration": 5, "velocity": 40}, {"time": 2466, "pitch": 51, "duration": 3, "velocity": 94}, {"time": 2466, "pitch": 59, "duration": 4, "velocity": 89}, {"time": 2469, "pitch": 58, "duration": 4, "velocity": 80}, {"time": 2472, "pitch": 51, "duration": 4, "velocity": 82}, {"time": 2478, "pitch": 51, "duration": 20, "velocity": 73}, {"time": 2478, "pitch": 59, "duration": 10, "velocity": 69}, {"time": 2478, "pitch": 68, "duration": 10, "velocity": 80}, {"time": 2502, "pitch": 49, "duration": 13, "velocity": 100}, {"time": 2502, "pitch": 61, "duration": 9, "velocity": 76}, {"time": 2502, "pitch": 64, "duration": 9, "velocity": 80}, {"time": 2508, "pitch": 56, "duration": 7, "velocity": 66}, {"time": 2514, "pitch": 61, "duration": 3, "velocity": 89}, {"time": 2514, "pitch": 64, "duration": 6, "velocity": 87}, {"time": 2520, "pitch": 61, "duration": 2, "velocity": 87}, {"time": 2526, "pitch": 42, "duration": 15, "velocity": 89}, {"time": 2526, "pitch": 54, "duration": 11, "velocity": 71}, {"time": 2526, "pitch": 61, "duration": 11, "velocity": 92}, {"time": 2532, "pitch": 49, "duration": 10, "velocity": 43}, {"time": 2538, "pitch": 54, "duration": 10, "velocity": 80}, {"time": 2538, "pitch": 61, "duration": 10, "velocity": 80}, {"time": 2544, "pitch": 42, "duration": 5, "velocity": 84}, {"time": 2550, "pitch": 47, "duration": 15, "velocity": 84}, {"time": 2550, "pitch": 54, "duration": 3, "velocity": 76}, {"time": 2550, "pitch": 61, "duration": 12, "velocity": 78}, {"time": 2556, "pitch": 54, "duration": 5, "velocity": 60}, {"time": 2562, "pitch": 54, "duration": 4, "velocity": 82}, {"time": 2562, "pitch": 59, "duration": 7, "velocity": 87}, {"time": 2568, "pitch": 54, "duration": 5, "velocity": 84}, {"time": 2574, "pitch": 47, "duration": 15, "velocity": 76}, {"time": 2574, "pitch": 54, "duration": 3, "velocity": 60}, {"time": 2574, "pitch": 59, "duration": 10, "velocity": 82}, {"time": 2574, "pitch": 63, "duration": 8, "velocity": 80}, {"time": 2580, "pitch": 54, "duration": 4, "velocity": 52}, {"time": 2586, "pitch": 54, "duration": 5, "velocity": 105}, {"time": 2586, "pitch": 59, "duration": 6, "velocity": 100}, {"time": 2592, "pitch": 47, "duration": 2, "velocity": 89}, {"time": 2598, "pitch": 49, "duration": 23, "velocity": 97}, {"time": 2598, "pitch": 59, "duration": 8, "velocity": 71}, {"time": 2598, "pitch": 64, "duration": 9, "velocity": 84}, {"time": 2604, "pitch": 56, "duration": 8, "velocity": 69}, {"time": 2611, "pitch": 61, "duration": 15, "velocity": 92}, {"time": 2611, "pitch": 64, "duration": 14, "velocity": 94}, {"time": 2618, "pitch": 56, "duration": 3, "velocity": 66}, {"time": 2624, "pitch": 42, "duration": 28, "velocity": 97}, {"time": 2628, "pitch": 49, "duration": 24, "velocity": 48}, {"time": 2633, "pitch": 54, "duration": 19, "velocity": 102}, {"time": 2638, "pitch": 61, "duration": 15, "velocity": 84}, {"time": 2643, "pitch": 66, "duration": 11, "velocity": 47}, {"time": 2653, "pitch": 47, "duration": 13, "velocity": 93}, {"time": 2653, "pitch": 63, "duration": 9, "velocity": 97}, {"time": 2654, "pitch": 71, "duration": 8, "velocity": 97}, {"time": 2654, "pitch": 59, "duration": 8, "velocity": 93}, {"time": 2665, "pitch": 63, "duration": 8, "velocity": 97}, {"time": 2665, "pitch": 71, "duration": 7, "velocity": 97}, {"time": 2665, "pitch": 59, "duration": 7, "velocity": 97}, {"time": 2677, "pitch": 58, "duration": 9, "velocity": 99}, {"time": 2677, "pitch": 61, "duration": 10, "velocity": 99}, {"time": 2677, "pitch": 66, "duration": 9, "velocity": 99}, {"time": 2677, "pitch": 46, "duration": 15, "velocity": 99}, {"time": 2688, "pitch": 61, "duration": 8, "velocity": 101}, {"time": 2688, "pitch": 58, "duration": 8, "velocity": 101}, {"time": 2688, "pitch": 66, "duration": 9, "velocity": 101}, {"time": 2700, "pitch": 44, "duration": 15, "velocity": 103}, {"time": 2700, "pitch": 63, "duration": 11, "velocity": 103}, {"time": 2700, "pitch": 68, "duration": 10, "velocity": 103}, {"time": 2700, "pitch": 56, "duration": 11, "velocity": 103}, {"time": 2713, "pitch": 63, "duration": 7, "velocity": 102}, {"time": 2713, "pitch": 56, "duration": 7, "velocity": 100}, {"time": 2713, "pitch": 68, "duration": 7, "velocity": 100}, {"time": 2725, "pitch": 64, "duration": 9, "velocity": 98}, {"time": 2725, "pitch": 56, "duration": 10, "velocity": 96}, {"time": 2725, "pitch": 52, "duration": 9, "velocity": 98}, {"time": 2726, "pitch": 40, "duration": 15, "velocity": 98}, {"time": 2736, "pitch": 52, "duration": 6, "velocity": 96}, {"time": 2736, "pitch": 64, "duration": 7, "velocity": 96}, {"time": 2736, "pitch": 56, "duration": 7, "velocity": 96}, {"time": 2748, "pitch": 59, "duration": 10, "velocity": 96}, {"time": 2748, "pitch": 63, "duration": 10, "velocity": 96}, {"time": 2748, "pitch": 71, "duration": 10, "velocity": 96}, {"time": 2748, "pitch": 47, "duration": 16, "velocity": 96}, {"time": 2760, "pitch": 63, "duration": 7, "velocity": 97}, {"time": 2760, "pitch": 59, "duration": 7, "velocity": 97}, {"time": 2760, "pitch": 71, "duration": 6, "velocity": 97}, {"time": 2772, "pitch": 61, "duration": 11, "velocity": 97}, {"time": 2773, "pitch": 54, "duration": 9, "velocity": 97}, {"time": 2773, "pitch": 66, "duration": 9, "velocity": 97}, {"time": 2784, "pitch": 61, "duration": 9, "velocity": 97}, {"time": 2784, "pitch": 66, "duration": 9, "velocity": 97}, {"time": 2784, "pitch": 54, "duration": 9, "velocity": 97}, {"time": 2797, "pitch": 52, "duration": 29, "velocity": 97}, {"time": 2797, "pitch": 56, "duration": 29, "velocity": 97}, {"time": 2797, "pitch": 64, "duration": 29, "velocity": 97}, {"time": 2850, "pitch": 61, "duration": 9, "velocity": 94}, {"time": 2859, "pitch": 59, "duration": 30, "velocity": 88}, {"time": 2859, "pitch": 47, "duration": 44, "velocity": 88}, {"time": 2860, "pitch": 63, "duration": 30, "velocity": 88}], "annotations": [{"time": 59, "annotation": {"number": 64, "value": 127}, "group": "control_change"}, {"time": 77, "annotation": {"number": 64, "value": 0}, "group": "control_change"}, {"time": 83, "annotation": {"number": 64, "value": 127}, "group": "control_change"}, {"time": 102, "annotation": {"number": 64, "value": 0}, "group": "control_change"}, {"time": 108, "annotation": {"number": 64, "value": 127}, "group": "control_change"}, {"time": 126, "annotation": {"number": 64, "value": 0}, "group": "control_change"}, {"time": 133, "annotation": {"number": 64, "value": 127}, "group": "control_change"}, {"time": 150, "annotation": {"number": 64, "value": 0}, "group": "control_change"}, {"time": 157, "annotation": {"number": 64, "value": 127}, "group": "control_change"}, {"time": 178, "annotation": {"number": 64, "value": 0}, "group": "control_change"}, {"time": 183, "annotation": {"number": 64, "value": 127}, "group": "control_change"}, {"time": 197, "annotation": {"number": 64, "value": 0}, "group": "control_change"}, {"time": 204, "annotation": {"number": 64, "value": 127}, "group": "control_change"}, {"time": 222, "annotation": {"number": 64, "value": 0}, "group": "control_change"}, {"time": 252, "annotation": {"number": 64, "value": 127}, "group": "control_change"}, {"time": 271, "annotation": {"number": 64, "value": 0}, "group": "control_change"}, {"time": 277, "annotation": {"number": 64, "value": 127}, "group": "control_change"}, {"time": 294, "annotation": {"number": 64, "value": 0}, "group": "control_change"}, {"time": 301, "annotation": {"number": 64, "value": 127}, "group": "control_change"}, {"time": 317, "annotation": {"number": 64, "value": 0}, "group": "control_change"}, {"time": 325, "annotation": {"number": 64, "value": 127}, "group": "control_change"}, {"time": 341, "annotation": {"number": 64, "value": 0}, "group": "control_change"}, {"time": 348, "annotation": {"number": 64, "value": 127}, "group": "control_change"}, {"time": 365, "annotation": {"number": 64, "value": 0}, "group": "control_change"}, {"time": 372, "annotation": {"number": 64, "value": 127}, "group": "control_change"}, {"time": 390, "annotation": {"number": 64, "value": 0}, "group": "control_change"}, {"time": 395, "annotation": {"number": 64, "value": 127}, "group": "control_change"}, {"time": 415, "annotation": {"number": 64, "value": 0}, "group": "control_change"}, {"time": 421, "annotation": {"number": 64, "value": 127}, "group": "control_change"}, {"time": 439, "annotation": {"number": 64, "value": 0}, "group": "control_change"}, {"time": 445, "annotation": {"number": 64, "value": 127}, "group": "control_change"}, {"time": 462, "annotation": {"number": 64, "value": 0}, "group": "control_change"}, {"time": 469, "annotation": {"number": 64, "value": 127}, "group": "control_change"}, {"time": 486, "annotation": {"number": 64, "value": 0}, "group": "control_change"}, {"time": 492, "annotation": {"number": 64, "value": 127}, "group": "control_change"}, {"time": 510, "annotation": {"number": 64, "value": 0}, "group": "control_change"}, {"time": 516, "annotation": {"number": 64, "value": 127}, "group": "control_change"}, {"time": 534, "annotation": {"number": 64, "value": 0}, "group": "control_change"}, {"time": 539, "annotation": {"number": 64, "value": 127}, "group": "control_change"}, {"time": 560, "annotation": {"number": 64, "value": 0}, "group": "control_change"}, {"time": 562, "annotation": {"number": 64, "value": 127}, "group": "control_change"}, {"time": 582, "annotation": {"number": 64, "value": 0}, "group": "control_change"}, {"time": 588, "annotation": {"number": 64, "value": 127}, "group": "control_change"}, {"time": 606, "annotation": {"number": 64, "value": 0}, "group": "control_change"}, {"time": 613, "annotation": {"number": 64, "value": 127}, "group": "control_change"}, {"time": 629, "annotation": {"number": 64, "value": 0}, "group": "control_change"}, {"time": 632, "annotation": {"number": 64, "value": 127}, "group": "control_change"}, {"time": 655, "annotation": {"number": 64, "value": 0}, "group": "control_change"}, {"time": 660, "annotation": {"number": 64, "value": 127}, "group": "control_change"}, {"time": 677, "annotation": {"number": 64, "value": 0}, "group": "control_change"}, {"time": 683, "annotation": {"number": 64, "value": 127}, "group": "control_change"}, {"time": 702, "annotation": {"number": 64, "value": 0}, "group": "control_change"}, {"time": 705, "annotation": {"number": 64, "value": 127}, "group": "control_change"}, {"time": 728, "annotation": {"number": 64, "value": 0}, "group": "control_change"}, {"time": 731, "annotation": {"number": 64, "value": 127}, "group": "control_change"}, {"time": 751, "annotation": {"number": 64, "value": 0}, "group": "control_change"}, {"time": 756, "annotation": {"number": 64, "value": 127}, "group": "control_change"}, {"time": 776, "annotation": {"number": 64, "value": 0}, "group": "control_change"}, {"time": 780, "annotation": {"number": 64, "value": 127}, "group": "control_change"}, {"time": 798, "annotation": {"number": 64, "value": 0}, "group": "control_change"}, {"time": 805, "annotation": {"number": 64, "value": 127}, "group": "control_change"}, {"time": 821, "annotation": {"number": 64, "value": 0}, "group": "control_change"}, {"time": 825, "annotation": {"number": 64, "value": 127}, "group": "control_change"}, {"time": 847, "annotation": {"number": 64, "value": 0}, "group": "control_change"}, {"time": 851, "annotation": {"number": 64, "value": 127}, "group": "control_change"}, {"time": 870, "annotation": {"number": 64, "value": 0}, "group": "control_change"}, {"time": 875, "annotation": {"number": 64, "value": 127}, "group": "control_change"}, {"time": 894, "annotation": {"number": 64, "value": 0}, "group": "control_change"}, {"time": 897, "annotation": {"number": 64, "value": 127}, "group": "control_change"}, {"time": 925, "annotation": {"number": 64, "value": 127}, "group": "control_change"}, {"time": 942, "annotation": {"number": 64, "value": 0}, "group": "control_change"}, {"time": 957, "annotation": {"number": 64, "value": 127}, "group": "control_change"}, {"time": 966, "annotation": {"number": 64, "value": 0}, "group": "control_change"}, {"time": 973, "annotation": {"number": 64, "value": 127}, "group": "control_change"}, {"time": 991, "annotation": {"number": 64, "value": 0}, "group": "control_change"}, {"time": 997, "annotation": {"number": 64, "value": 127}, "group": "control_change"}, {"time": 1014, "annotation": {"number": 64, "value": 0}, "group": "control_change"}, {"time": 1020, "annotation": {"number": 64, "value": 127}, "group": "control_change"}, {"time": 1039, "annotation": {"number": 64, "value": 0}, "group": "control_change"}, {"time": 1044, "annotation": {"number": 64, "value": 127}, "group": "control_change"}, {"time": 1070, "annotation": {"number": 64, "value": 127}, "group": "control_change"}, {"time": 1099, "annotation": {"number": 64, "value": 0}, "group": "control_change"}, {"time": 1100, "annotation": {"number": 64, "value": 127}, "group": "control_change"}, {"time": 1109, "annotation": {"number": 64, "value": 0}, "group": "control_change"}, {"time": 1116, "annotation": {"number": 64, "value": 127}, "group": "control_change"}, {"time": 1134, "annotation": {"number": 64, "value": 0}, "group": "control_change"}, {"time": 1147, "annotation": {"number": 64, "value": 127}, "group": "control_change"}, {"time": 1157, "annotation": {"number": 64, "value": 0}, "group": "control_change"}, {"time": 1163, "annotation": {"number": 64, "value": 127}, "group": "control_change"}, {"time": 1183, "annotation": {"number": 64, "value": 0}, "group": "control_change"}, {"time": 1188, "annotation": {"number": 64, "value": 127}, "group": "control_change"}, {"time": 1205, "annotation": {"number": 64, "value": 0}, "group": "control_change"}, {"time": 1207, "annotation": {"number": 64, "value": 127}, "group": "control_change"}, {"time": 1231, "annotation": {"number": 64, "value": 0}, "group": "control_change"}, {"time": 1235, "annotation": {"number": 64, "value": 127}, "group": "control_change"}, {"time": 1237, "annotation": {"number": 64, "value": 127}, "group": "control_change"}, {"time": 1240, "annotation": {"number": 64, "value": 0}, "group": "control_change"}, {"time": 1252, "annotation": {"number": 64, "value": 0}, "group": "control_change"}, {"time": 1255, "annotation": {"number": 64, "value": 0}, "group": "control_change"}, {"time": 1261, "annotation": {"number": 64, "value": 127}, "group": "control_change"}, {"time": 1278, "annotation": {"number": 64, "value": 0}, "group": "control_change"}, {"time": 1285, "annotation": {"number": 64, "value": 127}, "group": "control_change"}, {"time": 1302, "annotation": {"number": 64, "value": 0}, "group": "control_change"}, {"time": 1308, "annotation": {"number": 64, "value": 127}, "group": "control_change"}, {"time": 1326, "annotation": {"number": 64, "value": 0}, "group": "control_change"}, {"time": 1332, "annotation": {"number": 64, "value": 127}, "group": "control_change"}, {"time": 1350, "annotation": {"number": 64, "value": 0}, "group": "control_change"}, {"time": 1355, "annotation": {"number": 64, "value": 127}, "group": "control_change"}, {"time": 1376, "annotation": {"number": 64, "value": 0}, "group": "control_change"}, {"time": 1378, "annotation": {"number": 64, "value": 127}, "group": "control_change"}, {"time": 1398, "annotation": {"number": 64, "value": 0}, "group": "control_change"}, {"time": 1404, "annotation": {"number": 64, "value": 127}, "group": "control_change"}, {"time": 1422, "annotation": {"number": 64, "value": 0}, "group": "control_change"}, {"time": 1429, "annotation": {"number": 64, "value": 127}, "group": "control_change"}, {"time": 1445, "annotation": {"number": 64, "value": 0}, "group": "control_change"}, {"time": 1448, "annotation": {"number": 64, "value": 127}, "group": "control_change"}, {"time": 1471, "annotation": {"number": 64, "value": 0}, "group": "control_change"}, {"time": 1476, "annotation": {"number": 64, "value": 127}, "group": "control_change"}, {"time": 1493, "annotation": {"number": 64, "value": 0}, "group": "control_change"}, {"time": 1499, "annotation": {"number": 64, "value": 127}, "group": "control_change"}, {"time": 1518, "annotation": {"number": 64, "value": 0}, "group": "control_change"}, {"time": 1521, "annotation": {"number": 64, "value": 127}, "group": "control_change"}, {"time": 1544, "annotation": {"number": 64, "value": 0}, "group": "control_change"}, {"time": 1547, "annotation": {"number": 64, "value": 127}, "group": "control_change"}, {"time": 1567, "annotation": {"number": 64, "value": 0}, "group": "control_change"}, {"time": 1572, "annotation": {"number": 64, "value": 127}, "group": "control_change"}, {"time": 1592, "annotation": {"number": 64, "value": 0}, "group": "control_change"}, {"time": 1596, "annotation": {"number": 64, "value": 127}, "group": "control_change"}, {"time": 1614, "annotation": {"number": 64, "value": 0}, "group": "control_change"}, {"time": 1621, "annotation": {"number": 64, "value": 127}, "group": "control_change"}, {"time": 1637, "annotation": {"number": 64, "value": 0}, "group": "control_change"}, {"time": 1641, "annotation": {"number": 64, "value": 127}, "group": "control_change"}, {"time": 1663, "annotation": {"number": 64, "value": 0}, "group": "control_change"}, {"time": 1667, "annotation": {"number": 64, "value": 127}, "group": "control_change"}, {"time": 1686, "annotation": {"number": 64, "value": 0}, "group": "control_change"}, {"time": 1691, "annotation": {"number": 64, "value": 127}, "group": "control_change"}, {"time": 1710, "annotation": {"number": 64, "value": 0}, "group": "control_change"}, {"time": 1713, "annotation": {"number": 64, "value": 127}, "group": "control_change"}, {"time": 1741, "annotation": {"number": 64, "value": 127}, "group": "control_change"}, {"time": 1758, "annotation": {"number": 64, "value": 0}, "group": "control_change"}, {"time": 1773, "annotation": {"number": 64, "value": 127}, "group": "control_change"}, {"time": 1782, "annotation": {"number": 64, "value": 0}, "group": "control_change"}, {"time": 1789, "annotation": {"number": 64, "value": 127}, "group": "control_change"}, {"time": 1807, "annotation": {"number": 64, "value": 0}, "group": "control_change"}, {"time": 1813, "annotation": {"number": 64, "value": 127}, "group": "control_change"}, {"time": 1830, "annotation": {"number": 64, "value": 0}, "group": "control_change"}, {"time": 1836, "annotation": {"number": 64, "value": 127}, "group": "control_change"}, {"time": 1855, "annotation": {"number": 64, "value": 0}, "group": "control_change"}, {"time": 1860, "annotation": {"number": 64, "value": 127}, "group": "control_change"}, {"time": 1879, "annotation": {"number": 64, "value": 127}, "group": "control_change"}, {"time": 1889, "annotation": {"number": 64, "value": 0}, "group": "control_change"}, {"time": 1891, "annotation": {"number": 64, "value": 127}, "group": "control_change"}, {"time": 1903, "annotation": {"number": 64, "value": 0}, "group": "control_change"}, {"time": 1904, "annotation": {"number": 64, "value": 127}, "group": "control_change"}, {"time": 1916, "annotation": {"number": 64, "value": 0}, "group": "control_change"}, {"time": 1918, "annotation": {"number": 64, "value": 127}, "group": "control_change"}, {"time": 1927, "annotation": {"number": 64, "value": 0}, "group": "control_change"}, {"time": 1932, "annotation": {"number": 64, "value": 127}, "group": "control_change"}, {"time": 1950, "annotation": {"number": 64, "value": 0}, "group": "control_change"}, {"time": 1953, "annotation": {"number": 64, "value": 127}, "group": "control_change"}, {"time": 1973, "annotation": {"number": 64, "value": 0}, "group": "control_change"}, {"time": 1975, "annotation": {"number": 64, "value": 127}, "group": "control_change"}, {"time": 1982, "annotation": {"number": 64, "value": 0}, "group": "control_change"}, {"time": 1986, "annotation": {"number": 64, "value": 127}, "group": "control_change"}, {"time": 1993, "annotation": {"number": 64, "value": 0}, "group": "control_change"}, {"time": 2002, "annotation": {"number": 64, "value": 127}, "group": "control_change"}, {"time": 2022, "annotation": {"number": 64, "value": 0}, "group": "control_change"}, {"time": 2027, "annotation": {"number": 64, "value": 127}, "group": "control_change"}, {"time": 2047, "annotation": {"number": 64, "value": 0}, "group": "control_change"}, {"time": 2072, "annotation": {"number": 64, "value": 127}, "group": "control_change"}, {"time": 2095, "annotation": {"number": 64, "value": 0}, "group": "control_change"}, {"time": 2100, "annotation": {"number": 64, "value": 127}, "group": "control_change"}, {"time": 2117, "annotation": {"number": 64, "value": 0}, "group": "control_change"}, {"time": 2123, "annotation": {"number": 64, "value": 127}, "group": "control_change"}, {"time": 2142, "annotation": {"number": 64, "value": 0}, "group": "control_change"}, {"time": 2145, "annotation": {"number": 64, "value": 127}, "group": "control_change"}, {"time": 2168, "annotation": {"number": 64, "value": 0}, "group": "control_change"}, {"time": 2171, "annotation": {"number": 64, "value": 127}, "group": "control_change"}, {"time": 2191, "annotation": {"number": 64, "value": 0}, "group": "control_change"}, {"time": 2196, "annotation": {"number": 64, "value": 127}, "group": "control_change"}, {"time": 2216, "annotation": {"number": 64, "value": 0}, "group": "control_change"}, {"time": 2220, "annotation": {"number": 64, "value": 127}, "group": "control_change"}, {"time": 2238, "annotation": {"number": 64, "value": 0}, "group": "control_change"}, {"time": 2245, "annotation": {"number": 64, "value": 127}, "group": "control_change"}, {"time": 2261, "annotation": {"number": 64, "value": 0}, "group": "control_change"}, {"time": 2265, "annotation": {"number": 64, "value": 127}, "group": "control_change"}, {"time": 2287, "annotation": {"number": 64, "value": 0}, "group": "control_change"}, {"time": 2291, "annotation": {"number": 64, "value": 127}, "group": "control_change"}, {"time": 2310, "annotation": {"number": 64, "value": 0}, "group": "control_change"}, {"time": 2315, "annotation": {"number": 64, "value": 127}, "group": "control_change"}, {"time": 2334, "annotation": {"number": 64, "value": 0}, "group": "control_change"}, {"time": 2337, "annotation": {"number": 64, "value": 127}, "group": "control_change"}, {"time": 2365, "annotation": {"number": 64, "value": 127}, "group": "control_change"}, {"time": 2382, "annotation": {"number": 64, "value": 0}, "group": "control_change"}, {"time": 2397, "annotation": {"number": 64, "value": 127}, "group": "control_change"}, {"time": 2406, "annotation": {"number": 64, "value": 0}, "group": "control_change"}, {"time": 2413, "annotation": {"number": 64, "value": 127}, "group": "control_change"}, {"time": 2431, "annotation": {"number": 64, "value": 0}, "group": "control_change"}, {"time": 2437, "annotation": {"number": 64, "value": 127}, "group": "control_change"}, {"time": 2454, "annotation": {"number": 64, "value": 0}, "group": "control_change"}, {"time": 2460, "annotation": {"number": 64, "value": 127}, "group": "control_change"}, {"time": 2479, "annotation": {"number": 64, "value": 0}, "group": "control_change"}, {"time": 2484, "annotation": {"number": 64, "value": 127}, "group": "control_change"}, {"time": 2496, "annotation": {"number": 64, "value": 127}, "group": "control_change"}, {"time": 2501, "annotation": {"number": 64, "value": 0}, "group": "control_change"}, {"time": 2508, "annotation": {"number": 64, "value": 127}, "group": "control_change"}, {"time": 2526, "annotation": {"number": 64, "value": 0}, "group": "control_change"}, {"time": 2532, "annotation": {"number": 64, "value": 127}, "group": "control_change"}, {"time": 2549, "annotation": {"number": 64, "value": 0}, "group": "control_change"}, {"time": 2555, "annotation": {"number": 64, "value": 127}, "group": "control_change"}, {"time": 2575, "annotation": {"number": 64, "value": 0}, "group": "control_change"}, {"time": 2578, "annotation": {"number": 64, "value": 127}, "group": "control_change"}, {"time": 2598, "annotation": {"number": 64, "value": 0}, "group": "control_change"}, {"time": 2600, "annotation": {"number": 64, "value": 127}, "group": "control_change"}, {"time": 2612, "annotation": {"number": 64, "value": 0}, "group": "control_change"}, {"time": 2616, "annotation": {"number": 64, "value": 127}, "group": "control_change"}, {"time": 2627, "annotation": {"number": 64, "value": 0}, "group": "control_change"}, {"time": 2634, "annotation": {"number": 64, "value": 127}, "group": "control_change"}, {"time": 2653, "annotation": {"number": 64, "value": 127}, "group": "control_change"}]}]}