{"metadata": {"schema_version": "0.2", "title": "None", "source_filename": "003.mid", "source_format": "midi"}, "resolution": 12, "tempos": [{"time": 0, "qpm": 82.00014760026568}], "time_signatures": [{"time": 0, "numerator": 2, "denominator": 4}], "tracks": [{"program": 0, "is_drum": false, "name": "MELODY", "notes": [{"time": 414, "pitch": 74, "duration": 2, "velocity": 102}, {"time": 417, "pitch": 74, "duration": 2, "velocity": 102}, {"time": 420, "pitch": 74, "duration": 4, "velocity": 105}, {"time": 426, "pitch": 74, "duration": 2, "velocity": 100}, {"time": 429, "pitch": 74, "duration": 2, "velocity": 89}, {"time": 432, "pitch": 74, "duration": 2, "velocity": 97}, {"time": 435, "pitch": 74, "duration": 2, "velocity": 87}, {"time": 438, "pitch": 74, "duration": 2, "velocity": 89}, {"time": 441, "pitch": 74, "duration": 2, "velocity": 89}, {"time": 444, "pitch": 74, "duration": 3, "velocity": 94}, {"time": 447, "pitch": 74, "duration": 5, "velocity": 111}, {"time": 453, "pitch": 75, "duration": 5, "velocity": 112}, {"time": 462, "pitch": 75, "duration": 2, "velocity": 102}, {"time": 465, "pitch": 75, "duration": 2, "velocity": 102}, {"time": 468, "pitch": 75, "duration": 2, "velocity": 102}, {"time": 471, "pitch": 75, "duration": 4, "velocity": 105}, {"time": 477, "pitch": 75, "duration": 2, "velocity": 105}, {"time": 480, "pitch": 75, "duration": 2, "velocity": 109}, {"time": 483, "pitch": 75, "duration": 2, "velocity": 96}, {"time": 486, "pitch": 75, "duration": 2, "velocity": 96}, {"time": 489, "pitch": 75, "duration": 2, "velocity": 102}, {"time": 492, "pitch": 75, "duration": 4, "velocity": 116}, {"time": 498, "pitch": 77, "duration": 2, "velocity": 105}, {"time": 501, "pitch": 74, "duration": 5, "velocity": 105}, {"time": 510, "pitch": 74, "duration": 2, "velocity": 100}, {"time": 513, "pitch": 74, "duration": 2, "velocity": 97}, {"time": 516, "pitch": 74, "duration": 1, "velocity": 94}, {"time": 519, "pitch": 74, "duration": 7, "velocity": 114}, {"time": 528, "pitch": 75, "duration": 4, "velocity": 109}, {"time": 534, "pitch": 74, "duration": 4, "velocity": 117}, {"time": 540, "pitch": 72, "duration": 2, "velocity": 108}, {"time": 543, "pitch": 70, "duration": 7, "velocity": 105}, {"time": 552, "pitch": 72, "duration": 24, "velocity": 108}, {"time": 606, "pitch": 74, "duration": 2, "velocity": 102}, {"time": 609, "pitch": 74, "duration": 2, "velocity": 102}, {"time": 612, "pitch": 74, "duration": 4, "velocity": 105}, {"time": 618, "pitch": 74, "duration": 2, "velocity": 100}, {"time": 621, "pitch": 74, "duration": 2, "velocity": 89}, {"time": 624, "pitch": 74, "duration": 2, "velocity": 97}, {"time": 627, "pitch": 74, "duration": 2, "velocity": 87}, {"time": 630, "pitch": 74, "duration": 2, "velocity": 89}, {"time": 633, "pitch": 74, "duration": 2, "velocity": 89}, {"time": 636, "pitch": 74, "duration": 3, "velocity": 94}, {"time": 639, "pitch": 74, "duration": 5, "velocity": 111}, {"time": 645, "pitch": 75, "duration": 5, "velocity": 112}, {"time": 654, "pitch": 75, "duration": 2, "velocity": 102}, {"time": 657, "pitch": 75, "duration": 2, "velocity": 102}, {"time": 660, "pitch": 75, "duration": 2, "velocity": 102}, {"time": 663, "pitch": 75, "duration": 4, "velocity": 105}, {"time": 669, "pitch": 75, "duration": 2, "velocity": 105}, {"time": 672, "pitch": 75, "duration": 2, "velocity": 109}, {"time": 675, "pitch": 75, "duration": 2, "velocity": 96}, {"time": 678, "pitch": 75, "duration": 2, "velocity": 96}, {"time": 681, "pitch": 75, "duration": 2, "velocity": 102}, {"time": 684, "pitch": 75, "duration": 4, "velocity": 116}, {"time": 690, "pitch": 77, "duration": 2, "velocity": 105}, {"time": 693, "pitch": 74, "duration": 5, "velocity": 105}, {"time": 702, "pitch": 74, "duration": 2, "velocity": 100}, {"time": 705, "pitch": 74, "duration": 2, "velocity": 97}, {"time": 708, "pitch": 74, "duration": 1, "velocity": 94}, {"time": 711, "pitch": 74, "duration": 7, "velocity": 114}, {"time": 720, "pitch": 75, "duration": 4, "velocity": 109}, {"time": 726, "pitch": 74, "duration": 4, "velocity": 117}, {"time": 732, "pitch": 74, "duration": 2, "velocity": 108}, {"time": 735, "pitch": 77, "duration": 7, "velocity": 105}, {"time": 744, "pitch": 77, "duration": 24, "velocity": 108}, {"time": 780, "pitch": 82, "duration": 2, "velocity": 109}, {"time": 783, "pitch": 81, "duration": 2, "velocity": 105}, {"time": 786, "pitch": 82, "duration": 2, "velocity": 109}, {"time": 789, "pitch": 81, "duration": 2, "velocity": 100}, {"time": 792, "pitch": 82, "duration": 5, "velocity": 112}, {"time": 798, "pitch": 79, "duration": 5, "velocity": 114}, {"time": 810, "pitch": 82, "duration": 2, "velocity": 109}, {"time": 813, "pitch": 82, "duration": 2, "velocity": 111}, {"time": 816, "pitch": 82, "duration": 2, "velocity": 116}, {"time": 825, "pitch": 82, "duration": 2, "velocity": 105}, {"time": 828, "pitch": 84, "duration": 3, "velocity": 108}, {"time": 834, "pitch": 82, "duration": 4, "velocity": 109}, {"time": 840, "pitch": 81, "duration": 3, "velocity": 114}, {"time": 846, "pitch": 77, "duration": 4, "velocity": 102}, {"time": 858, "pitch": 81, "duration": 2, "velocity": 105}, {"time": 861, "pitch": 81, "duration": 2, "velocity": 105}, {"time": 864, "pitch": 81, "duration": 3, "velocity": 111}, {"time": 870, "pitch": 81, "duration": 2, "velocity": 111}, {"time": 873, "pitch": 81, "duration": 2, "velocity": 100}, {"time": 876, "pitch": 82, "duration": 4, "velocity": 105}, {"time": 882, "pitch": 81, "duration": 2, "velocity": 114}, {"time": 888, "pitch": 79, "duration": 4, "velocity": 111}, {"time": 894, "pitch": 75, "duration": 6, "velocity": 109}, {"time": 906, "pitch": 79, "duration": 2, "velocity": 108}, {"time": 909, "pitch": 79, "duration": 2, "velocity": 100}, {"time": 912, "pitch": 81, "duration": 4, "velocity": 97}, {"time": 918, "pitch": 79, "duration": 3, "velocity": 111}, {"time": 924, "pitch": 77, "duration": 4, "velocity": 100}, {"time": 930, "pitch": 75, "duration": 4, "velocity": 105}, {"time": 936, "pitch": 74, "duration": 5, "velocity": 105}, {"time": 948, "pitch": 74, "duration": 4, "velocity": 105}, {"time": 954, "pitch": 75, "duration": 8, "velocity": 105}, {"time": 966, "pitch": 77, "duration": 4, "velocity": 108}, {"time": 972, "pitch": 81, "duration": 6, "velocity": 114}, {"time": 981, "pitch": 81, "duration": 2, "velocity": 89}, {"time": 984, "pitch": 82, "duration": 5, "velocity": 112}, {"time": 990, "pitch": 79, "duration": 7, "velocity": 111}, {"time": 1002, "pitch": 82, "duration": 2, "velocity": 109}, {"time": 1005, "pitch": 82, "duration": 2, "velocity": 90}, {"time": 1008, "pitch": 82, "duration": 4, "velocity": 109}, {"time": 1014, "pitch": 82, "duration": 2, "velocity": 102}, {"time": 1017, "pitch": 84, "duration": 8, "velocity": 114}, {"time": 1026, "pitch": 82, "duration": 4, "velocity": 105}, {"time": 1032, "pitch": 81, "duration": 4, "velocity": 114}, {"time": 1038, "pitch": 77, "duration": 6, "velocity": 109}, {"time": 1050, "pitch": 81, "duration": 2, "velocity": 108}, {"time": 1053, "pitch": 81, "duration": 2, "velocity": 105}, {"time": 1056, "pitch": 81, "duration": 6, "velocity": 108}, {"time": 1062, "pitch": 81, "duration": 3, "velocity": 100}, {"time": 1065, "pitch": 81, "duration": 2, "velocity": 102}, {"time": 1068, "pitch": 82, "duration": 4, "velocity": 105}, {"time": 1074, "pitch": 81, "duration": 4, "velocity": 102}, {"time": 1080, "pitch": 79, "duration": 3, "velocity": 114}, {"time": 1086, "pitch": 75, "duration": 6, "velocity": 109}, {"time": 1098, "pitch": 79, "duration": 2, "velocity": 108}, {"time": 1101, "pitch": 79, "duration": 2, "velocity": 108}, {"time": 1104, "pitch": 81, "duration": 4, "velocity": 111}, {"time": 1110, "pitch": 79, "duration": 3, "velocity": 111}, {"time": 1116, "pitch": 77, "duration": 4, "velocity": 102}, {"time": 1122, "pitch": 75, "duration": 5, "velocity": 109}, {"time": 1128, "pitch": 74, "duration": 8, "velocity": 105}, {"time": 1140, "pitch": 74, "duration": 4, "velocity": 108}, {"time": 1146, "pitch": 75, "duration": 10, "velocity": 109}, {"time": 1158, "pitch": 77, "duration": 6, "velocity": 105}, {"time": 1164, "pitch": 82, "duration": 5, "velocity": 109}, {"time": 1170, "pitch": 81, "duration": 3, "velocity": 114}, {"time": 1176, "pitch": 82, "duration": 5, "velocity": 112}, {"time": 1185, "pitch": 81, "duration": 2, "velocity": 108}, {"time": 1188, "pitch": 82, "duration": 7, "velocity": 112}, {"time": 1197, "pitch": 81, "duration": 2, "velocity": 108}, {"time": 1200, "pitch": 82, "duration": 5, "velocity": 112}, {"time": 1209, "pitch": 82, "duration": 2, "velocity": 102}, {"time": 1212, "pitch": 82, "duration": 4, "velocity": 102}, {"time": 1218, "pitch": 84, "duration": 3, "velocity": 102}, {"time": 1224, "pitch": 81, "duration": 7, "velocity": 108}, {"time": 1233, "pitch": 79, "duration": 2, "velocity": 111}, {"time": 1236, "pitch": 81, "duration": 8, "velocity": 114}, {"time": 1245, "pitch": 79, "duration": 2, "velocity": 108}, {"time": 1248, "pitch": 81, "duration": 5, "velocity": 117}, {"time": 1257, "pitch": 81, "duration": 2, "velocity": 102}, {"time": 1260, "pitch": 81, "duration": 4, "velocity": 114}, {"time": 1266, "pitch": 82, "duration": 4, "velocity": 109}, {"time": 1272, "pitch": 79, "duration": 8, "velocity": 111}, {"time": 1281, "pitch": 77, "duration": 2, "velocity": 105}, {"time": 1284, "pitch": 79, "duration": 8, "velocity": 111}, {"time": 1293, "pitch": 77, "duration": 2, "velocity": 111}, {"time": 1296, "pitch": 79, "duration": 5, "velocity": 117}, {"time": 1305, "pitch": 79, "duration": 2, "velocity": 111}, {"time": 1308, "pitch": 79, "duration": 3, "velocity": 97}, {"time": 1314, "pitch": 81, "duration": 4, "velocity": 111}, {"time": 1320, "pitch": 77, "duration": 8, "velocity": 105}, {"time": 1329, "pitch": 75, "duration": 2, "velocity": 105}, {"time": 1332, "pitch": 77, "duration": 7, "velocity": 105}, {"time": 1341, "pitch": 75, "duration": 2, "velocity": 102}, {"time": 1344, "pitch": 77, "duration": 5, "velocity": 102}, {"time": 1353, "pitch": 82, "duration": 2, "velocity": 105}, {"time": 1356, "pitch": 82, "duration": 3, "velocity": 105}, {"time": 1362, "pitch": 81, "duration": 4, "velocity": 117}, {"time": 1368, "pitch": 82, "duration": 7, "velocity": 109}, {"time": 1377, "pitch": 81, "duration": 2, "velocity": 111}, {"time": 1380, "pitch": 82, "duration": 8, "velocity": 105}, {"time": 1389, "pitch": 81, "duration": 2, "velocity": 105}, {"time": 1392, "pitch": 82, "duration": 6, "velocity": 105}, {"time": 1401, "pitch": 82, "duration": 1, "velocity": 105}, {"time": 1404, "pitch": 82, "duration": 4, "velocity": 96}, {"time": 1410, "pitch": 84, "duration": 3, "velocity": 102}, {"time": 1416, "pitch": 81, "duration": 7, "velocity": 108}, {"time": 1425, "pitch": 79, "duration": 2, "velocity": 105}, {"time": 1428, "pitch": 81, "duration": 7, "velocity": 111}, {"time": 1437, "pitch": 79, "duration": 2, "velocity": 105}, {"time": 1440, "pitch": 81, "duration": 4, "velocity": 111}, {"time": 1449, "pitch": 79, "duration": 2, "velocity": 97}, {"time": 1452, "pitch": 79, "duration": 4, "velocity": 105}, {"time": 1458, "pitch": 77, "duration": 5, "velocity": 105}, {"time": 1464, "pitch": 79, "duration": 12, "velocity": 111}, {"time": 1488, "pitch": 77, "duration": 12, "velocity": 111}, {"time": 1500, "pitch": 82, "duration": 10, "velocity": 105}, {"time": 1512, "pitch": 79, "duration": 33, "velocity": 108}, {"time": 1950, "pitch": 74, "duration": 2, "velocity": 102}, {"time": 1953, "pitch": 74, "duration": 2, "velocity": 102}, {"time": 1956, "pitch": 74, "duration": 4, "velocity": 105}, {"time": 1962, "pitch": 74, "duration": 2, "velocity": 100}, {"time": 1965, "pitch": 74, "duration": 2, "velocity": 89}, {"time": 1968, "pitch": 74, "duration": 2, "velocity": 97}, {"time": 1971, "pitch": 74, "duration": 2, "velocity": 87}, {"time": 1974, "pitch": 74, "duration": 2, "velocity": 89}, {"time": 1977, "pitch": 74, "duration": 2, "velocity": 89}, {"time": 1980, "pitch": 74, "duration": 3, "velocity": 94}, {"time": 1983, "pitch": 74, "duration": 5, "velocity": 111}, {"time": 1989, "pitch": 75, "duration": 5, "velocity": 112}, {"time": 1998, "pitch": 75, "duration": 2, "velocity": 102}, {"time": 2001, "pitch": 75, "duration": 2, "velocity": 102}, {"time": 2004, "pitch": 75, "duration": 2, "velocity": 102}, {"time": 2007, "pitch": 75, "duration": 4, "velocity": 105}, {"time": 2013, "pitch": 75, "duration": 2, "velocity": 105}, {"time": 2016, "pitch": 75, "duration": 2, "velocity": 109}, {"time": 2019, "pitch": 75, "duration": 2, "velocity": 96}, {"time": 2022, "pitch": 75, "duration": 2, "velocity": 96}, {"time": 2025, "pitch": 75, "duration": 2, "velocity": 102}, {"time": 2028, "pitch": 75, "duration": 4, "velocity": 116}, {"time": 2034, "pitch": 77, "duration": 2, "velocity": 105}, {"time": 2037, "pitch": 74, "duration": 5, "velocity": 105}, {"time": 2046, "pitch": 74, "duration": 2, "velocity": 100}, {"time": 2049, "pitch": 74, "duration": 2, "velocity": 97}, {"time": 2052, "pitch": 74, "duration": 1, "velocity": 94}, {"time": 2055, "pitch": 74, "duration": 7, "velocity": 114}, {"time": 2064, "pitch": 75, "duration": 4, "velocity": 109}, {"time": 2070, "pitch": 74, "duration": 4, "velocity": 117}, {"time": 2076, "pitch": 72, "duration": 2, "velocity": 108}, {"time": 2079, "pitch": 70, "duration": 7, "velocity": 105}, {"time": 2088, "pitch": 72, "duration": 24, "velocity": 108}, {"time": 2142, "pitch": 74, "duration": 2, "velocity": 102}, {"time": 2145, "pitch": 74, "duration": 2, "velocity": 102}, {"time": 2148, "pitch": 74, "duration": 4, "velocity": 105}, {"time": 2154, "pitch": 74, "duration": 2, "velocity": 100}, {"time": 2157, "pitch": 74, "duration": 2, "velocity": 89}, {"time": 2160, "pitch": 74, "duration": 2, "velocity": 97}, {"time": 2163, "pitch": 74, "duration": 2, "velocity": 87}, {"time": 2166, "pitch": 74, "duration": 2, "velocity": 89}, {"time": 2169, "pitch": 74, "duration": 2, "velocity": 89}, {"time": 2172, "pitch": 74, "duration": 3, "velocity": 94}, {"time": 2175, "pitch": 74, "duration": 5, "velocity": 111}, {"time": 2181, "pitch": 75, "duration": 5, "velocity": 112}, {"time": 2190, "pitch": 75, "duration": 2, "velocity": 102}, {"time": 2193, "pitch": 75, "duration": 2, "velocity": 102}, {"time": 2196, "pitch": 75, "duration": 2, "velocity": 102}, {"time": 2199, "pitch": 75, "duration": 4, "velocity": 105}, {"time": 2205, "pitch": 75, "duration": 2, "velocity": 105}, {"time": 2208, "pitch": 75, "duration": 2, "velocity": 109}, {"time": 2211, "pitch": 75, "duration": 2, "velocity": 96}, {"time": 2214, "pitch": 75, "duration": 2, "velocity": 96}, {"time": 2217, "pitch": 75, "duration": 2, "velocity": 102}, {"time": 2220, "pitch": 75, "duration": 4, "velocity": 116}, {"time": 2226, "pitch": 77, "duration": 2, "velocity": 105}, {"time": 2229, "pitch": 74, "duration": 5, "velocity": 105}, {"time": 2238, "pitch": 74, "duration": 2, "velocity": 100}, {"time": 2241, "pitch": 74, "duration": 2, "velocity": 97}, {"time": 2244, "pitch": 74, "duration": 1, "velocity": 94}, {"time": 2247, "pitch": 74, "duration": 7, "velocity": 114}, {"time": 2256, "pitch": 75, "duration": 4, "velocity": 109}, {"time": 2262, "pitch": 74, "duration": 4, "velocity": 117}, {"time": 2268, "pitch": 74, "duration": 2, "velocity": 108}, {"time": 2271, "pitch": 77, "duration": 7, "velocity": 105}, {"time": 2280, "pitch": 77, "duration": 24, "velocity": 108}, {"time": 2316, "pitch": 82, "duration": 2, "velocity": 109}, {"time": 2319, "pitch": 81, "duration": 2, "velocity": 105}, {"time": 2322, "pitch": 82, "duration": 2, "velocity": 109}, {"time": 2325, "pitch": 81, "duration": 2, "velocity": 100}, {"time": 2328, "pitch": 82, "duration": 5, "velocity": 112}, {"time": 2334, "pitch": 79, "duration": 5, "velocity": 114}, {"time": 2346, "pitch": 82, "duration": 2, "velocity": 109}, {"time": 2349, "pitch": 82, "duration": 2, "velocity": 111}, {"time": 2352, "pitch": 82, "duration": 2, "velocity": 116}, {"time": 2361, "pitch": 82, "duration": 2, "velocity": 105}, {"time": 2364, "pitch": 84, "duration": 3, "velocity": 108}, {"time": 2370, "pitch": 82, "duration": 4, "velocity": 109}, {"time": 2376, "pitch": 81, "duration": 3, "velocity": 114}, {"time": 2382, "pitch": 77, "duration": 4, "velocity": 102}, {"time": 2394, "pitch": 81, "duration": 2, "velocity": 105}, {"time": 2397, "pitch": 81, "duration": 2, "velocity": 105}, {"time": 2400, "pitch": 81, "duration": 3, "velocity": 111}, {"time": 2406, "pitch": 81, "duration": 2, "velocity": 111}, {"time": 2409, "pitch": 81, "duration": 2, "velocity": 100}, {"time": 2412, "pitch": 82, "duration": 4, "velocity": 105}, {"time": 2418, "pitch": 81, "duration": 2, "velocity": 114}, {"time": 2424, "pitch": 79, "duration": 4, "velocity": 111}, {"time": 2430, "pitch": 75, "duration": 6, "velocity": 109}, {"time": 2442, "pitch": 79, "duration": 2, "velocity": 108}, {"time": 2445, "pitch": 79, "duration": 2, "velocity": 100}, {"time": 2448, "pitch": 81, "duration": 4, "velocity": 97}, {"time": 2454, "pitch": 79, "duration": 3, "velocity": 111}, {"time": 2460, "pitch": 77, "duration": 4, "velocity": 100}, {"time": 2466, "pitch": 75, "duration": 4, "velocity": 105}, {"time": 2472, "pitch": 74, "duration": 5, "velocity": 105}, {"time": 2484, "pitch": 74, "duration": 4, "velocity": 105}, {"time": 2490, "pitch": 75, "duration": 8, "velocity": 105}, {"time": 2502, "pitch": 77, "duration": 4, "velocity": 108}, {"time": 2508, "pitch": 81, "duration": 6, "velocity": 114}, {"time": 2517, "pitch": 81, "duration": 2, "velocity": 89}, {"time": 2520, "pitch": 82, "duration": 5, "velocity": 112}, {"time": 2526, "pitch": 79, "duration": 7, "velocity": 111}, {"time": 2538, "pitch": 82, "duration": 2, "velocity": 109}, {"time": 2541, "pitch": 82, "duration": 2, "velocity": 90}, {"time": 2544, "pitch": 82, "duration": 4, "velocity": 109}, {"time": 2550, "pitch": 82, "duration": 2, "velocity": 102}, {"time": 2553, "pitch": 84, "duration": 8, "velocity": 114}, {"time": 2562, "pitch": 82, "duration": 4, "velocity": 105}, {"time": 2568, "pitch": 81, "duration": 4, "velocity": 114}, {"time": 2574, "pitch": 77, "duration": 6, "velocity": 109}, {"time": 2586, "pitch": 81, "duration": 2, "velocity": 108}, {"time": 2589, "pitch": 81, "duration": 2, "velocity": 105}, {"time": 2592, "pitch": 81, "duration": 6, "velocity": 108}, {"time": 2598, "pitch": 81, "duration": 3, "velocity": 100}, {"time": 2601, "pitch": 81, "duration": 2, "velocity": 102}, {"time": 2604, "pitch": 82, "duration": 4, "velocity": 105}, {"time": 2610, "pitch": 81, "duration": 4, "velocity": 102}, {"time": 2616, "pitch": 79, "duration": 3, "velocity": 114}, {"time": 2622, "pitch": 75, "duration": 6, "velocity": 109}, {"time": 2634, "pitch": 79, "duration": 2, "velocity": 108}, {"time": 2637, "pitch": 79, "duration": 2, "velocity": 108}, {"time": 2640, "pitch": 81, "duration": 4, "velocity": 111}, {"time": 2646, "pitch": 79, "duration": 3, "velocity": 111}, {"time": 2652, "pitch": 77, "duration": 4, "velocity": 102}, {"time": 2658, "pitch": 75, "duration": 5, "velocity": 109}, {"time": 2664, "pitch": 74, "duration": 8, "velocity": 105}, {"time": 2676, "pitch": 74, "duration": 4, "velocity": 108}, {"time": 2682, "pitch": 75, "duration": 10, "velocity": 109}, {"time": 2694, "pitch": 77, "duration": 6, "velocity": 105}, {"time": 2700, "pitch": 82, "duration": 5, "velocity": 109}, {"time": 2706, "pitch": 81, "duration": 3, "velocity": 114}, {"time": 2712, "pitch": 82, "duration": 5, "velocity": 112}, {"time": 2721, "pitch": 81, "duration": 2, "velocity": 108}, {"time": 2724, "pitch": 82, "duration": 7, "velocity": 112}, {"time": 2733, "pitch": 81, "duration": 2, "velocity": 108}, {"time": 2736, "pitch": 82, "duration": 5, "velocity": 112}, {"time": 2745, "pitch": 82, "duration": 2, "velocity": 102}, {"time": 2748, "pitch": 82, "duration": 4, "velocity": 102}, {"time": 2754, "pitch": 84, "duration": 3, "velocity": 102}, {"time": 2760, "pitch": 81, "duration": 7, "velocity": 108}, {"time": 2769, "pitch": 79, "duration": 2, "velocity": 111}, {"time": 2772, "pitch": 81, "duration": 8, "velocity": 114}, {"time": 2781, "pitch": 79, "duration": 2, "velocity": 108}, {"time": 2784, "pitch": 81, "duration": 5, "velocity": 117}, {"time": 2793, "pitch": 81, "duration": 2, "velocity": 102}, {"time": 2796, "pitch": 81, "duration": 4, "velocity": 114}, {"time": 2802, "pitch": 82, "duration": 4, "velocity": 109}, {"time": 2808, "pitch": 79, "duration": 8, "velocity": 111}, {"time": 2817, "pitch": 77, "duration": 2, "velocity": 105}, {"time": 2820, "pitch": 79, "duration": 8, "velocity": 111}, {"time": 2829, "pitch": 77, "duration": 2, "velocity": 111}, {"time": 2832, "pitch": 79, "duration": 5, "velocity": 117}, {"time": 2841, "pitch": 79, "duration": 2, "velocity": 111}, {"time": 2844, "pitch": 79, "duration": 3, "velocity": 97}, {"time": 2850, "pitch": 81, "duration": 4, "velocity": 111}, {"time": 2856, "pitch": 77, "duration": 8, "velocity": 105}, {"time": 2865, "pitch": 75, "duration": 2, "velocity": 105}, {"time": 2868, "pitch": 77, "duration": 7, "velocity": 105}, {"time": 2877, "pitch": 75, "duration": 2, "velocity": 102}, {"time": 2880, "pitch": 77, "duration": 5, "velocity": 102}, {"time": 2889, "pitch": 82, "duration": 2, "velocity": 105}, {"time": 2892, "pitch": 82, "duration": 3, "velocity": 105}, {"time": 2898, "pitch": 81, "duration": 4, "velocity": 117}, {"time": 2904, "pitch": 82, "duration": 7, "velocity": 109}, {"time": 2913, "pitch": 81, "duration": 2, "velocity": 111}, {"time": 2916, "pitch": 82, "duration": 8, "velocity": 105}, {"time": 2925, "pitch": 81, "duration": 2, "velocity": 105}, {"time": 2928, "pitch": 82, "duration": 6, "velocity": 105}, {"time": 2937, "pitch": 82, "duration": 1, "velocity": 105}, {"time": 2940, "pitch": 82, "duration": 4, "velocity": 96}, {"time": 2946, "pitch": 84, "duration": 3, "velocity": 102}, {"time": 2952, "pitch": 81, "duration": 7, "velocity": 108}, {"time": 2961, "pitch": 79, "duration": 2, "velocity": 105}, {"time": 2964, "pitch": 81, "duration": 7, "velocity": 111}, {"time": 2973, "pitch": 79, "duration": 2, "velocity": 105}, {"time": 2976, "pitch": 81, "duration": 4, "velocity": 111}, {"time": 2985, "pitch": 79, "duration": 2, "velocity": 97}, {"time": 2988, "pitch": 79, "duration": 4, "velocity": 105}, {"time": 2994, "pitch": 77, "duration": 5, "velocity": 105}, {"time": 3000, "pitch": 79, "duration": 12, "velocity": 111}, {"time": 3024, "pitch": 77, "duration": 12, "velocity": 111}, {"time": 3036, "pitch": 82, "duration": 10, "velocity": 105}, {"time": 3048, "pitch": 79, "duration": 33, "velocity": 108}, {"time": 3084, "pitch": 82, "duration": 5, "velocity": 109}, {"time": 3090, "pitch": 81, "duration": 3, "velocity": 114}, {"time": 3096, "pitch": 82, "duration": 5, "velocity": 112}, {"time": 3105, "pitch": 81, "duration": 2, "velocity": 108}, {"time": 3108, "pitch": 82, "duration": 7, "velocity": 112}, {"time": 3117, "pitch": 81, "duration": 2, "velocity": 108}, {"time": 3120, "pitch": 82, "duration": 5, "velocity": 112}, {"time": 3129, "pitch": 82, "duration": 2, "velocity": 102}, {"time": 3132, "pitch": 82, "duration": 4, "velocity": 102}, {"time": 3138, "pitch": 84, "duration": 3, "velocity": 102}, {"time": 3144, "pitch": 81, "duration": 7, "velocity": 108}, {"time": 3153, "pitch": 79, "duration": 2, "velocity": 111}, {"time": 3156, "pitch": 81, "duration": 8, "velocity": 114}, {"time": 3165, "pitch": 79, "duration": 2, "velocity": 108}, {"time": 3168, "pitch": 81, "duration": 5, "velocity": 117}, {"time": 3177, "pitch": 81, "duration": 2, "velocity": 102}, {"time": 3180, "pitch": 81, "duration": 4, "velocity": 114}, {"time": 3186, "pitch": 82, "duration": 4, "velocity": 109}, {"time": 3192, "pitch": 79, "duration": 8, "velocity": 111}, {"time": 3201, "pitch": 77, "duration": 2, "velocity": 105}, {"time": 3204, "pitch": 79, "duration": 8, "velocity": 111}, {"time": 3213, "pitch": 77, "duration": 2, "velocity": 111}, {"time": 3216, "pitch": 79, "duration": 5, "velocity": 117}, {"time": 3225, "pitch": 79, "duration": 2, "velocity": 111}, {"time": 3228, "pitch": 79, "duration": 3, "velocity": 97}, {"time": 3234, "pitch": 81, "duration": 4, "velocity": 111}, {"time": 3240, "pitch": 77, "duration": 8, "velocity": 105}, {"time": 3249, "pitch": 75, "duration": 2, "velocity": 105}, {"time": 3252, "pitch": 77, "duration": 7, "velocity": 105}, {"time": 3261, "pitch": 75, "duration": 2, "velocity": 102}, {"time": 3264, "pitch": 77, "duration": 5, "velocity": 102}, {"time": 3273, "pitch": 82, "duration": 2, "velocity": 105}, {"time": 3276, "pitch": 82, "duration": 3, "velocity": 105}, {"time": 3282, "pitch": 81, "duration": 4, "velocity": 117}, {"time": 3288, "pitch": 82, "duration": 7, "velocity": 109}, {"time": 3297, "pitch": 81, "duration": 2, "velocity": 111}, {"time": 3300, "pitch": 82, "duration": 8, "velocity": 105}, {"time": 3309, "pitch": 81, "duration": 2, "velocity": 105}, {"time": 3312, "pitch": 82, "duration": 6, "velocity": 105}, {"time": 3321, "pitch": 82, "duration": 1, "velocity": 105}, {"time": 3324, "pitch": 82, "duration": 4, "velocity": 96}, {"time": 3330, "pitch": 84, "duration": 3, "velocity": 102}, {"time": 3336, "pitch": 81, "duration": 7, "velocity": 108}, {"time": 3345, "pitch": 79, "duration": 2, "velocity": 105}, {"time": 3348, "pitch": 81, "duration": 7, "velocity": 111}, {"time": 3357, "pitch": 79, "duration": 2, "velocity": 105}, {"time": 3360, "pitch": 81, "duration": 4, "velocity": 111}, {"time": 3369, "pitch": 79, "duration": 2, "velocity": 97}, {"time": 3372, "pitch": 79, "duration": 4, "velocity": 105}, {"time": 3378, "pitch": 77, "duration": 5, "velocity": 105}, {"time": 3384, "pitch": 79, "duration": 12, "velocity": 111}, {"time": 3408, "pitch": 77, "duration": 12, "velocity": 111}, {"time": 3420, "pitch": 82, "duration": 10, "velocity": 105}, {"time": 3432, "pitch": 79, "duration": 33, "velocity": 108}]}, {"program": 0, "is_drum": false, "name": "PIANO", "notes": [{"time": 24, "pitch": 43, "duration": 22, "velocity": 105}, {"time": 24, "pitch": 58, "duration": 10, "velocity": 63}, {"time": 24, "pitch": 62, "duration": 11, "velocity": 94}, {"time": 24, "pitch": 65, "duration": 10, "velocity": 94}, {"time": 30, "pitch": 50, "duration": 10, "velocity": 58}, {"time": 33, "pitch": 55, "duration": 7, "velocity": 87}, {"time": 39, "pitch": 62, "duration": 3, "velocity": 94}, {"time": 39, "pitch": 65, "duration": 17, "velocity": 100}, {"time": 45, "pitch": 55, "duration": 7, "velocity": 58}, {"time": 45, "pitch": 62, "duration": 11, "velocity": 1}, {"time": 48, "pitch": 43, "duration": 20, "velocity": 100}, {"time": 51, "pitch": 50, "duration": 8, "velocity": 51}, {"time": 54, "pitch": 55, "duration": 9, "velocity": 82}, {"time": 57, "pitch": 58, "duration": 10, "velocity": 102}, {"time": 57, "pitch": 62, "duration": 15, "velocity": 100}, {"time": 57, "pitch": 65, "duration": 17, "velocity": 102}, {"time": 66, "pitch": 50, "duration": 2, "velocity": 66}, {"time": 69, "pitch": 55, "duration": 3, "velocity": 92}, {"time": 69, "pitch": 58, "duration": 1, "velocity": 2}, {"time": 72, "pitch": 51, "duration": 21, "velocity": 116}, {"time": 75, "pitch": 58, "duration": 10, "velocity": 77}, {"time": 81, "pitch": 63, "duration": 8, "velocity": 79}, {"time": 81, "pitch": 65, "duration": 14, "velocity": 97}, {"time": 90, "pitch": 58, "duration": 5, "velocity": 85}, {"time": 93, "pitch": 63, "duration": 5, "velocity": 112}, {"time": 96, "pitch": 51, "duration": 18, "velocity": 112}, {"time": 99, "pitch": 58, "duration": 8, "velocity": 90}, {"time": 102, "pitch": 63, "duration": 3, "velocity": 90}, {"time": 105, "pitch": 63, "duration": 3, "velocity": 93}, {"time": 105, "pitch": 65, "duration": 14, "velocity": 105}, {"time": 114, "pitch": 58, "duration": 2, "velocity": 96}, {"time": 117, "pitch": 63, "duration": 3, "velocity": 96}, {"time": 120, "pitch": 46, "duration": 23, "velocity": 112}, {"time": 126, "pitch": 58, "duration": 2, "velocity": 85}, {"time": 129, "pitch": 58, "duration": 1, "velocity": 59}, {"time": 129, "pitch": 62, "duration": 11, "velocity": 108}, {"time": 138, "pitch": 53, "duration": 4, "velocity": 82}, {"time": 141, "pitch": 58, "duration": 6, "velocity": 109}, {"time": 144, "pitch": 46, "duration": 15, "velocity": 99}, {"time": 147, "pitch": 53, "duration": 8, "velocity": 60}, {"time": 150, "pitch": 58, "duration": 2, "velocity": 102}, {"time": 153, "pitch": 58, "duration": 9, "velocity": 102}, {"time": 153, "pitch": 62, "duration": 10, "velocity": 100}, {"time": 156, "pitch": 53, "duration": 3, "velocity": 28}, {"time": 162, "pitch": 46, "duration": 4, "velocity": 99}, {"time": 165, "pitch": 58, "duration": 4, "velocity": 102}, {"time": 165, "pitch": 62, "duration": 4, "velocity": 94}, {"time": 168, "pitch": 41, "duration": 22, "velocity": 108}, {"time": 171, "pitch": 48, "duration": 8, "velocity": 48}, {"time": 174, "pitch": 53, "duration": 11, "velocity": 92}, {"time": 177, "pitch": 57, "duration": 8, "velocity": 105}, {"time": 177, "pitch": 65, "duration": 8, "velocity": 84}, {"time": 186, "pitch": 57, "duration": 9, "velocity": 82}, {"time": 186, "pitch": 60, "duration": 14, "velocity": 102}, {"time": 189, "pitch": 53, "duration": 6, "velocity": 97}, {"time": 192, "pitch": 41, "duration": 20, "velocity": 105}, {"time": 195, "pitch": 48, "duration": 7, "velocity": 67}, {"time": 198, "pitch": 53, "duration": 2, "velocity": 76}, {"time": 201, "pitch": 53, "duration": 9, "velocity": 78}, {"time": 201, "pitch": 57, "duration": 14, "velocity": 105}, {"time": 201, "pitch": 60, "duration": 15, "velocity": 80}, {"time": 201, "pitch": 65, "duration": 18, "velocity": 100}, {"time": 210, "pitch": 48, "duration": 4, "velocity": 82}, {"time": 213, "pitch": 53, "duration": 3, "velocity": 80}, {"time": 216, "pitch": 43, "duration": 22, "velocity": 102}, {"time": 216, "pitch": 58, "duration": 17, "velocity": 57}, {"time": 216, "pitch": 65, "duration": 3, "velocity": 89}, {"time": 222, "pitch": 50, "duration": 15, "velocity": 67}, {"time": 225, "pitch": 55, "duration": 11, "velocity": 80}, {"time": 234, "pitch": 58, "duration": 13, "velocity": 52}, {"time": 234, "pitch": 62, "duration": 13, "velocity": 94}, {"time": 234, "pitch": 65, "duration": 13, "velocity": 97}, {"time": 237, "pitch": 55, "duration": 7, "velocity": 82}, {"time": 240, "pitch": 43, "duration": 20, "velocity": 105}, {"time": 243, "pitch": 50, "duration": 9, "velocity": 78}, {"time": 246, "pitch": 55, "duration": 13, "velocity": 82}, {"time": 249, "pitch": 58, "duration": 15, "velocity": 102}, {"time": 249, "pitch": 62, "duration": 15, "velocity": 105}, {"time": 249, "pitch": 65, "duration": 18, "velocity": 105}, {"time": 258, "pitch": 50, "duration": 3, "velocity": 89}, {"time": 261, "pitch": 55, "duration": 3, "velocity": 87}, {"time": 264, "pitch": 51, "duration": 20, "velocity": 102}, {"time": 267, "pitch": 58, "duration": 11, "velocity": 90}, {"time": 273, "pitch": 65, "duration": 11, "velocity": 102}, {"time": 282, "pitch": 58, "duration": 4, "velocity": 102}, {"time": 285, "pitch": 63, "duration": 5, "velocity": 96}, {"time": 288, "pitch": 51, "duration": 16, "velocity": 109}, {"time": 291, "pitch": 58, "duration": 8, "velocity": 87}, {"time": 294, "pitch": 63, "duration": 2, "velocity": 87}, {"time": 297, "pitch": 63, "duration": 1, "velocity": 87}, {"time": 297, "pitch": 65, "duration": 13, "velocity": 108}, {"time": 306, "pitch": 58, "duration": 2, "velocity": 109}, {"time": 309, "pitch": 63, "duration": 3, "velocity": 99}, {"time": 312, "pitch": 46, "duration": 20, "velocity": 109}, {"time": 315, "pitch": 53, "duration": 9, "velocity": 100}, {"time": 318, "pitch": 58, "duration": 2, "velocity": 105}, {"time": 321, "pitch": 58, "duration": 9, "velocity": 102}, {"time": 321, "pitch": 62, "duration": 10, "velocity": 105}, {"time": 330, "pitch": 53, "duration": 5, "velocity": 66}, {"time": 333, "pitch": 58, "duration": 3, "velocity": 82}, {"time": 333, "pitch": 62, "duration": 3, "velocity": 41}, {"time": 336, "pitch": 46, "duration": 20, "velocity": 109}, {"time": 336, "pitch": 58, "duration": 7, "velocity": 63}, {"time": 336, "pitch": 62, "duration": 7, "velocity": 89}, {"time": 336, "pitch": 65, "duration": 7, "velocity": 92}, {"time": 342, "pitch": 53, "duration": 5, "velocity": 73}, {"time": 345, "pitch": 58, "duration": 10, "velocity": 99}, {"time": 345, "pitch": 62, "duration": 15, "velocity": 97}, {"time": 354, "pitch": 53, "duration": 3, "velocity": 78}, {"time": 357, "pitch": 58, "duration": 3, "velocity": 105}, {"time": 360, "pitch": 41, "duration": 21, "velocity": 100}, {"time": 360, "pitch": 53, "duration": 8, "velocity": 84}, {"time": 360, "pitch": 57, "duration": 7, "velocity": 97}, {"time": 366, "pitch": 48, "duration": 5, "velocity": 58}, {"time": 369, "pitch": 53, "duration": 6, "velocity": 50}, {"time": 369, "pitch": 57, "duration": 7, "velocity": 89}, {"time": 369, "pitch": 60, "duration": 7, "velocity": 89}, {"time": 369, "pitch": 65, "duration": 7, "velocity": 76}, {"time": 378, "pitch": 57, "duration": 8, "velocity": 114}, {"time": 378, "pitch": 60, "duration": 9, "velocity": 108}, {"time": 378, "pitch": 65, "duration": 12, "velocity": 100}, {"time": 384, "pitch": 41, "duration": 20, "velocity": 97}, {"time": 387, "pitch": 48, "duration": 14, "velocity": 80}, {"time": 396, "pitch": 65, "duration": 3, "velocity": 114}, {"time": 399, "pitch": 67, "duration": 4, "velocity": 97}, {"time": 402, "pitch": 69, "duration": 4, "velocity": 105}, {"time": 405, "pitch": 65, "duration": 3, "velocity": 82}, {"time": 408, "pitch": 43, "duration": 39, "velocity": 102}, {"time": 408, "pitch": 62, "duration": 9, "velocity": 78}, {"time": 408, "pitch": 67, "duration": 9, "velocity": 92}, {"time": 408, "pitch": 70, "duration": 10, "velocity": 79}, {"time": 414, "pitch": 50, "duration": 9, "velocity": 43}, {"time": 420, "pitch": 62, "duration": 8, "velocity": 97}, {"time": 420, "pitch": 67, "duration": 9, "velocity": 102}, {"time": 426, "pitch": 50, "duration": 8, "velocity": 32}, {"time": 432, "pitch": 62, "duration": 8, "velocity": 78}, {"time": 432, "pitch": 67, "duration": 8, "velocity": 89}, {"time": 438, "pitch": 50, "duration": 8, "velocity": 36}, {"time": 444, "pitch": 62, "duration": 5, "velocity": 94}, {"time": 444, "pitch": 67, "duration": 9, "velocity": 108}, {"time": 444, "pitch": 70, "duration": 10, "velocity": 102}, {"time": 450, "pitch": 62, "duration": 3, "velocity": 60}, {"time": 456, "pitch": 51, "duration": 40, "velocity": 93}, {"time": 456, "pitch": 67, "duration": 8, "velocity": 100}, {"time": 456, "pitch": 70, "duration": 8, "velocity": 63}, {"time": 462, "pitch": 58, "duration": 9, "velocity": 33}, {"time": 468, "pitch": 63, "duration": 7, "velocity": 87}, {"time": 468, "pitch": 67, "duration": 7, "velocity": 97}, {"time": 468, "pitch": 70, "duration": 7, "velocity": 85}, {"time": 474, "pitch": 58, "duration": 9, "velocity": 27}, {"time": 480, "pitch": 63, "duration": 10, "velocity": 50}, {"time": 480, "pitch": 67, "duration": 8, "velocity": 100}, {"time": 486, "pitch": 58, "duration": 9, "velocity": 17}, {"time": 492, "pitch": 63, "duration": 6, "velocity": 93}, {"time": 492, "pitch": 67, "duration": 6, "velocity": 105}, {"time": 492, "pitch": 70, "duration": 6, "velocity": 96}, {"time": 504, "pitch": 46, "duration": 21, "velocity": 96}, {"time": 504, "pitch": 58, "duration": 9, "velocity": 93}, {"time": 504, "pitch": 62, "duration": 10, "velocity": 100}, {"time": 510, "pitch": 53, "duration": 11, "velocity": 41}, {"time": 516, "pitch": 58, "duration": 5, "velocity": 96}, {"time": 516, "pitch": 62, "duration": 20, "velocity": 105}, {"time": 516, "pitch": 70, "duration": 9, "velocity": 87}, {"time": 522, "pitch": 58, "duration": 10, "velocity": 70}, {"time": 528, "pitch": 46, "duration": 16, "velocity": 55}, {"time": 534, "pitch": 53, "duration": 8, "velocity": 57}, {"time": 540, "pitch": 58, "duration": 8, "velocity": 105}, {"time": 540, "pitch": 62, "duration": 7, "velocity": 108}, {"time": 546, "pitch": 46, "duration": 4, "velocity": 102}, {"time": 552, "pitch": 41, "duration": 20, "velocity": 100}, {"time": 552, "pitch": 53, "duration": 14, "velocity": 64}, {"time": 552, "pitch": 57, "duration": 10, "velocity": 89}, {"time": 558, "pitch": 48, "duration": 9, "velocity": 45}, {"time": 564, "pitch": 57, "duration": 8, "velocity": 92}, {"time": 564, "pitch": 60, "duration": 10, "velocity": 102}, {"time": 570, "pitch": 53, "duration": 5, "velocity": 53}, {"time": 576, "pitch": 57, "duration": 3, "velocity": 102}, {"time": 576, "pitch": 60, "duration": 3, "velocity": 80}, {"time": 576, "pitch": 65, "duration": 5, "velocity": 97}, {"time": 582, "pitch": 41, "duration": 13, "velocity": 36}, {"time": 582, "pitch": 48, "duration": 8, "velocity": 49}, {"time": 588, "pitch": 65, "duration": 5, "velocity": 100}, {"time": 588, "pitch": 69, "duration": 6, "velocity": 114}, {"time": 594, "pitch": 48, "duration": 4, "velocity": 78}, {"time": 600, "pitch": 43, "duration": 38, "velocity": 105}, {"time": 600, "pitch": 67, "duration": 7, "velocity": 92}, {"time": 600, "pitch": 70, "duration": 8, "velocity": 93}, {"time": 606, "pitch": 50, "duration": 9, "velocity": 55}, {"time": 612, "pitch": 62, "duration": 8, "velocity": 94}, {"time": 612, "pitch": 67, "duration": 8, "velocity": 94}, {"time": 618, "pitch": 50, "duration": 8, "velocity": 39}, {"time": 624, "pitch": 62, "duration": 10, "velocity": 89}, {"time": 624, "pitch": 70, "duration": 12, "velocity": 79}, {"time": 630, "pitch": 50, "duration": 8, "velocity": 44}, {"time": 636, "pitch": 62, "duration": 3, "velocity": 94}, {"time": 636, "pitch": 67, "duration": 8, "velocity": 105}, {"time": 642, "pitch": 62, "duration": 2, "velocity": 80}, {"time": 648, "pitch": 51, "duration": 28, "velocity": 99}, {"time": 648, "pitch": 63, "duration": 10, "velocity": 87}, {"time": 648, "pitch": 70, "duration": 10, "velocity": 72}, {"time": 654, "pitch": 58, "duration": 9, "velocity": 43}, {"time": 660, "pitch": 63, "duration": 10, "velocity": 77}, {"time": 660, "pitch": 67, "duration": 8, "velocity": 102}, {"time": 666, "pitch": 58, "duration": 8, "velocity": 32}, {"time": 672, "pitch": 63, "duration": 10, "velocity": 90}, {"time": 672, "pitch": 70, "duration": 10, "velocity": 72}, {"time": 678, "pitch": 58, "duration": 5, "velocity": 30}, {"time": 684, "pitch": 63, "duration": 4, "velocity": 90}, {"time": 684, "pitch": 67, "duration": 4, "velocity": 108}, {"time": 684, "pitch": 70, "duration": 5, "velocity": 87}, {"time": 696, "pitch": 46, "duration": 39, "velocity": 77}, {"time": 696, "pitch": 58, "duration": 10, "velocity": 65}, {"time": 696, "pitch": 70, "duration": 9, "velocity": 82}, {"time": 702, "pitch": 53, "duration": 9, "velocity": 42}, {"time": 708, "pitch": 58, "duration": 9, "velocity": 82}, {"time": 708, "pitch": 62, "duration": 7, "velocity": 102}, {"time": 714, "pitch": 53, "duration": 9, "velocity": 50}, {"time": 720, "pitch": 58, "duration": 10, "velocity": 96}, {"time": 720, "pitch": 62, "duration": 9, "velocity": 100}, {"time": 720, "pitch": 70, "duration": 10, "velocity": 74}, {"time": 726, "pitch": 53, "duration": 9, "velocity": 52}, {"time": 732, "pitch": 58, "duration": 4, "velocity": 99}, {"time": 732, "pitch": 62, "duration": 3, "velocity": 97}, {"time": 738, "pitch": 46, "duration": 2, "velocity": 105}, {"time": 744, "pitch": 41, "duration": 23, "velocity": 100}, {"time": 744, "pitch": 57, "duration": 8, "velocity": 87}, {"time": 744, "pitch": 60, "duration": 10, "velocity": 92}, {"time": 750, "pitch": 48, "duration": 8, "velocity": 44}, {"time": 756, "pitch": 57, "duration": 3, "velocity": 97}, {"time": 756, "pitch": 60, "duration": 7, "velocity": 100}, {"time": 756, "pitch": 65, "duration": 5, "velocity": 97}, {"time": 762, "pitch": 57, "duration": 5, "velocity": 57}, {"time": 768, "pitch": 57, "duration": 8, "velocity": 94}, {"time": 768, "pitch": 60, "duration": 9, "velocity": 102}, {"time": 768, "pitch": 69, "duration": 12, "velocity": 100}, {"time": 774, "pitch": 48, "duration": 8, "velocity": 58}, {"time": 780, "pitch": 57, "duration": 10, "velocity": 97}, {"time": 780, "pitch": 60, "duration": 10, "velocity": 100}, {"time": 780, "pitch": 65, "duration": 10, "velocity": 87}, {"time": 786, "pitch": 48, "duration": 4, "velocity": 84}, {"time": 792, "pitch": 43, "duration": 39, "velocity": 92}, {"time": 792, "pitch": 55, "duration": 8, "velocity": 78}, {"time": 792, "pitch": 58, "duration": 8, "velocity": 79}, {"time": 792, "pitch": 62, "duration": 7, "velocity": 78}, {"time": 798, "pitch": 50, "duration": 8, "velocity": 52}, {"time": 804, "pitch": 55, "duration": 8, "velocity": 92}, {"time": 804, "pitch": 58, "duration": 9, "velocity": 105}, {"time": 810, "pitch": 50, "duration": 9, "velocity": 64}, {"time": 816, "pitch": 55, "duration": 10, "velocity": 89}, {"time": 816, "pitch": 58, "duration": 10, "velocity": 90}, {"time": 816, "pitch": 62, "duration": 10, "velocity": 94}, {"time": 822, "pitch": 50, "duration": 9, "velocity": 53}, {"time": 828, "pitch": 55, "duration": 7, "velocity": 97}, {"time": 828, "pitch": 58, "duration": 7, "velocity": 116}, {"time": 828, "pitch": 62, "duration": 7, "velocity": 108}, {"time": 834, "pitch": 43, "duration": 4, "velocity": 97}, {"time": 840, "pitch": 41, "duration": 28, "velocity": 100}, {"time": 840, "pitch": 53, "duration": 11, "velocity": 80}, {"time": 840, "pitch": 57, "duration": 9, "velocity": 92}, {"time": 846, "pitch": 48, "duration": 8, "velocity": 31}, {"time": 852, "pitch": 53, "duration": 1, "velocity": 44}, {"time": 852, "pitch": 57, "duration": 10, "velocity": 105}, {"time": 852, "pitch": 60, "duration": 10, "velocity": 100}, {"time": 858, "pitch": 48, "duration": 8, "velocity": 31}, {"time": 864, "pitch": 57, "duration": 10, "velocity": 114}, {"time": 864, "pitch": 60, "duration": 10, "velocity": 100}, {"time": 864, "pitch": 65, "duration": 10, "velocity": 97}, {"time": 870, "pitch": 53, "duration": 6, "velocity": 48}, {"time": 876, "pitch": 57, "duration": 6, "velocity": 102}, {"time": 876, "pitch": 60, "duration": 6, "velocity": 94}, {"time": 876, "pitch": 65, "duration": 9, "velocity": 102}, {"time": 882, "pitch": 53, "duration": 2, "velocity": 67}, {"time": 888, "pitch": 51, "duration": 33, "velocity": 105}, {"time": 888, "pitch": 63, "duration": 6, "velocity": 93}, {"time": 888, "pitch": 67, "duration": 10, "velocity": 100}, {"time": 894, "pitch": 58, "duration": 8, "velocity": 46}, {"time": 900, "pitch": 63, "duration": 4, "velocity": 105}, {"time": 900, "pitch": 67, "duration": 4, "velocity": 102}, {"time": 906, "pitch": 58, "duration": 9, "velocity": 28}, {"time": 912, "pitch": 63, "duration": 9, "velocity": 96}, {"time": 912, "pitch": 70, "duration": 10, "velocity": 93}, {"time": 918, "pitch": 58, "duration": 3, "velocity": 41}, {"time": 924, "pitch": 63, "duration": 3, "velocity": 99}, {"time": 924, "pitch": 67, "duration": 7, "velocity": 105}, {"time": 930, "pitch": 63, "duration": 2, "velocity": 99}, {"time": 936, "pitch": 46, "duration": 15, "velocity": 93}, {"time": 936, "pitch": 58, "duration": 14, "velocity": 72}, {"time": 936, "pitch": 62, "duration": 9, "velocity": 100}, {"time": 942, "pitch": 53, "duration": 12, "velocity": 71}, {"time": 948, "pitch": 62, "duration": 7, "velocity": 97}, {"time": 948, "pitch": 65, "duration": 10, "velocity": 102}, {"time": 954, "pitch": 58, "duration": 2, "velocity": 99}, {"time": 960, "pitch": 41, "duration": 17, "velocity": 94}, {"time": 960, "pitch": 57, "duration": 5, "velocity": 94}, {"time": 960, "pitch": 60, "duration": 10, "velocity": 100}, {"time": 966, "pitch": 48, "duration": 8, "velocity": 53}, {"time": 972, "pitch": 57, "duration": 1, "velocity": 73}, {"time": 972, "pitch": 60, "duration": 7, "velocity": 111}, {"time": 972, "pitch": 65, "duration": 12, "velocity": 94}, {"time": 978, "pitch": 57, "duration": 4, "velocity": 105}, {"time": 984, "pitch": 43, "duration": 15, "velocity": 105}, {"time": 984, "pitch": 55, "duration": 11, "velocity": 76}, {"time": 984, "pitch": 58, "duration": 9, "velocity": 63}, {"time": 984, "pitch": 62, "duration": 9, "velocity": 82}, {"time": 990, "pitch": 50, "duration": 8, "velocity": 48}, {"time": 996, "pitch": 58, "duration": 8, "velocity": 99}, {"time": 996, "pitch": 62, "duration": 10, "velocity": 105}, {"time": 1002, "pitch": 55, "duration": 10, "velocity": 82}, {"time": 1008, "pitch": 58, "duration": 11, "velocity": 77}, {"time": 1008, "pitch": 62, "duration": 10, "velocity": 97}, {"time": 1008, "pitch": 67, "duration": 10, "velocity": 102}, {"time": 1014, "pitch": 50, "duration": 12, "velocity": 57}, {"time": 1020, "pitch": 55, "duration": 1, "velocity": 78}, {"time": 1020, "pitch": 58, "duration": 7, "velocity": 105}, {"time": 1020, "pitch": 62, "duration": 6, "velocity": 102}, {"time": 1026, "pitch": 55, "duration": 4, "velocity": 111}, {"time": 1032, "pitch": 41, "duration": 37, "velocity": 94}, {"time": 1032, "pitch": 53, "duration": 14, "velocity": 94}, {"time": 1032, "pitch": 57, "duration": 21, "velocity": 94}, {"time": 1038, "pitch": 48, "duration": 22, "velocity": 55}, {"time": 1044, "pitch": 60, "duration": 10, "velocity": 87}, {"time": 1050, "pitch": 53, "duration": 12, "velocity": 94}, {"time": 1056, "pitch": 57, "duration": 9, "velocity": 117}, {"time": 1056, "pitch": 60, "duration": 10, "velocity": 108}, {"time": 1056, "pitch": 65, "duration": 9, "velocity": 92}, {"time": 1062, "pitch": 48, "duration": 7, "velocity": 82}, {"time": 1068, "pitch": 57, "duration": 6, "velocity": 111}, {"time": 1068, "pitch": 60, "duration": 6, "velocity": 102}, {"time": 1068, "pitch": 65, "duration": 8, "velocity": 94}, {"time": 1074, "pitch": 53, "duration": 2, "velocity": 102}, {"time": 1080, "pitch": 51, "duration": 33, "velocity": 105}, {"time": 1080, "pitch": 63, "duration": 9, "velocity": 65}, {"time": 1080, "pitch": 67, "duration": 10, "velocity": 92}, {"time": 1086, "pitch": 58, "duration": 8, "velocity": 63}, {"time": 1092, "pitch": 63, "duration": 4, "velocity": 102}, {"time": 1092, "pitch": 67, "duration": 4, "velocity": 105}, {"time": 1098, "pitch": 58, "duration": 9, "velocity": 50}, {"time": 1104, "pitch": 63, "duration": 10, "velocity": 102}, {"time": 1104, "pitch": 70, "duration": 11, "velocity": 96}, {"time": 1110, "pitch": 58, "duration": 3, "velocity": 61}, {"time": 1116, "pitch": 63, "duration": 2, "velocity": 96}, {"time": 1116, "pitch": 67, "duration": 6, "velocity": 102}, {"time": 1122, "pitch": 63, "duration": 2, "velocity": 99}, {"time": 1128, "pitch": 46, "duration": 20, "velocity": 85}, {"time": 1128, "pitch": 58, "duration": 11, "velocity": 68}, {"time": 1128, "pitch": 62, "duration": 9, "velocity": 94}, {"time": 1134, "pitch": 53, "duration": 8, "velocity": 66}, {"time": 1140, "pitch": 58, "duration": 6, "velocity": 38}, {"time": 1140, "pitch": 62, "duration": 11, "velocity": 105}, {"time": 1140, "pitch": 65, "duration": 14, "velocity": 105}, {"time": 1146, "pitch": 53, "duration": 3, "velocity": 67}, {"time": 1149, "pitch": 58, "duration": 4, "velocity": 99}, {"time": 1152, "pitch": 41, "duration": 20, "velocity": 105}, {"time": 1155, "pitch": 48, "duration": 11, "velocity": 62}, {"time": 1158, "pitch": 53, "duration": 8, "velocity": 102}, {"time": 1164, "pitch": 57, "duration": 10, "velocity": 117}, {"time": 1164, "pitch": 60, "duration": 11, "velocity": 108}, {"time": 1170, "pitch": 48, "duration": 5, "velocity": 84}, {"time": 1176, "pitch": 43, "duration": 38, "velocity": 100}, {"time": 1176, "pitch": 55, "duration": 8, "velocity": 73}, {"time": 1176, "pitch": 62, "duration": 8, "velocity": 84}, {"time": 1182, "pitch": 50, "duration": 8, "velocity": 67}, {"time": 1188, "pitch": 55, "duration": 9, "velocity": 100}, {"time": 1188, "pitch": 58, "duration": 8, "velocity": 109}, {"time": 1194, "pitch": 50, "duration": 9, "velocity": 58}, {"time": 1200, "pitch": 58, "duration": 10, "velocity": 93}, {"time": 1200, "pitch": 62, "duration": 11, "velocity": 94}, {"time": 1206, "pitch": 50, "duration": 8, "velocity": 50}, {"time": 1212, "pitch": 58, "duration": 4, "velocity": 102}, {"time": 1212, "pitch": 62, "duration": 5, "velocity": 108}, {"time": 1212, "pitch": 67, "duration": 6, "velocity": 100}, {"time": 1218, "pitch": 43, "duration": 2, "velocity": 94}, {"time": 1224, "pitch": 50, "duration": 39, "velocity": 102}, {"time": 1224, "pitch": 60, "duration": 9, "velocity": 71}, {"time": 1224, "pitch": 65, "duration": 10, "velocity": 92}, {"time": 1230, "pitch": 57, "duration": 9, "velocity": 71}, {"time": 1236, "pitch": 62, "duration": 8, "velocity": 100}, {"time": 1236, "pitch": 65, "duration": 8, "velocity": 105}, {"time": 1242, "pitch": 57, "duration": 9, "velocity": 80}, {"time": 1248, "pitch": 62, "duration": 9, "velocity": 94}, {"time": 1248, "pitch": 65, "duration": 8, "velocity": 102}, {"time": 1248, "pitch": 69, "duration": 8, "velocity": 102}, {"time": 1254, "pitch": 57, "duration": 9, "velocity": 58}, {"time": 1260, "pitch": 62, "duration": 5, "velocity": 100}, {"time": 1260, "pitch": 65, "duration": 3, "velocity": 102}, {"time": 1272, "pitch": 51, "duration": 23, "velocity": 99}, {"time": 1272, "pitch": 63, "duration": 8, "velocity": 90}, {"time": 1272, "pitch": 67, "duration": 7, "velocity": 89}, {"time": 1278, "pitch": 58, "duration": 9, "velocity": 59}, {"time": 1284, "pitch": 63, "duration": 2, "velocity": 102}, {"time": 1284, "pitch": 67, "duration": 2, "velocity": 94}, {"time": 1290, "pitch": 58, "duration": 7, "velocity": 33}, {"time": 1296, "pitch": 51, "duration": 15, "velocity": 90}, {"time": 1296, "pitch": 63, "duration": 10, "velocity": 93}, {"time": 1296, "pitch": 70, "duration": 9, "velocity": 74}, {"time": 1302, "pitch": 58, "duration": 7, "velocity": 45}, {"time": 1308, "pitch": 63, "duration": 4, "velocity": 102}, {"time": 1308, "pitch": 67, "duration": 6, "velocity": 105}, {"time": 1311, "pitch": 58, "duration": 2, "velocity": 87}, {"time": 1314, "pitch": 63, "duration": 3, "velocity": 105}, {"time": 1320, "pitch": 46, "duration": 15, "velocity": 102}, {"time": 1320, "pitch": 58, "duration": 14, "velocity": 102}, {"time": 1320, "pitch": 62, "duration": 8, "velocity": 102}, {"time": 1326, "pitch": 53, "duration": 12, "velocity": 87}, {"time": 1332, "pitch": 62, "duration": 8, "velocity": 111}, {"time": 1332, "pitch": 65, "duration": 9, "velocity": 105}, {"time": 1338, "pitch": 58, "duration": 5, "velocity": 74}, {"time": 1344, "pitch": 58, "duration": 11, "velocity": 68}, {"time": 1344, "pitch": 62, "duration": 10, "velocity": 94}, {"time": 1350, "pitch": 53, "duration": 10, "velocity": 44}, {"time": 1353, "pitch": 46, "duration": 3, "velocity": 1}, {"time": 1356, "pitch": 58, "duration": 5, "velocity": 96}, {"time": 1356, "pitch": 62, "duration": 6, "velocity": 105}, {"time": 1356, "pitch": 65, "duration": 7, "velocity": 108}, {"time": 1359, "pitch": 46, "duration": 5, "velocity": 96}, {"time": 1362, "pitch": 53, "duration": 5, "velocity": 102}, {"time": 1368, "pitch": 43, "duration": 38, "velocity": 100}, {"time": 1368, "pitch": 55, "duration": 8, "velocity": 73}, {"time": 1368, "pitch": 62, "duration": 8, "velocity": 84}, {"time": 1374, "pitch": 50, "duration": 8, "velocity": 67}, {"time": 1380, "pitch": 55, "duration": 9, "velocity": 100}, {"time": 1380, "pitch": 58, "duration": 8, "velocity": 109}, {"time": 1386, "pitch": 50, "duration": 9, "velocity": 58}, {"time": 1392, "pitch": 58, "duration": 10, "velocity": 93}, {"time": 1392, "pitch": 62, "duration": 11, "velocity": 94}, {"time": 1398, "pitch": 50, "duration": 8, "velocity": 50}, {"time": 1404, "pitch": 58, "duration": 4, "velocity": 102}, {"time": 1404, "pitch": 62, "duration": 5, "velocity": 108}, {"time": 1404, "pitch": 67, "duration": 6, "velocity": 100}, {"time": 1410, "pitch": 43, "duration": 2, "velocity": 94}, {"time": 1416, "pitch": 50, "duration": 39, "velocity": 102}, {"time": 1416, "pitch": 60, "duration": 9, "velocity": 71}, {"time": 1416, "pitch": 65, "duration": 10, "velocity": 92}, {"time": 1422, "pitch": 57, "duration": 9, "velocity": 71}, {"time": 1428, "pitch": 62, "duration": 8, "velocity": 100}, {"time": 1428, "pitch": 65, "duration": 8, "velocity": 105}, {"time": 1434, "pitch": 57, "duration": 9, "velocity": 80}, {"time": 1440, "pitch": 62, "duration": 9, "velocity": 94}, {"time": 1440, "pitch": 65, "duration": 8, "velocity": 102}, {"time": 1440, "pitch": 69, "duration": 8, "velocity": 102}, {"time": 1446, "pitch": 57, "duration": 9, "velocity": 58}, {"time": 1452, "pitch": 62, "duration": 5, "velocity": 100}, {"time": 1452, "pitch": 65, "duration": 3, "velocity": 102}, {"time": 1464, "pitch": 51, "duration": 12, "velocity": 99}, {"time": 1464, "pitch": 63, "duration": 9, "velocity": 99}, {"time": 1464, "pitch": 67, "duration": 9, "velocity": 89}, {"time": 1470, "pitch": 58, "duration": 6, "velocity": 55}, {"time": 1476, "pitch": 63, "duration": 5, "velocity": 112}, {"time": 1476, "pitch": 67, "duration": 6, "velocity": 102}, {"time": 1488, "pitch": 41, "duration": 16, "velocity": 97}, {"time": 1488, "pitch": 60, "duration": 9, "velocity": 71}, {"time": 1488, "pitch": 64, "duration": 1, "velocity": 69}, {"time": 1488, "pitch": 65, "duration": 9, "velocity": 73}, {"time": 1494, "pitch": 48, "duration": 11, "velocity": 57}, {"time": 1500, "pitch": 60, "duration": 4, "velocity": 102}, {"time": 1500, "pitch": 65, "duration": 9, "velocity": 105}, {"time": 1500, "pitch": 69, "duration": 10, "velocity": 102}, {"time": 1506, "pitch": 60, "duration": 3, "velocity": 80}, {"time": 1512, "pitch": 43, "duration": 48, "velocity": 102}, {"time": 1512, "pitch": 62, "duration": 7, "velocity": 80}, {"time": 1512, "pitch": 67, "duration": 6, "velocity": 80}, {"time": 1518, "pitch": 50, "duration": 8, "velocity": 60}, {"time": 1524, "pitch": 62, "duration": 9, "velocity": 100}, {"time": 1524, "pitch": 70, "duration": 11, "velocity": 93}, {"time": 1530, "pitch": 50, "duration": 10, "velocity": 60}, {"time": 1536, "pitch": 62, "duration": 9, "velocity": 73}, {"time": 1536, "pitch": 67, "duration": 9, "velocity": 94}, {"time": 1542, "pitch": 50, "duration": 9, "velocity": 50}, {"time": 1548, "pitch": 62, "duration": 6, "velocity": 82}, {"time": 1548, "pitch": 67, "duration": 11, "velocity": 97}, {"time": 1548, "pitch": 70, "duration": 12, "velocity": 85}, {"time": 1554, "pitch": 50, "duration": 7, "velocity": 67}, {"time": 1560, "pitch": 43, "duration": 39, "velocity": 94}, {"time": 1560, "pitch": 55, "duration": 10, "velocity": 67}, {"time": 1560, "pitch": 58, "duration": 10, "velocity": 54}, {"time": 1566, "pitch": 50, "duration": 9, "velocity": 62}, {"time": 1572, "pitch": 62, "duration": 6, "velocity": 94}, {"time": 1578, "pitch": 50, "duration": 9, "velocity": 58}, {"time": 1584, "pitch": 58, "duration": 10, "velocity": 54}, {"time": 1584, "pitch": 62, "duration": 10, "velocity": 87}, {"time": 1590, "pitch": 50, "duration": 8, "velocity": 44}, {"time": 1596, "pitch": 58, "duration": 7, "velocity": 41}, {"time": 1596, "pitch": 67, "duration": 11, "velocity": 97}, {"time": 1602, "pitch": 55, "duration": 2, "velocity": 97}, {"time": 1608, "pitch": 50, "duration": 43, "velocity": 102}, {"time": 1608, "pitch": 62, "duration": 14, "velocity": 58}, {"time": 1608, "pitch": 65, "duration": 9, "velocity": 73}, {"time": 1614, "pitch": 57, "duration": 8, "velocity": 64}, {"time": 1620, "pitch": 65, "duration": 7, "velocity": 80}, {"time": 1620, "pitch": 69, "duration": 7, "velocity": 82}, {"time": 1626, "pitch": 57, "duration": 9, "velocity": 51}, {"time": 1632, "pitch": 62, "duration": 9, "velocity": 73}, {"time": 1632, "pitch": 65, "duration": 9, "velocity": 78}, {"time": 1638, "pitch": 57, "duration": 8, "velocity": 51}, {"time": 1644, "pitch": 62, "duration": 10, "velocity": 92}, {"time": 1644, "pitch": 65, "duration": 7, "velocity": 100}, {"time": 1650, "pitch": 57, "duration": 3, "velocity": 82}, {"time": 1656, "pitch": 51, "duration": 39, "velocity": 96}, {"time": 1656, "pitch": 63, "duration": 10, "velocity": 72}, {"time": 1656, "pitch": 67, "duration": 10, "velocity": 80}, {"time": 1662, "pitch": 58, "duration": 8, "velocity": 41}, {"time": 1668, "pitch": 63, "duration": 10, "velocity": 90}, {"time": 1668, "pitch": 67, "duration": 9, "velocity": 97}, {"time": 1674, "pitch": 58, "duration": 9, "velocity": 52}, {"time": 1680, "pitch": 63, "duration": 6, "velocity": 57}, {"time": 1680, "pitch": 67, "duration": 6, "velocity": 92}, {"time": 1686, "pitch": 58, "duration": 8, "velocity": 34}, {"time": 1692, "pitch": 63, "duration": 5, "velocity": 77}, {"time": 1692, "pitch": 70, "duration": 8, "velocity": 87}, {"time": 1698, "pitch": 51, "duration": 4, "velocity": 90}, {"time": 1704, "pitch": 46, "duration": 15, "velocity": 52}, {"time": 1704, "pitch": 58, "duration": 11, "velocity": 43}, {"time": 1704, "pitch": 62, "duration": 10, "velocity": 78}, {"time": 1710, "pitch": 53, "duration": 10, "velocity": 25}, {"time": 1716, "pitch": 58, "duration": 3, "velocity": 65}, {"time": 1716, "pitch": 62, "duration": 7, "velocity": 97}, {"time": 1716, "pitch": 65, "duration": 9, "velocity": 105}, {"time": 1722, "pitch": 58, "duration": 3, "velocity": 99}, {"time": 1728, "pitch": 41, "duration": 16, "velocity": 89}, {"time": 1728, "pitch": 57, "duration": 11, "velocity": 82}, {"time": 1728, "pitch": 60, "duration": 10, "velocity": 84}, {"time": 1734, "pitch": 48, "duration": 10, "velocity": 64}, {"time": 1740, "pitch": 60, "duration": 5, "velocity": 97}, {"time": 1740, "pitch": 65, "duration": 10, "velocity": 94}, {"time": 1746, "pitch": 57, "duration": 3, "velocity": 76}, {"time": 1752, "pitch": 43, "duration": 40, "velocity": 97}, {"time": 1752, "pitch": 55, "duration": 11, "velocity": 69}, {"time": 1752, "pitch": 58, "duration": 9, "velocity": 61}, {"time": 1752, "pitch": 62, "duration": 9, "velocity": 87}, {"time": 1758, "pitch": 50, "duration": 9, "velocity": 55}, {"time": 1764, "pitch": 62, "duration": 8, "velocity": 84}, {"time": 1770, "pitch": 50, "duration": 8, "velocity": 58}, {"time": 1776, "pitch": 58, "duration": 10, "velocity": 82}, {"time": 1776, "pitch": 62, "duration": 10, "velocity": 94}, {"time": 1782, "pitch": 50, "duration": 11, "velocity": 57}, {"time": 1788, "pitch": 55, "duration": 3, "velocity": 84}, {"time": 1788, "pitch": 58, "duration": 7, "velocity": 93}, {"time": 1788, "pitch": 62, "duration": 9, "velocity": 97}, {"time": 1794, "pitch": 55, "duration": 2, "velocity": 89}, {"time": 1800, "pitch": 50, "duration": 25, "velocity": 84}, {"time": 1800, "pitch": 62, "duration": 10, "velocity": 82}, {"time": 1800, "pitch": 65, "duration": 9, "velocity": 82}, {"time": 1806, "pitch": 57, "duration": 8, "velocity": 80}, {"time": 1812, "pitch": 62, "duration": 8, "velocity": 67}, {"time": 1812, "pitch": 65, "duration": 8, "velocity": 87}, {"time": 1812, "pitch": 69, "duration": 9, "velocity": 92}, {"time": 1818, "pitch": 57, "duration": 22, "velocity": 58}, {"time": 1824, "pitch": 62, "duration": 8, "velocity": 76}, {"time": 1824, "pitch": 65, "duration": 8, "velocity": 89}, {"time": 1830, "pitch": 50, "duration": 9, "velocity": 3}, {"time": 1830, "pitch": 53, "duration": 9, "velocity": 44}, {"time": 1836, "pitch": 62, "duration": 8, "velocity": 100}, {"time": 1836, "pitch": 65, "duration": 6, "velocity": 105}, {"time": 1836, "pitch": 69, "duration": 8, "velocity": 97}, {"time": 1842, "pitch": 50, "duration": 3, "velocity": 92}, {"time": 1848, "pitch": 51, "duration": 14, "velocity": 102}, {"time": 1848, "pitch": 63, "duration": 6, "velocity": 59}, {"time": 1848, "pitch": 67, "duration": 5, "velocity": 87}, {"time": 1854, "pitch": 58, "duration": 11, "velocity": 63}, {"time": 1860, "pitch": 63, "duration": 6, "velocity": 90}, {"time": 1860, "pitch": 70, "duration": 7, "velocity": 77}, {"time": 1866, "pitch": 51, "duration": 3, "velocity": 41}, {"time": 1872, "pitch": 53, "duration": 15, "velocity": 87}, {"time": 1872, "pitch": 60, "duration": 8, "velocity": 87}, {"time": 1872, "pitch": 65, "duration": 9, "velocity": 87}, {"time": 1878, "pitch": 57, "duration": 9, "velocity": 60}, {"time": 1884, "pitch": 60, "duration": 4, "velocity": 97}, {"time": 1884, "pitch": 69, "duration": 8, "velocity": 94}, {"time": 1890, "pitch": 60, "duration": 2, "velocity": 66}, {"time": 1890, "pitch": 65, "duration": 6, "velocity": 89}, {"time": 1896, "pitch": 43, "duration": 44, "velocity": 97}, {"time": 1896, "pitch": 62, "duration": 9, "velocity": 71}, {"time": 1896, "pitch": 67, "duration": 7, "velocity": 76}, {"time": 1902, "pitch": 50, "duration": 7, "velocity": 62}, {"time": 1908, "pitch": 62, "duration": 9, "velocity": 94}, {"time": 1908, "pitch": 70, "duration": 12, "velocity": 85}, {"time": 1914, "pitch": 50, "duration": 7, "velocity": 58}, {"time": 1920, "pitch": 62, "duration": 10, "velocity": 64}, {"time": 1920, "pitch": 67, "duration": 9, "velocity": 78}, {"time": 1926, "pitch": 50, "duration": 9, "velocity": 50}, {"time": 1932, "pitch": 62, "duration": 13, "velocity": 73}, {"time": 1932, "pitch": 67, "duration": 13, "velocity": 84}, {"time": 1932, "pitch": 70, "duration": 14, "velocity": 63}, {"time": 1944, "pitch": 43, "duration": 39, "velocity": 102}, {"time": 1944, "pitch": 62, "duration": 1, "velocity": 78}, {"time": 1944, "pitch": 67, "duration": 1, "velocity": 92}, {"time": 1944, "pitch": 70, "duration": 2, "velocity": 79}, {"time": 1950, "pitch": 50, "duration": 9, "velocity": 43}, {"time": 1956, "pitch": 62, "duration": 8, "velocity": 97}, {"time": 1956, "pitch": 67, "duration": 9, "velocity": 102}, {"time": 1962, "pitch": 50, "duration": 8, "velocity": 32}, {"time": 1968, "pitch": 62, "duration": 8, "velocity": 78}, {"time": 1968, "pitch": 67, "duration": 8, "velocity": 89}, {"time": 1974, "pitch": 50, "duration": 8, "velocity": 36}, {"time": 1980, "pitch": 62, "duration": 5, "velocity": 94}, {"time": 1980, "pitch": 67, "duration": 9, "velocity": 108}, {"time": 1980, "pitch": 70, "duration": 10, "velocity": 102}, {"time": 1986, "pitch": 62, "duration": 3, "velocity": 60}, {"time": 1992, "pitch": 51, "duration": 40, "velocity": 93}, {"time": 1992, "pitch": 67, "duration": 8, "velocity": 100}, {"time": 1992, "pitch": 70, "duration": 8, "velocity": 63}, {"time": 1998, "pitch": 58, "duration": 9, "velocity": 33}, {"time": 2004, "pitch": 63, "duration": 7, "velocity": 87}, {"time": 2004, "pitch": 67, "duration": 7, "velocity": 97}, {"time": 2004, "pitch": 70, "duration": 7, "velocity": 85}, {"time": 2010, "pitch": 58, "duration": 9, "velocity": 27}, {"time": 2016, "pitch": 63, "duration": 10, "velocity": 50}, {"time": 2016, "pitch": 67, "duration": 8, "velocity": 100}, {"time": 2022, "pitch": 58, "duration": 9, "velocity": 17}, {"time": 2028, "pitch": 63, "duration": 6, "velocity": 93}, {"time": 2028, "pitch": 67, "duration": 6, "velocity": 105}, {"time": 2028, "pitch": 70, "duration": 6, "velocity": 96}, {"time": 2040, "pitch": 46, "duration": 21, "velocity": 96}, {"time": 2040, "pitch": 58, "duration": 9, "velocity": 93}, {"time": 2040, "pitch": 62, "duration": 10, "velocity": 100}, {"time": 2046, "pitch": 53, "duration": 11, "velocity": 41}, {"time": 2052, "pitch": 58, "duration": 5, "velocity": 96}, {"time": 2052, "pitch": 62, "duration": 20, "velocity": 105}, {"time": 2052, "pitch": 70, "duration": 9, "velocity": 87}, {"time": 2058, "pitch": 58, "duration": 10, "velocity": 70}, {"time": 2064, "pitch": 46, "duration": 16, "velocity": 55}, {"time": 2070, "pitch": 53, "duration": 8, "velocity": 57}, {"time": 2076, "pitch": 58, "duration": 8, "velocity": 105}, {"time": 2076, "pitch": 62, "duration": 7, "velocity": 108}, {"time": 2082, "pitch": 46, "duration": 4, "velocity": 102}, {"time": 2088, "pitch": 41, "duration": 20, "velocity": 100}, {"time": 2088, "pitch": 53, "duration": 14, "velocity": 64}, {"time": 2088, "pitch": 57, "duration": 10, "velocity": 89}, {"time": 2094, "pitch": 48, "duration": 9, "velocity": 45}, {"time": 2100, "pitch": 57, "duration": 8, "velocity": 92}, {"time": 2100, "pitch": 60, "duration": 10, "velocity": 102}, {"time": 2106, "pitch": 53, "duration": 5, "velocity": 53}, {"time": 2112, "pitch": 57, "duration": 3, "velocity": 102}, {"time": 2112, "pitch": 60, "duration": 3, "velocity": 80}, {"time": 2112, "pitch": 65, "duration": 5, "velocity": 97}, {"time": 2118, "pitch": 41, "duration": 13, "velocity": 36}, {"time": 2118, "pitch": 48, "duration": 8, "velocity": 49}, {"time": 2124, "pitch": 65, "duration": 5, "velocity": 100}, {"time": 2124, "pitch": 69, "duration": 6, "velocity": 114}, {"time": 2130, "pitch": 48, "duration": 4, "velocity": 78}, {"time": 2136, "pitch": 43, "duration": 38, "velocity": 105}, {"time": 2136, "pitch": 67, "duration": 7, "velocity": 92}, {"time": 2136, "pitch": 70, "duration": 8, "velocity": 93}, {"time": 2142, "pitch": 50, "duration": 9, "velocity": 55}, {"time": 2148, "pitch": 62, "duration": 8, "velocity": 94}, {"time": 2148, "pitch": 67, "duration": 8, "velocity": 94}, {"time": 2154, "pitch": 50, "duration": 8, "velocity": 39}, {"time": 2160, "pitch": 62, "duration": 10, "velocity": 89}, {"time": 2160, "pitch": 70, "duration": 12, "velocity": 79}, {"time": 2166, "pitch": 50, "duration": 8, "velocity": 44}, {"time": 2172, "pitch": 62, "duration": 3, "velocity": 94}, {"time": 2172, "pitch": 67, "duration": 8, "velocity": 105}, {"time": 2178, "pitch": 62, "duration": 2, "velocity": 80}, {"time": 2184, "pitch": 51, "duration": 28, "velocity": 99}, {"time": 2184, "pitch": 63, "duration": 10, "velocity": 87}, {"time": 2184, "pitch": 70, "duration": 10, "velocity": 72}, {"time": 2190, "pitch": 58, "duration": 9, "velocity": 43}, {"time": 2196, "pitch": 63, "duration": 10, "velocity": 77}, {"time": 2196, "pitch": 67, "duration": 8, "velocity": 102}, {"time": 2202, "pitch": 58, "duration": 8, "velocity": 32}, {"time": 2208, "pitch": 63, "duration": 10, "velocity": 90}, {"time": 2208, "pitch": 70, "duration": 10, "velocity": 72}, {"time": 2214, "pitch": 58, "duration": 5, "velocity": 30}, {"time": 2220, "pitch": 63, "duration": 4, "velocity": 90}, {"time": 2220, "pitch": 67, "duration": 4, "velocity": 108}, {"time": 2220, "pitch": 70, "duration": 5, "velocity": 87}, {"time": 2232, "pitch": 46, "duration": 39, "velocity": 77}, {"time": 2232, "pitch": 58, "duration": 10, "velocity": 65}, {"time": 2232, "pitch": 70, "duration": 9, "velocity": 82}, {"time": 2238, "pitch": 53, "duration": 9, "velocity": 42}, {"time": 2244, "pitch": 58, "duration": 9, "velocity": 82}, {"time": 2244, "pitch": 62, "duration": 7, "velocity": 102}, {"time": 2250, "pitch": 53, "duration": 9, "velocity": 50}, {"time": 2256, "pitch": 58, "duration": 10, "velocity": 96}, {"time": 2256, "pitch": 62, "duration": 9, "velocity": 100}, {"time": 2256, "pitch": 70, "duration": 10, "velocity": 74}, {"time": 2262, "pitch": 53, "duration": 9, "velocity": 52}, {"time": 2268, "pitch": 58, "duration": 4, "velocity": 99}, {"time": 2268, "pitch": 62, "duration": 3, "velocity": 97}, {"time": 2274, "pitch": 46, "duration": 2, "velocity": 105}, {"time": 2280, "pitch": 41, "duration": 23, "velocity": 100}, {"time": 2280, "pitch": 57, "duration": 8, "velocity": 87}, {"time": 2280, "pitch": 60, "duration": 10, "velocity": 92}, {"time": 2286, "pitch": 48, "duration": 8, "velocity": 44}, {"time": 2292, "pitch": 57, "duration": 3, "velocity": 97}, {"time": 2292, "pitch": 60, "duration": 7, "velocity": 100}, {"time": 2292, "pitch": 65, "duration": 5, "velocity": 97}, {"time": 2298, "pitch": 57, "duration": 5, "velocity": 57}, {"time": 2304, "pitch": 57, "duration": 8, "velocity": 94}, {"time": 2304, "pitch": 60, "duration": 9, "velocity": 102}, {"time": 2304, "pitch": 69, "duration": 12, "velocity": 100}, {"time": 2310, "pitch": 48, "duration": 8, "velocity": 58}, {"time": 2316, "pitch": 57, "duration": 10, "velocity": 97}, {"time": 2316, "pitch": 60, "duration": 10, "velocity": 100}, {"time": 2316, "pitch": 65, "duration": 10, "velocity": 87}, {"time": 2322, "pitch": 48, "duration": 4, "velocity": 84}, {"time": 2328, "pitch": 43, "duration": 39, "velocity": 92}, {"time": 2328, "pitch": 55, "duration": 8, "velocity": 78}, {"time": 2328, "pitch": 58, "duration": 8, "velocity": 79}, {"time": 2328, "pitch": 62, "duration": 7, "velocity": 78}, {"time": 2334, "pitch": 50, "duration": 8, "velocity": 52}, {"time": 2340, "pitch": 55, "duration": 8, "velocity": 92}, {"time": 2340, "pitch": 58, "duration": 9, "velocity": 105}, {"time": 2346, "pitch": 50, "duration": 9, "velocity": 64}, {"time": 2352, "pitch": 55, "duration": 10, "velocity": 89}, {"time": 2352, "pitch": 58, "duration": 10, "velocity": 90}, {"time": 2352, "pitch": 62, "duration": 10, "velocity": 94}, {"time": 2358, "pitch": 50, "duration": 9, "velocity": 53}, {"time": 2364, "pitch": 55, "duration": 7, "velocity": 97}, {"time": 2364, "pitch": 58, "duration": 7, "velocity": 116}, {"time": 2364, "pitch": 62, "duration": 7, "velocity": 108}, {"time": 2370, "pitch": 43, "duration": 4, "velocity": 97}, {"time": 2376, "pitch": 41, "duration": 28, "velocity": 100}, {"time": 2376, "pitch": 53, "duration": 11, "velocity": 80}, {"time": 2376, "pitch": 57, "duration": 9, "velocity": 92}, {"time": 2382, "pitch": 48, "duration": 8, "velocity": 31}, {"time": 2388, "pitch": 53, "duration": 1, "velocity": 44}, {"time": 2388, "pitch": 57, "duration": 10, "velocity": 105}, {"time": 2388, "pitch": 60, "duration": 10, "velocity": 100}, {"time": 2394, "pitch": 48, "duration": 8, "velocity": 31}, {"time": 2400, "pitch": 57, "duration": 10, "velocity": 114}, {"time": 2400, "pitch": 60, "duration": 10, "velocity": 100}, {"time": 2400, "pitch": 65, "duration": 10, "velocity": 97}, {"time": 2406, "pitch": 53, "duration": 6, "velocity": 48}, {"time": 2412, "pitch": 57, "duration": 6, "velocity": 102}, {"time": 2412, "pitch": 60, "duration": 6, "velocity": 94}, {"time": 2412, "pitch": 65, "duration": 9, "velocity": 102}, {"time": 2418, "pitch": 53, "duration": 2, "velocity": 67}, {"time": 2424, "pitch": 51, "duration": 33, "velocity": 105}, {"time": 2424, "pitch": 63, "duration": 6, "velocity": 93}, {"time": 2424, "pitch": 67, "duration": 10, "velocity": 100}, {"time": 2430, "pitch": 58, "duration": 8, "velocity": 46}, {"time": 2436, "pitch": 63, "duration": 4, "velocity": 105}, {"time": 2436, "pitch": 67, "duration": 4, "velocity": 102}, {"time": 2442, "pitch": 58, "duration": 9, "velocity": 28}, {"time": 2448, "pitch": 63, "duration": 9, "velocity": 96}, {"time": 2448, "pitch": 70, "duration": 10, "velocity": 93}, {"time": 2454, "pitch": 58, "duration": 3, "velocity": 41}, {"time": 2460, "pitch": 63, "duration": 3, "velocity": 99}, {"time": 2460, "pitch": 67, "duration": 7, "velocity": 105}, {"time": 2466, "pitch": 63, "duration": 2, "velocity": 99}, {"time": 2472, "pitch": 46, "duration": 15, "velocity": 93}, {"time": 2472, "pitch": 58, "duration": 14, "velocity": 72}, {"time": 2472, "pitch": 62, "duration": 9, "velocity": 100}, {"time": 2478, "pitch": 53, "duration": 12, "velocity": 71}, {"time": 2484, "pitch": 62, "duration": 7, "velocity": 97}, {"time": 2484, "pitch": 65, "duration": 10, "velocity": 102}, {"time": 2490, "pitch": 58, "duration": 2, "velocity": 99}, {"time": 2496, "pitch": 41, "duration": 17, "velocity": 94}, {"time": 2496, "pitch": 57, "duration": 5, "velocity": 94}, {"time": 2496, "pitch": 60, "duration": 10, "velocity": 100}, {"time": 2502, "pitch": 48, "duration": 8, "velocity": 53}, {"time": 2508, "pitch": 57, "duration": 1, "velocity": 73}, {"time": 2508, "pitch": 60, "duration": 7, "velocity": 111}, {"time": 2508, "pitch": 65, "duration": 12, "velocity": 94}, {"time": 2514, "pitch": 57, "duration": 4, "velocity": 105}, {"time": 2520, "pitch": 43, "duration": 15, "velocity": 105}, {"time": 2520, "pitch": 55, "duration": 11, "velocity": 76}, {"time": 2520, "pitch": 58, "duration": 9, "velocity": 63}, {"time": 2520, "pitch": 62, "duration": 9, "velocity": 82}, {"time": 2526, "pitch": 50, "duration": 8, "velocity": 48}, {"time": 2532, "pitch": 58, "duration": 8, "velocity": 99}, {"time": 2532, "pitch": 62, "duration": 10, "velocity": 105}, {"time": 2538, "pitch": 55, "duration": 10, "velocity": 82}, {"time": 2544, "pitch": 58, "duration": 11, "velocity": 77}, {"time": 2544, "pitch": 62, "duration": 10, "velocity": 97}, {"time": 2544, "pitch": 67, "duration": 10, "velocity": 102}, {"time": 2550, "pitch": 50, "duration": 12, "velocity": 57}, {"time": 2556, "pitch": 55, "duration": 1, "velocity": 78}, {"time": 2556, "pitch": 58, "duration": 7, "velocity": 105}, {"time": 2556, "pitch": 62, "duration": 6, "velocity": 102}, {"time": 2562, "pitch": 55, "duration": 4, "velocity": 111}, {"time": 2568, "pitch": 41, "duration": 37, "velocity": 94}, {"time": 2568, "pitch": 53, "duration": 14, "velocity": 94}, {"time": 2568, "pitch": 57, "duration": 21, "velocity": 94}, {"time": 2574, "pitch": 48, "duration": 22, "velocity": 55}, {"time": 2580, "pitch": 60, "duration": 10, "velocity": 87}, {"time": 2586, "pitch": 53, "duration": 12, "velocity": 94}, {"time": 2592, "pitch": 57, "duration": 9, "velocity": 117}, {"time": 2592, "pitch": 60, "duration": 10, "velocity": 108}, {"time": 2592, "pitch": 65, "duration": 9, "velocity": 92}, {"time": 2598, "pitch": 48, "duration": 7, "velocity": 82}, {"time": 2604, "pitch": 57, "duration": 6, "velocity": 111}, {"time": 2604, "pitch": 60, "duration": 6, "velocity": 102}, {"time": 2604, "pitch": 65, "duration": 8, "velocity": 94}, {"time": 2610, "pitch": 53, "duration": 2, "velocity": 102}, {"time": 2616, "pitch": 51, "duration": 33, "velocity": 105}, {"time": 2616, "pitch": 63, "duration": 9, "velocity": 65}, {"time": 2616, "pitch": 67, "duration": 10, "velocity": 92}, {"time": 2622, "pitch": 58, "duration": 8, "velocity": 63}, {"time": 2628, "pitch": 63, "duration": 4, "velocity": 102}, {"time": 2628, "pitch": 67, "duration": 4, "velocity": 105}, {"time": 2634, "pitch": 58, "duration": 9, "velocity": 50}, {"time": 2640, "pitch": 63, "duration": 10, "velocity": 102}, {"time": 2640, "pitch": 70, "duration": 11, "velocity": 96}, {"time": 2646, "pitch": 58, "duration": 3, "velocity": 61}, {"time": 2652, "pitch": 63, "duration": 2, "velocity": 96}, {"time": 2652, "pitch": 67, "duration": 6, "velocity": 102}, {"time": 2658, "pitch": 63, "duration": 2, "velocity": 99}, {"time": 2664, "pitch": 46, "duration": 20, "velocity": 85}, {"time": 2664, "pitch": 58, "duration": 11, "velocity": 68}, {"time": 2664, "pitch": 62, "duration": 9, "velocity": 94}, {"time": 2670, "pitch": 53, "duration": 8, "velocity": 66}, {"time": 2676, "pitch": 58, "duration": 6, "velocity": 38}, {"time": 2676, "pitch": 62, "duration": 11, "velocity": 105}, {"time": 2676, "pitch": 65, "duration": 14, "velocity": 105}, {"time": 2682, "pitch": 53, "duration": 3, "velocity": 67}, {"time": 2685, "pitch": 58, "duration": 4, "velocity": 99}, {"time": 2688, "pitch": 41, "duration": 20, "velocity": 105}, {"time": 2691, "pitch": 48, "duration": 11, "velocity": 62}, {"time": 2694, "pitch": 53, "duration": 8, "velocity": 102}, {"time": 2700, "pitch": 57, "duration": 10, "velocity": 117}, {"time": 2700, "pitch": 60, "duration": 11, "velocity": 108}, {"time": 2706, "pitch": 48, "duration": 5, "velocity": 84}, {"time": 2712, "pitch": 43, "duration": 38, "velocity": 100}, {"time": 2712, "pitch": 55, "duration": 8, "velocity": 73}, {"time": 2712, "pitch": 62, "duration": 8, "velocity": 84}, {"time": 2718, "pitch": 50, "duration": 8, "velocity": 67}, {"time": 2724, "pitch": 55, "duration": 9, "velocity": 100}, {"time": 2724, "pitch": 58, "duration": 8, "velocity": 109}, {"time": 2730, "pitch": 50, "duration": 9, "velocity": 58}, {"time": 2736, "pitch": 58, "duration": 10, "velocity": 93}, {"time": 2736, "pitch": 62, "duration": 11, "velocity": 94}, {"time": 2742, "pitch": 50, "duration": 8, "velocity": 50}, {"time": 2748, "pitch": 58, "duration": 4, "velocity": 102}, {"time": 2748, "pitch": 62, "duration": 5, "velocity": 108}, {"time": 2748, "pitch": 67, "duration": 6, "velocity": 100}, {"time": 2754, "pitch": 43, "duration": 2, "velocity": 94}, {"time": 2760, "pitch": 50, "duration": 39, "velocity": 102}, {"time": 2760, "pitch": 60, "duration": 9, "velocity": 71}, {"time": 2760, "pitch": 65, "duration": 10, "velocity": 92}, {"time": 2766, "pitch": 57, "duration": 9, "velocity": 71}, {"time": 2772, "pitch": 62, "duration": 8, "velocity": 100}, {"time": 2772, "pitch": 65, "duration": 8, "velocity": 105}, {"time": 2778, "pitch": 57, "duration": 9, "velocity": 80}, {"time": 2784, "pitch": 62, "duration": 9, "velocity": 94}, {"time": 2784, "pitch": 65, "duration": 8, "velocity": 102}, {"time": 2784, "pitch": 69, "duration": 8, "velocity": 102}, {"time": 2790, "pitch": 57, "duration": 9, "velocity": 58}, {"time": 2796, "pitch": 62, "duration": 5, "velocity": 100}, {"time": 2796, "pitch": 65, "duration": 3, "velocity": 102}, {"time": 2808, "pitch": 51, "duration": 23, "velocity": 99}, {"time": 2808, "pitch": 63, "duration": 8, "velocity": 90}, {"time": 2808, "pitch": 67, "duration": 7, "velocity": 89}, {"time": 2814, "pitch": 58, "duration": 9, "velocity": 59}, {"time": 2820, "pitch": 63, "duration": 2, "velocity": 102}, {"time": 2820, "pitch": 67, "duration": 2, "velocity": 94}, {"time": 2826, "pitch": 58, "duration": 7, "velocity": 33}, {"time": 2832, "pitch": 51, "duration": 15, "velocity": 90}, {"time": 2832, "pitch": 63, "duration": 10, "velocity": 93}, {"time": 2832, "pitch": 70, "duration": 9, "velocity": 74}, {"time": 2838, "pitch": 58, "duration": 7, "velocity": 45}, {"time": 2844, "pitch": 63, "duration": 4, "velocity": 102}, {"time": 2844, "pitch": 67, "duration": 6, "velocity": 105}, {"time": 2847, "pitch": 58, "duration": 2, "velocity": 87}, {"time": 2850, "pitch": 63, "duration": 3, "velocity": 105}, {"time": 2856, "pitch": 46, "duration": 15, "velocity": 102}, {"time": 2856, "pitch": 58, "duration": 14, "velocity": 102}, {"time": 2856, "pitch": 62, "duration": 8, "velocity": 102}, {"time": 2862, "pitch": 53, "duration": 12, "velocity": 87}, {"time": 2868, "pitch": 62, "duration": 8, "velocity": 111}, {"time": 2868, "pitch": 65, "duration": 9, "velocity": 105}, {"time": 2874, "pitch": 58, "duration": 5, "velocity": 74}, {"time": 2880, "pitch": 58, "duration": 11, "velocity": 68}, {"time": 2880, "pitch": 62, "duration": 10, "velocity": 94}, {"time": 2886, "pitch": 53, "duration": 10, "velocity": 44}, {"time": 2889, "pitch": 46, "duration": 3, "velocity": 1}, {"time": 2892, "pitch": 58, "duration": 5, "velocity": 96}, {"time": 2892, "pitch": 62, "duration": 6, "velocity": 105}, {"time": 2892, "pitch": 65, "duration": 7, "velocity": 108}, {"time": 2895, "pitch": 46, "duration": 5, "velocity": 96}, {"time": 2898, "pitch": 53, "duration": 5, "velocity": 102}, {"time": 2904, "pitch": 43, "duration": 38, "velocity": 100}, {"time": 2904, "pitch": 55, "duration": 8, "velocity": 73}, {"time": 2904, "pitch": 62, "duration": 8, "velocity": 84}, {"time": 2910, "pitch": 50, "duration": 8, "velocity": 67}, {"time": 2916, "pitch": 55, "duration": 9, "velocity": 100}, {"time": 2916, "pitch": 58, "duration": 8, "velocity": 109}, {"time": 2922, "pitch": 50, "duration": 9, "velocity": 58}, {"time": 2928, "pitch": 58, "duration": 10, "velocity": 93}, {"time": 2928, "pitch": 62, "duration": 11, "velocity": 94}, {"time": 2934, "pitch": 50, "duration": 8, "velocity": 50}, {"time": 2940, "pitch": 58, "duration": 4, "velocity": 102}, {"time": 2940, "pitch": 62, "duration": 5, "velocity": 108}, {"time": 2940, "pitch": 67, "duration": 6, "velocity": 100}, {"time": 2946, "pitch": 43, "duration": 2, "velocity": 94}, {"time": 2952, "pitch": 50, "duration": 39, "velocity": 102}, {"time": 2952, "pitch": 60, "duration": 9, "velocity": 71}, {"time": 2952, "pitch": 65, "duration": 10, "velocity": 92}, {"time": 2958, "pitch": 57, "duration": 9, "velocity": 71}, {"time": 2964, "pitch": 62, "duration": 8, "velocity": 100}, {"time": 2964, "pitch": 65, "duration": 8, "velocity": 105}, {"time": 2970, "pitch": 57, "duration": 9, "velocity": 80}, {"time": 2976, "pitch": 62, "duration": 9, "velocity": 94}, {"time": 2976, "pitch": 65, "duration": 8, "velocity": 102}, {"time": 2976, "pitch": 69, "duration": 8, "velocity": 102}, {"time": 2982, "pitch": 57, "duration": 9, "velocity": 58}, {"time": 2988, "pitch": 62, "duration": 5, "velocity": 100}, {"time": 2988, "pitch": 65, "duration": 3, "velocity": 102}, {"time": 3000, "pitch": 51, "duration": 12, "velocity": 99}, {"time": 3000, "pitch": 63, "duration": 9, "velocity": 99}, {"time": 3000, "pitch": 67, "duration": 9, "velocity": 89}, {"time": 3006, "pitch": 58, "duration": 6, "velocity": 55}, {"time": 3012, "pitch": 63, "duration": 5, "velocity": 112}, {"time": 3012, "pitch": 67, "duration": 6, "velocity": 102}, {"time": 3024, "pitch": 41, "duration": 16, "velocity": 97}, {"time": 3024, "pitch": 60, "duration": 9, "velocity": 71}, {"time": 3024, "pitch": 64, "duration": 1, "velocity": 69}, {"time": 3024, "pitch": 65, "duration": 9, "velocity": 73}, {"time": 3030, "pitch": 48, "duration": 11, "velocity": 57}, {"time": 3036, "pitch": 60, "duration": 4, "velocity": 102}, {"time": 3036, "pitch": 65, "duration": 9, "velocity": 105}, {"time": 3036, "pitch": 69, "duration": 10, "velocity": 102}, {"time": 3042, "pitch": 60, "duration": 3, "velocity": 80}, {"time": 3048, "pitch": 43, "duration": 48, "velocity": 102}, {"time": 3048, "pitch": 62, "duration": 7, "velocity": 80}, {"time": 3048, "pitch": 67, "duration": 6, "velocity": 80}, {"time": 3054, "pitch": 50, "duration": 8, "velocity": 60}, {"time": 3060, "pitch": 62, "duration": 9, "velocity": 100}, {"time": 3060, "pitch": 70, "duration": 11, "velocity": 93}, {"time": 3066, "pitch": 50, "duration": 10, "velocity": 60}, {"time": 3072, "pitch": 62, "duration": 9, "velocity": 73}, {"time": 3072, "pitch": 67, "duration": 9, "velocity": 94}, {"time": 3078, "pitch": 50, "duration": 9, "velocity": 50}, {"time": 3084, "pitch": 62, "duration": 6, "velocity": 82}, {"time": 3084, "pitch": 67, "duration": 11, "velocity": 97}, {"time": 3084, "pitch": 70, "duration": 12, "velocity": 85}, {"time": 3090, "pitch": 50, "duration": 7, "velocity": 67}, {"time": 3096, "pitch": 43, "duration": 38, "velocity": 100}, {"time": 3096, "pitch": 55, "duration": 8, "velocity": 73}, {"time": 3096, "pitch": 62, "duration": 8, "velocity": 84}, {"time": 3102, "pitch": 50, "duration": 8, "velocity": 67}, {"time": 3108, "pitch": 55, "duration": 9, "velocity": 100}, {"time": 3108, "pitch": 58, "duration": 8, "velocity": 109}, {"time": 3114, "pitch": 50, "duration": 9, "velocity": 58}, {"time": 3120, "pitch": 58, "duration": 10, "velocity": 93}, {"time": 3120, "pitch": 62, "duration": 11, "velocity": 94}, {"time": 3126, "pitch": 50, "duration": 8, "velocity": 50}, {"time": 3132, "pitch": 58, "duration": 4, "velocity": 102}, {"time": 3132, "pitch": 62, "duration": 5, "velocity": 108}, {"time": 3132, "pitch": 67, "duration": 6, "velocity": 100}, {"time": 3138, "pitch": 43, "duration": 2, "velocity": 94}, {"time": 3144, "pitch": 50, "duration": 39, "velocity": 102}, {"time": 3144, "pitch": 60, "duration": 9, "velocity": 71}, {"time": 3144, "pitch": 65, "duration": 10, "velocity": 92}, {"time": 3150, "pitch": 57, "duration": 9, "velocity": 71}, {"time": 3156, "pitch": 62, "duration": 8, "velocity": 100}, {"time": 3156, "pitch": 65, "duration": 8, "velocity": 105}, {"time": 3162, "pitch": 57, "duration": 9, "velocity": 80}, {"time": 3168, "pitch": 62, "duration": 9, "velocity": 94}, {"time": 3168, "pitch": 65, "duration": 8, "velocity": 102}, {"time": 3168, "pitch": 69, "duration": 8, "velocity": 102}, {"time": 3174, "pitch": 57, "duration": 9, "velocity": 58}, {"time": 3180, "pitch": 62, "duration": 5, "velocity": 100}, {"time": 3180, "pitch": 65, "duration": 3, "velocity": 102}, {"time": 3192, "pitch": 51, "duration": 23, "velocity": 99}, {"time": 3192, "pitch": 63, "duration": 8, "velocity": 90}, {"time": 3192, "pitch": 67, "duration": 7, "velocity": 89}, {"time": 3198, "pitch": 58, "duration": 9, "velocity": 59}, {"time": 3204, "pitch": 63, "duration": 2, "velocity": 102}, {"time": 3204, "pitch": 67, "duration": 2, "velocity": 94}, {"time": 3210, "pitch": 58, "duration": 7, "velocity": 33}, {"time": 3216, "pitch": 51, "duration": 15, "velocity": 90}, {"time": 3216, "pitch": 63, "duration": 10, "velocity": 93}, {"time": 3216, "pitch": 70, "duration": 9, "velocity": 74}, {"time": 3222, "pitch": 58, "duration": 7, "velocity": 45}, {"time": 3228, "pitch": 63, "duration": 4, "velocity": 102}, {"time": 3228, "pitch": 67, "duration": 6, "velocity": 105}, {"time": 3231, "pitch": 58, "duration": 2, "velocity": 87}, {"time": 3234, "pitch": 63, "duration": 3, "velocity": 105}, {"time": 3240, "pitch": 46, "duration": 15, "velocity": 102}, {"time": 3240, "pitch": 58, "duration": 14, "velocity": 102}, {"time": 3240, "pitch": 62, "duration": 8, "velocity": 102}, {"time": 3246, "pitch": 53, "duration": 12, "velocity": 87}, {"time": 3252, "pitch": 62, "duration": 8, "velocity": 111}, {"time": 3252, "pitch": 65, "duration": 9, "velocity": 105}, {"time": 3258, "pitch": 58, "duration": 5, "velocity": 74}, {"time": 3264, "pitch": 58, "duration": 11, "velocity": 68}, {"time": 3264, "pitch": 62, "duration": 10, "velocity": 94}, {"time": 3270, "pitch": 53, "duration": 10, "velocity": 44}, {"time": 3273, "pitch": 46, "duration": 3, "velocity": 1}, {"time": 3276, "pitch": 58, "duration": 5, "velocity": 96}, {"time": 3276, "pitch": 62, "duration": 6, "velocity": 105}, {"time": 3276, "pitch": 65, "duration": 7, "velocity": 108}, {"time": 3279, "pitch": 46, "duration": 5, "velocity": 96}, {"time": 3282, "pitch": 53, "duration": 5, "velocity": 102}, {"time": 3288, "pitch": 43, "duration": 38, "velocity": 100}, {"time": 3288, "pitch": 55, "duration": 8, "velocity": 73}, {"time": 3288, "pitch": 62, "duration": 8, "velocity": 84}, {"time": 3294, "pitch": 50, "duration": 8, "velocity": 67}, {"time": 3300, "pitch": 55, "duration": 9, "velocity": 100}, {"time": 3300, "pitch": 58, "duration": 8, "velocity": 109}, {"time": 3306, "pitch": 50, "duration": 9, "velocity": 58}, {"time": 3312, "pitch": 58, "duration": 10, "velocity": 93}, {"time": 3312, "pitch": 62, "duration": 11, "velocity": 94}, {"time": 3318, "pitch": 50, "duration": 8, "velocity": 50}, {"time": 3324, "pitch": 58, "duration": 4, "velocity": 102}, {"time": 3324, "pitch": 62, "duration": 5, "velocity": 108}, {"time": 3324, "pitch": 67, "duration": 6, "velocity": 100}, {"time": 3330, "pitch": 43, "duration": 2, "velocity": 94}, {"time": 3336, "pitch": 50, "duration": 39, "velocity": 102}, {"time": 3336, "pitch": 60, "duration": 9, "velocity": 71}, {"time": 3336, "pitch": 65, "duration": 10, "velocity": 92}, {"time": 3342, "pitch": 57, "duration": 9, "velocity": 71}, {"time": 3348, "pitch": 62, "duration": 8, "velocity": 100}, {"time": 3348, "pitch": 65, "duration": 8, "velocity": 105}, {"time": 3354, "pitch": 57, "duration": 9, "velocity": 80}, {"time": 3360, "pitch": 62, "duration": 9, "velocity": 94}, {"time": 3360, "pitch": 65, "duration": 8, "velocity": 102}, {"time": 3360, "pitch": 69, "duration": 8, "velocity": 102}, {"time": 3366, "pitch": 57, "duration": 9, "velocity": 58}, {"time": 3372, "pitch": 62, "duration": 5, "velocity": 100}, {"time": 3372, "pitch": 65, "duration": 3, "velocity": 102}, {"time": 3384, "pitch": 51, "duration": 12, "velocity": 99}, {"time": 3384, "pitch": 63, "duration": 9, "velocity": 99}, {"time": 3384, "pitch": 67, "duration": 9, "velocity": 89}, {"time": 3390, "pitch": 58, "duration": 6, "velocity": 55}, {"time": 3396, "pitch": 63, "duration": 5, "velocity": 112}, {"time": 3396, "pitch": 67, "duration": 6, "velocity": 102}, {"time": 3408, "pitch": 41, "duration": 16, "velocity": 97}, {"time": 3408, "pitch": 60, "duration": 9, "velocity": 71}, {"time": 3408, "pitch": 64, "duration": 1, "velocity": 69}, {"time": 3408, "pitch": 65, "duration": 9, "velocity": 73}, {"time": 3414, "pitch": 48, "duration": 11, "velocity": 57}, {"time": 3420, "pitch": 60, "duration": 4, "velocity": 102}, {"time": 3420, "pitch": 65, "duration": 9, "velocity": 105}, {"time": 3420, "pitch": 69, "duration": 10, "velocity": 102}, {"time": 3426, "pitch": 60, "duration": 3, "velocity": 80}, {"time": 3432, "pitch": 43, "duration": 48, "velocity": 102}, {"time": 3432, "pitch": 62, "duration": 7, "velocity": 80}, {"time": 3432, "pitch": 67, "duration": 6, "velocity": 80}, {"time": 3438, "pitch": 50, "duration": 8, "velocity": 60}, {"time": 3444, "pitch": 62, "duration": 9, "velocity": 100}, {"time": 3444, "pitch": 70, "duration": 11, "velocity": 93}, {"time": 3450, "pitch": 50, "duration": 10, "velocity": 60}, {"time": 3456, "pitch": 62, "duration": 9, "velocity": 73}, {"time": 3456, "pitch": 67, "duration": 9, "velocity": 94}, {"time": 3462, "pitch": 50, "duration": 9, "velocity": 50}, {"time": 3468, "pitch": 62, "duration": 6, "velocity": 82}, {"time": 3468, "pitch": 67, "duration": 11, "velocity": 97}, {"time": 3468, "pitch": 70, "duration": 12, "velocity": 85}, {"time": 3474, "pitch": 50, "duration": 7, "velocity": 67}, {"time": 3480, "pitch": 43, "duration": 39, "velocity": 94}, {"time": 3480, "pitch": 55, "duration": 10, "velocity": 67}, {"time": 3480, "pitch": 58, "duration": 10, "velocity": 54}, {"time": 3486, "pitch": 50, "duration": 9, "velocity": 62}, {"time": 3492, "pitch": 62, "duration": 6, "velocity": 94}, {"time": 3498, "pitch": 50, "duration": 9, "velocity": 58}, {"time": 3504, "pitch": 58, "duration": 10, "velocity": 54}, {"time": 3504, "pitch": 62, "duration": 10, "velocity": 87}, {"time": 3510, "pitch": 50, "duration": 8, "velocity": 44}, {"time": 3516, "pitch": 58, "duration": 7, "velocity": 41}, {"time": 3516, "pitch": 67, "duration": 11, "velocity": 97}, {"time": 3522, "pitch": 55, "duration": 2, "velocity": 97}, {"time": 3528, "pitch": 50, "duration": 43, "velocity": 102}, {"time": 3528, "pitch": 62, "duration": 14, "velocity": 58}, {"time": 3528, "pitch": 65, "duration": 9, "velocity": 73}, {"time": 3534, "pitch": 57, "duration": 8, "velocity": 64}, {"time": 3540, "pitch": 65, "duration": 7, "velocity": 80}, {"time": 3540, "pitch": 69, "duration": 7, "velocity": 82}, {"time": 3546, "pitch": 57, "duration": 9, "velocity": 51}, {"time": 3552, "pitch": 62, "duration": 9, "velocity": 73}, {"time": 3552, "pitch": 65, "duration": 9, "velocity": 78}, {"time": 3558, "pitch": 57, "duration": 8, "velocity": 51}, {"time": 3564, "pitch": 62, "duration": 10, "velocity": 92}, {"time": 3564, "pitch": 65, "duration": 7, "velocity": 100}, {"time": 3570, "pitch": 57, "duration": 3, "velocity": 82}, {"time": 3576, "pitch": 51, "duration": 39, "velocity": 96}, {"time": 3576, "pitch": 63, "duration": 10, "velocity": 72}, {"time": 3576, "pitch": 67, "duration": 10, "velocity": 80}, {"time": 3582, "pitch": 58, "duration": 8, "velocity": 41}, {"time": 3588, "pitch": 63, "duration": 10, "velocity": 90}, {"time": 3588, "pitch": 67, "duration": 9, "velocity": 97}, {"time": 3594, "pitch": 58, "duration": 9, "velocity": 52}, {"time": 3600, "pitch": 63, "duration": 6, "velocity": 57}, {"time": 3600, "pitch": 67, "duration": 6, "velocity": 92}, {"time": 3606, "pitch": 58, "duration": 8, "velocity": 34}, {"time": 3612, "pitch": 63, "duration": 5, "velocity": 77}, {"time": 3612, "pitch": 70, "duration": 8, "velocity": 87}, {"time": 3618, "pitch": 51, "duration": 4, "velocity": 90}, {"time": 3624, "pitch": 46, "duration": 15, "velocity": 52}, {"time": 3624, "pitch": 58, "duration": 11, "velocity": 43}, {"time": 3624, "pitch": 62, "duration": 10, "velocity": 78}, {"time": 3630, "pitch": 53, "duration": 10, "velocity": 25}, {"time": 3636, "pitch": 58, "duration": 3, "velocity": 65}, {"time": 3636, "pitch": 62, "duration": 7, "velocity": 97}, {"time": 3636, "pitch": 65, "duration": 9, "velocity": 105}, {"time": 3642, "pitch": 58, "duration": 3, "velocity": 99}, {"time": 3648, "pitch": 41, "duration": 16, "velocity": 89}, {"time": 3648, "pitch": 57, "duration": 11, "velocity": 82}, {"time": 3648, "pitch": 60, "duration": 10, "velocity": 84}, {"time": 3654, "pitch": 48, "duration": 10, "velocity": 64}, {"time": 3660, "pitch": 60, "duration": 5, "velocity": 97}, {"time": 3660, "pitch": 65, "duration": 10, "velocity": 94}, {"time": 3666, "pitch": 57, "duration": 3, "velocity": 76}, {"time": 3672, "pitch": 43, "duration": 26, "velocity": 78}, {"time": 3672, "pitch": 55, "duration": 72, "velocity": 73}, {"time": 3672, "pitch": 62, "duration": 14, "velocity": 80}, {"time": 3678, "pitch": 50, "duration": 25, "velocity": 66}, {"time": 3685, "pitch": 58, "duration": 59, "velocity": 70}, {"time": 3692, "pitch": 62, "duration": 52, "velocity": 82}, {"time": 3702, "pitch": 43, "duration": 37, "velocity": 44}, {"time": 3703, "pitch": 67, "duration": 42, "velocity": 78}], "annotations": [{"time": 26, "annotation": {"number": 64, "value": 127}, "group": "control_change"}, {"time": 48, "annotation": {"number": 64, "value": 0}, "group": "control_change"}, {"time": 51, "annotation": {"number": 64, "value": 127}, "group": "control_change"}, {"time": 70, "annotation": {"number": 64, "value": 0}, "group": "control_change"}, {"time": 73, "annotation": {"number": 64, "value": 127}, "group": "control_change"}, {"time": 96, "annotation": {"number": 64, "value": 0}, "group": "control_change"}, {"time": 99, "annotation": {"number": 64, "value": 127}, "group": "control_change"}, {"time": 119, "annotation": {"number": 64, "value": 0}, "group": "control_change"}, {"time": 122, "annotation": {"number": 64, "value": 127}, "group": "control_change"}, {"time": 144, "annotation": {"number": 64, "value": 0}, "group": "control_change"}, {"time": 147, "annotation": {"number": 64, "value": 127}, "group": "control_change"}, {"time": 168, "annotation": {"number": 64, "value": 0}, "group": "control_change"}, {"time": 171, "annotation": {"number": 64, "value": 127}, "group": "control_change"}, {"time": 192, "annotation": {"number": 64, "value": 0}, "group": "control_change"}, {"time": 195, "annotation": {"number": 64, "value": 127}, "group": "control_change"}, {"time": 215, "annotation": {"number": 64, "value": 0}, "group": "control_change"}, {"time": 242, "annotation": {"number": 64, "value": 127}, "group": "control_change"}, {"time": 243, "annotation": {"number": 64, "value": 0}, "group": "control_change"}, {"time": 251, "annotation": {"number": 64, "value": 127}, "group": "control_change"}, {"time": 251, "annotation": {"number": 64, "value": 0}, "group": "control_change"}, {"time": 255, "annotation": {"number": 64, "value": 127}, "group": "control_change"}, {"time": 263, "annotation": {"number": 64, "value": 0}, "group": "control_change"}, {"time": 267, "annotation": {"number": 64, "value": 127}, "group": "control_change"}, {"time": 288, "annotation": {"number": 64, "value": 0}, "group": "control_change"}, {"time": 291, "annotation": {"number": 64, "value": 127}, "group": "control_change"}, {"time": 311, "annotation": {"number": 64, "value": 0}, "group": "control_change"}, {"time": 315, "annotation": {"number": 64, "value": 127}, "group": "control_change"}, {"time": 336, "annotation": {"number": 64, "value": 0}, "group": "control_change"}, {"time": 338, "annotation": {"number": 64, "value": 127}, "group": "control_change"}, {"time": 359, "annotation": {"number": 64, "value": 0}, "group": "control_change"}, {"time": 363, "annotation": {"number": 64, "value": 127}, "group": "control_change"}, {"time": 383, "annotation": {"number": 64, "value": 0}, "group": "control_change"}, {"time": 385, "annotation": {"number": 64, "value": 127}, "group": "control_change"}, {"time": 405, "annotation": {"number": 64, "value": 0}, "group": "control_change"}, {"time": 410, "annotation": {"number": 64, "value": 127}, "group": "control_change"}, {"time": 457, "annotation": {"number": 64, "value": 0}, "group": "control_change"}, {"time": 462, "annotation": {"number": 64, "value": 127}, "group": "control_change"}, {"time": 493, "annotation": {"number": 64, "value": 0}, "group": "control_change"}, {"time": 496, "annotation": {"number": 64, "value": 127}, "group": "control_change"}, {"time": 505, "annotation": {"number": 64, "value": 0}, "group": "control_change"}, {"time": 512, "annotation": {"number": 64, "value": 127}, "group": "control_change"}, {"time": 535, "annotation": {"number": 64, "value": 0}, "group": "control_change"}, {"time": 538, "annotation": {"number": 64, "value": 127}, "group": "control_change"}, {"time": 553, "annotation": {"number": 64, "value": 0}, "group": "control_change"}, {"time": 560, "annotation": {"number": 64, "value": 127}, "group": "control_change"}, {"time": 599, "annotation": {"number": 64, "value": 0}, "group": "control_change"}, {"time": 604, "annotation": {"number": 64, "value": 127}, "group": "control_change"}, {"time": 626, "annotation": {"number": 64, "value": 0}, "group": "control_change"}, {"time": 628, "annotation": {"number": 64, "value": 127}, "group": "control_change"}, {"time": 648, "annotation": {"number": 64, "value": 0}, "group": "control_change"}, {"time": 655, "annotation": {"number": 64, "value": 127}, "group": "control_change"}, {"time": 696, "annotation": {"number": 64, "value": 0}, "group": "control_change"}, {"time": 703, "annotation": {"number": 64, "value": 127}, "group": "control_change"}, {"time": 720, "annotation": {"number": 64, "value": 0}, "group": "control_change"}, {"time": 723, "annotation": {"number": 64, "value": 127}, "group": "control_change"}, {"time": 744, "annotation": {"number": 64, "value": 0}, "group": "control_change"}, {"time": 748, "annotation": {"number": 64, "value": 127}, "group": "control_change"}, {"time": 772, "annotation": {"number": 64, "value": 0}, "group": "control_change"}, {"time": 774, "annotation": {"number": 64, "value": 127}, "group": "control_change"}, {"time": 789, "annotation": {"number": 64, "value": 0}, "group": "control_change"}, {"time": 795, "annotation": {"number": 64, "value": 127}, "group": "control_change"}, {"time": 817, "annotation": {"number": 64, "value": 0}, "group": "control_change"}, {"time": 820, "annotation": {"number": 64, "value": 127}, "group": "control_change"}, {"time": 839, "annotation": {"number": 64, "value": 0}, "group": "control_change"}, {"time": 843, "annotation": {"number": 64, "value": 127}, "group": "control_change"}, {"time": 889, "annotation": {"number": 64, "value": 0}, "group": "control_change"}, {"time": 894, "annotation": {"number": 64, "value": 127}, "group": "control_change"}, {"time": 911, "annotation": {"number": 64, "value": 0}, "group": "control_change"}, {"time": 914, "annotation": {"number": 64, "value": 127}, "group": "control_change"}, {"time": 937, "annotation": {"number": 64, "value": 0}, "group": "control_change"}, {"time": 943, "annotation": {"number": 64, "value": 127}, "group": "control_change"}, {"time": 960, "annotation": {"number": 64, "value": 0}, "group": "control_change"}, {"time": 964, "annotation": {"number": 64, "value": 127}, "group": "control_change"}, {"time": 984, "annotation": {"number": 64, "value": 0}, "group": "control_change"}, {"time": 991, "annotation": {"number": 64, "value": 127}, "group": "control_change"}, {"time": 1007, "annotation": {"number": 64, "value": 0}, "group": "control_change"}, {"time": 1014, "annotation": {"number": 64, "value": 127}, "group": "control_change"}, {"time": 1032, "annotation": {"number": 64, "value": 0}, "group": "control_change"}, {"time": 1061, "annotation": {"number": 64, "value": 127}, "group": "control_change"}, {"time": 1080, "annotation": {"number": 64, "value": 0}, "group": "control_change"}, {"time": 1087, "annotation": {"number": 64, "value": 127}, "group": "control_change"}, {"time": 1103, "annotation": {"number": 64, "value": 0}, "group": "control_change"}, {"time": 1105, "annotation": {"number": 64, "value": 127}, "group": "control_change"}, {"time": 1127, "annotation": {"number": 64, "value": 0}, "group": "control_change"}, {"time": 1135, "annotation": {"number": 64, "value": 127}, "group": "control_change"}, {"time": 1151, "annotation": {"number": 64, "value": 0}, "group": "control_change"}, {"time": 1155, "annotation": {"number": 64, "value": 127}, "group": "control_change"}, {"time": 1164, "annotation": {"number": 64, "value": 127}, "group": "control_change"}, {"time": 1173, "annotation": {"number": 64, "value": 0}, "group": "control_change"}, {"time": 1174, "annotation": {"number": 64, "value": 0}, "group": "control_change"}, {"time": 1178, "annotation": {"number": 64, "value": 127}, "group": "control_change"}, {"time": 1199, "annotation": {"number": 64, "value": 0}, "group": "control_change"}, {"time": 1207, "annotation": {"number": 64, "value": 127}, "group": "control_change"}, {"time": 1224, "annotation": {"number": 64, "value": 0}, "group": "control_change"}, {"time": 1231, "annotation": {"number": 64, "value": 127}, "group": "control_change"}, {"time": 1247, "annotation": {"number": 64, "value": 0}, "group": "control_change"}, {"time": 1251, "annotation": {"number": 64, "value": 127}, "group": "control_change"}, {"time": 1271, "annotation": {"number": 64, "value": 0}, "group": "control_change"}, {"time": 1277, "annotation": {"number": 64, "value": 127}, "group": "control_change"}, {"time": 1296, "annotation": {"number": 64, "value": 0}, "group": "control_change"}, {"time": 1299, "annotation": {"number": 64, "value": 127}, "group": "control_change"}, {"time": 1321, "annotation": {"number": 64, "value": 0}, "group": "control_change"}, {"time": 1328, "annotation": {"number": 64, "value": 127}, "group": "control_change"}, {"time": 1345, "annotation": {"number": 64, "value": 0}, "group": "control_change"}, {"time": 1349, "annotation": {"number": 64, "value": 127}, "group": "control_change"}, {"time": 1370, "annotation": {"number": 64, "value": 127}, "group": "control_change"}, {"time": 1391, "annotation": {"number": 64, "value": 0}, "group": "control_change"}, {"time": 1399, "annotation": {"number": 64, "value": 127}, "group": "control_change"}, {"time": 1416, "annotation": {"number": 64, "value": 0}, "group": "control_change"}, {"time": 1423, "annotation": {"number": 64, "value": 127}, "group": "control_change"}, {"time": 1439, "annotation": {"number": 64, "value": 0}, "group": "control_change"}, {"time": 1443, "annotation": {"number": 64, "value": 127}, "group": "control_change"}, {"time": 1463, "annotation": {"number": 64, "value": 0}, "group": "control_change"}, {"time": 1466, "annotation": {"number": 64, "value": 127}, "group": "control_change"}, {"time": 1489, "annotation": {"number": 64, "value": 0}, "group": "control_change"}, {"time": 1495, "annotation": {"number": 64, "value": 127}, "group": "control_change"}, {"time": 1511, "annotation": {"number": 64, "value": 0}, "group": "control_change"}, {"time": 1518, "annotation": {"number": 64, "value": 127}, "group": "control_change"}, {"time": 1536, "annotation": {"number": 64, "value": 0}, "group": "control_change"}, {"time": 1539, "annotation": {"number": 64, "value": 127}, "group": "control_change"}, {"time": 1560, "annotation": {"number": 64, "value": 0}, "group": "control_change"}, {"time": 1567, "annotation": {"number": 64, "value": 127}, "group": "control_change"}, {"time": 1585, "annotation": {"number": 64, "value": 0}, "group": "control_change"}, {"time": 1592, "annotation": {"number": 64, "value": 127}, "group": "control_change"}, {"time": 1609, "annotation": {"number": 64, "value": 0}, "group": "control_change"}, {"time": 1617, "annotation": {"number": 64, "value": 127}, "group": "control_change"}, {"time": 1644, "annotation": {"number": 64, "value": 0}, "group": "control_change"}, {"time": 1646, "annotation": {"number": 64, "value": 127}, "group": "control_change"}, {"time": 1656, "annotation": {"number": 64, "value": 0}, "group": "control_change"}, {"time": 1663, "annotation": {"number": 64, "value": 127}, "group": "control_change"}, {"time": 1679, "annotation": {"number": 64, "value": 0}, "group": "control_change"}, {"time": 1682, "annotation": {"number": 64, "value": 127}, "group": "control_change"}, {"time": 1711, "annotation": {"number": 64, "value": 127}, "group": "control_change"}, {"time": 1729, "annotation": {"number": 64, "value": 0}, "group": "control_change"}, {"time": 1737, "annotation": {"number": 64, "value": 127}, "group": "control_change"}, {"time": 1752, "annotation": {"number": 64, "value": 0}, "group": "control_change"}, {"time": 1762, "annotation": {"number": 64, "value": 127}, "group": "control_change"}, {"time": 1775, "annotation": {"number": 64, "value": 0}, "group": "control_change"}, {"time": 1778, "annotation": {"number": 64, "value": 127}, "group": "control_change"}, {"time": 1802, "annotation": {"number": 64, "value": 0}, "group": "control_change"}, {"time": 1809, "annotation": {"number": 64, "value": 127}, "group": "control_change"}, {"time": 1849, "annotation": {"number": 64, "value": 0}, "group": "control_change"}, {"time": 1854, "annotation": {"number": 64, "value": 127}, "group": "control_change"}, {"time": 1874, "annotation": {"number": 64, "value": 0}, "group": "control_change"}, {"time": 1878, "annotation": {"number": 64, "value": 127}, "group": "control_change"}, {"time": 1896, "annotation": {"number": 64, "value": 0}, "group": "control_change"}, {"time": 1902, "annotation": {"number": 64, "value": 127}, "group": "control_change"}, {"time": 1943, "annotation": {"number": 64, "value": 0}, "group": "control_change"}, {"time": 1946, "annotation": {"number": 64, "value": 127}, "group": "control_change"}, {"time": 1993, "annotation": {"number": 64, "value": 0}, "group": "control_change"}, {"time": 1998, "annotation": {"number": 64, "value": 127}, "group": "control_change"}, {"time": 2029, "annotation": {"number": 64, "value": 0}, "group": "control_change"}, {"time": 2032, "annotation": {"number": 64, "value": 127}, "group": "control_change"}, {"time": 2041, "annotation": {"number": 64, "value": 0}, "group": "control_change"}, {"time": 2048, "annotation": {"number": 64, "value": 127}, "group": "control_change"}, {"time": 2071, "annotation": {"number": 64, "value": 0}, "group": "control_change"}, {"time": 2074, "annotation": {"number": 64, "value": 127}, "group": "control_change"}, {"time": 2089, "annotation": {"number": 64, "value": 0}, "group": "control_change"}, {"time": 2096, "annotation": {"number": 64, "value": 127}, "group": "control_change"}, {"time": 2135, "annotation": {"number": 64, "value": 0}, "group": "control_change"}, {"time": 2140, "annotation": {"number": 64, "value": 127}, "group": "control_change"}, {"time": 2162, "annotation": {"number": 64, "value": 0}, "group": "control_change"}, {"time": 2164, "annotation": {"number": 64, "value": 127}, "group": "control_change"}, {"time": 2184, "annotation": {"number": 64, "value": 0}, "group": "control_change"}, {"time": 2191, "annotation": {"number": 64, "value": 127}, "group": "control_change"}, {"time": 2232, "annotation": {"number": 64, "value": 0}, "group": "control_change"}, {"time": 2239, "annotation": {"number": 64, "value": 127}, "group": "control_change"}, {"time": 2256, "annotation": {"number": 64, "value": 0}, "group": "control_change"}, {"time": 2259, "annotation": {"number": 64, "value": 127}, "group": "control_change"}, {"time": 2280, "annotation": {"number": 64, "value": 0}, "group": "control_change"}, {"time": 2284, "annotation": {"number": 64, "value": 127}, "group": "control_change"}, {"time": 2308, "annotation": {"number": 64, "value": 0}, "group": "control_change"}, {"time": 2310, "annotation": {"number": 64, "value": 127}, "group": "control_change"}, {"time": 2325, "annotation": {"number": 64, "value": 0}, "group": "control_change"}, {"time": 2331, "annotation": {"number": 64, "value": 127}, "group": "control_change"}, {"time": 2353, "annotation": {"number": 64, "value": 0}, "group": "control_change"}, {"time": 2356, "annotation": {"number": 64, "value": 127}, "group": "control_change"}, {"time": 2375, "annotation": {"number": 64, "value": 0}, "group": "control_change"}, {"time": 2379, "annotation": {"number": 64, "value": 127}, "group": "control_change"}, {"time": 2425, "annotation": {"number": 64, "value": 0}, "group": "control_change"}, {"time": 2430, "annotation": {"number": 64, "value": 127}, "group": "control_change"}, {"time": 2447, "annotation": {"number": 64, "value": 0}, "group": "control_change"}, {"time": 2450, "annotation": {"number": 64, "value": 127}, "group": "control_change"}, {"time": 2473, "annotation": {"number": 64, "value": 0}, "group": "control_change"}, {"time": 2479, "annotation": {"number": 64, "value": 127}, "group": "control_change"}, {"time": 2496, "annotation": {"number": 64, "value": 0}, "group": "control_change"}, {"time": 2500, "annotation": {"number": 64, "value": 127}, "group": "control_change"}, {"time": 2520, "annotation": {"number": 64, "value": 0}, "group": "control_change"}, {"time": 2527, "annotation": {"number": 64, "value": 127}, "group": "control_change"}, {"time": 2543, "annotation": {"number": 64, "value": 0}, "group": "control_change"}, {"time": 2550, "annotation": {"number": 64, "value": 127}, "group": "control_change"}, {"time": 2568, "annotation": {"number": 64, "value": 0}, "group": "control_change"}, {"time": 2597, "annotation": {"number": 64, "value": 127}, "group": "control_change"}, {"time": 2616, "annotation": {"number": 64, "value": 0}, "group": "control_change"}, {"time": 2623, "annotation": {"number": 64, "value": 127}, "group": "control_change"}, {"time": 2639, "annotation": {"number": 64, "value": 0}, "group": "control_change"}, {"time": 2641, "annotation": {"number": 64, "value": 127}, "group": "control_change"}, {"time": 2663, "annotation": {"number": 64, "value": 0}, "group": "control_change"}, {"time": 2671, "annotation": {"number": 64, "value": 127}, "group": "control_change"}, {"time": 2687, "annotation": {"number": 64, "value": 0}, "group": "control_change"}, {"time": 2691, "annotation": {"number": 64, "value": 127}, "group": "control_change"}, {"time": 2710, "annotation": {"number": 64, "value": 0}, "group": "control_change"}, {"time": 2714, "annotation": {"number": 64, "value": 127}, "group": "control_change"}, {"time": 2735, "annotation": {"number": 64, "value": 0}, "group": "control_change"}, {"time": 2743, "annotation": {"number": 64, "value": 127}, "group": "control_change"}, {"time": 2760, "annotation": {"number": 64, "value": 0}, "group": "control_change"}, {"time": 2767, "annotation": {"number": 64, "value": 127}, "group": "control_change"}, {"time": 2783, "annotation": {"number": 64, "value": 0}, "group": "control_change"}, {"time": 2787, "annotation": {"number": 64, "value": 127}, "group": "control_change"}, {"time": 2807, "annotation": {"number": 64, "value": 0}, "group": "control_change"}, {"time": 2813, "annotation": {"number": 64, "value": 127}, "group": "control_change"}, {"time": 2832, "annotation": {"number": 64, "value": 0}, "group": "control_change"}, {"time": 2835, "annotation": {"number": 64, "value": 127}, "group": "control_change"}, {"time": 2857, "annotation": {"number": 64, "value": 0}, "group": "control_change"}, {"time": 2864, "annotation": {"number": 64, "value": 127}, "group": "control_change"}, {"time": 2881, "annotation": {"number": 64, "value": 0}, "group": "control_change"}, {"time": 2885, "annotation": {"number": 64, "value": 127}, "group": "control_change"}, {"time": 2892, "annotation": {"number": 64, "value": 127}, "group": "control_change"}, {"time": 2901, "annotation": {"number": 64, "value": 0}, "group": "control_change"}, {"time": 2906, "annotation": {"number": 64, "value": 127}, "group": "control_change"}, {"time": 2927, "annotation": {"number": 64, "value": 0}, "group": "control_change"}, {"time": 2935, "annotation": {"number": 64, "value": 127}, "group": "control_change"}, {"time": 2952, "annotation": {"number": 64, "value": 0}, "group": "control_change"}, {"time": 2959, "annotation": {"number": 64, "value": 127}, "group": "control_change"}, {"time": 2975, "annotation": {"number": 64, "value": 0}, "group": "control_change"}, {"time": 2979, "annotation": {"number": 64, "value": 127}, "group": "control_change"}, {"time": 2999, "annotation": {"number": 64, "value": 0}, "group": "control_change"}, {"time": 3002, "annotation": {"number": 64, "value": 127}, "group": "control_change"}, {"time": 3025, "annotation": {"number": 64, "value": 0}, "group": "control_change"}, {"time": 3031, "annotation": {"number": 64, "value": 127}, "group": "control_change"}, {"time": 3047, "annotation": {"number": 64, "value": 0}, "group": "control_change"}, {"time": 3054, "annotation": {"number": 64, "value": 127}, "group": "control_change"}, {"time": 3072, "annotation": {"number": 64, "value": 0}, "group": "control_change"}, {"time": 3075, "annotation": {"number": 64, "value": 127}, "group": "control_change"}, {"time": 3096, "annotation": {"number": 64, "value": 0}, "group": "control_change"}, {"time": 3098, "annotation": {"number": 64, "value": 127}, "group": "control_change"}, {"time": 3119, "annotation": {"number": 64, "value": 0}, "group": "control_change"}, {"time": 3127, "annotation": {"number": 64, "value": 127}, "group": "control_change"}, {"time": 3144, "annotation": {"number": 64, "value": 0}, "group": "control_change"}, {"time": 3151, "annotation": {"number": 64, "value": 127}, "group": "control_change"}, {"time": 3167, "annotation": {"number": 64, "value": 0}, "group": "control_change"}, {"time": 3171, "annotation": {"number": 64, "value": 127}, "group": "control_change"}, {"time": 3191, "annotation": {"number": 64, "value": 0}, "group": "control_change"}, {"time": 3197, "annotation": {"number": 64, "value": 127}, "group": "control_change"}, {"time": 3216, "annotation": {"number": 64, "value": 0}, "group": "control_change"}, {"time": 3219, "annotation": {"number": 64, "value": 127}, "group": "control_change"}, {"time": 3241, "annotation": {"number": 64, "value": 0}, "group": "control_change"}, {"time": 3248, "annotation": {"number": 64, "value": 127}, "group": "control_change"}, {"time": 3265, "annotation": {"number": 64, "value": 0}, "group": "control_change"}, {"time": 3269, "annotation": {"number": 64, "value": 127}, "group": "control_change"}, {"time": 3276, "annotation": {"number": 64, "value": 127}, "group": "control_change"}, {"time": 3285, "annotation": {"number": 64, "value": 0}, "group": "control_change"}, {"time": 3290, "annotation": {"number": 64, "value": 127}, "group": "control_change"}, {"time": 3311, "annotation": {"number": 64, "value": 0}, "group": "control_change"}, {"time": 3319, "annotation": {"number": 64, "value": 127}, "group": "control_change"}, {"time": 3336, "annotation": {"number": 64, "value": 0}, "group": "control_change"}, {"time": 3343, "annotation": {"number": 64, "value": 127}, "group": "control_change"}, {"time": 3359, "annotation": {"number": 64, "value": 0}, "group": "control_change"}, {"time": 3363, "annotation": {"number": 64, "value": 127}, "group": "control_change"}, {"time": 3383, "annotation": {"number": 64, "value": 0}, "group": "control_change"}, {"time": 3386, "annotation": {"number": 64, "value": 127}, "group": "control_change"}, {"time": 3409, "annotation": {"number": 64, "value": 0}, "group": "control_change"}, {"time": 3415, "annotation": {"number": 64, "value": 127}, "group": "control_change"}, {"time": 3431, "annotation": {"number": 64, "value": 0}, "group": "control_change"}, {"time": 3438, "annotation": {"number": 64, "value": 127}, "group": "control_change"}, {"time": 3456, "annotation": {"number": 64, "value": 0}, "group": "control_change"}, {"time": 3459, "annotation": {"number": 64, "value": 127}, "group": "control_change"}, {"time": 3480, "annotation": {"number": 64, "value": 0}, "group": "control_change"}, {"time": 3487, "annotation": {"number": 64, "value": 127}, "group": "control_change"}, {"time": 3505, "annotation": {"number": 64, "value": 0}, "group": "control_change"}, {"time": 3512, "annotation": {"number": 64, "value": 127}, "group": "control_change"}, {"time": 3529, "annotation": {"number": 64, "value": 0}, "group": "control_change"}, {"time": 3537, "annotation": {"number": 64, "value": 127}, "group": "control_change"}, {"time": 3564, "annotation": {"number": 64, "value": 0}, "group": "control_change"}, {"time": 3566, "annotation": {"number": 64, "value": 127}, "group": "control_change"}, {"time": 3576, "annotation": {"number": 64, "value": 0}, "group": "control_change"}, {"time": 3583, "annotation": {"number": 64, "value": 127}, "group": "control_change"}, {"time": 3599, "annotation": {"number": 64, "value": 0}, "group": "control_change"}, {"time": 3602, "annotation": {"number": 64, "value": 127}, "group": "control_change"}, {"time": 3631, "annotation": {"number": 64, "value": 127}, "group": "control_change"}, {"time": 3649, "annotation": {"number": 64, "value": 0}, "group": "control_change"}, {"time": 3657, "annotation": {"number": 64, "value": 127}, "group": "control_change"}, {"time": 3672, "annotation": {"number": 64, "value": 0}, "group": "control_change"}]}]}