{"metadata": {"schema_version": "0.2", "title": "None", "source_filename": "004.mid", "source_format": "midi"}, "resolution": 12, "tempos": [{"time": 0, "qpm": 71.59998520266973}, {"time": 1848, "qpm": 71.40001142400183}], "key_signatures": [{"time": 0, "root": 0, "mode": "major"}], "time_signatures": [{"time": 0, "numerator": 2, "denominator": 4}], "tracks": [{"program": 0, "is_drum": false, "name": "MELODY", "notes": [{"time": 132, "pitch": 73, "duration": 12, "velocity": 100}, {"time": 144, "pitch": 71, "duration": 12, "velocity": 105}, {"time": 156, "pitch": 70, "duration": 12, "velocity": 117}, {"time": 168, "pitch": 68, "duration": 18, "velocity": 102}, {"time": 186, "pitch": 70, "duration": 3, "velocity": 92}, {"time": 189, "pitch": 70, "duration": 21, "velocity": 97}, {"time": 210, "pitch": 70, "duration": 3, "velocity": 111}, {"time": 213, "pitch": 78, "duration": 21, "velocity": 102}, {"time": 234, "pitch": 70, "duration": 3, "velocity": 102}, {"time": 237, "pitch": 77, "duration": 21, "velocity": 105}, {"time": 258, "pitch": 70, "duration": 3, "velocity": 108}, {"time": 261, "pitch": 75, "duration": 39, "velocity": 105}, {"time": 300, "pitch": 70, "duration": 6, "velocity": 117}, {"time": 306, "pitch": 73, "duration": 3, "velocity": 105}, {"time": 309, "pitch": 75, "duration": 24, "velocity": 100}, {"time": 333, "pitch": 75, "duration": 3, "velocity": 92}, {"time": 336, "pitch": 75, "duration": 6, "velocity": 100}, {"time": 342, "pitch": 77, "duration": 6, "velocity": 105}, {"time": 348, "pitch": 73, "duration": 6, "velocity": 114}, {"time": 354, "pitch": 71, "duration": 3, "velocity": 96}, {"time": 357, "pitch": 73, "duration": 24, "velocity": 92}, {"time": 381, "pitch": 73, "duration": 3, "velocity": 82}, {"time": 384, "pitch": 73, "duration": 6, "velocity": 102}, {"time": 390, "pitch": 75, "duration": 6, "velocity": 105}, {"time": 396, "pitch": 71, "duration": 6, "velocity": 105}, {"time": 402, "pitch": 70, "duration": 3, "velocity": 97}, {"time": 405, "pitch": 71, "duration": 21, "velocity": 109}, {"time": 426, "pitch": 68, "duration": 3, "velocity": 108}, {"time": 429, "pitch": 70, "duration": 3, "velocity": 108}, {"time": 432, "pitch": 73, "duration": 18, "velocity": 111}, {"time": 450, "pitch": 71, "duration": 3, "velocity": 102}, {"time": 453, "pitch": 70, "duration": 63, "velocity": 102}, {"time": 516, "pitch": 73, "duration": 12, "velocity": 100}, {"time": 528, "pitch": 71, "duration": 12, "velocity": 105}, {"time": 540, "pitch": 70, "duration": 12, "velocity": 117}, {"time": 552, "pitch": 68, "duration": 18, "velocity": 102}, {"time": 570, "pitch": 70, "duration": 3, "velocity": 92}, {"time": 573, "pitch": 70, "duration": 21, "velocity": 97}, {"time": 594, "pitch": 70, "duration": 3, "velocity": 111}, {"time": 597, "pitch": 78, "duration": 21, "velocity": 102}, {"time": 618, "pitch": 70, "duration": 3, "velocity": 102}, {"time": 621, "pitch": 77, "duration": 21, "velocity": 105}, {"time": 642, "pitch": 70, "duration": 3, "velocity": 108}, {"time": 645, "pitch": 75, "duration": 39, "velocity": 105}, {"time": 684, "pitch": 70, "duration": 6, "velocity": 117}, {"time": 690, "pitch": 73, "duration": 3, "velocity": 105}, {"time": 693, "pitch": 75, "duration": 24, "velocity": 100}, {"time": 717, "pitch": 75, "duration": 3, "velocity": 92}, {"time": 720, "pitch": 75, "duration": 6, "velocity": 100}, {"time": 726, "pitch": 77, "duration": 6, "velocity": 105}, {"time": 732, "pitch": 73, "duration": 6, "velocity": 114}, {"time": 738, "pitch": 71, "duration": 3, "velocity": 96}, {"time": 741, "pitch": 73, "duration": 24, "velocity": 92}, {"time": 765, "pitch": 73, "duration": 3, "velocity": 82}, {"time": 768, "pitch": 73, "duration": 6, "velocity": 102}, {"time": 774, "pitch": 75, "duration": 6, "velocity": 105}, {"time": 780, "pitch": 71, "duration": 6, "velocity": 105}, {"time": 786, "pitch": 70, "duration": 3, "velocity": 97}, {"time": 789, "pitch": 71, "duration": 21, "velocity": 109}, {"time": 810, "pitch": 68, "duration": 3, "velocity": 108}, {"time": 813, "pitch": 70, "duration": 3, "velocity": 108}, {"time": 816, "pitch": 73, "duration": 18, "velocity": 111}, {"time": 834, "pitch": 75, "duration": 3, "velocity": 102}, {"time": 837, "pitch": 77, "duration": 27, "velocity": 102}, {"time": 864, "pitch": 78, "duration": 12, "velocity": 111}, {"time": 876, "pitch": 80, "duration": 12, "velocity": 117}, {"time": 888, "pitch": 82, "duration": 54, "velocity": 108}, {"time": 942, "pitch": 83, "duration": 6, "velocity": 109}, {"time": 948, "pitch": 80, "duration": 6, "velocity": 108}, {"time": 954, "pitch": 78, "duration": 3, "velocity": 102}, {"time": 957, "pitch": 80, "duration": 21, "velocity": 97}, {"time": 978, "pitch": 78, "duration": 3, "velocity": 102}, {"time": 981, "pitch": 80, "duration": 57, "velocity": 108}, {"time": 1038, "pitch": 82, "duration": 6, "velocity": 67}, {"time": 1044, "pitch": 78, "duration": 6, "velocity": 94}, {"time": 1050, "pitch": 77, "duration": 3, "velocity": 100}, {"time": 1053, "pitch": 78, "duration": 21, "velocity": 108}, {"time": 1074, "pitch": 77, "duration": 3, "velocity": 102}, {"time": 1077, "pitch": 78, "duration": 57, "velocity": 108}, {"time": 1134, "pitch": 80, "duration": 6, "velocity": 111}, {"time": 1140, "pitch": 77, "duration": 6, "velocity": 111}, {"time": 1146, "pitch": 75, "duration": 3, "velocity": 92}, {"time": 1149, "pitch": 77, "duration": 24, "velocity": 100}, {"time": 1173, "pitch": 75, "duration": 3, "velocity": 92}, {"time": 1176, "pitch": 75, "duration": 48, "velocity": 100}, {"time": 1476, "pitch": 73, "duration": 12, "velocity": 100}, {"time": 1488, "pitch": 71, "duration": 12, "velocity": 105}, {"time": 1500, "pitch": 70, "duration": 12, "velocity": 117}, {"time": 1512, "pitch": 68, "duration": 18, "velocity": 102}, {"time": 1530, "pitch": 70, "duration": 3, "velocity": 92}, {"time": 1533, "pitch": 70, "duration": 21, "velocity": 97}, {"time": 1554, "pitch": 70, "duration": 3, "velocity": 111}, {"time": 1557, "pitch": 78, "duration": 21, "velocity": 102}, {"time": 1578, "pitch": 70, "duration": 3, "velocity": 102}, {"time": 1581, "pitch": 77, "duration": 21, "velocity": 105}, {"time": 1602, "pitch": 70, "duration": 3, "velocity": 108}, {"time": 1605, "pitch": 75, "duration": 39, "velocity": 105}, {"time": 1644, "pitch": 70, "duration": 6, "velocity": 117}, {"time": 1650, "pitch": 73, "duration": 3, "velocity": 105}, {"time": 1653, "pitch": 75, "duration": 24, "velocity": 100}, {"time": 1677, "pitch": 75, "duration": 3, "velocity": 92}, {"time": 1680, "pitch": 75, "duration": 6, "velocity": 100}, {"time": 1686, "pitch": 77, "duration": 6, "velocity": 105}, {"time": 1692, "pitch": 73, "duration": 6, "velocity": 114}, {"time": 1698, "pitch": 71, "duration": 3, "velocity": 96}, {"time": 1701, "pitch": 73, "duration": 24, "velocity": 92}, {"time": 1725, "pitch": 73, "duration": 3, "velocity": 82}, {"time": 1728, "pitch": 73, "duration": 6, "velocity": 102}, {"time": 1734, "pitch": 75, "duration": 6, "velocity": 105}, {"time": 1740, "pitch": 71, "duration": 6, "velocity": 105}, {"time": 1746, "pitch": 70, "duration": 3, "velocity": 97}, {"time": 1749, "pitch": 71, "duration": 21, "velocity": 109}, {"time": 1770, "pitch": 68, "duration": 3, "velocity": 108}, {"time": 1773, "pitch": 70, "duration": 3, "velocity": 108}, {"time": 1776, "pitch": 73, "duration": 18, "velocity": 111}, {"time": 1794, "pitch": 75, "duration": 3, "velocity": 102}, {"time": 1797, "pitch": 77, "duration": 27, "velocity": 102}, {"time": 1824, "pitch": 78, "duration": 12, "velocity": 111}, {"time": 1836, "pitch": 80, "duration": 12, "velocity": 117}, {"time": 1848, "pitch": 82, "duration": 54, "velocity": 108}, {"time": 1902, "pitch": 83, "duration": 6, "velocity": 109}, {"time": 1908, "pitch": 80, "duration": 6, "velocity": 108}, {"time": 1914, "pitch": 78, "duration": 3, "velocity": 102}, {"time": 1917, "pitch": 80, "duration": 21, "velocity": 97}, {"time": 1938, "pitch": 78, "duration": 3, "velocity": 102}, {"time": 1941, "pitch": 80, "duration": 57, "velocity": 108}, {"time": 1998, "pitch": 82, "duration": 6, "velocity": 67}, {"time": 2004, "pitch": 78, "duration": 6, "velocity": 94}, {"time": 2010, "pitch": 77, "duration": 3, "velocity": 100}, {"time": 2013, "pitch": 78, "duration": 21, "velocity": 108}, {"time": 2034, "pitch": 77, "duration": 3, "velocity": 102}, {"time": 2037, "pitch": 78, "duration": 57, "velocity": 108}, {"time": 2094, "pitch": 80, "duration": 6, "velocity": 111}, {"time": 2100, "pitch": 77, "duration": 6, "velocity": 111}, {"time": 2106, "pitch": 75, "duration": 3, "velocity": 92}, {"time": 2109, "pitch": 77, "duration": 15, "velocity": 100}, {"time": 2124, "pitch": 78, "duration": 6, "velocity": 114}, {"time": 2130, "pitch": 80, "duration": 6, "velocity": 111}, {"time": 2136, "pitch": 82, "duration": 54, "velocity": 108}, {"time": 2190, "pitch": 83, "duration": 6, "velocity": 109}, {"time": 2196, "pitch": 80, "duration": 6, "velocity": 108}, {"time": 2202, "pitch": 78, "duration": 3, "velocity": 102}, {"time": 2205, "pitch": 80, "duration": 21, "velocity": 97}, {"time": 2226, "pitch": 78, "duration": 3, "velocity": 102}, {"time": 2229, "pitch": 80, "duration": 57, "velocity": 108}, {"time": 2286, "pitch": 82, "duration": 6, "velocity": 67}, {"time": 2292, "pitch": 78, "duration": 6, "velocity": 94}, {"time": 2298, "pitch": 77, "duration": 3, "velocity": 100}, {"time": 2301, "pitch": 78, "duration": 21, "velocity": 108}, {"time": 2322, "pitch": 77, "duration": 3, "velocity": 102}, {"time": 2325, "pitch": 78, "duration": 57, "velocity": 108}, {"time": 2382, "pitch": 80, "duration": 6, "velocity": 111}, {"time": 2388, "pitch": 77, "duration": 6, "velocity": 111}, {"time": 2394, "pitch": 75, "duration": 3, "velocity": 92}, {"time": 2397, "pitch": 77, "duration": 27, "velocity": 100}, {"time": 2424, "pitch": 82, "duration": 48, "velocity": 108}]}, {"program": 0, "is_drum": false, "name": "BRIDGE", "notes": [{"time": 1266, "pitch": 61, "duration": 6, "velocity": 111}, {"time": 1272, "pitch": 59, "duration": 6, "velocity": 112}, {"time": 1278, "pitch": 63, "duration": 6, "velocity": 108}, {"time": 1284, "pitch": 70, "duration": 18, "velocity": 117}, {"time": 1302, "pitch": 68, "duration": 6, "velocity": 117}, {"time": 1308, "pitch": 65, "duration": 6, "velocity": 111}, {"time": 1314, "pitch": 63, "duration": 6, "velocity": 111}, {"time": 1320, "pitch": 61, "duration": 12, "velocity": 114}, {"time": 1332, "pitch": 73, "duration": 30, "velocity": 111}, {"time": 1362, "pitch": 71, "duration": 6, "velocity": 109}, {"time": 1368, "pitch": 70, "duration": 6, "velocity": 108}, {"time": 1374, "pitch": 71, "duration": 6, "velocity": 105}, {"time": 1380, "pitch": 70, "duration": 6, "velocity": 108}, {"time": 1386, "pitch": 63, "duration": 18, "velocity": 114}, {"time": 1404, "pitch": 68, "duration": 12, "velocity": 117}, {"time": 1416, "pitch": 65, "duration": 48, "velocity": 108}, {"time": 2424, "pitch": 70, "duration": 36, "velocity": 92}, {"time": 2424, "pitch": 82, "duration": 36, "velocity": 92}, {"time": 2478, "pitch": 71, "duration": 3, "velocity": 109}, {"time": 2478, "pitch": 83, "duration": 3, "velocity": 109}, {"time": 2484, "pitch": 68, "duration": 4, "velocity": 114}, {"time": 2484, "pitch": 80, "duration": 5, "velocity": 114}, {"time": 2490, "pitch": 66, "duration": 1, "velocity": 94}, {"time": 2490, "pitch": 78, "duration": 1, "velocity": 94}, {"time": 2493, "pitch": 68, "duration": 18, "velocity": 105}, {"time": 2493, "pitch": 80, "duration": 18, "velocity": 105}, {"time": 2514, "pitch": 66, "duration": 3, "velocity": 105}, {"time": 2514, "pitch": 78, "duration": 3, "velocity": 105}, {"time": 2517, "pitch": 68, "duration": 24, "velocity": 108}, {"time": 2517, "pitch": 80, "duration": 24, "velocity": 108}, {"time": 2574, "pitch": 70, "duration": 3, "velocity": 102}, {"time": 2574, "pitch": 82, "duration": 4, "velocity": 102}, {"time": 2580, "pitch": 66, "duration": 5, "velocity": 108}, {"time": 2580, "pitch": 78, "duration": 5, "velocity": 108}, {"time": 2586, "pitch": 65, "duration": 1, "velocity": 105}, {"time": 2586, "pitch": 77, "duration": 2, "velocity": 105}, {"time": 2589, "pitch": 66, "duration": 18, "velocity": 108}, {"time": 2589, "pitch": 78, "duration": 18, "velocity": 108}, {"time": 2610, "pitch": 65, "duration": 4, "velocity": 108}, {"time": 2610, "pitch": 77, "duration": 4, "velocity": 108}, {"time": 2616, "pitch": 66, "duration": 29, "velocity": 102}, {"time": 2616, "pitch": 78, "duration": 29, "velocity": 102}, {"time": 2646, "pitch": 63, "duration": 5, "velocity": 100}, {"time": 2646, "pitch": 75, "duration": 5, "velocity": 100}, {"time": 2652, "pitch": 65, "duration": 4, "velocity": 111}, {"time": 2652, "pitch": 77, "duration": 4, "velocity": 111}, {"time": 2658, "pitch": 66, "duration": 4, "velocity": 105}, {"time": 2658, "pitch": 78, "duration": 4, "velocity": 105}, {"time": 2664, "pitch": 68, "duration": 18, "velocity": 94}, {"time": 2664, "pitch": 80, "duration": 18, "velocity": 94}, {"time": 2682, "pitch": 66, "duration": 6, "velocity": 82}, {"time": 2682, "pitch": 78, "duration": 6, "velocity": 82}, {"time": 2688, "pitch": 68, "duration": 48, "velocity": 92}, {"time": 2688, "pitch": 80, "duration": 48, "velocity": 92}]}, {"program": 0, "is_drum": false, "name": "PIANO", "notes": [{"time": 120, "pitch": 42, "duration": 45, "velocity": 92}, {"time": 120, "pitch": 54, "duration": 9, "velocity": 76}, {"time": 120, "pitch": 58, "duration": 8, "velocity": 78}, {"time": 126, "pitch": 49, "duration": 7, "velocity": 76}, {"time": 132, "pitch": 54, "duration": 12, "velocity": 78}, {"time": 132, "pitch": 58, "duration": 13, "velocity": 82}, {"time": 138, "pitch": 49, "duration": 7, "velocity": 76}, {"time": 144, "pitch": 56, "duration": 12, "velocity": 97}, {"time": 150, "pitch": 49, "duration": 8, "velocity": 76}, {"time": 156, "pitch": 54, "duration": 9, "velocity": 92}, {"time": 162, "pitch": 49, "duration": 7, "velocity": 76}, {"time": 168, "pitch": 41, "duration": 15, "velocity": 82}, {"time": 168, "pitch": 53, "duration": 8, "velocity": 82}, {"time": 168, "pitch": 56, "duration": 15, "velocity": 87}, {"time": 174, "pitch": 49, "duration": 7, "velocity": 71}, {"time": 180, "pitch": 53, "duration": 11, "velocity": 69}, {"time": 186, "pitch": 41, "duration": 4, "velocity": 71}, {"time": 192, "pitch": 46, "duration": 15, "velocity": 92}, {"time": 192, "pitch": 53, "duration": 4, "velocity": 45}, {"time": 192, "pitch": 58, "duration": 10, "velocity": 80}, {"time": 198, "pitch": 53, "duration": 4, "velocity": 64}, {"time": 204, "pitch": 53, "duration": 11, "velocity": 82}, {"time": 204, "pitch": 58, "duration": 12, "velocity": 94}, {"time": 210, "pitch": 46, "duration": 6, "velocity": 82}, {"time": 216, "pitch": 51, "duration": 21, "velocity": 92}, {"time": 216, "pitch": 63, "duration": 13, "velocity": 66}, {"time": 216, "pitch": 66, "duration": 9, "velocity": 80}, {"time": 222, "pitch": 58, "duration": 8, "velocity": 67}, {"time": 228, "pitch": 66, "duration": 7, "velocity": 89}, {"time": 228, "pitch": 70, "duration": 18, "velocity": 94}, {"time": 234, "pitch": 58, "duration": 7, "velocity": 71}, {"time": 240, "pitch": 49, "duration": 20, "velocity": 71}, {"time": 240, "pitch": 61, "duration": 10, "velocity": 62}, {"time": 240, "pitch": 65, "duration": 8, "velocity": 78}, {"time": 246, "pitch": 58, "duration": 8, "velocity": 78}, {"time": 252, "pitch": 61, "duration": 4, "velocity": 67}, {"time": 252, "pitch": 65, "duration": 11, "velocity": 97}, {"time": 252, "pitch": 70, "duration": 32, "velocity": 84}, {"time": 258, "pitch": 58, "duration": 5, "velocity": 71}, {"time": 264, "pitch": 47, "duration": 39, "velocity": 90}, {"time": 270, "pitch": 54, "duration": 9, "velocity": 60}, {"time": 276, "pitch": 59, "duration": 23, "velocity": 77}, {"time": 282, "pitch": 54, "duration": 10, "velocity": 55}, {"time": 288, "pitch": 63, "duration": 10, "velocity": 80}, {"time": 294, "pitch": 54, "duration": 10, "velocity": 41}, {"time": 300, "pitch": 59, "duration": 5, "velocity": 55}, {"time": 300, "pitch": 63, "duration": 4, "velocity": 92}, {"time": 300, "pitch": 66, "duration": 6, "velocity": 84}, {"time": 312, "pitch": 44, "duration": 20, "velocity": 97}, {"time": 312, "pitch": 56, "duration": 11, "velocity": 60}, {"time": 312, "pitch": 59, "duration": 9, "velocity": 39}, {"time": 312, "pitch": 63, "duration": 9, "velocity": 69}, {"time": 318, "pitch": 51, "duration": 8, "velocity": 50}, {"time": 324, "pitch": 59, "duration": 8, "velocity": 99}, {"time": 324, "pitch": 63, "duration": 10, "velocity": 82}, {"time": 330, "pitch": 51, "duration": 4, "velocity": 76}, {"time": 336, "pitch": 49, "duration": 8, "velocity": 94}, {"time": 336, "pitch": 61, "duration": 5, "velocity": 84}, {"time": 336, "pitch": 65, "duration": 5, "velocity": 92}, {"time": 342, "pitch": 56, "duration": 7, "velocity": 64}, {"time": 348, "pitch": 47, "duration": 11, "velocity": 72}, {"time": 348, "pitch": 59, "duration": 10, "velocity": 65}, {"time": 348, "pitch": 63, "duration": 11, "velocity": 84}, {"time": 354, "pitch": 56, "duration": 5, "velocity": 84}, {"time": 360, "pitch": 46, "duration": 14, "velocity": 97}, {"time": 360, "pitch": 58, "duration": 8, "velocity": 73}, {"time": 360, "pitch": 61, "duration": 7, "velocity": 82}, {"time": 366, "pitch": 53, "duration": 8, "velocity": 49}, {"time": 372, "pitch": 58, "duration": 7, "velocity": 97}, {"time": 372, "pitch": 65, "duration": 6, "velocity": 92}, {"time": 378, "pitch": 46, "duration": 5, "velocity": 89}, {"time": 384, "pitch": 51, "duration": 20, "velocity": 80}, {"time": 384, "pitch": 58, "duration": 4, "velocity": 87}, {"time": 384, "pitch": 63, "duration": 8, "velocity": 84}, {"time": 390, "pitch": 58, "duration": 4, "velocity": 78}, {"time": 396, "pitch": 58, "duration": 3, "velocity": 97}, {"time": 396, "pitch": 63, "duration": 7, "velocity": 92}, {"time": 396, "pitch": 67, "duration": 7, "velocity": 82}, {"time": 402, "pitch": 58, "duration": 3, "velocity": 76}, {"time": 408, "pitch": 44, "duration": 22, "velocity": 87}, {"time": 408, "pitch": 56, "duration": 10, "velocity": 73}, {"time": 408, "pitch": 59, "duration": 8, "velocity": 59}, {"time": 408, "pitch": 63, "duration": 7, "velocity": 84}, {"time": 414, "pitch": 51, "duration": 14, "velocity": 62}, {"time": 420, "pitch": 59, "duration": 7, "velocity": 96}, {"time": 420, "pitch": 63, "duration": 10, "velocity": 94}, {"time": 426, "pitch": 56, "duration": 3, "velocity": 69}, {"time": 432, "pitch": 41, "duration": 16, "velocity": 80}, {"time": 432, "pitch": 56, "duration": 8, "velocity": 87}, {"time": 432, "pitch": 59, "duration": 9, "velocity": 68}, {"time": 438, "pitch": 53, "duration": 4, "velocity": 55}, {"time": 444, "pitch": 53, "duration": 11, "velocity": 87}, {"time": 444, "pitch": 56, "duration": 12, "velocity": 102}, {"time": 450, "pitch": 41, "duration": 5, "velocity": 78}, {"time": 456, "pitch": 46, "duration": 43, "velocity": 84}, {"time": 456, "pitch": 58, "duration": 13, "velocity": 78}, {"time": 456, "pitch": 65, "duration": 9, "velocity": 82}, {"time": 462, "pitch": 53, "duration": 7, "velocity": 71}, {"time": 468, "pitch": 62, "duration": 9, "velocity": 96}, {"time": 474, "pitch": 53, "duration": 7, "velocity": 66}, {"time": 480, "pitch": 58, "duration": 8, "velocity": 78}, {"time": 480, "pitch": 62, "duration": 10, "velocity": 65}, {"time": 480, "pitch": 70, "duration": 7, "velocity": 89}, {"time": 486, "pitch": 53, "duration": 8, "velocity": 51}, {"time": 492, "pitch": 58, "duration": 10, "velocity": 78}, {"time": 492, "pitch": 62, "duration": 11, "velocity": 52}, {"time": 504, "pitch": 42, "duration": 45, "velocity": 92}, {"time": 504, "pitch": 54, "duration": 9, "velocity": 76}, {"time": 504, "pitch": 58, "duration": 8, "velocity": 78}, {"time": 510, "pitch": 49, "duration": 7, "velocity": 76}, {"time": 516, "pitch": 54, "duration": 12, "velocity": 78}, {"time": 516, "pitch": 58, "duration": 13, "velocity": 82}, {"time": 522, "pitch": 49, "duration": 7, "velocity": 76}, {"time": 528, "pitch": 56, "duration": 12, "velocity": 97}, {"time": 534, "pitch": 49, "duration": 8, "velocity": 76}, {"time": 540, "pitch": 54, "duration": 9, "velocity": 92}, {"time": 546, "pitch": 49, "duration": 7, "velocity": 76}, {"time": 552, "pitch": 41, "duration": 15, "velocity": 82}, {"time": 552, "pitch": 53, "duration": 8, "velocity": 82}, {"time": 552, "pitch": 56, "duration": 15, "velocity": 87}, {"time": 558, "pitch": 49, "duration": 7, "velocity": 71}, {"time": 564, "pitch": 53, "duration": 11, "velocity": 69}, {"time": 570, "pitch": 41, "duration": 4, "velocity": 71}, {"time": 576, "pitch": 46, "duration": 15, "velocity": 92}, {"time": 576, "pitch": 53, "duration": 4, "velocity": 45}, {"time": 576, "pitch": 58, "duration": 10, "velocity": 80}, {"time": 582, "pitch": 53, "duration": 4, "velocity": 64}, {"time": 588, "pitch": 53, "duration": 11, "velocity": 82}, {"time": 588, "pitch": 58, "duration": 12, "velocity": 94}, {"time": 594, "pitch": 46, "duration": 6, "velocity": 82}, {"time": 600, "pitch": 51, "duration": 21, "velocity": 92}, {"time": 600, "pitch": 63, "duration": 13, "velocity": 66}, {"time": 600, "pitch": 66, "duration": 9, "velocity": 80}, {"time": 606, "pitch": 58, "duration": 8, "velocity": 67}, {"time": 612, "pitch": 66, "duration": 7, "velocity": 89}, {"time": 612, "pitch": 70, "duration": 18, "velocity": 94}, {"time": 618, "pitch": 58, "duration": 7, "velocity": 71}, {"time": 624, "pitch": 49, "duration": 20, "velocity": 71}, {"time": 624, "pitch": 61, "duration": 10, "velocity": 62}, {"time": 624, "pitch": 65, "duration": 8, "velocity": 78}, {"time": 630, "pitch": 58, "duration": 8, "velocity": 78}, {"time": 636, "pitch": 61, "duration": 4, "velocity": 67}, {"time": 636, "pitch": 65, "duration": 11, "velocity": 97}, {"time": 636, "pitch": 70, "duration": 32, "velocity": 84}, {"time": 642, "pitch": 58, "duration": 5, "velocity": 71}, {"time": 648, "pitch": 47, "duration": 39, "velocity": 90}, {"time": 654, "pitch": 54, "duration": 9, "velocity": 60}, {"time": 660, "pitch": 59, "duration": 23, "velocity": 77}, {"time": 666, "pitch": 54, "duration": 10, "velocity": 55}, {"time": 672, "pitch": 63, "duration": 10, "velocity": 80}, {"time": 678, "pitch": 54, "duration": 10, "velocity": 41}, {"time": 684, "pitch": 59, "duration": 5, "velocity": 55}, {"time": 684, "pitch": 63, "duration": 4, "velocity": 92}, {"time": 684, "pitch": 66, "duration": 6, "velocity": 84}, {"time": 696, "pitch": 44, "duration": 20, "velocity": 97}, {"time": 696, "pitch": 56, "duration": 11, "velocity": 60}, {"time": 696, "pitch": 59, "duration": 9, "velocity": 39}, {"time": 696, "pitch": 63, "duration": 9, "velocity": 69}, {"time": 702, "pitch": 51, "duration": 8, "velocity": 50}, {"time": 708, "pitch": 59, "duration": 8, "velocity": 99}, {"time": 708, "pitch": 63, "duration": 10, "velocity": 82}, {"time": 714, "pitch": 51, "duration": 4, "velocity": 76}, {"time": 720, "pitch": 49, "duration": 8, "velocity": 94}, {"time": 720, "pitch": 61, "duration": 5, "velocity": 84}, {"time": 720, "pitch": 65, "duration": 5, "velocity": 92}, {"time": 726, "pitch": 56, "duration": 7, "velocity": 64}, {"time": 732, "pitch": 47, "duration": 11, "velocity": 72}, {"time": 732, "pitch": 59, "duration": 10, "velocity": 65}, {"time": 732, "pitch": 63, "duration": 11, "velocity": 84}, {"time": 738, "pitch": 56, "duration": 5, "velocity": 84}, {"time": 744, "pitch": 46, "duration": 14, "velocity": 97}, {"time": 744, "pitch": 58, "duration": 8, "velocity": 73}, {"time": 744, "pitch": 61, "duration": 7, "velocity": 82}, {"time": 750, "pitch": 53, "duration": 8, "velocity": 49}, {"time": 756, "pitch": 58, "duration": 7, "velocity": 97}, {"time": 756, "pitch": 65, "duration": 6, "velocity": 92}, {"time": 762, "pitch": 46, "duration": 5, "velocity": 89}, {"time": 768, "pitch": 51, "duration": 20, "velocity": 80}, {"time": 768, "pitch": 58, "duration": 4, "velocity": 87}, {"time": 768, "pitch": 63, "duration": 8, "velocity": 84}, {"time": 774, "pitch": 58, "duration": 4, "velocity": 78}, {"time": 780, "pitch": 58, "duration": 3, "velocity": 97}, {"time": 780, "pitch": 63, "duration": 7, "velocity": 92}, {"time": 780, "pitch": 67, "duration": 7, "velocity": 82}, {"time": 786, "pitch": 58, "duration": 3, "velocity": 76}, {"time": 792, "pitch": 44, "duration": 22, "velocity": 87}, {"time": 792, "pitch": 56, "duration": 10, "velocity": 73}, {"time": 792, "pitch": 59, "duration": 8, "velocity": 59}, {"time": 792, "pitch": 63, "duration": 7, "velocity": 84}, {"time": 798, "pitch": 51, "duration": 14, "velocity": 62}, {"time": 804, "pitch": 59, "duration": 7, "velocity": 96}, {"time": 804, "pitch": 63, "duration": 10, "velocity": 94}, {"time": 810, "pitch": 56, "duration": 3, "velocity": 69}, {"time": 816, "pitch": 41, "duration": 16, "velocity": 80}, {"time": 816, "pitch": 56, "duration": 8, "velocity": 87}, {"time": 816, "pitch": 59, "duration": 9, "velocity": 68}, {"time": 822, "pitch": 53, "duration": 4, "velocity": 55}, {"time": 828, "pitch": 53, "duration": 11, "velocity": 87}, {"time": 828, "pitch": 56, "duration": 12, "velocity": 102}, {"time": 834, "pitch": 41, "duration": 5, "velocity": 78}, {"time": 840, "pitch": 46, "duration": 43, "velocity": 84}, {"time": 840, "pitch": 58, "duration": 13, "velocity": 78}, {"time": 840, "pitch": 65, "duration": 9, "velocity": 82}, {"time": 846, "pitch": 53, "duration": 7, "velocity": 71}, {"time": 852, "pitch": 62, "duration": 9, "velocity": 96}, {"time": 858, "pitch": 53, "duration": 7, "velocity": 66}, {"time": 864, "pitch": 58, "duration": 8, "velocity": 78}, {"time": 864, "pitch": 62, "duration": 10, "velocity": 65}, {"time": 864, "pitch": 70, "duration": 7, "velocity": 89}, {"time": 870, "pitch": 53, "duration": 8, "velocity": 51}, {"time": 876, "pitch": 58, "duration": 10, "velocity": 78}, {"time": 876, "pitch": 62, "duration": 11, "velocity": 52}, {"time": 888, "pitch": 51, "duration": 22, "velocity": 97}, {"time": 888, "pitch": 63, "duration": 7, "velocity": 71}, {"time": 888, "pitch": 66, "duration": 6, "velocity": 84}, {"time": 888, "pitch": 70, "duration": 6, "velocity": 73}, {"time": 894, "pitch": 58, "duration": 9, "velocity": 62}, {"time": 900, "pitch": 63, "duration": 1, "velocity": 51}, {"time": 900, "pitch": 66, "duration": 9, "velocity": 94}, {"time": 900, "pitch": 70, "duration": 9, "velocity": 94}, {"time": 906, "pitch": 58, "duration": 8, "velocity": 78}, {"time": 912, "pitch": 49, "duration": 14, "velocity": 82}, {"time": 912, "pitch": 61, "duration": 10, "velocity": 80}, {"time": 912, "pitch": 66, "duration": 9, "velocity": 84}, {"time": 912, "pitch": 70, "duration": 9, "velocity": 89}, {"time": 918, "pitch": 58, "duration": 10, "velocity": 50}, {"time": 924, "pitch": 61, "duration": 5, "velocity": 97}, {"time": 924, "pitch": 66, "duration": 4, "velocity": 102}, {"time": 924, "pitch": 70, "duration": 11, "velocity": 97}, {"time": 930, "pitch": 49, "duration": 3, "velocity": 100}, {"time": 936, "pitch": 47, "duration": 14, "velocity": 74}, {"time": 936, "pitch": 59, "duration": 9, "velocity": 65}, {"time": 936, "pitch": 63, "duration": 9, "velocity": 100}, {"time": 936, "pitch": 70, "duration": 9, "velocity": 67}, {"time": 942, "pitch": 54, "duration": 9, "velocity": 34}, {"time": 948, "pitch": 59, "duration": 3, "velocity": 99}, {"time": 948, "pitch": 63, "duration": 3, "velocity": 102}, {"time": 948, "pitch": 70, "duration": 13, "velocity": 100}, {"time": 954, "pitch": 47, "duration": 4, "velocity": 96}, {"time": 960, "pitch": 49, "duration": 15, "velocity": 100}, {"time": 960, "pitch": 61, "duration": 8, "velocity": 80}, {"time": 960, "pitch": 65, "duration": 8, "velocity": 92}, {"time": 966, "pitch": 56, "duration": 9, "velocity": 71}, {"time": 972, "pitch": 61, "duration": 6, "velocity": 92}, {"time": 972, "pitch": 65, "duration": 6, "velocity": 100}, {"time": 972, "pitch": 68, "duration": 15, "velocity": 94}, {"time": 978, "pitch": 49, "duration": 3, "velocity": 94}, {"time": 984, "pitch": 46, "duration": 15, "velocity": 97}, {"time": 984, "pitch": 58, "duration": 10, "velocity": 78}, {"time": 984, "pitch": 61, "duration": 9, "velocity": 89}, {"time": 990, "pitch": 53, "duration": 7, "velocity": 48}, {"time": 996, "pitch": 61, "duration": 10, "velocity": 89}, {"time": 996, "pitch": 65, "duration": 11, "velocity": 92}, {"time": 1002, "pitch": 46, "duration": 3, "velocity": 1}, {"time": 1002, "pitch": 53, "duration": 5, "velocity": 67}, {"time": 1008, "pitch": 46, "duration": 14, "velocity": 76}, {"time": 1008, "pitch": 58, "duration": 9, "velocity": 82}, {"time": 1008, "pitch": 61, "duration": 9, "velocity": 84}, {"time": 1008, "pitch": 65, "duration": 8, "velocity": 84}, {"time": 1008, "pitch": 68, "duration": 6, "velocity": 66}, {"time": 1014, "pitch": 53, "duration": 8, "velocity": 51}, {"time": 1020, "pitch": 58, "duration": 3, "velocity": 105}, {"time": 1020, "pitch": 61, "duration": 3, "velocity": 108}, {"time": 1020, "pitch": 65, "duration": 4, "velocity": 102}, {"time": 1026, "pitch": 46, "duration": 1, "velocity": 97}, {"time": 1032, "pitch": 51, "duration": 21, "velocity": 97}, {"time": 1032, "pitch": 63, "duration": 8, "velocity": 45}, {"time": 1032, "pitch": 66, "duration": 8, "velocity": 82}, {"time": 1032, "pitch": 70, "duration": 8, "velocity": 87}, {"time": 1038, "pitch": 58, "duration": 8, "velocity": 64}, {"time": 1044, "pitch": 63, "duration": 7, "velocity": 80}, {"time": 1044, "pitch": 66, "duration": 6, "velocity": 97}, {"time": 1044, "pitch": 70, "duration": 11, "velocity": 100}, {"time": 1050, "pitch": 58, "duration": 8, "velocity": 78}, {"time": 1056, "pitch": 49, "duration": 14, "velocity": 78}, {"time": 1056, "pitch": 61, "duration": 8, "velocity": 76}, {"time": 1056, "pitch": 65, "duration": 9, "velocity": 87}, {"time": 1056, "pitch": 70, "duration": 8, "velocity": 89}, {"time": 1062, "pitch": 58, "duration": 11, "velocity": 66}, {"time": 1068, "pitch": 61, "duration": 5, "velocity": 92}, {"time": 1068, "pitch": 65, "duration": 5, "velocity": 97}, {"time": 1068, "pitch": 70, "duration": 8, "velocity": 97}, {"time": 1074, "pitch": 49, "duration": 3, "velocity": 84}, {"time": 1080, "pitch": 48, "duration": 16, "velocity": 87}, {"time": 1080, "pitch": 56, "duration": 7, "velocity": 76}, {"time": 1080, "pitch": 63, "duration": 8, "velocity": 82}, {"time": 1086, "pitch": 54, "duration": 41, "velocity": 78}, {"time": 1092, "pitch": 56, "duration": 5, "velocity": 87}, {"time": 1098, "pitch": 48, "duration": 29, "velocity": 89}, {"time": 1098, "pitch": 56, "duration": 29, "velocity": 92}, {"time": 1098, "pitch": 63, "duration": 29, "velocity": 94}, {"time": 1128, "pitch": 47, "duration": 14, "velocity": 65}, {"time": 1128, "pitch": 59, "duration": 6, "velocity": 87}, {"time": 1128, "pitch": 63, "duration": 7, "velocity": 60}, {"time": 1134, "pitch": 54, "duration": 9, "velocity": 66}, {"time": 1140, "pitch": 59, "duration": 5, "velocity": 109}, {"time": 1140, "pitch": 63, "duration": 7, "velocity": 100}, {"time": 1146, "pitch": 47, "duration": 5, "velocity": 68}, {"time": 1152, "pitch": 46, "duration": 14, "velocity": 69}, {"time": 1152, "pitch": 56, "duration": 6, "velocity": 82}, {"time": 1152, "pitch": 62, "duration": 8, "velocity": 57}, {"time": 1158, "pitch": 53, "duration": 9, "velocity": 78}, {"time": 1164, "pitch": 58, "duration": 9, "velocity": 100}, {"time": 1164, "pitch": 62, "duration": 7, "velocity": 105}, {"time": 1164, "pitch": 65, "duration": 8, "velocity": 92}, {"time": 1170, "pitch": 46, "duration": 5, "velocity": 92}, {"time": 1176, "pitch": 51, "duration": 43, "velocity": 97}, {"time": 1176, "pitch": 63, "duration": 9, "velocity": 80}, {"time": 1176, "pitch": 68, "duration": 9, "velocity": 89}, {"time": 1182, "pitch": 58, "duration": 7, "velocity": 78}, {"time": 1188, "pitch": 63, "duration": 10, "velocity": 84}, {"time": 1188, "pitch": 68, "duration": 9, "velocity": 82}, {"time": 1194, "pitch": 58, "duration": 9, "velocity": 73}, {"time": 1200, "pitch": 63, "duration": 10, "velocity": 97}, {"time": 1200, "pitch": 68, "duration": 10, "velocity": 97}, {"time": 1206, "pitch": 58, "duration": 8, "velocity": 76}, {"time": 1212, "pitch": 63, "duration": 10, "velocity": 89}, {"time": 1212, "pitch": 68, "duration": 11, "velocity": 89}, {"time": 1218, "pitch": 58, "duration": 5, "velocity": 67}, {"time": 1224, "pitch": 51, "duration": 31, "velocity": 97}, {"time": 1224, "pitch": 63, "duration": 14, "velocity": 80}, {"time": 1224, "pitch": 67, "duration": 14, "velocity": 77}, {"time": 1236, "pitch": 58, "duration": 20, "velocity": 41}, {"time": 1242, "pitch": 63, "duration": 29, "velocity": 58}, {"time": 1242, "pitch": 67, "duration": 29, "velocity": 50}, {"time": 1242, "pitch": 70, "duration": 29, "velocity": 64}, {"time": 1272, "pitch": 44, "duration": 20, "velocity": 84}, {"time": 1272, "pitch": 56, "duration": 12, "velocity": 71}, {"time": 1272, "pitch": 63, "duration": 9, "velocity": 87}, {"time": 1278, "pitch": 51, "duration": 14, "velocity": 60}, {"time": 1284, "pitch": 59, "duration": 7, "velocity": 102}, {"time": 1290, "pitch": 56, "duration": 4, "velocity": 82}, {"time": 1296, "pitch": 49, "duration": 16, "velocity": 89}, {"time": 1296, "pitch": 56, "duration": 3, "velocity": 76}, {"time": 1296, "pitch": 61, "duration": 8, "velocity": 84}, {"time": 1302, "pitch": 56, "duration": 4, "velocity": 45}, {"time": 1308, "pitch": 65, "duration": 11, "velocity": 100}, {"time": 1314, "pitch": 56, "duration": 3, "velocity": 87}, {"time": 1320, "pitch": 46, "duration": 15, "velocity": 71}, {"time": 1320, "pitch": 58, "duration": 8, "velocity": 87}, {"time": 1320, "pitch": 61, "duration": 7, "velocity": 80}, {"time": 1326, "pitch": 53, "duration": 9, "velocity": 57}, {"time": 1332, "pitch": 58, "duration": 7, "velocity": 100}, {"time": 1332, "pitch": 65, "duration": 6, "velocity": 92}, {"time": 1338, "pitch": 46, "duration": 6, "velocity": 97}, {"time": 1344, "pitch": 51, "duration": 18, "velocity": 84}, {"time": 1344, "pitch": 58, "duration": 3, "velocity": 71}, {"time": 1344, "pitch": 63, "duration": 8, "velocity": 78}, {"time": 1350, "pitch": 58, "duration": 4, "velocity": 58}, {"time": 1356, "pitch": 58, "duration": 3, "velocity": 100}, {"time": 1356, "pitch": 66, "duration": 13, "velocity": 92}, {"time": 1362, "pitch": 58, "duration": 3, "velocity": 89}, {"time": 1368, "pitch": 44, "duration": 22, "velocity": 92}, {"time": 1368, "pitch": 56, "duration": 12, "velocity": 78}, {"time": 1368, "pitch": 63, "duration": 13, "velocity": 84}, {"time": 1374, "pitch": 51, "duration": 12, "velocity": 62}, {"time": 1380, "pitch": 59, "duration": 7, "velocity": 112}, {"time": 1386, "pitch": 56, "duration": 2, "velocity": 105}, {"time": 1392, "pitch": 41, "duration": 15, "velocity": 87}, {"time": 1392, "pitch": 53, "duration": 7, "velocity": 78}, {"time": 1392, "pitch": 59, "duration": 8, "velocity": 44}, {"time": 1398, "pitch": 47, "duration": 9, "velocity": 59}, {"time": 1404, "pitch": 53, "duration": 10, "velocity": 94}, {"time": 1404, "pitch": 56, "duration": 11, "velocity": 105}, {"time": 1410, "pitch": 41, "duration": 2, "velocity": 97}, {"time": 1416, "pitch": 46, "duration": 46, "velocity": 80}, {"time": 1416, "pitch": 58, "duration": 13, "velocity": 80}, {"time": 1416, "pitch": 65, "duration": 12, "velocity": 84}, {"time": 1422, "pitch": 53, "duration": 19, "velocity": 76}, {"time": 1428, "pitch": 62, "duration": 7, "velocity": 99}, {"time": 1434, "pitch": 65, "duration": 4, "velocity": 84}, {"time": 1440, "pitch": 58, "duration": 22, "velocity": 87}, {"time": 1440, "pitch": 70, "duration": 23, "velocity": 84}, {"time": 1446, "pitch": 53, "duration": 15, "velocity": 53}, {"time": 1452, "pitch": 62, "duration": 10, "velocity": 34}, {"time": 1452, "pitch": 65, "duration": 10, "velocity": 40}, {"time": 1464, "pitch": 42, "duration": 45, "velocity": 92}, {"time": 1464, "pitch": 54, "duration": 9, "velocity": 76}, {"time": 1464, "pitch": 58, "duration": 8, "velocity": 78}, {"time": 1470, "pitch": 49, "duration": 7, "velocity": 76}, {"time": 1476, "pitch": 54, "duration": 12, "velocity": 78}, {"time": 1476, "pitch": 58, "duration": 13, "velocity": 82}, {"time": 1482, "pitch": 49, "duration": 7, "velocity": 76}, {"time": 1488, "pitch": 56, "duration": 12, "velocity": 97}, {"time": 1494, "pitch": 49, "duration": 8, "velocity": 76}, {"time": 1500, "pitch": 54, "duration": 9, "velocity": 92}, {"time": 1506, "pitch": 49, "duration": 7, "velocity": 76}, {"time": 1512, "pitch": 41, "duration": 15, "velocity": 82}, {"time": 1512, "pitch": 53, "duration": 8, "velocity": 82}, {"time": 1512, "pitch": 56, "duration": 15, "velocity": 87}, {"time": 1518, "pitch": 49, "duration": 7, "velocity": 71}, {"time": 1524, "pitch": 53, "duration": 11, "velocity": 69}, {"time": 1530, "pitch": 41, "duration": 4, "velocity": 71}, {"time": 1536, "pitch": 46, "duration": 15, "velocity": 92}, {"time": 1536, "pitch": 53, "duration": 4, "velocity": 45}, {"time": 1536, "pitch": 58, "duration": 10, "velocity": 80}, {"time": 1542, "pitch": 53, "duration": 4, "velocity": 64}, {"time": 1548, "pitch": 53, "duration": 11, "velocity": 82}, {"time": 1548, "pitch": 58, "duration": 12, "velocity": 94}, {"time": 1554, "pitch": 46, "duration": 6, "velocity": 82}, {"time": 1560, "pitch": 51, "duration": 21, "velocity": 92}, {"time": 1560, "pitch": 63, "duration": 13, "velocity": 66}, {"time": 1560, "pitch": 66, "duration": 9, "velocity": 80}, {"time": 1566, "pitch": 58, "duration": 8, "velocity": 67}, {"time": 1572, "pitch": 66, "duration": 7, "velocity": 89}, {"time": 1572, "pitch": 70, "duration": 18, "velocity": 94}, {"time": 1578, "pitch": 58, "duration": 7, "velocity": 71}, {"time": 1584, "pitch": 49, "duration": 20, "velocity": 71}, {"time": 1584, "pitch": 61, "duration": 10, "velocity": 62}, {"time": 1584, "pitch": 65, "duration": 8, "velocity": 78}, {"time": 1590, "pitch": 58, "duration": 8, "velocity": 78}, {"time": 1596, "pitch": 61, "duration": 4, "velocity": 67}, {"time": 1596, "pitch": 65, "duration": 11, "velocity": 97}, {"time": 1596, "pitch": 70, "duration": 32, "velocity": 84}, {"time": 1602, "pitch": 58, "duration": 5, "velocity": 71}, {"time": 1608, "pitch": 47, "duration": 39, "velocity": 90}, {"time": 1614, "pitch": 54, "duration": 9, "velocity": 60}, {"time": 1620, "pitch": 59, "duration": 23, "velocity": 77}, {"time": 1626, "pitch": 54, "duration": 10, "velocity": 55}, {"time": 1632, "pitch": 63, "duration": 10, "velocity": 80}, {"time": 1638, "pitch": 54, "duration": 10, "velocity": 41}, {"time": 1644, "pitch": 59, "duration": 5, "velocity": 55}, {"time": 1644, "pitch": 63, "duration": 4, "velocity": 92}, {"time": 1644, "pitch": 66, "duration": 6, "velocity": 84}, {"time": 1656, "pitch": 44, "duration": 20, "velocity": 97}, {"time": 1656, "pitch": 56, "duration": 11, "velocity": 60}, {"time": 1656, "pitch": 59, "duration": 9, "velocity": 39}, {"time": 1656, "pitch": 63, "duration": 9, "velocity": 69}, {"time": 1662, "pitch": 51, "duration": 8, "velocity": 50}, {"time": 1668, "pitch": 59, "duration": 8, "velocity": 99}, {"time": 1668, "pitch": 63, "duration": 10, "velocity": 82}, {"time": 1674, "pitch": 51, "duration": 4, "velocity": 76}, {"time": 1680, "pitch": 49, "duration": 8, "velocity": 94}, {"time": 1680, "pitch": 61, "duration": 5, "velocity": 84}, {"time": 1680, "pitch": 65, "duration": 5, "velocity": 92}, {"time": 1686, "pitch": 56, "duration": 7, "velocity": 64}, {"time": 1692, "pitch": 47, "duration": 11, "velocity": 72}, {"time": 1692, "pitch": 59, "duration": 10, "velocity": 65}, {"time": 1692, "pitch": 63, "duration": 11, "velocity": 84}, {"time": 1698, "pitch": 56, "duration": 5, "velocity": 84}, {"time": 1704, "pitch": 46, "duration": 14, "velocity": 97}, {"time": 1704, "pitch": 58, "duration": 8, "velocity": 73}, {"time": 1704, "pitch": 61, "duration": 7, "velocity": 82}, {"time": 1710, "pitch": 53, "duration": 8, "velocity": 49}, {"time": 1716, "pitch": 58, "duration": 7, "velocity": 97}, {"time": 1716, "pitch": 65, "duration": 6, "velocity": 92}, {"time": 1722, "pitch": 46, "duration": 5, "velocity": 89}, {"time": 1728, "pitch": 51, "duration": 20, "velocity": 80}, {"time": 1728, "pitch": 58, "duration": 4, "velocity": 87}, {"time": 1728, "pitch": 63, "duration": 8, "velocity": 84}, {"time": 1734, "pitch": 58, "duration": 4, "velocity": 78}, {"time": 1740, "pitch": 58, "duration": 3, "velocity": 97}, {"time": 1740, "pitch": 63, "duration": 7, "velocity": 92}, {"time": 1740, "pitch": 67, "duration": 7, "velocity": 82}, {"time": 1746, "pitch": 58, "duration": 3, "velocity": 76}, {"time": 1752, "pitch": 44, "duration": 22, "velocity": 87}, {"time": 1752, "pitch": 56, "duration": 10, "velocity": 73}, {"time": 1752, "pitch": 59, "duration": 8, "velocity": 59}, {"time": 1752, "pitch": 63, "duration": 7, "velocity": 84}, {"time": 1758, "pitch": 51, "duration": 14, "velocity": 62}, {"time": 1764, "pitch": 59, "duration": 7, "velocity": 96}, {"time": 1764, "pitch": 63, "duration": 10, "velocity": 94}, {"time": 1770, "pitch": 56, "duration": 3, "velocity": 69}, {"time": 1776, "pitch": 41, "duration": 16, "velocity": 80}, {"time": 1776, "pitch": 56, "duration": 8, "velocity": 87}, {"time": 1776, "pitch": 59, "duration": 9, "velocity": 68}, {"time": 1782, "pitch": 53, "duration": 4, "velocity": 55}, {"time": 1788, "pitch": 53, "duration": 11, "velocity": 87}, {"time": 1788, "pitch": 56, "duration": 12, "velocity": 102}, {"time": 1794, "pitch": 41, "duration": 5, "velocity": 78}, {"time": 1800, "pitch": 46, "duration": 24, "velocity": 84}, {"time": 1800, "pitch": 58, "duration": 13, "velocity": 78}, {"time": 1800, "pitch": 65, "duration": 9, "velocity": 82}, {"time": 1806, "pitch": 53, "duration": 7, "velocity": 71}, {"time": 1812, "pitch": 62, "duration": 9, "velocity": 96}, {"time": 1818, "pitch": 53, "duration": 6, "velocity": 66}, {"time": 1824, "pitch": 58, "duration": 8, "velocity": 78}, {"time": 1824, "pitch": 62, "duration": 10, "velocity": 65}, {"time": 1824, "pitch": 70, "duration": 7, "velocity": 89}, {"time": 1830, "pitch": 53, "duration": 8, "velocity": 51}, {"time": 1836, "pitch": 58, "duration": 10, "velocity": 78}, {"time": 1836, "pitch": 62, "duration": 11, "velocity": 52}, {"time": 1848, "pitch": 51, "duration": 22, "velocity": 97}, {"time": 1848, "pitch": 63, "duration": 7, "velocity": 71}, {"time": 1848, "pitch": 66, "duration": 6, "velocity": 84}, {"time": 1848, "pitch": 70, "duration": 6, "velocity": 73}, {"time": 1854, "pitch": 58, "duration": 9, "velocity": 62}, {"time": 1860, "pitch": 63, "duration": 1, "velocity": 51}, {"time": 1860, "pitch": 66, "duration": 9, "velocity": 94}, {"time": 1860, "pitch": 70, "duration": 9, "velocity": 94}, {"time": 1866, "pitch": 58, "duration": 8, "velocity": 78}, {"time": 1872, "pitch": 49, "duration": 14, "velocity": 82}, {"time": 1872, "pitch": 61, "duration": 10, "velocity": 80}, {"time": 1872, "pitch": 66, "duration": 9, "velocity": 84}, {"time": 1872, "pitch": 70, "duration": 9, "velocity": 89}, {"time": 1878, "pitch": 58, "duration": 10, "velocity": 50}, {"time": 1884, "pitch": 61, "duration": 5, "velocity": 97}, {"time": 1884, "pitch": 66, "duration": 4, "velocity": 102}, {"time": 1884, "pitch": 70, "duration": 11, "velocity": 97}, {"time": 1890, "pitch": 49, "duration": 3, "velocity": 100}, {"time": 1896, "pitch": 47, "duration": 14, "velocity": 74}, {"time": 1896, "pitch": 59, "duration": 9, "velocity": 65}, {"time": 1896, "pitch": 63, "duration": 9, "velocity": 100}, {"time": 1896, "pitch": 70, "duration": 9, "velocity": 67}, {"time": 1902, "pitch": 54, "duration": 9, "velocity": 34}, {"time": 1908, "pitch": 59, "duration": 3, "velocity": 99}, {"time": 1908, "pitch": 63, "duration": 3, "velocity": 102}, {"time": 1908, "pitch": 70, "duration": 13, "velocity": 100}, {"time": 1914, "pitch": 47, "duration": 4, "velocity": 96}, {"time": 1920, "pitch": 49, "duration": 15, "velocity": 100}, {"time": 1920, "pitch": 61, "duration": 8, "velocity": 80}, {"time": 1920, "pitch": 65, "duration": 8, "velocity": 92}, {"time": 1926, "pitch": 56, "duration": 9, "velocity": 71}, {"time": 1932, "pitch": 61, "duration": 6, "velocity": 92}, {"time": 1932, "pitch": 65, "duration": 6, "velocity": 100}, {"time": 1932, "pitch": 68, "duration": 15, "velocity": 94}, {"time": 1938, "pitch": 49, "duration": 3, "velocity": 94}, {"time": 1944, "pitch": 46, "duration": 15, "velocity": 97}, {"time": 1944, "pitch": 58, "duration": 10, "velocity": 78}, {"time": 1944, "pitch": 61, "duration": 9, "velocity": 89}, {"time": 1950, "pitch": 53, "duration": 7, "velocity": 48}, {"time": 1956, "pitch": 61, "duration": 10, "velocity": 89}, {"time": 1956, "pitch": 65, "duration": 11, "velocity": 92}, {"time": 1962, "pitch": 46, "duration": 3, "velocity": 1}, {"time": 1962, "pitch": 53, "duration": 5, "velocity": 67}, {"time": 1968, "pitch": 46, "duration": 14, "velocity": 76}, {"time": 1968, "pitch": 58, "duration": 9, "velocity": 82}, {"time": 1968, "pitch": 61, "duration": 9, "velocity": 84}, {"time": 1968, "pitch": 65, "duration": 8, "velocity": 84}, {"time": 1968, "pitch": 68, "duration": 6, "velocity": 66}, {"time": 1974, "pitch": 53, "duration": 8, "velocity": 51}, {"time": 1980, "pitch": 58, "duration": 3, "velocity": 105}, {"time": 1980, "pitch": 61, "duration": 3, "velocity": 108}, {"time": 1980, "pitch": 65, "duration": 4, "velocity": 102}, {"time": 1986, "pitch": 46, "duration": 1, "velocity": 97}, {"time": 1992, "pitch": 51, "duration": 21, "velocity": 97}, {"time": 1992, "pitch": 63, "duration": 8, "velocity": 45}, {"time": 1992, "pitch": 66, "duration": 8, "velocity": 82}, {"time": 1992, "pitch": 70, "duration": 8, "velocity": 87}, {"time": 1998, "pitch": 58, "duration": 8, "velocity": 64}, {"time": 2004, "pitch": 63, "duration": 7, "velocity": 80}, {"time": 2004, "pitch": 66, "duration": 6, "velocity": 97}, {"time": 2004, "pitch": 70, "duration": 11, "velocity": 100}, {"time": 2010, "pitch": 58, "duration": 8, "velocity": 78}, {"time": 2016, "pitch": 49, "duration": 14, "velocity": 78}, {"time": 2016, "pitch": 61, "duration": 8, "velocity": 76}, {"time": 2016, "pitch": 65, "duration": 9, "velocity": 87}, {"time": 2016, "pitch": 70, "duration": 8, "velocity": 89}, {"time": 2022, "pitch": 58, "duration": 11, "velocity": 66}, {"time": 2028, "pitch": 61, "duration": 5, "velocity": 92}, {"time": 2028, "pitch": 65, "duration": 5, "velocity": 97}, {"time": 2028, "pitch": 70, "duration": 8, "velocity": 97}, {"time": 2034, "pitch": 49, "duration": 3, "velocity": 84}, {"time": 2040, "pitch": 48, "duration": 16, "velocity": 87}, {"time": 2040, "pitch": 56, "duration": 7, "velocity": 76}, {"time": 2040, "pitch": 63, "duration": 8, "velocity": 82}, {"time": 2046, "pitch": 54, "duration": 41, "velocity": 78}, {"time": 2052, "pitch": 56, "duration": 5, "velocity": 87}, {"time": 2058, "pitch": 48, "duration": 29, "velocity": 89}, {"time": 2058, "pitch": 56, "duration": 29, "velocity": 92}, {"time": 2058, "pitch": 63, "duration": 29, "velocity": 94}, {"time": 2088, "pitch": 47, "duration": 14, "velocity": 65}, {"time": 2088, "pitch": 59, "duration": 6, "velocity": 87}, {"time": 2088, "pitch": 63, "duration": 7, "velocity": 60}, {"time": 2094, "pitch": 54, "duration": 9, "velocity": 66}, {"time": 2100, "pitch": 59, "duration": 5, "velocity": 109}, {"time": 2100, "pitch": 63, "duration": 7, "velocity": 100}, {"time": 2106, "pitch": 47, "duration": 5, "velocity": 68}, {"time": 2112, "pitch": 46, "duration": 14, "velocity": 69}, {"time": 2112, "pitch": 56, "duration": 6, "velocity": 82}, {"time": 2112, "pitch": 62, "duration": 8, "velocity": 57}, {"time": 2118, "pitch": 53, "duration": 9, "velocity": 78}, {"time": 2124, "pitch": 58, "duration": 9, "velocity": 100}, {"time": 2124, "pitch": 62, "duration": 7, "velocity": 105}, {"time": 2124, "pitch": 65, "duration": 8, "velocity": 92}, {"time": 2130, "pitch": 46, "duration": 5, "velocity": 92}, {"time": 2136, "pitch": 51, "duration": 22, "velocity": 97}, {"time": 2136, "pitch": 63, "duration": 7, "velocity": 71}, {"time": 2136, "pitch": 66, "duration": 6, "velocity": 84}, {"time": 2136, "pitch": 70, "duration": 6, "velocity": 73}, {"time": 2142, "pitch": 58, "duration": 9, "velocity": 62}, {"time": 2148, "pitch": 63, "duration": 1, "velocity": 51}, {"time": 2148, "pitch": 66, "duration": 9, "velocity": 94}, {"time": 2148, "pitch": 70, "duration": 9, "velocity": 94}, {"time": 2154, "pitch": 58, "duration": 8, "velocity": 78}, {"time": 2160, "pitch": 49, "duration": 14, "velocity": 82}, {"time": 2160, "pitch": 61, "duration": 10, "velocity": 80}, {"time": 2160, "pitch": 66, "duration": 9, "velocity": 84}, {"time": 2160, "pitch": 70, "duration": 9, "velocity": 89}, {"time": 2166, "pitch": 58, "duration": 10, "velocity": 50}, {"time": 2172, "pitch": 61, "duration": 5, "velocity": 97}, {"time": 2172, "pitch": 66, "duration": 4, "velocity": 102}, {"time": 2172, "pitch": 70, "duration": 11, "velocity": 97}, {"time": 2178, "pitch": 49, "duration": 3, "velocity": 100}, {"time": 2184, "pitch": 47, "duration": 14, "velocity": 74}, {"time": 2184, "pitch": 59, "duration": 9, "velocity": 65}, {"time": 2184, "pitch": 63, "duration": 9, "velocity": 100}, {"time": 2184, "pitch": 70, "duration": 9, "velocity": 67}, {"time": 2190, "pitch": 54, "duration": 9, "velocity": 34}, {"time": 2196, "pitch": 59, "duration": 3, "velocity": 99}, {"time": 2196, "pitch": 63, "duration": 3, "velocity": 102}, {"time": 2196, "pitch": 70, "duration": 13, "velocity": 100}, {"time": 2202, "pitch": 47, "duration": 4, "velocity": 96}, {"time": 2208, "pitch": 49, "duration": 15, "velocity": 100}, {"time": 2208, "pitch": 61, "duration": 8, "velocity": 80}, {"time": 2208, "pitch": 65, "duration": 8, "velocity": 92}, {"time": 2214, "pitch": 56, "duration": 9, "velocity": 71}, {"time": 2220, "pitch": 61, "duration": 6, "velocity": 92}, {"time": 2220, "pitch": 65, "duration": 6, "velocity": 100}, {"time": 2220, "pitch": 68, "duration": 15, "velocity": 94}, {"time": 2226, "pitch": 49, "duration": 3, "velocity": 94}, {"time": 2232, "pitch": 46, "duration": 15, "velocity": 97}, {"time": 2232, "pitch": 58, "duration": 10, "velocity": 78}, {"time": 2232, "pitch": 61, "duration": 9, "velocity": 89}, {"time": 2238, "pitch": 53, "duration": 7, "velocity": 48}, {"time": 2244, "pitch": 61, "duration": 10, "velocity": 89}, {"time": 2244, "pitch": 65, "duration": 11, "velocity": 92}, {"time": 2250, "pitch": 46, "duration": 3, "velocity": 1}, {"time": 2250, "pitch": 53, "duration": 5, "velocity": 67}, {"time": 2256, "pitch": 46, "duration": 14, "velocity": 76}, {"time": 2256, "pitch": 58, "duration": 9, "velocity": 82}, {"time": 2256, "pitch": 61, "duration": 9, "velocity": 84}, {"time": 2256, "pitch": 65, "duration": 8, "velocity": 84}, {"time": 2256, "pitch": 68, "duration": 6, "velocity": 66}, {"time": 2262, "pitch": 53, "duration": 8, "velocity": 51}, {"time": 2268, "pitch": 58, "duration": 3, "velocity": 105}, {"time": 2268, "pitch": 61, "duration": 3, "velocity": 108}, {"time": 2268, "pitch": 65, "duration": 4, "velocity": 102}, {"time": 2274, "pitch": 46, "duration": 1, "velocity": 97}, {"time": 2280, "pitch": 51, "duration": 21, "velocity": 97}, {"time": 2280, "pitch": 63, "duration": 8, "velocity": 45}, {"time": 2280, "pitch": 66, "duration": 8, "velocity": 82}, {"time": 2280, "pitch": 70, "duration": 8, "velocity": 87}, {"time": 2286, "pitch": 58, "duration": 8, "velocity": 64}, {"time": 2292, "pitch": 63, "duration": 7, "velocity": 80}, {"time": 2292, "pitch": 66, "duration": 6, "velocity": 97}, {"time": 2292, "pitch": 70, "duration": 11, "velocity": 100}, {"time": 2298, "pitch": 58, "duration": 8, "velocity": 78}, {"time": 2304, "pitch": 49, "duration": 14, "velocity": 78}, {"time": 2304, "pitch": 61, "duration": 8, "velocity": 76}, {"time": 2304, "pitch": 65, "duration": 9, "velocity": 87}, {"time": 2304, "pitch": 70, "duration": 8, "velocity": 89}, {"time": 2310, "pitch": 58, "duration": 11, "velocity": 66}, {"time": 2316, "pitch": 61, "duration": 5, "velocity": 92}, {"time": 2316, "pitch": 65, "duration": 5, "velocity": 97}, {"time": 2316, "pitch": 70, "duration": 8, "velocity": 97}, {"time": 2322, "pitch": 49, "duration": 3, "velocity": 84}, {"time": 2328, "pitch": 48, "duration": 16, "velocity": 87}, {"time": 2328, "pitch": 56, "duration": 7, "velocity": 76}, {"time": 2328, "pitch": 63, "duration": 8, "velocity": 82}, {"time": 2334, "pitch": 54, "duration": 41, "velocity": 78}, {"time": 2340, "pitch": 56, "duration": 5, "velocity": 87}, {"time": 2346, "pitch": 48, "duration": 29, "velocity": 89}, {"time": 2346, "pitch": 56, "duration": 29, "velocity": 92}, {"time": 2346, "pitch": 63, "duration": 29, "velocity": 94}, {"time": 2376, "pitch": 47, "duration": 14, "velocity": 65}, {"time": 2376, "pitch": 59, "duration": 6, "velocity": 87}, {"time": 2376, "pitch": 63, "duration": 7, "velocity": 60}, {"time": 2382, "pitch": 54, "duration": 9, "velocity": 66}, {"time": 2388, "pitch": 59, "duration": 5, "velocity": 109}, {"time": 2388, "pitch": 63, "duration": 7, "velocity": 100}, {"time": 2394, "pitch": 47, "duration": 5, "velocity": 68}, {"time": 2400, "pitch": 46, "duration": 14, "velocity": 69}, {"time": 2400, "pitch": 56, "duration": 6, "velocity": 82}, {"time": 2400, "pitch": 62, "duration": 8, "velocity": 57}, {"time": 2406, "pitch": 53, "duration": 9, "velocity": 78}, {"time": 2412, "pitch": 58, "duration": 9, "velocity": 100}, {"time": 2412, "pitch": 62, "duration": 7, "velocity": 105}, {"time": 2412, "pitch": 65, "duration": 8, "velocity": 92}, {"time": 2418, "pitch": 46, "duration": 5, "velocity": 92}, {"time": 2424, "pitch": 51, "duration": 22, "velocity": 97}, {"time": 2424, "pitch": 63, "duration": 7, "velocity": 71}, {"time": 2424, "pitch": 66, "duration": 6, "velocity": 84}, {"time": 2424, "pitch": 70, "duration": 6, "velocity": 73}, {"time": 2430, "pitch": 58, "duration": 9, "velocity": 62}, {"time": 2436, "pitch": 63, "duration": 1, "velocity": 51}, {"time": 2436, "pitch": 66, "duration": 9, "velocity": 94}, {"time": 2436, "pitch": 70, "duration": 9, "velocity": 94}, {"time": 2442, "pitch": 58, "duration": 8, "velocity": 78}, {"time": 2448, "pitch": 49, "duration": 14, "velocity": 82}, {"time": 2448, "pitch": 61, "duration": 10, "velocity": 80}, {"time": 2448, "pitch": 66, "duration": 9, "velocity": 84}, {"time": 2448, "pitch": 70, "duration": 9, "velocity": 89}, {"time": 2454, "pitch": 58, "duration": 10, "velocity": 50}, {"time": 2460, "pitch": 61, "duration": 5, "velocity": 97}, {"time": 2460, "pitch": 66, "duration": 4, "velocity": 102}, {"time": 2460, "pitch": 70, "duration": 11, "velocity": 97}, {"time": 2466, "pitch": 49, "duration": 3, "velocity": 100}, {"time": 2472, "pitch": 47, "duration": 14, "velocity": 74}, {"time": 2472, "pitch": 59, "duration": 9, "velocity": 65}, {"time": 2472, "pitch": 63, "duration": 9, "velocity": 100}, {"time": 2472, "pitch": 70, "duration": 9, "velocity": 67}, {"time": 2478, "pitch": 54, "duration": 9, "velocity": 34}, {"time": 2484, "pitch": 59, "duration": 3, "velocity": 99}, {"time": 2484, "pitch": 63, "duration": 3, "velocity": 102}, {"time": 2484, "pitch": 70, "duration": 13, "velocity": 100}, {"time": 2490, "pitch": 47, "duration": 4, "velocity": 96}, {"time": 2496, "pitch": 49, "duration": 15, "velocity": 100}, {"time": 2496, "pitch": 61, "duration": 8, "velocity": 80}, {"time": 2496, "pitch": 65, "duration": 8, "velocity": 92}, {"time": 2502, "pitch": 56, "duration": 9, "velocity": 71}, {"time": 2508, "pitch": 61, "duration": 6, "velocity": 92}, {"time": 2508, "pitch": 65, "duration": 6, "velocity": 100}, {"time": 2508, "pitch": 68, "duration": 15, "velocity": 94}, {"time": 2514, "pitch": 49, "duration": 3, "velocity": 94}, {"time": 2520, "pitch": 46, "duration": 15, "velocity": 97}, {"time": 2520, "pitch": 58, "duration": 10, "velocity": 78}, {"time": 2520, "pitch": 61, "duration": 9, "velocity": 89}, {"time": 2526, "pitch": 53, "duration": 7, "velocity": 48}, {"time": 2532, "pitch": 61, "duration": 10, "velocity": 89}, {"time": 2532, "pitch": 65, "duration": 11, "velocity": 92}, {"time": 2538, "pitch": 46, "duration": 3, "velocity": 1}, {"time": 2538, "pitch": 53, "duration": 5, "velocity": 67}, {"time": 2544, "pitch": 46, "duration": 14, "velocity": 76}, {"time": 2544, "pitch": 58, "duration": 9, "velocity": 82}, {"time": 2544, "pitch": 61, "duration": 9, "velocity": 84}, {"time": 2544, "pitch": 65, "duration": 8, "velocity": 84}, {"time": 2544, "pitch": 68, "duration": 6, "velocity": 66}, {"time": 2550, "pitch": 53, "duration": 8, "velocity": 51}, {"time": 2556, "pitch": 58, "duration": 3, "velocity": 105}, {"time": 2556, "pitch": 61, "duration": 3, "velocity": 108}, {"time": 2556, "pitch": 65, "duration": 4, "velocity": 102}, {"time": 2562, "pitch": 46, "duration": 1, "velocity": 97}, {"time": 2568, "pitch": 51, "duration": 21, "velocity": 97}, {"time": 2568, "pitch": 63, "duration": 8, "velocity": 45}, {"time": 2568, "pitch": 66, "duration": 8, "velocity": 82}, {"time": 2568, "pitch": 70, "duration": 8, "velocity": 87}, {"time": 2574, "pitch": 58, "duration": 8, "velocity": 64}, {"time": 2580, "pitch": 63, "duration": 7, "velocity": 80}, {"time": 2580, "pitch": 66, "duration": 6, "velocity": 97}, {"time": 2580, "pitch": 70, "duration": 11, "velocity": 100}, {"time": 2586, "pitch": 58, "duration": 8, "velocity": 78}, {"time": 2592, "pitch": 49, "duration": 14, "velocity": 78}, {"time": 2592, "pitch": 61, "duration": 8, "velocity": 76}, {"time": 2592, "pitch": 65, "duration": 9, "velocity": 87}, {"time": 2592, "pitch": 70, "duration": 8, "velocity": 89}, {"time": 2598, "pitch": 58, "duration": 11, "velocity": 66}, {"time": 2604, "pitch": 61, "duration": 5, "velocity": 92}, {"time": 2604, "pitch": 65, "duration": 5, "velocity": 97}, {"time": 2604, "pitch": 70, "duration": 8, "velocity": 97}, {"time": 2610, "pitch": 49, "duration": 3, "velocity": 84}, {"time": 2616, "pitch": 48, "duration": 16, "velocity": 87}, {"time": 2616, "pitch": 56, "duration": 7, "velocity": 76}, {"time": 2616, "pitch": 63, "duration": 8, "velocity": 82}, {"time": 2622, "pitch": 54, "duration": 41, "velocity": 78}, {"time": 2628, "pitch": 56, "duration": 5, "velocity": 87}, {"time": 2634, "pitch": 48, "duration": 29, "velocity": 89}, {"time": 2634, "pitch": 56, "duration": 29, "velocity": 92}, {"time": 2634, "pitch": 63, "duration": 29, "velocity": 94}, {"time": 2664, "pitch": 47, "duration": 14, "velocity": 65}, {"time": 2664, "pitch": 59, "duration": 6, "velocity": 87}, {"time": 2664, "pitch": 63, "duration": 7, "velocity": 60}, {"time": 2670, "pitch": 54, "duration": 9, "velocity": 66}, {"time": 2676, "pitch": 59, "duration": 5, "velocity": 109}, {"time": 2676, "pitch": 63, "duration": 7, "velocity": 100}, {"time": 2682, "pitch": 47, "duration": 5, "velocity": 68}, {"time": 2688, "pitch": 46, "duration": 14, "velocity": 69}, {"time": 2688, "pitch": 56, "duration": 6, "velocity": 82}, {"time": 2688, "pitch": 62, "duration": 8, "velocity": 57}, {"time": 2694, "pitch": 53, "duration": 9, "velocity": 78}, {"time": 2700, "pitch": 58, "duration": 9, "velocity": 100}, {"time": 2700, "pitch": 62, "duration": 7, "velocity": 105}, {"time": 2700, "pitch": 65, "duration": 8, "velocity": 92}, {"time": 2706, "pitch": 46, "duration": 5, "velocity": 92}, {"time": 2762, "pitch": 51, "duration": 25, "velocity": 76}, {"time": 2767, "pitch": 58, "duration": 17, "velocity": 29}, {"time": 2772, "pitch": 63, "duration": 5, "velocity": 41}, {"time": 2777, "pitch": 65, "duration": 8, "velocity": 82}, {"time": 2785, "pitch": 67, "duration": 8, "velocity": 71}, {"time": 2800, "pitch": 51, "duration": 46, "velocity": 52}, {"time": 2802, "pitch": 58, "duration": 44, "velocity": 60}, {"time": 2804, "pitch": 67, "duration": 13, "velocity": 52}, {"time": 2806, "pitch": 79, "duration": 12, "velocity": 52}, {"time": 2807, "pitch": 82, "duration": 12, "velocity": 52}, {"time": 2817, "pitch": 63, "duration": 29, "velocity": 1}], "annotations": [{"time": 123, "annotation": {"number": 64, "value": 127}, "group": "control_change"}, {"time": 146, "annotation": {"number": 64, "value": 0}, "group": "control_change"}, {"time": 151, "annotation": {"number": 64, "value": 127}, "group": "control_change"}, {"time": 167, "annotation": {"number": 64, "value": 0}, "group": "control_change"}, {"time": 175, "annotation": {"number": 64, "value": 127}, "group": "control_change"}, {"time": 191, "annotation": {"number": 64, "value": 0}, "group": "control_change"}, {"time": 196, "annotation": {"number": 64, "value": 127}, "group": "control_change"}, {"time": 216, "annotation": {"number": 64, "value": 0}, "group": "control_change"}, {"time": 221, "annotation": {"number": 64, "value": 127}, "group": "control_change"}, {"time": 240, "annotation": {"number": 64, "value": 0}, "group": "control_change"}, {"time": 247, "annotation": {"number": 64, "value": 127}, "group": "control_change"}, {"time": 264, "annotation": {"number": 64, "value": 0}, "group": "control_change"}, {"time": 295, "annotation": {"number": 64, "value": 127}, "group": "control_change"}, {"time": 311, "annotation": {"number": 64, "value": 0}, "group": "control_change"}, {"time": 319, "annotation": {"number": 64, "value": 127}, "group": "control_change"}, {"time": 328, "annotation": {"number": 64, "value": 127}, "group": "control_change"}, {"time": 334, "annotation": {"number": 64, "value": 0}, "group": "control_change"}, {"time": 337, "annotation": {"number": 64, "value": 127}, "group": "control_change"}, {"time": 348, "annotation": {"number": 64, "value": 0}, "group": "control_change"}, {"time": 353, "annotation": {"number": 64, "value": 127}, "group": "control_change"}, {"time": 358, "annotation": {"number": 64, "value": 0}, "group": "control_change"}, {"time": 365, "annotation": {"number": 64, "value": 127}, "group": "control_change"}, {"time": 382, "annotation": {"number": 64, "value": 0}, "group": "control_change"}, {"time": 389, "annotation": {"number": 64, "value": 127}, "group": "control_change"}, {"time": 408, "annotation": {"number": 64, "value": 0}, "group": "control_change"}, {"time": 414, "annotation": {"number": 64, "value": 127}, "group": "control_change"}, {"time": 431, "annotation": {"number": 64, "value": 127}, "group": "control_change"}, {"time": 453, "annotation": {"number": 64, "value": 0}, "group": "control_change"}, {"time": 458, "annotation": {"number": 64, "value": 127}, "group": "control_change"}, {"time": 502, "annotation": {"number": 64, "value": 0}, "group": "control_change"}, {"time": 507, "annotation": {"number": 64, "value": 127}, "group": "control_change"}, {"time": 530, "annotation": {"number": 64, "value": 0}, "group": "control_change"}, {"time": 535, "annotation": {"number": 64, "value": 127}, "group": "control_change"}, {"time": 551, "annotation": {"number": 64, "value": 0}, "group": "control_change"}, {"time": 559, "annotation": {"number": 64, "value": 127}, "group": "control_change"}, {"time": 575, "annotation": {"number": 64, "value": 0}, "group": "control_change"}, {"time": 580, "annotation": {"number": 64, "value": 127}, "group": "control_change"}, {"time": 600, "annotation": {"number": 64, "value": 0}, "group": "control_change"}, {"time": 605, "annotation": {"number": 64, "value": 127}, "group": "control_change"}, {"time": 624, "annotation": {"number": 64, "value": 0}, "group": "control_change"}, {"time": 631, "annotation": {"number": 64, "value": 127}, "group": "control_change"}, {"time": 648, "annotation": {"number": 64, "value": 0}, "group": "control_change"}, {"time": 679, "annotation": {"number": 64, "value": 127}, "group": "control_change"}, {"time": 695, "annotation": {"number": 64, "value": 0}, "group": "control_change"}, {"time": 703, "annotation": {"number": 64, "value": 127}, "group": "control_change"}, {"time": 712, "annotation": {"number": 64, "value": 127}, "group": "control_change"}, {"time": 718, "annotation": {"number": 64, "value": 0}, "group": "control_change"}, {"time": 721, "annotation": {"number": 64, "value": 127}, "group": "control_change"}, {"time": 732, "annotation": {"number": 64, "value": 0}, "group": "control_change"}, {"time": 737, "annotation": {"number": 64, "value": 127}, "group": "control_change"}, {"time": 742, "annotation": {"number": 64, "value": 0}, "group": "control_change"}, {"time": 749, "annotation": {"number": 64, "value": 127}, "group": "control_change"}, {"time": 766, "annotation": {"number": 64, "value": 0}, "group": "control_change"}, {"time": 773, "annotation": {"number": 64, "value": 127}, "group": "control_change"}, {"time": 792, "annotation": {"number": 64, "value": 0}, "group": "control_change"}, {"time": 798, "annotation": {"number": 64, "value": 127}, "group": "control_change"}, {"time": 815, "annotation": {"number": 64, "value": 127}, "group": "control_change"}, {"time": 837, "annotation": {"number": 64, "value": 0}, "group": "control_change"}, {"time": 842, "annotation": {"number": 64, "value": 127}, "group": "control_change"}, {"time": 886, "annotation": {"number": 64, "value": 0}, "group": "control_change"}, {"time": 889, "annotation": {"number": 64, "value": 127}, "group": "control_change"}, {"time": 911, "annotation": {"number": 64, "value": 0}, "group": "control_change"}, {"time": 915, "annotation": {"number": 64, "value": 127}, "group": "control_change"}, {"time": 935, "annotation": {"number": 64, "value": 0}, "group": "control_change"}, {"time": 941, "annotation": {"number": 64, "value": 127}, "group": "control_change"}, {"time": 960, "annotation": {"number": 64, "value": 0}, "group": "control_change"}, {"time": 966, "annotation": {"number": 64, "value": 127}, "group": "control_change"}, {"time": 984, "annotation": {"number": 64, "value": 0}, "group": "control_change"}, {"time": 989, "annotation": {"number": 64, "value": 127}, "group": "control_change"}, {"time": 1007, "annotation": {"number": 64, "value": 0}, "group": "control_change"}, {"time": 1010, "annotation": {"number": 64, "value": 127}, "group": "control_change"}, {"time": 1033, "annotation": {"number": 64, "value": 127}, "group": "control_change"}, {"time": 1055, "annotation": {"number": 64, "value": 0}, "group": "control_change"}, {"time": 1058, "annotation": {"number": 64, "value": 127}, "group": "control_change"}, {"time": 1071, "annotation": {"number": 64, "value": 127}, "group": "control_change"}, {"time": 1078, "annotation": {"number": 64, "value": 0}, "group": "control_change"}, {"time": 1080, "annotation": {"number": 64, "value": 127}, "group": "control_change"}, {"time": 1081, "annotation": {"number": 64, "value": 127}, "group": "control_change"}, {"time": 1082, "annotation": {"number": 64, "value": 127}, "group": "control_change"}, {"time": 1084, "annotation": {"number": 64, "value": 0}, "group": "control_change"}, {"time": 1086, "annotation": {"number": 64, "value": 127}, "group": "control_change"}, {"time": 1090, "annotation": {"number": 64, "value": 0}, "group": "control_change"}, {"time": 1092, "annotation": {"number": 64, "value": 0}, "group": "control_change"}, {"time": 1094, "annotation": {"number": 64, "value": 0}, "group": "control_change"}, {"time": 1097, "annotation": {"number": 64, "value": 127}, "group": "control_change"}, {"time": 1123, "annotation": {"number": 64, "value": 0}, "group": "control_change"}, {"time": 1130, "annotation": {"number": 64, "value": 127}, "group": "control_change"}, {"time": 1151, "annotation": {"number": 64, "value": 0}, "group": "control_change"}, {"time": 1156, "annotation": {"number": 64, "value": 127}, "group": "control_change"}, {"time": 1179, "annotation": {"number": 64, "value": 127}, "group": "control_change"}, {"time": 1200, "annotation": {"number": 64, "value": 0}, "group": "control_change"}, {"time": 1206, "annotation": {"number": 64, "value": 127}, "group": "control_change"}, {"time": 1223, "annotation": {"number": 64, "value": 0}, "group": "control_change"}, {"time": 1228, "annotation": {"number": 64, "value": 127}, "group": "control_change"}, {"time": 1270, "annotation": {"number": 64, "value": 0}, "group": "control_change"}, {"time": 1274, "annotation": {"number": 64, "value": 127}, "group": "control_change"}, {"time": 1295, "annotation": {"number": 64, "value": 0}, "group": "control_change"}, {"time": 1299, "annotation": {"number": 64, "value": 127}, "group": "control_change"}, {"time": 1319, "annotation": {"number": 64, "value": 0}, "group": "control_change"}, {"time": 1325, "annotation": {"number": 64, "value": 127}, "group": "control_change"}, {"time": 1342, "annotation": {"number": 64, "value": 0}, "group": "control_change"}, {"time": 1348, "annotation": {"number": 64, "value": 127}, "group": "control_change"}, {"time": 1367, "annotation": {"number": 64, "value": 0}, "group": "control_change"}, {"time": 1375, "annotation": {"number": 64, "value": 127}, "group": "control_change"}, {"time": 1394, "annotation": {"number": 64, "value": 127}, "group": "control_change"}, {"time": 1414, "annotation": {"number": 64, "value": 0}, "group": "control_change"}, {"time": 1423, "annotation": {"number": 64, "value": 127}, "group": "control_change"}, {"time": 1444, "annotation": {"number": 64, "value": 0}, "group": "control_change"}, {"time": 1449, "annotation": {"number": 64, "value": 127}, "group": "control_change"}, {"time": 1462, "annotation": {"number": 64, "value": 0}, "group": "control_change"}, {"time": 1467, "annotation": {"number": 64, "value": 127}, "group": "control_change"}, {"time": 1490, "annotation": {"number": 64, "value": 0}, "group": "control_change"}, {"time": 1495, "annotation": {"number": 64, "value": 127}, "group": "control_change"}, {"time": 1511, "annotation": {"number": 64, "value": 0}, "group": "control_change"}, {"time": 1519, "annotation": {"number": 64, "value": 127}, "group": "control_change"}, {"time": 1535, "annotation": {"number": 64, "value": 0}, "group": "control_change"}, {"time": 1540, "annotation": {"number": 64, "value": 127}, "group": "control_change"}, {"time": 1560, "annotation": {"number": 64, "value": 0}, "group": "control_change"}, {"time": 1565, "annotation": {"number": 64, "value": 127}, "group": "control_change"}, {"time": 1584, "annotation": {"number": 64, "value": 0}, "group": "control_change"}, {"time": 1591, "annotation": {"number": 64, "value": 127}, "group": "control_change"}, {"time": 1608, "annotation": {"number": 64, "value": 0}, "group": "control_change"}, {"time": 1639, "annotation": {"number": 64, "value": 127}, "group": "control_change"}, {"time": 1655, "annotation": {"number": 64, "value": 0}, "group": "control_change"}, {"time": 1663, "annotation": {"number": 64, "value": 127}, "group": "control_change"}, {"time": 1672, "annotation": {"number": 64, "value": 127}, "group": "control_change"}, {"time": 1678, "annotation": {"number": 64, "value": 0}, "group": "control_change"}, {"time": 1681, "annotation": {"number": 64, "value": 127}, "group": "control_change"}, {"time": 1692, "annotation": {"number": 64, "value": 0}, "group": "control_change"}, {"time": 1697, "annotation": {"number": 64, "value": 127}, "group": "control_change"}, {"time": 1702, "annotation": {"number": 64, "value": 0}, "group": "control_change"}, {"time": 1709, "annotation": {"number": 64, "value": 127}, "group": "control_change"}, {"time": 1726, "annotation": {"number": 64, "value": 0}, "group": "control_change"}, {"time": 1733, "annotation": {"number": 64, "value": 127}, "group": "control_change"}, {"time": 1752, "annotation": {"number": 64, "value": 0}, "group": "control_change"}, {"time": 1758, "annotation": {"number": 64, "value": 127}, "group": "control_change"}, {"time": 1775, "annotation": {"number": 64, "value": 127}, "group": "control_change"}, {"time": 1797, "annotation": {"number": 64, "value": 0}, "group": "control_change"}, {"time": 1802, "annotation": {"number": 64, "value": 127}, "group": "control_change"}, {"time": 1846, "annotation": {"number": 64, "value": 0}, "group": "control_change"}, {"time": 1849, "annotation": {"number": 64, "value": 127}, "group": "control_change"}, {"time": 1871, "annotation": {"number": 64, "value": 0}, "group": "control_change"}, {"time": 1875, "annotation": {"number": 64, "value": 127}, "group": "control_change"}, {"time": 1895, "annotation": {"number": 64, "value": 0}, "group": "control_change"}, {"time": 1901, "annotation": {"number": 64, "value": 127}, "group": "control_change"}, {"time": 1920, "annotation": {"number": 64, "value": 0}, "group": "control_change"}, {"time": 1926, "annotation": {"number": 64, "value": 127}, "group": "control_change"}, {"time": 1944, "annotation": {"number": 64, "value": 0}, "group": "control_change"}, {"time": 1949, "annotation": {"number": 64, "value": 127}, "group": "control_change"}, {"time": 1967, "annotation": {"number": 64, "value": 0}, "group": "control_change"}, {"time": 1970, "annotation": {"number": 64, "value": 127}, "group": "control_change"}, {"time": 1993, "annotation": {"number": 64, "value": 127}, "group": "control_change"}, {"time": 2015, "annotation": {"number": 64, "value": 0}, "group": "control_change"}, {"time": 2018, "annotation": {"number": 64, "value": 127}, "group": "control_change"}, {"time": 2031, "annotation": {"number": 64, "value": 127}, "group": "control_change"}, {"time": 2038, "annotation": {"number": 64, "value": 0}, "group": "control_change"}, {"time": 2040, "annotation": {"number": 64, "value": 127}, "group": "control_change"}, {"time": 2041, "annotation": {"number": 64, "value": 127}, "group": "control_change"}, {"time": 2042, "annotation": {"number": 64, "value": 127}, "group": "control_change"}, {"time": 2044, "annotation": {"number": 64, "value": 0}, "group": "control_change"}, {"time": 2046, "annotation": {"number": 64, "value": 127}, "group": "control_change"}, {"time": 2050, "annotation": {"number": 64, "value": 0}, "group": "control_change"}, {"time": 2052, "annotation": {"number": 64, "value": 0}, "group": "control_change"}, {"time": 2054, "annotation": {"number": 64, "value": 0}, "group": "control_change"}, {"time": 2057, "annotation": {"number": 64, "value": 127}, "group": "control_change"}, {"time": 2083, "annotation": {"number": 64, "value": 0}, "group": "control_change"}, {"time": 2090, "annotation": {"number": 64, "value": 127}, "group": "control_change"}, {"time": 2111, "annotation": {"number": 64, "value": 0}, "group": "control_change"}, {"time": 2116, "annotation": {"number": 64, "value": 127}, "group": "control_change"}, {"time": 2137, "annotation": {"number": 64, "value": 127}, "group": "control_change"}, {"time": 2159, "annotation": {"number": 64, "value": 0}, "group": "control_change"}, {"time": 2163, "annotation": {"number": 64, "value": 127}, "group": "control_change"}, {"time": 2183, "annotation": {"number": 64, "value": 0}, "group": "control_change"}, {"time": 2189, "annotation": {"number": 64, "value": 127}, "group": "control_change"}, {"time": 2208, "annotation": {"number": 64, "value": 0}, "group": "control_change"}, {"time": 2214, "annotation": {"number": 64, "value": 127}, "group": "control_change"}, {"time": 2232, "annotation": {"number": 64, "value": 0}, "group": "control_change"}, {"time": 2237, "annotation": {"number": 64, "value": 127}, "group": "control_change"}, {"time": 2255, "annotation": {"number": 64, "value": 0}, "group": "control_change"}, {"time": 2258, "annotation": {"number": 64, "value": 127}, "group": "control_change"}, {"time": 2281, "annotation": {"number": 64, "value": 127}, "group": "control_change"}, {"time": 2303, "annotation": {"number": 64, "value": 0}, "group": "control_change"}, {"time": 2306, "annotation": {"number": 64, "value": 127}, "group": "control_change"}, {"time": 2319, "annotation": {"number": 64, "value": 127}, "group": "control_change"}, {"time": 2326, "annotation": {"number": 64, "value": 0}, "group": "control_change"}, {"time": 2328, "annotation": {"number": 64, "value": 127}, "group": "control_change"}, {"time": 2329, "annotation": {"number": 64, "value": 127}, "group": "control_change"}, {"time": 2330, "annotation": {"number": 64, "value": 127}, "group": "control_change"}, {"time": 2332, "annotation": {"number": 64, "value": 0}, "group": "control_change"}, {"time": 2334, "annotation": {"number": 64, "value": 127}, "group": "control_change"}, {"time": 2338, "annotation": {"number": 64, "value": 0}, "group": "control_change"}, {"time": 2340, "annotation": {"number": 64, "value": 0}, "group": "control_change"}, {"time": 2342, "annotation": {"number": 64, "value": 0}, "group": "control_change"}, {"time": 2345, "annotation": {"number": 64, "value": 127}, "group": "control_change"}, {"time": 2371, "annotation": {"number": 64, "value": 0}, "group": "control_change"}, {"time": 2378, "annotation": {"number": 64, "value": 127}, "group": "control_change"}, {"time": 2399, "annotation": {"number": 64, "value": 0}, "group": "control_change"}, {"time": 2404, "annotation": {"number": 64, "value": 127}, "group": "control_change"}, {"time": 2425, "annotation": {"number": 64, "value": 127}, "group": "control_change"}, {"time": 2447, "annotation": {"number": 64, "value": 0}, "group": "control_change"}, {"time": 2451, "annotation": {"number": 64, "value": 127}, "group": "control_change"}, {"time": 2471, "annotation": {"number": 64, "value": 0}, "group": "control_change"}, {"time": 2477, "annotation": {"number": 64, "value": 127}, "group": "control_change"}, {"time": 2496, "annotation": {"number": 64, "value": 0}, "group": "control_change"}, {"time": 2502, "annotation": {"number": 64, "value": 127}, "group": "control_change"}, {"time": 2520, "annotation": {"number": 64, "value": 0}, "group": "control_change"}, {"time": 2525, "annotation": {"number": 64, "value": 127}, "group": "control_change"}, {"time": 2543, "annotation": {"number": 64, "value": 0}, "group": "control_change"}, {"time": 2546, "annotation": {"number": 64, "value": 127}, "group": "control_change"}, {"time": 2569, "annotation": {"number": 64, "value": 127}, "group": "control_change"}, {"time": 2591, "annotation": {"number": 64, "value": 0}, "group": "control_change"}, {"time": 2594, "annotation": {"number": 64, "value": 127}, "group": "control_change"}, {"time": 2607, "annotation": {"number": 64, "value": 127}, "group": "control_change"}, {"time": 2614, "annotation": {"number": 64, "value": 0}, "group": "control_change"}, {"time": 2616, "annotation": {"number": 64, "value": 127}, "group": "control_change"}, {"time": 2617, "annotation": {"number": 64, "value": 127}, "group": "control_change"}, {"time": 2618, "annotation": {"number": 64, "value": 127}, "group": "control_change"}, {"time": 2620, "annotation": {"number": 64, "value": 0}, "group": "control_change"}, {"time": 2622, "annotation": {"number": 64, "value": 127}, "group": "control_change"}, {"time": 2626, "annotation": {"number": 64, "value": 0}, "group": "control_change"}, {"time": 2628, "annotation": {"number": 64, "value": 0}, "group": "control_change"}, {"time": 2630, "annotation": {"number": 64, "value": 0}, "group": "control_change"}, {"time": 2633, "annotation": {"number": 64, "value": 127}, "group": "control_change"}, {"time": 2659, "annotation": {"number": 64, "value": 0}, "group": "control_change"}, {"time": 2666, "annotation": {"number": 64, "value": 127}, "group": "control_change"}, {"time": 2687, "annotation": {"number": 64, "value": 0}, "group": "control_change"}, {"time": 2692, "annotation": {"number": 64, "value": 127}, "group": "control_change"}, {"time": 2706, "annotation": {"number": 64, "value": 127}, "group": "control_change"}, {"time": 2756, "annotation": {"number": 64, "value": 0}, "group": "control_change"}, {"time": 2766, "annotation": {"number": 64, "value": 127}, "group": "control_change"}, {"time": 2767, "annotation": {"number": 64, "value": 0}, "group": "control_change"}, {"time": 2767, "annotation": {"number": 64, "value": 127}, "group": "control_change"}, {"time": 2801, "annotation": {"number": 64, "value": 0}, "group": "control_change"}, {"time": 2804, "annotation": {"number": 64, "value": 127}, "group": "control_change"}, {"time": 2858, "annotation": {"number": 64, "value": 0}, "group": "control_change"}]}]}