{"metadata": {"schema_version": "0.2", "title": "None", "source_filename": "005.mid", "source_format": "midi"}, "resolution": 12, "tempos": [{"time": 0, "qpm": 65.00013541694878}, {"time": 3420, "qpm": 63.000063000063}, {"time": 3424, "qpm": 61.00003456668625}, {"time": 3442, "qpm": 57.00008550012825}, {"time": 3447, "qpm": 55.00000458333371}, {"time": 3463, "qpm": 64.0}, {"time": 3512, "qpm": 61.00003456668625}, {"time": 3528, "qpm": 65.00013541694878}], "time_signatures": [{"time": 0, "numerator": 2, "denominator": 4}], "tracks": [{"program": 0, "is_drum": false, "name": "MELODY", "notes": [{"time": 211, "pitch": 74, "duration": 6, "velocity": 111}, {"time": 217, "pitch": 67, "duration": 3, "velocity": 92}, {"time": 220, "pitch": 69, "duration": 21, "velocity": 111}, {"time": 241, "pitch": 69, "duration": 3, "velocity": 111}, {"time": 244, "pitch": 71, "duration": 3, "velocity": 108}, {"time": 247, "pitch": 72, "duration": 6, "velocity": 108}, {"time": 253, "pitch": 71, "duration": 3, "velocity": 97}, {"time": 256, "pitch": 72, "duration": 6, "velocity": 108}, {"time": 262, "pitch": 74, "duration": 6, "velocity": 102}, {"time": 268, "pitch": 71, "duration": 39, "velocity": 105}, {"time": 307, "pitch": 71, "duration": 6, "velocity": 108}, {"time": 313, "pitch": 64, "duration": 3, "velocity": 100}, {"time": 316, "pitch": 69, "duration": 21, "velocity": 102}, {"time": 337, "pitch": 64, "duration": 3, "velocity": 105}, {"time": 340, "pitch": 66, "duration": 3, "velocity": 105}, {"time": 343, "pitch": 67, "duration": 6, "velocity": 102}, {"time": 349, "pitch": 66, "duration": 3, "velocity": 102}, {"time": 352, "pitch": 67, "duration": 6, "velocity": 102}, {"time": 358, "pitch": 69, "duration": 6, "velocity": 97}, {"time": 364, "pitch": 69, "duration": 39, "velocity": 105}, {"time": 403, "pitch": 74, "duration": 6, "velocity": 102}, {"time": 409, "pitch": 67, "duration": 3, "velocity": 92}, {"time": 412, "pitch": 69, "duration": 21, "velocity": 108}, {"time": 433, "pitch": 69, "duration": 3, "velocity": 102}, {"time": 436, "pitch": 71, "duration": 3, "velocity": 108}, {"time": 439, "pitch": 72, "duration": 6, "velocity": 105}, {"time": 445, "pitch": 71, "duration": 3, "velocity": 102}, {"time": 448, "pitch": 72, "duration": 6, "velocity": 105}, {"time": 454, "pitch": 74, "duration": 6, "velocity": 111}, {"time": 460, "pitch": 71, "duration": 39, "velocity": 108}, {"time": 499, "pitch": 71, "duration": 6, "velocity": 111}, {"time": 505, "pitch": 76, "duration": 3, "velocity": 105}, {"time": 508, "pitch": 71, "duration": 6, "velocity": 105}, {"time": 514, "pitch": 69, "duration": 15, "velocity": 105}, {"time": 529, "pitch": 64, "duration": 3, "velocity": 97}, {"time": 532, "pitch": 66, "duration": 3, "velocity": 96}, {"time": 535, "pitch": 67, "duration": 6, "velocity": 97}, {"time": 541, "pitch": 66, "duration": 3, "velocity": 105}, {"time": 544, "pitch": 67, "duration": 6, "velocity": 92}, {"time": 550, "pitch": 69, "duration": 6, "velocity": 105}, {"time": 556, "pitch": 69, "duration": 39, "velocity": 102}, {"time": 595, "pitch": 67, "duration": 6, "velocity": 102}, {"time": 601, "pitch": 69, "duration": 6, "velocity": 114}, {"time": 607, "pitch": 71, "duration": 6, "velocity": 105}, {"time": 613, "pitch": 74, "duration": 3, "velocity": 94}, {"time": 616, "pitch": 74, "duration": 12, "velocity": 94}, {"time": 628, "pitch": 74, "duration": 3, "velocity": 105}, {"time": 631, "pitch": 74, "duration": 6, "velocity": 105}, {"time": 637, "pitch": 76, "duration": 6, "velocity": 105}, {"time": 643, "pitch": 72, "duration": 3, "velocity": 108}, {"time": 646, "pitch": 74, "duration": 9, "velocity": 105}, {"time": 655, "pitch": 71, "duration": 18, "velocity": 105}, {"time": 673, "pitch": 76, "duration": 3, "velocity": 105}, {"time": 676, "pitch": 78, "duration": 3, "velocity": 109}, {"time": 679, "pitch": 79, "duration": 6, "velocity": 105}, {"time": 685, "pitch": 78, "duration": 3, "velocity": 109}, {"time": 688, "pitch": 79, "duration": 12, "velocity": 105}, {"time": 700, "pitch": 69, "duration": 3, "velocity": 100}, {"time": 703, "pitch": 69, "duration": 6, "velocity": 111}, {"time": 709, "pitch": 76, "duration": 3, "velocity": 92}, {"time": 712, "pitch": 76, "duration": 12, "velocity": 111}, {"time": 724, "pitch": 76, "duration": 3, "velocity": 111}, {"time": 727, "pitch": 76, "duration": 6, "velocity": 117}, {"time": 733, "pitch": 76, "duration": 3, "velocity": 100}, {"time": 736, "pitch": 76, "duration": 9, "velocity": 114}, {"time": 745, "pitch": 74, "duration": 6, "velocity": 105}, {"time": 751, "pitch": 74, "duration": 54, "velocity": 108}, {"time": 805, "pitch": 62, "duration": 6, "velocity": 114}, {"time": 811, "pitch": 67, "duration": 6, "velocity": 108}, {"time": 817, "pitch": 74, "duration": 6, "velocity": 100}, {"time": 823, "pitch": 72, "duration": 6, "velocity": 108}, {"time": 829, "pitch": 71, "duration": 3, "velocity": 94}, {"time": 832, "pitch": 72, "duration": 6, "velocity": 108}, {"time": 838, "pitch": 76, "duration": 9, "velocity": 102}, {"time": 847, "pitch": 74, "duration": 12, "velocity": 105}, {"time": 859, "pitch": 67, "duration": 6, "velocity": 117}, {"time": 865, "pitch": 79, "duration": 6, "velocity": 108}, {"time": 871, "pitch": 78, "duration": 12, "velocity": 105}, {"time": 883, "pitch": 76, "duration": 12, "velocity": 108}, {"time": 895, "pitch": 74, "duration": 6, "velocity": 108}, {"time": 901, "pitch": 76, "duration": 6, "velocity": 111}, {"time": 907, "pitch": 72, "duration": 6, "velocity": 105}, {"time": 913, "pitch": 71, "duration": 3, "velocity": 100}, {"time": 916, "pitch": 72, "duration": 6, "velocity": 100}, {"time": 922, "pitch": 64, "duration": 9, "velocity": 108}, {"time": 931, "pitch": 66, "duration": 6, "velocity": 109}, {"time": 937, "pitch": 67, "duration": 6, "velocity": 100}, {"time": 943, "pitch": 72, "duration": 6, "velocity": 102}, {"time": 949, "pitch": 74, "duration": 6, "velocity": 105}, {"time": 955, "pitch": 76, "duration": 6, "velocity": 105}, {"time": 961, "pitch": 74, "duration": 3, "velocity": 97}, {"time": 964, "pitch": 71, "duration": 6, "velocity": 108}, {"time": 970, "pitch": 69, "duration": 27, "velocity": 108}, {"time": 997, "pitch": 62, "duration": 6, "velocity": 114}, {"time": 1003, "pitch": 67, "duration": 6, "velocity": 108}, {"time": 1009, "pitch": 74, "duration": 6, "velocity": 100}, {"time": 1015, "pitch": 72, "duration": 6, "velocity": 108}, {"time": 1021, "pitch": 71, "duration": 3, "velocity": 94}, {"time": 1024, "pitch": 72, "duration": 6, "velocity": 108}, {"time": 1030, "pitch": 76, "duration": 9, "velocity": 102}, {"time": 1039, "pitch": 74, "duration": 21, "velocity": 105}, {"time": 1060, "pitch": 74, "duration": 3, "velocity": 111}, {"time": 1063, "pitch": 75, "duration": 6, "velocity": 105}, {"time": 1069, "pitch": 75, "duration": 3, "velocity": 102}, {"time": 1072, "pitch": 76, "duration": 6, "velocity": 105}, {"time": 1078, "pitch": 78, "duration": 9, "velocity": 112}, {"time": 1087, "pitch": 78, "duration": 6, "velocity": 109}, {"time": 1093, "pitch": 79, "duration": 3, "velocity": 92}, {"time": 1096, "pitch": 79, "duration": 24, "velocity": 102}, {"time": 1120, "pitch": 79, "duration": 3, "velocity": 94}, {"time": 1123, "pitch": 78, "duration": 6, "velocity": 102}, {"time": 1129, "pitch": 79, "duration": 3, "velocity": 100}, {"time": 1132, "pitch": 78, "duration": 9, "velocity": 109}, {"time": 1141, "pitch": 76, "duration": 3, "velocity": 87}, {"time": 1144, "pitch": 76, "duration": 39, "velocity": 102}, {"time": 1183, "pitch": 76, "duration": 6, "velocity": 105}, {"time": 1189, "pitch": 71, "duration": 6, "velocity": 108}, {"time": 1195, "pitch": 69, "duration": 6, "velocity": 111}, {"time": 1201, "pitch": 67, "duration": 3, "velocity": 92}, {"time": 1204, "pitch": 74, "duration": 24, "velocity": 92}, {"time": 1228, "pitch": 71, "duration": 3, "velocity": 97}, {"time": 1231, "pitch": 72, "duration": 6, "velocity": 105}, {"time": 1237, "pitch": 71, "duration": 6, "velocity": 105}, {"time": 1243, "pitch": 64, "duration": 6, "velocity": 105}, {"time": 1249, "pitch": 65, "duration": 6, "velocity": 97}, {"time": 1255, "pitch": 66, "duration": 12, "velocity": 96}, {"time": 1267, "pitch": 71, "duration": 12, "velocity": 97}, {"time": 1279, "pitch": 67, "duration": 108, "velocity": 97}, {"time": 1387, "pitch": 74, "duration": 6, "velocity": 111}, {"time": 1393, "pitch": 67, "duration": 3, "velocity": 92}, {"time": 1396, "pitch": 69, "duration": 21, "velocity": 111}, {"time": 1417, "pitch": 69, "duration": 3, "velocity": 111}, {"time": 1420, "pitch": 71, "duration": 3, "velocity": 108}, {"time": 1423, "pitch": 72, "duration": 6, "velocity": 108}, {"time": 1429, "pitch": 71, "duration": 3, "velocity": 97}, {"time": 1432, "pitch": 72, "duration": 6, "velocity": 108}, {"time": 1438, "pitch": 74, "duration": 6, "velocity": 102}, {"time": 1444, "pitch": 71, "duration": 39, "velocity": 105}, {"time": 1483, "pitch": 71, "duration": 6, "velocity": 108}, {"time": 1489, "pitch": 64, "duration": 3, "velocity": 100}, {"time": 1492, "pitch": 69, "duration": 21, "velocity": 102}, {"time": 1513, "pitch": 64, "duration": 3, "velocity": 105}, {"time": 1516, "pitch": 66, "duration": 3, "velocity": 105}, {"time": 1519, "pitch": 67, "duration": 6, "velocity": 102}, {"time": 1525, "pitch": 66, "duration": 3, "velocity": 102}, {"time": 1528, "pitch": 67, "duration": 6, "velocity": 102}, {"time": 1534, "pitch": 69, "duration": 6, "velocity": 97}, {"time": 1540, "pitch": 69, "duration": 39, "velocity": 105}, {"time": 1579, "pitch": 74, "duration": 6, "velocity": 102}, {"time": 1585, "pitch": 67, "duration": 3, "velocity": 92}, {"time": 1588, "pitch": 69, "duration": 21, "velocity": 108}, {"time": 1609, "pitch": 69, "duration": 3, "velocity": 102}, {"time": 1612, "pitch": 71, "duration": 3, "velocity": 108}, {"time": 1615, "pitch": 72, "duration": 6, "velocity": 105}, {"time": 1621, "pitch": 71, "duration": 3, "velocity": 102}, {"time": 1624, "pitch": 72, "duration": 6, "velocity": 105}, {"time": 1630, "pitch": 74, "duration": 6, "velocity": 111}, {"time": 1636, "pitch": 71, "duration": 39, "velocity": 108}, {"time": 1675, "pitch": 71, "duration": 6, "velocity": 111}, {"time": 1681, "pitch": 76, "duration": 3, "velocity": 105}, {"time": 1684, "pitch": 71, "duration": 6, "velocity": 105}, {"time": 1690, "pitch": 69, "duration": 15, "velocity": 105}, {"time": 1705, "pitch": 64, "duration": 3, "velocity": 97}, {"time": 1708, "pitch": 66, "duration": 3, "velocity": 96}, {"time": 1711, "pitch": 67, "duration": 6, "velocity": 97}, {"time": 1717, "pitch": 66, "duration": 3, "velocity": 105}, {"time": 1720, "pitch": 67, "duration": 6, "velocity": 92}, {"time": 1726, "pitch": 69, "duration": 6, "velocity": 105}, {"time": 1732, "pitch": 69, "duration": 39, "velocity": 102}, {"time": 1771, "pitch": 67, "duration": 6, "velocity": 102}, {"time": 1777, "pitch": 69, "duration": 6, "velocity": 114}, {"time": 1783, "pitch": 71, "duration": 6, "velocity": 105}, {"time": 1789, "pitch": 74, "duration": 3, "velocity": 94}, {"time": 1792, "pitch": 74, "duration": 12, "velocity": 94}, {"time": 1804, "pitch": 74, "duration": 3, "velocity": 105}, {"time": 1807, "pitch": 74, "duration": 6, "velocity": 105}, {"time": 1813, "pitch": 76, "duration": 6, "velocity": 105}, {"time": 1819, "pitch": 72, "duration": 3, "velocity": 108}, {"time": 1822, "pitch": 74, "duration": 9, "velocity": 105}, {"time": 1831, "pitch": 71, "duration": 18, "velocity": 105}, {"time": 1849, "pitch": 76, "duration": 3, "velocity": 105}, {"time": 1852, "pitch": 78, "duration": 3, "velocity": 109}, {"time": 1855, "pitch": 79, "duration": 6, "velocity": 105}, {"time": 1861, "pitch": 78, "duration": 3, "velocity": 109}, {"time": 1864, "pitch": 79, "duration": 12, "velocity": 105}, {"time": 1876, "pitch": 69, "duration": 3, "velocity": 100}, {"time": 1879, "pitch": 69, "duration": 6, "velocity": 111}, {"time": 1885, "pitch": 76, "duration": 3, "velocity": 92}, {"time": 1888, "pitch": 76, "duration": 12, "velocity": 111}, {"time": 1900, "pitch": 76, "duration": 3, "velocity": 111}, {"time": 1903, "pitch": 76, "duration": 6, "velocity": 117}, {"time": 1909, "pitch": 76, "duration": 3, "velocity": 100}, {"time": 1912, "pitch": 76, "duration": 9, "velocity": 114}, {"time": 1921, "pitch": 74, "duration": 6, "velocity": 105}, {"time": 1927, "pitch": 74, "duration": 54, "velocity": 108}, {"time": 1981, "pitch": 62, "duration": 6, "velocity": 114}, {"time": 1987, "pitch": 67, "duration": 6, "velocity": 108}, {"time": 1993, "pitch": 74, "duration": 6, "velocity": 100}, {"time": 1999, "pitch": 72, "duration": 6, "velocity": 108}, {"time": 2005, "pitch": 71, "duration": 3, "velocity": 94}, {"time": 2008, "pitch": 72, "duration": 6, "velocity": 108}, {"time": 2014, "pitch": 76, "duration": 9, "velocity": 102}, {"time": 2023, "pitch": 74, "duration": 12, "velocity": 105}, {"time": 2035, "pitch": 67, "duration": 6, "velocity": 117}, {"time": 2041, "pitch": 79, "duration": 6, "velocity": 108}, {"time": 2047, "pitch": 78, "duration": 12, "velocity": 105}, {"time": 2059, "pitch": 76, "duration": 12, "velocity": 108}, {"time": 2071, "pitch": 74, "duration": 6, "velocity": 108}, {"time": 2077, "pitch": 76, "duration": 6, "velocity": 111}, {"time": 2083, "pitch": 72, "duration": 6, "velocity": 105}, {"time": 2089, "pitch": 71, "duration": 3, "velocity": 100}, {"time": 2092, "pitch": 72, "duration": 6, "velocity": 100}, {"time": 2098, "pitch": 64, "duration": 9, "velocity": 108}, {"time": 2107, "pitch": 66, "duration": 6, "velocity": 109}, {"time": 2113, "pitch": 67, "duration": 6, "velocity": 100}, {"time": 2119, "pitch": 72, "duration": 6, "velocity": 102}, {"time": 2125, "pitch": 74, "duration": 6, "velocity": 105}, {"time": 2131, "pitch": 76, "duration": 6, "velocity": 105}, {"time": 2137, "pitch": 74, "duration": 3, "velocity": 97}, {"time": 2140, "pitch": 71, "duration": 6, "velocity": 108}, {"time": 2146, "pitch": 69, "duration": 27, "velocity": 108}, {"time": 2173, "pitch": 62, "duration": 6, "velocity": 114}, {"time": 2179, "pitch": 67, "duration": 6, "velocity": 108}, {"time": 2185, "pitch": 74, "duration": 6, "velocity": 100}, {"time": 2191, "pitch": 72, "duration": 6, "velocity": 108}, {"time": 2197, "pitch": 71, "duration": 3, "velocity": 94}, {"time": 2200, "pitch": 72, "duration": 6, "velocity": 108}, {"time": 2206, "pitch": 76, "duration": 9, "velocity": 102}, {"time": 2215, "pitch": 74, "duration": 21, "velocity": 105}, {"time": 2236, "pitch": 74, "duration": 3, "velocity": 111}, {"time": 2239, "pitch": 75, "duration": 6, "velocity": 105}, {"time": 2245, "pitch": 75, "duration": 3, "velocity": 102}, {"time": 2248, "pitch": 76, "duration": 6, "velocity": 105}, {"time": 2254, "pitch": 78, "duration": 9, "velocity": 112}, {"time": 2263, "pitch": 78, "duration": 6, "velocity": 109}, {"time": 2269, "pitch": 79, "duration": 3, "velocity": 92}, {"time": 2272, "pitch": 79, "duration": 24, "velocity": 102}, {"time": 2296, "pitch": 79, "duration": 3, "velocity": 94}, {"time": 2299, "pitch": 78, "duration": 6, "velocity": 102}, {"time": 2305, "pitch": 79, "duration": 3, "velocity": 100}, {"time": 2308, "pitch": 78, "duration": 9, "velocity": 109}, {"time": 2317, "pitch": 76, "duration": 3, "velocity": 87}, {"time": 2320, "pitch": 76, "duration": 39, "velocity": 102}, {"time": 2359, "pitch": 76, "duration": 6, "velocity": 105}, {"time": 2365, "pitch": 71, "duration": 6, "velocity": 108}, {"time": 2371, "pitch": 69, "duration": 6, "velocity": 111}, {"time": 2377, "pitch": 67, "duration": 3, "velocity": 92}, {"time": 2380, "pitch": 74, "duration": 24, "velocity": 92}, {"time": 2404, "pitch": 71, "duration": 3, "velocity": 97}, {"time": 2407, "pitch": 72, "duration": 6, "velocity": 105}, {"time": 2413, "pitch": 71, "duration": 6, "velocity": 105}, {"time": 2419, "pitch": 64, "duration": 6, "velocity": 105}, {"time": 2425, "pitch": 65, "duration": 6, "velocity": 97}, {"time": 2431, "pitch": 66, "duration": 12, "velocity": 96}, {"time": 2443, "pitch": 71, "duration": 12, "velocity": 97}, {"time": 2455, "pitch": 67, "duration": 21, "velocity": 97}, {"time": 2476, "pitch": 76, "duration": 3, "velocity": 89}, {"time": 2479, "pitch": 76, "duration": 6, "velocity": 108}, {"time": 2485, "pitch": 76, "duration": 3, "velocity": 102}, {"time": 2488, "pitch": 78, "duration": 9, "velocity": 105}, {"time": 2497, "pitch": 76, "duration": 3, "velocity": 94}, {"time": 2500, "pitch": 75, "duration": 9, "velocity": 102}, {"time": 2509, "pitch": 75, "duration": 3, "velocity": 105}, {"time": 2512, "pitch": 76, "duration": 6, "velocity": 102}, {"time": 2518, "pitch": 78, "duration": 6, "velocity": 105}, {"time": 2524, "pitch": 75, "duration": 33, "velocity": 109}, {"time": 2557, "pitch": 71, "duration": 6, "velocity": 114}, {"time": 2563, "pitch": 76, "duration": 6, "velocity": 108}, {"time": 2569, "pitch": 79, "duration": 6, "velocity": 108}, {"time": 2575, "pitch": 78, "duration": 6, "velocity": 109}, {"time": 2581, "pitch": 74, "duration": 3, "velocity": 105}, {"time": 2584, "pitch": 74, "duration": 9, "velocity": 108}, {"time": 2593, "pitch": 71, "duration": 6, "velocity": 114}, {"time": 2599, "pitch": 76, "duration": 21, "velocity": 100}, {"time": 2620, "pitch": 76, "duration": 3, "velocity": 102}, {"time": 2623, "pitch": 76, "duration": 6, "velocity": 111}, {"time": 2629, "pitch": 77, "duration": 3, "velocity": 100}, {"time": 2632, "pitch": 76, "duration": 9, "velocity": 111}, {"time": 2641, "pitch": 74, "duration": 6, "velocity": 108}, {"time": 2647, "pitch": 72, "duration": 12, "velocity": 108}, {"time": 2659, "pitch": 76, "duration": 6, "velocity": 105}, {"time": 2665, "pitch": 74, "duration": 27, "velocity": 105}, {"time": 2692, "pitch": 74, "duration": 3, "velocity": 97}, {"time": 2695, "pitch": 75, "duration": 6, "velocity": 109}, {"time": 2701, "pitch": 75, "duration": 3, "velocity": 109}, {"time": 2704, "pitch": 76, "duration": 6, "velocity": 105}, {"time": 2710, "pitch": 78, "duration": 6, "velocity": 109}, {"time": 2716, "pitch": 78, "duration": 9, "velocity": 105}, {"time": 2725, "pitch": 79, "duration": 3, "velocity": 97}, {"time": 2728, "pitch": 79, "duration": 24, "velocity": 108}, {"time": 2752, "pitch": 70, "duration": 3, "velocity": 102}, {"time": 2755, "pitch": 79, "duration": 6, "velocity": 108}, {"time": 2761, "pitch": 77, "duration": 3, "velocity": 100}, {"time": 2764, "pitch": 77, "duration": 9, "velocity": 105}, {"time": 2773, "pitch": 75, "duration": 6, "velocity": 109}, {"time": 2779, "pitch": 74, "duration": 6, "velocity": 111}, {"time": 2785, "pitch": 72, "duration": 6, "velocity": 105}, {"time": 2791, "pitch": 74, "duration": 54, "velocity": 108}, {"time": 2845, "pitch": 62, "duration": 6, "velocity": 114}, {"time": 2851, "pitch": 67, "duration": 6, "velocity": 108}, {"time": 2857, "pitch": 74, "duration": 6, "velocity": 100}, {"time": 2863, "pitch": 72, "duration": 6, "velocity": 108}, {"time": 2869, "pitch": 71, "duration": 3, "velocity": 94}, {"time": 2872, "pitch": 72, "duration": 6, "velocity": 108}, {"time": 2878, "pitch": 76, "duration": 9, "velocity": 102}, {"time": 2887, "pitch": 74, "duration": 12, "velocity": 105}, {"time": 2899, "pitch": 67, "duration": 6, "velocity": 117}, {"time": 2905, "pitch": 79, "duration": 6, "velocity": 108}, {"time": 2911, "pitch": 78, "duration": 12, "velocity": 105}, {"time": 2923, "pitch": 76, "duration": 12, "velocity": 108}, {"time": 2935, "pitch": 74, "duration": 6, "velocity": 108}, {"time": 2941, "pitch": 76, "duration": 6, "velocity": 111}, {"time": 2947, "pitch": 72, "duration": 6, "velocity": 105}, {"time": 2953, "pitch": 71, "duration": 3, "velocity": 100}, {"time": 2956, "pitch": 72, "duration": 6, "velocity": 100}, {"time": 2962, "pitch": 64, "duration": 9, "velocity": 108}, {"time": 2971, "pitch": 66, "duration": 6, "velocity": 109}, {"time": 2977, "pitch": 67, "duration": 6, "velocity": 100}, {"time": 2983, "pitch": 72, "duration": 6, "velocity": 102}, {"time": 2989, "pitch": 74, "duration": 6, "velocity": 105}, {"time": 2995, "pitch": 76, "duration": 6, "velocity": 105}, {"time": 3001, "pitch": 74, "duration": 3, "velocity": 97}, {"time": 3004, "pitch": 71, "duration": 6, "velocity": 108}, {"time": 3010, "pitch": 69, "duration": 27, "velocity": 108}, {"time": 3037, "pitch": 62, "duration": 6, "velocity": 114}, {"time": 3043, "pitch": 67, "duration": 6, "velocity": 108}, {"time": 3049, "pitch": 74, "duration": 6, "velocity": 100}, {"time": 3055, "pitch": 72, "duration": 6, "velocity": 108}, {"time": 3061, "pitch": 71, "duration": 3, "velocity": 94}, {"time": 3064, "pitch": 72, "duration": 6, "velocity": 108}, {"time": 3070, "pitch": 76, "duration": 9, "velocity": 102}, {"time": 3079, "pitch": 74, "duration": 21, "velocity": 105}, {"time": 3100, "pitch": 74, "duration": 3, "velocity": 111}, {"time": 3103, "pitch": 75, "duration": 6, "velocity": 105}, {"time": 3109, "pitch": 75, "duration": 3, "velocity": 102}, {"time": 3112, "pitch": 76, "duration": 6, "velocity": 105}, {"time": 3118, "pitch": 78, "duration": 9, "velocity": 112}, {"time": 3127, "pitch": 78, "duration": 6, "velocity": 109}, {"time": 3133, "pitch": 79, "duration": 3, "velocity": 92}, {"time": 3136, "pitch": 79, "duration": 24, "velocity": 102}, {"time": 3160, "pitch": 79, "duration": 3, "velocity": 94}, {"time": 3163, "pitch": 78, "duration": 6, "velocity": 102}, {"time": 3169, "pitch": 79, "duration": 3, "velocity": 100}, {"time": 3172, "pitch": 78, "duration": 9, "velocity": 109}, {"time": 3181, "pitch": 76, "duration": 3, "velocity": 87}, {"time": 3184, "pitch": 76, "duration": 39, "velocity": 102}, {"time": 3223, "pitch": 76, "duration": 6, "velocity": 105}, {"time": 3229, "pitch": 71, "duration": 6, "velocity": 108}, {"time": 3235, "pitch": 69, "duration": 6, "velocity": 111}, {"time": 3241, "pitch": 67, "duration": 3, "velocity": 92}, {"time": 3244, "pitch": 74, "duration": 24, "velocity": 92}, {"time": 3268, "pitch": 71, "duration": 3, "velocity": 97}, {"time": 3271, "pitch": 72, "duration": 6, "velocity": 105}, {"time": 3277, "pitch": 71, "duration": 6, "velocity": 105}, {"time": 3283, "pitch": 64, "duration": 6, "velocity": 105}, {"time": 3289, "pitch": 65, "duration": 6, "velocity": 97}, {"time": 3295, "pitch": 66, "duration": 12, "velocity": 96}, {"time": 3307, "pitch": 71, "duration": 12, "velocity": 97}, {"time": 3319, "pitch": 67, "duration": 93, "velocity": 97}, {"time": 3412, "pitch": 71, "duration": 3, "velocity": 89}, {"time": 3415, "pitch": 72, "duration": 6, "velocity": 100}, {"time": 3421, "pitch": 71, "duration": 6, "velocity": 105}, {"time": 3427, "pitch": 64, "duration": 6, "velocity": 102}, {"time": 3433, "pitch": 65, "duration": 6, "velocity": 97}, {"time": 3439, "pitch": 66, "duration": 36, "velocity": 90}, {"time": 3475, "pitch": 71, "duration": 12, "velocity": 92}, {"time": 3487, "pitch": 67, "duration": 41, "velocity": 94}]}, {"program": 0, "is_drum": false, "name": "BRIDGE", "notes": [{"time": 4, "pitch": 76, "duration": 3, "velocity": 73}, {"time": 6, "pitch": 79, "duration": 2, "velocity": 97}, {"time": 7, "pitch": 88, "duration": 7, "velocity": 108}, {"time": 13, "pitch": 83, "duration": 6, "velocity": 108}, {"time": 19, "pitch": 81, "duration": 6, "velocity": 117}, {"time": 25, "pitch": 79, "duration": 6, "velocity": 108}, {"time": 31, "pitch": 86, "duration": 12, "velocity": 105}, {"time": 43, "pitch": 74, "duration": 6, "velocity": 114}, {"time": 49, "pitch": 79, "duration": 6, "velocity": 105}, {"time": 55, "pitch": 84, "duration": 6, "velocity": 108}, {"time": 61, "pitch": 83, "duration": 6, "velocity": 114}, {"time": 67, "pitch": 76, "duration": 6, "velocity": 105}, {"time": 73, "pitch": 77, "duration": 6, "velocity": 100}, {"time": 79, "pitch": 78, "duration": 15, "velocity": 105}, {"time": 91, "pitch": 83, "duration": 12, "velocity": 105}, {"time": 103, "pitch": 79, "duration": 41, "velocity": 114}, {"time": 1297, "pitch": 57, "duration": 4, "velocity": 71}, {"time": 1300, "pitch": 59, "duration": 4, "velocity": 94}, {"time": 1303, "pitch": 60, "duration": 11, "velocity": 92}, {"time": 1315, "pitch": 62, "duration": 12, "velocity": 87}, {"time": 1327, "pitch": 55, "duration": 11, "velocity": 80}, {"time": 1327, "pitch": 59, "duration": 12, "velocity": 80}, {"time": 1345, "pitch": 69, "duration": 4, "velocity": 76}, {"time": 1348, "pitch": 71, "duration": 4, "velocity": 92}, {"time": 1351, "pitch": 72, "duration": 7, "velocity": 89}, {"time": 1357, "pitch": 71, "duration": 7, "velocity": 87}, {"time": 1363, "pitch": 67, "duration": 9, "velocity": 64}, {"time": 1369, "pitch": 62, "duration": 6, "velocity": 58}, {"time": 2155, "pitch": 66, "duration": 3, "velocity": 99}, {"time": 2158, "pitch": 67, "duration": 4, "velocity": 100}, {"time": 2161, "pitch": 69, "duration": 3, "velocity": 102}, {"time": 2164, "pitch": 72, "duration": 4, "velocity": 102}, {"time": 2167, "pitch": 71, "duration": 20, "velocity": 87}, {"time": 2209, "pitch": 69, "duration": 3, "velocity": 84}, {"time": 2212, "pitch": 72, "duration": 3, "velocity": 73}, {"time": 2215, "pitch": 71, "duration": 14, "velocity": 94}, {"time": 2296, "pitch": 79, "duration": 4, "velocity": 76}, {"time": 2299, "pitch": 78, "duration": 7, "velocity": 109}, {"time": 2305, "pitch": 79, "duration": 6, "velocity": 73}, {"time": 2311, "pitch": 76, "duration": 22, "velocity": 89}, {"time": 3019, "pitch": 66, "duration": 3, "velocity": 99}, {"time": 3022, "pitch": 67, "duration": 4, "velocity": 100}, {"time": 3025, "pitch": 69, "duration": 3, "velocity": 102}, {"time": 3028, "pitch": 72, "duration": 4, "velocity": 102}, {"time": 3031, "pitch": 71, "duration": 10, "velocity": 87}, {"time": 3073, "pitch": 69, "duration": 3, "velocity": 84}, {"time": 3076, "pitch": 72, "duration": 3, "velocity": 73}, {"time": 3079, "pitch": 71, "duration": 11, "velocity": 94}, {"time": 3160, "pitch": 79, "duration": 4, "velocity": 76}, {"time": 3163, "pitch": 78, "duration": 7, "velocity": 109}, {"time": 3169, "pitch": 79, "duration": 6, "velocity": 73}, {"time": 3175, "pitch": 76, "duration": 15, "velocity": 89}, {"time": 3367, "pitch": 88, "duration": 7, "velocity": 108}, {"time": 3373, "pitch": 83, "duration": 6, "velocity": 105}, {"time": 3377, "pitch": 76, "duration": 2, "velocity": 111}, {"time": 3379, "pitch": 81, "duration": 7, "velocity": 114}, {"time": 3385, "pitch": 79, "duration": 6, "velocity": 111}, {"time": 3391, "pitch": 86, "duration": 18, "velocity": 111}, {"time": 3409, "pitch": 84, "duration": 3, "velocity": 71}, {"time": 3412, "pitch": 83, "duration": 3, "velocity": 69}, {"time": 3415, "pitch": 84, "duration": 6, "velocity": 105}, {"time": 3421, "pitch": 83, "duration": 6, "velocity": 111}, {"time": 3427, "pitch": 76, "duration": 6, "velocity": 108}, {"time": 3433, "pitch": 77, "duration": 6, "velocity": 100}, {"time": 3439, "pitch": 78, "duration": 18, "velocity": 90}, {"time": 3457, "pitch": 86, "duration": 5, "velocity": 82}, {"time": 3462, "pitch": 93, "duration": 25, "velocity": 76}, {"time": 3463, "pitch": 98, "duration": 42, "velocity": 100}, {"time": 3505, "pitch": 57, "duration": 4, "velocity": 71}, {"time": 3508, "pitch": 59, "duration": 4, "velocity": 94}, {"time": 3511, "pitch": 60, "duration": 12, "velocity": 92}, {"time": 3523, "pitch": 62, "duration": 12, "velocity": 87}, {"time": 3535, "pitch": 55, "duration": 18, "velocity": 80}, {"time": 3535, "pitch": 59, "duration": 18, "velocity": 80}, {"time": 3553, "pitch": 69, "duration": 4, "velocity": 76}, {"time": 3556, "pitch": 71, "duration": 4, "velocity": 92}, {"time": 3559, "pitch": 72, "duration": 7, "velocity": 89}, {"time": 3565, "pitch": 71, "duration": 7, "velocity": 87}, {"time": 3571, "pitch": 67, "duration": 9, "velocity": 64}, {"time": 3577, "pitch": 62, "duration": 34, "velocity": 58}, {"time": 3611, "pitch": 74, "duration": 31, "velocity": 40}, {"time": 3614, "pitch": 83, "duration": 34, "velocity": 82}]}, {"program": 0, "is_drum": false, "name": "PIANO", "notes": [{"time": 7, "pitch": 48, "duration": 18, "velocity": 89}, {"time": 7, "pitch": 60, "duration": 8, "velocity": 64}, {"time": 7, "pitch": 64, "duration": 13, "velocity": 78}, {"time": 13, "pitch": 55, "duration": 12, "velocity": 48}, {"time": 19, "pitch": 60, "duration": 7, "velocity": 102}, {"time": 19, "pitch": 69, "duration": 1, "velocity": 1}, {"time": 25, "pitch": 64, "duration": 2, "velocity": 87}, {"time": 31, "pitch": 47, "duration": 19, "velocity": 76}, {"time": 31, "pitch": 62, "duration": 18, "velocity": 37}, {"time": 37, "pitch": 54, "duration": 12, "velocity": 45}, {"time": 43, "pitch": 59, "duration": 7, "velocity": 87}, {"time": 55, "pitch": 45, "duration": 21, "velocity": 92}, {"time": 55, "pitch": 57, "duration": 7, "velocity": 76}, {"time": 55, "pitch": 60, "duration": 13, "velocity": 76}, {"time": 61, "pitch": 52, "duration": 15, "velocity": 37}, {"time": 67, "pitch": 57, "duration": 11, "velocity": 102}, {"time": 73, "pitch": 60, "duration": 9, "velocity": 89}, {"time": 79, "pitch": 50, "duration": 19, "velocity": 100}, {"time": 85, "pitch": 57, "duration": 12, "velocity": 76}, {"time": 91, "pitch": 60, "duration": 7, "velocity": 100}, {"time": 97, "pitch": 66, "duration": 3, "velocity": 90}, {"time": 103, "pitch": 43, "duration": 22, "velocity": 102}, {"time": 109, "pitch": 50, "duration": 17, "velocity": 71}, {"time": 115, "pitch": 55, "duration": 7, "velocity": 108}, {"time": 121, "pitch": 59, "duration": 7, "velocity": 102}, {"time": 127, "pitch": 45, "duration": 22, "velocity": 97}, {"time": 127, "pitch": 55, "duration": 7, "velocity": 87}, {"time": 127, "pitch": 60, "duration": 8, "velocity": 92}, {"time": 133, "pitch": 52, "duration": 5, "velocity": 44}, {"time": 139, "pitch": 50, "duration": 8, "velocity": 69}, {"time": 139, "pitch": 57, "duration": 8, "velocity": 82}, {"time": 139, "pitch": 62, "duration": 25, "velocity": 80}, {"time": 151, "pitch": 43, "duration": 20, "velocity": 92}, {"time": 157, "pitch": 50, "duration": 16, "velocity": 62}, {"time": 163, "pitch": 55, "duration": 7, "velocity": 108}, {"time": 169, "pitch": 59, "duration": 7, "velocity": 105}, {"time": 175, "pitch": 45, "duration": 13, "velocity": 97}, {"time": 175, "pitch": 55, "duration": 7, "velocity": 87}, {"time": 175, "pitch": 60, "duration": 7, "velocity": 92}, {"time": 181, "pitch": 52, "duration": 5, "velocity": 42}, {"time": 187, "pitch": 50, "duration": 10, "velocity": 76}, {"time": 187, "pitch": 57, "duration": 9, "velocity": 84}, {"time": 187, "pitch": 62, "duration": 14, "velocity": 87}, {"time": 199, "pitch": 43, "duration": 22, "velocity": 76}, {"time": 199, "pitch": 55, "duration": 8, "velocity": 67}, {"time": 199, "pitch": 59, "duration": 13, "velocity": 82}, {"time": 205, "pitch": 50, "duration": 16, "velocity": 78}, {"time": 211, "pitch": 55, "duration": 7, "velocity": 108}, {"time": 217, "pitch": 59, "duration": 2, "velocity": 82}, {"time": 223, "pitch": 43, "duration": 23, "velocity": 97}, {"time": 223, "pitch": 57, "duration": 6, "velocity": 64}, {"time": 223, "pitch": 66, "duration": 23, "velocity": 72}, {"time": 229, "pitch": 50, "duration": 9, "velocity": 40}, {"time": 235, "pitch": 57, "duration": 12, "velocity": 87}, {"time": 235, "pitch": 62, "duration": 11, "velocity": 89}, {"time": 241, "pitch": 50, "duration": 6, "velocity": 60}, {"time": 247, "pitch": 43, "duration": 19, "velocity": 82}, {"time": 247, "pitch": 55, "duration": 3, "velocity": 78}, {"time": 247, "pitch": 60, "duration": 11, "velocity": 89}, {"time": 253, "pitch": 55, "duration": 5, "velocity": 46}, {"time": 259, "pitch": 62, "duration": 11, "velocity": 89}, {"time": 265, "pitch": 55, "duration": 6, "velocity": 97}, {"time": 271, "pitch": 43, "duration": 5, "velocity": 97}, {"time": 271, "pitch": 55, "duration": 5, "velocity": 89}, {"time": 271, "pitch": 59, "duration": 5, "velocity": 94}, {"time": 283, "pitch": 47, "duration": 12, "velocity": 97}, {"time": 283, "pitch": 57, "duration": 12, "velocity": 97}, {"time": 283, "pitch": 63, "duration": 12, "velocity": 55}, {"time": 295, "pitch": 52, "duration": 14, "velocity": 97}, {"time": 295, "pitch": 62, "duration": 9, "velocity": 78}, {"time": 295, "pitch": 67, "duration": 13, "velocity": 84}, {"time": 301, "pitch": 59, "duration": 8, "velocity": 58}, {"time": 307, "pitch": 62, "duration": 7, "velocity": 94}, {"time": 313, "pitch": 67, "duration": 2, "velocity": 80}, {"time": 319, "pitch": 45, "duration": 16, "velocity": 92}, {"time": 319, "pitch": 57, "duration": 9, "velocity": 84}, {"time": 319, "pitch": 61, "duration": 9, "velocity": 93}, {"time": 325, "pitch": 52, "duration": 9, "velocity": 52}, {"time": 331, "pitch": 57, "duration": 5, "velocity": 89}, {"time": 331, "pitch": 61, "duration": 5, "velocity": 93}, {"time": 331, "pitch": 64, "duration": 6, "velocity": 94}, {"time": 337, "pitch": 45, "duration": 3, "velocity": 89}, {"time": 343, "pitch": 48, "duration": 17, "velocity": 97}, {"time": 343, "pitch": 60, "duration": 13, "velocity": 84}, {"time": 343, "pitch": 63, "duration": 9, "velocity": 87}, {"time": 349, "pitch": 55, "duration": 9, "velocity": 41}, {"time": 355, "pitch": 63, "duration": 7, "velocity": 93}, {"time": 355, "pitch": 67, "duration": 8, "velocity": 92}, {"time": 367, "pitch": 50, "duration": 20, "velocity": 94}, {"time": 367, "pitch": 62, "duration": 9, "velocity": 76}, {"time": 367, "pitch": 66, "duration": 9, "velocity": 48}, {"time": 373, "pitch": 57, "duration": 13, "velocity": 87}, {"time": 379, "pitch": 66, "duration": 7, "velocity": 109}, {"time": 385, "pitch": 62, "duration": 7, "velocity": 80}, {"time": 391, "pitch": 43, "duration": 22, "velocity": 76}, {"time": 391, "pitch": 55, "duration": 8, "velocity": 67}, {"time": 391, "pitch": 59, "duration": 13, "velocity": 82}, {"time": 397, "pitch": 50, "duration": 16, "velocity": 78}, {"time": 403, "pitch": 55, "duration": 7, "velocity": 108}, {"time": 409, "pitch": 59, "duration": 2, "velocity": 82}, {"time": 415, "pitch": 43, "duration": 23, "velocity": 97}, {"time": 415, "pitch": 57, "duration": 6, "velocity": 64}, {"time": 415, "pitch": 66, "duration": 23, "velocity": 72}, {"time": 421, "pitch": 50, "duration": 9, "velocity": 40}, {"time": 427, "pitch": 57, "duration": 12, "velocity": 87}, {"time": 427, "pitch": 62, "duration": 11, "velocity": 89}, {"time": 433, "pitch": 50, "duration": 6, "velocity": 60}, {"time": 439, "pitch": 43, "duration": 19, "velocity": 82}, {"time": 439, "pitch": 55, "duration": 3, "velocity": 78}, {"time": 439, "pitch": 60, "duration": 11, "velocity": 89}, {"time": 445, "pitch": 55, "duration": 5, "velocity": 46}, {"time": 451, "pitch": 62, "duration": 11, "velocity": 89}, {"time": 457, "pitch": 55, "duration": 6, "velocity": 97}, {"time": 463, "pitch": 43, "duration": 5, "velocity": 97}, {"time": 463, "pitch": 55, "duration": 5, "velocity": 89}, {"time": 463, "pitch": 59, "duration": 5, "velocity": 94}, {"time": 475, "pitch": 47, "duration": 12, "velocity": 97}, {"time": 475, "pitch": 57, "duration": 12, "velocity": 97}, {"time": 475, "pitch": 63, "duration": 12, "velocity": 55}, {"time": 487, "pitch": 52, "duration": 14, "velocity": 97}, {"time": 487, "pitch": 62, "duration": 9, "velocity": 78}, {"time": 487, "pitch": 67, "duration": 13, "velocity": 84}, {"time": 493, "pitch": 59, "duration": 8, "velocity": 58}, {"time": 499, "pitch": 62, "duration": 7, "velocity": 94}, {"time": 505, "pitch": 67, "duration": 2, "velocity": 80}, {"time": 511, "pitch": 45, "duration": 16, "velocity": 92}, {"time": 511, "pitch": 57, "duration": 9, "velocity": 84}, {"time": 511, "pitch": 61, "duration": 9, "velocity": 93}, {"time": 517, "pitch": 52, "duration": 9, "velocity": 52}, {"time": 523, "pitch": 57, "duration": 5, "velocity": 89}, {"time": 523, "pitch": 61, "duration": 5, "velocity": 93}, {"time": 523, "pitch": 64, "duration": 6, "velocity": 94}, {"time": 529, "pitch": 45, "duration": 3, "velocity": 89}, {"time": 535, "pitch": 48, "duration": 17, "velocity": 97}, {"time": 535, "pitch": 60, "duration": 13, "velocity": 84}, {"time": 535, "pitch": 63, "duration": 9, "velocity": 87}, {"time": 541, "pitch": 55, "duration": 9, "velocity": 41}, {"time": 547, "pitch": 63, "duration": 7, "velocity": 93}, {"time": 547, "pitch": 67, "duration": 8, "velocity": 92}, {"time": 559, "pitch": 50, "duration": 20, "velocity": 94}, {"time": 559, "pitch": 62, "duration": 9, "velocity": 76}, {"time": 559, "pitch": 66, "duration": 9, "velocity": 48}, {"time": 565, "pitch": 57, "duration": 13, "velocity": 87}, {"time": 571, "pitch": 66, "duration": 7, "velocity": 109}, {"time": 577, "pitch": 62, "duration": 7, "velocity": 80}, {"time": 583, "pitch": 48, "duration": 14, "velocity": 97}, {"time": 583, "pitch": 60, "duration": 9, "velocity": 73}, {"time": 583, "pitch": 64, "duration": 8, "velocity": 87}, {"time": 589, "pitch": 55, "duration": 8, "velocity": 64}, {"time": 595, "pitch": 60, "duration": 5, "velocity": 94}, {"time": 595, "pitch": 64, "duration": 5, "velocity": 105}, {"time": 595, "pitch": 67, "duration": 6, "velocity": 97}, {"time": 601, "pitch": 48, "duration": 3, "velocity": 92}, {"time": 607, "pitch": 47, "duration": 15, "velocity": 102}, {"time": 607, "pitch": 57, "duration": 6, "velocity": 80}, {"time": 607, "pitch": 62, "duration": 7, "velocity": 92}, {"time": 613, "pitch": 54, "duration": 8, "velocity": 26}, {"time": 619, "pitch": 62, "duration": 7, "velocity": 100}, {"time": 619, "pitch": 66, "duration": 7, "velocity": 99}, {"time": 625, "pitch": 47, "duration": 5, "velocity": 102}, {"time": 631, "pitch": 45, "duration": 11, "velocity": 97}, {"time": 631, "pitch": 57, "duration": 5, "velocity": 73}, {"time": 631, "pitch": 60, "duration": 7, "velocity": 92}, {"time": 637, "pitch": 57, "duration": 4, "velocity": 100}, {"time": 643, "pitch": 50, "duration": 8, "velocity": 92}, {"time": 643, "pitch": 57, "duration": 4, "velocity": 94}, {"time": 643, "pitch": 62, "duration": 7, "velocity": 87}, {"time": 643, "pitch": 66, "duration": 7, "velocity": 55}, {"time": 655, "pitch": 43, "duration": 15, "velocity": 100}, {"time": 655, "pitch": 55, "duration": 9, "velocity": 66}, {"time": 655, "pitch": 59, "duration": 8, "velocity": 82}, {"time": 661, "pitch": 50, "duration": 8, "velocity": 49}, {"time": 667, "pitch": 55, "duration": 4, "velocity": 89}, {"time": 667, "pitch": 59, "duration": 4, "velocity": 105}, {"time": 667, "pitch": 62, "duration": 5, "velocity": 97}, {"time": 673, "pitch": 43, "duration": 2, "velocity": 89}, {"time": 679, "pitch": 52, "duration": 20, "velocity": 102}, {"time": 679, "pitch": 59, "duration": 4, "velocity": 84}, {"time": 679, "pitch": 64, "duration": 9, "velocity": 92}, {"time": 685, "pitch": 59, "duration": 4, "velocity": 38}, {"time": 691, "pitch": 59, "duration": 3, "velocity": 100}, {"time": 691, "pitch": 67, "duration": 7, "velocity": 97}, {"time": 697, "pitch": 59, "duration": 2, "velocity": 100}, {"time": 703, "pitch": 45, "duration": 15, "velocity": 94}, {"time": 703, "pitch": 57, "duration": 9, "velocity": 80}, {"time": 703, "pitch": 61, "duration": 8, "velocity": 65}, {"time": 709, "pitch": 52, "duration": 9, "velocity": 47}, {"time": 715, "pitch": 57, "duration": 7, "velocity": 97}, {"time": 715, "pitch": 61, "duration": 6, "velocity": 99}, {"time": 715, "pitch": 64, "duration": 6, "velocity": 100}, {"time": 727, "pitch": 45, "duration": 15, "velocity": 100}, {"time": 727, "pitch": 55, "duration": 9, "velocity": 87}, {"time": 727, "pitch": 60, "duration": 9, "velocity": 102}, {"time": 733, "pitch": 52, "duration": 8, "velocity": 44}, {"time": 739, "pitch": 55, "duration": 5, "velocity": 94}, {"time": 739, "pitch": 60, "duration": 5, "velocity": 102}, {"time": 739, "pitch": 64, "duration": 6, "velocity": 97}, {"time": 745, "pitch": 45, "duration": 5, "velocity": 97}, {"time": 751, "pitch": 50, "duration": 22, "velocity": 92}, {"time": 751, "pitch": 57, "duration": 3, "velocity": 89}, {"time": 751, "pitch": 62, "duration": 13, "velocity": 92}, {"time": 757, "pitch": 57, "duration": 7, "velocity": 69}, {"time": 763, "pitch": 66, "duration": 7, "velocity": 112}, {"time": 769, "pitch": 57, "duration": 4, "velocity": 80}, {"time": 775, "pitch": 50, "duration": 23, "velocity": 87}, {"time": 775, "pitch": 57, "duration": 3, "velocity": 92}, {"time": 775, "pitch": 66, "duration": 11, "velocity": 90}, {"time": 781, "pitch": 57, "duration": 6, "velocity": 64}, {"time": 787, "pitch": 57, "duration": 6, "velocity": 92}, {"time": 787, "pitch": 67, "duration": 4, "velocity": 100}, {"time": 793, "pitch": 69, "duration": 5, "velocity": 108}, {"time": 799, "pitch": 43, "duration": 15, "velocity": 94}, {"time": 799, "pitch": 62, "duration": 8, "velocity": 80}, {"time": 799, "pitch": 67, "duration": 13, "velocity": 94}, {"time": 799, "pitch": 71, "duration": 14, "velocity": 92}, {"time": 805, "pitch": 50, "duration": 8, "velocity": 44}, {"time": 811, "pitch": 62, "duration": 7, "velocity": 102}, {"time": 817, "pitch": 67, "duration": 2, "velocity": 94}, {"time": 823, "pitch": 45, "duration": 15, "velocity": 92}, {"time": 823, "pitch": 57, "duration": 8, "velocity": 82}, {"time": 823, "pitch": 60, "duration": 9, "velocity": 87}, {"time": 829, "pitch": 52, "duration": 7, "velocity": 58}, {"time": 835, "pitch": 57, "duration": 6, "velocity": 100}, {"time": 835, "pitch": 60, "duration": 6, "velocity": 100}, {"time": 835, "pitch": 67, "duration": 9, "velocity": 87}, {"time": 841, "pitch": 45, "duration": 3, "velocity": 97}, {"time": 847, "pitch": 47, "duration": 14, "velocity": 102}, {"time": 847, "pitch": 57, "duration": 9, "velocity": 97}, {"time": 847, "pitch": 62, "duration": 9, "velocity": 87}, {"time": 853, "pitch": 54, "duration": 8, "velocity": 34}, {"time": 859, "pitch": 57, "duration": 5, "velocity": 102}, {"time": 859, "pitch": 62, "duration": 5, "velocity": 105}, {"time": 859, "pitch": 66, "duration": 7, "velocity": 102}, {"time": 865, "pitch": 47, "duration": 5, "velocity": 100}, {"time": 871, "pitch": 52, "duration": 17, "velocity": 100}, {"time": 871, "pitch": 59, "duration": 3, "velocity": 87}, {"time": 871, "pitch": 64, "duration": 10, "velocity": 92}, {"time": 877, "pitch": 59, "duration": 5, "velocity": 53}, {"time": 883, "pitch": 59, "duration": 2, "velocity": 92}, {"time": 883, "pitch": 64, "duration": 7, "velocity": 100}, {"time": 883, "pitch": 68, "duration": 8, "velocity": 77}, {"time": 889, "pitch": 59, "duration": 1, "velocity": 57}, {"time": 895, "pitch": 45, "duration": 20, "velocity": 97}, {"time": 895, "pitch": 57, "duration": 9, "velocity": 80}, {"time": 895, "pitch": 60, "duration": 9, "velocity": 89}, {"time": 895, "pitch": 64, "duration": 9, "velocity": 89}, {"time": 901, "pitch": 52, "duration": 18, "velocity": 50}, {"time": 907, "pitch": 57, "duration": 3, "velocity": 87}, {"time": 907, "pitch": 60, "duration": 11, "velocity": 92}, {"time": 907, "pitch": 64, "duration": 11, "velocity": 97}, {"time": 913, "pitch": 57, "duration": 3, "velocity": 76}, {"time": 919, "pitch": 44, "duration": 23, "velocity": 65}, {"time": 919, "pitch": 56, "duration": 11, "velocity": 79}, {"time": 919, "pitch": 60, "duration": 8, "velocity": 102}, {"time": 919, "pitch": 63, "duration": 1, "velocity": 57}, {"time": 919, "pitch": 64, "duration": 9, "velocity": 82}, {"time": 925, "pitch": 52, "duration": 21, "velocity": 71}, {"time": 931, "pitch": 56, "duration": 1, "velocity": 41}, {"time": 931, "pitch": 60, "duration": 9, "velocity": 97}, {"time": 931, "pitch": 64, "duration": 9, "velocity": 100}, {"time": 937, "pitch": 56, "duration": 3, "velocity": 77}, {"time": 943, "pitch": 43, "duration": 16, "velocity": 84}, {"time": 943, "pitch": 55, "duration": 10, "velocity": 82}, {"time": 943, "pitch": 60, "duration": 10, "velocity": 92}, {"time": 943, "pitch": 64, "duration": 10, "velocity": 76}, {"time": 949, "pitch": 52, "duration": 10, "velocity": 67}, {"time": 955, "pitch": 55, "duration": 5, "velocity": 97}, {"time": 955, "pitch": 60, "duration": 5, "velocity": 108}, {"time": 955, "pitch": 64, "duration": 6, "velocity": 100}, {"time": 961, "pitch": 43, "duration": 4, "velocity": 100}, {"time": 967, "pitch": 50, "duration": 16, "velocity": 60}, {"time": 967, "pitch": 57, "duration": 3, "velocity": 64}, {"time": 967, "pitch": 62, "duration": 10, "velocity": 87}, {"time": 973, "pitch": 57, "duration": 4, "velocity": 67}, {"time": 979, "pitch": 57, "duration": 10, "velocity": 105}, {"time": 979, "pitch": 62, "duration": 10, "velocity": 111}, {"time": 979, "pitch": 66, "duration": 10, "velocity": 105}, {"time": 985, "pitch": 50, "duration": 4, "velocity": 17}, {"time": 991, "pitch": 43, "duration": 14, "velocity": 102}, {"time": 991, "pitch": 55, "duration": 9, "velocity": 71}, {"time": 991, "pitch": 59, "duration": 9, "velocity": 84}, {"time": 991, "pitch": 62, "duration": 9, "velocity": 78}, {"time": 997, "pitch": 50, "duration": 9, "velocity": 58}, {"time": 1003, "pitch": 55, "duration": 4, "velocity": 94}, {"time": 1003, "pitch": 59, "duration": 5, "velocity": 105}, {"time": 1003, "pitch": 62, "duration": 5, "velocity": 89}, {"time": 1009, "pitch": 43, "duration": 3, "velocity": 80}, {"time": 1015, "pitch": 45, "duration": 15, "velocity": 100}, {"time": 1015, "pitch": 57, "duration": 8, "velocity": 87}, {"time": 1015, "pitch": 60, "duration": 8, "velocity": 84}, {"time": 1021, "pitch": 52, "duration": 9, "velocity": 48}, {"time": 1027, "pitch": 57, "duration": 4, "velocity": 102}, {"time": 1027, "pitch": 60, "duration": 4, "velocity": 108}, {"time": 1027, "pitch": 64, "duration": 5, "velocity": 100}, {"time": 1033, "pitch": 45, "duration": 4, "velocity": 92}, {"time": 1039, "pitch": 47, "duration": 15, "velocity": 100}, {"time": 1039, "pitch": 59, "duration": 10, "velocity": 89}, {"time": 1039, "pitch": 62, "duration": 10, "velocity": 87}, {"time": 1045, "pitch": 54, "duration": 11, "velocity": 40}, {"time": 1051, "pitch": 59, "duration": 7, "velocity": 108}, {"time": 1051, "pitch": 62, "duration": 6, "velocity": 108}, {"time": 1057, "pitch": 47, "duration": 7, "velocity": 94}, {"time": 1063, "pitch": 51, "duration": 9, "velocity": 112}, {"time": 1063, "pitch": 59, "duration": 9, "velocity": 94}, {"time": 1063, "pitch": 63, "duration": 10, "velocity": 90}, {"time": 1069, "pitch": 54, "duration": 12, "velocity": 50}, {"time": 1075, "pitch": 59, "duration": 9, "velocity": 100}, {"time": 1075, "pitch": 63, "duration": 9, "velocity": 96}, {"time": 1075, "pitch": 66, "duration": 10, "velocity": 87}, {"time": 1075, "pitch": 69, "duration": 11, "velocity": 89}, {"time": 1081, "pitch": 51, "duration": 5, "velocity": 26}, {"time": 1087, "pitch": 52, "duration": 19, "velocity": 105}, {"time": 1087, "pitch": 59, "duration": 4, "velocity": 87}, {"time": 1087, "pitch": 64, "duration": 10, "velocity": 89}, {"time": 1093, "pitch": 59, "duration": 5, "velocity": 94}, {"time": 1099, "pitch": 59, "duration": 3, "velocity": 97}, {"time": 1099, "pitch": 64, "duration": 7, "velocity": 108}, {"time": 1099, "pitch": 67, "duration": 9, "velocity": 102}, {"time": 1105, "pitch": 59, "duration": 3, "velocity": 100}, {"time": 1111, "pitch": 50, "duration": 21, "velocity": 92}, {"time": 1111, "pitch": 62, "duration": 9, "velocity": 92}, {"time": 1111, "pitch": 66, "duration": 9, "velocity": 87}, {"time": 1117, "pitch": 57, "duration": 4, "velocity": 53}, {"time": 1123, "pitch": 57, "duration": 3, "velocity": 94}, {"time": 1123, "pitch": 62, "duration": 7, "velocity": 100}, {"time": 1123, "pitch": 66, "duration": 8, "velocity": 93}, {"time": 1129, "pitch": 57, "duration": 2, "velocity": 84}, {"time": 1135, "pitch": 45, "duration": 16, "velocity": 97}, {"time": 1135, "pitch": 57, "duration": 9, "velocity": 87}, {"time": 1135, "pitch": 61, "duration": 9, "velocity": 87}, {"time": 1141, "pitch": 52, "duration": 9, "velocity": 64}, {"time": 1147, "pitch": 57, "duration": 11, "velocity": 100}, {"time": 1147, "pitch": 61, "duration": 11, "velocity": 105}, {"time": 1147, "pitch": 64, "duration": 10, "velocity": 97}, {"time": 1153, "pitch": 45, "duration": 27, "velocity": 82}, {"time": 1159, "pitch": 57, "duration": 19, "velocity": 100}, {"time": 1159, "pitch": 61, "duration": 19, "velocity": 90}, {"time": 1159, "pitch": 64, "duration": 20, "velocity": 94}, {"time": 1183, "pitch": 48, "duration": 19, "velocity": 89}, {"time": 1183, "pitch": 64, "duration": 14, "velocity": 89}, {"time": 1189, "pitch": 55, "duration": 13, "velocity": 42}, {"time": 1195, "pitch": 60, "duration": 5, "velocity": 100}, {"time": 1207, "pitch": 47, "duration": 19, "velocity": 87}, {"time": 1207, "pitch": 62, "duration": 19, "velocity": 89}, {"time": 1213, "pitch": 54, "duration": 10, "velocity": 19}, {"time": 1219, "pitch": 59, "duration": 7, "velocity": 87}, {"time": 1225, "pitch": 66, "duration": 3, "velocity": 96}, {"time": 1231, "pitch": 45, "duration": 19, "velocity": 94}, {"time": 1231, "pitch": 55, "duration": 9, "velocity": 73}, {"time": 1231, "pitch": 60, "duration": 13, "velocity": 82}, {"time": 1237, "pitch": 52, "duration": 13, "velocity": 40}, {"time": 1243, "pitch": 55, "duration": 7, "velocity": 82}, {"time": 1249, "pitch": 60, "duration": 4, "velocity": 92}, {"time": 1255, "pitch": 50, "duration": 15, "velocity": 76}, {"time": 1255, "pitch": 57, "duration": 4, "velocity": 40}, {"time": 1255, "pitch": 62, "duration": 13, "velocity": 76}, {"time": 1261, "pitch": 57, "duration": 7, "velocity": 66}, {"time": 1267, "pitch": 66, "duration": 4, "velocity": 99}, {"time": 1279, "pitch": 43, "duration": 22, "velocity": 102}, {"time": 1285, "pitch": 50, "duration": 17, "velocity": 71}, {"time": 1291, "pitch": 55, "duration": 7, "velocity": 108}, {"time": 1297, "pitch": 59, "duration": 7, "velocity": 102}, {"time": 1303, "pitch": 45, "duration": 22, "velocity": 97}, {"time": 1303, "pitch": 55, "duration": 7, "velocity": 87}, {"time": 1303, "pitch": 60, "duration": 8, "velocity": 92}, {"time": 1309, "pitch": 52, "duration": 5, "velocity": 44}, {"time": 1315, "pitch": 50, "duration": 8, "velocity": 69}, {"time": 1315, "pitch": 57, "duration": 8, "velocity": 82}, {"time": 1315, "pitch": 62, "duration": 25, "velocity": 80}, {"time": 1327, "pitch": 43, "duration": 20, "velocity": 92}, {"time": 1333, "pitch": 50, "duration": 16, "velocity": 62}, {"time": 1339, "pitch": 55, "duration": 7, "velocity": 108}, {"time": 1345, "pitch": 59, "duration": 7, "velocity": 105}, {"time": 1351, "pitch": 45, "duration": 13, "velocity": 97}, {"time": 1351, "pitch": 55, "duration": 7, "velocity": 87}, {"time": 1351, "pitch": 60, "duration": 7, "velocity": 92}, {"time": 1357, "pitch": 52, "duration": 5, "velocity": 42}, {"time": 1363, "pitch": 50, "duration": 10, "velocity": 76}, {"time": 1363, "pitch": 57, "duration": 9, "velocity": 84}, {"time": 1363, "pitch": 62, "duration": 14, "velocity": 87}, {"time": 1375, "pitch": 43, "duration": 22, "velocity": 76}, {"time": 1375, "pitch": 55, "duration": 8, "velocity": 67}, {"time": 1375, "pitch": 59, "duration": 13, "velocity": 82}, {"time": 1381, "pitch": 50, "duration": 16, "velocity": 78}, {"time": 1387, "pitch": 55, "duration": 7, "velocity": 108}, {"time": 1393, "pitch": 59, "duration": 2, "velocity": 82}, {"time": 1399, "pitch": 43, "duration": 23, "velocity": 97}, {"time": 1399, "pitch": 57, "duration": 6, "velocity": 64}, {"time": 1399, "pitch": 66, "duration": 23, "velocity": 72}, {"time": 1405, "pitch": 50, "duration": 9, "velocity": 40}, {"time": 1411, "pitch": 57, "duration": 12, "velocity": 87}, {"time": 1411, "pitch": 62, "duration": 11, "velocity": 89}, {"time": 1417, "pitch": 50, "duration": 6, "velocity": 60}, {"time": 1423, "pitch": 43, "duration": 19, "velocity": 82}, {"time": 1423, "pitch": 55, "duration": 3, "velocity": 78}, {"time": 1423, "pitch": 60, "duration": 11, "velocity": 89}, {"time": 1429, "pitch": 55, "duration": 5, "velocity": 46}, {"time": 1435, "pitch": 62, "duration": 11, "velocity": 89}, {"time": 1441, "pitch": 55, "duration": 6, "velocity": 97}, {"time": 1447, "pitch": 43, "duration": 5, "velocity": 97}, {"time": 1447, "pitch": 55, "duration": 5, "velocity": 89}, {"time": 1447, "pitch": 59, "duration": 5, "velocity": 94}, {"time": 1459, "pitch": 47, "duration": 12, "velocity": 97}, {"time": 1459, "pitch": 57, "duration": 12, "velocity": 97}, {"time": 1459, "pitch": 63, "duration": 12, "velocity": 55}, {"time": 1471, "pitch": 52, "duration": 14, "velocity": 97}, {"time": 1471, "pitch": 62, "duration": 9, "velocity": 78}, {"time": 1471, "pitch": 67, "duration": 13, "velocity": 84}, {"time": 1477, "pitch": 59, "duration": 8, "velocity": 58}, {"time": 1483, "pitch": 62, "duration": 7, "velocity": 94}, {"time": 1489, "pitch": 67, "duration": 2, "velocity": 80}, {"time": 1495, "pitch": 45, "duration": 16, "velocity": 92}, {"time": 1495, "pitch": 57, "duration": 9, "velocity": 84}, {"time": 1495, "pitch": 61, "duration": 9, "velocity": 93}, {"time": 1501, "pitch": 52, "duration": 9, "velocity": 52}, {"time": 1507, "pitch": 57, "duration": 5, "velocity": 89}, {"time": 1507, "pitch": 61, "duration": 5, "velocity": 93}, {"time": 1507, "pitch": 64, "duration": 6, "velocity": 94}, {"time": 1513, "pitch": 45, "duration": 3, "velocity": 89}, {"time": 1519, "pitch": 48, "duration": 17, "velocity": 97}, {"time": 1519, "pitch": 60, "duration": 13, "velocity": 84}, {"time": 1519, "pitch": 63, "duration": 9, "velocity": 87}, {"time": 1525, "pitch": 55, "duration": 9, "velocity": 41}, {"time": 1531, "pitch": 63, "duration": 7, "velocity": 93}, {"time": 1531, "pitch": 67, "duration": 8, "velocity": 92}, {"time": 1543, "pitch": 50, "duration": 20, "velocity": 94}, {"time": 1543, "pitch": 62, "duration": 9, "velocity": 76}, {"time": 1543, "pitch": 66, "duration": 9, "velocity": 48}, {"time": 1549, "pitch": 57, "duration": 13, "velocity": 87}, {"time": 1555, "pitch": 66, "duration": 7, "velocity": 109}, {"time": 1561, "pitch": 62, "duration": 7, "velocity": 80}, {"time": 1567, "pitch": 43, "duration": 22, "velocity": 76}, {"time": 1567, "pitch": 55, "duration": 8, "velocity": 67}, {"time": 1567, "pitch": 59, "duration": 13, "velocity": 82}, {"time": 1573, "pitch": 50, "duration": 16, "velocity": 78}, {"time": 1579, "pitch": 55, "duration": 7, "velocity": 108}, {"time": 1585, "pitch": 59, "duration": 2, "velocity": 82}, {"time": 1591, "pitch": 43, "duration": 23, "velocity": 97}, {"time": 1591, "pitch": 57, "duration": 6, "velocity": 64}, {"time": 1591, "pitch": 66, "duration": 23, "velocity": 72}, {"time": 1597, "pitch": 50, "duration": 9, "velocity": 40}, {"time": 1603, "pitch": 57, "duration": 12, "velocity": 87}, {"time": 1603, "pitch": 62, "duration": 11, "velocity": 89}, {"time": 1609, "pitch": 50, "duration": 6, "velocity": 60}, {"time": 1615, "pitch": 43, "duration": 19, "velocity": 82}, {"time": 1615, "pitch": 55, "duration": 3, "velocity": 78}, {"time": 1615, "pitch": 60, "duration": 11, "velocity": 89}, {"time": 1621, "pitch": 55, "duration": 5, "velocity": 46}, {"time": 1627, "pitch": 62, "duration": 11, "velocity": 89}, {"time": 1633, "pitch": 55, "duration": 6, "velocity": 97}, {"time": 1639, "pitch": 43, "duration": 5, "velocity": 97}, {"time": 1639, "pitch": 55, "duration": 5, "velocity": 89}, {"time": 1639, "pitch": 59, "duration": 5, "velocity": 94}, {"time": 1651, "pitch": 47, "duration": 12, "velocity": 97}, {"time": 1651, "pitch": 57, "duration": 12, "velocity": 97}, {"time": 1651, "pitch": 63, "duration": 12, "velocity": 55}, {"time": 1663, "pitch": 52, "duration": 14, "velocity": 97}, {"time": 1663, "pitch": 62, "duration": 9, "velocity": 78}, {"time": 1663, "pitch": 67, "duration": 13, "velocity": 84}, {"time": 1669, "pitch": 59, "duration": 8, "velocity": 58}, {"time": 1675, "pitch": 62, "duration": 7, "velocity": 94}, {"time": 1681, "pitch": 67, "duration": 2, "velocity": 80}, {"time": 1687, "pitch": 45, "duration": 16, "velocity": 92}, {"time": 1687, "pitch": 57, "duration": 9, "velocity": 84}, {"time": 1687, "pitch": 61, "duration": 9, "velocity": 93}, {"time": 1693, "pitch": 52, "duration": 9, "velocity": 52}, {"time": 1699, "pitch": 57, "duration": 5, "velocity": 89}, {"time": 1699, "pitch": 61, "duration": 5, "velocity": 93}, {"time": 1699, "pitch": 64, "duration": 6, "velocity": 94}, {"time": 1705, "pitch": 45, "duration": 3, "velocity": 89}, {"time": 1711, "pitch": 48, "duration": 17, "velocity": 97}, {"time": 1711, "pitch": 60, "duration": 13, "velocity": 84}, {"time": 1711, "pitch": 63, "duration": 9, "velocity": 87}, {"time": 1717, "pitch": 55, "duration": 9, "velocity": 41}, {"time": 1723, "pitch": 63, "duration": 7, "velocity": 93}, {"time": 1723, "pitch": 67, "duration": 8, "velocity": 92}, {"time": 1735, "pitch": 50, "duration": 20, "velocity": 94}, {"time": 1735, "pitch": 62, "duration": 9, "velocity": 76}, {"time": 1735, "pitch": 66, "duration": 9, "velocity": 48}, {"time": 1741, "pitch": 57, "duration": 13, "velocity": 87}, {"time": 1747, "pitch": 66, "duration": 7, "velocity": 109}, {"time": 1753, "pitch": 62, "duration": 7, "velocity": 80}, {"time": 1759, "pitch": 48, "duration": 14, "velocity": 97}, {"time": 1759, "pitch": 60, "duration": 9, "velocity": 73}, {"time": 1759, "pitch": 64, "duration": 8, "velocity": 87}, {"time": 1765, "pitch": 55, "duration": 8, "velocity": 64}, {"time": 1771, "pitch": 60, "duration": 5, "velocity": 94}, {"time": 1771, "pitch": 64, "duration": 5, "velocity": 105}, {"time": 1771, "pitch": 67, "duration": 6, "velocity": 97}, {"time": 1777, "pitch": 48, "duration": 3, "velocity": 92}, {"time": 1783, "pitch": 47, "duration": 15, "velocity": 102}, {"time": 1783, "pitch": 57, "duration": 6, "velocity": 80}, {"time": 1783, "pitch": 62, "duration": 7, "velocity": 92}, {"time": 1789, "pitch": 54, "duration": 8, "velocity": 26}, {"time": 1795, "pitch": 62, "duration": 7, "velocity": 100}, {"time": 1795, "pitch": 66, "duration": 7, "velocity": 99}, {"time": 1801, "pitch": 47, "duration": 5, "velocity": 102}, {"time": 1807, "pitch": 45, "duration": 11, "velocity": 97}, {"time": 1807, "pitch": 57, "duration": 5, "velocity": 73}, {"time": 1807, "pitch": 60, "duration": 7, "velocity": 92}, {"time": 1813, "pitch": 57, "duration": 4, "velocity": 100}, {"time": 1819, "pitch": 50, "duration": 8, "velocity": 92}, {"time": 1819, "pitch": 57, "duration": 4, "velocity": 94}, {"time": 1819, "pitch": 62, "duration": 7, "velocity": 87}, {"time": 1819, "pitch": 66, "duration": 7, "velocity": 55}, {"time": 1831, "pitch": 43, "duration": 15, "velocity": 100}, {"time": 1831, "pitch": 55, "duration": 9, "velocity": 66}, {"time": 1831, "pitch": 59, "duration": 8, "velocity": 82}, {"time": 1837, "pitch": 50, "duration": 8, "velocity": 49}, {"time": 1843, "pitch": 55, "duration": 4, "velocity": 89}, {"time": 1843, "pitch": 59, "duration": 4, "velocity": 105}, {"time": 1843, "pitch": 62, "duration": 5, "velocity": 97}, {"time": 1849, "pitch": 43, "duration": 2, "velocity": 89}, {"time": 1855, "pitch": 52, "duration": 20, "velocity": 102}, {"time": 1855, "pitch": 59, "duration": 4, "velocity": 84}, {"time": 1855, "pitch": 64, "duration": 9, "velocity": 92}, {"time": 1861, "pitch": 59, "duration": 4, "velocity": 38}, {"time": 1867, "pitch": 59, "duration": 3, "velocity": 100}, {"time": 1867, "pitch": 67, "duration": 7, "velocity": 97}, {"time": 1873, "pitch": 59, "duration": 2, "velocity": 100}, {"time": 1879, "pitch": 45, "duration": 15, "velocity": 94}, {"time": 1879, "pitch": 57, "duration": 9, "velocity": 80}, {"time": 1879, "pitch": 61, "duration": 8, "velocity": 65}, {"time": 1885, "pitch": 52, "duration": 9, "velocity": 47}, {"time": 1891, "pitch": 57, "duration": 7, "velocity": 97}, {"time": 1891, "pitch": 61, "duration": 6, "velocity": 99}, {"time": 1891, "pitch": 64, "duration": 6, "velocity": 100}, {"time": 1903, "pitch": 45, "duration": 15, "velocity": 100}, {"time": 1903, "pitch": 55, "duration": 9, "velocity": 87}, {"time": 1903, "pitch": 60, "duration": 9, "velocity": 102}, {"time": 1909, "pitch": 52, "duration": 8, "velocity": 44}, {"time": 1915, "pitch": 55, "duration": 5, "velocity": 94}, {"time": 1915, "pitch": 60, "duration": 5, "velocity": 102}, {"time": 1915, "pitch": 64, "duration": 6, "velocity": 97}, {"time": 1921, "pitch": 45, "duration": 5, "velocity": 97}, {"time": 1927, "pitch": 50, "duration": 22, "velocity": 92}, {"time": 1927, "pitch": 57, "duration": 3, "velocity": 89}, {"time": 1927, "pitch": 62, "duration": 13, "velocity": 92}, {"time": 1933, "pitch": 57, "duration": 7, "velocity": 69}, {"time": 1939, "pitch": 66, "duration": 7, "velocity": 112}, {"time": 1945, "pitch": 57, "duration": 4, "velocity": 80}, {"time": 1951, "pitch": 50, "duration": 23, "velocity": 87}, {"time": 1951, "pitch": 57, "duration": 3, "velocity": 92}, {"time": 1951, "pitch": 66, "duration": 11, "velocity": 90}, {"time": 1957, "pitch": 57, "duration": 6, "velocity": 64}, {"time": 1963, "pitch": 57, "duration": 6, "velocity": 92}, {"time": 1963, "pitch": 67, "duration": 4, "velocity": 100}, {"time": 1969, "pitch": 69, "duration": 5, "velocity": 108}, {"time": 1975, "pitch": 43, "duration": 15, "velocity": 94}, {"time": 1975, "pitch": 62, "duration": 8, "velocity": 80}, {"time": 1975, "pitch": 67, "duration": 13, "velocity": 94}, {"time": 1975, "pitch": 71, "duration": 14, "velocity": 92}, {"time": 1981, "pitch": 50, "duration": 8, "velocity": 44}, {"time": 1987, "pitch": 62, "duration": 7, "velocity": 102}, {"time": 1993, "pitch": 67, "duration": 2, "velocity": 94}, {"time": 1999, "pitch": 45, "duration": 15, "velocity": 92}, {"time": 1999, "pitch": 57, "duration": 8, "velocity": 82}, {"time": 1999, "pitch": 60, "duration": 9, "velocity": 87}, {"time": 2005, "pitch": 52, "duration": 7, "velocity": 58}, {"time": 2011, "pitch": 57, "duration": 6, "velocity": 100}, {"time": 2011, "pitch": 60, "duration": 6, "velocity": 100}, {"time": 2011, "pitch": 67, "duration": 9, "velocity": 87}, {"time": 2017, "pitch": 45, "duration": 3, "velocity": 97}, {"time": 2023, "pitch": 47, "duration": 14, "velocity": 102}, {"time": 2023, "pitch": 57, "duration": 9, "velocity": 97}, {"time": 2023, "pitch": 62, "duration": 9, "velocity": 87}, {"time": 2029, "pitch": 54, "duration": 8, "velocity": 34}, {"time": 2035, "pitch": 57, "duration": 5, "velocity": 102}, {"time": 2035, "pitch": 62, "duration": 5, "velocity": 105}, {"time": 2035, "pitch": 66, "duration": 7, "velocity": 102}, {"time": 2041, "pitch": 47, "duration": 5, "velocity": 100}, {"time": 2047, "pitch": 52, "duration": 17, "velocity": 100}, {"time": 2047, "pitch": 59, "duration": 3, "velocity": 87}, {"time": 2047, "pitch": 64, "duration": 10, "velocity": 92}, {"time": 2053, "pitch": 59, "duration": 5, "velocity": 53}, {"time": 2059, "pitch": 59, "duration": 2, "velocity": 92}, {"time": 2059, "pitch": 64, "duration": 7, "velocity": 100}, {"time": 2059, "pitch": 68, "duration": 8, "velocity": 77}, {"time": 2065, "pitch": 59, "duration": 1, "velocity": 57}, {"time": 2071, "pitch": 45, "duration": 20, "velocity": 97}, {"time": 2071, "pitch": 57, "duration": 9, "velocity": 80}, {"time": 2071, "pitch": 60, "duration": 9, "velocity": 89}, {"time": 2071, "pitch": 64, "duration": 9, "velocity": 89}, {"time": 2077, "pitch": 52, "duration": 18, "velocity": 50}, {"time": 2083, "pitch": 57, "duration": 3, "velocity": 87}, {"time": 2083, "pitch": 60, "duration": 11, "velocity": 92}, {"time": 2083, "pitch": 64, "duration": 11, "velocity": 97}, {"time": 2089, "pitch": 57, "duration": 3, "velocity": 76}, {"time": 2095, "pitch": 44, "duration": 23, "velocity": 65}, {"time": 2095, "pitch": 56, "duration": 11, "velocity": 79}, {"time": 2095, "pitch": 60, "duration": 8, "velocity": 102}, {"time": 2095, "pitch": 63, "duration": 1, "velocity": 57}, {"time": 2095, "pitch": 64, "duration": 9, "velocity": 82}, {"time": 2101, "pitch": 52, "duration": 21, "velocity": 71}, {"time": 2107, "pitch": 56, "duration": 1, "velocity": 41}, {"time": 2107, "pitch": 60, "duration": 9, "velocity": 97}, {"time": 2107, "pitch": 64, "duration": 9, "velocity": 100}, {"time": 2113, "pitch": 56, "duration": 3, "velocity": 77}, {"time": 2119, "pitch": 43, "duration": 16, "velocity": 84}, {"time": 2119, "pitch": 55, "duration": 10, "velocity": 82}, {"time": 2119, "pitch": 60, "duration": 10, "velocity": 92}, {"time": 2119, "pitch": 64, "duration": 10, "velocity": 76}, {"time": 2125, "pitch": 52, "duration": 10, "velocity": 67}, {"time": 2131, "pitch": 55, "duration": 5, "velocity": 97}, {"time": 2131, "pitch": 60, "duration": 5, "velocity": 108}, {"time": 2131, "pitch": 64, "duration": 6, "velocity": 100}, {"time": 2137, "pitch": 43, "duration": 4, "velocity": 100}, {"time": 2143, "pitch": 50, "duration": 16, "velocity": 60}, {"time": 2143, "pitch": 57, "duration": 3, "velocity": 64}, {"time": 2143, "pitch": 62, "duration": 10, "velocity": 87}, {"time": 2149, "pitch": 57, "duration": 4, "velocity": 67}, {"time": 2155, "pitch": 57, "duration": 10, "velocity": 105}, {"time": 2155, "pitch": 62, "duration": 10, "velocity": 111}, {"time": 2155, "pitch": 66, "duration": 10, "velocity": 105}, {"time": 2161, "pitch": 50, "duration": 4, "velocity": 17}, {"time": 2167, "pitch": 43, "duration": 14, "velocity": 102}, {"time": 2167, "pitch": 55, "duration": 9, "velocity": 71}, {"time": 2167, "pitch": 59, "duration": 9, "velocity": 84}, {"time": 2167, "pitch": 62, "duration": 9, "velocity": 78}, {"time": 2173, "pitch": 50, "duration": 9, "velocity": 58}, {"time": 2179, "pitch": 55, "duration": 4, "velocity": 94}, {"time": 2179, "pitch": 59, "duration": 5, "velocity": 105}, {"time": 2179, "pitch": 62, "duration": 5, "velocity": 89}, {"time": 2185, "pitch": 43, "duration": 3, "velocity": 80}, {"time": 2191, "pitch": 45, "duration": 15, "velocity": 100}, {"time": 2191, "pitch": 57, "duration": 8, "velocity": 87}, {"time": 2191, "pitch": 60, "duration": 8, "velocity": 84}, {"time": 2197, "pitch": 52, "duration": 9, "velocity": 48}, {"time": 2203, "pitch": 57, "duration": 4, "velocity": 102}, {"time": 2203, "pitch": 60, "duration": 4, "velocity": 108}, {"time": 2203, "pitch": 64, "duration": 5, "velocity": 100}, {"time": 2209, "pitch": 45, "duration": 4, "velocity": 92}, {"time": 2215, "pitch": 47, "duration": 15, "velocity": 100}, {"time": 2215, "pitch": 59, "duration": 10, "velocity": 89}, {"time": 2215, "pitch": 62, "duration": 10, "velocity": 87}, {"time": 2221, "pitch": 54, "duration": 11, "velocity": 40}, {"time": 2227, "pitch": 59, "duration": 7, "velocity": 108}, {"time": 2227, "pitch": 62, "duration": 6, "velocity": 108}, {"time": 2233, "pitch": 47, "duration": 7, "velocity": 94}, {"time": 2239, "pitch": 51, "duration": 9, "velocity": 112}, {"time": 2239, "pitch": 59, "duration": 9, "velocity": 94}, {"time": 2239, "pitch": 63, "duration": 10, "velocity": 90}, {"time": 2245, "pitch": 54, "duration": 12, "velocity": 50}, {"time": 2251, "pitch": 59, "duration": 9, "velocity": 100}, {"time": 2251, "pitch": 63, "duration": 9, "velocity": 96}, {"time": 2251, "pitch": 66, "duration": 10, "velocity": 87}, {"time": 2251, "pitch": 69, "duration": 11, "velocity": 89}, {"time": 2257, "pitch": 51, "duration": 5, "velocity": 26}, {"time": 2263, "pitch": 52, "duration": 19, "velocity": 105}, {"time": 2263, "pitch": 59, "duration": 4, "velocity": 87}, {"time": 2263, "pitch": 64, "duration": 10, "velocity": 89}, {"time": 2269, "pitch": 59, "duration": 5, "velocity": 94}, {"time": 2275, "pitch": 59, "duration": 3, "velocity": 97}, {"time": 2275, "pitch": 64, "duration": 7, "velocity": 108}, {"time": 2275, "pitch": 67, "duration": 9, "velocity": 102}, {"time": 2281, "pitch": 59, "duration": 3, "velocity": 100}, {"time": 2287, "pitch": 50, "duration": 21, "velocity": 92}, {"time": 2287, "pitch": 62, "duration": 9, "velocity": 92}, {"time": 2287, "pitch": 66, "duration": 9, "velocity": 87}, {"time": 2293, "pitch": 57, "duration": 4, "velocity": 53}, {"time": 2299, "pitch": 57, "duration": 3, "velocity": 94}, {"time": 2299, "pitch": 62, "duration": 7, "velocity": 100}, {"time": 2299, "pitch": 66, "duration": 8, "velocity": 93}, {"time": 2305, "pitch": 57, "duration": 2, "velocity": 84}, {"time": 2311, "pitch": 45, "duration": 16, "velocity": 97}, {"time": 2311, "pitch": 57, "duration": 9, "velocity": 87}, {"time": 2311, "pitch": 61, "duration": 9, "velocity": 87}, {"time": 2317, "pitch": 52, "duration": 9, "velocity": 64}, {"time": 2323, "pitch": 57, "duration": 11, "velocity": 100}, {"time": 2323, "pitch": 61, "duration": 11, "velocity": 105}, {"time": 2323, "pitch": 64, "duration": 10, "velocity": 97}, {"time": 2329, "pitch": 45, "duration": 27, "velocity": 82}, {"time": 2335, "pitch": 57, "duration": 19, "velocity": 100}, {"time": 2335, "pitch": 61, "duration": 19, "velocity": 90}, {"time": 2335, "pitch": 64, "duration": 20, "velocity": 94}, {"time": 2359, "pitch": 48, "duration": 19, "velocity": 89}, {"time": 2359, "pitch": 64, "duration": 14, "velocity": 89}, {"time": 2365, "pitch": 55, "duration": 13, "velocity": 42}, {"time": 2371, "pitch": 60, "duration": 5, "velocity": 100}, {"time": 2383, "pitch": 47, "duration": 19, "velocity": 87}, {"time": 2383, "pitch": 62, "duration": 19, "velocity": 89}, {"time": 2389, "pitch": 54, "duration": 10, "velocity": 19}, {"time": 2395, "pitch": 59, "duration": 7, "velocity": 87}, {"time": 2401, "pitch": 66, "duration": 3, "velocity": 96}, {"time": 2407, "pitch": 45, "duration": 19, "velocity": 94}, {"time": 2407, "pitch": 55, "duration": 9, "velocity": 73}, {"time": 2407, "pitch": 60, "duration": 13, "velocity": 82}, {"time": 2413, "pitch": 52, "duration": 13, "velocity": 40}, {"time": 2419, "pitch": 55, "duration": 7, "velocity": 82}, {"time": 2425, "pitch": 60, "duration": 4, "velocity": 92}, {"time": 2431, "pitch": 50, "duration": 15, "velocity": 76}, {"time": 2431, "pitch": 57, "duration": 4, "velocity": 40}, {"time": 2431, "pitch": 62, "duration": 13, "velocity": 76}, {"time": 2437, "pitch": 57, "duration": 7, "velocity": 66}, {"time": 2443, "pitch": 66, "duration": 4, "velocity": 99}, {"time": 2455, "pitch": 48, "duration": 22, "velocity": 89}, {"time": 2455, "pitch": 64, "duration": 7, "velocity": 87}, {"time": 2458, "pitch": 55, "duration": 7, "velocity": 53}, {"time": 2461, "pitch": 60, "duration": 4, "velocity": 82}, {"time": 2464, "pitch": 62, "duration": 7, "velocity": 102}, {"time": 2467, "pitch": 55, "duration": 4, "velocity": 57}, {"time": 2470, "pitch": 64, "duration": 7, "velocity": 102}, {"time": 2473, "pitch": 55, "duration": 4, "velocity": 60}, {"time": 2476, "pitch": 60, "duration": 2, "velocity": 45}, {"time": 2479, "pitch": 48, "duration": 18, "velocity": 92}, {"time": 2479, "pitch": 60, "duration": 3, "velocity": 84}, {"time": 2479, "pitch": 64, "duration": 4, "velocity": 84}, {"time": 2482, "pitch": 55, "duration": 7, "velocity": 62}, {"time": 2485, "pitch": 60, "duration": 1, "velocity": 50}, {"time": 2488, "pitch": 60, "duration": 4, "velocity": 97}, {"time": 2488, "pitch": 64, "duration": 4, "velocity": 100}, {"time": 2488, "pitch": 67, "duration": 4, "velocity": 94}, {"time": 2491, "pitch": 55, "duration": 6, "velocity": 76}, {"time": 2494, "pitch": 60, "duration": 3, "velocity": 92}, {"time": 2494, "pitch": 64, "duration": 3, "velocity": 97}, {"time": 2494, "pitch": 67, "duration": 3, "velocity": 100}, {"time": 2503, "pitch": 47, "duration": 22, "velocity": 100}, {"time": 2503, "pitch": 59, "duration": 4, "velocity": 94}, {"time": 2503, "pitch": 63, "duration": 7, "velocity": 79}, {"time": 2506, "pitch": 54, "duration": 7, "velocity": 54}, {"time": 2509, "pitch": 59, "duration": 2, "velocity": 84}, {"time": 2512, "pitch": 59, "duration": 4, "velocity": 105}, {"time": 2512, "pitch": 63, "duration": 4, "velocity": 99}, {"time": 2512, "pitch": 66, "duration": 4, "velocity": 93}, {"time": 2515, "pitch": 54, "duration": 11, "velocity": 48}, {"time": 2518, "pitch": 59, "duration": 3, "velocity": 94}, {"time": 2518, "pitch": 63, "duration": 4, "velocity": 99}, {"time": 2524, "pitch": 59, "duration": 2, "velocity": 87}, {"time": 2527, "pitch": 47, "duration": 9, "velocity": 102}, {"time": 2527, "pitch": 59, "duration": 5, "velocity": 111}, {"time": 2527, "pitch": 66, "duration": 1, "velocity": 40}, {"time": 2530, "pitch": 51, "duration": 4, "velocity": 79}, {"time": 2533, "pitch": 54, "duration": 3, "velocity": 68}, {"time": 2536, "pitch": 49, "duration": 5, "velocity": 93}, {"time": 2536, "pitch": 64, "duration": 6, "velocity": 114}, {"time": 2542, "pitch": 51, "duration": 8, "velocity": 102}, {"time": 2542, "pitch": 66, "duration": 9, "velocity": 109}, {"time": 2545, "pitch": 54, "duration": 6, "velocity": 63}, {"time": 2548, "pitch": 59, "duration": 3, "velocity": 66}, {"time": 2551, "pitch": 52, "duration": 22, "velocity": 89}, {"time": 2551, "pitch": 59, "duration": 3, "velocity": 87}, {"time": 2551, "pitch": 64, "duration": 8, "velocity": 94}, {"time": 2557, "pitch": 59, "duration": 2, "velocity": 60}, {"time": 2560, "pitch": 67, "duration": 6, "velocity": 100}, {"time": 2566, "pitch": 64, "duration": 4, "velocity": 100}, {"time": 2569, "pitch": 59, "duration": 6, "velocity": 84}, {"time": 2572, "pitch": 64, "duration": 3, "velocity": 84}, {"time": 2575, "pitch": 50, "duration": 21, "velocity": 108}, {"time": 2578, "pitch": 57, "duration": 5, "velocity": 100}, {"time": 2581, "pitch": 62, "duration": 2, "velocity": 87}, {"time": 2584, "pitch": 57, "duration": 1, "velocity": 66}, {"time": 2584, "pitch": 66, "duration": 4, "velocity": 105}, {"time": 2590, "pitch": 57, "duration": 3, "velocity": 100}, {"time": 2590, "pitch": 62, "duration": 4, "velocity": 105}, {"time": 2596, "pitch": 57, "duration": 1, "velocity": 84}, {"time": 2599, "pitch": 48, "duration": 24, "velocity": 94}, {"time": 2599, "pitch": 60, "duration": 3, "velocity": 80}, {"time": 2599, "pitch": 64, "duration": 6, "velocity": 97}, {"time": 2602, "pitch": 55, "duration": 7, "velocity": 62}, {"time": 2608, "pitch": 60, "duration": 3, "velocity": 100}, {"time": 2608, "pitch": 67, "duration": 3, "velocity": 100}, {"time": 2611, "pitch": 55, "duration": 6, "velocity": 64}, {"time": 2617, "pitch": 59, "duration": 3, "velocity": 102}, {"time": 2620, "pitch": 57, "duration": 3, "velocity": 108}, {"time": 2623, "pitch": 40, "duration": 20, "velocity": 97}, {"time": 2623, "pitch": 52, "duration": 20, "velocity": 97}, {"time": 2623, "pitch": 56, "duration": 9, "velocity": 79}, {"time": 2623, "pitch": 59, "duration": 4, "velocity": 73}, {"time": 2623, "pitch": 64, "duration": 5, "velocity": 100}, {"time": 2629, "pitch": 59, "duration": 2, "velocity": 87}, {"time": 2632, "pitch": 56, "duration": 5, "velocity": 77}, {"time": 2632, "pitch": 59, "duration": 10, "velocity": 105}, {"time": 2632, "pitch": 64, "duration": 10, "velocity": 102}, {"time": 2641, "pitch": 56, "duration": 4, "velocity": 102}, {"time": 2644, "pitch": 64, "duration": 14, "velocity": 97}, {"time": 2647, "pitch": 45, "duration": 23, "velocity": 97}, {"time": 2650, "pitch": 52, "duration": 7, "velocity": 62}, {"time": 2653, "pitch": 57, "duration": 4, "velocity": 92}, {"time": 2656, "pitch": 60, "duration": 7, "velocity": 105}, {"time": 2659, "pitch": 52, "duration": 10, "velocity": 89}, {"time": 2662, "pitch": 57, "duration": 4, "velocity": 105}, {"time": 2662, "pitch": 64, "duration": 1, "velocity": 25}, {"time": 2665, "pitch": 60, "duration": 4, "velocity": 108}, {"time": 2668, "pitch": 57, "duration": 2, "velocity": 84}, {"time": 2671, "pitch": 50, "duration": 23, "velocity": 102}, {"time": 2671, "pitch": 62, "duration": 7, "velocity": 102}, {"time": 2677, "pitch": 57, "duration": 2, "velocity": 87}, {"time": 2680, "pitch": 57, "duration": 5, "velocity": 102}, {"time": 2680, "pitch": 62, "duration": 5, "velocity": 100}, {"time": 2680, "pitch": 66, "duration": 6, "velocity": 99}, {"time": 2686, "pitch": 57, "duration": 1, "velocity": 73}, {"time": 2686, "pitch": 62, "duration": 7, "velocity": 97}, {"time": 2692, "pitch": 57, "duration": 1, "velocity": 89}, {"time": 2695, "pitch": 47, "duration": 23, "velocity": 100}, {"time": 2695, "pitch": 59, "duration": 4, "velocity": 94}, {"time": 2695, "pitch": 63, "duration": 7, "velocity": 85}, {"time": 2698, "pitch": 51, "duration": 4, "velocity": 93}, {"time": 2701, "pitch": 54, "duration": 4, "velocity": 90}, {"time": 2704, "pitch": 59, "duration": 4, "velocity": 120}, {"time": 2704, "pitch": 66, "duration": 5, "velocity": 99}, {"time": 2707, "pitch": 54, "duration": 4, "velocity": 79}, {"time": 2710, "pitch": 59, "duration": 2, "velocity": 111}, {"time": 2710, "pitch": 63, "duration": 6, "velocity": 116}, {"time": 2716, "pitch": 59, "duration": 2, "velocity": 100}, {"time": 2719, "pitch": 52, "duration": 11, "velocity": 94}, {"time": 2719, "pitch": 59, "duration": 2, "velocity": 100}, {"time": 2719, "pitch": 67, "duration": 9, "velocity": 100}, {"time": 2725, "pitch": 59, "duration": 2, "velocity": 92}, {"time": 2728, "pitch": 59, "duration": 4, "velocity": 92}, {"time": 2728, "pitch": 64, "duration": 5, "velocity": 105}, {"time": 2731, "pitch": 52, "duration": 10, "velocity": 84}, {"time": 2734, "pitch": 59, "duration": 4, "velocity": 108}, {"time": 2737, "pitch": 64, "duration": 7, "velocity": 87}, {"time": 2740, "pitch": 59, "duration": 4, "velocity": 89}, {"time": 2743, "pitch": 51, "duration": 22, "velocity": 99}, {"time": 2743, "pitch": 63, "duration": 4, "velocity": 74}, {"time": 2743, "pitch": 70, "duration": 7, "velocity": 57}, {"time": 2746, "pitch": 58, "duration": 8, "velocity": 82}, {"time": 2749, "pitch": 63, "duration": 2, "velocity": 85}, {"time": 2752, "pitch": 63, "duration": 8, "velocity": 102}, {"time": 2752, "pitch": 70, "duration": 6, "velocity": 87}, {"time": 2755, "pitch": 58, "duration": 11, "velocity": 59}, {"time": 2761, "pitch": 67, "duration": 2, "velocity": 111}, {"time": 2764, "pitch": 63, "duration": 6, "velocity": 102}, {"time": 2764, "pitch": 67, "duration": 6, "velocity": 3}, {"time": 2764, "pitch": 70, "duration": 1, "velocity": 23}, {"time": 2767, "pitch": 51, "duration": 11, "velocity": 102}, {"time": 2770, "pitch": 58, "duration": 8, "velocity": 50}, {"time": 2773, "pitch": 63, "duration": 2, "velocity": 87}, {"time": 2776, "pitch": 63, "duration": 4, "velocity": 102}, {"time": 2776, "pitch": 67, "duration": 4, "velocity": 102}, {"time": 2776, "pitch": 70, "duration": 4, "velocity": 85}, {"time": 2779, "pitch": 58, "duration": 6, "velocity": 85}, {"time": 2782, "pitch": 63, "duration": 3, "velocity": 96}, {"time": 2782, "pitch": 67, "duration": 3, "velocity": 102}, {"time": 2782, "pitch": 70, "duration": 3, "velocity": 90}, {"time": 2785, "pitch": 51, "duration": 1, "velocity": 38}, {"time": 2791, "pitch": 50, "duration": 20, "velocity": 102}, {"time": 2791, "pitch": 62, "duration": 4, "velocity": 94}, {"time": 2791, "pitch": 69, "duration": 7, "velocity": 102}, {"time": 2794, "pitch": 57, "duration": 8, "velocity": 87}, {"time": 2797, "pitch": 62, "duration": 2, "velocity": 89}, {"time": 2800, "pitch": 62, "duration": 4, "velocity": 102}, {"time": 2800, "pitch": 67, "duration": 4, "velocity": 111}, {"time": 2803, "pitch": 57, "duration": 4, "velocity": 97}, {"time": 2806, "pitch": 62, "duration": 3, "velocity": 100}, {"time": 2806, "pitch": 67, "duration": 5, "velocity": 105}, {"time": 2809, "pitch": 57, "duration": 2, "velocity": 43}, {"time": 2812, "pitch": 54, "duration": 1, "velocity": 30}, {"time": 2812, "pitch": 62, "duration": 2, "velocity": 53}, {"time": 2815, "pitch": 50, "duration": 10, "velocity": 108}, {"time": 2815, "pitch": 57, "duration": 10, "velocity": 111}, {"time": 2815, "pitch": 62, "duration": 8, "velocity": 92}, {"time": 2815, "pitch": 66, "duration": 11, "velocity": 109}, {"time": 2815, "pitch": 69, "duration": 11, "velocity": 105}, {"time": 2827, "pitch": 50, "duration": 12, "velocity": 102}, {"time": 2827, "pitch": 57, "duration": 5, "velocity": 108}, {"time": 2827, "pitch": 62, "duration": 8, "velocity": 92}, {"time": 2827, "pitch": 66, "duration": 10, "velocity": 102}, {"time": 2827, "pitch": 69, "duration": 11, "velocity": 100}, {"time": 2833, "pitch": 57, "duration": 5, "velocity": 71}, {"time": 2839, "pitch": 43, "duration": 15, "velocity": 94}, {"time": 2839, "pitch": 62, "duration": 8, "velocity": 80}, {"time": 2839, "pitch": 67, "duration": 13, "velocity": 94}, {"time": 2839, "pitch": 71, "duration": 14, "velocity": 92}, {"time": 2845, "pitch": 50, "duration": 8, "velocity": 44}, {"time": 2851, "pitch": 62, "duration": 7, "velocity": 102}, {"time": 2857, "pitch": 67, "duration": 2, "velocity": 94}, {"time": 2863, "pitch": 45, "duration": 15, "velocity": 92}, {"time": 2863, "pitch": 57, "duration": 8, "velocity": 82}, {"time": 2863, "pitch": 60, "duration": 9, "velocity": 87}, {"time": 2869, "pitch": 52, "duration": 7, "velocity": 58}, {"time": 2875, "pitch": 57, "duration": 6, "velocity": 100}, {"time": 2875, "pitch": 60, "duration": 6, "velocity": 100}, {"time": 2875, "pitch": 67, "duration": 9, "velocity": 87}, {"time": 2881, "pitch": 45, "duration": 3, "velocity": 97}, {"time": 2887, "pitch": 47, "duration": 14, "velocity": 102}, {"time": 2887, "pitch": 57, "duration": 9, "velocity": 97}, {"time": 2887, "pitch": 62, "duration": 9, "velocity": 87}, {"time": 2893, "pitch": 54, "duration": 8, "velocity": 34}, {"time": 2899, "pitch": 57, "duration": 5, "velocity": 102}, {"time": 2899, "pitch": 62, "duration": 5, "velocity": 105}, {"time": 2899, "pitch": 66, "duration": 7, "velocity": 102}, {"time": 2905, "pitch": 47, "duration": 5, "velocity": 100}, {"time": 2911, "pitch": 52, "duration": 17, "velocity": 100}, {"time": 2911, "pitch": 59, "duration": 3, "velocity": 87}, {"time": 2911, "pitch": 64, "duration": 10, "velocity": 92}, {"time": 2917, "pitch": 59, "duration": 5, "velocity": 53}, {"time": 2923, "pitch": 59, "duration": 2, "velocity": 92}, {"time": 2923, "pitch": 64, "duration": 7, "velocity": 100}, {"time": 2923, "pitch": 68, "duration": 8, "velocity": 77}, {"time": 2929, "pitch": 59, "duration": 1, "velocity": 57}, {"time": 2935, "pitch": 45, "duration": 20, "velocity": 97}, {"time": 2935, "pitch": 57, "duration": 9, "velocity": 80}, {"time": 2935, "pitch": 60, "duration": 9, "velocity": 89}, {"time": 2935, "pitch": 64, "duration": 9, "velocity": 89}, {"time": 2941, "pitch": 52, "duration": 18, "velocity": 50}, {"time": 2947, "pitch": 57, "duration": 3, "velocity": 87}, {"time": 2947, "pitch": 60, "duration": 11, "velocity": 92}, {"time": 2947, "pitch": 64, "duration": 11, "velocity": 97}, {"time": 2953, "pitch": 57, "duration": 3, "velocity": 76}, {"time": 2959, "pitch": 44, "duration": 23, "velocity": 65}, {"time": 2959, "pitch": 56, "duration": 11, "velocity": 79}, {"time": 2959, "pitch": 60, "duration": 8, "velocity": 102}, {"time": 2959, "pitch": 63, "duration": 1, "velocity": 57}, {"time": 2959, "pitch": 64, "duration": 9, "velocity": 82}, {"time": 2965, "pitch": 52, "duration": 21, "velocity": 71}, {"time": 2971, "pitch": 56, "duration": 1, "velocity": 41}, {"time": 2971, "pitch": 60, "duration": 9, "velocity": 97}, {"time": 2971, "pitch": 64, "duration": 9, "velocity": 100}, {"time": 2977, "pitch": 56, "duration": 3, "velocity": 77}, {"time": 2983, "pitch": 43, "duration": 16, "velocity": 84}, {"time": 2983, "pitch": 55, "duration": 10, "velocity": 82}, {"time": 2983, "pitch": 60, "duration": 10, "velocity": 92}, {"time": 2983, "pitch": 64, "duration": 10, "velocity": 76}, {"time": 2989, "pitch": 52, "duration": 10, "velocity": 67}, {"time": 2995, "pitch": 55, "duration": 5, "velocity": 97}, {"time": 2995, "pitch": 60, "duration": 5, "velocity": 108}, {"time": 2995, "pitch": 64, "duration": 6, "velocity": 100}, {"time": 3001, "pitch": 43, "duration": 4, "velocity": 100}, {"time": 3007, "pitch": 50, "duration": 16, "velocity": 60}, {"time": 3007, "pitch": 57, "duration": 3, "velocity": 64}, {"time": 3007, "pitch": 62, "duration": 10, "velocity": 87}, {"time": 3013, "pitch": 57, "duration": 4, "velocity": 67}, {"time": 3019, "pitch": 57, "duration": 10, "velocity": 105}, {"time": 3019, "pitch": 62, "duration": 10, "velocity": 111}, {"time": 3019, "pitch": 66, "duration": 10, "velocity": 105}, {"time": 3025, "pitch": 50, "duration": 4, "velocity": 17}, {"time": 3031, "pitch": 43, "duration": 14, "velocity": 102}, {"time": 3031, "pitch": 55, "duration": 9, "velocity": 71}, {"time": 3031, "pitch": 59, "duration": 9, "velocity": 84}, {"time": 3031, "pitch": 62, "duration": 9, "velocity": 78}, {"time": 3037, "pitch": 50, "duration": 9, "velocity": 58}, {"time": 3043, "pitch": 55, "duration": 4, "velocity": 94}, {"time": 3043, "pitch": 59, "duration": 5, "velocity": 105}, {"time": 3043, "pitch": 62, "duration": 5, "velocity": 89}, {"time": 3049, "pitch": 43, "duration": 3, "velocity": 80}, {"time": 3055, "pitch": 45, "duration": 15, "velocity": 100}, {"time": 3055, "pitch": 57, "duration": 8, "velocity": 87}, {"time": 3055, "pitch": 60, "duration": 8, "velocity": 84}, {"time": 3061, "pitch": 52, "duration": 9, "velocity": 48}, {"time": 3067, "pitch": 57, "duration": 4, "velocity": 102}, {"time": 3067, "pitch": 60, "duration": 4, "velocity": 108}, {"time": 3067, "pitch": 64, "duration": 5, "velocity": 100}, {"time": 3073, "pitch": 45, "duration": 4, "velocity": 92}, {"time": 3079, "pitch": 47, "duration": 15, "velocity": 100}, {"time": 3079, "pitch": 59, "duration": 10, "velocity": 89}, {"time": 3079, "pitch": 62, "duration": 10, "velocity": 87}, {"time": 3085, "pitch": 54, "duration": 11, "velocity": 40}, {"time": 3091, "pitch": 59, "duration": 7, "velocity": 108}, {"time": 3091, "pitch": 62, "duration": 6, "velocity": 108}, {"time": 3097, "pitch": 47, "duration": 7, "velocity": 94}, {"time": 3103, "pitch": 51, "duration": 9, "velocity": 112}, {"time": 3103, "pitch": 59, "duration": 9, "velocity": 94}, {"time": 3103, "pitch": 63, "duration": 10, "velocity": 90}, {"time": 3109, "pitch": 54, "duration": 12, "velocity": 50}, {"time": 3115, "pitch": 59, "duration": 9, "velocity": 100}, {"time": 3115, "pitch": 63, "duration": 9, "velocity": 96}, {"time": 3115, "pitch": 66, "duration": 10, "velocity": 87}, {"time": 3115, "pitch": 69, "duration": 11, "velocity": 89}, {"time": 3121, "pitch": 51, "duration": 5, "velocity": 26}, {"time": 3127, "pitch": 52, "duration": 19, "velocity": 105}, {"time": 3127, "pitch": 59, "duration": 4, "velocity": 87}, {"time": 3127, "pitch": 64, "duration": 10, "velocity": 89}, {"time": 3133, "pitch": 59, "duration": 5, "velocity": 94}, {"time": 3139, "pitch": 59, "duration": 3, "velocity": 97}, {"time": 3139, "pitch": 64, "duration": 7, "velocity": 108}, {"time": 3139, "pitch": 67, "duration": 9, "velocity": 102}, {"time": 3145, "pitch": 59, "duration": 3, "velocity": 100}, {"time": 3151, "pitch": 50, "duration": 21, "velocity": 92}, {"time": 3151, "pitch": 62, "duration": 9, "velocity": 92}, {"time": 3151, "pitch": 66, "duration": 9, "velocity": 87}, {"time": 3157, "pitch": 57, "duration": 4, "velocity": 53}, {"time": 3163, "pitch": 57, "duration": 3, "velocity": 94}, {"time": 3163, "pitch": 62, "duration": 7, "velocity": 100}, {"time": 3163, "pitch": 66, "duration": 8, "velocity": 93}, {"time": 3169, "pitch": 57, "duration": 2, "velocity": 84}, {"time": 3175, "pitch": 45, "duration": 16, "velocity": 97}, {"time": 3175, "pitch": 57, "duration": 9, "velocity": 87}, {"time": 3175, "pitch": 61, "duration": 9, "velocity": 87}, {"time": 3181, "pitch": 52, "duration": 9, "velocity": 64}, {"time": 3187, "pitch": 57, "duration": 11, "velocity": 100}, {"time": 3187, "pitch": 61, "duration": 11, "velocity": 105}, {"time": 3187, "pitch": 64, "duration": 10, "velocity": 97}, {"time": 3193, "pitch": 45, "duration": 27, "velocity": 82}, {"time": 3199, "pitch": 57, "duration": 19, "velocity": 100}, {"time": 3199, "pitch": 61, "duration": 19, "velocity": 90}, {"time": 3199, "pitch": 64, "duration": 20, "velocity": 94}, {"time": 3223, "pitch": 48, "duration": 19, "velocity": 89}, {"time": 3223, "pitch": 64, "duration": 14, "velocity": 89}, {"time": 3229, "pitch": 55, "duration": 13, "velocity": 42}, {"time": 3235, "pitch": 60, "duration": 5, "velocity": 100}, {"time": 3247, "pitch": 47, "duration": 19, "velocity": 87}, {"time": 3247, "pitch": 62, "duration": 19, "velocity": 89}, {"time": 3253, "pitch": 54, "duration": 10, "velocity": 19}, {"time": 3259, "pitch": 59, "duration": 7, "velocity": 87}, {"time": 3265, "pitch": 66, "duration": 3, "velocity": 96}, {"time": 3271, "pitch": 45, "duration": 19, "velocity": 94}, {"time": 3271, "pitch": 55, "duration": 9, "velocity": 73}, {"time": 3271, "pitch": 60, "duration": 13, "velocity": 82}, {"time": 3277, "pitch": 52, "duration": 13, "velocity": 40}, {"time": 3283, "pitch": 55, "duration": 7, "velocity": 82}, {"time": 3289, "pitch": 60, "duration": 4, "velocity": 92}, {"time": 3295, "pitch": 50, "duration": 15, "velocity": 76}, {"time": 3295, "pitch": 57, "duration": 4, "velocity": 40}, {"time": 3295, "pitch": 62, "duration": 13, "velocity": 76}, {"time": 3301, "pitch": 57, "duration": 7, "velocity": 66}, {"time": 3307, "pitch": 66, "duration": 4, "velocity": 99}, {"time": 3319, "pitch": 52, "duration": 14, "velocity": 73}, {"time": 3319, "pitch": 67, "duration": 14, "velocity": 87}, {"time": 3325, "pitch": 59, "duration": 8, "velocity": 64}, {"time": 3331, "pitch": 64, "duration": 7, "velocity": 100}, {"time": 3337, "pitch": 71, "duration": 3, "velocity": 73}, {"time": 3343, "pitch": 45, "duration": 20, "velocity": 78}, {"time": 3343, "pitch": 57, "duration": 13, "velocity": 82}, {"time": 3343, "pitch": 61, "duration": 24, "velocity": 54}, {"time": 3349, "pitch": 64, "duration": 19, "velocity": 92}, {"time": 3355, "pitch": 69, "duration": 13, "velocity": 97}, {"time": 3361, "pitch": 57, "duration": 7, "velocity": 84}, {"time": 3367, "pitch": 48, "duration": 20, "velocity": 97}, {"time": 3367, "pitch": 60, "duration": 9, "velocity": 57}, {"time": 3367, "pitch": 64, "duration": 1, "velocity": 78}, {"time": 3373, "pitch": 55, "duration": 15, "velocity": 67}, {"time": 3379, "pitch": 60, "duration": 7, "velocity": 102}, {"time": 3385, "pitch": 67, "duration": 3, "velocity": 80}, {"time": 3391, "pitch": 47, "duration": 19, "velocity": 94}, {"time": 3391, "pitch": 59, "duration": 13, "velocity": 60}, {"time": 3391, "pitch": 62, "duration": 13, "velocity": 84}, {"time": 3397, "pitch": 54, "duration": 11, "velocity": 38}, {"time": 3403, "pitch": 66, "duration": 8, "velocity": 96}, {"time": 3409, "pitch": 59, "duration": 3, "velocity": 94}, {"time": 3415, "pitch": 45, "duration": 20, "velocity": 87}, {"time": 3415, "pitch": 57, "duration": 8, "velocity": 80}, {"time": 3415, "pitch": 60, "duration": 12, "velocity": 84}, {"time": 3421, "pitch": 52, "duration": 15, "velocity": 44}, {"time": 3427, "pitch": 57, "duration": 11, "velocity": 89}, {"time": 3433, "pitch": 60, "duration": 5, "velocity": 87}, {"time": 3439, "pitch": 50, "duration": 10, "velocity": 92}, {"time": 3439, "pitch": 62, "duration": 5, "velocity": 76}, {"time": 3445, "pitch": 57, "duration": 5, "velocity": 89}, {"time": 3451, "pitch": 66, "duration": 8, "velocity": 99}, {"time": 3457, "pitch": 62, "duration": 27, "velocity": 62}, {"time": 3463, "pitch": 54, "duration": 20, "velocity": 40}, {"time": 3463, "pitch": 57, "duration": 20, "velocity": 40}, {"time": 3463, "pitch": 66, "duration": 20, "velocity": 46}, {"time": 3463, "pitch": 69, "duration": 21, "velocity": 69}, {"time": 3487, "pitch": 43, "duration": 22, "velocity": 102}, {"time": 3493, "pitch": 50, "duration": 17, "velocity": 71}, {"time": 3499, "pitch": 55, "duration": 7, "velocity": 108}, {"time": 3505, "pitch": 59, "duration": 7, "velocity": 102}, {"time": 3511, "pitch": 45, "duration": 22, "velocity": 97}, {"time": 3511, "pitch": 55, "duration": 7, "velocity": 87}, {"time": 3511, "pitch": 60, "duration": 8, "velocity": 92}, {"time": 3517, "pitch": 52, "duration": 5, "velocity": 44}, {"time": 3523, "pitch": 50, "duration": 8, "velocity": 69}, {"time": 3523, "pitch": 57, "duration": 8, "velocity": 82}, {"time": 3523, "pitch": 62, "duration": 25, "velocity": 80}, {"time": 3535, "pitch": 43, "duration": 20, "velocity": 92}, {"time": 3541, "pitch": 50, "duration": 16, "velocity": 62}, {"time": 3547, "pitch": 55, "duration": 7, "velocity": 108}, {"time": 3553, "pitch": 59, "duration": 7, "velocity": 105}, {"time": 3559, "pitch": 45, "duration": 13, "velocity": 97}, {"time": 3559, "pitch": 55, "duration": 7, "velocity": 87}, {"time": 3559, "pitch": 60, "duration": 7, "velocity": 92}, {"time": 3565, "pitch": 52, "duration": 5, "velocity": 42}, {"time": 3571, "pitch": 50, "duration": 10, "velocity": 76}, {"time": 3571, "pitch": 57, "duration": 9, "velocity": 84}, {"time": 3571, "pitch": 62, "duration": 14, "velocity": 87}, {"time": 3584, "pitch": 43, "duration": 54, "velocity": 97}, {"time": 3586, "pitch": 50, "duration": 51, "velocity": 43}, {"time": 3589, "pitch": 55, "duration": 2, "velocity": 52}, {"time": 3591, "pitch": 57, "duration": 2, "velocity": 78}, {"time": 3594, "pitch": 59, "duration": 3, "velocity": 89}, {"time": 3596, "pitch": 62, "duration": 41, "velocity": 89}, {"time": 3600, "pitch": 67, "duration": 38, "velocity": 52}], "annotations": [{"time": 15, "annotation": {"number": 64, "value": 127}, "group": "control_change"}, {"time": 31, "annotation": {"number": 64, "value": 0}, "group": "control_change"}, {"time": 41, "annotation": {"number": 64, "value": 127}, "group": "control_change"}, {"time": 55, "annotation": {"number": 64, "value": 0}, "group": "control_change"}, {"time": 62, "annotation": {"number": 64, "value": 127}, "group": "control_change"}, {"time": 78, "annotation": {"number": 64, "value": 0}, "group": "control_change"}, {"time": 85, "annotation": {"number": 64, "value": 127}, "group": "control_change"}, {"time": 103, "annotation": {"number": 64, "value": 0}, "group": "control_change"}, {"time": 103, "annotation": {"number": 64, "value": 127}, "group": "control_change"}, {"time": 125, "annotation": {"number": 64, "value": 0}, "group": "control_change"}, {"time": 129, "annotation": {"number": 64, "value": 127}, "group": "control_change"}, {"time": 139, "annotation": {"number": 64, "value": 0}, "group": "control_change"}, {"time": 141, "annotation": {"number": 64, "value": 127}, "group": "control_change"}, {"time": 150, "annotation": {"number": 64, "value": 0}, "group": "control_change"}, {"time": 158, "annotation": {"number": 64, "value": 127}, "group": "control_change"}, {"time": 173, "annotation": {"number": 64, "value": 0}, "group": "control_change"}, {"time": 178, "annotation": {"number": 64, "value": 127}, "group": "control_change"}, {"time": 188, "annotation": {"number": 64, "value": 0}, "group": "control_change"}, {"time": 191, "annotation": {"number": 64, "value": 127}, "group": "control_change"}, {"time": 198, "annotation": {"number": 64, "value": 0}, "group": "control_change"}, {"time": 202, "annotation": {"number": 64, "value": 127}, "group": "control_change"}, {"time": 224, "annotation": {"number": 64, "value": 0}, "group": "control_change"}, {"time": 235, "annotation": {"number": 64, "value": 127}, "group": "control_change"}, {"time": 246, "annotation": {"number": 64, "value": 0}, "group": "control_change"}, {"time": 253, "annotation": {"number": 64, "value": 127}, "group": "control_change"}, {"time": 270, "annotation": {"number": 64, "value": 0}, "group": "control_change"}, {"time": 272, "annotation": {"number": 64, "value": 127}, "group": "control_change"}, {"time": 278, "annotation": {"number": 64, "value": 127}, "group": "control_change"}, {"time": 282, "annotation": {"number": 64, "value": 0}, "group": "control_change"}, {"time": 286, "annotation": {"number": 64, "value": 0}, "group": "control_change"}, {"time": 286, "annotation": {"number": 64, "value": 127}, "group": "control_change"}, {"time": 289, "annotation": {"number": 64, "value": 127}, "group": "control_change"}, {"time": 293, "annotation": {"number": 64, "value": 0}, "group": "control_change"}, {"time": 294, "annotation": {"number": 64, "value": 0}, "group": "control_change"}, {"time": 298, "annotation": {"number": 64, "value": 127}, "group": "control_change"}, {"time": 319, "annotation": {"number": 64, "value": 0}, "group": "control_change"}, {"time": 324, "annotation": {"number": 64, "value": 127}, "group": "control_change"}, {"time": 343, "annotation": {"number": 64, "value": 0}, "group": "control_change"}, {"time": 349, "annotation": {"number": 64, "value": 127}, "group": "control_change"}, {"time": 367, "annotation": {"number": 64, "value": 0}, "group": "control_change"}, {"time": 373, "annotation": {"number": 64, "value": 127}, "group": "control_change"}, {"time": 391, "annotation": {"number": 64, "value": 0}, "group": "control_change"}, {"time": 394, "annotation": {"number": 64, "value": 127}, "group": "control_change"}, {"time": 416, "annotation": {"number": 64, "value": 0}, "group": "control_change"}, {"time": 427, "annotation": {"number": 64, "value": 127}, "group": "control_change"}, {"time": 438, "annotation": {"number": 64, "value": 0}, "group": "control_change"}, {"time": 445, "annotation": {"number": 64, "value": 127}, "group": "control_change"}, {"time": 462, "annotation": {"number": 64, "value": 0}, "group": "control_change"}, {"time": 464, "annotation": {"number": 64, "value": 127}, "group": "control_change"}, {"time": 470, "annotation": {"number": 64, "value": 127}, "group": "control_change"}, {"time": 474, "annotation": {"number": 64, "value": 0}, "group": "control_change"}, {"time": 478, "annotation": {"number": 64, "value": 0}, "group": "control_change"}, {"time": 478, "annotation": {"number": 64, "value": 127}, "group": "control_change"}, {"time": 481, "annotation": {"number": 64, "value": 127}, "group": "control_change"}, {"time": 485, "annotation": {"number": 64, "value": 0}, "group": "control_change"}, {"time": 486, "annotation": {"number": 64, "value": 0}, "group": "control_change"}, {"time": 490, "annotation": {"number": 64, "value": 127}, "group": "control_change"}, {"time": 511, "annotation": {"number": 64, "value": 0}, "group": "control_change"}, {"time": 516, "annotation": {"number": 64, "value": 127}, "group": "control_change"}, {"time": 535, "annotation": {"number": 64, "value": 0}, "group": "control_change"}, {"time": 541, "annotation": {"number": 64, "value": 127}, "group": "control_change"}, {"time": 559, "annotation": {"number": 64, "value": 0}, "group": "control_change"}, {"time": 565, "annotation": {"number": 64, "value": 127}, "group": "control_change"}, {"time": 583, "annotation": {"number": 64, "value": 0}, "group": "control_change"}, {"time": 585, "annotation": {"number": 64, "value": 127}, "group": "control_change"}, {"time": 607, "annotation": {"number": 64, "value": 0}, "group": "control_change"}, {"time": 610, "annotation": {"number": 64, "value": 127}, "group": "control_change"}, {"time": 630, "annotation": {"number": 64, "value": 0}, "group": "control_change"}, {"time": 634, "annotation": {"number": 64, "value": 127}, "group": "control_change"}, {"time": 643, "annotation": {"number": 64, "value": 0}, "group": "control_change"}, {"time": 647, "annotation": {"number": 64, "value": 127}, "group": "control_change"}, {"time": 655, "annotation": {"number": 64, "value": 0}, "group": "control_change"}, {"time": 662, "annotation": {"number": 64, "value": 127}, "group": "control_change"}, {"time": 679, "annotation": {"number": 64, "value": 0}, "group": "control_change"}, {"time": 684, "annotation": {"number": 64, "value": 127}, "group": "control_change"}, {"time": 703, "annotation": {"number": 64, "value": 0}, "group": "control_change"}, {"time": 710, "annotation": {"number": 64, "value": 127}, "group": "control_change"}, {"time": 727, "annotation": {"number": 64, "value": 0}, "group": "control_change"}, {"time": 733, "annotation": {"number": 64, "value": 127}, "group": "control_change"}, {"time": 750, "annotation": {"number": 64, "value": 0}, "group": "control_change"}, {"time": 756, "annotation": {"number": 64, "value": 127}, "group": "control_change"}, {"time": 774, "annotation": {"number": 64, "value": 0}, "group": "control_change"}, {"time": 777, "annotation": {"number": 64, "value": 127}, "group": "control_change"}, {"time": 798, "annotation": {"number": 64, "value": 0}, "group": "control_change"}, {"time": 800, "annotation": {"number": 64, "value": 127}, "group": "control_change"}, {"time": 824, "annotation": {"number": 64, "value": 0}, "group": "control_change"}, {"time": 826, "annotation": {"number": 64, "value": 127}, "group": "control_change"}, {"time": 847, "annotation": {"number": 64, "value": 0}, "group": "control_change"}, {"time": 851, "annotation": {"number": 64, "value": 127}, "group": "control_change"}, {"time": 870, "annotation": {"number": 64, "value": 0}, "group": "control_change"}, {"time": 878, "annotation": {"number": 64, "value": 127}, "group": "control_change"}, {"time": 901, "annotation": {"number": 64, "value": 127}, "group": "control_change"}, {"time": 919, "annotation": {"number": 64, "value": 0}, "group": "control_change"}, {"time": 926, "annotation": {"number": 64, "value": 127}, "group": "control_change"}, {"time": 942, "annotation": {"number": 64, "value": 0}, "group": "control_change"}, {"time": 950, "annotation": {"number": 64, "value": 127}, "group": "control_change"}, {"time": 966, "annotation": {"number": 64, "value": 0}, "group": "control_change"}, {"time": 972, "annotation": {"number": 64, "value": 127}, "group": "control_change"}, {"time": 991, "annotation": {"number": 64, "value": 0}, "group": "control_change"}, {"time": 998, "annotation": {"number": 64, "value": 127}, "group": "control_change"}, {"time": 1014, "annotation": {"number": 64, "value": 0}, "group": "control_change"}, {"time": 1020, "annotation": {"number": 64, "value": 127}, "group": "control_change"}, {"time": 1037, "annotation": {"number": 64, "value": 0}, "group": "control_change"}, {"time": 1042, "annotation": {"number": 64, "value": 127}, "group": "control_change"}, {"time": 1062, "annotation": {"number": 64, "value": 0}, "group": "control_change"}, {"time": 1065, "annotation": {"number": 64, "value": 127}, "group": "control_change"}, {"time": 1087, "annotation": {"number": 64, "value": 0}, "group": "control_change"}, {"time": 1092, "annotation": {"number": 64, "value": 127}, "group": "control_change"}, {"time": 1111, "annotation": {"number": 64, "value": 0}, "group": "control_change"}, {"time": 1117, "annotation": {"number": 64, "value": 127}, "group": "control_change"}, {"time": 1137, "annotation": {"number": 64, "value": 127}, "group": "control_change"}, {"time": 1159, "annotation": {"number": 64, "value": 0}, "group": "control_change"}, {"time": 1195, "annotation": {"number": 64, "value": 127}, "group": "control_change"}, {"time": 1206, "annotation": {"number": 64, "value": 0}, "group": "control_change"}, {"time": 1213, "annotation": {"number": 64, "value": 127}, "group": "control_change"}, {"time": 1232, "annotation": {"number": 64, "value": 0}, "group": "control_change"}, {"time": 1238, "annotation": {"number": 64, "value": 127}, "group": "control_change"}, {"time": 1255, "annotation": {"number": 64, "value": 0}, "group": "control_change"}, {"time": 1262, "annotation": {"number": 64, "value": 127}, "group": "control_change"}, {"time": 1301, "annotation": {"number": 64, "value": 0}, "group": "control_change"}, {"time": 1305, "annotation": {"number": 64, "value": 127}, "group": "control_change"}, {"time": 1315, "annotation": {"number": 64, "value": 0}, "group": "control_change"}, {"time": 1317, "annotation": {"number": 64, "value": 127}, "group": "control_change"}, {"time": 1326, "annotation": {"number": 64, "value": 0}, "group": "control_change"}, {"time": 1334, "annotation": {"number": 64, "value": 127}, "group": "control_change"}, {"time": 1349, "annotation": {"number": 64, "value": 0}, "group": "control_change"}, {"time": 1354, "annotation": {"number": 64, "value": 127}, "group": "control_change"}, {"time": 1364, "annotation": {"number": 64, "value": 0}, "group": "control_change"}, {"time": 1367, "annotation": {"number": 64, "value": 127}, "group": "control_change"}, {"time": 1374, "annotation": {"number": 64, "value": 0}, "group": "control_change"}, {"time": 1378, "annotation": {"number": 64, "value": 127}, "group": "control_change"}, {"time": 1400, "annotation": {"number": 64, "value": 0}, "group": "control_change"}, {"time": 1411, "annotation": {"number": 64, "value": 127}, "group": "control_change"}, {"time": 1422, "annotation": {"number": 64, "value": 0}, "group": "control_change"}, {"time": 1429, "annotation": {"number": 64, "value": 127}, "group": "control_change"}, {"time": 1446, "annotation": {"number": 64, "value": 0}, "group": "control_change"}, {"time": 1448, "annotation": {"number": 64, "value": 127}, "group": "control_change"}, {"time": 1454, "annotation": {"number": 64, "value": 127}, "group": "control_change"}, {"time": 1458, "annotation": {"number": 64, "value": 0}, "group": "control_change"}, {"time": 1462, "annotation": {"number": 64, "value": 0}, "group": "control_change"}, {"time": 1462, "annotation": {"number": 64, "value": 127}, "group": "control_change"}, {"time": 1465, "annotation": {"number": 64, "value": 127}, "group": "control_change"}, {"time": 1469, "annotation": {"number": 64, "value": 0}, "group": "control_change"}, {"time": 1470, "annotation": {"number": 64, "value": 0}, "group": "control_change"}, {"time": 1474, "annotation": {"number": 64, "value": 127}, "group": "control_change"}, {"time": 1495, "annotation": {"number": 64, "value": 0}, "group": "control_change"}, {"time": 1500, "annotation": {"number": 64, "value": 127}, "group": "control_change"}, {"time": 1519, "annotation": {"number": 64, "value": 0}, "group": "control_change"}, {"time": 1525, "annotation": {"number": 64, "value": 127}, "group": "control_change"}, {"time": 1543, "annotation": {"number": 64, "value": 0}, "group": "control_change"}, {"time": 1549, "annotation": {"number": 64, "value": 127}, "group": "control_change"}, {"time": 1567, "annotation": {"number": 64, "value": 0}, "group": "control_change"}, {"time": 1570, "annotation": {"number": 64, "value": 127}, "group": "control_change"}, {"time": 1592, "annotation": {"number": 64, "value": 0}, "group": "control_change"}, {"time": 1603, "annotation": {"number": 64, "value": 127}, "group": "control_change"}, {"time": 1614, "annotation": {"number": 64, "value": 0}, "group": "control_change"}, {"time": 1621, "annotation": {"number": 64, "value": 127}, "group": "control_change"}, {"time": 1638, "annotation": {"number": 64, "value": 0}, "group": "control_change"}, {"time": 1640, "annotation": {"number": 64, "value": 127}, "group": "control_change"}, {"time": 1646, "annotation": {"number": 64, "value": 127}, "group": "control_change"}, {"time": 1650, "annotation": {"number": 64, "value": 0}, "group": "control_change"}, {"time": 1654, "annotation": {"number": 64, "value": 0}, "group": "control_change"}, {"time": 1654, "annotation": {"number": 64, "value": 127}, "group": "control_change"}, {"time": 1657, "annotation": {"number": 64, "value": 127}, "group": "control_change"}, {"time": 1661, "annotation": {"number": 64, "value": 0}, "group": "control_change"}, {"time": 1662, "annotation": {"number": 64, "value": 0}, "group": "control_change"}, {"time": 1666, "annotation": {"number": 64, "value": 127}, "group": "control_change"}, {"time": 1687, "annotation": {"number": 64, "value": 0}, "group": "control_change"}, {"time": 1692, "annotation": {"number": 64, "value": 127}, "group": "control_change"}, {"time": 1711, "annotation": {"number": 64, "value": 0}, "group": "control_change"}, {"time": 1717, "annotation": {"number": 64, "value": 127}, "group": "control_change"}, {"time": 1735, "annotation": {"number": 64, "value": 0}, "group": "control_change"}, {"time": 1741, "annotation": {"number": 64, "value": 127}, "group": "control_change"}, {"time": 1759, "annotation": {"number": 64, "value": 0}, "group": "control_change"}, {"time": 1761, "annotation": {"number": 64, "value": 127}, "group": "control_change"}, {"time": 1783, "annotation": {"number": 64, "value": 0}, "group": "control_change"}, {"time": 1786, "annotation": {"number": 64, "value": 127}, "group": "control_change"}, {"time": 1806, "annotation": {"number": 64, "value": 0}, "group": "control_change"}, {"time": 1810, "annotation": {"number": 64, "value": 127}, "group": "control_change"}, {"time": 1819, "annotation": {"number": 64, "value": 0}, "group": "control_change"}, {"time": 1823, "annotation": {"number": 64, "value": 127}, "group": "control_change"}, {"time": 1831, "annotation": {"number": 64, "value": 0}, "group": "control_change"}, {"time": 1838, "annotation": {"number": 64, "value": 127}, "group": "control_change"}, {"time": 1855, "annotation": {"number": 64, "value": 0}, "group": "control_change"}, {"time": 1860, "annotation": {"number": 64, "value": 127}, "group": "control_change"}, {"time": 1879, "annotation": {"number": 64, "value": 0}, "group": "control_change"}, {"time": 1886, "annotation": {"number": 64, "value": 127}, "group": "control_change"}, {"time": 1903, "annotation": {"number": 64, "value": 0}, "group": "control_change"}, {"time": 1909, "annotation": {"number": 64, "value": 127}, "group": "control_change"}, {"time": 1926, "annotation": {"number": 64, "value": 0}, "group": "control_change"}, {"time": 1932, "annotation": {"number": 64, "value": 127}, "group": "control_change"}, {"time": 1950, "annotation": {"number": 64, "value": 0}, "group": "control_change"}, {"time": 1953, "annotation": {"number": 64, "value": 127}, "group": "control_change"}, {"time": 1974, "annotation": {"number": 64, "value": 0}, "group": "control_change"}, {"time": 1976, "annotation": {"number": 64, "value": 127}, "group": "control_change"}, {"time": 2000, "annotation": {"number": 64, "value": 0}, "group": "control_change"}, {"time": 2002, "annotation": {"number": 64, "value": 127}, "group": "control_change"}, {"time": 2023, "annotation": {"number": 64, "value": 0}, "group": "control_change"}, {"time": 2027, "annotation": {"number": 64, "value": 127}, "group": "control_change"}, {"time": 2046, "annotation": {"number": 64, "value": 0}, "group": "control_change"}, {"time": 2054, "annotation": {"number": 64, "value": 127}, "group": "control_change"}, {"time": 2077, "annotation": {"number": 64, "value": 127}, "group": "control_change"}, {"time": 2095, "annotation": {"number": 64, "value": 0}, "group": "control_change"}, {"time": 2102, "annotation": {"number": 64, "value": 127}, "group": "control_change"}, {"time": 2118, "annotation": {"number": 64, "value": 0}, "group": "control_change"}, {"time": 2126, "annotation": {"number": 64, "value": 127}, "group": "control_change"}, {"time": 2142, "annotation": {"number": 64, "value": 0}, "group": "control_change"}, {"time": 2148, "annotation": {"number": 64, "value": 127}, "group": "control_change"}, {"time": 2167, "annotation": {"number": 64, "value": 0}, "group": "control_change"}, {"time": 2174, "annotation": {"number": 64, "value": 127}, "group": "control_change"}, {"time": 2190, "annotation": {"number": 64, "value": 0}, "group": "control_change"}, {"time": 2196, "annotation": {"number": 64, "value": 127}, "group": "control_change"}, {"time": 2213, "annotation": {"number": 64, "value": 0}, "group": "control_change"}, {"time": 2218, "annotation": {"number": 64, "value": 127}, "group": "control_change"}, {"time": 2238, "annotation": {"number": 64, "value": 0}, "group": "control_change"}, {"time": 2241, "annotation": {"number": 64, "value": 127}, "group": "control_change"}, {"time": 2263, "annotation": {"number": 64, "value": 0}, "group": "control_change"}, {"time": 2268, "annotation": {"number": 64, "value": 127}, "group": "control_change"}, {"time": 2287, "annotation": {"number": 64, "value": 0}, "group": "control_change"}, {"time": 2293, "annotation": {"number": 64, "value": 127}, "group": "control_change"}, {"time": 2313, "annotation": {"number": 64, "value": 127}, "group": "control_change"}, {"time": 2335, "annotation": {"number": 64, "value": 0}, "group": "control_change"}, {"time": 2371, "annotation": {"number": 64, "value": 127}, "group": "control_change"}, {"time": 2382, "annotation": {"number": 64, "value": 0}, "group": "control_change"}, {"time": 2389, "annotation": {"number": 64, "value": 127}, "group": "control_change"}, {"time": 2408, "annotation": {"number": 64, "value": 0}, "group": "control_change"}, {"time": 2414, "annotation": {"number": 64, "value": 127}, "group": "control_change"}, {"time": 2431, "annotation": {"number": 64, "value": 0}, "group": "control_change"}, {"time": 2438, "annotation": {"number": 64, "value": 127}, "group": "control_change"}, {"time": 2459, "annotation": {"number": 64, "value": 127}, "group": "control_change"}, {"time": 2478, "annotation": {"number": 64, "value": 0}, "group": "control_change"}, {"time": 2481, "annotation": {"number": 64, "value": 127}, "group": "control_change"}, {"time": 2502, "annotation": {"number": 64, "value": 0}, "group": "control_change"}, {"time": 2505, "annotation": {"number": 64, "value": 127}, "group": "control_change"}, {"time": 2527, "annotation": {"number": 64, "value": 0}, "group": "control_change"}, {"time": 2529, "annotation": {"number": 64, "value": 127}, "group": "control_change"}, {"time": 2538, "annotation": {"number": 64, "value": 0}, "group": "control_change"}, {"time": 2539, "annotation": {"number": 64, "value": 127}, "group": "control_change"}, {"time": 2550, "annotation": {"number": 64, "value": 0}, "group": "control_change"}, {"time": 2555, "annotation": {"number": 64, "value": 127}, "group": "control_change"}, {"time": 2574, "annotation": {"number": 64, "value": 0}, "group": "control_change"}, {"time": 2578, "annotation": {"number": 64, "value": 127}, "group": "control_change"}, {"time": 2598, "annotation": {"number": 64, "value": 0}, "group": "control_change"}, {"time": 2601, "annotation": {"number": 64, "value": 127}, "group": "control_change"}, {"time": 2622, "annotation": {"number": 64, "value": 0}, "group": "control_change"}, {"time": 2625, "annotation": {"number": 64, "value": 127}, "group": "control_change"}, {"time": 2626, "annotation": {"number": 64, "value": 127}, "group": "control_change"}, {"time": 2627, "annotation": {"number": 64, "value": 0}, "group": "control_change"}, {"time": 2633, "annotation": {"number": 64, "value": 0}, "group": "control_change"}, {"time": 2635, "annotation": {"number": 64, "value": 127}, "group": "control_change"}, {"time": 2645, "annotation": {"number": 64, "value": 0}, "group": "control_change"}, {"time": 2649, "annotation": {"number": 64, "value": 127}, "group": "control_change"}, {"time": 2671, "annotation": {"number": 64, "value": 0}, "group": "control_change"}, {"time": 2674, "annotation": {"number": 64, "value": 127}, "group": "control_change"}, {"time": 2694, "annotation": {"number": 64, "value": 0}, "group": "control_change"}, {"time": 2697, "annotation": {"number": 64, "value": 127}, "group": "control_change"}, {"time": 2718, "annotation": {"number": 64, "value": 0}, "group": "control_change"}, {"time": 2722, "annotation": {"number": 64, "value": 127}, "group": "control_change"}, {"time": 2741, "annotation": {"number": 64, "value": 0}, "group": "control_change"}, {"time": 2745, "annotation": {"number": 64, "value": 127}, "group": "control_change"}, {"time": 2766, "annotation": {"number": 64, "value": 0}, "group": "control_change"}, {"time": 2768, "annotation": {"number": 64, "value": 127}, "group": "control_change"}, {"time": 2790, "annotation": {"number": 64, "value": 0}, "group": "control_change"}, {"time": 2793, "annotation": {"number": 64, "value": 127}, "group": "control_change"}, {"time": 2814, "annotation": {"number": 64, "value": 0}, "group": "control_change"}, {"time": 2816, "annotation": {"number": 64, "value": 127}, "group": "control_change"}, {"time": 2836, "annotation": {"number": 64, "value": 0}, "group": "control_change"}, {"time": 2840, "annotation": {"number": 64, "value": 127}, "group": "control_change"}, {"time": 2864, "annotation": {"number": 64, "value": 0}, "group": "control_change"}, {"time": 2866, "annotation": {"number": 64, "value": 127}, "group": "control_change"}, {"time": 2887, "annotation": {"number": 64, "value": 0}, "group": "control_change"}, {"time": 2891, "annotation": {"number": 64, "value": 127}, "group": "control_change"}, {"time": 2910, "annotation": {"number": 64, "value": 0}, "group": "control_change"}, {"time": 2918, "annotation": {"number": 64, "value": 127}, "group": "control_change"}, {"time": 2941, "annotation": {"number": 64, "value": 127}, "group": "control_change"}, {"time": 2959, "annotation": {"number": 64, "value": 0}, "group": "control_change"}, {"time": 2966, "annotation": {"number": 64, "value": 127}, "group": "control_change"}, {"time": 2982, "annotation": {"number": 64, "value": 0}, "group": "control_change"}, {"time": 2990, "annotation": {"number": 64, "value": 127}, "group": "control_change"}, {"time": 3006, "annotation": {"number": 64, "value": 0}, "group": "control_change"}, {"time": 3012, "annotation": {"number": 64, "value": 127}, "group": "control_change"}, {"time": 3031, "annotation": {"number": 64, "value": 0}, "group": "control_change"}, {"time": 3038, "annotation": {"number": 64, "value": 127}, "group": "control_change"}, {"time": 3054, "annotation": {"number": 64, "value": 0}, "group": "control_change"}, {"time": 3060, "annotation": {"number": 64, "value": 127}, "group": "control_change"}, {"time": 3077, "annotation": {"number": 64, "value": 0}, "group": "control_change"}, {"time": 3082, "annotation": {"number": 64, "value": 127}, "group": "control_change"}, {"time": 3102, "annotation": {"number": 64, "value": 0}, "group": "control_change"}, {"time": 3105, "annotation": {"number": 64, "value": 127}, "group": "control_change"}, {"time": 3127, "annotation": {"number": 64, "value": 0}, "group": "control_change"}, {"time": 3132, "annotation": {"number": 64, "value": 127}, "group": "control_change"}, {"time": 3151, "annotation": {"number": 64, "value": 0}, "group": "control_change"}, {"time": 3157, "annotation": {"number": 64, "value": 127}, "group": "control_change"}, {"time": 3177, "annotation": {"number": 64, "value": 127}, "group": "control_change"}, {"time": 3199, "annotation": {"number": 64, "value": 0}, "group": "control_change"}, {"time": 3235, "annotation": {"number": 64, "value": 127}, "group": "control_change"}, {"time": 3246, "annotation": {"number": 64, "value": 0}, "group": "control_change"}, {"time": 3253, "annotation": {"number": 64, "value": 127}, "group": "control_change"}, {"time": 3272, "annotation": {"number": 64, "value": 0}, "group": "control_change"}, {"time": 3278, "annotation": {"number": 64, "value": 127}, "group": "control_change"}, {"time": 3295, "annotation": {"number": 64, "value": 0}, "group": "control_change"}, {"time": 3302, "annotation": {"number": 64, "value": 127}, "group": "control_change"}, {"time": 3321, "annotation": {"number": 64, "value": 127}, "group": "control_change"}, {"time": 3345, "annotation": {"number": 64, "value": 0}, "group": "control_change"}, {"time": 3349, "annotation": {"number": 64, "value": 127}, "group": "control_change"}, {"time": 3366, "annotation": {"number": 64, "value": 0}, "group": "control_change"}, {"time": 3372, "annotation": {"number": 64, "value": 127}, "group": "control_change"}, {"time": 3391, "annotation": {"number": 64, "value": 0}, "group": "control_change"}, {"time": 3397, "annotation": {"number": 64, "value": 127}, "group": "control_change"}, {"time": 3415, "annotation": {"number": 64, "value": 0}, "group": "control_change"}, {"time": 3421, "annotation": {"number": 64, "value": 127}, "group": "control_change"}, {"time": 3438, "annotation": {"number": 64, "value": 0}, "group": "control_change"}, {"time": 3440, "annotation": {"number": 64, "value": 127}, "group": "control_change"}, {"time": 3487, "annotation": {"number": 64, "value": 0}, "group": "control_change"}, {"time": 3509, "annotation": {"number": 64, "value": 0}, "group": "control_change"}, {"time": 3513, "annotation": {"number": 64, "value": 127}, "group": "control_change"}, {"time": 3523, "annotation": {"number": 64, "value": 0}, "group": "control_change"}, {"time": 3525, "annotation": {"number": 64, "value": 127}, "group": "control_change"}, {"time": 3534, "annotation": {"number": 64, "value": 0}, "group": "control_change"}, {"time": 3542, "annotation": {"number": 64, "value": 127}, "group": "control_change"}, {"time": 3557, "annotation": {"number": 64, "value": 0}, "group": "control_change"}, {"time": 3562, "annotation": {"number": 64, "value": 127}, "group": "control_change"}, {"time": 3572, "annotation": {"number": 64, "value": 0}, "group": "control_change"}, {"time": 3575, "annotation": {"number": 64, "value": 127}, "group": "control_change"}, {"time": 3582, "annotation": {"number": 64, "value": 0}, "group": "control_change"}, {"time": 3586, "annotation": {"number": 64, "value": 127}, "group": "control_change"}, {"time": 3655, "annotation": {"number": 64, "value": 0}, "group": "control_change"}]}]}