{"metadata": {"schema_version": "0.2", "title": "None", "source_filename": "006.mid", "source_format": "midi"}, "resolution": 12, "tempos": [{"time": 0, "qpm": 116.00008506672904}], "time_signatures": [{"time": 0, "numerator": 2, "denominator": 4}], "tracks": [{"program": 0, "is_drum": false, "name": "MELODY", "notes": [{"time": 46, "pitch": 63, "duration": 14, "velocity": 102}, {"time": 70, "pitch": 62, "duration": 7, "velocity": 108}, {"time": 79, "pitch": 63, "duration": 3, "velocity": 109}, {"time": 82, "pitch": 62, "duration": 3, "velocity": 111}, {"time": 88, "pitch": 60, "duration": 52, "velocity": 114}, {"time": 538, "pitch": 67, "duration": 6, "velocity": 105}, {"time": 544, "pitch": 67, "duration": 6, "velocity": 108}, {"time": 550, "pitch": 67, "duration": 12, "velocity": 102}, {"time": 562, "pitch": 67, "duration": 6, "velocity": 92}, {"time": 568, "pitch": 67, "duration": 6, "velocity": 108}, {"time": 574, "pitch": 67, "duration": 12, "velocity": 100}, {"time": 586, "pitch": 65, "duration": 6, "velocity": 108}, {"time": 592, "pitch": 63, "duration": 6, "velocity": 109}, {"time": 598, "pitch": 62, "duration": 12, "velocity": 111}, {"time": 610, "pitch": 60, "duration": 24, "velocity": 111}, {"time": 634, "pitch": 67, "duration": 6, "velocity": 108}, {"time": 640, "pitch": 67, "duration": 6, "velocity": 105}, {"time": 646, "pitch": 67, "duration": 12, "velocity": 111}, {"time": 658, "pitch": 67, "duration": 6, "velocity": 108}, {"time": 664, "pitch": 67, "duration": 6, "velocity": 102}, {"time": 670, "pitch": 70, "duration": 12, "velocity": 112}, {"time": 682, "pitch": 68, "duration": 6, "velocity": 109}, {"time": 688, "pitch": 67, "duration": 6, "velocity": 111}, {"time": 694, "pitch": 65, "duration": 12, "velocity": 117}, {"time": 706, "pitch": 63, "duration": 24, "velocity": 112}, {"time": 730, "pitch": 67, "duration": 6, "velocity": 105}, {"time": 736, "pitch": 67, "duration": 6, "velocity": 102}, {"time": 742, "pitch": 67, "duration": 12, "velocity": 105}, {"time": 754, "pitch": 67, "duration": 6, "velocity": 108}, {"time": 760, "pitch": 67, "duration": 6, "velocity": 102}, {"time": 766, "pitch": 67, "duration": 12, "velocity": 105}, {"time": 778, "pitch": 65, "duration": 6, "velocity": 105}, {"time": 784, "pitch": 63, "duration": 6, "velocity": 99}, {"time": 790, "pitch": 62, "duration": 12, "velocity": 102}, {"time": 802, "pitch": 60, "duration": 12, "velocity": 114}, {"time": 814, "pitch": 63, "duration": 12, "velocity": 109}, {"time": 826, "pitch": 63, "duration": 6, "velocity": 112}, {"time": 832, "pitch": 60, "duration": 6, "velocity": 108}, {"time": 838, "pitch": 63, "duration": 12, "velocity": 112}, {"time": 850, "pitch": 63, "duration": 12, "velocity": 116}, {"time": 862, "pitch": 63, "duration": 12, "velocity": 109}, {"time": 874, "pitch": 63, "duration": 6, "velocity": 112}, {"time": 880, "pitch": 67, "duration": 6, "velocity": 105}, {"time": 886, "pitch": 65, "duration": 24, "velocity": 114}, {"time": 910, "pitch": 67, "duration": 6, "velocity": 100}, {"time": 916, "pitch": 67, "duration": 6, "velocity": 108}, {"time": 922, "pitch": 67, "duration": 6, "velocity": 108}, {"time": 928, "pitch": 67, "duration": 6, "velocity": 114}, {"time": 934, "pitch": 67, "duration": 6, "velocity": 111}, {"time": 940, "pitch": 67, "duration": 6, "velocity": 108}, {"time": 946, "pitch": 67, "duration": 6, "velocity": 117}, {"time": 952, "pitch": 67, "duration": 6, "velocity": 111}, {"time": 958, "pitch": 67, "duration": 6, "velocity": 111}, {"time": 964, "pitch": 67, "duration": 6, "velocity": 111}, {"time": 970, "pitch": 67, "duration": 6, "velocity": 111}, {"time": 976, "pitch": 65, "duration": 6, "velocity": 114}, {"time": 982, "pitch": 65, "duration": 24, "velocity": 111}, {"time": 1006, "pitch": 67, "duration": 6, "velocity": 84}, {"time": 1012, "pitch": 67, "duration": 6, "velocity": 105}, {"time": 1018, "pitch": 67, "duration": 6, "velocity": 100}, {"time": 1024, "pitch": 67, "duration": 6, "velocity": 102}, {"time": 1030, "pitch": 67, "duration": 6, "velocity": 102}, {"time": 1036, "pitch": 67, "duration": 6, "velocity": 100}, {"time": 1042, "pitch": 67, "duration": 6, "velocity": 105}, {"time": 1048, "pitch": 67, "duration": 6, "velocity": 102}, {"time": 1054, "pitch": 70, "duration": 6, "velocity": 112}, {"time": 1060, "pitch": 70, "duration": 6, "velocity": 102}, {"time": 1066, "pitch": 68, "duration": 6, "velocity": 109}, {"time": 1072, "pitch": 67, "duration": 6, "velocity": 111}, {"time": 1078, "pitch": 65, "duration": 24, "velocity": 117}, {"time": 1102, "pitch": 67, "duration": 6, "velocity": 73}, {"time": 1108, "pitch": 67, "duration": 6, "velocity": 100}, {"time": 1114, "pitch": 67, "duration": 6, "velocity": 100}, {"time": 1120, "pitch": 67, "duration": 6, "velocity": 102}, {"time": 1126, "pitch": 67, "duration": 6, "velocity": 102}, {"time": 1132, "pitch": 67, "duration": 6, "velocity": 100}, {"time": 1138, "pitch": 67, "duration": 6, "velocity": 102}, {"time": 1144, "pitch": 67, "duration": 6, "velocity": 97}, {"time": 1150, "pitch": 67, "duration": 12, "velocity": 102}, {"time": 1162, "pitch": 67, "duration": 6, "velocity": 102}, {"time": 1168, "pitch": 65, "duration": 6, "velocity": 108}, {"time": 1174, "pitch": 65, "duration": 24, "velocity": 114}, {"time": 1198, "pitch": 63, "duration": 12, "velocity": 112}, {"time": 1210, "pitch": 63, "duration": 12, "velocity": 112}, {"time": 1222, "pitch": 63, "duration": 12, "velocity": 112}, {"time": 1234, "pitch": 63, "duration": 12, "velocity": 112}, {"time": 1246, "pitch": 63, "duration": 6, "velocity": 109}, {"time": 1252, "pitch": 63, "duration": 6, "velocity": 109}, {"time": 1258, "pitch": 63, "duration": 6, "velocity": 109}, {"time": 1264, "pitch": 67, "duration": 6, "velocity": 100}, {"time": 1270, "pitch": 65, "duration": 24, "velocity": 108}, {"time": 1294, "pitch": 67, "duration": 6, "velocity": 102}, {"time": 1300, "pitch": 67, "duration": 6, "velocity": 100}, {"time": 1306, "pitch": 67, "duration": 6, "velocity": 97}, {"time": 1312, "pitch": 67, "duration": 6, "velocity": 97}, {"time": 1318, "pitch": 67, "duration": 6, "velocity": 102}, {"time": 1324, "pitch": 67, "duration": 6, "velocity": 102}, {"time": 1330, "pitch": 67, "duration": 6, "velocity": 105}, {"time": 1336, "pitch": 67, "duration": 6, "velocity": 102}, {"time": 1342, "pitch": 67, "duration": 6, "velocity": 102}, {"time": 1348, "pitch": 67, "duration": 6, "velocity": 102}, {"time": 1354, "pitch": 67, "duration": 6, "velocity": 111}, {"time": 1360, "pitch": 65, "duration": 6, "velocity": 111}, {"time": 1366, "pitch": 65, "duration": 24, "velocity": 111}, {"time": 1390, "pitch": 67, "duration": 6, "velocity": 97}, {"time": 1396, "pitch": 67, "duration": 6, "velocity": 97}, {"time": 1402, "pitch": 67, "duration": 6, "velocity": 105}, {"time": 1408, "pitch": 67, "duration": 6, "velocity": 111}, {"time": 1414, "pitch": 67, "duration": 6, "velocity": 105}, {"time": 1420, "pitch": 67, "duration": 6, "velocity": 102}, {"time": 1426, "pitch": 67, "duration": 6, "velocity": 102}, {"time": 1432, "pitch": 67, "duration": 6, "velocity": 97}, {"time": 1438, "pitch": 70, "duration": 9, "velocity": 109}, {"time": 1447, "pitch": 70, "duration": 3, "velocity": 99}, {"time": 1450, "pitch": 68, "duration": 6, "velocity": 105}, {"time": 1456, "pitch": 67, "duration": 6, "velocity": 108}, {"time": 1462, "pitch": 65, "duration": 24, "velocity": 114}, {"time": 1486, "pitch": 67, "duration": 6, "velocity": 58}, {"time": 1492, "pitch": 67, "duration": 6, "velocity": 105}, {"time": 1498, "pitch": 67, "duration": 6, "velocity": 97}, {"time": 1504, "pitch": 67, "duration": 6, "velocity": 105}, {"time": 1510, "pitch": 67, "duration": 6, "velocity": 108}, {"time": 1516, "pitch": 67, "duration": 6, "velocity": 105}, {"time": 1522, "pitch": 67, "duration": 6, "velocity": 111}, {"time": 1528, "pitch": 67, "duration": 6, "velocity": 102}, {"time": 1534, "pitch": 67, "duration": 6, "velocity": 114}, {"time": 1540, "pitch": 67, "duration": 6, "velocity": 105}, {"time": 1546, "pitch": 67, "duration": 6, "velocity": 111}, {"time": 1552, "pitch": 65, "duration": 6, "velocity": 108}, {"time": 1558, "pitch": 67, "duration": 6, "velocity": 114}, {"time": 1564, "pitch": 65, "duration": 18, "velocity": 78}, {"time": 1582, "pitch": 63, "duration": 6, "velocity": 112}, {"time": 1588, "pitch": 60, "duration": 6, "velocity": 108}, {"time": 1594, "pitch": 63, "duration": 6, "velocity": 109}, {"time": 1600, "pitch": 60, "duration": 6, "velocity": 108}, {"time": 1606, "pitch": 63, "duration": 6, "velocity": 112}, {"time": 1612, "pitch": 63, "duration": 6, "velocity": 97}, {"time": 1618, "pitch": 63, "duration": 6, "velocity": 112}, {"time": 1624, "pitch": 63, "duration": 6, "velocity": 105}, {"time": 1630, "pitch": 63, "duration": 6, "velocity": 112}, {"time": 1636, "pitch": 63, "duration": 6, "velocity": 105}, {"time": 1642, "pitch": 63, "duration": 6, "velocity": 109}, {"time": 1648, "pitch": 67, "duration": 6, "velocity": 102}, {"time": 1654, "pitch": 65, "duration": 96, "velocity": 105}, {"time": 1750, "pitch": 67, "duration": 6, "velocity": 100}, {"time": 1756, "pitch": 65, "duration": 6, "velocity": 102}, {"time": 1762, "pitch": 63, "duration": 6, "velocity": 109}, {"time": 1768, "pitch": 62, "duration": 6, "velocity": 94}, {"time": 1774, "pitch": 63, "duration": 12, "velocity": 112}, {"time": 1786, "pitch": 60, "duration": 6, "velocity": 82}, {"time": 1792, "pitch": 63, "duration": 6, "velocity": 109}, {"time": 1798, "pitch": 63, "duration": 6, "velocity": 112}, {"time": 1804, "pitch": 63, "duration": 6, "velocity": 109}, {"time": 1810, "pitch": 65, "duration": 6, "velocity": 97}, {"time": 1816, "pitch": 65, "duration": 12, "velocity": 111}, {"time": 1828, "pitch": 58, "duration": 18, "velocity": 112}, {"time": 1846, "pitch": 67, "duration": 6, "velocity": 108}, {"time": 1852, "pitch": 65, "duration": 6, "velocity": 105}, {"time": 1858, "pitch": 63, "duration": 6, "velocity": 96}, {"time": 1864, "pitch": 62, "duration": 6, "velocity": 102}, {"time": 1870, "pitch": 63, "duration": 12, "velocity": 109}, {"time": 1882, "pitch": 60, "duration": 6, "velocity": 111}, {"time": 1888, "pitch": 63, "duration": 6, "velocity": 109}, {"time": 1894, "pitch": 63, "duration": 6, "velocity": 102}, {"time": 1900, "pitch": 63, "duration": 6, "velocity": 102}, {"time": 1906, "pitch": 65, "duration": 6, "velocity": 108}, {"time": 1912, "pitch": 65, "duration": 30, "velocity": 111}, {"time": 1942, "pitch": 67, "duration": 6, "velocity": 108}, {"time": 1948, "pitch": 65, "duration": 6, "velocity": 105}, {"time": 1954, "pitch": 63, "duration": 6, "velocity": 112}, {"time": 1960, "pitch": 62, "duration": 6, "velocity": 100}, {"time": 1966, "pitch": 63, "duration": 12, "velocity": 109}, {"time": 1978, "pitch": 60, "duration": 6, "velocity": 108}, {"time": 1984, "pitch": 63, "duration": 6, "velocity": 109}, {"time": 1990, "pitch": 63, "duration": 6, "velocity": 109}, {"time": 1996, "pitch": 63, "duration": 6, "velocity": 105}, {"time": 2002, "pitch": 65, "duration": 6, "velocity": 105}, {"time": 2008, "pitch": 65, "duration": 12, "velocity": 114}, {"time": 2020, "pitch": 58, "duration": 18, "velocity": 109}, {"time": 2038, "pitch": 62, "duration": 6, "velocity": 108}, {"time": 2044, "pitch": 62, "duration": 6, "velocity": 108}, {"time": 2050, "pitch": 62, "duration": 12, "velocity": 114}, {"time": 2062, "pitch": 63, "duration": 24, "velocity": 109}, {"time": 2086, "pitch": 62, "duration": 6, "velocity": 102}, {"time": 2092, "pitch": 63, "duration": 6, "velocity": 105}, {"time": 2098, "pitch": 62, "duration": 6, "velocity": 108}, {"time": 2104, "pitch": 60, "duration": 30, "velocity": 117}, {"time": 2134, "pitch": 67, "duration": 6, "velocity": 100}, {"time": 2140, "pitch": 65, "duration": 6, "velocity": 102}, {"time": 2146, "pitch": 63, "duration": 6, "velocity": 109}, {"time": 2152, "pitch": 62, "duration": 6, "velocity": 94}, {"time": 2158, "pitch": 63, "duration": 12, "velocity": 112}, {"time": 2170, "pitch": 60, "duration": 6, "velocity": 82}, {"time": 2176, "pitch": 63, "duration": 6, "velocity": 109}, {"time": 2182, "pitch": 63, "duration": 6, "velocity": 112}, {"time": 2188, "pitch": 63, "duration": 6, "velocity": 109}, {"time": 2194, "pitch": 65, "duration": 6, "velocity": 97}, {"time": 2200, "pitch": 65, "duration": 12, "velocity": 111}, {"time": 2212, "pitch": 58, "duration": 18, "velocity": 112}, {"time": 2230, "pitch": 67, "duration": 6, "velocity": 108}, {"time": 2236, "pitch": 65, "duration": 6, "velocity": 105}, {"time": 2242, "pitch": 63, "duration": 6, "velocity": 96}, {"time": 2248, "pitch": 62, "duration": 6, "velocity": 102}, {"time": 2254, "pitch": 63, "duration": 12, "velocity": 109}, {"time": 2266, "pitch": 60, "duration": 6, "velocity": 111}, {"time": 2272, "pitch": 63, "duration": 6, "velocity": 109}, {"time": 2278, "pitch": 63, "duration": 6, "velocity": 102}, {"time": 2284, "pitch": 63, "duration": 6, "velocity": 102}, {"time": 2290, "pitch": 65, "duration": 6, "velocity": 108}, {"time": 2296, "pitch": 65, "duration": 30, "velocity": 111}, {"time": 2326, "pitch": 67, "duration": 6, "velocity": 108}, {"time": 2332, "pitch": 65, "duration": 6, "velocity": 105}, {"time": 2338, "pitch": 63, "duration": 6, "velocity": 112}, {"time": 2344, "pitch": 62, "duration": 6, "velocity": 100}, {"time": 2350, "pitch": 63, "duration": 12, "velocity": 109}, {"time": 2362, "pitch": 60, "duration": 6, "velocity": 108}, {"time": 2368, "pitch": 63, "duration": 6, "velocity": 109}, {"time": 2374, "pitch": 63, "duration": 6, "velocity": 109}, {"time": 2380, "pitch": 63, "duration": 6, "velocity": 105}, {"time": 2386, "pitch": 65, "duration": 6, "velocity": 105}, {"time": 2392, "pitch": 65, "duration": 12, "velocity": 114}, {"time": 2404, "pitch": 58, "duration": 18, "velocity": 109}, {"time": 2422, "pitch": 62, "duration": 6, "velocity": 108}, {"time": 2428, "pitch": 62, "duration": 6, "velocity": 108}, {"time": 2434, "pitch": 62, "duration": 6, "velocity": 114}, {"time": 2440, "pitch": 62, "duration": 6, "velocity": 100}, {"time": 2446, "pitch": 63, "duration": 24, "velocity": 109}, {"time": 2470, "pitch": 62, "duration": 6, "velocity": 102}, {"time": 2476, "pitch": 63, "duration": 6, "velocity": 105}, {"time": 2482, "pitch": 62, "duration": 6, "velocity": 108}, {"time": 2488, "pitch": 60, "duration": 54, "velocity": 117}, {"time": 2542, "pitch": 67, "duration": 6, "velocity": 102}, {"time": 2548, "pitch": 67, "duration": 6, "velocity": 100}, {"time": 2554, "pitch": 67, "duration": 6, "velocity": 97}, {"time": 2560, "pitch": 67, "duration": 6, "velocity": 97}, {"time": 2566, "pitch": 67, "duration": 6, "velocity": 102}, {"time": 2572, "pitch": 67, "duration": 6, "velocity": 102}, {"time": 2578, "pitch": 67, "duration": 6, "velocity": 105}, {"time": 2584, "pitch": 67, "duration": 6, "velocity": 102}, {"time": 2590, "pitch": 67, "duration": 6, "velocity": 102}, {"time": 2596, "pitch": 67, "duration": 6, "velocity": 102}, {"time": 2602, "pitch": 67, "duration": 6, "velocity": 111}, {"time": 2608, "pitch": 65, "duration": 6, "velocity": 111}, {"time": 2614, "pitch": 65, "duration": 24, "velocity": 111}, {"time": 2638, "pitch": 67, "duration": 6, "velocity": 97}, {"time": 2644, "pitch": 67, "duration": 6, "velocity": 97}, {"time": 2650, "pitch": 67, "duration": 6, "velocity": 105}, {"time": 2656, "pitch": 67, "duration": 6, "velocity": 111}, {"time": 2662, "pitch": 67, "duration": 6, "velocity": 105}, {"time": 2668, "pitch": 67, "duration": 6, "velocity": 102}, {"time": 2674, "pitch": 67, "duration": 6, "velocity": 102}, {"time": 2680, "pitch": 67, "duration": 6, "velocity": 97}, {"time": 2686, "pitch": 70, "duration": 9, "velocity": 109}, {"time": 2695, "pitch": 70, "duration": 3, "velocity": 99}, {"time": 2698, "pitch": 68, "duration": 6, "velocity": 105}, {"time": 2704, "pitch": 67, "duration": 6, "velocity": 108}, {"time": 2710, "pitch": 65, "duration": 24, "velocity": 114}, {"time": 2734, "pitch": 67, "duration": 6, "velocity": 58}, {"time": 2740, "pitch": 67, "duration": 6, "velocity": 105}, {"time": 2746, "pitch": 67, "duration": 6, "velocity": 97}, {"time": 2752, "pitch": 67, "duration": 6, "velocity": 105}, {"time": 2758, "pitch": 67, "duration": 6, "velocity": 108}, {"time": 2764, "pitch": 67, "duration": 6, "velocity": 105}, {"time": 2770, "pitch": 67, "duration": 6, "velocity": 111}, {"time": 2776, "pitch": 67, "duration": 6, "velocity": 102}, {"time": 2782, "pitch": 67, "duration": 6, "velocity": 114}, {"time": 2788, "pitch": 67, "duration": 6, "velocity": 105}, {"time": 2794, "pitch": 67, "duration": 6, "velocity": 111}, {"time": 2800, "pitch": 65, "duration": 6, "velocity": 108}, {"time": 2806, "pitch": 67, "duration": 6, "velocity": 114}, {"time": 2812, "pitch": 65, "duration": 12, "velocity": 78}, {"time": 2824, "pitch": 60, "duration": 6, "velocity": 100}, {"time": 2830, "pitch": 63, "duration": 6, "velocity": 112}, {"time": 2836, "pitch": 60, "duration": 6, "velocity": 108}, {"time": 2842, "pitch": 63, "duration": 6, "velocity": 109}, {"time": 2848, "pitch": 60, "duration": 6, "velocity": 108}, {"time": 2854, "pitch": 63, "duration": 12, "velocity": 112}, {"time": 2866, "pitch": 63, "duration": 6, "velocity": 112}, {"time": 2872, "pitch": 63, "duration": 6, "velocity": 105}, {"time": 2878, "pitch": 63, "duration": 6, "velocity": 112}, {"time": 2884, "pitch": 63, "duration": 6, "velocity": 105}, {"time": 2890, "pitch": 63, "duration": 6, "velocity": 109}, {"time": 2896, "pitch": 67, "duration": 6, "velocity": 102}, {"time": 2902, "pitch": 65, "duration": 96, "velocity": 105}, {"time": 2998, "pitch": 67, "duration": 6, "velocity": 100}, {"time": 3004, "pitch": 65, "duration": 6, "velocity": 102}, {"time": 3010, "pitch": 63, "duration": 6, "velocity": 109}, {"time": 3016, "pitch": 62, "duration": 6, "velocity": 94}, {"time": 3022, "pitch": 63, "duration": 12, "velocity": 112}, {"time": 3034, "pitch": 60, "duration": 6, "velocity": 82}, {"time": 3040, "pitch": 63, "duration": 6, "velocity": 109}, {"time": 3046, "pitch": 63, "duration": 6, "velocity": 112}, {"time": 3052, "pitch": 63, "duration": 6, "velocity": 109}, {"time": 3058, "pitch": 65, "duration": 6, "velocity": 97}, {"time": 3064, "pitch": 65, "duration": 12, "velocity": 111}, {"time": 3076, "pitch": 58, "duration": 18, "velocity": 112}, {"time": 3094, "pitch": 67, "duration": 6, "velocity": 108}, {"time": 3100, "pitch": 65, "duration": 6, "velocity": 105}, {"time": 3106, "pitch": 63, "duration": 6, "velocity": 96}, {"time": 3112, "pitch": 62, "duration": 6, "velocity": 102}, {"time": 3118, "pitch": 63, "duration": 12, "velocity": 109}, {"time": 3130, "pitch": 60, "duration": 6, "velocity": 111}, {"time": 3136, "pitch": 63, "duration": 6, "velocity": 109}, {"time": 3142, "pitch": 63, "duration": 6, "velocity": 102}, {"time": 3148, "pitch": 63, "duration": 6, "velocity": 102}, {"time": 3154, "pitch": 65, "duration": 6, "velocity": 108}, {"time": 3160, "pitch": 65, "duration": 30, "velocity": 111}, {"time": 3190, "pitch": 67, "duration": 6, "velocity": 108}, {"time": 3196, "pitch": 65, "duration": 6, "velocity": 105}, {"time": 3202, "pitch": 63, "duration": 6, "velocity": 112}, {"time": 3208, "pitch": 62, "duration": 6, "velocity": 100}, {"time": 3214, "pitch": 63, "duration": 12, "velocity": 109}, {"time": 3226, "pitch": 60, "duration": 6, "velocity": 108}, {"time": 3232, "pitch": 63, "duration": 6, "velocity": 109}, {"time": 3238, "pitch": 63, "duration": 6, "velocity": 109}, {"time": 3244, "pitch": 63, "duration": 6, "velocity": 105}, {"time": 3250, "pitch": 65, "duration": 6, "velocity": 105}, {"time": 3256, "pitch": 65, "duration": 12, "velocity": 114}, {"time": 3268, "pitch": 58, "duration": 18, "velocity": 109}, {"time": 3286, "pitch": 62, "duration": 6, "velocity": 108}, {"time": 3292, "pitch": 62, "duration": 6, "velocity": 108}, {"time": 3298, "pitch": 62, "duration": 12, "velocity": 114}, {"time": 3310, "pitch": 63, "duration": 24, "velocity": 109}, {"time": 3334, "pitch": 62, "duration": 6, "velocity": 102}, {"time": 3340, "pitch": 63, "duration": 6, "velocity": 105}, {"time": 3346, "pitch": 62, "duration": 6, "velocity": 108}, {"time": 3352, "pitch": 60, "duration": 30, "velocity": 117}, {"time": 3382, "pitch": 67, "duration": 6, "velocity": 100}, {"time": 3388, "pitch": 65, "duration": 6, "velocity": 102}, {"time": 3394, "pitch": 63, "duration": 6, "velocity": 109}, {"time": 3400, "pitch": 62, "duration": 6, "velocity": 94}, {"time": 3406, "pitch": 63, "duration": 12, "velocity": 112}, {"time": 3418, "pitch": 60, "duration": 6, "velocity": 82}, {"time": 3424, "pitch": 63, "duration": 6, "velocity": 109}, {"time": 3430, "pitch": 63, "duration": 6, "velocity": 112}, {"time": 3436, "pitch": 63, "duration": 6, "velocity": 109}, {"time": 3442, "pitch": 65, "duration": 6, "velocity": 97}, {"time": 3448, "pitch": 65, "duration": 12, "velocity": 111}, {"time": 3460, "pitch": 58, "duration": 18, "velocity": 112}, {"time": 3478, "pitch": 67, "duration": 6, "velocity": 108}, {"time": 3484, "pitch": 65, "duration": 6, "velocity": 105}, {"time": 3490, "pitch": 63, "duration": 6, "velocity": 96}, {"time": 3496, "pitch": 62, "duration": 6, "velocity": 102}, {"time": 3502, "pitch": 63, "duration": 12, "velocity": 109}, {"time": 3514, "pitch": 60, "duration": 6, "velocity": 111}, {"time": 3520, "pitch": 63, "duration": 6, "velocity": 109}, {"time": 3526, "pitch": 63, "duration": 6, "velocity": 102}, {"time": 3532, "pitch": 63, "duration": 6, "velocity": 102}, {"time": 3538, "pitch": 65, "duration": 6, "velocity": 108}, {"time": 3544, "pitch": 65, "duration": 30, "velocity": 111}, {"time": 3574, "pitch": 67, "duration": 6, "velocity": 108}, {"time": 3580, "pitch": 65, "duration": 6, "velocity": 105}, {"time": 3586, "pitch": 63, "duration": 6, "velocity": 112}, {"time": 3592, "pitch": 62, "duration": 6, "velocity": 100}, {"time": 3598, "pitch": 63, "duration": 12, "velocity": 109}, {"time": 3610, "pitch": 60, "duration": 6, "velocity": 108}, {"time": 3616, "pitch": 63, "duration": 6, "velocity": 109}, {"time": 3622, "pitch": 63, "duration": 6, "velocity": 109}, {"time": 3628, "pitch": 63, "duration": 6, "velocity": 105}, {"time": 3634, "pitch": 65, "duration": 6, "velocity": 105}, {"time": 3640, "pitch": 65, "duration": 12, "velocity": 114}, {"time": 3652, "pitch": 58, "duration": 18, "velocity": 109}, {"time": 3670, "pitch": 62, "duration": 6, "velocity": 108}, {"time": 3676, "pitch": 62, "duration": 6, "velocity": 108}, {"time": 3682, "pitch": 62, "duration": 6, "velocity": 114}, {"time": 3688, "pitch": 62, "duration": 6, "velocity": 100}, {"time": 3694, "pitch": 63, "duration": 24, "velocity": 109}, {"time": 3718, "pitch": 62, "duration": 6, "velocity": 102}, {"time": 3724, "pitch": 63, "duration": 6, "velocity": 105}, {"time": 3730, "pitch": 62, "duration": 6, "velocity": 108}, {"time": 3736, "pitch": 60, "duration": 32, "velocity": 117}, {"time": 4246, "pitch": 67, "duration": 6, "velocity": 100}, {"time": 4252, "pitch": 65, "duration": 6, "velocity": 102}, {"time": 4258, "pitch": 63, "duration": 6, "velocity": 109}, {"time": 4264, "pitch": 62, "duration": 6, "velocity": 94}, {"time": 4270, "pitch": 63, "duration": 12, "velocity": 112}, {"time": 4282, "pitch": 60, "duration": 6, "velocity": 82}, {"time": 4288, "pitch": 63, "duration": 6, "velocity": 109}, {"time": 4294, "pitch": 63, "duration": 6, "velocity": 112}, {"time": 4300, "pitch": 63, "duration": 6, "velocity": 109}, {"time": 4306, "pitch": 65, "duration": 6, "velocity": 97}, {"time": 4312, "pitch": 65, "duration": 12, "velocity": 111}, {"time": 4324, "pitch": 58, "duration": 18, "velocity": 112}, {"time": 4342, "pitch": 67, "duration": 6, "velocity": 108}, {"time": 4348, "pitch": 65, "duration": 6, "velocity": 105}, {"time": 4354, "pitch": 63, "duration": 6, "velocity": 96}, {"time": 4360, "pitch": 62, "duration": 6, "velocity": 102}, {"time": 4366, "pitch": 63, "duration": 12, "velocity": 109}, {"time": 4378, "pitch": 60, "duration": 6, "velocity": 111}, {"time": 4384, "pitch": 63, "duration": 6, "velocity": 109}, {"time": 4390, "pitch": 63, "duration": 6, "velocity": 102}, {"time": 4396, "pitch": 63, "duration": 6, "velocity": 102}, {"time": 4402, "pitch": 65, "duration": 6, "velocity": 108}, {"time": 4408, "pitch": 65, "duration": 30, "velocity": 111}, {"time": 4438, "pitch": 67, "duration": 6, "velocity": 108}, {"time": 4444, "pitch": 65, "duration": 6, "velocity": 105}, {"time": 4450, "pitch": 63, "duration": 6, "velocity": 112}, {"time": 4456, "pitch": 62, "duration": 6, "velocity": 100}, {"time": 4462, "pitch": 63, "duration": 12, "velocity": 109}, {"time": 4474, "pitch": 60, "duration": 6, "velocity": 108}, {"time": 4480, "pitch": 63, "duration": 6, "velocity": 109}, {"time": 4486, "pitch": 63, "duration": 6, "velocity": 109}, {"time": 4492, "pitch": 63, "duration": 6, "velocity": 105}, {"time": 4498, "pitch": 65, "duration": 6, "velocity": 105}, {"time": 4504, "pitch": 65, "duration": 12, "velocity": 114}, {"time": 4516, "pitch": 58, "duration": 18, "velocity": 109}, {"time": 4534, "pitch": 62, "duration": 6, "velocity": 108}, {"time": 4540, "pitch": 62, "duration": 6, "velocity": 108}, {"time": 4546, "pitch": 62, "duration": 12, "velocity": 114}, {"time": 4558, "pitch": 63, "duration": 24, "velocity": 109}, {"time": 4582, "pitch": 62, "duration": 6, "velocity": 102}, {"time": 4588, "pitch": 63, "duration": 6, "velocity": 105}, {"time": 4594, "pitch": 62, "duration": 6, "velocity": 108}, {"time": 4600, "pitch": 60, "duration": 30, "velocity": 117}, {"time": 4630, "pitch": 67, "duration": 6, "velocity": 100}, {"time": 4636, "pitch": 65, "duration": 6, "velocity": 102}, {"time": 4642, "pitch": 63, "duration": 6, "velocity": 109}, {"time": 4648, "pitch": 62, "duration": 6, "velocity": 94}, {"time": 4654, "pitch": 63, "duration": 12, "velocity": 112}, {"time": 4666, "pitch": 60, "duration": 6, "velocity": 82}, {"time": 4672, "pitch": 63, "duration": 6, "velocity": 109}, {"time": 4678, "pitch": 63, "duration": 6, "velocity": 112}, {"time": 4684, "pitch": 63, "duration": 6, "velocity": 109}, {"time": 4690, "pitch": 65, "duration": 6, "velocity": 97}, {"time": 4696, "pitch": 65, "duration": 12, "velocity": 111}, {"time": 4708, "pitch": 58, "duration": 18, "velocity": 112}, {"time": 4726, "pitch": 67, "duration": 6, "velocity": 108}, {"time": 4732, "pitch": 65, "duration": 6, "velocity": 105}, {"time": 4738, "pitch": 63, "duration": 6, "velocity": 96}, {"time": 4744, "pitch": 62, "duration": 6, "velocity": 102}, {"time": 4750, "pitch": 63, "duration": 12, "velocity": 109}, {"time": 4762, "pitch": 60, "duration": 6, "velocity": 111}, {"time": 4768, "pitch": 63, "duration": 6, "velocity": 109}, {"time": 4774, "pitch": 63, "duration": 6, "velocity": 102}, {"time": 4780, "pitch": 63, "duration": 6, "velocity": 102}, {"time": 4786, "pitch": 65, "duration": 6, "velocity": 108}, {"time": 4792, "pitch": 65, "duration": 30, "velocity": 111}, {"time": 4822, "pitch": 67, "duration": 6, "velocity": 108}, {"time": 4828, "pitch": 65, "duration": 6, "velocity": 105}, {"time": 4834, "pitch": 63, "duration": 6, "velocity": 112}, {"time": 4840, "pitch": 62, "duration": 6, "velocity": 100}, {"time": 4846, "pitch": 63, "duration": 12, "velocity": 109}, {"time": 4858, "pitch": 60, "duration": 6, "velocity": 108}, {"time": 4864, "pitch": 63, "duration": 6, "velocity": 109}, {"time": 4870, "pitch": 63, "duration": 6, "velocity": 109}, {"time": 4876, "pitch": 63, "duration": 6, "velocity": 105}, {"time": 4882, "pitch": 65, "duration": 6, "velocity": 105}, {"time": 4888, "pitch": 65, "duration": 12, "velocity": 114}, {"time": 4900, "pitch": 58, "duration": 18, "velocity": 109}, {"time": 4918, "pitch": 62, "duration": 6, "velocity": 108}, {"time": 4924, "pitch": 62, "duration": 6, "velocity": 108}, {"time": 4930, "pitch": 62, "duration": 6, "velocity": 114}, {"time": 4936, "pitch": 62, "duration": 6, "velocity": 100}, {"time": 4942, "pitch": 63, "duration": 24, "velocity": 109}, {"time": 4966, "pitch": 62, "duration": 6, "velocity": 102}, {"time": 4972, "pitch": 63, "duration": 6, "velocity": 105}, {"time": 4978, "pitch": 62, "duration": 6, "velocity": 108}, {"time": 4984, "pitch": 60, "duration": 54, "velocity": 117}, {"time": 5038, "pitch": 63, "duration": 24, "velocity": 109}, {"time": 5062, "pitch": 62, "duration": 6, "velocity": 102}, {"time": 5068, "pitch": 63, "duration": 6, "velocity": 105}, {"time": 5074, "pitch": 62, "duration": 6, "velocity": 108}, {"time": 5080, "pitch": 60, "duration": 54, "velocity": 117}, {"time": 5134, "pitch": 63, "duration": 24, "velocity": 109}, {"time": 5158, "pitch": 62, "duration": 6, "velocity": 102}, {"time": 5164, "pitch": 63, "duration": 6, "velocity": 105}, {"time": 5170, "pitch": 62, "duration": 6, "velocity": 108}, {"time": 5176, "pitch": 60, "duration": 32, "velocity": 117}]}, {"program": 0, "is_drum": false, "name": "BRIDGE", "notes": [{"time": 196, "pitch": 72, "duration": 5, "velocity": 117}, {"time": 202, "pitch": 75, "duration": 7, "velocity": 116}, {"time": 208, "pitch": 72, "duration": 30, "velocity": 120}, {"time": 256, "pitch": 67, "duration": 6, "velocity": 120}, {"time": 262, "pitch": 70, "duration": 4, "velocity": 112}, {"time": 268, "pitch": 72, "duration": 4, "velocity": 120}, {"time": 274, "pitch": 75, "duration": 5, "velocity": 116}, {"time": 280, "pitch": 79, "duration": 17, "velocity": 111}, {"time": 298, "pitch": 77, "duration": 4, "velocity": 111}, {"time": 304, "pitch": 82, "duration": 17, "velocity": 105}, {"time": 322, "pitch": 79, "duration": 3, "velocity": 94}, {"time": 328, "pitch": 79, "duration": 24, "velocity": 123}, {"time": 370, "pitch": 74, "duration": 4, "velocity": 114}, {"time": 376, "pitch": 75, "duration": 5, "velocity": 112}, {"time": 382, "pitch": 72, "duration": 6, "velocity": 120}, {"time": 388, "pitch": 74, "duration": 4, "velocity": 105}, {"time": 394, "pitch": 75, "duration": 4, "velocity": 116}, {"time": 400, "pitch": 79, "duration": 5, "velocity": 105}, {"time": 406, "pitch": 82, "duration": 5, "velocity": 112}, {"time": 412, "pitch": 79, "duration": 4, "velocity": 114}, {"time": 418, "pitch": 82, "duration": 3, "velocity": 112}, {"time": 424, "pitch": 84, "duration": 35, "velocity": 117}, {"time": 472, "pitch": 89, "duration": 3, "velocity": 111}, {"time": 475, "pitch": 87, "duration": 3, "velocity": 112}, {"time": 478, "pitch": 86, "duration": 11, "velocity": 117}, {"time": 490, "pitch": 82, "duration": 5, "velocity": 116}, {"time": 496, "pitch": 79, "duration": 12, "velocity": 120}, {"time": 508, "pitch": 82, "duration": 16, "velocity": 116}, {"time": 526, "pitch": 79, "duration": 12, "velocity": 92}, {"time": 526, "pitch": 84, "duration": 13, "velocity": 100}, {"time": 1774, "pitch": 72, "duration": 3, "velocity": 76}, {"time": 1774, "pitch": 75, "duration": 3, "velocity": 70}, {"time": 1780, "pitch": 72, "duration": 2, "velocity": 51}, {"time": 1780, "pitch": 75, "duration": 3, "velocity": 61}, {"time": 1786, "pitch": 72, "duration": 3, "velocity": 89}, {"time": 1786, "pitch": 75, "duration": 3, "velocity": 96}, {"time": 1792, "pitch": 72, "duration": 3, "velocity": 67}, {"time": 1792, "pitch": 75, "duration": 3, "velocity": 68}, {"time": 1798, "pitch": 72, "duration": 2, "velocity": 34}, {"time": 1798, "pitch": 75, "duration": 3, "velocity": 46}, {"time": 1804, "pitch": 72, "duration": 3, "velocity": 49}, {"time": 1804, "pitch": 75, "duration": 3, "velocity": 52}, {"time": 1810, "pitch": 72, "duration": 3, "velocity": 87}, {"time": 1810, "pitch": 75, "duration": 3, "velocity": 93}, {"time": 1816, "pitch": 72, "duration": 3, "velocity": 67}, {"time": 1816, "pitch": 75, "duration": 2, "velocity": 79}, {"time": 1822, "pitch": 74, "duration": 3, "velocity": 80}, {"time": 1828, "pitch": 70, "duration": 2, "velocity": 63}, {"time": 1828, "pitch": 74, "duration": 2, "velocity": 69}, {"time": 1834, "pitch": 70, "duration": 3, "velocity": 82}, {"time": 1834, "pitch": 74, "duration": 3, "velocity": 92}, {"time": 1840, "pitch": 70, "duration": 3, "velocity": 65}, {"time": 1840, "pitch": 74, "duration": 2, "velocity": 73}, {"time": 1846, "pitch": 70, "duration": 2, "velocity": 38}, {"time": 1846, "pitch": 74, "duration": 2, "velocity": 55}, {"time": 1852, "pitch": 70, "duration": 2, "velocity": 54}, {"time": 1852, "pitch": 74, "duration": 2, "velocity": 71}, {"time": 1858, "pitch": 70, "duration": 3, "velocity": 85}, {"time": 1858, "pitch": 74, "duration": 3, "velocity": 89}, {"time": 1864, "pitch": 70, "duration": 2, "velocity": 70}, {"time": 1864, "pitch": 74, "duration": 2, "velocity": 80}, {"time": 1870, "pitch": 72, "duration": 4, "velocity": 69}, {"time": 1870, "pitch": 75, "duration": 3, "velocity": 90}, {"time": 1876, "pitch": 72, "duration": 2, "velocity": 60}, {"time": 1876, "pitch": 75, "duration": 3, "velocity": 74}, {"time": 1882, "pitch": 72, "duration": 3, "velocity": 82}, {"time": 1882, "pitch": 75, "duration": 3, "velocity": 93}, {"time": 1888, "pitch": 72, "duration": 2, "velocity": 50}, {"time": 1888, "pitch": 75, "duration": 3, "velocity": 72}, {"time": 1894, "pitch": 72, "duration": 2, "velocity": 49}, {"time": 1894, "pitch": 75, "duration": 3, "velocity": 59}, {"time": 1900, "pitch": 72, "duration": 2, "velocity": 41}, {"time": 1900, "pitch": 75, "duration": 3, "velocity": 54}, {"time": 1906, "pitch": 72, "duration": 3, "velocity": 76}, {"time": 1906, "pitch": 75, "duration": 3, "velocity": 77}, {"time": 1912, "pitch": 72, "duration": 3, "velocity": 62}, {"time": 1912, "pitch": 75, "duration": 3, "velocity": 82}, {"time": 1918, "pitch": 70, "duration": 2, "velocity": 72}, {"time": 1918, "pitch": 74, "duration": 2, "velocity": 60}, {"time": 1924, "pitch": 70, "duration": 2, "velocity": 54}, {"time": 1924, "pitch": 74, "duration": 2, "velocity": 66}, {"time": 1930, "pitch": 70, "duration": 3, "velocity": 90}, {"time": 1930, "pitch": 74, "duration": 3, "velocity": 89}, {"time": 1936, "pitch": 70, "duration": 3, "velocity": 65}, {"time": 1936, "pitch": 74, "duration": 3, "velocity": 78}, {"time": 1942, "pitch": 70, "duration": 2, "velocity": 50}, {"time": 1942, "pitch": 74, "duration": 2, "velocity": 66}, {"time": 1948, "pitch": 70, "duration": 2, "velocity": 74}, {"time": 1948, "pitch": 74, "duration": 2, "velocity": 76}, {"time": 1954, "pitch": 70, "duration": 3, "velocity": 96}, {"time": 1954, "pitch": 74, "duration": 3, "velocity": 89}, {"time": 1960, "pitch": 70, "duration": 2, "velocity": 90}, {"time": 1960, "pitch": 74, "duration": 3, "velocity": 92}, {"time": 1966, "pitch": 72, "duration": 3, "velocity": 80}, {"time": 1966, "pitch": 75, "duration": 4, "velocity": 93}, {"time": 1972, "pitch": 72, "duration": 2, "velocity": 60}, {"time": 1972, "pitch": 75, "duration": 2, "velocity": 77}, {"time": 1978, "pitch": 72, "duration": 3, "velocity": 92}, {"time": 1978, "pitch": 75, "duration": 3, "velocity": 102}, {"time": 1984, "pitch": 72, "duration": 3, "velocity": 66}, {"time": 1984, "pitch": 75, "duration": 3, "velocity": 79}, {"time": 1990, "pitch": 72, "duration": 2, "velocity": 66}, {"time": 1990, "pitch": 75, "duration": 3, "velocity": 79}, {"time": 1996, "pitch": 72, "duration": 2, "velocity": 66}, {"time": 1996, "pitch": 75, "duration": 3, "velocity": 82}, {"time": 2002, "pitch": 72, "duration": 3, "velocity": 82}, {"time": 2002, "pitch": 75, "duration": 3, "velocity": 96}, {"time": 2008, "pitch": 72, "duration": 3, "velocity": 71}, {"time": 2008, "pitch": 75, "duration": 3, "velocity": 90}, {"time": 2014, "pitch": 70, "duration": 2, "velocity": 82}, {"time": 2014, "pitch": 74, "duration": 3, "velocity": 80}, {"time": 2020, "pitch": 70, "duration": 2, "velocity": 70}, {"time": 2020, "pitch": 74, "duration": 2, "velocity": 76}, {"time": 2026, "pitch": 70, "duration": 3, "velocity": 102}, {"time": 2026, "pitch": 74, "duration": 3, "velocity": 94}, {"time": 2032, "pitch": 70, "duration": 2, "velocity": 85}, {"time": 2032, "pitch": 74, "duration": 3, "velocity": 82}, {"time": 2038, "pitch": 70, "duration": 2, "velocity": 72}, {"time": 2038, "pitch": 74, "duration": 2, "velocity": 73}, {"time": 2044, "pitch": 70, "duration": 2, "velocity": 63}, {"time": 2044, "pitch": 74, "duration": 2, "velocity": 71}, {"time": 2050, "pitch": 70, "duration": 3, "velocity": 93}, {"time": 2050, "pitch": 74, "duration": 3, "velocity": 87}, {"time": 2056, "pitch": 70, "duration": 2, "velocity": 85}, {"time": 2056, "pitch": 74, "duration": 3, "velocity": 82}, {"time": 2062, "pitch": 72, "duration": 3, "velocity": 84}, {"time": 2062, "pitch": 75, "duration": 3, "velocity": 102}, {"time": 2068, "pitch": 72, "duration": 3, "velocity": 64}, {"time": 2068, "pitch": 75, "duration": 3, "velocity": 74}, {"time": 2074, "pitch": 72, "duration": 3, "velocity": 92}, {"time": 2074, "pitch": 75, "duration": 3, "velocity": 105}, {"time": 2080, "pitch": 72, "duration": 2, "velocity": 55}, {"time": 2080, "pitch": 75, "duration": 3, "velocity": 79}, {"time": 2086, "pitch": 70, "duration": 3, "velocity": 77}, {"time": 2086, "pitch": 74, "duration": 3, "velocity": 80}, {"time": 2092, "pitch": 70, "duration": 3, "velocity": 82}, {"time": 2092, "pitch": 74, "duration": 3, "velocity": 76}, {"time": 2098, "pitch": 70, "duration": 3, "velocity": 96}, {"time": 2098, "pitch": 74, "duration": 3, "velocity": 89}, {"time": 2104, "pitch": 70, "duration": 3, "velocity": 96}, {"time": 2104, "pitch": 74, "duration": 3, "velocity": 89}, {"time": 2110, "pitch": 72, "duration": 3, "velocity": 84}, {"time": 2110, "pitch": 75, "duration": 3, "velocity": 99}, {"time": 2116, "pitch": 72, "duration": 3, "velocity": 69}, {"time": 2116, "pitch": 75, "duration": 3, "velocity": 93}, {"time": 2122, "pitch": 72, "duration": 3, "velocity": 87}, {"time": 2122, "pitch": 75, "duration": 3, "velocity": 99}, {"time": 2128, "pitch": 72, "duration": 3, "velocity": 87}, {"time": 2128, "pitch": 75, "duration": 2, "velocity": 99}, {"time": 2134, "pitch": 70, "duration": 2, "velocity": 87}, {"time": 2134, "pitch": 74, "duration": 2, "velocity": 92}, {"time": 2140, "pitch": 70, "duration": 3, "velocity": 74}, {"time": 2140, "pitch": 74, "duration": 3, "velocity": 87}, {"time": 2146, "pitch": 70, "duration": 2, "velocity": 93}, {"time": 2146, "pitch": 74, "duration": 3, "velocity": 92}, {"time": 2152, "pitch": 70, "duration": 3, "velocity": 99}, {"time": 2152, "pitch": 74, "duration": 3, "velocity": 94}, {"time": 2158, "pitch": 72, "duration": 3, "velocity": 76}, {"time": 2158, "pitch": 75, "duration": 3, "velocity": 70}, {"time": 2164, "pitch": 72, "duration": 2, "velocity": 51}, {"time": 2164, "pitch": 75, "duration": 3, "velocity": 61}, {"time": 2170, "pitch": 72, "duration": 3, "velocity": 89}, {"time": 2170, "pitch": 75, "duration": 3, "velocity": 96}, {"time": 2176, "pitch": 72, "duration": 3, "velocity": 67}, {"time": 2176, "pitch": 75, "duration": 3, "velocity": 68}, {"time": 2182, "pitch": 72, "duration": 2, "velocity": 34}, {"time": 2182, "pitch": 75, "duration": 3, "velocity": 46}, {"time": 2188, "pitch": 72, "duration": 3, "velocity": 49}, {"time": 2188, "pitch": 75, "duration": 3, "velocity": 52}, {"time": 2194, "pitch": 72, "duration": 3, "velocity": 87}, {"time": 2194, "pitch": 75, "duration": 3, "velocity": 93}, {"time": 2200, "pitch": 72, "duration": 3, "velocity": 67}, {"time": 2200, "pitch": 75, "duration": 2, "velocity": 79}, {"time": 2206, "pitch": 74, "duration": 3, "velocity": 80}, {"time": 2212, "pitch": 70, "duration": 2, "velocity": 63}, {"time": 2212, "pitch": 74, "duration": 2, "velocity": 69}, {"time": 2218, "pitch": 70, "duration": 3, "velocity": 82}, {"time": 2218, "pitch": 74, "duration": 3, "velocity": 92}, {"time": 2224, "pitch": 70, "duration": 3, "velocity": 65}, {"time": 2224, "pitch": 74, "duration": 2, "velocity": 73}, {"time": 2230, "pitch": 70, "duration": 2, "velocity": 38}, {"time": 2230, "pitch": 74, "duration": 2, "velocity": 55}, {"time": 2236, "pitch": 70, "duration": 2, "velocity": 54}, {"time": 2236, "pitch": 74, "duration": 2, "velocity": 71}, {"time": 2242, "pitch": 70, "duration": 3, "velocity": 85}, {"time": 2242, "pitch": 74, "duration": 3, "velocity": 89}, {"time": 2248, "pitch": 70, "duration": 2, "velocity": 70}, {"time": 2248, "pitch": 74, "duration": 2, "velocity": 80}, {"time": 2254, "pitch": 72, "duration": 4, "velocity": 69}, {"time": 2254, "pitch": 75, "duration": 3, "velocity": 90}, {"time": 2260, "pitch": 72, "duration": 2, "velocity": 60}, {"time": 2260, "pitch": 75, "duration": 3, "velocity": 74}, {"time": 2266, "pitch": 72, "duration": 3, "velocity": 82}, {"time": 2266, "pitch": 75, "duration": 3, "velocity": 93}, {"time": 2272, "pitch": 72, "duration": 2, "velocity": 50}, {"time": 2272, "pitch": 75, "duration": 3, "velocity": 72}, {"time": 2278, "pitch": 72, "duration": 2, "velocity": 49}, {"time": 2278, "pitch": 75, "duration": 3, "velocity": 59}, {"time": 2284, "pitch": 72, "duration": 2, "velocity": 41}, {"time": 2284, "pitch": 75, "duration": 3, "velocity": 54}, {"time": 2290, "pitch": 72, "duration": 3, "velocity": 76}, {"time": 2290, "pitch": 75, "duration": 3, "velocity": 77}, {"time": 2296, "pitch": 72, "duration": 3, "velocity": 62}, {"time": 2296, "pitch": 75, "duration": 3, "velocity": 82}, {"time": 2302, "pitch": 70, "duration": 2, "velocity": 72}, {"time": 2302, "pitch": 74, "duration": 2, "velocity": 60}, {"time": 2308, "pitch": 70, "duration": 2, "velocity": 54}, {"time": 2308, "pitch": 74, "duration": 2, "velocity": 66}, {"time": 2314, "pitch": 70, "duration": 3, "velocity": 90}, {"time": 2314, "pitch": 74, "duration": 3, "velocity": 89}, {"time": 2320, "pitch": 70, "duration": 3, "velocity": 65}, {"time": 2320, "pitch": 74, "duration": 3, "velocity": 78}, {"time": 2326, "pitch": 70, "duration": 2, "velocity": 50}, {"time": 2326, "pitch": 74, "duration": 2, "velocity": 66}, {"time": 2332, "pitch": 70, "duration": 2, "velocity": 74}, {"time": 2332, "pitch": 74, "duration": 2, "velocity": 76}, {"time": 2338, "pitch": 70, "duration": 3, "velocity": 96}, {"time": 2338, "pitch": 74, "duration": 3, "velocity": 89}, {"time": 2344, "pitch": 70, "duration": 2, "velocity": 90}, {"time": 2344, "pitch": 74, "duration": 3, "velocity": 92}, {"time": 2350, "pitch": 72, "duration": 3, "velocity": 80}, {"time": 2350, "pitch": 75, "duration": 4, "velocity": 93}, {"time": 2356, "pitch": 72, "duration": 2, "velocity": 60}, {"time": 2356, "pitch": 75, "duration": 2, "velocity": 77}, {"time": 2362, "pitch": 72, "duration": 3, "velocity": 92}, {"time": 2362, "pitch": 75, "duration": 3, "velocity": 102}, {"time": 2368, "pitch": 72, "duration": 3, "velocity": 66}, {"time": 2368, "pitch": 75, "duration": 3, "velocity": 79}, {"time": 2374, "pitch": 72, "duration": 2, "velocity": 66}, {"time": 2374, "pitch": 75, "duration": 3, "velocity": 79}, {"time": 2380, "pitch": 72, "duration": 2, "velocity": 66}, {"time": 2380, "pitch": 75, "duration": 3, "velocity": 82}, {"time": 2386, "pitch": 72, "duration": 3, "velocity": 82}, {"time": 2386, "pitch": 75, "duration": 3, "velocity": 96}, {"time": 2392, "pitch": 72, "duration": 3, "velocity": 71}, {"time": 2392, "pitch": 75, "duration": 3, "velocity": 90}, {"time": 2398, "pitch": 70, "duration": 2, "velocity": 82}, {"time": 2398, "pitch": 74, "duration": 3, "velocity": 80}, {"time": 2404, "pitch": 70, "duration": 2, "velocity": 70}, {"time": 2404, "pitch": 74, "duration": 2, "velocity": 76}, {"time": 2410, "pitch": 70, "duration": 3, "velocity": 102}, {"time": 2410, "pitch": 74, "duration": 3, "velocity": 94}, {"time": 2416, "pitch": 70, "duration": 2, "velocity": 85}, {"time": 2416, "pitch": 74, "duration": 3, "velocity": 82}, {"time": 2422, "pitch": 70, "duration": 2, "velocity": 72}, {"time": 2422, "pitch": 74, "duration": 2, "velocity": 73}, {"time": 2428, "pitch": 70, "duration": 2, "velocity": 63}, {"time": 2428, "pitch": 74, "duration": 2, "velocity": 71}, {"time": 2434, "pitch": 70, "duration": 3, "velocity": 93}, {"time": 2434, "pitch": 74, "duration": 3, "velocity": 87}, {"time": 2440, "pitch": 70, "duration": 2, "velocity": 85}, {"time": 2440, "pitch": 74, "duration": 3, "velocity": 82}, {"time": 2446, "pitch": 72, "duration": 3, "velocity": 84}, {"time": 2446, "pitch": 75, "duration": 3, "velocity": 102}, {"time": 2452, "pitch": 72, "duration": 3, "velocity": 64}, {"time": 2452, "pitch": 75, "duration": 3, "velocity": 74}, {"time": 2458, "pitch": 72, "duration": 3, "velocity": 92}, {"time": 2458, "pitch": 75, "duration": 3, "velocity": 105}, {"time": 2464, "pitch": 72, "duration": 2, "velocity": 55}, {"time": 2464, "pitch": 75, "duration": 3, "velocity": 79}, {"time": 2470, "pitch": 70, "duration": 3, "velocity": 77}, {"time": 2470, "pitch": 74, "duration": 3, "velocity": 80}, {"time": 2476, "pitch": 70, "duration": 3, "velocity": 82}, {"time": 2476, "pitch": 74, "duration": 3, "velocity": 76}, {"time": 2482, "pitch": 70, "duration": 3, "velocity": 96}, {"time": 2482, "pitch": 74, "duration": 3, "velocity": 89}, {"time": 2488, "pitch": 70, "duration": 3, "velocity": 96}, {"time": 2488, "pitch": 74, "duration": 3, "velocity": 89}, {"time": 2494, "pitch": 72, "duration": 3, "velocity": 84}, {"time": 2494, "pitch": 75, "duration": 3, "velocity": 99}, {"time": 2500, "pitch": 72, "duration": 3, "velocity": 69}, {"time": 2500, "pitch": 75, "duration": 3, "velocity": 93}, {"time": 2506, "pitch": 72, "duration": 3, "velocity": 87}, {"time": 2506, "pitch": 75, "duration": 3, "velocity": 99}, {"time": 2512, "pitch": 72, "duration": 3, "velocity": 87}, {"time": 2512, "pitch": 75, "duration": 2, "velocity": 99}, {"time": 2518, "pitch": 70, "duration": 2, "velocity": 87}, {"time": 2518, "pitch": 74, "duration": 2, "velocity": 92}, {"time": 2524, "pitch": 70, "duration": 3, "velocity": 74}, {"time": 2524, "pitch": 74, "duration": 3, "velocity": 87}, {"time": 2530, "pitch": 70, "duration": 2, "velocity": 93}, {"time": 2530, "pitch": 74, "duration": 3, "velocity": 92}, {"time": 2536, "pitch": 70, "duration": 3, "velocity": 99}, {"time": 2536, "pitch": 74, "duration": 3, "velocity": 94}, {"time": 3022, "pitch": 72, "duration": 3, "velocity": 76}, {"time": 3022, "pitch": 75, "duration": 3, "velocity": 70}, {"time": 3028, "pitch": 72, "duration": 2, "velocity": 51}, {"time": 3028, "pitch": 75, "duration": 3, "velocity": 61}, {"time": 3034, "pitch": 72, "duration": 3, "velocity": 89}, {"time": 3034, "pitch": 75, "duration": 3, "velocity": 96}, {"time": 3040, "pitch": 72, "duration": 3, "velocity": 67}, {"time": 3040, "pitch": 75, "duration": 3, "velocity": 68}, {"time": 3046, "pitch": 72, "duration": 2, "velocity": 34}, {"time": 3046, "pitch": 75, "duration": 3, "velocity": 46}, {"time": 3052, "pitch": 72, "duration": 3, "velocity": 49}, {"time": 3052, "pitch": 75, "duration": 3, "velocity": 52}, {"time": 3058, "pitch": 72, "duration": 3, "velocity": 87}, {"time": 3058, "pitch": 75, "duration": 3, "velocity": 93}, {"time": 3064, "pitch": 72, "duration": 3, "velocity": 67}, {"time": 3064, "pitch": 75, "duration": 2, "velocity": 79}, {"time": 3070, "pitch": 74, "duration": 3, "velocity": 80}, {"time": 3076, "pitch": 70, "duration": 2, "velocity": 63}, {"time": 3076, "pitch": 74, "duration": 2, "velocity": 69}, {"time": 3082, "pitch": 70, "duration": 3, "velocity": 82}, {"time": 3082, "pitch": 74, "duration": 3, "velocity": 92}, {"time": 3088, "pitch": 70, "duration": 3, "velocity": 65}, {"time": 3088, "pitch": 74, "duration": 2, "velocity": 73}, {"time": 3094, "pitch": 70, "duration": 2, "velocity": 38}, {"time": 3094, "pitch": 74, "duration": 2, "velocity": 55}, {"time": 3100, "pitch": 70, "duration": 2, "velocity": 54}, {"time": 3100, "pitch": 74, "duration": 2, "velocity": 71}, {"time": 3106, "pitch": 70, "duration": 3, "velocity": 85}, {"time": 3106, "pitch": 74, "duration": 3, "velocity": 89}, {"time": 3112, "pitch": 70, "duration": 2, "velocity": 70}, {"time": 3112, "pitch": 74, "duration": 2, "velocity": 80}, {"time": 3118, "pitch": 72, "duration": 4, "velocity": 69}, {"time": 3118, "pitch": 75, "duration": 3, "velocity": 90}, {"time": 3124, "pitch": 72, "duration": 2, "velocity": 60}, {"time": 3124, "pitch": 75, "duration": 3, "velocity": 74}, {"time": 3130, "pitch": 72, "duration": 3, "velocity": 82}, {"time": 3130, "pitch": 75, "duration": 3, "velocity": 93}, {"time": 3136, "pitch": 72, "duration": 2, "velocity": 50}, {"time": 3136, "pitch": 75, "duration": 3, "velocity": 72}, {"time": 3142, "pitch": 72, "duration": 2, "velocity": 49}, {"time": 3142, "pitch": 75, "duration": 3, "velocity": 59}, {"time": 3148, "pitch": 72, "duration": 2, "velocity": 41}, {"time": 3148, "pitch": 75, "duration": 3, "velocity": 54}, {"time": 3154, "pitch": 72, "duration": 3, "velocity": 76}, {"time": 3154, "pitch": 75, "duration": 3, "velocity": 77}, {"time": 3160, "pitch": 72, "duration": 3, "velocity": 62}, {"time": 3160, "pitch": 75, "duration": 3, "velocity": 82}, {"time": 3166, "pitch": 70, "duration": 2, "velocity": 72}, {"time": 3166, "pitch": 74, "duration": 2, "velocity": 60}, {"time": 3172, "pitch": 70, "duration": 2, "velocity": 54}, {"time": 3172, "pitch": 74, "duration": 2, "velocity": 66}, {"time": 3178, "pitch": 70, "duration": 3, "velocity": 90}, {"time": 3178, "pitch": 74, "duration": 3, "velocity": 89}, {"time": 3184, "pitch": 70, "duration": 3, "velocity": 65}, {"time": 3184, "pitch": 74, "duration": 3, "velocity": 78}, {"time": 3190, "pitch": 70, "duration": 2, "velocity": 50}, {"time": 3190, "pitch": 74, "duration": 2, "velocity": 66}, {"time": 3196, "pitch": 70, "duration": 2, "velocity": 74}, {"time": 3196, "pitch": 74, "duration": 2, "velocity": 76}, {"time": 3202, "pitch": 70, "duration": 3, "velocity": 96}, {"time": 3202, "pitch": 74, "duration": 3, "velocity": 89}, {"time": 3208, "pitch": 70, "duration": 2, "velocity": 90}, {"time": 3208, "pitch": 74, "duration": 3, "velocity": 92}, {"time": 3214, "pitch": 72, "duration": 3, "velocity": 80}, {"time": 3214, "pitch": 75, "duration": 4, "velocity": 93}, {"time": 3220, "pitch": 72, "duration": 2, "velocity": 60}, {"time": 3220, "pitch": 75, "duration": 2, "velocity": 77}, {"time": 3226, "pitch": 72, "duration": 3, "velocity": 92}, {"time": 3226, "pitch": 75, "duration": 3, "velocity": 102}, {"time": 3232, "pitch": 72, "duration": 3, "velocity": 66}, {"time": 3232, "pitch": 75, "duration": 3, "velocity": 79}, {"time": 3238, "pitch": 72, "duration": 2, "velocity": 66}, {"time": 3238, "pitch": 75, "duration": 3, "velocity": 79}, {"time": 3244, "pitch": 72, "duration": 2, "velocity": 66}, {"time": 3244, "pitch": 75, "duration": 3, "velocity": 82}, {"time": 3250, "pitch": 72, "duration": 3, "velocity": 82}, {"time": 3250, "pitch": 75, "duration": 3, "velocity": 96}, {"time": 3256, "pitch": 72, "duration": 3, "velocity": 71}, {"time": 3256, "pitch": 75, "duration": 3, "velocity": 90}, {"time": 3262, "pitch": 70, "duration": 2, "velocity": 82}, {"time": 3262, "pitch": 74, "duration": 3, "velocity": 80}, {"time": 3268, "pitch": 70, "duration": 2, "velocity": 70}, {"time": 3268, "pitch": 74, "duration": 2, "velocity": 76}, {"time": 3274, "pitch": 70, "duration": 3, "velocity": 102}, {"time": 3274, "pitch": 74, "duration": 3, "velocity": 94}, {"time": 3280, "pitch": 70, "duration": 2, "velocity": 85}, {"time": 3280, "pitch": 74, "duration": 3, "velocity": 82}, {"time": 3286, "pitch": 70, "duration": 2, "velocity": 72}, {"time": 3286, "pitch": 74, "duration": 2, "velocity": 73}, {"time": 3292, "pitch": 70, "duration": 2, "velocity": 63}, {"time": 3292, "pitch": 74, "duration": 2, "velocity": 71}, {"time": 3298, "pitch": 70, "duration": 3, "velocity": 93}, {"time": 3298, "pitch": 74, "duration": 3, "velocity": 87}, {"time": 3304, "pitch": 70, "duration": 2, "velocity": 85}, {"time": 3304, "pitch": 74, "duration": 3, "velocity": 82}, {"time": 3310, "pitch": 72, "duration": 3, "velocity": 84}, {"time": 3310, "pitch": 75, "duration": 3, "velocity": 102}, {"time": 3316, "pitch": 72, "duration": 3, "velocity": 64}, {"time": 3316, "pitch": 75, "duration": 3, "velocity": 74}, {"time": 3322, "pitch": 72, "duration": 3, "velocity": 92}, {"time": 3322, "pitch": 75, "duration": 3, "velocity": 105}, {"time": 3328, "pitch": 72, "duration": 2, "velocity": 55}, {"time": 3328, "pitch": 75, "duration": 3, "velocity": 79}, {"time": 3334, "pitch": 70, "duration": 3, "velocity": 77}, {"time": 3334, "pitch": 74, "duration": 3, "velocity": 80}, {"time": 3340, "pitch": 70, "duration": 3, "velocity": 82}, {"time": 3340, "pitch": 74, "duration": 3, "velocity": 76}, {"time": 3346, "pitch": 70, "duration": 3, "velocity": 96}, {"time": 3346, "pitch": 74, "duration": 3, "velocity": 89}, {"time": 3352, "pitch": 70, "duration": 3, "velocity": 96}, {"time": 3352, "pitch": 74, "duration": 3, "velocity": 89}, {"time": 3358, "pitch": 72, "duration": 3, "velocity": 84}, {"time": 3358, "pitch": 75, "duration": 3, "velocity": 99}, {"time": 3364, "pitch": 72, "duration": 3, "velocity": 69}, {"time": 3364, "pitch": 75, "duration": 3, "velocity": 93}, {"time": 3370, "pitch": 72, "duration": 3, "velocity": 87}, {"time": 3370, "pitch": 75, "duration": 3, "velocity": 99}, {"time": 3376, "pitch": 72, "duration": 3, "velocity": 87}, {"time": 3376, "pitch": 75, "duration": 2, "velocity": 99}, {"time": 3382, "pitch": 70, "duration": 2, "velocity": 87}, {"time": 3382, "pitch": 74, "duration": 2, "velocity": 92}, {"time": 3388, "pitch": 70, "duration": 3, "velocity": 74}, {"time": 3388, "pitch": 74, "duration": 3, "velocity": 87}, {"time": 3394, "pitch": 70, "duration": 2, "velocity": 93}, {"time": 3394, "pitch": 74, "duration": 3, "velocity": 92}, {"time": 3400, "pitch": 70, "duration": 3, "velocity": 99}, {"time": 3400, "pitch": 74, "duration": 3, "velocity": 94}, {"time": 3406, "pitch": 72, "duration": 3, "velocity": 76}, {"time": 3406, "pitch": 75, "duration": 3, "velocity": 70}, {"time": 3412, "pitch": 72, "duration": 2, "velocity": 51}, {"time": 3412, "pitch": 75, "duration": 3, "velocity": 61}, {"time": 3418, "pitch": 72, "duration": 3, "velocity": 89}, {"time": 3418, "pitch": 75, "duration": 3, "velocity": 96}, {"time": 3424, "pitch": 72, "duration": 3, "velocity": 67}, {"time": 3424, "pitch": 75, "duration": 3, "velocity": 68}, {"time": 3430, "pitch": 72, "duration": 2, "velocity": 34}, {"time": 3430, "pitch": 75, "duration": 3, "velocity": 46}, {"time": 3436, "pitch": 72, "duration": 3, "velocity": 49}, {"time": 3436, "pitch": 75, "duration": 3, "velocity": 52}, {"time": 3442, "pitch": 72, "duration": 3, "velocity": 87}, {"time": 3442, "pitch": 75, "duration": 3, "velocity": 93}, {"time": 3448, "pitch": 72, "duration": 3, "velocity": 67}, {"time": 3448, "pitch": 75, "duration": 2, "velocity": 79}, {"time": 3454, "pitch": 74, "duration": 3, "velocity": 80}, {"time": 3460, "pitch": 70, "duration": 2, "velocity": 63}, {"time": 3460, "pitch": 74, "duration": 2, "velocity": 69}, {"time": 3466, "pitch": 70, "duration": 3, "velocity": 82}, {"time": 3466, "pitch": 74, "duration": 3, "velocity": 92}, {"time": 3472, "pitch": 70, "duration": 3, "velocity": 65}, {"time": 3472, "pitch": 74, "duration": 2, "velocity": 73}, {"time": 3478, "pitch": 70, "duration": 2, "velocity": 38}, {"time": 3478, "pitch": 74, "duration": 2, "velocity": 55}, {"time": 3484, "pitch": 70, "duration": 2, "velocity": 54}, {"time": 3484, "pitch": 74, "duration": 2, "velocity": 71}, {"time": 3490, "pitch": 70, "duration": 3, "velocity": 85}, {"time": 3490, "pitch": 74, "duration": 3, "velocity": 89}, {"time": 3496, "pitch": 70, "duration": 2, "velocity": 70}, {"time": 3496, "pitch": 74, "duration": 2, "velocity": 80}, {"time": 3502, "pitch": 72, "duration": 4, "velocity": 69}, {"time": 3502, "pitch": 75, "duration": 3, "velocity": 90}, {"time": 3508, "pitch": 72, "duration": 2, "velocity": 60}, {"time": 3508, "pitch": 75, "duration": 3, "velocity": 74}, {"time": 3514, "pitch": 72, "duration": 3, "velocity": 82}, {"time": 3514, "pitch": 75, "duration": 3, "velocity": 93}, {"time": 3520, "pitch": 72, "duration": 2, "velocity": 50}, {"time": 3520, "pitch": 75, "duration": 3, "velocity": 72}, {"time": 3526, "pitch": 72, "duration": 2, "velocity": 49}, {"time": 3526, "pitch": 75, "duration": 3, "velocity": 59}, {"time": 3532, "pitch": 72, "duration": 2, "velocity": 41}, {"time": 3532, "pitch": 75, "duration": 3, "velocity": 54}, {"time": 3538, "pitch": 72, "duration": 3, "velocity": 76}, {"time": 3538, "pitch": 75, "duration": 3, "velocity": 77}, {"time": 3544, "pitch": 72, "duration": 3, "velocity": 62}, {"time": 3544, "pitch": 75, "duration": 3, "velocity": 82}, {"time": 3550, "pitch": 70, "duration": 2, "velocity": 72}, {"time": 3550, "pitch": 74, "duration": 2, "velocity": 60}, {"time": 3556, "pitch": 70, "duration": 2, "velocity": 54}, {"time": 3556, "pitch": 74, "duration": 2, "velocity": 66}, {"time": 3562, "pitch": 70, "duration": 3, "velocity": 90}, {"time": 3562, "pitch": 74, "duration": 3, "velocity": 89}, {"time": 3568, "pitch": 70, "duration": 3, "velocity": 65}, {"time": 3568, "pitch": 74, "duration": 3, "velocity": 78}, {"time": 3574, "pitch": 70, "duration": 2, "velocity": 50}, {"time": 3574, "pitch": 74, "duration": 2, "velocity": 66}, {"time": 3580, "pitch": 70, "duration": 2, "velocity": 74}, {"time": 3580, "pitch": 74, "duration": 2, "velocity": 76}, {"time": 3586, "pitch": 70, "duration": 3, "velocity": 96}, {"time": 3586, "pitch": 74, "duration": 3, "velocity": 89}, {"time": 3592, "pitch": 70, "duration": 2, "velocity": 90}, {"time": 3592, "pitch": 74, "duration": 3, "velocity": 92}, {"time": 3598, "pitch": 72, "duration": 3, "velocity": 80}, {"time": 3598, "pitch": 75, "duration": 4, "velocity": 93}, {"time": 3604, "pitch": 72, "duration": 2, "velocity": 60}, {"time": 3604, "pitch": 75, "duration": 2, "velocity": 77}, {"time": 3610, "pitch": 72, "duration": 3, "velocity": 92}, {"time": 3610, "pitch": 75, "duration": 3, "velocity": 102}, {"time": 3616, "pitch": 72, "duration": 3, "velocity": 66}, {"time": 3616, "pitch": 75, "duration": 3, "velocity": 79}, {"time": 3622, "pitch": 72, "duration": 2, "velocity": 66}, {"time": 3622, "pitch": 75, "duration": 3, "velocity": 79}, {"time": 3628, "pitch": 72, "duration": 2, "velocity": 66}, {"time": 3628, "pitch": 75, "duration": 3, "velocity": 82}, {"time": 3634, "pitch": 72, "duration": 3, "velocity": 82}, {"time": 3634, "pitch": 75, "duration": 3, "velocity": 96}, {"time": 3640, "pitch": 72, "duration": 3, "velocity": 71}, {"time": 3640, "pitch": 75, "duration": 3, "velocity": 90}, {"time": 3646, "pitch": 70, "duration": 2, "velocity": 82}, {"time": 3646, "pitch": 74, "duration": 3, "velocity": 80}, {"time": 3652, "pitch": 70, "duration": 2, "velocity": 70}, {"time": 3652, "pitch": 74, "duration": 2, "velocity": 76}, {"time": 3658, "pitch": 70, "duration": 3, "velocity": 102}, {"time": 3658, "pitch": 74, "duration": 3, "velocity": 94}, {"time": 3664, "pitch": 70, "duration": 2, "velocity": 85}, {"time": 3664, "pitch": 74, "duration": 3, "velocity": 82}, {"time": 3670, "pitch": 70, "duration": 2, "velocity": 72}, {"time": 3670, "pitch": 74, "duration": 2, "velocity": 73}, {"time": 3676, "pitch": 70, "duration": 2, "velocity": 63}, {"time": 3676, "pitch": 74, "duration": 2, "velocity": 71}, {"time": 3682, "pitch": 70, "duration": 3, "velocity": 93}, {"time": 3682, "pitch": 74, "duration": 3, "velocity": 87}, {"time": 3688, "pitch": 70, "duration": 2, "velocity": 85}, {"time": 3688, "pitch": 74, "duration": 3, "velocity": 82}, {"time": 3694, "pitch": 72, "duration": 3, "velocity": 84}, {"time": 3694, "pitch": 75, "duration": 3, "velocity": 102}, {"time": 3700, "pitch": 72, "duration": 3, "velocity": 64}, {"time": 3700, "pitch": 75, "duration": 3, "velocity": 74}, {"time": 3706, "pitch": 72, "duration": 3, "velocity": 92}, {"time": 3706, "pitch": 75, "duration": 3, "velocity": 105}, {"time": 3712, "pitch": 72, "duration": 2, "velocity": 55}, {"time": 3712, "pitch": 75, "duration": 3, "velocity": 79}, {"time": 3718, "pitch": 70, "duration": 3, "velocity": 77}, {"time": 3718, "pitch": 74, "duration": 3, "velocity": 80}, {"time": 3724, "pitch": 70, "duration": 3, "velocity": 82}, {"time": 3724, "pitch": 74, "duration": 3, "velocity": 76}, {"time": 3730, "pitch": 70, "duration": 3, "velocity": 96}, {"time": 3730, "pitch": 74, "duration": 3, "velocity": 89}, {"time": 3736, "pitch": 70, "duration": 3, "velocity": 96}, {"time": 3736, "pitch": 74, "duration": 3, "velocity": 89}, {"time": 3742, "pitch": 72, "duration": 3, "velocity": 84}, {"time": 3742, "pitch": 75, "duration": 3, "velocity": 99}, {"time": 3748, "pitch": 72, "duration": 3, "velocity": 69}, {"time": 3748, "pitch": 75, "duration": 3, "velocity": 93}, {"time": 3754, "pitch": 72, "duration": 3, "velocity": 87}, {"time": 3754, "pitch": 75, "duration": 3, "velocity": 99}, {"time": 3760, "pitch": 72, "duration": 3, "velocity": 87}, {"time": 3760, "pitch": 75, "duration": 2, "velocity": 99}, {"time": 3766, "pitch": 70, "duration": 2, "velocity": 87}, {"time": 3766, "pitch": 74, "duration": 2, "velocity": 92}, {"time": 3772, "pitch": 67, "duration": 3, "velocity": 106}, {"time": 3772, "pitch": 70, "duration": 3, "velocity": 74}, {"time": 3772, "pitch": 74, "duration": 3, "velocity": 87}, {"time": 3775, "pitch": 70, "duration": 2, "velocity": 111}, {"time": 3778, "pitch": 70, "duration": 2, "velocity": 93}, {"time": 3778, "pitch": 72, "duration": 3, "velocity": 117}, {"time": 3778, "pitch": 74, "duration": 3, "velocity": 92}, {"time": 3781, "pitch": 74, "duration": 3, "velocity": 114}, {"time": 3784, "pitch": 70, "duration": 3, "velocity": 99}, {"time": 3784, "pitch": 74, "duration": 1, "velocity": 94}, {"time": 3784, "pitch": 75, "duration": 3, "velocity": 124}, {"time": 3787, "pitch": 77, "duration": 3, "velocity": 112}, {"time": 3790, "pitch": 79, "duration": 36, "velocity": 109}, {"time": 3826, "pitch": 82, "duration": 3, "velocity": 109}, {"time": 3832, "pitch": 77, "duration": 8, "velocity": 114}, {"time": 3844, "pitch": 75, "duration": 3, "velocity": 116}, {"time": 3850, "pitch": 74, "duration": 3, "velocity": 117}, {"time": 3856, "pitch": 75, "duration": 4, "velocity": 112}, {"time": 3862, "pitch": 74, "duration": 6, "velocity": 117}, {"time": 3868, "pitch": 77, "duration": 6, "velocity": 105}, {"time": 3871, "pitch": 74, "duration": 3, "velocity": 94}, {"time": 3874, "pitch": 70, "duration": 3, "velocity": 112}, {"time": 3877, "pitch": 67, "duration": 4, "velocity": 102}, {"time": 3880, "pitch": 72, "duration": 9, "velocity": 97}, {"time": 3892, "pitch": 72, "duration": 3, "velocity": 114}, {"time": 3895, "pitch": 75, "duration": 3, "velocity": 112}, {"time": 3898, "pitch": 72, "duration": 6, "velocity": 111}, {"time": 3910, "pitch": 70, "duration": 4, "velocity": 112}, {"time": 3916, "pitch": 67, "duration": 3, "velocity": 108}, {"time": 3922, "pitch": 70, "duration": 5, "velocity": 116}, {"time": 3928, "pitch": 67, "duration": 5, "velocity": 117}, {"time": 3940, "pitch": 63, "duration": 4, "velocity": 109}, {"time": 3946, "pitch": 65, "duration": 5, "velocity": 114}, {"time": 3952, "pitch": 63, "duration": 3, "velocity": 116}, {"time": 3957, "pitch": 66, "duration": 3, "velocity": 109}, {"time": 3959, "pitch": 67, "duration": 3, "velocity": 102}, {"time": 3964, "pitch": 70, "duration": 3, "velocity": 119}, {"time": 3970, "pitch": 72, "duration": 3, "velocity": 120}, {"time": 3976, "pitch": 70, "duration": 4, "velocity": 116}, {"time": 3982, "pitch": 72, "duration": 10, "velocity": 117}, {"time": 3994, "pitch": 75, "duration": 6, "velocity": 116}, {"time": 4003, "pitch": 72, "duration": 3, "velocity": 108}, {"time": 4006, "pitch": 75, "duration": 5, "velocity": 119}, {"time": 4012, "pitch": 72, "duration": 12, "velocity": 120}, {"time": 4024, "pitch": 67, "duration": 5, "velocity": 120}, {"time": 4036, "pitch": 70, "duration": 3, "velocity": 109}, {"time": 4042, "pitch": 72, "duration": 4, "velocity": 114}, {"time": 4048, "pitch": 70, "duration": 3, "velocity": 116}, {"time": 4054, "pitch": 72, "duration": 2, "velocity": 120}, {"time": 4060, "pitch": 75, "duration": 3, "velocity": 116}, {"time": 4066, "pitch": 77, "duration": 7, "velocity": 114}, {"time": 4072, "pitch": 75, "duration": 2, "velocity": 116}, {"time": 4078, "pitch": 78, "duration": 3, "velocity": 116}, {"time": 4079, "pitch": 79, "duration": 15, "velocity": 117}, {"time": 4087, "pitch": 75, "duration": 3, "velocity": 105}, {"time": 4090, "pitch": 72, "duration": 4, "velocity": 114}, {"time": 4096, "pitch": 75, "duration": 13, "velocity": 116}, {"time": 4119, "pitch": 72, "duration": 4, "velocity": 117}, {"time": 4122, "pitch": 75, "duration": 2, "velocity": 116}, {"time": 4125, "pitch": 83, "duration": 3, "velocity": 97}, {"time": 4126, "pitch": 84, "duration": 24, "velocity": 105}, {"time": 4156, "pitch": 82, "duration": 5, "velocity": 116}, {"time": 4162, "pitch": 84, "duration": 6, "velocity": 105}, {"time": 4168, "pitch": 86, "duration": 2, "velocity": 111}, {"time": 4169, "pitch": 87, "duration": 5, "velocity": 96}, {"time": 4174, "pitch": 86, "duration": 28, "velocity": 114}, {"time": 4204, "pitch": 87, "duration": 6, "velocity": 116}, {"time": 4210, "pitch": 86, "duration": 3, "velocity": 114}, {"time": 4216, "pitch": 82, "duration": 20, "velocity": 112}, {"time": 4241, "pitch": 78, "duration": 3, "velocity": 119}, {"time": 4242, "pitch": 79, "duration": 6, "velocity": 117}, {"time": 4246, "pitch": 77, "duration": 4, "velocity": 99}, {"time": 4249, "pitch": 75, "duration": 4, "velocity": 99}, {"time": 4252, "pitch": 72, "duration": 4, "velocity": 107}, {"time": 4258, "pitch": 77, "duration": 7, "velocity": 117}, {"time": 4264, "pitch": 75, "duration": 5, "velocity": 109}, {"time": 4270, "pitch": 72, "duration": 3, "velocity": 76}, {"time": 4270, "pitch": 75, "duration": 3, "velocity": 70}, {"time": 4271, "pitch": 78, "duration": 1, "velocity": 93}, {"time": 4271, "pitch": 72, "duration": 2, "velocity": 84}, {"time": 4271, "pitch": 79, "duration": 15, "velocity": 102}, {"time": 4276, "pitch": 72, "duration": 2, "velocity": 51}, {"time": 4276, "pitch": 75, "duration": 3, "velocity": 61}, {"time": 4282, "pitch": 72, "duration": 3, "velocity": 89}, {"time": 4282, "pitch": 75, "duration": 3, "velocity": 96}, {"time": 4288, "pitch": 72, "duration": 3, "velocity": 67}, {"time": 4288, "pitch": 75, "duration": 3, "velocity": 68}, {"time": 4294, "pitch": 72, "duration": 2, "velocity": 34}, {"time": 4294, "pitch": 75, "duration": 3, "velocity": 46}, {"time": 4300, "pitch": 72, "duration": 3, "velocity": 49}, {"time": 4300, "pitch": 75, "duration": 3, "velocity": 52}, {"time": 4306, "pitch": 72, "duration": 3, "velocity": 87}, {"time": 4306, "pitch": 75, "duration": 3, "velocity": 93}, {"time": 4312, "pitch": 72, "duration": 3, "velocity": 67}, {"time": 4312, "pitch": 75, "duration": 2, "velocity": 79}, {"time": 4318, "pitch": 74, "duration": 3, "velocity": 80}, {"time": 4324, "pitch": 70, "duration": 2, "velocity": 63}, {"time": 4324, "pitch": 74, "duration": 2, "velocity": 69}, {"time": 4330, "pitch": 70, "duration": 3, "velocity": 82}, {"time": 4330, "pitch": 74, "duration": 3, "velocity": 92}, {"time": 4336, "pitch": 70, "duration": 3, "velocity": 65}, {"time": 4336, "pitch": 74, "duration": 2, "velocity": 73}, {"time": 4342, "pitch": 70, "duration": 2, "velocity": 38}, {"time": 4342, "pitch": 74, "duration": 2, "velocity": 55}, {"time": 4348, "pitch": 70, "duration": 2, "velocity": 54}, {"time": 4348, "pitch": 74, "duration": 2, "velocity": 71}, {"time": 4354, "pitch": 70, "duration": 3, "velocity": 85}, {"time": 4354, "pitch": 74, "duration": 3, "velocity": 89}, {"time": 4360, "pitch": 70, "duration": 2, "velocity": 70}, {"time": 4360, "pitch": 74, "duration": 2, "velocity": 80}, {"time": 4366, "pitch": 72, "duration": 4, "velocity": 69}, {"time": 4366, "pitch": 75, "duration": 3, "velocity": 90}, {"time": 4372, "pitch": 72, "duration": 2, "velocity": 60}, {"time": 4372, "pitch": 75, "duration": 3, "velocity": 74}, {"time": 4378, "pitch": 72, "duration": 3, "velocity": 82}, {"time": 4378, "pitch": 75, "duration": 3, "velocity": 93}, {"time": 4384, "pitch": 72, "duration": 2, "velocity": 50}, {"time": 4384, "pitch": 75, "duration": 3, "velocity": 72}, {"time": 4390, "pitch": 72, "duration": 2, "velocity": 49}, {"time": 4390, "pitch": 75, "duration": 3, "velocity": 59}, {"time": 4396, "pitch": 72, "duration": 2, "velocity": 41}, {"time": 4396, "pitch": 75, "duration": 3, "velocity": 54}, {"time": 4402, "pitch": 72, "duration": 3, "velocity": 76}, {"time": 4402, "pitch": 75, "duration": 3, "velocity": 77}, {"time": 4408, "pitch": 72, "duration": 3, "velocity": 62}, {"time": 4408, "pitch": 75, "duration": 3, "velocity": 82}, {"time": 4414, "pitch": 70, "duration": 2, "velocity": 72}, {"time": 4414, "pitch": 74, "duration": 2, "velocity": 60}, {"time": 4420, "pitch": 70, "duration": 2, "velocity": 54}, {"time": 4420, "pitch": 74, "duration": 2, "velocity": 66}, {"time": 4426, "pitch": 70, "duration": 3, "velocity": 90}, {"time": 4426, "pitch": 74, "duration": 3, "velocity": 89}, {"time": 4432, "pitch": 70, "duration": 3, "velocity": 65}, {"time": 4432, "pitch": 74, "duration": 3, "velocity": 78}, {"time": 4438, "pitch": 70, "duration": 2, "velocity": 50}, {"time": 4438, "pitch": 74, "duration": 2, "velocity": 66}, {"time": 4444, "pitch": 70, "duration": 2, "velocity": 74}, {"time": 4444, "pitch": 74, "duration": 2, "velocity": 76}, {"time": 4450, "pitch": 70, "duration": 3, "velocity": 96}, {"time": 4450, "pitch": 74, "duration": 3, "velocity": 89}, {"time": 4456, "pitch": 70, "duration": 2, "velocity": 90}, {"time": 4456, "pitch": 74, "duration": 3, "velocity": 92}, {"time": 4462, "pitch": 72, "duration": 3, "velocity": 80}, {"time": 4462, "pitch": 75, "duration": 4, "velocity": 93}, {"time": 4468, "pitch": 72, "duration": 2, "velocity": 60}, {"time": 4468, "pitch": 75, "duration": 2, "velocity": 77}, {"time": 4474, "pitch": 72, "duration": 3, "velocity": 92}, {"time": 4474, "pitch": 75, "duration": 3, "velocity": 102}, {"time": 4480, "pitch": 72, "duration": 3, "velocity": 66}, {"time": 4480, "pitch": 75, "duration": 3, "velocity": 79}, {"time": 4486, "pitch": 72, "duration": 2, "velocity": 66}, {"time": 4486, "pitch": 75, "duration": 3, "velocity": 79}, {"time": 4492, "pitch": 72, "duration": 2, "velocity": 66}, {"time": 4492, "pitch": 75, "duration": 3, "velocity": 82}, {"time": 4498, "pitch": 72, "duration": 3, "velocity": 82}, {"time": 4498, "pitch": 75, "duration": 3, "velocity": 96}, {"time": 4504, "pitch": 72, "duration": 3, "velocity": 71}, {"time": 4504, "pitch": 75, "duration": 3, "velocity": 90}, {"time": 4510, "pitch": 70, "duration": 2, "velocity": 82}, {"time": 4510, "pitch": 74, "duration": 3, "velocity": 80}, {"time": 4516, "pitch": 70, "duration": 2, "velocity": 70}, {"time": 4516, "pitch": 74, "duration": 2, "velocity": 76}, {"time": 4522, "pitch": 70, "duration": 3, "velocity": 102}, {"time": 4522, "pitch": 74, "duration": 3, "velocity": 94}, {"time": 4528, "pitch": 70, "duration": 2, "velocity": 85}, {"time": 4528, "pitch": 74, "duration": 3, "velocity": 82}, {"time": 4534, "pitch": 70, "duration": 2, "velocity": 72}, {"time": 4534, "pitch": 74, "duration": 2, "velocity": 73}, {"time": 4540, "pitch": 70, "duration": 2, "velocity": 63}, {"time": 4540, "pitch": 74, "duration": 2, "velocity": 71}, {"time": 4546, "pitch": 70, "duration": 3, "velocity": 93}, {"time": 4546, "pitch": 74, "duration": 3, "velocity": 87}, {"time": 4552, "pitch": 70, "duration": 2, "velocity": 85}, {"time": 4552, "pitch": 74, "duration": 3, "velocity": 82}, {"time": 4558, "pitch": 72, "duration": 3, "velocity": 84}, {"time": 4558, "pitch": 75, "duration": 3, "velocity": 102}, {"time": 4564, "pitch": 72, "duration": 3, "velocity": 64}, {"time": 4564, "pitch": 75, "duration": 3, "velocity": 74}, {"time": 4570, "pitch": 72, "duration": 3, "velocity": 92}, {"time": 4570, "pitch": 75, "duration": 3, "velocity": 105}, {"time": 4576, "pitch": 72, "duration": 2, "velocity": 55}, {"time": 4576, "pitch": 75, "duration": 3, "velocity": 79}, {"time": 4582, "pitch": 70, "duration": 3, "velocity": 77}, {"time": 4582, "pitch": 74, "duration": 3, "velocity": 80}, {"time": 4588, "pitch": 70, "duration": 3, "velocity": 82}, {"time": 4588, "pitch": 74, "duration": 3, "velocity": 76}, {"time": 4594, "pitch": 70, "duration": 3, "velocity": 96}, {"time": 4594, "pitch": 74, "duration": 3, "velocity": 89}, {"time": 4600, "pitch": 70, "duration": 3, "velocity": 96}, {"time": 4600, "pitch": 74, "duration": 3, "velocity": 89}, {"time": 4606, "pitch": 72, "duration": 3, "velocity": 84}, {"time": 4606, "pitch": 75, "duration": 3, "velocity": 99}, {"time": 4612, "pitch": 72, "duration": 3, "velocity": 69}, {"time": 4612, "pitch": 75, "duration": 3, "velocity": 93}, {"time": 4618, "pitch": 72, "duration": 3, "velocity": 87}, {"time": 4618, "pitch": 75, "duration": 3, "velocity": 99}, {"time": 4624, "pitch": 72, "duration": 3, "velocity": 87}, {"time": 4624, "pitch": 75, "duration": 2, "velocity": 99}, {"time": 4630, "pitch": 70, "duration": 2, "velocity": 87}, {"time": 4630, "pitch": 74, "duration": 2, "velocity": 92}, {"time": 4636, "pitch": 70, "duration": 3, "velocity": 74}, {"time": 4636, "pitch": 74, "duration": 3, "velocity": 87}, {"time": 4642, "pitch": 70, "duration": 2, "velocity": 93}, {"time": 4642, "pitch": 74, "duration": 3, "velocity": 92}, {"time": 4648, "pitch": 70, "duration": 3, "velocity": 99}, {"time": 4648, "pitch": 74, "duration": 3, "velocity": 94}, {"time": 4654, "pitch": 72, "duration": 3, "velocity": 76}, {"time": 4654, "pitch": 75, "duration": 3, "velocity": 70}, {"time": 4660, "pitch": 72, "duration": 2, "velocity": 51}, {"time": 4660, "pitch": 75, "duration": 3, "velocity": 61}, {"time": 4666, "pitch": 72, "duration": 3, "velocity": 89}, {"time": 4666, "pitch": 75, "duration": 3, "velocity": 96}, {"time": 4672, "pitch": 72, "duration": 3, "velocity": 67}, {"time": 4672, "pitch": 75, "duration": 3, "velocity": 68}, {"time": 4678, "pitch": 72, "duration": 2, "velocity": 34}, {"time": 4678, "pitch": 75, "duration": 3, "velocity": 46}, {"time": 4684, "pitch": 72, "duration": 3, "velocity": 49}, {"time": 4684, "pitch": 75, "duration": 3, "velocity": 52}, {"time": 4690, "pitch": 72, "duration": 3, "velocity": 87}, {"time": 4690, "pitch": 75, "duration": 3, "velocity": 93}, {"time": 4696, "pitch": 72, "duration": 3, "velocity": 67}, {"time": 4696, "pitch": 75, "duration": 2, "velocity": 79}, {"time": 4702, "pitch": 74, "duration": 3, "velocity": 80}, {"time": 4708, "pitch": 70, "duration": 2, "velocity": 63}, {"time": 4708, "pitch": 74, "duration": 2, "velocity": 69}, {"time": 4714, "pitch": 70, "duration": 3, "velocity": 82}, {"time": 4714, "pitch": 74, "duration": 3, "velocity": 92}, {"time": 4720, "pitch": 70, "duration": 3, "velocity": 65}, {"time": 4720, "pitch": 74, "duration": 2, "velocity": 73}, {"time": 4726, "pitch": 70, "duration": 2, "velocity": 38}, {"time": 4726, "pitch": 74, "duration": 2, "velocity": 55}, {"time": 4732, "pitch": 70, "duration": 2, "velocity": 54}, {"time": 4732, "pitch": 74, "duration": 2, "velocity": 71}, {"time": 4738, "pitch": 70, "duration": 3, "velocity": 85}, {"time": 4738, "pitch": 74, "duration": 3, "velocity": 89}, {"time": 4744, "pitch": 70, "duration": 2, "velocity": 70}, {"time": 4744, "pitch": 74, "duration": 2, "velocity": 80}, {"time": 4750, "pitch": 72, "duration": 4, "velocity": 69}, {"time": 4750, "pitch": 75, "duration": 3, "velocity": 90}, {"time": 4756, "pitch": 72, "duration": 2, "velocity": 60}, {"time": 4756, "pitch": 75, "duration": 3, "velocity": 74}, {"time": 4762, "pitch": 72, "duration": 3, "velocity": 82}, {"time": 4762, "pitch": 75, "duration": 3, "velocity": 93}, {"time": 4768, "pitch": 72, "duration": 2, "velocity": 50}, {"time": 4768, "pitch": 75, "duration": 3, "velocity": 72}, {"time": 4774, "pitch": 72, "duration": 2, "velocity": 49}, {"time": 4774, "pitch": 75, "duration": 3, "velocity": 59}, {"time": 4780, "pitch": 72, "duration": 2, "velocity": 41}, {"time": 4780, "pitch": 75, "duration": 3, "velocity": 54}, {"time": 4786, "pitch": 72, "duration": 3, "velocity": 76}, {"time": 4786, "pitch": 75, "duration": 3, "velocity": 77}, {"time": 4792, "pitch": 72, "duration": 3, "velocity": 62}, {"time": 4792, "pitch": 75, "duration": 3, "velocity": 82}, {"time": 4798, "pitch": 70, "duration": 2, "velocity": 72}, {"time": 4798, "pitch": 74, "duration": 2, "velocity": 60}, {"time": 4804, "pitch": 70, "duration": 2, "velocity": 54}, {"time": 4804, "pitch": 74, "duration": 2, "velocity": 66}, {"time": 4810, "pitch": 70, "duration": 3, "velocity": 90}, {"time": 4810, "pitch": 74, "duration": 3, "velocity": 89}, {"time": 4816, "pitch": 70, "duration": 3, "velocity": 65}, {"time": 4816, "pitch": 74, "duration": 3, "velocity": 78}, {"time": 4822, "pitch": 70, "duration": 2, "velocity": 50}, {"time": 4822, "pitch": 74, "duration": 2, "velocity": 66}, {"time": 4828, "pitch": 70, "duration": 2, "velocity": 74}, {"time": 4828, "pitch": 74, "duration": 2, "velocity": 76}, {"time": 4834, "pitch": 70, "duration": 3, "velocity": 96}, {"time": 4834, "pitch": 74, "duration": 3, "velocity": 89}, {"time": 4840, "pitch": 70, "duration": 2, "velocity": 90}, {"time": 4840, "pitch": 74, "duration": 3, "velocity": 92}, {"time": 4846, "pitch": 72, "duration": 3, "velocity": 80}, {"time": 4846, "pitch": 75, "duration": 4, "velocity": 93}, {"time": 4852, "pitch": 72, "duration": 2, "velocity": 60}, {"time": 4852, "pitch": 75, "duration": 2, "velocity": 77}, {"time": 4858, "pitch": 72, "duration": 3, "velocity": 92}, {"time": 4858, "pitch": 75, "duration": 3, "velocity": 102}, {"time": 4864, "pitch": 72, "duration": 3, "velocity": 66}, {"time": 4864, "pitch": 75, "duration": 3, "velocity": 79}, {"time": 4870, "pitch": 72, "duration": 2, "velocity": 66}, {"time": 4870, "pitch": 75, "duration": 3, "velocity": 79}, {"time": 4876, "pitch": 72, "duration": 2, "velocity": 66}, {"time": 4876, "pitch": 75, "duration": 3, "velocity": 82}, {"time": 4882, "pitch": 72, "duration": 3, "velocity": 82}, {"time": 4882, "pitch": 75, "duration": 3, "velocity": 96}, {"time": 4888, "pitch": 72, "duration": 3, "velocity": 71}, {"time": 4888, "pitch": 75, "duration": 3, "velocity": 90}, {"time": 4894, "pitch": 70, "duration": 2, "velocity": 82}, {"time": 4894, "pitch": 74, "duration": 3, "velocity": 80}, {"time": 4900, "pitch": 70, "duration": 2, "velocity": 70}, {"time": 4900, "pitch": 74, "duration": 2, "velocity": 76}, {"time": 4906, "pitch": 70, "duration": 3, "velocity": 102}, {"time": 4906, "pitch": 74, "duration": 3, "velocity": 94}, {"time": 4912, "pitch": 70, "duration": 2, "velocity": 85}, {"time": 4912, "pitch": 74, "duration": 3, "velocity": 82}, {"time": 4918, "pitch": 70, "duration": 2, "velocity": 72}, {"time": 4918, "pitch": 74, "duration": 2, "velocity": 73}, {"time": 4924, "pitch": 70, "duration": 2, "velocity": 63}, {"time": 4924, "pitch": 74, "duration": 2, "velocity": 71}, {"time": 4930, "pitch": 70, "duration": 3, "velocity": 93}, {"time": 4930, "pitch": 74, "duration": 3, "velocity": 87}, {"time": 4936, "pitch": 70, "duration": 2, "velocity": 85}, {"time": 4936, "pitch": 74, "duration": 3, "velocity": 82}, {"time": 4942, "pitch": 72, "duration": 3, "velocity": 84}, {"time": 4942, "pitch": 75, "duration": 3, "velocity": 102}, {"time": 4948, "pitch": 72, "duration": 3, "velocity": 64}, {"time": 4948, "pitch": 75, "duration": 3, "velocity": 74}, {"time": 4954, "pitch": 72, "duration": 3, "velocity": 92}, {"time": 4954, "pitch": 75, "duration": 3, "velocity": 105}, {"time": 4960, "pitch": 72, "duration": 2, "velocity": 55}, {"time": 4960, "pitch": 75, "duration": 3, "velocity": 79}, {"time": 4966, "pitch": 70, "duration": 3, "velocity": 77}, {"time": 4966, "pitch": 74, "duration": 3, "velocity": 80}, {"time": 4972, "pitch": 70, "duration": 3, "velocity": 82}, {"time": 4972, "pitch": 74, "duration": 3, "velocity": 76}, {"time": 4978, "pitch": 70, "duration": 3, "velocity": 96}, {"time": 4978, "pitch": 74, "duration": 3, "velocity": 89}, {"time": 4984, "pitch": 70, "duration": 3, "velocity": 96}, {"time": 4984, "pitch": 74, "duration": 3, "velocity": 89}, {"time": 4990, "pitch": 72, "duration": 3, "velocity": 84}, {"time": 4990, "pitch": 75, "duration": 3, "velocity": 99}, {"time": 4996, "pitch": 72, "duration": 3, "velocity": 69}, {"time": 4996, "pitch": 75, "duration": 3, "velocity": 93}, {"time": 5002, "pitch": 72, "duration": 3, "velocity": 87}, {"time": 5002, "pitch": 75, "duration": 3, "velocity": 99}, {"time": 5008, "pitch": 72, "duration": 3, "velocity": 87}, {"time": 5008, "pitch": 75, "duration": 2, "velocity": 99}, {"time": 5014, "pitch": 70, "duration": 2, "velocity": 87}, {"time": 5014, "pitch": 74, "duration": 2, "velocity": 92}, {"time": 5020, "pitch": 70, "duration": 3, "velocity": 74}, {"time": 5020, "pitch": 74, "duration": 3, "velocity": 87}, {"time": 5026, "pitch": 70, "duration": 2, "velocity": 93}, {"time": 5026, "pitch": 74, "duration": 3, "velocity": 92}, {"time": 5032, "pitch": 70, "duration": 3, "velocity": 99}, {"time": 5032, "pitch": 74, "duration": 3, "velocity": 94}, {"time": 5038, "pitch": 72, "duration": 3, "velocity": 84}, {"time": 5038, "pitch": 75, "duration": 3, "velocity": 102}, {"time": 5044, "pitch": 72, "duration": 3, "velocity": 64}, {"time": 5044, "pitch": 75, "duration": 3, "velocity": 74}, {"time": 5050, "pitch": 72, "duration": 3, "velocity": 92}, {"time": 5050, "pitch": 75, "duration": 3, "velocity": 105}, {"time": 5056, "pitch": 72, "duration": 2, "velocity": 55}, {"time": 5056, "pitch": 75, "duration": 3, "velocity": 79}, {"time": 5062, "pitch": 70, "duration": 3, "velocity": 77}, {"time": 5062, "pitch": 74, "duration": 3, "velocity": 80}, {"time": 5068, "pitch": 70, "duration": 3, "velocity": 82}, {"time": 5068, "pitch": 74, "duration": 3, "velocity": 76}, {"time": 5074, "pitch": 70, "duration": 3, "velocity": 96}, {"time": 5074, "pitch": 74, "duration": 3, "velocity": 89}, {"time": 5080, "pitch": 70, "duration": 3, "velocity": 96}, {"time": 5080, "pitch": 74, "duration": 3, "velocity": 89}, {"time": 5086, "pitch": 72, "duration": 3, "velocity": 84}, {"time": 5086, "pitch": 75, "duration": 3, "velocity": 99}, {"time": 5092, "pitch": 72, "duration": 3, "velocity": 69}, {"time": 5092, "pitch": 75, "duration": 3, "velocity": 93}, {"time": 5098, "pitch": 72, "duration": 3, "velocity": 87}, {"time": 5098, "pitch": 75, "duration": 3, "velocity": 99}, {"time": 5104, "pitch": 72, "duration": 3, "velocity": 87}, {"time": 5104, "pitch": 75, "duration": 2, "velocity": 99}, {"time": 5110, "pitch": 70, "duration": 2, "velocity": 87}, {"time": 5110, "pitch": 74, "duration": 2, "velocity": 92}, {"time": 5116, "pitch": 70, "duration": 3, "velocity": 74}, {"time": 5116, "pitch": 74, "duration": 3, "velocity": 87}, {"time": 5122, "pitch": 70, "duration": 2, "velocity": 93}, {"time": 5122, "pitch": 74, "duration": 3, "velocity": 92}, {"time": 5128, "pitch": 70, "duration": 3, "velocity": 99}, {"time": 5128, "pitch": 74, "duration": 3, "velocity": 94}, {"time": 5134, "pitch": 72, "duration": 3, "velocity": 84}, {"time": 5134, "pitch": 75, "duration": 3, "velocity": 102}, {"time": 5140, "pitch": 72, "duration": 3, "velocity": 64}, {"time": 5140, "pitch": 75, "duration": 3, "velocity": 74}, {"time": 5146, "pitch": 72, "duration": 3, "velocity": 92}, {"time": 5146, "pitch": 75, "duration": 3, "velocity": 105}, {"time": 5152, "pitch": 72, "duration": 2, "velocity": 55}, {"time": 5152, "pitch": 75, "duration": 3, "velocity": 79}, {"time": 5158, "pitch": 70, "duration": 3, "velocity": 77}, {"time": 5158, "pitch": 74, "duration": 3, "velocity": 80}, {"time": 5164, "pitch": 70, "duration": 3, "velocity": 82}, {"time": 5164, "pitch": 74, "duration": 3, "velocity": 76}, {"time": 5170, "pitch": 70, "duration": 3, "velocity": 96}, {"time": 5170, "pitch": 74, "duration": 3, "velocity": 89}, {"time": 5176, "pitch": 70, "duration": 3, "velocity": 96}, {"time": 5176, "pitch": 74, "duration": 3, "velocity": 89}, {"time": 5182, "pitch": 65, "duration": 3, "velocity": 99}, {"time": 5182, "pitch": 72, "duration": 3, "velocity": 84}]}, {"program": 0, "is_drum": false, "name": "PIANO", "notes": [{"time": 46, "pitch": 48, "duration": 20, "velocity": 100}, {"time": 46, "pitch": 60, "duration": 16, "velocity": 89}, {"time": 46, "pitch": 63, "duration": 15, "velocity": 105}, {"time": 46, "pitch": 67, "duration": 17, "velocity": 97}, {"time": 70, "pitch": 46, "duration": 16, "velocity": 105}, {"time": 70, "pitch": 58, "duration": 14, "velocity": 74}, {"time": 70, "pitch": 62, "duration": 11, "velocity": 100}, {"time": 70, "pitch": 65, "duration": 15, "velocity": 89}, {"time": 88, "pitch": 44, "duration": 46, "velocity": 102}, {"time": 88, "pitch": 56, "duration": 44, "velocity": 87}, {"time": 88, "pitch": 60, "duration": 44, "velocity": 82}, {"time": 88, "pitch": 63, "duration": 46, "velocity": 85}, {"time": 142, "pitch": 48, "duration": 36, "velocity": 102}, {"time": 142, "pitch": 55, "duration": 37, "velocity": 82}, {"time": 142, "pitch": 60, "duration": 3, "velocity": 92}, {"time": 142, "pitch": 63, "duration": 3, "velocity": 105}, {"time": 142, "pitch": 67, "duration": 3, "velocity": 100}, {"time": 148, "pitch": 60, "duration": 2, "velocity": 94}, {"time": 148, "pitch": 63, "duration": 2, "velocity": 105}, {"time": 148, "pitch": 67, "duration": 3, "velocity": 92}, {"time": 154, "pitch": 60, "duration": 2, "velocity": 111}, {"time": 154, "pitch": 63, "duration": 2, "velocity": 112}, {"time": 154, "pitch": 67, "duration": 3, "velocity": 108}, {"time": 160, "pitch": 60, "duration": 2, "velocity": 84}, {"time": 160, "pitch": 63, "duration": 2, "velocity": 102}, {"time": 160, "pitch": 67, "duration": 2, "velocity": 84}, {"time": 166, "pitch": 60, "duration": 2, "velocity": 89}, {"time": 166, "pitch": 63, "duration": 2, "velocity": 102}, {"time": 166, "pitch": 67, "duration": 2, "velocity": 89}, {"time": 172, "pitch": 60, "duration": 2, "velocity": 89}, {"time": 172, "pitch": 63, "duration": 2, "velocity": 102}, {"time": 172, "pitch": 67, "duration": 3, "velocity": 92}, {"time": 178, "pitch": 60, "duration": 3, "velocity": 100}, {"time": 178, "pitch": 63, "duration": 3, "velocity": 102}, {"time": 178, "pitch": 67, "duration": 3, "velocity": 97}, {"time": 184, "pitch": 60, "duration": 3, "velocity": 97}, {"time": 184, "pitch": 63, "duration": 2, "velocity": 102}, {"time": 184, "pitch": 67, "duration": 3, "velocity": 92}, {"time": 190, "pitch": 46, "duration": 46, "velocity": 74}, {"time": 190, "pitch": 53, "duration": 46, "velocity": 80}, {"time": 190, "pitch": 58, "duration": 3, "velocity": 85}, {"time": 190, "pitch": 62, "duration": 3, "velocity": 102}, {"time": 190, "pitch": 67, "duration": 4, "velocity": 92}, {"time": 196, "pitch": 58, "duration": 2, "velocity": 85}, {"time": 196, "pitch": 62, "duration": 2, "velocity": 78}, {"time": 196, "pitch": 67, "duration": 3, "velocity": 69}, {"time": 202, "pitch": 58, "duration": 2, "velocity": 102}, {"time": 202, "pitch": 62, "duration": 2, "velocity": 111}, {"time": 202, "pitch": 67, "duration": 3, "velocity": 102}, {"time": 208, "pitch": 58, "duration": 2, "velocity": 102}, {"time": 208, "pitch": 62, "duration": 2, "velocity": 105}, {"time": 208, "pitch": 67, "duration": 2, "velocity": 87}, {"time": 214, "pitch": 58, "duration": 2, "velocity": 90}, {"time": 214, "pitch": 62, "duration": 2, "velocity": 92}, {"time": 214, "pitch": 67, "duration": 2, "velocity": 80}, {"time": 220, "pitch": 58, "duration": 3, "velocity": 93}, {"time": 220, "pitch": 62, "duration": 3, "velocity": 100}, {"time": 220, "pitch": 67, "duration": 2, "velocity": 82}, {"time": 226, "pitch": 58, "duration": 3, "velocity": 102}, {"time": 226, "pitch": 62, "duration": 3, "velocity": 108}, {"time": 226, "pitch": 67, "duration": 3, "velocity": 87}, {"time": 232, "pitch": 58, "duration": 2, "velocity": 96}, {"time": 232, "pitch": 62, "duration": 3, "velocity": 108}, {"time": 232, "pitch": 67, "duration": 3, "velocity": 94}, {"time": 238, "pitch": 48, "duration": 36, "velocity": 102}, {"time": 238, "pitch": 55, "duration": 37, "velocity": 82}, {"time": 238, "pitch": 60, "duration": 3, "velocity": 92}, {"time": 238, "pitch": 63, "duration": 3, "velocity": 105}, {"time": 238, "pitch": 67, "duration": 3, "velocity": 100}, {"time": 244, "pitch": 60, "duration": 2, "velocity": 94}, {"time": 244, "pitch": 63, "duration": 2, "velocity": 105}, {"time": 244, "pitch": 67, "duration": 3, "velocity": 92}, {"time": 250, "pitch": 60, "duration": 2, "velocity": 111}, {"time": 250, "pitch": 63, "duration": 2, "velocity": 112}, {"time": 250, "pitch": 67, "duration": 3, "velocity": 108}, {"time": 256, "pitch": 60, "duration": 2, "velocity": 84}, {"time": 256, "pitch": 63, "duration": 2, "velocity": 102}, {"time": 256, "pitch": 67, "duration": 2, "velocity": 84}, {"time": 262, "pitch": 60, "duration": 2, "velocity": 89}, {"time": 262, "pitch": 63, "duration": 2, "velocity": 102}, {"time": 262, "pitch": 67, "duration": 2, "velocity": 89}, {"time": 268, "pitch": 60, "duration": 2, "velocity": 89}, {"time": 268, "pitch": 63, "duration": 2, "velocity": 102}, {"time": 268, "pitch": 67, "duration": 3, "velocity": 92}, {"time": 274, "pitch": 60, "duration": 3, "velocity": 100}, {"time": 274, "pitch": 63, "duration": 3, "velocity": 102}, {"time": 274, "pitch": 67, "duration": 3, "velocity": 97}, {"time": 280, "pitch": 60, "duration": 3, "velocity": 97}, {"time": 280, "pitch": 63, "duration": 2, "velocity": 102}, {"time": 280, "pitch": 67, "duration": 3, "velocity": 92}, {"time": 286, "pitch": 46, "duration": 46, "velocity": 74}, {"time": 286, "pitch": 53, "duration": 46, "velocity": 80}, {"time": 286, "pitch": 58, "duration": 3, "velocity": 85}, {"time": 286, "pitch": 62, "duration": 3, "velocity": 102}, {"time": 286, "pitch": 67, "duration": 4, "velocity": 92}, {"time": 292, "pitch": 58, "duration": 2, "velocity": 85}, {"time": 292, "pitch": 62, "duration": 2, "velocity": 78}, {"time": 292, "pitch": 67, "duration": 3, "velocity": 69}, {"time": 298, "pitch": 58, "duration": 2, "velocity": 102}, {"time": 298, "pitch": 62, "duration": 2, "velocity": 111}, {"time": 298, "pitch": 67, "duration": 3, "velocity": 102}, {"time": 304, "pitch": 58, "duration": 2, "velocity": 102}, {"time": 304, "pitch": 62, "duration": 2, "velocity": 105}, {"time": 304, "pitch": 67, "duration": 2, "velocity": 87}, {"time": 310, "pitch": 58, "duration": 2, "velocity": 90}, {"time": 310, "pitch": 62, "duration": 2, "velocity": 92}, {"time": 310, "pitch": 67, "duration": 2, "velocity": 80}, {"time": 316, "pitch": 58, "duration": 3, "velocity": 93}, {"time": 316, "pitch": 62, "duration": 3, "velocity": 100}, {"time": 316, "pitch": 67, "duration": 2, "velocity": 82}, {"time": 322, "pitch": 58, "duration": 3, "velocity": 102}, {"time": 322, "pitch": 62, "duration": 3, "velocity": 108}, {"time": 322, "pitch": 67, "duration": 3, "velocity": 87}, {"time": 328, "pitch": 58, "duration": 2, "velocity": 96}, {"time": 328, "pitch": 62, "duration": 3, "velocity": 108}, {"time": 328, "pitch": 67, "duration": 3, "velocity": 94}, {"time": 334, "pitch": 48, "duration": 36, "velocity": 102}, {"time": 334, "pitch": 55, "duration": 37, "velocity": 82}, {"time": 334, "pitch": 60, "duration": 3, "velocity": 92}, {"time": 334, "pitch": 63, "duration": 3, "velocity": 105}, {"time": 334, "pitch": 67, "duration": 3, "velocity": 100}, {"time": 340, "pitch": 60, "duration": 2, "velocity": 94}, {"time": 340, "pitch": 63, "duration": 2, "velocity": 105}, {"time": 340, "pitch": 67, "duration": 3, "velocity": 92}, {"time": 346, "pitch": 60, "duration": 2, "velocity": 111}, {"time": 346, "pitch": 63, "duration": 2, "velocity": 112}, {"time": 346, "pitch": 67, "duration": 3, "velocity": 108}, {"time": 352, "pitch": 60, "duration": 2, "velocity": 84}, {"time": 352, "pitch": 63, "duration": 2, "velocity": 102}, {"time": 352, "pitch": 67, "duration": 2, "velocity": 84}, {"time": 358, "pitch": 60, "duration": 2, "velocity": 89}, {"time": 358, "pitch": 63, "duration": 2, "velocity": 102}, {"time": 358, "pitch": 67, "duration": 2, "velocity": 89}, {"time": 364, "pitch": 60, "duration": 2, "velocity": 89}, {"time": 364, "pitch": 63, "duration": 2, "velocity": 102}, {"time": 364, "pitch": 67, "duration": 3, "velocity": 92}, {"time": 370, "pitch": 60, "duration": 3, "velocity": 100}, {"time": 370, "pitch": 63, "duration": 3, "velocity": 102}, {"time": 370, "pitch": 67, "duration": 3, "velocity": 97}, {"time": 376, "pitch": 60, "duration": 3, "velocity": 97}, {"time": 376, "pitch": 63, "duration": 2, "velocity": 102}, {"time": 376, "pitch": 67, "duration": 3, "velocity": 92}, {"time": 382, "pitch": 46, "duration": 46, "velocity": 74}, {"time": 382, "pitch": 53, "duration": 46, "velocity": 80}, {"time": 382, "pitch": 58, "duration": 3, "velocity": 85}, {"time": 382, "pitch": 62, "duration": 3, "velocity": 102}, {"time": 382, "pitch": 67, "duration": 4, "velocity": 92}, {"time": 388, "pitch": 58, "duration": 2, "velocity": 85}, {"time": 388, "pitch": 62, "duration": 2, "velocity": 78}, {"time": 388, "pitch": 67, "duration": 3, "velocity": 69}, {"time": 394, "pitch": 58, "duration": 2, "velocity": 102}, {"time": 394, "pitch": 62, "duration": 2, "velocity": 111}, {"time": 394, "pitch": 67, "duration": 3, "velocity": 102}, {"time": 400, "pitch": 58, "duration": 2, "velocity": 102}, {"time": 400, "pitch": 62, "duration": 2, "velocity": 105}, {"time": 400, "pitch": 67, "duration": 2, "velocity": 87}, {"time": 406, "pitch": 58, "duration": 2, "velocity": 90}, {"time": 406, "pitch": 62, "duration": 2, "velocity": 92}, {"time": 406, "pitch": 67, "duration": 2, "velocity": 80}, {"time": 412, "pitch": 58, "duration": 3, "velocity": 93}, {"time": 412, "pitch": 62, "duration": 3, "velocity": 100}, {"time": 412, "pitch": 67, "duration": 2, "velocity": 82}, {"time": 418, "pitch": 58, "duration": 3, "velocity": 102}, {"time": 418, "pitch": 62, "duration": 3, "velocity": 108}, {"time": 418, "pitch": 67, "duration": 3, "velocity": 87}, {"time": 424, "pitch": 58, "duration": 2, "velocity": 96}, {"time": 424, "pitch": 62, "duration": 3, "velocity": 108}, {"time": 424, "pitch": 67, "duration": 3, "velocity": 94}, {"time": 430, "pitch": 44, "duration": 60, "velocity": 65}, {"time": 430, "pitch": 51, "duration": 61, "velocity": 85}, {"time": 430, "pitch": 56, "duration": 3, "velocity": 77}, {"time": 430, "pitch": 60, "duration": 3, "velocity": 102}, {"time": 430, "pitch": 67, "duration": 3, "velocity": 92}, {"time": 436, "pitch": 56, "duration": 3, "velocity": 77}, {"time": 436, "pitch": 60, "duration": 2, "velocity": 87}, {"time": 436, "pitch": 67, "duration": 2, "velocity": 78}, {"time": 442, "pitch": 56, "duration": 3, "velocity": 102}, {"time": 442, "pitch": 60, "duration": 2, "velocity": 100}, {"time": 442, "pitch": 67, "duration": 2, "velocity": 89}, {"time": 448, "pitch": 56, "duration": 3, "velocity": 102}, {"time": 448, "pitch": 60, "duration": 2, "velocity": 100}, {"time": 448, "pitch": 67, "duration": 2, "velocity": 87}, {"time": 454, "pitch": 56, "duration": 2, "velocity": 96}, {"time": 454, "pitch": 60, "duration": 2, "velocity": 100}, {"time": 454, "pitch": 67, "duration": 2, "velocity": 80}, {"time": 460, "pitch": 56, "duration": 2, "velocity": 85}, {"time": 460, "pitch": 60, "duration": 2, "velocity": 87}, {"time": 460, "pitch": 67, "duration": 2, "velocity": 76}, {"time": 466, "pitch": 56, "duration": 2, "velocity": 87}, {"time": 466, "pitch": 60, "duration": 2, "velocity": 94}, {"time": 466, "pitch": 67, "duration": 2, "velocity": 82}, {"time": 472, "pitch": 56, "duration": 3, "velocity": 85}, {"time": 472, "pitch": 60, "duration": 3, "velocity": 82}, {"time": 472, "pitch": 67, "duration": 3, "velocity": 82}, {"time": 478, "pitch": 56, "duration": 2, "velocity": 99}, {"time": 478, "pitch": 60, "duration": 2, "velocity": 105}, {"time": 478, "pitch": 67, "duration": 2, "velocity": 87}, {"time": 484, "pitch": 56, "duration": 2, "velocity": 87}, {"time": 484, "pitch": 60, "duration": 2, "velocity": 97}, {"time": 484, "pitch": 67, "duration": 3, "velocity": 84}, {"time": 490, "pitch": 56, "duration": 3, "velocity": 87}, {"time": 490, "pitch": 60, "duration": 3, "velocity": 89}, {"time": 490, "pitch": 67, "duration": 3, "velocity": 84}, {"time": 496, "pitch": 56, "duration": 3, "velocity": 93}, {"time": 496, "pitch": 60, "duration": 2, "velocity": 97}, {"time": 496, "pitch": 67, "duration": 3, "velocity": 87}, {"time": 502, "pitch": 46, "duration": 23, "velocity": 79}, {"time": 502, "pitch": 53, "duration": 23, "velocity": 78}, {"time": 502, "pitch": 58, "duration": 3, "velocity": 90}, {"time": 502, "pitch": 62, "duration": 3, "velocity": 89}, {"time": 502, "pitch": 67, "duration": 3, "velocity": 94}, {"time": 508, "pitch": 58, "duration": 2, "velocity": 77}, {"time": 508, "pitch": 62, "duration": 2, "velocity": 89}, {"time": 508, "pitch": 67, "duration": 3, "velocity": 80}, {"time": 514, "pitch": 58, "duration": 2, "velocity": 102}, {"time": 514, "pitch": 62, "duration": 2, "velocity": 105}, {"time": 514, "pitch": 67, "duration": 3, "velocity": 97}, {"time": 520, "pitch": 58, "duration": 3, "velocity": 99}, {"time": 520, "pitch": 62, "duration": 2, "velocity": 105}, {"time": 520, "pitch": 67, "duration": 3, "velocity": 97}, {"time": 526, "pitch": 48, "duration": 17, "velocity": 100}, {"time": 526, "pitch": 60, "duration": 9, "velocity": 82}, {"time": 526, "pitch": 63, "duration": 9, "velocity": 74}, {"time": 526, "pitch": 67, "duration": 9, "velocity": 92}, {"time": 532, "pitch": 55, "duration": 11, "velocity": 80}, {"time": 538, "pitch": 60, "duration": 3, "velocity": 100}, {"time": 538, "pitch": 63, "duration": 14, "velocity": 112}, {"time": 538, "pitch": 67, "duration": 22, "velocity": 100}, {"time": 544, "pitch": 60, "duration": 7, "velocity": 92}, {"time": 550, "pitch": 44, "duration": 17, "velocity": 99}, {"time": 556, "pitch": 51, "duration": 12, "velocity": 61}, {"time": 562, "pitch": 56, "duration": 5, "velocity": 105}, {"time": 562, "pitch": 63, "duration": 12, "velocity": 50}, {"time": 562, "pitch": 67, "duration": 23, "velocity": 94}, {"time": 568, "pitch": 56, "duration": 5, "velocity": 99}, {"time": 574, "pitch": 46, "duration": 20, "velocity": 96}, {"time": 580, "pitch": 53, "duration": 9, "velocity": 87}, {"time": 586, "pitch": 58, "duration": 5, "velocity": 105}, {"time": 586, "pitch": 62, "duration": 8, "velocity": 102}, {"time": 586, "pitch": 67, "duration": 22, "velocity": 111}, {"time": 592, "pitch": 53, "duration": 4, "velocity": 73}, {"time": 598, "pitch": 43, "duration": 17, "velocity": 108}, {"time": 604, "pitch": 50, "duration": 8, "velocity": 80}, {"time": 610, "pitch": 55, "duration": 3, "velocity": 97}, {"time": 610, "pitch": 58, "duration": 10, "velocity": 105}, {"time": 610, "pitch": 62, "duration": 12, "velocity": 111}, {"time": 610, "pitch": 67, "duration": 17, "velocity": 82}, {"time": 616, "pitch": 55, "duration": 5, "velocity": 94}, {"time": 622, "pitch": 48, "duration": 18, "velocity": 105}, {"time": 628, "pitch": 55, "duration": 9, "velocity": 71}, {"time": 634, "pitch": 60, "duration": 4, "velocity": 105}, {"time": 634, "pitch": 63, "duration": 11, "velocity": 112}, {"time": 634, "pitch": 67, "duration": 42, "velocity": 108}, {"time": 640, "pitch": 60, "duration": 6, "velocity": 97}, {"time": 646, "pitch": 44, "duration": 14, "velocity": 105}, {"time": 652, "pitch": 51, "duration": 8, "velocity": 52}, {"time": 658, "pitch": 56, "duration": 3, "velocity": 96}, {"time": 658, "pitch": 60, "duration": 4, "velocity": 80}, {"time": 658, "pitch": 63, "duration": 11, "velocity": 85}, {"time": 664, "pitch": 56, "duration": 5, "velocity": 105}, {"time": 670, "pitch": 46, "duration": 21, "velocity": 109}, {"time": 676, "pitch": 53, "duration": 11, "velocity": 67}, {"time": 682, "pitch": 58, "duration": 3, "velocity": 96}, {"time": 682, "pitch": 62, "duration": 8, "velocity": 102}, {"time": 682, "pitch": 67, "duration": 22, "velocity": 102}, {"time": 688, "pitch": 58, "duration": 5, "velocity": 99}, {"time": 694, "pitch": 43, "duration": 19, "velocity": 102}, {"time": 700, "pitch": 50, "duration": 12, "velocity": 78}, {"time": 706, "pitch": 55, "duration": 2, "velocity": 92}, {"time": 706, "pitch": 58, "duration": 8, "velocity": 109}, {"time": 706, "pitch": 62, "duration": 12, "velocity": 108}, {"time": 706, "pitch": 67, "duration": 14, "velocity": 92}, {"time": 712, "pitch": 55, "duration": 7, "velocity": 111}, {"time": 718, "pitch": 48, "duration": 17, "velocity": 100}, {"time": 718, "pitch": 60, "duration": 9, "velocity": 82}, {"time": 718, "pitch": 63, "duration": 9, "velocity": 74}, {"time": 718, "pitch": 67, "duration": 2, "velocity": 92}, {"time": 724, "pitch": 55, "duration": 11, "velocity": 80}, {"time": 730, "pitch": 60, "duration": 3, "velocity": 100}, {"time": 730, "pitch": 63, "duration": 14, "velocity": 112}, {"time": 730, "pitch": 67, "duration": 22, "velocity": 100}, {"time": 736, "pitch": 60, "duration": 7, "velocity": 92}, {"time": 742, "pitch": 44, "duration": 17, "velocity": 99}, {"time": 748, "pitch": 51, "duration": 12, "velocity": 61}, {"time": 754, "pitch": 56, "duration": 5, "velocity": 105}, {"time": 754, "pitch": 63, "duration": 12, "velocity": 50}, {"time": 754, "pitch": 67, "duration": 23, "velocity": 94}, {"time": 760, "pitch": 56, "duration": 5, "velocity": 99}, {"time": 766, "pitch": 46, "duration": 20, "velocity": 96}, {"time": 772, "pitch": 53, "duration": 9, "velocity": 87}, {"time": 778, "pitch": 58, "duration": 5, "velocity": 105}, {"time": 778, "pitch": 62, "duration": 8, "velocity": 102}, {"time": 778, "pitch": 67, "duration": 22, "velocity": 111}, {"time": 784, "pitch": 53, "duration": 4, "velocity": 73}, {"time": 790, "pitch": 43, "duration": 17, "velocity": 108}, {"time": 796, "pitch": 50, "duration": 8, "velocity": 80}, {"time": 802, "pitch": 55, "duration": 3, "velocity": 97}, {"time": 802, "pitch": 58, "duration": 10, "velocity": 105}, {"time": 802, "pitch": 62, "duration": 12, "velocity": 111}, {"time": 802, "pitch": 67, "duration": 17, "velocity": 82}, {"time": 808, "pitch": 55, "duration": 5, "velocity": 94}, {"time": 814, "pitch": 41, "duration": 18, "velocity": 100}, {"time": 814, "pitch": 53, "duration": 9, "velocity": 97}, {"time": 814, "pitch": 56, "duration": 9, "velocity": 105}, {"time": 814, "pitch": 60, "duration": 9, "velocity": 100}, {"time": 820, "pitch": 48, "duration": 9, "velocity": 78}, {"time": 826, "pitch": 56, "duration": 7, "velocity": 109}, {"time": 826, "pitch": 60, "duration": 9, "velocity": 117}, {"time": 832, "pitch": 53, "duration": 3, "velocity": 111}, {"time": 838, "pitch": 43, "duration": 17, "velocity": 89}, {"time": 838, "pitch": 55, "duration": 10, "velocity": 82}, {"time": 838, "pitch": 62, "duration": 10, "velocity": 87}, {"time": 844, "pitch": 50, "duration": 10, "velocity": 67}, {"time": 850, "pitch": 55, "duration": 3, "velocity": 97}, {"time": 850, "pitch": 58, "duration": 7, "velocity": 105}, {"time": 850, "pitch": 62, "duration": 10, "velocity": 108}, {"time": 856, "pitch": 55, "duration": 4, "velocity": 97}, {"time": 862, "pitch": 44, "duration": 15, "velocity": 99}, {"time": 862, "pitch": 56, "duration": 7, "velocity": 112}, {"time": 862, "pitch": 60, "duration": 8, "velocity": 102}, {"time": 868, "pitch": 51, "duration": 12, "velocity": 99}, {"time": 874, "pitch": 56, "duration": 3, "velocity": 112}, {"time": 874, "pitch": 60, "duration": 8, "velocity": 117}, {"time": 880, "pitch": 56, "duration": 4, "velocity": 90}, {"time": 886, "pitch": 46, "duration": 17, "velocity": 96}, {"time": 886, "pitch": 58, "duration": 6, "velocity": 105}, {"time": 886, "pitch": 62, "duration": 8, "velocity": 97}, {"time": 892, "pitch": 53, "duration": 9, "velocity": 89}, {"time": 898, "pitch": 58, "duration": 10, "velocity": 112}, {"time": 898, "pitch": 62, "duration": 11, "velocity": 108}, {"time": 904, "pitch": 53, "duration": 4, "velocity": 105}, {"time": 910, "pitch": 48, "duration": 17, "velocity": 100}, {"time": 910, "pitch": 60, "duration": 9, "velocity": 82}, {"time": 910, "pitch": 63, "duration": 9, "velocity": 74}, {"time": 910, "pitch": 67, "duration": 9, "velocity": 92}, {"time": 916, "pitch": 55, "duration": 11, "velocity": 80}, {"time": 922, "pitch": 60, "duration": 3, "velocity": 100}, {"time": 922, "pitch": 63, "duration": 14, "velocity": 112}, {"time": 922, "pitch": 67, "duration": 22, "velocity": 100}, {"time": 928, "pitch": 60, "duration": 7, "velocity": 92}, {"time": 934, "pitch": 44, "duration": 17, "velocity": 99}, {"time": 940, "pitch": 51, "duration": 12, "velocity": 61}, {"time": 946, "pitch": 56, "duration": 5, "velocity": 105}, {"time": 946, "pitch": 63, "duration": 12, "velocity": 50}, {"time": 946, "pitch": 67, "duration": 23, "velocity": 94}, {"time": 952, "pitch": 56, "duration": 5, "velocity": 99}, {"time": 958, "pitch": 46, "duration": 20, "velocity": 96}, {"time": 964, "pitch": 53, "duration": 9, "velocity": 87}, {"time": 970, "pitch": 58, "duration": 5, "velocity": 105}, {"time": 970, "pitch": 62, "duration": 8, "velocity": 102}, {"time": 970, "pitch": 67, "duration": 22, "velocity": 111}, {"time": 976, "pitch": 53, "duration": 4, "velocity": 73}, {"time": 982, "pitch": 43, "duration": 17, "velocity": 108}, {"time": 988, "pitch": 50, "duration": 8, "velocity": 80}, {"time": 994, "pitch": 55, "duration": 3, "velocity": 97}, {"time": 994, "pitch": 58, "duration": 10, "velocity": 105}, {"time": 994, "pitch": 62, "duration": 12, "velocity": 111}, {"time": 994, "pitch": 67, "duration": 17, "velocity": 82}, {"time": 1000, "pitch": 55, "duration": 5, "velocity": 94}, {"time": 1006, "pitch": 48, "duration": 18, "velocity": 105}, {"time": 1012, "pitch": 55, "duration": 9, "velocity": 71}, {"time": 1018, "pitch": 60, "duration": 4, "velocity": 105}, {"time": 1018, "pitch": 63, "duration": 11, "velocity": 112}, {"time": 1018, "pitch": 67, "duration": 42, "velocity": 108}, {"time": 1024, "pitch": 60, "duration": 6, "velocity": 97}, {"time": 1030, "pitch": 44, "duration": 14, "velocity": 105}, {"time": 1036, "pitch": 51, "duration": 8, "velocity": 52}, {"time": 1042, "pitch": 56, "duration": 3, "velocity": 96}, {"time": 1042, "pitch": 60, "duration": 4, "velocity": 80}, {"time": 1042, "pitch": 63, "duration": 11, "velocity": 85}, {"time": 1048, "pitch": 56, "duration": 5, "velocity": 105}, {"time": 1054, "pitch": 46, "duration": 21, "velocity": 109}, {"time": 1060, "pitch": 53, "duration": 11, "velocity": 67}, {"time": 1066, "pitch": 58, "duration": 3, "velocity": 96}, {"time": 1066, "pitch": 62, "duration": 8, "velocity": 102}, {"time": 1066, "pitch": 67, "duration": 22, "velocity": 102}, {"time": 1072, "pitch": 58, "duration": 5, "velocity": 99}, {"time": 1078, "pitch": 43, "duration": 19, "velocity": 102}, {"time": 1084, "pitch": 50, "duration": 12, "velocity": 78}, {"time": 1090, "pitch": 55, "duration": 2, "velocity": 92}, {"time": 1090, "pitch": 58, "duration": 8, "velocity": 109}, {"time": 1090, "pitch": 62, "duration": 12, "velocity": 108}, {"time": 1090, "pitch": 67, "duration": 14, "velocity": 92}, {"time": 1096, "pitch": 55, "duration": 7, "velocity": 111}, {"time": 1102, "pitch": 48, "duration": 17, "velocity": 100}, {"time": 1102, "pitch": 60, "duration": 9, "velocity": 82}, {"time": 1102, "pitch": 63, "duration": 9, "velocity": 74}, {"time": 1102, "pitch": 67, "duration": 2, "velocity": 92}, {"time": 1108, "pitch": 55, "duration": 11, "velocity": 80}, {"time": 1114, "pitch": 60, "duration": 3, "velocity": 100}, {"time": 1114, "pitch": 63, "duration": 14, "velocity": 112}, {"time": 1114, "pitch": 67, "duration": 22, "velocity": 100}, {"time": 1120, "pitch": 60, "duration": 7, "velocity": 92}, {"time": 1126, "pitch": 44, "duration": 17, "velocity": 99}, {"time": 1132, "pitch": 51, "duration": 12, "velocity": 61}, {"time": 1138, "pitch": 56, "duration": 5, "velocity": 105}, {"time": 1138, "pitch": 63, "duration": 12, "velocity": 50}, {"time": 1138, "pitch": 67, "duration": 23, "velocity": 94}, {"time": 1144, "pitch": 56, "duration": 5, "velocity": 99}, {"time": 1150, "pitch": 46, "duration": 20, "velocity": 96}, {"time": 1156, "pitch": 53, "duration": 9, "velocity": 87}, {"time": 1162, "pitch": 58, "duration": 5, "velocity": 105}, {"time": 1162, "pitch": 62, "duration": 8, "velocity": 102}, {"time": 1162, "pitch": 67, "duration": 22, "velocity": 111}, {"time": 1168, "pitch": 53, "duration": 4, "velocity": 73}, {"time": 1174, "pitch": 43, "duration": 17, "velocity": 108}, {"time": 1180, "pitch": 50, "duration": 8, "velocity": 80}, {"time": 1186, "pitch": 55, "duration": 3, "velocity": 97}, {"time": 1186, "pitch": 58, "duration": 10, "velocity": 105}, {"time": 1186, "pitch": 62, "duration": 12, "velocity": 111}, {"time": 1186, "pitch": 67, "duration": 17, "velocity": 82}, {"time": 1192, "pitch": 55, "duration": 5, "velocity": 94}, {"time": 1198, "pitch": 41, "duration": 18, "velocity": 100}, {"time": 1198, "pitch": 53, "duration": 9, "velocity": 97}, {"time": 1198, "pitch": 56, "duration": 9, "velocity": 105}, {"time": 1198, "pitch": 60, "duration": 9, "velocity": 100}, {"time": 1204, "pitch": 48, "duration": 9, "velocity": 78}, {"time": 1210, "pitch": 56, "duration": 7, "velocity": 109}, {"time": 1210, "pitch": 60, "duration": 9, "velocity": 117}, {"time": 1216, "pitch": 53, "duration": 3, "velocity": 111}, {"time": 1222, "pitch": 43, "duration": 17, "velocity": 89}, {"time": 1222, "pitch": 55, "duration": 10, "velocity": 82}, {"time": 1222, "pitch": 62, "duration": 10, "velocity": 87}, {"time": 1228, "pitch": 50, "duration": 10, "velocity": 67}, {"time": 1234, "pitch": 55, "duration": 3, "velocity": 97}, {"time": 1234, "pitch": 58, "duration": 7, "velocity": 105}, {"time": 1234, "pitch": 62, "duration": 10, "velocity": 108}, {"time": 1240, "pitch": 55, "duration": 4, "velocity": 97}, {"time": 1246, "pitch": 44, "duration": 15, "velocity": 99}, {"time": 1246, "pitch": 56, "duration": 7, "velocity": 112}, {"time": 1246, "pitch": 60, "duration": 8, "velocity": 102}, {"time": 1252, "pitch": 51, "duration": 12, "velocity": 99}, {"time": 1258, "pitch": 56, "duration": 3, "velocity": 112}, {"time": 1258, "pitch": 60, "duration": 8, "velocity": 117}, {"time": 1264, "pitch": 56, "duration": 4, "velocity": 90}, {"time": 1270, "pitch": 46, "duration": 17, "velocity": 96}, {"time": 1270, "pitch": 58, "duration": 6, "velocity": 105}, {"time": 1270, "pitch": 62, "duration": 8, "velocity": 97}, {"time": 1276, "pitch": 53, "duration": 9, "velocity": 89}, {"time": 1282, "pitch": 58, "duration": 10, "velocity": 112}, {"time": 1282, "pitch": 62, "duration": 11, "velocity": 108}, {"time": 1288, "pitch": 53, "duration": 4, "velocity": 105}, {"time": 1294, "pitch": 48, "duration": 17, "velocity": 100}, {"time": 1294, "pitch": 60, "duration": 9, "velocity": 82}, {"time": 1294, "pitch": 63, "duration": 9, "velocity": 74}, {"time": 1294, "pitch": 67, "duration": 9, "velocity": 92}, {"time": 1300, "pitch": 55, "duration": 11, "velocity": 80}, {"time": 1306, "pitch": 60, "duration": 3, "velocity": 100}, {"time": 1306, "pitch": 63, "duration": 14, "velocity": 112}, {"time": 1306, "pitch": 67, "duration": 22, "velocity": 100}, {"time": 1312, "pitch": 60, "duration": 7, "velocity": 92}, {"time": 1318, "pitch": 44, "duration": 17, "velocity": 99}, {"time": 1324, "pitch": 51, "duration": 12, "velocity": 61}, {"time": 1330, "pitch": 56, "duration": 5, "velocity": 105}, {"time": 1330, "pitch": 63, "duration": 12, "velocity": 50}, {"time": 1330, "pitch": 67, "duration": 23, "velocity": 94}, {"time": 1336, "pitch": 56, "duration": 5, "velocity": 99}, {"time": 1342, "pitch": 46, "duration": 20, "velocity": 96}, {"time": 1348, "pitch": 53, "duration": 9, "velocity": 87}, {"time": 1354, "pitch": 58, "duration": 5, "velocity": 105}, {"time": 1354, "pitch": 62, "duration": 8, "velocity": 102}, {"time": 1354, "pitch": 67, "duration": 22, "velocity": 111}, {"time": 1360, "pitch": 53, "duration": 4, "velocity": 73}, {"time": 1366, "pitch": 43, "duration": 17, "velocity": 108}, {"time": 1372, "pitch": 50, "duration": 8, "velocity": 80}, {"time": 1378, "pitch": 55, "duration": 3, "velocity": 97}, {"time": 1378, "pitch": 58, "duration": 10, "velocity": 105}, {"time": 1378, "pitch": 62, "duration": 12, "velocity": 111}, {"time": 1378, "pitch": 67, "duration": 17, "velocity": 82}, {"time": 1384, "pitch": 55, "duration": 5, "velocity": 94}, {"time": 1390, "pitch": 48, "duration": 18, "velocity": 105}, {"time": 1396, "pitch": 55, "duration": 9, "velocity": 71}, {"time": 1402, "pitch": 60, "duration": 4, "velocity": 105}, {"time": 1402, "pitch": 63, "duration": 11, "velocity": 112}, {"time": 1402, "pitch": 67, "duration": 42, "velocity": 108}, {"time": 1408, "pitch": 60, "duration": 6, "velocity": 97}, {"time": 1414, "pitch": 44, "duration": 14, "velocity": 105}, {"time": 1420, "pitch": 51, "duration": 8, "velocity": 52}, {"time": 1426, "pitch": 56, "duration": 3, "velocity": 96}, {"time": 1426, "pitch": 60, "duration": 4, "velocity": 80}, {"time": 1426, "pitch": 63, "duration": 11, "velocity": 85}, {"time": 1432, "pitch": 56, "duration": 5, "velocity": 105}, {"time": 1438, "pitch": 46, "duration": 21, "velocity": 109}, {"time": 1444, "pitch": 53, "duration": 11, "velocity": 67}, {"time": 1450, "pitch": 58, "duration": 3, "velocity": 96}, {"time": 1450, "pitch": 62, "duration": 8, "velocity": 102}, {"time": 1450, "pitch": 67, "duration": 22, "velocity": 102}, {"time": 1456, "pitch": 58, "duration": 5, "velocity": 99}, {"time": 1462, "pitch": 43, "duration": 19, "velocity": 102}, {"time": 1468, "pitch": 50, "duration": 12, "velocity": 78}, {"time": 1474, "pitch": 55, "duration": 2, "velocity": 92}, {"time": 1474, "pitch": 58, "duration": 8, "velocity": 109}, {"time": 1474, "pitch": 62, "duration": 12, "velocity": 108}, {"time": 1474, "pitch": 67, "duration": 14, "velocity": 92}, {"time": 1480, "pitch": 55, "duration": 7, "velocity": 111}, {"time": 1486, "pitch": 48, "duration": 17, "velocity": 100}, {"time": 1486, "pitch": 60, "duration": 9, "velocity": 82}, {"time": 1486, "pitch": 63, "duration": 9, "velocity": 74}, {"time": 1486, "pitch": 67, "duration": 2, "velocity": 92}, {"time": 1492, "pitch": 55, "duration": 11, "velocity": 80}, {"time": 1498, "pitch": 60, "duration": 3, "velocity": 100}, {"time": 1498, "pitch": 63, "duration": 14, "velocity": 112}, {"time": 1498, "pitch": 67, "duration": 22, "velocity": 100}, {"time": 1504, "pitch": 60, "duration": 7, "velocity": 92}, {"time": 1510, "pitch": 44, "duration": 17, "velocity": 99}, {"time": 1516, "pitch": 51, "duration": 12, "velocity": 61}, {"time": 1522, "pitch": 56, "duration": 5, "velocity": 105}, {"time": 1522, "pitch": 63, "duration": 12, "velocity": 50}, {"time": 1522, "pitch": 67, "duration": 23, "velocity": 94}, {"time": 1528, "pitch": 56, "duration": 5, "velocity": 99}, {"time": 1534, "pitch": 46, "duration": 20, "velocity": 96}, {"time": 1540, "pitch": 53, "duration": 9, "velocity": 87}, {"time": 1546, "pitch": 58, "duration": 5, "velocity": 105}, {"time": 1546, "pitch": 62, "duration": 8, "velocity": 102}, {"time": 1546, "pitch": 67, "duration": 22, "velocity": 111}, {"time": 1552, "pitch": 53, "duration": 4, "velocity": 73}, {"time": 1558, "pitch": 43, "duration": 17, "velocity": 108}, {"time": 1564, "pitch": 50, "duration": 8, "velocity": 80}, {"time": 1570, "pitch": 55, "duration": 3, "velocity": 97}, {"time": 1570, "pitch": 58, "duration": 10, "velocity": 105}, {"time": 1570, "pitch": 62, "duration": 12, "velocity": 111}, {"time": 1570, "pitch": 67, "duration": 17, "velocity": 82}, {"time": 1576, "pitch": 55, "duration": 5, "velocity": 94}, {"time": 1582, "pitch": 41, "duration": 18, "velocity": 100}, {"time": 1582, "pitch": 53, "duration": 9, "velocity": 97}, {"time": 1582, "pitch": 56, "duration": 9, "velocity": 105}, {"time": 1582, "pitch": 60, "duration": 9, "velocity": 100}, {"time": 1588, "pitch": 48, "duration": 9, "velocity": 78}, {"time": 1594, "pitch": 56, "duration": 7, "velocity": 109}, {"time": 1594, "pitch": 60, "duration": 9, "velocity": 117}, {"time": 1600, "pitch": 53, "duration": 3, "velocity": 111}, {"time": 1606, "pitch": 43, "duration": 17, "velocity": 89}, {"time": 1606, "pitch": 55, "duration": 10, "velocity": 82}, {"time": 1606, "pitch": 62, "duration": 10, "velocity": 87}, {"time": 1612, "pitch": 50, "duration": 10, "velocity": 67}, {"time": 1618, "pitch": 55, "duration": 3, "velocity": 97}, {"time": 1618, "pitch": 58, "duration": 7, "velocity": 105}, {"time": 1618, "pitch": 62, "duration": 10, "velocity": 108}, {"time": 1624, "pitch": 55, "duration": 4, "velocity": 97}, {"time": 1630, "pitch": 44, "duration": 15, "velocity": 99}, {"time": 1630, "pitch": 56, "duration": 7, "velocity": 112}, {"time": 1630, "pitch": 60, "duration": 8, "velocity": 102}, {"time": 1636, "pitch": 51, "duration": 12, "velocity": 99}, {"time": 1642, "pitch": 56, "duration": 3, "velocity": 112}, {"time": 1642, "pitch": 60, "duration": 8, "velocity": 117}, {"time": 1648, "pitch": 56, "duration": 4, "velocity": 90}, {"time": 1654, "pitch": 46, "duration": 17, "velocity": 96}, {"time": 1654, "pitch": 58, "duration": 6, "velocity": 105}, {"time": 1654, "pitch": 62, "duration": 8, "velocity": 97}, {"time": 1660, "pitch": 53, "duration": 9, "velocity": 89}, {"time": 1666, "pitch": 58, "duration": 10, "velocity": 112}, {"time": 1666, "pitch": 62, "duration": 11, "velocity": 108}, {"time": 1672, "pitch": 53, "duration": 4, "velocity": 105}, {"time": 1678, "pitch": 41, "duration": 19, "velocity": 100}, {"time": 1678, "pitch": 53, "duration": 9, "velocity": 92}, {"time": 1678, "pitch": 56, "duration": 10, "velocity": 102}, {"time": 1678, "pitch": 60, "duration": 10, "velocity": 100}, {"time": 1684, "pitch": 48, "duration": 9, "velocity": 53}, {"time": 1690, "pitch": 53, "duration": 2, "velocity": 84}, {"time": 1690, "pitch": 56, "duration": 14, "velocity": 112}, {"time": 1690, "pitch": 60, "duration": 15, "velocity": 111}, {"time": 1696, "pitch": 53, "duration": 8, "velocity": 67}, {"time": 1702, "pitch": 41, "duration": 18, "velocity": 66}, {"time": 1702, "pitch": 48, "duration": 18, "velocity": 94}, {"time": 1708, "pitch": 53, "duration": 3, "velocity": 92}, {"time": 1714, "pitch": 53, "duration": 1, "velocity": 84}, {"time": 1714, "pitch": 56, "duration": 7, "velocity": 116}, {"time": 1714, "pitch": 60, "duration": 9, "velocity": 111}, {"time": 1720, "pitch": 53, "duration": 3, "velocity": 108}, {"time": 1726, "pitch": 48, "duration": 10, "velocity": 120}, {"time": 1726, "pitch": 55, "duration": 3, "velocity": 97}, {"time": 1726, "pitch": 60, "duration": 8, "velocity": 114}, {"time": 1732, "pitch": 55, "duration": 4, "velocity": 102}, {"time": 1738, "pitch": 46, "duration": 12, "velocity": 116}, {"time": 1738, "pitch": 53, "duration": 4, "velocity": 108}, {"time": 1738, "pitch": 58, "duration": 8, "velocity": 90}, {"time": 1744, "pitch": 53, "duration": 6, "velocity": 105}, {"time": 1750, "pitch": 51, "duration": 12, "velocity": 112}, {"time": 1750, "pitch": 58, "duration": 11, "velocity": 74}, {"time": 1750, "pitch": 60, "duration": 11, "velocity": 79}, {"time": 1750, "pitch": 63, "duration": 11, "velocity": 105}, {"time": 1762, "pitch": 46, "duration": 11, "velocity": 105}, {"time": 1762, "pitch": 58, "duration": 10, "velocity": 93}, {"time": 1762, "pitch": 63, "duration": 10, "velocity": 90}, {"time": 1762, "pitch": 65, "duration": 10, "velocity": 108}, {"time": 1774, "pitch": 48, "duration": 13, "velocity": 100}, {"time": 1774, "pitch": 60, "duration": 9, "velocity": 87}, {"time": 1774, "pitch": 63, "duration": 9, "velocity": 109}, {"time": 1774, "pitch": 67, "duration": 10, "velocity": 94}, {"time": 1786, "pitch": 60, "duration": 5, "velocity": 105}, {"time": 1786, "pitch": 63, "duration": 10, "velocity": 116}, {"time": 1786, "pitch": 67, "duration": 27, "velocity": 105}, {"time": 1795, "pitch": 60, "duration": 3, "velocity": 71}, {"time": 1798, "pitch": 44, "duration": 20, "velocity": 90}, {"time": 1804, "pitch": 56, "duration": 9, "velocity": 93}, {"time": 1804, "pitch": 60, "duration": 8, "velocity": 100}, {"time": 1804, "pitch": 63, "duration": 9, "velocity": 77}, {"time": 1816, "pitch": 56, "duration": 3, "velocity": 59}, {"time": 1816, "pitch": 63, "duration": 3, "velocity": 41}, {"time": 1816, "pitch": 67, "duration": 5, "velocity": 78}, {"time": 1822, "pitch": 46, "duration": 22, "velocity": 102}, {"time": 1822, "pitch": 58, "duration": 10, "velocity": 87}, {"time": 1822, "pitch": 62, "duration": 9, "velocity": 97}, {"time": 1822, "pitch": 67, "duration": 10, "velocity": 69}, {"time": 1834, "pitch": 58, "duration": 5, "velocity": 102}, {"time": 1834, "pitch": 62, "duration": 13, "velocity": 114}, {"time": 1834, "pitch": 67, "duration": 16, "velocity": 108}, {"time": 1843, "pitch": 58, "duration": 4, "velocity": 46}, {"time": 1846, "pitch": 43, "duration": 17, "velocity": 108}, {"time": 1852, "pitch": 55, "duration": 8, "velocity": 105}, {"time": 1852, "pitch": 58, "duration": 7, "velocity": 105}, {"time": 1852, "pitch": 62, "duration": 9, "velocity": 94}, {"time": 1852, "pitch": 63, "duration": 6, "velocity": 72}, {"time": 1852, "pitch": 67, "duration": 10, "velocity": 92}, {"time": 1864, "pitch": 55, "duration": 2, "velocity": 94}, {"time": 1864, "pitch": 58, "duration": 2, "velocity": 105}, {"time": 1864, "pitch": 62, "duration": 2, "velocity": 97}, {"time": 1864, "pitch": 67, "duration": 4, "velocity": 73}, {"time": 1870, "pitch": 48, "duration": 16, "velocity": 105}, {"time": 1870, "pitch": 60, "duration": 10, "velocity": 80}, {"time": 1870, "pitch": 67, "duration": 10, "velocity": 60}, {"time": 1882, "pitch": 60, "duration": 6, "velocity": 108}, {"time": 1882, "pitch": 63, "duration": 7, "velocity": 112}, {"time": 1882, "pitch": 67, "duration": 28, "velocity": 100}, {"time": 1891, "pitch": 60, "duration": 3, "velocity": 89}, {"time": 1891, "pitch": 63, "duration": 2, "velocity": 45}, {"time": 1894, "pitch": 44, "duration": 17, "velocity": 93}, {"time": 1900, "pitch": 56, "duration": 9, "velocity": 102}, {"time": 1900, "pitch": 60, "duration": 7, "velocity": 97}, {"time": 1900, "pitch": 63, "duration": 9, "velocity": 72}, {"time": 1912, "pitch": 56, "duration": 3, "velocity": 87}, {"time": 1912, "pitch": 60, "duration": 2, "velocity": 100}, {"time": 1912, "pitch": 67, "duration": 16, "velocity": 94}, {"time": 1918, "pitch": 46, "duration": 22, "velocity": 99}, {"time": 1918, "pitch": 58, "duration": 9, "velocity": 93}, {"time": 1918, "pitch": 62, "duration": 9, "velocity": 89}, {"time": 1930, "pitch": 58, "duration": 5, "velocity": 105}, {"time": 1930, "pitch": 62, "duration": 6, "velocity": 108}, {"time": 1930, "pitch": 67, "duration": 17, "velocity": 105}, {"time": 1939, "pitch": 58, "duration": 4, "velocity": 82}, {"time": 1942, "pitch": 43, "duration": 17, "velocity": 105}, {"time": 1948, "pitch": 55, "duration": 9, "velocity": 105}, {"time": 1948, "pitch": 58, "duration": 8, "velocity": 105}, {"time": 1948, "pitch": 62, "duration": 8, "velocity": 111}, {"time": 1948, "pitch": 67, "duration": 10, "velocity": 76}, {"time": 1954, "pitch": 50, "duration": 5, "velocity": 78}, {"time": 1960, "pitch": 55, "duration": 2, "velocity": 71}, {"time": 1960, "pitch": 58, "duration": 3, "velocity": 90}, {"time": 1960, "pitch": 62, "duration": 2, "velocity": 89}, {"time": 1960, "pitch": 67, "duration": 6, "velocity": 71}, {"time": 1966, "pitch": 48, "duration": 15, "velocity": 94}, {"time": 1966, "pitch": 60, "duration": 9, "velocity": 89}, {"time": 1966, "pitch": 63, "duration": 9, "velocity": 93}, {"time": 1966, "pitch": 67, "duration": 9, "velocity": 94}, {"time": 1972, "pitch": 55, "duration": 8, "velocity": 30}, {"time": 1978, "pitch": 60, "duration": 6, "velocity": 102}, {"time": 1978, "pitch": 63, "duration": 6, "velocity": 112}, {"time": 1978, "pitch": 67, "duration": 6, "velocity": 108}, {"time": 1987, "pitch": 60, "duration": 3, "velocity": 82}, {"time": 1987, "pitch": 63, "duration": 3, "velocity": 105}, {"time": 1987, "pitch": 67, "duration": 18, "velocity": 89}, {"time": 1990, "pitch": 44, "duration": 20, "velocity": 93}, {"time": 1996, "pitch": 56, "duration": 9, "velocity": 102}, {"time": 1996, "pitch": 60, "duration": 7, "velocity": 100}, {"time": 1996, "pitch": 63, "duration": 9, "velocity": 70}, {"time": 2002, "pitch": 51, "duration": 9, "velocity": 79}, {"time": 2008, "pitch": 56, "duration": 5, "velocity": 99}, {"time": 2008, "pitch": 60, "duration": 2, "velocity": 80}, {"time": 2008, "pitch": 63, "duration": 6, "velocity": 90}, {"time": 2008, "pitch": 67, "duration": 13, "velocity": 94}, {"time": 2014, "pitch": 46, "duration": 21, "velocity": 105}, {"time": 2026, "pitch": 58, "duration": 6, "velocity": 102}, {"time": 2026, "pitch": 62, "duration": 6, "velocity": 114}, {"time": 2026, "pitch": 67, "duration": 7, "velocity": 108}, {"time": 2035, "pitch": 58, "duration": 4, "velocity": 93}, {"time": 2035, "pitch": 62, "duration": 2, "velocity": 97}, {"time": 2035, "pitch": 67, "duration": 5, "velocity": 80}, {"time": 2038, "pitch": 43, "duration": 20, "velocity": 105}, {"time": 2044, "pitch": 55, "duration": 8, "velocity": 97}, {"time": 2044, "pitch": 58, "duration": 8, "velocity": 102}, {"time": 2044, "pitch": 62, "duration": 9, "velocity": 102}, {"time": 2044, "pitch": 67, "duration": 9, "velocity": 60}, {"time": 2050, "pitch": 50, "duration": 8, "velocity": 78}, {"time": 2056, "pitch": 55, "duration": 5, "velocity": 87}, {"time": 2056, "pitch": 58, "duration": 5, "velocity": 99}, {"time": 2056, "pitch": 62, "duration": 6, "velocity": 92}, {"time": 2056, "pitch": 67, "duration": 7, "velocity": 82}, {"time": 2062, "pitch": 48, "duration": 18, "velocity": 105}, {"time": 2062, "pitch": 60, "duration": 8, "velocity": 92}, {"time": 2062, "pitch": 63, "duration": 8, "velocity": 105}, {"time": 2062, "pitch": 67, "duration": 1, "velocity": 100}, {"time": 2068, "pitch": 55, "duration": 11, "velocity": 73}, {"time": 2074, "pitch": 60, "duration": 6, "velocity": 105}, {"time": 2074, "pitch": 63, "duration": 6, "velocity": 112}, {"time": 2074, "pitch": 67, "duration": 6, "velocity": 105}, {"time": 2083, "pitch": 60, "duration": 3, "velocity": 82}, {"time": 2083, "pitch": 63, "duration": 2, "velocity": 102}, {"time": 2083, "pitch": 67, "duration": 7, "velocity": 94}, {"time": 2086, "pitch": 43, "duration": 19, "velocity": 102}, {"time": 2092, "pitch": 55, "duration": 9, "velocity": 100}, {"time": 2092, "pitch": 58, "duration": 9, "velocity": 96}, {"time": 2092, "pitch": 62, "duration": 9, "velocity": 102}, {"time": 2092, "pitch": 67, "duration": 10, "velocity": 73}, {"time": 2098, "pitch": 50, "duration": 8, "velocity": 67}, {"time": 2104, "pitch": 55, "duration": 7, "velocity": 84}, {"time": 2104, "pitch": 58, "duration": 6, "velocity": 93}, {"time": 2104, "pitch": 62, "duration": 6, "velocity": 100}, {"time": 2104, "pitch": 67, "duration": 6, "velocity": 73}, {"time": 2110, "pitch": 41, "duration": 21, "velocity": 102}, {"time": 2110, "pitch": 53, "duration": 9, "velocity": 78}, {"time": 2110, "pitch": 56, "duration": 9, "velocity": 77}, {"time": 2110, "pitch": 60, "duration": 9, "velocity": 92}, {"time": 2122, "pitch": 53, "duration": 5, "velocity": 105}, {"time": 2122, "pitch": 56, "duration": 6, "velocity": 112}, {"time": 2122, "pitch": 60, "duration": 6, "velocity": 108}, {"time": 2131, "pitch": 53, "duration": 3, "velocity": 78}, {"time": 2131, "pitch": 56, "duration": 4, "velocity": 70}, {"time": 2131, "pitch": 60, "duration": 5, "velocity": 89}, {"time": 2134, "pitch": 43, "duration": 22, "velocity": 102}, {"time": 2140, "pitch": 55, "duration": 8, "velocity": 102}, {"time": 2140, "pitch": 58, "duration": 6, "velocity": 109}, {"time": 2140, "pitch": 62, "duration": 8, "velocity": 100}, {"time": 2143, "pitch": 59, "duration": 3, "velocity": 71}, {"time": 2146, "pitch": 50, "duration": 9, "velocity": 67}, {"time": 2152, "pitch": 55, "duration": 6, "velocity": 97}, {"time": 2152, "pitch": 58, "duration": 6, "velocity": 105}, {"time": 2152, "pitch": 62, "duration": 7, "velocity": 105}, {"time": 2158, "pitch": 48, "duration": 13, "velocity": 100}, {"time": 2158, "pitch": 60, "duration": 9, "velocity": 87}, {"time": 2158, "pitch": 63, "duration": 9, "velocity": 109}, {"time": 2158, "pitch": 67, "duration": 10, "velocity": 94}, {"time": 2170, "pitch": 60, "duration": 5, "velocity": 105}, {"time": 2170, "pitch": 63, "duration": 10, "velocity": 116}, {"time": 2170, "pitch": 67, "duration": 27, "velocity": 105}, {"time": 2179, "pitch": 60, "duration": 3, "velocity": 71}, {"time": 2182, "pitch": 44, "duration": 20, "velocity": 90}, {"time": 2188, "pitch": 56, "duration": 9, "velocity": 93}, {"time": 2188, "pitch": 60, "duration": 8, "velocity": 100}, {"time": 2188, "pitch": 63, "duration": 9, "velocity": 77}, {"time": 2200, "pitch": 56, "duration": 3, "velocity": 59}, {"time": 2200, "pitch": 63, "duration": 3, "velocity": 41}, {"time": 2200, "pitch": 67, "duration": 5, "velocity": 78}, {"time": 2206, "pitch": 46, "duration": 22, "velocity": 102}, {"time": 2206, "pitch": 58, "duration": 10, "velocity": 87}, {"time": 2206, "pitch": 62, "duration": 9, "velocity": 97}, {"time": 2206, "pitch": 67, "duration": 10, "velocity": 69}, {"time": 2218, "pitch": 58, "duration": 5, "velocity": 102}, {"time": 2218, "pitch": 62, "duration": 13, "velocity": 114}, {"time": 2218, "pitch": 67, "duration": 16, "velocity": 108}, {"time": 2227, "pitch": 58, "duration": 4, "velocity": 46}, {"time": 2230, "pitch": 43, "duration": 17, "velocity": 108}, {"time": 2236, "pitch": 55, "duration": 8, "velocity": 105}, {"time": 2236, "pitch": 58, "duration": 7, "velocity": 105}, {"time": 2236, "pitch": 62, "duration": 9, "velocity": 94}, {"time": 2236, "pitch": 63, "duration": 6, "velocity": 72}, {"time": 2236, "pitch": 67, "duration": 10, "velocity": 92}, {"time": 2248, "pitch": 55, "duration": 2, "velocity": 94}, {"time": 2248, "pitch": 58, "duration": 2, "velocity": 105}, {"time": 2248, "pitch": 62, "duration": 2, "velocity": 97}, {"time": 2248, "pitch": 67, "duration": 4, "velocity": 73}, {"time": 2254, "pitch": 48, "duration": 16, "velocity": 105}, {"time": 2254, "pitch": 60, "duration": 10, "velocity": 80}, {"time": 2254, "pitch": 67, "duration": 10, "velocity": 60}, {"time": 2266, "pitch": 60, "duration": 6, "velocity": 108}, {"time": 2266, "pitch": 63, "duration": 7, "velocity": 112}, {"time": 2266, "pitch": 67, "duration": 28, "velocity": 100}, {"time": 2275, "pitch": 60, "duration": 3, "velocity": 89}, {"time": 2275, "pitch": 63, "duration": 2, "velocity": 45}, {"time": 2278, "pitch": 44, "duration": 17, "velocity": 93}, {"time": 2284, "pitch": 56, "duration": 9, "velocity": 102}, {"time": 2284, "pitch": 60, "duration": 7, "velocity": 97}, {"time": 2284, "pitch": 63, "duration": 9, "velocity": 72}, {"time": 2296, "pitch": 56, "duration": 3, "velocity": 87}, {"time": 2296, "pitch": 60, "duration": 2, "velocity": 100}, {"time": 2296, "pitch": 67, "duration": 16, "velocity": 94}, {"time": 2302, "pitch": 46, "duration": 22, "velocity": 99}, {"time": 2302, "pitch": 58, "duration": 9, "velocity": 93}, {"time": 2302, "pitch": 62, "duration": 9, "velocity": 89}, {"time": 2314, "pitch": 58, "duration": 5, "velocity": 105}, {"time": 2314, "pitch": 62, "duration": 6, "velocity": 108}, {"time": 2314, "pitch": 67, "duration": 17, "velocity": 105}, {"time": 2323, "pitch": 58, "duration": 4, "velocity": 82}, {"time": 2326, "pitch": 43, "duration": 17, "velocity": 105}, {"time": 2332, "pitch": 55, "duration": 9, "velocity": 105}, {"time": 2332, "pitch": 58, "duration": 8, "velocity": 105}, {"time": 2332, "pitch": 62, "duration": 8, "velocity": 111}, {"time": 2332, "pitch": 67, "duration": 10, "velocity": 76}, {"time": 2338, "pitch": 50, "duration": 5, "velocity": 78}, {"time": 2344, "pitch": 55, "duration": 2, "velocity": 71}, {"time": 2344, "pitch": 58, "duration": 3, "velocity": 90}, {"time": 2344, "pitch": 62, "duration": 2, "velocity": 89}, {"time": 2344, "pitch": 67, "duration": 6, "velocity": 71}, {"time": 2350, "pitch": 48, "duration": 15, "velocity": 94}, {"time": 2350, "pitch": 60, "duration": 9, "velocity": 89}, {"time": 2350, "pitch": 63, "duration": 9, "velocity": 93}, {"time": 2350, "pitch": 67, "duration": 9, "velocity": 94}, {"time": 2356, "pitch": 55, "duration": 8, "velocity": 30}, {"time": 2362, "pitch": 60, "duration": 6, "velocity": 102}, {"time": 2362, "pitch": 63, "duration": 6, "velocity": 112}, {"time": 2362, "pitch": 67, "duration": 6, "velocity": 108}, {"time": 2371, "pitch": 60, "duration": 3, "velocity": 82}, {"time": 2371, "pitch": 63, "duration": 3, "velocity": 105}, {"time": 2371, "pitch": 67, "duration": 18, "velocity": 89}, {"time": 2374, "pitch": 44, "duration": 20, "velocity": 93}, {"time": 2380, "pitch": 56, "duration": 9, "velocity": 102}, {"time": 2380, "pitch": 60, "duration": 7, "velocity": 100}, {"time": 2380, "pitch": 63, "duration": 9, "velocity": 70}, {"time": 2386, "pitch": 51, "duration": 9, "velocity": 79}, {"time": 2392, "pitch": 56, "duration": 5, "velocity": 99}, {"time": 2392, "pitch": 60, "duration": 2, "velocity": 80}, {"time": 2392, "pitch": 63, "duration": 6, "velocity": 90}, {"time": 2392, "pitch": 67, "duration": 13, "velocity": 94}, {"time": 2398, "pitch": 46, "duration": 21, "velocity": 105}, {"time": 2410, "pitch": 58, "duration": 6, "velocity": 102}, {"time": 2410, "pitch": 62, "duration": 6, "velocity": 114}, {"time": 2410, "pitch": 67, "duration": 7, "velocity": 108}, {"time": 2419, "pitch": 58, "duration": 4, "velocity": 93}, {"time": 2419, "pitch": 62, "duration": 2, "velocity": 97}, {"time": 2419, "pitch": 67, "duration": 5, "velocity": 80}, {"time": 2422, "pitch": 43, "duration": 20, "velocity": 105}, {"time": 2428, "pitch": 55, "duration": 8, "velocity": 97}, {"time": 2428, "pitch": 58, "duration": 8, "velocity": 102}, {"time": 2428, "pitch": 62, "duration": 9, "velocity": 102}, {"time": 2428, "pitch": 67, "duration": 9, "velocity": 60}, {"time": 2434, "pitch": 50, "duration": 8, "velocity": 78}, {"time": 2440, "pitch": 55, "duration": 5, "velocity": 87}, {"time": 2440, "pitch": 58, "duration": 5, "velocity": 99}, {"time": 2440, "pitch": 62, "duration": 6, "velocity": 92}, {"time": 2440, "pitch": 67, "duration": 7, "velocity": 82}, {"time": 2446, "pitch": 48, "duration": 18, "velocity": 105}, {"time": 2446, "pitch": 60, "duration": 8, "velocity": 92}, {"time": 2446, "pitch": 63, "duration": 8, "velocity": 105}, {"time": 2446, "pitch": 67, "duration": 1, "velocity": 100}, {"time": 2452, "pitch": 55, "duration": 11, "velocity": 73}, {"time": 2458, "pitch": 60, "duration": 6, "velocity": 105}, {"time": 2458, "pitch": 63, "duration": 6, "velocity": 112}, {"time": 2458, "pitch": 67, "duration": 6, "velocity": 105}, {"time": 2467, "pitch": 60, "duration": 3, "velocity": 82}, {"time": 2467, "pitch": 63, "duration": 2, "velocity": 102}, {"time": 2467, "pitch": 67, "duration": 7, "velocity": 94}, {"time": 2470, "pitch": 43, "duration": 19, "velocity": 102}, {"time": 2476, "pitch": 55, "duration": 9, "velocity": 100}, {"time": 2476, "pitch": 58, "duration": 9, "velocity": 96}, {"time": 2476, "pitch": 62, "duration": 9, "velocity": 102}, {"time": 2476, "pitch": 67, "duration": 10, "velocity": 73}, {"time": 2482, "pitch": 50, "duration": 8, "velocity": 67}, {"time": 2488, "pitch": 55, "duration": 7, "velocity": 84}, {"time": 2488, "pitch": 58, "duration": 6, "velocity": 93}, {"time": 2488, "pitch": 62, "duration": 6, "velocity": 100}, {"time": 2488, "pitch": 67, "duration": 6, "velocity": 73}, {"time": 2494, "pitch": 41, "duration": 21, "velocity": 102}, {"time": 2494, "pitch": 53, "duration": 9, "velocity": 78}, {"time": 2494, "pitch": 56, "duration": 9, "velocity": 77}, {"time": 2494, "pitch": 60, "duration": 9, "velocity": 92}, {"time": 2506, "pitch": 53, "duration": 5, "velocity": 105}, {"time": 2506, "pitch": 56, "duration": 6, "velocity": 112}, {"time": 2506, "pitch": 60, "duration": 6, "velocity": 108}, {"time": 2515, "pitch": 53, "duration": 3, "velocity": 78}, {"time": 2515, "pitch": 56, "duration": 4, "velocity": 70}, {"time": 2515, "pitch": 60, "duration": 5, "velocity": 89}, {"time": 2518, "pitch": 43, "duration": 22, "velocity": 102}, {"time": 2524, "pitch": 55, "duration": 8, "velocity": 102}, {"time": 2524, "pitch": 58, "duration": 6, "velocity": 109}, {"time": 2524, "pitch": 62, "duration": 8, "velocity": 100}, {"time": 2527, "pitch": 59, "duration": 3, "velocity": 71}, {"time": 2530, "pitch": 50, "duration": 9, "velocity": 67}, {"time": 2536, "pitch": 55, "duration": 6, "velocity": 97}, {"time": 2536, "pitch": 58, "duration": 6, "velocity": 105}, {"time": 2536, "pitch": 62, "duration": 7, "velocity": 105}, {"time": 2542, "pitch": 48, "duration": 17, "velocity": 100}, {"time": 2542, "pitch": 60, "duration": 9, "velocity": 82}, {"time": 2542, "pitch": 63, "duration": 9, "velocity": 74}, {"time": 2542, "pitch": 67, "duration": 9, "velocity": 92}, {"time": 2548, "pitch": 55, "duration": 11, "velocity": 80}, {"time": 2554, "pitch": 60, "duration": 3, "velocity": 100}, {"time": 2554, "pitch": 63, "duration": 14, "velocity": 112}, {"time": 2554, "pitch": 67, "duration": 22, "velocity": 100}, {"time": 2560, "pitch": 60, "duration": 7, "velocity": 92}, {"time": 2566, "pitch": 44, "duration": 17, "velocity": 99}, {"time": 2572, "pitch": 51, "duration": 12, "velocity": 61}, {"time": 2578, "pitch": 56, "duration": 5, "velocity": 105}, {"time": 2578, "pitch": 63, "duration": 12, "velocity": 50}, {"time": 2578, "pitch": 67, "duration": 23, "velocity": 94}, {"time": 2584, "pitch": 56, "duration": 5, "velocity": 99}, {"time": 2590, "pitch": 46, "duration": 20, "velocity": 96}, {"time": 2596, "pitch": 53, "duration": 9, "velocity": 87}, {"time": 2602, "pitch": 58, "duration": 5, "velocity": 105}, {"time": 2602, "pitch": 62, "duration": 8, "velocity": 102}, {"time": 2602, "pitch": 67, "duration": 22, "velocity": 111}, {"time": 2608, "pitch": 53, "duration": 4, "velocity": 73}, {"time": 2614, "pitch": 43, "duration": 17, "velocity": 108}, {"time": 2620, "pitch": 50, "duration": 8, "velocity": 80}, {"time": 2626, "pitch": 55, "duration": 3, "velocity": 97}, {"time": 2626, "pitch": 58, "duration": 10, "velocity": 105}, {"time": 2626, "pitch": 62, "duration": 12, "velocity": 111}, {"time": 2626, "pitch": 67, "duration": 17, "velocity": 82}, {"time": 2632, "pitch": 55, "duration": 5, "velocity": 94}, {"time": 2638, "pitch": 48, "duration": 18, "velocity": 105}, {"time": 2644, "pitch": 55, "duration": 9, "velocity": 71}, {"time": 2650, "pitch": 60, "duration": 4, "velocity": 105}, {"time": 2650, "pitch": 63, "duration": 11, "velocity": 112}, {"time": 2650, "pitch": 67, "duration": 42, "velocity": 108}, {"time": 2656, "pitch": 60, "duration": 6, "velocity": 97}, {"time": 2662, "pitch": 44, "duration": 14, "velocity": 105}, {"time": 2668, "pitch": 51, "duration": 8, "velocity": 52}, {"time": 2674, "pitch": 56, "duration": 3, "velocity": 96}, {"time": 2674, "pitch": 60, "duration": 4, "velocity": 80}, {"time": 2674, "pitch": 63, "duration": 11, "velocity": 85}, {"time": 2680, "pitch": 56, "duration": 5, "velocity": 105}, {"time": 2686, "pitch": 46, "duration": 21, "velocity": 109}, {"time": 2692, "pitch": 53, "duration": 11, "velocity": 67}, {"time": 2698, "pitch": 58, "duration": 3, "velocity": 96}, {"time": 2698, "pitch": 62, "duration": 8, "velocity": 102}, {"time": 2698, "pitch": 67, "duration": 22, "velocity": 102}, {"time": 2704, "pitch": 58, "duration": 5, "velocity": 99}, {"time": 2710, "pitch": 43, "duration": 19, "velocity": 102}, {"time": 2716, "pitch": 50, "duration": 12, "velocity": 78}, {"time": 2722, "pitch": 55, "duration": 2, "velocity": 92}, {"time": 2722, "pitch": 58, "duration": 8, "velocity": 109}, {"time": 2722, "pitch": 62, "duration": 12, "velocity": 108}, {"time": 2722, "pitch": 67, "duration": 14, "velocity": 92}, {"time": 2728, "pitch": 55, "duration": 7, "velocity": 111}, {"time": 2734, "pitch": 48, "duration": 17, "velocity": 100}, {"time": 2734, "pitch": 60, "duration": 9, "velocity": 82}, {"time": 2734, "pitch": 63, "duration": 9, "velocity": 74}, {"time": 2734, "pitch": 67, "duration": 2, "velocity": 92}, {"time": 2740, "pitch": 55, "duration": 11, "velocity": 80}, {"time": 2746, "pitch": 60, "duration": 3, "velocity": 100}, {"time": 2746, "pitch": 63, "duration": 14, "velocity": 112}, {"time": 2746, "pitch": 67, "duration": 22, "velocity": 100}, {"time": 2752, "pitch": 60, "duration": 7, "velocity": 92}, {"time": 2758, "pitch": 44, "duration": 17, "velocity": 99}, {"time": 2764, "pitch": 51, "duration": 12, "velocity": 61}, {"time": 2770, "pitch": 56, "duration": 5, "velocity": 105}, {"time": 2770, "pitch": 63, "duration": 12, "velocity": 50}, {"time": 2770, "pitch": 67, "duration": 23, "velocity": 94}, {"time": 2776, "pitch": 56, "duration": 5, "velocity": 99}, {"time": 2782, "pitch": 46, "duration": 20, "velocity": 96}, {"time": 2788, "pitch": 53, "duration": 9, "velocity": 87}, {"time": 2794, "pitch": 58, "duration": 5, "velocity": 105}, {"time": 2794, "pitch": 62, "duration": 8, "velocity": 102}, {"time": 2794, "pitch": 67, "duration": 22, "velocity": 111}, {"time": 2800, "pitch": 53, "duration": 4, "velocity": 73}, {"time": 2806, "pitch": 43, "duration": 17, "velocity": 108}, {"time": 2812, "pitch": 50, "duration": 8, "velocity": 80}, {"time": 2818, "pitch": 55, "duration": 3, "velocity": 97}, {"time": 2818, "pitch": 58, "duration": 10, "velocity": 105}, {"time": 2818, "pitch": 62, "duration": 12, "velocity": 111}, {"time": 2818, "pitch": 67, "duration": 17, "velocity": 82}, {"time": 2824, "pitch": 55, "duration": 5, "velocity": 94}, {"time": 2830, "pitch": 41, "duration": 18, "velocity": 100}, {"time": 2830, "pitch": 53, "duration": 9, "velocity": 97}, {"time": 2830, "pitch": 56, "duration": 9, "velocity": 105}, {"time": 2830, "pitch": 60, "duration": 9, "velocity": 100}, {"time": 2836, "pitch": 48, "duration": 9, "velocity": 78}, {"time": 2842, "pitch": 56, "duration": 7, "velocity": 109}, {"time": 2842, "pitch": 60, "duration": 9, "velocity": 117}, {"time": 2848, "pitch": 53, "duration": 3, "velocity": 111}, {"time": 2854, "pitch": 43, "duration": 17, "velocity": 89}, {"time": 2854, "pitch": 55, "duration": 10, "velocity": 82}, {"time": 2854, "pitch": 62, "duration": 10, "velocity": 87}, {"time": 2860, "pitch": 50, "duration": 10, "velocity": 67}, {"time": 2866, "pitch": 55, "duration": 3, "velocity": 97}, {"time": 2866, "pitch": 58, "duration": 7, "velocity": 105}, {"time": 2866, "pitch": 62, "duration": 10, "velocity": 108}, {"time": 2872, "pitch": 55, "duration": 4, "velocity": 97}, {"time": 2878, "pitch": 44, "duration": 15, "velocity": 99}, {"time": 2878, "pitch": 56, "duration": 7, "velocity": 112}, {"time": 2878, "pitch": 60, "duration": 8, "velocity": 102}, {"time": 2884, "pitch": 51, "duration": 12, "velocity": 99}, {"time": 2890, "pitch": 56, "duration": 3, "velocity": 112}, {"time": 2890, "pitch": 60, "duration": 8, "velocity": 117}, {"time": 2896, "pitch": 56, "duration": 4, "velocity": 90}, {"time": 2902, "pitch": 46, "duration": 17, "velocity": 96}, {"time": 2902, "pitch": 58, "duration": 6, "velocity": 105}, {"time": 2902, "pitch": 62, "duration": 8, "velocity": 97}, {"time": 2908, "pitch": 53, "duration": 9, "velocity": 89}, {"time": 2914, "pitch": 58, "duration": 10, "velocity": 112}, {"time": 2914, "pitch": 62, "duration": 11, "velocity": 108}, {"time": 2920, "pitch": 53, "duration": 4, "velocity": 105}, {"time": 2926, "pitch": 41, "duration": 19, "velocity": 100}, {"time": 2926, "pitch": 53, "duration": 9, "velocity": 92}, {"time": 2926, "pitch": 56, "duration": 10, "velocity": 102}, {"time": 2926, "pitch": 60, "duration": 10, "velocity": 100}, {"time": 2932, "pitch": 48, "duration": 9, "velocity": 53}, {"time": 2938, "pitch": 53, "duration": 2, "velocity": 84}, {"time": 2938, "pitch": 56, "duration": 14, "velocity": 112}, {"time": 2938, "pitch": 60, "duration": 15, "velocity": 111}, {"time": 2944, "pitch": 53, "duration": 8, "velocity": 67}, {"time": 2950, "pitch": 41, "duration": 18, "velocity": 66}, {"time": 2950, "pitch": 48, "duration": 18, "velocity": 94}, {"time": 2956, "pitch": 53, "duration": 3, "velocity": 92}, {"time": 2962, "pitch": 53, "duration": 1, "velocity": 84}, {"time": 2962, "pitch": 56, "duration": 7, "velocity": 116}, {"time": 2962, "pitch": 60, "duration": 9, "velocity": 111}, {"time": 2968, "pitch": 53, "duration": 3, "velocity": 108}, {"time": 2974, "pitch": 48, "duration": 10, "velocity": 120}, {"time": 2974, "pitch": 55, "duration": 3, "velocity": 97}, {"time": 2974, "pitch": 60, "duration": 8, "velocity": 114}, {"time": 2980, "pitch": 55, "duration": 4, "velocity": 102}, {"time": 2986, "pitch": 46, "duration": 12, "velocity": 116}, {"time": 2986, "pitch": 53, "duration": 4, "velocity": 108}, {"time": 2986, "pitch": 58, "duration": 8, "velocity": 90}, {"time": 2992, "pitch": 53, "duration": 6, "velocity": 105}, {"time": 2998, "pitch": 51, "duration": 12, "velocity": 112}, {"time": 2998, "pitch": 58, "duration": 11, "velocity": 74}, {"time": 2998, "pitch": 60, "duration": 11, "velocity": 79}, {"time": 2998, "pitch": 63, "duration": 11, "velocity": 105}, {"time": 3010, "pitch": 46, "duration": 11, "velocity": 105}, {"time": 3010, "pitch": 58, "duration": 10, "velocity": 93}, {"time": 3010, "pitch": 63, "duration": 10, "velocity": 90}, {"time": 3010, "pitch": 65, "duration": 10, "velocity": 108}, {"time": 3022, "pitch": 48, "duration": 13, "velocity": 100}, {"time": 3022, "pitch": 60, "duration": 9, "velocity": 87}, {"time": 3022, "pitch": 63, "duration": 9, "velocity": 109}, {"time": 3022, "pitch": 67, "duration": 10, "velocity": 94}, {"time": 3034, "pitch": 60, "duration": 5, "velocity": 105}, {"time": 3034, "pitch": 63, "duration": 10, "velocity": 116}, {"time": 3034, "pitch": 67, "duration": 27, "velocity": 105}, {"time": 3043, "pitch": 60, "duration": 3, "velocity": 71}, {"time": 3046, "pitch": 44, "duration": 20, "velocity": 90}, {"time": 3052, "pitch": 56, "duration": 9, "velocity": 93}, {"time": 3052, "pitch": 60, "duration": 8, "velocity": 100}, {"time": 3052, "pitch": 63, "duration": 9, "velocity": 77}, {"time": 3064, "pitch": 56, "duration": 3, "velocity": 59}, {"time": 3064, "pitch": 63, "duration": 3, "velocity": 41}, {"time": 3064, "pitch": 67, "duration": 5, "velocity": 78}, {"time": 3070, "pitch": 46, "duration": 22, "velocity": 102}, {"time": 3070, "pitch": 58, "duration": 10, "velocity": 87}, {"time": 3070, "pitch": 62, "duration": 9, "velocity": 97}, {"time": 3070, "pitch": 67, "duration": 10, "velocity": 69}, {"time": 3082, "pitch": 58, "duration": 5, "velocity": 102}, {"time": 3082, "pitch": 62, "duration": 13, "velocity": 114}, {"time": 3082, "pitch": 67, "duration": 16, "velocity": 108}, {"time": 3091, "pitch": 58, "duration": 4, "velocity": 46}, {"time": 3094, "pitch": 43, "duration": 17, "velocity": 108}, {"time": 3100, "pitch": 55, "duration": 8, "velocity": 105}, {"time": 3100, "pitch": 58, "duration": 7, "velocity": 105}, {"time": 3100, "pitch": 62, "duration": 9, "velocity": 94}, {"time": 3100, "pitch": 63, "duration": 6, "velocity": 72}, {"time": 3100, "pitch": 67, "duration": 10, "velocity": 92}, {"time": 3112, "pitch": 55, "duration": 2, "velocity": 94}, {"time": 3112, "pitch": 58, "duration": 2, "velocity": 105}, {"time": 3112, "pitch": 62, "duration": 2, "velocity": 97}, {"time": 3112, "pitch": 67, "duration": 4, "velocity": 73}, {"time": 3118, "pitch": 48, "duration": 16, "velocity": 105}, {"time": 3118, "pitch": 60, "duration": 10, "velocity": 80}, {"time": 3118, "pitch": 67, "duration": 10, "velocity": 60}, {"time": 3130, "pitch": 60, "duration": 6, "velocity": 108}, {"time": 3130, "pitch": 63, "duration": 7, "velocity": 112}, {"time": 3130, "pitch": 67, "duration": 28, "velocity": 100}, {"time": 3139, "pitch": 60, "duration": 3, "velocity": 89}, {"time": 3139, "pitch": 63, "duration": 2, "velocity": 45}, {"time": 3142, "pitch": 44, "duration": 17, "velocity": 93}, {"time": 3148, "pitch": 56, "duration": 9, "velocity": 102}, {"time": 3148, "pitch": 60, "duration": 7, "velocity": 97}, {"time": 3148, "pitch": 63, "duration": 9, "velocity": 72}, {"time": 3160, "pitch": 56, "duration": 3, "velocity": 87}, {"time": 3160, "pitch": 60, "duration": 2, "velocity": 100}, {"time": 3160, "pitch": 67, "duration": 16, "velocity": 94}, {"time": 3166, "pitch": 46, "duration": 22, "velocity": 99}, {"time": 3166, "pitch": 58, "duration": 9, "velocity": 93}, {"time": 3166, "pitch": 62, "duration": 9, "velocity": 89}, {"time": 3178, "pitch": 58, "duration": 5, "velocity": 105}, {"time": 3178, "pitch": 62, "duration": 6, "velocity": 108}, {"time": 3178, "pitch": 67, "duration": 17, "velocity": 105}, {"time": 3187, "pitch": 58, "duration": 4, "velocity": 82}, {"time": 3190, "pitch": 43, "duration": 17, "velocity": 105}, {"time": 3196, "pitch": 55, "duration": 9, "velocity": 105}, {"time": 3196, "pitch": 58, "duration": 8, "velocity": 105}, {"time": 3196, "pitch": 62, "duration": 8, "velocity": 111}, {"time": 3196, "pitch": 67, "duration": 10, "velocity": 76}, {"time": 3202, "pitch": 50, "duration": 5, "velocity": 78}, {"time": 3208, "pitch": 55, "duration": 2, "velocity": 71}, {"time": 3208, "pitch": 58, "duration": 3, "velocity": 90}, {"time": 3208, "pitch": 62, "duration": 2, "velocity": 89}, {"time": 3208, "pitch": 67, "duration": 6, "velocity": 71}, {"time": 3214, "pitch": 48, "duration": 15, "velocity": 94}, {"time": 3214, "pitch": 60, "duration": 9, "velocity": 89}, {"time": 3214, "pitch": 63, "duration": 9, "velocity": 93}, {"time": 3214, "pitch": 67, "duration": 9, "velocity": 94}, {"time": 3220, "pitch": 55, "duration": 8, "velocity": 30}, {"time": 3226, "pitch": 60, "duration": 6, "velocity": 102}, {"time": 3226, "pitch": 63, "duration": 6, "velocity": 112}, {"time": 3226, "pitch": 67, "duration": 6, "velocity": 108}, {"time": 3235, "pitch": 60, "duration": 3, "velocity": 82}, {"time": 3235, "pitch": 63, "duration": 3, "velocity": 105}, {"time": 3235, "pitch": 67, "duration": 18, "velocity": 89}, {"time": 3238, "pitch": 44, "duration": 20, "velocity": 93}, {"time": 3244, "pitch": 56, "duration": 9, "velocity": 102}, {"time": 3244, "pitch": 60, "duration": 7, "velocity": 100}, {"time": 3244, "pitch": 63, "duration": 9, "velocity": 70}, {"time": 3250, "pitch": 51, "duration": 9, "velocity": 79}, {"time": 3256, "pitch": 56, "duration": 5, "velocity": 99}, {"time": 3256, "pitch": 60, "duration": 2, "velocity": 80}, {"time": 3256, "pitch": 63, "duration": 6, "velocity": 90}, {"time": 3256, "pitch": 67, "duration": 13, "velocity": 94}, {"time": 3262, "pitch": 46, "duration": 21, "velocity": 105}, {"time": 3274, "pitch": 58, "duration": 6, "velocity": 102}, {"time": 3274, "pitch": 62, "duration": 6, "velocity": 114}, {"time": 3274, "pitch": 67, "duration": 7, "velocity": 108}, {"time": 3283, "pitch": 58, "duration": 4, "velocity": 93}, {"time": 3283, "pitch": 62, "duration": 2, "velocity": 97}, {"time": 3283, "pitch": 67, "duration": 5, "velocity": 80}, {"time": 3286, "pitch": 43, "duration": 20, "velocity": 105}, {"time": 3292, "pitch": 55, "duration": 8, "velocity": 97}, {"time": 3292, "pitch": 58, "duration": 8, "velocity": 102}, {"time": 3292, "pitch": 62, "duration": 9, "velocity": 102}, {"time": 3292, "pitch": 67, "duration": 9, "velocity": 60}, {"time": 3298, "pitch": 50, "duration": 8, "velocity": 78}, {"time": 3304, "pitch": 55, "duration": 5, "velocity": 87}, {"time": 3304, "pitch": 58, "duration": 5, "velocity": 99}, {"time": 3304, "pitch": 62, "duration": 6, "velocity": 92}, {"time": 3304, "pitch": 67, "duration": 7, "velocity": 82}, {"time": 3310, "pitch": 48, "duration": 18, "velocity": 105}, {"time": 3310, "pitch": 60, "duration": 8, "velocity": 92}, {"time": 3310, "pitch": 63, "duration": 8, "velocity": 105}, {"time": 3310, "pitch": 67, "duration": 1, "velocity": 100}, {"time": 3316, "pitch": 55, "duration": 11, "velocity": 73}, {"time": 3322, "pitch": 60, "duration": 6, "velocity": 105}, {"time": 3322, "pitch": 63, "duration": 6, "velocity": 112}, {"time": 3322, "pitch": 67, "duration": 6, "velocity": 105}, {"time": 3331, "pitch": 60, "duration": 3, "velocity": 82}, {"time": 3331, "pitch": 63, "duration": 2, "velocity": 102}, {"time": 3331, "pitch": 67, "duration": 7, "velocity": 94}, {"time": 3334, "pitch": 43, "duration": 19, "velocity": 102}, {"time": 3340, "pitch": 55, "duration": 9, "velocity": 100}, {"time": 3340, "pitch": 58, "duration": 9, "velocity": 96}, {"time": 3340, "pitch": 62, "duration": 9, "velocity": 102}, {"time": 3340, "pitch": 67, "duration": 10, "velocity": 73}, {"time": 3346, "pitch": 50, "duration": 8, "velocity": 67}, {"time": 3352, "pitch": 55, "duration": 7, "velocity": 84}, {"time": 3352, "pitch": 58, "duration": 6, "velocity": 93}, {"time": 3352, "pitch": 62, "duration": 6, "velocity": 100}, {"time": 3352, "pitch": 67, "duration": 6, "velocity": 73}, {"time": 3358, "pitch": 41, "duration": 21, "velocity": 102}, {"time": 3358, "pitch": 53, "duration": 9, "velocity": 78}, {"time": 3358, "pitch": 56, "duration": 9, "velocity": 77}, {"time": 3358, "pitch": 60, "duration": 9, "velocity": 92}, {"time": 3370, "pitch": 53, "duration": 5, "velocity": 105}, {"time": 3370, "pitch": 56, "duration": 6, "velocity": 112}, {"time": 3370, "pitch": 60, "duration": 6, "velocity": 108}, {"time": 3379, "pitch": 53, "duration": 3, "velocity": 78}, {"time": 3379, "pitch": 56, "duration": 4, "velocity": 70}, {"time": 3379, "pitch": 60, "duration": 5, "velocity": 89}, {"time": 3382, "pitch": 43, "duration": 22, "velocity": 102}, {"time": 3388, "pitch": 55, "duration": 8, "velocity": 102}, {"time": 3388, "pitch": 58, "duration": 6, "velocity": 109}, {"time": 3388, "pitch": 62, "duration": 8, "velocity": 100}, {"time": 3391, "pitch": 59, "duration": 3, "velocity": 71}, {"time": 3394, "pitch": 50, "duration": 9, "velocity": 67}, {"time": 3400, "pitch": 55, "duration": 6, "velocity": 97}, {"time": 3400, "pitch": 58, "duration": 6, "velocity": 105}, {"time": 3400, "pitch": 62, "duration": 7, "velocity": 105}, {"time": 3406, "pitch": 48, "duration": 13, "velocity": 100}, {"time": 3406, "pitch": 60, "duration": 9, "velocity": 87}, {"time": 3406, "pitch": 63, "duration": 9, "velocity": 109}, {"time": 3406, "pitch": 67, "duration": 10, "velocity": 94}, {"time": 3418, "pitch": 60, "duration": 5, "velocity": 105}, {"time": 3418, "pitch": 63, "duration": 10, "velocity": 116}, {"time": 3418, "pitch": 67, "duration": 27, "velocity": 105}, {"time": 3427, "pitch": 60, "duration": 3, "velocity": 71}, {"time": 3430, "pitch": 44, "duration": 20, "velocity": 90}, {"time": 3436, "pitch": 56, "duration": 9, "velocity": 93}, {"time": 3436, "pitch": 60, "duration": 8, "velocity": 100}, {"time": 3436, "pitch": 63, "duration": 9, "velocity": 77}, {"time": 3448, "pitch": 56, "duration": 3, "velocity": 59}, {"time": 3448, "pitch": 63, "duration": 3, "velocity": 41}, {"time": 3448, "pitch": 67, "duration": 5, "velocity": 78}, {"time": 3454, "pitch": 46, "duration": 22, "velocity": 102}, {"time": 3454, "pitch": 58, "duration": 10, "velocity": 87}, {"time": 3454, "pitch": 62, "duration": 9, "velocity": 97}, {"time": 3454, "pitch": 67, "duration": 10, "velocity": 69}, {"time": 3466, "pitch": 58, "duration": 5, "velocity": 102}, {"time": 3466, "pitch": 62, "duration": 13, "velocity": 114}, {"time": 3466, "pitch": 67, "duration": 16, "velocity": 108}, {"time": 3475, "pitch": 58, "duration": 4, "velocity": 46}, {"time": 3478, "pitch": 43, "duration": 17, "velocity": 108}, {"time": 3484, "pitch": 55, "duration": 8, "velocity": 105}, {"time": 3484, "pitch": 58, "duration": 7, "velocity": 105}, {"time": 3484, "pitch": 62, "duration": 9, "velocity": 94}, {"time": 3484, "pitch": 63, "duration": 6, "velocity": 72}, {"time": 3484, "pitch": 67, "duration": 10, "velocity": 92}, {"time": 3496, "pitch": 55, "duration": 2, "velocity": 94}, {"time": 3496, "pitch": 58, "duration": 2, "velocity": 105}, {"time": 3496, "pitch": 62, "duration": 2, "velocity": 97}, {"time": 3496, "pitch": 67, "duration": 4, "velocity": 73}, {"time": 3502, "pitch": 48, "duration": 16, "velocity": 105}, {"time": 3502, "pitch": 60, "duration": 10, "velocity": 80}, {"time": 3502, "pitch": 67, "duration": 10, "velocity": 60}, {"time": 3514, "pitch": 60, "duration": 6, "velocity": 108}, {"time": 3514, "pitch": 63, "duration": 7, "velocity": 112}, {"time": 3514, "pitch": 67, "duration": 28, "velocity": 100}, {"time": 3523, "pitch": 60, "duration": 3, "velocity": 89}, {"time": 3523, "pitch": 63, "duration": 2, "velocity": 45}, {"time": 3526, "pitch": 44, "duration": 17, "velocity": 93}, {"time": 3532, "pitch": 56, "duration": 9, "velocity": 102}, {"time": 3532, "pitch": 60, "duration": 7, "velocity": 97}, {"time": 3532, "pitch": 63, "duration": 9, "velocity": 72}, {"time": 3544, "pitch": 56, "duration": 3, "velocity": 87}, {"time": 3544, "pitch": 60, "duration": 2, "velocity": 100}, {"time": 3544, "pitch": 67, "duration": 16, "velocity": 94}, {"time": 3550, "pitch": 46, "duration": 22, "velocity": 99}, {"time": 3550, "pitch": 58, "duration": 9, "velocity": 93}, {"time": 3550, "pitch": 62, "duration": 9, "velocity": 89}, {"time": 3562, "pitch": 58, "duration": 5, "velocity": 105}, {"time": 3562, "pitch": 62, "duration": 6, "velocity": 108}, {"time": 3562, "pitch": 67, "duration": 17, "velocity": 105}, {"time": 3571, "pitch": 58, "duration": 4, "velocity": 82}, {"time": 3574, "pitch": 43, "duration": 17, "velocity": 105}, {"time": 3580, "pitch": 55, "duration": 9, "velocity": 105}, {"time": 3580, "pitch": 58, "duration": 8, "velocity": 105}, {"time": 3580, "pitch": 62, "duration": 8, "velocity": 111}, {"time": 3580, "pitch": 67, "duration": 10, "velocity": 76}, {"time": 3586, "pitch": 50, "duration": 5, "velocity": 78}, {"time": 3592, "pitch": 55, "duration": 2, "velocity": 71}, {"time": 3592, "pitch": 58, "duration": 3, "velocity": 90}, {"time": 3592, "pitch": 62, "duration": 2, "velocity": 89}, {"time": 3592, "pitch": 67, "duration": 6, "velocity": 71}, {"time": 3598, "pitch": 48, "duration": 15, "velocity": 94}, {"time": 3598, "pitch": 60, "duration": 9, "velocity": 89}, {"time": 3598, "pitch": 63, "duration": 9, "velocity": 93}, {"time": 3598, "pitch": 67, "duration": 9, "velocity": 94}, {"time": 3604, "pitch": 55, "duration": 8, "velocity": 30}, {"time": 3610, "pitch": 60, "duration": 6, "velocity": 102}, {"time": 3610, "pitch": 63, "duration": 6, "velocity": 112}, {"time": 3610, "pitch": 67, "duration": 6, "velocity": 108}, {"time": 3619, "pitch": 60, "duration": 3, "velocity": 82}, {"time": 3619, "pitch": 63, "duration": 3, "velocity": 105}, {"time": 3619, "pitch": 67, "duration": 18, "velocity": 89}, {"time": 3622, "pitch": 44, "duration": 20, "velocity": 93}, {"time": 3628, "pitch": 56, "duration": 9, "velocity": 102}, {"time": 3628, "pitch": 60, "duration": 7, "velocity": 100}, {"time": 3628, "pitch": 63, "duration": 9, "velocity": 70}, {"time": 3634, "pitch": 51, "duration": 9, "velocity": 79}, {"time": 3640, "pitch": 56, "duration": 5, "velocity": 99}, {"time": 3640, "pitch": 60, "duration": 2, "velocity": 80}, {"time": 3640, "pitch": 63, "duration": 6, "velocity": 90}, {"time": 3640, "pitch": 67, "duration": 13, "velocity": 94}, {"time": 3646, "pitch": 46, "duration": 21, "velocity": 105}, {"time": 3658, "pitch": 58, "duration": 6, "velocity": 102}, {"time": 3658, "pitch": 62, "duration": 6, "velocity": 114}, {"time": 3658, "pitch": 67, "duration": 7, "velocity": 108}, {"time": 3667, "pitch": 58, "duration": 4, "velocity": 93}, {"time": 3667, "pitch": 62, "duration": 2, "velocity": 97}, {"time": 3667, "pitch": 67, "duration": 5, "velocity": 80}, {"time": 3670, "pitch": 43, "duration": 20, "velocity": 105}, {"time": 3676, "pitch": 55, "duration": 8, "velocity": 97}, {"time": 3676, "pitch": 58, "duration": 8, "velocity": 102}, {"time": 3676, "pitch": 62, "duration": 9, "velocity": 102}, {"time": 3676, "pitch": 67, "duration": 9, "velocity": 60}, {"time": 3682, "pitch": 50, "duration": 8, "velocity": 78}, {"time": 3688, "pitch": 55, "duration": 5, "velocity": 87}, {"time": 3688, "pitch": 58, "duration": 5, "velocity": 99}, {"time": 3688, "pitch": 62, "duration": 6, "velocity": 92}, {"time": 3688, "pitch": 67, "duration": 7, "velocity": 82}, {"time": 3694, "pitch": 48, "duration": 18, "velocity": 105}, {"time": 3694, "pitch": 60, "duration": 8, "velocity": 92}, {"time": 3694, "pitch": 63, "duration": 8, "velocity": 105}, {"time": 3694, "pitch": 67, "duration": 1, "velocity": 100}, {"time": 3700, "pitch": 55, "duration": 11, "velocity": 73}, {"time": 3706, "pitch": 60, "duration": 6, "velocity": 105}, {"time": 3706, "pitch": 63, "duration": 6, "velocity": 112}, {"time": 3706, "pitch": 67, "duration": 6, "velocity": 105}, {"time": 3715, "pitch": 60, "duration": 3, "velocity": 82}, {"time": 3715, "pitch": 63, "duration": 2, "velocity": 102}, {"time": 3715, "pitch": 67, "duration": 7, "velocity": 94}, {"time": 3718, "pitch": 43, "duration": 19, "velocity": 102}, {"time": 3724, "pitch": 55, "duration": 9, "velocity": 100}, {"time": 3724, "pitch": 58, "duration": 9, "velocity": 96}, {"time": 3724, "pitch": 62, "duration": 9, "velocity": 102}, {"time": 3724, "pitch": 67, "duration": 10, "velocity": 73}, {"time": 3730, "pitch": 50, "duration": 8, "velocity": 67}, {"time": 3736, "pitch": 55, "duration": 7, "velocity": 84}, {"time": 3736, "pitch": 58, "duration": 6, "velocity": 93}, {"time": 3736, "pitch": 62, "duration": 6, "velocity": 100}, {"time": 3736, "pitch": 67, "duration": 6, "velocity": 73}, {"time": 3742, "pitch": 41, "duration": 21, "velocity": 102}, {"time": 3742, "pitch": 53, "duration": 9, "velocity": 78}, {"time": 3742, "pitch": 56, "duration": 9, "velocity": 77}, {"time": 3742, "pitch": 60, "duration": 9, "velocity": 92}, {"time": 3754, "pitch": 53, "duration": 5, "velocity": 105}, {"time": 3754, "pitch": 56, "duration": 6, "velocity": 112}, {"time": 3754, "pitch": 60, "duration": 6, "velocity": 108}, {"time": 3763, "pitch": 53, "duration": 3, "velocity": 78}, {"time": 3763, "pitch": 56, "duration": 4, "velocity": 70}, {"time": 3763, "pitch": 60, "duration": 5, "velocity": 89}, {"time": 3766, "pitch": 43, "duration": 22, "velocity": 102}, {"time": 3772, "pitch": 55, "duration": 8, "velocity": 102}, {"time": 3772, "pitch": 58, "duration": 6, "velocity": 109}, {"time": 3772, "pitch": 62, "duration": 8, "velocity": 100}, {"time": 3775, "pitch": 59, "duration": 3, "velocity": 71}, {"time": 3778, "pitch": 50, "duration": 9, "velocity": 67}, {"time": 3784, "pitch": 55, "duration": 6, "velocity": 97}, {"time": 3784, "pitch": 58, "duration": 6, "velocity": 105}, {"time": 3784, "pitch": 62, "duration": 7, "velocity": 105}, {"time": 3790, "pitch": 48, "duration": 17, "velocity": 100}, {"time": 3790, "pitch": 60, "duration": 9, "velocity": 82}, {"time": 3790, "pitch": 63, "duration": 9, "velocity": 74}, {"time": 3790, "pitch": 67, "duration": 9, "velocity": 92}, {"time": 3796, "pitch": 55, "duration": 11, "velocity": 80}, {"time": 3802, "pitch": 60, "duration": 3, "velocity": 100}, {"time": 3802, "pitch": 63, "duration": 14, "velocity": 112}, {"time": 3802, "pitch": 67, "duration": 22, "velocity": 100}, {"time": 3808, "pitch": 60, "duration": 7, "velocity": 92}, {"time": 3814, "pitch": 44, "duration": 17, "velocity": 99}, {"time": 3820, "pitch": 51, "duration": 12, "velocity": 61}, {"time": 3826, "pitch": 56, "duration": 5, "velocity": 105}, {"time": 3826, "pitch": 63, "duration": 12, "velocity": 50}, {"time": 3826, "pitch": 67, "duration": 23, "velocity": 94}, {"time": 3832, "pitch": 56, "duration": 5, "velocity": 99}, {"time": 3838, "pitch": 46, "duration": 20, "velocity": 96}, {"time": 3844, "pitch": 53, "duration": 9, "velocity": 87}, {"time": 3850, "pitch": 58, "duration": 5, "velocity": 105}, {"time": 3850, "pitch": 62, "duration": 8, "velocity": 102}, {"time": 3850, "pitch": 67, "duration": 22, "velocity": 111}, {"time": 3856, "pitch": 53, "duration": 4, "velocity": 73}, {"time": 3862, "pitch": 43, "duration": 17, "velocity": 108}, {"time": 3868, "pitch": 50, "duration": 8, "velocity": 80}, {"time": 3874, "pitch": 55, "duration": 3, "velocity": 97}, {"time": 3874, "pitch": 58, "duration": 10, "velocity": 105}, {"time": 3874, "pitch": 62, "duration": 12, "velocity": 111}, {"time": 3874, "pitch": 67, "duration": 17, "velocity": 82}, {"time": 3880, "pitch": 55, "duration": 5, "velocity": 94}, {"time": 3886, "pitch": 48, "duration": 18, "velocity": 105}, {"time": 3892, "pitch": 55, "duration": 9, "velocity": 71}, {"time": 3898, "pitch": 60, "duration": 4, "velocity": 105}, {"time": 3898, "pitch": 63, "duration": 11, "velocity": 112}, {"time": 3898, "pitch": 67, "duration": 42, "velocity": 108}, {"time": 3904, "pitch": 60, "duration": 6, "velocity": 97}, {"time": 3910, "pitch": 44, "duration": 14, "velocity": 105}, {"time": 3916, "pitch": 51, "duration": 8, "velocity": 52}, {"time": 3922, "pitch": 56, "duration": 3, "velocity": 96}, {"time": 3922, "pitch": 60, "duration": 4, "velocity": 80}, {"time": 3922, "pitch": 63, "duration": 11, "velocity": 85}, {"time": 3928, "pitch": 56, "duration": 5, "velocity": 105}, {"time": 3934, "pitch": 46, "duration": 21, "velocity": 109}, {"time": 3940, "pitch": 53, "duration": 11, "velocity": 67}, {"time": 3946, "pitch": 58, "duration": 3, "velocity": 96}, {"time": 3946, "pitch": 62, "duration": 8, "velocity": 102}, {"time": 3946, "pitch": 67, "duration": 22, "velocity": 102}, {"time": 3952, "pitch": 58, "duration": 5, "velocity": 99}, {"time": 3958, "pitch": 43, "duration": 19, "velocity": 102}, {"time": 3964, "pitch": 50, "duration": 12, "velocity": 78}, {"time": 3970, "pitch": 55, "duration": 2, "velocity": 92}, {"time": 3970, "pitch": 58, "duration": 8, "velocity": 109}, {"time": 3970, "pitch": 62, "duration": 12, "velocity": 108}, {"time": 3970, "pitch": 67, "duration": 14, "velocity": 92}, {"time": 3976, "pitch": 55, "duration": 7, "velocity": 111}, {"time": 3982, "pitch": 48, "duration": 17, "velocity": 100}, {"time": 3982, "pitch": 60, "duration": 9, "velocity": 82}, {"time": 3982, "pitch": 63, "duration": 9, "velocity": 74}, {"time": 3982, "pitch": 67, "duration": 2, "velocity": 92}, {"time": 3988, "pitch": 55, "duration": 11, "velocity": 80}, {"time": 3994, "pitch": 60, "duration": 3, "velocity": 100}, {"time": 3994, "pitch": 63, "duration": 14, "velocity": 112}, {"time": 3994, "pitch": 67, "duration": 22, "velocity": 100}, {"time": 4000, "pitch": 60, "duration": 7, "velocity": 92}, {"time": 4006, "pitch": 44, "duration": 17, "velocity": 99}, {"time": 4012, "pitch": 51, "duration": 12, "velocity": 61}, {"time": 4018, "pitch": 56, "duration": 5, "velocity": 105}, {"time": 4018, "pitch": 63, "duration": 12, "velocity": 50}, {"time": 4018, "pitch": 67, "duration": 23, "velocity": 94}, {"time": 4024, "pitch": 56, "duration": 5, "velocity": 99}, {"time": 4030, "pitch": 46, "duration": 20, "velocity": 96}, {"time": 4036, "pitch": 53, "duration": 9, "velocity": 87}, {"time": 4042, "pitch": 58, "duration": 5, "velocity": 105}, {"time": 4042, "pitch": 62, "duration": 8, "velocity": 102}, {"time": 4042, "pitch": 67, "duration": 22, "velocity": 111}, {"time": 4048, "pitch": 53, "duration": 4, "velocity": 73}, {"time": 4054, "pitch": 43, "duration": 17, "velocity": 108}, {"time": 4060, "pitch": 50, "duration": 8, "velocity": 80}, {"time": 4066, "pitch": 55, "duration": 3, "velocity": 97}, {"time": 4066, "pitch": 58, "duration": 10, "velocity": 105}, {"time": 4066, "pitch": 62, "duration": 12, "velocity": 111}, {"time": 4066, "pitch": 67, "duration": 17, "velocity": 82}, {"time": 4072, "pitch": 55, "duration": 5, "velocity": 94}, {"time": 4078, "pitch": 41, "duration": 18, "velocity": 100}, {"time": 4078, "pitch": 53, "duration": 9, "velocity": 97}, {"time": 4078, "pitch": 56, "duration": 9, "velocity": 105}, {"time": 4078, "pitch": 60, "duration": 9, "velocity": 100}, {"time": 4084, "pitch": 48, "duration": 9, "velocity": 78}, {"time": 4090, "pitch": 56, "duration": 7, "velocity": 109}, {"time": 4090, "pitch": 60, "duration": 9, "velocity": 117}, {"time": 4096, "pitch": 53, "duration": 3, "velocity": 111}, {"time": 4102, "pitch": 43, "duration": 17, "velocity": 89}, {"time": 4102, "pitch": 55, "duration": 10, "velocity": 82}, {"time": 4102, "pitch": 62, "duration": 10, "velocity": 87}, {"time": 4108, "pitch": 50, "duration": 10, "velocity": 67}, {"time": 4114, "pitch": 55, "duration": 3, "velocity": 97}, {"time": 4114, "pitch": 58, "duration": 7, "velocity": 105}, {"time": 4114, "pitch": 62, "duration": 10, "velocity": 108}, {"time": 4120, "pitch": 55, "duration": 4, "velocity": 97}, {"time": 4126, "pitch": 44, "duration": 15, "velocity": 99}, {"time": 4126, "pitch": 56, "duration": 7, "velocity": 112}, {"time": 4126, "pitch": 60, "duration": 8, "velocity": 102}, {"time": 4132, "pitch": 51, "duration": 12, "velocity": 99}, {"time": 4138, "pitch": 56, "duration": 3, "velocity": 112}, {"time": 4138, "pitch": 60, "duration": 8, "velocity": 117}, {"time": 4144, "pitch": 56, "duration": 4, "velocity": 90}, {"time": 4150, "pitch": 46, "duration": 17, "velocity": 96}, {"time": 4150, "pitch": 58, "duration": 6, "velocity": 105}, {"time": 4150, "pitch": 62, "duration": 8, "velocity": 97}, {"time": 4156, "pitch": 53, "duration": 9, "velocity": 89}, {"time": 4162, "pitch": 58, "duration": 10, "velocity": 112}, {"time": 4162, "pitch": 62, "duration": 11, "velocity": 108}, {"time": 4168, "pitch": 53, "duration": 4, "velocity": 105}, {"time": 4174, "pitch": 41, "duration": 19, "velocity": 100}, {"time": 4174, "pitch": 53, "duration": 9, "velocity": 92}, {"time": 4174, "pitch": 56, "duration": 10, "velocity": 102}, {"time": 4174, "pitch": 60, "duration": 10, "velocity": 100}, {"time": 4180, "pitch": 48, "duration": 9, "velocity": 53}, {"time": 4186, "pitch": 53, "duration": 2, "velocity": 84}, {"time": 4186, "pitch": 56, "duration": 14, "velocity": 112}, {"time": 4186, "pitch": 60, "duration": 15, "velocity": 111}, {"time": 4192, "pitch": 53, "duration": 8, "velocity": 67}, {"time": 4198, "pitch": 41, "duration": 18, "velocity": 66}, {"time": 4198, "pitch": 48, "duration": 18, "velocity": 94}, {"time": 4204, "pitch": 53, "duration": 3, "velocity": 92}, {"time": 4210, "pitch": 53, "duration": 1, "velocity": 84}, {"time": 4210, "pitch": 56, "duration": 7, "velocity": 116}, {"time": 4210, "pitch": 60, "duration": 9, "velocity": 111}, {"time": 4216, "pitch": 53, "duration": 3, "velocity": 108}, {"time": 4222, "pitch": 48, "duration": 10, "velocity": 120}, {"time": 4222, "pitch": 55, "duration": 3, "velocity": 97}, {"time": 4222, "pitch": 60, "duration": 8, "velocity": 114}, {"time": 4228, "pitch": 55, "duration": 4, "velocity": 102}, {"time": 4234, "pitch": 46, "duration": 12, "velocity": 116}, {"time": 4234, "pitch": 53, "duration": 4, "velocity": 108}, {"time": 4234, "pitch": 58, "duration": 8, "velocity": 90}, {"time": 4240, "pitch": 53, "duration": 6, "velocity": 105}, {"time": 4246, "pitch": 51, "duration": 12, "velocity": 112}, {"time": 4246, "pitch": 58, "duration": 11, "velocity": 74}, {"time": 4246, "pitch": 60, "duration": 11, "velocity": 79}, {"time": 4246, "pitch": 63, "duration": 11, "velocity": 105}, {"time": 4258, "pitch": 46, "duration": 11, "velocity": 105}, {"time": 4258, "pitch": 58, "duration": 10, "velocity": 93}, {"time": 4258, "pitch": 63, "duration": 10, "velocity": 90}, {"time": 4258, "pitch": 65, "duration": 10, "velocity": 108}, {"time": 4270, "pitch": 48, "duration": 13, "velocity": 100}, {"time": 4270, "pitch": 60, "duration": 9, "velocity": 87}, {"time": 4270, "pitch": 63, "duration": 9, "velocity": 109}, {"time": 4270, "pitch": 67, "duration": 10, "velocity": 94}, {"time": 4282, "pitch": 60, "duration": 5, "velocity": 105}, {"time": 4282, "pitch": 63, "duration": 10, "velocity": 116}, {"time": 4282, "pitch": 67, "duration": 27, "velocity": 105}, {"time": 4291, "pitch": 60, "duration": 3, "velocity": 71}, {"time": 4294, "pitch": 44, "duration": 20, "velocity": 90}, {"time": 4300, "pitch": 56, "duration": 9, "velocity": 93}, {"time": 4300, "pitch": 60, "duration": 8, "velocity": 100}, {"time": 4300, "pitch": 63, "duration": 9, "velocity": 77}, {"time": 4312, "pitch": 56, "duration": 3, "velocity": 59}, {"time": 4312, "pitch": 63, "duration": 3, "velocity": 41}, {"time": 4312, "pitch": 67, "duration": 5, "velocity": 78}, {"time": 4318, "pitch": 46, "duration": 22, "velocity": 102}, {"time": 4318, "pitch": 58, "duration": 10, "velocity": 87}, {"time": 4318, "pitch": 62, "duration": 9, "velocity": 97}, {"time": 4318, "pitch": 67, "duration": 10, "velocity": 69}, {"time": 4330, "pitch": 58, "duration": 5, "velocity": 102}, {"time": 4330, "pitch": 62, "duration": 13, "velocity": 114}, {"time": 4330, "pitch": 67, "duration": 16, "velocity": 108}, {"time": 4339, "pitch": 58, "duration": 4, "velocity": 46}, {"time": 4342, "pitch": 43, "duration": 17, "velocity": 108}, {"time": 4348, "pitch": 55, "duration": 8, "velocity": 105}, {"time": 4348, "pitch": 58, "duration": 7, "velocity": 105}, {"time": 4348, "pitch": 62, "duration": 9, "velocity": 94}, {"time": 4348, "pitch": 63, "duration": 6, "velocity": 72}, {"time": 4348, "pitch": 67, "duration": 10, "velocity": 92}, {"time": 4360, "pitch": 55, "duration": 2, "velocity": 94}, {"time": 4360, "pitch": 58, "duration": 2, "velocity": 105}, {"time": 4360, "pitch": 62, "duration": 2, "velocity": 97}, {"time": 4360, "pitch": 67, "duration": 4, "velocity": 73}, {"time": 4366, "pitch": 48, "duration": 16, "velocity": 105}, {"time": 4366, "pitch": 60, "duration": 10, "velocity": 80}, {"time": 4366, "pitch": 67, "duration": 10, "velocity": 60}, {"time": 4378, "pitch": 60, "duration": 6, "velocity": 108}, {"time": 4378, "pitch": 63, "duration": 7, "velocity": 112}, {"time": 4378, "pitch": 67, "duration": 28, "velocity": 100}, {"time": 4387, "pitch": 60, "duration": 3, "velocity": 89}, {"time": 4387, "pitch": 63, "duration": 2, "velocity": 45}, {"time": 4390, "pitch": 44, "duration": 17, "velocity": 93}, {"time": 4396, "pitch": 56, "duration": 9, "velocity": 102}, {"time": 4396, "pitch": 60, "duration": 7, "velocity": 97}, {"time": 4396, "pitch": 63, "duration": 9, "velocity": 72}, {"time": 4408, "pitch": 56, "duration": 3, "velocity": 87}, {"time": 4408, "pitch": 60, "duration": 2, "velocity": 100}, {"time": 4408, "pitch": 67, "duration": 16, "velocity": 94}, {"time": 4414, "pitch": 46, "duration": 22, "velocity": 99}, {"time": 4414, "pitch": 58, "duration": 9, "velocity": 93}, {"time": 4414, "pitch": 62, "duration": 9, "velocity": 89}, {"time": 4426, "pitch": 58, "duration": 5, "velocity": 105}, {"time": 4426, "pitch": 62, "duration": 6, "velocity": 108}, {"time": 4426, "pitch": 67, "duration": 17, "velocity": 105}, {"time": 4435, "pitch": 58, "duration": 4, "velocity": 82}, {"time": 4438, "pitch": 43, "duration": 17, "velocity": 105}, {"time": 4444, "pitch": 55, "duration": 9, "velocity": 105}, {"time": 4444, "pitch": 58, "duration": 8, "velocity": 105}, {"time": 4444, "pitch": 62, "duration": 8, "velocity": 111}, {"time": 4444, "pitch": 67, "duration": 10, "velocity": 76}, {"time": 4450, "pitch": 50, "duration": 5, "velocity": 78}, {"time": 4456, "pitch": 55, "duration": 2, "velocity": 71}, {"time": 4456, "pitch": 58, "duration": 3, "velocity": 90}, {"time": 4456, "pitch": 62, "duration": 2, "velocity": 89}, {"time": 4456, "pitch": 67, "duration": 6, "velocity": 71}, {"time": 4462, "pitch": 48, "duration": 15, "velocity": 94}, {"time": 4462, "pitch": 60, "duration": 9, "velocity": 89}, {"time": 4462, "pitch": 63, "duration": 9, "velocity": 93}, {"time": 4462, "pitch": 67, "duration": 9, "velocity": 94}, {"time": 4468, "pitch": 55, "duration": 8, "velocity": 30}, {"time": 4474, "pitch": 60, "duration": 6, "velocity": 102}, {"time": 4474, "pitch": 63, "duration": 6, "velocity": 112}, {"time": 4474, "pitch": 67, "duration": 6, "velocity": 108}, {"time": 4483, "pitch": 60, "duration": 3, "velocity": 82}, {"time": 4483, "pitch": 63, "duration": 3, "velocity": 105}, {"time": 4483, "pitch": 67, "duration": 18, "velocity": 89}, {"time": 4486, "pitch": 44, "duration": 20, "velocity": 93}, {"time": 4492, "pitch": 56, "duration": 9, "velocity": 102}, {"time": 4492, "pitch": 60, "duration": 7, "velocity": 100}, {"time": 4492, "pitch": 63, "duration": 9, "velocity": 70}, {"time": 4498, "pitch": 51, "duration": 9, "velocity": 79}, {"time": 4504, "pitch": 56, "duration": 5, "velocity": 99}, {"time": 4504, "pitch": 60, "duration": 2, "velocity": 80}, {"time": 4504, "pitch": 63, "duration": 6, "velocity": 90}, {"time": 4504, "pitch": 67, "duration": 13, "velocity": 94}, {"time": 4510, "pitch": 46, "duration": 21, "velocity": 105}, {"time": 4522, "pitch": 58, "duration": 6, "velocity": 102}, {"time": 4522, "pitch": 62, "duration": 6, "velocity": 114}, {"time": 4522, "pitch": 67, "duration": 7, "velocity": 108}, {"time": 4531, "pitch": 58, "duration": 4, "velocity": 93}, {"time": 4531, "pitch": 62, "duration": 2, "velocity": 97}, {"time": 4531, "pitch": 67, "duration": 5, "velocity": 80}, {"time": 4534, "pitch": 43, "duration": 20, "velocity": 105}, {"time": 4540, "pitch": 55, "duration": 8, "velocity": 97}, {"time": 4540, "pitch": 58, "duration": 8, "velocity": 102}, {"time": 4540, "pitch": 62, "duration": 9, "velocity": 102}, {"time": 4540, "pitch": 67, "duration": 9, "velocity": 60}, {"time": 4546, "pitch": 50, "duration": 8, "velocity": 78}, {"time": 4552, "pitch": 55, "duration": 5, "velocity": 87}, {"time": 4552, "pitch": 58, "duration": 5, "velocity": 99}, {"time": 4552, "pitch": 62, "duration": 6, "velocity": 92}, {"time": 4552, "pitch": 67, "duration": 7, "velocity": 82}, {"time": 4558, "pitch": 48, "duration": 18, "velocity": 105}, {"time": 4558, "pitch": 60, "duration": 8, "velocity": 92}, {"time": 4558, "pitch": 63, "duration": 8, "velocity": 105}, {"time": 4558, "pitch": 67, "duration": 1, "velocity": 100}, {"time": 4564, "pitch": 55, "duration": 11, "velocity": 73}, {"time": 4570, "pitch": 60, "duration": 6, "velocity": 105}, {"time": 4570, "pitch": 63, "duration": 6, "velocity": 112}, {"time": 4570, "pitch": 67, "duration": 6, "velocity": 105}, {"time": 4579, "pitch": 60, "duration": 3, "velocity": 82}, {"time": 4579, "pitch": 63, "duration": 2, "velocity": 102}, {"time": 4579, "pitch": 67, "duration": 7, "velocity": 94}, {"time": 4582, "pitch": 43, "duration": 19, "velocity": 102}, {"time": 4588, "pitch": 55, "duration": 9, "velocity": 100}, {"time": 4588, "pitch": 58, "duration": 9, "velocity": 96}, {"time": 4588, "pitch": 62, "duration": 9, "velocity": 102}, {"time": 4588, "pitch": 67, "duration": 10, "velocity": 73}, {"time": 4594, "pitch": 50, "duration": 8, "velocity": 67}, {"time": 4600, "pitch": 55, "duration": 7, "velocity": 84}, {"time": 4600, "pitch": 58, "duration": 6, "velocity": 93}, {"time": 4600, "pitch": 62, "duration": 6, "velocity": 100}, {"time": 4600, "pitch": 67, "duration": 6, "velocity": 73}, {"time": 4606, "pitch": 41, "duration": 21, "velocity": 102}, {"time": 4606, "pitch": 53, "duration": 9, "velocity": 78}, {"time": 4606, "pitch": 56, "duration": 9, "velocity": 77}, {"time": 4606, "pitch": 60, "duration": 9, "velocity": 92}, {"time": 4618, "pitch": 53, "duration": 5, "velocity": 105}, {"time": 4618, "pitch": 56, "duration": 6, "velocity": 112}, {"time": 4618, "pitch": 60, "duration": 6, "velocity": 108}, {"time": 4627, "pitch": 53, "duration": 3, "velocity": 78}, {"time": 4627, "pitch": 56, "duration": 4, "velocity": 70}, {"time": 4627, "pitch": 60, "duration": 5, "velocity": 89}, {"time": 4630, "pitch": 43, "duration": 22, "velocity": 102}, {"time": 4636, "pitch": 55, "duration": 8, "velocity": 102}, {"time": 4636, "pitch": 58, "duration": 6, "velocity": 109}, {"time": 4636, "pitch": 62, "duration": 8, "velocity": 100}, {"time": 4639, "pitch": 59, "duration": 3, "velocity": 71}, {"time": 4642, "pitch": 50, "duration": 9, "velocity": 67}, {"time": 4648, "pitch": 55, "duration": 6, "velocity": 97}, {"time": 4648, "pitch": 58, "duration": 6, "velocity": 105}, {"time": 4648, "pitch": 62, "duration": 7, "velocity": 105}, {"time": 4654, "pitch": 48, "duration": 13, "velocity": 100}, {"time": 4654, "pitch": 60, "duration": 9, "velocity": 87}, {"time": 4654, "pitch": 63, "duration": 9, "velocity": 109}, {"time": 4654, "pitch": 67, "duration": 10, "velocity": 94}, {"time": 4666, "pitch": 60, "duration": 5, "velocity": 105}, {"time": 4666, "pitch": 63, "duration": 10, "velocity": 116}, {"time": 4666, "pitch": 67, "duration": 27, "velocity": 105}, {"time": 4675, "pitch": 60, "duration": 3, "velocity": 71}, {"time": 4678, "pitch": 44, "duration": 20, "velocity": 90}, {"time": 4684, "pitch": 56, "duration": 9, "velocity": 93}, {"time": 4684, "pitch": 60, "duration": 8, "velocity": 100}, {"time": 4684, "pitch": 63, "duration": 9, "velocity": 77}, {"time": 4696, "pitch": 56, "duration": 3, "velocity": 59}, {"time": 4696, "pitch": 63, "duration": 3, "velocity": 41}, {"time": 4696, "pitch": 67, "duration": 5, "velocity": 78}, {"time": 4702, "pitch": 46, "duration": 22, "velocity": 102}, {"time": 4702, "pitch": 58, "duration": 10, "velocity": 87}, {"time": 4702, "pitch": 62, "duration": 9, "velocity": 97}, {"time": 4702, "pitch": 67, "duration": 10, "velocity": 69}, {"time": 4714, "pitch": 58, "duration": 5, "velocity": 102}, {"time": 4714, "pitch": 62, "duration": 13, "velocity": 114}, {"time": 4714, "pitch": 67, "duration": 16, "velocity": 108}, {"time": 4723, "pitch": 58, "duration": 4, "velocity": 46}, {"time": 4726, "pitch": 43, "duration": 17, "velocity": 108}, {"time": 4732, "pitch": 55, "duration": 8, "velocity": 105}, {"time": 4732, "pitch": 58, "duration": 7, "velocity": 105}, {"time": 4732, "pitch": 62, "duration": 9, "velocity": 94}, {"time": 4732, "pitch": 63, "duration": 6, "velocity": 72}, {"time": 4732, "pitch": 67, "duration": 10, "velocity": 92}, {"time": 4744, "pitch": 55, "duration": 2, "velocity": 94}, {"time": 4744, "pitch": 58, "duration": 2, "velocity": 105}, {"time": 4744, "pitch": 62, "duration": 2, "velocity": 97}, {"time": 4744, "pitch": 67, "duration": 4, "velocity": 73}, {"time": 4750, "pitch": 48, "duration": 16, "velocity": 105}, {"time": 4750, "pitch": 60, "duration": 10, "velocity": 80}, {"time": 4750, "pitch": 67, "duration": 10, "velocity": 60}, {"time": 4762, "pitch": 60, "duration": 6, "velocity": 108}, {"time": 4762, "pitch": 63, "duration": 7, "velocity": 112}, {"time": 4762, "pitch": 67, "duration": 28, "velocity": 100}, {"time": 4771, "pitch": 60, "duration": 3, "velocity": 89}, {"time": 4771, "pitch": 63, "duration": 2, "velocity": 45}, {"time": 4774, "pitch": 44, "duration": 17, "velocity": 93}, {"time": 4780, "pitch": 56, "duration": 9, "velocity": 102}, {"time": 4780, "pitch": 60, "duration": 7, "velocity": 97}, {"time": 4780, "pitch": 63, "duration": 9, "velocity": 72}, {"time": 4792, "pitch": 56, "duration": 3, "velocity": 87}, {"time": 4792, "pitch": 60, "duration": 2, "velocity": 100}, {"time": 4792, "pitch": 67, "duration": 16, "velocity": 94}, {"time": 4798, "pitch": 46, "duration": 22, "velocity": 99}, {"time": 4798, "pitch": 58, "duration": 9, "velocity": 93}, {"time": 4798, "pitch": 62, "duration": 9, "velocity": 89}, {"time": 4810, "pitch": 58, "duration": 5, "velocity": 105}, {"time": 4810, "pitch": 62, "duration": 6, "velocity": 108}, {"time": 4810, "pitch": 67, "duration": 17, "velocity": 105}, {"time": 4819, "pitch": 58, "duration": 4, "velocity": 82}, {"time": 4822, "pitch": 43, "duration": 17, "velocity": 105}, {"time": 4828, "pitch": 55, "duration": 9, "velocity": 105}, {"time": 4828, "pitch": 58, "duration": 8, "velocity": 105}, {"time": 4828, "pitch": 62, "duration": 8, "velocity": 111}, {"time": 4828, "pitch": 67, "duration": 10, "velocity": 76}, {"time": 4834, "pitch": 50, "duration": 5, "velocity": 78}, {"time": 4840, "pitch": 55, "duration": 2, "velocity": 71}, {"time": 4840, "pitch": 58, "duration": 3, "velocity": 90}, {"time": 4840, "pitch": 62, "duration": 2, "velocity": 89}, {"time": 4840, "pitch": 67, "duration": 6, "velocity": 71}, {"time": 4846, "pitch": 48, "duration": 15, "velocity": 94}, {"time": 4846, "pitch": 60, "duration": 9, "velocity": 89}, {"time": 4846, "pitch": 63, "duration": 9, "velocity": 93}, {"time": 4846, "pitch": 67, "duration": 9, "velocity": 94}, {"time": 4852, "pitch": 55, "duration": 8, "velocity": 30}, {"time": 4858, "pitch": 60, "duration": 6, "velocity": 102}, {"time": 4858, "pitch": 63, "duration": 6, "velocity": 112}, {"time": 4858, "pitch": 67, "duration": 6, "velocity": 108}, {"time": 4867, "pitch": 60, "duration": 3, "velocity": 82}, {"time": 4867, "pitch": 63, "duration": 3, "velocity": 105}, {"time": 4867, "pitch": 67, "duration": 18, "velocity": 89}, {"time": 4870, "pitch": 44, "duration": 20, "velocity": 93}, {"time": 4876, "pitch": 56, "duration": 9, "velocity": 102}, {"time": 4876, "pitch": 60, "duration": 7, "velocity": 100}, {"time": 4876, "pitch": 63, "duration": 9, "velocity": 70}, {"time": 4882, "pitch": 51, "duration": 9, "velocity": 79}, {"time": 4888, "pitch": 56, "duration": 5, "velocity": 99}, {"time": 4888, "pitch": 60, "duration": 2, "velocity": 80}, {"time": 4888, "pitch": 63, "duration": 6, "velocity": 90}, {"time": 4888, "pitch": 67, "duration": 13, "velocity": 94}, {"time": 4894, "pitch": 46, "duration": 21, "velocity": 105}, {"time": 4906, "pitch": 58, "duration": 6, "velocity": 102}, {"time": 4906, "pitch": 62, "duration": 6, "velocity": 114}, {"time": 4906, "pitch": 67, "duration": 7, "velocity": 108}, {"time": 4915, "pitch": 58, "duration": 4, "velocity": 93}, {"time": 4915, "pitch": 62, "duration": 2, "velocity": 97}, {"time": 4915, "pitch": 67, "duration": 5, "velocity": 80}, {"time": 4918, "pitch": 43, "duration": 20, "velocity": 105}, {"time": 4924, "pitch": 55, "duration": 8, "velocity": 97}, {"time": 4924, "pitch": 58, "duration": 8, "velocity": 102}, {"time": 4924, "pitch": 62, "duration": 9, "velocity": 102}, {"time": 4924, "pitch": 67, "duration": 9, "velocity": 60}, {"time": 4930, "pitch": 50, "duration": 8, "velocity": 78}, {"time": 4936, "pitch": 55, "duration": 5, "velocity": 87}, {"time": 4936, "pitch": 58, "duration": 5, "velocity": 99}, {"time": 4936, "pitch": 62, "duration": 6, "velocity": 92}, {"time": 4936, "pitch": 67, "duration": 7, "velocity": 82}, {"time": 4942, "pitch": 48, "duration": 18, "velocity": 105}, {"time": 4942, "pitch": 60, "duration": 8, "velocity": 92}, {"time": 4942, "pitch": 63, "duration": 8, "velocity": 105}, {"time": 4942, "pitch": 67, "duration": 1, "velocity": 100}, {"time": 4948, "pitch": 55, "duration": 11, "velocity": 73}, {"time": 4954, "pitch": 60, "duration": 6, "velocity": 105}, {"time": 4954, "pitch": 63, "duration": 6, "velocity": 112}, {"time": 4954, "pitch": 67, "duration": 6, "velocity": 105}, {"time": 4963, "pitch": 60, "duration": 3, "velocity": 82}, {"time": 4963, "pitch": 63, "duration": 2, "velocity": 102}, {"time": 4963, "pitch": 67, "duration": 7, "velocity": 94}, {"time": 4966, "pitch": 43, "duration": 19, "velocity": 102}, {"time": 4972, "pitch": 55, "duration": 9, "velocity": 100}, {"time": 4972, "pitch": 58, "duration": 9, "velocity": 96}, {"time": 4972, "pitch": 62, "duration": 9, "velocity": 102}, {"time": 4972, "pitch": 67, "duration": 10, "velocity": 73}, {"time": 4978, "pitch": 50, "duration": 8, "velocity": 67}, {"time": 4984, "pitch": 55, "duration": 7, "velocity": 84}, {"time": 4984, "pitch": 58, "duration": 6, "velocity": 93}, {"time": 4984, "pitch": 62, "duration": 6, "velocity": 100}, {"time": 4984, "pitch": 67, "duration": 6, "velocity": 73}, {"time": 4990, "pitch": 41, "duration": 21, "velocity": 102}, {"time": 4990, "pitch": 53, "duration": 9, "velocity": 78}, {"time": 4990, "pitch": 56, "duration": 9, "velocity": 77}, {"time": 4990, "pitch": 60, "duration": 9, "velocity": 92}, {"time": 5002, "pitch": 53, "duration": 5, "velocity": 105}, {"time": 5002, "pitch": 56, "duration": 6, "velocity": 112}, {"time": 5002, "pitch": 60, "duration": 6, "velocity": 108}, {"time": 5011, "pitch": 53, "duration": 3, "velocity": 78}, {"time": 5011, "pitch": 56, "duration": 4, "velocity": 70}, {"time": 5011, "pitch": 60, "duration": 5, "velocity": 89}, {"time": 5014, "pitch": 43, "duration": 22, "velocity": 102}, {"time": 5020, "pitch": 55, "duration": 8, "velocity": 102}, {"time": 5020, "pitch": 58, "duration": 6, "velocity": 109}, {"time": 5020, "pitch": 62, "duration": 8, "velocity": 100}, {"time": 5023, "pitch": 59, "duration": 3, "velocity": 71}, {"time": 5026, "pitch": 50, "duration": 9, "velocity": 67}, {"time": 5032, "pitch": 55, "duration": 6, "velocity": 97}, {"time": 5032, "pitch": 58, "duration": 6, "velocity": 105}, {"time": 5032, "pitch": 62, "duration": 7, "velocity": 105}, {"time": 5038, "pitch": 48, "duration": 18, "velocity": 105}, {"time": 5038, "pitch": 60, "duration": 8, "velocity": 92}, {"time": 5038, "pitch": 63, "duration": 8, "velocity": 105}, {"time": 5038, "pitch": 67, "duration": 8, "velocity": 100}, {"time": 5044, "pitch": 55, "duration": 11, "velocity": 73}, {"time": 5050, "pitch": 60, "duration": 6, "velocity": 105}, {"time": 5050, "pitch": 63, "duration": 6, "velocity": 112}, {"time": 5050, "pitch": 67, "duration": 6, "velocity": 105}, {"time": 5059, "pitch": 60, "duration": 3, "velocity": 82}, {"time": 5059, "pitch": 63, "duration": 2, "velocity": 102}, {"time": 5059, "pitch": 67, "duration": 7, "velocity": 94}, {"time": 5062, "pitch": 43, "duration": 19, "velocity": 102}, {"time": 5068, "pitch": 55, "duration": 9, "velocity": 100}, {"time": 5068, "pitch": 58, "duration": 9, "velocity": 96}, {"time": 5068, "pitch": 62, "duration": 9, "velocity": 102}, {"time": 5068, "pitch": 67, "duration": 10, "velocity": 73}, {"time": 5074, "pitch": 50, "duration": 8, "velocity": 67}, {"time": 5080, "pitch": 55, "duration": 7, "velocity": 84}, {"time": 5080, "pitch": 58, "duration": 6, "velocity": 93}, {"time": 5080, "pitch": 62, "duration": 6, "velocity": 100}, {"time": 5080, "pitch": 67, "duration": 6, "velocity": 73}, {"time": 5086, "pitch": 41, "duration": 21, "velocity": 102}, {"time": 5086, "pitch": 53, "duration": 9, "velocity": 78}, {"time": 5086, "pitch": 56, "duration": 9, "velocity": 77}, {"time": 5086, "pitch": 60, "duration": 9, "velocity": 92}, {"time": 5098, "pitch": 53, "duration": 5, "velocity": 105}, {"time": 5098, "pitch": 56, "duration": 6, "velocity": 112}, {"time": 5098, "pitch": 60, "duration": 6, "velocity": 108}, {"time": 5107, "pitch": 53, "duration": 3, "velocity": 78}, {"time": 5107, "pitch": 56, "duration": 4, "velocity": 70}, {"time": 5107, "pitch": 60, "duration": 5, "velocity": 89}, {"time": 5110, "pitch": 43, "duration": 22, "velocity": 102}, {"time": 5116, "pitch": 55, "duration": 8, "velocity": 102}, {"time": 5116, "pitch": 58, "duration": 6, "velocity": 109}, {"time": 5116, "pitch": 62, "duration": 8, "velocity": 100}, {"time": 5119, "pitch": 59, "duration": 3, "velocity": 71}, {"time": 5122, "pitch": 50, "duration": 9, "velocity": 67}, {"time": 5128, "pitch": 55, "duration": 6, "velocity": 97}, {"time": 5128, "pitch": 58, "duration": 6, "velocity": 105}, {"time": 5128, "pitch": 62, "duration": 7, "velocity": 105}, {"time": 5134, "pitch": 48, "duration": 18, "velocity": 105}, {"time": 5134, "pitch": 60, "duration": 8, "velocity": 92}, {"time": 5134, "pitch": 63, "duration": 8, "velocity": 105}, {"time": 5134, "pitch": 67, "duration": 8, "velocity": 100}, {"time": 5140, "pitch": 55, "duration": 11, "velocity": 73}, {"time": 5146, "pitch": 60, "duration": 6, "velocity": 105}, {"time": 5146, "pitch": 63, "duration": 6, "velocity": 112}, {"time": 5146, "pitch": 67, "duration": 6, "velocity": 105}, {"time": 5155, "pitch": 60, "duration": 3, "velocity": 82}, {"time": 5155, "pitch": 63, "duration": 2, "velocity": 102}, {"time": 5155, "pitch": 67, "duration": 7, "velocity": 94}, {"time": 5158, "pitch": 43, "duration": 19, "velocity": 102}, {"time": 5164, "pitch": 55, "duration": 9, "velocity": 100}, {"time": 5164, "pitch": 58, "duration": 9, "velocity": 96}, {"time": 5164, "pitch": 62, "duration": 9, "velocity": 102}, {"time": 5164, "pitch": 67, "duration": 10, "velocity": 73}, {"time": 5170, "pitch": 50, "duration": 8, "velocity": 67}, {"time": 5176, "pitch": 55, "duration": 7, "velocity": 84}, {"time": 5176, "pitch": 58, "duration": 6, "velocity": 93}, {"time": 5176, "pitch": 62, "duration": 6, "velocity": 100}, {"time": 5176, "pitch": 67, "duration": 6, "velocity": 73}, {"time": 5182, "pitch": 41, "duration": 21, "velocity": 102}, {"time": 5182, "pitch": 53, "duration": 39, "velocity": 78}, {"time": 5182, "pitch": 56, "duration": 39, "velocity": 77}, {"time": 5182, "pitch": 60, "duration": 39, "velocity": 92}], "annotations": [{"time": 535, "annotation": {"number": 64, "value": 127}, "group": "control_change"}, {"time": 550, "annotation": {"number": 64, "value": 0}, "group": "control_change"}, {"time": 568, "annotation": {"number": 64, "value": 127}, "group": "control_change"}, {"time": 573, "annotation": {"number": 64, "value": 0}, "group": "control_change"}, {"time": 582, "annotation": {"number": 64, "value": 127}, "group": "control_change"}, {"time": 597, "annotation": {"number": 64, "value": 0}, "group": "control_change"}, {"time": 606, "annotation": {"number": 64, "value": 127}, "group": "control_change"}, {"time": 619, "annotation": {"number": 64, "value": 0}, "group": "control_change"}, {"time": 633, "annotation": {"number": 64, "value": 127}, "group": "control_change"}, {"time": 648, "annotation": {"number": 64, "value": 0}, "group": "control_change"}, {"time": 653, "annotation": {"number": 64, "value": 127}, "group": "control_change"}, {"time": 667, "annotation": {"number": 64, "value": 0}, "group": "control_change"}, {"time": 675, "annotation": {"number": 64, "value": 127}, "group": "control_change"}, {"time": 692, "annotation": {"number": 64, "value": 0}, "group": "control_change"}, {"time": 700, "annotation": {"number": 64, "value": 127}, "group": "control_change"}, {"time": 713, "annotation": {"number": 64, "value": 0}, "group": "control_change"}, {"time": 727, "annotation": {"number": 64, "value": 127}, "group": "control_change"}, {"time": 742, "annotation": {"number": 64, "value": 0}, "group": "control_change"}, {"time": 760, "annotation": {"number": 64, "value": 127}, "group": "control_change"}, {"time": 765, "annotation": {"number": 64, "value": 0}, "group": "control_change"}, {"time": 774, "annotation": {"number": 64, "value": 127}, "group": "control_change"}, {"time": 789, "annotation": {"number": 64, "value": 0}, "group": "control_change"}, {"time": 798, "annotation": {"number": 64, "value": 127}, "group": "control_change"}, {"time": 811, "annotation": {"number": 64, "value": 0}, "group": "control_change"}, {"time": 818, "annotation": {"number": 64, "value": 127}, "group": "control_change"}, {"time": 839, "annotation": {"number": 64, "value": 0}, "group": "control_change"}, {"time": 848, "annotation": {"number": 64, "value": 127}, "group": "control_change"}, {"time": 862, "annotation": {"number": 64, "value": 0}, "group": "control_change"}, {"time": 869, "annotation": {"number": 64, "value": 127}, "group": "control_change"}, {"time": 887, "annotation": {"number": 64, "value": 0}, "group": "control_change"}, {"time": 893, "annotation": {"number": 64, "value": 127}, "group": "control_change"}, {"time": 907, "annotation": {"number": 64, "value": 0}, "group": "control_change"}, {"time": 919, "annotation": {"number": 64, "value": 127}, "group": "control_change"}, {"time": 934, "annotation": {"number": 64, "value": 0}, "group": "control_change"}, {"time": 952, "annotation": {"number": 64, "value": 127}, "group": "control_change"}, {"time": 957, "annotation": {"number": 64, "value": 0}, "group": "control_change"}, {"time": 966, "annotation": {"number": 64, "value": 127}, "group": "control_change"}, {"time": 981, "annotation": {"number": 64, "value": 0}, "group": "control_change"}, {"time": 990, "annotation": {"number": 64, "value": 127}, "group": "control_change"}, {"time": 1003, "annotation": {"number": 64, "value": 0}, "group": "control_change"}, {"time": 1017, "annotation": {"number": 64, "value": 127}, "group": "control_change"}, {"time": 1032, "annotation": {"number": 64, "value": 0}, "group": "control_change"}, {"time": 1037, "annotation": {"number": 64, "value": 127}, "group": "control_change"}, {"time": 1051, "annotation": {"number": 64, "value": 0}, "group": "control_change"}, {"time": 1059, "annotation": {"number": 64, "value": 127}, "group": "control_change"}, {"time": 1076, "annotation": {"number": 64, "value": 0}, "group": "control_change"}, {"time": 1084, "annotation": {"number": 64, "value": 127}, "group": "control_change"}, {"time": 1097, "annotation": {"number": 64, "value": 0}, "group": "control_change"}, {"time": 1111, "annotation": {"number": 64, "value": 127}, "group": "control_change"}, {"time": 1126, "annotation": {"number": 64, "value": 0}, "group": "control_change"}, {"time": 1144, "annotation": {"number": 64, "value": 127}, "group": "control_change"}, {"time": 1149, "annotation": {"number": 64, "value": 0}, "group": "control_change"}, {"time": 1158, "annotation": {"number": 64, "value": 127}, "group": "control_change"}, {"time": 1173, "annotation": {"number": 64, "value": 0}, "group": "control_change"}, {"time": 1182, "annotation": {"number": 64, "value": 127}, "group": "control_change"}, {"time": 1195, "annotation": {"number": 64, "value": 0}, "group": "control_change"}, {"time": 1202, "annotation": {"number": 64, "value": 127}, "group": "control_change"}, {"time": 1223, "annotation": {"number": 64, "value": 0}, "group": "control_change"}, {"time": 1232, "annotation": {"number": 64, "value": 127}, "group": "control_change"}, {"time": 1246, "annotation": {"number": 64, "value": 0}, "group": "control_change"}, {"time": 1253, "annotation": {"number": 64, "value": 127}, "group": "control_change"}, {"time": 1271, "annotation": {"number": 64, "value": 0}, "group": "control_change"}, {"time": 1277, "annotation": {"number": 64, "value": 127}, "group": "control_change"}, {"time": 1291, "annotation": {"number": 64, "value": 0}, "group": "control_change"}, {"time": 1303, "annotation": {"number": 64, "value": 127}, "group": "control_change"}, {"time": 1318, "annotation": {"number": 64, "value": 0}, "group": "control_change"}, {"time": 1336, "annotation": {"number": 64, "value": 127}, "group": "control_change"}, {"time": 1341, "annotation": {"number": 64, "value": 0}, "group": "control_change"}, {"time": 1350, "annotation": {"number": 64, "value": 127}, "group": "control_change"}, {"time": 1365, "annotation": {"number": 64, "value": 0}, "group": "control_change"}, {"time": 1374, "annotation": {"number": 64, "value": 127}, "group": "control_change"}, {"time": 1387, "annotation": {"number": 64, "value": 0}, "group": "control_change"}, {"time": 1401, "annotation": {"number": 64, "value": 127}, "group": "control_change"}, {"time": 1416, "annotation": {"number": 64, "value": 0}, "group": "control_change"}, {"time": 1421, "annotation": {"number": 64, "value": 127}, "group": "control_change"}, {"time": 1435, "annotation": {"number": 64, "value": 0}, "group": "control_change"}, {"time": 1443, "annotation": {"number": 64, "value": 127}, "group": "control_change"}, {"time": 1460, "annotation": {"number": 64, "value": 0}, "group": "control_change"}, {"time": 1468, "annotation": {"number": 64, "value": 127}, "group": "control_change"}, {"time": 1481, "annotation": {"number": 64, "value": 0}, "group": "control_change"}, {"time": 1495, "annotation": {"number": 64, "value": 127}, "group": "control_change"}, {"time": 1510, "annotation": {"number": 64, "value": 0}, "group": "control_change"}, {"time": 1528, "annotation": {"number": 64, "value": 127}, "group": "control_change"}, {"time": 1533, "annotation": {"number": 64, "value": 0}, "group": "control_change"}, {"time": 1542, "annotation": {"number": 64, "value": 127}, "group": "control_change"}, {"time": 1557, "annotation": {"number": 64, "value": 0}, "group": "control_change"}, {"time": 1566, "annotation": {"number": 64, "value": 127}, "group": "control_change"}, {"time": 1579, "annotation": {"number": 64, "value": 0}, "group": "control_change"}, {"time": 1586, "annotation": {"number": 64, "value": 127}, "group": "control_change"}, {"time": 1607, "annotation": {"number": 64, "value": 0}, "group": "control_change"}, {"time": 1616, "annotation": {"number": 64, "value": 127}, "group": "control_change"}, {"time": 1630, "annotation": {"number": 64, "value": 0}, "group": "control_change"}, {"time": 1637, "annotation": {"number": 64, "value": 127}, "group": "control_change"}, {"time": 1655, "annotation": {"number": 64, "value": 0}, "group": "control_change"}, {"time": 1661, "annotation": {"number": 64, "value": 127}, "group": "control_change"}, {"time": 1675, "annotation": {"number": 64, "value": 0}, "group": "control_change"}, {"time": 1684, "annotation": {"number": 64, "value": 127}, "group": "control_change"}, {"time": 1726, "annotation": {"number": 64, "value": 0}, "group": "control_change"}, {"time": 1731, "annotation": {"number": 64, "value": 127}, "group": "control_change"}, {"time": 1739, "annotation": {"number": 64, "value": 0}, "group": "control_change"}, {"time": 1776, "annotation": {"number": 64, "value": 127}, "group": "control_change"}, {"time": 1798, "annotation": {"number": 64, "value": 0}, "group": "control_change"}, {"time": 1802, "annotation": {"number": 64, "value": 127}, "group": "control_change"}, {"time": 1821, "annotation": {"number": 64, "value": 0}, "group": "control_change"}, {"time": 1825, "annotation": {"number": 64, "value": 127}, "group": "control_change"}, {"time": 1846, "annotation": {"number": 64, "value": 0}, "group": "control_change"}, {"time": 1853, "annotation": {"number": 64, "value": 127}, "group": "control_change"}, {"time": 1867, "annotation": {"number": 64, "value": 0}, "group": "control_change"}, {"time": 1873, "annotation": {"number": 64, "value": 127}, "group": "control_change"}, {"time": 1892, "annotation": {"number": 64, "value": 0}, "group": "control_change"}, {"time": 1897, "annotation": {"number": 64, "value": 127}, "group": "control_change"}, {"time": 1917, "annotation": {"number": 64, "value": 0}, "group": "control_change"}, {"time": 1922, "annotation": {"number": 64, "value": 127}, "group": "control_change"}, {"time": 1942, "annotation": {"number": 64, "value": 0}, "group": "control_change"}, {"time": 1949, "annotation": {"number": 64, "value": 127}, "group": "control_change"}, {"time": 1964, "annotation": {"number": 64, "value": 0}, "group": "control_change"}, {"time": 1968, "annotation": {"number": 64, "value": 127}, "group": "control_change"}, {"time": 1990, "annotation": {"number": 64, "value": 0}, "group": "control_change"}, {"time": 2004, "annotation": {"number": 64, "value": 127}, "group": "control_change"}, {"time": 2012, "annotation": {"number": 64, "value": 0}, "group": "control_change"}, {"time": 2019, "annotation": {"number": 64, "value": 127}, "group": "control_change"}, {"time": 2037, "annotation": {"number": 64, "value": 0}, "group": "control_change"}, {"time": 2045, "annotation": {"number": 64, "value": 127}, "group": "control_change"}, {"time": 2060, "annotation": {"number": 64, "value": 0}, "group": "control_change"}, {"time": 2064, "annotation": {"number": 64, "value": 127}, "group": "control_change"}, {"time": 2085, "annotation": {"number": 64, "value": 0}, "group": "control_change"}, {"time": 2094, "annotation": {"number": 64, "value": 127}, "group": "control_change"}, {"time": 2109, "annotation": {"number": 64, "value": 0}, "group": "control_change"}, {"time": 2112, "annotation": {"number": 64, "value": 127}, "group": "control_change"}, {"time": 2134, "annotation": {"number": 64, "value": 0}, "group": "control_change"}, {"time": 2138, "annotation": {"number": 64, "value": 127}, "group": "control_change"}, {"time": 2155, "annotation": {"number": 64, "value": 0}, "group": "control_change"}, {"time": 2160, "annotation": {"number": 64, "value": 127}, "group": "control_change"}, {"time": 2182, "annotation": {"number": 64, "value": 0}, "group": "control_change"}, {"time": 2186, "annotation": {"number": 64, "value": 127}, "group": "control_change"}, {"time": 2205, "annotation": {"number": 64, "value": 0}, "group": "control_change"}, {"time": 2209, "annotation": {"number": 64, "value": 127}, "group": "control_change"}, {"time": 2230, "annotation": {"number": 64, "value": 0}, "group": "control_change"}, {"time": 2237, "annotation": {"number": 64, "value": 127}, "group": "control_change"}, {"time": 2251, "annotation": {"number": 64, "value": 0}, "group": "control_change"}, {"time": 2257, "annotation": {"number": 64, "value": 127}, "group": "control_change"}, {"time": 2276, "annotation": {"number": 64, "value": 0}, "group": "control_change"}, {"time": 2281, "annotation": {"number": 64, "value": 127}, "group": "control_change"}, {"time": 2301, "annotation": {"number": 64, "value": 0}, "group": "control_change"}, {"time": 2306, "annotation": {"number": 64, "value": 127}, "group": "control_change"}, {"time": 2326, "annotation": {"number": 64, "value": 0}, "group": "control_change"}, {"time": 2333, "annotation": {"number": 64, "value": 127}, "group": "control_change"}, {"time": 2348, "annotation": {"number": 64, "value": 0}, "group": "control_change"}, {"time": 2352, "annotation": {"number": 64, "value": 127}, "group": "control_change"}, {"time": 2374, "annotation": {"number": 64, "value": 0}, "group": "control_change"}, {"time": 2388, "annotation": {"number": 64, "value": 127}, "group": "control_change"}, {"time": 2396, "annotation": {"number": 64, "value": 0}, "group": "control_change"}, {"time": 2403, "annotation": {"number": 64, "value": 127}, "group": "control_change"}, {"time": 2421, "annotation": {"number": 64, "value": 0}, "group": "control_change"}, {"time": 2429, "annotation": {"number": 64, "value": 127}, "group": "control_change"}, {"time": 2444, "annotation": {"number": 64, "value": 0}, "group": "control_change"}, {"time": 2448, "annotation": {"number": 64, "value": 127}, "group": "control_change"}, {"time": 2469, "annotation": {"number": 64, "value": 0}, "group": "control_change"}, {"time": 2478, "annotation": {"number": 64, "value": 127}, "group": "control_change"}, {"time": 2493, "annotation": {"number": 64, "value": 0}, "group": "control_change"}, {"time": 2496, "annotation": {"number": 64, "value": 127}, "group": "control_change"}, {"time": 2518, "annotation": {"number": 64, "value": 0}, "group": "control_change"}, {"time": 2522, "annotation": {"number": 64, "value": 127}, "group": "control_change"}, {"time": 2539, "annotation": {"number": 64, "value": 0}, "group": "control_change"}, {"time": 2551, "annotation": {"number": 64, "value": 127}, "group": "control_change"}, {"time": 2566, "annotation": {"number": 64, "value": 0}, "group": "control_change"}, {"time": 2584, "annotation": {"number": 64, "value": 127}, "group": "control_change"}, {"time": 2589, "annotation": {"number": 64, "value": 0}, "group": "control_change"}, {"time": 2598, "annotation": {"number": 64, "value": 127}, "group": "control_change"}, {"time": 2613, "annotation": {"number": 64, "value": 0}, "group": "control_change"}, {"time": 2622, "annotation": {"number": 64, "value": 127}, "group": "control_change"}, {"time": 2635, "annotation": {"number": 64, "value": 0}, "group": "control_change"}, {"time": 2649, "annotation": {"number": 64, "value": 127}, "group": "control_change"}, {"time": 2664, "annotation": {"number": 64, "value": 0}, "group": "control_change"}, {"time": 2669, "annotation": {"number": 64, "value": 127}, "group": "control_change"}, {"time": 2683, "annotation": {"number": 64, "value": 0}, "group": "control_change"}, {"time": 2691, "annotation": {"number": 64, "value": 127}, "group": "control_change"}, {"time": 2708, "annotation": {"number": 64, "value": 0}, "group": "control_change"}, {"time": 2716, "annotation": {"number": 64, "value": 127}, "group": "control_change"}, {"time": 2729, "annotation": {"number": 64, "value": 0}, "group": "control_change"}, {"time": 2743, "annotation": {"number": 64, "value": 127}, "group": "control_change"}, {"time": 2758, "annotation": {"number": 64, "value": 0}, "group": "control_change"}, {"time": 2776, "annotation": {"number": 64, "value": 127}, "group": "control_change"}, {"time": 2781, "annotation": {"number": 64, "value": 0}, "group": "control_change"}, {"time": 2790, "annotation": {"number": 64, "value": 127}, "group": "control_change"}, {"time": 2805, "annotation": {"number": 64, "value": 0}, "group": "control_change"}, {"time": 2814, "annotation": {"number": 64, "value": 127}, "group": "control_change"}, {"time": 2827, "annotation": {"number": 64, "value": 0}, "group": "control_change"}, {"time": 2834, "annotation": {"number": 64, "value": 127}, "group": "control_change"}, {"time": 2855, "annotation": {"number": 64, "value": 0}, "group": "control_change"}, {"time": 2864, "annotation": {"number": 64, "value": 127}, "group": "control_change"}, {"time": 2878, "annotation": {"number": 64, "value": 0}, "group": "control_change"}, {"time": 2885, "annotation": {"number": 64, "value": 127}, "group": "control_change"}, {"time": 2903, "annotation": {"number": 64, "value": 0}, "group": "control_change"}, {"time": 2909, "annotation": {"number": 64, "value": 127}, "group": "control_change"}, {"time": 2923, "annotation": {"number": 64, "value": 0}, "group": "control_change"}, {"time": 2932, "annotation": {"number": 64, "value": 127}, "group": "control_change"}, {"time": 2974, "annotation": {"number": 64, "value": 0}, "group": "control_change"}, {"time": 2979, "annotation": {"number": 64, "value": 127}, "group": "control_change"}, {"time": 2987, "annotation": {"number": 64, "value": 0}, "group": "control_change"}, {"time": 3024, "annotation": {"number": 64, "value": 127}, "group": "control_change"}, {"time": 3046, "annotation": {"number": 64, "value": 0}, "group": "control_change"}, {"time": 3050, "annotation": {"number": 64, "value": 127}, "group": "control_change"}, {"time": 3069, "annotation": {"number": 64, "value": 0}, "group": "control_change"}, {"time": 3073, "annotation": {"number": 64, "value": 127}, "group": "control_change"}, {"time": 3094, "annotation": {"number": 64, "value": 0}, "group": "control_change"}, {"time": 3101, "annotation": {"number": 64, "value": 127}, "group": "control_change"}, {"time": 3115, "annotation": {"number": 64, "value": 0}, "group": "control_change"}, {"time": 3121, "annotation": {"number": 64, "value": 127}, "group": "control_change"}, {"time": 3140, "annotation": {"number": 64, "value": 0}, "group": "control_change"}, {"time": 3145, "annotation": {"number": 64, "value": 127}, "group": "control_change"}, {"time": 3165, "annotation": {"number": 64, "value": 0}, "group": "control_change"}, {"time": 3170, "annotation": {"number": 64, "value": 127}, "group": "control_change"}, {"time": 3190, "annotation": {"number": 64, "value": 0}, "group": "control_change"}, {"time": 3197, "annotation": {"number": 64, "value": 127}, "group": "control_change"}, {"time": 3212, "annotation": {"number": 64, "value": 0}, "group": "control_change"}, {"time": 3216, "annotation": {"number": 64, "value": 127}, "group": "control_change"}, {"time": 3238, "annotation": {"number": 64, "value": 0}, "group": "control_change"}, {"time": 3252, "annotation": {"number": 64, "value": 127}, "group": "control_change"}, {"time": 3260, "annotation": {"number": 64, "value": 0}, "group": "control_change"}, {"time": 3267, "annotation": {"number": 64, "value": 127}, "group": "control_change"}, {"time": 3285, "annotation": {"number": 64, "value": 0}, "group": "control_change"}, {"time": 3293, "annotation": {"number": 64, "value": 127}, "group": "control_change"}, {"time": 3308, "annotation": {"number": 64, "value": 0}, "group": "control_change"}, {"time": 3312, "annotation": {"number": 64, "value": 127}, "group": "control_change"}, {"time": 3333, "annotation": {"number": 64, "value": 0}, "group": "control_change"}, {"time": 3342, "annotation": {"number": 64, "value": 127}, "group": "control_change"}, {"time": 3357, "annotation": {"number": 64, "value": 0}, "group": "control_change"}, {"time": 3360, "annotation": {"number": 64, "value": 127}, "group": "control_change"}, {"time": 3382, "annotation": {"number": 64, "value": 0}, "group": "control_change"}, {"time": 3386, "annotation": {"number": 64, "value": 127}, "group": "control_change"}, {"time": 3403, "annotation": {"number": 64, "value": 0}, "group": "control_change"}, {"time": 3408, "annotation": {"number": 64, "value": 127}, "group": "control_change"}, {"time": 3430, "annotation": {"number": 64, "value": 0}, "group": "control_change"}, {"time": 3434, "annotation": {"number": 64, "value": 127}, "group": "control_change"}, {"time": 3453, "annotation": {"number": 64, "value": 0}, "group": "control_change"}, {"time": 3457, "annotation": {"number": 64, "value": 127}, "group": "control_change"}, {"time": 3478, "annotation": {"number": 64, "value": 0}, "group": "control_change"}, {"time": 3485, "annotation": {"number": 64, "value": 127}, "group": "control_change"}, {"time": 3499, "annotation": {"number": 64, "value": 0}, "group": "control_change"}, {"time": 3505, "annotation": {"number": 64, "value": 127}, "group": "control_change"}, {"time": 3524, "annotation": {"number": 64, "value": 0}, "group": "control_change"}, {"time": 3529, "annotation": {"number": 64, "value": 127}, "group": "control_change"}, {"time": 3549, "annotation": {"number": 64, "value": 0}, "group": "control_change"}, {"time": 3554, "annotation": {"number": 64, "value": 127}, "group": "control_change"}, {"time": 3574, "annotation": {"number": 64, "value": 0}, "group": "control_change"}, {"time": 3581, "annotation": {"number": 64, "value": 127}, "group": "control_change"}, {"time": 3596, "annotation": {"number": 64, "value": 0}, "group": "control_change"}, {"time": 3600, "annotation": {"number": 64, "value": 127}, "group": "control_change"}, {"time": 3622, "annotation": {"number": 64, "value": 0}, "group": "control_change"}, {"time": 3636, "annotation": {"number": 64, "value": 127}, "group": "control_change"}, {"time": 3644, "annotation": {"number": 64, "value": 0}, "group": "control_change"}, {"time": 3651, "annotation": {"number": 64, "value": 127}, "group": "control_change"}, {"time": 3669, "annotation": {"number": 64, "value": 0}, "group": "control_change"}, {"time": 3677, "annotation": {"number": 64, "value": 127}, "group": "control_change"}, {"time": 3692, "annotation": {"number": 64, "value": 0}, "group": "control_change"}, {"time": 3696, "annotation": {"number": 64, "value": 127}, "group": "control_change"}, {"time": 3717, "annotation": {"number": 64, "value": 0}, "group": "control_change"}, {"time": 3726, "annotation": {"number": 64, "value": 127}, "group": "control_change"}, {"time": 3741, "annotation": {"number": 64, "value": 0}, "group": "control_change"}, {"time": 3744, "annotation": {"number": 64, "value": 127}, "group": "control_change"}, {"time": 3766, "annotation": {"number": 64, "value": 0}, "group": "control_change"}, {"time": 3770, "annotation": {"number": 64, "value": 127}, "group": "control_change"}, {"time": 3787, "annotation": {"number": 64, "value": 0}, "group": "control_change"}, {"time": 3799, "annotation": {"number": 64, "value": 127}, "group": "control_change"}, {"time": 3814, "annotation": {"number": 64, "value": 0}, "group": "control_change"}, {"time": 3832, "annotation": {"number": 64, "value": 127}, "group": "control_change"}, {"time": 3837, "annotation": {"number": 64, "value": 0}, "group": "control_change"}, {"time": 3846, "annotation": {"number": 64, "value": 127}, "group": "control_change"}, {"time": 3861, "annotation": {"number": 64, "value": 0}, "group": "control_change"}, {"time": 3870, "annotation": {"number": 64, "value": 127}, "group": "control_change"}, {"time": 3883, "annotation": {"number": 64, "value": 0}, "group": "control_change"}, {"time": 3897, "annotation": {"number": 64, "value": 127}, "group": "control_change"}, {"time": 3912, "annotation": {"number": 64, "value": 0}, "group": "control_change"}, {"time": 3917, "annotation": {"number": 64, "value": 127}, "group": "control_change"}, {"time": 3931, "annotation": {"number": 64, "value": 0}, "group": "control_change"}, {"time": 3939, "annotation": {"number": 64, "value": 127}, "group": "control_change"}, {"time": 3956, "annotation": {"number": 64, "value": 0}, "group": "control_change"}, {"time": 3964, "annotation": {"number": 64, "value": 127}, "group": "control_change"}, {"time": 3977, "annotation": {"number": 64, "value": 0}, "group": "control_change"}, {"time": 3991, "annotation": {"number": 64, "value": 127}, "group": "control_change"}, {"time": 4006, "annotation": {"number": 64, "value": 0}, "group": "control_change"}, {"time": 4024, "annotation": {"number": 64, "value": 127}, "group": "control_change"}, {"time": 4029, "annotation": {"number": 64, "value": 0}, "group": "control_change"}, {"time": 4038, "annotation": {"number": 64, "value": 127}, "group": "control_change"}, {"time": 4053, "annotation": {"number": 64, "value": 0}, "group": "control_change"}, {"time": 4062, "annotation": {"number": 64, "value": 127}, "group": "control_change"}, {"time": 4075, "annotation": {"number": 64, "value": 0}, "group": "control_change"}, {"time": 4082, "annotation": {"number": 64, "value": 127}, "group": "control_change"}, {"time": 4103, "annotation": {"number": 64, "value": 0}, "group": "control_change"}, {"time": 4112, "annotation": {"number": 64, "value": 127}, "group": "control_change"}, {"time": 4126, "annotation": {"number": 64, "value": 0}, "group": "control_change"}, {"time": 4133, "annotation": {"number": 64, "value": 127}, "group": "control_change"}, {"time": 4151, "annotation": {"number": 64, "value": 0}, "group": "control_change"}, {"time": 4157, "annotation": {"number": 64, "value": 127}, "group": "control_change"}, {"time": 4171, "annotation": {"number": 64, "value": 0}, "group": "control_change"}, {"time": 4180, "annotation": {"number": 64, "value": 127}, "group": "control_change"}, {"time": 4222, "annotation": {"number": 64, "value": 0}, "group": "control_change"}, {"time": 4227, "annotation": {"number": 64, "value": 127}, "group": "control_change"}, {"time": 4235, "annotation": {"number": 64, "value": 0}, "group": "control_change"}, {"time": 4272, "annotation": {"number": 64, "value": 127}, "group": "control_change"}, {"time": 4294, "annotation": {"number": 64, "value": 0}, "group": "control_change"}, {"time": 4298, "annotation": {"number": 64, "value": 127}, "group": "control_change"}, {"time": 4317, "annotation": {"number": 64, "value": 0}, "group": "control_change"}, {"time": 4321, "annotation": {"number": 64, "value": 127}, "group": "control_change"}, {"time": 4342, "annotation": {"number": 64, "value": 0}, "group": "control_change"}, {"time": 4349, "annotation": {"number": 64, "value": 127}, "group": "control_change"}, {"time": 4363, "annotation": {"number": 64, "value": 0}, "group": "control_change"}, {"time": 4369, "annotation": {"number": 64, "value": 127}, "group": "control_change"}, {"time": 4388, "annotation": {"number": 64, "value": 0}, "group": "control_change"}, {"time": 4393, "annotation": {"number": 64, "value": 127}, "group": "control_change"}, {"time": 4413, "annotation": {"number": 64, "value": 0}, "group": "control_change"}, {"time": 4418, "annotation": {"number": 64, "value": 127}, "group": "control_change"}, {"time": 4438, "annotation": {"number": 64, "value": 0}, "group": "control_change"}, {"time": 4445, "annotation": {"number": 64, "value": 127}, "group": "control_change"}, {"time": 4460, "annotation": {"number": 64, "value": 0}, "group": "control_change"}, {"time": 4464, "annotation": {"number": 64, "value": 127}, "group": "control_change"}, {"time": 4486, "annotation": {"number": 64, "value": 0}, "group": "control_change"}, {"time": 4500, "annotation": {"number": 64, "value": 127}, "group": "control_change"}, {"time": 4508, "annotation": {"number": 64, "value": 0}, "group": "control_change"}, {"time": 4515, "annotation": {"number": 64, "value": 127}, "group": "control_change"}, {"time": 4533, "annotation": {"number": 64, "value": 0}, "group": "control_change"}, {"time": 4541, "annotation": {"number": 64, "value": 127}, "group": "control_change"}, {"time": 4556, "annotation": {"number": 64, "value": 0}, "group": "control_change"}, {"time": 4560, "annotation": {"number": 64, "value": 127}, "group": "control_change"}, {"time": 4581, "annotation": {"number": 64, "value": 0}, "group": "control_change"}, {"time": 4590, "annotation": {"number": 64, "value": 127}, "group": "control_change"}, {"time": 4605, "annotation": {"number": 64, "value": 0}, "group": "control_change"}, {"time": 4608, "annotation": {"number": 64, "value": 127}, "group": "control_change"}, {"time": 4630, "annotation": {"number": 64, "value": 0}, "group": "control_change"}, {"time": 4634, "annotation": {"number": 64, "value": 127}, "group": "control_change"}, {"time": 4651, "annotation": {"number": 64, "value": 0}, "group": "control_change"}, {"time": 4656, "annotation": {"number": 64, "value": 127}, "group": "control_change"}, {"time": 4678, "annotation": {"number": 64, "value": 0}, "group": "control_change"}, {"time": 4682, "annotation": {"number": 64, "value": 127}, "group": "control_change"}, {"time": 4701, "annotation": {"number": 64, "value": 0}, "group": "control_change"}, {"time": 4705, "annotation": {"number": 64, "value": 127}, "group": "control_change"}, {"time": 4726, "annotation": {"number": 64, "value": 0}, "group": "control_change"}, {"time": 4733, "annotation": {"number": 64, "value": 127}, "group": "control_change"}, {"time": 4747, "annotation": {"number": 64, "value": 0}, "group": "control_change"}, {"time": 4753, "annotation": {"number": 64, "value": 127}, "group": "control_change"}, {"time": 4772, "annotation": {"number": 64, "value": 0}, "group": "control_change"}, {"time": 4777, "annotation": {"number": 64, "value": 127}, "group": "control_change"}, {"time": 4797, "annotation": {"number": 64, "value": 0}, "group": "control_change"}, {"time": 4802, "annotation": {"number": 64, "value": 127}, "group": "control_change"}, {"time": 4822, "annotation": {"number": 64, "value": 0}, "group": "control_change"}, {"time": 4829, "annotation": {"number": 64, "value": 127}, "group": "control_change"}, {"time": 4844, "annotation": {"number": 64, "value": 0}, "group": "control_change"}, {"time": 4848, "annotation": {"number": 64, "value": 127}, "group": "control_change"}, {"time": 4870, "annotation": {"number": 64, "value": 0}, "group": "control_change"}, {"time": 4884, "annotation": {"number": 64, "value": 127}, "group": "control_change"}, {"time": 4892, "annotation": {"number": 64, "value": 0}, "group": "control_change"}, {"time": 4899, "annotation": {"number": 64, "value": 127}, "group": "control_change"}, {"time": 4917, "annotation": {"number": 64, "value": 0}, "group": "control_change"}, {"time": 4925, "annotation": {"number": 64, "value": 127}, "group": "control_change"}, {"time": 4940, "annotation": {"number": 64, "value": 0}, "group": "control_change"}, {"time": 4944, "annotation": {"number": 64, "value": 127}, "group": "control_change"}, {"time": 4965, "annotation": {"number": 64, "value": 0}, "group": "control_change"}, {"time": 4974, "annotation": {"number": 64, "value": 127}, "group": "control_change"}, {"time": 4989, "annotation": {"number": 64, "value": 0}, "group": "control_change"}, {"time": 4992, "annotation": {"number": 64, "value": 127}, "group": "control_change"}, {"time": 5014, "annotation": {"number": 64, "value": 0}, "group": "control_change"}, {"time": 5018, "annotation": {"number": 64, "value": 127}, "group": "control_change"}, {"time": 5035, "annotation": {"number": 64, "value": 0}, "group": "control_change"}, {"time": 5040, "annotation": {"number": 64, "value": 127}, "group": "control_change"}, {"time": 5061, "annotation": {"number": 64, "value": 0}, "group": "control_change"}, {"time": 5070, "annotation": {"number": 64, "value": 127}, "group": "control_change"}, {"time": 5085, "annotation": {"number": 64, "value": 0}, "group": "control_change"}, {"time": 5088, "annotation": {"number": 64, "value": 127}, "group": "control_change"}, {"time": 5110, "annotation": {"number": 64, "value": 0}, "group": "control_change"}, {"time": 5114, "annotation": {"number": 64, "value": 127}, "group": "control_change"}, {"time": 5131, "annotation": {"number": 64, "value": 0}, "group": "control_change"}, {"time": 5136, "annotation": {"number": 64, "value": 127}, "group": "control_change"}, {"time": 5157, "annotation": {"number": 64, "value": 0}, "group": "control_change"}, {"time": 5158, "annotation": {"number": 64, "value": 127}, "group": "control_change"}, {"time": 5166, "annotation": {"number": 64, "value": 127}, "group": "control_change"}, {"time": 5177, "annotation": {"number": 64, "value": 0}, "group": "control_change"}, {"time": 5181, "annotation": {"number": 64, "value": 0}, "group": "control_change"}, {"time": 5183, "annotation": {"number": 64, "value": 127}, "group": "control_change"}, {"time": 5184, "annotation": {"number": 64, "value": 127}, "group": "control_change"}, {"time": 5206, "annotation": {"number": 64, "value": 0}, "group": "control_change"}, {"time": 5210, "annotation": {"number": 64, "value": 127}, "group": "control_change"}, {"time": 5227, "annotation": {"number": 64, "value": 0}, "group": "control_change"}]}]}