{"metadata": {"schema_version": "0.2", "title": "None", "source_filename": "007.mid", "source_format": "midi"}, "resolution": 12, "tempos": [{"time": 0, "qpm": 136.00045333484445}], "time_signatures": [{"time": 0, "numerator": 2, "denominator": 4}], "tracks": [{"program": 0, "is_drum": false, "name": "MELODY", "notes": [{"time": 400, "pitch": 66, "duration": 4, "velocity": 106}, {"time": 406, "pitch": 69, "duration": 3, "velocity": 112}, {"time": 412, "pitch": 71, "duration": 4, "velocity": 109}, {"time": 418, "pitch": 74, "duration": 4, "velocity": 101}, {"time": 424, "pitch": 73, "duration": 9, "velocity": 112}, {"time": 436, "pitch": 71, "duration": 3, "velocity": 106}, {"time": 442, "pitch": 69, "duration": 3, "velocity": 106}, {"time": 448, "pitch": 71, "duration": 24, "velocity": 109}, {"time": 496, "pitch": 71, "duration": 3, "velocity": 115}, {"time": 502, "pitch": 71, "duration": 3, "velocity": 109}, {"time": 508, "pitch": 71, "duration": 3, "velocity": 112}, {"time": 514, "pitch": 74, "duration": 4, "velocity": 109}, {"time": 520, "pitch": 71, "duration": 8, "velocity": 115}, {"time": 532, "pitch": 69, "duration": 9, "velocity": 112}, {"time": 544, "pitch": 66, "duration": 29, "velocity": 112}, {"time": 592, "pitch": 66, "duration": 4, "velocity": 106}, {"time": 598, "pitch": 71, "duration": 3, "velocity": 109}, {"time": 604, "pitch": 71, "duration": 4, "velocity": 106}, {"time": 610, "pitch": 69, "duration": 3, "velocity": 109}, {"time": 616, "pitch": 69, "duration": 6, "velocity": 112}, {"time": 628, "pitch": 66, "duration": 8, "velocity": 115}, {"time": 640, "pitch": 64, "duration": 15, "velocity": 112}, {"time": 688, "pitch": 64, "duration": 3, "velocity": 115}, {"time": 694, "pitch": 64, "duration": 3, "velocity": 109}, {"time": 700, "pitch": 64, "duration": 3, "velocity": 115}, {"time": 706, "pitch": 62, "duration": 3, "velocity": 109}, {"time": 712, "pitch": 64, "duration": 8, "velocity": 115}, {"time": 724, "pitch": 67, "duration": 8, "velocity": 115}, {"time": 736, "pitch": 66, "duration": 18, "velocity": 106}, {"time": 784, "pitch": 66, "duration": 4, "velocity": 106}, {"time": 790, "pitch": 69, "duration": 3, "velocity": 112}, {"time": 796, "pitch": 71, "duration": 4, "velocity": 109}, {"time": 802, "pitch": 74, "duration": 4, "velocity": 101}, {"time": 808, "pitch": 73, "duration": 9, "velocity": 112}, {"time": 820, "pitch": 71, "duration": 3, "velocity": 106}, {"time": 826, "pitch": 69, "duration": 3, "velocity": 106}, {"time": 832, "pitch": 71, "duration": 24, "velocity": 109}, {"time": 880, "pitch": 71, "duration": 3, "velocity": 115}, {"time": 886, "pitch": 71, "duration": 3, "velocity": 109}, {"time": 892, "pitch": 71, "duration": 3, "velocity": 112}, {"time": 898, "pitch": 74, "duration": 4, "velocity": 109}, {"time": 904, "pitch": 71, "duration": 8, "velocity": 115}, {"time": 916, "pitch": 69, "duration": 9, "velocity": 112}, {"time": 928, "pitch": 66, "duration": 29, "velocity": 112}, {"time": 976, "pitch": 66, "duration": 4, "velocity": 106}, {"time": 982, "pitch": 71, "duration": 3, "velocity": 109}, {"time": 988, "pitch": 71, "duration": 4, "velocity": 106}, {"time": 994, "pitch": 69, "duration": 3, "velocity": 109}, {"time": 1000, "pitch": 69, "duration": 6, "velocity": 112}, {"time": 1012, "pitch": 66, "duration": 8, "velocity": 115}, {"time": 1024, "pitch": 64, "duration": 15, "velocity": 112}, {"time": 1066, "pitch": 66, "duration": 4, "velocity": 109}, {"time": 1072, "pitch": 69, "duration": 3, "velocity": 109}, {"time": 1078, "pitch": 69, "duration": 3, "velocity": 109}, {"time": 1084, "pitch": 69, "duration": 4, "velocity": 109}, {"time": 1090, "pitch": 71, "duration": 3, "velocity": 109}, {"time": 1096, "pitch": 74, "duration": 8, "velocity": 104}, {"time": 1108, "pitch": 73, "duration": 8, "velocity": 112}, {"time": 1120, "pitch": 71, "duration": 42, "velocity": 112}, {"time": 1216, "pitch": 71, "duration": 4, "velocity": 112}, {"time": 1222, "pitch": 78, "duration": 8, "velocity": 80}, {"time": 1234, "pitch": 78, "duration": 3, "velocity": 109}, {"time": 1240, "pitch": 78, "duration": 8, "velocity": 104}, {"time": 1252, "pitch": 76, "duration": 8, "velocity": 106}, {"time": 1264, "pitch": 76, "duration": 42, "velocity": 115}, {"time": 1312, "pitch": 76, "duration": 3, "velocity": 115}, {"time": 1318, "pitch": 76, "duration": 9, "velocity": 112}, {"time": 1330, "pitch": 78, "duration": 4, "velocity": 106}, {"time": 1336, "pitch": 76, "duration": 7, "velocity": 115}, {"time": 1348, "pitch": 74, "duration": 8, "velocity": 112}, {"time": 1360, "pitch": 71, "duration": 38, "velocity": 115}, {"time": 1408, "pitch": 71, "duration": 8, "velocity": 115}, {"time": 1420, "pitch": 78, "duration": 10, "velocity": 109}, {"time": 1432, "pitch": 76, "duration": 8, "velocity": 115}, {"time": 1444, "pitch": 74, "duration": 6, "velocity": 115}, {"time": 1450, "pitch": 74, "duration": 6, "velocity": 115}, {"time": 1456, "pitch": 71, "duration": 3, "velocity": 115}, {"time": 1462, "pitch": 69, "duration": 4, "velocity": 115}, {"time": 1468, "pitch": 66, "duration": 23, "velocity": 112}, {"time": 1504, "pitch": 74, "duration": 3, "velocity": 115}, {"time": 1510, "pitch": 74, "duration": 3, "velocity": 112}, {"time": 1516, "pitch": 74, "duration": 3, "velocity": 112}, {"time": 1522, "pitch": 71, "duration": 3, "velocity": 112}, {"time": 1528, "pitch": 74, "duration": 8, "velocity": 112}, {"time": 1540, "pitch": 78, "duration": 8, "velocity": 109}, {"time": 1552, "pitch": 78, "duration": 35, "velocity": 112}, {"time": 1600, "pitch": 78, "duration": 3, "velocity": 109}, {"time": 1606, "pitch": 78, "duration": 8, "velocity": 109}, {"time": 1618, "pitch": 78, "duration": 3, "velocity": 109}, {"time": 1624, "pitch": 78, "duration": 9, "velocity": 112}, {"time": 1636, "pitch": 74, "duration": 10, "velocity": 101}, {"time": 1648, "pitch": 76, "duration": 32, "velocity": 112}, {"time": 1696, "pitch": 76, "duration": 3, "velocity": 112}, {"time": 1702, "pitch": 76, "duration": 9, "velocity": 112}, {"time": 1714, "pitch": 78, "duration": 4, "velocity": 109}, {"time": 1720, "pitch": 76, "duration": 8, "velocity": 118}, {"time": 1732, "pitch": 74, "duration": 9, "velocity": 115}, {"time": 1744, "pitch": 71, "duration": 37, "velocity": 115}, {"time": 1792, "pitch": 71, "duration": 9, "velocity": 115}, {"time": 1804, "pitch": 78, "duration": 9, "velocity": 109}, {"time": 1816, "pitch": 76, "duration": 9, "velocity": 112}, {"time": 1828, "pitch": 74, "duration": 3, "velocity": 109}, {"time": 1834, "pitch": 74, "duration": 4, "velocity": 109}, {"time": 1840, "pitch": 71, "duration": 3, "velocity": 115}, {"time": 1846, "pitch": 69, "duration": 5, "velocity": 109}, {"time": 1852, "pitch": 66, "duration": 24, "velocity": 112}, {"time": 1888, "pitch": 76, "duration": 3, "velocity": 112}, {"time": 1894, "pitch": 76, "duration": 3, "velocity": 109}, {"time": 1900, "pitch": 76, "duration": 3, "velocity": 106}, {"time": 1906, "pitch": 74, "duration": 3, "velocity": 109}, {"time": 1912, "pitch": 73, "duration": 9, "velocity": 112}, {"time": 1924, "pitch": 74, "duration": 4, "velocity": 106}, {"time": 1930, "pitch": 73, "duration": 4, "velocity": 112}, {"time": 1936, "pitch": 71, "duration": 46, "velocity": 115}, {"time": 1990, "pitch": 71, "duration": 3, "velocity": 112}, {"time": 1996, "pitch": 71, "duration": 6, "velocity": 112}, {"time": 2014, "pitch": 71, "duration": 3, "velocity": 112}, {"time": 2020, "pitch": 73, "duration": 3, "velocity": 112}, {"time": 2026, "pitch": 74, "duration": 4, "velocity": 112}, {"time": 2038, "pitch": 74, "duration": 3, "velocity": 106}, {"time": 2044, "pitch": 74, "duration": 3, "velocity": 106}, {"time": 2050, "pitch": 66, "duration": 3, "velocity": 115}, {"time": 2056, "pitch": 66, "duration": 3, "velocity": 112}, {"time": 2062, "pitch": 66, "duration": 2, "velocity": 109}, {"time": 2068, "pitch": 66, "duration": 5, "velocity": 112}, {"time": 2086, "pitch": 71, "duration": 3, "velocity": 112}, {"time": 2092, "pitch": 71, "duration": 3, "velocity": 112}, {"time": 2098, "pitch": 66, "duration": 3, "velocity": 115}, {"time": 2104, "pitch": 71, "duration": 2, "velocity": 115}, {"time": 2110, "pitch": 71, "duration": 3, "velocity": 115}, {"time": 2116, "pitch": 73, "duration": 3, "velocity": 109}, {"time": 2122, "pitch": 74, "duration": 3, "velocity": 109}, {"time": 2128, "pitch": 73, "duration": 3, "velocity": 109}, {"time": 2134, "pitch": 73, "duration": 8, "velocity": 112}, {"time": 2146, "pitch": 71, "duration": 3, "velocity": 112}, {"time": 2152, "pitch": 70, "duration": 3, "velocity": 120}, {"time": 2158, "pitch": 71, "duration": 3, "velocity": 104}, {"time": 2164, "pitch": 71, "duration": 9, "velocity": 112}, {"time": 2182, "pitch": 71, "duration": 3, "velocity": 112}, {"time": 2188, "pitch": 71, "duration": 3, "velocity": 115}, {"time": 2194, "pitch": 66, "duration": 3, "velocity": 115}, {"time": 2200, "pitch": 71, "duration": 2, "velocity": 112}, {"time": 2206, "pitch": 71, "duration": 3, "velocity": 109}, {"time": 2212, "pitch": 73, "duration": 3, "velocity": 112}, {"time": 2218, "pitch": 74, "duration": 3, "velocity": 109}, {"time": 2230, "pitch": 74, "duration": 3, "velocity": 112}, {"time": 2236, "pitch": 74, "duration": 3, "velocity": 109}, {"time": 2242, "pitch": 66, "duration": 3, "velocity": 112}, {"time": 2248, "pitch": 66, "duration": 3, "velocity": 109}, {"time": 2254, "pitch": 66, "duration": 3, "velocity": 112}, {"time": 2260, "pitch": 66, "duration": 8, "velocity": 112}, {"time": 2278, "pitch": 71, "duration": 3, "velocity": 112}, {"time": 2284, "pitch": 71, "duration": 3, "velocity": 109}, {"time": 2290, "pitch": 66, "duration": 3, "velocity": 115}, {"time": 2296, "pitch": 71, "duration": 3, "velocity": 115}, {"time": 2302, "pitch": 71, "duration": 3, "velocity": 115}, {"time": 2308, "pitch": 73, "duration": 3, "velocity": 109}, {"time": 2314, "pitch": 74, "duration": 4, "velocity": 106}, {"time": 2320, "pitch": 73, "duration": 3, "velocity": 112}, {"time": 2326, "pitch": 74, "duration": 3, "velocity": 112}, {"time": 2332, "pitch": 73, "duration": 2, "velocity": 120}, {"time": 2338, "pitch": 71, "duration": 3, "velocity": 112}, {"time": 2344, "pitch": 70, "duration": 3, "velocity": 112}, {"time": 2350, "pitch": 71, "duration": 3, "velocity": 109}, {"time": 2356, "pitch": 71, "duration": 8, "velocity": 109}, {"time": 2752, "pitch": 66, "duration": 4, "velocity": 106}, {"time": 2758, "pitch": 69, "duration": 3, "velocity": 112}, {"time": 2764, "pitch": 71, "duration": 4, "velocity": 109}, {"time": 2770, "pitch": 74, "duration": 4, "velocity": 101}, {"time": 2776, "pitch": 73, "duration": 9, "velocity": 112}, {"time": 2788, "pitch": 71, "duration": 3, "velocity": 106}, {"time": 2794, "pitch": 69, "duration": 3, "velocity": 106}, {"time": 2800, "pitch": 71, "duration": 24, "velocity": 109}, {"time": 2848, "pitch": 71, "duration": 3, "velocity": 115}, {"time": 2854, "pitch": 71, "duration": 3, "velocity": 109}, {"time": 2860, "pitch": 71, "duration": 3, "velocity": 112}, {"time": 2866, "pitch": 74, "duration": 4, "velocity": 109}, {"time": 2872, "pitch": 71, "duration": 8, "velocity": 115}, {"time": 2884, "pitch": 69, "duration": 9, "velocity": 112}, {"time": 2896, "pitch": 66, "duration": 29, "velocity": 112}, {"time": 2944, "pitch": 66, "duration": 4, "velocity": 106}, {"time": 2950, "pitch": 71, "duration": 3, "velocity": 109}, {"time": 2956, "pitch": 71, "duration": 4, "velocity": 106}, {"time": 2962, "pitch": 69, "duration": 3, "velocity": 109}, {"time": 2968, "pitch": 69, "duration": 6, "velocity": 112}, {"time": 2980, "pitch": 66, "duration": 8, "velocity": 115}, {"time": 2992, "pitch": 64, "duration": 15, "velocity": 112}, {"time": 3040, "pitch": 64, "duration": 3, "velocity": 115}, {"time": 3046, "pitch": 64, "duration": 3, "velocity": 109}, {"time": 3052, "pitch": 64, "duration": 3, "velocity": 115}, {"time": 3058, "pitch": 62, "duration": 3, "velocity": 109}, {"time": 3064, "pitch": 64, "duration": 8, "velocity": 115}, {"time": 3076, "pitch": 67, "duration": 8, "velocity": 115}, {"time": 3088, "pitch": 66, "duration": 18, "velocity": 106}, {"time": 3136, "pitch": 66, "duration": 4, "velocity": 106}, {"time": 3142, "pitch": 69, "duration": 3, "velocity": 112}, {"time": 3148, "pitch": 71, "duration": 4, "velocity": 109}, {"time": 3154, "pitch": 74, "duration": 4, "velocity": 101}, {"time": 3160, "pitch": 73, "duration": 9, "velocity": 112}, {"time": 3172, "pitch": 71, "duration": 3, "velocity": 106}, {"time": 3178, "pitch": 69, "duration": 3, "velocity": 106}, {"time": 3184, "pitch": 71, "duration": 24, "velocity": 109}, {"time": 3232, "pitch": 71, "duration": 3, "velocity": 115}, {"time": 3238, "pitch": 71, "duration": 3, "velocity": 109}, {"time": 3244, "pitch": 71, "duration": 3, "velocity": 112}, {"time": 3250, "pitch": 74, "duration": 4, "velocity": 109}, {"time": 3256, "pitch": 71, "duration": 8, "velocity": 115}, {"time": 3268, "pitch": 69, "duration": 9, "velocity": 112}, {"time": 3280, "pitch": 66, "duration": 29, "velocity": 112}, {"time": 3328, "pitch": 66, "duration": 4, "velocity": 106}, {"time": 3334, "pitch": 71, "duration": 3, "velocity": 109}, {"time": 3340, "pitch": 71, "duration": 4, "velocity": 106}, {"time": 3346, "pitch": 69, "duration": 3, "velocity": 109}, {"time": 3352, "pitch": 69, "duration": 6, "velocity": 112}, {"time": 3364, "pitch": 66, "duration": 8, "velocity": 115}, {"time": 3376, "pitch": 64, "duration": 15, "velocity": 112}, {"time": 3418, "pitch": 66, "duration": 4, "velocity": 109}, {"time": 3424, "pitch": 69, "duration": 3, "velocity": 109}, {"time": 3430, "pitch": 69, "duration": 3, "velocity": 109}, {"time": 3436, "pitch": 69, "duration": 4, "velocity": 109}, {"time": 3442, "pitch": 71, "duration": 3, "velocity": 109}, {"time": 3448, "pitch": 74, "duration": 8, "velocity": 104}, {"time": 3460, "pitch": 73, "duration": 8, "velocity": 112}, {"time": 3472, "pitch": 71, "duration": 42, "velocity": 112}, {"time": 3520, "pitch": 71, "duration": 4, "velocity": 112}, {"time": 3526, "pitch": 78, "duration": 8, "velocity": 80}, {"time": 3538, "pitch": 78, "duration": 3, "velocity": 109}, {"time": 3544, "pitch": 78, "duration": 8, "velocity": 104}, {"time": 3556, "pitch": 76, "duration": 8, "velocity": 106}, {"time": 3568, "pitch": 76, "duration": 42, "velocity": 115}, {"time": 3616, "pitch": 76, "duration": 3, "velocity": 115}, {"time": 3622, "pitch": 76, "duration": 9, "velocity": 112}, {"time": 3634, "pitch": 78, "duration": 4, "velocity": 106}, {"time": 3640, "pitch": 76, "duration": 7, "velocity": 115}, {"time": 3652, "pitch": 74, "duration": 8, "velocity": 112}, {"time": 3664, "pitch": 71, "duration": 38, "velocity": 115}, {"time": 3712, "pitch": 71, "duration": 8, "velocity": 115}, {"time": 3724, "pitch": 78, "duration": 10, "velocity": 109}, {"time": 3736, "pitch": 76, "duration": 8, "velocity": 115}, {"time": 3748, "pitch": 74, "duration": 6, "velocity": 115}, {"time": 3754, "pitch": 74, "duration": 6, "velocity": 115}, {"time": 3760, "pitch": 71, "duration": 3, "velocity": 115}, {"time": 3766, "pitch": 69, "duration": 4, "velocity": 115}, {"time": 3772, "pitch": 66, "duration": 23, "velocity": 112}, {"time": 3808, "pitch": 74, "duration": 3, "velocity": 115}, {"time": 3814, "pitch": 74, "duration": 3, "velocity": 112}, {"time": 3820, "pitch": 74, "duration": 3, "velocity": 112}, {"time": 3826, "pitch": 71, "duration": 3, "velocity": 112}, {"time": 3832, "pitch": 74, "duration": 8, "velocity": 112}, {"time": 3844, "pitch": 78, "duration": 8, "velocity": 109}, {"time": 3856, "pitch": 78, "duration": 35, "velocity": 112}, {"time": 3904, "pitch": 78, "duration": 3, "velocity": 109}, {"time": 3910, "pitch": 78, "duration": 8, "velocity": 109}, {"time": 3922, "pitch": 78, "duration": 3, "velocity": 109}, {"time": 3928, "pitch": 78, "duration": 9, "velocity": 112}, {"time": 3940, "pitch": 74, "duration": 10, "velocity": 101}, {"time": 3952, "pitch": 76, "duration": 32, "velocity": 112}, {"time": 4000, "pitch": 76, "duration": 3, "velocity": 112}, {"time": 4006, "pitch": 76, "duration": 9, "velocity": 112}, {"time": 4018, "pitch": 78, "duration": 4, "velocity": 109}, {"time": 4024, "pitch": 76, "duration": 8, "velocity": 118}, {"time": 4036, "pitch": 74, "duration": 9, "velocity": 115}, {"time": 4048, "pitch": 71, "duration": 37, "velocity": 115}, {"time": 4096, "pitch": 71, "duration": 9, "velocity": 115}, {"time": 4108, "pitch": 78, "duration": 9, "velocity": 109}, {"time": 4120, "pitch": 76, "duration": 9, "velocity": 112}, {"time": 4132, "pitch": 74, "duration": 3, "velocity": 109}, {"time": 4138, "pitch": 74, "duration": 4, "velocity": 109}, {"time": 4144, "pitch": 71, "duration": 3, "velocity": 115}, {"time": 4150, "pitch": 69, "duration": 5, "velocity": 109}, {"time": 4156, "pitch": 66, "duration": 24, "velocity": 112}, {"time": 4192, "pitch": 76, "duration": 3, "velocity": 112}, {"time": 4198, "pitch": 76, "duration": 3, "velocity": 109}, {"time": 4204, "pitch": 76, "duration": 3, "velocity": 106}, {"time": 4210, "pitch": 74, "duration": 3, "velocity": 109}, {"time": 4216, "pitch": 73, "duration": 9, "velocity": 112}, {"time": 4228, "pitch": 74, "duration": 4, "velocity": 106}, {"time": 4234, "pitch": 73, "duration": 4, "velocity": 112}, {"time": 4240, "pitch": 71, "duration": 46, "velocity": 115}, {"time": 4672, "pitch": 71, "duration": 4, "velocity": 112}, {"time": 4678, "pitch": 78, "duration": 8, "velocity": 80}, {"time": 4690, "pitch": 78, "duration": 3, "velocity": 109}, {"time": 4696, "pitch": 78, "duration": 8, "velocity": 104}, {"time": 4708, "pitch": 76, "duration": 8, "velocity": 106}, {"time": 4720, "pitch": 76, "duration": 42, "velocity": 115}, {"time": 4768, "pitch": 76, "duration": 3, "velocity": 115}, {"time": 4774, "pitch": 76, "duration": 9, "velocity": 112}, {"time": 4786, "pitch": 78, "duration": 4, "velocity": 106}, {"time": 4792, "pitch": 76, "duration": 7, "velocity": 115}, {"time": 4804, "pitch": 74, "duration": 8, "velocity": 112}, {"time": 4816, "pitch": 71, "duration": 38, "velocity": 115}, {"time": 4864, "pitch": 71, "duration": 8, "velocity": 115}, {"time": 4876, "pitch": 78, "duration": 10, "velocity": 109}, {"time": 4888, "pitch": 76, "duration": 8, "velocity": 115}, {"time": 4900, "pitch": 74, "duration": 6, "velocity": 115}, {"time": 4906, "pitch": 74, "duration": 6, "velocity": 115}, {"time": 4912, "pitch": 71, "duration": 3, "velocity": 115}, {"time": 4918, "pitch": 69, "duration": 4, "velocity": 115}, {"time": 4924, "pitch": 66, "duration": 23, "velocity": 112}, {"time": 4960, "pitch": 74, "duration": 3, "velocity": 115}, {"time": 4966, "pitch": 74, "duration": 3, "velocity": 112}, {"time": 4972, "pitch": 74, "duration": 3, "velocity": 112}, {"time": 4978, "pitch": 71, "duration": 3, "velocity": 112}, {"time": 4984, "pitch": 74, "duration": 8, "velocity": 112}, {"time": 4996, "pitch": 78, "duration": 8, "velocity": 109}, {"time": 5008, "pitch": 78, "duration": 35, "velocity": 112}, {"time": 5056, "pitch": 78, "duration": 3, "velocity": 109}, {"time": 5062, "pitch": 78, "duration": 8, "velocity": 109}, {"time": 5074, "pitch": 78, "duration": 3, "velocity": 109}, {"time": 5080, "pitch": 78, "duration": 9, "velocity": 112}, {"time": 5092, "pitch": 74, "duration": 10, "velocity": 101}, {"time": 5104, "pitch": 76, "duration": 32, "velocity": 112}, {"time": 5152, "pitch": 76, "duration": 3, "velocity": 112}, {"time": 5158, "pitch": 76, "duration": 9, "velocity": 112}, {"time": 5170, "pitch": 78, "duration": 4, "velocity": 109}, {"time": 5176, "pitch": 76, "duration": 8, "velocity": 118}, {"time": 5188, "pitch": 74, "duration": 9, "velocity": 115}, {"time": 5200, "pitch": 71, "duration": 37, "velocity": 115}, {"time": 5248, "pitch": 71, "duration": 9, "velocity": 115}, {"time": 5260, "pitch": 78, "duration": 9, "velocity": 109}, {"time": 5272, "pitch": 76, "duration": 9, "velocity": 112}, {"time": 5284, "pitch": 74, "duration": 3, "velocity": 109}, {"time": 5290, "pitch": 74, "duration": 4, "velocity": 109}, {"time": 5296, "pitch": 71, "duration": 3, "velocity": 115}, {"time": 5302, "pitch": 69, "duration": 5, "velocity": 109}, {"time": 5308, "pitch": 66, "duration": 24, "velocity": 112}, {"time": 5344, "pitch": 76, "duration": 3, "velocity": 112}, {"time": 5350, "pitch": 76, "duration": 3, "velocity": 109}, {"time": 5356, "pitch": 76, "duration": 3, "velocity": 106}, {"time": 5362, "pitch": 74, "duration": 3, "velocity": 109}, {"time": 5368, "pitch": 73, "duration": 9, "velocity": 112}, {"time": 5380, "pitch": 74, "duration": 4, "velocity": 106}, {"time": 5386, "pitch": 73, "duration": 4, "velocity": 112}, {"time": 5392, "pitch": 71, "duration": 46, "velocity": 115}, {"time": 5440, "pitch": 71, "duration": 9, "velocity": 115}, {"time": 5452, "pitch": 78, "duration": 9, "velocity": 109}, {"time": 5464, "pitch": 76, "duration": 9, "velocity": 112}, {"time": 5476, "pitch": 74, "duration": 3, "velocity": 109}, {"time": 5482, "pitch": 74, "duration": 4, "velocity": 109}, {"time": 5488, "pitch": 71, "duration": 3, "velocity": 115}, {"time": 5494, "pitch": 69, "duration": 5, "velocity": 109}, {"time": 5500, "pitch": 66, "duration": 24, "velocity": 112}, {"time": 5537, "pitch": 76, "duration": 4, "velocity": 115}, {"time": 5545, "pitch": 76, "duration": 5, "velocity": 112}, {"time": 5556, "pitch": 76, "duration": 6, "velocity": 115}, {"time": 5566, "pitch": 74, "duration": 6, "velocity": 104}, {"time": 5576, "pitch": 73, "duration": 8, "velocity": 112}, {"time": 5587, "pitch": 74, "duration": 10, "velocity": 112}, {"time": 5600, "pitch": 73, "duration": 39, "velocity": 118}, {"time": 5639, "pitch": 71, "duration": 86, "velocity": 112}]}, {"program": 0, "is_drum": false, "name": "BRIDGE", "notes": [{"time": 16, "pitch": 78, "duration": 10, "velocity": 112}, {"time": 28, "pitch": 71, "duration": 3, "velocity": 115}, {"time": 34, "pitch": 78, "duration": 17, "velocity": 104}, {"time": 58, "pitch": 78, "duration": 5, "velocity": 118}, {"time": 64, "pitch": 76, "duration": 4, "velocity": 115}, {"time": 70, "pitch": 71, "duration": 3, "velocity": 118}, {"time": 76, "pitch": 74, "duration": 3, "velocity": 112}, {"time": 82, "pitch": 76, "duration": 17, "velocity": 118}, {"time": 112, "pitch": 76, "duration": 8, "velocity": 115}, {"time": 124, "pitch": 69, "duration": 3, "velocity": 115}, {"time": 130, "pitch": 76, "duration": 8, "velocity": 118}, {"time": 142, "pitch": 69, "duration": 6, "velocity": 115}, {"time": 154, "pitch": 79, "duration": 3, "velocity": 118}, {"time": 160, "pitch": 78, "duration": 2, "velocity": 109}, {"time": 166, "pitch": 74, "duration": 3, "velocity": 106}, {"time": 172, "pitch": 76, "duration": 3, "velocity": 115}, {"time": 178, "pitch": 78, "duration": 18, "velocity": 115}, {"time": 208, "pitch": 78, "duration": 10, "velocity": 112}, {"time": 220, "pitch": 71, "duration": 3, "velocity": 115}, {"time": 226, "pitch": 78, "duration": 17, "velocity": 104}, {"time": 250, "pitch": 78, "duration": 5, "velocity": 118}, {"time": 256, "pitch": 76, "duration": 4, "velocity": 115}, {"time": 262, "pitch": 71, "duration": 3, "velocity": 118}, {"time": 268, "pitch": 74, "duration": 3, "velocity": 112}, {"time": 274, "pitch": 76, "duration": 17, "velocity": 118}, {"time": 304, "pitch": 76, "duration": 9, "velocity": 115}, {"time": 316, "pitch": 73, "duration": 5, "velocity": 109}, {"time": 322, "pitch": 76, "duration": 3, "velocity": 109}, {"time": 328, "pitch": 74, "duration": 7, "velocity": 109}, {"time": 340, "pitch": 73, "duration": 7, "velocity": 118}, {"time": 352, "pitch": 71, "duration": 11, "velocity": 112}, {"time": 748, "pitch": 78, "duration": 3, "velocity": 115}, {"time": 754, "pitch": 78, "duration": 4, "velocity": 115}, {"time": 760, "pitch": 76, "duration": 4, "velocity": 115}, {"time": 766, "pitch": 74, "duration": 3, "velocity": 115}, {"time": 772, "pitch": 73, "duration": 5, "velocity": 115}, {"time": 778, "pitch": 74, "duration": 4, "velocity": 109}, {"time": 784, "pitch": 71, "duration": 15, "velocity": 109}, {"time": 1132, "pitch": 74, "duration": 5, "velocity": 104}, {"time": 1132, "pitch": 78, "duration": 6, "velocity": 106}, {"time": 1138, "pitch": 76, "duration": 12, "velocity": 115}, {"time": 1150, "pitch": 74, "duration": 6, "velocity": 112}, {"time": 1156, "pitch": 73, "duration": 4, "velocity": 109}, {"time": 1162, "pitch": 69, "duration": 7, "velocity": 101}, {"time": 1168, "pitch": 71, "duration": 37, "velocity": 109}, {"time": 1270, "pitch": 71, "duration": 4, "velocity": 109}, {"time": 1276, "pitch": 74, "duration": 3, "velocity": 115}, {"time": 1282, "pitch": 78, "duration": 6, "velocity": 120}, {"time": 1289, "pitch": 76, "duration": 21, "velocity": 109}, {"time": 1367, "pitch": 78, "duration": 4, "velocity": 117}, {"time": 1373, "pitch": 76, "duration": 4, "velocity": 112}, {"time": 1379, "pitch": 74, "duration": 4, "velocity": 109}, {"time": 1384, "pitch": 71, "duration": 20, "velocity": 112}, {"time": 1468, "pitch": 74, "duration": 8, "velocity": 115}, {"time": 1480, "pitch": 71, "duration": 4, "velocity": 115}, {"time": 1485, "pitch": 69, "duration": 3, "velocity": 104}, {"time": 1492, "pitch": 66, "duration": 13, "velocity": 117}, {"time": 1560, "pitch": 78, "duration": 2, "velocity": 91}, {"time": 1565, "pitch": 78, "duration": 3, "velocity": 110}, {"time": 1570, "pitch": 78, "duration": 3, "velocity": 110}, {"time": 1576, "pitch": 82, "duration": 16, "velocity": 120}, {"time": 1576, "pitch": 78, "duration": 16, "velocity": 113}, {"time": 1653, "pitch": 71, "duration": 4, "velocity": 109}, {"time": 1660, "pitch": 74, "duration": 3, "velocity": 115}, {"time": 1665, "pitch": 78, "duration": 6, "velocity": 120}, {"time": 1672, "pitch": 76, "duration": 22, "velocity": 109}, {"time": 1750, "pitch": 78, "duration": 5, "velocity": 117}, {"time": 1757, "pitch": 76, "duration": 3, "velocity": 112}, {"time": 1762, "pitch": 74, "duration": 5, "velocity": 109}, {"time": 1768, "pitch": 71, "duration": 19, "velocity": 112}, {"time": 1852, "pitch": 74, "duration": 8, "velocity": 115}, {"time": 1863, "pitch": 71, "duration": 4, "velocity": 115}, {"time": 1869, "pitch": 69, "duration": 3, "velocity": 104}, {"time": 1875, "pitch": 66, "duration": 13, "velocity": 117}, {"time": 2320, "pitch": 73, "duration": 3, "velocity": 109}, {"time": 2320, "pitch": 76, "duration": 3, "velocity": 112}, {"time": 2326, "pitch": 74, "duration": 4, "velocity": 106}, {"time": 2326, "pitch": 78, "duration": 4, "velocity": 112}, {"time": 2332, "pitch": 73, "duration": 4, "velocity": 112}, {"time": 2332, "pitch": 76, "duration": 4, "velocity": 115}, {"time": 2338, "pitch": 71, "duration": 3, "velocity": 109}, {"time": 2338, "pitch": 74, "duration": 3, "velocity": 112}, {"time": 2344, "pitch": 70, "duration": 3, "velocity": 120}, {"time": 2344, "pitch": 73, "duration": 4, "velocity": 112}, {"time": 2350, "pitch": 71, "duration": 3, "velocity": 104}, {"time": 2350, "pitch": 74, "duration": 3, "velocity": 112}, {"time": 2356, "pitch": 71, "duration": 11, "velocity": 112}, {"time": 2356, "pitch": 74, "duration": 10, "velocity": 115}, {"time": 2368, "pitch": 78, "duration": 10, "velocity": 112}, {"time": 2380, "pitch": 71, "duration": 3, "velocity": 115}, {"time": 2386, "pitch": 78, "duration": 17, "velocity": 104}, {"time": 2410, "pitch": 78, "duration": 5, "velocity": 118}, {"time": 2416, "pitch": 76, "duration": 4, "velocity": 115}, {"time": 2422, "pitch": 71, "duration": 3, "velocity": 118}, {"time": 2428, "pitch": 74, "duration": 3, "velocity": 112}, {"time": 2434, "pitch": 76, "duration": 17, "velocity": 118}, {"time": 2464, "pitch": 76, "duration": 8, "velocity": 115}, {"time": 2476, "pitch": 69, "duration": 3, "velocity": 115}, {"time": 2482, "pitch": 76, "duration": 8, "velocity": 118}, {"time": 2494, "pitch": 69, "duration": 6, "velocity": 115}, {"time": 2506, "pitch": 79, "duration": 3, "velocity": 118}, {"time": 2512, "pitch": 78, "duration": 2, "velocity": 109}, {"time": 2518, "pitch": 74, "duration": 3, "velocity": 106}, {"time": 2524, "pitch": 76, "duration": 3, "velocity": 115}, {"time": 2530, "pitch": 78, "duration": 18, "velocity": 115}, {"time": 2560, "pitch": 78, "duration": 10, "velocity": 112}, {"time": 2572, "pitch": 71, "duration": 3, "velocity": 115}, {"time": 2578, "pitch": 78, "duration": 17, "velocity": 104}, {"time": 2602, "pitch": 78, "duration": 5, "velocity": 118}, {"time": 2608, "pitch": 76, "duration": 4, "velocity": 115}, {"time": 2614, "pitch": 71, "duration": 3, "velocity": 118}, {"time": 2620, "pitch": 74, "duration": 3, "velocity": 112}, {"time": 2626, "pitch": 76, "duration": 17, "velocity": 118}, {"time": 2656, "pitch": 76, "duration": 9, "velocity": 115}, {"time": 2668, "pitch": 73, "duration": 5, "velocity": 109}, {"time": 2674, "pitch": 76, "duration": 3, "velocity": 109}, {"time": 2680, "pitch": 74, "duration": 7, "velocity": 109}, {"time": 2692, "pitch": 73, "duration": 7, "velocity": 118}, {"time": 2704, "pitch": 71, "duration": 11, "velocity": 112}, {"time": 2908, "pitch": 78, "duration": 4, "velocity": 109}, {"time": 2914, "pitch": 76, "duration": 8, "velocity": 112}, {"time": 2926, "pitch": 74, "duration": 5, "velocity": 109}, {"time": 2932, "pitch": 73, "duration": 3, "velocity": 112}, {"time": 2938, "pitch": 69, "duration": 5, "velocity": 115}, {"time": 2944, "pitch": 71, "duration": 14, "velocity": 109}, {"time": 3100, "pitch": 78, "duration": 3, "velocity": 115}, {"time": 3106, "pitch": 78, "duration": 4, "velocity": 115}, {"time": 3112, "pitch": 76, "duration": 4, "velocity": 115}, {"time": 3118, "pitch": 74, "duration": 3, "velocity": 115}, {"time": 3124, "pitch": 73, "duration": 5, "velocity": 115}, {"time": 3130, "pitch": 74, "duration": 4, "velocity": 109}, {"time": 3136, "pitch": 71, "duration": 15, "velocity": 109}, {"time": 3490, "pitch": 78, "duration": 4, "velocity": 101}, {"time": 3496, "pitch": 76, "duration": 4, "velocity": 109}, {"time": 3502, "pitch": 74, "duration": 5, "velocity": 106}, {"time": 3508, "pitch": 73, "duration": 5, "velocity": 109}, {"time": 3514, "pitch": 74, "duration": 5, "velocity": 101}, {"time": 3520, "pitch": 71, "duration": 11, "velocity": 109}, {"time": 3575, "pitch": 71, "duration": 4, "velocity": 109}, {"time": 3582, "pitch": 74, "duration": 2, "velocity": 115}, {"time": 3587, "pitch": 78, "duration": 6, "velocity": 120}, {"time": 3594, "pitch": 76, "duration": 22, "velocity": 109}, {"time": 3672, "pitch": 78, "duration": 4, "velocity": 117}, {"time": 3679, "pitch": 76, "duration": 3, "velocity": 112}, {"time": 3684, "pitch": 74, "duration": 5, "velocity": 109}, {"time": 3690, "pitch": 71, "duration": 19, "velocity": 112}, {"time": 3773, "pitch": 74, "duration": 9, "velocity": 115}, {"time": 3785, "pitch": 71, "duration": 4, "velocity": 115}, {"time": 3791, "pitch": 69, "duration": 3, "velocity": 104}, {"time": 3797, "pitch": 66, "duration": 13, "velocity": 117}, {"time": 3865, "pitch": 78, "duration": 3, "velocity": 91}, {"time": 3871, "pitch": 78, "duration": 2, "velocity": 110}, {"time": 3876, "pitch": 78, "duration": 2, "velocity": 110}, {"time": 3881, "pitch": 82, "duration": 17, "velocity": 120}, {"time": 3881, "pitch": 78, "duration": 16, "velocity": 113}, {"time": 3959, "pitch": 71, "duration": 4, "velocity": 109}, {"time": 3965, "pitch": 74, "duration": 3, "velocity": 115}, {"time": 3970, "pitch": 78, "duration": 6, "velocity": 120}, {"time": 3978, "pitch": 76, "duration": 21, "velocity": 109}, {"time": 4056, "pitch": 78, "duration": 4, "velocity": 117}, {"time": 4062, "pitch": 76, "duration": 4, "velocity": 112}, {"time": 4068, "pitch": 74, "duration": 4, "velocity": 109}, {"time": 4073, "pitch": 71, "duration": 20, "velocity": 112}, {"time": 4157, "pitch": 74, "duration": 8, "velocity": 115}, {"time": 4169, "pitch": 71, "duration": 3, "velocity": 115}, {"time": 4174, "pitch": 69, "duration": 3, "velocity": 104}, {"time": 4180, "pitch": 66, "duration": 13, "velocity": 117}, {"time": 4288, "pitch": 78, "duration": 10, "velocity": 112}, {"time": 4300, "pitch": 71, "duration": 3, "velocity": 115}, {"time": 4306, "pitch": 78, "duration": 17, "velocity": 104}, {"time": 4330, "pitch": 78, "duration": 5, "velocity": 118}, {"time": 4336, "pitch": 76, "duration": 4, "velocity": 115}, {"time": 4342, "pitch": 71, "duration": 3, "velocity": 118}, {"time": 4348, "pitch": 74, "duration": 3, "velocity": 112}, {"time": 4354, "pitch": 76, "duration": 17, "velocity": 118}, {"time": 4384, "pitch": 76, "duration": 8, "velocity": 115}, {"time": 4396, "pitch": 69, "duration": 3, "velocity": 115}, {"time": 4402, "pitch": 76, "duration": 8, "velocity": 118}, {"time": 4414, "pitch": 69, "duration": 6, "velocity": 115}, {"time": 4426, "pitch": 79, "duration": 3, "velocity": 118}, {"time": 4432, "pitch": 78, "duration": 2, "velocity": 109}, {"time": 4438, "pitch": 74, "duration": 3, "velocity": 106}, {"time": 4444, "pitch": 76, "duration": 3, "velocity": 115}, {"time": 4450, "pitch": 78, "duration": 18, "velocity": 115}, {"time": 4480, "pitch": 78, "duration": 10, "velocity": 112}, {"time": 4492, "pitch": 71, "duration": 3, "velocity": 115}, {"time": 4498, "pitch": 78, "duration": 17, "velocity": 104}, {"time": 4522, "pitch": 78, "duration": 5, "velocity": 118}, {"time": 4528, "pitch": 76, "duration": 4, "velocity": 115}, {"time": 4534, "pitch": 71, "duration": 3, "velocity": 118}, {"time": 4540, "pitch": 74, "duration": 3, "velocity": 112}, {"time": 4546, "pitch": 76, "duration": 17, "velocity": 118}, {"time": 4576, "pitch": 76, "duration": 9, "velocity": 115}, {"time": 4588, "pitch": 73, "duration": 5, "velocity": 109}, {"time": 4594, "pitch": 76, "duration": 3, "velocity": 109}, {"time": 4600, "pitch": 74, "duration": 7, "velocity": 109}, {"time": 4612, "pitch": 73, "duration": 7, "velocity": 118}, {"time": 4624, "pitch": 71, "duration": 11, "velocity": 112}, {"time": 4672, "pitch": 71, "duration": 5, "velocity": 94}, {"time": 4678, "pitch": 78, "duration": 13, "velocity": 89}, {"time": 4690, "pitch": 71, "duration": 7, "velocity": 99}, {"time": 4696, "pitch": 78, "duration": 13, "velocity": 91}, {"time": 4708, "pitch": 71, "duration": 9, "velocity": 94}, {"time": 4720, "pitch": 71, "duration": 5, "velocity": 94}, {"time": 4726, "pitch": 79, "duration": 13, "velocity": 99}, {"time": 4738, "pitch": 71, "duration": 7, "velocity": 85}, {"time": 4744, "pitch": 79, "duration": 16, "velocity": 101}, {"time": 4756, "pitch": 71, "duration": 22, "velocity": 82}, {"time": 4780, "pitch": 76, "duration": 8, "velocity": 94}, {"time": 4786, "pitch": 69, "duration": 13, "velocity": 101}, {"time": 4798, "pitch": 76, "duration": 12, "velocity": 94}, {"time": 4804, "pitch": 69, "duration": 9, "velocity": 89}, {"time": 4816, "pitch": 78, "duration": 12, "velocity": 91}, {"time": 4828, "pitch": 71, "duration": 8, "velocity": 87}, {"time": 4834, "pitch": 78, "duration": 12, "velocity": 94}, {"time": 4846, "pitch": 71, "duration": 7, "velocity": 80}, {"time": 4852, "pitch": 78, "duration": 9, "velocity": 94}, {"time": 4864, "pitch": 71, "duration": 6, "velocity": 99}, {"time": 4870, "pitch": 78, "duration": 11, "velocity": 89}, {"time": 4882, "pitch": 71, "duration": 6, "velocity": 91}, {"time": 4888, "pitch": 78, "duration": 14, "velocity": 71}, {"time": 4900, "pitch": 71, "duration": 10, "velocity": 99}, {"time": 4912, "pitch": 78, "duration": 11, "velocity": 89}, {"time": 4924, "pitch": 73, "duration": 8, "velocity": 85}, {"time": 4930, "pitch": 78, "duration": 10, "velocity": 91}, {"time": 4948, "pitch": 78, "duration": 9, "velocity": 96}, {"time": 4960, "pitch": 71, "duration": 6, "velocity": 94}, {"time": 4966, "pitch": 79, "duration": 11, "velocity": 101}, {"time": 4978, "pitch": 71, "duration": 6, "velocity": 96}, {"time": 4984, "pitch": 79, "duration": 14, "velocity": 109}, {"time": 5008, "pitch": 73, "duration": 3, "velocity": 87}, {"time": 5008, "pitch": 78, "duration": 2, "velocity": 82}, {"time": 5014, "pitch": 73, "duration": 3, "velocity": 80}, {"time": 5014, "pitch": 78, "duration": 3, "velocity": 82}, {"time": 5020, "pitch": 73, "duration": 3, "velocity": 89}, {"time": 5020, "pitch": 78, "duration": 2, "velocity": 89}, {"time": 5026, "pitch": 73, "duration": 3, "velocity": 96}, {"time": 5026, "pitch": 78, "duration": 3, "velocity": 101}, {"time": 5032, "pitch": 73, "duration": 2, "velocity": 99}, {"time": 5032, "pitch": 78, "duration": 3, "velocity": 104}, {"time": 5038, "pitch": 73, "duration": 3, "velocity": 101}, {"time": 5038, "pitch": 78, "duration": 3, "velocity": 104}, {"time": 5044, "pitch": 73, "duration": 3, "velocity": 109}, {"time": 5044, "pitch": 78, "duration": 3, "velocity": 109}, {"time": 5050, "pitch": 73, "duration": 3, "velocity": 106}, {"time": 5050, "pitch": 78, "duration": 3, "velocity": 106}]}, {"program": 0, "is_drum": false, "name": "PIANO", "notes": [{"time": 16, "pitch": 47, "duration": 45, "velocity": 104}, {"time": 16, "pitch": 59, "duration": 13, "velocity": 99}, {"time": 16, "pitch": 62, "duration": 13, "velocity": 94}, {"time": 28, "pitch": 54, "duration": 12, "velocity": 64}, {"time": 34, "pitch": 59, "duration": 15, "velocity": 109}, {"time": 34, "pitch": 62, "duration": 16, "velocity": 104}, {"time": 46, "pitch": 54, "duration": 11, "velocity": 85}, {"time": 52, "pitch": 59, "duration": 6, "velocity": 94}, {"time": 64, "pitch": 52, "duration": 30, "velocity": 106}, {"time": 64, "pitch": 59, "duration": 15, "velocity": 104}, {"time": 64, "pitch": 64, "duration": 15, "velocity": 109}, {"time": 76, "pitch": 55, "duration": 8, "velocity": 71}, {"time": 82, "pitch": 59, "duration": 8, "velocity": 104}, {"time": 82, "pitch": 64, "duration": 8, "velocity": 109}, {"time": 82, "pitch": 67, "duration": 8, "velocity": 106}, {"time": 88, "pitch": 55, "duration": 5, "velocity": 46}, {"time": 94, "pitch": 59, "duration": 6, "velocity": 104}, {"time": 94, "pitch": 64, "duration": 5, "velocity": 109}, {"time": 112, "pitch": 45, "duration": 31, "velocity": 101}, {"time": 112, "pitch": 57, "duration": 14, "velocity": 99}, {"time": 112, "pitch": 61, "duration": 14, "velocity": 101}, {"time": 130, "pitch": 57, "duration": 8, "velocity": 106}, {"time": 130, "pitch": 61, "duration": 8, "velocity": 106}, {"time": 130, "pitch": 64, "duration": 8, "velocity": 106}, {"time": 142, "pitch": 57, "duration": 5, "velocity": 104}, {"time": 142, "pitch": 61, "duration": 4, "velocity": 104}, {"time": 142, "pitch": 64, "duration": 4, "velocity": 106}, {"time": 160, "pitch": 42, "duration": 31, "velocity": 106}, {"time": 160, "pitch": 54, "duration": 11, "velocity": 94}, {"time": 160, "pitch": 58, "duration": 12, "velocity": 101}, {"time": 160, "pitch": 61, "duration": 11, "velocity": 99}, {"time": 172, "pitch": 49, "duration": 7, "velocity": 67}, {"time": 178, "pitch": 54, "duration": 6, "velocity": 101}, {"time": 178, "pitch": 58, "duration": 6, "velocity": 101}, {"time": 178, "pitch": 66, "duration": 7, "velocity": 104}, {"time": 184, "pitch": 49, "duration": 6, "velocity": 85}, {"time": 190, "pitch": 54, "duration": 5, "velocity": 101}, {"time": 190, "pitch": 58, "duration": 6, "velocity": 113}, {"time": 190, "pitch": 61, "duration": 8, "velocity": 106}, {"time": 196, "pitch": 49, "duration": 3, "velocity": 89}, {"time": 202, "pitch": 54, "duration": 2, "velocity": 85}, {"time": 208, "pitch": 47, "duration": 32, "velocity": 106}, {"time": 208, "pitch": 59, "duration": 8, "velocity": 99}, {"time": 208, "pitch": 62, "duration": 9, "velocity": 101}, {"time": 214, "pitch": 54, "duration": 13, "velocity": 78}, {"time": 220, "pitch": 59, "duration": 2, "velocity": 91}, {"time": 226, "pitch": 59, "duration": 6, "velocity": 109}, {"time": 226, "pitch": 66, "duration": 6, "velocity": 104}, {"time": 238, "pitch": 59, "duration": 4, "velocity": 112}, {"time": 238, "pitch": 62, "duration": 4, "velocity": 109}, {"time": 256, "pitch": 52, "duration": 23, "velocity": 104}, {"time": 256, "pitch": 64, "duration": 6, "velocity": 109}, {"time": 256, "pitch": 67, "duration": 7, "velocity": 106}, {"time": 262, "pitch": 59, "duration": 13, "velocity": 94}, {"time": 268, "pitch": 64, "duration": 3, "velocity": 109}, {"time": 274, "pitch": 64, "duration": 7, "velocity": 109}, {"time": 274, "pitch": 67, "duration": 7, "velocity": 109}, {"time": 280, "pitch": 59, "duration": 6, "velocity": 89}, {"time": 286, "pitch": 64, "duration": 4, "velocity": 112}, {"time": 286, "pitch": 67, "duration": 4, "velocity": 115}, {"time": 304, "pitch": 54, "duration": 20, "velocity": 106}, {"time": 304, "pitch": 64, "duration": 9, "velocity": 109}, {"time": 304, "pitch": 70, "duration": 9, "velocity": 113}, {"time": 310, "pitch": 61, "duration": 13, "velocity": 85}, {"time": 316, "pitch": 64, "duration": 3, "velocity": 87}, {"time": 322, "pitch": 64, "duration": 9, "velocity": 109}, {"time": 322, "pitch": 70, "duration": 9, "velocity": 117}, {"time": 334, "pitch": 64, "duration": 5, "velocity": 112}, {"time": 334, "pitch": 70, "duration": 4, "velocity": 120}, {"time": 352, "pitch": 47, "duration": 39, "velocity": 104}, {"time": 352, "pitch": 59, "duration": 14, "velocity": 106}, {"time": 352, "pitch": 62, "duration": 15, "velocity": 104}, {"time": 364, "pitch": 54, "duration": 26, "velocity": 71}, {"time": 370, "pitch": 59, "duration": 20, "velocity": 106}, {"time": 370, "pitch": 62, "duration": 20, "velocity": 106}, {"time": 370, "pitch": 66, "duration": 20, "velocity": 106}, {"time": 400, "pitch": 47, "duration": 46, "velocity": 106}, {"time": 400, "pitch": 59, "duration": 14, "velocity": 106}, {"time": 400, "pitch": 62, "duration": 15, "velocity": 101}, {"time": 412, "pitch": 54, "duration": 22, "velocity": 66}, {"time": 418, "pitch": 59, "duration": 5, "velocity": 106}, {"time": 418, "pitch": 62, "duration": 5, "velocity": 104}, {"time": 418, "pitch": 66, "duration": 5, "velocity": 104}, {"time": 430, "pitch": 59, "duration": 10, "velocity": 106}, {"time": 430, "pitch": 62, "duration": 15, "velocity": 104}, {"time": 442, "pitch": 59, "duration": 3, "velocity": 101}, {"time": 448, "pitch": 47, "duration": 40, "velocity": 104}, {"time": 448, "pitch": 59, "duration": 13, "velocity": 106}, {"time": 448, "pitch": 62, "duration": 14, "velocity": 101}, {"time": 460, "pitch": 54, "duration": 7, "velocity": 34}, {"time": 466, "pitch": 59, "duration": 6, "velocity": 109}, {"time": 466, "pitch": 62, "duration": 6, "velocity": 109}, {"time": 466, "pitch": 66, "duration": 5, "velocity": 104}, {"time": 472, "pitch": 54, "duration": 8, "velocity": 54}, {"time": 478, "pitch": 59, "duration": 8, "velocity": 112}, {"time": 478, "pitch": 62, "duration": 8, "velocity": 106}, {"time": 484, "pitch": 54, "duration": 2, "velocity": 74}, {"time": 496, "pitch": 43, "duration": 44, "velocity": 106}, {"time": 496, "pitch": 55, "duration": 14, "velocity": 104}, {"time": 496, "pitch": 59, "duration": 15, "velocity": 109}, {"time": 508, "pitch": 50, "duration": 8, "velocity": 59}, {"time": 514, "pitch": 55, "duration": 5, "velocity": 109}, {"time": 514, "pitch": 59, "duration": 5, "velocity": 112}, {"time": 520, "pitch": 50, "duration": 5, "velocity": 45}, {"time": 526, "pitch": 55, "duration": 12, "velocity": 109}, {"time": 526, "pitch": 59, "duration": 10, "velocity": 109}, {"time": 544, "pitch": 42, "duration": 34, "velocity": 104}, {"time": 544, "pitch": 54, "duration": 15, "velocity": 94}, {"time": 544, "pitch": 57, "duration": 15, "velocity": 96}, {"time": 556, "pitch": 49, "duration": 5, "velocity": 22}, {"time": 562, "pitch": 54, "duration": 7, "velocity": 101}, {"time": 562, "pitch": 57, "duration": 8, "velocity": 106}, {"time": 562, "pitch": 61, "duration": 7, "velocity": 106}, {"time": 568, "pitch": 49, "duration": 7, "velocity": 71}, {"time": 574, "pitch": 54, "duration": 6, "velocity": 112}, {"time": 574, "pitch": 57, "duration": 6, "velocity": 115}, {"time": 592, "pitch": 47, "duration": 34, "velocity": 106}, {"time": 592, "pitch": 59, "duration": 14, "velocity": 104}, {"time": 592, "pitch": 62, "duration": 14, "velocity": 96}, {"time": 604, "pitch": 54, "duration": 7, "velocity": 62}, {"time": 610, "pitch": 59, "duration": 6, "velocity": 106}, {"time": 610, "pitch": 62, "duration": 5, "velocity": 109}, {"time": 610, "pitch": 66, "duration": 5, "velocity": 104}, {"time": 616, "pitch": 54, "duration": 8, "velocity": 69}, {"time": 622, "pitch": 59, "duration": 5, "velocity": 109}, {"time": 622, "pitch": 62, "duration": 5, "velocity": 109}, {"time": 640, "pitch": 52, "duration": 41, "velocity": 106}, {"time": 640, "pitch": 59, "duration": 15, "velocity": 106}, {"time": 640, "pitch": 64, "duration": 14, "velocity": 109}, {"time": 652, "pitch": 55, "duration": 8, "velocity": 51}, {"time": 658, "pitch": 59, "duration": 7, "velocity": 115}, {"time": 658, "pitch": 67, "duration": 6, "velocity": 109}, {"time": 664, "pitch": 55, "duration": 16, "velocity": 61}, {"time": 670, "pitch": 59, "duration": 5, "velocity": 115}, {"time": 670, "pitch": 64, "duration": 7, "velocity": 115}, {"time": 682, "pitch": 59, "duration": 2, "velocity": 106}, {"time": 688, "pitch": 45, "duration": 32, "velocity": 104}, {"time": 688, "pitch": 57, "duration": 9, "velocity": 106}, {"time": 688, "pitch": 61, "duration": 15, "velocity": 112}, {"time": 694, "pitch": 52, "duration": 13, "velocity": 71}, {"time": 700, "pitch": 57, "duration": 2, "velocity": 78}, {"time": 706, "pitch": 57, "duration": 8, "velocity": 109}, {"time": 706, "pitch": 61, "duration": 8, "velocity": 109}, {"time": 706, "pitch": 64, "duration": 7, "velocity": 109}, {"time": 712, "pitch": 52, "duration": 7, "velocity": 87}, {"time": 718, "pitch": 57, "duration": 6, "velocity": 109}, {"time": 718, "pitch": 61, "duration": 5, "velocity": 112}, {"time": 718, "pitch": 64, "duration": 5, "velocity": 112}, {"time": 724, "pitch": 45, "duration": 2, "velocity": 78}, {"time": 736, "pitch": 42, "duration": 33, "velocity": 94}, {"time": 736, "pitch": 54, "duration": 8, "velocity": 104}, {"time": 736, "pitch": 58, "duration": 10, "velocity": 107}, {"time": 742, "pitch": 49, "duration": 12, "velocity": 54}, {"time": 748, "pitch": 54, "duration": 3, "velocity": 101}, {"time": 754, "pitch": 54, "duration": 7, "velocity": 109}, {"time": 754, "pitch": 58, "duration": 6, "velocity": 120}, {"time": 754, "pitch": 66, "duration": 6, "velocity": 109}, {"time": 760, "pitch": 49, "duration": 7, "velocity": 87}, {"time": 766, "pitch": 54, "duration": 11, "velocity": 109}, {"time": 766, "pitch": 58, "duration": 11, "velocity": 120}, {"time": 766, "pitch": 61, "duration": 12, "velocity": 109}, {"time": 772, "pitch": 42, "duration": 3, "velocity": 73}, {"time": 772, "pitch": 49, "duration": 4, "velocity": 94}, {"time": 784, "pitch": 47, "duration": 46, "velocity": 106}, {"time": 784, "pitch": 59, "duration": 14, "velocity": 106}, {"time": 784, "pitch": 62, "duration": 15, "velocity": 101}, {"time": 796, "pitch": 54, "duration": 22, "velocity": 66}, {"time": 802, "pitch": 59, "duration": 5, "velocity": 106}, {"time": 802, "pitch": 62, "duration": 5, "velocity": 104}, {"time": 802, "pitch": 66, "duration": 5, "velocity": 104}, {"time": 814, "pitch": 59, "duration": 10, "velocity": 106}, {"time": 814, "pitch": 62, "duration": 15, "velocity": 104}, {"time": 826, "pitch": 59, "duration": 3, "velocity": 101}, {"time": 832, "pitch": 47, "duration": 40, "velocity": 104}, {"time": 832, "pitch": 59, "duration": 13, "velocity": 106}, {"time": 832, "pitch": 62, "duration": 14, "velocity": 101}, {"time": 844, "pitch": 54, "duration": 7, "velocity": 34}, {"time": 850, "pitch": 59, "duration": 6, "velocity": 109}, {"time": 850, "pitch": 62, "duration": 6, "velocity": 109}, {"time": 850, "pitch": 66, "duration": 5, "velocity": 104}, {"time": 856, "pitch": 54, "duration": 8, "velocity": 54}, {"time": 862, "pitch": 59, "duration": 8, "velocity": 112}, {"time": 862, "pitch": 62, "duration": 8, "velocity": 106}, {"time": 868, "pitch": 54, "duration": 2, "velocity": 74}, {"time": 880, "pitch": 43, "duration": 44, "velocity": 106}, {"time": 880, "pitch": 55, "duration": 14, "velocity": 104}, {"time": 880, "pitch": 59, "duration": 15, "velocity": 109}, {"time": 892, "pitch": 50, "duration": 8, "velocity": 59}, {"time": 898, "pitch": 55, "duration": 5, "velocity": 109}, {"time": 898, "pitch": 59, "duration": 5, "velocity": 112}, {"time": 904, "pitch": 50, "duration": 5, "velocity": 45}, {"time": 910, "pitch": 55, "duration": 12, "velocity": 109}, {"time": 910, "pitch": 59, "duration": 10, "velocity": 109}, {"time": 928, "pitch": 42, "duration": 34, "velocity": 104}, {"time": 928, "pitch": 54, "duration": 15, "velocity": 94}, {"time": 928, "pitch": 57, "duration": 15, "velocity": 96}, {"time": 940, "pitch": 49, "duration": 5, "velocity": 22}, {"time": 946, "pitch": 54, "duration": 7, "velocity": 101}, {"time": 946, "pitch": 57, "duration": 8, "velocity": 106}, {"time": 946, "pitch": 61, "duration": 7, "velocity": 106}, {"time": 952, "pitch": 49, "duration": 7, "velocity": 71}, {"time": 958, "pitch": 54, "duration": 6, "velocity": 112}, {"time": 958, "pitch": 57, "duration": 6, "velocity": 115}, {"time": 976, "pitch": 47, "duration": 34, "velocity": 106}, {"time": 976, "pitch": 59, "duration": 14, "velocity": 104}, {"time": 976, "pitch": 62, "duration": 14, "velocity": 96}, {"time": 988, "pitch": 54, "duration": 7, "velocity": 62}, {"time": 994, "pitch": 59, "duration": 6, "velocity": 106}, {"time": 994, "pitch": 62, "duration": 5, "velocity": 109}, {"time": 994, "pitch": 66, "duration": 5, "velocity": 104}, {"time": 1000, "pitch": 54, "duration": 8, "velocity": 69}, {"time": 1006, "pitch": 59, "duration": 5, "velocity": 109}, {"time": 1006, "pitch": 62, "duration": 5, "velocity": 109}, {"time": 1024, "pitch": 52, "duration": 41, "velocity": 106}, {"time": 1024, "pitch": 59, "duration": 15, "velocity": 106}, {"time": 1024, "pitch": 64, "duration": 14, "velocity": 109}, {"time": 1036, "pitch": 55, "duration": 8, "velocity": 51}, {"time": 1042, "pitch": 59, "duration": 7, "velocity": 115}, {"time": 1042, "pitch": 67, "duration": 6, "velocity": 109}, {"time": 1048, "pitch": 55, "duration": 16, "velocity": 61}, {"time": 1054, "pitch": 59, "duration": 5, "velocity": 115}, {"time": 1054, "pitch": 64, "duration": 7, "velocity": 115}, {"time": 1066, "pitch": 59, "duration": 2, "velocity": 106}, {"time": 1072, "pitch": 45, "duration": 17, "velocity": 104}, {"time": 1072, "pitch": 57, "duration": 7, "velocity": 104}, {"time": 1072, "pitch": 61, "duration": 8, "velocity": 106}, {"time": 1078, "pitch": 52, "duration": 8, "velocity": 82}, {"time": 1084, "pitch": 57, "duration": 3, "velocity": 115}, {"time": 1090, "pitch": 57, "duration": 8, "velocity": 115}, {"time": 1090, "pitch": 61, "duration": 8, "velocity": 118}, {"time": 1096, "pitch": 42, "duration": 14, "velocity": 96}, {"time": 1102, "pitch": 49, "duration": 7, "velocity": 94}, {"time": 1108, "pitch": 54, "duration": 3, "velocity": 112}, {"time": 1108, "pitch": 57, "duration": 7, "velocity": 115}, {"time": 1114, "pitch": 54, "duration": 2, "velocity": 104}, {"time": 1120, "pitch": 47, "duration": 39, "velocity": 104}, {"time": 1120, "pitch": 59, "duration": 13, "velocity": 104}, {"time": 1120, "pitch": 62, "duration": 14, "velocity": 104}, {"time": 1132, "pitch": 54, "duration": 8, "velocity": 99}, {"time": 1138, "pitch": 59, "duration": 7, "velocity": 109}, {"time": 1138, "pitch": 62, "duration": 7, "velocity": 112}, {"time": 1138, "pitch": 66, "duration": 7, "velocity": 109}, {"time": 1144, "pitch": 54, "duration": 7, "velocity": 99}, {"time": 1150, "pitch": 59, "duration": 6, "velocity": 115}, {"time": 1150, "pitch": 62, "duration": 7, "velocity": 115}, {"time": 1156, "pitch": 54, "duration": 3, "velocity": 91}, {"time": 1162, "pitch": 59, "duration": 4, "velocity": 106}, {"time": 1168, "pitch": 47, "duration": 34, "velocity": 101}, {"time": 1168, "pitch": 59, "duration": 13, "velocity": 106}, {"time": 1168, "pitch": 62, "duration": 14, "velocity": 109}, {"time": 1180, "pitch": 54, "duration": 8, "velocity": 99}, {"time": 1186, "pitch": 59, "duration": 9, "velocity": 115}, {"time": 1186, "pitch": 62, "duration": 9, "velocity": 115}, {"time": 1186, "pitch": 66, "duration": 7, "velocity": 112}, {"time": 1192, "pitch": 54, "duration": 9, "velocity": 96}, {"time": 1198, "pitch": 59, "duration": 11, "velocity": 118}, {"time": 1198, "pitch": 62, "duration": 11, "velocity": 118}, {"time": 1204, "pitch": 47, "duration": 5, "velocity": 99}, {"time": 1204, "pitch": 54, "duration": 5, "velocity": 101}, {"time": 1216, "pitch": 47, "duration": 46, "velocity": 106}, {"time": 1216, "pitch": 59, "duration": 14, "velocity": 109}, {"time": 1216, "pitch": 62, "duration": 13, "velocity": 109}, {"time": 1228, "pitch": 54, "duration": 21, "velocity": 71}, {"time": 1234, "pitch": 59, "duration": 7, "velocity": 112}, {"time": 1234, "pitch": 62, "duration": 7, "velocity": 115}, {"time": 1234, "pitch": 66, "duration": 6, "velocity": 109}, {"time": 1246, "pitch": 59, "duration": 8, "velocity": 112}, {"time": 1246, "pitch": 62, "duration": 9, "velocity": 115}, {"time": 1246, "pitch": 66, "duration": 9, "velocity": 112}, {"time": 1252, "pitch": 54, "duration": 8, "velocity": 80}, {"time": 1258, "pitch": 59, "duration": 3, "velocity": 109}, {"time": 1264, "pitch": 52, "duration": 40, "velocity": 104}, {"time": 1264, "pitch": 59, "duration": 14, "velocity": 109}, {"time": 1264, "pitch": 64, "duration": 14, "velocity": 112}, {"time": 1276, "pitch": 55, "duration": 9, "velocity": 82}, {"time": 1282, "pitch": 59, "duration": 8, "velocity": 118}, {"time": 1282, "pitch": 64, "duration": 7, "velocity": 115}, {"time": 1282, "pitch": 67, "duration": 7, "velocity": 112}, {"time": 1288, "pitch": 55, "duration": 15, "velocity": 80}, {"time": 1294, "pitch": 59, "duration": 7, "velocity": 115}, {"time": 1294, "pitch": 64, "duration": 8, "velocity": 118}, {"time": 1306, "pitch": 59, "duration": 3, "velocity": 109}, {"time": 1312, "pitch": 45, "duration": 34, "velocity": 106}, {"time": 1312, "pitch": 57, "duration": 9, "velocity": 112}, {"time": 1312, "pitch": 61, "duration": 10, "velocity": 109}, {"time": 1318, "pitch": 52, "duration": 13, "velocity": 91}, {"time": 1330, "pitch": 57, "duration": 8, "velocity": 115}, {"time": 1330, "pitch": 61, "duration": 8, "velocity": 115}, {"time": 1330, "pitch": 64, "duration": 7, "velocity": 112}, {"time": 1336, "pitch": 52, "duration": 8, "velocity": 91}, {"time": 1342, "pitch": 57, "duration": 7, "velocity": 109}, {"time": 1342, "pitch": 61, "duration": 8, "velocity": 109}, {"time": 1354, "pitch": 57, "duration": 2, "velocity": 101}, {"time": 1360, "pitch": 47, "duration": 45, "velocity": 106}, {"time": 1360, "pitch": 59, "duration": 14, "velocity": 112}, {"time": 1360, "pitch": 62, "duration": 14, "velocity": 109}, {"time": 1372, "pitch": 54, "duration": 8, "velocity": 78}, {"time": 1378, "pitch": 59, "duration": 7, "velocity": 112}, {"time": 1378, "pitch": 62, "duration": 6, "velocity": 112}, {"time": 1378, "pitch": 66, "duration": 6, "velocity": 109}, {"time": 1384, "pitch": 54, "duration": 7, "velocity": 94}, {"time": 1390, "pitch": 59, "duration": 8, "velocity": 112}, {"time": 1390, "pitch": 62, "duration": 9, "velocity": 112}, {"time": 1396, "pitch": 54, "duration": 8, "velocity": 91}, {"time": 1402, "pitch": 61, "duration": 4, "velocity": 112}, {"time": 1408, "pitch": 47, "duration": 32, "velocity": 104}, {"time": 1408, "pitch": 59, "duration": 8, "velocity": 106}, {"time": 1408, "pitch": 62, "duration": 9, "velocity": 106}, {"time": 1414, "pitch": 54, "duration": 12, "velocity": 74}, {"time": 1420, "pitch": 59, "duration": 3, "velocity": 109}, {"time": 1426, "pitch": 59, "duration": 6, "velocity": 115}, {"time": 1426, "pitch": 66, "duration": 6, "velocity": 109}, {"time": 1432, "pitch": 54, "duration": 8, "velocity": 91}, {"time": 1438, "pitch": 59, "duration": 7, "velocity": 112}, {"time": 1438, "pitch": 62, "duration": 8, "velocity": 115}, {"time": 1444, "pitch": 47, "duration": 3, "velocity": 71}, {"time": 1456, "pitch": 42, "duration": 24, "velocity": 109}, {"time": 1456, "pitch": 54, "duration": 19, "velocity": 109}, {"time": 1456, "pitch": 61, "duration": 13, "velocity": 101}, {"time": 1456, "pitch": 66, "duration": 13, "velocity": 96}, {"time": 1456, "pitch": 69, "duration": 6, "velocity": 96}, {"time": 1468, "pitch": 57, "duration": 7, "velocity": 76}, {"time": 1474, "pitch": 61, "duration": 7, "velocity": 109}, {"time": 1474, "pitch": 69, "duration": 6, "velocity": 99}, {"time": 1480, "pitch": 54, "duration": 6, "velocity": 48}, {"time": 1480, "pitch": 57, "duration": 8, "velocity": 91}, {"time": 1486, "pitch": 61, "duration": 5, "velocity": 115}, {"time": 1486, "pitch": 66, "duration": 7, "velocity": 112}, {"time": 1492, "pitch": 54, "duration": 2, "velocity": 87}, {"time": 1498, "pitch": 61, "duration": 2, "velocity": 112}, {"time": 1504, "pitch": 43, "duration": 40, "velocity": 106}, {"time": 1504, "pitch": 55, "duration": 7, "velocity": 112}, {"time": 1504, "pitch": 59, "duration": 9, "velocity": 112}, {"time": 1510, "pitch": 50, "duration": 13, "velocity": 73}, {"time": 1516, "pitch": 55, "duration": 3, "velocity": 104}, {"time": 1522, "pitch": 55, "duration": 10, "velocity": 118}, {"time": 1522, "pitch": 59, "duration": 10, "velocity": 118}, {"time": 1528, "pitch": 50, "duration": 9, "velocity": 89}, {"time": 1534, "pitch": 55, "duration": 7, "velocity": 115}, {"time": 1534, "pitch": 59, "duration": 8, "velocity": 118}, {"time": 1540, "pitch": 50, "duration": 4, "velocity": 87}, {"time": 1546, "pitch": 55, "duration": 3, "velocity": 104}, {"time": 1552, "pitch": 42, "duration": 21, "velocity": 106}, {"time": 1558, "pitch": 54, "duration": 2, "velocity": 99}, {"time": 1558, "pitch": 58, "duration": 2, "velocity": 96}, {"time": 1564, "pitch": 54, "duration": 2, "velocity": 101}, {"time": 1564, "pitch": 58, "duration": 3, "velocity": 117}, {"time": 1570, "pitch": 54, "duration": 8, "velocity": 115}, {"time": 1570, "pitch": 58, "duration": 7, "velocity": 123}, {"time": 1570, "pitch": 61, "duration": 9, "velocity": 115}, {"time": 1576, "pitch": 42, "duration": 10, "velocity": 99}, {"time": 1576, "pitch": 49, "duration": 9, "velocity": 106}, {"time": 1582, "pitch": 54, "duration": 8, "velocity": 112}, {"time": 1582, "pitch": 58, "duration": 9, "velocity": 123}, {"time": 1582, "pitch": 61, "duration": 10, "velocity": 112}, {"time": 1582, "pitch": 66, "duration": 16, "velocity": 109}, {"time": 1588, "pitch": 42, "duration": 5, "velocity": 101}, {"time": 1594, "pitch": 54, "duration": 3, "velocity": 106}, {"time": 1594, "pitch": 61, "duration": 2, "velocity": 20}, {"time": 1600, "pitch": 47, "duration": 46, "velocity": 106}, {"time": 1600, "pitch": 59, "duration": 14, "velocity": 109}, {"time": 1600, "pitch": 62, "duration": 13, "velocity": 109}, {"time": 1612, "pitch": 54, "duration": 21, "velocity": 71}, {"time": 1618, "pitch": 59, "duration": 7, "velocity": 112}, {"time": 1618, "pitch": 62, "duration": 7, "velocity": 115}, {"time": 1618, "pitch": 66, "duration": 6, "velocity": 109}, {"time": 1630, "pitch": 59, "duration": 8, "velocity": 112}, {"time": 1630, "pitch": 62, "duration": 9, "velocity": 115}, {"time": 1630, "pitch": 66, "duration": 9, "velocity": 112}, {"time": 1636, "pitch": 54, "duration": 8, "velocity": 80}, {"time": 1642, "pitch": 59, "duration": 3, "velocity": 109}, {"time": 1648, "pitch": 52, "duration": 40, "velocity": 104}, {"time": 1648, "pitch": 59, "duration": 14, "velocity": 109}, {"time": 1648, "pitch": 64, "duration": 14, "velocity": 112}, {"time": 1660, "pitch": 55, "duration": 9, "velocity": 82}, {"time": 1666, "pitch": 59, "duration": 8, "velocity": 118}, {"time": 1666, "pitch": 64, "duration": 7, "velocity": 115}, {"time": 1666, "pitch": 67, "duration": 7, "velocity": 112}, {"time": 1672, "pitch": 55, "duration": 15, "velocity": 80}, {"time": 1678, "pitch": 59, "duration": 7, "velocity": 115}, {"time": 1678, "pitch": 64, "duration": 8, "velocity": 118}, {"time": 1690, "pitch": 59, "duration": 3, "velocity": 109}, {"time": 1696, "pitch": 45, "duration": 34, "velocity": 106}, {"time": 1696, "pitch": 57, "duration": 9, "velocity": 112}, {"time": 1696, "pitch": 61, "duration": 10, "velocity": 109}, {"time": 1702, "pitch": 52, "duration": 13, "velocity": 91}, {"time": 1714, "pitch": 57, "duration": 8, "velocity": 115}, {"time": 1714, "pitch": 61, "duration": 8, "velocity": 115}, {"time": 1714, "pitch": 64, "duration": 7, "velocity": 112}, {"time": 1720, "pitch": 52, "duration": 8, "velocity": 91}, {"time": 1726, "pitch": 57, "duration": 7, "velocity": 109}, {"time": 1726, "pitch": 61, "duration": 8, "velocity": 109}, {"time": 1738, "pitch": 57, "duration": 2, "velocity": 101}, {"time": 1744, "pitch": 47, "duration": 45, "velocity": 106}, {"time": 1744, "pitch": 59, "duration": 14, "velocity": 112}, {"time": 1744, "pitch": 62, "duration": 14, "velocity": 109}, {"time": 1756, "pitch": 54, "duration": 8, "velocity": 78}, {"time": 1762, "pitch": 59, "duration": 7, "velocity": 112}, {"time": 1762, "pitch": 62, "duration": 6, "velocity": 112}, {"time": 1762, "pitch": 66, "duration": 6, "velocity": 109}, {"time": 1768, "pitch": 54, "duration": 7, "velocity": 94}, {"time": 1774, "pitch": 59, "duration": 8, "velocity": 112}, {"time": 1774, "pitch": 62, "duration": 9, "velocity": 112}, {"time": 1780, "pitch": 54, "duration": 8, "velocity": 91}, {"time": 1786, "pitch": 61, "duration": 4, "velocity": 112}, {"time": 1792, "pitch": 47, "duration": 32, "velocity": 104}, {"time": 1792, "pitch": 59, "duration": 8, "velocity": 106}, {"time": 1792, "pitch": 62, "duration": 9, "velocity": 106}, {"time": 1798, "pitch": 54, "duration": 12, "velocity": 74}, {"time": 1804, "pitch": 59, "duration": 3, "velocity": 109}, {"time": 1810, "pitch": 59, "duration": 6, "velocity": 115}, {"time": 1810, "pitch": 66, "duration": 6, "velocity": 109}, {"time": 1816, "pitch": 54, "duration": 8, "velocity": 91}, {"time": 1822, "pitch": 59, "duration": 7, "velocity": 112}, {"time": 1822, "pitch": 62, "duration": 8, "velocity": 115}, {"time": 1828, "pitch": 47, "duration": 3, "velocity": 71}, {"time": 1840, "pitch": 42, "duration": 24, "velocity": 109}, {"time": 1840, "pitch": 54, "duration": 19, "velocity": 109}, {"time": 1840, "pitch": 61, "duration": 13, "velocity": 101}, {"time": 1840, "pitch": 66, "duration": 13, "velocity": 96}, {"time": 1840, "pitch": 69, "duration": 6, "velocity": 96}, {"time": 1852, "pitch": 57, "duration": 7, "velocity": 76}, {"time": 1858, "pitch": 61, "duration": 7, "velocity": 109}, {"time": 1858, "pitch": 69, "duration": 6, "velocity": 99}, {"time": 1864, "pitch": 54, "duration": 6, "velocity": 48}, {"time": 1864, "pitch": 57, "duration": 8, "velocity": 91}, {"time": 1870, "pitch": 61, "duration": 5, "velocity": 115}, {"time": 1870, "pitch": 66, "duration": 7, "velocity": 112}, {"time": 1876, "pitch": 54, "duration": 2, "velocity": 87}, {"time": 1882, "pitch": 61, "duration": 2, "velocity": 112}, {"time": 1888, "pitch": 45, "duration": 18, "velocity": 112}, {"time": 1888, "pitch": 57, "duration": 7, "velocity": 104}, {"time": 1888, "pitch": 61, "duration": 8, "velocity": 109}, {"time": 1888, "pitch": 64, "duration": 8, "velocity": 109}, {"time": 1894, "pitch": 52, "duration": 9, "velocity": 76}, {"time": 1900, "pitch": 57, "duration": 3, "velocity": 115}, {"time": 1906, "pitch": 57, "duration": 8, "velocity": 115}, {"time": 1906, "pitch": 61, "duration": 8, "velocity": 115}, {"time": 1906, "pitch": 64, "duration": 7, "velocity": 112}, {"time": 1912, "pitch": 42, "duration": 16, "velocity": 104}, {"time": 1918, "pitch": 49, "duration": 9, "velocity": 85}, {"time": 1924, "pitch": 54, "duration": 3, "velocity": 109}, {"time": 1924, "pitch": 57, "duration": 8, "velocity": 115}, {"time": 1924, "pitch": 61, "duration": 9, "velocity": 112}, {"time": 1930, "pitch": 54, "duration": 2, "velocity": 104}, {"time": 1936, "pitch": 47, "duration": 45, "velocity": 109}, {"time": 1936, "pitch": 59, "duration": 8, "velocity": 112}, {"time": 1936, "pitch": 62, "duration": 8, "velocity": 112}, {"time": 1942, "pitch": 54, "duration": 14, "velocity": 85}, {"time": 1948, "pitch": 59, "duration": 2, "velocity": 101}, {"time": 1954, "pitch": 59, "duration": 11, "velocity": 112}, {"time": 1954, "pitch": 62, "duration": 10, "velocity": 106}, {"time": 1954, "pitch": 66, "duration": 10, "velocity": 106}, {"time": 1960, "pitch": 54, "duration": 9, "velocity": 106}, {"time": 1966, "pitch": 59, "duration": 16, "velocity": 115}, {"time": 1966, "pitch": 62, "duration": 16, "velocity": 112}, {"time": 1966, "pitch": 66, "duration": 17, "velocity": 112}, {"time": 1972, "pitch": 54, "duration": 4, "velocity": 104}, {"time": 1978, "pitch": 54, "duration": 4, "velocity": 106}, {"time": 1984, "pitch": 47, "duration": 17, "velocity": 109}, {"time": 1984, "pitch": 59, "duration": 4, "velocity": 101}, {"time": 1984, "pitch": 62, "duration": 5, "velocity": 104}, {"time": 1984, "pitch": 66, "duration": 4, "velocity": 101}, {"time": 1990, "pitch": 59, "duration": 5, "velocity": 112}, {"time": 1990, "pitch": 62, "duration": 5, "velocity": 109}, {"time": 1990, "pitch": 66, "duration": 5, "velocity": 106}, {"time": 2002, "pitch": 59, "duration": 5, "velocity": 106}, {"time": 2002, "pitch": 62, "duration": 5, "velocity": 104}, {"time": 2002, "pitch": 66, "duration": 5, "velocity": 106}, {"time": 2014, "pitch": 59, "duration": 7, "velocity": 109}, {"time": 2014, "pitch": 62, "duration": 9, "velocity": 109}, {"time": 2014, "pitch": 66, "duration": 15, "velocity": 106}, {"time": 2026, "pitch": 59, "duration": 4, "velocity": 99}, {"time": 2026, "pitch": 62, "duration": 3, "velocity": 55}, {"time": 2032, "pitch": 47, "duration": 45, "velocity": 109}, {"time": 2032, "pitch": 59, "duration": 4, "velocity": 106}, {"time": 2032, "pitch": 62, "duration": 4, "velocity": 104}, {"time": 2038, "pitch": 59, "duration": 4, "velocity": 106}, {"time": 2038, "pitch": 62, "duration": 4, "velocity": 101}, {"time": 2044, "pitch": 54, "duration": 8, "velocity": 87}, {"time": 2050, "pitch": 59, "duration": 9, "velocity": 115}, {"time": 2050, "pitch": 62, "duration": 8, "velocity": 112}, {"time": 2050, "pitch": 66, "duration": 8, "velocity": 112}, {"time": 2062, "pitch": 59, "duration": 8, "velocity": 112}, {"time": 2062, "pitch": 62, "duration": 9, "velocity": 112}, {"time": 2062, "pitch": 66, "duration": 10, "velocity": 109}, {"time": 2068, "pitch": 54, "duration": 6, "velocity": 76}, {"time": 2074, "pitch": 59, "duration": 4, "velocity": 99}, {"time": 2074, "pitch": 62, "duration": 3, "velocity": 52}, {"time": 2080, "pitch": 47, "duration": 35, "velocity": 109}, {"time": 2080, "pitch": 59, "duration": 4, "velocity": 109}, {"time": 2080, "pitch": 62, "duration": 4, "velocity": 106}, {"time": 2086, "pitch": 59, "duration": 6, "velocity": 109}, {"time": 2086, "pitch": 62, "duration": 6, "velocity": 104}, {"time": 2098, "pitch": 59, "duration": 9, "velocity": 115}, {"time": 2098, "pitch": 62, "duration": 9, "velocity": 112}, {"time": 2098, "pitch": 66, "duration": 9, "velocity": 112}, {"time": 2104, "pitch": 54, "duration": 7, "velocity": 62}, {"time": 2110, "pitch": 59, "duration": 5, "velocity": 115}, {"time": 2110, "pitch": 62, "duration": 7, "velocity": 112}, {"time": 2110, "pitch": 66, "duration": 7, "velocity": 109}, {"time": 2128, "pitch": 42, "duration": 30, "velocity": 106}, {"time": 2128, "pitch": 54, "duration": 7, "velocity": 104}, {"time": 2128, "pitch": 58, "duration": 8, "velocity": 113}, {"time": 2128, "pitch": 61, "duration": 8, "velocity": 101}, {"time": 2134, "pitch": 49, "duration": 13, "velocity": 85}, {"time": 2140, "pitch": 54, "duration": 3, "velocity": 101}, {"time": 2146, "pitch": 54, "duration": 7, "velocity": 109}, {"time": 2146, "pitch": 58, "duration": 7, "velocity": 120}, {"time": 2146, "pitch": 66, "duration": 6, "velocity": 106}, {"time": 2152, "pitch": 49, "duration": 6, "velocity": 82}, {"time": 2158, "pitch": 54, "duration": 5, "velocity": 109}, {"time": 2158, "pitch": 58, "duration": 6, "velocity": 120}, {"time": 2158, "pitch": 61, "duration": 7, "velocity": 115}, {"time": 2158, "pitch": 66, "duration": 8, "velocity": 101}, {"time": 2164, "pitch": 42, "duration": 3, "velocity": 104}, {"time": 2176, "pitch": 47, "duration": 17, "velocity": 109}, {"time": 2176, "pitch": 59, "duration": 4, "velocity": 101}, {"time": 2176, "pitch": 62, "duration": 5, "velocity": 104}, {"time": 2176, "pitch": 66, "duration": 4, "velocity": 101}, {"time": 2182, "pitch": 59, "duration": 5, "velocity": 112}, {"time": 2182, "pitch": 62, "duration": 5, "velocity": 109}, {"time": 2182, "pitch": 66, "duration": 5, "velocity": 106}, {"time": 2194, "pitch": 59, "duration": 5, "velocity": 106}, {"time": 2194, "pitch": 62, "duration": 5, "velocity": 104}, {"time": 2194, "pitch": 66, "duration": 5, "velocity": 106}, {"time": 2206, "pitch": 59, "duration": 7, "velocity": 109}, {"time": 2206, "pitch": 62, "duration": 9, "velocity": 109}, {"time": 2206, "pitch": 66, "duration": 15, "velocity": 106}, {"time": 2218, "pitch": 59, "duration": 4, "velocity": 99}, {"time": 2218, "pitch": 62, "duration": 3, "velocity": 55}, {"time": 2224, "pitch": 47, "duration": 45, "velocity": 109}, {"time": 2224, "pitch": 59, "duration": 4, "velocity": 106}, {"time": 2224, "pitch": 62, "duration": 4, "velocity": 104}, {"time": 2230, "pitch": 59, "duration": 4, "velocity": 106}, {"time": 2230, "pitch": 62, "duration": 4, "velocity": 101}, {"time": 2236, "pitch": 54, "duration": 8, "velocity": 87}, {"time": 2242, "pitch": 59, "duration": 9, "velocity": 115}, {"time": 2242, "pitch": 62, "duration": 8, "velocity": 112}, {"time": 2242, "pitch": 66, "duration": 8, "velocity": 112}, {"time": 2254, "pitch": 59, "duration": 8, "velocity": 112}, {"time": 2254, "pitch": 62, "duration": 9, "velocity": 112}, {"time": 2254, "pitch": 66, "duration": 10, "velocity": 109}, {"time": 2260, "pitch": 54, "duration": 6, "velocity": 76}, {"time": 2266, "pitch": 59, "duration": 4, "velocity": 99}, {"time": 2266, "pitch": 62, "duration": 3, "velocity": 52}, {"time": 2272, "pitch": 47, "duration": 35, "velocity": 109}, {"time": 2272, "pitch": 59, "duration": 4, "velocity": 109}, {"time": 2272, "pitch": 62, "duration": 4, "velocity": 106}, {"time": 2278, "pitch": 59, "duration": 6, "velocity": 109}, {"time": 2278, "pitch": 62, "duration": 6, "velocity": 104}, {"time": 2290, "pitch": 59, "duration": 9, "velocity": 115}, {"time": 2290, "pitch": 62, "duration": 9, "velocity": 112}, {"time": 2290, "pitch": 66, "duration": 9, "velocity": 112}, {"time": 2296, "pitch": 54, "duration": 7, "velocity": 62}, {"time": 2302, "pitch": 59, "duration": 5, "velocity": 115}, {"time": 2302, "pitch": 62, "duration": 7, "velocity": 112}, {"time": 2302, "pitch": 66, "duration": 7, "velocity": 109}, {"time": 2320, "pitch": 42, "duration": 24, "velocity": 112}, {"time": 2320, "pitch": 54, "duration": 23, "velocity": 106}, {"time": 2320, "pitch": 58, "duration": 23, "velocity": 117}, {"time": 2320, "pitch": 61, "duration": 23, "velocity": 106}, {"time": 2368, "pitch": 47, "duration": 45, "velocity": 104}, {"time": 2368, "pitch": 59, "duration": 13, "velocity": 99}, {"time": 2368, "pitch": 62, "duration": 13, "velocity": 94}, {"time": 2380, "pitch": 54, "duration": 12, "velocity": 64}, {"time": 2386, "pitch": 59, "duration": 15, "velocity": 109}, {"time": 2386, "pitch": 62, "duration": 16, "velocity": 104}, {"time": 2398, "pitch": 54, "duration": 11, "velocity": 85}, {"time": 2404, "pitch": 59, "duration": 6, "velocity": 94}, {"time": 2416, "pitch": 52, "duration": 30, "velocity": 106}, {"time": 2416, "pitch": 59, "duration": 15, "velocity": 104}, {"time": 2416, "pitch": 64, "duration": 15, "velocity": 109}, {"time": 2428, "pitch": 55, "duration": 8, "velocity": 71}, {"time": 2434, "pitch": 59, "duration": 8, "velocity": 104}, {"time": 2434, "pitch": 64, "duration": 8, "velocity": 109}, {"time": 2434, "pitch": 67, "duration": 8, "velocity": 106}, {"time": 2440, "pitch": 55, "duration": 5, "velocity": 46}, {"time": 2446, "pitch": 59, "duration": 6, "velocity": 104}, {"time": 2446, "pitch": 64, "duration": 5, "velocity": 109}, {"time": 2464, "pitch": 45, "duration": 31, "velocity": 101}, {"time": 2464, "pitch": 57, "duration": 14, "velocity": 99}, {"time": 2464, "pitch": 61, "duration": 14, "velocity": 101}, {"time": 2482, "pitch": 57, "duration": 8, "velocity": 106}, {"time": 2482, "pitch": 61, "duration": 8, "velocity": 106}, {"time": 2482, "pitch": 64, "duration": 8, "velocity": 106}, {"time": 2494, "pitch": 57, "duration": 5, "velocity": 104}, {"time": 2494, "pitch": 61, "duration": 4, "velocity": 104}, {"time": 2494, "pitch": 64, "duration": 4, "velocity": 106}, {"time": 2512, "pitch": 42, "duration": 31, "velocity": 106}, {"time": 2512, "pitch": 54, "duration": 11, "velocity": 94}, {"time": 2512, "pitch": 58, "duration": 12, "velocity": 101}, {"time": 2512, "pitch": 61, "duration": 11, "velocity": 99}, {"time": 2524, "pitch": 49, "duration": 7, "velocity": 67}, {"time": 2530, "pitch": 54, "duration": 6, "velocity": 101}, {"time": 2530, "pitch": 58, "duration": 6, "velocity": 101}, {"time": 2530, "pitch": 66, "duration": 7, "velocity": 104}, {"time": 2536, "pitch": 49, "duration": 6, "velocity": 85}, {"time": 2542, "pitch": 54, "duration": 5, "velocity": 101}, {"time": 2542, "pitch": 58, "duration": 6, "velocity": 113}, {"time": 2542, "pitch": 61, "duration": 8, "velocity": 106}, {"time": 2548, "pitch": 49, "duration": 3, "velocity": 89}, {"time": 2554, "pitch": 54, "duration": 2, "velocity": 85}, {"time": 2560, "pitch": 47, "duration": 32, "velocity": 106}, {"time": 2560, "pitch": 59, "duration": 8, "velocity": 99}, {"time": 2560, "pitch": 62, "duration": 9, "velocity": 101}, {"time": 2566, "pitch": 54, "duration": 13, "velocity": 78}, {"time": 2572, "pitch": 59, "duration": 2, "velocity": 91}, {"time": 2578, "pitch": 59, "duration": 6, "velocity": 109}, {"time": 2578, "pitch": 66, "duration": 6, "velocity": 104}, {"time": 2590, "pitch": 59, "duration": 4, "velocity": 112}, {"time": 2590, "pitch": 62, "duration": 4, "velocity": 109}, {"time": 2608, "pitch": 52, "duration": 23, "velocity": 104}, {"time": 2608, "pitch": 64, "duration": 6, "velocity": 109}, {"time": 2608, "pitch": 67, "duration": 7, "velocity": 106}, {"time": 2614, "pitch": 59, "duration": 13, "velocity": 94}, {"time": 2620, "pitch": 64, "duration": 3, "velocity": 109}, {"time": 2626, "pitch": 64, "duration": 7, "velocity": 109}, {"time": 2626, "pitch": 67, "duration": 7, "velocity": 109}, {"time": 2632, "pitch": 59, "duration": 6, "velocity": 89}, {"time": 2638, "pitch": 64, "duration": 4, "velocity": 112}, {"time": 2638, "pitch": 67, "duration": 4, "velocity": 115}, {"time": 2656, "pitch": 54, "duration": 20, "velocity": 106}, {"time": 2656, "pitch": 64, "duration": 9, "velocity": 109}, {"time": 2656, "pitch": 70, "duration": 9, "velocity": 113}, {"time": 2662, "pitch": 61, "duration": 13, "velocity": 85}, {"time": 2668, "pitch": 64, "duration": 3, "velocity": 87}, {"time": 2674, "pitch": 64, "duration": 9, "velocity": 109}, {"time": 2674, "pitch": 70, "duration": 9, "velocity": 117}, {"time": 2686, "pitch": 64, "duration": 5, "velocity": 112}, {"time": 2686, "pitch": 70, "duration": 4, "velocity": 120}, {"time": 2704, "pitch": 47, "duration": 39, "velocity": 104}, {"time": 2704, "pitch": 59, "duration": 14, "velocity": 106}, {"time": 2704, "pitch": 62, "duration": 15, "velocity": 104}, {"time": 2716, "pitch": 54, "duration": 26, "velocity": 71}, {"time": 2722, "pitch": 59, "duration": 20, "velocity": 106}, {"time": 2722, "pitch": 62, "duration": 20, "velocity": 106}, {"time": 2722, "pitch": 66, "duration": 20, "velocity": 106}, {"time": 2752, "pitch": 47, "duration": 46, "velocity": 106}, {"time": 2752, "pitch": 59, "duration": 14, "velocity": 106}, {"time": 2752, "pitch": 62, "duration": 15, "velocity": 101}, {"time": 2764, "pitch": 54, "duration": 22, "velocity": 66}, {"time": 2770, "pitch": 59, "duration": 5, "velocity": 106}, {"time": 2770, "pitch": 62, "duration": 5, "velocity": 104}, {"time": 2770, "pitch": 66, "duration": 5, "velocity": 104}, {"time": 2782, "pitch": 59, "duration": 10, "velocity": 106}, {"time": 2782, "pitch": 62, "duration": 15, "velocity": 104}, {"time": 2794, "pitch": 59, "duration": 3, "velocity": 101}, {"time": 2800, "pitch": 47, "duration": 40, "velocity": 104}, {"time": 2800, "pitch": 59, "duration": 13, "velocity": 106}, {"time": 2800, "pitch": 62, "duration": 14, "velocity": 101}, {"time": 2812, "pitch": 54, "duration": 7, "velocity": 34}, {"time": 2818, "pitch": 59, "duration": 6, "velocity": 109}, {"time": 2818, "pitch": 62, "duration": 6, "velocity": 109}, {"time": 2818, "pitch": 66, "duration": 5, "velocity": 104}, {"time": 2824, "pitch": 54, "duration": 8, "velocity": 54}, {"time": 2830, "pitch": 59, "duration": 8, "velocity": 112}, {"time": 2830, "pitch": 62, "duration": 8, "velocity": 106}, {"time": 2836, "pitch": 54, "duration": 2, "velocity": 74}, {"time": 2848, "pitch": 43, "duration": 44, "velocity": 106}, {"time": 2848, "pitch": 55, "duration": 14, "velocity": 104}, {"time": 2848, "pitch": 59, "duration": 15, "velocity": 109}, {"time": 2860, "pitch": 50, "duration": 8, "velocity": 59}, {"time": 2866, "pitch": 55, "duration": 5, "velocity": 109}, {"time": 2866, "pitch": 59, "duration": 5, "velocity": 112}, {"time": 2872, "pitch": 50, "duration": 5, "velocity": 45}, {"time": 2878, "pitch": 55, "duration": 12, "velocity": 109}, {"time": 2878, "pitch": 59, "duration": 10, "velocity": 109}, {"time": 2896, "pitch": 42, "duration": 34, "velocity": 104}, {"time": 2896, "pitch": 54, "duration": 15, "velocity": 94}, {"time": 2896, "pitch": 57, "duration": 15, "velocity": 96}, {"time": 2908, "pitch": 49, "duration": 5, "velocity": 22}, {"time": 2914, "pitch": 54, "duration": 7, "velocity": 101}, {"time": 2914, "pitch": 57, "duration": 8, "velocity": 106}, {"time": 2914, "pitch": 61, "duration": 7, "velocity": 106}, {"time": 2920, "pitch": 49, "duration": 7, "velocity": 71}, {"time": 2926, "pitch": 54, "duration": 6, "velocity": 112}, {"time": 2926, "pitch": 57, "duration": 6, "velocity": 115}, {"time": 2944, "pitch": 47, "duration": 34, "velocity": 106}, {"time": 2944, "pitch": 59, "duration": 14, "velocity": 104}, {"time": 2944, "pitch": 62, "duration": 14, "velocity": 96}, {"time": 2956, "pitch": 54, "duration": 7, "velocity": 62}, {"time": 2962, "pitch": 59, "duration": 6, "velocity": 106}, {"time": 2962, "pitch": 62, "duration": 5, "velocity": 109}, {"time": 2962, "pitch": 66, "duration": 5, "velocity": 104}, {"time": 2968, "pitch": 54, "duration": 8, "velocity": 69}, {"time": 2974, "pitch": 59, "duration": 5, "velocity": 109}, {"time": 2974, "pitch": 62, "duration": 5, "velocity": 109}, {"time": 2992, "pitch": 52, "duration": 41, "velocity": 106}, {"time": 2992, "pitch": 59, "duration": 15, "velocity": 106}, {"time": 2992, "pitch": 64, "duration": 14, "velocity": 109}, {"time": 3004, "pitch": 55, "duration": 8, "velocity": 51}, {"time": 3010, "pitch": 59, "duration": 7, "velocity": 115}, {"time": 3010, "pitch": 67, "duration": 6, "velocity": 109}, {"time": 3016, "pitch": 55, "duration": 16, "velocity": 61}, {"time": 3022, "pitch": 59, "duration": 5, "velocity": 115}, {"time": 3022, "pitch": 64, "duration": 7, "velocity": 115}, {"time": 3034, "pitch": 59, "duration": 2, "velocity": 106}, {"time": 3040, "pitch": 45, "duration": 32, "velocity": 104}, {"time": 3040, "pitch": 57, "duration": 9, "velocity": 106}, {"time": 3040, "pitch": 61, "duration": 15, "velocity": 112}, {"time": 3046, "pitch": 52, "duration": 13, "velocity": 71}, {"time": 3052, "pitch": 57, "duration": 2, "velocity": 78}, {"time": 3058, "pitch": 57, "duration": 8, "velocity": 109}, {"time": 3058, "pitch": 61, "duration": 8, "velocity": 109}, {"time": 3058, "pitch": 64, "duration": 7, "velocity": 109}, {"time": 3064, "pitch": 52, "duration": 7, "velocity": 87}, {"time": 3070, "pitch": 57, "duration": 6, "velocity": 109}, {"time": 3070, "pitch": 61, "duration": 5, "velocity": 112}, {"time": 3070, "pitch": 64, "duration": 5, "velocity": 112}, {"time": 3076, "pitch": 45, "duration": 2, "velocity": 78}, {"time": 3088, "pitch": 42, "duration": 33, "velocity": 94}, {"time": 3088, "pitch": 54, "duration": 8, "velocity": 104}, {"time": 3088, "pitch": 58, "duration": 10, "velocity": 107}, {"time": 3094, "pitch": 49, "duration": 12, "velocity": 54}, {"time": 3100, "pitch": 54, "duration": 3, "velocity": 101}, {"time": 3106, "pitch": 54, "duration": 7, "velocity": 109}, {"time": 3106, "pitch": 58, "duration": 6, "velocity": 120}, {"time": 3106, "pitch": 66, "duration": 6, "velocity": 109}, {"time": 3112, "pitch": 49, "duration": 7, "velocity": 87}, {"time": 3118, "pitch": 54, "duration": 11, "velocity": 109}, {"time": 3118, "pitch": 58, "duration": 11, "velocity": 120}, {"time": 3118, "pitch": 61, "duration": 12, "velocity": 109}, {"time": 3124, "pitch": 42, "duration": 3, "velocity": 73}, {"time": 3124, "pitch": 49, "duration": 4, "velocity": 94}, {"time": 3136, "pitch": 47, "duration": 46, "velocity": 106}, {"time": 3136, "pitch": 59, "duration": 14, "velocity": 106}, {"time": 3136, "pitch": 62, "duration": 15, "velocity": 101}, {"time": 3148, "pitch": 54, "duration": 22, "velocity": 66}, {"time": 3154, "pitch": 59, "duration": 5, "velocity": 106}, {"time": 3154, "pitch": 62, "duration": 5, "velocity": 104}, {"time": 3154, "pitch": 66, "duration": 5, "velocity": 104}, {"time": 3166, "pitch": 59, "duration": 10, "velocity": 106}, {"time": 3166, "pitch": 62, "duration": 15, "velocity": 104}, {"time": 3178, "pitch": 59, "duration": 3, "velocity": 101}, {"time": 3184, "pitch": 47, "duration": 40, "velocity": 104}, {"time": 3184, "pitch": 59, "duration": 13, "velocity": 106}, {"time": 3184, "pitch": 62, "duration": 14, "velocity": 101}, {"time": 3196, "pitch": 54, "duration": 7, "velocity": 34}, {"time": 3202, "pitch": 59, "duration": 6, "velocity": 109}, {"time": 3202, "pitch": 62, "duration": 6, "velocity": 109}, {"time": 3202, "pitch": 66, "duration": 5, "velocity": 104}, {"time": 3208, "pitch": 54, "duration": 8, "velocity": 54}, {"time": 3214, "pitch": 59, "duration": 8, "velocity": 112}, {"time": 3214, "pitch": 62, "duration": 8, "velocity": 106}, {"time": 3220, "pitch": 54, "duration": 2, "velocity": 74}, {"time": 3232, "pitch": 43, "duration": 44, "velocity": 106}, {"time": 3232, "pitch": 55, "duration": 14, "velocity": 104}, {"time": 3232, "pitch": 59, "duration": 15, "velocity": 109}, {"time": 3244, "pitch": 50, "duration": 8, "velocity": 59}, {"time": 3250, "pitch": 55, "duration": 5, "velocity": 109}, {"time": 3250, "pitch": 59, "duration": 5, "velocity": 112}, {"time": 3256, "pitch": 50, "duration": 5, "velocity": 45}, {"time": 3262, "pitch": 55, "duration": 12, "velocity": 109}, {"time": 3262, "pitch": 59, "duration": 10, "velocity": 109}, {"time": 3280, "pitch": 42, "duration": 34, "velocity": 104}, {"time": 3280, "pitch": 54, "duration": 15, "velocity": 94}, {"time": 3280, "pitch": 57, "duration": 15, "velocity": 96}, {"time": 3292, "pitch": 49, "duration": 5, "velocity": 22}, {"time": 3298, "pitch": 54, "duration": 7, "velocity": 101}, {"time": 3298, "pitch": 57, "duration": 8, "velocity": 106}, {"time": 3298, "pitch": 61, "duration": 7, "velocity": 106}, {"time": 3304, "pitch": 49, "duration": 7, "velocity": 71}, {"time": 3310, "pitch": 54, "duration": 6, "velocity": 112}, {"time": 3310, "pitch": 57, "duration": 6, "velocity": 115}, {"time": 3328, "pitch": 47, "duration": 34, "velocity": 106}, {"time": 3328, "pitch": 59, "duration": 14, "velocity": 104}, {"time": 3328, "pitch": 62, "duration": 14, "velocity": 96}, {"time": 3340, "pitch": 54, "duration": 7, "velocity": 62}, {"time": 3346, "pitch": 59, "duration": 6, "velocity": 106}, {"time": 3346, "pitch": 62, "duration": 5, "velocity": 109}, {"time": 3346, "pitch": 66, "duration": 5, "velocity": 104}, {"time": 3352, "pitch": 54, "duration": 8, "velocity": 69}, {"time": 3358, "pitch": 59, "duration": 5, "velocity": 109}, {"time": 3358, "pitch": 62, "duration": 5, "velocity": 109}, {"time": 3376, "pitch": 52, "duration": 41, "velocity": 106}, {"time": 3376, "pitch": 59, "duration": 15, "velocity": 106}, {"time": 3376, "pitch": 64, "duration": 14, "velocity": 109}, {"time": 3388, "pitch": 55, "duration": 8, "velocity": 51}, {"time": 3394, "pitch": 59, "duration": 7, "velocity": 115}, {"time": 3394, "pitch": 67, "duration": 6, "velocity": 109}, {"time": 3400, "pitch": 55, "duration": 16, "velocity": 61}, {"time": 3406, "pitch": 59, "duration": 5, "velocity": 115}, {"time": 3406, "pitch": 64, "duration": 7, "velocity": 115}, {"time": 3418, "pitch": 59, "duration": 2, "velocity": 106}, {"time": 3424, "pitch": 45, "duration": 17, "velocity": 104}, {"time": 3424, "pitch": 57, "duration": 7, "velocity": 104}, {"time": 3424, "pitch": 61, "duration": 8, "velocity": 106}, {"time": 3430, "pitch": 52, "duration": 8, "velocity": 82}, {"time": 3436, "pitch": 57, "duration": 3, "velocity": 115}, {"time": 3442, "pitch": 57, "duration": 8, "velocity": 115}, {"time": 3442, "pitch": 61, "duration": 8, "velocity": 118}, {"time": 3448, "pitch": 42, "duration": 6, "velocity": 109}, {"time": 3448, "pitch": 54, "duration": 6, "velocity": 101}, {"time": 3448, "pitch": 57, "duration": 2, "velocity": 109}, {"time": 3448, "pitch": 61, "duration": 2, "velocity": 106}, {"time": 3460, "pitch": 45, "duration": 7, "velocity": 106}, {"time": 3460, "pitch": 57, "duration": 7, "velocity": 104}, {"time": 3460, "pitch": 61, "duration": 8, "velocity": 112}, {"time": 3472, "pitch": 47, "duration": 46, "velocity": 109}, {"time": 3472, "pitch": 59, "duration": 8, "velocity": 112}, {"time": 3472, "pitch": 62, "duration": 9, "velocity": 112}, {"time": 3478, "pitch": 54, "duration": 13, "velocity": 78}, {"time": 3484, "pitch": 59, "duration": 3, "velocity": 112}, {"time": 3490, "pitch": 59, "duration": 9, "velocity": 118}, {"time": 3490, "pitch": 62, "duration": 8, "velocity": 118}, {"time": 3490, "pitch": 66, "duration": 9, "velocity": 112}, {"time": 3496, "pitch": 54, "duration": 21, "velocity": 104}, {"time": 3502, "pitch": 59, "duration": 5, "velocity": 115}, {"time": 3502, "pitch": 64, "duration": 7, "velocity": 115}, {"time": 3508, "pitch": 62, "duration": 6, "velocity": 109}, {"time": 3514, "pitch": 61, "duration": 5, "velocity": 112}, {"time": 3520, "pitch": 47, "duration": 46, "velocity": 106}, {"time": 3520, "pitch": 59, "duration": 14, "velocity": 109}, {"time": 3520, "pitch": 62, "duration": 13, "velocity": 109}, {"time": 3532, "pitch": 54, "duration": 21, "velocity": 71}, {"time": 3538, "pitch": 59, "duration": 7, "velocity": 112}, {"time": 3538, "pitch": 62, "duration": 7, "velocity": 115}, {"time": 3538, "pitch": 66, "duration": 6, "velocity": 109}, {"time": 3550, "pitch": 59, "duration": 8, "velocity": 112}, {"time": 3550, "pitch": 62, "duration": 9, "velocity": 115}, {"time": 3550, "pitch": 66, "duration": 9, "velocity": 112}, {"time": 3556, "pitch": 54, "duration": 8, "velocity": 80}, {"time": 3562, "pitch": 59, "duration": 3, "velocity": 109}, {"time": 3568, "pitch": 52, "duration": 40, "velocity": 104}, {"time": 3568, "pitch": 59, "duration": 14, "velocity": 109}, {"time": 3568, "pitch": 64, "duration": 14, "velocity": 112}, {"time": 3580, "pitch": 55, "duration": 9, "velocity": 82}, {"time": 3586, "pitch": 59, "duration": 8, "velocity": 118}, {"time": 3586, "pitch": 64, "duration": 7, "velocity": 115}, {"time": 3586, "pitch": 67, "duration": 7, "velocity": 112}, {"time": 3592, "pitch": 55, "duration": 15, "velocity": 80}, {"time": 3598, "pitch": 59, "duration": 7, "velocity": 115}, {"time": 3598, "pitch": 64, "duration": 8, "velocity": 118}, {"time": 3610, "pitch": 59, "duration": 3, "velocity": 109}, {"time": 3616, "pitch": 45, "duration": 34, "velocity": 106}, {"time": 3616, "pitch": 57, "duration": 9, "velocity": 112}, {"time": 3616, "pitch": 61, "duration": 10, "velocity": 109}, {"time": 3622, "pitch": 52, "duration": 13, "velocity": 91}, {"time": 3634, "pitch": 57, "duration": 8, "velocity": 115}, {"time": 3634, "pitch": 61, "duration": 8, "velocity": 115}, {"time": 3634, "pitch": 64, "duration": 7, "velocity": 112}, {"time": 3640, "pitch": 52, "duration": 8, "velocity": 91}, {"time": 3646, "pitch": 57, "duration": 7, "velocity": 109}, {"time": 3646, "pitch": 61, "duration": 8, "velocity": 109}, {"time": 3658, "pitch": 57, "duration": 2, "velocity": 101}, {"time": 3664, "pitch": 47, "duration": 45, "velocity": 106}, {"time": 3664, "pitch": 59, "duration": 14, "velocity": 112}, {"time": 3664, "pitch": 62, "duration": 14, "velocity": 109}, {"time": 3676, "pitch": 54, "duration": 8, "velocity": 78}, {"time": 3682, "pitch": 59, "duration": 7, "velocity": 112}, {"time": 3682, "pitch": 62, "duration": 6, "velocity": 112}, {"time": 3682, "pitch": 66, "duration": 6, "velocity": 109}, {"time": 3688, "pitch": 54, "duration": 7, "velocity": 94}, {"time": 3694, "pitch": 59, "duration": 8, "velocity": 112}, {"time": 3694, "pitch": 62, "duration": 9, "velocity": 112}, {"time": 3700, "pitch": 54, "duration": 8, "velocity": 91}, {"time": 3706, "pitch": 61, "duration": 4, "velocity": 112}, {"time": 3712, "pitch": 47, "duration": 32, "velocity": 104}, {"time": 3712, "pitch": 59, "duration": 8, "velocity": 106}, {"time": 3712, "pitch": 62, "duration": 9, "velocity": 106}, {"time": 3718, "pitch": 54, "duration": 12, "velocity": 74}, {"time": 3724, "pitch": 59, "duration": 3, "velocity": 109}, {"time": 3730, "pitch": 59, "duration": 6, "velocity": 115}, {"time": 3730, "pitch": 66, "duration": 6, "velocity": 109}, {"time": 3736, "pitch": 54, "duration": 8, "velocity": 91}, {"time": 3742, "pitch": 59, "duration": 7, "velocity": 112}, {"time": 3742, "pitch": 62, "duration": 8, "velocity": 115}, {"time": 3748, "pitch": 47, "duration": 3, "velocity": 71}, {"time": 3760, "pitch": 42, "duration": 24, "velocity": 109}, {"time": 3760, "pitch": 54, "duration": 19, "velocity": 109}, {"time": 3760, "pitch": 61, "duration": 13, "velocity": 101}, {"time": 3760, "pitch": 66, "duration": 13, "velocity": 96}, {"time": 3760, "pitch": 69, "duration": 6, "velocity": 96}, {"time": 3772, "pitch": 57, "duration": 7, "velocity": 76}, {"time": 3778, "pitch": 61, "duration": 7, "velocity": 109}, {"time": 3778, "pitch": 69, "duration": 6, "velocity": 99}, {"time": 3784, "pitch": 54, "duration": 6, "velocity": 48}, {"time": 3784, "pitch": 57, "duration": 8, "velocity": 91}, {"time": 3790, "pitch": 61, "duration": 5, "velocity": 115}, {"time": 3790, "pitch": 66, "duration": 7, "velocity": 112}, {"time": 3796, "pitch": 54, "duration": 2, "velocity": 87}, {"time": 3802, "pitch": 61, "duration": 2, "velocity": 112}, {"time": 3808, "pitch": 43, "duration": 40, "velocity": 106}, {"time": 3808, "pitch": 55, "duration": 7, "velocity": 112}, {"time": 3808, "pitch": 59, "duration": 9, "velocity": 112}, {"time": 3814, "pitch": 50, "duration": 13, "velocity": 73}, {"time": 3820, "pitch": 55, "duration": 3, "velocity": 104}, {"time": 3826, "pitch": 55, "duration": 10, "velocity": 118}, {"time": 3826, "pitch": 59, "duration": 10, "velocity": 118}, {"time": 3832, "pitch": 50, "duration": 9, "velocity": 89}, {"time": 3838, "pitch": 55, "duration": 7, "velocity": 115}, {"time": 3838, "pitch": 59, "duration": 8, "velocity": 118}, {"time": 3844, "pitch": 50, "duration": 4, "velocity": 87}, {"time": 3850, "pitch": 55, "duration": 3, "velocity": 104}, {"time": 3856, "pitch": 42, "duration": 21, "velocity": 106}, {"time": 3862, "pitch": 54, "duration": 2, "velocity": 99}, {"time": 3862, "pitch": 58, "duration": 2, "velocity": 96}, {"time": 3868, "pitch": 54, "duration": 2, "velocity": 101}, {"time": 3868, "pitch": 58, "duration": 3, "velocity": 117}, {"time": 3874, "pitch": 54, "duration": 8, "velocity": 115}, {"time": 3874, "pitch": 58, "duration": 7, "velocity": 123}, {"time": 3874, "pitch": 61, "duration": 9, "velocity": 115}, {"time": 3880, "pitch": 42, "duration": 10, "velocity": 99}, {"time": 3880, "pitch": 49, "duration": 9, "velocity": 106}, {"time": 3886, "pitch": 54, "duration": 8, "velocity": 112}, {"time": 3886, "pitch": 58, "duration": 9, "velocity": 123}, {"time": 3886, "pitch": 61, "duration": 10, "velocity": 112}, {"time": 3886, "pitch": 66, "duration": 16, "velocity": 109}, {"time": 3892, "pitch": 42, "duration": 5, "velocity": 101}, {"time": 3898, "pitch": 54, "duration": 3, "velocity": 106}, {"time": 3898, "pitch": 61, "duration": 2, "velocity": 20}, {"time": 3904, "pitch": 47, "duration": 46, "velocity": 106}, {"time": 3904, "pitch": 59, "duration": 14, "velocity": 109}, {"time": 3904, "pitch": 62, "duration": 13, "velocity": 109}, {"time": 3916, "pitch": 54, "duration": 21, "velocity": 71}, {"time": 3922, "pitch": 59, "duration": 7, "velocity": 112}, {"time": 3922, "pitch": 62, "duration": 7, "velocity": 115}, {"time": 3922, "pitch": 66, "duration": 6, "velocity": 109}, {"time": 3934, "pitch": 59, "duration": 8, "velocity": 112}, {"time": 3934, "pitch": 62, "duration": 9, "velocity": 115}, {"time": 3934, "pitch": 66, "duration": 9, "velocity": 112}, {"time": 3940, "pitch": 54, "duration": 8, "velocity": 80}, {"time": 3946, "pitch": 59, "duration": 3, "velocity": 109}, {"time": 3952, "pitch": 52, "duration": 40, "velocity": 104}, {"time": 3952, "pitch": 59, "duration": 14, "velocity": 109}, {"time": 3952, "pitch": 64, "duration": 14, "velocity": 112}, {"time": 3964, "pitch": 55, "duration": 9, "velocity": 82}, {"time": 3970, "pitch": 59, "duration": 8, "velocity": 118}, {"time": 3970, "pitch": 64, "duration": 7, "velocity": 115}, {"time": 3970, "pitch": 67, "duration": 7, "velocity": 112}, {"time": 3976, "pitch": 55, "duration": 15, "velocity": 80}, {"time": 3982, "pitch": 59, "duration": 7, "velocity": 115}, {"time": 3982, "pitch": 64, "duration": 8, "velocity": 118}, {"time": 3994, "pitch": 59, "duration": 3, "velocity": 109}, {"time": 4000, "pitch": 45, "duration": 34, "velocity": 106}, {"time": 4000, "pitch": 57, "duration": 9, "velocity": 112}, {"time": 4000, "pitch": 61, "duration": 10, "velocity": 109}, {"time": 4006, "pitch": 52, "duration": 13, "velocity": 91}, {"time": 4018, "pitch": 57, "duration": 8, "velocity": 115}, {"time": 4018, "pitch": 61, "duration": 8, "velocity": 115}, {"time": 4018, "pitch": 64, "duration": 7, "velocity": 112}, {"time": 4024, "pitch": 52, "duration": 8, "velocity": 91}, {"time": 4030, "pitch": 57, "duration": 7, "velocity": 109}, {"time": 4030, "pitch": 61, "duration": 8, "velocity": 109}, {"time": 4042, "pitch": 57, "duration": 2, "velocity": 101}, {"time": 4048, "pitch": 47, "duration": 45, "velocity": 106}, {"time": 4048, "pitch": 59, "duration": 14, "velocity": 112}, {"time": 4048, "pitch": 62, "duration": 14, "velocity": 109}, {"time": 4060, "pitch": 54, "duration": 8, "velocity": 78}, {"time": 4066, "pitch": 59, "duration": 7, "velocity": 112}, {"time": 4066, "pitch": 62, "duration": 6, "velocity": 112}, {"time": 4066, "pitch": 66, "duration": 6, "velocity": 109}, {"time": 4072, "pitch": 54, "duration": 7, "velocity": 94}, {"time": 4078, "pitch": 59, "duration": 8, "velocity": 112}, {"time": 4078, "pitch": 62, "duration": 9, "velocity": 112}, {"time": 4084, "pitch": 54, "duration": 8, "velocity": 91}, {"time": 4090, "pitch": 61, "duration": 4, "velocity": 112}, {"time": 4096, "pitch": 47, "duration": 32, "velocity": 104}, {"time": 4096, "pitch": 59, "duration": 8, "velocity": 106}, {"time": 4096, "pitch": 62, "duration": 9, "velocity": 106}, {"time": 4102, "pitch": 54, "duration": 12, "velocity": 74}, {"time": 4108, "pitch": 59, "duration": 3, "velocity": 109}, {"time": 4114, "pitch": 59, "duration": 6, "velocity": 115}, {"time": 4114, "pitch": 66, "duration": 6, "velocity": 109}, {"time": 4120, "pitch": 54, "duration": 8, "velocity": 91}, {"time": 4126, "pitch": 59, "duration": 7, "velocity": 112}, {"time": 4126, "pitch": 62, "duration": 8, "velocity": 115}, {"time": 4132, "pitch": 47, "duration": 3, "velocity": 71}, {"time": 4144, "pitch": 42, "duration": 24, "velocity": 109}, {"time": 4144, "pitch": 54, "duration": 19, "velocity": 109}, {"time": 4144, "pitch": 61, "duration": 13, "velocity": 101}, {"time": 4144, "pitch": 66, "duration": 13, "velocity": 96}, {"time": 4144, "pitch": 69, "duration": 6, "velocity": 96}, {"time": 4156, "pitch": 57, "duration": 7, "velocity": 76}, {"time": 4162, "pitch": 61, "duration": 7, "velocity": 109}, {"time": 4162, "pitch": 69, "duration": 6, "velocity": 99}, {"time": 4168, "pitch": 54, "duration": 6, "velocity": 48}, {"time": 4168, "pitch": 57, "duration": 8, "velocity": 91}, {"time": 4174, "pitch": 61, "duration": 5, "velocity": 115}, {"time": 4174, "pitch": 66, "duration": 7, "velocity": 112}, {"time": 4180, "pitch": 54, "duration": 2, "velocity": 87}, {"time": 4186, "pitch": 61, "duration": 2, "velocity": 112}, {"time": 4192, "pitch": 45, "duration": 18, "velocity": 112}, {"time": 4192, "pitch": 57, "duration": 7, "velocity": 104}, {"time": 4192, "pitch": 61, "duration": 8, "velocity": 109}, {"time": 4192, "pitch": 64, "duration": 8, "velocity": 109}, {"time": 4198, "pitch": 52, "duration": 9, "velocity": 76}, {"time": 4204, "pitch": 57, "duration": 3, "velocity": 115}, {"time": 4210, "pitch": 57, "duration": 8, "velocity": 115}, {"time": 4210, "pitch": 61, "duration": 8, "velocity": 115}, {"time": 4210, "pitch": 64, "duration": 7, "velocity": 112}, {"time": 4216, "pitch": 42, "duration": 16, "velocity": 104}, {"time": 4222, "pitch": 49, "duration": 9, "velocity": 85}, {"time": 4228, "pitch": 54, "duration": 3, "velocity": 109}, {"time": 4228, "pitch": 57, "duration": 8, "velocity": 115}, {"time": 4228, "pitch": 61, "duration": 9, "velocity": 112}, {"time": 4234, "pitch": 54, "duration": 2, "velocity": 104}, {"time": 4240, "pitch": 47, "duration": 45, "velocity": 109}, {"time": 4240, "pitch": 59, "duration": 8, "velocity": 112}, {"time": 4240, "pitch": 62, "duration": 8, "velocity": 112}, {"time": 4246, "pitch": 54, "duration": 14, "velocity": 85}, {"time": 4252, "pitch": 59, "duration": 2, "velocity": 101}, {"time": 4258, "pitch": 59, "duration": 11, "velocity": 112}, {"time": 4258, "pitch": 62, "duration": 10, "velocity": 106}, {"time": 4258, "pitch": 66, "duration": 10, "velocity": 106}, {"time": 4264, "pitch": 54, "duration": 9, "velocity": 106}, {"time": 4270, "pitch": 59, "duration": 16, "velocity": 115}, {"time": 4270, "pitch": 62, "duration": 16, "velocity": 112}, {"time": 4270, "pitch": 66, "duration": 17, "velocity": 112}, {"time": 4276, "pitch": 54, "duration": 4, "velocity": 104}, {"time": 4282, "pitch": 54, "duration": 4, "velocity": 106}, {"time": 4288, "pitch": 47, "duration": 45, "velocity": 104}, {"time": 4288, "pitch": 59, "duration": 13, "velocity": 99}, {"time": 4288, "pitch": 62, "duration": 13, "velocity": 94}, {"time": 4300, "pitch": 54, "duration": 12, "velocity": 64}, {"time": 4306, "pitch": 59, "duration": 15, "velocity": 109}, {"time": 4306, "pitch": 62, "duration": 16, "velocity": 104}, {"time": 4318, "pitch": 54, "duration": 11, "velocity": 85}, {"time": 4324, "pitch": 59, "duration": 6, "velocity": 94}, {"time": 4336, "pitch": 52, "duration": 30, "velocity": 106}, {"time": 4336, "pitch": 59, "duration": 15, "velocity": 104}, {"time": 4336, "pitch": 64, "duration": 15, "velocity": 109}, {"time": 4348, "pitch": 55, "duration": 8, "velocity": 71}, {"time": 4354, "pitch": 59, "duration": 8, "velocity": 104}, {"time": 4354, "pitch": 64, "duration": 8, "velocity": 109}, {"time": 4354, "pitch": 67, "duration": 8, "velocity": 106}, {"time": 4360, "pitch": 55, "duration": 5, "velocity": 46}, {"time": 4366, "pitch": 59, "duration": 6, "velocity": 104}, {"time": 4366, "pitch": 64, "duration": 5, "velocity": 109}, {"time": 4384, "pitch": 45, "duration": 31, "velocity": 101}, {"time": 4384, "pitch": 57, "duration": 14, "velocity": 99}, {"time": 4384, "pitch": 61, "duration": 14, "velocity": 101}, {"time": 4402, "pitch": 57, "duration": 8, "velocity": 106}, {"time": 4402, "pitch": 61, "duration": 8, "velocity": 106}, {"time": 4402, "pitch": 64, "duration": 8, "velocity": 106}, {"time": 4414, "pitch": 57, "duration": 5, "velocity": 104}, {"time": 4414, "pitch": 61, "duration": 4, "velocity": 104}, {"time": 4414, "pitch": 64, "duration": 4, "velocity": 106}, {"time": 4432, "pitch": 42, "duration": 31, "velocity": 106}, {"time": 4432, "pitch": 54, "duration": 11, "velocity": 94}, {"time": 4432, "pitch": 58, "duration": 12, "velocity": 101}, {"time": 4432, "pitch": 61, "duration": 11, "velocity": 99}, {"time": 4444, "pitch": 49, "duration": 7, "velocity": 67}, {"time": 4450, "pitch": 54, "duration": 6, "velocity": 101}, {"time": 4450, "pitch": 58, "duration": 6, "velocity": 101}, {"time": 4450, "pitch": 66, "duration": 7, "velocity": 104}, {"time": 4456, "pitch": 49, "duration": 6, "velocity": 85}, {"time": 4462, "pitch": 54, "duration": 5, "velocity": 101}, {"time": 4462, "pitch": 58, "duration": 6, "velocity": 113}, {"time": 4462, "pitch": 61, "duration": 8, "velocity": 106}, {"time": 4468, "pitch": 49, "duration": 3, "velocity": 89}, {"time": 4474, "pitch": 54, "duration": 2, "velocity": 85}, {"time": 4480, "pitch": 47, "duration": 32, "velocity": 106}, {"time": 4480, "pitch": 59, "duration": 8, "velocity": 99}, {"time": 4480, "pitch": 62, "duration": 9, "velocity": 101}, {"time": 4486, "pitch": 54, "duration": 13, "velocity": 78}, {"time": 4492, "pitch": 59, "duration": 2, "velocity": 91}, {"time": 4498, "pitch": 59, "duration": 6, "velocity": 109}, {"time": 4498, "pitch": 66, "duration": 6, "velocity": 104}, {"time": 4510, "pitch": 59, "duration": 4, "velocity": 112}, {"time": 4510, "pitch": 62, "duration": 4, "velocity": 109}, {"time": 4528, "pitch": 52, "duration": 23, "velocity": 104}, {"time": 4528, "pitch": 64, "duration": 6, "velocity": 109}, {"time": 4528, "pitch": 67, "duration": 7, "velocity": 106}, {"time": 4534, "pitch": 59, "duration": 13, "velocity": 94}, {"time": 4540, "pitch": 64, "duration": 3, "velocity": 109}, {"time": 4546, "pitch": 64, "duration": 7, "velocity": 109}, {"time": 4546, "pitch": 67, "duration": 7, "velocity": 109}, {"time": 4552, "pitch": 59, "duration": 6, "velocity": 89}, {"time": 4558, "pitch": 64, "duration": 4, "velocity": 112}, {"time": 4558, "pitch": 67, "duration": 4, "velocity": 115}, {"time": 4576, "pitch": 54, "duration": 20, "velocity": 106}, {"time": 4576, "pitch": 64, "duration": 9, "velocity": 109}, {"time": 4576, "pitch": 70, "duration": 9, "velocity": 113}, {"time": 4582, "pitch": 61, "duration": 13, "velocity": 85}, {"time": 4588, "pitch": 64, "duration": 3, "velocity": 87}, {"time": 4594, "pitch": 64, "duration": 9, "velocity": 109}, {"time": 4594, "pitch": 70, "duration": 9, "velocity": 117}, {"time": 4606, "pitch": 64, "duration": 5, "velocity": 112}, {"time": 4606, "pitch": 70, "duration": 4, "velocity": 120}, {"time": 4624, "pitch": 47, "duration": 39, "velocity": 104}, {"time": 4624, "pitch": 59, "duration": 14, "velocity": 106}, {"time": 4624, "pitch": 62, "duration": 15, "velocity": 104}, {"time": 4636, "pitch": 54, "duration": 26, "velocity": 71}, {"time": 4642, "pitch": 59, "duration": 20, "velocity": 106}, {"time": 4642, "pitch": 62, "duration": 20, "velocity": 106}, {"time": 4642, "pitch": 66, "duration": 20, "velocity": 106}, {"time": 4672, "pitch": 47, "duration": 46, "velocity": 106}, {"time": 4672, "pitch": 66, "duration": 14, "velocity": 104}, {"time": 4678, "pitch": 54, "duration": 16, "velocity": 101}, {"time": 4684, "pitch": 59, "duration": 5, "velocity": 112}, {"time": 4690, "pitch": 66, "duration": 11, "velocity": 109}, {"time": 4696, "pitch": 54, "duration": 18, "velocity": 55}, {"time": 4702, "pitch": 59, "duration": 6, "velocity": 112}, {"time": 4708, "pitch": 66, "duration": 6, "velocity": 109}, {"time": 4714, "pitch": 59, "duration": 4, "velocity": 101}, {"time": 4720, "pitch": 52, "duration": 37, "velocity": 101}, {"time": 4720, "pitch": 67, "duration": 13, "velocity": 109}, {"time": 4726, "pitch": 55, "duration": 29, "velocity": 71}, {"time": 4732, "pitch": 59, "duration": 5, "velocity": 78}, {"time": 4738, "pitch": 67, "duration": 13, "velocity": 106}, {"time": 4750, "pitch": 59, "duration": 7, "velocity": 104}, {"time": 4756, "pitch": 67, "duration": 4, "velocity": 104}, {"time": 4768, "pitch": 45, "duration": 38, "velocity": 101}, {"time": 4768, "pitch": 64, "duration": 13, "velocity": 94}, {"time": 4774, "pitch": 52, "duration": 15, "velocity": 87}, {"time": 4780, "pitch": 57, "duration": 5, "velocity": 104}, {"time": 4786, "pitch": 64, "duration": 12, "velocity": 109}, {"time": 4792, "pitch": 52, "duration": 18, "velocity": 80}, {"time": 4798, "pitch": 57, "duration": 4, "velocity": 101}, {"time": 4804, "pitch": 64, "duration": 4, "velocity": 101}, {"time": 4816, "pitch": 47, "duration": 45, "velocity": 109}, {"time": 4816, "pitch": 59, "duration": 3, "velocity": 91}, {"time": 4816, "pitch": 66, "duration": 8, "velocity": 101}, {"time": 4822, "pitch": 54, "duration": 14, "velocity": 87}, {"time": 4828, "pitch": 59, "duration": 3, "velocity": 96}, {"time": 4834, "pitch": 59, "duration": 7, "velocity": 109}, {"time": 4834, "pitch": 66, "duration": 7, "velocity": 109}, {"time": 4840, "pitch": 54, "duration": 8, "velocity": 94}, {"time": 4846, "pitch": 59, "duration": 6, "velocity": 115}, {"time": 4846, "pitch": 66, "duration": 8, "velocity": 104}, {"time": 4852, "pitch": 54, "duration": 10, "velocity": 76}, {"time": 4858, "pitch": 59, "duration": 4, "velocity": 94}, {"time": 4864, "pitch": 47, "duration": 42, "velocity": 96}, {"time": 4864, "pitch": 66, "duration": 13, "velocity": 96}, {"time": 4870, "pitch": 54, "duration": 13, "velocity": 80}, {"time": 4876, "pitch": 59, "duration": 6, "velocity": 96}, {"time": 4882, "pitch": 66, "duration": 12, "velocity": 106}, {"time": 4888, "pitch": 54, "duration": 16, "velocity": 82}, {"time": 4894, "pitch": 59, "duration": 6, "velocity": 106}, {"time": 4900, "pitch": 66, "duration": 9, "velocity": 109}, {"time": 4906, "pitch": 59, "duration": 7, "velocity": 99}, {"time": 4912, "pitch": 42, "duration": 38, "velocity": 101}, {"time": 4912, "pitch": 66, "duration": 19, "velocity": 99}, {"time": 4918, "pitch": 49, "duration": 14, "velocity": 73}, {"time": 4930, "pitch": 61, "duration": 13, "velocity": 109}, {"time": 4936, "pitch": 49, "duration": 12, "velocity": 91}, {"time": 4942, "pitch": 57, "duration": 3, "velocity": 96}, {"time": 4948, "pitch": 61, "duration": 9, "velocity": 115}, {"time": 4948, "pitch": 66, "duration": 15, "velocity": 106}, {"time": 4954, "pitch": 57, "duration": 4, "velocity": 89}, {"time": 4960, "pitch": 43, "duration": 40, "velocity": 106}, {"time": 4960, "pitch": 55, "duration": 7, "velocity": 112}, {"time": 4960, "pitch": 59, "duration": 9, "velocity": 112}, {"time": 4966, "pitch": 50, "duration": 13, "velocity": 73}, {"time": 4972, "pitch": 55, "duration": 3, "velocity": 104}, {"time": 4978, "pitch": 55, "duration": 10, "velocity": 118}, {"time": 4978, "pitch": 59, "duration": 10, "velocity": 118}, {"time": 4984, "pitch": 50, "duration": 9, "velocity": 89}, {"time": 4990, "pitch": 55, "duration": 7, "velocity": 115}, {"time": 4990, "pitch": 59, "duration": 8, "velocity": 118}, {"time": 4996, "pitch": 50, "duration": 4, "velocity": 87}, {"time": 5002, "pitch": 55, "duration": 3, "velocity": 104}, {"time": 5008, "pitch": 42, "duration": 21, "velocity": 106}, {"time": 5014, "pitch": 54, "duration": 2, "velocity": 99}, {"time": 5014, "pitch": 58, "duration": 2, "velocity": 96}, {"time": 5020, "pitch": 54, "duration": 2, "velocity": 101}, {"time": 5020, "pitch": 58, "duration": 3, "velocity": 117}, {"time": 5026, "pitch": 54, "duration": 8, "velocity": 115}, {"time": 5026, "pitch": 58, "duration": 7, "velocity": 123}, {"time": 5026, "pitch": 61, "duration": 9, "velocity": 115}, {"time": 5032, "pitch": 42, "duration": 10, "velocity": 99}, {"time": 5032, "pitch": 49, "duration": 9, "velocity": 106}, {"time": 5038, "pitch": 54, "duration": 8, "velocity": 112}, {"time": 5038, "pitch": 58, "duration": 9, "velocity": 123}, {"time": 5038, "pitch": 61, "duration": 10, "velocity": 112}, {"time": 5038, "pitch": 66, "duration": 16, "velocity": 109}, {"time": 5044, "pitch": 42, "duration": 5, "velocity": 101}, {"time": 5050, "pitch": 54, "duration": 3, "velocity": 106}, {"time": 5050, "pitch": 61, "duration": 2, "velocity": 20}, {"time": 5056, "pitch": 47, "duration": 46, "velocity": 106}, {"time": 5056, "pitch": 59, "duration": 14, "velocity": 109}, {"time": 5056, "pitch": 62, "duration": 13, "velocity": 109}, {"time": 5068, "pitch": 54, "duration": 21, "velocity": 71}, {"time": 5074, "pitch": 59, "duration": 7, "velocity": 112}, {"time": 5074, "pitch": 62, "duration": 7, "velocity": 115}, {"time": 5074, "pitch": 66, "duration": 6, "velocity": 109}, {"time": 5086, "pitch": 59, "duration": 8, "velocity": 112}, {"time": 5086, "pitch": 62, "duration": 9, "velocity": 115}, {"time": 5086, "pitch": 66, "duration": 9, "velocity": 112}, {"time": 5092, "pitch": 54, "duration": 8, "velocity": 80}, {"time": 5098, "pitch": 59, "duration": 3, "velocity": 109}, {"time": 5104, "pitch": 52, "duration": 40, "velocity": 104}, {"time": 5104, "pitch": 59, "duration": 14, "velocity": 109}, {"time": 5104, "pitch": 64, "duration": 14, "velocity": 112}, {"time": 5116, "pitch": 55, "duration": 9, "velocity": 82}, {"time": 5122, "pitch": 59, "duration": 8, "velocity": 118}, {"time": 5122, "pitch": 64, "duration": 7, "velocity": 115}, {"time": 5122, "pitch": 67, "duration": 7, "velocity": 112}, {"time": 5128, "pitch": 55, "duration": 15, "velocity": 80}, {"time": 5134, "pitch": 59, "duration": 7, "velocity": 115}, {"time": 5134, "pitch": 64, "duration": 8, "velocity": 118}, {"time": 5146, "pitch": 59, "duration": 3, "velocity": 109}, {"time": 5152, "pitch": 45, "duration": 34, "velocity": 106}, {"time": 5152, "pitch": 57, "duration": 9, "velocity": 112}, {"time": 5152, "pitch": 61, "duration": 10, "velocity": 109}, {"time": 5158, "pitch": 52, "duration": 13, "velocity": 91}, {"time": 5170, "pitch": 57, "duration": 8, "velocity": 115}, {"time": 5170, "pitch": 61, "duration": 8, "velocity": 115}, {"time": 5170, "pitch": 64, "duration": 7, "velocity": 112}, {"time": 5176, "pitch": 52, "duration": 8, "velocity": 91}, {"time": 5182, "pitch": 57, "duration": 7, "velocity": 109}, {"time": 5182, "pitch": 61, "duration": 8, "velocity": 109}, {"time": 5194, "pitch": 57, "duration": 2, "velocity": 101}, {"time": 5200, "pitch": 47, "duration": 45, "velocity": 106}, {"time": 5200, "pitch": 59, "duration": 14, "velocity": 112}, {"time": 5200, "pitch": 62, "duration": 14, "velocity": 109}, {"time": 5212, "pitch": 54, "duration": 8, "velocity": 78}, {"time": 5218, "pitch": 59, "duration": 7, "velocity": 112}, {"time": 5218, "pitch": 62, "duration": 6, "velocity": 112}, {"time": 5218, "pitch": 66, "duration": 6, "velocity": 109}, {"time": 5224, "pitch": 54, "duration": 7, "velocity": 94}, {"time": 5230, "pitch": 59, "duration": 8, "velocity": 112}, {"time": 5230, "pitch": 62, "duration": 9, "velocity": 112}, {"time": 5236, "pitch": 54, "duration": 8, "velocity": 91}, {"time": 5242, "pitch": 61, "duration": 4, "velocity": 112}, {"time": 5248, "pitch": 47, "duration": 32, "velocity": 104}, {"time": 5248, "pitch": 59, "duration": 8, "velocity": 106}, {"time": 5248, "pitch": 62, "duration": 9, "velocity": 106}, {"time": 5254, "pitch": 54, "duration": 12, "velocity": 74}, {"time": 5260, "pitch": 59, "duration": 3, "velocity": 109}, {"time": 5266, "pitch": 59, "duration": 6, "velocity": 115}, {"time": 5266, "pitch": 66, "duration": 6, "velocity": 109}, {"time": 5272, "pitch": 54, "duration": 8, "velocity": 91}, {"time": 5278, "pitch": 59, "duration": 7, "velocity": 112}, {"time": 5278, "pitch": 62, "duration": 8, "velocity": 115}, {"time": 5284, "pitch": 47, "duration": 3, "velocity": 71}, {"time": 5296, "pitch": 42, "duration": 24, "velocity": 109}, {"time": 5296, "pitch": 54, "duration": 19, "velocity": 109}, {"time": 5296, "pitch": 61, "duration": 13, "velocity": 101}, {"time": 5296, "pitch": 66, "duration": 13, "velocity": 96}, {"time": 5296, "pitch": 69, "duration": 6, "velocity": 96}, {"time": 5308, "pitch": 57, "duration": 7, "velocity": 76}, {"time": 5314, "pitch": 61, "duration": 7, "velocity": 109}, {"time": 5314, "pitch": 69, "duration": 6, "velocity": 99}, {"time": 5320, "pitch": 54, "duration": 6, "velocity": 48}, {"time": 5320, "pitch": 57, "duration": 8, "velocity": 91}, {"time": 5326, "pitch": 61, "duration": 5, "velocity": 115}, {"time": 5326, "pitch": 66, "duration": 7, "velocity": 112}, {"time": 5332, "pitch": 54, "duration": 2, "velocity": 87}, {"time": 5338, "pitch": 61, "duration": 2, "velocity": 112}, {"time": 5344, "pitch": 45, "duration": 18, "velocity": 112}, {"time": 5344, "pitch": 57, "duration": 7, "velocity": 104}, {"time": 5344, "pitch": 61, "duration": 8, "velocity": 109}, {"time": 5344, "pitch": 64, "duration": 8, "velocity": 109}, {"time": 5350, "pitch": 52, "duration": 9, "velocity": 76}, {"time": 5356, "pitch": 57, "duration": 3, "velocity": 115}, {"time": 5362, "pitch": 57, "duration": 8, "velocity": 115}, {"time": 5362, "pitch": 61, "duration": 8, "velocity": 115}, {"time": 5362, "pitch": 64, "duration": 7, "velocity": 112}, {"time": 5368, "pitch": 42, "duration": 16, "velocity": 104}, {"time": 5374, "pitch": 49, "duration": 9, "velocity": 85}, {"time": 5380, "pitch": 54, "duration": 3, "velocity": 109}, {"time": 5380, "pitch": 57, "duration": 8, "velocity": 115}, {"time": 5380, "pitch": 61, "duration": 9, "velocity": 112}, {"time": 5386, "pitch": 54, "duration": 2, "velocity": 104}, {"time": 5392, "pitch": 47, "duration": 45, "velocity": 109}, {"time": 5392, "pitch": 59, "duration": 8, "velocity": 112}, {"time": 5392, "pitch": 62, "duration": 8, "velocity": 112}, {"time": 5398, "pitch": 54, "duration": 14, "velocity": 85}, {"time": 5404, "pitch": 59, "duration": 2, "velocity": 101}, {"time": 5410, "pitch": 59, "duration": 11, "velocity": 112}, {"time": 5410, "pitch": 62, "duration": 10, "velocity": 106}, {"time": 5410, "pitch": 66, "duration": 10, "velocity": 106}, {"time": 5416, "pitch": 54, "duration": 9, "velocity": 106}, {"time": 5422, "pitch": 59, "duration": 16, "velocity": 115}, {"time": 5422, "pitch": 62, "duration": 16, "velocity": 112}, {"time": 5422, "pitch": 66, "duration": 17, "velocity": 112}, {"time": 5428, "pitch": 54, "duration": 4, "velocity": 104}, {"time": 5434, "pitch": 54, "duration": 4, "velocity": 106}, {"time": 5440, "pitch": 47, "duration": 32, "velocity": 104}, {"time": 5440, "pitch": 59, "duration": 8, "velocity": 106}, {"time": 5440, "pitch": 62, "duration": 9, "velocity": 106}, {"time": 5446, "pitch": 54, "duration": 12, "velocity": 74}, {"time": 5452, "pitch": 59, "duration": 3, "velocity": 109}, {"time": 5458, "pitch": 59, "duration": 6, "velocity": 115}, {"time": 5458, "pitch": 66, "duration": 6, "velocity": 109}, {"time": 5464, "pitch": 54, "duration": 8, "velocity": 91}, {"time": 5470, "pitch": 59, "duration": 7, "velocity": 112}, {"time": 5470, "pitch": 62, "duration": 8, "velocity": 115}, {"time": 5476, "pitch": 47, "duration": 3, "velocity": 71}, {"time": 5488, "pitch": 42, "duration": 24, "velocity": 109}, {"time": 5488, "pitch": 54, "duration": 19, "velocity": 109}, {"time": 5488, "pitch": 61, "duration": 13, "velocity": 101}, {"time": 5488, "pitch": 66, "duration": 13, "velocity": 96}, {"time": 5488, "pitch": 69, "duration": 6, "velocity": 96}, {"time": 5500, "pitch": 57, "duration": 7, "velocity": 76}, {"time": 5506, "pitch": 61, "duration": 7, "velocity": 109}, {"time": 5506, "pitch": 69, "duration": 6, "velocity": 99}, {"time": 5512, "pitch": 54, "duration": 6, "velocity": 48}, {"time": 5512, "pitch": 57, "duration": 8, "velocity": 91}, {"time": 5518, "pitch": 61, "duration": 5, "velocity": 115}, {"time": 5518, "pitch": 66, "duration": 7, "velocity": 112}, {"time": 5524, "pitch": 54, "duration": 2, "velocity": 87}, {"time": 5530, "pitch": 61, "duration": 2, "velocity": 112}, {"time": 5533, "pitch": 57, "duration": 86, "velocity": 91}, {"time": 5535, "pitch": 61, "duration": 85, "velocity": 106}, {"time": 5535, "pitch": 45, "duration": 82, "velocity": 106}, {"time": 5536, "pitch": 64, "duration": 84, "velocity": 99}, {"time": 5538, "pitch": 69, "duration": 82, "velocity": 82}, {"time": 5638, "pitch": 47, "duration": 137, "velocity": 104}, {"time": 5643, "pitch": 54, "duration": 30, "velocity": 87}, {"time": 5647, "pitch": 59, "duration": 28, "velocity": 89}, {"time": 5651, "pitch": 62, "duration": 25, "velocity": 59}, {"time": 5651, "pitch": 61, "duration": 4, "velocity": 38}, {"time": 5655, "pitch": 71, "duration": 25, "velocity": 71}, {"time": 5691, "pitch": 71, "duration": 3, "velocity": 51}, {"time": 5693, "pitch": 74, "duration": 82, "velocity": 74}, {"time": 5694, "pitch": 83, "duration": 82, "velocity": 91}], "annotations": [{"time": 19, "annotation": {"number": 64, "value": 127}, "group": "control_change"}, {"time": 29, "annotation": {"number": 64, "value": 0}, "group": "control_change"}, {"time": 36, "annotation": {"number": 64, "value": 127}, "group": "control_change"}, {"time": 63, "annotation": {"number": 64, "value": 0}, "group": "control_change"}, {"time": 76, "annotation": {"number": 64, "value": 127}, "group": "control_change"}, {"time": 111, "annotation": {"number": 64, "value": 0}, "group": "control_change"}, {"time": 122, "annotation": {"number": 64, "value": 127}, "group": "control_change"}, {"time": 158, "annotation": {"number": 64, "value": 0}, "group": "control_change"}, {"time": 170, "annotation": {"number": 64, "value": 127}, "group": "control_change"}, {"time": 207, "annotation": {"number": 64, "value": 0}, "group": "control_change"}, {"time": 216, "annotation": {"number": 64, "value": 127}, "group": "control_change"}, {"time": 256, "annotation": {"number": 64, "value": 0}, "group": "control_change"}, {"time": 261, "annotation": {"number": 64, "value": 127}, "group": "control_change"}, {"time": 302, "annotation": {"number": 64, "value": 0}, "group": "control_change"}, {"time": 308, "annotation": {"number": 64, "value": 127}, "group": "control_change"}, {"time": 349, "annotation": {"number": 64, "value": 0}, "group": "control_change"}, {"time": 409, "annotation": {"number": 64, "value": 127}, "group": "control_change"}, {"time": 420, "annotation": {"number": 64, "value": 0}, "group": "control_change"}, {"time": 461, "annotation": {"number": 64, "value": 127}, "group": "control_change"}, {"time": 470, "annotation": {"number": 64, "value": 0}, "group": "control_change"}, {"time": 481, "annotation": {"number": 64, "value": 127}, "group": "control_change"}, {"time": 493, "annotation": {"number": 64, "value": 0}, "group": "control_change"}, {"time": 556, "annotation": {"number": 64, "value": 127}, "group": "control_change"}, {"time": 588, "annotation": {"number": 64, "value": 0}, "group": "control_change"}, {"time": 606, "annotation": {"number": 64, "value": 127}, "group": "control_change"}, {"time": 637, "annotation": {"number": 64, "value": 0}, "group": "control_change"}, {"time": 649, "annotation": {"number": 64, "value": 127}, "group": "control_change"}, {"time": 687, "annotation": {"number": 64, "value": 0}, "group": "control_change"}, {"time": 699, "annotation": {"number": 64, "value": 127}, "group": "control_change"}, {"time": 732, "annotation": {"number": 64, "value": 0}, "group": "control_change"}, {"time": 743, "annotation": {"number": 64, "value": 127}, "group": "control_change"}, {"time": 774, "annotation": {"number": 64, "value": 0}, "group": "control_change"}, {"time": 793, "annotation": {"number": 64, "value": 127}, "group": "control_change"}, {"time": 804, "annotation": {"number": 64, "value": 0}, "group": "control_change"}, {"time": 845, "annotation": {"number": 64, "value": 127}, "group": "control_change"}, {"time": 854, "annotation": {"number": 64, "value": 0}, "group": "control_change"}, {"time": 865, "annotation": {"number": 64, "value": 127}, "group": "control_change"}, {"time": 877, "annotation": {"number": 64, "value": 0}, "group": "control_change"}, {"time": 940, "annotation": {"number": 64, "value": 127}, "group": "control_change"}, {"time": 972, "annotation": {"number": 64, "value": 0}, "group": "control_change"}, {"time": 990, "annotation": {"number": 64, "value": 127}, "group": "control_change"}, {"time": 1021, "annotation": {"number": 64, "value": 0}, "group": "control_change"}, {"time": 1033, "annotation": {"number": 64, "value": 127}, "group": "control_change"}, {"time": 1071, "annotation": {"number": 64, "value": 0}, "group": "control_change"}, {"time": 1075, "annotation": {"number": 64, "value": 127}, "group": "control_change"}, {"time": 1091, "annotation": {"number": 64, "value": 0}, "group": "control_change"}, {"time": 1100, "annotation": {"number": 64, "value": 127}, "group": "control_change"}, {"time": 1118, "annotation": {"number": 64, "value": 0}, "group": "control_change"}, {"time": 1130, "annotation": {"number": 64, "value": 127}, "group": "control_change"}, {"time": 1168, "annotation": {"number": 64, "value": 0}, "group": "control_change"}, {"time": 1172, "annotation": {"number": 64, "value": 127}, "group": "control_change"}, {"time": 1208, "annotation": {"number": 64, "value": 0}, "group": "control_change"}, {"time": 1221, "annotation": {"number": 64, "value": 127}, "group": "control_change"}, {"time": 1230, "annotation": {"number": 64, "value": 0}, "group": "control_change"}, {"time": 1277, "annotation": {"number": 64, "value": 127}, "group": "control_change"}, {"time": 1290, "annotation": {"number": 64, "value": 0}, "group": "control_change"}, {"time": 1294, "annotation": {"number": 64, "value": 127}, "group": "control_change"}, {"time": 1310, "annotation": {"number": 64, "value": 0}, "group": "control_change"}, {"time": 1320, "annotation": {"number": 64, "value": 127}, "group": "control_change"}, {"time": 1358, "annotation": {"number": 64, "value": 0}, "group": "control_change"}, {"time": 1378, "annotation": {"number": 64, "value": 127}, "group": "control_change"}, {"time": 1404, "annotation": {"number": 64, "value": 0}, "group": "control_change"}, {"time": 1414, "annotation": {"number": 64, "value": 127}, "group": "control_change"}, {"time": 1455, "annotation": {"number": 64, "value": 0}, "group": "control_change"}, {"time": 1461, "annotation": {"number": 64, "value": 127}, "group": "control_change"}, {"time": 1502, "annotation": {"number": 64, "value": 0}, "group": "control_change"}, {"time": 1511, "annotation": {"number": 64, "value": 127}, "group": "control_change"}, {"time": 1525, "annotation": {"number": 64, "value": 0}, "group": "control_change"}, {"time": 1532, "annotation": {"number": 64, "value": 127}, "group": "control_change"}, {"time": 1549, "annotation": {"number": 64, "value": 0}, "group": "control_change"}, {"time": 1554, "annotation": {"number": 64, "value": 127}, "group": "control_change"}, {"time": 1578, "annotation": {"number": 64, "value": 0}, "group": "control_change"}, {"time": 1587, "annotation": {"number": 64, "value": 127}, "group": "control_change"}, {"time": 1597, "annotation": {"number": 64, "value": 0}, "group": "control_change"}, {"time": 1605, "annotation": {"number": 64, "value": 127}, "group": "control_change"}, {"time": 1614, "annotation": {"number": 64, "value": 0}, "group": "control_change"}, {"time": 1661, "annotation": {"number": 64, "value": 127}, "group": "control_change"}, {"time": 1674, "annotation": {"number": 64, "value": 0}, "group": "control_change"}, {"time": 1678, "annotation": {"number": 64, "value": 127}, "group": "control_change"}, {"time": 1694, "annotation": {"number": 64, "value": 0}, "group": "control_change"}, {"time": 1704, "annotation": {"number": 64, "value": 127}, "group": "control_change"}, {"time": 1742, "annotation": {"number": 64, "value": 0}, "group": "control_change"}, {"time": 1762, "annotation": {"number": 64, "value": 127}, "group": "control_change"}, {"time": 1788, "annotation": {"number": 64, "value": 0}, "group": "control_change"}, {"time": 1798, "annotation": {"number": 64, "value": 127}, "group": "control_change"}, {"time": 1839, "annotation": {"number": 64, "value": 0}, "group": "control_change"}, {"time": 1845, "annotation": {"number": 64, "value": 127}, "group": "control_change"}, {"time": 1886, "annotation": {"number": 64, "value": 0}, "group": "control_change"}, {"time": 1888, "annotation": {"number": 64, "value": 127}, "group": "control_change"}, {"time": 1910, "annotation": {"number": 64, "value": 0}, "group": "control_change"}, {"time": 1915, "annotation": {"number": 64, "value": 127}, "group": "control_change"}, {"time": 1934, "annotation": {"number": 64, "value": 0}, "group": "control_change"}, {"time": 1939, "annotation": {"number": 64, "value": 127}, "group": "control_change"}, {"time": 1957, "annotation": {"number": 64, "value": 0}, "group": "control_change"}, {"time": 1963, "annotation": {"number": 64, "value": 127}, "group": "control_change"}, {"time": 1977, "annotation": {"number": 64, "value": 0}, "group": "control_change"}, {"time": 2032, "annotation": {"number": 64, "value": 127}, "group": "control_change"}, {"time": 2044, "annotation": {"number": 64, "value": 0}, "group": "control_change"}, {"time": 2111, "annotation": {"number": 64, "value": 127}, "group": "control_change"}, {"time": 2126, "annotation": {"number": 64, "value": 0}, "group": "control_change"}, {"time": 2139, "annotation": {"number": 64, "value": 127}, "group": "control_change"}, {"time": 2170, "annotation": {"number": 64, "value": 0}, "group": "control_change"}, {"time": 2224, "annotation": {"number": 64, "value": 127}, "group": "control_change"}, {"time": 2236, "annotation": {"number": 64, "value": 0}, "group": "control_change"}, {"time": 2303, "annotation": {"number": 64, "value": 127}, "group": "control_change"}, {"time": 2318, "annotation": {"number": 64, "value": 0}, "group": "control_change"}, {"time": 2371, "annotation": {"number": 64, "value": 127}, "group": "control_change"}, {"time": 2381, "annotation": {"number": 64, "value": 0}, "group": "control_change"}, {"time": 2388, "annotation": {"number": 64, "value": 127}, "group": "control_change"}, {"time": 2415, "annotation": {"number": 64, "value": 0}, "group": "control_change"}, {"time": 2428, "annotation": {"number": 64, "value": 127}, "group": "control_change"}, {"time": 2463, "annotation": {"number": 64, "value": 0}, "group": "control_change"}, {"time": 2474, "annotation": {"number": 64, "value": 127}, "group": "control_change"}, {"time": 2510, "annotation": {"number": 64, "value": 0}, "group": "control_change"}, {"time": 2522, "annotation": {"number": 64, "value": 127}, "group": "control_change"}, {"time": 2559, "annotation": {"number": 64, "value": 0}, "group": "control_change"}, {"time": 2568, "annotation": {"number": 64, "value": 127}, "group": "control_change"}, {"time": 2608, "annotation": {"number": 64, "value": 0}, "group": "control_change"}, {"time": 2613, "annotation": {"number": 64, "value": 127}, "group": "control_change"}, {"time": 2654, "annotation": {"number": 64, "value": 0}, "group": "control_change"}, {"time": 2660, "annotation": {"number": 64, "value": 127}, "group": "control_change"}, {"time": 2701, "annotation": {"number": 64, "value": 0}, "group": "control_change"}, {"time": 2761, "annotation": {"number": 64, "value": 127}, "group": "control_change"}, {"time": 2772, "annotation": {"number": 64, "value": 0}, "group": "control_change"}, {"time": 2813, "annotation": {"number": 64, "value": 127}, "group": "control_change"}, {"time": 2822, "annotation": {"number": 64, "value": 0}, "group": "control_change"}, {"time": 2833, "annotation": {"number": 64, "value": 127}, "group": "control_change"}, {"time": 2845, "annotation": {"number": 64, "value": 0}, "group": "control_change"}, {"time": 2908, "annotation": {"number": 64, "value": 127}, "group": "control_change"}, {"time": 2940, "annotation": {"number": 64, "value": 0}, "group": "control_change"}, {"time": 2958, "annotation": {"number": 64, "value": 127}, "group": "control_change"}, {"time": 2989, "annotation": {"number": 64, "value": 0}, "group": "control_change"}, {"time": 3001, "annotation": {"number": 64, "value": 127}, "group": "control_change"}, {"time": 3039, "annotation": {"number": 64, "value": 0}, "group": "control_change"}, {"time": 3051, "annotation": {"number": 64, "value": 127}, "group": "control_change"}, {"time": 3084, "annotation": {"number": 64, "value": 0}, "group": "control_change"}, {"time": 3095, "annotation": {"number": 64, "value": 127}, "group": "control_change"}, {"time": 3126, "annotation": {"number": 64, "value": 0}, "group": "control_change"}, {"time": 3145, "annotation": {"number": 64, "value": 127}, "group": "control_change"}, {"time": 3156, "annotation": {"number": 64, "value": 0}, "group": "control_change"}, {"time": 3197, "annotation": {"number": 64, "value": 127}, "group": "control_change"}, {"time": 3206, "annotation": {"number": 64, "value": 0}, "group": "control_change"}, {"time": 3217, "annotation": {"number": 64, "value": 127}, "group": "control_change"}, {"time": 3229, "annotation": {"number": 64, "value": 0}, "group": "control_change"}, {"time": 3292, "annotation": {"number": 64, "value": 127}, "group": "control_change"}, {"time": 3324, "annotation": {"number": 64, "value": 0}, "group": "control_change"}, {"time": 3342, "annotation": {"number": 64, "value": 127}, "group": "control_change"}, {"time": 3373, "annotation": {"number": 64, "value": 0}, "group": "control_change"}, {"time": 3385, "annotation": {"number": 64, "value": 127}, "group": "control_change"}, {"time": 3423, "annotation": {"number": 64, "value": 0}, "group": "control_change"}, {"time": 3427, "annotation": {"number": 64, "value": 127}, "group": "control_change"}, {"time": 3443, "annotation": {"number": 64, "value": 0}, "group": "control_change"}, {"time": 3450, "annotation": {"number": 64, "value": 127}, "group": "control_change"}, {"time": 3461, "annotation": {"number": 64, "value": 0}, "group": "control_change"}, {"time": 3475, "annotation": {"number": 64, "value": 127}, "group": "control_change"}, {"time": 3509, "annotation": {"number": 64, "value": 0}, "group": "control_change"}, {"time": 3525, "annotation": {"number": 64, "value": 127}, "group": "control_change"}, {"time": 3534, "annotation": {"number": 64, "value": 0}, "group": "control_change"}, {"time": 3581, "annotation": {"number": 64, "value": 127}, "group": "control_change"}, {"time": 3594, "annotation": {"number": 64, "value": 0}, "group": "control_change"}, {"time": 3598, "annotation": {"number": 64, "value": 127}, "group": "control_change"}, {"time": 3614, "annotation": {"number": 64, "value": 0}, "group": "control_change"}, {"time": 3624, "annotation": {"number": 64, "value": 127}, "group": "control_change"}, {"time": 3662, "annotation": {"number": 64, "value": 0}, "group": "control_change"}, {"time": 3682, "annotation": {"number": 64, "value": 127}, "group": "control_change"}, {"time": 3708, "annotation": {"number": 64, "value": 0}, "group": "control_change"}, {"time": 3718, "annotation": {"number": 64, "value": 127}, "group": "control_change"}, {"time": 3759, "annotation": {"number": 64, "value": 0}, "group": "control_change"}, {"time": 3765, "annotation": {"number": 64, "value": 127}, "group": "control_change"}, {"time": 3806, "annotation": {"number": 64, "value": 0}, "group": "control_change"}, {"time": 3815, "annotation": {"number": 64, "value": 127}, "group": "control_change"}, {"time": 3829, "annotation": {"number": 64, "value": 0}, "group": "control_change"}, {"time": 3836, "annotation": {"number": 64, "value": 127}, "group": "control_change"}, {"time": 3853, "annotation": {"number": 64, "value": 0}, "group": "control_change"}, {"time": 3858, "annotation": {"number": 64, "value": 127}, "group": "control_change"}, {"time": 3882, "annotation": {"number": 64, "value": 0}, "group": "control_change"}, {"time": 3891, "annotation": {"number": 64, "value": 127}, "group": "control_change"}, {"time": 3901, "annotation": {"number": 64, "value": 0}, "group": "control_change"}, {"time": 3909, "annotation": {"number": 64, "value": 127}, "group": "control_change"}, {"time": 3918, "annotation": {"number": 64, "value": 0}, "group": "control_change"}, {"time": 3965, "annotation": {"number": 64, "value": 127}, "group": "control_change"}, {"time": 3978, "annotation": {"number": 64, "value": 0}, "group": "control_change"}, {"time": 3982, "annotation": {"number": 64, "value": 127}, "group": "control_change"}, {"time": 3998, "annotation": {"number": 64, "value": 0}, "group": "control_change"}, {"time": 4008, "annotation": {"number": 64, "value": 127}, "group": "control_change"}, {"time": 4046, "annotation": {"number": 64, "value": 0}, "group": "control_change"}, {"time": 4066, "annotation": {"number": 64, "value": 127}, "group": "control_change"}, {"time": 4092, "annotation": {"number": 64, "value": 0}, "group": "control_change"}, {"time": 4102, "annotation": {"number": 64, "value": 127}, "group": "control_change"}, {"time": 4143, "annotation": {"number": 64, "value": 0}, "group": "control_change"}, {"time": 4149, "annotation": {"number": 64, "value": 127}, "group": "control_change"}, {"time": 4190, "annotation": {"number": 64, "value": 0}, "group": "control_change"}, {"time": 4192, "annotation": {"number": 64, "value": 127}, "group": "control_change"}, {"time": 4214, "annotation": {"number": 64, "value": 0}, "group": "control_change"}, {"time": 4219, "annotation": {"number": 64, "value": 127}, "group": "control_change"}, {"time": 4238, "annotation": {"number": 64, "value": 0}, "group": "control_change"}, {"time": 4243, "annotation": {"number": 64, "value": 127}, "group": "control_change"}, {"time": 4261, "annotation": {"number": 64, "value": 0}, "group": "control_change"}, {"time": 4267, "annotation": {"number": 64, "value": 127}, "group": "control_change"}, {"time": 4281, "annotation": {"number": 64, "value": 0}, "group": "control_change"}, {"time": 4291, "annotation": {"number": 64, "value": 127}, "group": "control_change"}, {"time": 4301, "annotation": {"number": 64, "value": 0}, "group": "control_change"}, {"time": 4308, "annotation": {"number": 64, "value": 127}, "group": "control_change"}, {"time": 4335, "annotation": {"number": 64, "value": 0}, "group": "control_change"}, {"time": 4348, "annotation": {"number": 64, "value": 127}, "group": "control_change"}, {"time": 4383, "annotation": {"number": 64, "value": 0}, "group": "control_change"}, {"time": 4394, "annotation": {"number": 64, "value": 127}, "group": "control_change"}, {"time": 4430, "annotation": {"number": 64, "value": 0}, "group": "control_change"}, {"time": 4442, "annotation": {"number": 64, "value": 127}, "group": "control_change"}, {"time": 4479, "annotation": {"number": 64, "value": 0}, "group": "control_change"}, {"time": 4488, "annotation": {"number": 64, "value": 127}, "group": "control_change"}, {"time": 4528, "annotation": {"number": 64, "value": 0}, "group": "control_change"}, {"time": 4533, "annotation": {"number": 64, "value": 127}, "group": "control_change"}, {"time": 4574, "annotation": {"number": 64, "value": 0}, "group": "control_change"}, {"time": 4580, "annotation": {"number": 64, "value": 127}, "group": "control_change"}, {"time": 4621, "annotation": {"number": 64, "value": 0}, "group": "control_change"}, {"time": 4676, "annotation": {"number": 64, "value": 127}, "group": "control_change"}, {"time": 4717, "annotation": {"number": 64, "value": 0}, "group": "control_change"}, {"time": 4724, "annotation": {"number": 64, "value": 127}, "group": "control_change"}, {"time": 4767, "annotation": {"number": 64, "value": 0}, "group": "control_change"}, {"time": 4774, "annotation": {"number": 64, "value": 127}, "group": "control_change"}, {"time": 4815, "annotation": {"number": 64, "value": 0}, "group": "control_change"}, {"time": 4821, "annotation": {"number": 64, "value": 127}, "group": "control_change"}, {"time": 4864, "annotation": {"number": 64, "value": 0}, "group": "control_change"}, {"time": 4870, "annotation": {"number": 64, "value": 127}, "group": "control_change"}, {"time": 4911, "annotation": {"number": 64, "value": 0}, "group": "control_change"}, {"time": 4917, "annotation": {"number": 64, "value": 127}, "group": "control_change"}, {"time": 4959, "annotation": {"number": 64, "value": 0}, "group": "control_change"}, {"time": 4967, "annotation": {"number": 64, "value": 127}, "group": "control_change"}, {"time": 4981, "annotation": {"number": 64, "value": 0}, "group": "control_change"}, {"time": 4988, "annotation": {"number": 64, "value": 127}, "group": "control_change"}, {"time": 5005, "annotation": {"number": 64, "value": 0}, "group": "control_change"}, {"time": 5010, "annotation": {"number": 64, "value": 127}, "group": "control_change"}, {"time": 5034, "annotation": {"number": 64, "value": 0}, "group": "control_change"}, {"time": 5043, "annotation": {"number": 64, "value": 127}, "group": "control_change"}, {"time": 5053, "annotation": {"number": 64, "value": 0}, "group": "control_change"}, {"time": 5061, "annotation": {"number": 64, "value": 127}, "group": "control_change"}, {"time": 5070, "annotation": {"number": 64, "value": 0}, "group": "control_change"}, {"time": 5117, "annotation": {"number": 64, "value": 127}, "group": "control_change"}, {"time": 5130, "annotation": {"number": 64, "value": 0}, "group": "control_change"}, {"time": 5134, "annotation": {"number": 64, "value": 127}, "group": "control_change"}, {"time": 5150, "annotation": {"number": 64, "value": 0}, "group": "control_change"}, {"time": 5160, "annotation": {"number": 64, "value": 127}, "group": "control_change"}, {"time": 5198, "annotation": {"number": 64, "value": 0}, "group": "control_change"}, {"time": 5218, "annotation": {"number": 64, "value": 127}, "group": "control_change"}, {"time": 5244, "annotation": {"number": 64, "value": 0}, "group": "control_change"}, {"time": 5254, "annotation": {"number": 64, "value": 127}, "group": "control_change"}, {"time": 5295, "annotation": {"number": 64, "value": 0}, "group": "control_change"}, {"time": 5301, "annotation": {"number": 64, "value": 127}, "group": "control_change"}, {"time": 5342, "annotation": {"number": 64, "value": 0}, "group": "control_change"}, {"time": 5344, "annotation": {"number": 64, "value": 127}, "group": "control_change"}, {"time": 5366, "annotation": {"number": 64, "value": 0}, "group": "control_change"}, {"time": 5371, "annotation": {"number": 64, "value": 127}, "group": "control_change"}, {"time": 5390, "annotation": {"number": 64, "value": 0}, "group": "control_change"}, {"time": 5395, "annotation": {"number": 64, "value": 127}, "group": "control_change"}, {"time": 5413, "annotation": {"number": 64, "value": 0}, "group": "control_change"}, {"time": 5419, "annotation": {"number": 64, "value": 127}, "group": "control_change"}, {"time": 5433, "annotation": {"number": 64, "value": 0}, "group": "control_change"}, {"time": 5446, "annotation": {"number": 64, "value": 127}, "group": "control_change"}, {"time": 5487, "annotation": {"number": 64, "value": 0}, "group": "control_change"}, {"time": 5493, "annotation": {"number": 64, "value": 127}, "group": "control_change"}, {"time": 5534, "annotation": {"number": 64, "value": 0}, "group": "control_change"}, {"time": 5536, "annotation": {"number": 64, "value": 127}, "group": "control_change"}, {"time": 5605, "annotation": {"number": 64, "value": 127}, "group": "control_change"}, {"time": 5634, "annotation": {"number": 64, "value": 0}, "group": "control_change"}, {"time": 5646, "annotation": {"number": 64, "value": 127}, "group": "control_change"}, {"time": 5787, "annotation": {"number": 64, "value": 0}, "group": "control_change"}]}]}