{"metadata": {"schema_version": "0.2", "title": "None", "source_filename": "008.mid", "source_format": "midi"}, "resolution": 12, "tempos": [{"time": 0, "qpm": 64.99999458333379}, {"time": 3236, "qpm": 64.59412817843481}, {"time": 3248, "qpm": 63.7850698287052}, {"time": 3260, "qpm": 62.97467158708767}, {"time": 3272, "qpm": 62.164183898233084}, {"time": 3284, "qpm": 61.35377095614739}, {"time": 3296, "qpm": 60.543437898577636}, {"time": 3308, "qpm": 59.7331124535575}, {"time": 3320, "qpm": 58.92265811895306}, {"time": 3332, "qpm": 58.11228067456735}, {"time": 3344, "qpm": 57.30177406292499}, {"time": 3356, "qpm": 56.49132387417499}, {"time": 3368, "qpm": 55.68088911243735}, {"time": 3380, "qpm": 54.870537539221004}, {"time": 3392, "qpm": 53.855903145543785}, {"time": 3410, "qpm": 53.249979365632996}], "key_signatures": [{"time": 0, "root": 0, "mode": "major"}], "time_signatures": [{"time": 0, "numerator": 4, "denominator": 4}, {"time": 0, "numerator": 2, "denominator": 4}], "tracks": [{"program": 0, "is_drum": false, "name": "MELODY", "notes": [{"time": 213, "pitch": 67, "duration": 3, "velocity": 110}, {"time": 216, "pitch": 70, "duration": 2, "velocity": 106}, {"time": 219, "pitch": 70, "duration": 2, "velocity": 104}, {"time": 222, "pitch": 70, "duration": 2, "velocity": 104}, {"time": 225, "pitch": 70, "duration": 2, "velocity": 101}, {"time": 228, "pitch": 67, "duration": 2, "velocity": 104}, {"time": 231, "pitch": 72, "duration": 5, "velocity": 106}, {"time": 237, "pitch": 70, "duration": 2, "velocity": 101}, {"time": 240, "pitch": 70, "duration": 5, "velocity": 109}, {"time": 246, "pitch": 67, "duration": 4, "velocity": 113}, {"time": 252, "pitch": 67, "duration": 2, "velocity": 120}, {"time": 255, "pitch": 65, "duration": 2, "velocity": 109}, {"time": 258, "pitch": 63, "duration": 2, "velocity": 106}, {"time": 261, "pitch": 63, "duration": 4, "velocity": 109}, {"time": 267, "pitch": 63, "duration": 2, "velocity": 112}, {"time": 270, "pitch": 60, "duration": 2, "velocity": 106}, {"time": 273, "pitch": 63, "duration": 2, "velocity": 109}, {"time": 276, "pitch": 65, "duration": 2, "velocity": 109}, {"time": 279, "pitch": 67, "duration": 15, "velocity": 110}, {"time": 309, "pitch": 67, "duration": 2, "velocity": 113}, {"time": 312, "pitch": 70, "duration": 2, "velocity": 106}, {"time": 315, "pitch": 70, "duration": 4, "velocity": 109}, {"time": 321, "pitch": 70, "duration": 2, "velocity": 109}, {"time": 324, "pitch": 67, "duration": 2, "velocity": 117}, {"time": 327, "pitch": 72, "duration": 3, "velocity": 104}, {"time": 330, "pitch": 70, "duration": 2, "velocity": 106}, {"time": 336, "pitch": 70, "duration": 4, "velocity": 106}, {"time": 342, "pitch": 67, "duration": 2, "velocity": 117}, {"time": 345, "pitch": 65, "duration": 2, "velocity": 109}, {"time": 348, "pitch": 63, "duration": 2, "velocity": 109}, {"time": 351, "pitch": 63, "duration": 2, "velocity": 112}, {"time": 354, "pitch": 63, "duration": 3, "velocity": 112}, {"time": 360, "pitch": 63, "duration": 2, "velocity": 106}, {"time": 363, "pitch": 63, "duration": 2, "velocity": 112}, {"time": 366, "pitch": 63, "duration": 2, "velocity": 109}, {"time": 369, "pitch": 63, "duration": 2, "velocity": 109}, {"time": 372, "pitch": 60, "duration": 2, "velocity": 106}, {"time": 375, "pitch": 65, "duration": 24, "velocity": 106}, {"time": 405, "pitch": 65, "duration": 2, "velocity": 106}, {"time": 408, "pitch": 65, "duration": 2, "velocity": 104}, {"time": 411, "pitch": 65, "duration": 2, "velocity": 104}, {"time": 414, "pitch": 67, "duration": 4, "velocity": 117}, {"time": 420, "pitch": 65, "duration": 2, "velocity": 104}, {"time": 423, "pitch": 63, "duration": 5, "velocity": 112}, {"time": 429, "pitch": 60, "duration": 12, "velocity": 115}, {"time": 444, "pitch": 60, "duration": 2, "velocity": 109}, {"time": 447, "pitch": 72, "duration": 5, "velocity": 109}, {"time": 453, "pitch": 72, "duration": 17, "velocity": 109}, {"time": 483, "pitch": 72, "duration": 5, "velocity": 115}, {"time": 489, "pitch": 75, "duration": 4, "velocity": 112}, {"time": 495, "pitch": 70, "duration": 24, "velocity": 112}, {"time": 549, "pitch": 67, "duration": 3, "velocity": 110}, {"time": 552, "pitch": 70, "duration": 2, "velocity": 106}, {"time": 555, "pitch": 70, "duration": 2, "velocity": 104}, {"time": 558, "pitch": 70, "duration": 2, "velocity": 104}, {"time": 561, "pitch": 70, "duration": 2, "velocity": 101}, {"time": 564, "pitch": 67, "duration": 2, "velocity": 104}, {"time": 567, "pitch": 72, "duration": 5, "velocity": 106}, {"time": 573, "pitch": 70, "duration": 2, "velocity": 101}, {"time": 576, "pitch": 70, "duration": 5, "velocity": 109}, {"time": 582, "pitch": 67, "duration": 4, "velocity": 113}, {"time": 588, "pitch": 67, "duration": 2, "velocity": 120}, {"time": 591, "pitch": 65, "duration": 2, "velocity": 109}, {"time": 594, "pitch": 63, "duration": 2, "velocity": 106}, {"time": 597, "pitch": 63, "duration": 4, "velocity": 109}, {"time": 603, "pitch": 63, "duration": 2, "velocity": 112}, {"time": 606, "pitch": 60, "duration": 2, "velocity": 106}, {"time": 609, "pitch": 63, "duration": 2, "velocity": 109}, {"time": 612, "pitch": 65, "duration": 2, "velocity": 109}, {"time": 615, "pitch": 67, "duration": 15, "velocity": 110}, {"time": 645, "pitch": 67, "duration": 2, "velocity": 113}, {"time": 648, "pitch": 70, "duration": 2, "velocity": 106}, {"time": 651, "pitch": 70, "duration": 4, "velocity": 109}, {"time": 657, "pitch": 70, "duration": 2, "velocity": 109}, {"time": 660, "pitch": 67, "duration": 2, "velocity": 117}, {"time": 663, "pitch": 72, "duration": 3, "velocity": 104}, {"time": 666, "pitch": 70, "duration": 2, "velocity": 106}, {"time": 672, "pitch": 70, "duration": 4, "velocity": 106}, {"time": 678, "pitch": 67, "duration": 2, "velocity": 117}, {"time": 681, "pitch": 65, "duration": 2, "velocity": 109}, {"time": 684, "pitch": 63, "duration": 2, "velocity": 109}, {"time": 687, "pitch": 63, "duration": 2, "velocity": 112}, {"time": 690, "pitch": 63, "duration": 3, "velocity": 112}, {"time": 696, "pitch": 63, "duration": 2, "velocity": 106}, {"time": 699, "pitch": 63, "duration": 2, "velocity": 112}, {"time": 702, "pitch": 63, "duration": 2, "velocity": 109}, {"time": 705, "pitch": 63, "duration": 2, "velocity": 109}, {"time": 708, "pitch": 60, "duration": 2, "velocity": 106}, {"time": 711, "pitch": 65, "duration": 24, "velocity": 106}, {"time": 741, "pitch": 65, "duration": 2, "velocity": 106}, {"time": 744, "pitch": 65, "duration": 2, "velocity": 104}, {"time": 747, "pitch": 65, "duration": 2, "velocity": 104}, {"time": 750, "pitch": 67, "duration": 4, "velocity": 117}, {"time": 756, "pitch": 65, "duration": 2, "velocity": 104}, {"time": 759, "pitch": 63, "duration": 5, "velocity": 112}, {"time": 765, "pitch": 60, "duration": 12, "velocity": 115}, {"time": 780, "pitch": 60, "duration": 2, "velocity": 109}, {"time": 783, "pitch": 72, "duration": 5, "velocity": 109}, {"time": 789, "pitch": 72, "duration": 17, "velocity": 109}, {"time": 807, "pitch": 72, "duration": 5, "velocity": 112}, {"time": 813, "pitch": 72, "duration": 2, "velocity": 109}, {"time": 816, "pitch": 75, "duration": 7, "velocity": 115}, {"time": 825, "pitch": 72, "duration": 5, "velocity": 115}, {"time": 831, "pitch": 70, "duration": 29, "velocity": 118}, {"time": 918, "pitch": 70, "duration": 2, "velocity": 115}, {"time": 921, "pitch": 72, "duration": 2, "velocity": 115}, {"time": 924, "pitch": 75, "duration": 2, "velocity": 118}, {"time": 927, "pitch": 79, "duration": 2, "velocity": 120}, {"time": 930, "pitch": 79, "duration": 2, "velocity": 113}, {"time": 933, "pitch": 79, "duration": 2, "velocity": 117}, {"time": 936, "pitch": 79, "duration": 2, "velocity": 117}, {"time": 939, "pitch": 79, "duration": 7, "velocity": 120}, {"time": 948, "pitch": 77, "duration": 2, "velocity": 106}, {"time": 951, "pitch": 77, "duration": 5, "velocity": 115}, {"time": 957, "pitch": 75, "duration": 11, "velocity": 118}, {"time": 969, "pitch": 72, "duration": 2, "velocity": 112}, {"time": 972, "pitch": 75, "duration": 2, "velocity": 115}, {"time": 975, "pitch": 77, "duration": 10, "velocity": 112}, {"time": 987, "pitch": 77, "duration": 5, "velocity": 115}, {"time": 993, "pitch": 79, "duration": 5, "velocity": 120}, {"time": 999, "pitch": 70, "duration": 13, "velocity": 118}, {"time": 1014, "pitch": 70, "duration": 2, "velocity": 115}, {"time": 1017, "pitch": 70, "duration": 2, "velocity": 112}, {"time": 1020, "pitch": 72, "duration": 2, "velocity": 112}, {"time": 1023, "pitch": 75, "duration": 2, "velocity": 115}, {"time": 1026, "pitch": 75, "duration": 2, "velocity": 106}, {"time": 1029, "pitch": 75, "duration": 2, "velocity": 106}, {"time": 1032, "pitch": 75, "duration": 2, "velocity": 106}, {"time": 1035, "pitch": 75, "duration": 2, "velocity": 112}, {"time": 1038, "pitch": 72, "duration": 4, "velocity": 115}, {"time": 1047, "pitch": 77, "duration": 4, "velocity": 115}, {"time": 1053, "pitch": 79, "duration": 2, "velocity": 120}, {"time": 1056, "pitch": 77, "duration": 4, "velocity": 112}, {"time": 1062, "pitch": 75, "duration": 2, "velocity": 118}, {"time": 1065, "pitch": 70, "duration": 2, "velocity": 112}, {"time": 1068, "pitch": 72, "duration": 2, "velocity": 115}, {"time": 1071, "pitch": 75, "duration": 4, "velocity": 106}, {"time": 1077, "pitch": 75, "duration": 2, "velocity": 112}, {"time": 1080, "pitch": 75, "duration": 2, "velocity": 109}, {"time": 1083, "pitch": 75, "duration": 2, "velocity": 112}, {"time": 1086, "pitch": 72, "duration": 2, "velocity": 112}, {"time": 1089, "pitch": 72, "duration": 2, "velocity": 115}, {"time": 1092, "pitch": 75, "duration": 2, "velocity": 112}, {"time": 1095, "pitch": 77, "duration": 13, "velocity": 112}, {"time": 1110, "pitch": 70, "duration": 2, "velocity": 115}, {"time": 1113, "pitch": 72, "duration": 2, "velocity": 115}, {"time": 1116, "pitch": 75, "duration": 2, "velocity": 118}, {"time": 1119, "pitch": 79, "duration": 2, "velocity": 120}, {"time": 1122, "pitch": 79, "duration": 2, "velocity": 113}, {"time": 1125, "pitch": 79, "duration": 2, "velocity": 117}, {"time": 1128, "pitch": 79, "duration": 2, "velocity": 117}, {"time": 1131, "pitch": 79, "duration": 7, "velocity": 120}, {"time": 1140, "pitch": 77, "duration": 2, "velocity": 106}, {"time": 1143, "pitch": 77, "duration": 5, "velocity": 115}, {"time": 1149, "pitch": 75, "duration": 11, "velocity": 118}, {"time": 1161, "pitch": 72, "duration": 2, "velocity": 112}, {"time": 1164, "pitch": 75, "duration": 2, "velocity": 115}, {"time": 1167, "pitch": 77, "duration": 10, "velocity": 112}, {"time": 1179, "pitch": 77, "duration": 5, "velocity": 115}, {"time": 1185, "pitch": 79, "duration": 5, "velocity": 120}, {"time": 1191, "pitch": 70, "duration": 13, "velocity": 118}, {"time": 1206, "pitch": 70, "duration": 2, "velocity": 115}, {"time": 1209, "pitch": 70, "duration": 2, "velocity": 112}, {"time": 1212, "pitch": 72, "duration": 2, "velocity": 112}, {"time": 1215, "pitch": 75, "duration": 2, "velocity": 115}, {"time": 1218, "pitch": 75, "duration": 2, "velocity": 106}, {"time": 1221, "pitch": 75, "duration": 2, "velocity": 106}, {"time": 1224, "pitch": 75, "duration": 2, "velocity": 106}, {"time": 1227, "pitch": 75, "duration": 2, "velocity": 112}, {"time": 1230, "pitch": 72, "duration": 4, "velocity": 115}, {"time": 1239, "pitch": 77, "duration": 4, "velocity": 115}, {"time": 1245, "pitch": 79, "duration": 2, "velocity": 120}, {"time": 1248, "pitch": 77, "duration": 4, "velocity": 112}, {"time": 1254, "pitch": 75, "duration": 2, "velocity": 118}, {"time": 1257, "pitch": 70, "duration": 2, "velocity": 112}, {"time": 1260, "pitch": 72, "duration": 2, "velocity": 115}, {"time": 1263, "pitch": 75, "duration": 4, "velocity": 106}, {"time": 1269, "pitch": 75, "duration": 2, "velocity": 112}, {"time": 1272, "pitch": 75, "duration": 2, "velocity": 109}, {"time": 1275, "pitch": 75, "duration": 2, "velocity": 112}, {"time": 1278, "pitch": 72, "duration": 2, "velocity": 112}, {"time": 1281, "pitch": 72, "duration": 2, "velocity": 115}, {"time": 1284, "pitch": 75, "duration": 2, "velocity": 112}, {"time": 1287, "pitch": 77, "duration": 13, "velocity": 112}, {"time": 1305, "pitch": 74, "duration": 4, "velocity": 120}, {"time": 1311, "pitch": 75, "duration": 45, "velocity": 109}, {"time": 1359, "pitch": 74, "duration": 34, "velocity": 113}, {"time": 1605, "pitch": 67, "duration": 3, "velocity": 110}, {"time": 1608, "pitch": 70, "duration": 2, "velocity": 106}, {"time": 1611, "pitch": 70, "duration": 2, "velocity": 104}, {"time": 1614, "pitch": 70, "duration": 2, "velocity": 104}, {"time": 1617, "pitch": 70, "duration": 2, "velocity": 101}, {"time": 1620, "pitch": 67, "duration": 2, "velocity": 104}, {"time": 1623, "pitch": 72, "duration": 5, "velocity": 106}, {"time": 1629, "pitch": 70, "duration": 2, "velocity": 101}, {"time": 1632, "pitch": 70, "duration": 5, "velocity": 109}, {"time": 1638, "pitch": 67, "duration": 4, "velocity": 113}, {"time": 1644, "pitch": 67, "duration": 2, "velocity": 120}, {"time": 1647, "pitch": 65, "duration": 2, "velocity": 109}, {"time": 1650, "pitch": 63, "duration": 2, "velocity": 106}, {"time": 1653, "pitch": 63, "duration": 4, "velocity": 109}, {"time": 1659, "pitch": 63, "duration": 2, "velocity": 112}, {"time": 1662, "pitch": 60, "duration": 2, "velocity": 106}, {"time": 1665, "pitch": 63, "duration": 2, "velocity": 109}, {"time": 1668, "pitch": 65, "duration": 2, "velocity": 109}, {"time": 1671, "pitch": 67, "duration": 15, "velocity": 110}, {"time": 1701, "pitch": 67, "duration": 2, "velocity": 113}, {"time": 1704, "pitch": 70, "duration": 2, "velocity": 106}, {"time": 1707, "pitch": 70, "duration": 4, "velocity": 109}, {"time": 1713, "pitch": 70, "duration": 2, "velocity": 109}, {"time": 1716, "pitch": 67, "duration": 2, "velocity": 117}, {"time": 1719, "pitch": 72, "duration": 3, "velocity": 104}, {"time": 1722, "pitch": 70, "duration": 2, "velocity": 106}, {"time": 1728, "pitch": 70, "duration": 4, "velocity": 106}, {"time": 1734, "pitch": 67, "duration": 2, "velocity": 117}, {"time": 1737, "pitch": 65, "duration": 2, "velocity": 109}, {"time": 1740, "pitch": 63, "duration": 2, "velocity": 109}, {"time": 1743, "pitch": 63, "duration": 2, "velocity": 112}, {"time": 1746, "pitch": 63, "duration": 3, "velocity": 112}, {"time": 1752, "pitch": 63, "duration": 2, "velocity": 106}, {"time": 1755, "pitch": 63, "duration": 2, "velocity": 112}, {"time": 1758, "pitch": 63, "duration": 2, "velocity": 109}, {"time": 1761, "pitch": 63, "duration": 2, "velocity": 109}, {"time": 1764, "pitch": 60, "duration": 2, "velocity": 106}, {"time": 1767, "pitch": 65, "duration": 24, "velocity": 106}, {"time": 1797, "pitch": 65, "duration": 2, "velocity": 106}, {"time": 1800, "pitch": 65, "duration": 2, "velocity": 104}, {"time": 1803, "pitch": 65, "duration": 2, "velocity": 104}, {"time": 1806, "pitch": 67, "duration": 4, "velocity": 117}, {"time": 1812, "pitch": 65, "duration": 2, "velocity": 104}, {"time": 1815, "pitch": 63, "duration": 5, "velocity": 112}, {"time": 1821, "pitch": 60, "duration": 12, "velocity": 115}, {"time": 1836, "pitch": 60, "duration": 2, "velocity": 109}, {"time": 1839, "pitch": 72, "duration": 5, "velocity": 109}, {"time": 1845, "pitch": 72, "duration": 17, "velocity": 109}, {"time": 1863, "pitch": 72, "duration": 5, "velocity": 112}, {"time": 1869, "pitch": 72, "duration": 2, "velocity": 109}, {"time": 1872, "pitch": 75, "duration": 7, "velocity": 115}, {"time": 1881, "pitch": 72, "duration": 5, "velocity": 115}, {"time": 1887, "pitch": 70, "duration": 29, "velocity": 118}, {"time": 1974, "pitch": 70, "duration": 2, "velocity": 115}, {"time": 1977, "pitch": 72, "duration": 2, "velocity": 115}, {"time": 1980, "pitch": 75, "duration": 2, "velocity": 118}, {"time": 1983, "pitch": 79, "duration": 2, "velocity": 120}, {"time": 1986, "pitch": 79, "duration": 2, "velocity": 113}, {"time": 1989, "pitch": 79, "duration": 2, "velocity": 117}, {"time": 1992, "pitch": 79, "duration": 2, "velocity": 117}, {"time": 1995, "pitch": 79, "duration": 7, "velocity": 120}, {"time": 2004, "pitch": 77, "duration": 2, "velocity": 106}, {"time": 2007, "pitch": 77, "duration": 5, "velocity": 115}, {"time": 2013, "pitch": 75, "duration": 11, "velocity": 118}, {"time": 2025, "pitch": 72, "duration": 2, "velocity": 112}, {"time": 2028, "pitch": 75, "duration": 2, "velocity": 115}, {"time": 2031, "pitch": 77, "duration": 10, "velocity": 112}, {"time": 2043, "pitch": 77, "duration": 5, "velocity": 115}, {"time": 2049, "pitch": 79, "duration": 5, "velocity": 120}, {"time": 2055, "pitch": 70, "duration": 13, "velocity": 118}, {"time": 2070, "pitch": 70, "duration": 2, "velocity": 115}, {"time": 2073, "pitch": 70, "duration": 2, "velocity": 112}, {"time": 2076, "pitch": 72, "duration": 2, "velocity": 112}, {"time": 2079, "pitch": 75, "duration": 2, "velocity": 115}, {"time": 2082, "pitch": 75, "duration": 2, "velocity": 106}, {"time": 2085, "pitch": 75, "duration": 2, "velocity": 106}, {"time": 2088, "pitch": 75, "duration": 2, "velocity": 106}, {"time": 2091, "pitch": 75, "duration": 2, "velocity": 112}, {"time": 2094, "pitch": 72, "duration": 4, "velocity": 115}, {"time": 2103, "pitch": 77, "duration": 4, "velocity": 115}, {"time": 2109, "pitch": 79, "duration": 2, "velocity": 120}, {"time": 2112, "pitch": 77, "duration": 4, "velocity": 112}, {"time": 2118, "pitch": 75, "duration": 2, "velocity": 118}, {"time": 2121, "pitch": 70, "duration": 2, "velocity": 112}, {"time": 2124, "pitch": 72, "duration": 2, "velocity": 115}, {"time": 2127, "pitch": 75, "duration": 4, "velocity": 106}, {"time": 2133, "pitch": 75, "duration": 2, "velocity": 112}, {"time": 2136, "pitch": 75, "duration": 2, "velocity": 109}, {"time": 2139, "pitch": 75, "duration": 2, "velocity": 112}, {"time": 2142, "pitch": 72, "duration": 2, "velocity": 112}, {"time": 2145, "pitch": 72, "duration": 2, "velocity": 115}, {"time": 2148, "pitch": 75, "duration": 2, "velocity": 112}, {"time": 2151, "pitch": 77, "duration": 13, "velocity": 112}, {"time": 2166, "pitch": 70, "duration": 2, "velocity": 115}, {"time": 2169, "pitch": 72, "duration": 2, "velocity": 115}, {"time": 2172, "pitch": 75, "duration": 2, "velocity": 118}, {"time": 2175, "pitch": 79, "duration": 2, "velocity": 120}, {"time": 2178, "pitch": 79, "duration": 2, "velocity": 113}, {"time": 2181, "pitch": 79, "duration": 2, "velocity": 117}, {"time": 2184, "pitch": 79, "duration": 2, "velocity": 117}, {"time": 2187, "pitch": 79, "duration": 7, "velocity": 120}, {"time": 2196, "pitch": 77, "duration": 2, "velocity": 106}, {"time": 2199, "pitch": 77, "duration": 5, "velocity": 115}, {"time": 2205, "pitch": 75, "duration": 11, "velocity": 118}, {"time": 2217, "pitch": 72, "duration": 2, "velocity": 112}, {"time": 2220, "pitch": 75, "duration": 2, "velocity": 115}, {"time": 2223, "pitch": 77, "duration": 10, "velocity": 112}, {"time": 2235, "pitch": 77, "duration": 5, "velocity": 115}, {"time": 2241, "pitch": 79, "duration": 5, "velocity": 120}, {"time": 2247, "pitch": 70, "duration": 13, "velocity": 118}, {"time": 2262, "pitch": 70, "duration": 2, "velocity": 115}, {"time": 2265, "pitch": 70, "duration": 2, "velocity": 112}, {"time": 2268, "pitch": 72, "duration": 2, "velocity": 112}, {"time": 2271, "pitch": 75, "duration": 2, "velocity": 115}, {"time": 2274, "pitch": 75, "duration": 2, "velocity": 106}, {"time": 2277, "pitch": 75, "duration": 2, "velocity": 106}, {"time": 2280, "pitch": 75, "duration": 2, "velocity": 106}, {"time": 2283, "pitch": 75, "duration": 2, "velocity": 112}, {"time": 2286, "pitch": 72, "duration": 4, "velocity": 115}, {"time": 2295, "pitch": 77, "duration": 4, "velocity": 115}, {"time": 2301, "pitch": 79, "duration": 2, "velocity": 120}, {"time": 2304, "pitch": 77, "duration": 4, "velocity": 112}, {"time": 2310, "pitch": 75, "duration": 2, "velocity": 118}, {"time": 2313, "pitch": 70, "duration": 2, "velocity": 112}, {"time": 2316, "pitch": 72, "duration": 2, "velocity": 115}, {"time": 2319, "pitch": 75, "duration": 4, "velocity": 106}, {"time": 2325, "pitch": 75, "duration": 2, "velocity": 112}, {"time": 2328, "pitch": 75, "duration": 2, "velocity": 109}, {"time": 2331, "pitch": 75, "duration": 2, "velocity": 112}, {"time": 2334, "pitch": 72, "duration": 2, "velocity": 112}, {"time": 2337, "pitch": 72, "duration": 2, "velocity": 115}, {"time": 2340, "pitch": 75, "duration": 2, "velocity": 112}, {"time": 2343, "pitch": 77, "duration": 13, "velocity": 112}, {"time": 2361, "pitch": 74, "duration": 4, "velocity": 120}, {"time": 2367, "pitch": 75, "duration": 45, "velocity": 109}, {"time": 2415, "pitch": 82, "duration": 34, "velocity": 113}, {"time": 2646, "pitch": 70, "duration": 2, "velocity": 115}, {"time": 2649, "pitch": 72, "duration": 2, "velocity": 115}, {"time": 2652, "pitch": 75, "duration": 2, "velocity": 118}, {"time": 2655, "pitch": 79, "duration": 2, "velocity": 120}, {"time": 2658, "pitch": 79, "duration": 2, "velocity": 113}, {"time": 2661, "pitch": 79, "duration": 2, "velocity": 117}, {"time": 2664, "pitch": 79, "duration": 2, "velocity": 117}, {"time": 2667, "pitch": 79, "duration": 7, "velocity": 120}, {"time": 2676, "pitch": 77, "duration": 2, "velocity": 106}, {"time": 2679, "pitch": 77, "duration": 5, "velocity": 115}, {"time": 2685, "pitch": 75, "duration": 11, "velocity": 118}, {"time": 2697, "pitch": 72, "duration": 2, "velocity": 112}, {"time": 2700, "pitch": 75, "duration": 2, "velocity": 115}, {"time": 2703, "pitch": 77, "duration": 10, "velocity": 112}, {"time": 2715, "pitch": 77, "duration": 5, "velocity": 115}, {"time": 2721, "pitch": 79, "duration": 5, "velocity": 120}, {"time": 2727, "pitch": 70, "duration": 13, "velocity": 118}, {"time": 2742, "pitch": 70, "duration": 2, "velocity": 115}, {"time": 2745, "pitch": 70, "duration": 2, "velocity": 112}, {"time": 2748, "pitch": 72, "duration": 2, "velocity": 112}, {"time": 2751, "pitch": 75, "duration": 2, "velocity": 115}, {"time": 2754, "pitch": 75, "duration": 2, "velocity": 106}, {"time": 2757, "pitch": 75, "duration": 2, "velocity": 106}, {"time": 2760, "pitch": 75, "duration": 2, "velocity": 106}, {"time": 2763, "pitch": 75, "duration": 2, "velocity": 112}, {"time": 2766, "pitch": 72, "duration": 4, "velocity": 115}, {"time": 2775, "pitch": 77, "duration": 4, "velocity": 115}, {"time": 2781, "pitch": 79, "duration": 2, "velocity": 120}, {"time": 2784, "pitch": 77, "duration": 4, "velocity": 112}, {"time": 2790, "pitch": 75, "duration": 2, "velocity": 118}, {"time": 2793, "pitch": 70, "duration": 2, "velocity": 112}, {"time": 2796, "pitch": 72, "duration": 2, "velocity": 115}, {"time": 2799, "pitch": 75, "duration": 4, "velocity": 106}, {"time": 2805, "pitch": 75, "duration": 2, "velocity": 112}, {"time": 2808, "pitch": 75, "duration": 2, "velocity": 109}, {"time": 2811, "pitch": 75, "duration": 2, "velocity": 112}, {"time": 2814, "pitch": 72, "duration": 2, "velocity": 112}, {"time": 2817, "pitch": 72, "duration": 2, "velocity": 115}, {"time": 2820, "pitch": 75, "duration": 2, "velocity": 112}, {"time": 2823, "pitch": 77, "duration": 13, "velocity": 112}, {"time": 2838, "pitch": 70, "duration": 2, "velocity": 115}, {"time": 2841, "pitch": 72, "duration": 2, "velocity": 115}, {"time": 2844, "pitch": 75, "duration": 2, "velocity": 118}, {"time": 2847, "pitch": 79, "duration": 2, "velocity": 120}, {"time": 2850, "pitch": 79, "duration": 2, "velocity": 113}, {"time": 2853, "pitch": 79, "duration": 2, "velocity": 117}, {"time": 2856, "pitch": 79, "duration": 2, "velocity": 117}, {"time": 2859, "pitch": 79, "duration": 7, "velocity": 120}, {"time": 2868, "pitch": 77, "duration": 2, "velocity": 106}, {"time": 2871, "pitch": 77, "duration": 5, "velocity": 115}, {"time": 2877, "pitch": 75, "duration": 11, "velocity": 118}, {"time": 2889, "pitch": 72, "duration": 2, "velocity": 112}, {"time": 2892, "pitch": 75, "duration": 2, "velocity": 115}, {"time": 2895, "pitch": 77, "duration": 10, "velocity": 112}, {"time": 2907, "pitch": 77, "duration": 5, "velocity": 115}, {"time": 2913, "pitch": 79, "duration": 5, "velocity": 120}, {"time": 2919, "pitch": 70, "duration": 13, "velocity": 118}, {"time": 2934, "pitch": 70, "duration": 2, "velocity": 115}, {"time": 2937, "pitch": 70, "duration": 2, "velocity": 112}, {"time": 2940, "pitch": 72, "duration": 2, "velocity": 112}, {"time": 2943, "pitch": 75, "duration": 2, "velocity": 115}, {"time": 2946, "pitch": 75, "duration": 2, "velocity": 106}, {"time": 2949, "pitch": 75, "duration": 2, "velocity": 106}, {"time": 2952, "pitch": 75, "duration": 2, "velocity": 106}, {"time": 2955, "pitch": 75, "duration": 2, "velocity": 112}, {"time": 2958, "pitch": 72, "duration": 4, "velocity": 115}, {"time": 2967, "pitch": 77, "duration": 4, "velocity": 115}, {"time": 2973, "pitch": 79, "duration": 2, "velocity": 120}, {"time": 2976, "pitch": 77, "duration": 4, "velocity": 112}, {"time": 2982, "pitch": 75, "duration": 2, "velocity": 118}, {"time": 2985, "pitch": 70, "duration": 2, "velocity": 112}, {"time": 2988, "pitch": 72, "duration": 2, "velocity": 115}, {"time": 2991, "pitch": 75, "duration": 4, "velocity": 106}, {"time": 2997, "pitch": 75, "duration": 2, "velocity": 112}, {"time": 3000, "pitch": 75, "duration": 2, "velocity": 109}, {"time": 3003, "pitch": 75, "duration": 2, "velocity": 112}, {"time": 3006, "pitch": 72, "duration": 2, "velocity": 112}, {"time": 3009, "pitch": 72, "duration": 2, "velocity": 115}, {"time": 3012, "pitch": 75, "duration": 2, "velocity": 112}, {"time": 3015, "pitch": 77, "duration": 48, "velocity": 112}, {"time": 3081, "pitch": 75, "duration": 4, "velocity": 112}, {"time": 3087, "pitch": 75, "duration": 38, "velocity": 112}, {"time": 3137, "pitch": 72, "duration": 14, "velocity": 89}, {"time": 3150, "pitch": 74, "duration": 4, "velocity": 45}, {"time": 3153, "pitch": 72, "duration": 3, "velocity": 80}, {"time": 3156, "pitch": 70, "duration": 26, "velocity": 89}, {"time": 3184, "pitch": 72, "duration": 4, "velocity": 89}, {"time": 3188, "pitch": 75, "duration": 2, "velocity": 89}, {"time": 3192, "pitch": 77, "duration": 33, "velocity": 89}, {"time": 3228, "pitch": 72, "duration": 3, "velocity": 84}, {"time": 3232, "pitch": 75, "duration": 3, "velocity": 94}, {"time": 3235, "pitch": 72, "duration": 11, "velocity": 78}, {"time": 3246, "pitch": 70, "duration": 35, "velocity": 97}]}, {"program": 0, "is_drum": false, "name": "BRIDGE", "notes": [{"time": 3, "pitch": 70, "duration": 2, "velocity": 121}, {"time": 6, "pitch": 72, "duration": 2, "velocity": 112}, {"time": 9, "pitch": 75, "duration": 3, "velocity": 115}, {"time": 12, "pitch": 77, "duration": 2, "velocity": 109}, {"time": 15, "pitch": 79, "duration": 5, "velocity": 123}, {"time": 21, "pitch": 82, "duration": 2, "velocity": 118}, {"time": 24, "pitch": 82, "duration": 25, "velocity": 118}, {"time": 52, "pitch": 84, "duration": 3, "velocity": 115}, {"time": 56, "pitch": 82, "duration": 3, "velocity": 118}, {"time": 60, "pitch": 79, "duration": 2, "velocity": 120}, {"time": 63, "pitch": 77, "duration": 5, "velocity": 118}, {"time": 69, "pitch": 75, "duration": 2, "velocity": 109}, {"time": 72, "pitch": 75, "duration": 8, "velocity": 115}, {"time": 81, "pitch": 72, "duration": 2, "velocity": 112}, {"time": 84, "pitch": 70, "duration": 21, "velocity": 118}, {"time": 120, "pitch": 75, "duration": 2, "velocity": 115}, {"time": 123, "pitch": 75, "duration": 7, "velocity": 118}, {"time": 129, "pitch": 72, "duration": 2, "velocity": 104}, {"time": 132, "pitch": 72, "duration": 2, "velocity": 104}, {"time": 135, "pitch": 72, "duration": 7, "velocity": 115}, {"time": 141, "pitch": 70, "duration": 2, "velocity": 115}, {"time": 144, "pitch": 70, "duration": 2, "velocity": 115}, {"time": 147, "pitch": 70, "duration": 5, "velocity": 118}, {"time": 153, "pitch": 68, "duration": 2, "velocity": 115}, {"time": 156, "pitch": 67, "duration": 2, "velocity": 120}, {"time": 159, "pitch": 65, "duration": 16, "velocity": 118}, {"time": 177, "pitch": 63, "duration": 6, "velocity": 112}, {"time": 183, "pitch": 62, "duration": 24, "velocity": 120}, {"time": 879, "pitch": 75, "duration": 3, "velocity": 112}, {"time": 879, "pitch": 87, "duration": 3, "velocity": 101}, {"time": 891, "pitch": 74, "duration": 10, "velocity": 117}, {"time": 891, "pitch": 86, "duration": 10, "velocity": 101}, {"time": 903, "pitch": 75, "duration": 7, "velocity": 112}, {"time": 903, "pitch": 87, "duration": 7, "velocity": 109}, {"time": 915, "pitch": 77, "duration": 5, "velocity": 115}, {"time": 915, "pitch": 89, "duration": 5, "velocity": 106}, {"time": 927, "pitch": 79, "duration": 14, "velocity": 110}, {"time": 927, "pitch": 91, "duration": 13, "velocity": 101}, {"time": 951, "pitch": 75, "duration": 17, "velocity": 112}, {"time": 975, "pitch": 77, "duration": 10, "velocity": 109}, {"time": 987, "pitch": 79, "duration": 9, "velocity": 123}, {"time": 999, "pitch": 70, "duration": 23, "velocity": 118}, {"time": 1023, "pitch": 75, "duration": 16, "velocity": 109}, {"time": 1047, "pitch": 74, "duration": 11, "velocity": 117}, {"time": 1059, "pitch": 70, "duration": 11, "velocity": 112}, {"time": 1071, "pitch": 72, "duration": 19, "velocity": 106}, {"time": 1090, "pitch": 75, "duration": 4, "velocity": 115}, {"time": 1095, "pitch": 70, "duration": 21, "velocity": 115}, {"time": 1131, "pitch": 75, "duration": 11, "velocity": 109}, {"time": 1143, "pitch": 72, "duration": 15, "velocity": 101}, {"time": 1161, "pitch": 75, "duration": 5, "velocity": 109}, {"time": 1167, "pitch": 77, "duration": 10, "velocity": 104}, {"time": 1179, "pitch": 79, "duration": 10, "velocity": 117}, {"time": 1191, "pitch": 70, "duration": 18, "velocity": 118}, {"time": 1227, "pitch": 75, "duration": 10, "velocity": 112}, {"time": 1239, "pitch": 70, "duration": 20, "velocity": 106}, {"time": 1263, "pitch": 72, "duration": 12, "velocity": 106}, {"time": 1275, "pitch": 75, "duration": 10, "velocity": 115}, {"time": 1287, "pitch": 77, "duration": 21, "velocity": 101}, {"time": 1311, "pitch": 75, "duration": 45, "velocity": 101}, {"time": 1395, "pitch": 70, "duration": 4, "velocity": 115}, {"time": 1398, "pitch": 72, "duration": 3, "velocity": 118}, {"time": 1401, "pitch": 75, "duration": 3, "velocity": 118}, {"time": 1404, "pitch": 77, "duration": 3, "velocity": 109}, {"time": 1407, "pitch": 79, "duration": 5, "velocity": 123}, {"time": 1413, "pitch": 82, "duration": 2, "velocity": 118}, {"time": 1416, "pitch": 82, "duration": 10, "velocity": 118}, {"time": 1428, "pitch": 79, "duration": 3, "velocity": 123}, {"time": 1431, "pitch": 77, "duration": 6, "velocity": 115}, {"time": 1437, "pitch": 75, "duration": 2, "velocity": 115}, {"time": 1440, "pitch": 75, "duration": 10, "velocity": 118}, {"time": 1461, "pitch": 87, "duration": 2, "velocity": 115}, {"time": 1464, "pitch": 87, "duration": 2, "velocity": 118}, {"time": 1467, "pitch": 87, "duration": 5, "velocity": 121}, {"time": 1473, "pitch": 86, "duration": 2, "velocity": 120}, {"time": 1476, "pitch": 86, "duration": 2, "velocity": 117}, {"time": 1479, "pitch": 86, "duration": 5, "velocity": 123}, {"time": 1485, "pitch": 84, "duration": 2, "velocity": 118}, {"time": 1488, "pitch": 82, "duration": 10, "velocity": 118}, {"time": 1506, "pitch": 72, "duration": 2, "velocity": 115}, {"time": 1509, "pitch": 75, "duration": 2, "velocity": 115}, {"time": 1512, "pitch": 72, "duration": 2, "velocity": 115}, {"time": 1515, "pitch": 75, "duration": 5, "velocity": 121}, {"time": 1521, "pitch": 77, "duration": 2, "velocity": 118}, {"time": 1524, "pitch": 79, "duration": 2, "velocity": 123}, {"time": 1527, "pitch": 80, "duration": 5, "velocity": 112}, {"time": 1533, "pitch": 79, "duration": 2, "velocity": 123}, {"time": 1536, "pitch": 77, "duration": 2, "velocity": 118}, {"time": 1539, "pitch": 75, "duration": 7, "velocity": 121}, {"time": 1557, "pitch": 82, "duration": 2, "velocity": 115}, {"time": 1560, "pitch": 82, "duration": 2, "velocity": 121}, {"time": 1563, "pitch": 82, "duration": 5, "velocity": 121}, {"time": 1569, "pitch": 79, "duration": 2, "velocity": 123}, {"time": 1572, "pitch": 77, "duration": 26, "velocity": 121}, {"time": 1935, "pitch": 75, "duration": 3, "velocity": 112}, {"time": 1935, "pitch": 87, "duration": 3, "velocity": 101}, {"time": 1947, "pitch": 74, "duration": 10, "velocity": 117}, {"time": 1947, "pitch": 86, "duration": 10, "velocity": 101}, {"time": 1959, "pitch": 75, "duration": 7, "velocity": 112}, {"time": 1959, "pitch": 87, "duration": 7, "velocity": 109}, {"time": 1971, "pitch": 77, "duration": 5, "velocity": 115}, {"time": 1971, "pitch": 89, "duration": 5, "velocity": 106}, {"time": 1983, "pitch": 79, "duration": 14, "velocity": 110}, {"time": 1983, "pitch": 91, "duration": 14, "velocity": 101}, {"time": 2007, "pitch": 75, "duration": 17, "velocity": 112}, {"time": 2031, "pitch": 77, "duration": 10, "velocity": 109}, {"time": 2043, "pitch": 79, "duration": 9, "velocity": 123}, {"time": 2055, "pitch": 70, "duration": 23, "velocity": 118}, {"time": 2079, "pitch": 75, "duration": 16, "velocity": 109}, {"time": 2103, "pitch": 74, "duration": 11, "velocity": 117}, {"time": 2115, "pitch": 70, "duration": 11, "velocity": 112}, {"time": 2127, "pitch": 72, "duration": 19, "velocity": 106}, {"time": 2146, "pitch": 75, "duration": 4, "velocity": 115}, {"time": 2151, "pitch": 70, "duration": 21, "velocity": 115}, {"time": 2187, "pitch": 75, "duration": 11, "velocity": 109}, {"time": 2199, "pitch": 72, "duration": 15, "velocity": 101}, {"time": 2217, "pitch": 75, "duration": 5, "velocity": 109}, {"time": 2223, "pitch": 77, "duration": 10, "velocity": 104}, {"time": 2235, "pitch": 79, "duration": 10, "velocity": 117}, {"time": 2247, "pitch": 70, "duration": 18, "velocity": 118}, {"time": 2283, "pitch": 75, "duration": 10, "velocity": 112}, {"time": 2295, "pitch": 70, "duration": 20, "velocity": 106}, {"time": 2319, "pitch": 72, "duration": 12, "velocity": 106}, {"time": 2332, "pitch": 75, "duration": 9, "velocity": 115}, {"time": 2343, "pitch": 77, "duration": 21, "velocity": 101}, {"time": 2367, "pitch": 75, "duration": 45, "velocity": 101}, {"time": 2451, "pitch": 70, "duration": 4, "velocity": 115}, {"time": 2454, "pitch": 72, "duration": 3, "velocity": 118}, {"time": 2457, "pitch": 75, "duration": 3, "velocity": 118}, {"time": 2460, "pitch": 77, "duration": 3, "velocity": 109}, {"time": 2463, "pitch": 79, "duration": 5, "velocity": 123}, {"time": 2469, "pitch": 82, "duration": 2, "velocity": 118}, {"time": 2472, "pitch": 82, "duration": 10, "velocity": 118}, {"time": 2484, "pitch": 79, "duration": 3, "velocity": 123}, {"time": 2487, "pitch": 77, "duration": 6, "velocity": 115}, {"time": 2493, "pitch": 75, "duration": 2, "velocity": 115}, {"time": 2496, "pitch": 75, "duration": 10, "velocity": 118}, {"time": 2517, "pitch": 87, "duration": 2, "velocity": 115}, {"time": 2520, "pitch": 87, "duration": 2, "velocity": 118}, {"time": 2523, "pitch": 87, "duration": 5, "velocity": 121}, {"time": 2529, "pitch": 86, "duration": 2, "velocity": 120}, {"time": 2532, "pitch": 86, "duration": 2, "velocity": 117}, {"time": 2535, "pitch": 86, "duration": 5, "velocity": 123}, {"time": 2541, "pitch": 84, "duration": 2, "velocity": 118}, {"time": 2544, "pitch": 82, "duration": 10, "velocity": 118}, {"time": 2562, "pitch": 72, "duration": 2, "velocity": 115}, {"time": 2565, "pitch": 75, "duration": 2, "velocity": 115}, {"time": 2568, "pitch": 72, "duration": 2, "velocity": 115}, {"time": 2571, "pitch": 75, "duration": 5, "velocity": 121}, {"time": 2577, "pitch": 77, "duration": 2, "velocity": 118}, {"time": 2580, "pitch": 79, "duration": 2, "velocity": 123}, {"time": 2583, "pitch": 80, "duration": 5, "velocity": 112}, {"time": 2589, "pitch": 79, "duration": 2, "velocity": 123}, {"time": 2592, "pitch": 77, "duration": 2, "velocity": 118}, {"time": 2595, "pitch": 75, "duration": 7, "velocity": 121}, {"time": 2613, "pitch": 82, "duration": 2, "velocity": 115}, {"time": 2616, "pitch": 82, "duration": 2, "velocity": 121}, {"time": 2619, "pitch": 82, "duration": 5, "velocity": 121}, {"time": 2625, "pitch": 79, "duration": 2, "velocity": 123}, {"time": 2628, "pitch": 77, "duration": 26, "velocity": 121}, {"time": 2656, "pitch": 79, "duration": 13, "velocity": 110}, {"time": 2656, "pitch": 91, "duration": 13, "velocity": 101}, {"time": 2679, "pitch": 75, "duration": 17, "velocity": 112}, {"time": 2703, "pitch": 77, "duration": 10, "velocity": 109}, {"time": 2715, "pitch": 79, "duration": 9, "velocity": 123}, {"time": 2727, "pitch": 70, "duration": 23, "velocity": 118}, {"time": 2751, "pitch": 75, "duration": 17, "velocity": 109}, {"time": 2775, "pitch": 74, "duration": 11, "velocity": 117}, {"time": 2787, "pitch": 70, "duration": 11, "velocity": 112}, {"time": 2800, "pitch": 72, "duration": 18, "velocity": 106}, {"time": 2818, "pitch": 75, "duration": 4, "velocity": 115}, {"time": 2823, "pitch": 70, "duration": 21, "velocity": 115}, {"time": 2859, "pitch": 75, "duration": 11, "velocity": 109}, {"time": 2871, "pitch": 72, "duration": 15, "velocity": 101}, {"time": 2889, "pitch": 75, "duration": 5, "velocity": 109}, {"time": 2896, "pitch": 77, "duration": 9, "velocity": 104}, {"time": 2907, "pitch": 79, "duration": 10, "velocity": 117}, {"time": 2919, "pitch": 70, "duration": 18, "velocity": 118}, {"time": 2955, "pitch": 75, "duration": 10, "velocity": 112}, {"time": 2967, "pitch": 70, "duration": 20, "velocity": 106}, {"time": 2991, "pitch": 72, "duration": 12, "velocity": 106}, {"time": 3004, "pitch": 75, "duration": 9, "velocity": 115}, {"time": 3015, "pitch": 77, "duration": 21, "velocity": 101}, {"time": 3039, "pitch": 75, "duration": 46, "velocity": 101}], "annotations": [{"time": 891, "annotation": {"number": 64, "value": 0}, "group": "control_change"}, {"time": 897, "annotation": {"number": 64, "value": 127}, "group": "control_change"}, {"time": 915, "annotation": {"number": 64, "value": 0}, "group": "control_change"}, {"time": 917, "annotation": {"number": 64, "value": 127}, "group": "control_change"}, {"time": 925, "annotation": {"number": 64, "value": 0}, "group": "control_change"}, {"time": 1947, "annotation": {"number": 64, "value": 0}, "group": "control_change"}, {"time": 1953, "annotation": {"number": 64, "value": 127}, "group": "control_change"}, {"time": 1971, "annotation": {"number": 64, "value": 0}, "group": "control_change"}, {"time": 1973, "annotation": {"number": 64, "value": 127}, "group": "control_change"}, {"time": 1981, "annotation": {"number": 64, "value": 0}, "group": "control_change"}]}, {"program": 0, "is_drum": false, "name": "PIANO", "notes": [{"time": 15, "pitch": 51, "duration": 20, "velocity": 106}, {"time": 15, "pitch": 63, "duration": 7, "velocity": 99}, {"time": 15, "pitch": 67, "duration": 6, "velocity": 107}, {"time": 15, "pitch": 70, "duration": 7, "velocity": 104}, {"time": 21, "pitch": 58, "duration": 7, "velocity": 80}, {"time": 27, "pitch": 63, "duration": 5, "velocity": 109}, {"time": 27, "pitch": 67, "duration": 4, "velocity": 120}, {"time": 27, "pitch": 70, "duration": 5, "velocity": 109}, {"time": 33, "pitch": 58, "duration": 3, "velocity": 99}, {"time": 36, "pitch": 62, "duration": 2, "velocity": 99}, {"time": 39, "pitch": 48, "duration": 15, "velocity": 101}, {"time": 39, "pitch": 60, "duration": 7, "velocity": 94}, {"time": 39, "pitch": 63, "duration": 7, "velocity": 104}, {"time": 45, "pitch": 55, "duration": 9, "velocity": 74}, {"time": 51, "pitch": 60, "duration": 5, "velocity": 104}, {"time": 51, "pitch": 63, "duration": 5, "velocity": 109}, {"time": 51, "pitch": 67, "duration": 5, "velocity": 113}, {"time": 57, "pitch": 48, "duration": 2, "velocity": 89}, {"time": 63, "pitch": 44, "duration": 18, "velocity": 106}, {"time": 63, "pitch": 56, "duration": 9, "velocity": 99}, {"time": 63, "pitch": 60, "duration": 7, "velocity": 99}, {"time": 69, "pitch": 51, "duration": 6, "velocity": 64}, {"time": 75, "pitch": 56, "duration": 3, "velocity": 109}, {"time": 75, "pitch": 60, "duration": 3, "velocity": 109}, {"time": 75, "pitch": 63, "duration": 3, "velocity": 109}, {"time": 78, "pitch": 51, "duration": 3, "velocity": 78}, {"time": 87, "pitch": 43, "duration": 14, "velocity": 104}, {"time": 87, "pitch": 55, "duration": 3, "velocity": 104}, {"time": 87, "pitch": 58, "duration": 4, "velocity": 106}, {"time": 93, "pitch": 50, "duration": 9, "velocity": 81}, {"time": 99, "pitch": 55, "duration": 3, "velocity": 113}, {"time": 99, "pitch": 58, "duration": 3, "velocity": 112}, {"time": 99, "pitch": 62, "duration": 4, "velocity": 113}, {"time": 105, "pitch": 43, "duration": 2, "velocity": 68}, {"time": 111, "pitch": 41, "duration": 2, "velocity": 101}, {"time": 111, "pitch": 56, "duration": 4, "velocity": 101}, {"time": 111, "pitch": 60, "duration": 5, "velocity": 104}, {"time": 117, "pitch": 53, "duration": 5, "velocity": 94}, {"time": 123, "pitch": 53, "duration": 3, "velocity": 99}, {"time": 123, "pitch": 60, "duration": 5, "velocity": 109}, {"time": 123, "pitch": 65, "duration": 6, "velocity": 106}, {"time": 123, "pitch": 68, "duration": 7, "velocity": 112}, {"time": 129, "pitch": 53, "duration": 1, "velocity": 87}, {"time": 135, "pitch": 43, "duration": 19, "velocity": 110}, {"time": 135, "pitch": 55, "duration": 11, "velocity": 101}, {"time": 135, "pitch": 58, "duration": 8, "velocity": 112}, {"time": 141, "pitch": 50, "duration": 8, "velocity": 99}, {"time": 147, "pitch": 55, "duration": 6, "velocity": 107}, {"time": 147, "pitch": 58, "duration": 6, "velocity": 109}, {"time": 147, "pitch": 62, "duration": 6, "velocity": 104}, {"time": 153, "pitch": 50, "duration": 3, "velocity": 104}, {"time": 159, "pitch": 41, "duration": 15, "velocity": 106}, {"time": 159, "pitch": 53, "duration": 10, "velocity": 96}, {"time": 159, "pitch": 56, "duration": 8, "velocity": 101}, {"time": 165, "pitch": 48, "duration": 8, "velocity": 64}, {"time": 171, "pitch": 53, "duration": 4, "velocity": 104}, {"time": 171, "pitch": 56, "duration": 4, "velocity": 109}, {"time": 171, "pitch": 60, "duration": 5, "velocity": 104}, {"time": 183, "pitch": 46, "duration": 24, "velocity": 106}, {"time": 183, "pitch": 58, "duration": 24, "velocity": 104}, {"time": 183, "pitch": 62, "duration": 24, "velocity": 104}, {"time": 189, "pitch": 53, "duration": 17, "velocity": 52}, {"time": 207, "pitch": 51, "duration": 44, "velocity": 99}, {"time": 207, "pitch": 63, "duration": 10, "velocity": 99}, {"time": 207, "pitch": 67, "duration": 11, "velocity": 101}, {"time": 213, "pitch": 58, "duration": 9, "velocity": 80}, {"time": 219, "pitch": 63, "duration": 9, "velocity": 106}, {"time": 219, "pitch": 67, "duration": 9, "velocity": 110}, {"time": 231, "pitch": 63, "duration": 8, "velocity": 101}, {"time": 231, "pitch": 67, "duration": 8, "velocity": 99}, {"time": 231, "pitch": 70, "duration": 7, "velocity": 106}, {"time": 237, "pitch": 58, "duration": 12, "velocity": 59}, {"time": 243, "pitch": 63, "duration": 5, "velocity": 104}, {"time": 243, "pitch": 67, "duration": 4, "velocity": 107}, {"time": 249, "pitch": 65, "duration": 3, "velocity": 109}, {"time": 252, "pitch": 67, "duration": 3, "velocity": 107}, {"time": 255, "pitch": 48, "duration": 19, "velocity": 99}, {"time": 255, "pitch": 63, "duration": 10, "velocity": 101}, {"time": 261, "pitch": 55, "duration": 11, "velocity": 68}, {"time": 267, "pitch": 60, "duration": 5, "velocity": 99}, {"time": 267, "pitch": 63, "duration": 6, "velocity": 106}, {"time": 267, "pitch": 67, "duration": 5, "velocity": 110}, {"time": 279, "pitch": 60, "duration": 6, "velocity": 89}, {"time": 279, "pitch": 63, "duration": 7, "velocity": 96}, {"time": 291, "pitch": 48, "duration": 9, "velocity": 91}, {"time": 291, "pitch": 60, "duration": 7, "velocity": 104}, {"time": 291, "pitch": 63, "duration": 7, "velocity": 106}, {"time": 291, "pitch": 67, "duration": 7, "velocity": 110}, {"time": 297, "pitch": 55, "duration": 2, "velocity": 68}, {"time": 303, "pitch": 44, "duration": 18, "velocity": 104}, {"time": 303, "pitch": 56, "duration": 10, "velocity": 99}, {"time": 303, "pitch": 60, "duration": 9, "velocity": 99}, {"time": 309, "pitch": 51, "duration": 11, "velocity": 78}, {"time": 315, "pitch": 56, "duration": 5, "velocity": 109}, {"time": 315, "pitch": 63, "duration": 5, "velocity": 109}, {"time": 327, "pitch": 43, "duration": 12, "velocity": 107}, {"time": 327, "pitch": 55, "duration": 10, "velocity": 93}, {"time": 327, "pitch": 62, "duration": 9, "velocity": 99}, {"time": 333, "pitch": 50, "duration": 6, "velocity": 56}, {"time": 339, "pitch": 55, "duration": 2, "velocity": 110}, {"time": 339, "pitch": 58, "duration": 2, "velocity": 112}, {"time": 339, "pitch": 62, "duration": 2, "velocity": 113}, {"time": 351, "pitch": 41, "duration": 15, "velocity": 99}, {"time": 351, "pitch": 53, "duration": 5, "velocity": 91}, {"time": 351, "pitch": 56, "duration": 6, "velocity": 99}, {"time": 351, "pitch": 63, "duration": 5, "velocity": 101}, {"time": 357, "pitch": 48, "duration": 7, "velocity": 34}, {"time": 363, "pitch": 53, "duration": 5, "velocity": 99}, {"time": 363, "pitch": 56, "duration": 5, "velocity": 106}, {"time": 363, "pitch": 63, "duration": 7, "velocity": 109}, {"time": 375, "pitch": 46, "duration": 15, "velocity": 104}, {"time": 375, "pitch": 58, "duration": 10, "velocity": 94}, {"time": 375, "pitch": 62, "duration": 9, "velocity": 96}, {"time": 381, "pitch": 53, "duration": 8, "velocity": 55}, {"time": 387, "pitch": 58, "duration": 7, "velocity": 109}, {"time": 387, "pitch": 62, "duration": 6, "velocity": 120}, {"time": 387, "pitch": 65, "duration": 7, "velocity": 109}, {"time": 393, "pitch": 46, "duration": 2, "velocity": 104}, {"time": 399, "pitch": 43, "duration": 14, "velocity": 110}, {"time": 399, "pitch": 55, "duration": 10, "velocity": 79}, {"time": 399, "pitch": 58, "duration": 9, "velocity": 96}, {"time": 399, "pitch": 62, "duration": 9, "velocity": 66}, {"time": 405, "pitch": 50, "duration": 8, "velocity": 91}, {"time": 411, "pitch": 55, "duration": 2, "velocity": 117}, {"time": 411, "pitch": 58, "duration": 2, "velocity": 106}, {"time": 411, "pitch": 62, "duration": 3, "velocity": 107}, {"time": 423, "pitch": 48, "duration": 15, "velocity": 91}, {"time": 423, "pitch": 60, "duration": 10, "velocity": 89}, {"time": 423, "pitch": 63, "duration": 10, "velocity": 99}, {"time": 429, "pitch": 55, "duration": 7, "velocity": 91}, {"time": 435, "pitch": 60, "duration": 3, "velocity": 109}, {"time": 435, "pitch": 63, "duration": 4, "velocity": 109}, {"time": 435, "pitch": 67, "duration": 4, "velocity": 117}, {"time": 441, "pitch": 48, "duration": 2, "velocity": 96}, {"time": 447, "pitch": 41, "duration": 25, "velocity": 101}, {"time": 447, "pitch": 53, "duration": 9, "velocity": 96}, {"time": 447, "pitch": 56, "duration": 8, "velocity": 99}, {"time": 453, "pitch": 48, "duration": 8, "velocity": 56}, {"time": 459, "pitch": 53, "duration": 3, "velocity": 106}, {"time": 459, "pitch": 56, "duration": 4, "velocity": 112}, {"time": 459, "pitch": 60, "duration": 6, "velocity": 106}, {"time": 471, "pitch": 56, "duration": 6, "velocity": 104}, {"time": 471, "pitch": 60, "duration": 7, "velocity": 101}, {"time": 483, "pitch": 56, "duration": 7, "velocity": 109}, {"time": 483, "pitch": 60, "duration": 7, "velocity": 112}, {"time": 483, "pitch": 65, "duration": 9, "velocity": 106}, {"time": 489, "pitch": 53, "duration": 2, "velocity": 104}, {"time": 495, "pitch": 46, "duration": 32, "velocity": 106}, {"time": 495, "pitch": 58, "duration": 14, "velocity": 104}, {"time": 495, "pitch": 62, "duration": 10, "velocity": 101}, {"time": 501, "pitch": 53, "duration": 20, "velocity": 94}, {"time": 507, "pitch": 62, "duration": 8, "velocity": 107}, {"time": 507, "pitch": 65, "duration": 10, "velocity": 106}, {"time": 513, "pitch": 58, "duration": 4, "velocity": 87}, {"time": 519, "pitch": 62, "duration": 7, "velocity": 120}, {"time": 519, "pitch": 65, "duration": 7, "velocity": 109}, {"time": 519, "pitch": 70, "duration": 6, "velocity": 99}, {"time": 531, "pitch": 58, "duration": 11, "velocity": 109}, {"time": 531, "pitch": 62, "duration": 11, "velocity": 120}, {"time": 531, "pitch": 65, "duration": 11, "velocity": 109}, {"time": 531, "pitch": 70, "duration": 7, "velocity": 104}, {"time": 537, "pitch": 53, "duration": 5, "velocity": 96}, {"time": 543, "pitch": 51, "duration": 44, "velocity": 99}, {"time": 543, "pitch": 63, "duration": 10, "velocity": 99}, {"time": 543, "pitch": 67, "duration": 11, "velocity": 101}, {"time": 549, "pitch": 58, "duration": 9, "velocity": 80}, {"time": 555, "pitch": 63, "duration": 9, "velocity": 106}, {"time": 555, "pitch": 67, "duration": 9, "velocity": 110}, {"time": 567, "pitch": 63, "duration": 8, "velocity": 101}, {"time": 567, "pitch": 67, "duration": 8, "velocity": 99}, {"time": 567, "pitch": 70, "duration": 7, "velocity": 106}, {"time": 573, "pitch": 58, "duration": 12, "velocity": 59}, {"time": 579, "pitch": 63, "duration": 5, "velocity": 104}, {"time": 579, "pitch": 67, "duration": 4, "velocity": 107}, {"time": 585, "pitch": 65, "duration": 3, "velocity": 109}, {"time": 588, "pitch": 67, "duration": 3, "velocity": 107}, {"time": 591, "pitch": 48, "duration": 19, "velocity": 99}, {"time": 591, "pitch": 63, "duration": 10, "velocity": 101}, {"time": 597, "pitch": 55, "duration": 11, "velocity": 68}, {"time": 603, "pitch": 60, "duration": 5, "velocity": 99}, {"time": 603, "pitch": 63, "duration": 6, "velocity": 106}, {"time": 603, "pitch": 67, "duration": 5, "velocity": 110}, {"time": 615, "pitch": 60, "duration": 6, "velocity": 89}, {"time": 615, "pitch": 63, "duration": 7, "velocity": 96}, {"time": 627, "pitch": 48, "duration": 9, "velocity": 91}, {"time": 627, "pitch": 60, "duration": 7, "velocity": 104}, {"time": 627, "pitch": 63, "duration": 7, "velocity": 106}, {"time": 627, "pitch": 67, "duration": 7, "velocity": 110}, {"time": 633, "pitch": 55, "duration": 2, "velocity": 68}, {"time": 639, "pitch": 44, "duration": 18, "velocity": 104}, {"time": 639, "pitch": 56, "duration": 10, "velocity": 99}, {"time": 639, "pitch": 60, "duration": 9, "velocity": 99}, {"time": 645, "pitch": 51, "duration": 11, "velocity": 78}, {"time": 651, "pitch": 56, "duration": 5, "velocity": 109}, {"time": 651, "pitch": 63, "duration": 5, "velocity": 109}, {"time": 663, "pitch": 43, "duration": 12, "velocity": 107}, {"time": 663, "pitch": 55, "duration": 10, "velocity": 93}, {"time": 663, "pitch": 62, "duration": 9, "velocity": 99}, {"time": 669, "pitch": 50, "duration": 6, "velocity": 56}, {"time": 675, "pitch": 55, "duration": 2, "velocity": 110}, {"time": 675, "pitch": 58, "duration": 2, "velocity": 112}, {"time": 675, "pitch": 62, "duration": 2, "velocity": 113}, {"time": 687, "pitch": 41, "duration": 15, "velocity": 99}, {"time": 687, "pitch": 53, "duration": 5, "velocity": 91}, {"time": 687, "pitch": 56, "duration": 6, "velocity": 99}, {"time": 687, "pitch": 63, "duration": 5, "velocity": 101}, {"time": 693, "pitch": 48, "duration": 7, "velocity": 34}, {"time": 699, "pitch": 53, "duration": 5, "velocity": 99}, {"time": 699, "pitch": 56, "duration": 5, "velocity": 106}, {"time": 699, "pitch": 63, "duration": 7, "velocity": 109}, {"time": 711, "pitch": 46, "duration": 15, "velocity": 104}, {"time": 711, "pitch": 58, "duration": 10, "velocity": 94}, {"time": 711, "pitch": 62, "duration": 9, "velocity": 96}, {"time": 717, "pitch": 53, "duration": 8, "velocity": 55}, {"time": 723, "pitch": 58, "duration": 7, "velocity": 109}, {"time": 723, "pitch": 62, "duration": 6, "velocity": 120}, {"time": 723, "pitch": 65, "duration": 7, "velocity": 109}, {"time": 729, "pitch": 46, "duration": 2, "velocity": 104}, {"time": 735, "pitch": 43, "duration": 14, "velocity": 110}, {"time": 735, "pitch": 55, "duration": 10, "velocity": 79}, {"time": 735, "pitch": 58, "duration": 9, "velocity": 96}, {"time": 735, "pitch": 62, "duration": 9, "velocity": 66}, {"time": 741, "pitch": 50, "duration": 8, "velocity": 91}, {"time": 747, "pitch": 55, "duration": 2, "velocity": 117}, {"time": 747, "pitch": 58, "duration": 2, "velocity": 106}, {"time": 747, "pitch": 62, "duration": 3, "velocity": 107}, {"time": 759, "pitch": 48, "duration": 15, "velocity": 91}, {"time": 759, "pitch": 60, "duration": 10, "velocity": 89}, {"time": 759, "pitch": 63, "duration": 10, "velocity": 99}, {"time": 765, "pitch": 55, "duration": 7, "velocity": 91}, {"time": 771, "pitch": 60, "duration": 3, "velocity": 109}, {"time": 771, "pitch": 63, "duration": 4, "velocity": 109}, {"time": 771, "pitch": 67, "duration": 4, "velocity": 117}, {"time": 777, "pitch": 48, "duration": 2, "velocity": 96}, {"time": 783, "pitch": 41, "duration": 25, "velocity": 101}, {"time": 783, "pitch": 53, "duration": 9, "velocity": 96}, {"time": 783, "pitch": 56, "duration": 8, "velocity": 99}, {"time": 789, "pitch": 48, "duration": 8, "velocity": 56}, {"time": 795, "pitch": 53, "duration": 3, "velocity": 106}, {"time": 795, "pitch": 56, "duration": 4, "velocity": 112}, {"time": 795, "pitch": 60, "duration": 6, "velocity": 106}, {"time": 807, "pitch": 56, "duration": 6, "velocity": 104}, {"time": 807, "pitch": 60, "duration": 7, "velocity": 101}, {"time": 819, "pitch": 56, "duration": 7, "velocity": 109}, {"time": 819, "pitch": 60, "duration": 7, "velocity": 112}, {"time": 819, "pitch": 65, "duration": 9, "velocity": 106}, {"time": 825, "pitch": 53, "duration": 2, "velocity": 104}, {"time": 831, "pitch": 46, "duration": 32, "velocity": 106}, {"time": 831, "pitch": 58, "duration": 14, "velocity": 104}, {"time": 831, "pitch": 62, "duration": 10, "velocity": 101}, {"time": 837, "pitch": 53, "duration": 20, "velocity": 94}, {"time": 843, "pitch": 62, "duration": 8, "velocity": 107}, {"time": 843, "pitch": 65, "duration": 10, "velocity": 106}, {"time": 849, "pitch": 58, "duration": 4, "velocity": 87}, {"time": 855, "pitch": 62, "duration": 7, "velocity": 120}, {"time": 855, "pitch": 65, "duration": 7, "velocity": 109}, {"time": 855, "pitch": 70, "duration": 6, "velocity": 99}, {"time": 867, "pitch": 58, "duration": 11, "velocity": 109}, {"time": 867, "pitch": 62, "duration": 11, "velocity": 120}, {"time": 867, "pitch": 65, "duration": 11, "velocity": 109}, {"time": 867, "pitch": 70, "duration": 7, "velocity": 104}, {"time": 873, "pitch": 53, "duration": 5, "velocity": 96}, {"time": 879, "pitch": 44, "duration": 14, "velocity": 109}, {"time": 879, "pitch": 56, "duration": 9, "velocity": 106}, {"time": 879, "pitch": 60, "duration": 10, "velocity": 109}, {"time": 885, "pitch": 51, "duration": 7, "velocity": 80}, {"time": 891, "pitch": 56, "duration": 9, "velocity": 115}, {"time": 891, "pitch": 60, "duration": 11, "velocity": 118}, {"time": 897, "pitch": 44, "duration": 4, "velocity": 106}, {"time": 903, "pitch": 46, "duration": 12, "velocity": 112}, {"time": 903, "pitch": 58, "duration": 5, "velocity": 109}, {"time": 903, "pitch": 62, "duration": 6, "velocity": 117}, {"time": 909, "pitch": 53, "duration": 6, "velocity": 96}, {"time": 912, "pitch": 58, "duration": 2, "velocity": 112}, {"time": 915, "pitch": 46, "duration": 7, "velocity": 112}, {"time": 915, "pitch": 53, "duration": 7, "velocity": 112}, {"time": 915, "pitch": 58, "duration": 3, "velocity": 115}, {"time": 915, "pitch": 62, "duration": 4, "velocity": 123}, {"time": 921, "pitch": 58, "duration": 2, "velocity": 104}, {"time": 921, "pitch": 63, "duration": 2, "velocity": 104}, {"time": 924, "pitch": 65, "duration": 2, "velocity": 106}, {"time": 927, "pitch": 51, "duration": 15, "velocity": 109}, {"time": 927, "pitch": 63, "duration": 7, "velocity": 109}, {"time": 927, "pitch": 67, "duration": 7, "velocity": 113}, {"time": 933, "pitch": 58, "duration": 7, "velocity": 76}, {"time": 939, "pitch": 63, "duration": 6, "velocity": 106}, {"time": 939, "pitch": 67, "duration": 6, "velocity": 120}, {"time": 939, "pitch": 70, "duration": 7, "velocity": 106}, {"time": 945, "pitch": 51, "duration": 4, "velocity": 106}, {"time": 951, "pitch": 48, "duration": 15, "velocity": 71}, {"time": 951, "pitch": 60, "duration": 6, "velocity": 101}, {"time": 951, "pitch": 63, "duration": 9, "velocity": 104}, {"time": 951, "pitch": 67, "duration": 9, "velocity": 104}, {"time": 957, "pitch": 60, "duration": 4, "velocity": 87}, {"time": 963, "pitch": 60, "duration": 4, "velocity": 115}, {"time": 963, "pitch": 63, "duration": 7, "velocity": 115}, {"time": 963, "pitch": 67, "duration": 7, "velocity": 120}, {"time": 969, "pitch": 60, "duration": 2, "velocity": 91}, {"time": 975, "pitch": 44, "duration": 13, "velocity": 106}, {"time": 975, "pitch": 56, "duration": 8, "velocity": 106}, {"time": 975, "pitch": 60, "duration": 7, "velocity": 101}, {"time": 981, "pitch": 51, "duration": 7, "velocity": 58}, {"time": 987, "pitch": 56, "duration": 3, "velocity": 115}, {"time": 987, "pitch": 60, "duration": 3, "velocity": 115}, {"time": 987, "pitch": 63, "duration": 3, "velocity": 112}, {"time": 993, "pitch": 44, "duration": 2, "velocity": 99}, {"time": 999, "pitch": 43, "duration": 14, "velocity": 113}, {"time": 999, "pitch": 58, "duration": 9, "velocity": 106}, {"time": 999, "pitch": 62, "duration": 9, "velocity": 110}, {"time": 1005, "pitch": 50, "duration": 9, "velocity": 96}, {"time": 1011, "pitch": 58, "duration": 2, "velocity": 112}, {"time": 1011, "pitch": 62, "duration": 6, "velocity": 120}, {"time": 1011, "pitch": 67, "duration": 6, "velocity": 113}, {"time": 1017, "pitch": 58, "duration": 2, "velocity": 118}, {"time": 1023, "pitch": 41, "duration": 15, "velocity": 104}, {"time": 1023, "pitch": 53, "duration": 10, "velocity": 94}, {"time": 1023, "pitch": 56, "duration": 8, "velocity": 104}, {"time": 1029, "pitch": 48, "duration": 9, "velocity": 71}, {"time": 1035, "pitch": 53, "duration": 4, "velocity": 106}, {"time": 1035, "pitch": 56, "duration": 6, "velocity": 115}, {"time": 1035, "pitch": 60, "duration": 7, "velocity": 109}, {"time": 1041, "pitch": 41, "duration": 2, "velocity": 101}, {"time": 1041, "pitch": 53, "duration": 2, "velocity": 101}, {"time": 1047, "pitch": 43, "duration": 14, "velocity": 117}, {"time": 1047, "pitch": 55, "duration": 9, "velocity": 93}, {"time": 1047, "pitch": 58, "duration": 8, "velocity": 106}, {"time": 1047, "pitch": 62, "duration": 8, "velocity": 107}, {"time": 1053, "pitch": 50, "duration": 9, "velocity": 81}, {"time": 1059, "pitch": 55, "duration": 3, "velocity": 117}, {"time": 1059, "pitch": 58, "duration": 3, "velocity": 115}, {"time": 1059, "pitch": 62, "duration": 3, "velocity": 117}, {"time": 1065, "pitch": 43, "duration": 2, "velocity": 104}, {"time": 1071, "pitch": 41, "duration": 15, "velocity": 109}, {"time": 1071, "pitch": 56, "duration": 9, "velocity": 106}, {"time": 1071, "pitch": 60, "duration": 10, "velocity": 109}, {"time": 1077, "pitch": 48, "duration": 7, "velocity": 69}, {"time": 1083, "pitch": 56, "duration": 3, "velocity": 109}, {"time": 1083, "pitch": 60, "duration": 7, "velocity": 115}, {"time": 1083, "pitch": 65, "duration": 9, "velocity": 109}, {"time": 1089, "pitch": 56, "duration": 2, "velocity": 115}, {"time": 1095, "pitch": 46, "duration": 17, "velocity": 109}, {"time": 1095, "pitch": 58, "duration": 7, "velocity": 112}, {"time": 1095, "pitch": 62, "duration": 9, "velocity": 120}, {"time": 1101, "pitch": 53, "duration": 10, "velocity": 99}, {"time": 1104, "pitch": 58, "duration": 2, "velocity": 109}, {"time": 1107, "pitch": 62, "duration": 2, "velocity": 123}, {"time": 1110, "pitch": 63, "duration": 4, "velocity": 115}, {"time": 1113, "pitch": 65, "duration": 3, "velocity": 121}, {"time": 1119, "pitch": 51, "duration": 14, "velocity": 109}, {"time": 1119, "pitch": 63, "duration": 7, "velocity": 112}, {"time": 1119, "pitch": 67, "duration": 8, "velocity": 117}, {"time": 1125, "pitch": 58, "duration": 8, "velocity": 94}, {"time": 1131, "pitch": 63, "duration": 6, "velocity": 115}, {"time": 1131, "pitch": 67, "duration": 5, "velocity": 123}, {"time": 1131, "pitch": 70, "duration": 7, "velocity": 115}, {"time": 1137, "pitch": 51, "duration": 2, "velocity": 109}, {"time": 1143, "pitch": 48, "duration": 14, "velocity": 104}, {"time": 1143, "pitch": 60, "duration": 8, "velocity": 96}, {"time": 1143, "pitch": 63, "duration": 8, "velocity": 109}, {"time": 1149, "pitch": 55, "duration": 8, "velocity": 77}, {"time": 1155, "pitch": 60, "duration": 4, "velocity": 109}, {"time": 1155, "pitch": 63, "duration": 6, "velocity": 115}, {"time": 1155, "pitch": 67, "duration": 7, "velocity": 120}, {"time": 1161, "pitch": 60, "duration": 2, "velocity": 112}, {"time": 1167, "pitch": 44, "duration": 15, "velocity": 104}, {"time": 1167, "pitch": 56, "duration": 9, "velocity": 101}, {"time": 1167, "pitch": 60, "duration": 7, "velocity": 104}, {"time": 1173, "pitch": 51, "duration": 8, "velocity": 58}, {"time": 1179, "pitch": 56, "duration": 3, "velocity": 112}, {"time": 1179, "pitch": 60, "duration": 3, "velocity": 115}, {"time": 1179, "pitch": 63, "duration": 3, "velocity": 112}, {"time": 1185, "pitch": 44, "duration": 2, "velocity": 104}, {"time": 1191, "pitch": 43, "duration": 15, "velocity": 101}, {"time": 1191, "pitch": 62, "duration": 9, "velocity": 117}, {"time": 1191, "pitch": 67, "duration": 10, "velocity": 113}, {"time": 1197, "pitch": 50, "duration": 10, "velocity": 91}, {"time": 1203, "pitch": 58, "duration": 3, "velocity": 115}, {"time": 1203, "pitch": 62, "duration": 6, "velocity": 120}, {"time": 1203, "pitch": 67, "duration": 6, "velocity": 120}, {"time": 1209, "pitch": 58, "duration": 2, "velocity": 109}, {"time": 1215, "pitch": 41, "duration": 15, "velocity": 106}, {"time": 1215, "pitch": 53, "duration": 9, "velocity": 101}, {"time": 1215, "pitch": 56, "duration": 7, "velocity": 101}, {"time": 1221, "pitch": 48, "duration": 8, "velocity": 67}, {"time": 1227, "pitch": 53, "duration": 3, "velocity": 109}, {"time": 1227, "pitch": 56, "duration": 4, "velocity": 115}, {"time": 1227, "pitch": 60, "duration": 6, "velocity": 112}, {"time": 1233, "pitch": 53, "duration": 2, "velocity": 101}, {"time": 1239, "pitch": 43, "duration": 14, "velocity": 117}, {"time": 1239, "pitch": 55, "duration": 8, "velocity": 104}, {"time": 1239, "pitch": 58, "duration": 8, "velocity": 112}, {"time": 1239, "pitch": 62, "duration": 7, "velocity": 101}, {"time": 1245, "pitch": 50, "duration": 9, "velocity": 93}, {"time": 1251, "pitch": 55, "duration": 2, "velocity": 120}, {"time": 1251, "pitch": 58, "duration": 2, "velocity": 118}, {"time": 1251, "pitch": 62, "duration": 3, "velocity": 120}, {"time": 1257, "pitch": 43, "duration": 2, "velocity": 120}, {"time": 1263, "pitch": 41, "duration": 15, "velocity": 106}, {"time": 1263, "pitch": 60, "duration": 9, "velocity": 106}, {"time": 1263, "pitch": 65, "duration": 8, "velocity": 109}, {"time": 1269, "pitch": 48, "duration": 8, "velocity": 56}, {"time": 1275, "pitch": 60, "duration": 3, "velocity": 112}, {"time": 1275, "pitch": 65, "duration": 5, "velocity": 118}, {"time": 1275, "pitch": 68, "duration": 7, "velocity": 115}, {"time": 1281, "pitch": 60, "duration": 2, "velocity": 112}, {"time": 1287, "pitch": 46, "duration": 17, "velocity": 106}, {"time": 1287, "pitch": 58, "duration": 8, "velocity": 106}, {"time": 1287, "pitch": 62, "duration": 9, "velocity": 113}, {"time": 1287, "pitch": 65, "duration": 8, "velocity": 101}, {"time": 1293, "pitch": 53, "duration": 7, "velocity": 91}, {"time": 1299, "pitch": 58, "duration": 3, "velocity": 115}, {"time": 1299, "pitch": 62, "duration": 7, "velocity": 123}, {"time": 1299, "pitch": 65, "duration": 7, "velocity": 109}, {"time": 1305, "pitch": 58, "duration": 4, "velocity": 104}, {"time": 1311, "pitch": 44, "duration": 22, "velocity": 101}, {"time": 1311, "pitch": 63, "duration": 7, "velocity": 112}, {"time": 1311, "pitch": 68, "duration": 7, "velocity": 112}, {"time": 1317, "pitch": 51, "duration": 4, "velocity": 76}, {"time": 1320, "pitch": 63, "duration": 5, "velocity": 109}, {"time": 1320, "pitch": 70, "duration": 5, "velocity": 112}, {"time": 1323, "pitch": 51, "duration": 7, "velocity": 69}, {"time": 1326, "pitch": 63, "duration": 4, "velocity": 109}, {"time": 1326, "pitch": 68, "duration": 6, "velocity": 106}, {"time": 1332, "pitch": 63, "duration": 2, "velocity": 82}, {"time": 1335, "pitch": 44, "duration": 17, "velocity": 106}, {"time": 1335, "pitch": 63, "duration": 10, "velocity": 109}, {"time": 1335, "pitch": 68, "duration": 10, "velocity": 104}, {"time": 1341, "pitch": 51, "duration": 7, "velocity": 56}, {"time": 1347, "pitch": 63, "duration": 4, "velocity": 118}, {"time": 1347, "pitch": 68, "duration": 6, "velocity": 115}, {"time": 1350, "pitch": 51, "duration": 3, "velocity": 85}, {"time": 1353, "pitch": 63, "duration": 4, "velocity": 109}, {"time": 1356, "pitch": 68, "duration": 2, "velocity": 96}, {"time": 1359, "pitch": 46, "duration": 20, "velocity": 106}, {"time": 1359, "pitch": 65, "duration": 6, "velocity": 106}, {"time": 1359, "pitch": 70, "duration": 7, "velocity": 112}, {"time": 1365, "pitch": 53, "duration": 11, "velocity": 80}, {"time": 1371, "pitch": 58, "duration": 4, "velocity": 109}, {"time": 1374, "pitch": 65, "duration": 5, "velocity": 109}, {"time": 1377, "pitch": 58, "duration": 3, "velocity": 96}, {"time": 1383, "pitch": 46, "duration": 22, "velocity": 101}, {"time": 1383, "pitch": 58, "duration": 22, "velocity": 94}, {"time": 1383, "pitch": 62, "duration": 22, "velocity": 99}, {"time": 1383, "pitch": 65, "duration": 23, "velocity": 99}, {"time": 1383, "pitch": 70, "duration": 22, "velocity": 85}, {"time": 1407, "pitch": 51, "duration": 20, "velocity": 106}, {"time": 1407, "pitch": 63, "duration": 7, "velocity": 99}, {"time": 1407, "pitch": 67, "duration": 6, "velocity": 107}, {"time": 1407, "pitch": 70, "duration": 7, "velocity": 104}, {"time": 1413, "pitch": 58, "duration": 7, "velocity": 80}, {"time": 1419, "pitch": 63, "duration": 5, "velocity": 109}, {"time": 1419, "pitch": 67, "duration": 4, "velocity": 120}, {"time": 1419, "pitch": 70, "duration": 5, "velocity": 109}, {"time": 1425, "pitch": 58, "duration": 3, "velocity": 99}, {"time": 1428, "pitch": 62, "duration": 2, "velocity": 99}, {"time": 1431, "pitch": 48, "duration": 15, "velocity": 101}, {"time": 1431, "pitch": 60, "duration": 7, "velocity": 94}, {"time": 1431, "pitch": 63, "duration": 7, "velocity": 104}, {"time": 1437, "pitch": 55, "duration": 9, "velocity": 74}, {"time": 1443, "pitch": 60, "duration": 5, "velocity": 104}, {"time": 1443, "pitch": 63, "duration": 5, "velocity": 109}, {"time": 1443, "pitch": 67, "duration": 5, "velocity": 113}, {"time": 1449, "pitch": 48, "duration": 2, "velocity": 89}, {"time": 1455, "pitch": 44, "duration": 18, "velocity": 106}, {"time": 1455, "pitch": 56, "duration": 9, "velocity": 99}, {"time": 1455, "pitch": 60, "duration": 7, "velocity": 99}, {"time": 1461, "pitch": 51, "duration": 6, "velocity": 64}, {"time": 1467, "pitch": 56, "duration": 3, "velocity": 109}, {"time": 1467, "pitch": 60, "duration": 3, "velocity": 109}, {"time": 1467, "pitch": 63, "duration": 3, "velocity": 109}, {"time": 1470, "pitch": 51, "duration": 3, "velocity": 78}, {"time": 1479, "pitch": 43, "duration": 14, "velocity": 104}, {"time": 1479, "pitch": 55, "duration": 3, "velocity": 104}, {"time": 1479, "pitch": 58, "duration": 4, "velocity": 106}, {"time": 1485, "pitch": 50, "duration": 9, "velocity": 81}, {"time": 1491, "pitch": 55, "duration": 3, "velocity": 113}, {"time": 1491, "pitch": 58, "duration": 3, "velocity": 112}, {"time": 1491, "pitch": 62, "duration": 4, "velocity": 113}, {"time": 1497, "pitch": 43, "duration": 2, "velocity": 68}, {"time": 1503, "pitch": 41, "duration": 2, "velocity": 101}, {"time": 1503, "pitch": 56, "duration": 4, "velocity": 101}, {"time": 1503, "pitch": 60, "duration": 5, "velocity": 104}, {"time": 1509, "pitch": 53, "duration": 5, "velocity": 94}, {"time": 1515, "pitch": 53, "duration": 3, "velocity": 99}, {"time": 1515, "pitch": 60, "duration": 5, "velocity": 109}, {"time": 1515, "pitch": 65, "duration": 6, "velocity": 106}, {"time": 1515, "pitch": 68, "duration": 7, "velocity": 112}, {"time": 1521, "pitch": 53, "duration": 1, "velocity": 87}, {"time": 1527, "pitch": 43, "duration": 19, "velocity": 110}, {"time": 1527, "pitch": 55, "duration": 11, "velocity": 101}, {"time": 1527, "pitch": 58, "duration": 8, "velocity": 112}, {"time": 1533, "pitch": 50, "duration": 8, "velocity": 99}, {"time": 1539, "pitch": 55, "duration": 6, "velocity": 107}, {"time": 1539, "pitch": 58, "duration": 6, "velocity": 109}, {"time": 1539, "pitch": 62, "duration": 6, "velocity": 104}, {"time": 1545, "pitch": 50, "duration": 3, "velocity": 104}, {"time": 1551, "pitch": 41, "duration": 15, "velocity": 106}, {"time": 1551, "pitch": 53, "duration": 10, "velocity": 96}, {"time": 1551, "pitch": 56, "duration": 8, "velocity": 101}, {"time": 1557, "pitch": 48, "duration": 8, "velocity": 64}, {"time": 1563, "pitch": 53, "duration": 4, "velocity": 104}, {"time": 1563, "pitch": 56, "duration": 4, "velocity": 109}, {"time": 1563, "pitch": 60, "duration": 5, "velocity": 104}, {"time": 1575, "pitch": 46, "duration": 24, "velocity": 106}, {"time": 1575, "pitch": 58, "duration": 24, "velocity": 104}, {"time": 1575, "pitch": 62, "duration": 24, "velocity": 104}, {"time": 1581, "pitch": 53, "duration": 17, "velocity": 52}, {"time": 1599, "pitch": 51, "duration": 44, "velocity": 99}, {"time": 1599, "pitch": 63, "duration": 10, "velocity": 99}, {"time": 1599, "pitch": 67, "duration": 11, "velocity": 101}, {"time": 1605, "pitch": 58, "duration": 9, "velocity": 80}, {"time": 1611, "pitch": 63, "duration": 9, "velocity": 106}, {"time": 1611, "pitch": 67, "duration": 9, "velocity": 110}, {"time": 1623, "pitch": 63, "duration": 8, "velocity": 101}, {"time": 1623, "pitch": 67, "duration": 8, "velocity": 99}, {"time": 1623, "pitch": 70, "duration": 7, "velocity": 106}, {"time": 1629, "pitch": 58, "duration": 12, "velocity": 59}, {"time": 1635, "pitch": 63, "duration": 5, "velocity": 104}, {"time": 1635, "pitch": 67, "duration": 4, "velocity": 107}, {"time": 1641, "pitch": 65, "duration": 3, "velocity": 109}, {"time": 1644, "pitch": 67, "duration": 3, "velocity": 107}, {"time": 1647, "pitch": 48, "duration": 19, "velocity": 99}, {"time": 1647, "pitch": 63, "duration": 10, "velocity": 101}, {"time": 1653, "pitch": 55, "duration": 11, "velocity": 68}, {"time": 1659, "pitch": 60, "duration": 5, "velocity": 99}, {"time": 1659, "pitch": 63, "duration": 6, "velocity": 106}, {"time": 1659, "pitch": 67, "duration": 5, "velocity": 110}, {"time": 1671, "pitch": 60, "duration": 6, "velocity": 89}, {"time": 1671, "pitch": 63, "duration": 7, "velocity": 96}, {"time": 1683, "pitch": 48, "duration": 9, "velocity": 91}, {"time": 1683, "pitch": 60, "duration": 7, "velocity": 104}, {"time": 1683, "pitch": 63, "duration": 7, "velocity": 106}, {"time": 1683, "pitch": 67, "duration": 7, "velocity": 110}, {"time": 1689, "pitch": 55, "duration": 2, "velocity": 68}, {"time": 1695, "pitch": 44, "duration": 18, "velocity": 104}, {"time": 1695, "pitch": 56, "duration": 10, "velocity": 99}, {"time": 1695, "pitch": 60, "duration": 9, "velocity": 99}, {"time": 1701, "pitch": 51, "duration": 11, "velocity": 78}, {"time": 1707, "pitch": 56, "duration": 5, "velocity": 109}, {"time": 1707, "pitch": 63, "duration": 5, "velocity": 109}, {"time": 1719, "pitch": 43, "duration": 12, "velocity": 107}, {"time": 1719, "pitch": 55, "duration": 10, "velocity": 93}, {"time": 1719, "pitch": 62, "duration": 9, "velocity": 99}, {"time": 1725, "pitch": 50, "duration": 6, "velocity": 56}, {"time": 1731, "pitch": 55, "duration": 2, "velocity": 110}, {"time": 1731, "pitch": 58, "duration": 2, "velocity": 112}, {"time": 1731, "pitch": 62, "duration": 2, "velocity": 113}, {"time": 1743, "pitch": 41, "duration": 15, "velocity": 99}, {"time": 1743, "pitch": 53, "duration": 5, "velocity": 91}, {"time": 1743, "pitch": 56, "duration": 6, "velocity": 99}, {"time": 1743, "pitch": 63, "duration": 5, "velocity": 101}, {"time": 1749, "pitch": 48, "duration": 7, "velocity": 34}, {"time": 1755, "pitch": 53, "duration": 5, "velocity": 99}, {"time": 1755, "pitch": 56, "duration": 5, "velocity": 106}, {"time": 1755, "pitch": 63, "duration": 7, "velocity": 109}, {"time": 1767, "pitch": 46, "duration": 15, "velocity": 104}, {"time": 1767, "pitch": 58, "duration": 10, "velocity": 94}, {"time": 1767, "pitch": 62, "duration": 9, "velocity": 96}, {"time": 1773, "pitch": 53, "duration": 8, "velocity": 55}, {"time": 1779, "pitch": 58, "duration": 7, "velocity": 109}, {"time": 1779, "pitch": 62, "duration": 6, "velocity": 120}, {"time": 1779, "pitch": 65, "duration": 7, "velocity": 109}, {"time": 1785, "pitch": 46, "duration": 2, "velocity": 104}, {"time": 1791, "pitch": 43, "duration": 14, "velocity": 110}, {"time": 1791, "pitch": 55, "duration": 10, "velocity": 79}, {"time": 1791, "pitch": 58, "duration": 9, "velocity": 96}, {"time": 1791, "pitch": 62, "duration": 9, "velocity": 66}, {"time": 1797, "pitch": 50, "duration": 8, "velocity": 91}, {"time": 1803, "pitch": 55, "duration": 2, "velocity": 117}, {"time": 1803, "pitch": 58, "duration": 2, "velocity": 106}, {"time": 1803, "pitch": 62, "duration": 3, "velocity": 107}, {"time": 1815, "pitch": 48, "duration": 15, "velocity": 91}, {"time": 1815, "pitch": 60, "duration": 10, "velocity": 89}, {"time": 1815, "pitch": 63, "duration": 10, "velocity": 99}, {"time": 1821, "pitch": 55, "duration": 7, "velocity": 91}, {"time": 1827, "pitch": 60, "duration": 3, "velocity": 109}, {"time": 1827, "pitch": 63, "duration": 4, "velocity": 109}, {"time": 1827, "pitch": 67, "duration": 4, "velocity": 117}, {"time": 1833, "pitch": 48, "duration": 2, "velocity": 96}, {"time": 1839, "pitch": 41, "duration": 25, "velocity": 101}, {"time": 1839, "pitch": 53, "duration": 9, "velocity": 96}, {"time": 1839, "pitch": 56, "duration": 8, "velocity": 99}, {"time": 1845, "pitch": 48, "duration": 8, "velocity": 56}, {"time": 1851, "pitch": 53, "duration": 3, "velocity": 106}, {"time": 1851, "pitch": 56, "duration": 4, "velocity": 112}, {"time": 1851, "pitch": 60, "duration": 6, "velocity": 106}, {"time": 1863, "pitch": 56, "duration": 6, "velocity": 104}, {"time": 1863, "pitch": 60, "duration": 7, "velocity": 101}, {"time": 1875, "pitch": 56, "duration": 7, "velocity": 109}, {"time": 1875, "pitch": 60, "duration": 7, "velocity": 112}, {"time": 1875, "pitch": 65, "duration": 9, "velocity": 106}, {"time": 1881, "pitch": 53, "duration": 2, "velocity": 104}, {"time": 1887, "pitch": 46, "duration": 32, "velocity": 106}, {"time": 1887, "pitch": 58, "duration": 14, "velocity": 104}, {"time": 1887, "pitch": 62, "duration": 10, "velocity": 101}, {"time": 1893, "pitch": 53, "duration": 20, "velocity": 94}, {"time": 1899, "pitch": 62, "duration": 8, "velocity": 107}, {"time": 1899, "pitch": 65, "duration": 10, "velocity": 106}, {"time": 1905, "pitch": 58, "duration": 4, "velocity": 87}, {"time": 1911, "pitch": 62, "duration": 7, "velocity": 120}, {"time": 1911, "pitch": 65, "duration": 7, "velocity": 109}, {"time": 1911, "pitch": 70, "duration": 6, "velocity": 99}, {"time": 1923, "pitch": 58, "duration": 11, "velocity": 109}, {"time": 1923, "pitch": 62, "duration": 11, "velocity": 120}, {"time": 1923, "pitch": 65, "duration": 11, "velocity": 109}, {"time": 1923, "pitch": 70, "duration": 7, "velocity": 104}, {"time": 1929, "pitch": 53, "duration": 5, "velocity": 96}, {"time": 1935, "pitch": 44, "duration": 14, "velocity": 109}, {"time": 1935, "pitch": 56, "duration": 9, "velocity": 106}, {"time": 1935, "pitch": 60, "duration": 10, "velocity": 109}, {"time": 1941, "pitch": 51, "duration": 7, "velocity": 80}, {"time": 1947, "pitch": 56, "duration": 9, "velocity": 115}, {"time": 1947, "pitch": 60, "duration": 11, "velocity": 118}, {"time": 1953, "pitch": 44, "duration": 4, "velocity": 106}, {"time": 1959, "pitch": 46, "duration": 12, "velocity": 112}, {"time": 1959, "pitch": 58, "duration": 5, "velocity": 109}, {"time": 1959, "pitch": 62, "duration": 6, "velocity": 117}, {"time": 1965, "pitch": 53, "duration": 6, "velocity": 96}, {"time": 1968, "pitch": 58, "duration": 2, "velocity": 112}, {"time": 1971, "pitch": 46, "duration": 7, "velocity": 112}, {"time": 1971, "pitch": 53, "duration": 7, "velocity": 112}, {"time": 1971, "pitch": 58, "duration": 3, "velocity": 115}, {"time": 1971, "pitch": 62, "duration": 4, "velocity": 123}, {"time": 1977, "pitch": 58, "duration": 2, "velocity": 104}, {"time": 1977, "pitch": 63, "duration": 2, "velocity": 104}, {"time": 1980, "pitch": 65, "duration": 2, "velocity": 106}, {"time": 1983, "pitch": 51, "duration": 15, "velocity": 109}, {"time": 1983, "pitch": 63, "duration": 7, "velocity": 109}, {"time": 1983, "pitch": 67, "duration": 7, "velocity": 113}, {"time": 1989, "pitch": 58, "duration": 7, "velocity": 76}, {"time": 1995, "pitch": 63, "duration": 6, "velocity": 106}, {"time": 1995, "pitch": 67, "duration": 6, "velocity": 120}, {"time": 1995, "pitch": 70, "duration": 7, "velocity": 106}, {"time": 2001, "pitch": 51, "duration": 4, "velocity": 106}, {"time": 2007, "pitch": 48, "duration": 15, "velocity": 71}, {"time": 2007, "pitch": 60, "duration": 6, "velocity": 101}, {"time": 2007, "pitch": 63, "duration": 9, "velocity": 104}, {"time": 2007, "pitch": 67, "duration": 9, "velocity": 104}, {"time": 2013, "pitch": 60, "duration": 4, "velocity": 87}, {"time": 2019, "pitch": 60, "duration": 4, "velocity": 115}, {"time": 2019, "pitch": 63, "duration": 7, "velocity": 115}, {"time": 2019, "pitch": 67, "duration": 7, "velocity": 120}, {"time": 2025, "pitch": 60, "duration": 2, "velocity": 91}, {"time": 2031, "pitch": 44, "duration": 13, "velocity": 106}, {"time": 2031, "pitch": 56, "duration": 8, "velocity": 106}, {"time": 2031, "pitch": 60, "duration": 7, "velocity": 101}, {"time": 2037, "pitch": 51, "duration": 7, "velocity": 58}, {"time": 2043, "pitch": 56, "duration": 3, "velocity": 115}, {"time": 2043, "pitch": 60, "duration": 3, "velocity": 115}, {"time": 2043, "pitch": 63, "duration": 3, "velocity": 112}, {"time": 2049, "pitch": 44, "duration": 2, "velocity": 99}, {"time": 2055, "pitch": 43, "duration": 14, "velocity": 113}, {"time": 2055, "pitch": 58, "duration": 9, "velocity": 106}, {"time": 2055, "pitch": 62, "duration": 9, "velocity": 110}, {"time": 2061, "pitch": 50, "duration": 9, "velocity": 96}, {"time": 2067, "pitch": 58, "duration": 2, "velocity": 112}, {"time": 2067, "pitch": 62, "duration": 6, "velocity": 120}, {"time": 2067, "pitch": 67, "duration": 6, "velocity": 113}, {"time": 2073, "pitch": 58, "duration": 2, "velocity": 118}, {"time": 2079, "pitch": 41, "duration": 15, "velocity": 104}, {"time": 2079, "pitch": 53, "duration": 10, "velocity": 94}, {"time": 2079, "pitch": 56, "duration": 8, "velocity": 104}, {"time": 2085, "pitch": 48, "duration": 9, "velocity": 71}, {"time": 2091, "pitch": 53, "duration": 4, "velocity": 106}, {"time": 2091, "pitch": 56, "duration": 6, "velocity": 115}, {"time": 2091, "pitch": 60, "duration": 7, "velocity": 109}, {"time": 2097, "pitch": 41, "duration": 2, "velocity": 101}, {"time": 2097, "pitch": 53, "duration": 2, "velocity": 101}, {"time": 2103, "pitch": 43, "duration": 14, "velocity": 117}, {"time": 2103, "pitch": 55, "duration": 9, "velocity": 93}, {"time": 2103, "pitch": 58, "duration": 8, "velocity": 106}, {"time": 2103, "pitch": 62, "duration": 8, "velocity": 107}, {"time": 2109, "pitch": 50, "duration": 9, "velocity": 81}, {"time": 2115, "pitch": 55, "duration": 3, "velocity": 117}, {"time": 2115, "pitch": 58, "duration": 3, "velocity": 115}, {"time": 2115, "pitch": 62, "duration": 3, "velocity": 117}, {"time": 2121, "pitch": 43, "duration": 2, "velocity": 104}, {"time": 2127, "pitch": 41, "duration": 15, "velocity": 109}, {"time": 2127, "pitch": 56, "duration": 9, "velocity": 106}, {"time": 2127, "pitch": 60, "duration": 10, "velocity": 109}, {"time": 2133, "pitch": 48, "duration": 7, "velocity": 69}, {"time": 2139, "pitch": 56, "duration": 3, "velocity": 109}, {"time": 2139, "pitch": 60, "duration": 7, "velocity": 115}, {"time": 2139, "pitch": 65, "duration": 9, "velocity": 109}, {"time": 2145, "pitch": 56, "duration": 2, "velocity": 115}, {"time": 2151, "pitch": 46, "duration": 17, "velocity": 109}, {"time": 2151, "pitch": 58, "duration": 7, "velocity": 112}, {"time": 2151, "pitch": 62, "duration": 9, "velocity": 120}, {"time": 2157, "pitch": 53, "duration": 10, "velocity": 99}, {"time": 2160, "pitch": 58, "duration": 2, "velocity": 109}, {"time": 2163, "pitch": 62, "duration": 2, "velocity": 123}, {"time": 2166, "pitch": 63, "duration": 4, "velocity": 115}, {"time": 2169, "pitch": 65, "duration": 3, "velocity": 121}, {"time": 2175, "pitch": 51, "duration": 14, "velocity": 109}, {"time": 2175, "pitch": 63, "duration": 7, "velocity": 112}, {"time": 2175, "pitch": 67, "duration": 8, "velocity": 117}, {"time": 2181, "pitch": 58, "duration": 8, "velocity": 94}, {"time": 2187, "pitch": 63, "duration": 6, "velocity": 115}, {"time": 2187, "pitch": 67, "duration": 5, "velocity": 123}, {"time": 2187, "pitch": 70, "duration": 7, "velocity": 115}, {"time": 2193, "pitch": 51, "duration": 2, "velocity": 109}, {"time": 2199, "pitch": 48, "duration": 14, "velocity": 104}, {"time": 2199, "pitch": 60, "duration": 8, "velocity": 96}, {"time": 2199, "pitch": 63, "duration": 8, "velocity": 109}, {"time": 2205, "pitch": 55, "duration": 8, "velocity": 77}, {"time": 2211, "pitch": 60, "duration": 4, "velocity": 109}, {"time": 2211, "pitch": 63, "duration": 6, "velocity": 115}, {"time": 2211, "pitch": 67, "duration": 7, "velocity": 120}, {"time": 2217, "pitch": 60, "duration": 2, "velocity": 112}, {"time": 2223, "pitch": 44, "duration": 15, "velocity": 104}, {"time": 2223, "pitch": 56, "duration": 9, "velocity": 101}, {"time": 2223, "pitch": 60, "duration": 7, "velocity": 104}, {"time": 2229, "pitch": 51, "duration": 8, "velocity": 58}, {"time": 2235, "pitch": 56, "duration": 3, "velocity": 112}, {"time": 2235, "pitch": 60, "duration": 3, "velocity": 115}, {"time": 2235, "pitch": 63, "duration": 3, "velocity": 112}, {"time": 2241, "pitch": 44, "duration": 2, "velocity": 104}, {"time": 2247, "pitch": 43, "duration": 15, "velocity": 101}, {"time": 2247, "pitch": 62, "duration": 9, "velocity": 117}, {"time": 2247, "pitch": 67, "duration": 10, "velocity": 113}, {"time": 2253, "pitch": 50, "duration": 10, "velocity": 91}, {"time": 2259, "pitch": 58, "duration": 3, "velocity": 115}, {"time": 2259, "pitch": 62, "duration": 6, "velocity": 120}, {"time": 2259, "pitch": 67, "duration": 6, "velocity": 120}, {"time": 2265, "pitch": 58, "duration": 2, "velocity": 109}, {"time": 2271, "pitch": 41, "duration": 15, "velocity": 106}, {"time": 2271, "pitch": 53, "duration": 9, "velocity": 101}, {"time": 2271, "pitch": 56, "duration": 7, "velocity": 101}, {"time": 2277, "pitch": 48, "duration": 8, "velocity": 67}, {"time": 2283, "pitch": 53, "duration": 3, "velocity": 109}, {"time": 2283, "pitch": 56, "duration": 4, "velocity": 115}, {"time": 2283, "pitch": 60, "duration": 6, "velocity": 112}, {"time": 2289, "pitch": 53, "duration": 2, "velocity": 101}, {"time": 2295, "pitch": 43, "duration": 14, "velocity": 117}, {"time": 2295, "pitch": 55, "duration": 8, "velocity": 104}, {"time": 2295, "pitch": 58, "duration": 8, "velocity": 112}, {"time": 2295, "pitch": 62, "duration": 7, "velocity": 101}, {"time": 2301, "pitch": 50, "duration": 9, "velocity": 93}, {"time": 2307, "pitch": 55, "duration": 2, "velocity": 120}, {"time": 2307, "pitch": 58, "duration": 2, "velocity": 118}, {"time": 2307, "pitch": 62, "duration": 3, "velocity": 120}, {"time": 2313, "pitch": 43, "duration": 2, "velocity": 120}, {"time": 2319, "pitch": 41, "duration": 15, "velocity": 106}, {"time": 2319, "pitch": 60, "duration": 9, "velocity": 106}, {"time": 2319, "pitch": 65, "duration": 8, "velocity": 109}, {"time": 2325, "pitch": 48, "duration": 8, "velocity": 56}, {"time": 2331, "pitch": 60, "duration": 3, "velocity": 112}, {"time": 2331, "pitch": 65, "duration": 5, "velocity": 118}, {"time": 2331, "pitch": 68, "duration": 7, "velocity": 115}, {"time": 2337, "pitch": 60, "duration": 2, "velocity": 112}, {"time": 2343, "pitch": 46, "duration": 17, "velocity": 106}, {"time": 2343, "pitch": 58, "duration": 8, "velocity": 106}, {"time": 2343, "pitch": 62, "duration": 9, "velocity": 113}, {"time": 2343, "pitch": 65, "duration": 8, "velocity": 101}, {"time": 2349, "pitch": 53, "duration": 7, "velocity": 91}, {"time": 2355, "pitch": 58, "duration": 3, "velocity": 115}, {"time": 2355, "pitch": 62, "duration": 7, "velocity": 123}, {"time": 2355, "pitch": 65, "duration": 7, "velocity": 109}, {"time": 2361, "pitch": 58, "duration": 4, "velocity": 104}, {"time": 2367, "pitch": 44, "duration": 22, "velocity": 101}, {"time": 2367, "pitch": 63, "duration": 7, "velocity": 112}, {"time": 2367, "pitch": 68, "duration": 7, "velocity": 112}, {"time": 2373, "pitch": 51, "duration": 4, "velocity": 76}, {"time": 2376, "pitch": 63, "duration": 5, "velocity": 109}, {"time": 2376, "pitch": 70, "duration": 5, "velocity": 112}, {"time": 2379, "pitch": 51, "duration": 7, "velocity": 69}, {"time": 2382, "pitch": 63, "duration": 4, "velocity": 109}, {"time": 2382, "pitch": 68, "duration": 6, "velocity": 106}, {"time": 2388, "pitch": 63, "duration": 2, "velocity": 82}, {"time": 2391, "pitch": 44, "duration": 17, "velocity": 106}, {"time": 2391, "pitch": 63, "duration": 10, "velocity": 109}, {"time": 2391, "pitch": 68, "duration": 10, "velocity": 104}, {"time": 2397, "pitch": 51, "duration": 7, "velocity": 56}, {"time": 2403, "pitch": 63, "duration": 4, "velocity": 118}, {"time": 2403, "pitch": 68, "duration": 6, "velocity": 115}, {"time": 2406, "pitch": 51, "duration": 3, "velocity": 85}, {"time": 2409, "pitch": 63, "duration": 4, "velocity": 109}, {"time": 2412, "pitch": 68, "duration": 2, "velocity": 96}, {"time": 2415, "pitch": 46, "duration": 20, "velocity": 106}, {"time": 2415, "pitch": 65, "duration": 6, "velocity": 106}, {"time": 2415, "pitch": 70, "duration": 7, "velocity": 112}, {"time": 2421, "pitch": 53, "duration": 11, "velocity": 80}, {"time": 2427, "pitch": 58, "duration": 4, "velocity": 109}, {"time": 2430, "pitch": 65, "duration": 5, "velocity": 109}, {"time": 2433, "pitch": 58, "duration": 3, "velocity": 96}, {"time": 2439, "pitch": 46, "duration": 22, "velocity": 101}, {"time": 2439, "pitch": 58, "duration": 22, "velocity": 94}, {"time": 2439, "pitch": 62, "duration": 22, "velocity": 99}, {"time": 2439, "pitch": 65, "duration": 23, "velocity": 99}, {"time": 2439, "pitch": 70, "duration": 22, "velocity": 85}, {"time": 2463, "pitch": 51, "duration": 20, "velocity": 106}, {"time": 2463, "pitch": 63, "duration": 7, "velocity": 99}, {"time": 2463, "pitch": 67, "duration": 6, "velocity": 107}, {"time": 2463, "pitch": 70, "duration": 7, "velocity": 104}, {"time": 2469, "pitch": 58, "duration": 7, "velocity": 80}, {"time": 2475, "pitch": 63, "duration": 5, "velocity": 109}, {"time": 2475, "pitch": 67, "duration": 4, "velocity": 120}, {"time": 2475, "pitch": 70, "duration": 5, "velocity": 109}, {"time": 2481, "pitch": 58, "duration": 3, "velocity": 99}, {"time": 2484, "pitch": 62, "duration": 2, "velocity": 99}, {"time": 2487, "pitch": 48, "duration": 15, "velocity": 101}, {"time": 2487, "pitch": 60, "duration": 7, "velocity": 94}, {"time": 2487, "pitch": 63, "duration": 7, "velocity": 104}, {"time": 2493, "pitch": 55, "duration": 9, "velocity": 74}, {"time": 2499, "pitch": 60, "duration": 5, "velocity": 104}, {"time": 2499, "pitch": 63, "duration": 5, "velocity": 109}, {"time": 2499, "pitch": 67, "duration": 5, "velocity": 113}, {"time": 2505, "pitch": 48, "duration": 2, "velocity": 89}, {"time": 2511, "pitch": 44, "duration": 18, "velocity": 106}, {"time": 2511, "pitch": 56, "duration": 9, "velocity": 99}, {"time": 2511, "pitch": 60, "duration": 7, "velocity": 99}, {"time": 2517, "pitch": 51, "duration": 6, "velocity": 64}, {"time": 2523, "pitch": 56, "duration": 3, "velocity": 109}, {"time": 2523, "pitch": 60, "duration": 3, "velocity": 109}, {"time": 2523, "pitch": 63, "duration": 3, "velocity": 109}, {"time": 2526, "pitch": 51, "duration": 3, "velocity": 78}, {"time": 2535, "pitch": 43, "duration": 14, "velocity": 104}, {"time": 2535, "pitch": 55, "duration": 3, "velocity": 104}, {"time": 2535, "pitch": 58, "duration": 4, "velocity": 106}, {"time": 2541, "pitch": 50, "duration": 9, "velocity": 81}, {"time": 2547, "pitch": 55, "duration": 3, "velocity": 113}, {"time": 2547, "pitch": 58, "duration": 3, "velocity": 112}, {"time": 2547, "pitch": 62, "duration": 4, "velocity": 113}, {"time": 2553, "pitch": 43, "duration": 2, "velocity": 68}, {"time": 2559, "pitch": 41, "duration": 2, "velocity": 101}, {"time": 2559, "pitch": 56, "duration": 4, "velocity": 101}, {"time": 2559, "pitch": 60, "duration": 5, "velocity": 104}, {"time": 2565, "pitch": 53, "duration": 5, "velocity": 94}, {"time": 2571, "pitch": 53, "duration": 3, "velocity": 99}, {"time": 2571, "pitch": 60, "duration": 5, "velocity": 109}, {"time": 2571, "pitch": 65, "duration": 6, "velocity": 106}, {"time": 2571, "pitch": 68, "duration": 7, "velocity": 112}, {"time": 2577, "pitch": 53, "duration": 1, "velocity": 87}, {"time": 2583, "pitch": 43, "duration": 19, "velocity": 110}, {"time": 2583, "pitch": 55, "duration": 11, "velocity": 101}, {"time": 2583, "pitch": 58, "duration": 8, "velocity": 112}, {"time": 2589, "pitch": 50, "duration": 8, "velocity": 99}, {"time": 2595, "pitch": 55, "duration": 6, "velocity": 107}, {"time": 2595, "pitch": 58, "duration": 6, "velocity": 109}, {"time": 2595, "pitch": 62, "duration": 6, "velocity": 104}, {"time": 2601, "pitch": 50, "duration": 3, "velocity": 104}, {"time": 2607, "pitch": 41, "duration": 15, "velocity": 106}, {"time": 2607, "pitch": 53, "duration": 10, "velocity": 96}, {"time": 2607, "pitch": 56, "duration": 8, "velocity": 101}, {"time": 2613, "pitch": 48, "duration": 8, "velocity": 64}, {"time": 2619, "pitch": 53, "duration": 4, "velocity": 104}, {"time": 2619, "pitch": 56, "duration": 4, "velocity": 109}, {"time": 2619, "pitch": 60, "duration": 5, "velocity": 104}, {"time": 2631, "pitch": 46, "duration": 21, "velocity": 109}, {"time": 2631, "pitch": 58, "duration": 5, "velocity": 101}, {"time": 2631, "pitch": 62, "duration": 6, "velocity": 107}, {"time": 2631, "pitch": 65, "duration": 6, "velocity": 99}, {"time": 2637, "pitch": 53, "duration": 7, "velocity": 91}, {"time": 2643, "pitch": 58, "duration": 4, "velocity": 115}, {"time": 2643, "pitch": 62, "duration": 4, "velocity": 120}, {"time": 2643, "pitch": 65, "duration": 4, "velocity": 115}, {"time": 2643, "pitch": 70, "duration": 4, "velocity": 101}, {"time": 2646, "pitch": 53, "duration": 5, "velocity": 99}, {"time": 2649, "pitch": 58, "duration": 3, "velocity": 115}, {"time": 2649, "pitch": 62, "duration": 6, "velocity": 120}, {"time": 2649, "pitch": 65, "duration": 7, "velocity": 109}, {"time": 2652, "pitch": 53, "duration": 7, "velocity": 101}, {"time": 2655, "pitch": 51, "duration": 15, "velocity": 109}, {"time": 2655, "pitch": 63, "duration": 7, "velocity": 109}, {"time": 2655, "pitch": 67, "duration": 7, "velocity": 113}, {"time": 2661, "pitch": 58, "duration": 7, "velocity": 76}, {"time": 2667, "pitch": 63, "duration": 6, "velocity": 106}, {"time": 2667, "pitch": 67, "duration": 6, "velocity": 120}, {"time": 2667, "pitch": 70, "duration": 7, "velocity": 106}, {"time": 2673, "pitch": 51, "duration": 4, "velocity": 106}, {"time": 2679, "pitch": 48, "duration": 15, "velocity": 71}, {"time": 2679, "pitch": 60, "duration": 6, "velocity": 101}, {"time": 2679, "pitch": 63, "duration": 9, "velocity": 104}, {"time": 2679, "pitch": 67, "duration": 9, "velocity": 104}, {"time": 2685, "pitch": 60, "duration": 4, "velocity": 87}, {"time": 2691, "pitch": 60, "duration": 4, "velocity": 115}, {"time": 2691, "pitch": 63, "duration": 7, "velocity": 115}, {"time": 2691, "pitch": 67, "duration": 7, "velocity": 120}, {"time": 2697, "pitch": 60, "duration": 2, "velocity": 91}, {"time": 2703, "pitch": 44, "duration": 13, "velocity": 106}, {"time": 2703, "pitch": 56, "duration": 8, "velocity": 106}, {"time": 2703, "pitch": 60, "duration": 7, "velocity": 101}, {"time": 2709, "pitch": 51, "duration": 7, "velocity": 58}, {"time": 2715, "pitch": 56, "duration": 3, "velocity": 115}, {"time": 2715, "pitch": 60, "duration": 3, "velocity": 115}, {"time": 2715, "pitch": 63, "duration": 3, "velocity": 112}, {"time": 2721, "pitch": 44, "duration": 2, "velocity": 99}, {"time": 2727, "pitch": 43, "duration": 14, "velocity": 113}, {"time": 2727, "pitch": 58, "duration": 9, "velocity": 106}, {"time": 2727, "pitch": 62, "duration": 9, "velocity": 110}, {"time": 2733, "pitch": 50, "duration": 9, "velocity": 96}, {"time": 2739, "pitch": 58, "duration": 2, "velocity": 112}, {"time": 2739, "pitch": 62, "duration": 6, "velocity": 120}, {"time": 2739, "pitch": 67, "duration": 6, "velocity": 113}, {"time": 2745, "pitch": 58, "duration": 2, "velocity": 118}, {"time": 2751, "pitch": 41, "duration": 15, "velocity": 104}, {"time": 2751, "pitch": 53, "duration": 10, "velocity": 94}, {"time": 2751, "pitch": 56, "duration": 8, "velocity": 104}, {"time": 2757, "pitch": 48, "duration": 9, "velocity": 71}, {"time": 2763, "pitch": 53, "duration": 4, "velocity": 106}, {"time": 2763, "pitch": 56, "duration": 6, "velocity": 115}, {"time": 2763, "pitch": 60, "duration": 7, "velocity": 109}, {"time": 2769, "pitch": 41, "duration": 2, "velocity": 101}, {"time": 2769, "pitch": 53, "duration": 2, "velocity": 101}, {"time": 2775, "pitch": 43, "duration": 14, "velocity": 117}, {"time": 2775, "pitch": 55, "duration": 9, "velocity": 93}, {"time": 2775, "pitch": 58, "duration": 8, "velocity": 106}, {"time": 2775, "pitch": 62, "duration": 8, "velocity": 107}, {"time": 2781, "pitch": 50, "duration": 9, "velocity": 81}, {"time": 2787, "pitch": 55, "duration": 3, "velocity": 117}, {"time": 2787, "pitch": 58, "duration": 3, "velocity": 115}, {"time": 2787, "pitch": 62, "duration": 3, "velocity": 117}, {"time": 2793, "pitch": 43, "duration": 2, "velocity": 104}, {"time": 2799, "pitch": 41, "duration": 15, "velocity": 109}, {"time": 2799, "pitch": 56, "duration": 9, "velocity": 106}, {"time": 2799, "pitch": 60, "duration": 10, "velocity": 109}, {"time": 2805, "pitch": 48, "duration": 7, "velocity": 69}, {"time": 2811, "pitch": 56, "duration": 3, "velocity": 109}, {"time": 2811, "pitch": 60, "duration": 7, "velocity": 115}, {"time": 2811, "pitch": 65, "duration": 9, "velocity": 109}, {"time": 2817, "pitch": 56, "duration": 2, "velocity": 115}, {"time": 2823, "pitch": 46, "duration": 17, "velocity": 109}, {"time": 2823, "pitch": 58, "duration": 7, "velocity": 112}, {"time": 2823, "pitch": 62, "duration": 9, "velocity": 120}, {"time": 2829, "pitch": 53, "duration": 10, "velocity": 99}, {"time": 2832, "pitch": 58, "duration": 2, "velocity": 109}, {"time": 2835, "pitch": 62, "duration": 2, "velocity": 123}, {"time": 2838, "pitch": 63, "duration": 4, "velocity": 115}, {"time": 2841, "pitch": 65, "duration": 3, "velocity": 121}, {"time": 2847, "pitch": 51, "duration": 14, "velocity": 109}, {"time": 2847, "pitch": 63, "duration": 7, "velocity": 112}, {"time": 2847, "pitch": 67, "duration": 8, "velocity": 117}, {"time": 2853, "pitch": 58, "duration": 8, "velocity": 94}, {"time": 2859, "pitch": 63, "duration": 6, "velocity": 115}, {"time": 2859, "pitch": 67, "duration": 5, "velocity": 123}, {"time": 2859, "pitch": 70, "duration": 7, "velocity": 115}, {"time": 2865, "pitch": 51, "duration": 2, "velocity": 109}, {"time": 2871, "pitch": 48, "duration": 14, "velocity": 104}, {"time": 2871, "pitch": 60, "duration": 8, "velocity": 96}, {"time": 2871, "pitch": 63, "duration": 8, "velocity": 109}, {"time": 2877, "pitch": 55, "duration": 8, "velocity": 77}, {"time": 2883, "pitch": 60, "duration": 4, "velocity": 109}, {"time": 2883, "pitch": 63, "duration": 6, "velocity": 115}, {"time": 2883, "pitch": 67, "duration": 7, "velocity": 120}, {"time": 2889, "pitch": 60, "duration": 2, "velocity": 112}, {"time": 2895, "pitch": 44, "duration": 15, "velocity": 104}, {"time": 2895, "pitch": 56, "duration": 9, "velocity": 101}, {"time": 2895, "pitch": 60, "duration": 7, "velocity": 104}, {"time": 2901, "pitch": 51, "duration": 8, "velocity": 58}, {"time": 2907, "pitch": 56, "duration": 3, "velocity": 112}, {"time": 2907, "pitch": 60, "duration": 3, "velocity": 115}, {"time": 2907, "pitch": 63, "duration": 3, "velocity": 112}, {"time": 2913, "pitch": 44, "duration": 2, "velocity": 104}, {"time": 2919, "pitch": 43, "duration": 15, "velocity": 101}, {"time": 2919, "pitch": 62, "duration": 9, "velocity": 117}, {"time": 2919, "pitch": 67, "duration": 10, "velocity": 113}, {"time": 2925, "pitch": 50, "duration": 10, "velocity": 91}, {"time": 2931, "pitch": 58, "duration": 3, "velocity": 115}, {"time": 2931, "pitch": 62, "duration": 6, "velocity": 120}, {"time": 2931, "pitch": 67, "duration": 6, "velocity": 120}, {"time": 2937, "pitch": 58, "duration": 2, "velocity": 109}, {"time": 2943, "pitch": 41, "duration": 15, "velocity": 106}, {"time": 2943, "pitch": 53, "duration": 9, "velocity": 101}, {"time": 2943, "pitch": 56, "duration": 7, "velocity": 101}, {"time": 2949, "pitch": 48, "duration": 8, "velocity": 67}, {"time": 2955, "pitch": 53, "duration": 3, "velocity": 109}, {"time": 2955, "pitch": 56, "duration": 4, "velocity": 115}, {"time": 2955, "pitch": 60, "duration": 6, "velocity": 112}, {"time": 2961, "pitch": 53, "duration": 2, "velocity": 101}, {"time": 2967, "pitch": 43, "duration": 14, "velocity": 117}, {"time": 2967, "pitch": 55, "duration": 8, "velocity": 104}, {"time": 2967, "pitch": 58, "duration": 8, "velocity": 112}, {"time": 2967, "pitch": 62, "duration": 7, "velocity": 101}, {"time": 2973, "pitch": 50, "duration": 9, "velocity": 93}, {"time": 2979, "pitch": 55, "duration": 2, "velocity": 120}, {"time": 2979, "pitch": 58, "duration": 2, "velocity": 118}, {"time": 2979, "pitch": 62, "duration": 3, "velocity": 120}, {"time": 2985, "pitch": 43, "duration": 2, "velocity": 120}, {"time": 2991, "pitch": 41, "duration": 15, "velocity": 106}, {"time": 2991, "pitch": 60, "duration": 9, "velocity": 106}, {"time": 2991, "pitch": 65, "duration": 8, "velocity": 109}, {"time": 2997, "pitch": 48, "duration": 8, "velocity": 56}, {"time": 3003, "pitch": 60, "duration": 3, "velocity": 112}, {"time": 3003, "pitch": 65, "duration": 5, "velocity": 118}, {"time": 3003, "pitch": 68, "duration": 7, "velocity": 115}, {"time": 3009, "pitch": 60, "duration": 2, "velocity": 112}, {"time": 3015, "pitch": 46, "duration": 17, "velocity": 106}, {"time": 3015, "pitch": 58, "duration": 8, "velocity": 106}, {"time": 3015, "pitch": 62, "duration": 9, "velocity": 113}, {"time": 3015, "pitch": 65, "duration": 8, "velocity": 101}, {"time": 3021, "pitch": 53, "duration": 7, "velocity": 91}, {"time": 3027, "pitch": 58, "duration": 3, "velocity": 115}, {"time": 3027, "pitch": 62, "duration": 7, "velocity": 123}, {"time": 3027, "pitch": 65, "duration": 7, "velocity": 109}, {"time": 3033, "pitch": 58, "duration": 4, "velocity": 104}, {"time": 3039, "pitch": 44, "duration": 22, "velocity": 101}, {"time": 3039, "pitch": 63, "duration": 7, "velocity": 112}, {"time": 3039, "pitch": 68, "duration": 7, "velocity": 112}, {"time": 3045, "pitch": 51, "duration": 4, "velocity": 76}, {"time": 3048, "pitch": 63, "duration": 5, "velocity": 109}, {"time": 3048, "pitch": 70, "duration": 5, "velocity": 112}, {"time": 3051, "pitch": 51, "duration": 7, "velocity": 69}, {"time": 3054, "pitch": 63, "duration": 4, "velocity": 109}, {"time": 3054, "pitch": 68, "duration": 6, "velocity": 106}, {"time": 3060, "pitch": 63, "duration": 2, "velocity": 82}, {"time": 3063, "pitch": 46, "duration": 21, "velocity": 101}, {"time": 3063, "pitch": 58, "duration": 22, "velocity": 96}, {"time": 3063, "pitch": 62, "duration": 22, "velocity": 86}, {"time": 3063, "pitch": 65, "duration": 22, "velocity": 87}, {"time": 3087, "pitch": 51, "duration": 39, "velocity": 106}, {"time": 3087, "pitch": 63, "duration": 11, "velocity": 99}, {"time": 3087, "pitch": 67, "duration": 8, "velocity": 93}, {"time": 3093, "pitch": 58, "duration": 8, "velocity": 69}, {"time": 3099, "pitch": 65, "duration": 7, "velocity": 94}, {"time": 3105, "pitch": 58, "duration": 20, "velocity": 43}, {"time": 3111, "pitch": 63, "duration": 9, "velocity": 99}, {"time": 3111, "pitch": 70, "duration": 10, "velocity": 104}, {"time": 3123, "pitch": 63, "duration": 3, "velocity": 99}, {"time": 3123, "pitch": 67, "duration": 3, "velocity": 88}, {"time": 3135, "pitch": 48, "duration": 37, "velocity": 80}, {"time": 3135, "pitch": 60, "duration": 8, "velocity": 85}, {"time": 3135, "pitch": 63, "duration": 14, "velocity": 96}, {"time": 3141, "pitch": 55, "duration": 7, "velocity": 50}, {"time": 3147, "pitch": 60, "duration": 9, "velocity": 61}, {"time": 3153, "pitch": 55, "duration": 6, "velocity": 8}, {"time": 3159, "pitch": 60, "duration": 7, "velocity": 104}, {"time": 3159, "pitch": 67, "duration": 9, "velocity": 99}, {"time": 3165, "pitch": 55, "duration": 4, "velocity": 3}, {"time": 3171, "pitch": 60, "duration": 2, "velocity": 101}, {"time": 3171, "pitch": 63, "duration": 2, "velocity": 101}, {"time": 3183, "pitch": 41, "duration": 22, "velocity": 96}, {"time": 3183, "pitch": 53, "duration": 7, "velocity": 87}, {"time": 3183, "pitch": 60, "duration": 7, "velocity": 96}, {"time": 3189, "pitch": 48, "duration": 7, "velocity": 13}, {"time": 3195, "pitch": 56, "duration": 7, "velocity": 89}, {"time": 3201, "pitch": 48, "duration": 4, "velocity": 12}, {"time": 3207, "pitch": 56, "duration": 7, "velocity": 96}, {"time": 3207, "pitch": 60, "duration": 8, "velocity": 101}, {"time": 3220, "pitch": 56, "duration": 54, "velocity": 104}, {"time": 3220, "pitch": 53, "duration": 55, "velocity": 101}, {"time": 3232, "pitch": 41, "duration": 31, "velocity": 96}, {"time": 3268, "pitch": 39, "duration": 52, "velocity": 101}, {"time": 3271, "pitch": 46, "duration": 46, "velocity": 71}, {"time": 3276, "pitch": 53, "duration": 1, "velocity": 59}, {"time": 3277, "pitch": 55, "duration": 2, "velocity": 104}, {"time": 3280, "pitch": 58, "duration": 2, "velocity": 106}, {"time": 3283, "pitch": 63, "duration": 2, "velocity": 99}, {"time": 3285, "pitch": 51, "duration": 2, "velocity": 66}, {"time": 3286, "pitch": 65, "duration": 3, "velocity": 89}, {"time": 3289, "pitch": 67, "duration": 4, "velocity": 83}, {"time": 3293, "pitch": 70, "duration": 4, "velocity": 99}, {"time": 3297, "pitch": 75, "duration": 4, "velocity": 80}, {"time": 3301, "pitch": 77, "duration": 4, "velocity": 87}, {"time": 3305, "pitch": 79, "duration": 4, "velocity": 78}, {"time": 3309, "pitch": 82, "duration": 4, "velocity": 85}, {"time": 3313, "pitch": 87, "duration": 3, "velocity": 100}, {"time": 3316, "pitch": 91, "duration": 24, "velocity": 100}, {"time": 3340, "pitch": 94, "duration": 23, "velocity": 94}, {"time": 3340, "pitch": 99, "duration": 24, "velocity": 111}, {"time": 3341, "pitch": 103, "duration": 23, "velocity": 101}, {"time": 3341, "pitch": 106, "duration": 23, "velocity": 96}], "annotations": [{"time": 16, "annotation": {"number": 64, "value": 6}, "group": "control_change"}, {"time": 16, "annotation": {"number": 64, "value": 40}, "group": "control_change"}, {"time": 16, "annotation": {"number": 64, "value": 127}, "group": "control_change"}, {"time": 38, "annotation": {"number": 64, "value": 0}, "group": "control_change"}, {"time": 42, "annotation": {"number": 64, "value": 127}, "group": "control_change"}, {"time": 63, "annotation": {"number": 64, "value": 0}, "group": "control_change"}, {"time": 68, "annotation": {"number": 64, "value": 127}, "group": "control_change"}, {"time": 86, "annotation": {"number": 64, "value": 0}, "group": "control_change"}, {"time": 89, "annotation": {"number": 64, "value": 127}, "group": "control_change"}, {"time": 110, "annotation": {"number": 64, "value": 0}, "group": "control_change"}, {"time": 113, "annotation": {"number": 64, "value": 127}, "group": "control_change"}, {"time": 136, "annotation": {"number": 64, "value": 0}, "group": "control_change"}, {"time": 136, "annotation": {"number": 64, "value": 127}, "group": "control_change"}, {"time": 142, "annotation": {"number": 64, "value": 0}, "group": "control_change"}, {"time": 149, "annotation": {"number": 64, "value": 127}, "group": "control_change"}, {"time": 159, "annotation": {"number": 64, "value": 0}, "group": "control_change"}, {"time": 166, "annotation": {"number": 64, "value": 127}, "group": "control_change"}, {"time": 182, "annotation": {"number": 64, "value": 0}, "group": "control_change"}, {"time": 214, "annotation": {"number": 64, "value": 127}, "group": "control_change"}, {"time": 254, "annotation": {"number": 64, "value": 0}, "group": "control_change"}, {"time": 264, "annotation": {"number": 64, "value": 127}, "group": "control_change"}, {"time": 290, "annotation": {"number": 64, "value": 0}, "group": "control_change"}, {"time": 296, "annotation": {"number": 64, "value": 127}, "group": "control_change"}, {"time": 304, "annotation": {"number": 64, "value": 0}, "group": "control_change"}, {"time": 310, "annotation": {"number": 64, "value": 127}, "group": "control_change"}, {"time": 326, "annotation": {"number": 64, "value": 0}, "group": "control_change"}, {"time": 334, "annotation": {"number": 64, "value": 127}, "group": "control_change"}, {"time": 350, "annotation": {"number": 64, "value": 0}, "group": "control_change"}, {"time": 353, "annotation": {"number": 64, "value": 127}, "group": "control_change"}, {"time": 373, "annotation": {"number": 64, "value": 0}, "group": "control_change"}, {"time": 382, "annotation": {"number": 64, "value": 127}, "group": "control_change"}, {"time": 398, "annotation": {"number": 64, "value": 0}, "group": "control_change"}, {"time": 407, "annotation": {"number": 64, "value": 127}, "group": "control_change"}, {"time": 421, "annotation": {"number": 64, "value": 0}, "group": "control_change"}, {"time": 431, "annotation": {"number": 64, "value": 127}, "group": "control_change"}, {"time": 447, "annotation": {"number": 64, "value": 0}, "group": "control_change"}, {"time": 453, "annotation": {"number": 64, "value": 127}, "group": "control_change"}, {"time": 495, "annotation": {"number": 64, "value": 0}, "group": "control_change"}, {"time": 509, "annotation": {"number": 64, "value": 127}, "group": "control_change"}, {"time": 541, "annotation": {"number": 64, "value": 0}, "group": "control_change"}, {"time": 550, "annotation": {"number": 64, "value": 127}, "group": "control_change"}, {"time": 590, "annotation": {"number": 64, "value": 0}, "group": "control_change"}, {"time": 600, "annotation": {"number": 64, "value": 127}, "group": "control_change"}, {"time": 626, "annotation": {"number": 64, "value": 0}, "group": "control_change"}, {"time": 632, "annotation": {"number": 64, "value": 127}, "group": "control_change"}, {"time": 640, "annotation": {"number": 64, "value": 0}, "group": "control_change"}, {"time": 646, "annotation": {"number": 64, "value": 127}, "group": "control_change"}, {"time": 662, "annotation": {"number": 64, "value": 0}, "group": "control_change"}, {"time": 670, "annotation": {"number": 64, "value": 127}, "group": "control_change"}, {"time": 686, "annotation": {"number": 64, "value": 0}, "group": "control_change"}, {"time": 689, "annotation": {"number": 64, "value": 127}, "group": "control_change"}, {"time": 709, "annotation": {"number": 64, "value": 0}, "group": "control_change"}, {"time": 718, "annotation": {"number": 64, "value": 127}, "group": "control_change"}, {"time": 734, "annotation": {"number": 64, "value": 0}, "group": "control_change"}, {"time": 743, "annotation": {"number": 64, "value": 127}, "group": "control_change"}, {"time": 757, "annotation": {"number": 64, "value": 0}, "group": "control_change"}, {"time": 767, "annotation": {"number": 64, "value": 127}, "group": "control_change"}, {"time": 783, "annotation": {"number": 64, "value": 0}, "group": "control_change"}, {"time": 789, "annotation": {"number": 64, "value": 127}, "group": "control_change"}, {"time": 831, "annotation": {"number": 64, "value": 0}, "group": "control_change"}, {"time": 845, "annotation": {"number": 64, "value": 127}, "group": "control_change"}, {"time": 877, "annotation": {"number": 64, "value": 0}, "group": "control_change"}, {"time": 881, "annotation": {"number": 64, "value": 127}, "group": "control_change"}, {"time": 902, "annotation": {"number": 64, "value": 0}, "group": "control_change"}, {"time": 905, "annotation": {"number": 64, "value": 127}, "group": "control_change"}, {"time": 926, "annotation": {"number": 64, "value": 0}, "group": "control_change"}, {"time": 928, "annotation": {"number": 64, "value": 127}, "group": "control_change"}, {"time": 951, "annotation": {"number": 64, "value": 0}, "group": "control_change"}, {"time": 956, "annotation": {"number": 64, "value": 127}, "group": "control_change"}, {"time": 975, "annotation": {"number": 64, "value": 0}, "group": "control_change"}, {"time": 981, "annotation": {"number": 64, "value": 127}, "group": "control_change"}, {"time": 998, "annotation": {"number": 64, "value": 0}, "group": "control_change"}, {"time": 1004, "annotation": {"number": 64, "value": 127}, "group": "control_change"}, {"time": 1023, "annotation": {"number": 64, "value": 0}, "group": "control_change"}, {"time": 1029, "annotation": {"number": 64, "value": 127}, "group": "control_change"}, {"time": 1047, "annotation": {"number": 64, "value": 0}, "group": "control_change"}, {"time": 1053, "annotation": {"number": 64, "value": 127}, "group": "control_change"}, {"time": 1071, "annotation": {"number": 64, "value": 0}, "group": "control_change"}, {"time": 1076, "annotation": {"number": 64, "value": 127}, "group": "control_change"}, {"time": 1095, "annotation": {"number": 64, "value": 0}, "group": "control_change"}, {"time": 1101, "annotation": {"number": 64, "value": 127}, "group": "control_change"}, {"time": 1118, "annotation": {"number": 64, "value": 0}, "group": "control_change"}, {"time": 1121, "annotation": {"number": 64, "value": 127}, "group": "control_change"}, {"time": 1142, "annotation": {"number": 64, "value": 0}, "group": "control_change"}, {"time": 1149, "annotation": {"number": 64, "value": 127}, "group": "control_change"}, {"time": 1167, "annotation": {"number": 64, "value": 0}, "group": "control_change"}, {"time": 1173, "annotation": {"number": 64, "value": 127}, "group": "control_change"}, {"time": 1190, "annotation": {"number": 64, "value": 0}, "group": "control_change"}, {"time": 1196, "annotation": {"number": 64, "value": 127}, "group": "control_change"}, {"time": 1216, "annotation": {"number": 64, "value": 0}, "group": "control_change"}, {"time": 1221, "annotation": {"number": 64, "value": 127}, "group": "control_change"}, {"time": 1239, "annotation": {"number": 64, "value": 0}, "group": "control_change"}, {"time": 1245, "annotation": {"number": 64, "value": 127}, "group": "control_change"}, {"time": 1263, "annotation": {"number": 64, "value": 0}, "group": "control_change"}, {"time": 1267, "annotation": {"number": 64, "value": 127}, "group": "control_change"}, {"time": 1286, "annotation": {"number": 64, "value": 0}, "group": "control_change"}, {"time": 1294, "annotation": {"number": 64, "value": 127}, "group": "control_change"}, {"time": 1305, "annotation": {"number": 64, "value": 127}, "group": "control_change"}, {"time": 1309, "annotation": {"number": 64, "value": 0}, "group": "control_change"}, {"time": 1313, "annotation": {"number": 64, "value": 127}, "group": "control_change"}, {"time": 1334, "annotation": {"number": 64, "value": 0}, "group": "control_change"}, {"time": 1337, "annotation": {"number": 64, "value": 127}, "group": "control_change"}, {"time": 1358, "annotation": {"number": 64, "value": 0}, "group": "control_change"}, {"time": 1361, "annotation": {"number": 64, "value": 127}, "group": "control_change"}, {"time": 1384, "annotation": {"number": 64, "value": 0}, "group": "control_change"}, {"time": 1408, "annotation": {"number": 64, "value": 6}, "group": "control_change"}, {"time": 1408, "annotation": {"number": 64, "value": 40}, "group": "control_change"}, {"time": 1408, "annotation": {"number": 64, "value": 127}, "group": "control_change"}, {"time": 1430, "annotation": {"number": 64, "value": 0}, "group": "control_change"}, {"time": 1434, "annotation": {"number": 64, "value": 127}, "group": "control_change"}, {"time": 1455, "annotation": {"number": 64, "value": 0}, "group": "control_change"}, {"time": 1460, "annotation": {"number": 64, "value": 127}, "group": "control_change"}, {"time": 1478, "annotation": {"number": 64, "value": 0}, "group": "control_change"}, {"time": 1481, "annotation": {"number": 64, "value": 127}, "group": "control_change"}, {"time": 1502, "annotation": {"number": 64, "value": 0}, "group": "control_change"}, {"time": 1505, "annotation": {"number": 64, "value": 127}, "group": "control_change"}, {"time": 1528, "annotation": {"number": 64, "value": 0}, "group": "control_change"}, {"time": 1528, "annotation": {"number": 64, "value": 127}, "group": "control_change"}, {"time": 1534, "annotation": {"number": 64, "value": 0}, "group": "control_change"}, {"time": 1541, "annotation": {"number": 64, "value": 127}, "group": "control_change"}, {"time": 1551, "annotation": {"number": 64, "value": 0}, "group": "control_change"}, {"time": 1558, "annotation": {"number": 64, "value": 127}, "group": "control_change"}, {"time": 1574, "annotation": {"number": 64, "value": 0}, "group": "control_change"}, {"time": 1606, "annotation": {"number": 64, "value": 127}, "group": "control_change"}, {"time": 1646, "annotation": {"number": 64, "value": 0}, "group": "control_change"}, {"time": 1656, "annotation": {"number": 64, "value": 127}, "group": "control_change"}, {"time": 1682, "annotation": {"number": 64, "value": 0}, "group": "control_change"}, {"time": 1688, "annotation": {"number": 64, "value": 127}, "group": "control_change"}, {"time": 1696, "annotation": {"number": 64, "value": 0}, "group": "control_change"}, {"time": 1702, "annotation": {"number": 64, "value": 127}, "group": "control_change"}, {"time": 1718, "annotation": {"number": 64, "value": 0}, "group": "control_change"}, {"time": 1726, "annotation": {"number": 64, "value": 127}, "group": "control_change"}, {"time": 1742, "annotation": {"number": 64, "value": 0}, "group": "control_change"}, {"time": 1745, "annotation": {"number": 64, "value": 127}, "group": "control_change"}, {"time": 1765, "annotation": {"number": 64, "value": 0}, "group": "control_change"}, {"time": 1774, "annotation": {"number": 64, "value": 127}, "group": "control_change"}, {"time": 1790, "annotation": {"number": 64, "value": 0}, "group": "control_change"}, {"time": 1799, "annotation": {"number": 64, "value": 127}, "group": "control_change"}, {"time": 1813, "annotation": {"number": 64, "value": 0}, "group": "control_change"}, {"time": 1823, "annotation": {"number": 64, "value": 127}, "group": "control_change"}, {"time": 1839, "annotation": {"number": 64, "value": 0}, "group": "control_change"}, {"time": 1845, "annotation": {"number": 64, "value": 127}, "group": "control_change"}, {"time": 1887, "annotation": {"number": 64, "value": 0}, "group": "control_change"}, {"time": 1901, "annotation": {"number": 64, "value": 127}, "group": "control_change"}, {"time": 1933, "annotation": {"number": 64, "value": 0}, "group": "control_change"}, {"time": 1937, "annotation": {"number": 64, "value": 127}, "group": "control_change"}, {"time": 1958, "annotation": {"number": 64, "value": 0}, "group": "control_change"}, {"time": 1961, "annotation": {"number": 64, "value": 127}, "group": "control_change"}, {"time": 1982, "annotation": {"number": 64, "value": 0}, "group": "control_change"}, {"time": 1984, "annotation": {"number": 64, "value": 127}, "group": "control_change"}, {"time": 2007, "annotation": {"number": 64, "value": 0}, "group": "control_change"}, {"time": 2012, "annotation": {"number": 64, "value": 127}, "group": "control_change"}, {"time": 2031, "annotation": {"number": 64, "value": 0}, "group": "control_change"}, {"time": 2037, "annotation": {"number": 64, "value": 127}, "group": "control_change"}, {"time": 2054, "annotation": {"number": 64, "value": 0}, "group": "control_change"}, {"time": 2060, "annotation": {"number": 64, "value": 127}, "group": "control_change"}, {"time": 2079, "annotation": {"number": 64, "value": 0}, "group": "control_change"}, {"time": 2085, "annotation": {"number": 64, "value": 127}, "group": "control_change"}, {"time": 2103, "annotation": {"number": 64, "value": 0}, "group": "control_change"}, {"time": 2109, "annotation": {"number": 64, "value": 127}, "group": "control_change"}, {"time": 2127, "annotation": {"number": 64, "value": 0}, "group": "control_change"}, {"time": 2132, "annotation": {"number": 64, "value": 127}, "group": "control_change"}, {"time": 2151, "annotation": {"number": 64, "value": 0}, "group": "control_change"}, {"time": 2157, "annotation": {"number": 64, "value": 127}, "group": "control_change"}, {"time": 2174, "annotation": {"number": 64, "value": 0}, "group": "control_change"}, {"time": 2177, "annotation": {"number": 64, "value": 127}, "group": "control_change"}, {"time": 2198, "annotation": {"number": 64, "value": 0}, "group": "control_change"}, {"time": 2205, "annotation": {"number": 64, "value": 127}, "group": "control_change"}, {"time": 2223, "annotation": {"number": 64, "value": 0}, "group": "control_change"}, {"time": 2229, "annotation": {"number": 64, "value": 127}, "group": "control_change"}, {"time": 2246, "annotation": {"number": 64, "value": 0}, "group": "control_change"}, {"time": 2252, "annotation": {"number": 64, "value": 127}, "group": "control_change"}, {"time": 2272, "annotation": {"number": 64, "value": 0}, "group": "control_change"}, {"time": 2277, "annotation": {"number": 64, "value": 127}, "group": "control_change"}, {"time": 2295, "annotation": {"number": 64, "value": 0}, "group": "control_change"}, {"time": 2301, "annotation": {"number": 64, "value": 127}, "group": "control_change"}, {"time": 2319, "annotation": {"number": 64, "value": 0}, "group": "control_change"}, {"time": 2323, "annotation": {"number": 64, "value": 127}, "group": "control_change"}, {"time": 2342, "annotation": {"number": 64, "value": 0}, "group": "control_change"}, {"time": 2350, "annotation": {"number": 64, "value": 127}, "group": "control_change"}, {"time": 2361, "annotation": {"number": 64, "value": 127}, "group": "control_change"}, {"time": 2365, "annotation": {"number": 64, "value": 0}, "group": "control_change"}, {"time": 2369, "annotation": {"number": 64, "value": 127}, "group": "control_change"}, {"time": 2390, "annotation": {"number": 64, "value": 0}, "group": "control_change"}, {"time": 2393, "annotation": {"number": 64, "value": 127}, "group": "control_change"}, {"time": 2414, "annotation": {"number": 64, "value": 0}, "group": "control_change"}, {"time": 2417, "annotation": {"number": 64, "value": 127}, "group": "control_change"}, {"time": 2440, "annotation": {"number": 64, "value": 0}, "group": "control_change"}, {"time": 2464, "annotation": {"number": 64, "value": 6}, "group": "control_change"}, {"time": 2464, "annotation": {"number": 64, "value": 40}, "group": "control_change"}, {"time": 2464, "annotation": {"number": 64, "value": 127}, "group": "control_change"}, {"time": 2486, "annotation": {"number": 64, "value": 0}, "group": "control_change"}, {"time": 2490, "annotation": {"number": 64, "value": 127}, "group": "control_change"}, {"time": 2511, "annotation": {"number": 64, "value": 0}, "group": "control_change"}, {"time": 2516, "annotation": {"number": 64, "value": 127}, "group": "control_change"}, {"time": 2534, "annotation": {"number": 64, "value": 0}, "group": "control_change"}, {"time": 2537, "annotation": {"number": 64, "value": 127}, "group": "control_change"}, {"time": 2558, "annotation": {"number": 64, "value": 0}, "group": "control_change"}, {"time": 2561, "annotation": {"number": 64, "value": 127}, "group": "control_change"}, {"time": 2584, "annotation": {"number": 64, "value": 0}, "group": "control_change"}, {"time": 2584, "annotation": {"number": 64, "value": 127}, "group": "control_change"}, {"time": 2590, "annotation": {"number": 64, "value": 0}, "group": "control_change"}, {"time": 2597, "annotation": {"number": 64, "value": 127}, "group": "control_change"}, {"time": 2607, "annotation": {"number": 64, "value": 0}, "group": "control_change"}, {"time": 2614, "annotation": {"number": 64, "value": 127}, "group": "control_change"}, {"time": 2630, "annotation": {"number": 64, "value": 0}, "group": "control_change"}, {"time": 2632, "annotation": {"number": 64, "value": 127}, "group": "control_change"}, {"time": 2654, "annotation": {"number": 64, "value": 0}, "group": "control_change"}, {"time": 2656, "annotation": {"number": 64, "value": 127}, "group": "control_change"}, {"time": 2679, "annotation": {"number": 64, "value": 0}, "group": "control_change"}, {"time": 2684, "annotation": {"number": 64, "value": 127}, "group": "control_change"}, {"time": 2703, "annotation": {"number": 64, "value": 0}, "group": "control_change"}, {"time": 2709, "annotation": {"number": 64, "value": 127}, "group": "control_change"}, {"time": 2726, "annotation": {"number": 64, "value": 0}, "group": "control_change"}, {"time": 2732, "annotation": {"number": 64, "value": 127}, "group": "control_change"}, {"time": 2751, "annotation": {"number": 64, "value": 0}, "group": "control_change"}, {"time": 2757, "annotation": {"number": 64, "value": 127}, "group": "control_change"}, {"time": 2775, "annotation": {"number": 64, "value": 0}, "group": "control_change"}, {"time": 2781, "annotation": {"number": 64, "value": 127}, "group": "control_change"}, {"time": 2799, "annotation": {"number": 64, "value": 0}, "group": "control_change"}, {"time": 2804, "annotation": {"number": 64, "value": 127}, "group": "control_change"}, {"time": 2823, "annotation": {"number": 64, "value": 0}, "group": "control_change"}, {"time": 2829, "annotation": {"number": 64, "value": 127}, "group": "control_change"}, {"time": 2846, "annotation": {"number": 64, "value": 0}, "group": "control_change"}, {"time": 2849, "annotation": {"number": 64, "value": 127}, "group": "control_change"}, {"time": 2870, "annotation": {"number": 64, "value": 0}, "group": "control_change"}, {"time": 2877, "annotation": {"number": 64, "value": 127}, "group": "control_change"}, {"time": 2895, "annotation": {"number": 64, "value": 0}, "group": "control_change"}, {"time": 2901, "annotation": {"number": 64, "value": 127}, "group": "control_change"}, {"time": 2918, "annotation": {"number": 64, "value": 0}, "group": "control_change"}, {"time": 2924, "annotation": {"number": 64, "value": 127}, "group": "control_change"}, {"time": 2944, "annotation": {"number": 64, "value": 0}, "group": "control_change"}, {"time": 2949, "annotation": {"number": 64, "value": 127}, "group": "control_change"}, {"time": 2967, "annotation": {"number": 64, "value": 0}, "group": "control_change"}, {"time": 2973, "annotation": {"number": 64, "value": 127}, "group": "control_change"}, {"time": 2991, "annotation": {"number": 64, "value": 0}, "group": "control_change"}, {"time": 2995, "annotation": {"number": 64, "value": 127}, "group": "control_change"}, {"time": 3014, "annotation": {"number": 64, "value": 0}, "group": "control_change"}, {"time": 3022, "annotation": {"number": 64, "value": 127}, "group": "control_change"}, {"time": 3033, "annotation": {"number": 64, "value": 127}, "group": "control_change"}, {"time": 3037, "annotation": {"number": 64, "value": 0}, "group": "control_change"}, {"time": 3041, "annotation": {"number": 64, "value": 127}, "group": "control_change"}, {"time": 3062, "annotation": {"number": 64, "value": 0}, "group": "control_change"}, {"time": 3064, "annotation": {"number": 64, "value": 127}, "group": "control_change"}, {"time": 3083, "annotation": {"number": 64, "value": 0}, "group": "control_change"}, {"time": 3090, "annotation": {"number": 64, "value": 127}, "group": "control_change"}, {"time": 3135, "annotation": {"number": 64, "value": 0}, "group": "control_change"}, {"time": 3141, "annotation": {"number": 64, "value": 127}, "group": "control_change"}, {"time": 3182, "annotation": {"number": 64, "value": 0}, "group": "control_change"}, {"time": 3187, "annotation": {"number": 64, "value": 127}, "group": "control_change"}, {"time": 3235, "annotation": {"number": 64, "value": 0}, "group": "control_change"}, {"time": 3260, "annotation": {"number": 64, "value": 127}, "group": "control_change"}, {"time": 3279, "annotation": {"number": 64, "value": 0}, "group": "control_change"}, {"time": 3283, "annotation": {"number": 64, "value": 127}, "group": "control_change"}, {"time": 3301, "annotation": {"number": 64, "value": 0}, "group": "control_change"}, {"time": 3302, "annotation": {"number": 64, "value": 127}, "group": "control_change"}, {"time": 3382, "annotation": {"number": 64, "value": 0}, "group": "control_change"}]}]}