{"metadata": {"schema_version": "0.2", "title": "None", "source_filename": "009.mid", "source_format": "midi"}, "resolution": 12, "tempos": [{"time": 0, "qpm": 138.00051060188923}], "time_signatures": [{"time": 0, "numerator": 2, "denominator": 4}], "tracks": [{"program": 0, "is_drum": false, "name": "MELODY", "notes": [{"time": 45, "pitch": 66, "duration": 5, "velocity": 111}, {"time": 51, "pitch": 63, "duration": 6, "velocity": 92}, {"time": 63, "pitch": 66, "duration": 4, "velocity": 102}, {"time": 69, "pitch": 63, "duration": 7, "velocity": 114}, {"time": 81, "pitch": 70, "duration": 8, "velocity": 105}, {"time": 93, "pitch": 68, "duration": 17, "velocity": 105}, {"time": 141, "pitch": 68, "duration": 4, "velocity": 97}, {"time": 147, "pitch": 61, "duration": 5, "velocity": 105}, {"time": 159, "pitch": 68, "duration": 3, "velocity": 97}, {"time": 165, "pitch": 61, "duration": 5, "velocity": 111}, {"time": 177, "pitch": 71, "duration": 7, "velocity": 102}, {"time": 189, "pitch": 70, "duration": 18, "velocity": 100}, {"time": 237, "pitch": 66, "duration": 5, "velocity": 111}, {"time": 243, "pitch": 63, "duration": 6, "velocity": 92}, {"time": 255, "pitch": 66, "duration": 4, "velocity": 102}, {"time": 261, "pitch": 63, "duration": 7, "velocity": 114}, {"time": 273, "pitch": 70, "duration": 8, "velocity": 105}, {"time": 285, "pitch": 68, "duration": 17, "velocity": 105}, {"time": 321, "pitch": 68, "duration": 3, "velocity": 102}, {"time": 327, "pitch": 66, "duration": 2, "velocity": 94}, {"time": 333, "pitch": 65, "duration": 2, "velocity": 109}, {"time": 339, "pitch": 65, "duration": 9, "velocity": 99}, {"time": 351, "pitch": 65, "duration": 3, "velocity": 93}, {"time": 357, "pitch": 66, "duration": 7, "velocity": 97}, {"time": 369, "pitch": 65, "duration": 7, "velocity": 105}, {"time": 381, "pitch": 63, "duration": 14, "velocity": 105}, {"time": 429, "pitch": 66, "duration": 2, "velocity": 102}, {"time": 435, "pitch": 66, "duration": 2, "velocity": 105}, {"time": 441, "pitch": 66, "duration": 2, "velocity": 100}, {"time": 447, "pitch": 66, "duration": 2, "velocity": 102}, {"time": 453, "pitch": 66, "duration": 8, "velocity": 105}, {"time": 465, "pitch": 63, "duration": 9, "velocity": 102}, {"time": 477, "pitch": 66, "duration": 12, "velocity": 105}, {"time": 525, "pitch": 61, "duration": 3, "velocity": 102}, {"time": 531, "pitch": 61, "duration": 2, "velocity": 89}, {"time": 537, "pitch": 61, "duration": 2, "velocity": 97}, {"time": 543, "pitch": 61, "duration": 2, "velocity": 94}, {"time": 549, "pitch": 61, "duration": 7, "velocity": 108}, {"time": 561, "pitch": 63, "duration": 7, "velocity": 105}, {"time": 573, "pitch": 61, "duration": 16, "velocity": 111}, {"time": 621, "pitch": 56, "duration": 2, "velocity": 105}, {"time": 627, "pitch": 56, "duration": 2, "velocity": 102}, {"time": 633, "pitch": 56, "duration": 2, "velocity": 111}, {"time": 639, "pitch": 56, "duration": 3, "velocity": 100}, {"time": 645, "pitch": 56, "duration": 7, "velocity": 111}, {"time": 657, "pitch": 58, "duration": 8, "velocity": 97}, {"time": 669, "pitch": 56, "duration": 11, "velocity": 108}, {"time": 717, "pitch": 56, "duration": 2, "velocity": 114}, {"time": 723, "pitch": 56, "duration": 6, "velocity": 105}, {"time": 735, "pitch": 56, "duration": 3, "velocity": 111}, {"time": 741, "pitch": 61, "duration": 8, "velocity": 102}, {"time": 753, "pitch": 59, "duration": 8, "velocity": 105}, {"time": 765, "pitch": 58, "duration": 22, "velocity": 108}, {"time": 807, "pitch": 58, "duration": 6, "velocity": 114}, {"time": 813, "pitch": 66, "duration": 2, "velocity": 102}, {"time": 819, "pitch": 66, "duration": 2, "velocity": 105}, {"time": 825, "pitch": 66, "duration": 2, "velocity": 100}, {"time": 831, "pitch": 66, "duration": 2, "velocity": 102}, {"time": 837, "pitch": 66, "duration": 8, "velocity": 105}, {"time": 849, "pitch": 63, "duration": 9, "velocity": 102}, {"time": 861, "pitch": 66, "duration": 12, "velocity": 105}, {"time": 909, "pitch": 61, "duration": 3, "velocity": 102}, {"time": 915, "pitch": 61, "duration": 2, "velocity": 89}, {"time": 921, "pitch": 61, "duration": 2, "velocity": 97}, {"time": 927, "pitch": 61, "duration": 2, "velocity": 94}, {"time": 933, "pitch": 61, "duration": 7, "velocity": 108}, {"time": 945, "pitch": 63, "duration": 7, "velocity": 105}, {"time": 957, "pitch": 61, "duration": 16, "velocity": 111}, {"time": 1005, "pitch": 56, "duration": 2, "velocity": 105}, {"time": 1011, "pitch": 56, "duration": 2, "velocity": 102}, {"time": 1017, "pitch": 56, "duration": 2, "velocity": 111}, {"time": 1023, "pitch": 56, "duration": 3, "velocity": 100}, {"time": 1029, "pitch": 56, "duration": 7, "velocity": 111}, {"time": 1041, "pitch": 58, "duration": 8, "velocity": 97}, {"time": 1053, "pitch": 56, "duration": 11, "velocity": 108}, {"time": 1101, "pitch": 58, "duration": 2, "velocity": 111}, {"time": 1107, "pitch": 58, "duration": 2, "velocity": 108}, {"time": 1113, "pitch": 58, "duration": 2, "velocity": 111}, {"time": 1119, "pitch": 58, "duration": 3, "velocity": 111}, {"time": 1125, "pitch": 66, "duration": 7, "velocity": 105}, {"time": 1137, "pitch": 65, "duration": 8, "velocity": 105}, {"time": 1149, "pitch": 63, "duration": 50, "velocity": 105}, {"time": 1245, "pitch": 63, "duration": 2, "velocity": 111}, {"time": 1251, "pitch": 63, "duration": 5, "velocity": 102}, {"time": 1263, "pitch": 63, "duration": 2, "velocity": 105}, {"time": 1269, "pitch": 63, "duration": 8, "velocity": 102}, {"time": 1281, "pitch": 70, "duration": 7, "velocity": 102}, {"time": 1293, "pitch": 68, "duration": 14, "velocity": 105}, {"time": 1341, "pitch": 68, "duration": 2, "velocity": 102}, {"time": 1347, "pitch": 68, "duration": 2, "velocity": 92}, {"time": 1353, "pitch": 68, "duration": 2, "velocity": 97}, {"time": 1359, "pitch": 68, "duration": 3, "velocity": 100}, {"time": 1365, "pitch": 73, "duration": 7, "velocity": 111}, {"time": 1377, "pitch": 71, "duration": 8, "velocity": 102}, {"time": 1389, "pitch": 70, "duration": 20, "velocity": 105}, {"time": 1437, "pitch": 63, "duration": 2, "velocity": 94}, {"time": 1443, "pitch": 63, "duration": 2, "velocity": 97}, {"time": 1449, "pitch": 63, "duration": 2, "velocity": 100}, {"time": 1455, "pitch": 63, "duration": 3, "velocity": 97}, {"time": 1461, "pitch": 63, "duration": 7, "velocity": 97}, {"time": 1473, "pitch": 70, "duration": 8, "velocity": 97}, {"time": 1485, "pitch": 68, "duration": 17, "velocity": 100}, {"time": 1533, "pitch": 68, "duration": 2, "velocity": 102}, {"time": 1539, "pitch": 68, "duration": 2, "velocity": 89}, {"time": 1545, "pitch": 68, "duration": 3, "velocity": 100}, {"time": 1551, "pitch": 66, "duration": 3, "velocity": 100}, {"time": 1557, "pitch": 68, "duration": 7, "velocity": 111}, {"time": 1569, "pitch": 71, "duration": 8, "velocity": 111}, {"time": 1581, "pitch": 70, "duration": 24, "velocity": 108}, {"time": 1629, "pitch": 70, "duration": 3, "velocity": 100}, {"time": 1635, "pitch": 70, "duration": 4, "velocity": 97}, {"time": 1647, "pitch": 70, "duration": 3, "velocity": 105}, {"time": 1653, "pitch": 70, "duration": 9, "velocity": 108}, {"time": 1665, "pitch": 73, "duration": 9, "velocity": 102}, {"time": 1677, "pitch": 68, "duration": 36, "velocity": 105}, {"time": 1725, "pitch": 68, "duration": 2, "velocity": 105}, {"time": 1731, "pitch": 68, "duration": 2, "velocity": 100}, {"time": 1737, "pitch": 68, "duration": 2, "velocity": 105}, {"time": 1743, "pitch": 68, "duration": 3, "velocity": 105}, {"time": 1749, "pitch": 73, "duration": 7, "velocity": 94}, {"time": 1761, "pitch": 68, "duration": 7, "velocity": 111}, {"time": 1773, "pitch": 70, "duration": 14, "velocity": 108}, {"time": 1821, "pitch": 63, "duration": 2, "velocity": 108}, {"time": 1827, "pitch": 63, "duration": 2, "velocity": 102}, {"time": 1833, "pitch": 63, "duration": 2, "velocity": 108}, {"time": 1839, "pitch": 63, "duration": 2, "velocity": 108}, {"time": 1845, "pitch": 63, "duration": 7, "velocity": 111}, {"time": 1857, "pitch": 70, "duration": 9, "velocity": 102}, {"time": 1869, "pitch": 68, "duration": 14, "velocity": 111}, {"time": 1905, "pitch": 68, "duration": 3, "velocity": 105}, {"time": 1911, "pitch": 66, "duration": 3, "velocity": 100}, {"time": 1917, "pitch": 65, "duration": 2, "velocity": 105}, {"time": 1923, "pitch": 65, "duration": 14, "velocity": 109}, {"time": 1941, "pitch": 66, "duration": 8, "velocity": 100}, {"time": 1953, "pitch": 65, "duration": 8, "velocity": 112}, {"time": 1965, "pitch": 63, "duration": 48, "velocity": 108}, {"time": 2397, "pitch": 66, "duration": 5, "velocity": 111}, {"time": 2403, "pitch": 63, "duration": 6, "velocity": 92}, {"time": 2415, "pitch": 66, "duration": 4, "velocity": 102}, {"time": 2421, "pitch": 63, "duration": 7, "velocity": 114}, {"time": 2433, "pitch": 70, "duration": 8, "velocity": 105}, {"time": 2445, "pitch": 68, "duration": 17, "velocity": 105}, {"time": 2493, "pitch": 68, "duration": 4, "velocity": 97}, {"time": 2499, "pitch": 61, "duration": 5, "velocity": 105}, {"time": 2511, "pitch": 68, "duration": 3, "velocity": 97}, {"time": 2517, "pitch": 61, "duration": 5, "velocity": 111}, {"time": 2529, "pitch": 71, "duration": 7, "velocity": 102}, {"time": 2541, "pitch": 70, "duration": 18, "velocity": 100}, {"time": 2589, "pitch": 66, "duration": 5, "velocity": 111}, {"time": 2595, "pitch": 63, "duration": 6, "velocity": 92}, {"time": 2607, "pitch": 66, "duration": 4, "velocity": 102}, {"time": 2613, "pitch": 63, "duration": 7, "velocity": 114}, {"time": 2625, "pitch": 70, "duration": 8, "velocity": 105}, {"time": 2637, "pitch": 68, "duration": 17, "velocity": 105}, {"time": 2673, "pitch": 68, "duration": 3, "velocity": 102}, {"time": 2679, "pitch": 66, "duration": 2, "velocity": 94}, {"time": 2685, "pitch": 65, "duration": 2, "velocity": 109}, {"time": 2691, "pitch": 65, "duration": 9, "velocity": 99}, {"time": 2703, "pitch": 65, "duration": 3, "velocity": 93}, {"time": 2709, "pitch": 66, "duration": 7, "velocity": 97}, {"time": 2721, "pitch": 65, "duration": 7, "velocity": 105}, {"time": 2733, "pitch": 63, "duration": 14, "velocity": 105}, {"time": 2781, "pitch": 66, "duration": 2, "velocity": 102}, {"time": 2787, "pitch": 66, "duration": 2, "velocity": 105}, {"time": 2793, "pitch": 66, "duration": 2, "velocity": 100}, {"time": 2799, "pitch": 66, "duration": 2, "velocity": 102}, {"time": 2805, "pitch": 66, "duration": 8, "velocity": 105}, {"time": 2817, "pitch": 63, "duration": 9, "velocity": 102}, {"time": 2829, "pitch": 66, "duration": 12, "velocity": 105}, {"time": 2877, "pitch": 61, "duration": 3, "velocity": 102}, {"time": 2883, "pitch": 61, "duration": 2, "velocity": 89}, {"time": 2889, "pitch": 61, "duration": 2, "velocity": 97}, {"time": 2895, "pitch": 61, "duration": 2, "velocity": 94}, {"time": 2901, "pitch": 61, "duration": 7, "velocity": 108}, {"time": 2913, "pitch": 63, "duration": 7, "velocity": 105}, {"time": 2925, "pitch": 61, "duration": 16, "velocity": 111}, {"time": 2973, "pitch": 56, "duration": 2, "velocity": 105}, {"time": 2979, "pitch": 56, "duration": 2, "velocity": 102}, {"time": 2985, "pitch": 56, "duration": 2, "velocity": 111}, {"time": 2991, "pitch": 56, "duration": 3, "velocity": 100}, {"time": 2997, "pitch": 56, "duration": 7, "velocity": 111}, {"time": 3009, "pitch": 58, "duration": 8, "velocity": 97}, {"time": 3021, "pitch": 56, "duration": 11, "velocity": 108}, {"time": 3069, "pitch": 56, "duration": 2, "velocity": 114}, {"time": 3075, "pitch": 56, "duration": 6, "velocity": 105}, {"time": 3087, "pitch": 56, "duration": 3, "velocity": 111}, {"time": 3093, "pitch": 61, "duration": 8, "velocity": 102}, {"time": 3105, "pitch": 59, "duration": 8, "velocity": 105}, {"time": 3117, "pitch": 58, "duration": 22, "velocity": 108}, {"time": 3159, "pitch": 58, "duration": 6, "velocity": 114}, {"time": 3165, "pitch": 66, "duration": 2, "velocity": 102}, {"time": 3171, "pitch": 66, "duration": 2, "velocity": 105}, {"time": 3177, "pitch": 66, "duration": 2, "velocity": 100}, {"time": 3183, "pitch": 66, "duration": 2, "velocity": 102}, {"time": 3189, "pitch": 66, "duration": 8, "velocity": 105}, {"time": 3201, "pitch": 63, "duration": 9, "velocity": 102}, {"time": 3213, "pitch": 66, "duration": 12, "velocity": 105}, {"time": 3261, "pitch": 61, "duration": 3, "velocity": 102}, {"time": 3267, "pitch": 61, "duration": 2, "velocity": 89}, {"time": 3273, "pitch": 61, "duration": 2, "velocity": 97}, {"time": 3279, "pitch": 61, "duration": 2, "velocity": 94}, {"time": 3285, "pitch": 61, "duration": 7, "velocity": 108}, {"time": 3297, "pitch": 63, "duration": 7, "velocity": 105}, {"time": 3309, "pitch": 61, "duration": 16, "velocity": 111}, {"time": 3357, "pitch": 56, "duration": 2, "velocity": 105}, {"time": 3363, "pitch": 56, "duration": 2, "velocity": 102}, {"time": 3369, "pitch": 56, "duration": 2, "velocity": 111}, {"time": 3375, "pitch": 56, "duration": 3, "velocity": 100}, {"time": 3381, "pitch": 56, "duration": 7, "velocity": 111}, {"time": 3393, "pitch": 58, "duration": 8, "velocity": 97}, {"time": 3405, "pitch": 56, "duration": 11, "velocity": 108}, {"time": 3453, "pitch": 58, "duration": 2, "velocity": 111}, {"time": 3459, "pitch": 58, "duration": 2, "velocity": 108}, {"time": 3465, "pitch": 58, "duration": 2, "velocity": 111}, {"time": 3471, "pitch": 58, "duration": 3, "velocity": 111}, {"time": 3477, "pitch": 66, "duration": 7, "velocity": 105}, {"time": 3489, "pitch": 65, "duration": 8, "velocity": 105}, {"time": 3501, "pitch": 63, "duration": 50, "velocity": 105}, {"time": 3597, "pitch": 63, "duration": 2, "velocity": 111}, {"time": 3603, "pitch": 63, "duration": 5, "velocity": 102}, {"time": 3615, "pitch": 63, "duration": 2, "velocity": 105}, {"time": 3621, "pitch": 63, "duration": 8, "velocity": 102}, {"time": 3633, "pitch": 70, "duration": 7, "velocity": 102}, {"time": 3645, "pitch": 68, "duration": 14, "velocity": 105}, {"time": 3693, "pitch": 68, "duration": 2, "velocity": 102}, {"time": 3699, "pitch": 68, "duration": 2, "velocity": 92}, {"time": 3705, "pitch": 68, "duration": 2, "velocity": 97}, {"time": 3711, "pitch": 68, "duration": 3, "velocity": 100}, {"time": 3717, "pitch": 73, "duration": 7, "velocity": 111}, {"time": 3729, "pitch": 71, "duration": 8, "velocity": 102}, {"time": 3741, "pitch": 70, "duration": 20, "velocity": 105}, {"time": 3789, "pitch": 63, "duration": 2, "velocity": 94}, {"time": 3795, "pitch": 63, "duration": 2, "velocity": 97}, {"time": 3801, "pitch": 63, "duration": 2, "velocity": 100}, {"time": 3807, "pitch": 63, "duration": 3, "velocity": 97}, {"time": 3813, "pitch": 63, "duration": 7, "velocity": 97}, {"time": 3825, "pitch": 70, "duration": 8, "velocity": 97}, {"time": 3837, "pitch": 68, "duration": 17, "velocity": 100}, {"time": 3885, "pitch": 68, "duration": 2, "velocity": 102}, {"time": 3891, "pitch": 68, "duration": 2, "velocity": 89}, {"time": 3897, "pitch": 68, "duration": 3, "velocity": 100}, {"time": 3903, "pitch": 66, "duration": 3, "velocity": 100}, {"time": 3909, "pitch": 68, "duration": 7, "velocity": 111}, {"time": 3921, "pitch": 71, "duration": 8, "velocity": 111}, {"time": 3933, "pitch": 70, "duration": 24, "velocity": 108}, {"time": 3981, "pitch": 70, "duration": 3, "velocity": 100}, {"time": 3987, "pitch": 70, "duration": 4, "velocity": 97}, {"time": 3999, "pitch": 70, "duration": 3, "velocity": 105}, {"time": 4005, "pitch": 70, "duration": 9, "velocity": 108}, {"time": 4017, "pitch": 73, "duration": 9, "velocity": 102}, {"time": 4029, "pitch": 68, "duration": 36, "velocity": 105}, {"time": 4077, "pitch": 68, "duration": 2, "velocity": 105}, {"time": 4083, "pitch": 68, "duration": 2, "velocity": 100}, {"time": 4089, "pitch": 68, "duration": 2, "velocity": 105}, {"time": 4095, "pitch": 68, "duration": 3, "velocity": 105}, {"time": 4101, "pitch": 73, "duration": 7, "velocity": 94}, {"time": 4113, "pitch": 68, "duration": 7, "velocity": 111}, {"time": 4125, "pitch": 70, "duration": 14, "velocity": 108}, {"time": 4173, "pitch": 63, "duration": 2, "velocity": 108}, {"time": 4179, "pitch": 63, "duration": 2, "velocity": 102}, {"time": 4185, "pitch": 63, "duration": 2, "velocity": 108}, {"time": 4191, "pitch": 63, "duration": 2, "velocity": 108}, {"time": 4197, "pitch": 63, "duration": 7, "velocity": 111}, {"time": 4209, "pitch": 70, "duration": 9, "velocity": 102}, {"time": 4221, "pitch": 68, "duration": 14, "velocity": 111}, {"time": 4257, "pitch": 68, "duration": 3, "velocity": 105}, {"time": 4263, "pitch": 66, "duration": 3, "velocity": 100}, {"time": 4269, "pitch": 65, "duration": 2, "velocity": 105}, {"time": 4275, "pitch": 65, "duration": 14, "velocity": 109}, {"time": 4293, "pitch": 66, "duration": 8, "velocity": 100}, {"time": 4305, "pitch": 65, "duration": 8, "velocity": 112}, {"time": 4317, "pitch": 63, "duration": 48, "velocity": 108}, {"time": 4365, "pitch": 63, "duration": 2, "velocity": 111}, {"time": 4371, "pitch": 63, "duration": 5, "velocity": 102}, {"time": 4383, "pitch": 63, "duration": 2, "velocity": 105}, {"time": 4389, "pitch": 63, "duration": 8, "velocity": 102}, {"time": 4401, "pitch": 70, "duration": 7, "velocity": 102}, {"time": 4413, "pitch": 68, "duration": 14, "velocity": 105}, {"time": 4461, "pitch": 68, "duration": 2, "velocity": 102}, {"time": 4467, "pitch": 68, "duration": 2, "velocity": 92}, {"time": 4473, "pitch": 68, "duration": 2, "velocity": 97}, {"time": 4479, "pitch": 68, "duration": 3, "velocity": 100}, {"time": 4485, "pitch": 73, "duration": 7, "velocity": 111}, {"time": 4497, "pitch": 71, "duration": 8, "velocity": 102}, {"time": 4509, "pitch": 70, "duration": 20, "velocity": 105}, {"time": 4557, "pitch": 63, "duration": 2, "velocity": 94}, {"time": 4563, "pitch": 63, "duration": 2, "velocity": 97}, {"time": 4569, "pitch": 63, "duration": 2, "velocity": 100}, {"time": 4575, "pitch": 63, "duration": 3, "velocity": 97}, {"time": 4581, "pitch": 63, "duration": 7, "velocity": 97}, {"time": 4593, "pitch": 70, "duration": 8, "velocity": 97}, {"time": 4605, "pitch": 68, "duration": 17, "velocity": 100}, {"time": 4653, "pitch": 68, "duration": 2, "velocity": 102}, {"time": 4659, "pitch": 68, "duration": 2, "velocity": 89}, {"time": 4665, "pitch": 68, "duration": 3, "velocity": 100}, {"time": 4671, "pitch": 66, "duration": 3, "velocity": 100}, {"time": 4677, "pitch": 68, "duration": 7, "velocity": 111}, {"time": 4689, "pitch": 71, "duration": 8, "velocity": 111}, {"time": 4701, "pitch": 70, "duration": 24, "velocity": 108}, {"time": 4749, "pitch": 70, "duration": 3, "velocity": 100}, {"time": 4755, "pitch": 70, "duration": 4, "velocity": 97}, {"time": 4767, "pitch": 70, "duration": 3, "velocity": 105}, {"time": 4773, "pitch": 70, "duration": 9, "velocity": 108}, {"time": 4785, "pitch": 73, "duration": 9, "velocity": 102}, {"time": 4797, "pitch": 68, "duration": 36, "velocity": 105}, {"time": 4845, "pitch": 68, "duration": 2, "velocity": 105}, {"time": 4851, "pitch": 68, "duration": 2, "velocity": 100}, {"time": 4857, "pitch": 68, "duration": 2, "velocity": 105}, {"time": 4863, "pitch": 68, "duration": 3, "velocity": 105}, {"time": 4869, "pitch": 73, "duration": 7, "velocity": 94}, {"time": 4881, "pitch": 68, "duration": 7, "velocity": 111}, {"time": 4893, "pitch": 70, "duration": 14, "velocity": 108}, {"time": 4941, "pitch": 63, "duration": 2, "velocity": 108}, {"time": 4947, "pitch": 63, "duration": 2, "velocity": 102}, {"time": 4953, "pitch": 63, "duration": 2, "velocity": 108}, {"time": 4959, "pitch": 63, "duration": 2, "velocity": 108}, {"time": 4965, "pitch": 63, "duration": 7, "velocity": 111}, {"time": 4977, "pitch": 70, "duration": 9, "velocity": 102}, {"time": 4989, "pitch": 68, "duration": 14, "velocity": 111}, {"time": 5025, "pitch": 68, "duration": 3, "velocity": 105}, {"time": 5031, "pitch": 66, "duration": 3, "velocity": 100}, {"time": 5037, "pitch": 65, "duration": 2, "velocity": 105}, {"time": 5043, "pitch": 65, "duration": 14, "velocity": 109}, {"time": 5061, "pitch": 66, "duration": 8, "velocity": 100}, {"time": 5073, "pitch": 65, "duration": 8, "velocity": 112}, {"time": 5085, "pitch": 63, "duration": 48, "velocity": 108}, {"time": 5133, "pitch": 63, "duration": 30, "velocity": 111}, {"time": 5169, "pitch": 70, "duration": 7, "velocity": 102}, {"time": 5181, "pitch": 68, "duration": 14, "velocity": 105}, {"time": 5217, "pitch": 63, "duration": 4, "velocity": 108}, {"time": 5223, "pitch": 66, "duration": 3, "velocity": 97}, {"time": 5229, "pitch": 68, "duration": 8, "velocity": 105}, {"time": 5241, "pitch": 68, "duration": 6, "velocity": 108}, {"time": 5253, "pitch": 73, "duration": 7, "velocity": 97}, {"time": 5265, "pitch": 68, "duration": 8, "velocity": 105}, {"time": 5277, "pitch": 70, "duration": 23, "velocity": 105}, {"time": 5325, "pitch": 63, "duration": 31, "velocity": 117}, {"time": 5361, "pitch": 70, "duration": 9, "velocity": 102}, {"time": 5373, "pitch": 68, "duration": 30, "velocity": 105}, {"time": 5409, "pitch": 68, "duration": 3, "velocity": 102}, {"time": 5415, "pitch": 66, "duration": 3, "velocity": 102}, {"time": 5421, "pitch": 65, "duration": 3, "velocity": 109}, {"time": 5427, "pitch": 65, "duration": 46, "velocity": 93}, {"time": 5495, "pitch": 66, "duration": 15, "velocity": 92}, {"time": 5514, "pitch": 65, "duration": 14, "velocity": 99}, {"time": 5534, "pitch": 63, "duration": 76, "velocity": 100}]}, {"program": 0, "is_drum": false, "name": "PIANO", "notes": [{"time": 45, "pitch": 51, "duration": 44, "velocity": 94}, {"time": 45, "pitch": 63, "duration": 14, "velocity": 92}, {"time": 45, "pitch": 66, "duration": 14, "velocity": 97}, {"time": 57, "pitch": 58, "duration": 19, "velocity": 66}, {"time": 63, "pitch": 63, "duration": 18, "velocity": 97}, {"time": 63, "pitch": 66, "duration": 18, "velocity": 102}, {"time": 81, "pitch": 58, "duration": 8, "velocity": 58}, {"time": 87, "pitch": 63, "duration": 3, "velocity": 94}, {"time": 87, "pitch": 66, "duration": 3, "velocity": 97}, {"time": 93, "pitch": 56, "duration": 38, "velocity": 94}, {"time": 93, "pitch": 63, "duration": 14, "velocity": 89}, {"time": 93, "pitch": 68, "duration": 14, "velocity": 87}, {"time": 105, "pitch": 59, "duration": 25, "velocity": 53}, {"time": 111, "pitch": 63, "duration": 14, "velocity": 100}, {"time": 111, "pitch": 68, "duration": 14, "velocity": 94}, {"time": 129, "pitch": 63, "duration": 5, "velocity": 78}, {"time": 129, "pitch": 68, "duration": 7, "velocity": 94}, {"time": 141, "pitch": 49, "duration": 45, "velocity": 97}, {"time": 141, "pitch": 61, "duration": 13, "velocity": 94}, {"time": 141, "pitch": 65, "duration": 13, "velocity": 90}, {"time": 141, "pitch": 68, "duration": 13, "velocity": 97}, {"time": 153, "pitch": 56, "duration": 9, "velocity": 49}, {"time": 159, "pitch": 61, "duration": 13, "velocity": 97}, {"time": 159, "pitch": 65, "duration": 13, "velocity": 105}, {"time": 159, "pitch": 68, "duration": 13, "velocity": 102}, {"time": 171, "pitch": 56, "duration": 16, "velocity": 1}, {"time": 177, "pitch": 61, "duration": 5, "velocity": 102}, {"time": 177, "pitch": 65, "duration": 6, "velocity": 105}, {"time": 177, "pitch": 68, "duration": 7, "velocity": 105}, {"time": 189, "pitch": 54, "duration": 40, "velocity": 92}, {"time": 189, "pitch": 61, "duration": 14, "velocity": 80}, {"time": 189, "pitch": 66, "duration": 14, "velocity": 94}, {"time": 201, "pitch": 58, "duration": 33, "velocity": 42}, {"time": 207, "pitch": 61, "duration": 12, "velocity": 97}, {"time": 207, "pitch": 66, "duration": 12, "velocity": 108}, {"time": 225, "pitch": 61, "duration": 5, "velocity": 92}, {"time": 225, "pitch": 66, "duration": 6, "velocity": 100}, {"time": 237, "pitch": 51, "duration": 45, "velocity": 97}, {"time": 237, "pitch": 63, "duration": 8, "velocity": 82}, {"time": 237, "pitch": 66, "duration": 9, "velocity": 92}, {"time": 243, "pitch": 58, "duration": 16, "velocity": 84}, {"time": 255, "pitch": 63, "duration": 8, "velocity": 102}, {"time": 255, "pitch": 66, "duration": 9, "velocity": 111}, {"time": 261, "pitch": 58, "duration": 18, "velocity": 44}, {"time": 267, "pitch": 63, "duration": 3, "velocity": 92}, {"time": 273, "pitch": 63, "duration": 6, "velocity": 100}, {"time": 273, "pitch": 66, "duration": 7, "velocity": 105}, {"time": 285, "pitch": 56, "duration": 38, "velocity": 100}, {"time": 285, "pitch": 63, "duration": 12, "velocity": 87}, {"time": 285, "pitch": 68, "duration": 13, "velocity": 92}, {"time": 297, "pitch": 59, "duration": 8, "velocity": 44}, {"time": 303, "pitch": 63, "duration": 9, "velocity": 97}, {"time": 303, "pitch": 68, "duration": 10, "velocity": 100}, {"time": 309, "pitch": 59, "duration": 15, "velocity": 48}, {"time": 321, "pitch": 63, "duration": 5, "velocity": 94}, {"time": 321, "pitch": 68, "duration": 5, "velocity": 102}, {"time": 333, "pitch": 46, "duration": 24, "velocity": 97}, {"time": 333, "pitch": 58, "duration": 10, "velocity": 69}, {"time": 333, "pitch": 62, "duration": 10, "velocity": 41}, {"time": 351, "pitch": 58, "duration": 12, "velocity": 102}, {"time": 351, "pitch": 62, "duration": 12, "velocity": 105}, {"time": 351, "pitch": 65, "duration": 12, "velocity": 93}, {"time": 369, "pitch": 58, "duration": 3, "velocity": 100}, {"time": 369, "pitch": 62, "duration": 4, "velocity": 102}, {"time": 369, "pitch": 65, "duration": 8, "velocity": 87}, {"time": 375, "pitch": 58, "duration": 2, "velocity": 60}, {"time": 381, "pitch": 51, "duration": 37, "velocity": 94}, {"time": 381, "pitch": 58, "duration": 14, "velocity": 84}, {"time": 381, "pitch": 63, "duration": 14, "velocity": 100}, {"time": 429, "pitch": 51, "duration": 44, "velocity": 100}, {"time": 429, "pitch": 63, "duration": 8, "velocity": 71}, {"time": 429, "pitch": 66, "duration": 13, "velocity": 67}, {"time": 435, "pitch": 58, "duration": 21, "velocity": 66}, {"time": 441, "pitch": 63, "duration": 4, "velocity": 78}, {"time": 447, "pitch": 63, "duration": 19, "velocity": 97}, {"time": 447, "pitch": 66, "duration": 19, "velocity": 114}, {"time": 465, "pitch": 58, "duration": 9, "velocity": 82}, {"time": 471, "pitch": 63, "duration": 13, "velocity": 100}, {"time": 471, "pitch": 66, "duration": 2, "velocity": 49}, {"time": 477, "pitch": 51, "duration": 37, "velocity": 102}, {"time": 483, "pitch": 58, "duration": 29, "velocity": 67}, {"time": 489, "pitch": 63, "duration": 3, "velocity": 80}, {"time": 495, "pitch": 63, "duration": 18, "velocity": 92}, {"time": 495, "pitch": 66, "duration": 16, "velocity": 94}, {"time": 495, "pitch": 70, "duration": 17, "velocity": 100}, {"time": 525, "pitch": 49, "duration": 43, "velocity": 97}, {"time": 525, "pitch": 61, "duration": 7, "velocity": 82}, {"time": 525, "pitch": 65, "duration": 15, "velocity": 68}, {"time": 531, "pitch": 56, "duration": 37, "velocity": 78}, {"time": 537, "pitch": 61, "duration": 41, "velocity": 73}, {"time": 543, "pitch": 65, "duration": 37, "velocity": 99}, {"time": 543, "pitch": 68, "duration": 34, "velocity": 92}, {"time": 573, "pitch": 49, "duration": 37, "velocity": 97}, {"time": 579, "pitch": 56, "duration": 21, "velocity": 67}, {"time": 585, "pitch": 61, "duration": 4, "velocity": 87}, {"time": 591, "pitch": 61, "duration": 18, "velocity": 92}, {"time": 591, "pitch": 65, "duration": 18, "velocity": 102}, {"time": 591, "pitch": 68, "duration": 18, "velocity": 100}, {"time": 621, "pitch": 44, "duration": 41, "velocity": 89}, {"time": 621, "pitch": 56, "duration": 7, "velocity": 89}, {"time": 621, "pitch": 59, "duration": 13, "velocity": 92}, {"time": 627, "pitch": 51, "duration": 18, "velocity": 69}, {"time": 633, "pitch": 56, "duration": 24, "velocity": 76}, {"time": 639, "pitch": 59, "duration": 35, "velocity": 94}, {"time": 639, "pitch": 63, "duration": 29, "velocity": 94}, {"time": 657, "pitch": 51, "duration": 7, "velocity": 67}, {"time": 663, "pitch": 56, "duration": 12, "velocity": 89}, {"time": 669, "pitch": 44, "duration": 34, "velocity": 94}, {"time": 675, "pitch": 51, "duration": 22, "velocity": 62}, {"time": 681, "pitch": 56, "duration": 4, "velocity": 92}, {"time": 687, "pitch": 56, "duration": 16, "velocity": 102}, {"time": 687, "pitch": 59, "duration": 16, "velocity": 108}, {"time": 687, "pitch": 63, "duration": 18, "velocity": 100}, {"time": 717, "pitch": 46, "duration": 41, "velocity": 100}, {"time": 729, "pitch": 58, "duration": 24, "velocity": 100}, {"time": 735, "pitch": 62, "duration": 20, "velocity": 109}, {"time": 735, "pitch": 65, "duration": 34, "velocity": 90}, {"time": 753, "pitch": 53, "duration": 8, "velocity": 50}, {"time": 759, "pitch": 58, "duration": 11, "velocity": 89}, {"time": 759, "pitch": 62, "duration": 9, "velocity": 12}, {"time": 765, "pitch": 46, "duration": 44, "velocity": 102}, {"time": 771, "pitch": 53, "duration": 19, "velocity": 65}, {"time": 777, "pitch": 58, "duration": 3, "velocity": 82}, {"time": 783, "pitch": 58, "duration": 15, "velocity": 97}, {"time": 783, "pitch": 62, "duration": 15, "velocity": 102}, {"time": 783, "pitch": 65, "duration": 15, "velocity": 96}, {"time": 801, "pitch": 58, "duration": 10, "velocity": 84}, {"time": 801, "pitch": 62, "duration": 10, "velocity": 74}, {"time": 801, "pitch": 65, "duration": 10, "velocity": 63}, {"time": 813, "pitch": 51, "duration": 44, "velocity": 100}, {"time": 813, "pitch": 63, "duration": 8, "velocity": 71}, {"time": 813, "pitch": 66, "duration": 13, "velocity": 67}, {"time": 819, "pitch": 58, "duration": 21, "velocity": 66}, {"time": 825, "pitch": 63, "duration": 4, "velocity": 78}, {"time": 831, "pitch": 63, "duration": 19, "velocity": 97}, {"time": 831, "pitch": 66, "duration": 19, "velocity": 114}, {"time": 849, "pitch": 58, "duration": 9, "velocity": 82}, {"time": 855, "pitch": 63, "duration": 13, "velocity": 100}, {"time": 855, "pitch": 66, "duration": 2, "velocity": 49}, {"time": 861, "pitch": 51, "duration": 37, "velocity": 102}, {"time": 867, "pitch": 58, "duration": 29, "velocity": 67}, {"time": 873, "pitch": 63, "duration": 3, "velocity": 80}, {"time": 879, "pitch": 63, "duration": 18, "velocity": 92}, {"time": 879, "pitch": 66, "duration": 16, "velocity": 94}, {"time": 879, "pitch": 70, "duration": 17, "velocity": 100}, {"time": 909, "pitch": 49, "duration": 43, "velocity": 97}, {"time": 909, "pitch": 61, "duration": 7, "velocity": 82}, {"time": 909, "pitch": 65, "duration": 15, "velocity": 68}, {"time": 915, "pitch": 56, "duration": 37, "velocity": 78}, {"time": 921, "pitch": 61, "duration": 41, "velocity": 73}, {"time": 927, "pitch": 65, "duration": 37, "velocity": 99}, {"time": 927, "pitch": 68, "duration": 34, "velocity": 92}, {"time": 957, "pitch": 49, "duration": 37, "velocity": 97}, {"time": 963, "pitch": 56, "duration": 21, "velocity": 67}, {"time": 969, "pitch": 61, "duration": 4, "velocity": 87}, {"time": 975, "pitch": 61, "duration": 18, "velocity": 92}, {"time": 975, "pitch": 65, "duration": 18, "velocity": 102}, {"time": 975, "pitch": 68, "duration": 18, "velocity": 100}, {"time": 1005, "pitch": 44, "duration": 41, "velocity": 89}, {"time": 1005, "pitch": 56, "duration": 7, "velocity": 89}, {"time": 1005, "pitch": 59, "duration": 13, "velocity": 92}, {"time": 1011, "pitch": 51, "duration": 18, "velocity": 69}, {"time": 1017, "pitch": 56, "duration": 24, "velocity": 76}, {"time": 1023, "pitch": 59, "duration": 35, "velocity": 94}, {"time": 1023, "pitch": 63, "duration": 29, "velocity": 94}, {"time": 1041, "pitch": 51, "duration": 7, "velocity": 67}, {"time": 1047, "pitch": 56, "duration": 12, "velocity": 89}, {"time": 1053, "pitch": 44, "duration": 34, "velocity": 94}, {"time": 1059, "pitch": 51, "duration": 22, "velocity": 62}, {"time": 1065, "pitch": 56, "duration": 4, "velocity": 92}, {"time": 1071, "pitch": 56, "duration": 16, "velocity": 102}, {"time": 1071, "pitch": 59, "duration": 16, "velocity": 108}, {"time": 1071, "pitch": 63, "duration": 18, "velocity": 100}, {"time": 1101, "pitch": 46, "duration": 33, "velocity": 94}, {"time": 1101, "pitch": 58, "duration": 8, "velocity": 87}, {"time": 1101, "pitch": 62, "duration": 14, "velocity": 99}, {"time": 1101, "pitch": 65, "duration": 14, "velocity": 77}, {"time": 1107, "pitch": 53, "duration": 14, "velocity": 40}, {"time": 1113, "pitch": 58, "duration": 3, "velocity": 89}, {"time": 1119, "pitch": 58, "duration": 8, "velocity": 94}, {"time": 1119, "pitch": 62, "duration": 6, "velocity": 99}, {"time": 1119, "pitch": 65, "duration": 8, "velocity": 99}, {"time": 1125, "pitch": 53, "duration": 8, "velocity": 52}, {"time": 1131, "pitch": 58, "duration": 5, "velocity": 100}, {"time": 1131, "pitch": 62, "duration": 7, "velocity": 109}, {"time": 1137, "pitch": 46, "duration": 4, "velocity": 80}, {"time": 1143, "pitch": 58, "duration": 3, "velocity": 108}, {"time": 1149, "pitch": 51, "duration": 42, "velocity": 97}, {"time": 1149, "pitch": 58, "duration": 5, "velocity": 100}, {"time": 1149, "pitch": 63, "duration": 6, "velocity": 102}, {"time": 1161, "pitch": 58, "duration": 8, "velocity": 69}, {"time": 1167, "pitch": 63, "duration": 6, "velocity": 114}, {"time": 1173, "pitch": 58, "duration": 7, "velocity": 80}, {"time": 1179, "pitch": 63, "duration": 6, "velocity": 105}, {"time": 1179, "pitch": 66, "duration": 6, "velocity": 117}, {"time": 1185, "pitch": 58, "duration": 6, "velocity": 80}, {"time": 1191, "pitch": 63, "duration": 3, "velocity": 84}, {"time": 1197, "pitch": 51, "duration": 8, "velocity": 105}, {"time": 1197, "pitch": 58, "duration": 8, "velocity": 97}, {"time": 1197, "pitch": 63, "duration": 7, "velocity": 100}, {"time": 1197, "pitch": 66, "duration": 7, "velocity": 100}, {"time": 1245, "pitch": 51, "duration": 45, "velocity": 102}, {"time": 1245, "pitch": 63, "duration": 7, "velocity": 97}, {"time": 1245, "pitch": 66, "duration": 8, "velocity": 108}, {"time": 1251, "pitch": 58, "duration": 38, "velocity": 87}, {"time": 1257, "pitch": 63, "duration": 3, "velocity": 97}, {"time": 1263, "pitch": 63, "duration": 7, "velocity": 111}, {"time": 1263, "pitch": 66, "duration": 6, "velocity": 117}, {"time": 1275, "pitch": 63, "duration": 2, "velocity": 87}, {"time": 1281, "pitch": 63, "duration": 3, "velocity": 102}, {"time": 1281, "pitch": 66, "duration": 6, "velocity": 108}, {"time": 1287, "pitch": 63, "duration": 2, "velocity": 78}, {"time": 1293, "pitch": 51, "duration": 40, "velocity": 45}, {"time": 1293, "pitch": 56, "duration": 37, "velocity": 105}, {"time": 1293, "pitch": 63, "duration": 13, "velocity": 97}, {"time": 1293, "pitch": 68, "duration": 13, "velocity": 87}, {"time": 1305, "pitch": 59, "duration": 11, "velocity": 52}, {"time": 1311, "pitch": 63, "duration": 7, "velocity": 102}, {"time": 1311, "pitch": 68, "duration": 10, "velocity": 108}, {"time": 1323, "pitch": 63, "duration": 3, "velocity": 73}, {"time": 1329, "pitch": 63, "duration": 4, "velocity": 100}, {"time": 1329, "pitch": 68, "duration": 4, "velocity": 100}, {"time": 1341, "pitch": 49, "duration": 46, "velocity": 100}, {"time": 1341, "pitch": 61, "duration": 8, "velocity": 87}, {"time": 1341, "pitch": 65, "duration": 9, "velocity": 90}, {"time": 1341, "pitch": 68, "duration": 13, "velocity": 94}, {"time": 1347, "pitch": 56, "duration": 16, "velocity": 84}, {"time": 1359, "pitch": 61, "duration": 1, "velocity": 82}, {"time": 1359, "pitch": 65, "duration": 8, "velocity": 93}, {"time": 1359, "pitch": 68, "duration": 9, "velocity": 102}, {"time": 1365, "pitch": 56, "duration": 17, "velocity": 66}, {"time": 1371, "pitch": 61, "duration": 3, "velocity": 105}, {"time": 1377, "pitch": 61, "duration": 2, "velocity": 84}, {"time": 1377, "pitch": 65, "duration": 6, "velocity": 102}, {"time": 1377, "pitch": 68, "duration": 7, "velocity": 102}, {"time": 1383, "pitch": 61, "duration": 2, "velocity": 69}, {"time": 1389, "pitch": 54, "duration": 38, "velocity": 92}, {"time": 1389, "pitch": 61, "duration": 12, "velocity": 84}, {"time": 1389, "pitch": 66, "duration": 13, "velocity": 97}, {"time": 1401, "pitch": 58, "duration": 8, "velocity": 73}, {"time": 1407, "pitch": 61, "duration": 6, "velocity": 102}, {"time": 1407, "pitch": 66, "duration": 7, "velocity": 108}, {"time": 1407, "pitch": 70, "duration": 6, "velocity": 100}, {"time": 1413, "pitch": 58, "duration": 22, "velocity": 55}, {"time": 1419, "pitch": 61, "duration": 2, "velocity": 80}, {"time": 1425, "pitch": 61, "duration": 4, "velocity": 97}, {"time": 1425, "pitch": 66, "duration": 9, "velocity": 108}, {"time": 1425, "pitch": 70, "duration": 10, "velocity": 97}, {"time": 1431, "pitch": 61, "duration": 3, "velocity": 71}, {"time": 1437, "pitch": 51, "duration": 45, "velocity": 100}, {"time": 1437, "pitch": 63, "duration": 13, "velocity": 92}, {"time": 1437, "pitch": 66, "duration": 13, "velocity": 100}, {"time": 1437, "pitch": 70, "duration": 5, "velocity": 89}, {"time": 1449, "pitch": 58, "duration": 9, "velocity": 84}, {"time": 1455, "pitch": 63, "duration": 10, "velocity": 105}, {"time": 1455, "pitch": 66, "duration": 11, "velocity": 105}, {"time": 1455, "pitch": 70, "duration": 10, "velocity": 102}, {"time": 1467, "pitch": 58, "duration": 10, "velocity": 42}, {"time": 1473, "pitch": 63, "duration": 3, "velocity": 97}, {"time": 1473, "pitch": 66, "duration": 6, "velocity": 108}, {"time": 1473, "pitch": 70, "duration": 7, "velocity": 100}, {"time": 1479, "pitch": 58, "duration": 3, "velocity": 64}, {"time": 1479, "pitch": 63, "duration": 3, "velocity": 76}, {"time": 1485, "pitch": 56, "duration": 37, "velocity": 100}, {"time": 1485, "pitch": 63, "duration": 14, "velocity": 100}, {"time": 1485, "pitch": 68, "duration": 14, "velocity": 102}, {"time": 1497, "pitch": 59, "duration": 24, "velocity": 52}, {"time": 1503, "pitch": 63, "duration": 7, "velocity": 97}, {"time": 1503, "pitch": 68, "duration": 12, "velocity": 102}, {"time": 1503, "pitch": 71, "duration": 12, "velocity": 97}, {"time": 1521, "pitch": 63, "duration": 4, "velocity": 105}, {"time": 1521, "pitch": 68, "duration": 3, "velocity": 108}, {"time": 1521, "pitch": 71, "duration": 4, "velocity": 102}, {"time": 1533, "pitch": 49, "duration": 39, "velocity": 102}, {"time": 1533, "pitch": 61, "duration": 7, "velocity": 89}, {"time": 1533, "pitch": 65, "duration": 13, "velocity": 96}, {"time": 1533, "pitch": 68, "duration": 14, "velocity": 94}, {"time": 1539, "pitch": 56, "duration": 31, "velocity": 51}, {"time": 1545, "pitch": 61, "duration": 3, "velocity": 71}, {"time": 1551, "pitch": 61, "duration": 12, "velocity": 97}, {"time": 1551, "pitch": 65, "duration": 12, "velocity": 105}, {"time": 1551, "pitch": 68, "duration": 12, "velocity": 100}, {"time": 1569, "pitch": 61, "duration": 3, "velocity": 97}, {"time": 1569, "pitch": 65, "duration": 2, "velocity": 105}, {"time": 1569, "pitch": 68, "duration": 2, "velocity": 94}, {"time": 1581, "pitch": 46, "duration": 23, "velocity": 73}, {"time": 1581, "pitch": 58, "duration": 7, "velocity": 94}, {"time": 1581, "pitch": 62, "duration": 13, "velocity": 79}, {"time": 1581, "pitch": 65, "duration": 14, "velocity": 77}, {"time": 1593, "pitch": 58, "duration": 3, "velocity": 82}, {"time": 1599, "pitch": 58, "duration": 6, "velocity": 111}, {"time": 1599, "pitch": 62, "duration": 7, "velocity": 105}, {"time": 1599, "pitch": 65, "duration": 10, "velocity": 87}, {"time": 1611, "pitch": 53, "duration": 8, "velocity": 96}, {"time": 1617, "pitch": 58, "duration": 6, "velocity": 114}, {"time": 1617, "pitch": 62, "duration": 9, "velocity": 112}, {"time": 1617, "pitch": 65, "duration": 11, "velocity": 96}, {"time": 1623, "pitch": 53, "duration": 7, "velocity": 74}, {"time": 1629, "pitch": 51, "duration": 45, "velocity": 102}, {"time": 1629, "pitch": 63, "duration": 7, "velocity": 97}, {"time": 1629, "pitch": 66, "duration": 8, "velocity": 108}, {"time": 1635, "pitch": 58, "duration": 38, "velocity": 87}, {"time": 1641, "pitch": 63, "duration": 3, "velocity": 97}, {"time": 1647, "pitch": 63, "duration": 7, "velocity": 111}, {"time": 1647, "pitch": 66, "duration": 6, "velocity": 117}, {"time": 1659, "pitch": 63, "duration": 2, "velocity": 87}, {"time": 1665, "pitch": 63, "duration": 3, "velocity": 102}, {"time": 1665, "pitch": 66, "duration": 6, "velocity": 108}, {"time": 1671, "pitch": 63, "duration": 2, "velocity": 78}, {"time": 1677, "pitch": 51, "duration": 40, "velocity": 45}, {"time": 1677, "pitch": 56, "duration": 37, "velocity": 105}, {"time": 1677, "pitch": 63, "duration": 13, "velocity": 97}, {"time": 1677, "pitch": 68, "duration": 13, "velocity": 87}, {"time": 1689, "pitch": 59, "duration": 11, "velocity": 52}, {"time": 1695, "pitch": 63, "duration": 7, "velocity": 102}, {"time": 1695, "pitch": 68, "duration": 10, "velocity": 108}, {"time": 1707, "pitch": 63, "duration": 3, "velocity": 73}, {"time": 1713, "pitch": 63, "duration": 4, "velocity": 100}, {"time": 1713, "pitch": 68, "duration": 4, "velocity": 100}, {"time": 1725, "pitch": 49, "duration": 46, "velocity": 100}, {"time": 1725, "pitch": 61, "duration": 8, "velocity": 87}, {"time": 1725, "pitch": 65, "duration": 9, "velocity": 90}, {"time": 1725, "pitch": 68, "duration": 13, "velocity": 94}, {"time": 1731, "pitch": 56, "duration": 16, "velocity": 84}, {"time": 1743, "pitch": 61, "duration": 1, "velocity": 82}, {"time": 1743, "pitch": 65, "duration": 8, "velocity": 93}, {"time": 1743, "pitch": 68, "duration": 9, "velocity": 102}, {"time": 1749, "pitch": 56, "duration": 17, "velocity": 66}, {"time": 1755, "pitch": 61, "duration": 3, "velocity": 105}, {"time": 1761, "pitch": 61, "duration": 2, "velocity": 84}, {"time": 1761, "pitch": 65, "duration": 6, "velocity": 102}, {"time": 1761, "pitch": 68, "duration": 7, "velocity": 102}, {"time": 1767, "pitch": 61, "duration": 2, "velocity": 69}, {"time": 1773, "pitch": 54, "duration": 38, "velocity": 92}, {"time": 1773, "pitch": 61, "duration": 12, "velocity": 84}, {"time": 1773, "pitch": 66, "duration": 13, "velocity": 97}, {"time": 1785, "pitch": 58, "duration": 8, "velocity": 73}, {"time": 1791, "pitch": 61, "duration": 6, "velocity": 102}, {"time": 1791, "pitch": 66, "duration": 7, "velocity": 108}, {"time": 1791, "pitch": 70, "duration": 6, "velocity": 100}, {"time": 1797, "pitch": 58, "duration": 22, "velocity": 55}, {"time": 1803, "pitch": 61, "duration": 2, "velocity": 80}, {"time": 1809, "pitch": 61, "duration": 4, "velocity": 97}, {"time": 1809, "pitch": 66, "duration": 9, "velocity": 108}, {"time": 1809, "pitch": 70, "duration": 10, "velocity": 97}, {"time": 1815, "pitch": 61, "duration": 3, "velocity": 71}, {"time": 1821, "pitch": 51, "duration": 45, "velocity": 100}, {"time": 1821, "pitch": 63, "duration": 13, "velocity": 92}, {"time": 1821, "pitch": 66, "duration": 13, "velocity": 100}, {"time": 1821, "pitch": 70, "duration": 5, "velocity": 89}, {"time": 1833, "pitch": 58, "duration": 9, "velocity": 84}, {"time": 1839, "pitch": 63, "duration": 10, "velocity": 105}, {"time": 1839, "pitch": 66, "duration": 11, "velocity": 105}, {"time": 1839, "pitch": 70, "duration": 10, "velocity": 102}, {"time": 1851, "pitch": 58, "duration": 10, "velocity": 42}, {"time": 1857, "pitch": 63, "duration": 3, "velocity": 97}, {"time": 1857, "pitch": 66, "duration": 6, "velocity": 108}, {"time": 1857, "pitch": 70, "duration": 7, "velocity": 100}, {"time": 1863, "pitch": 58, "duration": 3, "velocity": 64}, {"time": 1863, "pitch": 63, "duration": 3, "velocity": 76}, {"time": 1869, "pitch": 56, "duration": 37, "velocity": 100}, {"time": 1869, "pitch": 63, "duration": 14, "velocity": 100}, {"time": 1869, "pitch": 68, "duration": 14, "velocity": 102}, {"time": 1881, "pitch": 59, "duration": 24, "velocity": 52}, {"time": 1887, "pitch": 63, "duration": 7, "velocity": 97}, {"time": 1887, "pitch": 68, "duration": 12, "velocity": 102}, {"time": 1887, "pitch": 71, "duration": 12, "velocity": 97}, {"time": 1905, "pitch": 63, "duration": 4, "velocity": 105}, {"time": 1905, "pitch": 68, "duration": 3, "velocity": 108}, {"time": 1905, "pitch": 71, "duration": 4, "velocity": 102}, {"time": 1917, "pitch": 49, "duration": 11, "velocity": 100}, {"time": 1917, "pitch": 61, "duration": 6, "velocity": 82}, {"time": 1917, "pitch": 65, "duration": 6, "velocity": 102}, {"time": 1917, "pitch": 68, "duration": 9, "velocity": 92}, {"time": 1923, "pitch": 56, "duration": 5, "velocity": 82}, {"time": 1929, "pitch": 61, "duration": 3, "velocity": 87}, {"time": 1941, "pitch": 46, "duration": 7, "velocity": 100}, {"time": 1941, "pitch": 58, "duration": 8, "velocity": 92}, {"time": 1941, "pitch": 62, "duration": 13, "velocity": 74}, {"time": 1941, "pitch": 65, "duration": 19, "velocity": 68}, {"time": 1947, "pitch": 50, "duration": 6, "velocity": 116}, {"time": 1953, "pitch": 53, "duration": 7, "velocity": 99}, {"time": 1959, "pitch": 58, "duration": 3, "velocity": 100}, {"time": 1965, "pitch": 51, "duration": 47, "velocity": 105}, {"time": 1965, "pitch": 58, "duration": 12, "velocity": 97}, {"time": 1965, "pitch": 63, "duration": 13, "velocity": 105}, {"time": 1977, "pitch": 54, "duration": 36, "velocity": 58}, {"time": 1983, "pitch": 58, "duration": 7, "velocity": 108}, {"time": 1983, "pitch": 63, "duration": 9, "velocity": 108}, {"time": 1983, "pitch": 66, "duration": 9, "velocity": 102}, {"time": 1995, "pitch": 58, "duration": 3, "velocity": 69}, {"time": 2001, "pitch": 58, "duration": 1, "velocity": 73}, {"time": 2001, "pitch": 63, "duration": 10, "velocity": 105}, {"time": 2001, "pitch": 66, "duration": 10, "velocity": 102}, {"time": 2007, "pitch": 58, "duration": 4, "velocity": 92}, {"time": 2013, "pitch": 39, "duration": 9, "velocity": 97}, {"time": 2013, "pitch": 51, "duration": 6, "velocity": 100}, {"time": 2013, "pitch": 58, "duration": 6, "velocity": 92}, {"time": 2013, "pitch": 61, "duration": 6, "velocity": 84}, {"time": 2013, "pitch": 66, "duration": 6, "velocity": 94}, {"time": 2031, "pitch": 51, "duration": 21, "velocity": 92}, {"time": 2031, "pitch": 58, "duration": 16, "velocity": 80}, {"time": 2031, "pitch": 61, "duration": 4, "velocity": 87}, {"time": 2031, "pitch": 66, "duration": 4, "velocity": 92}, {"time": 2043, "pitch": 61, "duration": 7, "velocity": 100}, {"time": 2043, "pitch": 66, "duration": 8, "velocity": 102}, {"time": 2055, "pitch": 37, "duration": 6, "velocity": 82}, {"time": 2061, "pitch": 39, "duration": 8, "velocity": 84}, {"time": 2061, "pitch": 51, "duration": 40, "velocity": 102}, {"time": 2061, "pitch": 58, "duration": 35, "velocity": 82}, {"time": 2061, "pitch": 61, "duration": 14, "velocity": 97}, {"time": 2061, "pitch": 66, "duration": 14, "velocity": 92}, {"time": 2079, "pitch": 61, "duration": 3, "velocity": 92}, {"time": 2079, "pitch": 66, "duration": 3, "velocity": 94}, {"time": 2091, "pitch": 61, "duration": 4, "velocity": 100}, {"time": 2091, "pitch": 66, "duration": 5, "velocity": 100}, {"time": 2103, "pitch": 61, "duration": 2, "velocity": 62}, {"time": 2109, "pitch": 39, "duration": 9, "velocity": 100}, {"time": 2109, "pitch": 51, "duration": 37, "velocity": 92}, {"time": 2109, "pitch": 58, "duration": 35, "velocity": 87}, {"time": 2109, "pitch": 61, "duration": 15, "velocity": 87}, {"time": 2109, "pitch": 66, "duration": 15, "velocity": 80}, {"time": 2127, "pitch": 61, "duration": 3, "velocity": 84}, {"time": 2127, "pitch": 66, "duration": 3, "velocity": 94}, {"time": 2139, "pitch": 61, "duration": 3, "velocity": 94}, {"time": 2139, "pitch": 66, "duration": 4, "velocity": 97}, {"time": 2151, "pitch": 42, "duration": 3, "velocity": 97}, {"time": 2157, "pitch": 39, "duration": 8, "velocity": 97}, {"time": 2157, "pitch": 51, "duration": 43, "velocity": 76}, {"time": 2157, "pitch": 58, "duration": 42, "velocity": 71}, {"time": 2157, "pitch": 61, "duration": 14, "velocity": 73}, {"time": 2157, "pitch": 66, "duration": 15, "velocity": 80}, {"time": 2175, "pitch": 61, "duration": 3, "velocity": 87}, {"time": 2175, "pitch": 66, "duration": 4, "velocity": 94}, {"time": 2187, "pitch": 42, "duration": 9, "velocity": 108}, {"time": 2187, "pitch": 61, "duration": 3, "velocity": 94}, {"time": 2187, "pitch": 66, "duration": 5, "velocity": 97}, {"time": 2199, "pitch": 44, "duration": 4, "velocity": 108}, {"time": 2199, "pitch": 63, "duration": 3, "velocity": 66}, {"time": 2205, "pitch": 39, "duration": 10, "velocity": 92}, {"time": 2205, "pitch": 51, "duration": 43, "velocity": 100}, {"time": 2205, "pitch": 58, "duration": 42, "velocity": 84}, {"time": 2205, "pitch": 61, "duration": 13, "velocity": 89}, {"time": 2205, "pitch": 66, "duration": 13, "velocity": 89}, {"time": 2223, "pitch": 61, "duration": 3, "velocity": 92}, {"time": 2223, "pitch": 66, "duration": 3, "velocity": 92}, {"time": 2235, "pitch": 61, "duration": 3, "velocity": 92}, {"time": 2235, "pitch": 66, "duration": 4, "velocity": 94}, {"time": 2247, "pitch": 37, "duration": 6, "velocity": 84}, {"time": 2247, "pitch": 63, "duration": 2, "velocity": 66}, {"time": 2253, "pitch": 39, "duration": 8, "velocity": 97}, {"time": 2253, "pitch": 51, "duration": 36, "velocity": 89}, {"time": 2253, "pitch": 58, "duration": 34, "velocity": 82}, {"time": 2253, "pitch": 61, "duration": 15, "velocity": 80}, {"time": 2253, "pitch": 66, "duration": 15, "velocity": 84}, {"time": 2271, "pitch": 61, "duration": 4, "velocity": 87}, {"time": 2271, "pitch": 66, "duration": 4, "velocity": 102}, {"time": 2283, "pitch": 61, "duration": 4, "velocity": 82}, {"time": 2283, "pitch": 66, "duration": 4, "velocity": 97}, {"time": 2295, "pitch": 61, "duration": 2, "velocity": 73}, {"time": 2301, "pitch": 39, "duration": 9, "velocity": 89}, {"time": 2301, "pitch": 51, "duration": 40, "velocity": 102}, {"time": 2301, "pitch": 58, "duration": 37, "velocity": 89}, {"time": 2301, "pitch": 61, "duration": 15, "velocity": 87}, {"time": 2301, "pitch": 66, "duration": 15, "velocity": 82}, {"time": 2319, "pitch": 61, "duration": 3, "velocity": 89}, {"time": 2319, "pitch": 66, "duration": 3, "velocity": 100}, {"time": 2331, "pitch": 37, "duration": 11, "velocity": 100}, {"time": 2331, "pitch": 61, "duration": 4, "velocity": 100}, {"time": 2331, "pitch": 66, "duration": 4, "velocity": 102}, {"time": 2343, "pitch": 38, "duration": 3, "velocity": 79}, {"time": 2349, "pitch": 39, "duration": 12, "velocity": 100}, {"time": 2349, "pitch": 51, "duration": 44, "velocity": 102}, {"time": 2349, "pitch": 58, "duration": 44, "velocity": 89}, {"time": 2349, "pitch": 61, "duration": 14, "velocity": 97}, {"time": 2349, "pitch": 66, "duration": 14, "velocity": 97}, {"time": 2367, "pitch": 61, "duration": 4, "velocity": 94}, {"time": 2367, "pitch": 66, "duration": 5, "velocity": 100}, {"time": 2385, "pitch": 61, "duration": 6, "velocity": 111}, {"time": 2391, "pitch": 62, "duration": 6, "velocity": 63}, {"time": 2397, "pitch": 51, "duration": 44, "velocity": 94}, {"time": 2397, "pitch": 63, "duration": 14, "velocity": 92}, {"time": 2397, "pitch": 66, "duration": 14, "velocity": 97}, {"time": 2409, "pitch": 58, "duration": 19, "velocity": 66}, {"time": 2415, "pitch": 63, "duration": 18, "velocity": 97}, {"time": 2415, "pitch": 66, "duration": 18, "velocity": 102}, {"time": 2433, "pitch": 58, "duration": 8, "velocity": 58}, {"time": 2439, "pitch": 63, "duration": 3, "velocity": 94}, {"time": 2439, "pitch": 66, "duration": 3, "velocity": 97}, {"time": 2445, "pitch": 56, "duration": 38, "velocity": 94}, {"time": 2445, "pitch": 63, "duration": 14, "velocity": 89}, {"time": 2445, "pitch": 68, "duration": 14, "velocity": 87}, {"time": 2457, "pitch": 59, "duration": 25, "velocity": 53}, {"time": 2463, "pitch": 63, "duration": 14, "velocity": 100}, {"time": 2463, "pitch": 68, "duration": 14, "velocity": 94}, {"time": 2481, "pitch": 63, "duration": 5, "velocity": 78}, {"time": 2481, "pitch": 68, "duration": 7, "velocity": 94}, {"time": 2493, "pitch": 49, "duration": 45, "velocity": 97}, {"time": 2493, "pitch": 61, "duration": 13, "velocity": 94}, {"time": 2493, "pitch": 65, "duration": 13, "velocity": 90}, {"time": 2493, "pitch": 68, "duration": 13, "velocity": 97}, {"time": 2505, "pitch": 56, "duration": 9, "velocity": 49}, {"time": 2511, "pitch": 61, "duration": 13, "velocity": 97}, {"time": 2511, "pitch": 65, "duration": 13, "velocity": 105}, {"time": 2511, "pitch": 68, "duration": 13, "velocity": 102}, {"time": 2523, "pitch": 56, "duration": 16, "velocity": 1}, {"time": 2529, "pitch": 61, "duration": 5, "velocity": 102}, {"time": 2529, "pitch": 65, "duration": 6, "velocity": 105}, {"time": 2529, "pitch": 68, "duration": 7, "velocity": 105}, {"time": 2541, "pitch": 54, "duration": 40, "velocity": 92}, {"time": 2541, "pitch": 61, "duration": 14, "velocity": 80}, {"time": 2541, "pitch": 66, "duration": 14, "velocity": 94}, {"time": 2553, "pitch": 58, "duration": 33, "velocity": 42}, {"time": 2559, "pitch": 61, "duration": 12, "velocity": 97}, {"time": 2559, "pitch": 66, "duration": 12, "velocity": 108}, {"time": 2577, "pitch": 61, "duration": 5, "velocity": 92}, {"time": 2577, "pitch": 66, "duration": 6, "velocity": 100}, {"time": 2589, "pitch": 51, "duration": 45, "velocity": 97}, {"time": 2589, "pitch": 63, "duration": 8, "velocity": 82}, {"time": 2589, "pitch": 66, "duration": 9, "velocity": 92}, {"time": 2595, "pitch": 58, "duration": 16, "velocity": 84}, {"time": 2607, "pitch": 63, "duration": 8, "velocity": 102}, {"time": 2607, "pitch": 66, "duration": 9, "velocity": 111}, {"time": 2613, "pitch": 58, "duration": 18, "velocity": 44}, {"time": 2619, "pitch": 63, "duration": 3, "velocity": 92}, {"time": 2625, "pitch": 63, "duration": 6, "velocity": 100}, {"time": 2625, "pitch": 66, "duration": 7, "velocity": 105}, {"time": 2637, "pitch": 56, "duration": 38, "velocity": 100}, {"time": 2637, "pitch": 63, "duration": 12, "velocity": 87}, {"time": 2637, "pitch": 68, "duration": 13, "velocity": 92}, {"time": 2649, "pitch": 59, "duration": 8, "velocity": 44}, {"time": 2655, "pitch": 63, "duration": 9, "velocity": 97}, {"time": 2655, "pitch": 68, "duration": 10, "velocity": 100}, {"time": 2661, "pitch": 59, "duration": 15, "velocity": 48}, {"time": 2673, "pitch": 63, "duration": 5, "velocity": 94}, {"time": 2673, "pitch": 68, "duration": 5, "velocity": 102}, {"time": 2685, "pitch": 46, "duration": 24, "velocity": 97}, {"time": 2685, "pitch": 58, "duration": 10, "velocity": 69}, {"time": 2685, "pitch": 62, "duration": 10, "velocity": 41}, {"time": 2703, "pitch": 58, "duration": 12, "velocity": 102}, {"time": 2703, "pitch": 62, "duration": 12, "velocity": 105}, {"time": 2703, "pitch": 65, "duration": 12, "velocity": 93}, {"time": 2721, "pitch": 58, "duration": 3, "velocity": 100}, {"time": 2721, "pitch": 62, "duration": 4, "velocity": 102}, {"time": 2721, "pitch": 65, "duration": 8, "velocity": 87}, {"time": 2727, "pitch": 58, "duration": 2, "velocity": 60}, {"time": 2733, "pitch": 51, "duration": 37, "velocity": 94}, {"time": 2733, "pitch": 58, "duration": 14, "velocity": 84}, {"time": 2733, "pitch": 63, "duration": 14, "velocity": 100}, {"time": 2781, "pitch": 51, "duration": 44, "velocity": 100}, {"time": 2781, "pitch": 63, "duration": 8, "velocity": 71}, {"time": 2781, "pitch": 66, "duration": 13, "velocity": 67}, {"time": 2787, "pitch": 58, "duration": 21, "velocity": 66}, {"time": 2793, "pitch": 63, "duration": 4, "velocity": 78}, {"time": 2799, "pitch": 63, "duration": 19, "velocity": 97}, {"time": 2799, "pitch": 66, "duration": 19, "velocity": 114}, {"time": 2817, "pitch": 58, "duration": 9, "velocity": 82}, {"time": 2823, "pitch": 63, "duration": 13, "velocity": 100}, {"time": 2823, "pitch": 66, "duration": 2, "velocity": 49}, {"time": 2829, "pitch": 51, "duration": 37, "velocity": 102}, {"time": 2835, "pitch": 58, "duration": 29, "velocity": 67}, {"time": 2841, "pitch": 63, "duration": 3, "velocity": 80}, {"time": 2847, "pitch": 63, "duration": 18, "velocity": 92}, {"time": 2847, "pitch": 66, "duration": 16, "velocity": 94}, {"time": 2847, "pitch": 70, "duration": 17, "velocity": 100}, {"time": 2877, "pitch": 49, "duration": 43, "velocity": 97}, {"time": 2877, "pitch": 61, "duration": 7, "velocity": 82}, {"time": 2877, "pitch": 65, "duration": 15, "velocity": 68}, {"time": 2883, "pitch": 56, "duration": 37, "velocity": 78}, {"time": 2889, "pitch": 61, "duration": 41, "velocity": 73}, {"time": 2895, "pitch": 65, "duration": 37, "velocity": 99}, {"time": 2895, "pitch": 68, "duration": 34, "velocity": 92}, {"time": 2925, "pitch": 49, "duration": 37, "velocity": 97}, {"time": 2931, "pitch": 56, "duration": 21, "velocity": 67}, {"time": 2937, "pitch": 61, "duration": 4, "velocity": 87}, {"time": 2943, "pitch": 61, "duration": 18, "velocity": 92}, {"time": 2943, "pitch": 65, "duration": 18, "velocity": 102}, {"time": 2943, "pitch": 68, "duration": 18, "velocity": 100}, {"time": 2973, "pitch": 44, "duration": 41, "velocity": 89}, {"time": 2973, "pitch": 56, "duration": 7, "velocity": 89}, {"time": 2973, "pitch": 59, "duration": 13, "velocity": 92}, {"time": 2979, "pitch": 51, "duration": 18, "velocity": 69}, {"time": 2985, "pitch": 56, "duration": 24, "velocity": 76}, {"time": 2991, "pitch": 59, "duration": 35, "velocity": 94}, {"time": 2991, "pitch": 63, "duration": 29, "velocity": 94}, {"time": 3009, "pitch": 51, "duration": 7, "velocity": 67}, {"time": 3015, "pitch": 56, "duration": 12, "velocity": 89}, {"time": 3021, "pitch": 44, "duration": 34, "velocity": 94}, {"time": 3027, "pitch": 51, "duration": 22, "velocity": 62}, {"time": 3033, "pitch": 56, "duration": 4, "velocity": 92}, {"time": 3039, "pitch": 56, "duration": 16, "velocity": 102}, {"time": 3039, "pitch": 59, "duration": 16, "velocity": 108}, {"time": 3039, "pitch": 63, "duration": 18, "velocity": 100}, {"time": 3069, "pitch": 46, "duration": 41, "velocity": 100}, {"time": 3081, "pitch": 58, "duration": 24, "velocity": 100}, {"time": 3087, "pitch": 62, "duration": 20, "velocity": 109}, {"time": 3087, "pitch": 65, "duration": 34, "velocity": 90}, {"time": 3105, "pitch": 53, "duration": 8, "velocity": 50}, {"time": 3111, "pitch": 58, "duration": 11, "velocity": 89}, {"time": 3111, "pitch": 62, "duration": 9, "velocity": 12}, {"time": 3117, "pitch": 46, "duration": 44, "velocity": 102}, {"time": 3123, "pitch": 53, "duration": 19, "velocity": 65}, {"time": 3129, "pitch": 58, "duration": 3, "velocity": 82}, {"time": 3135, "pitch": 58, "duration": 15, "velocity": 97}, {"time": 3135, "pitch": 62, "duration": 15, "velocity": 102}, {"time": 3135, "pitch": 65, "duration": 15, "velocity": 96}, {"time": 3153, "pitch": 58, "duration": 10, "velocity": 84}, {"time": 3153, "pitch": 62, "duration": 10, "velocity": 74}, {"time": 3153, "pitch": 65, "duration": 10, "velocity": 63}, {"time": 3165, "pitch": 51, "duration": 44, "velocity": 100}, {"time": 3165, "pitch": 63, "duration": 8, "velocity": 71}, {"time": 3165, "pitch": 66, "duration": 13, "velocity": 67}, {"time": 3171, "pitch": 58, "duration": 21, "velocity": 66}, {"time": 3177, "pitch": 63, "duration": 4, "velocity": 78}, {"time": 3183, "pitch": 63, "duration": 19, "velocity": 97}, {"time": 3183, "pitch": 66, "duration": 19, "velocity": 114}, {"time": 3201, "pitch": 58, "duration": 9, "velocity": 82}, {"time": 3207, "pitch": 63, "duration": 13, "velocity": 100}, {"time": 3207, "pitch": 66, "duration": 2, "velocity": 49}, {"time": 3213, "pitch": 51, "duration": 37, "velocity": 102}, {"time": 3219, "pitch": 58, "duration": 29, "velocity": 67}, {"time": 3225, "pitch": 63, "duration": 3, "velocity": 80}, {"time": 3231, "pitch": 63, "duration": 18, "velocity": 92}, {"time": 3231, "pitch": 66, "duration": 16, "velocity": 94}, {"time": 3231, "pitch": 70, "duration": 17, "velocity": 100}, {"time": 3261, "pitch": 49, "duration": 43, "velocity": 97}, {"time": 3261, "pitch": 61, "duration": 7, "velocity": 82}, {"time": 3261, "pitch": 65, "duration": 15, "velocity": 68}, {"time": 3267, "pitch": 56, "duration": 37, "velocity": 78}, {"time": 3273, "pitch": 61, "duration": 41, "velocity": 73}, {"time": 3279, "pitch": 65, "duration": 37, "velocity": 99}, {"time": 3279, "pitch": 68, "duration": 34, "velocity": 92}, {"time": 3309, "pitch": 49, "duration": 37, "velocity": 97}, {"time": 3315, "pitch": 56, "duration": 21, "velocity": 67}, {"time": 3321, "pitch": 61, "duration": 4, "velocity": 87}, {"time": 3327, "pitch": 61, "duration": 18, "velocity": 92}, {"time": 3327, "pitch": 65, "duration": 18, "velocity": 102}, {"time": 3327, "pitch": 68, "duration": 18, "velocity": 100}, {"time": 3357, "pitch": 44, "duration": 41, "velocity": 89}, {"time": 3357, "pitch": 56, "duration": 7, "velocity": 89}, {"time": 3357, "pitch": 59, "duration": 13, "velocity": 92}, {"time": 3363, "pitch": 51, "duration": 18, "velocity": 69}, {"time": 3369, "pitch": 56, "duration": 24, "velocity": 76}, {"time": 3375, "pitch": 59, "duration": 35, "velocity": 94}, {"time": 3375, "pitch": 63, "duration": 29, "velocity": 94}, {"time": 3393, "pitch": 51, "duration": 7, "velocity": 67}, {"time": 3399, "pitch": 56, "duration": 12, "velocity": 89}, {"time": 3405, "pitch": 44, "duration": 34, "velocity": 94}, {"time": 3411, "pitch": 51, "duration": 22, "velocity": 62}, {"time": 3417, "pitch": 56, "duration": 4, "velocity": 92}, {"time": 3423, "pitch": 56, "duration": 16, "velocity": 102}, {"time": 3423, "pitch": 59, "duration": 16, "velocity": 108}, {"time": 3423, "pitch": 63, "duration": 18, "velocity": 100}, {"time": 3453, "pitch": 46, "duration": 33, "velocity": 94}, {"time": 3453, "pitch": 58, "duration": 8, "velocity": 87}, {"time": 3453, "pitch": 62, "duration": 14, "velocity": 99}, {"time": 3453, "pitch": 65, "duration": 14, "velocity": 77}, {"time": 3459, "pitch": 53, "duration": 14, "velocity": 40}, {"time": 3465, "pitch": 58, "duration": 3, "velocity": 89}, {"time": 3471, "pitch": 58, "duration": 8, "velocity": 94}, {"time": 3471, "pitch": 62, "duration": 6, "velocity": 99}, {"time": 3471, "pitch": 65, "duration": 8, "velocity": 99}, {"time": 3477, "pitch": 53, "duration": 8, "velocity": 52}, {"time": 3483, "pitch": 58, "duration": 5, "velocity": 100}, {"time": 3483, "pitch": 62, "duration": 7, "velocity": 109}, {"time": 3489, "pitch": 46, "duration": 4, "velocity": 80}, {"time": 3495, "pitch": 58, "duration": 3, "velocity": 108}, {"time": 3501, "pitch": 51, "duration": 42, "velocity": 97}, {"time": 3501, "pitch": 58, "duration": 5, "velocity": 100}, {"time": 3501, "pitch": 63, "duration": 6, "velocity": 102}, {"time": 3513, "pitch": 58, "duration": 8, "velocity": 69}, {"time": 3519, "pitch": 63, "duration": 6, "velocity": 114}, {"time": 3525, "pitch": 58, "duration": 7, "velocity": 80}, {"time": 3531, "pitch": 63, "duration": 6, "velocity": 105}, {"time": 3531, "pitch": 66, "duration": 6, "velocity": 117}, {"time": 3537, "pitch": 58, "duration": 6, "velocity": 80}, {"time": 3543, "pitch": 63, "duration": 3, "velocity": 84}, {"time": 3549, "pitch": 51, "duration": 8, "velocity": 105}, {"time": 3549, "pitch": 58, "duration": 8, "velocity": 97}, {"time": 3549, "pitch": 63, "duration": 7, "velocity": 100}, {"time": 3549, "pitch": 66, "duration": 7, "velocity": 100}, {"time": 3597, "pitch": 51, "duration": 45, "velocity": 102}, {"time": 3597, "pitch": 63, "duration": 7, "velocity": 97}, {"time": 3597, "pitch": 66, "duration": 8, "velocity": 108}, {"time": 3603, "pitch": 58, "duration": 38, "velocity": 87}, {"time": 3609, "pitch": 63, "duration": 3, "velocity": 97}, {"time": 3615, "pitch": 63, "duration": 7, "velocity": 111}, {"time": 3615, "pitch": 66, "duration": 6, "velocity": 117}, {"time": 3627, "pitch": 63, "duration": 2, "velocity": 87}, {"time": 3633, "pitch": 63, "duration": 3, "velocity": 102}, {"time": 3633, "pitch": 66, "duration": 6, "velocity": 108}, {"time": 3639, "pitch": 63, "duration": 2, "velocity": 78}, {"time": 3645, "pitch": 51, "duration": 40, "velocity": 45}, {"time": 3645, "pitch": 56, "duration": 37, "velocity": 105}, {"time": 3645, "pitch": 63, "duration": 13, "velocity": 97}, {"time": 3645, "pitch": 68, "duration": 13, "velocity": 87}, {"time": 3657, "pitch": 59, "duration": 11, "velocity": 52}, {"time": 3663, "pitch": 63, "duration": 7, "velocity": 102}, {"time": 3663, "pitch": 68, "duration": 10, "velocity": 108}, {"time": 3675, "pitch": 63, "duration": 3, "velocity": 73}, {"time": 3681, "pitch": 63, "duration": 4, "velocity": 100}, {"time": 3681, "pitch": 68, "duration": 4, "velocity": 100}, {"time": 3693, "pitch": 49, "duration": 46, "velocity": 100}, {"time": 3693, "pitch": 61, "duration": 8, "velocity": 87}, {"time": 3693, "pitch": 65, "duration": 9, "velocity": 90}, {"time": 3693, "pitch": 68, "duration": 13, "velocity": 94}, {"time": 3699, "pitch": 56, "duration": 16, "velocity": 84}, {"time": 3711, "pitch": 61, "duration": 1, "velocity": 82}, {"time": 3711, "pitch": 65, "duration": 8, "velocity": 93}, {"time": 3711, "pitch": 68, "duration": 9, "velocity": 102}, {"time": 3717, "pitch": 56, "duration": 17, "velocity": 66}, {"time": 3723, "pitch": 61, "duration": 3, "velocity": 105}, {"time": 3729, "pitch": 61, "duration": 2, "velocity": 84}, {"time": 3729, "pitch": 65, "duration": 6, "velocity": 102}, {"time": 3729, "pitch": 68, "duration": 7, "velocity": 102}, {"time": 3735, "pitch": 61, "duration": 2, "velocity": 69}, {"time": 3741, "pitch": 54, "duration": 38, "velocity": 92}, {"time": 3741, "pitch": 61, "duration": 12, "velocity": 84}, {"time": 3741, "pitch": 66, "duration": 13, "velocity": 97}, {"time": 3753, "pitch": 58, "duration": 8, "velocity": 73}, {"time": 3759, "pitch": 61, "duration": 6, "velocity": 102}, {"time": 3759, "pitch": 66, "duration": 7, "velocity": 108}, {"time": 3759, "pitch": 70, "duration": 6, "velocity": 100}, {"time": 3765, "pitch": 58, "duration": 22, "velocity": 55}, {"time": 3771, "pitch": 61, "duration": 2, "velocity": 80}, {"time": 3777, "pitch": 61, "duration": 4, "velocity": 97}, {"time": 3777, "pitch": 66, "duration": 9, "velocity": 108}, {"time": 3777, "pitch": 70, "duration": 10, "velocity": 97}, {"time": 3783, "pitch": 61, "duration": 3, "velocity": 71}, {"time": 3789, "pitch": 51, "duration": 45, "velocity": 100}, {"time": 3789, "pitch": 63, "duration": 13, "velocity": 92}, {"time": 3789, "pitch": 66, "duration": 13, "velocity": 100}, {"time": 3789, "pitch": 70, "duration": 5, "velocity": 89}, {"time": 3801, "pitch": 58, "duration": 9, "velocity": 84}, {"time": 3807, "pitch": 63, "duration": 10, "velocity": 105}, {"time": 3807, "pitch": 66, "duration": 11, "velocity": 105}, {"time": 3807, "pitch": 70, "duration": 10, "velocity": 102}, {"time": 3819, "pitch": 58, "duration": 10, "velocity": 42}, {"time": 3825, "pitch": 63, "duration": 3, "velocity": 97}, {"time": 3825, "pitch": 66, "duration": 6, "velocity": 108}, {"time": 3825, "pitch": 70, "duration": 7, "velocity": 100}, {"time": 3831, "pitch": 58, "duration": 3, "velocity": 64}, {"time": 3831, "pitch": 63, "duration": 3, "velocity": 76}, {"time": 3837, "pitch": 56, "duration": 37, "velocity": 100}, {"time": 3837, "pitch": 63, "duration": 14, "velocity": 100}, {"time": 3837, "pitch": 68, "duration": 14, "velocity": 102}, {"time": 3849, "pitch": 59, "duration": 24, "velocity": 52}, {"time": 3855, "pitch": 63, "duration": 7, "velocity": 97}, {"time": 3855, "pitch": 68, "duration": 12, "velocity": 102}, {"time": 3855, "pitch": 71, "duration": 12, "velocity": 97}, {"time": 3873, "pitch": 63, "duration": 4, "velocity": 105}, {"time": 3873, "pitch": 68, "duration": 3, "velocity": 108}, {"time": 3873, "pitch": 71, "duration": 4, "velocity": 102}, {"time": 3885, "pitch": 49, "duration": 39, "velocity": 102}, {"time": 3885, "pitch": 61, "duration": 7, "velocity": 89}, {"time": 3885, "pitch": 65, "duration": 13, "velocity": 96}, {"time": 3885, "pitch": 68, "duration": 14, "velocity": 94}, {"time": 3891, "pitch": 56, "duration": 31, "velocity": 51}, {"time": 3897, "pitch": 61, "duration": 3, "velocity": 71}, {"time": 3903, "pitch": 61, "duration": 12, "velocity": 97}, {"time": 3903, "pitch": 65, "duration": 12, "velocity": 105}, {"time": 3903, "pitch": 68, "duration": 12, "velocity": 100}, {"time": 3921, "pitch": 61, "duration": 3, "velocity": 97}, {"time": 3921, "pitch": 65, "duration": 2, "velocity": 105}, {"time": 3921, "pitch": 68, "duration": 2, "velocity": 94}, {"time": 3933, "pitch": 46, "duration": 23, "velocity": 73}, {"time": 3933, "pitch": 58, "duration": 7, "velocity": 94}, {"time": 3933, "pitch": 62, "duration": 13, "velocity": 79}, {"time": 3933, "pitch": 65, "duration": 14, "velocity": 77}, {"time": 3945, "pitch": 58, "duration": 3, "velocity": 82}, {"time": 3951, "pitch": 58, "duration": 6, "velocity": 111}, {"time": 3951, "pitch": 62, "duration": 7, "velocity": 105}, {"time": 3951, "pitch": 65, "duration": 10, "velocity": 87}, {"time": 3963, "pitch": 53, "duration": 8, "velocity": 96}, {"time": 3969, "pitch": 58, "duration": 6, "velocity": 114}, {"time": 3969, "pitch": 62, "duration": 9, "velocity": 112}, {"time": 3969, "pitch": 65, "duration": 11, "velocity": 96}, {"time": 3975, "pitch": 53, "duration": 7, "velocity": 74}, {"time": 3981, "pitch": 51, "duration": 45, "velocity": 102}, {"time": 3981, "pitch": 63, "duration": 7, "velocity": 97}, {"time": 3981, "pitch": 66, "duration": 8, "velocity": 108}, {"time": 3987, "pitch": 58, "duration": 38, "velocity": 87}, {"time": 3993, "pitch": 63, "duration": 3, "velocity": 97}, {"time": 3999, "pitch": 63, "duration": 7, "velocity": 111}, {"time": 3999, "pitch": 66, "duration": 6, "velocity": 117}, {"time": 4011, "pitch": 63, "duration": 2, "velocity": 87}, {"time": 4017, "pitch": 63, "duration": 3, "velocity": 102}, {"time": 4017, "pitch": 66, "duration": 6, "velocity": 108}, {"time": 4023, "pitch": 63, "duration": 2, "velocity": 78}, {"time": 4029, "pitch": 51, "duration": 40, "velocity": 45}, {"time": 4029, "pitch": 56, "duration": 37, "velocity": 105}, {"time": 4029, "pitch": 63, "duration": 13, "velocity": 97}, {"time": 4029, "pitch": 68, "duration": 13, "velocity": 87}, {"time": 4041, "pitch": 59, "duration": 11, "velocity": 52}, {"time": 4047, "pitch": 63, "duration": 7, "velocity": 102}, {"time": 4047, "pitch": 68, "duration": 10, "velocity": 108}, {"time": 4059, "pitch": 63, "duration": 3, "velocity": 73}, {"time": 4065, "pitch": 63, "duration": 4, "velocity": 100}, {"time": 4065, "pitch": 68, "duration": 4, "velocity": 100}, {"time": 4077, "pitch": 49, "duration": 46, "velocity": 100}, {"time": 4077, "pitch": 61, "duration": 8, "velocity": 87}, {"time": 4077, "pitch": 65, "duration": 9, "velocity": 90}, {"time": 4077, "pitch": 68, "duration": 13, "velocity": 94}, {"time": 4083, "pitch": 56, "duration": 16, "velocity": 84}, {"time": 4095, "pitch": 61, "duration": 1, "velocity": 82}, {"time": 4095, "pitch": 65, "duration": 8, "velocity": 93}, {"time": 4095, "pitch": 68, "duration": 9, "velocity": 102}, {"time": 4101, "pitch": 56, "duration": 17, "velocity": 66}, {"time": 4107, "pitch": 61, "duration": 3, "velocity": 105}, {"time": 4113, "pitch": 61, "duration": 2, "velocity": 84}, {"time": 4113, "pitch": 65, "duration": 6, "velocity": 102}, {"time": 4113, "pitch": 68, "duration": 7, "velocity": 102}, {"time": 4119, "pitch": 61, "duration": 2, "velocity": 69}, {"time": 4125, "pitch": 54, "duration": 38, "velocity": 92}, {"time": 4125, "pitch": 61, "duration": 12, "velocity": 84}, {"time": 4125, "pitch": 66, "duration": 13, "velocity": 97}, {"time": 4137, "pitch": 58, "duration": 8, "velocity": 73}, {"time": 4143, "pitch": 61, "duration": 6, "velocity": 102}, {"time": 4143, "pitch": 66, "duration": 7, "velocity": 108}, {"time": 4143, "pitch": 70, "duration": 6, "velocity": 100}, {"time": 4149, "pitch": 58, "duration": 22, "velocity": 55}, {"time": 4155, "pitch": 61, "duration": 2, "velocity": 80}, {"time": 4161, "pitch": 61, "duration": 4, "velocity": 97}, {"time": 4161, "pitch": 66, "duration": 9, "velocity": 108}, {"time": 4161, "pitch": 70, "duration": 10, "velocity": 97}, {"time": 4167, "pitch": 61, "duration": 3, "velocity": 71}, {"time": 4173, "pitch": 51, "duration": 45, "velocity": 100}, {"time": 4173, "pitch": 63, "duration": 13, "velocity": 92}, {"time": 4173, "pitch": 66, "duration": 13, "velocity": 100}, {"time": 4173, "pitch": 70, "duration": 5, "velocity": 89}, {"time": 4185, "pitch": 58, "duration": 9, "velocity": 84}, {"time": 4191, "pitch": 63, "duration": 10, "velocity": 105}, {"time": 4191, "pitch": 66, "duration": 11, "velocity": 105}, {"time": 4191, "pitch": 70, "duration": 10, "velocity": 102}, {"time": 4203, "pitch": 58, "duration": 10, "velocity": 42}, {"time": 4209, "pitch": 63, "duration": 3, "velocity": 97}, {"time": 4209, "pitch": 66, "duration": 6, "velocity": 108}, {"time": 4209, "pitch": 70, "duration": 7, "velocity": 100}, {"time": 4215, "pitch": 58, "duration": 3, "velocity": 64}, {"time": 4215, "pitch": 63, "duration": 3, "velocity": 76}, {"time": 4221, "pitch": 56, "duration": 37, "velocity": 100}, {"time": 4221, "pitch": 63, "duration": 14, "velocity": 100}, {"time": 4221, "pitch": 68, "duration": 14, "velocity": 102}, {"time": 4233, "pitch": 59, "duration": 24, "velocity": 52}, {"time": 4239, "pitch": 63, "duration": 7, "velocity": 97}, {"time": 4239, "pitch": 68, "duration": 12, "velocity": 102}, {"time": 4239, "pitch": 71, "duration": 12, "velocity": 97}, {"time": 4257, "pitch": 63, "duration": 4, "velocity": 105}, {"time": 4257, "pitch": 68, "duration": 3, "velocity": 108}, {"time": 4257, "pitch": 71, "duration": 4, "velocity": 102}, {"time": 4269, "pitch": 49, "duration": 11, "velocity": 100}, {"time": 4269, "pitch": 61, "duration": 6, "velocity": 82}, {"time": 4269, "pitch": 65, "duration": 6, "velocity": 102}, {"time": 4269, "pitch": 68, "duration": 9, "velocity": 92}, {"time": 4275, "pitch": 56, "duration": 5, "velocity": 82}, {"time": 4281, "pitch": 61, "duration": 3, "velocity": 87}, {"time": 4293, "pitch": 46, "duration": 7, "velocity": 100}, {"time": 4293, "pitch": 58, "duration": 8, "velocity": 92}, {"time": 4293, "pitch": 62, "duration": 13, "velocity": 74}, {"time": 4293, "pitch": 65, "duration": 19, "velocity": 68}, {"time": 4299, "pitch": 50, "duration": 6, "velocity": 116}, {"time": 4305, "pitch": 53, "duration": 7, "velocity": 99}, {"time": 4311, "pitch": 58, "duration": 3, "velocity": 100}, {"time": 4317, "pitch": 51, "duration": 47, "velocity": 105}, {"time": 4317, "pitch": 58, "duration": 12, "velocity": 97}, {"time": 4317, "pitch": 63, "duration": 13, "velocity": 105}, {"time": 4329, "pitch": 54, "duration": 36, "velocity": 58}, {"time": 4335, "pitch": 58, "duration": 7, "velocity": 108}, {"time": 4335, "pitch": 63, "duration": 9, "velocity": 108}, {"time": 4335, "pitch": 66, "duration": 9, "velocity": 102}, {"time": 4347, "pitch": 58, "duration": 3, "velocity": 69}, {"time": 4353, "pitch": 58, "duration": 1, "velocity": 73}, {"time": 4353, "pitch": 63, "duration": 10, "velocity": 105}, {"time": 4353, "pitch": 66, "duration": 10, "velocity": 102}, {"time": 4359, "pitch": 58, "duration": 4, "velocity": 92}, {"time": 4365, "pitch": 51, "duration": 29, "velocity": 94}, {"time": 4365, "pitch": 66, "duration": 13, "velocity": 87}, {"time": 4371, "pitch": 58, "duration": 20, "velocity": 64}, {"time": 4377, "pitch": 63, "duration": 8, "velocity": 82}, {"time": 4383, "pitch": 66, "duration": 12, "velocity": 102}, {"time": 4413, "pitch": 44, "duration": 39, "velocity": 73}, {"time": 4413, "pitch": 56, "duration": 6, "velocity": 78}, {"time": 4413, "pitch": 59, "duration": 13, "velocity": 84}, {"time": 4419, "pitch": 51, "duration": 32, "velocity": 64}, {"time": 4425, "pitch": 56, "duration": 33, "velocity": 87}, {"time": 4431, "pitch": 59, "duration": 27, "velocity": 94}, {"time": 4431, "pitch": 66, "duration": 4, "velocity": 44}, {"time": 4461, "pitch": 49, "duration": 42, "velocity": 94}, {"time": 4467, "pitch": 56, "duration": 15, "velocity": 78}, {"time": 4473, "pitch": 61, "duration": 3, "velocity": 78}, {"time": 4479, "pitch": 61, "duration": 18, "velocity": 94}, {"time": 4479, "pitch": 65, "duration": 16, "velocity": 105}, {"time": 4509, "pitch": 54, "duration": 37, "velocity": 71}, {"time": 4509, "pitch": 61, "duration": 7, "velocity": 73}, {"time": 4509, "pitch": 66, "duration": 14, "velocity": 84}, {"time": 4515, "pitch": 58, "duration": 30, "velocity": 55}, {"time": 4521, "pitch": 61, "duration": 2, "velocity": 51}, {"time": 4527, "pitch": 61, "duration": 14, "velocity": 94}, {"time": 4527, "pitch": 66, "duration": 14, "velocity": 102}, {"time": 4545, "pitch": 61, "duration": 13, "velocity": 100}, {"time": 4545, "pitch": 66, "duration": 14, "velocity": 102}, {"time": 4557, "pitch": 51, "duration": 30, "velocity": 78}, {"time": 4563, "pitch": 58, "duration": 23, "velocity": 89}, {"time": 4569, "pitch": 63, "duration": 4, "velocity": 84}, {"time": 4575, "pitch": 63, "duration": 13, "velocity": 102}, {"time": 4575, "pitch": 66, "duration": 12, "velocity": 108}, {"time": 4605, "pitch": 44, "duration": 37, "velocity": 92}, {"time": 4605, "pitch": 56, "duration": 7, "velocity": 76}, {"time": 4605, "pitch": 59, "duration": 13, "velocity": 82}, {"time": 4611, "pitch": 51, "duration": 25, "velocity": 62}, {"time": 4617, "pitch": 56, "duration": 3, "velocity": 62}, {"time": 4623, "pitch": 56, "duration": 22, "velocity": 71}, {"time": 4623, "pitch": 59, "duration": 25, "velocity": 89}, {"time": 4623, "pitch": 68, "duration": 39, "velocity": 92}, {"time": 4653, "pitch": 49, "duration": 32, "velocity": 94}, {"time": 4659, "pitch": 56, "duration": 15, "velocity": 76}, {"time": 4665, "pitch": 61, "duration": 4, "velocity": 92}, {"time": 4671, "pitch": 61, "duration": 22, "velocity": 89}, {"time": 4671, "pitch": 65, "duration": 22, "velocity": 99}, {"time": 4701, "pitch": 46, "duration": 38, "velocity": 97}, {"time": 4707, "pitch": 53, "duration": 13, "velocity": 40}, {"time": 4713, "pitch": 58, "duration": 3, "velocity": 97}, {"time": 4719, "pitch": 58, "duration": 7, "velocity": 100}, {"time": 4719, "pitch": 62, "duration": 7, "velocity": 96}, {"time": 4719, "pitch": 65, "duration": 8, "velocity": 90}, {"time": 4725, "pitch": 53, "duration": 8, "velocity": 61}, {"time": 4731, "pitch": 58, "duration": 9, "velocity": 102}, {"time": 4731, "pitch": 62, "duration": 15, "velocity": 102}, {"time": 4737, "pitch": 50, "duration": 7, "velocity": 28}, {"time": 4743, "pitch": 53, "duration": 4, "velocity": 96}, {"time": 4749, "pitch": 51, "duration": 45, "velocity": 102}, {"time": 4749, "pitch": 63, "duration": 7, "velocity": 97}, {"time": 4749, "pitch": 66, "duration": 8, "velocity": 108}, {"time": 4755, "pitch": 58, "duration": 38, "velocity": 87}, {"time": 4761, "pitch": 63, "duration": 3, "velocity": 97}, {"time": 4767, "pitch": 63, "duration": 7, "velocity": 111}, {"time": 4767, "pitch": 66, "duration": 6, "velocity": 117}, {"time": 4779, "pitch": 63, "duration": 2, "velocity": 87}, {"time": 4785, "pitch": 63, "duration": 3, "velocity": 102}, {"time": 4785, "pitch": 66, "duration": 6, "velocity": 108}, {"time": 4791, "pitch": 63, "duration": 2, "velocity": 78}, {"time": 4797, "pitch": 51, "duration": 40, "velocity": 45}, {"time": 4797, "pitch": 56, "duration": 37, "velocity": 105}, {"time": 4797, "pitch": 63, "duration": 13, "velocity": 97}, {"time": 4797, "pitch": 68, "duration": 13, "velocity": 87}, {"time": 4809, "pitch": 59, "duration": 11, "velocity": 52}, {"time": 4815, "pitch": 63, "duration": 7, "velocity": 102}, {"time": 4815, "pitch": 68, "duration": 10, "velocity": 108}, {"time": 4827, "pitch": 63, "duration": 3, "velocity": 73}, {"time": 4833, "pitch": 63, "duration": 4, "velocity": 100}, {"time": 4833, "pitch": 68, "duration": 4, "velocity": 100}, {"time": 4845, "pitch": 49, "duration": 46, "velocity": 100}, {"time": 4845, "pitch": 61, "duration": 8, "velocity": 87}, {"time": 4845, "pitch": 65, "duration": 9, "velocity": 90}, {"time": 4845, "pitch": 68, "duration": 13, "velocity": 94}, {"time": 4851, "pitch": 56, "duration": 16, "velocity": 84}, {"time": 4863, "pitch": 61, "duration": 1, "velocity": 82}, {"time": 4863, "pitch": 65, "duration": 8, "velocity": 93}, {"time": 4863, "pitch": 68, "duration": 9, "velocity": 102}, {"time": 4869, "pitch": 56, "duration": 17, "velocity": 66}, {"time": 4875, "pitch": 61, "duration": 3, "velocity": 105}, {"time": 4881, "pitch": 61, "duration": 2, "velocity": 84}, {"time": 4881, "pitch": 65, "duration": 6, "velocity": 102}, {"time": 4881, "pitch": 68, "duration": 7, "velocity": 102}, {"time": 4887, "pitch": 61, "duration": 2, "velocity": 69}, {"time": 4893, "pitch": 54, "duration": 38, "velocity": 92}, {"time": 4893, "pitch": 61, "duration": 12, "velocity": 84}, {"time": 4893, "pitch": 66, "duration": 13, "velocity": 97}, {"time": 4905, "pitch": 58, "duration": 8, "velocity": 73}, {"time": 4911, "pitch": 61, "duration": 6, "velocity": 102}, {"time": 4911, "pitch": 66, "duration": 7, "velocity": 108}, {"time": 4911, "pitch": 70, "duration": 6, "velocity": 100}, {"time": 4917, "pitch": 58, "duration": 22, "velocity": 55}, {"time": 4923, "pitch": 61, "duration": 2, "velocity": 80}, {"time": 4929, "pitch": 61, "duration": 4, "velocity": 97}, {"time": 4929, "pitch": 66, "duration": 9, "velocity": 108}, {"time": 4929, "pitch": 70, "duration": 10, "velocity": 97}, {"time": 4935, "pitch": 61, "duration": 3, "velocity": 71}, {"time": 4941, "pitch": 51, "duration": 45, "velocity": 100}, {"time": 4941, "pitch": 63, "duration": 13, "velocity": 92}, {"time": 4941, "pitch": 66, "duration": 13, "velocity": 100}, {"time": 4941, "pitch": 70, "duration": 5, "velocity": 89}, {"time": 4953, "pitch": 58, "duration": 9, "velocity": 84}, {"time": 4959, "pitch": 63, "duration": 10, "velocity": 105}, {"time": 4959, "pitch": 66, "duration": 11, "velocity": 105}, {"time": 4959, "pitch": 70, "duration": 10, "velocity": 102}, {"time": 4971, "pitch": 58, "duration": 10, "velocity": 42}, {"time": 4977, "pitch": 63, "duration": 3, "velocity": 97}, {"time": 4977, "pitch": 66, "duration": 6, "velocity": 108}, {"time": 4977, "pitch": 70, "duration": 7, "velocity": 100}, {"time": 4983, "pitch": 58, "duration": 3, "velocity": 64}, {"time": 4983, "pitch": 63, "duration": 3, "velocity": 76}, {"time": 4989, "pitch": 56, "duration": 37, "velocity": 100}, {"time": 4989, "pitch": 63, "duration": 14, "velocity": 100}, {"time": 4989, "pitch": 68, "duration": 14, "velocity": 102}, {"time": 5001, "pitch": 59, "duration": 24, "velocity": 52}, {"time": 5007, "pitch": 63, "duration": 7, "velocity": 97}, {"time": 5007, "pitch": 68, "duration": 12, "velocity": 102}, {"time": 5007, "pitch": 71, "duration": 12, "velocity": 97}, {"time": 5025, "pitch": 63, "duration": 4, "velocity": 105}, {"time": 5025, "pitch": 68, "duration": 3, "velocity": 108}, {"time": 5025, "pitch": 71, "duration": 4, "velocity": 102}, {"time": 5037, "pitch": 49, "duration": 11, "velocity": 100}, {"time": 5037, "pitch": 61, "duration": 6, "velocity": 82}, {"time": 5037, "pitch": 65, "duration": 6, "velocity": 102}, {"time": 5037, "pitch": 68, "duration": 9, "velocity": 92}, {"time": 5043, "pitch": 56, "duration": 5, "velocity": 82}, {"time": 5049, "pitch": 61, "duration": 3, "velocity": 87}, {"time": 5061, "pitch": 46, "duration": 7, "velocity": 100}, {"time": 5061, "pitch": 58, "duration": 8, "velocity": 92}, {"time": 5061, "pitch": 62, "duration": 13, "velocity": 74}, {"time": 5061, "pitch": 65, "duration": 19, "velocity": 68}, {"time": 5067, "pitch": 50, "duration": 6, "velocity": 116}, {"time": 5073, "pitch": 53, "duration": 7, "velocity": 99}, {"time": 5079, "pitch": 58, "duration": 3, "velocity": 100}, {"time": 5085, "pitch": 51, "duration": 47, "velocity": 105}, {"time": 5085, "pitch": 58, "duration": 12, "velocity": 97}, {"time": 5085, "pitch": 63, "duration": 13, "velocity": 105}, {"time": 5097, "pitch": 54, "duration": 36, "velocity": 58}, {"time": 5103, "pitch": 58, "duration": 7, "velocity": 108}, {"time": 5103, "pitch": 63, "duration": 9, "velocity": 108}, {"time": 5103, "pitch": 66, "duration": 9, "velocity": 102}, {"time": 5115, "pitch": 58, "duration": 3, "velocity": 69}, {"time": 5121, "pitch": 58, "duration": 1, "velocity": 73}, {"time": 5121, "pitch": 63, "duration": 10, "velocity": 105}, {"time": 5121, "pitch": 66, "duration": 10, "velocity": 102}, {"time": 5127, "pitch": 58, "duration": 4, "velocity": 92}, {"time": 5133, "pitch": 51, "duration": 45, "velocity": 102}, {"time": 5133, "pitch": 63, "duration": 7, "velocity": 97}, {"time": 5133, "pitch": 66, "duration": 8, "velocity": 108}, {"time": 5139, "pitch": 58, "duration": 38, "velocity": 87}, {"time": 5145, "pitch": 63, "duration": 3, "velocity": 97}, {"time": 5151, "pitch": 63, "duration": 7, "velocity": 111}, {"time": 5151, "pitch": 66, "duration": 6, "velocity": 117}, {"time": 5163, "pitch": 63, "duration": 2, "velocity": 87}, {"time": 5169, "pitch": 63, "duration": 3, "velocity": 102}, {"time": 5169, "pitch": 66, "duration": 6, "velocity": 108}, {"time": 5175, "pitch": 63, "duration": 2, "velocity": 78}, {"time": 5181, "pitch": 51, "duration": 40, "velocity": 45}, {"time": 5181, "pitch": 56, "duration": 37, "velocity": 105}, {"time": 5181, "pitch": 63, "duration": 13, "velocity": 97}, {"time": 5181, "pitch": 68, "duration": 13, "velocity": 87}, {"time": 5193, "pitch": 59, "duration": 11, "velocity": 52}, {"time": 5199, "pitch": 63, "duration": 7, "velocity": 102}, {"time": 5199, "pitch": 68, "duration": 10, "velocity": 108}, {"time": 5211, "pitch": 63, "duration": 3, "velocity": 73}, {"time": 5217, "pitch": 63, "duration": 4, "velocity": 100}, {"time": 5217, "pitch": 68, "duration": 4, "velocity": 100}, {"time": 5229, "pitch": 49, "duration": 46, "velocity": 100}, {"time": 5229, "pitch": 61, "duration": 8, "velocity": 87}, {"time": 5229, "pitch": 65, "duration": 9, "velocity": 90}, {"time": 5229, "pitch": 68, "duration": 13, "velocity": 94}, {"time": 5235, "pitch": 56, "duration": 16, "velocity": 84}, {"time": 5247, "pitch": 61, "duration": 1, "velocity": 82}, {"time": 5247, "pitch": 65, "duration": 8, "velocity": 93}, {"time": 5247, "pitch": 68, "duration": 9, "velocity": 102}, {"time": 5253, "pitch": 56, "duration": 17, "velocity": 66}, {"time": 5259, "pitch": 61, "duration": 3, "velocity": 105}, {"time": 5265, "pitch": 61, "duration": 2, "velocity": 84}, {"time": 5265, "pitch": 65, "duration": 6, "velocity": 102}, {"time": 5265, "pitch": 68, "duration": 7, "velocity": 102}, {"time": 5271, "pitch": 61, "duration": 2, "velocity": 69}, {"time": 5277, "pitch": 54, "duration": 38, "velocity": 92}, {"time": 5277, "pitch": 61, "duration": 12, "velocity": 84}, {"time": 5277, "pitch": 66, "duration": 13, "velocity": 97}, {"time": 5289, "pitch": 58, "duration": 8, "velocity": 73}, {"time": 5295, "pitch": 61, "duration": 6, "velocity": 102}, {"time": 5295, "pitch": 66, "duration": 7, "velocity": 108}, {"time": 5295, "pitch": 70, "duration": 6, "velocity": 100}, {"time": 5301, "pitch": 58, "duration": 22, "velocity": 55}, {"time": 5307, "pitch": 61, "duration": 2, "velocity": 80}, {"time": 5313, "pitch": 61, "duration": 4, "velocity": 97}, {"time": 5313, "pitch": 66, "duration": 9, "velocity": 108}, {"time": 5313, "pitch": 70, "duration": 10, "velocity": 97}, {"time": 5319, "pitch": 61, "duration": 3, "velocity": 71}, {"time": 5325, "pitch": 51, "duration": 45, "velocity": 100}, {"time": 5325, "pitch": 63, "duration": 13, "velocity": 92}, {"time": 5325, "pitch": 66, "duration": 13, "velocity": 100}, {"time": 5325, "pitch": 70, "duration": 5, "velocity": 89}, {"time": 5337, "pitch": 58, "duration": 9, "velocity": 84}, {"time": 5343, "pitch": 63, "duration": 10, "velocity": 105}, {"time": 5343, "pitch": 66, "duration": 11, "velocity": 105}, {"time": 5343, "pitch": 70, "duration": 10, "velocity": 102}, {"time": 5350, "pitch": 51, "duration": 20, "velocity": 100}, {"time": 5350, "pitch": 63, "duration": 3, "velocity": 105}, {"time": 5350, "pitch": 66, "duration": 4, "velocity": 105}, {"time": 5350, "pitch": 70, "duration": 3, "velocity": 102}, {"time": 5355, "pitch": 58, "duration": 10, "velocity": 42}, {"time": 5361, "pitch": 63, "duration": 3, "velocity": 97}, {"time": 5361, "pitch": 66, "duration": 6, "velocity": 108}, {"time": 5361, "pitch": 70, "duration": 7, "velocity": 100}, {"time": 5367, "pitch": 58, "duration": 3, "velocity": 64}, {"time": 5367, "pitch": 63, "duration": 3, "velocity": 76}, {"time": 5373, "pitch": 56, "duration": 37, "velocity": 100}, {"time": 5373, "pitch": 63, "duration": 14, "velocity": 100}, {"time": 5373, "pitch": 68, "duration": 14, "velocity": 102}, {"time": 5385, "pitch": 59, "duration": 24, "velocity": 52}, {"time": 5391, "pitch": 63, "duration": 7, "velocity": 97}, {"time": 5391, "pitch": 68, "duration": 12, "velocity": 102}, {"time": 5391, "pitch": 71, "duration": 12, "velocity": 97}, {"time": 5409, "pitch": 63, "duration": 4, "velocity": 105}, {"time": 5409, "pitch": 68, "duration": 3, "velocity": 108}, {"time": 5409, "pitch": 71, "duration": 4, "velocity": 102}, {"time": 5421, "pitch": 46, "duration": 44, "velocity": 97}, {"time": 5421, "pitch": 62, "duration": 14, "velocity": 102}, {"time": 5427, "pitch": 53, "duration": 13, "velocity": 57}, {"time": 5433, "pitch": 58, "duration": 3, "velocity": 102}, {"time": 5439, "pitch": 58, "duration": 9, "velocity": 94}, {"time": 5439, "pitch": 62, "duration": 9, "velocity": 105}, {"time": 5439, "pitch": 65, "duration": 9, "velocity": 90}, {"time": 5445, "pitch": 53, "duration": 7, "velocity": 68}, {"time": 5451, "pitch": 58, "duration": 7, "velocity": 102}, {"time": 5451, "pitch": 62, "duration": 12, "velocity": 87}, {"time": 5451, "pitch": 65, "duration": 13, "velocity": 79}, {"time": 5457, "pitch": 50, "duration": 3, "velocity": 17}, {"time": 5463, "pitch": 53, "duration": 4, "velocity": 25}, {"time": 5463, "pitch": 58, "duration": 4, "velocity": 57}, {"time": 5469, "pitch": 46, "duration": 13, "velocity": 100}, {"time": 5469, "pitch": 58, "duration": 21, "velocity": 97}, {"time": 5469, "pitch": 62, "duration": 22, "velocity": 93}, {"time": 5469, "pitch": 65, "duration": 23, "velocity": 85}, {"time": 5469, "pitch": 70, "duration": 22, "velocity": 84}, {"time": 5536, "pitch": 51, "duration": 143, "velocity": 89}, {"time": 5544, "pitch": 58, "duration": 38, "velocity": 47}, {"time": 5550, "pitch": 63, "duration": 7, "velocity": 44}, {"time": 5556, "pitch": 65, "duration": 8, "velocity": 68}, {"time": 5563, "pitch": 66, "duration": 12, "velocity": 78}, {"time": 5573, "pitch": 70, "duration": 106, "velocity": 87}, {"time": 5587, "pitch": 63, "duration": 91, "velocity": 49}], "annotations": [{"time": 65, "annotation": {"number": 64, "value": 127}, "group": "control_change"}, {"time": 92, "annotation": {"number": 64, "value": 0}, "group": "control_change"}, {"time": 104, "annotation": {"number": 64, "value": 127}, "group": "control_change"}, {"time": 140, "annotation": {"number": 64, "value": 0}, "group": "control_change"}, {"time": 159, "annotation": {"number": 64, "value": 127}, "group": "control_change"}, {"time": 189, "annotation": {"number": 64, "value": 0}, "group": "control_change"}, {"time": 202, "annotation": {"number": 64, "value": 127}, "group": "control_change"}, {"time": 234, "annotation": {"number": 64, "value": 0}, "group": "control_change"}, {"time": 245, "annotation": {"number": 64, "value": 127}, "group": "control_change"}, {"time": 283, "annotation": {"number": 64, "value": 0}, "group": "control_change"}, {"time": 291, "annotation": {"number": 64, "value": 127}, "group": "control_change"}, {"time": 332, "annotation": {"number": 64, "value": 0}, "group": "control_change"}, {"time": 339, "annotation": {"number": 64, "value": 127}, "group": "control_change"}, {"time": 379, "annotation": {"number": 64, "value": 0}, "group": "control_change"}, {"time": 389, "annotation": {"number": 64, "value": 127}, "group": "control_change"}, {"time": 418, "annotation": {"number": 64, "value": 0}, "group": "control_change"}, {"time": 433, "annotation": {"number": 64, "value": 127}, "group": "control_change"}, {"time": 473, "annotation": {"number": 64, "value": 0}, "group": "control_change"}, {"time": 484, "annotation": {"number": 64, "value": 127}, "group": "control_change"}, {"time": 522, "annotation": {"number": 64, "value": 0}, "group": "control_change"}, {"time": 560, "annotation": {"number": 64, "value": 127}, "group": "control_change"}, {"time": 574, "annotation": {"number": 64, "value": 0}, "group": "control_change"}, {"time": 585, "annotation": {"number": 64, "value": 127}, "group": "control_change"}, {"time": 620, "annotation": {"number": 64, "value": 0}, "group": "control_change"}, {"time": 634, "annotation": {"number": 64, "value": 127}, "group": "control_change"}, {"time": 664, "annotation": {"number": 64, "value": 0}, "group": "control_change"}, {"time": 676, "annotation": {"number": 64, "value": 127}, "group": "control_change"}, {"time": 714, "annotation": {"number": 64, "value": 0}, "group": "control_change"}, {"time": 731, "annotation": {"number": 64, "value": 127}, "group": "control_change"}, {"time": 762, "annotation": {"number": 64, "value": 0}, "group": "control_change"}, {"time": 771, "annotation": {"number": 64, "value": 127}, "group": "control_change"}, {"time": 809, "annotation": {"number": 64, "value": 0}, "group": "control_change"}, {"time": 817, "annotation": {"number": 64, "value": 127}, "group": "control_change"}, {"time": 857, "annotation": {"number": 64, "value": 0}, "group": "control_change"}, {"time": 868, "annotation": {"number": 64, "value": 127}, "group": "control_change"}, {"time": 906, "annotation": {"number": 64, "value": 0}, "group": "control_change"}, {"time": 944, "annotation": {"number": 64, "value": 127}, "group": "control_change"}, {"time": 958, "annotation": {"number": 64, "value": 0}, "group": "control_change"}, {"time": 969, "annotation": {"number": 64, "value": 127}, "group": "control_change"}, {"time": 1004, "annotation": {"number": 64, "value": 0}, "group": "control_change"}, {"time": 1018, "annotation": {"number": 64, "value": 127}, "group": "control_change"}, {"time": 1048, "annotation": {"number": 64, "value": 0}, "group": "control_change"}, {"time": 1060, "annotation": {"number": 64, "value": 127}, "group": "control_change"}, {"time": 1098, "annotation": {"number": 64, "value": 0}, "group": "control_change"}, {"time": 1106, "annotation": {"number": 64, "value": 127}, "group": "control_change"}, {"time": 1146, "annotation": {"number": 64, "value": 0}, "group": "control_change"}, {"time": 1153, "annotation": {"number": 64, "value": 127}, "group": "control_change"}, {"time": 1195, "annotation": {"number": 64, "value": 0}, "group": "control_change"}, {"time": 1250, "annotation": {"number": 64, "value": 127}, "group": "control_change"}, {"time": 1289, "annotation": {"number": 64, "value": 0}, "group": "control_change"}, {"time": 1296, "annotation": {"number": 64, "value": 127}, "group": "control_change"}, {"time": 1337, "annotation": {"number": 64, "value": 0}, "group": "control_change"}, {"time": 1349, "annotation": {"number": 64, "value": 127}, "group": "control_change"}, {"time": 1387, "annotation": {"number": 64, "value": 0}, "group": "control_change"}, {"time": 1397, "annotation": {"number": 64, "value": 127}, "group": "control_change"}, {"time": 1431, "annotation": {"number": 64, "value": 0}, "group": "control_change"}, {"time": 1450, "annotation": {"number": 64, "value": 127}, "group": "control_change"}, {"time": 1480, "annotation": {"number": 64, "value": 0}, "group": "control_change"}, {"time": 1497, "annotation": {"number": 64, "value": 127}, "group": "control_change"}, {"time": 1539, "annotation": {"number": 64, "value": 127}, "group": "control_change"}, {"time": 1579, "annotation": {"number": 64, "value": 0}, "group": "control_change"}, {"time": 1591, "annotation": {"number": 64, "value": 127}, "group": "control_change"}, {"time": 1619, "annotation": {"number": 64, "value": 0}, "group": "control_change"}, {"time": 1634, "annotation": {"number": 64, "value": 127}, "group": "control_change"}, {"time": 1673, "annotation": {"number": 64, "value": 0}, "group": "control_change"}, {"time": 1680, "annotation": {"number": 64, "value": 127}, "group": "control_change"}, {"time": 1721, "annotation": {"number": 64, "value": 0}, "group": "control_change"}, {"time": 1733, "annotation": {"number": 64, "value": 127}, "group": "control_change"}, {"time": 1771, "annotation": {"number": 64, "value": 0}, "group": "control_change"}, {"time": 1781, "annotation": {"number": 64, "value": 127}, "group": "control_change"}, {"time": 1815, "annotation": {"number": 64, "value": 0}, "group": "control_change"}, {"time": 1834, "annotation": {"number": 64, "value": 127}, "group": "control_change"}, {"time": 1864, "annotation": {"number": 64, "value": 0}, "group": "control_change"}, {"time": 1881, "annotation": {"number": 64, "value": 127}, "group": "control_change"}, {"time": 1918, "annotation": {"number": 64, "value": 127}, "group": "control_change"}, {"time": 1942, "annotation": {"number": 64, "value": 0}, "group": "control_change"}, {"time": 1951, "annotation": {"number": 64, "value": 127}, "group": "control_change"}, {"time": 1964, "annotation": {"number": 64, "value": 0}, "group": "control_change"}, {"time": 1980, "annotation": {"number": 64, "value": 127}, "group": "control_change"}, {"time": 2001, "annotation": {"number": 64, "value": 0}, "group": "control_change"}, {"time": 2417, "annotation": {"number": 64, "value": 127}, "group": "control_change"}, {"time": 2444, "annotation": {"number": 64, "value": 0}, "group": "control_change"}, {"time": 2456, "annotation": {"number": 64, "value": 127}, "group": "control_change"}, {"time": 2492, "annotation": {"number": 64, "value": 0}, "group": "control_change"}, {"time": 2511, "annotation": {"number": 64, "value": 127}, "group": "control_change"}, {"time": 2541, "annotation": {"number": 64, "value": 0}, "group": "control_change"}, {"time": 2554, "annotation": {"number": 64, "value": 127}, "group": "control_change"}, {"time": 2586, "annotation": {"number": 64, "value": 0}, "group": "control_change"}, {"time": 2597, "annotation": {"number": 64, "value": 127}, "group": "control_change"}, {"time": 2635, "annotation": {"number": 64, "value": 0}, "group": "control_change"}, {"time": 2643, "annotation": {"number": 64, "value": 127}, "group": "control_change"}, {"time": 2684, "annotation": {"number": 64, "value": 0}, "group": "control_change"}, {"time": 2691, "annotation": {"number": 64, "value": 127}, "group": "control_change"}, {"time": 2731, "annotation": {"number": 64, "value": 0}, "group": "control_change"}, {"time": 2741, "annotation": {"number": 64, "value": 127}, "group": "control_change"}, {"time": 2770, "annotation": {"number": 64, "value": 0}, "group": "control_change"}, {"time": 2785, "annotation": {"number": 64, "value": 127}, "group": "control_change"}, {"time": 2825, "annotation": {"number": 64, "value": 0}, "group": "control_change"}, {"time": 2836, "annotation": {"number": 64, "value": 127}, "group": "control_change"}, {"time": 2874, "annotation": {"number": 64, "value": 0}, "group": "control_change"}, {"time": 2912, "annotation": {"number": 64, "value": 127}, "group": "control_change"}, {"time": 2926, "annotation": {"number": 64, "value": 0}, "group": "control_change"}, {"time": 2937, "annotation": {"number": 64, "value": 127}, "group": "control_change"}, {"time": 2972, "annotation": {"number": 64, "value": 0}, "group": "control_change"}, {"time": 2986, "annotation": {"number": 64, "value": 127}, "group": "control_change"}, {"time": 3016, "annotation": {"number": 64, "value": 0}, "group": "control_change"}, {"time": 3028, "annotation": {"number": 64, "value": 127}, "group": "control_change"}, {"time": 3066, "annotation": {"number": 64, "value": 0}, "group": "control_change"}, {"time": 3083, "annotation": {"number": 64, "value": 127}, "group": "control_change"}, {"time": 3114, "annotation": {"number": 64, "value": 0}, "group": "control_change"}, {"time": 3123, "annotation": {"number": 64, "value": 127}, "group": "control_change"}, {"time": 3161, "annotation": {"number": 64, "value": 0}, "group": "control_change"}, {"time": 3169, "annotation": {"number": 64, "value": 127}, "group": "control_change"}, {"time": 3209, "annotation": {"number": 64, "value": 0}, "group": "control_change"}, {"time": 3220, "annotation": {"number": 64, "value": 127}, "group": "control_change"}, {"time": 3258, "annotation": {"number": 64, "value": 0}, "group": "control_change"}, {"time": 3296, "annotation": {"number": 64, "value": 127}, "group": "control_change"}, {"time": 3310, "annotation": {"number": 64, "value": 0}, "group": "control_change"}, {"time": 3321, "annotation": {"number": 64, "value": 127}, "group": "control_change"}, {"time": 3356, "annotation": {"number": 64, "value": 0}, "group": "control_change"}, {"time": 3370, "annotation": {"number": 64, "value": 127}, "group": "control_change"}, {"time": 3400, "annotation": {"number": 64, "value": 0}, "group": "control_change"}, {"time": 3412, "annotation": {"number": 64, "value": 127}, "group": "control_change"}, {"time": 3450, "annotation": {"number": 64, "value": 0}, "group": "control_change"}, {"time": 3458, "annotation": {"number": 64, "value": 127}, "group": "control_change"}, {"time": 3498, "annotation": {"number": 64, "value": 0}, "group": "control_change"}, {"time": 3505, "annotation": {"number": 64, "value": 127}, "group": "control_change"}, {"time": 3547, "annotation": {"number": 64, "value": 0}, "group": "control_change"}, {"time": 3602, "annotation": {"number": 64, "value": 127}, "group": "control_change"}, {"time": 3641, "annotation": {"number": 64, "value": 0}, "group": "control_change"}, {"time": 3648, "annotation": {"number": 64, "value": 127}, "group": "control_change"}, {"time": 3689, "annotation": {"number": 64, "value": 0}, "group": "control_change"}, {"time": 3701, "annotation": {"number": 64, "value": 127}, "group": "control_change"}, {"time": 3739, "annotation": {"number": 64, "value": 0}, "group": "control_change"}, {"time": 3749, "annotation": {"number": 64, "value": 127}, "group": "control_change"}, {"time": 3783, "annotation": {"number": 64, "value": 0}, "group": "control_change"}, {"time": 3802, "annotation": {"number": 64, "value": 127}, "group": "control_change"}, {"time": 3832, "annotation": {"number": 64, "value": 0}, "group": "control_change"}, {"time": 3849, "annotation": {"number": 64, "value": 127}, "group": "control_change"}, {"time": 3891, "annotation": {"number": 64, "value": 127}, "group": "control_change"}, {"time": 3931, "annotation": {"number": 64, "value": 0}, "group": "control_change"}, {"time": 3943, "annotation": {"number": 64, "value": 127}, "group": "control_change"}, {"time": 3971, "annotation": {"number": 64, "value": 0}, "group": "control_change"}, {"time": 3986, "annotation": {"number": 64, "value": 127}, "group": "control_change"}, {"time": 4025, "annotation": {"number": 64, "value": 0}, "group": "control_change"}, {"time": 4032, "annotation": {"number": 64, "value": 127}, "group": "control_change"}, {"time": 4073, "annotation": {"number": 64, "value": 0}, "group": "control_change"}, {"time": 4085, "annotation": {"number": 64, "value": 127}, "group": "control_change"}, {"time": 4123, "annotation": {"number": 64, "value": 0}, "group": "control_change"}, {"time": 4133, "annotation": {"number": 64, "value": 127}, "group": "control_change"}, {"time": 4167, "annotation": {"number": 64, "value": 0}, "group": "control_change"}, {"time": 4186, "annotation": {"number": 64, "value": 127}, "group": "control_change"}, {"time": 4216, "annotation": {"number": 64, "value": 0}, "group": "control_change"}, {"time": 4233, "annotation": {"number": 64, "value": 127}, "group": "control_change"}, {"time": 4270, "annotation": {"number": 64, "value": 127}, "group": "control_change"}, {"time": 4294, "annotation": {"number": 64, "value": 0}, "group": "control_change"}, {"time": 4303, "annotation": {"number": 64, "value": 127}, "group": "control_change"}, {"time": 4316, "annotation": {"number": 64, "value": 0}, "group": "control_change"}, {"time": 4332, "annotation": {"number": 64, "value": 127}, "group": "control_change"}, {"time": 4353, "annotation": {"number": 64, "value": 0}, "group": "control_change"}, {"time": 4374, "annotation": {"number": 64, "value": 127}, "group": "control_change"}, {"time": 4412, "annotation": {"number": 64, "value": 0}, "group": "control_change"}, {"time": 4423, "annotation": {"number": 64, "value": 127}, "group": "control_change"}, {"time": 4460, "annotation": {"number": 64, "value": 0}, "group": "control_change"}, {"time": 4469, "annotation": {"number": 64, "value": 127}, "group": "control_change"}, {"time": 4506, "annotation": {"number": 64, "value": 0}, "group": "control_change"}, {"time": 4516, "annotation": {"number": 64, "value": 127}, "group": "control_change"}, {"time": 4557, "annotation": {"number": 64, "value": 0}, "group": "control_change"}, {"time": 4568, "annotation": {"number": 64, "value": 127}, "group": "control_change"}, {"time": 4605, "annotation": {"number": 64, "value": 0}, "group": "control_change"}, {"time": 4614, "annotation": {"number": 64, "value": 127}, "group": "control_change"}, {"time": 4652, "annotation": {"number": 64, "value": 0}, "group": "control_change"}, {"time": 4665, "annotation": {"number": 64, "value": 127}, "group": "control_change"}, {"time": 4695, "annotation": {"number": 64, "value": 0}, "group": "control_change"}, {"time": 4707, "annotation": {"number": 64, "value": 127}, "group": "control_change"}, {"time": 4742, "annotation": {"number": 64, "value": 0}, "group": "control_change"}, {"time": 4754, "annotation": {"number": 64, "value": 127}, "group": "control_change"}, {"time": 4793, "annotation": {"number": 64, "value": 0}, "group": "control_change"}, {"time": 4800, "annotation": {"number": 64, "value": 127}, "group": "control_change"}, {"time": 4841, "annotation": {"number": 64, "value": 0}, "group": "control_change"}, {"time": 4853, "annotation": {"number": 64, "value": 127}, "group": "control_change"}, {"time": 4891, "annotation": {"number": 64, "value": 0}, "group": "control_change"}, {"time": 4901, "annotation": {"number": 64, "value": 127}, "group": "control_change"}, {"time": 4935, "annotation": {"number": 64, "value": 0}, "group": "control_change"}, {"time": 4954, "annotation": {"number": 64, "value": 127}, "group": "control_change"}, {"time": 4984, "annotation": {"number": 64, "value": 0}, "group": "control_change"}, {"time": 5001, "annotation": {"number": 64, "value": 127}, "group": "control_change"}, {"time": 5038, "annotation": {"number": 64, "value": 127}, "group": "control_change"}, {"time": 5062, "annotation": {"number": 64, "value": 0}, "group": "control_change"}, {"time": 5071, "annotation": {"number": 64, "value": 127}, "group": "control_change"}, {"time": 5084, "annotation": {"number": 64, "value": 0}, "group": "control_change"}, {"time": 5100, "annotation": {"number": 64, "value": 127}, "group": "control_change"}, {"time": 5121, "annotation": {"number": 64, "value": 0}, "group": "control_change"}, {"time": 5138, "annotation": {"number": 64, "value": 127}, "group": "control_change"}, {"time": 5177, "annotation": {"number": 64, "value": 0}, "group": "control_change"}, {"time": 5184, "annotation": {"number": 64, "value": 127}, "group": "control_change"}, {"time": 5225, "annotation": {"number": 64, "value": 0}, "group": "control_change"}, {"time": 5237, "annotation": {"number": 64, "value": 127}, "group": "control_change"}, {"time": 5275, "annotation": {"number": 64, "value": 0}, "group": "control_change"}, {"time": 5285, "annotation": {"number": 64, "value": 127}, "group": "control_change"}, {"time": 5319, "annotation": {"number": 64, "value": 0}, "group": "control_change"}, {"time": 5338, "annotation": {"number": 64, "value": 127}, "group": "control_change"}, {"time": 5350, "annotation": {"number": 64, "value": 127}, "group": "control_change"}, {"time": 5368, "annotation": {"number": 64, "value": 0}, "group": "control_change"}, {"time": 5385, "annotation": {"number": 64, "value": 127}, "group": "control_change"}, {"time": 5423, "annotation": {"number": 64, "value": 127}, "group": "control_change"}, {"time": 5470, "annotation": {"number": 64, "value": 0}, "group": "control_change"}, {"time": 5479, "annotation": {"number": 64, "value": 127}, "group": "control_change"}, {"time": 5529, "annotation": {"number": 64, "value": 0}, "group": "control_change"}, {"time": 5545, "annotation": {"number": 64, "value": 127}, "group": "control_change"}, {"time": 5668, "annotation": {"number": 64, "value": 0}, "group": "control_change"}]}]}