{"metadata": {"schema_version": "0.2", "title": "None", "source_filename": "010.mid", "source_format": "midi"}, "resolution": 12, "tempos": [{"time": 0, "qpm": 72.00011520018433}, {"time": 168, "qpm": 69.00009660013524}, {"time": 176, "qpm": 66.000066000066}, {"time": 180, "qpm": 64.0}, {"time": 188, "qpm": 60.0}, {"time": 192, "qpm": 55.00000458333371}, {"time": 222, "qpm": 71.00011951686785}, {"time": 239, "qpm": 72.00011520018433}, {"time": 576, "qpm": 70.00007000007}, {"time": 600, "qpm": 72.00011520018433}, {"time": 986, "qpm": 69.00009660013524}, {"time": 991, "qpm": 66.000066000066}, {"time": 998, "qpm": 61.00003456668625}, {"time": 1002, "qpm": 57.00008550012825}, {"time": 1008, "qpm": 72.00011520018433}, {"time": 1363, "qpm": 68.00014960032912}, {"time": 1370, "qpm": 64.0}, {"time": 1375, "qpm": 61.00003456668625}, {"time": 1381, "qpm": 62.00005993339127}, {"time": 1386, "qpm": 59.00006686674245}, {"time": 1392, "qpm": 73.00007178340392}, {"time": 2581, "qpm": 71.00011951686785}, {"time": 2599, "qpm": 73.00007178340392}], "time_signatures": [{"time": 0, "numerator": 2, "denominator": 4}, {"time": 1992, "numerator": 1, "denominator": 4}, {"time": 2028, "numerator": 2, "denominator": 4}], "tracks": [{"program": 0, "is_drum": false, "name": "MELODY", "notes": [{"time": 220, "pitch": 59, "duration": 5, "velocity": 106}, {"time": 226, "pitch": 62, "duration": 5, "velocity": 109}, {"time": 232, "pitch": 59, "duration": 5, "velocity": 115}, {"time": 238, "pitch": 64, "duration": 14, "velocity": 106}, {"time": 256, "pitch": 71, "duration": 4, "velocity": 112}, {"time": 262, "pitch": 69, "duration": 5, "velocity": 104}, {"time": 268, "pitch": 67, "duration": 4, "velocity": 106}, {"time": 274, "pitch": 66, "duration": 8, "velocity": 113}, {"time": 286, "pitch": 62, "duration": 4, "velocity": 109}, {"time": 292, "pitch": 59, "duration": 19, "velocity": 104}, {"time": 316, "pitch": 59, "duration": 5, "velocity": 112}, {"time": 322, "pitch": 62, "duration": 4, "velocity": 112}, {"time": 328, "pitch": 59, "duration": 4, "velocity": 106}, {"time": 334, "pitch": 60, "duration": 9, "velocity": 109}, {"time": 346, "pitch": 64, "duration": 4, "velocity": 106}, {"time": 352, "pitch": 67, "duration": 4, "velocity": 112}, {"time": 358, "pitch": 66, "duration": 4, "velocity": 117}, {"time": 364, "pitch": 64, "duration": 5, "velocity": 109}, {"time": 370, "pitch": 62, "duration": 12, "velocity": 112}, {"time": 382, "pitch": 57, "duration": 6, "velocity": 109}, {"time": 388, "pitch": 59, "duration": 21, "velocity": 99}, {"time": 412, "pitch": 59, "duration": 4, "velocity": 112}, {"time": 418, "pitch": 62, "duration": 5, "velocity": 109}, {"time": 424, "pitch": 59, "duration": 5, "velocity": 115}, {"time": 430, "pitch": 64, "duration": 15, "velocity": 112}, {"time": 448, "pitch": 71, "duration": 4, "velocity": 106}, {"time": 454, "pitch": 69, "duration": 4, "velocity": 109}, {"time": 460, "pitch": 67, "duration": 4, "velocity": 104}, {"time": 466, "pitch": 66, "duration": 4, "velocity": 113}, {"time": 472, "pitch": 62, "duration": 5, "velocity": 112}, {"time": 478, "pitch": 71, "duration": 13, "velocity": 94}, {"time": 490, "pitch": 69, "duration": 9, "velocity": 112}, {"time": 502, "pitch": 67, "duration": 9, "velocity": 109}, {"time": 514, "pitch": 62, "duration": 4, "velocity": 109}, {"time": 520, "pitch": 59, "duration": 5, "velocity": 106}, {"time": 526, "pitch": 60, "duration": 25, "velocity": 109}, {"time": 556, "pitch": 62, "duration": 4, "velocity": 109}, {"time": 562, "pitch": 62, "duration": 8, "velocity": 109}, {"time": 574, "pitch": 59, "duration": 4, "velocity": 106}, {"time": 580, "pitch": 60, "duration": 21, "velocity": 104}, {"time": 604, "pitch": 59, "duration": 5, "velocity": 106}, {"time": 610, "pitch": 62, "duration": 5, "velocity": 109}, {"time": 616, "pitch": 59, "duration": 5, "velocity": 115}, {"time": 622, "pitch": 64, "duration": 14, "velocity": 106}, {"time": 640, "pitch": 71, "duration": 4, "velocity": 112}, {"time": 646, "pitch": 69, "duration": 5, "velocity": 104}, {"time": 652, "pitch": 67, "duration": 4, "velocity": 106}, {"time": 658, "pitch": 66, "duration": 8, "velocity": 113}, {"time": 670, "pitch": 62, "duration": 4, "velocity": 109}, {"time": 676, "pitch": 59, "duration": 19, "velocity": 104}, {"time": 700, "pitch": 59, "duration": 5, "velocity": 112}, {"time": 706, "pitch": 62, "duration": 4, "velocity": 112}, {"time": 712, "pitch": 59, "duration": 4, "velocity": 106}, {"time": 718, "pitch": 60, "duration": 9, "velocity": 109}, {"time": 730, "pitch": 64, "duration": 4, "velocity": 106}, {"time": 736, "pitch": 67, "duration": 4, "velocity": 112}, {"time": 742, "pitch": 66, "duration": 4, "velocity": 117}, {"time": 748, "pitch": 64, "duration": 5, "velocity": 109}, {"time": 754, "pitch": 62, "duration": 12, "velocity": 112}, {"time": 766, "pitch": 57, "duration": 6, "velocity": 109}, {"time": 772, "pitch": 59, "duration": 21, "velocity": 99}, {"time": 796, "pitch": 59, "duration": 4, "velocity": 112}, {"time": 802, "pitch": 62, "duration": 5, "velocity": 109}, {"time": 808, "pitch": 59, "duration": 5, "velocity": 115}, {"time": 814, "pitch": 64, "duration": 15, "velocity": 112}, {"time": 832, "pitch": 71, "duration": 4, "velocity": 106}, {"time": 838, "pitch": 69, "duration": 4, "velocity": 109}, {"time": 844, "pitch": 67, "duration": 4, "velocity": 104}, {"time": 850, "pitch": 66, "duration": 4, "velocity": 113}, {"time": 856, "pitch": 62, "duration": 5, "velocity": 112}, {"time": 862, "pitch": 71, "duration": 13, "velocity": 94}, {"time": 874, "pitch": 69, "duration": 9, "velocity": 112}, {"time": 886, "pitch": 67, "duration": 9, "velocity": 109}, {"time": 898, "pitch": 62, "duration": 4, "velocity": 109}, {"time": 904, "pitch": 59, "duration": 5, "velocity": 106}, {"time": 910, "pitch": 60, "duration": 18, "velocity": 109}, {"time": 928, "pitch": 59, "duration": 4, "velocity": 115}, {"time": 934, "pitch": 69, "duration": 4, "velocity": 109}, {"time": 940, "pitch": 67, "duration": 3, "velocity": 109}, {"time": 946, "pitch": 66, "duration": 10, "velocity": 120}, {"time": 958, "pitch": 64, "duration": 5, "velocity": 112}, {"time": 964, "pitch": 66, "duration": 32, "velocity": 120}, {"time": 1012, "pitch": 71, "duration": 5, "velocity": 109}, {"time": 1018, "pitch": 71, "duration": 5, "velocity": 112}, {"time": 1024, "pitch": 72, "duration": 5, "velocity": 104}, {"time": 1030, "pitch": 71, "duration": 5, "velocity": 112}, {"time": 1036, "pitch": 69, "duration": 4, "velocity": 109}, {"time": 1042, "pitch": 67, "duration": 4, "velocity": 112}, {"time": 1048, "pitch": 66, "duration": 5, "velocity": 113}, {"time": 1054, "pitch": 67, "duration": 38, "velocity": 106}, {"time": 1108, "pitch": 67, "duration": 4, "velocity": 115}, {"time": 1114, "pitch": 67, "duration": 4, "velocity": 106}, {"time": 1120, "pitch": 69, "duration": 4, "velocity": 109}, {"time": 1126, "pitch": 66, "duration": 4, "velocity": 120}, {"time": 1132, "pitch": 64, "duration": 3, "velocity": 112}, {"time": 1138, "pitch": 62, "duration": 4, "velocity": 115}, {"time": 1144, "pitch": 57, "duration": 4, "velocity": 112}, {"time": 1150, "pitch": 59, "duration": 47, "velocity": 109}, {"time": 1204, "pitch": 71, "duration": 5, "velocity": 112}, {"time": 1210, "pitch": 71, "duration": 4, "velocity": 109}, {"time": 1216, "pitch": 72, "duration": 4, "velocity": 104}, {"time": 1222, "pitch": 71, "duration": 5, "velocity": 112}, {"time": 1228, "pitch": 69, "duration": 3, "velocity": 99}, {"time": 1234, "pitch": 69, "duration": 9, "velocity": 112}, {"time": 1252, "pitch": 67, "duration": 4, "velocity": 112}, {"time": 1258, "pitch": 69, "duration": 4, "velocity": 115}, {"time": 1264, "pitch": 71, "duration": 4, "velocity": 115}, {"time": 1270, "pitch": 67, "duration": 6, "velocity": 109}, {"time": 1276, "pitch": 64, "duration": 4, "velocity": 106}, {"time": 1282, "pitch": 64, "duration": 12, "velocity": 109}, {"time": 1300, "pitch": 60, "duration": 4, "velocity": 115}, {"time": 1306, "pitch": 64, "duration": 7, "velocity": 112}, {"time": 1315, "pitch": 67, "duration": 3, "velocity": 109}, {"time": 1318, "pitch": 71, "duration": 4, "velocity": 112}, {"time": 1322, "pitch": 67, "duration": 3, "velocity": 106}, {"time": 1326, "pitch": 64, "duration": 3, "velocity": 109}, {"time": 1331, "pitch": 71, "duration": 4, "velocity": 104}, {"time": 1336, "pitch": 67, "duration": 2, "velocity": 106}, {"time": 1339, "pitch": 64, "duration": 2, "velocity": 106}, {"time": 1342, "pitch": 67, "duration": 4, "velocity": 112}, {"time": 1348, "pitch": 67, "duration": 5, "velocity": 112}, {"time": 1354, "pitch": 67, "duration": 4, "velocity": 109}, {"time": 1360, "pitch": 69, "duration": 4, "velocity": 112}, {"time": 1366, "pitch": 69, "duration": 9, "velocity": 118}, {"time": 1378, "pitch": 64, "duration": 4, "velocity": 115}, {"time": 1384, "pitch": 62, "duration": 7, "velocity": 115}, {"time": 1396, "pitch": 71, "duration": 5, "velocity": 109}, {"time": 1402, "pitch": 71, "duration": 5, "velocity": 112}, {"time": 1408, "pitch": 72, "duration": 5, "velocity": 104}, {"time": 1414, "pitch": 71, "duration": 5, "velocity": 112}, {"time": 1420, "pitch": 69, "duration": 4, "velocity": 109}, {"time": 1426, "pitch": 67, "duration": 4, "velocity": 112}, {"time": 1432, "pitch": 66, "duration": 5, "velocity": 113}, {"time": 1438, "pitch": 67, "duration": 38, "velocity": 106}, {"time": 1492, "pitch": 67, "duration": 4, "velocity": 115}, {"time": 1498, "pitch": 67, "duration": 4, "velocity": 106}, {"time": 1504, "pitch": 69, "duration": 4, "velocity": 109}, {"time": 1510, "pitch": 66, "duration": 4, "velocity": 120}, {"time": 1516, "pitch": 64, "duration": 3, "velocity": 112}, {"time": 1522, "pitch": 62, "duration": 4, "velocity": 115}, {"time": 1528, "pitch": 57, "duration": 4, "velocity": 112}, {"time": 1534, "pitch": 59, "duration": 48, "velocity": 109}, {"time": 1588, "pitch": 71, "duration": 5, "velocity": 112}, {"time": 1594, "pitch": 71, "duration": 4, "velocity": 109}, {"time": 1600, "pitch": 72, "duration": 4, "velocity": 104}, {"time": 1606, "pitch": 71, "duration": 5, "velocity": 112}, {"time": 1612, "pitch": 69, "duration": 3, "velocity": 99}, {"time": 1618, "pitch": 69, "duration": 9, "velocity": 112}, {"time": 1636, "pitch": 67, "duration": 4, "velocity": 112}, {"time": 1642, "pitch": 69, "duration": 4, "velocity": 115}, {"time": 1648, "pitch": 71, "duration": 4, "velocity": 115}, {"time": 1654, "pitch": 67, "duration": 6, "velocity": 109}, {"time": 1660, "pitch": 64, "duration": 4, "velocity": 106}, {"time": 1666, "pitch": 64, "duration": 12, "velocity": 109}, {"time": 1684, "pitch": 60, "duration": 4, "velocity": 115}, {"time": 1690, "pitch": 64, "duration": 7, "velocity": 112}, {"time": 1699, "pitch": 67, "duration": 3, "velocity": 109}, {"time": 1702, "pitch": 71, "duration": 4, "velocity": 112}, {"time": 1706, "pitch": 67, "duration": 3, "velocity": 106}, {"time": 1710, "pitch": 64, "duration": 3, "velocity": 109}, {"time": 1715, "pitch": 71, "duration": 4, "velocity": 104}, {"time": 1720, "pitch": 67, "duration": 2, "velocity": 106}, {"time": 1723, "pitch": 64, "duration": 2, "velocity": 106}, {"time": 1726, "pitch": 67, "duration": 4, "velocity": 112}, {"time": 1732, "pitch": 67, "duration": 5, "velocity": 112}, {"time": 1738, "pitch": 67, "duration": 6, "velocity": 109}, {"time": 1750, "pitch": 67, "duration": 4, "velocity": 112}, {"time": 1756, "pitch": 67, "duration": 5, "velocity": 109}, {"time": 1762, "pitch": 67, "duration": 19, "velocity": 112}, {"time": 1792, "pitch": 71, "duration": 5, "velocity": 106}, {"time": 1798, "pitch": 69, "duration": 6, "velocity": 112}, {"time": 1804, "pitch": 67, "duration": 39, "velocity": 109}, {"time": 2008, "pitch": 59, "duration": 5, "velocity": 106}, {"time": 2014, "pitch": 62, "duration": 5, "velocity": 109}, {"time": 2020, "pitch": 59, "duration": 5, "velocity": 115}, {"time": 2026, "pitch": 64, "duration": 14, "velocity": 106}, {"time": 2044, "pitch": 71, "duration": 4, "velocity": 112}, {"time": 2050, "pitch": 69, "duration": 5, "velocity": 104}, {"time": 2056, "pitch": 67, "duration": 4, "velocity": 106}, {"time": 2062, "pitch": 66, "duration": 8, "velocity": 113}, {"time": 2074, "pitch": 62, "duration": 4, "velocity": 109}, {"time": 2080, "pitch": 59, "duration": 19, "velocity": 104}, {"time": 2104, "pitch": 59, "duration": 5, "velocity": 112}, {"time": 2110, "pitch": 62, "duration": 4, "velocity": 112}, {"time": 2116, "pitch": 59, "duration": 4, "velocity": 106}, {"time": 2122, "pitch": 60, "duration": 9, "velocity": 109}, {"time": 2134, "pitch": 64, "duration": 4, "velocity": 106}, {"time": 2140, "pitch": 67, "duration": 4, "velocity": 112}, {"time": 2146, "pitch": 66, "duration": 4, "velocity": 117}, {"time": 2152, "pitch": 64, "duration": 5, "velocity": 109}, {"time": 2158, "pitch": 62, "duration": 12, "velocity": 112}, {"time": 2170, "pitch": 57, "duration": 6, "velocity": 109}, {"time": 2176, "pitch": 59, "duration": 21, "velocity": 99}, {"time": 2200, "pitch": 59, "duration": 4, "velocity": 112}, {"time": 2206, "pitch": 62, "duration": 5, "velocity": 109}, {"time": 2212, "pitch": 59, "duration": 5, "velocity": 115}, {"time": 2218, "pitch": 64, "duration": 15, "velocity": 112}, {"time": 2236, "pitch": 71, "duration": 4, "velocity": 106}, {"time": 2242, "pitch": 69, "duration": 4, "velocity": 109}, {"time": 2248, "pitch": 67, "duration": 4, "velocity": 104}, {"time": 2254, "pitch": 66, "duration": 4, "velocity": 113}, {"time": 2260, "pitch": 62, "duration": 5, "velocity": 112}, {"time": 2266, "pitch": 71, "duration": 13, "velocity": 94}, {"time": 2278, "pitch": 69, "duration": 9, "velocity": 112}, {"time": 2290, "pitch": 67, "duration": 9, "velocity": 109}, {"time": 2302, "pitch": 62, "duration": 4, "velocity": 109}, {"time": 2308, "pitch": 59, "duration": 5, "velocity": 106}, {"time": 2314, "pitch": 60, "duration": 18, "velocity": 109}, {"time": 2332, "pitch": 59, "duration": 4, "velocity": 115}, {"time": 2338, "pitch": 69, "duration": 4, "velocity": 109}, {"time": 2344, "pitch": 67, "duration": 3, "velocity": 109}, {"time": 2350, "pitch": 66, "duration": 10, "velocity": 120}, {"time": 2362, "pitch": 64, "duration": 5, "velocity": 112}, {"time": 2368, "pitch": 66, "duration": 32, "velocity": 120}, {"time": 2416, "pitch": 71, "duration": 5, "velocity": 109}, {"time": 2422, "pitch": 71, "duration": 5, "velocity": 112}, {"time": 2428, "pitch": 72, "duration": 5, "velocity": 104}, {"time": 2434, "pitch": 71, "duration": 5, "velocity": 112}, {"time": 2440, "pitch": 69, "duration": 4, "velocity": 109}, {"time": 2446, "pitch": 67, "duration": 4, "velocity": 112}, {"time": 2452, "pitch": 66, "duration": 5, "velocity": 113}, {"time": 2458, "pitch": 67, "duration": 38, "velocity": 106}, {"time": 2512, "pitch": 67, "duration": 4, "velocity": 115}, {"time": 2518, "pitch": 67, "duration": 4, "velocity": 106}, {"time": 2524, "pitch": 69, "duration": 4, "velocity": 109}, {"time": 2530, "pitch": 66, "duration": 4, "velocity": 120}, {"time": 2536, "pitch": 64, "duration": 3, "velocity": 112}, {"time": 2542, "pitch": 62, "duration": 4, "velocity": 115}, {"time": 2548, "pitch": 57, "duration": 4, "velocity": 112}, {"time": 2554, "pitch": 59, "duration": 47, "velocity": 109}, {"time": 2608, "pitch": 71, "duration": 5, "velocity": 112}, {"time": 2614, "pitch": 71, "duration": 4, "velocity": 109}, {"time": 2620, "pitch": 72, "duration": 4, "velocity": 104}, {"time": 2626, "pitch": 71, "duration": 5, "velocity": 112}, {"time": 2632, "pitch": 69, "duration": 3, "velocity": 99}, {"time": 2638, "pitch": 69, "duration": 9, "velocity": 112}, {"time": 2656, "pitch": 67, "duration": 4, "velocity": 112}, {"time": 2662, "pitch": 69, "duration": 4, "velocity": 115}, {"time": 2668, "pitch": 71, "duration": 4, "velocity": 115}, {"time": 2674, "pitch": 67, "duration": 6, "velocity": 109}, {"time": 2680, "pitch": 64, "duration": 4, "velocity": 106}, {"time": 2686, "pitch": 64, "duration": 12, "velocity": 109}, {"time": 2704, "pitch": 60, "duration": 4, "velocity": 115}, {"time": 2710, "pitch": 64, "duration": 7, "velocity": 112}, {"time": 2719, "pitch": 67, "duration": 3, "velocity": 109}, {"time": 2722, "pitch": 71, "duration": 4, "velocity": 112}, {"time": 2726, "pitch": 67, "duration": 3, "velocity": 106}, {"time": 2730, "pitch": 64, "duration": 3, "velocity": 109}, {"time": 2735, "pitch": 71, "duration": 4, "velocity": 104}, {"time": 2740, "pitch": 67, "duration": 2, "velocity": 106}, {"time": 2743, "pitch": 64, "duration": 2, "velocity": 106}, {"time": 2746, "pitch": 67, "duration": 4, "velocity": 112}, {"time": 2752, "pitch": 67, "duration": 5, "velocity": 112}, {"time": 2758, "pitch": 67, "duration": 4, "velocity": 109}, {"time": 2764, "pitch": 69, "duration": 4, "velocity": 112}, {"time": 2770, "pitch": 69, "duration": 18, "velocity": 118}, {"time": 2794, "pitch": 69, "duration": 4, "velocity": 115}, {"time": 2800, "pitch": 69, "duration": 2, "velocity": 112}, {"time": 2803, "pitch": 69, "duration": 7, "velocity": 115}, {"time": 2812, "pitch": 71, "duration": 4, "velocity": 112}, {"time": 2818, "pitch": 71, "duration": 25, "velocity": 112}, {"time": 3088, "pitch": 71, "duration": 5, "velocity": 109}, {"time": 3094, "pitch": 71, "duration": 5, "velocity": 112}, {"time": 3100, "pitch": 72, "duration": 5, "velocity": 104}, {"time": 3106, "pitch": 71, "duration": 5, "velocity": 112}, {"time": 3112, "pitch": 69, "duration": 4, "velocity": 109}, {"time": 3118, "pitch": 67, "duration": 4, "velocity": 112}, {"time": 3124, "pitch": 66, "duration": 5, "velocity": 113}, {"time": 3130, "pitch": 67, "duration": 38, "velocity": 106}, {"time": 3184, "pitch": 67, "duration": 4, "velocity": 115}, {"time": 3190, "pitch": 67, "duration": 4, "velocity": 106}, {"time": 3196, "pitch": 69, "duration": 4, "velocity": 109}, {"time": 3202, "pitch": 66, "duration": 4, "velocity": 120}, {"time": 3208, "pitch": 64, "duration": 3, "velocity": 112}, {"time": 3214, "pitch": 62, "duration": 4, "velocity": 115}, {"time": 3220, "pitch": 57, "duration": 4, "velocity": 112}, {"time": 3226, "pitch": 59, "duration": 47, "velocity": 109}, {"time": 3280, "pitch": 71, "duration": 5, "velocity": 112}, {"time": 3286, "pitch": 71, "duration": 4, "velocity": 109}, {"time": 3292, "pitch": 72, "duration": 4, "velocity": 104}, {"time": 3298, "pitch": 71, "duration": 5, "velocity": 112}, {"time": 3304, "pitch": 69, "duration": 3, "velocity": 99}, {"time": 3310, "pitch": 69, "duration": 9, "velocity": 112}, {"time": 3328, "pitch": 67, "duration": 4, "velocity": 112}, {"time": 3334, "pitch": 69, "duration": 4, "velocity": 115}, {"time": 3340, "pitch": 71, "duration": 4, "velocity": 115}, {"time": 3346, "pitch": 67, "duration": 6, "velocity": 109}, {"time": 3352, "pitch": 64, "duration": 4, "velocity": 106}, {"time": 3358, "pitch": 64, "duration": 12, "velocity": 109}, {"time": 3376, "pitch": 60, "duration": 4, "velocity": 115}, {"time": 3382, "pitch": 64, "duration": 7, "velocity": 112}, {"time": 3391, "pitch": 67, "duration": 3, "velocity": 109}, {"time": 3394, "pitch": 71, "duration": 4, "velocity": 112}, {"time": 3398, "pitch": 67, "duration": 3, "velocity": 106}, {"time": 3402, "pitch": 64, "duration": 3, "velocity": 109}, {"time": 3407, "pitch": 71, "duration": 4, "velocity": 104}, {"time": 3412, "pitch": 67, "duration": 2, "velocity": 106}, {"time": 3415, "pitch": 64, "duration": 2, "velocity": 106}, {"time": 3418, "pitch": 67, "duration": 4, "velocity": 112}, {"time": 3424, "pitch": 67, "duration": 5, "velocity": 112}, {"time": 3430, "pitch": 67, "duration": 4, "velocity": 109}, {"time": 3442, "pitch": 68, "duration": 10, "velocity": 120}, {"time": 3454, "pitch": 70, "duration": 12, "velocity": 123}, {"time": 3472, "pitch": 72, "duration": 5, "velocity": 109}, {"time": 3478, "pitch": 72, "duration": 5, "velocity": 112}, {"time": 3484, "pitch": 73, "duration": 5, "velocity": 104}, {"time": 3490, "pitch": 72, "duration": 5, "velocity": 112}, {"time": 3496, "pitch": 70, "duration": 4, "velocity": 109}, {"time": 3502, "pitch": 68, "duration": 4, "velocity": 112}, {"time": 3508, "pitch": 67, "duration": 5, "velocity": 113}, {"time": 3514, "pitch": 68, "duration": 38, "velocity": 106}, {"time": 3568, "pitch": 68, "duration": 4, "velocity": 115}, {"time": 3574, "pitch": 68, "duration": 4, "velocity": 106}, {"time": 3580, "pitch": 70, "duration": 4, "velocity": 109}, {"time": 3586, "pitch": 67, "duration": 4, "velocity": 120}, {"time": 3592, "pitch": 65, "duration": 3, "velocity": 112}, {"time": 3598, "pitch": 63, "duration": 4, "velocity": 115}, {"time": 3604, "pitch": 58, "duration": 4, "velocity": 112}, {"time": 3610, "pitch": 60, "duration": 47, "velocity": 109}, {"time": 3664, "pitch": 72, "duration": 5, "velocity": 112}, {"time": 3670, "pitch": 72, "duration": 4, "velocity": 109}, {"time": 3676, "pitch": 73, "duration": 4, "velocity": 104}, {"time": 3682, "pitch": 72, "duration": 5, "velocity": 112}, {"time": 3688, "pitch": 70, "duration": 3, "velocity": 99}, {"time": 3694, "pitch": 70, "duration": 9, "velocity": 112}, {"time": 3712, "pitch": 68, "duration": 4, "velocity": 112}, {"time": 3718, "pitch": 70, "duration": 4, "velocity": 115}, {"time": 3724, "pitch": 72, "duration": 4, "velocity": 115}, {"time": 3730, "pitch": 68, "duration": 6, "velocity": 109}, {"time": 3736, "pitch": 65, "duration": 4, "velocity": 106}, {"time": 3742, "pitch": 65, "duration": 12, "velocity": 109}, {"time": 3760, "pitch": 61, "duration": 4, "velocity": 115}, {"time": 3766, "pitch": 65, "duration": 7, "velocity": 112}, {"time": 3775, "pitch": 68, "duration": 3, "velocity": 109}, {"time": 3778, "pitch": 72, "duration": 4, "velocity": 112}, {"time": 3782, "pitch": 68, "duration": 3, "velocity": 106}, {"time": 3786, "pitch": 65, "duration": 3, "velocity": 109}, {"time": 3791, "pitch": 72, "duration": 4, "velocity": 104}, {"time": 3796, "pitch": 68, "duration": 2, "velocity": 106}, {"time": 3799, "pitch": 65, "duration": 2, "velocity": 106}, {"time": 3802, "pitch": 68, "duration": 4, "velocity": 112}, {"time": 3808, "pitch": 68, "duration": 5, "velocity": 112}, {"time": 3814, "pitch": 68, "duration": 4, "velocity": 109}, {"time": 3826, "pitch": 68, "duration": 4, "velocity": 120}, {"time": 3832, "pitch": 68, "duration": 4, "velocity": 117}, {"time": 3838, "pitch": 68, "duration": 32, "velocity": 117}, {"time": 3874, "pitch": 72, "duration": 9, "velocity": 104}, {"time": 3882, "pitch": 70, "duration": 4, "velocity": 110}, {"time": 3886, "pitch": 68, "duration": 34, "velocity": 107}]}, {"program": 0, "is_drum": false, "name": "BRIDGE", "notes": [{"time": 4, "pitch": 71, "duration": 5, "velocity": 109}, {"time": 10, "pitch": 74, "duration": 5, "velocity": 118}, {"time": 16, "pitch": 71, "duration": 5, "velocity": 118}, {"time": 22, "pitch": 76, "duration": 26, "velocity": 115}, {"time": 52, "pitch": 71, "duration": 5, "velocity": 115}, {"time": 58, "pitch": 74, "duration": 8, "velocity": 112}, {"time": 67, "pitch": 76, "duration": 2, "velocity": 104}, {"time": 70, "pitch": 71, "duration": 26, "velocity": 115}, {"time": 101, "pitch": 71, "duration": 4, "velocity": 115}, {"time": 106, "pitch": 74, "duration": 4, "velocity": 118}, {"time": 112, "pitch": 71, "duration": 5, "velocity": 115}, {"time": 118, "pitch": 76, "duration": 14, "velocity": 112}, {"time": 136, "pitch": 83, "duration": 5, "velocity": 118}, {"time": 142, "pitch": 81, "duration": 4, "velocity": 115}, {"time": 148, "pitch": 79, "duration": 4, "velocity": 115}, {"time": 154, "pitch": 76, "duration": 4, "velocity": 118}, {"time": 160, "pitch": 71, "duration": 6, "velocity": 109}, {"time": 166, "pitch": 76, "duration": 17, "velocity": 109}, {"time": 184, "pitch": 71, "duration": 4, "velocity": 109}, {"time": 190, "pitch": 74, "duration": 39, "velocity": 104}, {"time": 394, "pitch": 66, "duration": 6, "velocity": 102}, {"time": 400, "pitch": 67, "duration": 6, "velocity": 102}, {"time": 406, "pitch": 66, "duration": 15, "velocity": 102}, {"time": 427, "pitch": 61, "duration": 2, "velocity": 105}, {"time": 429, "pitch": 60, "duration": 2, "velocity": 104}, {"time": 431, "pitch": 59, "duration": 14, "velocity": 103}, {"time": 1168, "pitch": 67, "duration": 3, "velocity": 106}, {"time": 1171, "pitch": 69, "duration": 3, "velocity": 109}, {"time": 1174, "pitch": 71, "duration": 7, "velocity": 112}, {"time": 1180, "pitch": 74, "duration": 7, "velocity": 118}, {"time": 1186, "pitch": 79, "duration": 6, "velocity": 118}, {"time": 1192, "pitch": 81, "duration": 5, "velocity": 118}, {"time": 1198, "pitch": 83, "duration": 18, "velocity": 118}, {"time": 1282, "pitch": 64, "duration": 5, "velocity": 112}, {"time": 1288, "pitch": 66, "duration": 5, "velocity": 113}, {"time": 1294, "pitch": 67, "duration": 24, "velocity": 109}, {"time": 1366, "pitch": 74, "duration": 6, "velocity": 115}, {"time": 1366, "pitch": 86, "duration": 5, "velocity": 106}, {"time": 1378, "pitch": 62, "duration": 12, "velocity": 112}, {"time": 1378, "pitch": 74, "duration": 12, "velocity": 112}, {"time": 1552, "pitch": 69, "duration": 2, "velocity": 118}, {"time": 1555, "pitch": 71, "duration": 2, "velocity": 115}, {"time": 1558, "pitch": 72, "duration": 6, "velocity": 118}, {"time": 1564, "pitch": 71, "duration": 5, "velocity": 121}, {"time": 1570, "pitch": 69, "duration": 4, "velocity": 118}, {"time": 1576, "pitch": 67, "duration": 5, "velocity": 115}, {"time": 1582, "pitch": 69, "duration": 23, "velocity": 112}, {"time": 1606, "pitch": 71, "duration": 13, "velocity": 104}, {"time": 1624, "pitch": 76, "duration": 3, "velocity": 104}, {"time": 1627, "pitch": 78, "duration": 2, "velocity": 113}, {"time": 1630, "pitch": 79, "duration": 11, "velocity": 115}, {"time": 1642, "pitch": 78, "duration": 10, "velocity": 120}, {"time": 1654, "pitch": 76, "duration": 21, "velocity": 106}, {"time": 1786, "pitch": 71, "duration": 4, "velocity": 99}, {"time": 1790, "pitch": 74, "duration": 3, "velocity": 117}, {"time": 1793, "pitch": 71, "duration": 3, "velocity": 101}, {"time": 1796, "pitch": 76, "duration": 38, "velocity": 118}, {"time": 1838, "pitch": 71, "duration": 3, "velocity": 109}, {"time": 1840, "pitch": 74, "duration": 2, "velocity": 120}, {"time": 1843, "pitch": 71, "duration": 2, "velocity": 101}, {"time": 1846, "pitch": 78, "duration": 21, "velocity": 109}, {"time": 1885, "pitch": 71, "duration": 3, "velocity": 104}, {"time": 1888, "pitch": 74, "duration": 2, "velocity": 120}, {"time": 1891, "pitch": 71, "duration": 2, "velocity": 109}, {"time": 1896, "pitch": 79, "duration": 17, "velocity": 120}, {"time": 1907, "pitch": 81, "duration": 9, "velocity": 123}, {"time": 1918, "pitch": 83, "duration": 9, "velocity": 118}, {"time": 1929, "pitch": 74, "duration": 10, "velocity": 123}, {"time": 1942, "pitch": 76, "duration": 47, "velocity": 118}, {"time": 2572, "pitch": 67, "duration": 3, "velocity": 106}, {"time": 2575, "pitch": 69, "duration": 3, "velocity": 109}, {"time": 2578, "pitch": 71, "duration": 7, "velocity": 112}, {"time": 2584, "pitch": 74, "duration": 7, "velocity": 118}, {"time": 2590, "pitch": 79, "duration": 6, "velocity": 118}, {"time": 2596, "pitch": 81, "duration": 5, "velocity": 118}, {"time": 2602, "pitch": 83, "duration": 18, "velocity": 118}, {"time": 2686, "pitch": 64, "duration": 5, "velocity": 112}, {"time": 2692, "pitch": 66, "duration": 5, "velocity": 113}, {"time": 2698, "pitch": 67, "duration": 24, "velocity": 109}, {"time": 2770, "pitch": 74, "duration": 6, "velocity": 115}, {"time": 2770, "pitch": 86, "duration": 5, "velocity": 106}, {"time": 2782, "pitch": 62, "duration": 12, "velocity": 112}, {"time": 2782, "pitch": 74, "duration": 12, "velocity": 112}, {"time": 2794, "pitch": 69, "duration": 4, "velocity": 118}, {"time": 2794, "pitch": 81, "duration": 4, "velocity": 109}, {"time": 2800, "pitch": 69, "duration": 2, "velocity": 115}, {"time": 2800, "pitch": 81, "duration": 2, "velocity": 106}, {"time": 2803, "pitch": 69, "duration": 7, "velocity": 112}, {"time": 2803, "pitch": 81, "duration": 7, "velocity": 112}, {"time": 2812, "pitch": 71, "duration": 4, "velocity": 112}, {"time": 2812, "pitch": 83, "duration": 4, "velocity": 104}, {"time": 2818, "pitch": 71, "duration": 23, "velocity": 112}, {"time": 2818, "pitch": 83, "duration": 23, "velocity": 104}, {"time": 2842, "pitch": 73, "duration": 16, "velocity": 120}, {"time": 2842, "pitch": 85, "duration": 16, "velocity": 110}, {"time": 2866, "pitch": 76, "duration": 5, "velocity": 115}, {"time": 2866, "pitch": 88, "duration": 5, "velocity": 104}, {"time": 2872, "pitch": 74, "duration": 3, "velocity": 118}, {"time": 2872, "pitch": 86, "duration": 3, "velocity": 104}, {"time": 2878, "pitch": 74, "duration": 2, "velocity": 118}, {"time": 2878, "pitch": 86, "duration": 2, "velocity": 109}, {"time": 2884, "pitch": 73, "duration": 2, "velocity": 123}, {"time": 2884, "pitch": 85, "duration": 2, "velocity": 117}, {"time": 2890, "pitch": 74, "duration": 14, "velocity": 118}, {"time": 2890, "pitch": 86, "duration": 14, "velocity": 115}, {"time": 2908, "pitch": 73, "duration": 4, "velocity": 120}, {"time": 2908, "pitch": 85, "duration": 4, "velocity": 113}, {"time": 2914, "pitch": 71, "duration": 21, "velocity": 118}, {"time": 2914, "pitch": 83, "duration": 21, "velocity": 112}, {"time": 2938, "pitch": 71, "duration": 20, "velocity": 115}, {"time": 2938, "pitch": 83, "duration": 19, "velocity": 112}, {"time": 2960, "pitch": 71, "duration": 1, "velocity": 109}, {"time": 2960, "pitch": 83, "duration": 1, "velocity": 106}, {"time": 2962, "pitch": 83, "duration": 5, "velocity": 106}, {"time": 2962, "pitch": 71, "duration": 6, "velocity": 115}, {"time": 2974, "pitch": 67, "duration": 7, "velocity": 115}, {"time": 2974, "pitch": 79, "duration": 8, "velocity": 112}, {"time": 2986, "pitch": 69, "duration": 20, "velocity": 115}, {"time": 2986, "pitch": 81, "duration": 20, "velocity": 112}, {"time": 3008, "pitch": 69, "duration": 1, "velocity": 101}, {"time": 3008, "pitch": 81, "duration": 1, "velocity": 94}, {"time": 3010, "pitch": 69, "duration": 10, "velocity": 115}, {"time": 3010, "pitch": 81, "duration": 10, "velocity": 109}, {"time": 3022, "pitch": 71, "duration": 4, "velocity": 115}, {"time": 3022, "pitch": 83, "duration": 4, "velocity": 109}, {"time": 3028, "pitch": 72, "duration": 3, "velocity": 115}, {"time": 3028, "pitch": 84, "duration": 3, "velocity": 106}, {"time": 3034, "pitch": 74, "duration": 1, "velocity": 115}, {"time": 3034, "pitch": 86, "duration": 2, "velocity": 104}, {"time": 3040, "pitch": 74, "duration": 2, "velocity": 112}, {"time": 3040, "pitch": 86, "duration": 2, "velocity": 109}, {"time": 3046, "pitch": 74, "duration": 2, "velocity": 115}, {"time": 3046, "pitch": 86, "duration": 2, "velocity": 112}, {"time": 3052, "pitch": 74, "duration": 2, "velocity": 115}, {"time": 3052, "pitch": 86, "duration": 2, "velocity": 109}, {"time": 3058, "pitch": 74, "duration": 6, "velocity": 115}, {"time": 3058, "pitch": 86, "duration": 6, "velocity": 109}, {"time": 3069, "pitch": 62, "duration": 1, "velocity": 87}, {"time": 3070, "pitch": 64, "duration": 1, "velocity": 101}, {"time": 3070, "pitch": 65, "duration": 1, "velocity": 106}, {"time": 3071, "pitch": 67, "duration": 1, "velocity": 104}, {"time": 3071, "pitch": 69, "duration": 1, "velocity": 106}, {"time": 3072, "pitch": 71, "duration": 1, "velocity": 91}, {"time": 3072, "pitch": 72, "duration": 1, "velocity": 87}, {"time": 3073, "pitch": 74, "duration": 1, "velocity": 94}, {"time": 3073, "pitch": 76, "duration": 1, "velocity": 85}, {"time": 3074, "pitch": 77, "duration": 1, "velocity": 82}, {"time": 3074, "pitch": 79, "duration": 1, "velocity": 82}, {"time": 3075, "pitch": 81, "duration": 1, "velocity": 89}, {"time": 3075, "pitch": 83, "duration": 1, "velocity": 80}, {"time": 3076, "pitch": 84, "duration": 1, "velocity": 78}, {"time": 3076, "pitch": 86, "duration": 1, "velocity": 82}, {"time": 3077, "pitch": 88, "duration": 1, "velocity": 76}, {"time": 3078, "pitch": 89, "duration": 1, "velocity": 78}, {"time": 3078, "pitch": 91, "duration": 1, "velocity": 82}, {"time": 3079, "pitch": 93, "duration": 1, "velocity": 82}, {"time": 3079, "pitch": 95, "duration": 1, "velocity": 78}, {"time": 3080, "pitch": 98, "duration": 1, "velocity": 94}, {"time": 3244, "pitch": 67, "duration": 3, "velocity": 106}, {"time": 3247, "pitch": 69, "duration": 3, "velocity": 109}, {"time": 3250, "pitch": 71, "duration": 7, "velocity": 112}, {"time": 3256, "pitch": 74, "duration": 7, "velocity": 118}, {"time": 3262, "pitch": 79, "duration": 6, "velocity": 118}, {"time": 3268, "pitch": 81, "duration": 5, "velocity": 118}, {"time": 3274, "pitch": 83, "duration": 18, "velocity": 118}, {"time": 3358, "pitch": 64, "duration": 5, "velocity": 112}, {"time": 3364, "pitch": 66, "duration": 5, "velocity": 113}, {"time": 3370, "pitch": 67, "duration": 24, "velocity": 109}, {"time": 3628, "pitch": 68, "duration": 3, "velocity": 106}, {"time": 3631, "pitch": 70, "duration": 3, "velocity": 109}, {"time": 3634, "pitch": 72, "duration": 7, "velocity": 112}, {"time": 3640, "pitch": 75, "duration": 7, "velocity": 118}, {"time": 3646, "pitch": 80, "duration": 6, "velocity": 118}, {"time": 3652, "pitch": 82, "duration": 5, "velocity": 118}, {"time": 3658, "pitch": 84, "duration": 18, "velocity": 118}, {"time": 3742, "pitch": 65, "duration": 5, "velocity": 112}, {"time": 3748, "pitch": 67, "duration": 5, "velocity": 113}, {"time": 3754, "pitch": 68, "duration": 24, "velocity": 109}, {"time": 3866, "pitch": 72, "duration": 3, "velocity": 106}, {"time": 3868, "pitch": 75, "duration": 3, "velocity": 109}, {"time": 3871, "pitch": 72, "duration": 3, "velocity": 112}, {"time": 3875, "pitch": 77, "duration": 36, "velocity": 115}, {"time": 3913, "pitch": 72, "duration": 2, "velocity": 106}, {"time": 3916, "pitch": 75, "duration": 2, "velocity": 115}, {"time": 3919, "pitch": 72, "duration": 2, "velocity": 112}, {"time": 3922, "pitch": 79, "duration": 21, "velocity": 120}, {"time": 3961, "pitch": 72, "duration": 3, "velocity": 112}, {"time": 3964, "pitch": 75, "duration": 2, "velocity": 112}, {"time": 3967, "pitch": 72, "duration": 2, "velocity": 115}, {"time": 3970, "pitch": 77, "duration": 6, "velocity": 115}, {"time": 3976, "pitch": 75, "duration": 6, "velocity": 118}, {"time": 3983, "pitch": 72, "duration": 6, "velocity": 104}, {"time": 3988, "pitch": 68, "duration": 6, "velocity": 96}, {"time": 3995, "pitch": 70, "duration": 36, "velocity": 101}, {"time": 4031, "pitch": 68, "duration": 52, "velocity": 101}], "annotations": [{"time": 1366, "annotation": {"number": 64, "value": 127}, "group": "control_change"}, {"time": 1378, "annotation": {"number": 64, "value": 0}, "group": "control_change"}, {"time": 1379, "annotation": {"number": 64, "value": 127}, "group": "control_change"}, {"time": 1389, "annotation": {"number": 64, "value": 0}, "group": "control_change"}, {"time": 2770, "annotation": {"number": 64, "value": 127}, "group": "control_change"}, {"time": 2782, "annotation": {"number": 64, "value": 0}, "group": "control_change"}, {"time": 2783, "annotation": {"number": 64, "value": 127}, "group": "control_change"}, {"time": 2793, "annotation": {"number": 64, "value": 0}, "group": "control_change"}, {"time": 2856, "annotation": {"number": 64, "value": 127}, "group": "control_change"}, {"time": 2865, "annotation": {"number": 64, "value": 0}, "group": "control_change"}, {"time": 2871, "annotation": {"number": 64, "value": 127}, "group": "control_change"}, {"time": 2887, "annotation": {"number": 64, "value": 0}, "group": "control_change"}, {"time": 2900, "annotation": {"number": 64, "value": 127}, "group": "control_change"}, {"time": 2904, "annotation": {"number": 64, "value": 0}, "group": "control_change"}, {"time": 2908, "annotation": {"number": 64, "value": 127}, "group": "control_change"}, {"time": 2916, "annotation": {"number": 64, "value": 0}, "group": "control_change"}, {"time": 2961, "annotation": {"number": 64, "value": 127}, "group": "control_change"}, {"time": 2973, "annotation": {"number": 64, "value": 0}, "group": "control_change"}, {"time": 2975, "annotation": {"number": 64, "value": 127}, "group": "control_change"}, {"time": 2984, "annotation": {"number": 64, "value": 0}, "group": "control_change"}, {"time": 3001, "annotation": {"number": 64, "value": 127}, "group": "control_change"}, {"time": 3009, "annotation": {"number": 64, "value": 0}, "group": "control_change"}, {"time": 3011, "annotation": {"number": 64, "value": 127}, "group": "control_change"}, {"time": 3022, "annotation": {"number": 64, "value": 0}, "group": "control_change"}, {"time": 3023, "annotation": {"number": 64, "value": 127}, "group": "control_change"}, {"time": 3031, "annotation": {"number": 64, "value": 0}, "group": "control_change"}, {"time": 3442, "annotation": {"number": 64, "value": 127}, "group": "control_change"}, {"time": 3826, "annotation": {"number": 64, "value": 127}, "group": "control_change"}]}, {"program": 0, "is_drum": false, "name": "PIANO", "notes": [{"time": 22, "pitch": 48, "duration": 39, "velocity": 99}, {"time": 22, "pitch": 60, "duration": 8, "velocity": 87}, {"time": 22, "pitch": 64, "duration": 8, "velocity": 96}, {"time": 28, "pitch": 55, "duration": 7, "velocity": 62}, {"time": 34, "pitch": 62, "duration": 7, "velocity": 104}, {"time": 40, "pitch": 55, "duration": 7, "velocity": 58}, {"time": 46, "pitch": 60, "duration": 10, "velocity": 96}, {"time": 46, "pitch": 67, "duration": 13, "velocity": 101}, {"time": 52, "pitch": 55, "duration": 7, "velocity": 69}, {"time": 58, "pitch": 60, "duration": 3, "velocity": 94}, {"time": 58, "pitch": 64, "duration": 2, "velocity": 91}, {"time": 70, "pitch": 43, "duration": 39, "velocity": 101}, {"time": 70, "pitch": 59, "duration": 8, "velocity": 89}, {"time": 70, "pitch": 62, "duration": 16, "velocity": 104}, {"time": 76, "pitch": 50, "duration": 6, "velocity": 71}, {"time": 82, "pitch": 59, "duration": 7, "velocity": 85}, {"time": 88, "pitch": 50, "duration": 6, "velocity": 46}, {"time": 94, "pitch": 59, "duration": 7, "velocity": 99}, {"time": 94, "pitch": 62, "duration": 6, "velocity": 104}, {"time": 94, "pitch": 71, "duration": 6, "velocity": 99}, {"time": 100, "pitch": 50, "duration": 7, "velocity": 66}, {"time": 106, "pitch": 59, "duration": 4, "velocity": 99}, {"time": 106, "pitch": 62, "duration": 7, "velocity": 104}, {"time": 106, "pitch": 66, "duration": 9, "velocity": 110}, {"time": 112, "pitch": 59, "duration": 3, "velocity": 101}, {"time": 118, "pitch": 48, "duration": 38, "velocity": 99}, {"time": 118, "pitch": 60, "duration": 9, "velocity": 96}, {"time": 118, "pitch": 64, "duration": 12, "velocity": 96}, {"time": 124, "pitch": 55, "duration": 17, "velocity": 76}, {"time": 130, "pitch": 60, "duration": 8, "velocity": 106}, {"time": 136, "pitch": 64, "duration": 3, "velocity": 89}, {"time": 142, "pitch": 60, "duration": 9, "velocity": 85}, {"time": 142, "pitch": 64, "duration": 8, "velocity": 101}, {"time": 142, "pitch": 67, "duration": 8, "velocity": 101}, {"time": 148, "pitch": 55, "duration": 6, "velocity": 25}, {"time": 154, "pitch": 60, "duration": 3, "velocity": 104}, {"time": 154, "pitch": 64, "duration": 2, "velocity": 109}, {"time": 166, "pitch": 50, "duration": 18, "velocity": 106}, {"time": 166, "pitch": 60, "duration": 8, "velocity": 94}, {"time": 166, "pitch": 64, "duration": 13, "velocity": 99}, {"time": 172, "pitch": 57, "duration": 12, "velocity": 87}, {"time": 178, "pitch": 60, "duration": 7, "velocity": 104}, {"time": 184, "pitch": 64, "duration": 2, "velocity": 106}, {"time": 188, "pitch": 50, "duration": 48, "velocity": 96}, {"time": 190, "pitch": 57, "duration": 46, "velocity": 89}, {"time": 191, "pitch": 62, "duration": 45, "velocity": 51}, {"time": 192, "pitch": 66, "duration": 44, "velocity": 93}, {"time": 238, "pitch": 48, "duration": 19, "velocity": 99}, {"time": 238, "pitch": 60, "duration": 7, "velocity": 85}, {"time": 238, "pitch": 67, "duration": 13, "velocity": 99}, {"time": 244, "pitch": 55, "duration": 12, "velocity": 80}, {"time": 250, "pitch": 60, "duration": 8, "velocity": 94}, {"time": 256, "pitch": 67, "duration": 7, "velocity": 104}, {"time": 262, "pitch": 50, "duration": 14, "velocity": 101}, {"time": 262, "pitch": 66, "duration": 13, "velocity": 99}, {"time": 268, "pitch": 57, "duration": 8, "velocity": 85}, {"time": 274, "pitch": 62, "duration": 6, "velocity": 101}, {"time": 286, "pitch": 47, "duration": 42, "velocity": 62}, {"time": 286, "pitch": 59, "duration": 9, "velocity": 82}, {"time": 286, "pitch": 62, "duration": 14, "velocity": 96}, {"time": 292, "pitch": 54, "duration": 7, "velocity": 58}, {"time": 298, "pitch": 59, "duration": 26, "velocity": 104}, {"time": 304, "pitch": 62, "duration": 24, "velocity": 101}, {"time": 322, "pitch": 54, "duration": 4, "velocity": 58}, {"time": 328, "pitch": 59, "duration": 3, "velocity": 106}, {"time": 334, "pitch": 45, "duration": 19, "velocity": 104}, {"time": 334, "pitch": 57, "duration": 8, "velocity": 99}, {"time": 334, "pitch": 60, "duration": 13, "velocity": 96}, {"time": 340, "pitch": 52, "duration": 9, "velocity": 32}, {"time": 346, "pitch": 57, "duration": 7, "velocity": 96}, {"time": 352, "pitch": 60, "duration": 7, "velocity": 87}, {"time": 358, "pitch": 50, "duration": 22, "velocity": 99}, {"time": 358, "pitch": 57, "duration": 4, "velocity": 101}, {"time": 358, "pitch": 62, "duration": 7, "velocity": 101}, {"time": 364, "pitch": 57, "duration": 12, "velocity": 91}, {"time": 370, "pitch": 66, "duration": 6, "velocity": 107}, {"time": 382, "pitch": 43, "duration": 39, "velocity": 101}, {"time": 382, "pitch": 55, "duration": 13, "velocity": 89}, {"time": 382, "pitch": 59, "duration": 9, "velocity": 91}, {"time": 388, "pitch": 50, "duration": 21, "velocity": 74}, {"time": 394, "pitch": 57, "duration": 6, "velocity": 101}, {"time": 400, "pitch": 59, "duration": 5, "velocity": 96}, {"time": 406, "pitch": 55, "duration": 9, "velocity": 104}, {"time": 406, "pitch": 62, "duration": 10, "velocity": 106}, {"time": 412, "pitch": 50, "duration": 8, "velocity": 76}, {"time": 418, "pitch": 55, "duration": 4, "velocity": 106}, {"time": 418, "pitch": 59, "duration": 5, "velocity": 104}, {"time": 430, "pitch": 48, "duration": 16, "velocity": 99}, {"time": 430, "pitch": 60, "duration": 8, "velocity": 87}, {"time": 430, "pitch": 64, "duration": 13, "velocity": 91}, {"time": 436, "pitch": 55, "duration": 10, "velocity": 51}, {"time": 442, "pitch": 60, "duration": 7, "velocity": 96}, {"time": 448, "pitch": 64, "duration": 5, "velocity": 101}, {"time": 454, "pitch": 50, "duration": 16, "velocity": 106}, {"time": 454, "pitch": 62, "duration": 8, "velocity": 104}, {"time": 454, "pitch": 66, "duration": 13, "velocity": 107}, {"time": 460, "pitch": 57, "duration": 10, "velocity": 76}, {"time": 466, "pitch": 62, "duration": 7, "velocity": 104}, {"time": 472, "pitch": 66, "duration": 2, "velocity": 117}, {"time": 478, "pitch": 47, "duration": 16, "velocity": 99}, {"time": 478, "pitch": 59, "duration": 10, "velocity": 94}, {"time": 478, "pitch": 62, "duration": 13, "velocity": 104}, {"time": 484, "pitch": 54, "duration": 8, "velocity": 63}, {"time": 490, "pitch": 59, "duration": 7, "velocity": 96}, {"time": 502, "pitch": 40, "duration": 2, "velocity": 87}, {"time": 502, "pitch": 59, "duration": 4, "velocity": 87}, {"time": 502, "pitch": 64, "duration": 11, "velocity": 87}, {"time": 508, "pitch": 52, "duration": 11, "velocity": 52}, {"time": 514, "pitch": 59, "duration": 4, "velocity": 85}, {"time": 520, "pitch": 64, "duration": 2, "velocity": 112}, {"time": 526, "pitch": 45, "duration": 37, "velocity": 104}, {"time": 526, "pitch": 55, "duration": 8, "velocity": 94}, {"time": 526, "pitch": 60, "duration": 14, "velocity": 82}, {"time": 532, "pitch": 52, "duration": 13, "velocity": 67}, {"time": 538, "pitch": 55, "duration": 21, "velocity": 91}, {"time": 544, "pitch": 60, "duration": 15, "velocity": 101}, {"time": 562, "pitch": 55, "duration": 4, "velocity": 106}, {"time": 562, "pitch": 60, "duration": 5, "velocity": 104}, {"time": 574, "pitch": 50, "duration": 38, "velocity": 106}, {"time": 574, "pitch": 62, "duration": 7, "velocity": 96}, {"time": 574, "pitch": 66, "duration": 8, "velocity": 101}, {"time": 580, "pitch": 57, "duration": 22, "velocity": 82}, {"time": 586, "pitch": 62, "duration": 10, "velocity": 99}, {"time": 592, "pitch": 69, "duration": 13, "velocity": 101}, {"time": 598, "pitch": 62, "duration": 2, "velocity": 64}, {"time": 598, "pitch": 74, "duration": 10, "velocity": 109}, {"time": 610, "pitch": 62, "duration": 3, "velocity": 104}, {"time": 610, "pitch": 66, "duration": 5, "velocity": 110}, {"time": 610, "pitch": 69, "duration": 7, "velocity": 106}, {"time": 616, "pitch": 62, "duration": 2, "velocity": 73}, {"time": 622, "pitch": 48, "duration": 25, "velocity": 99}, {"time": 622, "pitch": 60, "duration": 10, "velocity": 94}, {"time": 622, "pitch": 64, "duration": 9, "velocity": 99}, {"time": 628, "pitch": 55, "duration": 14, "velocity": 61}, {"time": 634, "pitch": 60, "duration": 3, "velocity": 96}, {"time": 634, "pitch": 64, "duration": 9, "velocity": 101}, {"time": 634, "pitch": 67, "duration": 10, "velocity": 101}, {"time": 640, "pitch": 60, "duration": 2, "velocity": 56}, {"time": 646, "pitch": 60, "duration": 10, "velocity": 87}, {"time": 646, "pitch": 64, "duration": 11, "velocity": 99}, {"time": 658, "pitch": 60, "duration": 6, "velocity": 109}, {"time": 658, "pitch": 64, "duration": 6, "velocity": 112}, {"time": 670, "pitch": 47, "duration": 17, "velocity": 96}, {"time": 670, "pitch": 59, "duration": 9, "velocity": 89}, {"time": 670, "pitch": 62, "duration": 9, "velocity": 104}, {"time": 676, "pitch": 54, "duration": 9, "velocity": 50}, {"time": 682, "pitch": 59, "duration": 2, "velocity": 106}, {"time": 682, "pitch": 62, "duration": 6, "velocity": 109}, {"time": 682, "pitch": 66, "duration": 7, "velocity": 113}, {"time": 694, "pitch": 52, "duration": 18, "velocity": 99}, {"time": 694, "pitch": 59, "duration": 8, "velocity": 99}, {"time": 694, "pitch": 64, "duration": 13, "velocity": 101}, {"time": 694, "pitch": 67, "duration": 12, "velocity": 101}, {"time": 703, "pitch": 55, "duration": 9, "velocity": 9}, {"time": 706, "pitch": 59, "duration": 7, "velocity": 112}, {"time": 712, "pitch": 67, "duration": 2, "velocity": 109}, {"time": 718, "pitch": 45, "duration": 14, "velocity": 104}, {"time": 718, "pitch": 55, "duration": 8, "velocity": 104}, {"time": 718, "pitch": 60, "duration": 12, "velocity": 99}, {"time": 724, "pitch": 52, "duration": 8, "velocity": 71}, {"time": 730, "pitch": 55, "duration": 7, "velocity": 115}, {"time": 736, "pitch": 60, "duration": 4, "velocity": 101}, {"time": 742, "pitch": 50, "duration": 14, "velocity": 109}, {"time": 742, "pitch": 62, "duration": 9, "velocity": 99}, {"time": 742, "pitch": 66, "duration": 10, "velocity": 101}, {"time": 748, "pitch": 57, "duration": 7, "velocity": 87}, {"time": 754, "pitch": 62, "duration": 4, "velocity": 109}, {"time": 754, "pitch": 66, "duration": 3, "velocity": 117}, {"time": 766, "pitch": 43, "duration": 21, "velocity": 101}, {"time": 766, "pitch": 62, "duration": 8, "velocity": 99}, {"time": 766, "pitch": 67, "duration": 10, "velocity": 96}, {"time": 772, "pitch": 50, "duration": 14, "velocity": 62}, {"time": 778, "pitch": 62, "duration": 7, "velocity": 104}, {"time": 784, "pitch": 69, "duration": 3, "velocity": 104}, {"time": 790, "pitch": 43, "duration": 16, "velocity": 104}, {"time": 790, "pitch": 62, "duration": 10, "velocity": 106}, {"time": 790, "pitch": 71, "duration": 18, "velocity": 104}, {"time": 796, "pitch": 50, "duration": 10, "velocity": 66}, {"time": 802, "pitch": 62, "duration": 6, "velocity": 112}, {"time": 802, "pitch": 67, "duration": 5, "velocity": 109}, {"time": 814, "pitch": 48, "duration": 15, "velocity": 101}, {"time": 814, "pitch": 60, "duration": 9, "velocity": 94}, {"time": 814, "pitch": 64, "duration": 8, "velocity": 99}, {"time": 820, "pitch": 55, "duration": 8, "velocity": 78}, {"time": 826, "pitch": 60, "duration": 2, "velocity": 109}, {"time": 826, "pitch": 64, "duration": 6, "velocity": 112}, {"time": 826, "pitch": 67, "duration": 13, "velocity": 106}, {"time": 838, "pitch": 50, "duration": 14, "velocity": 104}, {"time": 838, "pitch": 62, "duration": 7, "velocity": 99}, {"time": 838, "pitch": 66, "duration": 13, "velocity": 110}, {"time": 844, "pitch": 57, "duration": 8, "velocity": 91}, {"time": 850, "pitch": 62, "duration": 5, "velocity": 112}, {"time": 862, "pitch": 47, "duration": 14, "velocity": 96}, {"time": 862, "pitch": 57, "duration": 9, "velocity": 106}, {"time": 862, "pitch": 62, "duration": 9, "velocity": 106}, {"time": 868, "pitch": 54, "duration": 8, "velocity": 27}, {"time": 874, "pitch": 57, "duration": 3, "velocity": 99}, {"time": 874, "pitch": 62, "duration": 4, "velocity": 112}, {"time": 874, "pitch": 66, "duration": 5, "velocity": 117}, {"time": 886, "pitch": 52, "duration": 15, "velocity": 106}, {"time": 886, "pitch": 62, "duration": 8, "velocity": 104}, {"time": 886, "pitch": 67, "duration": 9, "velocity": 101}, {"time": 892, "pitch": 59, "duration": 8, "velocity": 89}, {"time": 898, "pitch": 67, "duration": 7, "velocity": 109}, {"time": 898, "pitch": 71, "duration": 7, "velocity": 106}, {"time": 904, "pitch": 64, "duration": 2, "velocity": 104}, {"time": 910, "pitch": 45, "duration": 14, "velocity": 104}, {"time": 910, "pitch": 55, "duration": 9, "velocity": 99}, {"time": 910, "pitch": 60, "duration": 9, "velocity": 96}, {"time": 916, "pitch": 52, "duration": 7, "velocity": 69}, {"time": 922, "pitch": 55, "duration": 3, "velocity": 115}, {"time": 922, "pitch": 60, "duration": 4, "velocity": 112}, {"time": 934, "pitch": 42, "duration": 13, "velocity": 107}, {"time": 934, "pitch": 57, "duration": 10, "velocity": 106}, {"time": 934, "pitch": 60, "duration": 10, "velocity": 104}, {"time": 934, "pitch": 64, "duration": 9, "velocity": 104}, {"time": 946, "pitch": 57, "duration": 3, "velocity": 109}, {"time": 946, "pitch": 60, "duration": 3, "velocity": 106}, {"time": 946, "pitch": 64, "duration": 4, "velocity": 106}, {"time": 958, "pitch": 47, "duration": 21, "velocity": 104}, {"time": 958, "pitch": 59, "duration": 9, "velocity": 101}, {"time": 958, "pitch": 63, "duration": 8, "velocity": 113}, {"time": 964, "pitch": 54, "duration": 7, "velocity": 68}, {"time": 970, "pitch": 59, "duration": 6, "velocity": 109}, {"time": 970, "pitch": 64, "duration": 5, "velocity": 112}, {"time": 976, "pitch": 54, "duration": 6, "velocity": 77}, {"time": 982, "pitch": 47, "duration": 20, "velocity": 104}, {"time": 982, "pitch": 59, "duration": 10, "velocity": 104}, {"time": 982, "pitch": 63, "duration": 7, "velocity": 110}, {"time": 982, "pitch": 66, "duration": 6, "velocity": 104}, {"time": 988, "pitch": 54, "duration": 8, "velocity": 36}, {"time": 994, "pitch": 59, "duration": 2, "velocity": 101}, {"time": 994, "pitch": 63, "duration": 13, "velocity": 120}, {"time": 994, "pitch": 66, "duration": 13, "velocity": 113}, {"time": 994, "pitch": 71, "duration": 14, "velocity": 96}, {"time": 1000, "pitch": 59, "duration": 7, "velocity": 96}, {"time": 1006, "pitch": 43, "duration": 17, "velocity": 101}, {"time": 1006, "pitch": 55, "duration": 8, "velocity": 96}, {"time": 1006, "pitch": 59, "duration": 1, "velocity": 94}, {"time": 1006, "pitch": 62, "duration": 8, "velocity": 104}, {"time": 1012, "pitch": 50, "duration": 8, "velocity": 50}, {"time": 1018, "pitch": 55, "duration": 4, "velocity": 112}, {"time": 1018, "pitch": 59, "duration": 4, "velocity": 115}, {"time": 1018, "pitch": 62, "duration": 5, "velocity": 112}, {"time": 1030, "pitch": 42, "duration": 14, "velocity": 113}, {"time": 1030, "pitch": 57, "duration": 5, "velocity": 106}, {"time": 1030, "pitch": 60, "duration": 8, "velocity": 101}, {"time": 1036, "pitch": 57, "duration": 4, "velocity": 101}, {"time": 1042, "pitch": 57, "duration": 3, "velocity": 106}, {"time": 1042, "pitch": 60, "duration": 7, "velocity": 106}, {"time": 1042, "pitch": 64, "duration": 8, "velocity": 101}, {"time": 1054, "pitch": 40, "duration": 17, "velocity": 101}, {"time": 1054, "pitch": 52, "duration": 9, "velocity": 94}, {"time": 1054, "pitch": 55, "duration": 7, "velocity": 101}, {"time": 1060, "pitch": 47, "duration": 6, "velocity": 34}, {"time": 1066, "pitch": 55, "duration": 3, "velocity": 112}, {"time": 1066, "pitch": 59, "duration": 3, "velocity": 104}, {"time": 1072, "pitch": 52, "duration": 7, "velocity": 47}, {"time": 1078, "pitch": 55, "duration": 6, "velocity": 109}, {"time": 1078, "pitch": 59, "duration": 7, "velocity": 109}, {"time": 1078, "pitch": 64, "duration": 7, "velocity": 106}, {"time": 1090, "pitch": 40, "duration": 7, "velocity": 99}, {"time": 1090, "pitch": 55, "duration": 6, "velocity": 109}, {"time": 1090, "pitch": 59, "duration": 7, "velocity": 106}, {"time": 1096, "pitch": 52, "duration": 2, "velocity": 104}, {"time": 1102, "pitch": 48, "duration": 14, "velocity": 106}, {"time": 1102, "pitch": 55, "duration": 8, "velocity": 104}, {"time": 1102, "pitch": 60, "duration": 8, "velocity": 99}, {"time": 1108, "pitch": 52, "duration": 8, "velocity": 76}, {"time": 1114, "pitch": 55, "duration": 2, "velocity": 112}, {"time": 1114, "pitch": 60, "duration": 7, "velocity": 109}, {"time": 1114, "pitch": 64, "duration": 8, "velocity": 106}, {"time": 1120, "pitch": 55, "duration": 2, "velocity": 99}, {"time": 1126, "pitch": 50, "duration": 13, "velocity": 104}, {"time": 1126, "pitch": 57, "duration": 4, "velocity": 99}, {"time": 1126, "pitch": 62, "duration": 9, "velocity": 99}, {"time": 1132, "pitch": 57, "duration": 3, "velocity": 91}, {"time": 1138, "pitch": 57, "duration": 2, "velocity": 109}, {"time": 1138, "pitch": 62, "duration": 5, "velocity": 112}, {"time": 1138, "pitch": 66, "duration": 5, "velocity": 117}, {"time": 1150, "pitch": 43, "duration": 18, "velocity": 104}, {"time": 1150, "pitch": 55, "duration": 8, "velocity": 104}, {"time": 1150, "pitch": 59, "duration": 8, "velocity": 109}, {"time": 1156, "pitch": 50, "duration": 7, "velocity": 74}, {"time": 1162, "pitch": 55, "duration": 3, "velocity": 112}, {"time": 1162, "pitch": 59, "duration": 6, "velocity": 115}, {"time": 1162, "pitch": 62, "duration": 11, "velocity": 112}, {"time": 1168, "pitch": 55, "duration": 4, "velocity": 106}, {"time": 1174, "pitch": 55, "duration": 8, "velocity": 112}, {"time": 1174, "pitch": 60, "duration": 10, "velocity": 109}, {"time": 1180, "pitch": 43, "duration": 14, "velocity": 99}, {"time": 1186, "pitch": 55, "duration": 7, "velocity": 112}, {"time": 1186, "pitch": 59, "duration": 7, "velocity": 112}, {"time": 1192, "pitch": 50, "duration": 2, "velocity": 87}, {"time": 1198, "pitch": 42, "duration": 14, "velocity": 117}, {"time": 1198, "pitch": 57, "duration": 5, "velocity": 106}, {"time": 1198, "pitch": 60, "duration": 7, "velocity": 109}, {"time": 1204, "pitch": 57, "duration": 4, "velocity": 106}, {"time": 1210, "pitch": 57, "duration": 3, "velocity": 115}, {"time": 1210, "pitch": 60, "duration": 5, "velocity": 115}, {"time": 1210, "pitch": 64, "duration": 6, "velocity": 112}, {"time": 1222, "pitch": 47, "duration": 14, "velocity": 104}, {"time": 1222, "pitch": 59, "duration": 8, "velocity": 106}, {"time": 1222, "pitch": 63, "duration": 8, "velocity": 113}, {"time": 1228, "pitch": 54, "duration": 7, "velocity": 81}, {"time": 1234, "pitch": 59, "duration": 4, "velocity": 109}, {"time": 1234, "pitch": 63, "duration": 5, "velocity": 120}, {"time": 1234, "pitch": 66, "duration": 5, "velocity": 117}, {"time": 1240, "pitch": 47, "duration": 2, "velocity": 89}, {"time": 1246, "pitch": 52, "duration": 9, "velocity": 104}, {"time": 1246, "pitch": 64, "duration": 5, "velocity": 104}, {"time": 1246, "pitch": 67, "duration": 6, "velocity": 106}, {"time": 1252, "pitch": 59, "duration": 5, "velocity": 82}, {"time": 1258, "pitch": 50, "duration": 8, "velocity": 104}, {"time": 1258, "pitch": 62, "duration": 5, "velocity": 106}, {"time": 1258, "pitch": 66, "duration": 5, "velocity": 110}, {"time": 1264, "pitch": 57, "duration": 2, "velocity": 34}, {"time": 1270, "pitch": 49, "duration": 20, "velocity": 101}, {"time": 1270, "pitch": 61, "duration": 10, "velocity": 104}, {"time": 1270, "pitch": 64, "duration": 7, "velocity": 106}, {"time": 1282, "pitch": 61, "duration": 6, "velocity": 99}, {"time": 1282, "pitch": 64, "duration": 6, "velocity": 104}, {"time": 1282, "pitch": 67, "duration": 8, "velocity": 104}, {"time": 1294, "pitch": 45, "duration": 21, "velocity": 106}, {"time": 1294, "pitch": 57, "duration": 9, "velocity": 96}, {"time": 1294, "pitch": 60, "duration": 10, "velocity": 96}, {"time": 1300, "pitch": 52, "duration": 7, "velocity": 64}, {"time": 1306, "pitch": 57, "duration": 9, "velocity": 106}, {"time": 1306, "pitch": 60, "duration": 6, "velocity": 101}, {"time": 1318, "pitch": 60, "duration": 7, "velocity": 104}, {"time": 1318, "pitch": 64, "duration": 6, "velocity": 101}, {"time": 1330, "pitch": 57, "duration": 3, "velocity": 115}, {"time": 1330, "pitch": 60, "duration": 6, "velocity": 112}, {"time": 1330, "pitch": 64, "duration": 6, "velocity": 109}, {"time": 1336, "pitch": 57, "duration": 3, "velocity": 96}, {"time": 1342, "pitch": 38, "duration": 2, "velocity": 106}, {"time": 1342, "pitch": 57, "duration": 5, "velocity": 104}, {"time": 1342, "pitch": 62, "duration": 6, "velocity": 106}, {"time": 1348, "pitch": 50, "duration": 17, "velocity": 96}, {"time": 1354, "pitch": 57, "duration": 10, "velocity": 115}, {"time": 1357, "pitch": 62, "duration": 5, "velocity": 115}, {"time": 1360, "pitch": 66, "duration": 4, "velocity": 120}, {"time": 1363, "pitch": 69, "duration": 2, "velocity": 106}, {"time": 1366, "pitch": 38, "duration": 1, "velocity": 106}, {"time": 1366, "pitch": 57, "duration": 5, "velocity": 106}, {"time": 1366, "pitch": 62, "duration": 5, "velocity": 109}, {"time": 1372, "pitch": 50, "duration": 3, "velocity": 99}, {"time": 1378, "pitch": 50, "duration": 11, "velocity": 106}, {"time": 1378, "pitch": 57, "duration": 11, "velocity": 106}, {"time": 1378, "pitch": 62, "duration": 11, "velocity": 109}, {"time": 1378, "pitch": 66, "duration": 11, "velocity": 120}, {"time": 1378, "pitch": 69, "duration": 11, "velocity": 109}, {"time": 1390, "pitch": 43, "duration": 17, "velocity": 101}, {"time": 1390, "pitch": 55, "duration": 8, "velocity": 96}, {"time": 1390, "pitch": 59, "duration": 8, "velocity": 94}, {"time": 1390, "pitch": 62, "duration": 8, "velocity": 104}, {"time": 1396, "pitch": 50, "duration": 8, "velocity": 50}, {"time": 1402, "pitch": 55, "duration": 11, "velocity": 112}, {"time": 1402, "pitch": 59, "duration": 11, "velocity": 115}, {"time": 1402, "pitch": 62, "duration": 12, "velocity": 112}, {"time": 1414, "pitch": 42, "duration": 14, "velocity": 113}, {"time": 1414, "pitch": 57, "duration": 5, "velocity": 106}, {"time": 1414, "pitch": 60, "duration": 8, "velocity": 101}, {"time": 1420, "pitch": 57, "duration": 4, "velocity": 101}, {"time": 1426, "pitch": 57, "duration": 3, "velocity": 106}, {"time": 1426, "pitch": 60, "duration": 7, "velocity": 106}, {"time": 1426, "pitch": 64, "duration": 8, "velocity": 101}, {"time": 1438, "pitch": 40, "duration": 17, "velocity": 101}, {"time": 1438, "pitch": 52, "duration": 9, "velocity": 94}, {"time": 1438, "pitch": 55, "duration": 7, "velocity": 101}, {"time": 1444, "pitch": 47, "duration": 6, "velocity": 34}, {"time": 1450, "pitch": 55, "duration": 3, "velocity": 112}, {"time": 1450, "pitch": 59, "duration": 3, "velocity": 104}, {"time": 1456, "pitch": 52, "duration": 7, "velocity": 47}, {"time": 1462, "pitch": 55, "duration": 6, "velocity": 109}, {"time": 1462, "pitch": 59, "duration": 7, "velocity": 109}, {"time": 1462, "pitch": 64, "duration": 7, "velocity": 106}, {"time": 1474, "pitch": 40, "duration": 7, "velocity": 99}, {"time": 1474, "pitch": 55, "duration": 6, "velocity": 109}, {"time": 1474, "pitch": 59, "duration": 7, "velocity": 106}, {"time": 1480, "pitch": 52, "duration": 2, "velocity": 104}, {"time": 1486, "pitch": 48, "duration": 14, "velocity": 106}, {"time": 1486, "pitch": 55, "duration": 8, "velocity": 104}, {"time": 1486, "pitch": 60, "duration": 8, "velocity": 99}, {"time": 1492, "pitch": 52, "duration": 8, "velocity": 76}, {"time": 1498, "pitch": 55, "duration": 2, "velocity": 112}, {"time": 1498, "pitch": 60, "duration": 7, "velocity": 109}, {"time": 1498, "pitch": 64, "duration": 8, "velocity": 106}, {"time": 1504, "pitch": 55, "duration": 2, "velocity": 99}, {"time": 1510, "pitch": 50, "duration": 13, "velocity": 104}, {"time": 1510, "pitch": 57, "duration": 4, "velocity": 99}, {"time": 1510, "pitch": 62, "duration": 9, "velocity": 99}, {"time": 1516, "pitch": 57, "duration": 3, "velocity": 91}, {"time": 1522, "pitch": 57, "duration": 2, "velocity": 109}, {"time": 1522, "pitch": 62, "duration": 5, "velocity": 112}, {"time": 1522, "pitch": 66, "duration": 5, "velocity": 117}, {"time": 1534, "pitch": 43, "duration": 18, "velocity": 104}, {"time": 1534, "pitch": 55, "duration": 8, "velocity": 104}, {"time": 1534, "pitch": 59, "duration": 8, "velocity": 109}, {"time": 1540, "pitch": 50, "duration": 7, "velocity": 74}, {"time": 1546, "pitch": 55, "duration": 3, "velocity": 112}, {"time": 1546, "pitch": 59, "duration": 6, "velocity": 115}, {"time": 1546, "pitch": 62, "duration": 11, "velocity": 112}, {"time": 1552, "pitch": 55, "duration": 4, "velocity": 106}, {"time": 1558, "pitch": 55, "duration": 8, "velocity": 112}, {"time": 1558, "pitch": 60, "duration": 10, "velocity": 109}, {"time": 1564, "pitch": 43, "duration": 14, "velocity": 99}, {"time": 1570, "pitch": 55, "duration": 7, "velocity": 112}, {"time": 1570, "pitch": 59, "duration": 7, "velocity": 112}, {"time": 1576, "pitch": 50, "duration": 2, "velocity": 87}, {"time": 1582, "pitch": 42, "duration": 14, "velocity": 117}, {"time": 1582, "pitch": 57, "duration": 5, "velocity": 106}, {"time": 1582, "pitch": 60, "duration": 7, "velocity": 109}, {"time": 1588, "pitch": 57, "duration": 4, "velocity": 106}, {"time": 1594, "pitch": 57, "duration": 3, "velocity": 115}, {"time": 1594, "pitch": 60, "duration": 5, "velocity": 115}, {"time": 1594, "pitch": 64, "duration": 6, "velocity": 112}, {"time": 1606, "pitch": 47, "duration": 14, "velocity": 104}, {"time": 1606, "pitch": 59, "duration": 8, "velocity": 106}, {"time": 1606, "pitch": 63, "duration": 8, "velocity": 113}, {"time": 1612, "pitch": 54, "duration": 7, "velocity": 81}, {"time": 1618, "pitch": 59, "duration": 4, "velocity": 109}, {"time": 1618, "pitch": 63, "duration": 5, "velocity": 120}, {"time": 1618, "pitch": 66, "duration": 5, "velocity": 117}, {"time": 1624, "pitch": 47, "duration": 2, "velocity": 89}, {"time": 1630, "pitch": 52, "duration": 9, "velocity": 104}, {"time": 1630, "pitch": 64, "duration": 5, "velocity": 104}, {"time": 1630, "pitch": 67, "duration": 6, "velocity": 106}, {"time": 1636, "pitch": 59, "duration": 5, "velocity": 82}, {"time": 1642, "pitch": 50, "duration": 8, "velocity": 104}, {"time": 1642, "pitch": 62, "duration": 5, "velocity": 106}, {"time": 1642, "pitch": 66, "duration": 5, "velocity": 110}, {"time": 1648, "pitch": 57, "duration": 2, "velocity": 34}, {"time": 1654, "pitch": 49, "duration": 20, "velocity": 101}, {"time": 1654, "pitch": 61, "duration": 10, "velocity": 104}, {"time": 1654, "pitch": 64, "duration": 7, "velocity": 106}, {"time": 1666, "pitch": 61, "duration": 6, "velocity": 99}, {"time": 1666, "pitch": 64, "duration": 6, "velocity": 104}, {"time": 1666, "pitch": 67, "duration": 8, "velocity": 104}, {"time": 1678, "pitch": 45, "duration": 21, "velocity": 106}, {"time": 1678, "pitch": 57, "duration": 9, "velocity": 96}, {"time": 1678, "pitch": 60, "duration": 10, "velocity": 96}, {"time": 1684, "pitch": 52, "duration": 7, "velocity": 64}, {"time": 1690, "pitch": 57, "duration": 9, "velocity": 106}, {"time": 1690, "pitch": 60, "duration": 6, "velocity": 101}, {"time": 1702, "pitch": 60, "duration": 7, "velocity": 104}, {"time": 1702, "pitch": 64, "duration": 6, "velocity": 101}, {"time": 1714, "pitch": 57, "duration": 3, "velocity": 115}, {"time": 1714, "pitch": 60, "duration": 6, "velocity": 112}, {"time": 1714, "pitch": 64, "duration": 6, "velocity": 109}, {"time": 1720, "pitch": 57, "duration": 3, "velocity": 96}, {"time": 1726, "pitch": 38, "duration": 2, "velocity": 106}, {"time": 1726, "pitch": 57, "duration": 5, "velocity": 104}, {"time": 1726, "pitch": 62, "duration": 6, "velocity": 106}, {"time": 1732, "pitch": 50, "duration": 17, "velocity": 96}, {"time": 1738, "pitch": 57, "duration": 10, "velocity": 115}, {"time": 1741, "pitch": 62, "duration": 5, "velocity": 115}, {"time": 1744, "pitch": 66, "duration": 4, "velocity": 120}, {"time": 1747, "pitch": 69, "duration": 2, "velocity": 106}, {"time": 1750, "pitch": 38, "duration": 20, "velocity": 104}, {"time": 1750, "pitch": 62, "duration": 28, "velocity": 104}, {"time": 1750, "pitch": 66, "duration": 29, "velocity": 104}, {"time": 1750, "pitch": 69, "duration": 29, "velocity": 104}, {"time": 1798, "pitch": 48, "duration": 30, "velocity": 104}, {"time": 1798, "pitch": 60, "duration": 10, "velocity": 94}, {"time": 1798, "pitch": 64, "duration": 14, "velocity": 101}, {"time": 1804, "pitch": 55, "duration": 8, "velocity": 69}, {"time": 1810, "pitch": 60, "duration": 8, "velocity": 106}, {"time": 1816, "pitch": 55, "duration": 8, "velocity": 55}, {"time": 1822, "pitch": 60, "duration": 6, "velocity": 94}, {"time": 1822, "pitch": 67, "duration": 11, "velocity": 96}, {"time": 1834, "pitch": 50, "duration": 5, "velocity": 99}, {"time": 1834, "pitch": 62, "duration": 5, "velocity": 104}, {"time": 1834, "pitch": 66, "duration": 4, "velocity": 104}, {"time": 1846, "pitch": 47, "duration": 37, "velocity": 96}, {"time": 1846, "pitch": 59, "duration": 8, "velocity": 94}, {"time": 1846, "pitch": 62, "duration": 13, "velocity": 101}, {"time": 1852, "pitch": 54, "duration": 7, "velocity": 49}, {"time": 1858, "pitch": 59, "duration": 8, "velocity": 96}, {"time": 1864, "pitch": 54, "duration": 7, "velocity": 39}, {"time": 1870, "pitch": 66, "duration": 11, "velocity": 117}, {"time": 1876, "pitch": 54, "duration": 6, "velocity": 44}, {"time": 1882, "pitch": 59, "duration": 3, "velocity": 109}, {"time": 1882, "pitch": 62, "duration": 3, "velocity": 109}, {"time": 1894, "pitch": 40, "duration": 2, "velocity": 101}, {"time": 1894, "pitch": 59, "duration": 4, "velocity": 99}, {"time": 1894, "pitch": 64, "duration": 6, "velocity": 101}, {"time": 1900, "pitch": 52, "duration": 26, "velocity": 80}, {"time": 1906, "pitch": 59, "duration": 15, "velocity": 106}, {"time": 1912, "pitch": 64, "duration": 10, "velocity": 112}, {"time": 1918, "pitch": 67, "duration": 11, "velocity": 112}, {"time": 1924, "pitch": 59, "duration": 6, "velocity": 82}, {"time": 1930, "pitch": 50, "duration": 4, "velocity": 78}, {"time": 1930, "pitch": 62, "duration": 4, "velocity": 109}, {"time": 1930, "pitch": 66, "duration": 4, "velocity": 104}, {"time": 1942, "pitch": 36, "duration": 78, "velocity": 96}, {"time": 1942, "pitch": 60, "duration": 17, "velocity": 99}, {"time": 1942, "pitch": 64, "duration": 9, "velocity": 104}, {"time": 1948, "pitch": 48, "duration": 72, "velocity": 51}, {"time": 1954, "pitch": 55, "duration": 46, "velocity": 96}, {"time": 1960, "pitch": 62, "duration": 4, "velocity": 106}, {"time": 1966, "pitch": 60, "duration": 57, "velocity": 96}, {"time": 1966, "pitch": 67, "duration": 57, "velocity": 99}, {"time": 2026, "pitch": 48, "duration": 25, "velocity": 99}, {"time": 2026, "pitch": 60, "duration": 10, "velocity": 94}, {"time": 2026, "pitch": 64, "duration": 9, "velocity": 99}, {"time": 2032, "pitch": 55, "duration": 14, "velocity": 61}, {"time": 2038, "pitch": 60, "duration": 3, "velocity": 96}, {"time": 2038, "pitch": 64, "duration": 9, "velocity": 101}, {"time": 2038, "pitch": 67, "duration": 10, "velocity": 101}, {"time": 2044, "pitch": 60, "duration": 2, "velocity": 56}, {"time": 2050, "pitch": 60, "duration": 10, "velocity": 87}, {"time": 2050, "pitch": 64, "duration": 11, "velocity": 99}, {"time": 2062, "pitch": 60, "duration": 6, "velocity": 109}, {"time": 2062, "pitch": 64, "duration": 6, "velocity": 112}, {"time": 2074, "pitch": 47, "duration": 17, "velocity": 96}, {"time": 2074, "pitch": 59, "duration": 9, "velocity": 89}, {"time": 2074, "pitch": 62, "duration": 9, "velocity": 104}, {"time": 2080, "pitch": 54, "duration": 9, "velocity": 50}, {"time": 2086, "pitch": 59, "duration": 2, "velocity": 106}, {"time": 2086, "pitch": 62, "duration": 6, "velocity": 109}, {"time": 2086, "pitch": 66, "duration": 7, "velocity": 113}, {"time": 2098, "pitch": 52, "duration": 18, "velocity": 99}, {"time": 2098, "pitch": 59, "duration": 8, "velocity": 99}, {"time": 2098, "pitch": 64, "duration": 13, "velocity": 101}, {"time": 2098, "pitch": 67, "duration": 12, "velocity": 101}, {"time": 2107, "pitch": 55, "duration": 9, "velocity": 9}, {"time": 2110, "pitch": 59, "duration": 7, "velocity": 112}, {"time": 2116, "pitch": 67, "duration": 2, "velocity": 109}, {"time": 2122, "pitch": 45, "duration": 14, "velocity": 104}, {"time": 2122, "pitch": 55, "duration": 8, "velocity": 104}, {"time": 2122, "pitch": 60, "duration": 12, "velocity": 99}, {"time": 2128, "pitch": 52, "duration": 8, "velocity": 71}, {"time": 2134, "pitch": 55, "duration": 7, "velocity": 115}, {"time": 2140, "pitch": 60, "duration": 4, "velocity": 101}, {"time": 2146, "pitch": 50, "duration": 14, "velocity": 109}, {"time": 2146, "pitch": 62, "duration": 9, "velocity": 99}, {"time": 2146, "pitch": 66, "duration": 10, "velocity": 101}, {"time": 2152, "pitch": 57, "duration": 7, "velocity": 87}, {"time": 2158, "pitch": 62, "duration": 4, "velocity": 109}, {"time": 2158, "pitch": 66, "duration": 3, "velocity": 117}, {"time": 2170, "pitch": 43, "duration": 21, "velocity": 101}, {"time": 2170, "pitch": 62, "duration": 8, "velocity": 99}, {"time": 2170, "pitch": 67, "duration": 10, "velocity": 96}, {"time": 2176, "pitch": 50, "duration": 14, "velocity": 62}, {"time": 2182, "pitch": 62, "duration": 7, "velocity": 104}, {"time": 2188, "pitch": 69, "duration": 3, "velocity": 104}, {"time": 2194, "pitch": 43, "duration": 16, "velocity": 104}, {"time": 2194, "pitch": 62, "duration": 10, "velocity": 106}, {"time": 2194, "pitch": 71, "duration": 18, "velocity": 104}, {"time": 2200, "pitch": 50, "duration": 10, "velocity": 66}, {"time": 2206, "pitch": 62, "duration": 6, "velocity": 112}, {"time": 2206, "pitch": 67, "duration": 5, "velocity": 109}, {"time": 2218, "pitch": 48, "duration": 15, "velocity": 101}, {"time": 2218, "pitch": 60, "duration": 9, "velocity": 94}, {"time": 2218, "pitch": 64, "duration": 8, "velocity": 99}, {"time": 2224, "pitch": 55, "duration": 8, "velocity": 78}, {"time": 2230, "pitch": 60, "duration": 2, "velocity": 109}, {"time": 2230, "pitch": 64, "duration": 6, "velocity": 112}, {"time": 2230, "pitch": 67, "duration": 13, "velocity": 106}, {"time": 2242, "pitch": 50, "duration": 14, "velocity": 104}, {"time": 2242, "pitch": 62, "duration": 7, "velocity": 99}, {"time": 2242, "pitch": 66, "duration": 13, "velocity": 110}, {"time": 2248, "pitch": 57, "duration": 8, "velocity": 91}, {"time": 2254, "pitch": 62, "duration": 5, "velocity": 112}, {"time": 2266, "pitch": 47, "duration": 14, "velocity": 96}, {"time": 2266, "pitch": 57, "duration": 9, "velocity": 106}, {"time": 2266, "pitch": 62, "duration": 9, "velocity": 106}, {"time": 2272, "pitch": 54, "duration": 8, "velocity": 27}, {"time": 2278, "pitch": 57, "duration": 3, "velocity": 99}, {"time": 2278, "pitch": 62, "duration": 4, "velocity": 112}, {"time": 2278, "pitch": 66, "duration": 5, "velocity": 117}, {"time": 2290, "pitch": 52, "duration": 15, "velocity": 106}, {"time": 2290, "pitch": 62, "duration": 8, "velocity": 104}, {"time": 2290, "pitch": 67, "duration": 9, "velocity": 101}, {"time": 2296, "pitch": 59, "duration": 8, "velocity": 89}, {"time": 2302, "pitch": 67, "duration": 7, "velocity": 109}, {"time": 2302, "pitch": 71, "duration": 7, "velocity": 106}, {"time": 2308, "pitch": 64, "duration": 2, "velocity": 104}, {"time": 2314, "pitch": 45, "duration": 14, "velocity": 104}, {"time": 2314, "pitch": 55, "duration": 9, "velocity": 99}, {"time": 2314, "pitch": 60, "duration": 9, "velocity": 96}, {"time": 2320, "pitch": 52, "duration": 7, "velocity": 69}, {"time": 2326, "pitch": 55, "duration": 3, "velocity": 115}, {"time": 2326, "pitch": 60, "duration": 4, "velocity": 112}, {"time": 2338, "pitch": 42, "duration": 13, "velocity": 107}, {"time": 2338, "pitch": 57, "duration": 10, "velocity": 106}, {"time": 2338, "pitch": 60, "duration": 10, "velocity": 104}, {"time": 2338, "pitch": 64, "duration": 9, "velocity": 104}, {"time": 2350, "pitch": 57, "duration": 3, "velocity": 109}, {"time": 2350, "pitch": 60, "duration": 3, "velocity": 106}, {"time": 2350, "pitch": 64, "duration": 4, "velocity": 106}, {"time": 2362, "pitch": 47, "duration": 21, "velocity": 104}, {"time": 2362, "pitch": 59, "duration": 9, "velocity": 101}, {"time": 2362, "pitch": 63, "duration": 8, "velocity": 113}, {"time": 2368, "pitch": 54, "duration": 7, "velocity": 68}, {"time": 2374, "pitch": 59, "duration": 6, "velocity": 109}, {"time": 2374, "pitch": 64, "duration": 5, "velocity": 112}, {"time": 2380, "pitch": 54, "duration": 6, "velocity": 77}, {"time": 2386, "pitch": 47, "duration": 20, "velocity": 104}, {"time": 2386, "pitch": 59, "duration": 10, "velocity": 104}, {"time": 2386, "pitch": 63, "duration": 7, "velocity": 110}, {"time": 2386, "pitch": 66, "duration": 6, "velocity": 104}, {"time": 2392, "pitch": 54, "duration": 8, "velocity": 36}, {"time": 2398, "pitch": 59, "duration": 2, "velocity": 101}, {"time": 2398, "pitch": 63, "duration": 13, "velocity": 120}, {"time": 2398, "pitch": 66, "duration": 13, "velocity": 113}, {"time": 2398, "pitch": 71, "duration": 14, "velocity": 96}, {"time": 2404, "pitch": 59, "duration": 7, "velocity": 96}, {"time": 2410, "pitch": 43, "duration": 17, "velocity": 101}, {"time": 2410, "pitch": 55, "duration": 8, "velocity": 96}, {"time": 2410, "pitch": 59, "duration": 1, "velocity": 94}, {"time": 2410, "pitch": 62, "duration": 8, "velocity": 104}, {"time": 2416, "pitch": 50, "duration": 8, "velocity": 50}, {"time": 2422, "pitch": 55, "duration": 4, "velocity": 112}, {"time": 2422, "pitch": 59, "duration": 4, "velocity": 115}, {"time": 2422, "pitch": 62, "duration": 5, "velocity": 112}, {"time": 2434, "pitch": 42, "duration": 14, "velocity": 113}, {"time": 2434, "pitch": 57, "duration": 5, "velocity": 106}, {"time": 2434, "pitch": 60, "duration": 8, "velocity": 101}, {"time": 2440, "pitch": 57, "duration": 4, "velocity": 101}, {"time": 2446, "pitch": 57, "duration": 3, "velocity": 106}, {"time": 2446, "pitch": 60, "duration": 7, "velocity": 106}, {"time": 2446, "pitch": 64, "duration": 8, "velocity": 101}, {"time": 2458, "pitch": 40, "duration": 17, "velocity": 101}, {"time": 2458, "pitch": 52, "duration": 9, "velocity": 94}, {"time": 2458, "pitch": 55, "duration": 7, "velocity": 101}, {"time": 2464, "pitch": 47, "duration": 6, "velocity": 34}, {"time": 2470, "pitch": 55, "duration": 3, "velocity": 112}, {"time": 2470, "pitch": 59, "duration": 3, "velocity": 104}, {"time": 2476, "pitch": 52, "duration": 7, "velocity": 47}, {"time": 2482, "pitch": 55, "duration": 6, "velocity": 109}, {"time": 2482, "pitch": 59, "duration": 7, "velocity": 109}, {"time": 2482, "pitch": 64, "duration": 7, "velocity": 106}, {"time": 2494, "pitch": 40, "duration": 7, "velocity": 99}, {"time": 2494, "pitch": 55, "duration": 6, "velocity": 109}, {"time": 2494, "pitch": 59, "duration": 7, "velocity": 106}, {"time": 2500, "pitch": 52, "duration": 2, "velocity": 104}, {"time": 2506, "pitch": 48, "duration": 14, "velocity": 106}, {"time": 2506, "pitch": 55, "duration": 8, "velocity": 104}, {"time": 2506, "pitch": 60, "duration": 8, "velocity": 99}, {"time": 2512, "pitch": 52, "duration": 8, "velocity": 76}, {"time": 2518, "pitch": 55, "duration": 2, "velocity": 112}, {"time": 2518, "pitch": 60, "duration": 7, "velocity": 109}, {"time": 2518, "pitch": 64, "duration": 8, "velocity": 106}, {"time": 2524, "pitch": 55, "duration": 2, "velocity": 99}, {"time": 2530, "pitch": 50, "duration": 13, "velocity": 104}, {"time": 2530, "pitch": 57, "duration": 4, "velocity": 99}, {"time": 2530, "pitch": 62, "duration": 9, "velocity": 99}, {"time": 2536, "pitch": 57, "duration": 3, "velocity": 91}, {"time": 2542, "pitch": 57, "duration": 2, "velocity": 109}, {"time": 2542, "pitch": 62, "duration": 5, "velocity": 112}, {"time": 2542, "pitch": 66, "duration": 5, "velocity": 117}, {"time": 2554, "pitch": 43, "duration": 18, "velocity": 104}, {"time": 2554, "pitch": 55, "duration": 8, "velocity": 104}, {"time": 2554, "pitch": 59, "duration": 8, "velocity": 109}, {"time": 2560, "pitch": 50, "duration": 7, "velocity": 74}, {"time": 2566, "pitch": 55, "duration": 3, "velocity": 112}, {"time": 2566, "pitch": 59, "duration": 6, "velocity": 115}, {"time": 2566, "pitch": 62, "duration": 11, "velocity": 112}, {"time": 2572, "pitch": 55, "duration": 4, "velocity": 106}, {"time": 2578, "pitch": 55, "duration": 8, "velocity": 112}, {"time": 2578, "pitch": 60, "duration": 10, "velocity": 109}, {"time": 2584, "pitch": 43, "duration": 14, "velocity": 99}, {"time": 2590, "pitch": 55, "duration": 7, "velocity": 112}, {"time": 2590, "pitch": 59, "duration": 7, "velocity": 112}, {"time": 2596, "pitch": 50, "duration": 2, "velocity": 87}, {"time": 2602, "pitch": 42, "duration": 14, "velocity": 117}, {"time": 2602, "pitch": 57, "duration": 5, "velocity": 106}, {"time": 2602, "pitch": 60, "duration": 7, "velocity": 109}, {"time": 2608, "pitch": 57, "duration": 4, "velocity": 106}, {"time": 2614, "pitch": 57, "duration": 3, "velocity": 115}, {"time": 2614, "pitch": 60, "duration": 5, "velocity": 115}, {"time": 2614, "pitch": 64, "duration": 6, "velocity": 112}, {"time": 2626, "pitch": 47, "duration": 14, "velocity": 104}, {"time": 2626, "pitch": 59, "duration": 8, "velocity": 106}, {"time": 2626, "pitch": 63, "duration": 8, "velocity": 113}, {"time": 2632, "pitch": 54, "duration": 7, "velocity": 81}, {"time": 2638, "pitch": 59, "duration": 4, "velocity": 109}, {"time": 2638, "pitch": 63, "duration": 5, "velocity": 120}, {"time": 2638, "pitch": 66, "duration": 5, "velocity": 117}, {"time": 2644, "pitch": 47, "duration": 2, "velocity": 89}, {"time": 2650, "pitch": 52, "duration": 9, "velocity": 104}, {"time": 2650, "pitch": 64, "duration": 5, "velocity": 104}, {"time": 2650, "pitch": 67, "duration": 6, "velocity": 106}, {"time": 2656, "pitch": 59, "duration": 5, "velocity": 82}, {"time": 2662, "pitch": 50, "duration": 8, "velocity": 104}, {"time": 2662, "pitch": 62, "duration": 5, "velocity": 106}, {"time": 2662, "pitch": 66, "duration": 5, "velocity": 110}, {"time": 2668, "pitch": 57, "duration": 2, "velocity": 34}, {"time": 2674, "pitch": 49, "duration": 20, "velocity": 101}, {"time": 2674, "pitch": 61, "duration": 10, "velocity": 104}, {"time": 2674, "pitch": 64, "duration": 7, "velocity": 106}, {"time": 2686, "pitch": 61, "duration": 6, "velocity": 99}, {"time": 2686, "pitch": 64, "duration": 6, "velocity": 104}, {"time": 2686, "pitch": 67, "duration": 8, "velocity": 104}, {"time": 2698, "pitch": 45, "duration": 21, "velocity": 106}, {"time": 2698, "pitch": 57, "duration": 9, "velocity": 96}, {"time": 2698, "pitch": 60, "duration": 10, "velocity": 96}, {"time": 2704, "pitch": 52, "duration": 7, "velocity": 64}, {"time": 2710, "pitch": 57, "duration": 9, "velocity": 106}, {"time": 2710, "pitch": 60, "duration": 6, "velocity": 101}, {"time": 2722, "pitch": 60, "duration": 7, "velocity": 104}, {"time": 2722, "pitch": 64, "duration": 6, "velocity": 101}, {"time": 2734, "pitch": 57, "duration": 3, "velocity": 115}, {"time": 2734, "pitch": 60, "duration": 6, "velocity": 112}, {"time": 2734, "pitch": 64, "duration": 6, "velocity": 109}, {"time": 2740, "pitch": 57, "duration": 3, "velocity": 96}, {"time": 2746, "pitch": 38, "duration": 2, "velocity": 106}, {"time": 2746, "pitch": 57, "duration": 5, "velocity": 104}, {"time": 2746, "pitch": 62, "duration": 6, "velocity": 106}, {"time": 2752, "pitch": 50, "duration": 17, "velocity": 96}, {"time": 2758, "pitch": 57, "duration": 10, "velocity": 115}, {"time": 2761, "pitch": 62, "duration": 5, "velocity": 115}, {"time": 2764, "pitch": 66, "duration": 4, "velocity": 120}, {"time": 2767, "pitch": 69, "duration": 2, "velocity": 106}, {"time": 2770, "pitch": 38, "duration": 2, "velocity": 109}, {"time": 2770, "pitch": 62, "duration": 9, "velocity": 109}, {"time": 2770, "pitch": 69, "duration": 9, "velocity": 106}, {"time": 2776, "pitch": 50, "duration": 8, "velocity": 106}, {"time": 2782, "pitch": 62, "duration": 4, "velocity": 115}, {"time": 2782, "pitch": 66, "duration": 4, "velocity": 123}, {"time": 2782, "pitch": 69, "duration": 4, "velocity": 112}, {"time": 2782, "pitch": 74, "duration": 5, "velocity": 101}, {"time": 2788, "pitch": 50, "duration": 1, "velocity": 99}, {"time": 2794, "pitch": 40, "duration": 1, "velocity": 109}, {"time": 2794, "pitch": 64, "duration": 12, "velocity": 112}, {"time": 2794, "pitch": 68, "duration": 14, "velocity": 117}, {"time": 2800, "pitch": 52, "duration": 16, "velocity": 101}, {"time": 2806, "pitch": 59, "duration": 10, "velocity": 118}, {"time": 2809, "pitch": 64, "duration": 7, "velocity": 118}, {"time": 2812, "pitch": 68, "duration": 4, "velocity": 123}, {"time": 2815, "pitch": 71, "duration": 2, "velocity": 109}, {"time": 2818, "pitch": 52, "duration": 11, "velocity": 112}, {"time": 2818, "pitch": 59, "duration": 11, "velocity": 112}, {"time": 2818, "pitch": 64, "duration": 10, "velocity": 109}, {"time": 2818, "pitch": 68, "duration": 9, "velocity": 110}, {"time": 2818, "pitch": 71, "duration": 10, "velocity": 104}, {"time": 2818, "pitch": 76, "duration": 8, "velocity": 89}, {"time": 2824, "pitch": 56, "duration": 6, "velocity": 113}, {"time": 2830, "pitch": 52, "duration": 12, "velocity": 106}, {"time": 2830, "pitch": 59, "duration": 12, "velocity": 104}, {"time": 2830, "pitch": 64, "duration": 4, "velocity": 106}, {"time": 2830, "pitch": 68, "duration": 12, "velocity": 120}, {"time": 2830, "pitch": 71, "duration": 12, "velocity": 106}, {"time": 2836, "pitch": 64, "duration": 6, "velocity": 112}, {"time": 2842, "pitch": 38, "duration": 1, "velocity": 104}, {"time": 2842, "pitch": 62, "duration": 5, "velocity": 106}, {"time": 2842, "pitch": 66, "duration": 7, "velocity": 113}, {"time": 2845, "pitch": 50, "duration": 37, "velocity": 89}, {"time": 2848, "pitch": 57, "duration": 18, "velocity": 106}, {"time": 2851, "pitch": 62, "duration": 5, "velocity": 112}, {"time": 2854, "pitch": 66, "duration": 4, "velocity": 120}, {"time": 2857, "pitch": 69, "duration": 4, "velocity": 101}, {"time": 2860, "pitch": 74, "duration": 22, "velocity": 104}, {"time": 2863, "pitch": 69, "duration": 17, "velocity": 109}, {"time": 2866, "pitch": 66, "duration": 13, "velocity": 123}, {"time": 2869, "pitch": 62, "duration": 7, "velocity": 115}, {"time": 2872, "pitch": 54, "duration": 8, "velocity": 117}, {"time": 2875, "pitch": 57, "duration": 6, "velocity": 112}, {"time": 2878, "pitch": 62, "duration": 8, "velocity": 115}, {"time": 2881, "pitch": 66, "duration": 5, "velocity": 120}, {"time": 2884, "pitch": 69, "duration": 4, "velocity": 109}, {"time": 2887, "pitch": 74, "duration": 2, "velocity": 109}, {"time": 2890, "pitch": 43, "duration": 23, "velocity": 109}, {"time": 2893, "pitch": 50, "duration": 19, "velocity": 89}, {"time": 2896, "pitch": 55, "duration": 7, "velocity": 112}, {"time": 2899, "pitch": 59, "duration": 5, "velocity": 112}, {"time": 2902, "pitch": 62, "duration": 4, "velocity": 109}, {"time": 2905, "pitch": 67, "duration": 15, "velocity": 112}, {"time": 2908, "pitch": 62, "duration": 13, "velocity": 112}, {"time": 2911, "pitch": 59, "duration": 10, "velocity": 109}, {"time": 2914, "pitch": 43, "duration": 15, "velocity": 106}, {"time": 2917, "pitch": 50, "duration": 11, "velocity": 87}, {"time": 2920, "pitch": 55, "duration": 6, "velocity": 106}, {"time": 2923, "pitch": 59, "duration": 5, "velocity": 112}, {"time": 2926, "pitch": 67, "duration": 7, "velocity": 118}, {"time": 2929, "pitch": 62, "duration": 4, "velocity": 115}, {"time": 2932, "pitch": 59, "duration": 4, "velocity": 115}, {"time": 2935, "pitch": 55, "duration": 1, "velocity": 112}, {"time": 2935, "pitch": 67, "duration": 1, "velocity": 5}, {"time": 2938, "pitch": 48, "duration": 22, "velocity": 106}, {"time": 2938, "pitch": 60, "duration": 4, "velocity": 109}, {"time": 2938, "pitch": 64, "duration": 6, "velocity": 115}, {"time": 2941, "pitch": 55, "duration": 18, "velocity": 96}, {"time": 2944, "pitch": 60, "duration": 5, "velocity": 109}, {"time": 2947, "pitch": 64, "duration": 5, "velocity": 112}, {"time": 2950, "pitch": 72, "duration": 7, "velocity": 109}, {"time": 2953, "pitch": 67, "duration": 6, "velocity": 109}, {"time": 2956, "pitch": 64, "duration": 10, "velocity": 112}, {"time": 2959, "pitch": 60, "duration": 7, "velocity": 115}, {"time": 2959, "pitch": 67, "duration": 1, "velocity": 56}, {"time": 2962, "pitch": 48, "duration": 17, "velocity": 104}, {"time": 2965, "pitch": 55, "duration": 12, "velocity": 94}, {"time": 2968, "pitch": 60, "duration": 10, "velocity": 112}, {"time": 2971, "pitch": 64, "duration": 5, "velocity": 112}, {"time": 2974, "pitch": 72, "duration": 6, "velocity": 112}, {"time": 2977, "pitch": 67, "duration": 4, "velocity": 115}, {"time": 2980, "pitch": 64, "duration": 4, "velocity": 106}, {"time": 2983, "pitch": 60, "duration": 3, "velocity": 106}, {"time": 2986, "pitch": 41, "duration": 21, "velocity": 109}, {"time": 2989, "pitch": 48, "duration": 18, "velocity": 91}, {"time": 2992, "pitch": 53, "duration": 5, "velocity": 106}, {"time": 2995, "pitch": 57, "duration": 4, "velocity": 106}, {"time": 2998, "pitch": 64, "duration": 4, "velocity": 112}, {"time": 3001, "pitch": 60, "duration": 12, "velocity": 106}, {"time": 3004, "pitch": 57, "duration": 13, "velocity": 109}, {"time": 3007, "pitch": 53, "duration": 7, "velocity": 115}, {"time": 3010, "pitch": 41, "duration": 18, "velocity": 109}, {"time": 3013, "pitch": 48, "duration": 11, "velocity": 82}, {"time": 3016, "pitch": 53, "duration": 4, "velocity": 109}, {"time": 3019, "pitch": 57, "duration": 2, "velocity": 106}, {"time": 3022, "pitch": 53, "duration": 4, "velocity": 118}, {"time": 3022, "pitch": 57, "duration": 3, "velocity": 118}, {"time": 3022, "pitch": 60, "duration": 1, "velocity": 112}, {"time": 3022, "pitch": 64, "duration": 7, "velocity": 115}, {"time": 3025, "pitch": 57, "duration": 1, "velocity": 78}, {"time": 3025, "pitch": 60, "duration": 7, "velocity": 112}, {"time": 3028, "pitch": 57, "duration": 4, "velocity": 115}, {"time": 3031, "pitch": 53, "duration": 3, "velocity": 118}, {"time": 3034, "pitch": 38, "duration": 3, "velocity": 109}, {"time": 3034, "pitch": 62, "duration": 3, "velocity": 106}, {"time": 3034, "pitch": 66, "duration": 3, "velocity": 117}, {"time": 3034, "pitch": 69, "duration": 3, "velocity": 101}, {"time": 3040, "pitch": 38, "duration": 3, "velocity": 101}, {"time": 3040, "pitch": 62, "duration": 3, "velocity": 109}, {"time": 3040, "pitch": 66, "duration": 3, "velocity": 117}, {"time": 3040, "pitch": 69, "duration": 3, "velocity": 109}, {"time": 3046, "pitch": 38, "duration": 3, "velocity": 106}, {"time": 3046, "pitch": 62, "duration": 3, "velocity": 112}, {"time": 3046, "pitch": 66, "duration": 2, "velocity": 120}, {"time": 3046, "pitch": 69, "duration": 3, "velocity": 109}, {"time": 3052, "pitch": 38, "duration": 3, "velocity": 109}, {"time": 3052, "pitch": 62, "duration": 3, "velocity": 115}, {"time": 3052, "pitch": 66, "duration": 3, "velocity": 120}, {"time": 3052, "pitch": 69, "duration": 3, "velocity": 115}, {"time": 3058, "pitch": 38, "duration": 16, "velocity": 112}, {"time": 3058, "pitch": 62, "duration": 9, "velocity": 115}, {"time": 3058, "pitch": 66, "duration": 9, "velocity": 123}, {"time": 3058, "pitch": 69, "duration": 9, "velocity": 112}, {"time": 3064, "pitch": 45, "duration": 6, "velocity": 78}, {"time": 3070, "pitch": 62, "duration": 12, "velocity": 118}, {"time": 3070, "pitch": 66, "duration": 12, "velocity": 123}, {"time": 3070, "pitch": 69, "duration": 12, "velocity": 118}, {"time": 3070, "pitch": 74, "duration": 12, "velocity": 112}, {"time": 3076, "pitch": 38, "duration": 6, "velocity": 104}, {"time": 3076, "pitch": 45, "duration": 6, "velocity": 104}, {"time": 3082, "pitch": 43, "duration": 17, "velocity": 101}, {"time": 3082, "pitch": 55, "duration": 8, "velocity": 96}, {"time": 3082, "pitch": 59, "duration": 8, "velocity": 94}, {"time": 3082, "pitch": 62, "duration": 8, "velocity": 104}, {"time": 3088, "pitch": 50, "duration": 8, "velocity": 50}, {"time": 3094, "pitch": 55, "duration": 4, "velocity": 112}, {"time": 3094, "pitch": 59, "duration": 4, "velocity": 115}, {"time": 3094, "pitch": 62, "duration": 5, "velocity": 112}, {"time": 3106, "pitch": 42, "duration": 14, "velocity": 113}, {"time": 3106, "pitch": 57, "duration": 5, "velocity": 106}, {"time": 3106, "pitch": 60, "duration": 8, "velocity": 101}, {"time": 3112, "pitch": 57, "duration": 4, "velocity": 101}, {"time": 3118, "pitch": 57, "duration": 3, "velocity": 106}, {"time": 3118, "pitch": 60, "duration": 7, "velocity": 106}, {"time": 3118, "pitch": 64, "duration": 8, "velocity": 101}, {"time": 3130, "pitch": 40, "duration": 17, "velocity": 101}, {"time": 3130, "pitch": 52, "duration": 9, "velocity": 94}, {"time": 3130, "pitch": 55, "duration": 7, "velocity": 101}, {"time": 3136, "pitch": 47, "duration": 6, "velocity": 34}, {"time": 3142, "pitch": 55, "duration": 3, "velocity": 112}, {"time": 3142, "pitch": 59, "duration": 3, "velocity": 104}, {"time": 3148, "pitch": 52, "duration": 7, "velocity": 47}, {"time": 3154, "pitch": 55, "duration": 6, "velocity": 109}, {"time": 3154, "pitch": 59, "duration": 7, "velocity": 109}, {"time": 3154, "pitch": 64, "duration": 7, "velocity": 106}, {"time": 3166, "pitch": 40, "duration": 7, "velocity": 99}, {"time": 3166, "pitch": 55, "duration": 6, "velocity": 109}, {"time": 3166, "pitch": 59, "duration": 7, "velocity": 106}, {"time": 3172, "pitch": 52, "duration": 2, "velocity": 104}, {"time": 3178, "pitch": 48, "duration": 14, "velocity": 106}, {"time": 3178, "pitch": 55, "duration": 8, "velocity": 104}, {"time": 3178, "pitch": 60, "duration": 8, "velocity": 99}, {"time": 3184, "pitch": 52, "duration": 8, "velocity": 76}, {"time": 3190, "pitch": 55, "duration": 2, "velocity": 112}, {"time": 3190, "pitch": 60, "duration": 7, "velocity": 109}, {"time": 3190, "pitch": 64, "duration": 8, "velocity": 106}, {"time": 3196, "pitch": 55, "duration": 2, "velocity": 99}, {"time": 3202, "pitch": 50, "duration": 13, "velocity": 104}, {"time": 3202, "pitch": 57, "duration": 4, "velocity": 99}, {"time": 3202, "pitch": 62, "duration": 9, "velocity": 99}, {"time": 3208, "pitch": 57, "duration": 3, "velocity": 91}, {"time": 3214, "pitch": 57, "duration": 2, "velocity": 109}, {"time": 3214, "pitch": 62, "duration": 5, "velocity": 112}, {"time": 3214, "pitch": 66, "duration": 5, "velocity": 117}, {"time": 3226, "pitch": 43, "duration": 18, "velocity": 104}, {"time": 3226, "pitch": 55, "duration": 8, "velocity": 104}, {"time": 3226, "pitch": 59, "duration": 8, "velocity": 109}, {"time": 3232, "pitch": 50, "duration": 7, "velocity": 74}, {"time": 3238, "pitch": 55, "duration": 3, "velocity": 112}, {"time": 3238, "pitch": 59, "duration": 6, "velocity": 115}, {"time": 3238, "pitch": 62, "duration": 11, "velocity": 112}, {"time": 3244, "pitch": 55, "duration": 4, "velocity": 106}, {"time": 3250, "pitch": 55, "duration": 8, "velocity": 112}, {"time": 3250, "pitch": 60, "duration": 10, "velocity": 109}, {"time": 3256, "pitch": 43, "duration": 14, "velocity": 99}, {"time": 3262, "pitch": 55, "duration": 7, "velocity": 112}, {"time": 3262, "pitch": 59, "duration": 7, "velocity": 112}, {"time": 3268, "pitch": 50, "duration": 2, "velocity": 87}, {"time": 3274, "pitch": 42, "duration": 14, "velocity": 117}, {"time": 3274, "pitch": 57, "duration": 5, "velocity": 106}, {"time": 3274, "pitch": 60, "duration": 7, "velocity": 109}, {"time": 3280, "pitch": 57, "duration": 4, "velocity": 106}, {"time": 3286, "pitch": 57, "duration": 3, "velocity": 115}, {"time": 3286, "pitch": 60, "duration": 5, "velocity": 115}, {"time": 3286, "pitch": 64, "duration": 6, "velocity": 112}, {"time": 3298, "pitch": 47, "duration": 14, "velocity": 104}, {"time": 3298, "pitch": 59, "duration": 8, "velocity": 106}, {"time": 3298, "pitch": 63, "duration": 8, "velocity": 113}, {"time": 3304, "pitch": 54, "duration": 7, "velocity": 81}, {"time": 3310, "pitch": 59, "duration": 4, "velocity": 109}, {"time": 3310, "pitch": 63, "duration": 5, "velocity": 120}, {"time": 3310, "pitch": 66, "duration": 5, "velocity": 117}, {"time": 3316, "pitch": 47, "duration": 2, "velocity": 89}, {"time": 3322, "pitch": 52, "duration": 9, "velocity": 104}, {"time": 3322, "pitch": 64, "duration": 5, "velocity": 104}, {"time": 3322, "pitch": 67, "duration": 6, "velocity": 106}, {"time": 3328, "pitch": 59, "duration": 5, "velocity": 82}, {"time": 3334, "pitch": 50, "duration": 8, "velocity": 104}, {"time": 3334, "pitch": 62, "duration": 5, "velocity": 106}, {"time": 3334, "pitch": 66, "duration": 5, "velocity": 110}, {"time": 3340, "pitch": 57, "duration": 2, "velocity": 34}, {"time": 3346, "pitch": 49, "duration": 20, "velocity": 101}, {"time": 3346, "pitch": 61, "duration": 10, "velocity": 104}, {"time": 3346, "pitch": 64, "duration": 7, "velocity": 106}, {"time": 3358, "pitch": 61, "duration": 6, "velocity": 99}, {"time": 3358, "pitch": 64, "duration": 6, "velocity": 104}, {"time": 3358, "pitch": 67, "duration": 8, "velocity": 104}, {"time": 3370, "pitch": 45, "duration": 21, "velocity": 106}, {"time": 3370, "pitch": 57, "duration": 9, "velocity": 96}, {"time": 3370, "pitch": 60, "duration": 10, "velocity": 96}, {"time": 3376, "pitch": 52, "duration": 7, "velocity": 64}, {"time": 3382, "pitch": 57, "duration": 9, "velocity": 106}, {"time": 3382, "pitch": 60, "duration": 6, "velocity": 101}, {"time": 3394, "pitch": 60, "duration": 7, "velocity": 104}, {"time": 3394, "pitch": 64, "duration": 6, "velocity": 101}, {"time": 3406, "pitch": 57, "duration": 3, "velocity": 115}, {"time": 3406, "pitch": 60, "duration": 6, "velocity": 112}, {"time": 3406, "pitch": 64, "duration": 6, "velocity": 109}, {"time": 3412, "pitch": 57, "duration": 3, "velocity": 96}, {"time": 3418, "pitch": 38, "duration": 2, "velocity": 106}, {"time": 3418, "pitch": 57, "duration": 5, "velocity": 104}, {"time": 3418, "pitch": 62, "duration": 6, "velocity": 106}, {"time": 3424, "pitch": 50, "duration": 17, "velocity": 96}, {"time": 3430, "pitch": 57, "duration": 10, "velocity": 115}, {"time": 3433, "pitch": 62, "duration": 5, "velocity": 115}, {"time": 3436, "pitch": 66, "duration": 4, "velocity": 120}, {"time": 3439, "pitch": 69, "duration": 2, "velocity": 106}, {"time": 3442, "pitch": 39, "duration": 12, "velocity": 114}, {"time": 3442, "pitch": 51, "duration": 11, "velocity": 120}, {"time": 3442, "pitch": 63, "duration": 6, "velocity": 113}, {"time": 3442, "pitch": 67, "duration": 6, "velocity": 104}, {"time": 3442, "pitch": 70, "duration": 7, "velocity": 104}, {"time": 3448, "pitch": 58, "duration": 5, "velocity": 107}, {"time": 3451, "pitch": 63, "duration": 2, "velocity": 113}, {"time": 3454, "pitch": 51, "duration": 5, "velocity": 120}, {"time": 3454, "pitch": 58, "duration": 6, "velocity": 113}, {"time": 3454, "pitch": 63, "duration": 12, "velocity": 120}, {"time": 3454, "pitch": 67, "duration": 11, "velocity": 115}, {"time": 3454, "pitch": 70, "duration": 12, "velocity": 120}, {"time": 3460, "pitch": 51, "duration": 6, "velocity": 117}, {"time": 3466, "pitch": 44, "duration": 17, "velocity": 101}, {"time": 3466, "pitch": 56, "duration": 8, "velocity": 96}, {"time": 3466, "pitch": 60, "duration": 8, "velocity": 94}, {"time": 3466, "pitch": 63, "duration": 8, "velocity": 104}, {"time": 3472, "pitch": 51, "duration": 8, "velocity": 50}, {"time": 3478, "pitch": 56, "duration": 4, "velocity": 112}, {"time": 3478, "pitch": 60, "duration": 4, "velocity": 115}, {"time": 3478, "pitch": 63, "duration": 5, "velocity": 112}, {"time": 3490, "pitch": 43, "duration": 14, "velocity": 113}, {"time": 3490, "pitch": 58, "duration": 5, "velocity": 106}, {"time": 3490, "pitch": 61, "duration": 8, "velocity": 101}, {"time": 3496, "pitch": 58, "duration": 4, "velocity": 101}, {"time": 3502, "pitch": 58, "duration": 3, "velocity": 106}, {"time": 3502, "pitch": 61, "duration": 7, "velocity": 106}, {"time": 3502, "pitch": 65, "duration": 8, "velocity": 101}, {"time": 3514, "pitch": 41, "duration": 17, "velocity": 101}, {"time": 3514, "pitch": 53, "duration": 9, "velocity": 94}, {"time": 3514, "pitch": 56, "duration": 7, "velocity": 101}, {"time": 3520, "pitch": 48, "duration": 6, "velocity": 34}, {"time": 3526, "pitch": 56, "duration": 3, "velocity": 112}, {"time": 3526, "pitch": 60, "duration": 3, "velocity": 104}, {"time": 3532, "pitch": 53, "duration": 7, "velocity": 47}, {"time": 3538, "pitch": 56, "duration": 6, "velocity": 109}, {"time": 3538, "pitch": 60, "duration": 7, "velocity": 109}, {"time": 3538, "pitch": 65, "duration": 7, "velocity": 106}, {"time": 3550, "pitch": 41, "duration": 7, "velocity": 99}, {"time": 3550, "pitch": 56, "duration": 6, "velocity": 109}, {"time": 3550, "pitch": 60, "duration": 7, "velocity": 106}, {"time": 3556, "pitch": 53, "duration": 2, "velocity": 104}, {"time": 3562, "pitch": 49, "duration": 14, "velocity": 106}, {"time": 3562, "pitch": 56, "duration": 8, "velocity": 104}, {"time": 3562, "pitch": 61, "duration": 8, "velocity": 99}, {"time": 3568, "pitch": 53, "duration": 8, "velocity": 76}, {"time": 3574, "pitch": 56, "duration": 2, "velocity": 112}, {"time": 3574, "pitch": 61, "duration": 7, "velocity": 109}, {"time": 3574, "pitch": 65, "duration": 8, "velocity": 106}, {"time": 3580, "pitch": 56, "duration": 2, "velocity": 99}, {"time": 3586, "pitch": 51, "duration": 13, "velocity": 104}, {"time": 3586, "pitch": 58, "duration": 4, "velocity": 99}, {"time": 3586, "pitch": 63, "duration": 9, "velocity": 99}, {"time": 3592, "pitch": 58, "duration": 3, "velocity": 91}, {"time": 3598, "pitch": 58, "duration": 2, "velocity": 109}, {"time": 3598, "pitch": 63, "duration": 5, "velocity": 112}, {"time": 3598, "pitch": 67, "duration": 5, "velocity": 117}, {"time": 3610, "pitch": 44, "duration": 18, "velocity": 104}, {"time": 3610, "pitch": 56, "duration": 8, "velocity": 104}, {"time": 3610, "pitch": 60, "duration": 8, "velocity": 109}, {"time": 3616, "pitch": 51, "duration": 7, "velocity": 74}, {"time": 3622, "pitch": 56, "duration": 3, "velocity": 112}, {"time": 3622, "pitch": 60, "duration": 6, "velocity": 115}, {"time": 3622, "pitch": 63, "duration": 11, "velocity": 112}, {"time": 3628, "pitch": 56, "duration": 4, "velocity": 106}, {"time": 3634, "pitch": 56, "duration": 8, "velocity": 112}, {"time": 3634, "pitch": 61, "duration": 10, "velocity": 109}, {"time": 3640, "pitch": 44, "duration": 14, "velocity": 99}, {"time": 3646, "pitch": 56, "duration": 7, "velocity": 112}, {"time": 3646, "pitch": 60, "duration": 7, "velocity": 112}, {"time": 3652, "pitch": 51, "duration": 2, "velocity": 87}, {"time": 3658, "pitch": 43, "duration": 14, "velocity": 117}, {"time": 3658, "pitch": 58, "duration": 5, "velocity": 106}, {"time": 3658, "pitch": 61, "duration": 7, "velocity": 109}, {"time": 3664, "pitch": 58, "duration": 4, "velocity": 106}, {"time": 3670, "pitch": 58, "duration": 3, "velocity": 115}, {"time": 3670, "pitch": 61, "duration": 5, "velocity": 115}, {"time": 3670, "pitch": 65, "duration": 6, "velocity": 112}, {"time": 3682, "pitch": 48, "duration": 14, "velocity": 104}, {"time": 3682, "pitch": 60, "duration": 8, "velocity": 106}, {"time": 3682, "pitch": 64, "duration": 8, "velocity": 113}, {"time": 3688, "pitch": 55, "duration": 7, "velocity": 81}, {"time": 3694, "pitch": 60, "duration": 4, "velocity": 109}, {"time": 3694, "pitch": 64, "duration": 5, "velocity": 120}, {"time": 3694, "pitch": 67, "duration": 5, "velocity": 117}, {"time": 3700, "pitch": 48, "duration": 2, "velocity": 89}, {"time": 3706, "pitch": 53, "duration": 9, "velocity": 104}, {"time": 3706, "pitch": 65, "duration": 5, "velocity": 104}, {"time": 3706, "pitch": 68, "duration": 6, "velocity": 106}, {"time": 3712, "pitch": 60, "duration": 5, "velocity": 82}, {"time": 3718, "pitch": 51, "duration": 8, "velocity": 104}, {"time": 3718, "pitch": 63, "duration": 5, "velocity": 106}, {"time": 3718, "pitch": 67, "duration": 5, "velocity": 110}, {"time": 3724, "pitch": 58, "duration": 2, "velocity": 34}, {"time": 3730, "pitch": 50, "duration": 20, "velocity": 101}, {"time": 3730, "pitch": 62, "duration": 10, "velocity": 104}, {"time": 3730, "pitch": 65, "duration": 7, "velocity": 106}, {"time": 3742, "pitch": 62, "duration": 6, "velocity": 99}, {"time": 3742, "pitch": 65, "duration": 6, "velocity": 104}, {"time": 3742, "pitch": 68, "duration": 8, "velocity": 104}, {"time": 3754, "pitch": 46, "duration": 21, "velocity": 106}, {"time": 3754, "pitch": 58, "duration": 9, "velocity": 96}, {"time": 3754, "pitch": 61, "duration": 10, "velocity": 96}, {"time": 3760, "pitch": 53, "duration": 7, "velocity": 64}, {"time": 3766, "pitch": 58, "duration": 9, "velocity": 106}, {"time": 3766, "pitch": 61, "duration": 6, "velocity": 101}, {"time": 3778, "pitch": 61, "duration": 7, "velocity": 104}, {"time": 3778, "pitch": 65, "duration": 6, "velocity": 101}, {"time": 3790, "pitch": 58, "duration": 3, "velocity": 115}, {"time": 3790, "pitch": 61, "duration": 6, "velocity": 112}, {"time": 3790, "pitch": 65, "duration": 6, "velocity": 109}, {"time": 3796, "pitch": 58, "duration": 3, "velocity": 96}, {"time": 3802, "pitch": 39, "duration": 2, "velocity": 106}, {"time": 3802, "pitch": 58, "duration": 5, "velocity": 104}, {"time": 3802, "pitch": 63, "duration": 6, "velocity": 106}, {"time": 3808, "pitch": 51, "duration": 17, "velocity": 96}, {"time": 3814, "pitch": 58, "duration": 10, "velocity": 115}, {"time": 3817, "pitch": 63, "duration": 5, "velocity": 115}, {"time": 3820, "pitch": 67, "duration": 4, "velocity": 120}, {"time": 3823, "pitch": 70, "duration": 2, "velocity": 106}, {"time": 3826, "pitch": 39, "duration": 2, "velocity": 110}, {"time": 3826, "pitch": 63, "duration": 15, "velocity": 101}, {"time": 3826, "pitch": 67, "duration": 18, "velocity": 99}, {"time": 3839, "pitch": 51, "duration": 29, "velocity": 41}, {"time": 3842, "pitch": 58, "duration": 27, "velocity": 93}, {"time": 3844, "pitch": 63, "duration": 28, "velocity": 110}, {"time": 3848, "pitch": 67, "duration": 24, "velocity": 87}, {"time": 3852, "pitch": 70, "duration": 20, "velocity": 86}, {"time": 3874, "pitch": 49, "duration": 40, "velocity": 73}, {"time": 3880, "pitch": 56, "duration": 8, "velocity": 94}, {"time": 3886, "pitch": 61, "duration": 10, "velocity": 99}, {"time": 3892, "pitch": 56, "duration": 6, "velocity": 56}, {"time": 3898, "pitch": 68, "duration": 12, "velocity": 101}, {"time": 3898, "pitch": 61, "duration": 10, "velocity": 99}, {"time": 3910, "pitch": 61, "duration": 4, "velocity": 91}, {"time": 3910, "pitch": 65, "duration": 3, "velocity": 99}, {"time": 3922, "pitch": 60, "duration": 9, "velocity": 89}, {"time": 3922, "pitch": 63, "duration": 10, "velocity": 99}, {"time": 3922, "pitch": 48, "duration": 39, "velocity": 85}, {"time": 3928, "pitch": 55, "duration": 8, "velocity": 61}, {"time": 3934, "pitch": 67, "duration": 22, "velocity": 110}, {"time": 3940, "pitch": 60, "duration": 13, "velocity": 56}, {"time": 3952, "pitch": 55, "duration": 7, "velocity": 55}, {"time": 3958, "pitch": 60, "duration": 3, "velocity": 101}, {"time": 3958, "pitch": 63, "duration": 6, "velocity": 106}, {"time": 3970, "pitch": 61, "duration": 12, "velocity": 94}, {"time": 3970, "pitch": 46, "duration": 20, "velocity": 99}, {"time": 3970, "pitch": 58, "duration": 8, "velocity": 94}, {"time": 3976, "pitch": 53, "duration": 11, "velocity": 40}, {"time": 3982, "pitch": 58, "duration": 10, "velocity": 101}, {"time": 3988, "pitch": 61, "duration": 7, "velocity": 104}, {"time": 3995, "pitch": 58, "duration": 5, "velocity": 85}, {"time": 3995, "pitch": 63, "duration": 7, "velocity": 89}, {"time": 3995, "pitch": 36, "duration": 33, "velocity": 100}, {"time": 4002, "pitch": 51, "duration": 14, "velocity": 62}, {"time": 4009, "pitch": 67, "duration": 21, "velocity": 120}, {"time": 4018, "pitch": 63, "duration": 14, "velocity": 96}, {"time": 4032, "pitch": 44, "duration": 51, "velocity": 76}, {"time": 4035, "pitch": 51, "duration": 45, "velocity": 71}, {"time": 4039, "pitch": 56, "duration": 5, "velocity": 99}, {"time": 4043, "pitch": 63, "duration": 5, "velocity": 106}, {"time": 4047, "pitch": 60, "duration": 5, "velocity": 89}, {"time": 4051, "pitch": 68, "duration": 4, "velocity": 96}, {"time": 4056, "pitch": 63, "duration": 11, "velocity": 106}, {"time": 4061, "pitch": 72, "duration": 5, "velocity": 87}, {"time": 4066, "pitch": 70, "duration": 5, "velocity": 94}, {"time": 4072, "pitch": 75, "duration": 3, "velocity": 94}, {"time": 4079, "pitch": 70, "duration": 4, "velocity": 39}, {"time": 4087, "pitch": 44, "duration": 43, "velocity": 61}, {"time": 4090, "pitch": 51, "duration": 39, "velocity": 89}, {"time": 4091, "pitch": 75, "duration": 2, "velocity": 44}, {"time": 4093, "pitch": 80, "duration": 37, "velocity": 94}, {"time": 4094, "pitch": 84, "duration": 38, "velocity": 99}], "annotations": [{"time": 24, "annotation": {"number": 64, "value": 64}, "group": "control_change"}, {"time": 24, "annotation": {"number": 64, "value": 74}, "group": "control_change"}, {"time": 24, "annotation": {"number": 64, "value": 127}, "group": "control_change"}, {"time": 25, "annotation": {"number": 64, "value": 127}, "group": "control_change"}, {"time": 49, "annotation": {"number": 64, "value": 0}, "group": "control_change"}, {"time": 53, "annotation": {"number": 64, "value": 127}, "group": "control_change"}, {"time": 81, "annotation": {"number": 64, "value": 127}, "group": "control_change"}, {"time": 118, "annotation": {"number": 64, "value": 0}, "group": "control_change"}, {"time": 127, "annotation": {"number": 64, "value": 127}, "group": "control_change"}, {"time": 166, "annotation": {"number": 64, "value": 0}, "group": "control_change"}, {"time": 173, "annotation": {"number": 64, "value": 127}, "group": "control_change"}, {"time": 188, "annotation": {"number": 64, "value": 0}, "group": "control_change"}, {"time": 192, "annotation": {"number": 64, "value": 127}, "group": "control_change"}, {"time": 229, "annotation": {"number": 64, "value": 0}, "group": "control_change"}, {"time": 242, "annotation": {"number": 64, "value": 127}, "group": "control_change"}, {"time": 262, "annotation": {"number": 64, "value": 0}, "group": "control_change"}, {"time": 269, "annotation": {"number": 64, "value": 127}, "group": "control_change"}, {"time": 286, "annotation": {"number": 64, "value": 0}, "group": "control_change"}, {"time": 298, "annotation": {"number": 64, "value": 127}, "group": "control_change"}, {"time": 334, "annotation": {"number": 64, "value": 0}, "group": "control_change"}, {"time": 341, "annotation": {"number": 64, "value": 127}, "group": "control_change"}, {"time": 357, "annotation": {"number": 64, "value": 0}, "group": "control_change"}, {"time": 363, "annotation": {"number": 64, "value": 127}, "group": "control_change"}, {"time": 382, "annotation": {"number": 64, "value": 0}, "group": "control_change"}, {"time": 392, "annotation": {"number": 64, "value": 127}, "group": "control_change"}, {"time": 428, "annotation": {"number": 64, "value": 0}, "group": "control_change"}, {"time": 436, "annotation": {"number": 64, "value": 127}, "group": "control_change"}, {"time": 452, "annotation": {"number": 64, "value": 0}, "group": "control_change"}, {"time": 460, "annotation": {"number": 64, "value": 127}, "group": "control_change"}, {"time": 477, "annotation": {"number": 64, "value": 0}, "group": "control_change"}, {"time": 484, "annotation": {"number": 64, "value": 127}, "group": "control_change"}, {"time": 500, "annotation": {"number": 64, "value": 0}, "group": "control_change"}, {"time": 503, "annotation": {"number": 64, "value": 127}, "group": "control_change"}, {"time": 526, "annotation": {"number": 64, "value": 0}, "group": "control_change"}, {"time": 535, "annotation": {"number": 64, "value": 127}, "group": "control_change"}, {"time": 573, "annotation": {"number": 64, "value": 0}, "group": "control_change"}, {"time": 580, "annotation": {"number": 64, "value": 127}, "group": "control_change"}, {"time": 620, "annotation": {"number": 64, "value": 0}, "group": "control_change"}, {"time": 630, "annotation": {"number": 64, "value": 127}, "group": "control_change"}, {"time": 669, "annotation": {"number": 64, "value": 0}, "group": "control_change"}, {"time": 676, "annotation": {"number": 64, "value": 127}, "group": "control_change"}, {"time": 694, "annotation": {"number": 64, "value": 0}, "group": "control_change"}, {"time": 701, "annotation": {"number": 64, "value": 127}, "group": "control_change"}, {"time": 718, "annotation": {"number": 64, "value": 0}, "group": "control_change"}, {"time": 726, "annotation": {"number": 64, "value": 127}, "group": "control_change"}, {"time": 742, "annotation": {"number": 64, "value": 0}, "group": "control_change"}, {"time": 751, "annotation": {"number": 64, "value": 127}, "group": "control_change"}, {"time": 766, "annotation": {"number": 64, "value": 0}, "group": "control_change"}, {"time": 772, "annotation": {"number": 64, "value": 127}, "group": "control_change"}, {"time": 800, "annotation": {"number": 64, "value": 0}, "group": "control_change"}, {"time": 803, "annotation": {"number": 64, "value": 127}, "group": "control_change"}, {"time": 812, "annotation": {"number": 64, "value": 0}, "group": "control_change"}, {"time": 821, "annotation": {"number": 64, "value": 127}, "group": "control_change"}, {"time": 838, "annotation": {"number": 64, "value": 0}, "group": "control_change"}, {"time": 846, "annotation": {"number": 64, "value": 127}, "group": "control_change"}, {"time": 861, "annotation": {"number": 64, "value": 0}, "group": "control_change"}, {"time": 868, "annotation": {"number": 64, "value": 127}, "group": "control_change"}, {"time": 885, "annotation": {"number": 64, "value": 0}, "group": "control_change"}, {"time": 892, "annotation": {"number": 64, "value": 127}, "group": "control_change"}, {"time": 910, "annotation": {"number": 64, "value": 0}, "group": "control_change"}, {"time": 913, "annotation": {"number": 64, "value": 127}, "group": "control_change"}, {"time": 934, "annotation": {"number": 64, "value": 0}, "group": "control_change"}, {"time": 939, "annotation": {"number": 64, "value": 127}, "group": "control_change"}, {"time": 957, "annotation": {"number": 64, "value": 0}, "group": "control_change"}, {"time": 963, "annotation": {"number": 64, "value": 127}, "group": "control_change"}, {"time": 981, "annotation": {"number": 64, "value": 0}, "group": "control_change"}, {"time": 984, "annotation": {"number": 64, "value": 127}, "group": "control_change"}, {"time": 1030, "annotation": {"number": 64, "value": 0}, "group": "control_change"}, {"time": 1035, "annotation": {"number": 64, "value": 127}, "group": "control_change"}, {"time": 1054, "annotation": {"number": 64, "value": 0}, "group": "control_change"}, {"time": 1060, "annotation": {"number": 64, "value": 127}, "group": "control_change"}, {"time": 1089, "annotation": {"number": 64, "value": 0}, "group": "control_change"}, {"time": 1093, "annotation": {"number": 64, "value": 127}, "group": "control_change"}, {"time": 1102, "annotation": {"number": 64, "value": 0}, "group": "control_change"}, {"time": 1108, "annotation": {"number": 64, "value": 127}, "group": "control_change"}, {"time": 1126, "annotation": {"number": 64, "value": 0}, "group": "control_change"}, {"time": 1131, "annotation": {"number": 64, "value": 127}, "group": "control_change"}, {"time": 1149, "annotation": {"number": 64, "value": 0}, "group": "control_change"}, {"time": 1156, "annotation": {"number": 64, "value": 127}, "group": "control_change"}, {"time": 1187, "annotation": {"number": 64, "value": 0}, "group": "control_change"}, {"time": 1190, "annotation": {"number": 64, "value": 127}, "group": "control_change"}, {"time": 1198, "annotation": {"number": 64, "value": 0}, "group": "control_change"}, {"time": 1202, "annotation": {"number": 64, "value": 127}, "group": "control_change"}, {"time": 1222, "annotation": {"number": 64, "value": 0}, "group": "control_change"}, {"time": 1228, "annotation": {"number": 64, "value": 127}, "group": "control_change"}, {"time": 1244, "annotation": {"number": 64, "value": 0}, "group": "control_change"}, {"time": 1247, "annotation": {"number": 64, "value": 127}, "group": "control_change"}, {"time": 1257, "annotation": {"number": 64, "value": 0}, "group": "control_change"}, {"time": 1261, "annotation": {"number": 64, "value": 127}, "group": "control_change"}, {"time": 1269, "annotation": {"number": 64, "value": 0}, "group": "control_change"}, {"time": 1274, "annotation": {"number": 64, "value": 127}, "group": "control_change"}, {"time": 1293, "annotation": {"number": 64, "value": 0}, "group": "control_change"}, {"time": 1301, "annotation": {"number": 64, "value": 127}, "group": "control_change"}, {"time": 1328, "annotation": {"number": 64, "value": 0}, "group": "control_change"}, {"time": 1330, "annotation": {"number": 64, "value": 127}, "group": "control_change"}, {"time": 1340, "annotation": {"number": 64, "value": 0}, "group": "control_change"}, {"time": 1342, "annotation": {"number": 64, "value": 127}, "group": "control_change"}, {"time": 1366, "annotation": {"number": 64, "value": 0}, "group": "control_change"}, {"time": 1366, "annotation": {"number": 64, "value": 127}, "group": "control_change"}, {"time": 1389, "annotation": {"number": 64, "value": 0}, "group": "control_change"}, {"time": 1414, "annotation": {"number": 64, "value": 0}, "group": "control_change"}, {"time": 1419, "annotation": {"number": 64, "value": 127}, "group": "control_change"}, {"time": 1438, "annotation": {"number": 64, "value": 0}, "group": "control_change"}, {"time": 1444, "annotation": {"number": 64, "value": 127}, "group": "control_change"}, {"time": 1473, "annotation": {"number": 64, "value": 0}, "group": "control_change"}, {"time": 1477, "annotation": {"number": 64, "value": 127}, "group": "control_change"}, {"time": 1486, "annotation": {"number": 64, "value": 0}, "group": "control_change"}, {"time": 1492, "annotation": {"number": 64, "value": 127}, "group": "control_change"}, {"time": 1510, "annotation": {"number": 64, "value": 0}, "group": "control_change"}, {"time": 1515, "annotation": {"number": 64, "value": 127}, "group": "control_change"}, {"time": 1533, "annotation": {"number": 64, "value": 0}, "group": "control_change"}, {"time": 1540, "annotation": {"number": 64, "value": 127}, "group": "control_change"}, {"time": 1571, "annotation": {"number": 64, "value": 0}, "group": "control_change"}, {"time": 1574, "annotation": {"number": 64, "value": 127}, "group": "control_change"}, {"time": 1582, "annotation": {"number": 64, "value": 0}, "group": "control_change"}, {"time": 1586, "annotation": {"number": 64, "value": 127}, "group": "control_change"}, {"time": 1606, "annotation": {"number": 64, "value": 0}, "group": "control_change"}, {"time": 1612, "annotation": {"number": 64, "value": 127}, "group": "control_change"}, {"time": 1628, "annotation": {"number": 64, "value": 0}, "group": "control_change"}, {"time": 1631, "annotation": {"number": 64, "value": 127}, "group": "control_change"}, {"time": 1641, "annotation": {"number": 64, "value": 0}, "group": "control_change"}, {"time": 1645, "annotation": {"number": 64, "value": 127}, "group": "control_change"}, {"time": 1653, "annotation": {"number": 64, "value": 0}, "group": "control_change"}, {"time": 1658, "annotation": {"number": 64, "value": 127}, "group": "control_change"}, {"time": 1677, "annotation": {"number": 64, "value": 0}, "group": "control_change"}, {"time": 1685, "annotation": {"number": 64, "value": 127}, "group": "control_change"}, {"time": 1712, "annotation": {"number": 64, "value": 0}, "group": "control_change"}, {"time": 1714, "annotation": {"number": 64, "value": 127}, "group": "control_change"}, {"time": 1724, "annotation": {"number": 64, "value": 0}, "group": "control_change"}, {"time": 1726, "annotation": {"number": 64, "value": 127}, "group": "control_change"}, {"time": 1750, "annotation": {"number": 64, "value": 0}, "group": "control_change"}, {"time": 1750, "annotation": {"number": 64, "value": 127}, "group": "control_change"}, {"time": 1752, "annotation": {"number": 64, "value": 127}, "group": "control_change"}, {"time": 1783, "annotation": {"number": 64, "value": 127}, "group": "control_change"}, {"time": 1795, "annotation": {"number": 64, "value": 0}, "group": "control_change"}, {"time": 1808, "annotation": {"number": 64, "value": 127}, "group": "control_change"}, {"time": 1834, "annotation": {"number": 64, "value": 0}, "group": "control_change"}, {"time": 1836, "annotation": {"number": 64, "value": 127}, "group": "control_change"}, {"time": 1846, "annotation": {"number": 64, "value": 0}, "group": "control_change"}, {"time": 1853, "annotation": {"number": 64, "value": 127}, "group": "control_change"}, {"time": 1892, "annotation": {"number": 64, "value": 0}, "group": "control_change"}, {"time": 1895, "annotation": {"number": 64, "value": 127}, "group": "control_change"}, {"time": 1919, "annotation": {"number": 64, "value": 0}, "group": "control_change"}, {"time": 1921, "annotation": {"number": 64, "value": 127}, "group": "control_change"}, {"time": 1929, "annotation": {"number": 64, "value": 0}, "group": "control_change"}, {"time": 1931, "annotation": {"number": 64, "value": 127}, "group": "control_change"}, {"time": 1940, "annotation": {"number": 64, "value": 0}, "group": "control_change"}, {"time": 1942, "annotation": {"number": 64, "value": 127}, "group": "control_change"}, {"time": 2010, "annotation": {"number": 64, "value": 0}, "group": "control_change"}, {"time": 2034, "annotation": {"number": 64, "value": 127}, "group": "control_change"}, {"time": 2073, "annotation": {"number": 64, "value": 0}, "group": "control_change"}, {"time": 2080, "annotation": {"number": 64, "value": 127}, "group": "control_change"}, {"time": 2098, "annotation": {"number": 64, "value": 0}, "group": "control_change"}, {"time": 2105, "annotation": {"number": 64, "value": 127}, "group": "control_change"}, {"time": 2122, "annotation": {"number": 64, "value": 0}, "group": "control_change"}, {"time": 2130, "annotation": {"number": 64, "value": 127}, "group": "control_change"}, {"time": 2146, "annotation": {"number": 64, "value": 0}, "group": "control_change"}, {"time": 2155, "annotation": {"number": 64, "value": 127}, "group": "control_change"}, {"time": 2170, "annotation": {"number": 64, "value": 0}, "group": "control_change"}, {"time": 2176, "annotation": {"number": 64, "value": 127}, "group": "control_change"}, {"time": 2204, "annotation": {"number": 64, "value": 0}, "group": "control_change"}, {"time": 2207, "annotation": {"number": 64, "value": 127}, "group": "control_change"}, {"time": 2216, "annotation": {"number": 64, "value": 0}, "group": "control_change"}, {"time": 2225, "annotation": {"number": 64, "value": 127}, "group": "control_change"}, {"time": 2242, "annotation": {"number": 64, "value": 0}, "group": "control_change"}, {"time": 2250, "annotation": {"number": 64, "value": 127}, "group": "control_change"}, {"time": 2265, "annotation": {"number": 64, "value": 0}, "group": "control_change"}, {"time": 2272, "annotation": {"number": 64, "value": 127}, "group": "control_change"}, {"time": 2289, "annotation": {"number": 64, "value": 0}, "group": "control_change"}, {"time": 2296, "annotation": {"number": 64, "value": 127}, "group": "control_change"}, {"time": 2314, "annotation": {"number": 64, "value": 0}, "group": "control_change"}, {"time": 2317, "annotation": {"number": 64, "value": 127}, "group": "control_change"}, {"time": 2338, "annotation": {"number": 64, "value": 0}, "group": "control_change"}, {"time": 2343, "annotation": {"number": 64, "value": 127}, "group": "control_change"}, {"time": 2361, "annotation": {"number": 64, "value": 0}, "group": "control_change"}, {"time": 2367, "annotation": {"number": 64, "value": 127}, "group": "control_change"}, {"time": 2385, "annotation": {"number": 64, "value": 0}, "group": "control_change"}, {"time": 2388, "annotation": {"number": 64, "value": 127}, "group": "control_change"}, {"time": 2434, "annotation": {"number": 64, "value": 0}, "group": "control_change"}, {"time": 2439, "annotation": {"number": 64, "value": 127}, "group": "control_change"}, {"time": 2458, "annotation": {"number": 64, "value": 0}, "group": "control_change"}, {"time": 2464, "annotation": {"number": 64, "value": 127}, "group": "control_change"}, {"time": 2493, "annotation": {"number": 64, "value": 0}, "group": "control_change"}, {"time": 2497, "annotation": {"number": 64, "value": 127}, "group": "control_change"}, {"time": 2506, "annotation": {"number": 64, "value": 0}, "group": "control_change"}, {"time": 2512, "annotation": {"number": 64, "value": 127}, "group": "control_change"}, {"time": 2530, "annotation": {"number": 64, "value": 0}, "group": "control_change"}, {"time": 2535, "annotation": {"number": 64, "value": 127}, "group": "control_change"}, {"time": 2553, "annotation": {"number": 64, "value": 0}, "group": "control_change"}, {"time": 2560, "annotation": {"number": 64, "value": 127}, "group": "control_change"}, {"time": 2591, "annotation": {"number": 64, "value": 0}, "group": "control_change"}, {"time": 2594, "annotation": {"number": 64, "value": 127}, "group": "control_change"}, {"time": 2602, "annotation": {"number": 64, "value": 0}, "group": "control_change"}, {"time": 2606, "annotation": {"number": 64, "value": 127}, "group": "control_change"}, {"time": 2626, "annotation": {"number": 64, "value": 0}, "group": "control_change"}, {"time": 2632, "annotation": {"number": 64, "value": 127}, "group": "control_change"}, {"time": 2648, "annotation": {"number": 64, "value": 0}, "group": "control_change"}, {"time": 2651, "annotation": {"number": 64, "value": 127}, "group": "control_change"}, {"time": 2661, "annotation": {"number": 64, "value": 0}, "group": "control_change"}, {"time": 2665, "annotation": {"number": 64, "value": 127}, "group": "control_change"}, {"time": 2673, "annotation": {"number": 64, "value": 0}, "group": "control_change"}, {"time": 2678, "annotation": {"number": 64, "value": 127}, "group": "control_change"}, {"time": 2697, "annotation": {"number": 64, "value": 0}, "group": "control_change"}, {"time": 2705, "annotation": {"number": 64, "value": 127}, "group": "control_change"}, {"time": 2732, "annotation": {"number": 64, "value": 0}, "group": "control_change"}, {"time": 2734, "annotation": {"number": 64, "value": 127}, "group": "control_change"}, {"time": 2744, "annotation": {"number": 64, "value": 0}, "group": "control_change"}, {"time": 2746, "annotation": {"number": 64, "value": 127}, "group": "control_change"}, {"time": 2770, "annotation": {"number": 64, "value": 0}, "group": "control_change"}, {"time": 2770, "annotation": {"number": 64, "value": 127}, "group": "control_change"}, {"time": 2771, "annotation": {"number": 64, "value": 127}, "group": "control_change"}, {"time": 2791, "annotation": {"number": 64, "value": 0}, "group": "control_change"}, {"time": 2794, "annotation": {"number": 64, "value": 127}, "group": "control_change"}, {"time": 2817, "annotation": {"number": 64, "value": 0}, "group": "control_change"}, {"time": 2819, "annotation": {"number": 64, "value": 127}, "group": "control_change"}, {"time": 2841, "annotation": {"number": 64, "value": 0}, "group": "control_change"}, {"time": 2843, "annotation": {"number": 64, "value": 127}, "group": "control_change"}, {"time": 2866, "annotation": {"number": 64, "value": 0}, "group": "control_change"}, {"time": 2867, "annotation": {"number": 64, "value": 127}, "group": "control_change"}, {"time": 2872, "annotation": {"number": 64, "value": 0}, "group": "control_change"}, {"time": 2877, "annotation": {"number": 64, "value": 127}, "group": "control_change"}, {"time": 2889, "annotation": {"number": 64, "value": 0}, "group": "control_change"}, {"time": 2892, "annotation": {"number": 64, "value": 127}, "group": "control_change"}, {"time": 2913, "annotation": {"number": 64, "value": 0}, "group": "control_change"}, {"time": 2917, "annotation": {"number": 64, "value": 127}, "group": "control_change"}, {"time": 2938, "annotation": {"number": 64, "value": 0}, "group": "control_change"}, {"time": 2944, "annotation": {"number": 64, "value": 127}, "group": "control_change"}, {"time": 2961, "annotation": {"number": 64, "value": 0}, "group": "control_change"}, {"time": 2965, "annotation": {"number": 64, "value": 127}, "group": "control_change"}, {"time": 2987, "annotation": {"number": 64, "value": 0}, "group": "control_change"}, {"time": 2990, "annotation": {"number": 64, "value": 127}, "group": "control_change"}, {"time": 3009, "annotation": {"number": 64, "value": 0}, "group": "control_change"}, {"time": 3013, "annotation": {"number": 64, "value": 127}, "group": "control_change"}, {"time": 3033, "annotation": {"number": 64, "value": 0}, "group": "control_change"}, {"time": 3065, "annotation": {"number": 64, "value": 127}, "group": "control_change"}, {"time": 3080, "annotation": {"number": 64, "value": 0}, "group": "control_change"}, {"time": 3106, "annotation": {"number": 64, "value": 0}, "group": "control_change"}, {"time": 3111, "annotation": {"number": 64, "value": 127}, "group": "control_change"}, {"time": 3130, "annotation": {"number": 64, "value": 0}, "group": "control_change"}, {"time": 3136, "annotation": {"number": 64, "value": 127}, "group": "control_change"}, {"time": 3165, "annotation": {"number": 64, "value": 0}, "group": "control_change"}, {"time": 3169, "annotation": {"number": 64, "value": 127}, "group": "control_change"}, {"time": 3178, "annotation": {"number": 64, "value": 0}, "group": "control_change"}, {"time": 3184, "annotation": {"number": 64, "value": 127}, "group": "control_change"}, {"time": 3202, "annotation": {"number": 64, "value": 0}, "group": "control_change"}, {"time": 3207, "annotation": {"number": 64, "value": 127}, "group": "control_change"}, {"time": 3225, "annotation": {"number": 64, "value": 0}, "group": "control_change"}, {"time": 3232, "annotation": {"number": 64, "value": 127}, "group": "control_change"}, {"time": 3263, "annotation": {"number": 64, "value": 0}, "group": "control_change"}, {"time": 3266, "annotation": {"number": 64, "value": 127}, "group": "control_change"}, {"time": 3274, "annotation": {"number": 64, "value": 0}, "group": "control_change"}, {"time": 3278, "annotation": {"number": 64, "value": 127}, "group": "control_change"}, {"time": 3298, "annotation": {"number": 64, "value": 0}, "group": "control_change"}, {"time": 3304, "annotation": {"number": 64, "value": 127}, "group": "control_change"}, {"time": 3320, "annotation": {"number": 64, "value": 0}, "group": "control_change"}, {"time": 3323, "annotation": {"number": 64, "value": 127}, "group": "control_change"}, {"time": 3333, "annotation": {"number": 64, "value": 0}, "group": "control_change"}, {"time": 3337, "annotation": {"number": 64, "value": 127}, "group": "control_change"}, {"time": 3345, "annotation": {"number": 64, "value": 0}, "group": "control_change"}, {"time": 3350, "annotation": {"number": 64, "value": 127}, "group": "control_change"}, {"time": 3369, "annotation": {"number": 64, "value": 0}, "group": "control_change"}, {"time": 3377, "annotation": {"number": 64, "value": 127}, "group": "control_change"}, {"time": 3404, "annotation": {"number": 64, "value": 0}, "group": "control_change"}, {"time": 3406, "annotation": {"number": 64, "value": 127}, "group": "control_change"}, {"time": 3416, "annotation": {"number": 64, "value": 0}, "group": "control_change"}, {"time": 3418, "annotation": {"number": 64, "value": 127}, "group": "control_change"}, {"time": 3431, "annotation": {"number": 64, "value": 127}, "group": "control_change"}, {"time": 3439, "annotation": {"number": 64, "value": 0}, "group": "control_change"}, {"time": 3442, "annotation": {"number": 64, "value": 0}, "group": "control_change"}, {"time": 3442, "annotation": {"number": 64, "value": 127}, "group": "control_change"}, {"time": 3443, "annotation": {"number": 64, "value": 127}, "group": "control_change"}, {"time": 3452, "annotation": {"number": 64, "value": 0}, "group": "control_change"}, {"time": 3454, "annotation": {"number": 64, "value": 127}, "group": "control_change"}, {"time": 3465, "annotation": {"number": 64, "value": 0}, "group": "control_change"}, {"time": 3490, "annotation": {"number": 64, "value": 0}, "group": "control_change"}, {"time": 3495, "annotation": {"number": 64, "value": 127}, "group": "control_change"}, {"time": 3514, "annotation": {"number": 64, "value": 0}, "group": "control_change"}, {"time": 3520, "annotation": {"number": 64, "value": 127}, "group": "control_change"}, {"time": 3549, "annotation": {"number": 64, "value": 0}, "group": "control_change"}, {"time": 3553, "annotation": {"number": 64, "value": 127}, "group": "control_change"}, {"time": 3562, "annotation": {"number": 64, "value": 0}, "group": "control_change"}, {"time": 3568, "annotation": {"number": 64, "value": 127}, "group": "control_change"}, {"time": 3586, "annotation": {"number": 64, "value": 0}, "group": "control_change"}, {"time": 3591, "annotation": {"number": 64, "value": 127}, "group": "control_change"}, {"time": 3609, "annotation": {"number": 64, "value": 0}, "group": "control_change"}, {"time": 3616, "annotation": {"number": 64, "value": 127}, "group": "control_change"}, {"time": 3647, "annotation": {"number": 64, "value": 0}, "group": "control_change"}, {"time": 3650, "annotation": {"number": 64, "value": 127}, "group": "control_change"}, {"time": 3658, "annotation": {"number": 64, "value": 0}, "group": "control_change"}, {"time": 3662, "annotation": {"number": 64, "value": 127}, "group": "control_change"}, {"time": 3682, "annotation": {"number": 64, "value": 0}, "group": "control_change"}, {"time": 3688, "annotation": {"number": 64, "value": 127}, "group": "control_change"}, {"time": 3704, "annotation": {"number": 64, "value": 0}, "group": "control_change"}, {"time": 3707, "annotation": {"number": 64, "value": 127}, "group": "control_change"}, {"time": 3717, "annotation": {"number": 64, "value": 0}, "group": "control_change"}, {"time": 3721, "annotation": {"number": 64, "value": 127}, "group": "control_change"}, {"time": 3729, "annotation": {"number": 64, "value": 0}, "group": "control_change"}, {"time": 3734, "annotation": {"number": 64, "value": 127}, "group": "control_change"}, {"time": 3753, "annotation": {"number": 64, "value": 0}, "group": "control_change"}, {"time": 3761, "annotation": {"number": 64, "value": 127}, "group": "control_change"}, {"time": 3788, "annotation": {"number": 64, "value": 0}, "group": "control_change"}, {"time": 3790, "annotation": {"number": 64, "value": 127}, "group": "control_change"}, {"time": 3800, "annotation": {"number": 64, "value": 0}, "group": "control_change"}, {"time": 3802, "annotation": {"number": 64, "value": 127}, "group": "control_change"}, {"time": 3815, "annotation": {"number": 64, "value": 127}, "group": "control_change"}, {"time": 3823, "annotation": {"number": 64, "value": 0}, "group": "control_change"}, {"time": 3824, "annotation": {"number": 64, "value": 127}, "group": "control_change"}, {"time": 3826, "annotation": {"number": 64, "value": 0}, "group": "control_change"}, {"time": 3826, "annotation": {"number": 64, "value": 127}, "group": "control_change"}, {"time": 3874, "annotation": {"number": 64, "value": 0}, "group": "control_change"}, {"time": 3889, "annotation": {"number": 64, "value": 127}, "group": "control_change"}, {"time": 3922, "annotation": {"number": 64, "value": 0}, "group": "control_change"}, {"time": 3930, "annotation": {"number": 64, "value": 127}, "group": "control_change"}, {"time": 3970, "annotation": {"number": 64, "value": 0}, "group": "control_change"}, {"time": 3979, "annotation": {"number": 64, "value": 127}, "group": "control_change"}, {"time": 3993, "annotation": {"number": 64, "value": 0}, "group": "control_change"}, {"time": 3996, "annotation": {"number": 64, "value": 127}, "group": "control_change"}, {"time": 4032, "annotation": {"number": 64, "value": 0}, "group": "control_change"}, {"time": 4036, "annotation": {"number": 64, "value": 127}, "group": "control_change"}, {"time": 4090, "annotation": {"number": 64, "value": 0}, "group": "control_change"}, {"time": 4093, "annotation": {"number": 64, "value": 127}, "group": "control_change"}, {"time": 4172, "annotation": {"number": 64, "value": 0}, "group": "control_change"}]}]}