{"metadata": {"schema_version": "0.2", "title": "None", "source_filename": "011.mid", "source_format": "midi"}, "resolution": 12, "tempos": [{"time": 0, "qpm": 66.00021120067584}], "time_signatures": [{"time": 0, "numerator": 2, "denominator": 4}], "tracks": [{"program": 0, "is_drum": false, "name": "MELODY", "notes": [{"time": 404, "pitch": 67, "duration": 4, "velocity": 112}, {"time": 410, "pitch": 65, "duration": 1, "velocity": 102}, {"time": 413, "pitch": 65, "duration": 4, "velocity": 100}, {"time": 419, "pitch": 63, "duration": 6, "velocity": 108}, {"time": 428, "pitch": 63, "duration": 4, "velocity": 109}, {"time": 434, "pitch": 65, "duration": 1, "velocity": 92}, {"time": 437, "pitch": 65, "duration": 5, "velocity": 108}, {"time": 443, "pitch": 63, "duration": 5, "velocity": 100}, {"time": 452, "pitch": 62, "duration": 4, "velocity": 105}, {"time": 458, "pitch": 63, "duration": 1, "velocity": 97}, {"time": 461, "pitch": 65, "duration": 8, "velocity": 100}, {"time": 470, "pitch": 62, "duration": 1, "velocity": 99}, {"time": 473, "pitch": 63, "duration": 16, "velocity": 100}, {"time": 500, "pitch": 68, "duration": 4, "velocity": 108}, {"time": 506, "pitch": 68, "duration": 1, "velocity": 94}, {"time": 509, "pitch": 68, "duration": 4, "velocity": 102}, {"time": 515, "pitch": 67, "duration": 6, "velocity": 102}, {"time": 524, "pitch": 70, "duration": 3, "velocity": 105}, {"time": 530, "pitch": 70, "duration": 1, "velocity": 100}, {"time": 533, "pitch": 70, "duration": 1, "velocity": 102}, {"time": 536, "pitch": 67, "duration": 4, "velocity": 99}, {"time": 542, "pitch": 65, "duration": 4, "velocity": 102}, {"time": 548, "pitch": 63, "duration": 5, "velocity": 105}, {"time": 557, "pitch": 63, "duration": 1, "velocity": 97}, {"time": 560, "pitch": 67, "duration": 4, "velocity": 102}, {"time": 566, "pitch": 70, "duration": 1, "velocity": 97}, {"time": 569, "pitch": 63, "duration": 4, "velocity": 111}, {"time": 575, "pitch": 65, "duration": 16, "velocity": 108}, {"time": 593, "pitch": 58, "duration": 1, "velocity": 108}, {"time": 596, "pitch": 60, "duration": 4, "velocity": 100}, {"time": 602, "pitch": 63, "duration": 4, "velocity": 100}, {"time": 608, "pitch": 63, "duration": 1, "velocity": 97}, {"time": 611, "pitch": 67, "duration": 7, "velocity": 109}, {"time": 620, "pitch": 65, "duration": 10, "velocity": 102}, {"time": 641, "pitch": 58, "duration": 1, "velocity": 105}, {"time": 644, "pitch": 67, "duration": 4, "velocity": 109}, {"time": 650, "pitch": 68, "duration": 1, "velocity": 94}, {"time": 653, "pitch": 67, "duration": 3, "velocity": 112}, {"time": 659, "pitch": 65, "duration": 4, "velocity": 108}, {"time": 665, "pitch": 62, "duration": 1, "velocity": 102}, {"time": 668, "pitch": 63, "duration": 12, "velocity": 94}, {"time": 689, "pitch": 58, "duration": 2, "velocity": 92}, {"time": 692, "pitch": 60, "duration": 4, "velocity": 105}, {"time": 698, "pitch": 63, "duration": 1, "velocity": 89}, {"time": 701, "pitch": 65, "duration": 3, "velocity": 100}, {"time": 707, "pitch": 67, "duration": 3, "velocity": 102}, {"time": 713, "pitch": 58, "duration": 14, "velocity": 108}, {"time": 737, "pitch": 58, "duration": 1, "velocity": 105}, {"time": 740, "pitch": 60, "duration": 3, "velocity": 108}, {"time": 746, "pitch": 63, "duration": 4, "velocity": 105}, {"time": 752, "pitch": 63, "duration": 1, "velocity": 105}, {"time": 755, "pitch": 60, "duration": 8, "velocity": 102}, {"time": 764, "pitch": 58, "duration": 18, "velocity": 102}, {"time": 812, "pitch": 58, "duration": 4, "velocity": 111}, {"time": 818, "pitch": 63, "duration": 1, "velocity": 94}, {"time": 821, "pitch": 63, "duration": 7, "velocity": 105}, {"time": 830, "pitch": 67, "duration": 4, "velocity": 102}, {"time": 836, "pitch": 68, "duration": 4, "velocity": 105}, {"time": 842, "pitch": 67, "duration": 1, "velocity": 109}, {"time": 845, "pitch": 65, "duration": 4, "velocity": 97}, {"time": 851, "pitch": 63, "duration": 4, "velocity": 102}, {"time": 860, "pitch": 62, "duration": 4, "velocity": 102}, {"time": 866, "pitch": 63, "duration": 1, "velocity": 97}, {"time": 869, "pitch": 65, "duration": 7, "velocity": 100}, {"time": 878, "pitch": 62, "duration": 2, "velocity": 96}, {"time": 881, "pitch": 63, "duration": 15, "velocity": 89}, {"time": 908, "pitch": 68, "duration": 3, "velocity": 100}, {"time": 914, "pitch": 68, "duration": 1, "velocity": 94}, {"time": 917, "pitch": 68, "duration": 4, "velocity": 102}, {"time": 923, "pitch": 67, "duration": 4, "velocity": 109}, {"time": 932, "pitch": 70, "duration": 3, "velocity": 100}, {"time": 938, "pitch": 70, "duration": 1, "velocity": 102}, {"time": 941, "pitch": 67, "duration": 4, "velocity": 100}, {"time": 947, "pitch": 65, "duration": 1, "velocity": 52}, {"time": 950, "pitch": 63, "duration": 4, "velocity": 82}, {"time": 956, "pitch": 63, "duration": 6, "velocity": 102}, {"time": 965, "pitch": 63, "duration": 1, "velocity": 105}, {"time": 968, "pitch": 67, "duration": 3, "velocity": 109}, {"time": 974, "pitch": 70, "duration": 1, "velocity": 100}, {"time": 977, "pitch": 63, "duration": 3, "velocity": 80}, {"time": 983, "pitch": 65, "duration": 10, "velocity": 102}, {"time": 1004, "pitch": 60, "duration": 4, "velocity": 111}, {"time": 1010, "pitch": 63, "duration": 3, "velocity": 108}, {"time": 1016, "pitch": 63, "duration": 1, "velocity": 100}, {"time": 1019, "pitch": 67, "duration": 7, "velocity": 109}, {"time": 1028, "pitch": 65, "duration": 13, "velocity": 108}, {"time": 1049, "pitch": 58, "duration": 1, "velocity": 105}, {"time": 1052, "pitch": 67, "duration": 4, "velocity": 109}, {"time": 1058, "pitch": 68, "duration": 1, "velocity": 97}, {"time": 1061, "pitch": 67, "duration": 3, "velocity": 109}, {"time": 1067, "pitch": 65, "duration": 3, "velocity": 105}, {"time": 1073, "pitch": 62, "duration": 1, "velocity": 96}, {"time": 1076, "pitch": 62, "duration": 4, "velocity": 102}, {"time": 1082, "pitch": 65, "duration": 1, "velocity": 94}, {"time": 1085, "pitch": 63, "duration": 7, "velocity": 102}, {"time": 1097, "pitch": 58, "duration": 1, "velocity": 94}, {"time": 1100, "pitch": 60, "duration": 4, "velocity": 92}, {"time": 1106, "pitch": 63, "duration": 1, "velocity": 94}, {"time": 1109, "pitch": 65, "duration": 3, "velocity": 102}, {"time": 1115, "pitch": 67, "duration": 4, "velocity": 102}, {"time": 1121, "pitch": 58, "duration": 12, "velocity": 111}, {"time": 1145, "pitch": 58, "duration": 1, "velocity": 102}, {"time": 1148, "pitch": 60, "duration": 4, "velocity": 108}, {"time": 1154, "pitch": 63, "duration": 1, "velocity": 97}, {"time": 1157, "pitch": 63, "duration": 3, "velocity": 102}, {"time": 1163, "pitch": 72, "duration": 7, "velocity": 105}, {"time": 1172, "pitch": 70, "duration": 27, "velocity": 102}, {"time": 1202, "pitch": 63, "duration": 4, "velocity": 102}, {"time": 1208, "pitch": 67, "duration": 4, "velocity": 109}, {"time": 1214, "pitch": 75, "duration": 4, "velocity": 114}, {"time": 1220, "pitch": 74, "duration": 8, "velocity": 108}, {"time": 1229, "pitch": 72, "duration": 12, "velocity": 92}, {"time": 1244, "pitch": 70, "duration": 4, "velocity": 102}, {"time": 1250, "pitch": 68, "duration": 1, "velocity": 80}, {"time": 1253, "pitch": 68, "duration": 10, "velocity": 108}, {"time": 1268, "pitch": 65, "duration": 4, "velocity": 105}, {"time": 1274, "pitch": 72, "duration": 4, "velocity": 102}, {"time": 1280, "pitch": 70, "duration": 1, "velocity": 100}, {"time": 1283, "pitch": 65, "duration": 6, "velocity": 100}, {"time": 1289, "pitch": 67, "duration": 12, "velocity": 105}, {"time": 1304, "pitch": 63, "duration": 4, "velocity": 105}, {"time": 1309, "pitch": 65, "duration": 1, "velocity": 100}, {"time": 1312, "pitch": 67, "duration": 2, "velocity": 105}, {"time": 1316, "pitch": 70, "duration": 7, "velocity": 105}, {"time": 1325, "pitch": 68, "duration": 14, "velocity": 97}, {"time": 1339, "pitch": 67, "duration": 10, "velocity": 109}, {"time": 1350, "pitch": 63, "duration": 7, "velocity": 97}, {"time": 1361, "pitch": 58, "duration": 1, "velocity": 111}, {"time": 1364, "pitch": 60, "duration": 4, "velocity": 111}, {"time": 1370, "pitch": 67, "duration": 2, "velocity": 105}, {"time": 1373, "pitch": 65, "duration": 1, "velocity": 94}, {"time": 1376, "pitch": 65, "duration": 4, "velocity": 105}, {"time": 1382, "pitch": 63, "duration": 3, "velocity": 94}, {"time": 1385, "pitch": 65, "duration": 9, "velocity": 108}, {"time": 1394, "pitch": 63, "duration": 4, "velocity": 111}, {"time": 1400, "pitch": 67, "duration": 4, "velocity": 109}, {"time": 1406, "pitch": 75, "duration": 3, "velocity": 111}, {"time": 1412, "pitch": 74, "duration": 7, "velocity": 105}, {"time": 1421, "pitch": 75, "duration": 12, "velocity": 105}, {"time": 1436, "pitch": 77, "duration": 7, "velocity": 111}, {"time": 1445, "pitch": 75, "duration": 9, "velocity": 102}, {"time": 1460, "pitch": 74, "duration": 4, "velocity": 102}, {"time": 1466, "pitch": 74, "duration": 1, "velocity": 99}, {"time": 1469, "pitch": 74, "duration": 4, "velocity": 102}, {"time": 1475, "pitch": 74, "duration": 7, "velocity": 99}, {"time": 1484, "pitch": 75, "duration": 8, "velocity": 76}, {"time": 1496, "pitch": 63, "duration": 4, "velocity": 111}, {"time": 1502, "pitch": 65, "duration": 1, "velocity": 105}, {"time": 1505, "pitch": 67, "duration": 1, "velocity": 99}, {"time": 1508, "pitch": 70, "duration": 7, "velocity": 102}, {"time": 1517, "pitch": 68, "duration": 8, "velocity": 102}, {"time": 1526, "pitch": 67, "duration": 1, "velocity": 105}, {"time": 1529, "pitch": 68, "duration": 1, "velocity": 94}, {"time": 1532, "pitch": 72, "duration": 5, "velocity": 111}, {"time": 1538, "pitch": 70, "duration": 3, "velocity": 114}, {"time": 1544, "pitch": 70, "duration": 1, "velocity": 111}, {"time": 1547, "pitch": 67, "duration": 7, "velocity": 112}, {"time": 1556, "pitch": 70, "duration": 24, "velocity": 102}, {"time": 1586, "pitch": 63, "duration": 4, "velocity": 102}, {"time": 1592, "pitch": 67, "duration": 4, "velocity": 109}, {"time": 1598, "pitch": 75, "duration": 4, "velocity": 114}, {"time": 1604, "pitch": 74, "duration": 8, "velocity": 108}, {"time": 1613, "pitch": 72, "duration": 12, "velocity": 92}, {"time": 1628, "pitch": 70, "duration": 4, "velocity": 102}, {"time": 1634, "pitch": 68, "duration": 1, "velocity": 80}, {"time": 1637, "pitch": 68, "duration": 10, "velocity": 108}, {"time": 1652, "pitch": 65, "duration": 4, "velocity": 105}, {"time": 1658, "pitch": 72, "duration": 4, "velocity": 102}, {"time": 1664, "pitch": 70, "duration": 1, "velocity": 100}, {"time": 1667, "pitch": 65, "duration": 7, "velocity": 100}, {"time": 1676, "pitch": 67, "duration": 9, "velocity": 105}, {"time": 1688, "pitch": 63, "duration": 4, "velocity": 105}, {"time": 1694, "pitch": 65, "duration": 1, "velocity": 100}, {"time": 1697, "pitch": 67, "duration": 2, "velocity": 105}, {"time": 1700, "pitch": 70, "duration": 7, "velocity": 105}, {"time": 1709, "pitch": 68, "duration": 7, "velocity": 97}, {"time": 1724, "pitch": 67, "duration": 9, "velocity": 109}, {"time": 1736, "pitch": 63, "duration": 7, "velocity": 97}, {"time": 1745, "pitch": 58, "duration": 1, "velocity": 111}, {"time": 1748, "pitch": 60, "duration": 4, "velocity": 111}, {"time": 1754, "pitch": 67, "duration": 2, "velocity": 105}, {"time": 1757, "pitch": 65, "duration": 1, "velocity": 94}, {"time": 1760, "pitch": 65, "duration": 4, "velocity": 105}, {"time": 1766, "pitch": 63, "duration": 3, "velocity": 94}, {"time": 1769, "pitch": 65, "duration": 9, "velocity": 108}, {"time": 1778, "pitch": 63, "duration": 4, "velocity": 111}, {"time": 1784, "pitch": 67, "duration": 4, "velocity": 109}, {"time": 1790, "pitch": 75, "duration": 3, "velocity": 111}, {"time": 1796, "pitch": 74, "duration": 7, "velocity": 105}, {"time": 1805, "pitch": 75, "duration": 12, "velocity": 105}, {"time": 1820, "pitch": 77, "duration": 7, "velocity": 111}, {"time": 1829, "pitch": 75, "duration": 9, "velocity": 102}, {"time": 1841, "pitch": 75, "duration": 3, "velocity": 100}, {"time": 1844, "pitch": 74, "duration": 4, "velocity": 102}, {"time": 1850, "pitch": 70, "duration": 1, "velocity": 99}, {"time": 1853, "pitch": 70, "duration": 4, "velocity": 102}, {"time": 1859, "pitch": 77, "duration": 7, "velocity": 111}, {"time": 1868, "pitch": 75, "duration": 8, "velocity": 97}, {"time": 1880, "pitch": 63, "duration": 3, "velocity": 84}, {"time": 1886, "pitch": 65, "duration": 1, "velocity": 108}, {"time": 1889, "pitch": 67, "duration": 2, "velocity": 96}, {"time": 1892, "pitch": 67, "duration": 6, "velocity": 99}, {"time": 1901, "pitch": 60, "duration": 7, "velocity": 105}, {"time": 1913, "pitch": 60, "duration": 1, "velocity": 111}, {"time": 1916, "pitch": 58, "duration": 4, "velocity": 100}, {"time": 1922, "pitch": 63, "duration": 4, "velocity": 108}, {"time": 1928, "pitch": 62, "duration": 1, "velocity": 109}, {"time": 1931, "pitch": 65, "duration": 7, "velocity": 92}, {"time": 1940, "pitch": 63, "duration": 35, "velocity": 108}, {"time": 2372, "pitch": 58, "duration": 4, "velocity": 111}, {"time": 2378, "pitch": 63, "duration": 1, "velocity": 94}, {"time": 2381, "pitch": 63, "duration": 7, "velocity": 105}, {"time": 2390, "pitch": 67, "duration": 4, "velocity": 102}, {"time": 2396, "pitch": 68, "duration": 4, "velocity": 105}, {"time": 2402, "pitch": 67, "duration": 1, "velocity": 109}, {"time": 2405, "pitch": 65, "duration": 4, "velocity": 97}, {"time": 2411, "pitch": 63, "duration": 4, "velocity": 102}, {"time": 2420, "pitch": 62, "duration": 4, "velocity": 102}, {"time": 2426, "pitch": 63, "duration": 1, "velocity": 97}, {"time": 2429, "pitch": 65, "duration": 7, "velocity": 100}, {"time": 2438, "pitch": 62, "duration": 2, "velocity": 96}, {"time": 2441, "pitch": 63, "duration": 15, "velocity": 89}, {"time": 2468, "pitch": 68, "duration": 3, "velocity": 100}, {"time": 2474, "pitch": 68, "duration": 1, "velocity": 94}, {"time": 2477, "pitch": 68, "duration": 4, "velocity": 102}, {"time": 2483, "pitch": 67, "duration": 4, "velocity": 109}, {"time": 2492, "pitch": 70, "duration": 3, "velocity": 100}, {"time": 2498, "pitch": 70, "duration": 1, "velocity": 102}, {"time": 2501, "pitch": 67, "duration": 4, "velocity": 100}, {"time": 2507, "pitch": 65, "duration": 1, "velocity": 52}, {"time": 2510, "pitch": 63, "duration": 4, "velocity": 82}, {"time": 2516, "pitch": 63, "duration": 6, "velocity": 102}, {"time": 2525, "pitch": 63, "duration": 1, "velocity": 105}, {"time": 2528, "pitch": 67, "duration": 3, "velocity": 109}, {"time": 2534, "pitch": 70, "duration": 1, "velocity": 100}, {"time": 2537, "pitch": 63, "duration": 3, "velocity": 80}, {"time": 2543, "pitch": 65, "duration": 10, "velocity": 102}, {"time": 2564, "pitch": 60, "duration": 4, "velocity": 111}, {"time": 2570, "pitch": 63, "duration": 3, "velocity": 108}, {"time": 2576, "pitch": 63, "duration": 1, "velocity": 100}, {"time": 2579, "pitch": 67, "duration": 7, "velocity": 109}, {"time": 2588, "pitch": 65, "duration": 13, "velocity": 108}, {"time": 2609, "pitch": 58, "duration": 1, "velocity": 105}, {"time": 2612, "pitch": 67, "duration": 4, "velocity": 109}, {"time": 2618, "pitch": 68, "duration": 1, "velocity": 97}, {"time": 2621, "pitch": 67, "duration": 3, "velocity": 109}, {"time": 2627, "pitch": 65, "duration": 3, "velocity": 105}, {"time": 2633, "pitch": 62, "duration": 1, "velocity": 96}, {"time": 2636, "pitch": 62, "duration": 4, "velocity": 102}, {"time": 2642, "pitch": 65, "duration": 1, "velocity": 94}, {"time": 2645, "pitch": 63, "duration": 7, "velocity": 102}, {"time": 2657, "pitch": 58, "duration": 1, "velocity": 94}, {"time": 2660, "pitch": 60, "duration": 4, "velocity": 92}, {"time": 2666, "pitch": 63, "duration": 1, "velocity": 94}, {"time": 2669, "pitch": 65, "duration": 3, "velocity": 102}, {"time": 2675, "pitch": 67, "duration": 4, "velocity": 102}, {"time": 2681, "pitch": 58, "duration": 12, "velocity": 111}, {"time": 2705, "pitch": 58, "duration": 1, "velocity": 102}, {"time": 2708, "pitch": 60, "duration": 4, "velocity": 108}, {"time": 2714, "pitch": 63, "duration": 1, "velocity": 97}, {"time": 2717, "pitch": 63, "duration": 3, "velocity": 102}, {"time": 2723, "pitch": 72, "duration": 7, "velocity": 105}, {"time": 2732, "pitch": 70, "duration": 27, "velocity": 102}, {"time": 2762, "pitch": 63, "duration": 4, "velocity": 102}, {"time": 2768, "pitch": 67, "duration": 4, "velocity": 109}, {"time": 2774, "pitch": 75, "duration": 4, "velocity": 114}, {"time": 2780, "pitch": 74, "duration": 8, "velocity": 108}, {"time": 2789, "pitch": 72, "duration": 12, "velocity": 92}, {"time": 2804, "pitch": 70, "duration": 4, "velocity": 102}, {"time": 2810, "pitch": 68, "duration": 1, "velocity": 80}, {"time": 2813, "pitch": 68, "duration": 10, "velocity": 108}, {"time": 2828, "pitch": 65, "duration": 4, "velocity": 105}, {"time": 2834, "pitch": 72, "duration": 4, "velocity": 102}, {"time": 2840, "pitch": 70, "duration": 1, "velocity": 100}, {"time": 2843, "pitch": 65, "duration": 7, "velocity": 100}, {"time": 2852, "pitch": 67, "duration": 9, "velocity": 105}, {"time": 2864, "pitch": 63, "duration": 4, "velocity": 105}, {"time": 2870, "pitch": 65, "duration": 1, "velocity": 100}, {"time": 2873, "pitch": 67, "duration": 2, "velocity": 105}, {"time": 2876, "pitch": 70, "duration": 7, "velocity": 105}, {"time": 2885, "pitch": 68, "duration": 7, "velocity": 97}, {"time": 2900, "pitch": 67, "duration": 9, "velocity": 109}, {"time": 2912, "pitch": 63, "duration": 7, "velocity": 97}, {"time": 2921, "pitch": 58, "duration": 1, "velocity": 111}, {"time": 2924, "pitch": 60, "duration": 4, "velocity": 111}, {"time": 2930, "pitch": 67, "duration": 2, "velocity": 105}, {"time": 2933, "pitch": 65, "duration": 1, "velocity": 94}, {"time": 2936, "pitch": 65, "duration": 4, "velocity": 105}, {"time": 2942, "pitch": 63, "duration": 3, "velocity": 94}, {"time": 2945, "pitch": 65, "duration": 9, "velocity": 108}, {"time": 2954, "pitch": 63, "duration": 4, "velocity": 111}, {"time": 2960, "pitch": 67, "duration": 4, "velocity": 109}, {"time": 2966, "pitch": 75, "duration": 3, "velocity": 111}, {"time": 2972, "pitch": 74, "duration": 7, "velocity": 105}, {"time": 2981, "pitch": 75, "duration": 12, "velocity": 105}, {"time": 2996, "pitch": 77, "duration": 7, "velocity": 111}, {"time": 3005, "pitch": 75, "duration": 9, "velocity": 102}, {"time": 3020, "pitch": 74, "duration": 4, "velocity": 102}, {"time": 3026, "pitch": 74, "duration": 1, "velocity": 99}, {"time": 3029, "pitch": 74, "duration": 4, "velocity": 102}, {"time": 3035, "pitch": 74, "duration": 7, "velocity": 99}, {"time": 3044, "pitch": 75, "duration": 8, "velocity": 76}, {"time": 3056, "pitch": 63, "duration": 4, "velocity": 111}, {"time": 3062, "pitch": 65, "duration": 1, "velocity": 105}, {"time": 3065, "pitch": 67, "duration": 1, "velocity": 99}, {"time": 3068, "pitch": 70, "duration": 7, "velocity": 102}, {"time": 3077, "pitch": 68, "duration": 8, "velocity": 102}, {"time": 3086, "pitch": 67, "duration": 1, "velocity": 105}, {"time": 3089, "pitch": 68, "duration": 1, "velocity": 94}, {"time": 3092, "pitch": 72, "duration": 5, "velocity": 111}, {"time": 3098, "pitch": 70, "duration": 3, "velocity": 114}, {"time": 3104, "pitch": 70, "duration": 1, "velocity": 111}, {"time": 3107, "pitch": 67, "duration": 7, "velocity": 112}, {"time": 3116, "pitch": 70, "duration": 24, "velocity": 102}, {"time": 3146, "pitch": 63, "duration": 4, "velocity": 102}, {"time": 3152, "pitch": 67, "duration": 4, "velocity": 109}, {"time": 3158, "pitch": 75, "duration": 4, "velocity": 114}, {"time": 3164, "pitch": 74, "duration": 8, "velocity": 108}, {"time": 3173, "pitch": 72, "duration": 12, "velocity": 92}, {"time": 3188, "pitch": 70, "duration": 4, "velocity": 102}, {"time": 3194, "pitch": 68, "duration": 1, "velocity": 80}, {"time": 3197, "pitch": 68, "duration": 10, "velocity": 108}, {"time": 3212, "pitch": 65, "duration": 4, "velocity": 105}, {"time": 3218, "pitch": 72, "duration": 4, "velocity": 102}, {"time": 3224, "pitch": 70, "duration": 1, "velocity": 100}, {"time": 3227, "pitch": 65, "duration": 7, "velocity": 100}, {"time": 3236, "pitch": 67, "duration": 9, "velocity": 105}, {"time": 3248, "pitch": 63, "duration": 4, "velocity": 105}, {"time": 3254, "pitch": 65, "duration": 1, "velocity": 100}, {"time": 3257, "pitch": 67, "duration": 2, "velocity": 105}, {"time": 3260, "pitch": 70, "duration": 7, "velocity": 105}, {"time": 3269, "pitch": 68, "duration": 7, "velocity": 97}, {"time": 3284, "pitch": 67, "duration": 9, "velocity": 109}, {"time": 3296, "pitch": 63, "duration": 7, "velocity": 97}, {"time": 3305, "pitch": 58, "duration": 1, "velocity": 111}, {"time": 3308, "pitch": 60, "duration": 4, "velocity": 111}, {"time": 3314, "pitch": 67, "duration": 2, "velocity": 105}, {"time": 3317, "pitch": 65, "duration": 1, "velocity": 94}, {"time": 3320, "pitch": 65, "duration": 4, "velocity": 105}, {"time": 3326, "pitch": 63, "duration": 3, "velocity": 94}, {"time": 3329, "pitch": 65, "duration": 9, "velocity": 108}, {"time": 3338, "pitch": 63, "duration": 4, "velocity": 111}, {"time": 3344, "pitch": 67, "duration": 4, "velocity": 109}, {"time": 3350, "pitch": 75, "duration": 3, "velocity": 111}, {"time": 3356, "pitch": 74, "duration": 7, "velocity": 105}, {"time": 3365, "pitch": 75, "duration": 12, "velocity": 105}, {"time": 3380, "pitch": 77, "duration": 7, "velocity": 111}, {"time": 3389, "pitch": 75, "duration": 9, "velocity": 102}, {"time": 3401, "pitch": 75, "duration": 3, "velocity": 100}, {"time": 3404, "pitch": 74, "duration": 4, "velocity": 102}, {"time": 3410, "pitch": 70, "duration": 1, "velocity": 99}, {"time": 3413, "pitch": 70, "duration": 4, "velocity": 102}, {"time": 3419, "pitch": 77, "duration": 7, "velocity": 111}, {"time": 3428, "pitch": 75, "duration": 8, "velocity": 97}, {"time": 3440, "pitch": 63, "duration": 3, "velocity": 84}, {"time": 3446, "pitch": 65, "duration": 1, "velocity": 108}, {"time": 3449, "pitch": 67, "duration": 2, "velocity": 96}, {"time": 3452, "pitch": 67, "duration": 6, "velocity": 99}, {"time": 3461, "pitch": 60, "duration": 7, "velocity": 105}, {"time": 3473, "pitch": 60, "duration": 1, "velocity": 111}, {"time": 3476, "pitch": 58, "duration": 4, "velocity": 100}, {"time": 3482, "pitch": 63, "duration": 4, "velocity": 108}, {"time": 3488, "pitch": 62, "duration": 1, "velocity": 109}, {"time": 3491, "pitch": 65, "duration": 7, "velocity": 92}, {"time": 3500, "pitch": 63, "duration": 24, "velocity": 108}, {"time": 3530, "pitch": 63, "duration": 4, "velocity": 102}, {"time": 3536, "pitch": 67, "duration": 4, "velocity": 109}, {"time": 3542, "pitch": 75, "duration": 4, "velocity": 114}, {"time": 3548, "pitch": 74, "duration": 8, "velocity": 108}, {"time": 3557, "pitch": 72, "duration": 12, "velocity": 92}, {"time": 3572, "pitch": 70, "duration": 4, "velocity": 102}, {"time": 3578, "pitch": 68, "duration": 1, "velocity": 80}, {"time": 3581, "pitch": 68, "duration": 10, "velocity": 108}, {"time": 3596, "pitch": 65, "duration": 4, "velocity": 105}, {"time": 3602, "pitch": 72, "duration": 4, "velocity": 102}, {"time": 3608, "pitch": 70, "duration": 1, "velocity": 100}, {"time": 3611, "pitch": 65, "duration": 7, "velocity": 100}, {"time": 3620, "pitch": 67, "duration": 9, "velocity": 105}, {"time": 3632, "pitch": 63, "duration": 4, "velocity": 105}, {"time": 3638, "pitch": 65, "duration": 1, "velocity": 100}, {"time": 3641, "pitch": 67, "duration": 2, "velocity": 105}, {"time": 3644, "pitch": 70, "duration": 7, "velocity": 105}, {"time": 3653, "pitch": 68, "duration": 7, "velocity": 97}, {"time": 3668, "pitch": 67, "duration": 9, "velocity": 109}, {"time": 3680, "pitch": 63, "duration": 7, "velocity": 97}, {"time": 3689, "pitch": 58, "duration": 1, "velocity": 111}, {"time": 3692, "pitch": 60, "duration": 4, "velocity": 111}, {"time": 3698, "pitch": 67, "duration": 2, "velocity": 105}, {"time": 3701, "pitch": 65, "duration": 1, "velocity": 94}, {"time": 3704, "pitch": 65, "duration": 4, "velocity": 105}, {"time": 3710, "pitch": 63, "duration": 3, "velocity": 94}, {"time": 3713, "pitch": 65, "duration": 9, "velocity": 108}, {"time": 3722, "pitch": 63, "duration": 4, "velocity": 111}, {"time": 3728, "pitch": 67, "duration": 4, "velocity": 109}, {"time": 3734, "pitch": 75, "duration": 3, "velocity": 111}, {"time": 3740, "pitch": 74, "duration": 7, "velocity": 105}, {"time": 3749, "pitch": 75, "duration": 12, "velocity": 105}, {"time": 3764, "pitch": 77, "duration": 7, "velocity": 111}, {"time": 3773, "pitch": 75, "duration": 9, "velocity": 102}, {"time": 3785, "pitch": 75, "duration": 3, "velocity": 100}, {"time": 3788, "pitch": 74, "duration": 4, "velocity": 102}, {"time": 3794, "pitch": 70, "duration": 1, "velocity": 99}, {"time": 3797, "pitch": 70, "duration": 4, "velocity": 102}, {"time": 3803, "pitch": 77, "duration": 7, "velocity": 111}, {"time": 3812, "pitch": 75, "duration": 8, "velocity": 97}, {"time": 3824, "pitch": 63, "duration": 3, "velocity": 84}, {"time": 3830, "pitch": 65, "duration": 1, "velocity": 108}, {"time": 3833, "pitch": 67, "duration": 2, "velocity": 96}, {"time": 3836, "pitch": 67, "duration": 6, "velocity": 99}, {"time": 3845, "pitch": 60, "duration": 7, "velocity": 105}, {"time": 3857, "pitch": 60, "duration": 1, "velocity": 111}, {"time": 3860, "pitch": 58, "duration": 4, "velocity": 100}, {"time": 3866, "pitch": 63, "duration": 4, "velocity": 108}, {"time": 3872, "pitch": 62, "duration": 1, "velocity": 109}, {"time": 3875, "pitch": 65, "duration": 7, "velocity": 92}, {"time": 3884, "pitch": 63, "duration": 35, "velocity": 108}, {"time": 3920, "pitch": 63, "duration": 3, "velocity": 84}, {"time": 3926, "pitch": 65, "duration": 1, "velocity": 108}, {"time": 3929, "pitch": 67, "duration": 2, "velocity": 96}, {"time": 3932, "pitch": 67, "duration": 6, "velocity": 99}, {"time": 3941, "pitch": 60, "duration": 7, "velocity": 105}, {"time": 3953, "pitch": 60, "duration": 1, "velocity": 111}, {"time": 3956, "pitch": 58, "duration": 4, "velocity": 100}, {"time": 3962, "pitch": 62, "duration": 4, "velocity": 108}, {"time": 3968, "pitch": 62, "duration": 1, "velocity": 109}, {"time": 3971, "pitch": 65, "duration": 7, "velocity": 92}, {"time": 3980, "pitch": 63, "duration": 35, "velocity": 108}]}, {"program": 0, "is_drum": false, "name": "PIANO", "notes": [{"time": 20, "pitch": 51, "duration": 27, "velocity": 97}, {"time": 20, "pitch": 63, "duration": 8, "velocity": 62}, {"time": 20, "pitch": 67, "duration": 13, "velocity": 38}, {"time": 26, "pitch": 58, "duration": 14, "velocity": 76}, {"time": 32, "pitch": 63, "duration": 4, "velocity": 94}, {"time": 38, "pitch": 63, "duration": 21, "velocity": 82}, {"time": 38, "pitch": 67, "duration": 21, "velocity": 68}, {"time": 68, "pitch": 48, "duration": 38, "velocity": 78}, {"time": 68, "pitch": 60, "duration": 11, "velocity": 67}, {"time": 68, "pitch": 63, "duration": 11, "velocity": 78}, {"time": 74, "pitch": 55, "duration": 10, "velocity": 41}, {"time": 80, "pitch": 60, "duration": 9, "velocity": 92}, {"time": 86, "pitch": 55, "duration": 18, "velocity": 42}, {"time": 92, "pitch": 60, "duration": 12, "velocity": 69}, {"time": 92, "pitch": 67, "duration": 11, "velocity": 42}, {"time": 116, "pitch": 44, "duration": 39, "velocity": 92}, {"time": 116, "pitch": 56, "duration": 7, "velocity": 58}, {"time": 116, "pitch": 63, "duration": 13, "velocity": 76}, {"time": 122, "pitch": 51, "duration": 14, "velocity": 48}, {"time": 128, "pitch": 56, "duration": 13, "velocity": 87}, {"time": 134, "pitch": 63, "duration": 14, "velocity": 46}, {"time": 140, "pitch": 51, "duration": 14, "velocity": 53}, {"time": 146, "pitch": 56, "duration": 1, "velocity": 18}, {"time": 152, "pitch": 56, "duration": 4, "velocity": 80}, {"time": 152, "pitch": 60, "duration": 6, "velocity": 84}, {"time": 158, "pitch": 51, "duration": 4, "velocity": 57}, {"time": 164, "pitch": 46, "duration": 27, "velocity": 97}, {"time": 164, "pitch": 58, "duration": 7, "velocity": 82}, {"time": 164, "pitch": 62, "duration": 15, "velocity": 85}, {"time": 170, "pitch": 53, "duration": 6, "velocity": 51}, {"time": 176, "pitch": 58, "duration": 21, "velocity": 82}, {"time": 182, "pitch": 65, "duration": 16, "velocity": 87}, {"time": 188, "pitch": 70, "duration": 13, "velocity": 87}, {"time": 194, "pitch": 53, "duration": 7, "velocity": 42}, {"time": 200, "pitch": 58, "duration": 4, "velocity": 71}, {"time": 200, "pitch": 62, "duration": 4, "velocity": 41}, {"time": 212, "pitch": 51, "duration": 39, "velocity": 94}, {"time": 212, "pitch": 63, "duration": 19, "velocity": 60}, {"time": 212, "pitch": 67, "duration": 13, "velocity": 57}, {"time": 218, "pitch": 58, "duration": 8, "velocity": 73}, {"time": 224, "pitch": 65, "duration": 11, "velocity": 87}, {"time": 230, "pitch": 58, "duration": 9, "velocity": 69}, {"time": 236, "pitch": 63, "duration": 9, "velocity": 71}, {"time": 236, "pitch": 70, "duration": 10, "velocity": 92}, {"time": 242, "pitch": 58, "duration": 10, "velocity": 50}, {"time": 248, "pitch": 63, "duration": 4, "velocity": 82}, {"time": 248, "pitch": 67, "duration": 5, "velocity": 90}, {"time": 260, "pitch": 53, "duration": 22, "velocity": 89}, {"time": 260, "pitch": 63, "duration": 7, "velocity": 73}, {"time": 260, "pitch": 68, "duration": 14, "velocity": 80}, {"time": 266, "pitch": 60, "duration": 7, "velocity": 73}, {"time": 272, "pitch": 63, "duration": 27, "velocity": 89}, {"time": 278, "pitch": 68, "duration": 25, "velocity": 78}, {"time": 284, "pitch": 72, "duration": 18, "velocity": 84}, {"time": 296, "pitch": 53, "duration": 3, "velocity": 80}, {"time": 296, "pitch": 60, "duration": 2, "velocity": 89}, {"time": 308, "pitch": 46, "duration": 14, "velocity": 94}, {"time": 308, "pitch": 58, "duration": 20, "velocity": 71}, {"time": 308, "pitch": 62, "duration": 12, "velocity": 41}, {"time": 314, "pitch": 53, "duration": 7, "velocity": 57}, {"time": 320, "pitch": 65, "duration": 9, "velocity": 89}, {"time": 326, "pitch": 46, "duration": 25, "velocity": 36}, {"time": 326, "pitch": 53, "duration": 9, "velocity": 47}, {"time": 332, "pitch": 58, "duration": 10, "velocity": 80}, {"time": 332, "pitch": 62, "duration": 9, "velocity": 65}, {"time": 332, "pitch": 70, "duration": 24, "velocity": 92}, {"time": 338, "pitch": 53, "duration": 9, "velocity": 57}, {"time": 344, "pitch": 58, "duration": 5, "velocity": 87}, {"time": 344, "pitch": 62, "duration": 5, "velocity": 79}, {"time": 344, "pitch": 65, "duration": 5, "velocity": 89}, {"time": 350, "pitch": 53, "duration": 2, "velocity": 60}, {"time": 356, "pitch": 51, "duration": 46, "velocity": 80}, {"time": 356, "pitch": 63, "duration": 13, "velocity": 73}, {"time": 362, "pitch": 58, "duration": 7, "velocity": 69}, {"time": 368, "pitch": 65, "duration": 9, "velocity": 80}, {"time": 374, "pitch": 58, "duration": 27, "velocity": 52}, {"time": 380, "pitch": 63, "duration": 19, "velocity": 66}, {"time": 380, "pitch": 67, "duration": 19, "velocity": 52}, {"time": 404, "pitch": 51, "duration": 38, "velocity": 92}, {"time": 404, "pitch": 63, "duration": 16, "velocity": 73}, {"time": 404, "pitch": 67, "duration": 16, "velocity": 61}, {"time": 410, "pitch": 58, "duration": 8, "velocity": 62}, {"time": 416, "pitch": 65, "duration": 7, "velocity": 92}, {"time": 422, "pitch": 58, "duration": 8, "velocity": 51}, {"time": 428, "pitch": 63, "duration": 8, "velocity": 73}, {"time": 428, "pitch": 70, "duration": 7, "velocity": 92}, {"time": 434, "pitch": 58, "duration": 9, "velocity": 51}, {"time": 440, "pitch": 63, "duration": 2, "velocity": 87}, {"time": 440, "pitch": 67, "duration": 2, "velocity": 87}, {"time": 452, "pitch": 43, "duration": 12, "velocity": 68}, {"time": 452, "pitch": 55, "duration": 9, "velocity": 43}, {"time": 452, "pitch": 58, "duration": 7, "velocity": 94}, {"time": 452, "pitch": 62, "duration": 9, "velocity": 55}, {"time": 458, "pitch": 50, "duration": 6, "velocity": 40}, {"time": 464, "pitch": 55, "duration": 2, "velocity": 79}, {"time": 464, "pitch": 58, "duration": 2, "velocity": 97}, {"time": 476, "pitch": 48, "duration": 15, "velocity": 84}, {"time": 476, "pitch": 60, "duration": 12, "velocity": 66}, {"time": 476, "pitch": 63, "duration": 13, "velocity": 73}, {"time": 482, "pitch": 55, "duration": 8, "velocity": 44}, {"time": 488, "pitch": 67, "duration": 7, "velocity": 96}, {"time": 494, "pitch": 60, "duration": 2, "velocity": 78}, {"time": 500, "pitch": 44, "duration": 17, "velocity": 94}, {"time": 500, "pitch": 56, "duration": 10, "velocity": 78}, {"time": 500, "pitch": 60, "duration": 9, "velocity": 92}, {"time": 506, "pitch": 51, "duration": 12, "velocity": 41}, {"time": 512, "pitch": 60, "duration": 6, "velocity": 89}, {"time": 518, "pitch": 56, "duration": 2, "velocity": 67}, {"time": 524, "pitch": 51, "duration": 18, "velocity": 89}, {"time": 524, "pitch": 58, "duration": 2, "velocity": 64}, {"time": 524, "pitch": 60, "duration": 1, "velocity": 50}, {"time": 524, "pitch": 63, "duration": 13, "velocity": 73}, {"time": 530, "pitch": 58, "duration": 7, "velocity": 80}, {"time": 536, "pitch": 67, "duration": 6, "velocity": 99}, {"time": 548, "pitch": 44, "duration": 15, "velocity": 87}, {"time": 548, "pitch": 56, "duration": 12, "velocity": 62}, {"time": 548, "pitch": 60, "duration": 12, "velocity": 80}, {"time": 554, "pitch": 51, "duration": 10, "velocity": 62}, {"time": 560, "pitch": 63, "duration": 7, "velocity": 94}, {"time": 566, "pitch": 56, "duration": 2, "velocity": 82}, {"time": 572, "pitch": 46, "duration": 16, "velocity": 80}, {"time": 572, "pitch": 58, "duration": 8, "velocity": 89}, {"time": 572, "pitch": 62, "duration": 8, "velocity": 57}, {"time": 578, "pitch": 53, "duration": 9, "velocity": 60}, {"time": 584, "pitch": 58, "duration": 5, "velocity": 89}, {"time": 584, "pitch": 65, "duration": 11, "velocity": 87}, {"time": 596, "pitch": 44, "duration": 16, "velocity": 94}, {"time": 596, "pitch": 56, "duration": 12, "velocity": 58}, {"time": 596, "pitch": 60, "duration": 8, "velocity": 78}, {"time": 602, "pitch": 51, "duration": 7, "velocity": 47}, {"time": 608, "pitch": 63, "duration": 6, "velocity": 94}, {"time": 614, "pitch": 56, "duration": 2, "velocity": 64}, {"time": 620, "pitch": 46, "duration": 14, "velocity": 84}, {"time": 620, "pitch": 58, "duration": 9, "velocity": 84}, {"time": 620, "pitch": 62, "duration": 8, "velocity": 54}, {"time": 626, "pitch": 53, "duration": 7, "velocity": 37}, {"time": 632, "pitch": 58, "duration": 3, "velocity": 84}, {"time": 632, "pitch": 62, "duration": 4, "velocity": 96}, {"time": 632, "pitch": 65, "duration": 2, "velocity": 84}, {"time": 644, "pitch": 43, "duration": 11, "velocity": 77}, {"time": 644, "pitch": 58, "duration": 11, "velocity": 62}, {"time": 644, "pitch": 62, "duration": 17, "velocity": 57}, {"time": 650, "pitch": 50, "duration": 5, "velocity": 32}, {"time": 656, "pitch": 67, "duration": 12, "velocity": 96}, {"time": 662, "pitch": 58, "duration": 2, "velocity": 80}, {"time": 668, "pitch": 48, "duration": 15, "velocity": 84}, {"time": 668, "pitch": 60, "duration": 10, "velocity": 76}, {"time": 668, "pitch": 63, "duration": 10, "velocity": 80}, {"time": 674, "pitch": 55, "duration": 8, "velocity": 34}, {"time": 680, "pitch": 60, "duration": 6, "velocity": 82}, {"time": 680, "pitch": 63, "duration": 6, "velocity": 87}, {"time": 680, "pitch": 67, "duration": 7, "velocity": 57}, {"time": 692, "pitch": 53, "duration": 21, "velocity": 82}, {"time": 692, "pitch": 60, "duration": 3, "velocity": 73}, {"time": 692, "pitch": 65, "duration": 9, "velocity": 84}, {"time": 698, "pitch": 60, "duration": 7, "velocity": 60}, {"time": 704, "pitch": 68, "duration": 11, "velocity": 102}, {"time": 710, "pitch": 60, "duration": 3, "velocity": 66}, {"time": 716, "pitch": 43, "duration": 15, "velocity": 90}, {"time": 716, "pitch": 62, "duration": 12, "velocity": 55}, {"time": 716, "pitch": 67, "duration": 18, "velocity": 50}, {"time": 722, "pitch": 50, "duration": 8, "velocity": 42}, {"time": 728, "pitch": 58, "duration": 7, "velocity": 102}, {"time": 734, "pitch": 62, "duration": 1, "velocity": 93}, {"time": 740, "pitch": 44, "duration": 15, "velocity": 84}, {"time": 740, "pitch": 56, "duration": 10, "velocity": 69}, {"time": 740, "pitch": 60, "duration": 8, "velocity": 82}, {"time": 746, "pitch": 51, "duration": 9, "velocity": 50}, {"time": 752, "pitch": 56, "duration": 4, "velocity": 89}, {"time": 752, "pitch": 60, "duration": 4, "velocity": 102}, {"time": 752, "pitch": 63, "duration": 4, "velocity": 89}, {"time": 758, "pitch": 44, "duration": 2, "velocity": 92}, {"time": 764, "pitch": 46, "duration": 47, "velocity": 84}, {"time": 764, "pitch": 58, "duration": 46, "velocity": 73}, {"time": 764, "pitch": 62, "duration": 13, "velocity": 46}, {"time": 770, "pitch": 53, "duration": 40, "velocity": 67}, {"time": 776, "pitch": 65, "duration": 34, "velocity": 82}, {"time": 782, "pitch": 62, "duration": 28, "velocity": 99}, {"time": 788, "pitch": 70, "duration": 22, "velocity": 87}, {"time": 812, "pitch": 51, "duration": 38, "velocity": 92}, {"time": 812, "pitch": 63, "duration": 16, "velocity": 73}, {"time": 812, "pitch": 67, "duration": 16, "velocity": 61}, {"time": 818, "pitch": 58, "duration": 8, "velocity": 62}, {"time": 824, "pitch": 65, "duration": 7, "velocity": 92}, {"time": 830, "pitch": 58, "duration": 8, "velocity": 51}, {"time": 836, "pitch": 63, "duration": 8, "velocity": 73}, {"time": 836, "pitch": 70, "duration": 7, "velocity": 92}, {"time": 842, "pitch": 58, "duration": 9, "velocity": 51}, {"time": 848, "pitch": 63, "duration": 2, "velocity": 87}, {"time": 848, "pitch": 67, "duration": 2, "velocity": 87}, {"time": 860, "pitch": 43, "duration": 12, "velocity": 68}, {"time": 860, "pitch": 55, "duration": 9, "velocity": 43}, {"time": 860, "pitch": 58, "duration": 7, "velocity": 94}, {"time": 860, "pitch": 62, "duration": 9, "velocity": 55}, {"time": 866, "pitch": 50, "duration": 6, "velocity": 40}, {"time": 872, "pitch": 55, "duration": 2, "velocity": 79}, {"time": 872, "pitch": 58, "duration": 2, "velocity": 97}, {"time": 884, "pitch": 48, "duration": 15, "velocity": 84}, {"time": 884, "pitch": 60, "duration": 12, "velocity": 66}, {"time": 884, "pitch": 63, "duration": 13, "velocity": 73}, {"time": 890, "pitch": 55, "duration": 8, "velocity": 44}, {"time": 896, "pitch": 67, "duration": 7, "velocity": 96}, {"time": 902, "pitch": 60, "duration": 2, "velocity": 78}, {"time": 908, "pitch": 44, "duration": 17, "velocity": 94}, {"time": 908, "pitch": 56, "duration": 10, "velocity": 78}, {"time": 908, "pitch": 60, "duration": 9, "velocity": 92}, {"time": 914, "pitch": 51, "duration": 12, "velocity": 41}, {"time": 920, "pitch": 60, "duration": 6, "velocity": 89}, {"time": 926, "pitch": 56, "duration": 2, "velocity": 67}, {"time": 932, "pitch": 51, "duration": 18, "velocity": 89}, {"time": 932, "pitch": 58, "duration": 2, "velocity": 64}, {"time": 932, "pitch": 60, "duration": 1, "velocity": 50}, {"time": 932, "pitch": 63, "duration": 13, "velocity": 73}, {"time": 938, "pitch": 58, "duration": 7, "velocity": 80}, {"time": 944, "pitch": 67, "duration": 6, "velocity": 99}, {"time": 956, "pitch": 44, "duration": 15, "velocity": 87}, {"time": 956, "pitch": 56, "duration": 12, "velocity": 62}, {"time": 956, "pitch": 60, "duration": 12, "velocity": 80}, {"time": 962, "pitch": 51, "duration": 10, "velocity": 62}, {"time": 968, "pitch": 63, "duration": 7, "velocity": 94}, {"time": 974, "pitch": 56, "duration": 2, "velocity": 82}, {"time": 980, "pitch": 46, "duration": 16, "velocity": 80}, {"time": 980, "pitch": 58, "duration": 8, "velocity": 89}, {"time": 980, "pitch": 62, "duration": 8, "velocity": 57}, {"time": 986, "pitch": 53, "duration": 9, "velocity": 60}, {"time": 992, "pitch": 58, "duration": 5, "velocity": 89}, {"time": 992, "pitch": 65, "duration": 11, "velocity": 87}, {"time": 1004, "pitch": 44, "duration": 16, "velocity": 94}, {"time": 1004, "pitch": 56, "duration": 12, "velocity": 58}, {"time": 1004, "pitch": 60, "duration": 8, "velocity": 78}, {"time": 1010, "pitch": 51, "duration": 7, "velocity": 47}, {"time": 1016, "pitch": 63, "duration": 6, "velocity": 94}, {"time": 1022, "pitch": 56, "duration": 2, "velocity": 64}, {"time": 1028, "pitch": 46, "duration": 14, "velocity": 84}, {"time": 1028, "pitch": 58, "duration": 9, "velocity": 84}, {"time": 1028, "pitch": 62, "duration": 8, "velocity": 54}, {"time": 1034, "pitch": 53, "duration": 7, "velocity": 37}, {"time": 1040, "pitch": 58, "duration": 3, "velocity": 84}, {"time": 1040, "pitch": 62, "duration": 4, "velocity": 96}, {"time": 1040, "pitch": 65, "duration": 2, "velocity": 84}, {"time": 1052, "pitch": 43, "duration": 11, "velocity": 77}, {"time": 1052, "pitch": 58, "duration": 11, "velocity": 62}, {"time": 1052, "pitch": 62, "duration": 17, "velocity": 57}, {"time": 1058, "pitch": 50, "duration": 5, "velocity": 32}, {"time": 1064, "pitch": 67, "duration": 12, "velocity": 96}, {"time": 1070, "pitch": 58, "duration": 2, "velocity": 80}, {"time": 1076, "pitch": 48, "duration": 15, "velocity": 84}, {"time": 1076, "pitch": 60, "duration": 10, "velocity": 76}, {"time": 1076, "pitch": 63, "duration": 10, "velocity": 80}, {"time": 1082, "pitch": 55, "duration": 8, "velocity": 34}, {"time": 1088, "pitch": 60, "duration": 6, "velocity": 82}, {"time": 1088, "pitch": 63, "duration": 6, "velocity": 87}, {"time": 1088, "pitch": 67, "duration": 7, "velocity": 57}, {"time": 1100, "pitch": 53, "duration": 21, "velocity": 82}, {"time": 1100, "pitch": 60, "duration": 3, "velocity": 73}, {"time": 1100, "pitch": 65, "duration": 9, "velocity": 84}, {"time": 1106, "pitch": 60, "duration": 7, "velocity": 60}, {"time": 1112, "pitch": 68, "duration": 11, "velocity": 102}, {"time": 1118, "pitch": 60, "duration": 3, "velocity": 66}, {"time": 1124, "pitch": 43, "duration": 15, "velocity": 90}, {"time": 1124, "pitch": 62, "duration": 12, "velocity": 55}, {"time": 1124, "pitch": 67, "duration": 18, "velocity": 50}, {"time": 1130, "pitch": 50, "duration": 8, "velocity": 42}, {"time": 1136, "pitch": 58, "duration": 7, "velocity": 102}, {"time": 1142, "pitch": 62, "duration": 1, "velocity": 93}, {"time": 1148, "pitch": 44, "duration": 15, "velocity": 84}, {"time": 1148, "pitch": 56, "duration": 10, "velocity": 69}, {"time": 1148, "pitch": 60, "duration": 8, "velocity": 82}, {"time": 1154, "pitch": 51, "duration": 9, "velocity": 50}, {"time": 1160, "pitch": 56, "duration": 4, "velocity": 89}, {"time": 1160, "pitch": 60, "duration": 4, "velocity": 102}, {"time": 1160, "pitch": 63, "duration": 4, "velocity": 89}, {"time": 1166, "pitch": 44, "duration": 2, "velocity": 92}, {"time": 1172, "pitch": 46, "duration": 47, "velocity": 84}, {"time": 1172, "pitch": 58, "duration": 46, "velocity": 73}, {"time": 1172, "pitch": 62, "duration": 13, "velocity": 46}, {"time": 1178, "pitch": 53, "duration": 40, "velocity": 67}, {"time": 1184, "pitch": 65, "duration": 34, "velocity": 82}, {"time": 1190, "pitch": 62, "duration": 28, "velocity": 99}, {"time": 1196, "pitch": 70, "duration": 22, "velocity": 87}, {"time": 1219, "pitch": 56, "duration": 4, "velocity": 78}, {"time": 1219, "pitch": 60, "duration": 6, "velocity": 84}, {"time": 1219, "pitch": 44, "duration": 21, "velocity": 102}, {"time": 1222, "pitch": 51, "duration": 9, "velocity": 66}, {"time": 1226, "pitch": 56, "duration": 4, "velocity": 53}, {"time": 1229, "pitch": 63, "duration": 17, "velocity": 89}, {"time": 1237, "pitch": 51, "duration": 5, "velocity": 52}, {"time": 1241, "pitch": 56, "duration": 4, "velocity": 76}, {"time": 1243, "pitch": 46, "duration": 18, "velocity": 94}, {"time": 1246, "pitch": 53, "duration": 13, "velocity": 30}, {"time": 1250, "pitch": 58, "duration": 8, "velocity": 82}, {"time": 1253, "pitch": 62, "duration": 9, "velocity": 109}, {"time": 1258, "pitch": 50, "duration": 3, "velocity": 85}, {"time": 1261, "pitch": 58, "duration": 5, "velocity": 92}, {"time": 1264, "pitch": 62, "duration": 6, "velocity": 77}, {"time": 1268, "pitch": 43, "duration": 12, "velocity": 87}, {"time": 1268, "pitch": 67, "duration": 10, "velocity": 96}, {"time": 1273, "pitch": 50, "duration": 7, "velocity": 29}, {"time": 1276, "pitch": 62, "duration": 10, "velocity": 85}, {"time": 1282, "pitch": 58, "duration": 4, "velocity": 82}, {"time": 1286, "pitch": 67, "duration": 6, "velocity": 96}, {"time": 1288, "pitch": 58, "duration": 2, "velocity": 64}, {"time": 1291, "pitch": 48, "duration": 19, "velocity": 94}, {"time": 1292, "pitch": 63, "duration": 9, "velocity": 87}, {"time": 1292, "pitch": 60, "duration": 9, "velocity": 80}, {"time": 1297, "pitch": 55, "duration": 5, "velocity": 55}, {"time": 1300, "pitch": 67, "duration": 14, "velocity": 105}, {"time": 1303, "pitch": 55, "duration": 4, "velocity": 50}, {"time": 1306, "pitch": 63, "duration": 4, "velocity": 69}, {"time": 1310, "pitch": 60, "duration": 5, "velocity": 66}, {"time": 1312, "pitch": 63, "duration": 3, "velocity": 67}, {"time": 1315, "pitch": 44, "duration": 18, "velocity": 102}, {"time": 1318, "pitch": 51, "duration": 7, "velocity": 57}, {"time": 1321, "pitch": 56, "duration": 8, "velocity": 64}, {"time": 1324, "pitch": 60, "duration": 6, "velocity": 100}, {"time": 1327, "pitch": 51, "duration": 6, "velocity": 51}, {"time": 1330, "pitch": 63, "duration": 3, "velocity": 100}, {"time": 1332, "pitch": 56, "duration": 2, "velocity": 64}, {"time": 1339, "pitch": 43, "duration": 15, "velocity": 93}, {"time": 1339, "pitch": 58, "duration": 6, "velocity": 80}, {"time": 1339, "pitch": 62, "duration": 10, "velocity": 46}, {"time": 1346, "pitch": 55, "duration": 7, "velocity": 78}, {"time": 1350, "pitch": 58, "duration": 5, "velocity": 78}, {"time": 1357, "pitch": 62, "duration": 3, "velocity": 34}, {"time": 1359, "pitch": 58, "duration": 3, "velocity": 40}, {"time": 1363, "pitch": 53, "duration": 20, "velocity": 85}, {"time": 1363, "pitch": 65, "duration": 7, "velocity": 85}, {"time": 1369, "pitch": 60, "duration": 2, "velocity": 73}, {"time": 1372, "pitch": 69, "duration": 10, "velocity": 82}, {"time": 1372, "pitch": 65, "duration": 6, "velocity": 97}, {"time": 1372, "pitch": 60, "duration": 4, "velocity": 94}, {"time": 1378, "pitch": 60, "duration": 3, "velocity": 60}, {"time": 1381, "pitch": 65, "duration": 5, "velocity": 73}, {"time": 1384, "pitch": 60, "duration": 6, "velocity": 50}, {"time": 1387, "pitch": 46, "duration": 21, "velocity": 78}, {"time": 1390, "pitch": 53, "duration": 8, "velocity": 78}, {"time": 1393, "pitch": 58, "duration": 7, "velocity": 102}, {"time": 1396, "pitch": 62, "duration": 10, "velocity": 116}, {"time": 1398, "pitch": 50, "duration": 7, "velocity": 102}, {"time": 1402, "pitch": 53, "duration": 5, "velocity": 76}, {"time": 1405, "pitch": 58, "duration": 4, "velocity": 94}, {"time": 1408, "pitch": 65, "duration": 1, "velocity": 89}, {"time": 1411, "pitch": 44, "duration": 19, "velocity": 102}, {"time": 1411, "pitch": 60, "duration": 10, "velocity": 92}, {"time": 1411, "pitch": 56, "duration": 11, "velocity": 84}, {"time": 1416, "pitch": 51, "duration": 8, "velocity": 49}, {"time": 1423, "pitch": 63, "duration": 6, "velocity": 100}, {"time": 1423, "pitch": 56, "duration": 4, "velocity": 94}, {"time": 1426, "pitch": 51, "duration": 7, "velocity": 76}, {"time": 1429, "pitch": 56, "duration": 4, "velocity": 73}, {"time": 1432, "pitch": 63, "duration": 5, "velocity": 89}, {"time": 1435, "pitch": 46, "duration": 18, "velocity": 100}, {"time": 1438, "pitch": 53, "duration": 12, "velocity": 52}, {"time": 1441, "pitch": 58, "duration": 9, "velocity": 78}, {"time": 1444, "pitch": 62, "duration": 11, "velocity": 105}, {"time": 1449, "pitch": 50, "duration": 5, "velocity": 48}, {"time": 1453, "pitch": 53, "duration": 2, "velocity": 82}, {"time": 1455, "pitch": 58, "duration": 4, "velocity": 102}, {"time": 1458, "pitch": 43, "duration": 16, "velocity": 99}, {"time": 1461, "pitch": 50, "duration": 8, "velocity": 63}, {"time": 1464, "pitch": 55, "duration": 13, "velocity": 85}, {"time": 1467, "pitch": 62, "duration": 13, "velocity": 96}, {"time": 1473, "pitch": 50, "duration": 2, "velocity": 87}, {"time": 1476, "pitch": 58, "duration": 5, "velocity": 94}, {"time": 1479, "pitch": 55, "duration": 3, "velocity": 70}, {"time": 1482, "pitch": 48, "duration": 22, "velocity": 102}, {"time": 1486, "pitch": 55, "duration": 6, "velocity": 63}, {"time": 1488, "pitch": 58, "duration": 10, "velocity": 102}, {"time": 1491, "pitch": 63, "duration": 7, "velocity": 84}, {"time": 1494, "pitch": 55, "duration": 4, "velocity": 50}, {"time": 1497, "pitch": 67, "duration": 9, "velocity": 109}, {"time": 1500, "pitch": 55, "duration": 2, "velocity": 55}, {"time": 1503, "pitch": 58, "duration": 5, "velocity": 58}, {"time": 1508, "pitch": 60, "duration": 3, "velocity": 87}, {"time": 1508, "pitch": 65, "duration": 9, "velocity": 89}, {"time": 1508, "pitch": 53, "duration": 18, "velocity": 92}, {"time": 1514, "pitch": 60, "duration": 2, "velocity": 40}, {"time": 1517, "pitch": 68, "duration": 6, "velocity": 102}, {"time": 1523, "pitch": 65, "duration": 3, "velocity": 92}, {"time": 1526, "pitch": 60, "duration": 6, "velocity": 73}, {"time": 1529, "pitch": 65, "duration": 3, "velocity": 82}, {"time": 1532, "pitch": 44, "duration": 19, "velocity": 78}, {"time": 1535, "pitch": 51, "duration": 19, "velocity": 55}, {"time": 1538, "pitch": 56, "duration": 5, "velocity": 60}, {"time": 1541, "pitch": 60, "duration": 6, "velocity": 102}, {"time": 1547, "pitch": 63, "duration": 4, "velocity": 111}, {"time": 1550, "pitch": 56, "duration": 4, "velocity": 69}, {"time": 1553, "pitch": 60, "duration": 4, "velocity": 78}, {"time": 1556, "pitch": 46, "duration": 22, "velocity": 105}, {"time": 1558, "pitch": 53, "duration": 9, "velocity": 73}, {"time": 1561, "pitch": 58, "duration": 5, "velocity": 78}, {"time": 1564, "pitch": 62, "duration": 8, "velocity": 109}, {"time": 1566, "pitch": 50, "duration": 12, "velocity": 61}, {"time": 1570, "pitch": 53, "duration": 8, "velocity": 82}, {"time": 1573, "pitch": 58, "duration": 5, "velocity": 97}, {"time": 1576, "pitch": 62, "duration": 2, "velocity": 102}, {"time": 1579, "pitch": 62, "duration": 8, "velocity": 82}, {"time": 1579, "pitch": 46, "duration": 22, "velocity": 102}, {"time": 1579, "pitch": 58, "duration": 7, "velocity": 94}, {"time": 1579, "pitch": 65, "duration": 11, "velocity": 94}, {"time": 1585, "pitch": 53, "duration": 8, "velocity": 73}, {"time": 1589, "pitch": 58, "duration": 1, "velocity": 49}, {"time": 1591, "pitch": 62, "duration": 10, "velocity": 109}, {"time": 1591, "pitch": 65, "duration": 10, "velocity": 97}, {"time": 1591, "pitch": 70, "duration": 9, "velocity": 94}, {"time": 1591, "pitch": 58, "duration": 7, "velocity": 105}, {"time": 1597, "pitch": 53, "duration": 5, "velocity": 80}, {"time": 1600, "pitch": 58, "duration": 2, "velocity": 97}, {"time": 1604, "pitch": 56, "duration": 4, "velocity": 78}, {"time": 1604, "pitch": 60, "duration": 6, "velocity": 84}, {"time": 1604, "pitch": 44, "duration": 21, "velocity": 102}, {"time": 1607, "pitch": 51, "duration": 8, "velocity": 66}, {"time": 1610, "pitch": 56, "duration": 4, "velocity": 53}, {"time": 1613, "pitch": 63, "duration": 17, "velocity": 89}, {"time": 1622, "pitch": 51, "duration": 4, "velocity": 52}, {"time": 1625, "pitch": 56, "duration": 4, "velocity": 76}, {"time": 1628, "pitch": 46, "duration": 17, "velocity": 94}, {"time": 1631, "pitch": 53, "duration": 12, "velocity": 30}, {"time": 1634, "pitch": 58, "duration": 9, "velocity": 82}, {"time": 1637, "pitch": 62, "duration": 9, "velocity": 109}, {"time": 1642, "pitch": 50, "duration": 3, "velocity": 85}, {"time": 1646, "pitch": 58, "duration": 5, "velocity": 92}, {"time": 1649, "pitch": 62, "duration": 5, "velocity": 77}, {"time": 1652, "pitch": 43, "duration": 12, "velocity": 87}, {"time": 1652, "pitch": 67, "duration": 10, "velocity": 96}, {"time": 1658, "pitch": 50, "duration": 6, "velocity": 29}, {"time": 1661, "pitch": 62, "duration": 9, "velocity": 85}, {"time": 1667, "pitch": 58, "duration": 3, "velocity": 82}, {"time": 1670, "pitch": 67, "duration": 6, "velocity": 96}, {"time": 1673, "pitch": 58, "duration": 1, "velocity": 64}, {"time": 1676, "pitch": 48, "duration": 19, "velocity": 94}, {"time": 1676, "pitch": 63, "duration": 9, "velocity": 87}, {"time": 1676, "pitch": 60, "duration": 9, "velocity": 80}, {"time": 1681, "pitch": 55, "duration": 6, "velocity": 55}, {"time": 1685, "pitch": 67, "duration": 13, "velocity": 105}, {"time": 1688, "pitch": 55, "duration": 3, "velocity": 50}, {"time": 1691, "pitch": 63, "duration": 3, "velocity": 69}, {"time": 1694, "pitch": 60, "duration": 5, "velocity": 66}, {"time": 1697, "pitch": 63, "duration": 3, "velocity": 67}, {"time": 1700, "pitch": 44, "duration": 18, "velocity": 102}, {"time": 1702, "pitch": 51, "duration": 7, "velocity": 57}, {"time": 1705, "pitch": 56, "duration": 8, "velocity": 64}, {"time": 1708, "pitch": 60, "duration": 6, "velocity": 100}, {"time": 1711, "pitch": 51, "duration": 7, "velocity": 51}, {"time": 1714, "pitch": 63, "duration": 4, "velocity": 100}, {"time": 1717, "pitch": 56, "duration": 1, "velocity": 64}, {"time": 1723, "pitch": 62, "duration": 10, "velocity": 46}, {"time": 1723, "pitch": 43, "duration": 16, "velocity": 93}, {"time": 1724, "pitch": 58, "duration": 6, "velocity": 80}, {"time": 1729, "pitch": 50, "duration": 10, "velocity": 52}, {"time": 1732, "pitch": 58, "duration": 7, "velocity": 78}, {"time": 1738, "pitch": 67, "duration": 7, "velocity": 109}, {"time": 1741, "pitch": 62, "duration": 3, "velocity": 34}, {"time": 1744, "pitch": 58, "duration": 2, "velocity": 40}, {"time": 1747, "pitch": 53, "duration": 20, "velocity": 105}, {"time": 1747, "pitch": 65, "duration": 8, "velocity": 100}, {"time": 1753, "pitch": 60, "duration": 2, "velocity": 73}, {"time": 1756, "pitch": 69, "duration": 10, "velocity": 82}, {"time": 1756, "pitch": 65, "duration": 7, "velocity": 97}, {"time": 1756, "pitch": 60, "duration": 4, "velocity": 94}, {"time": 1762, "pitch": 60, "duration": 3, "velocity": 60}, {"time": 1765, "pitch": 65, "duration": 6, "velocity": 73}, {"time": 1768, "pitch": 60, "duration": 6, "velocity": 50}, {"time": 1771, "pitch": 46, "duration": 22, "velocity": 78}, {"time": 1774, "pitch": 53, "duration": 8, "velocity": 78}, {"time": 1777, "pitch": 58, "duration": 8, "velocity": 102}, {"time": 1780, "pitch": 62, "duration": 10, "velocity": 116}, {"time": 1783, "pitch": 50, "duration": 6, "velocity": 102}, {"time": 1786, "pitch": 53, "duration": 6, "velocity": 76}, {"time": 1789, "pitch": 58, "duration": 4, "velocity": 94}, {"time": 1792, "pitch": 65, "duration": 2, "velocity": 89}, {"time": 1795, "pitch": 44, "duration": 19, "velocity": 102}, {"time": 1795, "pitch": 60, "duration": 11, "velocity": 92}, {"time": 1795, "pitch": 56, "duration": 11, "velocity": 84}, {"time": 1801, "pitch": 51, "duration": 8, "velocity": 49}, {"time": 1808, "pitch": 63, "duration": 6, "velocity": 100}, {"time": 1808, "pitch": 56, "duration": 3, "velocity": 94}, {"time": 1810, "pitch": 51, "duration": 8, "velocity": 76}, {"time": 1813, "pitch": 56, "duration": 4, "velocity": 73}, {"time": 1816, "pitch": 63, "duration": 6, "velocity": 89}, {"time": 1819, "pitch": 46, "duration": 19, "velocity": 100}, {"time": 1822, "pitch": 53, "duration": 12, "velocity": 52}, {"time": 1825, "pitch": 58, "duration": 9, "velocity": 78}, {"time": 1828, "pitch": 62, "duration": 12, "velocity": 105}, {"time": 1834, "pitch": 50, "duration": 5, "velocity": 48}, {"time": 1837, "pitch": 53, "duration": 2, "velocity": 82}, {"time": 1840, "pitch": 58, "duration": 4, "velocity": 102}, {"time": 1843, "pitch": 43, "duration": 16, "velocity": 99}, {"time": 1845, "pitch": 50, "duration": 8, "velocity": 63}, {"time": 1848, "pitch": 55, "duration": 13, "velocity": 85}, {"time": 1852, "pitch": 62, "duration": 13, "velocity": 96}, {"time": 1857, "pitch": 50, "duration": 2, "velocity": 87}, {"time": 1861, "pitch": 58, "duration": 4, "velocity": 94}, {"time": 1864, "pitch": 55, "duration": 3, "velocity": 70}, {"time": 1867, "pitch": 48, "duration": 22, "velocity": 102}, {"time": 1870, "pitch": 55, "duration": 7, "velocity": 63}, {"time": 1873, "pitch": 58, "duration": 9, "velocity": 102}, {"time": 1876, "pitch": 63, "duration": 6, "velocity": 84}, {"time": 1878, "pitch": 55, "duration": 5, "velocity": 50}, {"time": 1881, "pitch": 67, "duration": 10, "velocity": 109}, {"time": 1884, "pitch": 55, "duration": 3, "velocity": 55}, {"time": 1887, "pitch": 58, "duration": 6, "velocity": 58}, {"time": 1892, "pitch": 60, "duration": 5, "velocity": 80}, {"time": 1892, "pitch": 44, "duration": 15, "velocity": 89}, {"time": 1892, "pitch": 56, "duration": 3, "velocity": 71}, {"time": 1895, "pitch": 51, "duration": 13, "velocity": 69}, {"time": 1898, "pitch": 56, "duration": 8, "velocity": 48}, {"time": 1900, "pitch": 63, "duration": 7, "velocity": 92}, {"time": 1906, "pitch": 68, "duration": 5, "velocity": 100}, {"time": 1909, "pitch": 56, "duration": 4, "velocity": 45}, {"time": 1912, "pitch": 63, "duration": 4, "velocity": 80}, {"time": 1915, "pitch": 46, "duration": 20, "velocity": 94}, {"time": 1918, "pitch": 53, "duration": 9, "velocity": 80}, {"time": 1921, "pitch": 58, "duration": 4, "velocity": 80}, {"time": 1924, "pitch": 62, "duration": 8, "velocity": 105}, {"time": 1927, "pitch": 50, "duration": 5, "velocity": 16}, {"time": 1930, "pitch": 53, "duration": 6, "velocity": 82}, {"time": 1933, "pitch": 58, "duration": 4, "velocity": 97}, {"time": 1939, "pitch": 58, "duration": 3, "velocity": 100}, {"time": 1939, "pitch": 63, "duration": 8, "velocity": 89}, {"time": 1939, "pitch": 51, "duration": 22, "velocity": 89}, {"time": 1945, "pitch": 58, "duration": 3, "velocity": 47}, {"time": 1948, "pitch": 67, "duration": 9, "velocity": 105}, {"time": 1954, "pitch": 58, "duration": 5, "velocity": 78}, {"time": 1957, "pitch": 63, "duration": 3, "velocity": 67}, {"time": 1960, "pitch": 65, "duration": 4, "velocity": 92}, {"time": 1963, "pitch": 51, "duration": 23, "velocity": 71}, {"time": 1963, "pitch": 63, "duration": 7, "velocity": 94}, {"time": 1969, "pitch": 58, "duration": 4, "velocity": 40}, {"time": 1975, "pitch": 67, "duration": 11, "velocity": 87}, {"time": 1982, "pitch": 58, "duration": 4, "velocity": 20}, {"time": 1988, "pitch": 51, "duration": 27, "velocity": 97}, {"time": 1988, "pitch": 63, "duration": 8, "velocity": 62}, {"time": 1988, "pitch": 67, "duration": 13, "velocity": 38}, {"time": 1994, "pitch": 58, "duration": 14, "velocity": 76}, {"time": 2000, "pitch": 63, "duration": 4, "velocity": 94}, {"time": 2006, "pitch": 63, "duration": 21, "velocity": 82}, {"time": 2006, "pitch": 67, "duration": 21, "velocity": 68}, {"time": 2036, "pitch": 48, "duration": 38, "velocity": 78}, {"time": 2036, "pitch": 60, "duration": 11, "velocity": 67}, {"time": 2036, "pitch": 63, "duration": 11, "velocity": 78}, {"time": 2042, "pitch": 55, "duration": 10, "velocity": 41}, {"time": 2048, "pitch": 60, "duration": 9, "velocity": 92}, {"time": 2048, "pitch": 63, "duration": 1, "velocity": 8}, {"time": 2054, "pitch": 55, "duration": 18, "velocity": 42}, {"time": 2060, "pitch": 60, "duration": 12, "velocity": 69}, {"time": 2060, "pitch": 67, "duration": 11, "velocity": 42}, {"time": 2084, "pitch": 44, "duration": 39, "velocity": 92}, {"time": 2084, "pitch": 56, "duration": 7, "velocity": 58}, {"time": 2084, "pitch": 63, "duration": 13, "velocity": 76}, {"time": 2090, "pitch": 51, "duration": 14, "velocity": 48}, {"time": 2096, "pitch": 56, "duration": 13, "velocity": 87}, {"time": 2102, "pitch": 63, "duration": 14, "velocity": 46}, {"time": 2108, "pitch": 51, "duration": 14, "velocity": 53}, {"time": 2114, "pitch": 56, "duration": 1, "velocity": 18}, {"time": 2120, "pitch": 56, "duration": 4, "velocity": 80}, {"time": 2120, "pitch": 60, "duration": 6, "velocity": 84}, {"time": 2126, "pitch": 51, "duration": 4, "velocity": 57}, {"time": 2132, "pitch": 46, "duration": 27, "velocity": 97}, {"time": 2132, "pitch": 58, "duration": 7, "velocity": 82}, {"time": 2132, "pitch": 62, "duration": 15, "velocity": 85}, {"time": 2138, "pitch": 53, "duration": 6, "velocity": 51}, {"time": 2144, "pitch": 58, "duration": 21, "velocity": 82}, {"time": 2150, "pitch": 53, "duration": 6, "velocity": 87}, {"time": 2156, "pitch": 70, "duration": 13, "velocity": 87}, {"time": 2162, "pitch": 53, "duration": 7, "velocity": 42}, {"time": 2168, "pitch": 58, "duration": 4, "velocity": 71}, {"time": 2168, "pitch": 62, "duration": 4, "velocity": 41}, {"time": 2180, "pitch": 51, "duration": 39, "velocity": 94}, {"time": 2180, "pitch": 63, "duration": 19, "velocity": 60}, {"time": 2180, "pitch": 67, "duration": 13, "velocity": 57}, {"time": 2186, "pitch": 58, "duration": 8, "velocity": 73}, {"time": 2192, "pitch": 65, "duration": 11, "velocity": 87}, {"time": 2198, "pitch": 58, "duration": 9, "velocity": 69}, {"time": 2204, "pitch": 63, "duration": 9, "velocity": 71}, {"time": 2204, "pitch": 70, "duration": 10, "velocity": 92}, {"time": 2210, "pitch": 58, "duration": 10, "velocity": 50}, {"time": 2216, "pitch": 63, "duration": 4, "velocity": 82}, {"time": 2216, "pitch": 67, "duration": 5, "velocity": 90}, {"time": 2228, "pitch": 53, "duration": 22, "velocity": 89}, {"time": 2228, "pitch": 63, "duration": 7, "velocity": 73}, {"time": 2228, "pitch": 68, "duration": 14, "velocity": 80}, {"time": 2234, "pitch": 60, "duration": 7, "velocity": 73}, {"time": 2240, "pitch": 63, "duration": 27, "velocity": 89}, {"time": 2246, "pitch": 68, "duration": 25, "velocity": 78}, {"time": 2252, "pitch": 72, "duration": 18, "velocity": 84}, {"time": 2264, "pitch": 53, "duration": 3, "velocity": 80}, {"time": 2264, "pitch": 60, "duration": 2, "velocity": 89}, {"time": 2276, "pitch": 46, "duration": 14, "velocity": 94}, {"time": 2276, "pitch": 58, "duration": 20, "velocity": 71}, {"time": 2276, "pitch": 62, "duration": 12, "velocity": 41}, {"time": 2282, "pitch": 53, "duration": 7, "velocity": 57}, {"time": 2288, "pitch": 65, "duration": 9, "velocity": 89}, {"time": 2294, "pitch": 46, "duration": 25, "velocity": 36}, {"time": 2294, "pitch": 53, "duration": 9, "velocity": 47}, {"time": 2300, "pitch": 58, "duration": 10, "velocity": 80}, {"time": 2300, "pitch": 62, "duration": 9, "velocity": 65}, {"time": 2300, "pitch": 70, "duration": 24, "velocity": 92}, {"time": 2306, "pitch": 53, "duration": 9, "velocity": 57}, {"time": 2312, "pitch": 58, "duration": 5, "velocity": 87}, {"time": 2312, "pitch": 62, "duration": 5, "velocity": 79}, {"time": 2312, "pitch": 65, "duration": 5, "velocity": 89}, {"time": 2318, "pitch": 53, "duration": 2, "velocity": 60}, {"time": 2324, "pitch": 51, "duration": 46, "velocity": 80}, {"time": 2324, "pitch": 63, "duration": 13, "velocity": 73}, {"time": 2330, "pitch": 58, "duration": 7, "velocity": 69}, {"time": 2336, "pitch": 65, "duration": 9, "velocity": 80}, {"time": 2342, "pitch": 58, "duration": 27, "velocity": 52}, {"time": 2348, "pitch": 63, "duration": 19, "velocity": 66}, {"time": 2348, "pitch": 67, "duration": 19, "velocity": 52}, {"time": 2372, "pitch": 51, "duration": 38, "velocity": 92}, {"time": 2372, "pitch": 63, "duration": 16, "velocity": 73}, {"time": 2372, "pitch": 67, "duration": 16, "velocity": 61}, {"time": 2378, "pitch": 58, "duration": 8, "velocity": 62}, {"time": 2384, "pitch": 65, "duration": 7, "velocity": 92}, {"time": 2390, "pitch": 58, "duration": 8, "velocity": 51}, {"time": 2396, "pitch": 63, "duration": 8, "velocity": 73}, {"time": 2396, "pitch": 70, "duration": 7, "velocity": 92}, {"time": 2402, "pitch": 58, "duration": 9, "velocity": 51}, {"time": 2408, "pitch": 63, "duration": 2, "velocity": 87}, {"time": 2408, "pitch": 67, "duration": 2, "velocity": 87}, {"time": 2420, "pitch": 43, "duration": 12, "velocity": 68}, {"time": 2420, "pitch": 55, "duration": 9, "velocity": 43}, {"time": 2420, "pitch": 58, "duration": 7, "velocity": 94}, {"time": 2420, "pitch": 62, "duration": 9, "velocity": 55}, {"time": 2426, "pitch": 50, "duration": 6, "velocity": 40}, {"time": 2432, "pitch": 55, "duration": 2, "velocity": 79}, {"time": 2432, "pitch": 58, "duration": 2, "velocity": 97}, {"time": 2444, "pitch": 48, "duration": 15, "velocity": 84}, {"time": 2444, "pitch": 60, "duration": 12, "velocity": 66}, {"time": 2444, "pitch": 63, "duration": 13, "velocity": 73}, {"time": 2450, "pitch": 55, "duration": 8, "velocity": 44}, {"time": 2456, "pitch": 67, "duration": 7, "velocity": 96}, {"time": 2462, "pitch": 60, "duration": 2, "velocity": 78}, {"time": 2468, "pitch": 44, "duration": 17, "velocity": 94}, {"time": 2468, "pitch": 56, "duration": 10, "velocity": 78}, {"time": 2468, "pitch": 60, "duration": 9, "velocity": 92}, {"time": 2474, "pitch": 51, "duration": 12, "velocity": 41}, {"time": 2480, "pitch": 60, "duration": 6, "velocity": 89}, {"time": 2486, "pitch": 56, "duration": 2, "velocity": 67}, {"time": 2492, "pitch": 51, "duration": 18, "velocity": 89}, {"time": 2492, "pitch": 58, "duration": 2, "velocity": 64}, {"time": 2492, "pitch": 60, "duration": 1, "velocity": 50}, {"time": 2492, "pitch": 63, "duration": 13, "velocity": 73}, {"time": 2498, "pitch": 58, "duration": 7, "velocity": 80}, {"time": 2504, "pitch": 67, "duration": 6, "velocity": 99}, {"time": 2516, "pitch": 44, "duration": 15, "velocity": 87}, {"time": 2516, "pitch": 56, "duration": 12, "velocity": 62}, {"time": 2516, "pitch": 60, "duration": 12, "velocity": 80}, {"time": 2522, "pitch": 51, "duration": 10, "velocity": 62}, {"time": 2528, "pitch": 63, "duration": 7, "velocity": 94}, {"time": 2534, "pitch": 56, "duration": 2, "velocity": 82}, {"time": 2540, "pitch": 46, "duration": 16, "velocity": 80}, {"time": 2540, "pitch": 58, "duration": 8, "velocity": 89}, {"time": 2540, "pitch": 62, "duration": 8, "velocity": 57}, {"time": 2546, "pitch": 53, "duration": 9, "velocity": 60}, {"time": 2552, "pitch": 58, "duration": 5, "velocity": 89}, {"time": 2552, "pitch": 65, "duration": 11, "velocity": 87}, {"time": 2564, "pitch": 44, "duration": 16, "velocity": 94}, {"time": 2564, "pitch": 56, "duration": 12, "velocity": 58}, {"time": 2564, "pitch": 60, "duration": 8, "velocity": 78}, {"time": 2570, "pitch": 51, "duration": 7, "velocity": 47}, {"time": 2576, "pitch": 63, "duration": 6, "velocity": 94}, {"time": 2582, "pitch": 56, "duration": 2, "velocity": 64}, {"time": 2588, "pitch": 46, "duration": 14, "velocity": 84}, {"time": 2588, "pitch": 58, "duration": 9, "velocity": 84}, {"time": 2588, "pitch": 62, "duration": 8, "velocity": 54}, {"time": 2594, "pitch": 53, "duration": 7, "velocity": 37}, {"time": 2600, "pitch": 58, "duration": 3, "velocity": 84}, {"time": 2600, "pitch": 62, "duration": 4, "velocity": 96}, {"time": 2600, "pitch": 65, "duration": 2, "velocity": 84}, {"time": 2612, "pitch": 43, "duration": 11, "velocity": 77}, {"time": 2612, "pitch": 58, "duration": 11, "velocity": 62}, {"time": 2612, "pitch": 62, "duration": 17, "velocity": 57}, {"time": 2618, "pitch": 50, "duration": 5, "velocity": 32}, {"time": 2624, "pitch": 67, "duration": 12, "velocity": 96}, {"time": 2630, "pitch": 58, "duration": 2, "velocity": 80}, {"time": 2636, "pitch": 48, "duration": 15, "velocity": 84}, {"time": 2636, "pitch": 60, "duration": 10, "velocity": 76}, {"time": 2636, "pitch": 63, "duration": 10, "velocity": 80}, {"time": 2642, "pitch": 55, "duration": 8, "velocity": 34}, {"time": 2648, "pitch": 60, "duration": 6, "velocity": 82}, {"time": 2648, "pitch": 63, "duration": 6, "velocity": 87}, {"time": 2648, "pitch": 67, "duration": 7, "velocity": 57}, {"time": 2660, "pitch": 53, "duration": 21, "velocity": 82}, {"time": 2660, "pitch": 60, "duration": 3, "velocity": 73}, {"time": 2660, "pitch": 65, "duration": 9, "velocity": 84}, {"time": 2666, "pitch": 60, "duration": 7, "velocity": 60}, {"time": 2672, "pitch": 68, "duration": 11, "velocity": 102}, {"time": 2678, "pitch": 60, "duration": 3, "velocity": 66}, {"time": 2684, "pitch": 43, "duration": 15, "velocity": 90}, {"time": 2684, "pitch": 62, "duration": 12, "velocity": 55}, {"time": 2684, "pitch": 67, "duration": 18, "velocity": 50}, {"time": 2690, "pitch": 50, "duration": 8, "velocity": 42}, {"time": 2696, "pitch": 58, "duration": 7, "velocity": 102}, {"time": 2702, "pitch": 62, "duration": 1, "velocity": 93}, {"time": 2708, "pitch": 44, "duration": 15, "velocity": 84}, {"time": 2708, "pitch": 56, "duration": 10, "velocity": 69}, {"time": 2708, "pitch": 60, "duration": 8, "velocity": 82}, {"time": 2714, "pitch": 51, "duration": 9, "velocity": 50}, {"time": 2720, "pitch": 56, "duration": 4, "velocity": 89}, {"time": 2720, "pitch": 60, "duration": 4, "velocity": 102}, {"time": 2720, "pitch": 63, "duration": 4, "velocity": 89}, {"time": 2726, "pitch": 44, "duration": 2, "velocity": 92}, {"time": 2732, "pitch": 46, "duration": 47, "velocity": 84}, {"time": 2732, "pitch": 58, "duration": 46, "velocity": 73}, {"time": 2732, "pitch": 62, "duration": 13, "velocity": 46}, {"time": 2738, "pitch": 53, "duration": 40, "velocity": 67}, {"time": 2744, "pitch": 65, "duration": 34, "velocity": 82}, {"time": 2750, "pitch": 62, "duration": 28, "velocity": 99}, {"time": 2756, "pitch": 70, "duration": 22, "velocity": 87}, {"time": 2779, "pitch": 56, "duration": 4, "velocity": 78}, {"time": 2779, "pitch": 60, "duration": 6, "velocity": 84}, {"time": 2779, "pitch": 44, "duration": 21, "velocity": 102}, {"time": 2782, "pitch": 51, "duration": 9, "velocity": 66}, {"time": 2785, "pitch": 56, "duration": 5, "velocity": 53}, {"time": 2788, "pitch": 63, "duration": 18, "velocity": 89}, {"time": 2797, "pitch": 51, "duration": 5, "velocity": 52}, {"time": 2801, "pitch": 56, "duration": 4, "velocity": 76}, {"time": 2803, "pitch": 46, "duration": 18, "velocity": 94}, {"time": 2806, "pitch": 53, "duration": 12, "velocity": 30}, {"time": 2810, "pitch": 58, "duration": 8, "velocity": 82}, {"time": 2813, "pitch": 62, "duration": 9, "velocity": 109}, {"time": 2818, "pitch": 50, "duration": 3, "velocity": 85}, {"time": 2821, "pitch": 58, "duration": 5, "velocity": 92}, {"time": 2824, "pitch": 62, "duration": 6, "velocity": 77}, {"time": 2828, "pitch": 43, "duration": 11, "velocity": 87}, {"time": 2828, "pitch": 67, "duration": 10, "velocity": 96}, {"time": 2833, "pitch": 50, "duration": 6, "velocity": 29}, {"time": 2836, "pitch": 62, "duration": 9, "velocity": 85}, {"time": 2842, "pitch": 58, "duration": 4, "velocity": 82}, {"time": 2845, "pitch": 67, "duration": 7, "velocity": 96}, {"time": 2848, "pitch": 58, "duration": 2, "velocity": 64}, {"time": 2851, "pitch": 48, "duration": 19, "velocity": 94}, {"time": 2851, "pitch": 63, "duration": 10, "velocity": 87}, {"time": 2852, "pitch": 60, "duration": 9, "velocity": 80}, {"time": 2857, "pitch": 55, "duration": 5, "velocity": 55}, {"time": 2860, "pitch": 67, "duration": 14, "velocity": 105}, {"time": 2863, "pitch": 55, "duration": 4, "velocity": 50}, {"time": 2866, "pitch": 63, "duration": 4, "velocity": 69}, {"time": 2869, "pitch": 60, "duration": 6, "velocity": 66}, {"time": 2872, "pitch": 63, "duration": 3, "velocity": 67}, {"time": 2875, "pitch": 44, "duration": 18, "velocity": 102}, {"time": 2878, "pitch": 51, "duration": 7, "velocity": 57}, {"time": 2881, "pitch": 56, "duration": 8, "velocity": 64}, {"time": 2884, "pitch": 60, "duration": 6, "velocity": 100}, {"time": 2886, "pitch": 51, "duration": 7, "velocity": 51}, {"time": 2889, "pitch": 63, "duration": 4, "velocity": 100}, {"time": 2892, "pitch": 56, "duration": 2, "velocity": 64}, {"time": 2899, "pitch": 62, "duration": 10, "velocity": 46}, {"time": 2899, "pitch": 43, "duration": 15, "velocity": 93}, {"time": 2899, "pitch": 58, "duration": 6, "velocity": 80}, {"time": 2904, "pitch": 50, "duration": 10, "velocity": 52}, {"time": 2908, "pitch": 58, "duration": 7, "velocity": 78}, {"time": 2914, "pitch": 67, "duration": 6, "velocity": 109}, {"time": 2917, "pitch": 62, "duration": 2, "velocity": 34}, {"time": 2919, "pitch": 58, "duration": 3, "velocity": 40}, {"time": 2923, "pitch": 53, "duration": 20, "velocity": 105}, {"time": 2923, "pitch": 65, "duration": 7, "velocity": 100}, {"time": 2929, "pitch": 60, "duration": 2, "velocity": 73}, {"time": 2932, "pitch": 69, "duration": 10, "velocity": 82}, {"time": 2932, "pitch": 65, "duration": 6, "velocity": 97}, {"time": 2932, "pitch": 60, "duration": 4, "velocity": 94}, {"time": 2938, "pitch": 60, "duration": 3, "velocity": 60}, {"time": 2941, "pitch": 65, "duration": 5, "velocity": 73}, {"time": 2944, "pitch": 60, "duration": 5, "velocity": 50}, {"time": 2947, "pitch": 46, "duration": 21, "velocity": 78}, {"time": 2950, "pitch": 53, "duration": 8, "velocity": 78}, {"time": 2953, "pitch": 58, "duration": 7, "velocity": 102}, {"time": 2956, "pitch": 62, "duration": 10, "velocity": 116}, {"time": 2958, "pitch": 50, "duration": 7, "velocity": 102}, {"time": 2961, "pitch": 53, "duration": 6, "velocity": 76}, {"time": 2965, "pitch": 58, "duration": 4, "velocity": 94}, {"time": 2968, "pitch": 65, "duration": 1, "velocity": 89}, {"time": 2971, "pitch": 44, "duration": 19, "velocity": 102}, {"time": 2971, "pitch": 60, "duration": 10, "velocity": 92}, {"time": 2971, "pitch": 56, "duration": 10, "velocity": 84}, {"time": 2976, "pitch": 51, "duration": 8, "velocity": 49}, {"time": 2983, "pitch": 63, "duration": 6, "velocity": 100}, {"time": 2983, "pitch": 56, "duration": 4, "velocity": 94}, {"time": 2986, "pitch": 51, "duration": 7, "velocity": 76}, {"time": 2989, "pitch": 56, "duration": 4, "velocity": 73}, {"time": 2992, "pitch": 63, "duration": 5, "velocity": 89}, {"time": 2995, "pitch": 46, "duration": 18, "velocity": 100}, {"time": 2997, "pitch": 53, "duration": 13, "velocity": 52}, {"time": 3001, "pitch": 58, "duration": 8, "velocity": 78}, {"time": 3004, "pitch": 62, "duration": 11, "velocity": 105}, {"time": 3009, "pitch": 50, "duration": 5, "velocity": 48}, {"time": 3013, "pitch": 53, "duration": 2, "velocity": 82}, {"time": 3015, "pitch": 58, "duration": 4, "velocity": 102}, {"time": 3018, "pitch": 43, "duration": 16, "velocity": 99}, {"time": 3021, "pitch": 50, "duration": 7, "velocity": 63}, {"time": 3024, "pitch": 55, "duration": 13, "velocity": 85}, {"time": 3027, "pitch": 62, "duration": 13, "velocity": 96}, {"time": 3033, "pitch": 50, "duration": 2, "velocity": 87}, {"time": 3036, "pitch": 58, "duration": 5, "velocity": 94}, {"time": 3039, "pitch": 55, "duration": 3, "velocity": 70}, {"time": 3042, "pitch": 48, "duration": 22, "velocity": 102}, {"time": 3046, "pitch": 55, "duration": 6, "velocity": 63}, {"time": 3048, "pitch": 58, "duration": 10, "velocity": 102}, {"time": 3051, "pitch": 63, "duration": 7, "velocity": 84}, {"time": 3054, "pitch": 55, "duration": 4, "velocity": 50}, {"time": 3057, "pitch": 67, "duration": 9, "velocity": 109}, {"time": 3060, "pitch": 55, "duration": 2, "velocity": 55}, {"time": 3063, "pitch": 58, "duration": 5, "velocity": 58}, {"time": 3067, "pitch": 60, "duration": 4, "velocity": 87}, {"time": 3068, "pitch": 65, "duration": 9, "velocity": 89}, {"time": 3068, "pitch": 53, "duration": 18, "velocity": 92}, {"time": 3074, "pitch": 60, "duration": 2, "velocity": 40}, {"time": 3076, "pitch": 68, "duration": 7, "velocity": 102}, {"time": 3083, "pitch": 65, "duration": 3, "velocity": 92}, {"time": 3086, "pitch": 60, "duration": 6, "velocity": 73}, {"time": 3089, "pitch": 65, "duration": 3, "velocity": 82}, {"time": 3092, "pitch": 44, "duration": 18, "velocity": 78}, {"time": 3094, "pitch": 51, "duration": 19, "velocity": 55}, {"time": 3097, "pitch": 56, "duration": 6, "velocity": 60}, {"time": 3101, "pitch": 60, "duration": 6, "velocity": 102}, {"time": 3107, "pitch": 63, "duration": 4, "velocity": 111}, {"time": 3110, "pitch": 56, "duration": 4, "velocity": 69}, {"time": 3113, "pitch": 60, "duration": 4, "velocity": 78}, {"time": 3116, "pitch": 46, "duration": 22, "velocity": 105}, {"time": 3118, "pitch": 53, "duration": 9, "velocity": 73}, {"time": 3121, "pitch": 58, "duration": 5, "velocity": 78}, {"time": 3124, "pitch": 62, "duration": 8, "velocity": 109}, {"time": 3126, "pitch": 50, "duration": 11, "velocity": 61}, {"time": 3130, "pitch": 53, "duration": 8, "velocity": 82}, {"time": 3133, "pitch": 58, "duration": 5, "velocity": 97}, {"time": 3136, "pitch": 62, "duration": 2, "velocity": 102}, {"time": 3139, "pitch": 62, "duration": 8, "velocity": 82}, {"time": 3139, "pitch": 46, "duration": 22, "velocity": 102}, {"time": 3139, "pitch": 58, "duration": 7, "velocity": 94}, {"time": 3139, "pitch": 65, "duration": 11, "velocity": 94}, {"time": 3145, "pitch": 53, "duration": 8, "velocity": 73}, {"time": 3148, "pitch": 58, "duration": 2, "velocity": 49}, {"time": 3151, "pitch": 62, "duration": 10, "velocity": 109}, {"time": 3151, "pitch": 65, "duration": 10, "velocity": 97}, {"time": 3151, "pitch": 70, "duration": 9, "velocity": 94}, {"time": 3151, "pitch": 58, "duration": 7, "velocity": 105}, {"time": 3157, "pitch": 53, "duration": 5, "velocity": 80}, {"time": 3160, "pitch": 58, "duration": 2, "velocity": 97}, {"time": 3164, "pitch": 56, "duration": 4, "velocity": 78}, {"time": 3164, "pitch": 60, "duration": 6, "velocity": 84}, {"time": 3164, "pitch": 44, "duration": 21, "velocity": 102}, {"time": 3167, "pitch": 51, "duration": 8, "velocity": 66}, {"time": 3170, "pitch": 56, "duration": 4, "velocity": 53}, {"time": 3173, "pitch": 63, "duration": 17, "velocity": 89}, {"time": 3182, "pitch": 51, "duration": 4, "velocity": 52}, {"time": 3185, "pitch": 56, "duration": 4, "velocity": 76}, {"time": 3188, "pitch": 46, "duration": 17, "velocity": 94}, {"time": 3191, "pitch": 53, "duration": 12, "velocity": 30}, {"time": 3194, "pitch": 58, "duration": 9, "velocity": 82}, {"time": 3197, "pitch": 62, "duration": 9, "velocity": 109}, {"time": 3202, "pitch": 50, "duration": 3, "velocity": 85}, {"time": 3206, "pitch": 58, "duration": 5, "velocity": 92}, {"time": 3209, "pitch": 62, "duration": 5, "velocity": 77}, {"time": 3212, "pitch": 43, "duration": 12, "velocity": 87}, {"time": 3212, "pitch": 67, "duration": 10, "velocity": 96}, {"time": 3218, "pitch": 50, "duration": 6, "velocity": 29}, {"time": 3221, "pitch": 62, "duration": 9, "velocity": 85}, {"time": 3226, "pitch": 58, "duration": 4, "velocity": 82}, {"time": 3230, "pitch": 67, "duration": 6, "velocity": 96}, {"time": 3233, "pitch": 58, "duration": 1, "velocity": 64}, {"time": 3236, "pitch": 48, "duration": 19, "velocity": 94}, {"time": 3236, "pitch": 63, "duration": 9, "velocity": 87}, {"time": 3236, "pitch": 60, "duration": 9, "velocity": 80}, {"time": 3241, "pitch": 55, "duration": 6, "velocity": 55}, {"time": 3245, "pitch": 67, "duration": 13, "velocity": 105}, {"time": 3248, "pitch": 55, "duration": 3, "velocity": 50}, {"time": 3251, "pitch": 63, "duration": 3, "velocity": 69}, {"time": 3254, "pitch": 60, "duration": 5, "velocity": 66}, {"time": 3257, "pitch": 63, "duration": 3, "velocity": 67}, {"time": 3260, "pitch": 44, "duration": 17, "velocity": 102}, {"time": 3262, "pitch": 51, "duration": 7, "velocity": 57}, {"time": 3265, "pitch": 56, "duration": 8, "velocity": 64}, {"time": 3268, "pitch": 60, "duration": 6, "velocity": 100}, {"time": 3271, "pitch": 51, "duration": 7, "velocity": 51}, {"time": 3274, "pitch": 63, "duration": 4, "velocity": 100}, {"time": 3277, "pitch": 56, "duration": 1, "velocity": 64}, {"time": 3283, "pitch": 62, "duration": 10, "velocity": 46}, {"time": 3283, "pitch": 43, "duration": 16, "velocity": 93}, {"time": 3284, "pitch": 58, "duration": 6, "velocity": 80}, {"time": 3289, "pitch": 50, "duration": 10, "velocity": 52}, {"time": 3292, "pitch": 58, "duration": 7, "velocity": 78}, {"time": 3298, "pitch": 67, "duration": 7, "velocity": 109}, {"time": 3301, "pitch": 62, "duration": 3, "velocity": 34}, {"time": 3304, "pitch": 58, "duration": 2, "velocity": 40}, {"time": 3307, "pitch": 53, "duration": 20, "velocity": 105}, {"time": 3307, "pitch": 65, "duration": 8, "velocity": 100}, {"time": 3313, "pitch": 60, "duration": 2, "velocity": 73}, {"time": 3316, "pitch": 69, "duration": 10, "velocity": 82}, {"time": 3316, "pitch": 65, "duration": 7, "velocity": 97}, {"time": 3316, "pitch": 60, "duration": 4, "velocity": 94}, {"time": 3322, "pitch": 60, "duration": 3, "velocity": 60}, {"time": 3325, "pitch": 65, "duration": 5, "velocity": 73}, {"time": 3328, "pitch": 60, "duration": 6, "velocity": 50}, {"time": 3331, "pitch": 46, "duration": 22, "velocity": 78}, {"time": 3334, "pitch": 53, "duration": 8, "velocity": 78}, {"time": 3337, "pitch": 58, "duration": 7, "velocity": 102}, {"time": 3340, "pitch": 62, "duration": 10, "velocity": 116}, {"time": 3343, "pitch": 50, "duration": 6, "velocity": 102}, {"time": 3346, "pitch": 53, "duration": 5, "velocity": 76}, {"time": 3349, "pitch": 58, "duration": 4, "velocity": 94}, {"time": 3352, "pitch": 65, "duration": 1, "velocity": 89}, {"time": 3355, "pitch": 44, "duration": 19, "velocity": 102}, {"time": 3355, "pitch": 60, "duration": 11, "velocity": 92}, {"time": 3355, "pitch": 56, "duration": 11, "velocity": 84}, {"time": 3361, "pitch": 51, "duration": 8, "velocity": 49}, {"time": 3367, "pitch": 63, "duration": 7, "velocity": 100}, {"time": 3368, "pitch": 56, "duration": 3, "velocity": 94}, {"time": 3370, "pitch": 51, "duration": 7, "velocity": 76}, {"time": 3373, "pitch": 56, "duration": 4, "velocity": 73}, {"time": 3376, "pitch": 63, "duration": 6, "velocity": 89}, {"time": 3379, "pitch": 46, "duration": 19, "velocity": 100}, {"time": 3382, "pitch": 53, "duration": 12, "velocity": 52}, {"time": 3385, "pitch": 58, "duration": 9, "velocity": 78}, {"time": 3388, "pitch": 62, "duration": 12, "velocity": 105}, {"time": 3394, "pitch": 50, "duration": 5, "velocity": 48}, {"time": 3397, "pitch": 53, "duration": 2, "velocity": 82}, {"time": 3400, "pitch": 58, "duration": 4, "velocity": 102}, {"time": 3403, "pitch": 43, "duration": 16, "velocity": 99}, {"time": 3405, "pitch": 50, "duration": 8, "velocity": 63}, {"time": 3408, "pitch": 55, "duration": 13, "velocity": 85}, {"time": 3412, "pitch": 62, "duration": 13, "velocity": 96}, {"time": 3417, "pitch": 50, "duration": 2, "velocity": 87}, {"time": 3421, "pitch": 58, "duration": 4, "velocity": 94}, {"time": 3424, "pitch": 55, "duration": 3, "velocity": 70}, {"time": 3427, "pitch": 48, "duration": 22, "velocity": 102}, {"time": 3430, "pitch": 55, "duration": 7, "velocity": 63}, {"time": 3433, "pitch": 58, "duration": 9, "velocity": 102}, {"time": 3436, "pitch": 63, "duration": 6, "velocity": 84}, {"time": 3438, "pitch": 55, "duration": 5, "velocity": 50}, {"time": 3441, "pitch": 67, "duration": 10, "velocity": 109}, {"time": 3444, "pitch": 55, "duration": 2, "velocity": 55}, {"time": 3447, "pitch": 58, "duration": 6, "velocity": 58}, {"time": 3452, "pitch": 60, "duration": 5, "velocity": 80}, {"time": 3452, "pitch": 44, "duration": 15, "velocity": 89}, {"time": 3452, "pitch": 56, "duration": 3, "velocity": 71}, {"time": 3455, "pitch": 51, "duration": 13, "velocity": 69}, {"time": 3458, "pitch": 56, "duration": 8, "velocity": 48}, {"time": 3460, "pitch": 63, "duration": 7, "velocity": 92}, {"time": 3466, "pitch": 68, "duration": 4, "velocity": 100}, {"time": 3469, "pitch": 56, "duration": 4, "velocity": 45}, {"time": 3472, "pitch": 63, "duration": 4, "velocity": 80}, {"time": 3475, "pitch": 46, "duration": 20, "velocity": 94}, {"time": 3478, "pitch": 53, "duration": 9, "velocity": 80}, {"time": 3481, "pitch": 58, "duration": 4, "velocity": 80}, {"time": 3484, "pitch": 62, "duration": 8, "velocity": 105}, {"time": 3487, "pitch": 50, "duration": 5, "velocity": 16}, {"time": 3490, "pitch": 53, "duration": 6, "velocity": 82}, {"time": 3492, "pitch": 58, "duration": 5, "velocity": 97}, {"time": 3499, "pitch": 58, "duration": 3, "velocity": 100}, {"time": 3499, "pitch": 63, "duration": 8, "velocity": 89}, {"time": 3499, "pitch": 51, "duration": 22, "velocity": 89}, {"time": 3505, "pitch": 58, "duration": 3, "velocity": 47}, {"time": 3508, "pitch": 67, "duration": 9, "velocity": 105}, {"time": 3514, "pitch": 58, "duration": 5, "velocity": 78}, {"time": 3517, "pitch": 63, "duration": 3, "velocity": 67}, {"time": 3520, "pitch": 65, "duration": 4, "velocity": 92}, {"time": 3523, "pitch": 51, "duration": 23, "velocity": 71}, {"time": 3523, "pitch": 63, "duration": 7, "velocity": 94}, {"time": 3529, "pitch": 58, "duration": 4, "velocity": 40}, {"time": 3535, "pitch": 67, "duration": 11, "velocity": 87}, {"time": 3542, "pitch": 58, "duration": 4, "velocity": 20}, {"time": 3548, "pitch": 44, "duration": 15, "velocity": 87}, {"time": 3548, "pitch": 56, "duration": 11, "velocity": 58}, {"time": 3548, "pitch": 60, "duration": 10, "velocity": 82}, {"time": 3554, "pitch": 51, "duration": 8, "velocity": 73}, {"time": 3560, "pitch": 60, "duration": 4, "velocity": 100}, {"time": 3560, "pitch": 63, "duration": 5, "velocity": 87}, {"time": 3566, "pitch": 44, "duration": 2, "velocity": 89}, {"time": 3572, "pitch": 46, "duration": 14, "velocity": 97}, {"time": 3572, "pitch": 58, "duration": 10, "velocity": 80}, {"time": 3572, "pitch": 62, "duration": 8, "velocity": 79}, {"time": 3578, "pitch": 53, "duration": 7, "velocity": 58}, {"time": 3584, "pitch": 62, "duration": 4, "velocity": 105}, {"time": 3584, "pitch": 65, "duration": 4, "velocity": 87}, {"time": 3596, "pitch": 43, "duration": 15, "velocity": 85}, {"time": 3596, "pitch": 55, "duration": 10, "velocity": 74}, {"time": 3596, "pitch": 62, "duration": 10, "velocity": 72}, {"time": 3602, "pitch": 50, "duration": 7, "velocity": 43}, {"time": 3608, "pitch": 55, "duration": 3, "velocity": 79}, {"time": 3608, "pitch": 58, "duration": 2, "velocity": 100}, {"time": 3611, "pitch": 50, "duration": 3, "velocity": 61}, {"time": 3614, "pitch": 43, "duration": 2, "velocity": 59}, {"time": 3620, "pitch": 48, "duration": 15, "velocity": 100}, {"time": 3620, "pitch": 60, "duration": 9, "velocity": 69}, {"time": 3620, "pitch": 63, "duration": 9, "velocity": 82}, {"time": 3626, "pitch": 55, "duration": 9, "velocity": 61}, {"time": 3632, "pitch": 60, "duration": 7, "velocity": 97}, {"time": 3632, "pitch": 67, "duration": 7, "velocity": 93}, {"time": 3638, "pitch": 48, "duration": 3, "velocity": 100}, {"time": 3644, "pitch": 44, "duration": 18, "velocity": 73}, {"time": 3644, "pitch": 56, "duration": 9, "velocity": 76}, {"time": 3644, "pitch": 60, "duration": 8, "velocity": 87}, {"time": 3650, "pitch": 51, "duration": 6, "velocity": 78}, {"time": 3656, "pitch": 56, "duration": 3, "velocity": 94}, {"time": 3656, "pitch": 63, "duration": 8, "velocity": 92}, {"time": 3659, "pitch": 51, "duration": 4, "velocity": 76}, {"time": 3662, "pitch": 56, "duration": 4, "velocity": 80}, {"time": 3665, "pitch": 60, "duration": 1, "velocity": 80}, {"time": 3668, "pitch": 43, "duration": 13, "velocity": 68}, {"time": 3668, "pitch": 55, "duration": 8, "velocity": 50}, {"time": 3668, "pitch": 62, "duration": 7, "velocity": 52}, {"time": 3674, "pitch": 50, "duration": 7, "velocity": 44}, {"time": 3680, "pitch": 55, "duration": 4, "velocity": 72}, {"time": 3680, "pitch": 58, "duration": 4, "velocity": 97}, {"time": 3686, "pitch": 43, "duration": 1, "velocity": 85}, {"time": 3692, "pitch": 45, "duration": 18, "velocity": 65}, {"time": 3692, "pitch": 57, "duration": 7, "velocity": 68}, {"time": 3692, "pitch": 60, "duration": 9, "velocity": 80}, {"time": 3698, "pitch": 53, "duration": 7, "velocity": 46}, {"time": 3704, "pitch": 57, "duration": 10, "velocity": 102}, {"time": 3704, "pitch": 60, "duration": 10, "velocity": 97}, {"time": 3704, "pitch": 63, "duration": 13, "velocity": 82}, {"time": 3710, "pitch": 53, "duration": 4, "velocity": 50}, {"time": 3716, "pitch": 46, "duration": 21, "velocity": 105}, {"time": 3719, "pitch": 53, "duration": 6, "velocity": 71}, {"time": 3722, "pitch": 58, "duration": 6, "velocity": 92}, {"time": 3725, "pitch": 62, "duration": 3, "velocity": 109}, {"time": 3728, "pitch": 53, "duration": 4, "velocity": 87}, {"time": 3731, "pitch": 58, "duration": 4, "velocity": 97}, {"time": 3731, "pitch": 62, "duration": 6, "velocity": 93}, {"time": 3731, "pitch": 65, "duration": 7, "velocity": 94}, {"time": 3734, "pitch": 53, "duration": 5, "velocity": 89}, {"time": 3737, "pitch": 58, "duration": 1, "velocity": 89}, {"time": 3740, "pitch": 44, "duration": 15, "velocity": 94}, {"time": 3740, "pitch": 56, "duration": 9, "velocity": 92}, {"time": 3740, "pitch": 60, "duration": 8, "velocity": 100}, {"time": 3746, "pitch": 51, "duration": 8, "velocity": 45}, {"time": 3752, "pitch": 56, "duration": 5, "velocity": 94}, {"time": 3752, "pitch": 60, "duration": 5, "velocity": 111}, {"time": 3752, "pitch": 63, "duration": 6, "velocity": 97}, {"time": 3758, "pitch": 44, "duration": 2, "velocity": 92}, {"time": 3764, "pitch": 46, "duration": 13, "velocity": 100}, {"time": 3764, "pitch": 58, "duration": 8, "velocity": 89}, {"time": 3764, "pitch": 62, "duration": 8, "velocity": 70}, {"time": 3770, "pitch": 53, "duration": 8, "velocity": 53}, {"time": 3776, "pitch": 58, "duration": 5, "velocity": 102}, {"time": 3776, "pitch": 62, "duration": 6, "velocity": 105}, {"time": 3776, "pitch": 65, "duration": 5, "velocity": 94}, {"time": 3782, "pitch": 46, "duration": 2, "velocity": 89}, {"time": 3788, "pitch": 43, "duration": 16, "velocity": 61}, {"time": 3788, "pitch": 58, "duration": 6, "velocity": 87}, {"time": 3788, "pitch": 62, "duration": 10, "velocity": 72}, {"time": 3794, "pitch": 50, "duration": 7, "velocity": 43}, {"time": 3797, "pitch": 58, "duration": 4, "velocity": 92}, {"time": 3800, "pitch": 67, "duration": 11, "velocity": 102}, {"time": 3803, "pitch": 50, "duration": 2, "velocity": 68}, {"time": 3806, "pitch": 58, "duration": 4, "velocity": 100}, {"time": 3809, "pitch": 62, "duration": 1, "velocity": 96}, {"time": 3812, "pitch": 48, "duration": 14, "velocity": 100}, {"time": 3812, "pitch": 60, "duration": 8, "velocity": 87}, {"time": 3812, "pitch": 63, "duration": 9, "velocity": 92}, {"time": 3818, "pitch": 55, "duration": 8, "velocity": 41}, {"time": 3824, "pitch": 60, "duration": 5, "velocity": 97}, {"time": 3824, "pitch": 63, "duration": 5, "velocity": 100}, {"time": 3824, "pitch": 67, "duration": 4, "velocity": 87}, {"time": 3830, "pitch": 48, "duration": 2, "velocity": 92}, {"time": 3836, "pitch": 44, "duration": 19, "velocity": 97}, {"time": 3836, "pitch": 56, "duration": 6, "velocity": 67}, {"time": 3836, "pitch": 60, "duration": 9, "velocity": 84}, {"time": 3842, "pitch": 51, "duration": 4, "velocity": 52}, {"time": 3845, "pitch": 56, "duration": 4, "velocity": 84}, {"time": 3848, "pitch": 51, "duration": 4, "velocity": 78}, {"time": 3851, "pitch": 63, "duration": 5, "velocity": 100}, {"time": 3854, "pitch": 51, "duration": 3, "velocity": 73}, {"time": 3857, "pitch": 56, "duration": 1, "velocity": 38}, {"time": 3860, "pitch": 46, "duration": 14, "velocity": 97}, {"time": 3860, "pitch": 58, "duration": 8, "velocity": 80}, {"time": 3860, "pitch": 62, "duration": 8, "velocity": 39}, {"time": 3866, "pitch": 53, "duration": 7, "velocity": 64}, {"time": 3872, "pitch": 58, "duration": 6, "velocity": 89}, {"time": 3872, "pitch": 62, "duration": 6, "velocity": 93}, {"time": 3872, "pitch": 65, "duration": 7, "velocity": 92}, {"time": 3878, "pitch": 46, "duration": 5, "velocity": 89}, {"time": 3884, "pitch": 51, "duration": 20, "velocity": 66}, {"time": 3884, "pitch": 58, "duration": 3, "velocity": 82}, {"time": 3884, "pitch": 63, "duration": 7, "velocity": 87}, {"time": 3890, "pitch": 58, "duration": 1, "velocity": 44}, {"time": 3893, "pitch": 65, "duration": 6, "velocity": 105}, {"time": 3899, "pitch": 58, "duration": 3, "velocity": 71}, {"time": 3902, "pitch": 63, "duration": 2, "velocity": 57}, {"time": 3908, "pitch": 51, "duration": 22, "velocity": 67}, {"time": 3908, "pitch": 58, "duration": 10, "velocity": 67}, {"time": 3908, "pitch": 63, "duration": 10, "velocity": 69}, {"time": 3908, "pitch": 67, "duration": 10, "velocity": 61}, {"time": 3920, "pitch": 58, "duration": 4, "velocity": 73}, {"time": 3920, "pitch": 63, "duration": 11, "velocity": 76}, {"time": 3926, "pitch": 58, "duration": 5, "velocity": 69}, {"time": 3932, "pitch": 44, "duration": 18, "velocity": 94}, {"time": 3932, "pitch": 56, "duration": 9, "velocity": 73}, {"time": 3932, "pitch": 60, "duration": 8, "velocity": 84}, {"time": 3938, "pitch": 51, "duration": 7, "velocity": 50}, {"time": 3944, "pitch": 56, "duration": 4, "velocity": 84}, {"time": 3944, "pitch": 63, "duration": 5, "velocity": 87}, {"time": 3950, "pitch": 51, "duration": 4, "velocity": 45}, {"time": 3956, "pitch": 46, "duration": 15, "velocity": 89}, {"time": 3956, "pitch": 58, "duration": 8, "velocity": 78}, {"time": 3956, "pitch": 62, "duration": 8, "velocity": 50}, {"time": 3962, "pitch": 53, "duration": 10, "velocity": 48}, {"time": 3968, "pitch": 58, "duration": 7, "velocity": 84}, {"time": 3968, "pitch": 62, "duration": 6, "velocity": 85}, {"time": 3968, "pitch": 65, "duration": 7, "velocity": 92}, {"time": 3974, "pitch": 46, "duration": 5, "velocity": 76}, {"time": 3980, "pitch": 51, "duration": 20, "velocity": 84}, {"time": 3980, "pitch": 58, "duration": 4, "velocity": 67}, {"time": 3980, "pitch": 63, "duration": 9, "velocity": 76}, {"time": 3986, "pitch": 58, "duration": 4, "velocity": 57}, {"time": 3992, "pitch": 65, "duration": 5, "velocity": 92}, {"time": 3998, "pitch": 58, "duration": 3, "velocity": 64}, {"time": 4004, "pitch": 51, "duration": 19, "velocity": 71}, {"time": 4004, "pitch": 58, "duration": 7, "velocity": 76}, {"time": 4004, "pitch": 67, "duration": 13, "velocity": 44}, {"time": 4016, "pitch": 58, "duration": 3, "velocity": 69}, {"time": 4016, "pitch": 63, "duration": 6, "velocity": 84}, {"time": 4028, "pitch": 51, "duration": 27, "velocity": 97}, {"time": 4028, "pitch": 63, "duration": 8, "velocity": 62}, {"time": 4028, "pitch": 67, "duration": 13, "velocity": 38}, {"time": 4034, "pitch": 58, "duration": 14, "velocity": 76}, {"time": 4040, "pitch": 63, "duration": 4, "velocity": 94}, {"time": 4046, "pitch": 63, "duration": 21, "velocity": 82}, {"time": 4046, "pitch": 67, "duration": 21, "velocity": 68}, {"time": 4076, "pitch": 48, "duration": 38, "velocity": 78}, {"time": 4076, "pitch": 60, "duration": 11, "velocity": 67}, {"time": 4076, "pitch": 63, "duration": 11, "velocity": 78}, {"time": 4082, "pitch": 55, "duration": 10, "velocity": 41}, {"time": 4088, "pitch": 60, "duration": 9, "velocity": 92}, {"time": 4088, "pitch": 63, "duration": 1, "velocity": 8}, {"time": 4094, "pitch": 55, "duration": 18, "velocity": 42}, {"time": 4100, "pitch": 60, "duration": 12, "velocity": 69}, {"time": 4100, "pitch": 67, "duration": 11, "velocity": 42}, {"time": 4124, "pitch": 44, "duration": 39, "velocity": 92}, {"time": 4124, "pitch": 56, "duration": 7, "velocity": 58}, {"time": 4124, "pitch": 63, "duration": 13, "velocity": 76}, {"time": 4130, "pitch": 51, "duration": 14, "velocity": 48}, {"time": 4136, "pitch": 56, "duration": 13, "velocity": 87}, {"time": 4142, "pitch": 63, "duration": 14, "velocity": 46}, {"time": 4148, "pitch": 51, "duration": 14, "velocity": 53}, {"time": 4154, "pitch": 56, "duration": 1, "velocity": 18}, {"time": 4160, "pitch": 56, "duration": 4, "velocity": 80}, {"time": 4160, "pitch": 60, "duration": 6, "velocity": 84}, {"time": 4166, "pitch": 51, "duration": 4, "velocity": 57}, {"time": 4172, "pitch": 46, "duration": 27, "velocity": 97}, {"time": 4172, "pitch": 58, "duration": 7, "velocity": 82}, {"time": 4172, "pitch": 62, "duration": 15, "velocity": 85}, {"time": 4178, "pitch": 53, "duration": 6, "velocity": 51}, {"time": 4184, "pitch": 58, "duration": 21, "velocity": 82}, {"time": 4190, "pitch": 53, "duration": 6, "velocity": 87}, {"time": 4196, "pitch": 70, "duration": 13, "velocity": 87}, {"time": 4202, "pitch": 53, "duration": 7, "velocity": 42}, {"time": 4208, "pitch": 58, "duration": 4, "velocity": 71}, {"time": 4208, "pitch": 62, "duration": 4, "velocity": 41}, {"time": 4220, "pitch": 65, "duration": 13, "velocity": 71}, {"time": 4220, "pitch": 51, "duration": 35, "velocity": 84}, {"time": 4226, "pitch": 58, "duration": 26, "velocity": 62}, {"time": 4233, "pitch": 63, "duration": 9, "velocity": 80}, {"time": 4240, "pitch": 67, "duration": 29, "velocity": 41}, {"time": 4248, "pitch": 70, "duration": 21, "velocity": 82}, {"time": 4268, "pitch": 51, "duration": 37, "velocity": 28}, {"time": 4269, "pitch": 58, "duration": 35, "velocity": 38}, {"time": 4270, "pitch": 70, "duration": 38, "velocity": 39}, {"time": 4272, "pitch": 67, "duration": 1, "velocity": 13}, {"time": 4272, "pitch": 79, "duration": 35, "velocity": 44}], "annotations": [{"time": 30, "annotation": {"number": 64, "value": 127}, "group": "control_change"}, {"time": 31, "annotation": {"number": 64, "value": 0}, "group": "control_change"}, {"time": 31, "annotation": {"number": 64, "value": 127}, "group": "control_change"}, {"time": 65, "annotation": {"number": 64, "value": 0}, "group": "control_change"}, {"time": 80, "annotation": {"number": 64, "value": 127}, "group": "control_change"}, {"time": 113, "annotation": {"number": 64, "value": 0}, "group": "control_change"}, {"time": 128, "annotation": {"number": 64, "value": 127}, "group": "control_change"}, {"time": 162, "annotation": {"number": 64, "value": 0}, "group": "control_change"}, {"time": 172, "annotation": {"number": 64, "value": 127}, "group": "control_change"}, {"time": 186, "annotation": {"number": 64, "value": 0}, "group": "control_change"}, {"time": 190, "annotation": {"number": 64, "value": 127}, "group": "control_change"}, {"time": 210, "annotation": {"number": 64, "value": 0}, "group": "control_change"}, {"time": 231, "annotation": {"number": 64, "value": 127}, "group": "control_change"}, {"time": 260, "annotation": {"number": 64, "value": 0}, "group": "control_change"}, {"time": 267, "annotation": {"number": 64, "value": 127}, "group": "control_change"}, {"time": 308, "annotation": {"number": 64, "value": 0}, "group": "control_change"}, {"time": 316, "annotation": {"number": 64, "value": 127}, "group": "control_change"}, {"time": 339, "annotation": {"number": 64, "value": 0}, "group": "control_change"}, {"time": 347, "annotation": {"number": 64, "value": 127}, "group": "control_change"}, {"time": 354, "annotation": {"number": 64, "value": 0}, "group": "control_change"}, {"time": 366, "annotation": {"number": 64, "value": 127}, "group": "control_change"}, {"time": 378, "annotation": {"number": 64, "value": 0}, "group": "control_change"}, {"time": 418, "annotation": {"number": 64, "value": 127}, "group": "control_change"}, {"time": 452, "annotation": {"number": 64, "value": 0}, "group": "control_change"}, {"time": 459, "annotation": {"number": 64, "value": 127}, "group": "control_change"}, {"time": 475, "annotation": {"number": 64, "value": 0}, "group": "control_change"}, {"time": 485, "annotation": {"number": 64, "value": 127}, "group": "control_change"}, {"time": 500, "annotation": {"number": 64, "value": 0}, "group": "control_change"}, {"time": 506, "annotation": {"number": 64, "value": 127}, "group": "control_change"}, {"time": 524, "annotation": {"number": 64, "value": 0}, "group": "control_change"}, {"time": 531, "annotation": {"number": 64, "value": 127}, "group": "control_change"}, {"time": 547, "annotation": {"number": 64, "value": 0}, "group": "control_change"}, {"time": 555, "annotation": {"number": 64, "value": 127}, "group": "control_change"}, {"time": 571, "annotation": {"number": 64, "value": 0}, "group": "control_change"}, {"time": 579, "annotation": {"number": 64, "value": 127}, "group": "control_change"}, {"time": 594, "annotation": {"number": 64, "value": 0}, "group": "control_change"}, {"time": 603, "annotation": {"number": 64, "value": 127}, "group": "control_change"}, {"time": 619, "annotation": {"number": 64, "value": 0}, "group": "control_change"}, {"time": 626, "annotation": {"number": 64, "value": 127}, "group": "control_change"}, {"time": 643, "annotation": {"number": 64, "value": 0}, "group": "control_change"}, {"time": 650, "annotation": {"number": 64, "value": 127}, "group": "control_change"}, {"time": 666, "annotation": {"number": 64, "value": 0}, "group": "control_change"}, {"time": 675, "annotation": {"number": 64, "value": 127}, "group": "control_change"}, {"time": 691, "annotation": {"number": 64, "value": 0}, "group": "control_change"}, {"time": 698, "annotation": {"number": 64, "value": 127}, "group": "control_change"}, {"time": 709, "annotation": {"number": 64, "value": 127}, "group": "control_change"}, {"time": 715, "annotation": {"number": 64, "value": 0}, "group": "control_change"}, {"time": 725, "annotation": {"number": 64, "value": 127}, "group": "control_change"}, {"time": 738, "annotation": {"number": 64, "value": 0}, "group": "control_change"}, {"time": 747, "annotation": {"number": 64, "value": 127}, "group": "control_change"}, {"time": 761, "annotation": {"number": 64, "value": 0}, "group": "control_change"}, {"time": 826, "annotation": {"number": 64, "value": 127}, "group": "control_change"}, {"time": 860, "annotation": {"number": 64, "value": 0}, "group": "control_change"}, {"time": 867, "annotation": {"number": 64, "value": 127}, "group": "control_change"}, {"time": 883, "annotation": {"number": 64, "value": 0}, "group": "control_change"}, {"time": 893, "annotation": {"number": 64, "value": 127}, "group": "control_change"}, {"time": 908, "annotation": {"number": 64, "value": 0}, "group": "control_change"}, {"time": 914, "annotation": {"number": 64, "value": 127}, "group": "control_change"}, {"time": 932, "annotation": {"number": 64, "value": 0}, "group": "control_change"}, {"time": 939, "annotation": {"number": 64, "value": 127}, "group": "control_change"}, {"time": 955, "annotation": {"number": 64, "value": 0}, "group": "control_change"}, {"time": 963, "annotation": {"number": 64, "value": 127}, "group": "control_change"}, {"time": 979, "annotation": {"number": 64, "value": 0}, "group": "control_change"}, {"time": 987, "annotation": {"number": 64, "value": 127}, "group": "control_change"}, {"time": 1002, "annotation": {"number": 64, "value": 0}, "group": "control_change"}, {"time": 1011, "annotation": {"number": 64, "value": 127}, "group": "control_change"}, {"time": 1027, "annotation": {"number": 64, "value": 0}, "group": "control_change"}, {"time": 1034, "annotation": {"number": 64, "value": 127}, "group": "control_change"}, {"time": 1051, "annotation": {"number": 64, "value": 0}, "group": "control_change"}, {"time": 1058, "annotation": {"number": 64, "value": 127}, "group": "control_change"}, {"time": 1074, "annotation": {"number": 64, "value": 0}, "group": "control_change"}, {"time": 1083, "annotation": {"number": 64, "value": 127}, "group": "control_change"}, {"time": 1099, "annotation": {"number": 64, "value": 0}, "group": "control_change"}, {"time": 1106, "annotation": {"number": 64, "value": 127}, "group": "control_change"}, {"time": 1117, "annotation": {"number": 64, "value": 127}, "group": "control_change"}, {"time": 1123, "annotation": {"number": 64, "value": 0}, "group": "control_change"}, {"time": 1133, "annotation": {"number": 64, "value": 127}, "group": "control_change"}, {"time": 1146, "annotation": {"number": 64, "value": 0}, "group": "control_change"}, {"time": 1155, "annotation": {"number": 64, "value": 127}, "group": "control_change"}, {"time": 1169, "annotation": {"number": 64, "value": 0}, "group": "control_change"}, {"time": 1220, "annotation": {"number": 64, "value": 127}, "group": "control_change"}, {"time": 1243, "annotation": {"number": 64, "value": 0}, "group": "control_change"}, {"time": 1246, "annotation": {"number": 64, "value": 127}, "group": "control_change"}, {"time": 1268, "annotation": {"number": 64, "value": 0}, "group": "control_change"}, {"time": 1272, "annotation": {"number": 64, "value": 127}, "group": "control_change"}, {"time": 1292, "annotation": {"number": 64, "value": 0}, "group": "control_change"}, {"time": 1296, "annotation": {"number": 64, "value": 127}, "group": "control_change"}, {"time": 1315, "annotation": {"number": 64, "value": 0}, "group": "control_change"}, {"time": 1317, "annotation": {"number": 64, "value": 127}, "group": "control_change"}, {"time": 1340, "annotation": {"number": 64, "value": 0}, "group": "control_change"}, {"time": 1344, "annotation": {"number": 64, "value": 127}, "group": "control_change"}, {"time": 1364, "annotation": {"number": 64, "value": 0}, "group": "control_change"}, {"time": 1365, "annotation": {"number": 64, "value": 127}, "group": "control_change"}, {"time": 1387, "annotation": {"number": 64, "value": 0}, "group": "control_change"}, {"time": 1389, "annotation": {"number": 64, "value": 127}, "group": "control_change"}, {"time": 1412, "annotation": {"number": 64, "value": 0}, "group": "control_change"}, {"time": 1417, "annotation": {"number": 64, "value": 127}, "group": "control_change"}, {"time": 1435, "annotation": {"number": 64, "value": 0}, "group": "control_change"}, {"time": 1437, "annotation": {"number": 64, "value": 127}, "group": "control_change"}, {"time": 1459, "annotation": {"number": 64, "value": 0}, "group": "control_change"}, {"time": 1461, "annotation": {"number": 64, "value": 127}, "group": "control_change"}, {"time": 1482, "annotation": {"number": 64, "value": 0}, "group": "control_change"}, {"time": 1483, "annotation": {"number": 64, "value": 127}, "group": "control_change"}, {"time": 1509, "annotation": {"number": 64, "value": 127}, "group": "control_change"}, {"time": 1532, "annotation": {"number": 64, "value": 0}, "group": "control_change"}, {"time": 1535, "annotation": {"number": 64, "value": 127}, "group": "control_change"}, {"time": 1556, "annotation": {"number": 64, "value": 0}, "group": "control_change"}, {"time": 1558, "annotation": {"number": 64, "value": 127}, "group": "control_change"}, {"time": 1580, "annotation": {"number": 64, "value": 0}, "group": "control_change"}, {"time": 1580, "annotation": {"number": 64, "value": 127}, "group": "control_change"}, {"time": 1604, "annotation": {"number": 64, "value": 0}, "group": "control_change"}, {"time": 1605, "annotation": {"number": 64, "value": 127}, "group": "control_change"}, {"time": 1627, "annotation": {"number": 64, "value": 0}, "group": "control_change"}, {"time": 1630, "annotation": {"number": 64, "value": 127}, "group": "control_change"}, {"time": 1652, "annotation": {"number": 64, "value": 0}, "group": "control_change"}, {"time": 1656, "annotation": {"number": 64, "value": 127}, "group": "control_change"}, {"time": 1676, "annotation": {"number": 64, "value": 0}, "group": "control_change"}, {"time": 1681, "annotation": {"number": 64, "value": 127}, "group": "control_change"}, {"time": 1700, "annotation": {"number": 64, "value": 0}, "group": "control_change"}, {"time": 1702, "annotation": {"number": 64, "value": 127}, "group": "control_change"}, {"time": 1725, "annotation": {"number": 64, "value": 0}, "group": "control_change"}, {"time": 1729, "annotation": {"number": 64, "value": 127}, "group": "control_change"}, {"time": 1748, "annotation": {"number": 64, "value": 0}, "group": "control_change"}, {"time": 1749, "annotation": {"number": 64, "value": 127}, "group": "control_change"}, {"time": 1771, "annotation": {"number": 64, "value": 0}, "group": "control_change"}, {"time": 1773, "annotation": {"number": 64, "value": 127}, "group": "control_change"}, {"time": 1797, "annotation": {"number": 64, "value": 0}, "group": "control_change"}, {"time": 1801, "annotation": {"number": 64, "value": 127}, "group": "control_change"}, {"time": 1820, "annotation": {"number": 64, "value": 0}, "group": "control_change"}, {"time": 1822, "annotation": {"number": 64, "value": 127}, "group": "control_change"}, {"time": 1844, "annotation": {"number": 64, "value": 0}, "group": "control_change"}, {"time": 1845, "annotation": {"number": 64, "value": 127}, "group": "control_change"}, {"time": 1866, "annotation": {"number": 64, "value": 0}, "group": "control_change"}, {"time": 1868, "annotation": {"number": 64, "value": 127}, "group": "control_change"}, {"time": 1878, "annotation": {"number": 64, "value": 0}, "group": "control_change"}, {"time": 1893, "annotation": {"number": 64, "value": 127}, "group": "control_change"}, {"time": 1916, "annotation": {"number": 64, "value": 0}, "group": "control_change"}, {"time": 1919, "annotation": {"number": 64, "value": 127}, "group": "control_change"}, {"time": 1940, "annotation": {"number": 64, "value": 0}, "group": "control_change"}, {"time": 1941, "annotation": {"number": 64, "value": 127}, "group": "control_change"}, {"time": 1962, "annotation": {"number": 64, "value": 0}, "group": "control_change"}, {"time": 1964, "annotation": {"number": 64, "value": 127}, "group": "control_change"}, {"time": 1988, "annotation": {"number": 64, "value": 0}, "group": "control_change"}, {"time": 1998, "annotation": {"number": 64, "value": 127}, "group": "control_change"}, {"time": 1999, "annotation": {"number": 64, "value": 0}, "group": "control_change"}, {"time": 1999, "annotation": {"number": 64, "value": 127}, "group": "control_change"}, {"time": 2033, "annotation": {"number": 64, "value": 0}, "group": "control_change"}, {"time": 2048, "annotation": {"number": 64, "value": 127}, "group": "control_change"}, {"time": 2081, "annotation": {"number": 64, "value": 0}, "group": "control_change"}, {"time": 2096, "annotation": {"number": 64, "value": 127}, "group": "control_change"}, {"time": 2130, "annotation": {"number": 64, "value": 0}, "group": "control_change"}, {"time": 2140, "annotation": {"number": 64, "value": 127}, "group": "control_change"}, {"time": 2154, "annotation": {"number": 64, "value": 0}, "group": "control_change"}, {"time": 2158, "annotation": {"number": 64, "value": 127}, "group": "control_change"}, {"time": 2178, "annotation": {"number": 64, "value": 0}, "group": "control_change"}, {"time": 2199, "annotation": {"number": 64, "value": 127}, "group": "control_change"}, {"time": 2228, "annotation": {"number": 64, "value": 0}, "group": "control_change"}, {"time": 2235, "annotation": {"number": 64, "value": 127}, "group": "control_change"}, {"time": 2276, "annotation": {"number": 64, "value": 0}, "group": "control_change"}, {"time": 2284, "annotation": {"number": 64, "value": 127}, "group": "control_change"}, {"time": 2307, "annotation": {"number": 64, "value": 0}, "group": "control_change"}, {"time": 2315, "annotation": {"number": 64, "value": 127}, "group": "control_change"}, {"time": 2322, "annotation": {"number": 64, "value": 0}, "group": "control_change"}, {"time": 2334, "annotation": {"number": 64, "value": 127}, "group": "control_change"}, {"time": 2346, "annotation": {"number": 64, "value": 0}, "group": "control_change"}, {"time": 2386, "annotation": {"number": 64, "value": 127}, "group": "control_change"}, {"time": 2420, "annotation": {"number": 64, "value": 0}, "group": "control_change"}, {"time": 2427, "annotation": {"number": 64, "value": 127}, "group": "control_change"}, {"time": 2443, "annotation": {"number": 64, "value": 0}, "group": "control_change"}, {"time": 2453, "annotation": {"number": 64, "value": 127}, "group": "control_change"}, {"time": 2468, "annotation": {"number": 64, "value": 0}, "group": "control_change"}, {"time": 2474, "annotation": {"number": 64, "value": 127}, "group": "control_change"}, {"time": 2492, "annotation": {"number": 64, "value": 0}, "group": "control_change"}, {"time": 2499, "annotation": {"number": 64, "value": 127}, "group": "control_change"}, {"time": 2515, "annotation": {"number": 64, "value": 0}, "group": "control_change"}, {"time": 2523, "annotation": {"number": 64, "value": 127}, "group": "control_change"}, {"time": 2539, "annotation": {"number": 64, "value": 0}, "group": "control_change"}, {"time": 2547, "annotation": {"number": 64, "value": 127}, "group": "control_change"}, {"time": 2562, "annotation": {"number": 64, "value": 0}, "group": "control_change"}, {"time": 2571, "annotation": {"number": 64, "value": 127}, "group": "control_change"}, {"time": 2587, "annotation": {"number": 64, "value": 0}, "group": "control_change"}, {"time": 2594, "annotation": {"number": 64, "value": 127}, "group": "control_change"}, {"time": 2611, "annotation": {"number": 64, "value": 0}, "group": "control_change"}, {"time": 2618, "annotation": {"number": 64, "value": 127}, "group": "control_change"}, {"time": 2634, "annotation": {"number": 64, "value": 0}, "group": "control_change"}, {"time": 2643, "annotation": {"number": 64, "value": 127}, "group": "control_change"}, {"time": 2659, "annotation": {"number": 64, "value": 0}, "group": "control_change"}, {"time": 2666, "annotation": {"number": 64, "value": 127}, "group": "control_change"}, {"time": 2677, "annotation": {"number": 64, "value": 127}, "group": "control_change"}, {"time": 2683, "annotation": {"number": 64, "value": 0}, "group": "control_change"}, {"time": 2693, "annotation": {"number": 64, "value": 127}, "group": "control_change"}, {"time": 2706, "annotation": {"number": 64, "value": 0}, "group": "control_change"}, {"time": 2715, "annotation": {"number": 64, "value": 127}, "group": "control_change"}, {"time": 2729, "annotation": {"number": 64, "value": 0}, "group": "control_change"}, {"time": 2780, "annotation": {"number": 64, "value": 127}, "group": "control_change"}, {"time": 2803, "annotation": {"number": 64, "value": 0}, "group": "control_change"}, {"time": 2805, "annotation": {"number": 64, "value": 127}, "group": "control_change"}, {"time": 2828, "annotation": {"number": 64, "value": 0}, "group": "control_change"}, {"time": 2831, "annotation": {"number": 64, "value": 127}, "group": "control_change"}, {"time": 2852, "annotation": {"number": 64, "value": 0}, "group": "control_change"}, {"time": 2856, "annotation": {"number": 64, "value": 127}, "group": "control_change"}, {"time": 2875, "annotation": {"number": 64, "value": 0}, "group": "control_change"}, {"time": 2877, "annotation": {"number": 64, "value": 127}, "group": "control_change"}, {"time": 2900, "annotation": {"number": 64, "value": 0}, "group": "control_change"}, {"time": 2904, "annotation": {"number": 64, "value": 127}, "group": "control_change"}, {"time": 2924, "annotation": {"number": 64, "value": 0}, "group": "control_change"}, {"time": 2925, "annotation": {"number": 64, "value": 127}, "group": "control_change"}, {"time": 2947, "annotation": {"number": 64, "value": 0}, "group": "control_change"}, {"time": 2949, "annotation": {"number": 64, "value": 127}, "group": "control_change"}, {"time": 2972, "annotation": {"number": 64, "value": 0}, "group": "control_change"}, {"time": 2976, "annotation": {"number": 64, "value": 127}, "group": "control_change"}, {"time": 2995, "annotation": {"number": 64, "value": 0}, "group": "control_change"}, {"time": 2997, "annotation": {"number": 64, "value": 127}, "group": "control_change"}, {"time": 3019, "annotation": {"number": 64, "value": 0}, "group": "control_change"}, {"time": 3021, "annotation": {"number": 64, "value": 127}, "group": "control_change"}, {"time": 3041, "annotation": {"number": 64, "value": 0}, "group": "control_change"}, {"time": 3043, "annotation": {"number": 64, "value": 127}, "group": "control_change"}, {"time": 3069, "annotation": {"number": 64, "value": 127}, "group": "control_change"}, {"time": 3092, "annotation": {"number": 64, "value": 0}, "group": "control_change"}, {"time": 3095, "annotation": {"number": 64, "value": 127}, "group": "control_change"}, {"time": 3116, "annotation": {"number": 64, "value": 0}, "group": "control_change"}, {"time": 3118, "annotation": {"number": 64, "value": 127}, "group": "control_change"}, {"time": 3140, "annotation": {"number": 64, "value": 0}, "group": "control_change"}, {"time": 3140, "annotation": {"number": 64, "value": 127}, "group": "control_change"}, {"time": 3164, "annotation": {"number": 64, "value": 0}, "group": "control_change"}, {"time": 3165, "annotation": {"number": 64, "value": 127}, "group": "control_change"}, {"time": 3187, "annotation": {"number": 64, "value": 0}, "group": "control_change"}, {"time": 3190, "annotation": {"number": 64, "value": 127}, "group": "control_change"}, {"time": 3212, "annotation": {"number": 64, "value": 0}, "group": "control_change"}, {"time": 3216, "annotation": {"number": 64, "value": 127}, "group": "control_change"}, {"time": 3236, "annotation": {"number": 64, "value": 0}, "group": "control_change"}, {"time": 3241, "annotation": {"number": 64, "value": 127}, "group": "control_change"}, {"time": 3260, "annotation": {"number": 64, "value": 0}, "group": "control_change"}, {"time": 3262, "annotation": {"number": 64, "value": 127}, "group": "control_change"}, {"time": 3285, "annotation": {"number": 64, "value": 0}, "group": "control_change"}, {"time": 3289, "annotation": {"number": 64, "value": 127}, "group": "control_change"}, {"time": 3308, "annotation": {"number": 64, "value": 0}, "group": "control_change"}, {"time": 3309, "annotation": {"number": 64, "value": 127}, "group": "control_change"}, {"time": 3331, "annotation": {"number": 64, "value": 0}, "group": "control_change"}, {"time": 3333, "annotation": {"number": 64, "value": 127}, "group": "control_change"}, {"time": 3357, "annotation": {"number": 64, "value": 0}, "group": "control_change"}, {"time": 3361, "annotation": {"number": 64, "value": 127}, "group": "control_change"}, {"time": 3380, "annotation": {"number": 64, "value": 0}, "group": "control_change"}, {"time": 3382, "annotation": {"number": 64, "value": 127}, "group": "control_change"}, {"time": 3404, "annotation": {"number": 64, "value": 0}, "group": "control_change"}, {"time": 3405, "annotation": {"number": 64, "value": 127}, "group": "control_change"}, {"time": 3426, "annotation": {"number": 64, "value": 0}, "group": "control_change"}, {"time": 3428, "annotation": {"number": 64, "value": 127}, "group": "control_change"}, {"time": 3438, "annotation": {"number": 64, "value": 0}, "group": "control_change"}, {"time": 3453, "annotation": {"number": 64, "value": 127}, "group": "control_change"}, {"time": 3476, "annotation": {"number": 64, "value": 0}, "group": "control_change"}, {"time": 3479, "annotation": {"number": 64, "value": 127}, "group": "control_change"}, {"time": 3499, "annotation": {"number": 64, "value": 0}, "group": "control_change"}, {"time": 3501, "annotation": {"number": 64, "value": 127}, "group": "control_change"}, {"time": 3522, "annotation": {"number": 64, "value": 0}, "group": "control_change"}, {"time": 3523, "annotation": {"number": 64, "value": 127}, "group": "control_change"}, {"time": 3548, "annotation": {"number": 64, "value": 0}, "group": "control_change"}, {"time": 3558, "annotation": {"number": 64, "value": 127}, "group": "control_change"}, {"time": 3570, "annotation": {"number": 64, "value": 0}, "group": "control_change"}, {"time": 3578, "annotation": {"number": 64, "value": 127}, "group": "control_change"}, {"time": 3594, "annotation": {"number": 64, "value": 0}, "group": "control_change"}, {"time": 3603, "annotation": {"number": 64, "value": 127}, "group": "control_change"}, {"time": 3620, "annotation": {"number": 64, "value": 0}, "group": "control_change"}, {"time": 3628, "annotation": {"number": 64, "value": 127}, "group": "control_change"}, {"time": 3644, "annotation": {"number": 64, "value": 0}, "group": "control_change"}, {"time": 3651, "annotation": {"number": 64, "value": 127}, "group": "control_change"}, {"time": 3667, "annotation": {"number": 64, "value": 0}, "group": "control_change"}, {"time": 3669, "annotation": {"number": 64, "value": 127}, "group": "control_change"}, {"time": 3692, "annotation": {"number": 64, "value": 127}, "group": "control_change"}, {"time": 3715, "annotation": {"number": 64, "value": 0}, "group": "control_change"}, {"time": 3721, "annotation": {"number": 64, "value": 127}, "group": "control_change"}, {"time": 3739, "annotation": {"number": 64, "value": 0}, "group": "control_change"}, {"time": 3745, "annotation": {"number": 64, "value": 127}, "group": "control_change"}, {"time": 3763, "annotation": {"number": 64, "value": 0}, "group": "control_change"}, {"time": 3770, "annotation": {"number": 64, "value": 127}, "group": "control_change"}, {"time": 3786, "annotation": {"number": 64, "value": 0}, "group": "control_change"}, {"time": 3796, "annotation": {"number": 64, "value": 127}, "group": "control_change"}, {"time": 3810, "annotation": {"number": 64, "value": 0}, "group": "control_change"}, {"time": 3816, "annotation": {"number": 64, "value": 127}, "group": "control_change"}, {"time": 3836, "annotation": {"number": 64, "value": 0}, "group": "control_change"}, {"time": 3837, "annotation": {"number": 64, "value": 127}, "group": "control_change"}, {"time": 3859, "annotation": {"number": 64, "value": 0}, "group": "control_change"}, {"time": 3865, "annotation": {"number": 64, "value": 127}, "group": "control_change"}, {"time": 3883, "annotation": {"number": 64, "value": 0}, "group": "control_change"}, {"time": 3888, "annotation": {"number": 64, "value": 127}, "group": "control_change"}, {"time": 3908, "annotation": {"number": 64, "value": 0}, "group": "control_change"}, {"time": 3912, "annotation": {"number": 64, "value": 127}, "group": "control_change"}, {"time": 3937, "annotation": {"number": 64, "value": 127}, "group": "control_change"}, {"time": 3955, "annotation": {"number": 64, "value": 0}, "group": "control_change"}, {"time": 3961, "annotation": {"number": 64, "value": 127}, "group": "control_change"}, {"time": 3978, "annotation": {"number": 64, "value": 0}, "group": "control_change"}, {"time": 3983, "annotation": {"number": 64, "value": 127}, "group": "control_change"}, {"time": 4004, "annotation": {"number": 64, "value": 0}, "group": "control_change"}, {"time": 4006, "annotation": {"number": 64, "value": 127}, "group": "control_change"}, {"time": 4038, "annotation": {"number": 64, "value": 127}, "group": "control_change"}, {"time": 4039, "annotation": {"number": 64, "value": 0}, "group": "control_change"}, {"time": 4039, "annotation": {"number": 64, "value": 127}, "group": "control_change"}, {"time": 4073, "annotation": {"number": 64, "value": 0}, "group": "control_change"}, {"time": 4088, "annotation": {"number": 64, "value": 127}, "group": "control_change"}, {"time": 4121, "annotation": {"number": 64, "value": 0}, "group": "control_change"}, {"time": 4136, "annotation": {"number": 64, "value": 127}, "group": "control_change"}, {"time": 4170, "annotation": {"number": 64, "value": 0}, "group": "control_change"}, {"time": 4180, "annotation": {"number": 64, "value": 127}, "group": "control_change"}, {"time": 4194, "annotation": {"number": 64, "value": 0}, "group": "control_change"}, {"time": 4198, "annotation": {"number": 64, "value": 127}, "group": "control_change"}, {"time": 4218, "annotation": {"number": 64, "value": 0}, "group": "control_change"}, {"time": 4239, "annotation": {"number": 64, "value": 127}, "group": "control_change"}, {"time": 4271, "annotation": {"number": 64, "value": 0}, "group": "control_change"}, {"time": 4272, "annotation": {"number": 64, "value": 127}, "group": "control_change"}]}]}