{"metadata": {"schema_version": "0.2", "title": "None", "source_filename": "012.mid", "source_format": "midi"}, "resolution": 12, "tempos": [{"time": 0, "qpm": 55.00000458333371}, {"time": 169, "qpm": 54.00000540000054}, {"time": 170, "qpm": 53.000022083342536}, {"time": 172, "qpm": 54.00000540000054}, {"time": 173, "qpm": 53.000022083342536}, {"time": 176, "qpm": 52.000006933334255}, {"time": 178, "qpm": 51.00002550001275}, {"time": 182, "qpm": 52.000006933334255}, {"time": 184, "qpm": 37.000037000037}, {"time": 187, "qpm": 38.000008866668736}, {"time": 187, "qpm": 37.000037000037}, {"time": 189, "qpm": 37.000037000037}, {"time": 190, "qpm": 38.000008866668736}, {"time": 190, "qpm": 39.000013650004774}, {"time": 191, "qpm": 40.0}, {"time": 192, "qpm": 41.00004578338446}, {"time": 192, "qpm": 42.00001260000378}, {"time": 197, "qpm": 37.000037000037}, {"time": 197, "qpm": 43.00002580001548}, {"time": 197, "qpm": 52.000006933334255}, {"time": 197, "qpm": 53.000022083342536}, {"time": 197, "qpm": 56.000029866682596}, {"time": 869, "qpm": 50.0}, {"time": 876, "qpm": 76.00006586672374}, {"time": 894, "qpm": 56.000029866682596}, {"time": 2807, "qpm": 54.00000540000054}, {"time": 2844, "qpm": 53.000022083342536}, {"time": 2863, "qpm": 54.00000540000054}, {"time": 2869, "qpm": 56.000029866682596}, {"time": 2952, "qpm": 54.00000540000054}, {"time": 2959, "qpm": 52.000006933334255}, {"time": 2987, "qpm": 51.00002550001275}, {"time": 2988, "qpm": 50.0}, {"time": 2989, "qpm": 49.000031850020704}, {"time": 3016, "qpm": 51.00002550001275}, {"time": 3019, "qpm": 50.0}, {"time": 3021, "qpm": 49.000031850020704}, {"time": 3023, "qpm": 48.0}, {"time": 3025, "qpm": 47.00002741668266}, {"time": 3027, "qpm": 46.00006440009016}, {"time": 3028, "qpm": 45.000011250002814}, {"time": 3070, "qpm": 37.000037000037}, {"time": 3085, "qpm": 55.00000458333371}, {"time": 3132, "qpm": 53.000022083342536}, {"time": 3135, "qpm": 51.00002550001275}, {"time": 3143, "qpm": 48.00003840003072}, {"time": 3151, "qpm": 46.00006440009016}, {"time": 3156, "qpm": 42.00001260000378}], "time_signatures": [{"time": 0, "numerator": 2, "denominator": 4}], "tracks": [{"program": 0, "is_drum": false, "name": "MELODY", "notes": [{"time": 290, "pitch": 58, "duration": 1, "velocity": 111}, {"time": 293, "pitch": 60, "duration": 1, "velocity": 105}, {"time": 296, "pitch": 65, "duration": 1, "velocity": 100}, {"time": 299, "pitch": 65, "duration": 1, "velocity": 92}, {"time": 302, "pitch": 65, "duration": 1, "velocity": 89}, {"time": 305, "pitch": 63, "duration": 1, "velocity": 76}, {"time": 308, "pitch": 65, "duration": 1, "velocity": 89}, {"time": 311, "pitch": 63, "duration": 5, "velocity": 102}, {"time": 320, "pitch": 65, "duration": 1, "velocity": 108}, {"time": 323, "pitch": 65, "duration": 1, "velocity": 102}, {"time": 326, "pitch": 65, "duration": 1, "velocity": 108}, {"time": 329, "pitch": 67, "duration": 2, "velocity": 109}, {"time": 332, "pitch": 65, "duration": 4, "velocity": 117}, {"time": 338, "pitch": 63, "duration": 1, "velocity": 111}, {"time": 341, "pitch": 60, "duration": 5, "velocity": 114}, {"time": 347, "pitch": 63, "duration": 21, "velocity": 97}, {"time": 386, "pitch": 58, "duration": 1, "velocity": 111}, {"time": 389, "pitch": 60, "duration": 1, "velocity": 108}, {"time": 392, "pitch": 65, "duration": 4, "velocity": 105}, {"time": 398, "pitch": 65, "duration": 1, "velocity": 100}, {"time": 401, "pitch": 63, "duration": 1, "velocity": 92}, {"time": 404, "pitch": 65, "duration": 4, "velocity": 102}, {"time": 410, "pitch": 63, "duration": 4, "velocity": 97}, {"time": 416, "pitch": 65, "duration": 1, "velocity": 102}, {"time": 419, "pitch": 65, "duration": 1, "velocity": 105}, {"time": 422, "pitch": 65, "duration": 2, "velocity": 111}, {"time": 425, "pitch": 67, "duration": 2, "velocity": 109}, {"time": 428, "pitch": 65, "duration": 4, "velocity": 64}, {"time": 434, "pitch": 63, "duration": 2, "velocity": 102}, {"time": 437, "pitch": 60, "duration": 5, "velocity": 108}, {"time": 443, "pitch": 67, "duration": 21, "velocity": 105}, {"time": 482, "pitch": 67, "duration": 1, "velocity": 102}, {"time": 485, "pitch": 70, "duration": 1, "velocity": 105}, {"time": 488, "pitch": 72, "duration": 2, "velocity": 84}, {"time": 491, "pitch": 72, "duration": 1, "velocity": 105}, {"time": 494, "pitch": 72, "duration": 1, "velocity": 97}, {"time": 497, "pitch": 72, "duration": 1, "velocity": 102}, {"time": 500, "pitch": 72, "duration": 4, "velocity": 111}, {"time": 506, "pitch": 72, "duration": 2, "velocity": 108}, {"time": 512, "pitch": 75, "duration": 4, "velocity": 105}, {"time": 518, "pitch": 75, "duration": 2, "velocity": 102}, {"time": 521, "pitch": 72, "duration": 1, "velocity": 108}, {"time": 524, "pitch": 72, "duration": 4, "velocity": 117}, {"time": 530, "pitch": 70, "duration": 2, "velocity": 111}, {"time": 536, "pitch": 72, "duration": 4, "velocity": 105}, {"time": 542, "pitch": 70, "duration": 6, "velocity": 114}, {"time": 554, "pitch": 65, "duration": 5, "velocity": 105}, {"time": 560, "pitch": 67, "duration": 14, "velocity": 99}, {"time": 578, "pitch": 58, "duration": 2, "velocity": 92}, {"time": 581, "pitch": 60, "duration": 1, "velocity": 105}, {"time": 584, "pitch": 65, "duration": 2, "velocity": 51}, {"time": 587, "pitch": 65, "duration": 1, "velocity": 97}, {"time": 590, "pitch": 65, "duration": 1, "velocity": 105}, {"time": 593, "pitch": 63, "duration": 2, "velocity": 89}, {"time": 596, "pitch": 65, "duration": 4, "velocity": 102}, {"time": 602, "pitch": 63, "duration": 4, "velocity": 100}, {"time": 608, "pitch": 65, "duration": 1, "velocity": 108}, {"time": 611, "pitch": 65, "duration": 1, "velocity": 102}, {"time": 614, "pitch": 65, "duration": 1, "velocity": 102}, {"time": 617, "pitch": 67, "duration": 1, "velocity": 100}, {"time": 620, "pitch": 65, "duration": 4, "velocity": 111}, {"time": 626, "pitch": 67, "duration": 4, "velocity": 102}, {"time": 632, "pitch": 65, "duration": 5, "velocity": 108}, {"time": 638, "pitch": 63, "duration": 13, "velocity": 111}, {"time": 665, "pitch": 65, "duration": 2, "velocity": 108}, {"time": 668, "pitch": 67, "duration": 4, "velocity": 112}, {"time": 674, "pitch": 70, "duration": 4, "velocity": 105}, {"time": 678, "pitch": 72, "duration": 16, "velocity": 108}, {"time": 701, "pitch": 67, "duration": 3, "velocity": 109}, {"time": 707, "pitch": 70, "duration": 13, "velocity": 102}, {"time": 725, "pitch": 70, "duration": 2, "velocity": 111}, {"time": 728, "pitch": 72, "duration": 3, "velocity": 108}, {"time": 734, "pitch": 72, "duration": 1, "velocity": 105}, {"time": 737, "pitch": 72, "duration": 1, "velocity": 108}, {"time": 740, "pitch": 70, "duration": 3, "velocity": 111}, {"time": 746, "pitch": 67, "duration": 2, "velocity": 99}, {"time": 749, "pitch": 65, "duration": 4, "velocity": 108}, {"time": 755, "pitch": 67, "duration": 7, "velocity": 105}, {"time": 764, "pitch": 67, "duration": 4, "velocity": 112}, {"time": 770, "pitch": 70, "duration": 4, "velocity": 111}, {"time": 776, "pitch": 72, "duration": 16, "velocity": 105}, {"time": 794, "pitch": 74, "duration": 4, "velocity": 105}, {"time": 800, "pitch": 72, "duration": 6, "velocity": 111}, {"time": 806, "pitch": 70, "duration": 8, "velocity": 108}, {"time": 821, "pitch": 70, "duration": 2, "velocity": 97}, {"time": 824, "pitch": 72, "duration": 4, "velocity": 114}, {"time": 830, "pitch": 72, "duration": 1, "velocity": 102}, {"time": 833, "pitch": 72, "duration": 1, "velocity": 105}, {"time": 836, "pitch": 72, "duration": 4, "velocity": 114}, {"time": 842, "pitch": 70, "duration": 1, "velocity": 111}, {"time": 845, "pitch": 72, "duration": 5, "velocity": 111}, {"time": 851, "pitch": 70, "duration": 20, "velocity": 117}, {"time": 890, "pitch": 70, "duration": 2, "velocity": 111}, {"time": 893, "pitch": 72, "duration": 1, "velocity": 114}, {"time": 896, "pitch": 79, "duration": 4, "velocity": 116}, {"time": 902, "pitch": 77, "duration": 1, "velocity": 108}, {"time": 905, "pitch": 75, "duration": 2, "velocity": 100}, {"time": 908, "pitch": 72, "duration": 4, "velocity": 111}, {"time": 914, "pitch": 67, "duration": 5, "velocity": 105}, {"time": 920, "pitch": 70, "duration": 15, "velocity": 102}, {"time": 938, "pitch": 70, "duration": 1, "velocity": 117}, {"time": 941, "pitch": 72, "duration": 1, "velocity": 108}, {"time": 944, "pitch": 79, "duration": 4, "velocity": 112}, {"time": 950, "pitch": 77, "duration": 1, "velocity": 102}, {"time": 953, "pitch": 75, "duration": 1, "velocity": 102}, {"time": 956, "pitch": 72, "duration": 4, "velocity": 114}, {"time": 962, "pitch": 67, "duration": 4, "velocity": 109}, {"time": 968, "pitch": 70, "duration": 14, "velocity": 105}, {"time": 986, "pitch": 70, "duration": 1, "velocity": 111}, {"time": 989, "pitch": 72, "duration": 1, "velocity": 111}, {"time": 992, "pitch": 79, "duration": 4, "velocity": 109}, {"time": 998, "pitch": 77, "duration": 2, "velocity": 100}, {"time": 1001, "pitch": 75, "duration": 1, "velocity": 111}, {"time": 1004, "pitch": 75, "duration": 4, "velocity": 114}, {"time": 1010, "pitch": 72, "duration": 2, "velocity": 111}, {"time": 1013, "pitch": 70, "duration": 1, "velocity": 108}, {"time": 1016, "pitch": 79, "duration": 4, "velocity": 109}, {"time": 1022, "pitch": 77, "duration": 2, "velocity": 102}, {"time": 1025, "pitch": 75, "duration": 1, "velocity": 92}, {"time": 1028, "pitch": 75, "duration": 4, "velocity": 114}, {"time": 1034, "pitch": 72, "duration": 2, "velocity": 94}, {"time": 1037, "pitch": 70, "duration": 2, "velocity": 114}, {"time": 1040, "pitch": 79, "duration": 4, "velocity": 109}, {"time": 1046, "pitch": 77, "duration": 1, "velocity": 108}, {"time": 1049, "pitch": 75, "duration": 1, "velocity": 100}, {"time": 1052, "pitch": 75, "duration": 5, "velocity": 108}, {"time": 1058, "pitch": 72, "duration": 3, "velocity": 114}, {"time": 1061, "pitch": 77, "duration": 12, "velocity": 105}, {"time": 1082, "pitch": 70, "duration": 1, "velocity": 111}, {"time": 1085, "pitch": 72, "duration": 1, "velocity": 111}, {"time": 1088, "pitch": 79, "duration": 4, "velocity": 116}, {"time": 1094, "pitch": 77, "duration": 1, "velocity": 100}, {"time": 1097, "pitch": 75, "duration": 1, "velocity": 100}, {"time": 1100, "pitch": 72, "duration": 4, "velocity": 117}, {"time": 1106, "pitch": 67, "duration": 4, "velocity": 105}, {"time": 1112, "pitch": 70, "duration": 16, "velocity": 105}, {"time": 1130, "pitch": 70, "duration": 1, "velocity": 114}, {"time": 1133, "pitch": 72, "duration": 1, "velocity": 111}, {"time": 1136, "pitch": 79, "duration": 4, "velocity": 109}, {"time": 1142, "pitch": 77, "duration": 1, "velocity": 100}, {"time": 1145, "pitch": 75, "duration": 1, "velocity": 87}, {"time": 1148, "pitch": 72, "duration": 5, "velocity": 105}, {"time": 1154, "pitch": 67, "duration": 4, "velocity": 109}, {"time": 1160, "pitch": 70, "duration": 16, "velocity": 108}, {"time": 1178, "pitch": 70, "duration": 1, "velocity": 114}, {"time": 1181, "pitch": 72, "duration": 1, "velocity": 111}, {"time": 1184, "pitch": 79, "duration": 4, "velocity": 112}, {"time": 1190, "pitch": 77, "duration": 1, "velocity": 100}, {"time": 1193, "pitch": 75, "duration": 1, "velocity": 108}, {"time": 1196, "pitch": 75, "duration": 4, "velocity": 111}, {"time": 1202, "pitch": 72, "duration": 1, "velocity": 114}, {"time": 1205, "pitch": 70, "duration": 1, "velocity": 111}, {"time": 1208, "pitch": 79, "duration": 4, "velocity": 105}, {"time": 1214, "pitch": 77, "duration": 2, "velocity": 92}, {"time": 1217, "pitch": 75, "duration": 1, "velocity": 92}, {"time": 1220, "pitch": 75, "duration": 4, "velocity": 114}, {"time": 1226, "pitch": 72, "duration": 1, "velocity": 108}, {"time": 1229, "pitch": 70, "duration": 2, "velocity": 111}, {"time": 1232, "pitch": 79, "duration": 5, "velocity": 105}, {"time": 1238, "pitch": 77, "duration": 1, "velocity": 102}, {"time": 1241, "pitch": 75, "duration": 1, "velocity": 105}, {"time": 1244, "pitch": 75, "duration": 4, "velocity": 108}, {"time": 1250, "pitch": 77, "duration": 4, "velocity": 108}, {"time": 1256, "pitch": 75, "duration": 32, "velocity": 111}, {"time": 1538, "pitch": 58, "duration": 1, "velocity": 111}, {"time": 1541, "pitch": 60, "duration": 1, "velocity": 105}, {"time": 1544, "pitch": 65, "duration": 1, "velocity": 100}, {"time": 1547, "pitch": 65, "duration": 1, "velocity": 92}, {"time": 1550, "pitch": 65, "duration": 1, "velocity": 89}, {"time": 1553, "pitch": 63, "duration": 1, "velocity": 76}, {"time": 1556, "pitch": 65, "duration": 1, "velocity": 89}, {"time": 1559, "pitch": 63, "duration": 5, "velocity": 102}, {"time": 1568, "pitch": 65, "duration": 1, "velocity": 108}, {"time": 1571, "pitch": 65, "duration": 1, "velocity": 102}, {"time": 1574, "pitch": 65, "duration": 1, "velocity": 108}, {"time": 1577, "pitch": 67, "duration": 2, "velocity": 109}, {"time": 1580, "pitch": 65, "duration": 4, "velocity": 117}, {"time": 1586, "pitch": 63, "duration": 1, "velocity": 111}, {"time": 1589, "pitch": 60, "duration": 5, "velocity": 114}, {"time": 1595, "pitch": 63, "duration": 21, "velocity": 97}, {"time": 1634, "pitch": 58, "duration": 1, "velocity": 111}, {"time": 1637, "pitch": 60, "duration": 1, "velocity": 108}, {"time": 1640, "pitch": 65, "duration": 4, "velocity": 105}, {"time": 1646, "pitch": 65, "duration": 1, "velocity": 100}, {"time": 1649, "pitch": 63, "duration": 1, "velocity": 92}, {"time": 1652, "pitch": 65, "duration": 4, "velocity": 102}, {"time": 1658, "pitch": 63, "duration": 4, "velocity": 97}, {"time": 1664, "pitch": 65, "duration": 1, "velocity": 102}, {"time": 1667, "pitch": 65, "duration": 1, "velocity": 105}, {"time": 1670, "pitch": 65, "duration": 2, "velocity": 111}, {"time": 1673, "pitch": 67, "duration": 2, "velocity": 109}, {"time": 1676, "pitch": 65, "duration": 4, "velocity": 64}, {"time": 1682, "pitch": 63, "duration": 2, "velocity": 102}, {"time": 1685, "pitch": 60, "duration": 5, "velocity": 108}, {"time": 1691, "pitch": 67, "duration": 21, "velocity": 105}, {"time": 1730, "pitch": 67, "duration": 1, "velocity": 102}, {"time": 1733, "pitch": 70, "duration": 1, "velocity": 105}, {"time": 1736, "pitch": 72, "duration": 2, "velocity": 84}, {"time": 1739, "pitch": 72, "duration": 1, "velocity": 105}, {"time": 1742, "pitch": 72, "duration": 1, "velocity": 97}, {"time": 1745, "pitch": 72, "duration": 1, "velocity": 102}, {"time": 1748, "pitch": 72, "duration": 4, "velocity": 111}, {"time": 1754, "pitch": 72, "duration": 2, "velocity": 108}, {"time": 1760, "pitch": 75, "duration": 4, "velocity": 105}, {"time": 1766, "pitch": 75, "duration": 2, "velocity": 102}, {"time": 1769, "pitch": 72, "duration": 1, "velocity": 108}, {"time": 1772, "pitch": 72, "duration": 4, "velocity": 117}, {"time": 1778, "pitch": 70, "duration": 2, "velocity": 111}, {"time": 1784, "pitch": 72, "duration": 4, "velocity": 105}, {"time": 1790, "pitch": 70, "duration": 6, "velocity": 114}, {"time": 1802, "pitch": 65, "duration": 5, "velocity": 105}, {"time": 1808, "pitch": 67, "duration": 14, "velocity": 99}, {"time": 1826, "pitch": 58, "duration": 2, "velocity": 92}, {"time": 1829, "pitch": 60, "duration": 1, "velocity": 105}, {"time": 1832, "pitch": 65, "duration": 2, "velocity": 51}, {"time": 1835, "pitch": 65, "duration": 1, "velocity": 97}, {"time": 1838, "pitch": 65, "duration": 1, "velocity": 105}, {"time": 1841, "pitch": 63, "duration": 2, "velocity": 89}, {"time": 1844, "pitch": 65, "duration": 4, "velocity": 102}, {"time": 1850, "pitch": 63, "duration": 4, "velocity": 100}, {"time": 1856, "pitch": 65, "duration": 1, "velocity": 108}, {"time": 1859, "pitch": 65, "duration": 1, "velocity": 102}, {"time": 1862, "pitch": 65, "duration": 1, "velocity": 102}, {"time": 1865, "pitch": 67, "duration": 1, "velocity": 100}, {"time": 1868, "pitch": 65, "duration": 4, "velocity": 111}, {"time": 1874, "pitch": 67, "duration": 4, "velocity": 102}, {"time": 1880, "pitch": 65, "duration": 5, "velocity": 108}, {"time": 1886, "pitch": 63, "duration": 13, "velocity": 111}, {"time": 1913, "pitch": 65, "duration": 2, "velocity": 108}, {"time": 1916, "pitch": 67, "duration": 4, "velocity": 112}, {"time": 1922, "pitch": 70, "duration": 4, "velocity": 105}, {"time": 1925, "pitch": 72, "duration": 16, "velocity": 108}, {"time": 1949, "pitch": 67, "duration": 4, "velocity": 109}, {"time": 1955, "pitch": 70, "duration": 10, "velocity": 102}, {"time": 1973, "pitch": 70, "duration": 2, "velocity": 111}, {"time": 1976, "pitch": 72, "duration": 3, "velocity": 108}, {"time": 1982, "pitch": 72, "duration": 1, "velocity": 105}, {"time": 1985, "pitch": 72, "duration": 1, "velocity": 108}, {"time": 1988, "pitch": 70, "duration": 3, "velocity": 111}, {"time": 1994, "pitch": 67, "duration": 2, "velocity": 99}, {"time": 1997, "pitch": 65, "duration": 4, "velocity": 108}, {"time": 2003, "pitch": 67, "duration": 7, "velocity": 105}, {"time": 2012, "pitch": 67, "duration": 4, "velocity": 112}, {"time": 2018, "pitch": 70, "duration": 4, "velocity": 111}, {"time": 2024, "pitch": 72, "duration": 16, "velocity": 105}, {"time": 2042, "pitch": 74, "duration": 4, "velocity": 105}, {"time": 2048, "pitch": 72, "duration": 6, "velocity": 111}, {"time": 2054, "pitch": 70, "duration": 8, "velocity": 108}, {"time": 2069, "pitch": 70, "duration": 2, "velocity": 97}, {"time": 2072, "pitch": 72, "duration": 4, "velocity": 114}, {"time": 2078, "pitch": 72, "duration": 1, "velocity": 102}, {"time": 2081, "pitch": 72, "duration": 1, "velocity": 105}, {"time": 2084, "pitch": 72, "duration": 4, "velocity": 114}, {"time": 2090, "pitch": 70, "duration": 1, "velocity": 111}, {"time": 2093, "pitch": 72, "duration": 5, "velocity": 111}, {"time": 2099, "pitch": 70, "duration": 11, "velocity": 117}, {"time": 2114, "pitch": 70, "duration": 2, "velocity": 111}, {"time": 2117, "pitch": 72, "duration": 1, "velocity": 114}, {"time": 2120, "pitch": 79, "duration": 4, "velocity": 116}, {"time": 2126, "pitch": 77, "duration": 1, "velocity": 108}, {"time": 2129, "pitch": 75, "duration": 2, "velocity": 100}, {"time": 2132, "pitch": 72, "duration": 4, "velocity": 111}, {"time": 2138, "pitch": 67, "duration": 5, "velocity": 105}, {"time": 2144, "pitch": 70, "duration": 15, "velocity": 102}, {"time": 2162, "pitch": 70, "duration": 1, "velocity": 117}, {"time": 2165, "pitch": 72, "duration": 1, "velocity": 108}, {"time": 2168, "pitch": 79, "duration": 4, "velocity": 112}, {"time": 2174, "pitch": 77, "duration": 1, "velocity": 102}, {"time": 2177, "pitch": 75, "duration": 1, "velocity": 102}, {"time": 2180, "pitch": 72, "duration": 4, "velocity": 114}, {"time": 2186, "pitch": 67, "duration": 4, "velocity": 109}, {"time": 2192, "pitch": 70, "duration": 14, "velocity": 105}, {"time": 2210, "pitch": 70, "duration": 1, "velocity": 111}, {"time": 2213, "pitch": 72, "duration": 1, "velocity": 111}, {"time": 2216, "pitch": 79, "duration": 4, "velocity": 109}, {"time": 2222, "pitch": 77, "duration": 2, "velocity": 100}, {"time": 2225, "pitch": 75, "duration": 1, "velocity": 111}, {"time": 2228, "pitch": 75, "duration": 4, "velocity": 114}, {"time": 2234, "pitch": 72, "duration": 2, "velocity": 111}, {"time": 2237, "pitch": 70, "duration": 1, "velocity": 108}, {"time": 2240, "pitch": 79, "duration": 4, "velocity": 109}, {"time": 2246, "pitch": 77, "duration": 2, "velocity": 102}, {"time": 2249, "pitch": 75, "duration": 1, "velocity": 92}, {"time": 2252, "pitch": 75, "duration": 4, "velocity": 114}, {"time": 2258, "pitch": 72, "duration": 2, "velocity": 94}, {"time": 2261, "pitch": 70, "duration": 2, "velocity": 114}, {"time": 2264, "pitch": 79, "duration": 4, "velocity": 109}, {"time": 2270, "pitch": 77, "duration": 1, "velocity": 108}, {"time": 2273, "pitch": 75, "duration": 1, "velocity": 100}, {"time": 2276, "pitch": 75, "duration": 5, "velocity": 108}, {"time": 2282, "pitch": 72, "duration": 3, "velocity": 114}, {"time": 2285, "pitch": 77, "duration": 12, "velocity": 105}, {"time": 2306, "pitch": 70, "duration": 1, "velocity": 111}, {"time": 2309, "pitch": 72, "duration": 1, "velocity": 111}, {"time": 2312, "pitch": 79, "duration": 4, "velocity": 116}, {"time": 2318, "pitch": 77, "duration": 1, "velocity": 100}, {"time": 2321, "pitch": 75, "duration": 1, "velocity": 100}, {"time": 2324, "pitch": 72, "duration": 4, "velocity": 117}, {"time": 2330, "pitch": 67, "duration": 4, "velocity": 105}, {"time": 2336, "pitch": 70, "duration": 16, "velocity": 105}, {"time": 2354, "pitch": 70, "duration": 1, "velocity": 114}, {"time": 2357, "pitch": 72, "duration": 1, "velocity": 111}, {"time": 2360, "pitch": 79, "duration": 4, "velocity": 109}, {"time": 2366, "pitch": 77, "duration": 1, "velocity": 100}, {"time": 2369, "pitch": 75, "duration": 1, "velocity": 87}, {"time": 2372, "pitch": 72, "duration": 5, "velocity": 105}, {"time": 2378, "pitch": 67, "duration": 4, "velocity": 109}, {"time": 2384, "pitch": 70, "duration": 16, "velocity": 108}, {"time": 2402, "pitch": 70, "duration": 1, "velocity": 114}, {"time": 2405, "pitch": 72, "duration": 1, "velocity": 111}, {"time": 2408, "pitch": 79, "duration": 4, "velocity": 112}, {"time": 2414, "pitch": 77, "duration": 1, "velocity": 100}, {"time": 2417, "pitch": 75, "duration": 1, "velocity": 108}, {"time": 2420, "pitch": 75, "duration": 4, "velocity": 111}, {"time": 2426, "pitch": 72, "duration": 1, "velocity": 114}, {"time": 2429, "pitch": 70, "duration": 1, "velocity": 111}, {"time": 2432, "pitch": 79, "duration": 4, "velocity": 105}, {"time": 2438, "pitch": 77, "duration": 2, "velocity": 92}, {"time": 2441, "pitch": 75, "duration": 1, "velocity": 92}, {"time": 2444, "pitch": 75, "duration": 4, "velocity": 114}, {"time": 2450, "pitch": 72, "duration": 1, "velocity": 108}, {"time": 2453, "pitch": 70, "duration": 2, "velocity": 111}, {"time": 2456, "pitch": 79, "duration": 5, "velocity": 105}, {"time": 2462, "pitch": 77, "duration": 1, "velocity": 102}, {"time": 2465, "pitch": 75, "duration": 1, "velocity": 105}, {"time": 2468, "pitch": 75, "duration": 4, "velocity": 108}, {"time": 2474, "pitch": 77, "duration": 4, "velocity": 108}, {"time": 2480, "pitch": 75, "duration": 15, "velocity": 111}, {"time": 2498, "pitch": 71, "duration": 2, "velocity": 111}, {"time": 2501, "pitch": 73, "duration": 1, "velocity": 114}, {"time": 2504, "pitch": 80, "duration": 4, "velocity": 116}, {"time": 2510, "pitch": 78, "duration": 1, "velocity": 108}, {"time": 2513, "pitch": 76, "duration": 2, "velocity": 100}, {"time": 2516, "pitch": 73, "duration": 4, "velocity": 111}, {"time": 2522, "pitch": 68, "duration": 5, "velocity": 105}, {"time": 2528, "pitch": 71, "duration": 15, "velocity": 102}, {"time": 2546, "pitch": 71, "duration": 1, "velocity": 117}, {"time": 2549, "pitch": 73, "duration": 1, "velocity": 108}, {"time": 2552, "pitch": 80, "duration": 4, "velocity": 112}, {"time": 2558, "pitch": 78, "duration": 1, "velocity": 102}, {"time": 2561, "pitch": 76, "duration": 1, "velocity": 102}, {"time": 2564, "pitch": 73, "duration": 4, "velocity": 114}, {"time": 2570, "pitch": 68, "duration": 4, "velocity": 109}, {"time": 2576, "pitch": 71, "duration": 14, "velocity": 105}, {"time": 2594, "pitch": 71, "duration": 1, "velocity": 111}, {"time": 2597, "pitch": 73, "duration": 1, "velocity": 111}, {"time": 2600, "pitch": 80, "duration": 4, "velocity": 109}, {"time": 2606, "pitch": 78, "duration": 2, "velocity": 100}, {"time": 2609, "pitch": 76, "duration": 1, "velocity": 111}, {"time": 2612, "pitch": 76, "duration": 4, "velocity": 114}, {"time": 2618, "pitch": 73, "duration": 2, "velocity": 111}, {"time": 2621, "pitch": 71, "duration": 1, "velocity": 108}, {"time": 2624, "pitch": 80, "duration": 4, "velocity": 109}, {"time": 2630, "pitch": 78, "duration": 2, "velocity": 102}, {"time": 2633, "pitch": 76, "duration": 1, "velocity": 92}, {"time": 2636, "pitch": 76, "duration": 4, "velocity": 114}, {"time": 2642, "pitch": 73, "duration": 2, "velocity": 94}, {"time": 2645, "pitch": 71, "duration": 2, "velocity": 114}, {"time": 2648, "pitch": 80, "duration": 4, "velocity": 109}, {"time": 2654, "pitch": 78, "duration": 1, "velocity": 108}, {"time": 2657, "pitch": 76, "duration": 1, "velocity": 100}, {"time": 2660, "pitch": 76, "duration": 5, "velocity": 108}, {"time": 2666, "pitch": 73, "duration": 3, "velocity": 114}, {"time": 2669, "pitch": 78, "duration": 12, "velocity": 105}, {"time": 2690, "pitch": 71, "duration": 1, "velocity": 111}, {"time": 2693, "pitch": 73, "duration": 1, "velocity": 111}, {"time": 2696, "pitch": 80, "duration": 4, "velocity": 116}, {"time": 2702, "pitch": 78, "duration": 1, "velocity": 100}, {"time": 2705, "pitch": 76, "duration": 1, "velocity": 100}, {"time": 2708, "pitch": 73, "duration": 4, "velocity": 117}, {"time": 2714, "pitch": 68, "duration": 4, "velocity": 105}, {"time": 2720, "pitch": 71, "duration": 16, "velocity": 105}, {"time": 2738, "pitch": 71, "duration": 1, "velocity": 114}, {"time": 2741, "pitch": 73, "duration": 1, "velocity": 111}, {"time": 2744, "pitch": 80, "duration": 4, "velocity": 109}, {"time": 2750, "pitch": 78, "duration": 1, "velocity": 100}, {"time": 2753, "pitch": 76, "duration": 1, "velocity": 87}, {"time": 2756, "pitch": 73, "duration": 5, "velocity": 105}, {"time": 2762, "pitch": 68, "duration": 4, "velocity": 109}, {"time": 2768, "pitch": 71, "duration": 16, "velocity": 108}, {"time": 2786, "pitch": 71, "duration": 1, "velocity": 114}, {"time": 2789, "pitch": 73, "duration": 1, "velocity": 111}, {"time": 2792, "pitch": 80, "duration": 4, "velocity": 112}, {"time": 2798, "pitch": 78, "duration": 1, "velocity": 100}, {"time": 2801, "pitch": 76, "duration": 1, "velocity": 108}, {"time": 2804, "pitch": 76, "duration": 4, "velocity": 111}, {"time": 2810, "pitch": 73, "duration": 1, "velocity": 114}, {"time": 2813, "pitch": 71, "duration": 1, "velocity": 111}, {"time": 2816, "pitch": 80, "duration": 4, "velocity": 105}, {"time": 2822, "pitch": 78, "duration": 2, "velocity": 92}, {"time": 2825, "pitch": 76, "duration": 1, "velocity": 92}, {"time": 2828, "pitch": 76, "duration": 4, "velocity": 114}, {"time": 2834, "pitch": 73, "duration": 1, "velocity": 108}, {"time": 2837, "pitch": 71, "duration": 2, "velocity": 111}, {"time": 2840, "pitch": 80, "duration": 5, "velocity": 105}, {"time": 2846, "pitch": 78, "duration": 1, "velocity": 102}, {"time": 2849, "pitch": 76, "duration": 1, "velocity": 105}, {"time": 2852, "pitch": 76, "duration": 4, "velocity": 108}, {"time": 2858, "pitch": 78, "duration": 4, "velocity": 108}, {"time": 2864, "pitch": 76, "duration": 15, "velocity": 111}, {"time": 2882, "pitch": 71, "duration": 2, "velocity": 102}, {"time": 2885, "pitch": 73, "duration": 1, "velocity": 105}, {"time": 2888, "pitch": 80, "duration": 4, "velocity": 105}, {"time": 2894, "pitch": 78, "duration": 2, "velocity": 89}, {"time": 2896, "pitch": 76, "duration": 2, "velocity": 78}, {"time": 2900, "pitch": 76, "duration": 4, "velocity": 108}, {"time": 2905, "pitch": 73, "duration": 2, "velocity": 94}, {"time": 2908, "pitch": 71, "duration": 2, "velocity": 105}, {"time": 2911, "pitch": 80, "duration": 4, "velocity": 109}, {"time": 2917, "pitch": 78, "duration": 2, "velocity": 89}, {"time": 2920, "pitch": 76, "duration": 2, "velocity": 102}, {"time": 2924, "pitch": 76, "duration": 4, "velocity": 114}, {"time": 2930, "pitch": 73, "duration": 1, "velocity": 84}, {"time": 2933, "pitch": 71, "duration": 2, "velocity": 105}, {"time": 2936, "pitch": 80, "duration": 5, "velocity": 109}, {"time": 2942, "pitch": 78, "duration": 2, "velocity": 92}, {"time": 2945, "pitch": 76, "duration": 1, "velocity": 102}, {"time": 2948, "pitch": 76, "duration": 5, "velocity": 111}, {"time": 2955, "pitch": 78, "duration": 4, "velocity": 105}, {"time": 2961, "pitch": 76, "duration": 13, "velocity": 111}, {"time": 2978, "pitch": 71, "duration": 1, "velocity": 92}, {"time": 2980, "pitch": 73, "duration": 2, "velocity": 105}, {"time": 2984, "pitch": 80, "duration": 4, "velocity": 112}, {"time": 2989, "pitch": 78, "duration": 3, "velocity": 89}, {"time": 2992, "pitch": 76, "duration": 1, "velocity": 76}, {"time": 2995, "pitch": 76, "duration": 5, "velocity": 92}, {"time": 3002, "pitch": 73, "duration": 3, "velocity": 92}, {"time": 3005, "pitch": 71, "duration": 3, "velocity": 100}, {"time": 3007, "pitch": 80, "duration": 4, "velocity": 102}, {"time": 3013, "pitch": 78, "duration": 2, "velocity": 84}, {"time": 3016, "pitch": 76, "duration": 2, "velocity": 92}, {"time": 3020, "pitch": 76, "duration": 4, "velocity": 105}, {"time": 3025, "pitch": 73, "duration": 2, "velocity": 82}, {"time": 3028, "pitch": 71, "duration": 2, "velocity": 84}, {"time": 3031, "pitch": 80, "duration": 3, "velocity": 93}, {"time": 3036, "pitch": 78, "duration": 2, "velocity": 92}, {"time": 3038, "pitch": 76, "duration": 2, "velocity": 97}, {"time": 3042, "pitch": 76, "duration": 10, "velocity": 111}, {"time": 3054, "pitch": 78, "duration": 22, "velocity": 105}, {"time": 3080, "pitch": 76, "duration": 34, "velocity": 97}]}, {"program": 0, "is_drum": false, "name": "BRIDGE", "notes": [{"time": 23, "pitch": 70, "duration": 7, "velocity": 114}, {"time": 32, "pitch": 75, "duration": 7, "velocity": 105}, {"time": 41, "pitch": 74, "duration": 6, "velocity": 105}, {"time": 46, "pitch": 70, "duration": 9, "velocity": 111}, {"time": 56, "pitch": 67, "duration": 13, "velocity": 82}, {"time": 71, "pitch": 70, "duration": 7, "velocity": 114}, {"time": 80, "pitch": 75, "duration": 7, "velocity": 108}, {"time": 89, "pitch": 74, "duration": 6, "velocity": 105}, {"time": 95, "pitch": 70, "duration": 8, "velocity": 114}, {"time": 104, "pitch": 70, "duration": 9, "velocity": 117}, {"time": 119, "pitch": 68, "duration": 8, "velocity": 105}, {"time": 137, "pitch": 67, "duration": 6, "velocity": 109}, {"time": 143, "pitch": 70, "duration": 9, "velocity": 108}, {"time": 152, "pitch": 60, "duration": 9, "velocity": 92}, {"time": 164, "pitch": 60, "duration": 3, "velocity": 114}, {"time": 167, "pitch": 63, "duration": 3, "velocity": 102}, {"time": 170, "pitch": 75, "duration": 3, "velocity": 111}, {"time": 173, "pitch": 82, "duration": 21, "velocity": 108}, {"time": 194, "pitch": 70, "duration": 3, "velocity": 111}, {"time": 197, "pitch": 72, "duration": 2, "velocity": 108}, {"time": 200, "pitch": 79, "duration": 5, "velocity": 116}, {"time": 206, "pitch": 77, "duration": 2, "velocity": 111}, {"time": 209, "pitch": 75, "duration": 2, "velocity": 105}, {"time": 212, "pitch": 72, "duration": 5, "velocity": 117}, {"time": 218, "pitch": 70, "duration": 1, "velocity": 108}, {"time": 221, "pitch": 72, "duration": 1, "velocity": 102}, {"time": 224, "pitch": 79, "duration": 4, "velocity": 112}, {"time": 230, "pitch": 77, "duration": 2, "velocity": 94}, {"time": 233, "pitch": 75, "duration": 2, "velocity": 100}, {"time": 236, "pitch": 72, "duration": 4, "velocity": 114}, {"time": 242, "pitch": 70, "duration": 2, "velocity": 105}, {"time": 245, "pitch": 72, "duration": 2, "velocity": 105}, {"time": 248, "pitch": 75, "duration": 34, "velocity": 108}, {"time": 668, "pitch": 63, "duration": 5, "velocity": 87}, {"time": 668, "pitch": 67, "duration": 5, "velocity": 85}, {"time": 674, "pitch": 62, "duration": 4, "velocity": 93}, {"time": 674, "pitch": 65, "duration": 5, "velocity": 92}, {"time": 680, "pitch": 60, "duration": 22, "velocity": 89}, {"time": 680, "pitch": 63, "duration": 23, "velocity": 97}, {"time": 719, "pitch": 63, "duration": 3, "velocity": 67}, {"time": 722, "pitch": 62, "duration": 3, "velocity": 65}, {"time": 725, "pitch": 63, "duration": 3, "velocity": 102}, {"time": 728, "pitch": 60, "duration": 12, "velocity": 97}, {"time": 866, "pitch": 74, "duration": 3, "velocity": 76}, {"time": 869, "pitch": 72, "duration": 3, "velocity": 92}, {"time": 872, "pitch": 70, "duration": 23, "velocity": 92}, {"time": 1295, "pitch": 70, "duration": 2, "velocity": 120}, {"time": 1298, "pitch": 75, "duration": 2, "velocity": 111}, {"time": 1301, "pitch": 77, "duration": 1, "velocity": 114}, {"time": 1304, "pitch": 79, "duration": 4, "velocity": 109}, {"time": 1310, "pitch": 77, "duration": 2, "velocity": 108}, {"time": 1313, "pitch": 75, "duration": 2, "velocity": 111}, {"time": 1316, "pitch": 72, "duration": 4, "velocity": 120}, {"time": 1322, "pitch": 67, "duration": 2, "velocity": 109}, {"time": 1325, "pitch": 70, "duration": 16, "velocity": 117}, {"time": 1343, "pitch": 70, "duration": 1, "velocity": 117}, {"time": 1346, "pitch": 75, "duration": 2, "velocity": 108}, {"time": 1349, "pitch": 77, "duration": 2, "velocity": 108}, {"time": 1352, "pitch": 79, "duration": 5, "velocity": 116}, {"time": 1358, "pitch": 77, "duration": 1, "velocity": 117}, {"time": 1361, "pitch": 75, "duration": 8, "velocity": 117}, {"time": 1370, "pitch": 84, "duration": 4, "velocity": 117}, {"time": 1376, "pitch": 82, "duration": 14, "velocity": 120}, {"time": 1391, "pitch": 70, "duration": 2, "velocity": 120}, {"time": 1394, "pitch": 75, "duration": 2, "velocity": 114}, {"time": 1397, "pitch": 77, "duration": 1, "velocity": 117}, {"time": 1400, "pitch": 78, "duration": 10, "velocity": 114}, {"time": 1412, "pitch": 77, "duration": 5, "velocity": 117}, {"time": 1418, "pitch": 75, "duration": 2, "velocity": 111}, {"time": 1421, "pitch": 71, "duration": 16, "velocity": 112}, {"time": 1439, "pitch": 71, "duration": 2, "velocity": 109}, {"time": 1442, "pitch": 75, "duration": 2, "velocity": 120}, {"time": 1445, "pitch": 77, "duration": 2, "velocity": 114}, {"time": 1448, "pitch": 78, "duration": 16, "velocity": 117}, {"time": 1466, "pitch": 80, "duration": 2, "velocity": 114}, {"time": 1469, "pitch": 77, "duration": 14, "velocity": 117}, {"time": 1484, "pitch": 73, "duration": 10, "velocity": 120}, {"time": 1496, "pitch": 75, "duration": 46, "velocity": 111}, {"time": 1916, "pitch": 63, "duration": 5, "velocity": 87}, {"time": 1916, "pitch": 67, "duration": 5, "velocity": 85}, {"time": 1922, "pitch": 62, "duration": 4, "velocity": 93}, {"time": 1922, "pitch": 65, "duration": 5, "velocity": 92}, {"time": 1928, "pitch": 60, "duration": 22, "velocity": 89}, {"time": 1928, "pitch": 63, "duration": 23, "velocity": 97}, {"time": 1967, "pitch": 63, "duration": 3, "velocity": 67}, {"time": 1970, "pitch": 62, "duration": 3, "velocity": 65}, {"time": 1973, "pitch": 63, "duration": 3, "velocity": 102}, {"time": 1976, "pitch": 60, "duration": 12, "velocity": 97}, {"time": 2120, "pitch": 79, "duration": 4, "velocity": 105}, {"time": 2125, "pitch": 77, "duration": 2, "velocity": 102}, {"time": 2128, "pitch": 75, "duration": 2, "velocity": 97}, {"time": 2132, "pitch": 72, "duration": 3, "velocity": 108}, {"time": 2138, "pitch": 70, "duration": 1, "velocity": 100}, {"time": 2141, "pitch": 72, "duration": 9, "velocity": 105}, {"time": 2150, "pitch": 70, "duration": 12, "velocity": 105}, {"time": 2167, "pitch": 79, "duration": 4, "velocity": 105}, {"time": 2174, "pitch": 77, "duration": 1, "velocity": 92}, {"time": 2176, "pitch": 75, "duration": 2, "velocity": 102}, {"time": 2179, "pitch": 72, "duration": 10, "velocity": 100}, {"time": 2209, "pitch": 80, "duration": 3, "velocity": 97}, {"time": 2212, "pitch": 79, "duration": 2, "velocity": 96}, {"time": 2215, "pitch": 75, "duration": 15, "velocity": 102}, {"time": 2233, "pitch": 70, "duration": 2, "velocity": 92}, {"time": 2236, "pitch": 72, "duration": 2, "velocity": 97}, {"time": 2239, "pitch": 70, "duration": 6, "velocity": 108}, {"time": 2248, "pitch": 67, "duration": 3, "velocity": 44}, {"time": 2251, "pitch": 65, "duration": 6, "velocity": 87}, {"time": 2257, "pitch": 63, "duration": 5, "velocity": 92}, {"time": 2264, "pitch": 65, "duration": 10, "velocity": 78}, {"time": 2276, "pitch": 67, "duration": 5, "velocity": 72}, {"time": 2282, "pitch": 68, "duration": 5, "velocity": 78}, {"time": 2288, "pitch": 70, "duration": 17, "velocity": 100}, {"time": 2311, "pitch": 75, "duration": 17, "velocity": 114}, {"time": 2329, "pitch": 75, "duration": 5, "velocity": 108}, {"time": 2336, "pitch": 77, "duration": 12, "velocity": 108}, {"time": 2348, "pitch": 74, "duration": 4, "velocity": 105}, {"time": 2354, "pitch": 70, "duration": 4, "velocity": 105}, {"time": 2360, "pitch": 82, "duration": 10, "velocity": 108}, {"time": 2372, "pitch": 77, "duration": 10, "velocity": 100}, {"time": 2384, "pitch": 79, "duration": 15, "velocity": 105}, {"time": 2401, "pitch": 77, "duration": 5, "velocity": 105}, {"time": 2408, "pitch": 75, "duration": 10, "velocity": 94}, {"time": 2420, "pitch": 77, "duration": 5, "velocity": 87}, {"time": 2425, "pitch": 75, "duration": 3, "velocity": 82}, {"time": 2432, "pitch": 79, "duration": 10, "velocity": 105}, {"time": 2444, "pitch": 77, "duration": 4, "velocity": 82}, {"time": 2449, "pitch": 75, "duration": 5, "velocity": 76}, {"time": 2456, "pitch": 79, "duration": 9, "velocity": 82}, {"time": 2468, "pitch": 77, "duration": 9, "velocity": 92}, {"time": 2480, "pitch": 75, "duration": 17, "velocity": 100}, {"time": 2504, "pitch": 80, "duration": 4, "velocity": 105}, {"time": 2510, "pitch": 78, "duration": 1, "velocity": 102}, {"time": 2512, "pitch": 76, "duration": 2, "velocity": 97}, {"time": 2516, "pitch": 73, "duration": 3, "velocity": 108}, {"time": 2522, "pitch": 71, "duration": 1, "velocity": 100}, {"time": 2525, "pitch": 73, "duration": 9, "velocity": 105}, {"time": 2534, "pitch": 71, "duration": 12, "velocity": 105}, {"time": 2552, "pitch": 80, "duration": 3, "velocity": 105}, {"time": 2558, "pitch": 78, "duration": 1, "velocity": 92}, {"time": 2560, "pitch": 76, "duration": 2, "velocity": 102}, {"time": 2564, "pitch": 73, "duration": 9, "velocity": 100}, {"time": 2594, "pitch": 81, "duration": 2, "velocity": 97}, {"time": 2597, "pitch": 80, "duration": 1, "velocity": 96}, {"time": 2600, "pitch": 76, "duration": 14, "velocity": 102}, {"time": 2618, "pitch": 71, "duration": 2, "velocity": 92}, {"time": 2620, "pitch": 73, "duration": 2, "velocity": 97}, {"time": 2623, "pitch": 71, "duration": 7, "velocity": 108}, {"time": 2633, "pitch": 68, "duration": 2, "velocity": 44}, {"time": 2636, "pitch": 66, "duration": 5, "velocity": 87}, {"time": 2642, "pitch": 64, "duration": 5, "velocity": 92}, {"time": 2648, "pitch": 66, "duration": 11, "velocity": 78}, {"time": 2660, "pitch": 68, "duration": 6, "velocity": 72}, {"time": 2666, "pitch": 69, "duration": 6, "velocity": 78}, {"time": 2673, "pitch": 71, "duration": 16, "velocity": 100}, {"time": 2695, "pitch": 76, "duration": 17, "velocity": 114}, {"time": 2714, "pitch": 76, "duration": 4, "velocity": 108}, {"time": 2720, "pitch": 78, "duration": 12, "velocity": 108}, {"time": 2732, "pitch": 75, "duration": 5, "velocity": 105}, {"time": 2738, "pitch": 71, "duration": 4, "velocity": 105}, {"time": 2744, "pitch": 83, "duration": 10, "velocity": 108}, {"time": 2756, "pitch": 78, "duration": 10, "velocity": 100}, {"time": 2768, "pitch": 80, "duration": 16, "velocity": 105}, {"time": 2786, "pitch": 78, "duration": 4, "velocity": 105}, {"time": 2792, "pitch": 76, "duration": 11, "velocity": 94}, {"time": 2804, "pitch": 78, "duration": 5, "velocity": 87}, {"time": 2810, "pitch": 76, "duration": 2, "velocity": 82}, {"time": 2816, "pitch": 80, "duration": 10, "velocity": 105}, {"time": 2828, "pitch": 78, "duration": 5, "velocity": 82}, {"time": 2833, "pitch": 76, "duration": 6, "velocity": 76}, {"time": 2840, "pitch": 80, "duration": 10, "velocity": 82}, {"time": 2852, "pitch": 78, "duration": 10, "velocity": 92}, {"time": 2864, "pitch": 76, "duration": 17, "velocity": 100}, {"time": 3094, "pitch": 71, "duration": 7, "velocity": 114}, {"time": 3103, "pitch": 76, "duration": 7, "velocity": 105}, {"time": 3112, "pitch": 75, "duration": 9, "velocity": 105}, {"time": 3121, "pitch": 71, "duration": 5, "velocity": 111}, {"time": 3127, "pitch": 80, "duration": 6, "velocity": 116}, {"time": 3133, "pitch": 78, "duration": 2, "velocity": 111}, {"time": 3136, "pitch": 76, "duration": 2, "velocity": 105}, {"time": 3139, "pitch": 73, "duration": 5, "velocity": 117}, {"time": 3145, "pitch": 71, "duration": 2, "velocity": 108}, {"time": 3148, "pitch": 73, "duration": 2, "velocity": 102}, {"time": 3151, "pitch": 80, "duration": 5, "velocity": 112}, {"time": 3157, "pitch": 78, "duration": 2, "velocity": 94}, {"time": 3160, "pitch": 76, "duration": 2, "velocity": 100}, {"time": 3163, "pitch": 73, "duration": 5, "velocity": 114}, {"time": 3169, "pitch": 71, "duration": 2, "velocity": 105}, {"time": 3172, "pitch": 73, "duration": 2, "velocity": 105}, {"time": 3175, "pitch": 76, "duration": 34, "velocity": 108}]}, {"program": 0, "is_drum": false, "name": "PIANO", "notes": [{"time": 8, "pitch": 51, "duration": 22, "velocity": 97}, {"time": 11, "pitch": 58, "duration": 7, "velocity": 69}, {"time": 14, "pitch": 62, "duration": 3, "velocity": 87}, {"time": 17, "pitch": 63, "duration": 7, "velocity": 84}, {"time": 20, "pitch": 58, "duration": 11, "velocity": 64}, {"time": 23, "pitch": 70, "duration": 4, "velocity": 73}, {"time": 26, "pitch": 62, "duration": 4, "velocity": 72}, {"time": 29, "pitch": 63, "duration": 4, "velocity": 78}, {"time": 32, "pitch": 51, "duration": 22, "velocity": 94}, {"time": 32, "pitch": 70, "duration": 7, "velocity": 82}, {"time": 35, "pitch": 58, "duration": 7, "velocity": 76}, {"time": 38, "pitch": 62, "duration": 4, "velocity": 43}, {"time": 41, "pitch": 63, "duration": 7, "velocity": 78}, {"time": 44, "pitch": 58, "duration": 11, "velocity": 62}, {"time": 47, "pitch": 70, "duration": 4, "velocity": 73}, {"time": 50, "pitch": 62, "duration": 3, "velocity": 70}, {"time": 53, "pitch": 63, "duration": 2, "velocity": 82}, {"time": 56, "pitch": 48, "duration": 22, "velocity": 94}, {"time": 59, "pitch": 55, "duration": 7, "velocity": 52}, {"time": 62, "pitch": 62, "duration": 9, "velocity": 68}, {"time": 65, "pitch": 63, "duration": 7, "velocity": 80}, {"time": 68, "pitch": 55, "duration": 12, "velocity": 70}, {"time": 71, "pitch": 70, "duration": 6, "velocity": 87}, {"time": 74, "pitch": 62, "duration": 6, "velocity": 72}, {"time": 77, "pitch": 63, "duration": 4, "velocity": 89}, {"time": 80, "pitch": 48, "duration": 21, "velocity": 87}, {"time": 80, "pitch": 70, "duration": 9, "velocity": 97}, {"time": 83, "pitch": 55, "duration": 7, "velocity": 42}, {"time": 86, "pitch": 62, "duration": 9, "velocity": 65}, {"time": 89, "pitch": 63, "duration": 9, "velocity": 87}, {"time": 92, "pitch": 55, "duration": 7, "velocity": 46}, {"time": 95, "pitch": 70, "duration": 8, "velocity": 87}, {"time": 98, "pitch": 62, "duration": 4, "velocity": 59}, {"time": 101, "pitch": 63, "duration": 3, "velocity": 92}, {"time": 104, "pitch": 44, "duration": 21, "velocity": 97}, {"time": 104, "pitch": 63, "duration": 1, "velocity": 84}, {"time": 107, "pitch": 51, "duration": 7, "velocity": 71}, {"time": 110, "pitch": 56, "duration": 8, "velocity": 82}, {"time": 113, "pitch": 60, "duration": 7, "velocity": 102}, {"time": 116, "pitch": 51, "duration": 10, "velocity": 73}, {"time": 119, "pitch": 63, "duration": 10, "velocity": 92}, {"time": 122, "pitch": 56, "duration": 5, "velocity": 76}, {"time": 125, "pitch": 60, "duration": 5, "velocity": 53}, {"time": 128, "pitch": 43, "duration": 21, "velocity": 99}, {"time": 131, "pitch": 50, "duration": 17, "velocity": 70}, {"time": 131, "pitch": 63, "duration": 3, "velocity": 24}, {"time": 134, "pitch": 55, "duration": 9, "velocity": 82}, {"time": 137, "pitch": 62, "duration": 10, "velocity": 79}, {"time": 143, "pitch": 58, "duration": 4, "velocity": 80}, {"time": 146, "pitch": 55, "duration": 4, "velocity": 96}, {"time": 149, "pitch": 62, "duration": 3, "velocity": 57}, {"time": 152, "pitch": 41, "duration": 43, "velocity": 100}, {"time": 152, "pitch": 56, "duration": 7, "velocity": 87}, {"time": 155, "pitch": 48, "duration": 7, "velocity": 73}, {"time": 158, "pitch": 53, "duration": 9, "velocity": 84}, {"time": 161, "pitch": 60, "duration": 8, "velocity": 94}, {"time": 164, "pitch": 48, "duration": 5, "velocity": 64}, {"time": 167, "pitch": 56, "duration": 30, "velocity": 82}, {"time": 170, "pitch": 48, "duration": 27, "velocity": 76}, {"time": 173, "pitch": 53, "duration": 24, "velocity": 78}, {"time": 200, "pitch": 53, "duration": 9, "velocity": 97}, {"time": 200, "pitch": 65, "duration": 4, "velocity": 66}, {"time": 200, "pitch": 68, "duration": 7, "velocity": 78}, {"time": 203, "pitch": 60, "duration": 8, "velocity": 67}, {"time": 206, "pitch": 65, "duration": 6, "velocity": 71}, {"time": 209, "pitch": 68, "duration": 3, "velocity": 71}, {"time": 212, "pitch": 55, "duration": 13, "velocity": 97}, {"time": 215, "pitch": 58, "duration": 9, "velocity": 42}, {"time": 218, "pitch": 67, "duration": 4, "velocity": 96}, {"time": 221, "pitch": 70, "duration": 4, "velocity": 84}, {"time": 224, "pitch": 56, "duration": 9, "velocity": 82}, {"time": 224, "pitch": 63, "duration": 2, "velocity": 67}, {"time": 224, "pitch": 68, "duration": 7, "velocity": 80}, {"time": 230, "pitch": 63, "duration": 3, "velocity": 92}, {"time": 233, "pitch": 72, "duration": 5, "velocity": 84}, {"time": 236, "pitch": 58, "duration": 6, "velocity": 105}, {"time": 239, "pitch": 65, "duration": 3, "velocity": 82}, {"time": 242, "pitch": 70, "duration": 4, "velocity": 89}, {"time": 248, "pitch": 51, "duration": 16, "velocity": 97}, {"time": 251, "pitch": 58, "duration": 6, "velocity": 49}, {"time": 254, "pitch": 63, "duration": 3, "velocity": 57}, {"time": 257, "pitch": 65, "duration": 7, "velocity": 89}, {"time": 260, "pitch": 58, "duration": 4, "velocity": 73}, {"time": 263, "pitch": 67, "duration": 3, "velocity": 112}, {"time": 266, "pitch": 70, "duration": 2, "velocity": 82}, {"time": 269, "pitch": 60, "duration": 25, "velocity": 88}, {"time": 270, "pitch": 63, "duration": 24, "velocity": 96}, {"time": 272, "pitch": 46, "duration": 22, "velocity": 105}, {"time": 272, "pitch": 65, "duration": 22, "velocity": 92}, {"time": 296, "pitch": 53, "duration": 16, "velocity": 102}, {"time": 296, "pitch": 65, "duration": 10, "velocity": 76}, {"time": 296, "pitch": 68, "duration": 10, "velocity": 82}, {"time": 302, "pitch": 60, "duration": 7, "velocity": 50}, {"time": 308, "pitch": 65, "duration": 3, "velocity": 87}, {"time": 308, "pitch": 68, "duration": 6, "velocity": 97}, {"time": 311, "pitch": 60, "duration": 3, "velocity": 58}, {"time": 314, "pitch": 65, "duration": 7, "velocity": 64}, {"time": 320, "pitch": 46, "duration": 17, "velocity": 97}, {"time": 323, "pitch": 53, "duration": 7, "velocity": 69}, {"time": 326, "pitch": 58, "duration": 8, "velocity": 62}, {"time": 329, "pitch": 62, "duration": 9, "velocity": 99}, {"time": 332, "pitch": 50, "duration": 5, "velocity": 15}, {"time": 335, "pitch": 53, "duration": 4, "velocity": 64}, {"time": 338, "pitch": 65, "duration": 3, "velocity": 82}, {"time": 341, "pitch": 58, "duration": 1, "velocity": 82}, {"time": 344, "pitch": 51, "duration": 22, "velocity": 94}, {"time": 344, "pitch": 67, "duration": 9, "velocity": 105}, {"time": 347, "pitch": 58, "duration": 9, "velocity": 67}, {"time": 350, "pitch": 63, "duration": 4, "velocity": 62}, {"time": 353, "pitch": 65, "duration": 9, "velocity": 102}, {"time": 356, "pitch": 55, "duration": 9, "velocity": 16}, {"time": 359, "pitch": 58, "duration": 9, "velocity": 78}, {"time": 362, "pitch": 67, "duration": 15, "velocity": 105}, {"time": 365, "pitch": 63, "duration": 2, "velocity": 34}, {"time": 368, "pitch": 51, "duration": 20, "velocity": 84}, {"time": 368, "pitch": 63, "duration": 3, "velocity": 24}, {"time": 368, "pitch": 70, "duration": 9, "velocity": 87}, {"time": 371, "pitch": 58, "duration": 9, "velocity": 73}, {"time": 374, "pitch": 63, "duration": 4, "velocity": 48}, {"time": 377, "pitch": 65, "duration": 9, "velocity": 92}, {"time": 380, "pitch": 55, "duration": 8, "velocity": 22}, {"time": 383, "pitch": 58, "duration": 7, "velocity": 97}, {"time": 386, "pitch": 67, "duration": 4, "velocity": 99}, {"time": 389, "pitch": 63, "duration": 1, "velocity": 60}, {"time": 392, "pitch": 53, "duration": 19, "velocity": 105}, {"time": 392, "pitch": 65, "duration": 5, "velocity": 80}, {"time": 392, "pitch": 68, "duration": 11, "velocity": 84}, {"time": 395, "pitch": 60, "duration": 16, "velocity": 60}, {"time": 398, "pitch": 65, "duration": 12, "velocity": 57}, {"time": 401, "pitch": 72, "duration": 17, "velocity": 94}, {"time": 413, "pitch": 65, "duration": 5, "velocity": 78}, {"time": 416, "pitch": 46, "duration": 17, "velocity": 100}, {"time": 419, "pitch": 53, "duration": 7, "velocity": 76}, {"time": 422, "pitch": 58, "duration": 11, "velocity": 82}, {"time": 425, "pitch": 62, "duration": 9, "velocity": 109}, {"time": 428, "pitch": 50, "duration": 5, "velocity": 18}, {"time": 431, "pitch": 53, "duration": 3, "velocity": 94}, {"time": 434, "pitch": 65, "duration": 3, "velocity": 97}, {"time": 437, "pitch": 58, "duration": 1, "velocity": 67}, {"time": 440, "pitch": 51, "duration": 22, "velocity": 97}, {"time": 440, "pitch": 63, "duration": 3, "velocity": 67}, {"time": 440, "pitch": 67, "duration": 6, "velocity": 96}, {"time": 443, "pitch": 58, "duration": 7, "velocity": 51}, {"time": 446, "pitch": 63, "duration": 3, "velocity": 76}, {"time": 449, "pitch": 65, "duration": 6, "velocity": 105}, {"time": 452, "pitch": 58, "duration": 4, "velocity": 37}, {"time": 455, "pitch": 67, "duration": 7, "velocity": 112}, {"time": 458, "pitch": 58, "duration": 2, "velocity": 38}, {"time": 461, "pitch": 63, "duration": 1, "velocity": 38}, {"time": 464, "pitch": 51, "duration": 18, "velocity": 97}, {"time": 464, "pitch": 63, "duration": 3, "velocity": 73}, {"time": 464, "pitch": 67, "duration": 7, "velocity": 40}, {"time": 464, "pitch": 70, "duration": 9, "velocity": 87}, {"time": 467, "pitch": 58, "duration": 7, "velocity": 76}, {"time": 470, "pitch": 63, "duration": 3, "velocity": 46}, {"time": 473, "pitch": 65, "duration": 8, "velocity": 89}, {"time": 476, "pitch": 55, "duration": 4, "velocity": 9}, {"time": 479, "pitch": 58, "duration": 3, "velocity": 89}, {"time": 482, "pitch": 67, "duration": 3, "velocity": 102}, {"time": 485, "pitch": 63, "duration": 1, "velocity": 47}, {"time": 488, "pitch": 44, "duration": 22, "velocity": 94}, {"time": 488, "pitch": 56, "duration": 8, "velocity": 84}, {"time": 488, "pitch": 60, "duration": 16, "velocity": 92}, {"time": 491, "pitch": 51, "duration": 7, "velocity": 62}, {"time": 497, "pitch": 63, "duration": 13, "velocity": 84}, {"time": 500, "pitch": 51, "duration": 10, "velocity": 62}, {"time": 503, "pitch": 68, "duration": 10, "velocity": 94}, {"time": 506, "pitch": 56, "duration": 4, "velocity": 64}, {"time": 512, "pitch": 44, "duration": 17, "velocity": 78}, {"time": 512, "pitch": 56, "duration": 10, "velocity": 58}, {"time": 512, "pitch": 60, "duration": 10, "velocity": 67}, {"time": 518, "pitch": 51, "duration": 7, "velocity": 22}, {"time": 524, "pitch": 56, "duration": 3, "velocity": 82}, {"time": 524, "pitch": 60, "duration": 6, "velocity": 94}, {"time": 524, "pitch": 63, "duration": 6, "velocity": 84}, {"time": 527, "pitch": 51, "duration": 3, "velocity": 67}, {"time": 530, "pitch": 56, "duration": 2, "velocity": 82}, {"time": 536, "pitch": 43, "duration": 17, "velocity": 90}, {"time": 536, "pitch": 55, "duration": 4, "velocity": 50}, {"time": 536, "pitch": 58, "duration": 10, "velocity": 94}, {"time": 539, "pitch": 50, "duration": 7, "velocity": 22}, {"time": 542, "pitch": 55, "duration": 10, "velocity": 59}, {"time": 545, "pitch": 62, "duration": 9, "velocity": 96}, {"time": 548, "pitch": 50, "duration": 5, "velocity": 39}, {"time": 551, "pitch": 67, "duration": 6, "velocity": 99}, {"time": 554, "pitch": 55, "duration": 1, "velocity": 85}, {"time": 560, "pitch": 48, "duration": 21, "velocity": 87}, {"time": 560, "pitch": 60, "duration": 13, "velocity": 71}, {"time": 560, "pitch": 63, "duration": 15, "velocity": 84}, {"time": 566, "pitch": 55, "duration": 7, "velocity": 68}, {"time": 572, "pitch": 67, "duration": 9, "velocity": 99}, {"time": 575, "pitch": 55, "duration": 2, "velocity": 54}, {"time": 578, "pitch": 60, "duration": 4, "velocity": 78}, {"time": 581, "pitch": 63, "duration": 2, "velocity": 76}, {"time": 584, "pitch": 53, "duration": 21, "velocity": 89}, {"time": 584, "pitch": 60, "duration": 4, "velocity": 80}, {"time": 584, "pitch": 65, "duration": 16, "velocity": 82}, {"time": 587, "pitch": 56, "duration": 10, "velocity": 37}, {"time": 590, "pitch": 60, "duration": 9, "velocity": 73}, {"time": 593, "pitch": 68, "duration": 15, "velocity": 100}, {"time": 599, "pitch": 56, "duration": 4, "velocity": 53}, {"time": 602, "pitch": 60, "duration": 4, "velocity": 89}, {"time": 605, "pitch": 65, "duration": 10, "velocity": 67}, {"time": 608, "pitch": 46, "duration": 18, "velocity": 105}, {"time": 611, "pitch": 53, "duration": 9, "velocity": 73}, {"time": 614, "pitch": 58, "duration": 9, "velocity": 82}, {"time": 617, "pitch": 62, "duration": 9, "velocity": 109}, {"time": 620, "pitch": 50, "duration": 6, "velocity": 16}, {"time": 623, "pitch": 53, "duration": 4, "velocity": 84}, {"time": 626, "pitch": 58, "duration": 2, "velocity": 100}, {"time": 632, "pitch": 51, "duration": 21, "velocity": 100}, {"time": 632, "pitch": 63, "duration": 10, "velocity": 80}, {"time": 632, "pitch": 67, "duration": 7, "velocity": 61}, {"time": 638, "pitch": 58, "duration": 6, "velocity": 76}, {"time": 641, "pitch": 65, "duration": 10, "velocity": 105}, {"time": 644, "pitch": 55, "duration": 10, "velocity": 22}, {"time": 647, "pitch": 58, "duration": 7, "velocity": 92}, {"time": 650, "pitch": 67, "duration": 15, "velocity": 112}, {"time": 653, "pitch": 63, "duration": 2, "velocity": 62}, {"time": 656, "pitch": 51, "duration": 16, "velocity": 102}, {"time": 656, "pitch": 63, "duration": 9, "velocity": 76}, {"time": 656, "pitch": 70, "duration": 8, "velocity": 87}, {"time": 662, "pitch": 58, "duration": 9, "velocity": 33}, {"time": 668, "pitch": 55, "duration": 5, "velocity": 85}, {"time": 668, "pitch": 63, "duration": 5, "velocity": 92}, {"time": 668, "pitch": 67, "duration": 7, "velocity": 102}, {"time": 674, "pitch": 58, "duration": 2, "velocity": 78}, {"time": 680, "pitch": 48, "duration": 17, "velocity": 97}, {"time": 680, "pitch": 60, "duration": 4, "velocity": 89}, {"time": 680, "pitch": 63, "duration": 6, "velocity": 87}, {"time": 683, "pitch": 55, "duration": 6, "velocity": 93}, {"time": 686, "pitch": 60, "duration": 9, "velocity": 87}, {"time": 689, "pitch": 67, "duration": 10, "velocity": 102}, {"time": 692, "pitch": 55, "duration": 4, "velocity": 46}, {"time": 695, "pitch": 63, "duration": 3, "velocity": 92}, {"time": 698, "pitch": 60, "duration": 2, "velocity": 100}, {"time": 704, "pitch": 43, "duration": 14, "velocity": 87}, {"time": 704, "pitch": 58, "duration": 3, "velocity": 73}, {"time": 704, "pitch": 62, "duration": 9, "velocity": 99}, {"time": 707, "pitch": 50, "duration": 7, "velocity": 48}, {"time": 710, "pitch": 58, "duration": 9, "velocity": 80}, {"time": 713, "pitch": 67, "duration": 12, "velocity": 105}, {"time": 716, "pitch": 50, "duration": 3, "velocity": 65}, {"time": 719, "pitch": 62, "duration": 4, "velocity": 102}, {"time": 722, "pitch": 58, "duration": 4, "velocity": 73}, {"time": 725, "pitch": 62, "duration": 1, "velocity": 93}, {"time": 728, "pitch": 44, "duration": 7, "velocity": 100}, {"time": 728, "pitch": 56, "duration": 3, "velocity": 94}, {"time": 728, "pitch": 60, "duration": 5, "velocity": 100}, {"time": 731, "pitch": 51, "duration": 5, "velocity": 80}, {"time": 734, "pitch": 56, "duration": 3, "velocity": 89}, {"time": 737, "pitch": 60, "duration": 3, "velocity": 97}, {"time": 740, "pitch": 46, "duration": 10, "velocity": 100}, {"time": 740, "pitch": 58, "duration": 6, "velocity": 87}, {"time": 740, "pitch": 62, "duration": 7, "velocity": 82}, {"time": 746, "pitch": 53, "duration": 4, "velocity": 66}, {"time": 752, "pitch": 51, "duration": 10, "velocity": 84}, {"time": 752, "pitch": 58, "duration": 3, "velocity": 92}, {"time": 752, "pitch": 63, "duration": 9, "velocity": 89}, {"time": 758, "pitch": 58, "duration": 3, "velocity": 34}, {"time": 761, "pitch": 67, "duration": 11, "velocity": 105}, {"time": 764, "pitch": 51, "duration": 10, "velocity": 69}, {"time": 767, "pitch": 58, "duration": 4, "velocity": 82}, {"time": 770, "pitch": 63, "duration": 4, "velocity": 97}, {"time": 776, "pitch": 48, "duration": 17, "velocity": 92}, {"time": 776, "pitch": 60, "duration": 6, "velocity": 89}, {"time": 776, "pitch": 63, "duration": 13, "velocity": 94}, {"time": 782, "pitch": 55, "duration": 4, "velocity": 59}, {"time": 785, "pitch": 60, "duration": 7, "velocity": 89}, {"time": 788, "pitch": 55, "duration": 4, "velocity": 79}, {"time": 791, "pitch": 67, "duration": 6, "velocity": 105}, {"time": 794, "pitch": 60, "duration": 3, "velocity": 80}, {"time": 800, "pitch": 43, "duration": 14, "velocity": 93}, {"time": 800, "pitch": 58, "duration": 3, "velocity": 67}, {"time": 800, "pitch": 62, "duration": 6, "velocity": 50}, {"time": 803, "pitch": 50, "duration": 7, "velocity": 20}, {"time": 806, "pitch": 58, "duration": 9, "velocity": 82}, {"time": 809, "pitch": 67, "duration": 7, "velocity": 109}, {"time": 812, "pitch": 50, "duration": 3, "velocity": 70}, {"time": 815, "pitch": 62, "duration": 3, "velocity": 109}, {"time": 818, "pitch": 58, "duration": 5, "velocity": 100}, {"time": 824, "pitch": 44, "duration": 19, "velocity": 97}, {"time": 824, "pitch": 56, "duration": 4, "velocity": 92}, {"time": 824, "pitch": 60, "duration": 7, "velocity": 89}, {"time": 827, "pitch": 51, "duration": 7, "velocity": 80}, {"time": 830, "pitch": 56, "duration": 7, "velocity": 76}, {"time": 833, "pitch": 63, "duration": 7, "velocity": 100}, {"time": 836, "pitch": 51, "duration": 4, "velocity": 82}, {"time": 839, "pitch": 60, "duration": 6, "velocity": 108}, {"time": 842, "pitch": 51, "duration": 4, "velocity": 89}, {"time": 845, "pitch": 56, "duration": 1, "velocity": 92}, {"time": 848, "pitch": 46, "duration": 19, "velocity": 102}, {"time": 848, "pitch": 58, "duration": 3, "velocity": 102}, {"time": 848, "pitch": 62, "duration": 6, "velocity": 102}, {"time": 851, "pitch": 53, "duration": 7, "velocity": 71}, {"time": 854, "pitch": 58, "duration": 2, "velocity": 84}, {"time": 857, "pitch": 58, "duration": 3, "velocity": 84}, {"time": 857, "pitch": 62, "duration": 4, "velocity": 72}, {"time": 857, "pitch": 65, "duration": 9, "velocity": 102}, {"time": 860, "pitch": 53, "duration": 4, "velocity": 80}, {"time": 863, "pitch": 70, "duration": 7, "velocity": 97}, {"time": 866, "pitch": 53, "duration": 3, "velocity": 78}, {"time": 869, "pitch": 58, "duration": 2, "velocity": 92}, {"time": 869, "pitch": 65, "duration": 1, "velocity": 1}, {"time": 872, "pitch": 46, "duration": 18, "velocity": 102}, {"time": 872, "pitch": 53, "duration": 18, "velocity": 94}, {"time": 872, "pitch": 58, "duration": 18, "velocity": 89}, {"time": 872, "pitch": 62, "duration": 17, "velocity": 96}, {"time": 872, "pitch": 65, "duration": 17, "velocity": 97}, {"time": 872, "pitch": 70, "duration": 17, "velocity": 97}, {"time": 896, "pitch": 44, "duration": 19, "velocity": 102}, {"time": 896, "pitch": 56, "duration": 13, "velocity": 73}, {"time": 896, "pitch": 60, "duration": 16, "velocity": 82}, {"time": 899, "pitch": 51, "duration": 7, "velocity": 57}, {"time": 902, "pitch": 63, "duration": 13, "velocity": 87}, {"time": 905, "pitch": 68, "duration": 10, "velocity": 100}, {"time": 908, "pitch": 51, "duration": 4, "velocity": 62}, {"time": 911, "pitch": 56, "duration": 4, "velocity": 84}, {"time": 914, "pitch": 51, "duration": 3, "velocity": 80}, {"time": 920, "pitch": 43, "duration": 18, "velocity": 87}, {"time": 920, "pitch": 55, "duration": 12, "velocity": 90}, {"time": 920, "pitch": 58, "duration": 14, "velocity": 105}, {"time": 923, "pitch": 50, "duration": 10, "velocity": 44}, {"time": 929, "pitch": 62, "duration": 7, "velocity": 46}, {"time": 932, "pitch": 67, "duration": 12, "velocity": 102}, {"time": 935, "pitch": 50, "duration": 4, "velocity": 85}, {"time": 938, "pitch": 55, "duration": 4, "velocity": 109}, {"time": 938, "pitch": 62, "duration": 1, "velocity": 2}, {"time": 941, "pitch": 58, "duration": 2, "velocity": 84}, {"time": 944, "pitch": 53, "duration": 17, "velocity": 108}, {"time": 947, "pitch": 60, "duration": 9, "velocity": 67}, {"time": 950, "pitch": 65, "duration": 10, "velocity": 111}, {"time": 953, "pitch": 68, "duration": 7, "velocity": 111}, {"time": 956, "pitch": 56, "duration": 5, "velocity": 57}, {"time": 959, "pitch": 60, "duration": 3, "velocity": 89}, {"time": 962, "pitch": 65, "duration": 2, "velocity": 105}, {"time": 968, "pitch": 51, "duration": 15, "velocity": 105}, {"time": 968, "pitch": 63, "duration": 3, "velocity": 92}, {"time": 968, "pitch": 67, "duration": 6, "velocity": 93}, {"time": 971, "pitch": 58, "duration": 8, "velocity": 69}, {"time": 974, "pitch": 63, "duration": 3, "velocity": 84}, {"time": 977, "pitch": 65, "duration": 9, "velocity": 114}, {"time": 980, "pitch": 55, "duration": 4, "velocity": 102}, {"time": 983, "pitch": 58, "duration": 2, "velocity": 111}, {"time": 986, "pitch": 67, "duration": 3, "velocity": 119}, {"time": 989, "pitch": 63, "duration": 1, "velocity": 87}, {"time": 992, "pitch": 44, "duration": 9, "velocity": 100}, {"time": 992, "pitch": 56, "duration": 4, "velocity": 97}, {"time": 992, "pitch": 60, "duration": 8, "velocity": 105}, {"time": 995, "pitch": 51, "duration": 7, "velocity": 69}, {"time": 998, "pitch": 56, "duration": 3, "velocity": 84}, {"time": 1004, "pitch": 43, "duration": 7, "velocity": 102}, {"time": 1004, "pitch": 55, "duration": 6, "velocity": 90}, {"time": 1004, "pitch": 58, "duration": 6, "velocity": 100}, {"time": 1010, "pitch": 50, "duration": 1, "velocity": 48}, {"time": 1016, "pitch": 53, "duration": 8, "velocity": 108}, {"time": 1016, "pitch": 65, "duration": 4, "velocity": 76}, {"time": 1016, "pitch": 68, "duration": 6, "velocity": 78}, {"time": 1019, "pitch": 60, "duration": 9, "velocity": 82}, {"time": 1022, "pitch": 65, "duration": 5, "velocity": 80}, {"time": 1025, "pitch": 68, "duration": 9, "velocity": 78}, {"time": 1028, "pitch": 51, "duration": 7, "velocity": 102}, {"time": 1031, "pitch": 60, "duration": 6, "velocity": 82}, {"time": 1034, "pitch": 63, "duration": 6, "velocity": 114}, {"time": 1037, "pitch": 68, "duration": 3, "velocity": 69}, {"time": 1040, "pitch": 44, "duration": 15, "velocity": 92}, {"time": 1043, "pitch": 51, "duration": 8, "velocity": 73}, {"time": 1046, "pitch": 56, "duration": 7, "velocity": 114}, {"time": 1049, "pitch": 60, "duration": 10, "velocity": 105}, {"time": 1052, "pitch": 51, "duration": 10, "velocity": 62}, {"time": 1058, "pitch": 56, "duration": 3, "velocity": 97}, {"time": 1061, "pitch": 60, "duration": 2, "velocity": 92}, {"time": 1064, "pitch": 46, "duration": 19, "velocity": 102}, {"time": 1064, "pitch": 58, "duration": 3, "velocity": 100}, {"time": 1064, "pitch": 62, "duration": 6, "velocity": 79}, {"time": 1067, "pitch": 53, "duration": 7, "velocity": 84}, {"time": 1070, "pitch": 58, "duration": 1, "velocity": 102}, {"time": 1073, "pitch": 58, "duration": 7, "velocity": 111}, {"time": 1073, "pitch": 65, "duration": 7, "velocity": 97}, {"time": 1076, "pitch": 53, "duration": 4, "velocity": 111}, {"time": 1079, "pitch": 70, "duration": 9, "velocity": 100}, {"time": 1082, "pitch": 53, "duration": 4, "velocity": 111}, {"time": 1085, "pitch": 58, "duration": 3, "velocity": 108}, {"time": 1088, "pitch": 44, "duration": 19, "velocity": 102}, {"time": 1088, "pitch": 56, "duration": 13, "velocity": 73}, {"time": 1088, "pitch": 60, "duration": 16, "velocity": 82}, {"time": 1091, "pitch": 51, "duration": 7, "velocity": 57}, {"time": 1094, "pitch": 63, "duration": 13, "velocity": 87}, {"time": 1097, "pitch": 68, "duration": 10, "velocity": 100}, {"time": 1100, "pitch": 51, "duration": 4, "velocity": 62}, {"time": 1103, "pitch": 56, "duration": 4, "velocity": 84}, {"time": 1106, "pitch": 51, "duration": 3, "velocity": 80}, {"time": 1112, "pitch": 43, "duration": 18, "velocity": 87}, {"time": 1112, "pitch": 55, "duration": 12, "velocity": 90}, {"time": 1112, "pitch": 58, "duration": 14, "velocity": 105}, {"time": 1115, "pitch": 50, "duration": 10, "velocity": 44}, {"time": 1121, "pitch": 62, "duration": 7, "velocity": 46}, {"time": 1124, "pitch": 67, "duration": 12, "velocity": 102}, {"time": 1127, "pitch": 50, "duration": 4, "velocity": 85}, {"time": 1130, "pitch": 55, "duration": 4, "velocity": 109}, {"time": 1130, "pitch": 62, "duration": 1, "velocity": 2}, {"time": 1133, "pitch": 58, "duration": 2, "velocity": 84}, {"time": 1136, "pitch": 53, "duration": 17, "velocity": 108}, {"time": 1139, "pitch": 60, "duration": 9, "velocity": 67}, {"time": 1142, "pitch": 65, "duration": 10, "velocity": 111}, {"time": 1145, "pitch": 68, "duration": 7, "velocity": 111}, {"time": 1148, "pitch": 56, "duration": 5, "velocity": 57}, {"time": 1151, "pitch": 60, "duration": 3, "velocity": 89}, {"time": 1154, "pitch": 65, "duration": 2, "velocity": 105}, {"time": 1160, "pitch": 51, "duration": 15, "velocity": 105}, {"time": 1160, "pitch": 63, "duration": 3, "velocity": 92}, {"time": 1160, "pitch": 67, "duration": 6, "velocity": 93}, {"time": 1163, "pitch": 58, "duration": 8, "velocity": 69}, {"time": 1166, "pitch": 63, "duration": 3, "velocity": 84}, {"time": 1169, "pitch": 65, "duration": 9, "velocity": 114}, {"time": 1172, "pitch": 55, "duration": 4, "velocity": 102}, {"time": 1175, "pitch": 58, "duration": 2, "velocity": 111}, {"time": 1178, "pitch": 67, "duration": 3, "velocity": 119}, {"time": 1181, "pitch": 63, "duration": 1, "velocity": 87}, {"time": 1184, "pitch": 44, "duration": 9, "velocity": 100}, {"time": 1184, "pitch": 56, "duration": 4, "velocity": 97}, {"time": 1184, "pitch": 60, "duration": 8, "velocity": 105}, {"time": 1187, "pitch": 51, "duration": 7, "velocity": 69}, {"time": 1190, "pitch": 56, "duration": 3, "velocity": 84}, {"time": 1196, "pitch": 43, "duration": 7, "velocity": 102}, {"time": 1196, "pitch": 55, "duration": 6, "velocity": 90}, {"time": 1196, "pitch": 58, "duration": 6, "velocity": 100}, {"time": 1202, "pitch": 50, "duration": 1, "velocity": 48}, {"time": 1208, "pitch": 41, "duration": 7, "velocity": 97}, {"time": 1208, "pitch": 53, "duration": 3, "velocity": 69}, {"time": 1208, "pitch": 56, "duration": 6, "velocity": 87}, {"time": 1211, "pitch": 48, "duration": 5, "velocity": 57}, {"time": 1214, "pitch": 53, "duration": 3, "velocity": 69}, {"time": 1217, "pitch": 56, "duration": 2, "velocity": 92}, {"time": 1220, "pitch": 43, "duration": 11, "velocity": 90}, {"time": 1220, "pitch": 55, "duration": 4, "velocity": 87}, {"time": 1220, "pitch": 58, "duration": 6, "velocity": 102}, {"time": 1223, "pitch": 50, "duration": 8, "velocity": 50}, {"time": 1226, "pitch": 55, "duration": 5, "velocity": 105}, {"time": 1229, "pitch": 58, "duration": 2, "velocity": 82}, {"time": 1232, "pitch": 44, "duration": 9, "velocity": 105}, {"time": 1232, "pitch": 56, "duration": 5, "velocity": 82}, {"time": 1232, "pitch": 60, "duration": 7, "velocity": 97}, {"time": 1235, "pitch": 51, "duration": 6, "velocity": 76}, {"time": 1238, "pitch": 56, "duration": 3, "velocity": 84}, {"time": 1241, "pitch": 60, "duration": 2, "velocity": 92}, {"time": 1244, "pitch": 46, "duration": 10, "velocity": 105}, {"time": 1244, "pitch": 58, "duration": 3, "velocity": 87}, {"time": 1244, "pitch": 62, "duration": 6, "velocity": 90}, {"time": 1247, "pitch": 53, "duration": 6, "velocity": 71}, {"time": 1250, "pitch": 58, "duration": 2, "velocity": 94}, {"time": 1256, "pitch": 51, "duration": 22, "velocity": 97}, {"time": 1256, "pitch": 58, "duration": 3, "velocity": 97}, {"time": 1256, "pitch": 63, "duration": 12, "velocity": 92}, {"time": 1262, "pitch": 58, "duration": 6, "velocity": 62}, {"time": 1268, "pitch": 67, "duration": 5, "velocity": 105}, {"time": 1271, "pitch": 58, "duration": 3, "velocity": 60}, {"time": 1274, "pitch": 65, "duration": 5, "velocity": 89}, {"time": 1277, "pitch": 58, "duration": 2, "velocity": 47}, {"time": 1280, "pitch": 51, "duration": 24, "velocity": 76}, {"time": 1280, "pitch": 58, "duration": 23, "velocity": 78}, {"time": 1280, "pitch": 63, "duration": 24, "velocity": 78}, {"time": 1304, "pitch": 44, "duration": 17, "velocity": 80}, {"time": 1304, "pitch": 56, "duration": 3, "velocity": 64}, {"time": 1304, "pitch": 60, "duration": 6, "velocity": 82}, {"time": 1307, "pitch": 51, "duration": 13, "velocity": 60}, {"time": 1310, "pitch": 56, "duration": 4, "velocity": 73}, {"time": 1313, "pitch": 58, "duration": 6, "velocity": 108}, {"time": 1319, "pitch": 60, "duration": 3, "velocity": 97}, {"time": 1328, "pitch": 43, "duration": 14, "velocity": 70}, {"time": 1328, "pitch": 58, "duration": 3, "velocity": 66}, {"time": 1328, "pitch": 62, "duration": 10, "velocity": 55}, {"time": 1331, "pitch": 50, "duration": 7, "velocity": 38}, {"time": 1334, "pitch": 58, "duration": 6, "velocity": 71}, {"time": 1337, "pitch": 67, "duration": 7, "velocity": 105}, {"time": 1340, "pitch": 50, "duration": 2, "velocity": 30}, {"time": 1343, "pitch": 62, "duration": 3, "velocity": 105}, {"time": 1346, "pitch": 58, "duration": 2, "velocity": 73}, {"time": 1352, "pitch": 53, "duration": 19, "velocity": 100}, {"time": 1355, "pitch": 60, "duration": 9, "velocity": 73}, {"time": 1358, "pitch": 63, "duration": 11, "velocity": 92}, {"time": 1361, "pitch": 68, "duration": 13, "velocity": 80}, {"time": 1373, "pitch": 63, "duration": 4, "velocity": 92}, {"time": 1376, "pitch": 51, "duration": 15, "velocity": 100}, {"time": 1379, "pitch": 58, "duration": 10, "velocity": 51}, {"time": 1382, "pitch": 63, "duration": 4, "velocity": 87}, {"time": 1385, "pitch": 65, "duration": 6, "velocity": 114}, {"time": 1388, "pitch": 55, "duration": 12, "velocity": 102}, {"time": 1391, "pitch": 67, "duration": 9, "velocity": 116}, {"time": 1394, "pitch": 58, "duration": 6, "velocity": 105}, {"time": 1397, "pitch": 63, "duration": 3, "velocity": 87}, {"time": 1400, "pitch": 47, "duration": 16, "velocity": 109}, {"time": 1400, "pitch": 59, "duration": 4, "velocity": 72}, {"time": 1400, "pitch": 63, "duration": 1, "velocity": 94}, {"time": 1403, "pitch": 54, "duration": 8, "velocity": 45}, {"time": 1406, "pitch": 59, "duration": 12, "velocity": 90}, {"time": 1409, "pitch": 63, "duration": 19, "velocity": 108}, {"time": 1409, "pitch": 66, "duration": 13, "velocity": 102}, {"time": 1418, "pitch": 54, "duration": 6, "velocity": 64}, {"time": 1421, "pitch": 59, "duration": 7, "velocity": 102}, {"time": 1424, "pitch": 47, "duration": 13, "velocity": 87}, {"time": 1427, "pitch": 54, "duration": 7, "velocity": 84}, {"time": 1430, "pitch": 59, "duration": 2, "velocity": 99}, {"time": 1433, "pitch": 59, "duration": 9, "velocity": 96}, {"time": 1433, "pitch": 63, "duration": 10, "velocity": 100}, {"time": 1433, "pitch": 66, "duration": 10, "velocity": 105}, {"time": 1442, "pitch": 54, "duration": 2, "velocity": 87}, {"time": 1445, "pitch": 59, "duration": 1, "velocity": 96}, {"time": 1448, "pitch": 49, "duration": 20, "velocity": 108}, {"time": 1448, "pitch": 61, "duration": 7, "velocity": 89}, {"time": 1448, "pitch": 65, "duration": 7, "velocity": 94}, {"time": 1454, "pitch": 56, "duration": 7, "velocity": 67}, {"time": 1457, "pitch": 61, "duration": 1, "velocity": 82}, {"time": 1460, "pitch": 61, "duration": 4, "velocity": 111}, {"time": 1460, "pitch": 68, "duration": 4, "velocity": 105}, {"time": 1463, "pitch": 56, "duration": 5, "velocity": 66}, {"time": 1466, "pitch": 61, "duration": 1, "velocity": 62}, {"time": 1466, "pitch": 65, "duration": 1, "velocity": 82}, {"time": 1469, "pitch": 49, "duration": 16, "velocity": 108}, {"time": 1469, "pitch": 61, "duration": 4, "velocity": 94}, {"time": 1469, "pitch": 65, "duration": 4, "velocity": 108}, {"time": 1469, "pitch": 73, "duration": 4, "velocity": 111}, {"time": 1475, "pitch": 61, "duration": 4, "velocity": 105}, {"time": 1475, "pitch": 65, "duration": 4, "velocity": 117}, {"time": 1475, "pitch": 68, "duration": 4, "velocity": 108}, {"time": 1478, "pitch": 56, "duration": 6, "velocity": 51}, {"time": 1481, "pitch": 61, "duration": 1, "velocity": 73}, {"time": 1484, "pitch": 61, "duration": 4, "velocity": 111}, {"time": 1484, "pitch": 65, "duration": 4, "velocity": 108}, {"time": 1487, "pitch": 56, "duration": 2, "velocity": 78}, {"time": 1490, "pitch": 49, "duration": 1, "velocity": 100}, {"time": 1496, "pitch": 51, "duration": 21, "velocity": 97}, {"time": 1496, "pitch": 63, "duration": 10, "velocity": 100}, {"time": 1496, "pitch": 67, "duration": 11, "velocity": 105}, {"time": 1508, "pitch": 63, "duration": 3, "velocity": 100}, {"time": 1508, "pitch": 67, "duration": 7, "velocity": 77}, {"time": 1511, "pitch": 58, "duration": 6, "velocity": 50}, {"time": 1514, "pitch": 63, "duration": 5, "velocity": 80}, {"time": 1520, "pitch": 51, "duration": 14, "velocity": 87}, {"time": 1520, "pitch": 58, "duration": 13, "velocity": 89}, {"time": 1520, "pitch": 63, "duration": 9, "velocity": 71}, {"time": 1520, "pitch": 67, "duration": 9, "velocity": 50}, {"time": 1520, "pitch": 70, "duration": 9, "velocity": 84}, {"time": 1532, "pitch": 63, "duration": 11, "velocity": 57}, {"time": 1532, "pitch": 67, "duration": 11, "velocity": 40}, {"time": 1532, "pitch": 70, "duration": 11, "velocity": 66}, {"time": 1538, "pitch": 51, "duration": 5, "velocity": 33}, {"time": 1538, "pitch": 58, "duration": 5, "velocity": 29}, {"time": 1544, "pitch": 53, "duration": 16, "velocity": 102}, {"time": 1544, "pitch": 65, "duration": 10, "velocity": 76}, {"time": 1544, "pitch": 68, "duration": 10, "velocity": 82}, {"time": 1550, "pitch": 60, "duration": 7, "velocity": 50}, {"time": 1556, "pitch": 65, "duration": 3, "velocity": 87}, {"time": 1556, "pitch": 68, "duration": 6, "velocity": 97}, {"time": 1559, "pitch": 60, "duration": 3, "velocity": 58}, {"time": 1562, "pitch": 65, "duration": 7, "velocity": 64}, {"time": 1568, "pitch": 46, "duration": 17, "velocity": 97}, {"time": 1571, "pitch": 53, "duration": 7, "velocity": 69}, {"time": 1574, "pitch": 58, "duration": 8, "velocity": 62}, {"time": 1577, "pitch": 62, "duration": 9, "velocity": 99}, {"time": 1580, "pitch": 50, "duration": 5, "velocity": 15}, {"time": 1583, "pitch": 53, "duration": 4, "velocity": 64}, {"time": 1586, "pitch": 65, "duration": 3, "velocity": 82}, {"time": 1589, "pitch": 58, "duration": 1, "velocity": 82}, {"time": 1592, "pitch": 51, "duration": 22, "velocity": 94}, {"time": 1592, "pitch": 67, "duration": 9, "velocity": 105}, {"time": 1595, "pitch": 58, "duration": 9, "velocity": 67}, {"time": 1598, "pitch": 63, "duration": 4, "velocity": 62}, {"time": 1601, "pitch": 65, "duration": 9, "velocity": 102}, {"time": 1604, "pitch": 55, "duration": 9, "velocity": 16}, {"time": 1607, "pitch": 58, "duration": 9, "velocity": 78}, {"time": 1610, "pitch": 67, "duration": 15, "velocity": 105}, {"time": 1613, "pitch": 63, "duration": 2, "velocity": 34}, {"time": 1616, "pitch": 51, "duration": 20, "velocity": 84}, {"time": 1616, "pitch": 63, "duration": 3, "velocity": 24}, {"time": 1616, "pitch": 70, "duration": 9, "velocity": 87}, {"time": 1619, "pitch": 58, "duration": 9, "velocity": 73}, {"time": 1622, "pitch": 63, "duration": 4, "velocity": 48}, {"time": 1625, "pitch": 65, "duration": 9, "velocity": 92}, {"time": 1628, "pitch": 55, "duration": 8, "velocity": 22}, {"time": 1631, "pitch": 58, "duration": 7, "velocity": 97}, {"time": 1634, "pitch": 67, "duration": 4, "velocity": 99}, {"time": 1637, "pitch": 63, "duration": 1, "velocity": 60}, {"time": 1640, "pitch": 53, "duration": 19, "velocity": 105}, {"time": 1640, "pitch": 65, "duration": 5, "velocity": 80}, {"time": 1640, "pitch": 68, "duration": 11, "velocity": 84}, {"time": 1643, "pitch": 60, "duration": 16, "velocity": 60}, {"time": 1646, "pitch": 65, "duration": 12, "velocity": 57}, {"time": 1649, "pitch": 72, "duration": 17, "velocity": 94}, {"time": 1661, "pitch": 65, "duration": 5, "velocity": 78}, {"time": 1664, "pitch": 46, "duration": 17, "velocity": 100}, {"time": 1667, "pitch": 53, "duration": 7, "velocity": 76}, {"time": 1670, "pitch": 58, "duration": 11, "velocity": 82}, {"time": 1673, "pitch": 62, "duration": 9, "velocity": 109}, {"time": 1676, "pitch": 50, "duration": 5, "velocity": 18}, {"time": 1679, "pitch": 53, "duration": 3, "velocity": 94}, {"time": 1682, "pitch": 65, "duration": 3, "velocity": 97}, {"time": 1685, "pitch": 58, "duration": 1, "velocity": 67}, {"time": 1688, "pitch": 51, "duration": 22, "velocity": 97}, {"time": 1688, "pitch": 63, "duration": 3, "velocity": 67}, {"time": 1688, "pitch": 67, "duration": 6, "velocity": 96}, {"time": 1691, "pitch": 58, "duration": 7, "velocity": 51}, {"time": 1694, "pitch": 63, "duration": 3, "velocity": 76}, {"time": 1697, "pitch": 65, "duration": 6, "velocity": 105}, {"time": 1700, "pitch": 58, "duration": 4, "velocity": 37}, {"time": 1703, "pitch": 67, "duration": 7, "velocity": 112}, {"time": 1706, "pitch": 58, "duration": 2, "velocity": 38}, {"time": 1709, "pitch": 63, "duration": 1, "velocity": 38}, {"time": 1712, "pitch": 51, "duration": 18, "velocity": 97}, {"time": 1712, "pitch": 63, "duration": 3, "velocity": 73}, {"time": 1712, "pitch": 67, "duration": 7, "velocity": 40}, {"time": 1712, "pitch": 70, "duration": 9, "velocity": 87}, {"time": 1715, "pitch": 58, "duration": 7, "velocity": 76}, {"time": 1718, "pitch": 63, "duration": 3, "velocity": 46}, {"time": 1721, "pitch": 65, "duration": 8, "velocity": 89}, {"time": 1724, "pitch": 55, "duration": 4, "velocity": 9}, {"time": 1727, "pitch": 58, "duration": 3, "velocity": 89}, {"time": 1730, "pitch": 67, "duration": 3, "velocity": 102}, {"time": 1733, "pitch": 63, "duration": 1, "velocity": 47}, {"time": 1736, "pitch": 44, "duration": 22, "velocity": 94}, {"time": 1736, "pitch": 56, "duration": 8, "velocity": 84}, {"time": 1736, "pitch": 60, "duration": 16, "velocity": 92}, {"time": 1739, "pitch": 51, "duration": 7, "velocity": 62}, {"time": 1745, "pitch": 63, "duration": 13, "velocity": 84}, {"time": 1748, "pitch": 51, "duration": 10, "velocity": 62}, {"time": 1751, "pitch": 68, "duration": 10, "velocity": 94}, {"time": 1754, "pitch": 56, "duration": 4, "velocity": 64}, {"time": 1760, "pitch": 44, "duration": 17, "velocity": 78}, {"time": 1760, "pitch": 56, "duration": 10, "velocity": 58}, {"time": 1760, "pitch": 60, "duration": 10, "velocity": 67}, {"time": 1766, "pitch": 51, "duration": 7, "velocity": 22}, {"time": 1772, "pitch": 56, "duration": 3, "velocity": 82}, {"time": 1772, "pitch": 60, "duration": 6, "velocity": 94}, {"time": 1772, "pitch": 63, "duration": 6, "velocity": 84}, {"time": 1775, "pitch": 51, "duration": 3, "velocity": 67}, {"time": 1778, "pitch": 56, "duration": 2, "velocity": 82}, {"time": 1784, "pitch": 43, "duration": 17, "velocity": 90}, {"time": 1784, "pitch": 55, "duration": 4, "velocity": 50}, {"time": 1784, "pitch": 58, "duration": 10, "velocity": 94}, {"time": 1787, "pitch": 50, "duration": 7, "velocity": 22}, {"time": 1790, "pitch": 55, "duration": 10, "velocity": 59}, {"time": 1793, "pitch": 62, "duration": 9, "velocity": 96}, {"time": 1796, "pitch": 50, "duration": 5, "velocity": 39}, {"time": 1799, "pitch": 67, "duration": 6, "velocity": 99}, {"time": 1802, "pitch": 55, "duration": 1, "velocity": 85}, {"time": 1808, "pitch": 48, "duration": 21, "velocity": 87}, {"time": 1808, "pitch": 60, "duration": 13, "velocity": 71}, {"time": 1808, "pitch": 63, "duration": 15, "velocity": 84}, {"time": 1814, "pitch": 55, "duration": 7, "velocity": 68}, {"time": 1820, "pitch": 67, "duration": 9, "velocity": 99}, {"time": 1823, "pitch": 55, "duration": 2, "velocity": 54}, {"time": 1826, "pitch": 60, "duration": 4, "velocity": 78}, {"time": 1829, "pitch": 63, "duration": 2, "velocity": 76}, {"time": 1832, "pitch": 53, "duration": 21, "velocity": 89}, {"time": 1832, "pitch": 60, "duration": 4, "velocity": 80}, {"time": 1832, "pitch": 65, "duration": 16, "velocity": 82}, {"time": 1835, "pitch": 56, "duration": 10, "velocity": 37}, {"time": 1838, "pitch": 60, "duration": 9, "velocity": 73}, {"time": 1841, "pitch": 68, "duration": 15, "velocity": 100}, {"time": 1847, "pitch": 56, "duration": 4, "velocity": 53}, {"time": 1850, "pitch": 60, "duration": 4, "velocity": 89}, {"time": 1853, "pitch": 65, "duration": 10, "velocity": 67}, {"time": 1856, "pitch": 46, "duration": 18, "velocity": 105}, {"time": 1859, "pitch": 53, "duration": 9, "velocity": 73}, {"time": 1862, "pitch": 58, "duration": 9, "velocity": 82}, {"time": 1865, "pitch": 62, "duration": 9, "velocity": 109}, {"time": 1868, "pitch": 50, "duration": 6, "velocity": 16}, {"time": 1871, "pitch": 53, "duration": 4, "velocity": 84}, {"time": 1874, "pitch": 58, "duration": 2, "velocity": 100}, {"time": 1880, "pitch": 51, "duration": 21, "velocity": 100}, {"time": 1880, "pitch": 63, "duration": 10, "velocity": 80}, {"time": 1880, "pitch": 67, "duration": 7, "velocity": 61}, {"time": 1886, "pitch": 58, "duration": 6, "velocity": 76}, {"time": 1889, "pitch": 65, "duration": 10, "velocity": 105}, {"time": 1892, "pitch": 55, "duration": 10, "velocity": 22}, {"time": 1895, "pitch": 58, "duration": 7, "velocity": 92}, {"time": 1898, "pitch": 67, "duration": 15, "velocity": 112}, {"time": 1901, "pitch": 63, "duration": 2, "velocity": 62}, {"time": 1904, "pitch": 51, "duration": 16, "velocity": 102}, {"time": 1904, "pitch": 63, "duration": 9, "velocity": 76}, {"time": 1904, "pitch": 70, "duration": 8, "velocity": 87}, {"time": 1910, "pitch": 58, "duration": 9, "velocity": 33}, {"time": 1916, "pitch": 55, "duration": 5, "velocity": 85}, {"time": 1916, "pitch": 63, "duration": 5, "velocity": 92}, {"time": 1916, "pitch": 67, "duration": 7, "velocity": 102}, {"time": 1922, "pitch": 58, "duration": 2, "velocity": 78}, {"time": 1928, "pitch": 48, "duration": 17, "velocity": 97}, {"time": 1928, "pitch": 60, "duration": 4, "velocity": 89}, {"time": 1928, "pitch": 63, "duration": 6, "velocity": 87}, {"time": 1931, "pitch": 55, "duration": 6, "velocity": 93}, {"time": 1934, "pitch": 60, "duration": 9, "velocity": 87}, {"time": 1937, "pitch": 67, "duration": 10, "velocity": 102}, {"time": 1940, "pitch": 55, "duration": 4, "velocity": 46}, {"time": 1943, "pitch": 63, "duration": 3, "velocity": 92}, {"time": 1946, "pitch": 60, "duration": 2, "velocity": 100}, {"time": 1952, "pitch": 43, "duration": 14, "velocity": 87}, {"time": 1952, "pitch": 58, "duration": 3, "velocity": 73}, {"time": 1952, "pitch": 62, "duration": 9, "velocity": 99}, {"time": 1955, "pitch": 50, "duration": 7, "velocity": 48}, {"time": 1958, "pitch": 58, "duration": 9, "velocity": 80}, {"time": 1961, "pitch": 67, "duration": 12, "velocity": 105}, {"time": 1964, "pitch": 50, "duration": 3, "velocity": 65}, {"time": 1967, "pitch": 62, "duration": 4, "velocity": 102}, {"time": 1970, "pitch": 58, "duration": 4, "velocity": 73}, {"time": 1973, "pitch": 62, "duration": 1, "velocity": 93}, {"time": 1976, "pitch": 44, "duration": 7, "velocity": 100}, {"time": 1976, "pitch": 56, "duration": 3, "velocity": 94}, {"time": 1976, "pitch": 60, "duration": 5, "velocity": 100}, {"time": 1979, "pitch": 51, "duration": 5, "velocity": 80}, {"time": 1982, "pitch": 56, "duration": 3, "velocity": 89}, {"time": 1985, "pitch": 60, "duration": 3, "velocity": 97}, {"time": 1988, "pitch": 46, "duration": 10, "velocity": 100}, {"time": 1988, "pitch": 58, "duration": 6, "velocity": 87}, {"time": 1988, "pitch": 62, "duration": 7, "velocity": 82}, {"time": 1994, "pitch": 53, "duration": 4, "velocity": 66}, {"time": 2000, "pitch": 51, "duration": 10, "velocity": 84}, {"time": 2000, "pitch": 58, "duration": 3, "velocity": 92}, {"time": 2000, "pitch": 63, "duration": 9, "velocity": 89}, {"time": 2006, "pitch": 58, "duration": 3, "velocity": 34}, {"time": 2009, "pitch": 67, "duration": 11, "velocity": 105}, {"time": 2012, "pitch": 51, "duration": 10, "velocity": 69}, {"time": 2015, "pitch": 58, "duration": 4, "velocity": 82}, {"time": 2018, "pitch": 63, "duration": 4, "velocity": 97}, {"time": 2024, "pitch": 48, "duration": 17, "velocity": 92}, {"time": 2024, "pitch": 60, "duration": 6, "velocity": 89}, {"time": 2024, "pitch": 63, "duration": 13, "velocity": 94}, {"time": 2030, "pitch": 55, "duration": 4, "velocity": 59}, {"time": 2033, "pitch": 60, "duration": 7, "velocity": 89}, {"time": 2036, "pitch": 55, "duration": 4, "velocity": 79}, {"time": 2039, "pitch": 67, "duration": 6, "velocity": 105}, {"time": 2042, "pitch": 60, "duration": 3, "velocity": 80}, {"time": 2048, "pitch": 43, "duration": 14, "velocity": 93}, {"time": 2048, "pitch": 58, "duration": 3, "velocity": 67}, {"time": 2048, "pitch": 62, "duration": 6, "velocity": 50}, {"time": 2051, "pitch": 50, "duration": 7, "velocity": 20}, {"time": 2054, "pitch": 58, "duration": 9, "velocity": 82}, {"time": 2057, "pitch": 67, "duration": 7, "velocity": 109}, {"time": 2060, "pitch": 50, "duration": 3, "velocity": 70}, {"time": 2063, "pitch": 62, "duration": 3, "velocity": 109}, {"time": 2066, "pitch": 58, "duration": 5, "velocity": 100}, {"time": 2072, "pitch": 44, "duration": 19, "velocity": 97}, {"time": 2072, "pitch": 56, "duration": 4, "velocity": 92}, {"time": 2072, "pitch": 60, "duration": 7, "velocity": 89}, {"time": 2075, "pitch": 51, "duration": 7, "velocity": 80}, {"time": 2078, "pitch": 56, "duration": 7, "velocity": 76}, {"time": 2081, "pitch": 63, "duration": 7, "velocity": 100}, {"time": 2084, "pitch": 51, "duration": 4, "velocity": 82}, {"time": 2087, "pitch": 60, "duration": 6, "velocity": 108}, {"time": 2090, "pitch": 51, "duration": 4, "velocity": 89}, {"time": 2093, "pitch": 56, "duration": 1, "velocity": 92}, {"time": 2096, "pitch": 46, "duration": 19, "velocity": 102}, {"time": 2096, "pitch": 58, "duration": 3, "velocity": 102}, {"time": 2096, "pitch": 62, "duration": 6, "velocity": 102}, {"time": 2099, "pitch": 53, "duration": 7, "velocity": 71}, {"time": 2102, "pitch": 58, "duration": 2, "velocity": 84}, {"time": 2105, "pitch": 58, "duration": 3, "velocity": 84}, {"time": 2105, "pitch": 62, "duration": 4, "velocity": 72}, {"time": 2105, "pitch": 65, "duration": 9, "velocity": 102}, {"time": 2108, "pitch": 53, "duration": 4, "velocity": 80}, {"time": 2111, "pitch": 70, "duration": 7, "velocity": 97}, {"time": 2114, "pitch": 53, "duration": 3, "velocity": 78}, {"time": 2117, "pitch": 58, "duration": 2, "velocity": 92}, {"time": 2117, "pitch": 65, "duration": 1, "velocity": 1}, {"time": 2120, "pitch": 44, "duration": 19, "velocity": 102}, {"time": 2120, "pitch": 56, "duration": 13, "velocity": 73}, {"time": 2120, "pitch": 60, "duration": 16, "velocity": 82}, {"time": 2123, "pitch": 51, "duration": 7, "velocity": 57}, {"time": 2126, "pitch": 63, "duration": 13, "velocity": 87}, {"time": 2129, "pitch": 68, "duration": 10, "velocity": 100}, {"time": 2132, "pitch": 51, "duration": 4, "velocity": 62}, {"time": 2135, "pitch": 56, "duration": 4, "velocity": 84}, {"time": 2138, "pitch": 51, "duration": 3, "velocity": 80}, {"time": 2144, "pitch": 43, "duration": 18, "velocity": 87}, {"time": 2144, "pitch": 55, "duration": 12, "velocity": 90}, {"time": 2144, "pitch": 58, "duration": 14, "velocity": 105}, {"time": 2147, "pitch": 50, "duration": 10, "velocity": 44}, {"time": 2153, "pitch": 62, "duration": 7, "velocity": 46}, {"time": 2156, "pitch": 67, "duration": 12, "velocity": 102}, {"time": 2159, "pitch": 50, "duration": 4, "velocity": 85}, {"time": 2162, "pitch": 55, "duration": 4, "velocity": 109}, {"time": 2162, "pitch": 62, "duration": 1, "velocity": 2}, {"time": 2165, "pitch": 58, "duration": 2, "velocity": 84}, {"time": 2168, "pitch": 53, "duration": 17, "velocity": 108}, {"time": 2171, "pitch": 60, "duration": 9, "velocity": 67}, {"time": 2174, "pitch": 65, "duration": 10, "velocity": 111}, {"time": 2177, "pitch": 68, "duration": 7, "velocity": 111}, {"time": 2180, "pitch": 56, "duration": 5, "velocity": 57}, {"time": 2183, "pitch": 60, "duration": 3, "velocity": 89}, {"time": 2186, "pitch": 65, "duration": 2, "velocity": 105}, {"time": 2192, "pitch": 51, "duration": 15, "velocity": 105}, {"time": 2192, "pitch": 63, "duration": 3, "velocity": 92}, {"time": 2192, "pitch": 67, "duration": 6, "velocity": 93}, {"time": 2195, "pitch": 58, "duration": 8, "velocity": 69}, {"time": 2198, "pitch": 63, "duration": 3, "velocity": 84}, {"time": 2201, "pitch": 65, "duration": 9, "velocity": 114}, {"time": 2204, "pitch": 55, "duration": 4, "velocity": 102}, {"time": 2207, "pitch": 58, "duration": 2, "velocity": 111}, {"time": 2210, "pitch": 67, "duration": 3, "velocity": 119}, {"time": 2213, "pitch": 63, "duration": 1, "velocity": 87}, {"time": 2216, "pitch": 44, "duration": 9, "velocity": 100}, {"time": 2216, "pitch": 56, "duration": 4, "velocity": 97}, {"time": 2216, "pitch": 60, "duration": 8, "velocity": 105}, {"time": 2219, "pitch": 51, "duration": 7, "velocity": 69}, {"time": 2222, "pitch": 56, "duration": 3, "velocity": 84}, {"time": 2228, "pitch": 43, "duration": 7, "velocity": 102}, {"time": 2228, "pitch": 55, "duration": 6, "velocity": 90}, {"time": 2228, "pitch": 58, "duration": 6, "velocity": 100}, {"time": 2234, "pitch": 50, "duration": 1, "velocity": 48}, {"time": 2240, "pitch": 53, "duration": 8, "velocity": 108}, {"time": 2240, "pitch": 65, "duration": 4, "velocity": 76}, {"time": 2240, "pitch": 68, "duration": 6, "velocity": 78}, {"time": 2243, "pitch": 60, "duration": 9, "velocity": 82}, {"time": 2246, "pitch": 65, "duration": 5, "velocity": 80}, {"time": 2249, "pitch": 68, "duration": 9, "velocity": 78}, {"time": 2252, "pitch": 51, "duration": 7, "velocity": 102}, {"time": 2255, "pitch": 60, "duration": 6, "velocity": 82}, {"time": 2258, "pitch": 63, "duration": 6, "velocity": 114}, {"time": 2261, "pitch": 68, "duration": 3, "velocity": 69}, {"time": 2264, "pitch": 44, "duration": 15, "velocity": 92}, {"time": 2267, "pitch": 51, "duration": 8, "velocity": 73}, {"time": 2270, "pitch": 56, "duration": 7, "velocity": 114}, {"time": 2273, "pitch": 60, "duration": 10, "velocity": 105}, {"time": 2276, "pitch": 51, "duration": 10, "velocity": 62}, {"time": 2282, "pitch": 56, "duration": 3, "velocity": 97}, {"time": 2285, "pitch": 60, "duration": 2, "velocity": 92}, {"time": 2288, "pitch": 46, "duration": 19, "velocity": 102}, {"time": 2288, "pitch": 58, "duration": 3, "velocity": 100}, {"time": 2288, "pitch": 62, "duration": 6, "velocity": 79}, {"time": 2291, "pitch": 53, "duration": 7, "velocity": 84}, {"time": 2294, "pitch": 58, "duration": 1, "velocity": 102}, {"time": 2297, "pitch": 58, "duration": 7, "velocity": 111}, {"time": 2297, "pitch": 65, "duration": 7, "velocity": 97}, {"time": 2300, "pitch": 53, "duration": 4, "velocity": 111}, {"time": 2303, "pitch": 70, "duration": 9, "velocity": 100}, {"time": 2306, "pitch": 53, "duration": 4, "velocity": 111}, {"time": 2309, "pitch": 58, "duration": 3, "velocity": 108}, {"time": 2312, "pitch": 44, "duration": 19, "velocity": 102}, {"time": 2312, "pitch": 56, "duration": 13, "velocity": 73}, {"time": 2312, "pitch": 60, "duration": 16, "velocity": 82}, {"time": 2315, "pitch": 51, "duration": 7, "velocity": 57}, {"time": 2318, "pitch": 63, "duration": 13, "velocity": 87}, {"time": 2321, "pitch": 68, "duration": 10, "velocity": 100}, {"time": 2324, "pitch": 51, "duration": 4, "velocity": 62}, {"time": 2327, "pitch": 56, "duration": 4, "velocity": 84}, {"time": 2330, "pitch": 51, "duration": 3, "velocity": 80}, {"time": 2336, "pitch": 43, "duration": 18, "velocity": 87}, {"time": 2336, "pitch": 55, "duration": 12, "velocity": 90}, {"time": 2336, "pitch": 58, "duration": 14, "velocity": 105}, {"time": 2339, "pitch": 50, "duration": 10, "velocity": 44}, {"time": 2345, "pitch": 62, "duration": 7, "velocity": 46}, {"time": 2348, "pitch": 67, "duration": 12, "velocity": 102}, {"time": 2351, "pitch": 50, "duration": 4, "velocity": 85}, {"time": 2354, "pitch": 55, "duration": 4, "velocity": 109}, {"time": 2354, "pitch": 62, "duration": 1, "velocity": 2}, {"time": 2357, "pitch": 58, "duration": 2, "velocity": 84}, {"time": 2360, "pitch": 53, "duration": 17, "velocity": 108}, {"time": 2363, "pitch": 60, "duration": 9, "velocity": 67}, {"time": 2366, "pitch": 65, "duration": 10, "velocity": 111}, {"time": 2369, "pitch": 68, "duration": 7, "velocity": 111}, {"time": 2372, "pitch": 56, "duration": 5, "velocity": 57}, {"time": 2375, "pitch": 60, "duration": 3, "velocity": 89}, {"time": 2378, "pitch": 65, "duration": 2, "velocity": 105}, {"time": 2384, "pitch": 51, "duration": 15, "velocity": 105}, {"time": 2384, "pitch": 63, "duration": 3, "velocity": 92}, {"time": 2384, "pitch": 67, "duration": 6, "velocity": 93}, {"time": 2387, "pitch": 58, "duration": 8, "velocity": 69}, {"time": 2390, "pitch": 63, "duration": 3, "velocity": 84}, {"time": 2393, "pitch": 65, "duration": 9, "velocity": 114}, {"time": 2396, "pitch": 55, "duration": 4, "velocity": 102}, {"time": 2399, "pitch": 58, "duration": 2, "velocity": 111}, {"time": 2402, "pitch": 67, "duration": 3, "velocity": 119}, {"time": 2405, "pitch": 63, "duration": 1, "velocity": 87}, {"time": 2408, "pitch": 44, "duration": 9, "velocity": 100}, {"time": 2408, "pitch": 56, "duration": 4, "velocity": 97}, {"time": 2408, "pitch": 60, "duration": 8, "velocity": 105}, {"time": 2411, "pitch": 51, "duration": 7, "velocity": 69}, {"time": 2414, "pitch": 56, "duration": 3, "velocity": 84}, {"time": 2420, "pitch": 43, "duration": 7, "velocity": 102}, {"time": 2420, "pitch": 55, "duration": 6, "velocity": 90}, {"time": 2420, "pitch": 58, "duration": 6, "velocity": 100}, {"time": 2426, "pitch": 50, "duration": 1, "velocity": 48}, {"time": 2432, "pitch": 41, "duration": 7, "velocity": 97}, {"time": 2432, "pitch": 53, "duration": 3, "velocity": 69}, {"time": 2432, "pitch": 56, "duration": 6, "velocity": 87}, {"time": 2435, "pitch": 48, "duration": 5, "velocity": 57}, {"time": 2438, "pitch": 53, "duration": 3, "velocity": 69}, {"time": 2441, "pitch": 56, "duration": 2, "velocity": 92}, {"time": 2444, "pitch": 43, "duration": 11, "velocity": 90}, {"time": 2444, "pitch": 55, "duration": 4, "velocity": 87}, {"time": 2444, "pitch": 58, "duration": 6, "velocity": 102}, {"time": 2447, "pitch": 50, "duration": 8, "velocity": 50}, {"time": 2450, "pitch": 55, "duration": 5, "velocity": 105}, {"time": 2453, "pitch": 58, "duration": 2, "velocity": 82}, {"time": 2456, "pitch": 44, "duration": 9, "velocity": 105}, {"time": 2456, "pitch": 56, "duration": 5, "velocity": 82}, {"time": 2456, "pitch": 60, "duration": 7, "velocity": 97}, {"time": 2459, "pitch": 51, "duration": 6, "velocity": 76}, {"time": 2462, "pitch": 56, "duration": 3, "velocity": 84}, {"time": 2465, "pitch": 60, "duration": 2, "velocity": 92}, {"time": 2468, "pitch": 46, "duration": 10, "velocity": 105}, {"time": 2468, "pitch": 58, "duration": 3, "velocity": 87}, {"time": 2468, "pitch": 62, "duration": 6, "velocity": 90}, {"time": 2471, "pitch": 53, "duration": 6, "velocity": 71}, {"time": 2474, "pitch": 58, "duration": 2, "velocity": 94}, {"time": 2480, "pitch": 47, "duration": 11, "velocity": 102}, {"time": 2480, "pitch": 59, "duration": 4, "velocity": 82}, {"time": 2480, "pitch": 63, "duration": 4, "velocity": 89}, {"time": 2480, "pitch": 66, "duration": 4, "velocity": 100}, {"time": 2486, "pitch": 54, "duration": 5, "velocity": 40}, {"time": 2486, "pitch": 59, "duration": 5, "velocity": 82}, {"time": 2486, "pitch": 63, "duration": 4, "velocity": 87}, {"time": 2486, "pitch": 66, "duration": 4, "velocity": 94}, {"time": 2492, "pitch": 47, "duration": 4, "velocity": 87}, {"time": 2492, "pitch": 54, "duration": 5, "velocity": 87}, {"time": 2492, "pitch": 59, "duration": 5, "velocity": 93}, {"time": 2492, "pitch": 63, "duration": 5, "velocity": 97}, {"time": 2492, "pitch": 66, "duration": 5, "velocity": 102}, {"time": 2498, "pitch": 47, "duration": 6, "velocity": 85}, {"time": 2498, "pitch": 54, "duration": 6, "velocity": 87}, {"time": 2498, "pitch": 59, "duration": 5, "velocity": 93}, {"time": 2498, "pitch": 63, "duration": 5, "velocity": 97}, {"time": 2498, "pitch": 66, "duration": 5, "velocity": 100}, {"time": 2504, "pitch": 45, "duration": 19, "velocity": 102}, {"time": 2504, "pitch": 57, "duration": 13, "velocity": 73}, {"time": 2504, "pitch": 61, "duration": 16, "velocity": 82}, {"time": 2507, "pitch": 52, "duration": 7, "velocity": 57}, {"time": 2510, "pitch": 64, "duration": 13, "velocity": 87}, {"time": 2513, "pitch": 69, "duration": 10, "velocity": 100}, {"time": 2516, "pitch": 52, "duration": 4, "velocity": 62}, {"time": 2519, "pitch": 57, "duration": 4, "velocity": 84}, {"time": 2522, "pitch": 52, "duration": 3, "velocity": 80}, {"time": 2528, "pitch": 44, "duration": 18, "velocity": 87}, {"time": 2528, "pitch": 56, "duration": 12, "velocity": 90}, {"time": 2528, "pitch": 59, "duration": 14, "velocity": 105}, {"time": 2531, "pitch": 51, "duration": 10, "velocity": 44}, {"time": 2537, "pitch": 63, "duration": 7, "velocity": 46}, {"time": 2540, "pitch": 68, "duration": 12, "velocity": 102}, {"time": 2543, "pitch": 51, "duration": 4, "velocity": 85}, {"time": 2546, "pitch": 56, "duration": 4, "velocity": 109}, {"time": 2546, "pitch": 63, "duration": 1, "velocity": 2}, {"time": 2549, "pitch": 59, "duration": 2, "velocity": 84}, {"time": 2552, "pitch": 54, "duration": 17, "velocity": 108}, {"time": 2555, "pitch": 61, "duration": 9, "velocity": 67}, {"time": 2558, "pitch": 66, "duration": 10, "velocity": 111}, {"time": 2561, "pitch": 69, "duration": 7, "velocity": 111}, {"time": 2564, "pitch": 57, "duration": 5, "velocity": 57}, {"time": 2567, "pitch": 61, "duration": 3, "velocity": 89}, {"time": 2570, "pitch": 66, "duration": 2, "velocity": 105}, {"time": 2576, "pitch": 52, "duration": 15, "velocity": 105}, {"time": 2576, "pitch": 64, "duration": 3, "velocity": 92}, {"time": 2576, "pitch": 68, "duration": 6, "velocity": 93}, {"time": 2579, "pitch": 59, "duration": 8, "velocity": 69}, {"time": 2582, "pitch": 64, "duration": 3, "velocity": 84}, {"time": 2585, "pitch": 66, "duration": 9, "velocity": 114}, {"time": 2588, "pitch": 56, "duration": 4, "velocity": 102}, {"time": 2591, "pitch": 59, "duration": 2, "velocity": 111}, {"time": 2594, "pitch": 68, "duration": 3, "velocity": 119}, {"time": 2597, "pitch": 64, "duration": 1, "velocity": 87}, {"time": 2600, "pitch": 45, "duration": 9, "velocity": 100}, {"time": 2600, "pitch": 57, "duration": 4, "velocity": 97}, {"time": 2600, "pitch": 61, "duration": 8, "velocity": 105}, {"time": 2603, "pitch": 52, "duration": 7, "velocity": 69}, {"time": 2606, "pitch": 57, "duration": 3, "velocity": 84}, {"time": 2612, "pitch": 44, "duration": 7, "velocity": 102}, {"time": 2612, "pitch": 56, "duration": 6, "velocity": 90}, {"time": 2612, "pitch": 59, "duration": 6, "velocity": 100}, {"time": 2618, "pitch": 51, "duration": 1, "velocity": 48}, {"time": 2624, "pitch": 54, "duration": 8, "velocity": 108}, {"time": 2624, "pitch": 66, "duration": 4, "velocity": 76}, {"time": 2624, "pitch": 69, "duration": 6, "velocity": 78}, {"time": 2627, "pitch": 61, "duration": 9, "velocity": 82}, {"time": 2630, "pitch": 66, "duration": 5, "velocity": 80}, {"time": 2633, "pitch": 69, "duration": 9, "velocity": 78}, {"time": 2636, "pitch": 52, "duration": 7, "velocity": 102}, {"time": 2639, "pitch": 61, "duration": 6, "velocity": 82}, {"time": 2642, "pitch": 64, "duration": 6, "velocity": 114}, {"time": 2645, "pitch": 69, "duration": 3, "velocity": 69}, {"time": 2648, "pitch": 45, "duration": 15, "velocity": 92}, {"time": 2651, "pitch": 52, "duration": 8, "velocity": 73}, {"time": 2654, "pitch": 57, "duration": 7, "velocity": 114}, {"time": 2657, "pitch": 61, "duration": 10, "velocity": 105}, {"time": 2660, "pitch": 52, "duration": 10, "velocity": 62}, {"time": 2666, "pitch": 57, "duration": 3, "velocity": 97}, {"time": 2669, "pitch": 61, "duration": 2, "velocity": 92}, {"time": 2672, "pitch": 47, "duration": 19, "velocity": 102}, {"time": 2672, "pitch": 59, "duration": 3, "velocity": 100}, {"time": 2672, "pitch": 63, "duration": 6, "velocity": 79}, {"time": 2675, "pitch": 54, "duration": 7, "velocity": 84}, {"time": 2678, "pitch": 59, "duration": 1, "velocity": 102}, {"time": 2681, "pitch": 59, "duration": 7, "velocity": 111}, {"time": 2681, "pitch": 66, "duration": 7, "velocity": 97}, {"time": 2684, "pitch": 54, "duration": 4, "velocity": 111}, {"time": 2687, "pitch": 71, "duration": 9, "velocity": 100}, {"time": 2690, "pitch": 54, "duration": 4, "velocity": 111}, {"time": 2693, "pitch": 59, "duration": 3, "velocity": 108}, {"time": 2696, "pitch": 45, "duration": 19, "velocity": 102}, {"time": 2696, "pitch": 57, "duration": 13, "velocity": 73}, {"time": 2696, "pitch": 61, "duration": 16, "velocity": 82}, {"time": 2699, "pitch": 52, "duration": 7, "velocity": 57}, {"time": 2702, "pitch": 64, "duration": 13, "velocity": 87}, {"time": 2705, "pitch": 69, "duration": 10, "velocity": 100}, {"time": 2708, "pitch": 52, "duration": 4, "velocity": 62}, {"time": 2711, "pitch": 57, "duration": 4, "velocity": 84}, {"time": 2714, "pitch": 52, "duration": 3, "velocity": 80}, {"time": 2720, "pitch": 44, "duration": 18, "velocity": 87}, {"time": 2720, "pitch": 56, "duration": 12, "velocity": 90}, {"time": 2720, "pitch": 59, "duration": 14, "velocity": 105}, {"time": 2723, "pitch": 51, "duration": 10, "velocity": 44}, {"time": 2729, "pitch": 63, "duration": 7, "velocity": 46}, {"time": 2732, "pitch": 68, "duration": 12, "velocity": 102}, {"time": 2735, "pitch": 51, "duration": 4, "velocity": 85}, {"time": 2738, "pitch": 56, "duration": 4, "velocity": 109}, {"time": 2738, "pitch": 63, "duration": 1, "velocity": 2}, {"time": 2741, "pitch": 59, "duration": 2, "velocity": 84}, {"time": 2744, "pitch": 54, "duration": 17, "velocity": 108}, {"time": 2747, "pitch": 61, "duration": 9, "velocity": 67}, {"time": 2750, "pitch": 66, "duration": 10, "velocity": 111}, {"time": 2753, "pitch": 69, "duration": 7, "velocity": 111}, {"time": 2756, "pitch": 57, "duration": 5, "velocity": 57}, {"time": 2759, "pitch": 61, "duration": 3, "velocity": 89}, {"time": 2762, "pitch": 66, "duration": 2, "velocity": 105}, {"time": 2768, "pitch": 52, "duration": 15, "velocity": 105}, {"time": 2768, "pitch": 64, "duration": 3, "velocity": 92}, {"time": 2768, "pitch": 68, "duration": 6, "velocity": 93}, {"time": 2771, "pitch": 59, "duration": 8, "velocity": 69}, {"time": 2774, "pitch": 64, "duration": 3, "velocity": 84}, {"time": 2777, "pitch": 66, "duration": 9, "velocity": 114}, {"time": 2780, "pitch": 56, "duration": 4, "velocity": 102}, {"time": 2783, "pitch": 59, "duration": 2, "velocity": 111}, {"time": 2786, "pitch": 68, "duration": 3, "velocity": 119}, {"time": 2789, "pitch": 64, "duration": 1, "velocity": 87}, {"time": 2792, "pitch": 45, "duration": 9, "velocity": 100}, {"time": 2792, "pitch": 57, "duration": 4, "velocity": 97}, {"time": 2792, "pitch": 61, "duration": 8, "velocity": 105}, {"time": 2795, "pitch": 52, "duration": 7, "velocity": 69}, {"time": 2798, "pitch": 57, "duration": 3, "velocity": 84}, {"time": 2804, "pitch": 44, "duration": 7, "velocity": 102}, {"time": 2804, "pitch": 56, "duration": 6, "velocity": 90}, {"time": 2804, "pitch": 59, "duration": 6, "velocity": 100}, {"time": 2810, "pitch": 51, "duration": 1, "velocity": 48}, {"time": 2816, "pitch": 42, "duration": 7, "velocity": 97}, {"time": 2816, "pitch": 54, "duration": 3, "velocity": 69}, {"time": 2816, "pitch": 57, "duration": 6, "velocity": 87}, {"time": 2819, "pitch": 49, "duration": 5, "velocity": 57}, {"time": 2822, "pitch": 54, "duration": 3, "velocity": 69}, {"time": 2825, "pitch": 57, "duration": 2, "velocity": 92}, {"time": 2828, "pitch": 44, "duration": 11, "velocity": 90}, {"time": 2828, "pitch": 56, "duration": 4, "velocity": 87}, {"time": 2828, "pitch": 59, "duration": 6, "velocity": 102}, {"time": 2831, "pitch": 51, "duration": 8, "velocity": 50}, {"time": 2834, "pitch": 56, "duration": 5, "velocity": 105}, {"time": 2837, "pitch": 59, "duration": 2, "velocity": 82}, {"time": 2840, "pitch": 45, "duration": 9, "velocity": 105}, {"time": 2840, "pitch": 57, "duration": 5, "velocity": 82}, {"time": 2840, "pitch": 61, "duration": 7, "velocity": 97}, {"time": 2843, "pitch": 52, "duration": 6, "velocity": 76}, {"time": 2846, "pitch": 57, "duration": 3, "velocity": 84}, {"time": 2849, "pitch": 61, "duration": 2, "velocity": 92}, {"time": 2852, "pitch": 47, "duration": 10, "velocity": 105}, {"time": 2852, "pitch": 59, "duration": 3, "velocity": 87}, {"time": 2852, "pitch": 63, "duration": 6, "velocity": 90}, {"time": 2855, "pitch": 54, "duration": 6, "velocity": 71}, {"time": 2858, "pitch": 59, "duration": 2, "velocity": 94}, {"time": 2864, "pitch": 68, "duration": 8, "velocity": 61}, {"time": 2864, "pitch": 52, "duration": 15, "velocity": 92}, {"time": 2864, "pitch": 64, "duration": 8, "velocity": 49}, {"time": 2869, "pitch": 59, "duration": 9, "velocity": 64}, {"time": 2875, "pitch": 68, "duration": 10, "velocity": 90}, {"time": 2875, "pitch": 71, "duration": 10, "velocity": 84}, {"time": 2875, "pitch": 64, "duration": 10, "velocity": 80}, {"time": 2887, "pitch": 61, "duration": 4, "velocity": 57}, {"time": 2887, "pitch": 64, "duration": 10, "velocity": 73}, {"time": 2887, "pitch": 57, "duration": 5, "velocity": 44}, {"time": 2887, "pitch": 45, "duration": 6, "velocity": 82}, {"time": 2899, "pitch": 44, "duration": 3, "velocity": 61}, {"time": 2899, "pitch": 63, "duration": 5, "velocity": 42}, {"time": 2899, "pitch": 56, "duration": 3, "velocity": 43}, {"time": 2899, "pitch": 59, "duration": 3, "velocity": 89}, {"time": 2911, "pitch": 69, "duration": 9, "velocity": 84}, {"time": 2911, "pitch": 64, "duration": 8, "velocity": 69}, {"time": 2911, "pitch": 54, "duration": 7, "velocity": 94}, {"time": 2923, "pitch": 68, "duration": 8, "velocity": 65}, {"time": 2923, "pitch": 44, "duration": 8, "velocity": 79}, {"time": 2923, "pitch": 64, "duration": 8, "velocity": 55}, {"time": 2936, "pitch": 61, "duration": 7, "velocity": 78}, {"time": 2936, "pitch": 57, "duration": 5, "velocity": 71}, {"time": 2936, "pitch": 45, "duration": 7, "velocity": 89}, {"time": 2948, "pitch": 63, "duration": 6, "velocity": 42}, {"time": 2948, "pitch": 59, "duration": 6, "velocity": 71}, {"time": 2948, "pitch": 47, "duration": 9, "velocity": 92}, {"time": 2954, "pitch": 54, "duration": 3, "velocity": 44}, {"time": 2960, "pitch": 64, "duration": 8, "velocity": 69}, {"time": 2960, "pitch": 59, "duration": 3, "velocity": 58}, {"time": 2960, "pitch": 52, "duration": 18, "velocity": 73}, {"time": 2965, "pitch": 59, "duration": 4, "velocity": 51}, {"time": 2972, "pitch": 68, "duration": 6, "velocity": 85}, {"time": 2972, "pitch": 59, "duration": 6, "velocity": 97}, {"time": 2983, "pitch": 57, "duration": 7, "velocity": 66}, {"time": 2983, "pitch": 61, "duration": 7, "velocity": 76}, {"time": 2983, "pitch": 45, "duration": 8, "velocity": 89}, {"time": 2989, "pitch": 52, "duration": 2, "velocity": 39}, {"time": 2995, "pitch": 56, "duration": 4, "velocity": 48}, {"time": 2995, "pitch": 44, "duration": 8, "velocity": 87}, {"time": 2995, "pitch": 59, "duration": 4, "velocity": 94}, {"time": 3007, "pitch": 66, "duration": 10, "velocity": 82}, {"time": 3007, "pitch": 54, "duration": 10, "velocity": 87}, {"time": 3007, "pitch": 61, "duration": 10, "velocity": 73}, {"time": 3019, "pitch": 44, "duration": 11, "velocity": 68}, {"time": 3019, "pitch": 63, "duration": 11, "velocity": 45}, {"time": 3019, "pitch": 56, "duration": 11, "velocity": 40}, {"time": 3019, "pitch": 59, "duration": 11, "velocity": 80}, {"time": 3025, "pitch": 51, "duration": 6, "velocity": 70}, {"time": 3030, "pitch": 61, "duration": 9, "velocity": 82}, {"time": 3030, "pitch": 57, "duration": 7, "velocity": 67}, {"time": 3031, "pitch": 45, "duration": 9, "velocity": 97}, {"time": 3036, "pitch": 52, "duration": 4, "velocity": 48}, {"time": 3039, "pitch": 57, "duration": 1, "velocity": 73}, {"time": 3042, "pitch": 63, "duration": 28, "velocity": 77}, {"time": 3042, "pitch": 59, "duration": 27, "velocity": 69}, {"time": 3042, "pitch": 47, "duration": 15, "velocity": 100}, {"time": 3080, "pitch": 52, "duration": 22, "velocity": 97}, {"time": 3083, "pitch": 59, "duration": 7, "velocity": 69}, {"time": 3086, "pitch": 63, "duration": 3, "velocity": 87}, {"time": 3089, "pitch": 64, "duration": 7, "velocity": 84}, {"time": 3092, "pitch": 59, "duration": 11, "velocity": 64}, {"time": 3095, "pitch": 71, "duration": 4, "velocity": 73}, {"time": 3098, "pitch": 63, "duration": 4, "velocity": 72}, {"time": 3101, "pitch": 64, "duration": 4, "velocity": 78}, {"time": 3104, "pitch": 52, "duration": 22, "velocity": 94}, {"time": 3104, "pitch": 71, "duration": 7, "velocity": 82}, {"time": 3107, "pitch": 59, "duration": 7, "velocity": 76}, {"time": 3110, "pitch": 63, "duration": 4, "velocity": 43}, {"time": 3113, "pitch": 64, "duration": 7, "velocity": 78}, {"time": 3116, "pitch": 59, "duration": 11, "velocity": 62}, {"time": 3119, "pitch": 71, "duration": 4, "velocity": 73}, {"time": 3122, "pitch": 63, "duration": 3, "velocity": 70}, {"time": 3125, "pitch": 64, "duration": 2, "velocity": 82}, {"time": 3128, "pitch": 54, "duration": 9, "velocity": 97}, {"time": 3128, "pitch": 66, "duration": 4, "velocity": 66}, {"time": 3128, "pitch": 69, "duration": 7, "velocity": 78}, {"time": 3131, "pitch": 61, "duration": 8, "velocity": 67}, {"time": 3134, "pitch": 66, "duration": 6, "velocity": 71}, {"time": 3137, "pitch": 69, "duration": 3, "velocity": 71}, {"time": 3140, "pitch": 56, "duration": 12, "velocity": 97}, {"time": 3143, "pitch": 59, "duration": 9, "velocity": 42}, {"time": 3146, "pitch": 68, "duration": 4, "velocity": 96}, {"time": 3149, "pitch": 71, "duration": 4, "velocity": 84}, {"time": 3152, "pitch": 57, "duration": 9, "velocity": 82}, {"time": 3152, "pitch": 64, "duration": 2, "velocity": 67}, {"time": 3152, "pitch": 69, "duration": 7, "velocity": 80}, {"time": 3158, "pitch": 64, "duration": 3, "velocity": 92}, {"time": 3161, "pitch": 73, "duration": 5, "velocity": 84}, {"time": 3164, "pitch": 59, "duration": 6, "velocity": 105}, {"time": 3167, "pitch": 66, "duration": 3, "velocity": 82}, {"time": 3170, "pitch": 71, "duration": 4, "velocity": 89}, {"time": 3176, "pitch": 52, "duration": 16, "velocity": 97}, {"time": 3179, "pitch": 59, "duration": 6, "velocity": 49}, {"time": 3182, "pitch": 64, "duration": 3, "velocity": 57}, {"time": 3185, "pitch": 66, "duration": 7, "velocity": 89}, {"time": 3188, "pitch": 59, "duration": 4, "velocity": 73}, {"time": 3191, "pitch": 68, "duration": 3, "velocity": 112}, {"time": 3194, "pitch": 71, "duration": 2, "velocity": 82}, {"time": 3200, "pitch": 52, "duration": 25, "velocity": 67}, {"time": 3201, "pitch": 59, "duration": 24, "velocity": 58}, {"time": 3201, "pitch": 64, "duration": 28, "velocity": 45}, {"time": 3202, "pitch": 66, "duration": 27, "velocity": 62}, {"time": 3203, "pitch": 71, "duration": 26, "velocity": 82}], "annotations": [{"time": 175, "annotation": {"number": 64, "value": 127}, "group": "control_change"}, {"time": 198, "annotation": {"number": 64, "value": 0}, "group": "control_change"}, {"time": 226, "annotation": {"number": 64, "value": 127}, "group": "control_change"}, {"time": 235, "annotation": {"number": 64, "value": 0}, "group": "control_change"}, {"time": 239, "annotation": {"number": 64, "value": 127}, "group": "control_change"}, {"time": 248, "annotation": {"number": 64, "value": 0}, "group": "control_change"}, {"time": 253, "annotation": {"number": 64, "value": 127}, "group": "control_change"}, {"time": 271, "annotation": {"number": 64, "value": 0}, "group": "control_change"}, {"time": 276, "annotation": {"number": 64, "value": 127}, "group": "control_change"}, {"time": 294, "annotation": {"number": 64, "value": 0}, "group": "control_change"}, {"time": 299, "annotation": {"number": 64, "value": 127}, "group": "control_change"}, {"time": 320, "annotation": {"number": 64, "value": 0}, "group": "control_change"}, {"time": 325, "annotation": {"number": 64, "value": 127}, "group": "control_change"}, {"time": 344, "annotation": {"number": 64, "value": 0}, "group": "control_change"}, {"time": 351, "annotation": {"number": 64, "value": 127}, "group": "control_change"}, {"time": 368, "annotation": {"number": 64, "value": 0}, "group": "control_change"}, {"time": 374, "annotation": {"number": 64, "value": 127}, "group": "control_change"}, {"time": 391, "annotation": {"number": 64, "value": 0}, "group": "control_change"}, {"time": 397, "annotation": {"number": 64, "value": 127}, "group": "control_change"}, {"time": 415, "annotation": {"number": 64, "value": 0}, "group": "control_change"}, {"time": 421, "annotation": {"number": 64, "value": 127}, "group": "control_change"}, {"time": 440, "annotation": {"number": 64, "value": 0}, "group": "control_change"}, {"time": 446, "annotation": {"number": 64, "value": 127}, "group": "control_change"}, {"time": 464, "annotation": {"number": 64, "value": 0}, "group": "control_change"}, {"time": 469, "annotation": {"number": 64, "value": 127}, "group": "control_change"}, {"time": 488, "annotation": {"number": 64, "value": 0}, "group": "control_change"}, {"time": 493, "annotation": {"number": 64, "value": 127}, "group": "control_change"}, {"time": 511, "annotation": {"number": 64, "value": 0}, "group": "control_change"}, {"time": 517, "annotation": {"number": 64, "value": 127}, "group": "control_change"}, {"time": 535, "annotation": {"number": 64, "value": 0}, "group": "control_change"}, {"time": 548, "annotation": {"number": 64, "value": 127}, "group": "control_change"}, {"time": 560, "annotation": {"number": 64, "value": 0}, "group": "control_change"}, {"time": 573, "annotation": {"number": 64, "value": 127}, "group": "control_change"}, {"time": 583, "annotation": {"number": 64, "value": 0}, "group": "control_change"}, {"time": 602, "annotation": {"number": 64, "value": 127}, "group": "control_change"}, {"time": 606, "annotation": {"number": 64, "value": 0}, "group": "control_change"}, {"time": 622, "annotation": {"number": 64, "value": 127}, "group": "control_change"}, {"time": 632, "annotation": {"number": 64, "value": 0}, "group": "control_change"}, {"time": 657, "annotation": {"number": 64, "value": 127}, "group": "control_change"}, {"time": 679, "annotation": {"number": 64, "value": 0}, "group": "control_change"}, {"time": 685, "annotation": {"number": 64, "value": 127}, "group": "control_change"}, {"time": 704, "annotation": {"number": 64, "value": 0}, "group": "control_change"}, {"time": 711, "annotation": {"number": 64, "value": 127}, "group": "control_change"}, {"time": 728, "annotation": {"number": 64, "value": 0}, "group": "control_change"}, {"time": 731, "annotation": {"number": 64, "value": 127}, "group": "control_change"}, {"time": 739, "annotation": {"number": 64, "value": 0}, "group": "control_change"}, {"time": 744, "annotation": {"number": 64, "value": 127}, "group": "control_change"}, {"time": 751, "annotation": {"number": 64, "value": 0}, "group": "control_change"}, {"time": 756, "annotation": {"number": 64, "value": 127}, "group": "control_change"}, {"time": 775, "annotation": {"number": 64, "value": 0}, "group": "control_change"}, {"time": 782, "annotation": {"number": 64, "value": 127}, "group": "control_change"}, {"time": 800, "annotation": {"number": 64, "value": 0}, "group": "control_change"}, {"time": 808, "annotation": {"number": 64, "value": 127}, "group": "control_change"}, {"time": 823, "annotation": {"number": 64, "value": 0}, "group": "control_change"}, {"time": 829, "annotation": {"number": 64, "value": 127}, "group": "control_change"}, {"time": 847, "annotation": {"number": 64, "value": 0}, "group": "control_change"}, {"time": 852, "annotation": {"number": 64, "value": 127}, "group": "control_change"}, {"time": 871, "annotation": {"number": 64, "value": 0}, "group": "control_change"}, {"time": 885, "annotation": {"number": 64, "value": 127}, "group": "control_change"}, {"time": 893, "annotation": {"number": 64, "value": 0}, "group": "control_change"}, {"time": 911, "annotation": {"number": 64, "value": 127}, "group": "control_change"}, {"time": 919, "annotation": {"number": 64, "value": 0}, "group": "control_change"}, {"time": 934, "annotation": {"number": 64, "value": 127}, "group": "control_change"}, {"time": 944, "annotation": {"number": 64, "value": 0}, "group": "control_change"}, {"time": 948, "annotation": {"number": 64, "value": 127}, "group": "control_change"}, {"time": 967, "annotation": {"number": 64, "value": 0}, "group": "control_change"}, {"time": 973, "annotation": {"number": 64, "value": 127}, "group": "control_change"}, {"time": 991, "annotation": {"number": 64, "value": 0}, "group": "control_change"}, {"time": 997, "annotation": {"number": 64, "value": 127}, "group": "control_change"}, {"time": 1004, "annotation": {"number": 64, "value": 0}, "group": "control_change"}, {"time": 1009, "annotation": {"number": 64, "value": 127}, "group": "control_change"}, {"time": 1017, "annotation": {"number": 64, "value": 0}, "group": "control_change"}, {"time": 1020, "annotation": {"number": 64, "value": 127}, "group": "control_change"}, {"time": 1028, "annotation": {"number": 64, "value": 0}, "group": "control_change"}, {"time": 1031, "annotation": {"number": 64, "value": 127}, "group": "control_change"}, {"time": 1039, "annotation": {"number": 64, "value": 0}, "group": "control_change"}, {"time": 1043, "annotation": {"number": 64, "value": 127}, "group": "control_change"}, {"time": 1053, "annotation": {"number": 64, "value": 0}, "group": "control_change"}, {"time": 1055, "annotation": {"number": 64, "value": 127}, "group": "control_change"}, {"time": 1063, "annotation": {"number": 64, "value": 0}, "group": "control_change"}, {"time": 1068, "annotation": {"number": 64, "value": 127}, "group": "control_change"}, {"time": 1085, "annotation": {"number": 64, "value": 0}, "group": "control_change"}, {"time": 1103, "annotation": {"number": 64, "value": 127}, "group": "control_change"}, {"time": 1111, "annotation": {"number": 64, "value": 0}, "group": "control_change"}, {"time": 1126, "annotation": {"number": 64, "value": 127}, "group": "control_change"}, {"time": 1136, "annotation": {"number": 64, "value": 0}, "group": "control_change"}, {"time": 1140, "annotation": {"number": 64, "value": 127}, "group": "control_change"}, {"time": 1159, "annotation": {"number": 64, "value": 0}, "group": "control_change"}, {"time": 1165, "annotation": {"number": 64, "value": 127}, "group": "control_change"}, {"time": 1183, "annotation": {"number": 64, "value": 0}, "group": "control_change"}, {"time": 1189, "annotation": {"number": 64, "value": 127}, "group": "control_change"}, {"time": 1196, "annotation": {"number": 64, "value": 0}, "group": "control_change"}, {"time": 1201, "annotation": {"number": 64, "value": 127}, "group": "control_change"}, {"time": 1204, "annotation": {"number": 64, "value": 127}, "group": "control_change"}, {"time": 1207, "annotation": {"number": 64, "value": 0}, "group": "control_change"}, {"time": 1210, "annotation": {"number": 64, "value": 127}, "group": "control_change"}, {"time": 1219, "annotation": {"number": 64, "value": 0}, "group": "control_change"}, {"time": 1235, "annotation": {"number": 64, "value": 127}, "group": "control_change"}, {"time": 1243, "annotation": {"number": 64, "value": 0}, "group": "control_change"}, {"time": 1249, "annotation": {"number": 64, "value": 127}, "group": "control_change"}, {"time": 1255, "annotation": {"number": 64, "value": 0}, "group": "control_change"}, {"time": 1262, "annotation": {"number": 64, "value": 127}, "group": "control_change"}, {"time": 1279, "annotation": {"number": 64, "value": 0}, "group": "control_change"}, {"time": 1314, "annotation": {"number": 64, "value": 127}, "group": "control_change"}, {"time": 1326, "annotation": {"number": 64, "value": 0}, "group": "control_change"}, {"time": 1334, "annotation": {"number": 64, "value": 127}, "group": "control_change"}, {"time": 1351, "annotation": {"number": 64, "value": 0}, "group": "control_change"}, {"time": 1357, "annotation": {"number": 64, "value": 127}, "group": "control_change"}, {"time": 1375, "annotation": {"number": 64, "value": 0}, "group": "control_change"}, {"time": 1381, "annotation": {"number": 64, "value": 127}, "group": "control_change"}, {"time": 1396, "annotation": {"number": 64, "value": 0}, "group": "control_change"}, {"time": 1406, "annotation": {"number": 64, "value": 127}, "group": "control_change"}, {"time": 1422, "annotation": {"number": 64, "value": 0}, "group": "control_change"}, {"time": 1427, "annotation": {"number": 64, "value": 127}, "group": "control_change"}, {"time": 1447, "annotation": {"number": 64, "value": 0}, "group": "control_change"}, {"time": 1453, "annotation": {"number": 64, "value": 127}, "group": "control_change"}, {"time": 1469, "annotation": {"number": 64, "value": 0}, "group": "control_change"}, {"time": 1471, "annotation": {"number": 64, "value": 127}, "group": "control_change"}, {"time": 1495, "annotation": {"number": 64, "value": 0}, "group": "control_change"}, {"time": 1498, "annotation": {"number": 64, "value": 127}, "group": "control_change"}, {"time": 1519, "annotation": {"number": 64, "value": 0}, "group": "control_change"}, {"time": 1521, "annotation": {"number": 64, "value": 127}, "group": "control_change"}, {"time": 1541, "annotation": {"number": 64, "value": 0}, "group": "control_change"}, {"time": 1547, "annotation": {"number": 64, "value": 127}, "group": "control_change"}, {"time": 1568, "annotation": {"number": 64, "value": 0}, "group": "control_change"}, {"time": 1573, "annotation": {"number": 64, "value": 127}, "group": "control_change"}, {"time": 1592, "annotation": {"number": 64, "value": 0}, "group": "control_change"}, {"time": 1599, "annotation": {"number": 64, "value": 127}, "group": "control_change"}, {"time": 1616, "annotation": {"number": 64, "value": 0}, "group": "control_change"}, {"time": 1622, "annotation": {"number": 64, "value": 127}, "group": "control_change"}, {"time": 1639, "annotation": {"number": 64, "value": 0}, "group": "control_change"}, {"time": 1645, "annotation": {"number": 64, "value": 127}, "group": "control_change"}, {"time": 1663, "annotation": {"number": 64, "value": 0}, "group": "control_change"}, {"time": 1669, "annotation": {"number": 64, "value": 127}, "group": "control_change"}, {"time": 1688, "annotation": {"number": 64, "value": 0}, "group": "control_change"}, {"time": 1694, "annotation": {"number": 64, "value": 127}, "group": "control_change"}, {"time": 1712, "annotation": {"number": 64, "value": 0}, "group": "control_change"}, {"time": 1717, "annotation": {"number": 64, "value": 127}, "group": "control_change"}, {"time": 1736, "annotation": {"number": 64, "value": 0}, "group": "control_change"}, {"time": 1741, "annotation": {"number": 64, "value": 127}, "group": "control_change"}, {"time": 1759, "annotation": {"number": 64, "value": 0}, "group": "control_change"}, {"time": 1765, "annotation": {"number": 64, "value": 127}, "group": "control_change"}, {"time": 1783, "annotation": {"number": 64, "value": 0}, "group": "control_change"}, {"time": 1796, "annotation": {"number": 64, "value": 127}, "group": "control_change"}, {"time": 1808, "annotation": {"number": 64, "value": 0}, "group": "control_change"}, {"time": 1821, "annotation": {"number": 64, "value": 127}, "group": "control_change"}, {"time": 1831, "annotation": {"number": 64, "value": 0}, "group": "control_change"}, {"time": 1850, "annotation": {"number": 64, "value": 127}, "group": "control_change"}, {"time": 1854, "annotation": {"number": 64, "value": 0}, "group": "control_change"}, {"time": 1870, "annotation": {"number": 64, "value": 127}, "group": "control_change"}, {"time": 1880, "annotation": {"number": 64, "value": 0}, "group": "control_change"}, {"time": 1905, "annotation": {"number": 64, "value": 127}, "group": "control_change"}, {"time": 1927, "annotation": {"number": 64, "value": 0}, "group": "control_change"}, {"time": 1933, "annotation": {"number": 64, "value": 127}, "group": "control_change"}, {"time": 1952, "annotation": {"number": 64, "value": 0}, "group": "control_change"}, {"time": 1959, "annotation": {"number": 64, "value": 127}, "group": "control_change"}, {"time": 1976, "annotation": {"number": 64, "value": 0}, "group": "control_change"}, {"time": 1979, "annotation": {"number": 64, "value": 127}, "group": "control_change"}, {"time": 1987, "annotation": {"number": 64, "value": 0}, "group": "control_change"}, {"time": 1992, "annotation": {"number": 64, "value": 127}, "group": "control_change"}, {"time": 1999, "annotation": {"number": 64, "value": 0}, "group": "control_change"}, {"time": 2004, "annotation": {"number": 64, "value": 127}, "group": "control_change"}, {"time": 2023, "annotation": {"number": 64, "value": 0}, "group": "control_change"}, {"time": 2030, "annotation": {"number": 64, "value": 127}, "group": "control_change"}, {"time": 2048, "annotation": {"number": 64, "value": 0}, "group": "control_change"}, {"time": 2056, "annotation": {"number": 64, "value": 127}, "group": "control_change"}, {"time": 2071, "annotation": {"number": 64, "value": 0}, "group": "control_change"}, {"time": 2077, "annotation": {"number": 64, "value": 127}, "group": "control_change"}, {"time": 2095, "annotation": {"number": 64, "value": 0}, "group": "control_change"}, {"time": 2100, "annotation": {"number": 64, "value": 127}, "group": "control_change"}, {"time": 2119, "annotation": {"number": 64, "value": 0}, "group": "control_change"}, {"time": 2135, "annotation": {"number": 64, "value": 127}, "group": "control_change"}, {"time": 2143, "annotation": {"number": 64, "value": 0}, "group": "control_change"}, {"time": 2158, "annotation": {"number": 64, "value": 127}, "group": "control_change"}, {"time": 2168, "annotation": {"number": 64, "value": 0}, "group": "control_change"}, {"time": 2172, "annotation": {"number": 64, "value": 127}, "group": "control_change"}, {"time": 2191, "annotation": {"number": 64, "value": 0}, "group": "control_change"}, {"time": 2197, "annotation": {"number": 64, "value": 127}, "group": "control_change"}, {"time": 2215, "annotation": {"number": 64, "value": 0}, "group": "control_change"}, {"time": 2221, "annotation": {"number": 64, "value": 127}, "group": "control_change"}, {"time": 2228, "annotation": {"number": 64, "value": 0}, "group": "control_change"}, {"time": 2233, "annotation": {"number": 64, "value": 127}, "group": "control_change"}, {"time": 2241, "annotation": {"number": 64, "value": 0}, "group": "control_change"}, {"time": 2244, "annotation": {"number": 64, "value": 127}, "group": "control_change"}, {"time": 2252, "annotation": {"number": 64, "value": 0}, "group": "control_change"}, {"time": 2255, "annotation": {"number": 64, "value": 127}, "group": "control_change"}, {"time": 2263, "annotation": {"number": 64, "value": 0}, "group": "control_change"}, {"time": 2267, "annotation": {"number": 64, "value": 127}, "group": "control_change"}, {"time": 2277, "annotation": {"number": 64, "value": 0}, "group": "control_change"}, {"time": 2279, "annotation": {"number": 64, "value": 127}, "group": "control_change"}, {"time": 2287, "annotation": {"number": 64, "value": 0}, "group": "control_change"}, {"time": 2292, "annotation": {"number": 64, "value": 127}, "group": "control_change"}, {"time": 2309, "annotation": {"number": 64, "value": 0}, "group": "control_change"}, {"time": 2327, "annotation": {"number": 64, "value": 127}, "group": "control_change"}, {"time": 2335, "annotation": {"number": 64, "value": 0}, "group": "control_change"}, {"time": 2350, "annotation": {"number": 64, "value": 127}, "group": "control_change"}, {"time": 2360, "annotation": {"number": 64, "value": 0}, "group": "control_change"}, {"time": 2364, "annotation": {"number": 64, "value": 127}, "group": "control_change"}, {"time": 2383, "annotation": {"number": 64, "value": 0}, "group": "control_change"}, {"time": 2389, "annotation": {"number": 64, "value": 127}, "group": "control_change"}, {"time": 2407, "annotation": {"number": 64, "value": 0}, "group": "control_change"}, {"time": 2413, "annotation": {"number": 64, "value": 127}, "group": "control_change"}, {"time": 2420, "annotation": {"number": 64, "value": 0}, "group": "control_change"}, {"time": 2425, "annotation": {"number": 64, "value": 127}, "group": "control_change"}, {"time": 2428, "annotation": {"number": 64, "value": 127}, "group": "control_change"}, {"time": 2431, "annotation": {"number": 64, "value": 0}, "group": "control_change"}, {"time": 2434, "annotation": {"number": 64, "value": 127}, "group": "control_change"}, {"time": 2443, "annotation": {"number": 64, "value": 0}, "group": "control_change"}, {"time": 2459, "annotation": {"number": 64, "value": 127}, "group": "control_change"}, {"time": 2467, "annotation": {"number": 64, "value": 0}, "group": "control_change"}, {"time": 2473, "annotation": {"number": 64, "value": 127}, "group": "control_change"}, {"time": 2479, "annotation": {"number": 64, "value": 0}, "group": "control_change"}, {"time": 2483, "annotation": {"number": 64, "value": 127}, "group": "control_change"}, {"time": 2492, "annotation": {"number": 64, "value": 0}, "group": "control_change"}, {"time": 2519, "annotation": {"number": 64, "value": 127}, "group": "control_change"}, {"time": 2527, "annotation": {"number": 64, "value": 0}, "group": "control_change"}, {"time": 2542, "annotation": {"number": 64, "value": 127}, "group": "control_change"}, {"time": 2552, "annotation": {"number": 64, "value": 0}, "group": "control_change"}, {"time": 2556, "annotation": {"number": 64, "value": 127}, "group": "control_change"}, {"time": 2575, "annotation": {"number": 64, "value": 0}, "group": "control_change"}, {"time": 2581, "annotation": {"number": 64, "value": 127}, "group": "control_change"}, {"time": 2599, "annotation": {"number": 64, "value": 0}, "group": "control_change"}, {"time": 2605, "annotation": {"number": 64, "value": 127}, "group": "control_change"}, {"time": 2612, "annotation": {"number": 64, "value": 0}, "group": "control_change"}, {"time": 2617, "annotation": {"number": 64, "value": 127}, "group": "control_change"}, {"time": 2625, "annotation": {"number": 64, "value": 0}, "group": "control_change"}, {"time": 2628, "annotation": {"number": 64, "value": 127}, "group": "control_change"}, {"time": 2636, "annotation": {"number": 64, "value": 0}, "group": "control_change"}, {"time": 2639, "annotation": {"number": 64, "value": 127}, "group": "control_change"}, {"time": 2647, "annotation": {"number": 64, "value": 0}, "group": "control_change"}, {"time": 2651, "annotation": {"number": 64, "value": 127}, "group": "control_change"}, {"time": 2661, "annotation": {"number": 64, "value": 0}, "group": "control_change"}, {"time": 2663, "annotation": {"number": 64, "value": 127}, "group": "control_change"}, {"time": 2671, "annotation": {"number": 64, "value": 0}, "group": "control_change"}, {"time": 2676, "annotation": {"number": 64, "value": 127}, "group": "control_change"}, {"time": 2693, "annotation": {"number": 64, "value": 0}, "group": "control_change"}, {"time": 2711, "annotation": {"number": 64, "value": 127}, "group": "control_change"}, {"time": 2719, "annotation": {"number": 64, "value": 0}, "group": "control_change"}, {"time": 2734, "annotation": {"number": 64, "value": 127}, "group": "control_change"}, {"time": 2744, "annotation": {"number": 64, "value": 0}, "group": "control_change"}, {"time": 2748, "annotation": {"number": 64, "value": 127}, "group": "control_change"}, {"time": 2767, "annotation": {"number": 64, "value": 0}, "group": "control_change"}, {"time": 2773, "annotation": {"number": 64, "value": 127}, "group": "control_change"}, {"time": 2791, "annotation": {"number": 64, "value": 0}, "group": "control_change"}, {"time": 2797, "annotation": {"number": 64, "value": 127}, "group": "control_change"}, {"time": 2804, "annotation": {"number": 64, "value": 0}, "group": "control_change"}, {"time": 2809, "annotation": {"number": 64, "value": 127}, "group": "control_change"}, {"time": 2812, "annotation": {"number": 64, "value": 127}, "group": "control_change"}, {"time": 2815, "annotation": {"number": 64, "value": 0}, "group": "control_change"}, {"time": 2818, "annotation": {"number": 64, "value": 127}, "group": "control_change"}, {"time": 2827, "annotation": {"number": 64, "value": 0}, "group": "control_change"}, {"time": 2843, "annotation": {"number": 64, "value": 127}, "group": "control_change"}, {"time": 2851, "annotation": {"number": 64, "value": 0}, "group": "control_change"}, {"time": 2857, "annotation": {"number": 64, "value": 127}, "group": "control_change"}, {"time": 2861, "annotation": {"number": 64, "value": 127}, "group": "control_change"}, {"time": 2862, "annotation": {"number": 64, "value": 0}, "group": "control_change"}, {"time": 2863, "annotation": {"number": 64, "value": 127}, "group": "control_change"}, {"time": 2863, "annotation": {"number": 64, "value": 0}, "group": "control_change"}, {"time": 2885, "annotation": {"number": 64, "value": 0}, "group": "control_change"}, {"time": 2888, "annotation": {"number": 64, "value": 127}, "group": "control_change"}, {"time": 2898, "annotation": {"number": 64, "value": 0}, "group": "control_change"}, {"time": 2900, "annotation": {"number": 64, "value": 127}, "group": "control_change"}, {"time": 2911, "annotation": {"number": 64, "value": 0}, "group": "control_change"}, {"time": 2912, "annotation": {"number": 64, "value": 127}, "group": "control_change"}, {"time": 2923, "annotation": {"number": 64, "value": 0}, "group": "control_change"}, {"time": 2925, "annotation": {"number": 64, "value": 127}, "group": "control_change"}, {"time": 2935, "annotation": {"number": 64, "value": 0}, "group": "control_change"}, {"time": 2938, "annotation": {"number": 64, "value": 127}, "group": "control_change"}, {"time": 2946, "annotation": {"number": 64, "value": 0}, "group": "control_change"}, {"time": 2952, "annotation": {"number": 64, "value": 127}, "group": "control_change"}, {"time": 2958, "annotation": {"number": 64, "value": 0}, "group": "control_change"}, {"time": 2964, "annotation": {"number": 64, "value": 127}, "group": "control_change"}, {"time": 2982, "annotation": {"number": 64, "value": 0}, "group": "control_change"}, {"time": 2986, "annotation": {"number": 64, "value": 127}, "group": "control_change"}, {"time": 2994, "annotation": {"number": 64, "value": 0}, "group": "control_change"}, {"time": 2996, "annotation": {"number": 64, "value": 127}, "group": "control_change"}, {"time": 3006, "annotation": {"number": 64, "value": 0}, "group": "control_change"}, {"time": 3008, "annotation": {"number": 64, "value": 127}, "group": "control_change"}, {"time": 3020, "annotation": {"number": 64, "value": 0}, "group": "control_change"}, {"time": 3037, "annotation": {"number": 64, "value": 127}, "group": "control_change"}, {"time": 3042, "annotation": {"number": 64, "value": 0}, "group": "control_change"}, {"time": 3050, "annotation": {"number": 64, "value": 127}, "group": "control_change"}, {"time": 3079, "annotation": {"number": 64, "value": 127}, "group": "control_change"}, {"time": 3128, "annotation": {"number": 64, "value": 127}, "group": "control_change"}, {"time": 3138, "annotation": {"number": 64, "value": 0}, "group": "control_change"}, {"time": 3140, "annotation": {"number": 64, "value": 127}, "group": "control_change"}, {"time": 3150, "annotation": {"number": 64, "value": 0}, "group": "control_change"}, {"time": 3153, "annotation": {"number": 64, "value": 127}, "group": "control_change"}, {"time": 3154, "annotation": {"number": 64, "value": 127}, "group": "control_change"}, {"time": 3163, "annotation": {"number": 64, "value": 0}, "group": "control_change"}, {"time": 3165, "annotation": {"number": 64, "value": 127}, "group": "control_change"}, {"time": 3167, "annotation": {"number": 64, "value": 127}, "group": "control_change"}, {"time": 3175, "annotation": {"number": 64, "value": 0}, "group": "control_change"}, {"time": 3176, "annotation": {"number": 64, "value": 0}, "group": "control_change"}, {"time": 3177, "annotation": {"number": 64, "value": 127}, "group": "control_change"}, {"time": 3181, "annotation": {"number": 64, "value": 127}, "group": "control_change"}, {"time": 3199, "annotation": {"number": 64, "value": 0}, "group": "control_change"}, {"time": 3200, "annotation": {"number": 64, "value": 0}, "group": "control_change"}, {"time": 3202, "annotation": {"number": 64, "value": 127}, "group": "control_change"}, {"time": 3204, "annotation": {"number": 64, "value": 127}, "group": "control_change"}, {"time": 3222, "annotation": {"number": 64, "value": 0}, "group": "control_change"}, {"time": 3235, "annotation": {"number": 64, "value": 0}, "group": "control_change"}]}]}