{"metadata": {"schema_version": "0.2", "title": "None", "source_filename": "013.mid", "source_format": "midi"}, "resolution": 12, "tempos": [{"time": 0, "qpm": 65.00013541694878}, {"time": 766, "qpm": 66.000066000066}, {"time": 823, "qpm": 65.00013541694878}], "time_signatures": [{"time": 0, "numerator": 2, "denominator": 4}], "tracks": [{"program": 4, "is_drum": false, "name": "MELODY", "notes": [{"time": 394, "pitch": 72, "duration": 5, "velocity": 105}, {"time": 400, "pitch": 64, "duration": 1, "velocity": 111}, {"time": 403, "pitch": 64, "duration": 1, "velocity": 102}, {"time": 406, "pitch": 71, "duration": 3, "velocity": 114}, {"time": 412, "pitch": 71, "duration": 4, "velocity": 114}, {"time": 418, "pitch": 69, "duration": 13, "velocity": 111}, {"time": 436, "pitch": 67, "duration": 1, "velocity": 117}, {"time": 439, "pitch": 69, "duration": 1, "velocity": 108}, {"time": 442, "pitch": 71, "duration": 4, "velocity": 114}, {"time": 448, "pitch": 69, "duration": 4, "velocity": 117}, {"time": 454, "pitch": 67, "duration": 1, "velocity": 111}, {"time": 457, "pitch": 69, "duration": 8, "velocity": 108}, {"time": 466, "pitch": 64, "duration": 19, "velocity": 111}, {"time": 490, "pitch": 62, "duration": 4, "velocity": 117}, {"time": 496, "pitch": 62, "duration": 4, "velocity": 111}, {"time": 502, "pitch": 62, "duration": 1, "velocity": 105}, {"time": 505, "pitch": 62, "duration": 4, "velocity": 105}, {"time": 511, "pitch": 64, "duration": 1, "velocity": 100}, {"time": 514, "pitch": 64, "duration": 4, "velocity": 105}, {"time": 520, "pitch": 62, "duration": 1, "velocity": 100}, {"time": 523, "pitch": 60, "duration": 6, "velocity": 100}, {"time": 538, "pitch": 69, "duration": 1, "velocity": 111}, {"time": 541, "pitch": 69, "duration": 1, "velocity": 108}, {"time": 544, "pitch": 69, "duration": 1, "velocity": 111}, {"time": 547, "pitch": 72, "duration": 2, "velocity": 105}, {"time": 550, "pitch": 71, "duration": 6, "velocity": 120}, {"time": 556, "pitch": 67, "duration": 3, "velocity": 108}, {"time": 559, "pitch": 69, "duration": 1, "velocity": 114}, {"time": 562, "pitch": 69, "duration": 18, "velocity": 105}, {"time": 583, "pitch": 64, "duration": 2, "velocity": 114}, {"time": 586, "pitch": 72, "duration": 4, "velocity": 108}, {"time": 592, "pitch": 71, "duration": 1, "velocity": 105}, {"time": 595, "pitch": 71, "duration": 2, "velocity": 105}, {"time": 598, "pitch": 69, "duration": 4, "velocity": 117}, {"time": 604, "pitch": 71, "duration": 5, "velocity": 114}, {"time": 610, "pitch": 69, "duration": 15, "velocity": 105}, {"time": 628, "pitch": 67, "duration": 1, "velocity": 108}, {"time": 631, "pitch": 69, "duration": 1, "velocity": 114}, {"time": 634, "pitch": 71, "duration": 4, "velocity": 114}, {"time": 640, "pitch": 69, "duration": 4, "velocity": 114}, {"time": 646, "pitch": 67, "duration": 4, "velocity": 111}, {"time": 652, "pitch": 69, "duration": 5, "velocity": 102}, {"time": 658, "pitch": 64, "duration": 17, "velocity": 111}, {"time": 682, "pitch": 62, "duration": 4, "velocity": 117}, {"time": 688, "pitch": 62, "duration": 3, "velocity": 117}, {"time": 694, "pitch": 62, "duration": 3, "velocity": 108}, {"time": 700, "pitch": 62, "duration": 1, "velocity": 111}, {"time": 703, "pitch": 64, "duration": 1, "velocity": 100}, {"time": 706, "pitch": 64, "duration": 4, "velocity": 117}, {"time": 712, "pitch": 62, "duration": 1, "velocity": 108}, {"time": 715, "pitch": 60, "duration": 7, "velocity": 117}, {"time": 730, "pitch": 69, "duration": 1, "velocity": 114}, {"time": 733, "pitch": 69, "duration": 1, "velocity": 108}, {"time": 736, "pitch": 69, "duration": 1, "velocity": 102}, {"time": 739, "pitch": 72, "duration": 1, "velocity": 108}, {"time": 742, "pitch": 71, "duration": 2, "velocity": 120}, {"time": 745, "pitch": 69, "duration": 1, "velocity": 117}, {"time": 748, "pitch": 67, "duration": 5, "velocity": 114}, {"time": 754, "pitch": 69, "duration": 25, "velocity": 108}, {"time": 826, "pitch": 69, "duration": 1, "velocity": 117}, {"time": 829, "pitch": 69, "duration": 1, "velocity": 105}, {"time": 832, "pitch": 69, "duration": 1, "velocity": 111}, {"time": 835, "pitch": 69, "duration": 1, "velocity": 114}, {"time": 838, "pitch": 76, "duration": 1, "velocity": 102}, {"time": 841, "pitch": 76, "duration": 6, "velocity": 114}, {"time": 850, "pitch": 67, "duration": 1, "velocity": 114}, {"time": 853, "pitch": 69, "duration": 1, "velocity": 111}, {"time": 856, "pitch": 67, "duration": 1, "velocity": 114}, {"time": 859, "pitch": 69, "duration": 1, "velocity": 102}, {"time": 862, "pitch": 67, "duration": 6, "velocity": 108}, {"time": 874, "pitch": 67, "duration": 1, "velocity": 111}, {"time": 877, "pitch": 67, "duration": 1, "velocity": 105}, {"time": 880, "pitch": 67, "duration": 1, "velocity": 111}, {"time": 883, "pitch": 69, "duration": 1, "velocity": 111}, {"time": 886, "pitch": 71, "duration": 1, "velocity": 114}, {"time": 889, "pitch": 74, "duration": 6, "velocity": 100}, {"time": 898, "pitch": 67, "duration": 4, "velocity": 111}, {"time": 904, "pitch": 69, "duration": 1, "velocity": 102}, {"time": 907, "pitch": 69, "duration": 10, "velocity": 108}, {"time": 922, "pitch": 72, "duration": 1, "velocity": 108}, {"time": 925, "pitch": 72, "duration": 1, "velocity": 105}, {"time": 928, "pitch": 72, "duration": 2, "velocity": 111}, {"time": 931, "pitch": 71, "duration": 2, "velocity": 105}, {"time": 934, "pitch": 69, "duration": 7, "velocity": 117}, {"time": 943, "pitch": 69, "duration": 1, "velocity": 114}, {"time": 946, "pitch": 74, "duration": 1, "velocity": 102}, {"time": 949, "pitch": 74, "duration": 1, "velocity": 102}, {"time": 952, "pitch": 74, "duration": 1, "velocity": 111}, {"time": 955, "pitch": 72, "duration": 1, "velocity": 105}, {"time": 958, "pitch": 69, "duration": 7, "velocity": 111}, {"time": 970, "pitch": 74, "duration": 1, "velocity": 108}, {"time": 973, "pitch": 74, "duration": 1, "velocity": 105}, {"time": 976, "pitch": 74, "duration": 1, "velocity": 105}, {"time": 979, "pitch": 74, "duration": 1, "velocity": 102}, {"time": 982, "pitch": 74, "duration": 4, "velocity": 105}, {"time": 988, "pitch": 72, "duration": 1, "velocity": 114}, {"time": 991, "pitch": 74, "duration": 1, "velocity": 114}, {"time": 994, "pitch": 76, "duration": 1, "velocity": 102}, {"time": 997, "pitch": 79, "duration": 1, "velocity": 105}, {"time": 1000, "pitch": 76, "duration": 1, "velocity": 87}, {"time": 1003, "pitch": 74, "duration": 1, "velocity": 114}, {"time": 1006, "pitch": 76, "duration": 9, "velocity": 111}, {"time": 1018, "pitch": 69, "duration": 1, "velocity": 117}, {"time": 1021, "pitch": 69, "duration": 1, "velocity": 105}, {"time": 1024, "pitch": 69, "duration": 1, "velocity": 111}, {"time": 1027, "pitch": 69, "duration": 1, "velocity": 114}, {"time": 1030, "pitch": 76, "duration": 1, "velocity": 102}, {"time": 1033, "pitch": 76, "duration": 6, "velocity": 114}, {"time": 1042, "pitch": 67, "duration": 1, "velocity": 114}, {"time": 1045, "pitch": 69, "duration": 1, "velocity": 111}, {"time": 1048, "pitch": 67, "duration": 1, "velocity": 114}, {"time": 1051, "pitch": 69, "duration": 1, "velocity": 102}, {"time": 1054, "pitch": 67, "duration": 6, "velocity": 108}, {"time": 1066, "pitch": 67, "duration": 1, "velocity": 111}, {"time": 1069, "pitch": 67, "duration": 1, "velocity": 105}, {"time": 1072, "pitch": 67, "duration": 1, "velocity": 111}, {"time": 1075, "pitch": 69, "duration": 1, "velocity": 111}, {"time": 1078, "pitch": 71, "duration": 1, "velocity": 114}, {"time": 1081, "pitch": 74, "duration": 6, "velocity": 100}, {"time": 1090, "pitch": 67, "duration": 4, "velocity": 111}, {"time": 1096, "pitch": 69, "duration": 1, "velocity": 102}, {"time": 1099, "pitch": 69, "duration": 10, "velocity": 108}, {"time": 1114, "pitch": 72, "duration": 1, "velocity": 108}, {"time": 1117, "pitch": 72, "duration": 1, "velocity": 105}, {"time": 1120, "pitch": 72, "duration": 2, "velocity": 111}, {"time": 1123, "pitch": 71, "duration": 2, "velocity": 105}, {"time": 1126, "pitch": 69, "duration": 7, "velocity": 117}, {"time": 1135, "pitch": 69, "duration": 1, "velocity": 114}, {"time": 1138, "pitch": 74, "duration": 1, "velocity": 102}, {"time": 1141, "pitch": 74, "duration": 1, "velocity": 102}, {"time": 1144, "pitch": 74, "duration": 1, "velocity": 111}, {"time": 1147, "pitch": 72, "duration": 1, "velocity": 105}, {"time": 1150, "pitch": 69, "duration": 7, "velocity": 111}, {"time": 1162, "pitch": 74, "duration": 1, "velocity": 108}, {"time": 1165, "pitch": 74, "duration": 1, "velocity": 105}, {"time": 1168, "pitch": 74, "duration": 1, "velocity": 105}, {"time": 1171, "pitch": 74, "duration": 1, "velocity": 102}, {"time": 1174, "pitch": 74, "duration": 3, "velocity": 105}, {"time": 1177, "pitch": 72, "duration": 1, "velocity": 114}, {"time": 1180, "pitch": 72, "duration": 1, "velocity": 117}, {"time": 1183, "pitch": 74, "duration": 1, "velocity": 111}, {"time": 1186, "pitch": 76, "duration": 4, "velocity": 114}, {"time": 1192, "pitch": 74, "duration": 5, "velocity": 111}, {"time": 1198, "pitch": 71, "duration": 4, "velocity": 114}, {"time": 1204, "pitch": 72, "duration": 5, "velocity": 105}, {"time": 1210, "pitch": 71, "duration": 1, "velocity": 108}, {"time": 1213, "pitch": 69, "duration": 37, "velocity": 111}, {"time": 1399, "pitch": 64, "duration": 3, "velocity": 100}, {"time": 1402, "pitch": 72, "duration": 4, "velocity": 108}, {"time": 1408, "pitch": 71, "duration": 1, "velocity": 105}, {"time": 1411, "pitch": 71, "duration": 2, "velocity": 105}, {"time": 1414, "pitch": 69, "duration": 4, "velocity": 117}, {"time": 1420, "pitch": 71, "duration": 5, "velocity": 114}, {"time": 1426, "pitch": 69, "duration": 15, "velocity": 105}, {"time": 1444, "pitch": 67, "duration": 1, "velocity": 108}, {"time": 1447, "pitch": 69, "duration": 1, "velocity": 114}, {"time": 1450, "pitch": 71, "duration": 4, "velocity": 114}, {"time": 1456, "pitch": 69, "duration": 4, "velocity": 114}, {"time": 1462, "pitch": 67, "duration": 4, "velocity": 111}, {"time": 1468, "pitch": 69, "duration": 5, "velocity": 102}, {"time": 1474, "pitch": 64, "duration": 17, "velocity": 111}, {"time": 1498, "pitch": 62, "duration": 4, "velocity": 117}, {"time": 1504, "pitch": 62, "duration": 3, "velocity": 117}, {"time": 1510, "pitch": 62, "duration": 3, "velocity": 108}, {"time": 1516, "pitch": 62, "duration": 1, "velocity": 111}, {"time": 1519, "pitch": 64, "duration": 1, "velocity": 100}, {"time": 1522, "pitch": 64, "duration": 4, "velocity": 117}, {"time": 1528, "pitch": 62, "duration": 1, "velocity": 108}, {"time": 1531, "pitch": 60, "duration": 7, "velocity": 117}, {"time": 1546, "pitch": 69, "duration": 1, "velocity": 114}, {"time": 1549, "pitch": 69, "duration": 1, "velocity": 108}, {"time": 1552, "pitch": 69, "duration": 1, "velocity": 102}, {"time": 1555, "pitch": 72, "duration": 1, "velocity": 108}, {"time": 1558, "pitch": 71, "duration": 2, "velocity": 120}, {"time": 1561, "pitch": 69, "duration": 1, "velocity": 117}, {"time": 1564, "pitch": 67, "duration": 5, "velocity": 114}, {"time": 1570, "pitch": 69, "duration": 25, "velocity": 108}, {"time": 1642, "pitch": 69, "duration": 1, "velocity": 117}, {"time": 1645, "pitch": 69, "duration": 1, "velocity": 105}, {"time": 1648, "pitch": 69, "duration": 1, "velocity": 111}, {"time": 1651, "pitch": 69, "duration": 1, "velocity": 114}, {"time": 1654, "pitch": 76, "duration": 1, "velocity": 102}, {"time": 1657, "pitch": 76, "duration": 6, "velocity": 114}, {"time": 1666, "pitch": 67, "duration": 1, "velocity": 114}, {"time": 1669, "pitch": 69, "duration": 1, "velocity": 111}, {"time": 1672, "pitch": 67, "duration": 1, "velocity": 114}, {"time": 1675, "pitch": 69, "duration": 1, "velocity": 102}, {"time": 1678, "pitch": 67, "duration": 6, "velocity": 108}, {"time": 1690, "pitch": 67, "duration": 1, "velocity": 111}, {"time": 1693, "pitch": 67, "duration": 1, "velocity": 105}, {"time": 1696, "pitch": 67, "duration": 1, "velocity": 111}, {"time": 1699, "pitch": 69, "duration": 1, "velocity": 111}, {"time": 1702, "pitch": 71, "duration": 1, "velocity": 114}, {"time": 1705, "pitch": 74, "duration": 6, "velocity": 100}, {"time": 1714, "pitch": 67, "duration": 4, "velocity": 111}, {"time": 1720, "pitch": 69, "duration": 1, "velocity": 102}, {"time": 1723, "pitch": 69, "duration": 10, "velocity": 108}, {"time": 1738, "pitch": 72, "duration": 1, "velocity": 108}, {"time": 1741, "pitch": 72, "duration": 1, "velocity": 105}, {"time": 1744, "pitch": 72, "duration": 2, "velocity": 111}, {"time": 1747, "pitch": 71, "duration": 2, "velocity": 105}, {"time": 1750, "pitch": 69, "duration": 7, "velocity": 117}, {"time": 1759, "pitch": 69, "duration": 1, "velocity": 114}, {"time": 1762, "pitch": 74, "duration": 1, "velocity": 102}, {"time": 1765, "pitch": 74, "duration": 1, "velocity": 102}, {"time": 1768, "pitch": 74, "duration": 1, "velocity": 111}, {"time": 1771, "pitch": 72, "duration": 1, "velocity": 105}, {"time": 1774, "pitch": 69, "duration": 7, "velocity": 111}, {"time": 1786, "pitch": 74, "duration": 1, "velocity": 108}, {"time": 1789, "pitch": 74, "duration": 1, "velocity": 105}, {"time": 1792, "pitch": 74, "duration": 1, "velocity": 105}, {"time": 1795, "pitch": 74, "duration": 1, "velocity": 102}, {"time": 1798, "pitch": 74, "duration": 4, "velocity": 105}, {"time": 1804, "pitch": 72, "duration": 1, "velocity": 114}, {"time": 1807, "pitch": 74, "duration": 1, "velocity": 114}, {"time": 1810, "pitch": 76, "duration": 1, "velocity": 102}, {"time": 1813, "pitch": 79, "duration": 1, "velocity": 105}, {"time": 1816, "pitch": 76, "duration": 1, "velocity": 87}, {"time": 1819, "pitch": 74, "duration": 1, "velocity": 114}, {"time": 1822, "pitch": 76, "duration": 9, "velocity": 111}, {"time": 1834, "pitch": 69, "duration": 1, "velocity": 117}, {"time": 1837, "pitch": 69, "duration": 1, "velocity": 105}, {"time": 1840, "pitch": 69, "duration": 1, "velocity": 111}, {"time": 1843, "pitch": 69, "duration": 1, "velocity": 114}, {"time": 1846, "pitch": 76, "duration": 1, "velocity": 102}, {"time": 1849, "pitch": 76, "duration": 6, "velocity": 114}, {"time": 1858, "pitch": 67, "duration": 1, "velocity": 114}, {"time": 1861, "pitch": 69, "duration": 1, "velocity": 111}, {"time": 1864, "pitch": 67, "duration": 1, "velocity": 114}, {"time": 1867, "pitch": 69, "duration": 1, "velocity": 102}, {"time": 1870, "pitch": 67, "duration": 6, "velocity": 108}, {"time": 1882, "pitch": 67, "duration": 1, "velocity": 111}, {"time": 1885, "pitch": 67, "duration": 1, "velocity": 105}, {"time": 1888, "pitch": 67, "duration": 1, "velocity": 111}, {"time": 1891, "pitch": 69, "duration": 1, "velocity": 111}, {"time": 1894, "pitch": 71, "duration": 1, "velocity": 114}, {"time": 1897, "pitch": 74, "duration": 6, "velocity": 100}, {"time": 1906, "pitch": 67, "duration": 4, "velocity": 111}, {"time": 1912, "pitch": 69, "duration": 1, "velocity": 102}, {"time": 1915, "pitch": 69, "duration": 10, "velocity": 108}, {"time": 1930, "pitch": 72, "duration": 1, "velocity": 108}, {"time": 1933, "pitch": 72, "duration": 1, "velocity": 105}, {"time": 1936, "pitch": 72, "duration": 2, "velocity": 111}, {"time": 1939, "pitch": 71, "duration": 2, "velocity": 105}, {"time": 1942, "pitch": 69, "duration": 7, "velocity": 117}, {"time": 1951, "pitch": 69, "duration": 1, "velocity": 114}, {"time": 1954, "pitch": 74, "duration": 1, "velocity": 102}, {"time": 1957, "pitch": 74, "duration": 1, "velocity": 102}, {"time": 1960, "pitch": 74, "duration": 1, "velocity": 111}, {"time": 1963, "pitch": 72, "duration": 1, "velocity": 105}, {"time": 1966, "pitch": 69, "duration": 7, "velocity": 111}, {"time": 1978, "pitch": 74, "duration": 1, "velocity": 108}, {"time": 1981, "pitch": 74, "duration": 1, "velocity": 105}, {"time": 1984, "pitch": 74, "duration": 1, "velocity": 105}, {"time": 1987, "pitch": 74, "duration": 1, "velocity": 102}, {"time": 1990, "pitch": 74, "duration": 3, "velocity": 105}, {"time": 1993, "pitch": 72, "duration": 1, "velocity": 114}, {"time": 1996, "pitch": 72, "duration": 1, "velocity": 117}, {"time": 1999, "pitch": 74, "duration": 1, "velocity": 111}, {"time": 2002, "pitch": 76, "duration": 4, "velocity": 114}, {"time": 2008, "pitch": 74, "duration": 5, "velocity": 111}, {"time": 2014, "pitch": 71, "duration": 4, "velocity": 114}, {"time": 2020, "pitch": 72, "duration": 5, "velocity": 105}, {"time": 2026, "pitch": 71, "duration": 1, "velocity": 108}, {"time": 2029, "pitch": 69, "duration": 37, "velocity": 111}, {"time": 2074, "pitch": 69, "duration": 1, "velocity": 117}, {"time": 2077, "pitch": 69, "duration": 1, "velocity": 105}, {"time": 2080, "pitch": 69, "duration": 1, "velocity": 111}, {"time": 2083, "pitch": 69, "duration": 1, "velocity": 114}, {"time": 2086, "pitch": 76, "duration": 1, "velocity": 102}, {"time": 2089, "pitch": 76, "duration": 6, "velocity": 114}, {"time": 2098, "pitch": 67, "duration": 1, "velocity": 114}, {"time": 2101, "pitch": 69, "duration": 1, "velocity": 111}, {"time": 2104, "pitch": 67, "duration": 1, "velocity": 114}, {"time": 2107, "pitch": 69, "duration": 1, "velocity": 102}, {"time": 2110, "pitch": 67, "duration": 6, "velocity": 108}, {"time": 2122, "pitch": 67, "duration": 1, "velocity": 111}, {"time": 2125, "pitch": 67, "duration": 1, "velocity": 105}, {"time": 2128, "pitch": 67, "duration": 1, "velocity": 111}, {"time": 2131, "pitch": 69, "duration": 1, "velocity": 111}, {"time": 2134, "pitch": 71, "duration": 1, "velocity": 114}, {"time": 2137, "pitch": 74, "duration": 6, "velocity": 100}, {"time": 2146, "pitch": 67, "duration": 4, "velocity": 111}, {"time": 2152, "pitch": 69, "duration": 1, "velocity": 102}, {"time": 2155, "pitch": 69, "duration": 10, "velocity": 108}, {"time": 2170, "pitch": 72, "duration": 1, "velocity": 108}, {"time": 2173, "pitch": 72, "duration": 1, "velocity": 105}, {"time": 2176, "pitch": 72, "duration": 2, "velocity": 111}, {"time": 2179, "pitch": 71, "duration": 2, "velocity": 105}, {"time": 2182, "pitch": 69, "duration": 7, "velocity": 117}, {"time": 2191, "pitch": 69, "duration": 1, "velocity": 114}, {"time": 2194, "pitch": 74, "duration": 1, "velocity": 102}, {"time": 2197, "pitch": 74, "duration": 1, "velocity": 102}, {"time": 2200, "pitch": 74, "duration": 1, "velocity": 111}, {"time": 2203, "pitch": 72, "duration": 1, "velocity": 105}, {"time": 2206, "pitch": 69, "duration": 7, "velocity": 111}, {"time": 2218, "pitch": 74, "duration": 1, "velocity": 108}, {"time": 2221, "pitch": 74, "duration": 1, "velocity": 105}, {"time": 2224, "pitch": 74, "duration": 1, "velocity": 105}, {"time": 2227, "pitch": 74, "duration": 1, "velocity": 102}, {"time": 2230, "pitch": 74, "duration": 4, "velocity": 105}, {"time": 2236, "pitch": 72, "duration": 1, "velocity": 114}, {"time": 2239, "pitch": 74, "duration": 1, "velocity": 114}, {"time": 2242, "pitch": 76, "duration": 1, "velocity": 102}, {"time": 2245, "pitch": 79, "duration": 1, "velocity": 105}, {"time": 2248, "pitch": 76, "duration": 1, "velocity": 87}, {"time": 2251, "pitch": 74, "duration": 1, "velocity": 114}, {"time": 2254, "pitch": 76, "duration": 9, "velocity": 111}, {"time": 2266, "pitch": 69, "duration": 1, "velocity": 117}, {"time": 2269, "pitch": 69, "duration": 1, "velocity": 105}, {"time": 2272, "pitch": 69, "duration": 1, "velocity": 111}, {"time": 2275, "pitch": 69, "duration": 1, "velocity": 114}, {"time": 2278, "pitch": 76, "duration": 1, "velocity": 102}, {"time": 2281, "pitch": 76, "duration": 6, "velocity": 114}, {"time": 2290, "pitch": 67, "duration": 1, "velocity": 114}, {"time": 2293, "pitch": 69, "duration": 1, "velocity": 111}, {"time": 2296, "pitch": 67, "duration": 1, "velocity": 114}, {"time": 2299, "pitch": 69, "duration": 1, "velocity": 102}, {"time": 2302, "pitch": 67, "duration": 6, "velocity": 108}, {"time": 2314, "pitch": 67, "duration": 1, "velocity": 111}, {"time": 2317, "pitch": 67, "duration": 1, "velocity": 105}, {"time": 2320, "pitch": 67, "duration": 1, "velocity": 111}, {"time": 2323, "pitch": 69, "duration": 1, "velocity": 111}, {"time": 2326, "pitch": 71, "duration": 1, "velocity": 114}, {"time": 2329, "pitch": 74, "duration": 6, "velocity": 100}, {"time": 2338, "pitch": 67, "duration": 4, "velocity": 111}, {"time": 2344, "pitch": 69, "duration": 1, "velocity": 102}, {"time": 2347, "pitch": 69, "duration": 10, "velocity": 108}, {"time": 2362, "pitch": 72, "duration": 1, "velocity": 108}, {"time": 2365, "pitch": 72, "duration": 1, "velocity": 105}, {"time": 2368, "pitch": 72, "duration": 2, "velocity": 111}, {"time": 2371, "pitch": 71, "duration": 2, "velocity": 105}, {"time": 2374, "pitch": 69, "duration": 7, "velocity": 117}, {"time": 2383, "pitch": 69, "duration": 1, "velocity": 114}, {"time": 2386, "pitch": 74, "duration": 1, "velocity": 102}, {"time": 2389, "pitch": 74, "duration": 1, "velocity": 102}, {"time": 2392, "pitch": 74, "duration": 1, "velocity": 111}, {"time": 2395, "pitch": 72, "duration": 1, "velocity": 105}, {"time": 2398, "pitch": 69, "duration": 7, "velocity": 111}, {"time": 2410, "pitch": 74, "duration": 1, "velocity": 108}, {"time": 2413, "pitch": 74, "duration": 1, "velocity": 105}, {"time": 2416, "pitch": 74, "duration": 1, "velocity": 105}, {"time": 2419, "pitch": 74, "duration": 1, "velocity": 102}, {"time": 2422, "pitch": 74, "duration": 3, "velocity": 105}, {"time": 2425, "pitch": 72, "duration": 1, "velocity": 114}, {"time": 2428, "pitch": 72, "duration": 1, "velocity": 117}, {"time": 2431, "pitch": 74, "duration": 1, "velocity": 111}, {"time": 2434, "pitch": 76, "duration": 4, "velocity": 114}, {"time": 2440, "pitch": 74, "duration": 5, "velocity": 111}, {"time": 2446, "pitch": 71, "duration": 4, "velocity": 114}, {"time": 2452, "pitch": 72, "duration": 5, "velocity": 105}, {"time": 2458, "pitch": 71, "duration": 1, "velocity": 108}, {"time": 2461, "pitch": 69, "duration": 37, "velocity": 111}]}, {"program": 0, "is_drum": false, "name": "PIANO", "notes": [{"time": 10, "pitch": 45, "duration": 14, "velocity": 94}, {"time": 10, "pitch": 57, "duration": 8, "velocity": 66}, {"time": 10, "pitch": 60, "duration": 13, "velocity": 73}, {"time": 16, "pitch": 52, "duration": 6, "velocity": 50}, {"time": 22, "pitch": 57, "duration": 9, "velocity": 84}, {"time": 28, "pitch": 45, "duration": 20, "velocity": 1}, {"time": 28, "pitch": 52, "duration": 8, "velocity": 38}, {"time": 34, "pitch": 57, "duration": 8, "velocity": 89}, {"time": 34, "pitch": 60, "duration": 7, "velocity": 97}, {"time": 34, "pitch": 64, "duration": 6, "velocity": 94}, {"time": 40, "pitch": 52, "duration": 7, "velocity": 41}, {"time": 46, "pitch": 57, "duration": 6, "velocity": 92}, {"time": 46, "pitch": 60, "duration": 5, "velocity": 94}, {"time": 52, "pitch": 52, "duration": 6, "velocity": 55}, {"time": 58, "pitch": 43, "duration": 25, "velocity": 89}, {"time": 58, "pitch": 55, "duration": 21, "velocity": 71}, {"time": 58, "pitch": 59, "duration": 21, "velocity": 78}, {"time": 64, "pitch": 50, "duration": 7, "velocity": 51}, {"time": 70, "pitch": 62, "duration": 10, "velocity": 84}, {"time": 76, "pitch": 50, "duration": 7, "velocity": 49}, {"time": 82, "pitch": 55, "duration": 6, "velocity": 76}, {"time": 82, "pitch": 59, "duration": 6, "velocity": 92}, {"time": 82, "pitch": 62, "duration": 6, "velocity": 92}, {"time": 88, "pitch": 43, "duration": 15, "velocity": 10}, {"time": 88, "pitch": 50, "duration": 8, "velocity": 41}, {"time": 94, "pitch": 55, "duration": 6, "velocity": 84}, {"time": 94, "pitch": 64, "duration": 6, "velocity": 89}, {"time": 100, "pitch": 50, "duration": 5, "velocity": 53}, {"time": 106, "pitch": 41, "duration": 14, "velocity": 89}, {"time": 106, "pitch": 53, "duration": 21, "velocity": 67}, {"time": 106, "pitch": 57, "duration": 12, "velocity": 87}, {"time": 112, "pitch": 48, "duration": 6, "velocity": 47}, {"time": 118, "pitch": 60, "duration": 7, "velocity": 80}, {"time": 124, "pitch": 48, "duration": 7, "velocity": 46}, {"time": 130, "pitch": 53, "duration": 6, "velocity": 97}, {"time": 130, "pitch": 57, "duration": 6, "velocity": 105}, {"time": 130, "pitch": 64, "duration": 6, "velocity": 84}, {"time": 136, "pitch": 48, "duration": 4, "velocity": 39}, {"time": 142, "pitch": 53, "duration": 5, "velocity": 94}, {"time": 142, "pitch": 57, "duration": 5, "velocity": 100}, {"time": 154, "pitch": 40, "duration": 24, "velocity": 102}, {"time": 154, "pitch": 52, "duration": 8, "velocity": 80}, {"time": 154, "pitch": 56, "duration": 17, "velocity": 24}, {"time": 160, "pitch": 47, "duration": 20, "velocity": 57}, {"time": 166, "pitch": 52, "duration": 7, "velocity": 58}, {"time": 172, "pitch": 44, "duration": 11, "velocity": 24}, {"time": 178, "pitch": 52, "duration": 9, "velocity": 80}, {"time": 178, "pitch": 59, "duration": 10, "velocity": 84}, {"time": 190, "pitch": 52, "duration": 4, "velocity": 73}, {"time": 190, "pitch": 56, "duration": 6, "velocity": 54}, {"time": 202, "pitch": 50, "duration": 42, "velocity": 92}, {"time": 202, "pitch": 62, "duration": 7, "velocity": 66}, {"time": 202, "pitch": 65, "duration": 12, "velocity": 76}, {"time": 208, "pitch": 57, "duration": 6, "velocity": 58}, {"time": 214, "pitch": 62, "duration": 7, "velocity": 80}, {"time": 220, "pitch": 57, "duration": 8, "velocity": 32}, {"time": 226, "pitch": 62, "duration": 7, "velocity": 82}, {"time": 226, "pitch": 69, "duration": 6, "velocity": 89}, {"time": 232, "pitch": 57, "duration": 9, "velocity": 37}, {"time": 238, "pitch": 62, "duration": 6, "velocity": 97}, {"time": 238, "pitch": 65, "duration": 6, "velocity": 100}, {"time": 244, "pitch": 57, "duration": 1, "velocity": 71}, {"time": 250, "pitch": 45, "duration": 38, "velocity": 82}, {"time": 250, "pitch": 57, "duration": 7, "velocity": 45}, {"time": 250, "pitch": 60, "duration": 16, "velocity": 71}, {"time": 256, "pitch": 52, "duration": 7, "velocity": 69}, {"time": 262, "pitch": 57, "duration": 10, "velocity": 97}, {"time": 268, "pitch": 52, "duration": 8, "velocity": 71}, {"time": 274, "pitch": 57, "duration": 9, "velocity": 97}, {"time": 274, "pitch": 64, "duration": 7, "velocity": 92}, {"time": 280, "pitch": 52, "duration": 8, "velocity": 73}, {"time": 286, "pitch": 57, "duration": 4, "velocity": 97}, {"time": 286, "pitch": 60, "duration": 4, "velocity": 97}, {"time": 292, "pitch": 45, "duration": 1, "velocity": 89}, {"time": 298, "pitch": 50, "duration": 14, "velocity": 78}, {"time": 298, "pitch": 62, "duration": 10, "velocity": 82}, {"time": 298, "pitch": 65, "duration": 9, "velocity": 89}, {"time": 304, "pitch": 57, "duration": 7, "velocity": 67}, {"time": 310, "pitch": 65, "duration": 4, "velocity": 89}, {"time": 310, "pitch": 69, "duration": 3, "velocity": 89}, {"time": 322, "pitch": 47, "duration": 13, "velocity": 97}, {"time": 322, "pitch": 59, "duration": 8, "velocity": 73}, {"time": 322, "pitch": 62, "duration": 8, "velocity": 73}, {"time": 328, "pitch": 53, "duration": 8, "velocity": 64}, {"time": 334, "pitch": 59, "duration": 4, "velocity": 97}, {"time": 334, "pitch": 65, "duration": 5, "velocity": 92}, {"time": 340, "pitch": 47, "duration": 1, "velocity": 94}, {"time": 346, "pitch": 52, "duration": 40, "velocity": 105}, {"time": 346, "pitch": 62, "duration": 8, "velocity": 80}, {"time": 346, "pitch": 68, "duration": 17, "velocity": 61}, {"time": 352, "pitch": 59, "duration": 34, "velocity": 80}, {"time": 358, "pitch": 62, "duration": 5, "velocity": 82}, {"time": 364, "pitch": 56, "duration": 8, "velocity": 36}, {"time": 370, "pitch": 64, "duration": 20, "velocity": 84}, {"time": 370, "pitch": 71, "duration": 21, "velocity": 89}, {"time": 394, "pitch": 45, "duration": 23, "velocity": 100}, {"time": 394, "pitch": 57, "duration": 12, "velocity": 69}, {"time": 394, "pitch": 60, "duration": 15, "velocity": 87}, {"time": 406, "pitch": 52, "duration": 8, "velocity": 69}, {"time": 409, "pitch": 57, "duration": 4, "velocity": 80}, {"time": 412, "pitch": 60, "duration": 2, "velocity": 84}, {"time": 418, "pitch": 57, "duration": 8, "velocity": 82}, {"time": 418, "pitch": 60, "duration": 7, "velocity": 78}, {"time": 418, "pitch": 64, "duration": 6, "velocity": 94}, {"time": 424, "pitch": 52, "duration": 10, "velocity": 44}, {"time": 430, "pitch": 57, "duration": 2, "velocity": 84}, {"time": 430, "pitch": 60, "duration": 2, "velocity": 84}, {"time": 442, "pitch": 43, "duration": 14, "velocity": 84}, {"time": 442, "pitch": 55, "duration": 9, "velocity": 73}, {"time": 442, "pitch": 59, "duration": 10, "velocity": 80}, {"time": 448, "pitch": 50, "duration": 8, "velocity": 58}, {"time": 454, "pitch": 55, "duration": 4, "velocity": 80}, {"time": 454, "pitch": 59, "duration": 4, "velocity": 82}, {"time": 466, "pitch": 48, "duration": 16, "velocity": 97}, {"time": 466, "pitch": 60, "duration": 7, "velocity": 67}, {"time": 466, "pitch": 64, "duration": 9, "velocity": 73}, {"time": 472, "pitch": 55, "duration": 7, "velocity": 62}, {"time": 475, "pitch": 60, "duration": 1, "velocity": 78}, {"time": 478, "pitch": 60, "duration": 5, "velocity": 102}, {"time": 478, "pitch": 64, "duration": 5, "velocity": 97}, {"time": 490, "pitch": 50, "duration": 13, "velocity": 100}, {"time": 490, "pitch": 62, "duration": 8, "velocity": 66}, {"time": 490, "pitch": 65, "duration": 8, "velocity": 89}, {"time": 496, "pitch": 57, "duration": 7, "velocity": 53}, {"time": 502, "pitch": 62, "duration": 4, "velocity": 92}, {"time": 502, "pitch": 65, "duration": 10, "velocity": 94}, {"time": 514, "pitch": 45, "duration": 18, "velocity": 82}, {"time": 514, "pitch": 60, "duration": 9, "velocity": 71}, {"time": 514, "pitch": 64, "duration": 12, "velocity": 76}, {"time": 520, "pitch": 52, "duration": 7, "velocity": 51}, {"time": 526, "pitch": 60, "duration": 6, "velocity": 89}, {"time": 529, "pitch": 52, "duration": 5, "velocity": 84}, {"time": 532, "pitch": 57, "duration": 4, "velocity": 71}, {"time": 535, "pitch": 60, "duration": 1, "velocity": 78}, {"time": 538, "pitch": 41, "duration": 8, "velocity": 92}, {"time": 538, "pitch": 53, "duration": 7, "velocity": 94}, {"time": 538, "pitch": 57, "duration": 8, "velocity": 111}, {"time": 544, "pitch": 48, "duration": 4, "velocity": 78}, {"time": 550, "pitch": 43, "duration": 7, "velocity": 89}, {"time": 550, "pitch": 55, "duration": 5, "velocity": 82}, {"time": 550, "pitch": 59, "duration": 6, "velocity": 92}, {"time": 562, "pitch": 45, "duration": 19, "velocity": 64}, {"time": 562, "pitch": 57, "duration": 8, "velocity": 71}, {"time": 562, "pitch": 60, "duration": 7, "velocity": 87}, {"time": 568, "pitch": 52, "duration": 7, "velocity": 57}, {"time": 574, "pitch": 57, "duration": 6, "velocity": 87}, {"time": 574, "pitch": 64, "duration": 5, "velocity": 87}, {"time": 580, "pitch": 60, "duration": 5, "velocity": 69}, {"time": 586, "pitch": 45, "duration": 44, "velocity": 97}, {"time": 586, "pitch": 57, "duration": 10, "velocity": 64}, {"time": 586, "pitch": 60, "duration": 9, "velocity": 84}, {"time": 592, "pitch": 52, "duration": 8, "velocity": 60}, {"time": 598, "pitch": 57, "duration": 7, "velocity": 87}, {"time": 598, "pitch": 64, "duration": 6, "velocity": 89}, {"time": 601, "pitch": 52, "duration": 9, "velocity": 50}, {"time": 610, "pitch": 57, "duration": 8, "velocity": 87}, {"time": 610, "pitch": 60, "duration": 8, "velocity": 92}, {"time": 616, "pitch": 52, "duration": 7, "velocity": 58}, {"time": 622, "pitch": 57, "duration": 3, "velocity": 94}, {"time": 622, "pitch": 64, "duration": 4, "velocity": 89}, {"time": 625, "pitch": 52, "duration": 8, "velocity": 76}, {"time": 628, "pitch": 57, "duration": 3, "velocity": 87}, {"time": 631, "pitch": 60, "duration": 1, "velocity": 80}, {"time": 634, "pitch": 43, "duration": 14, "velocity": 92}, {"time": 634, "pitch": 55, "duration": 9, "velocity": 84}, {"time": 634, "pitch": 59, "duration": 9, "velocity": 62}, {"time": 640, "pitch": 50, "duration": 9, "velocity": 44}, {"time": 646, "pitch": 55, "duration": 10, "velocity": 92}, {"time": 646, "pitch": 59, "duration": 4, "velocity": 94}, {"time": 658, "pitch": 48, "duration": 18, "velocity": 94}, {"time": 658, "pitch": 60, "duration": 5, "velocity": 78}, {"time": 658, "pitch": 64, "duration": 7, "velocity": 87}, {"time": 664, "pitch": 55, "duration": 7, "velocity": 47}, {"time": 670, "pitch": 60, "duration": 4, "velocity": 84}, {"time": 670, "pitch": 64, "duration": 6, "velocity": 94}, {"time": 673, "pitch": 55, "duration": 8, "velocity": 69}, {"time": 676, "pitch": 60, "duration": 4, "velocity": 78}, {"time": 679, "pitch": 64, "duration": 3, "velocity": 78}, {"time": 682, "pitch": 50, "duration": 14, "velocity": 94}, {"time": 682, "pitch": 62, "duration": 9, "velocity": 73}, {"time": 682, "pitch": 65, "duration": 9, "velocity": 92}, {"time": 688, "pitch": 57, "duration": 8, "velocity": 44}, {"time": 694, "pitch": 62, "duration": 5, "velocity": 89}, {"time": 694, "pitch": 65, "duration": 9, "velocity": 97}, {"time": 706, "pitch": 45, "duration": 17, "velocity": 89}, {"time": 706, "pitch": 60, "duration": 7, "velocity": 60}, {"time": 706, "pitch": 64, "duration": 10, "velocity": 78}, {"time": 709, "pitch": 52, "duration": 7, "velocity": 50}, {"time": 718, "pitch": 57, "duration": 3, "velocity": 94}, {"time": 718, "pitch": 60, "duration": 5, "velocity": 97}, {"time": 721, "pitch": 52, "duration": 3, "velocity": 67}, {"time": 724, "pitch": 57, "duration": 4, "velocity": 89}, {"time": 727, "pitch": 60, "duration": 1, "velocity": 76}, {"time": 730, "pitch": 41, "duration": 8, "velocity": 94}, {"time": 730, "pitch": 53, "duration": 8, "velocity": 87}, {"time": 730, "pitch": 57, "duration": 9, "velocity": 105}, {"time": 736, "pitch": 48, "duration": 4, "velocity": 62}, {"time": 742, "pitch": 43, "duration": 7, "velocity": 92}, {"time": 742, "pitch": 55, "duration": 7, "velocity": 76}, {"time": 742, "pitch": 59, "duration": 7, "velocity": 84}, {"time": 754, "pitch": 45, "duration": 16, "velocity": 58}, {"time": 754, "pitch": 57, "duration": 9, "velocity": 73}, {"time": 754, "pitch": 60, "duration": 7, "velocity": 82}, {"time": 760, "pitch": 52, "duration": 6, "velocity": 73}, {"time": 766, "pitch": 57, "duration": 2, "velocity": 71}, {"time": 766, "pitch": 60, "duration": 4, "velocity": 97}, {"time": 766, "pitch": 64, "duration": 5, "velocity": 92}, {"time": 769, "pitch": 52, "duration": 4, "velocity": 82}, {"time": 772, "pitch": 57, "duration": 4, "velocity": 97}, {"time": 772, "pitch": 60, "duration": 1, "velocity": 92}, {"time": 778, "pitch": 41, "duration": 9, "velocity": 100}, {"time": 778, "pitch": 53, "duration": 6, "velocity": 78}, {"time": 778, "pitch": 57, "duration": 7, "velocity": 89}, {"time": 784, "pitch": 48, "duration": 4, "velocity": 67}, {"time": 787, "pitch": 53, "duration": 2, "velocity": 76}, {"time": 790, "pitch": 43, "duration": 10, "velocity": 100}, {"time": 790, "pitch": 55, "duration": 10, "velocity": 84}, {"time": 790, "pitch": 59, "duration": 11, "velocity": 92}, {"time": 802, "pitch": 40, "duration": 21, "velocity": 102}, {"time": 802, "pitch": 52, "duration": 8, "velocity": 73}, {"time": 802, "pitch": 56, "duration": 10, "velocity": 65}, {"time": 808, "pitch": 47, "duration": 7, "velocity": 80}, {"time": 814, "pitch": 52, "duration": 5, "velocity": 87}, {"time": 814, "pitch": 56, "duration": 9, "velocity": 102}, {"time": 814, "pitch": 59, "duration": 8, "velocity": 97}, {"time": 817, "pitch": 44, "duration": 4, "velocity": 52}, {"time": 820, "pitch": 47, "duration": 5, "velocity": 76}, {"time": 823, "pitch": 52, "duration": 2, "velocity": 80}, {"time": 826, "pitch": 45, "duration": 14, "velocity": 100}, {"time": 826, "pitch": 57, "duration": 7, "velocity": 78}, {"time": 826, "pitch": 60, "duration": 7, "velocity": 80}, {"time": 832, "pitch": 52, "duration": 8, "velocity": 69}, {"time": 838, "pitch": 57, "duration": 5, "velocity": 97}, {"time": 838, "pitch": 60, "duration": 5, "velocity": 102}, {"time": 838, "pitch": 64, "duration": 10, "velocity": 94}, {"time": 843, "pitch": 57, "duration": 6, "velocity": 97}, {"time": 844, "pitch": 52, "duration": 4, "velocity": 73}, {"time": 850, "pitch": 40, "duration": 20, "velocity": 97}, {"time": 850, "pitch": 55, "duration": 4, "velocity": 80}, {"time": 850, "pitch": 59, "duration": 8, "velocity": 97}, {"time": 856, "pitch": 55, "duration": 4, "velocity": 64}, {"time": 862, "pitch": 55, "duration": 3, "velocity": 92}, {"time": 862, "pitch": 59, "duration": 7, "velocity": 105}, {"time": 862, "pitch": 64, "duration": 10, "velocity": 97}, {"time": 868, "pitch": 55, "duration": 3, "velocity": 80}, {"time": 874, "pitch": 43, "duration": 14, "velocity": 102}, {"time": 874, "pitch": 55, "duration": 8, "velocity": 78}, {"time": 874, "pitch": 59, "duration": 7, "velocity": 87}, {"time": 880, "pitch": 50, "duration": 7, "velocity": 67}, {"time": 886, "pitch": 55, "duration": 5, "velocity": 87}, {"time": 886, "pitch": 59, "duration": 6, "velocity": 94}, {"time": 886, "pitch": 62, "duration": 6, "velocity": 87}, {"time": 891, "pitch": 43, "duration": 6, "velocity": 102}, {"time": 892, "pitch": 50, "duration": 4, "velocity": 71}, {"time": 895, "pitch": 55, "duration": 1, "velocity": 87}, {"time": 895, "pitch": 59, "duration": 1, "velocity": 33}, {"time": 898, "pitch": 45, "duration": 17, "velocity": 100}, {"time": 898, "pitch": 57, "duration": 8, "velocity": 66}, {"time": 898, "pitch": 60, "duration": 8, "velocity": 97}, {"time": 904, "pitch": 52, "duration": 7, "velocity": 78}, {"time": 910, "pitch": 57, "duration": 2, "velocity": 108}, {"time": 910, "pitch": 64, "duration": 5, "velocity": 102}, {"time": 913, "pitch": 52, "duration": 2, "velocity": 94}, {"time": 916, "pitch": 57, "duration": 4, "velocity": 94}, {"time": 919, "pitch": 60, "duration": 1, "velocity": 80}, {"time": 922, "pitch": 41, "duration": 14, "velocity": 97}, {"time": 922, "pitch": 53, "duration": 8, "velocity": 102}, {"time": 922, "pitch": 57, "duration": 7, "velocity": 97}, {"time": 928, "pitch": 48, "duration": 7, "velocity": 57}, {"time": 934, "pitch": 53, "duration": 4, "velocity": 92}, {"time": 934, "pitch": 57, "duration": 4, "velocity": 111}, {"time": 934, "pitch": 60, "duration": 5, "velocity": 97}, {"time": 940, "pitch": 41, "duration": 1, "velocity": 92}, {"time": 946, "pitch": 38, "duration": 16, "velocity": 97}, {"time": 946, "pitch": 50, "duration": 16, "velocity": 97}, {"time": 946, "pitch": 57, "duration": 3, "velocity": 97}, {"time": 946, "pitch": 62, "duration": 7, "velocity": 89}, {"time": 952, "pitch": 57, "duration": 3, "velocity": 64}, {"time": 958, "pitch": 57, "duration": 2, "velocity": 100}, {"time": 958, "pitch": 62, "duration": 6, "velocity": 97}, {"time": 958, "pitch": 65, "duration": 8, "velocity": 87}, {"time": 964, "pitch": 57, "duration": 4, "velocity": 92}, {"time": 967, "pitch": 62, "duration": 1, "velocity": 60}, {"time": 970, "pitch": 43, "duration": 13, "velocity": 94}, {"time": 970, "pitch": 55, "duration": 9, "velocity": 94}, {"time": 970, "pitch": 59, "duration": 9, "velocity": 102}, {"time": 973, "pitch": 50, "duration": 8, "velocity": 50}, {"time": 982, "pitch": 55, "duration": 6, "velocity": 94}, {"time": 982, "pitch": 59, "duration": 6, "velocity": 108}, {"time": 982, "pitch": 62, "duration": 6, "velocity": 87}, {"time": 988, "pitch": 43, "duration": 2, "velocity": 102}, {"time": 994, "pitch": 40, "duration": 12, "velocity": 100}, {"time": 994, "pitch": 52, "duration": 12, "velocity": 100}, {"time": 994, "pitch": 59, "duration": 3, "velocity": 87}, {"time": 994, "pitch": 64, "duration": 9, "velocity": 92}, {"time": 1000, "pitch": 59, "duration": 4, "velocity": 71}, {"time": 1006, "pitch": 59, "duration": 3, "velocity": 105}, {"time": 1006, "pitch": 64, "duration": 4, "velocity": 105}, {"time": 1006, "pitch": 68, "duration": 7, "velocity": 99}, {"time": 1009, "pitch": 52, "duration": 3, "velocity": 97}, {"time": 1012, "pitch": 59, "duration": 4, "velocity": 100}, {"time": 1015, "pitch": 64, "duration": 1, "velocity": 76}, {"time": 1018, "pitch": 45, "duration": 14, "velocity": 97}, {"time": 1018, "pitch": 57, "duration": 8, "velocity": 100}, {"time": 1018, "pitch": 60, "duration": 8, "velocity": 111}, {"time": 1024, "pitch": 52, "duration": 8, "velocity": 69}, {"time": 1030, "pitch": 57, "duration": 5, "velocity": 105}, {"time": 1030, "pitch": 60, "duration": 5, "velocity": 111}, {"time": 1030, "pitch": 64, "duration": 9, "velocity": 97}, {"time": 1036, "pitch": 45, "duration": 2, "velocity": 100}, {"time": 1042, "pitch": 52, "duration": 18, "velocity": 108}, {"time": 1042, "pitch": 55, "duration": 4, "velocity": 82}, {"time": 1042, "pitch": 59, "duration": 7, "velocity": 92}, {"time": 1042, "pitch": 40, "duration": 19, "velocity": 108}, {"time": 1048, "pitch": 55, "duration": 3, "velocity": 67}, {"time": 1054, "pitch": 55, "duration": 2, "velocity": 94}, {"time": 1054, "pitch": 59, "duration": 7, "velocity": 108}, {"time": 1054, "pitch": 64, "duration": 7, "velocity": 97}, {"time": 1060, "pitch": 55, "duration": 2, "velocity": 76}, {"time": 1066, "pitch": 43, "duration": 19, "velocity": 100}, {"time": 1066, "pitch": 55, "duration": 8, "velocity": 84}, {"time": 1066, "pitch": 59, "duration": 8, "velocity": 97}, {"time": 1072, "pitch": 50, "duration": 7, "velocity": 67}, {"time": 1078, "pitch": 55, "duration": 3, "velocity": 105}, {"time": 1078, "pitch": 62, "duration": 3, "velocity": 97}, {"time": 1081, "pitch": 50, "duration": 7, "velocity": 82}, {"time": 1084, "pitch": 55, "duration": 3, "velocity": 92}, {"time": 1087, "pitch": 59, "duration": 1, "velocity": 105}, {"time": 1090, "pitch": 45, "duration": 19, "velocity": 102}, {"time": 1090, "pitch": 57, "duration": 7, "velocity": 94}, {"time": 1090, "pitch": 60, "duration": 7, "velocity": 92}, {"time": 1093, "pitch": 52, "duration": 6, "velocity": 57}, {"time": 1102, "pitch": 52, "duration": 4, "velocity": 82}, {"time": 1102, "pitch": 57, "duration": 2, "velocity": 94}, {"time": 1102, "pitch": 64, "duration": 8, "velocity": 94}, {"time": 1108, "pitch": 57, "duration": 3, "velocity": 80}, {"time": 1111, "pitch": 60, "duration": 1, "velocity": 76}, {"time": 1114, "pitch": 41, "duration": 14, "velocity": 97}, {"time": 1114, "pitch": 53, "duration": 9, "velocity": 94}, {"time": 1114, "pitch": 57, "duration": 8, "velocity": 102}, {"time": 1117, "pitch": 48, "duration": 7, "velocity": 48}, {"time": 1126, "pitch": 53, "duration": 3, "velocity": 97}, {"time": 1126, "pitch": 57, "duration": 4, "velocity": 111}, {"time": 1126, "pitch": 60, "duration": 4, "velocity": 97}, {"time": 1132, "pitch": 41, "duration": 1, "velocity": 97}, {"time": 1138, "pitch": 50, "duration": 21, "velocity": 97}, {"time": 1138, "pitch": 57, "duration": 3, "velocity": 66}, {"time": 1138, "pitch": 62, "duration": 6, "velocity": 82}, {"time": 1138, "pitch": 38, "duration": 22, "velocity": 97}, {"time": 1144, "pitch": 57, "duration": 3, "velocity": 76}, {"time": 1150, "pitch": 57, "duration": 2, "velocity": 114}, {"time": 1150, "pitch": 62, "duration": 6, "velocity": 111}, {"time": 1150, "pitch": 65, "duration": 9, "velocity": 105}, {"time": 1156, "pitch": 57, "duration": 4, "velocity": 100}, {"time": 1159, "pitch": 62, "duration": 1, "velocity": 47}, {"time": 1162, "pitch": 43, "duration": 13, "velocity": 100}, {"time": 1162, "pitch": 55, "duration": 8, "velocity": 94}, {"time": 1162, "pitch": 59, "duration": 7, "velocity": 105}, {"time": 1168, "pitch": 50, "duration": 8, "velocity": 71}, {"time": 1174, "pitch": 55, "duration": 2, "velocity": 102}, {"time": 1174, "pitch": 59, "duration": 2, "velocity": 111}, {"time": 1174, "pitch": 62, "duration": 2, "velocity": 100}, {"time": 1180, "pitch": 43, "duration": 1, "velocity": 84}, {"time": 1186, "pitch": 52, "duration": 20, "velocity": 92}, {"time": 1186, "pitch": 59, "duration": 3, "velocity": 92}, {"time": 1186, "pitch": 64, "duration": 7, "velocity": 97}, {"time": 1186, "pitch": 40, "duration": 20, "velocity": 92}, {"time": 1192, "pitch": 59, "duration": 2, "velocity": 66}, {"time": 1198, "pitch": 59, "duration": 2, "velocity": 111}, {"time": 1198, "pitch": 68, "duration": 3, "velocity": 109}, {"time": 1201, "pitch": 64, "duration": 2, "velocity": 87}, {"time": 1204, "pitch": 59, "duration": 2, "velocity": 60}, {"time": 1210, "pitch": 45, "duration": 14, "velocity": 97}, {"time": 1210, "pitch": 57, "duration": 7, "velocity": 80}, {"time": 1210, "pitch": 60, "duration": 7, "velocity": 84}, {"time": 1216, "pitch": 52, "duration": 8, "velocity": 80}, {"time": 1222, "pitch": 57, "duration": 6, "velocity": 108}, {"time": 1222, "pitch": 64, "duration": 7, "velocity": 97}, {"time": 1228, "pitch": 45, "duration": 3, "velocity": 97}, {"time": 1231, "pitch": 57, "duration": 1, "velocity": 100}, {"time": 1234, "pitch": 50, "duration": 14, "velocity": 94}, {"time": 1234, "pitch": 57, "duration": 8, "velocity": 92}, {"time": 1234, "pitch": 62, "duration": 8, "velocity": 89}, {"time": 1240, "pitch": 53, "duration": 10, "velocity": 44}, {"time": 1246, "pitch": 57, "duration": 4, "velocity": 100}, {"time": 1246, "pitch": 62, "duration": 9, "velocity": 105}, {"time": 1246, "pitch": 65, "duration": 9, "velocity": 92}, {"time": 1252, "pitch": 50, "duration": 4, "velocity": 78}, {"time": 1255, "pitch": 57, "duration": 2, "velocity": 32}, {"time": 1258, "pitch": 43, "duration": 14, "velocity": 102}, {"time": 1258, "pitch": 55, "duration": 8, "velocity": 89}, {"time": 1258, "pitch": 59, "duration": 8, "velocity": 84}, {"time": 1264, "pitch": 50, "duration": 9, "velocity": 73}, {"time": 1270, "pitch": 55, "duration": 6, "velocity": 87}, {"time": 1270, "pitch": 59, "duration": 6, "velocity": 97}, {"time": 1270, "pitch": 62, "duration": 6, "velocity": 87}, {"time": 1276, "pitch": 43, "duration": 3, "velocity": 100}, {"time": 1282, "pitch": 45, "duration": 14, "velocity": 73}, {"time": 1282, "pitch": 57, "duration": 6, "velocity": 84}, {"time": 1282, "pitch": 60, "duration": 7, "velocity": 89}, {"time": 1288, "pitch": 52, "duration": 7, "velocity": 55}, {"time": 1291, "pitch": 57, "duration": 1, "velocity": 67}, {"time": 1294, "pitch": 57, "duration": 6, "velocity": 97}, {"time": 1294, "pitch": 60, "duration": 6, "velocity": 97}, {"time": 1294, "pitch": 64, "duration": 7, "velocity": 94}, {"time": 1300, "pitch": 45, "duration": 3, "velocity": 105}, {"time": 1303, "pitch": 57, "duration": 1, "velocity": 105}, {"time": 1306, "pitch": 50, "duration": 14, "velocity": 97}, {"time": 1306, "pitch": 57, "duration": 9, "velocity": 100}, {"time": 1306, "pitch": 62, "duration": 9, "velocity": 97}, {"time": 1312, "pitch": 53, "duration": 9, "velocity": 49}, {"time": 1318, "pitch": 57, "duration": 6, "velocity": 108}, {"time": 1318, "pitch": 62, "duration": 8, "velocity": 105}, {"time": 1318, "pitch": 65, "duration": 8, "velocity": 100}, {"time": 1324, "pitch": 50, "duration": 4, "velocity": 87}, {"time": 1330, "pitch": 47, "duration": 16, "velocity": 69}, {"time": 1330, "pitch": 59, "duration": 7, "velocity": 92}, {"time": 1330, "pitch": 62, "duration": 9, "velocity": 89}, {"time": 1336, "pitch": 53, "duration": 7, "velocity": 57}, {"time": 1339, "pitch": 59, "duration": 1, "velocity": 80}, {"time": 1342, "pitch": 59, "duration": 3, "velocity": 114}, {"time": 1342, "pitch": 62, "duration": 6, "velocity": 111}, {"time": 1345, "pitch": 53, "duration": 4, "velocity": 84}, {"time": 1348, "pitch": 59, "duration": 4, "velocity": 94}, {"time": 1351, "pitch": 62, "duration": 2, "velocity": 100}, {"time": 1354, "pitch": 52, "duration": 16, "velocity": 94}, {"time": 1354, "pitch": 59, "duration": 3, "velocity": 97}, {"time": 1354, "pitch": 64, "duration": 6, "velocity": 100}, {"time": 1360, "pitch": 59, "duration": 3, "velocity": 89}, {"time": 1366, "pitch": 59, "duration": 2, "velocity": 94}, {"time": 1366, "pitch": 68, "duration": 10, "velocity": 96}, {"time": 1369, "pitch": 59, "duration": 7, "velocity": 87}, {"time": 1372, "pitch": 64, "duration": 4, "velocity": 66}, {"time": 1378, "pitch": 52, "duration": 22, "velocity": 69}, {"time": 1378, "pitch": 59, "duration": 22, "velocity": 67}, {"time": 1378, "pitch": 64, "duration": 22, "velocity": 76}, {"time": 1402, "pitch": 45, "duration": 44, "velocity": 97}, {"time": 1402, "pitch": 57, "duration": 10, "velocity": 64}, {"time": 1402, "pitch": 60, "duration": 9, "velocity": 84}, {"time": 1408, "pitch": 52, "duration": 8, "velocity": 60}, {"time": 1414, "pitch": 57, "duration": 7, "velocity": 87}, {"time": 1414, "pitch": 64, "duration": 6, "velocity": 89}, {"time": 1417, "pitch": 52, "duration": 9, "velocity": 50}, {"time": 1426, "pitch": 57, "duration": 8, "velocity": 87}, {"time": 1426, "pitch": 60, "duration": 8, "velocity": 92}, {"time": 1432, "pitch": 52, "duration": 7, "velocity": 58}, {"time": 1438, "pitch": 57, "duration": 3, "velocity": 94}, {"time": 1438, "pitch": 64, "duration": 4, "velocity": 89}, {"time": 1441, "pitch": 52, "duration": 8, "velocity": 76}, {"time": 1444, "pitch": 57, "duration": 3, "velocity": 87}, {"time": 1447, "pitch": 60, "duration": 1, "velocity": 80}, {"time": 1450, "pitch": 43, "duration": 14, "velocity": 92}, {"time": 1450, "pitch": 55, "duration": 9, "velocity": 84}, {"time": 1450, "pitch": 59, "duration": 9, "velocity": 62}, {"time": 1456, "pitch": 50, "duration": 9, "velocity": 44}, {"time": 1462, "pitch": 55, "duration": 10, "velocity": 92}, {"time": 1462, "pitch": 59, "duration": 4, "velocity": 94}, {"time": 1474, "pitch": 48, "duration": 18, "velocity": 94}, {"time": 1474, "pitch": 60, "duration": 5, "velocity": 78}, {"time": 1474, "pitch": 64, "duration": 7, "velocity": 87}, {"time": 1480, "pitch": 55, "duration": 7, "velocity": 47}, {"time": 1486, "pitch": 60, "duration": 4, "velocity": 84}, {"time": 1486, "pitch": 64, "duration": 6, "velocity": 94}, {"time": 1489, "pitch": 55, "duration": 8, "velocity": 69}, {"time": 1492, "pitch": 60, "duration": 4, "velocity": 78}, {"time": 1495, "pitch": 64, "duration": 3, "velocity": 78}, {"time": 1498, "pitch": 50, "duration": 14, "velocity": 94}, {"time": 1498, "pitch": 62, "duration": 9, "velocity": 73}, {"time": 1498, "pitch": 65, "duration": 9, "velocity": 92}, {"time": 1504, "pitch": 57, "duration": 8, "velocity": 44}, {"time": 1510, "pitch": 62, "duration": 5, "velocity": 89}, {"time": 1510, "pitch": 65, "duration": 9, "velocity": 97}, {"time": 1522, "pitch": 45, "duration": 17, "velocity": 89}, {"time": 1522, "pitch": 60, "duration": 7, "velocity": 60}, {"time": 1522, "pitch": 64, "duration": 10, "velocity": 78}, {"time": 1525, "pitch": 52, "duration": 7, "velocity": 50}, {"time": 1534, "pitch": 57, "duration": 3, "velocity": 94}, {"time": 1534, "pitch": 60, "duration": 5, "velocity": 97}, {"time": 1537, "pitch": 52, "duration": 3, "velocity": 67}, {"time": 1540, "pitch": 57, "duration": 4, "velocity": 89}, {"time": 1543, "pitch": 60, "duration": 1, "velocity": 76}, {"time": 1546, "pitch": 41, "duration": 8, "velocity": 94}, {"time": 1546, "pitch": 53, "duration": 8, "velocity": 87}, {"time": 1546, "pitch": 57, "duration": 9, "velocity": 105}, {"time": 1552, "pitch": 48, "duration": 4, "velocity": 62}, {"time": 1558, "pitch": 43, "duration": 7, "velocity": 92}, {"time": 1558, "pitch": 55, "duration": 7, "velocity": 76}, {"time": 1558, "pitch": 59, "duration": 7, "velocity": 84}, {"time": 1570, "pitch": 45, "duration": 16, "velocity": 34}, {"time": 1570, "pitch": 57, "duration": 9, "velocity": 73}, {"time": 1570, "pitch": 60, "duration": 7, "velocity": 82}, {"time": 1576, "pitch": 52, "duration": 6, "velocity": 73}, {"time": 1582, "pitch": 57, "duration": 2, "velocity": 71}, {"time": 1582, "pitch": 60, "duration": 4, "velocity": 97}, {"time": 1582, "pitch": 64, "duration": 5, "velocity": 92}, {"time": 1585, "pitch": 52, "duration": 4, "velocity": 82}, {"time": 1588, "pitch": 57, "duration": 4, "velocity": 97}, {"time": 1588, "pitch": 60, "duration": 1, "velocity": 92}, {"time": 1594, "pitch": 41, "duration": 9, "velocity": 100}, {"time": 1594, "pitch": 53, "duration": 6, "velocity": 78}, {"time": 1594, "pitch": 57, "duration": 7, "velocity": 89}, {"time": 1600, "pitch": 48, "duration": 4, "velocity": 67}, {"time": 1603, "pitch": 53, "duration": 2, "velocity": 76}, {"time": 1606, "pitch": 43, "duration": 10, "velocity": 100}, {"time": 1606, "pitch": 55, "duration": 10, "velocity": 84}, {"time": 1606, "pitch": 59, "duration": 11, "velocity": 92}, {"time": 1618, "pitch": 40, "duration": 21, "velocity": 102}, {"time": 1618, "pitch": 52, "duration": 8, "velocity": 73}, {"time": 1618, "pitch": 56, "duration": 10, "velocity": 65}, {"time": 1624, "pitch": 47, "duration": 7, "velocity": 80}, {"time": 1630, "pitch": 52, "duration": 5, "velocity": 87}, {"time": 1630, "pitch": 56, "duration": 9, "velocity": 102}, {"time": 1630, "pitch": 59, "duration": 8, "velocity": 97}, {"time": 1633, "pitch": 44, "duration": 4, "velocity": 52}, {"time": 1636, "pitch": 47, "duration": 5, "velocity": 76}, {"time": 1639, "pitch": 52, "duration": 2, "velocity": 80}, {"time": 1642, "pitch": 45, "duration": 14, "velocity": 100}, {"time": 1642, "pitch": 57, "duration": 7, "velocity": 78}, {"time": 1642, "pitch": 60, "duration": 7, "velocity": 80}, {"time": 1648, "pitch": 52, "duration": 8, "velocity": 69}, {"time": 1654, "pitch": 57, "duration": 5, "velocity": 97}, {"time": 1654, "pitch": 60, "duration": 5, "velocity": 102}, {"time": 1654, "pitch": 64, "duration": 10, "velocity": 94}, {"time": 1660, "pitch": 52, "duration": 4, "velocity": 73}, {"time": 1666, "pitch": 52, "duration": 20, "velocity": 97}, {"time": 1666, "pitch": 55, "duration": 4, "velocity": 80}, {"time": 1666, "pitch": 59, "duration": 8, "velocity": 97}, {"time": 1666, "pitch": 40, "duration": 20, "velocity": 97}, {"time": 1672, "pitch": 55, "duration": 4, "velocity": 64}, {"time": 1678, "pitch": 55, "duration": 3, "velocity": 92}, {"time": 1678, "pitch": 59, "duration": 7, "velocity": 105}, {"time": 1678, "pitch": 64, "duration": 10, "velocity": 97}, {"time": 1684, "pitch": 55, "duration": 3, "velocity": 80}, {"time": 1690, "pitch": 43, "duration": 14, "velocity": 102}, {"time": 1690, "pitch": 55, "duration": 8, "velocity": 78}, {"time": 1690, "pitch": 59, "duration": 7, "velocity": 87}, {"time": 1696, "pitch": 50, "duration": 7, "velocity": 67}, {"time": 1702, "pitch": 55, "duration": 5, "velocity": 87}, {"time": 1702, "pitch": 59, "duration": 6, "velocity": 94}, {"time": 1702, "pitch": 62, "duration": 6, "velocity": 87}, {"time": 1708, "pitch": 50, "duration": 4, "velocity": 71}, {"time": 1711, "pitch": 55, "duration": 1, "velocity": 87}, {"time": 1711, "pitch": 59, "duration": 1, "velocity": 33}, {"time": 1714, "pitch": 45, "duration": 17, "velocity": 100}, {"time": 1714, "pitch": 57, "duration": 8, "velocity": 66}, {"time": 1714, "pitch": 60, "duration": 8, "velocity": 97}, {"time": 1720, "pitch": 52, "duration": 7, "velocity": 78}, {"time": 1726, "pitch": 57, "duration": 2, "velocity": 108}, {"time": 1726, "pitch": 64, "duration": 5, "velocity": 102}, {"time": 1729, "pitch": 52, "duration": 2, "velocity": 94}, {"time": 1732, "pitch": 57, "duration": 4, "velocity": 94}, {"time": 1735, "pitch": 60, "duration": 1, "velocity": 80}, {"time": 1738, "pitch": 41, "duration": 14, "velocity": 97}, {"time": 1738, "pitch": 53, "duration": 8, "velocity": 102}, {"time": 1738, "pitch": 57, "duration": 7, "velocity": 97}, {"time": 1744, "pitch": 48, "duration": 7, "velocity": 57}, {"time": 1750, "pitch": 53, "duration": 4, "velocity": 92}, {"time": 1750, "pitch": 57, "duration": 4, "velocity": 111}, {"time": 1750, "pitch": 60, "duration": 5, "velocity": 97}, {"time": 1756, "pitch": 41, "duration": 1, "velocity": 92}, {"time": 1762, "pitch": 50, "duration": 16, "velocity": 97}, {"time": 1762, "pitch": 57, "duration": 3, "velocity": 97}, {"time": 1762, "pitch": 62, "duration": 7, "velocity": 89}, {"time": 1762, "pitch": 38, "duration": 16, "velocity": 97}, {"time": 1768, "pitch": 57, "duration": 3, "velocity": 64}, {"time": 1774, "pitch": 57, "duration": 2, "velocity": 100}, {"time": 1774, "pitch": 62, "duration": 6, "velocity": 97}, {"time": 1774, "pitch": 65, "duration": 8, "velocity": 87}, {"time": 1780, "pitch": 57, "duration": 4, "velocity": 92}, {"time": 1783, "pitch": 62, "duration": 1, "velocity": 60}, {"time": 1786, "pitch": 43, "duration": 13, "velocity": 94}, {"time": 1786, "pitch": 55, "duration": 9, "velocity": 94}, {"time": 1786, "pitch": 59, "duration": 9, "velocity": 102}, {"time": 1789, "pitch": 50, "duration": 8, "velocity": 50}, {"time": 1798, "pitch": 55, "duration": 6, "velocity": 94}, {"time": 1798, "pitch": 59, "duration": 6, "velocity": 108}, {"time": 1798, "pitch": 62, "duration": 6, "velocity": 87}, {"time": 1804, "pitch": 43, "duration": 2, "velocity": 102}, {"time": 1810, "pitch": 52, "duration": 12, "velocity": 100}, {"time": 1810, "pitch": 59, "duration": 3, "velocity": 87}, {"time": 1810, "pitch": 64, "duration": 9, "velocity": 92}, {"time": 1810, "pitch": 40, "duration": 13, "velocity": 100}, {"time": 1816, "pitch": 59, "duration": 4, "velocity": 71}, {"time": 1822, "pitch": 59, "duration": 3, "velocity": 105}, {"time": 1822, "pitch": 64, "duration": 4, "velocity": 105}, {"time": 1822, "pitch": 68, "duration": 7, "velocity": 99}, {"time": 1825, "pitch": 52, "duration": 3, "velocity": 97}, {"time": 1828, "pitch": 59, "duration": 4, "velocity": 100}, {"time": 1831, "pitch": 64, "duration": 1, "velocity": 76}, {"time": 1834, "pitch": 45, "duration": 14, "velocity": 97}, {"time": 1834, "pitch": 57, "duration": 8, "velocity": 100}, {"time": 1834, "pitch": 60, "duration": 8, "velocity": 111}, {"time": 1840, "pitch": 52, "duration": 8, "velocity": 69}, {"time": 1846, "pitch": 57, "duration": 5, "velocity": 105}, {"time": 1846, "pitch": 60, "duration": 5, "velocity": 111}, {"time": 1846, "pitch": 64, "duration": 9, "velocity": 97}, {"time": 1852, "pitch": 45, "duration": 2, "velocity": 100}, {"time": 1858, "pitch": 52, "duration": 18, "velocity": 108}, {"time": 1858, "pitch": 55, "duration": 4, "velocity": 82}, {"time": 1858, "pitch": 59, "duration": 7, "velocity": 92}, {"time": 1858, "pitch": 40, "duration": 18, "velocity": 108}, {"time": 1864, "pitch": 55, "duration": 3, "velocity": 67}, {"time": 1870, "pitch": 55, "duration": 2, "velocity": 94}, {"time": 1870, "pitch": 59, "duration": 7, "velocity": 108}, {"time": 1870, "pitch": 64, "duration": 7, "velocity": 97}, {"time": 1876, "pitch": 55, "duration": 2, "velocity": 76}, {"time": 1882, "pitch": 43, "duration": 19, "velocity": 100}, {"time": 1882, "pitch": 55, "duration": 8, "velocity": 84}, {"time": 1882, "pitch": 59, "duration": 8, "velocity": 97}, {"time": 1888, "pitch": 50, "duration": 7, "velocity": 67}, {"time": 1894, "pitch": 55, "duration": 3, "velocity": 105}, {"time": 1894, "pitch": 62, "duration": 3, "velocity": 97}, {"time": 1897, "pitch": 50, "duration": 7, "velocity": 82}, {"time": 1900, "pitch": 55, "duration": 3, "velocity": 92}, {"time": 1903, "pitch": 59, "duration": 1, "velocity": 105}, {"time": 1906, "pitch": 45, "duration": 19, "velocity": 102}, {"time": 1906, "pitch": 57, "duration": 7, "velocity": 94}, {"time": 1906, "pitch": 60, "duration": 7, "velocity": 92}, {"time": 1909, "pitch": 52, "duration": 6, "velocity": 57}, {"time": 1918, "pitch": 52, "duration": 4, "velocity": 82}, {"time": 1918, "pitch": 57, "duration": 2, "velocity": 94}, {"time": 1918, "pitch": 64, "duration": 8, "velocity": 94}, {"time": 1924, "pitch": 57, "duration": 3, "velocity": 80}, {"time": 1927, "pitch": 60, "duration": 1, "velocity": 76}, {"time": 1930, "pitch": 41, "duration": 14, "velocity": 97}, {"time": 1930, "pitch": 53, "duration": 9, "velocity": 94}, {"time": 1930, "pitch": 57, "duration": 8, "velocity": 102}, {"time": 1933, "pitch": 48, "duration": 7, "velocity": 48}, {"time": 1942, "pitch": 53, "duration": 3, "velocity": 97}, {"time": 1942, "pitch": 57, "duration": 4, "velocity": 111}, {"time": 1942, "pitch": 60, "duration": 4, "velocity": 97}, {"time": 1948, "pitch": 41, "duration": 1, "velocity": 97}, {"time": 1954, "pitch": 38, "duration": 21, "velocity": 97}, {"time": 1954, "pitch": 50, "duration": 21, "velocity": 97}, {"time": 1954, "pitch": 57, "duration": 3, "velocity": 66}, {"time": 1954, "pitch": 62, "duration": 6, "velocity": 82}, {"time": 1960, "pitch": 57, "duration": 3, "velocity": 76}, {"time": 1966, "pitch": 57, "duration": 2, "velocity": 114}, {"time": 1966, "pitch": 62, "duration": 6, "velocity": 111}, {"time": 1966, "pitch": 65, "duration": 9, "velocity": 105}, {"time": 1972, "pitch": 57, "duration": 4, "velocity": 100}, {"time": 1975, "pitch": 62, "duration": 1, "velocity": 47}, {"time": 1978, "pitch": 43, "duration": 13, "velocity": 100}, {"time": 1978, "pitch": 55, "duration": 8, "velocity": 94}, {"time": 1978, "pitch": 59, "duration": 7, "velocity": 105}, {"time": 1984, "pitch": 50, "duration": 8, "velocity": 71}, {"time": 1990, "pitch": 55, "duration": 2, "velocity": 102}, {"time": 1990, "pitch": 59, "duration": 2, "velocity": 111}, {"time": 1990, "pitch": 62, "duration": 2, "velocity": 100}, {"time": 1996, "pitch": 43, "duration": 1, "velocity": 84}, {"time": 2002, "pitch": 52, "duration": 20, "velocity": 92}, {"time": 2002, "pitch": 59, "duration": 3, "velocity": 92}, {"time": 2002, "pitch": 64, "duration": 7, "velocity": 97}, {"time": 2002, "pitch": 40, "duration": 20, "velocity": 92}, {"time": 2008, "pitch": 59, "duration": 2, "velocity": 66}, {"time": 2014, "pitch": 59, "duration": 2, "velocity": 111}, {"time": 2014, "pitch": 68, "duration": 3, "velocity": 109}, {"time": 2017, "pitch": 64, "duration": 2, "velocity": 87}, {"time": 2020, "pitch": 59, "duration": 2, "velocity": 60}, {"time": 2026, "pitch": 45, "duration": 7, "velocity": 105}, {"time": 2026, "pitch": 57, "duration": 3, "velocity": 100}, {"time": 2026, "pitch": 60, "duration": 6, "velocity": 111}, {"time": 2029, "pitch": 52, "duration": 4, "velocity": 76}, {"time": 2032, "pitch": 57, "duration": 1, "velocity": 111}, {"time": 2035, "pitch": 47, "duration": 7, "velocity": 108}, {"time": 2035, "pitch": 59, "duration": 8, "velocity": 117}, {"time": 2044, "pitch": 48, "duration": 4, "velocity": 82}, {"time": 2044, "pitch": 60, "duration": 4, "velocity": 97}, {"time": 2050, "pitch": 41, "duration": 9, "velocity": 108}, {"time": 2050, "pitch": 53, "duration": 9, "velocity": 94}, {"time": 2050, "pitch": 57, "duration": 9, "velocity": 105}, {"time": 2062, "pitch": 40, "duration": 12, "velocity": 100}, {"time": 2062, "pitch": 52, "duration": 11, "velocity": 102}, {"time": 2062, "pitch": 56, "duration": 11, "velocity": 109}, {"time": 2074, "pitch": 45, "duration": 14, "velocity": 100}, {"time": 2074, "pitch": 57, "duration": 7, "velocity": 78}, {"time": 2074, "pitch": 60, "duration": 7, "velocity": 80}, {"time": 2080, "pitch": 52, "duration": 8, "velocity": 69}, {"time": 2086, "pitch": 57, "duration": 5, "velocity": 97}, {"time": 2086, "pitch": 60, "duration": 5, "velocity": 102}, {"time": 2086, "pitch": 64, "duration": 10, "velocity": 94}, {"time": 2092, "pitch": 52, "duration": 4, "velocity": 73}, {"time": 2098, "pitch": 40, "duration": 20, "velocity": 97}, {"time": 2098, "pitch": 52, "duration": 20, "velocity": 97}, {"time": 2098, "pitch": 55, "duration": 4, "velocity": 80}, {"time": 2098, "pitch": 59, "duration": 8, "velocity": 97}, {"time": 2104, "pitch": 55, "duration": 4, "velocity": 64}, {"time": 2110, "pitch": 55, "duration": 3, "velocity": 92}, {"time": 2110, "pitch": 59, "duration": 7, "velocity": 105}, {"time": 2110, "pitch": 64, "duration": 10, "velocity": 97}, {"time": 2116, "pitch": 55, "duration": 3, "velocity": 80}, {"time": 2122, "pitch": 43, "duration": 14, "velocity": 102}, {"time": 2122, "pitch": 55, "duration": 8, "velocity": 78}, {"time": 2122, "pitch": 59, "duration": 7, "velocity": 87}, {"time": 2128, "pitch": 50, "duration": 7, "velocity": 67}, {"time": 2134, "pitch": 55, "duration": 5, "velocity": 87}, {"time": 2134, "pitch": 59, "duration": 6, "velocity": 94}, {"time": 2134, "pitch": 62, "duration": 6, "velocity": 87}, {"time": 2140, "pitch": 50, "duration": 4, "velocity": 71}, {"time": 2143, "pitch": 55, "duration": 1, "velocity": 87}, {"time": 2143, "pitch": 59, "duration": 1, "velocity": 33}, {"time": 2146, "pitch": 45, "duration": 17, "velocity": 100}, {"time": 2146, "pitch": 57, "duration": 8, "velocity": 66}, {"time": 2146, "pitch": 60, "duration": 8, "velocity": 97}, {"time": 2152, "pitch": 52, "duration": 7, "velocity": 78}, {"time": 2158, "pitch": 57, "duration": 2, "velocity": 108}, {"time": 2158, "pitch": 64, "duration": 5, "velocity": 102}, {"time": 2161, "pitch": 52, "duration": 2, "velocity": 94}, {"time": 2164, "pitch": 57, "duration": 4, "velocity": 94}, {"time": 2167, "pitch": 60, "duration": 1, "velocity": 80}, {"time": 2170, "pitch": 41, "duration": 14, "velocity": 97}, {"time": 2170, "pitch": 53, "duration": 8, "velocity": 102}, {"time": 2170, "pitch": 57, "duration": 7, "velocity": 97}, {"time": 2176, "pitch": 48, "duration": 7, "velocity": 57}, {"time": 2182, "pitch": 53, "duration": 4, "velocity": 92}, {"time": 2182, "pitch": 57, "duration": 4, "velocity": 111}, {"time": 2182, "pitch": 60, "duration": 5, "velocity": 97}, {"time": 2188, "pitch": 41, "duration": 1, "velocity": 92}, {"time": 2193, "pitch": 38, "duration": 16, "velocity": 97}, {"time": 2194, "pitch": 50, "duration": 16, "velocity": 97}, {"time": 2194, "pitch": 57, "duration": 3, "velocity": 97}, {"time": 2194, "pitch": 62, "duration": 7, "velocity": 89}, {"time": 2200, "pitch": 57, "duration": 3, "velocity": 64}, {"time": 2206, "pitch": 57, "duration": 2, "velocity": 100}, {"time": 2206, "pitch": 62, "duration": 6, "velocity": 97}, {"time": 2206, "pitch": 65, "duration": 8, "velocity": 87}, {"time": 2212, "pitch": 57, "duration": 4, "velocity": 92}, {"time": 2215, "pitch": 62, "duration": 1, "velocity": 60}, {"time": 2218, "pitch": 43, "duration": 13, "velocity": 94}, {"time": 2218, "pitch": 55, "duration": 9, "velocity": 94}, {"time": 2218, "pitch": 59, "duration": 9, "velocity": 102}, {"time": 2221, "pitch": 50, "duration": 8, "velocity": 50}, {"time": 2230, "pitch": 55, "duration": 6, "velocity": 94}, {"time": 2230, "pitch": 59, "duration": 6, "velocity": 108}, {"time": 2230, "pitch": 62, "duration": 6, "velocity": 87}, {"time": 2236, "pitch": 43, "duration": 2, "velocity": 102}, {"time": 2242, "pitch": 52, "duration": 12, "velocity": 100}, {"time": 2242, "pitch": 59, "duration": 3, "velocity": 87}, {"time": 2242, "pitch": 64, "duration": 9, "velocity": 92}, {"time": 2242, "pitch": 40, "duration": 13, "velocity": 100}, {"time": 2248, "pitch": 59, "duration": 4, "velocity": 71}, {"time": 2254, "pitch": 59, "duration": 3, "velocity": 105}, {"time": 2254, "pitch": 64, "duration": 4, "velocity": 105}, {"time": 2254, "pitch": 68, "duration": 7, "velocity": 99}, {"time": 2257, "pitch": 52, "duration": 3, "velocity": 97}, {"time": 2260, "pitch": 59, "duration": 4, "velocity": 100}, {"time": 2263, "pitch": 64, "duration": 1, "velocity": 76}, {"time": 2266, "pitch": 45, "duration": 14, "velocity": 97}, {"time": 2266, "pitch": 57, "duration": 8, "velocity": 100}, {"time": 2266, "pitch": 60, "duration": 8, "velocity": 111}, {"time": 2272, "pitch": 52, "duration": 8, "velocity": 69}, {"time": 2278, "pitch": 57, "duration": 5, "velocity": 105}, {"time": 2278, "pitch": 60, "duration": 5, "velocity": 111}, {"time": 2278, "pitch": 64, "duration": 9, "velocity": 97}, {"time": 2284, "pitch": 45, "duration": 2, "velocity": 100}, {"time": 2290, "pitch": 52, "duration": 18, "velocity": 108}, {"time": 2290, "pitch": 55, "duration": 4, "velocity": 82}, {"time": 2290, "pitch": 59, "duration": 7, "velocity": 92}, {"time": 2296, "pitch": 55, "duration": 3, "velocity": 67}, {"time": 2302, "pitch": 55, "duration": 2, "velocity": 94}, {"time": 2302, "pitch": 59, "duration": 7, "velocity": 108}, {"time": 2302, "pitch": 64, "duration": 7, "velocity": 97}, {"time": 2308, "pitch": 55, "duration": 2, "velocity": 76}, {"time": 2314, "pitch": 43, "duration": 19, "velocity": 100}, {"time": 2314, "pitch": 55, "duration": 8, "velocity": 84}, {"time": 2314, "pitch": 59, "duration": 8, "velocity": 97}, {"time": 2320, "pitch": 50, "duration": 7, "velocity": 67}, {"time": 2326, "pitch": 55, "duration": 3, "velocity": 105}, {"time": 2326, "pitch": 62, "duration": 3, "velocity": 97}, {"time": 2329, "pitch": 50, "duration": 7, "velocity": 82}, {"time": 2332, "pitch": 55, "duration": 3, "velocity": 92}, {"time": 2335, "pitch": 59, "duration": 1, "velocity": 105}, {"time": 2338, "pitch": 45, "duration": 19, "velocity": 102}, {"time": 2338, "pitch": 57, "duration": 7, "velocity": 94}, {"time": 2338, "pitch": 60, "duration": 7, "velocity": 92}, {"time": 2341, "pitch": 52, "duration": 6, "velocity": 57}, {"time": 2350, "pitch": 52, "duration": 4, "velocity": 82}, {"time": 2350, "pitch": 57, "duration": 2, "velocity": 94}, {"time": 2350, "pitch": 64, "duration": 8, "velocity": 94}, {"time": 2356, "pitch": 57, "duration": 3, "velocity": 80}, {"time": 2359, "pitch": 60, "duration": 1, "velocity": 76}, {"time": 2362, "pitch": 41, "duration": 14, "velocity": 97}, {"time": 2362, "pitch": 53, "duration": 9, "velocity": 94}, {"time": 2362, "pitch": 57, "duration": 8, "velocity": 102}, {"time": 2365, "pitch": 48, "duration": 7, "velocity": 48}, {"time": 2374, "pitch": 53, "duration": 3, "velocity": 97}, {"time": 2374, "pitch": 57, "duration": 4, "velocity": 111}, {"time": 2374, "pitch": 60, "duration": 4, "velocity": 97}, {"time": 2380, "pitch": 41, "duration": 1, "velocity": 97}, {"time": 2385, "pitch": 38, "duration": 22, "velocity": 97}, {"time": 2386, "pitch": 50, "duration": 21, "velocity": 97}, {"time": 2386, "pitch": 57, "duration": 3, "velocity": 66}, {"time": 2386, "pitch": 62, "duration": 6, "velocity": 82}, {"time": 2392, "pitch": 57, "duration": 3, "velocity": 76}, {"time": 2398, "pitch": 57, "duration": 2, "velocity": 114}, {"time": 2398, "pitch": 62, "duration": 6, "velocity": 111}, {"time": 2398, "pitch": 65, "duration": 9, "velocity": 105}, {"time": 2404, "pitch": 57, "duration": 4, "velocity": 100}, {"time": 2407, "pitch": 62, "duration": 1, "velocity": 47}, {"time": 2410, "pitch": 43, "duration": 13, "velocity": 100}, {"time": 2410, "pitch": 55, "duration": 8, "velocity": 94}, {"time": 2410, "pitch": 59, "duration": 7, "velocity": 105}, {"time": 2416, "pitch": 50, "duration": 8, "velocity": 71}, {"time": 2422, "pitch": 55, "duration": 2, "velocity": 102}, {"time": 2422, "pitch": 59, "duration": 2, "velocity": 111}, {"time": 2422, "pitch": 62, "duration": 2, "velocity": 100}, {"time": 2428, "pitch": 43, "duration": 1, "velocity": 84}, {"time": 2434, "pitch": 40, "duration": 20, "velocity": 92}, {"time": 2434, "pitch": 52, "duration": 20, "velocity": 92}, {"time": 2434, "pitch": 59, "duration": 3, "velocity": 92}, {"time": 2434, "pitch": 64, "duration": 7, "velocity": 97}, {"time": 2440, "pitch": 59, "duration": 2, "velocity": 66}, {"time": 2446, "pitch": 59, "duration": 2, "velocity": 111}, {"time": 2446, "pitch": 68, "duration": 3, "velocity": 109}, {"time": 2449, "pitch": 64, "duration": 2, "velocity": 87}, {"time": 2452, "pitch": 59, "duration": 2, "velocity": 60}, {"time": 2458, "pitch": 45, "duration": 14, "velocity": 97}, {"time": 2458, "pitch": 57, "duration": 7, "velocity": 80}, {"time": 2458, "pitch": 60, "duration": 7, "velocity": 84}, {"time": 2464, "pitch": 52, "duration": 8, "velocity": 80}, {"time": 2470, "pitch": 57, "duration": 6, "velocity": 108}, {"time": 2470, "pitch": 64, "duration": 7, "velocity": 97}, {"time": 2476, "pitch": 45, "duration": 3, "velocity": 97}, {"time": 2479, "pitch": 57, "duration": 1, "velocity": 100}, {"time": 2482, "pitch": 50, "duration": 14, "velocity": 94}, {"time": 2482, "pitch": 57, "duration": 8, "velocity": 92}, {"time": 2482, "pitch": 62, "duration": 8, "velocity": 89}, {"time": 2488, "pitch": 53, "duration": 10, "velocity": 44}, {"time": 2494, "pitch": 57, "duration": 4, "velocity": 100}, {"time": 2494, "pitch": 62, "duration": 9, "velocity": 105}, {"time": 2494, "pitch": 65, "duration": 9, "velocity": 92}, {"time": 2500, "pitch": 50, "duration": 4, "velocity": 78}, {"time": 2503, "pitch": 57, "duration": 2, "velocity": 32}, {"time": 2506, "pitch": 43, "duration": 14, "velocity": 102}, {"time": 2506, "pitch": 55, "duration": 8, "velocity": 89}, {"time": 2506, "pitch": 59, "duration": 8, "velocity": 84}, {"time": 2512, "pitch": 50, "duration": 9, "velocity": 73}, {"time": 2518, "pitch": 55, "duration": 6, "velocity": 87}, {"time": 2518, "pitch": 59, "duration": 6, "velocity": 97}, {"time": 2518, "pitch": 62, "duration": 6, "velocity": 87}, {"time": 2524, "pitch": 43, "duration": 3, "velocity": 100}, {"time": 2530, "pitch": 45, "duration": 14, "velocity": 73}, {"time": 2530, "pitch": 57, "duration": 6, "velocity": 84}, {"time": 2530, "pitch": 60, "duration": 7, "velocity": 89}, {"time": 2536, "pitch": 52, "duration": 7, "velocity": 55}, {"time": 2539, "pitch": 57, "duration": 1, "velocity": 67}, {"time": 2542, "pitch": 57, "duration": 6, "velocity": 97}, {"time": 2542, "pitch": 60, "duration": 6, "velocity": 97}, {"time": 2542, "pitch": 64, "duration": 7, "velocity": 94}, {"time": 2548, "pitch": 45, "duration": 3, "velocity": 105}, {"time": 2551, "pitch": 57, "duration": 1, "velocity": 105}, {"time": 2553, "pitch": 38, "duration": 15, "velocity": 97}, {"time": 2554, "pitch": 50, "duration": 14, "velocity": 97}, {"time": 2554, "pitch": 57, "duration": 9, "velocity": 100}, {"time": 2554, "pitch": 62, "duration": 9, "velocity": 97}, {"time": 2560, "pitch": 53, "duration": 9, "velocity": 49}, {"time": 2566, "pitch": 57, "duration": 6, "velocity": 108}, {"time": 2566, "pitch": 62, "duration": 8, "velocity": 105}, {"time": 2566, "pitch": 65, "duration": 8, "velocity": 100}, {"time": 2572, "pitch": 50, "duration": 4, "velocity": 87}, {"time": 2578, "pitch": 47, "duration": 16, "velocity": 69}, {"time": 2578, "pitch": 59, "duration": 7, "velocity": 92}, {"time": 2578, "pitch": 62, "duration": 9, "velocity": 89}, {"time": 2584, "pitch": 53, "duration": 7, "velocity": 57}, {"time": 2587, "pitch": 59, "duration": 1, "velocity": 80}, {"time": 2590, "pitch": 59, "duration": 3, "velocity": 114}, {"time": 2590, "pitch": 62, "duration": 6, "velocity": 111}, {"time": 2593, "pitch": 53, "duration": 4, "velocity": 84}, {"time": 2596, "pitch": 59, "duration": 4, "velocity": 94}, {"time": 2599, "pitch": 62, "duration": 2, "velocity": 100}, {"time": 2602, "pitch": 52, "duration": 16, "velocity": 94}, {"time": 2602, "pitch": 59, "duration": 3, "velocity": 97}, {"time": 2602, "pitch": 64, "duration": 6, "velocity": 100}, {"time": 2602, "pitch": 40, "duration": 16, "velocity": 94}, {"time": 2608, "pitch": 59, "duration": 3, "velocity": 89}, {"time": 2614, "pitch": 59, "duration": 2, "velocity": 94}, {"time": 2614, "pitch": 68, "duration": 10, "velocity": 96}, {"time": 2617, "pitch": 59, "duration": 7, "velocity": 87}, {"time": 2620, "pitch": 64, "duration": 4, "velocity": 66}, {"time": 2626, "pitch": 52, "duration": 22, "velocity": 69}, {"time": 2626, "pitch": 59, "duration": 22, "velocity": 67}, {"time": 2626, "pitch": 64, "duration": 22, "velocity": 76}, {"time": 2649, "pitch": 45, "duration": 28, "velocity": 78}, {"time": 2652, "pitch": 52, "duration": 17, "velocity": 78}, {"time": 2654, "pitch": 57, "duration": 3, "velocity": 82}, {"time": 2656, "pitch": 59, "duration": 2, "velocity": 80}, {"time": 2659, "pitch": 60, "duration": 3, "velocity": 80}, {"time": 2662, "pitch": 64, "duration": 4, "velocity": 92}, {"time": 2665, "pitch": 69, "duration": 13, "velocity": 87}, {"time": 2668, "pitch": 60, "duration": 11, "velocity": 69}, {"time": 2672, "pitch": 52, "duration": 8, "velocity": 37}], "annotations": [{"time": 17, "annotation": {"number": 64, "value": 127}, "group": "control_change"}, {"time": 57, "annotation": {"number": 64, "value": 0}, "group": "control_change"}, {"time": 76, "annotation": {"number": 64, "value": 127}, "group": "control_change"}, {"time": 95, "annotation": {"number": 64, "value": 0}, "group": "control_change"}, {"time": 97, "annotation": {"number": 64, "value": 127}, "group": "control_change"}, {"time": 105, "annotation": {"number": 64, "value": 0}, "group": "control_change"}, {"time": 112, "annotation": {"number": 64, "value": 127}, "group": "control_change"}, {"time": 154, "annotation": {"number": 64, "value": 0}, "group": "control_change"}, {"time": 165, "annotation": {"number": 64, "value": 127}, "group": "control_change"}, {"time": 208, "annotation": {"number": 64, "value": 127}, "group": "control_change"}, {"time": 238, "annotation": {"number": 64, "value": 0}, "group": "control_change"}, {"time": 239, "annotation": {"number": 64, "value": 127}, "group": "control_change"}, {"time": 249, "annotation": {"number": 64, "value": 0}, "group": "control_change"}, {"time": 269, "annotation": {"number": 64, "value": 127}, "group": "control_change"}, {"time": 296, "annotation": {"number": 64, "value": 0}, "group": "control_change"}, {"time": 306, "annotation": {"number": 64, "value": 127}, "group": "control_change"}, {"time": 320, "annotation": {"number": 64, "value": 0}, "group": "control_change"}, {"time": 328, "annotation": {"number": 64, "value": 127}, "group": "control_change"}, {"time": 345, "annotation": {"number": 64, "value": 0}, "group": "control_change"}, {"time": 358, "annotation": {"number": 64, "value": 127}, "group": "control_change"}, {"time": 390, "annotation": {"number": 64, "value": 0}, "group": "control_change"}, {"time": 408, "annotation": {"number": 64, "value": 127}, "group": "control_change"}, {"time": 440, "annotation": {"number": 64, "value": 0}, "group": "control_change"}, {"time": 448, "annotation": {"number": 64, "value": 127}, "group": "control_change"}, {"time": 465, "annotation": {"number": 64, "value": 0}, "group": "control_change"}, {"time": 472, "annotation": {"number": 64, "value": 127}, "group": "control_change"}, {"time": 488, "annotation": {"number": 64, "value": 0}, "group": "control_change"}, {"time": 495, "annotation": {"number": 64, "value": 127}, "group": "control_change"}, {"time": 512, "annotation": {"number": 64, "value": 0}, "group": "control_change"}, {"time": 525, "annotation": {"number": 64, "value": 127}, "group": "control_change"}, {"time": 538, "annotation": {"number": 64, "value": 0}, "group": "control_change"}, {"time": 543, "annotation": {"number": 64, "value": 127}, "group": "control_change"}, {"time": 548, "annotation": {"number": 64, "value": 0}, "group": "control_change"}, {"time": 551, "annotation": {"number": 64, "value": 127}, "group": "control_change"}, {"time": 560, "annotation": {"number": 64, "value": 0}, "group": "control_change"}, {"time": 568, "annotation": {"number": 64, "value": 127}, "group": "control_change"}, {"time": 584, "annotation": {"number": 64, "value": 0}, "group": "control_change"}, {"time": 594, "annotation": {"number": 64, "value": 127}, "group": "control_change"}, {"time": 608, "annotation": {"number": 64, "value": 0}, "group": "control_change"}, {"time": 615, "annotation": {"number": 64, "value": 127}, "group": "control_change"}, {"time": 633, "annotation": {"number": 64, "value": 0}, "group": "control_change"}, {"time": 640, "annotation": {"number": 64, "value": 127}, "group": "control_change"}, {"time": 656, "annotation": {"number": 64, "value": 0}, "group": "control_change"}, {"time": 663, "annotation": {"number": 64, "value": 127}, "group": "control_change"}, {"time": 681, "annotation": {"number": 64, "value": 0}, "group": "control_change"}, {"time": 688, "annotation": {"number": 64, "value": 127}, "group": "control_change"}, {"time": 704, "annotation": {"number": 64, "value": 0}, "group": "control_change"}, {"time": 712, "annotation": {"number": 64, "value": 127}, "group": "control_change"}, {"time": 729, "annotation": {"number": 64, "value": 0}, "group": "control_change"}, {"time": 735, "annotation": {"number": 64, "value": 127}, "group": "control_change"}, {"time": 741, "annotation": {"number": 64, "value": 0}, "group": "control_change"}, {"time": 744, "annotation": {"number": 64, "value": 127}, "group": "control_change"}, {"time": 752, "annotation": {"number": 64, "value": 0}, "group": "control_change"}, {"time": 759, "annotation": {"number": 64, "value": 127}, "group": "control_change"}, {"time": 777, "annotation": {"number": 64, "value": 0}, "group": "control_change"}, {"time": 779, "annotation": {"number": 64, "value": 127}, "group": "control_change"}, {"time": 790, "annotation": {"number": 64, "value": 0}, "group": "control_change"}, {"time": 793, "annotation": {"number": 64, "value": 127}, "group": "control_change"}, {"time": 801, "annotation": {"number": 64, "value": 0}, "group": "control_change"}, {"time": 809, "annotation": {"number": 64, "value": 127}, "group": "control_change"}, {"time": 824, "annotation": {"number": 64, "value": 0}, "group": "control_change"}, {"time": 826, "annotation": {"number": 64, "value": 127}, "group": "control_change"}, {"time": 849, "annotation": {"number": 64, "value": 0}, "group": "control_change"}, {"time": 854, "annotation": {"number": 64, "value": 127}, "group": "control_change"}, {"time": 873, "annotation": {"number": 64, "value": 0}, "group": "control_change"}, {"time": 878, "annotation": {"number": 64, "value": 127}, "group": "control_change"}, {"time": 896, "annotation": {"number": 64, "value": 0}, "group": "control_change"}, {"time": 903, "annotation": {"number": 64, "value": 127}, "group": "control_change"}, {"time": 920, "annotation": {"number": 64, "value": 0}, "group": "control_change"}, {"time": 926, "annotation": {"number": 64, "value": 127}, "group": "control_change"}, {"time": 945, "annotation": {"number": 64, "value": 0}, "group": "control_change"}, {"time": 950, "annotation": {"number": 64, "value": 127}, "group": "control_change"}, {"time": 969, "annotation": {"number": 64, "value": 0}, "group": "control_change"}, {"time": 974, "annotation": {"number": 64, "value": 127}, "group": "control_change"}, {"time": 994, "annotation": {"number": 64, "value": 0}, "group": "control_change"}, {"time": 999, "annotation": {"number": 64, "value": 127}, "group": "control_change"}, {"time": 1017, "annotation": {"number": 64, "value": 0}, "group": "control_change"}, {"time": 1023, "annotation": {"number": 64, "value": 127}, "group": "control_change"}, {"time": 1041, "annotation": {"number": 64, "value": 0}, "group": "control_change"}, {"time": 1046, "annotation": {"number": 64, "value": 127}, "group": "control_change"}, {"time": 1065, "annotation": {"number": 64, "value": 0}, "group": "control_change"}, {"time": 1071, "annotation": {"number": 64, "value": 127}, "group": "control_change"}, {"time": 1088, "annotation": {"number": 64, "value": 0}, "group": "control_change"}, {"time": 1094, "annotation": {"number": 64, "value": 127}, "group": "control_change"}, {"time": 1113, "annotation": {"number": 64, "value": 0}, "group": "control_change"}, {"time": 1118, "annotation": {"number": 64, "value": 127}, "group": "control_change"}, {"time": 1136, "annotation": {"number": 64, "value": 0}, "group": "control_change"}, {"time": 1142, "annotation": {"number": 64, "value": 127}, "group": "control_change"}, {"time": 1160, "annotation": {"number": 64, "value": 0}, "group": "control_change"}, {"time": 1166, "annotation": {"number": 64, "value": 127}, "group": "control_change"}, {"time": 1184, "annotation": {"number": 64, "value": 0}, "group": "control_change"}, {"time": 1189, "annotation": {"number": 64, "value": 127}, "group": "control_change"}, {"time": 1209, "annotation": {"number": 64, "value": 0}, "group": "control_change"}, {"time": 1214, "annotation": {"number": 64, "value": 127}, "group": "control_change"}, {"time": 1232, "annotation": {"number": 64, "value": 0}, "group": "control_change"}, {"time": 1237, "annotation": {"number": 64, "value": 127}, "group": "control_change"}, {"time": 1258, "annotation": {"number": 64, "value": 0}, "group": "control_change"}, {"time": 1264, "annotation": {"number": 64, "value": 127}, "group": "control_change"}, {"time": 1281, "annotation": {"number": 64, "value": 0}, "group": "control_change"}, {"time": 1284, "annotation": {"number": 64, "value": 127}, "group": "control_change"}, {"time": 1304, "annotation": {"number": 64, "value": 0}, "group": "control_change"}, {"time": 1310, "annotation": {"number": 64, "value": 127}, "group": "control_change"}, {"time": 1329, "annotation": {"number": 64, "value": 0}, "group": "control_change"}, {"time": 1334, "annotation": {"number": 64, "value": 127}, "group": "control_change"}, {"time": 1353, "annotation": {"number": 64, "value": 0}, "group": "control_change"}, {"time": 1357, "annotation": {"number": 64, "value": 127}, "group": "control_change"}, {"time": 1379, "annotation": {"number": 64, "value": 0}, "group": "control_change"}, {"time": 1410, "annotation": {"number": 64, "value": 127}, "group": "control_change"}, {"time": 1424, "annotation": {"number": 64, "value": 0}, "group": "control_change"}, {"time": 1431, "annotation": {"number": 64, "value": 127}, "group": "control_change"}, {"time": 1449, "annotation": {"number": 64, "value": 0}, "group": "control_change"}, {"time": 1456, "annotation": {"number": 64, "value": 127}, "group": "control_change"}, {"time": 1472, "annotation": {"number": 64, "value": 0}, "group": "control_change"}, {"time": 1479, "annotation": {"number": 64, "value": 127}, "group": "control_change"}, {"time": 1497, "annotation": {"number": 64, "value": 0}, "group": "control_change"}, {"time": 1504, "annotation": {"number": 64, "value": 127}, "group": "control_change"}, {"time": 1520, "annotation": {"number": 64, "value": 0}, "group": "control_change"}, {"time": 1528, "annotation": {"number": 64, "value": 127}, "group": "control_change"}, {"time": 1545, "annotation": {"number": 64, "value": 0}, "group": "control_change"}, {"time": 1551, "annotation": {"number": 64, "value": 127}, "group": "control_change"}, {"time": 1557, "annotation": {"number": 64, "value": 0}, "group": "control_change"}, {"time": 1560, "annotation": {"number": 64, "value": 127}, "group": "control_change"}, {"time": 1568, "annotation": {"number": 64, "value": 0}, "group": "control_change"}, {"time": 1575, "annotation": {"number": 64, "value": 127}, "group": "control_change"}, {"time": 1593, "annotation": {"number": 64, "value": 0}, "group": "control_change"}, {"time": 1595, "annotation": {"number": 64, "value": 127}, "group": "control_change"}, {"time": 1606, "annotation": {"number": 64, "value": 0}, "group": "control_change"}, {"time": 1609, "annotation": {"number": 64, "value": 127}, "group": "control_change"}, {"time": 1617, "annotation": {"number": 64, "value": 0}, "group": "control_change"}, {"time": 1625, "annotation": {"number": 64, "value": 127}, "group": "control_change"}, {"time": 1640, "annotation": {"number": 64, "value": 0}, "group": "control_change"}, {"time": 1642, "annotation": {"number": 64, "value": 127}, "group": "control_change"}, {"time": 1665, "annotation": {"number": 64, "value": 0}, "group": "control_change"}, {"time": 1670, "annotation": {"number": 64, "value": 127}, "group": "control_change"}, {"time": 1689, "annotation": {"number": 64, "value": 0}, "group": "control_change"}, {"time": 1694, "annotation": {"number": 64, "value": 127}, "group": "control_change"}, {"time": 1712, "annotation": {"number": 64, "value": 0}, "group": "control_change"}, {"time": 1719, "annotation": {"number": 64, "value": 127}, "group": "control_change"}, {"time": 1736, "annotation": {"number": 64, "value": 0}, "group": "control_change"}, {"time": 1742, "annotation": {"number": 64, "value": 127}, "group": "control_change"}, {"time": 1761, "annotation": {"number": 64, "value": 0}, "group": "control_change"}, {"time": 1766, "annotation": {"number": 64, "value": 127}, "group": "control_change"}, {"time": 1785, "annotation": {"number": 64, "value": 0}, "group": "control_change"}, {"time": 1790, "annotation": {"number": 64, "value": 127}, "group": "control_change"}, {"time": 1810, "annotation": {"number": 64, "value": 0}, "group": "control_change"}, {"time": 1815, "annotation": {"number": 64, "value": 127}, "group": "control_change"}, {"time": 1833, "annotation": {"number": 64, "value": 0}, "group": "control_change"}, {"time": 1839, "annotation": {"number": 64, "value": 127}, "group": "control_change"}, {"time": 1857, "annotation": {"number": 64, "value": 0}, "group": "control_change"}, {"time": 1862, "annotation": {"number": 64, "value": 127}, "group": "control_change"}, {"time": 1881, "annotation": {"number": 64, "value": 0}, "group": "control_change"}, {"time": 1887, "annotation": {"number": 64, "value": 127}, "group": "control_change"}, {"time": 1904, "annotation": {"number": 64, "value": 0}, "group": "control_change"}, {"time": 1910, "annotation": {"number": 64, "value": 127}, "group": "control_change"}, {"time": 1929, "annotation": {"number": 64, "value": 0}, "group": "control_change"}, {"time": 1934, "annotation": {"number": 64, "value": 127}, "group": "control_change"}, {"time": 1952, "annotation": {"number": 64, "value": 0}, "group": "control_change"}, {"time": 1958, "annotation": {"number": 64, "value": 127}, "group": "control_change"}, {"time": 1976, "annotation": {"number": 64, "value": 0}, "group": "control_change"}, {"time": 1982, "annotation": {"number": 64, "value": 127}, "group": "control_change"}, {"time": 2000, "annotation": {"number": 64, "value": 0}, "group": "control_change"}, {"time": 2005, "annotation": {"number": 64, "value": 127}, "group": "control_change"}, {"time": 2025, "annotation": {"number": 64, "value": 0}, "group": "control_change"}, {"time": 2074, "annotation": {"number": 64, "value": 127}, "group": "control_change"}, {"time": 2097, "annotation": {"number": 64, "value": 0}, "group": "control_change"}, {"time": 2102, "annotation": {"number": 64, "value": 127}, "group": "control_change"}, {"time": 2121, "annotation": {"number": 64, "value": 0}, "group": "control_change"}, {"time": 2126, "annotation": {"number": 64, "value": 127}, "group": "control_change"}, {"time": 2144, "annotation": {"number": 64, "value": 0}, "group": "control_change"}, {"time": 2151, "annotation": {"number": 64, "value": 127}, "group": "control_change"}, {"time": 2168, "annotation": {"number": 64, "value": 0}, "group": "control_change"}, {"time": 2174, "annotation": {"number": 64, "value": 127}, "group": "control_change"}, {"time": 2193, "annotation": {"number": 64, "value": 0}, "group": "control_change"}, {"time": 2198, "annotation": {"number": 64, "value": 127}, "group": "control_change"}, {"time": 2217, "annotation": {"number": 64, "value": 0}, "group": "control_change"}, {"time": 2222, "annotation": {"number": 64, "value": 127}, "group": "control_change"}, {"time": 2242, "annotation": {"number": 64, "value": 0}, "group": "control_change"}, {"time": 2247, "annotation": {"number": 64, "value": 127}, "group": "control_change"}, {"time": 2265, "annotation": {"number": 64, "value": 0}, "group": "control_change"}, {"time": 2271, "annotation": {"number": 64, "value": 127}, "group": "control_change"}, {"time": 2289, "annotation": {"number": 64, "value": 0}, "group": "control_change"}, {"time": 2294, "annotation": {"number": 64, "value": 127}, "group": "control_change"}, {"time": 2313, "annotation": {"number": 64, "value": 0}, "group": "control_change"}, {"time": 2319, "annotation": {"number": 64, "value": 127}, "group": "control_change"}, {"time": 2336, "annotation": {"number": 64, "value": 0}, "group": "control_change"}, {"time": 2342, "annotation": {"number": 64, "value": 127}, "group": "control_change"}, {"time": 2361, "annotation": {"number": 64, "value": 0}, "group": "control_change"}, {"time": 2366, "annotation": {"number": 64, "value": 127}, "group": "control_change"}, {"time": 2384, "annotation": {"number": 64, "value": 0}, "group": "control_change"}, {"time": 2390, "annotation": {"number": 64, "value": 127}, "group": "control_change"}, {"time": 2408, "annotation": {"number": 64, "value": 0}, "group": "control_change"}, {"time": 2414, "annotation": {"number": 64, "value": 127}, "group": "control_change"}, {"time": 2432, "annotation": {"number": 64, "value": 0}, "group": "control_change"}, {"time": 2437, "annotation": {"number": 64, "value": 127}, "group": "control_change"}, {"time": 2457, "annotation": {"number": 64, "value": 0}, "group": "control_change"}, {"time": 2462, "annotation": {"number": 64, "value": 127}, "group": "control_change"}, {"time": 2480, "annotation": {"number": 64, "value": 0}, "group": "control_change"}, {"time": 2485, "annotation": {"number": 64, "value": 127}, "group": "control_change"}, {"time": 2506, "annotation": {"number": 64, "value": 0}, "group": "control_change"}, {"time": 2512, "annotation": {"number": 64, "value": 127}, "group": "control_change"}, {"time": 2529, "annotation": {"number": 64, "value": 0}, "group": "control_change"}, {"time": 2532, "annotation": {"number": 64, "value": 127}, "group": "control_change"}, {"time": 2552, "annotation": {"number": 64, "value": 0}, "group": "control_change"}, {"time": 2558, "annotation": {"number": 64, "value": 127}, "group": "control_change"}, {"time": 2577, "annotation": {"number": 64, "value": 0}, "group": "control_change"}, {"time": 2582, "annotation": {"number": 64, "value": 127}, "group": "control_change"}, {"time": 2601, "annotation": {"number": 64, "value": 0}, "group": "control_change"}, {"time": 2605, "annotation": {"number": 64, "value": 127}, "group": "control_change"}, {"time": 2627, "annotation": {"number": 64, "value": 0}, "group": "control_change"}, {"time": 2653, "annotation": {"number": 64, "value": 127}, "group": "control_change"}, {"time": 2719, "annotation": {"number": 64, "value": 0}, "group": "control_change"}]}]}