{"metadata": {"schema_version": "0.2", "title": "None", "source_filename": "014.mid", "source_format": "midi"}, "resolution": 12, "tempos": [{"time": 0, "qpm": 127.00025400050801}], "time_signatures": [{"time": 0, "numerator": 1, "denominator": 4}], "tracks": [{"program": 0, "is_drum": false, "name": "MELODY", "notes": [{"time": 444, "pitch": 75, "duration": 8, "velocity": 110}, {"time": 456, "pitch": 74, "duration": 7, "velocity": 106}, {"time": 468, "pitch": 75, "duration": 4, "velocity": 113}, {"time": 474, "pitch": 74, "duration": 6, "velocity": 106}, {"time": 492, "pitch": 75, "duration": 7, "velocity": 113}, {"time": 504, "pitch": 74, "duration": 8, "velocity": 112}, {"time": 516, "pitch": 75, "duration": 3, "velocity": 110}, {"time": 522, "pitch": 74, "duration": 8, "velocity": 112}, {"time": 540, "pitch": 75, "duration": 7, "velocity": 107}, {"time": 552, "pitch": 74, "duration": 8, "velocity": 112}, {"time": 564, "pitch": 75, "duration": 3, "velocity": 117}, {"time": 570, "pitch": 77, "duration": 10, "velocity": 115}, {"time": 582, "pitch": 75, "duration": 7, "velocity": 117}, {"time": 594, "pitch": 74, "duration": 7, "velocity": 112}, {"time": 606, "pitch": 70, "duration": 3, "velocity": 110}, {"time": 612, "pitch": 70, "duration": 9, "velocity": 110}, {"time": 624, "pitch": 67, "duration": 6, "velocity": 112}, {"time": 636, "pitch": 75, "duration": 8, "velocity": 110}, {"time": 648, "pitch": 74, "duration": 7, "velocity": 106}, {"time": 660, "pitch": 75, "duration": 4, "velocity": 113}, {"time": 666, "pitch": 74, "duration": 6, "velocity": 106}, {"time": 684, "pitch": 75, "duration": 7, "velocity": 113}, {"time": 696, "pitch": 74, "duration": 8, "velocity": 112}, {"time": 708, "pitch": 75, "duration": 3, "velocity": 110}, {"time": 714, "pitch": 74, "duration": 8, "velocity": 112}, {"time": 732, "pitch": 75, "duration": 7, "velocity": 107}, {"time": 744, "pitch": 74, "duration": 8, "velocity": 112}, {"time": 756, "pitch": 75, "duration": 3, "velocity": 117}, {"time": 762, "pitch": 77, "duration": 10, "velocity": 115}, {"time": 774, "pitch": 75, "duration": 7, "velocity": 117}, {"time": 786, "pitch": 77, "duration": 7, "velocity": 112}, {"time": 798, "pitch": 79, "duration": 6, "velocity": 110}, {"time": 810, "pitch": 79, "duration": 9, "velocity": 110}, {"time": 846, "pitch": 77, "duration": 3, "velocity": 112}, {"time": 852, "pitch": 79, "duration": 3, "velocity": 109}, {"time": 858, "pitch": 77, "duration": 2, "velocity": 112}, {"time": 864, "pitch": 79, "duration": 12, "velocity": 112}, {"time": 882, "pitch": 77, "duration": 3, "velocity": 109}, {"time": 888, "pitch": 79, "duration": 3, "velocity": 109}, {"time": 894, "pitch": 77, "duration": 9, "velocity": 115}, {"time": 906, "pitch": 75, "duration": 18, "velocity": 120}, {"time": 954, "pitch": 75, "duration": 3, "velocity": 117}, {"time": 960, "pitch": 74, "duration": 6, "velocity": 115}, {"time": 972, "pitch": 75, "duration": 3, "velocity": 117}, {"time": 978, "pitch": 74, "duration": 6, "velocity": 109}, {"time": 990, "pitch": 70, "duration": 7, "velocity": 120}, {"time": 1002, "pitch": 67, "duration": 11, "velocity": 115}, {"time": 1038, "pitch": 77, "duration": 3, "velocity": 109}, {"time": 1044, "pitch": 79, "duration": 3, "velocity": 112}, {"time": 1050, "pitch": 77, "duration": 2, "velocity": 109}, {"time": 1056, "pitch": 79, "duration": 11, "velocity": 112}, {"time": 1074, "pitch": 77, "duration": 3, "velocity": 112}, {"time": 1080, "pitch": 79, "duration": 3, "velocity": 109}, {"time": 1086, "pitch": 77, "duration": 8, "velocity": 115}, {"time": 1098, "pitch": 75, "duration": 14, "velocity": 117}, {"time": 1146, "pitch": 77, "duration": 12, "velocity": 115}, {"time": 1164, "pitch": 75, "duration": 8, "velocity": 120}, {"time": 1176, "pitch": 74, "duration": 4, "velocity": 112}, {"time": 1182, "pitch": 75, "duration": 3, "velocity": 117}, {"time": 1188, "pitch": 77, "duration": 6, "velocity": 112}, {"time": 1200, "pitch": 79, "duration": 3, "velocity": 112}, {"time": 1206, "pitch": 79, "duration": 3, "velocity": 112}, {"time": 1212, "pitch": 79, "duration": 3, "velocity": 109}, {"time": 1218, "pitch": 79, "duration": 2, "velocity": 109}, {"time": 1224, "pitch": 79, "duration": 8, "velocity": 115}, {"time": 1236, "pitch": 72, "duration": 3, "velocity": 109}, {"time": 1242, "pitch": 75, "duration": 7, "velocity": 117}, {"time": 1254, "pitch": 77, "duration": 2, "velocity": 112}, {"time": 1260, "pitch": 79, "duration": 8, "velocity": 115}, {"time": 1272, "pitch": 79, "duration": 8, "velocity": 112}, {"time": 1296, "pitch": 80, "duration": 2, "velocity": 117}, {"time": 1302, "pitch": 80, "duration": 2, "velocity": 113}, {"time": 1308, "pitch": 80, "duration": 2, "velocity": 117}, {"time": 1314, "pitch": 80, "duration": 2, "velocity": 117}, {"time": 1320, "pitch": 79, "duration": 8, "velocity": 112}, {"time": 1332, "pitch": 80, "duration": 3, "velocity": 117}, {"time": 1338, "pitch": 79, "duration": 9, "velocity": 112}, {"time": 1350, "pitch": 75, "duration": 3, "velocity": 113}, {"time": 1356, "pitch": 79, "duration": 8, "velocity": 112}, {"time": 1368, "pitch": 77, "duration": 14, "velocity": 115}, {"time": 1392, "pitch": 79, "duration": 3, "velocity": 109}, {"time": 1398, "pitch": 79, "duration": 3, "velocity": 109}, {"time": 1404, "pitch": 79, "duration": 7, "velocity": 115}, {"time": 1416, "pitch": 79, "duration": 7, "velocity": 112}, {"time": 1428, "pitch": 72, "duration": 3, "velocity": 109}, {"time": 1434, "pitch": 75, "duration": 7, "velocity": 117}, {"time": 1446, "pitch": 77, "duration": 3, "velocity": 109}, {"time": 1452, "pitch": 79, "duration": 8, "velocity": 112}, {"time": 1464, "pitch": 79, "duration": 13, "velocity": 112}, {"time": 1476, "pitch": 75, "duration": 9, "velocity": 117}, {"time": 1488, "pitch": 74, "duration": 3, "velocity": 112}, {"time": 1494, "pitch": 72, "duration": 26, "velocity": 109}, {"time": 1530, "pitch": 75, "duration": 3, "velocity": 117}, {"time": 1536, "pitch": 74, "duration": 7, "velocity": 112}, {"time": 1548, "pitch": 75, "duration": 3, "velocity": 117}, {"time": 1554, "pitch": 74, "duration": 6, "velocity": 115}, {"time": 1566, "pitch": 70, "duration": 3, "velocity": 117}, {"time": 1572, "pitch": 67, "duration": 3, "velocity": 109}, {"time": 1578, "pitch": 72, "duration": 30, "velocity": 104}, {"time": 1788, "pitch": 75, "duration": 9, "velocity": 110}, {"time": 1800, "pitch": 74, "duration": 8, "velocity": 106}, {"time": 1812, "pitch": 75, "duration": 4, "velocity": 113}, {"time": 1818, "pitch": 74, "duration": 7, "velocity": 106}, {"time": 1836, "pitch": 75, "duration": 8, "velocity": 113}, {"time": 1848, "pitch": 74, "duration": 8, "velocity": 112}, {"time": 1860, "pitch": 75, "duration": 4, "velocity": 110}, {"time": 1866, "pitch": 74, "duration": 9, "velocity": 112}, {"time": 1884, "pitch": 75, "duration": 8, "velocity": 107}, {"time": 1896, "pitch": 74, "duration": 8, "velocity": 112}, {"time": 1908, "pitch": 75, "duration": 3, "velocity": 117}, {"time": 1914, "pitch": 77, "duration": 11, "velocity": 115}, {"time": 1926, "pitch": 75, "duration": 7, "velocity": 117}, {"time": 1938, "pitch": 74, "duration": 7, "velocity": 112}, {"time": 1950, "pitch": 70, "duration": 3, "velocity": 110}, {"time": 1956, "pitch": 70, "duration": 9, "velocity": 110}, {"time": 1968, "pitch": 67, "duration": 7, "velocity": 112}, {"time": 1980, "pitch": 75, "duration": 9, "velocity": 110}, {"time": 1992, "pitch": 74, "duration": 8, "velocity": 106}, {"time": 2004, "pitch": 75, "duration": 4, "velocity": 113}, {"time": 2010, "pitch": 74, "duration": 7, "velocity": 106}, {"time": 2028, "pitch": 75, "duration": 8, "velocity": 113}, {"time": 2040, "pitch": 74, "duration": 8, "velocity": 112}, {"time": 2052, "pitch": 75, "duration": 4, "velocity": 110}, {"time": 2058, "pitch": 74, "duration": 9, "velocity": 112}, {"time": 2076, "pitch": 75, "duration": 8, "velocity": 107}, {"time": 2088, "pitch": 74, "duration": 8, "velocity": 112}, {"time": 2100, "pitch": 75, "duration": 3, "velocity": 117}, {"time": 2106, "pitch": 77, "duration": 11, "velocity": 115}, {"time": 2118, "pitch": 75, "duration": 7, "velocity": 117}, {"time": 2130, "pitch": 77, "duration": 7, "velocity": 112}, {"time": 2142, "pitch": 79, "duration": 6, "velocity": 110}, {"time": 2154, "pitch": 79, "duration": 9, "velocity": 110}, {"time": 2190, "pitch": 77, "duration": 4, "velocity": 112}, {"time": 2196, "pitch": 79, "duration": 4, "velocity": 109}, {"time": 2202, "pitch": 77, "duration": 3, "velocity": 112}, {"time": 2208, "pitch": 79, "duration": 13, "velocity": 112}, {"time": 2226, "pitch": 77, "duration": 3, "velocity": 109}, {"time": 2232, "pitch": 79, "duration": 4, "velocity": 109}, {"time": 2238, "pitch": 77, "duration": 9, "velocity": 115}, {"time": 2250, "pitch": 75, "duration": 19, "velocity": 120}, {"time": 2298, "pitch": 75, "duration": 3, "velocity": 117}, {"time": 2304, "pitch": 74, "duration": 7, "velocity": 115}, {"time": 2316, "pitch": 75, "duration": 3, "velocity": 117}, {"time": 2322, "pitch": 74, "duration": 6, "velocity": 109}, {"time": 2334, "pitch": 70, "duration": 8, "velocity": 120}, {"time": 2346, "pitch": 67, "duration": 11, "velocity": 115}, {"time": 2382, "pitch": 77, "duration": 3, "velocity": 109}, {"time": 2388, "pitch": 79, "duration": 4, "velocity": 112}, {"time": 2394, "pitch": 77, "duration": 3, "velocity": 109}, {"time": 2400, "pitch": 79, "duration": 12, "velocity": 112}, {"time": 2418, "pitch": 77, "duration": 3, "velocity": 112}, {"time": 2424, "pitch": 79, "duration": 4, "velocity": 109}, {"time": 2430, "pitch": 77, "duration": 9, "velocity": 115}, {"time": 2442, "pitch": 75, "duration": 15, "velocity": 117}, {"time": 2490, "pitch": 77, "duration": 13, "velocity": 115}, {"time": 2508, "pitch": 75, "duration": 9, "velocity": 120}, {"time": 2520, "pitch": 74, "duration": 5, "velocity": 112}, {"time": 2527, "pitch": 75, "duration": 3, "velocity": 117}, {"time": 2533, "pitch": 77, "duration": 6, "velocity": 112}, {"time": 2545, "pitch": 79, "duration": 3, "velocity": 112}, {"time": 2551, "pitch": 79, "duration": 3, "velocity": 112}, {"time": 2557, "pitch": 79, "duration": 3, "velocity": 109}, {"time": 2563, "pitch": 79, "duration": 3, "velocity": 109}, {"time": 2569, "pitch": 79, "duration": 9, "velocity": 115}, {"time": 2581, "pitch": 72, "duration": 3, "velocity": 109}, {"time": 2587, "pitch": 75, "duration": 8, "velocity": 117}, {"time": 2599, "pitch": 77, "duration": 3, "velocity": 112}, {"time": 2605, "pitch": 79, "duration": 9, "velocity": 115}, {"time": 2617, "pitch": 79, "duration": 9, "velocity": 112}, {"time": 2641, "pitch": 80, "duration": 3, "velocity": 117}, {"time": 2647, "pitch": 80, "duration": 3, "velocity": 113}, {"time": 2653, "pitch": 80, "duration": 3, "velocity": 117}, {"time": 2659, "pitch": 80, "duration": 3, "velocity": 117}, {"time": 2665, "pitch": 79, "duration": 8, "velocity": 112}, {"time": 2677, "pitch": 80, "duration": 3, "velocity": 117}, {"time": 2683, "pitch": 79, "duration": 9, "velocity": 112}, {"time": 2695, "pitch": 75, "duration": 3, "velocity": 113}, {"time": 2701, "pitch": 79, "duration": 8, "velocity": 112}, {"time": 2713, "pitch": 77, "duration": 14, "velocity": 115}, {"time": 2737, "pitch": 79, "duration": 3, "velocity": 109}, {"time": 2743, "pitch": 79, "duration": 3, "velocity": 109}, {"time": 2749, "pitch": 79, "duration": 7, "velocity": 115}, {"time": 2761, "pitch": 79, "duration": 7, "velocity": 112}, {"time": 2773, "pitch": 72, "duration": 3, "velocity": 109}, {"time": 2779, "pitch": 75, "duration": 8, "velocity": 117}, {"time": 2791, "pitch": 77, "duration": 4, "velocity": 109}, {"time": 2797, "pitch": 79, "duration": 8, "velocity": 112}, {"time": 2809, "pitch": 79, "duration": 14, "velocity": 112}, {"time": 2821, "pitch": 75, "duration": 9, "velocity": 117}, {"time": 2833, "pitch": 74, "duration": 3, "velocity": 112}, {"time": 2839, "pitch": 72, "duration": 26, "velocity": 109}, {"time": 2875, "pitch": 75, "duration": 4, "velocity": 117}, {"time": 2881, "pitch": 74, "duration": 7, "velocity": 112}, {"time": 2893, "pitch": 75, "duration": 4, "velocity": 117}, {"time": 2899, "pitch": 74, "duration": 6, "velocity": 115}, {"time": 2911, "pitch": 70, "duration": 3, "velocity": 117}, {"time": 2917, "pitch": 67, "duration": 3, "velocity": 109}, {"time": 2923, "pitch": 72, "duration": 30, "velocity": 104}, {"time": 3506, "pitch": 79, "duration": 3, "velocity": 112}, {"time": 3512, "pitch": 79, "duration": 2, "velocity": 112}, {"time": 3518, "pitch": 79, "duration": 3, "velocity": 109}, {"time": 3524, "pitch": 79, "duration": 2, "velocity": 109}, {"time": 3530, "pitch": 79, "duration": 8, "velocity": 115}, {"time": 3542, "pitch": 72, "duration": 3, "velocity": 109}, {"time": 3548, "pitch": 75, "duration": 7, "velocity": 117}, {"time": 3560, "pitch": 77, "duration": 2, "velocity": 112}, {"time": 3566, "pitch": 79, "duration": 8, "velocity": 115}, {"time": 3578, "pitch": 79, "duration": 8, "velocity": 112}, {"time": 3602, "pitch": 80, "duration": 2, "velocity": 117}, {"time": 3608, "pitch": 80, "duration": 2, "velocity": 113}, {"time": 3614, "pitch": 80, "duration": 2, "velocity": 117}, {"time": 3620, "pitch": 80, "duration": 2, "velocity": 117}, {"time": 3626, "pitch": 79, "duration": 8, "velocity": 112}, {"time": 3638, "pitch": 80, "duration": 3, "velocity": 117}, {"time": 3644, "pitch": 79, "duration": 9, "velocity": 112}, {"time": 3656, "pitch": 75, "duration": 3, "velocity": 113}, {"time": 3662, "pitch": 79, "duration": 8, "velocity": 112}, {"time": 3674, "pitch": 77, "duration": 14, "velocity": 115}, {"time": 3698, "pitch": 79, "duration": 2, "velocity": 109}, {"time": 3704, "pitch": 79, "duration": 3, "velocity": 109}, {"time": 3710, "pitch": 79, "duration": 7, "velocity": 115}, {"time": 3722, "pitch": 79, "duration": 7, "velocity": 112}, {"time": 3734, "pitch": 72, "duration": 3, "velocity": 109}, {"time": 3740, "pitch": 75, "duration": 7, "velocity": 117}, {"time": 3752, "pitch": 77, "duration": 3, "velocity": 109}, {"time": 3758, "pitch": 79, "duration": 8, "velocity": 112}, {"time": 3770, "pitch": 79, "duration": 13, "velocity": 112}, {"time": 3782, "pitch": 75, "duration": 9, "velocity": 117}, {"time": 3794, "pitch": 74, "duration": 3, "velocity": 112}, {"time": 3800, "pitch": 72, "duration": 26, "velocity": 109}, {"time": 3836, "pitch": 75, "duration": 3, "velocity": 117}, {"time": 3842, "pitch": 74, "duration": 7, "velocity": 112}, {"time": 3854, "pitch": 75, "duration": 3, "velocity": 117}, {"time": 3860, "pitch": 74, "duration": 6, "velocity": 115}, {"time": 3872, "pitch": 70, "duration": 2, "velocity": 117}, {"time": 3878, "pitch": 67, "duration": 5, "velocity": 109}, {"time": 3890, "pitch": 79, "duration": 3, "velocity": 112}, {"time": 3896, "pitch": 79, "duration": 2, "velocity": 112}, {"time": 3902, "pitch": 79, "duration": 3, "velocity": 109}, {"time": 3908, "pitch": 79, "duration": 2, "velocity": 109}, {"time": 3914, "pitch": 79, "duration": 8, "velocity": 115}, {"time": 3926, "pitch": 72, "duration": 3, "velocity": 109}, {"time": 3932, "pitch": 75, "duration": 7, "velocity": 117}, {"time": 3944, "pitch": 77, "duration": 2, "velocity": 112}, {"time": 3950, "pitch": 79, "duration": 8, "velocity": 115}, {"time": 3962, "pitch": 79, "duration": 8, "velocity": 112}, {"time": 3986, "pitch": 80, "duration": 2, "velocity": 117}, {"time": 3992, "pitch": 80, "duration": 2, "velocity": 113}, {"time": 3998, "pitch": 80, "duration": 2, "velocity": 117}, {"time": 4004, "pitch": 80, "duration": 2, "velocity": 117}, {"time": 4010, "pitch": 79, "duration": 8, "velocity": 112}, {"time": 4022, "pitch": 80, "duration": 3, "velocity": 117}, {"time": 4028, "pitch": 79, "duration": 9, "velocity": 112}, {"time": 4040, "pitch": 75, "duration": 3, "velocity": 113}, {"time": 4046, "pitch": 79, "duration": 8, "velocity": 112}, {"time": 4058, "pitch": 77, "duration": 14, "velocity": 115}, {"time": 4082, "pitch": 79, "duration": 2, "velocity": 109}, {"time": 4088, "pitch": 79, "duration": 3, "velocity": 109}, {"time": 4094, "pitch": 79, "duration": 7, "velocity": 115}, {"time": 4106, "pitch": 79, "duration": 7, "velocity": 112}, {"time": 4118, "pitch": 72, "duration": 3, "velocity": 109}, {"time": 4124, "pitch": 75, "duration": 7, "velocity": 117}, {"time": 4136, "pitch": 77, "duration": 3, "velocity": 109}, {"time": 4142, "pitch": 79, "duration": 8, "velocity": 112}, {"time": 4154, "pitch": 79, "duration": 13, "velocity": 112}, {"time": 4166, "pitch": 75, "duration": 9, "velocity": 117}, {"time": 4178, "pitch": 74, "duration": 3, "velocity": 112}, {"time": 4184, "pitch": 72, "duration": 26, "velocity": 109}, {"time": 4220, "pitch": 75, "duration": 3, "velocity": 117}, {"time": 4226, "pitch": 74, "duration": 7, "velocity": 112}, {"time": 4238, "pitch": 75, "duration": 3, "velocity": 117}, {"time": 4244, "pitch": 74, "duration": 6, "velocity": 115}, {"time": 4256, "pitch": 70, "duration": 2, "velocity": 117}, {"time": 4262, "pitch": 67, "duration": 3, "velocity": 109}, {"time": 4268, "pitch": 72, "duration": 29, "velocity": 104}]}, {"program": 0, "is_drum": false, "name": "PIANO", "notes": [{"time": 48, "pitch": 48, "duration": 45, "velocity": 104}, {"time": 48, "pitch": 60, "duration": 38, "velocity": 99}, {"time": 48, "pitch": 63, "duration": 38, "velocity": 113}, {"time": 71, "pitch": 67, "duration": 15, "velocity": 104}, {"time": 96, "pitch": 46, "duration": 45, "velocity": 88}, {"time": 96, "pitch": 53, "duration": 22, "velocity": 89}, {"time": 96, "pitch": 62, "duration": 22, "velocity": 106}, {"time": 96, "pitch": 58, "duration": 42, "velocity": 107}, {"time": 119, "pitch": 67, "duration": 15, "velocity": 77}, {"time": 144, "pitch": 44, "duration": 70, "velocity": 107}, {"time": 144, "pitch": 63, "duration": 68, "velocity": 104}, {"time": 144, "pitch": 56, "duration": 67, "velocity": 110}, {"time": 144, "pitch": 51, "duration": 68, "velocity": 101}, {"time": 216, "pitch": 58, "duration": 22, "velocity": 110}, {"time": 216, "pitch": 62, "duration": 22, "velocity": 106}, {"time": 239, "pitch": 48, "duration": 48, "velocity": 104}, {"time": 239, "pitch": 60, "duration": 47, "velocity": 99}, {"time": 239, "pitch": 63, "duration": 48, "velocity": 113}, {"time": 287, "pitch": 46, "duration": 46, "velocity": 88}, {"time": 287, "pitch": 62, "duration": 46, "velocity": 106}, {"time": 288, "pitch": 53, "duration": 47, "velocity": 89}, {"time": 288, "pitch": 58, "duration": 47, "velocity": 107}, {"time": 335, "pitch": 44, "duration": 71, "velocity": 107}, {"time": 335, "pitch": 63, "duration": 69, "velocity": 104}, {"time": 336, "pitch": 51, "duration": 68, "velocity": 101}, {"time": 336, "pitch": 56, "duration": 52, "velocity": 110}, {"time": 378, "pitch": 56, "duration": 10, "velocity": 113}, {"time": 402, "pitch": 56, "duration": 1, "velocity": 110}, {"time": 408, "pitch": 51, "duration": 8, "velocity": 110}, {"time": 414, "pitch": 56, "duration": 2, "velocity": 117}, {"time": 414, "pitch": 60, "duration": 6, "velocity": 106}, {"time": 414, "pitch": 63, "duration": 9, "velocity": 113}, {"time": 414, "pitch": 67, "duration": 13, "velocity": 101}, {"time": 420, "pitch": 56, "duration": 1, "velocity": 96}, {"time": 432, "pitch": 48, "duration": 18, "velocity": 101}, {"time": 432, "pitch": 60, "duration": 9, "velocity": 94}, {"time": 432, "pitch": 63, "duration": 9, "velocity": 104}, {"time": 432, "pitch": 67, "duration": 8, "velocity": 101}, {"time": 444, "pitch": 60, "duration": 12, "velocity": 99}, {"time": 444, "pitch": 63, "duration": 12, "velocity": 117}, {"time": 444, "pitch": 67, "duration": 11, "velocity": 104}, {"time": 462, "pitch": 60, "duration": 3, "velocity": 101}, {"time": 462, "pitch": 63, "duration": 10, "velocity": 120}, {"time": 462, "pitch": 67, "duration": 13, "velocity": 104}, {"time": 480, "pitch": 46, "duration": 39, "velocity": 99}, {"time": 480, "pitch": 58, "duration": 9, "velocity": 110}, {"time": 480, "pitch": 62, "duration": 9, "velocity": 106}, {"time": 480, "pitch": 67, "duration": 9, "velocity": 96}, {"time": 492, "pitch": 58, "duration": 14, "velocity": 113}, {"time": 492, "pitch": 62, "duration": 14, "velocity": 109}, {"time": 492, "pitch": 67, "duration": 14, "velocity": 94}, {"time": 504, "pitch": 53, "duration": 8, "velocity": 38}, {"time": 510, "pitch": 58, "duration": 4, "velocity": 113}, {"time": 510, "pitch": 62, "duration": 7, "velocity": 112}, {"time": 510, "pitch": 67, "duration": 19, "velocity": 106}, {"time": 528, "pitch": 43, "duration": 17, "velocity": 106}, {"time": 528, "pitch": 55, "duration": 8, "velocity": 91}, {"time": 528, "pitch": 58, "duration": 8, "velocity": 99}, {"time": 528, "pitch": 62, "duration": 9, "velocity": 106}, {"time": 540, "pitch": 55, "duration": 11, "velocity": 101}, {"time": 540, "pitch": 58, "duration": 10, "velocity": 113}, {"time": 540, "pitch": 62, "duration": 12, "velocity": 112}, {"time": 552, "pitch": 50, "duration": 3, "velocity": 55}, {"time": 558, "pitch": 55, "duration": 4, "velocity": 106}, {"time": 558, "pitch": 58, "duration": 9, "velocity": 123}, {"time": 558, "pitch": 62, "duration": 17, "velocity": 115}, {"time": 558, "pitch": 67, "duration": 18, "velocity": 106}, {"time": 570, "pitch": 55, "duration": 5, "velocity": 104}, {"time": 570, "pitch": 58, "duration": 4, "velocity": 17}, {"time": 576, "pitch": 44, "duration": 14, "velocity": 110}, {"time": 588, "pitch": 56, "duration": 13, "velocity": 113}, {"time": 588, "pitch": 60, "duration": 9, "velocity": 104}, {"time": 588, "pitch": 63, "duration": 13, "velocity": 107}, {"time": 600, "pitch": 51, "duration": 7, "velocity": 29}, {"time": 606, "pitch": 56, "duration": 7, "velocity": 117}, {"time": 606, "pitch": 60, "duration": 7, "velocity": 109}, {"time": 606, "pitch": 63, "duration": 9, "velocity": 117}, {"time": 606, "pitch": 68, "duration": 17, "velocity": 107}, {"time": 612, "pitch": 44, "duration": 8, "velocity": 79}, {"time": 618, "pitch": 56, "duration": 5, "velocity": 120}, {"time": 618, "pitch": 63, "duration": 5, "velocity": 26}, {"time": 624, "pitch": 48, "duration": 18, "velocity": 101}, {"time": 624, "pitch": 60, "duration": 9, "velocity": 94}, {"time": 624, "pitch": 63, "duration": 9, "velocity": 104}, {"time": 624, "pitch": 67, "duration": 8, "velocity": 101}, {"time": 636, "pitch": 60, "duration": 12, "velocity": 99}, {"time": 636, "pitch": 63, "duration": 12, "velocity": 117}, {"time": 636, "pitch": 67, "duration": 11, "velocity": 104}, {"time": 654, "pitch": 60, "duration": 3, "velocity": 101}, {"time": 654, "pitch": 63, "duration": 10, "velocity": 120}, {"time": 654, "pitch": 67, "duration": 13, "velocity": 104}, {"time": 672, "pitch": 46, "duration": 39, "velocity": 99}, {"time": 672, "pitch": 58, "duration": 9, "velocity": 110}, {"time": 672, "pitch": 62, "duration": 9, "velocity": 106}, {"time": 672, "pitch": 67, "duration": 9, "velocity": 96}, {"time": 684, "pitch": 58, "duration": 14, "velocity": 113}, {"time": 684, "pitch": 62, "duration": 14, "velocity": 109}, {"time": 684, "pitch": 67, "duration": 14, "velocity": 94}, {"time": 696, "pitch": 53, "duration": 8, "velocity": 38}, {"time": 702, "pitch": 58, "duration": 4, "velocity": 113}, {"time": 702, "pitch": 62, "duration": 7, "velocity": 112}, {"time": 702, "pitch": 67, "duration": 19, "velocity": 106}, {"time": 720, "pitch": 43, "duration": 17, "velocity": 106}, {"time": 720, "pitch": 55, "duration": 8, "velocity": 91}, {"time": 720, "pitch": 58, "duration": 8, "velocity": 99}, {"time": 720, "pitch": 62, "duration": 9, "velocity": 106}, {"time": 732, "pitch": 55, "duration": 11, "velocity": 101}, {"time": 732, "pitch": 58, "duration": 10, "velocity": 113}, {"time": 732, "pitch": 62, "duration": 12, "velocity": 112}, {"time": 744, "pitch": 50, "duration": 3, "velocity": 55}, {"time": 750, "pitch": 55, "duration": 4, "velocity": 106}, {"time": 750, "pitch": 58, "duration": 9, "velocity": 123}, {"time": 750, "pitch": 62, "duration": 17, "velocity": 115}, {"time": 750, "pitch": 67, "duration": 18, "velocity": 106}, {"time": 762, "pitch": 55, "duration": 5, "velocity": 104}, {"time": 762, "pitch": 58, "duration": 4, "velocity": 17}, {"time": 768, "pitch": 44, "duration": 14, "velocity": 110}, {"time": 780, "pitch": 56, "duration": 13, "velocity": 113}, {"time": 780, "pitch": 60, "duration": 9, "velocity": 104}, {"time": 780, "pitch": 63, "duration": 13, "velocity": 107}, {"time": 792, "pitch": 51, "duration": 7, "velocity": 29}, {"time": 798, "pitch": 56, "duration": 7, "velocity": 117}, {"time": 798, "pitch": 60, "duration": 7, "velocity": 109}, {"time": 798, "pitch": 63, "duration": 9, "velocity": 117}, {"time": 798, "pitch": 68, "duration": 17, "velocity": 107}, {"time": 804, "pitch": 44, "duration": 8, "velocity": 79}, {"time": 810, "pitch": 56, "duration": 5, "velocity": 120}, {"time": 810, "pitch": 63, "duration": 5, "velocity": 26}, {"time": 816, "pitch": 51, "duration": 29, "velocity": 117}, {"time": 816, "pitch": 63, "duration": 9, "velocity": 107}, {"time": 816, "pitch": 67, "duration": 9, "velocity": 109}, {"time": 828, "pitch": 63, "duration": 12, "velocity": 113}, {"time": 828, "pitch": 67, "duration": 11, "velocity": 109}, {"time": 828, "pitch": 70, "duration": 10, "velocity": 117}, {"time": 840, "pitch": 58, "duration": 8, "velocity": 72}, {"time": 846, "pitch": 63, "duration": 7, "velocity": 117}, {"time": 846, "pitch": 67, "duration": 7, "velocity": 112}, {"time": 858, "pitch": 63, "duration": 4, "velocity": 117}, {"time": 858, "pitch": 67, "duration": 4, "velocity": 104}, {"time": 864, "pitch": 43, "duration": 16, "velocity": 106}, {"time": 876, "pitch": 55, "duration": 12, "velocity": 109}, {"time": 876, "pitch": 59, "duration": 9, "velocity": 109}, {"time": 876, "pitch": 62, "duration": 7, "velocity": 112}, {"time": 888, "pitch": 50, "duration": 7, "velocity": 82}, {"time": 894, "pitch": 55, "duration": 4, "velocity": 109}, {"time": 894, "pitch": 59, "duration": 6, "velocity": 115}, {"time": 894, "pitch": 67, "duration": 7, "velocity": 106}, {"time": 906, "pitch": 55, "duration": 4, "velocity": 109}, {"time": 912, "pitch": 44, "duration": 18, "velocity": 117}, {"time": 924, "pitch": 56, "duration": 15, "velocity": 113}, {"time": 924, "pitch": 60, "duration": 9, "velocity": 101}, {"time": 924, "pitch": 63, "duration": 13, "velocity": 107}, {"time": 936, "pitch": 51, "duration": 9, "velocity": 35}, {"time": 942, "pitch": 56, "duration": 4, "velocity": 117}, {"time": 942, "pitch": 60, "duration": 4, "velocity": 112}, {"time": 942, "pitch": 63, "duration": 4, "velocity": 120}, {"time": 942, "pitch": 68, "duration": 6, "velocity": 110}, {"time": 954, "pitch": 56, "duration": 3, "velocity": 107}, {"time": 960, "pitch": 44, "duration": 16, "velocity": 110}, {"time": 960, "pitch": 56, "duration": 8, "velocity": 101}, {"time": 960, "pitch": 60, "duration": 7, "velocity": 104}, {"time": 960, "pitch": 63, "duration": 8, "velocity": 99}, {"time": 972, "pitch": 56, "duration": 4, "velocity": 113}, {"time": 972, "pitch": 60, "duration": 7, "velocity": 104}, {"time": 972, "pitch": 63, "duration": 9, "velocity": 110}, {"time": 972, "pitch": 68, "duration": 8, "velocity": 107}, {"time": 978, "pitch": 56, "duration": 2, "velocity": 104}, {"time": 984, "pitch": 46, "duration": 16, "velocity": 77}, {"time": 990, "pitch": 58, "duration": 7, "velocity": 117}, {"time": 990, "pitch": 62, "duration": 7, "velocity": 118}, {"time": 996, "pitch": 53, "duration": 7, "velocity": 85}, {"time": 1002, "pitch": 58, "duration": 6, "velocity": 117}, {"time": 1002, "pitch": 62, "duration": 6, "velocity": 109}, {"time": 1008, "pitch": 48, "duration": 21, "velocity": 96}, {"time": 1014, "pitch": 55, "duration": 9, "velocity": 61}, {"time": 1020, "pitch": 60, "duration": 15, "velocity": 109}, {"time": 1020, "pitch": 63, "duration": 15, "velocity": 120}, {"time": 1020, "pitch": 67, "duration": 15, "velocity": 109}, {"time": 1032, "pitch": 48, "duration": 16, "velocity": 80}, {"time": 1032, "pitch": 55, "duration": 5, "velocity": 99}, {"time": 1038, "pitch": 55, "duration": 9, "velocity": 109}, {"time": 1038, "pitch": 60, "duration": 8, "velocity": 106}, {"time": 1038, "pitch": 63, "duration": 8, "velocity": 123}, {"time": 1038, "pitch": 67, "duration": 8, "velocity": 112}, {"time": 1050, "pitch": 60, "duration": 7, "velocity": 104}, {"time": 1050, "pitch": 63, "duration": 5, "velocity": 117}, {"time": 1050, "pitch": 67, "duration": 8, "velocity": 104}, {"time": 1056, "pitch": 43, "duration": 18, "velocity": 109}, {"time": 1068, "pitch": 55, "duration": 13, "velocity": 109}, {"time": 1068, "pitch": 59, "duration": 13, "velocity": 112}, {"time": 1068, "pitch": 62, "duration": 13, "velocity": 112}, {"time": 1080, "pitch": 50, "duration": 5, "velocity": 54}, {"time": 1086, "pitch": 55, "duration": 4, "velocity": 106}, {"time": 1086, "pitch": 59, "duration": 5, "velocity": 112}, {"time": 1086, "pitch": 62, "duration": 5, "velocity": 109}, {"time": 1086, "pitch": 67, "duration": 12, "velocity": 104}, {"time": 1104, "pitch": 44, "duration": 16, "velocity": 117}, {"time": 1104, "pitch": 56, "duration": 8, "velocity": 96}, {"time": 1104, "pitch": 60, "duration": 8, "velocity": 99}, {"time": 1104, "pitch": 63, "duration": 9, "velocity": 91}, {"time": 1116, "pitch": 56, "duration": 14, "velocity": 113}, {"time": 1116, "pitch": 60, "duration": 9, "velocity": 104}, {"time": 1116, "pitch": 63, "duration": 12, "velocity": 113}, {"time": 1116, "pitch": 68, "duration": 14, "velocity": 104}, {"time": 1128, "pitch": 51, "duration": 7, "velocity": 34}, {"time": 1134, "pitch": 56, "duration": 7, "velocity": 117}, {"time": 1134, "pitch": 60, "duration": 5, "velocity": 112}, {"time": 1134, "pitch": 63, "duration": 6, "velocity": 117}, {"time": 1134, "pitch": 68, "duration": 8, "velocity": 110}, {"time": 1140, "pitch": 44, "duration": 4, "velocity": 52}, {"time": 1146, "pitch": 56, "duration": 4, "velocity": 113}, {"time": 1146, "pitch": 60, "duration": 3, "velocity": 99}, {"time": 1146, "pitch": 63, "duration": 5, "velocity": 104}, {"time": 1146, "pitch": 68, "duration": 5, "velocity": 104}, {"time": 1152, "pitch": 46, "duration": 16, "velocity": 91}, {"time": 1164, "pitch": 58, "duration": 12, "velocity": 113}, {"time": 1164, "pitch": 62, "duration": 12, "velocity": 112}, {"time": 1164, "pitch": 65, "duration": 12, "velocity": 109}, {"time": 1176, "pitch": 46, "duration": 7, "velocity": 70}, {"time": 1176, "pitch": 53, "duration": 7, "velocity": 91}, {"time": 1182, "pitch": 58, "duration": 8, "velocity": 117}, {"time": 1182, "pitch": 62, "duration": 8, "velocity": 115}, {"time": 1182, "pitch": 65, "duration": 8, "velocity": 112}, {"time": 1188, "pitch": 46, "duration": 5, "velocity": 42}, {"time": 1188, "pitch": 53, "duration": 5, "velocity": 94}, {"time": 1194, "pitch": 58, "duration": 5, "velocity": 120}, {"time": 1194, "pitch": 62, "duration": 5, "velocity": 115}, {"time": 1194, "pitch": 65, "duration": 5, "velocity": 112}, {"time": 1200, "pitch": 39, "duration": 15, "velocity": 110}, {"time": 1200, "pitch": 55, "duration": 9, "velocity": 94}, {"time": 1200, "pitch": 58, "duration": 8, "velocity": 117}, {"time": 1200, "pitch": 63, "duration": 8, "velocity": 107}, {"time": 1212, "pitch": 58, "duration": 10, "velocity": 123}, {"time": 1212, "pitch": 63, "duration": 12, "velocity": 120}, {"time": 1218, "pitch": 55, "duration": 7, "velocity": 112}, {"time": 1224, "pitch": 43, "duration": 16, "velocity": 112}, {"time": 1230, "pitch": 55, "duration": 8, "velocity": 112}, {"time": 1230, "pitch": 59, "duration": 16, "velocity": 109}, {"time": 1230, "pitch": 62, "duration": 17, "velocity": 109}, {"time": 1242, "pitch": 55, "duration": 4, "velocity": 112}, {"time": 1248, "pitch": 44, "duration": 17, "velocity": 86}, {"time": 1254, "pitch": 56, "duration": 7, "velocity": 117}, {"time": 1254, "pitch": 60, "duration": 7, "velocity": 109}, {"time": 1254, "pitch": 63, "duration": 8, "velocity": 107}, {"time": 1266, "pitch": 56, "duration": 5, "velocity": 117}, {"time": 1266, "pitch": 60, "duration": 4, "velocity": 104}, {"time": 1266, "pitch": 63, "duration": 5, "velocity": 117}, {"time": 1272, "pitch": 39, "duration": 8, "velocity": 63}, {"time": 1278, "pitch": 51, "duration": 7, "velocity": 110}, {"time": 1278, "pitch": 55, "duration": 6, "velocity": 109}, {"time": 1278, "pitch": 58, "duration": 6, "velocity": 101}, {"time": 1284, "pitch": 46, "duration": 2, "velocity": 66}, {"time": 1290, "pitch": 51, "duration": 2, "velocity": 110}, {"time": 1290, "pitch": 55, "duration": 1, "velocity": 87}, {"time": 1290, "pitch": 58, "duration": 2, "velocity": 99}, {"time": 1296, "pitch": 41, "duration": 17, "velocity": 106}, {"time": 1296, "pitch": 53, "duration": 8, "velocity": 104}, {"time": 1296, "pitch": 56, "duration": 7, "velocity": 104}, {"time": 1308, "pitch": 53, "duration": 9, "velocity": 106}, {"time": 1308, "pitch": 56, "duration": 8, "velocity": 113}, {"time": 1308, "pitch": 60, "duration": 10, "velocity": 109}, {"time": 1320, "pitch": 53, "duration": 1, "velocity": 78}, {"time": 1320, "pitch": 60, "duration": 1, "velocity": 94}, {"time": 1320, "pitch": 65, "duration": 1, "velocity": 69}, {"time": 1326, "pitch": 53, "duration": 6, "velocity": 109}, {"time": 1326, "pitch": 56, "duration": 6, "velocity": 123}, {"time": 1326, "pitch": 60, "duration": 7, "velocity": 112}, {"time": 1326, "pitch": 65, "duration": 7, "velocity": 104}, {"time": 1332, "pitch": 41, "duration": 3, "velocity": 91}, {"time": 1338, "pitch": 53, "duration": 5, "velocity": 109}, {"time": 1338, "pitch": 56, "duration": 4, "velocity": 120}, {"time": 1338, "pitch": 60, "duration": 6, "velocity": 112}, {"time": 1338, "pitch": 65, "duration": 4, "velocity": 101}, {"time": 1344, "pitch": 46, "duration": 8, "velocity": 93}, {"time": 1350, "pitch": 53, "duration": 3, "velocity": 106}, {"time": 1350, "pitch": 58, "duration": 3, "velocity": 120}, {"time": 1350, "pitch": 62, "duration": 3, "velocity": 112}, {"time": 1362, "pitch": 53, "duration": 7, "velocity": 106}, {"time": 1362, "pitch": 58, "duration": 8, "velocity": 117}, {"time": 1362, "pitch": 62, "duration": 8, "velocity": 112}, {"time": 1368, "pitch": 46, "duration": 8, "velocity": 55}, {"time": 1374, "pitch": 53, "duration": 2, "velocity": 104}, {"time": 1380, "pitch": 46, "duration": 8, "velocity": 110}, {"time": 1380, "pitch": 53, "duration": 3, "velocity": 112}, {"time": 1380, "pitch": 58, "duration": 9, "velocity": 123}, {"time": 1380, "pitch": 62, "duration": 10, "velocity": 115}, {"time": 1386, "pitch": 53, "duration": 4, "velocity": 104}, {"time": 1392, "pitch": 39, "duration": 15, "velocity": 110}, {"time": 1392, "pitch": 55, "duration": 9, "velocity": 94}, {"time": 1392, "pitch": 58, "duration": 8, "velocity": 117}, {"time": 1392, "pitch": 63, "duration": 8, "velocity": 107}, {"time": 1404, "pitch": 58, "duration": 10, "velocity": 123}, {"time": 1404, "pitch": 63, "duration": 12, "velocity": 120}, {"time": 1410, "pitch": 55, "duration": 7, "velocity": 112}, {"time": 1416, "pitch": 43, "duration": 16, "velocity": 112}, {"time": 1422, "pitch": 55, "duration": 8, "velocity": 112}, {"time": 1422, "pitch": 59, "duration": 16, "velocity": 109}, {"time": 1422, "pitch": 62, "duration": 17, "velocity": 109}, {"time": 1434, "pitch": 55, "duration": 4, "velocity": 112}, {"time": 1440, "pitch": 44, "duration": 17, "velocity": 86}, {"time": 1446, "pitch": 56, "duration": 7, "velocity": 117}, {"time": 1446, "pitch": 60, "duration": 7, "velocity": 109}, {"time": 1446, "pitch": 63, "duration": 8, "velocity": 107}, {"time": 1458, "pitch": 56, "duration": 5, "velocity": 117}, {"time": 1458, "pitch": 60, "duration": 4, "velocity": 104}, {"time": 1458, "pitch": 63, "duration": 5, "velocity": 117}, {"time": 1464, "pitch": 39, "duration": 8, "velocity": 63}, {"time": 1470, "pitch": 51, "duration": 7, "velocity": 110}, {"time": 1470, "pitch": 55, "duration": 6, "velocity": 109}, {"time": 1470, "pitch": 58, "duration": 6, "velocity": 101}, {"time": 1476, "pitch": 46, "duration": 2, "velocity": 66}, {"time": 1482, "pitch": 51, "duration": 2, "velocity": 110}, {"time": 1482, "pitch": 55, "duration": 1, "velocity": 87}, {"time": 1482, "pitch": 58, "duration": 2, "velocity": 99}, {"time": 1488, "pitch": 41, "duration": 17, "velocity": 106}, {"time": 1488, "pitch": 53, "duration": 8, "velocity": 104}, {"time": 1488, "pitch": 56, "duration": 7, "velocity": 104}, {"time": 1500, "pitch": 53, "duration": 9, "velocity": 106}, {"time": 1500, "pitch": 56, "duration": 8, "velocity": 113}, {"time": 1500, "pitch": 60, "duration": 10, "velocity": 109}, {"time": 1512, "pitch": 53, "duration": 1, "velocity": 78}, {"time": 1512, "pitch": 60, "duration": 1, "velocity": 94}, {"time": 1512, "pitch": 65, "duration": 1, "velocity": 69}, {"time": 1518, "pitch": 53, "duration": 6, "velocity": 109}, {"time": 1518, "pitch": 56, "duration": 6, "velocity": 123}, {"time": 1518, "pitch": 60, "duration": 7, "velocity": 112}, {"time": 1518, "pitch": 65, "duration": 7, "velocity": 104}, {"time": 1524, "pitch": 41, "duration": 3, "velocity": 91}, {"time": 1530, "pitch": 53, "duration": 5, "velocity": 109}, {"time": 1530, "pitch": 56, "duration": 4, "velocity": 120}, {"time": 1530, "pitch": 60, "duration": 6, "velocity": 112}, {"time": 1530, "pitch": 65, "duration": 4, "velocity": 101}, {"time": 1536, "pitch": 46, "duration": 8, "velocity": 93}, {"time": 1542, "pitch": 53, "duration": 3, "velocity": 106}, {"time": 1542, "pitch": 58, "duration": 3, "velocity": 120}, {"time": 1542, "pitch": 62, "duration": 3, "velocity": 112}, {"time": 1554, "pitch": 53, "duration": 7, "velocity": 106}, {"time": 1554, "pitch": 58, "duration": 8, "velocity": 117}, {"time": 1554, "pitch": 62, "duration": 8, "velocity": 112}, {"time": 1560, "pitch": 46, "duration": 8, "velocity": 55}, {"time": 1566, "pitch": 53, "duration": 2, "velocity": 104}, {"time": 1572, "pitch": 46, "duration": 8, "velocity": 110}, {"time": 1572, "pitch": 53, "duration": 3, "velocity": 112}, {"time": 1572, "pitch": 58, "duration": 9, "velocity": 123}, {"time": 1572, "pitch": 62, "duration": 10, "velocity": 115}, {"time": 1578, "pitch": 53, "duration": 4, "velocity": 104}, {"time": 1584, "pitch": 48, "duration": 31, "velocity": 104}, {"time": 1584, "pitch": 60, "duration": 6, "velocity": 99}, {"time": 1584, "pitch": 63, "duration": 12, "velocity": 113}, {"time": 1590, "pitch": 55, "duration": 18, "velocity": 78}, {"time": 1596, "pitch": 60, "duration": 2, "velocity": 78}, {"time": 1602, "pitch": 60, "duration": 13, "velocity": 101}, {"time": 1602, "pitch": 63, "duration": 14, "velocity": 117}, {"time": 1602, "pitch": 67, "duration": 14, "velocity": 104}, {"time": 1620, "pitch": 60, "duration": 3, "velocity": 99}, {"time": 1626, "pitch": 63, "duration": 6, "velocity": 110}, {"time": 1632, "pitch": 46, "duration": 37, "velocity": 88}, {"time": 1632, "pitch": 62, "duration": 9, "velocity": 106}, {"time": 1638, "pitch": 53, "duration": 24, "velocity": 89}, {"time": 1644, "pitch": 58, "duration": 3, "velocity": 107}, {"time": 1650, "pitch": 58, "duration": 19, "velocity": 99}, {"time": 1650, "pitch": 62, "duration": 19, "velocity": 106}, {"time": 1650, "pitch": 67, "duration": 21, "velocity": 91}, {"time": 1680, "pitch": 44, "duration": 35, "velocity": 107}, {"time": 1680, "pitch": 56, "duration": 6, "velocity": 110}, {"time": 1680, "pitch": 63, "duration": 15, "velocity": 104}, {"time": 1686, "pitch": 51, "duration": 30, "velocity": 101}, {"time": 1692, "pitch": 56, "duration": 4, "velocity": 93}, {"time": 1698, "pitch": 56, "duration": 15, "velocity": 110}, {"time": 1698, "pitch": 60, "duration": 5, "velocity": 106}, {"time": 1698, "pitch": 63, "duration": 9, "velocity": 101}, {"time": 1698, "pitch": 67, "duration": 56, "velocity": 101}, {"time": 1716, "pitch": 60, "duration": 1, "velocity": 87}, {"time": 1716, "pitch": 63, "duration": 31, "velocity": 117}, {"time": 1722, "pitch": 56, "duration": 10, "velocity": 113}, {"time": 1728, "pitch": 44, "duration": 30, "velocity": 99}, {"time": 1776, "pitch": 48, "duration": 19, "velocity": 101}, {"time": 1776, "pitch": 60, "duration": 9, "velocity": 94}, {"time": 1776, "pitch": 63, "duration": 9, "velocity": 104}, {"time": 1776, "pitch": 67, "duration": 9, "velocity": 101}, {"time": 1788, "pitch": 60, "duration": 13, "velocity": 99}, {"time": 1788, "pitch": 63, "duration": 12, "velocity": 117}, {"time": 1788, "pitch": 67, "duration": 11, "velocity": 104}, {"time": 1806, "pitch": 60, "duration": 4, "velocity": 101}, {"time": 1806, "pitch": 63, "duration": 10, "velocity": 120}, {"time": 1806, "pitch": 67, "duration": 14, "velocity": 104}, {"time": 1824, "pitch": 46, "duration": 40, "velocity": 99}, {"time": 1824, "pitch": 58, "duration": 10, "velocity": 110}, {"time": 1824, "pitch": 62, "duration": 9, "velocity": 106}, {"time": 1824, "pitch": 67, "duration": 10, "velocity": 96}, {"time": 1836, "pitch": 58, "duration": 15, "velocity": 113}, {"time": 1836, "pitch": 62, "duration": 14, "velocity": 109}, {"time": 1836, "pitch": 67, "duration": 15, "velocity": 94}, {"time": 1848, "pitch": 53, "duration": 8, "velocity": 38}, {"time": 1854, "pitch": 58, "duration": 5, "velocity": 113}, {"time": 1854, "pitch": 62, "duration": 8, "velocity": 112}, {"time": 1854, "pitch": 67, "duration": 19, "velocity": 106}, {"time": 1872, "pitch": 43, "duration": 18, "velocity": 106}, {"time": 1872, "pitch": 55, "duration": 9, "velocity": 91}, {"time": 1872, "pitch": 58, "duration": 9, "velocity": 99}, {"time": 1872, "pitch": 62, "duration": 9, "velocity": 106}, {"time": 1884, "pitch": 55, "duration": 12, "velocity": 101}, {"time": 1884, "pitch": 58, "duration": 10, "velocity": 113}, {"time": 1884, "pitch": 62, "duration": 12, "velocity": 112}, {"time": 1896, "pitch": 50, "duration": 3, "velocity": 55}, {"time": 1902, "pitch": 55, "duration": 4, "velocity": 106}, {"time": 1902, "pitch": 58, "duration": 9, "velocity": 123}, {"time": 1902, "pitch": 62, "duration": 18, "velocity": 115}, {"time": 1902, "pitch": 67, "duration": 19, "velocity": 106}, {"time": 1914, "pitch": 55, "duration": 5, "velocity": 104}, {"time": 1914, "pitch": 58, "duration": 4, "velocity": 17}, {"time": 1920, "pitch": 44, "duration": 15, "velocity": 110}, {"time": 1932, "pitch": 56, "duration": 14, "velocity": 113}, {"time": 1932, "pitch": 60, "duration": 10, "velocity": 104}, {"time": 1932, "pitch": 63, "duration": 13, "velocity": 107}, {"time": 1944, "pitch": 51, "duration": 8, "velocity": 29}, {"time": 1950, "pitch": 56, "duration": 8, "velocity": 117}, {"time": 1950, "pitch": 60, "duration": 8, "velocity": 109}, {"time": 1950, "pitch": 63, "duration": 10, "velocity": 117}, {"time": 1950, "pitch": 68, "duration": 17, "velocity": 107}, {"time": 1956, "pitch": 44, "duration": 8, "velocity": 79}, {"time": 1962, "pitch": 56, "duration": 5, "velocity": 120}, {"time": 1962, "pitch": 63, "duration": 6, "velocity": 26}, {"time": 1968, "pitch": 48, "duration": 19, "velocity": 101}, {"time": 1968, "pitch": 60, "duration": 9, "velocity": 94}, {"time": 1968, "pitch": 63, "duration": 9, "velocity": 104}, {"time": 1968, "pitch": 67, "duration": 9, "velocity": 101}, {"time": 1980, "pitch": 60, "duration": 13, "velocity": 99}, {"time": 1980, "pitch": 63, "duration": 12, "velocity": 117}, {"time": 1980, "pitch": 67, "duration": 11, "velocity": 104}, {"time": 1998, "pitch": 60, "duration": 4, "velocity": 101}, {"time": 1998, "pitch": 63, "duration": 10, "velocity": 120}, {"time": 1998, "pitch": 67, "duration": 14, "velocity": 104}, {"time": 2016, "pitch": 46, "duration": 40, "velocity": 99}, {"time": 2016, "pitch": 58, "duration": 10, "velocity": 110}, {"time": 2016, "pitch": 62, "duration": 9, "velocity": 106}, {"time": 2016, "pitch": 67, "duration": 10, "velocity": 96}, {"time": 2028, "pitch": 58, "duration": 15, "velocity": 113}, {"time": 2028, "pitch": 62, "duration": 14, "velocity": 109}, {"time": 2028, "pitch": 67, "duration": 15, "velocity": 94}, {"time": 2040, "pitch": 53, "duration": 8, "velocity": 38}, {"time": 2046, "pitch": 58, "duration": 5, "velocity": 113}, {"time": 2046, "pitch": 62, "duration": 8, "velocity": 112}, {"time": 2046, "pitch": 67, "duration": 19, "velocity": 106}, {"time": 2064, "pitch": 43, "duration": 18, "velocity": 106}, {"time": 2064, "pitch": 55, "duration": 9, "velocity": 91}, {"time": 2064, "pitch": 58, "duration": 9, "velocity": 99}, {"time": 2064, "pitch": 62, "duration": 9, "velocity": 106}, {"time": 2076, "pitch": 55, "duration": 12, "velocity": 101}, {"time": 2076, "pitch": 58, "duration": 10, "velocity": 113}, {"time": 2076, "pitch": 62, "duration": 12, "velocity": 112}, {"time": 2088, "pitch": 50, "duration": 3, "velocity": 55}, {"time": 2094, "pitch": 55, "duration": 4, "velocity": 106}, {"time": 2094, "pitch": 58, "duration": 9, "velocity": 123}, {"time": 2094, "pitch": 62, "duration": 18, "velocity": 115}, {"time": 2094, "pitch": 67, "duration": 19, "velocity": 106}, {"time": 2106, "pitch": 55, "duration": 5, "velocity": 104}, {"time": 2106, "pitch": 58, "duration": 4, "velocity": 17}, {"time": 2112, "pitch": 44, "duration": 15, "velocity": 110}, {"time": 2124, "pitch": 56, "duration": 14, "velocity": 113}, {"time": 2124, "pitch": 60, "duration": 10, "velocity": 104}, {"time": 2124, "pitch": 63, "duration": 13, "velocity": 107}, {"time": 2136, "pitch": 51, "duration": 8, "velocity": 29}, {"time": 2142, "pitch": 56, "duration": 8, "velocity": 117}, {"time": 2142, "pitch": 60, "duration": 8, "velocity": 109}, {"time": 2142, "pitch": 63, "duration": 10, "velocity": 117}, {"time": 2142, "pitch": 68, "duration": 17, "velocity": 107}, {"time": 2148, "pitch": 44, "duration": 8, "velocity": 79}, {"time": 2154, "pitch": 56, "duration": 5, "velocity": 120}, {"time": 2154, "pitch": 63, "duration": 6, "velocity": 26}, {"time": 2160, "pitch": 51, "duration": 30, "velocity": 117}, {"time": 2160, "pitch": 63, "duration": 9, "velocity": 107}, {"time": 2160, "pitch": 67, "duration": 9, "velocity": 109}, {"time": 2172, "pitch": 63, "duration": 12, "velocity": 113}, {"time": 2172, "pitch": 67, "duration": 12, "velocity": 109}, {"time": 2172, "pitch": 70, "duration": 11, "velocity": 117}, {"time": 2184, "pitch": 58, "duration": 8, "velocity": 72}, {"time": 2190, "pitch": 63, "duration": 7, "velocity": 117}, {"time": 2190, "pitch": 67, "duration": 7, "velocity": 112}, {"time": 2202, "pitch": 63, "duration": 5, "velocity": 117}, {"time": 2202, "pitch": 67, "duration": 4, "velocity": 104}, {"time": 2208, "pitch": 43, "duration": 17, "velocity": 106}, {"time": 2220, "pitch": 55, "duration": 13, "velocity": 109}, {"time": 2220, "pitch": 59, "duration": 10, "velocity": 109}, {"time": 2220, "pitch": 62, "duration": 8, "velocity": 112}, {"time": 2232, "pitch": 50, "duration": 7, "velocity": 82}, {"time": 2238, "pitch": 55, "duration": 5, "velocity": 109}, {"time": 2238, "pitch": 59, "duration": 6, "velocity": 115}, {"time": 2238, "pitch": 67, "duration": 8, "velocity": 106}, {"time": 2250, "pitch": 55, "duration": 5, "velocity": 109}, {"time": 2256, "pitch": 44, "duration": 19, "velocity": 117}, {"time": 2268, "pitch": 56, "duration": 15, "velocity": 113}, {"time": 2268, "pitch": 60, "duration": 10, "velocity": 101}, {"time": 2268, "pitch": 63, "duration": 13, "velocity": 107}, {"time": 2280, "pitch": 51, "duration": 9, "velocity": 35}, {"time": 2286, "pitch": 56, "duration": 5, "velocity": 117}, {"time": 2286, "pitch": 60, "duration": 4, "velocity": 112}, {"time": 2286, "pitch": 63, "duration": 5, "velocity": 120}, {"time": 2286, "pitch": 68, "duration": 6, "velocity": 110}, {"time": 2298, "pitch": 56, "duration": 3, "velocity": 107}, {"time": 2304, "pitch": 44, "duration": 17, "velocity": 110}, {"time": 2304, "pitch": 56, "duration": 8, "velocity": 101}, {"time": 2304, "pitch": 60, "duration": 7, "velocity": 104}, {"time": 2304, "pitch": 63, "duration": 8, "velocity": 99}, {"time": 2316, "pitch": 56, "duration": 4, "velocity": 113}, {"time": 2316, "pitch": 60, "duration": 7, "velocity": 104}, {"time": 2316, "pitch": 63, "duration": 9, "velocity": 110}, {"time": 2316, "pitch": 68, "duration": 9, "velocity": 107}, {"time": 2322, "pitch": 56, "duration": 2, "velocity": 104}, {"time": 2328, "pitch": 46, "duration": 17, "velocity": 77}, {"time": 2334, "pitch": 58, "duration": 8, "velocity": 117}, {"time": 2334, "pitch": 62, "duration": 8, "velocity": 118}, {"time": 2340, "pitch": 53, "duration": 8, "velocity": 85}, {"time": 2346, "pitch": 58, "duration": 6, "velocity": 117}, {"time": 2346, "pitch": 62, "duration": 6, "velocity": 109}, {"time": 2352, "pitch": 48, "duration": 21, "velocity": 96}, {"time": 2358, "pitch": 55, "duration": 10, "velocity": 61}, {"time": 2364, "pitch": 60, "duration": 15, "velocity": 109}, {"time": 2364, "pitch": 63, "duration": 15, "velocity": 120}, {"time": 2364, "pitch": 67, "duration": 15, "velocity": 109}, {"time": 2376, "pitch": 48, "duration": 17, "velocity": 80}, {"time": 2376, "pitch": 55, "duration": 5, "velocity": 99}, {"time": 2382, "pitch": 55, "duration": 10, "velocity": 109}, {"time": 2382, "pitch": 60, "duration": 8, "velocity": 106}, {"time": 2382, "pitch": 63, "duration": 8, "velocity": 123}, {"time": 2382, "pitch": 67, "duration": 9, "velocity": 112}, {"time": 2394, "pitch": 60, "duration": 7, "velocity": 104}, {"time": 2394, "pitch": 63, "duration": 6, "velocity": 117}, {"time": 2394, "pitch": 67, "duration": 8, "velocity": 104}, {"time": 2400, "pitch": 43, "duration": 19, "velocity": 109}, {"time": 2412, "pitch": 55, "duration": 14, "velocity": 109}, {"time": 2412, "pitch": 59, "duration": 13, "velocity": 112}, {"time": 2412, "pitch": 62, "duration": 14, "velocity": 112}, {"time": 2424, "pitch": 50, "duration": 5, "velocity": 54}, {"time": 2430, "pitch": 55, "duration": 5, "velocity": 106}, {"time": 2430, "pitch": 59, "duration": 6, "velocity": 112}, {"time": 2430, "pitch": 62, "duration": 5, "velocity": 109}, {"time": 2430, "pitch": 67, "duration": 12, "velocity": 104}, {"time": 2448, "pitch": 44, "duration": 17, "velocity": 117}, {"time": 2448, "pitch": 56, "duration": 9, "velocity": 96}, {"time": 2448, "pitch": 60, "duration": 9, "velocity": 99}, {"time": 2448, "pitch": 63, "duration": 9, "velocity": 91}, {"time": 2460, "pitch": 56, "duration": 14, "velocity": 113}, {"time": 2460, "pitch": 60, "duration": 9, "velocity": 104}, {"time": 2460, "pitch": 63, "duration": 13, "velocity": 113}, {"time": 2460, "pitch": 68, "duration": 14, "velocity": 104}, {"time": 2472, "pitch": 51, "duration": 7, "velocity": 34}, {"time": 2478, "pitch": 56, "duration": 7, "velocity": 117}, {"time": 2478, "pitch": 60, "duration": 6, "velocity": 112}, {"time": 2478, "pitch": 63, "duration": 7, "velocity": 117}, {"time": 2478, "pitch": 68, "duration": 9, "velocity": 110}, {"time": 2484, "pitch": 44, "duration": 5, "velocity": 52}, {"time": 2490, "pitch": 56, "duration": 5, "velocity": 113}, {"time": 2490, "pitch": 60, "duration": 4, "velocity": 99}, {"time": 2490, "pitch": 63, "duration": 6, "velocity": 104}, {"time": 2490, "pitch": 68, "duration": 6, "velocity": 104}, {"time": 2496, "pitch": 46, "duration": 16, "velocity": 91}, {"time": 2508, "pitch": 58, "duration": 13, "velocity": 113}, {"time": 2508, "pitch": 62, "duration": 13, "velocity": 112}, {"time": 2508, "pitch": 65, "duration": 13, "velocity": 109}, {"time": 2520, "pitch": 53, "duration": 8, "velocity": 91}, {"time": 2521, "pitch": 46, "duration": 7, "velocity": 70}, {"time": 2527, "pitch": 58, "duration": 18, "velocity": 117}, {"time": 2527, "pitch": 62, "duration": 17, "velocity": 115}, {"time": 2527, "pitch": 65, "duration": 17, "velocity": 112}, {"time": 2533, "pitch": 46, "duration": 11, "velocity": 42}, {"time": 2533, "pitch": 53, "duration": 12, "velocity": 94}, {"time": 2545, "pitch": 39, "duration": 15, "velocity": 110}, {"time": 2545, "pitch": 55, "duration": 9, "velocity": 94}, {"time": 2545, "pitch": 58, "duration": 9, "velocity": 117}, {"time": 2545, "pitch": 63, "duration": 9, "velocity": 107}, {"time": 2557, "pitch": 58, "duration": 11, "velocity": 123}, {"time": 2557, "pitch": 63, "duration": 13, "velocity": 120}, {"time": 2563, "pitch": 55, "duration": 8, "velocity": 112}, {"time": 2569, "pitch": 43, "duration": 16, "velocity": 112}, {"time": 2575, "pitch": 55, "duration": 8, "velocity": 112}, {"time": 2575, "pitch": 59, "duration": 16, "velocity": 109}, {"time": 2575, "pitch": 62, "duration": 18, "velocity": 109}, {"time": 2587, "pitch": 55, "duration": 5, "velocity": 112}, {"time": 2593, "pitch": 44, "duration": 18, "velocity": 86}, {"time": 2599, "pitch": 56, "duration": 8, "velocity": 117}, {"time": 2599, "pitch": 60, "duration": 8, "velocity": 109}, {"time": 2599, "pitch": 63, "duration": 8, "velocity": 107}, {"time": 2611, "pitch": 56, "duration": 5, "velocity": 117}, {"time": 2611, "pitch": 60, "duration": 4, "velocity": 104}, {"time": 2611, "pitch": 63, "duration": 5, "velocity": 117}, {"time": 2617, "pitch": 39, "duration": 8, "velocity": 63}, {"time": 2623, "pitch": 51, "duration": 8, "velocity": 110}, {"time": 2623, "pitch": 55, "duration": 6, "velocity": 109}, {"time": 2623, "pitch": 58, "duration": 7, "velocity": 101}, {"time": 2629, "pitch": 46, "duration": 2, "velocity": 66}, {"time": 2635, "pitch": 51, "duration": 2, "velocity": 110}, {"time": 2635, "pitch": 55, "duration": 1, "velocity": 87}, {"time": 2635, "pitch": 58, "duration": 3, "velocity": 99}, {"time": 2641, "pitch": 41, "duration": 17, "velocity": 106}, {"time": 2641, "pitch": 53, "duration": 8, "velocity": 104}, {"time": 2641, "pitch": 56, "duration": 8, "velocity": 104}, {"time": 2653, "pitch": 53, "duration": 9, "velocity": 106}, {"time": 2653, "pitch": 56, "duration": 8, "velocity": 113}, {"time": 2653, "pitch": 60, "duration": 10, "velocity": 109}, {"time": 2665, "pitch": 53, "duration": 1, "velocity": 78}, {"time": 2665, "pitch": 60, "duration": 2, "velocity": 94}, {"time": 2665, "pitch": 65, "duration": 1, "velocity": 69}, {"time": 2671, "pitch": 53, "duration": 7, "velocity": 109}, {"time": 2671, "pitch": 56, "duration": 6, "velocity": 123}, {"time": 2671, "pitch": 60, "duration": 7, "velocity": 112}, {"time": 2671, "pitch": 65, "duration": 7, "velocity": 104}, {"time": 2677, "pitch": 41, "duration": 4, "velocity": 91}, {"time": 2683, "pitch": 53, "duration": 5, "velocity": 109}, {"time": 2683, "pitch": 56, "duration": 5, "velocity": 120}, {"time": 2683, "pitch": 60, "duration": 7, "velocity": 112}, {"time": 2683, "pitch": 65, "duration": 4, "velocity": 101}, {"time": 2689, "pitch": 46, "duration": 8, "velocity": 93}, {"time": 2695, "pitch": 53, "duration": 3, "velocity": 106}, {"time": 2695, "pitch": 58, "duration": 4, "velocity": 120}, {"time": 2695, "pitch": 62, "duration": 4, "velocity": 112}, {"time": 2707, "pitch": 53, "duration": 8, "velocity": 106}, {"time": 2707, "pitch": 58, "duration": 9, "velocity": 117}, {"time": 2707, "pitch": 62, "duration": 9, "velocity": 112}, {"time": 2713, "pitch": 46, "duration": 8, "velocity": 55}, {"time": 2719, "pitch": 53, "duration": 3, "velocity": 104}, {"time": 2725, "pitch": 46, "duration": 9, "velocity": 110}, {"time": 2725, "pitch": 53, "duration": 4, "velocity": 112}, {"time": 2725, "pitch": 58, "duration": 9, "velocity": 123}, {"time": 2725, "pitch": 62, "duration": 10, "velocity": 115}, {"time": 2731, "pitch": 53, "duration": 4, "velocity": 104}, {"time": 2737, "pitch": 39, "duration": 15, "velocity": 110}, {"time": 2737, "pitch": 55, "duration": 9, "velocity": 94}, {"time": 2737, "pitch": 58, "duration": 9, "velocity": 117}, {"time": 2737, "pitch": 63, "duration": 9, "velocity": 107}, {"time": 2749, "pitch": 58, "duration": 11, "velocity": 123}, {"time": 2749, "pitch": 63, "duration": 13, "velocity": 120}, {"time": 2755, "pitch": 55, "duration": 8, "velocity": 112}, {"time": 2761, "pitch": 43, "duration": 16, "velocity": 112}, {"time": 2767, "pitch": 55, "duration": 8, "velocity": 112}, {"time": 2767, "pitch": 59, "duration": 16, "velocity": 109}, {"time": 2767, "pitch": 62, "duration": 18, "velocity": 109}, {"time": 2779, "pitch": 55, "duration": 5, "velocity": 112}, {"time": 2785, "pitch": 44, "duration": 18, "velocity": 86}, {"time": 2791, "pitch": 56, "duration": 8, "velocity": 117}, {"time": 2791, "pitch": 60, "duration": 8, "velocity": 109}, {"time": 2791, "pitch": 63, "duration": 8, "velocity": 107}, {"time": 2803, "pitch": 56, "duration": 5, "velocity": 117}, {"time": 2803, "pitch": 60, "duration": 4, "velocity": 104}, {"time": 2803, "pitch": 63, "duration": 5, "velocity": 117}, {"time": 2809, "pitch": 39, "duration": 8, "velocity": 63}, {"time": 2815, "pitch": 51, "duration": 8, "velocity": 110}, {"time": 2815, "pitch": 55, "duration": 6, "velocity": 109}, {"time": 2815, "pitch": 58, "duration": 7, "velocity": 101}, {"time": 2821, "pitch": 46, "duration": 2, "velocity": 66}, {"time": 2827, "pitch": 51, "duration": 2, "velocity": 110}, {"time": 2827, "pitch": 55, "duration": 1, "velocity": 87}, {"time": 2827, "pitch": 58, "duration": 3, "velocity": 99}, {"time": 2833, "pitch": 41, "duration": 17, "velocity": 106}, {"time": 2833, "pitch": 53, "duration": 8, "velocity": 104}, {"time": 2833, "pitch": 56, "duration": 8, "velocity": 104}, {"time": 2845, "pitch": 53, "duration": 9, "velocity": 106}, {"time": 2845, "pitch": 56, "duration": 8, "velocity": 113}, {"time": 2845, "pitch": 60, "duration": 10, "velocity": 109}, {"time": 2857, "pitch": 53, "duration": 1, "velocity": 78}, {"time": 2857, "pitch": 60, "duration": 2, "velocity": 94}, {"time": 2857, "pitch": 65, "duration": 1, "velocity": 69}, {"time": 2863, "pitch": 53, "duration": 7, "velocity": 109}, {"time": 2863, "pitch": 56, "duration": 6, "velocity": 123}, {"time": 2863, "pitch": 60, "duration": 7, "velocity": 112}, {"time": 2863, "pitch": 65, "duration": 7, "velocity": 104}, {"time": 2869, "pitch": 41, "duration": 4, "velocity": 91}, {"time": 2875, "pitch": 53, "duration": 5, "velocity": 109}, {"time": 2875, "pitch": 56, "duration": 5, "velocity": 120}, {"time": 2875, "pitch": 60, "duration": 7, "velocity": 112}, {"time": 2875, "pitch": 65, "duration": 4, "velocity": 101}, {"time": 2881, "pitch": 46, "duration": 8, "velocity": 93}, {"time": 2887, "pitch": 53, "duration": 3, "velocity": 106}, {"time": 2887, "pitch": 58, "duration": 4, "velocity": 120}, {"time": 2887, "pitch": 62, "duration": 4, "velocity": 112}, {"time": 2899, "pitch": 53, "duration": 8, "velocity": 106}, {"time": 2899, "pitch": 58, "duration": 9, "velocity": 117}, {"time": 2899, "pitch": 62, "duration": 9, "velocity": 112}, {"time": 2905, "pitch": 46, "duration": 8, "velocity": 55}, {"time": 2911, "pitch": 53, "duration": 3, "velocity": 104}, {"time": 2917, "pitch": 46, "duration": 9, "velocity": 110}, {"time": 2917, "pitch": 53, "duration": 4, "velocity": 112}, {"time": 2917, "pitch": 58, "duration": 9, "velocity": 123}, {"time": 2917, "pitch": 62, "duration": 10, "velocity": 115}, {"time": 2923, "pitch": 53, "duration": 4, "velocity": 104}, {"time": 2929, "pitch": 48, "duration": 31, "velocity": 104}, {"time": 2929, "pitch": 60, "duration": 7, "velocity": 99}, {"time": 2929, "pitch": 63, "duration": 12, "velocity": 113}, {"time": 2935, "pitch": 55, "duration": 19, "velocity": 78}, {"time": 2941, "pitch": 60, "duration": 3, "velocity": 78}, {"time": 2947, "pitch": 60, "duration": 13, "velocity": 101}, {"time": 2947, "pitch": 63, "duration": 14, "velocity": 117}, {"time": 2947, "pitch": 67, "duration": 15, "velocity": 104}, {"time": 2965, "pitch": 60, "duration": 3, "velocity": 99}, {"time": 2971, "pitch": 63, "duration": 7, "velocity": 110}, {"time": 2977, "pitch": 46, "duration": 38, "velocity": 88}, {"time": 2977, "pitch": 62, "duration": 10, "velocity": 106}, {"time": 2983, "pitch": 53, "duration": 25, "velocity": 89}, {"time": 2989, "pitch": 58, "duration": 4, "velocity": 107}, {"time": 2995, "pitch": 58, "duration": 19, "velocity": 99}, {"time": 2995, "pitch": 62, "duration": 19, "velocity": 106}, {"time": 2995, "pitch": 67, "duration": 21, "velocity": 91}, {"time": 3025, "pitch": 44, "duration": 36, "velocity": 107}, {"time": 3025, "pitch": 56, "duration": 7, "velocity": 110}, {"time": 3025, "pitch": 63, "duration": 15, "velocity": 104}, {"time": 3031, "pitch": 51, "duration": 30, "velocity": 101}, {"time": 3037, "pitch": 56, "duration": 4, "velocity": 93}, {"time": 3043, "pitch": 56, "duration": 15, "velocity": 110}, {"time": 3043, "pitch": 60, "duration": 6, "velocity": 106}, {"time": 3043, "pitch": 63, "duration": 9, "velocity": 101}, {"time": 3043, "pitch": 67, "duration": 56, "velocity": 101}, {"time": 3061, "pitch": 60, "duration": 1, "velocity": 87}, {"time": 3061, "pitch": 63, "duration": 31, "velocity": 117}, {"time": 3067, "pitch": 56, "duration": 11, "velocity": 113}, {"time": 3073, "pitch": 44, "duration": 30, "velocity": 99}, {"time": 3121, "pitch": 48, "duration": 31, "velocity": 104}, {"time": 3121, "pitch": 60, "duration": 7, "velocity": 99}, {"time": 3121, "pitch": 63, "duration": 12, "velocity": 113}, {"time": 3127, "pitch": 55, "duration": 19, "velocity": 78}, {"time": 3133, "pitch": 60, "duration": 3, "velocity": 78}, {"time": 3139, "pitch": 60, "duration": 13, "velocity": 101}, {"time": 3139, "pitch": 63, "duration": 14, "velocity": 117}, {"time": 3139, "pitch": 67, "duration": 15, "velocity": 104}, {"time": 3157, "pitch": 60, "duration": 3, "velocity": 99}, {"time": 3163, "pitch": 63, "duration": 7, "velocity": 110}, {"time": 3169, "pitch": 46, "duration": 38, "velocity": 88}, {"time": 3169, "pitch": 62, "duration": 10, "velocity": 106}, {"time": 3175, "pitch": 53, "duration": 25, "velocity": 89}, {"time": 3181, "pitch": 58, "duration": 4, "velocity": 107}, {"time": 3187, "pitch": 58, "duration": 19, "velocity": 99}, {"time": 3187, "pitch": 62, "duration": 19, "velocity": 106}, {"time": 3187, "pitch": 67, "duration": 21, "velocity": 91}, {"time": 3217, "pitch": 44, "duration": 36, "velocity": 107}, {"time": 3217, "pitch": 56, "duration": 7, "velocity": 110}, {"time": 3217, "pitch": 63, "duration": 15, "velocity": 104}, {"time": 3223, "pitch": 51, "duration": 30, "velocity": 101}, {"time": 3229, "pitch": 56, "duration": 4, "velocity": 93}, {"time": 3235, "pitch": 56, "duration": 15, "velocity": 110}, {"time": 3235, "pitch": 60, "duration": 6, "velocity": 106}, {"time": 3235, "pitch": 63, "duration": 9, "velocity": 101}, {"time": 3235, "pitch": 67, "duration": 56, "velocity": 101}, {"time": 3253, "pitch": 60, "duration": 1, "velocity": 87}, {"time": 3253, "pitch": 63, "duration": 31, "velocity": 117}, {"time": 3259, "pitch": 56, "duration": 11, "velocity": 113}, {"time": 3283, "pitch": 56, "duration": 8, "velocity": 110}, {"time": 3289, "pitch": 51, "duration": 9, "velocity": 110}, {"time": 3295, "pitch": 56, "duration": 3, "velocity": 117}, {"time": 3295, "pitch": 60, "duration": 7, "velocity": 106}, {"time": 3295, "pitch": 63, "duration": 10, "velocity": 113}, {"time": 3295, "pitch": 67, "duration": 14, "velocity": 101}, {"time": 3301, "pitch": 56, "duration": 1, "velocity": 96}, {"time": 3313, "pitch": 48, "duration": 31, "velocity": 104}, {"time": 3313, "pitch": 60, "duration": 7, "velocity": 99}, {"time": 3313, "pitch": 63, "duration": 12, "velocity": 113}, {"time": 3319, "pitch": 55, "duration": 19, "velocity": 78}, {"time": 3325, "pitch": 60, "duration": 3, "velocity": 78}, {"time": 3331, "pitch": 60, "duration": 13, "velocity": 101}, {"time": 3331, "pitch": 63, "duration": 14, "velocity": 117}, {"time": 3331, "pitch": 67, "duration": 15, "velocity": 104}, {"time": 3349, "pitch": 60, "duration": 3, "velocity": 99}, {"time": 3355, "pitch": 63, "duration": 7, "velocity": 110}, {"time": 3361, "pitch": 46, "duration": 38, "velocity": 88}, {"time": 3361, "pitch": 62, "duration": 10, "velocity": 106}, {"time": 3367, "pitch": 53, "duration": 25, "velocity": 89}, {"time": 3373, "pitch": 58, "duration": 4, "velocity": 107}, {"time": 3379, "pitch": 58, "duration": 19, "velocity": 99}, {"time": 3379, "pitch": 62, "duration": 19, "velocity": 106}, {"time": 3379, "pitch": 67, "duration": 21, "velocity": 91}, {"time": 3409, "pitch": 44, "duration": 36, "velocity": 107}, {"time": 3409, "pitch": 56, "duration": 7, "velocity": 110}, {"time": 3409, "pitch": 63, "duration": 15, "velocity": 104}, {"time": 3415, "pitch": 51, "duration": 30, "velocity": 101}, {"time": 3421, "pitch": 56, "duration": 4, "velocity": 93}, {"time": 3427, "pitch": 56, "duration": 15, "velocity": 110}, {"time": 3427, "pitch": 60, "duration": 6, "velocity": 106}, {"time": 3427, "pitch": 63, "duration": 9, "velocity": 101}, {"time": 3427, "pitch": 67, "duration": 42, "velocity": 101}, {"time": 3445, "pitch": 60, "duration": 1, "velocity": 87}, {"time": 3445, "pitch": 63, "duration": 18, "velocity": 117}, {"time": 3451, "pitch": 56, "duration": 11, "velocity": 113}, {"time": 3457, "pitch": 44, "duration": 15, "velocity": 96}, {"time": 3457, "pitch": 56, "duration": 5, "velocity": 96}, {"time": 3457, "pitch": 60, "duration": 18, "velocity": 101}, {"time": 3482, "pitch": 46, "duration": 21, "velocity": 96}, {"time": 3482, "pitch": 58, "duration": 19, "velocity": 96}, {"time": 3482, "pitch": 62, "duration": 20, "velocity": 112}, {"time": 3482, "pitch": 65, "duration": 19, "velocity": 104}, {"time": 3506, "pitch": 39, "duration": 15, "velocity": 110}, {"time": 3506, "pitch": 55, "duration": 8, "velocity": 94}, {"time": 3506, "pitch": 58, "duration": 8, "velocity": 117}, {"time": 3506, "pitch": 63, "duration": 8, "velocity": 107}, {"time": 3518, "pitch": 58, "duration": 10, "velocity": 123}, {"time": 3518, "pitch": 63, "duration": 12, "velocity": 120}, {"time": 3524, "pitch": 55, "duration": 7, "velocity": 112}, {"time": 3530, "pitch": 43, "duration": 16, "velocity": 112}, {"time": 3536, "pitch": 55, "duration": 8, "velocity": 112}, {"time": 3536, "pitch": 59, "duration": 16, "velocity": 109}, {"time": 3536, "pitch": 62, "duration": 17, "velocity": 109}, {"time": 3548, "pitch": 55, "duration": 4, "velocity": 112}, {"time": 3554, "pitch": 44, "duration": 17, "velocity": 86}, {"time": 3560, "pitch": 56, "duration": 7, "velocity": 117}, {"time": 3560, "pitch": 60, "duration": 7, "velocity": 109}, {"time": 3560, "pitch": 63, "duration": 8, "velocity": 107}, {"time": 3572, "pitch": 56, "duration": 5, "velocity": 117}, {"time": 3572, "pitch": 60, "duration": 4, "velocity": 104}, {"time": 3572, "pitch": 63, "duration": 5, "velocity": 117}, {"time": 3578, "pitch": 39, "duration": 8, "velocity": 63}, {"time": 3584, "pitch": 51, "duration": 7, "velocity": 110}, {"time": 3584, "pitch": 55, "duration": 5, "velocity": 109}, {"time": 3584, "pitch": 58, "duration": 6, "velocity": 101}, {"time": 3590, "pitch": 46, "duration": 2, "velocity": 66}, {"time": 3596, "pitch": 51, "duration": 2, "velocity": 110}, {"time": 3596, "pitch": 55, "duration": 1, "velocity": 87}, {"time": 3596, "pitch": 58, "duration": 2, "velocity": 99}, {"time": 3602, "pitch": 41, "duration": 17, "velocity": 106}, {"time": 3602, "pitch": 53, "duration": 8, "velocity": 104}, {"time": 3602, "pitch": 56, "duration": 7, "velocity": 104}, {"time": 3614, "pitch": 53, "duration": 9, "velocity": 106}, {"time": 3614, "pitch": 56, "duration": 8, "velocity": 113}, {"time": 3614, "pitch": 60, "duration": 10, "velocity": 109}, {"time": 3626, "pitch": 53, "duration": 1, "velocity": 78}, {"time": 3626, "pitch": 60, "duration": 1, "velocity": 94}, {"time": 3626, "pitch": 65, "duration": 1, "velocity": 69}, {"time": 3632, "pitch": 53, "duration": 6, "velocity": 109}, {"time": 3632, "pitch": 56, "duration": 6, "velocity": 123}, {"time": 3632, "pitch": 60, "duration": 7, "velocity": 112}, {"time": 3632, "pitch": 65, "duration": 7, "velocity": 104}, {"time": 3638, "pitch": 41, "duration": 3, "velocity": 91}, {"time": 3644, "pitch": 53, "duration": 5, "velocity": 109}, {"time": 3644, "pitch": 56, "duration": 4, "velocity": 120}, {"time": 3644, "pitch": 60, "duration": 6, "velocity": 112}, {"time": 3644, "pitch": 65, "duration": 4, "velocity": 101}, {"time": 3650, "pitch": 46, "duration": 8, "velocity": 93}, {"time": 3656, "pitch": 53, "duration": 3, "velocity": 106}, {"time": 3656, "pitch": 58, "duration": 3, "velocity": 120}, {"time": 3656, "pitch": 62, "duration": 3, "velocity": 112}, {"time": 3668, "pitch": 53, "duration": 7, "velocity": 106}, {"time": 3668, "pitch": 58, "duration": 8, "velocity": 117}, {"time": 3668, "pitch": 62, "duration": 8, "velocity": 112}, {"time": 3674, "pitch": 46, "duration": 8, "velocity": 55}, {"time": 3680, "pitch": 53, "duration": 2, "velocity": 104}, {"time": 3686, "pitch": 46, "duration": 8, "velocity": 110}, {"time": 3686, "pitch": 53, "duration": 3, "velocity": 112}, {"time": 3686, "pitch": 58, "duration": 9, "velocity": 123}, {"time": 3686, "pitch": 62, "duration": 10, "velocity": 115}, {"time": 3692, "pitch": 53, "duration": 4, "velocity": 104}, {"time": 3698, "pitch": 39, "duration": 15, "velocity": 110}, {"time": 3698, "pitch": 55, "duration": 8, "velocity": 94}, {"time": 3698, "pitch": 58, "duration": 8, "velocity": 117}, {"time": 3698, "pitch": 63, "duration": 8, "velocity": 107}, {"time": 3710, "pitch": 58, "duration": 10, "velocity": 123}, {"time": 3710, "pitch": 63, "duration": 12, "velocity": 120}, {"time": 3716, "pitch": 55, "duration": 7, "velocity": 112}, {"time": 3722, "pitch": 43, "duration": 16, "velocity": 112}, {"time": 3728, "pitch": 55, "duration": 8, "velocity": 112}, {"time": 3728, "pitch": 59, "duration": 16, "velocity": 109}, {"time": 3728, "pitch": 62, "duration": 17, "velocity": 109}, {"time": 3740, "pitch": 55, "duration": 4, "velocity": 112}, {"time": 3746, "pitch": 44, "duration": 17, "velocity": 86}, {"time": 3752, "pitch": 56, "duration": 7, "velocity": 117}, {"time": 3752, "pitch": 60, "duration": 7, "velocity": 109}, {"time": 3752, "pitch": 63, "duration": 8, "velocity": 107}, {"time": 3764, "pitch": 56, "duration": 5, "velocity": 117}, {"time": 3764, "pitch": 60, "duration": 4, "velocity": 104}, {"time": 3764, "pitch": 63, "duration": 5, "velocity": 117}, {"time": 3770, "pitch": 39, "duration": 8, "velocity": 63}, {"time": 3776, "pitch": 51, "duration": 7, "velocity": 110}, {"time": 3776, "pitch": 55, "duration": 5, "velocity": 109}, {"time": 3776, "pitch": 58, "duration": 6, "velocity": 101}, {"time": 3782, "pitch": 46, "duration": 2, "velocity": 66}, {"time": 3788, "pitch": 51, "duration": 2, "velocity": 110}, {"time": 3788, "pitch": 55, "duration": 1, "velocity": 87}, {"time": 3788, "pitch": 58, "duration": 2, "velocity": 99}, {"time": 3794, "pitch": 41, "duration": 17, "velocity": 106}, {"time": 3794, "pitch": 53, "duration": 8, "velocity": 104}, {"time": 3794, "pitch": 56, "duration": 7, "velocity": 104}, {"time": 3806, "pitch": 53, "duration": 9, "velocity": 106}, {"time": 3806, "pitch": 56, "duration": 8, "velocity": 113}, {"time": 3806, "pitch": 60, "duration": 10, "velocity": 109}, {"time": 3818, "pitch": 53, "duration": 1, "velocity": 78}, {"time": 3818, "pitch": 60, "duration": 1, "velocity": 94}, {"time": 3818, "pitch": 65, "duration": 1, "velocity": 69}, {"time": 3824, "pitch": 53, "duration": 6, "velocity": 109}, {"time": 3824, "pitch": 56, "duration": 6, "velocity": 123}, {"time": 3824, "pitch": 60, "duration": 7, "velocity": 112}, {"time": 3824, "pitch": 65, "duration": 7, "velocity": 104}, {"time": 3830, "pitch": 41, "duration": 3, "velocity": 91}, {"time": 3836, "pitch": 53, "duration": 5, "velocity": 109}, {"time": 3836, "pitch": 56, "duration": 4, "velocity": 120}, {"time": 3836, "pitch": 60, "duration": 6, "velocity": 112}, {"time": 3836, "pitch": 65, "duration": 4, "velocity": 101}, {"time": 3842, "pitch": 46, "duration": 8, "velocity": 93}, {"time": 3848, "pitch": 53, "duration": 3, "velocity": 106}, {"time": 3848, "pitch": 58, "duration": 3, "velocity": 120}, {"time": 3848, "pitch": 62, "duration": 3, "velocity": 112}, {"time": 3860, "pitch": 53, "duration": 7, "velocity": 106}, {"time": 3860, "pitch": 58, "duration": 8, "velocity": 117}, {"time": 3860, "pitch": 62, "duration": 8, "velocity": 112}, {"time": 3866, "pitch": 46, "duration": 8, "velocity": 55}, {"time": 3872, "pitch": 53, "duration": 2, "velocity": 104}, {"time": 3878, "pitch": 46, "duration": 8, "velocity": 110}, {"time": 3878, "pitch": 53, "duration": 3, "velocity": 112}, {"time": 3878, "pitch": 58, "duration": 9, "velocity": 123}, {"time": 3878, "pitch": 62, "duration": 10, "velocity": 115}, {"time": 3884, "pitch": 53, "duration": 4, "velocity": 104}, {"time": 3890, "pitch": 39, "duration": 15, "velocity": 110}, {"time": 3890, "pitch": 55, "duration": 8, "velocity": 94}, {"time": 3890, "pitch": 58, "duration": 8, "velocity": 117}, {"time": 3890, "pitch": 63, "duration": 8, "velocity": 107}, {"time": 3902, "pitch": 58, "duration": 10, "velocity": 123}, {"time": 3902, "pitch": 63, "duration": 12, "velocity": 120}, {"time": 3908, "pitch": 55, "duration": 7, "velocity": 112}, {"time": 3914, "pitch": 43, "duration": 16, "velocity": 112}, {"time": 3920, "pitch": 55, "duration": 8, "velocity": 112}, {"time": 3920, "pitch": 59, "duration": 16, "velocity": 109}, {"time": 3920, "pitch": 62, "duration": 17, "velocity": 109}, {"time": 3932, "pitch": 55, "duration": 4, "velocity": 112}, {"time": 3938, "pitch": 44, "duration": 17, "velocity": 86}, {"time": 3944, "pitch": 56, "duration": 7, "velocity": 117}, {"time": 3944, "pitch": 60, "duration": 7, "velocity": 109}, {"time": 3944, "pitch": 63, "duration": 8, "velocity": 107}, {"time": 3956, "pitch": 56, "duration": 5, "velocity": 117}, {"time": 3956, "pitch": 60, "duration": 4, "velocity": 104}, {"time": 3956, "pitch": 63, "duration": 5, "velocity": 117}, {"time": 3962, "pitch": 39, "duration": 8, "velocity": 63}, {"time": 3968, "pitch": 51, "duration": 7, "velocity": 110}, {"time": 3968, "pitch": 55, "duration": 5, "velocity": 109}, {"time": 3968, "pitch": 58, "duration": 6, "velocity": 101}, {"time": 3974, "pitch": 46, "duration": 2, "velocity": 66}, {"time": 3980, "pitch": 51, "duration": 2, "velocity": 110}, {"time": 3980, "pitch": 55, "duration": 1, "velocity": 87}, {"time": 3980, "pitch": 58, "duration": 2, "velocity": 99}, {"time": 3986, "pitch": 41, "duration": 17, "velocity": 106}, {"time": 3986, "pitch": 53, "duration": 8, "velocity": 104}, {"time": 3986, "pitch": 56, "duration": 7, "velocity": 104}, {"time": 3998, "pitch": 53, "duration": 9, "velocity": 106}, {"time": 3998, "pitch": 56, "duration": 8, "velocity": 113}, {"time": 3998, "pitch": 60, "duration": 10, "velocity": 109}, {"time": 4010, "pitch": 53, "duration": 1, "velocity": 78}, {"time": 4010, "pitch": 60, "duration": 1, "velocity": 94}, {"time": 4010, "pitch": 65, "duration": 1, "velocity": 69}, {"time": 4016, "pitch": 53, "duration": 6, "velocity": 109}, {"time": 4016, "pitch": 56, "duration": 6, "velocity": 123}, {"time": 4016, "pitch": 60, "duration": 7, "velocity": 112}, {"time": 4016, "pitch": 65, "duration": 7, "velocity": 104}, {"time": 4022, "pitch": 41, "duration": 3, "velocity": 91}, {"time": 4028, "pitch": 53, "duration": 5, "velocity": 109}, {"time": 4028, "pitch": 56, "duration": 4, "velocity": 120}, {"time": 4028, "pitch": 60, "duration": 6, "velocity": 112}, {"time": 4028, "pitch": 65, "duration": 4, "velocity": 101}, {"time": 4034, "pitch": 46, "duration": 8, "velocity": 93}, {"time": 4040, "pitch": 53, "duration": 3, "velocity": 106}, {"time": 4040, "pitch": 58, "duration": 3, "velocity": 120}, {"time": 4040, "pitch": 62, "duration": 3, "velocity": 112}, {"time": 4052, "pitch": 53, "duration": 7, "velocity": 106}, {"time": 4052, "pitch": 58, "duration": 8, "velocity": 117}, {"time": 4052, "pitch": 62, "duration": 8, "velocity": 112}, {"time": 4058, "pitch": 46, "duration": 8, "velocity": 55}, {"time": 4064, "pitch": 53, "duration": 2, "velocity": 104}, {"time": 4070, "pitch": 46, "duration": 8, "velocity": 110}, {"time": 4070, "pitch": 53, "duration": 3, "velocity": 112}, {"time": 4070, "pitch": 58, "duration": 9, "velocity": 123}, {"time": 4070, "pitch": 62, "duration": 10, "velocity": 115}, {"time": 4076, "pitch": 53, "duration": 4, "velocity": 104}, {"time": 4082, "pitch": 39, "duration": 15, "velocity": 110}, {"time": 4082, "pitch": 55, "duration": 8, "velocity": 94}, {"time": 4082, "pitch": 58, "duration": 8, "velocity": 117}, {"time": 4082, "pitch": 63, "duration": 8, "velocity": 107}, {"time": 4094, "pitch": 58, "duration": 10, "velocity": 123}, {"time": 4094, "pitch": 63, "duration": 12, "velocity": 120}, {"time": 4100, "pitch": 55, "duration": 7, "velocity": 112}, {"time": 4106, "pitch": 43, "duration": 16, "velocity": 112}, {"time": 4112, "pitch": 55, "duration": 8, "velocity": 112}, {"time": 4112, "pitch": 59, "duration": 16, "velocity": 109}, {"time": 4112, "pitch": 62, "duration": 17, "velocity": 109}, {"time": 4124, "pitch": 55, "duration": 4, "velocity": 112}, {"time": 4130, "pitch": 44, "duration": 17, "velocity": 86}, {"time": 4136, "pitch": 56, "duration": 7, "velocity": 117}, {"time": 4136, "pitch": 60, "duration": 7, "velocity": 109}, {"time": 4136, "pitch": 63, "duration": 8, "velocity": 107}, {"time": 4148, "pitch": 56, "duration": 5, "velocity": 117}, {"time": 4148, "pitch": 60, "duration": 4, "velocity": 104}, {"time": 4148, "pitch": 63, "duration": 5, "velocity": 117}, {"time": 4154, "pitch": 39, "duration": 8, "velocity": 63}, {"time": 4160, "pitch": 51, "duration": 7, "velocity": 110}, {"time": 4160, "pitch": 55, "duration": 5, "velocity": 109}, {"time": 4160, "pitch": 58, "duration": 6, "velocity": 101}, {"time": 4166, "pitch": 46, "duration": 2, "velocity": 66}, {"time": 4172, "pitch": 51, "duration": 2, "velocity": 110}, {"time": 4172, "pitch": 55, "duration": 1, "velocity": 87}, {"time": 4172, "pitch": 58, "duration": 2, "velocity": 99}, {"time": 4178, "pitch": 41, "duration": 17, "velocity": 106}, {"time": 4178, "pitch": 53, "duration": 8, "velocity": 104}, {"time": 4178, "pitch": 56, "duration": 7, "velocity": 104}, {"time": 4190, "pitch": 53, "duration": 9, "velocity": 106}, {"time": 4190, "pitch": 56, "duration": 8, "velocity": 113}, {"time": 4190, "pitch": 60, "duration": 10, "velocity": 109}, {"time": 4202, "pitch": 53, "duration": 1, "velocity": 78}, {"time": 4202, "pitch": 60, "duration": 1, "velocity": 94}, {"time": 4202, "pitch": 65, "duration": 1, "velocity": 69}, {"time": 4208, "pitch": 53, "duration": 6, "velocity": 109}, {"time": 4208, "pitch": 56, "duration": 6, "velocity": 123}, {"time": 4208, "pitch": 60, "duration": 7, "velocity": 112}, {"time": 4208, "pitch": 65, "duration": 7, "velocity": 104}, {"time": 4214, "pitch": 41, "duration": 3, "velocity": 91}, {"time": 4220, "pitch": 53, "duration": 5, "velocity": 109}, {"time": 4220, "pitch": 56, "duration": 4, "velocity": 120}, {"time": 4220, "pitch": 60, "duration": 6, "velocity": 112}, {"time": 4220, "pitch": 65, "duration": 4, "velocity": 101}, {"time": 4226, "pitch": 46, "duration": 8, "velocity": 93}, {"time": 4232, "pitch": 53, "duration": 3, "velocity": 106}, {"time": 4232, "pitch": 58, "duration": 3, "velocity": 120}, {"time": 4232, "pitch": 62, "duration": 3, "velocity": 112}, {"time": 4244, "pitch": 53, "duration": 7, "velocity": 106}, {"time": 4244, "pitch": 58, "duration": 8, "velocity": 117}, {"time": 4244, "pitch": 62, "duration": 8, "velocity": 112}, {"time": 4250, "pitch": 46, "duration": 8, "velocity": 55}, {"time": 4256, "pitch": 53, "duration": 2, "velocity": 104}, {"time": 4262, "pitch": 46, "duration": 8, "velocity": 110}, {"time": 4262, "pitch": 53, "duration": 3, "velocity": 112}, {"time": 4262, "pitch": 58, "duration": 9, "velocity": 123}, {"time": 4262, "pitch": 62, "duration": 10, "velocity": 115}, {"time": 4268, "pitch": 53, "duration": 4, "velocity": 104}, {"time": 4274, "pitch": 48, "duration": 31, "velocity": 104}, {"time": 4274, "pitch": 60, "duration": 6, "velocity": 99}, {"time": 4274, "pitch": 63, "duration": 12, "velocity": 113}, {"time": 4280, "pitch": 55, "duration": 18, "velocity": 78}, {"time": 4286, "pitch": 60, "duration": 2, "velocity": 78}, {"time": 4292, "pitch": 60, "duration": 13, "velocity": 101}, {"time": 4292, "pitch": 63, "duration": 14, "velocity": 117}, {"time": 4292, "pitch": 67, "duration": 14, "velocity": 104}, {"time": 4310, "pitch": 60, "duration": 3, "velocity": 99}, {"time": 4316, "pitch": 63, "duration": 6, "velocity": 110}, {"time": 4322, "pitch": 46, "duration": 37, "velocity": 88}, {"time": 4322, "pitch": 62, "duration": 9, "velocity": 106}, {"time": 4328, "pitch": 53, "duration": 24, "velocity": 89}, {"time": 4334, "pitch": 58, "duration": 3, "velocity": 107}, {"time": 4340, "pitch": 58, "duration": 19, "velocity": 99}, {"time": 4340, "pitch": 62, "duration": 19, "velocity": 106}, {"time": 4340, "pitch": 67, "duration": 21, "velocity": 91}, {"time": 4370, "pitch": 44, "duration": 35, "velocity": 107}, {"time": 4370, "pitch": 56, "duration": 6, "velocity": 110}, {"time": 4370, "pitch": 63, "duration": 15, "velocity": 104}, {"time": 4376, "pitch": 51, "duration": 30, "velocity": 101}, {"time": 4382, "pitch": 56, "duration": 4, "velocity": 93}, {"time": 4388, "pitch": 56, "duration": 15, "velocity": 110}, {"time": 4388, "pitch": 60, "duration": 5, "velocity": 106}, {"time": 4388, "pitch": 63, "duration": 9, "velocity": 101}, {"time": 4388, "pitch": 67, "duration": 56, "velocity": 101}, {"time": 4406, "pitch": 60, "duration": 1, "velocity": 87}, {"time": 4406, "pitch": 63, "duration": 31, "velocity": 117}, {"time": 4412, "pitch": 56, "duration": 10, "velocity": 113}, {"time": 4436, "pitch": 56, "duration": 7, "velocity": 110}, {"time": 4442, "pitch": 51, "duration": 8, "velocity": 110}, {"time": 4448, "pitch": 56, "duration": 2, "velocity": 117}, {"time": 4448, "pitch": 60, "duration": 6, "velocity": 106}, {"time": 4448, "pitch": 63, "duration": 9, "velocity": 113}, {"time": 4448, "pitch": 67, "duration": 13, "velocity": 101}, {"time": 4454, "pitch": 56, "duration": 1, "velocity": 96}, {"time": 4464, "pitch": 67, "duration": 16, "velocity": 101}, {"time": 4465, "pitch": 48, "duration": 34, "velocity": 91}, {"time": 4471, "pitch": 55, "duration": 13, "velocity": 85}, {"time": 4477, "pitch": 60, "duration": 7, "velocity": 76}, {"time": 4483, "pitch": 62, "duration": 5, "velocity": 109}, {"time": 4489, "pitch": 55, "duration": 7, "velocity": 69}, {"time": 4495, "pitch": 63, "duration": 9, "velocity": 110}, {"time": 4512, "pitch": 46, "duration": 36, "velocity": 74}, {"time": 4512, "pitch": 67, "duration": 13, "velocity": 104}, {"time": 4521, "pitch": 53, "duration": 12, "velocity": 20}, {"time": 4525, "pitch": 62, "duration": 6, "velocity": 96}, {"time": 4531, "pitch": 63, "duration": 5, "velocity": 113}, {"time": 4537, "pitch": 53, "duration": 8, "velocity": 61}, {"time": 4542, "pitch": 67, "duration": 12, "velocity": 104}, {"time": 4561, "pitch": 67, "duration": 11, "velocity": 101}, {"time": 4561, "pitch": 44, "duration": 23, "velocity": 77}, {"time": 4566, "pitch": 51, "duration": 18, "velocity": 56}, {"time": 4572, "pitch": 62, "duration": 7, "velocity": 89}, {"time": 4579, "pitch": 63, "duration": 13, "velocity": 113}, {"time": 4591, "pitch": 67, "duration": 25, "velocity": 106}, {"time": 4607, "pitch": 44, "duration": 24, "velocity": 66}, {"time": 4612, "pitch": 51, "duration": 17, "velocity": 42}, {"time": 4616, "pitch": 55, "duration": 7, "velocity": 82}, {"time": 4620, "pitch": 56, "duration": 4, "velocity": 83}, {"time": 4623, "pitch": 63, "duration": 5, "velocity": 107}, {"time": 4627, "pitch": 56, "duration": 4, "velocity": 93}, {"time": 4630, "pitch": 55, "duration": 6, "velocity": 82}, {"time": 4635, "pitch": 51, "duration": 10, "velocity": 79}, {"time": 4640, "pitch": 55, "duration": 4, "velocity": 78}, {"time": 4643, "pitch": 56, "duration": 3, "velocity": 99}, {"time": 4646, "pitch": 63, "duration": 4, "velocity": 120}, {"time": 4649, "pitch": 56, "duration": 3, "velocity": 113}, {"time": 4652, "pitch": 55, "duration": 3, "velocity": 82}, {"time": 4656, "pitch": 44, "duration": 11, "velocity": 61}, {"time": 4659, "pitch": 51, "duration": 9, "velocity": 65}, {"time": 4662, "pitch": 55, "duration": 3, "velocity": 46}, {"time": 4664, "pitch": 56, "duration": 2, "velocity": 96}, {"time": 4666, "pitch": 63, "duration": 4, "velocity": 110}, {"time": 4669, "pitch": 56, "duration": 2, "velocity": 110}, {"time": 4671, "pitch": 55, "duration": 4, "velocity": 94}, {"time": 4675, "pitch": 44, "duration": 9, "velocity": 58}, {"time": 4679, "pitch": 51, "duration": 6, "velocity": 45}, {"time": 4682, "pitch": 55, "duration": 4, "velocity": 74}, {"time": 4684, "pitch": 56, "duration": 4, "velocity": 104}, {"time": 4688, "pitch": 63, "duration": 3, "velocity": 70}, {"time": 4690, "pitch": 44, "duration": 14, "velocity": 74}, {"time": 4694, "pitch": 51, "duration": 10, "velocity": 56}, {"time": 4698, "pitch": 67, "duration": 5, "velocity": 51}, {"time": 4701, "pitch": 68, "duration": 3, "velocity": 58}, {"time": 4704, "pitch": 75, "duration": 4, "velocity": 52}, {"time": 4707, "pitch": 68, "duration": 3, "velocity": 110}, {"time": 4710, "pitch": 67, "duration": 5, "velocity": 101}, {"time": 4716, "pitch": 51, "duration": 2, "velocity": 44}, {"time": 4719, "pitch": 44, "duration": 9, "velocity": 38}, {"time": 4723, "pitch": 67, "duration": 6, "velocity": 22}, {"time": 4729, "pitch": 79, "duration": 2, "velocity": 89}], "annotations": [{"time": 49, "annotation": {"number": 64, "value": 127}, "group": "control_change"}, {"time": 93, "annotation": {"number": 64, "value": 0}, "group": "control_change"}, {"time": 99, "annotation": {"number": 64, "value": 127}, "group": "control_change"}, {"time": 144, "annotation": {"number": 64, "value": 0}, "group": "control_change"}, {"time": 152, "annotation": {"number": 64, "value": 127}, "group": "control_change"}, {"time": 227, "annotation": {"number": 64, "value": 127}, "group": "control_change"}, {"time": 237, "annotation": {"number": 64, "value": 0}, "group": "control_change"}, {"time": 240, "annotation": {"number": 64, "value": 127}, "group": "control_change"}, {"time": 241, "annotation": {"number": 64, "value": 127}, "group": "control_change"}, {"time": 284, "annotation": {"number": 64, "value": 0}, "group": "control_change"}, {"time": 285, "annotation": {"number": 64, "value": 0}, "group": "control_change"}, {"time": 291, "annotation": {"number": 64, "value": 127}, "group": "control_change"}, {"time": 336, "annotation": {"number": 64, "value": 0}, "group": "control_change"}, {"time": 344, "annotation": {"number": 64, "value": 127}, "group": "control_change"}, {"time": 434, "annotation": {"number": 64, "value": 127}, "group": "control_change"}, {"time": 480, "annotation": {"number": 64, "value": 0}, "group": "control_change"}, {"time": 491, "annotation": {"number": 64, "value": 127}, "group": "control_change"}, {"time": 528, "annotation": {"number": 64, "value": 0}, "group": "control_change"}, {"time": 539, "annotation": {"number": 64, "value": 127}, "group": "control_change"}, {"time": 575, "annotation": {"number": 64, "value": 0}, "group": "control_change"}, {"time": 580, "annotation": {"number": 64, "value": 127}, "group": "control_change"}, {"time": 607, "annotation": {"number": 64, "value": 0}, "group": "control_change"}, {"time": 611, "annotation": {"number": 64, "value": 127}, "group": "control_change"}, {"time": 618, "annotation": {"number": 64, "value": 0}, "group": "control_change"}, {"time": 626, "annotation": {"number": 64, "value": 127}, "group": "control_change"}, {"time": 672, "annotation": {"number": 64, "value": 0}, "group": "control_change"}, {"time": 683, "annotation": {"number": 64, "value": 127}, "group": "control_change"}, {"time": 720, "annotation": {"number": 64, "value": 0}, "group": "control_change"}, {"time": 731, "annotation": {"number": 64, "value": 127}, "group": "control_change"}, {"time": 767, "annotation": {"number": 64, "value": 0}, "group": "control_change"}, {"time": 772, "annotation": {"number": 64, "value": 127}, "group": "control_change"}, {"time": 799, "annotation": {"number": 64, "value": 0}, "group": "control_change"}, {"time": 803, "annotation": {"number": 64, "value": 127}, "group": "control_change"}, {"time": 810, "annotation": {"number": 64, "value": 0}, "group": "control_change"}, {"time": 817, "annotation": {"number": 64, "value": 127}, "group": "control_change"}, {"time": 862, "annotation": {"number": 64, "value": 0}, "group": "control_change"}, {"time": 866, "annotation": {"number": 64, "value": 127}, "group": "control_change"}, {"time": 910, "annotation": {"number": 64, "value": 0}, "group": "control_change"}, {"time": 914, "annotation": {"number": 64, "value": 127}, "group": "control_change"}, {"time": 957, "annotation": {"number": 64, "value": 0}, "group": "control_change"}, {"time": 962, "annotation": {"number": 64, "value": 127}, "group": "control_change"}, {"time": 985, "annotation": {"number": 64, "value": 0}, "group": "control_change"}, {"time": 989, "annotation": {"number": 64, "value": 127}, "group": "control_change"}, {"time": 1005, "annotation": {"number": 64, "value": 0}, "group": "control_change"}, {"time": 1009, "annotation": {"number": 64, "value": 127}, "group": "control_change"}, {"time": 1053, "annotation": {"number": 64, "value": 0}, "group": "control_change"}, {"time": 1058, "annotation": {"number": 64, "value": 127}, "group": "control_change"}, {"time": 1102, "annotation": {"number": 64, "value": 0}, "group": "control_change"}, {"time": 1108, "annotation": {"number": 64, "value": 127}, "group": "control_change"}, {"time": 1151, "annotation": {"number": 64, "value": 0}, "group": "control_change"}, {"time": 1156, "annotation": {"number": 64, "value": 127}, "group": "control_change"}, {"time": 1194, "annotation": {"number": 64, "value": 0}, "group": "control_change"}, {"time": 1201, "annotation": {"number": 64, "value": 127}, "group": "control_change"}, {"time": 1221, "annotation": {"number": 64, "value": 0}, "group": "control_change"}, {"time": 1227, "annotation": {"number": 64, "value": 127}, "group": "control_change"}, {"time": 1246, "annotation": {"number": 64, "value": 0}, "group": "control_change"}, {"time": 1253, "annotation": {"number": 64, "value": 127}, "group": "control_change"}, {"time": 1271, "annotation": {"number": 64, "value": 0}, "group": "control_change"}, {"time": 1277, "annotation": {"number": 64, "value": 127}, "group": "control_change"}, {"time": 1293, "annotation": {"number": 64, "value": 0}, "group": "control_change"}, {"time": 1298, "annotation": {"number": 64, "value": 127}, "group": "control_change"}, {"time": 1342, "annotation": {"number": 64, "value": 0}, "group": "control_change"}, {"time": 1362, "annotation": {"number": 64, "value": 127}, "group": "control_change"}, {"time": 1388, "annotation": {"number": 64, "value": 0}, "group": "control_change"}, {"time": 1393, "annotation": {"number": 64, "value": 127}, "group": "control_change"}, {"time": 1413, "annotation": {"number": 64, "value": 0}, "group": "control_change"}, {"time": 1419, "annotation": {"number": 64, "value": 127}, "group": "control_change"}, {"time": 1438, "annotation": {"number": 64, "value": 0}, "group": "control_change"}, {"time": 1445, "annotation": {"number": 64, "value": 127}, "group": "control_change"}, {"time": 1463, "annotation": {"number": 64, "value": 0}, "group": "control_change"}, {"time": 1469, "annotation": {"number": 64, "value": 127}, "group": "control_change"}, {"time": 1485, "annotation": {"number": 64, "value": 0}, "group": "control_change"}, {"time": 1490, "annotation": {"number": 64, "value": 127}, "group": "control_change"}, {"time": 1534, "annotation": {"number": 64, "value": 0}, "group": "control_change"}, {"time": 1554, "annotation": {"number": 64, "value": 127}, "group": "control_change"}, {"time": 1580, "annotation": {"number": 64, "value": 0}, "group": "control_change"}, {"time": 1585, "annotation": {"number": 64, "value": 127}, "group": "control_change"}, {"time": 1629, "annotation": {"number": 64, "value": 0}, "group": "control_change"}, {"time": 1635, "annotation": {"number": 64, "value": 127}, "group": "control_change"}, {"time": 1680, "annotation": {"number": 64, "value": 0}, "group": "control_change"}, {"time": 1688, "annotation": {"number": 64, "value": 127}, "group": "control_change"}, {"time": 1728, "annotation": {"number": 64, "value": 127}, "group": "control_change"}, {"time": 1776, "annotation": {"number": 64, "value": 0}, "group": "control_change"}, {"time": 1778, "annotation": {"number": 64, "value": 127}, "group": "control_change"}, {"time": 1825, "annotation": {"number": 64, "value": 0}, "group": "control_change"}, {"time": 1835, "annotation": {"number": 64, "value": 127}, "group": "control_change"}, {"time": 1872, "annotation": {"number": 64, "value": 0}, "group": "control_change"}, {"time": 1884, "annotation": {"number": 64, "value": 127}, "group": "control_change"}, {"time": 1919, "annotation": {"number": 64, "value": 0}, "group": "control_change"}, {"time": 1925, "annotation": {"number": 64, "value": 127}, "group": "control_change"}, {"time": 1952, "annotation": {"number": 64, "value": 0}, "group": "control_change"}, {"time": 1955, "annotation": {"number": 64, "value": 127}, "group": "control_change"}, {"time": 1963, "annotation": {"number": 64, "value": 0}, "group": "control_change"}, {"time": 1970, "annotation": {"number": 64, "value": 127}, "group": "control_change"}, {"time": 2017, "annotation": {"number": 64, "value": 0}, "group": "control_change"}, {"time": 2027, "annotation": {"number": 64, "value": 127}, "group": "control_change"}, {"time": 2064, "annotation": {"number": 64, "value": 0}, "group": "control_change"}, {"time": 2076, "annotation": {"number": 64, "value": 127}, "group": "control_change"}, {"time": 2111, "annotation": {"number": 64, "value": 0}, "group": "control_change"}, {"time": 2117, "annotation": {"number": 64, "value": 127}, "group": "control_change"}, {"time": 2144, "annotation": {"number": 64, "value": 0}, "group": "control_change"}, {"time": 2147, "annotation": {"number": 64, "value": 127}, "group": "control_change"}, {"time": 2155, "annotation": {"number": 64, "value": 0}, "group": "control_change"}, {"time": 2162, "annotation": {"number": 64, "value": 127}, "group": "control_change"}, {"time": 2207, "annotation": {"number": 64, "value": 0}, "group": "control_change"}, {"time": 2211, "annotation": {"number": 64, "value": 127}, "group": "control_change"}, {"time": 2254, "annotation": {"number": 64, "value": 0}, "group": "control_change"}, {"time": 2259, "annotation": {"number": 64, "value": 127}, "group": "control_change"}, {"time": 2302, "annotation": {"number": 64, "value": 0}, "group": "control_change"}, {"time": 2307, "annotation": {"number": 64, "value": 127}, "group": "control_change"}, {"time": 2329, "annotation": {"number": 64, "value": 0}, "group": "control_change"}, {"time": 2333, "annotation": {"number": 64, "value": 127}, "group": "control_change"}, {"time": 2349, "annotation": {"number": 64, "value": 0}, "group": "control_change"}, {"time": 2354, "annotation": {"number": 64, "value": 127}, "group": "control_change"}, {"time": 2398, "annotation": {"number": 64, "value": 0}, "group": "control_change"}, {"time": 2403, "annotation": {"number": 64, "value": 127}, "group": "control_change"}, {"time": 2447, "annotation": {"number": 64, "value": 0}, "group": "control_change"}, {"time": 2452, "annotation": {"number": 64, "value": 127}, "group": "control_change"}, {"time": 2495, "annotation": {"number": 64, "value": 0}, "group": "control_change"}, {"time": 2501, "annotation": {"number": 64, "value": 127}, "group": "control_change"}, {"time": 2538, "annotation": {"number": 64, "value": 0}, "group": "control_change"}, {"time": 2547, "annotation": {"number": 64, "value": 127}, "group": "control_change"}, {"time": 2566, "annotation": {"number": 64, "value": 0}, "group": "control_change"}, {"time": 2572, "annotation": {"number": 64, "value": 127}, "group": "control_change"}, {"time": 2592, "annotation": {"number": 64, "value": 0}, "group": "control_change"}, {"time": 2598, "annotation": {"number": 64, "value": 127}, "group": "control_change"}, {"time": 2616, "annotation": {"number": 64, "value": 0}, "group": "control_change"}, {"time": 2622, "annotation": {"number": 64, "value": 127}, "group": "control_change"}, {"time": 2639, "annotation": {"number": 64, "value": 0}, "group": "control_change"}, {"time": 2644, "annotation": {"number": 64, "value": 127}, "group": "control_change"}, {"time": 2688, "annotation": {"number": 64, "value": 0}, "group": "control_change"}, {"time": 2708, "annotation": {"number": 64, "value": 127}, "group": "control_change"}, {"time": 2733, "annotation": {"number": 64, "value": 0}, "group": "control_change"}, {"time": 2739, "annotation": {"number": 64, "value": 127}, "group": "control_change"}, {"time": 2758, "annotation": {"number": 64, "value": 0}, "group": "control_change"}, {"time": 2764, "annotation": {"number": 64, "value": 127}, "group": "control_change"}, {"time": 2784, "annotation": {"number": 64, "value": 0}, "group": "control_change"}, {"time": 2790, "annotation": {"number": 64, "value": 127}, "group": "control_change"}, {"time": 2808, "annotation": {"number": 64, "value": 0}, "group": "control_change"}, {"time": 2814, "annotation": {"number": 64, "value": 127}, "group": "control_change"}, {"time": 2831, "annotation": {"number": 64, "value": 0}, "group": "control_change"}, {"time": 2836, "annotation": {"number": 64, "value": 127}, "group": "control_change"}, {"time": 2880, "annotation": {"number": 64, "value": 0}, "group": "control_change"}, {"time": 2900, "annotation": {"number": 64, "value": 127}, "group": "control_change"}, {"time": 2925, "annotation": {"number": 64, "value": 0}, "group": "control_change"}, {"time": 2930, "annotation": {"number": 64, "value": 127}, "group": "control_change"}, {"time": 2974, "annotation": {"number": 64, "value": 0}, "group": "control_change"}, {"time": 2980, "annotation": {"number": 64, "value": 127}, "group": "control_change"}, {"time": 3025, "annotation": {"number": 64, "value": 0}, "group": "control_change"}, {"time": 3033, "annotation": {"number": 64, "value": 127}, "group": "control_change"}, {"time": 3074, "annotation": {"number": 64, "value": 127}, "group": "control_change"}, {"time": 3121, "annotation": {"number": 64, "value": 0}, "group": "control_change"}, {"time": 3122, "annotation": {"number": 64, "value": 127}, "group": "control_change"}, {"time": 3166, "annotation": {"number": 64, "value": 0}, "group": "control_change"}, {"time": 3172, "annotation": {"number": 64, "value": 127}, "group": "control_change"}, {"time": 3217, "annotation": {"number": 64, "value": 0}, "group": "control_change"}, {"time": 3225, "annotation": {"number": 64, "value": 127}, "group": "control_change"}, {"time": 3300, "annotation": {"number": 64, "value": 127}, "group": "control_change"}, {"time": 3311, "annotation": {"number": 64, "value": 0}, "group": "control_change"}, {"time": 3314, "annotation": {"number": 64, "value": 127}, "group": "control_change"}, {"time": 3357, "annotation": {"number": 64, "value": 0}, "group": "control_change"}, {"time": 3358, "annotation": {"number": 64, "value": 0}, "group": "control_change"}, {"time": 3364, "annotation": {"number": 64, "value": 127}, "group": "control_change"}, {"time": 3409, "annotation": {"number": 64, "value": 0}, "group": "control_change"}, {"time": 3417, "annotation": {"number": 64, "value": 127}, "group": "control_change"}, {"time": 3483, "annotation": {"number": 64, "value": 127}, "group": "control_change"}, {"time": 3497, "annotation": {"number": 64, "value": 0}, "group": "control_change"}, {"time": 3507, "annotation": {"number": 64, "value": 127}, "group": "control_change"}, {"time": 3527, "annotation": {"number": 64, "value": 0}, "group": "control_change"}, {"time": 3533, "annotation": {"number": 64, "value": 127}, "group": "control_change"}, {"time": 3552, "annotation": {"number": 64, "value": 0}, "group": "control_change"}, {"time": 3559, "annotation": {"number": 64, "value": 127}, "group": "control_change"}, {"time": 3577, "annotation": {"number": 64, "value": 0}, "group": "control_change"}, {"time": 3583, "annotation": {"number": 64, "value": 127}, "group": "control_change"}, {"time": 3599, "annotation": {"number": 64, "value": 0}, "group": "control_change"}, {"time": 3604, "annotation": {"number": 64, "value": 127}, "group": "control_change"}, {"time": 3648, "annotation": {"number": 64, "value": 0}, "group": "control_change"}, {"time": 3668, "annotation": {"number": 64, "value": 127}, "group": "control_change"}, {"time": 3694, "annotation": {"number": 64, "value": 0}, "group": "control_change"}, {"time": 3699, "annotation": {"number": 64, "value": 127}, "group": "control_change"}, {"time": 3719, "annotation": {"number": 64, "value": 0}, "group": "control_change"}, {"time": 3725, "annotation": {"number": 64, "value": 127}, "group": "control_change"}, {"time": 3744, "annotation": {"number": 64, "value": 0}, "group": "control_change"}, {"time": 3751, "annotation": {"number": 64, "value": 127}, "group": "control_change"}, {"time": 3769, "annotation": {"number": 64, "value": 0}, "group": "control_change"}, {"time": 3775, "annotation": {"number": 64, "value": 127}, "group": "control_change"}, {"time": 3791, "annotation": {"number": 64, "value": 0}, "group": "control_change"}, {"time": 3796, "annotation": {"number": 64, "value": 127}, "group": "control_change"}, {"time": 3840, "annotation": {"number": 64, "value": 0}, "group": "control_change"}, {"time": 3860, "annotation": {"number": 64, "value": 127}, "group": "control_change"}, {"time": 3886, "annotation": {"number": 64, "value": 0}, "group": "control_change"}, {"time": 3891, "annotation": {"number": 64, "value": 127}, "group": "control_change"}, {"time": 3911, "annotation": {"number": 64, "value": 0}, "group": "control_change"}, {"time": 3917, "annotation": {"number": 64, "value": 127}, "group": "control_change"}, {"time": 3936, "annotation": {"number": 64, "value": 0}, "group": "control_change"}, {"time": 3943, "annotation": {"number": 64, "value": 127}, "group": "control_change"}, {"time": 3961, "annotation": {"number": 64, "value": 0}, "group": "control_change"}, {"time": 3967, "annotation": {"number": 64, "value": 127}, "group": "control_change"}, {"time": 3983, "annotation": {"number": 64, "value": 0}, "group": "control_change"}, {"time": 3988, "annotation": {"number": 64, "value": 127}, "group": "control_change"}, {"time": 4032, "annotation": {"number": 64, "value": 0}, "group": "control_change"}, {"time": 4052, "annotation": {"number": 64, "value": 127}, "group": "control_change"}, {"time": 4078, "annotation": {"number": 64, "value": 0}, "group": "control_change"}, {"time": 4083, "annotation": {"number": 64, "value": 127}, "group": "control_change"}, {"time": 4103, "annotation": {"number": 64, "value": 0}, "group": "control_change"}, {"time": 4109, "annotation": {"number": 64, "value": 127}, "group": "control_change"}, {"time": 4128, "annotation": {"number": 64, "value": 0}, "group": "control_change"}, {"time": 4135, "annotation": {"number": 64, "value": 127}, "group": "control_change"}, {"time": 4153, "annotation": {"number": 64, "value": 0}, "group": "control_change"}, {"time": 4159, "annotation": {"number": 64, "value": 127}, "group": "control_change"}, {"time": 4175, "annotation": {"number": 64, "value": 0}, "group": "control_change"}, {"time": 4180, "annotation": {"number": 64, "value": 127}, "group": "control_change"}, {"time": 4224, "annotation": {"number": 64, "value": 0}, "group": "control_change"}, {"time": 4244, "annotation": {"number": 64, "value": 127}, "group": "control_change"}, {"time": 4270, "annotation": {"number": 64, "value": 0}, "group": "control_change"}, {"time": 4275, "annotation": {"number": 64, "value": 127}, "group": "control_change"}, {"time": 4319, "annotation": {"number": 64, "value": 0}, "group": "control_change"}, {"time": 4325, "annotation": {"number": 64, "value": 127}, "group": "control_change"}, {"time": 4369, "annotation": {"number": 64, "value": 0}, "group": "control_change"}, {"time": 4378, "annotation": {"number": 64, "value": 127}, "group": "control_change"}, {"time": 4442, "annotation": {"number": 64, "value": 127}, "group": "control_change"}, {"time": 4445, "annotation": {"number": 64, "value": 0}, "group": "control_change"}, {"time": 4453, "annotation": {"number": 64, "value": 127}, "group": "control_change"}, {"time": 4463, "annotation": {"number": 64, "value": 0}, "group": "control_change"}, {"time": 4467, "annotation": {"number": 64, "value": 127}, "group": "control_change"}, {"time": 4511, "annotation": {"number": 64, "value": 0}, "group": "control_change"}, {"time": 4518, "annotation": {"number": 64, "value": 127}, "group": "control_change"}, {"time": 4557, "annotation": {"number": 64, "value": 0}, "group": "control_change"}, {"time": 4565, "annotation": {"number": 64, "value": 127}, "group": "control_change"}, {"time": 4608, "annotation": {"number": 64, "value": 0}, "group": "control_change"}, {"time": 4614, "annotation": {"number": 64, "value": 127}, "group": "control_change"}, {"time": 4799, "annotation": {"number": 64, "value": 0}, "group": "control_change"}]}]}