{"metadata": {"schema_version": "0.2", "title": "None", "source_filename": "015.mid", "source_format": "midi"}, "resolution": 12, "tempos": [{"time": 0, "qpm": 58.00004253336452}], "time_signatures": [{"time": 0, "numerator": 2, "denominator": 4}], "tracks": [{"program": 0, "is_drum": false, "name": "MELODY", "notes": [{"time": 209, "pitch": 72, "duration": 1, "velocity": 108}, {"time": 212, "pitch": 74, "duration": 1, "velocity": 100}, {"time": 215, "pitch": 75, "duration": 2, "velocity": 112}, {"time": 218, "pitch": 74, "duration": 1, "velocity": 100}, {"time": 221, "pitch": 72, "duration": 1, "velocity": 108}, {"time": 224, "pitch": 75, "duration": 4, "velocity": 109}, {"time": 230, "pitch": 74, "duration": 1, "velocity": 105}, {"time": 233, "pitch": 72, "duration": 1, "velocity": 105}, {"time": 236, "pitch": 75, "duration": 4, "velocity": 109}, {"time": 242, "pitch": 74, "duration": 10, "velocity": 111}, {"time": 260, "pitch": 70, "duration": 1, "velocity": 102}, {"time": 263, "pitch": 70, "duration": 4, "velocity": 105}, {"time": 269, "pitch": 72, "duration": 1, "velocity": 97}, {"time": 272, "pitch": 72, "duration": 15, "velocity": 102}, {"time": 305, "pitch": 72, "duration": 1, "velocity": 111}, {"time": 308, "pitch": 74, "duration": 1, "velocity": 108}, {"time": 311, "pitch": 75, "duration": 1, "velocity": 112}, {"time": 314, "pitch": 74, "duration": 1, "velocity": 102}, {"time": 317, "pitch": 72, "duration": 1, "velocity": 105}, {"time": 320, "pitch": 75, "duration": 4, "velocity": 109}, {"time": 326, "pitch": 74, "duration": 1, "velocity": 105}, {"time": 329, "pitch": 72, "duration": 1, "velocity": 108}, {"time": 332, "pitch": 77, "duration": 3, "velocity": 108}, {"time": 338, "pitch": 74, "duration": 10, "velocity": 111}, {"time": 356, "pitch": 70, "duration": 1, "velocity": 96}, {"time": 359, "pitch": 72, "duration": 3, "velocity": 108}, {"time": 365, "pitch": 79, "duration": 1, "velocity": 111}, {"time": 368, "pitch": 79, "duration": 5, "velocity": 111}, {"time": 374, "pitch": 75, "duration": 18, "velocity": 99}, {"time": 401, "pitch": 72, "duration": 1, "velocity": 108}, {"time": 404, "pitch": 74, "duration": 1, "velocity": 100}, {"time": 407, "pitch": 75, "duration": 1, "velocity": 105}, {"time": 410, "pitch": 75, "duration": 1, "velocity": 105}, {"time": 413, "pitch": 75, "duration": 1, "velocity": 102}, {"time": 416, "pitch": 75, "duration": 1, "velocity": 93}, {"time": 419, "pitch": 75, "duration": 3, "velocity": 112}, {"time": 425, "pitch": 72, "duration": 1, "velocity": 100}, {"time": 428, "pitch": 75, "duration": 4, "velocity": 112}, {"time": 434, "pitch": 77, "duration": 10, "velocity": 102}, {"time": 455, "pitch": 74, "duration": 1, "velocity": 108}, {"time": 458, "pitch": 74, "duration": 1, "velocity": 100}, {"time": 461, "pitch": 74, "duration": 1, "velocity": 102}, {"time": 464, "pitch": 74, "duration": 1, "velocity": 97}, {"time": 467, "pitch": 74, "duration": 3, "velocity": 100}, {"time": 473, "pitch": 70, "duration": 1, "velocity": 109}, {"time": 476, "pitch": 77, "duration": 4, "velocity": 108}, {"time": 482, "pitch": 75, "duration": 9, "velocity": 102}, {"time": 500, "pitch": 70, "duration": 1, "velocity": 105}, {"time": 503, "pitch": 79, "duration": 4, "velocity": 111}, {"time": 509, "pitch": 77, "duration": 1, "velocity": 108}, {"time": 512, "pitch": 75, "duration": 1, "velocity": 112}, {"time": 515, "pitch": 79, "duration": 4, "velocity": 108}, {"time": 521, "pitch": 77, "duration": 1, "velocity": 102}, {"time": 524, "pitch": 75, "duration": 1, "velocity": 109}, {"time": 527, "pitch": 77, "duration": 7, "velocity": 111}, {"time": 536, "pitch": 70, "duration": 1, "velocity": 109}, {"time": 539, "pitch": 70, "duration": 3, "velocity": 112}, {"time": 545, "pitch": 77, "duration": 1, "velocity": 97}, {"time": 548, "pitch": 77, "duration": 7, "velocity": 108}, {"time": 557, "pitch": 75, "duration": 22, "velocity": 102}, {"time": 584, "pitch": 79, "duration": 1, "velocity": 105}, {"time": 587, "pitch": 79, "duration": 1, "velocity": 117}, {"time": 590, "pitch": 77, "duration": 1, "velocity": 111}, {"time": 593, "pitch": 75, "duration": 1, "velocity": 112}, {"time": 596, "pitch": 74, "duration": 1, "velocity": 97}, {"time": 599, "pitch": 72, "duration": 4, "velocity": 111}, {"time": 605, "pitch": 68, "duration": 1, "velocity": 112}, {"time": 608, "pitch": 72, "duration": 7, "velocity": 111}, {"time": 617, "pitch": 79, "duration": 4, "velocity": 108}, {"time": 623, "pitch": 77, "duration": 6, "velocity": 111}, {"time": 632, "pitch": 77, "duration": 1, "velocity": 108}, {"time": 635, "pitch": 77, "duration": 1, "velocity": 111}, {"time": 638, "pitch": 75, "duration": 1, "velocity": 112}, {"time": 641, "pitch": 74, "duration": 1, "velocity": 111}, {"time": 644, "pitch": 72, "duration": 1, "velocity": 114}, {"time": 647, "pitch": 70, "duration": 4, "velocity": 112}, {"time": 653, "pitch": 67, "duration": 1, "velocity": 102}, {"time": 656, "pitch": 70, "duration": 7, "velocity": 109}, {"time": 665, "pitch": 77, "duration": 4, "velocity": 108}, {"time": 671, "pitch": 75, "duration": 6, "velocity": 105}, {"time": 680, "pitch": 75, "duration": 1, "velocity": 109}, {"time": 683, "pitch": 75, "duration": 1, "velocity": 109}, {"time": 686, "pitch": 74, "duration": 1, "velocity": 108}, {"time": 689, "pitch": 72, "duration": 1, "velocity": 105}, {"time": 692, "pitch": 74, "duration": 1, "velocity": 105}, {"time": 695, "pitch": 75, "duration": 3, "velocity": 112}, {"time": 701, "pitch": 68, "duration": 1, "velocity": 102}, {"time": 704, "pitch": 68, "duration": 5, "velocity": 112}, {"time": 710, "pitch": 75, "duration": 4, "velocity": 105}, {"time": 716, "pitch": 75, "duration": 1, "velocity": 112}, {"time": 719, "pitch": 74, "duration": 4, "velocity": 111}, {"time": 725, "pitch": 75, "duration": 1, "velocity": 112}, {"time": 728, "pitch": 77, "duration": 4, "velocity": 108}, {"time": 740, "pitch": 74, "duration": 2, "velocity": 102}, {"time": 743, "pitch": 70, "duration": 24, "velocity": 102}, {"time": 776, "pitch": 79, "duration": 1, "velocity": 100}, {"time": 779, "pitch": 79, "duration": 1, "velocity": 108}, {"time": 782, "pitch": 77, "duration": 1, "velocity": 105}, {"time": 785, "pitch": 75, "duration": 1, "velocity": 112}, {"time": 788, "pitch": 74, "duration": 1, "velocity": 97}, {"time": 791, "pitch": 72, "duration": 3, "velocity": 114}, {"time": 797, "pitch": 68, "duration": 1, "velocity": 109}, {"time": 800, "pitch": 72, "duration": 5, "velocity": 105}, {"time": 809, "pitch": 79, "duration": 1, "velocity": 108}, {"time": 812, "pitch": 77, "duration": 10, "velocity": 111}, {"time": 824, "pitch": 77, "duration": 1, "velocity": 97}, {"time": 827, "pitch": 77, "duration": 1, "velocity": 111}, {"time": 830, "pitch": 75, "duration": 1, "velocity": 116}, {"time": 833, "pitch": 74, "duration": 1, "velocity": 102}, {"time": 836, "pitch": 72, "duration": 1, "velocity": 108}, {"time": 839, "pitch": 70, "duration": 4, "velocity": 109}, {"time": 845, "pitch": 82, "duration": 4, "velocity": 109}, {"time": 851, "pitch": 82, "duration": 4, "velocity": 109}, {"time": 857, "pitch": 80, "duration": 1, "velocity": 102}, {"time": 860, "pitch": 80, "duration": 4, "velocity": 105}, {"time": 866, "pitch": 79, "duration": 6, "velocity": 82}, {"time": 875, "pitch": 77, "duration": 4, "velocity": 111}, {"time": 881, "pitch": 79, "duration": 4, "velocity": 120}, {"time": 887, "pitch": 80, "duration": 4, "velocity": 112}, {"time": 893, "pitch": 79, "duration": 1, "velocity": 108}, {"time": 896, "pitch": 75, "duration": 4, "velocity": 109}, {"time": 902, "pitch": 72, "duration": 4, "velocity": 108}, {"time": 911, "pitch": 70, "duration": 4, "velocity": 105}, {"time": 917, "pitch": 79, "duration": 3, "velocity": 105}, {"time": 923, "pitch": 77, "duration": 3, "velocity": 108}, {"time": 929, "pitch": 75, "duration": 1, "velocity": 105}, {"time": 932, "pitch": 77, "duration": 6, "velocity": 102}, {"time": 938, "pitch": 75, "duration": 26, "velocity": 112}, {"time": 1361, "pitch": 72, "duration": 1, "velocity": 108}, {"time": 1364, "pitch": 74, "duration": 1, "velocity": 100}, {"time": 1367, "pitch": 75, "duration": 2, "velocity": 112}, {"time": 1370, "pitch": 74, "duration": 1, "velocity": 100}, {"time": 1373, "pitch": 72, "duration": 1, "velocity": 108}, {"time": 1376, "pitch": 75, "duration": 4, "velocity": 109}, {"time": 1382, "pitch": 74, "duration": 1, "velocity": 105}, {"time": 1385, "pitch": 72, "duration": 1, "velocity": 105}, {"time": 1388, "pitch": 75, "duration": 4, "velocity": 109}, {"time": 1394, "pitch": 74, "duration": 10, "velocity": 111}, {"time": 1412, "pitch": 70, "duration": 1, "velocity": 102}, {"time": 1415, "pitch": 70, "duration": 4, "velocity": 105}, {"time": 1421, "pitch": 72, "duration": 1, "velocity": 97}, {"time": 1424, "pitch": 72, "duration": 15, "velocity": 102}, {"time": 1457, "pitch": 72, "duration": 1, "velocity": 111}, {"time": 1460, "pitch": 74, "duration": 1, "velocity": 108}, {"time": 1463, "pitch": 75, "duration": 1, "velocity": 112}, {"time": 1466, "pitch": 74, "duration": 1, "velocity": 102}, {"time": 1469, "pitch": 72, "duration": 1, "velocity": 105}, {"time": 1472, "pitch": 75, "duration": 4, "velocity": 109}, {"time": 1478, "pitch": 74, "duration": 1, "velocity": 105}, {"time": 1481, "pitch": 72, "duration": 1, "velocity": 108}, {"time": 1484, "pitch": 77, "duration": 3, "velocity": 108}, {"time": 1490, "pitch": 74, "duration": 10, "velocity": 111}, {"time": 1508, "pitch": 70, "duration": 1, "velocity": 96}, {"time": 1511, "pitch": 72, "duration": 3, "velocity": 108}, {"time": 1517, "pitch": 79, "duration": 1, "velocity": 111}, {"time": 1520, "pitch": 79, "duration": 5, "velocity": 111}, {"time": 1526, "pitch": 75, "duration": 18, "velocity": 99}, {"time": 1553, "pitch": 72, "duration": 1, "velocity": 108}, {"time": 1556, "pitch": 74, "duration": 1, "velocity": 100}, {"time": 1559, "pitch": 75, "duration": 1, "velocity": 105}, {"time": 1562, "pitch": 75, "duration": 1, "velocity": 105}, {"time": 1565, "pitch": 75, "duration": 1, "velocity": 102}, {"time": 1568, "pitch": 75, "duration": 1, "velocity": 93}, {"time": 1571, "pitch": 75, "duration": 3, "velocity": 112}, {"time": 1577, "pitch": 72, "duration": 1, "velocity": 100}, {"time": 1580, "pitch": 75, "duration": 4, "velocity": 112}, {"time": 1586, "pitch": 77, "duration": 10, "velocity": 102}, {"time": 1607, "pitch": 74, "duration": 1, "velocity": 108}, {"time": 1610, "pitch": 74, "duration": 1, "velocity": 100}, {"time": 1613, "pitch": 74, "duration": 1, "velocity": 102}, {"time": 1616, "pitch": 74, "duration": 1, "velocity": 97}, {"time": 1619, "pitch": 74, "duration": 3, "velocity": 100}, {"time": 1625, "pitch": 70, "duration": 1, "velocity": 109}, {"time": 1628, "pitch": 77, "duration": 4, "velocity": 108}, {"time": 1634, "pitch": 75, "duration": 9, "velocity": 102}, {"time": 1652, "pitch": 70, "duration": 1, "velocity": 105}, {"time": 1655, "pitch": 79, "duration": 4, "velocity": 111}, {"time": 1661, "pitch": 77, "duration": 1, "velocity": 108}, {"time": 1664, "pitch": 75, "duration": 1, "velocity": 112}, {"time": 1667, "pitch": 79, "duration": 4, "velocity": 108}, {"time": 1673, "pitch": 77, "duration": 1, "velocity": 102}, {"time": 1676, "pitch": 75, "duration": 1, "velocity": 109}, {"time": 1679, "pitch": 77, "duration": 7, "velocity": 111}, {"time": 1688, "pitch": 70, "duration": 1, "velocity": 109}, {"time": 1691, "pitch": 70, "duration": 3, "velocity": 112}, {"time": 1697, "pitch": 77, "duration": 1, "velocity": 97}, {"time": 1700, "pitch": 77, "duration": 7, "velocity": 108}, {"time": 1709, "pitch": 75, "duration": 22, "velocity": 102}, {"time": 1736, "pitch": 79, "duration": 1, "velocity": 105}, {"time": 1739, "pitch": 79, "duration": 1, "velocity": 117}, {"time": 1742, "pitch": 77, "duration": 1, "velocity": 111}, {"time": 1745, "pitch": 75, "duration": 1, "velocity": 112}, {"time": 1748, "pitch": 74, "duration": 1, "velocity": 97}, {"time": 1751, "pitch": 72, "duration": 4, "velocity": 111}, {"time": 1757, "pitch": 68, "duration": 1, "velocity": 112}, {"time": 1760, "pitch": 72, "duration": 7, "velocity": 111}, {"time": 1769, "pitch": 79, "duration": 4, "velocity": 108}, {"time": 1775, "pitch": 77, "duration": 6, "velocity": 111}, {"time": 1784, "pitch": 77, "duration": 1, "velocity": 108}, {"time": 1787, "pitch": 77, "duration": 1, "velocity": 111}, {"time": 1790, "pitch": 75, "duration": 1, "velocity": 112}, {"time": 1793, "pitch": 74, "duration": 1, "velocity": 111}, {"time": 1796, "pitch": 72, "duration": 1, "velocity": 114}, {"time": 1799, "pitch": 70, "duration": 4, "velocity": 112}, {"time": 1805, "pitch": 67, "duration": 1, "velocity": 102}, {"time": 1808, "pitch": 70, "duration": 7, "velocity": 109}, {"time": 1817, "pitch": 77, "duration": 4, "velocity": 108}, {"time": 1823, "pitch": 75, "duration": 6, "velocity": 105}, {"time": 1832, "pitch": 75, "duration": 1, "velocity": 109}, {"time": 1835, "pitch": 75, "duration": 1, "velocity": 109}, {"time": 1838, "pitch": 74, "duration": 1, "velocity": 108}, {"time": 1841, "pitch": 72, "duration": 1, "velocity": 105}, {"time": 1844, "pitch": 74, "duration": 1, "velocity": 105}, {"time": 1847, "pitch": 75, "duration": 3, "velocity": 112}, {"time": 1853, "pitch": 68, "duration": 1, "velocity": 102}, {"time": 1856, "pitch": 68, "duration": 5, "velocity": 112}, {"time": 1862, "pitch": 75, "duration": 4, "velocity": 105}, {"time": 1868, "pitch": 75, "duration": 1, "velocity": 112}, {"time": 1871, "pitch": 74, "duration": 4, "velocity": 111}, {"time": 1877, "pitch": 75, "duration": 1, "velocity": 112}, {"time": 1880, "pitch": 77, "duration": 4, "velocity": 108}, {"time": 1892, "pitch": 74, "duration": 2, "velocity": 102}, {"time": 1895, "pitch": 70, "duration": 24, "velocity": 102}, {"time": 1928, "pitch": 79, "duration": 1, "velocity": 100}, {"time": 1931, "pitch": 79, "duration": 1, "velocity": 108}, {"time": 1934, "pitch": 77, "duration": 1, "velocity": 105}, {"time": 1937, "pitch": 75, "duration": 1, "velocity": 112}, {"time": 1940, "pitch": 74, "duration": 1, "velocity": 97}, {"time": 1943, "pitch": 72, "duration": 3, "velocity": 114}, {"time": 1949, "pitch": 68, "duration": 1, "velocity": 109}, {"time": 1952, "pitch": 72, "duration": 5, "velocity": 105}, {"time": 1961, "pitch": 79, "duration": 1, "velocity": 108}, {"time": 1964, "pitch": 77, "duration": 10, "velocity": 111}, {"time": 1976, "pitch": 77, "duration": 1, "velocity": 97}, {"time": 1979, "pitch": 77, "duration": 1, "velocity": 111}, {"time": 1982, "pitch": 75, "duration": 1, "velocity": 116}, {"time": 1985, "pitch": 74, "duration": 1, "velocity": 102}, {"time": 1988, "pitch": 72, "duration": 1, "velocity": 108}, {"time": 1991, "pitch": 70, "duration": 4, "velocity": 109}, {"time": 1997, "pitch": 82, "duration": 4, "velocity": 109}, {"time": 2003, "pitch": 82, "duration": 4, "velocity": 109}, {"time": 2009, "pitch": 80, "duration": 1, "velocity": 102}, {"time": 2012, "pitch": 80, "duration": 4, "velocity": 105}, {"time": 2018, "pitch": 79, "duration": 6, "velocity": 82}, {"time": 2027, "pitch": 77, "duration": 4, "velocity": 111}, {"time": 2033, "pitch": 79, "duration": 4, "velocity": 120}, {"time": 2039, "pitch": 80, "duration": 4, "velocity": 112}, {"time": 2045, "pitch": 79, "duration": 1, "velocity": 108}, {"time": 2048, "pitch": 75, "duration": 4, "velocity": 109}, {"time": 2054, "pitch": 72, "duration": 4, "velocity": 108}, {"time": 2063, "pitch": 70, "duration": 4, "velocity": 105}, {"time": 2069, "pitch": 79, "duration": 3, "velocity": 105}, {"time": 2075, "pitch": 77, "duration": 3, "velocity": 108}, {"time": 2081, "pitch": 75, "duration": 1, "velocity": 105}, {"time": 2084, "pitch": 77, "duration": 6, "velocity": 102}, {"time": 2090, "pitch": 75, "duration": 26, "velocity": 112}, {"time": 2138, "pitch": 75, "duration": 1, "velocity": 109}, {"time": 2141, "pitch": 75, "duration": 1, "velocity": 109}, {"time": 2144, "pitch": 75, "duration": 1, "velocity": 116}, {"time": 2147, "pitch": 75, "duration": 3, "velocity": 116}, {"time": 2153, "pitch": 75, "duration": 1, "velocity": 112}, {"time": 2156, "pitch": 75, "duration": 6, "velocity": 112}, {"time": 2162, "pitch": 77, "duration": 3, "velocity": 82}, {"time": 2168, "pitch": 77, "duration": 14, "velocity": 120}, {"time": 2186, "pitch": 82, "duration": 1, "velocity": 105}, {"time": 2189, "pitch": 82, "duration": 1, "velocity": 105}, {"time": 2192, "pitch": 82, "duration": 1, "velocity": 102}, {"time": 2195, "pitch": 82, "duration": 4, "velocity": 112}, {"time": 2201, "pitch": 74, "duration": 1, "velocity": 105}, {"time": 2204, "pitch": 74, "duration": 4, "velocity": 114}, {"time": 2210, "pitch": 75, "duration": 4, "velocity": 116}, {"time": 2216, "pitch": 75, "duration": 8, "velocity": 112}, {"time": 2225, "pitch": 77, "duration": 1, "velocity": 108}, {"time": 2228, "pitch": 79, "duration": 1, "velocity": 111}, {"time": 2231, "pitch": 80, "duration": 15, "velocity": 109}, {"time": 2249, "pitch": 77, "duration": 1, "velocity": 102}, {"time": 2252, "pitch": 79, "duration": 1, "velocity": 111}, {"time": 2255, "pitch": 80, "duration": 1, "velocity": 109}, {"time": 2258, "pitch": 80, "duration": 1, "velocity": 109}, {"time": 2261, "pitch": 80, "duration": 1, "velocity": 105}, {"time": 2264, "pitch": 79, "duration": 1, "velocity": 109}, {"time": 2267, "pitch": 80, "duration": 4, "velocity": 116}, {"time": 2273, "pitch": 75, "duration": 1, "velocity": 116}, {"time": 2276, "pitch": 82, "duration": 27, "velocity": 112}, {"time": 2336, "pitch": 79, "duration": 1, "velocity": 105}, {"time": 2339, "pitch": 79, "duration": 1, "velocity": 117}, {"time": 2342, "pitch": 77, "duration": 1, "velocity": 111}, {"time": 2345, "pitch": 75, "duration": 1, "velocity": 112}, {"time": 2348, "pitch": 74, "duration": 1, "velocity": 97}, {"time": 2351, "pitch": 72, "duration": 4, "velocity": 111}, {"time": 2357, "pitch": 68, "duration": 1, "velocity": 112}, {"time": 2360, "pitch": 72, "duration": 7, "velocity": 111}, {"time": 2369, "pitch": 79, "duration": 4, "velocity": 108}, {"time": 2375, "pitch": 77, "duration": 6, "velocity": 111}, {"time": 2384, "pitch": 77, "duration": 1, "velocity": 108}, {"time": 2387, "pitch": 77, "duration": 1, "velocity": 111}, {"time": 2390, "pitch": 75, "duration": 1, "velocity": 112}, {"time": 2393, "pitch": 74, "duration": 1, "velocity": 111}, {"time": 2396, "pitch": 72, "duration": 1, "velocity": 114}, {"time": 2399, "pitch": 70, "duration": 4, "velocity": 112}, {"time": 2405, "pitch": 67, "duration": 1, "velocity": 102}, {"time": 2408, "pitch": 70, "duration": 7, "velocity": 109}, {"time": 2417, "pitch": 77, "duration": 4, "velocity": 108}, {"time": 2423, "pitch": 75, "duration": 6, "velocity": 105}, {"time": 2432, "pitch": 75, "duration": 1, "velocity": 109}, {"time": 2435, "pitch": 75, "duration": 1, "velocity": 109}, {"time": 2438, "pitch": 74, "duration": 1, "velocity": 108}, {"time": 2441, "pitch": 72, "duration": 1, "velocity": 105}, {"time": 2444, "pitch": 74, "duration": 1, "velocity": 105}, {"time": 2447, "pitch": 75, "duration": 3, "velocity": 112}, {"time": 2453, "pitch": 68, "duration": 1, "velocity": 102}, {"time": 2456, "pitch": 68, "duration": 5, "velocity": 112}, {"time": 2462, "pitch": 75, "duration": 4, "velocity": 105}, {"time": 2468, "pitch": 75, "duration": 1, "velocity": 112}, {"time": 2471, "pitch": 74, "duration": 4, "velocity": 111}, {"time": 2477, "pitch": 75, "duration": 1, "velocity": 112}, {"time": 2480, "pitch": 77, "duration": 4, "velocity": 108}, {"time": 2489, "pitch": 80, "duration": 1, "velocity": 127}, {"time": 2492, "pitch": 80, "duration": 8, "velocity": 127}, {"time": 2501, "pitch": 79, "duration": 11, "velocity": 127}, {"time": 2513, "pitch": 80, "duration": 2, "velocity": 127}, {"time": 2516, "pitch": 79, "duration": 4, "velocity": 127}, {"time": 2528, "pitch": 79, "duration": 1, "velocity": 100}, {"time": 2531, "pitch": 79, "duration": 1, "velocity": 108}, {"time": 2534, "pitch": 77, "duration": 1, "velocity": 105}, {"time": 2537, "pitch": 75, "duration": 1, "velocity": 112}, {"time": 2540, "pitch": 74, "duration": 1, "velocity": 97}, {"time": 2543, "pitch": 72, "duration": 3, "velocity": 114}, {"time": 2549, "pitch": 68, "duration": 1, "velocity": 109}, {"time": 2552, "pitch": 72, "duration": 5, "velocity": 105}, {"time": 2561, "pitch": 79, "duration": 1, "velocity": 108}, {"time": 2564, "pitch": 77, "duration": 10, "velocity": 111}, {"time": 2576, "pitch": 77, "duration": 1, "velocity": 97}, {"time": 2579, "pitch": 77, "duration": 1, "velocity": 111}, {"time": 2582, "pitch": 75, "duration": 1, "velocity": 116}, {"time": 2585, "pitch": 74, "duration": 1, "velocity": 102}, {"time": 2588, "pitch": 72, "duration": 1, "velocity": 108}, {"time": 2591, "pitch": 70, "duration": 4, "velocity": 109}, {"time": 2597, "pitch": 82, "duration": 4, "velocity": 109}, {"time": 2603, "pitch": 82, "duration": 4, "velocity": 109}, {"time": 2609, "pitch": 80, "duration": 1, "velocity": 102}, {"time": 2612, "pitch": 80, "duration": 4, "velocity": 105}, {"time": 2618, "pitch": 79, "duration": 6, "velocity": 82}, {"time": 2627, "pitch": 77, "duration": 4, "velocity": 111}, {"time": 2633, "pitch": 79, "duration": 4, "velocity": 120}, {"time": 2639, "pitch": 80, "duration": 4, "velocity": 112}, {"time": 2645, "pitch": 79, "duration": 1, "velocity": 108}, {"time": 2648, "pitch": 75, "duration": 4, "velocity": 109}, {"time": 2654, "pitch": 72, "duration": 4, "velocity": 108}, {"time": 2663, "pitch": 70, "duration": 4, "velocity": 105}, {"time": 2669, "pitch": 79, "duration": 3, "velocity": 105}, {"time": 2675, "pitch": 77, "duration": 3, "velocity": 108}, {"time": 2681, "pitch": 75, "duration": 1, "velocity": 105}, {"time": 2684, "pitch": 77, "duration": 6, "velocity": 102}, {"time": 2690, "pitch": 75, "duration": 26, "velocity": 112}]}, {"program": 0, "is_drum": false, "name": "BRIDGE", "notes": [{"time": 11, "pitch": 67, "duration": 5, "velocity": 117}, {"time": 17, "pitch": 75, "duration": 4, "velocity": 112}, {"time": 23, "pitch": 74, "duration": 14, "velocity": 89}, {"time": 44, "pitch": 72, "duration": 2, "velocity": 114}, {"time": 47, "pitch": 79, "duration": 9, "velocity": 117}, {"time": 59, "pitch": 67, "duration": 4, "velocity": 108}, {"time": 65, "pitch": 75, "duration": 4, "velocity": 112}, {"time": 71, "pitch": 74, "duration": 18, "velocity": 111}, {"time": 92, "pitch": 72, "duration": 2, "velocity": 108}, {"time": 95, "pitch": 79, "duration": 9, "velocity": 105}, {"time": 107, "pitch": 67, "duration": 5, "velocity": 117}, {"time": 113, "pitch": 75, "duration": 5, "velocity": 112}, {"time": 119, "pitch": 74, "duration": 18, "velocity": 114}, {"time": 140, "pitch": 72, "duration": 2, "velocity": 105}, {"time": 143, "pitch": 79, "duration": 5, "velocity": 105}, {"time": 152, "pitch": 75, "duration": 1, "velocity": 99}, {"time": 152, "pitch": 77, "duration": 1, "velocity": 82}, {"time": 155, "pitch": 77, "duration": 5, "velocity": 100}, {"time": 161, "pitch": 75, "duration": 5, "velocity": 105}, {"time": 167, "pitch": 79, "duration": 29, "velocity": 117}, {"time": 599, "pitch": 72, "duration": 15, "velocity": 114}, {"time": 617, "pitch": 75, "duration": 4, "velocity": 102}, {"time": 623, "pitch": 74, "duration": 17, "velocity": 105}, {"time": 659, "pitch": 77, "duration": 5, "velocity": 105}, {"time": 665, "pitch": 74, "duration": 5, "velocity": 89}, {"time": 671, "pitch": 75, "duration": 19, "velocity": 93}, {"time": 686, "pitch": 67, "duration": 1, "velocity": 92}, {"time": 689, "pitch": 68, "duration": 1, "velocity": 74}, {"time": 692, "pitch": 70, "duration": 1, "velocity": 102}, {"time": 695, "pitch": 72, "duration": 19, "velocity": 108}, {"time": 719, "pitch": 74, "duration": 20, "velocity": 89}, {"time": 740, "pitch": 65, "duration": 1, "velocity": 66}, {"time": 743, "pitch": 67, "duration": 1, "velocity": 97}, {"time": 743, "pitch": 68, "duration": 6, "velocity": 109}, {"time": 752, "pitch": 67, "duration": 9, "velocity": 108}, {"time": 791, "pitch": 72, "duration": 16, "velocity": 105}, {"time": 809, "pitch": 79, "duration": 5, "velocity": 102}, {"time": 815, "pitch": 77, "duration": 15, "velocity": 105}, {"time": 833, "pitch": 75, "duration": 6, "velocity": 102}, {"time": 839, "pitch": 74, "duration": 14, "velocity": 97}, {"time": 854, "pitch": 74, "duration": 2, "velocity": 69}, {"time": 857, "pitch": 75, "duration": 2, "velocity": 85}, {"time": 860, "pitch": 77, "duration": 2, "velocity": 100}, {"time": 863, "pitch": 79, "duration": 22, "velocity": 111}, {"time": 986, "pitch": 67, "duration": 2, "velocity": 102}, {"time": 989, "pitch": 72, "duration": 2, "velocity": 111}, {"time": 992, "pitch": 74, "duration": 1, "velocity": 111}, {"time": 995, "pitch": 75, "duration": 6, "velocity": 116}, {"time": 1001, "pitch": 79, "duration": 3, "velocity": 114}, {"time": 1004, "pitch": 74, "duration": 4, "velocity": 117}, {"time": 1010, "pitch": 74, "duration": 1, "velocity": 100}, {"time": 1013, "pitch": 74, "duration": 1, "velocity": 108}, {"time": 1016, "pitch": 74, "duration": 1, "velocity": 97}, {"time": 1019, "pitch": 74, "duration": 2, "velocity": 120}, {"time": 1022, "pitch": 75, "duration": 2, "velocity": 119}, {"time": 1025, "pitch": 70, "duration": 2, "velocity": 116}, {"time": 1028, "pitch": 72, "duration": 26, "velocity": 117}, {"time": 1082, "pitch": 67, "duration": 2, "velocity": 114}, {"time": 1085, "pitch": 72, "duration": 2, "velocity": 117}, {"time": 1088, "pitch": 74, "duration": 1, "velocity": 102}, {"time": 1091, "pitch": 75, "duration": 4, "velocity": 116}, {"time": 1097, "pitch": 79, "duration": 1, "velocity": 117}, {"time": 1100, "pitch": 77, "duration": 3, "velocity": 120}, {"time": 1106, "pitch": 77, "duration": 4, "velocity": 108}, {"time": 1112, "pitch": 77, "duration": 1, "velocity": 94}, {"time": 1115, "pitch": 77, "duration": 4, "velocity": 114}, {"time": 1121, "pitch": 82, "duration": 1, "velocity": 109}, {"time": 1124, "pitch": 80, "duration": 4, "velocity": 116}, {"time": 1130, "pitch": 79, "duration": 4, "velocity": 105}, {"time": 1136, "pitch": 79, "duration": 7, "velocity": 105}, {"time": 1166, "pitch": 67, "duration": 2, "velocity": 111}, {"time": 1169, "pitch": 72, "duration": 1, "velocity": 117}, {"time": 1172, "pitch": 74, "duration": 1, "velocity": 114}, {"time": 1175, "pitch": 75, "duration": 4, "velocity": 116}, {"time": 1181, "pitch": 75, "duration": 2, "velocity": 112}, {"time": 1184, "pitch": 75, "duration": 1, "velocity": 112}, {"time": 1187, "pitch": 75, "duration": 4, "velocity": 112}, {"time": 1193, "pitch": 79, "duration": 1, "velocity": 114}, {"time": 1196, "pitch": 77, "duration": 5, "velocity": 111}, {"time": 1223, "pitch": 74, "duration": 4, "velocity": 120}, {"time": 1229, "pitch": 74, "duration": 1, "velocity": 114}, {"time": 1232, "pitch": 74, "duration": 5, "velocity": 120}, {"time": 1238, "pitch": 77, "duration": 3, "velocity": 120}, {"time": 1244, "pitch": 75, "duration": 8, "velocity": 112}, {"time": 1262, "pitch": 75, "duration": 1, "velocity": 116}, {"time": 1265, "pitch": 77, "duration": 1, "velocity": 111}, {"time": 1268, "pitch": 79, "duration": 2, "velocity": 117}, {"time": 1271, "pitch": 80, "duration": 12, "velocity": 109}, {"time": 1310, "pitch": 79, "duration": 2, "velocity": 108}, {"time": 1313, "pitch": 77, "duration": 1, "velocity": 117}, {"time": 1316, "pitch": 75, "duration": 2, "velocity": 112}, {"time": 1319, "pitch": 82, "duration": 35, "velocity": 116}, {"time": 1751, "pitch": 72, "duration": 15, "velocity": 114}, {"time": 1769, "pitch": 75, "duration": 4, "velocity": 102}, {"time": 1775, "pitch": 74, "duration": 17, "velocity": 105}, {"time": 1811, "pitch": 77, "duration": 5, "velocity": 105}, {"time": 1817, "pitch": 74, "duration": 5, "velocity": 89}, {"time": 1823, "pitch": 75, "duration": 19, "velocity": 93}, {"time": 1838, "pitch": 67, "duration": 2, "velocity": 92}, {"time": 1841, "pitch": 68, "duration": 1, "velocity": 74}, {"time": 1844, "pitch": 70, "duration": 1, "velocity": 102}, {"time": 1847, "pitch": 72, "duration": 19, "velocity": 108}, {"time": 1871, "pitch": 74, "duration": 20, "velocity": 89}, {"time": 1892, "pitch": 65, "duration": 1, "velocity": 66}, {"time": 1893, "pitch": 67, "duration": 1, "velocity": 97}, {"time": 1895, "pitch": 68, "duration": 6, "velocity": 109}, {"time": 1904, "pitch": 67, "duration": 7, "velocity": 108}, {"time": 1943, "pitch": 72, "duration": 16, "velocity": 105}, {"time": 1961, "pitch": 79, "duration": 5, "velocity": 102}, {"time": 1967, "pitch": 77, "duration": 15, "velocity": 105}, {"time": 1985, "pitch": 75, "duration": 6, "velocity": 102}, {"time": 1991, "pitch": 74, "duration": 14, "velocity": 97}, {"time": 2006, "pitch": 74, "duration": 2, "velocity": 69}, {"time": 2009, "pitch": 75, "duration": 2, "velocity": 68}, {"time": 2012, "pitch": 77, "duration": 2, "velocity": 100}, {"time": 2015, "pitch": 79, "duration": 22, "velocity": 111}, {"time": 2543, "pitch": 72, "duration": 15, "velocity": 114}, {"time": 2561, "pitch": 75, "duration": 4, "velocity": 102}, {"time": 2567, "pitch": 74, "duration": 17, "velocity": 105}, {"time": 2603, "pitch": 77, "duration": 5, "velocity": 105}, {"time": 2609, "pitch": 74, "duration": 5, "velocity": 89}, {"time": 2615, "pitch": 75, "duration": 19, "velocity": 93}, {"time": 2630, "pitch": 67, "duration": 1, "velocity": 92}, {"time": 2633, "pitch": 68, "duration": 1, "velocity": 74}, {"time": 2636, "pitch": 70, "duration": 1, "velocity": 102}, {"time": 2639, "pitch": 72, "duration": 19, "velocity": 108}, {"time": 2663, "pitch": 74, "duration": 20, "velocity": 89}, {"time": 2684, "pitch": 65, "duration": 1, "velocity": 66}, {"time": 2685, "pitch": 67, "duration": 1, "velocity": 97}, {"time": 2687, "pitch": 68, "duration": 6, "velocity": 109}, {"time": 2696, "pitch": 67, "duration": 18, "velocity": 108}, {"time": 2738, "pitch": 67, "duration": 2, "velocity": 102}, {"time": 2741, "pitch": 72, "duration": 2, "velocity": 111}, {"time": 2744, "pitch": 74, "duration": 1, "velocity": 111}, {"time": 2747, "pitch": 75, "duration": 6, "velocity": 116}, {"time": 2753, "pitch": 79, "duration": 3, "velocity": 114}, {"time": 2756, "pitch": 74, "duration": 4, "velocity": 117}, {"time": 2762, "pitch": 74, "duration": 1, "velocity": 100}, {"time": 2765, "pitch": 74, "duration": 1, "velocity": 108}, {"time": 2768, "pitch": 74, "duration": 1, "velocity": 97}, {"time": 2771, "pitch": 74, "duration": 2, "velocity": 120}, {"time": 2774, "pitch": 75, "duration": 2, "velocity": 119}, {"time": 2777, "pitch": 70, "duration": 2, "velocity": 116}, {"time": 2780, "pitch": 72, "duration": 26, "velocity": 117}, {"time": 2834, "pitch": 67, "duration": 2, "velocity": 114}, {"time": 2837, "pitch": 72, "duration": 2, "velocity": 117}, {"time": 2840, "pitch": 74, "duration": 1, "velocity": 102}, {"time": 2843, "pitch": 75, "duration": 4, "velocity": 116}, {"time": 2849, "pitch": 79, "duration": 1, "velocity": 117}, {"time": 2852, "pitch": 77, "duration": 3, "velocity": 120}, {"time": 2858, "pitch": 77, "duration": 4, "velocity": 108}, {"time": 2864, "pitch": 77, "duration": 1, "velocity": 94}, {"time": 2867, "pitch": 77, "duration": 4, "velocity": 114}, {"time": 2873, "pitch": 82, "duration": 1, "velocity": 109}, {"time": 2876, "pitch": 80, "duration": 4, "velocity": 116}, {"time": 2882, "pitch": 79, "duration": 4, "velocity": 105}, {"time": 2888, "pitch": 79, "duration": 7, "velocity": 105}, {"time": 2918, "pitch": 74, "duration": 3, "velocity": 92}, {"time": 2921, "pitch": 75, "duration": 3, "velocity": 87}, {"time": 2924, "pitch": 77, "duration": 3, "velocity": 97}, {"time": 2927, "pitch": 74, "duration": 40, "velocity": 105}, {"time": 2969, "pitch": 74, "duration": 4, "velocity": 55}, {"time": 2972, "pitch": 75, "duration": 6, "velocity": 70}, {"time": 2978, "pitch": 72, "duration": 50, "velocity": 94}]}, {"program": 0, "is_drum": false, "name": "PIANO", "notes": [{"time": 23, "pitch": 48, "duration": 18, "velocity": 97}, {"time": 23, "pitch": 60, "duration": 9, "velocity": 80}, {"time": 23, "pitch": 67, "duration": 9, "velocity": 92}, {"time": 29, "pitch": 55, "duration": 7, "velocity": 60}, {"time": 35, "pitch": 60, "duration": 4, "velocity": 78}, {"time": 35, "pitch": 63, "duration": 4, "velocity": 74}, {"time": 38, "pitch": 55, "duration": 5, "velocity": 67}, {"time": 41, "pitch": 62, "duration": 3, "velocity": 64}, {"time": 44, "pitch": 63, "duration": 4, "velocity": 96}, {"time": 47, "pitch": 48, "duration": 14, "velocity": 97}, {"time": 47, "pitch": 67, "duration": 8, "velocity": 62}, {"time": 53, "pitch": 55, "duration": 8, "velocity": 44}, {"time": 59, "pitch": 60, "duration": 3, "velocity": 89}, {"time": 59, "pitch": 63, "duration": 3, "velocity": 85}, {"time": 65, "pitch": 48, "duration": 2, "velocity": 42}, {"time": 71, "pitch": 46, "duration": 21, "velocity": 70}, {"time": 71, "pitch": 58, "duration": 10, "velocity": 61}, {"time": 71, "pitch": 62, "duration": 8, "velocity": 87}, {"time": 77, "pitch": 53, "duration": 7, "velocity": 37}, {"time": 83, "pitch": 58, "duration": 2, "velocity": 68}, {"time": 83, "pitch": 62, "duration": 2, "velocity": 92}, {"time": 83, "pitch": 65, "duration": 3, "velocity": 97}, {"time": 86, "pitch": 53, "duration": 7, "velocity": 69}, {"time": 89, "pitch": 62, "duration": 3, "velocity": 76}, {"time": 92, "pitch": 63, "duration": 4, "velocity": 99}, {"time": 95, "pitch": 46, "duration": 13, "velocity": 68}, {"time": 95, "pitch": 67, "duration": 8, "velocity": 89}, {"time": 101, "pitch": 53, "duration": 8, "velocity": 37}, {"time": 107, "pitch": 58, "duration": 4, "velocity": 87}, {"time": 107, "pitch": 62, "duration": 3, "velocity": 89}, {"time": 107, "pitch": 67, "duration": 6, "velocity": 92}, {"time": 113, "pitch": 46, "duration": 5, "velocity": 44}, {"time": 119, "pitch": 44, "duration": 22, "velocity": 96}, {"time": 119, "pitch": 56, "duration": 9, "velocity": 68}, {"time": 119, "pitch": 60, "duration": 5, "velocity": 82}, {"time": 119, "pitch": 63, "duration": 9, "velocity": 63}, {"time": 125, "pitch": 51, "duration": 7, "velocity": 39}, {"time": 131, "pitch": 56, "duration": 4, "velocity": 93}, {"time": 131, "pitch": 63, "duration": 6, "velocity": 77}, {"time": 134, "pitch": 51, "duration": 9, "velocity": 52}, {"time": 137, "pitch": 56, "duration": 4, "velocity": 77}, {"time": 143, "pitch": 44, "duration": 15, "velocity": 79}, {"time": 143, "pitch": 56, "duration": 6, "velocity": 77}, {"time": 143, "pitch": 63, "duration": 6, "velocity": 63}, {"time": 149, "pitch": 51, "duration": 7, "velocity": 39}, {"time": 155, "pitch": 56, "duration": 5, "velocity": 93}, {"time": 155, "pitch": 63, "duration": 6, "velocity": 90}, {"time": 161, "pitch": 51, "duration": 1, "velocity": 74}, {"time": 167, "pitch": 43, "duration": 19, "velocity": 100}, {"time": 167, "pitch": 55, "duration": 6, "velocity": 78}, {"time": 167, "pitch": 62, "duration": 9, "velocity": 89}, {"time": 173, "pitch": 50, "duration": 4, "velocity": 58}, {"time": 176, "pitch": 55, "duration": 5, "velocity": 78}, {"time": 179, "pitch": 62, "duration": 6, "velocity": 89}, {"time": 182, "pitch": 67, "duration": 7, "velocity": 82}, {"time": 185, "pitch": 55, "duration": 4, "velocity": 87}, {"time": 191, "pitch": 43, "duration": 21, "velocity": 64}, {"time": 191, "pitch": 55, "duration": 15, "velocity": 71}, {"time": 191, "pitch": 62, "duration": 23, "velocity": 87}, {"time": 203, "pitch": 50, "duration": 8, "velocity": 55}, {"time": 209, "pitch": 55, "duration": 4, "velocity": 39}, {"time": 215, "pitch": 48, "duration": 16, "velocity": 92}, {"time": 215, "pitch": 60, "duration": 3, "velocity": 58}, {"time": 215, "pitch": 63, "duration": 6, "velocity": 79}, {"time": 218, "pitch": 55, "duration": 13, "velocity": 62}, {"time": 221, "pitch": 60, "duration": 3, "velocity": 82}, {"time": 224, "pitch": 62, "duration": 4, "velocity": 102}, {"time": 230, "pitch": 63, "duration": 2, "velocity": 96}, {"time": 239, "pitch": 46, "duration": 16, "velocity": 59}, {"time": 239, "pitch": 58, "duration": 6, "velocity": 50}, {"time": 239, "pitch": 62, "duration": 9, "velocity": 87}, {"time": 245, "pitch": 53, "duration": 8, "velocity": 58}, {"time": 248, "pitch": 58, "duration": 8, "velocity": 63}, {"time": 251, "pitch": 62, "duration": 4, "velocity": 94}, {"time": 251, "pitch": 65, "duration": 5, "velocity": 102}, {"time": 263, "pitch": 44, "duration": 23, "velocity": 77}, {"time": 263, "pitch": 56, "duration": 3, "velocity": 54}, {"time": 263, "pitch": 63, "duration": 6, "velocity": 61}, {"time": 266, "pitch": 51, "duration": 7, "velocity": 22}, {"time": 269, "pitch": 56, "duration": 10, "velocity": 87}, {"time": 272, "pitch": 63, "duration": 14, "velocity": 85}, {"time": 278, "pitch": 51, "duration": 8, "velocity": 41}, {"time": 281, "pitch": 56, "duration": 5, "velocity": 65}, {"time": 287, "pitch": 44, "duration": 15, "velocity": 82}, {"time": 287, "pitch": 56, "duration": 7, "velocity": 70}, {"time": 287, "pitch": 60, "duration": 9, "velocity": 89}, {"time": 293, "pitch": 51, "duration": 7, "velocity": 36}, {"time": 296, "pitch": 56, "duration": 1, "velocity": 41}, {"time": 299, "pitch": 56, "duration": 2, "velocity": 93}, {"time": 299, "pitch": 60, "duration": 2, "velocity": 89}, {"time": 299, "pitch": 63, "duration": 4, "velocity": 82}, {"time": 302, "pitch": 51, "duration": 1, "velocity": 52}, {"time": 305, "pitch": 62, "duration": 5, "velocity": 94}, {"time": 311, "pitch": 48, "duration": 17, "velocity": 97}, {"time": 311, "pitch": 60, "duration": 6, "velocity": 76}, {"time": 311, "pitch": 63, "duration": 5, "velocity": 65}, {"time": 317, "pitch": 55, "duration": 7, "velocity": 62}, {"time": 320, "pitch": 60, "duration": 1, "velocity": 40}, {"time": 323, "pitch": 63, "duration": 6, "velocity": 82}, {"time": 323, "pitch": 67, "duration": 6, "velocity": 97}, {"time": 326, "pitch": 55, "duration": 3, "velocity": 71}, {"time": 329, "pitch": 60, "duration": 1, "velocity": 105}, {"time": 335, "pitch": 46, "duration": 18, "velocity": 85}, {"time": 335, "pitch": 58, "duration": 7, "velocity": 61}, {"time": 335, "pitch": 62, "duration": 9, "velocity": 92}, {"time": 341, "pitch": 53, "duration": 7, "velocity": 43}, {"time": 344, "pitch": 58, "duration": 4, "velocity": 42}, {"time": 347, "pitch": 62, "duration": 6, "velocity": 89}, {"time": 347, "pitch": 65, "duration": 6, "velocity": 102}, {"time": 350, "pitch": 53, "duration": 3, "velocity": 84}, {"time": 353, "pitch": 58, "duration": 2, "velocity": 99}, {"time": 359, "pitch": 44, "duration": 22, "velocity": 99}, {"time": 359, "pitch": 56, "duration": 12, "velocity": 77}, {"time": 359, "pitch": 60, "duration": 17, "velocity": 87}, {"time": 365, "pitch": 51, "duration": 7, "velocity": 35}, {"time": 371, "pitch": 63, "duration": 6, "velocity": 99}, {"time": 374, "pitch": 51, "duration": 9, "velocity": 63}, {"time": 377, "pitch": 56, "duration": 13, "velocity": 90}, {"time": 383, "pitch": 44, "duration": 15, "velocity": 87}, {"time": 383, "pitch": 60, "duration": 7, "velocity": 80}, {"time": 383, "pitch": 63, "duration": 10, "velocity": 45}, {"time": 389, "pitch": 51, "duration": 7, "velocity": 32}, {"time": 395, "pitch": 56, "duration": 3, "velocity": 99}, {"time": 395, "pitch": 63, "duration": 6, "velocity": 99}, {"time": 398, "pitch": 51, "duration": 3, "velocity": 85}, {"time": 401, "pitch": 44, "duration": 1, "velocity": 96}, {"time": 407, "pitch": 41, "duration": 16, "velocity": 97}, {"time": 407, "pitch": 53, "duration": 12, "velocity": 80}, {"time": 407, "pitch": 56, "duration": 8, "velocity": 70}, {"time": 413, "pitch": 48, "duration": 6, "velocity": 24}, {"time": 419, "pitch": 56, "duration": 7, "velocity": 99}, {"time": 419, "pitch": 60, "duration": 8, "velocity": 100}, {"time": 422, "pitch": 48, "duration": 2, "velocity": 53}, {"time": 425, "pitch": 53, "duration": 2, "velocity": 100}, {"time": 431, "pitch": 46, "duration": 14, "velocity": 70}, {"time": 431, "pitch": 58, "duration": 3, "velocity": 48}, {"time": 431, "pitch": 62, "duration": 6, "velocity": 78}, {"time": 434, "pitch": 53, "duration": 10, "velocity": 49}, {"time": 437, "pitch": 58, "duration": 4, "velocity": 87}, {"time": 443, "pitch": 58, "duration": 6, "velocity": 102}, {"time": 443, "pitch": 62, "duration": 7, "velocity": 102}, {"time": 455, "pitch": 43, "duration": 18, "velocity": 102}, {"time": 455, "pitch": 55, "duration": 3, "velocity": 80}, {"time": 455, "pitch": 62, "duration": 4, "velocity": 87}, {"time": 458, "pitch": 50, "duration": 10, "velocity": 62}, {"time": 461, "pitch": 55, "duration": 4, "velocity": 100}, {"time": 467, "pitch": 55, "duration": 5, "velocity": 89}, {"time": 467, "pitch": 62, "duration": 5, "velocity": 87}, {"time": 467, "pitch": 67, "duration": 7, "velocity": 92}, {"time": 473, "pitch": 50, "duration": 1, "velocity": 66}, {"time": 479, "pitch": 48, "duration": 18, "velocity": 100}, {"time": 479, "pitch": 60, "duration": 3, "velocity": 73}, {"time": 479, "pitch": 63, "duration": 6, "velocity": 72}, {"time": 482, "pitch": 55, "duration": 10, "velocity": 58}, {"time": 485, "pitch": 60, "duration": 4, "velocity": 97}, {"time": 491, "pitch": 62, "duration": 3, "velocity": 97}, {"time": 494, "pitch": 63, "duration": 13, "velocity": 109}, {"time": 497, "pitch": 55, "duration": 1, "velocity": 80}, {"time": 500, "pitch": 60, "duration": 4, "velocity": 80}, {"time": 503, "pitch": 44, "duration": 15, "velocity": 93}, {"time": 506, "pitch": 51, "duration": 10, "velocity": 32}, {"time": 509, "pitch": 56, "duration": 4, "velocity": 70}, {"time": 515, "pitch": 56, "duration": 5, "velocity": 93}, {"time": 515, "pitch": 63, "duration": 5, "velocity": 82}, {"time": 518, "pitch": 51, "duration": 3, "velocity": 63}, {"time": 521, "pitch": 44, "duration": 2, "velocity": 82}, {"time": 527, "pitch": 46, "duration": 15, "velocity": 77}, {"time": 527, "pitch": 58, "duration": 11, "velocity": 72}, {"time": 527, "pitch": 62, "duration": 8, "velocity": 97}, {"time": 533, "pitch": 53, "duration": 7, "velocity": 40}, {"time": 539, "pitch": 58, "duration": 3, "velocity": 72}, {"time": 539, "pitch": 62, "duration": 6, "velocity": 100}, {"time": 539, "pitch": 65, "duration": 5, "velocity": 100}, {"time": 542, "pitch": 53, "duration": 3, "velocity": 78}, {"time": 545, "pitch": 58, "duration": 3, "velocity": 99}, {"time": 548, "pitch": 65, "duration": 4, "velocity": 97}, {"time": 551, "pitch": 51, "duration": 18, "velocity": 102}, {"time": 554, "pitch": 58, "duration": 8, "velocity": 32}, {"time": 557, "pitch": 62, "duration": 3, "velocity": 67}, {"time": 560, "pitch": 63, "duration": 3, "velocity": 99}, {"time": 563, "pitch": 67, "duration": 5, "velocity": 97}, {"time": 566, "pitch": 58, "duration": 5, "velocity": 61}, {"time": 569, "pitch": 63, "duration": 4, "velocity": 85}, {"time": 575, "pitch": 51, "duration": 14, "velocity": 90}, {"time": 575, "pitch": 63, "duration": 7, "velocity": 77}, {"time": 575, "pitch": 67, "duration": 6, "velocity": 92}, {"time": 581, "pitch": 58, "duration": 7, "velocity": 29}, {"time": 587, "pitch": 63, "duration": 3, "velocity": 109}, {"time": 587, "pitch": 67, "duration": 6, "velocity": 102}, {"time": 590, "pitch": 58, "duration": 1, "velocity": 90}, {"time": 593, "pitch": 63, "duration": 3, "velocity": 99}, {"time": 596, "pitch": 67, "duration": 8, "velocity": 89}, {"time": 599, "pitch": 44, "duration": 18, "velocity": 96}, {"time": 602, "pitch": 51, "duration": 7, "velocity": 59}, {"time": 605, "pitch": 56, "duration": 9, "velocity": 79}, {"time": 608, "pitch": 63, "duration": 14, "velocity": 99}, {"time": 611, "pitch": 51, "duration": 4, "velocity": 63}, {"time": 614, "pitch": 60, "duration": 6, "velocity": 76}, {"time": 617, "pitch": 51, "duration": 2, "velocity": 79}, {"time": 620, "pitch": 56, "duration": 1, "velocity": 102}, {"time": 623, "pitch": 46, "duration": 18, "velocity": 93}, {"time": 623, "pitch": 62, "duration": 6, "velocity": 94}, {"time": 626, "pitch": 53, "duration": 7, "velocity": 66}, {"time": 629, "pitch": 58, "duration": 6, "velocity": 90}, {"time": 632, "pitch": 62, "duration": 6, "velocity": 89}, {"time": 632, "pitch": 65, "duration": 8, "velocity": 94}, {"time": 635, "pitch": 53, "duration": 6, "velocity": 80}, {"time": 638, "pitch": 58, "duration": 4, "velocity": 93}, {"time": 641, "pitch": 62, "duration": 2, "velocity": 84}, {"time": 647, "pitch": 43, "duration": 19, "velocity": 87}, {"time": 647, "pitch": 55, "duration": 3, "velocity": 67}, {"time": 647, "pitch": 58, "duration": 6, "velocity": 63}, {"time": 650, "pitch": 50, "duration": 7, "velocity": 49}, {"time": 653, "pitch": 55, "duration": 9, "velocity": 84}, {"time": 656, "pitch": 58, "duration": 12, "velocity": 87}, {"time": 656, "pitch": 62, "duration": 13, "velocity": 94}, {"time": 662, "pitch": 50, "duration": 5, "velocity": 78}, {"time": 665, "pitch": 55, "duration": 2, "velocity": 80}, {"time": 668, "pitch": 67, "duration": 8, "velocity": 89}, {"time": 671, "pitch": 48, "duration": 19, "velocity": 80}, {"time": 674, "pitch": 55, "duration": 6, "velocity": 73}, {"time": 677, "pitch": 60, "duration": 7, "velocity": 78}, {"time": 680, "pitch": 62, "duration": 6, "velocity": 105}, {"time": 683, "pitch": 55, "duration": 4, "velocity": 76}, {"time": 686, "pitch": 63, "duration": 8, "velocity": 112}, {"time": 689, "pitch": 55, "duration": 1, "velocity": 78}, {"time": 692, "pitch": 60, "duration": 3, "velocity": 92}, {"time": 695, "pitch": 44, "duration": 18, "velocity": 96}, {"time": 698, "pitch": 51, "duration": 7, "velocity": 57}, {"time": 701, "pitch": 56, "duration": 2, "velocity": 85}, {"time": 704, "pitch": 56, "duration": 9, "velocity": 85}, {"time": 704, "pitch": 63, "duration": 13, "velocity": 93}, {"time": 713, "pitch": 51, "duration": 2, "velocity": 70}, {"time": 716, "pitch": 60, "duration": 3, "velocity": 89}, {"time": 719, "pitch": 46, "duration": 17, "velocity": 99}, {"time": 722, "pitch": 53, "duration": 7, "velocity": 66}, {"time": 725, "pitch": 58, "duration": 1, "velocity": 96}, {"time": 728, "pitch": 58, "duration": 7, "velocity": 96}, {"time": 728, "pitch": 62, "duration": 9, "velocity": 94}, {"time": 734, "pitch": 53, "duration": 3, "velocity": 58}, {"time": 737, "pitch": 58, "duration": 4, "velocity": 102}, {"time": 740, "pitch": 62, "duration": 3, "velocity": 66}, {"time": 743, "pitch": 51, "duration": 16, "velocity": 105}, {"time": 746, "pitch": 58, "duration": 6, "velocity": 35}, {"time": 749, "pitch": 63, "duration": 1, "velocity": 87}, {"time": 752, "pitch": 63, "duration": 4, "velocity": 109}, {"time": 752, "pitch": 67, "duration": 5, "velocity": 97}, {"time": 755, "pitch": 58, "duration": 4, "velocity": 65}, {"time": 758, "pitch": 63, "duration": 4, "velocity": 99}, {"time": 761, "pitch": 58, "duration": 3, "velocity": 59}, {"time": 764, "pitch": 63, "duration": 4, "velocity": 93}, {"time": 764, "pitch": 68, "duration": 4, "velocity": 96}, {"time": 767, "pitch": 51, "duration": 10, "velocity": 102}, {"time": 770, "pitch": 63, "duration": 4, "velocity": 85}, {"time": 770, "pitch": 67, "duration": 4, "velocity": 105}, {"time": 773, "pitch": 58, "duration": 4, "velocity": 85}, {"time": 776, "pitch": 63, "duration": 4, "velocity": 90}, {"time": 776, "pitch": 67, "duration": 4, "velocity": 92}, {"time": 779, "pitch": 51, "duration": 5, "velocity": 72}, {"time": 782, "pitch": 63, "duration": 2, "velocity": 79}, {"time": 782, "pitch": 65, "duration": 6, "velocity": 108}, {"time": 785, "pitch": 58, "duration": 1, "velocity": 105}, {"time": 788, "pitch": 63, "duration": 3, "velocity": 40}, {"time": 791, "pitch": 44, "duration": 15, "velocity": 105}, {"time": 794, "pitch": 51, "duration": 7, "velocity": 74}, {"time": 797, "pitch": 56, "duration": 1, "velocity": 82}, {"time": 800, "pitch": 56, "duration": 4, "velocity": 85}, {"time": 800, "pitch": 63, "duration": 4, "velocity": 96}, {"time": 803, "pitch": 51, "duration": 4, "velocity": 59}, {"time": 806, "pitch": 56, "duration": 3, "velocity": 93}, {"time": 806, "pitch": 60, "duration": 2, "velocity": 92}, {"time": 806, "pitch": 63, "duration": 3, "velocity": 87}, {"time": 809, "pitch": 44, "duration": 1, "velocity": 87}, {"time": 815, "pitch": 46, "duration": 15, "velocity": 93}, {"time": 815, "pitch": 58, "duration": 3, "velocity": 74}, {"time": 815, "pitch": 62, "duration": 6, "velocity": 94}, {"time": 818, "pitch": 53, "duration": 7, "velocity": 62}, {"time": 821, "pitch": 58, "duration": 2, "velocity": 72}, {"time": 824, "pitch": 58, "duration": 3, "velocity": 61}, {"time": 824, "pitch": 65, "duration": 4, "velocity": 102}, {"time": 827, "pitch": 53, "duration": 4, "velocity": 78}, {"time": 830, "pitch": 58, "duration": 3, "velocity": 82}, {"time": 830, "pitch": 62, "duration": 3, "velocity": 102}, {"time": 833, "pitch": 46, "duration": 2, "velocity": 74}, {"time": 839, "pitch": 43, "duration": 15, "velocity": 102}, {"time": 839, "pitch": 55, "duration": 3, "velocity": 66}, {"time": 839, "pitch": 58, "duration": 6, "velocity": 65}, {"time": 842, "pitch": 50, "duration": 6, "velocity": 64}, {"time": 845, "pitch": 55, "duration": 1, "velocity": 66}, {"time": 848, "pitch": 55, "duration": 3, "velocity": 84}, {"time": 848, "pitch": 62, "duration": 4, "velocity": 92}, {"time": 851, "pitch": 50, "duration": 4, "velocity": 82}, {"time": 854, "pitch": 55, "duration": 2, "velocity": 92}, {"time": 854, "pitch": 58, "duration": 2, "velocity": 105}, {"time": 857, "pitch": 43, "duration": 1, "velocity": 87}, {"time": 863, "pitch": 48, "duration": 19, "velocity": 100}, {"time": 863, "pitch": 60, "duration": 2, "velocity": 73}, {"time": 863, "pitch": 63, "duration": 5, "velocity": 72}, {"time": 866, "pitch": 55, "duration": 6, "velocity": 69}, {"time": 869, "pitch": 60, "duration": 3, "velocity": 94}, {"time": 872, "pitch": 62, "duration": 6, "velocity": 102}, {"time": 875, "pitch": 55, "duration": 3, "velocity": 69}, {"time": 878, "pitch": 63, "duration": 14, "velocity": 109}, {"time": 881, "pitch": 55, "duration": 1, "velocity": 71}, {"time": 884, "pitch": 60, "duration": 3, "velocity": 82}, {"time": 887, "pitch": 44, "duration": 15, "velocity": 93}, {"time": 890, "pitch": 51, "duration": 7, "velocity": 72}, {"time": 893, "pitch": 56, "duration": 6, "velocity": 90}, {"time": 896, "pitch": 63, "duration": 6, "velocity": 99}, {"time": 899, "pitch": 51, "duration": 4, "velocity": 72}, {"time": 902, "pitch": 56, "duration": 4, "velocity": 105}, {"time": 911, "pitch": 46, "duration": 19, "velocity": 90}, {"time": 911, "pitch": 58, "duration": 3, "velocity": 70}, {"time": 911, "pitch": 62, "duration": 7, "velocity": 102}, {"time": 914, "pitch": 53, "duration": 8, "velocity": 48}, {"time": 917, "pitch": 58, "duration": 10, "velocity": 77}, {"time": 920, "pitch": 62, "duration": 9, "velocity": 94}, {"time": 920, "pitch": 65, "duration": 8, "velocity": 97}, {"time": 926, "pitch": 53, "duration": 4, "velocity": 51}, {"time": 929, "pitch": 58, "duration": 2, "velocity": 87}, {"time": 932, "pitch": 65, "duration": 3, "velocity": 94}, {"time": 935, "pitch": 51, "duration": 21, "velocity": 102}, {"time": 938, "pitch": 58, "duration": 6, "velocity": 68}, {"time": 941, "pitch": 63, "duration": 9, "velocity": 65}, {"time": 944, "pitch": 67, "duration": 8, "velocity": 82}, {"time": 950, "pitch": 58, "duration": 8, "velocity": 59}, {"time": 953, "pitch": 63, "duration": 3, "velocity": 65}, {"time": 956, "pitch": 65, "duration": 2, "velocity": 58}, {"time": 959, "pitch": 51, "duration": 19, "velocity": 96}, {"time": 959, "pitch": 63, "duration": 13, "velocity": 85}, {"time": 962, "pitch": 58, "duration": 16, "velocity": 43}, {"time": 983, "pitch": 48, "duration": 16, "velocity": 92}, {"time": 983, "pitch": 60, "duration": 3, "velocity": 58}, {"time": 983, "pitch": 63, "duration": 6, "velocity": 79}, {"time": 986, "pitch": 55, "duration": 13, "velocity": 62}, {"time": 989, "pitch": 60, "duration": 3, "velocity": 82}, {"time": 992, "pitch": 62, "duration": 4, "velocity": 102}, {"time": 998, "pitch": 63, "duration": 2, "velocity": 96}, {"time": 1007, "pitch": 46, "duration": 16, "velocity": 59}, {"time": 1007, "pitch": 58, "duration": 6, "velocity": 50}, {"time": 1007, "pitch": 62, "duration": 9, "velocity": 87}, {"time": 1013, "pitch": 53, "duration": 8, "velocity": 58}, {"time": 1016, "pitch": 58, "duration": 8, "velocity": 63}, {"time": 1019, "pitch": 62, "duration": 4, "velocity": 94}, {"time": 1019, "pitch": 65, "duration": 5, "velocity": 102}, {"time": 1031, "pitch": 44, "duration": 23, "velocity": 77}, {"time": 1031, "pitch": 56, "duration": 3, "velocity": 54}, {"time": 1031, "pitch": 63, "duration": 6, "velocity": 61}, {"time": 1034, "pitch": 51, "duration": 7, "velocity": 22}, {"time": 1037, "pitch": 56, "duration": 10, "velocity": 87}, {"time": 1040, "pitch": 63, "duration": 14, "velocity": 85}, {"time": 1046, "pitch": 51, "duration": 8, "velocity": 41}, {"time": 1049, "pitch": 56, "duration": 5, "velocity": 65}, {"time": 1055, "pitch": 44, "duration": 15, "velocity": 82}, {"time": 1055, "pitch": 56, "duration": 7, "velocity": 70}, {"time": 1055, "pitch": 60, "duration": 9, "velocity": 89}, {"time": 1061, "pitch": 51, "duration": 7, "velocity": 36}, {"time": 1064, "pitch": 56, "duration": 1, "velocity": 41}, {"time": 1067, "pitch": 56, "duration": 2, "velocity": 93}, {"time": 1067, "pitch": 60, "duration": 2, "velocity": 89}, {"time": 1067, "pitch": 63, "duration": 4, "velocity": 82}, {"time": 1070, "pitch": 51, "duration": 1, "velocity": 52}, {"time": 1073, "pitch": 62, "duration": 5, "velocity": 94}, {"time": 1079, "pitch": 48, "duration": 17, "velocity": 97}, {"time": 1079, "pitch": 60, "duration": 6, "velocity": 76}, {"time": 1079, "pitch": 63, "duration": 5, "velocity": 65}, {"time": 1085, "pitch": 55, "duration": 7, "velocity": 62}, {"time": 1088, "pitch": 60, "duration": 1, "velocity": 40}, {"time": 1091, "pitch": 63, "duration": 6, "velocity": 82}, {"time": 1091, "pitch": 67, "duration": 6, "velocity": 97}, {"time": 1094, "pitch": 55, "duration": 3, "velocity": 71}, {"time": 1097, "pitch": 60, "duration": 1, "velocity": 105}, {"time": 1103, "pitch": 46, "duration": 18, "velocity": 85}, {"time": 1103, "pitch": 58, "duration": 7, "velocity": 61}, {"time": 1103, "pitch": 62, "duration": 9, "velocity": 92}, {"time": 1109, "pitch": 53, "duration": 7, "velocity": 43}, {"time": 1112, "pitch": 58, "duration": 4, "velocity": 42}, {"time": 1115, "pitch": 62, "duration": 6, "velocity": 89}, {"time": 1115, "pitch": 65, "duration": 6, "velocity": 102}, {"time": 1118, "pitch": 53, "duration": 3, "velocity": 84}, {"time": 1121, "pitch": 58, "duration": 2, "velocity": 99}, {"time": 1127, "pitch": 44, "duration": 22, "velocity": 99}, {"time": 1127, "pitch": 56, "duration": 12, "velocity": 77}, {"time": 1127, "pitch": 60, "duration": 17, "velocity": 87}, {"time": 1133, "pitch": 51, "duration": 7, "velocity": 35}, {"time": 1139, "pitch": 63, "duration": 6, "velocity": 99}, {"time": 1142, "pitch": 51, "duration": 9, "velocity": 63}, {"time": 1145, "pitch": 56, "duration": 13, "velocity": 90}, {"time": 1151, "pitch": 44, "duration": 15, "velocity": 87}, {"time": 1151, "pitch": 60, "duration": 7, "velocity": 80}, {"time": 1151, "pitch": 63, "duration": 10, "velocity": 45}, {"time": 1157, "pitch": 51, "duration": 7, "velocity": 32}, {"time": 1163, "pitch": 56, "duration": 3, "velocity": 99}, {"time": 1163, "pitch": 63, "duration": 6, "velocity": 99}, {"time": 1166, "pitch": 51, "duration": 3, "velocity": 85}, {"time": 1169, "pitch": 44, "duration": 1, "velocity": 96}, {"time": 1175, "pitch": 41, "duration": 16, "velocity": 97}, {"time": 1175, "pitch": 53, "duration": 12, "velocity": 80}, {"time": 1175, "pitch": 56, "duration": 8, "velocity": 70}, {"time": 1181, "pitch": 48, "duration": 6, "velocity": 24}, {"time": 1187, "pitch": 56, "duration": 7, "velocity": 99}, {"time": 1187, "pitch": 60, "duration": 8, "velocity": 100}, {"time": 1190, "pitch": 48, "duration": 2, "velocity": 53}, {"time": 1193, "pitch": 53, "duration": 2, "velocity": 100}, {"time": 1199, "pitch": 46, "duration": 14, "velocity": 70}, {"time": 1199, "pitch": 58, "duration": 3, "velocity": 48}, {"time": 1199, "pitch": 62, "duration": 6, "velocity": 78}, {"time": 1202, "pitch": 53, "duration": 10, "velocity": 49}, {"time": 1205, "pitch": 58, "duration": 4, "velocity": 87}, {"time": 1211, "pitch": 58, "duration": 6, "velocity": 102}, {"time": 1211, "pitch": 62, "duration": 7, "velocity": 102}, {"time": 1223, "pitch": 43, "duration": 18, "velocity": 102}, {"time": 1223, "pitch": 55, "duration": 3, "velocity": 80}, {"time": 1223, "pitch": 62, "duration": 4, "velocity": 87}, {"time": 1226, "pitch": 50, "duration": 10, "velocity": 62}, {"time": 1229, "pitch": 55, "duration": 4, "velocity": 100}, {"time": 1235, "pitch": 55, "duration": 5, "velocity": 89}, {"time": 1235, "pitch": 62, "duration": 5, "velocity": 87}, {"time": 1235, "pitch": 67, "duration": 7, "velocity": 92}, {"time": 1241, "pitch": 50, "duration": 1, "velocity": 66}, {"time": 1247, "pitch": 48, "duration": 18, "velocity": 100}, {"time": 1247, "pitch": 60, "duration": 3, "velocity": 73}, {"time": 1247, "pitch": 63, "duration": 6, "velocity": 72}, {"time": 1250, "pitch": 55, "duration": 10, "velocity": 58}, {"time": 1253, "pitch": 60, "duration": 4, "velocity": 97}, {"time": 1259, "pitch": 62, "duration": 3, "velocity": 97}, {"time": 1262, "pitch": 63, "duration": 13, "velocity": 109}, {"time": 1265, "pitch": 55, "duration": 1, "velocity": 80}, {"time": 1268, "pitch": 60, "duration": 4, "velocity": 80}, {"time": 1271, "pitch": 49, "duration": 21, "velocity": 74}, {"time": 1271, "pitch": 61, "duration": 3, "velocity": 59}, {"time": 1271, "pitch": 68, "duration": 7, "velocity": 48}, {"time": 1274, "pitch": 56, "duration": 7, "velocity": 50}, {"time": 1277, "pitch": 61, "duration": 2, "velocity": 87}, {"time": 1280, "pitch": 61, "duration": 5, "velocity": 87}, {"time": 1280, "pitch": 68, "duration": 5, "velocity": 72}, {"time": 1283, "pitch": 56, "duration": 9, "velocity": 34}, {"time": 1286, "pitch": 65, "duration": 6, "velocity": 92}, {"time": 1295, "pitch": 49, "duration": 16, "velocity": 87}, {"time": 1295, "pitch": 61, "duration": 4, "velocity": 59}, {"time": 1295, "pitch": 68, "duration": 7, "velocity": 55}, {"time": 1298, "pitch": 56, "duration": 7, "velocity": 24}, {"time": 1301, "pitch": 61, "duration": 1, "velocity": 43}, {"time": 1304, "pitch": 61, "duration": 7, "velocity": 90}, {"time": 1304, "pitch": 65, "duration": 9, "velocity": 84}, {"time": 1310, "pitch": 56, "duration": 3, "velocity": 70}, {"time": 1313, "pitch": 61, "duration": 4, "velocity": 74}, {"time": 1316, "pitch": 68, "duration": 4, "velocity": 48}, {"time": 1319, "pitch": 46, "duration": 21, "velocity": 68}, {"time": 1319, "pitch": 58, "duration": 3, "velocity": 59}, {"time": 1319, "pitch": 62, "duration": 10, "velocity": 92}, {"time": 1322, "pitch": 53, "duration": 8, "velocity": 42}, {"time": 1325, "pitch": 58, "duration": 7, "velocity": 72}, {"time": 1328, "pitch": 65, "duration": 6, "velocity": 97}, {"time": 1331, "pitch": 53, "duration": 5, "velocity": 50}, {"time": 1334, "pitch": 62, "duration": 6, "velocity": 89}, {"time": 1337, "pitch": 53, "duration": 3, "velocity": 49}, {"time": 1340, "pitch": 58, "duration": 2, "velocity": 68}, {"time": 1343, "pitch": 46, "duration": 24, "velocity": 65}, {"time": 1343, "pitch": 58, "duration": 15, "velocity": 41}, {"time": 1343, "pitch": 62, "duration": 15, "velocity": 94}, {"time": 1343, "pitch": 70, "duration": 11, "velocity": 61}, {"time": 1358, "pitch": 53, "duration": 8, "velocity": 58}, {"time": 1361, "pitch": 58, "duration": 6, "velocity": 52}, {"time": 1364, "pitch": 62, "duration": 2, "velocity": 50}, {"time": 1367, "pitch": 48, "duration": 16, "velocity": 92}, {"time": 1367, "pitch": 60, "duration": 3, "velocity": 58}, {"time": 1367, "pitch": 63, "duration": 6, "velocity": 79}, {"time": 1370, "pitch": 55, "duration": 13, "velocity": 62}, {"time": 1373, "pitch": 60, "duration": 3, "velocity": 82}, {"time": 1376, "pitch": 62, "duration": 4, "velocity": 102}, {"time": 1382, "pitch": 63, "duration": 2, "velocity": 96}, {"time": 1391, "pitch": 46, "duration": 16, "velocity": 59}, {"time": 1391, "pitch": 58, "duration": 6, "velocity": 50}, {"time": 1391, "pitch": 62, "duration": 9, "velocity": 87}, {"time": 1397, "pitch": 53, "duration": 8, "velocity": 58}, {"time": 1400, "pitch": 58, "duration": 8, "velocity": 63}, {"time": 1403, "pitch": 62, "duration": 4, "velocity": 94}, {"time": 1403, "pitch": 65, "duration": 5, "velocity": 102}, {"time": 1415, "pitch": 44, "duration": 23, "velocity": 77}, {"time": 1415, "pitch": 56, "duration": 3, "velocity": 54}, {"time": 1415, "pitch": 63, "duration": 6, "velocity": 61}, {"time": 1418, "pitch": 51, "duration": 7, "velocity": 22}, {"time": 1421, "pitch": 56, "duration": 10, "velocity": 87}, {"time": 1424, "pitch": 63, "duration": 14, "velocity": 85}, {"time": 1430, "pitch": 51, "duration": 8, "velocity": 41}, {"time": 1433, "pitch": 56, "duration": 5, "velocity": 65}, {"time": 1439, "pitch": 44, "duration": 15, "velocity": 82}, {"time": 1439, "pitch": 56, "duration": 7, "velocity": 70}, {"time": 1439, "pitch": 60, "duration": 9, "velocity": 89}, {"time": 1445, "pitch": 51, "duration": 7, "velocity": 36}, {"time": 1448, "pitch": 56, "duration": 1, "velocity": 41}, {"time": 1451, "pitch": 56, "duration": 2, "velocity": 93}, {"time": 1451, "pitch": 60, "duration": 2, "velocity": 89}, {"time": 1451, "pitch": 63, "duration": 4, "velocity": 82}, {"time": 1454, "pitch": 51, "duration": 1, "velocity": 52}, {"time": 1457, "pitch": 62, "duration": 5, "velocity": 94}, {"time": 1463, "pitch": 48, "duration": 17, "velocity": 97}, {"time": 1463, "pitch": 60, "duration": 6, "velocity": 76}, {"time": 1463, "pitch": 63, "duration": 5, "velocity": 65}, {"time": 1469, "pitch": 55, "duration": 7, "velocity": 62}, {"time": 1472, "pitch": 60, "duration": 1, "velocity": 40}, {"time": 1475, "pitch": 63, "duration": 6, "velocity": 82}, {"time": 1475, "pitch": 67, "duration": 6, "velocity": 97}, {"time": 1478, "pitch": 55, "duration": 3, "velocity": 71}, {"time": 1481, "pitch": 60, "duration": 1, "velocity": 105}, {"time": 1487, "pitch": 46, "duration": 18, "velocity": 85}, {"time": 1487, "pitch": 58, "duration": 7, "velocity": 61}, {"time": 1487, "pitch": 62, "duration": 9, "velocity": 92}, {"time": 1493, "pitch": 53, "duration": 7, "velocity": 43}, {"time": 1496, "pitch": 58, "duration": 4, "velocity": 42}, {"time": 1499, "pitch": 62, "duration": 6, "velocity": 89}, {"time": 1499, "pitch": 65, "duration": 6, "velocity": 102}, {"time": 1502, "pitch": 53, "duration": 3, "velocity": 84}, {"time": 1505, "pitch": 58, "duration": 2, "velocity": 99}, {"time": 1511, "pitch": 44, "duration": 22, "velocity": 99}, {"time": 1511, "pitch": 56, "duration": 12, "velocity": 77}, {"time": 1511, "pitch": 60, "duration": 17, "velocity": 87}, {"time": 1517, "pitch": 51, "duration": 7, "velocity": 35}, {"time": 1523, "pitch": 63, "duration": 6, "velocity": 99}, {"time": 1526, "pitch": 51, "duration": 9, "velocity": 63}, {"time": 1529, "pitch": 56, "duration": 13, "velocity": 90}, {"time": 1535, "pitch": 44, "duration": 15, "velocity": 87}, {"time": 1535, "pitch": 60, "duration": 7, "velocity": 80}, {"time": 1535, "pitch": 63, "duration": 10, "velocity": 45}, {"time": 1541, "pitch": 51, "duration": 7, "velocity": 32}, {"time": 1547, "pitch": 56, "duration": 3, "velocity": 99}, {"time": 1547, "pitch": 63, "duration": 6, "velocity": 99}, {"time": 1550, "pitch": 51, "duration": 3, "velocity": 85}, {"time": 1553, "pitch": 44, "duration": 1, "velocity": 96}, {"time": 1559, "pitch": 41, "duration": 16, "velocity": 97}, {"time": 1559, "pitch": 53, "duration": 12, "velocity": 80}, {"time": 1559, "pitch": 56, "duration": 8, "velocity": 70}, {"time": 1565, "pitch": 48, "duration": 6, "velocity": 24}, {"time": 1571, "pitch": 56, "duration": 7, "velocity": 99}, {"time": 1571, "pitch": 60, "duration": 8, "velocity": 100}, {"time": 1574, "pitch": 48, "duration": 2, "velocity": 53}, {"time": 1577, "pitch": 53, "duration": 2, "velocity": 100}, {"time": 1583, "pitch": 46, "duration": 14, "velocity": 70}, {"time": 1583, "pitch": 58, "duration": 3, "velocity": 48}, {"time": 1583, "pitch": 62, "duration": 6, "velocity": 78}, {"time": 1586, "pitch": 53, "duration": 10, "velocity": 49}, {"time": 1589, "pitch": 58, "duration": 4, "velocity": 87}, {"time": 1595, "pitch": 58, "duration": 6, "velocity": 102}, {"time": 1595, "pitch": 62, "duration": 7, "velocity": 102}, {"time": 1607, "pitch": 43, "duration": 18, "velocity": 102}, {"time": 1607, "pitch": 55, "duration": 3, "velocity": 80}, {"time": 1607, "pitch": 62, "duration": 4, "velocity": 87}, {"time": 1610, "pitch": 50, "duration": 10, "velocity": 62}, {"time": 1613, "pitch": 55, "duration": 4, "velocity": 100}, {"time": 1619, "pitch": 55, "duration": 5, "velocity": 89}, {"time": 1619, "pitch": 62, "duration": 5, "velocity": 87}, {"time": 1619, "pitch": 67, "duration": 7, "velocity": 92}, {"time": 1625, "pitch": 50, "duration": 1, "velocity": 66}, {"time": 1631, "pitch": 48, "duration": 18, "velocity": 100}, {"time": 1631, "pitch": 60, "duration": 3, "velocity": 73}, {"time": 1631, "pitch": 63, "duration": 6, "velocity": 72}, {"time": 1634, "pitch": 55, "duration": 10, "velocity": 58}, {"time": 1637, "pitch": 60, "duration": 4, "velocity": 97}, {"time": 1643, "pitch": 62, "duration": 3, "velocity": 97}, {"time": 1646, "pitch": 63, "duration": 13, "velocity": 109}, {"time": 1649, "pitch": 55, "duration": 1, "velocity": 80}, {"time": 1652, "pitch": 60, "duration": 4, "velocity": 80}, {"time": 1655, "pitch": 44, "duration": 15, "velocity": 93}, {"time": 1658, "pitch": 51, "duration": 10, "velocity": 32}, {"time": 1661, "pitch": 56, "duration": 4, "velocity": 70}, {"time": 1667, "pitch": 56, "duration": 5, "velocity": 93}, {"time": 1667, "pitch": 63, "duration": 5, "velocity": 82}, {"time": 1670, "pitch": 51, "duration": 3, "velocity": 63}, {"time": 1673, "pitch": 44, "duration": 2, "velocity": 82}, {"time": 1679, "pitch": 46, "duration": 15, "velocity": 77}, {"time": 1679, "pitch": 58, "duration": 11, "velocity": 72}, {"time": 1679, "pitch": 62, "duration": 8, "velocity": 97}, {"time": 1685, "pitch": 53, "duration": 7, "velocity": 40}, {"time": 1691, "pitch": 58, "duration": 3, "velocity": 72}, {"time": 1691, "pitch": 62, "duration": 6, "velocity": 100}, {"time": 1691, "pitch": 65, "duration": 5, "velocity": 100}, {"time": 1694, "pitch": 53, "duration": 3, "velocity": 78}, {"time": 1697, "pitch": 58, "duration": 3, "velocity": 99}, {"time": 1700, "pitch": 65, "duration": 4, "velocity": 97}, {"time": 1703, "pitch": 51, "duration": 18, "velocity": 102}, {"time": 1706, "pitch": 58, "duration": 8, "velocity": 32}, {"time": 1709, "pitch": 62, "duration": 3, "velocity": 67}, {"time": 1712, "pitch": 63, "duration": 3, "velocity": 99}, {"time": 1715, "pitch": 67, "duration": 5, "velocity": 97}, {"time": 1718, "pitch": 58, "duration": 5, "velocity": 61}, {"time": 1721, "pitch": 63, "duration": 4, "velocity": 85}, {"time": 1727, "pitch": 51, "duration": 14, "velocity": 90}, {"time": 1727, "pitch": 63, "duration": 7, "velocity": 77}, {"time": 1727, "pitch": 67, "duration": 6, "velocity": 92}, {"time": 1733, "pitch": 58, "duration": 7, "velocity": 29}, {"time": 1739, "pitch": 63, "duration": 3, "velocity": 109}, {"time": 1739, "pitch": 67, "duration": 6, "velocity": 102}, {"time": 1742, "pitch": 58, "duration": 1, "velocity": 90}, {"time": 1745, "pitch": 63, "duration": 3, "velocity": 99}, {"time": 1748, "pitch": 67, "duration": 8, "velocity": 89}, {"time": 1751, "pitch": 44, "duration": 18, "velocity": 96}, {"time": 1754, "pitch": 51, "duration": 7, "velocity": 59}, {"time": 1757, "pitch": 56, "duration": 9, "velocity": 79}, {"time": 1760, "pitch": 63, "duration": 14, "velocity": 99}, {"time": 1763, "pitch": 51, "duration": 4, "velocity": 63}, {"time": 1766, "pitch": 60, "duration": 6, "velocity": 76}, {"time": 1769, "pitch": 51, "duration": 2, "velocity": 79}, {"time": 1772, "pitch": 56, "duration": 1, "velocity": 102}, {"time": 1775, "pitch": 46, "duration": 18, "velocity": 93}, {"time": 1775, "pitch": 62, "duration": 6, "velocity": 94}, {"time": 1778, "pitch": 53, "duration": 7, "velocity": 66}, {"time": 1781, "pitch": 58, "duration": 6, "velocity": 90}, {"time": 1784, "pitch": 62, "duration": 6, "velocity": 89}, {"time": 1784, "pitch": 65, "duration": 8, "velocity": 94}, {"time": 1787, "pitch": 53, "duration": 6, "velocity": 80}, {"time": 1790, "pitch": 58, "duration": 4, "velocity": 93}, {"time": 1793, "pitch": 62, "duration": 2, "velocity": 84}, {"time": 1799, "pitch": 43, "duration": 19, "velocity": 87}, {"time": 1799, "pitch": 55, "duration": 3, "velocity": 67}, {"time": 1799, "pitch": 58, "duration": 6, "velocity": 63}, {"time": 1802, "pitch": 50, "duration": 7, "velocity": 49}, {"time": 1805, "pitch": 55, "duration": 9, "velocity": 84}, {"time": 1808, "pitch": 58, "duration": 12, "velocity": 87}, {"time": 1808, "pitch": 62, "duration": 13, "velocity": 94}, {"time": 1814, "pitch": 50, "duration": 5, "velocity": 78}, {"time": 1817, "pitch": 55, "duration": 2, "velocity": 80}, {"time": 1820, "pitch": 67, "duration": 8, "velocity": 89}, {"time": 1823, "pitch": 48, "duration": 19, "velocity": 80}, {"time": 1826, "pitch": 55, "duration": 6, "velocity": 73}, {"time": 1829, "pitch": 60, "duration": 7, "velocity": 78}, {"time": 1832, "pitch": 62, "duration": 6, "velocity": 105}, {"time": 1835, "pitch": 55, "duration": 4, "velocity": 76}, {"time": 1838, "pitch": 63, "duration": 8, "velocity": 112}, {"time": 1841, "pitch": 55, "duration": 1, "velocity": 78}, {"time": 1844, "pitch": 60, "duration": 3, "velocity": 92}, {"time": 1847, "pitch": 44, "duration": 18, "velocity": 96}, {"time": 1850, "pitch": 51, "duration": 7, "velocity": 57}, {"time": 1853, "pitch": 56, "duration": 2, "velocity": 85}, {"time": 1856, "pitch": 56, "duration": 9, "velocity": 85}, {"time": 1856, "pitch": 63, "duration": 13, "velocity": 93}, {"time": 1865, "pitch": 51, "duration": 2, "velocity": 70}, {"time": 1868, "pitch": 60, "duration": 3, "velocity": 89}, {"time": 1871, "pitch": 46, "duration": 17, "velocity": 99}, {"time": 1874, "pitch": 53, "duration": 7, "velocity": 66}, {"time": 1877, "pitch": 58, "duration": 1, "velocity": 96}, {"time": 1880, "pitch": 58, "duration": 7, "velocity": 96}, {"time": 1880, "pitch": 62, "duration": 9, "velocity": 94}, {"time": 1886, "pitch": 53, "duration": 3, "velocity": 58}, {"time": 1889, "pitch": 58, "duration": 4, "velocity": 102}, {"time": 1892, "pitch": 62, "duration": 3, "velocity": 66}, {"time": 1895, "pitch": 51, "duration": 16, "velocity": 105}, {"time": 1898, "pitch": 58, "duration": 6, "velocity": 35}, {"time": 1901, "pitch": 63, "duration": 1, "velocity": 87}, {"time": 1904, "pitch": 63, "duration": 4, "velocity": 109}, {"time": 1904, "pitch": 67, "duration": 5, "velocity": 97}, {"time": 1907, "pitch": 58, "duration": 4, "velocity": 65}, {"time": 1910, "pitch": 63, "duration": 4, "velocity": 99}, {"time": 1913, "pitch": 58, "duration": 3, "velocity": 59}, {"time": 1916, "pitch": 63, "duration": 4, "velocity": 93}, {"time": 1916, "pitch": 68, "duration": 4, "velocity": 96}, {"time": 1919, "pitch": 51, "duration": 10, "velocity": 102}, {"time": 1922, "pitch": 63, "duration": 4, "velocity": 85}, {"time": 1922, "pitch": 67, "duration": 4, "velocity": 105}, {"time": 1925, "pitch": 58, "duration": 4, "velocity": 85}, {"time": 1928, "pitch": 63, "duration": 4, "velocity": 90}, {"time": 1928, "pitch": 67, "duration": 4, "velocity": 92}, {"time": 1931, "pitch": 51, "duration": 5, "velocity": 72}, {"time": 1934, "pitch": 63, "duration": 2, "velocity": 79}, {"time": 1934, "pitch": 65, "duration": 6, "velocity": 108}, {"time": 1937, "pitch": 58, "duration": 1, "velocity": 105}, {"time": 1940, "pitch": 63, "duration": 3, "velocity": 40}, {"time": 1943, "pitch": 44, "duration": 15, "velocity": 105}, {"time": 1946, "pitch": 51, "duration": 7, "velocity": 74}, {"time": 1949, "pitch": 56, "duration": 1, "velocity": 82}, {"time": 1952, "pitch": 56, "duration": 4, "velocity": 85}, {"time": 1952, "pitch": 63, "duration": 4, "velocity": 96}, {"time": 1955, "pitch": 51, "duration": 4, "velocity": 59}, {"time": 1958, "pitch": 56, "duration": 3, "velocity": 93}, {"time": 1958, "pitch": 60, "duration": 2, "velocity": 92}, {"time": 1958, "pitch": 63, "duration": 3, "velocity": 87}, {"time": 1961, "pitch": 44, "duration": 1, "velocity": 87}, {"time": 1967, "pitch": 46, "duration": 15, "velocity": 93}, {"time": 1967, "pitch": 58, "duration": 3, "velocity": 74}, {"time": 1967, "pitch": 62, "duration": 6, "velocity": 94}, {"time": 1970, "pitch": 53, "duration": 7, "velocity": 62}, {"time": 1973, "pitch": 58, "duration": 2, "velocity": 72}, {"time": 1976, "pitch": 58, "duration": 3, "velocity": 61}, {"time": 1976, "pitch": 65, "duration": 4, "velocity": 102}, {"time": 1979, "pitch": 53, "duration": 4, "velocity": 78}, {"time": 1982, "pitch": 58, "duration": 3, "velocity": 82}, {"time": 1982, "pitch": 62, "duration": 3, "velocity": 102}, {"time": 1985, "pitch": 46, "duration": 2, "velocity": 74}, {"time": 1991, "pitch": 43, "duration": 15, "velocity": 102}, {"time": 1991, "pitch": 55, "duration": 3, "velocity": 66}, {"time": 1991, "pitch": 58, "duration": 6, "velocity": 65}, {"time": 1994, "pitch": 50, "duration": 6, "velocity": 64}, {"time": 1997, "pitch": 55, "duration": 1, "velocity": 66}, {"time": 2000, "pitch": 55, "duration": 3, "velocity": 84}, {"time": 2000, "pitch": 62, "duration": 4, "velocity": 92}, {"time": 2003, "pitch": 50, "duration": 4, "velocity": 82}, {"time": 2006, "pitch": 55, "duration": 2, "velocity": 92}, {"time": 2006, "pitch": 58, "duration": 2, "velocity": 105}, {"time": 2009, "pitch": 43, "duration": 1, "velocity": 87}, {"time": 2015, "pitch": 48, "duration": 19, "velocity": 100}, {"time": 2015, "pitch": 60, "duration": 2, "velocity": 73}, {"time": 2015, "pitch": 63, "duration": 5, "velocity": 72}, {"time": 2018, "pitch": 55, "duration": 6, "velocity": 69}, {"time": 2021, "pitch": 60, "duration": 3, "velocity": 94}, {"time": 2024, "pitch": 62, "duration": 6, "velocity": 102}, {"time": 2027, "pitch": 55, "duration": 3, "velocity": 69}, {"time": 2030, "pitch": 63, "duration": 14, "velocity": 109}, {"time": 2033, "pitch": 55, "duration": 1, "velocity": 71}, {"time": 2036, "pitch": 60, "duration": 3, "velocity": 82}, {"time": 2039, "pitch": 44, "duration": 15, "velocity": 93}, {"time": 2042, "pitch": 51, "duration": 7, "velocity": 72}, {"time": 2045, "pitch": 56, "duration": 6, "velocity": 90}, {"time": 2048, "pitch": 63, "duration": 6, "velocity": 99}, {"time": 2051, "pitch": 51, "duration": 4, "velocity": 72}, {"time": 2054, "pitch": 56, "duration": 4, "velocity": 105}, {"time": 2063, "pitch": 46, "duration": 19, "velocity": 90}, {"time": 2063, "pitch": 58, "duration": 3, "velocity": 70}, {"time": 2063, "pitch": 62, "duration": 7, "velocity": 102}, {"time": 2066, "pitch": 53, "duration": 8, "velocity": 48}, {"time": 2069, "pitch": 58, "duration": 10, "velocity": 77}, {"time": 2072, "pitch": 62, "duration": 9, "velocity": 94}, {"time": 2072, "pitch": 65, "duration": 8, "velocity": 97}, {"time": 2078, "pitch": 53, "duration": 4, "velocity": 51}, {"time": 2081, "pitch": 58, "duration": 2, "velocity": 87}, {"time": 2084, "pitch": 65, "duration": 3, "velocity": 94}, {"time": 2087, "pitch": 51, "duration": 21, "velocity": 102}, {"time": 2090, "pitch": 58, "duration": 6, "velocity": 68}, {"time": 2093, "pitch": 63, "duration": 9, "velocity": 65}, {"time": 2096, "pitch": 67, "duration": 8, "velocity": 82}, {"time": 2102, "pitch": 58, "duration": 8, "velocity": 59}, {"time": 2105, "pitch": 63, "duration": 3, "velocity": 65}, {"time": 2108, "pitch": 65, "duration": 2, "velocity": 58}, {"time": 2111, "pitch": 51, "duration": 19, "velocity": 96}, {"time": 2111, "pitch": 63, "duration": 13, "velocity": 85}, {"time": 2114, "pitch": 58, "duration": 16, "velocity": 43}, {"time": 2135, "pitch": 44, "duration": 4, "velocity": 102}, {"time": 2135, "pitch": 56, "duration": 1, "velocity": 61}, {"time": 2135, "pitch": 60, "duration": 1, "velocity": 92}, {"time": 2135, "pitch": 63, "duration": 1, "velocity": 68}, {"time": 2141, "pitch": 56, "duration": 1, "velocity": 70}, {"time": 2141, "pitch": 60, "duration": 1, "velocity": 69}, {"time": 2141, "pitch": 63, "duration": 1, "velocity": 70}, {"time": 2147, "pitch": 44, "duration": 3, "velocity": 79}, {"time": 2147, "pitch": 51, "duration": 3, "velocity": 57}, {"time": 2147, "pitch": 56, "duration": 1, "velocity": 74}, {"time": 2147, "pitch": 60, "duration": 1, "velocity": 92}, {"time": 2147, "pitch": 63, "duration": 1, "velocity": 74}, {"time": 2153, "pitch": 56, "duration": 1, "velocity": 68}, {"time": 2153, "pitch": 60, "duration": 1, "velocity": 89}, {"time": 2153, "pitch": 63, "duration": 2, "velocity": 65}, {"time": 2159, "pitch": 46, "duration": 2, "velocity": 87}, {"time": 2159, "pitch": 58, "duration": 1, "velocity": 72}, {"time": 2159, "pitch": 62, "duration": 1, "velocity": 84}, {"time": 2165, "pitch": 58, "duration": 1, "velocity": 74}, {"time": 2165, "pitch": 62, "duration": 1, "velocity": 87}, {"time": 2171, "pitch": 46, "duration": 2, "velocity": 72}, {"time": 2171, "pitch": 58, "duration": 1, "velocity": 61}, {"time": 2171, "pitch": 62, "duration": 1, "velocity": 92}, {"time": 2171, "pitch": 65, "duration": 1, "velocity": 87}, {"time": 2177, "pitch": 58, "duration": 1, "velocity": 65}, {"time": 2177, "pitch": 62, "duration": 1, "velocity": 87}, {"time": 2177, "pitch": 65, "duration": 1, "velocity": 87}, {"time": 2183, "pitch": 43, "duration": 6, "velocity": 102}, {"time": 2183, "pitch": 55, "duration": 1, "velocity": 87}, {"time": 2183, "pitch": 58, "duration": 1, "velocity": 93}, {"time": 2183, "pitch": 62, "duration": 1, "velocity": 89}, {"time": 2189, "pitch": 55, "duration": 1, "velocity": 57}, {"time": 2189, "pitch": 58, "duration": 1, "velocity": 96}, {"time": 2189, "pitch": 62, "duration": 1, "velocity": 82}, {"time": 2195, "pitch": 55, "duration": 1, "velocity": 80}, {"time": 2195, "pitch": 58, "duration": 1, "velocity": 99}, {"time": 2195, "pitch": 62, "duration": 1, "velocity": 92}, {"time": 2201, "pitch": 55, "duration": 1, "velocity": 52}, {"time": 2201, "pitch": 58, "duration": 1, "velocity": 79}, {"time": 2201, "pitch": 62, "duration": 1, "velocity": 76}, {"time": 2207, "pitch": 48, "duration": 2, "velocity": 89}, {"time": 2207, "pitch": 55, "duration": 1, "velocity": 80}, {"time": 2207, "pitch": 60, "duration": 1, "velocity": 97}, {"time": 2207, "pitch": 63, "duration": 1, "velocity": 90}, {"time": 2213, "pitch": 55, "duration": 1, "velocity": 71}, {"time": 2213, "pitch": 60, "duration": 1, "velocity": 92}, {"time": 2213, "pitch": 63, "duration": 1, "velocity": 82}, {"time": 2219, "pitch": 55, "duration": 2, "velocity": 94}, {"time": 2219, "pitch": 60, "duration": 2, "velocity": 108}, {"time": 2219, "pitch": 63, "duration": 2, "velocity": 96}, {"time": 2225, "pitch": 55, "duration": 1, "velocity": 89}, {"time": 2225, "pitch": 60, "duration": 1, "velocity": 105}, {"time": 2225, "pitch": 63, "duration": 1, "velocity": 93}, {"time": 2228, "pitch": 56, "duration": 1, "velocity": 27}, {"time": 2231, "pitch": 41, "duration": 5, "velocity": 97}, {"time": 2231, "pitch": 53, "duration": 2, "velocity": 73}, {"time": 2231, "pitch": 56, "duration": 2, "velocity": 77}, {"time": 2231, "pitch": 60, "duration": 2, "velocity": 92}, {"time": 2237, "pitch": 53, "duration": 1, "velocity": 60}, {"time": 2237, "pitch": 56, "duration": 1, "velocity": 87}, {"time": 2237, "pitch": 60, "duration": 1, "velocity": 87}, {"time": 2243, "pitch": 53, "duration": 2, "velocity": 94}, {"time": 2243, "pitch": 56, "duration": 1, "velocity": 109}, {"time": 2243, "pitch": 60, "duration": 2, "velocity": 102}, {"time": 2249, "pitch": 53, "duration": 1, "velocity": 87}, {"time": 2249, "pitch": 56, "duration": 1, "velocity": 99}, {"time": 2249, "pitch": 60, "duration": 1, "velocity": 97}, {"time": 2255, "pitch": 41, "duration": 6, "velocity": 89}, {"time": 2255, "pitch": 53, "duration": 1, "velocity": 76}, {"time": 2255, "pitch": 56, "duration": 1, "velocity": 85}, {"time": 2255, "pitch": 60, "duration": 1, "velocity": 84}, {"time": 2255, "pitch": 65, "duration": 2, "velocity": 80}, {"time": 2261, "pitch": 53, "duration": 1, "velocity": 76}, {"time": 2261, "pitch": 56, "duration": 1, "velocity": 93}, {"time": 2261, "pitch": 60, "duration": 1, "velocity": 94}, {"time": 2267, "pitch": 53, "duration": 3, "velocity": 97}, {"time": 2267, "pitch": 56, "duration": 4, "velocity": 105}, {"time": 2267, "pitch": 60, "duration": 8, "velocity": 102}, {"time": 2270, "pitch": 48, "duration": 6, "velocity": 67}, {"time": 2273, "pitch": 53, "duration": 3, "velocity": 102}, {"time": 2273, "pitch": 56, "duration": 1, "velocity": 14}, {"time": 2276, "pitch": 56, "duration": 1, "velocity": 87}, {"time": 2279, "pitch": 46, "duration": 22, "velocity": 99}, {"time": 2279, "pitch": 58, "duration": 6, "velocity": 112}, {"time": 2279, "pitch": 62, "duration": 9, "velocity": 100}, {"time": 2285, "pitch": 53, "duration": 8, "velocity": 82}, {"time": 2288, "pitch": 58, "duration": 5, "velocity": 77}, {"time": 2291, "pitch": 62, "duration": 7, "velocity": 94}, {"time": 2294, "pitch": 53, "duration": 8, "velocity": 89}, {"time": 2297, "pitch": 58, "duration": 4, "velocity": 93}, {"time": 2300, "pitch": 62, "duration": 2, "velocity": 73}, {"time": 2303, "pitch": 46, "duration": 44, "velocity": 102}, {"time": 2303, "pitch": 58, "duration": 46, "velocity": 63}, {"time": 2303, "pitch": 62, "duration": 46, "velocity": 69}, {"time": 2303, "pitch": 65, "duration": 46, "velocity": 89}, {"time": 2309, "pitch": 53, "duration": 38, "velocity": 48}, {"time": 2351, "pitch": 44, "duration": 18, "velocity": 96}, {"time": 2354, "pitch": 51, "duration": 7, "velocity": 59}, {"time": 2357, "pitch": 56, "duration": 9, "velocity": 79}, {"time": 2360, "pitch": 63, "duration": 14, "velocity": 99}, {"time": 2363, "pitch": 51, "duration": 4, "velocity": 63}, {"time": 2366, "pitch": 60, "duration": 6, "velocity": 76}, {"time": 2369, "pitch": 51, "duration": 2, "velocity": 79}, {"time": 2372, "pitch": 56, "duration": 1, "velocity": 102}, {"time": 2375, "pitch": 46, "duration": 18, "velocity": 93}, {"time": 2375, "pitch": 62, "duration": 6, "velocity": 94}, {"time": 2378, "pitch": 53, "duration": 7, "velocity": 66}, {"time": 2381, "pitch": 58, "duration": 6, "velocity": 90}, {"time": 2384, "pitch": 62, "duration": 6, "velocity": 89}, {"time": 2384, "pitch": 65, "duration": 8, "velocity": 94}, {"time": 2387, "pitch": 53, "duration": 6, "velocity": 80}, {"time": 2390, "pitch": 58, "duration": 4, "velocity": 93}, {"time": 2393, "pitch": 62, "duration": 2, "velocity": 84}, {"time": 2399, "pitch": 43, "duration": 19, "velocity": 87}, {"time": 2399, "pitch": 55, "duration": 3, "velocity": 67}, {"time": 2399, "pitch": 58, "duration": 6, "velocity": 63}, {"time": 2402, "pitch": 50, "duration": 7, "velocity": 49}, {"time": 2405, "pitch": 55, "duration": 9, "velocity": 84}, {"time": 2408, "pitch": 58, "duration": 12, "velocity": 87}, {"time": 2408, "pitch": 62, "duration": 13, "velocity": 94}, {"time": 2414, "pitch": 50, "duration": 5, "velocity": 78}, {"time": 2417, "pitch": 55, "duration": 2, "velocity": 80}, {"time": 2420, "pitch": 67, "duration": 8, "velocity": 89}, {"time": 2423, "pitch": 48, "duration": 19, "velocity": 80}, {"time": 2426, "pitch": 55, "duration": 6, "velocity": 73}, {"time": 2429, "pitch": 60, "duration": 7, "velocity": 78}, {"time": 2432, "pitch": 62, "duration": 6, "velocity": 105}, {"time": 2435, "pitch": 55, "duration": 4, "velocity": 76}, {"time": 2438, "pitch": 63, "duration": 8, "velocity": 112}, {"time": 2441, "pitch": 55, "duration": 1, "velocity": 78}, {"time": 2444, "pitch": 60, "duration": 3, "velocity": 92}, {"time": 2447, "pitch": 44, "duration": 18, "velocity": 96}, {"time": 2450, "pitch": 51, "duration": 7, "velocity": 57}, {"time": 2453, "pitch": 56, "duration": 2, "velocity": 85}, {"time": 2456, "pitch": 56, "duration": 9, "velocity": 85}, {"time": 2456, "pitch": 63, "duration": 13, "velocity": 93}, {"time": 2465, "pitch": 51, "duration": 2, "velocity": 70}, {"time": 2468, "pitch": 60, "duration": 3, "velocity": 89}, {"time": 2471, "pitch": 46, "duration": 17, "velocity": 99}, {"time": 2474, "pitch": 53, "duration": 7, "velocity": 66}, {"time": 2477, "pitch": 58, "duration": 1, "velocity": 96}, {"time": 2480, "pitch": 58, "duration": 7, "velocity": 96}, {"time": 2480, "pitch": 62, "duration": 9, "velocity": 94}, {"time": 2486, "pitch": 53, "duration": 3, "velocity": 58}, {"time": 2489, "pitch": 58, "duration": 4, "velocity": 102}, {"time": 2492, "pitch": 62, "duration": 3, "velocity": 66}, {"time": 2495, "pitch": 51, "duration": 16, "velocity": 105}, {"time": 2498, "pitch": 58, "duration": 6, "velocity": 35}, {"time": 2501, "pitch": 63, "duration": 1, "velocity": 87}, {"time": 2504, "pitch": 63, "duration": 4, "velocity": 109}, {"time": 2504, "pitch": 67, "duration": 5, "velocity": 97}, {"time": 2507, "pitch": 58, "duration": 4, "velocity": 65}, {"time": 2510, "pitch": 63, "duration": 4, "velocity": 99}, {"time": 2513, "pitch": 58, "duration": 3, "velocity": 59}, {"time": 2516, "pitch": 63, "duration": 4, "velocity": 93}, {"time": 2516, "pitch": 68, "duration": 4, "velocity": 96}, {"time": 2519, "pitch": 51, "duration": 10, "velocity": 102}, {"time": 2522, "pitch": 63, "duration": 4, "velocity": 85}, {"time": 2522, "pitch": 67, "duration": 4, "velocity": 105}, {"time": 2525, "pitch": 58, "duration": 4, "velocity": 85}, {"time": 2528, "pitch": 63, "duration": 4, "velocity": 90}, {"time": 2528, "pitch": 67, "duration": 4, "velocity": 92}, {"time": 2531, "pitch": 51, "duration": 5, "velocity": 72}, {"time": 2534, "pitch": 63, "duration": 2, "velocity": 79}, {"time": 2534, "pitch": 65, "duration": 6, "velocity": 108}, {"time": 2537, "pitch": 58, "duration": 1, "velocity": 105}, {"time": 2540, "pitch": 63, "duration": 3, "velocity": 40}, {"time": 2543, "pitch": 44, "duration": 15, "velocity": 105}, {"time": 2546, "pitch": 51, "duration": 7, "velocity": 74}, {"time": 2549, "pitch": 56, "duration": 1, "velocity": 82}, {"time": 2552, "pitch": 56, "duration": 4, "velocity": 85}, {"time": 2552, "pitch": 63, "duration": 4, "velocity": 96}, {"time": 2555, "pitch": 51, "duration": 4, "velocity": 59}, {"time": 2558, "pitch": 56, "duration": 3, "velocity": 93}, {"time": 2558, "pitch": 60, "duration": 2, "velocity": 92}, {"time": 2558, "pitch": 63, "duration": 3, "velocity": 87}, {"time": 2561, "pitch": 44, "duration": 1, "velocity": 87}, {"time": 2567, "pitch": 46, "duration": 15, "velocity": 93}, {"time": 2567, "pitch": 58, "duration": 3, "velocity": 74}, {"time": 2567, "pitch": 62, "duration": 6, "velocity": 94}, {"time": 2570, "pitch": 53, "duration": 7, "velocity": 62}, {"time": 2573, "pitch": 58, "duration": 2, "velocity": 72}, {"time": 2576, "pitch": 58, "duration": 3, "velocity": 61}, {"time": 2576, "pitch": 65, "duration": 4, "velocity": 102}, {"time": 2579, "pitch": 53, "duration": 4, "velocity": 78}, {"time": 2582, "pitch": 58, "duration": 3, "velocity": 82}, {"time": 2582, "pitch": 62, "duration": 3, "velocity": 102}, {"time": 2585, "pitch": 46, "duration": 2, "velocity": 74}, {"time": 2591, "pitch": 43, "duration": 15, "velocity": 102}, {"time": 2591, "pitch": 55, "duration": 3, "velocity": 66}, {"time": 2591, "pitch": 58, "duration": 6, "velocity": 65}, {"time": 2594, "pitch": 50, "duration": 6, "velocity": 64}, {"time": 2597, "pitch": 55, "duration": 1, "velocity": 66}, {"time": 2600, "pitch": 55, "duration": 3, "velocity": 84}, {"time": 2600, "pitch": 62, "duration": 4, "velocity": 92}, {"time": 2603, "pitch": 50, "duration": 4, "velocity": 82}, {"time": 2606, "pitch": 55, "duration": 2, "velocity": 92}, {"time": 2606, "pitch": 58, "duration": 2, "velocity": 105}, {"time": 2609, "pitch": 43, "duration": 1, "velocity": 87}, {"time": 2615, "pitch": 48, "duration": 19, "velocity": 100}, {"time": 2615, "pitch": 60, "duration": 2, "velocity": 73}, {"time": 2615, "pitch": 63, "duration": 5, "velocity": 72}, {"time": 2618, "pitch": 55, "duration": 6, "velocity": 69}, {"time": 2621, "pitch": 60, "duration": 3, "velocity": 94}, {"time": 2624, "pitch": 62, "duration": 6, "velocity": 102}, {"time": 2627, "pitch": 55, "duration": 3, "velocity": 69}, {"time": 2630, "pitch": 63, "duration": 14, "velocity": 109}, {"time": 2633, "pitch": 55, "duration": 1, "velocity": 71}, {"time": 2636, "pitch": 60, "duration": 3, "velocity": 82}, {"time": 2639, "pitch": 44, "duration": 15, "velocity": 93}, {"time": 2642, "pitch": 51, "duration": 7, "velocity": 72}, {"time": 2645, "pitch": 56, "duration": 6, "velocity": 90}, {"time": 2648, "pitch": 63, "duration": 6, "velocity": 99}, {"time": 2651, "pitch": 51, "duration": 4, "velocity": 72}, {"time": 2654, "pitch": 56, "duration": 4, "velocity": 105}, {"time": 2663, "pitch": 46, "duration": 19, "velocity": 90}, {"time": 2663, "pitch": 58, "duration": 3, "velocity": 70}, {"time": 2663, "pitch": 62, "duration": 7, "velocity": 102}, {"time": 2666, "pitch": 53, "duration": 8, "velocity": 48}, {"time": 2669, "pitch": 58, "duration": 10, "velocity": 77}, {"time": 2672, "pitch": 62, "duration": 9, "velocity": 94}, {"time": 2672, "pitch": 65, "duration": 8, "velocity": 97}, {"time": 2678, "pitch": 53, "duration": 4, "velocity": 51}, {"time": 2681, "pitch": 58, "duration": 2, "velocity": 87}, {"time": 2684, "pitch": 65, "duration": 3, "velocity": 94}, {"time": 2687, "pitch": 51, "duration": 21, "velocity": 102}, {"time": 2690, "pitch": 58, "duration": 6, "velocity": 68}, {"time": 2693, "pitch": 63, "duration": 9, "velocity": 65}, {"time": 2696, "pitch": 67, "duration": 8, "velocity": 82}, {"time": 2702, "pitch": 58, "duration": 8, "velocity": 59}, {"time": 2705, "pitch": 63, "duration": 3, "velocity": 65}, {"time": 2708, "pitch": 65, "duration": 2, "velocity": 58}, {"time": 2711, "pitch": 51, "duration": 19, "velocity": 96}, {"time": 2711, "pitch": 63, "duration": 13, "velocity": 85}, {"time": 2714, "pitch": 58, "duration": 16, "velocity": 43}, {"time": 2735, "pitch": 48, "duration": 16, "velocity": 92}, {"time": 2735, "pitch": 60, "duration": 3, "velocity": 58}, {"time": 2735, "pitch": 63, "duration": 6, "velocity": 79}, {"time": 2738, "pitch": 55, "duration": 13, "velocity": 62}, {"time": 2741, "pitch": 60, "duration": 3, "velocity": 82}, {"time": 2744, "pitch": 62, "duration": 4, "velocity": 102}, {"time": 2750, "pitch": 63, "duration": 2, "velocity": 96}, {"time": 2759, "pitch": 46, "duration": 16, "velocity": 59}, {"time": 2759, "pitch": 58, "duration": 6, "velocity": 50}, {"time": 2759, "pitch": 62, "duration": 9, "velocity": 87}, {"time": 2765, "pitch": 53, "duration": 8, "velocity": 58}, {"time": 2768, "pitch": 58, "duration": 8, "velocity": 63}, {"time": 2771, "pitch": 62, "duration": 4, "velocity": 94}, {"time": 2771, "pitch": 65, "duration": 5, "velocity": 102}, {"time": 2783, "pitch": 44, "duration": 23, "velocity": 77}, {"time": 2783, "pitch": 56, "duration": 3, "velocity": 54}, {"time": 2783, "pitch": 63, "duration": 6, "velocity": 61}, {"time": 2786, "pitch": 51, "duration": 7, "velocity": 22}, {"time": 2789, "pitch": 56, "duration": 10, "velocity": 87}, {"time": 2792, "pitch": 63, "duration": 14, "velocity": 85}, {"time": 2798, "pitch": 51, "duration": 8, "velocity": 41}, {"time": 2801, "pitch": 56, "duration": 5, "velocity": 65}, {"time": 2807, "pitch": 44, "duration": 15, "velocity": 82}, {"time": 2807, "pitch": 56, "duration": 7, "velocity": 70}, {"time": 2807, "pitch": 60, "duration": 9, "velocity": 89}, {"time": 2813, "pitch": 51, "duration": 7, "velocity": 36}, {"time": 2816, "pitch": 56, "duration": 1, "velocity": 41}, {"time": 2819, "pitch": 56, "duration": 2, "velocity": 93}, {"time": 2819, "pitch": 60, "duration": 2, "velocity": 89}, {"time": 2819, "pitch": 63, "duration": 4, "velocity": 82}, {"time": 2822, "pitch": 51, "duration": 1, "velocity": 52}, {"time": 2825, "pitch": 62, "duration": 5, "velocity": 94}, {"time": 2831, "pitch": 48, "duration": 17, "velocity": 97}, {"time": 2831, "pitch": 60, "duration": 6, "velocity": 76}, {"time": 2831, "pitch": 63, "duration": 5, "velocity": 65}, {"time": 2837, "pitch": 55, "duration": 7, "velocity": 62}, {"time": 2840, "pitch": 60, "duration": 1, "velocity": 40}, {"time": 2843, "pitch": 63, "duration": 6, "velocity": 82}, {"time": 2843, "pitch": 67, "duration": 6, "velocity": 97}, {"time": 2846, "pitch": 55, "duration": 3, "velocity": 71}, {"time": 2849, "pitch": 60, "duration": 1, "velocity": 105}, {"time": 2855, "pitch": 46, "duration": 18, "velocity": 85}, {"time": 2855, "pitch": 58, "duration": 7, "velocity": 61}, {"time": 2855, "pitch": 62, "duration": 9, "velocity": 92}, {"time": 2861, "pitch": 53, "duration": 7, "velocity": 43}, {"time": 2864, "pitch": 58, "duration": 4, "velocity": 42}, {"time": 2867, "pitch": 62, "duration": 6, "velocity": 89}, {"time": 2867, "pitch": 65, "duration": 6, "velocity": 102}, {"time": 2870, "pitch": 53, "duration": 3, "velocity": 84}, {"time": 2873, "pitch": 58, "duration": 2, "velocity": 99}, {"time": 2879, "pitch": 44, "duration": 22, "velocity": 99}, {"time": 2879, "pitch": 56, "duration": 12, "velocity": 77}, {"time": 2879, "pitch": 60, "duration": 17, "velocity": 87}, {"time": 2885, "pitch": 51, "duration": 7, "velocity": 35}, {"time": 2891, "pitch": 63, "duration": 6, "velocity": 99}, {"time": 2894, "pitch": 51, "duration": 9, "velocity": 63}, {"time": 2897, "pitch": 56, "duration": 13, "velocity": 90}, {"time": 2903, "pitch": 44, "duration": 15, "velocity": 87}, {"time": 2903, "pitch": 60, "duration": 7, "velocity": 80}, {"time": 2903, "pitch": 63, "duration": 10, "velocity": 45}, {"time": 2909, "pitch": 51, "duration": 7, "velocity": 32}, {"time": 2915, "pitch": 56, "duration": 3, "velocity": 99}, {"time": 2915, "pitch": 63, "duration": 6, "velocity": 99}, {"time": 2918, "pitch": 51, "duration": 3, "velocity": 85}, {"time": 2921, "pitch": 44, "duration": 1, "velocity": 96}, {"time": 2927, "pitch": 46, "duration": 44, "velocity": 48}, {"time": 2927, "pitch": 58, "duration": 13, "velocity": 48}, {"time": 2927, "pitch": 62, "duration": 18, "velocity": 87}, {"time": 2933, "pitch": 53, "duration": 7, "velocity": 44}, {"time": 2939, "pitch": 65, "duration": 8, "velocity": 78}, {"time": 2942, "pitch": 53, "duration": 29, "velocity": 78}, {"time": 2945, "pitch": 58, "duration": 28, "velocity": 65}, {"time": 2948, "pitch": 62, "duration": 25, "velocity": 78}, {"time": 2951, "pitch": 65, "duration": 23, "velocity": 71}, {"time": 2974, "pitch": 67, "duration": 11, "velocity": 76}, {"time": 2974, "pitch": 48, "duration": 33, "velocity": 78}, {"time": 2977, "pitch": 55, "duration": 33, "velocity": 52}, {"time": 2981, "pitch": 60, "duration": 4, "velocity": 60}, {"time": 2984, "pitch": 62, "duration": 5, "velocity": 76}, {"time": 2988, "pitch": 63, "duration": 22, "velocity": 87}, {"time": 2993, "pitch": 67, "duration": 18, "velocity": 80}, {"time": 2999, "pitch": 60, "duration": 13, "velocity": 10}, {"time": 3012, "pitch": 48, "duration": 36, "velocity": 39}, {"time": 3014, "pitch": 60, "duration": 34, "velocity": 57}, {"time": 3014, "pitch": 55, "duration": 34, "velocity": 41}, {"time": 3015, "pitch": 63, "duration": 33, "velocity": 36}, {"time": 3016, "pitch": 72, "duration": 32, "velocity": 50}], "annotations": [{"time": 30, "annotation": {"number": 64, "value": 127}, "group": "control_change"}, {"time": 45, "annotation": {"number": 64, "value": 0}, "group": "control_change"}, {"time": 51, "annotation": {"number": 64, "value": 127}, "group": "control_change"}, {"time": 70, "annotation": {"number": 64, "value": 0}, "group": "control_change"}, {"time": 76, "annotation": {"number": 64, "value": 127}, "group": "control_change"}, {"time": 92, "annotation": {"number": 64, "value": 0}, "group": "control_change"}, {"time": 97, "annotation": {"number": 64, "value": 127}, "group": "control_change"}, {"time": 117, "annotation": {"number": 64, "value": 0}, "group": "control_change"}, {"time": 124, "annotation": {"number": 64, "value": 127}, "group": "control_change"}, {"time": 142, "annotation": {"number": 64, "value": 0}, "group": "control_change"}, {"time": 147, "annotation": {"number": 64, "value": 127}, "group": "control_change"}, {"time": 166, "annotation": {"number": 64, "value": 0}, "group": "control_change"}, {"time": 172, "annotation": {"number": 64, "value": 127}, "group": "control_change"}, {"time": 190, "annotation": {"number": 64, "value": 0}, "group": "control_change"}, {"time": 203, "annotation": {"number": 64, "value": 127}, "group": "control_change"}, {"time": 214, "annotation": {"number": 64, "value": 0}, "group": "control_change"}, {"time": 225, "annotation": {"number": 64, "value": 127}, "group": "control_change"}, {"time": 238, "annotation": {"number": 64, "value": 0}, "group": "control_change"}, {"time": 246, "annotation": {"number": 64, "value": 127}, "group": "control_change"}, {"time": 262, "annotation": {"number": 64, "value": 0}, "group": "control_change"}, {"time": 280, "annotation": {"number": 64, "value": 127}, "group": "control_change"}, {"time": 287, "annotation": {"number": 64, "value": 0}, "group": "control_change"}, {"time": 293, "annotation": {"number": 64, "value": 127}, "group": "control_change"}, {"time": 309, "annotation": {"number": 64, "value": 0}, "group": "control_change"}, {"time": 316, "annotation": {"number": 64, "value": 127}, "group": "control_change"}, {"time": 335, "annotation": {"number": 64, "value": 0}, "group": "control_change"}, {"time": 342, "annotation": {"number": 64, "value": 127}, "group": "control_change"}, {"time": 358, "annotation": {"number": 64, "value": 0}, "group": "control_change"}, {"time": 385, "annotation": {"number": 64, "value": 127}, "group": "control_change"}, {"time": 406, "annotation": {"number": 64, "value": 0}, "group": "control_change"}, {"time": 412, "annotation": {"number": 64, "value": 127}, "group": "control_change"}, {"time": 431, "annotation": {"number": 64, "value": 0}, "group": "control_change"}, {"time": 435, "annotation": {"number": 64, "value": 127}, "group": "control_change"}, {"time": 453, "annotation": {"number": 64, "value": 0}, "group": "control_change"}, {"time": 458, "annotation": {"number": 64, "value": 127}, "group": "control_change"}, {"time": 478, "annotation": {"number": 64, "value": 0}, "group": "control_change"}, {"time": 485, "annotation": {"number": 64, "value": 127}, "group": "control_change"}, {"time": 501, "annotation": {"number": 64, "value": 0}, "group": "control_change"}, {"time": 506, "annotation": {"number": 64, "value": 127}, "group": "control_change"}, {"time": 527, "annotation": {"number": 64, "value": 0}, "group": "control_change"}, {"time": 534, "annotation": {"number": 64, "value": 127}, "group": "control_change"}, {"time": 550, "annotation": {"number": 64, "value": 0}, "group": "control_change"}, {"time": 558, "annotation": {"number": 64, "value": 127}, "group": "control_change"}, {"time": 574, "annotation": {"number": 64, "value": 0}, "group": "control_change"}, {"time": 578, "annotation": {"number": 64, "value": 127}, "group": "control_change"}, {"time": 596, "annotation": {"number": 64, "value": 0}, "group": "control_change"}, {"time": 613, "annotation": {"number": 64, "value": 127}, "group": "control_change"}, {"time": 623, "annotation": {"number": 64, "value": 0}, "group": "control_change"}, {"time": 638, "annotation": {"number": 64, "value": 127}, "group": "control_change"}, {"time": 647, "annotation": {"number": 64, "value": 0}, "group": "control_change"}, {"time": 664, "annotation": {"number": 64, "value": 127}, "group": "control_change"}, {"time": 670, "annotation": {"number": 64, "value": 0}, "group": "control_change"}, {"time": 688, "annotation": {"number": 64, "value": 127}, "group": "control_change"}, {"time": 694, "annotation": {"number": 64, "value": 0}, "group": "control_change"}, {"time": 702, "annotation": {"number": 64, "value": 127}, "group": "control_change"}, {"time": 718, "annotation": {"number": 64, "value": 0}, "group": "control_change"}, {"time": 724, "annotation": {"number": 64, "value": 127}, "group": "control_change"}, {"time": 744, "annotation": {"number": 64, "value": 0}, "group": "control_change"}, {"time": 748, "annotation": {"number": 64, "value": 127}, "group": "control_change"}, {"time": 766, "annotation": {"number": 64, "value": 0}, "group": "control_change"}, {"time": 769, "annotation": {"number": 64, "value": 127}, "group": "control_change"}, {"time": 789, "annotation": {"number": 64, "value": 0}, "group": "control_change"}, {"time": 794, "annotation": {"number": 64, "value": 127}, "group": "control_change"}, {"time": 815, "annotation": {"number": 64, "value": 0}, "group": "control_change"}, {"time": 820, "annotation": {"number": 64, "value": 127}, "group": "control_change"}, {"time": 838, "annotation": {"number": 64, "value": 0}, "group": "control_change"}, {"time": 845, "annotation": {"number": 64, "value": 127}, "group": "control_change"}, {"time": 863, "annotation": {"number": 64, "value": 0}, "group": "control_change"}, {"time": 876, "annotation": {"number": 64, "value": 127}, "group": "control_change"}, {"time": 885, "annotation": {"number": 64, "value": 0}, "group": "control_change"}, {"time": 898, "annotation": {"number": 64, "value": 127}, "group": "control_change"}, {"time": 910, "annotation": {"number": 64, "value": 0}, "group": "control_change"}, {"time": 929, "annotation": {"number": 64, "value": 127}, "group": "control_change"}, {"time": 935, "annotation": {"number": 64, "value": 0}, "group": "control_change"}, {"time": 941, "annotation": {"number": 64, "value": 127}, "group": "control_change"}, {"time": 957, "annotation": {"number": 64, "value": 0}, "group": "control_change"}, {"time": 962, "annotation": {"number": 64, "value": 127}, "group": "control_change"}, {"time": 980, "annotation": {"number": 64, "value": 0}, "group": "control_change"}, {"time": 993, "annotation": {"number": 64, "value": 127}, "group": "control_change"}, {"time": 1006, "annotation": {"number": 64, "value": 0}, "group": "control_change"}, {"time": 1014, "annotation": {"number": 64, "value": 127}, "group": "control_change"}, {"time": 1030, "annotation": {"number": 64, "value": 0}, "group": "control_change"}, {"time": 1048, "annotation": {"number": 64, "value": 127}, "group": "control_change"}, {"time": 1055, "annotation": {"number": 64, "value": 0}, "group": "control_change"}, {"time": 1061, "annotation": {"number": 64, "value": 127}, "group": "control_change"}, {"time": 1077, "annotation": {"number": 64, "value": 0}, "group": "control_change"}, {"time": 1084, "annotation": {"number": 64, "value": 127}, "group": "control_change"}, {"time": 1103, "annotation": {"number": 64, "value": 0}, "group": "control_change"}, {"time": 1110, "annotation": {"number": 64, "value": 127}, "group": "control_change"}, {"time": 1126, "annotation": {"number": 64, "value": 0}, "group": "control_change"}, {"time": 1153, "annotation": {"number": 64, "value": 127}, "group": "control_change"}, {"time": 1174, "annotation": {"number": 64, "value": 0}, "group": "control_change"}, {"time": 1180, "annotation": {"number": 64, "value": 127}, "group": "control_change"}, {"time": 1199, "annotation": {"number": 64, "value": 0}, "group": "control_change"}, {"time": 1203, "annotation": {"number": 64, "value": 127}, "group": "control_change"}, {"time": 1221, "annotation": {"number": 64, "value": 0}, "group": "control_change"}, {"time": 1226, "annotation": {"number": 64, "value": 127}, "group": "control_change"}, {"time": 1246, "annotation": {"number": 64, "value": 0}, "group": "control_change"}, {"time": 1253, "annotation": {"number": 64, "value": 127}, "group": "control_change"}, {"time": 1269, "annotation": {"number": 64, "value": 0}, "group": "control_change"}, {"time": 1275, "annotation": {"number": 64, "value": 127}, "group": "control_change"}, {"time": 1294, "annotation": {"number": 64, "value": 0}, "group": "control_change"}, {"time": 1299, "annotation": {"number": 64, "value": 127}, "group": "control_change"}, {"time": 1317, "annotation": {"number": 64, "value": 0}, "group": "control_change"}, {"time": 1328, "annotation": {"number": 64, "value": 127}, "group": "control_change"}, {"time": 1342, "annotation": {"number": 64, "value": 0}, "group": "control_change"}, {"time": 1346, "annotation": {"number": 64, "value": 127}, "group": "control_change"}, {"time": 1365, "annotation": {"number": 64, "value": 0}, "group": "control_change"}, {"time": 1377, "annotation": {"number": 64, "value": 127}, "group": "control_change"}, {"time": 1390, "annotation": {"number": 64, "value": 0}, "group": "control_change"}, {"time": 1398, "annotation": {"number": 64, "value": 127}, "group": "control_change"}, {"time": 1414, "annotation": {"number": 64, "value": 0}, "group": "control_change"}, {"time": 1432, "annotation": {"number": 64, "value": 127}, "group": "control_change"}, {"time": 1439, "annotation": {"number": 64, "value": 0}, "group": "control_change"}, {"time": 1445, "annotation": {"number": 64, "value": 127}, "group": "control_change"}, {"time": 1461, "annotation": {"number": 64, "value": 0}, "group": "control_change"}, {"time": 1468, "annotation": {"number": 64, "value": 127}, "group": "control_change"}, {"time": 1487, "annotation": {"number": 64, "value": 0}, "group": "control_change"}, {"time": 1494, "annotation": {"number": 64, "value": 127}, "group": "control_change"}, {"time": 1510, "annotation": {"number": 64, "value": 0}, "group": "control_change"}, {"time": 1537, "annotation": {"number": 64, "value": 127}, "group": "control_change"}, {"time": 1558, "annotation": {"number": 64, "value": 0}, "group": "control_change"}, {"time": 1564, "annotation": {"number": 64, "value": 127}, "group": "control_change"}, {"time": 1583, "annotation": {"number": 64, "value": 0}, "group": "control_change"}, {"time": 1587, "annotation": {"number": 64, "value": 127}, "group": "control_change"}, {"time": 1605, "annotation": {"number": 64, "value": 0}, "group": "control_change"}, {"time": 1610, "annotation": {"number": 64, "value": 127}, "group": "control_change"}, {"time": 1630, "annotation": {"number": 64, "value": 0}, "group": "control_change"}, {"time": 1637, "annotation": {"number": 64, "value": 127}, "group": "control_change"}, {"time": 1653, "annotation": {"number": 64, "value": 0}, "group": "control_change"}, {"time": 1658, "annotation": {"number": 64, "value": 127}, "group": "control_change"}, {"time": 1679, "annotation": {"number": 64, "value": 0}, "group": "control_change"}, {"time": 1686, "annotation": {"number": 64, "value": 127}, "group": "control_change"}, {"time": 1702, "annotation": {"number": 64, "value": 0}, "group": "control_change"}, {"time": 1710, "annotation": {"number": 64, "value": 127}, "group": "control_change"}, {"time": 1726, "annotation": {"number": 64, "value": 0}, "group": "control_change"}, {"time": 1730, "annotation": {"number": 64, "value": 127}, "group": "control_change"}, {"time": 1748, "annotation": {"number": 64, "value": 0}, "group": "control_change"}, {"time": 1765, "annotation": {"number": 64, "value": 127}, "group": "control_change"}, {"time": 1775, "annotation": {"number": 64, "value": 0}, "group": "control_change"}, {"time": 1790, "annotation": {"number": 64, "value": 127}, "group": "control_change"}, {"time": 1799, "annotation": {"number": 64, "value": 0}, "group": "control_change"}, {"time": 1816, "annotation": {"number": 64, "value": 127}, "group": "control_change"}, {"time": 1822, "annotation": {"number": 64, "value": 0}, "group": "control_change"}, {"time": 1840, "annotation": {"number": 64, "value": 127}, "group": "control_change"}, {"time": 1846, "annotation": {"number": 64, "value": 0}, "group": "control_change"}, {"time": 1854, "annotation": {"number": 64, "value": 127}, "group": "control_change"}, {"time": 1870, "annotation": {"number": 64, "value": 0}, "group": "control_change"}, {"time": 1876, "annotation": {"number": 64, "value": 127}, "group": "control_change"}, {"time": 1896, "annotation": {"number": 64, "value": 0}, "group": "control_change"}, {"time": 1900, "annotation": {"number": 64, "value": 127}, "group": "control_change"}, {"time": 1918, "annotation": {"number": 64, "value": 0}, "group": "control_change"}, {"time": 1921, "annotation": {"number": 64, "value": 127}, "group": "control_change"}, {"time": 1941, "annotation": {"number": 64, "value": 0}, "group": "control_change"}, {"time": 1946, "annotation": {"number": 64, "value": 127}, "group": "control_change"}, {"time": 1967, "annotation": {"number": 64, "value": 0}, "group": "control_change"}, {"time": 1972, "annotation": {"number": 64, "value": 127}, "group": "control_change"}, {"time": 1990, "annotation": {"number": 64, "value": 0}, "group": "control_change"}, {"time": 1997, "annotation": {"number": 64, "value": 127}, "group": "control_change"}, {"time": 2015, "annotation": {"number": 64, "value": 0}, "group": "control_change"}, {"time": 2028, "annotation": {"number": 64, "value": 127}, "group": "control_change"}, {"time": 2037, "annotation": {"number": 64, "value": 0}, "group": "control_change"}, {"time": 2050, "annotation": {"number": 64, "value": 127}, "group": "control_change"}, {"time": 2062, "annotation": {"number": 64, "value": 0}, "group": "control_change"}, {"time": 2081, "annotation": {"number": 64, "value": 127}, "group": "control_change"}, {"time": 2087, "annotation": {"number": 64, "value": 0}, "group": "control_change"}, {"time": 2093, "annotation": {"number": 64, "value": 127}, "group": "control_change"}, {"time": 2109, "annotation": {"number": 64, "value": 0}, "group": "control_change"}, {"time": 2114, "annotation": {"number": 64, "value": 127}, "group": "control_change"}, {"time": 2132, "annotation": {"number": 64, "value": 0}, "group": "control_change"}, {"time": 2365, "annotation": {"number": 64, "value": 127}, "group": "control_change"}, {"time": 2375, "annotation": {"number": 64, "value": 0}, "group": "control_change"}, {"time": 2390, "annotation": {"number": 64, "value": 127}, "group": "control_change"}, {"time": 2399, "annotation": {"number": 64, "value": 0}, "group": "control_change"}, {"time": 2416, "annotation": {"number": 64, "value": 127}, "group": "control_change"}, {"time": 2422, "annotation": {"number": 64, "value": 0}, "group": "control_change"}, {"time": 2440, "annotation": {"number": 64, "value": 127}, "group": "control_change"}, {"time": 2446, "annotation": {"number": 64, "value": 0}, "group": "control_change"}, {"time": 2454, "annotation": {"number": 64, "value": 127}, "group": "control_change"}, {"time": 2470, "annotation": {"number": 64, "value": 0}, "group": "control_change"}, {"time": 2476, "annotation": {"number": 64, "value": 127}, "group": "control_change"}, {"time": 2496, "annotation": {"number": 64, "value": 0}, "group": "control_change"}, {"time": 2500, "annotation": {"number": 64, "value": 127}, "group": "control_change"}, {"time": 2518, "annotation": {"number": 64, "value": 0}, "group": "control_change"}, {"time": 2521, "annotation": {"number": 64, "value": 127}, "group": "control_change"}, {"time": 2541, "annotation": {"number": 64, "value": 0}, "group": "control_change"}, {"time": 2546, "annotation": {"number": 64, "value": 127}, "group": "control_change"}, {"time": 2567, "annotation": {"number": 64, "value": 0}, "group": "control_change"}, {"time": 2572, "annotation": {"number": 64, "value": 127}, "group": "control_change"}, {"time": 2590, "annotation": {"number": 64, "value": 0}, "group": "control_change"}, {"time": 2597, "annotation": {"number": 64, "value": 127}, "group": "control_change"}, {"time": 2615, "annotation": {"number": 64, "value": 0}, "group": "control_change"}, {"time": 2628, "annotation": {"number": 64, "value": 127}, "group": "control_change"}, {"time": 2637, "annotation": {"number": 64, "value": 0}, "group": "control_change"}, {"time": 2650, "annotation": {"number": 64, "value": 127}, "group": "control_change"}, {"time": 2662, "annotation": {"number": 64, "value": 0}, "group": "control_change"}, {"time": 2681, "annotation": {"number": 64, "value": 127}, "group": "control_change"}, {"time": 2687, "annotation": {"number": 64, "value": 0}, "group": "control_change"}, {"time": 2693, "annotation": {"number": 64, "value": 127}, "group": "control_change"}, {"time": 2709, "annotation": {"number": 64, "value": 0}, "group": "control_change"}, {"time": 2714, "annotation": {"number": 64, "value": 127}, "group": "control_change"}, {"time": 2732, "annotation": {"number": 64, "value": 0}, "group": "control_change"}, {"time": 2745, "annotation": {"number": 64, "value": 127}, "group": "control_change"}, {"time": 2758, "annotation": {"number": 64, "value": 0}, "group": "control_change"}, {"time": 2766, "annotation": {"number": 64, "value": 127}, "group": "control_change"}, {"time": 2782, "annotation": {"number": 64, "value": 0}, "group": "control_change"}, {"time": 2800, "annotation": {"number": 64, "value": 127}, "group": "control_change"}, {"time": 2807, "annotation": {"number": 64, "value": 0}, "group": "control_change"}, {"time": 2813, "annotation": {"number": 64, "value": 127}, "group": "control_change"}, {"time": 2829, "annotation": {"number": 64, "value": 0}, "group": "control_change"}, {"time": 2836, "annotation": {"number": 64, "value": 127}, "group": "control_change"}, {"time": 2855, "annotation": {"number": 64, "value": 0}, "group": "control_change"}, {"time": 2862, "annotation": {"number": 64, "value": 127}, "group": "control_change"}, {"time": 2878, "annotation": {"number": 64, "value": 0}, "group": "control_change"}, {"time": 2905, "annotation": {"number": 64, "value": 127}, "group": "control_change"}, {"time": 2926, "annotation": {"number": 64, "value": 0}, "group": "control_change"}, {"time": 2969, "annotation": {"number": 64, "value": 127}, "group": "control_change"}]}]}