{"metadata": {"schema_version": "0.2", "title": "None", "source_filename": "016.mid", "source_format": "midi"}, "resolution": 12, "tempos": [{"time": 0, "qpm": 70.00007000007}, {"time": 3502, "qpm": 68.0000725334107}, {"time": 3508, "qpm": 67.00002903334591}, {"time": 3525, "qpm": 65.00013541694878}], "time_signatures": [{"time": 0, "numerator": 2, "denominator": 4}], "tracks": [{"program": 4, "is_drum": false, "name": "MELODY", "notes": [{"time": 423, "pitch": 67, "duration": 4, "velocity": 105}, {"time": 429, "pitch": 69, "duration": 4, "velocity": 117}, {"time": 435, "pitch": 70, "duration": 4, "velocity": 105}, {"time": 441, "pitch": 70, "duration": 4, "velocity": 102}, {"time": 447, "pitch": 70, "duration": 4, "velocity": 112}, {"time": 453, "pitch": 74, "duration": 4, "velocity": 102}, {"time": 459, "pitch": 69, "duration": 7, "velocity": 108}, {"time": 471, "pitch": 67, "duration": 4, "velocity": 105}, {"time": 477, "pitch": 65, "duration": 4, "velocity": 111}, {"time": 483, "pitch": 67, "duration": 4, "velocity": 105}, {"time": 489, "pitch": 67, "duration": 4, "velocity": 111}, {"time": 495, "pitch": 67, "duration": 4, "velocity": 114}, {"time": 501, "pitch": 70, "duration": 4, "velocity": 109}, {"time": 507, "pitch": 65, "duration": 9, "velocity": 108}, {"time": 519, "pitch": 67, "duration": 4, "velocity": 108}, {"time": 525, "pitch": 69, "duration": 4, "velocity": 111}, {"time": 531, "pitch": 70, "duration": 4, "velocity": 102}, {"time": 537, "pitch": 70, "duration": 4, "velocity": 109}, {"time": 543, "pitch": 70, "duration": 4, "velocity": 109}, {"time": 549, "pitch": 74, "duration": 4, "velocity": 97}, {"time": 555, "pitch": 72, "duration": 9, "velocity": 102}, {"time": 567, "pitch": 65, "duration": 9, "velocity": 114}, {"time": 579, "pitch": 67, "duration": 26, "velocity": 108}, {"time": 615, "pitch": 67, "duration": 4, "velocity": 105}, {"time": 621, "pitch": 69, "duration": 4, "velocity": 117}, {"time": 627, "pitch": 70, "duration": 4, "velocity": 105}, {"time": 633, "pitch": 70, "duration": 4, "velocity": 102}, {"time": 639, "pitch": 70, "duration": 4, "velocity": 112}, {"time": 645, "pitch": 74, "duration": 4, "velocity": 102}, {"time": 651, "pitch": 69, "duration": 7, "velocity": 108}, {"time": 663, "pitch": 67, "duration": 4, "velocity": 105}, {"time": 669, "pitch": 65, "duration": 4, "velocity": 111}, {"time": 675, "pitch": 67, "duration": 4, "velocity": 105}, {"time": 681, "pitch": 67, "duration": 4, "velocity": 111}, {"time": 687, "pitch": 67, "duration": 4, "velocity": 114}, {"time": 693, "pitch": 70, "duration": 4, "velocity": 109}, {"time": 699, "pitch": 65, "duration": 9, "velocity": 108}, {"time": 711, "pitch": 67, "duration": 4, "velocity": 108}, {"time": 717, "pitch": 69, "duration": 4, "velocity": 111}, {"time": 723, "pitch": 70, "duration": 4, "velocity": 102}, {"time": 729, "pitch": 70, "duration": 4, "velocity": 109}, {"time": 735, "pitch": 70, "duration": 4, "velocity": 109}, {"time": 741, "pitch": 74, "duration": 4, "velocity": 97}, {"time": 747, "pitch": 72, "duration": 9, "velocity": 102}, {"time": 756, "pitch": 69, "duration": 6, "velocity": 111}, {"time": 765, "pitch": 69, "duration": 6, "velocity": 111}, {"time": 771, "pitch": 67, "duration": 25, "velocity": 105}, {"time": 807, "pitch": 62, "duration": 3, "velocity": 111}, {"time": 813, "pitch": 65, "duration": 3, "velocity": 114}, {"time": 819, "pitch": 67, "duration": 3, "velocity": 100}, {"time": 825, "pitch": 67, "duration": 4, "velocity": 105}, {"time": 831, "pitch": 67, "duration": 4, "velocity": 100}, {"time": 837, "pitch": 70, "duration": 4, "velocity": 105}, {"time": 843, "pitch": 69, "duration": 9, "velocity": 114}, {"time": 855, "pitch": 69, "duration": 4, "velocity": 114}, {"time": 861, "pitch": 67, "duration": 3, "velocity": 111}, {"time": 867, "pitch": 65, "duration": 10, "velocity": 114}, {"time": 879, "pitch": 62, "duration": 4, "velocity": 105}, {"time": 885, "pitch": 60, "duration": 4, "velocity": 102}, {"time": 891, "pitch": 58, "duration": 8, "velocity": 105}, {"time": 903, "pitch": 62, "duration": 4, "velocity": 111}, {"time": 909, "pitch": 65, "duration": 3, "velocity": 114}, {"time": 915, "pitch": 67, "duration": 4, "velocity": 100}, {"time": 921, "pitch": 67, "duration": 4, "velocity": 102}, {"time": 927, "pitch": 67, "duration": 4, "velocity": 102}, {"time": 933, "pitch": 70, "duration": 4, "velocity": 102}, {"time": 939, "pitch": 69, "duration": 8, "velocity": 111}, {"time": 948, "pitch": 67, "duration": 7, "velocity": 102}, {"time": 957, "pitch": 65, "duration": 5, "velocity": 102}, {"time": 963, "pitch": 62, "duration": 31, "velocity": 100}, {"time": 999, "pitch": 62, "duration": 4, "velocity": 111}, {"time": 1005, "pitch": 65, "duration": 3, "velocity": 102}, {"time": 1011, "pitch": 67, "duration": 4, "velocity": 92}, {"time": 1017, "pitch": 67, "duration": 3, "velocity": 89}, {"time": 1023, "pitch": 67, "duration": 4, "velocity": 94}, {"time": 1029, "pitch": 70, "duration": 4, "velocity": 105}, {"time": 1035, "pitch": 69, "duration": 10, "velocity": 102}, {"time": 1047, "pitch": 69, "duration": 4, "velocity": 108}, {"time": 1053, "pitch": 65, "duration": 4, "velocity": 111}, {"time": 1059, "pitch": 74, "duration": 4, "velocity": 100}, {"time": 1065, "pitch": 74, "duration": 4, "velocity": 105}, {"time": 1071, "pitch": 72, "duration": 4, "velocity": 92}, {"time": 1077, "pitch": 74, "duration": 4, "velocity": 100}, {"time": 1083, "pitch": 70, "duration": 7, "velocity": 96}, {"time": 1095, "pitch": 67, "duration": 3, "velocity": 108}, {"time": 1101, "pitch": 69, "duration": 4, "velocity": 114}, {"time": 1107, "pitch": 70, "duration": 3, "velocity": 99}, {"time": 1113, "pitch": 70, "duration": 4, "velocity": 102}, {"time": 1119, "pitch": 70, "duration": 4, "velocity": 105}, {"time": 1125, "pitch": 74, "duration": 3, "velocity": 94}, {"time": 1131, "pitch": 72, "duration": 7, "velocity": 97}, {"time": 1143, "pitch": 69, "duration": 10, "velocity": 108}, {"time": 1155, "pitch": 67, "duration": 30, "velocity": 111}, {"time": 1575, "pitch": 67, "duration": 4, "velocity": 105}, {"time": 1581, "pitch": 69, "duration": 4, "velocity": 117}, {"time": 1587, "pitch": 70, "duration": 4, "velocity": 105}, {"time": 1593, "pitch": 70, "duration": 4, "velocity": 102}, {"time": 1599, "pitch": 70, "duration": 4, "velocity": 112}, {"time": 1605, "pitch": 74, "duration": 4, "velocity": 102}, {"time": 1611, "pitch": 69, "duration": 7, "velocity": 108}, {"time": 1623, "pitch": 67, "duration": 4, "velocity": 105}, {"time": 1629, "pitch": 65, "duration": 4, "velocity": 111}, {"time": 1635, "pitch": 67, "duration": 4, "velocity": 105}, {"time": 1641, "pitch": 67, "duration": 4, "velocity": 111}, {"time": 1647, "pitch": 67, "duration": 4, "velocity": 114}, {"time": 1653, "pitch": 70, "duration": 4, "velocity": 109}, {"time": 1659, "pitch": 65, "duration": 9, "velocity": 108}, {"time": 1671, "pitch": 67, "duration": 4, "velocity": 108}, {"time": 1677, "pitch": 69, "duration": 4, "velocity": 111}, {"time": 1683, "pitch": 70, "duration": 4, "velocity": 102}, {"time": 1689, "pitch": 70, "duration": 4, "velocity": 109}, {"time": 1695, "pitch": 70, "duration": 4, "velocity": 109}, {"time": 1701, "pitch": 74, "duration": 4, "velocity": 97}, {"time": 1707, "pitch": 72, "duration": 9, "velocity": 102}, {"time": 1719, "pitch": 69, "duration": 3, "velocity": 114}, {"time": 1725, "pitch": 70, "duration": 2, "velocity": 112}, {"time": 1728, "pitch": 69, "duration": 2, "velocity": 102}, {"time": 1731, "pitch": 67, "duration": 24, "velocity": 102}, {"time": 1767, "pitch": 67, "duration": 4, "velocity": 105}, {"time": 1773, "pitch": 69, "duration": 4, "velocity": 117}, {"time": 1779, "pitch": 70, "duration": 4, "velocity": 105}, {"time": 1785, "pitch": 70, "duration": 4, "velocity": 102}, {"time": 1791, "pitch": 70, "duration": 4, "velocity": 112}, {"time": 1797, "pitch": 74, "duration": 4, "velocity": 102}, {"time": 1803, "pitch": 69, "duration": 7, "velocity": 108}, {"time": 1815, "pitch": 67, "duration": 4, "velocity": 105}, {"time": 1821, "pitch": 65, "duration": 4, "velocity": 111}, {"time": 1827, "pitch": 67, "duration": 4, "velocity": 105}, {"time": 1833, "pitch": 67, "duration": 4, "velocity": 111}, {"time": 1839, "pitch": 67, "duration": 4, "velocity": 114}, {"time": 1845, "pitch": 70, "duration": 4, "velocity": 109}, {"time": 1851, "pitch": 65, "duration": 9, "velocity": 108}, {"time": 1863, "pitch": 67, "duration": 4, "velocity": 108}, {"time": 1869, "pitch": 69, "duration": 4, "velocity": 111}, {"time": 1875, "pitch": 70, "duration": 4, "velocity": 102}, {"time": 1881, "pitch": 70, "duration": 4, "velocity": 109}, {"time": 1887, "pitch": 70, "duration": 4, "velocity": 109}, {"time": 1893, "pitch": 74, "duration": 4, "velocity": 97}, {"time": 1899, "pitch": 72, "duration": 9, "velocity": 102}, {"time": 1908, "pitch": 69, "duration": 6, "velocity": 111}, {"time": 1917, "pitch": 69, "duration": 6, "velocity": 111}, {"time": 1923, "pitch": 67, "duration": 25, "velocity": 105}, {"time": 1959, "pitch": 62, "duration": 3, "velocity": 111}, {"time": 1965, "pitch": 65, "duration": 3, "velocity": 114}, {"time": 1971, "pitch": 67, "duration": 3, "velocity": 100}, {"time": 1977, "pitch": 67, "duration": 4, "velocity": 105}, {"time": 1983, "pitch": 67, "duration": 4, "velocity": 100}, {"time": 1989, "pitch": 70, "duration": 4, "velocity": 105}, {"time": 1995, "pitch": 69, "duration": 9, "velocity": 114}, {"time": 2007, "pitch": 69, "duration": 4, "velocity": 114}, {"time": 2013, "pitch": 67, "duration": 3, "velocity": 111}, {"time": 2019, "pitch": 65, "duration": 10, "velocity": 114}, {"time": 2031, "pitch": 62, "duration": 4, "velocity": 105}, {"time": 2037, "pitch": 60, "duration": 4, "velocity": 102}, {"time": 2043, "pitch": 58, "duration": 8, "velocity": 105}, {"time": 2055, "pitch": 62, "duration": 4, "velocity": 111}, {"time": 2061, "pitch": 65, "duration": 3, "velocity": 114}, {"time": 2067, "pitch": 67, "duration": 4, "velocity": 100}, {"time": 2073, "pitch": 67, "duration": 4, "velocity": 102}, {"time": 2079, "pitch": 67, "duration": 4, "velocity": 102}, {"time": 2085, "pitch": 70, "duration": 4, "velocity": 102}, {"time": 2091, "pitch": 69, "duration": 8, "velocity": 111}, {"time": 2100, "pitch": 67, "duration": 7, "velocity": 102}, {"time": 2109, "pitch": 65, "duration": 5, "velocity": 102}, {"time": 2115, "pitch": 62, "duration": 31, "velocity": 100}, {"time": 2151, "pitch": 62, "duration": 4, "velocity": 111}, {"time": 2157, "pitch": 65, "duration": 3, "velocity": 102}, {"time": 2163, "pitch": 67, "duration": 4, "velocity": 92}, {"time": 2169, "pitch": 67, "duration": 3, "velocity": 89}, {"time": 2175, "pitch": 67, "duration": 4, "velocity": 94}, {"time": 2181, "pitch": 70, "duration": 4, "velocity": 105}, {"time": 2187, "pitch": 69, "duration": 10, "velocity": 102}, {"time": 2199, "pitch": 69, "duration": 4, "velocity": 108}, {"time": 2205, "pitch": 65, "duration": 4, "velocity": 111}, {"time": 2211, "pitch": 74, "duration": 4, "velocity": 100}, {"time": 2217, "pitch": 74, "duration": 4, "velocity": 105}, {"time": 2223, "pitch": 72, "duration": 4, "velocity": 92}, {"time": 2229, "pitch": 74, "duration": 4, "velocity": 100}, {"time": 2235, "pitch": 70, "duration": 7, "velocity": 96}, {"time": 2247, "pitch": 67, "duration": 3, "velocity": 108}, {"time": 2253, "pitch": 69, "duration": 4, "velocity": 114}, {"time": 2259, "pitch": 70, "duration": 3, "velocity": 99}, {"time": 2265, "pitch": 70, "duration": 4, "velocity": 102}, {"time": 2271, "pitch": 70, "duration": 4, "velocity": 105}, {"time": 2277, "pitch": 74, "duration": 3, "velocity": 94}, {"time": 2283, "pitch": 72, "duration": 7, "velocity": 97}, {"time": 2295, "pitch": 69, "duration": 10, "velocity": 108}, {"time": 2307, "pitch": 67, "duration": 30, "velocity": 111}, {"time": 2727, "pitch": 62, "duration": 3, "velocity": 111}, {"time": 2733, "pitch": 65, "duration": 3, "velocity": 114}, {"time": 2739, "pitch": 67, "duration": 3, "velocity": 100}, {"time": 2745, "pitch": 67, "duration": 4, "velocity": 105}, {"time": 2751, "pitch": 67, "duration": 4, "velocity": 100}, {"time": 2757, "pitch": 70, "duration": 4, "velocity": 105}, {"time": 2763, "pitch": 69, "duration": 9, "velocity": 114}, {"time": 2775, "pitch": 69, "duration": 4, "velocity": 114}, {"time": 2781, "pitch": 67, "duration": 3, "velocity": 111}, {"time": 2787, "pitch": 65, "duration": 10, "velocity": 114}, {"time": 2799, "pitch": 62, "duration": 4, "velocity": 105}, {"time": 2805, "pitch": 60, "duration": 4, "velocity": 102}, {"time": 2811, "pitch": 58, "duration": 8, "velocity": 105}, {"time": 2823, "pitch": 62, "duration": 4, "velocity": 111}, {"time": 2829, "pitch": 65, "duration": 3, "velocity": 114}, {"time": 2835, "pitch": 67, "duration": 4, "velocity": 100}, {"time": 2841, "pitch": 67, "duration": 4, "velocity": 102}, {"time": 2847, "pitch": 67, "duration": 4, "velocity": 102}, {"time": 2853, "pitch": 70, "duration": 4, "velocity": 102}, {"time": 2859, "pitch": 69, "duration": 8, "velocity": 111}, {"time": 2868, "pitch": 67, "duration": 7, "velocity": 102}, {"time": 2877, "pitch": 65, "duration": 5, "velocity": 102}, {"time": 2883, "pitch": 62, "duration": 31, "velocity": 100}, {"time": 2919, "pitch": 62, "duration": 4, "velocity": 111}, {"time": 2925, "pitch": 65, "duration": 3, "velocity": 102}, {"time": 2931, "pitch": 67, "duration": 4, "velocity": 92}, {"time": 2937, "pitch": 67, "duration": 3, "velocity": 89}, {"time": 2943, "pitch": 67, "duration": 4, "velocity": 94}, {"time": 2949, "pitch": 70, "duration": 4, "velocity": 105}, {"time": 2955, "pitch": 69, "duration": 10, "velocity": 102}, {"time": 2967, "pitch": 69, "duration": 4, "velocity": 108}, {"time": 2973, "pitch": 65, "duration": 4, "velocity": 111}, {"time": 2979, "pitch": 74, "duration": 4, "velocity": 100}, {"time": 2985, "pitch": 74, "duration": 4, "velocity": 105}, {"time": 2991, "pitch": 72, "duration": 4, "velocity": 92}, {"time": 2997, "pitch": 74, "duration": 4, "velocity": 100}, {"time": 3003, "pitch": 70, "duration": 7, "velocity": 96}, {"time": 3015, "pitch": 67, "duration": 3, "velocity": 108}, {"time": 3021, "pitch": 69, "duration": 4, "velocity": 114}, {"time": 3027, "pitch": 70, "duration": 3, "velocity": 99}, {"time": 3033, "pitch": 70, "duration": 4, "velocity": 102}, {"time": 3039, "pitch": 70, "duration": 4, "velocity": 105}, {"time": 3045, "pitch": 74, "duration": 3, "velocity": 94}, {"time": 3051, "pitch": 72, "duration": 7, "velocity": 97}, {"time": 3063, "pitch": 69, "duration": 10, "velocity": 108}, {"time": 3075, "pitch": 67, "duration": 30, "velocity": 111}, {"time": 3111, "pitch": 62, "duration": 3, "velocity": 111}, {"time": 3117, "pitch": 65, "duration": 3, "velocity": 114}, {"time": 3123, "pitch": 67, "duration": 3, "velocity": 100}, {"time": 3129, "pitch": 67, "duration": 4, "velocity": 105}, {"time": 3135, "pitch": 67, "duration": 4, "velocity": 100}, {"time": 3141, "pitch": 70, "duration": 4, "velocity": 105}, {"time": 3147, "pitch": 69, "duration": 9, "velocity": 114}, {"time": 3159, "pitch": 69, "duration": 4, "velocity": 114}, {"time": 3165, "pitch": 67, "duration": 3, "velocity": 111}, {"time": 3171, "pitch": 65, "duration": 10, "velocity": 114}, {"time": 3183, "pitch": 62, "duration": 4, "velocity": 105}, {"time": 3189, "pitch": 60, "duration": 4, "velocity": 102}, {"time": 3195, "pitch": 58, "duration": 8, "velocity": 105}, {"time": 3207, "pitch": 62, "duration": 4, "velocity": 111}, {"time": 3213, "pitch": 65, "duration": 3, "velocity": 114}, {"time": 3219, "pitch": 67, "duration": 4, "velocity": 100}, {"time": 3225, "pitch": 67, "duration": 4, "velocity": 102}, {"time": 3231, "pitch": 67, "duration": 4, "velocity": 102}, {"time": 3237, "pitch": 70, "duration": 4, "velocity": 102}, {"time": 3243, "pitch": 69, "duration": 8, "velocity": 111}, {"time": 3252, "pitch": 67, "duration": 7, "velocity": 102}, {"time": 3261, "pitch": 65, "duration": 5, "velocity": 102}, {"time": 3267, "pitch": 62, "duration": 31, "velocity": 100}, {"time": 3303, "pitch": 62, "duration": 4, "velocity": 111}, {"time": 3309, "pitch": 65, "duration": 3, "velocity": 102}, {"time": 3315, "pitch": 67, "duration": 4, "velocity": 92}, {"time": 3321, "pitch": 67, "duration": 3, "velocity": 89}, {"time": 3327, "pitch": 67, "duration": 4, "velocity": 94}, {"time": 3333, "pitch": 70, "duration": 4, "velocity": 105}, {"time": 3339, "pitch": 69, "duration": 10, "velocity": 102}, {"time": 3351, "pitch": 69, "duration": 4, "velocity": 108}, {"time": 3357, "pitch": 65, "duration": 4, "velocity": 111}, {"time": 3363, "pitch": 74, "duration": 4, "velocity": 100}, {"time": 3369, "pitch": 74, "duration": 4, "velocity": 105}, {"time": 3375, "pitch": 72, "duration": 4, "velocity": 92}, {"time": 3381, "pitch": 74, "duration": 4, "velocity": 100}, {"time": 3387, "pitch": 70, "duration": 7, "velocity": 96}, {"time": 3399, "pitch": 67, "duration": 3, "velocity": 108}, {"time": 3405, "pitch": 69, "duration": 4, "velocity": 114}, {"time": 3411, "pitch": 70, "duration": 3, "velocity": 99}, {"time": 3417, "pitch": 70, "duration": 4, "velocity": 102}, {"time": 3423, "pitch": 70, "duration": 4, "velocity": 105}, {"time": 3429, "pitch": 74, "duration": 3, "velocity": 94}, {"time": 3435, "pitch": 72, "duration": 7, "velocity": 97}, {"time": 3447, "pitch": 69, "duration": 10, "velocity": 108}, {"time": 3459, "pitch": 67, "duration": 30, "velocity": 111}, {"time": 3501, "pitch": 67, "duration": 2, "velocity": 94}, {"time": 3504, "pitch": 69, "duration": 2, "velocity": 108}, {"time": 3507, "pitch": 70, "duration": 4, "velocity": 102}, {"time": 3513, "pitch": 70, "duration": 4, "velocity": 109}, {"time": 3519, "pitch": 70, "duration": 4, "velocity": 109}, {"time": 3525, "pitch": 72, "duration": 4, "velocity": 105}, {"time": 3531, "pitch": 69, "duration": 18, "velocity": 108}, {"time": 3549, "pitch": 67, "duration": 7, "velocity": 102}, {"time": 3556, "pitch": 65, "duration": 19, "velocity": 84}, {"time": 3579, "pitch": 67, "duration": 59, "velocity": 100}]}, {"program": 0, "is_drum": false, "name": "PIANO", "notes": [{"time": 51, "pitch": 51, "duration": 12, "velocity": 54}, {"time": 51, "pitch": 63, "duration": 7, "velocity": 68}, {"time": 51, "pitch": 67, "duration": 13, "velocity": 87}, {"time": 57, "pitch": 58, "duration": 6, "velocity": 63}, {"time": 63, "pitch": 63, "duration": 6, "velocity": 65}, {"time": 69, "pitch": 67, "duration": 3, "velocity": 78}, {"time": 75, "pitch": 53, "duration": 14, "velocity": 82}, {"time": 75, "pitch": 65, "duration": 10, "velocity": 73}, {"time": 75, "pitch": 69, "duration": 9, "velocity": 76}, {"time": 81, "pitch": 60, "duration": 8, "velocity": 58}, {"time": 87, "pitch": 65, "duration": 3, "velocity": 78}, {"time": 87, "pitch": 69, "duration": 4, "velocity": 84}, {"time": 99, "pitch": 50, "duration": 14, "velocity": 94}, {"time": 99, "pitch": 62, "duration": 10, "velocity": 69}, {"time": 99, "pitch": 65, "duration": 9, "velocity": 82}, {"time": 105, "pitch": 57, "duration": 7, "velocity": 73}, {"time": 111, "pitch": 62, "duration": 7, "velocity": 89}, {"time": 111, "pitch": 65, "duration": 4, "velocity": 92}, {"time": 117, "pitch": 50, "duration": 1, "velocity": 92}, {"time": 123, "pitch": 43, "duration": 16, "velocity": 87}, {"time": 123, "pitch": 62, "duration": 9, "velocity": 78}, {"time": 123, "pitch": 70, "duration": 19, "velocity": 65}, {"time": 129, "pitch": 50, "duration": 10, "velocity": 40}, {"time": 135, "pitch": 62, "duration": 2, "velocity": 76}, {"time": 135, "pitch": 67, "duration": 8, "velocity": 92}, {"time": 141, "pitch": 62, "duration": 3, "velocity": 100}, {"time": 147, "pitch": 51, "duration": 13, "velocity": 93}, {"time": 147, "pitch": 67, "duration": 9, "velocity": 94}, {"time": 147, "pitch": 70, "duration": 9, "velocity": 52}, {"time": 153, "pitch": 58, "duration": 11, "velocity": 46}, {"time": 159, "pitch": 63, "duration": 3, "velocity": 87}, {"time": 159, "pitch": 67, "duration": 3, "velocity": 92}, {"time": 159, "pitch": 70, "duration": 4, "velocity": 72}, {"time": 165, "pitch": 51, "duration": 1, "velocity": 87}, {"time": 171, "pitch": 41, "duration": 3, "velocity": 89}, {"time": 171, "pitch": 65, "duration": 9, "velocity": 78}, {"time": 171, "pitch": 69, "duration": 11, "velocity": 87}, {"time": 177, "pitch": 53, "duration": 13, "velocity": 92}, {"time": 183, "pitch": 57, "duration": 6, "velocity": 76}, {"time": 183, "pitch": 65, "duration": 6, "velocity": 82}, {"time": 183, "pitch": 69, "duration": 6, "velocity": 92}, {"time": 195, "pitch": 46, "duration": 19, "velocity": 90}, {"time": 195, "pitch": 70, "duration": 12, "velocity": 54}, {"time": 201, "pitch": 53, "duration": 7, "velocity": 82}, {"time": 207, "pitch": 58, "duration": 7, "velocity": 87}, {"time": 213, "pitch": 53, "duration": 5, "velocity": 58}, {"time": 219, "pitch": 50, "duration": 16, "velocity": 78}, {"time": 219, "pitch": 57, "duration": 3, "velocity": 82}, {"time": 219, "pitch": 60, "duration": 10, "velocity": 89}, {"time": 219, "pitch": 66, "duration": 10, "velocity": 74}, {"time": 225, "pitch": 57, "duration": 4, "velocity": 64}, {"time": 231, "pitch": 57, "duration": 3, "velocity": 97}, {"time": 231, "pitch": 60, "duration": 6, "velocity": 102}, {"time": 231, "pitch": 66, "duration": 9, "velocity": 93}, {"time": 237, "pitch": 57, "duration": 3, "velocity": 97}, {"time": 243, "pitch": 51, "duration": 12, "velocity": 90}, {"time": 243, "pitch": 63, "duration": 4, "velocity": 72}, {"time": 243, "pitch": 67, "duration": 4, "velocity": 84}, {"time": 249, "pitch": 58, "duration": 8, "velocity": 72}, {"time": 255, "pitch": 63, "duration": 4, "velocity": 85}, {"time": 255, "pitch": 67, "duration": 3, "velocity": 89}, {"time": 255, "pitch": 70, "duration": 4, "velocity": 65}, {"time": 261, "pitch": 51, "duration": 2, "velocity": 65}, {"time": 267, "pitch": 53, "duration": 15, "velocity": 94}, {"time": 267, "pitch": 60, "duration": 9, "velocity": 84}, {"time": 267, "pitch": 65, "duration": 9, "velocity": 94}, {"time": 273, "pitch": 57, "duration": 10, "velocity": 66}, {"time": 279, "pitch": 60, "duration": 3, "velocity": 97}, {"time": 279, "pitch": 65, "duration": 10, "velocity": 102}, {"time": 279, "pitch": 69, "duration": 10, "velocity": 102}, {"time": 285, "pitch": 60, "duration": 3, "velocity": 76}, {"time": 291, "pitch": 50, "duration": 13, "velocity": 100}, {"time": 291, "pitch": 62, "duration": 8, "velocity": 84}, {"time": 291, "pitch": 65, "duration": 7, "velocity": 92}, {"time": 297, "pitch": 57, "duration": 10, "velocity": 80}, {"time": 303, "pitch": 62, "duration": 5, "velocity": 84}, {"time": 303, "pitch": 65, "duration": 4, "velocity": 100}, {"time": 303, "pitch": 69, "duration": 5, "velocity": 97}, {"time": 309, "pitch": 50, "duration": 2, "velocity": 84}, {"time": 315, "pitch": 43, "duration": 16, "velocity": 92}, {"time": 315, "pitch": 62, "duration": 6, "velocity": 84}, {"time": 315, "pitch": 70, "duration": 12, "velocity": 68}, {"time": 321, "pitch": 50, "duration": 10, "velocity": 50}, {"time": 327, "pitch": 62, "duration": 3, "velocity": 97}, {"time": 327, "pitch": 67, "duration": 7, "velocity": 102}, {"time": 327, "pitch": 70, "duration": 6, "velocity": 19}, {"time": 333, "pitch": 62, "duration": 4, "velocity": 102}, {"time": 339, "pitch": 51, "duration": 13, "velocity": 96}, {"time": 339, "pitch": 67, "duration": 8, "velocity": 92}, {"time": 339, "pitch": 70, "duration": 8, "velocity": 72}, {"time": 345, "pitch": 58, "duration": 11, "velocity": 52}, {"time": 351, "pitch": 63, "duration": 4, "velocity": 90}, {"time": 351, "pitch": 67, "duration": 3, "velocity": 92}, {"time": 351, "pitch": 70, "duration": 4, "velocity": 85}, {"time": 357, "pitch": 51, "duration": 1, "velocity": 79}, {"time": 363, "pitch": 53, "duration": 16, "velocity": 94}, {"time": 363, "pitch": 60, "duration": 2, "velocity": 84}, {"time": 363, "pitch": 65, "duration": 8, "velocity": 97}, {"time": 363, "pitch": 69, "duration": 8, "velocity": 94}, {"time": 369, "pitch": 60, "duration": 5, "velocity": 80}, {"time": 375, "pitch": 60, "duration": 3, "velocity": 94}, {"time": 375, "pitch": 65, "duration": 7, "velocity": 105}, {"time": 375, "pitch": 69, "duration": 9, "velocity": 100}, {"time": 381, "pitch": 60, "duration": 2, "velocity": 102}, {"time": 387, "pitch": 43, "duration": 21, "velocity": 100}, {"time": 387, "pitch": 62, "duration": 9, "velocity": 80}, {"time": 387, "pitch": 67, "duration": 9, "velocity": 87}, {"time": 393, "pitch": 50, "duration": 8, "velocity": 58}, {"time": 399, "pitch": 62, "duration": 3, "velocity": 78}, {"time": 399, "pitch": 67, "duration": 6, "velocity": 100}, {"time": 399, "pitch": 70, "duration": 9, "velocity": 85}, {"time": 405, "pitch": 50, "duration": 5, "velocity": 67}, {"time": 411, "pitch": 43, "duration": 22, "velocity": 76}, {"time": 411, "pitch": 62, "duration": 9, "velocity": 64}, {"time": 411, "pitch": 67, "duration": 9, "velocity": 76}, {"time": 417, "pitch": 50, "duration": 16, "velocity": 38}, {"time": 423, "pitch": 62, "duration": 10, "velocity": 62}, {"time": 423, "pitch": 67, "duration": 11, "velocity": 73}, {"time": 435, "pitch": 43, "duration": 15, "velocity": 89}, {"time": 435, "pitch": 55, "duration": 12, "velocity": 76}, {"time": 435, "pitch": 58, "duration": 9, "velocity": 79}, {"time": 441, "pitch": 50, "duration": 7, "velocity": 50}, {"time": 447, "pitch": 58, "duration": 6, "velocity": 93}, {"time": 447, "pitch": 62, "duration": 7, "velocity": 94}, {"time": 453, "pitch": 55, "duration": 3, "velocity": 58}, {"time": 459, "pitch": 41, "duration": 13, "velocity": 89}, {"time": 459, "pitch": 53, "duration": 12, "velocity": 76}, {"time": 459, "pitch": 57, "duration": 7, "velocity": 84}, {"time": 465, "pitch": 48, "duration": 7, "velocity": 44}, {"time": 471, "pitch": 57, "duration": 6, "velocity": 105}, {"time": 471, "pitch": 60, "duration": 7, "velocity": 94}, {"time": 477, "pitch": 53, "duration": 3, "velocity": 71}, {"time": 483, "pitch": 51, "duration": 14, "velocity": 90}, {"time": 483, "pitch": 63, "duration": 6, "velocity": 55}, {"time": 483, "pitch": 67, "duration": 6, "velocity": 80}, {"time": 489, "pitch": 58, "duration": 7, "velocity": 63}, {"time": 495, "pitch": 63, "duration": 8, "velocity": 87}, {"time": 495, "pitch": 70, "duration": 9, "velocity": 79}, {"time": 507, "pitch": 46, "duration": 18, "velocity": 72}, {"time": 513, "pitch": 53, "duration": 8, "velocity": 50}, {"time": 513, "pitch": 58, "duration": 5, "velocity": 70}, {"time": 519, "pitch": 58, "duration": 1, "velocity": 35}, {"time": 519, "pitch": 62, "duration": 6, "velocity": 105}, {"time": 519, "pitch": 65, "duration": 14, "velocity": 105}, {"time": 525, "pitch": 58, "duration": 1, "velocity": 90}, {"time": 531, "pitch": 43, "duration": 15, "velocity": 78}, {"time": 531, "pitch": 55, "duration": 12, "velocity": 80}, {"time": 531, "pitch": 58, "duration": 8, "velocity": 70}, {"time": 537, "pitch": 50, "duration": 9, "velocity": 78}, {"time": 543, "pitch": 58, "duration": 6, "velocity": 102}, {"time": 543, "pitch": 62, "duration": 9, "velocity": 97}, {"time": 549, "pitch": 55, "duration": 3, "velocity": 89}, {"time": 555, "pitch": 41, "duration": 17, "velocity": 89}, {"time": 555, "pitch": 53, "duration": 3, "velocity": 51}, {"time": 555, "pitch": 55, "duration": 3, "velocity": 49}, {"time": 555, "pitch": 57, "duration": 11, "velocity": 76}, {"time": 561, "pitch": 48, "duration": 8, "velocity": 52}, {"time": 567, "pitch": 57, "duration": 7, "velocity": 94}, {"time": 567, "pitch": 60, "duration": 12, "velocity": 94}, {"time": 573, "pitch": 53, "duration": 2, "velocity": 100}, {"time": 579, "pitch": 43, "duration": 22, "velocity": 92}, {"time": 579, "pitch": 55, "duration": 9, "velocity": 58}, {"time": 579, "pitch": 58, "duration": 8, "velocity": 48}, {"time": 585, "pitch": 50, "duration": 9, "velocity": 62}, {"time": 591, "pitch": 57, "duration": 4, "velocity": 97}, {"time": 597, "pitch": 50, "duration": 5, "velocity": 58}, {"time": 603, "pitch": 43, "duration": 15, "velocity": 84}, {"time": 603, "pitch": 55, "duration": 9, "velocity": 71}, {"time": 603, "pitch": 58, "duration": 7, "velocity": 63}, {"time": 603, "pitch": 62, "duration": 5, "velocity": 87}, {"time": 609, "pitch": 50, "duration": 8, "velocity": 45}, {"time": 615, "pitch": 58, "duration": 8, "velocity": 82}, {"time": 615, "pitch": 62, "duration": 8, "velocity": 89}, {"time": 615, "pitch": 67, "duration": 9, "velocity": 89}, {"time": 621, "pitch": 55, "duration": 5, "velocity": 84}, {"time": 627, "pitch": 43, "duration": 15, "velocity": 89}, {"time": 627, "pitch": 55, "duration": 12, "velocity": 76}, {"time": 627, "pitch": 58, "duration": 9, "velocity": 79}, {"time": 633, "pitch": 50, "duration": 7, "velocity": 50}, {"time": 639, "pitch": 58, "duration": 6, "velocity": 93}, {"time": 639, "pitch": 62, "duration": 7, "velocity": 94}, {"time": 645, "pitch": 55, "duration": 3, "velocity": 58}, {"time": 651, "pitch": 41, "duration": 13, "velocity": 89}, {"time": 651, "pitch": 53, "duration": 12, "velocity": 76}, {"time": 651, "pitch": 57, "duration": 7, "velocity": 84}, {"time": 657, "pitch": 48, "duration": 7, "velocity": 44}, {"time": 663, "pitch": 57, "duration": 6, "velocity": 105}, {"time": 663, "pitch": 60, "duration": 7, "velocity": 94}, {"time": 669, "pitch": 53, "duration": 3, "velocity": 71}, {"time": 675, "pitch": 51, "duration": 14, "velocity": 90}, {"time": 675, "pitch": 63, "duration": 6, "velocity": 55}, {"time": 675, "pitch": 67, "duration": 6, "velocity": 80}, {"time": 681, "pitch": 58, "duration": 7, "velocity": 63}, {"time": 687, "pitch": 63, "duration": 8, "velocity": 87}, {"time": 687, "pitch": 70, "duration": 9, "velocity": 79}, {"time": 699, "pitch": 46, "duration": 18, "velocity": 72}, {"time": 705, "pitch": 53, "duration": 8, "velocity": 50}, {"time": 705, "pitch": 58, "duration": 5, "velocity": 70}, {"time": 711, "pitch": 58, "duration": 1, "velocity": 35}, {"time": 711, "pitch": 62, "duration": 6, "velocity": 105}, {"time": 711, "pitch": 65, "duration": 14, "velocity": 105}, {"time": 717, "pitch": 58, "duration": 1, "velocity": 90}, {"time": 723, "pitch": 43, "duration": 15, "velocity": 78}, {"time": 723, "pitch": 55, "duration": 12, "velocity": 80}, {"time": 723, "pitch": 58, "duration": 8, "velocity": 70}, {"time": 729, "pitch": 50, "duration": 9, "velocity": 78}, {"time": 735, "pitch": 58, "duration": 6, "velocity": 102}, {"time": 735, "pitch": 62, "duration": 9, "velocity": 97}, {"time": 741, "pitch": 55, "duration": 3, "velocity": 89}, {"time": 747, "pitch": 41, "duration": 17, "velocity": 89}, {"time": 747, "pitch": 53, "duration": 3, "velocity": 51}, {"time": 747, "pitch": 55, "duration": 3, "velocity": 49}, {"time": 747, "pitch": 57, "duration": 11, "velocity": 76}, {"time": 753, "pitch": 48, "duration": 8, "velocity": 52}, {"time": 759, "pitch": 57, "duration": 7, "velocity": 94}, {"time": 759, "pitch": 60, "duration": 12, "velocity": 94}, {"time": 765, "pitch": 53, "duration": 2, "velocity": 100}, {"time": 771, "pitch": 43, "duration": 22, "velocity": 92}, {"time": 771, "pitch": 55, "duration": 9, "velocity": 58}, {"time": 771, "pitch": 58, "duration": 8, "velocity": 48}, {"time": 777, "pitch": 50, "duration": 9, "velocity": 62}, {"time": 783, "pitch": 57, "duration": 4, "velocity": 97}, {"time": 789, "pitch": 50, "duration": 5, "velocity": 58}, {"time": 795, "pitch": 43, "duration": 15, "velocity": 84}, {"time": 795, "pitch": 55, "duration": 9, "velocity": 71}, {"time": 795, "pitch": 58, "duration": 7, "velocity": 63}, {"time": 795, "pitch": 62, "duration": 5, "velocity": 87}, {"time": 801, "pitch": 50, "duration": 8, "velocity": 45}, {"time": 807, "pitch": 58, "duration": 8, "velocity": 82}, {"time": 807, "pitch": 62, "duration": 8, "velocity": 89}, {"time": 807, "pitch": 67, "duration": 9, "velocity": 89}, {"time": 813, "pitch": 55, "duration": 5, "velocity": 84}, {"time": 819, "pitch": 51, "duration": 15, "velocity": 105}, {"time": 819, "pitch": 63, "duration": 7, "velocity": 77}, {"time": 819, "pitch": 67, "duration": 10, "velocity": 84}, {"time": 825, "pitch": 58, "duration": 7, "velocity": 79}, {"time": 828, "pitch": 63, "duration": 4, "velocity": 90}, {"time": 831, "pitch": 70, "duration": 6, "velocity": 102}, {"time": 834, "pitch": 58, "duration": 3, "velocity": 90}, {"time": 837, "pitch": 63, "duration": 2, "velocity": 99}, {"time": 843, "pitch": 53, "duration": 19, "velocity": 102}, {"time": 843, "pitch": 65, "duration": 10, "velocity": 80}, {"time": 843, "pitch": 69, "duration": 9, "velocity": 94}, {"time": 849, "pitch": 60, "duration": 7, "velocity": 92}, {"time": 855, "pitch": 65, "duration": 6, "velocity": 102}, {"time": 855, "pitch": 69, "duration": 11, "velocity": 108}, {"time": 861, "pitch": 60, "duration": 2, "velocity": 100}, {"time": 867, "pitch": 50, "duration": 17, "velocity": 97}, {"time": 867, "pitch": 62, "duration": 7, "velocity": 64}, {"time": 867, "pitch": 65, "duration": 9, "velocity": 94}, {"time": 873, "pitch": 57, "duration": 7, "velocity": 78}, {"time": 876, "pitch": 62, "duration": 2, "velocity": 67}, {"time": 879, "pitch": 62, "duration": 4, "velocity": 100}, {"time": 879, "pitch": 65, "duration": 4, "velocity": 108}, {"time": 879, "pitch": 69, "duration": 5, "velocity": 102}, {"time": 882, "pitch": 57, "duration": 2, "velocity": 94}, {"time": 885, "pitch": 62, "duration": 5, "velocity": 94}, {"time": 891, "pitch": 43, "duration": 14, "velocity": 92}, {"time": 891, "pitch": 62, "duration": 8, "velocity": 82}, {"time": 891, "pitch": 67, "duration": 7, "velocity": 100}, {"time": 891, "pitch": 70, "duration": 8, "velocity": 85}, {"time": 897, "pitch": 50, "duration": 7, "velocity": 50}, {"time": 903, "pitch": 62, "duration": 4, "velocity": 102}, {"time": 903, "pitch": 67, "duration": 6, "velocity": 111}, {"time": 903, "pitch": 70, "duration": 7, "velocity": 105}, {"time": 909, "pitch": 43, "duration": 1, "velocity": 97}, {"time": 915, "pitch": 51, "duration": 16, "velocity": 93}, {"time": 915, "pitch": 63, "duration": 9, "velocity": 87}, {"time": 915, "pitch": 67, "duration": 8, "velocity": 108}, {"time": 921, "pitch": 58, "duration": 8, "velocity": 77}, {"time": 927, "pitch": 63, "duration": 6, "velocity": 96}, {"time": 927, "pitch": 67, "duration": 6, "velocity": 102}, {"time": 927, "pitch": 70, "duration": 7, "velocity": 96}, {"time": 933, "pitch": 58, "duration": 2, "velocity": 96}, {"time": 939, "pitch": 53, "duration": 17, "velocity": 105}, {"time": 939, "pitch": 60, "duration": 3, "velocity": 78}, {"time": 939, "pitch": 65, "duration": 7, "velocity": 92}, {"time": 945, "pitch": 60, "duration": 4, "velocity": 84}, {"time": 951, "pitch": 60, "duration": 3, "velocity": 108}, {"time": 951, "pitch": 65, "duration": 6, "velocity": 111}, {"time": 951, "pitch": 69, "duration": 7, "velocity": 100}, {"time": 957, "pitch": 60, "duration": 2, "velocity": 97}, {"time": 963, "pitch": 46, "duration": 18, "velocity": 105}, {"time": 963, "pitch": 58, "duration": 15, "velocity": 74}, {"time": 963, "pitch": 62, "duration": 8, "velocity": 102}, {"time": 969, "pitch": 53, "duration": 7, "velocity": 80}, {"time": 975, "pitch": 62, "duration": 6, "velocity": 100}, {"time": 975, "pitch": 65, "duration": 6, "velocity": 102}, {"time": 978, "pitch": 53, "duration": 8, "velocity": 82}, {"time": 981, "pitch": 58, "duration": 5, "velocity": 93}, {"time": 984, "pitch": 62, "duration": 2, "velocity": 87}, {"time": 987, "pitch": 46, "duration": 15, "velocity": 105}, {"time": 987, "pitch": 58, "duration": 10, "velocity": 82}, {"time": 987, "pitch": 62, "duration": 9, "velocity": 105}, {"time": 993, "pitch": 53, "duration": 10, "velocity": 67}, {"time": 999, "pitch": 58, "duration": 4, "velocity": 85}, {"time": 999, "pitch": 62, "duration": 4, "velocity": 102}, {"time": 999, "pitch": 65, "duration": 5, "velocity": 105}, {"time": 1005, "pitch": 46, "duration": 1, "velocity": 109}, {"time": 1011, "pitch": 51, "duration": 15, "velocity": 105}, {"time": 1011, "pitch": 63, "duration": 4, "velocity": 87}, {"time": 1011, "pitch": 67, "duration": 5, "velocity": 89}, {"time": 1017, "pitch": 58, "duration": 7, "velocity": 57}, {"time": 1023, "pitch": 63, "duration": 4, "velocity": 99}, {"time": 1023, "pitch": 67, "duration": 5, "velocity": 111}, {"time": 1023, "pitch": 70, "duration": 10, "velocity": 96}, {"time": 1026, "pitch": 58, "duration": 3, "velocity": 87}, {"time": 1029, "pitch": 63, "duration": 3, "velocity": 102}, {"time": 1035, "pitch": 53, "duration": 15, "velocity": 97}, {"time": 1035, "pitch": 65, "duration": 8, "velocity": 73}, {"time": 1035, "pitch": 69, "duration": 8, "velocity": 102}, {"time": 1041, "pitch": 60, "duration": 7, "velocity": 84}, {"time": 1047, "pitch": 65, "duration": 6, "velocity": 105}, {"time": 1047, "pitch": 69, "duration": 11, "velocity": 105}, {"time": 1050, "pitch": 60, "duration": 2, "velocity": 84}, {"time": 1053, "pitch": 53, "duration": 2, "velocity": 84}, {"time": 1059, "pitch": 50, "duration": 16, "velocity": 94}, {"time": 1059, "pitch": 62, "duration": 10, "velocity": 80}, {"time": 1059, "pitch": 65, "duration": 9, "velocity": 92}, {"time": 1065, "pitch": 57, "duration": 7, "velocity": 78}, {"time": 1071, "pitch": 62, "duration": 4, "velocity": 94}, {"time": 1071, "pitch": 65, "duration": 5, "velocity": 111}, {"time": 1071, "pitch": 69, "duration": 6, "velocity": 105}, {"time": 1074, "pitch": 57, "duration": 3, "velocity": 84}, {"time": 1077, "pitch": 50, "duration": 2, "velocity": 84}, {"time": 1080, "pitch": 62, "duration": 2, "velocity": 92}, {"time": 1083, "pitch": 43, "duration": 19, "velocity": 97}, {"time": 1083, "pitch": 62, "duration": 3, "velocity": 87}, {"time": 1083, "pitch": 70, "duration": 8, "velocity": 72}, {"time": 1086, "pitch": 50, "duration": 10, "velocity": 52}, {"time": 1089, "pitch": 62, "duration": 4, "velocity": 97}, {"time": 1092, "pitch": 67, "duration": 2, "velocity": 100}, {"time": 1095, "pitch": 62, "duration": 11, "velocity": 102}, {"time": 1095, "pitch": 67, "duration": 7, "velocity": 100}, {"time": 1095, "pitch": 70, "duration": 8, "velocity": 109}, {"time": 1101, "pitch": 50, "duration": 3, "velocity": 94}, {"time": 1107, "pitch": 51, "duration": 14, "velocity": 96}, {"time": 1107, "pitch": 63, "duration": 4, "velocity": 85}, {"time": 1107, "pitch": 67, "duration": 4, "velocity": 92}, {"time": 1113, "pitch": 58, "duration": 7, "velocity": 77}, {"time": 1119, "pitch": 63, "duration": 4, "velocity": 96}, {"time": 1119, "pitch": 67, "duration": 5, "velocity": 105}, {"time": 1119, "pitch": 70, "duration": 10, "velocity": 96}, {"time": 1122, "pitch": 58, "duration": 2, "velocity": 99}, {"time": 1125, "pitch": 63, "duration": 2, "velocity": 96}, {"time": 1131, "pitch": 53, "duration": 14, "velocity": 100}, {"time": 1131, "pitch": 65, "duration": 9, "velocity": 87}, {"time": 1131, "pitch": 69, "duration": 9, "velocity": 100}, {"time": 1137, "pitch": 60, "duration": 9, "velocity": 84}, {"time": 1143, "pitch": 65, "duration": 4, "velocity": 100}, {"time": 1143, "pitch": 69, "duration": 5, "velocity": 105}, {"time": 1149, "pitch": 53, "duration": 1, "velocity": 73}, {"time": 1155, "pitch": 43, "duration": 22, "velocity": 92}, {"time": 1155, "pitch": 62, "duration": 8, "velocity": 92}, {"time": 1155, "pitch": 67, "duration": 8, "velocity": 92}, {"time": 1161, "pitch": 50, "duration": 7, "velocity": 53}, {"time": 1167, "pitch": 62, "duration": 10, "velocity": 97}, {"time": 1167, "pitch": 67, "duration": 8, "velocity": 111}, {"time": 1167, "pitch": 70, "duration": 8, "velocity": 102}, {"time": 1173, "pitch": 50, "duration": 5, "velocity": 69}, {"time": 1179, "pitch": 43, "duration": 23, "velocity": 89}, {"time": 1179, "pitch": 62, "duration": 7, "velocity": 71}, {"time": 1179, "pitch": 67, "duration": 8, "velocity": 80}, {"time": 1185, "pitch": 50, "duration": 7, "velocity": 44}, {"time": 1191, "pitch": 62, "duration": 11, "velocity": 87}, {"time": 1191, "pitch": 67, "duration": 11, "velocity": 100}, {"time": 1191, "pitch": 70, "duration": 12, "velocity": 82}, {"time": 1197, "pitch": 50, "duration": 6, "velocity": 67}, {"time": 1203, "pitch": 51, "duration": 15, "velocity": 105}, {"time": 1203, "pitch": 63, "duration": 7, "velocity": 77}, {"time": 1203, "pitch": 67, "duration": 10, "velocity": 84}, {"time": 1209, "pitch": 58, "duration": 7, "velocity": 79}, {"time": 1212, "pitch": 63, "duration": 4, "velocity": 90}, {"time": 1215, "pitch": 70, "duration": 6, "velocity": 102}, {"time": 1218, "pitch": 58, "duration": 3, "velocity": 90}, {"time": 1221, "pitch": 63, "duration": 2, "velocity": 99}, {"time": 1227, "pitch": 53, "duration": 19, "velocity": 102}, {"time": 1227, "pitch": 65, "duration": 10, "velocity": 80}, {"time": 1227, "pitch": 69, "duration": 9, "velocity": 94}, {"time": 1233, "pitch": 60, "duration": 7, "velocity": 92}, {"time": 1239, "pitch": 65, "duration": 6, "velocity": 102}, {"time": 1239, "pitch": 69, "duration": 11, "velocity": 108}, {"time": 1245, "pitch": 60, "duration": 2, "velocity": 100}, {"time": 1251, "pitch": 50, "duration": 17, "velocity": 97}, {"time": 1251, "pitch": 62, "duration": 7, "velocity": 64}, {"time": 1251, "pitch": 65, "duration": 9, "velocity": 94}, {"time": 1257, "pitch": 57, "duration": 7, "velocity": 78}, {"time": 1260, "pitch": 62, "duration": 2, "velocity": 67}, {"time": 1263, "pitch": 62, "duration": 4, "velocity": 100}, {"time": 1263, "pitch": 65, "duration": 4, "velocity": 108}, {"time": 1263, "pitch": 69, "duration": 5, "velocity": 102}, {"time": 1266, "pitch": 57, "duration": 2, "velocity": 94}, {"time": 1269, "pitch": 62, "duration": 5, "velocity": 94}, {"time": 1275, "pitch": 43, "duration": 14, "velocity": 92}, {"time": 1275, "pitch": 62, "duration": 8, "velocity": 82}, {"time": 1275, "pitch": 67, "duration": 7, "velocity": 100}, {"time": 1275, "pitch": 70, "duration": 8, "velocity": 85}, {"time": 1281, "pitch": 50, "duration": 7, "velocity": 50}, {"time": 1287, "pitch": 62, "duration": 4, "velocity": 102}, {"time": 1287, "pitch": 67, "duration": 6, "velocity": 111}, {"time": 1287, "pitch": 70, "duration": 7, "velocity": 105}, {"time": 1293, "pitch": 43, "duration": 1, "velocity": 97}, {"time": 1299, "pitch": 51, "duration": 16, "velocity": 93}, {"time": 1299, "pitch": 63, "duration": 9, "velocity": 87}, {"time": 1299, "pitch": 67, "duration": 8, "velocity": 108}, {"time": 1305, "pitch": 58, "duration": 8, "velocity": 77}, {"time": 1311, "pitch": 63, "duration": 6, "velocity": 96}, {"time": 1311, "pitch": 67, "duration": 6, "velocity": 102}, {"time": 1311, "pitch": 70, "duration": 7, "velocity": 96}, {"time": 1317, "pitch": 58, "duration": 2, "velocity": 96}, {"time": 1323, "pitch": 53, "duration": 17, "velocity": 105}, {"time": 1323, "pitch": 60, "duration": 3, "velocity": 78}, {"time": 1323, "pitch": 65, "duration": 7, "velocity": 92}, {"time": 1329, "pitch": 60, "duration": 4, "velocity": 84}, {"time": 1335, "pitch": 60, "duration": 3, "velocity": 108}, {"time": 1335, "pitch": 65, "duration": 6, "velocity": 111}, {"time": 1335, "pitch": 69, "duration": 7, "velocity": 100}, {"time": 1341, "pitch": 60, "duration": 2, "velocity": 97}, {"time": 1347, "pitch": 46, "duration": 18, "velocity": 105}, {"time": 1347, "pitch": 58, "duration": 15, "velocity": 74}, {"time": 1347, "pitch": 62, "duration": 8, "velocity": 102}, {"time": 1353, "pitch": 53, "duration": 7, "velocity": 80}, {"time": 1359, "pitch": 62, "duration": 6, "velocity": 100}, {"time": 1359, "pitch": 65, "duration": 6, "velocity": 102}, {"time": 1362, "pitch": 53, "duration": 8, "velocity": 82}, {"time": 1365, "pitch": 58, "duration": 5, "velocity": 93}, {"time": 1368, "pitch": 62, "duration": 2, "velocity": 87}, {"time": 1371, "pitch": 46, "duration": 15, "velocity": 105}, {"time": 1371, "pitch": 58, "duration": 10, "velocity": 82}, {"time": 1371, "pitch": 62, "duration": 9, "velocity": 105}, {"time": 1377, "pitch": 53, "duration": 10, "velocity": 67}, {"time": 1383, "pitch": 58, "duration": 4, "velocity": 85}, {"time": 1383, "pitch": 62, "duration": 4, "velocity": 102}, {"time": 1383, "pitch": 65, "duration": 5, "velocity": 105}, {"time": 1389, "pitch": 46, "duration": 1, "velocity": 109}, {"time": 1395, "pitch": 51, "duration": 15, "velocity": 105}, {"time": 1395, "pitch": 63, "duration": 4, "velocity": 87}, {"time": 1395, "pitch": 67, "duration": 5, "velocity": 89}, {"time": 1401, "pitch": 58, "duration": 7, "velocity": 57}, {"time": 1407, "pitch": 63, "duration": 4, "velocity": 99}, {"time": 1407, "pitch": 67, "duration": 5, "velocity": 111}, {"time": 1407, "pitch": 70, "duration": 10, "velocity": 96}, {"time": 1410, "pitch": 58, "duration": 3, "velocity": 87}, {"time": 1413, "pitch": 63, "duration": 3, "velocity": 102}, {"time": 1419, "pitch": 53, "duration": 15, "velocity": 97}, {"time": 1419, "pitch": 65, "duration": 8, "velocity": 73}, {"time": 1419, "pitch": 69, "duration": 8, "velocity": 102}, {"time": 1425, "pitch": 60, "duration": 7, "velocity": 84}, {"time": 1431, "pitch": 65, "duration": 6, "velocity": 105}, {"time": 1431, "pitch": 69, "duration": 11, "velocity": 105}, {"time": 1434, "pitch": 60, "duration": 2, "velocity": 84}, {"time": 1437, "pitch": 53, "duration": 2, "velocity": 84}, {"time": 1443, "pitch": 50, "duration": 16, "velocity": 94}, {"time": 1443, "pitch": 62, "duration": 10, "velocity": 80}, {"time": 1443, "pitch": 65, "duration": 9, "velocity": 92}, {"time": 1449, "pitch": 57, "duration": 7, "velocity": 78}, {"time": 1455, "pitch": 62, "duration": 4, "velocity": 94}, {"time": 1455, "pitch": 65, "duration": 5, "velocity": 111}, {"time": 1455, "pitch": 69, "duration": 6, "velocity": 105}, {"time": 1458, "pitch": 57, "duration": 3, "velocity": 84}, {"time": 1461, "pitch": 50, "duration": 2, "velocity": 84}, {"time": 1464, "pitch": 62, "duration": 2, "velocity": 92}, {"time": 1467, "pitch": 43, "duration": 19, "velocity": 97}, {"time": 1467, "pitch": 62, "duration": 3, "velocity": 87}, {"time": 1467, "pitch": 70, "duration": 8, "velocity": 72}, {"time": 1470, "pitch": 50, "duration": 10, "velocity": 52}, {"time": 1473, "pitch": 62, "duration": 4, "velocity": 97}, {"time": 1476, "pitch": 67, "duration": 2, "velocity": 100}, {"time": 1479, "pitch": 62, "duration": 11, "velocity": 102}, {"time": 1479, "pitch": 67, "duration": 7, "velocity": 100}, {"time": 1479, "pitch": 70, "duration": 8, "velocity": 109}, {"time": 1485, "pitch": 50, "duration": 3, "velocity": 94}, {"time": 1491, "pitch": 51, "duration": 14, "velocity": 96}, {"time": 1491, "pitch": 63, "duration": 4, "velocity": 85}, {"time": 1491, "pitch": 67, "duration": 4, "velocity": 92}, {"time": 1497, "pitch": 58, "duration": 7, "velocity": 77}, {"time": 1503, "pitch": 63, "duration": 4, "velocity": 96}, {"time": 1503, "pitch": 67, "duration": 5, "velocity": 105}, {"time": 1503, "pitch": 70, "duration": 10, "velocity": 96}, {"time": 1506, "pitch": 58, "duration": 2, "velocity": 99}, {"time": 1509, "pitch": 63, "duration": 2, "velocity": 96}, {"time": 1515, "pitch": 53, "duration": 14, "velocity": 100}, {"time": 1515, "pitch": 65, "duration": 9, "velocity": 87}, {"time": 1515, "pitch": 69, "duration": 9, "velocity": 100}, {"time": 1521, "pitch": 60, "duration": 9, "velocity": 84}, {"time": 1527, "pitch": 65, "duration": 4, "velocity": 100}, {"time": 1527, "pitch": 69, "duration": 5, "velocity": 105}, {"time": 1533, "pitch": 53, "duration": 1, "velocity": 73}, {"time": 1539, "pitch": 43, "duration": 22, "velocity": 92}, {"time": 1539, "pitch": 62, "duration": 8, "velocity": 92}, {"time": 1539, "pitch": 67, "duration": 8, "velocity": 92}, {"time": 1545, "pitch": 50, "duration": 7, "velocity": 53}, {"time": 1551, "pitch": 62, "duration": 10, "velocity": 97}, {"time": 1551, "pitch": 67, "duration": 8, "velocity": 111}, {"time": 1551, "pitch": 70, "duration": 8, "velocity": 102}, {"time": 1557, "pitch": 50, "duration": 5, "velocity": 69}, {"time": 1563, "pitch": 43, "duration": 23, "velocity": 89}, {"time": 1563, "pitch": 62, "duration": 7, "velocity": 71}, {"time": 1563, "pitch": 67, "duration": 8, "velocity": 80}, {"time": 1569, "pitch": 50, "duration": 7, "velocity": 44}, {"time": 1575, "pitch": 62, "duration": 11, "velocity": 87}, {"time": 1575, "pitch": 67, "duration": 11, "velocity": 100}, {"time": 1575, "pitch": 70, "duration": 12, "velocity": 82}, {"time": 1581, "pitch": 50, "duration": 6, "velocity": 67}, {"time": 1587, "pitch": 43, "duration": 15, "velocity": 89}, {"time": 1587, "pitch": 55, "duration": 12, "velocity": 76}, {"time": 1587, "pitch": 58, "duration": 9, "velocity": 79}, {"time": 1593, "pitch": 50, "duration": 7, "velocity": 50}, {"time": 1599, "pitch": 58, "duration": 6, "velocity": 93}, {"time": 1599, "pitch": 62, "duration": 7, "velocity": 94}, {"time": 1605, "pitch": 55, "duration": 3, "velocity": 58}, {"time": 1611, "pitch": 41, "duration": 13, "velocity": 89}, {"time": 1611, "pitch": 53, "duration": 12, "velocity": 76}, {"time": 1611, "pitch": 57, "duration": 7, "velocity": 84}, {"time": 1617, "pitch": 48, "duration": 7, "velocity": 44}, {"time": 1623, "pitch": 57, "duration": 6, "velocity": 105}, {"time": 1623, "pitch": 60, "duration": 7, "velocity": 94}, {"time": 1629, "pitch": 53, "duration": 3, "velocity": 71}, {"time": 1635, "pitch": 51, "duration": 14, "velocity": 90}, {"time": 1635, "pitch": 63, "duration": 6, "velocity": 55}, {"time": 1635, "pitch": 67, "duration": 6, "velocity": 80}, {"time": 1641, "pitch": 58, "duration": 7, "velocity": 63}, {"time": 1647, "pitch": 63, "duration": 8, "velocity": 87}, {"time": 1647, "pitch": 70, "duration": 9, "velocity": 79}, {"time": 1659, "pitch": 46, "duration": 18, "velocity": 72}, {"time": 1665, "pitch": 53, "duration": 8, "velocity": 50}, {"time": 1665, "pitch": 58, "duration": 5, "velocity": 70}, {"time": 1671, "pitch": 58, "duration": 1, "velocity": 35}, {"time": 1671, "pitch": 62, "duration": 6, "velocity": 105}, {"time": 1671, "pitch": 65, "duration": 14, "velocity": 105}, {"time": 1677, "pitch": 58, "duration": 1, "velocity": 90}, {"time": 1683, "pitch": 43, "duration": 15, "velocity": 78}, {"time": 1683, "pitch": 55, "duration": 12, "velocity": 80}, {"time": 1683, "pitch": 58, "duration": 8, "velocity": 70}, {"time": 1689, "pitch": 50, "duration": 9, "velocity": 78}, {"time": 1695, "pitch": 58, "duration": 6, "velocity": 102}, {"time": 1695, "pitch": 62, "duration": 9, "velocity": 97}, {"time": 1701, "pitch": 55, "duration": 3, "velocity": 89}, {"time": 1707, "pitch": 41, "duration": 17, "velocity": 89}, {"time": 1707, "pitch": 53, "duration": 3, "velocity": 51}, {"time": 1707, "pitch": 55, "duration": 3, "velocity": 49}, {"time": 1707, "pitch": 57, "duration": 11, "velocity": 76}, {"time": 1713, "pitch": 48, "duration": 8, "velocity": 52}, {"time": 1719, "pitch": 57, "duration": 7, "velocity": 94}, {"time": 1719, "pitch": 60, "duration": 12, "velocity": 94}, {"time": 1725, "pitch": 53, "duration": 2, "velocity": 100}, {"time": 1731, "pitch": 43, "duration": 22, "velocity": 92}, {"time": 1731, "pitch": 55, "duration": 9, "velocity": 58}, {"time": 1731, "pitch": 58, "duration": 8, "velocity": 48}, {"time": 1737, "pitch": 50, "duration": 9, "velocity": 62}, {"time": 1743, "pitch": 57, "duration": 4, "velocity": 97}, {"time": 1749, "pitch": 50, "duration": 5, "velocity": 58}, {"time": 1755, "pitch": 43, "duration": 15, "velocity": 84}, {"time": 1755, "pitch": 55, "duration": 9, "velocity": 71}, {"time": 1755, "pitch": 58, "duration": 7, "velocity": 63}, {"time": 1755, "pitch": 62, "duration": 5, "velocity": 87}, {"time": 1761, "pitch": 50, "duration": 8, "velocity": 45}, {"time": 1767, "pitch": 58, "duration": 8, "velocity": 82}, {"time": 1767, "pitch": 62, "duration": 8, "velocity": 89}, {"time": 1767, "pitch": 67, "duration": 9, "velocity": 89}, {"time": 1773, "pitch": 55, "duration": 5, "velocity": 84}, {"time": 1779, "pitch": 43, "duration": 15, "velocity": 89}, {"time": 1779, "pitch": 55, "duration": 12, "velocity": 76}, {"time": 1779, "pitch": 58, "duration": 9, "velocity": 79}, {"time": 1785, "pitch": 50, "duration": 7, "velocity": 50}, {"time": 1791, "pitch": 58, "duration": 6, "velocity": 93}, {"time": 1791, "pitch": 62, "duration": 7, "velocity": 94}, {"time": 1797, "pitch": 55, "duration": 3, "velocity": 58}, {"time": 1803, "pitch": 41, "duration": 13, "velocity": 89}, {"time": 1803, "pitch": 53, "duration": 12, "velocity": 76}, {"time": 1803, "pitch": 57, "duration": 7, "velocity": 84}, {"time": 1809, "pitch": 48, "duration": 7, "velocity": 44}, {"time": 1815, "pitch": 57, "duration": 6, "velocity": 105}, {"time": 1815, "pitch": 60, "duration": 7, "velocity": 94}, {"time": 1821, "pitch": 53, "duration": 3, "velocity": 71}, {"time": 1827, "pitch": 51, "duration": 14, "velocity": 90}, {"time": 1827, "pitch": 63, "duration": 6, "velocity": 55}, {"time": 1827, "pitch": 67, "duration": 6, "velocity": 80}, {"time": 1833, "pitch": 58, "duration": 7, "velocity": 63}, {"time": 1839, "pitch": 63, "duration": 8, "velocity": 87}, {"time": 1839, "pitch": 70, "duration": 9, "velocity": 79}, {"time": 1851, "pitch": 46, "duration": 18, "velocity": 72}, {"time": 1857, "pitch": 53, "duration": 8, "velocity": 50}, {"time": 1857, "pitch": 58, "duration": 5, "velocity": 70}, {"time": 1863, "pitch": 58, "duration": 1, "velocity": 35}, {"time": 1863, "pitch": 62, "duration": 6, "velocity": 105}, {"time": 1863, "pitch": 65, "duration": 14, "velocity": 105}, {"time": 1869, "pitch": 58, "duration": 1, "velocity": 90}, {"time": 1875, "pitch": 43, "duration": 15, "velocity": 78}, {"time": 1875, "pitch": 55, "duration": 12, "velocity": 80}, {"time": 1875, "pitch": 58, "duration": 8, "velocity": 70}, {"time": 1881, "pitch": 50, "duration": 9, "velocity": 78}, {"time": 1887, "pitch": 58, "duration": 6, "velocity": 102}, {"time": 1887, "pitch": 62, "duration": 9, "velocity": 97}, {"time": 1893, "pitch": 55, "duration": 3, "velocity": 89}, {"time": 1899, "pitch": 41, "duration": 17, "velocity": 89}, {"time": 1899, "pitch": 53, "duration": 3, "velocity": 51}, {"time": 1899, "pitch": 55, "duration": 3, "velocity": 49}, {"time": 1899, "pitch": 57, "duration": 11, "velocity": 76}, {"time": 1905, "pitch": 48, "duration": 8, "velocity": 52}, {"time": 1911, "pitch": 57, "duration": 7, "velocity": 94}, {"time": 1911, "pitch": 60, "duration": 12, "velocity": 94}, {"time": 1917, "pitch": 53, "duration": 2, "velocity": 100}, {"time": 1923, "pitch": 43, "duration": 22, "velocity": 92}, {"time": 1923, "pitch": 55, "duration": 9, "velocity": 58}, {"time": 1923, "pitch": 58, "duration": 8, "velocity": 48}, {"time": 1929, "pitch": 50, "duration": 9, "velocity": 62}, {"time": 1935, "pitch": 57, "duration": 4, "velocity": 97}, {"time": 1941, "pitch": 50, "duration": 5, "velocity": 58}, {"time": 1947, "pitch": 43, "duration": 15, "velocity": 84}, {"time": 1947, "pitch": 55, "duration": 9, "velocity": 71}, {"time": 1947, "pitch": 58, "duration": 7, "velocity": 63}, {"time": 1947, "pitch": 62, "duration": 5, "velocity": 87}, {"time": 1953, "pitch": 50, "duration": 8, "velocity": 45}, {"time": 1959, "pitch": 58, "duration": 8, "velocity": 82}, {"time": 1959, "pitch": 62, "duration": 8, "velocity": 89}, {"time": 1959, "pitch": 67, "duration": 9, "velocity": 89}, {"time": 1965, "pitch": 55, "duration": 5, "velocity": 84}, {"time": 1971, "pitch": 51, "duration": 15, "velocity": 105}, {"time": 1971, "pitch": 63, "duration": 7, "velocity": 77}, {"time": 1971, "pitch": 67, "duration": 10, "velocity": 84}, {"time": 1977, "pitch": 58, "duration": 7, "velocity": 79}, {"time": 1980, "pitch": 63, "duration": 4, "velocity": 90}, {"time": 1983, "pitch": 70, "duration": 6, "velocity": 102}, {"time": 1986, "pitch": 58, "duration": 3, "velocity": 90}, {"time": 1989, "pitch": 63, "duration": 2, "velocity": 99}, {"time": 1995, "pitch": 53, "duration": 19, "velocity": 102}, {"time": 1995, "pitch": 65, "duration": 10, "velocity": 80}, {"time": 1995, "pitch": 69, "duration": 9, "velocity": 94}, {"time": 2001, "pitch": 60, "duration": 7, "velocity": 92}, {"time": 2007, "pitch": 65, "duration": 6, "velocity": 102}, {"time": 2007, "pitch": 69, "duration": 11, "velocity": 108}, {"time": 2013, "pitch": 60, "duration": 2, "velocity": 100}, {"time": 2019, "pitch": 50, "duration": 17, "velocity": 97}, {"time": 2019, "pitch": 62, "duration": 7, "velocity": 64}, {"time": 2019, "pitch": 65, "duration": 9, "velocity": 94}, {"time": 2025, "pitch": 57, "duration": 7, "velocity": 78}, {"time": 2028, "pitch": 62, "duration": 2, "velocity": 67}, {"time": 2031, "pitch": 62, "duration": 4, "velocity": 100}, {"time": 2031, "pitch": 65, "duration": 4, "velocity": 108}, {"time": 2031, "pitch": 69, "duration": 5, "velocity": 102}, {"time": 2034, "pitch": 57, "duration": 2, "velocity": 94}, {"time": 2037, "pitch": 62, "duration": 5, "velocity": 94}, {"time": 2043, "pitch": 43, "duration": 14, "velocity": 92}, {"time": 2043, "pitch": 62, "duration": 8, "velocity": 82}, {"time": 2043, "pitch": 67, "duration": 7, "velocity": 100}, {"time": 2043, "pitch": 70, "duration": 8, "velocity": 85}, {"time": 2049, "pitch": 50, "duration": 7, "velocity": 50}, {"time": 2055, "pitch": 62, "duration": 4, "velocity": 102}, {"time": 2055, "pitch": 67, "duration": 6, "velocity": 111}, {"time": 2055, "pitch": 70, "duration": 7, "velocity": 105}, {"time": 2061, "pitch": 43, "duration": 1, "velocity": 97}, {"time": 2067, "pitch": 51, "duration": 16, "velocity": 93}, {"time": 2067, "pitch": 63, "duration": 9, "velocity": 87}, {"time": 2067, "pitch": 67, "duration": 8, "velocity": 108}, {"time": 2073, "pitch": 58, "duration": 8, "velocity": 77}, {"time": 2079, "pitch": 63, "duration": 6, "velocity": 96}, {"time": 2079, "pitch": 67, "duration": 6, "velocity": 102}, {"time": 2079, "pitch": 70, "duration": 7, "velocity": 96}, {"time": 2085, "pitch": 58, "duration": 2, "velocity": 96}, {"time": 2091, "pitch": 53, "duration": 17, "velocity": 105}, {"time": 2091, "pitch": 60, "duration": 3, "velocity": 78}, {"time": 2091, "pitch": 65, "duration": 7, "velocity": 92}, {"time": 2097, "pitch": 60, "duration": 4, "velocity": 84}, {"time": 2103, "pitch": 60, "duration": 3, "velocity": 108}, {"time": 2103, "pitch": 65, "duration": 6, "velocity": 111}, {"time": 2103, "pitch": 69, "duration": 7, "velocity": 100}, {"time": 2109, "pitch": 60, "duration": 2, "velocity": 97}, {"time": 2115, "pitch": 46, "duration": 18, "velocity": 105}, {"time": 2115, "pitch": 58, "duration": 15, "velocity": 74}, {"time": 2115, "pitch": 62, "duration": 8, "velocity": 102}, {"time": 2121, "pitch": 53, "duration": 7, "velocity": 80}, {"time": 2127, "pitch": 62, "duration": 6, "velocity": 100}, {"time": 2127, "pitch": 65, "duration": 6, "velocity": 102}, {"time": 2130, "pitch": 53, "duration": 8, "velocity": 82}, {"time": 2133, "pitch": 58, "duration": 5, "velocity": 93}, {"time": 2136, "pitch": 62, "duration": 2, "velocity": 87}, {"time": 2139, "pitch": 46, "duration": 15, "velocity": 105}, {"time": 2139, "pitch": 58, "duration": 10, "velocity": 82}, {"time": 2139, "pitch": 62, "duration": 9, "velocity": 105}, {"time": 2145, "pitch": 53, "duration": 10, "velocity": 67}, {"time": 2151, "pitch": 58, "duration": 4, "velocity": 85}, {"time": 2151, "pitch": 62, "duration": 4, "velocity": 102}, {"time": 2151, "pitch": 65, "duration": 5, "velocity": 105}, {"time": 2157, "pitch": 46, "duration": 1, "velocity": 109}, {"time": 2163, "pitch": 51, "duration": 15, "velocity": 105}, {"time": 2163, "pitch": 63, "duration": 4, "velocity": 87}, {"time": 2163, "pitch": 67, "duration": 5, "velocity": 89}, {"time": 2169, "pitch": 58, "duration": 7, "velocity": 57}, {"time": 2175, "pitch": 63, "duration": 4, "velocity": 99}, {"time": 2175, "pitch": 67, "duration": 5, "velocity": 111}, {"time": 2175, "pitch": 70, "duration": 10, "velocity": 96}, {"time": 2178, "pitch": 58, "duration": 3, "velocity": 87}, {"time": 2181, "pitch": 63, "duration": 3, "velocity": 102}, {"time": 2187, "pitch": 53, "duration": 15, "velocity": 97}, {"time": 2187, "pitch": 65, "duration": 8, "velocity": 73}, {"time": 2187, "pitch": 69, "duration": 8, "velocity": 102}, {"time": 2193, "pitch": 60, "duration": 7, "velocity": 84}, {"time": 2199, "pitch": 65, "duration": 6, "velocity": 105}, {"time": 2199, "pitch": 69, "duration": 11, "velocity": 105}, {"time": 2202, "pitch": 60, "duration": 2, "velocity": 84}, {"time": 2205, "pitch": 53, "duration": 2, "velocity": 84}, {"time": 2211, "pitch": 50, "duration": 16, "velocity": 94}, {"time": 2211, "pitch": 62, "duration": 10, "velocity": 80}, {"time": 2211, "pitch": 65, "duration": 9, "velocity": 92}, {"time": 2217, "pitch": 57, "duration": 7, "velocity": 78}, {"time": 2223, "pitch": 62, "duration": 4, "velocity": 94}, {"time": 2223, "pitch": 65, "duration": 5, "velocity": 111}, {"time": 2223, "pitch": 69, "duration": 6, "velocity": 105}, {"time": 2226, "pitch": 57, "duration": 3, "velocity": 84}, {"time": 2229, "pitch": 50, "duration": 2, "velocity": 84}, {"time": 2232, "pitch": 62, "duration": 2, "velocity": 92}, {"time": 2235, "pitch": 43, "duration": 19, "velocity": 97}, {"time": 2235, "pitch": 62, "duration": 3, "velocity": 87}, {"time": 2235, "pitch": 70, "duration": 8, "velocity": 72}, {"time": 2238, "pitch": 50, "duration": 10, "velocity": 52}, {"time": 2241, "pitch": 62, "duration": 4, "velocity": 97}, {"time": 2244, "pitch": 67, "duration": 2, "velocity": 100}, {"time": 2247, "pitch": 62, "duration": 11, "velocity": 102}, {"time": 2247, "pitch": 67, "duration": 7, "velocity": 100}, {"time": 2247, "pitch": 70, "duration": 8, "velocity": 109}, {"time": 2253, "pitch": 50, "duration": 3, "velocity": 94}, {"time": 2259, "pitch": 51, "duration": 14, "velocity": 96}, {"time": 2259, "pitch": 63, "duration": 4, "velocity": 85}, {"time": 2259, "pitch": 67, "duration": 4, "velocity": 92}, {"time": 2265, "pitch": 58, "duration": 7, "velocity": 77}, {"time": 2271, "pitch": 63, "duration": 4, "velocity": 96}, {"time": 2271, "pitch": 67, "duration": 5, "velocity": 105}, {"time": 2271, "pitch": 70, "duration": 10, "velocity": 96}, {"time": 2274, "pitch": 58, "duration": 2, "velocity": 99}, {"time": 2277, "pitch": 63, "duration": 2, "velocity": 96}, {"time": 2283, "pitch": 53, "duration": 14, "velocity": 100}, {"time": 2283, "pitch": 65, "duration": 9, "velocity": 87}, {"time": 2283, "pitch": 69, "duration": 9, "velocity": 100}, {"time": 2289, "pitch": 60, "duration": 9, "velocity": 84}, {"time": 2295, "pitch": 65, "duration": 4, "velocity": 100}, {"time": 2295, "pitch": 69, "duration": 5, "velocity": 105}, {"time": 2301, "pitch": 53, "duration": 1, "velocity": 73}, {"time": 2307, "pitch": 43, "duration": 22, "velocity": 92}, {"time": 2307, "pitch": 62, "duration": 8, "velocity": 92}, {"time": 2307, "pitch": 67, "duration": 8, "velocity": 92}, {"time": 2313, "pitch": 50, "duration": 7, "velocity": 53}, {"time": 2319, "pitch": 62, "duration": 10, "velocity": 97}, {"time": 2319, "pitch": 67, "duration": 8, "velocity": 111}, {"time": 2319, "pitch": 70, "duration": 8, "velocity": 102}, {"time": 2325, "pitch": 50, "duration": 5, "velocity": 69}, {"time": 2331, "pitch": 43, "duration": 23, "velocity": 89}, {"time": 2331, "pitch": 62, "duration": 7, "velocity": 71}, {"time": 2331, "pitch": 67, "duration": 8, "velocity": 80}, {"time": 2337, "pitch": 50, "duration": 7, "velocity": 44}, {"time": 2343, "pitch": 62, "duration": 11, "velocity": 87}, {"time": 2343, "pitch": 67, "duration": 11, "velocity": 100}, {"time": 2343, "pitch": 70, "duration": 12, "velocity": 82}, {"time": 2349, "pitch": 50, "duration": 6, "velocity": 67}, {"time": 2355, "pitch": 51, "duration": 15, "velocity": 105}, {"time": 2355, "pitch": 63, "duration": 7, "velocity": 77}, {"time": 2355, "pitch": 67, "duration": 10, "velocity": 84}, {"time": 2361, "pitch": 58, "duration": 7, "velocity": 79}, {"time": 2364, "pitch": 63, "duration": 4, "velocity": 90}, {"time": 2367, "pitch": 70, "duration": 6, "velocity": 102}, {"time": 2370, "pitch": 58, "duration": 3, "velocity": 90}, {"time": 2373, "pitch": 63, "duration": 2, "velocity": 99}, {"time": 2379, "pitch": 53, "duration": 19, "velocity": 102}, {"time": 2379, "pitch": 65, "duration": 10, "velocity": 80}, {"time": 2379, "pitch": 69, "duration": 9, "velocity": 94}, {"time": 2385, "pitch": 60, "duration": 7, "velocity": 92}, {"time": 2391, "pitch": 65, "duration": 6, "velocity": 102}, {"time": 2391, "pitch": 69, "duration": 11, "velocity": 108}, {"time": 2397, "pitch": 60, "duration": 2, "velocity": 100}, {"time": 2403, "pitch": 50, "duration": 17, "velocity": 97}, {"time": 2403, "pitch": 62, "duration": 7, "velocity": 64}, {"time": 2403, "pitch": 65, "duration": 9, "velocity": 94}, {"time": 2409, "pitch": 57, "duration": 7, "velocity": 78}, {"time": 2412, "pitch": 62, "duration": 2, "velocity": 67}, {"time": 2415, "pitch": 62, "duration": 4, "velocity": 100}, {"time": 2415, "pitch": 65, "duration": 4, "velocity": 108}, {"time": 2415, "pitch": 69, "duration": 5, "velocity": 102}, {"time": 2418, "pitch": 57, "duration": 2, "velocity": 94}, {"time": 2421, "pitch": 62, "duration": 5, "velocity": 94}, {"time": 2427, "pitch": 43, "duration": 14, "velocity": 92}, {"time": 2427, "pitch": 62, "duration": 8, "velocity": 82}, {"time": 2427, "pitch": 67, "duration": 7, "velocity": 100}, {"time": 2427, "pitch": 70, "duration": 8, "velocity": 85}, {"time": 2433, "pitch": 50, "duration": 7, "velocity": 50}, {"time": 2439, "pitch": 62, "duration": 4, "velocity": 102}, {"time": 2439, "pitch": 67, "duration": 6, "velocity": 111}, {"time": 2439, "pitch": 70, "duration": 7, "velocity": 105}, {"time": 2445, "pitch": 43, "duration": 1, "velocity": 97}, {"time": 2451, "pitch": 51, "duration": 16, "velocity": 93}, {"time": 2451, "pitch": 63, "duration": 9, "velocity": 87}, {"time": 2451, "pitch": 67, "duration": 8, "velocity": 108}, {"time": 2457, "pitch": 58, "duration": 8, "velocity": 77}, {"time": 2463, "pitch": 63, "duration": 6, "velocity": 96}, {"time": 2463, "pitch": 67, "duration": 6, "velocity": 102}, {"time": 2463, "pitch": 70, "duration": 7, "velocity": 96}, {"time": 2469, "pitch": 58, "duration": 2, "velocity": 96}, {"time": 2475, "pitch": 53, "duration": 17, "velocity": 105}, {"time": 2475, "pitch": 60, "duration": 3, "velocity": 78}, {"time": 2475, "pitch": 65, "duration": 7, "velocity": 92}, {"time": 2481, "pitch": 60, "duration": 4, "velocity": 84}, {"time": 2487, "pitch": 60, "duration": 3, "velocity": 108}, {"time": 2487, "pitch": 65, "duration": 6, "velocity": 111}, {"time": 2487, "pitch": 69, "duration": 7, "velocity": 100}, {"time": 2493, "pitch": 60, "duration": 2, "velocity": 97}, {"time": 2499, "pitch": 46, "duration": 18, "velocity": 105}, {"time": 2499, "pitch": 58, "duration": 15, "velocity": 74}, {"time": 2499, "pitch": 62, "duration": 8, "velocity": 102}, {"time": 2505, "pitch": 53, "duration": 7, "velocity": 80}, {"time": 2511, "pitch": 62, "duration": 6, "velocity": 100}, {"time": 2511, "pitch": 65, "duration": 6, "velocity": 102}, {"time": 2514, "pitch": 53, "duration": 8, "velocity": 82}, {"time": 2517, "pitch": 58, "duration": 5, "velocity": 93}, {"time": 2520, "pitch": 62, "duration": 2, "velocity": 87}, {"time": 2523, "pitch": 46, "duration": 15, "velocity": 105}, {"time": 2523, "pitch": 58, "duration": 10, "velocity": 82}, {"time": 2523, "pitch": 62, "duration": 9, "velocity": 105}, {"time": 2529, "pitch": 53, "duration": 10, "velocity": 67}, {"time": 2535, "pitch": 58, "duration": 4, "velocity": 85}, {"time": 2535, "pitch": 62, "duration": 4, "velocity": 102}, {"time": 2535, "pitch": 65, "duration": 5, "velocity": 105}, {"time": 2541, "pitch": 46, "duration": 1, "velocity": 109}, {"time": 2547, "pitch": 51, "duration": 15, "velocity": 105}, {"time": 2547, "pitch": 63, "duration": 4, "velocity": 87}, {"time": 2547, "pitch": 67, "duration": 5, "velocity": 89}, {"time": 2553, "pitch": 58, "duration": 7, "velocity": 57}, {"time": 2559, "pitch": 63, "duration": 4, "velocity": 99}, {"time": 2559, "pitch": 67, "duration": 5, "velocity": 111}, {"time": 2559, "pitch": 70, "duration": 10, "velocity": 96}, {"time": 2562, "pitch": 58, "duration": 3, "velocity": 87}, {"time": 2565, "pitch": 63, "duration": 3, "velocity": 102}, {"time": 2571, "pitch": 53, "duration": 15, "velocity": 97}, {"time": 2571, "pitch": 65, "duration": 8, "velocity": 73}, {"time": 2571, "pitch": 69, "duration": 8, "velocity": 102}, {"time": 2577, "pitch": 60, "duration": 7, "velocity": 84}, {"time": 2583, "pitch": 65, "duration": 6, "velocity": 105}, {"time": 2583, "pitch": 69, "duration": 11, "velocity": 105}, {"time": 2586, "pitch": 60, "duration": 2, "velocity": 84}, {"time": 2589, "pitch": 53, "duration": 2, "velocity": 84}, {"time": 2595, "pitch": 50, "duration": 16, "velocity": 94}, {"time": 2595, "pitch": 62, "duration": 10, "velocity": 80}, {"time": 2595, "pitch": 65, "duration": 9, "velocity": 92}, {"time": 2601, "pitch": 57, "duration": 7, "velocity": 78}, {"time": 2607, "pitch": 62, "duration": 4, "velocity": 94}, {"time": 2607, "pitch": 65, "duration": 5, "velocity": 111}, {"time": 2607, "pitch": 69, "duration": 6, "velocity": 105}, {"time": 2610, "pitch": 57, "duration": 3, "velocity": 84}, {"time": 2613, "pitch": 50, "duration": 2, "velocity": 84}, {"time": 2616, "pitch": 62, "duration": 2, "velocity": 92}, {"time": 2619, "pitch": 43, "duration": 19, "velocity": 97}, {"time": 2619, "pitch": 62, "duration": 3, "velocity": 87}, {"time": 2619, "pitch": 70, "duration": 8, "velocity": 72}, {"time": 2622, "pitch": 50, "duration": 10, "velocity": 52}, {"time": 2625, "pitch": 62, "duration": 4, "velocity": 97}, {"time": 2628, "pitch": 67, "duration": 2, "velocity": 100}, {"time": 2631, "pitch": 62, "duration": 11, "velocity": 102}, {"time": 2631, "pitch": 67, "duration": 7, "velocity": 100}, {"time": 2631, "pitch": 70, "duration": 8, "velocity": 109}, {"time": 2637, "pitch": 50, "duration": 3, "velocity": 94}, {"time": 2643, "pitch": 51, "duration": 14, "velocity": 96}, {"time": 2643, "pitch": 63, "duration": 4, "velocity": 85}, {"time": 2643, "pitch": 67, "duration": 4, "velocity": 92}, {"time": 2649, "pitch": 58, "duration": 7, "velocity": 77}, {"time": 2655, "pitch": 63, "duration": 4, "velocity": 96}, {"time": 2655, "pitch": 67, "duration": 5, "velocity": 105}, {"time": 2655, "pitch": 70, "duration": 10, "velocity": 96}, {"time": 2658, "pitch": 58, "duration": 2, "velocity": 99}, {"time": 2661, "pitch": 63, "duration": 2, "velocity": 96}, {"time": 2667, "pitch": 53, "duration": 14, "velocity": 100}, {"time": 2667, "pitch": 65, "duration": 9, "velocity": 87}, {"time": 2667, "pitch": 69, "duration": 9, "velocity": 100}, {"time": 2673, "pitch": 60, "duration": 9, "velocity": 84}, {"time": 2679, "pitch": 65, "duration": 4, "velocity": 100}, {"time": 2679, "pitch": 69, "duration": 5, "velocity": 105}, {"time": 2685, "pitch": 53, "duration": 1, "velocity": 73}, {"time": 2691, "pitch": 43, "duration": 22, "velocity": 92}, {"time": 2691, "pitch": 62, "duration": 8, "velocity": 92}, {"time": 2691, "pitch": 67, "duration": 8, "velocity": 92}, {"time": 2697, "pitch": 50, "duration": 7, "velocity": 53}, {"time": 2703, "pitch": 62, "duration": 10, "velocity": 97}, {"time": 2703, "pitch": 67, "duration": 8, "velocity": 111}, {"time": 2703, "pitch": 70, "duration": 8, "velocity": 102}, {"time": 2709, "pitch": 50, "duration": 5, "velocity": 69}, {"time": 2715, "pitch": 43, "duration": 23, "velocity": 89}, {"time": 2715, "pitch": 62, "duration": 7, "velocity": 71}, {"time": 2715, "pitch": 67, "duration": 8, "velocity": 80}, {"time": 2721, "pitch": 50, "duration": 7, "velocity": 44}, {"time": 2727, "pitch": 62, "duration": 11, "velocity": 87}, {"time": 2727, "pitch": 67, "duration": 6, "velocity": 100}, {"time": 2727, "pitch": 70, "duration": 6, "velocity": 82}, {"time": 2733, "pitch": 50, "duration": 6, "velocity": 67}, {"time": 2733, "pitch": 65, "duration": 5, "velocity": 89}, {"time": 2733, "pitch": 69, "duration": 5, "velocity": 100}, {"time": 2739, "pitch": 51, "duration": 15, "velocity": 105}, {"time": 2739, "pitch": 63, "duration": 7, "velocity": 77}, {"time": 2739, "pitch": 67, "duration": 10, "velocity": 84}, {"time": 2745, "pitch": 58, "duration": 7, "velocity": 79}, {"time": 2748, "pitch": 63, "duration": 4, "velocity": 90}, {"time": 2751, "pitch": 70, "duration": 6, "velocity": 102}, {"time": 2754, "pitch": 58, "duration": 3, "velocity": 90}, {"time": 2757, "pitch": 63, "duration": 2, "velocity": 99}, {"time": 2763, "pitch": 53, "duration": 19, "velocity": 102}, {"time": 2763, "pitch": 65, "duration": 10, "velocity": 80}, {"time": 2763, "pitch": 69, "duration": 9, "velocity": 94}, {"time": 2769, "pitch": 60, "duration": 7, "velocity": 92}, {"time": 2775, "pitch": 65, "duration": 6, "velocity": 102}, {"time": 2775, "pitch": 69, "duration": 11, "velocity": 108}, {"time": 2781, "pitch": 60, "duration": 2, "velocity": 100}, {"time": 2787, "pitch": 50, "duration": 17, "velocity": 97}, {"time": 2787, "pitch": 62, "duration": 7, "velocity": 64}, {"time": 2787, "pitch": 65, "duration": 9, "velocity": 94}, {"time": 2793, "pitch": 57, "duration": 7, "velocity": 78}, {"time": 2796, "pitch": 62, "duration": 2, "velocity": 67}, {"time": 2799, "pitch": 62, "duration": 4, "velocity": 100}, {"time": 2799, "pitch": 65, "duration": 4, "velocity": 108}, {"time": 2799, "pitch": 69, "duration": 5, "velocity": 102}, {"time": 2802, "pitch": 57, "duration": 2, "velocity": 94}, {"time": 2805, "pitch": 62, "duration": 5, "velocity": 94}, {"time": 2811, "pitch": 43, "duration": 14, "velocity": 92}, {"time": 2811, "pitch": 62, "duration": 8, "velocity": 82}, {"time": 2811, "pitch": 67, "duration": 7, "velocity": 100}, {"time": 2811, "pitch": 70, "duration": 8, "velocity": 85}, {"time": 2817, "pitch": 50, "duration": 7, "velocity": 50}, {"time": 2823, "pitch": 62, "duration": 4, "velocity": 102}, {"time": 2823, "pitch": 67, "duration": 6, "velocity": 111}, {"time": 2823, "pitch": 70, "duration": 7, "velocity": 105}, {"time": 2829, "pitch": 43, "duration": 1, "velocity": 97}, {"time": 2835, "pitch": 51, "duration": 16, "velocity": 93}, {"time": 2835, "pitch": 63, "duration": 9, "velocity": 87}, {"time": 2835, "pitch": 67, "duration": 8, "velocity": 108}, {"time": 2841, "pitch": 58, "duration": 8, "velocity": 77}, {"time": 2847, "pitch": 63, "duration": 6, "velocity": 96}, {"time": 2847, "pitch": 67, "duration": 6, "velocity": 102}, {"time": 2847, "pitch": 70, "duration": 7, "velocity": 96}, {"time": 2853, "pitch": 58, "duration": 2, "velocity": 96}, {"time": 2859, "pitch": 53, "duration": 17, "velocity": 105}, {"time": 2859, "pitch": 60, "duration": 3, "velocity": 78}, {"time": 2859, "pitch": 65, "duration": 7, "velocity": 92}, {"time": 2865, "pitch": 60, "duration": 4, "velocity": 84}, {"time": 2871, "pitch": 60, "duration": 3, "velocity": 108}, {"time": 2871, "pitch": 65, "duration": 6, "velocity": 111}, {"time": 2871, "pitch": 69, "duration": 7, "velocity": 100}, {"time": 2877, "pitch": 60, "duration": 2, "velocity": 97}, {"time": 2883, "pitch": 46, "duration": 18, "velocity": 105}, {"time": 2883, "pitch": 58, "duration": 15, "velocity": 74}, {"time": 2883, "pitch": 62, "duration": 8, "velocity": 102}, {"time": 2889, "pitch": 53, "duration": 7, "velocity": 80}, {"time": 2895, "pitch": 62, "duration": 6, "velocity": 100}, {"time": 2895, "pitch": 65, "duration": 6, "velocity": 102}, {"time": 2898, "pitch": 53, "duration": 8, "velocity": 82}, {"time": 2901, "pitch": 58, "duration": 5, "velocity": 93}, {"time": 2904, "pitch": 62, "duration": 2, "velocity": 87}, {"time": 2907, "pitch": 46, "duration": 15, "velocity": 105}, {"time": 2907, "pitch": 58, "duration": 10, "velocity": 82}, {"time": 2907, "pitch": 62, "duration": 9, "velocity": 105}, {"time": 2913, "pitch": 53, "duration": 10, "velocity": 67}, {"time": 2919, "pitch": 58, "duration": 4, "velocity": 85}, {"time": 2919, "pitch": 62, "duration": 4, "velocity": 102}, {"time": 2919, "pitch": 65, "duration": 5, "velocity": 105}, {"time": 2925, "pitch": 46, "duration": 1, "velocity": 109}, {"time": 2931, "pitch": 51, "duration": 15, "velocity": 105}, {"time": 2931, "pitch": 63, "duration": 4, "velocity": 87}, {"time": 2931, "pitch": 67, "duration": 5, "velocity": 89}, {"time": 2937, "pitch": 58, "duration": 7, "velocity": 57}, {"time": 2943, "pitch": 63, "duration": 4, "velocity": 99}, {"time": 2943, "pitch": 67, "duration": 5, "velocity": 111}, {"time": 2943, "pitch": 70, "duration": 10, "velocity": 96}, {"time": 2946, "pitch": 58, "duration": 3, "velocity": 87}, {"time": 2949, "pitch": 63, "duration": 3, "velocity": 102}, {"time": 2955, "pitch": 53, "duration": 15, "velocity": 97}, {"time": 2955, "pitch": 65, "duration": 8, "velocity": 73}, {"time": 2955, "pitch": 69, "duration": 8, "velocity": 102}, {"time": 2961, "pitch": 60, "duration": 7, "velocity": 84}, {"time": 2967, "pitch": 65, "duration": 6, "velocity": 105}, {"time": 2967, "pitch": 69, "duration": 11, "velocity": 105}, {"time": 2970, "pitch": 60, "duration": 2, "velocity": 84}, {"time": 2973, "pitch": 53, "duration": 2, "velocity": 84}, {"time": 2979, "pitch": 50, "duration": 16, "velocity": 94}, {"time": 2979, "pitch": 62, "duration": 10, "velocity": 80}, {"time": 2979, "pitch": 65, "duration": 9, "velocity": 92}, {"time": 2985, "pitch": 57, "duration": 7, "velocity": 78}, {"time": 2991, "pitch": 62, "duration": 4, "velocity": 94}, {"time": 2991, "pitch": 65, "duration": 5, "velocity": 111}, {"time": 2991, "pitch": 69, "duration": 6, "velocity": 105}, {"time": 2994, "pitch": 57, "duration": 3, "velocity": 84}, {"time": 2997, "pitch": 50, "duration": 2, "velocity": 84}, {"time": 3000, "pitch": 62, "duration": 2, "velocity": 92}, {"time": 3003, "pitch": 43, "duration": 19, "velocity": 97}, {"time": 3003, "pitch": 62, "duration": 3, "velocity": 87}, {"time": 3003, "pitch": 70, "duration": 8, "velocity": 72}, {"time": 3006, "pitch": 50, "duration": 10, "velocity": 52}, {"time": 3009, "pitch": 62, "duration": 4, "velocity": 97}, {"time": 3012, "pitch": 67, "duration": 2, "velocity": 100}, {"time": 3015, "pitch": 62, "duration": 11, "velocity": 102}, {"time": 3015, "pitch": 67, "duration": 7, "velocity": 100}, {"time": 3015, "pitch": 70, "duration": 8, "velocity": 109}, {"time": 3021, "pitch": 50, "duration": 3, "velocity": 94}, {"time": 3027, "pitch": 51, "duration": 14, "velocity": 96}, {"time": 3027, "pitch": 63, "duration": 4, "velocity": 85}, {"time": 3027, "pitch": 67, "duration": 4, "velocity": 92}, {"time": 3033, "pitch": 58, "duration": 7, "velocity": 77}, {"time": 3039, "pitch": 63, "duration": 4, "velocity": 96}, {"time": 3039, "pitch": 67, "duration": 5, "velocity": 105}, {"time": 3039, "pitch": 70, "duration": 10, "velocity": 96}, {"time": 3042, "pitch": 58, "duration": 2, "velocity": 99}, {"time": 3045, "pitch": 63, "duration": 2, "velocity": 96}, {"time": 3051, "pitch": 53, "duration": 14, "velocity": 100}, {"time": 3051, "pitch": 65, "duration": 9, "velocity": 87}, {"time": 3051, "pitch": 69, "duration": 9, "velocity": 100}, {"time": 3057, "pitch": 60, "duration": 9, "velocity": 84}, {"time": 3063, "pitch": 65, "duration": 4, "velocity": 100}, {"time": 3063, "pitch": 69, "duration": 5, "velocity": 105}, {"time": 3069, "pitch": 53, "duration": 1, "velocity": 73}, {"time": 3075, "pitch": 43, "duration": 22, "velocity": 92}, {"time": 3075, "pitch": 62, "duration": 8, "velocity": 92}, {"time": 3075, "pitch": 67, "duration": 8, "velocity": 92}, {"time": 3081, "pitch": 50, "duration": 7, "velocity": 53}, {"time": 3087, "pitch": 62, "duration": 10, "velocity": 97}, {"time": 3087, "pitch": 67, "duration": 8, "velocity": 111}, {"time": 3087, "pitch": 70, "duration": 8, "velocity": 102}, {"time": 3093, "pitch": 50, "duration": 5, "velocity": 69}, {"time": 3099, "pitch": 43, "duration": 23, "velocity": 89}, {"time": 3099, "pitch": 62, "duration": 7, "velocity": 71}, {"time": 3099, "pitch": 67, "duration": 8, "velocity": 80}, {"time": 3105, "pitch": 50, "duration": 7, "velocity": 44}, {"time": 3111, "pitch": 62, "duration": 11, "velocity": 87}, {"time": 3111, "pitch": 67, "duration": 11, "velocity": 100}, {"time": 3111, "pitch": 70, "duration": 12, "velocity": 82}, {"time": 3117, "pitch": 50, "duration": 6, "velocity": 67}, {"time": 3123, "pitch": 51, "duration": 15, "velocity": 105}, {"time": 3123, "pitch": 63, "duration": 7, "velocity": 77}, {"time": 3123, "pitch": 67, "duration": 10, "velocity": 84}, {"time": 3129, "pitch": 58, "duration": 7, "velocity": 79}, {"time": 3132, "pitch": 63, "duration": 4, "velocity": 90}, {"time": 3135, "pitch": 70, "duration": 6, "velocity": 102}, {"time": 3138, "pitch": 58, "duration": 3, "velocity": 90}, {"time": 3141, "pitch": 63, "duration": 2, "velocity": 99}, {"time": 3147, "pitch": 53, "duration": 19, "velocity": 102}, {"time": 3147, "pitch": 65, "duration": 10, "velocity": 80}, {"time": 3147, "pitch": 69, "duration": 9, "velocity": 94}, {"time": 3153, "pitch": 60, "duration": 7, "velocity": 92}, {"time": 3159, "pitch": 65, "duration": 6, "velocity": 102}, {"time": 3159, "pitch": 69, "duration": 11, "velocity": 108}, {"time": 3165, "pitch": 60, "duration": 2, "velocity": 100}, {"time": 3171, "pitch": 50, "duration": 17, "velocity": 97}, {"time": 3171, "pitch": 62, "duration": 7, "velocity": 64}, {"time": 3171, "pitch": 65, "duration": 9, "velocity": 94}, {"time": 3177, "pitch": 57, "duration": 7, "velocity": 78}, {"time": 3180, "pitch": 62, "duration": 2, "velocity": 67}, {"time": 3183, "pitch": 62, "duration": 4, "velocity": 100}, {"time": 3183, "pitch": 65, "duration": 4, "velocity": 108}, {"time": 3183, "pitch": 69, "duration": 5, "velocity": 102}, {"time": 3186, "pitch": 57, "duration": 2, "velocity": 94}, {"time": 3189, "pitch": 62, "duration": 5, "velocity": 94}, {"time": 3195, "pitch": 43, "duration": 14, "velocity": 92}, {"time": 3195, "pitch": 62, "duration": 8, "velocity": 82}, {"time": 3195, "pitch": 67, "duration": 7, "velocity": 100}, {"time": 3195, "pitch": 70, "duration": 8, "velocity": 85}, {"time": 3201, "pitch": 50, "duration": 7, "velocity": 50}, {"time": 3207, "pitch": 62, "duration": 4, "velocity": 102}, {"time": 3207, "pitch": 67, "duration": 6, "velocity": 111}, {"time": 3207, "pitch": 70, "duration": 7, "velocity": 105}, {"time": 3213, "pitch": 43, "duration": 1, "velocity": 97}, {"time": 3219, "pitch": 51, "duration": 16, "velocity": 93}, {"time": 3219, "pitch": 63, "duration": 9, "velocity": 87}, {"time": 3219, "pitch": 67, "duration": 8, "velocity": 108}, {"time": 3225, "pitch": 58, "duration": 8, "velocity": 77}, {"time": 3231, "pitch": 63, "duration": 6, "velocity": 96}, {"time": 3231, "pitch": 67, "duration": 6, "velocity": 102}, {"time": 3231, "pitch": 70, "duration": 7, "velocity": 96}, {"time": 3237, "pitch": 58, "duration": 2, "velocity": 96}, {"time": 3243, "pitch": 53, "duration": 17, "velocity": 105}, {"time": 3243, "pitch": 60, "duration": 3, "velocity": 78}, {"time": 3243, "pitch": 65, "duration": 7, "velocity": 92}, {"time": 3249, "pitch": 60, "duration": 4, "velocity": 84}, {"time": 3255, "pitch": 60, "duration": 3, "velocity": 108}, {"time": 3255, "pitch": 65, "duration": 6, "velocity": 111}, {"time": 3255, "pitch": 69, "duration": 7, "velocity": 100}, {"time": 3261, "pitch": 60, "duration": 2, "velocity": 97}, {"time": 3267, "pitch": 46, "duration": 18, "velocity": 105}, {"time": 3267, "pitch": 58, "duration": 15, "velocity": 74}, {"time": 3267, "pitch": 62, "duration": 8, "velocity": 102}, {"time": 3273, "pitch": 53, "duration": 7, "velocity": 80}, {"time": 3279, "pitch": 62, "duration": 6, "velocity": 100}, {"time": 3279, "pitch": 65, "duration": 6, "velocity": 102}, {"time": 3282, "pitch": 53, "duration": 8, "velocity": 82}, {"time": 3285, "pitch": 58, "duration": 5, "velocity": 93}, {"time": 3288, "pitch": 62, "duration": 2, "velocity": 87}, {"time": 3291, "pitch": 46, "duration": 15, "velocity": 105}, {"time": 3291, "pitch": 58, "duration": 10, "velocity": 82}, {"time": 3291, "pitch": 62, "duration": 9, "velocity": 105}, {"time": 3297, "pitch": 53, "duration": 10, "velocity": 67}, {"time": 3303, "pitch": 58, "duration": 4, "velocity": 85}, {"time": 3303, "pitch": 62, "duration": 4, "velocity": 102}, {"time": 3303, "pitch": 65, "duration": 5, "velocity": 105}, {"time": 3309, "pitch": 46, "duration": 1, "velocity": 109}, {"time": 3315, "pitch": 51, "duration": 15, "velocity": 105}, {"time": 3315, "pitch": 63, "duration": 4, "velocity": 87}, {"time": 3315, "pitch": 67, "duration": 5, "velocity": 89}, {"time": 3321, "pitch": 58, "duration": 7, "velocity": 57}, {"time": 3327, "pitch": 63, "duration": 4, "velocity": 99}, {"time": 3327, "pitch": 67, "duration": 5, "velocity": 111}, {"time": 3327, "pitch": 70, "duration": 10, "velocity": 96}, {"time": 3330, "pitch": 58, "duration": 3, "velocity": 87}, {"time": 3333, "pitch": 63, "duration": 3, "velocity": 102}, {"time": 3339, "pitch": 53, "duration": 15, "velocity": 97}, {"time": 3339, "pitch": 65, "duration": 8, "velocity": 73}, {"time": 3339, "pitch": 69, "duration": 8, "velocity": 102}, {"time": 3345, "pitch": 60, "duration": 7, "velocity": 84}, {"time": 3351, "pitch": 65, "duration": 6, "velocity": 105}, {"time": 3351, "pitch": 69, "duration": 11, "velocity": 105}, {"time": 3354, "pitch": 60, "duration": 2, "velocity": 84}, {"time": 3357, "pitch": 53, "duration": 2, "velocity": 84}, {"time": 3363, "pitch": 50, "duration": 16, "velocity": 94}, {"time": 3363, "pitch": 62, "duration": 10, "velocity": 80}, {"time": 3363, "pitch": 65, "duration": 9, "velocity": 92}, {"time": 3369, "pitch": 57, "duration": 7, "velocity": 78}, {"time": 3375, "pitch": 62, "duration": 4, "velocity": 94}, {"time": 3375, "pitch": 65, "duration": 5, "velocity": 111}, {"time": 3375, "pitch": 69, "duration": 6, "velocity": 105}, {"time": 3378, "pitch": 57, "duration": 3, "velocity": 84}, {"time": 3381, "pitch": 50, "duration": 2, "velocity": 84}, {"time": 3384, "pitch": 62, "duration": 2, "velocity": 92}, {"time": 3387, "pitch": 43, "duration": 19, "velocity": 97}, {"time": 3387, "pitch": 62, "duration": 3, "velocity": 87}, {"time": 3387, "pitch": 70, "duration": 8, "velocity": 72}, {"time": 3390, "pitch": 50, "duration": 10, "velocity": 52}, {"time": 3393, "pitch": 62, "duration": 4, "velocity": 97}, {"time": 3396, "pitch": 67, "duration": 2, "velocity": 100}, {"time": 3399, "pitch": 62, "duration": 11, "velocity": 102}, {"time": 3399, "pitch": 67, "duration": 7, "velocity": 100}, {"time": 3399, "pitch": 70, "duration": 8, "velocity": 109}, {"time": 3405, "pitch": 50, "duration": 3, "velocity": 94}, {"time": 3411, "pitch": 51, "duration": 14, "velocity": 96}, {"time": 3411, "pitch": 63, "duration": 4, "velocity": 85}, {"time": 3411, "pitch": 67, "duration": 4, "velocity": 92}, {"time": 3417, "pitch": 58, "duration": 7, "velocity": 77}, {"time": 3423, "pitch": 63, "duration": 4, "velocity": 96}, {"time": 3423, "pitch": 67, "duration": 5, "velocity": 105}, {"time": 3423, "pitch": 70, "duration": 10, "velocity": 96}, {"time": 3426, "pitch": 58, "duration": 2, "velocity": 99}, {"time": 3429, "pitch": 63, "duration": 2, "velocity": 96}, {"time": 3435, "pitch": 53, "duration": 14, "velocity": 100}, {"time": 3435, "pitch": 65, "duration": 9, "velocity": 87}, {"time": 3435, "pitch": 69, "duration": 9, "velocity": 100}, {"time": 3441, "pitch": 60, "duration": 9, "velocity": 84}, {"time": 3447, "pitch": 65, "duration": 4, "velocity": 100}, {"time": 3447, "pitch": 69, "duration": 5, "velocity": 105}, {"time": 3453, "pitch": 53, "duration": 1, "velocity": 73}, {"time": 3459, "pitch": 43, "duration": 22, "velocity": 92}, {"time": 3459, "pitch": 62, "duration": 8, "velocity": 92}, {"time": 3459, "pitch": 67, "duration": 8, "velocity": 92}, {"time": 3465, "pitch": 50, "duration": 7, "velocity": 53}, {"time": 3471, "pitch": 62, "duration": 10, "velocity": 97}, {"time": 3471, "pitch": 67, "duration": 8, "velocity": 111}, {"time": 3471, "pitch": 70, "duration": 8, "velocity": 102}, {"time": 3477, "pitch": 50, "duration": 5, "velocity": 69}, {"time": 3483, "pitch": 43, "duration": 23, "velocity": 89}, {"time": 3483, "pitch": 62, "duration": 7, "velocity": 71}, {"time": 3483, "pitch": 67, "duration": 8, "velocity": 80}, {"time": 3489, "pitch": 50, "duration": 7, "velocity": 44}, {"time": 3495, "pitch": 62, "duration": 11, "velocity": 87}, {"time": 3495, "pitch": 67, "duration": 11, "velocity": 100}, {"time": 3495, "pitch": 70, "duration": 12, "velocity": 82}, {"time": 3501, "pitch": 50, "duration": 6, "velocity": 67}, {"time": 3507, "pitch": 63, "duration": 9, "velocity": 63}, {"time": 3507, "pitch": 51, "duration": 13, "velocity": 93}, {"time": 3507, "pitch": 67, "duration": 9, "velocity": 100}, {"time": 3513, "pitch": 58, "duration": 11, "velocity": 82}, {"time": 3518, "pitch": 63, "duration": 4, "velocity": 93}, {"time": 3519, "pitch": 70, "duration": 4, "velocity": 70}, {"time": 3525, "pitch": 51, "duration": 1, "velocity": 38}, {"time": 3531, "pitch": 69, "duration": 14, "velocity": 89}, {"time": 3531, "pitch": 65, "duration": 13, "velocity": 71}, {"time": 3531, "pitch": 41, "duration": 2, "velocity": 92}, {"time": 3537, "pitch": 53, "duration": 16, "velocity": 84}, {"time": 3544, "pitch": 60, "duration": 9, "velocity": 105}, {"time": 3550, "pitch": 67, "duration": 8, "velocity": 111}, {"time": 3557, "pitch": 65, "duration": 35, "velocity": 60}, {"time": 3557, "pitch": 41, "duration": 23, "velocity": 44}, {"time": 3558, "pitch": 69, "duration": 35, "velocity": 67}, {"time": 3578, "pitch": 55, "duration": 15, "velocity": 45}, {"time": 3579, "pitch": 43, "duration": 40, "velocity": 97}, {"time": 3579, "pitch": 62, "duration": 9, "velocity": 58}, {"time": 3585, "pitch": 50, "duration": 32, "velocity": 52}, {"time": 3592, "pitch": 57, "duration": 4, "velocity": 66}, {"time": 3596, "pitch": 58, "duration": 2, "velocity": 87}, {"time": 3600, "pitch": 62, "duration": 5, "velocity": 87}, {"time": 3604, "pitch": 69, "duration": 5, "velocity": 94}, {"time": 3609, "pitch": 67, "duration": 11, "velocity": 84}, {"time": 3615, "pitch": 70, "duration": 7, "velocity": 87}, {"time": 3625, "pitch": 43, "duration": 40, "velocity": 40}, {"time": 3626, "pitch": 62, "duration": 40, "velocity": 35}, {"time": 3627, "pitch": 50, "duration": 38, "velocity": 62}, {"time": 3628, "pitch": 67, "duration": 38, "velocity": 80}, {"time": 3629, "pitch": 70, "duration": 37, "velocity": 36}], "annotations": [{"time": 52, "annotation": {"number": 64, "value": 127}, "group": "control_change"}, {"time": 75, "annotation": {"number": 64, "value": 0}, "group": "control_change"}, {"time": 80, "annotation": {"number": 64, "value": 127}, "group": "control_change"}, {"time": 98, "annotation": {"number": 64, "value": 0}, "group": "control_change"}, {"time": 104, "annotation": {"number": 64, "value": 127}, "group": "control_change"}, {"time": 124, "annotation": {"number": 64, "value": 0}, "group": "control_change"}, {"time": 128, "annotation": {"number": 64, "value": 127}, "group": "control_change"}, {"time": 148, "annotation": {"number": 64, "value": 0}, "group": "control_change"}, {"time": 154, "annotation": {"number": 64, "value": 127}, "group": "control_change"}, {"time": 170, "annotation": {"number": 64, "value": 0}, "group": "control_change"}, {"time": 172, "annotation": {"number": 64, "value": 127}, "group": "control_change"}, {"time": 194, "annotation": {"number": 64, "value": 0}, "group": "control_change"}, {"time": 197, "annotation": {"number": 64, "value": 127}, "group": "control_change"}, {"time": 219, "annotation": {"number": 64, "value": 0}, "group": "control_change"}, {"time": 222, "annotation": {"number": 64, "value": 127}, "group": "control_change"}, {"time": 242, "annotation": {"number": 64, "value": 0}, "group": "control_change"}, {"time": 245, "annotation": {"number": 64, "value": 127}, "group": "control_change"}, {"time": 267, "annotation": {"number": 64, "value": 0}, "group": "control_change"}, {"time": 273, "annotation": {"number": 64, "value": 127}, "group": "control_change"}, {"time": 291, "annotation": {"number": 64, "value": 0}, "group": "control_change"}, {"time": 297, "annotation": {"number": 64, "value": 127}, "group": "control_change"}, {"time": 314, "annotation": {"number": 64, "value": 0}, "group": "control_change"}, {"time": 320, "annotation": {"number": 64, "value": 127}, "group": "control_change"}, {"time": 339, "annotation": {"number": 64, "value": 0}, "group": "control_change"}, {"time": 345, "annotation": {"number": 64, "value": 127}, "group": "control_change"}, {"time": 362, "annotation": {"number": 64, "value": 0}, "group": "control_change"}, {"time": 370, "annotation": {"number": 64, "value": 127}, "group": "control_change"}, {"time": 386, "annotation": {"number": 64, "value": 0}, "group": "control_change"}, {"time": 394, "annotation": {"number": 64, "value": 127}, "group": "control_change"}, {"time": 410, "annotation": {"number": 64, "value": 0}, "group": "control_change"}, {"time": 415, "annotation": {"number": 64, "value": 127}, "group": "control_change"}, {"time": 433, "annotation": {"number": 64, "value": 0}, "group": "control_change"}, {"time": 441, "annotation": {"number": 64, "value": 127}, "group": "control_change"}, {"time": 458, "annotation": {"number": 64, "value": 0}, "group": "control_change"}, {"time": 464, "annotation": {"number": 64, "value": 127}, "group": "control_change"}, {"time": 484, "annotation": {"number": 64, "value": 0}, "group": "control_change"}, {"time": 490, "annotation": {"number": 64, "value": 127}, "group": "control_change"}, {"time": 508, "annotation": {"number": 64, "value": 0}, "group": "control_change"}, {"time": 513, "annotation": {"number": 64, "value": 127}, "group": "control_change"}, {"time": 531, "annotation": {"number": 64, "value": 0}, "group": "control_change"}, {"time": 539, "annotation": {"number": 64, "value": 127}, "group": "control_change"}, {"time": 555, "annotation": {"number": 64, "value": 0}, "group": "control_change"}, {"time": 561, "annotation": {"number": 64, "value": 127}, "group": "control_change"}, {"time": 578, "annotation": {"number": 64, "value": 0}, "group": "control_change"}, {"time": 586, "annotation": {"number": 64, "value": 127}, "group": "control_change"}, {"time": 603, "annotation": {"number": 64, "value": 0}, "group": "control_change"}, {"time": 607, "annotation": {"number": 64, "value": 127}, "group": "control_change"}, {"time": 624, "annotation": {"number": 64, "value": 0}, "group": "control_change"}, {"time": 633, "annotation": {"number": 64, "value": 127}, "group": "control_change"}, {"time": 650, "annotation": {"number": 64, "value": 0}, "group": "control_change"}, {"time": 656, "annotation": {"number": 64, "value": 127}, "group": "control_change"}, {"time": 676, "annotation": {"number": 64, "value": 0}, "group": "control_change"}, {"time": 682, "annotation": {"number": 64, "value": 127}, "group": "control_change"}, {"time": 700, "annotation": {"number": 64, "value": 0}, "group": "control_change"}, {"time": 705, "annotation": {"number": 64, "value": 127}, "group": "control_change"}, {"time": 723, "annotation": {"number": 64, "value": 0}, "group": "control_change"}, {"time": 731, "annotation": {"number": 64, "value": 127}, "group": "control_change"}, {"time": 747, "annotation": {"number": 64, "value": 0}, "group": "control_change"}, {"time": 753, "annotation": {"number": 64, "value": 127}, "group": "control_change"}, {"time": 770, "annotation": {"number": 64, "value": 0}, "group": "control_change"}, {"time": 778, "annotation": {"number": 64, "value": 127}, "group": "control_change"}, {"time": 795, "annotation": {"number": 64, "value": 0}, "group": "control_change"}, {"time": 799, "annotation": {"number": 64, "value": 127}, "group": "control_change"}, {"time": 816, "annotation": {"number": 64, "value": 0}, "group": "control_change"}, {"time": 826, "annotation": {"number": 64, "value": 127}, "group": "control_change"}, {"time": 843, "annotation": {"number": 64, "value": 0}, "group": "control_change"}, {"time": 848, "annotation": {"number": 64, "value": 127}, "group": "control_change"}, {"time": 866, "annotation": {"number": 64, "value": 0}, "group": "control_change"}, {"time": 873, "annotation": {"number": 64, "value": 127}, "group": "control_change"}, {"time": 890, "annotation": {"number": 64, "value": 0}, "group": "control_change"}, {"time": 894, "annotation": {"number": 64, "value": 127}, "group": "control_change"}, {"time": 915, "annotation": {"number": 64, "value": 0}, "group": "control_change"}, {"time": 921, "annotation": {"number": 64, "value": 127}, "group": "control_change"}, {"time": 939, "annotation": {"number": 64, "value": 0}, "group": "control_change"}, {"time": 945, "annotation": {"number": 64, "value": 127}, "group": "control_change"}, {"time": 963, "annotation": {"number": 64, "value": 0}, "group": "control_change"}, {"time": 969, "annotation": {"number": 64, "value": 127}, "group": "control_change"}, {"time": 988, "annotation": {"number": 64, "value": 0}, "group": "control_change"}, {"time": 993, "annotation": {"number": 64, "value": 127}, "group": "control_change"}, {"time": 1011, "annotation": {"number": 64, "value": 0}, "group": "control_change"}, {"time": 1015, "annotation": {"number": 64, "value": 127}, "group": "control_change"}, {"time": 1036, "annotation": {"number": 64, "value": 0}, "group": "control_change"}, {"time": 1041, "annotation": {"number": 64, "value": 127}, "group": "control_change"}, {"time": 1059, "annotation": {"number": 64, "value": 0}, "group": "control_change"}, {"time": 1066, "annotation": {"number": 64, "value": 127}, "group": "control_change"}, {"time": 1082, "annotation": {"number": 64, "value": 0}, "group": "control_change"}, {"time": 1085, "annotation": {"number": 64, "value": 127}, "group": "control_change"}, {"time": 1107, "annotation": {"number": 64, "value": 0}, "group": "control_change"}, {"time": 1108, "annotation": {"number": 64, "value": 127}, "group": "control_change"}, {"time": 1131, "annotation": {"number": 64, "value": 0}, "group": "control_change"}, {"time": 1137, "annotation": {"number": 64, "value": 127}, "group": "control_change"}, {"time": 1154, "annotation": {"number": 64, "value": 0}, "group": "control_change"}, {"time": 1160, "annotation": {"number": 64, "value": 127}, "group": "control_change"}, {"time": 1178, "annotation": {"number": 64, "value": 0}, "group": "control_change"}, {"time": 1181, "annotation": {"number": 64, "value": 127}, "group": "control_change"}, {"time": 1202, "annotation": {"number": 64, "value": 0}, "group": "control_change"}, {"time": 1210, "annotation": {"number": 64, "value": 127}, "group": "control_change"}, {"time": 1227, "annotation": {"number": 64, "value": 0}, "group": "control_change"}, {"time": 1232, "annotation": {"number": 64, "value": 127}, "group": "control_change"}, {"time": 1250, "annotation": {"number": 64, "value": 0}, "group": "control_change"}, {"time": 1257, "annotation": {"number": 64, "value": 127}, "group": "control_change"}, {"time": 1274, "annotation": {"number": 64, "value": 0}, "group": "control_change"}, {"time": 1278, "annotation": {"number": 64, "value": 127}, "group": "control_change"}, {"time": 1299, "annotation": {"number": 64, "value": 0}, "group": "control_change"}, {"time": 1305, "annotation": {"number": 64, "value": 127}, "group": "control_change"}, {"time": 1323, "annotation": {"number": 64, "value": 0}, "group": "control_change"}, {"time": 1329, "annotation": {"number": 64, "value": 127}, "group": "control_change"}, {"time": 1347, "annotation": {"number": 64, "value": 0}, "group": "control_change"}, {"time": 1353, "annotation": {"number": 64, "value": 127}, "group": "control_change"}, {"time": 1372, "annotation": {"number": 64, "value": 0}, "group": "control_change"}, {"time": 1377, "annotation": {"number": 64, "value": 127}, "group": "control_change"}, {"time": 1395, "annotation": {"number": 64, "value": 0}, "group": "control_change"}, {"time": 1399, "annotation": {"number": 64, "value": 127}, "group": "control_change"}, {"time": 1420, "annotation": {"number": 64, "value": 0}, "group": "control_change"}, {"time": 1425, "annotation": {"number": 64, "value": 127}, "group": "control_change"}, {"time": 1443, "annotation": {"number": 64, "value": 0}, "group": "control_change"}, {"time": 1450, "annotation": {"number": 64, "value": 127}, "group": "control_change"}, {"time": 1466, "annotation": {"number": 64, "value": 0}, "group": "control_change"}, {"time": 1469, "annotation": {"number": 64, "value": 127}, "group": "control_change"}, {"time": 1491, "annotation": {"number": 64, "value": 0}, "group": "control_change"}, {"time": 1492, "annotation": {"number": 64, "value": 127}, "group": "control_change"}, {"time": 1515, "annotation": {"number": 64, "value": 0}, "group": "control_change"}, {"time": 1521, "annotation": {"number": 64, "value": 127}, "group": "control_change"}, {"time": 1538, "annotation": {"number": 64, "value": 0}, "group": "control_change"}, {"time": 1544, "annotation": {"number": 64, "value": 127}, "group": "control_change"}, {"time": 1562, "annotation": {"number": 64, "value": 0}, "group": "control_change"}, {"time": 1565, "annotation": {"number": 64, "value": 127}, "group": "control_change"}, {"time": 1586, "annotation": {"number": 64, "value": 0}, "group": "control_change"}, {"time": 1593, "annotation": {"number": 64, "value": 127}, "group": "control_change"}, {"time": 1610, "annotation": {"number": 64, "value": 0}, "group": "control_change"}, {"time": 1616, "annotation": {"number": 64, "value": 127}, "group": "control_change"}, {"time": 1636, "annotation": {"number": 64, "value": 0}, "group": "control_change"}, {"time": 1642, "annotation": {"number": 64, "value": 127}, "group": "control_change"}, {"time": 1660, "annotation": {"number": 64, "value": 0}, "group": "control_change"}, {"time": 1665, "annotation": {"number": 64, "value": 127}, "group": "control_change"}, {"time": 1683, "annotation": {"number": 64, "value": 0}, "group": "control_change"}, {"time": 1691, "annotation": {"number": 64, "value": 127}, "group": "control_change"}, {"time": 1707, "annotation": {"number": 64, "value": 0}, "group": "control_change"}, {"time": 1713, "annotation": {"number": 64, "value": 127}, "group": "control_change"}, {"time": 1730, "annotation": {"number": 64, "value": 0}, "group": "control_change"}, {"time": 1738, "annotation": {"number": 64, "value": 127}, "group": "control_change"}, {"time": 1755, "annotation": {"number": 64, "value": 0}, "group": "control_change"}, {"time": 1759, "annotation": {"number": 64, "value": 127}, "group": "control_change"}, {"time": 1776, "annotation": {"number": 64, "value": 0}, "group": "control_change"}, {"time": 1785, "annotation": {"number": 64, "value": 127}, "group": "control_change"}, {"time": 1802, "annotation": {"number": 64, "value": 0}, "group": "control_change"}, {"time": 1808, "annotation": {"number": 64, "value": 127}, "group": "control_change"}, {"time": 1828, "annotation": {"number": 64, "value": 0}, "group": "control_change"}, {"time": 1834, "annotation": {"number": 64, "value": 127}, "group": "control_change"}, {"time": 1852, "annotation": {"number": 64, "value": 0}, "group": "control_change"}, {"time": 1857, "annotation": {"number": 64, "value": 127}, "group": "control_change"}, {"time": 1875, "annotation": {"number": 64, "value": 0}, "group": "control_change"}, {"time": 1883, "annotation": {"number": 64, "value": 127}, "group": "control_change"}, {"time": 1899, "annotation": {"number": 64, "value": 0}, "group": "control_change"}, {"time": 1905, "annotation": {"number": 64, "value": 127}, "group": "control_change"}, {"time": 1922, "annotation": {"number": 64, "value": 0}, "group": "control_change"}, {"time": 1930, "annotation": {"number": 64, "value": 127}, "group": "control_change"}, {"time": 1947, "annotation": {"number": 64, "value": 0}, "group": "control_change"}, {"time": 1951, "annotation": {"number": 64, "value": 127}, "group": "control_change"}, {"time": 1968, "annotation": {"number": 64, "value": 0}, "group": "control_change"}, {"time": 1978, "annotation": {"number": 64, "value": 127}, "group": "control_change"}, {"time": 1995, "annotation": {"number": 64, "value": 0}, "group": "control_change"}, {"time": 2000, "annotation": {"number": 64, "value": 127}, "group": "control_change"}, {"time": 2018, "annotation": {"number": 64, "value": 0}, "group": "control_change"}, {"time": 2025, "annotation": {"number": 64, "value": 127}, "group": "control_change"}, {"time": 2042, "annotation": {"number": 64, "value": 0}, "group": "control_change"}, {"time": 2046, "annotation": {"number": 64, "value": 127}, "group": "control_change"}, {"time": 2067, "annotation": {"number": 64, "value": 0}, "group": "control_change"}, {"time": 2073, "annotation": {"number": 64, "value": 127}, "group": "control_change"}, {"time": 2091, "annotation": {"number": 64, "value": 0}, "group": "control_change"}, {"time": 2097, "annotation": {"number": 64, "value": 127}, "group": "control_change"}, {"time": 2115, "annotation": {"number": 64, "value": 0}, "group": "control_change"}, {"time": 2121, "annotation": {"number": 64, "value": 127}, "group": "control_change"}, {"time": 2140, "annotation": {"number": 64, "value": 0}, "group": "control_change"}, {"time": 2145, "annotation": {"number": 64, "value": 127}, "group": "control_change"}, {"time": 2163, "annotation": {"number": 64, "value": 0}, "group": "control_change"}, {"time": 2167, "annotation": {"number": 64, "value": 127}, "group": "control_change"}, {"time": 2188, "annotation": {"number": 64, "value": 0}, "group": "control_change"}, {"time": 2193, "annotation": {"number": 64, "value": 127}, "group": "control_change"}, {"time": 2211, "annotation": {"number": 64, "value": 0}, "group": "control_change"}, {"time": 2218, "annotation": {"number": 64, "value": 127}, "group": "control_change"}, {"time": 2234, "annotation": {"number": 64, "value": 0}, "group": "control_change"}, {"time": 2237, "annotation": {"number": 64, "value": 127}, "group": "control_change"}, {"time": 2259, "annotation": {"number": 64, "value": 0}, "group": "control_change"}, {"time": 2260, "annotation": {"number": 64, "value": 127}, "group": "control_change"}, {"time": 2283, "annotation": {"number": 64, "value": 0}, "group": "control_change"}, {"time": 2289, "annotation": {"number": 64, "value": 127}, "group": "control_change"}, {"time": 2306, "annotation": {"number": 64, "value": 0}, "group": "control_change"}, {"time": 2312, "annotation": {"number": 64, "value": 127}, "group": "control_change"}, {"time": 2330, "annotation": {"number": 64, "value": 0}, "group": "control_change"}, {"time": 2333, "annotation": {"number": 64, "value": 127}, "group": "control_change"}, {"time": 2354, "annotation": {"number": 64, "value": 0}, "group": "control_change"}, {"time": 2362, "annotation": {"number": 64, "value": 127}, "group": "control_change"}, {"time": 2379, "annotation": {"number": 64, "value": 0}, "group": "control_change"}, {"time": 2384, "annotation": {"number": 64, "value": 127}, "group": "control_change"}, {"time": 2402, "annotation": {"number": 64, "value": 0}, "group": "control_change"}, {"time": 2409, "annotation": {"number": 64, "value": 127}, "group": "control_change"}, {"time": 2426, "annotation": {"number": 64, "value": 0}, "group": "control_change"}, {"time": 2430, "annotation": {"number": 64, "value": 127}, "group": "control_change"}, {"time": 2451, "annotation": {"number": 64, "value": 0}, "group": "control_change"}, {"time": 2457, "annotation": {"number": 64, "value": 127}, "group": "control_change"}, {"time": 2475, "annotation": {"number": 64, "value": 0}, "group": "control_change"}, {"time": 2481, "annotation": {"number": 64, "value": 127}, "group": "control_change"}, {"time": 2499, "annotation": {"number": 64, "value": 0}, "group": "control_change"}, {"time": 2505, "annotation": {"number": 64, "value": 127}, "group": "control_change"}, {"time": 2524, "annotation": {"number": 64, "value": 0}, "group": "control_change"}, {"time": 2529, "annotation": {"number": 64, "value": 127}, "group": "control_change"}, {"time": 2547, "annotation": {"number": 64, "value": 0}, "group": "control_change"}, {"time": 2551, "annotation": {"number": 64, "value": 127}, "group": "control_change"}, {"time": 2572, "annotation": {"number": 64, "value": 0}, "group": "control_change"}, {"time": 2577, "annotation": {"number": 64, "value": 127}, "group": "control_change"}, {"time": 2595, "annotation": {"number": 64, "value": 0}, "group": "control_change"}, {"time": 2602, "annotation": {"number": 64, "value": 127}, "group": "control_change"}, {"time": 2618, "annotation": {"number": 64, "value": 0}, "group": "control_change"}, {"time": 2621, "annotation": {"number": 64, "value": 127}, "group": "control_change"}, {"time": 2643, "annotation": {"number": 64, "value": 0}, "group": "control_change"}, {"time": 2644, "annotation": {"number": 64, "value": 127}, "group": "control_change"}, {"time": 2667, "annotation": {"number": 64, "value": 0}, "group": "control_change"}, {"time": 2673, "annotation": {"number": 64, "value": 127}, "group": "control_change"}, {"time": 2690, "annotation": {"number": 64, "value": 0}, "group": "control_change"}, {"time": 2696, "annotation": {"number": 64, "value": 127}, "group": "control_change"}, {"time": 2714, "annotation": {"number": 64, "value": 0}, "group": "control_change"}, {"time": 2717, "annotation": {"number": 64, "value": 127}, "group": "control_change"}, {"time": 2738, "annotation": {"number": 64, "value": 0}, "group": "control_change"}, {"time": 2746, "annotation": {"number": 64, "value": 127}, "group": "control_change"}, {"time": 2763, "annotation": {"number": 64, "value": 0}, "group": "control_change"}, {"time": 2768, "annotation": {"number": 64, "value": 127}, "group": "control_change"}, {"time": 2786, "annotation": {"number": 64, "value": 0}, "group": "control_change"}, {"time": 2793, "annotation": {"number": 64, "value": 127}, "group": "control_change"}, {"time": 2810, "annotation": {"number": 64, "value": 0}, "group": "control_change"}, {"time": 2814, "annotation": {"number": 64, "value": 127}, "group": "control_change"}, {"time": 2835, "annotation": {"number": 64, "value": 0}, "group": "control_change"}, {"time": 2841, "annotation": {"number": 64, "value": 127}, "group": "control_change"}, {"time": 2859, "annotation": {"number": 64, "value": 0}, "group": "control_change"}, {"time": 2865, "annotation": {"number": 64, "value": 127}, "group": "control_change"}, {"time": 2883, "annotation": {"number": 64, "value": 0}, "group": "control_change"}, {"time": 2889, "annotation": {"number": 64, "value": 127}, "group": "control_change"}, {"time": 2908, "annotation": {"number": 64, "value": 0}, "group": "control_change"}, {"time": 2913, "annotation": {"number": 64, "value": 127}, "group": "control_change"}, {"time": 2931, "annotation": {"number": 64, "value": 0}, "group": "control_change"}, {"time": 2935, "annotation": {"number": 64, "value": 127}, "group": "control_change"}, {"time": 2956, "annotation": {"number": 64, "value": 0}, "group": "control_change"}, {"time": 2961, "annotation": {"number": 64, "value": 127}, "group": "control_change"}, {"time": 2979, "annotation": {"number": 64, "value": 0}, "group": "control_change"}, {"time": 2986, "annotation": {"number": 64, "value": 127}, "group": "control_change"}, {"time": 3002, "annotation": {"number": 64, "value": 0}, "group": "control_change"}, {"time": 3005, "annotation": {"number": 64, "value": 127}, "group": "control_change"}, {"time": 3027, "annotation": {"number": 64, "value": 0}, "group": "control_change"}, {"time": 3028, "annotation": {"number": 64, "value": 127}, "group": "control_change"}, {"time": 3051, "annotation": {"number": 64, "value": 0}, "group": "control_change"}, {"time": 3057, "annotation": {"number": 64, "value": 127}, "group": "control_change"}, {"time": 3074, "annotation": {"number": 64, "value": 0}, "group": "control_change"}, {"time": 3080, "annotation": {"number": 64, "value": 127}, "group": "control_change"}, {"time": 3098, "annotation": {"number": 64, "value": 0}, "group": "control_change"}, {"time": 3101, "annotation": {"number": 64, "value": 127}, "group": "control_change"}, {"time": 3122, "annotation": {"number": 64, "value": 0}, "group": "control_change"}, {"time": 3130, "annotation": {"number": 64, "value": 127}, "group": "control_change"}, {"time": 3147, "annotation": {"number": 64, "value": 0}, "group": "control_change"}, {"time": 3152, "annotation": {"number": 64, "value": 127}, "group": "control_change"}, {"time": 3170, "annotation": {"number": 64, "value": 0}, "group": "control_change"}, {"time": 3177, "annotation": {"number": 64, "value": 127}, "group": "control_change"}, {"time": 3194, "annotation": {"number": 64, "value": 0}, "group": "control_change"}, {"time": 3198, "annotation": {"number": 64, "value": 127}, "group": "control_change"}, {"time": 3219, "annotation": {"number": 64, "value": 0}, "group": "control_change"}, {"time": 3225, "annotation": {"number": 64, "value": 127}, "group": "control_change"}, {"time": 3243, "annotation": {"number": 64, "value": 0}, "group": "control_change"}, {"time": 3249, "annotation": {"number": 64, "value": 127}, "group": "control_change"}, {"time": 3267, "annotation": {"number": 64, "value": 0}, "group": "control_change"}, {"time": 3273, "annotation": {"number": 64, "value": 127}, "group": "control_change"}, {"time": 3292, "annotation": {"number": 64, "value": 0}, "group": "control_change"}, {"time": 3297, "annotation": {"number": 64, "value": 127}, "group": "control_change"}, {"time": 3315, "annotation": {"number": 64, "value": 0}, "group": "control_change"}, {"time": 3319, "annotation": {"number": 64, "value": 127}, "group": "control_change"}, {"time": 3340, "annotation": {"number": 64, "value": 0}, "group": "control_change"}, {"time": 3345, "annotation": {"number": 64, "value": 127}, "group": "control_change"}, {"time": 3363, "annotation": {"number": 64, "value": 0}, "group": "control_change"}, {"time": 3370, "annotation": {"number": 64, "value": 127}, "group": "control_change"}, {"time": 3386, "annotation": {"number": 64, "value": 0}, "group": "control_change"}, {"time": 3389, "annotation": {"number": 64, "value": 127}, "group": "control_change"}, {"time": 3411, "annotation": {"number": 64, "value": 0}, "group": "control_change"}, {"time": 3412, "annotation": {"number": 64, "value": 127}, "group": "control_change"}, {"time": 3435, "annotation": {"number": 64, "value": 0}, "group": "control_change"}, {"time": 3441, "annotation": {"number": 64, "value": 127}, "group": "control_change"}, {"time": 3458, "annotation": {"number": 64, "value": 0}, "group": "control_change"}, {"time": 3464, "annotation": {"number": 64, "value": 127}, "group": "control_change"}, {"time": 3482, "annotation": {"number": 64, "value": 0}, "group": "control_change"}, {"time": 3485, "annotation": {"number": 64, "value": 127}, "group": "control_change"}, {"time": 3506, "annotation": {"number": 64, "value": 0}, "group": "control_change"}, {"time": 3514, "annotation": {"number": 64, "value": 127}, "group": "control_change"}, {"time": 3530, "annotation": {"number": 64, "value": 0}, "group": "control_change"}, {"time": 3533, "annotation": {"number": 64, "value": 127}, "group": "control_change"}, {"time": 3558, "annotation": {"number": 64, "value": 0}, "group": "control_change"}, {"time": 3563, "annotation": {"number": 64, "value": 127}, "group": "control_change"}, {"time": 3588, "annotation": {"number": 64, "value": 127}, "group": "control_change"}, {"time": 3628, "annotation": {"number": 64, "value": 0}, "group": "control_change"}]}]}