{"metadata": {"schema_version": "0.2", "title": "None", "source_filename": "018.mid", "source_format": "midi"}, "resolution": 12, "tempos": [{"time": 0, "qpm": 71.00011951686785}, {"time": 455, "qpm": 70.00007000007}, {"time": 551, "qpm": 71.00011951686785}, {"time": 699, "qpm": 70.00007000007}, {"time": 860, "qpm": 71.00011951686785}, {"time": 1226, "qpm": 70.00007000007}, {"time": 1296, "qpm": 71.00011951686785}, {"time": 1369, "qpm": 70.00007000007}, {"time": 1465, "qpm": 71.00011951686785}, {"time": 1772, "qpm": 70.00007000007}, {"time": 1958, "qpm": 71.00011951686785}, {"time": 2218, "qpm": 70.00007000007}, {"time": 2320, "qpm": 70.75021166104989}, {"time": 2400, "qpm": 71.00011951686785}, {"time": 2634, "qpm": 70.00007000007}, {"time": 2704, "qpm": 71.00011951686785}, {"time": 2776, "qpm": 70.00007000007}, {"time": 2873, "qpm": 71.00011951686785}], "time_signatures": [{"time": 0, "numerator": 2, "denominator": 4}], "tracks": [{"program": 0, "is_drum": false, "name": "MELODY", "notes": [{"time": 408, "pitch": 66, "duration": 4, "velocity": 115}, {"time": 414, "pitch": 73, "duration": 15, "velocity": 112}, {"time": 432, "pitch": 71, "duration": 2, "velocity": 112}, {"time": 435, "pitch": 69, "duration": 2, "velocity": 120}, {"time": 438, "pitch": 68, "duration": 4, "velocity": 109}, {"time": 444, "pitch": 69, "duration": 4, "velocity": 120}, {"time": 450, "pitch": 68, "duration": 5, "velocity": 115}, {"time": 456, "pitch": 64, "duration": 5, "velocity": 115}, {"time": 462, "pitch": 66, "duration": 37, "velocity": 112}, {"time": 504, "pitch": 66, "duration": 4, "velocity": 112}, {"time": 510, "pitch": 69, "duration": 14, "velocity": 120}, {"time": 528, "pitch": 66, "duration": 2, "velocity": 112}, {"time": 531, "pitch": 69, "duration": 1, "velocity": 117}, {"time": 534, "pitch": 71, "duration": 4, "velocity": 109}, {"time": 540, "pitch": 71, "duration": 3, "velocity": 109}, {"time": 546, "pitch": 73, "duration": 2, "velocity": 112}, {"time": 549, "pitch": 74, "duration": 2, "velocity": 113}, {"time": 552, "pitch": 73, "duration": 3, "velocity": 109}, {"time": 555, "pitch": 71, "duration": 1, "velocity": 106}, {"time": 558, "pitch": 73, "duration": 36, "velocity": 115}, {"time": 600, "pitch": 73, "duration": 2, "velocity": 109}, {"time": 603, "pitch": 76, "duration": 2, "velocity": 112}, {"time": 606, "pitch": 78, "duration": 15, "velocity": 112}, {"time": 624, "pitch": 76, "duration": 2, "velocity": 118}, {"time": 627, "pitch": 73, "duration": 2, "velocity": 112}, {"time": 630, "pitch": 71, "duration": 16, "velocity": 101}, {"time": 648, "pitch": 69, "duration": 2, "velocity": 117}, {"time": 651, "pitch": 71, "duration": 1, "velocity": 106}, {"time": 654, "pitch": 73, "duration": 14, "velocity": 112}, {"time": 672, "pitch": 71, "duration": 1, "velocity": 106}, {"time": 675, "pitch": 73, "duration": 2, "velocity": 106}, {"time": 678, "pitch": 66, "duration": 19, "velocity": 109}, {"time": 702, "pitch": 68, "duration": 4, "velocity": 109}, {"time": 708, "pitch": 66, "duration": 4, "velocity": 109}, {"time": 714, "pitch": 64, "duration": 3, "velocity": 115}, {"time": 720, "pitch": 68, "duration": 9, "velocity": 112}, {"time": 732, "pitch": 64, "duration": 2, "velocity": 112}, {"time": 735, "pitch": 61, "duration": 2, "velocity": 109}, {"time": 738, "pitch": 69, "duration": 4, "velocity": 117}, {"time": 744, "pitch": 68, "duration": 4, "velocity": 106}, {"time": 750, "pitch": 66, "duration": 37, "velocity": 112}, {"time": 792, "pitch": 66, "duration": 4, "velocity": 115}, {"time": 798, "pitch": 73, "duration": 15, "velocity": 112}, {"time": 816, "pitch": 71, "duration": 2, "velocity": 112}, {"time": 819, "pitch": 69, "duration": 2, "velocity": 120}, {"time": 822, "pitch": 68, "duration": 4, "velocity": 109}, {"time": 828, "pitch": 69, "duration": 4, "velocity": 120}, {"time": 834, "pitch": 68, "duration": 5, "velocity": 115}, {"time": 840, "pitch": 64, "duration": 5, "velocity": 115}, {"time": 846, "pitch": 66, "duration": 37, "velocity": 112}, {"time": 888, "pitch": 66, "duration": 4, "velocity": 112}, {"time": 894, "pitch": 69, "duration": 14, "velocity": 120}, {"time": 912, "pitch": 66, "duration": 2, "velocity": 112}, {"time": 915, "pitch": 69, "duration": 1, "velocity": 117}, {"time": 918, "pitch": 71, "duration": 4, "velocity": 109}, {"time": 924, "pitch": 71, "duration": 3, "velocity": 109}, {"time": 930, "pitch": 73, "duration": 2, "velocity": 112}, {"time": 933, "pitch": 74, "duration": 2, "velocity": 113}, {"time": 936, "pitch": 73, "duration": 3, "velocity": 109}, {"time": 939, "pitch": 71, "duration": 1, "velocity": 106}, {"time": 942, "pitch": 73, "duration": 36, "velocity": 115}, {"time": 984, "pitch": 73, "duration": 2, "velocity": 109}, {"time": 987, "pitch": 76, "duration": 2, "velocity": 112}, {"time": 990, "pitch": 78, "duration": 15, "velocity": 112}, {"time": 1008, "pitch": 76, "duration": 2, "velocity": 118}, {"time": 1011, "pitch": 73, "duration": 2, "velocity": 112}, {"time": 1014, "pitch": 71, "duration": 16, "velocity": 101}, {"time": 1032, "pitch": 69, "duration": 2, "velocity": 117}, {"time": 1035, "pitch": 71, "duration": 1, "velocity": 106}, {"time": 1038, "pitch": 73, "duration": 14, "velocity": 112}, {"time": 1056, "pitch": 71, "duration": 1, "velocity": 106}, {"time": 1059, "pitch": 73, "duration": 2, "velocity": 106}, {"time": 1062, "pitch": 66, "duration": 19, "velocity": 109}, {"time": 1086, "pitch": 68, "duration": 4, "velocity": 109}, {"time": 1092, "pitch": 66, "duration": 4, "velocity": 109}, {"time": 1098, "pitch": 64, "duration": 3, "velocity": 115}, {"time": 1104, "pitch": 68, "duration": 9, "velocity": 112}, {"time": 1116, "pitch": 64, "duration": 2, "velocity": 112}, {"time": 1119, "pitch": 61, "duration": 2, "velocity": 109}, {"time": 1122, "pitch": 69, "duration": 4, "velocity": 117}, {"time": 1128, "pitch": 68, "duration": 4, "velocity": 106}, {"time": 1134, "pitch": 66, "duration": 37, "velocity": 112}, {"time": 1182, "pitch": 66, "duration": 5, "velocity": 115}, {"time": 1188, "pitch": 78, "duration": 10, "velocity": 112}, {"time": 1200, "pitch": 78, "duration": 4, "velocity": 115}, {"time": 1206, "pitch": 73, "duration": 2, "velocity": 112}, {"time": 1209, "pitch": 76, "duration": 2, "velocity": 112}, {"time": 1212, "pitch": 73, "duration": 2, "velocity": 118}, {"time": 1215, "pitch": 76, "duration": 2, "velocity": 115}, {"time": 1218, "pitch": 78, "duration": 8, "velocity": 115}, {"time": 1230, "pitch": 76, "duration": 4, "velocity": 115}, {"time": 1236, "pitch": 71, "duration": 5, "velocity": 112}, {"time": 1242, "pitch": 71, "duration": 4, "velocity": 112}, {"time": 1248, "pitch": 76, "duration": 4, "velocity": 118}, {"time": 1254, "pitch": 73, "duration": 2, "velocity": 115}, {"time": 1257, "pitch": 71, "duration": 1, "velocity": 104}, {"time": 1260, "pitch": 73, "duration": 13, "velocity": 109}, {"time": 1278, "pitch": 69, "duration": 4, "velocity": 123}, {"time": 1284, "pitch": 66, "duration": 15, "velocity": 115}, {"time": 1302, "pitch": 69, "duration": 5, "velocity": 117}, {"time": 1308, "pitch": 66, "duration": 9, "velocity": 112}, {"time": 1320, "pitch": 78, "duration": 3, "velocity": 115}, {"time": 1326, "pitch": 73, "duration": 2, "velocity": 115}, {"time": 1329, "pitch": 71, "duration": 1, "velocity": 106}, {"time": 1332, "pitch": 73, "duration": 26, "velocity": 115}, {"time": 1374, "pitch": 66, "duration": 5, "velocity": 115}, {"time": 1380, "pitch": 78, "duration": 10, "velocity": 112}, {"time": 1392, "pitch": 78, "duration": 4, "velocity": 115}, {"time": 1398, "pitch": 73, "duration": 2, "velocity": 112}, {"time": 1401, "pitch": 76, "duration": 2, "velocity": 112}, {"time": 1404, "pitch": 73, "duration": 2, "velocity": 118}, {"time": 1407, "pitch": 76, "duration": 2, "velocity": 115}, {"time": 1410, "pitch": 78, "duration": 8, "velocity": 115}, {"time": 1422, "pitch": 76, "duration": 4, "velocity": 115}, {"time": 1428, "pitch": 71, "duration": 5, "velocity": 112}, {"time": 1434, "pitch": 71, "duration": 4, "velocity": 112}, {"time": 1440, "pitch": 76, "duration": 4, "velocity": 118}, {"time": 1446, "pitch": 73, "duration": 2, "velocity": 115}, {"time": 1449, "pitch": 71, "duration": 1, "velocity": 104}, {"time": 1452, "pitch": 73, "duration": 13, "velocity": 109}, {"time": 1470, "pitch": 69, "duration": 4, "velocity": 123}, {"time": 1476, "pitch": 66, "duration": 15, "velocity": 115}, {"time": 1494, "pitch": 73, "duration": 2, "velocity": 109}, {"time": 1497, "pitch": 71, "duration": 2, "velocity": 96}, {"time": 1500, "pitch": 73, "duration": 9, "velocity": 109}, {"time": 1512, "pitch": 78, "duration": 3, "velocity": 115}, {"time": 1518, "pitch": 73, "duration": 2, "velocity": 115}, {"time": 1521, "pitch": 71, "duration": 1, "velocity": 106}, {"time": 1524, "pitch": 73, "duration": 26, "velocity": 115}, {"time": 1566, "pitch": 66, "duration": 5, "velocity": 115}, {"time": 1572, "pitch": 78, "duration": 10, "velocity": 112}, {"time": 1584, "pitch": 78, "duration": 4, "velocity": 115}, {"time": 1590, "pitch": 73, "duration": 2, "velocity": 112}, {"time": 1593, "pitch": 76, "duration": 2, "velocity": 112}, {"time": 1596, "pitch": 73, "duration": 2, "velocity": 118}, {"time": 1599, "pitch": 76, "duration": 2, "velocity": 115}, {"time": 1602, "pitch": 78, "duration": 8, "velocity": 115}, {"time": 1614, "pitch": 76, "duration": 4, "velocity": 115}, {"time": 1620, "pitch": 71, "duration": 5, "velocity": 112}, {"time": 1626, "pitch": 71, "duration": 4, "velocity": 112}, {"time": 1632, "pitch": 76, "duration": 4, "velocity": 118}, {"time": 1638, "pitch": 73, "duration": 2, "velocity": 115}, {"time": 1641, "pitch": 71, "duration": 1, "velocity": 104}, {"time": 1644, "pitch": 73, "duration": 13, "velocity": 109}, {"time": 1662, "pitch": 69, "duration": 4, "velocity": 123}, {"time": 1668, "pitch": 66, "duration": 24, "velocity": 115}, {"time": 1710, "pitch": 73, "duration": 2, "velocity": 115}, {"time": 1713, "pitch": 71, "duration": 1, "velocity": 106}, {"time": 1716, "pitch": 73, "duration": 26, "velocity": 115}, {"time": 1782, "pitch": 73, "duration": 6, "velocity": 115}, {"time": 1788, "pitch": 76, "duration": 16, "velocity": 115}, {"time": 1806, "pitch": 64, "duration": 4, "velocity": 112}, {"time": 1812, "pitch": 66, "duration": 40, "velocity": 112}, {"time": 2238, "pitch": 66, "duration": 5, "velocity": 115}, {"time": 2244, "pitch": 78, "duration": 10, "velocity": 112}, {"time": 2256, "pitch": 78, "duration": 4, "velocity": 115}, {"time": 2262, "pitch": 73, "duration": 2, "velocity": 112}, {"time": 2265, "pitch": 76, "duration": 2, "velocity": 112}, {"time": 2268, "pitch": 73, "duration": 2, "velocity": 118}, {"time": 2271, "pitch": 76, "duration": 2, "velocity": 115}, {"time": 2274, "pitch": 78, "duration": 8, "velocity": 115}, {"time": 2286, "pitch": 76, "duration": 4, "velocity": 115}, {"time": 2292, "pitch": 71, "duration": 5, "velocity": 112}, {"time": 2298, "pitch": 71, "duration": 4, "velocity": 112}, {"time": 2304, "pitch": 76, "duration": 4, "velocity": 118}, {"time": 2310, "pitch": 73, "duration": 2, "velocity": 115}, {"time": 2313, "pitch": 71, "duration": 1, "velocity": 104}, {"time": 2316, "pitch": 73, "duration": 13, "velocity": 109}, {"time": 2334, "pitch": 69, "duration": 4, "velocity": 123}, {"time": 2340, "pitch": 66, "duration": 15, "velocity": 115}, {"time": 2358, "pitch": 69, "duration": 5, "velocity": 117}, {"time": 2364, "pitch": 66, "duration": 9, "velocity": 112}, {"time": 2376, "pitch": 78, "duration": 3, "velocity": 115}, {"time": 2382, "pitch": 73, "duration": 2, "velocity": 115}, {"time": 2385, "pitch": 71, "duration": 1, "velocity": 106}, {"time": 2388, "pitch": 73, "duration": 26, "velocity": 115}, {"time": 2430, "pitch": 66, "duration": 5, "velocity": 115}, {"time": 2436, "pitch": 78, "duration": 10, "velocity": 112}, {"time": 2448, "pitch": 78, "duration": 4, "velocity": 115}, {"time": 2454, "pitch": 73, "duration": 2, "velocity": 112}, {"time": 2457, "pitch": 76, "duration": 2, "velocity": 112}, {"time": 2460, "pitch": 73, "duration": 2, "velocity": 118}, {"time": 2463, "pitch": 76, "duration": 2, "velocity": 115}, {"time": 2466, "pitch": 78, "duration": 8, "velocity": 115}, {"time": 2478, "pitch": 76, "duration": 4, "velocity": 115}, {"time": 2484, "pitch": 71, "duration": 5, "velocity": 112}, {"time": 2490, "pitch": 71, "duration": 4, "velocity": 112}, {"time": 2496, "pitch": 76, "duration": 4, "velocity": 118}, {"time": 2502, "pitch": 73, "duration": 2, "velocity": 115}, {"time": 2505, "pitch": 71, "duration": 1, "velocity": 104}, {"time": 2508, "pitch": 73, "duration": 13, "velocity": 109}, {"time": 2526, "pitch": 69, "duration": 4, "velocity": 123}, {"time": 2532, "pitch": 66, "duration": 15, "velocity": 115}, {"time": 2550, "pitch": 73, "duration": 2, "velocity": 109}, {"time": 2553, "pitch": 71, "duration": 2, "velocity": 96}, {"time": 2556, "pitch": 73, "duration": 9, "velocity": 109}, {"time": 2568, "pitch": 78, "duration": 3, "velocity": 115}, {"time": 2574, "pitch": 73, "duration": 2, "velocity": 115}, {"time": 2577, "pitch": 71, "duration": 1, "velocity": 106}, {"time": 2580, "pitch": 73, "duration": 26, "velocity": 115}, {"time": 2622, "pitch": 66, "duration": 5, "velocity": 115}, {"time": 2628, "pitch": 78, "duration": 10, "velocity": 112}, {"time": 2640, "pitch": 78, "duration": 4, "velocity": 115}, {"time": 2646, "pitch": 73, "duration": 2, "velocity": 112}, {"time": 2649, "pitch": 76, "duration": 2, "velocity": 112}, {"time": 2652, "pitch": 73, "duration": 2, "velocity": 118}, {"time": 2655, "pitch": 76, "duration": 2, "velocity": 115}, {"time": 2658, "pitch": 78, "duration": 8, "velocity": 115}, {"time": 2670, "pitch": 76, "duration": 4, "velocity": 115}, {"time": 2676, "pitch": 71, "duration": 5, "velocity": 112}, {"time": 2682, "pitch": 71, "duration": 4, "velocity": 112}, {"time": 2688, "pitch": 76, "duration": 4, "velocity": 118}, {"time": 2694, "pitch": 73, "duration": 2, "velocity": 115}, {"time": 2697, "pitch": 71, "duration": 1, "velocity": 104}, {"time": 2700, "pitch": 73, "duration": 13, "velocity": 109}, {"time": 2718, "pitch": 69, "duration": 4, "velocity": 123}, {"time": 2724, "pitch": 66, "duration": 24, "velocity": 115}, {"time": 2766, "pitch": 73, "duration": 2, "velocity": 115}, {"time": 2769, "pitch": 71, "duration": 1, "velocity": 106}, {"time": 2772, "pitch": 73, "duration": 26, "velocity": 115}, {"time": 2838, "pitch": 73, "duration": 6, "velocity": 115}, {"time": 2844, "pitch": 76, "duration": 16, "velocity": 115}, {"time": 2862, "pitch": 64, "duration": 4, "velocity": 112}, {"time": 2868, "pitch": 66, "duration": 40, "velocity": 112}]}, {"program": 0, "is_drum": false, "name": "PIANO", "notes": [{"time": 28, "pitch": 54, "duration": 41, "velocity": 74}, {"time": 29, "pitch": 57, "duration": 39, "velocity": 88}, {"time": 30, "pitch": 61, "duration": 38, "velocity": 101}, {"time": 30, "pitch": 42, "duration": 40, "velocity": 104}, {"time": 31, "pitch": 66, "duration": 37, "velocity": 96}, {"time": 77, "pitch": 52, "duration": 9, "velocity": 58}, {"time": 77, "pitch": 57, "duration": 9, "velocity": 101}, {"time": 78, "pitch": 45, "duration": 36, "velocity": 101}, {"time": 78, "pitch": 61, "duration": 10, "velocity": 94}, {"time": 124, "pitch": 59, "duration": 27, "velocity": 85}, {"time": 125, "pitch": 62, "duration": 26, "velocity": 93}, {"time": 126, "pitch": 66, "duration": 25, "velocity": 101}, {"time": 126, "pitch": 47, "duration": 23, "velocity": 101}, {"time": 127, "pitch": 71, "duration": 23, "velocity": 74}, {"time": 172, "pitch": 54, "duration": 36, "velocity": 64}, {"time": 173, "pitch": 57, "duration": 35, "velocity": 99}, {"time": 174, "pitch": 61, "duration": 34, "velocity": 104}, {"time": 174, "pitch": 42, "duration": 29, "velocity": 106}, {"time": 174, "pitch": 66, "duration": 34, "velocity": 87}, {"time": 222, "pitch": 42, "duration": 26, "velocity": 104}, {"time": 222, "pitch": 54, "duration": 8, "velocity": 44}, {"time": 222, "pitch": 57, "duration": 8, "velocity": 99}, {"time": 222, "pitch": 61, "duration": 8, "velocity": 87}, {"time": 228, "pitch": 49, "duration": 7, "velocity": 55}, {"time": 234, "pitch": 57, "duration": 4, "velocity": 107}, {"time": 234, "pitch": 61, "duration": 4, "velocity": 106}, {"time": 246, "pitch": 57, "duration": 6, "velocity": 107}, {"time": 246, "pitch": 61, "duration": 7, "velocity": 104}, {"time": 252, "pitch": 42, "duration": 9, "velocity": 51}, {"time": 252, "pitch": 49, "duration": 8, "velocity": 73}, {"time": 258, "pitch": 57, "duration": 6, "velocity": 117}, {"time": 258, "pitch": 61, "duration": 7, "velocity": 112}, {"time": 258, "pitch": 66, "duration": 5, "velocity": 104}, {"time": 264, "pitch": 54, "duration": 1, "velocity": 99}, {"time": 270, "pitch": 45, "duration": 19, "velocity": 101}, {"time": 270, "pitch": 57, "duration": 12, "velocity": 99}, {"time": 270, "pitch": 61, "duration": 8, "velocity": 104}, {"time": 276, "pitch": 52, "duration": 8, "velocity": 69}, {"time": 282, "pitch": 61, "duration": 5, "velocity": 109}, {"time": 282, "pitch": 64, "duration": 4, "velocity": 106}, {"time": 288, "pitch": 57, "duration": 3, "velocity": 83}, {"time": 294, "pitch": 45, "duration": 14, "velocity": 63}, {"time": 294, "pitch": 52, "duration": 15, "velocity": 76}, {"time": 294, "pitch": 57, "duration": 4, "velocity": 79}, {"time": 294, "pitch": 61, "duration": 6, "velocity": 101}, {"time": 306, "pitch": 57, "duration": 3, "velocity": 110}, {"time": 306, "pitch": 61, "duration": 3, "velocity": 109}, {"time": 306, "pitch": 64, "duration": 4, "velocity": 109}, {"time": 312, "pitch": 45, "duration": 1, "velocity": 101}, {"time": 318, "pitch": 47, "duration": 16, "velocity": 96}, {"time": 318, "pitch": 59, "duration": 9, "velocity": 87}, {"time": 318, "pitch": 62, "duration": 8, "velocity": 107}, {"time": 324, "pitch": 54, "duration": 8, "velocity": 69}, {"time": 330, "pitch": 59, "duration": 3, "velocity": 101}, {"time": 330, "pitch": 62, "duration": 5, "velocity": 117}, {"time": 330, "pitch": 66, "duration": 9, "velocity": 106}, {"time": 342, "pitch": 49, "duration": 14, "velocity": 106}, {"time": 342, "pitch": 61, "duration": 9, "velocity": 104}, {"time": 342, "pitch": 64, "duration": 9, "velocity": 106}, {"time": 348, "pitch": 56, "duration": 6, "velocity": 64}, {"time": 354, "pitch": 61, "duration": 3, "velocity": 109}, {"time": 354, "pitch": 64, "duration": 2, "velocity": 109}, {"time": 366, "pitch": 42, "duration": 21, "velocity": 104}, {"time": 366, "pitch": 54, "duration": 10, "velocity": 87}, {"time": 366, "pitch": 57, "duration": 9, "velocity": 104}, {"time": 366, "pitch": 61, "duration": 9, "velocity": 104}, {"time": 372, "pitch": 49, "duration": 7, "velocity": 62}, {"time": 378, "pitch": 54, "duration": 5, "velocity": 101}, {"time": 378, "pitch": 57, "duration": 5, "velocity": 113}, {"time": 378, "pitch": 61, "duration": 4, "velocity": 106}, {"time": 384, "pitch": 49, "duration": 6, "velocity": 76}, {"time": 390, "pitch": 42, "duration": 18, "velocity": 87}, {"time": 390, "pitch": 54, "duration": 10, "velocity": 87}, {"time": 390, "pitch": 57, "duration": 7, "velocity": 86}, {"time": 390, "pitch": 61, "duration": 8, "velocity": 101}, {"time": 396, "pitch": 49, "duration": 6, "velocity": 28}, {"time": 402, "pitch": 57, "duration": 5, "velocity": 99}, {"time": 402, "pitch": 61, "duration": 5, "velocity": 101}, {"time": 402, "pitch": 66, "duration": 5, "velocity": 96}, {"time": 414, "pitch": 42, "duration": 18, "velocity": 94}, {"time": 414, "pitch": 54, "duration": 11, "velocity": 85}, {"time": 414, "pitch": 57, "duration": 8, "velocity": 81}, {"time": 420, "pitch": 49, "duration": 7, "velocity": 31}, {"time": 426, "pitch": 57, "duration": 5, "velocity": 117}, {"time": 426, "pitch": 61, "duration": 7, "velocity": 106}, {"time": 438, "pitch": 40, "duration": 15, "velocity": 101}, {"time": 438, "pitch": 52, "duration": 10, "velocity": 94}, {"time": 438, "pitch": 56, "duration": 8, "velocity": 101}, {"time": 444, "pitch": 47, "duration": 7, "velocity": 47}, {"time": 450, "pitch": 56, "duration": 6, "velocity": 106}, {"time": 450, "pitch": 59, "duration": 7, "velocity": 99}, {"time": 456, "pitch": 40, "duration": 3, "velocity": 94}, {"time": 462, "pitch": 42, "duration": 18, "velocity": 89}, {"time": 462, "pitch": 54, "duration": 10, "velocity": 89}, {"time": 462, "pitch": 57, "duration": 8, "velocity": 101}, {"time": 468, "pitch": 49, "duration": 7, "velocity": 45}, {"time": 474, "pitch": 57, "duration": 2, "velocity": 120}, {"time": 474, "pitch": 61, "duration": 3, "velocity": 104}, {"time": 486, "pitch": 42, "duration": 16, "velocity": 82}, {"time": 486, "pitch": 54, "duration": 9, "velocity": 76}, {"time": 486, "pitch": 57, "duration": 7, "velocity": 74}, {"time": 486, "pitch": 61, "duration": 8, "velocity": 91}, {"time": 492, "pitch": 49, "duration": 8, "velocity": 61}, {"time": 498, "pitch": 57, "duration": 7, "velocity": 113}, {"time": 498, "pitch": 61, "duration": 5, "velocity": 109}, {"time": 498, "pitch": 66, "duration": 4, "velocity": 96}, {"time": 504, "pitch": 54, "duration": 3, "velocity": 87}, {"time": 510, "pitch": 38, "duration": 11, "velocity": 99}, {"time": 510, "pitch": 54, "duration": 6, "velocity": 91}, {"time": 510, "pitch": 57, "duration": 6, "velocity": 93}, {"time": 516, "pitch": 45, "duration": 6, "velocity": 49}, {"time": 522, "pitch": 57, "duration": 6, "velocity": 117}, {"time": 522, "pitch": 62, "duration": 7, "velocity": 110}, {"time": 528, "pitch": 54, "duration": 2, "velocity": 99}, {"time": 534, "pitch": 40, "duration": 14, "velocity": 91}, {"time": 534, "pitch": 52, "duration": 9, "velocity": 80}, {"time": 534, "pitch": 56, "duration": 8, "velocity": 94}, {"time": 540, "pitch": 47, "duration": 8, "velocity": 71}, {"time": 546, "pitch": 56, "duration": 6, "velocity": 106}, {"time": 546, "pitch": 59, "duration": 7, "velocity": 99}, {"time": 552, "pitch": 52, "duration": 5, "velocity": 106}, {"time": 558, "pitch": 45, "duration": 17, "velocity": 70}, {"time": 558, "pitch": 57, "duration": 4, "velocity": 96}, {"time": 558, "pitch": 61, "duration": 5, "velocity": 101}, {"time": 564, "pitch": 52, "duration": 7, "velocity": 45}, {"time": 570, "pitch": 57, "duration": 3, "velocity": 101}, {"time": 570, "pitch": 61, "duration": 7, "velocity": 106}, {"time": 570, "pitch": 64, "duration": 9, "velocity": 101}, {"time": 576, "pitch": 57, "duration": 2, "velocity": 110}, {"time": 582, "pitch": 49, "duration": 16, "velocity": 109}, {"time": 582, "pitch": 56, "duration": 4, "velocity": 94}, {"time": 582, "pitch": 61, "duration": 7, "velocity": 99}, {"time": 588, "pitch": 56, "duration": 5, "velocity": 99}, {"time": 594, "pitch": 56, "duration": 1, "velocity": 96}, {"time": 594, "pitch": 59, "duration": 6, "velocity": 109}, {"time": 594, "pitch": 65, "duration": 5, "velocity": 110}, {"time": 600, "pitch": 56, "duration": 2, "velocity": 104}, {"time": 606, "pitch": 42, "duration": 16, "velocity": 99}, {"time": 606, "pitch": 54, "duration": 9, "velocity": 96}, {"time": 606, "pitch": 57, "duration": 7, "velocity": 96}, {"time": 606, "pitch": 61, "duration": 8, "velocity": 101}, {"time": 612, "pitch": 49, "duration": 7, "velocity": 66}, {"time": 618, "pitch": 57, "duration": 6, "velocity": 117}, {"time": 618, "pitch": 61, "duration": 10, "velocity": 106}, {"time": 624, "pitch": 54, "duration": 2, "velocity": 99}, {"time": 630, "pitch": 40, "duration": 15, "velocity": 101}, {"time": 630, "pitch": 56, "duration": 9, "velocity": 89}, {"time": 630, "pitch": 59, "duration": 9, "velocity": 89}, {"time": 630, "pitch": 64, "duration": 8, "velocity": 96}, {"time": 636, "pitch": 47, "duration": 8, "velocity": 44}, {"time": 642, "pitch": 56, "duration": 2, "velocity": 104}, {"time": 642, "pitch": 59, "duration": 5, "velocity": 101}, {"time": 642, "pitch": 64, "duration": 7, "velocity": 104}, {"time": 654, "pitch": 45, "duration": 14, "velocity": 96}, {"time": 654, "pitch": 57, "duration": 5, "velocity": 99}, {"time": 654, "pitch": 61, "duration": 5, "velocity": 99}, {"time": 660, "pitch": 52, "duration": 7, "velocity": 69}, {"time": 666, "pitch": 57, "duration": 5, "velocity": 113}, {"time": 666, "pitch": 61, "duration": 4, "velocity": 112}, {"time": 666, "pitch": 64, "duration": 5, "velocity": 109}, {"time": 672, "pitch": 45, "duration": 2, "velocity": 74}, {"time": 678, "pitch": 42, "duration": 15, "velocity": 99}, {"time": 678, "pitch": 54, "duration": 7, "velocity": 78}, {"time": 678, "pitch": 57, "duration": 7, "velocity": 91}, {"time": 678, "pitch": 61, "duration": 8, "velocity": 101}, {"time": 684, "pitch": 49, "duration": 8, "velocity": 76}, {"time": 690, "pitch": 54, "duration": 5, "velocity": 99}, {"time": 690, "pitch": 57, "duration": 5, "velocity": 117}, {"time": 690, "pitch": 61, "duration": 12, "velocity": 106}, {"time": 696, "pitch": 42, "duration": 4, "velocity": 101}, {"time": 702, "pitch": 40, "duration": 15, "velocity": 101}, {"time": 702, "pitch": 52, "duration": 12, "velocity": 87}, {"time": 702, "pitch": 56, "duration": 7, "velocity": 101}, {"time": 708, "pitch": 47, "duration": 9, "velocity": 40}, {"time": 714, "pitch": 56, "duration": 6, "velocity": 109}, {"time": 714, "pitch": 59, "duration": 8, "velocity": 101}, {"time": 720, "pitch": 52, "duration": 2, "velocity": 112}, {"time": 726, "pitch": 49, "duration": 13, "velocity": 104}, {"time": 726, "pitch": 56, "duration": 9, "velocity": 96}, {"time": 726, "pitch": 61, "duration": 8, "velocity": 96}, {"time": 732, "pitch": 52, "duration": 7, "velocity": 76}, {"time": 738, "pitch": 56, "duration": 2, "velocity": 106}, {"time": 738, "pitch": 61, "duration": 5, "velocity": 112}, {"time": 738, "pitch": 64, "duration": 9, "velocity": 104}, {"time": 744, "pitch": 56, "duration": 1, "velocity": 82}, {"time": 750, "pitch": 42, "duration": 16, "velocity": 99}, {"time": 750, "pitch": 54, "duration": 8, "velocity": 87}, {"time": 750, "pitch": 57, "duration": 7, "velocity": 99}, {"time": 750, "pitch": 61, "duration": 7, "velocity": 101}, {"time": 756, "pitch": 49, "duration": 6, "velocity": 48}, {"time": 762, "pitch": 57, "duration": 4, "velocity": 117}, {"time": 762, "pitch": 61, "duration": 5, "velocity": 109}, {"time": 774, "pitch": 42, "duration": 15, "velocity": 101}, {"time": 774, "pitch": 57, "duration": 5, "velocity": 110}, {"time": 774, "pitch": 66, "duration": 7, "velocity": 101}, {"time": 780, "pitch": 49, "duration": 6, "velocity": 40}, {"time": 786, "pitch": 54, "duration": 6, "velocity": 96}, {"time": 786, "pitch": 57, "duration": 9, "velocity": 104}, {"time": 786, "pitch": 61, "duration": 11, "velocity": 106}, {"time": 792, "pitch": 49, "duration": 5, "velocity": 19}, {"time": 798, "pitch": 42, "duration": 18, "velocity": 94}, {"time": 798, "pitch": 54, "duration": 11, "velocity": 85}, {"time": 798, "pitch": 57, "duration": 8, "velocity": 81}, {"time": 804, "pitch": 49, "duration": 7, "velocity": 31}, {"time": 810, "pitch": 57, "duration": 5, "velocity": 117}, {"time": 810, "pitch": 61, "duration": 7, "velocity": 106}, {"time": 822, "pitch": 40, "duration": 15, "velocity": 101}, {"time": 822, "pitch": 52, "duration": 10, "velocity": 94}, {"time": 822, "pitch": 56, "duration": 8, "velocity": 101}, {"time": 828, "pitch": 47, "duration": 7, "velocity": 47}, {"time": 834, "pitch": 56, "duration": 6, "velocity": 106}, {"time": 834, "pitch": 59, "duration": 7, "velocity": 99}, {"time": 840, "pitch": 40, "duration": 3, "velocity": 94}, {"time": 846, "pitch": 42, "duration": 18, "velocity": 89}, {"time": 846, "pitch": 54, "duration": 10, "velocity": 89}, {"time": 846, "pitch": 57, "duration": 8, "velocity": 101}, {"time": 852, "pitch": 49, "duration": 7, "velocity": 45}, {"time": 858, "pitch": 57, "duration": 2, "velocity": 120}, {"time": 858, "pitch": 61, "duration": 3, "velocity": 104}, {"time": 870, "pitch": 42, "duration": 16, "velocity": 82}, {"time": 870, "pitch": 54, "duration": 9, "velocity": 76}, {"time": 870, "pitch": 57, "duration": 7, "velocity": 74}, {"time": 870, "pitch": 61, "duration": 8, "velocity": 91}, {"time": 876, "pitch": 49, "duration": 8, "velocity": 61}, {"time": 882, "pitch": 57, "duration": 7, "velocity": 113}, {"time": 882, "pitch": 61, "duration": 5, "velocity": 109}, {"time": 882, "pitch": 66, "duration": 4, "velocity": 96}, {"time": 888, "pitch": 54, "duration": 3, "velocity": 87}, {"time": 894, "pitch": 38, "duration": 11, "velocity": 99}, {"time": 894, "pitch": 54, "duration": 6, "velocity": 91}, {"time": 894, "pitch": 57, "duration": 6, "velocity": 93}, {"time": 900, "pitch": 45, "duration": 6, "velocity": 49}, {"time": 906, "pitch": 57, "duration": 6, "velocity": 117}, {"time": 906, "pitch": 62, "duration": 7, "velocity": 110}, {"time": 912, "pitch": 54, "duration": 2, "velocity": 99}, {"time": 918, "pitch": 40, "duration": 14, "velocity": 91}, {"time": 918, "pitch": 52, "duration": 9, "velocity": 80}, {"time": 918, "pitch": 56, "duration": 8, "velocity": 94}, {"time": 924, "pitch": 47, "duration": 8, "velocity": 71}, {"time": 930, "pitch": 56, "duration": 6, "velocity": 106}, {"time": 930, "pitch": 59, "duration": 7, "velocity": 99}, {"time": 936, "pitch": 52, "duration": 5, "velocity": 106}, {"time": 942, "pitch": 45, "duration": 17, "velocity": 70}, {"time": 942, "pitch": 57, "duration": 4, "velocity": 96}, {"time": 942, "pitch": 61, "duration": 5, "velocity": 101}, {"time": 948, "pitch": 52, "duration": 7, "velocity": 45}, {"time": 954, "pitch": 57, "duration": 3, "velocity": 101}, {"time": 954, "pitch": 61, "duration": 7, "velocity": 106}, {"time": 954, "pitch": 64, "duration": 9, "velocity": 101}, {"time": 960, "pitch": 57, "duration": 2, "velocity": 110}, {"time": 966, "pitch": 49, "duration": 16, "velocity": 109}, {"time": 966, "pitch": 56, "duration": 4, "velocity": 94}, {"time": 966, "pitch": 61, "duration": 7, "velocity": 99}, {"time": 972, "pitch": 56, "duration": 5, "velocity": 99}, {"time": 978, "pitch": 56, "duration": 1, "velocity": 96}, {"time": 978, "pitch": 59, "duration": 6, "velocity": 109}, {"time": 978, "pitch": 65, "duration": 5, "velocity": 110}, {"time": 984, "pitch": 56, "duration": 2, "velocity": 104}, {"time": 990, "pitch": 42, "duration": 16, "velocity": 99}, {"time": 990, "pitch": 54, "duration": 9, "velocity": 96}, {"time": 990, "pitch": 57, "duration": 7, "velocity": 96}, {"time": 990, "pitch": 61, "duration": 8, "velocity": 101}, {"time": 996, "pitch": 49, "duration": 7, "velocity": 66}, {"time": 1002, "pitch": 57, "duration": 6, "velocity": 117}, {"time": 1002, "pitch": 61, "duration": 10, "velocity": 106}, {"time": 1008, "pitch": 54, "duration": 2, "velocity": 99}, {"time": 1014, "pitch": 40, "duration": 15, "velocity": 101}, {"time": 1014, "pitch": 56, "duration": 9, "velocity": 89}, {"time": 1014, "pitch": 59, "duration": 9, "velocity": 89}, {"time": 1014, "pitch": 64, "duration": 8, "velocity": 96}, {"time": 1020, "pitch": 47, "duration": 8, "velocity": 44}, {"time": 1026, "pitch": 56, "duration": 2, "velocity": 104}, {"time": 1026, "pitch": 59, "duration": 5, "velocity": 101}, {"time": 1026, "pitch": 64, "duration": 7, "velocity": 104}, {"time": 1038, "pitch": 45, "duration": 14, "velocity": 96}, {"time": 1038, "pitch": 57, "duration": 5, "velocity": 99}, {"time": 1038, "pitch": 61, "duration": 5, "velocity": 99}, {"time": 1044, "pitch": 52, "duration": 7, "velocity": 69}, {"time": 1050, "pitch": 57, "duration": 5, "velocity": 113}, {"time": 1050, "pitch": 61, "duration": 4, "velocity": 112}, {"time": 1050, "pitch": 64, "duration": 5, "velocity": 109}, {"time": 1056, "pitch": 45, "duration": 2, "velocity": 74}, {"time": 1062, "pitch": 42, "duration": 15, "velocity": 99}, {"time": 1062, "pitch": 54, "duration": 7, "velocity": 78}, {"time": 1062, "pitch": 57, "duration": 7, "velocity": 91}, {"time": 1062, "pitch": 61, "duration": 8, "velocity": 101}, {"time": 1068, "pitch": 49, "duration": 8, "velocity": 76}, {"time": 1074, "pitch": 54, "duration": 5, "velocity": 99}, {"time": 1074, "pitch": 57, "duration": 5, "velocity": 117}, {"time": 1074, "pitch": 61, "duration": 12, "velocity": 106}, {"time": 1080, "pitch": 42, "duration": 4, "velocity": 101}, {"time": 1086, "pitch": 40, "duration": 15, "velocity": 101}, {"time": 1086, "pitch": 52, "duration": 12, "velocity": 87}, {"time": 1086, "pitch": 56, "duration": 7, "velocity": 101}, {"time": 1092, "pitch": 47, "duration": 9, "velocity": 40}, {"time": 1098, "pitch": 56, "duration": 6, "velocity": 109}, {"time": 1098, "pitch": 59, "duration": 8, "velocity": 101}, {"time": 1104, "pitch": 52, "duration": 2, "velocity": 112}, {"time": 1110, "pitch": 49, "duration": 13, "velocity": 104}, {"time": 1110, "pitch": 56, "duration": 9, "velocity": 96}, {"time": 1110, "pitch": 61, "duration": 8, "velocity": 96}, {"time": 1116, "pitch": 52, "duration": 7, "velocity": 76}, {"time": 1122, "pitch": 56, "duration": 2, "velocity": 106}, {"time": 1122, "pitch": 61, "duration": 5, "velocity": 112}, {"time": 1122, "pitch": 64, "duration": 9, "velocity": 104}, {"time": 1128, "pitch": 56, "duration": 1, "velocity": 82}, {"time": 1134, "pitch": 42, "duration": 16, "velocity": 99}, {"time": 1134, "pitch": 54, "duration": 8, "velocity": 87}, {"time": 1134, "pitch": 57, "duration": 7, "velocity": 99}, {"time": 1134, "pitch": 61, "duration": 7, "velocity": 101}, {"time": 1140, "pitch": 49, "duration": 6, "velocity": 48}, {"time": 1146, "pitch": 57, "duration": 4, "velocity": 117}, {"time": 1146, "pitch": 61, "duration": 5, "velocity": 109}, {"time": 1158, "pitch": 42, "duration": 15, "velocity": 101}, {"time": 1158, "pitch": 57, "duration": 5, "velocity": 110}, {"time": 1158, "pitch": 66, "duration": 7, "velocity": 101}, {"time": 1164, "pitch": 49, "duration": 6, "velocity": 40}, {"time": 1170, "pitch": 54, "duration": 6, "velocity": 96}, {"time": 1170, "pitch": 57, "duration": 9, "velocity": 104}, {"time": 1170, "pitch": 61, "duration": 11, "velocity": 106}, {"time": 1176, "pitch": 49, "duration": 5, "velocity": 19}, {"time": 1182, "pitch": 42, "duration": 17, "velocity": 106}, {"time": 1182, "pitch": 54, "duration": 9, "velocity": 99}, {"time": 1182, "pitch": 57, "duration": 8, "velocity": 107}, {"time": 1182, "pitch": 61, "duration": 8, "velocity": 109}, {"time": 1188, "pitch": 49, "duration": 7, "velocity": 69}, {"time": 1194, "pitch": 57, "duration": 6, "velocity": 120}, {"time": 1194, "pitch": 61, "duration": 7, "velocity": 109}, {"time": 1206, "pitch": 42, "duration": 15, "velocity": 104}, {"time": 1206, "pitch": 57, "duration": 6, "velocity": 107}, {"time": 1206, "pitch": 61, "duration": 5, "velocity": 106}, {"time": 1212, "pitch": 49, "duration": 7, "velocity": 47}, {"time": 1218, "pitch": 57, "duration": 5, "velocity": 120}, {"time": 1218, "pitch": 61, "duration": 5, "velocity": 115}, {"time": 1224, "pitch": 54, "duration": 2, "velocity": 109}, {"time": 1230, "pitch": 40, "duration": 13, "velocity": 104}, {"time": 1230, "pitch": 52, "duration": 8, "velocity": 106}, {"time": 1230, "pitch": 56, "duration": 6, "velocity": 106}, {"time": 1236, "pitch": 47, "duration": 7, "velocity": 39}, {"time": 1242, "pitch": 56, "duration": 6, "velocity": 112}, {"time": 1242, "pitch": 59, "duration": 7, "velocity": 106}, {"time": 1248, "pitch": 52, "duration": 3, "velocity": 112}, {"time": 1254, "pitch": 45, "duration": 14, "velocity": 91}, {"time": 1254, "pitch": 57, "duration": 4, "velocity": 104}, {"time": 1254, "pitch": 61, "duration": 4, "velocity": 109}, {"time": 1260, "pitch": 52, "duration": 7, "velocity": 61}, {"time": 1266, "pitch": 57, "duration": 4, "velocity": 113}, {"time": 1266, "pitch": 61, "duration": 3, "velocity": 112}, {"time": 1266, "pitch": 64, "duration": 6, "velocity": 106}, {"time": 1272, "pitch": 45, "duration": 1, "velocity": 110}, {"time": 1278, "pitch": 42, "duration": 21, "velocity": 104}, {"time": 1278, "pitch": 57, "duration": 8, "velocity": 107}, {"time": 1278, "pitch": 61, "duration": 8, "velocity": 109}, {"time": 1284, "pitch": 49, "duration": 10, "velocity": 64}, {"time": 1290, "pitch": 57, "duration": 7, "velocity": 120}, {"time": 1290, "pitch": 61, "duration": 7, "velocity": 112}, {"time": 1296, "pitch": 54, "duration": 5, "velocity": 104}, {"time": 1302, "pitch": 42, "duration": 14, "velocity": 89}, {"time": 1302, "pitch": 57, "duration": 6, "velocity": 113}, {"time": 1302, "pitch": 61, "duration": 7, "velocity": 106}, {"time": 1308, "pitch": 54, "duration": 4, "velocity": 99}, {"time": 1314, "pitch": 54, "duration": 5, "velocity": 109}, {"time": 1314, "pitch": 57, "duration": 4, "velocity": 120}, {"time": 1314, "pitch": 61, "duration": 5, "velocity": 109}, {"time": 1320, "pitch": 42, "duration": 2, "velocity": 104}, {"time": 1326, "pitch": 49, "duration": 22, "velocity": 106}, {"time": 1326, "pitch": 56, "duration": 3, "velocity": 99}, {"time": 1326, "pitch": 61, "duration": 8, "velocity": 104}, {"time": 1326, "pitch": 64, "duration": 8, "velocity": 101}, {"time": 1332, "pitch": 56, "duration": 3, "velocity": 96}, {"time": 1338, "pitch": 56, "duration": 3, "velocity": 112}, {"time": 1338, "pitch": 61, "duration": 7, "velocity": 115}, {"time": 1338, "pitch": 64, "duration": 7, "velocity": 112}, {"time": 1344, "pitch": 56, "duration": 4, "velocity": 78}, {"time": 1350, "pitch": 49, "duration": 20, "velocity": 109}, {"time": 1350, "pitch": 56, "duration": 3, "velocity": 109}, {"time": 1350, "pitch": 61, "duration": 7, "velocity": 109}, {"time": 1350, "pitch": 64, "duration": 6, "velocity": 109}, {"time": 1356, "pitch": 56, "duration": 1, "velocity": 82}, {"time": 1359, "pitch": 56, "duration": 1, "velocity": 89}, {"time": 1359, "pitch": 61, "duration": 1, "velocity": 99}, {"time": 1362, "pitch": 56, "duration": 3, "velocity": 115}, {"time": 1362, "pitch": 61, "duration": 3, "velocity": 118}, {"time": 1362, "pitch": 68, "duration": 4, "velocity": 109}, {"time": 1368, "pitch": 56, "duration": 2, "velocity": 112}, {"time": 1368, "pitch": 61, "duration": 2, "velocity": 112}, {"time": 1368, "pitch": 64, "duration": 2, "velocity": 112}, {"time": 1374, "pitch": 42, "duration": 14, "velocity": 104}, {"time": 1374, "pitch": 54, "duration": 7, "velocity": 99}, {"time": 1374, "pitch": 57, "duration": 7, "velocity": 101}, {"time": 1374, "pitch": 61, "duration": 6, "velocity": 104}, {"time": 1380, "pitch": 49, "duration": 7, "velocity": 69}, {"time": 1386, "pitch": 54, "duration": 3, "velocity": 104}, {"time": 1386, "pitch": 57, "duration": 4, "velocity": 120}, {"time": 1386, "pitch": 61, "duration": 4, "velocity": 112}, {"time": 1392, "pitch": 54, "duration": 4, "velocity": 101}, {"time": 1398, "pitch": 42, "duration": 14, "velocity": 96}, {"time": 1398, "pitch": 54, "duration": 2, "velocity": 80}, {"time": 1398, "pitch": 57, "duration": 6, "velocity": 110}, {"time": 1398, "pitch": 66, "duration": 5, "velocity": 101}, {"time": 1404, "pitch": 49, "duration": 6, "velocity": 48}, {"time": 1410, "pitch": 57, "duration": 4, "velocity": 117}, {"time": 1410, "pitch": 61, "duration": 8, "velocity": 112}, {"time": 1416, "pitch": 54, "duration": 2, "velocity": 106}, {"time": 1422, "pitch": 40, "duration": 13, "velocity": 101}, {"time": 1422, "pitch": 56, "duration": 10, "velocity": 106}, {"time": 1422, "pitch": 59, "duration": 10, "velocity": 101}, {"time": 1428, "pitch": 47, "duration": 6, "velocity": 37}, {"time": 1434, "pitch": 56, "duration": 2, "velocity": 106}, {"time": 1434, "pitch": 59, "duration": 6, "velocity": 109}, {"time": 1434, "pitch": 64, "duration": 12, "velocity": 106}, {"time": 1440, "pitch": 56, "duration": 4, "velocity": 101}, {"time": 1446, "pitch": 45, "duration": 14, "velocity": 104}, {"time": 1446, "pitch": 57, "duration": 7, "velocity": 104}, {"time": 1446, "pitch": 61, "duration": 9, "velocity": 101}, {"time": 1452, "pitch": 52, "duration": 8, "velocity": 87}, {"time": 1458, "pitch": 57, "duration": 4, "velocity": 120}, {"time": 1458, "pitch": 61, "duration": 5, "velocity": 115}, {"time": 1458, "pitch": 64, "duration": 6, "velocity": 106}, {"time": 1464, "pitch": 45, "duration": 2, "velocity": 110}, {"time": 1470, "pitch": 42, "duration": 14, "velocity": 104}, {"time": 1470, "pitch": 57, "duration": 6, "velocity": 107}, {"time": 1470, "pitch": 61, "duration": 6, "velocity": 106}, {"time": 1476, "pitch": 49, "duration": 7, "velocity": 76}, {"time": 1482, "pitch": 57, "duration": 3, "velocity": 120}, {"time": 1482, "pitch": 61, "duration": 4, "velocity": 106}, {"time": 1488, "pitch": 42, "duration": 2, "velocity": 106}, {"time": 1494, "pitch": 45, "duration": 14, "velocity": 110}, {"time": 1494, "pitch": 57, "duration": 9, "velocity": 99}, {"time": 1494, "pitch": 61, "duration": 9, "velocity": 109}, {"time": 1494, "pitch": 64, "duration": 8, "velocity": 101}, {"time": 1500, "pitch": 52, "duration": 8, "velocity": 85}, {"time": 1506, "pitch": 57, "duration": 4, "velocity": 110}, {"time": 1506, "pitch": 61, "duration": 4, "velocity": 112}, {"time": 1506, "pitch": 64, "duration": 6, "velocity": 112}, {"time": 1512, "pitch": 45, "duration": 2, "velocity": 117}, {"time": 1518, "pitch": 49, "duration": 17, "velocity": 109}, {"time": 1518, "pitch": 56, "duration": 4, "velocity": 96}, {"time": 1518, "pitch": 61, "duration": 9, "velocity": 106}, {"time": 1518, "pitch": 64, "duration": 9, "velocity": 106}, {"time": 1524, "pitch": 56, "duration": 2, "velocity": 66}, {"time": 1530, "pitch": 56, "duration": 3, "velocity": 112}, {"time": 1530, "pitch": 61, "duration": 7, "velocity": 115}, {"time": 1530, "pitch": 64, "duration": 7, "velocity": 112}, {"time": 1536, "pitch": 56, "duration": 1, "velocity": 94}, {"time": 1539, "pitch": 56, "duration": 1, "velocity": 101}, {"time": 1539, "pitch": 61, "duration": 1, "velocity": 106}, {"time": 1542, "pitch": 49, "duration": 14, "velocity": 115}, {"time": 1542, "pitch": 56, "duration": 4, "velocity": 109}, {"time": 1542, "pitch": 61, "duration": 8, "velocity": 112}, {"time": 1548, "pitch": 56, "duration": 3, "velocity": 101}, {"time": 1554, "pitch": 56, "duration": 3, "velocity": 115}, {"time": 1554, "pitch": 61, "duration": 4, "velocity": 118}, {"time": 1554, "pitch": 64, "duration": 4, "velocity": 112}, {"time": 1557, "pitch": 49, "duration": 7, "velocity": 106}, {"time": 1560, "pitch": 56, "duration": 6, "velocity": 112}, {"time": 1563, "pitch": 61, "duration": 3, "velocity": 109}, {"time": 1566, "pitch": 42, "duration": 17, "velocity": 106}, {"time": 1566, "pitch": 54, "duration": 9, "velocity": 99}, {"time": 1566, "pitch": 57, "duration": 8, "velocity": 107}, {"time": 1566, "pitch": 61, "duration": 8, "velocity": 109}, {"time": 1572, "pitch": 49, "duration": 7, "velocity": 69}, {"time": 1578, "pitch": 57, "duration": 6, "velocity": 120}, {"time": 1578, "pitch": 61, "duration": 7, "velocity": 109}, {"time": 1590, "pitch": 42, "duration": 15, "velocity": 104}, {"time": 1590, "pitch": 57, "duration": 6, "velocity": 107}, {"time": 1590, "pitch": 61, "duration": 5, "velocity": 106}, {"time": 1596, "pitch": 49, "duration": 7, "velocity": 47}, {"time": 1602, "pitch": 57, "duration": 5, "velocity": 120}, {"time": 1602, "pitch": 61, "duration": 5, "velocity": 115}, {"time": 1608, "pitch": 54, "duration": 2, "velocity": 109}, {"time": 1614, "pitch": 40, "duration": 13, "velocity": 104}, {"time": 1614, "pitch": 52, "duration": 8, "velocity": 106}, {"time": 1614, "pitch": 56, "duration": 6, "velocity": 106}, {"time": 1620, "pitch": 47, "duration": 7, "velocity": 39}, {"time": 1626, "pitch": 56, "duration": 6, "velocity": 112}, {"time": 1626, "pitch": 59, "duration": 7, "velocity": 106}, {"time": 1632, "pitch": 52, "duration": 3, "velocity": 112}, {"time": 1638, "pitch": 45, "duration": 14, "velocity": 91}, {"time": 1638, "pitch": 57, "duration": 4, "velocity": 104}, {"time": 1638, "pitch": 61, "duration": 4, "velocity": 109}, {"time": 1644, "pitch": 52, "duration": 7, "velocity": 61}, {"time": 1650, "pitch": 57, "duration": 4, "velocity": 113}, {"time": 1650, "pitch": 61, "duration": 3, "velocity": 112}, {"time": 1650, "pitch": 64, "duration": 6, "velocity": 106}, {"time": 1656, "pitch": 45, "duration": 1, "velocity": 110}, {"time": 1662, "pitch": 42, "duration": 21, "velocity": 104}, {"time": 1662, "pitch": 57, "duration": 8, "velocity": 107}, {"time": 1662, "pitch": 61, "duration": 8, "velocity": 109}, {"time": 1668, "pitch": 49, "duration": 10, "velocity": 64}, {"time": 1674, "pitch": 57, "duration": 7, "velocity": 120}, {"time": 1674, "pitch": 61, "duration": 7, "velocity": 112}, {"time": 1680, "pitch": 54, "duration": 5, "velocity": 104}, {"time": 1686, "pitch": 42, "duration": 14, "velocity": 89}, {"time": 1686, "pitch": 57, "duration": 6, "velocity": 113}, {"time": 1686, "pitch": 61, "duration": 7, "velocity": 106}, {"time": 1692, "pitch": 54, "duration": 4, "velocity": 99}, {"time": 1698, "pitch": 54, "duration": 5, "velocity": 109}, {"time": 1698, "pitch": 57, "duration": 4, "velocity": 120}, {"time": 1698, "pitch": 61, "duration": 5, "velocity": 109}, {"time": 1704, "pitch": 42, "duration": 2, "velocity": 104}, {"time": 1710, "pitch": 49, "duration": 21, "velocity": 109}, {"time": 1710, "pitch": 61, "duration": 9, "velocity": 101}, {"time": 1710, "pitch": 64, "duration": 8, "velocity": 101}, {"time": 1716, "pitch": 56, "duration": 7, "velocity": 94}, {"time": 1722, "pitch": 61, "duration": 6, "velocity": 104}, {"time": 1722, "pitch": 64, "duration": 5, "velocity": 112}, {"time": 1722, "pitch": 68, "duration": 5, "velocity": 106}, {"time": 1728, "pitch": 56, "duration": 5, "velocity": 91}, {"time": 1734, "pitch": 49, "duration": 14, "velocity": 91}, {"time": 1734, "pitch": 61, "duration": 9, "velocity": 99}, {"time": 1734, "pitch": 64, "duration": 7, "velocity": 96}, {"time": 1734, "pitch": 68, "duration": 6, "velocity": 96}, {"time": 1734, "pitch": 73, "duration": 5, "velocity": 91}, {"time": 1740, "pitch": 56, "duration": 8, "velocity": 62}, {"time": 1746, "pitch": 61, "duration": 4, "velocity": 104}, {"time": 1746, "pitch": 64, "duration": 4, "velocity": 109}, {"time": 1746, "pitch": 68, "duration": 3, "velocity": 96}, {"time": 1746, "pitch": 73, "duration": 3, "velocity": 99}, {"time": 1752, "pitch": 49, "duration": 2, "velocity": 82}, {"time": 1752, "pitch": 56, "duration": 2, "velocity": 71}, {"time": 1752, "pitch": 61, "duration": 2, "velocity": 104}, {"time": 1752, "pitch": 64, "duration": 2, "velocity": 99}, {"time": 1758, "pitch": 49, "duration": 2, "velocity": 106}, {"time": 1758, "pitch": 56, "duration": 2, "velocity": 106}, {"time": 1758, "pitch": 61, "duration": 2, "velocity": 106}, {"time": 1758, "pitch": 64, "duration": 2, "velocity": 106}, {"time": 1764, "pitch": 49, "duration": 15, "velocity": 104}, {"time": 1764, "pitch": 56, "duration": 15, "velocity": 101}, {"time": 1764, "pitch": 61, "duration": 15, "velocity": 101}, {"time": 1764, "pitch": 64, "duration": 16, "velocity": 101}, {"time": 1764, "pitch": 68, "duration": 15, "velocity": 101}, {"time": 1779, "pitch": 52, "duration": 6, "velocity": 62}, {"time": 1782, "pitch": 40, "duration": 19, "velocity": 101}, {"time": 1782, "pitch": 64, "duration": 7, "velocity": 99}, {"time": 1788, "pitch": 47, "duration": 13, "velocity": 61}, {"time": 1806, "pitch": 42, "duration": 16, "velocity": 101}, {"time": 1806, "pitch": 54, "duration": 7, "velocity": 78}, {"time": 1806, "pitch": 57, "duration": 7, "velocity": 104}, {"time": 1806, "pitch": 61, "duration": 6, "velocity": 101}, {"time": 1812, "pitch": 49, "duration": 7, "velocity": 35}, {"time": 1818, "pitch": 57, "duration": 5, "velocity": 117}, {"time": 1818, "pitch": 61, "duration": 7, "velocity": 112}, {"time": 1824, "pitch": 54, "duration": 4, "velocity": 78}, {"time": 1830, "pitch": 42, "duration": 16, "velocity": 101}, {"time": 1830, "pitch": 57, "duration": 3, "velocity": 110}, {"time": 1830, "pitch": 61, "duration": 3, "velocity": 109}, {"time": 1830, "pitch": 66, "duration": 5, "velocity": 104}, {"time": 1836, "pitch": 49, "duration": 7, "velocity": 69}, {"time": 1842, "pitch": 66, "duration": 11, "velocity": 104}, {"time": 1842, "pitch": 69, "duration": 11, "velocity": 117}, {"time": 1842, "pitch": 73, "duration": 11, "velocity": 104}, {"time": 1848, "pitch": 49, "duration": 5, "velocity": 78}, {"time": 1854, "pitch": 42, "duration": 18, "velocity": 94}, {"time": 1854, "pitch": 54, "duration": 11, "velocity": 85}, {"time": 1854, "pitch": 57, "duration": 8, "velocity": 81}, {"time": 1860, "pitch": 49, "duration": 7, "velocity": 31}, {"time": 1866, "pitch": 57, "duration": 5, "velocity": 117}, {"time": 1866, "pitch": 61, "duration": 7, "velocity": 106}, {"time": 1878, "pitch": 40, "duration": 15, "velocity": 101}, {"time": 1878, "pitch": 52, "duration": 10, "velocity": 94}, {"time": 1878, "pitch": 56, "duration": 8, "velocity": 101}, {"time": 1884, "pitch": 47, "duration": 7, "velocity": 47}, {"time": 1890, "pitch": 56, "duration": 6, "velocity": 106}, {"time": 1890, "pitch": 59, "duration": 7, "velocity": 99}, {"time": 1896, "pitch": 40, "duration": 3, "velocity": 94}, {"time": 1902, "pitch": 42, "duration": 18, "velocity": 89}, {"time": 1902, "pitch": 54, "duration": 10, "velocity": 89}, {"time": 1902, "pitch": 57, "duration": 8, "velocity": 101}, {"time": 1908, "pitch": 49, "duration": 7, "velocity": 45}, {"time": 1914, "pitch": 57, "duration": 2, "velocity": 120}, {"time": 1914, "pitch": 61, "duration": 3, "velocity": 104}, {"time": 1926, "pitch": 42, "duration": 16, "velocity": 82}, {"time": 1926, "pitch": 54, "duration": 9, "velocity": 76}, {"time": 1926, "pitch": 57, "duration": 7, "velocity": 74}, {"time": 1926, "pitch": 61, "duration": 8, "velocity": 91}, {"time": 1932, "pitch": 49, "duration": 8, "velocity": 61}, {"time": 1938, "pitch": 57, "duration": 7, "velocity": 113}, {"time": 1938, "pitch": 61, "duration": 5, "velocity": 109}, {"time": 1938, "pitch": 66, "duration": 4, "velocity": 96}, {"time": 1944, "pitch": 54, "duration": 3, "velocity": 87}, {"time": 1950, "pitch": 38, "duration": 11, "velocity": 99}, {"time": 1950, "pitch": 54, "duration": 6, "velocity": 91}, {"time": 1950, "pitch": 57, "duration": 6, "velocity": 93}, {"time": 1956, "pitch": 45, "duration": 6, "velocity": 49}, {"time": 1962, "pitch": 57, "duration": 6, "velocity": 117}, {"time": 1962, "pitch": 62, "duration": 7, "velocity": 110}, {"time": 1968, "pitch": 54, "duration": 2, "velocity": 99}, {"time": 1974, "pitch": 40, "duration": 14, "velocity": 91}, {"time": 1974, "pitch": 52, "duration": 9, "velocity": 80}, {"time": 1974, "pitch": 56, "duration": 8, "velocity": 94}, {"time": 1980, "pitch": 47, "duration": 8, "velocity": 71}, {"time": 1986, "pitch": 56, "duration": 6, "velocity": 106}, {"time": 1986, "pitch": 59, "duration": 7, "velocity": 99}, {"time": 1992, "pitch": 52, "duration": 5, "velocity": 106}, {"time": 1998, "pitch": 45, "duration": 17, "velocity": 70}, {"time": 1998, "pitch": 57, "duration": 4, "velocity": 96}, {"time": 1998, "pitch": 61, "duration": 5, "velocity": 101}, {"time": 2004, "pitch": 52, "duration": 7, "velocity": 45}, {"time": 2010, "pitch": 57, "duration": 3, "velocity": 101}, {"time": 2010, "pitch": 61, "duration": 7, "velocity": 106}, {"time": 2010, "pitch": 64, "duration": 9, "velocity": 101}, {"time": 2016, "pitch": 57, "duration": 2, "velocity": 110}, {"time": 2022, "pitch": 49, "duration": 16, "velocity": 109}, {"time": 2022, "pitch": 56, "duration": 4, "velocity": 94}, {"time": 2022, "pitch": 61, "duration": 7, "velocity": 99}, {"time": 2028, "pitch": 56, "duration": 5, "velocity": 99}, {"time": 2034, "pitch": 56, "duration": 1, "velocity": 96}, {"time": 2034, "pitch": 59, "duration": 6, "velocity": 109}, {"time": 2034, "pitch": 65, "duration": 5, "velocity": 110}, {"time": 2040, "pitch": 56, "duration": 2, "velocity": 104}, {"time": 2046, "pitch": 42, "duration": 16, "velocity": 99}, {"time": 2046, "pitch": 54, "duration": 9, "velocity": 96}, {"time": 2046, "pitch": 57, "duration": 7, "velocity": 96}, {"time": 2046, "pitch": 61, "duration": 8, "velocity": 101}, {"time": 2052, "pitch": 49, "duration": 7, "velocity": 66}, {"time": 2058, "pitch": 57, "duration": 6, "velocity": 117}, {"time": 2058, "pitch": 61, "duration": 10, "velocity": 106}, {"time": 2064, "pitch": 54, "duration": 2, "velocity": 99}, {"time": 2070, "pitch": 40, "duration": 15, "velocity": 101}, {"time": 2070, "pitch": 56, "duration": 9, "velocity": 89}, {"time": 2070, "pitch": 59, "duration": 9, "velocity": 89}, {"time": 2070, "pitch": 64, "duration": 8, "velocity": 96}, {"time": 2076, "pitch": 47, "duration": 8, "velocity": 44}, {"time": 2082, "pitch": 56, "duration": 2, "velocity": 104}, {"time": 2082, "pitch": 59, "duration": 5, "velocity": 101}, {"time": 2082, "pitch": 64, "duration": 7, "velocity": 104}, {"time": 2094, "pitch": 45, "duration": 14, "velocity": 96}, {"time": 2094, "pitch": 57, "duration": 5, "velocity": 99}, {"time": 2094, "pitch": 61, "duration": 5, "velocity": 99}, {"time": 2100, "pitch": 52, "duration": 7, "velocity": 69}, {"time": 2106, "pitch": 57, "duration": 5, "velocity": 113}, {"time": 2106, "pitch": 61, "duration": 4, "velocity": 112}, {"time": 2106, "pitch": 64, "duration": 5, "velocity": 109}, {"time": 2112, "pitch": 45, "duration": 2, "velocity": 74}, {"time": 2118, "pitch": 42, "duration": 15, "velocity": 99}, {"time": 2118, "pitch": 54, "duration": 7, "velocity": 78}, {"time": 2118, "pitch": 57, "duration": 7, "velocity": 91}, {"time": 2118, "pitch": 61, "duration": 8, "velocity": 101}, {"time": 2124, "pitch": 49, "duration": 8, "velocity": 76}, {"time": 2130, "pitch": 54, "duration": 5, "velocity": 99}, {"time": 2130, "pitch": 57, "duration": 5, "velocity": 117}, {"time": 2130, "pitch": 61, "duration": 12, "velocity": 106}, {"time": 2136, "pitch": 42, "duration": 4, "velocity": 101}, {"time": 2142, "pitch": 40, "duration": 15, "velocity": 101}, {"time": 2142, "pitch": 52, "duration": 12, "velocity": 87}, {"time": 2142, "pitch": 56, "duration": 7, "velocity": 101}, {"time": 2148, "pitch": 47, "duration": 9, "velocity": 40}, {"time": 2154, "pitch": 56, "duration": 6, "velocity": 109}, {"time": 2154, "pitch": 59, "duration": 8, "velocity": 101}, {"time": 2160, "pitch": 52, "duration": 2, "velocity": 112}, {"time": 2166, "pitch": 49, "duration": 13, "velocity": 104}, {"time": 2166, "pitch": 56, "duration": 9, "velocity": 96}, {"time": 2166, "pitch": 61, "duration": 8, "velocity": 96}, {"time": 2172, "pitch": 52, "duration": 7, "velocity": 76}, {"time": 2178, "pitch": 56, "duration": 2, "velocity": 106}, {"time": 2178, "pitch": 61, "duration": 5, "velocity": 112}, {"time": 2178, "pitch": 64, "duration": 9, "velocity": 104}, {"time": 2184, "pitch": 56, "duration": 1, "velocity": 82}, {"time": 2190, "pitch": 42, "duration": 21, "velocity": 106}, {"time": 2190, "pitch": 54, "duration": 6, "velocity": 99}, {"time": 2190, "pitch": 57, "duration": 6, "velocity": 110}, {"time": 2190, "pitch": 61, "duration": 7, "velocity": 104}, {"time": 2196, "pitch": 49, "duration": 8, "velocity": 64}, {"time": 2202, "pitch": 54, "duration": 6, "velocity": 115}, {"time": 2202, "pitch": 57, "duration": 6, "velocity": 123}, {"time": 2202, "pitch": 61, "duration": 10, "velocity": 112}, {"time": 2208, "pitch": 49, "duration": 4, "velocity": 55}, {"time": 2214, "pitch": 42, "duration": 21, "velocity": 106}, {"time": 2214, "pitch": 54, "duration": 3, "velocity": 106}, {"time": 2214, "pitch": 57, "duration": 3, "velocity": 120}, {"time": 2214, "pitch": 61, "duration": 4, "velocity": 109}, {"time": 2217, "pitch": 49, "duration": 17, "velocity": 96}, {"time": 2220, "pitch": 54, "duration": 2, "velocity": 112}, {"time": 2223, "pitch": 56, "duration": 2, "velocity": 115}, {"time": 2226, "pitch": 57, "duration": 2, "velocity": 120}, {"time": 2229, "pitch": 59, "duration": 4, "velocity": 112}, {"time": 2232, "pitch": 61, "duration": 4, "velocity": 109}, {"time": 2235, "pitch": 64, "duration": 4, "velocity": 109}, {"time": 2238, "pitch": 42, "duration": 17, "velocity": 106}, {"time": 2238, "pitch": 54, "duration": 9, "velocity": 99}, {"time": 2238, "pitch": 57, "duration": 8, "velocity": 107}, {"time": 2238, "pitch": 61, "duration": 8, "velocity": 109}, {"time": 2244, "pitch": 49, "duration": 7, "velocity": 69}, {"time": 2250, "pitch": 57, "duration": 6, "velocity": 120}, {"time": 2250, "pitch": 61, "duration": 7, "velocity": 109}, {"time": 2262, "pitch": 42, "duration": 15, "velocity": 104}, {"time": 2262, "pitch": 57, "duration": 6, "velocity": 107}, {"time": 2262, "pitch": 61, "duration": 5, "velocity": 106}, {"time": 2268, "pitch": 49, "duration": 7, "velocity": 47}, {"time": 2274, "pitch": 57, "duration": 5, "velocity": 120}, {"time": 2274, "pitch": 61, "duration": 5, "velocity": 115}, {"time": 2280, "pitch": 54, "duration": 2, "velocity": 109}, {"time": 2286, "pitch": 40, "duration": 13, "velocity": 104}, {"time": 2286, "pitch": 52, "duration": 8, "velocity": 106}, {"time": 2286, "pitch": 56, "duration": 6, "velocity": 106}, {"time": 2292, "pitch": 47, "duration": 7, "velocity": 39}, {"time": 2298, "pitch": 56, "duration": 6, "velocity": 112}, {"time": 2298, "pitch": 59, "duration": 7, "velocity": 106}, {"time": 2304, "pitch": 52, "duration": 3, "velocity": 112}, {"time": 2310, "pitch": 45, "duration": 14, "velocity": 91}, {"time": 2310, "pitch": 57, "duration": 4, "velocity": 104}, {"time": 2310, "pitch": 61, "duration": 4, "velocity": 109}, {"time": 2316, "pitch": 52, "duration": 7, "velocity": 61}, {"time": 2322, "pitch": 57, "duration": 4, "velocity": 113}, {"time": 2322, "pitch": 61, "duration": 3, "velocity": 112}, {"time": 2322, "pitch": 64, "duration": 6, "velocity": 106}, {"time": 2328, "pitch": 45, "duration": 1, "velocity": 110}, {"time": 2334, "pitch": 42, "duration": 21, "velocity": 104}, {"time": 2334, "pitch": 57, "duration": 8, "velocity": 107}, {"time": 2334, "pitch": 61, "duration": 8, "velocity": 109}, {"time": 2340, "pitch": 49, "duration": 10, "velocity": 64}, {"time": 2346, "pitch": 57, "duration": 7, "velocity": 120}, {"time": 2346, "pitch": 61, "duration": 7, "velocity": 112}, {"time": 2352, "pitch": 54, "duration": 5, "velocity": 104}, {"time": 2358, "pitch": 42, "duration": 14, "velocity": 89}, {"time": 2358, "pitch": 57, "duration": 6, "velocity": 113}, {"time": 2358, "pitch": 61, "duration": 7, "velocity": 106}, {"time": 2364, "pitch": 54, "duration": 4, "velocity": 99}, {"time": 2370, "pitch": 54, "duration": 5, "velocity": 109}, {"time": 2370, "pitch": 57, "duration": 4, "velocity": 120}, {"time": 2370, "pitch": 61, "duration": 5, "velocity": 109}, {"time": 2376, "pitch": 42, "duration": 2, "velocity": 104}, {"time": 2382, "pitch": 49, "duration": 22, "velocity": 106}, {"time": 2382, "pitch": 56, "duration": 3, "velocity": 99}, {"time": 2382, "pitch": 61, "duration": 8, "velocity": 104}, {"time": 2382, "pitch": 64, "duration": 8, "velocity": 101}, {"time": 2388, "pitch": 56, "duration": 3, "velocity": 96}, {"time": 2394, "pitch": 56, "duration": 3, "velocity": 112}, {"time": 2394, "pitch": 61, "duration": 7, "velocity": 115}, {"time": 2394, "pitch": 64, "duration": 7, "velocity": 112}, {"time": 2400, "pitch": 56, "duration": 4, "velocity": 78}, {"time": 2406, "pitch": 49, "duration": 20, "velocity": 109}, {"time": 2406, "pitch": 56, "duration": 3, "velocity": 109}, {"time": 2406, "pitch": 61, "duration": 7, "velocity": 109}, {"time": 2406, "pitch": 64, "duration": 6, "velocity": 109}, {"time": 2412, "pitch": 56, "duration": 1, "velocity": 82}, {"time": 2415, "pitch": 56, "duration": 1, "velocity": 89}, {"time": 2415, "pitch": 61, "duration": 1, "velocity": 99}, {"time": 2418, "pitch": 56, "duration": 3, "velocity": 115}, {"time": 2418, "pitch": 61, "duration": 3, "velocity": 118}, {"time": 2418, "pitch": 68, "duration": 4, "velocity": 109}, {"time": 2424, "pitch": 56, "duration": 2, "velocity": 112}, {"time": 2424, "pitch": 61, "duration": 2, "velocity": 112}, {"time": 2424, "pitch": 64, "duration": 2, "velocity": 112}, {"time": 2430, "pitch": 42, "duration": 14, "velocity": 104}, {"time": 2430, "pitch": 54, "duration": 7, "velocity": 99}, {"time": 2430, "pitch": 57, "duration": 7, "velocity": 101}, {"time": 2430, "pitch": 61, "duration": 6, "velocity": 104}, {"time": 2436, "pitch": 49, "duration": 7, "velocity": 69}, {"time": 2442, "pitch": 54, "duration": 3, "velocity": 104}, {"time": 2442, "pitch": 57, "duration": 4, "velocity": 120}, {"time": 2442, "pitch": 61, "duration": 4, "velocity": 112}, {"time": 2448, "pitch": 54, "duration": 4, "velocity": 101}, {"time": 2454, "pitch": 42, "duration": 14, "velocity": 96}, {"time": 2454, "pitch": 54, "duration": 2, "velocity": 80}, {"time": 2454, "pitch": 57, "duration": 6, "velocity": 110}, {"time": 2454, "pitch": 66, "duration": 5, "velocity": 101}, {"time": 2460, "pitch": 49, "duration": 6, "velocity": 48}, {"time": 2466, "pitch": 57, "duration": 4, "velocity": 117}, {"time": 2466, "pitch": 61, "duration": 8, "velocity": 112}, {"time": 2472, "pitch": 54, "duration": 2, "velocity": 106}, {"time": 2478, "pitch": 40, "duration": 13, "velocity": 101}, {"time": 2478, "pitch": 56, "duration": 10, "velocity": 106}, {"time": 2478, "pitch": 59, "duration": 10, "velocity": 101}, {"time": 2484, "pitch": 47, "duration": 6, "velocity": 37}, {"time": 2490, "pitch": 56, "duration": 2, "velocity": 106}, {"time": 2490, "pitch": 59, "duration": 6, "velocity": 109}, {"time": 2490, "pitch": 64, "duration": 12, "velocity": 106}, {"time": 2496, "pitch": 56, "duration": 4, "velocity": 101}, {"time": 2502, "pitch": 45, "duration": 14, "velocity": 104}, {"time": 2502, "pitch": 57, "duration": 7, "velocity": 104}, {"time": 2502, "pitch": 61, "duration": 9, "velocity": 101}, {"time": 2508, "pitch": 52, "duration": 8, "velocity": 87}, {"time": 2514, "pitch": 57, "duration": 4, "velocity": 120}, {"time": 2514, "pitch": 61, "duration": 5, "velocity": 115}, {"time": 2514, "pitch": 64, "duration": 6, "velocity": 106}, {"time": 2520, "pitch": 45, "duration": 2, "velocity": 110}, {"time": 2526, "pitch": 42, "duration": 14, "velocity": 104}, {"time": 2526, "pitch": 57, "duration": 6, "velocity": 107}, {"time": 2526, "pitch": 61, "duration": 6, "velocity": 106}, {"time": 2532, "pitch": 49, "duration": 7, "velocity": 76}, {"time": 2538, "pitch": 57, "duration": 3, "velocity": 120}, {"time": 2538, "pitch": 61, "duration": 4, "velocity": 106}, {"time": 2544, "pitch": 42, "duration": 2, "velocity": 106}, {"time": 2550, "pitch": 45, "duration": 14, "velocity": 110}, {"time": 2550, "pitch": 57, "duration": 9, "velocity": 99}, {"time": 2550, "pitch": 61, "duration": 9, "velocity": 109}, {"time": 2550, "pitch": 64, "duration": 8, "velocity": 101}, {"time": 2556, "pitch": 52, "duration": 8, "velocity": 85}, {"time": 2562, "pitch": 57, "duration": 4, "velocity": 110}, {"time": 2562, "pitch": 61, "duration": 4, "velocity": 112}, {"time": 2562, "pitch": 64, "duration": 6, "velocity": 112}, {"time": 2568, "pitch": 45, "duration": 2, "velocity": 117}, {"time": 2574, "pitch": 49, "duration": 17, "velocity": 109}, {"time": 2574, "pitch": 56, "duration": 4, "velocity": 96}, {"time": 2574, "pitch": 61, "duration": 9, "velocity": 106}, {"time": 2574, "pitch": 64, "duration": 9, "velocity": 106}, {"time": 2580, "pitch": 56, "duration": 2, "velocity": 66}, {"time": 2586, "pitch": 56, "duration": 3, "velocity": 112}, {"time": 2586, "pitch": 61, "duration": 7, "velocity": 115}, {"time": 2586, "pitch": 64, "duration": 7, "velocity": 112}, {"time": 2592, "pitch": 56, "duration": 1, "velocity": 94}, {"time": 2595, "pitch": 56, "duration": 1, "velocity": 101}, {"time": 2595, "pitch": 61, "duration": 1, "velocity": 106}, {"time": 2598, "pitch": 49, "duration": 14, "velocity": 115}, {"time": 2598, "pitch": 56, "duration": 4, "velocity": 109}, {"time": 2598, "pitch": 61, "duration": 8, "velocity": 112}, {"time": 2604, "pitch": 56, "duration": 3, "velocity": 101}, {"time": 2610, "pitch": 56, "duration": 3, "velocity": 115}, {"time": 2610, "pitch": 61, "duration": 4, "velocity": 118}, {"time": 2610, "pitch": 64, "duration": 4, "velocity": 112}, {"time": 2613, "pitch": 49, "duration": 7, "velocity": 106}, {"time": 2616, "pitch": 56, "duration": 6, "velocity": 112}, {"time": 2619, "pitch": 61, "duration": 3, "velocity": 109}, {"time": 2622, "pitch": 42, "duration": 17, "velocity": 106}, {"time": 2622, "pitch": 54, "duration": 9, "velocity": 99}, {"time": 2622, "pitch": 57, "duration": 8, "velocity": 107}, {"time": 2622, "pitch": 61, "duration": 8, "velocity": 109}, {"time": 2628, "pitch": 49, "duration": 7, "velocity": 69}, {"time": 2634, "pitch": 57, "duration": 6, "velocity": 120}, {"time": 2634, "pitch": 61, "duration": 7, "velocity": 109}, {"time": 2646, "pitch": 42, "duration": 15, "velocity": 104}, {"time": 2646, "pitch": 57, "duration": 6, "velocity": 107}, {"time": 2646, "pitch": 61, "duration": 5, "velocity": 106}, {"time": 2652, "pitch": 49, "duration": 7, "velocity": 47}, {"time": 2658, "pitch": 57, "duration": 5, "velocity": 120}, {"time": 2658, "pitch": 61, "duration": 5, "velocity": 115}, {"time": 2664, "pitch": 54, "duration": 2, "velocity": 109}, {"time": 2670, "pitch": 40, "duration": 13, "velocity": 104}, {"time": 2670, "pitch": 52, "duration": 8, "velocity": 106}, {"time": 2670, "pitch": 56, "duration": 6, "velocity": 106}, {"time": 2676, "pitch": 47, "duration": 7, "velocity": 39}, {"time": 2682, "pitch": 56, "duration": 6, "velocity": 112}, {"time": 2682, "pitch": 59, "duration": 7, "velocity": 106}, {"time": 2688, "pitch": 52, "duration": 3, "velocity": 112}, {"time": 2694, "pitch": 45, "duration": 14, "velocity": 91}, {"time": 2694, "pitch": 57, "duration": 4, "velocity": 104}, {"time": 2694, "pitch": 61, "duration": 4, "velocity": 109}, {"time": 2700, "pitch": 52, "duration": 7, "velocity": 61}, {"time": 2706, "pitch": 57, "duration": 4, "velocity": 113}, {"time": 2706, "pitch": 61, "duration": 3, "velocity": 112}, {"time": 2706, "pitch": 64, "duration": 6, "velocity": 106}, {"time": 2712, "pitch": 45, "duration": 1, "velocity": 110}, {"time": 2718, "pitch": 42, "duration": 21, "velocity": 104}, {"time": 2718, "pitch": 57, "duration": 8, "velocity": 107}, {"time": 2718, "pitch": 61, "duration": 8, "velocity": 109}, {"time": 2724, "pitch": 49, "duration": 10, "velocity": 64}, {"time": 2730, "pitch": 57, "duration": 7, "velocity": 120}, {"time": 2730, "pitch": 61, "duration": 7, "velocity": 112}, {"time": 2736, "pitch": 54, "duration": 5, "velocity": 104}, {"time": 2742, "pitch": 42, "duration": 14, "velocity": 89}, {"time": 2742, "pitch": 57, "duration": 6, "velocity": 113}, {"time": 2742, "pitch": 61, "duration": 7, "velocity": 106}, {"time": 2748, "pitch": 54, "duration": 4, "velocity": 99}, {"time": 2754, "pitch": 54, "duration": 5, "velocity": 109}, {"time": 2754, "pitch": 57, "duration": 4, "velocity": 120}, {"time": 2754, "pitch": 61, "duration": 5, "velocity": 109}, {"time": 2760, "pitch": 42, "duration": 2, "velocity": 104}, {"time": 2766, "pitch": 49, "duration": 21, "velocity": 109}, {"time": 2766, "pitch": 61, "duration": 9, "velocity": 101}, {"time": 2766, "pitch": 64, "duration": 8, "velocity": 101}, {"time": 2772, "pitch": 56, "duration": 7, "velocity": 94}, {"time": 2778, "pitch": 61, "duration": 6, "velocity": 104}, {"time": 2778, "pitch": 64, "duration": 5, "velocity": 112}, {"time": 2778, "pitch": 68, "duration": 5, "velocity": 106}, {"time": 2784, "pitch": 56, "duration": 5, "velocity": 91}, {"time": 2790, "pitch": 49, "duration": 14, "velocity": 91}, {"time": 2790, "pitch": 61, "duration": 9, "velocity": 99}, {"time": 2790, "pitch": 64, "duration": 7, "velocity": 96}, {"time": 2790, "pitch": 68, "duration": 6, "velocity": 96}, {"time": 2790, "pitch": 73, "duration": 5, "velocity": 91}, {"time": 2796, "pitch": 56, "duration": 8, "velocity": 62}, {"time": 2802, "pitch": 61, "duration": 4, "velocity": 104}, {"time": 2802, "pitch": 64, "duration": 4, "velocity": 109}, {"time": 2802, "pitch": 68, "duration": 3, "velocity": 96}, {"time": 2802, "pitch": 73, "duration": 3, "velocity": 99}, {"time": 2808, "pitch": 49, "duration": 2, "velocity": 82}, {"time": 2808, "pitch": 56, "duration": 2, "velocity": 71}, {"time": 2808, "pitch": 61, "duration": 2, "velocity": 104}, {"time": 2808, "pitch": 64, "duration": 2, "velocity": 99}, {"time": 2814, "pitch": 49, "duration": 2, "velocity": 106}, {"time": 2814, "pitch": 56, "duration": 2, "velocity": 106}, {"time": 2814, "pitch": 61, "duration": 2, "velocity": 106}, {"time": 2814, "pitch": 64, "duration": 2, "velocity": 106}, {"time": 2820, "pitch": 49, "duration": 15, "velocity": 104}, {"time": 2820, "pitch": 56, "duration": 15, "velocity": 101}, {"time": 2820, "pitch": 61, "duration": 15, "velocity": 101}, {"time": 2820, "pitch": 64, "duration": 16, "velocity": 101}, {"time": 2820, "pitch": 68, "duration": 15, "velocity": 101}, {"time": 2835, "pitch": 52, "duration": 6, "velocity": 62}, {"time": 2838, "pitch": 40, "duration": 19, "velocity": 101}, {"time": 2838, "pitch": 64, "duration": 7, "velocity": 99}, {"time": 2844, "pitch": 47, "duration": 13, "velocity": 61}, {"time": 2862, "pitch": 42, "duration": 38, "velocity": 106}, {"time": 2862, "pitch": 54, "duration": 11, "velocity": 94}, {"time": 2862, "pitch": 57, "duration": 10, "velocity": 107}, {"time": 2862, "pitch": 61, "duration": 10, "velocity": 106}, {"time": 2868, "pitch": 49, "duration": 7, "velocity": 55}, {"time": 2874, "pitch": 57, "duration": 7, "velocity": 104}, {"time": 2874, "pitch": 61, "duration": 8, "velocity": 106}, {"time": 2880, "pitch": 49, "duration": 7, "velocity": 38}, {"time": 2886, "pitch": 57, "duration": 9, "velocity": 93}, {"time": 2886, "pitch": 61, "duration": 8, "velocity": 101}, {"time": 2886, "pitch": 66, "duration": 9, "velocity": 101}, {"time": 2892, "pitch": 49, "duration": 7, "velocity": 54}, {"time": 2898, "pitch": 57, "duration": 8, "velocity": 120}, {"time": 2898, "pitch": 61, "duration": 9, "velocity": 115}, {"time": 2898, "pitch": 66, "duration": 8, "velocity": 104}, {"time": 2904, "pitch": 42, "duration": 3, "velocity": 104}, {"time": 2910, "pitch": 45, "duration": 14, "velocity": 93}, {"time": 2910, "pitch": 57, "duration": 7, "velocity": 101}, {"time": 2910, "pitch": 61, "duration": 8, "velocity": 104}, {"time": 2916, "pitch": 52, "duration": 8, "velocity": 46}, {"time": 2922, "pitch": 57, "duration": 10, "velocity": 113}, {"time": 2922, "pitch": 61, "duration": 10, "velocity": 106}, {"time": 2922, "pitch": 64, "duration": 10, "velocity": 101}], "annotations": [{"time": 66, "annotation": {"number": 64, "value": 127}, "group": "control_change"}, {"time": 76, "annotation": {"number": 64, "value": 0}, "group": "control_change"}, {"time": 82, "annotation": {"number": 64, "value": 127}, "group": "control_change"}, {"time": 123, "annotation": {"number": 64, "value": 0}, "group": "control_change"}, {"time": 128, "annotation": {"number": 64, "value": 127}, "group": "control_change"}, {"time": 173, "annotation": {"number": 64, "value": 0}, "group": "control_change"}, {"time": 199, "annotation": {"number": 64, "value": 127}, "group": "control_change"}, {"time": 219, "annotation": {"number": 64, "value": 0}, "group": "control_change"}, {"time": 225, "annotation": {"number": 64, "value": 127}, "group": "control_change"}, {"time": 270, "annotation": {"number": 64, "value": 0}, "group": "control_change"}, {"time": 277, "annotation": {"number": 64, "value": 127}, "group": "control_change"}, {"time": 318, "annotation": {"number": 64, "value": 0}, "group": "control_change"}, {"time": 324, "annotation": {"number": 64, "value": 127}, "group": "control_change"}, {"time": 342, "annotation": {"number": 64, "value": 0}, "group": "control_change"}, {"time": 348, "annotation": {"number": 64, "value": 127}, "group": "control_change"}, {"time": 365, "annotation": {"number": 64, "value": 0}, "group": "control_change"}, {"time": 373, "annotation": {"number": 64, "value": 127}, "group": "control_change"}, {"time": 390, "annotation": {"number": 64, "value": 0}, "group": "control_change"}, {"time": 394, "annotation": {"number": 64, "value": 127}, "group": "control_change"}, {"time": 412, "annotation": {"number": 64, "value": 0}, "group": "control_change"}, {"time": 421, "annotation": {"number": 64, "value": 127}, "group": "control_change"}, {"time": 439, "annotation": {"number": 64, "value": 0}, "group": "control_change"}, {"time": 446, "annotation": {"number": 64, "value": 127}, "group": "control_change"}, {"time": 461, "annotation": {"number": 64, "value": 0}, "group": "control_change"}, {"time": 468, "annotation": {"number": 64, "value": 127}, "group": "control_change"}, {"time": 488, "annotation": {"number": 64, "value": 0}, "group": "control_change"}, {"time": 494, "annotation": {"number": 64, "value": 127}, "group": "control_change"}, {"time": 510, "annotation": {"number": 64, "value": 0}, "group": "control_change"}, {"time": 516, "annotation": {"number": 64, "value": 127}, "group": "control_change"}, {"time": 534, "annotation": {"number": 64, "value": 0}, "group": "control_change"}, {"time": 541, "annotation": {"number": 64, "value": 127}, "group": "control_change"}, {"time": 556, "annotation": {"number": 64, "value": 0}, "group": "control_change"}, {"time": 562, "annotation": {"number": 64, "value": 127}, "group": "control_change"}, {"time": 582, "annotation": {"number": 64, "value": 0}, "group": "control_change"}, {"time": 588, "annotation": {"number": 64, "value": 127}, "group": "control_change"}, {"time": 605, "annotation": {"number": 64, "value": 0}, "group": "control_change"}, {"time": 613, "annotation": {"number": 64, "value": 127}, "group": "control_change"}, {"time": 629, "annotation": {"number": 64, "value": 0}, "group": "control_change"}, {"time": 635, "annotation": {"number": 64, "value": 127}, "group": "control_change"}, {"time": 653, "annotation": {"number": 64, "value": 0}, "group": "control_change"}, {"time": 659, "annotation": {"number": 64, "value": 127}, "group": "control_change"}, {"time": 678, "annotation": {"number": 64, "value": 0}, "group": "control_change"}, {"time": 684, "annotation": {"number": 64, "value": 127}, "group": "control_change"}, {"time": 701, "annotation": {"number": 64, "value": 0}, "group": "control_change"}, {"time": 708, "annotation": {"number": 64, "value": 127}, "group": "control_change"}, {"time": 726, "annotation": {"number": 64, "value": 0}, "group": "control_change"}, {"time": 732, "annotation": {"number": 64, "value": 127}, "group": "control_change"}, {"time": 749, "annotation": {"number": 64, "value": 0}, "group": "control_change"}, {"time": 756, "annotation": {"number": 64, "value": 127}, "group": "control_change"}, {"time": 805, "annotation": {"number": 64, "value": 127}, "group": "control_change"}, {"time": 823, "annotation": {"number": 64, "value": 0}, "group": "control_change"}, {"time": 830, "annotation": {"number": 64, "value": 127}, "group": "control_change"}, {"time": 845, "annotation": {"number": 64, "value": 0}, "group": "control_change"}, {"time": 852, "annotation": {"number": 64, "value": 127}, "group": "control_change"}, {"time": 872, "annotation": {"number": 64, "value": 0}, "group": "control_change"}, {"time": 878, "annotation": {"number": 64, "value": 127}, "group": "control_change"}, {"time": 894, "annotation": {"number": 64, "value": 0}, "group": "control_change"}, {"time": 900, "annotation": {"number": 64, "value": 127}, "group": "control_change"}, {"time": 918, "annotation": {"number": 64, "value": 0}, "group": "control_change"}, {"time": 925, "annotation": {"number": 64, "value": 127}, "group": "control_change"}, {"time": 940, "annotation": {"number": 64, "value": 0}, "group": "control_change"}, {"time": 946, "annotation": {"number": 64, "value": 127}, "group": "control_change"}, {"time": 966, "annotation": {"number": 64, "value": 0}, "group": "control_change"}, {"time": 972, "annotation": {"number": 64, "value": 127}, "group": "control_change"}, {"time": 989, "annotation": {"number": 64, "value": 0}, "group": "control_change"}, {"time": 997, "annotation": {"number": 64, "value": 127}, "group": "control_change"}, {"time": 1013, "annotation": {"number": 64, "value": 0}, "group": "control_change"}, {"time": 1019, "annotation": {"number": 64, "value": 127}, "group": "control_change"}, {"time": 1037, "annotation": {"number": 64, "value": 0}, "group": "control_change"}, {"time": 1043, "annotation": {"number": 64, "value": 127}, "group": "control_change"}, {"time": 1062, "annotation": {"number": 64, "value": 0}, "group": "control_change"}, {"time": 1068, "annotation": {"number": 64, "value": 127}, "group": "control_change"}, {"time": 1085, "annotation": {"number": 64, "value": 0}, "group": "control_change"}, {"time": 1092, "annotation": {"number": 64, "value": 127}, "group": "control_change"}, {"time": 1110, "annotation": {"number": 64, "value": 0}, "group": "control_change"}, {"time": 1116, "annotation": {"number": 64, "value": 127}, "group": "control_change"}, {"time": 1133, "annotation": {"number": 64, "value": 0}, "group": "control_change"}, {"time": 1140, "annotation": {"number": 64, "value": 127}, "group": "control_change"}, {"time": 1189, "annotation": {"number": 64, "value": 127}, "group": "control_change"}, {"time": 1206, "annotation": {"number": 64, "value": 0}, "group": "control_change"}, {"time": 1211, "annotation": {"number": 64, "value": 127}, "group": "control_change"}, {"time": 1229, "annotation": {"number": 64, "value": 0}, "group": "control_change"}, {"time": 1235, "annotation": {"number": 64, "value": 127}, "group": "control_change"}, {"time": 1253, "annotation": {"number": 64, "value": 0}, "group": "control_change"}, {"time": 1257, "annotation": {"number": 64, "value": 127}, "group": "control_change"}, {"time": 1277, "annotation": {"number": 64, "value": 0}, "group": "control_change"}, {"time": 1284, "annotation": {"number": 64, "value": 127}, "group": "control_change"}, {"time": 1302, "annotation": {"number": 64, "value": 0}, "group": "control_change"}, {"time": 1308, "annotation": {"number": 64, "value": 127}, "group": "control_change"}, {"time": 1325, "annotation": {"number": 64, "value": 0}, "group": "control_change"}, {"time": 1330, "annotation": {"number": 64, "value": 127}, "group": "control_change"}, {"time": 1350, "annotation": {"number": 64, "value": 0}, "group": "control_change"}, {"time": 1353, "annotation": {"number": 64, "value": 127}, "group": "control_change"}, {"time": 1374, "annotation": {"number": 64, "value": 0}, "group": "control_change"}, {"time": 1381, "annotation": {"number": 64, "value": 127}, "group": "control_change"}, {"time": 1397, "annotation": {"number": 64, "value": 0}, "group": "control_change"}, {"time": 1404, "annotation": {"number": 64, "value": 127}, "group": "control_change"}, {"time": 1421, "annotation": {"number": 64, "value": 0}, "group": "control_change"}, {"time": 1427, "annotation": {"number": 64, "value": 127}, "group": "control_change"}, {"time": 1446, "annotation": {"number": 64, "value": 0}, "group": "control_change"}, {"time": 1451, "annotation": {"number": 64, "value": 127}, "group": "control_change"}, {"time": 1468, "annotation": {"number": 64, "value": 0}, "group": "control_change"}, {"time": 1471, "annotation": {"number": 64, "value": 127}, "group": "control_change"}, {"time": 1493, "annotation": {"number": 64, "value": 0}, "group": "control_change"}, {"time": 1499, "annotation": {"number": 64, "value": 127}, "group": "control_change"}, {"time": 1517, "annotation": {"number": 64, "value": 0}, "group": "control_change"}, {"time": 1523, "annotation": {"number": 64, "value": 127}, "group": "control_change"}, {"time": 1542, "annotation": {"number": 64, "value": 0}, "group": "control_change"}, {"time": 1545, "annotation": {"number": 64, "value": 127}, "group": "control_change"}, {"time": 1564, "annotation": {"number": 64, "value": 0}, "group": "control_change"}, {"time": 1573, "annotation": {"number": 64, "value": 127}, "group": "control_change"}, {"time": 1590, "annotation": {"number": 64, "value": 0}, "group": "control_change"}, {"time": 1595, "annotation": {"number": 64, "value": 127}, "group": "control_change"}, {"time": 1613, "annotation": {"number": 64, "value": 0}, "group": "control_change"}, {"time": 1619, "annotation": {"number": 64, "value": 127}, "group": "control_change"}, {"time": 1637, "annotation": {"number": 64, "value": 0}, "group": "control_change"}, {"time": 1641, "annotation": {"number": 64, "value": 127}, "group": "control_change"}, {"time": 1661, "annotation": {"number": 64, "value": 0}, "group": "control_change"}, {"time": 1668, "annotation": {"number": 64, "value": 127}, "group": "control_change"}, {"time": 1686, "annotation": {"number": 64, "value": 0}, "group": "control_change"}, {"time": 1692, "annotation": {"number": 64, "value": 127}, "group": "control_change"}, {"time": 1709, "annotation": {"number": 64, "value": 0}, "group": "control_change"}, {"time": 1714, "annotation": {"number": 64, "value": 127}, "group": "control_change"}, {"time": 1733, "annotation": {"number": 64, "value": 0}, "group": "control_change"}, {"time": 1734, "annotation": {"number": 64, "value": 127}, "group": "control_change"}, {"time": 1750, "annotation": {"number": 64, "value": 0}, "group": "control_change"}, {"time": 1784, "annotation": {"number": 64, "value": 127}, "group": "control_change"}, {"time": 1802, "annotation": {"number": 64, "value": 0}, "group": "control_change"}, {"time": 1810, "annotation": {"number": 64, "value": 127}, "group": "control_change"}, {"time": 1830, "annotation": {"number": 64, "value": 0}, "group": "control_change"}, {"time": 1832, "annotation": {"number": 64, "value": 127}, "group": "control_change"}, {"time": 1852, "annotation": {"number": 64, "value": 0}, "group": "control_change"}, {"time": 1861, "annotation": {"number": 64, "value": 127}, "group": "control_change"}, {"time": 1879, "annotation": {"number": 64, "value": 0}, "group": "control_change"}, {"time": 1886, "annotation": {"number": 64, "value": 127}, "group": "control_change"}, {"time": 1901, "annotation": {"number": 64, "value": 0}, "group": "control_change"}, {"time": 1908, "annotation": {"number": 64, "value": 127}, "group": "control_change"}, {"time": 1928, "annotation": {"number": 64, "value": 0}, "group": "control_change"}, {"time": 1934, "annotation": {"number": 64, "value": 127}, "group": "control_change"}, {"time": 1950, "annotation": {"number": 64, "value": 0}, "group": "control_change"}, {"time": 1956, "annotation": {"number": 64, "value": 127}, "group": "control_change"}, {"time": 1974, "annotation": {"number": 64, "value": 0}, "group": "control_change"}, {"time": 1981, "annotation": {"number": 64, "value": 127}, "group": "control_change"}, {"time": 1996, "annotation": {"number": 64, "value": 0}, "group": "control_change"}, {"time": 2002, "annotation": {"number": 64, "value": 127}, "group": "control_change"}, {"time": 2022, "annotation": {"number": 64, "value": 0}, "group": "control_change"}, {"time": 2028, "annotation": {"number": 64, "value": 127}, "group": "control_change"}, {"time": 2045, "annotation": {"number": 64, "value": 0}, "group": "control_change"}, {"time": 2053, "annotation": {"number": 64, "value": 127}, "group": "control_change"}, {"time": 2069, "annotation": {"number": 64, "value": 0}, "group": "control_change"}, {"time": 2075, "annotation": {"number": 64, "value": 127}, "group": "control_change"}, {"time": 2093, "annotation": {"number": 64, "value": 0}, "group": "control_change"}, {"time": 2099, "annotation": {"number": 64, "value": 127}, "group": "control_change"}, {"time": 2118, "annotation": {"number": 64, "value": 0}, "group": "control_change"}, {"time": 2124, "annotation": {"number": 64, "value": 127}, "group": "control_change"}, {"time": 2141, "annotation": {"number": 64, "value": 0}, "group": "control_change"}, {"time": 2148, "annotation": {"number": 64, "value": 127}, "group": "control_change"}, {"time": 2166, "annotation": {"number": 64, "value": 0}, "group": "control_change"}, {"time": 2172, "annotation": {"number": 64, "value": 127}, "group": "control_change"}, {"time": 2189, "annotation": {"number": 64, "value": 0}, "group": "control_change"}, {"time": 2191, "annotation": {"number": 64, "value": 127}, "group": "control_change"}, {"time": 2214, "annotation": {"number": 64, "value": 0}, "group": "control_change"}, {"time": 2216, "annotation": {"number": 64, "value": 127}, "group": "control_change"}, {"time": 2230, "annotation": {"number": 64, "value": 0}, "group": "control_change"}, {"time": 2232, "annotation": {"number": 64, "value": 127}, "group": "control_change"}, {"time": 2236, "annotation": {"number": 64, "value": 0}, "group": "control_change"}, {"time": 2245, "annotation": {"number": 64, "value": 127}, "group": "control_change"}, {"time": 2262, "annotation": {"number": 64, "value": 0}, "group": "control_change"}, {"time": 2267, "annotation": {"number": 64, "value": 127}, "group": "control_change"}, {"time": 2285, "annotation": {"number": 64, "value": 0}, "group": "control_change"}, {"time": 2291, "annotation": {"number": 64, "value": 127}, "group": "control_change"}, {"time": 2309, "annotation": {"number": 64, "value": 0}, "group": "control_change"}, {"time": 2313, "annotation": {"number": 64, "value": 127}, "group": "control_change"}, {"time": 2333, "annotation": {"number": 64, "value": 0}, "group": "control_change"}, {"time": 2340, "annotation": {"number": 64, "value": 127}, "group": "control_change"}, {"time": 2358, "annotation": {"number": 64, "value": 0}, "group": "control_change"}, {"time": 2364, "annotation": {"number": 64, "value": 127}, "group": "control_change"}, {"time": 2381, "annotation": {"number": 64, "value": 0}, "group": "control_change"}, {"time": 2386, "annotation": {"number": 64, "value": 127}, "group": "control_change"}, {"time": 2406, "annotation": {"number": 64, "value": 0}, "group": "control_change"}, {"time": 2409, "annotation": {"number": 64, "value": 127}, "group": "control_change"}, {"time": 2430, "annotation": {"number": 64, "value": 0}, "group": "control_change"}, {"time": 2437, "annotation": {"number": 64, "value": 127}, "group": "control_change"}, {"time": 2453, "annotation": {"number": 64, "value": 0}, "group": "control_change"}, {"time": 2460, "annotation": {"number": 64, "value": 127}, "group": "control_change"}, {"time": 2477, "annotation": {"number": 64, "value": 0}, "group": "control_change"}, {"time": 2483, "annotation": {"number": 64, "value": 127}, "group": "control_change"}, {"time": 2502, "annotation": {"number": 64, "value": 0}, "group": "control_change"}, {"time": 2507, "annotation": {"number": 64, "value": 127}, "group": "control_change"}, {"time": 2524, "annotation": {"number": 64, "value": 0}, "group": "control_change"}, {"time": 2527, "annotation": {"number": 64, "value": 127}, "group": "control_change"}, {"time": 2549, "annotation": {"number": 64, "value": 0}, "group": "control_change"}, {"time": 2555, "annotation": {"number": 64, "value": 127}, "group": "control_change"}, {"time": 2573, "annotation": {"number": 64, "value": 0}, "group": "control_change"}, {"time": 2579, "annotation": {"number": 64, "value": 127}, "group": "control_change"}, {"time": 2598, "annotation": {"number": 64, "value": 0}, "group": "control_change"}, {"time": 2601, "annotation": {"number": 64, "value": 127}, "group": "control_change"}, {"time": 2620, "annotation": {"number": 64, "value": 0}, "group": "control_change"}, {"time": 2629, "annotation": {"number": 64, "value": 127}, "group": "control_change"}, {"time": 2646, "annotation": {"number": 64, "value": 0}, "group": "control_change"}, {"time": 2651, "annotation": {"number": 64, "value": 127}, "group": "control_change"}, {"time": 2669, "annotation": {"number": 64, "value": 0}, "group": "control_change"}, {"time": 2675, "annotation": {"number": 64, "value": 127}, "group": "control_change"}, {"time": 2693, "annotation": {"number": 64, "value": 0}, "group": "control_change"}, {"time": 2697, "annotation": {"number": 64, "value": 127}, "group": "control_change"}, {"time": 2717, "annotation": {"number": 64, "value": 0}, "group": "control_change"}, {"time": 2724, "annotation": {"number": 64, "value": 127}, "group": "control_change"}, {"time": 2742, "annotation": {"number": 64, "value": 0}, "group": "control_change"}, {"time": 2748, "annotation": {"number": 64, "value": 127}, "group": "control_change"}, {"time": 2765, "annotation": {"number": 64, "value": 0}, "group": "control_change"}, {"time": 2770, "annotation": {"number": 64, "value": 127}, "group": "control_change"}, {"time": 2789, "annotation": {"number": 64, "value": 0}, "group": "control_change"}, {"time": 2790, "annotation": {"number": 64, "value": 127}, "group": "control_change"}, {"time": 2806, "annotation": {"number": 64, "value": 0}, "group": "control_change"}, {"time": 2840, "annotation": {"number": 64, "value": 127}, "group": "control_change"}, {"time": 2858, "annotation": {"number": 64, "value": 0}, "group": "control_change"}, {"time": 2869, "annotation": {"number": 64, "value": 127}, "group": "control_change"}, {"time": 2899, "annotation": {"number": 64, "value": 0}, "group": "control_change"}, {"time": 2904, "annotation": {"number": 64, "value": 127}, "group": "control_change"}, {"time": 2909, "annotation": {"number": 64, "value": 0}, "group": "control_change"}, {"time": 2914, "annotation": {"number": 64, "value": 127}, "group": "control_change"}, {"time": 2934, "annotation": {"number": 64, "value": 0}, "group": "control_change"}, {"time": 2939, "annotation": {"number": 64, "value": 127}, "group": "control_change"}]}]}