{"metadata": {"schema_version": "0.2", "title": "None", "source_filename": "019.mid", "source_format": "midi"}, "resolution": 12, "tempos": [{"time": 0, "qpm": 61.000096583486254}], "time_signatures": [{"time": 0, "numerator": 2, "denominator": 4}], "tracks": [{"program": 4, "is_drum": false, "name": "MELODY", "notes": [{"time": 194, "pitch": 74, "duration": 5, "velocity": 102}, {"time": 200, "pitch": 62, "duration": 2, "velocity": 105}, {"time": 203, "pitch": 64, "duration": 2, "velocity": 92}, {"time": 206, "pitch": 66, "duration": 5, "velocity": 105}, {"time": 212, "pitch": 71, "duration": 4, "velocity": 102}, {"time": 218, "pitch": 69, "duration": 14, "velocity": 66}, {"time": 242, "pitch": 67, "duration": 4, "velocity": 105}, {"time": 248, "pitch": 66, "duration": 3, "velocity": 99}, {"time": 251, "pitch": 62, "duration": 8, "velocity": 100}, {"time": 260, "pitch": 66, "duration": 5, "velocity": 93}, {"time": 266, "pitch": 64, "duration": 19, "velocity": 111}, {"time": 290, "pitch": 74, "duration": 4, "velocity": 102}, {"time": 296, "pitch": 62, "duration": 2, "velocity": 100}, {"time": 299, "pitch": 64, "duration": 2, "velocity": 97}, {"time": 302, "pitch": 66, "duration": 5, "velocity": 102}, {"time": 308, "pitch": 71, "duration": 4, "velocity": 102}, {"time": 314, "pitch": 73, "duration": 8, "velocity": 99}, {"time": 323, "pitch": 69, "duration": 9, "velocity": 105}, {"time": 332, "pitch": 66, "duration": 2, "velocity": 105}, {"time": 335, "pitch": 71, "duration": 15, "velocity": 100}, {"time": 362, "pitch": 73, "duration": 2, "velocity": 99}, {"time": 365, "pitch": 73, "duration": 2, "velocity": 68}, {"time": 368, "pitch": 73, "duration": 2, "velocity": 93}, {"time": 371, "pitch": 74, "duration": 2, "velocity": 97}, {"time": 374, "pitch": 76, "duration": 2, "velocity": 94}, {"time": 377, "pitch": 74, "duration": 2, "velocity": 87}, {"time": 380, "pitch": 73, "duration": 4, "velocity": 102}, {"time": 386, "pitch": 74, "duration": 6, "velocity": 97}, {"time": 392, "pitch": 73, "duration": 2, "velocity": 102}, {"time": 395, "pitch": 74, "duration": 3, "velocity": 102}, {"time": 401, "pitch": 78, "duration": 6, "velocity": 105}, {"time": 410, "pitch": 73, "duration": 5, "velocity": 105}, {"time": 416, "pitch": 71, "duration": 2, "velocity": 108}, {"time": 419, "pitch": 73, "duration": 5, "velocity": 96}, {"time": 425, "pitch": 69, "duration": 6, "velocity": 108}, {"time": 434, "pitch": 71, "duration": 2, "velocity": 102}, {"time": 437, "pitch": 71, "duration": 2, "velocity": 105}, {"time": 440, "pitch": 73, "duration": 2, "velocity": 105}, {"time": 443, "pitch": 74, "duration": 2, "velocity": 76}, {"time": 446, "pitch": 76, "duration": 2, "velocity": 105}, {"time": 449, "pitch": 74, "duration": 2, "velocity": 100}, {"time": 452, "pitch": 76, "duration": 2, "velocity": 105}, {"time": 455, "pitch": 79, "duration": 2, "velocity": 102}, {"time": 458, "pitch": 78, "duration": 5, "velocity": 109}, {"time": 464, "pitch": 76, "duration": 2, "velocity": 97}, {"time": 467, "pitch": 76, "duration": 5, "velocity": 108}, {"time": 473, "pitch": 74, "duration": 9, "velocity": 105}, {"time": 482, "pitch": 74, "duration": 5, "velocity": 105}, {"time": 488, "pitch": 73, "duration": 2, "velocity": 105}, {"time": 491, "pitch": 74, "duration": 4, "velocity": 92}, {"time": 497, "pitch": 78, "duration": 5, "velocity": 109}, {"time": 506, "pitch": 73, "duration": 5, "velocity": 105}, {"time": 512, "pitch": 71, "duration": 2, "velocity": 97}, {"time": 515, "pitch": 73, "duration": 5, "velocity": 102}, {"time": 521, "pitch": 69, "duration": 7, "velocity": 92}, {"time": 530, "pitch": 71, "duration": 17, "velocity": 114}, {"time": 554, "pitch": 74, "duration": 2, "velocity": 111}, {"time": 557, "pitch": 74, "duration": 2, "velocity": 100}, {"time": 560, "pitch": 74, "duration": 2, "velocity": 105}, {"time": 563, "pitch": 76, "duration": 2, "velocity": 108}, {"time": 566, "pitch": 78, "duration": 5, "velocity": 109}, {"time": 572, "pitch": 76, "duration": 2, "velocity": 100}, {"time": 575, "pitch": 74, "duration": 5, "velocity": 105}, {"time": 581, "pitch": 76, "duration": 20, "velocity": 102}, {"time": 608, "pitch": 73, "duration": 2, "velocity": 105}, {"time": 611, "pitch": 74, "duration": 4, "velocity": 105}, {"time": 617, "pitch": 76, "duration": 6, "velocity": 114}, {"time": 626, "pitch": 78, "duration": 5, "velocity": 109}, {"time": 632, "pitch": 76, "duration": 2, "velocity": 102}, {"time": 635, "pitch": 74, "duration": 6, "velocity": 109}, {"time": 641, "pitch": 69, "duration": 5, "velocity": 105}, {"time": 647, "pitch": 76, "duration": 15, "velocity": 92}, {"time": 668, "pitch": 78, "duration": 2, "velocity": 105}, {"time": 671, "pitch": 76, "duration": 2, "velocity": 92}, {"time": 674, "pitch": 74, "duration": 4, "velocity": 111}, {"time": 680, "pitch": 73, "duration": 2, "velocity": 93}, {"time": 683, "pitch": 71, "duration": 4, "velocity": 102}, {"time": 689, "pitch": 66, "duration": 4, "velocity": 93}, {"time": 695, "pitch": 73, "duration": 12, "velocity": 96}, {"time": 716, "pitch": 74, "duration": 2, "velocity": 105}, {"time": 719, "pitch": 73, "duration": 2, "velocity": 109}, {"time": 722, "pitch": 71, "duration": 4, "velocity": 105}, {"time": 728, "pitch": 73, "duration": 2, "velocity": 96}, {"time": 731, "pitch": 74, "duration": 4, "velocity": 100}, {"time": 737, "pitch": 76, "duration": 4, "velocity": 105}, {"time": 743, "pitch": 69, "duration": 5, "velocity": 102}, {"time": 749, "pitch": 78, "duration": 6, "velocity": 102}, {"time": 755, "pitch": 78, "duration": 9, "velocity": 105}, {"time": 767, "pitch": 78, "duration": 2, "velocity": 112}, {"time": 770, "pitch": 79, "duration": 4, "velocity": 108}, {"time": 776, "pitch": 78, "duration": 2, "velocity": 112}, {"time": 779, "pitch": 74, "duration": 5, "velocity": 108}, {"time": 785, "pitch": 76, "duration": 5, "velocity": 102}, {"time": 791, "pitch": 76, "duration": 11, "velocity": 111}, {"time": 803, "pitch": 73, "duration": 2, "velocity": 112}, {"time": 806, "pitch": 74, "duration": 2, "velocity": 87}, {"time": 809, "pitch": 76, "duration": 7, "velocity": 111}, {"time": 818, "pitch": 78, "duration": 5, "velocity": 109}, {"time": 824, "pitch": 76, "duration": 2, "velocity": 105}, {"time": 827, "pitch": 74, "duration": 4, "velocity": 108}, {"time": 833, "pitch": 69, "duration": 4, "velocity": 105}, {"time": 839, "pitch": 76, "duration": 11, "velocity": 94}, {"time": 857, "pitch": 76, "duration": 2, "velocity": 102}, {"time": 860, "pitch": 78, "duration": 2, "velocity": 109}, {"time": 863, "pitch": 76, "duration": 2, "velocity": 105}, {"time": 866, "pitch": 74, "duration": 4, "velocity": 111}, {"time": 872, "pitch": 73, "duration": 2, "velocity": 109}, {"time": 875, "pitch": 71, "duration": 4, "velocity": 102}, {"time": 881, "pitch": 76, "duration": 4, "velocity": 97}, {"time": 887, "pitch": 73, "duration": 13, "velocity": 96}, {"time": 908, "pitch": 74, "duration": 2, "velocity": 102}, {"time": 911, "pitch": 73, "duration": 2, "velocity": 102}, {"time": 914, "pitch": 71, "duration": 4, "velocity": 108}, {"time": 920, "pitch": 69, "duration": 2, "velocity": 102}, {"time": 923, "pitch": 71, "duration": 4, "velocity": 108}, {"time": 929, "pitch": 74, "duration": 4, "velocity": 108}, {"time": 935, "pitch": 69, "duration": 5, "velocity": 105}, {"time": 941, "pitch": 76, "duration": 4, "velocity": 97}, {"time": 947, "pitch": 74, "duration": 6, "velocity": 105}, {"time": 956, "pitch": 78, "duration": 2, "velocity": 112}, {"time": 959, "pitch": 78, "duration": 2, "velocity": 93}, {"time": 962, "pitch": 79, "duration": 4, "velocity": 100}, {"time": 968, "pitch": 78, "duration": 2, "velocity": 105}, {"time": 971, "pitch": 76, "duration": 8, "velocity": 100}, {"time": 980, "pitch": 74, "duration": 2, "velocity": 97}, {"time": 983, "pitch": 76, "duration": 2, "velocity": 94}, {"time": 986, "pitch": 77, "duration": 4, "velocity": 102}, {"time": 992, "pitch": 76, "duration": 3, "velocity": 105}, {"time": 995, "pitch": 74, "duration": 2, "velocity": 92}, {"time": 998, "pitch": 77, "duration": 5, "velocity": 100}, {"time": 1004, "pitch": 74, "duration": 2, "velocity": 108}, {"time": 1007, "pitch": 69, "duration": 6, "velocity": 102}, {"time": 1016, "pitch": 74, "duration": 34, "velocity": 97}, {"time": 1250, "pitch": 74, "duration": 6, "velocity": 97}, {"time": 1256, "pitch": 73, "duration": 2, "velocity": 102}, {"time": 1259, "pitch": 74, "duration": 3, "velocity": 102}, {"time": 1265, "pitch": 78, "duration": 6, "velocity": 105}, {"time": 1274, "pitch": 73, "duration": 5, "velocity": 105}, {"time": 1280, "pitch": 71, "duration": 2, "velocity": 108}, {"time": 1283, "pitch": 73, "duration": 5, "velocity": 96}, {"time": 1289, "pitch": 69, "duration": 6, "velocity": 108}, {"time": 1298, "pitch": 71, "duration": 2, "velocity": 102}, {"time": 1301, "pitch": 71, "duration": 2, "velocity": 105}, {"time": 1304, "pitch": 73, "duration": 2, "velocity": 105}, {"time": 1307, "pitch": 74, "duration": 2, "velocity": 76}, {"time": 1310, "pitch": 76, "duration": 2, "velocity": 105}, {"time": 1313, "pitch": 74, "duration": 2, "velocity": 100}, {"time": 1316, "pitch": 76, "duration": 2, "velocity": 105}, {"time": 1319, "pitch": 79, "duration": 2, "velocity": 102}, {"time": 1322, "pitch": 78, "duration": 5, "velocity": 109}, {"time": 1328, "pitch": 76, "duration": 2, "velocity": 97}, {"time": 1331, "pitch": 76, "duration": 5, "velocity": 108}, {"time": 1337, "pitch": 74, "duration": 9, "velocity": 105}, {"time": 1346, "pitch": 74, "duration": 5, "velocity": 105}, {"time": 1352, "pitch": 73, "duration": 2, "velocity": 105}, {"time": 1355, "pitch": 74, "duration": 4, "velocity": 92}, {"time": 1361, "pitch": 78, "duration": 5, "velocity": 109}, {"time": 1370, "pitch": 73, "duration": 5, "velocity": 105}, {"time": 1376, "pitch": 71, "duration": 2, "velocity": 97}, {"time": 1379, "pitch": 73, "duration": 5, "velocity": 102}, {"time": 1385, "pitch": 69, "duration": 7, "velocity": 92}, {"time": 1394, "pitch": 71, "duration": 17, "velocity": 114}, {"time": 1412, "pitch": 74, "duration": 2, "velocity": 111}, {"time": 1415, "pitch": 74, "duration": 2, "velocity": 105}, {"time": 1418, "pitch": 74, "duration": 5, "velocity": 111}, {"time": 1424, "pitch": 76, "duration": 2, "velocity": 105}, {"time": 1427, "pitch": 78, "duration": 2, "velocity": 112}, {"time": 1430, "pitch": 79, "duration": 5, "velocity": 102}, {"time": 1436, "pitch": 78, "duration": 2, "velocity": 105}, {"time": 1439, "pitch": 74, "duration": 8, "velocity": 108}, {"time": 1448, "pitch": 76, "duration": 20, "velocity": 111}, {"time": 1472, "pitch": 73, "duration": 2, "velocity": 105}, {"time": 1475, "pitch": 74, "duration": 4, "velocity": 105}, {"time": 1481, "pitch": 76, "duration": 6, "velocity": 114}, {"time": 1490, "pitch": 78, "duration": 5, "velocity": 109}, {"time": 1496, "pitch": 76, "duration": 2, "velocity": 102}, {"time": 1499, "pitch": 74, "duration": 6, "velocity": 109}, {"time": 1505, "pitch": 69, "duration": 5, "velocity": 105}, {"time": 1511, "pitch": 76, "duration": 15, "velocity": 92}, {"time": 1532, "pitch": 78, "duration": 2, "velocity": 105}, {"time": 1535, "pitch": 76, "duration": 2, "velocity": 92}, {"time": 1538, "pitch": 74, "duration": 4, "velocity": 111}, {"time": 1544, "pitch": 73, "duration": 2, "velocity": 93}, {"time": 1547, "pitch": 71, "duration": 4, "velocity": 102}, {"time": 1553, "pitch": 66, "duration": 4, "velocity": 93}, {"time": 1559, "pitch": 73, "duration": 12, "velocity": 96}, {"time": 1580, "pitch": 74, "duration": 2, "velocity": 105}, {"time": 1583, "pitch": 73, "duration": 2, "velocity": 109}, {"time": 1586, "pitch": 71, "duration": 4, "velocity": 105}, {"time": 1592, "pitch": 73, "duration": 2, "velocity": 96}, {"time": 1595, "pitch": 74, "duration": 4, "velocity": 100}, {"time": 1601, "pitch": 76, "duration": 4, "velocity": 105}, {"time": 1607, "pitch": 69, "duration": 5, "velocity": 102}, {"time": 1613, "pitch": 78, "duration": 6, "velocity": 102}, {"time": 1619, "pitch": 78, "duration": 9, "velocity": 105}, {"time": 1631, "pitch": 78, "duration": 2, "velocity": 112}, {"time": 1634, "pitch": 79, "duration": 4, "velocity": 108}, {"time": 1640, "pitch": 78, "duration": 2, "velocity": 112}, {"time": 1643, "pitch": 74, "duration": 5, "velocity": 108}, {"time": 1649, "pitch": 76, "duration": 5, "velocity": 102}, {"time": 1655, "pitch": 76, "duration": 11, "velocity": 111}, {"time": 1667, "pitch": 73, "duration": 2, "velocity": 112}, {"time": 1670, "pitch": 74, "duration": 2, "velocity": 87}, {"time": 1673, "pitch": 76, "duration": 7, "velocity": 111}, {"time": 1682, "pitch": 78, "duration": 5, "velocity": 109}, {"time": 1688, "pitch": 76, "duration": 2, "velocity": 105}, {"time": 1691, "pitch": 74, "duration": 4, "velocity": 108}, {"time": 1697, "pitch": 69, "duration": 4, "velocity": 105}, {"time": 1703, "pitch": 76, "duration": 11, "velocity": 94}, {"time": 1721, "pitch": 76, "duration": 2, "velocity": 102}, {"time": 1724, "pitch": 78, "duration": 2, "velocity": 109}, {"time": 1727, "pitch": 76, "duration": 2, "velocity": 105}, {"time": 1730, "pitch": 74, "duration": 4, "velocity": 111}, {"time": 1736, "pitch": 73, "duration": 2, "velocity": 109}, {"time": 1739, "pitch": 71, "duration": 4, "velocity": 102}, {"time": 1745, "pitch": 76, "duration": 4, "velocity": 97}, {"time": 1751, "pitch": 73, "duration": 13, "velocity": 96}, {"time": 1772, "pitch": 74, "duration": 2, "velocity": 102}, {"time": 1775, "pitch": 73, "duration": 2, "velocity": 102}, {"time": 1778, "pitch": 71, "duration": 4, "velocity": 108}, {"time": 1784, "pitch": 69, "duration": 2, "velocity": 102}, {"time": 1787, "pitch": 71, "duration": 4, "velocity": 108}, {"time": 1793, "pitch": 74, "duration": 4, "velocity": 108}, {"time": 1799, "pitch": 69, "duration": 5, "velocity": 105}, {"time": 1805, "pitch": 76, "duration": 4, "velocity": 97}, {"time": 1811, "pitch": 74, "duration": 6, "velocity": 105}, {"time": 1820, "pitch": 78, "duration": 2, "velocity": 112}, {"time": 1823, "pitch": 78, "duration": 2, "velocity": 93}, {"time": 1826, "pitch": 79, "duration": 4, "velocity": 100}, {"time": 1832, "pitch": 78, "duration": 2, "velocity": 105}, {"time": 1835, "pitch": 76, "duration": 8, "velocity": 100}, {"time": 1844, "pitch": 74, "duration": 2, "velocity": 97}, {"time": 1847, "pitch": 76, "duration": 2, "velocity": 94}, {"time": 1850, "pitch": 77, "duration": 4, "velocity": 102}, {"time": 1856, "pitch": 76, "duration": 3, "velocity": 105}, {"time": 1859, "pitch": 74, "duration": 2, "velocity": 92}, {"time": 1862, "pitch": 77, "duration": 5, "velocity": 100}, {"time": 1868, "pitch": 74, "duration": 2, "velocity": 108}, {"time": 1871, "pitch": 69, "duration": 6, "velocity": 102}, {"time": 1880, "pitch": 74, "duration": 34, "velocity": 97}, {"time": 1979, "pitch": 71, "duration": 2, "velocity": 114}, {"time": 1982, "pitch": 83, "duration": 7, "velocity": 114}, {"time": 1991, "pitch": 80, "duration": 3, "velocity": 105}, {"time": 1994, "pitch": 78, "duration": 13, "velocity": 99}, {"time": 2015, "pitch": 80, "duration": 3, "velocity": 93}, {"time": 2018, "pitch": 78, "duration": 5, "velocity": 105}, {"time": 2024, "pitch": 76, "duration": 16, "velocity": 105}, {"time": 2042, "pitch": 75, "duration": 3, "velocity": 109}, {"time": 2045, "pitch": 73, "duration": 3, "velocity": 105}, {"time": 2048, "pitch": 71, "duration": 12, "velocity": 105}, {"time": 2060, "pitch": 76, "duration": 2, "velocity": 102}, {"time": 2063, "pitch": 75, "duration": 2, "velocity": 112}, {"time": 2066, "pitch": 73, "duration": 4, "velocity": 105}, {"time": 2072, "pitch": 75, "duration": 2, "velocity": 109}, {"time": 2075, "pitch": 76, "duration": 4, "velocity": 100}, {"time": 2081, "pitch": 78, "duration": 4, "velocity": 105}, {"time": 2087, "pitch": 71, "duration": 5, "velocity": 117}, {"time": 2093, "pitch": 80, "duration": 4, "velocity": 109}, {"time": 2099, "pitch": 80, "duration": 7, "velocity": 109}, {"time": 2111, "pitch": 80, "duration": 2, "velocity": 99}, {"time": 2114, "pitch": 81, "duration": 4, "velocity": 105}, {"time": 2120, "pitch": 80, "duration": 2, "velocity": 112}, {"time": 2123, "pitch": 76, "duration": 5, "velocity": 102}, {"time": 2129, "pitch": 80, "duration": 4, "velocity": 105}, {"time": 2135, "pitch": 78, "duration": 11, "velocity": 109}, {"time": 2147, "pitch": 75, "duration": 2, "velocity": 105}, {"time": 2150, "pitch": 76, "duration": 2, "velocity": 94}, {"time": 2153, "pitch": 78, "duration": 7, "velocity": 105}, {"time": 2162, "pitch": 80, "duration": 5, "velocity": 109}, {"time": 2168, "pitch": 78, "duration": 3, "velocity": 109}, {"time": 2171, "pitch": 76, "duration": 4, "velocity": 108}, {"time": 2177, "pitch": 83, "duration": 7, "velocity": 105}, {"time": 2186, "pitch": 78, "duration": 13, "velocity": 96}, {"time": 2201, "pitch": 78, "duration": 2, "velocity": 105}, {"time": 2204, "pitch": 80, "duration": 2, "velocity": 105}, {"time": 2207, "pitch": 78, "duration": 2, "velocity": 105}, {"time": 2210, "pitch": 76, "duration": 5, "velocity": 100}, {"time": 2216, "pitch": 75, "duration": 2, "velocity": 99}, {"time": 2219, "pitch": 73, "duration": 5, "velocity": 105}, {"time": 2225, "pitch": 78, "duration": 4, "velocity": 105}, {"time": 2231, "pitch": 75, "duration": 15, "velocity": 105}, {"time": 2252, "pitch": 76, "duration": 2, "velocity": 100}, {"time": 2255, "pitch": 75, "duration": 2, "velocity": 105}, {"time": 2258, "pitch": 73, "duration": 4, "velocity": 109}, {"time": 2264, "pitch": 71, "duration": 2, "velocity": 108}, {"time": 2267, "pitch": 73, "duration": 4, "velocity": 102}, {"time": 2273, "pitch": 76, "duration": 4, "velocity": 102}, {"time": 2279, "pitch": 71, "duration": 5, "velocity": 108}, {"time": 2285, "pitch": 78, "duration": 5, "velocity": 109}, {"time": 2291, "pitch": 76, "duration": 6, "velocity": 97}, {"time": 2300, "pitch": 80, "duration": 2, "velocity": 102}, {"time": 2303, "pitch": 80, "duration": 2, "velocity": 102}, {"time": 2306, "pitch": 81, "duration": 5, "velocity": 105}, {"time": 2312, "pitch": 80, "duration": 2, "velocity": 109}, {"time": 2315, "pitch": 78, "duration": 8, "velocity": 102}, {"time": 2324, "pitch": 76, "duration": 2, "velocity": 100}, {"time": 2327, "pitch": 78, "duration": 2, "velocity": 99}, {"time": 2330, "pitch": 79, "duration": 5, "velocity": 105}, {"time": 2336, "pitch": 78, "duration": 2, "velocity": 109}, {"time": 2339, "pitch": 76, "duration": 2, "velocity": 89}, {"time": 2342, "pitch": 79, "duration": 5, "velocity": 105}, {"time": 2348, "pitch": 76, "duration": 2, "velocity": 94}, {"time": 2351, "pitch": 71, "duration": 9, "velocity": 111}, {"time": 2360, "pitch": 78, "duration": 6, "velocity": 109}, {"time": 2366, "pitch": 76, "duration": 28, "velocity": 100}, {"time": 2426, "pitch": 79, "duration": 4, "velocity": 108}, {"time": 2432, "pitch": 78, "duration": 3, "velocity": 102}, {"time": 2435, "pitch": 76, "duration": 2, "velocity": 94}, {"time": 2438, "pitch": 79, "duration": 5, "velocity": 105}, {"time": 2444, "pitch": 76, "duration": 21, "velocity": 100}, {"time": 2474, "pitch": 71, "duration": 14, "velocity": 108}, {"time": 2486, "pitch": 78, "duration": 12, "velocity": 105}, {"time": 2498, "pitch": 76, "duration": 47, "velocity": 100}]}, {"program": 0, "is_drum": false, "name": "PIANO", "notes": [{"time": 2, "pitch": 50, "duration": 15, "velocity": 73}, {"time": 2, "pitch": 62, "duration": 9, "velocity": 67}, {"time": 2, "pitch": 66, "duration": 11, "velocity": 70}, {"time": 8, "pitch": 57, "duration": 9, "velocity": 48}, {"time": 14, "pitch": 62, "duration": 6, "velocity": 73}, {"time": 14, "pitch": 66, "duration": 6, "velocity": 90}, {"time": 26, "pitch": 42, "duration": 18, "velocity": 44}, {"time": 26, "pitch": 57, "duration": 8, "velocity": 49}, {"time": 26, "pitch": 61, "duration": 8, "velocity": 23}, {"time": 32, "pitch": 49, "duration": 9, "velocity": 26}, {"time": 38, "pitch": 57, "duration": 7, "velocity": 87}, {"time": 38, "pitch": 66, "duration": 10, "velocity": 52}, {"time": 44, "pitch": 61, "duration": 4, "velocity": 52}, {"time": 47, "pitch": 57, "duration": 2, "velocity": 55}, {"time": 50, "pitch": 43, "duration": 18, "velocity": 78}, {"time": 50, "pitch": 55, "duration": 10, "velocity": 64}, {"time": 50, "pitch": 59, "duration": 9, "velocity": 78}, {"time": 56, "pitch": 50, "duration": 7, "velocity": 46}, {"time": 62, "pitch": 55, "duration": 4, "velocity": 94}, {"time": 62, "pitch": 62, "duration": 7, "velocity": 92}, {"time": 65, "pitch": 50, "duration": 7, "velocity": 73}, {"time": 68, "pitch": 55, "duration": 4, "velocity": 64}, {"time": 71, "pitch": 59, "duration": 3, "velocity": 69}, {"time": 74, "pitch": 45, "duration": 15, "velocity": 80}, {"time": 74, "pitch": 57, "duration": 9, "velocity": 66}, {"time": 74, "pitch": 61, "duration": 6, "velocity": 46}, {"time": 80, "pitch": 52, "duration": 7, "velocity": 43}, {"time": 86, "pitch": 57, "duration": 7, "velocity": 84}, {"time": 86, "pitch": 61, "duration": 7, "velocity": 68}, {"time": 86, "pitch": 64, "duration": 8, "velocity": 84}, {"time": 92, "pitch": 52, "duration": 4, "velocity": 60}, {"time": 95, "pitch": 57, "duration": 2, "velocity": 69}, {"time": 98, "pitch": 50, "duration": 17, "velocity": 97}, {"time": 98, "pitch": 62, "duration": 9, "velocity": 76}, {"time": 98, "pitch": 66, "duration": 11, "velocity": 82}, {"time": 104, "pitch": 57, "duration": 8, "velocity": 51}, {"time": 110, "pitch": 62, "duration": 4, "velocity": 66}, {"time": 110, "pitch": 66, "duration": 7, "velocity": 59}, {"time": 113, "pitch": 57, "duration": 3, "velocity": 67}, {"time": 116, "pitch": 62, "duration": 4, "velocity": 71}, {"time": 119, "pitch": 66, "duration": 5, "velocity": 93}, {"time": 122, "pitch": 42, "duration": 18, "velocity": 82}, {"time": 125, "pitch": 49, "duration": 11, "velocity": 24}, {"time": 128, "pitch": 54, "duration": 3, "velocity": 34}, {"time": 134, "pitch": 54, "duration": 6, "velocity": 85}, {"time": 134, "pitch": 61, "duration": 6, "velocity": 63}, {"time": 140, "pitch": 49, "duration": 2, "velocity": 39}, {"time": 146, "pitch": 43, "duration": 21, "velocity": 94}, {"time": 146, "pitch": 55, "duration": 4, "velocity": 73}, {"time": 146, "pitch": 59, "duration": 4, "velocity": 84}, {"time": 149, "pitch": 50, "duration": 3, "velocity": 76}, {"time": 152, "pitch": 55, "duration": 4, "velocity": 89}, {"time": 155, "pitch": 57, "duration": 5, "velocity": 89}, {"time": 158, "pitch": 59, "duration": 8, "velocity": 84}, {"time": 164, "pitch": 62, "duration": 5, "velocity": 82}, {"time": 170, "pitch": 43, "duration": 23, "velocity": 49}, {"time": 170, "pitch": 55, "duration": 23, "velocity": 57}, {"time": 170, "pitch": 59, "duration": 23, "velocity": 60}, {"time": 170, "pitch": 62, "duration": 23, "velocity": 55}, {"time": 194, "pitch": 50, "duration": 18, "velocity": 80}, {"time": 194, "pitch": 57, "duration": 8, "velocity": 78}, {"time": 194, "pitch": 62, "duration": 8, "velocity": 80}, {"time": 194, "pitch": 66, "duration": 9, "velocity": 54}, {"time": 206, "pitch": 62, "duration": 7, "velocity": 84}, {"time": 206, "pitch": 66, "duration": 8, "velocity": 85}, {"time": 212, "pitch": 57, "duration": 5, "velocity": 89}, {"time": 218, "pitch": 42, "duration": 15, "velocity": 55}, {"time": 218, "pitch": 61, "duration": 9, "velocity": 68}, {"time": 218, "pitch": 66, "duration": 9, "velocity": 77}, {"time": 224, "pitch": 49, "duration": 8, "velocity": 6}, {"time": 230, "pitch": 57, "duration": 4, "velocity": 94}, {"time": 230, "pitch": 61, "duration": 7, "velocity": 96}, {"time": 230, "pitch": 66, "duration": 8, "velocity": 70}, {"time": 236, "pitch": 57, "duration": 2, "velocity": 94}, {"time": 242, "pitch": 52, "duration": 19, "velocity": 73}, {"time": 242, "pitch": 59, "duration": 9, "velocity": 84}, {"time": 242, "pitch": 64, "duration": 9, "velocity": 89}, {"time": 254, "pitch": 59, "duration": 2, "velocity": 94}, {"time": 254, "pitch": 67, "duration": 7, "velocity": 89}, {"time": 257, "pitch": 59, "duration": 6, "velocity": 73}, {"time": 260, "pitch": 64, "duration": 2, "velocity": 82}, {"time": 266, "pitch": 45, "duration": 21, "velocity": 92}, {"time": 266, "pitch": 57, "duration": 9, "velocity": 87}, {"time": 266, "pitch": 61, "duration": 8, "velocity": 50}, {"time": 272, "pitch": 52, "duration": 8, "velocity": 52}, {"time": 278, "pitch": 57, "duration": 4, "velocity": 100}, {"time": 278, "pitch": 64, "duration": 7, "velocity": 94}, {"time": 281, "pitch": 52, "duration": 7, "velocity": 73}, {"time": 284, "pitch": 57, "duration": 4, "velocity": 80}, {"time": 290, "pitch": 50, "duration": 18, "velocity": 67}, {"time": 290, "pitch": 57, "duration": 4, "velocity": 89}, {"time": 290, "pitch": 62, "duration": 10, "velocity": 87}, {"time": 296, "pitch": 57, "duration": 5, "velocity": 51}, {"time": 302, "pitch": 57, "duration": 3, "velocity": 92}, {"time": 302, "pitch": 62, "duration": 6, "velocity": 87}, {"time": 302, "pitch": 66, "duration": 7, "velocity": 57}, {"time": 308, "pitch": 57, "duration": 3, "velocity": 60}, {"time": 314, "pitch": 42, "duration": 15, "velocity": 70}, {"time": 314, "pitch": 57, "duration": 11, "velocity": 80}, {"time": 314, "pitch": 61, "duration": 10, "velocity": 54}, {"time": 320, "pitch": 49, "duration": 9, "velocity": 30}, {"time": 326, "pitch": 57, "duration": 3, "velocity": 92}, {"time": 326, "pitch": 61, "duration": 7, "velocity": 102}, {"time": 326, "pitch": 66, "duration": 7, "velocity": 68}, {"time": 332, "pitch": 57, "duration": 3, "velocity": 94}, {"time": 338, "pitch": 43, "duration": 18, "velocity": 100}, {"time": 338, "pitch": 55, "duration": 4, "velocity": 78}, {"time": 338, "pitch": 59, "duration": 8, "velocity": 80}, {"time": 341, "pitch": 50, "duration": 11, "velocity": 51}, {"time": 344, "pitch": 55, "duration": 7, "velocity": 57}, {"time": 350, "pitch": 59, "duration": 6, "velocity": 105}, {"time": 350, "pitch": 62, "duration": 6, "velocity": 87}, {"time": 353, "pitch": 50, "duration": 4, "velocity": 64}, {"time": 356, "pitch": 55, "duration": 4, "velocity": 84}, {"time": 359, "pitch": 62, "duration": 2, "velocity": 67}, {"time": 362, "pitch": 42, "duration": 12, "velocity": 93}, {"time": 362, "pitch": 54, "duration": 11, "velocity": 90}, {"time": 362, "pitch": 57, "duration": 6, "velocity": 80}, {"time": 362, "pitch": 61, "duration": 9, "velocity": 1}, {"time": 374, "pitch": 46, "duration": 7, "velocity": 46}, {"time": 374, "pitch": 54, "duration": 6, "velocity": 79}, {"time": 374, "pitch": 58, "duration": 7, "velocity": 70}, {"time": 386, "pitch": 47, "duration": 19, "velocity": 100}, {"time": 386, "pitch": 59, "duration": 9, "velocity": 76}, {"time": 386, "pitch": 62, "duration": 9, "velocity": 87}, {"time": 392, "pitch": 54, "duration": 7, "velocity": 41}, {"time": 398, "pitch": 59, "duration": 4, "velocity": 102}, {"time": 398, "pitch": 66, "duration": 9, "velocity": 99}, {"time": 401, "pitch": 54, "duration": 4, "velocity": 70}, {"time": 404, "pitch": 59, "duration": 3, "velocity": 82}, {"time": 410, "pitch": 45, "duration": 19, "velocity": 97}, {"time": 410, "pitch": 57, "duration": 9, "velocity": 87}, {"time": 410, "pitch": 61, "duration": 8, "velocity": 54}, {"time": 416, "pitch": 52, "duration": 8, "velocity": 57}, {"time": 422, "pitch": 57, "duration": 4, "velocity": 111}, {"time": 422, "pitch": 64, "duration": 6, "velocity": 97}, {"time": 425, "pitch": 52, "duration": 7, "velocity": 76}, {"time": 428, "pitch": 57, "duration": 5, "velocity": 84}, {"time": 431, "pitch": 64, "duration": 2, "velocity": 80}, {"time": 434, "pitch": 43, "duration": 15, "velocity": 94}, {"time": 434, "pitch": 55, "duration": 10, "velocity": 82}, {"time": 434, "pitch": 59, "duration": 9, "velocity": 87}, {"time": 440, "pitch": 50, "duration": 8, "velocity": 47}, {"time": 446, "pitch": 55, "duration": 4, "velocity": 84}, {"time": 446, "pitch": 59, "duration": 4, "velocity": 94}, {"time": 446, "pitch": 62, "duration": 4, "velocity": 84}, {"time": 452, "pitch": 43, "duration": 4, "velocity": 94}, {"time": 458, "pitch": 50, "duration": 11, "velocity": 66}, {"time": 458, "pitch": 57, "duration": 4, "velocity": 87}, {"time": 458, "pitch": 66, "duration": 10, "velocity": 68}, {"time": 464, "pitch": 57, "duration": 4, "velocity": 52}, {"time": 470, "pitch": 49, "duration": 11, "velocity": 94}, {"time": 470, "pitch": 57, "duration": 7, "velocity": 97}, {"time": 470, "pitch": 61, "duration": 10, "velocity": 79}, {"time": 476, "pitch": 52, "duration": 5, "velocity": 84}, {"time": 479, "pitch": 57, "duration": 2, "velocity": 92}, {"time": 482, "pitch": 47, "duration": 22, "velocity": 78}, {"time": 482, "pitch": 59, "duration": 5, "velocity": 87}, {"time": 482, "pitch": 62, "duration": 10, "velocity": 94}, {"time": 488, "pitch": 59, "duration": 5, "velocity": 78}, {"time": 494, "pitch": 59, "duration": 4, "velocity": 100}, {"time": 494, "pitch": 62, "duration": 7, "velocity": 100}, {"time": 494, "pitch": 66, "duration": 7, "velocity": 90}, {"time": 497, "pitch": 54, "duration": 5, "velocity": 61}, {"time": 500, "pitch": 59, "duration": 3, "velocity": 89}, {"time": 506, "pitch": 45, "duration": 19, "velocity": 92}, {"time": 506, "pitch": 57, "duration": 11, "velocity": 92}, {"time": 506, "pitch": 61, "duration": 10, "velocity": 82}, {"time": 512, "pitch": 52, "duration": 8, "velocity": 76}, {"time": 518, "pitch": 57, "duration": 6, "velocity": 97}, {"time": 518, "pitch": 61, "duration": 6, "velocity": 96}, {"time": 518, "pitch": 64, "duration": 11, "velocity": 97}, {"time": 524, "pitch": 52, "duration": 6, "velocity": 87}, {"time": 530, "pitch": 43, "duration": 19, "velocity": 94}, {"time": 530, "pitch": 55, "duration": 10, "velocity": 73}, {"time": 530, "pitch": 59, "duration": 9, "velocity": 82}, {"time": 536, "pitch": 50, "duration": 8, "velocity": 66}, {"time": 542, "pitch": 55, "duration": 4, "velocity": 102}, {"time": 542, "pitch": 62, "duration": 8, "velocity": 97}, {"time": 545, "pitch": 50, "duration": 8, "velocity": 78}, {"time": 548, "pitch": 55, "duration": 4, "velocity": 84}, {"time": 551, "pitch": 59, "duration": 2, "velocity": 69}, {"time": 554, "pitch": 43, "duration": 7, "velocity": 100}, {"time": 554, "pitch": 55, "duration": 6, "velocity": 92}, {"time": 554, "pitch": 59, "duration": 6, "velocity": 97}, {"time": 566, "pitch": 42, "duration": 7, "velocity": 85}, {"time": 566, "pitch": 57, "duration": 6, "velocity": 79}, {"time": 566, "pitch": 61, "duration": 7, "velocity": 90}, {"time": 578, "pitch": 52, "duration": 16, "velocity": 100}, {"time": 578, "pitch": 64, "duration": 7, "velocity": 69}, {"time": 578, "pitch": 67, "duration": 10, "velocity": 84}, {"time": 584, "pitch": 59, "duration": 6, "velocity": 66}, {"time": 587, "pitch": 62, "duration": 5, "velocity": 97}, {"time": 590, "pitch": 67, "duration": 7, "velocity": 111}, {"time": 593, "pitch": 59, "duration": 5, "velocity": 100}, {"time": 596, "pitch": 62, "duration": 6, "velocity": 89}, {"time": 599, "pitch": 67, "duration": 3, "velocity": 80}, {"time": 602, "pitch": 45, "duration": 23, "velocity": 102}, {"time": 602, "pitch": 57, "duration": 9, "velocity": 78}, {"time": 602, "pitch": 61, "duration": 9, "velocity": 59}, {"time": 602, "pitch": 64, "duration": 9, "velocity": 92}, {"time": 608, "pitch": 52, "duration": 9, "velocity": 38}, {"time": 614, "pitch": 57, "duration": 10, "velocity": 87}, {"time": 614, "pitch": 61, "duration": 11, "velocity": 74}, {"time": 617, "pitch": 49, "duration": 8, "velocity": 46}, {"time": 620, "pitch": 52, "duration": 6, "velocity": 69}, {"time": 626, "pitch": 50, "duration": 17, "velocity": 97}, {"time": 626, "pitch": 62, "duration": 7, "velocity": 80}, {"time": 626, "pitch": 66, "duration": 10, "velocity": 87}, {"time": 632, "pitch": 57, "duration": 12, "velocity": 55}, {"time": 635, "pitch": 62, "duration": 7, "velocity": 92}, {"time": 638, "pitch": 54, "duration": 6, "velocity": 35}, {"time": 641, "pitch": 66, "duration": 4, "velocity": 102}, {"time": 641, "pitch": 69, "duration": 5, "velocity": 92}, {"time": 644, "pitch": 62, "duration": 3, "velocity": 76}, {"time": 650, "pitch": 45, "duration": 20, "velocity": 87}, {"time": 650, "pitch": 61, "duration": 7, "velocity": 77}, {"time": 653, "pitch": 52, "duration": 7, "velocity": 60}, {"time": 656, "pitch": 57, "duration": 2, "velocity": 82}, {"time": 659, "pitch": 57, "duration": 8, "velocity": 89}, {"time": 659, "pitch": 61, "duration": 8, "velocity": 74}, {"time": 659, "pitch": 64, "duration": 8, "velocity": 97}, {"time": 668, "pitch": 57, "duration": 4, "velocity": 87}, {"time": 668, "pitch": 61, "duration": 4, "velocity": 93}, {"time": 674, "pitch": 47, "duration": 18, "velocity": 89}, {"time": 674, "pitch": 59, "duration": 8, "velocity": 87}, {"time": 674, "pitch": 62, "duration": 8, "velocity": 82}, {"time": 680, "pitch": 54, "duration": 5, "velocity": 36}, {"time": 683, "pitch": 66, "duration": 10, "velocity": 105}, {"time": 686, "pitch": 54, "duration": 5, "velocity": 40}, {"time": 689, "pitch": 59, "duration": 5, "velocity": 87}, {"time": 692, "pitch": 62, "duration": 2, "velocity": 82}, {"time": 698, "pitch": 45, "duration": 11, "velocity": 97}, {"time": 698, "pitch": 57, "duration": 8, "velocity": 78}, {"time": 698, "pitch": 61, "duration": 8, "velocity": 63}, {"time": 704, "pitch": 52, "duration": 5, "velocity": 27}, {"time": 707, "pitch": 57, "duration": 3, "velocity": 94}, {"time": 707, "pitch": 64, "duration": 2, "velocity": 89}, {"time": 710, "pitch": 57, "duration": 7, "velocity": 60}, {"time": 710, "pitch": 64, "duration": 11, "velocity": 69}, {"time": 716, "pitch": 52, "duration": 6, "velocity": 76}, {"time": 719, "pitch": 57, "duration": 2, "velocity": 97}, {"time": 722, "pitch": 43, "duration": 14, "velocity": 78}, {"time": 722, "pitch": 55, "duration": 4, "velocity": 97}, {"time": 722, "pitch": 59, "duration": 7, "velocity": 89}, {"time": 725, "pitch": 50, "duration": 8, "velocity": 82}, {"time": 728, "pitch": 55, "duration": 3, "velocity": 78}, {"time": 731, "pitch": 55, "duration": 10, "velocity": 73}, {"time": 731, "pitch": 62, "duration": 13, "velocity": 87}, {"time": 740, "pitch": 50, "duration": 4, "velocity": 53}, {"time": 743, "pitch": 55, "duration": 2, "velocity": 49}, {"time": 746, "pitch": 50, "duration": 11, "velocity": 80}, {"time": 746, "pitch": 57, "duration": 4, "velocity": 82}, {"time": 746, "pitch": 62, "duration": 9, "velocity": 87}, {"time": 752, "pitch": 57, "duration": 4, "velocity": 58}, {"time": 755, "pitch": 66, "duration": 3, "velocity": 99}, {"time": 758, "pitch": 47, "duration": 11, "velocity": 64}, {"time": 758, "pitch": 59, "duration": 7, "velocity": 84}, {"time": 758, "pitch": 62, "duration": 10, "velocity": 89}, {"time": 758, "pitch": 66, "duration": 1, "velocity": 38}, {"time": 764, "pitch": 54, "duration": 4, "velocity": 29}, {"time": 767, "pitch": 59, "duration": 2, "velocity": 82}, {"time": 770, "pitch": 52, "duration": 15, "velocity": 89}, {"time": 770, "pitch": 59, "duration": 6, "velocity": 92}, {"time": 770, "pitch": 64, "duration": 11, "velocity": 102}, {"time": 776, "pitch": 55, "duration": 12, "velocity": 62}, {"time": 782, "pitch": 59, "duration": 6, "velocity": 100}, {"time": 782, "pitch": 64, "duration": 6, "velocity": 102}, {"time": 782, "pitch": 67, "duration": 10, "velocity": 100}, {"time": 788, "pitch": 52, "duration": 2, "velocity": 78}, {"time": 794, "pitch": 45, "duration": 21, "velocity": 102}, {"time": 794, "pitch": 57, "duration": 4, "velocity": 97}, {"time": 794, "pitch": 61, "duration": 7, "velocity": 96}, {"time": 797, "pitch": 52, "duration": 7, "velocity": 73}, {"time": 800, "pitch": 57, "duration": 3, "velocity": 89}, {"time": 803, "pitch": 61, "duration": 6, "velocity": 109}, {"time": 806, "pitch": 52, "duration": 9, "velocity": 92}, {"time": 809, "pitch": 62, "duration": 4, "velocity": 89}, {"time": 812, "pitch": 64, "duration": 6, "velocity": 105}, {"time": 818, "pitch": 50, "duration": 18, "velocity": 100}, {"time": 818, "pitch": 62, "duration": 9, "velocity": 94}, {"time": 818, "pitch": 66, "duration": 10, "velocity": 102}, {"time": 824, "pitch": 57, "duration": 7, "velocity": 64}, {"time": 830, "pitch": 62, "duration": 4, "velocity": 100}, {"time": 830, "pitch": 69, "duration": 8, "velocity": 105}, {"time": 833, "pitch": 57, "duration": 3, "velocity": 80}, {"time": 836, "pitch": 62, "duration": 4, "velocity": 105}, {"time": 839, "pitch": 69, "duration": 4, "velocity": 10}, {"time": 842, "pitch": 45, "duration": 19, "velocity": 100}, {"time": 842, "pitch": 61, "duration": 8, "velocity": 99}, {"time": 845, "pitch": 52, "duration": 11, "velocity": 76}, {"time": 848, "pitch": 57, "duration": 6, "velocity": 94}, {"time": 854, "pitch": 57, "duration": 1, "velocity": 48}, {"time": 854, "pitch": 61, "duration": 7, "velocity": 93}, {"time": 854, "pitch": 64, "duration": 11, "velocity": 100}, {"time": 857, "pitch": 52, "duration": 8, "velocity": 76}, {"time": 860, "pitch": 57, "duration": 4, "velocity": 94}, {"time": 866, "pitch": 47, "duration": 20, "velocity": 71}, {"time": 866, "pitch": 59, "duration": 10, "velocity": 92}, {"time": 866, "pitch": 62, "duration": 10, "velocity": 89}, {"time": 872, "pitch": 54, "duration": 7, "velocity": 45}, {"time": 878, "pitch": 59, "duration": 4, "velocity": 108}, {"time": 878, "pitch": 66, "duration": 10, "velocity": 87}, {"time": 881, "pitch": 54, "duration": 4, "velocity": 61}, {"time": 884, "pitch": 59, "duration": 5, "velocity": 94}, {"time": 887, "pitch": 62, "duration": 2, "velocity": 73}, {"time": 890, "pitch": 45, "duration": 17, "velocity": 92}, {"time": 890, "pitch": 57, "duration": 4, "velocity": 100}, {"time": 890, "pitch": 61, "duration": 9, "velocity": 96}, {"time": 893, "pitch": 52, "duration": 11, "velocity": 66}, {"time": 896, "pitch": 57, "duration": 5, "velocity": 78}, {"time": 902, "pitch": 57, "duration": 7, "velocity": 97}, {"time": 902, "pitch": 61, "duration": 6, "velocity": 93}, {"time": 902, "pitch": 64, "duration": 12, "velocity": 94}, {"time": 908, "pitch": 52, "duration": 6, "velocity": 66}, {"time": 914, "pitch": 43, "duration": 18, "velocity": 92}, {"time": 914, "pitch": 55, "duration": 11, "velocity": 82}, {"time": 914, "pitch": 59, "duration": 8, "velocity": 87}, {"time": 920, "pitch": 50, "duration": 7, "velocity": 48}, {"time": 926, "pitch": 55, "duration": 4, "velocity": 80}, {"time": 926, "pitch": 59, "duration": 5, "velocity": 114}, {"time": 926, "pitch": 62, "duration": 10, "velocity": 97}, {"time": 929, "pitch": 50, "duration": 5, "velocity": 73}, {"time": 932, "pitch": 55, "duration": 4, "velocity": 94}, {"time": 935, "pitch": 59, "duration": 3, "velocity": 94}, {"time": 938, "pitch": 50, "duration": 10, "velocity": 80}, {"time": 938, "pitch": 57, "duration": 4, "velocity": 92}, {"time": 938, "pitch": 62, "duration": 6, "velocity": 84}, {"time": 944, "pitch": 57, "duration": 4, "velocity": 89}, {"time": 950, "pitch": 47, "duration": 11, "velocity": 92}, {"time": 950, "pitch": 59, "duration": 4, "velocity": 87}, {"time": 950, "pitch": 62, "duration": 8, "velocity": 84}, {"time": 956, "pitch": 59, "duration": 5, "velocity": 87}, {"time": 962, "pitch": 52, "duration": 18, "velocity": 100}, {"time": 962, "pitch": 64, "duration": 7, "velocity": 82}, {"time": 962, "pitch": 67, "duration": 10, "velocity": 92}, {"time": 968, "pitch": 59, "duration": 5, "velocity": 78}, {"time": 971, "pitch": 64, "duration": 5, "velocity": 100}, {"time": 974, "pitch": 59, "duration": 4, "velocity": 73}, {"time": 977, "pitch": 64, "duration": 4, "velocity": 108}, {"time": 977, "pitch": 71, "duration": 4, "velocity": 100}, {"time": 980, "pitch": 59, "duration": 2, "velocity": 80}, {"time": 986, "pitch": 43, "duration": 16, "velocity": 100}, {"time": 986, "pitch": 55, "duration": 10, "velocity": 84}, {"time": 986, "pitch": 58, "duration": 9, "velocity": 70}, {"time": 992, "pitch": 50, "duration": 7, "velocity": 37}, {"time": 998, "pitch": 55, "duration": 6, "velocity": 82}, {"time": 998, "pitch": 58, "duration": 6, "velocity": 90}, {"time": 998, "pitch": 62, "duration": 6, "velocity": 94}, {"time": 1010, "pitch": 50, "duration": 23, "velocity": 69}, {"time": 1010, "pitch": 57, "duration": 4, "velocity": 82}, {"time": 1010, "pitch": 62, "duration": 10, "velocity": 84}, {"time": 1016, "pitch": 57, "duration": 4, "velocity": 51}, {"time": 1022, "pitch": 57, "duration": 2, "velocity": 108}, {"time": 1022, "pitch": 66, "duration": 7, "velocity": 72}, {"time": 1025, "pitch": 57, "duration": 4, "velocity": 92}, {"time": 1028, "pitch": 62, "duration": 4, "velocity": 57}, {"time": 1031, "pitch": 57, "duration": 2, "velocity": 71}, {"time": 1034, "pitch": 50, "duration": 19, "velocity": 84}, {"time": 1034, "pitch": 57, "duration": 19, "velocity": 78}, {"time": 1058, "pitch": 50, "duration": 15, "velocity": 73}, {"time": 1058, "pitch": 62, "duration": 9, "velocity": 67}, {"time": 1058, "pitch": 66, "duration": 11, "velocity": 70}, {"time": 1064, "pitch": 57, "duration": 9, "velocity": 48}, {"time": 1070, "pitch": 62, "duration": 6, "velocity": 73}, {"time": 1070, "pitch": 66, "duration": 6, "velocity": 90}, {"time": 1082, "pitch": 42, "duration": 18, "velocity": 44}, {"time": 1082, "pitch": 57, "duration": 8, "velocity": 49}, {"time": 1082, "pitch": 61, "duration": 8, "velocity": 23}, {"time": 1088, "pitch": 49, "duration": 9, "velocity": 26}, {"time": 1094, "pitch": 57, "duration": 7, "velocity": 87}, {"time": 1094, "pitch": 66, "duration": 10, "velocity": 52}, {"time": 1100, "pitch": 61, "duration": 4, "velocity": 52}, {"time": 1103, "pitch": 57, "duration": 2, "velocity": 55}, {"time": 1106, "pitch": 43, "duration": 18, "velocity": 78}, {"time": 1106, "pitch": 55, "duration": 10, "velocity": 64}, {"time": 1106, "pitch": 59, "duration": 9, "velocity": 78}, {"time": 1112, "pitch": 50, "duration": 7, "velocity": 46}, {"time": 1118, "pitch": 55, "duration": 4, "velocity": 94}, {"time": 1118, "pitch": 62, "duration": 7, "velocity": 92}, {"time": 1121, "pitch": 50, "duration": 7, "velocity": 73}, {"time": 1124, "pitch": 55, "duration": 4, "velocity": 64}, {"time": 1127, "pitch": 59, "duration": 3, "velocity": 69}, {"time": 1130, "pitch": 45, "duration": 15, "velocity": 80}, {"time": 1130, "pitch": 57, "duration": 9, "velocity": 66}, {"time": 1130, "pitch": 61, "duration": 6, "velocity": 46}, {"time": 1136, "pitch": 52, "duration": 7, "velocity": 43}, {"time": 1142, "pitch": 57, "duration": 7, "velocity": 84}, {"time": 1142, "pitch": 61, "duration": 7, "velocity": 68}, {"time": 1142, "pitch": 64, "duration": 8, "velocity": 84}, {"time": 1148, "pitch": 52, "duration": 4, "velocity": 60}, {"time": 1151, "pitch": 57, "duration": 2, "velocity": 69}, {"time": 1154, "pitch": 50, "duration": 17, "velocity": 97}, {"time": 1154, "pitch": 62, "duration": 9, "velocity": 76}, {"time": 1154, "pitch": 66, "duration": 11, "velocity": 82}, {"time": 1160, "pitch": 57, "duration": 8, "velocity": 51}, {"time": 1166, "pitch": 62, "duration": 4, "velocity": 66}, {"time": 1166, "pitch": 66, "duration": 7, "velocity": 59}, {"time": 1169, "pitch": 57, "duration": 3, "velocity": 67}, {"time": 1172, "pitch": 62, "duration": 4, "velocity": 71}, {"time": 1175, "pitch": 66, "duration": 5, "velocity": 93}, {"time": 1178, "pitch": 42, "duration": 18, "velocity": 82}, {"time": 1181, "pitch": 49, "duration": 11, "velocity": 24}, {"time": 1184, "pitch": 54, "duration": 3, "velocity": 34}, {"time": 1190, "pitch": 54, "duration": 6, "velocity": 85}, {"time": 1190, "pitch": 61, "duration": 6, "velocity": 63}, {"time": 1196, "pitch": 49, "duration": 2, "velocity": 39}, {"time": 1202, "pitch": 43, "duration": 21, "velocity": 94}, {"time": 1202, "pitch": 55, "duration": 4, "velocity": 73}, {"time": 1202, "pitch": 59, "duration": 4, "velocity": 84}, {"time": 1205, "pitch": 50, "duration": 16, "velocity": 76}, {"time": 1208, "pitch": 55, "duration": 4, "velocity": 89}, {"time": 1211, "pitch": 57, "duration": 5, "velocity": 89}, {"time": 1214, "pitch": 59, "duration": 8, "velocity": 84}, {"time": 1220, "pitch": 62, "duration": 5, "velocity": 82}, {"time": 1226, "pitch": 45, "duration": 9, "velocity": 100}, {"time": 1226, "pitch": 57, "duration": 6, "velocity": 94}, {"time": 1226, "pitch": 61, "duration": 10, "velocity": 93}, {"time": 1226, "pitch": 64, "duration": 9, "velocity": 94}, {"time": 1232, "pitch": 52, "duration": 4, "velocity": 71}, {"time": 1235, "pitch": 57, "duration": 2, "velocity": 100}, {"time": 1238, "pitch": 46, "duration": 12, "velocity": 85}, {"time": 1238, "pitch": 58, "duration": 5, "velocity": 93}, {"time": 1238, "pitch": 61, "duration": 11, "velocity": 99}, {"time": 1244, "pitch": 58, "duration": 5, "velocity": 68}, {"time": 1250, "pitch": 47, "duration": 19, "velocity": 100}, {"time": 1250, "pitch": 59, "duration": 9, "velocity": 76}, {"time": 1250, "pitch": 62, "duration": 9, "velocity": 87}, {"time": 1256, "pitch": 54, "duration": 7, "velocity": 41}, {"time": 1262, "pitch": 59, "duration": 4, "velocity": 102}, {"time": 1262, "pitch": 66, "duration": 9, "velocity": 99}, {"time": 1265, "pitch": 54, "duration": 4, "velocity": 70}, {"time": 1268, "pitch": 59, "duration": 3, "velocity": 82}, {"time": 1274, "pitch": 45, "duration": 19, "velocity": 97}, {"time": 1274, "pitch": 57, "duration": 9, "velocity": 87}, {"time": 1274, "pitch": 61, "duration": 8, "velocity": 54}, {"time": 1280, "pitch": 52, "duration": 8, "velocity": 57}, {"time": 1286, "pitch": 57, "duration": 4, "velocity": 111}, {"time": 1286, "pitch": 64, "duration": 6, "velocity": 97}, {"time": 1289, "pitch": 52, "duration": 7, "velocity": 76}, {"time": 1292, "pitch": 57, "duration": 5, "velocity": 84}, {"time": 1295, "pitch": 64, "duration": 2, "velocity": 80}, {"time": 1298, "pitch": 43, "duration": 15, "velocity": 94}, {"time": 1298, "pitch": 55, "duration": 10, "velocity": 82}, {"time": 1298, "pitch": 59, "duration": 9, "velocity": 87}, {"time": 1304, "pitch": 50, "duration": 8, "velocity": 47}, {"time": 1310, "pitch": 55, "duration": 4, "velocity": 84}, {"time": 1310, "pitch": 59, "duration": 4, "velocity": 94}, {"time": 1310, "pitch": 62, "duration": 4, "velocity": 84}, {"time": 1316, "pitch": 43, "duration": 4, "velocity": 94}, {"time": 1322, "pitch": 50, "duration": 11, "velocity": 66}, {"time": 1322, "pitch": 57, "duration": 4, "velocity": 87}, {"time": 1322, "pitch": 66, "duration": 10, "velocity": 68}, {"time": 1328, "pitch": 57, "duration": 4, "velocity": 52}, {"time": 1334, "pitch": 49, "duration": 11, "velocity": 94}, {"time": 1334, "pitch": 57, "duration": 7, "velocity": 97}, {"time": 1334, "pitch": 61, "duration": 10, "velocity": 79}, {"time": 1340, "pitch": 52, "duration": 5, "velocity": 84}, {"time": 1343, "pitch": 57, "duration": 2, "velocity": 92}, {"time": 1346, "pitch": 47, "duration": 22, "velocity": 78}, {"time": 1346, "pitch": 59, "duration": 5, "velocity": 87}, {"time": 1346, "pitch": 62, "duration": 10, "velocity": 94}, {"time": 1352, "pitch": 59, "duration": 5, "velocity": 78}, {"time": 1358, "pitch": 59, "duration": 4, "velocity": 100}, {"time": 1358, "pitch": 62, "duration": 7, "velocity": 100}, {"time": 1358, "pitch": 66, "duration": 7, "velocity": 90}, {"time": 1361, "pitch": 54, "duration": 5, "velocity": 61}, {"time": 1364, "pitch": 59, "duration": 3, "velocity": 89}, {"time": 1370, "pitch": 45, "duration": 19, "velocity": 92}, {"time": 1370, "pitch": 57, "duration": 11, "velocity": 92}, {"time": 1370, "pitch": 61, "duration": 10, "velocity": 82}, {"time": 1376, "pitch": 52, "duration": 8, "velocity": 76}, {"time": 1382, "pitch": 57, "duration": 6, "velocity": 97}, {"time": 1382, "pitch": 61, "duration": 6, "velocity": 96}, {"time": 1382, "pitch": 64, "duration": 11, "velocity": 97}, {"time": 1388, "pitch": 52, "duration": 6, "velocity": 87}, {"time": 1394, "pitch": 43, "duration": 19, "velocity": 94}, {"time": 1394, "pitch": 55, "duration": 10, "velocity": 73}, {"time": 1394, "pitch": 59, "duration": 9, "velocity": 82}, {"time": 1400, "pitch": 50, "duration": 8, "velocity": 66}, {"time": 1406, "pitch": 55, "duration": 4, "velocity": 102}, {"time": 1406, "pitch": 62, "duration": 8, "velocity": 97}, {"time": 1409, "pitch": 50, "duration": 8, "velocity": 78}, {"time": 1412, "pitch": 55, "duration": 4, "velocity": 84}, {"time": 1415, "pitch": 59, "duration": 2, "velocity": 69}, {"time": 1418, "pitch": 43, "duration": 7, "velocity": 100}, {"time": 1418, "pitch": 55, "duration": 6, "velocity": 92}, {"time": 1418, "pitch": 59, "duration": 6, "velocity": 97}, {"time": 1430, "pitch": 42, "duration": 7, "velocity": 85}, {"time": 1430, "pitch": 57, "duration": 6, "velocity": 79}, {"time": 1430, "pitch": 61, "duration": 7, "velocity": 90}, {"time": 1442, "pitch": 52, "duration": 16, "velocity": 100}, {"time": 1442, "pitch": 64, "duration": 7, "velocity": 69}, {"time": 1442, "pitch": 67, "duration": 10, "velocity": 84}, {"time": 1448, "pitch": 59, "duration": 6, "velocity": 66}, {"time": 1451, "pitch": 62, "duration": 5, "velocity": 97}, {"time": 1454, "pitch": 67, "duration": 7, "velocity": 111}, {"time": 1457, "pitch": 59, "duration": 5, "velocity": 100}, {"time": 1460, "pitch": 62, "duration": 6, "velocity": 89}, {"time": 1463, "pitch": 67, "duration": 3, "velocity": 80}, {"time": 1466, "pitch": 45, "duration": 23, "velocity": 102}, {"time": 1466, "pitch": 57, "duration": 9, "velocity": 78}, {"time": 1466, "pitch": 61, "duration": 9, "velocity": 59}, {"time": 1466, "pitch": 64, "duration": 9, "velocity": 92}, {"time": 1472, "pitch": 52, "duration": 9, "velocity": 38}, {"time": 1478, "pitch": 57, "duration": 10, "velocity": 87}, {"time": 1478, "pitch": 61, "duration": 11, "velocity": 74}, {"time": 1481, "pitch": 49, "duration": 8, "velocity": 46}, {"time": 1484, "pitch": 52, "duration": 6, "velocity": 69}, {"time": 1490, "pitch": 50, "duration": 17, "velocity": 97}, {"time": 1490, "pitch": 62, "duration": 7, "velocity": 80}, {"time": 1490, "pitch": 66, "duration": 10, "velocity": 87}, {"time": 1496, "pitch": 57, "duration": 12, "velocity": 55}, {"time": 1499, "pitch": 62, "duration": 7, "velocity": 92}, {"time": 1502, "pitch": 54, "duration": 6, "velocity": 35}, {"time": 1505, "pitch": 66, "duration": 4, "velocity": 102}, {"time": 1505, "pitch": 69, "duration": 5, "velocity": 92}, {"time": 1508, "pitch": 62, "duration": 3, "velocity": 76}, {"time": 1514, "pitch": 45, "duration": 20, "velocity": 87}, {"time": 1514, "pitch": 61, "duration": 7, "velocity": 77}, {"time": 1517, "pitch": 52, "duration": 7, "velocity": 60}, {"time": 1520, "pitch": 57, "duration": 2, "velocity": 82}, {"time": 1523, "pitch": 57, "duration": 8, "velocity": 89}, {"time": 1523, "pitch": 61, "duration": 8, "velocity": 74}, {"time": 1523, "pitch": 64, "duration": 8, "velocity": 97}, {"time": 1532, "pitch": 57, "duration": 4, "velocity": 87}, {"time": 1532, "pitch": 61, "duration": 4, "velocity": 93}, {"time": 1538, "pitch": 47, "duration": 18, "velocity": 89}, {"time": 1538, "pitch": 59, "duration": 8, "velocity": 87}, {"time": 1538, "pitch": 62, "duration": 8, "velocity": 82}, {"time": 1544, "pitch": 54, "duration": 5, "velocity": 36}, {"time": 1547, "pitch": 66, "duration": 10, "velocity": 105}, {"time": 1550, "pitch": 54, "duration": 5, "velocity": 40}, {"time": 1553, "pitch": 59, "duration": 5, "velocity": 87}, {"time": 1556, "pitch": 62, "duration": 2, "velocity": 82}, {"time": 1562, "pitch": 45, "duration": 11, "velocity": 97}, {"time": 1562, "pitch": 57, "duration": 8, "velocity": 78}, {"time": 1562, "pitch": 61, "duration": 8, "velocity": 63}, {"time": 1568, "pitch": 52, "duration": 5, "velocity": 27}, {"time": 1571, "pitch": 57, "duration": 3, "velocity": 94}, {"time": 1571, "pitch": 64, "duration": 2, "velocity": 89}, {"time": 1574, "pitch": 57, "duration": 7, "velocity": 60}, {"time": 1574, "pitch": 64, "duration": 11, "velocity": 69}, {"time": 1580, "pitch": 52, "duration": 6, "velocity": 76}, {"time": 1583, "pitch": 57, "duration": 2, "velocity": 97}, {"time": 1586, "pitch": 43, "duration": 14, "velocity": 78}, {"time": 1586, "pitch": 55, "duration": 4, "velocity": 97}, {"time": 1586, "pitch": 59, "duration": 7, "velocity": 89}, {"time": 1589, "pitch": 50, "duration": 8, "velocity": 82}, {"time": 1592, "pitch": 55, "duration": 3, "velocity": 78}, {"time": 1595, "pitch": 55, "duration": 10, "velocity": 73}, {"time": 1595, "pitch": 62, "duration": 13, "velocity": 87}, {"time": 1604, "pitch": 50, "duration": 4, "velocity": 53}, {"time": 1607, "pitch": 55, "duration": 2, "velocity": 49}, {"time": 1610, "pitch": 50, "duration": 11, "velocity": 80}, {"time": 1610, "pitch": 57, "duration": 4, "velocity": 82}, {"time": 1610, "pitch": 62, "duration": 9, "velocity": 87}, {"time": 1616, "pitch": 57, "duration": 4, "velocity": 58}, {"time": 1619, "pitch": 66, "duration": 3, "velocity": 99}, {"time": 1622, "pitch": 47, "duration": 11, "velocity": 64}, {"time": 1622, "pitch": 59, "duration": 7, "velocity": 84}, {"time": 1622, "pitch": 62, "duration": 10, "velocity": 89}, {"time": 1622, "pitch": 66, "duration": 1, "velocity": 38}, {"time": 1628, "pitch": 54, "duration": 4, "velocity": 29}, {"time": 1631, "pitch": 59, "duration": 2, "velocity": 82}, {"time": 1634, "pitch": 52, "duration": 15, "velocity": 89}, {"time": 1634, "pitch": 59, "duration": 6, "velocity": 92}, {"time": 1634, "pitch": 64, "duration": 11, "velocity": 102}, {"time": 1640, "pitch": 55, "duration": 12, "velocity": 62}, {"time": 1646, "pitch": 59, "duration": 6, "velocity": 100}, {"time": 1646, "pitch": 64, "duration": 6, "velocity": 102}, {"time": 1646, "pitch": 67, "duration": 10, "velocity": 100}, {"time": 1652, "pitch": 52, "duration": 2, "velocity": 78}, {"time": 1658, "pitch": 45, "duration": 21, "velocity": 102}, {"time": 1658, "pitch": 57, "duration": 4, "velocity": 97}, {"time": 1658, "pitch": 61, "duration": 7, "velocity": 96}, {"time": 1661, "pitch": 52, "duration": 7, "velocity": 73}, {"time": 1664, "pitch": 57, "duration": 3, "velocity": 89}, {"time": 1667, "pitch": 61, "duration": 6, "velocity": 109}, {"time": 1670, "pitch": 52, "duration": 9, "velocity": 92}, {"time": 1673, "pitch": 62, "duration": 4, "velocity": 89}, {"time": 1676, "pitch": 64, "duration": 6, "velocity": 105}, {"time": 1682, "pitch": 50, "duration": 18, "velocity": 100}, {"time": 1682, "pitch": 62, "duration": 9, "velocity": 94}, {"time": 1682, "pitch": 66, "duration": 10, "velocity": 102}, {"time": 1688, "pitch": 57, "duration": 7, "velocity": 64}, {"time": 1694, "pitch": 62, "duration": 4, "velocity": 100}, {"time": 1694, "pitch": 69, "duration": 8, "velocity": 105}, {"time": 1697, "pitch": 57, "duration": 3, "velocity": 80}, {"time": 1700, "pitch": 62, "duration": 4, "velocity": 105}, {"time": 1703, "pitch": 69, "duration": 4, "velocity": 10}, {"time": 1706, "pitch": 45, "duration": 19, "velocity": 100}, {"time": 1706, "pitch": 61, "duration": 8, "velocity": 99}, {"time": 1709, "pitch": 52, "duration": 11, "velocity": 76}, {"time": 1712, "pitch": 57, "duration": 6, "velocity": 94}, {"time": 1718, "pitch": 57, "duration": 1, "velocity": 48}, {"time": 1718, "pitch": 61, "duration": 7, "velocity": 93}, {"time": 1718, "pitch": 64, "duration": 11, "velocity": 100}, {"time": 1721, "pitch": 52, "duration": 8, "velocity": 76}, {"time": 1724, "pitch": 57, "duration": 4, "velocity": 94}, {"time": 1730, "pitch": 47, "duration": 20, "velocity": 71}, {"time": 1730, "pitch": 59, "duration": 10, "velocity": 92}, {"time": 1730, "pitch": 62, "duration": 10, "velocity": 89}, {"time": 1736, "pitch": 54, "duration": 7, "velocity": 45}, {"time": 1742, "pitch": 59, "duration": 4, "velocity": 108}, {"time": 1742, "pitch": 66, "duration": 10, "velocity": 87}, {"time": 1745, "pitch": 54, "duration": 4, "velocity": 61}, {"time": 1748, "pitch": 59, "duration": 5, "velocity": 94}, {"time": 1751, "pitch": 62, "duration": 2, "velocity": 73}, {"time": 1754, "pitch": 45, "duration": 17, "velocity": 92}, {"time": 1754, "pitch": 57, "duration": 4, "velocity": 100}, {"time": 1754, "pitch": 61, "duration": 9, "velocity": 96}, {"time": 1757, "pitch": 52, "duration": 11, "velocity": 66}, {"time": 1760, "pitch": 57, "duration": 5, "velocity": 78}, {"time": 1766, "pitch": 57, "duration": 7, "velocity": 97}, {"time": 1766, "pitch": 61, "duration": 6, "velocity": 93}, {"time": 1766, "pitch": 64, "duration": 12, "velocity": 94}, {"time": 1772, "pitch": 52, "duration": 6, "velocity": 66}, {"time": 1778, "pitch": 43, "duration": 18, "velocity": 92}, {"time": 1778, "pitch": 55, "duration": 11, "velocity": 82}, {"time": 1778, "pitch": 59, "duration": 8, "velocity": 87}, {"time": 1784, "pitch": 50, "duration": 7, "velocity": 48}, {"time": 1790, "pitch": 55, "duration": 4, "velocity": 80}, {"time": 1790, "pitch": 59, "duration": 5, "velocity": 114}, {"time": 1790, "pitch": 62, "duration": 10, "velocity": 97}, {"time": 1793, "pitch": 50, "duration": 5, "velocity": 73}, {"time": 1796, "pitch": 55, "duration": 4, "velocity": 94}, {"time": 1799, "pitch": 59, "duration": 3, "velocity": 94}, {"time": 1802, "pitch": 50, "duration": 10, "velocity": 80}, {"time": 1802, "pitch": 57, "duration": 4, "velocity": 92}, {"time": 1802, "pitch": 62, "duration": 6, "velocity": 84}, {"time": 1808, "pitch": 57, "duration": 4, "velocity": 89}, {"time": 1814, "pitch": 47, "duration": 11, "velocity": 92}, {"time": 1814, "pitch": 59, "duration": 4, "velocity": 87}, {"time": 1814, "pitch": 62, "duration": 8, "velocity": 84}, {"time": 1820, "pitch": 59, "duration": 5, "velocity": 87}, {"time": 1826, "pitch": 52, "duration": 18, "velocity": 100}, {"time": 1826, "pitch": 64, "duration": 7, "velocity": 82}, {"time": 1826, "pitch": 67, "duration": 10, "velocity": 92}, {"time": 1832, "pitch": 59, "duration": 5, "velocity": 78}, {"time": 1835, "pitch": 64, "duration": 5, "velocity": 100}, {"time": 1838, "pitch": 59, "duration": 4, "velocity": 73}, {"time": 1841, "pitch": 64, "duration": 4, "velocity": 108}, {"time": 1841, "pitch": 71, "duration": 4, "velocity": 100}, {"time": 1844, "pitch": 59, "duration": 2, "velocity": 80}, {"time": 1850, "pitch": 43, "duration": 16, "velocity": 100}, {"time": 1850, "pitch": 55, "duration": 10, "velocity": 84}, {"time": 1850, "pitch": 58, "duration": 9, "velocity": 70}, {"time": 1856, "pitch": 50, "duration": 7, "velocity": 37}, {"time": 1862, "pitch": 55, "duration": 6, "velocity": 82}, {"time": 1862, "pitch": 58, "duration": 6, "velocity": 90}, {"time": 1862, "pitch": 62, "duration": 6, "velocity": 94}, {"time": 1874, "pitch": 50, "duration": 23, "velocity": 69}, {"time": 1874, "pitch": 57, "duration": 4, "velocity": 82}, {"time": 1874, "pitch": 62, "duration": 10, "velocity": 84}, {"time": 1880, "pitch": 57, "duration": 4, "velocity": 51}, {"time": 1886, "pitch": 57, "duration": 2, "velocity": 108}, {"time": 1886, "pitch": 66, "duration": 7, "velocity": 72}, {"time": 1889, "pitch": 62, "duration": 4, "velocity": 92}, {"time": 1892, "pitch": 64, "duration": 4, "velocity": 83}, {"time": 1895, "pitch": 57, "duration": 2, "velocity": 71}, {"time": 1898, "pitch": 50, "duration": 22, "velocity": 100}, {"time": 1898, "pitch": 62, "duration": 7, "velocity": 80}, {"time": 1898, "pitch": 66, "duration": 8, "velocity": 82}, {"time": 1898, "pitch": 69, "duration": 11, "velocity": 89}, {"time": 1904, "pitch": 57, "duration": 4, "velocity": 47}, {"time": 1907, "pitch": 62, "duration": 5, "velocity": 92}, {"time": 1910, "pitch": 57, "duration": 4, "velocity": 48}, {"time": 1913, "pitch": 64, "duration": 6, "velocity": 94}, {"time": 1916, "pitch": 57, "duration": 5, "velocity": 34}, {"time": 1919, "pitch": 62, "duration": 3, "velocity": 49}, {"time": 1922, "pitch": 50, "duration": 10, "velocity": 89}, {"time": 1922, "pitch": 57, "duration": 5, "velocity": 94}, {"time": 1922, "pitch": 62, "duration": 5, "velocity": 76}, {"time": 1922, "pitch": 66, "duration": 5, "velocity": 41}, {"time": 1928, "pitch": 57, "duration": 3, "velocity": 44}, {"time": 1928, "pitch": 62, "duration": 3, "velocity": 69}, {"time": 1928, "pitch": 66, "duration": 3, "velocity": 41}, {"time": 1928, "pitch": 69, "duration": 4, "velocity": 40}, {"time": 1934, "pitch": 50, "duration": 12, "velocity": 89}, {"time": 1934, "pitch": 57, "duration": 12, "velocity": 87}, {"time": 1934, "pitch": 62, "duration": 8, "velocity": 89}, {"time": 1934, "pitch": 66, "duration": 9, "velocity": 96}, {"time": 1934, "pitch": 69, "duration": 9, "velocity": 97}, {"time": 1940, "pitch": 54, "duration": 6, "velocity": 21}, {"time": 1946, "pitch": 50, "duration": 4, "velocity": 94}, {"time": 1946, "pitch": 57, "duration": 4, "velocity": 84}, {"time": 1946, "pitch": 62, "duration": 3, "velocity": 89}, {"time": 1946, "pitch": 66, "duration": 4, "velocity": 79}, {"time": 1952, "pitch": 50, "duration": 4, "velocity": 92}, {"time": 1952, "pitch": 57, "duration": 3, "velocity": 97}, {"time": 1952, "pitch": 62, "duration": 3, "velocity": 100}, {"time": 1952, "pitch": 66, "duration": 3, "velocity": 93}, {"time": 1958, "pitch": 50, "duration": 5, "velocity": 111}, {"time": 1958, "pitch": 57, "duration": 4, "velocity": 102}, {"time": 1958, "pitch": 62, "duration": 4, "velocity": 105}, {"time": 1958, "pitch": 66, "duration": 4, "velocity": 105}, {"time": 1964, "pitch": 50, "duration": 6, "velocity": 108}, {"time": 1964, "pitch": 57, "duration": 5, "velocity": 94}, {"time": 1964, "pitch": 62, "duration": 5, "velocity": 100}, {"time": 1964, "pitch": 66, "duration": 5, "velocity": 102}, {"time": 1970, "pitch": 52, "duration": 17, "velocity": 97}, {"time": 1970, "pitch": 64, "duration": 7, "velocity": 80}, {"time": 1970, "pitch": 68, "duration": 10, "velocity": 87}, {"time": 1976, "pitch": 59, "duration": 12, "velocity": 55}, {"time": 1979, "pitch": 64, "duration": 7, "velocity": 92}, {"time": 1982, "pitch": 56, "duration": 6, "velocity": 35}, {"time": 1985, "pitch": 68, "duration": 4, "velocity": 102}, {"time": 1985, "pitch": 71, "duration": 5, "velocity": 92}, {"time": 1988, "pitch": 64, "duration": 3, "velocity": 76}, {"time": 1994, "pitch": 47, "duration": 20, "velocity": 87}, {"time": 1994, "pitch": 63, "duration": 7, "velocity": 77}, {"time": 1997, "pitch": 54, "duration": 7, "velocity": 60}, {"time": 2000, "pitch": 59, "duration": 2, "velocity": 82}, {"time": 2003, "pitch": 59, "duration": 8, "velocity": 89}, {"time": 2003, "pitch": 63, "duration": 8, "velocity": 74}, {"time": 2003, "pitch": 66, "duration": 8, "velocity": 97}, {"time": 2012, "pitch": 59, "duration": 4, "velocity": 87}, {"time": 2012, "pitch": 63, "duration": 4, "velocity": 93}, {"time": 2018, "pitch": 49, "duration": 18, "velocity": 89}, {"time": 2018, "pitch": 61, "duration": 8, "velocity": 87}, {"time": 2018, "pitch": 64, "duration": 8, "velocity": 82}, {"time": 2024, "pitch": 56, "duration": 5, "velocity": 36}, {"time": 2027, "pitch": 68, "duration": 10, "velocity": 105}, {"time": 2030, "pitch": 56, "duration": 5, "velocity": 40}, {"time": 2033, "pitch": 61, "duration": 5, "velocity": 87}, {"time": 2036, "pitch": 64, "duration": 2, "velocity": 82}, {"time": 2042, "pitch": 47, "duration": 11, "velocity": 97}, {"time": 2042, "pitch": 59, "duration": 8, "velocity": 78}, {"time": 2042, "pitch": 63, "duration": 8, "velocity": 63}, {"time": 2048, "pitch": 54, "duration": 5, "velocity": 27}, {"time": 2051, "pitch": 59, "duration": 3, "velocity": 94}, {"time": 2051, "pitch": 66, "duration": 2, "velocity": 89}, {"time": 2054, "pitch": 59, "duration": 7, "velocity": 60}, {"time": 2054, "pitch": 66, "duration": 11, "velocity": 69}, {"time": 2060, "pitch": 54, "duration": 6, "velocity": 76}, {"time": 2063, "pitch": 59, "duration": 2, "velocity": 97}, {"time": 2066, "pitch": 45, "duration": 14, "velocity": 78}, {"time": 2066, "pitch": 57, "duration": 4, "velocity": 97}, {"time": 2066, "pitch": 61, "duration": 7, "velocity": 89}, {"time": 2069, "pitch": 52, "duration": 8, "velocity": 82}, {"time": 2072, "pitch": 57, "duration": 3, "velocity": 78}, {"time": 2075, "pitch": 57, "duration": 10, "velocity": 73}, {"time": 2075, "pitch": 64, "duration": 13, "velocity": 87}, {"time": 2084, "pitch": 52, "duration": 4, "velocity": 53}, {"time": 2087, "pitch": 57, "duration": 2, "velocity": 49}, {"time": 2090, "pitch": 52, "duration": 11, "velocity": 80}, {"time": 2090, "pitch": 59, "duration": 4, "velocity": 82}, {"time": 2090, "pitch": 64, "duration": 9, "velocity": 87}, {"time": 2096, "pitch": 59, "duration": 4, "velocity": 58}, {"time": 2099, "pitch": 68, "duration": 3, "velocity": 99}, {"time": 2102, "pitch": 49, "duration": 11, "velocity": 64}, {"time": 2102, "pitch": 61, "duration": 7, "velocity": 84}, {"time": 2102, "pitch": 64, "duration": 10, "velocity": 89}, {"time": 2102, "pitch": 68, "duration": 1, "velocity": 38}, {"time": 2108, "pitch": 56, "duration": 4, "velocity": 29}, {"time": 2111, "pitch": 61, "duration": 2, "velocity": 82}, {"time": 2114, "pitch": 54, "duration": 15, "velocity": 89}, {"time": 2114, "pitch": 61, "duration": 6, "velocity": 92}, {"time": 2114, "pitch": 66, "duration": 11, "velocity": 102}, {"time": 2120, "pitch": 57, "duration": 12, "velocity": 62}, {"time": 2126, "pitch": 61, "duration": 6, "velocity": 100}, {"time": 2126, "pitch": 66, "duration": 6, "velocity": 102}, {"time": 2126, "pitch": 69, "duration": 10, "velocity": 100}, {"time": 2132, "pitch": 54, "duration": 2, "velocity": 78}, {"time": 2138, "pitch": 47, "duration": 21, "velocity": 102}, {"time": 2138, "pitch": 59, "duration": 4, "velocity": 97}, {"time": 2138, "pitch": 63, "duration": 7, "velocity": 96}, {"time": 2141, "pitch": 54, "duration": 7, "velocity": 73}, {"time": 2144, "pitch": 59, "duration": 3, "velocity": 89}, {"time": 2147, "pitch": 63, "duration": 6, "velocity": 109}, {"time": 2150, "pitch": 54, "duration": 9, "velocity": 92}, {"time": 2153, "pitch": 64, "duration": 4, "velocity": 89}, {"time": 2156, "pitch": 66, "duration": 6, "velocity": 105}, {"time": 2162, "pitch": 52, "duration": 18, "velocity": 100}, {"time": 2162, "pitch": 64, "duration": 9, "velocity": 94}, {"time": 2162, "pitch": 68, "duration": 10, "velocity": 102}, {"time": 2168, "pitch": 59, "duration": 7, "velocity": 64}, {"time": 2174, "pitch": 64, "duration": 4, "velocity": 100}, {"time": 2174, "pitch": 71, "duration": 8, "velocity": 105}, {"time": 2177, "pitch": 59, "duration": 3, "velocity": 80}, {"time": 2180, "pitch": 64, "duration": 4, "velocity": 105}, {"time": 2183, "pitch": 71, "duration": 4, "velocity": 10}, {"time": 2186, "pitch": 47, "duration": 19, "velocity": 100}, {"time": 2186, "pitch": 63, "duration": 8, "velocity": 99}, {"time": 2189, "pitch": 54, "duration": 11, "velocity": 76}, {"time": 2192, "pitch": 59, "duration": 6, "velocity": 94}, {"time": 2198, "pitch": 59, "duration": 1, "velocity": 48}, {"time": 2198, "pitch": 63, "duration": 7, "velocity": 93}, {"time": 2198, "pitch": 66, "duration": 11, "velocity": 100}, {"time": 2201, "pitch": 54, "duration": 8, "velocity": 76}, {"time": 2204, "pitch": 59, "duration": 4, "velocity": 94}, {"time": 2210, "pitch": 49, "duration": 20, "velocity": 71}, {"time": 2210, "pitch": 61, "duration": 10, "velocity": 92}, {"time": 2210, "pitch": 64, "duration": 10, "velocity": 89}, {"time": 2216, "pitch": 56, "duration": 7, "velocity": 45}, {"time": 2222, "pitch": 61, "duration": 4, "velocity": 108}, {"time": 2222, "pitch": 68, "duration": 10, "velocity": 87}, {"time": 2225, "pitch": 56, "duration": 4, "velocity": 61}, {"time": 2228, "pitch": 61, "duration": 5, "velocity": 94}, {"time": 2231, "pitch": 64, "duration": 2, "velocity": 73}, {"time": 2234, "pitch": 47, "duration": 17, "velocity": 92}, {"time": 2234, "pitch": 59, "duration": 4, "velocity": 100}, {"time": 2234, "pitch": 63, "duration": 9, "velocity": 96}, {"time": 2237, "pitch": 54, "duration": 11, "velocity": 66}, {"time": 2240, "pitch": 59, "duration": 5, "velocity": 78}, {"time": 2246, "pitch": 59, "duration": 7, "velocity": 97}, {"time": 2246, "pitch": 63, "duration": 6, "velocity": 93}, {"time": 2246, "pitch": 66, "duration": 12, "velocity": 94}, {"time": 2252, "pitch": 54, "duration": 6, "velocity": 66}, {"time": 2258, "pitch": 45, "duration": 18, "velocity": 92}, {"time": 2258, "pitch": 57, "duration": 11, "velocity": 82}, {"time": 2258, "pitch": 61, "duration": 8, "velocity": 87}, {"time": 2264, "pitch": 52, "duration": 7, "velocity": 48}, {"time": 2270, "pitch": 57, "duration": 4, "velocity": 80}, {"time": 2270, "pitch": 61, "duration": 5, "velocity": 114}, {"time": 2270, "pitch": 64, "duration": 10, "velocity": 97}, {"time": 2273, "pitch": 52, "duration": 5, "velocity": 73}, {"time": 2276, "pitch": 57, "duration": 4, "velocity": 94}, {"time": 2279, "pitch": 61, "duration": 3, "velocity": 94}, {"time": 2282, "pitch": 52, "duration": 10, "velocity": 80}, {"time": 2282, "pitch": 59, "duration": 4, "velocity": 92}, {"time": 2282, "pitch": 64, "duration": 6, "velocity": 84}, {"time": 2288, "pitch": 59, "duration": 4, "velocity": 89}, {"time": 2294, "pitch": 49, "duration": 11, "velocity": 92}, {"time": 2294, "pitch": 61, "duration": 4, "velocity": 87}, {"time": 2294, "pitch": 64, "duration": 8, "velocity": 84}, {"time": 2300, "pitch": 61, "duration": 5, "velocity": 87}, {"time": 2306, "pitch": 54, "duration": 18, "velocity": 100}, {"time": 2306, "pitch": 66, "duration": 7, "velocity": 82}, {"time": 2306, "pitch": 69, "duration": 10, "velocity": 92}, {"time": 2312, "pitch": 61, "duration": 5, "velocity": 78}, {"time": 2315, "pitch": 66, "duration": 5, "velocity": 100}, {"time": 2318, "pitch": 61, "duration": 4, "velocity": 73}, {"time": 2321, "pitch": 66, "duration": 4, "velocity": 108}, {"time": 2321, "pitch": 73, "duration": 4, "velocity": 100}, {"time": 2324, "pitch": 61, "duration": 2, "velocity": 80}, {"time": 2330, "pitch": 45, "duration": 16, "velocity": 100}, {"time": 2330, "pitch": 57, "duration": 10, "velocity": 84}, {"time": 2330, "pitch": 60, "duration": 9, "velocity": 70}, {"time": 2336, "pitch": 52, "duration": 7, "velocity": 37}, {"time": 2342, "pitch": 57, "duration": 6, "velocity": 82}, {"time": 2342, "pitch": 60, "duration": 6, "velocity": 90}, {"time": 2342, "pitch": 64, "duration": 6, "velocity": 94}, {"time": 2354, "pitch": 52, "duration": 23, "velocity": 69}, {"time": 2354, "pitch": 59, "duration": 4, "velocity": 82}, {"time": 2354, "pitch": 64, "duration": 10, "velocity": 84}, {"time": 2360, "pitch": 59, "duration": 4, "velocity": 51}, {"time": 2366, "pitch": 59, "duration": 2, "velocity": 108}, {"time": 2366, "pitch": 68, "duration": 7, "velocity": 72}, {"time": 2369, "pitch": 64, "duration": 4, "velocity": 92}, {"time": 2372, "pitch": 66, "duration": 4, "velocity": 83}, {"time": 2375, "pitch": 59, "duration": 2, "velocity": 71}, {"time": 2378, "pitch": 52, "duration": 22, "velocity": 100}, {"time": 2378, "pitch": 64, "duration": 7, "velocity": 80}, {"time": 2378, "pitch": 68, "duration": 8, "velocity": 82}, {"time": 2378, "pitch": 71, "duration": 11, "velocity": 89}, {"time": 2384, "pitch": 59, "duration": 4, "velocity": 47}, {"time": 2387, "pitch": 64, "duration": 5, "velocity": 92}, {"time": 2390, "pitch": 59, "duration": 4, "velocity": 48}, {"time": 2393, "pitch": 66, "duration": 6, "velocity": 94}, {"time": 2396, "pitch": 59, "duration": 5, "velocity": 34}, {"time": 2399, "pitch": 68, "duration": 3, "velocity": 77}, {"time": 2402, "pitch": 42, "duration": 17, "velocity": 96}, {"time": 2402, "pitch": 54, "duration": 5, "velocity": 68}, {"time": 2402, "pitch": 69, "duration": 7, "velocity": 97}, {"time": 2405, "pitch": 49, "duration": 8, "velocity": 39}, {"time": 2408, "pitch": 54, "duration": 8, "velocity": 74}, {"time": 2411, "pitch": 61, "duration": 6, "velocity": 77}, {"time": 2414, "pitch": 49, "duration": 5, "velocity": 38}, {"time": 2417, "pitch": 57, "duration": 4, "velocity": 97}, {"time": 2420, "pitch": 42, "duration": 2, "velocity": 27}, {"time": 2420, "pitch": 49, "duration": 2, "velocity": 28}, {"time": 2426, "pitch": 45, "duration": 23, "velocity": 55}, {"time": 2426, "pitch": 57, "duration": 4, "velocity": 78}, {"time": 2426, "pitch": 60, "duration": 7, "velocity": 92}, {"time": 2429, "pitch": 52, "duration": 8, "velocity": 78}, {"time": 2432, "pitch": 57, "duration": 16, "velocity": 76}, {"time": 2435, "pitch": 64, "duration": 7, "velocity": 84}, {"time": 2438, "pitch": 52, "duration": 5, "velocity": 66}, {"time": 2441, "pitch": 60, "duration": 7, "velocity": 76}, {"time": 2444, "pitch": 64, "duration": 52, "velocity": 64}, {"time": 2450, "pitch": 45, "duration": 30, "velocity": 48}, {"time": 2450, "pitch": 57, "duration": 44, "velocity": 50}, {"time": 2451, "pitch": 60, "duration": 44, "velocity": 69}, {"time": 2453, "pitch": 69, "duration": 45, "velocity": 76}, {"time": 2498, "pitch": 52, "duration": 15, "velocity": 73}, {"time": 2498, "pitch": 64, "duration": 9, "velocity": 67}, {"time": 2498, "pitch": 68, "duration": 11, "velocity": 70}, {"time": 2504, "pitch": 59, "duration": 9, "velocity": 48}, {"time": 2510, "pitch": 64, "duration": 6, "velocity": 73}, {"time": 2510, "pitch": 68, "duration": 6, "velocity": 90}, {"time": 2522, "pitch": 44, "duration": 18, "velocity": 44}, {"time": 2522, "pitch": 59, "duration": 8, "velocity": 49}, {"time": 2522, "pitch": 63, "duration": 8, "velocity": 23}, {"time": 2528, "pitch": 51, "duration": 9, "velocity": 26}, {"time": 2534, "pitch": 59, "duration": 7, "velocity": 87}, {"time": 2534, "pitch": 68, "duration": 10, "velocity": 52}, {"time": 2540, "pitch": 63, "duration": 4, "velocity": 52}, {"time": 2543, "pitch": 59, "duration": 2, "velocity": 55}, {"time": 2546, "pitch": 45, "duration": 18, "velocity": 78}, {"time": 2546, "pitch": 57, "duration": 10, "velocity": 64}, {"time": 2546, "pitch": 61, "duration": 9, "velocity": 78}, {"time": 2552, "pitch": 52, "duration": 7, "velocity": 46}, {"time": 2558, "pitch": 57, "duration": 4, "velocity": 94}, {"time": 2558, "pitch": 64, "duration": 7, "velocity": 92}, {"time": 2561, "pitch": 52, "duration": 7, "velocity": 73}, {"time": 2564, "pitch": 57, "duration": 4, "velocity": 64}, {"time": 2567, "pitch": 61, "duration": 3, "velocity": 69}, {"time": 2570, "pitch": 47, "duration": 15, "velocity": 80}, {"time": 2570, "pitch": 59, "duration": 9, "velocity": 66}, {"time": 2570, "pitch": 63, "duration": 6, "velocity": 46}, {"time": 2576, "pitch": 54, "duration": 7, "velocity": 43}, {"time": 2582, "pitch": 59, "duration": 7, "velocity": 84}, {"time": 2582, "pitch": 63, "duration": 7, "velocity": 68}, {"time": 2582, "pitch": 66, "duration": 8, "velocity": 84}, {"time": 2588, "pitch": 54, "duration": 4, "velocity": 60}, {"time": 2591, "pitch": 59, "duration": 2, "velocity": 69}, {"time": 2594, "pitch": 52, "duration": 17, "velocity": 97}, {"time": 2594, "pitch": 64, "duration": 9, "velocity": 76}, {"time": 2594, "pitch": 68, "duration": 11, "velocity": 82}, {"time": 2600, "pitch": 59, "duration": 8, "velocity": 51}, {"time": 2606, "pitch": 64, "duration": 4, "velocity": 66}, {"time": 2606, "pitch": 68, "duration": 7, "velocity": 59}, {"time": 2609, "pitch": 59, "duration": 3, "velocity": 67}, {"time": 2612, "pitch": 64, "duration": 4, "velocity": 71}, {"time": 2615, "pitch": 68, "duration": 5, "velocity": 93}, {"time": 2618, "pitch": 44, "duration": 18, "velocity": 82}, {"time": 2621, "pitch": 51, "duration": 11, "velocity": 24}, {"time": 2624, "pitch": 56, "duration": 3, "velocity": 34}, {"time": 2630, "pitch": 56, "duration": 6, "velocity": 85}, {"time": 2630, "pitch": 63, "duration": 6, "velocity": 63}, {"time": 2636, "pitch": 51, "duration": 2, "velocity": 39}, {"time": 2642, "pitch": 45, "duration": 21, "velocity": 94}, {"time": 2642, "pitch": 57, "duration": 4, "velocity": 73}, {"time": 2642, "pitch": 61, "duration": 4, "velocity": 84}, {"time": 2645, "pitch": 52, "duration": 16, "velocity": 76}, {"time": 2648, "pitch": 57, "duration": 4, "velocity": 89}, {"time": 2651, "pitch": 59, "duration": 5, "velocity": 89}, {"time": 2654, "pitch": 61, "duration": 8, "velocity": 84}, {"time": 2660, "pitch": 64, "duration": 5, "velocity": 82}, {"time": 2666, "pitch": 45, "duration": 26, "velocity": 92}, {"time": 2669, "pitch": 52, "duration": 22, "velocity": 53}, {"time": 2672, "pitch": 57, "duration": 4, "velocity": 69}, {"time": 2675, "pitch": 59, "duration": 4, "velocity": 80}, {"time": 2678, "pitch": 61, "duration": 4, "velocity": 99}, {"time": 2682, "pitch": 64, "duration": 2, "velocity": 84}, {"time": 2686, "pitch": 69, "duration": 6, "velocity": 60}, {"time": 2696, "pitch": 45, "duration": 49, "velocity": 43}, {"time": 2697, "pitch": 57, "duration": 49, "velocity": 32}, {"time": 2697, "pitch": 52, "duration": 48, "velocity": 18}, {"time": 2698, "pitch": 61, "duration": 48, "velocity": 30}, {"time": 2700, "pitch": 69, "duration": 46, "velocity": 55}, {"time": 2701, "pitch": 76, "duration": 47, "velocity": 55}, {"time": 2704, "pitch": 88, "duration": 46, "velocity": 55}], "annotations": [{"time": 7, "annotation": {"number": 64, "value": 127}, "group": "control_change"}, {"time": 26, "annotation": {"number": 64, "value": 0}, "group": "control_change"}, {"time": 32, "annotation": {"number": 64, "value": 127}, "group": "control_change"}, {"time": 51, "annotation": {"number": 64, "value": 0}, "group": "control_change"}, {"time": 57, "annotation": {"number": 64, "value": 127}, "group": "control_change"}, {"time": 73, "annotation": {"number": 64, "value": 0}, "group": "control_change"}, {"time": 80, "annotation": {"number": 64, "value": 127}, "group": "control_change"}, {"time": 98, "annotation": {"number": 64, "value": 0}, "group": "control_change"}, {"time": 106, "annotation": {"number": 64, "value": 127}, "group": "control_change"}, {"time": 121, "annotation": {"number": 64, "value": 0}, "group": "control_change"}, {"time": 125, "annotation": {"number": 64, "value": 127}, "group": "control_change"}, {"time": 148, "annotation": {"number": 64, "value": 127}, "group": "control_change"}, {"time": 155, "annotation": {"number": 64, "value": 0}, "group": "control_change"}, {"time": 161, "annotation": {"number": 64, "value": 127}, "group": "control_change"}, {"time": 170, "annotation": {"number": 64, "value": 0}, "group": "control_change"}, {"time": 198, "annotation": {"number": 64, "value": 127}, "group": "control_change"}, {"time": 218, "annotation": {"number": 64, "value": 0}, "group": "control_change"}, {"time": 224, "annotation": {"number": 64, "value": 127}, "group": "control_change"}, {"time": 243, "annotation": {"number": 64, "value": 0}, "group": "control_change"}, {"time": 248, "annotation": {"number": 64, "value": 127}, "group": "control_change"}, {"time": 266, "annotation": {"number": 64, "value": 0}, "group": "control_change"}, {"time": 273, "annotation": {"number": 64, "value": 127}, "group": "control_change"}, {"time": 290, "annotation": {"number": 64, "value": 0}, "group": "control_change"}, {"time": 296, "annotation": {"number": 64, "value": 127}, "group": "control_change"}, {"time": 314, "annotation": {"number": 64, "value": 0}, "group": "control_change"}, {"time": 323, "annotation": {"number": 64, "value": 127}, "group": "control_change"}, {"time": 338, "annotation": {"number": 64, "value": 0}, "group": "control_change"}, {"time": 344, "annotation": {"number": 64, "value": 127}, "group": "control_change"}, {"time": 363, "annotation": {"number": 64, "value": 0}, "group": "control_change"}, {"time": 367, "annotation": {"number": 64, "value": 127}, "group": "control_change"}, {"time": 372, "annotation": {"number": 64, "value": 0}, "group": "control_change"}, {"time": 375, "annotation": {"number": 64, "value": 127}, "group": "control_change"}, {"time": 386, "annotation": {"number": 64, "value": 0}, "group": "control_change"}, {"time": 392, "annotation": {"number": 64, "value": 127}, "group": "control_change"}, {"time": 410, "annotation": {"number": 64, "value": 0}, "group": "control_change"}, {"time": 421, "annotation": {"number": 64, "value": 127}, "group": "control_change"}, {"time": 434, "annotation": {"number": 64, "value": 0}, "group": "control_change"}, {"time": 440, "annotation": {"number": 64, "value": 127}, "group": "control_change"}, {"time": 457, "annotation": {"number": 64, "value": 0}, "group": "control_change"}, {"time": 463, "annotation": {"number": 64, "value": 127}, "group": "control_change"}, {"time": 482, "annotation": {"number": 64, "value": 0}, "group": "control_change"}, {"time": 488, "annotation": {"number": 64, "value": 127}, "group": "control_change"}, {"time": 506, "annotation": {"number": 64, "value": 0}, "group": "control_change"}, {"time": 514, "annotation": {"number": 64, "value": 127}, "group": "control_change"}, {"time": 529, "annotation": {"number": 64, "value": 0}, "group": "control_change"}, {"time": 537, "annotation": {"number": 64, "value": 127}, "group": "control_change"}, {"time": 553, "annotation": {"number": 64, "value": 0}, "group": "control_change"}, {"time": 555, "annotation": {"number": 64, "value": 127}, "group": "control_change"}, {"time": 565, "annotation": {"number": 64, "value": 0}, "group": "control_change"}, {"time": 567, "annotation": {"number": 64, "value": 127}, "group": "control_change"}, {"time": 579, "annotation": {"number": 64, "value": 0}, "group": "control_change"}, {"time": 584, "annotation": {"number": 64, "value": 127}, "group": "control_change"}, {"time": 601, "annotation": {"number": 64, "value": 0}, "group": "control_change"}, {"time": 603, "annotation": {"number": 64, "value": 127}, "group": "control_change"}, {"time": 624, "annotation": {"number": 64, "value": 0}, "group": "control_change"}, {"time": 628, "annotation": {"number": 64, "value": 127}, "group": "control_change"}, {"time": 651, "annotation": {"number": 64, "value": 0}, "group": "control_change"}, {"time": 654, "annotation": {"number": 64, "value": 127}, "group": "control_change"}, {"time": 674, "annotation": {"number": 64, "value": 0}, "group": "control_change"}, {"time": 680, "annotation": {"number": 64, "value": 127}, "group": "control_change"}, {"time": 697, "annotation": {"number": 64, "value": 0}, "group": "control_change"}, {"time": 703, "annotation": {"number": 64, "value": 127}, "group": "control_change"}, {"time": 723, "annotation": {"number": 64, "value": 0}, "group": "control_change"}, {"time": 728, "annotation": {"number": 64, "value": 127}, "group": "control_change"}, {"time": 746, "annotation": {"number": 64, "value": 0}, "group": "control_change"}, {"time": 751, "annotation": {"number": 64, "value": 127}, "group": "control_change"}, {"time": 758, "annotation": {"number": 64, "value": 0}, "group": "control_change"}, {"time": 762, "annotation": {"number": 64, "value": 127}, "group": "control_change"}, {"time": 770, "annotation": {"number": 64, "value": 0}, "group": "control_change"}, {"time": 775, "annotation": {"number": 64, "value": 127}, "group": "control_change"}, {"time": 793, "annotation": {"number": 64, "value": 0}, "group": "control_change"}, {"time": 797, "annotation": {"number": 64, "value": 127}, "group": "control_change"}, {"time": 810, "annotation": {"number": 64, "value": 0}, "group": "control_change"}, {"time": 812, "annotation": {"number": 64, "value": 127}, "group": "control_change"}, {"time": 818, "annotation": {"number": 64, "value": 0}, "group": "control_change"}, {"time": 823, "annotation": {"number": 64, "value": 127}, "group": "control_change"}, {"time": 842, "annotation": {"number": 64, "value": 0}, "group": "control_change"}, {"time": 848, "annotation": {"number": 64, "value": 127}, "group": "control_change"}, {"time": 865, "annotation": {"number": 64, "value": 0}, "group": "control_change"}, {"time": 871, "annotation": {"number": 64, "value": 127}, "group": "control_change"}, {"time": 890, "annotation": {"number": 64, "value": 0}, "group": "control_change"}, {"time": 894, "annotation": {"number": 64, "value": 127}, "group": "control_change"}, {"time": 913, "annotation": {"number": 64, "value": 0}, "group": "control_change"}, {"time": 920, "annotation": {"number": 64, "value": 127}, "group": "control_change"}, {"time": 937, "annotation": {"number": 64, "value": 0}, "group": "control_change"}, {"time": 942, "annotation": {"number": 64, "value": 127}, "group": "control_change"}, {"time": 949, "annotation": {"number": 64, "value": 0}, "group": "control_change"}, {"time": 953, "annotation": {"number": 64, "value": 127}, "group": "control_change"}, {"time": 969, "annotation": {"number": 64, "value": 127}, "group": "control_change"}, {"time": 986, "annotation": {"number": 64, "value": 0}, "group": "control_change"}, {"time": 992, "annotation": {"number": 64, "value": 127}, "group": "control_change"}, {"time": 1009, "annotation": {"number": 64, "value": 0}, "group": "control_change"}, {"time": 1016, "annotation": {"number": 64, "value": 127}, "group": "control_change"}, {"time": 1034, "annotation": {"number": 64, "value": 0}, "group": "control_change"}, {"time": 1040, "annotation": {"number": 64, "value": 127}, "group": "control_change"}, {"time": 1058, "annotation": {"number": 64, "value": 0}, "group": "control_change"}, {"time": 1063, "annotation": {"number": 64, "value": 127}, "group": "control_change"}, {"time": 1082, "annotation": {"number": 64, "value": 0}, "group": "control_change"}, {"time": 1088, "annotation": {"number": 64, "value": 127}, "group": "control_change"}, {"time": 1107, "annotation": {"number": 64, "value": 0}, "group": "control_change"}, {"time": 1113, "annotation": {"number": 64, "value": 127}, "group": "control_change"}, {"time": 1129, "annotation": {"number": 64, "value": 0}, "group": "control_change"}, {"time": 1136, "annotation": {"number": 64, "value": 127}, "group": "control_change"}, {"time": 1154, "annotation": {"number": 64, "value": 0}, "group": "control_change"}, {"time": 1162, "annotation": {"number": 64, "value": 127}, "group": "control_change"}, {"time": 1177, "annotation": {"number": 64, "value": 0}, "group": "control_change"}, {"time": 1181, "annotation": {"number": 64, "value": 127}, "group": "control_change"}, {"time": 1204, "annotation": {"number": 64, "value": 127}, "group": "control_change"}, {"time": 1211, "annotation": {"number": 64, "value": 0}, "group": "control_change"}, {"time": 1217, "annotation": {"number": 64, "value": 127}, "group": "control_change"}, {"time": 1226, "annotation": {"number": 64, "value": 0}, "group": "control_change"}, {"time": 1227, "annotation": {"number": 64, "value": 127}, "group": "control_change"}, {"time": 1238, "annotation": {"number": 64, "value": 0}, "group": "control_change"}, {"time": 1242, "annotation": {"number": 64, "value": 127}, "group": "control_change"}, {"time": 1249, "annotation": {"number": 64, "value": 0}, "group": "control_change"}, {"time": 1256, "annotation": {"number": 64, "value": 127}, "group": "control_change"}, {"time": 1274, "annotation": {"number": 64, "value": 0}, "group": "control_change"}, {"time": 1285, "annotation": {"number": 64, "value": 127}, "group": "control_change"}, {"time": 1298, "annotation": {"number": 64, "value": 0}, "group": "control_change"}, {"time": 1304, "annotation": {"number": 64, "value": 127}, "group": "control_change"}, {"time": 1321, "annotation": {"number": 64, "value": 0}, "group": "control_change"}, {"time": 1327, "annotation": {"number": 64, "value": 127}, "group": "control_change"}, {"time": 1346, "annotation": {"number": 64, "value": 0}, "group": "control_change"}, {"time": 1352, "annotation": {"number": 64, "value": 127}, "group": "control_change"}, {"time": 1370, "annotation": {"number": 64, "value": 0}, "group": "control_change"}, {"time": 1378, "annotation": {"number": 64, "value": 127}, "group": "control_change"}, {"time": 1393, "annotation": {"number": 64, "value": 0}, "group": "control_change"}, {"time": 1401, "annotation": {"number": 64, "value": 127}, "group": "control_change"}, {"time": 1417, "annotation": {"number": 64, "value": 0}, "group": "control_change"}, {"time": 1419, "annotation": {"number": 64, "value": 127}, "group": "control_change"}, {"time": 1429, "annotation": {"number": 64, "value": 0}, "group": "control_change"}, {"time": 1431, "annotation": {"number": 64, "value": 127}, "group": "control_change"}, {"time": 1443, "annotation": {"number": 64, "value": 0}, "group": "control_change"}, {"time": 1448, "annotation": {"number": 64, "value": 127}, "group": "control_change"}, {"time": 1465, "annotation": {"number": 64, "value": 0}, "group": "control_change"}, {"time": 1467, "annotation": {"number": 64, "value": 127}, "group": "control_change"}, {"time": 1488, "annotation": {"number": 64, "value": 0}, "group": "control_change"}, {"time": 1492, "annotation": {"number": 64, "value": 127}, "group": "control_change"}, {"time": 1515, "annotation": {"number": 64, "value": 0}, "group": "control_change"}, {"time": 1518, "annotation": {"number": 64, "value": 127}, "group": "control_change"}, {"time": 1538, "annotation": {"number": 64, "value": 0}, "group": "control_change"}, {"time": 1544, "annotation": {"number": 64, "value": 127}, "group": "control_change"}, {"time": 1561, "annotation": {"number": 64, "value": 0}, "group": "control_change"}, {"time": 1567, "annotation": {"number": 64, "value": 127}, "group": "control_change"}, {"time": 1587, "annotation": {"number": 64, "value": 0}, "group": "control_change"}, {"time": 1592, "annotation": {"number": 64, "value": 127}, "group": "control_change"}, {"time": 1610, "annotation": {"number": 64, "value": 0}, "group": "control_change"}, {"time": 1615, "annotation": {"number": 64, "value": 127}, "group": "control_change"}, {"time": 1622, "annotation": {"number": 64, "value": 0}, "group": "control_change"}, {"time": 1626, "annotation": {"number": 64, "value": 127}, "group": "control_change"}, {"time": 1634, "annotation": {"number": 64, "value": 0}, "group": "control_change"}, {"time": 1639, "annotation": {"number": 64, "value": 127}, "group": "control_change"}, {"time": 1657, "annotation": {"number": 64, "value": 0}, "group": "control_change"}, {"time": 1661, "annotation": {"number": 64, "value": 127}, "group": "control_change"}, {"time": 1674, "annotation": {"number": 64, "value": 0}, "group": "control_change"}, {"time": 1676, "annotation": {"number": 64, "value": 127}, "group": "control_change"}, {"time": 1682, "annotation": {"number": 64, "value": 0}, "group": "control_change"}, {"time": 1687, "annotation": {"number": 64, "value": 127}, "group": "control_change"}, {"time": 1706, "annotation": {"number": 64, "value": 0}, "group": "control_change"}, {"time": 1712, "annotation": {"number": 64, "value": 127}, "group": "control_change"}, {"time": 1729, "annotation": {"number": 64, "value": 0}, "group": "control_change"}, {"time": 1735, "annotation": {"number": 64, "value": 127}, "group": "control_change"}, {"time": 1754, "annotation": {"number": 64, "value": 0}, "group": "control_change"}, {"time": 1758, "annotation": {"number": 64, "value": 127}, "group": "control_change"}, {"time": 1777, "annotation": {"number": 64, "value": 0}, "group": "control_change"}, {"time": 1784, "annotation": {"number": 64, "value": 127}, "group": "control_change"}, {"time": 1801, "annotation": {"number": 64, "value": 0}, "group": "control_change"}, {"time": 1806, "annotation": {"number": 64, "value": 127}, "group": "control_change"}, {"time": 1813, "annotation": {"number": 64, "value": 0}, "group": "control_change"}, {"time": 1817, "annotation": {"number": 64, "value": 127}, "group": "control_change"}, {"time": 1833, "annotation": {"number": 64, "value": 127}, "group": "control_change"}, {"time": 1850, "annotation": {"number": 64, "value": 0}, "group": "control_change"}, {"time": 1856, "annotation": {"number": 64, "value": 127}, "group": "control_change"}, {"time": 1873, "annotation": {"number": 64, "value": 0}, "group": "control_change"}, {"time": 1880, "annotation": {"number": 64, "value": 127}, "group": "control_change"}, {"time": 1898, "annotation": {"number": 64, "value": 0}, "group": "control_change"}, {"time": 1899, "annotation": {"number": 64, "value": 127}, "group": "control_change"}, {"time": 1922, "annotation": {"number": 64, "value": 0}, "group": "control_change"}, {"time": 1924, "annotation": {"number": 64, "value": 127}, "group": "control_change"}, {"time": 1946, "annotation": {"number": 64, "value": 0}, "group": "control_change"}, {"time": 1972, "annotation": {"number": 64, "value": 127}, "group": "control_change"}, {"time": 1995, "annotation": {"number": 64, "value": 0}, "group": "control_change"}, {"time": 1998, "annotation": {"number": 64, "value": 127}, "group": "control_change"}, {"time": 2018, "annotation": {"number": 64, "value": 0}, "group": "control_change"}, {"time": 2024, "annotation": {"number": 64, "value": 127}, "group": "control_change"}, {"time": 2041, "annotation": {"number": 64, "value": 0}, "group": "control_change"}, {"time": 2047, "annotation": {"number": 64, "value": 127}, "group": "control_change"}, {"time": 2067, "annotation": {"number": 64, "value": 0}, "group": "control_change"}, {"time": 2072, "annotation": {"number": 64, "value": 127}, "group": "control_change"}, {"time": 2090, "annotation": {"number": 64, "value": 0}, "group": "control_change"}, {"time": 2095, "annotation": {"number": 64, "value": 127}, "group": "control_change"}, {"time": 2102, "annotation": {"number": 64, "value": 0}, "group": "control_change"}, {"time": 2106, "annotation": {"number": 64, "value": 127}, "group": "control_change"}, {"time": 2114, "annotation": {"number": 64, "value": 0}, "group": "control_change"}, {"time": 2119, "annotation": {"number": 64, "value": 127}, "group": "control_change"}, {"time": 2137, "annotation": {"number": 64, "value": 0}, "group": "control_change"}, {"time": 2141, "annotation": {"number": 64, "value": 127}, "group": "control_change"}, {"time": 2154, "annotation": {"number": 64, "value": 0}, "group": "control_change"}, {"time": 2156, "annotation": {"number": 64, "value": 127}, "group": "control_change"}, {"time": 2162, "annotation": {"number": 64, "value": 0}, "group": "control_change"}, {"time": 2167, "annotation": {"number": 64, "value": 127}, "group": "control_change"}, {"time": 2186, "annotation": {"number": 64, "value": 0}, "group": "control_change"}, {"time": 2192, "annotation": {"number": 64, "value": 127}, "group": "control_change"}, {"time": 2209, "annotation": {"number": 64, "value": 0}, "group": "control_change"}, {"time": 2215, "annotation": {"number": 64, "value": 127}, "group": "control_change"}, {"time": 2234, "annotation": {"number": 64, "value": 0}, "group": "control_change"}, {"time": 2238, "annotation": {"number": 64, "value": 127}, "group": "control_change"}, {"time": 2257, "annotation": {"number": 64, "value": 0}, "group": "control_change"}, {"time": 2264, "annotation": {"number": 64, "value": 127}, "group": "control_change"}, {"time": 2281, "annotation": {"number": 64, "value": 0}, "group": "control_change"}, {"time": 2286, "annotation": {"number": 64, "value": 127}, "group": "control_change"}, {"time": 2293, "annotation": {"number": 64, "value": 0}, "group": "control_change"}, {"time": 2297, "annotation": {"number": 64, "value": 127}, "group": "control_change"}, {"time": 2313, "annotation": {"number": 64, "value": 127}, "group": "control_change"}, {"time": 2330, "annotation": {"number": 64, "value": 0}, "group": "control_change"}, {"time": 2336, "annotation": {"number": 64, "value": 127}, "group": "control_change"}, {"time": 2353, "annotation": {"number": 64, "value": 0}, "group": "control_change"}, {"time": 2360, "annotation": {"number": 64, "value": 127}, "group": "control_change"}, {"time": 2378, "annotation": {"number": 64, "value": 0}, "group": "control_change"}, {"time": 2379, "annotation": {"number": 64, "value": 127}, "group": "control_change"}, {"time": 2402, "annotation": {"number": 64, "value": 0}, "group": "control_change"}, {"time": 2406, "annotation": {"number": 64, "value": 127}, "group": "control_change"}, {"time": 2426, "annotation": {"number": 64, "value": 0}, "group": "control_change"}, {"time": 2431, "annotation": {"number": 64, "value": 127}, "group": "control_change"}, {"time": 2452, "annotation": {"number": 64, "value": 0}, "group": "control_change"}, {"time": 2480, "annotation": {"number": 64, "value": 127}, "group": "control_change"}, {"time": 2495, "annotation": {"number": 64, "value": 0}, "group": "control_change"}, {"time": 2503, "annotation": {"number": 64, "value": 127}, "group": "control_change"}, {"time": 2522, "annotation": {"number": 64, "value": 0}, "group": "control_change"}, {"time": 2528, "annotation": {"number": 64, "value": 127}, "group": "control_change"}, {"time": 2547, "annotation": {"number": 64, "value": 0}, "group": "control_change"}, {"time": 2553, "annotation": {"number": 64, "value": 127}, "group": "control_change"}, {"time": 2569, "annotation": {"number": 64, "value": 0}, "group": "control_change"}, {"time": 2576, "annotation": {"number": 64, "value": 127}, "group": "control_change"}, {"time": 2594, "annotation": {"number": 64, "value": 0}, "group": "control_change"}, {"time": 2602, "annotation": {"number": 64, "value": 127}, "group": "control_change"}, {"time": 2617, "annotation": {"number": 64, "value": 0}, "group": "control_change"}, {"time": 2621, "annotation": {"number": 64, "value": 127}, "group": "control_change"}, {"time": 2644, "annotation": {"number": 64, "value": 127}, "group": "control_change"}, {"time": 2651, "annotation": {"number": 64, "value": 0}, "group": "control_change"}, {"time": 2657, "annotation": {"number": 64, "value": 127}, "group": "control_change"}, {"time": 2666, "annotation": {"number": 64, "value": 0}, "group": "control_change"}, {"time": 2668, "annotation": {"number": 64, "value": 127}, "group": "control_change"}, {"time": 2697, "annotation": {"number": 64, "value": 0}, "group": "control_change"}]}]}