{"metadata": {"schema_version": "0.2", "title": "None", "source_filename": "020.mid", "source_format": "midi"}, "resolution": 12, "tempos": [{"time": 0, "qpm": 104.00001386666851}, {"time": 340, "qpm": 103.0000480666891}, {"time": 786, "qpm": 104.25010294697665}, {"time": 975, "qpm": 103.75022479215372}, {"time": 1098, "qpm": 102.0000510000255}, {"time": 1180, "qpm": 103.50002587500647}, {"time": 1428, "qpm": 103.0000480666891}, {"time": 1431, "qpm": 103.25014239915473}, {"time": 1543, "qpm": 103.0000480666891}, {"time": 1939, "qpm": 103.50002587500647}, {"time": 2134, "qpm": 104.00001386666851}, {"time": 2250, "qpm": 103.50002587500647}, {"time": 2631, "qpm": 103.0000480666891}, {"time": 2819, "qpm": 104.00001386666851}, {"time": 2993, "qpm": 103.0000480666891}, {"time": 3468, "qpm": 103.75022479215372}, {"time": 3742, "qpm": 104.00001386666851}, {"time": 3847, "qpm": 103.0000480666891}, {"time": 4362, "qpm": 103.50002587500647}, {"time": 4549, "qpm": 103.75022479215372}, {"time": 4837, "qpm": 101.00006901671382}, {"time": 4851, "qpm": 97.00010993345792}, {"time": 4865, "qpm": 95.00014250021376}, {"time": 4878, "qpm": 93.000186000372}], "time_signatures": [{"time": 0, "numerator": 2, "denominator": 4}], "tracks": [{"program": 0, "is_drum": false, "name": "MELODY", "notes": [{"time": 406, "pitch": 69, "duration": 9, "velocity": 120}, {"time": 418, "pitch": 64, "duration": 3, "velocity": 111}, {"time": 424, "pitch": 64, "duration": 18, "velocity": 114}, {"time": 448, "pitch": 69, "duration": 3, "velocity": 114}, {"time": 454, "pitch": 71, "duration": 9, "velocity": 114}, {"time": 466, "pitch": 64, "duration": 3, "velocity": 111}, {"time": 472, "pitch": 64, "duration": 21, "velocity": 108}, {"time": 502, "pitch": 72, "duration": 9, "velocity": 105}, {"time": 514, "pitch": 71, "duration": 3, "velocity": 108}, {"time": 520, "pitch": 72, "duration": 12, "velocity": 114}, {"time": 538, "pitch": 74, "duration": 9, "velocity": 111}, {"time": 550, "pitch": 71, "duration": 9, "velocity": 117}, {"time": 562, "pitch": 69, "duration": 4, "velocity": 105}, {"time": 568, "pitch": 67, "duration": 23, "velocity": 114}, {"time": 598, "pitch": 69, "duration": 8, "velocity": 117}, {"time": 610, "pitch": 67, "duration": 3, "velocity": 108}, {"time": 616, "pitch": 65, "duration": 13, "velocity": 114}, {"time": 634, "pitch": 65, "duration": 3, "velocity": 114}, {"time": 640, "pitch": 67, "duration": 3, "velocity": 105}, {"time": 646, "pitch": 69, "duration": 9, "velocity": 111}, {"time": 658, "pitch": 69, "duration": 8, "velocity": 111}, {"time": 670, "pitch": 67, "duration": 3, "velocity": 105}, {"time": 676, "pitch": 65, "duration": 10, "velocity": 114}, {"time": 688, "pitch": 64, "duration": 51, "velocity": 108}, {"time": 790, "pitch": 69, "duration": 9, "velocity": 111}, {"time": 802, "pitch": 64, "duration": 3, "velocity": 114}, {"time": 808, "pitch": 64, "duration": 13, "velocity": 111}, {"time": 827, "pitch": 69, "duration": 7, "velocity": 108}, {"time": 838, "pitch": 71, "duration": 8, "velocity": 114}, {"time": 850, "pitch": 64, "duration": 3, "velocity": 114}, {"time": 856, "pitch": 64, "duration": 17, "velocity": 111}, {"time": 886, "pitch": 72, "duration": 8, "velocity": 108}, {"time": 898, "pitch": 71, "duration": 3, "velocity": 105}, {"time": 904, "pitch": 72, "duration": 12, "velocity": 111}, {"time": 917, "pitch": 74, "duration": 11, "velocity": 117}, {"time": 934, "pitch": 71, "duration": 8, "velocity": 108}, {"time": 946, "pitch": 69, "duration": 3, "velocity": 111}, {"time": 952, "pitch": 67, "duration": 22, "velocity": 108}, {"time": 982, "pitch": 69, "duration": 10, "velocity": 114}, {"time": 994, "pitch": 71, "duration": 3, "velocity": 102}, {"time": 1000, "pitch": 72, "duration": 14, "velocity": 105}, {"time": 1018, "pitch": 74, "duration": 6, "velocity": 114}, {"time": 1024, "pitch": 72, "duration": 6, "velocity": 100}, {"time": 1030, "pitch": 71, "duration": 4, "velocity": 102}, {"time": 1036, "pitch": 71, "duration": 3, "velocity": 100}, {"time": 1042, "pitch": 71, "duration": 4, "velocity": 114}, {"time": 1048, "pitch": 71, "duration": 4, "velocity": 105}, {"time": 1054, "pitch": 67, "duration": 7, "velocity": 108}, {"time": 1060, "pitch": 71, "duration": 4, "velocity": 92}, {"time": 1072, "pitch": 69, "duration": 28, "velocity": 114}, {"time": 1162, "pitch": 72, "duration": 3, "velocity": 117}, {"time": 1168, "pitch": 74, "duration": 3, "velocity": 111}, {"time": 1174, "pitch": 76, "duration": 9, "velocity": 117}, {"time": 1186, "pitch": 72, "duration": 8, "velocity": 114}, {"time": 1198, "pitch": 74, "duration": 8, "velocity": 108}, {"time": 1210, "pitch": 72, "duration": 3, "velocity": 108}, {"time": 1216, "pitch": 74, "duration": 3, "velocity": 111}, {"time": 1222, "pitch": 76, "duration": 3, "velocity": 108}, {"time": 1228, "pitch": 77, "duration": 3, "velocity": 105}, {"time": 1234, "pitch": 79, "duration": 3, "velocity": 105}, {"time": 1240, "pitch": 76, "duration": 3, "velocity": 111}, {"time": 1246, "pitch": 74, "duration": 8, "velocity": 114}, {"time": 1258, "pitch": 72, "duration": 3, "velocity": 108}, {"time": 1264, "pitch": 74, "duration": 3, "velocity": 108}, {"time": 1270, "pitch": 76, "duration": 7, "velocity": 117}, {"time": 1282, "pitch": 69, "duration": 9, "velocity": 111}, {"time": 1294, "pitch": 74, "duration": 7, "velocity": 105}, {"time": 1306, "pitch": 72, "duration": 3, "velocity": 102}, {"time": 1312, "pitch": 71, "duration": 3, "velocity": 111}, {"time": 1318, "pitch": 69, "duration": 3, "velocity": 108}, {"time": 1324, "pitch": 71, "duration": 3, "velocity": 111}, {"time": 1330, "pitch": 69, "duration": 3, "velocity": 111}, {"time": 1336, "pitch": 67, "duration": 3, "velocity": 108}, {"time": 1342, "pitch": 64, "duration": 7, "velocity": 120}, {"time": 1354, "pitch": 72, "duration": 4, "velocity": 105}, {"time": 1360, "pitch": 74, "duration": 3, "velocity": 108}, {"time": 1366, "pitch": 76, "duration": 9, "velocity": 114}, {"time": 1378, "pitch": 72, "duration": 9, "velocity": 111}, {"time": 1390, "pitch": 74, "duration": 9, "velocity": 102}, {"time": 1402, "pitch": 72, "duration": 3, "velocity": 105}, {"time": 1408, "pitch": 74, "duration": 3, "velocity": 111}, {"time": 1414, "pitch": 76, "duration": 3, "velocity": 102}, {"time": 1420, "pitch": 77, "duration": 3, "velocity": 108}, {"time": 1426, "pitch": 79, "duration": 3, "velocity": 105}, {"time": 1432, "pitch": 76, "duration": 3, "velocity": 102}, {"time": 1438, "pitch": 74, "duration": 7, "velocity": 108}, {"time": 1450, "pitch": 72, "duration": 3, "velocity": 108}, {"time": 1456, "pitch": 74, "duration": 3, "velocity": 105}, {"time": 1462, "pitch": 76, "duration": 7, "velocity": 114}, {"time": 1474, "pitch": 69, "duration": 8, "velocity": 111}, {"time": 1486, "pitch": 74, "duration": 8, "velocity": 105}, {"time": 1498, "pitch": 72, "duration": 3, "velocity": 108}, {"time": 1504, "pitch": 71, "duration": 9, "velocity": 117}, {"time": 1516, "pitch": 69, "duration": 19, "velocity": 114}, {"time": 1559, "pitch": 69, "duration": 8, "velocity": 120}, {"time": 1570, "pitch": 64, "duration": 3, "velocity": 111}, {"time": 1576, "pitch": 64, "duration": 18, "velocity": 114}, {"time": 1600, "pitch": 69, "duration": 3, "velocity": 114}, {"time": 1606, "pitch": 71, "duration": 9, "velocity": 114}, {"time": 1618, "pitch": 64, "duration": 3, "velocity": 111}, {"time": 1624, "pitch": 64, "duration": 21, "velocity": 108}, {"time": 1654, "pitch": 72, "duration": 9, "velocity": 105}, {"time": 1666, "pitch": 71, "duration": 3, "velocity": 108}, {"time": 1672, "pitch": 72, "duration": 12, "velocity": 114}, {"time": 1690, "pitch": 74, "duration": 9, "velocity": 111}, {"time": 1702, "pitch": 71, "duration": 9, "velocity": 117}, {"time": 1714, "pitch": 69, "duration": 4, "velocity": 105}, {"time": 1720, "pitch": 67, "duration": 23, "velocity": 114}, {"time": 1750, "pitch": 69, "duration": 8, "velocity": 117}, {"time": 1762, "pitch": 67, "duration": 3, "velocity": 108}, {"time": 1768, "pitch": 65, "duration": 13, "velocity": 114}, {"time": 1786, "pitch": 65, "duration": 3, "velocity": 114}, {"time": 1792, "pitch": 67, "duration": 3, "velocity": 105}, {"time": 1798, "pitch": 69, "duration": 9, "velocity": 111}, {"time": 1810, "pitch": 69, "duration": 8, "velocity": 111}, {"time": 1822, "pitch": 67, "duration": 3, "velocity": 105}, {"time": 1828, "pitch": 65, "duration": 10, "velocity": 114}, {"time": 1840, "pitch": 64, "duration": 51, "velocity": 108}, {"time": 1942, "pitch": 69, "duration": 9, "velocity": 111}, {"time": 1954, "pitch": 64, "duration": 3, "velocity": 114}, {"time": 1960, "pitch": 64, "duration": 13, "velocity": 111}, {"time": 1978, "pitch": 69, "duration": 4, "velocity": 108}, {"time": 1990, "pitch": 71, "duration": 8, "velocity": 114}, {"time": 2002, "pitch": 64, "duration": 3, "velocity": 114}, {"time": 2008, "pitch": 64, "duration": 17, "velocity": 111}, {"time": 2038, "pitch": 72, "duration": 8, "velocity": 108}, {"time": 2050, "pitch": 71, "duration": 3, "velocity": 105}, {"time": 2056, "pitch": 72, "duration": 10, "velocity": 111}, {"time": 2067, "pitch": 74, "duration": 7, "velocity": 117}, {"time": 2087, "pitch": 71, "duration": 7, "velocity": 108}, {"time": 2098, "pitch": 69, "duration": 3, "velocity": 111}, {"time": 2104, "pitch": 67, "duration": 22, "velocity": 108}, {"time": 2134, "pitch": 69, "duration": 10, "velocity": 114}, {"time": 2146, "pitch": 71, "duration": 3, "velocity": 102}, {"time": 2152, "pitch": 72, "duration": 14, "velocity": 105}, {"time": 2170, "pitch": 74, "duration": 6, "velocity": 114}, {"time": 2176, "pitch": 72, "duration": 6, "velocity": 100}, {"time": 2182, "pitch": 71, "duration": 4, "velocity": 102}, {"time": 2188, "pitch": 71, "duration": 3, "velocity": 100}, {"time": 2194, "pitch": 71, "duration": 4, "velocity": 114}, {"time": 2200, "pitch": 71, "duration": 4, "velocity": 105}, {"time": 2206, "pitch": 67, "duration": 5, "velocity": 108}, {"time": 2211, "pitch": 71, "duration": 4, "velocity": 92}, {"time": 2224, "pitch": 69, "duration": 27, "velocity": 114}, {"time": 2314, "pitch": 72, "duration": 3, "velocity": 117}, {"time": 2320, "pitch": 74, "duration": 3, "velocity": 111}, {"time": 2326, "pitch": 76, "duration": 9, "velocity": 117}, {"time": 2338, "pitch": 72, "duration": 9, "velocity": 114}, {"time": 2350, "pitch": 74, "duration": 8, "velocity": 108}, {"time": 2362, "pitch": 72, "duration": 3, "velocity": 108}, {"time": 2368, "pitch": 74, "duration": 3, "velocity": 111}, {"time": 2374, "pitch": 76, "duration": 3, "velocity": 108}, {"time": 2380, "pitch": 77, "duration": 3, "velocity": 105}, {"time": 2386, "pitch": 79, "duration": 3, "velocity": 105}, {"time": 2392, "pitch": 76, "duration": 3, "velocity": 111}, {"time": 2398, "pitch": 74, "duration": 8, "velocity": 114}, {"time": 2410, "pitch": 72, "duration": 3, "velocity": 108}, {"time": 2416, "pitch": 74, "duration": 3, "velocity": 108}, {"time": 2422, "pitch": 76, "duration": 7, "velocity": 117}, {"time": 2434, "pitch": 69, "duration": 9, "velocity": 111}, {"time": 2446, "pitch": 74, "duration": 7, "velocity": 105}, {"time": 2458, "pitch": 72, "duration": 3, "velocity": 102}, {"time": 2464, "pitch": 71, "duration": 3, "velocity": 111}, {"time": 2470, "pitch": 69, "duration": 3, "velocity": 108}, {"time": 2476, "pitch": 71, "duration": 3, "velocity": 111}, {"time": 2482, "pitch": 69, "duration": 3, "velocity": 111}, {"time": 2488, "pitch": 67, "duration": 3, "velocity": 108}, {"time": 2494, "pitch": 64, "duration": 7, "velocity": 120}, {"time": 2506, "pitch": 72, "duration": 4, "velocity": 105}, {"time": 2512, "pitch": 74, "duration": 3, "velocity": 108}, {"time": 2518, "pitch": 76, "duration": 9, "velocity": 114}, {"time": 2530, "pitch": 72, "duration": 9, "velocity": 111}, {"time": 2542, "pitch": 74, "duration": 9, "velocity": 102}, {"time": 2554, "pitch": 72, "duration": 3, "velocity": 105}, {"time": 2560, "pitch": 74, "duration": 3, "velocity": 111}, {"time": 2566, "pitch": 76, "duration": 3, "velocity": 102}, {"time": 2572, "pitch": 77, "duration": 3, "velocity": 108}, {"time": 2578, "pitch": 79, "duration": 3, "velocity": 105}, {"time": 2584, "pitch": 76, "duration": 3, "velocity": 102}, {"time": 2590, "pitch": 74, "duration": 7, "velocity": 108}, {"time": 2602, "pitch": 72, "duration": 3, "velocity": 108}, {"time": 2608, "pitch": 74, "duration": 3, "velocity": 105}, {"time": 2614, "pitch": 76, "duration": 7, "velocity": 114}, {"time": 2626, "pitch": 69, "duration": 8, "velocity": 111}, {"time": 2638, "pitch": 74, "duration": 8, "velocity": 105}, {"time": 2650, "pitch": 72, "duration": 3, "velocity": 108}, {"time": 2656, "pitch": 71, "duration": 9, "velocity": 117}, {"time": 2668, "pitch": 69, "duration": 19, "velocity": 114}, {"time": 2698, "pitch": 72, "duration": 3, "velocity": 117}, {"time": 2704, "pitch": 74, "duration": 3, "velocity": 111}, {"time": 2710, "pitch": 76, "duration": 9, "velocity": 117}, {"time": 2722, "pitch": 72, "duration": 9, "velocity": 114}, {"time": 2734, "pitch": 74, "duration": 8, "velocity": 108}, {"time": 2746, "pitch": 72, "duration": 3, "velocity": 108}, {"time": 2752, "pitch": 74, "duration": 3, "velocity": 111}, {"time": 2758, "pitch": 76, "duration": 3, "velocity": 108}, {"time": 2764, "pitch": 77, "duration": 3, "velocity": 105}, {"time": 2770, "pitch": 79, "duration": 3, "velocity": 105}, {"time": 2776, "pitch": 76, "duration": 3, "velocity": 111}, {"time": 2782, "pitch": 74, "duration": 8, "velocity": 114}, {"time": 2794, "pitch": 72, "duration": 3, "velocity": 108}, {"time": 2800, "pitch": 74, "duration": 3, "velocity": 108}, {"time": 2806, "pitch": 76, "duration": 7, "velocity": 117}, {"time": 2818, "pitch": 69, "duration": 9, "velocity": 111}, {"time": 2830, "pitch": 74, "duration": 7, "velocity": 105}, {"time": 2842, "pitch": 72, "duration": 3, "velocity": 102}, {"time": 2848, "pitch": 71, "duration": 3, "velocity": 111}, {"time": 2854, "pitch": 69, "duration": 3, "velocity": 108}, {"time": 2860, "pitch": 71, "duration": 3, "velocity": 111}, {"time": 2866, "pitch": 69, "duration": 3, "velocity": 111}, {"time": 2872, "pitch": 67, "duration": 3, "velocity": 108}, {"time": 2878, "pitch": 64, "duration": 7, "velocity": 120}, {"time": 2890, "pitch": 72, "duration": 4, "velocity": 105}, {"time": 2896, "pitch": 74, "duration": 3, "velocity": 108}, {"time": 2902, "pitch": 76, "duration": 9, "velocity": 114}, {"time": 2914, "pitch": 72, "duration": 9, "velocity": 111}, {"time": 2926, "pitch": 74, "duration": 9, "velocity": 102}, {"time": 2938, "pitch": 72, "duration": 3, "velocity": 105}, {"time": 2944, "pitch": 74, "duration": 3, "velocity": 111}, {"time": 2950, "pitch": 76, "duration": 3, "velocity": 102}, {"time": 2956, "pitch": 77, "duration": 3, "velocity": 108}, {"time": 2962, "pitch": 79, "duration": 3, "velocity": 105}, {"time": 2968, "pitch": 76, "duration": 3, "velocity": 102}, {"time": 2974, "pitch": 74, "duration": 7, "velocity": 108}, {"time": 2986, "pitch": 72, "duration": 3, "velocity": 108}, {"time": 2992, "pitch": 74, "duration": 3, "velocity": 105}, {"time": 2998, "pitch": 76, "duration": 7, "velocity": 114}, {"time": 3010, "pitch": 69, "duration": 8, "velocity": 111}, {"time": 3022, "pitch": 74, "duration": 8, "velocity": 105}, {"time": 3034, "pitch": 72, "duration": 3, "velocity": 108}, {"time": 3040, "pitch": 71, "duration": 9, "velocity": 117}, {"time": 3052, "pitch": 69, "duration": 19, "velocity": 114}, {"time": 3466, "pitch": 72, "duration": 3, "velocity": 117}, {"time": 3472, "pitch": 74, "duration": 3, "velocity": 111}, {"time": 3478, "pitch": 76, "duration": 9, "velocity": 117}, {"time": 3490, "pitch": 72, "duration": 9, "velocity": 114}, {"time": 3502, "pitch": 74, "duration": 8, "velocity": 108}, {"time": 3514, "pitch": 72, "duration": 3, "velocity": 108}, {"time": 3520, "pitch": 74, "duration": 3, "velocity": 111}, {"time": 3526, "pitch": 76, "duration": 3, "velocity": 108}, {"time": 3532, "pitch": 77, "duration": 3, "velocity": 105}, {"time": 3538, "pitch": 79, "duration": 3, "velocity": 105}, {"time": 3544, "pitch": 76, "duration": 3, "velocity": 111}, {"time": 3550, "pitch": 74, "duration": 8, "velocity": 114}, {"time": 3562, "pitch": 72, "duration": 3, "velocity": 108}, {"time": 3568, "pitch": 74, "duration": 3, "velocity": 108}, {"time": 3574, "pitch": 76, "duration": 7, "velocity": 117}, {"time": 3586, "pitch": 69, "duration": 9, "velocity": 111}, {"time": 3598, "pitch": 74, "duration": 7, "velocity": 105}, {"time": 3610, "pitch": 72, "duration": 3, "velocity": 102}, {"time": 3616, "pitch": 71, "duration": 3, "velocity": 111}, {"time": 3622, "pitch": 69, "duration": 3, "velocity": 108}, {"time": 3628, "pitch": 71, "duration": 3, "velocity": 111}, {"time": 3634, "pitch": 69, "duration": 3, "velocity": 111}, {"time": 3640, "pitch": 67, "duration": 3, "velocity": 108}, {"time": 3646, "pitch": 64, "duration": 7, "velocity": 120}, {"time": 3658, "pitch": 72, "duration": 4, "velocity": 105}, {"time": 3664, "pitch": 74, "duration": 3, "velocity": 108}, {"time": 3670, "pitch": 76, "duration": 9, "velocity": 114}, {"time": 3682, "pitch": 72, "duration": 9, "velocity": 111}, {"time": 3694, "pitch": 74, "duration": 9, "velocity": 102}, {"time": 3706, "pitch": 72, "duration": 3, "velocity": 105}, {"time": 3712, "pitch": 74, "duration": 3, "velocity": 111}, {"time": 3718, "pitch": 76, "duration": 3, "velocity": 102}, {"time": 3724, "pitch": 77, "duration": 3, "velocity": 108}, {"time": 3730, "pitch": 79, "duration": 3, "velocity": 105}, {"time": 3736, "pitch": 76, "duration": 3, "velocity": 102}, {"time": 3742, "pitch": 74, "duration": 7, "velocity": 108}, {"time": 3754, "pitch": 72, "duration": 3, "velocity": 108}, {"time": 3760, "pitch": 74, "duration": 3, "velocity": 105}, {"time": 3766, "pitch": 76, "duration": 7, "velocity": 114}, {"time": 3778, "pitch": 69, "duration": 8, "velocity": 111}, {"time": 3790, "pitch": 74, "duration": 8, "velocity": 105}, {"time": 3802, "pitch": 72, "duration": 3, "velocity": 108}, {"time": 3808, "pitch": 71, "duration": 9, "velocity": 117}, {"time": 3820, "pitch": 69, "duration": 19, "velocity": 114}, {"time": 3850, "pitch": 72, "duration": 3, "velocity": 117}, {"time": 3856, "pitch": 74, "duration": 3, "velocity": 111}, {"time": 3862, "pitch": 76, "duration": 9, "velocity": 117}, {"time": 3874, "pitch": 72, "duration": 9, "velocity": 114}, {"time": 3886, "pitch": 74, "duration": 8, "velocity": 108}, {"time": 3898, "pitch": 72, "duration": 3, "velocity": 108}, {"time": 3904, "pitch": 74, "duration": 3, "velocity": 111}, {"time": 3910, "pitch": 76, "duration": 3, "velocity": 108}, {"time": 3916, "pitch": 77, "duration": 3, "velocity": 105}, {"time": 3922, "pitch": 79, "duration": 3, "velocity": 105}, {"time": 3928, "pitch": 76, "duration": 3, "velocity": 111}, {"time": 3934, "pitch": 74, "duration": 8, "velocity": 114}, {"time": 3946, "pitch": 72, "duration": 3, "velocity": 108}, {"time": 3952, "pitch": 74, "duration": 3, "velocity": 108}, {"time": 3958, "pitch": 76, "duration": 7, "velocity": 117}, {"time": 3970, "pitch": 69, "duration": 9, "velocity": 111}, {"time": 3982, "pitch": 74, "duration": 7, "velocity": 105}, {"time": 3994, "pitch": 72, "duration": 3, "velocity": 102}, {"time": 4000, "pitch": 71, "duration": 3, "velocity": 111}, {"time": 4006, "pitch": 69, "duration": 3, "velocity": 108}, {"time": 4012, "pitch": 71, "duration": 3, "velocity": 111}, {"time": 4018, "pitch": 69, "duration": 3, "velocity": 111}, {"time": 4024, "pitch": 67, "duration": 3, "velocity": 108}, {"time": 4030, "pitch": 64, "duration": 7, "velocity": 120}, {"time": 4042, "pitch": 72, "duration": 4, "velocity": 105}, {"time": 4048, "pitch": 74, "duration": 3, "velocity": 108}, {"time": 4054, "pitch": 76, "duration": 9, "velocity": 114}, {"time": 4066, "pitch": 72, "duration": 9, "velocity": 111}, {"time": 4078, "pitch": 74, "duration": 9, "velocity": 102}, {"time": 4090, "pitch": 72, "duration": 3, "velocity": 105}, {"time": 4096, "pitch": 74, "duration": 3, "velocity": 111}, {"time": 4102, "pitch": 76, "duration": 3, "velocity": 102}, {"time": 4108, "pitch": 77, "duration": 3, "velocity": 108}, {"time": 4114, "pitch": 79, "duration": 3, "velocity": 105}, {"time": 4120, "pitch": 76, "duration": 3, "velocity": 102}, {"time": 4126, "pitch": 74, "duration": 7, "velocity": 108}, {"time": 4138, "pitch": 72, "duration": 3, "velocity": 108}, {"time": 4144, "pitch": 74, "duration": 3, "velocity": 105}, {"time": 4150, "pitch": 76, "duration": 7, "velocity": 114}, {"time": 4162, "pitch": 69, "duration": 8, "velocity": 111}, {"time": 4174, "pitch": 74, "duration": 8, "velocity": 105}, {"time": 4186, "pitch": 72, "duration": 3, "velocity": 108}, {"time": 4192, "pitch": 71, "duration": 9, "velocity": 117}, {"time": 4204, "pitch": 69, "duration": 19, "velocity": 114}, {"time": 4246, "pitch": 69, "duration": 9, "velocity": 111}, {"time": 4258, "pitch": 64, "duration": 3, "velocity": 114}, {"time": 4264, "pitch": 64, "duration": 13, "velocity": 111}, {"time": 4288, "pitch": 69, "duration": 4, "velocity": 108}, {"time": 4294, "pitch": 71, "duration": 8, "velocity": 114}, {"time": 4306, "pitch": 64, "duration": 3, "velocity": 114}, {"time": 4312, "pitch": 64, "duration": 17, "velocity": 111}, {"time": 4342, "pitch": 72, "duration": 8, "velocity": 108}, {"time": 4354, "pitch": 71, "duration": 3, "velocity": 105}, {"time": 4360, "pitch": 72, "duration": 14, "velocity": 111}, {"time": 4373, "pitch": 74, "duration": 7, "velocity": 117}, {"time": 4390, "pitch": 71, "duration": 8, "velocity": 108}, {"time": 4402, "pitch": 69, "duration": 3, "velocity": 111}, {"time": 4408, "pitch": 67, "duration": 22, "velocity": 108}, {"time": 4438, "pitch": 69, "duration": 10, "velocity": 114}, {"time": 4450, "pitch": 71, "duration": 3, "velocity": 102}, {"time": 4456, "pitch": 72, "duration": 14, "velocity": 105}, {"time": 4474, "pitch": 74, "duration": 6, "velocity": 114}, {"time": 4480, "pitch": 72, "duration": 6, "velocity": 100}, {"time": 4486, "pitch": 71, "duration": 4, "velocity": 102}, {"time": 4492, "pitch": 71, "duration": 3, "velocity": 100}, {"time": 4498, "pitch": 71, "duration": 4, "velocity": 114}, {"time": 4504, "pitch": 71, "duration": 4, "velocity": 105}, {"time": 4510, "pitch": 67, "duration": 6, "velocity": 108}, {"time": 4516, "pitch": 71, "duration": 3, "velocity": 92}, {"time": 4528, "pitch": 69, "duration": 30, "velocity": 114}]}, {"program": 0, "is_drum": false, "name": "PIANO", "notes": [{"time": 22, "pitch": 57, "duration": 22, "velocity": 92}, {"time": 28, "pitch": 64, "duration": 17, "velocity": 69}, {"time": 34, "pitch": 69, "duration": 10, "velocity": 82}, {"time": 46, "pitch": 55, "duration": 21, "velocity": 84}, {"time": 52, "pitch": 62, "duration": 16, "velocity": 71}, {"time": 58, "pitch": 67, "duration": 10, "velocity": 94}, {"time": 70, "pitch": 57, "duration": 20, "velocity": 92}, {"time": 76, "pitch": 64, "duration": 17, "velocity": 84}, {"time": 88, "pitch": 72, "duration": 6, "velocity": 82}, {"time": 94, "pitch": 55, "duration": 22, "velocity": 80}, {"time": 94, "pitch": 71, "duration": 13, "velocity": 76}, {"time": 100, "pitch": 62, "duration": 16, "velocity": 62}, {"time": 118, "pitch": 53, "duration": 20, "velocity": 80}, {"time": 118, "pitch": 72, "duration": 12, "velocity": 73}, {"time": 124, "pitch": 60, "duration": 15, "velocity": 71}, {"time": 130, "pitch": 65, "duration": 7, "velocity": 97}, {"time": 136, "pitch": 72, "duration": 7, "velocity": 80}, {"time": 142, "pitch": 55, "duration": 20, "velocity": 89}, {"time": 148, "pitch": 62, "duration": 16, "velocity": 69}, {"time": 154, "pitch": 71, "duration": 8, "velocity": 92}, {"time": 166, "pitch": 57, "duration": 44, "velocity": 80}, {"time": 166, "pitch": 72, "duration": 13, "velocity": 76}, {"time": 172, "pitch": 64, "duration": 39, "velocity": 73}, {"time": 178, "pitch": 69, "duration": 31, "velocity": 102}, {"time": 184, "pitch": 76, "duration": 28, "velocity": 89}, {"time": 190, "pitch": 81, "duration": 21, "velocity": 94}, {"time": 215, "pitch": 57, "duration": 21, "velocity": 94}, {"time": 221, "pitch": 64, "duration": 17, "velocity": 76}, {"time": 227, "pitch": 69, "duration": 10, "velocity": 100}, {"time": 239, "pitch": 55, "duration": 21, "velocity": 94}, {"time": 239, "pitch": 67, "duration": 6, "velocity": 71}, {"time": 239, "pitch": 71, "duration": 15, "velocity": 87}, {"time": 245, "pitch": 62, "duration": 17, "velocity": 57}, {"time": 251, "pitch": 67, "duration": 8, "velocity": 80}, {"time": 263, "pitch": 57, "duration": 21, "velocity": 80}, {"time": 263, "pitch": 72, "duration": 15, "velocity": 84}, {"time": 269, "pitch": 64, "duration": 16, "velocity": 64}, {"time": 275, "pitch": 69, "duration": 11, "velocity": 97}, {"time": 281, "pitch": 76, "duration": 8, "velocity": 92}, {"time": 287, "pitch": 55, "duration": 22, "velocity": 97}, {"time": 293, "pitch": 62, "duration": 17, "velocity": 66}, {"time": 299, "pitch": 67, "duration": 9, "velocity": 89}, {"time": 305, "pitch": 71, "duration": 3, "velocity": 87}, {"time": 311, "pitch": 53, "duration": 20, "velocity": 87}, {"time": 311, "pitch": 65, "duration": 7, "velocity": 69}, {"time": 311, "pitch": 69, "duration": 13, "velocity": 92}, {"time": 317, "pitch": 60, "duration": 16, "velocity": 78}, {"time": 323, "pitch": 65, "duration": 7, "velocity": 94}, {"time": 329, "pitch": 69, "duration": 6, "velocity": 89}, {"time": 335, "pitch": 55, "duration": 21, "velocity": 87}, {"time": 335, "pitch": 67, "duration": 7, "velocity": 76}, {"time": 335, "pitch": 71, "duration": 13, "velocity": 82}, {"time": 341, "pitch": 62, "duration": 17, "velocity": 67}, {"time": 347, "pitch": 67, "duration": 7, "velocity": 97}, {"time": 353, "pitch": 71, "duration": 7, "velocity": 89}, {"time": 359, "pitch": 57, "duration": 47, "velocity": 82}, {"time": 359, "pitch": 72, "duration": 12, "velocity": 78}, {"time": 365, "pitch": 64, "duration": 41, "velocity": 71}, {"time": 371, "pitch": 69, "duration": 11, "velocity": 108}, {"time": 377, "pitch": 76, "duration": 29, "velocity": 84}, {"time": 383, "pitch": 81, "duration": 23, "velocity": 80}, {"time": 389, "pitch": 69, "duration": 18, "velocity": 1}, {"time": 406, "pitch": 45, "duration": 44, "velocity": 92}, {"time": 406, "pitch": 57, "duration": 7, "velocity": 84}, {"time": 406, "pitch": 60, "duration": 44, "velocity": 89}, {"time": 412, "pitch": 52, "duration": 24, "velocity": 76}, {"time": 418, "pitch": 57, "duration": 37, "velocity": 105}, {"time": 424, "pitch": 69, "duration": 26, "velocity": 102}, {"time": 442, "pitch": 52, "duration": 11, "velocity": 57}, {"time": 448, "pitch": 64, "duration": 18, "velocity": 58}, {"time": 454, "pitch": 43, "duration": 46, "velocity": 100}, {"time": 460, "pitch": 50, "duration": 27, "velocity": 73}, {"time": 466, "pitch": 55, "duration": 20, "velocity": 108}, {"time": 472, "pitch": 67, "duration": 25, "velocity": 97}, {"time": 484, "pitch": 62, "duration": 14, "velocity": 82}, {"time": 490, "pitch": 50, "duration": 11, "velocity": 71}, {"time": 502, "pitch": 41, "duration": 44, "velocity": 92}, {"time": 502, "pitch": 53, "duration": 36, "velocity": 78}, {"time": 502, "pitch": 57, "duration": 39, "velocity": 94}, {"time": 508, "pitch": 48, "duration": 24, "velocity": 76}, {"time": 514, "pitch": 60, "duration": 35, "velocity": 87}, {"time": 520, "pitch": 64, "duration": 31, "velocity": 94}, {"time": 538, "pitch": 48, "duration": 10, "velocity": 47}, {"time": 544, "pitch": 53, "duration": 3, "velocity": 73}, {"time": 544, "pitch": 57, "duration": 1, "velocity": 1}, {"time": 550, "pitch": 43, "duration": 44, "velocity": 100}, {"time": 550, "pitch": 55, "duration": 28, "velocity": 71}, {"time": 550, "pitch": 59, "duration": 26, "velocity": 80}, {"time": 556, "pitch": 50, "duration": 27, "velocity": 62}, {"time": 562, "pitch": 62, "duration": 14, "velocity": 80}, {"time": 568, "pitch": 67, "duration": 25, "velocity": 87}, {"time": 580, "pitch": 62, "duration": 14, "velocity": 84}, {"time": 586, "pitch": 50, "duration": 11, "velocity": 58}, {"time": 592, "pitch": 55, "duration": 4, "velocity": 82}, {"time": 598, "pitch": 41, "duration": 43, "velocity": 97}, {"time": 598, "pitch": 53, "duration": 38, "velocity": 92}, {"time": 598, "pitch": 57, "duration": 48, "velocity": 84}, {"time": 604, "pitch": 48, "duration": 27, "velocity": 60}, {"time": 610, "pitch": 60, "duration": 36, "velocity": 82}, {"time": 616, "pitch": 65, "duration": 37, "velocity": 89}, {"time": 634, "pitch": 48, "duration": 8, "velocity": 57}, {"time": 640, "pitch": 53, "duration": 6, "velocity": 87}, {"time": 646, "pitch": 48, "duration": 2, "velocity": 92}, {"time": 646, "pitch": 50, "duration": 44, "velocity": 94}, {"time": 652, "pitch": 57, "duration": 24, "velocity": 87}, {"time": 658, "pitch": 62, "duration": 5, "velocity": 108}, {"time": 664, "pitch": 62, "duration": 21, "velocity": 49}, {"time": 664, "pitch": 65, "duration": 31, "velocity": 89}, {"time": 664, "pitch": 69, "duration": 39, "velocity": 84}, {"time": 682, "pitch": 57, "duration": 9, "velocity": 82}, {"time": 688, "pitch": 62, "duration": 7, "velocity": 94}, {"time": 694, "pitch": 40, "duration": 36, "velocity": 100}, {"time": 694, "pitch": 52, "duration": 43, "velocity": 94}, {"time": 700, "pitch": 59, "duration": 15, "velocity": 100}, {"time": 706, "pitch": 64, "duration": 20, "velocity": 111}, {"time": 712, "pitch": 71, "duration": 20, "velocity": 105}, {"time": 724, "pitch": 59, "duration": 14, "velocity": 60}, {"time": 730, "pitch": 64, "duration": 9, "velocity": 69}, {"time": 736, "pitch": 71, "duration": 5, "velocity": 67}, {"time": 742, "pitch": 52, "duration": 34, "velocity": 105}, {"time": 742, "pitch": 64, "duration": 8, "velocity": 78}, {"time": 742, "pitch": 68, "duration": 15, "velocity": 48}, {"time": 748, "pitch": 59, "duration": 26, "velocity": 62}, {"time": 754, "pitch": 64, "duration": 3, "velocity": 48}, {"time": 760, "pitch": 64, "duration": 19, "velocity": 92}, {"time": 760, "pitch": 71, "duration": 19, "velocity": 89}, {"time": 790, "pitch": 45, "duration": 45, "velocity": 94}, {"time": 790, "pitch": 57, "duration": 31, "velocity": 76}, {"time": 790, "pitch": 60, "duration": 29, "velocity": 82}, {"time": 796, "pitch": 52, "duration": 21, "velocity": 73}, {"time": 802, "pitch": 64, "duration": 31, "velocity": 67}, {"time": 808, "pitch": 69, "duration": 26, "velocity": 105}, {"time": 820, "pitch": 52, "duration": 16, "velocity": 73}, {"time": 826, "pitch": 57, "duration": 10, "velocity": 94}, {"time": 832, "pitch": 60, "duration": 3, "velocity": 80}, {"time": 838, "pitch": 43, "duration": 45, "velocity": 100}, {"time": 838, "pitch": 55, "duration": 31, "velocity": 84}, {"time": 838, "pitch": 59, "duration": 29, "velocity": 84}, {"time": 844, "pitch": 50, "duration": 25, "velocity": 67}, {"time": 850, "pitch": 62, "duration": 13, "velocity": 71}, {"time": 856, "pitch": 67, "duration": 25, "velocity": 105}, {"time": 868, "pitch": 62, "duration": 15, "velocity": 76}, {"time": 874, "pitch": 50, "duration": 11, "velocity": 80}, {"time": 880, "pitch": 55, "duration": 4, "velocity": 92}, {"time": 886, "pitch": 41, "duration": 45, "velocity": 94}, {"time": 886, "pitch": 53, "duration": 32, "velocity": 100}, {"time": 886, "pitch": 57, "duration": 38, "velocity": 82}, {"time": 892, "pitch": 48, "duration": 21, "velocity": 66}, {"time": 898, "pitch": 60, "duration": 34, "velocity": 76}, {"time": 904, "pitch": 65, "duration": 26, "velocity": 102}, {"time": 916, "pitch": 48, "duration": 16, "velocity": 51}, {"time": 922, "pitch": 53, "duration": 7, "velocity": 94}, {"time": 928, "pitch": 57, "duration": 4, "velocity": 100}, {"time": 934, "pitch": 43, "duration": 45, "velocity": 100}, {"time": 934, "pitch": 55, "duration": 31, "velocity": 80}, {"time": 934, "pitch": 59, "duration": 27, "velocity": 102}, {"time": 940, "pitch": 50, "duration": 19, "velocity": 73}, {"time": 946, "pitch": 62, "duration": 10, "velocity": 73}, {"time": 952, "pitch": 67, "duration": 25, "velocity": 105}, {"time": 964, "pitch": 50, "duration": 18, "velocity": 67}, {"time": 970, "pitch": 62, "duration": 9, "velocity": 84}, {"time": 976, "pitch": 55, "duration": 4, "velocity": 71}, {"time": 982, "pitch": 41, "duration": 44, "velocity": 92}, {"time": 982, "pitch": 53, "duration": 34, "velocity": 84}, {"time": 982, "pitch": 57, "duration": 28, "velocity": 94}, {"time": 988, "pitch": 48, "duration": 20, "velocity": 69}, {"time": 994, "pitch": 60, "duration": 8, "velocity": 73}, {"time": 1000, "pitch": 65, "duration": 26, "velocity": 108}, {"time": 1012, "pitch": 48, "duration": 15, "velocity": 53}, {"time": 1018, "pitch": 60, "duration": 10, "velocity": 87}, {"time": 1024, "pitch": 53, "duration": 4, "velocity": 89}, {"time": 1030, "pitch": 43, "duration": 45, "velocity": 105}, {"time": 1030, "pitch": 55, "duration": 6, "velocity": 97}, {"time": 1030, "pitch": 59, "duration": 39, "velocity": 100}, {"time": 1036, "pitch": 50, "duration": 20, "velocity": 67}, {"time": 1042, "pitch": 55, "duration": 25, "velocity": 89}, {"time": 1048, "pitch": 67, "duration": 30, "velocity": 108}, {"time": 1060, "pitch": 50, "duration": 15, "velocity": 73}, {"time": 1066, "pitch": 62, "duration": 11, "velocity": 87}, {"time": 1072, "pitch": 55, "duration": 3, "velocity": 102}, {"time": 1078, "pitch": 45, "duration": 45, "velocity": 100}, {"time": 1078, "pitch": 57, "duration": 30, "velocity": 92}, {"time": 1078, "pitch": 60, "duration": 27, "velocity": 89}, {"time": 1084, "pitch": 52, "duration": 18, "velocity": 69}, {"time": 1090, "pitch": 64, "duration": 26, "velocity": 84}, {"time": 1096, "pitch": 69, "duration": 26, "velocity": 102}, {"time": 1108, "pitch": 52, "duration": 15, "velocity": 53}, {"time": 1114, "pitch": 57, "duration": 9, "velocity": 100}, {"time": 1120, "pitch": 64, "duration": 4, "velocity": 67}, {"time": 1126, "pitch": 45, "duration": 33, "velocity": 100}, {"time": 1126, "pitch": 57, "duration": 7, "velocity": 82}, {"time": 1126, "pitch": 60, "duration": 15, "velocity": 84}, {"time": 1132, "pitch": 52, "duration": 14, "velocity": 58}, {"time": 1138, "pitch": 57, "duration": 3, "velocity": 76}, {"time": 1144, "pitch": 57, "duration": 8, "velocity": 100}, {"time": 1144, "pitch": 60, "duration": 14, "velocity": 102}, {"time": 1144, "pitch": 64, "duration": 5, "velocity": 92}, {"time": 1144, "pitch": 69, "duration": 20, "velocity": 89}, {"time": 1150, "pitch": 52, "duration": 6, "velocity": 97}, {"time": 1156, "pitch": 52, "duration": 10, "velocity": 94}, {"time": 1162, "pitch": 57, "duration": 6, "velocity": 97}, {"time": 1162, "pitch": 60, "duration": 6, "velocity": 100}, {"time": 1168, "pitch": 55, "duration": 5, "velocity": 97}, {"time": 1168, "pitch": 59, "duration": 5, "velocity": 100}, {"time": 1174, "pitch": 48, "duration": 21, "velocity": 102}, {"time": 1174, "pitch": 60, "duration": 8, "velocity": 92}, {"time": 1174, "pitch": 64, "duration": 13, "velocity": 102}, {"time": 1180, "pitch": 55, "duration": 20, "velocity": 69}, {"time": 1186, "pitch": 60, "duration": 9, "velocity": 105}, {"time": 1192, "pitch": 64, "duration": 3, "velocity": 92}, {"time": 1198, "pitch": 47, "duration": 21, "velocity": 97}, {"time": 1198, "pitch": 59, "duration": 7, "velocity": 100}, {"time": 1198, "pitch": 62, "duration": 20, "velocity": 87}, {"time": 1204, "pitch": 55, "duration": 16, "velocity": 80}, {"time": 1210, "pitch": 67, "duration": 13, "velocity": 100}, {"time": 1216, "pitch": 59, "duration": 3, "velocity": 82}, {"time": 1222, "pitch": 48, "duration": 19, "velocity": 87}, {"time": 1222, "pitch": 60, "duration": 8, "velocity": 89}, {"time": 1222, "pitch": 64, "duration": 12, "velocity": 89}, {"time": 1228, "pitch": 55, "duration": 19, "velocity": 84}, {"time": 1234, "pitch": 60, "duration": 9, "velocity": 97}, {"time": 1240, "pitch": 64, "duration": 3, "velocity": 78}, {"time": 1246, "pitch": 47, "duration": 20, "velocity": 92}, {"time": 1246, "pitch": 59, "duration": 11, "velocity": 87}, {"time": 1246, "pitch": 62, "duration": 11, "velocity": 92}, {"time": 1252, "pitch": 55, "duration": 16, "velocity": 73}, {"time": 1258, "pitch": 59, "duration": 7, "velocity": 102}, {"time": 1258, "pitch": 62, "duration": 6, "velocity": 97}, {"time": 1258, "pitch": 67, "duration": 14, "velocity": 92}, {"time": 1270, "pitch": 45, "duration": 22, "velocity": 100}, {"time": 1270, "pitch": 57, "duration": 12, "velocity": 102}, {"time": 1270, "pitch": 60, "duration": 17, "velocity": 100}, {"time": 1276, "pitch": 52, "duration": 16, "velocity": 87}, {"time": 1282, "pitch": 64, "duration": 11, "velocity": 108}, {"time": 1288, "pitch": 57, "duration": 4, "velocity": 100}, {"time": 1294, "pitch": 43, "duration": 20, "velocity": 102}, {"time": 1294, "pitch": 55, "duration": 8, "velocity": 87}, {"time": 1294, "pitch": 59, "duration": 9, "velocity": 94}, {"time": 1300, "pitch": 50, "duration": 9, "velocity": 84}, {"time": 1306, "pitch": 55, "duration": 3, "velocity": 87}, {"time": 1306, "pitch": 59, "duration": 7, "velocity": 105}, {"time": 1306, "pitch": 62, "duration": 10, "velocity": 94}, {"time": 1312, "pitch": 55, "duration": 3, "velocity": 76}, {"time": 1318, "pitch": 45, "duration": 22, "velocity": 97}, {"time": 1318, "pitch": 57, "duration": 8, "velocity": 97}, {"time": 1318, "pitch": 60, "duration": 10, "velocity": 100}, {"time": 1324, "pitch": 52, "duration": 16, "velocity": 71}, {"time": 1330, "pitch": 60, "duration": 7, "velocity": 87}, {"time": 1330, "pitch": 64, "duration": 9, "velocity": 97}, {"time": 1336, "pitch": 57, "duration": 4, "velocity": 92}, {"time": 1342, "pitch": 43, "duration": 21, "velocity": 100}, {"time": 1342, "pitch": 55, "duration": 10, "velocity": 80}, {"time": 1342, "pitch": 59, "duration": 10, "velocity": 87}, {"time": 1348, "pitch": 50, "duration": 9, "velocity": 82}, {"time": 1354, "pitch": 55, "duration": 3, "velocity": 97}, {"time": 1354, "pitch": 59, "duration": 8, "velocity": 105}, {"time": 1354, "pitch": 62, "duration": 11, "velocity": 102}, {"time": 1360, "pitch": 55, "duration": 5, "velocity": 92}, {"time": 1366, "pitch": 48, "duration": 21, "velocity": 102}, {"time": 1366, "pitch": 60, "duration": 8, "velocity": 92}, {"time": 1366, "pitch": 64, "duration": 13, "velocity": 102}, {"time": 1372, "pitch": 55, "duration": 20, "velocity": 69}, {"time": 1378, "pitch": 60, "duration": 9, "velocity": 105}, {"time": 1384, "pitch": 64, "duration": 3, "velocity": 92}, {"time": 1390, "pitch": 47, "duration": 21, "velocity": 97}, {"time": 1390, "pitch": 59, "duration": 7, "velocity": 100}, {"time": 1390, "pitch": 62, "duration": 20, "velocity": 87}, {"time": 1396, "pitch": 55, "duration": 16, "velocity": 80}, {"time": 1402, "pitch": 67, "duration": 13, "velocity": 100}, {"time": 1408, "pitch": 59, "duration": 3, "velocity": 82}, {"time": 1414, "pitch": 48, "duration": 19, "velocity": 87}, {"time": 1414, "pitch": 60, "duration": 8, "velocity": 89}, {"time": 1414, "pitch": 64, "duration": 12, "velocity": 89}, {"time": 1420, "pitch": 55, "duration": 19, "velocity": 84}, {"time": 1426, "pitch": 60, "duration": 9, "velocity": 97}, {"time": 1432, "pitch": 64, "duration": 3, "velocity": 78}, {"time": 1438, "pitch": 47, "duration": 20, "velocity": 92}, {"time": 1438, "pitch": 59, "duration": 11, "velocity": 87}, {"time": 1438, "pitch": 62, "duration": 11, "velocity": 92}, {"time": 1444, "pitch": 55, "duration": 16, "velocity": 73}, {"time": 1450, "pitch": 59, "duration": 7, "velocity": 102}, {"time": 1450, "pitch": 62, "duration": 6, "velocity": 97}, {"time": 1450, "pitch": 67, "duration": 14, "velocity": 92}, {"time": 1462, "pitch": 45, "duration": 22, "velocity": 100}, {"time": 1462, "pitch": 57, "duration": 12, "velocity": 102}, {"time": 1462, "pitch": 60, "duration": 17, "velocity": 100}, {"time": 1468, "pitch": 52, "duration": 16, "velocity": 87}, {"time": 1474, "pitch": 64, "duration": 11, "velocity": 108}, {"time": 1480, "pitch": 57, "duration": 4, "velocity": 100}, {"time": 1486, "pitch": 43, "duration": 20, "velocity": 102}, {"time": 1486, "pitch": 55, "duration": 8, "velocity": 87}, {"time": 1486, "pitch": 59, "duration": 9, "velocity": 94}, {"time": 1492, "pitch": 50, "duration": 9, "velocity": 84}, {"time": 1498, "pitch": 55, "duration": 3, "velocity": 87}, {"time": 1498, "pitch": 59, "duration": 7, "velocity": 105}, {"time": 1498, "pitch": 62, "duration": 10, "velocity": 94}, {"time": 1504, "pitch": 55, "duration": 3, "velocity": 76}, {"time": 1510, "pitch": 45, "duration": 47, "velocity": 97}, {"time": 1510, "pitch": 57, "duration": 12, "velocity": 80}, {"time": 1510, "pitch": 60, "duration": 13, "velocity": 89}, {"time": 1516, "pitch": 52, "duration": 21, "velocity": 84}, {"time": 1522, "pitch": 64, "duration": 8, "velocity": 97}, {"time": 1528, "pitch": 60, "duration": 2, "velocity": 89}, {"time": 1534, "pitch": 57, "duration": 13, "velocity": 89}, {"time": 1534, "pitch": 60, "duration": 14, "velocity": 100}, {"time": 1534, "pitch": 69, "duration": 24, "velocity": 94}, {"time": 1546, "pitch": 52, "duration": 11, "velocity": 78}, {"time": 1552, "pitch": 57, "duration": 6, "velocity": 80}, {"time": 1552, "pitch": 60, "duration": 4, "velocity": 34}, {"time": 1558, "pitch": 45, "duration": 44, "velocity": 92}, {"time": 1558, "pitch": 57, "duration": 7, "velocity": 84}, {"time": 1558, "pitch": 60, "duration": 44, "velocity": 89}, {"time": 1564, "pitch": 52, "duration": 24, "velocity": 76}, {"time": 1570, "pitch": 57, "duration": 37, "velocity": 105}, {"time": 1576, "pitch": 69, "duration": 26, "velocity": 102}, {"time": 1594, "pitch": 52, "duration": 11, "velocity": 57}, {"time": 1600, "pitch": 64, "duration": 18, "velocity": 58}, {"time": 1606, "pitch": 43, "duration": 46, "velocity": 100}, {"time": 1612, "pitch": 50, "duration": 27, "velocity": 73}, {"time": 1618, "pitch": 55, "duration": 20, "velocity": 108}, {"time": 1624, "pitch": 67, "duration": 25, "velocity": 97}, {"time": 1636, "pitch": 62, "duration": 14, "velocity": 82}, {"time": 1642, "pitch": 50, "duration": 11, "velocity": 71}, {"time": 1654, "pitch": 41, "duration": 44, "velocity": 92}, {"time": 1654, "pitch": 53, "duration": 36, "velocity": 78}, {"time": 1654, "pitch": 57, "duration": 39, "velocity": 94}, {"time": 1660, "pitch": 48, "duration": 24, "velocity": 76}, {"time": 1666, "pitch": 60, "duration": 35, "velocity": 87}, {"time": 1672, "pitch": 64, "duration": 31, "velocity": 94}, {"time": 1690, "pitch": 48, "duration": 10, "velocity": 47}, {"time": 1696, "pitch": 53, "duration": 3, "velocity": 73}, {"time": 1696, "pitch": 57, "duration": 1, "velocity": 1}, {"time": 1702, "pitch": 43, "duration": 44, "velocity": 100}, {"time": 1702, "pitch": 55, "duration": 28, "velocity": 71}, {"time": 1702, "pitch": 59, "duration": 26, "velocity": 80}, {"time": 1708, "pitch": 50, "duration": 27, "velocity": 62}, {"time": 1714, "pitch": 62, "duration": 14, "velocity": 80}, {"time": 1720, "pitch": 67, "duration": 25, "velocity": 87}, {"time": 1732, "pitch": 62, "duration": 14, "velocity": 84}, {"time": 1738, "pitch": 50, "duration": 11, "velocity": 58}, {"time": 1744, "pitch": 55, "duration": 4, "velocity": 82}, {"time": 1750, "pitch": 41, "duration": 43, "velocity": 97}, {"time": 1750, "pitch": 53, "duration": 38, "velocity": 92}, {"time": 1750, "pitch": 57, "duration": 48, "velocity": 84}, {"time": 1756, "pitch": 48, "duration": 27, "velocity": 60}, {"time": 1762, "pitch": 60, "duration": 36, "velocity": 82}, {"time": 1768, "pitch": 65, "duration": 37, "velocity": 89}, {"time": 1786, "pitch": 48, "duration": 8, "velocity": 57}, {"time": 1792, "pitch": 53, "duration": 6, "velocity": 87}, {"time": 1798, "pitch": 48, "duration": 2, "velocity": 92}, {"time": 1798, "pitch": 50, "duration": 44, "velocity": 94}, {"time": 1804, "pitch": 57, "duration": 24, "velocity": 87}, {"time": 1810, "pitch": 62, "duration": 5, "velocity": 108}, {"time": 1816, "pitch": 62, "duration": 21, "velocity": 49}, {"time": 1816, "pitch": 65, "duration": 31, "velocity": 89}, {"time": 1816, "pitch": 69, "duration": 39, "velocity": 84}, {"time": 1834, "pitch": 57, "duration": 9, "velocity": 82}, {"time": 1840, "pitch": 62, "duration": 7, "velocity": 94}, {"time": 1846, "pitch": 40, "duration": 36, "velocity": 100}, {"time": 1846, "pitch": 52, "duration": 43, "velocity": 94}, {"time": 1852, "pitch": 59, "duration": 15, "velocity": 100}, {"time": 1858, "pitch": 64, "duration": 20, "velocity": 111}, {"time": 1864, "pitch": 71, "duration": 20, "velocity": 105}, {"time": 1876, "pitch": 59, "duration": 14, "velocity": 60}, {"time": 1882, "pitch": 64, "duration": 9, "velocity": 69}, {"time": 1888, "pitch": 71, "duration": 5, "velocity": 67}, {"time": 1894, "pitch": 52, "duration": 34, "velocity": 105}, {"time": 1894, "pitch": 64, "duration": 8, "velocity": 78}, {"time": 1894, "pitch": 68, "duration": 15, "velocity": 48}, {"time": 1900, "pitch": 59, "duration": 26, "velocity": 62}, {"time": 1906, "pitch": 64, "duration": 3, "velocity": 48}, {"time": 1912, "pitch": 64, "duration": 19, "velocity": 92}, {"time": 1912, "pitch": 71, "duration": 19, "velocity": 89}, {"time": 1942, "pitch": 45, "duration": 45, "velocity": 94}, {"time": 1942, "pitch": 57, "duration": 31, "velocity": 76}, {"time": 1942, "pitch": 60, "duration": 29, "velocity": 82}, {"time": 1948, "pitch": 52, "duration": 21, "velocity": 73}, {"time": 1954, "pitch": 64, "duration": 31, "velocity": 67}, {"time": 1960, "pitch": 69, "duration": 26, "velocity": 105}, {"time": 1972, "pitch": 52, "duration": 16, "velocity": 73}, {"time": 1978, "pitch": 57, "duration": 10, "velocity": 94}, {"time": 1984, "pitch": 60, "duration": 3, "velocity": 80}, {"time": 1990, "pitch": 43, "duration": 45, "velocity": 100}, {"time": 1990, "pitch": 55, "duration": 31, "velocity": 84}, {"time": 1990, "pitch": 59, "duration": 29, "velocity": 84}, {"time": 1996, "pitch": 50, "duration": 25, "velocity": 67}, {"time": 2002, "pitch": 62, "duration": 13, "velocity": 71}, {"time": 2008, "pitch": 67, "duration": 25, "velocity": 105}, {"time": 2020, "pitch": 62, "duration": 15, "velocity": 76}, {"time": 2026, "pitch": 50, "duration": 11, "velocity": 80}, {"time": 2032, "pitch": 55, "duration": 4, "velocity": 92}, {"time": 2038, "pitch": 41, "duration": 45, "velocity": 94}, {"time": 2038, "pitch": 53, "duration": 32, "velocity": 100}, {"time": 2038, "pitch": 57, "duration": 38, "velocity": 82}, {"time": 2044, "pitch": 48, "duration": 21, "velocity": 66}, {"time": 2050, "pitch": 60, "duration": 34, "velocity": 76}, {"time": 2056, "pitch": 65, "duration": 26, "velocity": 102}, {"time": 2068, "pitch": 48, "duration": 16, "velocity": 51}, {"time": 2074, "pitch": 53, "duration": 7, "velocity": 94}, {"time": 2080, "pitch": 57, "duration": 4, "velocity": 100}, {"time": 2086, "pitch": 43, "duration": 45, "velocity": 100}, {"time": 2086, "pitch": 55, "duration": 31, "velocity": 80}, {"time": 2086, "pitch": 59, "duration": 27, "velocity": 102}, {"time": 2092, "pitch": 50, "duration": 19, "velocity": 73}, {"time": 2098, "pitch": 62, "duration": 10, "velocity": 73}, {"time": 2104, "pitch": 67, "duration": 25, "velocity": 105}, {"time": 2116, "pitch": 50, "duration": 18, "velocity": 67}, {"time": 2122, "pitch": 62, "duration": 9, "velocity": 84}, {"time": 2128, "pitch": 55, "duration": 4, "velocity": 71}, {"time": 2134, "pitch": 41, "duration": 44, "velocity": 92}, {"time": 2134, "pitch": 53, "duration": 34, "velocity": 84}, {"time": 2134, "pitch": 57, "duration": 28, "velocity": 94}, {"time": 2140, "pitch": 48, "duration": 20, "velocity": 69}, {"time": 2146, "pitch": 60, "duration": 8, "velocity": 73}, {"time": 2152, "pitch": 65, "duration": 26, "velocity": 108}, {"time": 2164, "pitch": 48, "duration": 15, "velocity": 53}, {"time": 2170, "pitch": 60, "duration": 10, "velocity": 87}, {"time": 2176, "pitch": 53, "duration": 4, "velocity": 89}, {"time": 2182, "pitch": 43, "duration": 45, "velocity": 105}, {"time": 2182, "pitch": 55, "duration": 6, "velocity": 97}, {"time": 2182, "pitch": 59, "duration": 39, "velocity": 100}, {"time": 2188, "pitch": 50, "duration": 20, "velocity": 67}, {"time": 2194, "pitch": 55, "duration": 25, "velocity": 89}, {"time": 2200, "pitch": 67, "duration": 30, "velocity": 108}, {"time": 2212, "pitch": 50, "duration": 15, "velocity": 73}, {"time": 2218, "pitch": 62, "duration": 11, "velocity": 87}, {"time": 2224, "pitch": 55, "duration": 3, "velocity": 102}, {"time": 2230, "pitch": 45, "duration": 45, "velocity": 100}, {"time": 2230, "pitch": 57, "duration": 30, "velocity": 92}, {"time": 2230, "pitch": 60, "duration": 27, "velocity": 89}, {"time": 2236, "pitch": 52, "duration": 18, "velocity": 69}, {"time": 2242, "pitch": 64, "duration": 26, "velocity": 84}, {"time": 2248, "pitch": 69, "duration": 26, "velocity": 102}, {"time": 2260, "pitch": 52, "duration": 15, "velocity": 53}, {"time": 2266, "pitch": 57, "duration": 9, "velocity": 100}, {"time": 2272, "pitch": 64, "duration": 4, "velocity": 67}, {"time": 2278, "pitch": 45, "duration": 33, "velocity": 100}, {"time": 2278, "pitch": 57, "duration": 7, "velocity": 82}, {"time": 2278, "pitch": 60, "duration": 15, "velocity": 84}, {"time": 2284, "pitch": 52, "duration": 14, "velocity": 58}, {"time": 2290, "pitch": 57, "duration": 3, "velocity": 76}, {"time": 2296, "pitch": 57, "duration": 8, "velocity": 100}, {"time": 2296, "pitch": 60, "duration": 14, "velocity": 102}, {"time": 2296, "pitch": 64, "duration": 5, "velocity": 92}, {"time": 2296, "pitch": 69, "duration": 20, "velocity": 89}, {"time": 2302, "pitch": 52, "duration": 6, "velocity": 97}, {"time": 2308, "pitch": 52, "duration": 10, "velocity": 94}, {"time": 2314, "pitch": 57, "duration": 6, "velocity": 97}, {"time": 2314, "pitch": 60, "duration": 6, "velocity": 100}, {"time": 2320, "pitch": 55, "duration": 5, "velocity": 97}, {"time": 2320, "pitch": 59, "duration": 5, "velocity": 100}, {"time": 2326, "pitch": 48, "duration": 21, "velocity": 102}, {"time": 2326, "pitch": 60, "duration": 8, "velocity": 92}, {"time": 2326, "pitch": 64, "duration": 13, "velocity": 102}, {"time": 2332, "pitch": 55, "duration": 20, "velocity": 69}, {"time": 2338, "pitch": 60, "duration": 9, "velocity": 105}, {"time": 2344, "pitch": 64, "duration": 3, "velocity": 92}, {"time": 2350, "pitch": 47, "duration": 21, "velocity": 97}, {"time": 2350, "pitch": 59, "duration": 7, "velocity": 100}, {"time": 2350, "pitch": 62, "duration": 20, "velocity": 87}, {"time": 2356, "pitch": 55, "duration": 16, "velocity": 80}, {"time": 2362, "pitch": 67, "duration": 13, "velocity": 100}, {"time": 2368, "pitch": 59, "duration": 3, "velocity": 82}, {"time": 2374, "pitch": 48, "duration": 19, "velocity": 87}, {"time": 2374, "pitch": 60, "duration": 8, "velocity": 89}, {"time": 2374, "pitch": 64, "duration": 12, "velocity": 89}, {"time": 2380, "pitch": 55, "duration": 19, "velocity": 84}, {"time": 2386, "pitch": 60, "duration": 9, "velocity": 97}, {"time": 2392, "pitch": 64, "duration": 3, "velocity": 78}, {"time": 2398, "pitch": 47, "duration": 20, "velocity": 92}, {"time": 2398, "pitch": 59, "duration": 11, "velocity": 87}, {"time": 2398, "pitch": 62, "duration": 11, "velocity": 92}, {"time": 2404, "pitch": 55, "duration": 16, "velocity": 73}, {"time": 2410, "pitch": 59, "duration": 7, "velocity": 102}, {"time": 2410, "pitch": 62, "duration": 6, "velocity": 97}, {"time": 2410, "pitch": 67, "duration": 14, "velocity": 92}, {"time": 2422, "pitch": 45, "duration": 22, "velocity": 100}, {"time": 2422, "pitch": 57, "duration": 12, "velocity": 102}, {"time": 2422, "pitch": 60, "duration": 17, "velocity": 100}, {"time": 2428, "pitch": 52, "duration": 16, "velocity": 87}, {"time": 2434, "pitch": 64, "duration": 11, "velocity": 108}, {"time": 2440, "pitch": 57, "duration": 4, "velocity": 100}, {"time": 2446, "pitch": 43, "duration": 20, "velocity": 102}, {"time": 2446, "pitch": 55, "duration": 8, "velocity": 87}, {"time": 2446, "pitch": 59, "duration": 9, "velocity": 94}, {"time": 2452, "pitch": 50, "duration": 9, "velocity": 84}, {"time": 2458, "pitch": 55, "duration": 3, "velocity": 87}, {"time": 2458, "pitch": 59, "duration": 7, "velocity": 105}, {"time": 2458, "pitch": 62, "duration": 10, "velocity": 94}, {"time": 2464, "pitch": 55, "duration": 3, "velocity": 76}, {"time": 2470, "pitch": 45, "duration": 22, "velocity": 97}, {"time": 2470, "pitch": 57, "duration": 8, "velocity": 97}, {"time": 2470, "pitch": 60, "duration": 10, "velocity": 100}, {"time": 2476, "pitch": 52, "duration": 16, "velocity": 71}, {"time": 2482, "pitch": 60, "duration": 7, "velocity": 87}, {"time": 2482, "pitch": 64, "duration": 9, "velocity": 97}, {"time": 2488, "pitch": 57, "duration": 4, "velocity": 92}, {"time": 2494, "pitch": 43, "duration": 21, "velocity": 100}, {"time": 2494, "pitch": 55, "duration": 10, "velocity": 80}, {"time": 2494, "pitch": 59, "duration": 10, "velocity": 87}, {"time": 2500, "pitch": 50, "duration": 9, "velocity": 82}, {"time": 2506, "pitch": 55, "duration": 3, "velocity": 97}, {"time": 2506, "pitch": 59, "duration": 8, "velocity": 105}, {"time": 2506, "pitch": 62, "duration": 11, "velocity": 102}, {"time": 2512, "pitch": 55, "duration": 5, "velocity": 92}, {"time": 2518, "pitch": 48, "duration": 21, "velocity": 102}, {"time": 2518, "pitch": 60, "duration": 8, "velocity": 92}, {"time": 2518, "pitch": 64, "duration": 13, "velocity": 102}, {"time": 2524, "pitch": 55, "duration": 20, "velocity": 69}, {"time": 2530, "pitch": 60, "duration": 9, "velocity": 105}, {"time": 2536, "pitch": 64, "duration": 3, "velocity": 92}, {"time": 2542, "pitch": 47, "duration": 21, "velocity": 97}, {"time": 2542, "pitch": 59, "duration": 7, "velocity": 100}, {"time": 2542, "pitch": 62, "duration": 20, "velocity": 87}, {"time": 2548, "pitch": 55, "duration": 16, "velocity": 80}, {"time": 2554, "pitch": 67, "duration": 13, "velocity": 100}, {"time": 2560, "pitch": 59, "duration": 3, "velocity": 82}, {"time": 2566, "pitch": 48, "duration": 19, "velocity": 87}, {"time": 2566, "pitch": 60, "duration": 8, "velocity": 89}, {"time": 2566, "pitch": 64, "duration": 12, "velocity": 89}, {"time": 2572, "pitch": 55, "duration": 19, "velocity": 84}, {"time": 2578, "pitch": 60, "duration": 9, "velocity": 97}, {"time": 2584, "pitch": 64, "duration": 3, "velocity": 78}, {"time": 2590, "pitch": 47, "duration": 20, "velocity": 92}, {"time": 2590, "pitch": 59, "duration": 11, "velocity": 87}, {"time": 2590, "pitch": 62, "duration": 11, "velocity": 92}, {"time": 2596, "pitch": 55, "duration": 16, "velocity": 73}, {"time": 2602, "pitch": 59, "duration": 7, "velocity": 102}, {"time": 2602, "pitch": 62, "duration": 6, "velocity": 97}, {"time": 2602, "pitch": 67, "duration": 14, "velocity": 92}, {"time": 2614, "pitch": 45, "duration": 22, "velocity": 100}, {"time": 2614, "pitch": 57, "duration": 12, "velocity": 102}, {"time": 2614, "pitch": 60, "duration": 17, "velocity": 100}, {"time": 2620, "pitch": 52, "duration": 16, "velocity": 87}, {"time": 2626, "pitch": 64, "duration": 11, "velocity": 108}, {"time": 2632, "pitch": 57, "duration": 4, "velocity": 100}, {"time": 2638, "pitch": 43, "duration": 20, "velocity": 102}, {"time": 2638, "pitch": 55, "duration": 8, "velocity": 87}, {"time": 2638, "pitch": 59, "duration": 9, "velocity": 94}, {"time": 2644, "pitch": 50, "duration": 9, "velocity": 84}, {"time": 2650, "pitch": 55, "duration": 3, "velocity": 87}, {"time": 2650, "pitch": 59, "duration": 7, "velocity": 105}, {"time": 2650, "pitch": 62, "duration": 10, "velocity": 94}, {"time": 2656, "pitch": 55, "duration": 3, "velocity": 76}, {"time": 2662, "pitch": 45, "duration": 47, "velocity": 97}, {"time": 2662, "pitch": 57, "duration": 12, "velocity": 80}, {"time": 2662, "pitch": 60, "duration": 13, "velocity": 89}, {"time": 2668, "pitch": 52, "duration": 21, "velocity": 84}, {"time": 2674, "pitch": 64, "duration": 8, "velocity": 97}, {"time": 2680, "pitch": 60, "duration": 2, "velocity": 89}, {"time": 2686, "pitch": 57, "duration": 13, "velocity": 89}, {"time": 2686, "pitch": 60, "duration": 14, "velocity": 100}, {"time": 2686, "pitch": 69, "duration": 24, "velocity": 94}, {"time": 2698, "pitch": 52, "duration": 11, "velocity": 78}, {"time": 2704, "pitch": 57, "duration": 6, "velocity": 80}, {"time": 2704, "pitch": 60, "duration": 4, "velocity": 34}, {"time": 2710, "pitch": 48, "duration": 21, "velocity": 102}, {"time": 2710, "pitch": 60, "duration": 8, "velocity": 92}, {"time": 2710, "pitch": 64, "duration": 13, "velocity": 102}, {"time": 2716, "pitch": 55, "duration": 20, "velocity": 69}, {"time": 2722, "pitch": 60, "duration": 9, "velocity": 105}, {"time": 2728, "pitch": 64, "duration": 3, "velocity": 92}, {"time": 2734, "pitch": 47, "duration": 21, "velocity": 97}, {"time": 2734, "pitch": 59, "duration": 7, "velocity": 100}, {"time": 2734, "pitch": 62, "duration": 20, "velocity": 87}, {"time": 2740, "pitch": 55, "duration": 16, "velocity": 80}, {"time": 2746, "pitch": 67, "duration": 13, "velocity": 100}, {"time": 2752, "pitch": 59, "duration": 3, "velocity": 82}, {"time": 2758, "pitch": 48, "duration": 19, "velocity": 87}, {"time": 2758, "pitch": 60, "duration": 8, "velocity": 89}, {"time": 2758, "pitch": 64, "duration": 12, "velocity": 89}, {"time": 2764, "pitch": 55, "duration": 19, "velocity": 84}, {"time": 2770, "pitch": 60, "duration": 9, "velocity": 97}, {"time": 2776, "pitch": 64, "duration": 3, "velocity": 78}, {"time": 2782, "pitch": 47, "duration": 20, "velocity": 92}, {"time": 2782, "pitch": 59, "duration": 11, "velocity": 87}, {"time": 2782, "pitch": 62, "duration": 11, "velocity": 92}, {"time": 2788, "pitch": 55, "duration": 16, "velocity": 73}, {"time": 2794, "pitch": 59, "duration": 7, "velocity": 102}, {"time": 2794, "pitch": 62, "duration": 6, "velocity": 97}, {"time": 2794, "pitch": 67, "duration": 14, "velocity": 92}, {"time": 2806, "pitch": 45, "duration": 22, "velocity": 100}, {"time": 2806, "pitch": 57, "duration": 12, "velocity": 102}, {"time": 2806, "pitch": 60, "duration": 17, "velocity": 100}, {"time": 2812, "pitch": 52, "duration": 16, "velocity": 87}, {"time": 2818, "pitch": 64, "duration": 11, "velocity": 108}, {"time": 2824, "pitch": 57, "duration": 4, "velocity": 100}, {"time": 2830, "pitch": 43, "duration": 20, "velocity": 102}, {"time": 2830, "pitch": 55, "duration": 8, "velocity": 87}, {"time": 2830, "pitch": 59, "duration": 9, "velocity": 94}, {"time": 2836, "pitch": 50, "duration": 9, "velocity": 84}, {"time": 2842, "pitch": 55, "duration": 3, "velocity": 87}, {"time": 2842, "pitch": 59, "duration": 7, "velocity": 105}, {"time": 2842, "pitch": 62, "duration": 10, "velocity": 94}, {"time": 2848, "pitch": 55, "duration": 3, "velocity": 76}, {"time": 2854, "pitch": 45, "duration": 22, "velocity": 97}, {"time": 2854, "pitch": 57, "duration": 8, "velocity": 97}, {"time": 2854, "pitch": 60, "duration": 10, "velocity": 100}, {"time": 2860, "pitch": 52, "duration": 16, "velocity": 71}, {"time": 2866, "pitch": 60, "duration": 7, "velocity": 87}, {"time": 2866, "pitch": 64, "duration": 9, "velocity": 97}, {"time": 2872, "pitch": 57, "duration": 4, "velocity": 92}, {"time": 2878, "pitch": 43, "duration": 21, "velocity": 100}, {"time": 2878, "pitch": 55, "duration": 10, "velocity": 80}, {"time": 2878, "pitch": 59, "duration": 10, "velocity": 87}, {"time": 2884, "pitch": 50, "duration": 9, "velocity": 82}, {"time": 2890, "pitch": 55, "duration": 3, "velocity": 97}, {"time": 2890, "pitch": 59, "duration": 8, "velocity": 105}, {"time": 2890, "pitch": 62, "duration": 11, "velocity": 102}, {"time": 2896, "pitch": 55, "duration": 5, "velocity": 92}, {"time": 2902, "pitch": 48, "duration": 21, "velocity": 102}, {"time": 2902, "pitch": 60, "duration": 8, "velocity": 92}, {"time": 2902, "pitch": 64, "duration": 13, "velocity": 102}, {"time": 2908, "pitch": 55, "duration": 20, "velocity": 69}, {"time": 2914, "pitch": 60, "duration": 9, "velocity": 105}, {"time": 2920, "pitch": 64, "duration": 3, "velocity": 92}, {"time": 2926, "pitch": 47, "duration": 21, "velocity": 97}, {"time": 2926, "pitch": 59, "duration": 7, "velocity": 100}, {"time": 2926, "pitch": 62, "duration": 20, "velocity": 87}, {"time": 2932, "pitch": 55, "duration": 16, "velocity": 80}, {"time": 2938, "pitch": 67, "duration": 13, "velocity": 100}, {"time": 2944, "pitch": 59, "duration": 3, "velocity": 82}, {"time": 2950, "pitch": 48, "duration": 19, "velocity": 87}, {"time": 2950, "pitch": 60, "duration": 8, "velocity": 89}, {"time": 2950, "pitch": 64, "duration": 12, "velocity": 89}, {"time": 2956, "pitch": 55, "duration": 19, "velocity": 84}, {"time": 2962, "pitch": 60, "duration": 9, "velocity": 97}, {"time": 2968, "pitch": 64, "duration": 3, "velocity": 78}, {"time": 2974, "pitch": 47, "duration": 20, "velocity": 92}, {"time": 2974, "pitch": 59, "duration": 11, "velocity": 87}, {"time": 2974, "pitch": 62, "duration": 11, "velocity": 92}, {"time": 2980, "pitch": 55, "duration": 16, "velocity": 73}, {"time": 2986, "pitch": 59, "duration": 7, "velocity": 102}, {"time": 2986, "pitch": 62, "duration": 6, "velocity": 97}, {"time": 2986, "pitch": 67, "duration": 14, "velocity": 92}, {"time": 2998, "pitch": 45, "duration": 22, "velocity": 100}, {"time": 2998, "pitch": 57, "duration": 12, "velocity": 102}, {"time": 2998, "pitch": 60, "duration": 17, "velocity": 100}, {"time": 3004, "pitch": 52, "duration": 16, "velocity": 87}, {"time": 3010, "pitch": 64, "duration": 11, "velocity": 108}, {"time": 3016, "pitch": 57, "duration": 4, "velocity": 100}, {"time": 3022, "pitch": 43, "duration": 20, "velocity": 102}, {"time": 3022, "pitch": 55, "duration": 8, "velocity": 87}, {"time": 3022, "pitch": 59, "duration": 9, "velocity": 94}, {"time": 3028, "pitch": 50, "duration": 9, "velocity": 84}, {"time": 3034, "pitch": 55, "duration": 3, "velocity": 87}, {"time": 3034, "pitch": 59, "duration": 7, "velocity": 105}, {"time": 3034, "pitch": 62, "duration": 10, "velocity": 94}, {"time": 3040, "pitch": 55, "duration": 3, "velocity": 76}, {"time": 3046, "pitch": 45, "duration": 47, "velocity": 97}, {"time": 3046, "pitch": 57, "duration": 12, "velocity": 80}, {"time": 3046, "pitch": 60, "duration": 13, "velocity": 89}, {"time": 3052, "pitch": 52, "duration": 21, "velocity": 84}, {"time": 3058, "pitch": 64, "duration": 8, "velocity": 97}, {"time": 3064, "pitch": 60, "duration": 2, "velocity": 89}, {"time": 3070, "pitch": 57, "duration": 13, "velocity": 89}, {"time": 3070, "pitch": 60, "duration": 14, "velocity": 100}, {"time": 3070, "pitch": 69, "duration": 24, "velocity": 94}, {"time": 3082, "pitch": 52, "duration": 11, "velocity": 78}, {"time": 3088, "pitch": 57, "duration": 6, "velocity": 80}, {"time": 3088, "pitch": 60, "duration": 4, "velocity": 34}, {"time": 3094, "pitch": 48, "duration": 26, "velocity": 105}, {"time": 3094, "pitch": 60, "duration": 8, "velocity": 94}, {"time": 3094, "pitch": 63, "duration": 13, "velocity": 99}, {"time": 3094, "pitch": 67, "duration": 14, "velocity": 102}, {"time": 3100, "pitch": 55, "duration": 14, "velocity": 76}, {"time": 3106, "pitch": 60, "duration": 3, "velocity": 55}, {"time": 3112, "pitch": 60, "duration": 13, "velocity": 105}, {"time": 3112, "pitch": 63, "duration": 13, "velocity": 109}, {"time": 3112, "pitch": 67, "duration": 14, "velocity": 108}, {"time": 3124, "pitch": 48, "duration": 13, "velocity": 97}, {"time": 3130, "pitch": 60, "duration": 5, "velocity": 105}, {"time": 3130, "pitch": 63, "duration": 7, "velocity": 109}, {"time": 3136, "pitch": 55, "duration": 6, "velocity": 71}, {"time": 3136, "pitch": 67, "duration": 17, "velocity": 52}, {"time": 3142, "pitch": 46, "duration": 27, "velocity": 105}, {"time": 3142, "pitch": 58, "duration": 8, "velocity": 96}, {"time": 3142, "pitch": 62, "duration": 13, "velocity": 102}, {"time": 3148, "pitch": 55, "duration": 15, "velocity": 73}, {"time": 3154, "pitch": 58, "duration": 3, "velocity": 90}, {"time": 3160, "pitch": 58, "duration": 15, "velocity": 105}, {"time": 3160, "pitch": 62, "duration": 12, "velocity": 111}, {"time": 3160, "pitch": 67, "duration": 8, "velocity": 111}, {"time": 3172, "pitch": 46, "duration": 7, "velocity": 22}, {"time": 3172, "pitch": 55, "duration": 10, "velocity": 60}, {"time": 3178, "pitch": 58, "duration": 5, "velocity": 90}, {"time": 3178, "pitch": 62, "duration": 4, "velocity": 102}, {"time": 3178, "pitch": 65, "duration": 13, "velocity": 105}, {"time": 3184, "pitch": 46, "duration": 4, "velocity": 44}, {"time": 3190, "pitch": 44, "duration": 20, "velocity": 99}, {"time": 3190, "pitch": 56, "duration": 8, "velocity": 72}, {"time": 3190, "pitch": 63, "duration": 13, "velocity": 65}, {"time": 3196, "pitch": 51, "duration": 14, "velocity": 65}, {"time": 3202, "pitch": 56, "duration": 2, "velocity": 63}, {"time": 3208, "pitch": 56, "duration": 16, "velocity": 112}, {"time": 3208, "pitch": 63, "duration": 17, "velocity": 112}, {"time": 3220, "pitch": 44, "duration": 8, "velocity": 46}, {"time": 3226, "pitch": 56, "duration": 3, "velocity": 102}, {"time": 3226, "pitch": 60, "duration": 3, "velocity": 105}, {"time": 3238, "pitch": 46, "duration": 25, "velocity": 105}, {"time": 3238, "pitch": 58, "duration": 8, "velocity": 99}, {"time": 3238, "pitch": 62, "duration": 13, "velocity": 100}, {"time": 3244, "pitch": 53, "duration": 13, "velocity": 82}, {"time": 3250, "pitch": 58, "duration": 4, "velocity": 87}, {"time": 3256, "pitch": 58, "duration": 13, "velocity": 93}, {"time": 3256, "pitch": 62, "duration": 13, "velocity": 97}, {"time": 3256, "pitch": 65, "duration": 12, "velocity": 102}, {"time": 3268, "pitch": 53, "duration": 15, "velocity": 73}, {"time": 3274, "pitch": 58, "duration": 2, "velocity": 105}, {"time": 3274, "pitch": 62, "duration": 7, "velocity": 111}, {"time": 3274, "pitch": 65, "duration": 9, "velocity": 105}, {"time": 3280, "pitch": 58, "duration": 3, "velocity": 105}, {"time": 3286, "pitch": 45, "duration": 44, "velocity": 105}, {"time": 3286, "pitch": 57, "duration": 9, "velocity": 114}, {"time": 3286, "pitch": 60, "duration": 14, "velocity": 111}, {"time": 3292, "pitch": 52, "duration": 14, "velocity": 69}, {"time": 3298, "pitch": 57, "duration": 2, "velocity": 22}, {"time": 3304, "pitch": 57, "duration": 8, "velocity": 111}, {"time": 3304, "pitch": 60, "duration": 8, "velocity": 117}, {"time": 3304, "pitch": 64, "duration": 9, "velocity": 105}, {"time": 3310, "pitch": 52, "duration": 3, "velocity": 60}, {"time": 3316, "pitch": 52, "duration": 8, "velocity": 60}, {"time": 3322, "pitch": 57, "duration": 5, "velocity": 114}, {"time": 3322, "pitch": 60, "duration": 6, "velocity": 120}, {"time": 3328, "pitch": 52, "duration": 4, "velocity": 97}, {"time": 3334, "pitch": 43, "duration": 44, "velocity": 105}, {"time": 3334, "pitch": 55, "duration": 9, "velocity": 102}, {"time": 3334, "pitch": 59, "duration": 11, "velocity": 114}, {"time": 3340, "pitch": 50, "duration": 14, "velocity": 46}, {"time": 3346, "pitch": 55, "duration": 3, "velocity": 73}, {"time": 3352, "pitch": 55, "duration": 9, "velocity": 102}, {"time": 3352, "pitch": 59, "duration": 8, "velocity": 105}, {"time": 3352, "pitch": 62, "duration": 7, "velocity": 102}, {"time": 3358, "pitch": 50, "duration": 4, "velocity": 50}, {"time": 3364, "pitch": 55, "duration": 3, "velocity": 102}, {"time": 3370, "pitch": 55, "duration": 6, "velocity": 100}, {"time": 3370, "pitch": 60, "duration": 1, "velocity": 105}, {"time": 3376, "pitch": 55, "duration": 4, "velocity": 111}, {"time": 3376, "pitch": 59, "duration": 4, "velocity": 100}, {"time": 3382, "pitch": 41, "duration": 26, "velocity": 102}, {"time": 3382, "pitch": 52, "duration": 3, "velocity": 89}, {"time": 3382, "pitch": 53, "duration": 9, "velocity": 82}, {"time": 3382, "pitch": 55, "duration": 3, "velocity": 67}, {"time": 3382, "pitch": 57, "duration": 12, "velocity": 92}, {"time": 3388, "pitch": 48, "duration": 13, "velocity": 80}, {"time": 3394, "pitch": 53, "duration": 3, "velocity": 97}, {"time": 3400, "pitch": 53, "duration": 15, "velocity": 102}, {"time": 3400, "pitch": 57, "duration": 14, "velocity": 114}, {"time": 3400, "pitch": 60, "duration": 15, "velocity": 100}, {"time": 3412, "pitch": 41, "duration": 8, "velocity": 35}, {"time": 3412, "pitch": 48, "duration": 8, "velocity": 69}, {"time": 3418, "pitch": 53, "duration": 2, "velocity": 94}, {"time": 3418, "pitch": 57, "duration": 8, "velocity": 114}, {"time": 3418, "pitch": 60, "duration": 10, "velocity": 105}, {"time": 3424, "pitch": 41, "duration": 3, "velocity": 97}, {"time": 3424, "pitch": 53, "duration": 3, "velocity": 97}, {"time": 3430, "pitch": 43, "duration": 21, "velocity": 111}, {"time": 3430, "pitch": 55, "duration": 6, "velocity": 102}, {"time": 3430, "pitch": 59, "duration": 8, "velocity": 111}, {"time": 3436, "pitch": 50, "duration": 14, "velocity": 82}, {"time": 3442, "pitch": 55, "duration": 3, "velocity": 102}, {"time": 3448, "pitch": 55, "duration": 4, "velocity": 108}, {"time": 3448, "pitch": 59, "duration": 4, "velocity": 120}, {"time": 3448, "pitch": 62, "duration": 4, "velocity": 108}, {"time": 3448, "pitch": 67, "duration": 7, "velocity": 94}, {"time": 3454, "pitch": 43, "duration": 22, "velocity": 48}, {"time": 3454, "pitch": 50, "duration": 9, "velocity": 92}, {"time": 3460, "pitch": 62, "duration": 7, "velocity": 84}, {"time": 3460, "pitch": 67, "duration": 14, "velocity": 87}, {"time": 3460, "pitch": 71, "duration": 13, "velocity": 80}, {"time": 3466, "pitch": 50, "duration": 10, "velocity": 105}, {"time": 3472, "pitch": 62, "duration": 5, "velocity": 100}, {"time": 3478, "pitch": 48, "duration": 21, "velocity": 102}, {"time": 3478, "pitch": 60, "duration": 8, "velocity": 92}, {"time": 3478, "pitch": 64, "duration": 13, "velocity": 102}, {"time": 3484, "pitch": 55, "duration": 20, "velocity": 69}, {"time": 3490, "pitch": 60, "duration": 9, "velocity": 105}, {"time": 3496, "pitch": 64, "duration": 3, "velocity": 92}, {"time": 3502, "pitch": 47, "duration": 21, "velocity": 97}, {"time": 3502, "pitch": 59, "duration": 7, "velocity": 100}, {"time": 3502, "pitch": 62, "duration": 20, "velocity": 87}, {"time": 3508, "pitch": 55, "duration": 16, "velocity": 80}, {"time": 3514, "pitch": 67, "duration": 13, "velocity": 100}, {"time": 3520, "pitch": 59, "duration": 3, "velocity": 82}, {"time": 3526, "pitch": 48, "duration": 19, "velocity": 87}, {"time": 3526, "pitch": 60, "duration": 8, "velocity": 89}, {"time": 3526, "pitch": 64, "duration": 12, "velocity": 89}, {"time": 3532, "pitch": 55, "duration": 19, "velocity": 84}, {"time": 3538, "pitch": 60, "duration": 9, "velocity": 97}, {"time": 3544, "pitch": 64, "duration": 3, "velocity": 78}, {"time": 3550, "pitch": 47, "duration": 20, "velocity": 92}, {"time": 3550, "pitch": 59, "duration": 11, "velocity": 87}, {"time": 3550, "pitch": 62, "duration": 11, "velocity": 92}, {"time": 3556, "pitch": 55, "duration": 16, "velocity": 73}, {"time": 3562, "pitch": 59, "duration": 7, "velocity": 102}, {"time": 3562, "pitch": 62, "duration": 6, "velocity": 97}, {"time": 3562, "pitch": 67, "duration": 14, "velocity": 92}, {"time": 3574, "pitch": 45, "duration": 22, "velocity": 100}, {"time": 3574, "pitch": 57, "duration": 12, "velocity": 102}, {"time": 3574, "pitch": 60, "duration": 17, "velocity": 100}, {"time": 3580, "pitch": 52, "duration": 16, "velocity": 87}, {"time": 3586, "pitch": 64, "duration": 11, "velocity": 108}, {"time": 3592, "pitch": 57, "duration": 4, "velocity": 100}, {"time": 3598, "pitch": 43, "duration": 20, "velocity": 102}, {"time": 3598, "pitch": 55, "duration": 8, "velocity": 87}, {"time": 3598, "pitch": 59, "duration": 9, "velocity": 94}, {"time": 3604, "pitch": 50, "duration": 9, "velocity": 84}, {"time": 3610, "pitch": 55, "duration": 3, "velocity": 87}, {"time": 3610, "pitch": 59, "duration": 7, "velocity": 105}, {"time": 3610, "pitch": 62, "duration": 10, "velocity": 94}, {"time": 3616, "pitch": 55, "duration": 3, "velocity": 76}, {"time": 3622, "pitch": 45, "duration": 22, "velocity": 97}, {"time": 3622, "pitch": 57, "duration": 8, "velocity": 97}, {"time": 3622, "pitch": 60, "duration": 10, "velocity": 100}, {"time": 3628, "pitch": 52, "duration": 16, "velocity": 71}, {"time": 3634, "pitch": 60, "duration": 7, "velocity": 87}, {"time": 3634, "pitch": 64, "duration": 9, "velocity": 97}, {"time": 3640, "pitch": 57, "duration": 4, "velocity": 92}, {"time": 3646, "pitch": 43, "duration": 21, "velocity": 100}, {"time": 3646, "pitch": 55, "duration": 10, "velocity": 80}, {"time": 3646, "pitch": 59, "duration": 10, "velocity": 87}, {"time": 3652, "pitch": 50, "duration": 9, "velocity": 82}, {"time": 3658, "pitch": 55, "duration": 3, "velocity": 97}, {"time": 3658, "pitch": 59, "duration": 8, "velocity": 105}, {"time": 3658, "pitch": 62, "duration": 11, "velocity": 102}, {"time": 3664, "pitch": 55, "duration": 5, "velocity": 92}, {"time": 3670, "pitch": 48, "duration": 21, "velocity": 102}, {"time": 3670, "pitch": 60, "duration": 8, "velocity": 92}, {"time": 3670, "pitch": 64, "duration": 13, "velocity": 102}, {"time": 3676, "pitch": 55, "duration": 20, "velocity": 69}, {"time": 3682, "pitch": 60, "duration": 9, "velocity": 105}, {"time": 3688, "pitch": 64, "duration": 3, "velocity": 92}, {"time": 3694, "pitch": 47, "duration": 21, "velocity": 97}, {"time": 3694, "pitch": 59, "duration": 7, "velocity": 100}, {"time": 3694, "pitch": 62, "duration": 20, "velocity": 87}, {"time": 3700, "pitch": 55, "duration": 16, "velocity": 80}, {"time": 3706, "pitch": 67, "duration": 13, "velocity": 100}, {"time": 3712, "pitch": 59, "duration": 3, "velocity": 82}, {"time": 3718, "pitch": 48, "duration": 19, "velocity": 87}, {"time": 3718, "pitch": 60, "duration": 8, "velocity": 89}, {"time": 3718, "pitch": 64, "duration": 12, "velocity": 89}, {"time": 3724, "pitch": 55, "duration": 19, "velocity": 84}, {"time": 3730, "pitch": 60, "duration": 9, "velocity": 97}, {"time": 3736, "pitch": 64, "duration": 3, "velocity": 78}, {"time": 3742, "pitch": 47, "duration": 20, "velocity": 92}, {"time": 3742, "pitch": 59, "duration": 11, "velocity": 87}, {"time": 3742, "pitch": 62, "duration": 11, "velocity": 92}, {"time": 3748, "pitch": 55, "duration": 16, "velocity": 73}, {"time": 3754, "pitch": 59, "duration": 7, "velocity": 102}, {"time": 3754, "pitch": 62, "duration": 6, "velocity": 97}, {"time": 3754, "pitch": 67, "duration": 14, "velocity": 92}, {"time": 3766, "pitch": 45, "duration": 22, "velocity": 100}, {"time": 3766, "pitch": 57, "duration": 12, "velocity": 102}, {"time": 3766, "pitch": 60, "duration": 17, "velocity": 100}, {"time": 3772, "pitch": 52, "duration": 16, "velocity": 87}, {"time": 3778, "pitch": 64, "duration": 11, "velocity": 108}, {"time": 3784, "pitch": 57, "duration": 4, "velocity": 100}, {"time": 3790, "pitch": 43, "duration": 20, "velocity": 102}, {"time": 3790, "pitch": 55, "duration": 8, "velocity": 87}, {"time": 3790, "pitch": 59, "duration": 9, "velocity": 94}, {"time": 3796, "pitch": 50, "duration": 9, "velocity": 84}, {"time": 3802, "pitch": 55, "duration": 3, "velocity": 87}, {"time": 3802, "pitch": 59, "duration": 7, "velocity": 105}, {"time": 3802, "pitch": 62, "duration": 10, "velocity": 94}, {"time": 3808, "pitch": 55, "duration": 3, "velocity": 76}, {"time": 3814, "pitch": 45, "duration": 47, "velocity": 97}, {"time": 3814, "pitch": 57, "duration": 12, "velocity": 80}, {"time": 3814, "pitch": 60, "duration": 13, "velocity": 89}, {"time": 3820, "pitch": 52, "duration": 21, "velocity": 84}, {"time": 3826, "pitch": 64, "duration": 8, "velocity": 97}, {"time": 3832, "pitch": 60, "duration": 2, "velocity": 89}, {"time": 3838, "pitch": 57, "duration": 13, "velocity": 89}, {"time": 3838, "pitch": 60, "duration": 14, "velocity": 100}, {"time": 3838, "pitch": 69, "duration": 24, "velocity": 94}, {"time": 3850, "pitch": 52, "duration": 11, "velocity": 78}, {"time": 3856, "pitch": 57, "duration": 6, "velocity": 80}, {"time": 3856, "pitch": 60, "duration": 4, "velocity": 34}, {"time": 3862, "pitch": 48, "duration": 21, "velocity": 102}, {"time": 3862, "pitch": 60, "duration": 8, "velocity": 92}, {"time": 3862, "pitch": 64, "duration": 13, "velocity": 102}, {"time": 3868, "pitch": 55, "duration": 20, "velocity": 69}, {"time": 3874, "pitch": 60, "duration": 9, "velocity": 105}, {"time": 3880, "pitch": 64, "duration": 3, "velocity": 92}, {"time": 3886, "pitch": 47, "duration": 21, "velocity": 97}, {"time": 3886, "pitch": 59, "duration": 7, "velocity": 100}, {"time": 3886, "pitch": 62, "duration": 20, "velocity": 87}, {"time": 3892, "pitch": 55, "duration": 16, "velocity": 80}, {"time": 3898, "pitch": 67, "duration": 13, "velocity": 100}, {"time": 3904, "pitch": 59, "duration": 3, "velocity": 82}, {"time": 3910, "pitch": 48, "duration": 19, "velocity": 87}, {"time": 3910, "pitch": 60, "duration": 8, "velocity": 89}, {"time": 3910, "pitch": 64, "duration": 12, "velocity": 89}, {"time": 3916, "pitch": 55, "duration": 19, "velocity": 84}, {"time": 3922, "pitch": 60, "duration": 9, "velocity": 97}, {"time": 3928, "pitch": 64, "duration": 3, "velocity": 78}, {"time": 3934, "pitch": 47, "duration": 20, "velocity": 92}, {"time": 3934, "pitch": 59, "duration": 11, "velocity": 87}, {"time": 3934, "pitch": 62, "duration": 11, "velocity": 92}, {"time": 3940, "pitch": 55, "duration": 16, "velocity": 73}, {"time": 3946, "pitch": 59, "duration": 7, "velocity": 102}, {"time": 3946, "pitch": 62, "duration": 6, "velocity": 97}, {"time": 3946, "pitch": 67, "duration": 14, "velocity": 92}, {"time": 3958, "pitch": 45, "duration": 22, "velocity": 100}, {"time": 3958, "pitch": 57, "duration": 12, "velocity": 102}, {"time": 3958, "pitch": 60, "duration": 17, "velocity": 100}, {"time": 3964, "pitch": 52, "duration": 16, "velocity": 87}, {"time": 3970, "pitch": 64, "duration": 11, "velocity": 108}, {"time": 3976, "pitch": 57, "duration": 4, "velocity": 100}, {"time": 3982, "pitch": 43, "duration": 20, "velocity": 102}, {"time": 3982, "pitch": 55, "duration": 8, "velocity": 87}, {"time": 3982, "pitch": 59, "duration": 9, "velocity": 94}, {"time": 3988, "pitch": 50, "duration": 9, "velocity": 84}, {"time": 3994, "pitch": 55, "duration": 3, "velocity": 87}, {"time": 3994, "pitch": 59, "duration": 7, "velocity": 105}, {"time": 3994, "pitch": 62, "duration": 10, "velocity": 94}, {"time": 4000, "pitch": 55, "duration": 3, "velocity": 76}, {"time": 4006, "pitch": 45, "duration": 22, "velocity": 97}, {"time": 4006, "pitch": 57, "duration": 8, "velocity": 97}, {"time": 4006, "pitch": 60, "duration": 10, "velocity": 100}, {"time": 4012, "pitch": 52, "duration": 16, "velocity": 71}, {"time": 4018, "pitch": 60, "duration": 7, "velocity": 87}, {"time": 4018, "pitch": 64, "duration": 9, "velocity": 97}, {"time": 4024, "pitch": 57, "duration": 4, "velocity": 92}, {"time": 4030, "pitch": 43, "duration": 21, "velocity": 100}, {"time": 4030, "pitch": 55, "duration": 10, "velocity": 80}, {"time": 4030, "pitch": 59, "duration": 10, "velocity": 87}, {"time": 4036, "pitch": 50, "duration": 9, "velocity": 82}, {"time": 4042, "pitch": 55, "duration": 3, "velocity": 97}, {"time": 4042, "pitch": 59, "duration": 8, "velocity": 105}, {"time": 4042, "pitch": 62, "duration": 11, "velocity": 102}, {"time": 4048, "pitch": 55, "duration": 5, "velocity": 92}, {"time": 4054, "pitch": 48, "duration": 21, "velocity": 102}, {"time": 4054, "pitch": 60, "duration": 8, "velocity": 92}, {"time": 4054, "pitch": 64, "duration": 13, "velocity": 102}, {"time": 4060, "pitch": 55, "duration": 20, "velocity": 69}, {"time": 4066, "pitch": 60, "duration": 9, "velocity": 105}, {"time": 4072, "pitch": 64, "duration": 3, "velocity": 92}, {"time": 4078, "pitch": 47, "duration": 21, "velocity": 97}, {"time": 4078, "pitch": 59, "duration": 7, "velocity": 100}, {"time": 4078, "pitch": 62, "duration": 20, "velocity": 87}, {"time": 4084, "pitch": 55, "duration": 16, "velocity": 80}, {"time": 4090, "pitch": 67, "duration": 13, "velocity": 100}, {"time": 4096, "pitch": 59, "duration": 3, "velocity": 82}, {"time": 4102, "pitch": 48, "duration": 19, "velocity": 87}, {"time": 4102, "pitch": 60, "duration": 8, "velocity": 89}, {"time": 4102, "pitch": 64, "duration": 12, "velocity": 89}, {"time": 4108, "pitch": 55, "duration": 19, "velocity": 84}, {"time": 4114, "pitch": 60, "duration": 9, "velocity": 97}, {"time": 4120, "pitch": 64, "duration": 3, "velocity": 78}, {"time": 4126, "pitch": 47, "duration": 20, "velocity": 92}, {"time": 4126, "pitch": 59, "duration": 11, "velocity": 87}, {"time": 4126, "pitch": 62, "duration": 11, "velocity": 92}, {"time": 4132, "pitch": 55, "duration": 16, "velocity": 73}, {"time": 4138, "pitch": 59, "duration": 7, "velocity": 102}, {"time": 4138, "pitch": 62, "duration": 6, "velocity": 97}, {"time": 4138, "pitch": 67, "duration": 14, "velocity": 92}, {"time": 4150, "pitch": 45, "duration": 22, "velocity": 100}, {"time": 4150, "pitch": 57, "duration": 12, "velocity": 102}, {"time": 4150, "pitch": 60, "duration": 17, "velocity": 100}, {"time": 4156, "pitch": 52, "duration": 16, "velocity": 87}, {"time": 4162, "pitch": 64, "duration": 11, "velocity": 108}, {"time": 4168, "pitch": 57, "duration": 4, "velocity": 100}, {"time": 4174, "pitch": 43, "duration": 20, "velocity": 102}, {"time": 4174, "pitch": 55, "duration": 8, "velocity": 87}, {"time": 4174, "pitch": 59, "duration": 9, "velocity": 94}, {"time": 4180, "pitch": 50, "duration": 9, "velocity": 84}, {"time": 4186, "pitch": 55, "duration": 3, "velocity": 87}, {"time": 4186, "pitch": 59, "duration": 7, "velocity": 105}, {"time": 4186, "pitch": 62, "duration": 10, "velocity": 94}, {"time": 4192, "pitch": 55, "duration": 3, "velocity": 76}, {"time": 4198, "pitch": 45, "duration": 47, "velocity": 97}, {"time": 4198, "pitch": 57, "duration": 12, "velocity": 80}, {"time": 4198, "pitch": 60, "duration": 13, "velocity": 89}, {"time": 4204, "pitch": 52, "duration": 21, "velocity": 84}, {"time": 4210, "pitch": 64, "duration": 8, "velocity": 97}, {"time": 4216, "pitch": 60, "duration": 2, "velocity": 89}, {"time": 4222, "pitch": 57, "duration": 13, "velocity": 89}, {"time": 4222, "pitch": 60, "duration": 14, "velocity": 100}, {"time": 4222, "pitch": 69, "duration": 24, "velocity": 94}, {"time": 4234, "pitch": 52, "duration": 11, "velocity": 78}, {"time": 4240, "pitch": 57, "duration": 6, "velocity": 80}, {"time": 4240, "pitch": 60, "duration": 4, "velocity": 34}, {"time": 4246, "pitch": 45, "duration": 45, "velocity": 94}, {"time": 4246, "pitch": 57, "duration": 31, "velocity": 76}, {"time": 4246, "pitch": 60, "duration": 29, "velocity": 82}, {"time": 4252, "pitch": 52, "duration": 21, "velocity": 73}, {"time": 4258, "pitch": 64, "duration": 31, "velocity": 67}, {"time": 4264, "pitch": 69, "duration": 26, "velocity": 105}, {"time": 4276, "pitch": 52, "duration": 16, "velocity": 73}, {"time": 4282, "pitch": 57, "duration": 10, "velocity": 94}, {"time": 4288, "pitch": 60, "duration": 3, "velocity": 80}, {"time": 4294, "pitch": 43, "duration": 45, "velocity": 100}, {"time": 4294, "pitch": 55, "duration": 31, "velocity": 84}, {"time": 4294, "pitch": 59, "duration": 29, "velocity": 84}, {"time": 4300, "pitch": 50, "duration": 25, "velocity": 67}, {"time": 4306, "pitch": 62, "duration": 13, "velocity": 71}, {"time": 4312, "pitch": 67, "duration": 25, "velocity": 105}, {"time": 4324, "pitch": 62, "duration": 15, "velocity": 76}, {"time": 4330, "pitch": 50, "duration": 11, "velocity": 80}, {"time": 4336, "pitch": 55, "duration": 4, "velocity": 92}, {"time": 4342, "pitch": 41, "duration": 45, "velocity": 94}, {"time": 4342, "pitch": 53, "duration": 32, "velocity": 100}, {"time": 4342, "pitch": 57, "duration": 38, "velocity": 82}, {"time": 4348, "pitch": 48, "duration": 21, "velocity": 66}, {"time": 4354, "pitch": 60, "duration": 34, "velocity": 76}, {"time": 4360, "pitch": 65, "duration": 26, "velocity": 102}, {"time": 4372, "pitch": 48, "duration": 16, "velocity": 51}, {"time": 4378, "pitch": 53, "duration": 7, "velocity": 94}, {"time": 4384, "pitch": 57, "duration": 4, "velocity": 100}, {"time": 4390, "pitch": 43, "duration": 45, "velocity": 100}, {"time": 4390, "pitch": 55, "duration": 31, "velocity": 80}, {"time": 4390, "pitch": 59, "duration": 27, "velocity": 102}, {"time": 4396, "pitch": 50, "duration": 19, "velocity": 73}, {"time": 4402, "pitch": 62, "duration": 10, "velocity": 73}, {"time": 4408, "pitch": 67, "duration": 25, "velocity": 105}, {"time": 4420, "pitch": 50, "duration": 18, "velocity": 67}, {"time": 4426, "pitch": 62, "duration": 9, "velocity": 84}, {"time": 4432, "pitch": 55, "duration": 4, "velocity": 71}, {"time": 4438, "pitch": 41, "duration": 44, "velocity": 92}, {"time": 4438, "pitch": 53, "duration": 34, "velocity": 84}, {"time": 4438, "pitch": 57, "duration": 28, "velocity": 94}, {"time": 4444, "pitch": 48, "duration": 20, "velocity": 69}, {"time": 4450, "pitch": 60, "duration": 8, "velocity": 73}, {"time": 4456, "pitch": 65, "duration": 26, "velocity": 108}, {"time": 4468, "pitch": 48, "duration": 15, "velocity": 53}, {"time": 4474, "pitch": 60, "duration": 10, "velocity": 87}, {"time": 4480, "pitch": 53, "duration": 4, "velocity": 89}, {"time": 4486, "pitch": 43, "duration": 45, "velocity": 105}, {"time": 4486, "pitch": 55, "duration": 6, "velocity": 97}, {"time": 4486, "pitch": 59, "duration": 39, "velocity": 100}, {"time": 4492, "pitch": 50, "duration": 20, "velocity": 67}, {"time": 4498, "pitch": 55, "duration": 25, "velocity": 89}, {"time": 4504, "pitch": 67, "duration": 30, "velocity": 108}, {"time": 4516, "pitch": 50, "duration": 15, "velocity": 73}, {"time": 4522, "pitch": 62, "duration": 11, "velocity": 87}, {"time": 4528, "pitch": 55, "duration": 3, "velocity": 102}, {"time": 4534, "pitch": 57, "duration": 22, "velocity": 92}, {"time": 4540, "pitch": 64, "duration": 17, "velocity": 69}, {"time": 4546, "pitch": 69, "duration": 10, "velocity": 82}, {"time": 4558, "pitch": 55, "duration": 21, "velocity": 84}, {"time": 4564, "pitch": 62, "duration": 16, "velocity": 71}, {"time": 4570, "pitch": 67, "duration": 10, "velocity": 94}, {"time": 4582, "pitch": 57, "duration": 20, "velocity": 92}, {"time": 4588, "pitch": 64, "duration": 17, "velocity": 84}, {"time": 4600, "pitch": 72, "duration": 6, "velocity": 82}, {"time": 4606, "pitch": 55, "duration": 22, "velocity": 80}, {"time": 4606, "pitch": 71, "duration": 13, "velocity": 76}, {"time": 4612, "pitch": 62, "duration": 16, "velocity": 62}, {"time": 4630, "pitch": 53, "duration": 20, "velocity": 80}, {"time": 4630, "pitch": 72, "duration": 12, "velocity": 73}, {"time": 4636, "pitch": 60, "duration": 15, "velocity": 71}, {"time": 4642, "pitch": 65, "duration": 7, "velocity": 97}, {"time": 4648, "pitch": 72, "duration": 7, "velocity": 80}, {"time": 4654, "pitch": 55, "duration": 20, "velocity": 89}, {"time": 4660, "pitch": 62, "duration": 16, "velocity": 69}, {"time": 4666, "pitch": 71, "duration": 8, "velocity": 92}, {"time": 4678, "pitch": 57, "duration": 44, "velocity": 80}, {"time": 4678, "pitch": 72, "duration": 13, "velocity": 76}, {"time": 4684, "pitch": 64, "duration": 39, "velocity": 73}, {"time": 4690, "pitch": 69, "duration": 31, "velocity": 102}, {"time": 4696, "pitch": 76, "duration": 28, "velocity": 89}, {"time": 4702, "pitch": 81, "duration": 21, "velocity": 94}, {"time": 4726, "pitch": 57, "duration": 21, "velocity": 94}, {"time": 4732, "pitch": 64, "duration": 17, "velocity": 76}, {"time": 4738, "pitch": 69, "duration": 10, "velocity": 100}, {"time": 4750, "pitch": 55, "duration": 21, "velocity": 94}, {"time": 4750, "pitch": 67, "duration": 6, "velocity": 71}, {"time": 4750, "pitch": 71, "duration": 14, "velocity": 87}, {"time": 4756, "pitch": 62, "duration": 16, "velocity": 57}, {"time": 4762, "pitch": 67, "duration": 8, "velocity": 80}, {"time": 4774, "pitch": 57, "duration": 21, "velocity": 80}, {"time": 4774, "pitch": 72, "duration": 15, "velocity": 84}, {"time": 4780, "pitch": 64, "duration": 16, "velocity": 64}, {"time": 4786, "pitch": 69, "duration": 11, "velocity": 97}, {"time": 4792, "pitch": 76, "duration": 7, "velocity": 92}, {"time": 4798, "pitch": 55, "duration": 22, "velocity": 97}, {"time": 4804, "pitch": 62, "duration": 17, "velocity": 66}, {"time": 4810, "pitch": 67, "duration": 9, "velocity": 89}, {"time": 4816, "pitch": 71, "duration": 3, "velocity": 87}, {"time": 4822, "pitch": 53, "duration": 20, "velocity": 87}, {"time": 4822, "pitch": 65, "duration": 7, "velocity": 69}, {"time": 4822, "pitch": 69, "duration": 13, "velocity": 92}, {"time": 4828, "pitch": 60, "duration": 16, "velocity": 78}, {"time": 4834, "pitch": 65, "duration": 7, "velocity": 94}, {"time": 4840, "pitch": 69, "duration": 6, "velocity": 89}, {"time": 4846, "pitch": 55, "duration": 21, "velocity": 87}, {"time": 4846, "pitch": 67, "duration": 7, "velocity": 76}, {"time": 4846, "pitch": 71, "duration": 13, "velocity": 82}, {"time": 4852, "pitch": 62, "duration": 16, "velocity": 67}, {"time": 4858, "pitch": 67, "duration": 7, "velocity": 97}, {"time": 4864, "pitch": 71, "duration": 6, "velocity": 89}, {"time": 4870, "pitch": 57, "duration": 46, "velocity": 82}, {"time": 4870, "pitch": 72, "duration": 12, "velocity": 78}, {"time": 4876, "pitch": 64, "duration": 41, "velocity": 71}, {"time": 4882, "pitch": 69, "duration": 10, "velocity": 108}, {"time": 4888, "pitch": 76, "duration": 29, "velocity": 84}, {"time": 4894, "pitch": 81, "duration": 23, "velocity": 80}, {"time": 4900, "pitch": 69, "duration": 18, "velocity": 1}], "annotations": [{"time": 685, "annotation": {"number": 64, "value": 127}, "group": "control_change"}, {"time": 692, "annotation": {"number": 64, "value": 0}, "group": "control_change"}, {"time": 724, "annotation": {"number": 64, "value": 127}, "group": "control_change"}, {"time": 739, "annotation": {"number": 64, "value": 0}, "group": "control_change"}, {"time": 754, "annotation": {"number": 64, "value": 127}, "group": "control_change"}, {"time": 788, "annotation": {"number": 64, "value": 0}, "group": "control_change"}, {"time": 1071, "annotation": {"number": 64, "value": 127}, "group": "control_change"}, {"time": 1076, "annotation": {"number": 64, "value": 0}, "group": "control_change"}, {"time": 1090, "annotation": {"number": 64, "value": 127}, "group": "control_change"}, {"time": 1125, "annotation": {"number": 64, "value": 0}, "group": "control_change"}, {"time": 1138, "annotation": {"number": 64, "value": 127}, "group": "control_change"}, {"time": 1172, "annotation": {"number": 64, "value": 0}, "group": "control_change"}, {"time": 1186, "annotation": {"number": 64, "value": 127}, "group": "control_change"}, {"time": 1195, "annotation": {"number": 64, "value": 0}, "group": "control_change"}, {"time": 1209, "annotation": {"number": 64, "value": 127}, "group": "control_change"}, {"time": 1221, "annotation": {"number": 64, "value": 0}, "group": "control_change"}, {"time": 1236, "annotation": {"number": 64, "value": 127}, "group": "control_change"}, {"time": 1243, "annotation": {"number": 64, "value": 0}, "group": "control_change"}, {"time": 1259, "annotation": {"number": 64, "value": 127}, "group": "control_change"}, {"time": 1269, "annotation": {"number": 64, "value": 0}, "group": "control_change"}, {"time": 1301, "annotation": {"number": 64, "value": 127}, "group": "control_change"}, {"time": 1317, "annotation": {"number": 64, "value": 0}, "group": "control_change"}, {"time": 1327, "annotation": {"number": 64, "value": 127}, "group": "control_change"}, {"time": 1342, "annotation": {"number": 64, "value": 0}, "group": "control_change"}, {"time": 1350, "annotation": {"number": 64, "value": 127}, "group": "control_change"}, {"time": 1364, "annotation": {"number": 64, "value": 0}, "group": "control_change"}, {"time": 1378, "annotation": {"number": 64, "value": 127}, "group": "control_change"}, {"time": 1387, "annotation": {"number": 64, "value": 0}, "group": "control_change"}, {"time": 1401, "annotation": {"number": 64, "value": 127}, "group": "control_change"}, {"time": 1413, "annotation": {"number": 64, "value": 0}, "group": "control_change"}, {"time": 1428, "annotation": {"number": 64, "value": 127}, "group": "control_change"}, {"time": 1435, "annotation": {"number": 64, "value": 0}, "group": "control_change"}, {"time": 1451, "annotation": {"number": 64, "value": 127}, "group": "control_change"}, {"time": 1461, "annotation": {"number": 64, "value": 0}, "group": "control_change"}, {"time": 1493, "annotation": {"number": 64, "value": 127}, "group": "control_change"}, {"time": 1509, "annotation": {"number": 64, "value": 0}, "group": "control_change"}, {"time": 1520, "annotation": {"number": 64, "value": 127}, "group": "control_change"}, {"time": 1555, "annotation": {"number": 64, "value": 0}, "group": "control_change"}, {"time": 1837, "annotation": {"number": 64, "value": 127}, "group": "control_change"}, {"time": 1844, "annotation": {"number": 64, "value": 0}, "group": "control_change"}, {"time": 1876, "annotation": {"number": 64, "value": 127}, "group": "control_change"}, {"time": 1891, "annotation": {"number": 64, "value": 0}, "group": "control_change"}, {"time": 1906, "annotation": {"number": 64, "value": 127}, "group": "control_change"}, {"time": 1940, "annotation": {"number": 64, "value": 0}, "group": "control_change"}, {"time": 2223, "annotation": {"number": 64, "value": 127}, "group": "control_change"}, {"time": 2228, "annotation": {"number": 64, "value": 0}, "group": "control_change"}, {"time": 2242, "annotation": {"number": 64, "value": 127}, "group": "control_change"}, {"time": 2277, "annotation": {"number": 64, "value": 0}, "group": "control_change"}, {"time": 2290, "annotation": {"number": 64, "value": 127}, "group": "control_change"}, {"time": 2324, "annotation": {"number": 64, "value": 0}, "group": "control_change"}, {"time": 2338, "annotation": {"number": 64, "value": 127}, "group": "control_change"}, {"time": 2347, "annotation": {"number": 64, "value": 0}, "group": "control_change"}, {"time": 2361, "annotation": {"number": 64, "value": 127}, "group": "control_change"}, {"time": 2373, "annotation": {"number": 64, "value": 0}, "group": "control_change"}, {"time": 2388, "annotation": {"number": 64, "value": 127}, "group": "control_change"}, {"time": 2395, "annotation": {"number": 64, "value": 0}, "group": "control_change"}, {"time": 2411, "annotation": {"number": 64, "value": 127}, "group": "control_change"}, {"time": 2421, "annotation": {"number": 64, "value": 0}, "group": "control_change"}, {"time": 2453, "annotation": {"number": 64, "value": 127}, "group": "control_change"}, {"time": 2469, "annotation": {"number": 64, "value": 0}, "group": "control_change"}, {"time": 2479, "annotation": {"number": 64, "value": 127}, "group": "control_change"}, {"time": 2494, "annotation": {"number": 64, "value": 0}, "group": "control_change"}, {"time": 2502, "annotation": {"number": 64, "value": 127}, "group": "control_change"}, {"time": 2516, "annotation": {"number": 64, "value": 0}, "group": "control_change"}, {"time": 2530, "annotation": {"number": 64, "value": 127}, "group": "control_change"}, {"time": 2539, "annotation": {"number": 64, "value": 0}, "group": "control_change"}, {"time": 2553, "annotation": {"number": 64, "value": 127}, "group": "control_change"}, {"time": 2565, "annotation": {"number": 64, "value": 0}, "group": "control_change"}, {"time": 2580, "annotation": {"number": 64, "value": 127}, "group": "control_change"}, {"time": 2587, "annotation": {"number": 64, "value": 0}, "group": "control_change"}, {"time": 2603, "annotation": {"number": 64, "value": 127}, "group": "control_change"}, {"time": 2613, "annotation": {"number": 64, "value": 0}, "group": "control_change"}, {"time": 2645, "annotation": {"number": 64, "value": 127}, "group": "control_change"}, {"time": 2661, "annotation": {"number": 64, "value": 0}, "group": "control_change"}, {"time": 2672, "annotation": {"number": 64, "value": 127}, "group": "control_change"}, {"time": 2707, "annotation": {"number": 64, "value": 0}, "group": "control_change"}, {"time": 2722, "annotation": {"number": 64, "value": 127}, "group": "control_change"}, {"time": 2731, "annotation": {"number": 64, "value": 0}, "group": "control_change"}, {"time": 2745, "annotation": {"number": 64, "value": 127}, "group": "control_change"}, {"time": 2757, "annotation": {"number": 64, "value": 0}, "group": "control_change"}, {"time": 2772, "annotation": {"number": 64, "value": 127}, "group": "control_change"}, {"time": 2779, "annotation": {"number": 64, "value": 0}, "group": "control_change"}, {"time": 2795, "annotation": {"number": 64, "value": 127}, "group": "control_change"}, {"time": 2805, "annotation": {"number": 64, "value": 0}, "group": "control_change"}, {"time": 2837, "annotation": {"number": 64, "value": 127}, "group": "control_change"}, {"time": 2853, "annotation": {"number": 64, "value": 0}, "group": "control_change"}, {"time": 2863, "annotation": {"number": 64, "value": 127}, "group": "control_change"}, {"time": 2878, "annotation": {"number": 64, "value": 0}, "group": "control_change"}, {"time": 2886, "annotation": {"number": 64, "value": 127}, "group": "control_change"}, {"time": 2900, "annotation": {"number": 64, "value": 0}, "group": "control_change"}, {"time": 2914, "annotation": {"number": 64, "value": 127}, "group": "control_change"}, {"time": 2923, "annotation": {"number": 64, "value": 0}, "group": "control_change"}, {"time": 2937, "annotation": {"number": 64, "value": 127}, "group": "control_change"}, {"time": 2949, "annotation": {"number": 64, "value": 0}, "group": "control_change"}, {"time": 2964, "annotation": {"number": 64, "value": 127}, "group": "control_change"}, {"time": 2971, "annotation": {"number": 64, "value": 0}, "group": "control_change"}, {"time": 2987, "annotation": {"number": 64, "value": 127}, "group": "control_change"}, {"time": 2997, "annotation": {"number": 64, "value": 0}, "group": "control_change"}, {"time": 3029, "annotation": {"number": 64, "value": 127}, "group": "control_change"}, {"time": 3045, "annotation": {"number": 64, "value": 0}, "group": "control_change"}, {"time": 3056, "annotation": {"number": 64, "value": 127}, "group": "control_change"}, {"time": 3091, "annotation": {"number": 64, "value": 0}, "group": "control_change"}, {"time": 3103, "annotation": {"number": 64, "value": 127}, "group": "control_change"}, {"time": 3143, "annotation": {"number": 64, "value": 0}, "group": "control_change"}, {"time": 3151, "annotation": {"number": 64, "value": 127}, "group": "control_change"}, {"time": 3190, "annotation": {"number": 64, "value": 0}, "group": "control_change"}, {"time": 3199, "annotation": {"number": 64, "value": 127}, "group": "control_change"}, {"time": 3239, "annotation": {"number": 64, "value": 0}, "group": "control_change"}, {"time": 3251, "annotation": {"number": 64, "value": 127}, "group": "control_change"}, {"time": 3286, "annotation": {"number": 64, "value": 0}, "group": "control_change"}, {"time": 3296, "annotation": {"number": 64, "value": 127}, "group": "control_change"}, {"time": 3333, "annotation": {"number": 64, "value": 0}, "group": "control_change"}, {"time": 3341, "annotation": {"number": 64, "value": 127}, "group": "control_change"}, {"time": 3382, "annotation": {"number": 64, "value": 0}, "group": "control_change"}, {"time": 3391, "annotation": {"number": 64, "value": 127}, "group": "control_change"}, {"time": 3429, "annotation": {"number": 64, "value": 0}, "group": "control_change"}, {"time": 3436, "annotation": {"number": 64, "value": 127}, "group": "control_change"}, {"time": 3475, "annotation": {"number": 64, "value": 0}, "group": "control_change"}, {"time": 3490, "annotation": {"number": 64, "value": 127}, "group": "control_change"}, {"time": 3499, "annotation": {"number": 64, "value": 0}, "group": "control_change"}, {"time": 3513, "annotation": {"number": 64, "value": 127}, "group": "control_change"}, {"time": 3525, "annotation": {"number": 64, "value": 0}, "group": "control_change"}, {"time": 3540, "annotation": {"number": 64, "value": 127}, "group": "control_change"}, {"time": 3547, "annotation": {"number": 64, "value": 0}, "group": "control_change"}, {"time": 3563, "annotation": {"number": 64, "value": 127}, "group": "control_change"}, {"time": 3573, "annotation": {"number": 64, "value": 0}, "group": "control_change"}, {"time": 3605, "annotation": {"number": 64, "value": 127}, "group": "control_change"}, {"time": 3621, "annotation": {"number": 64, "value": 0}, "group": "control_change"}, {"time": 3631, "annotation": {"number": 64, "value": 127}, "group": "control_change"}, {"time": 3646, "annotation": {"number": 64, "value": 0}, "group": "control_change"}, {"time": 3654, "annotation": {"number": 64, "value": 127}, "group": "control_change"}, {"time": 3668, "annotation": {"number": 64, "value": 0}, "group": "control_change"}, {"time": 3682, "annotation": {"number": 64, "value": 127}, "group": "control_change"}, {"time": 3691, "annotation": {"number": 64, "value": 0}, "group": "control_change"}, {"time": 3705, "annotation": {"number": 64, "value": 127}, "group": "control_change"}, {"time": 3717, "annotation": {"number": 64, "value": 0}, "group": "control_change"}, {"time": 3732, "annotation": {"number": 64, "value": 127}, "group": "control_change"}, {"time": 3739, "annotation": {"number": 64, "value": 0}, "group": "control_change"}, {"time": 3755, "annotation": {"number": 64, "value": 127}, "group": "control_change"}, {"time": 3765, "annotation": {"number": 64, "value": 0}, "group": "control_change"}, {"time": 3797, "annotation": {"number": 64, "value": 127}, "group": "control_change"}, {"time": 3813, "annotation": {"number": 64, "value": 0}, "group": "control_change"}, {"time": 3824, "annotation": {"number": 64, "value": 127}, "group": "control_change"}, {"time": 3859, "annotation": {"number": 64, "value": 0}, "group": "control_change"}, {"time": 3874, "annotation": {"number": 64, "value": 127}, "group": "control_change"}, {"time": 3883, "annotation": {"number": 64, "value": 0}, "group": "control_change"}, {"time": 3897, "annotation": {"number": 64, "value": 127}, "group": "control_change"}, {"time": 3909, "annotation": {"number": 64, "value": 0}, "group": "control_change"}, {"time": 3924, "annotation": {"number": 64, "value": 127}, "group": "control_change"}, {"time": 3931, "annotation": {"number": 64, "value": 0}, "group": "control_change"}, {"time": 3947, "annotation": {"number": 64, "value": 127}, "group": "control_change"}, {"time": 3957, "annotation": {"number": 64, "value": 0}, "group": "control_change"}, {"time": 3989, "annotation": {"number": 64, "value": 127}, "group": "control_change"}, {"time": 4005, "annotation": {"number": 64, "value": 0}, "group": "control_change"}, {"time": 4015, "annotation": {"number": 64, "value": 127}, "group": "control_change"}, {"time": 4030, "annotation": {"number": 64, "value": 0}, "group": "control_change"}, {"time": 4038, "annotation": {"number": 64, "value": 127}, "group": "control_change"}, {"time": 4052, "annotation": {"number": 64, "value": 0}, "group": "control_change"}, {"time": 4066, "annotation": {"number": 64, "value": 127}, "group": "control_change"}, {"time": 4075, "annotation": {"number": 64, "value": 0}, "group": "control_change"}, {"time": 4089, "annotation": {"number": 64, "value": 127}, "group": "control_change"}, {"time": 4101, "annotation": {"number": 64, "value": 0}, "group": "control_change"}, {"time": 4116, "annotation": {"number": 64, "value": 127}, "group": "control_change"}, {"time": 4123, "annotation": {"number": 64, "value": 0}, "group": "control_change"}, {"time": 4139, "annotation": {"number": 64, "value": 127}, "group": "control_change"}, {"time": 4149, "annotation": {"number": 64, "value": 0}, "group": "control_change"}, {"time": 4181, "annotation": {"number": 64, "value": 127}, "group": "control_change"}, {"time": 4197, "annotation": {"number": 64, "value": 0}, "group": "control_change"}, {"time": 4208, "annotation": {"number": 64, "value": 127}, "group": "control_change"}, {"time": 4243, "annotation": {"number": 64, "value": 0}, "group": "control_change"}, {"time": 4527, "annotation": {"number": 64, "value": 127}, "group": "control_change"}, {"time": 4532, "annotation": {"number": 64, "value": 0}, "group": "control_change"}]}]}