{"metadata": {"schema_version": "0.2", "title": "None", "source_filename": "022.mid", "source_format": "midi"}, "resolution": 12, "tempos": [{"time": 0, "qpm": 69.99998833333528}, {"time": 1211, "qpm": 69.00009660013524}, {"time": 1247, "qpm": 69.99998833333528}, {"time": 1500, "qpm": 69.00009660013524}, {"time": 1560, "qpm": 69.99998833333528}, {"time": 3373, "qpm": 68.0000725334107}, {"time": 3383, "qpm": 64.99999458333379}, {"time": 3395, "qpm": 61.99999586666694}, {"time": 3407, "qpm": 59.00006686674245}], "key_signatures": [{"time": 0, "root": 0, "mode": "major"}], "time_signatures": [{"time": 0, "numerator": 4, "denominator": 4}, {"time": 0, "numerator": 1, "denominator": 4}], "tracks": [{"program": 0, "is_drum": false, "name": "MELODY", "notes": [{"time": 497, "pitch": 74, "duration": 3, "velocity": 112}, {"time": 500, "pitch": 74, "duration": 3, "velocity": 106}, {"time": 503, "pitch": 74, "duration": 6, "velocity": 112}, {"time": 509, "pitch": 72, "duration": 3, "velocity": 106}, {"time": 512, "pitch": 70, "duration": 3, "velocity": 120}, {"time": 515, "pitch": 77, "duration": 3, "velocity": 118}, {"time": 518, "pitch": 74, "duration": 12, "velocity": 106}, {"time": 530, "pitch": 74, "duration": 3, "velocity": 112}, {"time": 533, "pitch": 72, "duration": 3, "velocity": 112}, {"time": 536, "pitch": 70, "duration": 3, "velocity": 120}, {"time": 539, "pitch": 72, "duration": 3, "velocity": 112}, {"time": 542, "pitch": 74, "duration": 3, "velocity": 109}, {"time": 545, "pitch": 74, "duration": 3, "velocity": 112}, {"time": 548, "pitch": 74, "duration": 9, "velocity": 115}, {"time": 557, "pitch": 74, "duration": 6, "velocity": 115}, {"time": 563, "pitch": 72, "duration": 6, "velocity": 112}, {"time": 569, "pitch": 70, "duration": 27, "velocity": 117}, {"time": 596, "pitch": 67, "duration": 3, "velocity": 115}, {"time": 599, "pitch": 70, "duration": 6, "velocity": 120}, {"time": 605, "pitch": 67, "duration": 3, "velocity": 115}, {"time": 608, "pitch": 77, "duration": 9, "velocity": 115}, {"time": 617, "pitch": 75, "duration": 3, "velocity": 120}, {"time": 620, "pitch": 74, "duration": 6, "velocity": 118}, {"time": 626, "pitch": 72, "duration": 3, "velocity": 109}, {"time": 629, "pitch": 70, "duration": 6, "velocity": 117}, {"time": 635, "pitch": 74, "duration": 6, "velocity": 115}, {"time": 641, "pitch": 72, "duration": 6, "velocity": 109}, {"time": 647, "pitch": 72, "duration": 42, "velocity": 106}, {"time": 689, "pitch": 74, "duration": 3, "velocity": 112}, {"time": 692, "pitch": 74, "duration": 3, "velocity": 106}, {"time": 695, "pitch": 74, "duration": 6, "velocity": 112}, {"time": 701, "pitch": 72, "duration": 3, "velocity": 106}, {"time": 704, "pitch": 70, "duration": 3, "velocity": 120}, {"time": 707, "pitch": 77, "duration": 3, "velocity": 118}, {"time": 710, "pitch": 74, "duration": 12, "velocity": 106}, {"time": 722, "pitch": 74, "duration": 3, "velocity": 112}, {"time": 725, "pitch": 72, "duration": 3, "velocity": 112}, {"time": 728, "pitch": 70, "duration": 3, "velocity": 120}, {"time": 731, "pitch": 72, "duration": 3, "velocity": 112}, {"time": 734, "pitch": 74, "duration": 3, "velocity": 109}, {"time": 737, "pitch": 74, "duration": 3, "velocity": 112}, {"time": 740, "pitch": 74, "duration": 9, "velocity": 115}, {"time": 749, "pitch": 74, "duration": 6, "velocity": 115}, {"time": 755, "pitch": 72, "duration": 6, "velocity": 112}, {"time": 761, "pitch": 70, "duration": 27, "velocity": 117}, {"time": 788, "pitch": 67, "duration": 3, "velocity": 115}, {"time": 791, "pitch": 70, "duration": 6, "velocity": 120}, {"time": 797, "pitch": 67, "duration": 3, "velocity": 115}, {"time": 800, "pitch": 77, "duration": 9, "velocity": 115}, {"time": 809, "pitch": 75, "duration": 3, "velocity": 120}, {"time": 812, "pitch": 74, "duration": 6, "velocity": 118}, {"time": 818, "pitch": 72, "duration": 3, "velocity": 109}, {"time": 821, "pitch": 70, "duration": 6, "velocity": 117}, {"time": 827, "pitch": 74, "duration": 6, "velocity": 115}, {"time": 833, "pitch": 72, "duration": 6, "velocity": 109}, {"time": 839, "pitch": 72, "duration": 27, "velocity": 106}, {"time": 866, "pitch": 70, "duration": 3, "velocity": 117}, {"time": 869, "pitch": 70, "duration": 3, "velocity": 113}, {"time": 872, "pitch": 72, "duration": 3, "velocity": 112}, {"time": 875, "pitch": 72, "duration": 3, "velocity": 104}, {"time": 878, "pitch": 74, "duration": 6, "velocity": 118}, {"time": 884, "pitch": 74, "duration": 3, "velocity": 115}, {"time": 887, "pitch": 72, "duration": 3, "velocity": 109}, {"time": 890, "pitch": 74, "duration": 6, "velocity": 115}, {"time": 896, "pitch": 72, "duration": 3, "velocity": 99}, {"time": 899, "pitch": 74, "duration": 15, "velocity": 115}, {"time": 914, "pitch": 72, "duration": 3, "velocity": 106}, {"time": 917, "pitch": 72, "duration": 3, "velocity": 112}, {"time": 920, "pitch": 70, "duration": 3, "velocity": 117}, {"time": 923, "pitch": 74, "duration": 3, "velocity": 115}, {"time": 926, "pitch": 77, "duration": 6, "velocity": 115}, {"time": 932, "pitch": 77, "duration": 3, "velocity": 118}, {"time": 935, "pitch": 79, "duration": 6, "velocity": 112}, {"time": 941, "pitch": 74, "duration": 3, "velocity": 112}, {"time": 944, "pitch": 74, "duration": 3, "velocity": 112}, {"time": 947, "pitch": 72, "duration": 3, "velocity": 109}, {"time": 950, "pitch": 74, "duration": 18, "velocity": 112}, {"time": 968, "pitch": 65, "duration": 3, "velocity": 109}, {"time": 971, "pitch": 70, "duration": 6, "velocity": 117}, {"time": 977, "pitch": 70, "duration": 6, "velocity": 120}, {"time": 983, "pitch": 70, "duration": 3, "velocity": 117}, {"time": 986, "pitch": 70, "duration": 6, "velocity": 117}, {"time": 992, "pitch": 70, "duration": 3, "velocity": 117}, {"time": 995, "pitch": 72, "duration": 6, "velocity": 104}, {"time": 1001, "pitch": 72, "duration": 6, "velocity": 109}, {"time": 1007, "pitch": 72, "duration": 6, "velocity": 99}, {"time": 1013, "pitch": 70, "duration": 3, "velocity": 106}, {"time": 1016, "pitch": 74, "duration": 42, "velocity": 104}, {"time": 1058, "pitch": 70, "duration": 3, "velocity": 117}, {"time": 1061, "pitch": 70, "duration": 3, "velocity": 113}, {"time": 1064, "pitch": 72, "duration": 3, "velocity": 112}, {"time": 1067, "pitch": 72, "duration": 3, "velocity": 104}, {"time": 1070, "pitch": 74, "duration": 6, "velocity": 118}, {"time": 1076, "pitch": 74, "duration": 3, "velocity": 115}, {"time": 1079, "pitch": 72, "duration": 3, "velocity": 109}, {"time": 1082, "pitch": 74, "duration": 6, "velocity": 115}, {"time": 1088, "pitch": 72, "duration": 3, "velocity": 99}, {"time": 1091, "pitch": 74, "duration": 15, "velocity": 115}, {"time": 1106, "pitch": 72, "duration": 3, "velocity": 106}, {"time": 1109, "pitch": 72, "duration": 3, "velocity": 112}, {"time": 1112, "pitch": 70, "duration": 3, "velocity": 117}, {"time": 1115, "pitch": 74, "duration": 3, "velocity": 115}, {"time": 1118, "pitch": 77, "duration": 6, "velocity": 115}, {"time": 1124, "pitch": 77, "duration": 3, "velocity": 118}, {"time": 1127, "pitch": 79, "duration": 6, "velocity": 112}, {"time": 1133, "pitch": 74, "duration": 3, "velocity": 112}, {"time": 1136, "pitch": 74, "duration": 3, "velocity": 112}, {"time": 1139, "pitch": 72, "duration": 3, "velocity": 109}, {"time": 1142, "pitch": 70, "duration": 18, "velocity": 112}, {"time": 1160, "pitch": 65, "duration": 3, "velocity": 115}, {"time": 1163, "pitch": 67, "duration": 3, "velocity": 112}, {"time": 1166, "pitch": 70, "duration": 3, "velocity": 120}, {"time": 1169, "pitch": 70, "duration": 3, "velocity": 120}, {"time": 1172, "pitch": 70, "duration": 3, "velocity": 113}, {"time": 1175, "pitch": 70, "duration": 3, "velocity": 120}, {"time": 1178, "pitch": 72, "duration": 7, "velocity": 112}, {"time": 1185, "pitch": 70, "duration": 8, "velocity": 113}, {"time": 1193, "pitch": 74, "duration": 6, "velocity": 109}, {"time": 1199, "pitch": 72, "duration": 4, "velocity": 112}, {"time": 1202, "pitch": 70, "duration": 6, "velocity": 107}, {"time": 1208, "pitch": 70, "duration": 3, "velocity": 114}, {"time": 1211, "pitch": 70, "duration": 27, "velocity": 117}, {"time": 1238, "pitch": 77, "duration": 21, "velocity": 115}, {"time": 1259, "pitch": 77, "duration": 6, "velocity": 118}, {"time": 1265, "pitch": 70, "duration": 3, "velocity": 120}, {"time": 1268, "pitch": 70, "duration": 3, "velocity": 117}, {"time": 1271, "pitch": 70, "duration": 3, "velocity": 120}, {"time": 1274, "pitch": 77, "duration": 9, "velocity": 115}, {"time": 1283, "pitch": 74, "duration": 21, "velocity": 115}, {"time": 1304, "pitch": 72, "duration": 3, "velocity": 106}, {"time": 1307, "pitch": 70, "duration": 6, "velocity": 120}, {"time": 1313, "pitch": 70, "duration": 3, "velocity": 113}, {"time": 1316, "pitch": 70, "duration": 3, "velocity": 113}, {"time": 1319, "pitch": 70, "duration": 6, "velocity": 117}, {"time": 1325, "pitch": 72, "duration": 6, "velocity": 115}, {"time": 1331, "pitch": 74, "duration": 24, "velocity": 112}, {"time": 1355, "pitch": 67, "duration": 3, "velocity": 112}, {"time": 1358, "pitch": 70, "duration": 9, "velocity": 120}, {"time": 1367, "pitch": 70, "duration": 6, "velocity": 123}, {"time": 1373, "pitch": 67, "duration": 6, "velocity": 118}, {"time": 1379, "pitch": 79, "duration": 6, "velocity": 115}, {"time": 1385, "pitch": 77, "duration": 3, "velocity": 115}, {"time": 1388, "pitch": 77, "duration": 12, "velocity": 115}, {"time": 1400, "pitch": 65, "duration": 3, "velocity": 109}, {"time": 1403, "pitch": 70, "duration": 6, "velocity": 120}, {"time": 1409, "pitch": 70, "duration": 6, "velocity": 120}, {"time": 1415, "pitch": 70, "duration": 3, "velocity": 120}, {"time": 1418, "pitch": 77, "duration": 9, "velocity": 118}, {"time": 1427, "pitch": 74, "duration": 24, "velocity": 112}, {"time": 1451, "pitch": 74, "duration": 6, "velocity": 118}, {"time": 1457, "pitch": 74, "duration": 3, "velocity": 115}, {"time": 1460, "pitch": 74, "duration": 3, "velocity": 118}, {"time": 1463, "pitch": 74, "duration": 6, "velocity": 118}, {"time": 1469, "pitch": 77, "duration": 3, "velocity": 121}, {"time": 1472, "pitch": 79, "duration": 3, "velocity": 115}, {"time": 1475, "pitch": 81, "duration": 6, "velocity": 118}, {"time": 1481, "pitch": 79, "duration": 3, "velocity": 109}, {"time": 1484, "pitch": 77, "duration": 15, "velocity": 118}, {"time": 1499, "pitch": 70, "duration": 6, "velocity": 120}, {"time": 1505, "pitch": 70, "duration": 3, "velocity": 117}, {"time": 1508, "pitch": 70, "duration": 3, "velocity": 113}, {"time": 1511, "pitch": 70, "duration": 3, "velocity": 120}, {"time": 1514, "pitch": 77, "duration": 9, "velocity": 115}, {"time": 1523, "pitch": 74, "duration": 24, "velocity": 112}, {"time": 1547, "pitch": 67, "duration": 3, "velocity": 112}, {"time": 1550, "pitch": 70, "duration": 9, "velocity": 120}, {"time": 1559, "pitch": 70, "duration": 6, "velocity": 123}, {"time": 1565, "pitch": 67, "duration": 6, "velocity": 115}, {"time": 1571, "pitch": 79, "duration": 6, "velocity": 115}, {"time": 1577, "pitch": 77, "duration": 3, "velocity": 115}, {"time": 1580, "pitch": 77, "duration": 12, "velocity": 115}, {"time": 1592, "pitch": 65, "duration": 3, "velocity": 106}, {"time": 1595, "pitch": 70, "duration": 6, "velocity": 120}, {"time": 1601, "pitch": 70, "duration": 30, "velocity": 120}, {"time": 1631, "pitch": 74, "duration": 3, "velocity": 115}, {"time": 1634, "pitch": 72, "duration": 6, "velocity": 112}, {"time": 1640, "pitch": 70, "duration": 3, "velocity": 120}, {"time": 1643, "pitch": 70, "duration": 49, "velocity": 123}, {"time": 2018, "pitch": 70, "duration": 3, "velocity": 117}, {"time": 2021, "pitch": 70, "duration": 3, "velocity": 113}, {"time": 2024, "pitch": 72, "duration": 3, "velocity": 112}, {"time": 2027, "pitch": 72, "duration": 3, "velocity": 104}, {"time": 2030, "pitch": 74, "duration": 6, "velocity": 118}, {"time": 2036, "pitch": 74, "duration": 3, "velocity": 115}, {"time": 2039, "pitch": 72, "duration": 3, "velocity": 109}, {"time": 2042, "pitch": 74, "duration": 6, "velocity": 115}, {"time": 2048, "pitch": 72, "duration": 3, "velocity": 99}, {"time": 2051, "pitch": 74, "duration": 15, "velocity": 115}, {"time": 2066, "pitch": 72, "duration": 3, "velocity": 106}, {"time": 2069, "pitch": 72, "duration": 3, "velocity": 112}, {"time": 2072, "pitch": 70, "duration": 3, "velocity": 117}, {"time": 2075, "pitch": 74, "duration": 3, "velocity": 115}, {"time": 2078, "pitch": 77, "duration": 6, "velocity": 115}, {"time": 2084, "pitch": 77, "duration": 3, "velocity": 118}, {"time": 2087, "pitch": 79, "duration": 6, "velocity": 112}, {"time": 2093, "pitch": 74, "duration": 3, "velocity": 112}, {"time": 2096, "pitch": 74, "duration": 3, "velocity": 112}, {"time": 2099, "pitch": 72, "duration": 3, "velocity": 109}, {"time": 2102, "pitch": 74, "duration": 18, "velocity": 112}, {"time": 2120, "pitch": 65, "duration": 3, "velocity": 109}, {"time": 2123, "pitch": 70, "duration": 6, "velocity": 117}, {"time": 2129, "pitch": 70, "duration": 6, "velocity": 120}, {"time": 2135, "pitch": 70, "duration": 3, "velocity": 117}, {"time": 2138, "pitch": 70, "duration": 6, "velocity": 117}, {"time": 2144, "pitch": 70, "duration": 3, "velocity": 117}, {"time": 2147, "pitch": 72, "duration": 6, "velocity": 104}, {"time": 2153, "pitch": 72, "duration": 6, "velocity": 109}, {"time": 2159, "pitch": 72, "duration": 6, "velocity": 99}, {"time": 2165, "pitch": 70, "duration": 3, "velocity": 106}, {"time": 2168, "pitch": 74, "duration": 42, "velocity": 104}, {"time": 2210, "pitch": 70, "duration": 3, "velocity": 117}, {"time": 2213, "pitch": 70, "duration": 3, "velocity": 113}, {"time": 2216, "pitch": 72, "duration": 3, "velocity": 112}, {"time": 2219, "pitch": 72, "duration": 3, "velocity": 104}, {"time": 2222, "pitch": 74, "duration": 6, "velocity": 118}, {"time": 2228, "pitch": 74, "duration": 3, "velocity": 115}, {"time": 2231, "pitch": 72, "duration": 3, "velocity": 109}, {"time": 2234, "pitch": 74, "duration": 6, "velocity": 115}, {"time": 2240, "pitch": 72, "duration": 3, "velocity": 99}, {"time": 2243, "pitch": 74, "duration": 15, "velocity": 115}, {"time": 2258, "pitch": 72, "duration": 3, "velocity": 106}, {"time": 2261, "pitch": 72, "duration": 3, "velocity": 112}, {"time": 2264, "pitch": 70, "duration": 3, "velocity": 117}, {"time": 2267, "pitch": 74, "duration": 3, "velocity": 115}, {"time": 2270, "pitch": 77, "duration": 6, "velocity": 115}, {"time": 2276, "pitch": 77, "duration": 3, "velocity": 118}, {"time": 2279, "pitch": 79, "duration": 6, "velocity": 112}, {"time": 2285, "pitch": 74, "duration": 3, "velocity": 112}, {"time": 2288, "pitch": 74, "duration": 3, "velocity": 112}, {"time": 2291, "pitch": 72, "duration": 3, "velocity": 109}, {"time": 2294, "pitch": 70, "duration": 18, "velocity": 112}, {"time": 2312, "pitch": 65, "duration": 3, "velocity": 115}, {"time": 2315, "pitch": 67, "duration": 3, "velocity": 112}, {"time": 2318, "pitch": 70, "duration": 3, "velocity": 120}, {"time": 2321, "pitch": 70, "duration": 3, "velocity": 120}, {"time": 2324, "pitch": 70, "duration": 3, "velocity": 113}, {"time": 2327, "pitch": 70, "duration": 3, "velocity": 120}, {"time": 2330, "pitch": 72, "duration": 9, "velocity": 112}, {"time": 2339, "pitch": 70, "duration": 6, "velocity": 113}, {"time": 2345, "pitch": 74, "duration": 6, "velocity": 109}, {"time": 2351, "pitch": 72, "duration": 4, "velocity": 112}, {"time": 2354, "pitch": 70, "duration": 6, "velocity": 107}, {"time": 2360, "pitch": 70, "duration": 3, "velocity": 114}, {"time": 2363, "pitch": 70, "duration": 27, "velocity": 117}, {"time": 2390, "pitch": 77, "duration": 21, "velocity": 115}, {"time": 2411, "pitch": 77, "duration": 6, "velocity": 118}, {"time": 2417, "pitch": 70, "duration": 3, "velocity": 120}, {"time": 2420, "pitch": 70, "duration": 3, "velocity": 117}, {"time": 2423, "pitch": 70, "duration": 3, "velocity": 120}, {"time": 2426, "pitch": 77, "duration": 9, "velocity": 115}, {"time": 2435, "pitch": 74, "duration": 21, "velocity": 115}, {"time": 2456, "pitch": 72, "duration": 3, "velocity": 106}, {"time": 2459, "pitch": 70, "duration": 6, "velocity": 120}, {"time": 2465, "pitch": 70, "duration": 3, "velocity": 113}, {"time": 2468, "pitch": 70, "duration": 3, "velocity": 113}, {"time": 2471, "pitch": 70, "duration": 6, "velocity": 117}, {"time": 2477, "pitch": 72, "duration": 6, "velocity": 115}, {"time": 2483, "pitch": 74, "duration": 24, "velocity": 112}, {"time": 2507, "pitch": 67, "duration": 3, "velocity": 112}, {"time": 2510, "pitch": 70, "duration": 9, "velocity": 120}, {"time": 2519, "pitch": 70, "duration": 6, "velocity": 123}, {"time": 2525, "pitch": 67, "duration": 6, "velocity": 118}, {"time": 2531, "pitch": 79, "duration": 6, "velocity": 115}, {"time": 2537, "pitch": 77, "duration": 3, "velocity": 115}, {"time": 2540, "pitch": 77, "duration": 12, "velocity": 115}, {"time": 2552, "pitch": 65, "duration": 3, "velocity": 109}, {"time": 2555, "pitch": 70, "duration": 6, "velocity": 120}, {"time": 2561, "pitch": 70, "duration": 6, "velocity": 120}, {"time": 2567, "pitch": 70, "duration": 3, "velocity": 120}, {"time": 2570, "pitch": 77, "duration": 9, "velocity": 118}, {"time": 2579, "pitch": 74, "duration": 24, "velocity": 112}, {"time": 2603, "pitch": 74, "duration": 6, "velocity": 118}, {"time": 2609, "pitch": 74, "duration": 3, "velocity": 115}, {"time": 2612, "pitch": 74, "duration": 3, "velocity": 118}, {"time": 2615, "pitch": 74, "duration": 6, "velocity": 118}, {"time": 2621, "pitch": 77, "duration": 3, "velocity": 121}, {"time": 2624, "pitch": 79, "duration": 3, "velocity": 115}, {"time": 2627, "pitch": 81, "duration": 6, "velocity": 118}, {"time": 2633, "pitch": 79, "duration": 3, "velocity": 109}, {"time": 2636, "pitch": 77, "duration": 15, "velocity": 118}, {"time": 2651, "pitch": 70, "duration": 6, "velocity": 120}, {"time": 2657, "pitch": 70, "duration": 3, "velocity": 117}, {"time": 2660, "pitch": 70, "duration": 3, "velocity": 113}, {"time": 2663, "pitch": 70, "duration": 3, "velocity": 120}, {"time": 2666, "pitch": 77, "duration": 9, "velocity": 115}, {"time": 2675, "pitch": 74, "duration": 24, "velocity": 112}, {"time": 2699, "pitch": 67, "duration": 3, "velocity": 112}, {"time": 2702, "pitch": 70, "duration": 9, "velocity": 120}, {"time": 2711, "pitch": 70, "duration": 6, "velocity": 123}, {"time": 2717, "pitch": 67, "duration": 6, "velocity": 115}, {"time": 2723, "pitch": 79, "duration": 6, "velocity": 115}, {"time": 2729, "pitch": 77, "duration": 3, "velocity": 115}, {"time": 2732, "pitch": 77, "duration": 12, "velocity": 115}, {"time": 2744, "pitch": 65, "duration": 3, "velocity": 106}, {"time": 2747, "pitch": 70, "duration": 6, "velocity": 120}, {"time": 2753, "pitch": 70, "duration": 30, "velocity": 120}, {"time": 2783, "pitch": 74, "duration": 3, "velocity": 115}, {"time": 2786, "pitch": 72, "duration": 6, "velocity": 112}, {"time": 2792, "pitch": 70, "duration": 3, "velocity": 120}, {"time": 2795, "pitch": 70, "duration": 48, "velocity": 123}, {"time": 2843, "pitch": 77, "duration": 6, "velocity": 118}, {"time": 2849, "pitch": 70, "duration": 3, "velocity": 120}, {"time": 2852, "pitch": 70, "duration": 3, "velocity": 117}, {"time": 2855, "pitch": 70, "duration": 3, "velocity": 120}, {"time": 2858, "pitch": 77, "duration": 9, "velocity": 115}, {"time": 2867, "pitch": 74, "duration": 21, "velocity": 115}, {"time": 2888, "pitch": 72, "duration": 3, "velocity": 106}, {"time": 2891, "pitch": 70, "duration": 6, "velocity": 120}, {"time": 2897, "pitch": 70, "duration": 3, "velocity": 113}, {"time": 2900, "pitch": 70, "duration": 3, "velocity": 113}, {"time": 2903, "pitch": 70, "duration": 6, "velocity": 117}, {"time": 2909, "pitch": 72, "duration": 6, "velocity": 115}, {"time": 2915, "pitch": 74, "duration": 24, "velocity": 112}, {"time": 2939, "pitch": 67, "duration": 3, "velocity": 112}, {"time": 2942, "pitch": 70, "duration": 9, "velocity": 120}, {"time": 2951, "pitch": 70, "duration": 6, "velocity": 123}, {"time": 2957, "pitch": 67, "duration": 6, "velocity": 118}, {"time": 2963, "pitch": 79, "duration": 6, "velocity": 115}, {"time": 2969, "pitch": 77, "duration": 3, "velocity": 115}, {"time": 2972, "pitch": 77, "duration": 12, "velocity": 115}, {"time": 2984, "pitch": 65, "duration": 3, "velocity": 109}, {"time": 2987, "pitch": 70, "duration": 6, "velocity": 120}, {"time": 2993, "pitch": 70, "duration": 6, "velocity": 120}, {"time": 2999, "pitch": 70, "duration": 3, "velocity": 120}, {"time": 3002, "pitch": 77, "duration": 9, "velocity": 118}, {"time": 3011, "pitch": 74, "duration": 24, "velocity": 112}, {"time": 3035, "pitch": 74, "duration": 6, "velocity": 118}, {"time": 3041, "pitch": 74, "duration": 3, "velocity": 115}, {"time": 3044, "pitch": 74, "duration": 3, "velocity": 118}, {"time": 3047, "pitch": 74, "duration": 6, "velocity": 118}, {"time": 3053, "pitch": 77, "duration": 3, "velocity": 121}, {"time": 3056, "pitch": 79, "duration": 3, "velocity": 115}, {"time": 3059, "pitch": 81, "duration": 6, "velocity": 118}, {"time": 3065, "pitch": 79, "duration": 3, "velocity": 109}, {"time": 3068, "pitch": 77, "duration": 15, "velocity": 118}, {"time": 3083, "pitch": 70, "duration": 6, "velocity": 120}, {"time": 3089, "pitch": 70, "duration": 3, "velocity": 117}, {"time": 3092, "pitch": 70, "duration": 3, "velocity": 113}, {"time": 3095, "pitch": 70, "duration": 3, "velocity": 120}, {"time": 3098, "pitch": 77, "duration": 9, "velocity": 115}, {"time": 3107, "pitch": 74, "duration": 24, "velocity": 112}, {"time": 3131, "pitch": 67, "duration": 3, "velocity": 112}, {"time": 3134, "pitch": 70, "duration": 9, "velocity": 120}, {"time": 3143, "pitch": 70, "duration": 6, "velocity": 123}, {"time": 3149, "pitch": 67, "duration": 6, "velocity": 115}, {"time": 3155, "pitch": 79, "duration": 6, "velocity": 115}, {"time": 3161, "pitch": 77, "duration": 3, "velocity": 115}, {"time": 3164, "pitch": 77, "duration": 12, "velocity": 115}, {"time": 3176, "pitch": 65, "duration": 3, "velocity": 106}, {"time": 3179, "pitch": 70, "duration": 6, "velocity": 120}, {"time": 3185, "pitch": 70, "duration": 30, "velocity": 120}, {"time": 3215, "pitch": 74, "duration": 3, "velocity": 115}, {"time": 3218, "pitch": 72, "duration": 6, "velocity": 112}, {"time": 3224, "pitch": 70, "duration": 3, "velocity": 120}, {"time": 3227, "pitch": 70, "duration": 49, "velocity": 123}]}, {"program": 0, "is_drum": false, "name": "BRIDGE", "notes": [{"time": 107, "pitch": 77, "duration": 42, "velocity": 121}, {"time": 149, "pitch": 82, "duration": 3, "velocity": 123}, {"time": 152, "pitch": 75, "duration": 42, "velocity": 120}, {"time": 194, "pitch": 74, "duration": 3, "velocity": 118}, {"time": 197, "pitch": 75, "duration": 4, "velocity": 120}, {"time": 200, "pitch": 77, "duration": 45, "velocity": 118}, {"time": 245, "pitch": 82, "duration": 3, "velocity": 123}, {"time": 248, "pitch": 75, "duration": 51, "velocity": 120}, {"time": 299, "pitch": 77, "duration": 42, "velocity": 121}, {"time": 341, "pitch": 82, "duration": 3, "velocity": 123}, {"time": 344, "pitch": 75, "duration": 45, "velocity": 120}, {"time": 389, "pitch": 75, "duration": 3, "velocity": 123}, {"time": 392, "pitch": 74, "duration": 3, "velocity": 115}, {"time": 395, "pitch": 72, "duration": 18, "velocity": 118}, {"time": 413, "pitch": 77, "duration": 3, "velocity": 121}, {"time": 416, "pitch": 75, "duration": 21, "velocity": 120}, {"time": 437, "pitch": 74, "duration": 3, "velocity": 115}, {"time": 440, "pitch": 70, "duration": 15, "velocity": 117}, {"time": 455, "pitch": 70, "duration": 12, "velocity": 93}, {"time": 455, "pitch": 75, "duration": 12, "velocity": 72}, {"time": 467, "pitch": 70, "duration": 25, "velocity": 101}, {"time": 467, "pitch": 74, "duration": 25, "velocity": 94}, {"time": 1535, "pitch": 84, "duration": 4, "velocity": 112}, {"time": 1538, "pitch": 82, "duration": 4, "velocity": 120}, {"time": 1541, "pitch": 81, "duration": 4, "velocity": 96}, {"time": 1544, "pitch": 82, "duration": 25, "velocity": 113}, {"time": 1547, "pitch": 79, "duration": 96, "velocity": 78}, {"time": 1643, "pitch": 77, "duration": 42, "velocity": 121}, {"time": 1685, "pitch": 82, "duration": 3, "velocity": 123}, {"time": 1688, "pitch": 75, "duration": 42, "velocity": 120}, {"time": 1730, "pitch": 74, "duration": 3, "velocity": 118}, {"time": 1733, "pitch": 75, "duration": 4, "velocity": 120}, {"time": 1736, "pitch": 77, "duration": 45, "velocity": 118}, {"time": 1781, "pitch": 82, "duration": 3, "velocity": 123}, {"time": 1784, "pitch": 75, "duration": 21, "velocity": 120}, {"time": 1805, "pitch": 74, "duration": 3, "velocity": 118}, {"time": 1808, "pitch": 72, "duration": 12, "velocity": 112}, {"time": 1820, "pitch": 70, "duration": 3, "velocity": 113}, {"time": 1823, "pitch": 69, "duration": 18, "velocity": 112}, {"time": 1841, "pitch": 74, "duration": 5, "velocity": 118}, {"time": 1841, "pitch": 86, "duration": 6, "velocity": 118}, {"time": 1847, "pitch": 79, "duration": 5, "velocity": 118}, {"time": 1847, "pitch": 91, "duration": 6, "velocity": 118}, {"time": 1853, "pitch": 81, "duration": 6, "velocity": 121}, {"time": 1853, "pitch": 93, "duration": 6, "velocity": 121}, {"time": 1859, "pitch": 82, "duration": 16, "velocity": 120}, {"time": 1859, "pitch": 94, "duration": 18, "velocity": 120}, {"time": 1877, "pitch": 84, "duration": 5, "velocity": 121}, {"time": 1877, "pitch": 96, "duration": 6, "velocity": 121}, {"time": 1883, "pitch": 81, "duration": 16, "velocity": 115}, {"time": 1883, "pitch": 93, "duration": 18, "velocity": 115}, {"time": 1901, "pitch": 82, "duration": 5, "velocity": 123}, {"time": 1901, "pitch": 94, "duration": 6, "velocity": 123}, {"time": 1907, "pitch": 74, "duration": 25, "velocity": 121}, {"time": 1907, "pitch": 86, "duration": 30, "velocity": 121}, {"time": 1937, "pitch": 70, "duration": 5, "velocity": 120}, {"time": 1937, "pitch": 82, "duration": 6, "velocity": 120}, {"time": 1943, "pitch": 75, "duration": 5, "velocity": 123}, {"time": 1943, "pitch": 87, "duration": 6, "velocity": 123}, {"time": 1949, "pitch": 77, "duration": 4, "velocity": 121}, {"time": 1949, "pitch": 89, "duration": 6, "velocity": 121}, {"time": 1955, "pitch": 79, "duration": 17, "velocity": 121}, {"time": 1955, "pitch": 91, "duration": 18, "velocity": 121}, {"time": 1973, "pitch": 81, "duration": 5, "velocity": 121}, {"time": 1973, "pitch": 93, "duration": 6, "velocity": 121}, {"time": 1979, "pitch": 77, "duration": 35, "velocity": 121}, {"time": 1979, "pitch": 89, "duration": 37, "velocity": 121}, {"time": 2687, "pitch": 84, "duration": 4, "velocity": 112}, {"time": 2690, "pitch": 82, "duration": 4, "velocity": 120}, {"time": 2693, "pitch": 81, "duration": 4, "velocity": 96}, {"time": 2696, "pitch": 82, "duration": 25, "velocity": 113}, {"time": 2699, "pitch": 79, "duration": 22, "velocity": 78}, {"time": 2828, "pitch": 77, "duration": 4, "velocity": 96}, {"time": 2831, "pitch": 82, "duration": 4, "velocity": 120}, {"time": 2834, "pitch": 81, "duration": 4, "velocity": 112}, {"time": 2837, "pitch": 77, "duration": 6, "velocity": 112}, {"time": 2876, "pitch": 82, "duration": 3, "velocity": 107}, {"time": 2879, "pitch": 82, "duration": 3, "velocity": 117}, {"time": 2882, "pitch": 81, "duration": 3, "velocity": 109}, {"time": 2885, "pitch": 77, "duration": 3, "velocity": 115}, {"time": 2888, "pitch": 74, "duration": 3, "velocity": 85}, {"time": 2891, "pitch": 79, "duration": 14, "velocity": 109}, {"time": 2933, "pitch": 72, "duration": 3, "velocity": 99}, {"time": 2936, "pitch": 74, "duration": 3, "velocity": 99}, {"time": 2939, "pitch": 70, "duration": 19, "velocity": 117}, {"time": 2972, "pitch": 74, "duration": 3, "velocity": 67}, {"time": 2972, "pitch": 77, "duration": 3, "velocity": 91}, {"time": 2975, "pitch": 74, "duration": 10, "velocity": 109}, {"time": 2975, "pitch": 77, "duration": 10, "velocity": 112}, {"time": 2996, "pitch": 72, "duration": 2, "velocity": 73}, {"time": 2996, "pitch": 75, "duration": 2, "velocity": 70}, {"time": 2999, "pitch": 72, "duration": 7, "velocity": 94}, {"time": 2999, "pitch": 75, "duration": 7, "velocity": 113}, {"time": 3029, "pitch": 72, "duration": 5, "velocity": 112}, {"time": 3035, "pitch": 74, "duration": 18, "velocity": 112}, {"time": 3077, "pitch": 81, "duration": 4, "velocity": 115}, {"time": 3080, "pitch": 79, "duration": 2, "velocity": 99}, {"time": 3083, "pitch": 79, "duration": 12, "velocity": 104}, {"time": 3119, "pitch": 84, "duration": 4, "velocity": 112}, {"time": 3122, "pitch": 82, "duration": 4, "velocity": 120}, {"time": 3125, "pitch": 81, "duration": 4, "velocity": 96}, {"time": 3128, "pitch": 82, "duration": 25, "velocity": 113}, {"time": 3131, "pitch": 79, "duration": 22, "velocity": 78}, {"time": 3227, "pitch": 77, "duration": 38, "velocity": 121}, {"time": 3269, "pitch": 82, "duration": 3, "velocity": 123}, {"time": 3272, "pitch": 75, "duration": 35, "velocity": 120}, {"time": 3314, "pitch": 74, "duration": 3, "velocity": 118}, {"time": 3317, "pitch": 75, "duration": 4, "velocity": 120}, {"time": 3320, "pitch": 77, "duration": 33, "velocity": 118}, {"time": 3365, "pitch": 82, "duration": 2, "velocity": 123}, {"time": 3368, "pitch": 75, "duration": 18, "velocity": 120}, {"time": 3389, "pitch": 74, "duration": 3, "velocity": 118}, {"time": 3392, "pitch": 72, "duration": 11, "velocity": 112}, {"time": 3404, "pitch": 70, "duration": 3, "velocity": 113}, {"time": 3407, "pitch": 69, "duration": 12, "velocity": 112}, {"time": 3420, "pitch": 70, "duration": 16, "velocity": 114}]}, {"program": 0, "is_drum": false, "name": "PIANO", "notes": [{"time": 107, "pitch": 46, "duration": 47, "velocity": 120}, {"time": 107, "pitch": 58, "duration": 4, "velocity": 104}, {"time": 107, "pitch": 62, "duration": 10, "velocity": 109}, {"time": 113, "pitch": 58, "duration": 7, "velocity": 74}, {"time": 119, "pitch": 62, "duration": 10, "velocity": 106}, {"time": 119, "pitch": 65, "duration": 8, "velocity": 109}, {"time": 125, "pitch": 58, "duration": 5, "velocity": 29}, {"time": 131, "pitch": 62, "duration": 7, "velocity": 101}, {"time": 131, "pitch": 65, "duration": 7, "velocity": 99}, {"time": 137, "pitch": 58, "duration": 3, "velocity": 3}, {"time": 143, "pitch": 58, "duration": 2, "velocity": 110}, {"time": 143, "pitch": 62, "duration": 6, "velocity": 112}, {"time": 143, "pitch": 65, "duration": 11, "velocity": 112}, {"time": 149, "pitch": 58, "duration": 4, "velocity": 83}, {"time": 155, "pitch": 46, "duration": 40, "velocity": 110}, {"time": 155, "pitch": 58, "duration": 4, "velocity": 113}, {"time": 155, "pitch": 63, "duration": 11, "velocity": 113}, {"time": 161, "pitch": 58, "duration": 5, "velocity": 66}, {"time": 167, "pitch": 58, "duration": 3, "velocity": 83}, {"time": 167, "pitch": 63, "duration": 11, "velocity": 110}, {"time": 167, "pitch": 65, "duration": 7, "velocity": 106}, {"time": 173, "pitch": 58, "duration": 7, "velocity": 93}, {"time": 179, "pitch": 63, "duration": 11, "velocity": 101}, {"time": 179, "pitch": 67, "duration": 8, "velocity": 112}, {"time": 185, "pitch": 58, "duration": 5, "velocity": 28}, {"time": 191, "pitch": 58, "duration": 4, "velocity": 113}, {"time": 191, "pitch": 63, "duration": 12, "velocity": 113}, {"time": 197, "pitch": 58, "duration": 6, "velocity": 107}, {"time": 203, "pitch": 46, "duration": 47, "velocity": 120}, {"time": 203, "pitch": 58, "duration": 4, "velocity": 104}, {"time": 203, "pitch": 62, "duration": 10, "velocity": 109}, {"time": 209, "pitch": 58, "duration": 7, "velocity": 74}, {"time": 215, "pitch": 62, "duration": 10, "velocity": 106}, {"time": 215, "pitch": 65, "duration": 8, "velocity": 109}, {"time": 221, "pitch": 58, "duration": 5, "velocity": 29}, {"time": 227, "pitch": 62, "duration": 7, "velocity": 101}, {"time": 227, "pitch": 65, "duration": 7, "velocity": 99}, {"time": 233, "pitch": 58, "duration": 3, "velocity": 3}, {"time": 239, "pitch": 58, "duration": 2, "velocity": 110}, {"time": 239, "pitch": 62, "duration": 6, "velocity": 112}, {"time": 239, "pitch": 65, "duration": 11, "velocity": 112}, {"time": 245, "pitch": 58, "duration": 4, "velocity": 83}, {"time": 251, "pitch": 46, "duration": 40, "velocity": 110}, {"time": 251, "pitch": 58, "duration": 4, "velocity": 113}, {"time": 251, "pitch": 63, "duration": 11, "velocity": 113}, {"time": 257, "pitch": 58, "duration": 5, "velocity": 66}, {"time": 263, "pitch": 58, "duration": 3, "velocity": 83}, {"time": 263, "pitch": 63, "duration": 11, "velocity": 110}, {"time": 263, "pitch": 65, "duration": 7, "velocity": 106}, {"time": 269, "pitch": 58, "duration": 7, "velocity": 93}, {"time": 275, "pitch": 63, "duration": 11, "velocity": 101}, {"time": 275, "pitch": 67, "duration": 8, "velocity": 112}, {"time": 281, "pitch": 58, "duration": 5, "velocity": 28}, {"time": 287, "pitch": 58, "duration": 4, "velocity": 113}, {"time": 287, "pitch": 63, "duration": 12, "velocity": 113}, {"time": 293, "pitch": 58, "duration": 6, "velocity": 107}, {"time": 299, "pitch": 46, "duration": 47, "velocity": 120}, {"time": 299, "pitch": 58, "duration": 4, "velocity": 104}, {"time": 299, "pitch": 62, "duration": 10, "velocity": 109}, {"time": 305, "pitch": 58, "duration": 7, "velocity": 74}, {"time": 311, "pitch": 62, "duration": 10, "velocity": 106}, {"time": 311, "pitch": 65, "duration": 8, "velocity": 109}, {"time": 317, "pitch": 58, "duration": 5, "velocity": 29}, {"time": 323, "pitch": 62, "duration": 7, "velocity": 101}, {"time": 323, "pitch": 65, "duration": 7, "velocity": 99}, {"time": 329, "pitch": 58, "duration": 3, "velocity": 3}, {"time": 335, "pitch": 58, "duration": 2, "velocity": 110}, {"time": 335, "pitch": 62, "duration": 6, "velocity": 112}, {"time": 335, "pitch": 65, "duration": 11, "velocity": 112}, {"time": 341, "pitch": 58, "duration": 4, "velocity": 83}, {"time": 347, "pitch": 46, "duration": 40, "velocity": 110}, {"time": 347, "pitch": 58, "duration": 4, "velocity": 113}, {"time": 347, "pitch": 63, "duration": 11, "velocity": 113}, {"time": 353, "pitch": 58, "duration": 5, "velocity": 66}, {"time": 359, "pitch": 58, "duration": 3, "velocity": 83}, {"time": 359, "pitch": 63, "duration": 11, "velocity": 110}, {"time": 359, "pitch": 65, "duration": 7, "velocity": 106}, {"time": 365, "pitch": 58, "duration": 7, "velocity": 93}, {"time": 371, "pitch": 63, "duration": 11, "velocity": 101}, {"time": 371, "pitch": 67, "duration": 8, "velocity": 112}, {"time": 377, "pitch": 58, "duration": 5, "velocity": 28}, {"time": 383, "pitch": 58, "duration": 4, "velocity": 113}, {"time": 383, "pitch": 63, "duration": 12, "velocity": 113}, {"time": 389, "pitch": 58, "duration": 6, "velocity": 107}, {"time": 395, "pitch": 41, "duration": 18, "velocity": 106}, {"time": 395, "pitch": 57, "duration": 13, "velocity": 99}, {"time": 395, "pitch": 60, "duration": 10, "velocity": 99}, {"time": 401, "pitch": 48, "duration": 10, "velocity": 52}, {"time": 407, "pitch": 60, "duration": 5, "velocity": 109}, {"time": 407, "pitch": 65, "duration": 7, "velocity": 112}, {"time": 419, "pitch": 39, "duration": 12, "velocity": 110}, {"time": 419, "pitch": 58, "duration": 8, "velocity": 110}, {"time": 419, "pitch": 63, "duration": 8, "velocity": 96}, {"time": 425, "pitch": 46, "duration": 6, "velocity": 53}, {"time": 425, "pitch": 55, "duration": 4, "velocity": 42}, {"time": 431, "pitch": 58, "duration": 7, "velocity": 120}, {"time": 431, "pitch": 63, "duration": 7, "velocity": 110}, {"time": 443, "pitch": 46, "duration": 23, "velocity": 96}, {"time": 443, "pitch": 53, "duration": 3, "velocity": 104}, {"time": 443, "pitch": 58, "duration": 9, "velocity": 110}, {"time": 443, "pitch": 62, "duration": 8, "velocity": 106}, {"time": 449, "pitch": 53, "duration": 3, "velocity": 91}, {"time": 455, "pitch": 58, "duration": 7, "velocity": 117}, {"time": 455, "pitch": 63, "duration": 8, "velocity": 117}, {"time": 467, "pitch": 46, "duration": 25, "velocity": 88}, {"time": 467, "pitch": 58, "duration": 9, "velocity": 101}, {"time": 467, "pitch": 62, "duration": 8, "velocity": 109}, {"time": 473, "pitch": 53, "duration": 4, "velocity": 58}, {"time": 479, "pitch": 53, "duration": 3, "velocity": 106}, {"time": 479, "pitch": 58, "duration": 12, "velocity": 113}, {"time": 479, "pitch": 62, "duration": 12, "velocity": 109}, {"time": 485, "pitch": 53, "duration": 6, "velocity": 94}, {"time": 491, "pitch": 46, "duration": 1, "velocity": 110}, {"time": 491, "pitch": 58, "duration": 8, "velocity": 110}, {"time": 491, "pitch": 62, "duration": 1, "velocity": 106}, {"time": 497, "pitch": 53, "duration": 4, "velocity": 66}, {"time": 503, "pitch": 58, "duration": 7, "velocity": 120}, {"time": 503, "pitch": 62, "duration": 9, "velocity": 109}, {"time": 509, "pitch": 53, "duration": 8, "velocity": 109}, {"time": 515, "pitch": 45, "duration": 20, "velocity": 104}, {"time": 515, "pitch": 57, "duration": 8, "velocity": 112}, {"time": 515, "pitch": 62, "duration": 6, "velocity": 106}, {"time": 521, "pitch": 53, "duration": 7, "velocity": 91}, {"time": 527, "pitch": 57, "duration": 5, "velocity": 115}, {"time": 527, "pitch": 62, "duration": 8, "velocity": 109}, {"time": 533, "pitch": 53, "duration": 2, "velocity": 89}, {"time": 539, "pitch": 43, "duration": 23, "velocity": 101}, {"time": 539, "pitch": 58, "duration": 6, "velocity": 110}, {"time": 539, "pitch": 62, "duration": 5, "velocity": 106}, {"time": 545, "pitch": 55, "duration": 7, "velocity": 67}, {"time": 551, "pitch": 58, "duration": 7, "velocity": 120}, {"time": 551, "pitch": 62, "duration": 7, "velocity": 109}, {"time": 557, "pitch": 55, "duration": 7, "velocity": 96}, {"time": 563, "pitch": 43, "duration": 24, "velocity": 109}, {"time": 563, "pitch": 58, "duration": 7, "velocity": 117}, {"time": 563, "pitch": 62, "duration": 7, "velocity": 106}, {"time": 569, "pitch": 53, "duration": 7, "velocity": 101}, {"time": 575, "pitch": 58, "duration": 7, "velocity": 120}, {"time": 575, "pitch": 62, "duration": 8, "velocity": 106}, {"time": 587, "pitch": 39, "duration": 39, "velocity": 110}, {"time": 587, "pitch": 55, "duration": 5, "velocity": 106}, {"time": 587, "pitch": 58, "duration": 12, "velocity": 117}, {"time": 593, "pitch": 55, "duration": 7, "velocity": 85}, {"time": 599, "pitch": 58, "duration": 8, "velocity": 123}, {"time": 599, "pitch": 63, "duration": 10, "velocity": 120}, {"time": 605, "pitch": 55, "duration": 8, "velocity": 104}, {"time": 611, "pitch": 58, "duration": 7, "velocity": 93}, {"time": 611, "pitch": 62, "duration": 7, "velocity": 104}, {"time": 617, "pitch": 55, "duration": 4, "velocity": 94}, {"time": 623, "pitch": 55, "duration": 3, "velocity": 104}, {"time": 623, "pitch": 58, "duration": 5, "velocity": 120}, {"time": 623, "pitch": 62, "duration": 7, "velocity": 115}, {"time": 629, "pitch": 55, "duration": 4, "velocity": 59}, {"time": 635, "pitch": 48, "duration": 15, "velocity": 106}, {"time": 635, "pitch": 60, "duration": 8, "velocity": 104}, {"time": 635, "pitch": 63, "duration": 8, "velocity": 104}, {"time": 641, "pitch": 55, "duration": 5, "velocity": 80}, {"time": 647, "pitch": 60, "duration": 7, "velocity": 112}, {"time": 647, "pitch": 63, "duration": 7, "velocity": 120}, {"time": 653, "pitch": 55, "duration": 3, "velocity": 99}, {"time": 659, "pitch": 41, "duration": 17, "velocity": 104}, {"time": 659, "pitch": 53, "duration": 6, "velocity": 99}, {"time": 659, "pitch": 57, "duration": 6, "velocity": 94}, {"time": 659, "pitch": 60, "duration": 6, "velocity": 96}, {"time": 665, "pitch": 48, "duration": 9, "velocity": 66}, {"time": 671, "pitch": 53, "duration": 11, "velocity": 109}, {"time": 671, "pitch": 57, "duration": 12, "velocity": 115}, {"time": 671, "pitch": 60, "duration": 12, "velocity": 106}, {"time": 677, "pitch": 48, "duration": 6, "velocity": 104}, {"time": 683, "pitch": 46, "duration": 25, "velocity": 110}, {"time": 683, "pitch": 58, "duration": 8, "velocity": 110}, {"time": 683, "pitch": 62, "duration": 6, "velocity": 106}, {"time": 689, "pitch": 53, "duration": 4, "velocity": 66}, {"time": 695, "pitch": 58, "duration": 7, "velocity": 120}, {"time": 695, "pitch": 62, "duration": 9, "velocity": 109}, {"time": 701, "pitch": 53, "duration": 8, "velocity": 109}, {"time": 707, "pitch": 45, "duration": 20, "velocity": 104}, {"time": 707, "pitch": 57, "duration": 8, "velocity": 112}, {"time": 707, "pitch": 62, "duration": 6, "velocity": 106}, {"time": 713, "pitch": 53, "duration": 7, "velocity": 91}, {"time": 719, "pitch": 57, "duration": 5, "velocity": 115}, {"time": 719, "pitch": 62, "duration": 8, "velocity": 109}, {"time": 725, "pitch": 53, "duration": 2, "velocity": 89}, {"time": 731, "pitch": 43, "duration": 23, "velocity": 101}, {"time": 731, "pitch": 58, "duration": 6, "velocity": 110}, {"time": 731, "pitch": 62, "duration": 5, "velocity": 106}, {"time": 737, "pitch": 55, "duration": 7, "velocity": 67}, {"time": 743, "pitch": 58, "duration": 7, "velocity": 120}, {"time": 743, "pitch": 62, "duration": 7, "velocity": 109}, {"time": 749, "pitch": 55, "duration": 7, "velocity": 96}, {"time": 755, "pitch": 43, "duration": 17, "velocity": 109}, {"time": 755, "pitch": 58, "duration": 7, "velocity": 117}, {"time": 755, "pitch": 62, "duration": 7, "velocity": 106}, {"time": 761, "pitch": 53, "duration": 7, "velocity": 101}, {"time": 767, "pitch": 58, "duration": 7, "velocity": 120}, {"time": 767, "pitch": 62, "duration": 8, "velocity": 106}, {"time": 773, "pitch": 53, "duration": 3, "velocity": 104}, {"time": 779, "pitch": 39, "duration": 39, "velocity": 110}, {"time": 779, "pitch": 55, "duration": 3, "velocity": 106}, {"time": 779, "pitch": 58, "duration": 7, "velocity": 117}, {"time": 785, "pitch": 55, "duration": 7, "velocity": 85}, {"time": 791, "pitch": 58, "duration": 8, "velocity": 123}, {"time": 791, "pitch": 63, "duration": 10, "velocity": 120}, {"time": 797, "pitch": 55, "duration": 8, "velocity": 104}, {"time": 803, "pitch": 58, "duration": 7, "velocity": 93}, {"time": 803, "pitch": 62, "duration": 7, "velocity": 104}, {"time": 809, "pitch": 55, "duration": 4, "velocity": 94}, {"time": 815, "pitch": 55, "duration": 3, "velocity": 104}, {"time": 815, "pitch": 58, "duration": 5, "velocity": 120}, {"time": 815, "pitch": 62, "duration": 7, "velocity": 115}, {"time": 821, "pitch": 55, "duration": 4, "velocity": 59}, {"time": 827, "pitch": 48, "duration": 15, "velocity": 106}, {"time": 827, "pitch": 60, "duration": 8, "velocity": 104}, {"time": 827, "pitch": 63, "duration": 8, "velocity": 104}, {"time": 833, "pitch": 55, "duration": 5, "velocity": 80}, {"time": 839, "pitch": 60, "duration": 7, "velocity": 112}, {"time": 839, "pitch": 63, "duration": 7, "velocity": 120}, {"time": 845, "pitch": 55, "duration": 3, "velocity": 99}, {"time": 851, "pitch": 41, "duration": 17, "velocity": 104}, {"time": 851, "pitch": 53, "duration": 6, "velocity": 99}, {"time": 851, "pitch": 57, "duration": 6, "velocity": 94}, {"time": 851, "pitch": 60, "duration": 6, "velocity": 96}, {"time": 857, "pitch": 48, "duration": 9, "velocity": 66}, {"time": 863, "pitch": 53, "duration": 11, "velocity": 109}, {"time": 863, "pitch": 57, "duration": 12, "velocity": 115}, {"time": 863, "pitch": 60, "duration": 12, "velocity": 106}, {"time": 869, "pitch": 48, "duration": 6, "velocity": 104}, {"time": 875, "pitch": 46, "duration": 25, "velocity": 110}, {"time": 875, "pitch": 58, "duration": 8, "velocity": 110}, {"time": 875, "pitch": 62, "duration": 6, "velocity": 106}, {"time": 881, "pitch": 53, "duration": 4, "velocity": 66}, {"time": 887, "pitch": 58, "duration": 7, "velocity": 120}, {"time": 887, "pitch": 62, "duration": 9, "velocity": 109}, {"time": 893, "pitch": 53, "duration": 8, "velocity": 109}, {"time": 899, "pitch": 45, "duration": 20, "velocity": 104}, {"time": 899, "pitch": 57, "duration": 8, "velocity": 112}, {"time": 899, "pitch": 62, "duration": 6, "velocity": 106}, {"time": 905, "pitch": 53, "duration": 7, "velocity": 91}, {"time": 911, "pitch": 57, "duration": 5, "velocity": 115}, {"time": 911, "pitch": 62, "duration": 8, "velocity": 109}, {"time": 917, "pitch": 53, "duration": 2, "velocity": 89}, {"time": 923, "pitch": 43, "duration": 23, "velocity": 101}, {"time": 923, "pitch": 58, "duration": 6, "velocity": 110}, {"time": 923, "pitch": 62, "duration": 5, "velocity": 106}, {"time": 929, "pitch": 55, "duration": 7, "velocity": 67}, {"time": 935, "pitch": 58, "duration": 7, "velocity": 120}, {"time": 935, "pitch": 62, "duration": 7, "velocity": 109}, {"time": 941, "pitch": 55, "duration": 7, "velocity": 96}, {"time": 947, "pitch": 43, "duration": 17, "velocity": 109}, {"time": 947, "pitch": 58, "duration": 7, "velocity": 117}, {"time": 947, "pitch": 62, "duration": 7, "velocity": 106}, {"time": 953, "pitch": 53, "duration": 7, "velocity": 101}, {"time": 959, "pitch": 58, "duration": 7, "velocity": 120}, {"time": 959, "pitch": 62, "duration": 8, "velocity": 106}, {"time": 965, "pitch": 53, "duration": 3, "velocity": 104}, {"time": 971, "pitch": 39, "duration": 12, "velocity": 110}, {"time": 971, "pitch": 58, "duration": 7, "velocity": 110}, {"time": 971, "pitch": 63, "duration": 8, "velocity": 101}, {"time": 977, "pitch": 46, "duration": 7, "velocity": 58}, {"time": 983, "pitch": 58, "duration": 7, "velocity": 120}, {"time": 983, "pitch": 63, "duration": 7, "velocity": 117}, {"time": 989, "pitch": 55, "duration": 3, "velocity": 118}, {"time": 995, "pitch": 41, "duration": 19, "velocity": 106}, {"time": 995, "pitch": 53, "duration": 11, "velocity": 109}, {"time": 995, "pitch": 57, "duration": 6, "velocity": 106}, {"time": 1001, "pitch": 48, "duration": 12, "velocity": 61}, {"time": 1007, "pitch": 57, "duration": 2, "velocity": 118}, {"time": 1007, "pitch": 60, "duration": 7, "velocity": 104}, {"time": 1013, "pitch": 53, "duration": 7, "velocity": 112}, {"time": 1019, "pitch": 46, "duration": 13, "velocity": 117}, {"time": 1019, "pitch": 58, "duration": 7, "velocity": 107}, {"time": 1019, "pitch": 62, "duration": 7, "velocity": 106}, {"time": 1025, "pitch": 53, "duration": 6, "velocity": 82}, {"time": 1031, "pitch": 58, "duration": 7, "velocity": 120}, {"time": 1031, "pitch": 62, "duration": 6, "velocity": 109}, {"time": 1037, "pitch": 53, "duration": 7, "velocity": 109}, {"time": 1043, "pitch": 46, "duration": 24, "velocity": 91}, {"time": 1043, "pitch": 58, "duration": 7, "velocity": 117}, {"time": 1043, "pitch": 63, "duration": 7, "velocity": 101}, {"time": 1049, "pitch": 53, "duration": 4, "velocity": 85}, {"time": 1055, "pitch": 53, "duration": 3, "velocity": 115}, {"time": 1055, "pitch": 58, "duration": 10, "velocity": 120}, {"time": 1055, "pitch": 62, "duration": 10, "velocity": 112}, {"time": 1061, "pitch": 53, "duration": 5, "velocity": 115}, {"time": 1067, "pitch": 46, "duration": 25, "velocity": 110}, {"time": 1067, "pitch": 58, "duration": 8, "velocity": 110}, {"time": 1067, "pitch": 62, "duration": 6, "velocity": 106}, {"time": 1073, "pitch": 53, "duration": 4, "velocity": 66}, {"time": 1079, "pitch": 58, "duration": 7, "velocity": 120}, {"time": 1079, "pitch": 62, "duration": 9, "velocity": 109}, {"time": 1085, "pitch": 53, "duration": 8, "velocity": 109}, {"time": 1091, "pitch": 45, "duration": 20, "velocity": 104}, {"time": 1091, "pitch": 57, "duration": 8, "velocity": 112}, {"time": 1091, "pitch": 62, "duration": 6, "velocity": 106}, {"time": 1097, "pitch": 53, "duration": 7, "velocity": 91}, {"time": 1103, "pitch": 57, "duration": 5, "velocity": 115}, {"time": 1103, "pitch": 62, "duration": 8, "velocity": 109}, {"time": 1109, "pitch": 53, "duration": 2, "velocity": 89}, {"time": 1115, "pitch": 43, "duration": 23, "velocity": 101}, {"time": 1115, "pitch": 58, "duration": 6, "velocity": 110}, {"time": 1115, "pitch": 62, "duration": 5, "velocity": 106}, {"time": 1121, "pitch": 55, "duration": 7, "velocity": 67}, {"time": 1127, "pitch": 58, "duration": 7, "velocity": 120}, {"time": 1127, "pitch": 62, "duration": 7, "velocity": 109}, {"time": 1133, "pitch": 55, "duration": 7, "velocity": 96}, {"time": 1139, "pitch": 43, "duration": 17, "velocity": 109}, {"time": 1139, "pitch": 58, "duration": 7, "velocity": 117}, {"time": 1139, "pitch": 62, "duration": 7, "velocity": 106}, {"time": 1145, "pitch": 53, "duration": 7, "velocity": 101}, {"time": 1151, "pitch": 58, "duration": 7, "velocity": 120}, {"time": 1151, "pitch": 62, "duration": 8, "velocity": 106}, {"time": 1157, "pitch": 53, "duration": 3, "velocity": 104}, {"time": 1163, "pitch": 39, "duration": 12, "velocity": 110}, {"time": 1163, "pitch": 58, "duration": 7, "velocity": 110}, {"time": 1163, "pitch": 63, "duration": 8, "velocity": 101}, {"time": 1169, "pitch": 46, "duration": 7, "velocity": 58}, {"time": 1175, "pitch": 58, "duration": 7, "velocity": 120}, {"time": 1175, "pitch": 63, "duration": 7, "velocity": 117}, {"time": 1181, "pitch": 55, "duration": 3, "velocity": 118}, {"time": 1187, "pitch": 41, "duration": 19, "velocity": 106}, {"time": 1187, "pitch": 53, "duration": 11, "velocity": 109}, {"time": 1187, "pitch": 57, "duration": 6, "velocity": 106}, {"time": 1193, "pitch": 48, "duration": 12, "velocity": 61}, {"time": 1199, "pitch": 57, "duration": 2, "velocity": 118}, {"time": 1199, "pitch": 60, "duration": 7, "velocity": 104}, {"time": 1205, "pitch": 53, "duration": 7, "velocity": 112}, {"time": 1211, "pitch": 46, "duration": 13, "velocity": 117}, {"time": 1211, "pitch": 58, "duration": 7, "velocity": 107}, {"time": 1211, "pitch": 62, "duration": 7, "velocity": 106}, {"time": 1217, "pitch": 53, "duration": 6, "velocity": 82}, {"time": 1223, "pitch": 58, "duration": 7, "velocity": 120}, {"time": 1223, "pitch": 62, "duration": 6, "velocity": 109}, {"time": 1229, "pitch": 53, "duration": 7, "velocity": 109}, {"time": 1235, "pitch": 46, "duration": 24, "velocity": 91}, {"time": 1235, "pitch": 58, "duration": 7, "velocity": 117}, {"time": 1235, "pitch": 63, "duration": 7, "velocity": 101}, {"time": 1241, "pitch": 53, "duration": 4, "velocity": 85}, {"time": 1247, "pitch": 53, "duration": 3, "velocity": 115}, {"time": 1247, "pitch": 58, "duration": 10, "velocity": 120}, {"time": 1247, "pitch": 62, "duration": 10, "velocity": 112}, {"time": 1253, "pitch": 53, "duration": 5, "velocity": 115}, {"time": 1259, "pitch": 46, "duration": 25, "velocity": 120}, {"time": 1259, "pitch": 58, "duration": 10, "velocity": 99}, {"time": 1259, "pitch": 62, "duration": 7, "velocity": 109}, {"time": 1259, "pitch": 65, "duration": 6, "velocity": 104}, {"time": 1265, "pitch": 53, "duration": 36, "velocity": 78}, {"time": 1271, "pitch": 58, "duration": 1, "velocity": 88}, {"time": 1271, "pitch": 62, "duration": 7, "velocity": 115}, {"time": 1271, "pitch": 65, "duration": 10, "velocity": 112}, {"time": 1277, "pitch": 58, "duration": 5, "velocity": 113}, {"time": 1283, "pitch": 45, "duration": 18, "velocity": 101}, {"time": 1283, "pitch": 62, "duration": 7, "velocity": 106}, {"time": 1283, "pitch": 65, "duration": 8, "velocity": 109}, {"time": 1289, "pitch": 57, "duration": 8, "velocity": 94}, {"time": 1295, "pitch": 62, "duration": 6, "velocity": 118}, {"time": 1295, "pitch": 65, "duration": 11, "velocity": 112}, {"time": 1301, "pitch": 57, "duration": 3, "velocity": 112}, {"time": 1307, "pitch": 39, "duration": 6, "velocity": 110}, {"time": 1307, "pitch": 58, "duration": 7, "velocity": 107}, {"time": 1307, "pitch": 63, "duration": 7, "velocity": 117}, {"time": 1313, "pitch": 55, "duration": 4, "velocity": 109}, {"time": 1319, "pitch": 41, "duration": 9, "velocity": 106}, {"time": 1319, "pitch": 53, "duration": 4, "velocity": 115}, {"time": 1319, "pitch": 57, "duration": 6, "velocity": 115}, {"time": 1325, "pitch": 53, "duration": 3, "velocity": 115}, {"time": 1331, "pitch": 46, "duration": 19, "velocity": 110}, {"time": 1331, "pitch": 58, "duration": 7, "velocity": 120}, {"time": 1331, "pitch": 62, "duration": 7, "velocity": 109}, {"time": 1337, "pitch": 53, "duration": 4, "velocity": 91}, {"time": 1343, "pitch": 58, "duration": 7, "velocity": 123}, {"time": 1343, "pitch": 62, "duration": 8, "velocity": 109}, {"time": 1349, "pitch": 53, "duration": 2, "velocity": 109}, {"time": 1355, "pitch": 43, "duration": 21, "velocity": 104}, {"time": 1355, "pitch": 58, "duration": 7, "velocity": 113}, {"time": 1355, "pitch": 62, "duration": 8, "velocity": 109}, {"time": 1361, "pitch": 55, "duration": 4, "velocity": 85}, {"time": 1367, "pitch": 55, "duration": 3, "velocity": 106}, {"time": 1367, "pitch": 58, "duration": 7, "velocity": 120}, {"time": 1367, "pitch": 62, "duration": 7, "velocity": 109}, {"time": 1373, "pitch": 55, "duration": 2, "velocity": 112}, {"time": 1379, "pitch": 50, "duration": 14, "velocity": 106}, {"time": 1379, "pitch": 57, "duration": 4, "velocity": 106}, {"time": 1379, "pitch": 62, "duration": 8, "velocity": 109}, {"time": 1379, "pitch": 65, "duration": 8, "velocity": 106}, {"time": 1385, "pitch": 57, "duration": 3, "velocity": 96}, {"time": 1391, "pitch": 57, "duration": 3, "velocity": 115}, {"time": 1391, "pitch": 62, "duration": 5, "velocity": 115}, {"time": 1391, "pitch": 65, "duration": 7, "velocity": 112}, {"time": 1403, "pitch": 39, "duration": 3, "velocity": 107}, {"time": 1403, "pitch": 58, "duration": 6, "velocity": 120}, {"time": 1403, "pitch": 63, "duration": 7, "velocity": 117}, {"time": 1409, "pitch": 55, "duration": 3, "velocity": 118}, {"time": 1415, "pitch": 41, "duration": 8, "velocity": 109}, {"time": 1415, "pitch": 57, "duration": 3, "velocity": 109}, {"time": 1415, "pitch": 60, "duration": 7, "velocity": 109}, {"time": 1415, "pitch": 65, "duration": 7, "velocity": 94}, {"time": 1421, "pitch": 57, "duration": 3, "velocity": 112}, {"time": 1427, "pitch": 46, "duration": 23, "velocity": 117}, {"time": 1427, "pitch": 58, "duration": 7, "velocity": 113}, {"time": 1427, "pitch": 62, "duration": 7, "velocity": 106}, {"time": 1433, "pitch": 53, "duration": 4, "velocity": 106}, {"time": 1439, "pitch": 53, "duration": 3, "velocity": 115}, {"time": 1439, "pitch": 58, "duration": 11, "velocity": 123}, {"time": 1439, "pitch": 62, "duration": 11, "velocity": 112}, {"time": 1445, "pitch": 53, "duration": 6, "velocity": 115}, {"time": 1451, "pitch": 46, "duration": 25, "velocity": 120}, {"time": 1451, "pitch": 58, "duration": 10, "velocity": 99}, {"time": 1451, "pitch": 62, "duration": 7, "velocity": 109}, {"time": 1451, "pitch": 65, "duration": 6, "velocity": 104}, {"time": 1457, "pitch": 53, "duration": 36, "velocity": 78}, {"time": 1463, "pitch": 58, "duration": 1, "velocity": 88}, {"time": 1463, "pitch": 62, "duration": 7, "velocity": 115}, {"time": 1463, "pitch": 65, "duration": 10, "velocity": 112}, {"time": 1469, "pitch": 58, "duration": 5, "velocity": 113}, {"time": 1475, "pitch": 45, "duration": 18, "velocity": 101}, {"time": 1475, "pitch": 62, "duration": 7, "velocity": 106}, {"time": 1475, "pitch": 65, "duration": 8, "velocity": 109}, {"time": 1481, "pitch": 57, "duration": 8, "velocity": 94}, {"time": 1487, "pitch": 62, "duration": 6, "velocity": 118}, {"time": 1487, "pitch": 65, "duration": 11, "velocity": 112}, {"time": 1493, "pitch": 57, "duration": 3, "velocity": 112}, {"time": 1499, "pitch": 39, "duration": 6, "velocity": 110}, {"time": 1499, "pitch": 58, "duration": 7, "velocity": 107}, {"time": 1499, "pitch": 63, "duration": 7, "velocity": 117}, {"time": 1505, "pitch": 55, "duration": 4, "velocity": 109}, {"time": 1511, "pitch": 41, "duration": 9, "velocity": 106}, {"time": 1511, "pitch": 53, "duration": 4, "velocity": 115}, {"time": 1511, "pitch": 57, "duration": 6, "velocity": 115}, {"time": 1517, "pitch": 53, "duration": 3, "velocity": 115}, {"time": 1523, "pitch": 46, "duration": 19, "velocity": 110}, {"time": 1523, "pitch": 58, "duration": 7, "velocity": 120}, {"time": 1523, "pitch": 62, "duration": 7, "velocity": 109}, {"time": 1529, "pitch": 53, "duration": 4, "velocity": 91}, {"time": 1535, "pitch": 58, "duration": 7, "velocity": 123}, {"time": 1535, "pitch": 62, "duration": 8, "velocity": 109}, {"time": 1541, "pitch": 53, "duration": 2, "velocity": 109}, {"time": 1547, "pitch": 43, "duration": 21, "velocity": 104}, {"time": 1547, "pitch": 58, "duration": 7, "velocity": 113}, {"time": 1547, "pitch": 62, "duration": 8, "velocity": 109}, {"time": 1553, "pitch": 55, "duration": 4, "velocity": 85}, {"time": 1559, "pitch": 55, "duration": 3, "velocity": 106}, {"time": 1559, "pitch": 58, "duration": 7, "velocity": 120}, {"time": 1559, "pitch": 62, "duration": 7, "velocity": 109}, {"time": 1565, "pitch": 55, "duration": 2, "velocity": 112}, {"time": 1571, "pitch": 50, "duration": 14, "velocity": 106}, {"time": 1571, "pitch": 57, "duration": 4, "velocity": 106}, {"time": 1571, "pitch": 62, "duration": 8, "velocity": 109}, {"time": 1571, "pitch": 65, "duration": 8, "velocity": 106}, {"time": 1577, "pitch": 57, "duration": 3, "velocity": 96}, {"time": 1583, "pitch": 57, "duration": 3, "velocity": 115}, {"time": 1583, "pitch": 62, "duration": 5, "velocity": 115}, {"time": 1583, "pitch": 65, "duration": 7, "velocity": 112}, {"time": 1595, "pitch": 39, "duration": 13, "velocity": 110}, {"time": 1595, "pitch": 58, "duration": 13, "velocity": 110}, {"time": 1595, "pitch": 63, "duration": 14, "velocity": 99}, {"time": 1601, "pitch": 46, "duration": 8, "velocity": 63}, {"time": 1607, "pitch": 55, "duration": 6, "velocity": 109}, {"time": 1610, "pitch": 58, "duration": 4, "velocity": 117}, {"time": 1613, "pitch": 63, "duration": 2, "velocity": 120}, {"time": 1619, "pitch": 41, "duration": 2, "velocity": 106}, {"time": 1619, "pitch": 53, "duration": 4, "velocity": 101}, {"time": 1619, "pitch": 57, "duration": 5, "velocity": 109}, {"time": 1631, "pitch": 53, "duration": 5, "velocity": 85}, {"time": 1631, "pitch": 60, "duration": 5, "velocity": 87}, {"time": 1631, "pitch": 65, "duration": 6, "velocity": 94}, {"time": 1631, "pitch": 69, "duration": 6, "velocity": 106}, {"time": 1643, "pitch": 46, "duration": 47, "velocity": 120}, {"time": 1643, "pitch": 58, "duration": 4, "velocity": 104}, {"time": 1643, "pitch": 62, "duration": 10, "velocity": 109}, {"time": 1649, "pitch": 58, "duration": 7, "velocity": 74}, {"time": 1655, "pitch": 62, "duration": 10, "velocity": 106}, {"time": 1655, "pitch": 65, "duration": 8, "velocity": 109}, {"time": 1661, "pitch": 58, "duration": 5, "velocity": 29}, {"time": 1667, "pitch": 62, "duration": 7, "velocity": 101}, {"time": 1667, "pitch": 65, "duration": 7, "velocity": 99}, {"time": 1673, "pitch": 58, "duration": 3, "velocity": 3}, {"time": 1679, "pitch": 58, "duration": 2, "velocity": 110}, {"time": 1679, "pitch": 62, "duration": 6, "velocity": 112}, {"time": 1679, "pitch": 65, "duration": 11, "velocity": 112}, {"time": 1685, "pitch": 58, "duration": 4, "velocity": 83}, {"time": 1691, "pitch": 46, "duration": 40, "velocity": 110}, {"time": 1691, "pitch": 58, "duration": 4, "velocity": 113}, {"time": 1691, "pitch": 63, "duration": 11, "velocity": 113}, {"time": 1697, "pitch": 58, "duration": 5, "velocity": 66}, {"time": 1703, "pitch": 58, "duration": 3, "velocity": 83}, {"time": 1703, "pitch": 63, "duration": 11, "velocity": 110}, {"time": 1703, "pitch": 65, "duration": 7, "velocity": 106}, {"time": 1709, "pitch": 58, "duration": 7, "velocity": 93}, {"time": 1715, "pitch": 63, "duration": 11, "velocity": 101}, {"time": 1715, "pitch": 67, "duration": 8, "velocity": 112}, {"time": 1721, "pitch": 58, "duration": 5, "velocity": 28}, {"time": 1727, "pitch": 58, "duration": 4, "velocity": 113}, {"time": 1727, "pitch": 63, "duration": 12, "velocity": 113}, {"time": 1733, "pitch": 58, "duration": 6, "velocity": 107}, {"time": 1739, "pitch": 46, "duration": 47, "velocity": 120}, {"time": 1739, "pitch": 58, "duration": 4, "velocity": 104}, {"time": 1739, "pitch": 62, "duration": 10, "velocity": 109}, {"time": 1745, "pitch": 58, "duration": 7, "velocity": 74}, {"time": 1751, "pitch": 62, "duration": 10, "velocity": 106}, {"time": 1751, "pitch": 65, "duration": 8, "velocity": 109}, {"time": 1757, "pitch": 58, "duration": 5, "velocity": 29}, {"time": 1763, "pitch": 62, "duration": 7, "velocity": 101}, {"time": 1763, "pitch": 65, "duration": 7, "velocity": 99}, {"time": 1769, "pitch": 58, "duration": 3, "velocity": 3}, {"time": 1775, "pitch": 58, "duration": 2, "velocity": 110}, {"time": 1775, "pitch": 62, "duration": 6, "velocity": 112}, {"time": 1775, "pitch": 65, "duration": 11, "velocity": 112}, {"time": 1781, "pitch": 58, "duration": 4, "velocity": 83}, {"time": 1787, "pitch": 46, "duration": 21, "velocity": 104}, {"time": 1787, "pitch": 58, "duration": 7, "velocity": 104}, {"time": 1787, "pitch": 63, "duration": 8, "velocity": 101}, {"time": 1793, "pitch": 55, "duration": 5, "velocity": 91}, {"time": 1799, "pitch": 58, "duration": 7, "velocity": 123}, {"time": 1799, "pitch": 63, "duration": 14, "velocity": 113}, {"time": 1805, "pitch": 55, "duration": 4, "velocity": 109}, {"time": 1811, "pitch": 41, "duration": 17, "velocity": 106}, {"time": 1811, "pitch": 53, "duration": 4, "velocity": 106}, {"time": 1811, "pitch": 57, "duration": 7, "velocity": 106}, {"time": 1817, "pitch": 53, "duration": 5, "velocity": 104}, {"time": 1823, "pitch": 57, "duration": 8, "velocity": 115}, {"time": 1823, "pitch": 65, "duration": 8, "velocity": 106}, {"time": 1829, "pitch": 53, "duration": 3, "velocity": 112}, {"time": 1835, "pitch": 43, "duration": 22, "velocity": 104}, {"time": 1835, "pitch": 58, "duration": 9, "velocity": 104}, {"time": 1835, "pitch": 62, "duration": 12, "velocity": 109}, {"time": 1841, "pitch": 50, "duration": 15, "velocity": 69}, {"time": 1844, "pitch": 55, "duration": 9, "velocity": 94}, {"time": 1847, "pitch": 58, "duration": 7, "velocity": 120}, {"time": 1850, "pitch": 62, "duration": 5, "velocity": 109}, {"time": 1853, "pitch": 67, "duration": 13, "velocity": 112}, {"time": 1856, "pitch": 55, "duration": 8, "velocity": 104}, {"time": 1859, "pitch": 43, "duration": 20, "velocity": 104}, {"time": 1865, "pitch": 50, "duration": 7, "velocity": 58}, {"time": 1871, "pitch": 58, "duration": 4, "velocity": 120}, {"time": 1871, "pitch": 62, "duration": 7, "velocity": 115}, {"time": 1874, "pitch": 50, "duration": 5, "velocity": 99}, {"time": 1877, "pitch": 55, "duration": 5, "velocity": 112}, {"time": 1880, "pitch": 58, "duration": 2, "velocity": 117}, {"time": 1883, "pitch": 41, "duration": 23, "velocity": 106}, {"time": 1883, "pitch": 53, "duration": 6, "velocity": 106}, {"time": 1883, "pitch": 57, "duration": 7, "velocity": 112}, {"time": 1889, "pitch": 48, "duration": 17, "velocity": 67}, {"time": 1892, "pitch": 53, "duration": 7, "velocity": 112}, {"time": 1895, "pitch": 60, "duration": 4, "velocity": 109}, {"time": 1898, "pitch": 57, "duration": 5, "velocity": 109}, {"time": 1901, "pitch": 65, "duration": 5, "velocity": 109}, {"time": 1904, "pitch": 53, "duration": 11, "velocity": 106}, {"time": 1907, "pitch": 41, "duration": 15, "velocity": 101}, {"time": 1907, "pitch": 57, "duration": 7, "velocity": 109}, {"time": 1907, "pitch": 60, "duration": 8, "velocity": 104}, {"time": 1913, "pitch": 48, "duration": 8, "velocity": 58}, {"time": 1919, "pitch": 53, "duration": 2, "velocity": 106}, {"time": 1919, "pitch": 57, "duration": 3, "velocity": 118}, {"time": 1919, "pitch": 60, "duration": 3, "velocity": 115}, {"time": 1919, "pitch": 65, "duration": 5, "velocity": 104}, {"time": 1925, "pitch": 41, "duration": 2, "velocity": 101}, {"time": 1931, "pitch": 39, "duration": 22, "velocity": 110}, {"time": 1931, "pitch": 58, "duration": 6, "velocity": 107}, {"time": 1934, "pitch": 46, "duration": 21, "velocity": 99}, {"time": 1937, "pitch": 55, "duration": 7, "velocity": 101}, {"time": 1940, "pitch": 58, "duration": 7, "velocity": 113}, {"time": 1943, "pitch": 63, "duration": 3, "velocity": 123}, {"time": 1946, "pitch": 67, "duration": 8, "velocity": 109}, {"time": 1949, "pitch": 63, "duration": 5, "velocity": 120}, {"time": 1952, "pitch": 55, "duration": 3, "velocity": 109}, {"time": 1955, "pitch": 39, "duration": 14, "velocity": 113}, {"time": 1955, "pitch": 55, "duration": 4, "velocity": 85}, {"time": 1955, "pitch": 58, "duration": 9, "velocity": 117}, {"time": 1955, "pitch": 63, "duration": 10, "velocity": 99}, {"time": 1961, "pitch": 55, "duration": 5, "velocity": 89}, {"time": 1967, "pitch": 55, "duration": 3, "velocity": 106}, {"time": 1967, "pitch": 58, "duration": 7, "velocity": 120}, {"time": 1967, "pitch": 63, "duration": 7, "velocity": 113}, {"time": 1967, "pitch": 67, "duration": 6, "velocity": 106}, {"time": 1973, "pitch": 55, "duration": 3, "velocity": 94}, {"time": 1979, "pitch": 41, "duration": 21, "velocity": 101}, {"time": 1979, "pitch": 53, "duration": 6, "velocity": 101}, {"time": 1979, "pitch": 57, "duration": 7, "velocity": 101}, {"time": 1985, "pitch": 48, "duration": 11, "velocity": 48}, {"time": 1991, "pitch": 65, "duration": 4, "velocity": 109}, {"time": 1994, "pitch": 53, "duration": 7, "velocity": 115}, {"time": 1997, "pitch": 57, "duration": 6, "velocity": 104}, {"time": 2000, "pitch": 60, "duration": 10, "velocity": 106}, {"time": 2003, "pitch": 41, "duration": 11, "velocity": 104}, {"time": 2006, "pitch": 48, "duration": 8, "velocity": 71}, {"time": 2009, "pitch": 53, "duration": 2, "velocity": 89}, {"time": 2012, "pitch": 57, "duration": 2, "velocity": 106}, {"time": 2015, "pitch": 41, "duration": 10, "velocity": 109}, {"time": 2015, "pitch": 48, "duration": 10, "velocity": 99}, {"time": 2015, "pitch": 53, "duration": 4, "velocity": 104}, {"time": 2015, "pitch": 57, "duration": 10, "velocity": 106}, {"time": 2015, "pitch": 60, "duration": 10, "velocity": 104}, {"time": 2021, "pitch": 53, "duration": 4, "velocity": 109}, {"time": 2027, "pitch": 46, "duration": 25, "velocity": 110}, {"time": 2027, "pitch": 58, "duration": 8, "velocity": 110}, {"time": 2027, "pitch": 62, "duration": 6, "velocity": 106}, {"time": 2033, "pitch": 53, "duration": 4, "velocity": 66}, {"time": 2039, "pitch": 58, "duration": 7, "velocity": 120}, {"time": 2039, "pitch": 62, "duration": 9, "velocity": 109}, {"time": 2045, "pitch": 53, "duration": 8, "velocity": 109}, {"time": 2051, "pitch": 45, "duration": 20, "velocity": 104}, {"time": 2051, "pitch": 57, "duration": 8, "velocity": 112}, {"time": 2051, "pitch": 62, "duration": 6, "velocity": 106}, {"time": 2057, "pitch": 53, "duration": 7, "velocity": 91}, {"time": 2063, "pitch": 57, "duration": 5, "velocity": 115}, {"time": 2063, "pitch": 62, "duration": 8, "velocity": 109}, {"time": 2069, "pitch": 53, "duration": 2, "velocity": 89}, {"time": 2075, "pitch": 43, "duration": 23, "velocity": 101}, {"time": 2075, "pitch": 58, "duration": 6, "velocity": 110}, {"time": 2075, "pitch": 62, "duration": 5, "velocity": 106}, {"time": 2081, "pitch": 55, "duration": 7, "velocity": 67}, {"time": 2087, "pitch": 58, "duration": 7, "velocity": 120}, {"time": 2087, "pitch": 62, "duration": 7, "velocity": 109}, {"time": 2093, "pitch": 55, "duration": 7, "velocity": 96}, {"time": 2099, "pitch": 43, "duration": 17, "velocity": 109}, {"time": 2099, "pitch": 58, "duration": 7, "velocity": 117}, {"time": 2099, "pitch": 62, "duration": 7, "velocity": 106}, {"time": 2105, "pitch": 53, "duration": 7, "velocity": 101}, {"time": 2111, "pitch": 58, "duration": 7, "velocity": 120}, {"time": 2111, "pitch": 62, "duration": 8, "velocity": 106}, {"time": 2117, "pitch": 53, "duration": 3, "velocity": 104}, {"time": 2123, "pitch": 39, "duration": 12, "velocity": 110}, {"time": 2123, "pitch": 58, "duration": 7, "velocity": 110}, {"time": 2123, "pitch": 63, "duration": 8, "velocity": 101}, {"time": 2129, "pitch": 46, "duration": 7, "velocity": 58}, {"time": 2135, "pitch": 58, "duration": 7, "velocity": 120}, {"time": 2135, "pitch": 63, "duration": 7, "velocity": 117}, {"time": 2141, "pitch": 55, "duration": 3, "velocity": 118}, {"time": 2147, "pitch": 41, "duration": 19, "velocity": 106}, {"time": 2147, "pitch": 53, "duration": 11, "velocity": 109}, {"time": 2147, "pitch": 57, "duration": 6, "velocity": 106}, {"time": 2153, "pitch": 48, "duration": 12, "velocity": 61}, {"time": 2159, "pitch": 57, "duration": 2, "velocity": 118}, {"time": 2159, "pitch": 60, "duration": 7, "velocity": 104}, {"time": 2165, "pitch": 53, "duration": 7, "velocity": 112}, {"time": 2171, "pitch": 46, "duration": 13, "velocity": 117}, {"time": 2171, "pitch": 58, "duration": 7, "velocity": 107}, {"time": 2171, "pitch": 62, "duration": 7, "velocity": 106}, {"time": 2177, "pitch": 53, "duration": 6, "velocity": 82}, {"time": 2183, "pitch": 58, "duration": 7, "velocity": 120}, {"time": 2183, "pitch": 62, "duration": 6, "velocity": 109}, {"time": 2189, "pitch": 53, "duration": 7, "velocity": 109}, {"time": 2195, "pitch": 46, "duration": 24, "velocity": 91}, {"time": 2195, "pitch": 58, "duration": 7, "velocity": 117}, {"time": 2195, "pitch": 63, "duration": 7, "velocity": 101}, {"time": 2201, "pitch": 53, "duration": 4, "velocity": 85}, {"time": 2207, "pitch": 53, "duration": 3, "velocity": 115}, {"time": 2207, "pitch": 58, "duration": 10, "velocity": 120}, {"time": 2207, "pitch": 62, "duration": 10, "velocity": 112}, {"time": 2213, "pitch": 53, "duration": 5, "velocity": 115}, {"time": 2219, "pitch": 46, "duration": 25, "velocity": 110}, {"time": 2219, "pitch": 58, "duration": 8, "velocity": 110}, {"time": 2219, "pitch": 62, "duration": 6, "velocity": 106}, {"time": 2225, "pitch": 53, "duration": 4, "velocity": 66}, {"time": 2231, "pitch": 58, "duration": 7, "velocity": 120}, {"time": 2231, "pitch": 62, "duration": 9, "velocity": 109}, {"time": 2237, "pitch": 53, "duration": 8, "velocity": 109}, {"time": 2243, "pitch": 45, "duration": 20, "velocity": 104}, {"time": 2243, "pitch": 57, "duration": 8, "velocity": 112}, {"time": 2243, "pitch": 62, "duration": 6, "velocity": 106}, {"time": 2249, "pitch": 53, "duration": 7, "velocity": 91}, {"time": 2255, "pitch": 57, "duration": 5, "velocity": 115}, {"time": 2255, "pitch": 62, "duration": 8, "velocity": 109}, {"time": 2261, "pitch": 53, "duration": 2, "velocity": 89}, {"time": 2267, "pitch": 43, "duration": 23, "velocity": 101}, {"time": 2267, "pitch": 58, "duration": 6, "velocity": 110}, {"time": 2267, "pitch": 62, "duration": 5, "velocity": 106}, {"time": 2273, "pitch": 55, "duration": 7, "velocity": 67}, {"time": 2279, "pitch": 58, "duration": 7, "velocity": 120}, {"time": 2279, "pitch": 62, "duration": 7, "velocity": 109}, {"time": 2285, "pitch": 55, "duration": 7, "velocity": 96}, {"time": 2291, "pitch": 43, "duration": 17, "velocity": 109}, {"time": 2291, "pitch": 58, "duration": 7, "velocity": 117}, {"time": 2291, "pitch": 62, "duration": 7, "velocity": 106}, {"time": 2297, "pitch": 53, "duration": 7, "velocity": 101}, {"time": 2303, "pitch": 58, "duration": 7, "velocity": 120}, {"time": 2303, "pitch": 62, "duration": 8, "velocity": 106}, {"time": 2309, "pitch": 53, "duration": 3, "velocity": 104}, {"time": 2315, "pitch": 39, "duration": 12, "velocity": 110}, {"time": 2315, "pitch": 58, "duration": 7, "velocity": 110}, {"time": 2315, "pitch": 63, "duration": 8, "velocity": 101}, {"time": 2321, "pitch": 46, "duration": 7, "velocity": 58}, {"time": 2327, "pitch": 58, "duration": 7, "velocity": 120}, {"time": 2327, "pitch": 63, "duration": 7, "velocity": 117}, {"time": 2333, "pitch": 55, "duration": 3, "velocity": 118}, {"time": 2339, "pitch": 41, "duration": 19, "velocity": 106}, {"time": 2339, "pitch": 53, "duration": 11, "velocity": 109}, {"time": 2339, "pitch": 57, "duration": 6, "velocity": 106}, {"time": 2345, "pitch": 48, "duration": 12, "velocity": 61}, {"time": 2351, "pitch": 57, "duration": 2, "velocity": 118}, {"time": 2351, "pitch": 60, "duration": 7, "velocity": 104}, {"time": 2357, "pitch": 53, "duration": 7, "velocity": 112}, {"time": 2363, "pitch": 46, "duration": 13, "velocity": 117}, {"time": 2363, "pitch": 58, "duration": 7, "velocity": 107}, {"time": 2363, "pitch": 62, "duration": 7, "velocity": 106}, {"time": 2369, "pitch": 53, "duration": 6, "velocity": 82}, {"time": 2375, "pitch": 58, "duration": 7, "velocity": 120}, {"time": 2375, "pitch": 62, "duration": 6, "velocity": 109}, {"time": 2381, "pitch": 53, "duration": 7, "velocity": 109}, {"time": 2387, "pitch": 46, "duration": 24, "velocity": 91}, {"time": 2387, "pitch": 58, "duration": 5, "velocity": 117}, {"time": 2387, "pitch": 63, "duration": 5, "velocity": 101}, {"time": 2393, "pitch": 58, "duration": 5, "velocity": 117}, {"time": 2393, "pitch": 63, "duration": 5, "velocity": 101}, {"time": 2393, "pitch": 65, "duration": 4, "velocity": 85}, {"time": 2399, "pitch": 53, "duration": 3, "velocity": 115}, {"time": 2399, "pitch": 62, "duration": 10, "velocity": 112}, {"time": 2399, "pitch": 65, "duration": 3, "velocity": 115}, {"time": 2399, "pitch": 70, "duration": 10, "velocity": 120}, {"time": 2405, "pitch": 53, "duration": 5, "velocity": 115}, {"time": 2405, "pitch": 65, "duration": 5, "velocity": 115}, {"time": 2411, "pitch": 46, "duration": 17, "velocity": 120}, {"time": 2411, "pitch": 65, "duration": 6, "velocity": 104}, {"time": 2411, "pitch": 70, "duration": 10, "velocity": 99}, {"time": 2411, "pitch": 74, "duration": 7, "velocity": 109}, {"time": 2417, "pitch": 53, "duration": 36, "velocity": 78}, {"time": 2423, "pitch": 58, "duration": 1, "velocity": 88}, {"time": 2423, "pitch": 62, "duration": 7, "velocity": 115}, {"time": 2423, "pitch": 65, "duration": 10, "velocity": 112}, {"time": 2429, "pitch": 46, "duration": 5, "velocity": 97}, {"time": 2429, "pitch": 58, "duration": 5, "velocity": 113}, {"time": 2435, "pitch": 45, "duration": 17, "velocity": 101}, {"time": 2435, "pitch": 62, "duration": 7, "velocity": 106}, {"time": 2435, "pitch": 65, "duration": 8, "velocity": 109}, {"time": 2441, "pitch": 57, "duration": 8, "velocity": 94}, {"time": 2447, "pitch": 65, "duration": 11, "velocity": 112}, {"time": 2447, "pitch": 74, "duration": 6, "velocity": 118}, {"time": 2453, "pitch": 57, "duration": 3, "velocity": 112}, {"time": 2459, "pitch": 39, "duration": 6, "velocity": 110}, {"time": 2459, "pitch": 58, "duration": 7, "velocity": 107}, {"time": 2459, "pitch": 63, "duration": 7, "velocity": 117}, {"time": 2465, "pitch": 55, "duration": 4, "velocity": 109}, {"time": 2468, "pitch": 39, "duration": 2, "velocity": 97}, {"time": 2471, "pitch": 41, "duration": 9, "velocity": 106}, {"time": 2471, "pitch": 57, "duration": 6, "velocity": 115}, {"time": 2471, "pitch": 65, "duration": 4, "velocity": 115}, {"time": 2477, "pitch": 53, "duration": 3, "velocity": 115}, {"time": 2480, "pitch": 53, "duration": 2, "velocity": 97}, {"time": 2483, "pitch": 46, "duration": 19, "velocity": 110}, {"time": 2483, "pitch": 58, "duration": 7, "velocity": 120}, {"time": 2483, "pitch": 62, "duration": 7, "velocity": 109}, {"time": 2489, "pitch": 53, "duration": 4, "velocity": 91}, {"time": 2495, "pitch": 62, "duration": 8, "velocity": 109}, {"time": 2495, "pitch": 70, "duration": 7, "velocity": 123}, {"time": 2501, "pitch": 53, "duration": 2, "velocity": 109}, {"time": 2507, "pitch": 43, "duration": 21, "velocity": 104}, {"time": 2507, "pitch": 58, "duration": 7, "velocity": 113}, {"time": 2507, "pitch": 62, "duration": 8, "velocity": 109}, {"time": 2513, "pitch": 55, "duration": 4, "velocity": 85}, {"time": 2519, "pitch": 55, "duration": 3, "velocity": 106}, {"time": 2519, "pitch": 62, "duration": 7, "velocity": 109}, {"time": 2519, "pitch": 70, "duration": 7, "velocity": 120}, {"time": 2525, "pitch": 55, "duration": 2, "velocity": 112}, {"time": 2531, "pitch": 50, "duration": 14, "velocity": 106}, {"time": 2531, "pitch": 57, "duration": 4, "velocity": 106}, {"time": 2531, "pitch": 62, "duration": 8, "velocity": 109}, {"time": 2531, "pitch": 65, "duration": 8, "velocity": 106}, {"time": 2537, "pitch": 57, "duration": 3, "velocity": 96}, {"time": 2543, "pitch": 62, "duration": 5, "velocity": 115}, {"time": 2543, "pitch": 65, "duration": 7, "velocity": 112}, {"time": 2543, "pitch": 69, "duration": 3, "velocity": 115}, {"time": 2549, "pitch": 38, "duration": 6, "velocity": 97}, {"time": 2555, "pitch": 39, "duration": 3, "velocity": 107}, {"time": 2555, "pitch": 58, "duration": 6, "velocity": 120}, {"time": 2555, "pitch": 63, "duration": 7, "velocity": 117}, {"time": 2561, "pitch": 55, "duration": 3, "velocity": 118}, {"time": 2564, "pitch": 39, "duration": 3, "velocity": 97}, {"time": 2567, "pitch": 41, "duration": 9, "velocity": 109}, {"time": 2567, "pitch": 57, "duration": 3, "velocity": 109}, {"time": 2567, "pitch": 60, "duration": 7, "velocity": 109}, {"time": 2567, "pitch": 65, "duration": 7, "velocity": 94}, {"time": 2573, "pitch": 53, "duration": 3, "velocity": 97}, {"time": 2573, "pitch": 57, "duration": 3, "velocity": 112}, {"time": 2579, "pitch": 46, "duration": 23, "velocity": 117}, {"time": 2579, "pitch": 58, "duration": 7, "velocity": 113}, {"time": 2579, "pitch": 62, "duration": 7, "velocity": 106}, {"time": 2585, "pitch": 53, "duration": 4, "velocity": 106}, {"time": 2591, "pitch": 53, "duration": 3, "velocity": 115}, {"time": 2591, "pitch": 58, "duration": 11, "velocity": 123}, {"time": 2591, "pitch": 62, "duration": 11, "velocity": 112}, {"time": 2597, "pitch": 53, "duration": 6, "velocity": 115}, {"time": 2603, "pitch": 46, "duration": 25, "velocity": 120}, {"time": 2603, "pitch": 58, "duration": 10, "velocity": 99}, {"time": 2603, "pitch": 62, "duration": 7, "velocity": 109}, {"time": 2603, "pitch": 65, "duration": 6, "velocity": 104}, {"time": 2609, "pitch": 53, "duration": 36, "velocity": 78}, {"time": 2615, "pitch": 62, "duration": 7, "velocity": 115}, {"time": 2615, "pitch": 65, "duration": 10, "velocity": 112}, {"time": 2615, "pitch": 70, "duration": 3, "velocity": 88}, {"time": 2621, "pitch": 58, "duration": 5, "velocity": 113}, {"time": 2627, "pitch": 45, "duration": 18, "velocity": 101}, {"time": 2627, "pitch": 62, "duration": 7, "velocity": 106}, {"time": 2627, "pitch": 65, "duration": 8, "velocity": 109}, {"time": 2633, "pitch": 57, "duration": 8, "velocity": 94}, {"time": 2639, "pitch": 65, "duration": 11, "velocity": 112}, {"time": 2639, "pitch": 70, "duration": 6, "velocity": 118}, {"time": 2645, "pitch": 57, "duration": 3, "velocity": 112}, {"time": 2651, "pitch": 39, "duration": 6, "velocity": 110}, {"time": 2651, "pitch": 58, "duration": 7, "velocity": 107}, {"time": 2651, "pitch": 63, "duration": 7, "velocity": 117}, {"time": 2657, "pitch": 55, "duration": 4, "velocity": 109}, {"time": 2660, "pitch": 39, "duration": 2, "velocity": 97}, {"time": 2663, "pitch": 41, "duration": 8, "velocity": 106}, {"time": 2663, "pitch": 53, "duration": 4, "velocity": 115}, {"time": 2663, "pitch": 57, "duration": 6, "velocity": 115}, {"time": 2669, "pitch": 53, "duration": 3, "velocity": 115}, {"time": 2675, "pitch": 46, "duration": 19, "velocity": 110}, {"time": 2675, "pitch": 58, "duration": 7, "velocity": 120}, {"time": 2675, "pitch": 62, "duration": 7, "velocity": 109}, {"time": 2681, "pitch": 53, "duration": 4, "velocity": 91}, {"time": 2687, "pitch": 58, "duration": 7, "velocity": 123}, {"time": 2687, "pitch": 62, "duration": 8, "velocity": 109}, {"time": 2687, "pitch": 65, "duration": 7, "velocity": 123}, {"time": 2693, "pitch": 53, "duration": 2, "velocity": 109}, {"time": 2699, "pitch": 43, "duration": 21, "velocity": 104}, {"time": 2699, "pitch": 58, "duration": 7, "velocity": 113}, {"time": 2699, "pitch": 62, "duration": 8, "velocity": 109}, {"time": 2705, "pitch": 55, "duration": 4, "velocity": 85}, {"time": 2711, "pitch": 55, "duration": 3, "velocity": 106}, {"time": 2711, "pitch": 58, "duration": 7, "velocity": 120}, {"time": 2711, "pitch": 62, "duration": 7, "velocity": 109}, {"time": 2711, "pitch": 65, "duration": 7, "velocity": 120}, {"time": 2717, "pitch": 55, "duration": 2, "velocity": 112}, {"time": 2723, "pitch": 50, "duration": 14, "velocity": 106}, {"time": 2723, "pitch": 57, "duration": 4, "velocity": 106}, {"time": 2723, "pitch": 62, "duration": 8, "velocity": 109}, {"time": 2729, "pitch": 57, "duration": 3, "velocity": 96}, {"time": 2735, "pitch": 57, "duration": 3, "velocity": 115}, {"time": 2735, "pitch": 62, "duration": 5, "velocity": 115}, {"time": 2735, "pitch": 65, "duration": 7, "velocity": 112}, {"time": 2747, "pitch": 39, "duration": 13, "velocity": 110}, {"time": 2747, "pitch": 58, "duration": 13, "velocity": 110}, {"time": 2747, "pitch": 63, "duration": 14, "velocity": 99}, {"time": 2753, "pitch": 46, "duration": 8, "velocity": 63}, {"time": 2759, "pitch": 55, "duration": 6, "velocity": 109}, {"time": 2762, "pitch": 58, "duration": 4, "velocity": 117}, {"time": 2765, "pitch": 63, "duration": 2, "velocity": 120}, {"time": 2771, "pitch": 41, "duration": 20, "velocity": 106}, {"time": 2771, "pitch": 53, "duration": 4, "velocity": 101}, {"time": 2771, "pitch": 57, "duration": 5, "velocity": 109}, {"time": 2783, "pitch": 53, "duration": 5, "velocity": 85}, {"time": 2783, "pitch": 60, "duration": 5, "velocity": 87}, {"time": 2783, "pitch": 65, "duration": 6, "velocity": 94}, {"time": 2783, "pitch": 69, "duration": 6, "velocity": 106}, {"time": 2795, "pitch": 46, "duration": 12, "velocity": 107}, {"time": 2795, "pitch": 58, "duration": 4, "velocity": 99}, {"time": 2795, "pitch": 62, "duration": 6, "velocity": 112}, {"time": 2795, "pitch": 65, "duration": 7, "velocity": 104}, {"time": 2807, "pitch": 46, "duration": 11, "velocity": 97}, {"time": 2807, "pitch": 58, "duration": 3, "velocity": 110}, {"time": 2807, "pitch": 62, "duration": 6, "velocity": 109}, {"time": 2807, "pitch": 65, "duration": 8, "velocity": 109}, {"time": 2813, "pitch": 58, "duration": 1, "velocity": 110}, {"time": 2819, "pitch": 41, "duration": 18, "velocity": 109}, {"time": 2819, "pitch": 53, "duration": 6, "velocity": 112}, {"time": 2819, "pitch": 57, "duration": 7, "velocity": 112}, {"time": 2825, "pitch": 48, "duration": 15, "velocity": 104}, {"time": 2828, "pitch": 53, "duration": 7, "velocity": 115}, {"time": 2831, "pitch": 57, "duration": 4, "velocity": 118}, {"time": 2834, "pitch": 60, "duration": 10, "velocity": 112}, {"time": 2837, "pitch": 43, "duration": 2, "velocity": 97}, {"time": 2837, "pitch": 57, "duration": 6, "velocity": 104}, {"time": 2837, "pitch": 65, "duration": 7, "velocity": 115}, {"time": 2840, "pitch": 45, "duration": 2, "velocity": 97}, {"time": 2840, "pitch": 53, "duration": 4, "velocity": 115}, {"time": 2843, "pitch": 46, "duration": 25, "velocity": 120}, {"time": 2843, "pitch": 58, "duration": 10, "velocity": 99}, {"time": 2843, "pitch": 62, "duration": 7, "velocity": 109}, {"time": 2843, "pitch": 65, "duration": 1, "velocity": 104}, {"time": 2849, "pitch": 53, "duration": 36, "velocity": 78}, {"time": 2855, "pitch": 58, "duration": 5, "velocity": 88}, {"time": 2855, "pitch": 62, "duration": 7, "velocity": 115}, {"time": 2855, "pitch": 65, "duration": 10, "velocity": 112}, {"time": 2861, "pitch": 58, "duration": 5, "velocity": 113}, {"time": 2867, "pitch": 45, "duration": 17, "velocity": 101}, {"time": 2867, "pitch": 62, "duration": 7, "velocity": 106}, {"time": 2867, "pitch": 65, "duration": 8, "velocity": 109}, {"time": 2867, "pitch": 70, "duration": 6, "velocity": 97}, {"time": 2873, "pitch": 57, "duration": 8, "velocity": 94}, {"time": 2879, "pitch": 62, "duration": 6, "velocity": 118}, {"time": 2879, "pitch": 65, "duration": 11, "velocity": 112}, {"time": 2885, "pitch": 45, "duration": 5, "velocity": 97}, {"time": 2885, "pitch": 57, "duration": 3, "velocity": 112}, {"time": 2891, "pitch": 39, "duration": 6, "velocity": 110}, {"time": 2891, "pitch": 58, "duration": 7, "velocity": 107}, {"time": 2891, "pitch": 63, "duration": 7, "velocity": 117}, {"time": 2897, "pitch": 55, "duration": 4, "velocity": 109}, {"time": 2903, "pitch": 41, "duration": 9, "velocity": 106}, {"time": 2903, "pitch": 53, "duration": 4, "velocity": 115}, {"time": 2903, "pitch": 57, "duration": 6, "velocity": 115}, {"time": 2909, "pitch": 53, "duration": 3, "velocity": 115}, {"time": 2915, "pitch": 46, "duration": 19, "velocity": 110}, {"time": 2915, "pitch": 58, "duration": 7, "velocity": 120}, {"time": 2915, "pitch": 62, "duration": 7, "velocity": 109}, {"time": 2921, "pitch": 53, "duration": 4, "velocity": 91}, {"time": 2927, "pitch": 58, "duration": 7, "velocity": 123}, {"time": 2927, "pitch": 62, "duration": 8, "velocity": 109}, {"time": 2927, "pitch": 65, "duration": 6, "velocity": 97}, {"time": 2933, "pitch": 53, "duration": 2, "velocity": 109}, {"time": 2939, "pitch": 43, "duration": 21, "velocity": 104}, {"time": 2939, "pitch": 58, "duration": 7, "velocity": 113}, {"time": 2939, "pitch": 62, "duration": 8, "velocity": 109}, {"time": 2945, "pitch": 55, "duration": 4, "velocity": 85}, {"time": 2951, "pitch": 55, "duration": 3, "velocity": 106}, {"time": 2951, "pitch": 58, "duration": 7, "velocity": 120}, {"time": 2951, "pitch": 62, "duration": 7, "velocity": 109}, {"time": 2951, "pitch": 65, "duration": 8, "velocity": 97}, {"time": 2957, "pitch": 55, "duration": 2, "velocity": 112}, {"time": 2963, "pitch": 50, "duration": 15, "velocity": 106}, {"time": 2963, "pitch": 57, "duration": 4, "velocity": 106}, {"time": 2963, "pitch": 62, "duration": 8, "velocity": 109}, {"time": 2969, "pitch": 57, "duration": 3, "velocity": 96}, {"time": 2975, "pitch": 57, "duration": 3, "velocity": 115}, {"time": 2975, "pitch": 62, "duration": 5, "velocity": 115}, {"time": 2975, "pitch": 65, "duration": 7, "velocity": 112}, {"time": 2984, "pitch": 38, "duration": 3, "velocity": 97}, {"time": 2987, "pitch": 39, "duration": 8, "velocity": 107}, {"time": 2987, "pitch": 58, "duration": 6, "velocity": 120}, {"time": 2987, "pitch": 63, "duration": 7, "velocity": 117}, {"time": 2993, "pitch": 55, "duration": 3, "velocity": 118}, {"time": 2999, "pitch": 41, "duration": 8, "velocity": 109}, {"time": 2999, "pitch": 57, "duration": 3, "velocity": 109}, {"time": 2999, "pitch": 60, "duration": 7, "velocity": 109}, {"time": 2999, "pitch": 65, "duration": 7, "velocity": 94}, {"time": 3005, "pitch": 57, "duration": 3, "velocity": 112}, {"time": 3011, "pitch": 46, "duration": 23, "velocity": 117}, {"time": 3011, "pitch": 58, "duration": 7, "velocity": 113}, {"time": 3011, "pitch": 62, "duration": 7, "velocity": 106}, {"time": 3017, "pitch": 53, "duration": 4, "velocity": 106}, {"time": 3023, "pitch": 53, "duration": 3, "velocity": 115}, {"time": 3023, "pitch": 58, "duration": 11, "velocity": 123}, {"time": 3023, "pitch": 62, "duration": 11, "velocity": 112}, {"time": 3029, "pitch": 53, "duration": 6, "velocity": 115}, {"time": 3035, "pitch": 46, "duration": 25, "velocity": 120}, {"time": 3035, "pitch": 58, "duration": 10, "velocity": 99}, {"time": 3035, "pitch": 62, "duration": 7, "velocity": 109}, {"time": 3035, "pitch": 65, "duration": 6, "velocity": 104}, {"time": 3041, "pitch": 53, "duration": 36, "velocity": 78}, {"time": 3047, "pitch": 58, "duration": 1, "velocity": 88}, {"time": 3047, "pitch": 62, "duration": 7, "velocity": 115}, {"time": 3047, "pitch": 65, "duration": 10, "velocity": 112}, {"time": 3053, "pitch": 58, "duration": 5, "velocity": 113}, {"time": 3059, "pitch": 45, "duration": 18, "velocity": 101}, {"time": 3059, "pitch": 62, "duration": 7, "velocity": 106}, {"time": 3059, "pitch": 65, "duration": 8, "velocity": 109}, {"time": 3065, "pitch": 57, "duration": 8, "velocity": 94}, {"time": 3071, "pitch": 62, "duration": 6, "velocity": 118}, {"time": 3071, "pitch": 65, "duration": 11, "velocity": 112}, {"time": 3077, "pitch": 57, "duration": 3, "velocity": 112}, {"time": 3083, "pitch": 39, "duration": 6, "velocity": 110}, {"time": 3083, "pitch": 58, "duration": 7, "velocity": 107}, {"time": 3083, "pitch": 63, "duration": 7, "velocity": 117}, {"time": 3089, "pitch": 55, "duration": 4, "velocity": 109}, {"time": 3095, "pitch": 41, "duration": 9, "velocity": 106}, {"time": 3095, "pitch": 53, "duration": 4, "velocity": 115}, {"time": 3095, "pitch": 57, "duration": 6, "velocity": 115}, {"time": 3101, "pitch": 53, "duration": 3, "velocity": 115}, {"time": 3107, "pitch": 46, "duration": 19, "velocity": 110}, {"time": 3107, "pitch": 58, "duration": 7, "velocity": 120}, {"time": 3107, "pitch": 62, "duration": 7, "velocity": 109}, {"time": 3113, "pitch": 53, "duration": 4, "velocity": 91}, {"time": 3119, "pitch": 58, "duration": 7, "velocity": 123}, {"time": 3119, "pitch": 62, "duration": 8, "velocity": 109}, {"time": 3119, "pitch": 65, "duration": 5, "velocity": 97}, {"time": 3125, "pitch": 53, "duration": 2, "velocity": 109}, {"time": 3131, "pitch": 43, "duration": 21, "velocity": 104}, {"time": 3131, "pitch": 58, "duration": 7, "velocity": 113}, {"time": 3131, "pitch": 62, "duration": 8, "velocity": 109}, {"time": 3137, "pitch": 55, "duration": 4, "velocity": 85}, {"time": 3143, "pitch": 55, "duration": 3, "velocity": 106}, {"time": 3143, "pitch": 58, "duration": 7, "velocity": 120}, {"time": 3143, "pitch": 62, "duration": 7, "velocity": 109}, {"time": 3143, "pitch": 65, "duration": 3, "velocity": 97}, {"time": 3149, "pitch": 55, "duration": 2, "velocity": 112}, {"time": 3155, "pitch": 50, "duration": 14, "velocity": 106}, {"time": 3155, "pitch": 57, "duration": 4, "velocity": 106}, {"time": 3155, "pitch": 62, "duration": 8, "velocity": 109}, {"time": 3161, "pitch": 57, "duration": 3, "velocity": 96}, {"time": 3167, "pitch": 57, "duration": 3, "velocity": 115}, {"time": 3167, "pitch": 62, "duration": 5, "velocity": 115}, {"time": 3167, "pitch": 65, "duration": 7, "velocity": 112}, {"time": 3179, "pitch": 39, "duration": 13, "velocity": 110}, {"time": 3179, "pitch": 58, "duration": 13, "velocity": 110}, {"time": 3179, "pitch": 63, "duration": 14, "velocity": 99}, {"time": 3185, "pitch": 46, "duration": 8, "velocity": 63}, {"time": 3191, "pitch": 55, "duration": 6, "velocity": 109}, {"time": 3194, "pitch": 58, "duration": 4, "velocity": 117}, {"time": 3197, "pitch": 63, "duration": 2, "velocity": 120}, {"time": 3203, "pitch": 41, "duration": 15, "velocity": 106}, {"time": 3203, "pitch": 53, "duration": 4, "velocity": 101}, {"time": 3203, "pitch": 57, "duration": 5, "velocity": 109}, {"time": 3215, "pitch": 53, "duration": 5, "velocity": 85}, {"time": 3215, "pitch": 60, "duration": 5, "velocity": 87}, {"time": 3215, "pitch": 65, "duration": 6, "velocity": 94}, {"time": 3215, "pitch": 69, "duration": 6, "velocity": 106}, {"time": 3227, "pitch": 46, "duration": 47, "velocity": 120}, {"time": 3227, "pitch": 58, "duration": 4, "velocity": 104}, {"time": 3227, "pitch": 62, "duration": 10, "velocity": 109}, {"time": 3233, "pitch": 58, "duration": 7, "velocity": 74}, {"time": 3239, "pitch": 62, "duration": 10, "velocity": 106}, {"time": 3239, "pitch": 65, "duration": 8, "velocity": 109}, {"time": 3245, "pitch": 58, "duration": 5, "velocity": 29}, {"time": 3251, "pitch": 62, "duration": 7, "velocity": 101}, {"time": 3251, "pitch": 65, "duration": 7, "velocity": 99}, {"time": 3257, "pitch": 58, "duration": 3, "velocity": 3}, {"time": 3263, "pitch": 58, "duration": 2, "velocity": 110}, {"time": 3263, "pitch": 62, "duration": 6, "velocity": 112}, {"time": 3263, "pitch": 65, "duration": 11, "velocity": 112}, {"time": 3269, "pitch": 58, "duration": 4, "velocity": 83}, {"time": 3275, "pitch": 46, "duration": 40, "velocity": 110}, {"time": 3275, "pitch": 58, "duration": 4, "velocity": 113}, {"time": 3275, "pitch": 63, "duration": 11, "velocity": 113}, {"time": 3281, "pitch": 58, "duration": 5, "velocity": 66}, {"time": 3287, "pitch": 58, "duration": 3, "velocity": 83}, {"time": 3287, "pitch": 63, "duration": 11, "velocity": 110}, {"time": 3287, "pitch": 65, "duration": 7, "velocity": 106}, {"time": 3293, "pitch": 58, "duration": 7, "velocity": 93}, {"time": 3299, "pitch": 63, "duration": 11, "velocity": 101}, {"time": 3299, "pitch": 67, "duration": 8, "velocity": 112}, {"time": 3305, "pitch": 58, "duration": 5, "velocity": 28}, {"time": 3311, "pitch": 58, "duration": 4, "velocity": 113}, {"time": 3311, "pitch": 63, "duration": 12, "velocity": 113}, {"time": 3317, "pitch": 58, "duration": 6, "velocity": 107}, {"time": 3323, "pitch": 46, "duration": 47, "velocity": 120}, {"time": 3323, "pitch": 58, "duration": 4, "velocity": 104}, {"time": 3323, "pitch": 62, "duration": 10, "velocity": 109}, {"time": 3329, "pitch": 58, "duration": 7, "velocity": 74}, {"time": 3335, "pitch": 62, "duration": 10, "velocity": 106}, {"time": 3335, "pitch": 65, "duration": 8, "velocity": 109}, {"time": 3341, "pitch": 58, "duration": 5, "velocity": 29}, {"time": 3347, "pitch": 62, "duration": 7, "velocity": 101}, {"time": 3347, "pitch": 65, "duration": 7, "velocity": 99}, {"time": 3353, "pitch": 58, "duration": 3, "velocity": 3}, {"time": 3359, "pitch": 58, "duration": 2, "velocity": 110}, {"time": 3359, "pitch": 62, "duration": 6, "velocity": 112}, {"time": 3359, "pitch": 65, "duration": 11, "velocity": 112}, {"time": 3365, "pitch": 58, "duration": 4, "velocity": 83}, {"time": 3371, "pitch": 46, "duration": 21, "velocity": 104}, {"time": 3371, "pitch": 58, "duration": 7, "velocity": 104}, {"time": 3371, "pitch": 63, "duration": 8, "velocity": 101}, {"time": 3377, "pitch": 55, "duration": 5, "velocity": 91}, {"time": 3383, "pitch": 58, "duration": 7, "velocity": 123}, {"time": 3383, "pitch": 63, "duration": 14, "velocity": 113}, {"time": 3389, "pitch": 55, "duration": 4, "velocity": 109}, {"time": 3395, "pitch": 41, "duration": 17, "velocity": 106}, {"time": 3395, "pitch": 53, "duration": 4, "velocity": 106}, {"time": 3395, "pitch": 57, "duration": 7, "velocity": 106}, {"time": 3401, "pitch": 53, "duration": 5, "velocity": 104}, {"time": 3407, "pitch": 57, "duration": 8, "velocity": 115}, {"time": 3407, "pitch": 65, "duration": 8, "velocity": 106}, {"time": 3413, "pitch": 53, "duration": 3, "velocity": 112}, {"time": 3420, "pitch": 46, "duration": 27, "velocity": 110}, {"time": 3424, "pitch": 53, "duration": 23, "velocity": 37}, {"time": 3427, "pitch": 58, "duration": 8, "velocity": 91}, {"time": 3430, "pitch": 62, "duration": 6, "velocity": 104}, {"time": 3435, "pitch": 65, "duration": 2, "velocity": 106}, {"time": 3440, "pitch": 65, "duration": 16, "velocity": 85}, {"time": 3441, "pitch": 70, "duration": 16, "velocity": 70}, {"time": 3442, "pitch": 62, "duration": 13, "velocity": 7}, {"time": 3457, "pitch": 46, "duration": 36, "velocity": 23}, {"time": 3459, "pitch": 62, "duration": 36, "velocity": 76}, {"time": 3459, "pitch": 53, "duration": 34, "velocity": 58}, {"time": 3460, "pitch": 65, "duration": 35, "velocity": 67}, {"time": 3461, "pitch": 74, "duration": 34, "velocity": 27}], "annotations": [{"time": 110, "annotation": {"number": 64, "value": 127}, "group": "control_change"}, {"time": 154, "annotation": {"number": 64, "value": 0}, "group": "control_change"}, {"time": 157, "annotation": {"number": 64, "value": 127}, "group": "control_change"}, {"time": 179, "annotation": {"number": 64, "value": 0}, "group": "control_change"}, {"time": 181, "annotation": {"number": 64, "value": 127}, "group": "control_change"}, {"time": 203, "annotation": {"number": 64, "value": 0}, "group": "control_change"}, {"time": 206, "annotation": {"number": 64, "value": 127}, "group": "control_change"}, {"time": 250, "annotation": {"number": 64, "value": 0}, "group": "control_change"}, {"time": 253, "annotation": {"number": 64, "value": 127}, "group": "control_change"}, {"time": 275, "annotation": {"number": 64, "value": 0}, "group": "control_change"}, {"time": 277, "annotation": {"number": 64, "value": 127}, "group": "control_change"}, {"time": 299, "annotation": {"number": 64, "value": 0}, "group": "control_change"}, {"time": 302, "annotation": {"number": 64, "value": 127}, "group": "control_change"}, {"time": 346, "annotation": {"number": 64, "value": 0}, "group": "control_change"}, {"time": 349, "annotation": {"number": 64, "value": 127}, "group": "control_change"}, {"time": 371, "annotation": {"number": 64, "value": 0}, "group": "control_change"}, {"time": 373, "annotation": {"number": 64, "value": 127}, "group": "control_change"}, {"time": 375, "annotation": {"number": 64, "value": 127}, "group": "control_change"}, {"time": 376, "annotation": {"number": 64, "value": 0}, "group": "control_change"}, {"time": 395, "annotation": {"number": 64, "value": 0}, "group": "control_change"}, {"time": 396, "annotation": {"number": 64, "value": 127}, "group": "control_change"}, {"time": 419, "annotation": {"number": 64, "value": 0}, "group": "control_change"}, {"time": 421, "annotation": {"number": 64, "value": 127}, "group": "control_change"}, {"time": 441, "annotation": {"number": 64, "value": 0}, "group": "control_change"}, {"time": 444, "annotation": {"number": 64, "value": 127}, "group": "control_change"}, {"time": 466, "annotation": {"number": 64, "value": 0}, "group": "control_change"}, {"time": 468, "annotation": {"number": 64, "value": 127}, "group": "control_change"}, {"time": 488, "annotation": {"number": 64, "value": 0}, "group": "control_change"}, {"time": 492, "annotation": {"number": 64, "value": 127}, "group": "control_change"}, {"time": 515, "annotation": {"number": 64, "value": 0}, "group": "control_change"}, {"time": 517, "annotation": {"number": 64, "value": 127}, "group": "control_change"}, {"time": 538, "annotation": {"number": 64, "value": 0}, "group": "control_change"}, {"time": 541, "annotation": {"number": 64, "value": 127}, "group": "control_change"}, {"time": 561, "annotation": {"number": 64, "value": 0}, "group": "control_change"}, {"time": 564, "annotation": {"number": 64, "value": 127}, "group": "control_change"}, {"time": 586, "annotation": {"number": 64, "value": 0}, "group": "control_change"}, {"time": 589, "annotation": {"number": 64, "value": 127}, "group": "control_change"}, {"time": 611, "annotation": {"number": 64, "value": 0}, "group": "control_change"}, {"time": 612, "annotation": {"number": 64, "value": 127}, "group": "control_change"}, {"time": 634, "annotation": {"number": 64, "value": 0}, "group": "control_change"}, {"time": 637, "annotation": {"number": 64, "value": 127}, "group": "control_change"}, {"time": 658, "annotation": {"number": 64, "value": 0}, "group": "control_change"}, {"time": 662, "annotation": {"number": 64, "value": 127}, "group": "control_change"}, {"time": 681, "annotation": {"number": 64, "value": 0}, "group": "control_change"}, {"time": 684, "annotation": {"number": 64, "value": 127}, "group": "control_change"}, {"time": 707, "annotation": {"number": 64, "value": 0}, "group": "control_change"}, {"time": 709, "annotation": {"number": 64, "value": 127}, "group": "control_change"}, {"time": 730, "annotation": {"number": 64, "value": 0}, "group": "control_change"}, {"time": 733, "annotation": {"number": 64, "value": 127}, "group": "control_change"}, {"time": 753, "annotation": {"number": 64, "value": 0}, "group": "control_change"}, {"time": 756, "annotation": {"number": 64, "value": 127}, "group": "control_change"}, {"time": 778, "annotation": {"number": 64, "value": 0}, "group": "control_change"}, {"time": 781, "annotation": {"number": 64, "value": 127}, "group": "control_change"}, {"time": 803, "annotation": {"number": 64, "value": 0}, "group": "control_change"}, {"time": 804, "annotation": {"number": 64, "value": 127}, "group": "control_change"}, {"time": 826, "annotation": {"number": 64, "value": 0}, "group": "control_change"}, {"time": 829, "annotation": {"number": 64, "value": 127}, "group": "control_change"}, {"time": 850, "annotation": {"number": 64, "value": 0}, "group": "control_change"}, {"time": 854, "annotation": {"number": 64, "value": 127}, "group": "control_change"}, {"time": 873, "annotation": {"number": 64, "value": 0}, "group": "control_change"}, {"time": 876, "annotation": {"number": 64, "value": 127}, "group": "control_change"}, {"time": 899, "annotation": {"number": 64, "value": 0}, "group": "control_change"}, {"time": 901, "annotation": {"number": 64, "value": 127}, "group": "control_change"}, {"time": 922, "annotation": {"number": 64, "value": 0}, "group": "control_change"}, {"time": 925, "annotation": {"number": 64, "value": 127}, "group": "control_change"}, {"time": 945, "annotation": {"number": 64, "value": 0}, "group": "control_change"}, {"time": 948, "annotation": {"number": 64, "value": 127}, "group": "control_change"}, {"time": 968, "annotation": {"number": 64, "value": 127}, "group": "control_change"}, {"time": 969, "annotation": {"number": 64, "value": 0}, "group": "control_change"}, {"time": 970, "annotation": {"number": 64, "value": 0}, "group": "control_change"}, {"time": 973, "annotation": {"number": 64, "value": 127}, "group": "control_change"}, {"time": 994, "annotation": {"number": 64, "value": 0}, "group": "control_change"}, {"time": 997, "annotation": {"number": 64, "value": 127}, "group": "control_change"}, {"time": 1017, "annotation": {"number": 64, "value": 0}, "group": "control_change"}, {"time": 1020, "annotation": {"number": 64, "value": 127}, "group": "control_change"}, {"time": 1041, "annotation": {"number": 64, "value": 0}, "group": "control_change"}, {"time": 1044, "annotation": {"number": 64, "value": 127}, "group": "control_change"}, {"time": 1064, "annotation": {"number": 64, "value": 0}, "group": "control_change"}, {"time": 1068, "annotation": {"number": 64, "value": 127}, "group": "control_change"}, {"time": 1091, "annotation": {"number": 64, "value": 0}, "group": "control_change"}, {"time": 1093, "annotation": {"number": 64, "value": 127}, "group": "control_change"}, {"time": 1114, "annotation": {"number": 64, "value": 0}, "group": "control_change"}, {"time": 1117, "annotation": {"number": 64, "value": 127}, "group": "control_change"}, {"time": 1137, "annotation": {"number": 64, "value": 0}, "group": "control_change"}, {"time": 1140, "annotation": {"number": 64, "value": 127}, "group": "control_change"}, {"time": 1160, "annotation": {"number": 64, "value": 127}, "group": "control_change"}, {"time": 1161, "annotation": {"number": 64, "value": 0}, "group": "control_change"}, {"time": 1162, "annotation": {"number": 64, "value": 0}, "group": "control_change"}, {"time": 1165, "annotation": {"number": 64, "value": 127}, "group": "control_change"}, {"time": 1186, "annotation": {"number": 64, "value": 0}, "group": "control_change"}, {"time": 1189, "annotation": {"number": 64, "value": 127}, "group": "control_change"}, {"time": 1209, "annotation": {"number": 64, "value": 0}, "group": "control_change"}, {"time": 1212, "annotation": {"number": 64, "value": 127}, "group": "control_change"}, {"time": 1233, "annotation": {"number": 64, "value": 0}, "group": "control_change"}, {"time": 1236, "annotation": {"number": 64, "value": 127}, "group": "control_change"}, {"time": 1256, "annotation": {"number": 64, "value": 0}, "group": "control_change"}, {"time": 1261, "annotation": {"number": 64, "value": 127}, "group": "control_change"}, {"time": 1282, "annotation": {"number": 64, "value": 0}, "group": "control_change"}, {"time": 1285, "annotation": {"number": 64, "value": 127}, "group": "control_change"}, {"time": 1307, "annotation": {"number": 64, "value": 0}, "group": "control_change"}, {"time": 1308, "annotation": {"number": 64, "value": 127}, "group": "control_change"}, {"time": 1319, "annotation": {"number": 64, "value": 0}, "group": "control_change"}, {"time": 1322, "annotation": {"number": 64, "value": 127}, "group": "control_change"}, {"time": 1330, "annotation": {"number": 64, "value": 0}, "group": "control_change"}, {"time": 1333, "annotation": {"number": 64, "value": 127}, "group": "control_change"}, {"time": 1354, "annotation": {"number": 64, "value": 0}, "group": "control_change"}, {"time": 1357, "annotation": {"number": 64, "value": 127}, "group": "control_change"}, {"time": 1378, "annotation": {"number": 64, "value": 0}, "group": "control_change"}, {"time": 1381, "annotation": {"number": 64, "value": 127}, "group": "control_change"}, {"time": 1401, "annotation": {"number": 64, "value": 0}, "group": "control_change"}, {"time": 1403, "annotation": {"number": 64, "value": 127}, "group": "control_change"}, {"time": 1414, "annotation": {"number": 64, "value": 0}, "group": "control_change"}, {"time": 1416, "annotation": {"number": 64, "value": 127}, "group": "control_change"}, {"time": 1427, "annotation": {"number": 64, "value": 0}, "group": "control_change"}, {"time": 1430, "annotation": {"number": 64, "value": 127}, "group": "control_change"}, {"time": 1446, "annotation": {"number": 64, "value": 0}, "group": "control_change"}, {"time": 1453, "annotation": {"number": 64, "value": 127}, "group": "control_change"}, {"time": 1474, "annotation": {"number": 64, "value": 0}, "group": "control_change"}, {"time": 1477, "annotation": {"number": 64, "value": 127}, "group": "control_change"}, {"time": 1499, "annotation": {"number": 64, "value": 0}, "group": "control_change"}, {"time": 1500, "annotation": {"number": 64, "value": 127}, "group": "control_change"}, {"time": 1511, "annotation": {"number": 64, "value": 0}, "group": "control_change"}, {"time": 1514, "annotation": {"number": 64, "value": 127}, "group": "control_change"}, {"time": 1522, "annotation": {"number": 64, "value": 0}, "group": "control_change"}, {"time": 1525, "annotation": {"number": 64, "value": 127}, "group": "control_change"}, {"time": 1546, "annotation": {"number": 64, "value": 0}, "group": "control_change"}, {"time": 1549, "annotation": {"number": 64, "value": 127}, "group": "control_change"}, {"time": 1570, "annotation": {"number": 64, "value": 0}, "group": "control_change"}, {"time": 1573, "annotation": {"number": 64, "value": 127}, "group": "control_change"}, {"time": 1589, "annotation": {"number": 64, "value": 127}, "group": "control_change"}, {"time": 1590, "annotation": {"number": 64, "value": 0}, "group": "control_change"}, {"time": 1593, "annotation": {"number": 64, "value": 0}, "group": "control_change"}, {"time": 1596, "annotation": {"number": 64, "value": 127}, "group": "control_change"}, {"time": 1617, "annotation": {"number": 64, "value": 0}, "group": "control_change"}, {"time": 1620, "annotation": {"number": 64, "value": 127}, "group": "control_change"}, {"time": 1642, "annotation": {"number": 64, "value": 0}, "group": "control_change"}, {"time": 1646, "annotation": {"number": 64, "value": 127}, "group": "control_change"}, {"time": 1690, "annotation": {"number": 64, "value": 0}, "group": "control_change"}, {"time": 1693, "annotation": {"number": 64, "value": 127}, "group": "control_change"}, {"time": 1715, "annotation": {"number": 64, "value": 0}, "group": "control_change"}, {"time": 1717, "annotation": {"number": 64, "value": 127}, "group": "control_change"}, {"time": 1739, "annotation": {"number": 64, "value": 0}, "group": "control_change"}, {"time": 1742, "annotation": {"number": 64, "value": 127}, "group": "control_change"}, {"time": 1786, "annotation": {"number": 64, "value": 0}, "group": "control_change"}, {"time": 1789, "annotation": {"number": 64, "value": 127}, "group": "control_change"}, {"time": 1811, "annotation": {"number": 64, "value": 0}, "group": "control_change"}, {"time": 1813, "annotation": {"number": 64, "value": 127}, "group": "control_change"}, {"time": 1835, "annotation": {"number": 64, "value": 0}, "group": "control_change"}, {"time": 1838, "annotation": {"number": 64, "value": 127}, "group": "control_change"}, {"time": 1859, "annotation": {"number": 64, "value": 0}, "group": "control_change"}, {"time": 1861, "annotation": {"number": 64, "value": 127}, "group": "control_change"}, {"time": 1882, "annotation": {"number": 64, "value": 0}, "group": "control_change"}, {"time": 1884, "annotation": {"number": 64, "value": 127}, "group": "control_change"}, {"time": 1905, "annotation": {"number": 64, "value": 0}, "group": "control_change"}, {"time": 1907, "annotation": {"number": 64, "value": 127}, "group": "control_change"}, {"time": 1929, "annotation": {"number": 64, "value": 0}, "group": "control_change"}, {"time": 1932, "annotation": {"number": 64, "value": 127}, "group": "control_change"}, {"time": 1954, "annotation": {"number": 64, "value": 0}, "group": "control_change"}, {"time": 1956, "annotation": {"number": 64, "value": 127}, "group": "control_change"}, {"time": 1978, "annotation": {"number": 64, "value": 0}, "group": "control_change"}, {"time": 1980, "annotation": {"number": 64, "value": 127}, "group": "control_change"}, {"time": 2002, "annotation": {"number": 64, "value": 0}, "group": "control_change"}, {"time": 2005, "annotation": {"number": 64, "value": 127}, "group": "control_change"}, {"time": 2024, "annotation": {"number": 64, "value": 0}, "group": "control_change"}, {"time": 2028, "annotation": {"number": 64, "value": 127}, "group": "control_change"}, {"time": 2051, "annotation": {"number": 64, "value": 0}, "group": "control_change"}, {"time": 2053, "annotation": {"number": 64, "value": 127}, "group": "control_change"}, {"time": 2074, "annotation": {"number": 64, "value": 0}, "group": "control_change"}, {"time": 2077, "annotation": {"number": 64, "value": 127}, "group": "control_change"}, {"time": 2097, "annotation": {"number": 64, "value": 0}, "group": "control_change"}, {"time": 2100, "annotation": {"number": 64, "value": 127}, "group": "control_change"}, {"time": 2120, "annotation": {"number": 64, "value": 127}, "group": "control_change"}, {"time": 2121, "annotation": {"number": 64, "value": 0}, "group": "control_change"}, {"time": 2122, "annotation": {"number": 64, "value": 0}, "group": "control_change"}, {"time": 2125, "annotation": {"number": 64, "value": 127}, "group": "control_change"}, {"time": 2146, "annotation": {"number": 64, "value": 0}, "group": "control_change"}, {"time": 2149, "annotation": {"number": 64, "value": 127}, "group": "control_change"}, {"time": 2169, "annotation": {"number": 64, "value": 0}, "group": "control_change"}, {"time": 2172, "annotation": {"number": 64, "value": 127}, "group": "control_change"}, {"time": 2193, "annotation": {"number": 64, "value": 0}, "group": "control_change"}, {"time": 2196, "annotation": {"number": 64, "value": 127}, "group": "control_change"}, {"time": 2216, "annotation": {"number": 64, "value": 0}, "group": "control_change"}, {"time": 2220, "annotation": {"number": 64, "value": 127}, "group": "control_change"}, {"time": 2243, "annotation": {"number": 64, "value": 0}, "group": "control_change"}, {"time": 2245, "annotation": {"number": 64, "value": 127}, "group": "control_change"}, {"time": 2266, "annotation": {"number": 64, "value": 0}, "group": "control_change"}, {"time": 2269, "annotation": {"number": 64, "value": 127}, "group": "control_change"}, {"time": 2289, "annotation": {"number": 64, "value": 0}, "group": "control_change"}, {"time": 2292, "annotation": {"number": 64, "value": 127}, "group": "control_change"}, {"time": 2312, "annotation": {"number": 64, "value": 127}, "group": "control_change"}, {"time": 2313, "annotation": {"number": 64, "value": 0}, "group": "control_change"}, {"time": 2314, "annotation": {"number": 64, "value": 0}, "group": "control_change"}, {"time": 2317, "annotation": {"number": 64, "value": 127}, "group": "control_change"}, {"time": 2338, "annotation": {"number": 64, "value": 0}, "group": "control_change"}, {"time": 2341, "annotation": {"number": 64, "value": 127}, "group": "control_change"}, {"time": 2361, "annotation": {"number": 64, "value": 0}, "group": "control_change"}, {"time": 2364, "annotation": {"number": 64, "value": 127}, "group": "control_change"}, {"time": 2385, "annotation": {"number": 64, "value": 0}, "group": "control_change"}, {"time": 2388, "annotation": {"number": 64, "value": 127}, "group": "control_change"}, {"time": 2408, "annotation": {"number": 64, "value": 0}, "group": "control_change"}, {"time": 2413, "annotation": {"number": 64, "value": 127}, "group": "control_change"}, {"time": 2434, "annotation": {"number": 64, "value": 0}, "group": "control_change"}, {"time": 2437, "annotation": {"number": 64, "value": 127}, "group": "control_change"}, {"time": 2459, "annotation": {"number": 64, "value": 0}, "group": "control_change"}, {"time": 2460, "annotation": {"number": 64, "value": 127}, "group": "control_change"}, {"time": 2471, "annotation": {"number": 64, "value": 0}, "group": "control_change"}, {"time": 2474, "annotation": {"number": 64, "value": 127}, "group": "control_change"}, {"time": 2482, "annotation": {"number": 64, "value": 0}, "group": "control_change"}, {"time": 2485, "annotation": {"number": 64, "value": 127}, "group": "control_change"}, {"time": 2506, "annotation": {"number": 64, "value": 0}, "group": "control_change"}, {"time": 2509, "annotation": {"number": 64, "value": 127}, "group": "control_change"}, {"time": 2530, "annotation": {"number": 64, "value": 0}, "group": "control_change"}, {"time": 2533, "annotation": {"number": 64, "value": 127}, "group": "control_change"}, {"time": 2553, "annotation": {"number": 64, "value": 0}, "group": "control_change"}, {"time": 2555, "annotation": {"number": 64, "value": 127}, "group": "control_change"}, {"time": 2566, "annotation": {"number": 64, "value": 0}, "group": "control_change"}, {"time": 2568, "annotation": {"number": 64, "value": 127}, "group": "control_change"}, {"time": 2579, "annotation": {"number": 64, "value": 0}, "group": "control_change"}, {"time": 2582, "annotation": {"number": 64, "value": 127}, "group": "control_change"}, {"time": 2598, "annotation": {"number": 64, "value": 0}, "group": "control_change"}, {"time": 2605, "annotation": {"number": 64, "value": 127}, "group": "control_change"}, {"time": 2626, "annotation": {"number": 64, "value": 0}, "group": "control_change"}, {"time": 2629, "annotation": {"number": 64, "value": 127}, "group": "control_change"}, {"time": 2651, "annotation": {"number": 64, "value": 0}, "group": "control_change"}, {"time": 2652, "annotation": {"number": 64, "value": 127}, "group": "control_change"}, {"time": 2663, "annotation": {"number": 64, "value": 0}, "group": "control_change"}, {"time": 2666, "annotation": {"number": 64, "value": 127}, "group": "control_change"}, {"time": 2674, "annotation": {"number": 64, "value": 0}, "group": "control_change"}, {"time": 2677, "annotation": {"number": 64, "value": 127}, "group": "control_change"}, {"time": 2698, "annotation": {"number": 64, "value": 0}, "group": "control_change"}, {"time": 2701, "annotation": {"number": 64, "value": 127}, "group": "control_change"}, {"time": 2722, "annotation": {"number": 64, "value": 0}, "group": "control_change"}, {"time": 2725, "annotation": {"number": 64, "value": 127}, "group": "control_change"}, {"time": 2741, "annotation": {"number": 64, "value": 127}, "group": "control_change"}, {"time": 2742, "annotation": {"number": 64, "value": 0}, "group": "control_change"}, {"time": 2745, "annotation": {"number": 64, "value": 0}, "group": "control_change"}, {"time": 2748, "annotation": {"number": 64, "value": 127}, "group": "control_change"}, {"time": 2769, "annotation": {"number": 64, "value": 0}, "group": "control_change"}, {"time": 2772, "annotation": {"number": 64, "value": 127}, "group": "control_change"}, {"time": 2794, "annotation": {"number": 64, "value": 0}, "group": "control_change"}, {"time": 2795, "annotation": {"number": 64, "value": 127}, "group": "control_change"}, {"time": 2817, "annotation": {"number": 64, "value": 0}, "group": "control_change"}, {"time": 2820, "annotation": {"number": 64, "value": 127}, "group": "control_change"}, {"time": 2841, "annotation": {"number": 64, "value": 0}, "group": "control_change"}, {"time": 2845, "annotation": {"number": 64, "value": 127}, "group": "control_change"}, {"time": 2866, "annotation": {"number": 64, "value": 0}, "group": "control_change"}, {"time": 2869, "annotation": {"number": 64, "value": 127}, "group": "control_change"}, {"time": 2891, "annotation": {"number": 64, "value": 0}, "group": "control_change"}, {"time": 2892, "annotation": {"number": 64, "value": 127}, "group": "control_change"}, {"time": 2903, "annotation": {"number": 64, "value": 0}, "group": "control_change"}, {"time": 2906, "annotation": {"number": 64, "value": 127}, "group": "control_change"}, {"time": 2914, "annotation": {"number": 64, "value": 0}, "group": "control_change"}, {"time": 2917, "annotation": {"number": 64, "value": 127}, "group": "control_change"}, {"time": 2938, "annotation": {"number": 64, "value": 0}, "group": "control_change"}, {"time": 2941, "annotation": {"number": 64, "value": 127}, "group": "control_change"}, {"time": 2962, "annotation": {"number": 64, "value": 0}, "group": "control_change"}, {"time": 2965, "annotation": {"number": 64, "value": 127}, "group": "control_change"}, {"time": 2985, "annotation": {"number": 64, "value": 0}, "group": "control_change"}, {"time": 2987, "annotation": {"number": 64, "value": 127}, "group": "control_change"}, {"time": 2998, "annotation": {"number": 64, "value": 0}, "group": "control_change"}, {"time": 3000, "annotation": {"number": 64, "value": 127}, "group": "control_change"}, {"time": 3011, "annotation": {"number": 64, "value": 0}, "group": "control_change"}, {"time": 3014, "annotation": {"number": 64, "value": 127}, "group": "control_change"}, {"time": 3030, "annotation": {"number": 64, "value": 0}, "group": "control_change"}, {"time": 3037, "annotation": {"number": 64, "value": 127}, "group": "control_change"}, {"time": 3058, "annotation": {"number": 64, "value": 0}, "group": "control_change"}, {"time": 3061, "annotation": {"number": 64, "value": 127}, "group": "control_change"}, {"time": 3083, "annotation": {"number": 64, "value": 0}, "group": "control_change"}, {"time": 3084, "annotation": {"number": 64, "value": 127}, "group": "control_change"}, {"time": 3095, "annotation": {"number": 64, "value": 0}, "group": "control_change"}, {"time": 3098, "annotation": {"number": 64, "value": 127}, "group": "control_change"}, {"time": 3106, "annotation": {"number": 64, "value": 0}, "group": "control_change"}, {"time": 3109, "annotation": {"number": 64, "value": 127}, "group": "control_change"}, {"time": 3130, "annotation": {"number": 64, "value": 0}, "group": "control_change"}, {"time": 3133, "annotation": {"number": 64, "value": 127}, "group": "control_change"}, {"time": 3154, "annotation": {"number": 64, "value": 0}, "group": "control_change"}, {"time": 3157, "annotation": {"number": 64, "value": 127}, "group": "control_change"}, {"time": 3173, "annotation": {"number": 64, "value": 127}, "group": "control_change"}, {"time": 3174, "annotation": {"number": 64, "value": 0}, "group": "control_change"}, {"time": 3177, "annotation": {"number": 64, "value": 0}, "group": "control_change"}, {"time": 3180, "annotation": {"number": 64, "value": 127}, "group": "control_change"}, {"time": 3201, "annotation": {"number": 64, "value": 0}, "group": "control_change"}, {"time": 3204, "annotation": {"number": 64, "value": 127}, "group": "control_change"}, {"time": 3226, "annotation": {"number": 64, "value": 0}, "group": "control_change"}, {"time": 3227, "annotation": {"number": 64, "value": 127}, "group": "control_change"}, {"time": 3230, "annotation": {"number": 64, "value": 127}, "group": "control_change"}, {"time": 3274, "annotation": {"number": 64, "value": 0}, "group": "control_change"}, {"time": 3277, "annotation": {"number": 64, "value": 127}, "group": "control_change"}, {"time": 3299, "annotation": {"number": 64, "value": 0}, "group": "control_change"}, {"time": 3301, "annotation": {"number": 64, "value": 127}, "group": "control_change"}, {"time": 3323, "annotation": {"number": 64, "value": 0}, "group": "control_change"}, {"time": 3326, "annotation": {"number": 64, "value": 127}, "group": "control_change"}, {"time": 3370, "annotation": {"number": 64, "value": 0}, "group": "control_change"}, {"time": 3373, "annotation": {"number": 64, "value": 127}, "group": "control_change"}, {"time": 3395, "annotation": {"number": 64, "value": 0}, "group": "control_change"}, {"time": 3397, "annotation": {"number": 64, "value": 127}, "group": "control_change"}, {"time": 3419, "annotation": {"number": 64, "value": 0}, "group": "control_change"}, {"time": 3422, "annotation": {"number": 64, "value": 127}, "group": "control_change"}, {"time": 3507, "annotation": {"number": 64, "value": 0}, "group": "control_change"}]}]}