{"metadata": {"schema_version": "0.2", "title": "None", "source_filename": "023.mid", "source_format": "midi"}, "resolution": 12, "tempos": [{"time": 0, "qpm": 60.0}, {"time": 3374, "qpm": 68.00014960032912}, {"time": 3384, "qpm": 65.00013541694878}, {"time": 3396, "qpm": 62.00005993339127}, {"time": 3408, "qpm": 59.00006686674245}], "time_signatures": [{"time": 0, "numerator": 1, "denominator": 4}], "tracks": [{"program": 4, "is_drum": false, "name": "MELODY", "notes": [{"time": 570, "pitch": 75, "duration": 5, "velocity": 112}, {"time": 576, "pitch": 75, "duration": 10, "velocity": 115}, {"time": 588, "pitch": 70, "duration": 5, "velocity": 109}, {"time": 594, "pitch": 68, "duration": 6, "velocity": 109}, {"time": 600, "pitch": 66, "duration": 4, "velocity": 96}, {"time": 606, "pitch": 63, "duration": 9, "velocity": 109}, {"time": 618, "pitch": 73, "duration": 8, "velocity": 104}, {"time": 627, "pitch": 70, "duration": 2, "velocity": 115}, {"time": 630, "pitch": 73, "duration": 2, "velocity": 112}, {"time": 633, "pitch": 75, "duration": 2, "velocity": 118}, {"time": 636, "pitch": 77, "duration": 5, "velocity": 112}, {"time": 642, "pitch": 75, "duration": 21, "velocity": 115}, {"time": 666, "pitch": 78, "duration": 4, "velocity": 118}, {"time": 672, "pitch": 78, "duration": 11, "velocity": 115}, {"time": 684, "pitch": 77, "duration": 5, "velocity": 109}, {"time": 690, "pitch": 75, "duration": 5, "velocity": 115}, {"time": 696, "pitch": 77, "duration": 2, "velocity": 106}, {"time": 699, "pitch": 75, "duration": 2, "velocity": 109}, {"time": 702, "pitch": 73, "duration": 8, "velocity": 104}, {"time": 714, "pitch": 70, "duration": 2, "velocity": 112}, {"time": 717, "pitch": 70, "duration": 4, "velocity": 115}, {"time": 723, "pitch": 75, "duration": 2, "velocity": 109}, {"time": 726, "pitch": 75, "duration": 4, "velocity": 112}, {"time": 732, "pitch": 68, "duration": 5, "velocity": 112}, {"time": 738, "pitch": 70, "duration": 21, "velocity": 112}, {"time": 762, "pitch": 70, "duration": 8, "velocity": 115}, {"time": 771, "pitch": 75, "duration": 2, "velocity": 101}, {"time": 774, "pitch": 75, "duration": 8, "velocity": 112}, {"time": 783, "pitch": 75, "duration": 2, "velocity": 106}, {"time": 786, "pitch": 75, "duration": 5, "velocity": 112}, {"time": 792, "pitch": 70, "duration": 4, "velocity": 104}, {"time": 798, "pitch": 68, "duration": 9, "velocity": 115}, {"time": 810, "pitch": 70, "duration": 2, "velocity": 115}, {"time": 813, "pitch": 70, "duration": 7, "velocity": 115}, {"time": 822, "pitch": 75, "duration": 5, "velocity": 112}, {"time": 828, "pitch": 75, "duration": 2, "velocity": 115}, {"time": 831, "pitch": 75, "duration": 2, "velocity": 106}, {"time": 834, "pitch": 70, "duration": 4, "velocity": 112}, {"time": 837, "pitch": 71, "duration": 2, "velocity": 101}, {"time": 840, "pitch": 70, "duration": 4, "velocity": 112}, {"time": 846, "pitch": 68, "duration": 9, "velocity": 106}, {"time": 858, "pitch": 65, "duration": 9, "velocity": 115}, {"time": 867, "pitch": 68, "duration": 2, "velocity": 106}, {"time": 870, "pitch": 70, "duration": 4, "velocity": 109}, {"time": 876, "pitch": 70, "duration": 4, "velocity": 109}, {"time": 882, "pitch": 73, "duration": 4, "velocity": 109}, {"time": 888, "pitch": 65, "duration": 4, "velocity": 112}, {"time": 894, "pitch": 63, "duration": 10, "velocity": 109}, {"time": 906, "pitch": 68, "duration": 2, "velocity": 115}, {"time": 909, "pitch": 68, "duration": 5, "velocity": 112}, {"time": 915, "pitch": 70, "duration": 2, "velocity": 106}, {"time": 918, "pitch": 66, "duration": 4, "velocity": 112}, {"time": 924, "pitch": 65, "duration": 4, "velocity": 112}, {"time": 930, "pitch": 63, "duration": 34, "velocity": 115}, {"time": 978, "pitch": 75, "duration": 5, "velocity": 112}, {"time": 984, "pitch": 75, "duration": 10, "velocity": 115}, {"time": 996, "pitch": 70, "duration": 5, "velocity": 109}, {"time": 1002, "pitch": 68, "duration": 6, "velocity": 109}, {"time": 1008, "pitch": 66, "duration": 4, "velocity": 96}, {"time": 1014, "pitch": 63, "duration": 9, "velocity": 109}, {"time": 1026, "pitch": 73, "duration": 8, "velocity": 104}, {"time": 1035, "pitch": 70, "duration": 2, "velocity": 115}, {"time": 1038, "pitch": 73, "duration": 2, "velocity": 112}, {"time": 1041, "pitch": 75, "duration": 2, "velocity": 118}, {"time": 1044, "pitch": 77, "duration": 5, "velocity": 112}, {"time": 1050, "pitch": 75, "duration": 21, "velocity": 115}, {"time": 1074, "pitch": 75, "duration": 4, "velocity": 118}, {"time": 1080, "pitch": 78, "duration": 11, "velocity": 115}, {"time": 1092, "pitch": 77, "duration": 5, "velocity": 109}, {"time": 1098, "pitch": 75, "duration": 5, "velocity": 115}, {"time": 1104, "pitch": 77, "duration": 2, "velocity": 106}, {"time": 1107, "pitch": 75, "duration": 2, "velocity": 109}, {"time": 1110, "pitch": 73, "duration": 8, "velocity": 104}, {"time": 1122, "pitch": 70, "duration": 2, "velocity": 112}, {"time": 1125, "pitch": 70, "duration": 4, "velocity": 115}, {"time": 1131, "pitch": 75, "duration": 2, "velocity": 109}, {"time": 1134, "pitch": 75, "duration": 4, "velocity": 112}, {"time": 1140, "pitch": 68, "duration": 5, "velocity": 112}, {"time": 1146, "pitch": 70, "duration": 21, "velocity": 112}, {"time": 1170, "pitch": 70, "duration": 8, "velocity": 115}, {"time": 1179, "pitch": 75, "duration": 2, "velocity": 101}, {"time": 1182, "pitch": 75, "duration": 8, "velocity": 112}, {"time": 1191, "pitch": 75, "duration": 2, "velocity": 106}, {"time": 1194, "pitch": 75, "duration": 5, "velocity": 112}, {"time": 1200, "pitch": 70, "duration": 4, "velocity": 104}, {"time": 1206, "pitch": 68, "duration": 9, "velocity": 115}, {"time": 1218, "pitch": 70, "duration": 2, "velocity": 115}, {"time": 1221, "pitch": 70, "duration": 7, "velocity": 115}, {"time": 1230, "pitch": 75, "duration": 5, "velocity": 112}, {"time": 1236, "pitch": 75, "duration": 2, "velocity": 115}, {"time": 1239, "pitch": 75, "duration": 2, "velocity": 106}, {"time": 1242, "pitch": 70, "duration": 4, "velocity": 112}, {"time": 1245, "pitch": 71, "duration": 2, "velocity": 101}, {"time": 1248, "pitch": 70, "duration": 4, "velocity": 112}, {"time": 1254, "pitch": 68, "duration": 9, "velocity": 106}, {"time": 1266, "pitch": 65, "duration": 9, "velocity": 115}, {"time": 1275, "pitch": 68, "duration": 2, "velocity": 106}, {"time": 1278, "pitch": 70, "duration": 4, "velocity": 109}, {"time": 1284, "pitch": 70, "duration": 4, "velocity": 109}, {"time": 1290, "pitch": 73, "duration": 4, "velocity": 109}, {"time": 1296, "pitch": 65, "duration": 4, "velocity": 112}, {"time": 1302, "pitch": 63, "duration": 10, "velocity": 109}, {"time": 1314, "pitch": 68, "duration": 2, "velocity": 115}, {"time": 1317, "pitch": 68, "duration": 5, "velocity": 112}, {"time": 1323, "pitch": 70, "duration": 2, "velocity": 106}, {"time": 1326, "pitch": 66, "duration": 4, "velocity": 112}, {"time": 1332, "pitch": 65, "duration": 4, "velocity": 112}, {"time": 1338, "pitch": 63, "duration": 39, "velocity": 115}, {"time": 1746, "pitch": 75, "duration": 2, "velocity": 106}, {"time": 1749, "pitch": 75, "duration": 2, "velocity": 115}, {"time": 1752, "pitch": 75, "duration": 2, "velocity": 118}, {"time": 1755, "pitch": 75, "duration": 3, "velocity": 118}, {"time": 1758, "pitch": 80, "duration": 4, "velocity": 112}, {"time": 1764, "pitch": 82, "duration": 2, "velocity": 115}, {"time": 1767, "pitch": 80, "duration": 2, "velocity": 112}, {"time": 1770, "pitch": 78, "duration": 4, "velocity": 118}, {"time": 1776, "pitch": 78, "duration": 9, "velocity": 118}, {"time": 1788, "pitch": 77, "duration": 2, "velocity": 112}, {"time": 1791, "pitch": 75, "duration": 2, "velocity": 112}, {"time": 1794, "pitch": 73, "duration": 4, "velocity": 112}, {"time": 1800, "pitch": 70, "duration": 4, "velocity": 115}, {"time": 1806, "pitch": 73, "duration": 2, "velocity": 112}, {"time": 1809, "pitch": 75, "duration": 2, "velocity": 115}, {"time": 1812, "pitch": 77, "duration": 5, "velocity": 112}, {"time": 1818, "pitch": 75, "duration": 19, "velocity": 115}, {"time": 1842, "pitch": 75, "duration": 3, "velocity": 115}, {"time": 1845, "pitch": 80, "duration": 2, "velocity": 115}, {"time": 1848, "pitch": 78, "duration": 11, "velocity": 115}, {"time": 1860, "pitch": 77, "duration": 5, "velocity": 112}, {"time": 1866, "pitch": 75, "duration": 5, "velocity": 115}, {"time": 1872, "pitch": 77, "duration": 2, "velocity": 109}, {"time": 1875, "pitch": 75, "duration": 2, "velocity": 112}, {"time": 1878, "pitch": 73, "duration": 7, "velocity": 115}, {"time": 1890, "pitch": 70, "duration": 2, "velocity": 115}, {"time": 1893, "pitch": 70, "duration": 4, "velocity": 115}, {"time": 1899, "pitch": 75, "duration": 2, "velocity": 115}, {"time": 1902, "pitch": 75, "duration": 4, "velocity": 115}, {"time": 1908, "pitch": 68, "duration": 4, "velocity": 115}, {"time": 1914, "pitch": 70, "duration": 23, "velocity": 112}, {"time": 1938, "pitch": 70, "duration": 8, "velocity": 115}, {"time": 1947, "pitch": 75, "duration": 2, "velocity": 101}, {"time": 1950, "pitch": 75, "duration": 8, "velocity": 112}, {"time": 1959, "pitch": 75, "duration": 2, "velocity": 106}, {"time": 1962, "pitch": 75, "duration": 5, "velocity": 112}, {"time": 1968, "pitch": 70, "duration": 4, "velocity": 104}, {"time": 1974, "pitch": 68, "duration": 9, "velocity": 115}, {"time": 1986, "pitch": 70, "duration": 2, "velocity": 115}, {"time": 1989, "pitch": 70, "duration": 6, "velocity": 115}, {"time": 1995, "pitch": 70, "duration": 3, "velocity": 114}, {"time": 1998, "pitch": 75, "duration": 5, "velocity": 112}, {"time": 2004, "pitch": 75, "duration": 2, "velocity": 115}, {"time": 2007, "pitch": 75, "duration": 2, "velocity": 106}, {"time": 2010, "pitch": 70, "duration": 4, "velocity": 112}, {"time": 2013, "pitch": 71, "duration": 2, "velocity": 101}, {"time": 2016, "pitch": 70, "duration": 4, "velocity": 112}, {"time": 2022, "pitch": 68, "duration": 9, "velocity": 106}, {"time": 2034, "pitch": 65, "duration": 9, "velocity": 115}, {"time": 2043, "pitch": 68, "duration": 2, "velocity": 106}, {"time": 2046, "pitch": 70, "duration": 4, "velocity": 109}, {"time": 2052, "pitch": 70, "duration": 4, "velocity": 109}, {"time": 2058, "pitch": 73, "duration": 4, "velocity": 109}, {"time": 2064, "pitch": 65, "duration": 4, "velocity": 112}, {"time": 2070, "pitch": 63, "duration": 10, "velocity": 109}, {"time": 2082, "pitch": 68, "duration": 2, "velocity": 115}, {"time": 2085, "pitch": 68, "duration": 5, "velocity": 112}, {"time": 2091, "pitch": 70, "duration": 2, "velocity": 106}, {"time": 2094, "pitch": 66, "duration": 4, "velocity": 112}, {"time": 2100, "pitch": 65, "duration": 4, "velocity": 112}, {"time": 2106, "pitch": 63, "duration": 39, "velocity": 115}, {"time": 2154, "pitch": 75, "duration": 2, "velocity": 106}, {"time": 2157, "pitch": 75, "duration": 2, "velocity": 115}, {"time": 2160, "pitch": 75, "duration": 2, "velocity": 118}, {"time": 2163, "pitch": 75, "duration": 3, "velocity": 118}, {"time": 2166, "pitch": 80, "duration": 4, "velocity": 112}, {"time": 2172, "pitch": 82, "duration": 2, "velocity": 115}, {"time": 2175, "pitch": 80, "duration": 2, "velocity": 112}, {"time": 2178, "pitch": 78, "duration": 4, "velocity": 118}, {"time": 2184, "pitch": 78, "duration": 9, "velocity": 118}, {"time": 2196, "pitch": 77, "duration": 2, "velocity": 112}, {"time": 2199, "pitch": 75, "duration": 2, "velocity": 112}, {"time": 2202, "pitch": 73, "duration": 4, "velocity": 112}, {"time": 2208, "pitch": 70, "duration": 4, "velocity": 115}, {"time": 2214, "pitch": 73, "duration": 2, "velocity": 112}, {"time": 2217, "pitch": 75, "duration": 2, "velocity": 115}, {"time": 2220, "pitch": 77, "duration": 5, "velocity": 112}, {"time": 2226, "pitch": 75, "duration": 19, "velocity": 115}, {"time": 2250, "pitch": 75, "duration": 3, "velocity": 115}, {"time": 2253, "pitch": 80, "duration": 2, "velocity": 115}, {"time": 2256, "pitch": 78, "duration": 11, "velocity": 115}, {"time": 2268, "pitch": 77, "duration": 5, "velocity": 112}, {"time": 2274, "pitch": 75, "duration": 5, "velocity": 115}, {"time": 2280, "pitch": 77, "duration": 2, "velocity": 109}, {"time": 2283, "pitch": 75, "duration": 2, "velocity": 112}, {"time": 2286, "pitch": 73, "duration": 7, "velocity": 115}, {"time": 2298, "pitch": 70, "duration": 2, "velocity": 115}, {"time": 2301, "pitch": 70, "duration": 4, "velocity": 115}, {"time": 2307, "pitch": 75, "duration": 2, "velocity": 115}, {"time": 2310, "pitch": 75, "duration": 4, "velocity": 115}, {"time": 2316, "pitch": 68, "duration": 4, "velocity": 115}, {"time": 2322, "pitch": 70, "duration": 23, "velocity": 112}, {"time": 2346, "pitch": 70, "duration": 8, "velocity": 115}, {"time": 2355, "pitch": 75, "duration": 2, "velocity": 101}, {"time": 2358, "pitch": 75, "duration": 8, "velocity": 112}, {"time": 2367, "pitch": 75, "duration": 2, "velocity": 106}, {"time": 2370, "pitch": 75, "duration": 5, "velocity": 112}, {"time": 2376, "pitch": 70, "duration": 4, "velocity": 104}, {"time": 2382, "pitch": 68, "duration": 9, "velocity": 115}, {"time": 2394, "pitch": 70, "duration": 2, "velocity": 115}, {"time": 2397, "pitch": 70, "duration": 6, "velocity": 115}, {"time": 2403, "pitch": 70, "duration": 3, "velocity": 114}, {"time": 2406, "pitch": 75, "duration": 5, "velocity": 112}, {"time": 2412, "pitch": 75, "duration": 2, "velocity": 115}, {"time": 2415, "pitch": 75, "duration": 2, "velocity": 106}, {"time": 2418, "pitch": 70, "duration": 4, "velocity": 112}, {"time": 2421, "pitch": 71, "duration": 2, "velocity": 101}, {"time": 2424, "pitch": 70, "duration": 4, "velocity": 112}, {"time": 2430, "pitch": 68, "duration": 9, "velocity": 106}, {"time": 2442, "pitch": 65, "duration": 9, "velocity": 115}, {"time": 2451, "pitch": 68, "duration": 2, "velocity": 106}, {"time": 2454, "pitch": 70, "duration": 4, "velocity": 109}, {"time": 2460, "pitch": 70, "duration": 4, "velocity": 109}, {"time": 2466, "pitch": 73, "duration": 4, "velocity": 109}, {"time": 2472, "pitch": 65, "duration": 4, "velocity": 112}, {"time": 2478, "pitch": 63, "duration": 10, "velocity": 109}, {"time": 2490, "pitch": 68, "duration": 2, "velocity": 115}, {"time": 2493, "pitch": 68, "duration": 5, "velocity": 112}, {"time": 2499, "pitch": 70, "duration": 2, "velocity": 106}, {"time": 2502, "pitch": 66, "duration": 4, "velocity": 112}, {"time": 2508, "pitch": 65, "duration": 4, "velocity": 112}, {"time": 2514, "pitch": 63, "duration": 39, "velocity": 115}, {"time": 2562, "pitch": 75, "duration": 2, "velocity": 106}, {"time": 2565, "pitch": 75, "duration": 2, "velocity": 115}, {"time": 2568, "pitch": 75, "duration": 2, "velocity": 118}, {"time": 2571, "pitch": 75, "duration": 3, "velocity": 118}, {"time": 2574, "pitch": 80, "duration": 4, "velocity": 112}, {"time": 2580, "pitch": 82, "duration": 2, "velocity": 115}, {"time": 2583, "pitch": 80, "duration": 2, "velocity": 112}, {"time": 2586, "pitch": 78, "duration": 4, "velocity": 118}, {"time": 2592, "pitch": 78, "duration": 9, "velocity": 118}, {"time": 2604, "pitch": 77, "duration": 2, "velocity": 112}, {"time": 2607, "pitch": 75, "duration": 2, "velocity": 112}, {"time": 2610, "pitch": 73, "duration": 4, "velocity": 112}, {"time": 2616, "pitch": 70, "duration": 4, "velocity": 115}, {"time": 2622, "pitch": 73, "duration": 2, "velocity": 112}, {"time": 2625, "pitch": 75, "duration": 2, "velocity": 115}, {"time": 2628, "pitch": 77, "duration": 5, "velocity": 112}, {"time": 2634, "pitch": 75, "duration": 19, "velocity": 115}, {"time": 2658, "pitch": 75, "duration": 3, "velocity": 115}, {"time": 2661, "pitch": 80, "duration": 2, "velocity": 115}, {"time": 2664, "pitch": 78, "duration": 11, "velocity": 115}, {"time": 2676, "pitch": 77, "duration": 5, "velocity": 112}, {"time": 2682, "pitch": 75, "duration": 5, "velocity": 115}, {"time": 2688, "pitch": 77, "duration": 2, "velocity": 109}, {"time": 2691, "pitch": 75, "duration": 2, "velocity": 112}, {"time": 2694, "pitch": 73, "duration": 7, "velocity": 115}, {"time": 2706, "pitch": 70, "duration": 2, "velocity": 115}, {"time": 2709, "pitch": 70, "duration": 4, "velocity": 115}, {"time": 2715, "pitch": 75, "duration": 2, "velocity": 115}, {"time": 2718, "pitch": 73, "duration": 4, "velocity": 115}, {"time": 2724, "pitch": 68, "duration": 4, "velocity": 115}, {"time": 2730, "pitch": 70, "duration": 23, "velocity": 112}, {"time": 2754, "pitch": 75, "duration": 8, "velocity": 112}, {"time": 2763, "pitch": 75, "duration": 2, "velocity": 115}, {"time": 2766, "pitch": 75, "duration": 5, "velocity": 112}, {"time": 2772, "pitch": 78, "duration": 5, "velocity": 115}, {"time": 2778, "pitch": 77, "duration": 5, "velocity": 112}, {"time": 2784, "pitch": 75, "duration": 4, "velocity": 118}, {"time": 2790, "pitch": 73, "duration": 9, "velocity": 112}, {"time": 2802, "pitch": 70, "duration": 9, "velocity": 112}, {"time": 2814, "pitch": 70, "duration": 6, "velocity": 112}, {"time": 2820, "pitch": 75, "duration": 4, "velocity": 112}, {"time": 2826, "pitch": 75, "duration": 5, "velocity": 115}, {"time": 2832, "pitch": 70, "duration": 3, "velocity": 107}, {"time": 2835, "pitch": 68, "duration": 3, "velocity": 106}, {"time": 2838, "pitch": 66, "duration": 11, "velocity": 112}, {"time": 2850, "pitch": 65, "duration": 8, "velocity": 115}, {"time": 2859, "pitch": 65, "duration": 2, "velocity": 112}, {"time": 2862, "pitch": 65, "duration": 4, "velocity": 115}, {"time": 2868, "pitch": 68, "duration": 4, "velocity": 112}, {"time": 2874, "pitch": 70, "duration": 12, "velocity": 112}, {"time": 2886, "pitch": 73, "duration": 4, "velocity": 109}, {"time": 2892, "pitch": 75, "duration": 4, "velocity": 115}, {"time": 2898, "pitch": 78, "duration": 4, "velocity": 115}, {"time": 2904, "pitch": 78, "duration": 24, "velocity": 115}, {"time": 2930, "pitch": 75, "duration": 9, "velocity": 115}, {"time": 2943, "pitch": 80, "duration": 8, "velocity": 118}, {"time": 2953, "pitch": 80, "duration": 12, "velocity": 118}, {"time": 2965, "pitch": 82, "duration": 11, "velocity": 118}, {"time": 2977, "pitch": 78, "duration": 9, "velocity": 118}, {"time": 2986, "pitch": 80, "duration": 9, "velocity": 115}, {"time": 2994, "pitch": 78, "duration": 12, "velocity": 121}, {"time": 3006, "pitch": 77, "duration": 18, "velocity": 115}, {"time": 3030, "pitch": 75, "duration": 45, "velocity": 118}]}, {"program": 0, "is_drum": false, "name": "PIANO", "notes": [{"time": 114, "pitch": 39, "duration": 20, "velocity": 105}, {"time": 114, "pitch": 51, "duration": 11, "velocity": 100}, {"time": 120, "pitch": 46, "duration": 17, "velocity": 89}, {"time": 126, "pitch": 54, "duration": 7, "velocity": 114}, {"time": 126, "pitch": 58, "duration": 10, "velocity": 108}, {"time": 126, "pitch": 51, "duration": 7, "velocity": 111}, {"time": 136, "pitch": 37, "duration": 3, "velocity": 105}, {"time": 136, "pitch": 49, "duration": 3, "velocity": 108}, {"time": 138, "pitch": 39, "duration": 3, "velocity": 102}, {"time": 139, "pitch": 51, "duration": 2, "velocity": 114}, {"time": 144, "pitch": 39, "duration": 17, "velocity": 100}, {"time": 144, "pitch": 46, "duration": 17, "velocity": 87}, {"time": 144, "pitch": 54, "duration": 6, "velocity": 100}, {"time": 144, "pitch": 51, "duration": 13, "velocity": 100}, {"time": 150, "pitch": 42, "duration": 11, "velocity": 87}, {"time": 156, "pitch": 54, "duration": 5, "velocity": 105}, {"time": 156, "pitch": 58, "duration": 6, "velocity": 89}, {"time": 162, "pitch": 39, "duration": 20, "velocity": 111}, {"time": 162, "pitch": 51, "duration": 10, "velocity": 120}, {"time": 168, "pitch": 46, "duration": 19, "velocity": 66}, {"time": 174, "pitch": 54, "duration": 6, "velocity": 117}, {"time": 174, "pitch": 58, "duration": 11, "velocity": 114}, {"time": 174, "pitch": 51, "duration": 6, "velocity": 108}, {"time": 184, "pitch": 49, "duration": 3, "velocity": 105}, {"time": 184, "pitch": 37, "duration": 2, "velocity": 102}, {"time": 187, "pitch": 51, "duration": 2, "velocity": 105}, {"time": 187, "pitch": 39, "duration": 2, "velocity": 105}, {"time": 187, "pitch": 40, "duration": 1, "velocity": 102}, {"time": 192, "pitch": 39, "duration": 14, "velocity": 102}, {"time": 192, "pitch": 46, "duration": 14, "velocity": 73}, {"time": 192, "pitch": 54, "duration": 14, "velocity": 102}, {"time": 192, "pitch": 51, "duration": 14, "velocity": 94}, {"time": 192, "pitch": 58, "duration": 14, "velocity": 105}, {"time": 210, "pitch": 39, "duration": 2, "velocity": 109}, {"time": 210, "pitch": 58, "duration": 4, "velocity": 109}, {"time": 210, "pitch": 63, "duration": 4, "velocity": 106}, {"time": 210, "pitch": 66, "duration": 5, "velocity": 106}, {"time": 222, "pitch": 51, "duration": 4, "velocity": 106}, {"time": 222, "pitch": 58, "duration": 5, "velocity": 112}, {"time": 222, "pitch": 63, "duration": 7, "velocity": 109}, {"time": 222, "pitch": 66, "duration": 7, "velocity": 112}, {"time": 222, "pitch": 70, "duration": 7, "velocity": 106}, {"time": 234, "pitch": 47, "duration": 14, "velocity": 120}, {"time": 234, "pitch": 59, "duration": 5, "velocity": 113}, {"time": 234, "pitch": 63, "duration": 5, "velocity": 115}, {"time": 240, "pitch": 54, "duration": 7, "velocity": 67}, {"time": 243, "pitch": 59, "duration": 2, "velocity": 88}, {"time": 246, "pitch": 59, "duration": 4, "velocity": 117}, {"time": 246, "pitch": 63, "duration": 4, "velocity": 115}, {"time": 246, "pitch": 66, "duration": 5, "velocity": 112}, {"time": 249, "pitch": 47, "duration": 2, "velocity": 46}, {"time": 249, "pitch": 54, "duration": 4, "velocity": 91}, {"time": 252, "pitch": 59, "duration": 3, "velocity": 120}, {"time": 258, "pitch": 46, "duration": 17, "velocity": 109}, {"time": 258, "pitch": 58, "duration": 7, "velocity": 109}, {"time": 258, "pitch": 61, "duration": 7, "velocity": 109}, {"time": 264, "pitch": 53, "duration": 7, "velocity": 71}, {"time": 267, "pitch": 58, "duration": 2, "velocity": 87}, {"time": 267, "pitch": 61, "duration": 2, "velocity": 80}, {"time": 270, "pitch": 58, "duration": 4, "velocity": 118}, {"time": 270, "pitch": 61, "duration": 4, "velocity": 115}, {"time": 273, "pitch": 53, "duration": 2, "velocity": 101}, {"time": 276, "pitch": 58, "duration": 5, "velocity": 118}, {"time": 282, "pitch": 39, "duration": 1, "velocity": 109}, {"time": 282, "pitch": 58, "duration": 3, "velocity": 109}, {"time": 282, "pitch": 63, "duration": 3, "velocity": 109}, {"time": 288, "pitch": 51, "duration": 13, "velocity": 96}, {"time": 291, "pitch": 63, "duration": 2, "velocity": 101}, {"time": 291, "pitch": 66, "duration": 2, "velocity": 104}, {"time": 294, "pitch": 63, "duration": 4, "velocity": 112}, {"time": 294, "pitch": 66, "duration": 4, "velocity": 115}, {"time": 297, "pitch": 58, "duration": 4, "velocity": 112}, {"time": 300, "pitch": 65, "duration": 2, "velocity": 118}, {"time": 306, "pitch": 47, "duration": 19, "velocity": 117}, {"time": 306, "pitch": 59, "duration": 9, "velocity": 46}, {"time": 306, "pitch": 63, "duration": 9, "velocity": 80}, {"time": 312, "pitch": 54, "duration": 8, "velocity": 76}, {"time": 318, "pitch": 59, "duration": 3, "velocity": 120}, {"time": 318, "pitch": 63, "duration": 7, "velocity": 115}, {"time": 321, "pitch": 54, "duration": 8, "velocity": 104}, {"time": 324, "pitch": 59, "duration": 5, "velocity": 120}, {"time": 327, "pitch": 63, "duration": 2, "velocity": 104}, {"time": 330, "pitch": 47, "duration": 14, "velocity": 113}, {"time": 330, "pitch": 59, "duration": 10, "velocity": 107}, {"time": 330, "pitch": 63, "duration": 11, "velocity": 106}, {"time": 336, "pitch": 54, "duration": 7, "velocity": 87}, {"time": 342, "pitch": 59, "duration": 4, "velocity": 120}, {"time": 342, "pitch": 63, "duration": 5, "velocity": 115}, {"time": 342, "pitch": 66, "duration": 7, "velocity": 106}, {"time": 345, "pitch": 54, "duration": 3, "velocity": 106}, {"time": 348, "pitch": 59, "duration": 4, "velocity": 123}, {"time": 348, "pitch": 63, "duration": 1, "velocity": 64}, {"time": 351, "pitch": 63, "duration": 2, "velocity": 99}, {"time": 354, "pitch": 44, "duration": 4, "velocity": 112}, {"time": 354, "pitch": 56, "duration": 4, "velocity": 101}, {"time": 354, "pitch": 63, "duration": 4, "velocity": 101}, {"time": 360, "pitch": 56, "duration": 7, "velocity": 109}, {"time": 360, "pitch": 63, "duration": 7, "velocity": 115}, {"time": 366, "pitch": 51, "duration": 5, "velocity": 96}, {"time": 369, "pitch": 56, "duration": 1, "velocity": 104}, {"time": 369, "pitch": 60, "duration": 4, "velocity": 115}, {"time": 369, "pitch": 63, "duration": 5, "velocity": 112}, {"time": 372, "pitch": 44, "duration": 3, "velocity": 101}, {"time": 375, "pitch": 56, "duration": 1, "velocity": 101}, {"time": 378, "pitch": 46, "duration": 16, "velocity": 112}, {"time": 378, "pitch": 58, "duration": 4, "velocity": 109}, {"time": 378, "pitch": 65, "duration": 7, "velocity": 106}, {"time": 381, "pitch": 53, "duration": 7, "velocity": 99}, {"time": 384, "pitch": 58, "duration": 6, "velocity": 109}, {"time": 387, "pitch": 65, "duration": 10, "velocity": 118}, {"time": 390, "pitch": 53, "duration": 5, "velocity": 115}, {"time": 393, "pitch": 58, "duration": 7, "velocity": 118}, {"time": 396, "pitch": 62, "duration": 4, "velocity": 113}, {"time": 399, "pitch": 70, "duration": 2, "velocity": 78}, {"time": 400, "pitch": 63, "duration": 39, "velocity": 89}, {"time": 401, "pitch": 66, "duration": 38, "velocity": 96}, {"time": 402, "pitch": 39, "duration": 37, "velocity": 80}, {"time": 402, "pitch": 70, "duration": 37, "velocity": 55}, {"time": 403, "pitch": 75, "duration": 35, "velocity": 82}, {"time": 448, "pitch": 58, "duration": 45, "velocity": 82}, {"time": 449, "pitch": 61, "duration": 44, "velocity": 85}, {"time": 450, "pitch": 46, "duration": 43, "velocity": 78}, {"time": 450, "pitch": 65, "duration": 43, "velocity": 64}, {"time": 451, "pitch": 70, "duration": 42, "velocity": 87}, {"time": 496, "pitch": 58, "duration": 3, "velocity": 91}, {"time": 497, "pitch": 61, "duration": 4, "velocity": 101}, {"time": 498, "pitch": 65, "duration": 3, "velocity": 106}, {"time": 498, "pitch": 46, "duration": 17, "velocity": 109}, {"time": 498, "pitch": 70, "duration": 4, "velocity": 109}, {"time": 501, "pitch": 53, "duration": 10, "velocity": 64}, {"time": 504, "pitch": 58, "duration": 4, "velocity": 109}, {"time": 507, "pitch": 61, "duration": 2, "velocity": 104}, {"time": 510, "pitch": 58, "duration": 4, "velocity": 112}, {"time": 510, "pitch": 61, "duration": 6, "velocity": 115}, {"time": 510, "pitch": 65, "duration": 7, "velocity": 115}, {"time": 513, "pitch": 53, "duration": 2, "velocity": 82}, {"time": 516, "pitch": 58, "duration": 5, "velocity": 109}, {"time": 522, "pitch": 39, "duration": 1, "velocity": 109}, {"time": 522, "pitch": 58, "duration": 4, "velocity": 106}, {"time": 522, "pitch": 63, "duration": 5, "velocity": 109}, {"time": 531, "pitch": 51, "duration": 14, "velocity": 1}, {"time": 531, "pitch": 58, "duration": 7, "velocity": 101}, {"time": 534, "pitch": 63, "duration": 4, "velocity": 112}, {"time": 537, "pitch": 66, "duration": 3, "velocity": 115}, {"time": 540, "pitch": 58, "duration": 3, "velocity": 64}, {"time": 543, "pitch": 63, "duration": 2, "velocity": 99}, {"time": 546, "pitch": 63, "duration": 18, "velocity": 104}, {"time": 546, "pitch": 51, "duration": 17, "velocity": 104}, {"time": 546, "pitch": 58, "duration": 17, "velocity": 106}, {"time": 546, "pitch": 75, "duration": 19, "velocity": 80}, {"time": 570, "pitch": 51, "duration": 16, "velocity": 96}, {"time": 570, "pitch": 58, "duration": 9, "velocity": 80}, {"time": 570, "pitch": 63, "duration": 9, "velocity": 89}, {"time": 582, "pitch": 58, "duration": 6, "velocity": 96}, {"time": 582, "pitch": 63, "duration": 6, "velocity": 99}, {"time": 582, "pitch": 66, "duration": 6, "velocity": 101}, {"time": 594, "pitch": 63, "duration": 5, "velocity": 94}, {"time": 594, "pitch": 66, "duration": 5, "velocity": 96}, {"time": 606, "pitch": 58, "duration": 3, "velocity": 104}, {"time": 606, "pitch": 63, "duration": 7, "velocity": 109}, {"time": 606, "pitch": 66, "duration": 8, "velocity": 101}, {"time": 612, "pitch": 58, "duration": 4, "velocity": 91}, {"time": 618, "pitch": 46, "duration": 18, "velocity": 104}, {"time": 618, "pitch": 58, "duration": 7, "velocity": 99}, {"time": 618, "pitch": 61, "duration": 6, "velocity": 91}, {"time": 630, "pitch": 58, "duration": 4, "velocity": 104}, {"time": 630, "pitch": 61, "duration": 4, "velocity": 106}, {"time": 630, "pitch": 65, "duration": 4, "velocity": 101}, {"time": 642, "pitch": 51, "duration": 13, "velocity": 99}, {"time": 642, "pitch": 58, "duration": 8, "velocity": 94}, {"time": 642, "pitch": 63, "duration": 7, "velocity": 99}, {"time": 642, "pitch": 66, "duration": 7, "velocity": 94}, {"time": 654, "pitch": 63, "duration": 7, "velocity": 109}, {"time": 654, "pitch": 66, "duration": 7, "velocity": 101}, {"time": 660, "pitch": 58, "duration": 1, "velocity": 96}, {"time": 666, "pitch": 47, "duration": 41, "velocity": 68}, {"time": 666, "pitch": 59, "duration": 10, "velocity": 88}, {"time": 666, "pitch": 63, "duration": 9, "velocity": 104}, {"time": 666, "pitch": 66, "duration": 8, "velocity": 89}, {"time": 678, "pitch": 63, "duration": 11, "velocity": 106}, {"time": 678, "pitch": 66, "duration": 10, "velocity": 104}, {"time": 690, "pitch": 63, "duration": 9, "velocity": 106}, {"time": 690, "pitch": 66, "duration": 9, "velocity": 109}, {"time": 702, "pitch": 59, "duration": 3, "velocity": 107}, {"time": 702, "pitch": 63, "duration": 5, "velocity": 106}, {"time": 702, "pitch": 66, "duration": 7, "velocity": 104}, {"time": 708, "pitch": 59, "duration": 2, "velocity": 107}, {"time": 714, "pitch": 46, "duration": 45, "velocity": 106}, {"time": 714, "pitch": 58, "duration": 9, "velocity": 91}, {"time": 714, "pitch": 61, "duration": 9, "velocity": 82}, {"time": 714, "pitch": 65, "duration": 9, "velocity": 99}, {"time": 726, "pitch": 58, "duration": 10, "velocity": 94}, {"time": 726, "pitch": 61, "duration": 8, "velocity": 85}, {"time": 726, "pitch": 65, "duration": 8, "velocity": 99}, {"time": 738, "pitch": 58, "duration": 6, "velocity": 104}, {"time": 738, "pitch": 65, "duration": 6, "velocity": 101}, {"time": 750, "pitch": 53, "duration": 8, "velocity": 85}, {"time": 750, "pitch": 58, "duration": 4, "velocity": 99}, {"time": 750, "pitch": 61, "duration": 5, "velocity": 101}, {"time": 750, "pitch": 65, "duration": 7, "velocity": 99}, {"time": 756, "pitch": 58, "duration": 5, "velocity": 109}, {"time": 762, "pitch": 51, "duration": 33, "velocity": 99}, {"time": 762, "pitch": 58, "duration": 9, "velocity": 85}, {"time": 762, "pitch": 63, "duration": 8, "velocity": 104}, {"time": 762, "pitch": 66, "duration": 8, "velocity": 104}, {"time": 774, "pitch": 58, "duration": 9, "velocity": 106}, {"time": 774, "pitch": 63, "duration": 9, "velocity": 109}, {"time": 774, "pitch": 66, "duration": 9, "velocity": 104}, {"time": 786, "pitch": 58, "duration": 8, "velocity": 101}, {"time": 786, "pitch": 63, "duration": 7, "velocity": 109}, {"time": 786, "pitch": 66, "duration": 11, "velocity": 106}, {"time": 798, "pitch": 44, "duration": 10, "velocity": 104}, {"time": 798, "pitch": 56, "duration": 9, "velocity": 101}, {"time": 798, "pitch": 63, "duration": 10, "velocity": 106}, {"time": 810, "pitch": 51, "duration": 33, "velocity": 99}, {"time": 810, "pitch": 58, "duration": 9, "velocity": 85}, {"time": 810, "pitch": 63, "duration": 8, "velocity": 104}, {"time": 810, "pitch": 66, "duration": 8, "velocity": 104}, {"time": 822, "pitch": 58, "duration": 9, "velocity": 106}, {"time": 822, "pitch": 63, "duration": 9, "velocity": 109}, {"time": 822, "pitch": 66, "duration": 9, "velocity": 104}, {"time": 834, "pitch": 58, "duration": 8, "velocity": 101}, {"time": 834, "pitch": 63, "duration": 7, "velocity": 109}, {"time": 834, "pitch": 66, "duration": 11, "velocity": 106}, {"time": 846, "pitch": 44, "duration": 10, "velocity": 104}, {"time": 846, "pitch": 56, "duration": 9, "velocity": 101}, {"time": 846, "pitch": 63, "duration": 10, "velocity": 106}, {"time": 858, "pitch": 46, "duration": 24, "velocity": 104}, {"time": 858, "pitch": 58, "duration": 9, "velocity": 99}, {"time": 858, "pitch": 61, "duration": 6, "velocity": 99}, {"time": 858, "pitch": 65, "duration": 7, "velocity": 101}, {"time": 864, "pitch": 53, "duration": 8, "velocity": 61}, {"time": 870, "pitch": 61, "duration": 10, "velocity": 112}, {"time": 870, "pitch": 65, "duration": 10, "velocity": 106}, {"time": 876, "pitch": 53, "duration": 7, "velocity": 73}, {"time": 882, "pitch": 46, "duration": 12, "velocity": 99}, {"time": 882, "pitch": 61, "duration": 9, "velocity": 101}, {"time": 882, "pitch": 65, "duration": 10, "velocity": 96}, {"time": 882, "pitch": 70, "duration": 9, "velocity": 106}, {"time": 888, "pitch": 58, "duration": 5, "velocity": 109}, {"time": 894, "pitch": 51, "duration": 12, "velocity": 104}, {"time": 894, "pitch": 58, "duration": 4, "velocity": 104}, {"time": 894, "pitch": 63, "duration": 10, "velocity": 101}, {"time": 894, "pitch": 65, "duration": 1, "velocity": 94}, {"time": 900, "pitch": 58, "duration": 5, "velocity": 112}, {"time": 906, "pitch": 46, "duration": 19, "velocity": 106}, {"time": 906, "pitch": 58, "duration": 6, "velocity": 96}, {"time": 906, "pitch": 61, "duration": 7, "velocity": 89}, {"time": 906, "pitch": 65, "duration": 7, "velocity": 101}, {"time": 912, "pitch": 53, "duration": 10, "velocity": 80}, {"time": 918, "pitch": 61, "duration": 7, "velocity": 109}, {"time": 918, "pitch": 65, "duration": 10, "velocity": 112}, {"time": 918, "pitch": 70, "duration": 6, "velocity": 109}, {"time": 924, "pitch": 58, "duration": 5, "velocity": 109}, {"time": 930, "pitch": 51, "duration": 47, "velocity": 101}, {"time": 930, "pitch": 58, "duration": 4, "velocity": 106}, {"time": 930, "pitch": 63, "duration": 8, "velocity": 106}, {"time": 936, "pitch": 58, "duration": 4, "velocity": 82}, {"time": 942, "pitch": 63, "duration": 7, "velocity": 101}, {"time": 942, "pitch": 66, "duration": 8, "velocity": 101}, {"time": 954, "pitch": 58, "duration": 11, "velocity": 104}, {"time": 954, "pitch": 63, "duration": 11, "velocity": 106}, {"time": 954, "pitch": 66, "duration": 11, "velocity": 104}, {"time": 966, "pitch": 58, "duration": 2, "velocity": 101}, {"time": 966, "pitch": 63, "duration": 11, "velocity": 112}, {"time": 966, "pitch": 66, "duration": 11, "velocity": 106}, {"time": 972, "pitch": 58, "duration": 5, "velocity": 101}, {"time": 978, "pitch": 51, "duration": 16, "velocity": 96}, {"time": 978, "pitch": 58, "duration": 9, "velocity": 80}, {"time": 978, "pitch": 63, "duration": 9, "velocity": 89}, {"time": 990, "pitch": 58, "duration": 6, "velocity": 96}, {"time": 990, "pitch": 63, "duration": 6, "velocity": 99}, {"time": 990, "pitch": 66, "duration": 6, "velocity": 101}, {"time": 1002, "pitch": 63, "duration": 5, "velocity": 94}, {"time": 1002, "pitch": 66, "duration": 5, "velocity": 96}, {"time": 1014, "pitch": 58, "duration": 3, "velocity": 104}, {"time": 1014, "pitch": 63, "duration": 7, "velocity": 109}, {"time": 1014, "pitch": 66, "duration": 8, "velocity": 101}, {"time": 1020, "pitch": 58, "duration": 4, "velocity": 91}, {"time": 1026, "pitch": 46, "duration": 18, "velocity": 104}, {"time": 1026, "pitch": 58, "duration": 7, "velocity": 99}, {"time": 1026, "pitch": 61, "duration": 6, "velocity": 91}, {"time": 1038, "pitch": 58, "duration": 4, "velocity": 104}, {"time": 1038, "pitch": 61, "duration": 4, "velocity": 106}, {"time": 1038, "pitch": 65, "duration": 4, "velocity": 101}, {"time": 1050, "pitch": 51, "duration": 13, "velocity": 99}, {"time": 1050, "pitch": 58, "duration": 8, "velocity": 94}, {"time": 1050, "pitch": 63, "duration": 7, "velocity": 99}, {"time": 1050, "pitch": 66, "duration": 7, "velocity": 94}, {"time": 1062, "pitch": 63, "duration": 7, "velocity": 109}, {"time": 1062, "pitch": 66, "duration": 7, "velocity": 101}, {"time": 1068, "pitch": 58, "duration": 1, "velocity": 96}, {"time": 1074, "pitch": 47, "duration": 41, "velocity": 68}, {"time": 1074, "pitch": 59, "duration": 10, "velocity": 88}, {"time": 1074, "pitch": 63, "duration": 9, "velocity": 104}, {"time": 1074, "pitch": 66, "duration": 8, "velocity": 89}, {"time": 1086, "pitch": 63, "duration": 11, "velocity": 106}, {"time": 1086, "pitch": 66, "duration": 10, "velocity": 104}, {"time": 1098, "pitch": 63, "duration": 9, "velocity": 106}, {"time": 1098, "pitch": 66, "duration": 9, "velocity": 109}, {"time": 1110, "pitch": 59, "duration": 3, "velocity": 107}, {"time": 1110, "pitch": 63, "duration": 5, "velocity": 106}, {"time": 1110, "pitch": 66, "duration": 7, "velocity": 104}, {"time": 1116, "pitch": 59, "duration": 2, "velocity": 107}, {"time": 1122, "pitch": 46, "duration": 45, "velocity": 106}, {"time": 1122, "pitch": 58, "duration": 9, "velocity": 91}, {"time": 1122, "pitch": 61, "duration": 9, "velocity": 82}, {"time": 1122, "pitch": 65, "duration": 9, "velocity": 99}, {"time": 1134, "pitch": 58, "duration": 10, "velocity": 94}, {"time": 1134, "pitch": 61, "duration": 8, "velocity": 85}, {"time": 1134, "pitch": 65, "duration": 8, "velocity": 99}, {"time": 1146, "pitch": 58, "duration": 6, "velocity": 104}, {"time": 1146, "pitch": 65, "duration": 6, "velocity": 101}, {"time": 1158, "pitch": 53, "duration": 8, "velocity": 85}, {"time": 1158, "pitch": 58, "duration": 4, "velocity": 99}, {"time": 1158, "pitch": 61, "duration": 5, "velocity": 101}, {"time": 1158, "pitch": 65, "duration": 7, "velocity": 99}, {"time": 1164, "pitch": 58, "duration": 5, "velocity": 109}, {"time": 1170, "pitch": 51, "duration": 33, "velocity": 99}, {"time": 1170, "pitch": 58, "duration": 9, "velocity": 85}, {"time": 1170, "pitch": 63, "duration": 8, "velocity": 104}, {"time": 1170, "pitch": 66, "duration": 8, "velocity": 104}, {"time": 1182, "pitch": 58, "duration": 9, "velocity": 106}, {"time": 1182, "pitch": 63, "duration": 9, "velocity": 109}, {"time": 1182, "pitch": 66, "duration": 9, "velocity": 104}, {"time": 1194, "pitch": 58, "duration": 8, "velocity": 101}, {"time": 1194, "pitch": 63, "duration": 7, "velocity": 109}, {"time": 1194, "pitch": 66, "duration": 11, "velocity": 106}, {"time": 1206, "pitch": 44, "duration": 10, "velocity": 104}, {"time": 1206, "pitch": 56, "duration": 9, "velocity": 101}, {"time": 1206, "pitch": 63, "duration": 10, "velocity": 106}, {"time": 1218, "pitch": 51, "duration": 33, "velocity": 99}, {"time": 1218, "pitch": 58, "duration": 9, "velocity": 85}, {"time": 1218, "pitch": 63, "duration": 8, "velocity": 104}, {"time": 1218, "pitch": 66, "duration": 8, "velocity": 104}, {"time": 1230, "pitch": 58, "duration": 9, "velocity": 106}, {"time": 1230, "pitch": 63, "duration": 9, "velocity": 109}, {"time": 1230, "pitch": 66, "duration": 9, "velocity": 104}, {"time": 1242, "pitch": 58, "duration": 8, "velocity": 101}, {"time": 1242, "pitch": 63, "duration": 7, "velocity": 109}, {"time": 1242, "pitch": 66, "duration": 11, "velocity": 106}, {"time": 1254, "pitch": 44, "duration": 10, "velocity": 104}, {"time": 1254, "pitch": 56, "duration": 9, "velocity": 101}, {"time": 1254, "pitch": 63, "duration": 10, "velocity": 106}, {"time": 1266, "pitch": 46, "duration": 24, "velocity": 104}, {"time": 1266, "pitch": 58, "duration": 9, "velocity": 99}, {"time": 1266, "pitch": 61, "duration": 6, "velocity": 99}, {"time": 1266, "pitch": 65, "duration": 7, "velocity": 101}, {"time": 1272, "pitch": 53, "duration": 8, "velocity": 61}, {"time": 1278, "pitch": 61, "duration": 10, "velocity": 112}, {"time": 1278, "pitch": 65, "duration": 10, "velocity": 106}, {"time": 1284, "pitch": 53, "duration": 7, "velocity": 73}, {"time": 1290, "pitch": 46, "duration": 12, "velocity": 99}, {"time": 1290, "pitch": 61, "duration": 9, "velocity": 101}, {"time": 1290, "pitch": 65, "duration": 10, "velocity": 96}, {"time": 1290, "pitch": 70, "duration": 9, "velocity": 106}, {"time": 1296, "pitch": 58, "duration": 5, "velocity": 109}, {"time": 1302, "pitch": 51, "duration": 12, "velocity": 104}, {"time": 1302, "pitch": 58, "duration": 4, "velocity": 104}, {"time": 1302, "pitch": 63, "duration": 10, "velocity": 101}, {"time": 1302, "pitch": 65, "duration": 1, "velocity": 94}, {"time": 1308, "pitch": 58, "duration": 5, "velocity": 112}, {"time": 1314, "pitch": 46, "duration": 19, "velocity": 106}, {"time": 1314, "pitch": 58, "duration": 6, "velocity": 96}, {"time": 1314, "pitch": 61, "duration": 7, "velocity": 89}, {"time": 1314, "pitch": 65, "duration": 7, "velocity": 101}, {"time": 1320, "pitch": 53, "duration": 10, "velocity": 80}, {"time": 1326, "pitch": 61, "duration": 7, "velocity": 109}, {"time": 1326, "pitch": 65, "duration": 10, "velocity": 112}, {"time": 1326, "pitch": 70, "duration": 6, "velocity": 109}, {"time": 1332, "pitch": 58, "duration": 5, "velocity": 109}, {"time": 1338, "pitch": 39, "duration": 2, "velocity": 109}, {"time": 1338, "pitch": 63, "duration": 9, "velocity": 101}, {"time": 1338, "pitch": 66, "duration": 10, "velocity": 104}, {"time": 1338, "pitch": 70, "duration": 10, "velocity": 104}, {"time": 1344, "pitch": 51, "duration": 16, "velocity": 6}, {"time": 1347, "pitch": 58, "duration": 5, "velocity": 96}, {"time": 1350, "pitch": 63, "duration": 7, "velocity": 118}, {"time": 1353, "pitch": 58, "duration": 5, "velocity": 104}, {"time": 1356, "pitch": 66, "duration": 4, "velocity": 115}, {"time": 1359, "pitch": 63, "duration": 8, "velocity": 96}, {"time": 1362, "pitch": 51, "duration": 5, "velocity": 109}, {"time": 1362, "pitch": 58, "duration": 5, "velocity": 112}, {"time": 1362, "pitch": 66, "duration": 5, "velocity": 109}, {"time": 1362, "pitch": 70, "duration": 5, "velocity": 106}, {"time": 1368, "pitch": 51, "duration": 4, "velocity": 101}, {"time": 1368, "pitch": 58, "duration": 4, "velocity": 104}, {"time": 1368, "pitch": 63, "duration": 4, "velocity": 101}, {"time": 1368, "pitch": 66, "duration": 4, "velocity": 109}, {"time": 1368, "pitch": 70, "duration": 4, "velocity": 104}, {"time": 1368, "pitch": 75, "duration": 3, "velocity": 80}, {"time": 1374, "pitch": 51, "duration": 4, "velocity": 115}, {"time": 1374, "pitch": 58, "duration": 4, "velocity": 112}, {"time": 1374, "pitch": 63, "duration": 10, "velocity": 112}, {"time": 1374, "pitch": 66, "duration": 10, "velocity": 115}, {"time": 1374, "pitch": 70, "duration": 10, "velocity": 112}, {"time": 1374, "pitch": 75, "duration": 10, "velocity": 106}, {"time": 1380, "pitch": 51, "duration": 4, "velocity": 112}, {"time": 1380, "pitch": 58, "duration": 5, "velocity": 112}, {"time": 1386, "pitch": 39, "duration": 2, "velocity": 109}, {"time": 1386, "pitch": 58, "duration": 4, "velocity": 109}, {"time": 1386, "pitch": 63, "duration": 4, "velocity": 106}, {"time": 1386, "pitch": 66, "duration": 5, "velocity": 106}, {"time": 1398, "pitch": 51, "duration": 4, "velocity": 106}, {"time": 1398, "pitch": 58, "duration": 5, "velocity": 112}, {"time": 1398, "pitch": 63, "duration": 7, "velocity": 109}, {"time": 1398, "pitch": 66, "duration": 7, "velocity": 112}, {"time": 1398, "pitch": 70, "duration": 7, "velocity": 106}, {"time": 1410, "pitch": 47, "duration": 14, "velocity": 120}, {"time": 1410, "pitch": 59, "duration": 5, "velocity": 113}, {"time": 1410, "pitch": 63, "duration": 5, "velocity": 115}, {"time": 1416, "pitch": 54, "duration": 7, "velocity": 67}, {"time": 1419, "pitch": 59, "duration": 2, "velocity": 88}, {"time": 1422, "pitch": 59, "duration": 4, "velocity": 117}, {"time": 1422, "pitch": 63, "duration": 4, "velocity": 115}, {"time": 1422, "pitch": 66, "duration": 5, "velocity": 112}, {"time": 1425, "pitch": 47, "duration": 2, "velocity": 46}, {"time": 1425, "pitch": 54, "duration": 4, "velocity": 91}, {"time": 1428, "pitch": 59, "duration": 3, "velocity": 120}, {"time": 1434, "pitch": 46, "duration": 17, "velocity": 109}, {"time": 1434, "pitch": 58, "duration": 7, "velocity": 109}, {"time": 1434, "pitch": 61, "duration": 7, "velocity": 109}, {"time": 1440, "pitch": 53, "duration": 7, "velocity": 71}, {"time": 1443, "pitch": 58, "duration": 2, "velocity": 87}, {"time": 1443, "pitch": 61, "duration": 2, "velocity": 80}, {"time": 1446, "pitch": 58, "duration": 4, "velocity": 118}, {"time": 1446, "pitch": 61, "duration": 4, "velocity": 115}, {"time": 1449, "pitch": 53, "duration": 2, "velocity": 101}, {"time": 1452, "pitch": 58, "duration": 5, "velocity": 118}, {"time": 1458, "pitch": 39, "duration": 1, "velocity": 109}, {"time": 1458, "pitch": 58, "duration": 3, "velocity": 109}, {"time": 1458, "pitch": 63, "duration": 3, "velocity": 109}, {"time": 1464, "pitch": 51, "duration": 13, "velocity": 96}, {"time": 1467, "pitch": 63, "duration": 2, "velocity": 101}, {"time": 1467, "pitch": 66, "duration": 2, "velocity": 104}, {"time": 1470, "pitch": 63, "duration": 4, "velocity": 112}, {"time": 1470, "pitch": 66, "duration": 4, "velocity": 115}, {"time": 1473, "pitch": 58, "duration": 4, "velocity": 112}, {"time": 1476, "pitch": 65, "duration": 2, "velocity": 118}, {"time": 1482, "pitch": 47, "duration": 19, "velocity": 117}, {"time": 1482, "pitch": 59, "duration": 9, "velocity": 46}, {"time": 1482, "pitch": 63, "duration": 9, "velocity": 80}, {"time": 1488, "pitch": 54, "duration": 8, "velocity": 76}, {"time": 1494, "pitch": 59, "duration": 3, "velocity": 120}, {"time": 1494, "pitch": 63, "duration": 7, "velocity": 115}, {"time": 1497, "pitch": 54, "duration": 8, "velocity": 104}, {"time": 1500, "pitch": 59, "duration": 5, "velocity": 120}, {"time": 1503, "pitch": 63, "duration": 2, "velocity": 104}, {"time": 1506, "pitch": 47, "duration": 14, "velocity": 113}, {"time": 1506, "pitch": 59, "duration": 10, "velocity": 107}, {"time": 1506, "pitch": 63, "duration": 11, "velocity": 106}, {"time": 1512, "pitch": 54, "duration": 7, "velocity": 87}, {"time": 1518, "pitch": 59, "duration": 4, "velocity": 120}, {"time": 1518, "pitch": 63, "duration": 5, "velocity": 115}, {"time": 1518, "pitch": 66, "duration": 7, "velocity": 106}, {"time": 1521, "pitch": 54, "duration": 3, "velocity": 106}, {"time": 1524, "pitch": 59, "duration": 4, "velocity": 123}, {"time": 1524, "pitch": 63, "duration": 1, "velocity": 64}, {"time": 1527, "pitch": 63, "duration": 2, "velocity": 99}, {"time": 1530, "pitch": 44, "duration": 4, "velocity": 112}, {"time": 1530, "pitch": 56, "duration": 4, "velocity": 101}, {"time": 1530, "pitch": 63, "duration": 4, "velocity": 101}, {"time": 1536, "pitch": 56, "duration": 7, "velocity": 109}, {"time": 1536, "pitch": 63, "duration": 7, "velocity": 115}, {"time": 1542, "pitch": 51, "duration": 5, "velocity": 96}, {"time": 1545, "pitch": 56, "duration": 1, "velocity": 104}, {"time": 1545, "pitch": 60, "duration": 4, "velocity": 115}, {"time": 1545, "pitch": 63, "duration": 5, "velocity": 112}, {"time": 1548, "pitch": 44, "duration": 3, "velocity": 101}, {"time": 1551, "pitch": 56, "duration": 1, "velocity": 101}, {"time": 1554, "pitch": 46, "duration": 16, "velocity": 112}, {"time": 1554, "pitch": 58, "duration": 4, "velocity": 109}, {"time": 1554, "pitch": 65, "duration": 7, "velocity": 106}, {"time": 1557, "pitch": 53, "duration": 7, "velocity": 99}, {"time": 1560, "pitch": 58, "duration": 6, "velocity": 109}, {"time": 1563, "pitch": 65, "duration": 10, "velocity": 118}, {"time": 1566, "pitch": 53, "duration": 5, "velocity": 115}, {"time": 1569, "pitch": 58, "duration": 7, "velocity": 118}, {"time": 1572, "pitch": 62, "duration": 4, "velocity": 113}, {"time": 1575, "pitch": 70, "duration": 2, "velocity": 78}, {"time": 1576, "pitch": 63, "duration": 39, "velocity": 89}, {"time": 1577, "pitch": 66, "duration": 38, "velocity": 96}, {"time": 1578, "pitch": 39, "duration": 37, "velocity": 80}, {"time": 1578, "pitch": 70, "duration": 37, "velocity": 55}, {"time": 1579, "pitch": 75, "duration": 35, "velocity": 82}, {"time": 1624, "pitch": 58, "duration": 45, "velocity": 82}, {"time": 1625, "pitch": 61, "duration": 44, "velocity": 85}, {"time": 1626, "pitch": 46, "duration": 43, "velocity": 78}, {"time": 1626, "pitch": 65, "duration": 43, "velocity": 64}, {"time": 1627, "pitch": 70, "duration": 42, "velocity": 87}, {"time": 1672, "pitch": 58, "duration": 3, "velocity": 91}, {"time": 1673, "pitch": 61, "duration": 4, "velocity": 101}, {"time": 1674, "pitch": 65, "duration": 3, "velocity": 106}, {"time": 1674, "pitch": 46, "duration": 17, "velocity": 109}, {"time": 1674, "pitch": 70, "duration": 4, "velocity": 109}, {"time": 1677, "pitch": 53, "duration": 10, "velocity": 64}, {"time": 1680, "pitch": 58, "duration": 4, "velocity": 109}, {"time": 1683, "pitch": 61, "duration": 2, "velocity": 104}, {"time": 1686, "pitch": 58, "duration": 4, "velocity": 112}, {"time": 1686, "pitch": 61, "duration": 6, "velocity": 115}, {"time": 1686, "pitch": 65, "duration": 7, "velocity": 115}, {"time": 1689, "pitch": 53, "duration": 2, "velocity": 82}, {"time": 1692, "pitch": 58, "duration": 5, "velocity": 109}, {"time": 1698, "pitch": 39, "duration": 2, "velocity": 109}, {"time": 1698, "pitch": 63, "duration": 9, "velocity": 101}, {"time": 1698, "pitch": 66, "duration": 10, "velocity": 104}, {"time": 1698, "pitch": 70, "duration": 10, "velocity": 104}, {"time": 1704, "pitch": 51, "duration": 16, "velocity": 6}, {"time": 1707, "pitch": 58, "duration": 5, "velocity": 96}, {"time": 1710, "pitch": 63, "duration": 7, "velocity": 118}, {"time": 1713, "pitch": 58, "duration": 5, "velocity": 104}, {"time": 1716, "pitch": 66, "duration": 4, "velocity": 115}, {"time": 1719, "pitch": 63, "duration": 8, "velocity": 96}, {"time": 1722, "pitch": 51, "duration": 5, "velocity": 109}, {"time": 1722, "pitch": 58, "duration": 5, "velocity": 112}, {"time": 1722, "pitch": 66, "duration": 5, "velocity": 109}, {"time": 1722, "pitch": 70, "duration": 5, "velocity": 106}, {"time": 1728, "pitch": 51, "duration": 4, "velocity": 101}, {"time": 1728, "pitch": 58, "duration": 4, "velocity": 104}, {"time": 1728, "pitch": 63, "duration": 4, "velocity": 101}, {"time": 1728, "pitch": 66, "duration": 4, "velocity": 109}, {"time": 1728, "pitch": 70, "duration": 4, "velocity": 104}, {"time": 1728, "pitch": 75, "duration": 3, "velocity": 80}, {"time": 1734, "pitch": 51, "duration": 4, "velocity": 115}, {"time": 1734, "pitch": 58, "duration": 4, "velocity": 112}, {"time": 1734, "pitch": 63, "duration": 10, "velocity": 112}, {"time": 1734, "pitch": 66, "duration": 10, "velocity": 115}, {"time": 1734, "pitch": 70, "duration": 10, "velocity": 112}, {"time": 1734, "pitch": 75, "duration": 10, "velocity": 106}, {"time": 1740, "pitch": 51, "duration": 4, "velocity": 112}, {"time": 1740, "pitch": 58, "duration": 5, "velocity": 112}, {"time": 1746, "pitch": 47, "duration": 20, "velocity": 117}, {"time": 1746, "pitch": 59, "duration": 4, "velocity": 110}, {"time": 1746, "pitch": 63, "duration": 6, "velocity": 109}, {"time": 1749, "pitch": 54, "duration": 11, "velocity": 91}, {"time": 1752, "pitch": 59, "duration": 2, "velocity": 113}, {"time": 1755, "pitch": 59, "duration": 1, "velocity": 107}, {"time": 1755, "pitch": 63, "duration": 1, "velocity": 106}, {"time": 1755, "pitch": 66, "duration": 1, "velocity": 85}, {"time": 1758, "pitch": 59, "duration": 4, "velocity": 120}, {"time": 1758, "pitch": 63, "duration": 5, "velocity": 121}, {"time": 1758, "pitch": 66, "duration": 5, "velocity": 112}, {"time": 1761, "pitch": 54, "duration": 6, "velocity": 106}, {"time": 1764, "pitch": 59, "duration": 6, "velocity": 117}, {"time": 1767, "pitch": 63, "duration": 3, "velocity": 112}, {"time": 1767, "pitch": 66, "duration": 5, "velocity": 104}, {"time": 1770, "pitch": 44, "duration": 20, "velocity": 109}, {"time": 1773, "pitch": 51, "duration": 11, "velocity": 89}, {"time": 1776, "pitch": 56, "duration": 2, "velocity": 87}, {"time": 1779, "pitch": 60, "duration": 1, "velocity": 67}, {"time": 1779, "pitch": 63, "duration": 1, "velocity": 74}, {"time": 1782, "pitch": 56, "duration": 4, "velocity": 112}, {"time": 1782, "pitch": 60, "duration": 5, "velocity": 115}, {"time": 1782, "pitch": 63, "duration": 8, "velocity": 115}, {"time": 1785, "pitch": 51, "duration": 5, "velocity": 101}, {"time": 1788, "pitch": 56, "duration": 2, "velocity": 118}, {"time": 1788, "pitch": 60, "duration": 1, "velocity": 85}, {"time": 1794, "pitch": 46, "duration": 16, "velocity": 112}, {"time": 1794, "pitch": 58, "duration": 4, "velocity": 112}, {"time": 1794, "pitch": 61, "duration": 6, "velocity": 104}, {"time": 1797, "pitch": 53, "duration": 11, "velocity": 67}, {"time": 1800, "pitch": 58, "duration": 1, "velocity": 91}, {"time": 1803, "pitch": 58, "duration": 1, "velocity": 91}, {"time": 1803, "pitch": 61, "duration": 1, "velocity": 76}, {"time": 1803, "pitch": 65, "duration": 1, "velocity": 87}, {"time": 1806, "pitch": 58, "duration": 4, "velocity": 115}, {"time": 1806, "pitch": 61, "duration": 5, "velocity": 115}, {"time": 1806, "pitch": 65, "duration": 6, "velocity": 112}, {"time": 1809, "pitch": 53, "duration": 3, "velocity": 71}, {"time": 1812, "pitch": 46, "duration": 3, "velocity": 106}, {"time": 1815, "pitch": 58, "duration": 2, "velocity": 115}, {"time": 1818, "pitch": 39, "duration": 1, "velocity": 112}, {"time": 1818, "pitch": 58, "duration": 3, "velocity": 109}, {"time": 1818, "pitch": 63, "duration": 4, "velocity": 109}, {"time": 1821, "pitch": 51, "duration": 1, "velocity": 91}, {"time": 1824, "pitch": 51, "duration": 8, "velocity": 82}, {"time": 1824, "pitch": 58, "duration": 8, "velocity": 94}, {"time": 1827, "pitch": 63, "duration": 2, "velocity": 104}, {"time": 1827, "pitch": 66, "duration": 2, "velocity": 101}, {"time": 1830, "pitch": 63, "duration": 4, "velocity": 118}, {"time": 1830, "pitch": 66, "duration": 5, "velocity": 118}, {"time": 1833, "pitch": 51, "duration": 2, "velocity": 96}, {"time": 1833, "pitch": 58, "duration": 2, "velocity": 109}, {"time": 1836, "pitch": 63, "duration": 2, "velocity": 118}, {"time": 1842, "pitch": 47, "duration": 13, "velocity": 120}, {"time": 1845, "pitch": 54, "duration": 10, "velocity": 85}, {"time": 1848, "pitch": 59, "duration": 2, "velocity": 74}, {"time": 1851, "pitch": 59, "duration": 1, "velocity": 107}, {"time": 1851, "pitch": 63, "duration": 2, "velocity": 101}, {"time": 1854, "pitch": 59, "duration": 5, "velocity": 120}, {"time": 1854, "pitch": 63, "duration": 5, "velocity": 115}, {"time": 1857, "pitch": 47, "duration": 2, "velocity": 41}, {"time": 1857, "pitch": 54, "duration": 7, "velocity": 91}, {"time": 1860, "pitch": 59, "duration": 7, "velocity": 120}, {"time": 1860, "pitch": 63, "duration": 8, "velocity": 112}, {"time": 1866, "pitch": 44, "duration": 11, "velocity": 109}, {"time": 1869, "pitch": 51, "duration": 8, "velocity": 87}, {"time": 1872, "pitch": 56, "duration": 2, "velocity": 101}, {"time": 1875, "pitch": 56, "duration": 5, "velocity": 115}, {"time": 1875, "pitch": 63, "duration": 5, "velocity": 109}, {"time": 1878, "pitch": 44, "duration": 5, "velocity": 74}, {"time": 1878, "pitch": 51, "duration": 4, "velocity": 101}, {"time": 1881, "pitch": 56, "duration": 4, "velocity": 112}, {"time": 1881, "pitch": 63, "duration": 6, "velocity": 112}, {"time": 1884, "pitch": 44, "duration": 3, "velocity": 101}, {"time": 1890, "pitch": 46, "duration": 23, "velocity": 106}, {"time": 1890, "pitch": 58, "duration": 4, "velocity": 104}, {"time": 1890, "pitch": 61, "duration": 6, "velocity": 104}, {"time": 1893, "pitch": 53, "duration": 11, "velocity": 71}, {"time": 1896, "pitch": 58, "duration": 2, "velocity": 80}, {"time": 1899, "pitch": 58, "duration": 1, "velocity": 101}, {"time": 1899, "pitch": 61, "duration": 1, "velocity": 94}, {"time": 1902, "pitch": 58, "duration": 4, "velocity": 115}, {"time": 1902, "pitch": 61, "duration": 5, "velocity": 115}, {"time": 1905, "pitch": 53, "duration": 2, "velocity": 66}, {"time": 1908, "pitch": 58, "duration": 2, "velocity": 96}, {"time": 1914, "pitch": 46, "duration": 14, "velocity": 104}, {"time": 1914, "pitch": 58, "duration": 7, "velocity": 99}, {"time": 1914, "pitch": 70, "duration": 6, "velocity": 99}, {"time": 1920, "pitch": 53, "duration": 7, "velocity": 54}, {"time": 1923, "pitch": 58, "duration": 2, "velocity": 89}, {"time": 1923, "pitch": 65, "duration": 2, "velocity": 74}, {"time": 1926, "pitch": 58, "duration": 4, "velocity": 118}, {"time": 1926, "pitch": 65, "duration": 4, "velocity": 112}, {"time": 1929, "pitch": 46, "duration": 3, "velocity": 74}, {"time": 1929, "pitch": 53, "duration": 5, "velocity": 109}, {"time": 1932, "pitch": 58, "duration": 6, "velocity": 112}, {"time": 1932, "pitch": 65, "duration": 7, "velocity": 101}, {"time": 1938, "pitch": 51, "duration": 33, "velocity": 99}, {"time": 1938, "pitch": 58, "duration": 1, "velocity": 85}, {"time": 1938, "pitch": 63, "duration": 8, "velocity": 104}, {"time": 1938, "pitch": 66, "duration": 8, "velocity": 104}, {"time": 1950, "pitch": 58, "duration": 9, "velocity": 106}, {"time": 1950, "pitch": 63, "duration": 9, "velocity": 109}, {"time": 1950, "pitch": 66, "duration": 9, "velocity": 104}, {"time": 1962, "pitch": 58, "duration": 8, "velocity": 101}, {"time": 1962, "pitch": 63, "duration": 7, "velocity": 109}, {"time": 1962, "pitch": 66, "duration": 11, "velocity": 106}, {"time": 1974, "pitch": 44, "duration": 10, "velocity": 104}, {"time": 1974, "pitch": 56, "duration": 9, "velocity": 101}, {"time": 1974, "pitch": 63, "duration": 10, "velocity": 106}, {"time": 1986, "pitch": 51, "duration": 33, "velocity": 99}, {"time": 1986, "pitch": 58, "duration": 9, "velocity": 85}, {"time": 1986, "pitch": 63, "duration": 8, "velocity": 104}, {"time": 1986, "pitch": 66, "duration": 8, "velocity": 104}, {"time": 1998, "pitch": 58, "duration": 9, "velocity": 106}, {"time": 1998, "pitch": 63, "duration": 9, "velocity": 109}, {"time": 1998, "pitch": 66, "duration": 9, "velocity": 104}, {"time": 2010, "pitch": 58, "duration": 8, "velocity": 101}, {"time": 2010, "pitch": 63, "duration": 7, "velocity": 109}, {"time": 2010, "pitch": 66, "duration": 11, "velocity": 106}, {"time": 2022, "pitch": 44, "duration": 10, "velocity": 104}, {"time": 2022, "pitch": 56, "duration": 9, "velocity": 101}, {"time": 2022, "pitch": 63, "duration": 10, "velocity": 106}, {"time": 2034, "pitch": 46, "duration": 24, "velocity": 104}, {"time": 2034, "pitch": 58, "duration": 9, "velocity": 99}, {"time": 2034, "pitch": 61, "duration": 6, "velocity": 99}, {"time": 2034, "pitch": 65, "duration": 7, "velocity": 101}, {"time": 2040, "pitch": 53, "duration": 8, "velocity": 61}, {"time": 2046, "pitch": 61, "duration": 10, "velocity": 112}, {"time": 2046, "pitch": 65, "duration": 10, "velocity": 106}, {"time": 2052, "pitch": 53, "duration": 7, "velocity": 73}, {"time": 2058, "pitch": 46, "duration": 12, "velocity": 99}, {"time": 2058, "pitch": 61, "duration": 9, "velocity": 101}, {"time": 2058, "pitch": 65, "duration": 10, "velocity": 96}, {"time": 2058, "pitch": 70, "duration": 9, "velocity": 106}, {"time": 2064, "pitch": 58, "duration": 5, "velocity": 109}, {"time": 2070, "pitch": 51, "duration": 12, "velocity": 104}, {"time": 2070, "pitch": 58, "duration": 4, "velocity": 104}, {"time": 2070, "pitch": 63, "duration": 10, "velocity": 101}, {"time": 2070, "pitch": 65, "duration": 1, "velocity": 94}, {"time": 2076, "pitch": 58, "duration": 5, "velocity": 112}, {"time": 2082, "pitch": 46, "duration": 19, "velocity": 106}, {"time": 2082, "pitch": 58, "duration": 6, "velocity": 96}, {"time": 2082, "pitch": 61, "duration": 7, "velocity": 89}, {"time": 2082, "pitch": 65, "duration": 7, "velocity": 101}, {"time": 2088, "pitch": 53, "duration": 10, "velocity": 80}, {"time": 2094, "pitch": 61, "duration": 7, "velocity": 109}, {"time": 2094, "pitch": 65, "duration": 10, "velocity": 112}, {"time": 2094, "pitch": 70, "duration": 6, "velocity": 109}, {"time": 2100, "pitch": 58, "duration": 5, "velocity": 109}, {"time": 2106, "pitch": 39, "duration": 2, "velocity": 109}, {"time": 2106, "pitch": 63, "duration": 9, "velocity": 101}, {"time": 2106, "pitch": 66, "duration": 10, "velocity": 104}, {"time": 2106, "pitch": 70, "duration": 10, "velocity": 104}, {"time": 2112, "pitch": 51, "duration": 16, "velocity": 6}, {"time": 2115, "pitch": 58, "duration": 5, "velocity": 96}, {"time": 2118, "pitch": 63, "duration": 7, "velocity": 118}, {"time": 2121, "pitch": 58, "duration": 5, "velocity": 104}, {"time": 2124, "pitch": 66, "duration": 4, "velocity": 115}, {"time": 2127, "pitch": 63, "duration": 8, "velocity": 96}, {"time": 2130, "pitch": 51, "duration": 5, "velocity": 109}, {"time": 2130, "pitch": 58, "duration": 5, "velocity": 112}, {"time": 2130, "pitch": 66, "duration": 5, "velocity": 109}, {"time": 2130, "pitch": 70, "duration": 5, "velocity": 106}, {"time": 2136, "pitch": 51, "duration": 4, "velocity": 101}, {"time": 2136, "pitch": 58, "duration": 4, "velocity": 104}, {"time": 2136, "pitch": 63, "duration": 4, "velocity": 101}, {"time": 2136, "pitch": 66, "duration": 4, "velocity": 109}, {"time": 2136, "pitch": 70, "duration": 4, "velocity": 104}, {"time": 2136, "pitch": 75, "duration": 3, "velocity": 80}, {"time": 2142, "pitch": 51, "duration": 4, "velocity": 115}, {"time": 2142, "pitch": 58, "duration": 4, "velocity": 112}, {"time": 2142, "pitch": 63, "duration": 10, "velocity": 112}, {"time": 2142, "pitch": 66, "duration": 10, "velocity": 115}, {"time": 2142, "pitch": 70, "duration": 10, "velocity": 112}, {"time": 2142, "pitch": 75, "duration": 10, "velocity": 106}, {"time": 2148, "pitch": 51, "duration": 4, "velocity": 112}, {"time": 2148, "pitch": 58, "duration": 5, "velocity": 112}, {"time": 2154, "pitch": 47, "duration": 20, "velocity": 117}, {"time": 2154, "pitch": 59, "duration": 4, "velocity": 110}, {"time": 2154, "pitch": 63, "duration": 6, "velocity": 109}, {"time": 2157, "pitch": 54, "duration": 11, "velocity": 91}, {"time": 2160, "pitch": 59, "duration": 2, "velocity": 113}, {"time": 2163, "pitch": 59, "duration": 1, "velocity": 107}, {"time": 2163, "pitch": 63, "duration": 1, "velocity": 106}, {"time": 2163, "pitch": 66, "duration": 1, "velocity": 85}, {"time": 2166, "pitch": 59, "duration": 4, "velocity": 120}, {"time": 2166, "pitch": 63, "duration": 5, "velocity": 121}, {"time": 2166, "pitch": 66, "duration": 5, "velocity": 112}, {"time": 2169, "pitch": 54, "duration": 6, "velocity": 106}, {"time": 2172, "pitch": 59, "duration": 6, "velocity": 117}, {"time": 2175, "pitch": 63, "duration": 3, "velocity": 112}, {"time": 2175, "pitch": 66, "duration": 5, "velocity": 104}, {"time": 2178, "pitch": 44, "duration": 20, "velocity": 109}, {"time": 2181, "pitch": 51, "duration": 11, "velocity": 89}, {"time": 2184, "pitch": 56, "duration": 2, "velocity": 87}, {"time": 2187, "pitch": 60, "duration": 1, "velocity": 67}, {"time": 2187, "pitch": 63, "duration": 1, "velocity": 74}, {"time": 2190, "pitch": 56, "duration": 4, "velocity": 112}, {"time": 2190, "pitch": 60, "duration": 5, "velocity": 115}, {"time": 2190, "pitch": 63, "duration": 8, "velocity": 115}, {"time": 2193, "pitch": 51, "duration": 5, "velocity": 101}, {"time": 2196, "pitch": 56, "duration": 2, "velocity": 118}, {"time": 2196, "pitch": 60, "duration": 1, "velocity": 85}, {"time": 2202, "pitch": 46, "duration": 16, "velocity": 112}, {"time": 2202, "pitch": 58, "duration": 4, "velocity": 112}, {"time": 2202, "pitch": 61, "duration": 6, "velocity": 104}, {"time": 2205, "pitch": 53, "duration": 11, "velocity": 67}, {"time": 2208, "pitch": 58, "duration": 1, "velocity": 91}, {"time": 2211, "pitch": 58, "duration": 1, "velocity": 91}, {"time": 2211, "pitch": 61, "duration": 1, "velocity": 76}, {"time": 2211, "pitch": 65, "duration": 1, "velocity": 87}, {"time": 2214, "pitch": 58, "duration": 4, "velocity": 115}, {"time": 2214, "pitch": 61, "duration": 5, "velocity": 115}, {"time": 2214, "pitch": 65, "duration": 6, "velocity": 112}, {"time": 2217, "pitch": 53, "duration": 3, "velocity": 71}, {"time": 2220, "pitch": 46, "duration": 3, "velocity": 106}, {"time": 2223, "pitch": 58, "duration": 2, "velocity": 115}, {"time": 2226, "pitch": 39, "duration": 1, "velocity": 112}, {"time": 2226, "pitch": 58, "duration": 3, "velocity": 109}, {"time": 2226, "pitch": 63, "duration": 4, "velocity": 109}, {"time": 2229, "pitch": 51, "duration": 1, "velocity": 91}, {"time": 2232, "pitch": 51, "duration": 8, "velocity": 82}, {"time": 2232, "pitch": 58, "duration": 8, "velocity": 94}, {"time": 2235, "pitch": 63, "duration": 2, "velocity": 104}, {"time": 2235, "pitch": 66, "duration": 2, "velocity": 101}, {"time": 2238, "pitch": 63, "duration": 4, "velocity": 118}, {"time": 2238, "pitch": 66, "duration": 5, "velocity": 118}, {"time": 2241, "pitch": 51, "duration": 2, "velocity": 96}, {"time": 2241, "pitch": 58, "duration": 2, "velocity": 109}, {"time": 2244, "pitch": 63, "duration": 2, "velocity": 118}, {"time": 2250, "pitch": 47, "duration": 13, "velocity": 120}, {"time": 2253, "pitch": 54, "duration": 10, "velocity": 85}, {"time": 2256, "pitch": 59, "duration": 2, "velocity": 74}, {"time": 2259, "pitch": 59, "duration": 1, "velocity": 107}, {"time": 2259, "pitch": 63, "duration": 2, "velocity": 101}, {"time": 2262, "pitch": 59, "duration": 5, "velocity": 120}, {"time": 2262, "pitch": 63, "duration": 5, "velocity": 115}, {"time": 2265, "pitch": 47, "duration": 2, "velocity": 41}, {"time": 2265, "pitch": 54, "duration": 7, "velocity": 91}, {"time": 2268, "pitch": 59, "duration": 7, "velocity": 120}, {"time": 2268, "pitch": 63, "duration": 8, "velocity": 112}, {"time": 2274, "pitch": 44, "duration": 11, "velocity": 109}, {"time": 2277, "pitch": 51, "duration": 8, "velocity": 87}, {"time": 2280, "pitch": 56, "duration": 2, "velocity": 101}, {"time": 2283, "pitch": 56, "duration": 5, "velocity": 115}, {"time": 2283, "pitch": 63, "duration": 5, "velocity": 109}, {"time": 2286, "pitch": 44, "duration": 5, "velocity": 74}, {"time": 2286, "pitch": 51, "duration": 4, "velocity": 101}, {"time": 2289, "pitch": 56, "duration": 4, "velocity": 112}, {"time": 2289, "pitch": 63, "duration": 6, "velocity": 112}, {"time": 2292, "pitch": 44, "duration": 3, "velocity": 101}, {"time": 2298, "pitch": 46, "duration": 23, "velocity": 106}, {"time": 2298, "pitch": 58, "duration": 4, "velocity": 104}, {"time": 2298, "pitch": 61, "duration": 6, "velocity": 104}, {"time": 2301, "pitch": 53, "duration": 11, "velocity": 71}, {"time": 2304, "pitch": 58, "duration": 2, "velocity": 80}, {"time": 2307, "pitch": 58, "duration": 1, "velocity": 101}, {"time": 2307, "pitch": 61, "duration": 1, "velocity": 94}, {"time": 2310, "pitch": 58, "duration": 4, "velocity": 115}, {"time": 2310, "pitch": 61, "duration": 5, "velocity": 115}, {"time": 2313, "pitch": 53, "duration": 2, "velocity": 66}, {"time": 2316, "pitch": 58, "duration": 2, "velocity": 96}, {"time": 2322, "pitch": 46, "duration": 14, "velocity": 104}, {"time": 2322, "pitch": 58, "duration": 7, "velocity": 99}, {"time": 2322, "pitch": 70, "duration": 6, "velocity": 99}, {"time": 2328, "pitch": 53, "duration": 7, "velocity": 54}, {"time": 2331, "pitch": 58, "duration": 2, "velocity": 89}, {"time": 2331, "pitch": 65, "duration": 2, "velocity": 74}, {"time": 2334, "pitch": 58, "duration": 4, "velocity": 118}, {"time": 2334, "pitch": 65, "duration": 4, "velocity": 112}, {"time": 2337, "pitch": 46, "duration": 3, "velocity": 74}, {"time": 2337, "pitch": 53, "duration": 5, "velocity": 109}, {"time": 2340, "pitch": 58, "duration": 6, "velocity": 112}, {"time": 2340, "pitch": 65, "duration": 7, "velocity": 101}, {"time": 2346, "pitch": 51, "duration": 33, "velocity": 99}, {"time": 2346, "pitch": 58, "duration": 1, "velocity": 85}, {"time": 2346, "pitch": 63, "duration": 8, "velocity": 104}, {"time": 2346, "pitch": 66, "duration": 8, "velocity": 104}, {"time": 2358, "pitch": 58, "duration": 9, "velocity": 106}, {"time": 2358, "pitch": 63, "duration": 9, "velocity": 109}, {"time": 2358, "pitch": 66, "duration": 9, "velocity": 104}, {"time": 2370, "pitch": 58, "duration": 8, "velocity": 101}, {"time": 2370, "pitch": 63, "duration": 7, "velocity": 109}, {"time": 2370, "pitch": 66, "duration": 11, "velocity": 106}, {"time": 2382, "pitch": 44, "duration": 10, "velocity": 104}, {"time": 2382, "pitch": 56, "duration": 9, "velocity": 101}, {"time": 2382, "pitch": 63, "duration": 10, "velocity": 106}, {"time": 2394, "pitch": 51, "duration": 33, "velocity": 99}, {"time": 2394, "pitch": 58, "duration": 9, "velocity": 85}, {"time": 2394, "pitch": 63, "duration": 8, "velocity": 104}, {"time": 2394, "pitch": 66, "duration": 8, "velocity": 104}, {"time": 2406, "pitch": 58, "duration": 9, "velocity": 106}, {"time": 2406, "pitch": 63, "duration": 9, "velocity": 109}, {"time": 2406, "pitch": 66, "duration": 9, "velocity": 104}, {"time": 2418, "pitch": 58, "duration": 8, "velocity": 101}, {"time": 2418, "pitch": 63, "duration": 7, "velocity": 109}, {"time": 2418, "pitch": 66, "duration": 11, "velocity": 106}, {"time": 2430, "pitch": 44, "duration": 10, "velocity": 104}, {"time": 2430, "pitch": 56, "duration": 9, "velocity": 101}, {"time": 2430, "pitch": 63, "duration": 10, "velocity": 106}, {"time": 2442, "pitch": 46, "duration": 24, "velocity": 104}, {"time": 2442, "pitch": 58, "duration": 9, "velocity": 99}, {"time": 2442, "pitch": 61, "duration": 6, "velocity": 99}, {"time": 2442, "pitch": 65, "duration": 7, "velocity": 101}, {"time": 2448, "pitch": 53, "duration": 8, "velocity": 61}, {"time": 2454, "pitch": 61, "duration": 10, "velocity": 112}, {"time": 2454, "pitch": 65, "duration": 10, "velocity": 106}, {"time": 2460, "pitch": 53, "duration": 7, "velocity": 73}, {"time": 2466, "pitch": 46, "duration": 12, "velocity": 99}, {"time": 2466, "pitch": 61, "duration": 9, "velocity": 101}, {"time": 2466, "pitch": 65, "duration": 10, "velocity": 96}, {"time": 2466, "pitch": 70, "duration": 9, "velocity": 106}, {"time": 2472, "pitch": 58, "duration": 5, "velocity": 109}, {"time": 2478, "pitch": 51, "duration": 12, "velocity": 104}, {"time": 2478, "pitch": 58, "duration": 4, "velocity": 104}, {"time": 2478, "pitch": 63, "duration": 10, "velocity": 101}, {"time": 2478, "pitch": 65, "duration": 1, "velocity": 94}, {"time": 2484, "pitch": 58, "duration": 5, "velocity": 112}, {"time": 2490, "pitch": 46, "duration": 19, "velocity": 106}, {"time": 2490, "pitch": 58, "duration": 6, "velocity": 96}, {"time": 2490, "pitch": 61, "duration": 7, "velocity": 89}, {"time": 2490, "pitch": 65, "duration": 7, "velocity": 101}, {"time": 2496, "pitch": 53, "duration": 10, "velocity": 80}, {"time": 2502, "pitch": 61, "duration": 7, "velocity": 109}, {"time": 2502, "pitch": 65, "duration": 10, "velocity": 112}, {"time": 2502, "pitch": 70, "duration": 6, "velocity": 109}, {"time": 2508, "pitch": 58, "duration": 5, "velocity": 109}, {"time": 2514, "pitch": 39, "duration": 2, "velocity": 109}, {"time": 2514, "pitch": 63, "duration": 9, "velocity": 101}, {"time": 2514, "pitch": 66, "duration": 10, "velocity": 104}, {"time": 2514, "pitch": 70, "duration": 10, "velocity": 104}, {"time": 2520, "pitch": 51, "duration": 16, "velocity": 6}, {"time": 2523, "pitch": 58, "duration": 5, "velocity": 96}, {"time": 2526, "pitch": 63, "duration": 7, "velocity": 118}, {"time": 2529, "pitch": 58, "duration": 5, "velocity": 104}, {"time": 2532, "pitch": 66, "duration": 4, "velocity": 115}, {"time": 2535, "pitch": 63, "duration": 8, "velocity": 96}, {"time": 2538, "pitch": 51, "duration": 5, "velocity": 109}, {"time": 2538, "pitch": 58, "duration": 5, "velocity": 112}, {"time": 2538, "pitch": 66, "duration": 5, "velocity": 109}, {"time": 2538, "pitch": 70, "duration": 5, "velocity": 106}, {"time": 2544, "pitch": 51, "duration": 4, "velocity": 101}, {"time": 2544, "pitch": 58, "duration": 4, "velocity": 104}, {"time": 2544, "pitch": 63, "duration": 4, "velocity": 101}, {"time": 2544, "pitch": 66, "duration": 4, "velocity": 109}, {"time": 2544, "pitch": 70, "duration": 4, "velocity": 104}, {"time": 2544, "pitch": 75, "duration": 3, "velocity": 80}, {"time": 2550, "pitch": 51, "duration": 4, "velocity": 115}, {"time": 2550, "pitch": 58, "duration": 4, "velocity": 112}, {"time": 2550, "pitch": 63, "duration": 10, "velocity": 112}, {"time": 2550, "pitch": 66, "duration": 10, "velocity": 115}, {"time": 2550, "pitch": 70, "duration": 10, "velocity": 112}, {"time": 2550, "pitch": 75, "duration": 10, "velocity": 106}, {"time": 2556, "pitch": 51, "duration": 4, "velocity": 112}, {"time": 2556, "pitch": 58, "duration": 5, "velocity": 112}, {"time": 2562, "pitch": 47, "duration": 20, "velocity": 117}, {"time": 2562, "pitch": 59, "duration": 4, "velocity": 110}, {"time": 2562, "pitch": 63, "duration": 6, "velocity": 109}, {"time": 2565, "pitch": 54, "duration": 11, "velocity": 91}, {"time": 2568, "pitch": 59, "duration": 2, "velocity": 113}, {"time": 2571, "pitch": 59, "duration": 1, "velocity": 107}, {"time": 2571, "pitch": 63, "duration": 1, "velocity": 106}, {"time": 2571, "pitch": 66, "duration": 1, "velocity": 85}, {"time": 2574, "pitch": 59, "duration": 4, "velocity": 120}, {"time": 2574, "pitch": 63, "duration": 5, "velocity": 121}, {"time": 2574, "pitch": 66, "duration": 5, "velocity": 112}, {"time": 2577, "pitch": 54, "duration": 6, "velocity": 106}, {"time": 2580, "pitch": 59, "duration": 6, "velocity": 117}, {"time": 2583, "pitch": 63, "duration": 3, "velocity": 112}, {"time": 2583, "pitch": 66, "duration": 5, "velocity": 104}, {"time": 2586, "pitch": 44, "duration": 20, "velocity": 109}, {"time": 2589, "pitch": 51, "duration": 11, "velocity": 89}, {"time": 2592, "pitch": 56, "duration": 2, "velocity": 87}, {"time": 2595, "pitch": 60, "duration": 1, "velocity": 67}, {"time": 2595, "pitch": 63, "duration": 1, "velocity": 74}, {"time": 2598, "pitch": 56, "duration": 4, "velocity": 112}, {"time": 2598, "pitch": 60, "duration": 5, "velocity": 115}, {"time": 2598, "pitch": 63, "duration": 8, "velocity": 115}, {"time": 2601, "pitch": 51, "duration": 5, "velocity": 101}, {"time": 2604, "pitch": 56, "duration": 2, "velocity": 118}, {"time": 2604, "pitch": 60, "duration": 1, "velocity": 85}, {"time": 2610, "pitch": 46, "duration": 16, "velocity": 112}, {"time": 2610, "pitch": 58, "duration": 4, "velocity": 112}, {"time": 2610, "pitch": 61, "duration": 6, "velocity": 104}, {"time": 2613, "pitch": 53, "duration": 11, "velocity": 67}, {"time": 2616, "pitch": 58, "duration": 1, "velocity": 91}, {"time": 2619, "pitch": 58, "duration": 1, "velocity": 91}, {"time": 2619, "pitch": 61, "duration": 1, "velocity": 76}, {"time": 2619, "pitch": 65, "duration": 1, "velocity": 87}, {"time": 2622, "pitch": 58, "duration": 4, "velocity": 115}, {"time": 2622, "pitch": 61, "duration": 5, "velocity": 115}, {"time": 2622, "pitch": 65, "duration": 6, "velocity": 112}, {"time": 2625, "pitch": 53, "duration": 3, "velocity": 71}, {"time": 2628, "pitch": 46, "duration": 3, "velocity": 106}, {"time": 2631, "pitch": 58, "duration": 2, "velocity": 115}, {"time": 2634, "pitch": 39, "duration": 1, "velocity": 112}, {"time": 2634, "pitch": 58, "duration": 3, "velocity": 109}, {"time": 2634, "pitch": 63, "duration": 4, "velocity": 109}, {"time": 2637, "pitch": 51, "duration": 1, "velocity": 91}, {"time": 2640, "pitch": 51, "duration": 8, "velocity": 82}, {"time": 2640, "pitch": 58, "duration": 8, "velocity": 94}, {"time": 2643, "pitch": 63, "duration": 2, "velocity": 104}, {"time": 2643, "pitch": 66, "duration": 2, "velocity": 101}, {"time": 2646, "pitch": 63, "duration": 4, "velocity": 118}, {"time": 2646, "pitch": 66, "duration": 5, "velocity": 118}, {"time": 2649, "pitch": 51, "duration": 2, "velocity": 96}, {"time": 2649, "pitch": 58, "duration": 2, "velocity": 109}, {"time": 2652, "pitch": 63, "duration": 2, "velocity": 118}, {"time": 2658, "pitch": 47, "duration": 13, "velocity": 120}, {"time": 2661, "pitch": 54, "duration": 10, "velocity": 85}, {"time": 2664, "pitch": 59, "duration": 2, "velocity": 74}, {"time": 2667, "pitch": 59, "duration": 1, "velocity": 107}, {"time": 2667, "pitch": 63, "duration": 2, "velocity": 101}, {"time": 2670, "pitch": 59, "duration": 5, "velocity": 120}, {"time": 2670, "pitch": 63, "duration": 5, "velocity": 115}, {"time": 2673, "pitch": 47, "duration": 2, "velocity": 41}, {"time": 2673, "pitch": 54, "duration": 7, "velocity": 91}, {"time": 2676, "pitch": 59, "duration": 7, "velocity": 120}, {"time": 2676, "pitch": 63, "duration": 8, "velocity": 112}, {"time": 2682, "pitch": 44, "duration": 11, "velocity": 109}, {"time": 2685, "pitch": 51, "duration": 8, "velocity": 87}, {"time": 2688, "pitch": 56, "duration": 2, "velocity": 101}, {"time": 2691, "pitch": 56, "duration": 5, "velocity": 115}, {"time": 2691, "pitch": 63, "duration": 5, "velocity": 109}, {"time": 2694, "pitch": 44, "duration": 5, "velocity": 74}, {"time": 2694, "pitch": 51, "duration": 4, "velocity": 101}, {"time": 2697, "pitch": 56, "duration": 4, "velocity": 112}, {"time": 2697, "pitch": 63, "duration": 6, "velocity": 112}, {"time": 2700, "pitch": 44, "duration": 3, "velocity": 101}, {"time": 2706, "pitch": 46, "duration": 23, "velocity": 106}, {"time": 2706, "pitch": 58, "duration": 4, "velocity": 104}, {"time": 2706, "pitch": 61, "duration": 6, "velocity": 104}, {"time": 2709, "pitch": 53, "duration": 11, "velocity": 71}, {"time": 2712, "pitch": 58, "duration": 2, "velocity": 80}, {"time": 2715, "pitch": 58, "duration": 1, "velocity": 101}, {"time": 2715, "pitch": 61, "duration": 1, "velocity": 94}, {"time": 2718, "pitch": 58, "duration": 4, "velocity": 115}, {"time": 2718, "pitch": 61, "duration": 5, "velocity": 115}, {"time": 2721, "pitch": 53, "duration": 2, "velocity": 66}, {"time": 2724, "pitch": 58, "duration": 2, "velocity": 96}, {"time": 2730, "pitch": 46, "duration": 14, "velocity": 104}, {"time": 2730, "pitch": 58, "duration": 7, "velocity": 99}, {"time": 2730, "pitch": 70, "duration": 6, "velocity": 99}, {"time": 2736, "pitch": 53, "duration": 7, "velocity": 54}, {"time": 2739, "pitch": 58, "duration": 2, "velocity": 89}, {"time": 2739, "pitch": 65, "duration": 2, "velocity": 74}, {"time": 2742, "pitch": 58, "duration": 4, "velocity": 118}, {"time": 2742, "pitch": 65, "duration": 4, "velocity": 112}, {"time": 2745, "pitch": 46, "duration": 3, "velocity": 74}, {"time": 2745, "pitch": 53, "duration": 5, "velocity": 109}, {"time": 2748, "pitch": 58, "duration": 6, "velocity": 112}, {"time": 2748, "pitch": 65, "duration": 7, "velocity": 101}, {"time": 2754, "pitch": 39, "duration": 2, "velocity": 109}, {"time": 2754, "pitch": 63, "duration": 8, "velocity": 109}, {"time": 2754, "pitch": 66, "duration": 8, "velocity": 109}, {"time": 2754, "pitch": 70, "duration": 7, "velocity": 104}, {"time": 2754, "pitch": 75, "duration": 7, "velocity": 101}, {"time": 2760, "pitch": 51, "duration": 33, "velocity": 94}, {"time": 2766, "pitch": 58, "duration": 14, "velocity": 104}, {"time": 2766, "pitch": 63, "duration": 11, "velocity": 112}, {"time": 2766, "pitch": 66, "duration": 11, "velocity": 115}, {"time": 2766, "pitch": 70, "duration": 11, "velocity": 109}, {"time": 2778, "pitch": 63, "duration": 10, "velocity": 106}, {"time": 2778, "pitch": 66, "duration": 9, "velocity": 109}, {"time": 2778, "pitch": 70, "duration": 8, "velocity": 106}, {"time": 2784, "pitch": 58, "duration": 8, "velocity": 74}, {"time": 2790, "pitch": 63, "duration": 3, "velocity": 109}, {"time": 2790, "pitch": 66, "duration": 5, "velocity": 109}, {"time": 2790, "pitch": 70, "duration": 5, "velocity": 109}, {"time": 2802, "pitch": 44, "duration": 21, "velocity": 106}, {"time": 2802, "pitch": 56, "duration": 8, "velocity": 101}, {"time": 2802, "pitch": 63, "duration": 5, "velocity": 109}, {"time": 2808, "pitch": 51, "duration": 7, "velocity": 74}, {"time": 2814, "pitch": 56, "duration": 21, "velocity": 109}, {"time": 2814, "pitch": 63, "duration": 7, "velocity": 112}, {"time": 2814, "pitch": 68, "duration": 7, "velocity": 104}, {"time": 2820, "pitch": 51, "duration": 7, "velocity": 67}, {"time": 2826, "pitch": 44, "duration": 14, "velocity": 101}, {"time": 2826, "pitch": 59, "duration": 8, "velocity": 96}, {"time": 2826, "pitch": 63, "duration": 8, "velocity": 106}, {"time": 2826, "pitch": 68, "duration": 8, "velocity": 101}, {"time": 2832, "pitch": 51, "duration": 8, "velocity": 59}, {"time": 2838, "pitch": 56, "duration": 4, "velocity": 106}, {"time": 2838, "pitch": 59, "duration": 4, "velocity": 113}, {"time": 2838, "pitch": 63, "duration": 5, "velocity": 109}, {"time": 2838, "pitch": 68, "duration": 5, "velocity": 101}, {"time": 2844, "pitch": 44, "duration": 2, "velocity": 104}, {"time": 2850, "pitch": 46, "duration": 20, "velocity": 109}, {"time": 2850, "pitch": 58, "duration": 4, "velocity": 106}, {"time": 2850, "pitch": 61, "duration": 6, "velocity": 104}, {"time": 2853, "pitch": 53, "duration": 10, "velocity": 91}, {"time": 2856, "pitch": 58, "duration": 5, "velocity": 99}, {"time": 2862, "pitch": 58, "duration": 3, "velocity": 115}, {"time": 2862, "pitch": 61, "duration": 4, "velocity": 115}, {"time": 2862, "pitch": 65, "duration": 4, "velocity": 112}, {"time": 2865, "pitch": 53, "duration": 6, "velocity": 96}, {"time": 2868, "pitch": 58, "duration": 5, "velocity": 109}, {"time": 2874, "pitch": 46, "duration": 10, "velocity": 109}, {"time": 2874, "pitch": 58, "duration": 10, "velocity": 106}, {"time": 2874, "pitch": 65, "duration": 10, "velocity": 104}, {"time": 2880, "pitch": 53, "duration": 5, "velocity": 89}, {"time": 2886, "pitch": 46, "duration": 10, "velocity": 104}, {"time": 2886, "pitch": 53, "duration": 10, "velocity": 99}, {"time": 2886, "pitch": 58, "duration": 12, "velocity": 112}, {"time": 2886, "pitch": 65, "duration": 12, "velocity": 104}, {"time": 2898, "pitch": 47, "duration": 4, "velocity": 120}, {"time": 2898, "pitch": 66, "duration": 4, "velocity": 106}, {"time": 2898, "pitch": 59, "duration": 4, "velocity": 101}, {"time": 2898, "pitch": 63, "duration": 4, "velocity": 112}, {"time": 2904, "pitch": 47, "duration": 118, "velocity": 120}, {"time": 2904, "pitch": 59, "duration": 3, "velocity": 113}, {"time": 2904, "pitch": 66, "duration": 4, "velocity": 109}, {"time": 2904, "pitch": 63, "duration": 5, "velocity": 112}, {"time": 2913, "pitch": 59, "duration": 109, "velocity": 68}, {"time": 2917, "pitch": 63, "duration": 105, "velocity": 99}, {"time": 2920, "pitch": 71, "duration": 102, "velocity": 107}, {"time": 3034, "pitch": 67, "duration": 5, "velocity": 120}, {"time": 3034, "pitch": 70, "duration": 5, "velocity": 112}, {"time": 3034, "pitch": 75, "duration": 5, "velocity": 106}, {"time": 3034, "pitch": 63, "duration": 5, "velocity": 101}, {"time": 3035, "pitch": 39, "duration": 4, "velocity": 112}, {"time": 3041, "pitch": 51, "duration": 31, "velocity": 106}, {"time": 3041, "pitch": 49, "duration": 1, "velocity": 94}, {"time": 3041, "pitch": 75, "duration": 7, "velocity": 104}, {"time": 3041, "pitch": 67, "duration": 6, "velocity": 123}, {"time": 3041, "pitch": 70, "duration": 6, "velocity": 109}, {"time": 3041, "pitch": 39, "duration": 29, "velocity": 115}, {"time": 3041, "pitch": 63, "duration": 3, "velocity": 109}, {"time": 3044, "pitch": 58, "duration": 28, "velocity": 76}, {"time": 3047, "pitch": 63, "duration": 2, "velocity": 96}, {"time": 3049, "pitch": 67, "duration": 1, "velocity": 66}, {"time": 3052, "pitch": 70, "duration": 2, "velocity": 101}, {"time": 3054, "pitch": 75, "duration": 2, "velocity": 112}, {"time": 3057, "pitch": 79, "duration": 1, "velocity": 120}, {"time": 3060, "pitch": 82, "duration": 1, "velocity": 112}, {"time": 3063, "pitch": 87, "duration": 1, "velocity": 104}, {"time": 3066, "pitch": 91, "duration": 2, "velocity": 117}, {"time": 3071, "pitch": 94, "duration": 1, "velocity": 104}, {"time": 3081, "pitch": 63, "duration": 22, "velocity": 85}, {"time": 3081, "pitch": 75, "duration": 28, "velocity": 87}, {"time": 3081, "pitch": 70, "duration": 22, "velocity": 94}, {"time": 3082, "pitch": 79, "duration": 26, "velocity": 81}, {"time": 3083, "pitch": 82, "duration": 26, "velocity": 80}, {"time": 3084, "pitch": 87, "duration": 25, "velocity": 58}], "annotations": [{"time": 207, "annotation": {"number": 64, "value": 0}, "group": "control_change"}, {"time": 210, "annotation": {"number": 64, "value": 127}, "group": "control_change"}, {"time": 234, "annotation": {"number": 64, "value": 0}, "group": "control_change"}, {"time": 236, "annotation": {"number": 64, "value": 127}, "group": "control_change"}, {"time": 257, "annotation": {"number": 64, "value": 0}, "group": "control_change"}, {"time": 259, "annotation": {"number": 64, "value": 127}, "group": "control_change"}, {"time": 280, "annotation": {"number": 64, "value": 0}, "group": "control_change"}, {"time": 282, "annotation": {"number": 64, "value": 127}, "group": "control_change"}, {"time": 306, "annotation": {"number": 64, "value": 0}, "group": "control_change"}, {"time": 308, "annotation": {"number": 64, "value": 127}, "group": "control_change"}, {"time": 329, "annotation": {"number": 64, "value": 0}, "group": "control_change"}, {"time": 331, "annotation": {"number": 64, "value": 127}, "group": "control_change"}, {"time": 353, "annotation": {"number": 64, "value": 0}, "group": "control_change"}, {"time": 355, "annotation": {"number": 64, "value": 127}, "group": "control_change"}, {"time": 377, "annotation": {"number": 64, "value": 0}, "group": "control_change"}, {"time": 379, "annotation": {"number": 64, "value": 127}, "group": "control_change"}, {"time": 401, "annotation": {"number": 64, "value": 0}, "group": "control_change"}, {"time": 499, "annotation": {"number": 64, "value": 127}, "group": "control_change"}, {"time": 520, "annotation": {"number": 64, "value": 0}, "group": "control_change"}, {"time": 523, "annotation": {"number": 64, "value": 127}, "group": "control_change"}, {"time": 546, "annotation": {"number": 64, "value": 0}, "group": "control_change"}, {"time": 547, "annotation": {"number": 64, "value": 127}, "group": "control_change"}, {"time": 569, "annotation": {"number": 64, "value": 0}, "group": "control_change"}, {"time": 574, "annotation": {"number": 64, "value": 127}, "group": "control_change"}, {"time": 617, "annotation": {"number": 64, "value": 0}, "group": "control_change"}, {"time": 620, "annotation": {"number": 64, "value": 127}, "group": "control_change"}, {"time": 641, "annotation": {"number": 64, "value": 0}, "group": "control_change"}, {"time": 644, "annotation": {"number": 64, "value": 127}, "group": "control_change"}, {"time": 666, "annotation": {"number": 64, "value": 0}, "group": "control_change"}, {"time": 670, "annotation": {"number": 64, "value": 127}, "group": "control_change"}, {"time": 689, "annotation": {"number": 64, "value": 0}, "group": "control_change"}, {"time": 692, "annotation": {"number": 64, "value": 127}, "group": "control_change"}, {"time": 712, "annotation": {"number": 64, "value": 0}, "group": "control_change"}, {"time": 719, "annotation": {"number": 64, "value": 127}, "group": "control_change"}, {"time": 750, "annotation": {"number": 64, "value": 0}, "group": "control_change"}, {"time": 751, "annotation": {"number": 64, "value": 127}, "group": "control_change"}, {"time": 760, "annotation": {"number": 64, "value": 0}, "group": "control_change"}, {"time": 764, "annotation": {"number": 64, "value": 127}, "group": "control_change"}, {"time": 797, "annotation": {"number": 64, "value": 0}, "group": "control_change"}, {"time": 799, "annotation": {"number": 64, "value": 127}, "group": "control_change"}, {"time": 809, "annotation": {"number": 64, "value": 0}, "group": "control_change"}, {"time": 812, "annotation": {"number": 64, "value": 127}, "group": "control_change"}, {"time": 845, "annotation": {"number": 64, "value": 0}, "group": "control_change"}, {"time": 847, "annotation": {"number": 64, "value": 127}, "group": "control_change"}, {"time": 857, "annotation": {"number": 64, "value": 0}, "group": "control_change"}, {"time": 860, "annotation": {"number": 64, "value": 127}, "group": "control_change"}, {"time": 881, "annotation": {"number": 64, "value": 0}, "group": "control_change"}, {"time": 885, "annotation": {"number": 64, "value": 127}, "group": "control_change"}, {"time": 894, "annotation": {"number": 64, "value": 0}, "group": "control_change"}, {"time": 908, "annotation": {"number": 64, "value": 127}, "group": "control_change"}, {"time": 929, "annotation": {"number": 64, "value": 0}, "group": "control_change"}, {"time": 933, "annotation": {"number": 64, "value": 127}, "group": "control_change"}, {"time": 956, "annotation": {"number": 64, "value": 0}, "group": "control_change"}, {"time": 961, "annotation": {"number": 64, "value": 127}, "group": "control_change"}, {"time": 974, "annotation": {"number": 64, "value": 0}, "group": "control_change"}, {"time": 982, "annotation": {"number": 64, "value": 127}, "group": "control_change"}, {"time": 1025, "annotation": {"number": 64, "value": 0}, "group": "control_change"}, {"time": 1028, "annotation": {"number": 64, "value": 127}, "group": "control_change"}, {"time": 1049, "annotation": {"number": 64, "value": 0}, "group": "control_change"}, {"time": 1052, "annotation": {"number": 64, "value": 127}, "group": "control_change"}, {"time": 1074, "annotation": {"number": 64, "value": 0}, "group": "control_change"}, {"time": 1078, "annotation": {"number": 64, "value": 127}, "group": "control_change"}, {"time": 1097, "annotation": {"number": 64, "value": 0}, "group": "control_change"}, {"time": 1100, "annotation": {"number": 64, "value": 127}, "group": "control_change"}, {"time": 1120, "annotation": {"number": 64, "value": 0}, "group": "control_change"}, {"time": 1127, "annotation": {"number": 64, "value": 127}, "group": "control_change"}, {"time": 1158, "annotation": {"number": 64, "value": 0}, "group": "control_change"}, {"time": 1159, "annotation": {"number": 64, "value": 127}, "group": "control_change"}, {"time": 1168, "annotation": {"number": 64, "value": 0}, "group": "control_change"}, {"time": 1172, "annotation": {"number": 64, "value": 127}, "group": "control_change"}, {"time": 1205, "annotation": {"number": 64, "value": 0}, "group": "control_change"}, {"time": 1207, "annotation": {"number": 64, "value": 127}, "group": "control_change"}, {"time": 1217, "annotation": {"number": 64, "value": 0}, "group": "control_change"}, {"time": 1220, "annotation": {"number": 64, "value": 127}, "group": "control_change"}, {"time": 1253, "annotation": {"number": 64, "value": 0}, "group": "control_change"}, {"time": 1255, "annotation": {"number": 64, "value": 127}, "group": "control_change"}, {"time": 1265, "annotation": {"number": 64, "value": 0}, "group": "control_change"}, {"time": 1268, "annotation": {"number": 64, "value": 127}, "group": "control_change"}, {"time": 1289, "annotation": {"number": 64, "value": 0}, "group": "control_change"}, {"time": 1293, "annotation": {"number": 64, "value": 127}, "group": "control_change"}, {"time": 1302, "annotation": {"number": 64, "value": 0}, "group": "control_change"}, {"time": 1316, "annotation": {"number": 64, "value": 127}, "group": "control_change"}, {"time": 1337, "annotation": {"number": 64, "value": 0}, "group": "control_change"}, {"time": 1338, "annotation": {"number": 64, "value": 127}, "group": "control_change"}, {"time": 1361, "annotation": {"number": 64, "value": 0}, "group": "control_change"}, {"time": 1363, "annotation": {"number": 64, "value": 127}, "group": "control_change"}, {"time": 1384, "annotation": {"number": 64, "value": 0}, "group": "control_change"}, {"time": 1410, "annotation": {"number": 64, "value": 0}, "group": "control_change"}, {"time": 1412, "annotation": {"number": 64, "value": 127}, "group": "control_change"}, {"time": 1433, "annotation": {"number": 64, "value": 0}, "group": "control_change"}, {"time": 1435, "annotation": {"number": 64, "value": 127}, "group": "control_change"}, {"time": 1456, "annotation": {"number": 64, "value": 0}, "group": "control_change"}, {"time": 1458, "annotation": {"number": 64, "value": 127}, "group": "control_change"}, {"time": 1482, "annotation": {"number": 64, "value": 0}, "group": "control_change"}, {"time": 1484, "annotation": {"number": 64, "value": 127}, "group": "control_change"}, {"time": 1505, "annotation": {"number": 64, "value": 0}, "group": "control_change"}, {"time": 1507, "annotation": {"number": 64, "value": 127}, "group": "control_change"}, {"time": 1529, "annotation": {"number": 64, "value": 0}, "group": "control_change"}, {"time": 1531, "annotation": {"number": 64, "value": 127}, "group": "control_change"}, {"time": 1553, "annotation": {"number": 64, "value": 0}, "group": "control_change"}, {"time": 1555, "annotation": {"number": 64, "value": 127}, "group": "control_change"}, {"time": 1577, "annotation": {"number": 64, "value": 0}, "group": "control_change"}, {"time": 1675, "annotation": {"number": 64, "value": 127}, "group": "control_change"}, {"time": 1696, "annotation": {"number": 64, "value": 0}, "group": "control_change"}, {"time": 1698, "annotation": {"number": 64, "value": 127}, "group": "control_change"}, {"time": 1721, "annotation": {"number": 64, "value": 0}, "group": "control_change"}, {"time": 1723, "annotation": {"number": 64, "value": 127}, "group": "control_change"}, {"time": 1744, "annotation": {"number": 64, "value": 0}, "group": "control_change"}, {"time": 1749, "annotation": {"number": 64, "value": 127}, "group": "control_change"}, {"time": 1768, "annotation": {"number": 64, "value": 0}, "group": "control_change"}, {"time": 1771, "annotation": {"number": 64, "value": 127}, "group": "control_change"}, {"time": 1792, "annotation": {"number": 64, "value": 0}, "group": "control_change"}, {"time": 1795, "annotation": {"number": 64, "value": 127}, "group": "control_change"}, {"time": 1817, "annotation": {"number": 64, "value": 0}, "group": "control_change"}, {"time": 1819, "annotation": {"number": 64, "value": 127}, "group": "control_change"}, {"time": 1841, "annotation": {"number": 64, "value": 0}, "group": "control_change"}, {"time": 1844, "annotation": {"number": 64, "value": 127}, "group": "control_change"}, {"time": 1866, "annotation": {"number": 64, "value": 0}, "group": "control_change"}, {"time": 1869, "annotation": {"number": 64, "value": 127}, "group": "control_change"}, {"time": 1889, "annotation": {"number": 64, "value": 0}, "group": "control_change"}, {"time": 1892, "annotation": {"number": 64, "value": 127}, "group": "control_change"}, {"time": 1915, "annotation": {"number": 64, "value": 0}, "group": "control_change"}, {"time": 1917, "annotation": {"number": 64, "value": 127}, "group": "control_change"}, {"time": 1937, "annotation": {"number": 64, "value": 0}, "group": "control_change"}, {"time": 1940, "annotation": {"number": 64, "value": 127}, "group": "control_change"}, {"time": 1973, "annotation": {"number": 64, "value": 0}, "group": "control_change"}, {"time": 1975, "annotation": {"number": 64, "value": 127}, "group": "control_change"}, {"time": 1985, "annotation": {"number": 64, "value": 0}, "group": "control_change"}, {"time": 1988, "annotation": {"number": 64, "value": 127}, "group": "control_change"}, {"time": 2021, "annotation": {"number": 64, "value": 0}, "group": "control_change"}, {"time": 2023, "annotation": {"number": 64, "value": 127}, "group": "control_change"}, {"time": 2033, "annotation": {"number": 64, "value": 0}, "group": "control_change"}, {"time": 2036, "annotation": {"number": 64, "value": 127}, "group": "control_change"}, {"time": 2057, "annotation": {"number": 64, "value": 0}, "group": "control_change"}, {"time": 2061, "annotation": {"number": 64, "value": 127}, "group": "control_change"}, {"time": 2070, "annotation": {"number": 64, "value": 0}, "group": "control_change"}, {"time": 2084, "annotation": {"number": 64, "value": 127}, "group": "control_change"}, {"time": 2105, "annotation": {"number": 64, "value": 0}, "group": "control_change"}, {"time": 2106, "annotation": {"number": 64, "value": 127}, "group": "control_change"}, {"time": 2129, "annotation": {"number": 64, "value": 0}, "group": "control_change"}, {"time": 2131, "annotation": {"number": 64, "value": 127}, "group": "control_change"}, {"time": 2152, "annotation": {"number": 64, "value": 0}, "group": "control_change"}, {"time": 2157, "annotation": {"number": 64, "value": 127}, "group": "control_change"}, {"time": 2176, "annotation": {"number": 64, "value": 0}, "group": "control_change"}, {"time": 2179, "annotation": {"number": 64, "value": 127}, "group": "control_change"}, {"time": 2200, "annotation": {"number": 64, "value": 0}, "group": "control_change"}, {"time": 2203, "annotation": {"number": 64, "value": 127}, "group": "control_change"}, {"time": 2225, "annotation": {"number": 64, "value": 0}, "group": "control_change"}, {"time": 2227, "annotation": {"number": 64, "value": 127}, "group": "control_change"}, {"time": 2249, "annotation": {"number": 64, "value": 0}, "group": "control_change"}, {"time": 2252, "annotation": {"number": 64, "value": 127}, "group": "control_change"}, {"time": 2274, "annotation": {"number": 64, "value": 0}, "group": "control_change"}, {"time": 2277, "annotation": {"number": 64, "value": 127}, "group": "control_change"}, {"time": 2297, "annotation": {"number": 64, "value": 0}, "group": "control_change"}, {"time": 2300, "annotation": {"number": 64, "value": 127}, "group": "control_change"}, {"time": 2323, "annotation": {"number": 64, "value": 0}, "group": "control_change"}, {"time": 2325, "annotation": {"number": 64, "value": 127}, "group": "control_change"}, {"time": 2345, "annotation": {"number": 64, "value": 0}, "group": "control_change"}, {"time": 2348, "annotation": {"number": 64, "value": 127}, "group": "control_change"}, {"time": 2381, "annotation": {"number": 64, "value": 0}, "group": "control_change"}, {"time": 2383, "annotation": {"number": 64, "value": 127}, "group": "control_change"}, {"time": 2393, "annotation": {"number": 64, "value": 0}, "group": "control_change"}, {"time": 2396, "annotation": {"number": 64, "value": 127}, "group": "control_change"}, {"time": 2429, "annotation": {"number": 64, "value": 0}, "group": "control_change"}, {"time": 2431, "annotation": {"number": 64, "value": 127}, "group": "control_change"}, {"time": 2441, "annotation": {"number": 64, "value": 0}, "group": "control_change"}, {"time": 2444, "annotation": {"number": 64, "value": 127}, "group": "control_change"}, {"time": 2465, "annotation": {"number": 64, "value": 0}, "group": "control_change"}, {"time": 2469, "annotation": {"number": 64, "value": 127}, "group": "control_change"}, {"time": 2478, "annotation": {"number": 64, "value": 0}, "group": "control_change"}, {"time": 2492, "annotation": {"number": 64, "value": 127}, "group": "control_change"}, {"time": 2513, "annotation": {"number": 64, "value": 0}, "group": "control_change"}, {"time": 2514, "annotation": {"number": 64, "value": 127}, "group": "control_change"}, {"time": 2537, "annotation": {"number": 64, "value": 0}, "group": "control_change"}, {"time": 2539, "annotation": {"number": 64, "value": 127}, "group": "control_change"}, {"time": 2560, "annotation": {"number": 64, "value": 0}, "group": "control_change"}, {"time": 2565, "annotation": {"number": 64, "value": 127}, "group": "control_change"}, {"time": 2584, "annotation": {"number": 64, "value": 0}, "group": "control_change"}, {"time": 2587, "annotation": {"number": 64, "value": 127}, "group": "control_change"}, {"time": 2608, "annotation": {"number": 64, "value": 0}, "group": "control_change"}, {"time": 2611, "annotation": {"number": 64, "value": 127}, "group": "control_change"}, {"time": 2633, "annotation": {"number": 64, "value": 0}, "group": "control_change"}, {"time": 2635, "annotation": {"number": 64, "value": 127}, "group": "control_change"}, {"time": 2657, "annotation": {"number": 64, "value": 0}, "group": "control_change"}, {"time": 2660, "annotation": {"number": 64, "value": 127}, "group": "control_change"}, {"time": 2682, "annotation": {"number": 64, "value": 0}, "group": "control_change"}, {"time": 2685, "annotation": {"number": 64, "value": 127}, "group": "control_change"}, {"time": 2705, "annotation": {"number": 64, "value": 0}, "group": "control_change"}, {"time": 2708, "annotation": {"number": 64, "value": 127}, "group": "control_change"}, {"time": 2731, "annotation": {"number": 64, "value": 0}, "group": "control_change"}, {"time": 2733, "annotation": {"number": 64, "value": 127}, "group": "control_change"}, {"time": 2753, "annotation": {"number": 64, "value": 0}, "group": "control_change"}, {"time": 2755, "annotation": {"number": 64, "value": 127}, "group": "control_change"}, {"time": 2768, "annotation": {"number": 64, "value": 0}, "group": "control_change"}, {"time": 2772, "annotation": {"number": 64, "value": 127}, "group": "control_change"}, {"time": 2787, "annotation": {"number": 64, "value": 0}, "group": "control_change"}, {"time": 2789, "annotation": {"number": 64, "value": 127}, "group": "control_change"}, {"time": 2800, "annotation": {"number": 64, "value": 0}, "group": "control_change"}, {"time": 2803, "annotation": {"number": 64, "value": 127}, "group": "control_change"}, {"time": 2825, "annotation": {"number": 64, "value": 0}, "group": "control_change"}, {"time": 2828, "annotation": {"number": 64, "value": 127}, "group": "control_change"}, {"time": 2849, "annotation": {"number": 64, "value": 0}, "group": "control_change"}, {"time": 2853, "annotation": {"number": 64, "value": 127}, "group": "control_change"}, {"time": 2874, "annotation": {"number": 64, "value": 0}, "group": "control_change"}, {"time": 2876, "annotation": {"number": 64, "value": 127}, "group": "control_change"}, {"time": 2899, "annotation": {"number": 64, "value": 0}, "group": "control_change"}, {"time": 2899, "annotation": {"number": 64, "value": 127}, "group": "control_change"}, {"time": 2990, "annotation": {"number": 64, "value": 0}, "group": "control_change"}, {"time": 3042, "annotation": {"number": 64, "value": 127}, "group": "control_change"}, {"time": 3048, "annotation": {"number": 64, "value": 127}, "group": "control_change"}, {"time": 3074, "annotation": {"number": 64, "value": 0}, "group": "control_change"}, {"time": 3075, "annotation": {"number": 64, "value": 127}, "group": "control_change"}, {"time": 3080, "annotation": {"number": 64, "value": 0}, "group": "control_change"}]}]}