{"metadata": {"schema_version": "0.2", "title": "None", "source_filename": "024.mid", "source_format": "midi"}, "resolution": 12, "tempos": [{"time": 0, "qpm": 66.00021120067584}], "time_signatures": [{"time": 0, "numerator": 2, "denominator": 4}], "tracks": [{"program": 4, "is_drum": false, "name": "MELODY", "notes": [{"time": 208, "pitch": 61, "duration": 1, "velocity": 111}, {"time": 211, "pitch": 63, "duration": 1, "velocity": 108}, {"time": 214, "pitch": 66, "duration": 4, "velocity": 108}, {"time": 220, "pitch": 66, "duration": 1, "velocity": 94}, {"time": 223, "pitch": 66, "duration": 6, "velocity": 105}, {"time": 232, "pitch": 68, "duration": 1, "velocity": 102}, {"time": 235, "pitch": 70, "duration": 1, "velocity": 87}, {"time": 238, "pitch": 68, "duration": 4, "velocity": 111}, {"time": 244, "pitch": 66, "duration": 1, "velocity": 94}, {"time": 247, "pitch": 66, "duration": 5, "velocity": 105}, {"time": 256, "pitch": 66, "duration": 2, "velocity": 105}, {"time": 259, "pitch": 68, "duration": 1, "velocity": 105}, {"time": 262, "pitch": 70, "duration": 4, "velocity": 105}, {"time": 268, "pitch": 70, "duration": 2, "velocity": 102}, {"time": 271, "pitch": 68, "duration": 1, "velocity": 97}, {"time": 274, "pitch": 70, "duration": 5, "velocity": 114}, {"time": 280, "pitch": 73, "duration": 1, "velocity": 105}, {"time": 283, "pitch": 73, "duration": 13, "velocity": 114}, {"time": 304, "pitch": 70, "duration": 1, "velocity": 111}, {"time": 307, "pitch": 73, "duration": 1, "velocity": 108}, {"time": 310, "pitch": 75, "duration": 4, "velocity": 108}, {"time": 316, "pitch": 70, "duration": 1, "velocity": 108}, {"time": 319, "pitch": 70, "duration": 6, "velocity": 108}, {"time": 328, "pitch": 70, "duration": 1, "velocity": 111}, {"time": 331, "pitch": 75, "duration": 1, "velocity": 105}, {"time": 334, "pitch": 73, "duration": 4, "velocity": 108}, {"time": 340, "pitch": 68, "duration": 1, "velocity": 108}, {"time": 343, "pitch": 68, "duration": 7, "velocity": 108}, {"time": 352, "pitch": 63, "duration": 1, "velocity": 102}, {"time": 355, "pitch": 65, "duration": 1, "velocity": 109}, {"time": 358, "pitch": 66, "duration": 4, "velocity": 102}, {"time": 364, "pitch": 66, "duration": 2, "velocity": 105}, {"time": 367, "pitch": 63, "duration": 3, "velocity": 102}, {"time": 373, "pitch": 70, "duration": 9, "velocity": 102}, {"time": 382, "pitch": 68, "duration": 18, "velocity": 102}, {"time": 400, "pitch": 61, "duration": 1, "velocity": 111}, {"time": 403, "pitch": 63, "duration": 1, "velocity": 108}, {"time": 406, "pitch": 66, "duration": 4, "velocity": 108}, {"time": 412, "pitch": 66, "duration": 1, "velocity": 94}, {"time": 415, "pitch": 66, "duration": 6, "velocity": 105}, {"time": 424, "pitch": 68, "duration": 1, "velocity": 102}, {"time": 427, "pitch": 70, "duration": 1, "velocity": 87}, {"time": 430, "pitch": 68, "duration": 4, "velocity": 111}, {"time": 436, "pitch": 66, "duration": 1, "velocity": 94}, {"time": 439, "pitch": 66, "duration": 5, "velocity": 105}, {"time": 448, "pitch": 66, "duration": 2, "velocity": 105}, {"time": 451, "pitch": 68, "duration": 1, "velocity": 105}, {"time": 454, "pitch": 70, "duration": 4, "velocity": 105}, {"time": 460, "pitch": 70, "duration": 2, "velocity": 102}, {"time": 463, "pitch": 68, "duration": 1, "velocity": 97}, {"time": 466, "pitch": 70, "duration": 5, "velocity": 114}, {"time": 472, "pitch": 73, "duration": 1, "velocity": 105}, {"time": 475, "pitch": 73, "duration": 13, "velocity": 114}, {"time": 496, "pitch": 70, "duration": 1, "velocity": 111}, {"time": 499, "pitch": 73, "duration": 1, "velocity": 108}, {"time": 502, "pitch": 75, "duration": 4, "velocity": 108}, {"time": 508, "pitch": 70, "duration": 1, "velocity": 108}, {"time": 511, "pitch": 70, "duration": 6, "velocity": 108}, {"time": 520, "pitch": 70, "duration": 1, "velocity": 111}, {"time": 523, "pitch": 75, "duration": 1, "velocity": 105}, {"time": 526, "pitch": 73, "duration": 4, "velocity": 108}, {"time": 532, "pitch": 68, "duration": 1, "velocity": 108}, {"time": 535, "pitch": 68, "duration": 7, "velocity": 108}, {"time": 544, "pitch": 63, "duration": 1, "velocity": 102}, {"time": 547, "pitch": 65, "duration": 1, "velocity": 109}, {"time": 550, "pitch": 66, "duration": 4, "velocity": 102}, {"time": 556, "pitch": 66, "duration": 2, "velocity": 105}, {"time": 559, "pitch": 63, "duration": 3, "velocity": 102}, {"time": 568, "pitch": 63, "duration": 4, "velocity": 105}, {"time": 574, "pitch": 61, "duration": 14, "velocity": 105}, {"time": 598, "pitch": 70, "duration": 1, "velocity": 111}, {"time": 601, "pitch": 70, "duration": 4, "velocity": 105}, {"time": 607, "pitch": 70, "duration": 1, "velocity": 111}, {"time": 610, "pitch": 70, "duration": 4, "velocity": 111}, {"time": 616, "pitch": 75, "duration": 2, "velocity": 105}, {"time": 619, "pitch": 75, "duration": 15, "velocity": 108}, {"time": 646, "pitch": 77, "duration": 2, "velocity": 109}, {"time": 649, "pitch": 77, "duration": 4, "velocity": 93}, {"time": 655, "pitch": 77, "duration": 2, "velocity": 112}, {"time": 658, "pitch": 75, "duration": 4, "velocity": 114}, {"time": 664, "pitch": 73, "duration": 1, "velocity": 108}, {"time": 667, "pitch": 70, "duration": 15, "velocity": 114}, {"time": 688, "pitch": 70, "duration": 2, "velocity": 114}, {"time": 691, "pitch": 68, "duration": 1, "velocity": 114}, {"time": 694, "pitch": 66, "duration": 1, "velocity": 108}, {"time": 697, "pitch": 66, "duration": 1, "velocity": 100}, {"time": 700, "pitch": 66, "duration": 1, "velocity": 100}, {"time": 703, "pitch": 66, "duration": 1, "velocity": 87}, {"time": 706, "pitch": 66, "duration": 1, "velocity": 105}, {"time": 709, "pitch": 63, "duration": 2, "velocity": 108}, {"time": 715, "pitch": 75, "duration": 4, "velocity": 105}, {"time": 721, "pitch": 73, "duration": 1, "velocity": 100}, {"time": 724, "pitch": 75, "duration": 1, "velocity": 108}, {"time": 727, "pitch": 73, "duration": 1, "velocity": 111}, {"time": 730, "pitch": 75, "duration": 4, "velocity": 108}, {"time": 736, "pitch": 73, "duration": 1, "velocity": 105}, {"time": 739, "pitch": 75, "duration": 4, "velocity": 114}, {"time": 745, "pitch": 73, "duration": 1, "velocity": 102}, {"time": 748, "pitch": 70, "duration": 30, "velocity": 102}, {"time": 790, "pitch": 70, "duration": 1, "velocity": 111}, {"time": 793, "pitch": 70, "duration": 4, "velocity": 105}, {"time": 799, "pitch": 70, "duration": 1, "velocity": 111}, {"time": 802, "pitch": 70, "duration": 4, "velocity": 111}, {"time": 808, "pitch": 75, "duration": 2, "velocity": 105}, {"time": 811, "pitch": 75, "duration": 15, "velocity": 108}, {"time": 838, "pitch": 77, "duration": 2, "velocity": 109}, {"time": 841, "pitch": 77, "duration": 4, "velocity": 93}, {"time": 847, "pitch": 77, "duration": 2, "velocity": 112}, {"time": 850, "pitch": 75, "duration": 4, "velocity": 114}, {"time": 856, "pitch": 73, "duration": 1, "velocity": 108}, {"time": 859, "pitch": 70, "duration": 15, "velocity": 114}, {"time": 880, "pitch": 70, "duration": 2, "velocity": 114}, {"time": 883, "pitch": 68, "duration": 1, "velocity": 114}, {"time": 886, "pitch": 66, "duration": 1, "velocity": 108}, {"time": 889, "pitch": 66, "duration": 1, "velocity": 100}, {"time": 892, "pitch": 66, "duration": 1, "velocity": 100}, {"time": 895, "pitch": 66, "duration": 1, "velocity": 87}, {"time": 898, "pitch": 66, "duration": 1, "velocity": 105}, {"time": 901, "pitch": 63, "duration": 2, "velocity": 108}, {"time": 907, "pitch": 68, "duration": 4, "velocity": 111}, {"time": 913, "pitch": 68, "duration": 1, "velocity": 94}, {"time": 916, "pitch": 68, "duration": 1, "velocity": 97}, {"time": 919, "pitch": 68, "duration": 1, "velocity": 97}, {"time": 922, "pitch": 68, "duration": 1, "velocity": 108}, {"time": 925, "pitch": 68, "duration": 1, "velocity": 102}, {"time": 928, "pitch": 61, "duration": 1, "velocity": 102}, {"time": 931, "pitch": 63, "duration": 39, "velocity": 108}, {"time": 1408, "pitch": 61, "duration": 1, "velocity": 111}, {"time": 1411, "pitch": 63, "duration": 1, "velocity": 108}, {"time": 1414, "pitch": 66, "duration": 4, "velocity": 108}, {"time": 1420, "pitch": 66, "duration": 1, "velocity": 94}, {"time": 1423, "pitch": 66, "duration": 6, "velocity": 105}, {"time": 1432, "pitch": 68, "duration": 1, "velocity": 102}, {"time": 1435, "pitch": 70, "duration": 1, "velocity": 87}, {"time": 1438, "pitch": 68, "duration": 4, "velocity": 111}, {"time": 1444, "pitch": 66, "duration": 1, "velocity": 94}, {"time": 1447, "pitch": 66, "duration": 5, "velocity": 105}, {"time": 1456, "pitch": 66, "duration": 2, "velocity": 105}, {"time": 1459, "pitch": 68, "duration": 1, "velocity": 105}, {"time": 1462, "pitch": 70, "duration": 4, "velocity": 105}, {"time": 1468, "pitch": 70, "duration": 2, "velocity": 102}, {"time": 1471, "pitch": 68, "duration": 1, "velocity": 97}, {"time": 1474, "pitch": 70, "duration": 5, "velocity": 114}, {"time": 1480, "pitch": 73, "duration": 1, "velocity": 105}, {"time": 1483, "pitch": 73, "duration": 13, "velocity": 114}, {"time": 1504, "pitch": 70, "duration": 1, "velocity": 111}, {"time": 1507, "pitch": 73, "duration": 1, "velocity": 108}, {"time": 1510, "pitch": 75, "duration": 4, "velocity": 108}, {"time": 1516, "pitch": 70, "duration": 1, "velocity": 108}, {"time": 1519, "pitch": 70, "duration": 6, "velocity": 108}, {"time": 1528, "pitch": 70, "duration": 1, "velocity": 111}, {"time": 1531, "pitch": 75, "duration": 1, "velocity": 105}, {"time": 1534, "pitch": 73, "duration": 4, "velocity": 108}, {"time": 1540, "pitch": 68, "duration": 1, "velocity": 108}, {"time": 1543, "pitch": 68, "duration": 7, "velocity": 108}, {"time": 1552, "pitch": 63, "duration": 1, "velocity": 102}, {"time": 1555, "pitch": 65, "duration": 1, "velocity": 109}, {"time": 1558, "pitch": 66, "duration": 4, "velocity": 102}, {"time": 1564, "pitch": 66, "duration": 2, "velocity": 105}, {"time": 1567, "pitch": 63, "duration": 3, "velocity": 102}, {"time": 1573, "pitch": 70, "duration": 9, "velocity": 102}, {"time": 1582, "pitch": 68, "duration": 18, "velocity": 102}, {"time": 1600, "pitch": 61, "duration": 1, "velocity": 111}, {"time": 1603, "pitch": 63, "duration": 1, "velocity": 108}, {"time": 1606, "pitch": 66, "duration": 4, "velocity": 108}, {"time": 1612, "pitch": 66, "duration": 1, "velocity": 94}, {"time": 1615, "pitch": 66, "duration": 6, "velocity": 105}, {"time": 1624, "pitch": 68, "duration": 1, "velocity": 102}, {"time": 1627, "pitch": 70, "duration": 1, "velocity": 87}, {"time": 1630, "pitch": 68, "duration": 4, "velocity": 111}, {"time": 1636, "pitch": 66, "duration": 1, "velocity": 94}, {"time": 1639, "pitch": 66, "duration": 5, "velocity": 105}, {"time": 1648, "pitch": 66, "duration": 2, "velocity": 105}, {"time": 1651, "pitch": 68, "duration": 1, "velocity": 105}, {"time": 1654, "pitch": 70, "duration": 4, "velocity": 105}, {"time": 1660, "pitch": 70, "duration": 2, "velocity": 102}, {"time": 1663, "pitch": 68, "duration": 1, "velocity": 97}, {"time": 1666, "pitch": 70, "duration": 5, "velocity": 114}, {"time": 1672, "pitch": 73, "duration": 1, "velocity": 105}, {"time": 1675, "pitch": 73, "duration": 13, "velocity": 114}, {"time": 1696, "pitch": 70, "duration": 1, "velocity": 111}, {"time": 1699, "pitch": 73, "duration": 1, "velocity": 108}, {"time": 1702, "pitch": 75, "duration": 4, "velocity": 108}, {"time": 1708, "pitch": 70, "duration": 1, "velocity": 108}, {"time": 1711, "pitch": 70, "duration": 6, "velocity": 108}, {"time": 1720, "pitch": 70, "duration": 1, "velocity": 111}, {"time": 1723, "pitch": 75, "duration": 1, "velocity": 105}, {"time": 1726, "pitch": 73, "duration": 4, "velocity": 108}, {"time": 1732, "pitch": 68, "duration": 1, "velocity": 108}, {"time": 1735, "pitch": 68, "duration": 7, "velocity": 108}, {"time": 1744, "pitch": 63, "duration": 1, "velocity": 102}, {"time": 1747, "pitch": 65, "duration": 1, "velocity": 109}, {"time": 1750, "pitch": 66, "duration": 4, "velocity": 102}, {"time": 1756, "pitch": 66, "duration": 2, "velocity": 105}, {"time": 1759, "pitch": 63, "duration": 3, "velocity": 102}, {"time": 1768, "pitch": 63, "duration": 4, "velocity": 105}, {"time": 1774, "pitch": 61, "duration": 14, "velocity": 105}, {"time": 1798, "pitch": 70, "duration": 1, "velocity": 111}, {"time": 1801, "pitch": 70, "duration": 4, "velocity": 105}, {"time": 1807, "pitch": 70, "duration": 1, "velocity": 111}, {"time": 1810, "pitch": 70, "duration": 4, "velocity": 111}, {"time": 1816, "pitch": 75, "duration": 2, "velocity": 105}, {"time": 1819, "pitch": 75, "duration": 15, "velocity": 108}, {"time": 1846, "pitch": 77, "duration": 2, "velocity": 109}, {"time": 1849, "pitch": 77, "duration": 4, "velocity": 93}, {"time": 1855, "pitch": 77, "duration": 2, "velocity": 112}, {"time": 1858, "pitch": 75, "duration": 4, "velocity": 114}, {"time": 1864, "pitch": 73, "duration": 1, "velocity": 108}, {"time": 1867, "pitch": 70, "duration": 15, "velocity": 114}, {"time": 1888, "pitch": 70, "duration": 2, "velocity": 114}, {"time": 1891, "pitch": 68, "duration": 1, "velocity": 114}, {"time": 1894, "pitch": 66, "duration": 1, "velocity": 108}, {"time": 1897, "pitch": 66, "duration": 1, "velocity": 100}, {"time": 1900, "pitch": 66, "duration": 1, "velocity": 100}, {"time": 1903, "pitch": 66, "duration": 1, "velocity": 87}, {"time": 1906, "pitch": 66, "duration": 1, "velocity": 105}, {"time": 1909, "pitch": 63, "duration": 2, "velocity": 108}, {"time": 1915, "pitch": 75, "duration": 4, "velocity": 105}, {"time": 1921, "pitch": 73, "duration": 1, "velocity": 100}, {"time": 1924, "pitch": 75, "duration": 1, "velocity": 108}, {"time": 1927, "pitch": 73, "duration": 1, "velocity": 111}, {"time": 1930, "pitch": 75, "duration": 4, "velocity": 108}, {"time": 1936, "pitch": 73, "duration": 1, "velocity": 105}, {"time": 1939, "pitch": 75, "duration": 4, "velocity": 114}, {"time": 1945, "pitch": 73, "duration": 1, "velocity": 102}, {"time": 1948, "pitch": 70, "duration": 30, "velocity": 102}, {"time": 1990, "pitch": 70, "duration": 1, "velocity": 111}, {"time": 1993, "pitch": 70, "duration": 4, "velocity": 105}, {"time": 1999, "pitch": 70, "duration": 1, "velocity": 111}, {"time": 2002, "pitch": 70, "duration": 4, "velocity": 111}, {"time": 2008, "pitch": 75, "duration": 2, "velocity": 105}, {"time": 2011, "pitch": 75, "duration": 15, "velocity": 108}, {"time": 2038, "pitch": 77, "duration": 2, "velocity": 109}, {"time": 2041, "pitch": 77, "duration": 4, "velocity": 93}, {"time": 2047, "pitch": 77, "duration": 2, "velocity": 112}, {"time": 2050, "pitch": 75, "duration": 4, "velocity": 114}, {"time": 2056, "pitch": 73, "duration": 1, "velocity": 108}, {"time": 2059, "pitch": 70, "duration": 15, "velocity": 114}, {"time": 2080, "pitch": 70, "duration": 2, "velocity": 114}, {"time": 2083, "pitch": 68, "duration": 1, "velocity": 114}, {"time": 2086, "pitch": 66, "duration": 1, "velocity": 108}, {"time": 2089, "pitch": 66, "duration": 1, "velocity": 100}, {"time": 2092, "pitch": 66, "duration": 1, "velocity": 100}, {"time": 2095, "pitch": 66, "duration": 1, "velocity": 87}, {"time": 2098, "pitch": 66, "duration": 1, "velocity": 105}, {"time": 2101, "pitch": 63, "duration": 2, "velocity": 108}, {"time": 2107, "pitch": 68, "duration": 4, "velocity": 111}, {"time": 2113, "pitch": 68, "duration": 1, "velocity": 94}, {"time": 2116, "pitch": 68, "duration": 1, "velocity": 97}, {"time": 2119, "pitch": 68, "duration": 1, "velocity": 97}, {"time": 2122, "pitch": 68, "duration": 1, "velocity": 108}, {"time": 2125, "pitch": 68, "duration": 1, "velocity": 102}, {"time": 2128, "pitch": 61, "duration": 1, "velocity": 102}, {"time": 2131, "pitch": 63, "duration": 39, "velocity": 108}, {"time": 2182, "pitch": 70, "duration": 1, "velocity": 111}, {"time": 2185, "pitch": 70, "duration": 4, "velocity": 105}, {"time": 2191, "pitch": 70, "duration": 1, "velocity": 111}, {"time": 2194, "pitch": 70, "duration": 4, "velocity": 111}, {"time": 2200, "pitch": 75, "duration": 2, "velocity": 105}, {"time": 2203, "pitch": 75, "duration": 15, "velocity": 108}, {"time": 2230, "pitch": 77, "duration": 2, "velocity": 109}, {"time": 2233, "pitch": 77, "duration": 4, "velocity": 93}, {"time": 2239, "pitch": 77, "duration": 2, "velocity": 112}, {"time": 2242, "pitch": 75, "duration": 4, "velocity": 114}, {"time": 2248, "pitch": 73, "duration": 1, "velocity": 108}, {"time": 2251, "pitch": 70, "duration": 15, "velocity": 114}, {"time": 2272, "pitch": 70, "duration": 2, "velocity": 114}, {"time": 2275, "pitch": 68, "duration": 1, "velocity": 114}, {"time": 2278, "pitch": 66, "duration": 1, "velocity": 108}, {"time": 2281, "pitch": 66, "duration": 1, "velocity": 100}, {"time": 2284, "pitch": 66, "duration": 1, "velocity": 100}, {"time": 2287, "pitch": 66, "duration": 1, "velocity": 87}, {"time": 2290, "pitch": 66, "duration": 1, "velocity": 105}, {"time": 2293, "pitch": 63, "duration": 2, "velocity": 108}, {"time": 2299, "pitch": 75, "duration": 4, "velocity": 105}, {"time": 2305, "pitch": 73, "duration": 1, "velocity": 100}, {"time": 2308, "pitch": 75, "duration": 1, "velocity": 108}, {"time": 2311, "pitch": 73, "duration": 1, "velocity": 111}, {"time": 2314, "pitch": 75, "duration": 4, "velocity": 108}, {"time": 2320, "pitch": 73, "duration": 1, "velocity": 105}, {"time": 2323, "pitch": 75, "duration": 4, "velocity": 114}, {"time": 2329, "pitch": 73, "duration": 1, "velocity": 102}, {"time": 2332, "pitch": 70, "duration": 30, "velocity": 102}, {"time": 2374, "pitch": 70, "duration": 1, "velocity": 111}, {"time": 2377, "pitch": 70, "duration": 4, "velocity": 105}, {"time": 2383, "pitch": 70, "duration": 1, "velocity": 111}, {"time": 2386, "pitch": 70, "duration": 4, "velocity": 111}, {"time": 2392, "pitch": 75, "duration": 2, "velocity": 105}, {"time": 2395, "pitch": 75, "duration": 15, "velocity": 108}, {"time": 2422, "pitch": 77, "duration": 2, "velocity": 109}, {"time": 2425, "pitch": 77, "duration": 4, "velocity": 93}, {"time": 2431, "pitch": 77, "duration": 2, "velocity": 112}, {"time": 2434, "pitch": 75, "duration": 4, "velocity": 114}, {"time": 2440, "pitch": 73, "duration": 1, "velocity": 108}, {"time": 2443, "pitch": 70, "duration": 15, "velocity": 114}, {"time": 2464, "pitch": 70, "duration": 2, "velocity": 114}, {"time": 2467, "pitch": 68, "duration": 1, "velocity": 114}, {"time": 2470, "pitch": 66, "duration": 1, "velocity": 108}, {"time": 2473, "pitch": 66, "duration": 1, "velocity": 100}, {"time": 2476, "pitch": 66, "duration": 1, "velocity": 100}, {"time": 2479, "pitch": 66, "duration": 1, "velocity": 87}, {"time": 2482, "pitch": 66, "duration": 1, "velocity": 105}, {"time": 2485, "pitch": 63, "duration": 2, "velocity": 108}, {"time": 2491, "pitch": 68, "duration": 4, "velocity": 111}, {"time": 2497, "pitch": 68, "duration": 1, "velocity": 94}, {"time": 2500, "pitch": 68, "duration": 1, "velocity": 97}, {"time": 2503, "pitch": 68, "duration": 1, "velocity": 97}, {"time": 2506, "pitch": 68, "duration": 1, "velocity": 108}, {"time": 2509, "pitch": 68, "duration": 1, "velocity": 102}, {"time": 2512, "pitch": 61, "duration": 1, "velocity": 102}, {"time": 2515, "pitch": 63, "duration": 39, "velocity": 108}]}, {"program": 0, "is_drum": false, "name": "PIANO", "notes": [{"time": 22, "pitch": 47, "duration": 14, "velocity": 60}, {"time": 22, "pitch": 59, "duration": 8, "velocity": 71}, {"time": 22, "pitch": 62, "duration": 8, "velocity": 59}, {"time": 22, "pitch": 69, "duration": 8, "velocity": 55}, {"time": 28, "pitch": 54, "duration": 8, "velocity": 29}, {"time": 34, "pitch": 59, "duration": 4, "velocity": 87}, {"time": 34, "pitch": 62, "duration": 4, "velocity": 109}, {"time": 34, "pitch": 69, "duration": 4, "velocity": 85}, {"time": 40, "pitch": 47, "duration": 5, "velocity": 71}, {"time": 46, "pitch": 52, "duration": 17, "velocity": 67}, {"time": 46, "pitch": 59, "duration": 8, "velocity": 71}, {"time": 46, "pitch": 64, "duration": 8, "velocity": 82}, {"time": 46, "pitch": 68, "duration": 8, "velocity": 84}, {"time": 52, "pitch": 56, "duration": 11, "velocity": 23}, {"time": 58, "pitch": 59, "duration": 5, "velocity": 84}, {"time": 58, "pitch": 64, "duration": 6, "velocity": 89}, {"time": 58, "pitch": 68, "duration": 6, "velocity": 89}, {"time": 70, "pitch": 49, "duration": 15, "velocity": 89}, {"time": 70, "pitch": 59, "duration": 8, "velocity": 69}, {"time": 70, "pitch": 64, "duration": 8, "velocity": 80}, {"time": 76, "pitch": 56, "duration": 9, "velocity": 41}, {"time": 82, "pitch": 59, "duration": 5, "velocity": 97}, {"time": 82, "pitch": 64, "duration": 5, "velocity": 102}, {"time": 82, "pitch": 68, "duration": 6, "velocity": 97}, {"time": 88, "pitch": 49, "duration": 5, "velocity": 89}, {"time": 94, "pitch": 54, "duration": 19, "velocity": 67}, {"time": 94, "pitch": 61, "duration": 4, "velocity": 76}, {"time": 94, "pitch": 66, "duration": 7, "velocity": 89}, {"time": 100, "pitch": 61, "duration": 3, "velocity": 89}, {"time": 106, "pitch": 61, "duration": 4, "velocity": 94}, {"time": 106, "pitch": 66, "duration": 3, "velocity": 100}, {"time": 112, "pitch": 64, "duration": 1, "velocity": 84}, {"time": 118, "pitch": 47, "duration": 16, "velocity": 100}, {"time": 118, "pitch": 59, "duration": 9, "velocity": 73}, {"time": 118, "pitch": 62, "duration": 9, "velocity": 70}, {"time": 124, "pitch": 54, "duration": 8, "velocity": 27}, {"time": 130, "pitch": 59, "duration": 6, "velocity": 92}, {"time": 130, "pitch": 62, "duration": 7, "velocity": 93}, {"time": 130, "pitch": 66, "duration": 8, "velocity": 94}, {"time": 136, "pitch": 47, "duration": 4, "velocity": 1}, {"time": 136, "pitch": 54, "duration": 4, "velocity": 55}, {"time": 139, "pitch": 59, "duration": 2, "velocity": 78}, {"time": 142, "pitch": 52, "duration": 20, "velocity": 84}, {"time": 142, "pitch": 59, "duration": 8, "velocity": 84}, {"time": 142, "pitch": 64, "duration": 8, "velocity": 97}, {"time": 148, "pitch": 56, "duration": 14, "velocity": 46}, {"time": 154, "pitch": 59, "duration": 9, "velocity": 92}, {"time": 154, "pitch": 64, "duration": 9, "velocity": 102}, {"time": 154, "pitch": 68, "duration": 9, "velocity": 94}, {"time": 166, "pitch": 49, "duration": 22, "velocity": 92}, {"time": 166, "pitch": 61, "duration": 8, "velocity": 78}, {"time": 166, "pitch": 66, "duration": 8, "velocity": 94}, {"time": 172, "pitch": 56, "duration": 7, "velocity": 67}, {"time": 178, "pitch": 61, "duration": 4, "velocity": 100}, {"time": 178, "pitch": 66, "duration": 6, "velocity": 105}, {"time": 181, "pitch": 56, "duration": 7, "velocity": 78}, {"time": 184, "pitch": 61, "duration": 3, "velocity": 82}, {"time": 190, "pitch": 49, "duration": 17, "velocity": 92}, {"time": 190, "pitch": 56, "duration": 17, "velocity": 87}, {"time": 190, "pitch": 59, "duration": 20, "velocity": 94}, {"time": 190, "pitch": 65, "duration": 20, "velocity": 65}, {"time": 214, "pitch": 42, "duration": 23, "velocity": 89}, {"time": 214, "pitch": 54, "duration": 9, "velocity": 71}, {"time": 214, "pitch": 61, "duration": 10, "velocity": 80}, {"time": 220, "pitch": 49, "duration": 8, "velocity": 39}, {"time": 226, "pitch": 54, "duration": 9, "velocity": 89}, {"time": 226, "pitch": 61, "duration": 10, "velocity": 100}, {"time": 238, "pitch": 39, "duration": 18, "velocity": 85}, {"time": 238, "pitch": 54, "duration": 11, "velocity": 82}, {"time": 238, "pitch": 58, "duration": 11, "velocity": 94}, {"time": 250, "pitch": 54, "duration": 3, "velocity": 89}, {"time": 250, "pitch": 58, "duration": 11, "velocity": 102}, {"time": 250, "pitch": 63, "duration": 11, "velocity": 97}, {"time": 256, "pitch": 54, "duration": 5, "velocity": 60}, {"time": 262, "pitch": 42, "duration": 14, "velocity": 97}, {"time": 262, "pitch": 54, "duration": 8, "velocity": 80}, {"time": 262, "pitch": 58, "duration": 8, "velocity": 89}, {"time": 268, "pitch": 49, "duration": 8, "velocity": 34}, {"time": 274, "pitch": 54, "duration": 3, "velocity": 97}, {"time": 274, "pitch": 58, "duration": 3, "velocity": 111}, {"time": 274, "pitch": 61, "duration": 5, "velocity": 94}, {"time": 286, "pitch": 46, "duration": 15, "velocity": 100}, {"time": 286, "pitch": 56, "duration": 8, "velocity": 84}, {"time": 286, "pitch": 61, "duration": 8, "velocity": 97}, {"time": 292, "pitch": 53, "duration": 8, "velocity": 31}, {"time": 298, "pitch": 56, "duration": 6, "velocity": 94}, {"time": 298, "pitch": 61, "duration": 6, "velocity": 100}, {"time": 298, "pitch": 65, "duration": 7, "velocity": 93}, {"time": 304, "pitch": 46, "duration": 4, "velocity": 97}, {"time": 310, "pitch": 47, "duration": 15, "velocity": 105}, {"time": 310, "pitch": 59, "duration": 8, "velocity": 76}, {"time": 310, "pitch": 63, "duration": 8, "velocity": 80}, {"time": 316, "pitch": 54, "duration": 12, "velocity": 44}, {"time": 322, "pitch": 59, "duration": 5, "velocity": 92}, {"time": 322, "pitch": 63, "duration": 5, "velocity": 97}, {"time": 322, "pitch": 66, "duration": 11, "velocity": 94}, {"time": 328, "pitch": 47, "duration": 3, "velocity": 82}, {"time": 334, "pitch": 46, "duration": 15, "velocity": 97}, {"time": 334, "pitch": 58, "duration": 8, "velocity": 78}, {"time": 334, "pitch": 61, "duration": 8, "velocity": 84}, {"time": 340, "pitch": 53, "duration": 10, "velocity": 41}, {"time": 346, "pitch": 58, "duration": 6, "velocity": 97}, {"time": 346, "pitch": 65, "duration": 6, "velocity": 90}, {"time": 352, "pitch": 46, "duration": 3, "velocity": 94}, {"time": 358, "pitch": 44, "duration": 15, "velocity": 100}, {"time": 358, "pitch": 54, "duration": 9, "velocity": 80}, {"time": 358, "pitch": 59, "duration": 9, "velocity": 92}, {"time": 364, "pitch": 51, "duration": 9, "velocity": 27}, {"time": 370, "pitch": 54, "duration": 5, "velocity": 94}, {"time": 370, "pitch": 59, "duration": 5, "velocity": 108}, {"time": 370, "pitch": 63, "duration": 5, "velocity": 102}, {"time": 376, "pitch": 44, "duration": 5, "velocity": 92}, {"time": 382, "pitch": 49, "duration": 3, "velocity": 102}, {"time": 382, "pitch": 56, "duration": 3, "velocity": 100}, {"time": 382, "pitch": 61, "duration": 4, "velocity": 97}, {"time": 391, "pitch": 47, "duration": 2, "velocity": 105}, {"time": 391, "pitch": 54, "duration": 1, "velocity": 89}, {"time": 391, "pitch": 61, "duration": 1, "velocity": 94}, {"time": 391, "pitch": 66, "duration": 1, "velocity": 100}, {"time": 397, "pitch": 49, "duration": 8, "velocity": 55}, {"time": 397, "pitch": 49, "duration": 8, "velocity": 97}, {"time": 397, "pitch": 53, "duration": 9, "velocity": 35}, {"time": 397, "pitch": 56, "duration": 9, "velocity": 73}, {"time": 397, "pitch": 61, "duration": 9, "velocity": 82}, {"time": 397, "pitch": 65, "duration": 9, "velocity": 82}, {"time": 397, "pitch": 68, "duration": 9, "velocity": 97}, {"time": 406, "pitch": 42, "duration": 23, "velocity": 89}, {"time": 406, "pitch": 54, "duration": 9, "velocity": 71}, {"time": 406, "pitch": 61, "duration": 1, "velocity": 80}, {"time": 412, "pitch": 49, "duration": 8, "velocity": 39}, {"time": 418, "pitch": 54, "duration": 9, "velocity": 89}, {"time": 418, "pitch": 61, "duration": 10, "velocity": 100}, {"time": 430, "pitch": 39, "duration": 18, "velocity": 85}, {"time": 430, "pitch": 54, "duration": 11, "velocity": 82}, {"time": 430, "pitch": 58, "duration": 11, "velocity": 94}, {"time": 442, "pitch": 54, "duration": 3, "velocity": 89}, {"time": 442, "pitch": 58, "duration": 11, "velocity": 102}, {"time": 442, "pitch": 63, "duration": 11, "velocity": 97}, {"time": 448, "pitch": 54, "duration": 5, "velocity": 60}, {"time": 454, "pitch": 42, "duration": 14, "velocity": 97}, {"time": 454, "pitch": 54, "duration": 8, "velocity": 80}, {"time": 454, "pitch": 58, "duration": 8, "velocity": 89}, {"time": 460, "pitch": 49, "duration": 8, "velocity": 34}, {"time": 466, "pitch": 54, "duration": 3, "velocity": 97}, {"time": 466, "pitch": 58, "duration": 3, "velocity": 111}, {"time": 466, "pitch": 61, "duration": 5, "velocity": 94}, {"time": 478, "pitch": 46, "duration": 15, "velocity": 100}, {"time": 478, "pitch": 56, "duration": 8, "velocity": 84}, {"time": 478, "pitch": 61, "duration": 8, "velocity": 97}, {"time": 484, "pitch": 53, "duration": 8, "velocity": 31}, {"time": 490, "pitch": 56, "duration": 6, "velocity": 94}, {"time": 490, "pitch": 61, "duration": 6, "velocity": 100}, {"time": 490, "pitch": 65, "duration": 7, "velocity": 93}, {"time": 496, "pitch": 46, "duration": 4, "velocity": 97}, {"time": 502, "pitch": 47, "duration": 15, "velocity": 105}, {"time": 502, "pitch": 59, "duration": 8, "velocity": 76}, {"time": 502, "pitch": 63, "duration": 8, "velocity": 80}, {"time": 508, "pitch": 54, "duration": 12, "velocity": 44}, {"time": 514, "pitch": 59, "duration": 5, "velocity": 92}, {"time": 514, "pitch": 63, "duration": 5, "velocity": 97}, {"time": 514, "pitch": 66, "duration": 11, "velocity": 94}, {"time": 520, "pitch": 47, "duration": 3, "velocity": 82}, {"time": 526, "pitch": 46, "duration": 15, "velocity": 97}, {"time": 526, "pitch": 58, "duration": 8, "velocity": 78}, {"time": 526, "pitch": 61, "duration": 8, "velocity": 84}, {"time": 532, "pitch": 53, "duration": 10, "velocity": 41}, {"time": 538, "pitch": 58, "duration": 6, "velocity": 97}, {"time": 538, "pitch": 65, "duration": 6, "velocity": 90}, {"time": 544, "pitch": 46, "duration": 3, "velocity": 94}, {"time": 550, "pitch": 44, "duration": 6, "velocity": 97}, {"time": 550, "pitch": 54, "duration": 6, "velocity": 94}, {"time": 550, "pitch": 59, "duration": 6, "velocity": 97}, {"time": 562, "pitch": 46, "duration": 7, "velocity": 97}, {"time": 562, "pitch": 58, "duration": 9, "velocity": 97}, {"time": 562, "pitch": 61, "duration": 10, "velocity": 100}, {"time": 577, "pitch": 49, "duration": 3, "velocity": 102}, {"time": 577, "pitch": 56, "duration": 3, "velocity": 105}, {"time": 577, "pitch": 61, "duration": 2, "velocity": 100}, {"time": 577, "pitch": 65, "duration": 2, "velocity": 102}, {"time": 583, "pitch": 51, "duration": 14, "velocity": 108}, {"time": 583, "pitch": 58, "duration": 8, "velocity": 94}, {"time": 583, "pitch": 63, "duration": 10, "velocity": 94}, {"time": 583, "pitch": 66, "duration": 13, "velocity": 105}, {"time": 592, "pitch": 58, "duration": 4, "velocity": 94}, {"time": 595, "pitch": 63, "duration": 2, "velocity": 100}, {"time": 598, "pitch": 51, "duration": 14, "velocity": 105}, {"time": 598, "pitch": 61, "duration": 8, "velocity": 84}, {"time": 598, "pitch": 66, "duration": 9, "velocity": 94}, {"time": 604, "pitch": 58, "duration": 8, "velocity": 69}, {"time": 610, "pitch": 61, "duration": 7, "velocity": 100}, {"time": 610, "pitch": 66, "duration": 8, "velocity": 105}, {"time": 616, "pitch": 51, "duration": 22, "velocity": 69}, {"time": 619, "pitch": 58, "duration": 5, "velocity": 78}, {"time": 622, "pitch": 61, "duration": 7, "velocity": 100}, {"time": 622, "pitch": 66, "duration": 8, "velocity": 105}, {"time": 628, "pitch": 58, "duration": 7, "velocity": 71}, {"time": 631, "pitch": 61, "duration": 1, "velocity": 60}, {"time": 634, "pitch": 61, "duration": 4, "velocity": 97}, {"time": 634, "pitch": 66, "duration": 4, "velocity": 111}, {"time": 634, "pitch": 70, "duration": 4, "velocity": 100}, {"time": 637, "pitch": 58, "duration": 1, "velocity": 89}, {"time": 640, "pitch": 61, "duration": 2, "velocity": 108}, {"time": 646, "pitch": 46, "duration": 22, "velocity": 102}, {"time": 646, "pitch": 56, "duration": 8, "velocity": 100}, {"time": 646, "pitch": 61, "duration": 8, "velocity": 89}, {"time": 652, "pitch": 53, "duration": 8, "velocity": 29}, {"time": 658, "pitch": 56, "duration": 6, "velocity": 108}, {"time": 658, "pitch": 61, "duration": 6, "velocity": 111}, {"time": 658, "pitch": 65, "duration": 9, "velocity": 109}, {"time": 664, "pitch": 53, "duration": 6, "velocity": 30}, {"time": 667, "pitch": 56, "duration": 2, "velocity": 71}, {"time": 670, "pitch": 46, "duration": 17, "velocity": 87}, {"time": 670, "pitch": 56, "duration": 7, "velocity": 82}, {"time": 670, "pitch": 61, "duration": 8, "velocity": 89}, {"time": 676, "pitch": 53, "duration": 7, "velocity": 23}, {"time": 679, "pitch": 56, "duration": 1, "velocity": 37}, {"time": 682, "pitch": 56, "duration": 3, "velocity": 105}, {"time": 682, "pitch": 61, "duration": 5, "velocity": 105}, {"time": 682, "pitch": 65, "duration": 9, "velocity": 99}, {"time": 685, "pitch": 53, "duration": 3, "velocity": 70}, {"time": 688, "pitch": 56, "duration": 3, "velocity": 80}, {"time": 691, "pitch": 61, "duration": 2, "velocity": 78}, {"time": 694, "pitch": 47, "duration": 16, "velocity": 100}, {"time": 694, "pitch": 59, "duration": 8, "velocity": 82}, {"time": 694, "pitch": 63, "duration": 8, "velocity": 97}, {"time": 700, "pitch": 54, "duration": 7, "velocity": 40}, {"time": 706, "pitch": 59, "duration": 4, "velocity": 100}, {"time": 706, "pitch": 63, "duration": 5, "velocity": 105}, {"time": 706, "pitch": 66, "duration": 6, "velocity": 102}, {"time": 709, "pitch": 54, "duration": 2, "velocity": 55}, {"time": 712, "pitch": 47, "duration": 3, "velocity": 94}, {"time": 718, "pitch": 49, "duration": 14, "velocity": 105}, {"time": 718, "pitch": 61, "duration": 6, "velocity": 97}, {"time": 718, "pitch": 65, "duration": 7, "velocity": 90}, {"time": 724, "pitch": 56, "duration": 9, "velocity": 57}, {"time": 727, "pitch": 61, "duration": 1, "velocity": 69}, {"time": 730, "pitch": 61, "duration": 6, "velocity": 102}, {"time": 730, "pitch": 65, "duration": 6, "velocity": 109}, {"time": 730, "pitch": 68, "duration": 6, "velocity": 102}, {"time": 736, "pitch": 49, "duration": 1, "velocity": 94}, {"time": 739, "pitch": 61, "duration": 2, "velocity": 94}, {"time": 742, "pitch": 42, "duration": 16, "velocity": 105}, {"time": 742, "pitch": 61, "duration": 6, "velocity": 84}, {"time": 742, "pitch": 66, "duration": 8, "velocity": 97}, {"time": 748, "pitch": 49, "duration": 7, "velocity": 51}, {"time": 754, "pitch": 61, "duration": 3, "velocity": 102}, {"time": 754, "pitch": 66, "duration": 4, "velocity": 114}, {"time": 754, "pitch": 70, "duration": 7, "velocity": 105}, {"time": 757, "pitch": 49, "duration": 3, "velocity": 69}, {"time": 760, "pitch": 61, "duration": 3, "velocity": 117}, {"time": 766, "pitch": 46, "duration": 3, "velocity": 102}, {"time": 766, "pitch": 58, "duration": 4, "velocity": 100}, {"time": 766, "pitch": 62, "duration": 4, "velocity": 102}, {"time": 769, "pitch": 50, "duration": 6, "velocity": 99}, {"time": 772, "pitch": 46, "duration": 3, "velocity": 8}, {"time": 772, "pitch": 58, "duration": 1, "velocity": 94}, {"time": 775, "pitch": 58, "duration": 3, "velocity": 111}, {"time": 775, "pitch": 62, "duration": 3, "velocity": 116}, {"time": 775, "pitch": 65, "duration": 4, "velocity": 105}, {"time": 778, "pitch": 53, "duration": 3, "velocity": 96}, {"time": 781, "pitch": 58, "duration": 3, "velocity": 111}, {"time": 781, "pitch": 62, "duration": 4, "velocity": 105}, {"time": 781, "pitch": 65, "duration": 7, "velocity": 85}, {"time": 781, "pitch": 70, "duration": 8, "velocity": 100}, {"time": 784, "pitch": 53, "duration": 3, "velocity": 82}, {"time": 787, "pitch": 58, "duration": 3, "velocity": 92}, {"time": 787, "pitch": 62, "duration": 2, "velocity": 11}, {"time": 790, "pitch": 51, "duration": 14, "velocity": 105}, {"time": 790, "pitch": 61, "duration": 8, "velocity": 84}, {"time": 790, "pitch": 66, "duration": 9, "velocity": 94}, {"time": 796, "pitch": 58, "duration": 8, "velocity": 69}, {"time": 802, "pitch": 61, "duration": 7, "velocity": 100}, {"time": 802, "pitch": 66, "duration": 8, "velocity": 105}, {"time": 808, "pitch": 51, "duration": 22, "velocity": 69}, {"time": 811, "pitch": 58, "duration": 5, "velocity": 78}, {"time": 814, "pitch": 61, "duration": 7, "velocity": 100}, {"time": 814, "pitch": 66, "duration": 8, "velocity": 105}, {"time": 820, "pitch": 58, "duration": 7, "velocity": 71}, {"time": 823, "pitch": 61, "duration": 1, "velocity": 60}, {"time": 826, "pitch": 61, "duration": 4, "velocity": 97}, {"time": 826, "pitch": 66, "duration": 4, "velocity": 111}, {"time": 826, "pitch": 70, "duration": 4, "velocity": 100}, {"time": 829, "pitch": 58, "duration": 1, "velocity": 89}, {"time": 832, "pitch": 61, "duration": 2, "velocity": 108}, {"time": 838, "pitch": 46, "duration": 22, "velocity": 102}, {"time": 838, "pitch": 56, "duration": 8, "velocity": 100}, {"time": 838, "pitch": 61, "duration": 8, "velocity": 89}, {"time": 844, "pitch": 53, "duration": 8, "velocity": 29}, {"time": 850, "pitch": 56, "duration": 6, "velocity": 108}, {"time": 850, "pitch": 61, "duration": 6, "velocity": 111}, {"time": 850, "pitch": 65, "duration": 9, "velocity": 109}, {"time": 856, "pitch": 53, "duration": 6, "velocity": 30}, {"time": 859, "pitch": 56, "duration": 2, "velocity": 71}, {"time": 862, "pitch": 46, "duration": 17, "velocity": 87}, {"time": 862, "pitch": 56, "duration": 7, "velocity": 82}, {"time": 862, "pitch": 61, "duration": 8, "velocity": 89}, {"time": 868, "pitch": 53, "duration": 7, "velocity": 23}, {"time": 871, "pitch": 56, "duration": 1, "velocity": 37}, {"time": 874, "pitch": 56, "duration": 3, "velocity": 105}, {"time": 874, "pitch": 61, "duration": 5, "velocity": 105}, {"time": 874, "pitch": 65, "duration": 9, "velocity": 99}, {"time": 877, "pitch": 53, "duration": 3, "velocity": 70}, {"time": 880, "pitch": 56, "duration": 3, "velocity": 80}, {"time": 883, "pitch": 61, "duration": 2, "velocity": 78}, {"time": 886, "pitch": 47, "duration": 16, "velocity": 100}, {"time": 886, "pitch": 59, "duration": 8, "velocity": 82}, {"time": 886, "pitch": 63, "duration": 8, "velocity": 97}, {"time": 892, "pitch": 54, "duration": 7, "velocity": 40}, {"time": 898, "pitch": 59, "duration": 4, "velocity": 100}, {"time": 898, "pitch": 63, "duration": 5, "velocity": 105}, {"time": 898, "pitch": 66, "duration": 6, "velocity": 102}, {"time": 901, "pitch": 54, "duration": 2, "velocity": 55}, {"time": 904, "pitch": 47, "duration": 3, "velocity": 94}, {"time": 910, "pitch": 46, "duration": 15, "velocity": 105}, {"time": 910, "pitch": 58, "duration": 8, "velocity": 92}, {"time": 910, "pitch": 61, "duration": 9, "velocity": 89}, {"time": 910, "pitch": 65, "duration": 9, "velocity": 82}, {"time": 916, "pitch": 53, "duration": 7, "velocity": 65}, {"time": 922, "pitch": 56, "duration": 4, "velocity": 100}, {"time": 922, "pitch": 61, "duration": 5, "velocity": 97}, {"time": 922, "pitch": 65, "duration": 6, "velocity": 93}, {"time": 925, "pitch": 53, "duration": 2, "velocity": 82}, {"time": 928, "pitch": 46, "duration": 4, "velocity": 102}, {"time": 934, "pitch": 51, "duration": 14, "velocity": 114}, {"time": 934, "pitch": 58, "duration": 3, "velocity": 92}, {"time": 934, "pitch": 63, "duration": 8, "velocity": 87}, {"time": 940, "pitch": 58, "duration": 4, "velocity": 69}, {"time": 946, "pitch": 58, "duration": 3, "velocity": 111}, {"time": 946, "pitch": 63, "duration": 4, "velocity": 117}, {"time": 946, "pitch": 66, "duration": 3, "velocity": 111}, {"time": 949, "pitch": 51, "duration": 30, "velocity": 87}, {"time": 952, "pitch": 58, "duration": 2, "velocity": 94}, {"time": 955, "pitch": 58, "duration": 3, "velocity": 82}, {"time": 955, "pitch": 65, "duration": 4, "velocity": 85}, {"time": 961, "pitch": 58, "duration": 5, "velocity": 92}, {"time": 961, "pitch": 63, "duration": 19, "velocity": 92}, {"time": 982, "pitch": 47, "duration": 20, "velocity": 105}, {"time": 982, "pitch": 59, "duration": 6, "velocity": 92}, {"time": 982, "pitch": 63, "duration": 6, "velocity": 100}, {"time": 988, "pitch": 54, "duration": 4, "velocity": 30}, {"time": 991, "pitch": 59, "duration": 4, "velocity": 94}, {"time": 991, "pitch": 63, "duration": 1, "velocity": 55}, {"time": 991, "pitch": 66, "duration": 5, "velocity": 102}, {"time": 994, "pitch": 54, "duration": 8, "velocity": 50}, {"time": 997, "pitch": 59, "duration": 3, "velocity": 87}, {"time": 1000, "pitch": 63, "duration": 3, "velocity": 105}, {"time": 1003, "pitch": 59, "duration": 1, "velocity": 76}, {"time": 1006, "pitch": 49, "duration": 15, "velocity": 100}, {"time": 1006, "pitch": 61, "duration": 3, "velocity": 92}, {"time": 1006, "pitch": 65, "duration": 5, "velocity": 96}, {"time": 1009, "pitch": 56, "duration": 7, "velocity": 40}, {"time": 1012, "pitch": 61, "duration": 1, "velocity": 27}, {"time": 1015, "pitch": 61, "duration": 4, "velocity": 102}, {"time": 1015, "pitch": 68, "duration": 4, "velocity": 102}, {"time": 1018, "pitch": 56, "duration": 2, "velocity": 69}, {"time": 1021, "pitch": 61, "duration": 1, "velocity": 94}, {"time": 1021, "pitch": 65, "duration": 4, "velocity": 102}, {"time": 1024, "pitch": 61, "duration": 4, "velocity": 58}, {"time": 1027, "pitch": 65, "duration": 2, "velocity": 65}, {"time": 1030, "pitch": 47, "duration": 18, "velocity": 97}, {"time": 1030, "pitch": 59, "duration": 3, "velocity": 102}, {"time": 1030, "pitch": 63, "duration": 6, "velocity": 108}, {"time": 1033, "pitch": 54, "duration": 7, "velocity": 52}, {"time": 1036, "pitch": 59, "duration": 1, "velocity": 52}, {"time": 1039, "pitch": 59, "duration": 3, "velocity": 92}, {"time": 1039, "pitch": 66, "duration": 3, "velocity": 94}, {"time": 1042, "pitch": 54, "duration": 4, "velocity": 71}, {"time": 1045, "pitch": 63, "duration": 4, "velocity": 108}, {"time": 1048, "pitch": 59, "duration": 3, "velocity": 89}, {"time": 1051, "pitch": 63, "duration": 2, "velocity": 94}, {"time": 1054, "pitch": 49, "duration": 14, "velocity": 100}, {"time": 1054, "pitch": 65, "duration": 6, "velocity": 96}, {"time": 1057, "pitch": 56, "duration": 7, "velocity": 64}, {"time": 1060, "pitch": 61, "duration": 1, "velocity": 84}, {"time": 1063, "pitch": 61, "duration": 3, "velocity": 89}, {"time": 1063, "pitch": 65, "duration": 3, "velocity": 102}, {"time": 1063, "pitch": 68, "duration": 3, "velocity": 94}, {"time": 1066, "pitch": 56, "duration": 3, "velocity": 87}, {"time": 1069, "pitch": 61, "duration": 2, "velocity": 89}, {"time": 1069, "pitch": 65, "duration": 3, "velocity": 105}, {"time": 1069, "pitch": 68, "duration": 4, "velocity": 100}, {"time": 1078, "pitch": 46, "duration": 20, "velocity": 100}, {"time": 1078, "pitch": 58, "duration": 3, "velocity": 97}, {"time": 1078, "pitch": 63, "duration": 7, "velocity": 105}, {"time": 1081, "pitch": 53, "duration": 7, "velocity": 87}, {"time": 1084, "pitch": 58, "duration": 1, "velocity": 89}, {"time": 1087, "pitch": 58, "duration": 3, "velocity": 114}, {"time": 1087, "pitch": 63, "duration": 4, "velocity": 114}, {"time": 1087, "pitch": 68, "duration": 1, "velocity": 58}, {"time": 1090, "pitch": 53, "duration": 5, "velocity": 65}, {"time": 1093, "pitch": 58, "duration": 2, "velocity": 89}, {"time": 1093, "pitch": 63, "duration": 1, "velocity": 50}, {"time": 1096, "pitch": 58, "duration": 2, "velocity": 47}, {"time": 1096, "pitch": 63, "duration": 3, "velocity": 87}, {"time": 1099, "pitch": 58, "duration": 1, "velocity": 87}, {"time": 1102, "pitch": 46, "duration": 13, "velocity": 92}, {"time": 1102, "pitch": 58, "duration": 3, "velocity": 92}, {"time": 1102, "pitch": 62, "duration": 5, "velocity": 96}, {"time": 1105, "pitch": 53, "duration": 6, "velocity": 93}, {"time": 1108, "pitch": 58, "duration": 1, "velocity": 97}, {"time": 1111, "pitch": 58, "duration": 4, "velocity": 100}, {"time": 1111, "pitch": 62, "duration": 3, "velocity": 109}, {"time": 1111, "pitch": 65, "duration": 4, "velocity": 90}, {"time": 1114, "pitch": 53, "duration": 4, "velocity": 96}, {"time": 1117, "pitch": 58, "duration": 3, "velocity": 105}, {"time": 1117, "pitch": 62, "duration": 5, "velocity": 112}, {"time": 1117, "pitch": 65, "duration": 6, "velocity": 109}, {"time": 1120, "pitch": 46, "duration": 3, "velocity": 94}, {"time": 1123, "pitch": 58, "duration": 1, "velocity": 94}, {"time": 1126, "pitch": 46, "duration": 9, "velocity": 97}, {"time": 1126, "pitch": 58, "duration": 4, "velocity": 94}, {"time": 1126, "pitch": 62, "duration": 4, "velocity": 96}, {"time": 1126, "pitch": 65, "duration": 4, "velocity": 87}, {"time": 1132, "pitch": 58, "duration": 3, "velocity": 71}, {"time": 1132, "pitch": 62, "duration": 3, "velocity": 57}, {"time": 1132, "pitch": 65, "duration": 3, "velocity": 42}, {"time": 1138, "pitch": 58, "duration": 3, "velocity": 111}, {"time": 1138, "pitch": 62, "duration": 4, "velocity": 112}, {"time": 1138, "pitch": 65, "duration": 4, "velocity": 105}, {"time": 1138, "pitch": 70, "duration": 4, "velocity": 94}, {"time": 1141, "pitch": 53, "duration": 7, "velocity": 90}, {"time": 1144, "pitch": 58, "duration": 1, "velocity": 94}, {"time": 1144, "pitch": 65, "duration": 1, "velocity": 4}, {"time": 1147, "pitch": 58, "duration": 4, "velocity": 94}, {"time": 1147, "pitch": 62, "duration": 4, "velocity": 87}, {"time": 1147, "pitch": 65, "duration": 4, "velocity": 77}, {"time": 1147, "pitch": 68, "duration": 3, "velocity": 78}, {"time": 1150, "pitch": 46, "duration": 14, "velocity": 92}, {"time": 1153, "pitch": 58, "duration": 3, "velocity": 108}, {"time": 1153, "pitch": 62, "duration": 4, "velocity": 109}, {"time": 1153, "pitch": 65, "duration": 4, "velocity": 109}, {"time": 1153, "pitch": 70, "duration": 4, "velocity": 97}, {"time": 1156, "pitch": 53, "duration": 7, "velocity": 93}, {"time": 1159, "pitch": 58, "duration": 1, "velocity": 94}, {"time": 1159, "pitch": 62, "duration": 1, "velocity": 36}, {"time": 1162, "pitch": 58, "duration": 5, "velocity": 111}, {"time": 1162, "pitch": 62, "duration": 7, "velocity": 112}, {"time": 1162, "pitch": 65, "duration": 8, "velocity": 109}, {"time": 1165, "pitch": 50, "duration": 3, "velocity": 93}, {"time": 1168, "pitch": 53, "duration": 2, "velocity": 109}, {"time": 1171, "pitch": 58, "duration": 1, "velocity": 114}, {"time": 1174, "pitch": 47, "duration": 20, "velocity": 100}, {"time": 1174, "pitch": 59, "duration": 6, "velocity": 100}, {"time": 1174, "pitch": 63, "duration": 7, "velocity": 108}, {"time": 1180, "pitch": 54, "duration": 4, "velocity": 76}, {"time": 1183, "pitch": 59, "duration": 3, "velocity": 114}, {"time": 1183, "pitch": 66, "duration": 4, "velocity": 105}, {"time": 1186, "pitch": 54, "duration": 4, "velocity": 78}, {"time": 1189, "pitch": 59, "duration": 3, "velocity": 105}, {"time": 1189, "pitch": 63, "duration": 4, "velocity": 117}, {"time": 1192, "pitch": 54, "duration": 4, "velocity": 76}, {"time": 1195, "pitch": 59, "duration": 1, "velocity": 94}, {"time": 1195, "pitch": 63, "duration": 1, "velocity": 44}, {"time": 1198, "pitch": 49, "duration": 16, "velocity": 100}, {"time": 1198, "pitch": 61, "duration": 3, "velocity": 82}, {"time": 1198, "pitch": 65, "duration": 4, "velocity": 96}, {"time": 1201, "pitch": 56, "duration": 7, "velocity": 76}, {"time": 1207, "pitch": 61, "duration": 4, "velocity": 97}, {"time": 1207, "pitch": 68, "duration": 3, "velocity": 102}, {"time": 1210, "pitch": 56, "duration": 5, "velocity": 80}, {"time": 1213, "pitch": 61, "duration": 3, "velocity": 102}, {"time": 1213, "pitch": 65, "duration": 6, "velocity": 102}, {"time": 1216, "pitch": 49, "duration": 3, "velocity": 51}, {"time": 1216, "pitch": 56, "duration": 2, "velocity": 22}, {"time": 1219, "pitch": 61, "duration": 1, "velocity": 100}, {"time": 1222, "pitch": 47, "duration": 22, "velocity": 97}, {"time": 1222, "pitch": 59, "duration": 7, "velocity": 102}, {"time": 1222, "pitch": 63, "duration": 7, "velocity": 102}, {"time": 1228, "pitch": 54, "duration": 10, "velocity": 51}, {"time": 1231, "pitch": 59, "duration": 2, "velocity": 108}, {"time": 1237, "pitch": 59, "duration": 3, "velocity": 114}, {"time": 1237, "pitch": 66, "duration": 3, "velocity": 111}, {"time": 1240, "pitch": 54, "duration": 4, "velocity": 82}, {"time": 1243, "pitch": 59, "duration": 2, "velocity": 87}, {"time": 1243, "pitch": 66, "duration": 1, "velocity": 7}, {"time": 1246, "pitch": 49, "duration": 16, "velocity": 102}, {"time": 1249, "pitch": 56, "duration": 7, "velocity": 84}, {"time": 1252, "pitch": 61, "duration": 1, "velocity": 108}, {"time": 1255, "pitch": 61, "duration": 3, "velocity": 105}, {"time": 1255, "pitch": 65, "duration": 4, "velocity": 112}, {"time": 1258, "pitch": 53, "duration": 7, "velocity": 90}, {"time": 1261, "pitch": 61, "duration": 3, "velocity": 102}, {"time": 1261, "pitch": 65, "duration": 7, "velocity": 96}, {"time": 1261, "pitch": 70, "duration": 1, "velocity": 53}, {"time": 1264, "pitch": 49, "duration": 2, "velocity": 1}, {"time": 1264, "pitch": 56, "duration": 2, "velocity": 49}, {"time": 1267, "pitch": 61, "duration": 2, "velocity": 97}, {"time": 1270, "pitch": 51, "duration": 14, "velocity": 100}, {"time": 1270, "pitch": 63, "duration": 3, "velocity": 94}, {"time": 1270, "pitch": 66, "duration": 4, "velocity": 105}, {"time": 1273, "pitch": 58, "duration": 7, "velocity": 84}, {"time": 1276, "pitch": 63, "duration": 1, "velocity": 71}, {"time": 1279, "pitch": 63, "duration": 3, "velocity": 108}, {"time": 1279, "pitch": 66, "duration": 3, "velocity": 117}, {"time": 1282, "pitch": 58, "duration": 3, "velocity": 87}, {"time": 1285, "pitch": 63, "duration": 4, "velocity": 105}, {"time": 1285, "pitch": 66, "duration": 7, "velocity": 114}, {"time": 1291, "pitch": 63, "duration": 2, "velocity": 64}, {"time": 1294, "pitch": 46, "duration": 21, "velocity": 100}, {"time": 1294, "pitch": 66, "duration": 6, "velocity": 111}, {"time": 1300, "pitch": 53, "duration": 4, "velocity": 90}, {"time": 1303, "pitch": 58, "duration": 4, "velocity": 111}, {"time": 1306, "pitch": 53, "duration": 3, "velocity": 93}, {"time": 1309, "pitch": 58, "duration": 3, "velocity": 111}, {"time": 1309, "pitch": 65, "duration": 7, "velocity": 112}, {"time": 1312, "pitch": 53, "duration": 4, "velocity": 90}, {"time": 1315, "pitch": 58, "duration": 1, "velocity": 92}, {"time": 1318, "pitch": 47, "duration": 20, "velocity": 100}, {"time": 1318, "pitch": 59, "duration": 3, "velocity": 87}, {"time": 1318, "pitch": 63, "duration": 5, "velocity": 100}, {"time": 1321, "pitch": 54, "duration": 6, "velocity": 78}, {"time": 1324, "pitch": 59, "duration": 1, "velocity": 12}, {"time": 1327, "pitch": 59, "duration": 3, "velocity": 111}, {"time": 1327, "pitch": 66, "duration": 6, "velocity": 102}, {"time": 1330, "pitch": 54, "duration": 9, "velocity": 84}, {"time": 1333, "pitch": 59, "duration": 4, "velocity": 97}, {"time": 1336, "pitch": 63, "duration": 2, "velocity": 108}, {"time": 1339, "pitch": 66, "duration": 4, "velocity": 94}, {"time": 1342, "pitch": 49, "duration": 21, "velocity": 97}, {"time": 1342, "pitch": 65, "duration": 6, "velocity": 109}, {"time": 1345, "pitch": 56, "duration": 7, "velocity": 80}, {"time": 1348, "pitch": 61, "duration": 1, "velocity": 80}, {"time": 1351, "pitch": 61, "duration": 4, "velocity": 92}, {"time": 1351, "pitch": 65, "duration": 4, "velocity": 102}, {"time": 1354, "pitch": 53, "duration": 6, "velocity": 90}, {"time": 1357, "pitch": 61, "duration": 3, "velocity": 89}, {"time": 1357, "pitch": 68, "duration": 3, "velocity": 100}, {"time": 1360, "pitch": 56, "duration": 2, "velocity": 69}, {"time": 1363, "pitch": 53, "duration": 1, "velocity": 61}, {"time": 1363, "pitch": 61, "duration": 2, "velocity": 84}, {"time": 1366, "pitch": 49, "duration": 21, "velocity": 100}, {"time": 1366, "pitch": 56, "duration": 10, "velocity": 94}, {"time": 1366, "pitch": 61, "duration": 6, "velocity": 87}, {"time": 1366, "pitch": 65, "duration": 8, "velocity": 90}, {"time": 1372, "pitch": 53, "duration": 2, "velocity": 11}, {"time": 1375, "pitch": 61, "duration": 3, "velocity": 105}, {"time": 1375, "pitch": 68, "duration": 4, "velocity": 105}, {"time": 1378, "pitch": 56, "duration": 3, "velocity": 76}, {"time": 1381, "pitch": 61, "duration": 3, "velocity": 97}, {"time": 1381, "pitch": 65, "duration": 7, "velocity": 105}, {"time": 1387, "pitch": 61, "duration": 2, "velocity": 42}, {"time": 1390, "pitch": 49, "duration": 23, "velocity": 92}, {"time": 1390, "pitch": 56, "duration": 22, "velocity": 89}, {"time": 1390, "pitch": 61, "duration": 22, "velocity": 87}, {"time": 1390, "pitch": 65, "duration": 22, "velocity": 74}, {"time": 1414, "pitch": 42, "duration": 23, "velocity": 89}, {"time": 1414, "pitch": 54, "duration": 9, "velocity": 71}, {"time": 1414, "pitch": 61, "duration": 10, "velocity": 80}, {"time": 1420, "pitch": 49, "duration": 8, "velocity": 39}, {"time": 1426, "pitch": 54, "duration": 9, "velocity": 89}, {"time": 1426, "pitch": 61, "duration": 10, "velocity": 100}, {"time": 1438, "pitch": 39, "duration": 18, "velocity": 85}, {"time": 1438, "pitch": 54, "duration": 11, "velocity": 82}, {"time": 1438, "pitch": 58, "duration": 11, "velocity": 94}, {"time": 1450, "pitch": 54, "duration": 3, "velocity": 89}, {"time": 1450, "pitch": 58, "duration": 11, "velocity": 102}, {"time": 1450, "pitch": 63, "duration": 11, "velocity": 97}, {"time": 1456, "pitch": 54, "duration": 5, "velocity": 60}, {"time": 1462, "pitch": 42, "duration": 14, "velocity": 97}, {"time": 1462, "pitch": 54, "duration": 8, "velocity": 80}, {"time": 1462, "pitch": 58, "duration": 8, "velocity": 89}, {"time": 1468, "pitch": 49, "duration": 8, "velocity": 34}, {"time": 1474, "pitch": 54, "duration": 3, "velocity": 97}, {"time": 1474, "pitch": 58, "duration": 3, "velocity": 111}, {"time": 1474, "pitch": 61, "duration": 5, "velocity": 94}, {"time": 1486, "pitch": 46, "duration": 15, "velocity": 100}, {"time": 1486, "pitch": 56, "duration": 8, "velocity": 84}, {"time": 1486, "pitch": 61, "duration": 8, "velocity": 97}, {"time": 1492, "pitch": 53, "duration": 8, "velocity": 31}, {"time": 1498, "pitch": 56, "duration": 6, "velocity": 94}, {"time": 1498, "pitch": 61, "duration": 6, "velocity": 100}, {"time": 1498, "pitch": 65, "duration": 7, "velocity": 93}, {"time": 1504, "pitch": 46, "duration": 4, "velocity": 97}, {"time": 1510, "pitch": 47, "duration": 15, "velocity": 105}, {"time": 1510, "pitch": 59, "duration": 8, "velocity": 76}, {"time": 1510, "pitch": 63, "duration": 8, "velocity": 80}, {"time": 1516, "pitch": 54, "duration": 12, "velocity": 44}, {"time": 1522, "pitch": 59, "duration": 5, "velocity": 92}, {"time": 1522, "pitch": 63, "duration": 5, "velocity": 97}, {"time": 1522, "pitch": 66, "duration": 11, "velocity": 94}, {"time": 1528, "pitch": 47, "duration": 3, "velocity": 82}, {"time": 1534, "pitch": 46, "duration": 15, "velocity": 97}, {"time": 1534, "pitch": 58, "duration": 8, "velocity": 78}, {"time": 1534, "pitch": 61, "duration": 8, "velocity": 84}, {"time": 1540, "pitch": 53, "duration": 10, "velocity": 41}, {"time": 1546, "pitch": 58, "duration": 6, "velocity": 97}, {"time": 1546, "pitch": 65, "duration": 6, "velocity": 90}, {"time": 1552, "pitch": 46, "duration": 3, "velocity": 94}, {"time": 1558, "pitch": 44, "duration": 15, "velocity": 100}, {"time": 1558, "pitch": 54, "duration": 9, "velocity": 80}, {"time": 1558, "pitch": 59, "duration": 9, "velocity": 92}, {"time": 1564, "pitch": 51, "duration": 9, "velocity": 27}, {"time": 1570, "pitch": 54, "duration": 5, "velocity": 94}, {"time": 1570, "pitch": 59, "duration": 5, "velocity": 108}, {"time": 1570, "pitch": 63, "duration": 5, "velocity": 102}, {"time": 1576, "pitch": 44, "duration": 5, "velocity": 92}, {"time": 1582, "pitch": 49, "duration": 3, "velocity": 102}, {"time": 1582, "pitch": 56, "duration": 3, "velocity": 100}, {"time": 1582, "pitch": 61, "duration": 4, "velocity": 97}, {"time": 1591, "pitch": 47, "duration": 2, "velocity": 105}, {"time": 1591, "pitch": 54, "duration": 1, "velocity": 89}, {"time": 1591, "pitch": 61, "duration": 1, "velocity": 94}, {"time": 1591, "pitch": 66, "duration": 1, "velocity": 100}, {"time": 1597, "pitch": 49, "duration": 8, "velocity": 55}, {"time": 1597, "pitch": 49, "duration": 8, "velocity": 97}, {"time": 1597, "pitch": 53, "duration": 9, "velocity": 35}, {"time": 1597, "pitch": 56, "duration": 9, "velocity": 73}, {"time": 1597, "pitch": 61, "duration": 9, "velocity": 82}, {"time": 1597, "pitch": 65, "duration": 9, "velocity": 82}, {"time": 1597, "pitch": 68, "duration": 9, "velocity": 97}, {"time": 1606, "pitch": 42, "duration": 23, "velocity": 89}, {"time": 1606, "pitch": 54, "duration": 9, "velocity": 71}, {"time": 1606, "pitch": 61, "duration": 1, "velocity": 80}, {"time": 1612, "pitch": 49, "duration": 8, "velocity": 39}, {"time": 1618, "pitch": 54, "duration": 9, "velocity": 89}, {"time": 1618, "pitch": 61, "duration": 10, "velocity": 100}, {"time": 1630, "pitch": 39, "duration": 18, "velocity": 85}, {"time": 1630, "pitch": 54, "duration": 11, "velocity": 82}, {"time": 1630, "pitch": 58, "duration": 11, "velocity": 94}, {"time": 1642, "pitch": 54, "duration": 3, "velocity": 89}, {"time": 1642, "pitch": 58, "duration": 11, "velocity": 102}, {"time": 1642, "pitch": 63, "duration": 11, "velocity": 97}, {"time": 1648, "pitch": 54, "duration": 5, "velocity": 60}, {"time": 1654, "pitch": 42, "duration": 14, "velocity": 97}, {"time": 1654, "pitch": 54, "duration": 8, "velocity": 80}, {"time": 1654, "pitch": 58, "duration": 8, "velocity": 89}, {"time": 1660, "pitch": 49, "duration": 8, "velocity": 34}, {"time": 1666, "pitch": 54, "duration": 3, "velocity": 97}, {"time": 1666, "pitch": 58, "duration": 3, "velocity": 111}, {"time": 1666, "pitch": 61, "duration": 5, "velocity": 94}, {"time": 1678, "pitch": 46, "duration": 15, "velocity": 100}, {"time": 1678, "pitch": 56, "duration": 8, "velocity": 84}, {"time": 1678, "pitch": 61, "duration": 8, "velocity": 97}, {"time": 1684, "pitch": 53, "duration": 8, "velocity": 31}, {"time": 1690, "pitch": 56, "duration": 6, "velocity": 94}, {"time": 1690, "pitch": 61, "duration": 6, "velocity": 100}, {"time": 1690, "pitch": 65, "duration": 7, "velocity": 93}, {"time": 1696, "pitch": 46, "duration": 4, "velocity": 97}, {"time": 1702, "pitch": 47, "duration": 15, "velocity": 105}, {"time": 1702, "pitch": 59, "duration": 8, "velocity": 76}, {"time": 1702, "pitch": 63, "duration": 8, "velocity": 80}, {"time": 1708, "pitch": 54, "duration": 12, "velocity": 44}, {"time": 1714, "pitch": 59, "duration": 5, "velocity": 92}, {"time": 1714, "pitch": 63, "duration": 5, "velocity": 97}, {"time": 1714, "pitch": 66, "duration": 11, "velocity": 94}, {"time": 1720, "pitch": 47, "duration": 3, "velocity": 82}, {"time": 1726, "pitch": 46, "duration": 15, "velocity": 97}, {"time": 1726, "pitch": 58, "duration": 8, "velocity": 78}, {"time": 1726, "pitch": 61, "duration": 8, "velocity": 84}, {"time": 1732, "pitch": 53, "duration": 10, "velocity": 41}, {"time": 1738, "pitch": 58, "duration": 6, "velocity": 97}, {"time": 1738, "pitch": 65, "duration": 6, "velocity": 90}, {"time": 1744, "pitch": 46, "duration": 3, "velocity": 94}, {"time": 1750, "pitch": 44, "duration": 6, "velocity": 97}, {"time": 1750, "pitch": 54, "duration": 6, "velocity": 94}, {"time": 1750, "pitch": 59, "duration": 6, "velocity": 97}, {"time": 1762, "pitch": 46, "duration": 7, "velocity": 97}, {"time": 1762, "pitch": 58, "duration": 9, "velocity": 97}, {"time": 1762, "pitch": 61, "duration": 10, "velocity": 100}, {"time": 1777, "pitch": 49, "duration": 3, "velocity": 102}, {"time": 1777, "pitch": 56, "duration": 3, "velocity": 105}, {"time": 1777, "pitch": 61, "duration": 2, "velocity": 100}, {"time": 1777, "pitch": 65, "duration": 2, "velocity": 102}, {"time": 1783, "pitch": 51, "duration": 14, "velocity": 108}, {"time": 1783, "pitch": 58, "duration": 8, "velocity": 94}, {"time": 1783, "pitch": 63, "duration": 10, "velocity": 94}, {"time": 1783, "pitch": 66, "duration": 13, "velocity": 105}, {"time": 1792, "pitch": 58, "duration": 4, "velocity": 94}, {"time": 1795, "pitch": 63, "duration": 2, "velocity": 100}, {"time": 1798, "pitch": 51, "duration": 14, "velocity": 105}, {"time": 1798, "pitch": 61, "duration": 8, "velocity": 84}, {"time": 1798, "pitch": 66, "duration": 9, "velocity": 94}, {"time": 1804, "pitch": 58, "duration": 8, "velocity": 69}, {"time": 1810, "pitch": 61, "duration": 7, "velocity": 100}, {"time": 1810, "pitch": 66, "duration": 8, "velocity": 105}, {"time": 1816, "pitch": 51, "duration": 22, "velocity": 69}, {"time": 1819, "pitch": 58, "duration": 5, "velocity": 78}, {"time": 1822, "pitch": 61, "duration": 7, "velocity": 100}, {"time": 1822, "pitch": 66, "duration": 8, "velocity": 105}, {"time": 1828, "pitch": 58, "duration": 7, "velocity": 71}, {"time": 1831, "pitch": 61, "duration": 1, "velocity": 60}, {"time": 1834, "pitch": 61, "duration": 4, "velocity": 97}, {"time": 1834, "pitch": 66, "duration": 4, "velocity": 111}, {"time": 1834, "pitch": 70, "duration": 4, "velocity": 100}, {"time": 1837, "pitch": 58, "duration": 1, "velocity": 89}, {"time": 1840, "pitch": 61, "duration": 2, "velocity": 108}, {"time": 1846, "pitch": 46, "duration": 22, "velocity": 102}, {"time": 1846, "pitch": 56, "duration": 8, "velocity": 100}, {"time": 1846, "pitch": 61, "duration": 8, "velocity": 89}, {"time": 1852, "pitch": 53, "duration": 8, "velocity": 29}, {"time": 1858, "pitch": 56, "duration": 6, "velocity": 108}, {"time": 1858, "pitch": 61, "duration": 6, "velocity": 111}, {"time": 1858, "pitch": 65, "duration": 9, "velocity": 109}, {"time": 1864, "pitch": 53, "duration": 6, "velocity": 30}, {"time": 1867, "pitch": 56, "duration": 2, "velocity": 71}, {"time": 1870, "pitch": 46, "duration": 17, "velocity": 87}, {"time": 1870, "pitch": 56, "duration": 7, "velocity": 82}, {"time": 1870, "pitch": 61, "duration": 8, "velocity": 89}, {"time": 1876, "pitch": 53, "duration": 7, "velocity": 23}, {"time": 1879, "pitch": 56, "duration": 1, "velocity": 37}, {"time": 1882, "pitch": 56, "duration": 3, "velocity": 105}, {"time": 1882, "pitch": 61, "duration": 5, "velocity": 105}, {"time": 1882, "pitch": 65, "duration": 9, "velocity": 99}, {"time": 1885, "pitch": 53, "duration": 3, "velocity": 70}, {"time": 1888, "pitch": 56, "duration": 3, "velocity": 80}, {"time": 1891, "pitch": 61, "duration": 2, "velocity": 78}, {"time": 1894, "pitch": 47, "duration": 16, "velocity": 100}, {"time": 1894, "pitch": 59, "duration": 8, "velocity": 82}, {"time": 1894, "pitch": 63, "duration": 8, "velocity": 97}, {"time": 1900, "pitch": 54, "duration": 7, "velocity": 40}, {"time": 1906, "pitch": 59, "duration": 4, "velocity": 100}, {"time": 1906, "pitch": 63, "duration": 5, "velocity": 105}, {"time": 1906, "pitch": 66, "duration": 6, "velocity": 102}, {"time": 1909, "pitch": 54, "duration": 2, "velocity": 55}, {"time": 1912, "pitch": 47, "duration": 3, "velocity": 94}, {"time": 1918, "pitch": 49, "duration": 14, "velocity": 105}, {"time": 1918, "pitch": 61, "duration": 6, "velocity": 97}, {"time": 1918, "pitch": 65, "duration": 7, "velocity": 90}, {"time": 1924, "pitch": 56, "duration": 9, "velocity": 57}, {"time": 1927, "pitch": 61, "duration": 1, "velocity": 69}, {"time": 1930, "pitch": 61, "duration": 6, "velocity": 102}, {"time": 1930, "pitch": 65, "duration": 6, "velocity": 109}, {"time": 1930, "pitch": 68, "duration": 6, "velocity": 102}, {"time": 1936, "pitch": 49, "duration": 1, "velocity": 94}, {"time": 1939, "pitch": 61, "duration": 2, "velocity": 94}, {"time": 1942, "pitch": 42, "duration": 16, "velocity": 105}, {"time": 1942, "pitch": 61, "duration": 6, "velocity": 84}, {"time": 1942, "pitch": 66, "duration": 8, "velocity": 97}, {"time": 1948, "pitch": 49, "duration": 7, "velocity": 51}, {"time": 1954, "pitch": 61, "duration": 3, "velocity": 102}, {"time": 1954, "pitch": 66, "duration": 4, "velocity": 114}, {"time": 1954, "pitch": 70, "duration": 7, "velocity": 105}, {"time": 1957, "pitch": 49, "duration": 3, "velocity": 69}, {"time": 1960, "pitch": 61, "duration": 3, "velocity": 117}, {"time": 1966, "pitch": 46, "duration": 3, "velocity": 102}, {"time": 1966, "pitch": 58, "duration": 4, "velocity": 100}, {"time": 1966, "pitch": 62, "duration": 4, "velocity": 102}, {"time": 1969, "pitch": 50, "duration": 6, "velocity": 99}, {"time": 1972, "pitch": 46, "duration": 3, "velocity": 8}, {"time": 1972, "pitch": 58, "duration": 1, "velocity": 94}, {"time": 1975, "pitch": 58, "duration": 3, "velocity": 111}, {"time": 1975, "pitch": 62, "duration": 3, "velocity": 116}, {"time": 1975, "pitch": 65, "duration": 4, "velocity": 105}, {"time": 1978, "pitch": 53, "duration": 3, "velocity": 96}, {"time": 1981, "pitch": 58, "duration": 3, "velocity": 111}, {"time": 1981, "pitch": 62, "duration": 4, "velocity": 105}, {"time": 1981, "pitch": 65, "duration": 7, "velocity": 85}, {"time": 1981, "pitch": 70, "duration": 8, "velocity": 100}, {"time": 1984, "pitch": 53, "duration": 3, "velocity": 82}, {"time": 1987, "pitch": 58, "duration": 3, "velocity": 92}, {"time": 1987, "pitch": 62, "duration": 2, "velocity": 11}, {"time": 1990, "pitch": 51, "duration": 14, "velocity": 105}, {"time": 1990, "pitch": 61, "duration": 8, "velocity": 84}, {"time": 1990, "pitch": 66, "duration": 9, "velocity": 94}, {"time": 1996, "pitch": 58, "duration": 8, "velocity": 69}, {"time": 2002, "pitch": 61, "duration": 7, "velocity": 100}, {"time": 2002, "pitch": 66, "duration": 8, "velocity": 105}, {"time": 2008, "pitch": 51, "duration": 22, "velocity": 69}, {"time": 2011, "pitch": 58, "duration": 5, "velocity": 78}, {"time": 2014, "pitch": 61, "duration": 7, "velocity": 100}, {"time": 2014, "pitch": 66, "duration": 8, "velocity": 105}, {"time": 2020, "pitch": 58, "duration": 7, "velocity": 71}, {"time": 2023, "pitch": 61, "duration": 1, "velocity": 60}, {"time": 2026, "pitch": 61, "duration": 4, "velocity": 97}, {"time": 2026, "pitch": 66, "duration": 4, "velocity": 111}, {"time": 2026, "pitch": 70, "duration": 4, "velocity": 100}, {"time": 2029, "pitch": 58, "duration": 1, "velocity": 89}, {"time": 2032, "pitch": 61, "duration": 2, "velocity": 108}, {"time": 2038, "pitch": 46, "duration": 22, "velocity": 102}, {"time": 2038, "pitch": 56, "duration": 8, "velocity": 100}, {"time": 2038, "pitch": 61, "duration": 8, "velocity": 89}, {"time": 2044, "pitch": 53, "duration": 8, "velocity": 29}, {"time": 2050, "pitch": 56, "duration": 6, "velocity": 108}, {"time": 2050, "pitch": 61, "duration": 6, "velocity": 111}, {"time": 2050, "pitch": 65, "duration": 9, "velocity": 109}, {"time": 2056, "pitch": 53, "duration": 6, "velocity": 30}, {"time": 2059, "pitch": 56, "duration": 2, "velocity": 71}, {"time": 2062, "pitch": 46, "duration": 17, "velocity": 87}, {"time": 2062, "pitch": 56, "duration": 7, "velocity": 82}, {"time": 2062, "pitch": 61, "duration": 8, "velocity": 89}, {"time": 2068, "pitch": 53, "duration": 7, "velocity": 23}, {"time": 2071, "pitch": 56, "duration": 1, "velocity": 37}, {"time": 2074, "pitch": 56, "duration": 3, "velocity": 105}, {"time": 2074, "pitch": 61, "duration": 5, "velocity": 105}, {"time": 2074, "pitch": 65, "duration": 9, "velocity": 99}, {"time": 2077, "pitch": 53, "duration": 3, "velocity": 70}, {"time": 2080, "pitch": 56, "duration": 3, "velocity": 80}, {"time": 2083, "pitch": 61, "duration": 2, "velocity": 78}, {"time": 2086, "pitch": 47, "duration": 16, "velocity": 100}, {"time": 2086, "pitch": 59, "duration": 8, "velocity": 82}, {"time": 2086, "pitch": 63, "duration": 8, "velocity": 97}, {"time": 2092, "pitch": 54, "duration": 7, "velocity": 40}, {"time": 2098, "pitch": 59, "duration": 4, "velocity": 100}, {"time": 2098, "pitch": 63, "duration": 5, "velocity": 105}, {"time": 2098, "pitch": 66, "duration": 6, "velocity": 102}, {"time": 2101, "pitch": 54, "duration": 2, "velocity": 55}, {"time": 2104, "pitch": 47, "duration": 3, "velocity": 94}, {"time": 2110, "pitch": 46, "duration": 15, "velocity": 105}, {"time": 2110, "pitch": 58, "duration": 8, "velocity": 92}, {"time": 2110, "pitch": 61, "duration": 9, "velocity": 89}, {"time": 2110, "pitch": 65, "duration": 9, "velocity": 82}, {"time": 2116, "pitch": 53, "duration": 7, "velocity": 65}, {"time": 2122, "pitch": 56, "duration": 4, "velocity": 100}, {"time": 2122, "pitch": 61, "duration": 5, "velocity": 97}, {"time": 2122, "pitch": 65, "duration": 6, "velocity": 93}, {"time": 2125, "pitch": 53, "duration": 2, "velocity": 82}, {"time": 2128, "pitch": 46, "duration": 4, "velocity": 102}, {"time": 2134, "pitch": 51, "duration": 14, "velocity": 114}, {"time": 2134, "pitch": 58, "duration": 3, "velocity": 92}, {"time": 2134, "pitch": 63, "duration": 8, "velocity": 87}, {"time": 2140, "pitch": 58, "duration": 4, "velocity": 69}, {"time": 2146, "pitch": 58, "duration": 3, "velocity": 111}, {"time": 2146, "pitch": 63, "duration": 4, "velocity": 117}, {"time": 2146, "pitch": 66, "duration": 3, "velocity": 111}, {"time": 2149, "pitch": 51, "duration": 30, "velocity": 87}, {"time": 2152, "pitch": 58, "duration": 2, "velocity": 94}, {"time": 2155, "pitch": 58, "duration": 3, "velocity": 82}, {"time": 2155, "pitch": 65, "duration": 4, "velocity": 85}, {"time": 2161, "pitch": 58, "duration": 5, "velocity": 92}, {"time": 2161, "pitch": 63, "duration": 19, "velocity": 92}, {"time": 2182, "pitch": 51, "duration": 14, "velocity": 105}, {"time": 2182, "pitch": 61, "duration": 8, "velocity": 84}, {"time": 2182, "pitch": 66, "duration": 9, "velocity": 94}, {"time": 2188, "pitch": 58, "duration": 8, "velocity": 69}, {"time": 2194, "pitch": 61, "duration": 7, "velocity": 100}, {"time": 2194, "pitch": 66, "duration": 8, "velocity": 105}, {"time": 2200, "pitch": 51, "duration": 22, "velocity": 69}, {"time": 2203, "pitch": 58, "duration": 5, "velocity": 78}, {"time": 2206, "pitch": 61, "duration": 7, "velocity": 100}, {"time": 2206, "pitch": 66, "duration": 8, "velocity": 105}, {"time": 2212, "pitch": 58, "duration": 7, "velocity": 71}, {"time": 2215, "pitch": 61, "duration": 1, "velocity": 60}, {"time": 2218, "pitch": 61, "duration": 4, "velocity": 97}, {"time": 2218, "pitch": 66, "duration": 4, "velocity": 111}, {"time": 2218, "pitch": 70, "duration": 4, "velocity": 100}, {"time": 2221, "pitch": 58, "duration": 1, "velocity": 89}, {"time": 2224, "pitch": 61, "duration": 2, "velocity": 108}, {"time": 2230, "pitch": 46, "duration": 22, "velocity": 102}, {"time": 2230, "pitch": 56, "duration": 8, "velocity": 100}, {"time": 2230, "pitch": 61, "duration": 8, "velocity": 89}, {"time": 2236, "pitch": 53, "duration": 8, "velocity": 29}, {"time": 2242, "pitch": 56, "duration": 6, "velocity": 108}, {"time": 2242, "pitch": 61, "duration": 6, "velocity": 111}, {"time": 2242, "pitch": 65, "duration": 9, "velocity": 109}, {"time": 2248, "pitch": 53, "duration": 6, "velocity": 30}, {"time": 2251, "pitch": 56, "duration": 2, "velocity": 71}, {"time": 2254, "pitch": 46, "duration": 17, "velocity": 87}, {"time": 2254, "pitch": 56, "duration": 7, "velocity": 82}, {"time": 2254, "pitch": 61, "duration": 8, "velocity": 89}, {"time": 2260, "pitch": 53, "duration": 7, "velocity": 23}, {"time": 2263, "pitch": 56, "duration": 1, "velocity": 37}, {"time": 2266, "pitch": 56, "duration": 3, "velocity": 105}, {"time": 2266, "pitch": 61, "duration": 5, "velocity": 105}, {"time": 2266, "pitch": 65, "duration": 9, "velocity": 99}, {"time": 2269, "pitch": 53, "duration": 3, "velocity": 70}, {"time": 2272, "pitch": 56, "duration": 3, "velocity": 80}, {"time": 2275, "pitch": 61, "duration": 2, "velocity": 78}, {"time": 2278, "pitch": 47, "duration": 16, "velocity": 100}, {"time": 2278, "pitch": 59, "duration": 8, "velocity": 82}, {"time": 2278, "pitch": 63, "duration": 8, "velocity": 97}, {"time": 2284, "pitch": 54, "duration": 7, "velocity": 40}, {"time": 2290, "pitch": 59, "duration": 4, "velocity": 100}, {"time": 2290, "pitch": 63, "duration": 5, "velocity": 105}, {"time": 2290, "pitch": 66, "duration": 6, "velocity": 102}, {"time": 2293, "pitch": 54, "duration": 2, "velocity": 55}, {"time": 2296, "pitch": 47, "duration": 3, "velocity": 94}, {"time": 2302, "pitch": 49, "duration": 14, "velocity": 105}, {"time": 2302, "pitch": 61, "duration": 6, "velocity": 97}, {"time": 2302, "pitch": 65, "duration": 7, "velocity": 90}, {"time": 2308, "pitch": 56, "duration": 9, "velocity": 57}, {"time": 2311, "pitch": 61, "duration": 1, "velocity": 69}, {"time": 2314, "pitch": 61, "duration": 6, "velocity": 102}, {"time": 2314, "pitch": 65, "duration": 6, "velocity": 109}, {"time": 2314, "pitch": 68, "duration": 6, "velocity": 102}, {"time": 2320, "pitch": 49, "duration": 1, "velocity": 94}, {"time": 2323, "pitch": 61, "duration": 2, "velocity": 94}, {"time": 2326, "pitch": 42, "duration": 16, "velocity": 105}, {"time": 2326, "pitch": 61, "duration": 6, "velocity": 84}, {"time": 2326, "pitch": 66, "duration": 8, "velocity": 97}, {"time": 2332, "pitch": 49, "duration": 7, "velocity": 51}, {"time": 2338, "pitch": 61, "duration": 3, "velocity": 102}, {"time": 2338, "pitch": 66, "duration": 4, "velocity": 114}, {"time": 2338, "pitch": 70, "duration": 7, "velocity": 105}, {"time": 2341, "pitch": 49, "duration": 3, "velocity": 69}, {"time": 2344, "pitch": 61, "duration": 3, "velocity": 117}, {"time": 2350, "pitch": 46, "duration": 3, "velocity": 102}, {"time": 2350, "pitch": 58, "duration": 4, "velocity": 100}, {"time": 2350, "pitch": 62, "duration": 4, "velocity": 102}, {"time": 2353, "pitch": 50, "duration": 6, "velocity": 99}, {"time": 2356, "pitch": 46, "duration": 3, "velocity": 8}, {"time": 2356, "pitch": 58, "duration": 1, "velocity": 94}, {"time": 2359, "pitch": 58, "duration": 3, "velocity": 111}, {"time": 2359, "pitch": 62, "duration": 3, "velocity": 116}, {"time": 2359, "pitch": 65, "duration": 4, "velocity": 105}, {"time": 2362, "pitch": 53, "duration": 3, "velocity": 96}, {"time": 2365, "pitch": 58, "duration": 3, "velocity": 111}, {"time": 2365, "pitch": 62, "duration": 4, "velocity": 105}, {"time": 2365, "pitch": 65, "duration": 7, "velocity": 85}, {"time": 2365, "pitch": 70, "duration": 8, "velocity": 100}, {"time": 2368, "pitch": 53, "duration": 3, "velocity": 82}, {"time": 2371, "pitch": 58, "duration": 3, "velocity": 92}, {"time": 2371, "pitch": 62, "duration": 2, "velocity": 11}, {"time": 2374, "pitch": 51, "duration": 14, "velocity": 105}, {"time": 2374, "pitch": 61, "duration": 8, "velocity": 84}, {"time": 2374, "pitch": 66, "duration": 9, "velocity": 94}, {"time": 2380, "pitch": 58, "duration": 8, "velocity": 69}, {"time": 2386, "pitch": 61, "duration": 7, "velocity": 100}, {"time": 2386, "pitch": 66, "duration": 8, "velocity": 105}, {"time": 2392, "pitch": 51, "duration": 22, "velocity": 69}, {"time": 2395, "pitch": 58, "duration": 5, "velocity": 78}, {"time": 2398, "pitch": 61, "duration": 7, "velocity": 100}, {"time": 2398, "pitch": 66, "duration": 8, "velocity": 105}, {"time": 2404, "pitch": 58, "duration": 7, "velocity": 71}, {"time": 2407, "pitch": 61, "duration": 1, "velocity": 60}, {"time": 2410, "pitch": 61, "duration": 4, "velocity": 97}, {"time": 2410, "pitch": 66, "duration": 4, "velocity": 111}, {"time": 2410, "pitch": 70, "duration": 4, "velocity": 100}, {"time": 2413, "pitch": 58, "duration": 1, "velocity": 89}, {"time": 2416, "pitch": 61, "duration": 2, "velocity": 108}, {"time": 2422, "pitch": 46, "duration": 22, "velocity": 102}, {"time": 2422, "pitch": 56, "duration": 8, "velocity": 100}, {"time": 2422, "pitch": 61, "duration": 8, "velocity": 89}, {"time": 2428, "pitch": 53, "duration": 8, "velocity": 29}, {"time": 2434, "pitch": 56, "duration": 6, "velocity": 108}, {"time": 2434, "pitch": 61, "duration": 6, "velocity": 111}, {"time": 2434, "pitch": 65, "duration": 9, "velocity": 109}, {"time": 2440, "pitch": 53, "duration": 6, "velocity": 30}, {"time": 2443, "pitch": 56, "duration": 2, "velocity": 71}, {"time": 2446, "pitch": 46, "duration": 17, "velocity": 87}, {"time": 2446, "pitch": 56, "duration": 7, "velocity": 82}, {"time": 2446, "pitch": 61, "duration": 8, "velocity": 89}, {"time": 2452, "pitch": 53, "duration": 7, "velocity": 23}, {"time": 2455, "pitch": 56, "duration": 1, "velocity": 37}, {"time": 2458, "pitch": 56, "duration": 3, "velocity": 105}, {"time": 2458, "pitch": 61, "duration": 5, "velocity": 105}, {"time": 2458, "pitch": 65, "duration": 9, "velocity": 99}, {"time": 2461, "pitch": 53, "duration": 3, "velocity": 70}, {"time": 2464, "pitch": 56, "duration": 3, "velocity": 80}, {"time": 2467, "pitch": 61, "duration": 2, "velocity": 78}, {"time": 2470, "pitch": 47, "duration": 16, "velocity": 100}, {"time": 2470, "pitch": 59, "duration": 8, "velocity": 82}, {"time": 2470, "pitch": 63, "duration": 8, "velocity": 97}, {"time": 2476, "pitch": 54, "duration": 7, "velocity": 40}, {"time": 2482, "pitch": 59, "duration": 4, "velocity": 100}, {"time": 2482, "pitch": 63, "duration": 5, "velocity": 105}, {"time": 2482, "pitch": 66, "duration": 6, "velocity": 102}, {"time": 2485, "pitch": 54, "duration": 2, "velocity": 55}, {"time": 2488, "pitch": 47, "duration": 3, "velocity": 94}, {"time": 2494, "pitch": 46, "duration": 15, "velocity": 105}, {"time": 2494, "pitch": 58, "duration": 8, "velocity": 92}, {"time": 2494, "pitch": 61, "duration": 9, "velocity": 89}, {"time": 2494, "pitch": 65, "duration": 9, "velocity": 82}, {"time": 2500, "pitch": 53, "duration": 7, "velocity": 65}, {"time": 2506, "pitch": 56, "duration": 4, "velocity": 100}, {"time": 2506, "pitch": 61, "duration": 5, "velocity": 97}, {"time": 2506, "pitch": 65, "duration": 6, "velocity": 93}, {"time": 2509, "pitch": 53, "duration": 2, "velocity": 82}, {"time": 2512, "pitch": 46, "duration": 4, "velocity": 102}, {"time": 2518, "pitch": 51, "duration": 14, "velocity": 114}, {"time": 2518, "pitch": 58, "duration": 3, "velocity": 92}, {"time": 2518, "pitch": 63, "duration": 8, "velocity": 87}, {"time": 2524, "pitch": 58, "duration": 4, "velocity": 69}, {"time": 2530, "pitch": 58, "duration": 3, "velocity": 111}, {"time": 2530, "pitch": 63, "duration": 4, "velocity": 117}, {"time": 2530, "pitch": 66, "duration": 3, "velocity": 111}, {"time": 2533, "pitch": 51, "duration": 30, "velocity": 87}, {"time": 2536, "pitch": 58, "duration": 2, "velocity": 94}, {"time": 2539, "pitch": 58, "duration": 3, "velocity": 82}, {"time": 2539, "pitch": 65, "duration": 4, "velocity": 85}, {"time": 2545, "pitch": 58, "duration": 5, "velocity": 92}, {"time": 2545, "pitch": 63, "duration": 19, "velocity": 92}, {"time": 2566, "pitch": 47, "duration": 14, "velocity": 60}, {"time": 2566, "pitch": 59, "duration": 8, "velocity": 71}, {"time": 2566, "pitch": 62, "duration": 8, "velocity": 59}, {"time": 2566, "pitch": 69, "duration": 8, "velocity": 55}, {"time": 2572, "pitch": 54, "duration": 8, "velocity": 29}, {"time": 2578, "pitch": 59, "duration": 4, "velocity": 87}, {"time": 2578, "pitch": 62, "duration": 4, "velocity": 109}, {"time": 2578, "pitch": 69, "duration": 4, "velocity": 85}, {"time": 2584, "pitch": 47, "duration": 5, "velocity": 71}, {"time": 2590, "pitch": 52, "duration": 17, "velocity": 67}, {"time": 2590, "pitch": 59, "duration": 8, "velocity": 71}, {"time": 2590, "pitch": 64, "duration": 8, "velocity": 82}, {"time": 2590, "pitch": 68, "duration": 8, "velocity": 84}, {"time": 2596, "pitch": 56, "duration": 11, "velocity": 23}, {"time": 2602, "pitch": 59, "duration": 5, "velocity": 84}, {"time": 2602, "pitch": 64, "duration": 6, "velocity": 89}, {"time": 2602, "pitch": 68, "duration": 6, "velocity": 89}, {"time": 2614, "pitch": 49, "duration": 15, "velocity": 89}, {"time": 2614, "pitch": 59, "duration": 8, "velocity": 69}, {"time": 2614, "pitch": 64, "duration": 8, "velocity": 80}, {"time": 2620, "pitch": 56, "duration": 9, "velocity": 41}, {"time": 2626, "pitch": 59, "duration": 5, "velocity": 97}, {"time": 2626, "pitch": 64, "duration": 5, "velocity": 102}, {"time": 2626, "pitch": 68, "duration": 6, "velocity": 97}, {"time": 2632, "pitch": 49, "duration": 5, "velocity": 89}, {"time": 2638, "pitch": 54, "duration": 19, "velocity": 67}, {"time": 2638, "pitch": 61, "duration": 4, "velocity": 76}, {"time": 2638, "pitch": 66, "duration": 7, "velocity": 89}, {"time": 2644, "pitch": 61, "duration": 3, "velocity": 89}, {"time": 2650, "pitch": 61, "duration": 4, "velocity": 94}, {"time": 2650, "pitch": 66, "duration": 3, "velocity": 100}, {"time": 2656, "pitch": 64, "duration": 1, "velocity": 84}, {"time": 2662, "pitch": 47, "duration": 16, "velocity": 100}, {"time": 2662, "pitch": 59, "duration": 9, "velocity": 73}, {"time": 2662, "pitch": 62, "duration": 9, "velocity": 70}, {"time": 2668, "pitch": 54, "duration": 8, "velocity": 27}, {"time": 2674, "pitch": 59, "duration": 6, "velocity": 92}, {"time": 2674, "pitch": 62, "duration": 7, "velocity": 93}, {"time": 2674, "pitch": 66, "duration": 8, "velocity": 94}, {"time": 2680, "pitch": 47, "duration": 4, "velocity": 1}, {"time": 2680, "pitch": 54, "duration": 4, "velocity": 55}, {"time": 2683, "pitch": 59, "duration": 2, "velocity": 78}, {"time": 2686, "pitch": 52, "duration": 20, "velocity": 84}, {"time": 2686, "pitch": 59, "duration": 8, "velocity": 84}, {"time": 2686, "pitch": 64, "duration": 8, "velocity": 97}, {"time": 2692, "pitch": 56, "duration": 14, "velocity": 46}, {"time": 2698, "pitch": 59, "duration": 9, "velocity": 92}, {"time": 2698, "pitch": 64, "duration": 9, "velocity": 102}, {"time": 2698, "pitch": 68, "duration": 9, "velocity": 94}, {"time": 2710, "pitch": 49, "duration": 22, "velocity": 92}, {"time": 2710, "pitch": 61, "duration": 8, "velocity": 78}, {"time": 2710, "pitch": 66, "duration": 8, "velocity": 94}, {"time": 2716, "pitch": 56, "duration": 7, "velocity": 67}, {"time": 2722, "pitch": 61, "duration": 4, "velocity": 100}, {"time": 2722, "pitch": 66, "duration": 6, "velocity": 105}, {"time": 2725, "pitch": 56, "duration": 7, "velocity": 78}, {"time": 2728, "pitch": 61, "duration": 3, "velocity": 82}, {"time": 2734, "pitch": 49, "duration": 17, "velocity": 92}, {"time": 2734, "pitch": 56, "duration": 17, "velocity": 87}, {"time": 2734, "pitch": 59, "duration": 20, "velocity": 94}, {"time": 2734, "pitch": 65, "duration": 20, "velocity": 65}, {"time": 2760, "pitch": 42, "duration": 53, "velocity": 94}, {"time": 2763, "pitch": 49, "duration": 50, "velocity": 62}, {"time": 2765, "pitch": 54, "duration": 52, "velocity": 48}, {"time": 2767, "pitch": 58, "duration": 49, "velocity": 78}, {"time": 2768, "pitch": 61, "duration": 48, "velocity": 44}, {"time": 2769, "pitch": 66, "duration": 48, "velocity": 62}], "annotations": [{"time": 25, "annotation": {"number": 64, "value": 127}, "group": "control_change"}, {"time": 44, "annotation": {"number": 64, "value": 0}, "group": "control_change"}, {"time": 51, "annotation": {"number": 64, "value": 127}, "group": "control_change"}, {"time": 68, "annotation": {"number": 64, "value": 0}, "group": "control_change"}, {"time": 75, "annotation": {"number": 64, "value": 127}, "group": "control_change"}, {"time": 93, "annotation": {"number": 64, "value": 0}, "group": "control_change"}, {"time": 98, "annotation": {"number": 64, "value": 127}, "group": "control_change"}, {"time": 117, "annotation": {"number": 64, "value": 0}, "group": "control_change"}, {"time": 123, "annotation": {"number": 64, "value": 127}, "group": "control_change"}, {"time": 141, "annotation": {"number": 64, "value": 0}, "group": "control_change"}, {"time": 147, "annotation": {"number": 64, "value": 127}, "group": "control_change"}, {"time": 165, "annotation": {"number": 64, "value": 0}, "group": "control_change"}, {"time": 167, "annotation": {"number": 64, "value": 127}, "group": "control_change"}, {"time": 190, "annotation": {"number": 64, "value": 0}, "group": "control_change"}, {"time": 195, "annotation": {"number": 64, "value": 127}, "group": "control_change"}, {"time": 211, "annotation": {"number": 64, "value": 0}, "group": "control_change"}, {"time": 215, "annotation": {"number": 64, "value": 127}, "group": "control_change"}, {"time": 238, "annotation": {"number": 64, "value": 0}, "group": "control_change"}, {"time": 242, "annotation": {"number": 64, "value": 127}, "group": "control_change"}, {"time": 259, "annotation": {"number": 64, "value": 0}, "group": "control_change"}, {"time": 263, "annotation": {"number": 64, "value": 127}, "group": "control_change"}, {"time": 284, "annotation": {"number": 64, "value": 0}, "group": "control_change"}, {"time": 288, "annotation": {"number": 64, "value": 127}, "group": "control_change"}, {"time": 310, "annotation": {"number": 64, "value": 0}, "group": "control_change"}, {"time": 316, "annotation": {"number": 64, "value": 127}, "group": "control_change"}, {"time": 332, "annotation": {"number": 64, "value": 0}, "group": "control_change"}, {"time": 338, "annotation": {"number": 64, "value": 127}, "group": "control_change"}, {"time": 357, "annotation": {"number": 64, "value": 0}, "group": "control_change"}, {"time": 363, "annotation": {"number": 64, "value": 127}, "group": "control_change"}, {"time": 381, "annotation": {"number": 64, "value": 0}, "group": "control_change"}, {"time": 382, "annotation": {"number": 64, "value": 127}, "group": "control_change"}, {"time": 392, "annotation": {"number": 64, "value": 0}, "group": "control_change"}, {"time": 407, "annotation": {"number": 64, "value": 127}, "group": "control_change"}, {"time": 430, "annotation": {"number": 64, "value": 0}, "group": "control_change"}, {"time": 434, "annotation": {"number": 64, "value": 127}, "group": "control_change"}, {"time": 451, "annotation": {"number": 64, "value": 0}, "group": "control_change"}, {"time": 455, "annotation": {"number": 64, "value": 127}, "group": "control_change"}, {"time": 476, "annotation": {"number": 64, "value": 0}, "group": "control_change"}, {"time": 480, "annotation": {"number": 64, "value": 127}, "group": "control_change"}, {"time": 502, "annotation": {"number": 64, "value": 0}, "group": "control_change"}, {"time": 508, "annotation": {"number": 64, "value": 127}, "group": "control_change"}, {"time": 524, "annotation": {"number": 64, "value": 0}, "group": "control_change"}, {"time": 530, "annotation": {"number": 64, "value": 127}, "group": "control_change"}, {"time": 549, "annotation": {"number": 64, "value": 0}, "group": "control_change"}, {"time": 550, "annotation": {"number": 64, "value": 127}, "group": "control_change"}, {"time": 560, "annotation": {"number": 64, "value": 0}, "group": "control_change"}, {"time": 562, "annotation": {"number": 64, "value": 127}, "group": "control_change"}, {"time": 574, "annotation": {"number": 64, "value": 0}, "group": "control_change"}, {"time": 589, "annotation": {"number": 64, "value": 127}, "group": "control_change"}, {"time": 596, "annotation": {"number": 64, "value": 0}, "group": "control_change"}, {"time": 621, "annotation": {"number": 64, "value": 0}, "group": "control_change"}, {"time": 623, "annotation": {"number": 64, "value": 127}, "group": "control_change"}, {"time": 645, "annotation": {"number": 64, "value": 0}, "group": "control_change"}, {"time": 649, "annotation": {"number": 64, "value": 127}, "group": "control_change"}, {"time": 669, "annotation": {"number": 64, "value": 0}, "group": "control_change"}, {"time": 671, "annotation": {"number": 64, "value": 127}, "group": "control_change"}, {"time": 693, "annotation": {"number": 64, "value": 0}, "group": "control_change"}, {"time": 697, "annotation": {"number": 64, "value": 127}, "group": "control_change"}, {"time": 717, "annotation": {"number": 64, "value": 0}, "group": "control_change"}, {"time": 719, "annotation": {"number": 64, "value": 127}, "group": "control_change"}, {"time": 740, "annotation": {"number": 64, "value": 0}, "group": "control_change"}, {"time": 743, "annotation": {"number": 64, "value": 127}, "group": "control_change"}, {"time": 765, "annotation": {"number": 64, "value": 0}, "group": "control_change"}, {"time": 768, "annotation": {"number": 64, "value": 127}, "group": "control_change"}, {"time": 787, "annotation": {"number": 64, "value": 0}, "group": "control_change"}, {"time": 813, "annotation": {"number": 64, "value": 0}, "group": "control_change"}, {"time": 815, "annotation": {"number": 64, "value": 127}, "group": "control_change"}, {"time": 837, "annotation": {"number": 64, "value": 0}, "group": "control_change"}, {"time": 841, "annotation": {"number": 64, "value": 127}, "group": "control_change"}, {"time": 861, "annotation": {"number": 64, "value": 0}, "group": "control_change"}, {"time": 863, "annotation": {"number": 64, "value": 127}, "group": "control_change"}, {"time": 885, "annotation": {"number": 64, "value": 0}, "group": "control_change"}, {"time": 889, "annotation": {"number": 64, "value": 127}, "group": "control_change"}, {"time": 909, "annotation": {"number": 64, "value": 0}, "group": "control_change"}, {"time": 911, "annotation": {"number": 64, "value": 127}, "group": "control_change"}, {"time": 933, "annotation": {"number": 64, "value": 0}, "group": "control_change"}, {"time": 939, "annotation": {"number": 64, "value": 127}, "group": "control_change"}, {"time": 962, "annotation": {"number": 64, "value": 0}, "group": "control_change"}, {"time": 963, "annotation": {"number": 64, "value": 127}, "group": "control_change"}, {"time": 982, "annotation": {"number": 64, "value": 127}, "group": "control_change"}, {"time": 1005, "annotation": {"number": 64, "value": 0}, "group": "control_change"}, {"time": 1007, "annotation": {"number": 64, "value": 127}, "group": "control_change"}, {"time": 1029, "annotation": {"number": 64, "value": 0}, "group": "control_change"}, {"time": 1033, "annotation": {"number": 64, "value": 127}, "group": "control_change"}, {"time": 1053, "annotation": {"number": 64, "value": 0}, "group": "control_change"}, {"time": 1057, "annotation": {"number": 64, "value": 127}, "group": "control_change"}, {"time": 1078, "annotation": {"number": 64, "value": 0}, "group": "control_change"}, {"time": 1080, "annotation": {"number": 64, "value": 127}, "group": "control_change"}, {"time": 1101, "annotation": {"number": 64, "value": 0}, "group": "control_change"}, {"time": 1103, "annotation": {"number": 64, "value": 127}, "group": "control_change"}, {"time": 1124, "annotation": {"number": 64, "value": 0}, "group": "control_change"}, {"time": 1127, "annotation": {"number": 64, "value": 127}, "group": "control_change"}, {"time": 1147, "annotation": {"number": 64, "value": 0}, "group": "control_change"}, {"time": 1150, "annotation": {"number": 64, "value": 127}, "group": "control_change"}, {"time": 1173, "annotation": {"number": 64, "value": 0}, "group": "control_change"}, {"time": 1176, "annotation": {"number": 64, "value": 127}, "group": "control_change"}, {"time": 1197, "annotation": {"number": 64, "value": 0}, "group": "control_change"}, {"time": 1200, "annotation": {"number": 64, "value": 127}, "group": "control_change"}, {"time": 1221, "annotation": {"number": 64, "value": 0}, "group": "control_change"}, {"time": 1224, "annotation": {"number": 64, "value": 127}, "group": "control_change"}, {"time": 1246, "annotation": {"number": 64, "value": 0}, "group": "control_change"}, {"time": 1249, "annotation": {"number": 64, "value": 127}, "group": "control_change"}, {"time": 1269, "annotation": {"number": 64, "value": 0}, "group": "control_change"}, {"time": 1271, "annotation": {"number": 64, "value": 127}, "group": "control_change"}, {"time": 1294, "annotation": {"number": 64, "value": 0}, "group": "control_change"}, {"time": 1297, "annotation": {"number": 64, "value": 127}, "group": "control_change"}, {"time": 1318, "annotation": {"number": 64, "value": 0}, "group": "control_change"}, {"time": 1321, "annotation": {"number": 64, "value": 127}, "group": "control_change"}, {"time": 1340, "annotation": {"number": 64, "value": 0}, "group": "control_change"}, {"time": 1344, "annotation": {"number": 64, "value": 127}, "group": "control_change"}, {"time": 1366, "annotation": {"number": 64, "value": 0}, "group": "control_change"}, {"time": 1369, "annotation": {"number": 64, "value": 127}, "group": "control_change"}, {"time": 1391, "annotation": {"number": 64, "value": 0}, "group": "control_change"}, {"time": 1415, "annotation": {"number": 64, "value": 127}, "group": "control_change"}, {"time": 1438, "annotation": {"number": 64, "value": 0}, "group": "control_change"}, {"time": 1442, "annotation": {"number": 64, "value": 127}, "group": "control_change"}, {"time": 1459, "annotation": {"number": 64, "value": 0}, "group": "control_change"}, {"time": 1463, "annotation": {"number": 64, "value": 127}, "group": "control_change"}, {"time": 1484, "annotation": {"number": 64, "value": 0}, "group": "control_change"}, {"time": 1488, "annotation": {"number": 64, "value": 127}, "group": "control_change"}, {"time": 1510, "annotation": {"number": 64, "value": 0}, "group": "control_change"}, {"time": 1516, "annotation": {"number": 64, "value": 127}, "group": "control_change"}, {"time": 1532, "annotation": {"number": 64, "value": 0}, "group": "control_change"}, {"time": 1538, "annotation": {"number": 64, "value": 127}, "group": "control_change"}, {"time": 1557, "annotation": {"number": 64, "value": 0}, "group": "control_change"}, {"time": 1563, "annotation": {"number": 64, "value": 127}, "group": "control_change"}, {"time": 1581, "annotation": {"number": 64, "value": 0}, "group": "control_change"}, {"time": 1582, "annotation": {"number": 64, "value": 127}, "group": "control_change"}, {"time": 1592, "annotation": {"number": 64, "value": 0}, "group": "control_change"}, {"time": 1607, "annotation": {"number": 64, "value": 127}, "group": "control_change"}, {"time": 1630, "annotation": {"number": 64, "value": 0}, "group": "control_change"}, {"time": 1634, "annotation": {"number": 64, "value": 127}, "group": "control_change"}, {"time": 1651, "annotation": {"number": 64, "value": 0}, "group": "control_change"}, {"time": 1655, "annotation": {"number": 64, "value": 127}, "group": "control_change"}, {"time": 1676, "annotation": {"number": 64, "value": 0}, "group": "control_change"}, {"time": 1680, "annotation": {"number": 64, "value": 127}, "group": "control_change"}, {"time": 1702, "annotation": {"number": 64, "value": 0}, "group": "control_change"}, {"time": 1708, "annotation": {"number": 64, "value": 127}, "group": "control_change"}, {"time": 1724, "annotation": {"number": 64, "value": 0}, "group": "control_change"}, {"time": 1730, "annotation": {"number": 64, "value": 127}, "group": "control_change"}, {"time": 1749, "annotation": {"number": 64, "value": 0}, "group": "control_change"}, {"time": 1750, "annotation": {"number": 64, "value": 127}, "group": "control_change"}, {"time": 1760, "annotation": {"number": 64, "value": 0}, "group": "control_change"}, {"time": 1762, "annotation": {"number": 64, "value": 127}, "group": "control_change"}, {"time": 1774, "annotation": {"number": 64, "value": 0}, "group": "control_change"}, {"time": 1789, "annotation": {"number": 64, "value": 127}, "group": "control_change"}, {"time": 1796, "annotation": {"number": 64, "value": 0}, "group": "control_change"}, {"time": 1821, "annotation": {"number": 64, "value": 0}, "group": "control_change"}, {"time": 1823, "annotation": {"number": 64, "value": 127}, "group": "control_change"}, {"time": 1845, "annotation": {"number": 64, "value": 0}, "group": "control_change"}, {"time": 1849, "annotation": {"number": 64, "value": 127}, "group": "control_change"}, {"time": 1869, "annotation": {"number": 64, "value": 0}, "group": "control_change"}, {"time": 1871, "annotation": {"number": 64, "value": 127}, "group": "control_change"}, {"time": 1893, "annotation": {"number": 64, "value": 0}, "group": "control_change"}, {"time": 1897, "annotation": {"number": 64, "value": 127}, "group": "control_change"}, {"time": 1917, "annotation": {"number": 64, "value": 0}, "group": "control_change"}, {"time": 1919, "annotation": {"number": 64, "value": 127}, "group": "control_change"}, {"time": 1940, "annotation": {"number": 64, "value": 0}, "group": "control_change"}, {"time": 1943, "annotation": {"number": 64, "value": 127}, "group": "control_change"}, {"time": 1965, "annotation": {"number": 64, "value": 0}, "group": "control_change"}, {"time": 1968, "annotation": {"number": 64, "value": 127}, "group": "control_change"}, {"time": 1987, "annotation": {"number": 64, "value": 0}, "group": "control_change"}, {"time": 2013, "annotation": {"number": 64, "value": 0}, "group": "control_change"}, {"time": 2015, "annotation": {"number": 64, "value": 127}, "group": "control_change"}, {"time": 2037, "annotation": {"number": 64, "value": 0}, "group": "control_change"}, {"time": 2041, "annotation": {"number": 64, "value": 127}, "group": "control_change"}, {"time": 2061, "annotation": {"number": 64, "value": 0}, "group": "control_change"}, {"time": 2063, "annotation": {"number": 64, "value": 127}, "group": "control_change"}, {"time": 2085, "annotation": {"number": 64, "value": 0}, "group": "control_change"}, {"time": 2089, "annotation": {"number": 64, "value": 127}, "group": "control_change"}, {"time": 2109, "annotation": {"number": 64, "value": 0}, "group": "control_change"}, {"time": 2111, "annotation": {"number": 64, "value": 127}, "group": "control_change"}, {"time": 2133, "annotation": {"number": 64, "value": 0}, "group": "control_change"}, {"time": 2139, "annotation": {"number": 64, "value": 127}, "group": "control_change"}, {"time": 2162, "annotation": {"number": 64, "value": 0}, "group": "control_change"}, {"time": 2163, "annotation": {"number": 64, "value": 127}, "group": "control_change"}, {"time": 2205, "annotation": {"number": 64, "value": 0}, "group": "control_change"}, {"time": 2207, "annotation": {"number": 64, "value": 127}, "group": "control_change"}, {"time": 2229, "annotation": {"number": 64, "value": 0}, "group": "control_change"}, {"time": 2233, "annotation": {"number": 64, "value": 127}, "group": "control_change"}, {"time": 2253, "annotation": {"number": 64, "value": 0}, "group": "control_change"}, {"time": 2255, "annotation": {"number": 64, "value": 127}, "group": "control_change"}, {"time": 2277, "annotation": {"number": 64, "value": 0}, "group": "control_change"}, {"time": 2281, "annotation": {"number": 64, "value": 127}, "group": "control_change"}, {"time": 2301, "annotation": {"number": 64, "value": 0}, "group": "control_change"}, {"time": 2303, "annotation": {"number": 64, "value": 127}, "group": "control_change"}, {"time": 2324, "annotation": {"number": 64, "value": 0}, "group": "control_change"}, {"time": 2327, "annotation": {"number": 64, "value": 127}, "group": "control_change"}, {"time": 2349, "annotation": {"number": 64, "value": 0}, "group": "control_change"}, {"time": 2352, "annotation": {"number": 64, "value": 127}, "group": "control_change"}, {"time": 2371, "annotation": {"number": 64, "value": 0}, "group": "control_change"}, {"time": 2397, "annotation": {"number": 64, "value": 0}, "group": "control_change"}, {"time": 2399, "annotation": {"number": 64, "value": 127}, "group": "control_change"}, {"time": 2421, "annotation": {"number": 64, "value": 0}, "group": "control_change"}, {"time": 2425, "annotation": {"number": 64, "value": 127}, "group": "control_change"}, {"time": 2445, "annotation": {"number": 64, "value": 0}, "group": "control_change"}, {"time": 2447, "annotation": {"number": 64, "value": 127}, "group": "control_change"}, {"time": 2469, "annotation": {"number": 64, "value": 0}, "group": "control_change"}, {"time": 2473, "annotation": {"number": 64, "value": 127}, "group": "control_change"}, {"time": 2493, "annotation": {"number": 64, "value": 0}, "group": "control_change"}, {"time": 2495, "annotation": {"number": 64, "value": 127}, "group": "control_change"}, {"time": 2517, "annotation": {"number": 64, "value": 0}, "group": "control_change"}, {"time": 2523, "annotation": {"number": 64, "value": 127}, "group": "control_change"}, {"time": 2546, "annotation": {"number": 64, "value": 0}, "group": "control_change"}, {"time": 2547, "annotation": {"number": 64, "value": 127}, "group": "control_change"}, {"time": 2569, "annotation": {"number": 64, "value": 127}, "group": "control_change"}, {"time": 2588, "annotation": {"number": 64, "value": 0}, "group": "control_change"}, {"time": 2595, "annotation": {"number": 64, "value": 127}, "group": "control_change"}, {"time": 2612, "annotation": {"number": 64, "value": 0}, "group": "control_change"}, {"time": 2619, "annotation": {"number": 64, "value": 127}, "group": "control_change"}, {"time": 2637, "annotation": {"number": 64, "value": 0}, "group": "control_change"}, {"time": 2642, "annotation": {"number": 64, "value": 127}, "group": "control_change"}, {"time": 2661, "annotation": {"number": 64, "value": 0}, "group": "control_change"}, {"time": 2667, "annotation": {"number": 64, "value": 127}, "group": "control_change"}, {"time": 2685, "annotation": {"number": 64, "value": 0}, "group": "control_change"}, {"time": 2691, "annotation": {"number": 64, "value": 127}, "group": "control_change"}, {"time": 2709, "annotation": {"number": 64, "value": 0}, "group": "control_change"}, {"time": 2711, "annotation": {"number": 64, "value": 127}, "group": "control_change"}, {"time": 2734, "annotation": {"number": 64, "value": 0}, "group": "control_change"}, {"time": 2739, "annotation": {"number": 64, "value": 127}, "group": "control_change"}, {"time": 2748, "annotation": {"number": 64, "value": 127}, "group": "control_change"}, {"time": 2755, "annotation": {"number": 64, "value": 0}, "group": "control_change"}, {"time": 2759, "annotation": {"number": 64, "value": 0}, "group": "control_change"}, {"time": 2765, "annotation": {"number": 64, "value": 127}, "group": "control_change"}, {"time": 2828, "annotation": {"number": 64, "value": 0}, "group": "control_change"}]}]}