{"metadata": {"schema_version": "0.2", "title": "None", "source_filename": "025.mid", "source_format": "midi"}, "resolution": 12, "tempos": [{"time": 0, "qpm": 62.00005993339127}, {"time": 3726, "qpm": 61.75005840526357}, {"time": 3726, "qpm": 62.5}, {"time": 3896, "qpm": 62.25002723438691}, {"time": 3906, "qpm": 62.00005993339127}], "time_signatures": [{"time": 0, "numerator": 1, "denominator": 4}], "tracks": [{"program": 0, "is_drum": false, "name": "MELODY", "notes": [{"time": 655, "pitch": 73, "duration": 5, "velocity": 106}, {"time": 661, "pitch": 71, "duration": 4, "velocity": 109}, {"time": 667, "pitch": 69, "duration": 5, "velocity": 117}, {"time": 673, "pitch": 66, "duration": 4, "velocity": 115}, {"time": 679, "pitch": 69, "duration": 5, "velocity": 117}, {"time": 685, "pitch": 71, "duration": 2, "velocity": 109}, {"time": 688, "pitch": 73, "duration": 13, "velocity": 109}, {"time": 703, "pitch": 71, "duration": 8, "velocity": 109}, {"time": 712, "pitch": 73, "duration": 2, "velocity": 106}, {"time": 715, "pitch": 71, "duration": 4, "velocity": 109}, {"time": 721, "pitch": 69, "duration": 4, "velocity": 120}, {"time": 727, "pitch": 68, "duration": 19, "velocity": 109}, {"time": 751, "pitch": 73, "duration": 4, "velocity": 115}, {"time": 757, "pitch": 66, "duration": 4, "velocity": 115}, {"time": 763, "pitch": 69, "duration": 4, "velocity": 117}, {"time": 769, "pitch": 71, "duration": 4, "velocity": 109}, {"time": 775, "pitch": 73, "duration": 4, "velocity": 112}, {"time": 781, "pitch": 71, "duration": 2, "velocity": 101}, {"time": 784, "pitch": 73, "duration": 7, "velocity": 109}, {"time": 793, "pitch": 78, "duration": 5, "velocity": 99}, {"time": 799, "pitch": 76, "duration": 15, "velocity": 114}, {"time": 814, "pitch": 73, "duration": 8, "velocity": 115}, {"time": 823, "pitch": 71, "duration": 13, "velocity": 109}, {"time": 841, "pitch": 69, "duration": 2, "velocity": 120}, {"time": 844, "pitch": 71, "duration": 1, "velocity": 104}, {"time": 847, "pitch": 73, "duration": 4, "velocity": 115}, {"time": 853, "pitch": 78, "duration": 4, "velocity": 106}, {"time": 859, "pitch": 73, "duration": 5, "velocity": 115}, {"time": 865, "pitch": 71, "duration": 4, "velocity": 112}, {"time": 871, "pitch": 73, "duration": 14, "velocity": 112}, {"time": 889, "pitch": 69, "duration": 2, "velocity": 113}, {"time": 892, "pitch": 71, "duration": 2, "velocity": 106}, {"time": 895, "pitch": 73, "duration": 5, "velocity": 112}, {"time": 901, "pitch": 76, "duration": 4, "velocity": 118}, {"time": 907, "pitch": 80, "duration": 5, "velocity": 118}, {"time": 913, "pitch": 78, "duration": 4, "velocity": 112}, {"time": 919, "pitch": 76, "duration": 17, "velocity": 115}, {"time": 943, "pitch": 74, "duration": 10, "velocity": 123}, {"time": 955, "pitch": 71, "duration": 4, "velocity": 109}, {"time": 961, "pitch": 69, "duration": 4, "velocity": 120}, {"time": 967, "pitch": 68, "duration": 7, "velocity": 115}, {"time": 976, "pitch": 68, "duration": 2, "velocity": 104}, {"time": 979, "pitch": 69, "duration": 4, "velocity": 117}, {"time": 985, "pitch": 71, "duration": 5, "velocity": 112}, {"time": 991, "pitch": 69, "duration": 43, "velocity": 120}, {"time": 1039, "pitch": 78, "duration": 4, "velocity": 115}, {"time": 1045, "pitch": 78, "duration": 4, "velocity": 106}, {"time": 1051, "pitch": 78, "duration": 4, "velocity": 118}, {"time": 1057, "pitch": 74, "duration": 4, "velocity": 120}, {"time": 1063, "pitch": 76, "duration": 2, "velocity": 115}, {"time": 1066, "pitch": 76, "duration": 4, "velocity": 115}, {"time": 1072, "pitch": 78, "duration": 2, "velocity": 112}, {"time": 1075, "pitch": 80, "duration": 4, "velocity": 115}, {"time": 1081, "pitch": 78, "duration": 4, "velocity": 115}, {"time": 1087, "pitch": 76, "duration": 9, "velocity": 121}, {"time": 1099, "pitch": 76, "duration": 5, "velocity": 115}, {"time": 1105, "pitch": 73, "duration": 6, "velocity": 115}, {"time": 1111, "pitch": 71, "duration": 3, "velocity": 112}, {"time": 1114, "pitch": 73, "duration": 19, "velocity": 104}, {"time": 1135, "pitch": 74, "duration": 4, "velocity": 120}, {"time": 1141, "pitch": 74, "duration": 4, "velocity": 123}, {"time": 1147, "pitch": 74, "duration": 4, "velocity": 120}, {"time": 1153, "pitch": 66, "duration": 5, "velocity": 115}, {"time": 1159, "pitch": 68, "duration": 2, "velocity": 115}, {"time": 1162, "pitch": 68, "duration": 4, "velocity": 112}, {"time": 1168, "pitch": 69, "duration": 2, "velocity": 120}, {"time": 1171, "pitch": 78, "duration": 4, "velocity": 118}, {"time": 1177, "pitch": 76, "duration": 4, "velocity": 112}, {"time": 1183, "pitch": 73, "duration": 9, "velocity": 112}, {"time": 1195, "pitch": 71, "duration": 5, "velocity": 112}, {"time": 1201, "pitch": 69, "duration": 4, "velocity": 120}, {"time": 1207, "pitch": 71, "duration": 21, "velocity": 109}, {"time": 1231, "pitch": 78, "duration": 7, "velocity": 115}, {"time": 1240, "pitch": 78, "duration": 2, "velocity": 112}, {"time": 1243, "pitch": 78, "duration": 2, "velocity": 112}, {"time": 1246, "pitch": 80, "duration": 2, "velocity": 109}, {"time": 1249, "pitch": 81, "duration": 5, "velocity": 117}, {"time": 1255, "pitch": 80, "duration": 20, "velocity": 118}, {"time": 1279, "pitch": 80, "duration": 6, "velocity": 115}, {"time": 1288, "pitch": 81, "duration": 2, "velocity": 117}, {"time": 1291, "pitch": 83, "duration": 5, "velocity": 115}, {"time": 1297, "pitch": 80, "duration": 4, "velocity": 112}, {"time": 1303, "pitch": 78, "duration": 5, "velocity": 106}, {"time": 1309, "pitch": 76, "duration": 15, "velocity": 118}, {"time": 1327, "pitch": 71, "duration": 6, "velocity": 115}, {"time": 1336, "pitch": 71, "duration": 2, "velocity": 112}, {"time": 1339, "pitch": 71, "duration": 2, "velocity": 112}, {"time": 1342, "pitch": 78, "duration": 7, "velocity": 115}, {"time": 1351, "pitch": 76, "duration": 7, "velocity": 115}, {"time": 1360, "pitch": 76, "duration": 2, "velocity": 112}, {"time": 1363, "pitch": 68, "duration": 4, "velocity": 115}, {"time": 1369, "pitch": 71, "duration": 4, "velocity": 112}, {"time": 1375, "pitch": 69, "duration": 43, "velocity": 117}, {"time": 1423, "pitch": 73, "duration": 5, "velocity": 106}, {"time": 1429, "pitch": 71, "duration": 4, "velocity": 109}, {"time": 1435, "pitch": 69, "duration": 5, "velocity": 117}, {"time": 1441, "pitch": 66, "duration": 4, "velocity": 115}, {"time": 1447, "pitch": 69, "duration": 5, "velocity": 117}, {"time": 1453, "pitch": 71, "duration": 2, "velocity": 109}, {"time": 1456, "pitch": 73, "duration": 13, "velocity": 109}, {"time": 1471, "pitch": 71, "duration": 15, "velocity": 109}, {"time": 1489, "pitch": 69, "duration": 4, "velocity": 120}, {"time": 1495, "pitch": 68, "duration": 19, "velocity": 109}, {"time": 1519, "pitch": 73, "duration": 4, "velocity": 115}, {"time": 1525, "pitch": 66, "duration": 4, "velocity": 115}, {"time": 1531, "pitch": 69, "duration": 4, "velocity": 117}, {"time": 1537, "pitch": 71, "duration": 4, "velocity": 109}, {"time": 1543, "pitch": 73, "duration": 4, "velocity": 112}, {"time": 1549, "pitch": 71, "duration": 2, "velocity": 101}, {"time": 1552, "pitch": 73, "duration": 7, "velocity": 109}, {"time": 1561, "pitch": 78, "duration": 5, "velocity": 99}, {"time": 1567, "pitch": 76, "duration": 15, "velocity": 114}, {"time": 1582, "pitch": 73, "duration": 8, "velocity": 115}, {"time": 1591, "pitch": 71, "duration": 13, "velocity": 109}, {"time": 1609, "pitch": 69, "duration": 2, "velocity": 120}, {"time": 1612, "pitch": 71, "duration": 1, "velocity": 104}, {"time": 1615, "pitch": 73, "duration": 4, "velocity": 115}, {"time": 1621, "pitch": 78, "duration": 4, "velocity": 106}, {"time": 1627, "pitch": 73, "duration": 5, "velocity": 115}, {"time": 1633, "pitch": 71, "duration": 4, "velocity": 112}, {"time": 1639, "pitch": 73, "duration": 14, "velocity": 112}, {"time": 1657, "pitch": 69, "duration": 2, "velocity": 113}, {"time": 1660, "pitch": 71, "duration": 2, "velocity": 106}, {"time": 1663, "pitch": 73, "duration": 5, "velocity": 112}, {"time": 1669, "pitch": 76, "duration": 4, "velocity": 118}, {"time": 1675, "pitch": 80, "duration": 5, "velocity": 118}, {"time": 1681, "pitch": 78, "duration": 4, "velocity": 112}, {"time": 1687, "pitch": 76, "duration": 17, "velocity": 115}, {"time": 1711, "pitch": 74, "duration": 9, "velocity": 123}, {"time": 1720, "pitch": 74, "duration": 2, "velocity": 117}, {"time": 1723, "pitch": 74, "duration": 4, "velocity": 107}, {"time": 1729, "pitch": 73, "duration": 4, "velocity": 112}, {"time": 1735, "pitch": 71, "duration": 5, "velocity": 115}, {"time": 1741, "pitch": 68, "duration": 4, "velocity": 115}, {"time": 1747, "pitch": 69, "duration": 4, "velocity": 113}, {"time": 1753, "pitch": 71, "duration": 5, "velocity": 106}, {"time": 1759, "pitch": 69, "duration": 43, "velocity": 117}, {"time": 1807, "pitch": 78, "duration": 4, "velocity": 115}, {"time": 1813, "pitch": 78, "duration": 4, "velocity": 106}, {"time": 1819, "pitch": 78, "duration": 4, "velocity": 118}, {"time": 1825, "pitch": 74, "duration": 4, "velocity": 120}, {"time": 1831, "pitch": 76, "duration": 2, "velocity": 115}, {"time": 1834, "pitch": 76, "duration": 4, "velocity": 115}, {"time": 1840, "pitch": 78, "duration": 2, "velocity": 112}, {"time": 1843, "pitch": 80, "duration": 4, "velocity": 115}, {"time": 1849, "pitch": 78, "duration": 4, "velocity": 115}, {"time": 1855, "pitch": 76, "duration": 9, "velocity": 121}, {"time": 1867, "pitch": 76, "duration": 5, "velocity": 115}, {"time": 1873, "pitch": 73, "duration": 6, "velocity": 115}, {"time": 1879, "pitch": 71, "duration": 3, "velocity": 112}, {"time": 1882, "pitch": 73, "duration": 19, "velocity": 104}, {"time": 1903, "pitch": 74, "duration": 4, "velocity": 120}, {"time": 1909, "pitch": 74, "duration": 4, "velocity": 123}, {"time": 1915, "pitch": 74, "duration": 4, "velocity": 120}, {"time": 1921, "pitch": 66, "duration": 5, "velocity": 115}, {"time": 1927, "pitch": 68, "duration": 2, "velocity": 115}, {"time": 1930, "pitch": 68, "duration": 4, "velocity": 112}, {"time": 1936, "pitch": 69, "duration": 2, "velocity": 120}, {"time": 1939, "pitch": 78, "duration": 4, "velocity": 118}, {"time": 1945, "pitch": 76, "duration": 4, "velocity": 112}, {"time": 1951, "pitch": 73, "duration": 9, "velocity": 112}, {"time": 1963, "pitch": 71, "duration": 5, "velocity": 112}, {"time": 1969, "pitch": 69, "duration": 4, "velocity": 120}, {"time": 1975, "pitch": 71, "duration": 21, "velocity": 109}, {"time": 1999, "pitch": 78, "duration": 7, "velocity": 115}, {"time": 2008, "pitch": 78, "duration": 2, "velocity": 112}, {"time": 2011, "pitch": 78, "duration": 2, "velocity": 112}, {"time": 2014, "pitch": 80, "duration": 2, "velocity": 109}, {"time": 2017, "pitch": 81, "duration": 5, "velocity": 117}, {"time": 2023, "pitch": 80, "duration": 20, "velocity": 118}, {"time": 2047, "pitch": 80, "duration": 6, "velocity": 115}, {"time": 2056, "pitch": 81, "duration": 2, "velocity": 117}, {"time": 2059, "pitch": 83, "duration": 5, "velocity": 115}, {"time": 2065, "pitch": 80, "duration": 4, "velocity": 112}, {"time": 2071, "pitch": 78, "duration": 5, "velocity": 106}, {"time": 2077, "pitch": 76, "duration": 15, "velocity": 118}, {"time": 2095, "pitch": 71, "duration": 6, "velocity": 115}, {"time": 2104, "pitch": 71, "duration": 2, "velocity": 112}, {"time": 2107, "pitch": 71, "duration": 2, "velocity": 112}, {"time": 2110, "pitch": 78, "duration": 7, "velocity": 115}, {"time": 2119, "pitch": 76, "duration": 7, "velocity": 115}, {"time": 2128, "pitch": 76, "duration": 2, "velocity": 112}, {"time": 2131, "pitch": 68, "duration": 4, "velocity": 115}, {"time": 2137, "pitch": 71, "duration": 4, "velocity": 112}, {"time": 2143, "pitch": 69, "duration": 43, "velocity": 117}, {"time": 2575, "pitch": 78, "duration": 4, "velocity": 115}, {"time": 2581, "pitch": 78, "duration": 4, "velocity": 106}, {"time": 2587, "pitch": 78, "duration": 4, "velocity": 118}, {"time": 2593, "pitch": 74, "duration": 4, "velocity": 120}, {"time": 2599, "pitch": 76, "duration": 2, "velocity": 115}, {"time": 2602, "pitch": 76, "duration": 4, "velocity": 115}, {"time": 2608, "pitch": 78, "duration": 2, "velocity": 112}, {"time": 2611, "pitch": 80, "duration": 4, "velocity": 115}, {"time": 2617, "pitch": 78, "duration": 4, "velocity": 115}, {"time": 2623, "pitch": 76, "duration": 9, "velocity": 121}, {"time": 2635, "pitch": 76, "duration": 5, "velocity": 115}, {"time": 2641, "pitch": 73, "duration": 6, "velocity": 115}, {"time": 2647, "pitch": 71, "duration": 3, "velocity": 112}, {"time": 2650, "pitch": 73, "duration": 19, "velocity": 104}, {"time": 2671, "pitch": 74, "duration": 4, "velocity": 120}, {"time": 2677, "pitch": 74, "duration": 4, "velocity": 123}, {"time": 2683, "pitch": 74, "duration": 4, "velocity": 120}, {"time": 2689, "pitch": 66, "duration": 5, "velocity": 115}, {"time": 2695, "pitch": 68, "duration": 2, "velocity": 115}, {"time": 2698, "pitch": 68, "duration": 4, "velocity": 112}, {"time": 2704, "pitch": 69, "duration": 2, "velocity": 120}, {"time": 2707, "pitch": 78, "duration": 4, "velocity": 118}, {"time": 2713, "pitch": 76, "duration": 4, "velocity": 112}, {"time": 2719, "pitch": 73, "duration": 9, "velocity": 112}, {"time": 2731, "pitch": 71, "duration": 5, "velocity": 112}, {"time": 2737, "pitch": 69, "duration": 4, "velocity": 120}, {"time": 2743, "pitch": 71, "duration": 21, "velocity": 109}, {"time": 2767, "pitch": 78, "duration": 7, "velocity": 115}, {"time": 2776, "pitch": 78, "duration": 2, "velocity": 112}, {"time": 2779, "pitch": 78, "duration": 2, "velocity": 112}, {"time": 2782, "pitch": 80, "duration": 2, "velocity": 109}, {"time": 2785, "pitch": 81, "duration": 5, "velocity": 117}, {"time": 2791, "pitch": 80, "duration": 20, "velocity": 118}, {"time": 2815, "pitch": 80, "duration": 6, "velocity": 115}, {"time": 2824, "pitch": 81, "duration": 2, "velocity": 117}, {"time": 2827, "pitch": 83, "duration": 5, "velocity": 115}, {"time": 2833, "pitch": 80, "duration": 4, "velocity": 112}, {"time": 2839, "pitch": 78, "duration": 5, "velocity": 106}, {"time": 2845, "pitch": 76, "duration": 15, "velocity": 118}, {"time": 2863, "pitch": 71, "duration": 6, "velocity": 115}, {"time": 2872, "pitch": 71, "duration": 2, "velocity": 112}, {"time": 2875, "pitch": 71, "duration": 2, "velocity": 112}, {"time": 2878, "pitch": 78, "duration": 7, "velocity": 115}, {"time": 2887, "pitch": 76, "duration": 7, "velocity": 115}, {"time": 2896, "pitch": 76, "duration": 2, "velocity": 112}, {"time": 2899, "pitch": 68, "duration": 4, "velocity": 115}, {"time": 2905, "pitch": 71, "duration": 4, "velocity": 112}, {"time": 2911, "pitch": 69, "duration": 43, "velocity": 117}, {"time": 2959, "pitch": 78, "duration": 4, "velocity": 115}, {"time": 2965, "pitch": 78, "duration": 4, "velocity": 106}, {"time": 2971, "pitch": 78, "duration": 4, "velocity": 118}, {"time": 2977, "pitch": 74, "duration": 4, "velocity": 120}, {"time": 2983, "pitch": 76, "duration": 2, "velocity": 115}, {"time": 2986, "pitch": 76, "duration": 4, "velocity": 115}, {"time": 2992, "pitch": 78, "duration": 2, "velocity": 112}, {"time": 2995, "pitch": 80, "duration": 4, "velocity": 115}, {"time": 3001, "pitch": 78, "duration": 4, "velocity": 115}, {"time": 3007, "pitch": 76, "duration": 9, "velocity": 121}, {"time": 3019, "pitch": 76, "duration": 5, "velocity": 115}, {"time": 3025, "pitch": 73, "duration": 6, "velocity": 115}, {"time": 3031, "pitch": 71, "duration": 3, "velocity": 112}, {"time": 3034, "pitch": 73, "duration": 19, "velocity": 104}, {"time": 3055, "pitch": 74, "duration": 4, "velocity": 120}, {"time": 3061, "pitch": 74, "duration": 4, "velocity": 123}, {"time": 3067, "pitch": 74, "duration": 4, "velocity": 120}, {"time": 3073, "pitch": 66, "duration": 5, "velocity": 115}, {"time": 3079, "pitch": 68, "duration": 2, "velocity": 115}, {"time": 3082, "pitch": 68, "duration": 4, "velocity": 112}, {"time": 3088, "pitch": 69, "duration": 2, "velocity": 120}, {"time": 3091, "pitch": 78, "duration": 4, "velocity": 118}, {"time": 3097, "pitch": 76, "duration": 4, "velocity": 112}, {"time": 3103, "pitch": 73, "duration": 9, "velocity": 112}, {"time": 3115, "pitch": 71, "duration": 5, "velocity": 112}, {"time": 3121, "pitch": 69, "duration": 4, "velocity": 120}, {"time": 3127, "pitch": 71, "duration": 21, "velocity": 109}, {"time": 3151, "pitch": 78, "duration": 7, "velocity": 115}, {"time": 3160, "pitch": 78, "duration": 2, "velocity": 112}, {"time": 3163, "pitch": 78, "duration": 2, "velocity": 112}, {"time": 3166, "pitch": 80, "duration": 2, "velocity": 109}, {"time": 3169, "pitch": 81, "duration": 5, "velocity": 117}, {"time": 3175, "pitch": 80, "duration": 20, "velocity": 118}, {"time": 3199, "pitch": 80, "duration": 6, "velocity": 115}, {"time": 3208, "pitch": 81, "duration": 2, "velocity": 117}, {"time": 3211, "pitch": 83, "duration": 5, "velocity": 115}, {"time": 3217, "pitch": 80, "duration": 4, "velocity": 112}, {"time": 3223, "pitch": 78, "duration": 5, "velocity": 106}, {"time": 3229, "pitch": 76, "duration": 15, "velocity": 118}, {"time": 3247, "pitch": 71, "duration": 6, "velocity": 115}, {"time": 3256, "pitch": 71, "duration": 2, "velocity": 112}, {"time": 3259, "pitch": 71, "duration": 2, "velocity": 112}, {"time": 3262, "pitch": 78, "duration": 7, "velocity": 115}, {"time": 3271, "pitch": 76, "duration": 24, "velocity": 115}, {"time": 3295, "pitch": 78, "duration": 7, "velocity": 118}, {"time": 3304, "pitch": 78, "duration": 2, "velocity": 112}, {"time": 3307, "pitch": 78, "duration": 1, "velocity": 115}, {"time": 3310, "pitch": 81, "duration": 7, "velocity": 120}, {"time": 3319, "pitch": 80, "duration": 7, "velocity": 118}, {"time": 3328, "pitch": 80, "duration": 1, "velocity": 115}, {"time": 3331, "pitch": 80, "duration": 2, "velocity": 115}, {"time": 3334, "pitch": 81, "duration": 1, "velocity": 123}, {"time": 3337, "pitch": 83, "duration": 4, "velocity": 115}, {"time": 3341, "pitch": 81, "duration": 7, "velocity": 120}, {"time": 3607, "pitch": 69, "duration": 5, "velocity": 120}, {"time": 3613, "pitch": 71, "duration": 5, "velocity": 115}, {"time": 3619, "pitch": 73, "duration": 4, "velocity": 115}, {"time": 3625, "pitch": 81, "duration": 5, "velocity": 115}, {"time": 3631, "pitch": 78, "duration": 14, "velocity": 112}, {"time": 3649, "pitch": 81, "duration": 4, "velocity": 120}, {"time": 3655, "pitch": 80, "duration": 8, "velocity": 115}, {"time": 3664, "pitch": 81, "duration": 2, "velocity": 117}, {"time": 3667, "pitch": 83, "duration": 4, "velocity": 118}, {"time": 3673, "pitch": 80, "duration": 5, "velocity": 115}, {"time": 3679, "pitch": 81, "duration": 18, "velocity": 118}, {"time": 3794, "pitch": 84, "duration": 1, "velocity": 124}, {"time": 3796, "pitch": 84, "duration": 3, "velocity": 116}, {"time": 3799, "pitch": 96, "duration": 3, "velocity": 127}, {"time": 3804, "pitch": 96, "duration": 3, "velocity": 127}, {"time": 3808, "pitch": 95, "duration": 4, "velocity": 124}, {"time": 3814, "pitch": 95, "duration": 2, "velocity": 127}, {"time": 3817, "pitch": 91, "duration": 4, "velocity": 127}, {"time": 3823, "pitch": 93, "duration": 9, "velocity": 127}, {"time": 3841, "pitch": 96, "duration": 5, "velocity": 127}, {"time": 3847, "pitch": 95, "duration": 6, "velocity": 127}, {"time": 3853, "pitch": 96, "duration": 3, "velocity": 127}, {"time": 3856, "pitch": 98, "duration": 4, "velocity": 127}, {"time": 3862, "pitch": 98, "duration": 4, "velocity": 127}, {"time": 3865, "pitch": 93, "duration": 3, "velocity": 127}, {"time": 3871, "pitch": 93, "duration": 10, "velocity": 127}, {"time": 3881, "pitch": 91, "duration": 18, "velocity": 127}, {"time": 3991, "pitch": 96, "duration": 3, "velocity": 127}, {"time": 3997, "pitch": 96, "duration": 5, "velocity": 127}, {"time": 4003, "pitch": 95, "duration": 5, "velocity": 127}, {"time": 4008, "pitch": 91, "duration": 7, "velocity": 127}, {"time": 4015, "pitch": 93, "duration": 13, "velocity": 127}, {"time": 4039, "pitch": 95, "duration": 6, "velocity": 127}, {"time": 4046, "pitch": 96, "duration": 4, "velocity": 127}, {"time": 4049, "pitch": 98, "duration": 3, "velocity": 127}, {"time": 4054, "pitch": 96, "duration": 3, "velocity": 127}, {"time": 4057, "pitch": 98, "duration": 8, "velocity": 127}, {"time": 4066, "pitch": 96, "duration": 45, "velocity": 127}, {"time": 4183, "pitch": 84, "duration": 3, "velocity": 127}, {"time": 4186, "pitch": 84, "duration": 3, "velocity": 127}, {"time": 4190, "pitch": 86, "duration": 4, "velocity": 127}, {"time": 4195, "pitch": 88, "duration": 2, "velocity": 114}, {"time": 4200, "pitch": 96, "duration": 4, "velocity": 109}, {"time": 4206, "pitch": 93, "duration": 13, "velocity": 127}, {"time": 4224, "pitch": 96, "duration": 6, "velocity": 127}, {"time": 4230, "pitch": 95, "duration": 7, "velocity": 127}, {"time": 4236, "pitch": 96, "duration": 4, "velocity": 127}, {"time": 4240, "pitch": 98, "duration": 6, "velocity": 127}, {"time": 4245, "pitch": 96, "duration": 3, "velocity": 117}, {"time": 4248, "pitch": 93, "duration": 4, "velocity": 127}, {"time": 4254, "pitch": 91, "duration": 26, "velocity": 127}]}, {"program": 0, "is_drum": false, "name": "PIANO", "notes": [{"time": 127, "pitch": 45, "duration": 41, "velocity": 59}, {"time": 127, "pitch": 57, "duration": 32, "velocity": 68}, {"time": 127, "pitch": 61, "duration": 32, "velocity": 99}, {"time": 157, "pitch": 52, "duration": 10, "velocity": 54}, {"time": 163, "pitch": 57, "duration": 4, "velocity": 86}, {"time": 163, "pitch": 61, "duration": 7, "velocity": 106}, {"time": 163, "pitch": 64, "duration": 7, "velocity": 94}, {"time": 169, "pitch": 57, "duration": 4, "velocity": 88}, {"time": 175, "pitch": 45, "duration": 48, "velocity": 81}, {"time": 175, "pitch": 57, "duration": 21, "velocity": 88}, {"time": 175, "pitch": 61, "duration": 21, "velocity": 104}, {"time": 193, "pitch": 52, "duration": 21, "velocity": 55}, {"time": 199, "pitch": 57, "duration": 23, "velocity": 86}, {"time": 199, "pitch": 61, "duration": 23, "velocity": 99}, {"time": 199, "pitch": 64, "duration": 23, "velocity": 99}, {"time": 217, "pitch": 52, "duration": 5, "velocity": 76}, {"time": 223, "pitch": 45, "duration": 18, "velocity": 77}, {"time": 223, "pitch": 57, "duration": 13, "velocity": 88}, {"time": 223, "pitch": 61, "duration": 10, "velocity": 101}, {"time": 229, "pitch": 52, "duration": 11, "velocity": 50}, {"time": 235, "pitch": 61, "duration": 7, "velocity": 101}, {"time": 235, "pitch": 64, "duration": 12, "velocity": 104}, {"time": 241, "pitch": 57, "duration": 4, "velocity": 99}, {"time": 247, "pitch": 42, "duration": 16, "velocity": 96}, {"time": 253, "pitch": 49, "duration": 9, "velocity": 82}, {"time": 259, "pitch": 57, "duration": 4, "velocity": 99}, {"time": 259, "pitch": 61, "duration": 5, "velocity": 99}, {"time": 271, "pitch": 49, "duration": 17, "velocity": 99}, {"time": 271, "pitch": 56, "duration": 3, "velocity": 94}, {"time": 271, "pitch": 61, "duration": 18, "velocity": 101}, {"time": 277, "pitch": 56, "duration": 7, "velocity": 76}, {"time": 283, "pitch": 64, "duration": 9, "velocity": 99}, {"time": 289, "pitch": 56, "duration": 2, "velocity": 96}, {"time": 295, "pitch": 42, "duration": 17, "velocity": 99}, {"time": 295, "pitch": 57, "duration": 18, "velocity": 79}, {"time": 295, "pitch": 61, "duration": 18, "velocity": 96}, {"time": 301, "pitch": 49, "duration": 10, "velocity": 76}, {"time": 307, "pitch": 66, "duration": 6, "velocity": 106}, {"time": 313, "pitch": 54, "duration": 4, "velocity": 104}, {"time": 319, "pitch": 38, "duration": 16, "velocity": 86}, {"time": 319, "pitch": 54, "duration": 12, "velocity": 85}, {"time": 319, "pitch": 57, "duration": 18, "velocity": 88}, {"time": 325, "pitch": 45, "duration": 10, "velocity": 70}, {"time": 331, "pitch": 62, "duration": 7, "velocity": 117}, {"time": 337, "pitch": 54, "duration": 2, "velocity": 104}, {"time": 343, "pitch": 40, "duration": 16, "velocity": 99}, {"time": 343, "pitch": 52, "duration": 13, "velocity": 99}, {"time": 343, "pitch": 56, "duration": 10, "velocity": 99}, {"time": 349, "pitch": 47, "duration": 10, "velocity": 78}, {"time": 355, "pitch": 56, "duration": 5, "velocity": 106}, {"time": 355, "pitch": 59, "duration": 7, "velocity": 96}, {"time": 361, "pitch": 52, "duration": 6, "velocity": 71}, {"time": 367, "pitch": 45, "duration": 22, "velocity": 72}, {"time": 367, "pitch": 57, "duration": 13, "velocity": 99}, {"time": 373, "pitch": 52, "duration": 13, "velocity": 55}, {"time": 379, "pitch": 61, "duration": 13, "velocity": 112}, {"time": 385, "pitch": 57, "duration": 4, "velocity": 110}, {"time": 391, "pitch": 40, "duration": 23, "velocity": 106}, {"time": 391, "pitch": 52, "duration": 13, "velocity": 94}, {"time": 391, "pitch": 56, "duration": 16, "velocity": 99}, {"time": 397, "pitch": 47, "duration": 17, "velocity": 94}, {"time": 403, "pitch": 64, "duration": 12, "velocity": 112}, {"time": 406, "pitch": 52, "duration": 4, "velocity": 104}, {"time": 409, "pitch": 59, "duration": 6, "velocity": 91}, {"time": 412, "pitch": 52, "duration": 3, "velocity": 94}, {"time": 415, "pitch": 45, "duration": 18, "velocity": 77}, {"time": 415, "pitch": 57, "duration": 13, "velocity": 88}, {"time": 415, "pitch": 61, "duration": 10, "velocity": 101}, {"time": 421, "pitch": 52, "duration": 11, "velocity": 50}, {"time": 427, "pitch": 61, "duration": 7, "velocity": 101}, {"time": 427, "pitch": 64, "duration": 12, "velocity": 104}, {"time": 433, "pitch": 57, "duration": 4, "velocity": 99}, {"time": 439, "pitch": 42, "duration": 16, "velocity": 96}, {"time": 445, "pitch": 49, "duration": 9, "velocity": 82}, {"time": 451, "pitch": 57, "duration": 4, "velocity": 99}, {"time": 451, "pitch": 61, "duration": 5, "velocity": 99}, {"time": 463, "pitch": 49, "duration": 17, "velocity": 99}, {"time": 463, "pitch": 56, "duration": 3, "velocity": 94}, {"time": 463, "pitch": 61, "duration": 18, "velocity": 101}, {"time": 469, "pitch": 56, "duration": 7, "velocity": 76}, {"time": 475, "pitch": 64, "duration": 9, "velocity": 99}, {"time": 481, "pitch": 56, "duration": 2, "velocity": 96}, {"time": 487, "pitch": 42, "duration": 17, "velocity": 99}, {"time": 487, "pitch": 57, "duration": 18, "velocity": 79}, {"time": 487, "pitch": 61, "duration": 18, "velocity": 96}, {"time": 493, "pitch": 49, "duration": 10, "velocity": 76}, {"time": 499, "pitch": 66, "duration": 6, "velocity": 106}, {"time": 505, "pitch": 54, "duration": 4, "velocity": 104}, {"time": 511, "pitch": 38, "duration": 16, "velocity": 86}, {"time": 511, "pitch": 54, "duration": 12, "velocity": 85}, {"time": 511, "pitch": 57, "duration": 18, "velocity": 88}, {"time": 517, "pitch": 45, "duration": 10, "velocity": 70}, {"time": 523, "pitch": 62, "duration": 7, "velocity": 117}, {"time": 529, "pitch": 54, "duration": 2, "velocity": 104}, {"time": 535, "pitch": 40, "duration": 16, "velocity": 99}, {"time": 535, "pitch": 52, "duration": 13, "velocity": 99}, {"time": 535, "pitch": 56, "duration": 10, "velocity": 99}, {"time": 541, "pitch": 47, "duration": 10, "velocity": 78}, {"time": 547, "pitch": 56, "duration": 5, "velocity": 106}, {"time": 547, "pitch": 59, "duration": 7, "velocity": 96}, {"time": 553, "pitch": 52, "duration": 6, "velocity": 71}, {"time": 559, "pitch": 42, "duration": 22, "velocity": 106}, {"time": 562, "pitch": 49, "duration": 8, "velocity": 67}, {"time": 565, "pitch": 54, "duration": 3, "velocity": 89}, {"time": 568, "pitch": 56, "duration": 6, "velocity": 106}, {"time": 571, "pitch": 49, "duration": 4, "velocity": 87}, {"time": 574, "pitch": 57, "duration": 1, "velocity": 113}, {"time": 577, "pitch": 49, "duration": 3, "velocity": 62}, {"time": 580, "pitch": 61, "duration": 1, "velocity": 96}, {"time": 583, "pitch": 42, "duration": 22, "velocity": 104}, {"time": 583, "pitch": 61, "duration": 6, "velocity": 91}, {"time": 583, "pitch": 66, "duration": 9, "velocity": 101}, {"time": 589, "pitch": 49, "duration": 12, "velocity": 42}, {"time": 592, "pitch": 61, "duration": 2, "velocity": 85}, {"time": 595, "pitch": 69, "duration": 3, "velocity": 117}, {"time": 598, "pitch": 61, "duration": 2, "velocity": 101}, {"time": 601, "pitch": 68, "duration": 4, "velocity": 101}, {"time": 604, "pitch": 61, "duration": 2, "velocity": 87}, {"time": 607, "pitch": 42, "duration": 21, "velocity": 106}, {"time": 607, "pitch": 61, "duration": 3, "velocity": 99}, {"time": 607, "pitch": 66, "duration": 3, "velocity": 99}, {"time": 610, "pitch": 49, "duration": 8, "velocity": 87}, {"time": 613, "pitch": 54, "duration": 3, "velocity": 94}, {"time": 616, "pitch": 56, "duration": 4, "velocity": 109}, {"time": 619, "pitch": 49, "duration": 4, "velocity": 89}, {"time": 622, "pitch": 57, "duration": 2, "velocity": 120}, {"time": 625, "pitch": 49, "duration": 3, "velocity": 58}, {"time": 628, "pitch": 54, "duration": 6, "velocity": 101}, {"time": 628, "pitch": 61, "duration": 6, "velocity": 109}, {"time": 631, "pitch": 42, "duration": 23, "velocity": 99}, {"time": 634, "pitch": 49, "duration": 10, "velocity": 80}, {"time": 637, "pitch": 54, "duration": 6, "velocity": 85}, {"time": 640, "pitch": 57, "duration": 14, "velocity": 113}, {"time": 643, "pitch": 66, "duration": 12, "velocity": 112}, {"time": 646, "pitch": 49, "duration": 8, "velocity": 87}, {"time": 649, "pitch": 54, "duration": 6, "velocity": 82}, {"time": 655, "pitch": 42, "duration": 15, "velocity": 104}, {"time": 655, "pitch": 54, "duration": 8, "velocity": 66}, {"time": 655, "pitch": 57, "duration": 7, "velocity": 88}, {"time": 655, "pitch": 61, "duration": 8, "velocity": 101}, {"time": 661, "pitch": 49, "duration": 8, "velocity": 52}, {"time": 667, "pitch": 57, "duration": 6, "velocity": 113}, {"time": 667, "pitch": 61, "duration": 7, "velocity": 104}, {"time": 679, "pitch": 45, "duration": 14, "velocity": 74}, {"time": 679, "pitch": 57, "duration": 6, "velocity": 99}, {"time": 679, "pitch": 61, "duration": 6, "velocity": 96}, {"time": 685, "pitch": 52, "duration": 7, "velocity": 67}, {"time": 691, "pitch": 57, "duration": 3, "velocity": 113}, {"time": 691, "pitch": 61, "duration": 5, "velocity": 104}, {"time": 703, "pitch": 40, "duration": 20, "velocity": 104}, {"time": 703, "pitch": 52, "duration": 11, "velocity": 91}, {"time": 703, "pitch": 56, "duration": 6, "velocity": 99}, {"time": 709, "pitch": 47, "duration": 12, "velocity": 64}, {"time": 715, "pitch": 56, "duration": 7, "velocity": 106}, {"time": 715, "pitch": 59, "duration": 8, "velocity": 99}, {"time": 721, "pitch": 52, "duration": 19, "velocity": 94}, {"time": 727, "pitch": 40, "duration": 17, "velocity": 80}, {"time": 727, "pitch": 56, "duration": 9, "velocity": 96}, {"time": 727, "pitch": 59, "duration": 9, "velocity": 91}, {"time": 733, "pitch": 47, "duration": 11, "velocity": 38}, {"time": 739, "pitch": 56, "duration": 6, "velocity": 109}, {"time": 739, "pitch": 59, "duration": 7, "velocity": 104}, {"time": 739, "pitch": 64, "duration": 8, "velocity": 106}, {"time": 745, "pitch": 52, "duration": 2, "velocity": 99}, {"time": 751, "pitch": 42, "duration": 15, "velocity": 104}, {"time": 751, "pitch": 57, "duration": 10, "velocity": 91}, {"time": 751, "pitch": 61, "duration": 10, "velocity": 99}, {"time": 757, "pitch": 49, "duration": 9, "velocity": 59}, {"time": 763, "pitch": 57, "duration": 7, "velocity": 113}, {"time": 763, "pitch": 61, "duration": 7, "velocity": 109}, {"time": 769, "pitch": 54, "duration": 6, "velocity": 89}, {"time": 775, "pitch": 45, "duration": 19, "velocity": 81}, {"time": 775, "pitch": 57, "duration": 7, "velocity": 99}, {"time": 775, "pitch": 61, "duration": 7, "velocity": 104}, {"time": 781, "pitch": 52, "duration": 7, "velocity": 87}, {"time": 787, "pitch": 57, "duration": 7, "velocity": 120}, {"time": 787, "pitch": 61, "duration": 9, "velocity": 106}, {"time": 793, "pitch": 52, "duration": 4, "velocity": 104}, {"time": 799, "pitch": 40, "duration": 39, "velocity": 101}, {"time": 799, "pitch": 56, "duration": 7, "velocity": 101}, {"time": 799, "pitch": 59, "duration": 9, "velocity": 96}, {"time": 805, "pitch": 47, "duration": 33, "velocity": 62}, {"time": 811, "pitch": 56, "duration": 6, "velocity": 101}, {"time": 811, "pitch": 59, "duration": 7, "velocity": 94}, {"time": 817, "pitch": 52, "duration": 7, "velocity": 64}, {"time": 823, "pitch": 56, "duration": 8, "velocity": 109}, {"time": 823, "pitch": 59, "duration": 9, "velocity": 104}, {"time": 823, "pitch": 64, "duration": 9, "velocity": 106}, {"time": 829, "pitch": 52, "duration": 7, "velocity": 82}, {"time": 835, "pitch": 56, "duration": 5, "velocity": 112}, {"time": 835, "pitch": 59, "duration": 6, "velocity": 104}, {"time": 841, "pitch": 52, "duration": 2, "velocity": 82}, {"time": 847, "pitch": 38, "duration": 40, "velocity": 113}, {"time": 847, "pitch": 57, "duration": 8, "velocity": 99}, {"time": 847, "pitch": 62, "duration": 9, "velocity": 91}, {"time": 853, "pitch": 45, "duration": 33, "velocity": 56}, {"time": 859, "pitch": 57, "duration": 6, "velocity": 117}, {"time": 859, "pitch": 62, "duration": 7, "velocity": 110}, {"time": 871, "pitch": 57, "duration": 7, "velocity": 113}, {"time": 871, "pitch": 62, "duration": 8, "velocity": 110}, {"time": 877, "pitch": 54, "duration": 7, "velocity": 80}, {"time": 883, "pitch": 57, "duration": 6, "velocity": 113}, {"time": 883, "pitch": 62, "duration": 6, "velocity": 113}, {"time": 889, "pitch": 54, "duration": 1, "velocity": 96}, {"time": 895, "pitch": 49, "duration": 38, "velocity": 101}, {"time": 895, "pitch": 56, "duration": 4, "velocity": 99}, {"time": 895, "pitch": 61, "duration": 8, "velocity": 106}, {"time": 895, "pitch": 64, "duration": 8, "velocity": 101}, {"time": 901, "pitch": 56, "duration": 2, "velocity": 76}, {"time": 907, "pitch": 56, "duration": 3, "velocity": 99}, {"time": 907, "pitch": 61, "duration": 5, "velocity": 104}, {"time": 907, "pitch": 64, "duration": 6, "velocity": 104}, {"time": 919, "pitch": 61, "duration": 9, "velocity": 104}, {"time": 919, "pitch": 64, "duration": 9, "velocity": 104}, {"time": 925, "pitch": 56, "duration": 7, "velocity": 87}, {"time": 931, "pitch": 61, "duration": 6, "velocity": 106}, {"time": 931, "pitch": 64, "duration": 7, "velocity": 106}, {"time": 937, "pitch": 56, "duration": 2, "velocity": 91}, {"time": 943, "pitch": 47, "duration": 14, "velocity": 101}, {"time": 943, "pitch": 59, "duration": 8, "velocity": 101}, {"time": 943, "pitch": 62, "duration": 8, "velocity": 104}, {"time": 949, "pitch": 54, "duration": 7, "velocity": 82}, {"time": 955, "pitch": 59, "duration": 6, "velocity": 106}, {"time": 955, "pitch": 62, "duration": 6, "velocity": 117}, {"time": 961, "pitch": 54, "duration": 2, "velocity": 91}, {"time": 967, "pitch": 40, "duration": 14, "velocity": 104}, {"time": 967, "pitch": 56, "duration": 3, "velocity": 96}, {"time": 967, "pitch": 59, "duration": 8, "velocity": 96}, {"time": 967, "pitch": 64, "duration": 7, "velocity": 87}, {"time": 973, "pitch": 56, "duration": 5, "velocity": 85}, {"time": 979, "pitch": 56, "duration": 2, "velocity": 104}, {"time": 979, "pitch": 59, "duration": 6, "velocity": 106}, {"time": 979, "pitch": 64, "duration": 7, "velocity": 99}, {"time": 985, "pitch": 56, "duration": 5, "velocity": 91}, {"time": 991, "pitch": 45, "duration": 45, "velocity": 74}, {"time": 991, "pitch": 57, "duration": 9, "velocity": 104}, {"time": 991, "pitch": 61, "duration": 7, "velocity": 101}, {"time": 997, "pitch": 52, "duration": 7, "velocity": 85}, {"time": 1003, "pitch": 57, "duration": 8, "velocity": 110}, {"time": 1003, "pitch": 61, "duration": 7, "velocity": 104}, {"time": 1009, "pitch": 52, "duration": 7, "velocity": 87}, {"time": 1015, "pitch": 57, "duration": 8, "velocity": 113}, {"time": 1015, "pitch": 61, "duration": 8, "velocity": 104}, {"time": 1021, "pitch": 52, "duration": 8, "velocity": 91}, {"time": 1027, "pitch": 62, "duration": 1, "velocity": 113}, {"time": 1030, "pitch": 61, "duration": 3, "velocity": 104}, {"time": 1033, "pitch": 59, "duration": 4, "velocity": 96}, {"time": 1036, "pitch": 57, "duration": 3, "velocity": 91}, {"time": 1039, "pitch": 47, "duration": 13, "velocity": 96}, {"time": 1039, "pitch": 54, "duration": 4, "velocity": 96}, {"time": 1039, "pitch": 59, "duration": 8, "velocity": 104}, {"time": 1039, "pitch": 62, "duration": 9, "velocity": 101}, {"time": 1045, "pitch": 54, "duration": 7, "velocity": 91}, {"time": 1051, "pitch": 59, "duration": 6, "velocity": 101}, {"time": 1051, "pitch": 62, "duration": 7, "velocity": 117}, {"time": 1057, "pitch": 54, "duration": 2, "velocity": 104}, {"time": 1063, "pitch": 40, "duration": 13, "velocity": 106}, {"time": 1063, "pitch": 56, "duration": 8, "velocity": 101}, {"time": 1063, "pitch": 59, "duration": 7, "velocity": 99}, {"time": 1063, "pitch": 64, "duration": 8, "velocity": 89}, {"time": 1069, "pitch": 47, "duration": 7, "velocity": 62}, {"time": 1075, "pitch": 56, "duration": 2, "velocity": 104}, {"time": 1075, "pitch": 59, "duration": 6, "velocity": 106}, {"time": 1075, "pitch": 64, "duration": 7, "velocity": 104}, {"time": 1081, "pitch": 56, "duration": 4, "velocity": 101}, {"time": 1087, "pitch": 45, "duration": 14, "velocity": 86}, {"time": 1087, "pitch": 57, "duration": 6, "velocity": 107}, {"time": 1087, "pitch": 61, "duration": 7, "velocity": 99}, {"time": 1093, "pitch": 52, "duration": 6, "velocity": 85}, {"time": 1099, "pitch": 57, "duration": 7, "velocity": 117}, {"time": 1099, "pitch": 61, "duration": 7, "velocity": 104}, {"time": 1105, "pitch": 52, "duration": 2, "velocity": 106}, {"time": 1111, "pitch": 42, "duration": 20, "velocity": 106}, {"time": 1111, "pitch": 57, "duration": 7, "velocity": 104}, {"time": 1111, "pitch": 61, "duration": 8, "velocity": 104}, {"time": 1117, "pitch": 49, "duration": 6, "velocity": 66}, {"time": 1123, "pitch": 57, "duration": 3, "velocity": 120}, {"time": 1123, "pitch": 61, "duration": 4, "velocity": 106}, {"time": 1126, "pitch": 49, "duration": 4, "velocity": 89}, {"time": 1129, "pitch": 56, "duration": 3, "velocity": 106}, {"time": 1132, "pitch": 57, "duration": 1, "velocity": 120}, {"time": 1135, "pitch": 47, "duration": 13, "velocity": 94}, {"time": 1135, "pitch": 54, "duration": 4, "velocity": 104}, {"time": 1135, "pitch": 59, "duration": 5, "velocity": 94}, {"time": 1141, "pitch": 54, "duration": 4, "velocity": 91}, {"time": 1147, "pitch": 59, "duration": 6, "velocity": 109}, {"time": 1147, "pitch": 62, "duration": 6, "velocity": 113}, {"time": 1153, "pitch": 54, "duration": 2, "velocity": 109}, {"time": 1159, "pitch": 40, "duration": 17, "velocity": 104}, {"time": 1159, "pitch": 52, "duration": 12, "velocity": 99}, {"time": 1159, "pitch": 56, "duration": 6, "velocity": 101}, {"time": 1165, "pitch": 47, "duration": 11, "velocity": 56}, {"time": 1171, "pitch": 56, "duration": 6, "velocity": 106}, {"time": 1171, "pitch": 59, "duration": 7, "velocity": 99}, {"time": 1171, "pitch": 64, "duration": 6, "velocity": 99}, {"time": 1177, "pitch": 52, "duration": 4, "velocity": 109}, {"time": 1183, "pitch": 45, "duration": 23, "velocity": 107}, {"time": 1183, "pitch": 52, "duration": 2, "velocity": 80}, {"time": 1183, "pitch": 57, "duration": 8, "velocity": 110}, {"time": 1189, "pitch": 49, "duration": 15, "velocity": 40}, {"time": 1189, "pitch": 52, "duration": 7, "velocity": 104}, {"time": 1195, "pitch": 57, "duration": 6, "velocity": 120}, {"time": 1195, "pitch": 61, "duration": 7, "velocity": 109}, {"time": 1201, "pitch": 52, "duration": 1, "velocity": 109}, {"time": 1207, "pitch": 40, "duration": 16, "velocity": 106}, {"time": 1207, "pitch": 56, "duration": 3, "velocity": 104}, {"time": 1207, "pitch": 59, "duration": 8, "velocity": 99}, {"time": 1207, "pitch": 64, "duration": 8, "velocity": 99}, {"time": 1213, "pitch": 47, "duration": 7, "velocity": 73}, {"time": 1216, "pitch": 56, "duration": 2, "velocity": 96}, {"time": 1219, "pitch": 56, "duration": 3, "velocity": 109}, {"time": 1219, "pitch": 59, "duration": 3, "velocity": 112}, {"time": 1219, "pitch": 64, "duration": 4, "velocity": 106}, {"time": 1222, "pitch": 47, "duration": 3, "velocity": 94}, {"time": 1225, "pitch": 40, "duration": 2, "velocity": 99}, {"time": 1231, "pitch": 38, "duration": 13, "velocity": 113}, {"time": 1231, "pitch": 57, "duration": 7, "velocity": 107}, {"time": 1231, "pitch": 62, "duration": 7, "velocity": 107}, {"time": 1237, "pitch": 54, "duration": 4, "velocity": 76}, {"time": 1243, "pitch": 57, "duration": 7, "velocity": 117}, {"time": 1243, "pitch": 62, "duration": 7, "velocity": 113}, {"time": 1249, "pitch": 54, "duration": 2, "velocity": 101}, {"time": 1255, "pitch": 40, "duration": 20, "velocity": 106}, {"time": 1255, "pitch": 56, "duration": 3, "velocity": 101}, {"time": 1255, "pitch": 59, "duration": 9, "velocity": 101}, {"time": 1255, "pitch": 64, "duration": 7, "velocity": 101}, {"time": 1261, "pitch": 56, "duration": 4, "velocity": 91}, {"time": 1267, "pitch": 56, "duration": 3, "velocity": 109}, {"time": 1267, "pitch": 59, "duration": 10, "velocity": 112}, {"time": 1267, "pitch": 64, "duration": 10, "velocity": 104}, {"time": 1273, "pitch": 56, "duration": 5, "velocity": 99}, {"time": 1279, "pitch": 40, "duration": 5, "velocity": 106}, {"time": 1279, "pitch": 56, "duration": 3, "velocity": 106}, {"time": 1279, "pitch": 59, "duration": 6, "velocity": 106}, {"time": 1279, "pitch": 64, "duration": 7, "velocity": 104}, {"time": 1285, "pitch": 56, "duration": 2, "velocity": 99}, {"time": 1291, "pitch": 38, "duration": 6, "velocity": 107}, {"time": 1291, "pitch": 57, "duration": 6, "velocity": 113}, {"time": 1291, "pitch": 62, "duration": 10, "velocity": 117}, {"time": 1297, "pitch": 54, "duration": 5, "velocity": 109}, {"time": 1303, "pitch": 37, "duration": 14, "velocity": 104}, {"time": 1303, "pitch": 56, "duration": 3, "velocity": 99}, {"time": 1303, "pitch": 59, "duration": 7, "velocity": 94}, {"time": 1303, "pitch": 64, "duration": 8, "velocity": 99}, {"time": 1309, "pitch": 56, "duration": 4, "velocity": 85}, {"time": 1315, "pitch": 56, "duration": 2, "velocity": 109}, {"time": 1315, "pitch": 59, "duration": 5, "velocity": 109}, {"time": 1315, "pitch": 64, "duration": 7, "velocity": 104}, {"time": 1321, "pitch": 56, "duration": 2, "velocity": 106}, {"time": 1327, "pitch": 47, "duration": 18, "velocity": 106}, {"time": 1327, "pitch": 54, "duration": 4, "velocity": 109}, {"time": 1327, "pitch": 59, "duration": 8, "velocity": 109}, {"time": 1333, "pitch": 54, "duration": 7, "velocity": 87}, {"time": 1339, "pitch": 59, "duration": 7, "velocity": 106}, {"time": 1339, "pitch": 62, "duration": 7, "velocity": 117}, {"time": 1345, "pitch": 54, "duration": 2, "velocity": 106}, {"time": 1351, "pitch": 40, "duration": 15, "velocity": 104}, {"time": 1351, "pitch": 52, "duration": 12, "velocity": 104}, {"time": 1351, "pitch": 56, "duration": 6, "velocity": 101}, {"time": 1357, "pitch": 47, "duration": 8, "velocity": 74}, {"time": 1363, "pitch": 56, "duration": 6, "velocity": 104}, {"time": 1363, "pitch": 59, "duration": 7, "velocity": 99}, {"time": 1363, "pitch": 64, "duration": 6, "velocity": 104}, {"time": 1369, "pitch": 52, "duration": 6, "velocity": 112}, {"time": 1375, "pitch": 45, "duration": 22, "velocity": 113}, {"time": 1375, "pitch": 57, "duration": 9, "velocity": 107}, {"time": 1375, "pitch": 61, "duration": 9, "velocity": 104}, {"time": 1381, "pitch": 52, "duration": 7, "velocity": 91}, {"time": 1387, "pitch": 57, "duration": 7, "velocity": 117}, {"time": 1387, "pitch": 61, "duration": 7, "velocity": 106}, {"time": 1393, "pitch": 52, "duration": 7, "velocity": 101}, {"time": 1399, "pitch": 45, "duration": 13, "velocity": 113}, {"time": 1399, "pitch": 57, "duration": 7, "velocity": 107}, {"time": 1399, "pitch": 61, "duration": 8, "velocity": 101}, {"time": 1405, "pitch": 52, "duration": 4, "velocity": 76}, {"time": 1411, "pitch": 52, "duration": 3, "velocity": 112}, {"time": 1411, "pitch": 57, "duration": 3, "velocity": 120}, {"time": 1411, "pitch": 61, "duration": 4, "velocity": 109}, {"time": 1414, "pitch": 45, "duration": 9, "velocity": 110}, {"time": 1417, "pitch": 57, "duration": 5, "velocity": 110}, {"time": 1420, "pitch": 52, "duration": 2, "velocity": 87}, {"time": 1423, "pitch": 42, "duration": 15, "velocity": 104}, {"time": 1423, "pitch": 54, "duration": 8, "velocity": 66}, {"time": 1423, "pitch": 57, "duration": 7, "velocity": 88}, {"time": 1423, "pitch": 61, "duration": 8, "velocity": 101}, {"time": 1429, "pitch": 49, "duration": 8, "velocity": 52}, {"time": 1435, "pitch": 57, "duration": 6, "velocity": 113}, {"time": 1435, "pitch": 61, "duration": 7, "velocity": 104}, {"time": 1447, "pitch": 45, "duration": 14, "velocity": 74}, {"time": 1447, "pitch": 57, "duration": 6, "velocity": 99}, {"time": 1447, "pitch": 61, "duration": 6, "velocity": 96}, {"time": 1453, "pitch": 52, "duration": 7, "velocity": 67}, {"time": 1459, "pitch": 57, "duration": 3, "velocity": 113}, {"time": 1459, "pitch": 61, "duration": 5, "velocity": 104}, {"time": 1471, "pitch": 40, "duration": 20, "velocity": 104}, {"time": 1471, "pitch": 52, "duration": 11, "velocity": 91}, {"time": 1471, "pitch": 56, "duration": 6, "velocity": 99}, {"time": 1477, "pitch": 47, "duration": 12, "velocity": 64}, {"time": 1483, "pitch": 56, "duration": 7, "velocity": 106}, {"time": 1483, "pitch": 59, "duration": 8, "velocity": 99}, {"time": 1489, "pitch": 52, "duration": 19, "velocity": 94}, {"time": 1495, "pitch": 40, "duration": 17, "velocity": 80}, {"time": 1495, "pitch": 56, "duration": 9, "velocity": 96}, {"time": 1495, "pitch": 59, "duration": 9, "velocity": 91}, {"time": 1501, "pitch": 47, "duration": 11, "velocity": 38}, {"time": 1507, "pitch": 56, "duration": 6, "velocity": 109}, {"time": 1507, "pitch": 59, "duration": 7, "velocity": 104}, {"time": 1507, "pitch": 64, "duration": 8, "velocity": 106}, {"time": 1513, "pitch": 52, "duration": 2, "velocity": 99}, {"time": 1519, "pitch": 42, "duration": 15, "velocity": 104}, {"time": 1519, "pitch": 57, "duration": 10, "velocity": 91}, {"time": 1519, "pitch": 61, "duration": 10, "velocity": 99}, {"time": 1525, "pitch": 49, "duration": 9, "velocity": 59}, {"time": 1531, "pitch": 57, "duration": 7, "velocity": 113}, {"time": 1531, "pitch": 61, "duration": 7, "velocity": 109}, {"time": 1537, "pitch": 54, "duration": 6, "velocity": 89}, {"time": 1543, "pitch": 45, "duration": 19, "velocity": 81}, {"time": 1543, "pitch": 57, "duration": 7, "velocity": 99}, {"time": 1543, "pitch": 61, "duration": 7, "velocity": 104}, {"time": 1549, "pitch": 52, "duration": 7, "velocity": 87}, {"time": 1555, "pitch": 57, "duration": 7, "velocity": 120}, {"time": 1555, "pitch": 61, "duration": 9, "velocity": 106}, {"time": 1561, "pitch": 52, "duration": 4, "velocity": 104}, {"time": 1567, "pitch": 40, "duration": 39, "velocity": 101}, {"time": 1567, "pitch": 56, "duration": 7, "velocity": 101}, {"time": 1567, "pitch": 59, "duration": 9, "velocity": 96}, {"time": 1573, "pitch": 47, "duration": 33, "velocity": 62}, {"time": 1579, "pitch": 56, "duration": 6, "velocity": 101}, {"time": 1579, "pitch": 59, "duration": 7, "velocity": 94}, {"time": 1585, "pitch": 52, "duration": 7, "velocity": 64}, {"time": 1591, "pitch": 56, "duration": 8, "velocity": 109}, {"time": 1591, "pitch": 59, "duration": 9, "velocity": 104}, {"time": 1591, "pitch": 64, "duration": 9, "velocity": 106}, {"time": 1597, "pitch": 52, "duration": 7, "velocity": 82}, {"time": 1603, "pitch": 56, "duration": 5, "velocity": 112}, {"time": 1603, "pitch": 59, "duration": 6, "velocity": 104}, {"time": 1609, "pitch": 52, "duration": 2, "velocity": 82}, {"time": 1615, "pitch": 38, "duration": 40, "velocity": 113}, {"time": 1615, "pitch": 57, "duration": 8, "velocity": 99}, {"time": 1615, "pitch": 62, "duration": 9, "velocity": 91}, {"time": 1621, "pitch": 45, "duration": 33, "velocity": 56}, {"time": 1627, "pitch": 57, "duration": 6, "velocity": 117}, {"time": 1627, "pitch": 62, "duration": 7, "velocity": 110}, {"time": 1639, "pitch": 57, "duration": 7, "velocity": 113}, {"time": 1639, "pitch": 62, "duration": 8, "velocity": 110}, {"time": 1645, "pitch": 54, "duration": 7, "velocity": 80}, {"time": 1651, "pitch": 57, "duration": 6, "velocity": 113}, {"time": 1651, "pitch": 62, "duration": 6, "velocity": 113}, {"time": 1657, "pitch": 54, "duration": 1, "velocity": 96}, {"time": 1663, "pitch": 49, "duration": 38, "velocity": 101}, {"time": 1663, "pitch": 56, "duration": 4, "velocity": 99}, {"time": 1663, "pitch": 61, "duration": 8, "velocity": 106}, {"time": 1663, "pitch": 64, "duration": 8, "velocity": 101}, {"time": 1669, "pitch": 56, "duration": 2, "velocity": 76}, {"time": 1675, "pitch": 56, "duration": 3, "velocity": 99}, {"time": 1675, "pitch": 61, "duration": 5, "velocity": 104}, {"time": 1675, "pitch": 64, "duration": 6, "velocity": 104}, {"time": 1687, "pitch": 61, "duration": 9, "velocity": 104}, {"time": 1687, "pitch": 64, "duration": 9, "velocity": 104}, {"time": 1693, "pitch": 56, "duration": 7, "velocity": 87}, {"time": 1699, "pitch": 61, "duration": 6, "velocity": 106}, {"time": 1699, "pitch": 64, "duration": 7, "velocity": 106}, {"time": 1705, "pitch": 56, "duration": 2, "velocity": 91}, {"time": 1711, "pitch": 47, "duration": 14, "velocity": 101}, {"time": 1711, "pitch": 59, "duration": 8, "velocity": 101}, {"time": 1711, "pitch": 62, "duration": 8, "velocity": 104}, {"time": 1717, "pitch": 54, "duration": 7, "velocity": 82}, {"time": 1723, "pitch": 59, "duration": 6, "velocity": 106}, {"time": 1723, "pitch": 62, "duration": 6, "velocity": 117}, {"time": 1729, "pitch": 54, "duration": 2, "velocity": 91}, {"time": 1735, "pitch": 40, "duration": 14, "velocity": 104}, {"time": 1735, "pitch": 56, "duration": 3, "velocity": 96}, {"time": 1735, "pitch": 59, "duration": 8, "velocity": 96}, {"time": 1735, "pitch": 64, "duration": 7, "velocity": 87}, {"time": 1741, "pitch": 56, "duration": 5, "velocity": 85}, {"time": 1747, "pitch": 56, "duration": 2, "velocity": 104}, {"time": 1747, "pitch": 59, "duration": 6, "velocity": 106}, {"time": 1747, "pitch": 64, "duration": 7, "velocity": 99}, {"time": 1753, "pitch": 56, "duration": 5, "velocity": 91}, {"time": 1759, "pitch": 45, "duration": 45, "velocity": 74}, {"time": 1759, "pitch": 57, "duration": 9, "velocity": 104}, {"time": 1759, "pitch": 61, "duration": 7, "velocity": 101}, {"time": 1765, "pitch": 52, "duration": 7, "velocity": 85}, {"time": 1771, "pitch": 57, "duration": 8, "velocity": 110}, {"time": 1771, "pitch": 61, "duration": 7, "velocity": 104}, {"time": 1777, "pitch": 52, "duration": 7, "velocity": 87}, {"time": 1783, "pitch": 57, "duration": 8, "velocity": 113}, {"time": 1783, "pitch": 61, "duration": 8, "velocity": 104}, {"time": 1789, "pitch": 52, "duration": 8, "velocity": 91}, {"time": 1795, "pitch": 62, "duration": 1, "velocity": 113}, {"time": 1798, "pitch": 61, "duration": 3, "velocity": 104}, {"time": 1801, "pitch": 59, "duration": 4, "velocity": 96}, {"time": 1804, "pitch": 57, "duration": 3, "velocity": 91}, {"time": 1807, "pitch": 47, "duration": 13, "velocity": 96}, {"time": 1807, "pitch": 54, "duration": 4, "velocity": 96}, {"time": 1807, "pitch": 59, "duration": 8, "velocity": 104}, {"time": 1807, "pitch": 62, "duration": 9, "velocity": 101}, {"time": 1813, "pitch": 54, "duration": 7, "velocity": 91}, {"time": 1819, "pitch": 59, "duration": 6, "velocity": 101}, {"time": 1819, "pitch": 62, "duration": 7, "velocity": 117}, {"time": 1825, "pitch": 54, "duration": 2, "velocity": 104}, {"time": 1831, "pitch": 40, "duration": 13, "velocity": 106}, {"time": 1831, "pitch": 56, "duration": 8, "velocity": 101}, {"time": 1831, "pitch": 59, "duration": 7, "velocity": 99}, {"time": 1831, "pitch": 64, "duration": 8, "velocity": 89}, {"time": 1837, "pitch": 47, "duration": 7, "velocity": 62}, {"time": 1843, "pitch": 56, "duration": 2, "velocity": 104}, {"time": 1843, "pitch": 59, "duration": 6, "velocity": 106}, {"time": 1843, "pitch": 64, "duration": 7, "velocity": 104}, {"time": 1849, "pitch": 56, "duration": 4, "velocity": 101}, {"time": 1855, "pitch": 45, "duration": 14, "velocity": 86}, {"time": 1855, "pitch": 57, "duration": 6, "velocity": 107}, {"time": 1855, "pitch": 61, "duration": 7, "velocity": 99}, {"time": 1861, "pitch": 52, "duration": 6, "velocity": 85}, {"time": 1867, "pitch": 57, "duration": 7, "velocity": 117}, {"time": 1867, "pitch": 61, "duration": 7, "velocity": 104}, {"time": 1873, "pitch": 52, "duration": 2, "velocity": 106}, {"time": 1879, "pitch": 42, "duration": 20, "velocity": 106}, {"time": 1879, "pitch": 57, "duration": 7, "velocity": 104}, {"time": 1879, "pitch": 61, "duration": 8, "velocity": 104}, {"time": 1885, "pitch": 49, "duration": 6, "velocity": 66}, {"time": 1891, "pitch": 57, "duration": 3, "velocity": 120}, {"time": 1891, "pitch": 61, "duration": 4, "velocity": 106}, {"time": 1894, "pitch": 49, "duration": 4, "velocity": 89}, {"time": 1897, "pitch": 56, "duration": 3, "velocity": 106}, {"time": 1900, "pitch": 57, "duration": 1, "velocity": 120}, {"time": 1903, "pitch": 47, "duration": 13, "velocity": 94}, {"time": 1903, "pitch": 54, "duration": 4, "velocity": 104}, {"time": 1903, "pitch": 59, "duration": 5, "velocity": 94}, {"time": 1909, "pitch": 54, "duration": 4, "velocity": 91}, {"time": 1915, "pitch": 59, "duration": 6, "velocity": 109}, {"time": 1915, "pitch": 62, "duration": 6, "velocity": 113}, {"time": 1921, "pitch": 54, "duration": 2, "velocity": 109}, {"time": 1927, "pitch": 40, "duration": 17, "velocity": 104}, {"time": 1927, "pitch": 52, "duration": 12, "velocity": 99}, {"time": 1927, "pitch": 56, "duration": 6, "velocity": 101}, {"time": 1933, "pitch": 47, "duration": 11, "velocity": 56}, {"time": 1939, "pitch": 56, "duration": 6, "velocity": 106}, {"time": 1939, "pitch": 59, "duration": 7, "velocity": 99}, {"time": 1939, "pitch": 64, "duration": 6, "velocity": 99}, {"time": 1945, "pitch": 52, "duration": 4, "velocity": 109}, {"time": 1951, "pitch": 45, "duration": 23, "velocity": 107}, {"time": 1951, "pitch": 52, "duration": 2, "velocity": 80}, {"time": 1951, "pitch": 57, "duration": 8, "velocity": 110}, {"time": 1957, "pitch": 49, "duration": 15, "velocity": 40}, {"time": 1957, "pitch": 52, "duration": 7, "velocity": 104}, {"time": 1963, "pitch": 57, "duration": 6, "velocity": 120}, {"time": 1963, "pitch": 61, "duration": 7, "velocity": 109}, {"time": 1969, "pitch": 52, "duration": 1, "velocity": 109}, {"time": 1975, "pitch": 40, "duration": 16, "velocity": 106}, {"time": 1975, "pitch": 56, "duration": 3, "velocity": 104}, {"time": 1975, "pitch": 59, "duration": 8, "velocity": 99}, {"time": 1975, "pitch": 64, "duration": 8, "velocity": 99}, {"time": 1981, "pitch": 47, "duration": 7, "velocity": 73}, {"time": 1984, "pitch": 56, "duration": 2, "velocity": 96}, {"time": 1987, "pitch": 56, "duration": 3, "velocity": 109}, {"time": 1987, "pitch": 59, "duration": 3, "velocity": 112}, {"time": 1987, "pitch": 64, "duration": 4, "velocity": 106}, {"time": 1990, "pitch": 47, "duration": 3, "velocity": 94}, {"time": 1993, "pitch": 40, "duration": 2, "velocity": 99}, {"time": 1999, "pitch": 38, "duration": 13, "velocity": 113}, {"time": 1999, "pitch": 57, "duration": 7, "velocity": 107}, {"time": 1999, "pitch": 62, "duration": 7, "velocity": 107}, {"time": 2005, "pitch": 54, "duration": 4, "velocity": 76}, {"time": 2011, "pitch": 57, "duration": 7, "velocity": 117}, {"time": 2011, "pitch": 62, "duration": 7, "velocity": 113}, {"time": 2017, "pitch": 54, "duration": 2, "velocity": 101}, {"time": 2023, "pitch": 40, "duration": 20, "velocity": 106}, {"time": 2023, "pitch": 56, "duration": 3, "velocity": 101}, {"time": 2023, "pitch": 59, "duration": 9, "velocity": 101}, {"time": 2023, "pitch": 64, "duration": 7, "velocity": 101}, {"time": 2029, "pitch": 56, "duration": 4, "velocity": 91}, {"time": 2035, "pitch": 56, "duration": 3, "velocity": 109}, {"time": 2035, "pitch": 59, "duration": 10, "velocity": 112}, {"time": 2035, "pitch": 64, "duration": 10, "velocity": 104}, {"time": 2041, "pitch": 56, "duration": 5, "velocity": 99}, {"time": 2047, "pitch": 40, "duration": 5, "velocity": 106}, {"time": 2047, "pitch": 56, "duration": 3, "velocity": 106}, {"time": 2047, "pitch": 59, "duration": 6, "velocity": 106}, {"time": 2047, "pitch": 64, "duration": 7, "velocity": 104}, {"time": 2053, "pitch": 56, "duration": 2, "velocity": 99}, {"time": 2059, "pitch": 38, "duration": 6, "velocity": 107}, {"time": 2059, "pitch": 57, "duration": 6, "velocity": 113}, {"time": 2059, "pitch": 62, "duration": 10, "velocity": 117}, {"time": 2065, "pitch": 54, "duration": 5, "velocity": 109}, {"time": 2071, "pitch": 37, "duration": 14, "velocity": 104}, {"time": 2071, "pitch": 56, "duration": 3, "velocity": 99}, {"time": 2071, "pitch": 59, "duration": 7, "velocity": 94}, {"time": 2071, "pitch": 64, "duration": 8, "velocity": 99}, {"time": 2077, "pitch": 56, "duration": 4, "velocity": 85}, {"time": 2083, "pitch": 56, "duration": 2, "velocity": 109}, {"time": 2083, "pitch": 59, "duration": 5, "velocity": 109}, {"time": 2083, "pitch": 64, "duration": 7, "velocity": 104}, {"time": 2089, "pitch": 56, "duration": 2, "velocity": 106}, {"time": 2095, "pitch": 47, "duration": 18, "velocity": 106}, {"time": 2095, "pitch": 54, "duration": 4, "velocity": 109}, {"time": 2095, "pitch": 59, "duration": 8, "velocity": 109}, {"time": 2101, "pitch": 54, "duration": 7, "velocity": 87}, {"time": 2107, "pitch": 59, "duration": 7, "velocity": 106}, {"time": 2107, "pitch": 62, "duration": 7, "velocity": 117}, {"time": 2113, "pitch": 54, "duration": 2, "velocity": 106}, {"time": 2119, "pitch": 40, "duration": 15, "velocity": 104}, {"time": 2119, "pitch": 52, "duration": 12, "velocity": 104}, {"time": 2119, "pitch": 56, "duration": 6, "velocity": 101}, {"time": 2125, "pitch": 47, "duration": 8, "velocity": 74}, {"time": 2131, "pitch": 56, "duration": 6, "velocity": 104}, {"time": 2131, "pitch": 59, "duration": 7, "velocity": 99}, {"time": 2131, "pitch": 64, "duration": 6, "velocity": 104}, {"time": 2137, "pitch": 52, "duration": 6, "velocity": 112}, {"time": 2143, "pitch": 45, "duration": 22, "velocity": 113}, {"time": 2143, "pitch": 57, "duration": 9, "velocity": 107}, {"time": 2143, "pitch": 61, "duration": 9, "velocity": 104}, {"time": 2149, "pitch": 52, "duration": 7, "velocity": 91}, {"time": 2155, "pitch": 57, "duration": 7, "velocity": 117}, {"time": 2155, "pitch": 61, "duration": 7, "velocity": 106}, {"time": 2161, "pitch": 52, "duration": 7, "velocity": 101}, {"time": 2167, "pitch": 45, "duration": 13, "velocity": 113}, {"time": 2167, "pitch": 57, "duration": 7, "velocity": 107}, {"time": 2167, "pitch": 61, "duration": 8, "velocity": 101}, {"time": 2173, "pitch": 52, "duration": 4, "velocity": 76}, {"time": 2179, "pitch": 52, "duration": 3, "velocity": 112}, {"time": 2179, "pitch": 57, "duration": 3, "velocity": 120}, {"time": 2179, "pitch": 61, "duration": 4, "velocity": 109}, {"time": 2182, "pitch": 45, "duration": 9, "velocity": 110}, {"time": 2185, "pitch": 57, "duration": 5, "velocity": 110}, {"time": 2188, "pitch": 52, "duration": 2, "velocity": 87}, {"time": 2191, "pitch": 45, "duration": 1, "velocity": 77}, {"time": 2191, "pitch": 57, "duration": 13, "velocity": 88}, {"time": 2191, "pitch": 61, "duration": 10, "velocity": 101}, {"time": 2197, "pitch": 52, "duration": 11, "velocity": 50}, {"time": 2203, "pitch": 61, "duration": 7, "velocity": 101}, {"time": 2203, "pitch": 64, "duration": 12, "velocity": 104}, {"time": 2209, "pitch": 57, "duration": 4, "velocity": 99}, {"time": 2215, "pitch": 42, "duration": 16, "velocity": 96}, {"time": 2221, "pitch": 49, "duration": 9, "velocity": 82}, {"time": 2227, "pitch": 57, "duration": 4, "velocity": 99}, {"time": 2227, "pitch": 61, "duration": 5, "velocity": 99}, {"time": 2239, "pitch": 49, "duration": 17, "velocity": 99}, {"time": 2239, "pitch": 56, "duration": 3, "velocity": 94}, {"time": 2239, "pitch": 61, "duration": 18, "velocity": 101}, {"time": 2245, "pitch": 56, "duration": 7, "velocity": 76}, {"time": 2251, "pitch": 64, "duration": 9, "velocity": 99}, {"time": 2257, "pitch": 56, "duration": 2, "velocity": 96}, {"time": 2263, "pitch": 42, "duration": 17, "velocity": 99}, {"time": 2263, "pitch": 57, "duration": 18, "velocity": 79}, {"time": 2263, "pitch": 61, "duration": 18, "velocity": 96}, {"time": 2269, "pitch": 49, "duration": 10, "velocity": 76}, {"time": 2275, "pitch": 66, "duration": 6, "velocity": 106}, {"time": 2281, "pitch": 54, "duration": 4, "velocity": 104}, {"time": 2287, "pitch": 38, "duration": 16, "velocity": 86}, {"time": 2287, "pitch": 54, "duration": 12, "velocity": 85}, {"time": 2287, "pitch": 57, "duration": 18, "velocity": 88}, {"time": 2293, "pitch": 45, "duration": 10, "velocity": 70}, {"time": 2299, "pitch": 62, "duration": 7, "velocity": 117}, {"time": 2305, "pitch": 54, "duration": 2, "velocity": 104}, {"time": 2311, "pitch": 40, "duration": 16, "velocity": 99}, {"time": 2311, "pitch": 52, "duration": 13, "velocity": 99}, {"time": 2311, "pitch": 56, "duration": 10, "velocity": 99}, {"time": 2317, "pitch": 47, "duration": 10, "velocity": 78}, {"time": 2323, "pitch": 56, "duration": 5, "velocity": 106}, {"time": 2323, "pitch": 59, "duration": 7, "velocity": 96}, {"time": 2329, "pitch": 52, "duration": 6, "velocity": 71}, {"time": 2335, "pitch": 45, "duration": 22, "velocity": 72}, {"time": 2335, "pitch": 57, "duration": 13, "velocity": 99}, {"time": 2341, "pitch": 52, "duration": 13, "velocity": 55}, {"time": 2347, "pitch": 61, "duration": 13, "velocity": 112}, {"time": 2353, "pitch": 57, "duration": 4, "velocity": 110}, {"time": 2359, "pitch": 40, "duration": 23, "velocity": 106}, {"time": 2359, "pitch": 52, "duration": 13, "velocity": 94}, {"time": 2359, "pitch": 56, "duration": 16, "velocity": 99}, {"time": 2365, "pitch": 47, "duration": 17, "velocity": 94}, {"time": 2371, "pitch": 64, "duration": 12, "velocity": 112}, {"time": 2374, "pitch": 52, "duration": 4, "velocity": 104}, {"time": 2377, "pitch": 59, "duration": 6, "velocity": 91}, {"time": 2380, "pitch": 52, "duration": 3, "velocity": 94}, {"time": 2383, "pitch": 45, "duration": 18, "velocity": 77}, {"time": 2383, "pitch": 57, "duration": 13, "velocity": 88}, {"time": 2383, "pitch": 61, "duration": 10, "velocity": 101}, {"time": 2389, "pitch": 52, "duration": 11, "velocity": 50}, {"time": 2395, "pitch": 61, "duration": 7, "velocity": 101}, {"time": 2395, "pitch": 64, "duration": 12, "velocity": 104}, {"time": 2401, "pitch": 57, "duration": 4, "velocity": 99}, {"time": 2407, "pitch": 42, "duration": 16, "velocity": 96}, {"time": 2413, "pitch": 49, "duration": 9, "velocity": 82}, {"time": 2419, "pitch": 57, "duration": 4, "velocity": 99}, {"time": 2419, "pitch": 61, "duration": 5, "velocity": 99}, {"time": 2431, "pitch": 49, "duration": 17, "velocity": 99}, {"time": 2431, "pitch": 56, "duration": 3, "velocity": 94}, {"time": 2431, "pitch": 61, "duration": 18, "velocity": 101}, {"time": 2437, "pitch": 56, "duration": 7, "velocity": 76}, {"time": 2443, "pitch": 64, "duration": 9, "velocity": 99}, {"time": 2449, "pitch": 56, "duration": 2, "velocity": 96}, {"time": 2455, "pitch": 42, "duration": 17, "velocity": 99}, {"time": 2455, "pitch": 57, "duration": 18, "velocity": 79}, {"time": 2455, "pitch": 61, "duration": 18, "velocity": 96}, {"time": 2461, "pitch": 49, "duration": 10, "velocity": 76}, {"time": 2467, "pitch": 66, "duration": 6, "velocity": 106}, {"time": 2473, "pitch": 54, "duration": 4, "velocity": 104}, {"time": 2479, "pitch": 38, "duration": 16, "velocity": 86}, {"time": 2479, "pitch": 54, "duration": 12, "velocity": 85}, {"time": 2479, "pitch": 57, "duration": 18, "velocity": 88}, {"time": 2485, "pitch": 45, "duration": 10, "velocity": 70}, {"time": 2491, "pitch": 62, "duration": 7, "velocity": 117}, {"time": 2497, "pitch": 54, "duration": 2, "velocity": 104}, {"time": 2503, "pitch": 40, "duration": 16, "velocity": 99}, {"time": 2503, "pitch": 52, "duration": 13, "velocity": 99}, {"time": 2503, "pitch": 56, "duration": 10, "velocity": 99}, {"time": 2509, "pitch": 47, "duration": 10, "velocity": 78}, {"time": 2515, "pitch": 56, "duration": 5, "velocity": 106}, {"time": 2515, "pitch": 59, "duration": 7, "velocity": 96}, {"time": 2521, "pitch": 52, "duration": 6, "velocity": 71}, {"time": 2527, "pitch": 45, "duration": 16, "velocity": 117}, {"time": 2527, "pitch": 57, "duration": 7, "velocity": 99}, {"time": 2527, "pitch": 61, "duration": 9, "velocity": 109}, {"time": 2533, "pitch": 52, "duration": 8, "velocity": 62}, {"time": 2536, "pitch": 57, "duration": 2, "velocity": 110}, {"time": 2539, "pitch": 57, "duration": 5, "velocity": 117}, {"time": 2539, "pitch": 61, "duration": 5, "velocity": 115}, {"time": 2539, "pitch": 64, "duration": 5, "velocity": 112}, {"time": 2548, "pitch": 57, "duration": 2, "velocity": 110}, {"time": 2551, "pitch": 45, "duration": 23, "velocity": 120}, {"time": 2551, "pitch": 57, "duration": 7, "velocity": 117}, {"time": 2551, "pitch": 61, "duration": 6, "velocity": 112}, {"time": 2557, "pitch": 52, "duration": 6, "velocity": 80}, {"time": 2560, "pitch": 57, "duration": 1, "velocity": 110}, {"time": 2560, "pitch": 61, "duration": 2, "velocity": 109}, {"time": 2560, "pitch": 64, "duration": 2, "velocity": 104}, {"time": 2563, "pitch": 57, "duration": 3, "velocity": 120}, {"time": 2563, "pitch": 61, "duration": 3, "velocity": 118}, {"time": 2563, "pitch": 64, "duration": 4, "velocity": 115}, {"time": 2566, "pitch": 52, "duration": 8, "velocity": 106}, {"time": 2569, "pitch": 62, "duration": 3, "velocity": 114}, {"time": 2572, "pitch": 61, "duration": 3, "velocity": 112}, {"time": 2575, "pitch": 47, "duration": 13, "velocity": 96}, {"time": 2575, "pitch": 54, "duration": 4, "velocity": 96}, {"time": 2575, "pitch": 59, "duration": 8, "velocity": 104}, {"time": 2575, "pitch": 62, "duration": 9, "velocity": 101}, {"time": 2581, "pitch": 54, "duration": 7, "velocity": 91}, {"time": 2587, "pitch": 59, "duration": 6, "velocity": 101}, {"time": 2587, "pitch": 62, "duration": 7, "velocity": 117}, {"time": 2593, "pitch": 54, "duration": 2, "velocity": 104}, {"time": 2599, "pitch": 40, "duration": 13, "velocity": 106}, {"time": 2599, "pitch": 56, "duration": 8, "velocity": 101}, {"time": 2599, "pitch": 59, "duration": 7, "velocity": 99}, {"time": 2599, "pitch": 64, "duration": 8, "velocity": 89}, {"time": 2605, "pitch": 47, "duration": 7, "velocity": 62}, {"time": 2611, "pitch": 56, "duration": 2, "velocity": 104}, {"time": 2611, "pitch": 59, "duration": 6, "velocity": 106}, {"time": 2611, "pitch": 64, "duration": 7, "velocity": 104}, {"time": 2617, "pitch": 56, "duration": 4, "velocity": 101}, {"time": 2623, "pitch": 45, "duration": 14, "velocity": 86}, {"time": 2623, "pitch": 57, "duration": 6, "velocity": 107}, {"time": 2623, "pitch": 61, "duration": 7, "velocity": 99}, {"time": 2629, "pitch": 52, "duration": 6, "velocity": 85}, {"time": 2635, "pitch": 57, "duration": 7, "velocity": 117}, {"time": 2635, "pitch": 61, "duration": 7, "velocity": 104}, {"time": 2641, "pitch": 52, "duration": 2, "velocity": 106}, {"time": 2647, "pitch": 42, "duration": 20, "velocity": 106}, {"time": 2647, "pitch": 57, "duration": 7, "velocity": 104}, {"time": 2647, "pitch": 61, "duration": 8, "velocity": 104}, {"time": 2653, "pitch": 49, "duration": 6, "velocity": 66}, {"time": 2659, "pitch": 57, "duration": 3, "velocity": 120}, {"time": 2659, "pitch": 61, "duration": 4, "velocity": 106}, {"time": 2662, "pitch": 49, "duration": 4, "velocity": 89}, {"time": 2665, "pitch": 56, "duration": 3, "velocity": 106}, {"time": 2668, "pitch": 57, "duration": 1, "velocity": 120}, {"time": 2671, "pitch": 47, "duration": 13, "velocity": 94}, {"time": 2671, "pitch": 54, "duration": 4, "velocity": 104}, {"time": 2671, "pitch": 59, "duration": 5, "velocity": 94}, {"time": 2677, "pitch": 54, "duration": 4, "velocity": 91}, {"time": 2683, "pitch": 59, "duration": 6, "velocity": 109}, {"time": 2683, "pitch": 62, "duration": 6, "velocity": 113}, {"time": 2689, "pitch": 54, "duration": 2, "velocity": 109}, {"time": 2695, "pitch": 40, "duration": 17, "velocity": 104}, {"time": 2695, "pitch": 52, "duration": 12, "velocity": 99}, {"time": 2695, "pitch": 56, "duration": 6, "velocity": 101}, {"time": 2701, "pitch": 47, "duration": 11, "velocity": 56}, {"time": 2707, "pitch": 56, "duration": 6, "velocity": 106}, {"time": 2707, "pitch": 59, "duration": 7, "velocity": 99}, {"time": 2707, "pitch": 64, "duration": 6, "velocity": 99}, {"time": 2713, "pitch": 52, "duration": 4, "velocity": 109}, {"time": 2719, "pitch": 45, "duration": 23, "velocity": 107}, {"time": 2719, "pitch": 52, "duration": 2, "velocity": 80}, {"time": 2719, "pitch": 57, "duration": 8, "velocity": 110}, {"time": 2725, "pitch": 49, "duration": 15, "velocity": 40}, {"time": 2725, "pitch": 52, "duration": 7, "velocity": 104}, {"time": 2731, "pitch": 57, "duration": 6, "velocity": 120}, {"time": 2731, "pitch": 61, "duration": 7, "velocity": 109}, {"time": 2737, "pitch": 52, "duration": 1, "velocity": 109}, {"time": 2743, "pitch": 40, "duration": 16, "velocity": 106}, {"time": 2743, "pitch": 56, "duration": 3, "velocity": 104}, {"time": 2743, "pitch": 59, "duration": 8, "velocity": 99}, {"time": 2743, "pitch": 64, "duration": 8, "velocity": 99}, {"time": 2749, "pitch": 47, "duration": 7, "velocity": 73}, {"time": 2752, "pitch": 56, "duration": 2, "velocity": 96}, {"time": 2755, "pitch": 56, "duration": 3, "velocity": 109}, {"time": 2755, "pitch": 59, "duration": 3, "velocity": 112}, {"time": 2755, "pitch": 64, "duration": 4, "velocity": 106}, {"time": 2758, "pitch": 47, "duration": 3, "velocity": 94}, {"time": 2761, "pitch": 40, "duration": 2, "velocity": 99}, {"time": 2767, "pitch": 38, "duration": 13, "velocity": 113}, {"time": 2767, "pitch": 57, "duration": 7, "velocity": 107}, {"time": 2767, "pitch": 62, "duration": 7, "velocity": 107}, {"time": 2773, "pitch": 54, "duration": 4, "velocity": 76}, {"time": 2779, "pitch": 57, "duration": 7, "velocity": 117}, {"time": 2779, "pitch": 62, "duration": 7, "velocity": 113}, {"time": 2785, "pitch": 54, "duration": 2, "velocity": 101}, {"time": 2791, "pitch": 40, "duration": 20, "velocity": 106}, {"time": 2791, "pitch": 56, "duration": 3, "velocity": 101}, {"time": 2791, "pitch": 59, "duration": 9, "velocity": 101}, {"time": 2791, "pitch": 64, "duration": 7, "velocity": 101}, {"time": 2797, "pitch": 56, "duration": 4, "velocity": 91}, {"time": 2803, "pitch": 56, "duration": 3, "velocity": 109}, {"time": 2803, "pitch": 59, "duration": 10, "velocity": 112}, {"time": 2803, "pitch": 64, "duration": 10, "velocity": 104}, {"time": 2809, "pitch": 56, "duration": 5, "velocity": 99}, {"time": 2815, "pitch": 40, "duration": 5, "velocity": 106}, {"time": 2815, "pitch": 56, "duration": 3, "velocity": 106}, {"time": 2815, "pitch": 59, "duration": 6, "velocity": 106}, {"time": 2815, "pitch": 64, "duration": 7, "velocity": 104}, {"time": 2821, "pitch": 56, "duration": 2, "velocity": 99}, {"time": 2827, "pitch": 38, "duration": 6, "velocity": 107}, {"time": 2827, "pitch": 57, "duration": 6, "velocity": 113}, {"time": 2827, "pitch": 62, "duration": 10, "velocity": 117}, {"time": 2833, "pitch": 54, "duration": 5, "velocity": 109}, {"time": 2839, "pitch": 37, "duration": 14, "velocity": 104}, {"time": 2839, "pitch": 56, "duration": 3, "velocity": 99}, {"time": 2839, "pitch": 59, "duration": 7, "velocity": 94}, {"time": 2839, "pitch": 64, "duration": 8, "velocity": 99}, {"time": 2845, "pitch": 56, "duration": 4, "velocity": 85}, {"time": 2851, "pitch": 56, "duration": 2, "velocity": 109}, {"time": 2851, "pitch": 59, "duration": 5, "velocity": 109}, {"time": 2851, "pitch": 64, "duration": 7, "velocity": 104}, {"time": 2857, "pitch": 56, "duration": 2, "velocity": 106}, {"time": 2863, "pitch": 47, "duration": 18, "velocity": 106}, {"time": 2863, "pitch": 54, "duration": 4, "velocity": 109}, {"time": 2863, "pitch": 59, "duration": 8, "velocity": 109}, {"time": 2869, "pitch": 54, "duration": 7, "velocity": 87}, {"time": 2875, "pitch": 59, "duration": 7, "velocity": 106}, {"time": 2875, "pitch": 62, "duration": 7, "velocity": 117}, {"time": 2881, "pitch": 54, "duration": 2, "velocity": 106}, {"time": 2887, "pitch": 40, "duration": 15, "velocity": 104}, {"time": 2887, "pitch": 52, "duration": 12, "velocity": 104}, {"time": 2887, "pitch": 56, "duration": 6, "velocity": 101}, {"time": 2893, "pitch": 47, "duration": 8, "velocity": 74}, {"time": 2899, "pitch": 56, "duration": 6, "velocity": 104}, {"time": 2899, "pitch": 59, "duration": 7, "velocity": 99}, {"time": 2899, "pitch": 64, "duration": 6, "velocity": 104}, {"time": 2905, "pitch": 52, "duration": 6, "velocity": 112}, {"time": 2911, "pitch": 45, "duration": 22, "velocity": 113}, {"time": 2911, "pitch": 57, "duration": 9, "velocity": 107}, {"time": 2911, "pitch": 61, "duration": 9, "velocity": 104}, {"time": 2917, "pitch": 52, "duration": 7, "velocity": 91}, {"time": 2923, "pitch": 57, "duration": 7, "velocity": 117}, {"time": 2923, "pitch": 61, "duration": 7, "velocity": 106}, {"time": 2929, "pitch": 52, "duration": 7, "velocity": 101}, {"time": 2935, "pitch": 45, "duration": 13, "velocity": 113}, {"time": 2935, "pitch": 57, "duration": 7, "velocity": 107}, {"time": 2935, "pitch": 61, "duration": 8, "velocity": 101}, {"time": 2941, "pitch": 52, "duration": 4, "velocity": 76}, {"time": 2947, "pitch": 52, "duration": 3, "velocity": 112}, {"time": 2947, "pitch": 57, "duration": 3, "velocity": 120}, {"time": 2947, "pitch": 61, "duration": 4, "velocity": 109}, {"time": 2950, "pitch": 45, "duration": 9, "velocity": 110}, {"time": 2953, "pitch": 57, "duration": 5, "velocity": 110}, {"time": 2956, "pitch": 52, "duration": 2, "velocity": 87}, {"time": 2959, "pitch": 47, "duration": 13, "velocity": 96}, {"time": 2959, "pitch": 54, "duration": 4, "velocity": 96}, {"time": 2959, "pitch": 59, "duration": 8, "velocity": 104}, {"time": 2959, "pitch": 62, "duration": 9, "velocity": 101}, {"time": 2965, "pitch": 54, "duration": 7, "velocity": 91}, {"time": 2971, "pitch": 59, "duration": 6, "velocity": 101}, {"time": 2971, "pitch": 62, "duration": 7, "velocity": 117}, {"time": 2977, "pitch": 54, "duration": 2, "velocity": 104}, {"time": 2983, "pitch": 40, "duration": 13, "velocity": 106}, {"time": 2983, "pitch": 56, "duration": 8, "velocity": 101}, {"time": 2983, "pitch": 59, "duration": 7, "velocity": 99}, {"time": 2983, "pitch": 64, "duration": 8, "velocity": 89}, {"time": 2989, "pitch": 47, "duration": 7, "velocity": 62}, {"time": 2995, "pitch": 56, "duration": 2, "velocity": 104}, {"time": 2995, "pitch": 59, "duration": 6, "velocity": 106}, {"time": 2995, "pitch": 64, "duration": 7, "velocity": 104}, {"time": 3001, "pitch": 56, "duration": 4, "velocity": 101}, {"time": 3007, "pitch": 45, "duration": 14, "velocity": 86}, {"time": 3007, "pitch": 57, "duration": 6, "velocity": 107}, {"time": 3007, "pitch": 61, "duration": 7, "velocity": 99}, {"time": 3013, "pitch": 52, "duration": 6, "velocity": 85}, {"time": 3019, "pitch": 57, "duration": 7, "velocity": 117}, {"time": 3019, "pitch": 61, "duration": 7, "velocity": 104}, {"time": 3025, "pitch": 52, "duration": 2, "velocity": 106}, {"time": 3031, "pitch": 42, "duration": 20, "velocity": 106}, {"time": 3031, "pitch": 57, "duration": 7, "velocity": 104}, {"time": 3031, "pitch": 61, "duration": 8, "velocity": 104}, {"time": 3037, "pitch": 49, "duration": 6, "velocity": 66}, {"time": 3043, "pitch": 57, "duration": 3, "velocity": 120}, {"time": 3043, "pitch": 61, "duration": 4, "velocity": 106}, {"time": 3046, "pitch": 49, "duration": 4, "velocity": 89}, {"time": 3049, "pitch": 56, "duration": 3, "velocity": 106}, {"time": 3052, "pitch": 57, "duration": 1, "velocity": 120}, {"time": 3055, "pitch": 47, "duration": 13, "velocity": 94}, {"time": 3055, "pitch": 54, "duration": 4, "velocity": 104}, {"time": 3055, "pitch": 59, "duration": 5, "velocity": 94}, {"time": 3061, "pitch": 54, "duration": 4, "velocity": 91}, {"time": 3067, "pitch": 59, "duration": 6, "velocity": 109}, {"time": 3067, "pitch": 62, "duration": 6, "velocity": 113}, {"time": 3073, "pitch": 54, "duration": 2, "velocity": 109}, {"time": 3079, "pitch": 40, "duration": 17, "velocity": 104}, {"time": 3079, "pitch": 52, "duration": 12, "velocity": 99}, {"time": 3079, "pitch": 56, "duration": 6, "velocity": 101}, {"time": 3085, "pitch": 47, "duration": 11, "velocity": 56}, {"time": 3091, "pitch": 56, "duration": 6, "velocity": 106}, {"time": 3091, "pitch": 59, "duration": 7, "velocity": 99}, {"time": 3091, "pitch": 64, "duration": 6, "velocity": 99}, {"time": 3097, "pitch": 52, "duration": 4, "velocity": 109}, {"time": 3103, "pitch": 45, "duration": 23, "velocity": 107}, {"time": 3103, "pitch": 52, "duration": 2, "velocity": 80}, {"time": 3103, "pitch": 57, "duration": 8, "velocity": 110}, {"time": 3109, "pitch": 49, "duration": 15, "velocity": 40}, {"time": 3109, "pitch": 52, "duration": 7, "velocity": 104}, {"time": 3115, "pitch": 57, "duration": 6, "velocity": 120}, {"time": 3115, "pitch": 61, "duration": 7, "velocity": 109}, {"time": 3121, "pitch": 52, "duration": 1, "velocity": 109}, {"time": 3127, "pitch": 40, "duration": 16, "velocity": 106}, {"time": 3127, "pitch": 56, "duration": 3, "velocity": 104}, {"time": 3127, "pitch": 59, "duration": 8, "velocity": 99}, {"time": 3127, "pitch": 64, "duration": 8, "velocity": 99}, {"time": 3133, "pitch": 47, "duration": 7, "velocity": 73}, {"time": 3136, "pitch": 56, "duration": 2, "velocity": 96}, {"time": 3139, "pitch": 56, "duration": 3, "velocity": 109}, {"time": 3139, "pitch": 59, "duration": 3, "velocity": 112}, {"time": 3139, "pitch": 64, "duration": 4, "velocity": 106}, {"time": 3142, "pitch": 47, "duration": 3, "velocity": 94}, {"time": 3145, "pitch": 40, "duration": 2, "velocity": 99}, {"time": 3151, "pitch": 38, "duration": 13, "velocity": 113}, {"time": 3151, "pitch": 57, "duration": 7, "velocity": 107}, {"time": 3151, "pitch": 62, "duration": 7, "velocity": 107}, {"time": 3157, "pitch": 54, "duration": 4, "velocity": 76}, {"time": 3163, "pitch": 57, "duration": 7, "velocity": 117}, {"time": 3163, "pitch": 62, "duration": 7, "velocity": 113}, {"time": 3169, "pitch": 54, "duration": 2, "velocity": 101}, {"time": 3175, "pitch": 40, "duration": 20, "velocity": 106}, {"time": 3175, "pitch": 56, "duration": 3, "velocity": 101}, {"time": 3175, "pitch": 59, "duration": 9, "velocity": 101}, {"time": 3175, "pitch": 64, "duration": 7, "velocity": 101}, {"time": 3181, "pitch": 56, "duration": 4, "velocity": 91}, {"time": 3187, "pitch": 56, "duration": 3, "velocity": 109}, {"time": 3187, "pitch": 59, "duration": 10, "velocity": 112}, {"time": 3187, "pitch": 64, "duration": 10, "velocity": 104}, {"time": 3193, "pitch": 56, "duration": 5, "velocity": 99}, {"time": 3199, "pitch": 40, "duration": 5, "velocity": 106}, {"time": 3199, "pitch": 56, "duration": 3, "velocity": 106}, {"time": 3199, "pitch": 59, "duration": 6, "velocity": 106}, {"time": 3199, "pitch": 64, "duration": 7, "velocity": 104}, {"time": 3205, "pitch": 56, "duration": 2, "velocity": 99}, {"time": 3211, "pitch": 38, "duration": 6, "velocity": 107}, {"time": 3211, "pitch": 57, "duration": 6, "velocity": 113}, {"time": 3211, "pitch": 62, "duration": 10, "velocity": 117}, {"time": 3217, "pitch": 54, "duration": 5, "velocity": 109}, {"time": 3223, "pitch": 37, "duration": 14, "velocity": 104}, {"time": 3223, "pitch": 56, "duration": 3, "velocity": 99}, {"time": 3223, "pitch": 59, "duration": 7, "velocity": 94}, {"time": 3223, "pitch": 64, "duration": 8, "velocity": 99}, {"time": 3229, "pitch": 56, "duration": 4, "velocity": 85}, {"time": 3235, "pitch": 56, "duration": 2, "velocity": 109}, {"time": 3235, "pitch": 59, "duration": 5, "velocity": 109}, {"time": 3235, "pitch": 64, "duration": 7, "velocity": 104}, {"time": 3241, "pitch": 56, "duration": 2, "velocity": 106}, {"time": 3247, "pitch": 47, "duration": 18, "velocity": 106}, {"time": 3247, "pitch": 54, "duration": 4, "velocity": 109}, {"time": 3247, "pitch": 59, "duration": 8, "velocity": 109}, {"time": 3253, "pitch": 54, "duration": 7, "velocity": 87}, {"time": 3259, "pitch": 59, "duration": 7, "velocity": 106}, {"time": 3259, "pitch": 62, "duration": 7, "velocity": 117}, {"time": 3265, "pitch": 54, "duration": 2, "velocity": 106}, {"time": 3271, "pitch": 40, "duration": 20, "velocity": 109}, {"time": 3271, "pitch": 52, "duration": 3, "velocity": 109}, {"time": 3271, "pitch": 56, "duration": 5, "velocity": 112}, {"time": 3274, "pitch": 47, "duration": 10, "velocity": 85}, {"time": 3277, "pitch": 52, "duration": 4, "velocity": 115}, {"time": 3280, "pitch": 59, "duration": 2, "velocity": 106}, {"time": 3283, "pitch": 52, "duration": 4, "velocity": 112}, {"time": 3283, "pitch": 56, "duration": 4, "velocity": 118}, {"time": 3283, "pitch": 59, "duration": 4, "velocity": 112}, {"time": 3283, "pitch": 64, "duration": 4, "velocity": 115}, {"time": 3286, "pitch": 47, "duration": 4, "velocity": 106}, {"time": 3289, "pitch": 52, "duration": 2, "velocity": 99}, {"time": 3289, "pitch": 56, "duration": 6, "velocity": 106}, {"time": 3289, "pitch": 59, "duration": 7, "velocity": 99}, {"time": 3292, "pitch": 52, "duration": 4, "velocity": 112}, {"time": 3295, "pitch": 38, "duration": 1, "velocity": 107}, {"time": 3295, "pitch": 57, "duration": 9, "velocity": 113}, {"time": 3295, "pitch": 62, "duration": 10, "velocity": 110}, {"time": 3301, "pitch": 50, "duration": 9, "velocity": 50}, {"time": 3304, "pitch": 54, "duration": 4, "velocity": 94}, {"time": 3307, "pitch": 57, "duration": 4, "velocity": 117}, {"time": 3310, "pitch": 62, "duration": 5, "velocity": 120}, {"time": 3313, "pitch": 54, "duration": 3, "velocity": 106}, {"time": 3319, "pitch": 40, "duration": 1, "velocity": 109}, {"time": 3319, "pitch": 52, "duration": 3, "velocity": 106}, {"time": 3319, "pitch": 56, "duration": 3, "velocity": 112}, {"time": 3325, "pitch": 52, "duration": 6, "velocity": 2}, {"time": 3328, "pitch": 59, "duration": 5, "velocity": 91}, {"time": 3331, "pitch": 64, "duration": 3, "velocity": 115}, {"time": 3334, "pitch": 68, "duration": 3, "velocity": 106}, {"time": 3337, "pitch": 64, "duration": 2, "velocity": 112}, {"time": 3343, "pitch": 45, "duration": 18, "velocity": 77}, {"time": 3343, "pitch": 57, "duration": 13, "velocity": 88}, {"time": 3343, "pitch": 61, "duration": 10, "velocity": 101}, {"time": 3349, "pitch": 52, "duration": 11, "velocity": 50}, {"time": 3355, "pitch": 61, "duration": 7, "velocity": 101}, {"time": 3355, "pitch": 64, "duration": 12, "velocity": 104}, {"time": 3361, "pitch": 57, "duration": 4, "velocity": 99}, {"time": 3367, "pitch": 42, "duration": 16, "velocity": 96}, {"time": 3373, "pitch": 49, "duration": 9, "velocity": 82}, {"time": 3379, "pitch": 57, "duration": 4, "velocity": 99}, {"time": 3379, "pitch": 61, "duration": 5, "velocity": 99}, {"time": 3391, "pitch": 49, "duration": 17, "velocity": 99}, {"time": 3391, "pitch": 56, "duration": 3, "velocity": 94}, {"time": 3391, "pitch": 61, "duration": 18, "velocity": 101}, {"time": 3397, "pitch": 56, "duration": 7, "velocity": 76}, {"time": 3403, "pitch": 64, "duration": 9, "velocity": 99}, {"time": 3409, "pitch": 56, "duration": 2, "velocity": 96}, {"time": 3415, "pitch": 42, "duration": 17, "velocity": 99}, {"time": 3415, "pitch": 57, "duration": 18, "velocity": 79}, {"time": 3415, "pitch": 61, "duration": 18, "velocity": 96}, {"time": 3421, "pitch": 49, "duration": 10, "velocity": 76}, {"time": 3427, "pitch": 66, "duration": 6, "velocity": 106}, {"time": 3433, "pitch": 54, "duration": 4, "velocity": 104}, {"time": 3439, "pitch": 38, "duration": 16, "velocity": 86}, {"time": 3439, "pitch": 54, "duration": 12, "velocity": 85}, {"time": 3439, "pitch": 57, "duration": 18, "velocity": 88}, {"time": 3445, "pitch": 45, "duration": 10, "velocity": 70}, {"time": 3451, "pitch": 62, "duration": 7, "velocity": 117}, {"time": 3457, "pitch": 54, "duration": 2, "velocity": 104}, {"time": 3463, "pitch": 40, "duration": 16, "velocity": 99}, {"time": 3463, "pitch": 52, "duration": 13, "velocity": 99}, {"time": 3463, "pitch": 56, "duration": 10, "velocity": 99}, {"time": 3469, "pitch": 47, "duration": 10, "velocity": 78}, {"time": 3475, "pitch": 56, "duration": 5, "velocity": 106}, {"time": 3475, "pitch": 59, "duration": 7, "velocity": 96}, {"time": 3481, "pitch": 52, "duration": 6, "velocity": 71}, {"time": 3487, "pitch": 45, "duration": 22, "velocity": 72}, {"time": 3487, "pitch": 57, "duration": 13, "velocity": 99}, {"time": 3493, "pitch": 52, "duration": 13, "velocity": 55}, {"time": 3499, "pitch": 61, "duration": 13, "velocity": 112}, {"time": 3505, "pitch": 57, "duration": 4, "velocity": 110}, {"time": 3511, "pitch": 40, "duration": 23, "velocity": 106}, {"time": 3511, "pitch": 52, "duration": 13, "velocity": 94}, {"time": 3511, "pitch": 56, "duration": 16, "velocity": 99}, {"time": 3517, "pitch": 47, "duration": 17, "velocity": 94}, {"time": 3523, "pitch": 64, "duration": 12, "velocity": 112}, {"time": 3526, "pitch": 52, "duration": 4, "velocity": 104}, {"time": 3529, "pitch": 59, "duration": 6, "velocity": 91}, {"time": 3532, "pitch": 52, "duration": 3, "velocity": 94}, {"time": 3535, "pitch": 45, "duration": 18, "velocity": 77}, {"time": 3535, "pitch": 57, "duration": 13, "velocity": 88}, {"time": 3535, "pitch": 61, "duration": 10, "velocity": 101}, {"time": 3541, "pitch": 52, "duration": 11, "velocity": 50}, {"time": 3547, "pitch": 61, "duration": 7, "velocity": 101}, {"time": 3547, "pitch": 64, "duration": 12, "velocity": 104}, {"time": 3553, "pitch": 57, "duration": 4, "velocity": 99}, {"time": 3559, "pitch": 42, "duration": 16, "velocity": 96}, {"time": 3565, "pitch": 49, "duration": 9, "velocity": 82}, {"time": 3571, "pitch": 57, "duration": 4, "velocity": 99}, {"time": 3571, "pitch": 61, "duration": 5, "velocity": 99}, {"time": 3583, "pitch": 49, "duration": 17, "velocity": 99}, {"time": 3583, "pitch": 56, "duration": 3, "velocity": 94}, {"time": 3583, "pitch": 61, "duration": 18, "velocity": 101}, {"time": 3589, "pitch": 56, "duration": 7, "velocity": 76}, {"time": 3595, "pitch": 64, "duration": 9, "velocity": 99}, {"time": 3601, "pitch": 56, "duration": 2, "velocity": 96}, {"time": 3607, "pitch": 42, "duration": 17, "velocity": 99}, {"time": 3607, "pitch": 57, "duration": 18, "velocity": 79}, {"time": 3607, "pitch": 61, "duration": 18, "velocity": 96}, {"time": 3613, "pitch": 49, "duration": 10, "velocity": 76}, {"time": 3619, "pitch": 66, "duration": 6, "velocity": 106}, {"time": 3625, "pitch": 54, "duration": 4, "velocity": 104}, {"time": 3631, "pitch": 38, "duration": 16, "velocity": 86}, {"time": 3631, "pitch": 54, "duration": 12, "velocity": 85}, {"time": 3631, "pitch": 57, "duration": 18, "velocity": 88}, {"time": 3637, "pitch": 45, "duration": 10, "velocity": 70}, {"time": 3643, "pitch": 62, "duration": 7, "velocity": 117}, {"time": 3649, "pitch": 54, "duration": 2, "velocity": 104}, {"time": 3655, "pitch": 40, "duration": 16, "velocity": 99}, {"time": 3655, "pitch": 52, "duration": 13, "velocity": 99}, {"time": 3655, "pitch": 56, "duration": 10, "velocity": 99}, {"time": 3661, "pitch": 47, "duration": 10, "velocity": 78}, {"time": 3667, "pitch": 56, "duration": 5, "velocity": 106}, {"time": 3667, "pitch": 59, "duration": 7, "velocity": 96}, {"time": 3673, "pitch": 52, "duration": 6, "velocity": 71}, {"time": 3679, "pitch": 45, "duration": 16, "velocity": 117}, {"time": 3679, "pitch": 57, "duration": 7, "velocity": 99}, {"time": 3679, "pitch": 61, "duration": 9, "velocity": 109}, {"time": 3685, "pitch": 52, "duration": 8, "velocity": 62}, {"time": 3688, "pitch": 57, "duration": 2, "velocity": 110}, {"time": 3691, "pitch": 57, "duration": 5, "velocity": 117}, {"time": 3691, "pitch": 61, "duration": 5, "velocity": 115}, {"time": 3691, "pitch": 64, "duration": 5, "velocity": 112}, {"time": 3700, "pitch": 57, "duration": 2, "velocity": 110}, {"time": 3703, "pitch": 43, "duration": 14, "velocity": 117}, {"time": 3703, "pitch": 55, "duration": 7, "velocity": 117}, {"time": 3703, "pitch": 59, "duration": 5, "velocity": 106}, {"time": 3703, "pitch": 62, "duration": 6, "velocity": 117}, {"time": 3709, "pitch": 50, "duration": 7, "velocity": 93}, {"time": 3712, "pitch": 55, "duration": 1, "velocity": 101}, {"time": 3712, "pitch": 62, "duration": 2, "velocity": 99}, {"time": 3712, "pitch": 67, "duration": 2, "velocity": 99}, {"time": 3715, "pitch": 55, "duration": 4, "velocity": 120}, {"time": 3715, "pitch": 59, "duration": 4, "velocity": 112}, {"time": 3715, "pitch": 62, "duration": 5, "velocity": 117}, {"time": 3715, "pitch": 67, "duration": 7, "velocity": 117}, {"time": 3718, "pitch": 50, "duration": 8, "velocity": 120}, {"time": 3721, "pitch": 55, "duration": 6, "velocity": 120}, {"time": 3724, "pitch": 59, "duration": 4, "velocity": 94}, {"time": 3724, "pitch": 62, "duration": 3, "velocity": 72}, {"time": 3727, "pitch": 48, "duration": 18, "velocity": 77}, {"time": 3727, "pitch": 60, "duration": 13, "velocity": 88}, {"time": 3727, "pitch": 64, "duration": 10, "velocity": 101}, {"time": 3733, "pitch": 55, "duration": 11, "velocity": 50}, {"time": 3739, "pitch": 64, "duration": 7, "velocity": 101}, {"time": 3739, "pitch": 67, "duration": 12, "velocity": 104}, {"time": 3745, "pitch": 60, "duration": 4, "velocity": 99}, {"time": 3751, "pitch": 45, "duration": 16, "velocity": 96}, {"time": 3757, "pitch": 52, "duration": 9, "velocity": 82}, {"time": 3763, "pitch": 60, "duration": 4, "velocity": 99}, {"time": 3763, "pitch": 64, "duration": 5, "velocity": 99}, {"time": 3775, "pitch": 52, "duration": 17, "velocity": 99}, {"time": 3775, "pitch": 59, "duration": 3, "velocity": 94}, {"time": 3775, "pitch": 64, "duration": 18, "velocity": 101}, {"time": 3781, "pitch": 59, "duration": 7, "velocity": 76}, {"time": 3787, "pitch": 67, "duration": 9, "velocity": 99}, {"time": 3793, "pitch": 59, "duration": 2, "velocity": 96}, {"time": 3799, "pitch": 45, "duration": 17, "velocity": 99}, {"time": 3799, "pitch": 60, "duration": 18, "velocity": 79}, {"time": 3799, "pitch": 64, "duration": 18, "velocity": 96}, {"time": 3805, "pitch": 52, "duration": 10, "velocity": 76}, {"time": 3811, "pitch": 69, "duration": 6, "velocity": 106}, {"time": 3817, "pitch": 57, "duration": 4, "velocity": 104}, {"time": 3823, "pitch": 41, "duration": 16, "velocity": 86}, {"time": 3823, "pitch": 57, "duration": 12, "velocity": 85}, {"time": 3823, "pitch": 60, "duration": 18, "velocity": 88}, {"time": 3829, "pitch": 48, "duration": 10, "velocity": 70}, {"time": 3835, "pitch": 65, "duration": 7, "velocity": 117}, {"time": 3841, "pitch": 57, "duration": 2, "velocity": 104}, {"time": 3847, "pitch": 43, "duration": 16, "velocity": 99}, {"time": 3847, "pitch": 55, "duration": 13, "velocity": 99}, {"time": 3847, "pitch": 59, "duration": 10, "velocity": 99}, {"time": 3853, "pitch": 50, "duration": 10, "velocity": 78}, {"time": 3859, "pitch": 59, "duration": 5, "velocity": 106}, {"time": 3859, "pitch": 62, "duration": 7, "velocity": 96}, {"time": 3865, "pitch": 55, "duration": 6, "velocity": 71}, {"time": 3871, "pitch": 48, "duration": 16, "velocity": 117}, {"time": 3871, "pitch": 60, "duration": 7, "velocity": 99}, {"time": 3871, "pitch": 64, "duration": 9, "velocity": 109}, {"time": 3877, "pitch": 55, "duration": 8, "velocity": 62}, {"time": 3880, "pitch": 60, "duration": 2, "velocity": 110}, {"time": 3883, "pitch": 60, "duration": 5, "velocity": 117}, {"time": 3883, "pitch": 64, "duration": 5, "velocity": 115}, {"time": 3883, "pitch": 67, "duration": 5, "velocity": 112}, {"time": 3892, "pitch": 60, "duration": 2, "velocity": 110}, {"time": 3895, "pitch": 48, "duration": 23, "velocity": 120}, {"time": 3895, "pitch": 60, "duration": 7, "velocity": 117}, {"time": 3895, "pitch": 64, "duration": 6, "velocity": 112}, {"time": 3901, "pitch": 55, "duration": 6, "velocity": 80}, {"time": 3904, "pitch": 60, "duration": 1, "velocity": 110}, {"time": 3904, "pitch": 64, "duration": 2, "velocity": 109}, {"time": 3904, "pitch": 67, "duration": 2, "velocity": 104}, {"time": 3907, "pitch": 60, "duration": 3, "velocity": 120}, {"time": 3907, "pitch": 64, "duration": 3, "velocity": 118}, {"time": 3907, "pitch": 67, "duration": 4, "velocity": 115}, {"time": 3910, "pitch": 55, "duration": 8, "velocity": 106}, {"time": 3913, "pitch": 65, "duration": 3, "velocity": 114}, {"time": 3916, "pitch": 64, "duration": 3, "velocity": 112}, {"time": 3919, "pitch": 48, "duration": 18, "velocity": 77}, {"time": 3919, "pitch": 60, "duration": 13, "velocity": 88}, {"time": 3919, "pitch": 64, "duration": 10, "velocity": 101}, {"time": 3925, "pitch": 55, "duration": 11, "velocity": 50}, {"time": 3931, "pitch": 64, "duration": 7, "velocity": 101}, {"time": 3931, "pitch": 67, "duration": 12, "velocity": 104}, {"time": 3937, "pitch": 60, "duration": 4, "velocity": 99}, {"time": 3943, "pitch": 45, "duration": 16, "velocity": 96}, {"time": 3949, "pitch": 52, "duration": 9, "velocity": 82}, {"time": 3955, "pitch": 60, "duration": 4, "velocity": 99}, {"time": 3955, "pitch": 64, "duration": 5, "velocity": 99}, {"time": 3967, "pitch": 52, "duration": 17, "velocity": 99}, {"time": 3967, "pitch": 59, "duration": 3, "velocity": 94}, {"time": 3967, "pitch": 64, "duration": 18, "velocity": 101}, {"time": 3973, "pitch": 59, "duration": 7, "velocity": 76}, {"time": 3979, "pitch": 67, "duration": 9, "velocity": 99}, {"time": 3985, "pitch": 59, "duration": 2, "velocity": 96}, {"time": 3991, "pitch": 45, "duration": 17, "velocity": 99}, {"time": 3991, "pitch": 60, "duration": 18, "velocity": 79}, {"time": 3991, "pitch": 64, "duration": 18, "velocity": 96}, {"time": 3997, "pitch": 52, "duration": 10, "velocity": 76}, {"time": 4003, "pitch": 69, "duration": 6, "velocity": 106}, {"time": 4009, "pitch": 57, "duration": 4, "velocity": 104}, {"time": 4015, "pitch": 41, "duration": 16, "velocity": 86}, {"time": 4015, "pitch": 57, "duration": 12, "velocity": 85}, {"time": 4015, "pitch": 60, "duration": 18, "velocity": 88}, {"time": 4021, "pitch": 48, "duration": 10, "velocity": 70}, {"time": 4027, "pitch": 65, "duration": 7, "velocity": 117}, {"time": 4033, "pitch": 57, "duration": 2, "velocity": 104}, {"time": 4039, "pitch": 43, "duration": 16, "velocity": 99}, {"time": 4039, "pitch": 55, "duration": 13, "velocity": 99}, {"time": 4039, "pitch": 59, "duration": 10, "velocity": 99}, {"time": 4045, "pitch": 50, "duration": 10, "velocity": 78}, {"time": 4051, "pitch": 59, "duration": 5, "velocity": 106}, {"time": 4051, "pitch": 62, "duration": 7, "velocity": 96}, {"time": 4057, "pitch": 55, "duration": 6, "velocity": 71}, {"time": 4063, "pitch": 48, "duration": 16, "velocity": 117}, {"time": 4063, "pitch": 60, "duration": 7, "velocity": 99}, {"time": 4063, "pitch": 64, "duration": 9, "velocity": 109}, {"time": 4069, "pitch": 55, "duration": 8, "velocity": 62}, {"time": 4072, "pitch": 60, "duration": 2, "velocity": 110}, {"time": 4075, "pitch": 60, "duration": 5, "velocity": 117}, {"time": 4075, "pitch": 64, "duration": 5, "velocity": 115}, {"time": 4075, "pitch": 67, "duration": 5, "velocity": 112}, {"time": 4084, "pitch": 60, "duration": 2, "velocity": 110}, {"time": 4087, "pitch": 48, "duration": 23, "velocity": 120}, {"time": 4087, "pitch": 60, "duration": 7, "velocity": 117}, {"time": 4087, "pitch": 64, "duration": 6, "velocity": 112}, {"time": 4093, "pitch": 55, "duration": 6, "velocity": 80}, {"time": 4096, "pitch": 60, "duration": 1, "velocity": 110}, {"time": 4096, "pitch": 64, "duration": 2, "velocity": 109}, {"time": 4096, "pitch": 67, "duration": 2, "velocity": 104}, {"time": 4099, "pitch": 60, "duration": 3, "velocity": 120}, {"time": 4099, "pitch": 64, "duration": 3, "velocity": 118}, {"time": 4099, "pitch": 67, "duration": 4, "velocity": 115}, {"time": 4102, "pitch": 55, "duration": 8, "velocity": 106}, {"time": 4105, "pitch": 65, "duration": 3, "velocity": 114}, {"time": 4108, "pitch": 64, "duration": 3, "velocity": 112}, {"time": 4111, "pitch": 48, "duration": 18, "velocity": 77}, {"time": 4111, "pitch": 60, "duration": 13, "velocity": 88}, {"time": 4111, "pitch": 64, "duration": 10, "velocity": 101}, {"time": 4117, "pitch": 55, "duration": 11, "velocity": 50}, {"time": 4123, "pitch": 64, "duration": 7, "velocity": 101}, {"time": 4123, "pitch": 67, "duration": 12, "velocity": 104}, {"time": 4129, "pitch": 60, "duration": 4, "velocity": 99}, {"time": 4135, "pitch": 45, "duration": 16, "velocity": 96}, {"time": 4141, "pitch": 52, "duration": 9, "velocity": 82}, {"time": 4147, "pitch": 60, "duration": 4, "velocity": 99}, {"time": 4147, "pitch": 64, "duration": 5, "velocity": 99}, {"time": 4159, "pitch": 52, "duration": 17, "velocity": 99}, {"time": 4159, "pitch": 59, "duration": 3, "velocity": 94}, {"time": 4159, "pitch": 64, "duration": 18, "velocity": 101}, {"time": 4165, "pitch": 59, "duration": 7, "velocity": 76}, {"time": 4171, "pitch": 67, "duration": 9, "velocity": 99}, {"time": 4177, "pitch": 59, "duration": 2, "velocity": 96}, {"time": 4183, "pitch": 45, "duration": 17, "velocity": 99}, {"time": 4183, "pitch": 60, "duration": 18, "velocity": 79}, {"time": 4183, "pitch": 64, "duration": 18, "velocity": 96}, {"time": 4189, "pitch": 52, "duration": 10, "velocity": 76}, {"time": 4195, "pitch": 69, "duration": 6, "velocity": 106}, {"time": 4201, "pitch": 57, "duration": 4, "velocity": 104}, {"time": 4207, "pitch": 41, "duration": 16, "velocity": 86}, {"time": 4207, "pitch": 57, "duration": 12, "velocity": 85}, {"time": 4207, "pitch": 60, "duration": 18, "velocity": 88}, {"time": 4213, "pitch": 48, "duration": 10, "velocity": 70}, {"time": 4219, "pitch": 65, "duration": 7, "velocity": 117}, {"time": 4225, "pitch": 57, "duration": 2, "velocity": 104}, {"time": 4231, "pitch": 43, "duration": 16, "velocity": 99}, {"time": 4231, "pitch": 55, "duration": 13, "velocity": 99}, {"time": 4231, "pitch": 59, "duration": 10, "velocity": 99}, {"time": 4237, "pitch": 50, "duration": 10, "velocity": 78}, {"time": 4243, "pitch": 59, "duration": 5, "velocity": 106}, {"time": 4243, "pitch": 62, "duration": 7, "velocity": 96}, {"time": 4249, "pitch": 55, "duration": 6, "velocity": 71}, {"time": 4255, "pitch": 36, "duration": 1, "velocity": 96}, {"time": 4258, "pitch": 48, "duration": 3, "velocity": 93}, {"time": 4261, "pitch": 55, "duration": 16, "velocity": 96}, {"time": 4264, "pitch": 60, "duration": 9, "velocity": 113}, {"time": 4267, "pitch": 67, "duration": 12, "velocity": 101}, {"time": 4270, "pitch": 64, "duration": 8, "velocity": 101}, {"time": 4273, "pitch": 72, "duration": 10, "velocity": 65}, {"time": 4276, "pitch": 60, "duration": 3, "velocity": 99}, {"time": 4280, "pitch": 48, "duration": 33, "velocity": 49}, {"time": 4282, "pitch": 60, "duration": 41, "velocity": 91}, {"time": 4282, "pitch": 55, "duration": 31, "velocity": 63}, {"time": 4283, "pitch": 64, "duration": 40, "velocity": 91}, {"time": 4284, "pitch": 67, "duration": 40, "velocity": 88}, {"time": 4285, "pitch": 72, "duration": 39, "velocity": 70}], "annotations": [{"time": 157, "annotation": {"number": 64, "value": 127}, "group": "control_change"}, {"time": 158, "annotation": {"number": 64, "value": 0}, "group": "control_change"}, {"time": 159, "annotation": {"number": 64, "value": 127}, "group": "control_change"}, {"time": 173, "annotation": {"number": 64, "value": 0}, "group": "control_change"}, {"time": 230, "annotation": {"number": 64, "value": 127}, "group": "control_change"}, {"time": 247, "annotation": {"number": 64, "value": 0}, "group": "control_change"}, {"time": 253, "annotation": {"number": 64, "value": 127}, "group": "control_change"}, {"time": 270, "annotation": {"number": 64, "value": 0}, "group": "control_change"}, {"time": 284, "annotation": {"number": 64, "value": 127}, "group": "control_change"}, {"time": 294, "annotation": {"number": 64, "value": 0}, "group": "control_change"}, {"time": 308, "annotation": {"number": 64, "value": 127}, "group": "control_change"}, {"time": 317, "annotation": {"number": 64, "value": 0}, "group": "control_change"}, {"time": 332, "annotation": {"number": 64, "value": 127}, "group": "control_change"}, {"time": 342, "annotation": {"number": 64, "value": 0}, "group": "control_change"}, {"time": 355, "annotation": {"number": 64, "value": 127}, "group": "control_change"}, {"time": 365, "annotation": {"number": 64, "value": 0}, "group": "control_change"}, {"time": 422, "annotation": {"number": 64, "value": 127}, "group": "control_change"}, {"time": 439, "annotation": {"number": 64, "value": 0}, "group": "control_change"}, {"time": 445, "annotation": {"number": 64, "value": 127}, "group": "control_change"}, {"time": 462, "annotation": {"number": 64, "value": 0}, "group": "control_change"}, {"time": 476, "annotation": {"number": 64, "value": 127}, "group": "control_change"}, {"time": 486, "annotation": {"number": 64, "value": 0}, "group": "control_change"}, {"time": 500, "annotation": {"number": 64, "value": 127}, "group": "control_change"}, {"time": 509, "annotation": {"number": 64, "value": 0}, "group": "control_change"}, {"time": 524, "annotation": {"number": 64, "value": 127}, "group": "control_change"}, {"time": 534, "annotation": {"number": 64, "value": 0}, "group": "control_change"}, {"time": 547, "annotation": {"number": 64, "value": 127}, "group": "control_change"}, {"time": 557, "annotation": {"number": 64, "value": 0}, "group": "control_change"}, {"time": 560, "annotation": {"number": 64, "value": 127}, "group": "control_change"}, {"time": 582, "annotation": {"number": 64, "value": 0}, "group": "control_change"}, {"time": 584, "annotation": {"number": 64, "value": 127}, "group": "control_change"}, {"time": 606, "annotation": {"number": 64, "value": 0}, "group": "control_change"}, {"time": 608, "annotation": {"number": 64, "value": 127}, "group": "control_change"}, {"time": 631, "annotation": {"number": 64, "value": 0}, "group": "control_change"}, {"time": 632, "annotation": {"number": 64, "value": 127}, "group": "control_change"}, {"time": 653, "annotation": {"number": 64, "value": 0}, "group": "control_change"}, {"time": 661, "annotation": {"number": 64, "value": 127}, "group": "control_change"}, {"time": 680, "annotation": {"number": 64, "value": 0}, "group": "control_change"}, {"time": 684, "annotation": {"number": 64, "value": 127}, "group": "control_change"}, {"time": 702, "annotation": {"number": 64, "value": 0}, "group": "control_change"}, {"time": 709, "annotation": {"number": 64, "value": 127}, "group": "control_change"}, {"time": 727, "annotation": {"number": 64, "value": 0}, "group": "control_change"}, {"time": 734, "annotation": {"number": 64, "value": 127}, "group": "control_change"}, {"time": 750, "annotation": {"number": 64, "value": 0}, "group": "control_change"}, {"time": 759, "annotation": {"number": 64, "value": 127}, "group": "control_change"}, {"time": 775, "annotation": {"number": 64, "value": 0}, "group": "control_change"}, {"time": 789, "annotation": {"number": 64, "value": 127}, "group": "control_change"}, {"time": 791, "annotation": {"number": 64, "value": 0}, "group": "control_change"}, {"time": 792, "annotation": {"number": 64, "value": 127}, "group": "control_change"}, {"time": 798, "annotation": {"number": 64, "value": 0}, "group": "control_change"}, {"time": 805, "annotation": {"number": 64, "value": 127}, "group": "control_change"}, {"time": 822, "annotation": {"number": 64, "value": 0}, "group": "control_change"}, {"time": 829, "annotation": {"number": 64, "value": 127}, "group": "control_change"}, {"time": 846, "annotation": {"number": 64, "value": 0}, "group": "control_change"}, {"time": 852, "annotation": {"number": 64, "value": 127}, "group": "control_change"}, {"time": 880, "annotation": {"number": 64, "value": 0}, "group": "control_change"}, {"time": 884, "annotation": {"number": 64, "value": 127}, "group": "control_change"}, {"time": 895, "annotation": {"number": 64, "value": 0}, "group": "control_change"}, {"time": 899, "annotation": {"number": 64, "value": 127}, "group": "control_change"}, {"time": 921, "annotation": {"number": 64, "value": 0}, "group": "control_change"}, {"time": 925, "annotation": {"number": 64, "value": 127}, "group": "control_change"}, {"time": 941, "annotation": {"number": 64, "value": 0}, "group": "control_change"}, {"time": 949, "annotation": {"number": 64, "value": 127}, "group": "control_change"}, {"time": 967, "annotation": {"number": 64, "value": 0}, "group": "control_change"}, {"time": 973, "annotation": {"number": 64, "value": 127}, "group": "control_change"}, {"time": 989, "annotation": {"number": 64, "value": 0}, "group": "control_change"}, {"time": 1020, "annotation": {"number": 64, "value": 127}, "group": "control_change"}, {"time": 1036, "annotation": {"number": 64, "value": 0}, "group": "control_change"}, {"time": 1044, "annotation": {"number": 64, "value": 127}, "group": "control_change"}, {"time": 1063, "annotation": {"number": 64, "value": 0}, "group": "control_change"}, {"time": 1068, "annotation": {"number": 64, "value": 127}, "group": "control_change"}, {"time": 1086, "annotation": {"number": 64, "value": 0}, "group": "control_change"}, {"time": 1092, "annotation": {"number": 64, "value": 127}, "group": "control_change"}, {"time": 1110, "annotation": {"number": 64, "value": 0}, "group": "control_change"}, {"time": 1117, "annotation": {"number": 64, "value": 127}, "group": "control_change"}, {"time": 1134, "annotation": {"number": 64, "value": 0}, "group": "control_change"}, {"time": 1138, "annotation": {"number": 64, "value": 127}, "group": "control_change"}, {"time": 1158, "annotation": {"number": 64, "value": 0}, "group": "control_change"}, {"time": 1165, "annotation": {"number": 64, "value": 127}, "group": "control_change"}, {"time": 1182, "annotation": {"number": 64, "value": 0}, "group": "control_change"}, {"time": 1188, "annotation": {"number": 64, "value": 127}, "group": "control_change"}, {"time": 1206, "annotation": {"number": 64, "value": 0}, "group": "control_change"}, {"time": 1212, "annotation": {"number": 64, "value": 127}, "group": "control_change"}, {"time": 1230, "annotation": {"number": 64, "value": 0}, "group": "control_change"}, {"time": 1232, "annotation": {"number": 64, "value": 127}, "group": "control_change"}, {"time": 1255, "annotation": {"number": 64, "value": 0}, "group": "control_change"}, {"time": 1259, "annotation": {"number": 64, "value": 127}, "group": "control_change"}, {"time": 1277, "annotation": {"number": 64, "value": 0}, "group": "control_change"}, {"time": 1280, "annotation": {"number": 64, "value": 127}, "group": "control_change"}, {"time": 1290, "annotation": {"number": 64, "value": 0}, "group": "control_change"}, {"time": 1292, "annotation": {"number": 64, "value": 127}, "group": "control_change"}, {"time": 1302, "annotation": {"number": 64, "value": 0}, "group": "control_change"}, {"time": 1305, "annotation": {"number": 64, "value": 127}, "group": "control_change"}, {"time": 1327, "annotation": {"number": 64, "value": 0}, "group": "control_change"}, {"time": 1333, "annotation": {"number": 64, "value": 127}, "group": "control_change"}, {"time": 1351, "annotation": {"number": 64, "value": 0}, "group": "control_change"}, {"time": 1357, "annotation": {"number": 64, "value": 127}, "group": "control_change"}, {"time": 1373, "annotation": {"number": 64, "value": 0}, "group": "control_change"}, {"time": 1381, "annotation": {"number": 64, "value": 127}, "group": "control_change"}, {"time": 1397, "annotation": {"number": 64, "value": 0}, "group": "control_change"}, {"time": 1400, "annotation": {"number": 64, "value": 127}, "group": "control_change"}, {"time": 1420, "annotation": {"number": 64, "value": 0}, "group": "control_change"}, {"time": 1429, "annotation": {"number": 64, "value": 127}, "group": "control_change"}, {"time": 1448, "annotation": {"number": 64, "value": 0}, "group": "control_change"}, {"time": 1452, "annotation": {"number": 64, "value": 127}, "group": "control_change"}, {"time": 1470, "annotation": {"number": 64, "value": 0}, "group": "control_change"}, {"time": 1477, "annotation": {"number": 64, "value": 127}, "group": "control_change"}, {"time": 1495, "annotation": {"number": 64, "value": 0}, "group": "control_change"}, {"time": 1502, "annotation": {"number": 64, "value": 127}, "group": "control_change"}, {"time": 1518, "annotation": {"number": 64, "value": 0}, "group": "control_change"}, {"time": 1527, "annotation": {"number": 64, "value": 127}, "group": "control_change"}, {"time": 1543, "annotation": {"number": 64, "value": 0}, "group": "control_change"}, {"time": 1557, "annotation": {"number": 64, "value": 127}, "group": "control_change"}, {"time": 1559, "annotation": {"number": 64, "value": 0}, "group": "control_change"}, {"time": 1560, "annotation": {"number": 64, "value": 127}, "group": "control_change"}, {"time": 1566, "annotation": {"number": 64, "value": 0}, "group": "control_change"}, {"time": 1573, "annotation": {"number": 64, "value": 127}, "group": "control_change"}, {"time": 1590, "annotation": {"number": 64, "value": 0}, "group": "control_change"}, {"time": 1597, "annotation": {"number": 64, "value": 127}, "group": "control_change"}, {"time": 1614, "annotation": {"number": 64, "value": 0}, "group": "control_change"}, {"time": 1620, "annotation": {"number": 64, "value": 127}, "group": "control_change"}, {"time": 1648, "annotation": {"number": 64, "value": 0}, "group": "control_change"}, {"time": 1652, "annotation": {"number": 64, "value": 127}, "group": "control_change"}, {"time": 1663, "annotation": {"number": 64, "value": 0}, "group": "control_change"}, {"time": 1667, "annotation": {"number": 64, "value": 127}, "group": "control_change"}, {"time": 1689, "annotation": {"number": 64, "value": 0}, "group": "control_change"}, {"time": 1693, "annotation": {"number": 64, "value": 127}, "group": "control_change"}, {"time": 1709, "annotation": {"number": 64, "value": 0}, "group": "control_change"}, {"time": 1717, "annotation": {"number": 64, "value": 127}, "group": "control_change"}, {"time": 1735, "annotation": {"number": 64, "value": 0}, "group": "control_change"}, {"time": 1741, "annotation": {"number": 64, "value": 127}, "group": "control_change"}, {"time": 1757, "annotation": {"number": 64, "value": 0}, "group": "control_change"}, {"time": 1788, "annotation": {"number": 64, "value": 127}, "group": "control_change"}, {"time": 1804, "annotation": {"number": 64, "value": 0}, "group": "control_change"}, {"time": 1812, "annotation": {"number": 64, "value": 127}, "group": "control_change"}, {"time": 1831, "annotation": {"number": 64, "value": 0}, "group": "control_change"}, {"time": 1836, "annotation": {"number": 64, "value": 127}, "group": "control_change"}, {"time": 1854, "annotation": {"number": 64, "value": 0}, "group": "control_change"}, {"time": 1860, "annotation": {"number": 64, "value": 127}, "group": "control_change"}, {"time": 1878, "annotation": {"number": 64, "value": 0}, "group": "control_change"}, {"time": 1885, "annotation": {"number": 64, "value": 127}, "group": "control_change"}, {"time": 1902, "annotation": {"number": 64, "value": 0}, "group": "control_change"}, {"time": 1906, "annotation": {"number": 64, "value": 127}, "group": "control_change"}, {"time": 1926, "annotation": {"number": 64, "value": 0}, "group": "control_change"}, {"time": 1933, "annotation": {"number": 64, "value": 127}, "group": "control_change"}, {"time": 1950, "annotation": {"number": 64, "value": 0}, "group": "control_change"}, {"time": 1956, "annotation": {"number": 64, "value": 127}, "group": "control_change"}, {"time": 1974, "annotation": {"number": 64, "value": 0}, "group": "control_change"}, {"time": 1980, "annotation": {"number": 64, "value": 127}, "group": "control_change"}, {"time": 1998, "annotation": {"number": 64, "value": 0}, "group": "control_change"}, {"time": 2000, "annotation": {"number": 64, "value": 127}, "group": "control_change"}, {"time": 2023, "annotation": {"number": 64, "value": 0}, "group": "control_change"}, {"time": 2027, "annotation": {"number": 64, "value": 127}, "group": "control_change"}, {"time": 2045, "annotation": {"number": 64, "value": 0}, "group": "control_change"}, {"time": 2048, "annotation": {"number": 64, "value": 127}, "group": "control_change"}, {"time": 2058, "annotation": {"number": 64, "value": 0}, "group": "control_change"}, {"time": 2060, "annotation": {"number": 64, "value": 127}, "group": "control_change"}, {"time": 2070, "annotation": {"number": 64, "value": 0}, "group": "control_change"}, {"time": 2073, "annotation": {"number": 64, "value": 127}, "group": "control_change"}, {"time": 2095, "annotation": {"number": 64, "value": 0}, "group": "control_change"}, {"time": 2101, "annotation": {"number": 64, "value": 127}, "group": "control_change"}, {"time": 2119, "annotation": {"number": 64, "value": 0}, "group": "control_change"}, {"time": 2125, "annotation": {"number": 64, "value": 127}, "group": "control_change"}, {"time": 2141, "annotation": {"number": 64, "value": 0}, "group": "control_change"}, {"time": 2149, "annotation": {"number": 64, "value": 127}, "group": "control_change"}, {"time": 2165, "annotation": {"number": 64, "value": 0}, "group": "control_change"}, {"time": 2168, "annotation": {"number": 64, "value": 127}, "group": "control_change"}, {"time": 2188, "annotation": {"number": 64, "value": 0}, "group": "control_change"}, {"time": 2198, "annotation": {"number": 64, "value": 127}, "group": "control_change"}, {"time": 2215, "annotation": {"number": 64, "value": 0}, "group": "control_change"}, {"time": 2221, "annotation": {"number": 64, "value": 127}, "group": "control_change"}, {"time": 2238, "annotation": {"number": 64, "value": 0}, "group": "control_change"}, {"time": 2252, "annotation": {"number": 64, "value": 127}, "group": "control_change"}, {"time": 2262, "annotation": {"number": 64, "value": 0}, "group": "control_change"}, {"time": 2276, "annotation": {"number": 64, "value": 127}, "group": "control_change"}, {"time": 2285, "annotation": {"number": 64, "value": 0}, "group": "control_change"}, {"time": 2300, "annotation": {"number": 64, "value": 127}, "group": "control_change"}, {"time": 2310, "annotation": {"number": 64, "value": 0}, "group": "control_change"}, {"time": 2323, "annotation": {"number": 64, "value": 127}, "group": "control_change"}, {"time": 2333, "annotation": {"number": 64, "value": 0}, "group": "control_change"}, {"time": 2390, "annotation": {"number": 64, "value": 127}, "group": "control_change"}, {"time": 2407, "annotation": {"number": 64, "value": 0}, "group": "control_change"}, {"time": 2413, "annotation": {"number": 64, "value": 127}, "group": "control_change"}, {"time": 2430, "annotation": {"number": 64, "value": 0}, "group": "control_change"}, {"time": 2444, "annotation": {"number": 64, "value": 127}, "group": "control_change"}, {"time": 2454, "annotation": {"number": 64, "value": 0}, "group": "control_change"}, {"time": 2468, "annotation": {"number": 64, "value": 127}, "group": "control_change"}, {"time": 2477, "annotation": {"number": 64, "value": 0}, "group": "control_change"}, {"time": 2492, "annotation": {"number": 64, "value": 127}, "group": "control_change"}, {"time": 2502, "annotation": {"number": 64, "value": 0}, "group": "control_change"}, {"time": 2515, "annotation": {"number": 64, "value": 127}, "group": "control_change"}, {"time": 2525, "annotation": {"number": 64, "value": 0}, "group": "control_change"}, {"time": 2533, "annotation": {"number": 64, "value": 127}, "group": "control_change"}, {"time": 2550, "annotation": {"number": 64, "value": 0}, "group": "control_change"}, {"time": 2552, "annotation": {"number": 64, "value": 127}, "group": "control_change"}, {"time": 2573, "annotation": {"number": 64, "value": 0}, "group": "control_change"}, {"time": 2580, "annotation": {"number": 64, "value": 127}, "group": "control_change"}, {"time": 2599, "annotation": {"number": 64, "value": 0}, "group": "control_change"}, {"time": 2604, "annotation": {"number": 64, "value": 127}, "group": "control_change"}, {"time": 2622, "annotation": {"number": 64, "value": 0}, "group": "control_change"}, {"time": 2628, "annotation": {"number": 64, "value": 127}, "group": "control_change"}, {"time": 2646, "annotation": {"number": 64, "value": 0}, "group": "control_change"}, {"time": 2653, "annotation": {"number": 64, "value": 127}, "group": "control_change"}, {"time": 2670, "annotation": {"number": 64, "value": 0}, "group": "control_change"}, {"time": 2674, "annotation": {"number": 64, "value": 127}, "group": "control_change"}, {"time": 2694, "annotation": {"number": 64, "value": 0}, "group": "control_change"}, {"time": 2701, "annotation": {"number": 64, "value": 127}, "group": "control_change"}, {"time": 2718, "annotation": {"number": 64, "value": 0}, "group": "control_change"}, {"time": 2724, "annotation": {"number": 64, "value": 127}, "group": "control_change"}, {"time": 2742, "annotation": {"number": 64, "value": 0}, "group": "control_change"}, {"time": 2748, "annotation": {"number": 64, "value": 127}, "group": "control_change"}, {"time": 2766, "annotation": {"number": 64, "value": 0}, "group": "control_change"}, {"time": 2768, "annotation": {"number": 64, "value": 127}, "group": "control_change"}, {"time": 2791, "annotation": {"number": 64, "value": 0}, "group": "control_change"}, {"time": 2795, "annotation": {"number": 64, "value": 127}, "group": "control_change"}, {"time": 2813, "annotation": {"number": 64, "value": 0}, "group": "control_change"}, {"time": 2816, "annotation": {"number": 64, "value": 127}, "group": "control_change"}, {"time": 2826, "annotation": {"number": 64, "value": 0}, "group": "control_change"}, {"time": 2828, "annotation": {"number": 64, "value": 127}, "group": "control_change"}, {"time": 2838, "annotation": {"number": 64, "value": 0}, "group": "control_change"}, {"time": 2841, "annotation": {"number": 64, "value": 127}, "group": "control_change"}, {"time": 2863, "annotation": {"number": 64, "value": 0}, "group": "control_change"}, {"time": 2869, "annotation": {"number": 64, "value": 127}, "group": "control_change"}, {"time": 2887, "annotation": {"number": 64, "value": 0}, "group": "control_change"}, {"time": 2893, "annotation": {"number": 64, "value": 127}, "group": "control_change"}, {"time": 2909, "annotation": {"number": 64, "value": 0}, "group": "control_change"}, {"time": 2917, "annotation": {"number": 64, "value": 127}, "group": "control_change"}, {"time": 2933, "annotation": {"number": 64, "value": 0}, "group": "control_change"}, {"time": 2936, "annotation": {"number": 64, "value": 127}, "group": "control_change"}, {"time": 2956, "annotation": {"number": 64, "value": 0}, "group": "control_change"}, {"time": 2964, "annotation": {"number": 64, "value": 127}, "group": "control_change"}, {"time": 2983, "annotation": {"number": 64, "value": 0}, "group": "control_change"}, {"time": 2988, "annotation": {"number": 64, "value": 127}, "group": "control_change"}, {"time": 3006, "annotation": {"number": 64, "value": 0}, "group": "control_change"}, {"time": 3012, "annotation": {"number": 64, "value": 127}, "group": "control_change"}, {"time": 3030, "annotation": {"number": 64, "value": 0}, "group": "control_change"}, {"time": 3037, "annotation": {"number": 64, "value": 127}, "group": "control_change"}, {"time": 3054, "annotation": {"number": 64, "value": 0}, "group": "control_change"}, {"time": 3058, "annotation": {"number": 64, "value": 127}, "group": "control_change"}, {"time": 3078, "annotation": {"number": 64, "value": 0}, "group": "control_change"}, {"time": 3085, "annotation": {"number": 64, "value": 127}, "group": "control_change"}, {"time": 3102, "annotation": {"number": 64, "value": 0}, "group": "control_change"}, {"time": 3108, "annotation": {"number": 64, "value": 127}, "group": "control_change"}, {"time": 3126, "annotation": {"number": 64, "value": 0}, "group": "control_change"}, {"time": 3132, "annotation": {"number": 64, "value": 127}, "group": "control_change"}, {"time": 3150, "annotation": {"number": 64, "value": 0}, "group": "control_change"}, {"time": 3152, "annotation": {"number": 64, "value": 127}, "group": "control_change"}, {"time": 3175, "annotation": {"number": 64, "value": 0}, "group": "control_change"}, {"time": 3179, "annotation": {"number": 64, "value": 127}, "group": "control_change"}, {"time": 3197, "annotation": {"number": 64, "value": 0}, "group": "control_change"}, {"time": 3200, "annotation": {"number": 64, "value": 127}, "group": "control_change"}, {"time": 3210, "annotation": {"number": 64, "value": 0}, "group": "control_change"}, {"time": 3212, "annotation": {"number": 64, "value": 127}, "group": "control_change"}, {"time": 3222, "annotation": {"number": 64, "value": 0}, "group": "control_change"}, {"time": 3225, "annotation": {"number": 64, "value": 127}, "group": "control_change"}, {"time": 3247, "annotation": {"number": 64, "value": 0}, "group": "control_change"}, {"time": 3253, "annotation": {"number": 64, "value": 127}, "group": "control_change"}, {"time": 3271, "annotation": {"number": 64, "value": 0}, "group": "control_change"}, {"time": 3272, "annotation": {"number": 64, "value": 127}, "group": "control_change"}, {"time": 3294, "annotation": {"number": 64, "value": 0}, "group": "control_change"}, {"time": 3295, "annotation": {"number": 64, "value": 127}, "group": "control_change"}, {"time": 3318, "annotation": {"number": 64, "value": 0}, "group": "control_change"}, {"time": 3320, "annotation": {"number": 64, "value": 127}, "group": "control_change"}, {"time": 3342, "annotation": {"number": 64, "value": 0}, "group": "control_change"}, {"time": 3350, "annotation": {"number": 64, "value": 127}, "group": "control_change"}, {"time": 3367, "annotation": {"number": 64, "value": 0}, "group": "control_change"}, {"time": 3373, "annotation": {"number": 64, "value": 127}, "group": "control_change"}, {"time": 3390, "annotation": {"number": 64, "value": 0}, "group": "control_change"}, {"time": 3404, "annotation": {"number": 64, "value": 127}, "group": "control_change"}, {"time": 3414, "annotation": {"number": 64, "value": 0}, "group": "control_change"}, {"time": 3428, "annotation": {"number": 64, "value": 127}, "group": "control_change"}, {"time": 3437, "annotation": {"number": 64, "value": 0}, "group": "control_change"}, {"time": 3452, "annotation": {"number": 64, "value": 127}, "group": "control_change"}, {"time": 3462, "annotation": {"number": 64, "value": 0}, "group": "control_change"}, {"time": 3475, "annotation": {"number": 64, "value": 127}, "group": "control_change"}, {"time": 3485, "annotation": {"number": 64, "value": 0}, "group": "control_change"}, {"time": 3542, "annotation": {"number": 64, "value": 127}, "group": "control_change"}, {"time": 3559, "annotation": {"number": 64, "value": 0}, "group": "control_change"}, {"time": 3565, "annotation": {"number": 64, "value": 127}, "group": "control_change"}, {"time": 3582, "annotation": {"number": 64, "value": 0}, "group": "control_change"}, {"time": 3596, "annotation": {"number": 64, "value": 127}, "group": "control_change"}, {"time": 3606, "annotation": {"number": 64, "value": 0}, "group": "control_change"}, {"time": 3620, "annotation": {"number": 64, "value": 127}, "group": "control_change"}, {"time": 3629, "annotation": {"number": 64, "value": 0}, "group": "control_change"}, {"time": 3644, "annotation": {"number": 64, "value": 127}, "group": "control_change"}, {"time": 3654, "annotation": {"number": 64, "value": 0}, "group": "control_change"}, {"time": 3667, "annotation": {"number": 64, "value": 127}, "group": "control_change"}, {"time": 3677, "annotation": {"number": 64, "value": 0}, "group": "control_change"}, {"time": 3685, "annotation": {"number": 64, "value": 127}, "group": "control_change"}, {"time": 3702, "annotation": {"number": 64, "value": 0}, "group": "control_change"}, {"time": 3704, "annotation": {"number": 64, "value": 127}, "group": "control_change"}, {"time": 3724, "annotation": {"number": 64, "value": 0}, "group": "control_change"}, {"time": 3734, "annotation": {"number": 64, "value": 127}, "group": "control_change"}, {"time": 3751, "annotation": {"number": 64, "value": 0}, "group": "control_change"}, {"time": 3757, "annotation": {"number": 64, "value": 127}, "group": "control_change"}, {"time": 3774, "annotation": {"number": 64, "value": 0}, "group": "control_change"}, {"time": 3788, "annotation": {"number": 64, "value": 127}, "group": "control_change"}, {"time": 3798, "annotation": {"number": 64, "value": 0}, "group": "control_change"}, {"time": 3812, "annotation": {"number": 64, "value": 127}, "group": "control_change"}, {"time": 3821, "annotation": {"number": 64, "value": 0}, "group": "control_change"}, {"time": 3836, "annotation": {"number": 64, "value": 127}, "group": "control_change"}, {"time": 3846, "annotation": {"number": 64, "value": 0}, "group": "control_change"}, {"time": 3859, "annotation": {"number": 64, "value": 127}, "group": "control_change"}, {"time": 3869, "annotation": {"number": 64, "value": 0}, "group": "control_change"}, {"time": 3877, "annotation": {"number": 64, "value": 127}, "group": "control_change"}, {"time": 3894, "annotation": {"number": 64, "value": 0}, "group": "control_change"}, {"time": 3896, "annotation": {"number": 64, "value": 127}, "group": "control_change"}, {"time": 3917, "annotation": {"number": 64, "value": 0}, "group": "control_change"}, {"time": 3926, "annotation": {"number": 64, "value": 127}, "group": "control_change"}, {"time": 3943, "annotation": {"number": 64, "value": 0}, "group": "control_change"}, {"time": 3949, "annotation": {"number": 64, "value": 127}, "group": "control_change"}, {"time": 3966, "annotation": {"number": 64, "value": 0}, "group": "control_change"}, {"time": 3980, "annotation": {"number": 64, "value": 127}, "group": "control_change"}, {"time": 3990, "annotation": {"number": 64, "value": 0}, "group": "control_change"}, {"time": 4004, "annotation": {"number": 64, "value": 127}, "group": "control_change"}, {"time": 4013, "annotation": {"number": 64, "value": 0}, "group": "control_change"}, {"time": 4028, "annotation": {"number": 64, "value": 127}, "group": "control_change"}, {"time": 4038, "annotation": {"number": 64, "value": 0}, "group": "control_change"}, {"time": 4051, "annotation": {"number": 64, "value": 127}, "group": "control_change"}, {"time": 4061, "annotation": {"number": 64, "value": 0}, "group": "control_change"}, {"time": 4069, "annotation": {"number": 64, "value": 127}, "group": "control_change"}, {"time": 4086, "annotation": {"number": 64, "value": 0}, "group": "control_change"}, {"time": 4088, "annotation": {"number": 64, "value": 127}, "group": "control_change"}, {"time": 4109, "annotation": {"number": 64, "value": 0}, "group": "control_change"}, {"time": 4118, "annotation": {"number": 64, "value": 127}, "group": "control_change"}, {"time": 4135, "annotation": {"number": 64, "value": 0}, "group": "control_change"}, {"time": 4141, "annotation": {"number": 64, "value": 127}, "group": "control_change"}, {"time": 4158, "annotation": {"number": 64, "value": 0}, "group": "control_change"}, {"time": 4172, "annotation": {"number": 64, "value": 127}, "group": "control_change"}, {"time": 4182, "annotation": {"number": 64, "value": 0}, "group": "control_change"}, {"time": 4196, "annotation": {"number": 64, "value": 127}, "group": "control_change"}, {"time": 4205, "annotation": {"number": 64, "value": 0}, "group": "control_change"}, {"time": 4220, "annotation": {"number": 64, "value": 127}, "group": "control_change"}, {"time": 4230, "annotation": {"number": 64, "value": 0}, "group": "control_change"}, {"time": 4243, "annotation": {"number": 64, "value": 127}, "group": "control_change"}, {"time": 4253, "annotation": {"number": 64, "value": 0}, "group": "control_change"}, {"time": 4255, "annotation": {"number": 64, "value": 127}, "group": "control_change"}, {"time": 4285, "annotation": {"number": 64, "value": 0}, "group": "control_change"}]}]}