{"metadata": {"schema_version": "0.2", "title": "None", "source_filename": "026.mid", "source_format": "midi"}, "resolution": 12, "tempos": [{"time": 0, "qpm": 80.0}], "key_signatures": [{"time": 0, "root": 0, "mode": "major"}], "time_signatures": [{"time": 0, "numerator": 4, "denominator": 4}, {"time": 0, "numerator": 1, "denominator": 4}], "tracks": [{"program": 4, "is_drum": false, "name": "MELODY", "notes": [{"time": 258, "pitch": 67, "duration": 12, "velocity": 83}, {"time": 276, "pitch": 69, "duration": 7, "velocity": 83}, {"time": 282, "pitch": 71, "duration": 6, "velocity": 83}, {"time": 288, "pitch": 74, "duration": 4, "velocity": 83}, {"time": 294, "pitch": 83, "duration": 7, "velocity": 83}, {"time": 303, "pitch": 81, "duration": 2, "velocity": 83}, {"time": 306, "pitch": 79, "duration": 35, "velocity": 83}, {"time": 354, "pitch": 81, "duration": 13, "velocity": 83}, {"time": 372, "pitch": 83, "duration": 3, "velocity": 83}, {"time": 378, "pitch": 78, "duration": 7, "velocity": 83}, {"time": 384, "pitch": 81, "duration": 6, "velocity": 83}, {"time": 390, "pitch": 76, "duration": 6, "velocity": 83}, {"time": 396, "pitch": 78, "duration": 6, "velocity": 83}, {"time": 402, "pitch": 74, "duration": 31, "velocity": 83}, {"time": 450, "pitch": 71, "duration": 15, "velocity": 83}, {"time": 468, "pitch": 74, "duration": 6, "velocity": 83}, {"time": 474, "pitch": 76, "duration": 7, "velocity": 83}, {"time": 480, "pitch": 79, "duration": 5, "velocity": 83}, {"time": 486, "pitch": 81, "duration": 4, "velocity": 83}, {"time": 492, "pitch": 83, "duration": 7, "velocity": 82}, {"time": 504, "pitch": 81, "duration": 29, "velocity": 81}, {"time": 546, "pitch": 78, "duration": 13, "velocity": 81}, {"time": 564, "pitch": 76, "duration": 3, "velocity": 81}, {"time": 570, "pitch": 76, "duration": 5, "velocity": 81}, {"time": 576, "pitch": 74, "duration": 7, "velocity": 81}, {"time": 582, "pitch": 69, "duration": 7, "velocity": 81}, {"time": 588, "pitch": 67, "duration": 4, "velocity": 81}, {"time": 594, "pitch": 71, "duration": 40, "velocity": 81}, {"time": 642, "pitch": 67, "duration": 12, "velocity": 81}, {"time": 660, "pitch": 69, "duration": 7, "velocity": 81}, {"time": 666, "pitch": 71, "duration": 6, "velocity": 81}, {"time": 672, "pitch": 74, "duration": 4, "velocity": 81}, {"time": 678, "pitch": 83, "duration": 12, "velocity": 81}, {"time": 684, "pitch": 81, "duration": 12, "velocity": 81}, {"time": 690, "pitch": 79, "duration": 35, "velocity": 81}, {"time": 738, "pitch": 81, "duration": 13, "velocity": 82}, {"time": 756, "pitch": 83, "duration": 3, "velocity": 82}, {"time": 762, "pitch": 78, "duration": 7, "velocity": 82}, {"time": 768, "pitch": 81, "duration": 6, "velocity": 82}, {"time": 774, "pitch": 76, "duration": 6, "velocity": 82}, {"time": 780, "pitch": 78, "duration": 6, "velocity": 82}, {"time": 786, "pitch": 74, "duration": 42, "velocity": 82}, {"time": 834, "pitch": 71, "duration": 15, "velocity": 82}, {"time": 852, "pitch": 74, "duration": 6, "velocity": 82}, {"time": 858, "pitch": 76, "duration": 7, "velocity": 82}, {"time": 864, "pitch": 79, "duration": 5, "velocity": 82}, {"time": 870, "pitch": 81, "duration": 4, "velocity": 82}, {"time": 876, "pitch": 83, "duration": 7, "velocity": 82}, {"time": 882, "pitch": 81, "duration": 35, "velocity": 82}, {"time": 930, "pitch": 78, "duration": 13, "velocity": 83}, {"time": 948, "pitch": 76, "duration": 3, "velocity": 83}, {"time": 954, "pitch": 81, "duration": 5, "velocity": 83}, {"time": 960, "pitch": 74, "duration": 6, "velocity": 83}, {"time": 966, "pitch": 78, "duration": 4, "velocity": 83}, {"time": 972, "pitch": 81, "duration": 4, "velocity": 83}, {"time": 978, "pitch": 79, "duration": 29, "velocity": 83}, {"time": 1026, "pitch": 83, "duration": 8, "velocity": 83}, {"time": 1038, "pitch": 83, "duration": 9, "velocity": 83}, {"time": 1050, "pitch": 83, "duration": 8, "velocity": 83}, {"time": 1056, "pitch": 78, "duration": 7, "velocity": 83}, {"time": 1068, "pitch": 74, "duration": 5, "velocity": 83}, {"time": 1074, "pitch": 76, "duration": 32, "velocity": 83}, {"time": 1122, "pitch": 81, "duration": 8, "velocity": 83}, {"time": 1134, "pitch": 81, "duration": 8, "velocity": 83}, {"time": 1146, "pitch": 81, "duration": 3, "velocity": 83}, {"time": 1152, "pitch": 83, "duration": 3, "velocity": 83}, {"time": 1158, "pitch": 78, "duration": 12, "velocity": 83}, {"time": 1164, "pitch": 76, "duration": 12, "velocity": 83}, {"time": 1170, "pitch": 74, "duration": 38, "velocity": 83}, {"time": 1218, "pitch": 71, "duration": 14, "velocity": 83}, {"time": 1236, "pitch": 74, "duration": 6, "velocity": 83}, {"time": 1242, "pitch": 76, "duration": 7, "velocity": 83}, {"time": 1248, "pitch": 79, "duration": 5, "velocity": 83}, {"time": 1254, "pitch": 81, "duration": 5, "velocity": 83}, {"time": 1260, "pitch": 83, "duration": 6, "velocity": 83}, {"time": 1269, "pitch": 81, "duration": 33, "velocity": 83}, {"time": 1314, "pitch": 78, "duration": 13, "velocity": 83}, {"time": 1332, "pitch": 76, "duration": 7, "velocity": 83}, {"time": 1338, "pitch": 81, "duration": 6, "velocity": 83}, {"time": 1344, "pitch": 74, "duration": 7, "velocity": 83}, {"time": 1350, "pitch": 78, "duration": 7, "velocity": 83}, {"time": 1356, "pitch": 81, "duration": 4, "velocity": 83}, {"time": 1362, "pitch": 79, "duration": 36, "velocity": 83}, {"time": 1794, "pitch": 83, "duration": 8, "velocity": 79}, {"time": 1806, "pitch": 83, "duration": 9, "velocity": 79}, {"time": 1818, "pitch": 83, "duration": 8, "velocity": 79}, {"time": 1824, "pitch": 78, "duration": 7, "velocity": 79}, {"time": 1836, "pitch": 74, "duration": 5, "velocity": 79}, {"time": 1842, "pitch": 76, "duration": 32, "velocity": 79}, {"time": 1890, "pitch": 81, "duration": 8, "velocity": 79}, {"time": 1902, "pitch": 81, "duration": 8, "velocity": 79}, {"time": 1914, "pitch": 81, "duration": 3, "velocity": 79}, {"time": 1920, "pitch": 83, "duration": 3, "velocity": 79}, {"time": 1926, "pitch": 78, "duration": 6, "velocity": 79}, {"time": 1932, "pitch": 76, "duration": 9, "velocity": 79}, {"time": 1938, "pitch": 74, "duration": 38, "velocity": 79}, {"time": 1986, "pitch": 71, "duration": 14, "velocity": 78}, {"time": 2004, "pitch": 74, "duration": 6, "velocity": 78}, {"time": 2010, "pitch": 76, "duration": 7, "velocity": 78}, {"time": 2016, "pitch": 79, "duration": 5, "velocity": 78}, {"time": 2022, "pitch": 81, "duration": 5, "velocity": 78}, {"time": 2028, "pitch": 83, "duration": 6, "velocity": 78}, {"time": 2037, "pitch": 81, "duration": 33, "velocity": 78}, {"time": 2082, "pitch": 78, "duration": 13, "velocity": 78}, {"time": 2100, "pitch": 76, "duration": 7, "velocity": 78}, {"time": 2106, "pitch": 81, "duration": 6, "velocity": 78}, {"time": 2112, "pitch": 74, "duration": 7, "velocity": 78}, {"time": 2118, "pitch": 78, "duration": 7, "velocity": 78}, {"time": 2124, "pitch": 81, "duration": 4, "velocity": 78}, {"time": 2130, "pitch": 79, "duration": 36, "velocity": 78}, {"time": 2178, "pitch": 67, "duration": 12, "velocity": 78}, {"time": 2196, "pitch": 69, "duration": 7, "velocity": 78}, {"time": 2202, "pitch": 71, "duration": 6, "velocity": 78}, {"time": 2208, "pitch": 74, "duration": 4, "velocity": 78}, {"time": 2214, "pitch": 83, "duration": 7, "velocity": 78}, {"time": 2223, "pitch": 81, "duration": 2, "velocity": 78}, {"time": 2226, "pitch": 79, "duration": 35, "velocity": 78}, {"time": 2274, "pitch": 81, "duration": 13, "velocity": 78}, {"time": 2292, "pitch": 83, "duration": 3, "velocity": 78}, {"time": 2298, "pitch": 78, "duration": 7, "velocity": 78}, {"time": 2304, "pitch": 81, "duration": 6, "velocity": 77}, {"time": 2310, "pitch": 76, "duration": 6, "velocity": 77}, {"time": 2316, "pitch": 78, "duration": 6, "velocity": 76}, {"time": 2322, "pitch": 74, "duration": 31, "velocity": 76}, {"time": 2370, "pitch": 71, "duration": 15, "velocity": 76}, {"time": 2388, "pitch": 74, "duration": 6, "velocity": 76}, {"time": 2394, "pitch": 76, "duration": 7, "velocity": 76}, {"time": 2400, "pitch": 79, "duration": 5, "velocity": 76}, {"time": 2406, "pitch": 81, "duration": 4, "velocity": 76}, {"time": 2412, "pitch": 83, "duration": 7, "velocity": 76}, {"time": 2418, "pitch": 81, "duration": 35, "velocity": 76}, {"time": 2466, "pitch": 78, "duration": 13, "velocity": 75}, {"time": 2484, "pitch": 76, "duration": 3, "velocity": 75}, {"time": 2490, "pitch": 81, "duration": 5, "velocity": 75}, {"time": 2496, "pitch": 74, "duration": 7, "velocity": 75}, {"time": 2502, "pitch": 78, "duration": 7, "velocity": 75}, {"time": 2508, "pitch": 81, "duration": 7, "velocity": 75}, {"time": 2514, "pitch": 79, "duration": 40, "velocity": 75}, {"time": 2562, "pitch": 67, "duration": 12, "velocity": 75}, {"time": 2580, "pitch": 69, "duration": 7, "velocity": 75}, {"time": 2586, "pitch": 71, "duration": 6, "velocity": 75}, {"time": 2592, "pitch": 74, "duration": 4, "velocity": 75}, {"time": 2598, "pitch": 83, "duration": 12, "velocity": 75}, {"time": 2604, "pitch": 81, "duration": 12, "velocity": 75}, {"time": 2610, "pitch": 79, "duration": 35, "velocity": 75}, {"time": 2658, "pitch": 81, "duration": 13, "velocity": 75}, {"time": 2676, "pitch": 83, "duration": 3, "velocity": 75}, {"time": 2682, "pitch": 78, "duration": 7, "velocity": 75}, {"time": 2688, "pitch": 81, "duration": 6, "velocity": 75}, {"time": 2694, "pitch": 76, "duration": 6, "velocity": 75}, {"time": 2700, "pitch": 78, "duration": 6, "velocity": 75}, {"time": 2706, "pitch": 74, "duration": 42, "velocity": 75}, {"time": 2754, "pitch": 71, "duration": 15, "velocity": 75}, {"time": 2772, "pitch": 74, "duration": 6, "velocity": 75}, {"time": 2778, "pitch": 76, "duration": 7, "velocity": 75}, {"time": 2784, "pitch": 79, "duration": 5, "velocity": 75}, {"time": 2790, "pitch": 81, "duration": 4, "velocity": 75}, {"time": 2796, "pitch": 83, "duration": 7, "velocity": 75}, {"time": 2808, "pitch": 81, "duration": 29, "velocity": 75}, {"time": 2850, "pitch": 78, "duration": 13, "velocity": 75}, {"time": 2868, "pitch": 76, "duration": 3, "velocity": 75}, {"time": 2874, "pitch": 81, "duration": 5, "velocity": 75}, {"time": 2880, "pitch": 74, "duration": 6, "velocity": 75}, {"time": 2886, "pitch": 78, "duration": 4, "velocity": 75}, {"time": 2892, "pitch": 81, "duration": 4, "velocity": 75}, {"time": 2898, "pitch": 79, "duration": 29, "velocity": 75}], "annotations": [{"time": 126, "annotation": {"number": 64, "value": 80}, "group": "control_change"}, {"time": 218, "annotation": {"number": 64, "value": 81}, "group": "control_change"}, {"time": 310, "annotation": {"number": 64, "value": 82}, "group": "control_change"}, {"time": 402, "annotation": {"number": 64, "value": 83}, "group": "control_change"}]}, {"program": 0, "is_drum": false, "name": "PIANO", "notes": [{"time": 66, "pitch": 43, "duration": 44, "velocity": 73}, {"time": 72, "pitch": 50, "duration": 38, "velocity": 65}, {"time": 75, "pitch": 55, "duration": 20, "velocity": 62}, {"time": 78, "pitch": 57, "duration": 7, "velocity": 61}, {"time": 84, "pitch": 62, "duration": 9, "velocity": 65}, {"time": 96, "pitch": 55, "duration": 7, "velocity": 59}, {"time": 102, "pitch": 57, "duration": 6, "velocity": 74}, {"time": 108, "pitch": 59, "duration": 6, "velocity": 73}, {"time": 114, "pitch": 43, "duration": 44, "velocity": 73}, {"time": 120, "pitch": 50, "duration": 38, "velocity": 65}, {"time": 123, "pitch": 55, "duration": 20, "velocity": 62}, {"time": 126, "pitch": 57, "duration": 7, "velocity": 61}, {"time": 132, "pitch": 62, "duration": 9, "velocity": 65}, {"time": 144, "pitch": 55, "duration": 12, "velocity": 71}, {"time": 150, "pitch": 57, "duration": 6, "velocity": 74}, {"time": 156, "pitch": 50, "duration": 2, "velocity": 73}, {"time": 162, "pitch": 43, "duration": 35, "velocity": 65}, {"time": 168, "pitch": 50, "duration": 9, "velocity": 60}, {"time": 171, "pitch": 55, "duration": 4, "velocity": 57}, {"time": 174, "pitch": 57, "duration": 6, "velocity": 70}, {"time": 180, "pitch": 50, "duration": 6, "velocity": 64}, {"time": 186, "pitch": 55, "duration": 6, "velocity": 64}, {"time": 192, "pitch": 62, "duration": 12, "velocity": 69}, {"time": 198, "pitch": 57, "duration": 6, "velocity": 68}, {"time": 204, "pitch": 55, "duration": 6, "velocity": 68}, {"time": 210, "pitch": 43, "duration": 38, "velocity": 63}, {"time": 216, "pitch": 50, "duration": 6, "velocity": 63}, {"time": 222, "pitch": 55, "duration": 4, "velocity": 60}, {"time": 228, "pitch": 50, "duration": 7, "velocity": 59}, {"time": 234, "pitch": 55, "duration": 7, "velocity": 61}, {"time": 240, "pitch": 62, "duration": 5, "velocity": 59}, {"time": 246, "pitch": 57, "duration": 3, "velocity": 58}, {"time": 252, "pitch": 55, "duration": 7, "velocity": 62}, {"time": 258, "pitch": 43, "duration": 48, "velocity": 58}, {"time": 264, "pitch": 50, "duration": 42, "velocity": 69}, {"time": 267, "pitch": 55, "duration": 27, "velocity": 73}, {"time": 270, "pitch": 57, "duration": 5, "velocity": 69}, {"time": 276, "pitch": 57, "duration": 11, "velocity": 65}, {"time": 276, "pitch": 62, "duration": 11, "velocity": 71}, {"time": 288, "pitch": 57, "duration": 9, "velocity": 68}, {"time": 288, "pitch": 62, "duration": 9, "velocity": 75}, {"time": 300, "pitch": 57, "duration": 6, "velocity": 66}, {"time": 300, "pitch": 62, "duration": 5, "velocity": 73}, {"time": 306, "pitch": 43, "duration": 43, "velocity": 72}, {"time": 312, "pitch": 50, "duration": 42, "velocity": 68}, {"time": 315, "pitch": 55, "duration": 24, "velocity": 54}, {"time": 318, "pitch": 57, "duration": 5, "velocity": 72}, {"time": 324, "pitch": 57, "duration": 3, "velocity": 54}, {"time": 324, "pitch": 62, "duration": 4, "velocity": 61}, {"time": 336, "pitch": 57, "duration": 8, "velocity": 61}, {"time": 336, "pitch": 62, "duration": 8, "velocity": 67}, {"time": 342, "pitch": 55, "duration": 6, "velocity": 58}, {"time": 348, "pitch": 57, "duration": 7, "velocity": 74}, {"time": 348, "pitch": 62, "duration": 7, "velocity": 71}, {"time": 354, "pitch": 45, "duration": 40, "velocity": 71}, {"time": 357, "pitch": 52, "duration": 33, "velocity": 65}, {"time": 360, "pitch": 57, "duration": 29, "velocity": 56}, {"time": 360, "pitch": 60, "duration": 1, "velocity": 56}, {"time": 366, "pitch": 60, "duration": 2, "velocity": 67}, {"time": 372, "pitch": 60, "duration": 2, "velocity": 60}, {"time": 372, "pitch": 64, "duration": 2, "velocity": 73}, {"time": 384, "pitch": 60, "duration": 8, "velocity": 69}, {"time": 384, "pitch": 64, "duration": 8, "velocity": 76}, {"time": 396, "pitch": 60, "duration": 7, "velocity": 72}, {"time": 396, "pitch": 64, "duration": 7, "velocity": 72}, {"time": 402, "pitch": 38, "duration": 44, "velocity": 81}, {"time": 408, "pitch": 45, "duration": 40, "velocity": 58}, {"time": 411, "pitch": 50, "duration": 25, "velocity": 67}, {"time": 420, "pitch": 54, "duration": 2, "velocity": 79}, {"time": 420, "pitch": 57, "duration": 1, "velocity": 69}, {"time": 432, "pitch": 54, "duration": 7, "velocity": 79}, {"time": 432, "pitch": 57, "duration": 6, "velocity": 70}, {"time": 438, "pitch": 50, "duration": 8, "velocity": 66}, {"time": 444, "pitch": 54, "duration": 4, "velocity": 65}, {"time": 444, "pitch": 57, "duration": 3, "velocity": 74}, {"time": 450, "pitch": 43, "duration": 44, "velocity": 71}, {"time": 456, "pitch": 50, "duration": 16, "velocity": 74}, {"time": 459, "pitch": 55, "duration": 11, "velocity": 63}, {"time": 462, "pitch": 57, "duration": 3, "velocity": 65}, {"time": 462, "pitch": 62, "duration": 3, "velocity": 67}, {"time": 468, "pitch": 57, "duration": 10, "velocity": 63}, {"time": 468, "pitch": 62, "duration": 10, "velocity": 69}, {"time": 474, "pitch": 50, "duration": 23, "velocity": 63}, {"time": 480, "pitch": 55, "duration": 5, "velocity": 12}, {"time": 480, "pitch": 57, "duration": 10, "velocity": 60}, {"time": 480, "pitch": 62, "duration": 10, "velocity": 73}, {"time": 486, "pitch": 55, "duration": 7, "velocity": 58}, {"time": 492, "pitch": 57, "duration": 8, "velocity": 63}, {"time": 492, "pitch": 62, "duration": 7, "velocity": 70}, {"time": 498, "pitch": 45, "duration": 43, "velocity": 64}, {"time": 504, "pitch": 52, "duration": 37, "velocity": 60}, {"time": 507, "pitch": 57, "duration": 26, "velocity": 64}, {"time": 510, "pitch": 60, "duration": 4, "velocity": 72}, {"time": 516, "pitch": 60, "duration": 2, "velocity": 60}, {"time": 516, "pitch": 64, "duration": 2, "velocity": 67}, {"time": 528, "pitch": 60, "duration": 10, "velocity": 62}, {"time": 528, "pitch": 64, "duration": 10, "velocity": 75}, {"time": 534, "pitch": 57, "duration": 5, "velocity": 61}, {"time": 540, "pitch": 60, "duration": 8, "velocity": 59}, {"time": 540, "pitch": 64, "duration": 7, "velocity": 65}, {"time": 546, "pitch": 38, "duration": 39, "velocity": 60}, {"time": 552, "pitch": 45, "duration": 33, "velocity": 54}, {"time": 558, "pitch": 50, "duration": 12, "velocity": 59}, {"time": 564, "pitch": 54, "duration": 18, "velocity": 76}, {"time": 570, "pitch": 57, "duration": 11, "velocity": 73}, {"time": 576, "pitch": 50, "duration": 7, "velocity": 59}, {"time": 582, "pitch": 54, "duration": 12, "velocity": 71}, {"time": 582, "pitch": 57, "duration": 12, "velocity": 83}, {"time": 582, "pitch": 62, "duration": 5, "velocity": 70}, {"time": 594, "pitch": 43, "duration": 43, "velocity": 74}, {"time": 600, "pitch": 50, "duration": 36, "velocity": 64}, {"time": 606, "pitch": 55, "duration": 8, "velocity": 63}, {"time": 612, "pitch": 59, "duration": 10, "velocity": 66}, {"time": 612, "pitch": 62, "duration": 10, "velocity": 67}, {"time": 618, "pitch": 55, "duration": 15, "velocity": 62}, {"time": 624, "pitch": 59, "duration": 21, "velocity": 54}, {"time": 630, "pitch": 67, "duration": 13, "velocity": 85}, {"time": 642, "pitch": 43, "duration": 46, "velocity": 74}, {"time": 648, "pitch": 50, "duration": 39, "velocity": 70}, {"time": 651, "pitch": 55, "duration": 14, "velocity": 71}, {"time": 654, "pitch": 57, "duration": 14, "velocity": 76}, {"time": 660, "pitch": 62, "duration": 8, "velocity": 74}, {"time": 660, "pitch": 67, "duration": 8, "velocity": 65}, {"time": 666, "pitch": 55, "duration": 5, "velocity": 52}, {"time": 672, "pitch": 57, "duration": 10, "velocity": 71}, {"time": 672, "pitch": 62, "duration": 10, "velocity": 74}, {"time": 672, "pitch": 67, "duration": 8, "velocity": 70}, {"time": 678, "pitch": 55, "duration": 8, "velocity": 61}, {"time": 684, "pitch": 57, "duration": 13, "velocity": 70}, {"time": 684, "pitch": 62, "duration": 13, "velocity": 74}, {"time": 690, "pitch": 43, "duration": 41, "velocity": 67}, {"time": 696, "pitch": 50, "duration": 41, "velocity": 66}, {"time": 699, "pitch": 55, "duration": 13, "velocity": 71}, {"time": 702, "pitch": 57, "duration": 3, "velocity": 59}, {"time": 702, "pitch": 62, "duration": 2, "velocity": 60}, {"time": 708, "pitch": 57, "duration": 9, "velocity": 63}, {"time": 708, "pitch": 62, "duration": 9, "velocity": 77}, {"time": 714, "pitch": 55, "duration": 10, "velocity": 61}, {"time": 720, "pitch": 57, "duration": 9, "velocity": 62}, {"time": 720, "pitch": 62, "duration": 10, "velocity": 73}, {"time": 720, "pitch": 67, "duration": 10, "velocity": 79}, {"time": 726, "pitch": 55, "duration": 7, "velocity": 59}, {"time": 732, "pitch": 57, "duration": 7, "velocity": 74}, {"time": 738, "pitch": 45, "duration": 44, "velocity": 69}, {"time": 744, "pitch": 52, "duration": 37, "velocity": 60}, {"time": 747, "pitch": 57, "duration": 12, "velocity": 61}, {"time": 750, "pitch": 60, "duration": 5, "velocity": 71}, {"time": 756, "pitch": 60, "duration": 10, "velocity": 61}, {"time": 756, "pitch": 64, "duration": 10, "velocity": 72}, {"time": 756, "pitch": 69, "duration": 10, "velocity": 71}, {"time": 762, "pitch": 57, "duration": 6, "velocity": 43}, {"time": 768, "pitch": 60, "duration": 9, "velocity": 66}, {"time": 768, "pitch": 64, "duration": 9, "velocity": 75}, {"time": 768, "pitch": 69, "duration": 8, "velocity": 65}, {"time": 774, "pitch": 57, "duration": 4, "velocity": 63}, {"time": 780, "pitch": 60, "duration": 7, "velocity": 62}, {"time": 780, "pitch": 64, "duration": 6, "velocity": 64}, {"time": 780, "pitch": 69, "duration": 6, "velocity": 57}, {"time": 786, "pitch": 38, "duration": 41, "velocity": 65}, {"time": 792, "pitch": 45, "duration": 36, "velocity": 55}, {"time": 795, "pitch": 50, "duration": 10, "velocity": 62}, {"time": 798, "pitch": 42, "duration": 30, "velocity": 61}, {"time": 804, "pitch": 54, "duration": 10, "velocity": 68}, {"time": 804, "pitch": 57, "duration": 8, "velocity": 74}, {"time": 810, "pitch": 50, "duration": 7, "velocity": 59}, {"time": 816, "pitch": 54, "duration": 8, "velocity": 76}, {"time": 816, "pitch": 57, "duration": 7, "velocity": 74}, {"time": 822, "pitch": 50, "duration": 6, "velocity": 63}, {"time": 828, "pitch": 54, "duration": 7, "velocity": 79}, {"time": 828, "pitch": 57, "duration": 6, "velocity": 58}, {"time": 834, "pitch": 43, "duration": 22, "velocity": 74}, {"time": 840, "pitch": 50, "duration": 16, "velocity": 67}, {"time": 843, "pitch": 55, "duration": 12, "velocity": 61}, {"time": 846, "pitch": 57, "duration": 2, "velocity": 65}, {"time": 852, "pitch": 59, "duration": 9, "velocity": 62}, {"time": 852, "pitch": 62, "duration": 9, "velocity": 75}, {"time": 852, "pitch": 67, "duration": 8, "velocity": 70}, {"time": 858, "pitch": 43, "duration": 20, "velocity": 62}, {"time": 864, "pitch": 59, "duration": 10, "velocity": 72}, {"time": 864, "pitch": 62, "duration": 10, "velocity": 73}, {"time": 864, "pitch": 67, "duration": 9, "velocity": 67}, {"time": 867, "pitch": 50, "duration": 11, "velocity": 12}, {"time": 870, "pitch": 55, "duration": 8, "velocity": 60}, {"time": 876, "pitch": 59, "duration": 7, "velocity": 69}, {"time": 876, "pitch": 62, "duration": 6, "velocity": 74}, {"time": 876, "pitch": 67, "duration": 6, "velocity": 67}, {"time": 882, "pitch": 45, "duration": 38, "velocity": 71}, {"time": 888, "pitch": 52, "duration": 30, "velocity": 60}, {"time": 891, "pitch": 57, "duration": 13, "velocity": 60}, {"time": 894, "pitch": 60, "duration": 4, "velocity": 70}, {"time": 894, "pitch": 64, "duration": 3, "velocity": 58}, {"time": 900, "pitch": 60, "duration": 15, "velocity": 62}, {"time": 900, "pitch": 64, "duration": 15, "velocity": 74}, {"time": 900, "pitch": 69, "duration": 14, "velocity": 69}, {"time": 912, "pitch": 57, "duration": 5, "velocity": 59}, {"time": 918, "pitch": 60, "duration": 13, "velocity": 79}, {"time": 918, "pitch": 64, "duration": 13, "velocity": 83}, {"time": 918, "pitch": 69, "duration": 13, "velocity": 74}, {"time": 930, "pitch": 38, "duration": 39, "velocity": 77}, {"time": 936, "pitch": 45, "duration": 34, "velocity": 56}, {"time": 942, "pitch": 54, "duration": 10, "velocity": 74}, {"time": 942, "pitch": 57, "duration": 8, "velocity": 64}, {"time": 948, "pitch": 42, "duration": 20, "velocity": 36}, {"time": 948, "pitch": 50, "duration": 8, "velocity": 63}, {"time": 954, "pitch": 54, "duration": 2, "velocity": 54}, {"time": 957, "pitch": 50, "duration": 5, "velocity": 54}, {"time": 960, "pitch": 54, "duration": 8, "velocity": 81}, {"time": 960, "pitch": 57, "duration": 7, "velocity": 68}, {"time": 966, "pitch": 50, "duration": 6, "velocity": 62}, {"time": 972, "pitch": 54, "duration": 7, "velocity": 83}, {"time": 972, "pitch": 57, "duration": 6, "velocity": 65}, {"time": 978, "pitch": 43, "duration": 23, "velocity": 74}, {"time": 984, "pitch": 50, "duration": 17, "velocity": 66}, {"time": 987, "pitch": 55, "duration": 11, "velocity": 70}, {"time": 990, "pitch": 59, "duration": 4, "velocity": 62}, {"time": 990, "pitch": 62, "duration": 4, "velocity": 53}, {"time": 990, "pitch": 67, "duration": 4, "velocity": 68}, {"time": 996, "pitch": 59, "duration": 10, "velocity": 70}, {"time": 996, "pitch": 62, "duration": 10, "velocity": 77}, {"time": 996, "pitch": 67, "duration": 9, "velocity": 75}, {"time": 1002, "pitch": 43, "duration": 18, "velocity": 15}, {"time": 1008, "pitch": 59, "duration": 16, "velocity": 79}, {"time": 1008, "pitch": 62, "duration": 12, "velocity": 81}, {"time": 1008, "pitch": 67, "duration": 12, "velocity": 79}, {"time": 1014, "pitch": 50, "duration": 8, "velocity": 67}, {"time": 1026, "pitch": 47, "duration": 17, "velocity": 63}, {"time": 1026, "pitch": 59, "duration": 7, "velocity": 28}, {"time": 1026, "pitch": 62, "duration": 8, "velocity": 53}, {"time": 1026, "pitch": 66, "duration": 8, "velocity": 64}, {"time": 1038, "pitch": 59, "duration": 5, "velocity": 53}, {"time": 1038, "pitch": 62, "duration": 5, "velocity": 49}, {"time": 1038, "pitch": 66, "duration": 5, "velocity": 56}, {"time": 1047, "pitch": 47, "duration": 4, "velocity": 43}, {"time": 1047, "pitch": 59, "duration": 3, "velocity": 44}, {"time": 1047, "pitch": 62, "duration": 3, "velocity": 40}, {"time": 1047, "pitch": 66, "duration": 3, "velocity": 51}, {"time": 1053, "pitch": 59, "duration": 3, "velocity": 53}, {"time": 1053, "pitch": 62, "duration": 3, "velocity": 47}, {"time": 1053, "pitch": 66, "duration": 3, "velocity": 49}, {"time": 1056, "pitch": 47, "duration": 6, "velocity": 55}, {"time": 1056, "pitch": 54, "duration": 6, "velocity": 67}, {"time": 1062, "pitch": 59, "duration": 7, "velocity": 62}, {"time": 1062, "pitch": 62, "duration": 8, "velocity": 63}, {"time": 1062, "pitch": 66, "duration": 8, "velocity": 68}, {"time": 1065, "pitch": 54, "duration": 1, "velocity": 28}, {"time": 1068, "pitch": 54, "duration": 2, "velocity": 72}, {"time": 1074, "pitch": 40, "duration": 36, "velocity": 74}, {"time": 1083, "pitch": 52, "duration": 4, "velocity": 47}, {"time": 1086, "pitch": 55, "duration": 4, "velocity": 67}, {"time": 1086, "pitch": 59, "duration": 4, "velocity": 69}, {"time": 1086, "pitch": 64, "duration": 4, "velocity": 72}, {"time": 1095, "pitch": 55, "duration": 2, "velocity": 59}, {"time": 1095, "pitch": 59, "duration": 3, "velocity": 62}, {"time": 1095, "pitch": 64, "duration": 3, "velocity": 67}, {"time": 1101, "pitch": 55, "duration": 1, "velocity": 65}, {"time": 1101, "pitch": 59, "duration": 3, "velocity": 65}, {"time": 1101, "pitch": 64, "duration": 3, "velocity": 68}, {"time": 1104, "pitch": 52, "duration": 6, "velocity": 67}, {"time": 1110, "pitch": 55, "duration": 3, "velocity": 74}, {"time": 1110, "pitch": 59, "duration": 7, "velocity": 67}, {"time": 1110, "pitch": 64, "duration": 6, "velocity": 72}, {"time": 1113, "pitch": 52, "duration": 10, "velocity": 54}, {"time": 1116, "pitch": 40, "duration": 6, "velocity": 56}, {"time": 1122, "pitch": 45, "duration": 15, "velocity": 59}, {"time": 1122, "pitch": 57, "duration": 6, "velocity": 50}, {"time": 1122, "pitch": 60, "duration": 7, "velocity": 59}, {"time": 1122, "pitch": 64, "duration": 7, "velocity": 59}, {"time": 1134, "pitch": 57, "duration": 5, "velocity": 68}, {"time": 1134, "pitch": 60, "duration": 6, "velocity": 67}, {"time": 1134, "pitch": 64, "duration": 6, "velocity": 67}, {"time": 1143, "pitch": 57, "duration": 3, "velocity": 64}, {"time": 1143, "pitch": 60, "duration": 3, "velocity": 59}, {"time": 1143, "pitch": 64, "duration": 3, "velocity": 56}, {"time": 1149, "pitch": 57, "duration": 3, "velocity": 64}, {"time": 1149, "pitch": 60, "duration": 4, "velocity": 56}, {"time": 1149, "pitch": 64, "duration": 4, "velocity": 58}, {"time": 1152, "pitch": 45, "duration": 6, "velocity": 77}, {"time": 1158, "pitch": 57, "duration": 7, "velocity": 81}, {"time": 1158, "pitch": 60, "duration": 8, "velocity": 77}, {"time": 1158, "pitch": 64, "duration": 8, "velocity": 72}, {"time": 1161, "pitch": 52, "duration": 4, "velocity": 72}, {"time": 1164, "pitch": 45, "duration": 2, "velocity": 59}, {"time": 1170, "pitch": 38, "duration": 36, "velocity": 74}, {"time": 1179, "pitch": 50, "duration": 5, "velocity": 46}, {"time": 1182, "pitch": 57, "duration": 5, "velocity": 65}, {"time": 1182, "pitch": 62, "duration": 5, "velocity": 63}, {"time": 1182, "pitch": 66, "duration": 5, "velocity": 74}, {"time": 1191, "pitch": 57, "duration": 2, "velocity": 61}, {"time": 1191, "pitch": 62, "duration": 2, "velocity": 51}, {"time": 1191, "pitch": 66, "duration": 3, "velocity": 61}, {"time": 1197, "pitch": 57, "duration": 3, "velocity": 67}, {"time": 1197, "pitch": 62, "duration": 3, "velocity": 62}, {"time": 1197, "pitch": 66, "duration": 3, "velocity": 61}, {"time": 1200, "pitch": 50, "duration": 8, "velocity": 72}, {"time": 1206, "pitch": 57, "duration": 7, "velocity": 85}, {"time": 1206, "pitch": 62, "duration": 7, "velocity": 71}, {"time": 1206, "pitch": 66, "duration": 7, "velocity": 79}, {"time": 1209, "pitch": 38, "duration": 9, "velocity": 77}, {"time": 1212, "pitch": 50, "duration": 7, "velocity": 69}, {"time": 1218, "pitch": 43, "duration": 40, "velocity": 79}, {"time": 1227, "pitch": 50, "duration": 17, "velocity": 44}, {"time": 1230, "pitch": 59, "duration": 5, "velocity": 71}, {"time": 1230, "pitch": 62, "duration": 5, "velocity": 65}, {"time": 1230, "pitch": 67, "duration": 5, "velocity": 76}, {"time": 1239, "pitch": 59, "duration": 2, "velocity": 57}, {"time": 1239, "pitch": 62, "duration": 3, "velocity": 57}, {"time": 1239, "pitch": 67, "duration": 3, "velocity": 67}, {"time": 1245, "pitch": 59, "duration": 2, "velocity": 64}, {"time": 1245, "pitch": 62, "duration": 2, "velocity": 62}, {"time": 1245, "pitch": 67, "duration": 3, "velocity": 61}, {"time": 1248, "pitch": 50, "duration": 7, "velocity": 64}, {"time": 1254, "pitch": 59, "duration": 6, "velocity": 77}, {"time": 1254, "pitch": 62, "duration": 6, "velocity": 61}, {"time": 1254, "pitch": 67, "duration": 6, "velocity": 78}, {"time": 1257, "pitch": 50, "duration": 4, "velocity": 50}, {"time": 1260, "pitch": 43, "duration": 1, "velocity": 62}, {"time": 1266, "pitch": 41, "duration": 39, "velocity": 63}, {"time": 1266, "pitch": 57, "duration": 7, "velocity": 58}, {"time": 1266, "pitch": 60, "duration": 7, "velocity": 63}, {"time": 1266, "pitch": 65, "duration": 8, "velocity": 66}, {"time": 1275, "pitch": 53, "duration": 6, "velocity": 47}, {"time": 1278, "pitch": 57, "duration": 4, "velocity": 81}, {"time": 1278, "pitch": 60, "duration": 5, "velocity": 74}, {"time": 1278, "pitch": 65, "duration": 5, "velocity": 78}, {"time": 1287, "pitch": 57, "duration": 2, "velocity": 71}, {"time": 1287, "pitch": 60, "duration": 2, "velocity": 71}, {"time": 1287, "pitch": 65, "duration": 2, "velocity": 70}, {"time": 1293, "pitch": 57, "duration": 2, "velocity": 75}, {"time": 1293, "pitch": 60, "duration": 3, "velocity": 65}, {"time": 1293, "pitch": 65, "duration": 3, "velocity": 70}, {"time": 1296, "pitch": 53, "duration": 6, "velocity": 62}, {"time": 1302, "pitch": 57, "duration": 4, "velocity": 77}, {"time": 1302, "pitch": 60, "duration": 5, "velocity": 75}, {"time": 1302, "pitch": 65, "duration": 5, "velocity": 82}, {"time": 1305, "pitch": 53, "duration": 3, "velocity": 64}, {"time": 1308, "pitch": 41, "duration": 1, "velocity": 72}, {"time": 1314, "pitch": 38, "duration": 39, "velocity": 59}, {"time": 1314, "pitch": 57, "duration": 7, "velocity": 53}, {"time": 1314, "pitch": 62, "duration": 7, "velocity": 56}, {"time": 1314, "pitch": 66, "duration": 7, "velocity": 62}, {"time": 1323, "pitch": 50, "duration": 18, "velocity": 53}, {"time": 1326, "pitch": 57, "duration": 5, "velocity": 81}, {"time": 1326, "pitch": 62, "duration": 5, "velocity": 71}, {"time": 1326, "pitch": 66, "duration": 5, "velocity": 83}, {"time": 1335, "pitch": 57, "duration": 2, "velocity": 65}, {"time": 1335, "pitch": 62, "duration": 3, "velocity": 57}, {"time": 1335, "pitch": 66, "duration": 3, "velocity": 75}, {"time": 1341, "pitch": 57, "duration": 3, "velocity": 77}, {"time": 1341, "pitch": 62, "duration": 3, "velocity": 67}, {"time": 1341, "pitch": 66, "duration": 3, "velocity": 74}, {"time": 1344, "pitch": 50, "duration": 7, "velocity": 84}, {"time": 1350, "pitch": 57, "duration": 6, "velocity": 76}, {"time": 1350, "pitch": 62, "duration": 6, "velocity": 69}, {"time": 1350, "pitch": 66, "duration": 7, "velocity": 79}, {"time": 1353, "pitch": 50, "duration": 10, "velocity": 58}, {"time": 1356, "pitch": 38, "duration": 7, "velocity": 72}, {"time": 1362, "pitch": 43, "duration": 38, "velocity": 67}, {"time": 1362, "pitch": 59, "duration": 7, "velocity": 57}, {"time": 1362, "pitch": 62, "duration": 7, "velocity": 62}, {"time": 1362, "pitch": 67, "duration": 7, "velocity": 66}, {"time": 1371, "pitch": 55, "duration": 19, "velocity": 65}, {"time": 1374, "pitch": 59, "duration": 6, "velocity": 75}, {"time": 1374, "pitch": 62, "duration": 6, "velocity": 72}, {"time": 1374, "pitch": 67, "duration": 6, "velocity": 73}, {"time": 1383, "pitch": 59, "duration": 6, "velocity": 57}, {"time": 1383, "pitch": 62, "duration": 7, "velocity": 44}, {"time": 1383, "pitch": 67, "duration": 6, "velocity": 55}, {"time": 1389, "pitch": 50, "duration": 11, "velocity": 63}, {"time": 1392, "pitch": 59, "duration": 2, "velocity": 76}, {"time": 1392, "pitch": 62, "duration": 3, "velocity": 71}, {"time": 1392, "pitch": 67, "duration": 3, "velocity": 80}, {"time": 1395, "pitch": 55, "duration": 5, "velocity": 69}, {"time": 1398, "pitch": 59, "duration": 1, "velocity": 81}, {"time": 1398, "pitch": 62, "duration": 2, "velocity": 79}, {"time": 1398, "pitch": 67, "duration": 1, "velocity": 78}, {"time": 1410, "pitch": 43, "duration": 44, "velocity": 74}, {"time": 1416, "pitch": 50, "duration": 39, "velocity": 63}, {"time": 1416, "pitch": 55, "duration": 11, "velocity": 60}, {"time": 1422, "pitch": 57, "duration": 17, "velocity": 74}, {"time": 1428, "pitch": 62, "duration": 10, "velocity": 60}, {"time": 1428, "pitch": 67, "duration": 10, "velocity": 72}, {"time": 1434, "pitch": 55, "duration": 8, "velocity": 58}, {"time": 1440, "pitch": 59, "duration": 11, "velocity": 65}, {"time": 1440, "pitch": 62, "duration": 10, "velocity": 69}, {"time": 1440, "pitch": 67, "duration": 10, "velocity": 83}, {"time": 1446, "pitch": 55, "duration": 6, "velocity": 58}, {"time": 1452, "pitch": 59, "duration": 8, "velocity": 67}, {"time": 1452, "pitch": 62, "duration": 7, "velocity": 68}, {"time": 1452, "pitch": 67, "duration": 6, "velocity": 69}, {"time": 1458, "pitch": 43, "duration": 41, "velocity": 69}, {"time": 1464, "pitch": 50, "duration": 36, "velocity": 62}, {"time": 1467, "pitch": 55, "duration": 15, "velocity": 70}, {"time": 1470, "pitch": 57, "duration": 3, "velocity": 64}, {"time": 1470, "pitch": 62, "duration": 3, "velocity": 68}, {"time": 1470, "pitch": 67, "duration": 3, "velocity": 68}, {"time": 1476, "pitch": 59, "duration": 16, "velocity": 63}, {"time": 1476, "pitch": 62, "duration": 15, "velocity": 68}, {"time": 1476, "pitch": 67, "duration": 14, "velocity": 67}, {"time": 1488, "pitch": 55, "duration": 7, "velocity": 59}, {"time": 1494, "pitch": 59, "duration": 7, "velocity": 77}, {"time": 1494, "pitch": 62, "duration": 7, "velocity": 83}, {"time": 1506, "pitch": 45, "duration": 40, "velocity": 63}, {"time": 1506, "pitch": 60, "duration": 10, "velocity": 75}, {"time": 1506, "pitch": 64, "duration": 10, "velocity": 79}, {"time": 1512, "pitch": 52, "duration": 32, "velocity": 58}, {"time": 1518, "pitch": 60, "duration": 11, "velocity": 65}, {"time": 1518, "pitch": 64, "duration": 11, "velocity": 74}, {"time": 1518, "pitch": 69, "duration": 11, "velocity": 73}, {"time": 1524, "pitch": 57, "duration": 10, "velocity": 57}, {"time": 1530, "pitch": 60, "duration": 10, "velocity": 65}, {"time": 1530, "pitch": 64, "duration": 10, "velocity": 73}, {"time": 1530, "pitch": 69, "duration": 10, "velocity": 70}, {"time": 1536, "pitch": 57, "duration": 5, "velocity": 58}, {"time": 1542, "pitch": 60, "duration": 5, "velocity": 67}, {"time": 1542, "pitch": 64, "duration": 5, "velocity": 74}, {"time": 1542, "pitch": 69, "duration": 5, "velocity": 71}, {"time": 1554, "pitch": 38, "duration": 39, "velocity": 70}, {"time": 1554, "pitch": 54, "duration": 10, "velocity": 68}, {"time": 1554, "pitch": 57, "duration": 10, "velocity": 73}, {"time": 1560, "pitch": 45, "duration": 34, "velocity": 52}, {"time": 1566, "pitch": 54, "duration": 10, "velocity": 73}, {"time": 1566, "pitch": 57, "duration": 8, "velocity": 77}, {"time": 1572, "pitch": 50, "duration": 8, "velocity": 62}, {"time": 1578, "pitch": 54, "duration": 9, "velocity": 70}, {"time": 1578, "pitch": 57, "duration": 8, "velocity": 81}, {"time": 1584, "pitch": 50, "duration": 10, "velocity": 67}, {"time": 1587, "pitch": 42, "duration": 7, "velocity": 36}, {"time": 1590, "pitch": 54, "duration": 5, "velocity": 81}, {"time": 1590, "pitch": 57, "duration": 4, "velocity": 81}, {"time": 1602, "pitch": 43, "duration": 43, "velocity": 74}, {"time": 1602, "pitch": 59, "duration": 10, "velocity": 62}, {"time": 1602, "pitch": 62, "duration": 10, "velocity": 62}, {"time": 1602, "pitch": 67, "duration": 10, "velocity": 64}, {"time": 1608, "pitch": 50, "duration": 41, "velocity": 64}, {"time": 1614, "pitch": 59, "duration": 10, "velocity": 63}, {"time": 1614, "pitch": 62, "duration": 10, "velocity": 66}, {"time": 1614, "pitch": 67, "duration": 9, "velocity": 74}, {"time": 1620, "pitch": 55, "duration": 8, "velocity": 53}, {"time": 1626, "pitch": 59, "duration": 10, "velocity": 67}, {"time": 1626, "pitch": 62, "duration": 11, "velocity": 73}, {"time": 1626, "pitch": 67, "duration": 10, "velocity": 74}, {"time": 1632, "pitch": 55, "duration": 7, "velocity": 61}, {"time": 1638, "pitch": 59, "duration": 7, "velocity": 74}, {"time": 1638, "pitch": 62, "duration": 6, "velocity": 74}, {"time": 1638, "pitch": 67, "duration": 6, "velocity": 77}, {"time": 1644, "pitch": 55, "duration": 5, "velocity": 60}, {"time": 1650, "pitch": 45, "duration": 41, "velocity": 60}, {"time": 1650, "pitch": 60, "duration": 11, "velocity": 63}, {"time": 1650, "pitch": 64, "duration": 11, "velocity": 60}, {"time": 1650, "pitch": 69, "duration": 11, "velocity": 57}, {"time": 1656, "pitch": 52, "duration": 32, "velocity": 54}, {"time": 1662, "pitch": 60, "duration": 11, "velocity": 63}, {"time": 1662, "pitch": 64, "duration": 11, "velocity": 70}, {"time": 1662, "pitch": 69, "duration": 10, "velocity": 72}, {"time": 1668, "pitch": 57, "duration": 7, "velocity": 44}, {"time": 1674, "pitch": 60, "duration": 10, "velocity": 64}, {"time": 1674, "pitch": 64, "duration": 10, "velocity": 73}, {"time": 1674, "pitch": 69, "duration": 10, "velocity": 74}, {"time": 1680, "pitch": 57, "duration": 4, "velocity": 46}, {"time": 1686, "pitch": 60, "duration": 5, "velocity": 68}, {"time": 1686, "pitch": 64, "duration": 5, "velocity": 81}, {"time": 1686, "pitch": 69, "duration": 5, "velocity": 79}, {"time": 1698, "pitch": 38, "duration": 43, "velocity": 76}, {"time": 1698, "pitch": 54, "duration": 11, "velocity": 74}, {"time": 1698, "pitch": 57, "duration": 10, "velocity": 81}, {"time": 1698, "pitch": 62, "duration": 7, "velocity": 67}, {"time": 1704, "pitch": 45, "duration": 37, "velocity": 59}, {"time": 1710, "pitch": 54, "duration": 10, "velocity": 72}, {"time": 1710, "pitch": 57, "duration": 7, "velocity": 81}, {"time": 1716, "pitch": 42, "duration": 23, "velocity": 70}, {"time": 1716, "pitch": 50, "duration": 20, "velocity": 52}, {"time": 1722, "pitch": 54, "duration": 10, "velocity": 73}, {"time": 1722, "pitch": 57, "duration": 9, "velocity": 81}, {"time": 1722, "pitch": 62, "duration": 5, "velocity": 63}, {"time": 1734, "pitch": 54, "duration": 6, "velocity": 77}, {"time": 1734, "pitch": 57, "duration": 6, "velocity": 81}, {"time": 1734, "pitch": 62, "duration": 5, "velocity": 56}, {"time": 1740, "pitch": 50, "duration": 5, "velocity": 65}, {"time": 1746, "pitch": 43, "duration": 49, "velocity": 69}, {"time": 1746, "pitch": 59, "duration": 11, "velocity": 81}, {"time": 1746, "pitch": 62, "duration": 11, "velocity": 74}, {"time": 1746, "pitch": 67, "duration": 10, "velocity": 54}, {"time": 1752, "pitch": 50, "duration": 43, "velocity": 64}, {"time": 1758, "pitch": 59, "duration": 10, "velocity": 64}, {"time": 1758, "pitch": 62, "duration": 10, "velocity": 68}, {"time": 1758, "pitch": 67, "duration": 10, "velocity": 76}, {"time": 1764, "pitch": 55, "duration": 8, "velocity": 55}, {"time": 1770, "pitch": 59, "duration": 10, "velocity": 63}, {"time": 1770, "pitch": 62, "duration": 10, "velocity": 68}, {"time": 1770, "pitch": 67, "duration": 10, "velocity": 67}, {"time": 1776, "pitch": 55, "duration": 9, "velocity": 50}, {"time": 1782, "pitch": 59, "duration": 11, "velocity": 75}, {"time": 1782, "pitch": 62, "duration": 11, "velocity": 79}, {"time": 1782, "pitch": 67, "duration": 10, "velocity": 83}, {"time": 1788, "pitch": 55, "duration": 6, "velocity": 69}, {"time": 1794, "pitch": 47, "duration": 17, "velocity": 63}, {"time": 1794, "pitch": 59, "duration": 7, "velocity": 28}, {"time": 1794, "pitch": 62, "duration": 8, "velocity": 53}, {"time": 1794, "pitch": 66, "duration": 8, "velocity": 64}, {"time": 1806, "pitch": 59, "duration": 5, "velocity": 53}, {"time": 1806, "pitch": 62, "duration": 5, "velocity": 49}, {"time": 1806, "pitch": 66, "duration": 5, "velocity": 56}, {"time": 1815, "pitch": 47, "duration": 4, "velocity": 43}, {"time": 1815, "pitch": 59, "duration": 3, "velocity": 44}, {"time": 1815, "pitch": 62, "duration": 3, "velocity": 40}, {"time": 1815, "pitch": 66, "duration": 3, "velocity": 51}, {"time": 1821, "pitch": 59, "duration": 3, "velocity": 53}, {"time": 1821, "pitch": 62, "duration": 3, "velocity": 47}, {"time": 1821, "pitch": 66, "duration": 3, "velocity": 49}, {"time": 1824, "pitch": 47, "duration": 6, "velocity": 55}, {"time": 1824, "pitch": 54, "duration": 6, "velocity": 67}, {"time": 1830, "pitch": 59, "duration": 7, "velocity": 62}, {"time": 1830, "pitch": 62, "duration": 8, "velocity": 63}, {"time": 1830, "pitch": 66, "duration": 8, "velocity": 68}, {"time": 1833, "pitch": 54, "duration": 1, "velocity": 28}, {"time": 1836, "pitch": 54, "duration": 2, "velocity": 72}, {"time": 1842, "pitch": 40, "duration": 36, "velocity": 74}, {"time": 1851, "pitch": 52, "duration": 4, "velocity": 47}, {"time": 1854, "pitch": 55, "duration": 4, "velocity": 67}, {"time": 1854, "pitch": 59, "duration": 4, "velocity": 69}, {"time": 1854, "pitch": 64, "duration": 4, "velocity": 72}, {"time": 1863, "pitch": 55, "duration": 2, "velocity": 59}, {"time": 1863, "pitch": 59, "duration": 3, "velocity": 62}, {"time": 1863, "pitch": 64, "duration": 3, "velocity": 67}, {"time": 1869, "pitch": 55, "duration": 1, "velocity": 65}, {"time": 1869, "pitch": 59, "duration": 3, "velocity": 65}, {"time": 1869, "pitch": 64, "duration": 3, "velocity": 68}, {"time": 1872, "pitch": 52, "duration": 6, "velocity": 67}, {"time": 1878, "pitch": 55, "duration": 3, "velocity": 74}, {"time": 1878, "pitch": 59, "duration": 7, "velocity": 67}, {"time": 1878, "pitch": 64, "duration": 6, "velocity": 72}, {"time": 1881, "pitch": 52, "duration": 10, "velocity": 54}, {"time": 1884, "pitch": 40, "duration": 6, "velocity": 56}, {"time": 1890, "pitch": 45, "duration": 15, "velocity": 59}, {"time": 1890, "pitch": 57, "duration": 6, "velocity": 50}, {"time": 1890, "pitch": 60, "duration": 7, "velocity": 59}, {"time": 1890, "pitch": 64, "duration": 7, "velocity": 59}, {"time": 1902, "pitch": 57, "duration": 5, "velocity": 68}, {"time": 1902, "pitch": 60, "duration": 6, "velocity": 67}, {"time": 1902, "pitch": 64, "duration": 6, "velocity": 67}, {"time": 1911, "pitch": 57, "duration": 3, "velocity": 64}, {"time": 1911, "pitch": 60, "duration": 3, "velocity": 59}, {"time": 1911, "pitch": 64, "duration": 3, "velocity": 56}, {"time": 1917, "pitch": 57, "duration": 3, "velocity": 64}, {"time": 1917, "pitch": 60, "duration": 4, "velocity": 56}, {"time": 1917, "pitch": 64, "duration": 4, "velocity": 58}, {"time": 1920, "pitch": 45, "duration": 6, "velocity": 77}, {"time": 1926, "pitch": 57, "duration": 7, "velocity": 81}, {"time": 1926, "pitch": 60, "duration": 8, "velocity": 77}, {"time": 1926, "pitch": 64, "duration": 8, "velocity": 72}, {"time": 1929, "pitch": 52, "duration": 4, "velocity": 72}, {"time": 1932, "pitch": 45, "duration": 2, "velocity": 59}, {"time": 1938, "pitch": 38, "duration": 36, "velocity": 74}, {"time": 1947, "pitch": 50, "duration": 5, "velocity": 46}, {"time": 1950, "pitch": 57, "duration": 5, "velocity": 65}, {"time": 1950, "pitch": 62, "duration": 5, "velocity": 63}, {"time": 1950, "pitch": 66, "duration": 5, "velocity": 74}, {"time": 1959, "pitch": 57, "duration": 2, "velocity": 61}, {"time": 1959, "pitch": 62, "duration": 2, "velocity": 51}, {"time": 1959, "pitch": 66, "duration": 3, "velocity": 61}, {"time": 1965, "pitch": 57, "duration": 3, "velocity": 67}, {"time": 1965, "pitch": 62, "duration": 3, "velocity": 62}, {"time": 1965, "pitch": 66, "duration": 3, "velocity": 61}, {"time": 1968, "pitch": 50, "duration": 8, "velocity": 72}, {"time": 1974, "pitch": 57, "duration": 7, "velocity": 85}, {"time": 1974, "pitch": 62, "duration": 7, "velocity": 71}, {"time": 1974, "pitch": 66, "duration": 7, "velocity": 79}, {"time": 1977, "pitch": 38, "duration": 9, "velocity": 77}, {"time": 1980, "pitch": 50, "duration": 7, "velocity": 69}, {"time": 1986, "pitch": 43, "duration": 40, "velocity": 79}, {"time": 1995, "pitch": 50, "duration": 17, "velocity": 44}, {"time": 1998, "pitch": 59, "duration": 5, "velocity": 71}, {"time": 1998, "pitch": 62, "duration": 5, "velocity": 65}, {"time": 1998, "pitch": 67, "duration": 5, "velocity": 76}, {"time": 2007, "pitch": 59, "duration": 2, "velocity": 57}, {"time": 2007, "pitch": 62, "duration": 3, "velocity": 57}, {"time": 2007, "pitch": 67, "duration": 3, "velocity": 67}, {"time": 2013, "pitch": 59, "duration": 2, "velocity": 64}, {"time": 2013, "pitch": 62, "duration": 2, "velocity": 62}, {"time": 2013, "pitch": 67, "duration": 3, "velocity": 61}, {"time": 2016, "pitch": 50, "duration": 7, "velocity": 64}, {"time": 2022, "pitch": 59, "duration": 6, "velocity": 77}, {"time": 2022, "pitch": 62, "duration": 6, "velocity": 61}, {"time": 2022, "pitch": 67, "duration": 6, "velocity": 78}, {"time": 2025, "pitch": 50, "duration": 4, "velocity": 50}, {"time": 2028, "pitch": 43, "duration": 1, "velocity": 62}, {"time": 2034, "pitch": 41, "duration": 39, "velocity": 63}, {"time": 2034, "pitch": 57, "duration": 7, "velocity": 58}, {"time": 2034, "pitch": 60, "duration": 7, "velocity": 63}, {"time": 2034, "pitch": 65, "duration": 8, "velocity": 66}, {"time": 2043, "pitch": 53, "duration": 6, "velocity": 47}, {"time": 2046, "pitch": 57, "duration": 4, "velocity": 81}, {"time": 2046, "pitch": 60, "duration": 5, "velocity": 74}, {"time": 2046, "pitch": 65, "duration": 5, "velocity": 78}, {"time": 2055, "pitch": 57, "duration": 2, "velocity": 71}, {"time": 2055, "pitch": 60, "duration": 2, "velocity": 71}, {"time": 2055, "pitch": 65, "duration": 2, "velocity": 70}, {"time": 2061, "pitch": 57, "duration": 2, "velocity": 75}, {"time": 2061, "pitch": 60, "duration": 3, "velocity": 65}, {"time": 2061, "pitch": 65, "duration": 3, "velocity": 70}, {"time": 2064, "pitch": 53, "duration": 6, "velocity": 62}, {"time": 2070, "pitch": 57, "duration": 4, "velocity": 77}, {"time": 2070, "pitch": 60, "duration": 5, "velocity": 75}, {"time": 2070, "pitch": 65, "duration": 5, "velocity": 82}, {"time": 2073, "pitch": 53, "duration": 3, "velocity": 64}, {"time": 2076, "pitch": 41, "duration": 1, "velocity": 72}, {"time": 2082, "pitch": 38, "duration": 39, "velocity": 59}, {"time": 2082, "pitch": 57, "duration": 7, "velocity": 53}, {"time": 2082, "pitch": 62, "duration": 7, "velocity": 56}, {"time": 2082, "pitch": 66, "duration": 7, "velocity": 62}, {"time": 2091, "pitch": 50, "duration": 18, "velocity": 53}, {"time": 2094, "pitch": 57, "duration": 5, "velocity": 81}, {"time": 2094, "pitch": 62, "duration": 5, "velocity": 71}, {"time": 2094, "pitch": 66, "duration": 5, "velocity": 83}, {"time": 2103, "pitch": 57, "duration": 2, "velocity": 65}, {"time": 2103, "pitch": 62, "duration": 3, "velocity": 57}, {"time": 2103, "pitch": 66, "duration": 3, "velocity": 75}, {"time": 2109, "pitch": 57, "duration": 3, "velocity": 77}, {"time": 2109, "pitch": 62, "duration": 3, "velocity": 67}, {"time": 2109, "pitch": 66, "duration": 3, "velocity": 74}, {"time": 2112, "pitch": 50, "duration": 7, "velocity": 84}, {"time": 2118, "pitch": 57, "duration": 6, "velocity": 76}, {"time": 2118, "pitch": 62, "duration": 6, "velocity": 69}, {"time": 2118, "pitch": 66, "duration": 7, "velocity": 79}, {"time": 2121, "pitch": 50, "duration": 10, "velocity": 58}, {"time": 2124, "pitch": 38, "duration": 7, "velocity": 72}, {"time": 2130, "pitch": 43, "duration": 38, "velocity": 67}, {"time": 2130, "pitch": 59, "duration": 7, "velocity": 57}, {"time": 2130, "pitch": 62, "duration": 7, "velocity": 62}, {"time": 2130, "pitch": 67, "duration": 7, "velocity": 66}, {"time": 2139, "pitch": 55, "duration": 19, "velocity": 65}, {"time": 2142, "pitch": 59, "duration": 6, "velocity": 75}, {"time": 2142, "pitch": 62, "duration": 6, "velocity": 72}, {"time": 2142, "pitch": 67, "duration": 6, "velocity": 73}, {"time": 2151, "pitch": 59, "duration": 6, "velocity": 57}, {"time": 2151, "pitch": 62, "duration": 7, "velocity": 44}, {"time": 2151, "pitch": 67, "duration": 6, "velocity": 55}, {"time": 2157, "pitch": 50, "duration": 11, "velocity": 63}, {"time": 2160, "pitch": 59, "duration": 2, "velocity": 76}, {"time": 2160, "pitch": 62, "duration": 3, "velocity": 71}, {"time": 2160, "pitch": 67, "duration": 3, "velocity": 80}, {"time": 2163, "pitch": 55, "duration": 5, "velocity": 69}, {"time": 2166, "pitch": 59, "duration": 1, "velocity": 81}, {"time": 2166, "pitch": 62, "duration": 2, "velocity": 79}, {"time": 2166, "pitch": 67, "duration": 1, "velocity": 78}, {"time": 2178, "pitch": 43, "duration": 48, "velocity": 58}, {"time": 2184, "pitch": 50, "duration": 42, "velocity": 69}, {"time": 2187, "pitch": 55, "duration": 27, "velocity": 73}, {"time": 2190, "pitch": 59, "duration": 5, "velocity": 69}, {"time": 2196, "pitch": 59, "duration": 11, "velocity": 65}, {"time": 2196, "pitch": 62, "duration": 11, "velocity": 71}, {"time": 2208, "pitch": 59, "duration": 9, "velocity": 68}, {"time": 2208, "pitch": 62, "duration": 9, "velocity": 75}, {"time": 2220, "pitch": 59, "duration": 6, "velocity": 66}, {"time": 2220, "pitch": 62, "duration": 5, "velocity": 73}, {"time": 2226, "pitch": 43, "duration": 43, "velocity": 72}, {"time": 2232, "pitch": 50, "duration": 42, "velocity": 68}, {"time": 2235, "pitch": 55, "duration": 24, "velocity": 54}, {"time": 2238, "pitch": 59, "duration": 5, "velocity": 72}, {"time": 2244, "pitch": 59, "duration": 3, "velocity": 54}, {"time": 2244, "pitch": 62, "duration": 4, "velocity": 61}, {"time": 2256, "pitch": 59, "duration": 8, "velocity": 61}, {"time": 2256, "pitch": 62, "duration": 8, "velocity": 67}, {"time": 2262, "pitch": 55, "duration": 6, "velocity": 58}, {"time": 2268, "pitch": 59, "duration": 7, "velocity": 74}, {"time": 2268, "pitch": 62, "duration": 7, "velocity": 71}, {"time": 2274, "pitch": 45, "duration": 40, "velocity": 71}, {"time": 2277, "pitch": 52, "duration": 33, "velocity": 65}, {"time": 2280, "pitch": 57, "duration": 29, "velocity": 56}, {"time": 2280, "pitch": 60, "duration": 1, "velocity": 56}, {"time": 2286, "pitch": 60, "duration": 2, "velocity": 67}, {"time": 2292, "pitch": 60, "duration": 2, "velocity": 60}, {"time": 2292, "pitch": 64, "duration": 2, "velocity": 73}, {"time": 2304, "pitch": 60, "duration": 8, "velocity": 69}, {"time": 2304, "pitch": 64, "duration": 8, "velocity": 76}, {"time": 2316, "pitch": 60, "duration": 7, "velocity": 72}, {"time": 2316, "pitch": 64, "duration": 7, "velocity": 72}, {"time": 2322, "pitch": 38, "duration": 44, "velocity": 81}, {"time": 2328, "pitch": 45, "duration": 40, "velocity": 58}, {"time": 2331, "pitch": 50, "duration": 25, "velocity": 67}, {"time": 2340, "pitch": 54, "duration": 2, "velocity": 79}, {"time": 2340, "pitch": 57, "duration": 1, "velocity": 69}, {"time": 2352, "pitch": 54, "duration": 7, "velocity": 79}, {"time": 2352, "pitch": 57, "duration": 6, "velocity": 70}, {"time": 2358, "pitch": 50, "duration": 8, "velocity": 66}, {"time": 2364, "pitch": 54, "duration": 4, "velocity": 65}, {"time": 2364, "pitch": 57, "duration": 3, "velocity": 74}, {"time": 2370, "pitch": 43, "duration": 44, "velocity": 71}, {"time": 2376, "pitch": 50, "duration": 16, "velocity": 74}, {"time": 2379, "pitch": 55, "duration": 11, "velocity": 63}, {"time": 2382, "pitch": 59, "duration": 3, "velocity": 65}, {"time": 2382, "pitch": 62, "duration": 3, "velocity": 67}, {"time": 2388, "pitch": 59, "duration": 10, "velocity": 63}, {"time": 2388, "pitch": 62, "duration": 10, "velocity": 69}, {"time": 2394, "pitch": 50, "duration": 23, "velocity": 63}, {"time": 2400, "pitch": 55, "duration": 5, "velocity": 12}, {"time": 2400, "pitch": 59, "duration": 10, "velocity": 60}, {"time": 2400, "pitch": 62, "duration": 10, "velocity": 73}, {"time": 2406, "pitch": 55, "duration": 7, "velocity": 58}, {"time": 2412, "pitch": 59, "duration": 8, "velocity": 63}, {"time": 2412, "pitch": 62, "duration": 7, "velocity": 70}, {"time": 2418, "pitch": 45, "duration": 43, "velocity": 64}, {"time": 2424, "pitch": 52, "duration": 37, "velocity": 60}, {"time": 2427, "pitch": 57, "duration": 26, "velocity": 64}, {"time": 2430, "pitch": 60, "duration": 4, "velocity": 72}, {"time": 2436, "pitch": 60, "duration": 2, "velocity": 60}, {"time": 2436, "pitch": 64, "duration": 2, "velocity": 67}, {"time": 2448, "pitch": 60, "duration": 10, "velocity": 62}, {"time": 2448, "pitch": 64, "duration": 10, "velocity": 75}, {"time": 2454, "pitch": 57, "duration": 5, "velocity": 61}, {"time": 2460, "pitch": 60, "duration": 8, "velocity": 59}, {"time": 2460, "pitch": 64, "duration": 7, "velocity": 65}, {"time": 2466, "pitch": 38, "duration": 39, "velocity": 60}, {"time": 2472, "pitch": 45, "duration": 33, "velocity": 54}, {"time": 2478, "pitch": 50, "duration": 12, "velocity": 59}, {"time": 2484, "pitch": 54, "duration": 18, "velocity": 76}, {"time": 2490, "pitch": 57, "duration": 11, "velocity": 73}, {"time": 2496, "pitch": 50, "duration": 7, "velocity": 59}, {"time": 2502, "pitch": 54, "duration": 12, "velocity": 71}, {"time": 2502, "pitch": 57, "duration": 12, "velocity": 83}, {"time": 2502, "pitch": 62, "duration": 5, "velocity": 70}, {"time": 2514, "pitch": 43, "duration": 43, "velocity": 74}, {"time": 2520, "pitch": 50, "duration": 36, "velocity": 64}, {"time": 2526, "pitch": 55, "duration": 8, "velocity": 63}, {"time": 2532, "pitch": 59, "duration": 10, "velocity": 66}, {"time": 2532, "pitch": 62, "duration": 10, "velocity": 67}, {"time": 2538, "pitch": 55, "duration": 15, "velocity": 62}, {"time": 2544, "pitch": 59, "duration": 21, "velocity": 54}, {"time": 2550, "pitch": 67, "duration": 13, "velocity": 85}, {"time": 2562, "pitch": 43, "duration": 46, "velocity": 74}, {"time": 2568, "pitch": 50, "duration": 39, "velocity": 70}, {"time": 2571, "pitch": 55, "duration": 14, "velocity": 71}, {"time": 2574, "pitch": 59, "duration": 14, "velocity": 76}, {"time": 2580, "pitch": 62, "duration": 8, "velocity": 74}, {"time": 2580, "pitch": 67, "duration": 8, "velocity": 65}, {"time": 2586, "pitch": 55, "duration": 5, "velocity": 52}, {"time": 2592, "pitch": 59, "duration": 10, "velocity": 71}, {"time": 2592, "pitch": 62, "duration": 10, "velocity": 74}, {"time": 2592, "pitch": 67, "duration": 8, "velocity": 70}, {"time": 2598, "pitch": 55, "duration": 8, "velocity": 61}, {"time": 2604, "pitch": 59, "duration": 13, "velocity": 70}, {"time": 2604, "pitch": 62, "duration": 13, "velocity": 74}, {"time": 2610, "pitch": 43, "duration": 41, "velocity": 67}, {"time": 2616, "pitch": 50, "duration": 41, "velocity": 66}, {"time": 2619, "pitch": 55, "duration": 13, "velocity": 71}, {"time": 2622, "pitch": 59, "duration": 3, "velocity": 59}, {"time": 2622, "pitch": 62, "duration": 2, "velocity": 60}, {"time": 2628, "pitch": 59, "duration": 9, "velocity": 63}, {"time": 2628, "pitch": 62, "duration": 9, "velocity": 77}, {"time": 2634, "pitch": 55, "duration": 10, "velocity": 61}, {"time": 2640, "pitch": 59, "duration": 9, "velocity": 62}, {"time": 2640, "pitch": 62, "duration": 10, "velocity": 73}, {"time": 2640, "pitch": 67, "duration": 10, "velocity": 79}, {"time": 2646, "pitch": 55, "duration": 7, "velocity": 59}, {"time": 2652, "pitch": 59, "duration": 7, "velocity": 74}, {"time": 2658, "pitch": 45, "duration": 44, "velocity": 69}, {"time": 2664, "pitch": 52, "duration": 37, "velocity": 60}, {"time": 2667, "pitch": 57, "duration": 12, "velocity": 61}, {"time": 2670, "pitch": 60, "duration": 5, "velocity": 71}, {"time": 2676, "pitch": 60, "duration": 10, "velocity": 61}, {"time": 2676, "pitch": 64, "duration": 10, "velocity": 72}, {"time": 2676, "pitch": 69, "duration": 10, "velocity": 71}, {"time": 2682, "pitch": 57, "duration": 6, "velocity": 43}, {"time": 2688, "pitch": 60, "duration": 9, "velocity": 66}, {"time": 2688, "pitch": 64, "duration": 9, "velocity": 75}, {"time": 2688, "pitch": 69, "duration": 8, "velocity": 65}, {"time": 2694, "pitch": 57, "duration": 4, "velocity": 63}, {"time": 2700, "pitch": 60, "duration": 7, "velocity": 62}, {"time": 2700, "pitch": 64, "duration": 6, "velocity": 64}, {"time": 2700, "pitch": 69, "duration": 6, "velocity": 57}, {"time": 2706, "pitch": 38, "duration": 41, "velocity": 65}, {"time": 2712, "pitch": 45, "duration": 36, "velocity": 55}, {"time": 2715, "pitch": 50, "duration": 10, "velocity": 62}, {"time": 2718, "pitch": 42, "duration": 30, "velocity": 61}, {"time": 2724, "pitch": 54, "duration": 10, "velocity": 68}, {"time": 2724, "pitch": 57, "duration": 8, "velocity": 74}, {"time": 2730, "pitch": 50, "duration": 7, "velocity": 59}, {"time": 2736, "pitch": 54, "duration": 8, "velocity": 81}, {"time": 2736, "pitch": 57, "duration": 7, "velocity": 81}, {"time": 2742, "pitch": 50, "duration": 6, "velocity": 80}, {"time": 2748, "pitch": 54, "duration": 7, "velocity": 80}, {"time": 2748, "pitch": 57, "duration": 6, "velocity": 80}, {"time": 2754, "pitch": 43, "duration": 22, "velocity": 80}, {"time": 2760, "pitch": 50, "duration": 16, "velocity": 79}, {"time": 2763, "pitch": 55, "duration": 12, "velocity": 79}, {"time": 2766, "pitch": 59, "duration": 2, "velocity": 79}, {"time": 2772, "pitch": 59, "duration": 9, "velocity": 79}, {"time": 2772, "pitch": 62, "duration": 9, "velocity": 79}, {"time": 2772, "pitch": 67, "duration": 8, "velocity": 79}, {"time": 2778, "pitch": 43, "duration": 20, "velocity": 78}, {"time": 2784, "pitch": 59, "duration": 10, "velocity": 78}, {"time": 2784, "pitch": 62, "duration": 10, "velocity": 78}, {"time": 2784, "pitch": 67, "duration": 9, "velocity": 78}, {"time": 2787, "pitch": 50, "duration": 11, "velocity": 77}, {"time": 2790, "pitch": 55, "duration": 8, "velocity": 77}, {"time": 2796, "pitch": 59, "duration": 7, "velocity": 76}, {"time": 2796, "pitch": 62, "duration": 6, "velocity": 76}, {"time": 2796, "pitch": 67, "duration": 6, "velocity": 76}, {"time": 2802, "pitch": 45, "duration": 38, "velocity": 75}, {"time": 2808, "pitch": 52, "duration": 30, "velocity": 75}, {"time": 2811, "pitch": 57, "duration": 13, "velocity": 74}, {"time": 2814, "pitch": 60, "duration": 4, "velocity": 74}, {"time": 2814, "pitch": 64, "duration": 3, "velocity": 74}, {"time": 2820, "pitch": 60, "duration": 15, "velocity": 74}, {"time": 2820, "pitch": 64, "duration": 15, "velocity": 74}, {"time": 2820, "pitch": 69, "duration": 14, "velocity": 74}, {"time": 2832, "pitch": 57, "duration": 5, "velocity": 74}, {"time": 2838, "pitch": 60, "duration": 13, "velocity": 73}, {"time": 2838, "pitch": 64, "duration": 13, "velocity": 73}, {"time": 2838, "pitch": 69, "duration": 13, "velocity": 73}, {"time": 2850, "pitch": 38, "duration": 39, "velocity": 72}, {"time": 2856, "pitch": 45, "duration": 34, "velocity": 72}, {"time": 2862, "pitch": 54, "duration": 10, "velocity": 71}, {"time": 2862, "pitch": 57, "duration": 8, "velocity": 71}, {"time": 2868, "pitch": 42, "duration": 20, "velocity": 71}, {"time": 2868, "pitch": 50, "duration": 8, "velocity": 71}, {"time": 2874, "pitch": 54, "duration": 2, "velocity": 70}, {"time": 2877, "pitch": 50, "duration": 5, "velocity": 69}, {"time": 2880, "pitch": 54, "duration": 8, "velocity": 69}, {"time": 2880, "pitch": 57, "duration": 7, "velocity": 69}, {"time": 2886, "pitch": 50, "duration": 6, "velocity": 69}, {"time": 2892, "pitch": 54, "duration": 7, "velocity": 69}, {"time": 2892, "pitch": 57, "duration": 6, "velocity": 69}, {"time": 2898, "pitch": 43, "duration": 23, "velocity": 68}, {"time": 2904, "pitch": 50, "duration": 17, "velocity": 68}, {"time": 2907, "pitch": 55, "duration": 11, "velocity": 67}, {"time": 2910, "pitch": 57, "duration": 4, "velocity": 66}, {"time": 2910, "pitch": 62, "duration": 4, "velocity": 66}, {"time": 2910, "pitch": 67, "duration": 4, "velocity": 66}, {"time": 2916, "pitch": 57, "duration": 10, "velocity": 66}, {"time": 2916, "pitch": 62, "duration": 10, "velocity": 66}, {"time": 2916, "pitch": 67, "duration": 9, "velocity": 66}, {"time": 2922, "pitch": 43, "duration": 18, "velocity": 65}, {"time": 2928, "pitch": 57, "duration": 16, "velocity": 65}, {"time": 2928, "pitch": 62, "duration": 12, "velocity": 65}, {"time": 2928, "pitch": 67, "duration": 12, "velocity": 65}, {"time": 2946, "pitch": 43, "duration": 41, "velocity": 64}, {"time": 2952, "pitch": 50, "duration": 32, "velocity": 64}, {"time": 2955, "pitch": 55, "duration": 19, "velocity": 63}, {"time": 2958, "pitch": 57, "duration": 19, "velocity": 62}, {"time": 2964, "pitch": 62, "duration": 7, "velocity": 62}, {"time": 2970, "pitch": 67, "duration": 10, "velocity": 61}, {"time": 2976, "pitch": 62, "duration": 7, "velocity": 61}, {"time": 2982, "pitch": 57, "duration": 7, "velocity": 59}, {"time": 2988, "pitch": 62, "duration": 13, "velocity": 59}, {"time": 2994, "pitch": 43, "duration": 44, "velocity": 58}, {"time": 3000, "pitch": 50, "duration": 37, "velocity": 58}, {"time": 3003, "pitch": 55, "duration": 17, "velocity": 57}, {"time": 3006, "pitch": 57, "duration": 14, "velocity": 57}, {"time": 3012, "pitch": 62, "duration": 7, "velocity": 57}, {"time": 3018, "pitch": 67, "duration": 9, "velocity": 57}, {"time": 3024, "pitch": 62, "duration": 6, "velocity": 57}, {"time": 3030, "pitch": 57, "duration": 6, "velocity": 56}, {"time": 3036, "pitch": 62, "duration": 7, "velocity": 56}, {"time": 3042, "pitch": 43, "duration": 46, "velocity": 55}, {"time": 3048, "pitch": 50, "duration": 37, "velocity": 55}, {"time": 3051, "pitch": 55, "duration": 34, "velocity": 54}, {"time": 3054, "pitch": 57, "duration": 31, "velocity": 53}, {"time": 3060, "pitch": 62, "duration": 25, "velocity": 53}, {"time": 3066, "pitch": 67, "duration": 17, "velocity": 52}, {"time": 3090, "pitch": 43, "duration": 38, "velocity": 48}, {"time": 3090, "pitch": 57, "duration": 32, "velocity": 48}, {"time": 3090, "pitch": 62, "duration": 33, "velocity": 48}, {"time": 3090, "pitch": 67, "duration": 33, "velocity": 48}], "annotations": [{"time": 72, "annotation": {"number": 64, "value": 76}, "group": "control_change"}, {"time": 306, "annotation": {"number": 64, "value": 76}, "group": "control_change"}, {"time": 342, "annotation": {"number": 64, "value": 79}, "group": "control_change"}, {"time": 354, "annotation": {"number": 64, "value": 0}, "group": "control_change"}, {"time": 363, "annotation": {"number": 64, "value": 84}, "group": "control_change"}, {"time": 403, "annotation": {"number": 64, "value": 0}, "group": "control_change"}, {"time": 413, "annotation": {"number": 64, "value": 78}, "group": "control_change"}, {"time": 450, "annotation": {"number": 64, "value": 0}, "group": "control_change"}, {"time": 461, "annotation": {"number": 64, "value": 76}, "group": "control_change"}, {"time": 498, "annotation": {"number": 64, "value": 0}, "group": "control_change"}, {"time": 504, "annotation": {"number": 64, "value": 78}, "group": "control_change"}, {"time": 546, "annotation": {"number": 64, "value": 0}, "group": "control_change"}, {"time": 564, "annotation": {"number": 64, "value": 77}, "group": "control_change"}, {"time": 594, "annotation": {"number": 64, "value": 0}, "group": "control_change"}, {"time": 603, "annotation": {"number": 64, "value": 77}, "group": "control_change"}, {"time": 642, "annotation": {"number": 64, "value": 0}, "group": "control_change"}, {"time": 654, "annotation": {"number": 64, "value": 78}, "group": "control_change"}, {"time": 691, "annotation": {"number": 64, "value": 0}, "group": "control_change"}, {"time": 697, "annotation": {"number": 64, "value": 77}, "group": "control_change"}, {"time": 738, "annotation": {"number": 64, "value": 0}, "group": "control_change"}, {"time": 751, "annotation": {"number": 64, "value": 76}, "group": "control_change"}, {"time": 787, "annotation": {"number": 64, "value": 0}, "group": "control_change"}, {"time": 803, "annotation": {"number": 64, "value": 80}, "group": "control_change"}, {"time": 834, "annotation": {"number": 64, "value": 0}, "group": "control_change"}, {"time": 842, "annotation": {"number": 64, "value": 79}, "group": "control_change"}, {"time": 883, "annotation": {"number": 64, "value": 0}, "group": "control_change"}, {"time": 891, "annotation": {"number": 64, "value": 80}, "group": "control_change"}, {"time": 930, "annotation": {"number": 64, "value": 0}, "group": "control_change"}, {"time": 938, "annotation": {"number": 64, "value": 80}, "group": "control_change"}, {"time": 966, "annotation": {"number": 64, "value": 80}, "group": "control_change"}, {"time": 979, "annotation": {"number": 64, "value": 0}, "group": "control_change"}, {"time": 994, "annotation": {"number": 64, "value": 84}, "group": "control_change"}, {"time": 1026, "annotation": {"number": 64, "value": 0}, "group": "control_change"}, {"time": 1034, "annotation": {"number": 64, "value": 71}, "group": "control_change"}, {"time": 1039, "annotation": {"number": 64, "value": 127}, "group": "control_change"}, {"time": 1075, "annotation": {"number": 64, "value": 71}, "group": "control_change"}, {"time": 1076, "annotation": {"number": 64, "value": 0}, "group": "control_change"}, {"time": 1079, "annotation": {"number": 64, "value": 71}, "group": "control_change"}, {"time": 1080, "annotation": {"number": 64, "value": 127}, "group": "control_change"}, {"time": 1122, "annotation": {"number": 64, "value": 71}, "group": "control_change"}, {"time": 1123, "annotation": {"number": 64, "value": 0}, "group": "control_change"}, {"time": 1127, "annotation": {"number": 64, "value": 71}, "group": "control_change"}, {"time": 1127, "annotation": {"number": 64, "value": 127}, "group": "control_change"}, {"time": 1170, "annotation": {"number": 64, "value": 71}, "group": "control_change"}, {"time": 1171, "annotation": {"number": 64, "value": 0}, "group": "control_change"}, {"time": 1175, "annotation": {"number": 64, "value": 71}, "group": "control_change"}, {"time": 1176, "annotation": {"number": 64, "value": 127}, "group": "control_change"}, {"time": 1217, "annotation": {"number": 64, "value": 71}, "group": "control_change"}, {"time": 1217, "annotation": {"number": 64, "value": 0}, "group": "control_change"}, {"time": 1221, "annotation": {"number": 64, "value": 71}, "group": "control_change"}, {"time": 1222, "annotation": {"number": 64, "value": 127}, "group": "control_change"}, {"time": 1266, "annotation": {"number": 64, "value": 71}, "group": "control_change"}, {"time": 1267, "annotation": {"number": 64, "value": 0}, "group": "control_change"}, {"time": 1271, "annotation": {"number": 64, "value": 71}, "group": "control_change"}, {"time": 1272, "annotation": {"number": 64, "value": 127}, "group": "control_change"}, {"time": 1314, "annotation": {"number": 64, "value": 71}, "group": "control_change"}, {"time": 1315, "annotation": {"number": 64, "value": 0}, "group": "control_change"}, {"time": 1319, "annotation": {"number": 64, "value": 71}, "group": "control_change"}, {"time": 1322, "annotation": {"number": 64, "value": 127}, "group": "control_change"}, {"time": 1362, "annotation": {"number": 64, "value": 71}, "group": "control_change"}, {"time": 1363, "annotation": {"number": 64, "value": 0}, "group": "control_change"}, {"time": 1367, "annotation": {"number": 64, "value": 71}, "group": "control_change"}, {"time": 1368, "annotation": {"number": 64, "value": 127}, "group": "control_change"}, {"time": 1410, "annotation": {"number": 64, "value": 0}, "group": "control_change"}, {"time": 1422, "annotation": {"number": 64, "value": 78}, "group": "control_change"}, {"time": 1458, "annotation": {"number": 64, "value": 0}, "group": "control_change"}, {"time": 1469, "annotation": {"number": 64, "value": 78}, "group": "control_change"}, {"time": 1506, "annotation": {"number": 64, "value": 0}, "group": "control_change"}, {"time": 1519, "annotation": {"number": 64, "value": 75}, "group": "control_change"}, {"time": 1555, "annotation": {"number": 64, "value": 0}, "group": "control_change"}, {"time": 1563, "annotation": {"number": 64, "value": 78}, "group": "control_change"}, {"time": 1602, "annotation": {"number": 64, "value": 0}, "group": "control_change"}, {"time": 1626, "annotation": {"number": 64, "value": 76}, "group": "control_change"}, {"time": 1650, "annotation": {"number": 64, "value": 76}, "group": "control_change"}, {"time": 1650, "annotation": {"number": 64, "value": 0}, "group": "control_change"}, {"time": 1660, "annotation": {"number": 64, "value": 76}, "group": "control_change"}, {"time": 1699, "annotation": {"number": 64, "value": 0}, "group": "control_change"}, {"time": 1710, "annotation": {"number": 64, "value": 74}, "group": "control_change"}, {"time": 1746, "annotation": {"number": 64, "value": 0}, "group": "control_change"}, {"time": 1750, "annotation": {"number": 64, "value": 79}, "group": "control_change"}, {"time": 1794, "annotation": {"number": 64, "value": 0}, "group": "control_change"}, {"time": 1802, "annotation": {"number": 64, "value": 71}, "group": "control_change"}, {"time": 1807, "annotation": {"number": 64, "value": 127}, "group": "control_change"}, {"time": 1843, "annotation": {"number": 64, "value": 71}, "group": "control_change"}, {"time": 1844, "annotation": {"number": 64, "value": 0}, "group": "control_change"}, {"time": 1847, "annotation": {"number": 64, "value": 71}, "group": "control_change"}, {"time": 1848, "annotation": {"number": 64, "value": 127}, "group": "control_change"}, {"time": 1890, "annotation": {"number": 64, "value": 71}, "group": "control_change"}, {"time": 1891, "annotation": {"number": 64, "value": 0}, "group": "control_change"}, {"time": 1895, "annotation": {"number": 64, "value": 71}, "group": "control_change"}, {"time": 1895, "annotation": {"number": 64, "value": 127}, "group": "control_change"}, {"time": 1938, "annotation": {"number": 64, "value": 71}, "group": "control_change"}, {"time": 1939, "annotation": {"number": 64, "value": 0}, "group": "control_change"}, {"time": 1943, "annotation": {"number": 64, "value": 71}, "group": "control_change"}, {"time": 1944, "annotation": {"number": 64, "value": 127}, "group": "control_change"}, {"time": 1985, "annotation": {"number": 64, "value": 71}, "group": "control_change"}, {"time": 1985, "annotation": {"number": 64, "value": 0}, "group": "control_change"}, {"time": 1989, "annotation": {"number": 64, "value": 71}, "group": "control_change"}, {"time": 1990, "annotation": {"number": 64, "value": 127}, "group": "control_change"}, {"time": 2034, "annotation": {"number": 64, "value": 71}, "group": "control_change"}, {"time": 2035, "annotation": {"number": 64, "value": 0}, "group": "control_change"}, {"time": 2039, "annotation": {"number": 64, "value": 71}, "group": "control_change"}, {"time": 2040, "annotation": {"number": 64, "value": 127}, "group": "control_change"}, {"time": 2082, "annotation": {"number": 64, "value": 71}, "group": "control_change"}, {"time": 2083, "annotation": {"number": 64, "value": 0}, "group": "control_change"}, {"time": 2087, "annotation": {"number": 64, "value": 71}, "group": "control_change"}, {"time": 2090, "annotation": {"number": 64, "value": 127}, "group": "control_change"}, {"time": 2130, "annotation": {"number": 64, "value": 71}, "group": "control_change"}, {"time": 2131, "annotation": {"number": 64, "value": 0}, "group": "control_change"}, {"time": 2135, "annotation": {"number": 64, "value": 71}, "group": "control_change"}, {"time": 2136, "annotation": {"number": 64, "value": 127}, "group": "control_change"}, {"time": 2178, "annotation": {"number": 64, "value": 0}, "group": "control_change"}, {"time": 2182, "annotation": {"number": 64, "value": 76}, "group": "control_change"}, {"time": 2226, "annotation": {"number": 64, "value": 0}, "group": "control_change"}, {"time": 2231, "annotation": {"number": 64, "value": 74}, "group": "control_change"}, {"time": 2274, "annotation": {"number": 64, "value": 78}, "group": "control_change"}, {"time": 2274, "annotation": {"number": 64, "value": 0}, "group": "control_change"}, {"time": 2280, "annotation": {"number": 64, "value": 75}, "group": "control_change"}, {"time": 2323, "annotation": {"number": 64, "value": 0}, "group": "control_change"}, {"time": 2334, "annotation": {"number": 64, "value": 79}, "group": "control_change"}, {"time": 2371, "annotation": {"number": 64, "value": 0}, "group": "control_change"}, {"time": 2384, "annotation": {"number": 64, "value": 77}, "group": "control_change"}, {"time": 2406, "annotation": {"number": 64, "value": 80}, "group": "control_change"}, {"time": 2418, "annotation": {"number": 64, "value": 0}, "group": "control_change"}, {"time": 2425, "annotation": {"number": 64, "value": 80}, "group": "control_change"}, {"time": 2454, "annotation": {"number": 64, "value": 82}, "group": "control_change"}, {"time": 2466, "annotation": {"number": 64, "value": 83}, "group": "control_change"}, {"time": 2468, "annotation": {"number": 64, "value": 0}, "group": "control_change"}, {"time": 2476, "annotation": {"number": 64, "value": 82}, "group": "control_change"}, {"time": 2502, "annotation": {"number": 64, "value": 84}, "group": "control_change"}, {"time": 2514, "annotation": {"number": 64, "value": 0}, "group": "control_change"}, {"time": 2523, "annotation": {"number": 64, "value": 84}, "group": "control_change"}, {"time": 2563, "annotation": {"number": 64, "value": 0}, "group": "control_change"}, {"time": 2570, "annotation": {"number": 64, "value": 70}, "group": "control_change"}, {"time": 2610, "annotation": {"number": 64, "value": 0}, "group": "control_change"}, {"time": 2625, "annotation": {"number": 64, "value": 77}, "group": "control_change"}, {"time": 2658, "annotation": {"number": 64, "value": 0}, "group": "control_change"}, {"time": 2674, "annotation": {"number": 64, "value": 78}, "group": "control_change"}, {"time": 2707, "annotation": {"number": 64, "value": 0}, "group": "control_change"}, {"time": 2719, "annotation": {"number": 64, "value": 85}, "group": "control_change"}, {"time": 2755, "annotation": {"number": 64, "value": 0}, "group": "control_change"}, {"time": 2771, "annotation": {"number": 64, "value": 85}, "group": "control_change"}, {"time": 2802, "annotation": {"number": 64, "value": 0}, "group": "control_change"}, {"time": 2808, "annotation": {"number": 64, "value": 84}, "group": "control_change"}, {"time": 2850, "annotation": {"number": 64, "value": 0}, "group": "control_change"}, {"time": 2858, "annotation": {"number": 64, "value": 83}, "group": "control_change"}, {"time": 2898, "annotation": {"number": 64, "value": 0}, "group": "control_change"}, {"time": 2904, "annotation": {"number": 64, "value": 83}, "group": "control_change"}, {"time": 2946, "annotation": {"number": 64, "value": 84}, "group": "control_change"}, {"time": 2946, "annotation": {"number": 64, "value": 0}, "group": "control_change"}, {"time": 2958, "annotation": {"number": 64, "value": 85}, "group": "control_change"}, {"time": 2995, "annotation": {"number": 64, "value": 0}, "group": "control_change"}, {"time": 3004, "annotation": {"number": 64, "value": 127}, "group": "control_change"}, {"time": 3042, "annotation": {"number": 64, "value": 0}, "group": "control_change"}, {"time": 3053, "annotation": {"number": 64, "value": 85}, "group": "control_change"}]}]}