{"metadata": {"schema_version": "0.2", "title": "None", "source_filename": "027.mid", "source_format": "midi"}, "resolution": 12, "tempos": [{"time": 0, "qpm": 64.0}], "key_signatures": [{"time": 0, "root": 0, "mode": "major"}], "time_signatures": [{"time": 0, "numerator": 4, "denominator": 4}, {"time": 0, "numerator": 1, "denominator": 4}], "tracks": [{"program": 0, "is_drum": false, "name": "MELODY", "notes": [{"time": 476, "pitch": 81, "duration": 3, "velocity": 74}, {"time": 479, "pitch": 84, "duration": 2, "velocity": 69}, {"time": 482, "pitch": 86, "duration": 6, "velocity": 83}, {"time": 488, "pitch": 84, "duration": 7, "velocity": 71}, {"time": 494, "pitch": 79, "duration": 5, "velocity": 74}, {"time": 498, "pitch": 84, "duration": 8, "velocity": 65}, {"time": 506, "pitch": 81, "duration": 13, "velocity": 70}, {"time": 524, "pitch": 74, "duration": 4, "velocity": 59}, {"time": 527, "pitch": 77, "duration": 4, "velocity": 71}, {"time": 530, "pitch": 81, "duration": 7, "velocity": 61}, {"time": 536, "pitch": 79, "duration": 6, "velocity": 70}, {"time": 542, "pitch": 72, "duration": 4, "velocity": 59}, {"time": 545, "pitch": 76, "duration": 8, "velocity": 73}, {"time": 554, "pitch": 74, "duration": 12, "velocity": 73}, {"time": 578, "pitch": 81, "duration": 7, "velocity": 90}, {"time": 587, "pitch": 79, "duration": 2, "velocity": 76}, {"time": 590, "pitch": 79, "duration": 4, "velocity": 74}, {"time": 596, "pitch": 74, "duration": 6, "velocity": 69}, {"time": 602, "pitch": 79, "duration": 11, "velocity": 95}, {"time": 626, "pitch": 86, "duration": 4, "velocity": 76}, {"time": 632, "pitch": 86, "duration": 1, "velocity": 71}, {"time": 635, "pitch": 86, "duration": 3, "velocity": 71}, {"time": 638, "pitch": 84, "duration": 5, "velocity": 67}, {"time": 644, "pitch": 79, "duration": 6, "velocity": 76}, {"time": 650, "pitch": 81, "duration": 8, "velocity": 74}, {"time": 674, "pitch": 86, "duration": 4, "velocity": 72}, {"time": 680, "pitch": 86, "duration": 3, "velocity": 73}, {"time": 683, "pitch": 89, "duration": 3, "velocity": 65}, {"time": 686, "pitch": 86, "duration": 6, "velocity": 72}, {"time": 692, "pitch": 84, "duration": 4, "velocity": 66}, {"time": 698, "pitch": 79, "duration": 9, "velocity": 67}, {"time": 722, "pitch": 77, "duration": 4, "velocity": 93}, {"time": 728, "pitch": 77, "duration": 2, "velocity": 95}, {"time": 731, "pitch": 79, "duration": 2, "velocity": 67}, {"time": 734, "pitch": 77, "duration": 6, "velocity": 95}, {"time": 740, "pitch": 72, "duration": 7, "velocity": 59}, {"time": 746, "pitch": 74, "duration": 10, "velocity": 77}, {"time": 764, "pitch": 81, "duration": 3, "velocity": 74}, {"time": 767, "pitch": 84, "duration": 2, "velocity": 69}, {"time": 770, "pitch": 86, "duration": 6, "velocity": 83}, {"time": 776, "pitch": 84, "duration": 7, "velocity": 71}, {"time": 782, "pitch": 79, "duration": 5, "velocity": 74}, {"time": 786, "pitch": 84, "duration": 8, "velocity": 65}, {"time": 794, "pitch": 81, "duration": 13, "velocity": 70}, {"time": 812, "pitch": 74, "duration": 4, "velocity": 59}, {"time": 815, "pitch": 77, "duration": 4, "velocity": 71}, {"time": 818, "pitch": 81, "duration": 7, "velocity": 61}, {"time": 824, "pitch": 79, "duration": 6, "velocity": 70}, {"time": 830, "pitch": 72, "duration": 4, "velocity": 59}, {"time": 833, "pitch": 76, "duration": 8, "velocity": 73}, {"time": 842, "pitch": 74, "duration": 12, "velocity": 73}, {"time": 866, "pitch": 81, "duration": 7, "velocity": 90}, {"time": 875, "pitch": 79, "duration": 2, "velocity": 76}, {"time": 878, "pitch": 79, "duration": 4, "velocity": 74}, {"time": 884, "pitch": 74, "duration": 6, "velocity": 69}, {"time": 890, "pitch": 79, "duration": 11, "velocity": 95}, {"time": 914, "pitch": 86, "duration": 4, "velocity": 76}, {"time": 920, "pitch": 86, "duration": 1, "velocity": 71}, {"time": 923, "pitch": 86, "duration": 3, "velocity": 71}, {"time": 926, "pitch": 84, "duration": 5, "velocity": 67}, {"time": 932, "pitch": 79, "duration": 6, "velocity": 76}, {"time": 938, "pitch": 81, "duration": 8, "velocity": 74}, {"time": 962, "pitch": 86, "duration": 4, "velocity": 72}, {"time": 968, "pitch": 86, "duration": 3, "velocity": 73}, {"time": 971, "pitch": 89, "duration": 3, "velocity": 65}, {"time": 974, "pitch": 86, "duration": 6, "velocity": 72}, {"time": 980, "pitch": 84, "duration": 4, "velocity": 66}, {"time": 986, "pitch": 79, "duration": 9, "velocity": 67}, {"time": 1010, "pitch": 77, "duration": 4, "velocity": 93}, {"time": 1016, "pitch": 77, "duration": 2, "velocity": 95}, {"time": 1019, "pitch": 79, "duration": 2, "velocity": 67}, {"time": 1022, "pitch": 77, "duration": 6, "velocity": 95}, {"time": 1028, "pitch": 72, "duration": 7, "velocity": 59}, {"time": 1034, "pitch": 74, "duration": 10, "velocity": 77}, {"time": 1058, "pitch": 81, "duration": 7, "velocity": 85}, {"time": 1064, "pitch": 86, "duration": 3, "velocity": 71}, {"time": 1070, "pitch": 86, "duration": 4, "velocity": 104}, {"time": 1076, "pitch": 84, "duration": 3, "velocity": 68}, {"time": 1079, "pitch": 81, "duration": 3, "velocity": 72}, {"time": 1082, "pitch": 84, "duration": 4, "velocity": 74}, {"time": 1088, "pitch": 88, "duration": 4, "velocity": 87}, {"time": 1094, "pitch": 86, "duration": 9, "velocity": 77}, {"time": 1106, "pitch": 89, "duration": 3, "velocity": 90}, {"time": 1112, "pitch": 89, "duration": 2, "velocity": 87}, {"time": 1115, "pitch": 91, "duration": 2, "velocity": 74}, {"time": 1118, "pitch": 89, "duration": 4, "velocity": 98}, {"time": 1124, "pitch": 86, "duration": 3, "velocity": 85}, {"time": 1130, "pitch": 84, "duration": 9, "velocity": 90}, {"time": 1136, "pitch": 86, "duration": 6, "velocity": 87}, {"time": 1142, "pitch": 81, "duration": 6, "velocity": 90}, {"time": 1154, "pitch": 74, "duration": 5, "velocity": 71}, {"time": 1160, "pitch": 79, "duration": 4, "velocity": 74}, {"time": 1166, "pitch": 79, "duration": 5, "velocity": 104}, {"time": 1172, "pitch": 79, "duration": 3, "velocity": 85}, {"time": 1178, "pitch": 81, "duration": 5, "velocity": 74}, {"time": 1184, "pitch": 84, "duration": 4, "velocity": 93}, {"time": 1190, "pitch": 86, "duration": 4, "velocity": 104}, {"time": 1196, "pitch": 86, "duration": 5, "velocity": 100}, {"time": 1202, "pitch": 89, "duration": 4, "velocity": 81}, {"time": 1208, "pitch": 89, "duration": 3, "velocity": 71}, {"time": 1211, "pitch": 91, "duration": 2, "velocity": 86}, {"time": 1214, "pitch": 93, "duration": 3, "velocity": 79}, {"time": 1220, "pitch": 93, "duration": 5, "velocity": 87}, {"time": 1226, "pitch": 84, "duration": 5, "velocity": 98}, {"time": 1235, "pitch": 84, "duration": 3, "velocity": 95}, {"time": 1238, "pitch": 81, "duration": 4, "velocity": 71}, {"time": 1244, "pitch": 84, "duration": 4, "velocity": 75}, {"time": 1250, "pitch": 86, "duration": 24, "velocity": 114}, {"time": 1298, "pitch": 81, "duration": 7, "velocity": 85}, {"time": 1304, "pitch": 86, "duration": 3, "velocity": 71}, {"time": 1310, "pitch": 86, "duration": 4, "velocity": 104}, {"time": 1316, "pitch": 84, "duration": 3, "velocity": 68}, {"time": 1319, "pitch": 81, "duration": 3, "velocity": 72}, {"time": 1322, "pitch": 84, "duration": 4, "velocity": 74}, {"time": 1328, "pitch": 88, "duration": 4, "velocity": 87}, {"time": 1334, "pitch": 86, "duration": 9, "velocity": 77}, {"time": 1346, "pitch": 89, "duration": 3, "velocity": 90}, {"time": 1352, "pitch": 89, "duration": 2, "velocity": 87}, {"time": 1355, "pitch": 91, "duration": 2, "velocity": 74}, {"time": 1358, "pitch": 89, "duration": 4, "velocity": 98}, {"time": 1364, "pitch": 86, "duration": 3, "velocity": 85}, {"time": 1370, "pitch": 84, "duration": 9, "velocity": 90}, {"time": 1376, "pitch": 86, "duration": 6, "velocity": 87}, {"time": 1382, "pitch": 81, "duration": 6, "velocity": 90}, {"time": 1394, "pitch": 74, "duration": 5, "velocity": 71}, {"time": 1400, "pitch": 79, "duration": 4, "velocity": 74}, {"time": 1406, "pitch": 79, "duration": 5, "velocity": 104}, {"time": 1412, "pitch": 79, "duration": 3, "velocity": 85}, {"time": 1418, "pitch": 81, "duration": 5, "velocity": 74}, {"time": 1424, "pitch": 84, "duration": 4, "velocity": 93}, {"time": 1430, "pitch": 86, "duration": 4, "velocity": 104}, {"time": 1436, "pitch": 86, "duration": 5, "velocity": 100}, {"time": 1442, "pitch": 89, "duration": 4, "velocity": 81}, {"time": 1448, "pitch": 89, "duration": 3, "velocity": 71}, {"time": 1451, "pitch": 91, "duration": 2, "velocity": 86}, {"time": 1454, "pitch": 93, "duration": 3, "velocity": 79}, {"time": 1460, "pitch": 93, "duration": 5, "velocity": 87}, {"time": 1466, "pitch": 84, "duration": 5, "velocity": 98}, {"time": 1475, "pitch": 84, "duration": 3, "velocity": 95}, {"time": 1478, "pitch": 81, "duration": 4, "velocity": 71}, {"time": 1484, "pitch": 84, "duration": 4, "velocity": 75}, {"time": 1490, "pitch": 86, "duration": 24, "velocity": 114}, {"time": 1916, "pitch": 81, "duration": 3, "velocity": 74}, {"time": 1919, "pitch": 84, "duration": 2, "velocity": 69}, {"time": 1922, "pitch": 86, "duration": 6, "velocity": 83}, {"time": 1928, "pitch": 84, "duration": 7, "velocity": 71}, {"time": 1934, "pitch": 79, "duration": 5, "velocity": 74}, {"time": 1938, "pitch": 84, "duration": 8, "velocity": 65}, {"time": 1946, "pitch": 81, "duration": 13, "velocity": 70}, {"time": 1964, "pitch": 74, "duration": 4, "velocity": 59}, {"time": 1967, "pitch": 77, "duration": 4, "velocity": 71}, {"time": 1970, "pitch": 81, "duration": 7, "velocity": 61}, {"time": 1976, "pitch": 79, "duration": 6, "velocity": 70}, {"time": 1982, "pitch": 72, "duration": 4, "velocity": 59}, {"time": 1985, "pitch": 76, "duration": 8, "velocity": 73}, {"time": 1994, "pitch": 74, "duration": 12, "velocity": 73}, {"time": 2018, "pitch": 81, "duration": 7, "velocity": 90}, {"time": 2027, "pitch": 79, "duration": 2, "velocity": 76}, {"time": 2030, "pitch": 79, "duration": 4, "velocity": 74}, {"time": 2036, "pitch": 74, "duration": 6, "velocity": 69}, {"time": 2042, "pitch": 79, "duration": 11, "velocity": 95}, {"time": 2066, "pitch": 86, "duration": 4, "velocity": 76}, {"time": 2072, "pitch": 86, "duration": 1, "velocity": 71}, {"time": 2075, "pitch": 86, "duration": 3, "velocity": 71}, {"time": 2078, "pitch": 84, "duration": 5, "velocity": 67}, {"time": 2084, "pitch": 79, "duration": 6, "velocity": 76}, {"time": 2090, "pitch": 81, "duration": 8, "velocity": 74}, {"time": 2114, "pitch": 86, "duration": 4, "velocity": 72}, {"time": 2120, "pitch": 86, "duration": 3, "velocity": 73}, {"time": 2123, "pitch": 89, "duration": 3, "velocity": 65}, {"time": 2126, "pitch": 86, "duration": 6, "velocity": 72}, {"time": 2132, "pitch": 84, "duration": 4, "velocity": 66}, {"time": 2138, "pitch": 79, "duration": 9, "velocity": 67}, {"time": 2162, "pitch": 77, "duration": 4, "velocity": 93}, {"time": 2168, "pitch": 77, "duration": 2, "velocity": 95}, {"time": 2171, "pitch": 79, "duration": 2, "velocity": 67}, {"time": 2174, "pitch": 77, "duration": 6, "velocity": 95}, {"time": 2180, "pitch": 72, "duration": 7, "velocity": 59}, {"time": 2186, "pitch": 74, "duration": 10, "velocity": 77}, {"time": 2210, "pitch": 81, "duration": 7, "velocity": 85}, {"time": 2216, "pitch": 86, "duration": 3, "velocity": 71}, {"time": 2222, "pitch": 86, "duration": 4, "velocity": 104}, {"time": 2228, "pitch": 84, "duration": 3, "velocity": 68}, {"time": 2231, "pitch": 81, "duration": 3, "velocity": 72}, {"time": 2234, "pitch": 84, "duration": 4, "velocity": 74}, {"time": 2240, "pitch": 88, "duration": 4, "velocity": 87}, {"time": 2246, "pitch": 86, "duration": 9, "velocity": 77}, {"time": 2258, "pitch": 89, "duration": 3, "velocity": 90}, {"time": 2264, "pitch": 89, "duration": 2, "velocity": 87}, {"time": 2267, "pitch": 91, "duration": 2, "velocity": 74}, {"time": 2270, "pitch": 89, "duration": 4, "velocity": 98}, {"time": 2276, "pitch": 86, "duration": 3, "velocity": 85}, {"time": 2282, "pitch": 84, "duration": 9, "velocity": 90}, {"time": 2288, "pitch": 86, "duration": 6, "velocity": 87}, {"time": 2294, "pitch": 81, "duration": 6, "velocity": 90}, {"time": 2306, "pitch": 74, "duration": 5, "velocity": 71}, {"time": 2312, "pitch": 79, "duration": 4, "velocity": 74}, {"time": 2318, "pitch": 79, "duration": 5, "velocity": 104}, {"time": 2324, "pitch": 79, "duration": 3, "velocity": 85}, {"time": 2330, "pitch": 81, "duration": 5, "velocity": 74}, {"time": 2336, "pitch": 84, "duration": 4, "velocity": 93}, {"time": 2342, "pitch": 86, "duration": 4, "velocity": 104}, {"time": 2348, "pitch": 86, "duration": 5, "velocity": 100}, {"time": 2354, "pitch": 89, "duration": 4, "velocity": 81}, {"time": 2360, "pitch": 89, "duration": 3, "velocity": 71}, {"time": 2363, "pitch": 91, "duration": 2, "velocity": 86}, {"time": 2366, "pitch": 93, "duration": 3, "velocity": 79}, {"time": 2372, "pitch": 93, "duration": 5, "velocity": 87}, {"time": 2378, "pitch": 84, "duration": 5, "velocity": 98}, {"time": 2387, "pitch": 84, "duration": 3, "velocity": 95}, {"time": 2390, "pitch": 81, "duration": 4, "velocity": 71}, {"time": 2396, "pitch": 84, "duration": 4, "velocity": 75}, {"time": 2402, "pitch": 86, "duration": 24, "velocity": 114}, {"time": 2450, "pitch": 81, "duration": 7, "velocity": 85}, {"time": 2456, "pitch": 86, "duration": 3, "velocity": 71}, {"time": 2462, "pitch": 86, "duration": 4, "velocity": 104}, {"time": 2468, "pitch": 84, "duration": 3, "velocity": 68}, {"time": 2471, "pitch": 81, "duration": 3, "velocity": 72}, {"time": 2474, "pitch": 84, "duration": 4, "velocity": 74}, {"time": 2480, "pitch": 88, "duration": 4, "velocity": 87}, {"time": 2486, "pitch": 86, "duration": 9, "velocity": 77}, {"time": 2498, "pitch": 89, "duration": 3, "velocity": 90}, {"time": 2504, "pitch": 89, "duration": 2, "velocity": 87}, {"time": 2507, "pitch": 91, "duration": 2, "velocity": 74}, {"time": 2510, "pitch": 89, "duration": 4, "velocity": 98}, {"time": 2516, "pitch": 86, "duration": 3, "velocity": 85}, {"time": 2522, "pitch": 84, "duration": 9, "velocity": 90}, {"time": 2528, "pitch": 86, "duration": 6, "velocity": 87}, {"time": 2534, "pitch": 81, "duration": 6, "velocity": 90}, {"time": 2546, "pitch": 74, "duration": 5, "velocity": 71}, {"time": 2552, "pitch": 79, "duration": 4, "velocity": 74}, {"time": 2558, "pitch": 79, "duration": 5, "velocity": 104}, {"time": 2564, "pitch": 79, "duration": 3, "velocity": 85}, {"time": 2570, "pitch": 81, "duration": 5, "velocity": 74}, {"time": 2576, "pitch": 84, "duration": 4, "velocity": 93}, {"time": 2582, "pitch": 86, "duration": 4, "velocity": 104}, {"time": 2588, "pitch": 86, "duration": 5, "velocity": 100}, {"time": 2594, "pitch": 89, "duration": 4, "velocity": 81}, {"time": 2600, "pitch": 89, "duration": 3, "velocity": 71}, {"time": 2603, "pitch": 91, "duration": 2, "velocity": 86}, {"time": 2606, "pitch": 93, "duration": 3, "velocity": 79}, {"time": 2612, "pitch": 93, "duration": 5, "velocity": 87}, {"time": 2618, "pitch": 84, "duration": 5, "velocity": 98}, {"time": 2627, "pitch": 84, "duration": 3, "velocity": 95}, {"time": 2630, "pitch": 81, "duration": 4, "velocity": 71}, {"time": 2636, "pitch": 84, "duration": 4, "velocity": 75}, {"time": 2642, "pitch": 86, "duration": 24, "velocity": 114}, {"time": 2690, "pitch": 81, "duration": 7, "velocity": 85}, {"time": 2696, "pitch": 86, "duration": 3, "velocity": 71}, {"time": 2702, "pitch": 86, "duration": 4, "velocity": 104}, {"time": 2708, "pitch": 84, "duration": 3, "velocity": 68}, {"time": 2711, "pitch": 81, "duration": 3, "velocity": 72}, {"time": 2714, "pitch": 84, "duration": 4, "velocity": 74}, {"time": 2720, "pitch": 88, "duration": 4, "velocity": 87}, {"time": 2726, "pitch": 86, "duration": 9, "velocity": 77}, {"time": 2738, "pitch": 89, "duration": 3, "velocity": 90}, {"time": 2744, "pitch": 89, "duration": 2, "velocity": 87}, {"time": 2747, "pitch": 91, "duration": 2, "velocity": 74}, {"time": 2750, "pitch": 89, "duration": 4, "velocity": 98}, {"time": 2756, "pitch": 86, "duration": 3, "velocity": 85}, {"time": 2762, "pitch": 84, "duration": 9, "velocity": 90}, {"time": 2768, "pitch": 86, "duration": 6, "velocity": 87}, {"time": 2774, "pitch": 81, "duration": 6, "velocity": 90}, {"time": 2786, "pitch": 74, "duration": 5, "velocity": 71}, {"time": 2792, "pitch": 79, "duration": 4, "velocity": 74}, {"time": 2798, "pitch": 79, "duration": 5, "velocity": 104}, {"time": 2804, "pitch": 79, "duration": 3, "velocity": 85}, {"time": 2810, "pitch": 81, "duration": 5, "velocity": 74}, {"time": 2816, "pitch": 84, "duration": 4, "velocity": 93}, {"time": 2822, "pitch": 86, "duration": 4, "velocity": 104}, {"time": 2828, "pitch": 86, "duration": 5, "velocity": 100}, {"time": 2834, "pitch": 89, "duration": 4, "velocity": 81}, {"time": 2840, "pitch": 89, "duration": 3, "velocity": 71}, {"time": 2843, "pitch": 91, "duration": 2, "velocity": 86}, {"time": 2846, "pitch": 93, "duration": 3, "velocity": 79}, {"time": 2852, "pitch": 93, "duration": 5, "velocity": 87}, {"time": 2858, "pitch": 84, "duration": 5, "velocity": 98}, {"time": 2867, "pitch": 84, "duration": 3, "velocity": 95}, {"time": 2870, "pitch": 81, "duration": 4, "velocity": 71}, {"time": 2876, "pitch": 84, "duration": 4, "velocity": 75}, {"time": 2882, "pitch": 86, "duration": 24, "velocity": 114}, {"time": 2930, "pitch": 81, "duration": 7, "velocity": 85}, {"time": 2936, "pitch": 86, "duration": 3, "velocity": 71}, {"time": 2942, "pitch": 86, "duration": 4, "velocity": 104}, {"time": 2948, "pitch": 84, "duration": 3, "velocity": 68}, {"time": 2951, "pitch": 81, "duration": 3, "velocity": 72}, {"time": 2954, "pitch": 84, "duration": 4, "velocity": 74}, {"time": 2960, "pitch": 88, "duration": 4, "velocity": 87}, {"time": 2966, "pitch": 86, "duration": 9, "velocity": 77}, {"time": 2978, "pitch": 89, "duration": 3, "velocity": 90}, {"time": 2984, "pitch": 89, "duration": 2, "velocity": 87}, {"time": 2987, "pitch": 91, "duration": 2, "velocity": 74}, {"time": 2990, "pitch": 89, "duration": 4, "velocity": 98}, {"time": 2996, "pitch": 86, "duration": 3, "velocity": 85}, {"time": 3002, "pitch": 84, "duration": 9, "velocity": 90}, {"time": 3008, "pitch": 86, "duration": 6, "velocity": 87}, {"time": 3014, "pitch": 81, "duration": 6, "velocity": 90}, {"time": 3026, "pitch": 74, "duration": 5, "velocity": 71}, {"time": 3032, "pitch": 79, "duration": 4, "velocity": 74}, {"time": 3038, "pitch": 79, "duration": 5, "velocity": 104}, {"time": 3044, "pitch": 79, "duration": 3, "velocity": 85}, {"time": 3050, "pitch": 81, "duration": 5, "velocity": 74}, {"time": 3056, "pitch": 84, "duration": 4, "velocity": 93}, {"time": 3062, "pitch": 86, "duration": 4, "velocity": 104}, {"time": 3068, "pitch": 86, "duration": 5, "velocity": 100}, {"time": 3074, "pitch": 89, "duration": 4, "velocity": 81}, {"time": 3080, "pitch": 89, "duration": 3, "velocity": 71}, {"time": 3083, "pitch": 91, "duration": 2, "velocity": 86}, {"time": 3086, "pitch": 93, "duration": 3, "velocity": 79}, {"time": 3092, "pitch": 93, "duration": 5, "velocity": 87}, {"time": 3098, "pitch": 84, "duration": 5, "velocity": 98}, {"time": 3107, "pitch": 84, "duration": 3, "velocity": 95}, {"time": 3110, "pitch": 81, "duration": 4, "velocity": 71}, {"time": 3116, "pitch": 84, "duration": 4, "velocity": 75}, {"time": 3122, "pitch": 86, "duration": 24, "velocity": 114}, {"time": 3170, "pitch": 74, "duration": 8, "velocity": 79}, {"time": 3176, "pitch": 79, "duration": 5, "velocity": 90}, {"time": 3182, "pitch": 79, "duration": 5, "velocity": 87}, {"time": 3188, "pitch": 79, "duration": 4, "velocity": 90}, {"time": 3194, "pitch": 81, "duration": 7, "velocity": 83}, {"time": 3200, "pitch": 84, "duration": 5, "velocity": 71}, {"time": 3206, "pitch": 86, "duration": 5, "velocity": 77}, {"time": 3212, "pitch": 86, "duration": 4, "velocity": 108}, {"time": 3218, "pitch": 89, "duration": 6, "velocity": 76}, {"time": 3227, "pitch": 91, "duration": 2, "velocity": 74}, {"time": 3230, "pitch": 93, "duration": 4, "velocity": 85}, {"time": 3236, "pitch": 93, "duration": 6, "velocity": 85}, {"time": 3245, "pitch": 84, "duration": 9, "velocity": 87}, {"time": 3257, "pitch": 84, "duration": 6, "velocity": 67}, {"time": 3263, "pitch": 81, "duration": 10, "velocity": 68}, {"time": 3272, "pitch": 84, "duration": 35, "velocity": 72}, {"time": 3314, "pitch": 86, "duration": 33, "velocity": 86}], "annotations": [{"time": 50, "annotation": {"number": 64, "value": 79}, "group": "control_change"}, {"time": 110, "annotation": {"number": 64, "value": 80}, "group": "control_change"}, {"time": 158, "annotation": {"number": 64, "value": 81}, "group": "control_change"}, {"time": 206, "annotation": {"number": 64, "value": 82}, "group": "control_change"}, {"time": 242, "annotation": {"number": 64, "value": 83}, "group": "control_change"}, {"time": 326, "annotation": {"number": 64, "value": 84}, "group": "control_change"}, {"time": 338, "annotation": {"number": 64, "value": 85}, "group": "control_change"}]}, {"program": 0, "is_drum": false, "name": "PIANO", "notes": [{"time": 50, "pitch": 50, "duration": 18, "velocity": 71}, {"time": 50, "pitch": 65, "duration": 17, "velocity": 64}, {"time": 50, "pitch": 69, "duration": 17, "velocity": 60}, {"time": 56, "pitch": 57, "duration": 11, "velocity": 64}, {"time": 74, "pitch": 46, "duration": 22, "velocity": 72}, {"time": 86, "pitch": 62, "duration": 11, "velocity": 66}, {"time": 86, "pitch": 65, "duration": 10, "velocity": 79}, {"time": 98, "pitch": 46, "duration": 7, "velocity": 75}, {"time": 98, "pitch": 62, "duration": 7, "velocity": 64}, {"time": 98, "pitch": 65, "duration": 7, "velocity": 74}, {"time": 110, "pitch": 48, "duration": 12, "velocity": 77}, {"time": 110, "pitch": 64, "duration": 7, "velocity": 67}, {"time": 110, "pitch": 67, "duration": 7, "velocity": 74}, {"time": 122, "pitch": 41, "duration": 24, "velocity": 79}, {"time": 122, "pitch": 57, "duration": 22, "velocity": 54}, {"time": 122, "pitch": 60, "duration": 22, "velocity": 56}, {"time": 128, "pitch": 48, "duration": 17, "velocity": 70}, {"time": 134, "pitch": 65, "duration": 10, "velocity": 71}, {"time": 146, "pitch": 43, "duration": 23, "velocity": 67}, {"time": 152, "pitch": 50, "duration": 18, "velocity": 67}, {"time": 158, "pitch": 58, "duration": 12, "velocity": 62}, {"time": 170, "pitch": 45, "duration": 22, "velocity": 74}, {"time": 176, "pitch": 52, "duration": 16, "velocity": 61}, {"time": 182, "pitch": 60, "duration": 10, "velocity": 64}, {"time": 194, "pitch": 46, "duration": 18, "velocity": 73}, {"time": 200, "pitch": 53, "duration": 12, "velocity": 57}, {"time": 206, "pitch": 62, "duration": 12, "velocity": 62}, {"time": 218, "pitch": 48, "duration": 19, "velocity": 74}, {"time": 224, "pitch": 55, "duration": 19, "velocity": 59}, {"time": 230, "pitch": 64, "duration": 9, "velocity": 64}, {"time": 242, "pitch": 50, "duration": 41, "velocity": 74}, {"time": 242, "pitch": 65, "duration": 11, "velocity": 68}, {"time": 242, "pitch": 69, "duration": 11, "velocity": 68}, {"time": 248, "pitch": 57, "duration": 35, "velocity": 65}, {"time": 254, "pitch": 65, "duration": 12, "velocity": 65}, {"time": 254, "pitch": 69, "duration": 12, "velocity": 73}, {"time": 260, "pitch": 62, "duration": 10, "velocity": 36}, {"time": 266, "pitch": 65, "duration": 11, "velocity": 70}, {"time": 266, "pitch": 69, "duration": 11, "velocity": 71}, {"time": 272, "pitch": 62, "duration": 7, "velocity": 54}, {"time": 278, "pitch": 65, "duration": 5, "velocity": 68}, {"time": 278, "pitch": 69, "duration": 5, "velocity": 71}, {"time": 290, "pitch": 46, "duration": 9, "velocity": 60}, {"time": 290, "pitch": 62, "duration": 10, "velocity": 69}, {"time": 290, "pitch": 65, "duration": 10, "velocity": 75}, {"time": 302, "pitch": 48, "duration": 7, "velocity": 70}, {"time": 302, "pitch": 64, "duration": 8, "velocity": 60}, {"time": 302, "pitch": 69, "duration": 6, "velocity": 67}, {"time": 314, "pitch": 41, "duration": 20, "velocity": 87}, {"time": 320, "pitch": 48, "duration": 14, "velocity": 59}, {"time": 326, "pitch": 57, "duration": 8, "velocity": 60}, {"time": 326, "pitch": 60, "duration": 8, "velocity": 67}, {"time": 338, "pitch": 50, "duration": 15, "velocity": 76}, {"time": 338, "pitch": 65, "duration": 11, "velocity": 67}, {"time": 338, "pitch": 69, "duration": 11, "velocity": 68}, {"time": 344, "pitch": 57, "duration": 7, "velocity": 63}, {"time": 350, "pitch": 65, "duration": 5, "velocity": 69}, {"time": 350, "pitch": 69, "duration": 5, "velocity": 69}, {"time": 362, "pitch": 43, "duration": 20, "velocity": 70}, {"time": 362, "pitch": 58, "duration": 12, "velocity": 63}, {"time": 362, "pitch": 62, "duration": 8, "velocity": 67}, {"time": 368, "pitch": 50, "duration": 14, "velocity": 54}, {"time": 374, "pitch": 58, "duration": 8, "velocity": 63}, {"time": 374, "pitch": 62, "duration": 8, "velocity": 79}, {"time": 386, "pitch": 45, "duration": 42, "velocity": 66}, {"time": 386, "pitch": 60, "duration": 11, "velocity": 64}, {"time": 386, "pitch": 64, "duration": 11, "velocity": 74}, {"time": 392, "pitch": 52, "duration": 36, "velocity": 58}, {"time": 398, "pitch": 60, "duration": 11, "velocity": 60}, {"time": 398, "pitch": 64, "duration": 11, "velocity": 66}, {"time": 404, "pitch": 57, "duration": 24, "velocity": 47}, {"time": 410, "pitch": 60, "duration": 18, "velocity": 58}, {"time": 410, "pitch": 64, "duration": 18, "velocity": 59}, {"time": 434, "pitch": 50, "duration": 42, "velocity": 74}, {"time": 434, "pitch": 64, "duration": 7, "velocity": 61}, {"time": 434, "pitch": 67, "duration": 7, "velocity": 64}, {"time": 440, "pitch": 57, "duration": 35, "velocity": 63}, {"time": 446, "pitch": 65, "duration": 11, "velocity": 61}, {"time": 446, "pitch": 69, "duration": 11, "velocity": 67}, {"time": 452, "pitch": 62, "duration": 6, "velocity": 33}, {"time": 458, "pitch": 65, "duration": 9, "velocity": 46}, {"time": 458, "pitch": 69, "duration": 8, "velocity": 59}, {"time": 464, "pitch": 62, "duration": 13, "velocity": 68}, {"time": 470, "pitch": 65, "duration": 6, "velocity": 66}, {"time": 470, "pitch": 69, "duration": 6, "velocity": 74}, {"time": 482, "pitch": 50, "duration": 21, "velocity": 70}, {"time": 485, "pitch": 57, "duration": 17, "velocity": 61}, {"time": 488, "pitch": 62, "duration": 11, "velocity": 55}, {"time": 491, "pitch": 65, "duration": 4, "velocity": 70}, {"time": 494, "pitch": 69, "duration": 21, "velocity": 63}, {"time": 506, "pitch": 50, "duration": 20, "velocity": 76}, {"time": 509, "pitch": 57, "duration": 15, "velocity": 66}, {"time": 512, "pitch": 62, "duration": 11, "velocity": 58}, {"time": 515, "pitch": 65, "duration": 4, "velocity": 60}, {"time": 518, "pitch": 69, "duration": 7, "velocity": 67}, {"time": 524, "pitch": 65, "duration": 6, "velocity": 66}, {"time": 530, "pitch": 43, "duration": 11, "velocity": 58}, {"time": 533, "pitch": 50, "duration": 9, "velocity": 69}, {"time": 536, "pitch": 55, "duration": 6, "velocity": 58}, {"time": 539, "pitch": 58, "duration": 4, "velocity": 61}, {"time": 542, "pitch": 45, "duration": 7, "velocity": 74}, {"time": 542, "pitch": 62, "duration": 2, "velocity": 65}, {"time": 545, "pitch": 52, "duration": 5, "velocity": 79}, {"time": 548, "pitch": 57, "duration": 5, "velocity": 59}, {"time": 548, "pitch": 60, "duration": 4, "velocity": 59}, {"time": 551, "pitch": 64, "duration": 3, "velocity": 60}, {"time": 554, "pitch": 50, "duration": 23, "velocity": 79}, {"time": 557, "pitch": 57, "duration": 20, "velocity": 60}, {"time": 560, "pitch": 62, "duration": 16, "velocity": 45}, {"time": 566, "pitch": 65, "duration": 10, "velocity": 61}, {"time": 578, "pitch": 43, "duration": 41, "velocity": 66}, {"time": 578, "pitch": 58, "duration": 11, "velocity": 61}, {"time": 578, "pitch": 62, "duration": 7, "velocity": 61}, {"time": 590, "pitch": 58, "duration": 11, "velocity": 64}, {"time": 590, "pitch": 62, "duration": 11, "velocity": 77}, {"time": 596, "pitch": 50, "duration": 24, "velocity": 58}, {"time": 602, "pitch": 58, "duration": 11, "velocity": 60}, {"time": 602, "pitch": 62, "duration": 10, "velocity": 60}, {"time": 608, "pitch": 55, "duration": 19, "velocity": 48}, {"time": 614, "pitch": 58, "duration": 6, "velocity": 64}, {"time": 614, "pitch": 62, "duration": 5, "velocity": 71}, {"time": 626, "pitch": 48, "duration": 17, "velocity": 69}, {"time": 626, "pitch": 64, "duration": 11, "velocity": 59}, {"time": 626, "pitch": 67, "duration": 11, "velocity": 64}, {"time": 632, "pitch": 55, "duration": 10, "velocity": 65}, {"time": 638, "pitch": 64, "duration": 7, "velocity": 73}, {"time": 638, "pitch": 67, "duration": 7, "velocity": 77}, {"time": 650, "pitch": 41, "duration": 25, "velocity": 64}, {"time": 650, "pitch": 57, "duration": 11, "velocity": 59}, {"time": 650, "pitch": 60, "duration": 11, "velocity": 60}, {"time": 656, "pitch": 48, "duration": 18, "velocity": 45}, {"time": 662, "pitch": 57, "duration": 12, "velocity": 61}, {"time": 662, "pitch": 60, "duration": 12, "velocity": 66}, {"time": 674, "pitch": 46, "duration": 19, "velocity": 65}, {"time": 674, "pitch": 62, "duration": 10, "velocity": 67}, {"time": 674, "pitch": 65, "duration": 11, "velocity": 76}, {"time": 686, "pitch": 62, "duration": 8, "velocity": 72}, {"time": 686, "pitch": 65, "duration": 8, "velocity": 81}, {"time": 698, "pitch": 48, "duration": 19, "velocity": 71}, {"time": 698, "pitch": 64, "duration": 11, "velocity": 63}, {"time": 698, "pitch": 67, "duration": 12, "velocity": 67}, {"time": 704, "pitch": 55, "duration": 11, "velocity": 69}, {"time": 710, "pitch": 64, "duration": 8, "velocity": 63}, {"time": 710, "pitch": 67, "duration": 8, "velocity": 63}, {"time": 722, "pitch": 46, "duration": 19, "velocity": 67}, {"time": 722, "pitch": 62, "duration": 12, "velocity": 67}, {"time": 722, "pitch": 65, "duration": 12, "velocity": 75}, {"time": 734, "pitch": 62, "duration": 7, "velocity": 62}, {"time": 734, "pitch": 65, "duration": 7, "velocity": 68}, {"time": 746, "pitch": 50, "duration": 23, "velocity": 61}, {"time": 746, "pitch": 65, "duration": 11, "velocity": 61}, {"time": 746, "pitch": 69, "duration": 11, "velocity": 65}, {"time": 752, "pitch": 57, "duration": 17, "velocity": 44}, {"time": 758, "pitch": 65, "duration": 11, "velocity": 59}, {"time": 758, "pitch": 69, "duration": 12, "velocity": 60}, {"time": 770, "pitch": 50, "duration": 21, "velocity": 70}, {"time": 773, "pitch": 57, "duration": 17, "velocity": 61}, {"time": 776, "pitch": 62, "duration": 11, "velocity": 55}, {"time": 779, "pitch": 65, "duration": 12, "velocity": 70}, {"time": 782, "pitch": 69, "duration": 21, "velocity": 63}, {"time": 794, "pitch": 50, "duration": 20, "velocity": 76}, {"time": 797, "pitch": 57, "duration": 15, "velocity": 66}, {"time": 800, "pitch": 62, "duration": 11, "velocity": 58}, {"time": 803, "pitch": 65, "duration": 4, "velocity": 60}, {"time": 806, "pitch": 69, "duration": 7, "velocity": 67}, {"time": 812, "pitch": 65, "duration": 6, "velocity": 66}, {"time": 818, "pitch": 43, "duration": 11, "velocity": 58}, {"time": 821, "pitch": 50, "duration": 9, "velocity": 69}, {"time": 824, "pitch": 55, "duration": 6, "velocity": 58}, {"time": 827, "pitch": 58, "duration": 4, "velocity": 61}, {"time": 830, "pitch": 45, "duration": 7, "velocity": 74}, {"time": 830, "pitch": 62, "duration": 2, "velocity": 65}, {"time": 833, "pitch": 52, "duration": 5, "velocity": 79}, {"time": 836, "pitch": 57, "duration": 5, "velocity": 59}, {"time": 836, "pitch": 60, "duration": 4, "velocity": 59}, {"time": 839, "pitch": 64, "duration": 3, "velocity": 60}, {"time": 842, "pitch": 50, "duration": 23, "velocity": 79}, {"time": 845, "pitch": 57, "duration": 20, "velocity": 60}, {"time": 848, "pitch": 62, "duration": 16, "velocity": 45}, {"time": 854, "pitch": 65, "duration": 10, "velocity": 61}, {"time": 866, "pitch": 43, "duration": 41, "velocity": 66}, {"time": 866, "pitch": 58, "duration": 11, "velocity": 61}, {"time": 866, "pitch": 62, "duration": 7, "velocity": 61}, {"time": 878, "pitch": 58, "duration": 11, "velocity": 64}, {"time": 878, "pitch": 62, "duration": 11, "velocity": 77}, {"time": 884, "pitch": 50, "duration": 24, "velocity": 58}, {"time": 890, "pitch": 58, "duration": 11, "velocity": 60}, {"time": 890, "pitch": 62, "duration": 10, "velocity": 60}, {"time": 896, "pitch": 55, "duration": 19, "velocity": 48}, {"time": 902, "pitch": 58, "duration": 6, "velocity": 64}, {"time": 902, "pitch": 62, "duration": 5, "velocity": 71}, {"time": 914, "pitch": 48, "duration": 17, "velocity": 69}, {"time": 914, "pitch": 64, "duration": 11, "velocity": 59}, {"time": 914, "pitch": 67, "duration": 11, "velocity": 64}, {"time": 920, "pitch": 55, "duration": 10, "velocity": 65}, {"time": 926, "pitch": 64, "duration": 7, "velocity": 73}, {"time": 926, "pitch": 67, "duration": 7, "velocity": 77}, {"time": 938, "pitch": 41, "duration": 25, "velocity": 64}, {"time": 938, "pitch": 57, "duration": 11, "velocity": 59}, {"time": 938, "pitch": 60, "duration": 11, "velocity": 60}, {"time": 944, "pitch": 48, "duration": 18, "velocity": 45}, {"time": 950, "pitch": 57, "duration": 12, "velocity": 61}, {"time": 950, "pitch": 60, "duration": 12, "velocity": 66}, {"time": 962, "pitch": 46, "duration": 19, "velocity": 65}, {"time": 962, "pitch": 62, "duration": 10, "velocity": 67}, {"time": 962, "pitch": 65, "duration": 11, "velocity": 76}, {"time": 974, "pitch": 62, "duration": 8, "velocity": 72}, {"time": 974, "pitch": 65, "duration": 8, "velocity": 81}, {"time": 986, "pitch": 48, "duration": 19, "velocity": 71}, {"time": 986, "pitch": 64, "duration": 11, "velocity": 63}, {"time": 986, "pitch": 67, "duration": 12, "velocity": 67}, {"time": 992, "pitch": 55, "duration": 11, "velocity": 69}, {"time": 998, "pitch": 64, "duration": 8, "velocity": 63}, {"time": 998, "pitch": 67, "duration": 8, "velocity": 63}, {"time": 1010, "pitch": 46, "duration": 19, "velocity": 67}, {"time": 1010, "pitch": 62, "duration": 12, "velocity": 67}, {"time": 1010, "pitch": 65, "duration": 12, "velocity": 75}, {"time": 1022, "pitch": 62, "duration": 7, "velocity": 62}, {"time": 1022, "pitch": 65, "duration": 7, "velocity": 68}, {"time": 1034, "pitch": 50, "duration": 23, "velocity": 61}, {"time": 1034, "pitch": 65, "duration": 11, "velocity": 61}, {"time": 1034, "pitch": 69, "duration": 11, "velocity": 65}, {"time": 1040, "pitch": 57, "duration": 17, "velocity": 44}, {"time": 1046, "pitch": 65, "duration": 11, "velocity": 59}, {"time": 1046, "pitch": 69, "duration": 12, "velocity": 60}, {"time": 1058, "pitch": 65, "duration": 6, "velocity": 66}, {"time": 1058, "pitch": 62, "duration": 6, "velocity": 58}, {"time": 1058, "pitch": 57, "duration": 6, "velocity": 54}, {"time": 1058, "pitch": 38, "duration": 14, "velocity": 65}, {"time": 1067, "pitch": 50, "duration": 3, "velocity": 52}, {"time": 1070, "pitch": 65, "duration": 6, "velocity": 79}, {"time": 1070, "pitch": 62, "duration": 6, "velocity": 71}, {"time": 1070, "pitch": 57, "duration": 6, "velocity": 76}, {"time": 1073, "pitch": 50, "duration": 3, "velocity": 57}, {"time": 1076, "pitch": 38, "duration": 6, "velocity": 56}, {"time": 1082, "pitch": 60, "duration": 7, "velocity": 57}, {"time": 1082, "pitch": 45, "duration": 5, "velocity": 54}, {"time": 1082, "pitch": 64, "duration": 7, "velocity": 56}, {"time": 1082, "pitch": 57, "duration": 7, "velocity": 56}, {"time": 1091, "pitch": 45, "duration": 4, "velocity": 62}, {"time": 1094, "pitch": 65, "duration": 4, "velocity": 68}, {"time": 1094, "pitch": 38, "duration": 12, "velocity": 55}, {"time": 1094, "pitch": 57, "duration": 4, "velocity": 63}, {"time": 1094, "pitch": 62, "duration": 4, "velocity": 61}, {"time": 1097, "pitch": 50, "duration": 9, "velocity": 64}, {"time": 1100, "pitch": 65, "duration": 2, "velocity": 51}, {"time": 1100, "pitch": 62, "duration": 2, "velocity": 47}, {"time": 1100, "pitch": 57, "duration": 2, "velocity": 51}, {"time": 1106, "pitch": 65, "duration": 7, "velocity": 68}, {"time": 1106, "pitch": 58, "duration": 7, "velocity": 67}, {"time": 1106, "pitch": 46, "duration": 6, "velocity": 56}, {"time": 1106, "pitch": 62, "duration": 7, "velocity": 56}, {"time": 1115, "pitch": 46, "duration": 4, "velocity": 72}, {"time": 1118, "pitch": 65, "duration": 6, "velocity": 79}, {"time": 1118, "pitch": 58, "duration": 3, "velocity": 81}, {"time": 1118, "pitch": 62, "duration": 6, "velocity": 72}, {"time": 1121, "pitch": 46, "duration": 3, "velocity": 40}, {"time": 1130, "pitch": 60, "duration": 4, "velocity": 64}, {"time": 1130, "pitch": 64, "duration": 4, "velocity": 67}, {"time": 1130, "pitch": 55, "duration": 4, "velocity": 68}, {"time": 1130, "pitch": 36, "duration": 7, "velocity": 51}, {"time": 1133, "pitch": 48, "duration": 5, "velocity": 68}, {"time": 1136, "pitch": 55, "duration": 2, "velocity": 80}, {"time": 1139, "pitch": 64, "duration": 2, "velocity": 72}, {"time": 1139, "pitch": 60, "duration": 1, "velocity": 48}, {"time": 1142, "pitch": 65, "duration": 6, "velocity": 73}, {"time": 1142, "pitch": 41, "duration": 9, "velocity": 63}, {"time": 1142, "pitch": 57, "duration": 5, "velocity": 71}, {"time": 1142, "pitch": 60, "duration": 6, "velocity": 56}, {"time": 1145, "pitch": 53, "duration": 7, "velocity": 51}, {"time": 1154, "pitch": 67, "duration": 7, "velocity": 74}, {"time": 1154, "pitch": 58, "duration": 7, "velocity": 63}, {"time": 1154, "pitch": 62, "duration": 7, "velocity": 59}, {"time": 1155, "pitch": 43, "duration": 14, "velocity": 52}, {"time": 1163, "pitch": 55, "duration": 4, "velocity": 77}, {"time": 1166, "pitch": 67, "duration": 6, "velocity": 79}, {"time": 1166, "pitch": 58, "duration": 3, "velocity": 83}, {"time": 1166, "pitch": 62, "duration": 6, "velocity": 74}, {"time": 1169, "pitch": 55, "duration": 3, "velocity": 69}, {"time": 1172, "pitch": 43, "duration": 6, "velocity": 61}, {"time": 1178, "pitch": 64, "duration": 4, "velocity": 59}, {"time": 1178, "pitch": 69, "duration": 4, "velocity": 68}, {"time": 1178, "pitch": 60, "duration": 4, "velocity": 63}, {"time": 1179, "pitch": 45, "duration": 9, "velocity": 44}, {"time": 1181, "pitch": 52, "duration": 4, "velocity": 52}, {"time": 1184, "pitch": 69, "duration": 6, "velocity": 80}, {"time": 1184, "pitch": 60, "duration": 3, "velocity": 74}, {"time": 1184, "pitch": 64, "duration": 4, "velocity": 81}, {"time": 1187, "pitch": 52, "duration": 1, "velocity": 80}, {"time": 1190, "pitch": 65, "duration": 8, "velocity": 70}, {"time": 1190, "pitch": 38, "duration": 16, "velocity": 68}, {"time": 1190, "pitch": 57, "duration": 7, "velocity": 74}, {"time": 1191, "pitch": 62, "duration": 7, "velocity": 62}, {"time": 1199, "pitch": 50, "duration": 4, "velocity": 55}, {"time": 1203, "pitch": 65, "duration": 8, "velocity": 62}, {"time": 1203, "pitch": 43, "duration": 1, "velocity": 50}, {"time": 1203, "pitch": 58, "duration": 7, "velocity": 65}, {"time": 1203, "pitch": 62, "duration": 8, "velocity": 54}, {"time": 1205, "pitch": 46, "duration": 3, "velocity": 63}, {"time": 1212, "pitch": 46, "duration": 3, "velocity": 79}, {"time": 1214, "pitch": 58, "duration": 3, "velocity": 83}, {"time": 1214, "pitch": 65, "duration": 6, "velocity": 76}, {"time": 1215, "pitch": 62, "duration": 7, "velocity": 72}, {"time": 1217, "pitch": 46, "duration": 4, "velocity": 47}, {"time": 1220, "pitch": 46, "duration": 1, "velocity": 67}, {"time": 1226, "pitch": 64, "duration": 6, "velocity": 74}, {"time": 1226, "pitch": 67, "duration": 6, "velocity": 76}, {"time": 1226, "pitch": 60, "duration": 6, "velocity": 76}, {"time": 1226, "pitch": 48, "duration": 11, "velocity": 67}, {"time": 1235, "pitch": 67, "duration": 3, "velocity": 67}, {"time": 1235, "pitch": 60, "duration": 1, "velocity": 62}, {"time": 1238, "pitch": 64, "duration": 5, "velocity": 67}, {"time": 1238, "pitch": 60, "duration": 5, "velocity": 64}, {"time": 1238, "pitch": 55, "duration": 4, "velocity": 72}, {"time": 1238, "pitch": 48, "duration": 6, "velocity": 67}, {"time": 1241, "pitch": 55, "duration": 1, "velocity": 44}, {"time": 1244, "pitch": 64, "duration": 3, "velocity": 61}, {"time": 1244, "pitch": 55, "duration": 2, "velocity": 72}, {"time": 1244, "pitch": 60, "duration": 4, "velocity": 47}, {"time": 1245, "pitch": 48, "duration": 1, "velocity": 27}, {"time": 1250, "pitch": 62, "duration": 7, "velocity": 80}, {"time": 1250, "pitch": 65, "duration": 6, "velocity": 76}, {"time": 1250, "pitch": 50, "duration": 12, "velocity": 72}, {"time": 1251, "pitch": 38, "duration": 7, "velocity": 68}, {"time": 1259, "pitch": 38, "duration": 30, "velocity": 68}, {"time": 1262, "pitch": 65, "duration": 4, "velocity": 84}, {"time": 1262, "pitch": 57, "duration": 4, "velocity": 90}, {"time": 1262, "pitch": 62, "duration": 5, "velocity": 79}, {"time": 1265, "pitch": 50, "duration": 7, "velocity": 67}, {"time": 1268, "pitch": 64, "duration": 1, "velocity": 63}, {"time": 1271, "pitch": 65, "duration": 6, "velocity": 110}, {"time": 1277, "pitch": 64, "duration": 1, "velocity": 59}, {"time": 1283, "pitch": 65, "duration": 5, "velocity": 100}, {"time": 1286, "pitch": 50, "duration": 8, "velocity": 64}, {"time": 1289, "pitch": 62, "duration": 4, "velocity": 79}, {"time": 1292, "pitch": 38, "duration": 2, "velocity": 67}, {"time": 1292, "pitch": 65, "duration": 2, "velocity": 56}, {"time": 1298, "pitch": 65, "duration": 7, "velocity": 66}, {"time": 1298, "pitch": 62, "duration": 7, "velocity": 64}, {"time": 1298, "pitch": 57, "duration": 7, "velocity": 65}, {"time": 1298, "pitch": 38, "duration": 15, "velocity": 62}, {"time": 1307, "pitch": 50, "duration": 4, "velocity": 55}, {"time": 1311, "pitch": 57, "duration": 4, "velocity": 87}, {"time": 1311, "pitch": 62, "duration": 5, "velocity": 77}, {"time": 1311, "pitch": 65, "duration": 5, "velocity": 79}, {"time": 1313, "pitch": 50, "duration": 4, "velocity": 53}, {"time": 1316, "pitch": 38, "duration": 7, "velocity": 65}, {"time": 1322, "pitch": 64, "duration": 4, "velocity": 62}, {"time": 1322, "pitch": 69, "duration": 4, "velocity": 70}, {"time": 1322, "pitch": 60, "duration": 4, "velocity": 65}, {"time": 1322, "pitch": 45, "duration": 7, "velocity": 49}, {"time": 1325, "pitch": 52, "duration": 6, "velocity": 59}, {"time": 1328, "pitch": 60, "duration": 2, "velocity": 76}, {"time": 1328, "pitch": 64, "duration": 7, "velocity": 68}, {"time": 1328, "pitch": 69, "duration": 3, "velocity": 79}, {"time": 1331, "pitch": 45, "duration": 3, "velocity": 74}, {"time": 1334, "pitch": 65, "duration": 9, "velocity": 70}, {"time": 1334, "pitch": 57, "duration": 6, "velocity": 67}, {"time": 1334, "pitch": 62, "duration": 9, "velocity": 65}, {"time": 1335, "pitch": 38, "duration": 9, "velocity": 67}, {"time": 1338, "pitch": 50, "duration": 9, "velocity": 47}, {"time": 1341, "pitch": 57, "duration": 2, "velocity": 83}, {"time": 1347, "pitch": 58, "duration": 6, "velocity": 72}, {"time": 1347, "pitch": 65, "duration": 6, "velocity": 57}, {"time": 1347, "pitch": 62, "duration": 6, "velocity": 48}, {"time": 1347, "pitch": 46, "duration": 5, "velocity": 53}, {"time": 1355, "pitch": 46, "duration": 4, "velocity": 72}, {"time": 1358, "pitch": 58, "duration": 4, "velocity": 76}, {"time": 1358, "pitch": 65, "duration": 7, "velocity": 73}, {"time": 1358, "pitch": 62, "duration": 5, "velocity": 72}, {"time": 1361, "pitch": 46, "duration": 3, "velocity": 32}, {"time": 1364, "pitch": 58, "duration": 2, "velocity": 41}, {"time": 1370, "pitch": 60, "duration": 4, "velocity": 68}, {"time": 1370, "pitch": 64, "duration": 5, "velocity": 65}, {"time": 1370, "pitch": 67, "duration": 4, "velocity": 71}, {"time": 1370, "pitch": 36, "duration": 6, "velocity": 56}, {"time": 1373, "pitch": 48, "duration": 4, "velocity": 53}, {"time": 1376, "pitch": 64, "duration": 2, "velocity": 54}, {"time": 1376, "pitch": 67, "duration": 2, "velocity": 62}, {"time": 1376, "pitch": 60, "duration": 1, "velocity": 62}, {"time": 1382, "pitch": 65, "duration": 5, "velocity": 61}, {"time": 1382, "pitch": 69, "duration": 5, "velocity": 68}, {"time": 1382, "pitch": 41, "duration": 7, "velocity": 51}, {"time": 1382, "pitch": 60, "duration": 4, "velocity": 64}, {"time": 1385, "pitch": 53, "duration": 5, "velocity": 49}, {"time": 1388, "pitch": 65, "duration": 2, "velocity": 61}, {"time": 1388, "pitch": 69, "duration": 2, "velocity": 58}, {"time": 1388, "pitch": 60, "duration": 2, "velocity": 47}, {"time": 1394, "pitch": 43, "duration": 14, "velocity": 54}, {"time": 1394, "pitch": 58, "duration": 5, "velocity": 65}, {"time": 1394, "pitch": 67, "duration": 6, "velocity": 67}, {"time": 1394, "pitch": 62, "duration": 6, "velocity": 55}, {"time": 1403, "pitch": 55, "duration": 3, "velocity": 45}, {"time": 1406, "pitch": 58, "duration": 2, "velocity": 75}, {"time": 1406, "pitch": 67, "duration": 4, "velocity": 74}, {"time": 1406, "pitch": 62, "duration": 5, "velocity": 64}, {"time": 1409, "pitch": 55, "duration": 4, "velocity": 53}, {"time": 1412, "pitch": 43, "duration": 1, "velocity": 56}, {"time": 1418, "pitch": 45, "duration": 8, "velocity": 51}, {"time": 1418, "pitch": 69, "duration": 7, "velocity": 60}, {"time": 1418, "pitch": 64, "duration": 7, "velocity": 59}, {"time": 1418, "pitch": 60, "duration": 7, "velocity": 54}, {"time": 1424, "pitch": 52, "duration": 2, "velocity": 63}, {"time": 1427, "pitch": 60, "duration": 1, "velocity": 75}, {"time": 1427, "pitch": 69, "duration": 1, "velocity": 71}, {"time": 1427, "pitch": 64, "duration": 1, "velocity": 56}, {"time": 1430, "pitch": 38, "duration": 7, "velocity": 63}, {"time": 1430, "pitch": 65, "duration": 5, "velocity": 71}, {"time": 1430, "pitch": 57, "duration": 5, "velocity": 64}, {"time": 1430, "pitch": 62, "duration": 5, "velocity": 64}, {"time": 1433, "pitch": 50, "duration": 5, "velocity": 59}, {"time": 1436, "pitch": 65, "duration": 2, "velocity": 63}, {"time": 1436, "pitch": 62, "duration": 3, "velocity": 68}, {"time": 1436, "pitch": 57, "duration": 2, "velocity": 57}, {"time": 1443, "pitch": 46, "duration": 13, "velocity": 72}, {"time": 1443, "pitch": 65, "duration": 6, "velocity": 74}, {"time": 1443, "pitch": 58, "duration": 5, "velocity": 65}, {"time": 1443, "pitch": 62, "duration": 6, "velocity": 59}, {"time": 1451, "pitch": 53, "duration": 3, "velocity": 53}, {"time": 1454, "pitch": 58, "duration": 3, "velocity": 75}, {"time": 1454, "pitch": 62, "duration": 7, "velocity": 75}, {"time": 1454, "pitch": 65, "duration": 6, "velocity": 75}, {"time": 1457, "pitch": 53, "duration": 4, "velocity": 50}, {"time": 1460, "pitch": 46, "duration": 1, "velocity": 62}, {"time": 1466, "pitch": 64, "duration": 8, "velocity": 62}, {"time": 1466, "pitch": 67, "duration": 8, "velocity": 66}, {"time": 1466, "pitch": 36, "duration": 18, "velocity": 56}, {"time": 1467, "pitch": 60, "duration": 6, "velocity": 59}, {"time": 1467, "pitch": 48, "duration": 1, "velocity": 24}, {"time": 1476, "pitch": 48, "duration": 6, "velocity": 59}, {"time": 1481, "pitch": 64, "duration": 6, "velocity": 87}, {"time": 1481, "pitch": 60, "duration": 4, "velocity": 90}, {"time": 1481, "pitch": 67, "duration": 7, "velocity": 89}, {"time": 1484, "pitch": 48, "duration": 3, "velocity": 67}, {"time": 1487, "pitch": 36, "duration": 1, "velocity": 52}, {"time": 1490, "pitch": 57, "duration": 7, "velocity": 71}, {"time": 1490, "pitch": 65, "duration": 8, "velocity": 70}, {"time": 1490, "pitch": 62, "duration": 8, "velocity": 69}, {"time": 1490, "pitch": 38, "duration": 38, "velocity": 71}, {"time": 1499, "pitch": 50, "duration": 9, "velocity": 41}, {"time": 1506, "pitch": 64, "duration": 3, "velocity": 85}, {"time": 1512, "pitch": 65, "duration": 5, "velocity": 93}, {"time": 1517, "pitch": 50, "duration": 7, "velocity": 55}, {"time": 1520, "pitch": 62, "duration": 2, "velocity": 90}, {"time": 1523, "pitch": 64, "duration": 5, "velocity": 106}, {"time": 1526, "pitch": 50, "duration": 7, "velocity": 90}, {"time": 1529, "pitch": 65, "duration": 3, "velocity": 102}, {"time": 1532, "pitch": 38, "duration": 1, "velocity": 72}, {"time": 1538, "pitch": 65, "duration": 2, "velocity": 43}, {"time": 1538, "pitch": 38, "duration": 2, "velocity": 48}, {"time": 1538, "pitch": 50, "duration": 2, "velocity": 43}, {"time": 1538, "pitch": 57, "duration": 2, "velocity": 42}, {"time": 1538, "pitch": 62, "duration": 1, "velocity": 41}, {"time": 1541, "pitch": 38, "duration": 2, "velocity": 61}, {"time": 1541, "pitch": 50, "duration": 2, "velocity": 71}, {"time": 1541, "pitch": 57, "duration": 2, "velocity": 64}, {"time": 1541, "pitch": 62, "duration": 2, "velocity": 47}, {"time": 1541, "pitch": 65, "duration": 2, "velocity": 50}, {"time": 1544, "pitch": 38, "duration": 2, "velocity": 81}, {"time": 1544, "pitch": 65, "duration": 2, "velocity": 61}, {"time": 1544, "pitch": 50, "duration": 2, "velocity": 88}, {"time": 1544, "pitch": 57, "duration": 2, "velocity": 85}, {"time": 1544, "pitch": 62, "duration": 2, "velocity": 67}, {"time": 1553, "pitch": 50, "duration": 4, "velocity": 72}, {"time": 1553, "pitch": 57, "duration": 3, "velocity": 84}, {"time": 1553, "pitch": 62, "duration": 4, "velocity": 80}, {"time": 1553, "pitch": 65, "duration": 3, "velocity": 79}, {"time": 1553, "pitch": 38, "duration": 3, "velocity": 77}, {"time": 1562, "pitch": 57, "duration": 1, "velocity": 69}, {"time": 1562, "pitch": 62, "duration": 1, "velocity": 65}, {"time": 1562, "pitch": 65, "duration": 1, "velocity": 64}, {"time": 1562, "pitch": 38, "duration": 1, "velocity": 69}, {"time": 1562, "pitch": 50, "duration": 2, "velocity": 63}, {"time": 1565, "pitch": 50, "duration": 2, "velocity": 69}, {"time": 1565, "pitch": 65, "duration": 2, "velocity": 62}, {"time": 1565, "pitch": 38, "duration": 1, "velocity": 59}, {"time": 1565, "pitch": 57, "duration": 1, "velocity": 67}, {"time": 1565, "pitch": 62, "duration": 1, "velocity": 63}, {"time": 1568, "pitch": 65, "duration": 2, "velocity": 71}, {"time": 1568, "pitch": 50, "duration": 1, "velocity": 95}, {"time": 1568, "pitch": 57, "duration": 1, "velocity": 95}, {"time": 1568, "pitch": 38, "duration": 1, "velocity": 95}, {"time": 1568, "pitch": 62, "duration": 1, "velocity": 85}, {"time": 1577, "pitch": 50, "duration": 6, "velocity": 77}, {"time": 1577, "pitch": 65, "duration": 6, "velocity": 89}, {"time": 1577, "pitch": 57, "duration": 6, "velocity": 92}, {"time": 1577, "pitch": 62, "duration": 6, "velocity": 87}, {"time": 1577, "pitch": 38, "duration": 6, "velocity": 75}, {"time": 1586, "pitch": 50, "duration": 2, "velocity": 58}, {"time": 1586, "pitch": 57, "duration": 1, "velocity": 72}, {"time": 1587, "pitch": 38, "duration": 1, "velocity": 59}, {"time": 1587, "pitch": 65, "duration": 1, "velocity": 70}, {"time": 1587, "pitch": 62, "duration": 1, "velocity": 59}, {"time": 1587, "pitch": 69, "duration": 1, "velocity": 70}, {"time": 1589, "pitch": 65, "duration": 2, "velocity": 63}, {"time": 1589, "pitch": 50, "duration": 1, "velocity": 72}, {"time": 1589, "pitch": 38, "duration": 1, "velocity": 69}, {"time": 1589, "pitch": 57, "duration": 1, "velocity": 77}, {"time": 1589, "pitch": 69, "duration": 2, "velocity": 63}, {"time": 1589, "pitch": 62, "duration": 1, "velocity": 63}, {"time": 1592, "pitch": 65, "duration": 2, "velocity": 82}, {"time": 1592, "pitch": 38, "duration": 1, "velocity": 105}, {"time": 1592, "pitch": 50, "duration": 1, "velocity": 100}, {"time": 1592, "pitch": 57, "duration": 1, "velocity": 100}, {"time": 1592, "pitch": 62, "duration": 2, "velocity": 87}, {"time": 1592, "pitch": 69, "duration": 2, "velocity": 82}, {"time": 1601, "pitch": 65, "duration": 7, "velocity": 82}, {"time": 1601, "pitch": 50, "duration": 7, "velocity": 64}, {"time": 1601, "pitch": 57, "duration": 6, "velocity": 81}, {"time": 1601, "pitch": 38, "duration": 7, "velocity": 67}, {"time": 1601, "pitch": 62, "duration": 7, "velocity": 75}, {"time": 1601, "pitch": 69, "duration": 7, "velocity": 82}, {"time": 1610, "pitch": 38, "duration": 2, "velocity": 54}, {"time": 1610, "pitch": 69, "duration": 2, "velocity": 45}, {"time": 1610, "pitch": 50, "duration": 1, "velocity": 51}, {"time": 1610, "pitch": 62, "duration": 1, "velocity": 53}, {"time": 1610, "pitch": 65, "duration": 2, "velocity": 45}, {"time": 1610, "pitch": 57, "duration": 1, "velocity": 54}, {"time": 1613, "pitch": 38, "duration": 2, "velocity": 63}, {"time": 1613, "pitch": 57, "duration": 2, "velocity": 81}, {"time": 1613, "pitch": 50, "duration": 2, "velocity": 79}, {"time": 1613, "pitch": 62, "duration": 2, "velocity": 62}, {"time": 1613, "pitch": 65, "duration": 1, "velocity": 49}, {"time": 1613, "pitch": 69, "duration": 1, "velocity": 75}, {"time": 1616, "pitch": 38, "duration": 1, "velocity": 92}, {"time": 1616, "pitch": 57, "duration": 1, "velocity": 84}, {"time": 1616, "pitch": 50, "duration": 2, "velocity": 92}, {"time": 1616, "pitch": 62, "duration": 2, "velocity": 72}, {"time": 1616, "pitch": 69, "duration": 1, "velocity": 78}, {"time": 1616, "pitch": 65, "duration": 1, "velocity": 80}, {"time": 1625, "pitch": 57, "duration": 3, "velocity": 94}, {"time": 1625, "pitch": 65, "duration": 4, "velocity": 83}, {"time": 1625, "pitch": 69, "duration": 4, "velocity": 87}, {"time": 1625, "pitch": 38, "duration": 4, "velocity": 75}, {"time": 1625, "pitch": 50, "duration": 4, "velocity": 72}, {"time": 1625, "pitch": 62, "duration": 5, "velocity": 83}, {"time": 1635, "pitch": 46, "duration": 3, "velocity": 67}, {"time": 1635, "pitch": 65, "duration": 1, "velocity": 70}, {"time": 1635, "pitch": 58, "duration": 1, "velocity": 69}, {"time": 1635, "pitch": 62, "duration": 1, "velocity": 63}, {"time": 1637, "pitch": 53, "duration": 1, "velocity": 77}, {"time": 1637, "pitch": 65, "duration": 2, "velocity": 49}, {"time": 1637, "pitch": 58, "duration": 1, "velocity": 61}, {"time": 1637, "pitch": 62, "duration": 1, "velocity": 48}, {"time": 1640, "pitch": 65, "duration": 2, "velocity": 62}, {"time": 1640, "pitch": 58, "duration": 2, "velocity": 90}, {"time": 1640, "pitch": 46, "duration": 2, "velocity": 85}, {"time": 1640, "pitch": 53, "duration": 2, "velocity": 94}, {"time": 1640, "pitch": 62, "duration": 2, "velocity": 74}, {"time": 1649, "pitch": 53, "duration": 5, "velocity": 71}, {"time": 1649, "pitch": 58, "duration": 3, "velocity": 87}, {"time": 1649, "pitch": 62, "duration": 4, "velocity": 76}, {"time": 1649, "pitch": 65, "duration": 4, "velocity": 79}, {"time": 1649, "pitch": 46, "duration": 4, "velocity": 69}, {"time": 1658, "pitch": 58, "duration": 1, "velocity": 63}, {"time": 1658, "pitch": 46, "duration": 1, "velocity": 61}, {"time": 1658, "pitch": 65, "duration": 1, "velocity": 58}, {"time": 1658, "pitch": 53, "duration": 1, "velocity": 56}, {"time": 1658, "pitch": 62, "duration": 1, "velocity": 51}, {"time": 1661, "pitch": 53, "duration": 1, "velocity": 69}, {"time": 1661, "pitch": 46, "duration": 1, "velocity": 67}, {"time": 1661, "pitch": 58, "duration": 1, "velocity": 75}, {"time": 1661, "pitch": 62, "duration": 1, "velocity": 50}, {"time": 1661, "pitch": 65, "duration": 1, "velocity": 61}, {"time": 1664, "pitch": 46, "duration": 1, "velocity": 90}, {"time": 1664, "pitch": 53, "duration": 1, "velocity": 90}, {"time": 1664, "pitch": 58, "duration": 1, "velocity": 95}, {"time": 1664, "pitch": 65, "duration": 2, "velocity": 83}, {"time": 1664, "pitch": 62, "duration": 1, "velocity": 72}, {"time": 1673, "pitch": 64, "duration": 6, "velocity": 79}, {"time": 1673, "pitch": 67, "duration": 6, "velocity": 80}, {"time": 1673, "pitch": 48, "duration": 7, "velocity": 72}, {"time": 1673, "pitch": 60, "duration": 5, "velocity": 83}, {"time": 1682, "pitch": 57, "duration": 1, "velocity": 69}, {"time": 1682, "pitch": 65, "duration": 1, "velocity": 58}, {"time": 1682, "pitch": 60, "duration": 1, "velocity": 57}, {"time": 1682, "pitch": 41, "duration": 1, "velocity": 53}, {"time": 1683, "pitch": 53, "duration": 1, "velocity": 23}, {"time": 1685, "pitch": 53, "duration": 1, "velocity": 71}, {"time": 1685, "pitch": 57, "duration": 1, "velocity": 69}, {"time": 1685, "pitch": 65, "duration": 1, "velocity": 60}, {"time": 1685, "pitch": 60, "duration": 1, "velocity": 50}, {"time": 1685, "pitch": 41, "duration": 1, "velocity": 52}, {"time": 1688, "pitch": 57, "duration": 7, "velocity": 100}, {"time": 1688, "pitch": 65, "duration": 6, "velocity": 92}, {"time": 1688, "pitch": 41, "duration": 7, "velocity": 93}, {"time": 1688, "pitch": 53, "duration": 7, "velocity": 99}, {"time": 1688, "pitch": 60, "duration": 6, "velocity": 91}, {"time": 1697, "pitch": 57, "duration": 7, "velocity": 92}, {"time": 1697, "pitch": 60, "duration": 7, "velocity": 83}, {"time": 1697, "pitch": 65, "duration": 7, "velocity": 84}, {"time": 1697, "pitch": 41, "duration": 7, "velocity": 61}, {"time": 1697, "pitch": 53, "duration": 7, "velocity": 63}, {"time": 1706, "pitch": 57, "duration": 1, "velocity": 56}, {"time": 1706, "pitch": 41, "duration": 1, "velocity": 56}, {"time": 1706, "pitch": 60, "duration": 1, "velocity": 51}, {"time": 1706, "pitch": 65, "duration": 1, "velocity": 54}, {"time": 1706, "pitch": 53, "duration": 1, "velocity": 57}, {"time": 1709, "pitch": 57, "duration": 1, "velocity": 75}, {"time": 1709, "pitch": 65, "duration": 1, "velocity": 70}, {"time": 1709, "pitch": 60, "duration": 1, "velocity": 65}, {"time": 1709, "pitch": 41, "duration": 1, "velocity": 62}, {"time": 1709, "pitch": 53, "duration": 1, "velocity": 65}, {"time": 1712, "pitch": 53, "duration": 7, "velocity": 99}, {"time": 1712, "pitch": 57, "duration": 7, "velocity": 94}, {"time": 1712, "pitch": 60, "duration": 7, "velocity": 80}, {"time": 1712, "pitch": 65, "duration": 7, "velocity": 89}, {"time": 1712, "pitch": 41, "duration": 7, "velocity": 89}, {"time": 1721, "pitch": 60, "duration": 7, "velocity": 80}, {"time": 1721, "pitch": 65, "duration": 7, "velocity": 83}, {"time": 1721, "pitch": 57, "duration": 5, "velocity": 88}, {"time": 1721, "pitch": 53, "duration": 4, "velocity": 75}, {"time": 1722, "pitch": 41, "duration": 2, "velocity": 72}, {"time": 1727, "pitch": 64, "duration": 1, "velocity": 47}, {"time": 1731, "pitch": 38, "duration": 1, "velocity": 75}, {"time": 1731, "pitch": 50, "duration": 1, "velocity": 72}, {"time": 1731, "pitch": 62, "duration": 1, "velocity": 63}, {"time": 1731, "pitch": 57, "duration": 1, "velocity": 58}, {"time": 1733, "pitch": 50, "duration": 1, "velocity": 76}, {"time": 1733, "pitch": 38, "duration": 1, "velocity": 72}, {"time": 1733, "pitch": 62, "duration": 1, "velocity": 65}, {"time": 1733, "pitch": 57, "duration": 1, "velocity": 44}, {"time": 1736, "pitch": 65, "duration": 1, "velocity": 90}, {"time": 1736, "pitch": 57, "duration": 1, "velocity": 90}, {"time": 1736, "pitch": 38, "duration": 1, "velocity": 93}, {"time": 1736, "pitch": 50, "duration": 1, "velocity": 92}, {"time": 1736, "pitch": 62, "duration": 1, "velocity": 84}, {"time": 1745, "pitch": 65, "duration": 5, "velocity": 78}, {"time": 1745, "pitch": 57, "duration": 5, "velocity": 77}, {"time": 1745, "pitch": 38, "duration": 5, "velocity": 71}, {"time": 1745, "pitch": 62, "duration": 5, "velocity": 74}, {"time": 1745, "pitch": 50, "duration": 5, "velocity": 63}, {"time": 1754, "pitch": 57, "duration": 1, "velocity": 75}, {"time": 1754, "pitch": 38, "duration": 1, "velocity": 80}, {"time": 1754, "pitch": 65, "duration": 1, "velocity": 67}, {"time": 1754, "pitch": 50, "duration": 1, "velocity": 76}, {"time": 1754, "pitch": 62, "duration": 1, "velocity": 59}, {"time": 1757, "pitch": 38, "duration": 1, "velocity": 69}, {"time": 1757, "pitch": 50, "duration": 1, "velocity": 75}, {"time": 1757, "pitch": 57, "duration": 1, "velocity": 74}, {"time": 1757, "pitch": 62, "duration": 1, "velocity": 59}, {"time": 1757, "pitch": 65, "duration": 1, "velocity": 62}, {"time": 1760, "pitch": 38, "duration": 1, "velocity": 96}, {"time": 1760, "pitch": 50, "duration": 1, "velocity": 91}, {"time": 1760, "pitch": 57, "duration": 1, "velocity": 83}, {"time": 1760, "pitch": 65, "duration": 1, "velocity": 82}, {"time": 1760, "pitch": 62, "duration": 1, "velocity": 77}, {"time": 1769, "pitch": 65, "duration": 5, "velocity": 82}, {"time": 1769, "pitch": 50, "duration": 4, "velocity": 72}, {"time": 1769, "pitch": 57, "duration": 6, "velocity": 85}, {"time": 1769, "pitch": 62, "duration": 5, "velocity": 80}, {"time": 1769, "pitch": 38, "duration": 4, "velocity": 67}, {"time": 1779, "pitch": 58, "duration": 1, "velocity": 58}, {"time": 1779, "pitch": 46, "duration": 1, "velocity": 61}, {"time": 1779, "pitch": 53, "duration": 1, "velocity": 57}, {"time": 1779, "pitch": 65, "duration": 1, "velocity": 56}, {"time": 1779, "pitch": 62, "duration": 1, "velocity": 51}, {"time": 1781, "pitch": 53, "duration": 1, "velocity": 68}, {"time": 1781, "pitch": 46, "duration": 1, "velocity": 63}, {"time": 1781, "pitch": 58, "duration": 1, "velocity": 63}, {"time": 1781, "pitch": 62, "duration": 1, "velocity": 43}, {"time": 1781, "pitch": 65, "duration": 1, "velocity": 45}, {"time": 1784, "pitch": 46, "duration": 1, "velocity": 81}, {"time": 1784, "pitch": 53, "duration": 1, "velocity": 85}, {"time": 1784, "pitch": 58, "duration": 2, "velocity": 83}, {"time": 1784, "pitch": 65, "duration": 2, "velocity": 84}, {"time": 1784, "pitch": 62, "duration": 2, "velocity": 72}, {"time": 1793, "pitch": 46, "duration": 5, "velocity": 56}, {"time": 1793, "pitch": 53, "duration": 5, "velocity": 56}, {"time": 1793, "pitch": 65, "duration": 5, "velocity": 71}, {"time": 1793, "pitch": 58, "duration": 5, "velocity": 75}, {"time": 1793, "pitch": 62, "duration": 5, "velocity": 65}, {"time": 1802, "pitch": 46, "duration": 1, "velocity": 72}, {"time": 1802, "pitch": 53, "duration": 1, "velocity": 72}, {"time": 1802, "pitch": 58, "duration": 1, "velocity": 74}, {"time": 1802, "pitch": 65, "duration": 1, "velocity": 64}, {"time": 1802, "pitch": 62, "duration": 1, "velocity": 55}, {"time": 1805, "pitch": 46, "duration": 1, "velocity": 80}, {"time": 1805, "pitch": 53, "duration": 1, "velocity": 81}, {"time": 1805, "pitch": 62, "duration": 1, "velocity": 47}, {"time": 1805, "pitch": 58, "duration": 1, "velocity": 80}, {"time": 1805, "pitch": 65, "duration": 1, "velocity": 60}, {"time": 1808, "pitch": 46, "duration": 1, "velocity": 84}, {"time": 1808, "pitch": 53, "duration": 1, "velocity": 92}, {"time": 1808, "pitch": 65, "duration": 1, "velocity": 79}, {"time": 1808, "pitch": 58, "duration": 1, "velocity": 76}, {"time": 1808, "pitch": 62, "duration": 1, "velocity": 77}, {"time": 1817, "pitch": 58, "duration": 3, "velocity": 81}, {"time": 1817, "pitch": 46, "duration": 3, "velocity": 67}, {"time": 1817, "pitch": 53, "duration": 2, "velocity": 68}, {"time": 1817, "pitch": 62, "duration": 4, "velocity": 74}, {"time": 1817, "pitch": 65, "duration": 4, "velocity": 80}, {"time": 1826, "pitch": 36, "duration": 1, "velocity": 57}, {"time": 1826, "pitch": 55, "duration": 1, "velocity": 61}, {"time": 1826, "pitch": 60, "duration": 1, "velocity": 50}, {"time": 1826, "pitch": 64, "duration": 1, "velocity": 53}, {"time": 1826, "pitch": 48, "duration": 1, "velocity": 44}, {"time": 1829, "pitch": 36, "duration": 1, "velocity": 63}, {"time": 1829, "pitch": 48, "duration": 1, "velocity": 63}, {"time": 1829, "pitch": 55, "duration": 1, "velocity": 63}, {"time": 1829, "pitch": 60, "duration": 1, "velocity": 56}, {"time": 1829, "pitch": 64, "duration": 1, "velocity": 52}, {"time": 1832, "pitch": 48, "duration": 1, "velocity": 95}, {"time": 1832, "pitch": 55, "duration": 1, "velocity": 92}, {"time": 1832, "pitch": 64, "duration": 2, "velocity": 84}, {"time": 1832, "pitch": 36, "duration": 1, "velocity": 98}, {"time": 1832, "pitch": 60, "duration": 2, "velocity": 77}, {"time": 1841, "pitch": 48, "duration": 6, "velocity": 61}, {"time": 1841, "pitch": 36, "duration": 5, "velocity": 69}, {"time": 1841, "pitch": 55, "duration": 5, "velocity": 83}, {"time": 1841, "pitch": 60, "duration": 5, "velocity": 77}, {"time": 1841, "pitch": 64, "duration": 5, "velocity": 83}, {"time": 1850, "pitch": 36, "duration": 1, "velocity": 81}, {"time": 1850, "pitch": 48, "duration": 1, "velocity": 77}, {"time": 1850, "pitch": 55, "duration": 1, "velocity": 75}, {"time": 1850, "pitch": 64, "duration": 1, "velocity": 65}, {"time": 1850, "pitch": 60, "duration": 1, "velocity": 63}, {"time": 1853, "pitch": 48, "duration": 1, "velocity": 79}, {"time": 1853, "pitch": 55, "duration": 1, "velocity": 68}, {"time": 1853, "pitch": 60, "duration": 1, "velocity": 53}, {"time": 1853, "pitch": 36, "duration": 1, "velocity": 80}, {"time": 1853, "pitch": 64, "duration": 1, "velocity": 54}, {"time": 1856, "pitch": 55, "duration": 1, "velocity": 90}, {"time": 1856, "pitch": 64, "duration": 1, "velocity": 85}, {"time": 1856, "pitch": 36, "duration": 1, "velocity": 92}, {"time": 1856, "pitch": 48, "duration": 1, "velocity": 94}, {"time": 1856, "pitch": 60, "duration": 1, "velocity": 80}, {"time": 1865, "pitch": 55, "duration": 3, "velocity": 92}, {"time": 1865, "pitch": 36, "duration": 3, "velocity": 77}, {"time": 1865, "pitch": 48, "duration": 3, "velocity": 76}, {"time": 1865, "pitch": 60, "duration": 4, "velocity": 80}, {"time": 1865, "pitch": 64, "duration": 4, "velocity": 81}, {"time": 1874, "pitch": 62, "duration": 8, "velocity": 83}, {"time": 1874, "pitch": 65, "duration": 8, "velocity": 82}, {"time": 1874, "pitch": 38, "duration": 39, "velocity": 83}, {"time": 1874, "pitch": 50, "duration": 13, "velocity": 76}, {"time": 1874, "pitch": 57, "duration": 8, "velocity": 79}, {"time": 1886, "pitch": 65, "duration": 3, "velocity": 93}, {"time": 1886, "pitch": 57, "duration": 2, "velocity": 85}, {"time": 1889, "pitch": 64, "duration": 1, "velocity": 54}, {"time": 1892, "pitch": 62, "duration": 1, "velocity": 62}, {"time": 1895, "pitch": 60, "duration": 4, "velocity": 91}, {"time": 1895, "pitch": 57, "duration": 3, "velocity": 58}, {"time": 1901, "pitch": 62, "duration": 8, "velocity": 92}, {"time": 1901, "pitch": 57, "duration": 7, "velocity": 77}, {"time": 1922, "pitch": 50, "duration": 21, "velocity": 70}, {"time": 1925, "pitch": 57, "duration": 17, "velocity": 61}, {"time": 1928, "pitch": 62, "duration": 11, "velocity": 55}, {"time": 1931, "pitch": 65, "duration": 4, "velocity": 70}, {"time": 1934, "pitch": 69, "duration": 21, "velocity": 63}, {"time": 1946, "pitch": 50, "duration": 20, "velocity": 76}, {"time": 1949, "pitch": 57, "duration": 15, "velocity": 66}, {"time": 1952, "pitch": 62, "duration": 11, "velocity": 58}, {"time": 1955, "pitch": 65, "duration": 4, "velocity": 60}, {"time": 1958, "pitch": 69, "duration": 7, "velocity": 67}, {"time": 1964, "pitch": 65, "duration": 6, "velocity": 66}, {"time": 1970, "pitch": 43, "duration": 11, "velocity": 58}, {"time": 1973, "pitch": 50, "duration": 9, "velocity": 69}, {"time": 1976, "pitch": 55, "duration": 6, "velocity": 58}, {"time": 1979, "pitch": 58, "duration": 4, "velocity": 61}, {"time": 1982, "pitch": 45, "duration": 7, "velocity": 74}, {"time": 1982, "pitch": 62, "duration": 2, "velocity": 65}, {"time": 1985, "pitch": 52, "duration": 5, "velocity": 79}, {"time": 1988, "pitch": 57, "duration": 5, "velocity": 59}, {"time": 1988, "pitch": 60, "duration": 4, "velocity": 59}, {"time": 1991, "pitch": 64, "duration": 3, "velocity": 60}, {"time": 1994, "pitch": 50, "duration": 23, "velocity": 79}, {"time": 1997, "pitch": 57, "duration": 20, "velocity": 60}, {"time": 2000, "pitch": 62, "duration": 16, "velocity": 45}, {"time": 2006, "pitch": 65, "duration": 10, "velocity": 61}, {"time": 2018, "pitch": 43, "duration": 41, "velocity": 66}, {"time": 2018, "pitch": 58, "duration": 11, "velocity": 61}, {"time": 2018, "pitch": 62, "duration": 7, "velocity": 61}, {"time": 2030, "pitch": 58, "duration": 11, "velocity": 64}, {"time": 2030, "pitch": 62, "duration": 11, "velocity": 77}, {"time": 2036, "pitch": 50, "duration": 24, "velocity": 58}, {"time": 2042, "pitch": 58, "duration": 11, "velocity": 60}, {"time": 2042, "pitch": 62, "duration": 10, "velocity": 60}, {"time": 2048, "pitch": 55, "duration": 19, "velocity": 48}, {"time": 2054, "pitch": 58, "duration": 6, "velocity": 64}, {"time": 2054, "pitch": 62, "duration": 5, "velocity": 71}, {"time": 2066, "pitch": 48, "duration": 17, "velocity": 69}, {"time": 2066, "pitch": 64, "duration": 11, "velocity": 59}, {"time": 2066, "pitch": 67, "duration": 11, "velocity": 64}, {"time": 2072, "pitch": 55, "duration": 10, "velocity": 65}, {"time": 2078, "pitch": 64, "duration": 7, "velocity": 73}, {"time": 2078, "pitch": 67, "duration": 7, "velocity": 77}, {"time": 2090, "pitch": 41, "duration": 25, "velocity": 64}, {"time": 2090, "pitch": 57, "duration": 11, "velocity": 59}, {"time": 2090, "pitch": 60, "duration": 11, "velocity": 60}, {"time": 2096, "pitch": 48, "duration": 18, "velocity": 45}, {"time": 2102, "pitch": 57, "duration": 12, "velocity": 61}, {"time": 2102, "pitch": 60, "duration": 12, "velocity": 66}, {"time": 2114, "pitch": 46, "duration": 19, "velocity": 65}, {"time": 2114, "pitch": 62, "duration": 10, "velocity": 67}, {"time": 2114, "pitch": 65, "duration": 11, "velocity": 76}, {"time": 2126, "pitch": 62, "duration": 8, "velocity": 72}, {"time": 2126, "pitch": 65, "duration": 8, "velocity": 81}, {"time": 2138, "pitch": 48, "duration": 19, "velocity": 71}, {"time": 2138, "pitch": 64, "duration": 11, "velocity": 63}, {"time": 2138, "pitch": 67, "duration": 12, "velocity": 67}, {"time": 2144, "pitch": 55, "duration": 11, "velocity": 69}, {"time": 2150, "pitch": 64, "duration": 8, "velocity": 63}, {"time": 2150, "pitch": 67, "duration": 8, "velocity": 63}, {"time": 2162, "pitch": 46, "duration": 19, "velocity": 67}, {"time": 2162, "pitch": 62, "duration": 12, "velocity": 67}, {"time": 2162, "pitch": 65, "duration": 12, "velocity": 75}, {"time": 2174, "pitch": 62, "duration": 7, "velocity": 62}, {"time": 2174, "pitch": 65, "duration": 7, "velocity": 68}, {"time": 2186, "pitch": 50, "duration": 23, "velocity": 61}, {"time": 2186, "pitch": 65, "duration": 11, "velocity": 61}, {"time": 2186, "pitch": 69, "duration": 11, "velocity": 65}, {"time": 2192, "pitch": 57, "duration": 17, "velocity": 44}, {"time": 2198, "pitch": 65, "duration": 11, "velocity": 59}, {"time": 2198, "pitch": 69, "duration": 12, "velocity": 60}, {"time": 2210, "pitch": 65, "duration": 6, "velocity": 66}, {"time": 2210, "pitch": 62, "duration": 6, "velocity": 58}, {"time": 2210, "pitch": 57, "duration": 6, "velocity": 54}, {"time": 2211, "pitch": 38, "duration": 13, "velocity": 65}, {"time": 2219, "pitch": 50, "duration": 3, "velocity": 52}, {"time": 2222, "pitch": 65, "duration": 7, "velocity": 79}, {"time": 2222, "pitch": 62, "duration": 6, "velocity": 71}, {"time": 2222, "pitch": 57, "duration": 6, "velocity": 76}, {"time": 2225, "pitch": 50, "duration": 3, "velocity": 57}, {"time": 2228, "pitch": 38, "duration": 6, "velocity": 56}, {"time": 2234, "pitch": 60, "duration": 7, "velocity": 57}, {"time": 2234, "pitch": 45, "duration": 5, "velocity": 54}, {"time": 2234, "pitch": 64, "duration": 7, "velocity": 56}, {"time": 2234, "pitch": 57, "duration": 7, "velocity": 56}, {"time": 2243, "pitch": 45, "duration": 4, "velocity": 62}, {"time": 2247, "pitch": 65, "duration": 4, "velocity": 68}, {"time": 2247, "pitch": 38, "duration": 12, "velocity": 55}, {"time": 2247, "pitch": 57, "duration": 4, "velocity": 63}, {"time": 2247, "pitch": 62, "duration": 4, "velocity": 61}, {"time": 2250, "pitch": 50, "duration": 9, "velocity": 64}, {"time": 2252, "pitch": 65, "duration": 3, "velocity": 51}, {"time": 2252, "pitch": 62, "duration": 2, "velocity": 47}, {"time": 2252, "pitch": 57, "duration": 2, "velocity": 51}, {"time": 2259, "pitch": 65, "duration": 6, "velocity": 68}, {"time": 2259, "pitch": 58, "duration": 6, "velocity": 67}, {"time": 2259, "pitch": 46, "duration": 5, "velocity": 56}, {"time": 2259, "pitch": 62, "duration": 6, "velocity": 56}, {"time": 2267, "pitch": 46, "duration": 5, "velocity": 72}, {"time": 2270, "pitch": 65, "duration": 6, "velocity": 79}, {"time": 2270, "pitch": 58, "duration": 3, "velocity": 81}, {"time": 2271, "pitch": 62, "duration": 5, "velocity": 72}, {"time": 2273, "pitch": 46, "duration": 3, "velocity": 40}, {"time": 2282, "pitch": 60, "duration": 5, "velocity": 64}, {"time": 2282, "pitch": 64, "duration": 5, "velocity": 67}, {"time": 2282, "pitch": 55, "duration": 4, "velocity": 68}, {"time": 2282, "pitch": 36, "duration": 7, "velocity": 51}, {"time": 2285, "pitch": 48, "duration": 5, "velocity": 68}, {"time": 2288, "pitch": 55, "duration": 2, "velocity": 80}, {"time": 2291, "pitch": 64, "duration": 2, "velocity": 72}, {"time": 2291, "pitch": 60, "duration": 1, "velocity": 48}, {"time": 2294, "pitch": 65, "duration": 6, "velocity": 73}, {"time": 2294, "pitch": 41, "duration": 9, "velocity": 63}, {"time": 2294, "pitch": 57, "duration": 6, "velocity": 71}, {"time": 2295, "pitch": 60, "duration": 5, "velocity": 56}, {"time": 2297, "pitch": 53, "duration": 7, "velocity": 51}, {"time": 2307, "pitch": 67, "duration": 6, "velocity": 74}, {"time": 2307, "pitch": 58, "duration": 6, "velocity": 63}, {"time": 2307, "pitch": 62, "duration": 6, "velocity": 59}, {"time": 2307, "pitch": 43, "duration": 14, "velocity": 52}, {"time": 2316, "pitch": 55, "duration": 3, "velocity": 77}, {"time": 2319, "pitch": 67, "duration": 5, "velocity": 79}, {"time": 2319, "pitch": 58, "duration": 2, "velocity": 83}, {"time": 2319, "pitch": 62, "duration": 5, "velocity": 74}, {"time": 2322, "pitch": 55, "duration": 2, "velocity": 69}, {"time": 2325, "pitch": 43, "duration": 5, "velocity": 61}, {"time": 2331, "pitch": 64, "duration": 4, "velocity": 59}, {"time": 2331, "pitch": 69, "duration": 4, "velocity": 68}, {"time": 2331, "pitch": 60, "duration": 3, "velocity": 63}, {"time": 2331, "pitch": 45, "duration": 9, "velocity": 44}, {"time": 2334, "pitch": 52, "duration": 3, "velocity": 52}, {"time": 2337, "pitch": 69, "duration": 5, "velocity": 80}, {"time": 2337, "pitch": 60, "duration": 3, "velocity": 74}, {"time": 2337, "pitch": 64, "duration": 4, "velocity": 81}, {"time": 2339, "pitch": 52, "duration": 1, "velocity": 80}, {"time": 2343, "pitch": 65, "duration": 7, "velocity": 70}, {"time": 2343, "pitch": 38, "duration": 15, "velocity": 68}, {"time": 2343, "pitch": 57, "duration": 6, "velocity": 74}, {"time": 2343, "pitch": 62, "duration": 8, "velocity": 62}, {"time": 2351, "pitch": 50, "duration": 4, "velocity": 55}, {"time": 2355, "pitch": 65, "duration": 8, "velocity": 62}, {"time": 2355, "pitch": 43, "duration": 1, "velocity": 50}, {"time": 2355, "pitch": 58, "duration": 8, "velocity": 65}, {"time": 2355, "pitch": 62, "duration": 8, "velocity": 54}, {"time": 2357, "pitch": 46, "duration": 3, "velocity": 63}, {"time": 2364, "pitch": 46, "duration": 4, "velocity": 79}, {"time": 2367, "pitch": 58, "duration": 3, "velocity": 83}, {"time": 2367, "pitch": 65, "duration": 6, "velocity": 76}, {"time": 2367, "pitch": 62, "duration": 7, "velocity": 72}, {"time": 2370, "pitch": 46, "duration": 3, "velocity": 47}, {"time": 2373, "pitch": 46, "duration": 1, "velocity": 67}, {"time": 2378, "pitch": 64, "duration": 6, "velocity": 74}, {"time": 2378, "pitch": 67, "duration": 6, "velocity": 76}, {"time": 2378, "pitch": 60, "duration": 6, "velocity": 76}, {"time": 2378, "pitch": 48, "duration": 11, "velocity": 67}, {"time": 2387, "pitch": 67, "duration": 3, "velocity": 67}, {"time": 2387, "pitch": 60, "duration": 1, "velocity": 62}, {"time": 2390, "pitch": 64, "duration": 5, "velocity": 67}, {"time": 2391, "pitch": 60, "duration": 4, "velocity": 64}, {"time": 2391, "pitch": 55, "duration": 3, "velocity": 72}, {"time": 2392, "pitch": 48, "duration": 4, "velocity": 67}, {"time": 2394, "pitch": 55, "duration": 1, "velocity": 44}, {"time": 2397, "pitch": 64, "duration": 2, "velocity": 61}, {"time": 2397, "pitch": 55, "duration": 1, "velocity": 72}, {"time": 2397, "pitch": 60, "duration": 3, "velocity": 47}, {"time": 2397, "pitch": 48, "duration": 1, "velocity": 27}, {"time": 2403, "pitch": 62, "duration": 6, "velocity": 80}, {"time": 2403, "pitch": 65, "duration": 6, "velocity": 76}, {"time": 2403, "pitch": 50, "duration": 11, "velocity": 72}, {"time": 2404, "pitch": 38, "duration": 6, "velocity": 68}, {"time": 2411, "pitch": 38, "duration": 30, "velocity": 68}, {"time": 2414, "pitch": 65, "duration": 5, "velocity": 84}, {"time": 2415, "pitch": 57, "duration": 3, "velocity": 90}, {"time": 2415, "pitch": 62, "duration": 4, "velocity": 79}, {"time": 2417, "pitch": 50, "duration": 8, "velocity": 67}, {"time": 2420, "pitch": 64, "duration": 1, "velocity": 63}, {"time": 2424, "pitch": 65, "duration": 5, "velocity": 110}, {"time": 2429, "pitch": 64, "duration": 2, "velocity": 59}, {"time": 2436, "pitch": 65, "duration": 4, "velocity": 100}, {"time": 2439, "pitch": 50, "duration": 7, "velocity": 64}, {"time": 2441, "pitch": 62, "duration": 4, "velocity": 79}, {"time": 2444, "pitch": 38, "duration": 2, "velocity": 67}, {"time": 2444, "pitch": 65, "duration": 2, "velocity": 56}, {"time": 2450, "pitch": 65, "duration": 7, "velocity": 66}, {"time": 2450, "pitch": 62, "duration": 7, "velocity": 64}, {"time": 2450, "pitch": 57, "duration": 7, "velocity": 65}, {"time": 2450, "pitch": 38, "duration": 16, "velocity": 62}, {"time": 2460, "pitch": 50, "duration": 3, "velocity": 55}, {"time": 2463, "pitch": 57, "duration": 4, "velocity": 87}, {"time": 2463, "pitch": 62, "duration": 5, "velocity": 77}, {"time": 2463, "pitch": 65, "duration": 5, "velocity": 79}, {"time": 2466, "pitch": 50, "duration": 4, "velocity": 53}, {"time": 2469, "pitch": 38, "duration": 6, "velocity": 65}, {"time": 2475, "pitch": 64, "duration": 4, "velocity": 62}, {"time": 2475, "pitch": 69, "duration": 3, "velocity": 70}, {"time": 2475, "pitch": 60, "duration": 3, "velocity": 65}, {"time": 2475, "pitch": 45, "duration": 6, "velocity": 49}, {"time": 2477, "pitch": 52, "duration": 7, "velocity": 59}, {"time": 2481, "pitch": 60, "duration": 2, "velocity": 76}, {"time": 2481, "pitch": 64, "duration": 6, "velocity": 68}, {"time": 2481, "pitch": 69, "duration": 2, "velocity": 79}, {"time": 2483, "pitch": 45, "duration": 4, "velocity": 74}, {"time": 2487, "pitch": 65, "duration": 8, "velocity": 70}, {"time": 2487, "pitch": 57, "duration": 5, "velocity": 67}, {"time": 2487, "pitch": 62, "duration": 8, "velocity": 65}, {"time": 2487, "pitch": 38, "duration": 9, "velocity": 67}, {"time": 2490, "pitch": 50, "duration": 9, "velocity": 47}, {"time": 2493, "pitch": 57, "duration": 2, "velocity": 83}, {"time": 2499, "pitch": 58, "duration": 6, "velocity": 72}, {"time": 2499, "pitch": 65, "duration": 6, "velocity": 57}, {"time": 2499, "pitch": 62, "duration": 6, "velocity": 48}, {"time": 2499, "pitch": 46, "duration": 6, "velocity": 53}, {"time": 2508, "pitch": 46, "duration": 4, "velocity": 72}, {"time": 2511, "pitch": 58, "duration": 4, "velocity": 76}, {"time": 2511, "pitch": 65, "duration": 7, "velocity": 73}, {"time": 2511, "pitch": 62, "duration": 5, "velocity": 72}, {"time": 2513, "pitch": 46, "duration": 3, "velocity": 32}, {"time": 2516, "pitch": 58, "duration": 2, "velocity": 41}, {"time": 2522, "pitch": 60, "duration": 4, "velocity": 68}, {"time": 2523, "pitch": 64, "duration": 4, "velocity": 65}, {"time": 2523, "pitch": 67, "duration": 4, "velocity": 71}, {"time": 2523, "pitch": 36, "duration": 6, "velocity": 56}, {"time": 2526, "pitch": 48, "duration": 3, "velocity": 53}, {"time": 2528, "pitch": 64, "duration": 2, "velocity": 54}, {"time": 2528, "pitch": 67, "duration": 2, "velocity": 62}, {"time": 2529, "pitch": 60, "duration": 1, "velocity": 62}, {"time": 2535, "pitch": 65, "duration": 4, "velocity": 61}, {"time": 2535, "pitch": 69, "duration": 4, "velocity": 68}, {"time": 2535, "pitch": 41, "duration": 6, "velocity": 51}, {"time": 2535, "pitch": 60, "duration": 4, "velocity": 64}, {"time": 2538, "pitch": 53, "duration": 4, "velocity": 49}, {"time": 2540, "pitch": 65, "duration": 2, "velocity": 61}, {"time": 2540, "pitch": 69, "duration": 2, "velocity": 58}, {"time": 2540, "pitch": 60, "duration": 2, "velocity": 47}, {"time": 2546, "pitch": 43, "duration": 15, "velocity": 54}, {"time": 2546, "pitch": 58, "duration": 5, "velocity": 65}, {"time": 2546, "pitch": 67, "duration": 6, "velocity": 67}, {"time": 2547, "pitch": 62, "duration": 5, "velocity": 55}, {"time": 2555, "pitch": 55, "duration": 4, "velocity": 45}, {"time": 2558, "pitch": 58, "duration": 2, "velocity": 75}, {"time": 2558, "pitch": 67, "duration": 4, "velocity": 74}, {"time": 2558, "pitch": 62, "duration": 6, "velocity": 64}, {"time": 2561, "pitch": 55, "duration": 4, "velocity": 53}, {"time": 2564, "pitch": 43, "duration": 1, "velocity": 56}, {"time": 2570, "pitch": 45, "duration": 9, "velocity": 51}, {"time": 2570, "pitch": 69, "duration": 7, "velocity": 60}, {"time": 2570, "pitch": 64, "duration": 8, "velocity": 59}, {"time": 2570, "pitch": 60, "duration": 7, "velocity": 54}, {"time": 2576, "pitch": 52, "duration": 2, "velocity": 63}, {"time": 2579, "pitch": 60, "duration": 1, "velocity": 75}, {"time": 2579, "pitch": 69, "duration": 1, "velocity": 71}, {"time": 2579, "pitch": 64, "duration": 1, "velocity": 56}, {"time": 2583, "pitch": 38, "duration": 6, "velocity": 63}, {"time": 2583, "pitch": 65, "duration": 4, "velocity": 71}, {"time": 2583, "pitch": 57, "duration": 4, "velocity": 64}, {"time": 2583, "pitch": 62, "duration": 4, "velocity": 64}, {"time": 2586, "pitch": 50, "duration": 4, "velocity": 59}, {"time": 2588, "pitch": 65, "duration": 3, "velocity": 63}, {"time": 2589, "pitch": 62, "duration": 2, "velocity": 68}, {"time": 2589, "pitch": 57, "duration": 1, "velocity": 57}, {"time": 2595, "pitch": 46, "duration": 13, "velocity": 72}, {"time": 2595, "pitch": 65, "duration": 6, "velocity": 74}, {"time": 2595, "pitch": 58, "duration": 5, "velocity": 65}, {"time": 2595, "pitch": 62, "duration": 6, "velocity": 59}, {"time": 2603, "pitch": 53, "duration": 4, "velocity": 53}, {"time": 2607, "pitch": 58, "duration": 2, "velocity": 75}, {"time": 2607, "pitch": 62, "duration": 6, "velocity": 75}, {"time": 2607, "pitch": 65, "duration": 5, "velocity": 75}, {"time": 2609, "pitch": 53, "duration": 4, "velocity": 50}, {"time": 2612, "pitch": 46, "duration": 1, "velocity": 62}, {"time": 2619, "pitch": 64, "duration": 7, "velocity": 62}, {"time": 2619, "pitch": 67, "duration": 7, "velocity": 66}, {"time": 2619, "pitch": 36, "duration": 18, "velocity": 56}, {"time": 2619, "pitch": 60, "duration": 7, "velocity": 59}, {"time": 2619, "pitch": 48, "duration": 1, "velocity": 24}, {"time": 2628, "pitch": 48, "duration": 6, "velocity": 59}, {"time": 2633, "pitch": 64, "duration": 6, "velocity": 87}, {"time": 2634, "pitch": 60, "duration": 3, "velocity": 90}, {"time": 2634, "pitch": 67, "duration": 6, "velocity": 89}, {"time": 2636, "pitch": 48, "duration": 3, "velocity": 67}, {"time": 2639, "pitch": 36, "duration": 1, "velocity": 52}, {"time": 2642, "pitch": 57, "duration": 7, "velocity": 71}, {"time": 2643, "pitch": 65, "duration": 7, "velocity": 70}, {"time": 2643, "pitch": 62, "duration": 7, "velocity": 69}, {"time": 2643, "pitch": 38, "duration": 37, "velocity": 71}, {"time": 2651, "pitch": 50, "duration": 10, "velocity": 41}, {"time": 2684, "pitch": 38, "duration": 1, "velocity": 72}, {"time": 2690, "pitch": 65, "duration": 6, "velocity": 66}, {"time": 2690, "pitch": 62, "duration": 6, "velocity": 58}, {"time": 2690, "pitch": 57, "duration": 6, "velocity": 54}, {"time": 2690, "pitch": 38, "duration": 14, "velocity": 65}, {"time": 2699, "pitch": 50, "duration": 3, "velocity": 52}, {"time": 2702, "pitch": 65, "duration": 6, "velocity": 79}, {"time": 2702, "pitch": 62, "duration": 6, "velocity": 71}, {"time": 2702, "pitch": 57, "duration": 6, "velocity": 76}, {"time": 2704, "pitch": 50, "duration": 4, "velocity": 57}, {"time": 2707, "pitch": 38, "duration": 6, "velocity": 56}, {"time": 2714, "pitch": 60, "duration": 7, "velocity": 57}, {"time": 2714, "pitch": 45, "duration": 5, "velocity": 54}, {"time": 2714, "pitch": 64, "duration": 7, "velocity": 56}, {"time": 2714, "pitch": 57, "duration": 7, "velocity": 56}, {"time": 2723, "pitch": 45, "duration": 3, "velocity": 62}, {"time": 2726, "pitch": 65, "duration": 4, "velocity": 68}, {"time": 2726, "pitch": 38, "duration": 12, "velocity": 55}, {"time": 2726, "pitch": 57, "duration": 4, "velocity": 63}, {"time": 2726, "pitch": 62, "duration": 4, "velocity": 61}, {"time": 2729, "pitch": 50, "duration": 9, "velocity": 64}, {"time": 2732, "pitch": 65, "duration": 2, "velocity": 51}, {"time": 2732, "pitch": 62, "duration": 2, "velocity": 47}, {"time": 2732, "pitch": 57, "duration": 2, "velocity": 51}, {"time": 2738, "pitch": 65, "duration": 7, "velocity": 68}, {"time": 2738, "pitch": 58, "duration": 7, "velocity": 67}, {"time": 2738, "pitch": 46, "duration": 6, "velocity": 56}, {"time": 2738, "pitch": 62, "duration": 7, "velocity": 56}, {"time": 2747, "pitch": 46, "duration": 4, "velocity": 72}, {"time": 2750, "pitch": 65, "duration": 6, "velocity": 79}, {"time": 2750, "pitch": 58, "duration": 2, "velocity": 81}, {"time": 2750, "pitch": 62, "duration": 6, "velocity": 72}, {"time": 2753, "pitch": 46, "duration": 2, "velocity": 40}, {"time": 2762, "pitch": 60, "duration": 4, "velocity": 64}, {"time": 2762, "pitch": 64, "duration": 4, "velocity": 67}, {"time": 2762, "pitch": 55, "duration": 3, "velocity": 68}, {"time": 2762, "pitch": 36, "duration": 6, "velocity": 51}, {"time": 2765, "pitch": 48, "duration": 4, "velocity": 68}, {"time": 2768, "pitch": 55, "duration": 1, "velocity": 80}, {"time": 2771, "pitch": 64, "duration": 2, "velocity": 72}, {"time": 2771, "pitch": 60, "duration": 1, "velocity": 48}, {"time": 2774, "pitch": 65, "duration": 5, "velocity": 73}, {"time": 2774, "pitch": 41, "duration": 9, "velocity": 63}, {"time": 2774, "pitch": 57, "duration": 5, "velocity": 71}, {"time": 2774, "pitch": 60, "duration": 6, "velocity": 56}, {"time": 2777, "pitch": 53, "duration": 7, "velocity": 51}, {"time": 2786, "pitch": 67, "duration": 7, "velocity": 74}, {"time": 2786, "pitch": 58, "duration": 7, "velocity": 63}, {"time": 2786, "pitch": 62, "duration": 7, "velocity": 59}, {"time": 2786, "pitch": 43, "duration": 15, "velocity": 52}, {"time": 2795, "pitch": 55, "duration": 4, "velocity": 77}, {"time": 2798, "pitch": 67, "duration": 6, "velocity": 79}, {"time": 2798, "pitch": 58, "duration": 3, "velocity": 83}, {"time": 2798, "pitch": 62, "duration": 6, "velocity": 74}, {"time": 2801, "pitch": 55, "duration": 3, "velocity": 69}, {"time": 2804, "pitch": 43, "duration": 5, "velocity": 61}, {"time": 2810, "pitch": 64, "duration": 4, "velocity": 59}, {"time": 2810, "pitch": 69, "duration": 4, "velocity": 68}, {"time": 2810, "pitch": 60, "duration": 4, "velocity": 63}, {"time": 2810, "pitch": 45, "duration": 10, "velocity": 44}, {"time": 2813, "pitch": 52, "duration": 4, "velocity": 52}, {"time": 2816, "pitch": 69, "duration": 5, "velocity": 80}, {"time": 2816, "pitch": 60, "duration": 3, "velocity": 74}, {"time": 2816, "pitch": 64, "duration": 4, "velocity": 81}, {"time": 2819, "pitch": 52, "duration": 1, "velocity": 80}, {"time": 2822, "pitch": 65, "duration": 7, "velocity": 70}, {"time": 2822, "pitch": 38, "duration": 16, "velocity": 68}, {"time": 2822, "pitch": 57, "duration": 6, "velocity": 74}, {"time": 2822, "pitch": 62, "duration": 8, "velocity": 62}, {"time": 2831, "pitch": 50, "duration": 3, "velocity": 55}, {"time": 2834, "pitch": 65, "duration": 9, "velocity": 62}, {"time": 2835, "pitch": 43, "duration": 1, "velocity": 50}, {"time": 2835, "pitch": 58, "duration": 7, "velocity": 65}, {"time": 2835, "pitch": 62, "duration": 7, "velocity": 54}, {"time": 2837, "pitch": 46, "duration": 3, "velocity": 63}, {"time": 2843, "pitch": 46, "duration": 4, "velocity": 79}, {"time": 2846, "pitch": 58, "duration": 3, "velocity": 83}, {"time": 2846, "pitch": 65, "duration": 6, "velocity": 76}, {"time": 2846, "pitch": 62, "duration": 7, "velocity": 72}, {"time": 2849, "pitch": 46, "duration": 4, "velocity": 47}, {"time": 2852, "pitch": 46, "duration": 1, "velocity": 67}, {"time": 2858, "pitch": 64, "duration": 6, "velocity": 74}, {"time": 2858, "pitch": 67, "duration": 5, "velocity": 76}, {"time": 2858, "pitch": 60, "duration": 5, "velocity": 76}, {"time": 2858, "pitch": 48, "duration": 11, "velocity": 67}, {"time": 2867, "pitch": 67, "duration": 3, "velocity": 67}, {"time": 2867, "pitch": 60, "duration": 1, "velocity": 62}, {"time": 2870, "pitch": 64, "duration": 4, "velocity": 67}, {"time": 2870, "pitch": 60, "duration": 5, "velocity": 64}, {"time": 2870, "pitch": 55, "duration": 4, "velocity": 72}, {"time": 2871, "pitch": 48, "duration": 5, "velocity": 67}, {"time": 2873, "pitch": 55, "duration": 1, "velocity": 44}, {"time": 2876, "pitch": 64, "duration": 3, "velocity": 61}, {"time": 2876, "pitch": 55, "duration": 1, "velocity": 72}, {"time": 2876, "pitch": 60, "duration": 3, "velocity": 47}, {"time": 2877, "pitch": 48, "duration": 1, "velocity": 27}, {"time": 2882, "pitch": 62, "duration": 7, "velocity": 80}, {"time": 2882, "pitch": 65, "duration": 6, "velocity": 76}, {"time": 2882, "pitch": 50, "duration": 12, "velocity": 72}, {"time": 2883, "pitch": 38, "duration": 7, "velocity": 68}, {"time": 2891, "pitch": 38, "duration": 30, "velocity": 68}, {"time": 2894, "pitch": 65, "duration": 4, "velocity": 84}, {"time": 2894, "pitch": 57, "duration": 3, "velocity": 90}, {"time": 2894, "pitch": 62, "duration": 5, "velocity": 79}, {"time": 2897, "pitch": 50, "duration": 7, "velocity": 67}, {"time": 2900, "pitch": 64, "duration": 1, "velocity": 63}, {"time": 2903, "pitch": 65, "duration": 6, "velocity": 110}, {"time": 2909, "pitch": 64, "duration": 1, "velocity": 59}, {"time": 2915, "pitch": 65, "duration": 5, "velocity": 100}, {"time": 2918, "pitch": 50, "duration": 8, "velocity": 64}, {"time": 2921, "pitch": 62, "duration": 3, "velocity": 79}, {"time": 2924, "pitch": 38, "duration": 2, "velocity": 67}, {"time": 2924, "pitch": 65, "duration": 1, "velocity": 56}, {"time": 2930, "pitch": 65, "duration": 6, "velocity": 66}, {"time": 2930, "pitch": 62, "duration": 6, "velocity": 64}, {"time": 2930, "pitch": 57, "duration": 6, "velocity": 65}, {"time": 2930, "pitch": 38, "duration": 15, "velocity": 62}, {"time": 2939, "pitch": 50, "duration": 4, "velocity": 55}, {"time": 2942, "pitch": 57, "duration": 4, "velocity": 87}, {"time": 2942, "pitch": 62, "duration": 6, "velocity": 77}, {"time": 2942, "pitch": 65, "duration": 5, "velocity": 79}, {"time": 2945, "pitch": 50, "duration": 4, "velocity": 53}, {"time": 2948, "pitch": 38, "duration": 7, "velocity": 65}, {"time": 2954, "pitch": 64, "duration": 4, "velocity": 62}, {"time": 2954, "pitch": 69, "duration": 4, "velocity": 70}, {"time": 2954, "pitch": 60, "duration": 4, "velocity": 65}, {"time": 2954, "pitch": 45, "duration": 7, "velocity": 49}, {"time": 2957, "pitch": 52, "duration": 6, "velocity": 59}, {"time": 2960, "pitch": 60, "duration": 2, "velocity": 76}, {"time": 2960, "pitch": 64, "duration": 7, "velocity": 68}, {"time": 2960, "pitch": 69, "duration": 3, "velocity": 79}, {"time": 2963, "pitch": 45, "duration": 3, "velocity": 74}, {"time": 2966, "pitch": 65, "duration": 9, "velocity": 70}, {"time": 2966, "pitch": 57, "duration": 6, "velocity": 67}, {"time": 2966, "pitch": 62, "duration": 9, "velocity": 65}, {"time": 2966, "pitch": 38, "duration": 10, "velocity": 67}, {"time": 2969, "pitch": 50, "duration": 9, "velocity": 47}, {"time": 2973, "pitch": 57, "duration": 1, "velocity": 83}, {"time": 2978, "pitch": 58, "duration": 7, "velocity": 72}, {"time": 2978, "pitch": 65, "duration": 6, "velocity": 57}, {"time": 2979, "pitch": 62, "duration": 6, "velocity": 48}, {"time": 2979, "pitch": 46, "duration": 5, "velocity": 53}, {"time": 2987, "pitch": 46, "duration": 4, "velocity": 72}, {"time": 2990, "pitch": 58, "duration": 4, "velocity": 76}, {"time": 2990, "pitch": 65, "duration": 7, "velocity": 73}, {"time": 2990, "pitch": 62, "duration": 5, "velocity": 72}, {"time": 2993, "pitch": 46, "duration": 2, "velocity": 32}, {"time": 2996, "pitch": 58, "duration": 1, "velocity": 41}, {"time": 3002, "pitch": 60, "duration": 4, "velocity": 68}, {"time": 3002, "pitch": 64, "duration": 5, "velocity": 65}, {"time": 3002, "pitch": 67, "duration": 4, "velocity": 71}, {"time": 3002, "pitch": 36, "duration": 6, "velocity": 56}, {"time": 3005, "pitch": 48, "duration": 4, "velocity": 53}, {"time": 3008, "pitch": 64, "duration": 1, "velocity": 54}, {"time": 3008, "pitch": 67, "duration": 2, "velocity": 62}, {"time": 3008, "pitch": 60, "duration": 1, "velocity": 62}, {"time": 3014, "pitch": 65, "duration": 5, "velocity": 61}, {"time": 3014, "pitch": 69, "duration": 4, "velocity": 68}, {"time": 3014, "pitch": 41, "duration": 7, "velocity": 51}, {"time": 3014, "pitch": 60, "duration": 4, "velocity": 64}, {"time": 3017, "pitch": 53, "duration": 5, "velocity": 49}, {"time": 3020, "pitch": 65, "duration": 1, "velocity": 61}, {"time": 3020, "pitch": 69, "duration": 2, "velocity": 58}, {"time": 3020, "pitch": 60, "duration": 2, "velocity": 47}, {"time": 3026, "pitch": 43, "duration": 14, "velocity": 54}, {"time": 3026, "pitch": 58, "duration": 5, "velocity": 65}, {"time": 3026, "pitch": 67, "duration": 5, "velocity": 67}, {"time": 3026, "pitch": 62, "duration": 6, "velocity": 55}, {"time": 3035, "pitch": 55, "duration": 3, "velocity": 45}, {"time": 3038, "pitch": 58, "duration": 2, "velocity": 75}, {"time": 3038, "pitch": 67, "duration": 4, "velocity": 74}, {"time": 3038, "pitch": 62, "duration": 5, "velocity": 64}, {"time": 3041, "pitch": 55, "duration": 3, "velocity": 53}, {"time": 3044, "pitch": 43, "duration": 1, "velocity": 56}, {"time": 3050, "pitch": 45, "duration": 8, "velocity": 51}, {"time": 3050, "pitch": 69, "duration": 7, "velocity": 60}, {"time": 3050, "pitch": 64, "duration": 7, "velocity": 59}, {"time": 3050, "pitch": 60, "duration": 7, "velocity": 54}, {"time": 3056, "pitch": 52, "duration": 2, "velocity": 63}, {"time": 3059, "pitch": 60, "duration": 1, "velocity": 75}, {"time": 3059, "pitch": 69, "duration": 1, "velocity": 71}, {"time": 3059, "pitch": 64, "duration": 1, "velocity": 56}, {"time": 3062, "pitch": 38, "duration": 7, "velocity": 63}, {"time": 3062, "pitch": 65, "duration": 5, "velocity": 71}, {"time": 3062, "pitch": 57, "duration": 5, "velocity": 64}, {"time": 3062, "pitch": 62, "duration": 5, "velocity": 64}, {"time": 3065, "pitch": 50, "duration": 5, "velocity": 59}, {"time": 3068, "pitch": 65, "duration": 2, "velocity": 63}, {"time": 3068, "pitch": 62, "duration": 3, "velocity": 68}, {"time": 3068, "pitch": 57, "duration": 2, "velocity": 57}, {"time": 3074, "pitch": 46, "duration": 14, "velocity": 72}, {"time": 3074, "pitch": 65, "duration": 7, "velocity": 74}, {"time": 3075, "pitch": 58, "duration": 5, "velocity": 65}, {"time": 3075, "pitch": 62, "duration": 6, "velocity": 59}, {"time": 3083, "pitch": 53, "duration": 3, "velocity": 53}, {"time": 3086, "pitch": 58, "duration": 3, "velocity": 75}, {"time": 3086, "pitch": 62, "duration": 7, "velocity": 75}, {"time": 3086, "pitch": 65, "duration": 6, "velocity": 75}, {"time": 3089, "pitch": 53, "duration": 3, "velocity": 50}, {"time": 3092, "pitch": 46, "duration": 1, "velocity": 62}, {"time": 3098, "pitch": 64, "duration": 8, "velocity": 62}, {"time": 3098, "pitch": 67, "duration": 8, "velocity": 66}, {"time": 3098, "pitch": 36, "duration": 18, "velocity": 56}, {"time": 3098, "pitch": 60, "duration": 7, "velocity": 59}, {"time": 3099, "pitch": 48, "duration": 1, "velocity": 24}, {"time": 3107, "pitch": 48, "duration": 6, "velocity": 59}, {"time": 3113, "pitch": 64, "duration": 6, "velocity": 87}, {"time": 3113, "pitch": 60, "duration": 4, "velocity": 90}, {"time": 3113, "pitch": 67, "duration": 6, "velocity": 89}, {"time": 3116, "pitch": 48, "duration": 3, "velocity": 67}, {"time": 3119, "pitch": 36, "duration": 1, "velocity": 52}, {"time": 3122, "pitch": 50, "duration": 42, "velocity": 71}, {"time": 3122, "pitch": 65, "duration": 11, "velocity": 73}, {"time": 3122, "pitch": 69, "duration": 12, "velocity": 73}, {"time": 3128, "pitch": 57, "duration": 36, "velocity": 60}, {"time": 3134, "pitch": 62, "duration": 30, "velocity": 54}, {"time": 3134, "pitch": 65, "duration": 11, "velocity": 69}, {"time": 3134, "pitch": 69, "duration": 11, "velocity": 60}, {"time": 3140, "pitch": 72, "duration": 4, "velocity": 74}, {"time": 3146, "pitch": 65, "duration": 21, "velocity": 64}, {"time": 3146, "pitch": 69, "duration": 22, "velocity": 67}, {"time": 3146, "pitch": 74, "duration": 17, "velocity": 68}, {"time": 3170, "pitch": 43, "duration": 25, "velocity": 69}, {"time": 3170, "pitch": 58, "duration": 12, "velocity": 65}, {"time": 3170, "pitch": 62, "duration": 11, "velocity": 74}, {"time": 3170, "pitch": 65, "duration": 11, "velocity": 77}, {"time": 3182, "pitch": 58, "duration": 7, "velocity": 61}, {"time": 3182, "pitch": 62, "duration": 8, "velocity": 74}, {"time": 3182, "pitch": 65, "duration": 7, "velocity": 74}, {"time": 3194, "pitch": 45, "duration": 12, "velocity": 59}, {"time": 3194, "pitch": 60, "duration": 10, "velocity": 67}, {"time": 3194, "pitch": 64, "duration": 10, "velocity": 72}, {"time": 3194, "pitch": 67, "duration": 11, "velocity": 74}, {"time": 3206, "pitch": 50, "duration": 11, "velocity": 65}, {"time": 3206, "pitch": 62, "duration": 11, "velocity": 62}, {"time": 3206, "pitch": 65, "duration": 11, "velocity": 69}, {"time": 3206, "pitch": 69, "duration": 11, "velocity": 68}, {"time": 3218, "pitch": 46, "duration": 21, "velocity": 59}, {"time": 3218, "pitch": 58, "duration": 22, "velocity": 64}, {"time": 3218, "pitch": 62, "duration": 21, "velocity": 73}, {"time": 3218, "pitch": 65, "duration": 19, "velocity": 74}, {"time": 3245, "pitch": 48, "duration": 32, "velocity": 59}, {"time": 3245, "pitch": 60, "duration": 30, "velocity": 43}, {"time": 3245, "pitch": 64, "duration": 31, "velocity": 32}, {"time": 3315, "pitch": 50, "duration": 51, "velocity": 63}, {"time": 3315, "pitch": 62, "duration": 12, "velocity": 61}, {"time": 3315, "pitch": 65, "duration": 16, "velocity": 69}, {"time": 3321, "pitch": 57, "duration": 4, "velocity": 41}, {"time": 3325, "pitch": 62, "duration": 2, "velocity": 41}, {"time": 3327, "pitch": 64, "duration": 3, "velocity": 49}, {"time": 3330, "pitch": 65, "duration": 1, "velocity": 47}, {"time": 3332, "pitch": 69, "duration": 2, "velocity": 41}, {"time": 3335, "pitch": 74, "duration": 3, "velocity": 56}, {"time": 3337, "pitch": 76, "duration": 3, "velocity": 57}, {"time": 3340, "pitch": 77, "duration": 1, "velocity": 43}, {"time": 3342, "pitch": 81, "duration": 2, "velocity": 51}, {"time": 3346, "pitch": 86, "duration": 6, "velocity": 41}, {"time": 3349, "pitch": 88, "duration": 4, "velocity": 47}, {"time": 3353, "pitch": 89, "duration": 9, "velocity": 35}, {"time": 3361, "pitch": 93, "duration": 2, "velocity": 41}], "annotations": [{"time": 52, "annotation": {"number": 64, "value": 80}, "group": "control_change"}, {"time": 75, "annotation": {"number": 64, "value": 0}, "group": "control_change"}, {"time": 78, "annotation": {"number": 64, "value": 80}, "group": "control_change"}, {"time": 99, "annotation": {"number": 64, "value": 0}, "group": "control_change"}, {"time": 102, "annotation": {"number": 64, "value": 79}, "group": "control_change"}, {"time": 111, "annotation": {"number": 64, "value": 0}, "group": "control_change"}, {"time": 113, "annotation": {"number": 64, "value": 78}, "group": "control_change"}, {"time": 123, "annotation": {"number": 64, "value": 0}, "group": "control_change"}, {"time": 127, "annotation": {"number": 64, "value": 77}, "group": "control_change"}, {"time": 148, "annotation": {"number": 64, "value": 0}, "group": "control_change"}, {"time": 151, "annotation": {"number": 64, "value": 76}, "group": "control_change"}, {"time": 171, "annotation": {"number": 64, "value": 0}, "group": "control_change"}, {"time": 174, "annotation": {"number": 64, "value": 76}, "group": "control_change"}, {"time": 195, "annotation": {"number": 64, "value": 0}, "group": "control_change"}, {"time": 199, "annotation": {"number": 64, "value": 75}, "group": "control_change"}, {"time": 219, "annotation": {"number": 64, "value": 0}, "group": "control_change"}, {"time": 222, "annotation": {"number": 64, "value": 74}, "group": "control_change"}, {"time": 243, "annotation": {"number": 64, "value": 0}, "group": "control_change"}, {"time": 246, "annotation": {"number": 64, "value": 74}, "group": "control_change"}, {"time": 291, "annotation": {"number": 64, "value": 0}, "group": "control_change"}, {"time": 293, "annotation": {"number": 64, "value": 73}, "group": "control_change"}, {"time": 302, "annotation": {"number": 64, "value": 0}, "group": "control_change"}, {"time": 306, "annotation": {"number": 64, "value": 70}, "group": "control_change"}, {"time": 314, "annotation": {"number": 64, "value": 0}, "group": "control_change"}, {"time": 318, "annotation": {"number": 64, "value": 68}, "group": "control_change"}, {"time": 338, "annotation": {"number": 64, "value": 0}, "group": "control_change"}, {"time": 343, "annotation": {"number": 64, "value": 67}, "group": "control_change"}, {"time": 363, "annotation": {"number": 64, "value": 0}, "group": "control_change"}, {"time": 366, "annotation": {"number": 64, "value": 65}, "group": "control_change"}, {"time": 387, "annotation": {"number": 64, "value": 0}, "group": "control_change"}, {"time": 392, "annotation": {"number": 64, "value": 64}, "group": "control_change"}, {"time": 435, "annotation": {"number": 64, "value": 0}, "group": "control_change"}, {"time": 438, "annotation": {"number": 64, "value": 64}, "group": "control_change"}, {"time": 483, "annotation": {"number": 64, "value": 0}, "group": "control_change"}, {"time": 488, "annotation": {"number": 64, "value": 64}, "group": "control_change"}, {"time": 507, "annotation": {"number": 64, "value": 0}, "group": "control_change"}, {"time": 513, "annotation": {"number": 64, "value": 61}, "group": "control_change"}, {"time": 531, "annotation": {"number": 64, "value": 0}, "group": "control_change"}, {"time": 535, "annotation": {"number": 64, "value": 61}, "group": "control_change"}, {"time": 543, "annotation": {"number": 64, "value": 0}, "group": "control_change"}, {"time": 545, "annotation": {"number": 64, "value": 60}, "group": "control_change"}, {"time": 555, "annotation": {"number": 64, "value": 0}, "group": "control_change"}, {"time": 558, "annotation": {"number": 64, "value": 57}, "group": "control_change"}, {"time": 579, "annotation": {"number": 64, "value": 0}, "group": "control_change"}, {"time": 588, "annotation": {"number": 64, "value": 50}, "group": "control_change"}, {"time": 627, "annotation": {"number": 64, "value": 0}, "group": "control_change"}, {"time": 632, "annotation": {"number": 64, "value": 49}, "group": "control_change"}, {"time": 650, "annotation": {"number": 64, "value": 0}, "group": "control_change"}, {"time": 657, "annotation": {"number": 64, "value": 51}, "group": "control_change"}, {"time": 675, "annotation": {"number": 64, "value": 0}, "group": "control_change"}, {"time": 678, "annotation": {"number": 64, "value": 47}, "group": "control_change"}, {"time": 699, "annotation": {"number": 64, "value": 0}, "group": "control_change"}, {"time": 702, "annotation": {"number": 64, "value": 46}, "group": "control_change"}, {"time": 722, "annotation": {"number": 64, "value": 0}, "group": "control_change"}, {"time": 726, "annotation": {"number": 64, "value": 46}, "group": "control_change"}, {"time": 746, "annotation": {"number": 64, "value": 0}, "group": "control_change"}, {"time": 753, "annotation": {"number": 64, "value": 43}, "group": "control_change"}, {"time": 771, "annotation": {"number": 64, "value": 0}, "group": "control_change"}, {"time": 775, "annotation": {"number": 64, "value": 42}, "group": "control_change"}, {"time": 794, "annotation": {"number": 64, "value": 0}, "group": "control_change"}, {"time": 796, "annotation": {"number": 64, "value": 43}, "group": "control_change"}, {"time": 818, "annotation": {"number": 64, "value": 0}, "group": "control_change"}, {"time": 822, "annotation": {"number": 64, "value": 42}, "group": "control_change"}, {"time": 831, "annotation": {"number": 64, "value": 0}, "group": "control_change"}, {"time": 833, "annotation": {"number": 64, "value": 42}, "group": "control_change"}, {"time": 842, "annotation": {"number": 64, "value": 0}, "group": "control_change"}, {"time": 848, "annotation": {"number": 64, "value": 39}, "group": "control_change"}, {"time": 866, "annotation": {"number": 64, "value": 0}, "group": "control_change"}, {"time": 872, "annotation": {"number": 64, "value": 41}, "group": "control_change"}, {"time": 915, "annotation": {"number": 64, "value": 0}, "group": "control_change"}, {"time": 919, "annotation": {"number": 64, "value": 40}, "group": "control_change"}, {"time": 939, "annotation": {"number": 64, "value": 0}, "group": "control_change"}, {"time": 943, "annotation": {"number": 64, "value": 39}, "group": "control_change"}, {"time": 962, "annotation": {"number": 64, "value": 0}, "group": "control_change"}, {"time": 969, "annotation": {"number": 64, "value": 36}, "group": "control_change"}, {"time": 987, "annotation": {"number": 64, "value": 0}, "group": "control_change"}, {"time": 992, "annotation": {"number": 64, "value": 36}, "group": "control_change"}, {"time": 1010, "annotation": {"number": 64, "value": 0}, "group": "control_change"}, {"time": 1015, "annotation": {"number": 64, "value": 35}, "group": "control_change"}, {"time": 1035, "annotation": {"number": 64, "value": 0}, "group": "control_change"}, {"time": 1038, "annotation": {"number": 64, "value": 35}, "group": "control_change"}, {"time": 1058, "annotation": {"number": 64, "value": 0}, "group": "control_change"}, {"time": 1061, "annotation": {"number": 64, "value": 71}, "group": "control_change"}, {"time": 1062, "annotation": {"number": 64, "value": 127}, "group": "control_change"}, {"time": 1068, "annotation": {"number": 64, "value": 71}, "group": "control_change"}, {"time": 1069, "annotation": {"number": 64, "value": 127}, "group": "control_change"}, {"time": 1081, "annotation": {"number": 64, "value": 71}, "group": "control_change"}, {"time": 1082, "annotation": {"number": 64, "value": 0}, "group": "control_change"}, {"time": 1085, "annotation": {"number": 64, "value": 71}, "group": "control_change"}, {"time": 1085, "annotation": {"number": 64, "value": 127}, "group": "control_change"}, {"time": 1091, "annotation": {"number": 64, "value": 71}, "group": "control_change"}, {"time": 1094, "annotation": {"number": 64, "value": 0}, "group": "control_change"}, {"time": 1097, "annotation": {"number": 64, "value": 71}, "group": "control_change"}, {"time": 1098, "annotation": {"number": 64, "value": 127}, "group": "control_change"}, {"time": 1106, "annotation": {"number": 64, "value": 71}, "group": "control_change"}, {"time": 1107, "annotation": {"number": 64, "value": 0}, "group": "control_change"}, {"time": 1110, "annotation": {"number": 64, "value": 71}, "group": "control_change"}, {"time": 1110, "annotation": {"number": 64, "value": 127}, "group": "control_change"}, {"time": 1130, "annotation": {"number": 64, "value": 71}, "group": "control_change"}, {"time": 1130, "annotation": {"number": 64, "value": 0}, "group": "control_change"}, {"time": 1133, "annotation": {"number": 64, "value": 71}, "group": "control_change"}, {"time": 1133, "annotation": {"number": 64, "value": 127}, "group": "control_change"}, {"time": 1142, "annotation": {"number": 64, "value": 71}, "group": "control_change"}, {"time": 1143, "annotation": {"number": 64, "value": 0}, "group": "control_change"}, {"time": 1146, "annotation": {"number": 64, "value": 71}, "group": "control_change"}, {"time": 1146, "annotation": {"number": 64, "value": 127}, "group": "control_change"}, {"time": 1155, "annotation": {"number": 64, "value": 71}, "group": "control_change"}, {"time": 1155, "annotation": {"number": 64, "value": 0}, "group": "control_change"}, {"time": 1158, "annotation": {"number": 64, "value": 71}, "group": "control_change"}, {"time": 1158, "annotation": {"number": 64, "value": 127}, "group": "control_change"}, {"time": 1177, "annotation": {"number": 64, "value": 71}, "group": "control_change"}, {"time": 1179, "annotation": {"number": 64, "value": 0}, "group": "control_change"}, {"time": 1181, "annotation": {"number": 64, "value": 71}, "group": "control_change"}, {"time": 1181, "annotation": {"number": 64, "value": 127}, "group": "control_change"}, {"time": 1190, "annotation": {"number": 64, "value": 71}, "group": "control_change"}, {"time": 1191, "annotation": {"number": 64, "value": 0}, "group": "control_change"}, {"time": 1194, "annotation": {"number": 64, "value": 71}, "group": "control_change"}, {"time": 1195, "annotation": {"number": 64, "value": 127}, "group": "control_change"}, {"time": 1203, "annotation": {"number": 64, "value": 71}, "group": "control_change"}, {"time": 1203, "annotation": {"number": 64, "value": 0}, "group": "control_change"}, {"time": 1207, "annotation": {"number": 64, "value": 71}, "group": "control_change"}, {"time": 1208, "annotation": {"number": 64, "value": 127}, "group": "control_change"}, {"time": 1226, "annotation": {"number": 64, "value": 71}, "group": "control_change"}, {"time": 1226, "annotation": {"number": 64, "value": 0}, "group": "control_change"}, {"time": 1229, "annotation": {"number": 64, "value": 71}, "group": "control_change"}, {"time": 1230, "annotation": {"number": 64, "value": 127}, "group": "control_change"}, {"time": 1238, "annotation": {"number": 64, "value": 71}, "group": "control_change"}, {"time": 1239, "annotation": {"number": 64, "value": 0}, "group": "control_change"}, {"time": 1241, "annotation": {"number": 64, "value": 71}, "group": "control_change"}, {"time": 1242, "annotation": {"number": 64, "value": 127}, "group": "control_change"}, {"time": 1250, "annotation": {"number": 64, "value": 71}, "group": "control_change"}, {"time": 1251, "annotation": {"number": 64, "value": 0}, "group": "control_change"}, {"time": 1254, "annotation": {"number": 64, "value": 71}, "group": "control_change"}, {"time": 1254, "annotation": {"number": 64, "value": 127}, "group": "control_change"}, {"time": 1298, "annotation": {"number": 64, "value": 71}, "group": "control_change"}, {"time": 1299, "annotation": {"number": 64, "value": 0}, "group": "control_change"}, {"time": 1302, "annotation": {"number": 64, "value": 71}, "group": "control_change"}, {"time": 1303, "annotation": {"number": 64, "value": 127}, "group": "control_change"}, {"time": 1304, "annotation": {"number": 64, "value": 71}, "group": "control_change"}, {"time": 1306, "annotation": {"number": 64, "value": 127}, "group": "control_change"}, {"time": 1323, "annotation": {"number": 64, "value": 71}, "group": "control_change"}, {"time": 1323, "annotation": {"number": 64, "value": 0}, "group": "control_change"}, {"time": 1326, "annotation": {"number": 64, "value": 71}, "group": "control_change"}, {"time": 1326, "annotation": {"number": 64, "value": 127}, "group": "control_change"}, {"time": 1334, "annotation": {"number": 64, "value": 71}, "group": "control_change"}, {"time": 1335, "annotation": {"number": 64, "value": 0}, "group": "control_change"}, {"time": 1338, "annotation": {"number": 64, "value": 71}, "group": "control_change"}, {"time": 1338, "annotation": {"number": 64, "value": 127}, "group": "control_change"}, {"time": 1341, "annotation": {"number": 64, "value": 71}, "group": "control_change"}, {"time": 1341, "annotation": {"number": 64, "value": 127}, "group": "control_change"}, {"time": 1347, "annotation": {"number": 64, "value": 71}, "group": "control_change"}, {"time": 1348, "annotation": {"number": 64, "value": 0}, "group": "control_change"}, {"time": 1350, "annotation": {"number": 64, "value": 71}, "group": "control_change"}, {"time": 1351, "annotation": {"number": 64, "value": 127}, "group": "control_change"}, {"time": 1370, "annotation": {"number": 64, "value": 71}, "group": "control_change"}, {"time": 1371, "annotation": {"number": 64, "value": 0}, "group": "control_change"}, {"time": 1374, "annotation": {"number": 64, "value": 71}, "group": "control_change"}, {"time": 1375, "annotation": {"number": 64, "value": 127}, "group": "control_change"}, {"time": 1382, "annotation": {"number": 64, "value": 71}, "group": "control_change"}, {"time": 1383, "annotation": {"number": 64, "value": 0}, "group": "control_change"}, {"time": 1386, "annotation": {"number": 64, "value": 71}, "group": "control_change"}, {"time": 1387, "annotation": {"number": 64, "value": 127}, "group": "control_change"}, {"time": 1394, "annotation": {"number": 64, "value": 71}, "group": "control_change"}, {"time": 1395, "annotation": {"number": 64, "value": 0}, "group": "control_change"}, {"time": 1398, "annotation": {"number": 64, "value": 71}, "group": "control_change"}, {"time": 1398, "annotation": {"number": 64, "value": 127}, "group": "control_change"}, {"time": 1405, "annotation": {"number": 64, "value": 71}, "group": "control_change"}, {"time": 1408, "annotation": {"number": 64, "value": 127}, "group": "control_change"}, {"time": 1418, "annotation": {"number": 64, "value": 71}, "group": "control_change"}, {"time": 1419, "annotation": {"number": 64, "value": 0}, "group": "control_change"}, {"time": 1422, "annotation": {"number": 64, "value": 71}, "group": "control_change"}, {"time": 1422, "annotation": {"number": 64, "value": 127}, "group": "control_change"}, {"time": 1430, "annotation": {"number": 64, "value": 71}, "group": "control_change"}, {"time": 1431, "annotation": {"number": 64, "value": 0}, "group": "control_change"}, {"time": 1433, "annotation": {"number": 64, "value": 71}, "group": "control_change"}, {"time": 1434, "annotation": {"number": 64, "value": 127}, "group": "control_change"}, {"time": 1442, "annotation": {"number": 64, "value": 71}, "group": "control_change"}, {"time": 1443, "annotation": {"number": 64, "value": 0}, "group": "control_change"}, {"time": 1446, "annotation": {"number": 64, "value": 71}, "group": "control_change"}, {"time": 1447, "annotation": {"number": 64, "value": 127}, "group": "control_change"}, {"time": 1465, "annotation": {"number": 64, "value": 71}, "group": "control_change"}, {"time": 1467, "annotation": {"number": 64, "value": 0}, "group": "control_change"}, {"time": 1470, "annotation": {"number": 64, "value": 71}, "group": "control_change"}, {"time": 1470, "annotation": {"number": 64, "value": 127}, "group": "control_change"}, {"time": 1490, "annotation": {"number": 64, "value": 71}, "group": "control_change"}, {"time": 1491, "annotation": {"number": 64, "value": 0}, "group": "control_change"}, {"time": 1495, "annotation": {"number": 64, "value": 71}, "group": "control_change"}, {"time": 1495, "annotation": {"number": 64, "value": 127}, "group": "control_change"}, {"time": 1533, "annotation": {"number": 64, "value": 71}, "group": "control_change"}, {"time": 1533, "annotation": {"number": 64, "value": 127}, "group": "control_change"}, {"time": 1535, "annotation": {"number": 64, "value": 71}, "group": "control_change"}, {"time": 1538, "annotation": {"number": 64, "value": 0}, "group": "control_change"}, {"time": 1551, "annotation": {"number": 64, "value": 71}, "group": "control_change"}, {"time": 1551, "annotation": {"number": 64, "value": 127}, "group": "control_change"}, {"time": 1552, "annotation": {"number": 64, "value": 71}, "group": "control_change"}, {"time": 1554, "annotation": {"number": 64, "value": 127}, "group": "control_change"}, {"time": 1562, "annotation": {"number": 64, "value": 71}, "group": "control_change"}, {"time": 1562, "annotation": {"number": 64, "value": 0}, "group": "control_change"}, {"time": 1574, "annotation": {"number": 64, "value": 71}, "group": "control_change"}, {"time": 1574, "annotation": {"number": 64, "value": 127}, "group": "control_change"}, {"time": 1586, "annotation": {"number": 64, "value": 71}, "group": "control_change"}, {"time": 1586, "annotation": {"number": 64, "value": 0}, "group": "control_change"}, {"time": 1598, "annotation": {"number": 64, "value": 71}, "group": "control_change"}, {"time": 1598, "annotation": {"number": 64, "value": 127}, "group": "control_change"}, {"time": 1610, "annotation": {"number": 64, "value": 71}, "group": "control_change"}, {"time": 1612, "annotation": {"number": 64, "value": 127}, "group": "control_change"}, {"time": 1616, "annotation": {"number": 64, "value": 71}, "group": "control_change"}, {"time": 1617, "annotation": {"number": 64, "value": 0}, "group": "control_change"}, {"time": 1625, "annotation": {"number": 64, "value": 71}, "group": "control_change"}, {"time": 1626, "annotation": {"number": 64, "value": 127}, "group": "control_change"}, {"time": 1635, "annotation": {"number": 64, "value": 71}, "group": "control_change"}, {"time": 1635, "annotation": {"number": 64, "value": 0}, "group": "control_change"}, {"time": 1637, "annotation": {"number": 64, "value": 71}, "group": "control_change"}, {"time": 1637, "annotation": {"number": 64, "value": 127}, "group": "control_change"}, {"time": 1641, "annotation": {"number": 64, "value": 71}, "group": "control_change"}, {"time": 1641, "annotation": {"number": 64, "value": 0}, "group": "control_change"}, {"time": 1647, "annotation": {"number": 64, "value": 71}, "group": "control_change"}, {"time": 1647, "annotation": {"number": 64, "value": 127}, "group": "control_change"}, {"time": 1650, "annotation": {"number": 64, "value": 127}, "group": "control_change"}, {"time": 1653, "annotation": {"number": 64, "value": 71}, "group": "control_change"}, {"time": 1654, "annotation": {"number": 64, "value": 127}, "group": "control_change"}, {"time": 1658, "annotation": {"number": 64, "value": 71}, "group": "control_change"}, {"time": 1658, "annotation": {"number": 64, "value": 0}, "group": "control_change"}, {"time": 1675, "annotation": {"number": 64, "value": 71}, "group": "control_change"}, {"time": 1676, "annotation": {"number": 64, "value": 127}, "group": "control_change"}, {"time": 1677, "annotation": {"number": 64, "value": 71}, "group": "control_change"}, {"time": 1679, "annotation": {"number": 64, "value": 127}, "group": "control_change"}, {"time": 1682, "annotation": {"number": 64, "value": 71}, "group": "control_change"}, {"time": 1682, "annotation": {"number": 64, "value": 0}, "group": "control_change"}, {"time": 1693, "annotation": {"number": 64, "value": 71}, "group": "control_change"}, {"time": 1694, "annotation": {"number": 64, "value": 127}, "group": "control_change"}, {"time": 1706, "annotation": {"number": 64, "value": 71}, "group": "control_change"}, {"time": 1706, "annotation": {"number": 64, "value": 0}, "group": "control_change"}, {"time": 1718, "annotation": {"number": 64, "value": 71}, "group": "control_change"}, {"time": 1719, "annotation": {"number": 64, "value": 127}, "group": "control_change"}, {"time": 1730, "annotation": {"number": 64, "value": 71}, "group": "control_change"}, {"time": 1730, "annotation": {"number": 64, "value": 0}, "group": "control_change"}, {"time": 1742, "annotation": {"number": 64, "value": 71}, "group": "control_change"}, {"time": 1743, "annotation": {"number": 64, "value": 0}, "group": "control_change"}, {"time": 1748, "annotation": {"number": 64, "value": 71}, "group": "control_change"}, {"time": 1748, "annotation": {"number": 64, "value": 127}, "group": "control_change"}, {"time": 1754, "annotation": {"number": 64, "value": 71}, "group": "control_change"}, {"time": 1754, "annotation": {"number": 64, "value": 0}, "group": "control_change"}, {"time": 1767, "annotation": {"number": 64, "value": 71}, "group": "control_change"}, {"time": 1767, "annotation": {"number": 64, "value": 127}, "group": "control_change"}, {"time": 1768, "annotation": {"number": 64, "value": 127}, "group": "control_change"}, {"time": 1778, "annotation": {"number": 64, "value": 71}, "group": "control_change"}, {"time": 1779, "annotation": {"number": 64, "value": 0}, "group": "control_change"}, {"time": 1790, "annotation": {"number": 64, "value": 71}, "group": "control_change"}, {"time": 1791, "annotation": {"number": 64, "value": 0}, "group": "control_change"}, {"time": 1791, "annotation": {"number": 64, "value": 71}, "group": "control_change"}, {"time": 1792, "annotation": {"number": 64, "value": 127}, "group": "control_change"}, {"time": 1797, "annotation": {"number": 64, "value": 71}, "group": "control_change"}, {"time": 1798, "annotation": {"number": 64, "value": 127}, "group": "control_change"}, {"time": 1802, "annotation": {"number": 64, "value": 71}, "group": "control_change"}, {"time": 1802, "annotation": {"number": 64, "value": 0}, "group": "control_change"}, {"time": 1814, "annotation": {"number": 64, "value": 71}, "group": "control_change"}, {"time": 1814, "annotation": {"number": 64, "value": 127}, "group": "control_change"}, {"time": 1815, "annotation": {"number": 64, "value": 127}, "group": "control_change"}, {"time": 1826, "annotation": {"number": 64, "value": 71}, "group": "control_change"}, {"time": 1826, "annotation": {"number": 64, "value": 0}, "group": "control_change"}, {"time": 1844, "annotation": {"number": 64, "value": 71}, "group": "control_change"}, {"time": 1844, "annotation": {"number": 64, "value": 127}, "group": "control_change"}, {"time": 1846, "annotation": {"number": 64, "value": 71}, "group": "control_change"}, {"time": 1847, "annotation": {"number": 64, "value": 127}, "group": "control_change"}, {"time": 1850, "annotation": {"number": 64, "value": 71}, "group": "control_change"}, {"time": 1850, "annotation": {"number": 64, "value": 0}, "group": "control_change"}, {"time": 1863, "annotation": {"number": 64, "value": 71}, "group": "control_change"}, {"time": 1863, "annotation": {"number": 64, "value": 127}, "group": "control_change"}, {"time": 1874, "annotation": {"number": 64, "value": 71}, "group": "control_change"}, {"time": 1875, "annotation": {"number": 64, "value": 0}, "group": "control_change"}, {"time": 1879, "annotation": {"number": 64, "value": 71}, "group": "control_change"}, {"time": 1880, "annotation": {"number": 64, "value": 127}, "group": "control_change"}, {"time": 1881, "annotation": {"number": 64, "value": 71}, "group": "control_change"}, {"time": 1882, "annotation": {"number": 64, "value": 127}, "group": "control_change"}, {"time": 1920, "annotation": {"number": 64, "value": 0}, "group": "control_change"}, {"time": 1920, "annotation": {"number": 64, "value": 89}, "group": "control_change"}, {"time": 1922, "annotation": {"number": 64, "value": 89}, "group": "control_change"}, {"time": 1970, "annotation": {"number": 64, "value": 0}, "group": "control_change"}, {"time": 1972, "annotation": {"number": 64, "value": 88}, "group": "control_change"}, {"time": 1983, "annotation": {"number": 64, "value": 0}, "group": "control_change"}, {"time": 1984, "annotation": {"number": 64, "value": 87}, "group": "control_change"}, {"time": 1995, "annotation": {"number": 64, "value": 0}, "group": "control_change"}, {"time": 2000, "annotation": {"number": 64, "value": 86}, "group": "control_change"}, {"time": 2018, "annotation": {"number": 64, "value": 0}, "group": "control_change"}, {"time": 2023, "annotation": {"number": 64, "value": 86}, "group": "control_change"}, {"time": 2067, "annotation": {"number": 64, "value": 0}, "group": "control_change"}, {"time": 2072, "annotation": {"number": 64, "value": 85}, "group": "control_change"}, {"time": 2091, "annotation": {"number": 64, "value": 0}, "group": "control_change"}, {"time": 2097, "annotation": {"number": 64, "value": 83}, "group": "control_change"}, {"time": 2115, "annotation": {"number": 64, "value": 0}, "group": "control_change"}, {"time": 2122, "annotation": {"number": 64, "value": 83}, "group": "control_change"}, {"time": 2139, "annotation": {"number": 64, "value": 0}, "group": "control_change"}, {"time": 2143, "annotation": {"number": 64, "value": 83}, "group": "control_change"}, {"time": 2162, "annotation": {"number": 64, "value": 0}, "group": "control_change"}, {"time": 2166, "annotation": {"number": 64, "value": 82}, "group": "control_change"}, {"time": 2186, "annotation": {"number": 64, "value": 0}, "group": "control_change"}, {"time": 2191, "annotation": {"number": 64, "value": 81}, "group": "control_change"}, {"time": 2210, "annotation": {"number": 64, "value": 0}, "group": "control_change"}, {"time": 2213, "annotation": {"number": 64, "value": 71}, "group": "control_change"}, {"time": 2214, "annotation": {"number": 64, "value": 127}, "group": "control_change"}, {"time": 2220, "annotation": {"number": 64, "value": 71}, "group": "control_change"}, {"time": 2222, "annotation": {"number": 64, "value": 127}, "group": "control_change"}, {"time": 2233, "annotation": {"number": 64, "value": 71}, "group": "control_change"}, {"time": 2235, "annotation": {"number": 64, "value": 0}, "group": "control_change"}, {"time": 2237, "annotation": {"number": 64, "value": 71}, "group": "control_change"}, {"time": 2238, "annotation": {"number": 64, "value": 127}, "group": "control_change"}, {"time": 2243, "annotation": {"number": 64, "value": 71}, "group": "control_change"}, {"time": 2247, "annotation": {"number": 64, "value": 0}, "group": "control_change"}, {"time": 2249, "annotation": {"number": 64, "value": 71}, "group": "control_change"}, {"time": 2250, "annotation": {"number": 64, "value": 127}, "group": "control_change"}, {"time": 2258, "annotation": {"number": 64, "value": 71}, "group": "control_change"}, {"time": 2259, "annotation": {"number": 64, "value": 0}, "group": "control_change"}, {"time": 2262, "annotation": {"number": 64, "value": 71}, "group": "control_change"}, {"time": 2263, "annotation": {"number": 64, "value": 127}, "group": "control_change"}, {"time": 2282, "annotation": {"number": 64, "value": 71}, "group": "control_change"}, {"time": 2283, "annotation": {"number": 64, "value": 0}, "group": "control_change"}, {"time": 2285, "annotation": {"number": 64, "value": 71}, "group": "control_change"}, {"time": 2286, "annotation": {"number": 64, "value": 127}, "group": "control_change"}, {"time": 2295, "annotation": {"number": 64, "value": 71}, "group": "control_change"}, {"time": 2295, "annotation": {"number": 64, "value": 0}, "group": "control_change"}, {"time": 2298, "annotation": {"number": 64, "value": 71}, "group": "control_change"}, {"time": 2299, "annotation": {"number": 64, "value": 127}, "group": "control_change"}, {"time": 2307, "annotation": {"number": 64, "value": 71}, "group": "control_change"}, {"time": 2308, "annotation": {"number": 64, "value": 0}, "group": "control_change"}, {"time": 2310, "annotation": {"number": 64, "value": 71}, "group": "control_change"}, {"time": 2311, "annotation": {"number": 64, "value": 127}, "group": "control_change"}, {"time": 2329, "annotation": {"number": 64, "value": 71}, "group": "control_change"}, {"time": 2331, "annotation": {"number": 64, "value": 0}, "group": "control_change"}, {"time": 2333, "annotation": {"number": 64, "value": 71}, "group": "control_change"}, {"time": 2334, "annotation": {"number": 64, "value": 127}, "group": "control_change"}, {"time": 2343, "annotation": {"number": 64, "value": 71}, "group": "control_change"}, {"time": 2343, "annotation": {"number": 64, "value": 0}, "group": "control_change"}, {"time": 2346, "annotation": {"number": 64, "value": 71}, "group": "control_change"}, {"time": 2347, "annotation": {"number": 64, "value": 127}, "group": "control_change"}, {"time": 2355, "annotation": {"number": 64, "value": 71}, "group": "control_change"}, {"time": 2355, "annotation": {"number": 64, "value": 0}, "group": "control_change"}, {"time": 2359, "annotation": {"number": 64, "value": 71}, "group": "control_change"}, {"time": 2360, "annotation": {"number": 64, "value": 127}, "group": "control_change"}, {"time": 2378, "annotation": {"number": 64, "value": 71}, "group": "control_change"}, {"time": 2379, "annotation": {"number": 64, "value": 0}, "group": "control_change"}, {"time": 2381, "annotation": {"number": 64, "value": 71}, "group": "control_change"}, {"time": 2382, "annotation": {"number": 64, "value": 127}, "group": "control_change"}, {"time": 2390, "annotation": {"number": 64, "value": 71}, "group": "control_change"}, {"time": 2391, "annotation": {"number": 64, "value": 0}, "group": "control_change"}, {"time": 2394, "annotation": {"number": 64, "value": 71}, "group": "control_change"}, {"time": 2394, "annotation": {"number": 64, "value": 127}, "group": "control_change"}, {"time": 2403, "annotation": {"number": 64, "value": 71}, "group": "control_change"}, {"time": 2403, "annotation": {"number": 64, "value": 0}, "group": "control_change"}, {"time": 2406, "annotation": {"number": 64, "value": 71}, "group": "control_change"}, {"time": 2406, "annotation": {"number": 64, "value": 127}, "group": "control_change"}, {"time": 2451, "annotation": {"number": 64, "value": 71}, "group": "control_change"}, {"time": 2451, "annotation": {"number": 64, "value": 0}, "group": "control_change"}, {"time": 2454, "annotation": {"number": 64, "value": 71}, "group": "control_change"}, {"time": 2455, "annotation": {"number": 64, "value": 127}, "group": "control_change"}, {"time": 2456, "annotation": {"number": 64, "value": 71}, "group": "control_change"}, {"time": 2458, "annotation": {"number": 64, "value": 127}, "group": "control_change"}, {"time": 2475, "annotation": {"number": 64, "value": 71}, "group": "control_change"}, {"time": 2476, "annotation": {"number": 64, "value": 0}, "group": "control_change"}, {"time": 2478, "annotation": {"number": 64, "value": 71}, "group": "control_change"}, {"time": 2478, "annotation": {"number": 64, "value": 127}, "group": "control_change"}, {"time": 2486, "annotation": {"number": 64, "value": 71}, "group": "control_change"}, {"time": 2487, "annotation": {"number": 64, "value": 0}, "group": "control_change"}, {"time": 2490, "annotation": {"number": 64, "value": 71}, "group": "control_change"}, {"time": 2491, "annotation": {"number": 64, "value": 127}, "group": "control_change"}, {"time": 2493, "annotation": {"number": 64, "value": 71}, "group": "control_change"}, {"time": 2494, "annotation": {"number": 64, "value": 127}, "group": "control_change"}, {"time": 2499, "annotation": {"number": 64, "value": 71}, "group": "control_change"}, {"time": 2500, "annotation": {"number": 64, "value": 0}, "group": "control_change"}, {"time": 2503, "annotation": {"number": 64, "value": 71}, "group": "control_change"}, {"time": 2503, "annotation": {"number": 64, "value": 127}, "group": "control_change"}, {"time": 2522, "annotation": {"number": 64, "value": 71}, "group": "control_change"}, {"time": 2523, "annotation": {"number": 64, "value": 0}, "group": "control_change"}, {"time": 2526, "annotation": {"number": 64, "value": 71}, "group": "control_change"}, {"time": 2527, "annotation": {"number": 64, "value": 127}, "group": "control_change"}, {"time": 2534, "annotation": {"number": 64, "value": 71}, "group": "control_change"}, {"time": 2535, "annotation": {"number": 64, "value": 0}, "group": "control_change"}, {"time": 2538, "annotation": {"number": 64, "value": 71}, "group": "control_change"}, {"time": 2539, "annotation": {"number": 64, "value": 127}, "group": "control_change"}, {"time": 2546, "annotation": {"number": 64, "value": 71}, "group": "control_change"}, {"time": 2547, "annotation": {"number": 64, "value": 0}, "group": "control_change"}, {"time": 2550, "annotation": {"number": 64, "value": 71}, "group": "control_change"}, {"time": 2550, "annotation": {"number": 64, "value": 127}, "group": "control_change"}, {"time": 2557, "annotation": {"number": 64, "value": 71}, "group": "control_change"}, {"time": 2561, "annotation": {"number": 64, "value": 127}, "group": "control_change"}, {"time": 2570, "annotation": {"number": 64, "value": 71}, "group": "control_change"}, {"time": 2571, "annotation": {"number": 64, "value": 0}, "group": "control_change"}, {"time": 2574, "annotation": {"number": 64, "value": 71}, "group": "control_change"}, {"time": 2574, "annotation": {"number": 64, "value": 127}, "group": "control_change"}, {"time": 2582, "annotation": {"number": 64, "value": 71}, "group": "control_change"}, {"time": 2583, "annotation": {"number": 64, "value": 0}, "group": "control_change"}, {"time": 2586, "annotation": {"number": 64, "value": 71}, "group": "control_change"}, {"time": 2586, "annotation": {"number": 64, "value": 127}, "group": "control_change"}, {"time": 2594, "annotation": {"number": 64, "value": 71}, "group": "control_change"}, {"time": 2596, "annotation": {"number": 64, "value": 0}, "group": "control_change"}, {"time": 2598, "annotation": {"number": 64, "value": 71}, "group": "control_change"}, {"time": 2599, "annotation": {"number": 64, "value": 127}, "group": "control_change"}, {"time": 2618, "annotation": {"number": 64, "value": 71}, "group": "control_change"}, {"time": 2619, "annotation": {"number": 64, "value": 0}, "group": "control_change"}, {"time": 2622, "annotation": {"number": 64, "value": 71}, "group": "control_change"}, {"time": 2623, "annotation": {"number": 64, "value": 127}, "group": "control_change"}, {"time": 2642, "annotation": {"number": 64, "value": 71}, "group": "control_change"}, {"time": 2643, "annotation": {"number": 64, "value": 0}, "group": "control_change"}, {"time": 2647, "annotation": {"number": 64, "value": 71}, "group": "control_change"}, {"time": 2647, "annotation": {"number": 64, "value": 127}, "group": "control_change"}, {"time": 2685, "annotation": {"number": 64, "value": 71}, "group": "control_change"}, {"time": 2686, "annotation": {"number": 64, "value": 127}, "group": "control_change"}, {"time": 2687, "annotation": {"number": 64, "value": 71}, "group": "control_change"}, {"time": 2688, "annotation": {"number": 64, "value": 0}, "group": "control_change"}, {"time": 2693, "annotation": {"number": 64, "value": 71}, "group": "control_change"}, {"time": 2693, "annotation": {"number": 64, "value": 127}, "group": "control_change"}, {"time": 2700, "annotation": {"number": 64, "value": 71}, "group": "control_change"}, {"time": 2701, "annotation": {"number": 64, "value": 127}, "group": "control_change"}, {"time": 2713, "annotation": {"number": 64, "value": 71}, "group": "control_change"}, {"time": 2714, "annotation": {"number": 64, "value": 0}, "group": "control_change"}, {"time": 2717, "annotation": {"number": 64, "value": 71}, "group": "control_change"}, {"time": 2717, "annotation": {"number": 64, "value": 127}, "group": "control_change"}, {"time": 2723, "annotation": {"number": 64, "value": 71}, "group": "control_change"}, {"time": 2726, "annotation": {"number": 64, "value": 0}, "group": "control_change"}, {"time": 2729, "annotation": {"number": 64, "value": 71}, "group": "control_change"}, {"time": 2729, "annotation": {"number": 64, "value": 127}, "group": "control_change"}, {"time": 2738, "annotation": {"number": 64, "value": 71}, "group": "control_change"}, {"time": 2739, "annotation": {"number": 64, "value": 0}, "group": "control_change"}, {"time": 2742, "annotation": {"number": 64, "value": 71}, "group": "control_change"}, {"time": 2742, "annotation": {"number": 64, "value": 127}, "group": "control_change"}, {"time": 2761, "annotation": {"number": 64, "value": 71}, "group": "control_change"}, {"time": 2762, "annotation": {"number": 64, "value": 0}, "group": "control_change"}, {"time": 2765, "annotation": {"number": 64, "value": 71}, "group": "control_change"}, {"time": 2765, "annotation": {"number": 64, "value": 127}, "group": "control_change"}, {"time": 2774, "annotation": {"number": 64, "value": 71}, "group": "control_change"}, {"time": 2775, "annotation": {"number": 64, "value": 0}, "group": "control_change"}, {"time": 2778, "annotation": {"number": 64, "value": 71}, "group": "control_change"}, {"time": 2778, "annotation": {"number": 64, "value": 127}, "group": "control_change"}, {"time": 2787, "annotation": {"number": 64, "value": 71}, "group": "control_change"}, {"time": 2787, "annotation": {"number": 64, "value": 0}, "group": "control_change"}, {"time": 2790, "annotation": {"number": 64, "value": 71}, "group": "control_change"}, {"time": 2790, "annotation": {"number": 64, "value": 127}, "group": "control_change"}, {"time": 2809, "annotation": {"number": 64, "value": 71}, "group": "control_change"}, {"time": 2810, "annotation": {"number": 64, "value": 0}, "group": "control_change"}, {"time": 2813, "annotation": {"number": 64, "value": 71}, "group": "control_change"}, {"time": 2813, "annotation": {"number": 64, "value": 127}, "group": "control_change"}, {"time": 2822, "annotation": {"number": 64, "value": 71}, "group": "control_change"}, {"time": 2823, "annotation": {"number": 64, "value": 0}, "group": "control_change"}, {"time": 2826, "annotation": {"number": 64, "value": 71}, "group": "control_change"}, {"time": 2826, "annotation": {"number": 64, "value": 127}, "group": "control_change"}, {"time": 2834, "annotation": {"number": 64, "value": 71}, "group": "control_change"}, {"time": 2835, "annotation": {"number": 64, "value": 0}, "group": "control_change"}, {"time": 2839, "annotation": {"number": 64, "value": 71}, "group": "control_change"}, {"time": 2840, "annotation": {"number": 64, "value": 127}, "group": "control_change"}, {"time": 2858, "annotation": {"number": 64, "value": 71}, "group": "control_change"}, {"time": 2858, "annotation": {"number": 64, "value": 0}, "group": "control_change"}, {"time": 2861, "annotation": {"number": 64, "value": 71}, "group": "control_change"}, {"time": 2861, "annotation": {"number": 64, "value": 127}, "group": "control_change"}, {"time": 2870, "annotation": {"number": 64, "value": 71}, "group": "control_change"}, {"time": 2871, "annotation": {"number": 64, "value": 0}, "group": "control_change"}, {"time": 2873, "annotation": {"number": 64, "value": 71}, "group": "control_change"}, {"time": 2874, "annotation": {"number": 64, "value": 127}, "group": "control_change"}, {"time": 2882, "annotation": {"number": 64, "value": 71}, "group": "control_change"}, {"time": 2883, "annotation": {"number": 64, "value": 0}, "group": "control_change"}, {"time": 2886, "annotation": {"number": 64, "value": 71}, "group": "control_change"}, {"time": 2886, "annotation": {"number": 64, "value": 127}, "group": "control_change"}, {"time": 2930, "annotation": {"number": 64, "value": 71}, "group": "control_change"}, {"time": 2931, "annotation": {"number": 64, "value": 0}, "group": "control_change"}, {"time": 2934, "annotation": {"number": 64, "value": 71}, "group": "control_change"}, {"time": 2935, "annotation": {"number": 64, "value": 127}, "group": "control_change"}, {"time": 2936, "annotation": {"number": 64, "value": 71}, "group": "control_change"}, {"time": 2937, "annotation": {"number": 64, "value": 127}, "group": "control_change"}, {"time": 2954, "annotation": {"number": 64, "value": 71}, "group": "control_change"}, {"time": 2955, "annotation": {"number": 64, "value": 0}, "group": "control_change"}, {"time": 2957, "annotation": {"number": 64, "value": 71}, "group": "control_change"}, {"time": 2958, "annotation": {"number": 64, "value": 127}, "group": "control_change"}, {"time": 2966, "annotation": {"number": 64, "value": 71}, "group": "control_change"}, {"time": 2967, "annotation": {"number": 64, "value": 0}, "group": "control_change"}, {"time": 2969, "annotation": {"number": 64, "value": 71}, "group": "control_change"}, {"time": 2970, "annotation": {"number": 64, "value": 127}, "group": "control_change"}, {"time": 2973, "annotation": {"number": 64, "value": 71}, "group": "control_change"}, {"time": 2973, "annotation": {"number": 64, "value": 127}, "group": "control_change"}, {"time": 2979, "annotation": {"number": 64, "value": 71}, "group": "control_change"}, {"time": 2980, "annotation": {"number": 64, "value": 0}, "group": "control_change"}, {"time": 2982, "annotation": {"number": 64, "value": 71}, "group": "control_change"}, {"time": 2983, "annotation": {"number": 64, "value": 127}, "group": "control_change"}, {"time": 3002, "annotation": {"number": 64, "value": 71}, "group": "control_change"}, {"time": 3003, "annotation": {"number": 64, "value": 0}, "group": "control_change"}, {"time": 3006, "annotation": {"number": 64, "value": 71}, "group": "control_change"}, {"time": 3007, "annotation": {"number": 64, "value": 127}, "group": "control_change"}, {"time": 3014, "annotation": {"number": 64, "value": 71}, "group": "control_change"}, {"time": 3015, "annotation": {"number": 64, "value": 0}, "group": "control_change"}, {"time": 3018, "annotation": {"number": 64, "value": 71}, "group": "control_change"}, {"time": 3018, "annotation": {"number": 64, "value": 127}, "group": "control_change"}, {"time": 3026, "annotation": {"number": 64, "value": 71}, "group": "control_change"}, {"time": 3027, "annotation": {"number": 64, "value": 0}, "group": "control_change"}, {"time": 3029, "annotation": {"number": 64, "value": 71}, "group": "control_change"}, {"time": 3030, "annotation": {"number": 64, "value": 127}, "group": "control_change"}, {"time": 3037, "annotation": {"number": 64, "value": 71}, "group": "control_change"}, {"time": 3040, "annotation": {"number": 64, "value": 127}, "group": "control_change"}, {"time": 3050, "annotation": {"number": 64, "value": 71}, "group": "control_change"}, {"time": 3051, "annotation": {"number": 64, "value": 0}, "group": "control_change"}, {"time": 3053, "annotation": {"number": 64, "value": 71}, "group": "control_change"}, {"time": 3054, "annotation": {"number": 64, "value": 127}, "group": "control_change"}, {"time": 3062, "annotation": {"number": 64, "value": 71}, "group": "control_change"}, {"time": 3063, "annotation": {"number": 64, "value": 0}, "group": "control_change"}, {"time": 3065, "annotation": {"number": 64, "value": 71}, "group": "control_change"}, {"time": 3066, "annotation": {"number": 64, "value": 127}, "group": "control_change"}, {"time": 3074, "annotation": {"number": 64, "value": 71}, "group": "control_change"}, {"time": 3075, "annotation": {"number": 64, "value": 0}, "group": "control_change"}, {"time": 3078, "annotation": {"number": 64, "value": 71}, "group": "control_change"}, {"time": 3078, "annotation": {"number": 64, "value": 127}, "group": "control_change"}, {"time": 3097, "annotation": {"number": 64, "value": 71}, "group": "control_change"}, {"time": 3099, "annotation": {"number": 64, "value": 0}, "group": "control_change"}, {"time": 3101, "annotation": {"number": 64, "value": 71}, "group": "control_change"}, {"time": 3102, "annotation": {"number": 64, "value": 127}, "group": "control_change"}, {"time": 3120, "annotation": {"number": 64, "value": 0}, "group": "control_change"}, {"time": 3122, "annotation": {"number": 64, "value": 89}, "group": "control_change"}, {"time": 3170, "annotation": {"number": 64, "value": 0}, "group": "control_change"}, {"time": 3174, "annotation": {"number": 64, "value": 91}, "group": "control_change"}, {"time": 3195, "annotation": {"number": 64, "value": 0}, "group": "control_change"}, {"time": 3200, "annotation": {"number": 64, "value": 91}, "group": "control_change"}, {"time": 3207, "annotation": {"number": 64, "value": 0}, "group": "control_change"}, {"time": 3210, "annotation": {"number": 64, "value": 89}, "group": "control_change"}, {"time": 3219, "annotation": {"number": 64, "value": 0}, "group": "control_change"}, {"time": 3224, "annotation": {"number": 64, "value": 87}, "group": "control_change"}, {"time": 3246, "annotation": {"number": 64, "value": 0}, "group": "control_change"}, {"time": 3253, "annotation": {"number": 64, "value": 86}, "group": "control_change"}, {"time": 3311, "annotation": {"number": 64, "value": 0}, "group": "control_change"}, {"time": 3315, "annotation": {"number": 64, "value": 71}, "group": "control_change"}, {"time": 3316, "annotation": {"number": 64, "value": 127}, "group": "control_change"}, {"time": 3320, "annotation": {"number": 64, "value": 90}, "group": "control_change"}, {"time": 3372, "annotation": {"number": 64, "value": 0}, "group": "control_change"}, {"time": 3433, "annotation": {"number": 64, "value": 71}, "group": "control_change"}, {"time": 3434, "annotation": {"number": 64, "value": 0}, "group": "control_change"}]}]}