{"metadata": {"schema_version": "0.2", "title": "None", "source_filename": "028.mid", "source_format": "midi"}, "resolution": 12, "tempos": [{"time": 0, "qpm": 61.99999586666694}], "time_signatures": [{"time": 0, "numerator": 1, "denominator": 4}], "tracks": [{"program": 0, "is_drum": false, "name": "MELODY", "notes": [{"time": 230, "pitch": 63, "duration": 2, "velocity": 103}, {"time": 233, "pitch": 66, "duration": 3, "velocity": 103}, {"time": 236, "pitch": 71, "duration": 2, "velocity": 103}, {"time": 239, "pitch": 70, "duration": 2, "velocity": 103}, {"time": 242, "pitch": 68, "duration": 4, "velocity": 103}, {"time": 251, "pitch": 66, "duration": 2, "velocity": 103}, {"time": 254, "pitch": 68, "duration": 3, "velocity": 103}, {"time": 257, "pitch": 66, "duration": 3, "velocity": 103}, {"time": 260, "pitch": 63, "duration": 2, "velocity": 104}, {"time": 263, "pitch": 61, "duration": 1, "velocity": 104}, {"time": 266, "pitch": 63, "duration": 6, "velocity": 104}, {"time": 278, "pitch": 63, "duration": 3, "velocity": 104}, {"time": 281, "pitch": 66, "duration": 1, "velocity": 104}, {"time": 284, "pitch": 71, "duration": 2, "velocity": 104}, {"time": 287, "pitch": 70, "duration": 2, "velocity": 104}, {"time": 290, "pitch": 68, "duration": 6, "velocity": 104}, {"time": 299, "pitch": 66, "duration": 2, "velocity": 104}, {"time": 302, "pitch": 68, "duration": 2, "velocity": 104}, {"time": 305, "pitch": 70, "duration": 1, "velocity": 104}, {"time": 308, "pitch": 71, "duration": 1, "velocity": 104}, {"time": 311, "pitch": 73, "duration": 1, "velocity": 104}, {"time": 314, "pitch": 75, "duration": 7, "velocity": 104}, {"time": 326, "pitch": 75, "duration": 2, "velocity": 104}, {"time": 329, "pitch": 73, "duration": 1, "velocity": 104}, {"time": 332, "pitch": 73, "duration": 2, "velocity": 104}, {"time": 335, "pitch": 71, "duration": 1, "velocity": 104}, {"time": 338, "pitch": 73, "duration": 6, "velocity": 104}, {"time": 347, "pitch": 75, "duration": 3, "velocity": 104}, {"time": 350, "pitch": 73, "duration": 3, "velocity": 104}, {"time": 353, "pitch": 71, "duration": 1, "velocity": 104}, {"time": 356, "pitch": 68, "duration": 2, "velocity": 104}, {"time": 359, "pitch": 68, "duration": 1, "velocity": 104}, {"time": 362, "pitch": 66, "duration": 7, "velocity": 104}, {"time": 374, "pitch": 66, "duration": 3, "velocity": 104}, {"time": 377, "pitch": 63, "duration": 2, "velocity": 104}, {"time": 380, "pitch": 66, "duration": 1, "velocity": 104}, {"time": 383, "pitch": 68, "duration": 1, "velocity": 104}, {"time": 386, "pitch": 70, "duration": 5, "velocity": 104}, {"time": 395, "pitch": 71, "duration": 2, "velocity": 103}, {"time": 398, "pitch": 70, "duration": 2, "velocity": 103}, {"time": 401, "pitch": 66, "duration": 3, "velocity": 103}, {"time": 404, "pitch": 63, "duration": 3, "velocity": 102}, {"time": 407, "pitch": 66, "duration": 2, "velocity": 102}, {"time": 410, "pitch": 68, "duration": 6, "velocity": 102}, {"time": 422, "pitch": 63, "duration": 2, "velocity": 101}, {"time": 425, "pitch": 66, "duration": 3, "velocity": 101}, {"time": 428, "pitch": 71, "duration": 2, "velocity": 101}, {"time": 431, "pitch": 70, "duration": 2, "velocity": 101}, {"time": 434, "pitch": 68, "duration": 4, "velocity": 101}, {"time": 443, "pitch": 66, "duration": 2, "velocity": 101}, {"time": 446, "pitch": 68, "duration": 3, "velocity": 101}, {"time": 449, "pitch": 66, "duration": 3, "velocity": 101}, {"time": 452, "pitch": 63, "duration": 2, "velocity": 101}, {"time": 455, "pitch": 61, "duration": 1, "velocity": 101}, {"time": 458, "pitch": 63, "duration": 6, "velocity": 101}, {"time": 470, "pitch": 63, "duration": 3, "velocity": 100}, {"time": 473, "pitch": 66, "duration": 1, "velocity": 100}, {"time": 476, "pitch": 71, "duration": 2, "velocity": 100}, {"time": 479, "pitch": 70, "duration": 2, "velocity": 99}, {"time": 482, "pitch": 68, "duration": 6, "velocity": 99}, {"time": 491, "pitch": 66, "duration": 2, "velocity": 99}, {"time": 494, "pitch": 68, "duration": 2, "velocity": 99}, {"time": 497, "pitch": 70, "duration": 1, "velocity": 99}, {"time": 500, "pitch": 71, "duration": 1, "velocity": 99}, {"time": 503, "pitch": 73, "duration": 1, "velocity": 99}, {"time": 506, "pitch": 75, "duration": 7, "velocity": 99}, {"time": 518, "pitch": 75, "duration": 2, "velocity": 99}, {"time": 521, "pitch": 73, "duration": 1, "velocity": 99}, {"time": 524, "pitch": 73, "duration": 2, "velocity": 99}, {"time": 527, "pitch": 71, "duration": 1, "velocity": 98}, {"time": 530, "pitch": 73, "duration": 6, "velocity": 98}, {"time": 539, "pitch": 75, "duration": 3, "velocity": 97}, {"time": 542, "pitch": 73, "duration": 3, "velocity": 97}, {"time": 545, "pitch": 71, "duration": 1, "velocity": 97}, {"time": 548, "pitch": 68, "duration": 2, "velocity": 97}, {"time": 551, "pitch": 68, "duration": 1, "velocity": 96}, {"time": 554, "pitch": 66, "duration": 7, "velocity": 96}, {"time": 566, "pitch": 66, "duration": 3, "velocity": 96}, {"time": 569, "pitch": 63, "duration": 2, "velocity": 96}, {"time": 572, "pitch": 66, "duration": 1, "velocity": 96}, {"time": 575, "pitch": 68, "duration": 1, "velocity": 96}, {"time": 578, "pitch": 70, "duration": 5, "velocity": 96}, {"time": 587, "pitch": 71, "duration": 2, "velocity": 95}, {"time": 590, "pitch": 70, "duration": 2, "velocity": 95}, {"time": 593, "pitch": 66, "duration": 3, "velocity": 95}, {"time": 596, "pitch": 63, "duration": 3, "velocity": 95}, {"time": 599, "pitch": 66, "duration": 2, "velocity": 95}, {"time": 602, "pitch": 68, "duration": 24, "velocity": 95}, {"time": 650, "pitch": 73, "duration": 3, "velocity": 94}, {"time": 653, "pitch": 71, "duration": 2, "velocity": 94}, {"time": 656, "pitch": 73, "duration": 3, "velocity": 94}, {"time": 659, "pitch": 71, "duration": 2, "velocity": 94}, {"time": 662, "pitch": 73, "duration": 3, "velocity": 94}, {"time": 668, "pitch": 71, "duration": 2, "velocity": 94}, {"time": 671, "pitch": 73, "duration": 2, "velocity": 94}, {"time": 677, "pitch": 71, "duration": 2, "velocity": 94}, {"time": 680, "pitch": 73, "duration": 3, "velocity": 94}, {"time": 683, "pitch": 71, "duration": 2, "velocity": 94}, {"time": 686, "pitch": 73, "duration": 3, "velocity": 94}, {"time": 692, "pitch": 71, "duration": 2, "velocity": 94}, {"time": 695, "pitch": 73, "duration": 1, "velocity": 94}, {"time": 698, "pitch": 75, "duration": 4, "velocity": 94}, {"time": 704, "pitch": 78, "duration": 1, "velocity": 94}, {"time": 707, "pitch": 80, "duration": 6, "velocity": 94}, {"time": 716, "pitch": 78, "duration": 1, "velocity": 94}, {"time": 719, "pitch": 75, "duration": 19, "velocity": 94}, {"time": 746, "pitch": 73, "duration": 3, "velocity": 94}, {"time": 749, "pitch": 71, "duration": 2, "velocity": 94}, {"time": 752, "pitch": 73, "duration": 3, "velocity": 94}, {"time": 755, "pitch": 71, "duration": 2, "velocity": 94}, {"time": 758, "pitch": 73, "duration": 4, "velocity": 94}, {"time": 764, "pitch": 71, "duration": 1, "velocity": 94}, {"time": 767, "pitch": 73, "duration": 3, "velocity": 94}, {"time": 773, "pitch": 71, "duration": 2, "velocity": 94}, {"time": 776, "pitch": 73, "duration": 2, "velocity": 94}, {"time": 779, "pitch": 71, "duration": 2, "velocity": 94}, {"time": 782, "pitch": 73, "duration": 3, "velocity": 94}, {"time": 788, "pitch": 71, "duration": 2, "velocity": 94}, {"time": 791, "pitch": 73, "duration": 1, "velocity": 94}, {"time": 794, "pitch": 75, "duration": 3, "velocity": 94}, {"time": 800, "pitch": 78, "duration": 1, "velocity": 94}, {"time": 803, "pitch": 73, "duration": 7, "velocity": 94}, {"time": 812, "pitch": 78, "duration": 5, "velocity": 94}, {"time": 818, "pitch": 75, "duration": 12, "velocity": 94}, {"time": 842, "pitch": 76, "duration": 3, "velocity": 94}, {"time": 845, "pitch": 75, "duration": 2, "velocity": 94}, {"time": 848, "pitch": 76, "duration": 3, "velocity": 94}, {"time": 851, "pitch": 75, "duration": 1, "velocity": 94}, {"time": 854, "pitch": 76, "duration": 4, "velocity": 94}, {"time": 860, "pitch": 78, "duration": 1, "velocity": 94}, {"time": 863, "pitch": 75, "duration": 5, "velocity": 95}, {"time": 869, "pitch": 73, "duration": 6, "velocity": 96}, {"time": 881, "pitch": 71, "duration": 2, "velocity": 96}, {"time": 884, "pitch": 73, "duration": 2, "velocity": 96}, {"time": 887, "pitch": 75, "duration": 1, "velocity": 96}, {"time": 890, "pitch": 80, "duration": 4, "velocity": 101}, {"time": 896, "pitch": 78, "duration": 2, "velocity": 101}, {"time": 902, "pitch": 75, "duration": 4, "velocity": 101}, {"time": 908, "pitch": 78, "duration": 1, "velocity": 101}, {"time": 911, "pitch": 73, "duration": 4, "velocity": 101}, {"time": 917, "pitch": 71, "duration": 15, "velocity": 101}, {"time": 944, "pitch": 71, "duration": 1, "velocity": 101}, {"time": 947, "pitch": 71, "duration": 1, "velocity": 101}, {"time": 950, "pitch": 71, "duration": 4, "velocity": 101}, {"time": 959, "pitch": 71, "duration": 1, "velocity": 101}, {"time": 962, "pitch": 75, "duration": 5, "velocity": 101}, {"time": 968, "pitch": 70, "duration": 4, "velocity": 100}, {"time": 974, "pitch": 70, "duration": 4, "velocity": 100}, {"time": 980, "pitch": 73, "duration": 1, "velocity": 100}, {"time": 983, "pitch": 73, "duration": 9, "velocity": 100}, {"time": 995, "pitch": 71, "duration": 16, "velocity": 99}, {"time": 1022, "pitch": 63, "duration": 2, "velocity": 99}, {"time": 1025, "pitch": 66, "duration": 3, "velocity": 99}, {"time": 1028, "pitch": 71, "duration": 2, "velocity": 99}, {"time": 1031, "pitch": 70, "duration": 2, "velocity": 99}, {"time": 1034, "pitch": 68, "duration": 4, "velocity": 99}, {"time": 1043, "pitch": 66, "duration": 2, "velocity": 99}, {"time": 1046, "pitch": 68, "duration": 3, "velocity": 99}, {"time": 1049, "pitch": 66, "duration": 3, "velocity": 99}, {"time": 1052, "pitch": 63, "duration": 2, "velocity": 99}, {"time": 1055, "pitch": 61, "duration": 1, "velocity": 99}, {"time": 1058, "pitch": 63, "duration": 6, "velocity": 99}, {"time": 1070, "pitch": 63, "duration": 3, "velocity": 99}, {"time": 1073, "pitch": 66, "duration": 1, "velocity": 99}, {"time": 1076, "pitch": 71, "duration": 2, "velocity": 99}, {"time": 1079, "pitch": 70, "duration": 2, "velocity": 98}, {"time": 1082, "pitch": 68, "duration": 6, "velocity": 97}, {"time": 1091, "pitch": 66, "duration": 2, "velocity": 97}, {"time": 1094, "pitch": 68, "duration": 2, "velocity": 97}, {"time": 1097, "pitch": 70, "duration": 1, "velocity": 97}, {"time": 1100, "pitch": 71, "duration": 1, "velocity": 97}, {"time": 1103, "pitch": 73, "duration": 1, "velocity": 97}, {"time": 1106, "pitch": 75, "duration": 7, "velocity": 97}, {"time": 1118, "pitch": 75, "duration": 2, "velocity": 97}, {"time": 1121, "pitch": 73, "duration": 1, "velocity": 97}, {"time": 1124, "pitch": 73, "duration": 2, "velocity": 97}, {"time": 1127, "pitch": 71, "duration": 1, "velocity": 97}, {"time": 1130, "pitch": 73, "duration": 6, "velocity": 97}, {"time": 1139, "pitch": 75, "duration": 3, "velocity": 97}, {"time": 1142, "pitch": 73, "duration": 3, "velocity": 97}, {"time": 1145, "pitch": 71, "duration": 1, "velocity": 97}, {"time": 1148, "pitch": 68, "duration": 2, "velocity": 97}, {"time": 1151, "pitch": 68, "duration": 1, "velocity": 97}, {"time": 1154, "pitch": 66, "duration": 7, "velocity": 97}, {"time": 1166, "pitch": 66, "duration": 3, "velocity": 96}, {"time": 1169, "pitch": 63, "duration": 2, "velocity": 96}, {"time": 1172, "pitch": 66, "duration": 1, "velocity": 96}, {"time": 1175, "pitch": 68, "duration": 1, "velocity": 96}, {"time": 1178, "pitch": 70, "duration": 5, "velocity": 96}, {"time": 1187, "pitch": 71, "duration": 2, "velocity": 96}, {"time": 1190, "pitch": 70, "duration": 2, "velocity": 96}, {"time": 1193, "pitch": 66, "duration": 3, "velocity": 95}, {"time": 1196, "pitch": 63, "duration": 3, "velocity": 95}, {"time": 1199, "pitch": 66, "duration": 2, "velocity": 95}, {"time": 1202, "pitch": 68, "duration": 26, "velocity": 95}, {"time": 1430, "pitch": 63, "duration": 2, "velocity": 96}, {"time": 1433, "pitch": 66, "duration": 3, "velocity": 96}, {"time": 1436, "pitch": 71, "duration": 2, "velocity": 96}, {"time": 1439, "pitch": 70, "duration": 2, "velocity": 96}, {"time": 1442, "pitch": 68, "duration": 4, "velocity": 96}, {"time": 1451, "pitch": 66, "duration": 2, "velocity": 96}, {"time": 1454, "pitch": 68, "duration": 3, "velocity": 96}, {"time": 1457, "pitch": 66, "duration": 3, "velocity": 96}, {"time": 1460, "pitch": 63, "duration": 2, "velocity": 96}, {"time": 1463, "pitch": 61, "duration": 1, "velocity": 96}, {"time": 1466, "pitch": 63, "duration": 6, "velocity": 96}, {"time": 1478, "pitch": 63, "duration": 3, "velocity": 96}, {"time": 1481, "pitch": 66, "duration": 1, "velocity": 96}, {"time": 1484, "pitch": 71, "duration": 2, "velocity": 96}, {"time": 1487, "pitch": 70, "duration": 2, "velocity": 96}, {"time": 1490, "pitch": 68, "duration": 6, "velocity": 96}, {"time": 1499, "pitch": 66, "duration": 2, "velocity": 96}, {"time": 1502, "pitch": 68, "duration": 2, "velocity": 96}, {"time": 1505, "pitch": 70, "duration": 1, "velocity": 96}, {"time": 1508, "pitch": 71, "duration": 1, "velocity": 96}, {"time": 1511, "pitch": 73, "duration": 1, "velocity": 96}, {"time": 1514, "pitch": 75, "duration": 7, "velocity": 96}, {"time": 1526, "pitch": 75, "duration": 2, "velocity": 96}, {"time": 1529, "pitch": 73, "duration": 1, "velocity": 96}, {"time": 1532, "pitch": 73, "duration": 2, "velocity": 96}, {"time": 1535, "pitch": 71, "duration": 1, "velocity": 96}, {"time": 1538, "pitch": 73, "duration": 6, "velocity": 96}, {"time": 1547, "pitch": 75, "duration": 3, "velocity": 96}, {"time": 1550, "pitch": 73, "duration": 3, "velocity": 96}, {"time": 1553, "pitch": 71, "duration": 1, "velocity": 96}, {"time": 1556, "pitch": 68, "duration": 2, "velocity": 96}, {"time": 1559, "pitch": 68, "duration": 1, "velocity": 96}, {"time": 1562, "pitch": 66, "duration": 7, "velocity": 96}, {"time": 1574, "pitch": 66, "duration": 3, "velocity": 95}, {"time": 1577, "pitch": 63, "duration": 2, "velocity": 95}, {"time": 1580, "pitch": 66, "duration": 1, "velocity": 95}, {"time": 1583, "pitch": 68, "duration": 1, "velocity": 95}, {"time": 1586, "pitch": 70, "duration": 5, "velocity": 95}, {"time": 1595, "pitch": 71, "duration": 2, "velocity": 95}, {"time": 1598, "pitch": 70, "duration": 2, "velocity": 94}, {"time": 1601, "pitch": 66, "duration": 3, "velocity": 95}, {"time": 1604, "pitch": 63, "duration": 3, "velocity": 95}, {"time": 1607, "pitch": 66, "duration": 2, "velocity": 95}, {"time": 1610, "pitch": 68, "duration": 6, "velocity": 94}, {"time": 1622, "pitch": 63, "duration": 2, "velocity": 95}, {"time": 1625, "pitch": 66, "duration": 3, "velocity": 94}, {"time": 1628, "pitch": 71, "duration": 2, "velocity": 94}, {"time": 1631, "pitch": 70, "duration": 2, "velocity": 94}, {"time": 1634, "pitch": 68, "duration": 4, "velocity": 94}, {"time": 1643, "pitch": 66, "duration": 2, "velocity": 94}, {"time": 1646, "pitch": 68, "duration": 3, "velocity": 94}, {"time": 1649, "pitch": 66, "duration": 3, "velocity": 93}, {"time": 1652, "pitch": 63, "duration": 2, "velocity": 93}, {"time": 1655, "pitch": 61, "duration": 1, "velocity": 93}, {"time": 1658, "pitch": 63, "duration": 6, "velocity": 93}, {"time": 1670, "pitch": 63, "duration": 3, "velocity": 93}, {"time": 1673, "pitch": 66, "duration": 1, "velocity": 93}, {"time": 1676, "pitch": 71, "duration": 2, "velocity": 93}, {"time": 1679, "pitch": 70, "duration": 2, "velocity": 93}, {"time": 1682, "pitch": 68, "duration": 6, "velocity": 93}, {"time": 1691, "pitch": 66, "duration": 2, "velocity": 93}, {"time": 1694, "pitch": 68, "duration": 2, "velocity": 92}, {"time": 1697, "pitch": 70, "duration": 1, "velocity": 91}, {"time": 1700, "pitch": 71, "duration": 1, "velocity": 91}, {"time": 1703, "pitch": 73, "duration": 1, "velocity": 91}, {"time": 1706, "pitch": 75, "duration": 7, "velocity": 91}, {"time": 1718, "pitch": 75, "duration": 2, "velocity": 91}, {"time": 1721, "pitch": 73, "duration": 1, "velocity": 91}, {"time": 1724, "pitch": 73, "duration": 2, "velocity": 91}, {"time": 1727, "pitch": 71, "duration": 1, "velocity": 91}, {"time": 1730, "pitch": 73, "duration": 6, "velocity": 91}, {"time": 1739, "pitch": 75, "duration": 3, "velocity": 91}, {"time": 1742, "pitch": 73, "duration": 3, "velocity": 91}, {"time": 1745, "pitch": 71, "duration": 1, "velocity": 91}, {"time": 1748, "pitch": 68, "duration": 2, "velocity": 91}, {"time": 1751, "pitch": 68, "duration": 1, "velocity": 91}, {"time": 1754, "pitch": 66, "duration": 7, "velocity": 91}, {"time": 1766, "pitch": 66, "duration": 3, "velocity": 91}, {"time": 1769, "pitch": 63, "duration": 2, "velocity": 91}, {"time": 1772, "pitch": 66, "duration": 1, "velocity": 91}, {"time": 1775, "pitch": 68, "duration": 1, "velocity": 91}, {"time": 1778, "pitch": 70, "duration": 5, "velocity": 91}, {"time": 1787, "pitch": 71, "duration": 2, "velocity": 91}, {"time": 1790, "pitch": 70, "duration": 2, "velocity": 91}, {"time": 1793, "pitch": 66, "duration": 3, "velocity": 91}, {"time": 1796, "pitch": 63, "duration": 3, "velocity": 91}, {"time": 1799, "pitch": 66, "duration": 2, "velocity": 92}, {"time": 1802, "pitch": 68, "duration": 24, "velocity": 92}, {"time": 1850, "pitch": 73, "duration": 3, "velocity": 92}, {"time": 1853, "pitch": 71, "duration": 2, "velocity": 92}, {"time": 1856, "pitch": 73, "duration": 3, "velocity": 92}, {"time": 1859, "pitch": 71, "duration": 2, "velocity": 92}, {"time": 1862, "pitch": 73, "duration": 3, "velocity": 92}, {"time": 1868, "pitch": 71, "duration": 2, "velocity": 92}, {"time": 1871, "pitch": 73, "duration": 2, "velocity": 92}, {"time": 1877, "pitch": 71, "duration": 2, "velocity": 92}, {"time": 1880, "pitch": 73, "duration": 3, "velocity": 92}, {"time": 1883, "pitch": 71, "duration": 2, "velocity": 92}, {"time": 1886, "pitch": 73, "duration": 3, "velocity": 92}, {"time": 1892, "pitch": 71, "duration": 2, "velocity": 92}, {"time": 1895, "pitch": 73, "duration": 1, "velocity": 92}, {"time": 1898, "pitch": 75, "duration": 4, "velocity": 92}, {"time": 1904, "pitch": 78, "duration": 1, "velocity": 92}, {"time": 1907, "pitch": 80, "duration": 6, "velocity": 92}, {"time": 1916, "pitch": 78, "duration": 1, "velocity": 93}, {"time": 1919, "pitch": 75, "duration": 19, "velocity": 93}, {"time": 1946, "pitch": 73, "duration": 3, "velocity": 93}, {"time": 1949, "pitch": 71, "duration": 2, "velocity": 93}, {"time": 1952, "pitch": 73, "duration": 3, "velocity": 93}, {"time": 1955, "pitch": 71, "duration": 2, "velocity": 93}, {"time": 1958, "pitch": 73, "duration": 4, "velocity": 93}, {"time": 1964, "pitch": 71, "duration": 1, "velocity": 93}, {"time": 1967, "pitch": 73, "duration": 3, "velocity": 93}, {"time": 1973, "pitch": 71, "duration": 2, "velocity": 93}, {"time": 1976, "pitch": 73, "duration": 2, "velocity": 93}, {"time": 1979, "pitch": 71, "duration": 2, "velocity": 93}, {"time": 1982, "pitch": 73, "duration": 3, "velocity": 93}, {"time": 1988, "pitch": 71, "duration": 2, "velocity": 93}, {"time": 1991, "pitch": 73, "duration": 1, "velocity": 93}, {"time": 1994, "pitch": 75, "duration": 3, "velocity": 93}, {"time": 2000, "pitch": 78, "duration": 1, "velocity": 93}, {"time": 2003, "pitch": 73, "duration": 7, "velocity": 93}, {"time": 2012, "pitch": 78, "duration": 5, "velocity": 93}, {"time": 2018, "pitch": 75, "duration": 12, "velocity": 93}, {"time": 2042, "pitch": 76, "duration": 3, "velocity": 93}, {"time": 2045, "pitch": 75, "duration": 2, "velocity": 93}, {"time": 2048, "pitch": 76, "duration": 3, "velocity": 93}, {"time": 2051, "pitch": 75, "duration": 1, "velocity": 93}, {"time": 2054, "pitch": 76, "duration": 4, "velocity": 93}, {"time": 2060, "pitch": 78, "duration": 1, "velocity": 93}, {"time": 2063, "pitch": 75, "duration": 5, "velocity": 93}, {"time": 2069, "pitch": 73, "duration": 6, "velocity": 93}, {"time": 2081, "pitch": 71, "duration": 2, "velocity": 93}, {"time": 2084, "pitch": 73, "duration": 2, "velocity": 92}, {"time": 2087, "pitch": 75, "duration": 1, "velocity": 93}, {"time": 2090, "pitch": 80, "duration": 4, "velocity": 92}, {"time": 2096, "pitch": 78, "duration": 2, "velocity": 93}, {"time": 2102, "pitch": 75, "duration": 4, "velocity": 92}, {"time": 2108, "pitch": 78, "duration": 1, "velocity": 92}, {"time": 2111, "pitch": 73, "duration": 4, "velocity": 92}, {"time": 2117, "pitch": 71, "duration": 15, "velocity": 92}, {"time": 2144, "pitch": 71, "duration": 1, "velocity": 92}, {"time": 2147, "pitch": 71, "duration": 1, "velocity": 92}, {"time": 2150, "pitch": 71, "duration": 4, "velocity": 92}, {"time": 2159, "pitch": 71, "duration": 1, "velocity": 92}, {"time": 2162, "pitch": 75, "duration": 5, "velocity": 92}, {"time": 2168, "pitch": 70, "duration": 4, "velocity": 92}, {"time": 2174, "pitch": 70, "duration": 4, "velocity": 92}, {"time": 2180, "pitch": 73, "duration": 1, "velocity": 92}, {"time": 2183, "pitch": 73, "duration": 9, "velocity": 92}, {"time": 2195, "pitch": 71, "duration": 16, "velocity": 92}, {"time": 2234, "pitch": 73, "duration": 3, "velocity": 92}, {"time": 2237, "pitch": 71, "duration": 2, "velocity": 92}, {"time": 2240, "pitch": 73, "duration": 3, "velocity": 92}, {"time": 2243, "pitch": 71, "duration": 2, "velocity": 92}, {"time": 2246, "pitch": 73, "duration": 5, "velocity": 92}, {"time": 2252, "pitch": 71, "duration": 1, "velocity": 92}, {"time": 2255, "pitch": 73, "duration": 3, "velocity": 92}, {"time": 2261, "pitch": 71, "duration": 1, "velocity": 92}, {"time": 2264, "pitch": 73, "duration": 1, "velocity": 92}, {"time": 2267, "pitch": 71, "duration": 2, "velocity": 92}, {"time": 2270, "pitch": 73, "duration": 3, "velocity": 92}, {"time": 2276, "pitch": 71, "duration": 2, "velocity": 92}, {"time": 2279, "pitch": 73, "duration": 1, "velocity": 92}, {"time": 2282, "pitch": 75, "duration": 4, "velocity": 92}, {"time": 2288, "pitch": 78, "duration": 3, "velocity": 92}, {"time": 2294, "pitch": 80, "duration": 4, "velocity": 92}, {"time": 2300, "pitch": 78, "duration": 3, "velocity": 93}, {"time": 2306, "pitch": 75, "duration": 4, "velocity": 94}, {"time": 2330, "pitch": 73, "duration": 3, "velocity": 94}, {"time": 2333, "pitch": 71, "duration": 2, "velocity": 94}, {"time": 2336, "pitch": 73, "duration": 3, "velocity": 94}, {"time": 2339, "pitch": 71, "duration": 2, "velocity": 94}, {"time": 2342, "pitch": 73, "duration": 4, "velocity": 94}, {"time": 2348, "pitch": 71, "duration": 2, "velocity": 94}, {"time": 2351, "pitch": 73, "duration": 1, "velocity": 94}, {"time": 2357, "pitch": 71, "duration": 1, "velocity": 94}, {"time": 2360, "pitch": 73, "duration": 1, "velocity": 94}, {"time": 2363, "pitch": 71, "duration": 1, "velocity": 94}, {"time": 2366, "pitch": 73, "duration": 2, "velocity": 94}, {"time": 2372, "pitch": 71, "duration": 3, "velocity": 94}, {"time": 2375, "pitch": 73, "duration": 2, "velocity": 94}, {"time": 2378, "pitch": 75, "duration": 3, "velocity": 94}, {"time": 2384, "pitch": 78, "duration": 1, "velocity": 94}, {"time": 2387, "pitch": 73, "duration": 7, "velocity": 94}, {"time": 2396, "pitch": 78, "duration": 2, "velocity": 94}, {"time": 2402, "pitch": 75, "duration": 7, "velocity": 95}, {"time": 2426, "pitch": 76, "duration": 3, "velocity": 95}, {"time": 2429, "pitch": 75, "duration": 2, "velocity": 95}, {"time": 2432, "pitch": 76, "duration": 3, "velocity": 95}, {"time": 2435, "pitch": 75, "duration": 2, "velocity": 95}, {"time": 2438, "pitch": 76, "duration": 4, "velocity": 95}, {"time": 2444, "pitch": 78, "duration": 1, "velocity": 95}, {"time": 2447, "pitch": 75, "duration": 6, "velocity": 95}, {"time": 2453, "pitch": 73, "duration": 11, "velocity": 95}, {"time": 2465, "pitch": 71, "duration": 3, "velocity": 95}, {"time": 2468, "pitch": 73, "duration": 3, "velocity": 95}, {"time": 2471, "pitch": 75, "duration": 1, "velocity": 95}, {"time": 2474, "pitch": 80, "duration": 4, "velocity": 95}, {"time": 2480, "pitch": 78, "duration": 4, "velocity": 96}, {"time": 2486, "pitch": 75, "duration": 5, "velocity": 97}, {"time": 2492, "pitch": 78, "duration": 2, "velocity": 97}, {"time": 2495, "pitch": 73, "duration": 3, "velocity": 97}, {"time": 2501, "pitch": 71, "duration": 8, "velocity": 97}, {"time": 2528, "pitch": 71, "duration": 1, "velocity": 98}, {"time": 2531, "pitch": 71, "duration": 1, "velocity": 98}, {"time": 2534, "pitch": 71, "duration": 6, "velocity": 98}, {"time": 2543, "pitch": 71, "duration": 1, "velocity": 98}, {"time": 2546, "pitch": 75, "duration": 3, "velocity": 98}, {"time": 2552, "pitch": 70, "duration": 4, "velocity": 98}, {"time": 2558, "pitch": 70, "duration": 4, "velocity": 98}, {"time": 2565, "pitch": 73, "duration": 1, "velocity": 98}, {"time": 2570, "pitch": 73, "duration": 7, "velocity": 98}, {"time": 2579, "pitch": 71, "duration": 22, "velocity": 98}, {"time": 2606, "pitch": 63, "duration": 2, "velocity": 98}, {"time": 2609, "pitch": 66, "duration": 3, "velocity": 98}, {"time": 2612, "pitch": 71, "duration": 2, "velocity": 98}, {"time": 2615, "pitch": 70, "duration": 2, "velocity": 98}, {"time": 2618, "pitch": 68, "duration": 4, "velocity": 98}, {"time": 2627, "pitch": 66, "duration": 2, "velocity": 98}, {"time": 2630, "pitch": 68, "duration": 3, "velocity": 98}, {"time": 2633, "pitch": 66, "duration": 3, "velocity": 98}, {"time": 2636, "pitch": 63, "duration": 2, "velocity": 98}, {"time": 2639, "pitch": 61, "duration": 1, "velocity": 98}, {"time": 2642, "pitch": 63, "duration": 6, "velocity": 98}, {"time": 2654, "pitch": 63, "duration": 3, "velocity": 98}, {"time": 2657, "pitch": 66, "duration": 1, "velocity": 98}, {"time": 2660, "pitch": 71, "duration": 2, "velocity": 98}, {"time": 2663, "pitch": 70, "duration": 2, "velocity": 98}, {"time": 2666, "pitch": 68, "duration": 6, "velocity": 98}, {"time": 2675, "pitch": 66, "duration": 2, "velocity": 98}, {"time": 2678, "pitch": 68, "duration": 2, "velocity": 98}, {"time": 2681, "pitch": 70, "duration": 1, "velocity": 98}, {"time": 2684, "pitch": 71, "duration": 1, "velocity": 98}, {"time": 2687, "pitch": 73, "duration": 1, "velocity": 98}, {"time": 2690, "pitch": 75, "duration": 7, "velocity": 98}, {"time": 2702, "pitch": 75, "duration": 2, "velocity": 98}, {"time": 2705, "pitch": 73, "duration": 1, "velocity": 98}, {"time": 2708, "pitch": 73, "duration": 2, "velocity": 98}, {"time": 2711, "pitch": 71, "duration": 1, "velocity": 98}, {"time": 2714, "pitch": 73, "duration": 6, "velocity": 98}, {"time": 2723, "pitch": 75, "duration": 3, "velocity": 98}, {"time": 2726, "pitch": 73, "duration": 3, "velocity": 98}, {"time": 2729, "pitch": 71, "duration": 1, "velocity": 98}, {"time": 2732, "pitch": 68, "duration": 2, "velocity": 98}, {"time": 2735, "pitch": 68, "duration": 1, "velocity": 98}, {"time": 2738, "pitch": 66, "duration": 7, "velocity": 98}, {"time": 2750, "pitch": 66, "duration": 3, "velocity": 98}, {"time": 2753, "pitch": 63, "duration": 2, "velocity": 98}, {"time": 2756, "pitch": 66, "duration": 1, "velocity": 98}, {"time": 2759, "pitch": 68, "duration": 1, "velocity": 98}, {"time": 2762, "pitch": 70, "duration": 5, "velocity": 98}, {"time": 2771, "pitch": 71, "duration": 2, "velocity": 98}, {"time": 2774, "pitch": 70, "duration": 2, "velocity": 97}, {"time": 2777, "pitch": 66, "duration": 3, "velocity": 96}, {"time": 2780, "pitch": 63, "duration": 3, "velocity": 96}, {"time": 2783, "pitch": 66, "duration": 2, "velocity": 96}, {"time": 2786, "pitch": 68, "duration": 24, "velocity": 96}], "annotations": [{"time": 86, "annotation": {"number": 64, "value": 81}, "group": "control_change"}, {"time": 134, "annotation": {"number": 64, "value": 82}, "group": "control_change"}, {"time": 146, "annotation": {"number": 64, "value": 83}, "group": "control_change"}, {"time": 248, "annotation": {"number": 64, "value": 82}, "group": "control_change"}, {"time": 350, "annotation": {"number": 64, "value": 81}, "group": "control_change"}, {"time": 410, "annotation": {"number": 64, "value": 80}, "group": "control_change"}, {"time": 470, "annotation": {"number": 64, "value": 79}, "group": "control_change"}, {"time": 506, "annotation": {"number": 64, "value": 78}, "group": "control_change"}, {"time": 566, "annotation": {"number": 64, "value": 77}, "group": "control_change"}, {"time": 590, "annotation": {"number": 64, "value": 79}, "group": "control_change"}, {"time": 614, "annotation": {"number": 64, "value": 80}, "group": "control_change"}, {"time": 650, "annotation": {"number": 64, "value": 79}, "group": "control_change"}, {"time": 698, "annotation": {"number": 64, "value": 77}, "group": "control_change"}, {"time": 746, "annotation": {"number": 64, "value": 76}, "group": "control_change"}, {"time": 770, "annotation": {"number": 64, "value": 76}, "group": "control_change"}, {"time": 842, "annotation": {"number": 64, "value": 77}, "group": "control_change"}, {"time": 914, "annotation": {"number": 64, "value": 78}, "group": "control_change"}, {"time": 938, "annotation": {"number": 64, "value": 79}, "group": "control_change"}, {"time": 1022, "annotation": {"number": 64, "value": 78}, "group": "control_change"}, {"time": 1076, "annotation": {"number": 64, "value": 77}, "group": "control_change"}, {"time": 1106, "annotation": {"number": 64, "value": 75}, "group": "control_change"}, {"time": 1170, "annotation": {"number": 64, "value": 76}, "group": "control_change"}, {"time": 1234, "annotation": {"number": 64, "value": 77}, "group": "control_change"}, {"time": 1298, "annotation": {"number": 64, "value": 78}, "group": "control_change"}, {"time": 1346, "annotation": {"number": 64, "value": 79}, "group": "control_change"}, {"time": 1394, "annotation": {"number": 64, "value": 81}, "group": "control_change"}, {"time": 1442, "annotation": {"number": 64, "value": 83}, "group": "control_change"}, {"time": 1466, "annotation": {"number": 64, "value": 84}, "group": "control_change"}, {"time": 1514, "annotation": {"number": 64, "value": 86}, "group": "control_change"}, {"time": 1562, "annotation": {"number": 64, "value": 87}, "group": "control_change"}, {"time": 1586, "annotation": {"number": 64, "value": 88}, "group": "control_change"}, {"time": 1622, "annotation": {"number": 64, "value": 89}, "group": "control_change"}, {"time": 1802, "annotation": {"number": 64, "value": 88}, "group": "control_change"}, {"time": 1838, "annotation": {"number": 64, "value": 86}, "group": "control_change"}, {"time": 1862, "annotation": {"number": 64, "value": 85}, "group": "control_change"}, {"time": 1934, "annotation": {"number": 64, "value": 84}, "group": "control_change"}, {"time": 2054, "annotation": {"number": 64, "value": 85}, "group": "control_change"}, {"time": 2066, "annotation": {"number": 64, "value": 86}, "group": "control_change"}, {"time": 2114, "annotation": {"number": 64, "value": 88}, "group": "control_change"}, {"time": 2138, "annotation": {"number": 64, "value": 90}, "group": "control_change"}, {"time": 2162, "annotation": {"number": 64, "value": 91}, "group": "control_change"}, {"time": 2174, "annotation": {"number": 64, "value": 90}, "group": "control_change"}, {"time": 2234, "annotation": {"number": 64, "value": 89}, "group": "control_change"}, {"time": 2258, "annotation": {"number": 64, "value": 88}, "group": "control_change"}, {"time": 2270, "annotation": {"number": 64, "value": 86}, "group": "control_change"}, {"time": 2396, "annotation": {"number": 64, "value": 85}, "group": "control_change"}, {"time": 2522, "annotation": {"number": 64, "value": 84}, "group": "control_change"}, {"time": 2570, "annotation": {"number": 64, "value": 83}, "group": "control_change"}, {"time": 2594, "annotation": {"number": 64, "value": 95}, "group": "control_change"}, {"time": 2630, "annotation": {"number": 64, "value": 94}, "group": "control_change"}, {"time": 2642, "annotation": {"number": 64, "value": 92}, "group": "control_change"}, {"time": 2654, "annotation": {"number": 64, "value": 91}, "group": "control_change"}, {"time": 2690, "annotation": {"number": 64, "value": 94}, "group": "control_change"}, {"time": 2714, "annotation": {"number": 64, "value": 92}, "group": "control_change"}, {"time": 2882, "annotation": {"number": 64, "value": 91}, "group": "control_change"}, {"time": 2954, "annotation": {"number": 64, "value": 92}, "group": "control_change"}]}, {"program": 0, "is_drum": false, "name": "BRIDGE", "notes": [{"time": 41, "pitch": 63, "duration": 3, "velocity": 89}, {"time": 44, "pitch": 68, "duration": 3, "velocity": 88}, {"time": 47, "pitch": 70, "duration": 2, "velocity": 87}, {"time": 50, "pitch": 71, "duration": 12, "velocity": 86}, {"time": 65, "pitch": 63, "duration": 1, "velocity": 90}, {"time": 68, "pitch": 71, "duration": 1, "velocity": 90}, {"time": 71, "pitch": 70, "duration": 15, "velocity": 89}, {"time": 89, "pitch": 61, "duration": 2, "velocity": 86}, {"time": 92, "pitch": 66, "duration": 3, "velocity": 86}, {"time": 95, "pitch": 68, "duration": 2, "velocity": 85}, {"time": 98, "pitch": 70, "duration": 6, "velocity": 85}, {"time": 104, "pitch": 68, "duration": 2, "velocity": 84}, {"time": 107, "pitch": 66, "duration": 6, "velocity": 89}, {"time": 116, "pitch": 68, "duration": 2, "velocity": 88}, {"time": 119, "pitch": 63, "duration": 15, "velocity": 87}, {"time": 137, "pitch": 63, "duration": 3, "velocity": 85}, {"time": 140, "pitch": 68, "duration": 2, "velocity": 84}, {"time": 143, "pitch": 70, "duration": 2, "velocity": 84}, {"time": 146, "pitch": 71, "duration": 12, "velocity": 84}, {"time": 161, "pitch": 68, "duration": 2, "velocity": 86}, {"time": 164, "pitch": 75, "duration": 1, "velocity": 86}, {"time": 167, "pitch": 73, "duration": 15, "velocity": 86}, {"time": 185, "pitch": 68, "duration": 3, "velocity": 84}, {"time": 188, "pitch": 73, "duration": 3, "velocity": 84}, {"time": 191, "pitch": 75, "duration": 2, "velocity": 84}, {"time": 194, "pitch": 78, "duration": 4, "velocity": 84}, {"time": 200, "pitch": 75, "duration": 3, "velocity": 84}, {"time": 203, "pitch": 78, "duration": 6, "velocity": 84}, {"time": 212, "pitch": 82, "duration": 1, "velocity": 84}, {"time": 215, "pitch": 80, "duration": 24, "velocity": 84}, {"time": 1244, "pitch": 75, "duration": 6, "velocity": 76}, {"time": 1250, "pitch": 80, "duration": 14, "velocity": 76}, {"time": 1265, "pitch": 73, "duration": 7, "velocity": 76}, {"time": 1274, "pitch": 78, "duration": 21, "velocity": 77}, {"time": 1298, "pitch": 73, "duration": 6, "velocity": 76}, {"time": 1304, "pitch": 78, "duration": 6, "velocity": 76}, {"time": 1313, "pitch": 73, "duration": 5, "velocity": 77}, {"time": 1319, "pitch": 80, "duration": 23, "velocity": 77}, {"time": 1346, "pitch": 75, "duration": 6, "velocity": 78}, {"time": 1352, "pitch": 80, "duration": 9, "velocity": 78}, {"time": 1361, "pitch": 73, "duration": 6, "velocity": 78}, {"time": 1367, "pitch": 78, "duration": 20, "velocity": 78}, {"time": 1394, "pitch": 73, "duration": 5, "velocity": 78}, {"time": 1400, "pitch": 78, "duration": 9, "velocity": 78}, {"time": 1409, "pitch": 70, "duration": 9, "velocity": 78}, {"time": 1418, "pitch": 75, "duration": 22, "velocity": 78}, {"time": 2825, "pitch": 63, "duration": 3, "velocity": 81}, {"time": 2828, "pitch": 68, "duration": 3, "velocity": 82}, {"time": 2831, "pitch": 70, "duration": 4, "velocity": 82}, {"time": 2834, "pitch": 71, "duration": 12, "velocity": 83}, {"time": 2849, "pitch": 68, "duration": 1, "velocity": 83}, {"time": 2852, "pitch": 75, "duration": 2, "velocity": 83}, {"time": 2855, "pitch": 73, "duration": 16, "velocity": 83}, {"time": 2873, "pitch": 70, "duration": 2, "velocity": 84}, {"time": 2876, "pitch": 78, "duration": 2, "velocity": 84}, {"time": 2879, "pitch": 75, "duration": 12, "velocity": 84}, {"time": 2885, "pitch": 71, "duration": 1, "velocity": 84}, {"time": 2888, "pitch": 71, "duration": 1, "velocity": 84}, {"time": 2891, "pitch": 68, "duration": 1, "velocity": 84}, {"time": 2894, "pitch": 68, "duration": 2, "velocity": 84}, {"time": 2897, "pitch": 63, "duration": 1, "velocity": 84}, {"time": 2900, "pitch": 63, "duration": 1, "velocity": 84}, {"time": 2903, "pitch": 56, "duration": 1, "velocity": 84}, {"time": 2906, "pitch": 56, "duration": 7, "velocity": 85}, {"time": 2909, "pitch": 59, "duration": 3, "velocity": 85}, {"time": 2912, "pitch": 66, "duration": 3, "velocity": 85}, {"time": 2915, "pitch": 63, "duration": 3, "velocity": 85}, {"time": 2918, "pitch": 71, "duration": 4, "velocity": 85}, {"time": 2921, "pitch": 68, "duration": 3, "velocity": 85}, {"time": 2924, "pitch": 80, "duration": 1, "velocity": 85}, {"time": 2927, "pitch": 80, "duration": 5, "velocity": 85}], "annotations": [{"time": 38, "annotation": {"number": 64, "value": 83}, "group": "control_change"}, {"time": 50, "annotation": {"number": 64, "value": 85}, "group": "control_change"}, {"time": 74, "annotation": {"number": 64, "value": 86}, "group": "control_change"}, {"time": 98, "annotation": {"number": 64, "value": 88}, "group": "control_change"}, {"time": 146, "annotation": {"number": 64, "value": 87}, "group": "control_change"}, {"time": 194, "annotation": {"number": 64, "value": 86}, "group": "control_change"}, {"time": 230, "annotation": {"number": 64, "value": 85}, "group": "control_change"}, {"time": 242, "annotation": {"number": 64, "value": 84}, "group": "control_change"}, {"time": 254, "annotation": {"number": 64, "value": 83}, "group": "control_change"}, {"time": 278, "annotation": {"number": 64, "value": 81}, "group": "control_change"}, {"time": 290, "annotation": {"number": 64, "value": 80}, "group": "control_change"}, {"time": 302, "annotation": {"number": 64, "value": 79}, "group": "control_change"}, {"time": 314, "annotation": {"number": 64, "value": 78}, "group": "control_change"}, {"time": 362, "annotation": {"number": 64, "value": 76}, "group": "control_change"}, {"time": 374, "annotation": {"number": 64, "value": 76}, "group": "control_change"}, {"time": 386, "annotation": {"number": 64, "value": 75}, "group": "control_change"}, {"time": 410, "annotation": {"number": 64, "value": 74}, "group": "control_change"}, {"time": 434, "annotation": {"number": 64, "value": 73}, "group": "control_change"}, {"time": 554, "annotation": {"number": 64, "value": 74}, "group": "control_change"}, {"time": 566, "annotation": {"number": 64, "value": 75}, "group": "control_change"}, {"time": 578, "annotation": {"number": 64, "value": 76}, "group": "control_change"}, {"time": 590, "annotation": {"number": 64, "value": 78}, "group": "control_change"}, {"time": 602, "annotation": {"number": 64, "value": 79}, "group": "control_change"}, {"time": 614, "annotation": {"number": 64, "value": 80}, "group": "control_change"}, {"time": 650, "annotation": {"number": 64, "value": 81}, "group": "control_change"}, {"time": 662, "annotation": {"number": 64, "value": 83}, "group": "control_change"}, {"time": 710, "annotation": {"number": 64, "value": 81}, "group": "control_change"}, {"time": 734, "annotation": {"number": 64, "value": 81}, "group": "control_change"}, {"time": 746, "annotation": {"number": 64, "value": 80}, "group": "control_change"}, {"time": 1010, "annotation": {"number": 64, "value": 81}, "group": "control_change"}, {"time": 1034, "annotation": {"number": 64, "value": 83}, "group": "control_change"}, {"time": 1232, "annotation": {"number": 64, "value": 82}, "group": "control_change"}, {"time": 1430, "annotation": {"number": 64, "value": 81}, "group": "control_change"}, {"time": 1454, "annotation": {"number": 64, "value": 80}, "group": "control_change"}, {"time": 1490, "annotation": {"number": 64, "value": 79}, "group": "control_change"}, {"time": 1514, "annotation": {"number": 64, "value": 78}, "group": "control_change"}, {"time": 1550, "annotation": {"number": 64, "value": 80}, "group": "control_change"}]}, {"program": 0, "is_drum": false, "name": "PIANO", "notes": [{"time": 50, "pitch": 44, "duration": 18, "velocity": 84}, {"time": 50, "pitch": 59, "duration": 10, "velocity": 84}, {"time": 50, "pitch": 63, "duration": 11, "velocity": 84}, {"time": 50, "pitch": 68, "duration": 11, "velocity": 84}, {"time": 56, "pitch": 51, "duration": 12, "velocity": 84}, {"time": 62, "pitch": 59, "duration": 6, "velocity": 84}, {"time": 62, "pitch": 63, "duration": 6, "velocity": 84}, {"time": 62, "pitch": 68, "duration": 6, "velocity": 84}, {"time": 74, "pitch": 42, "duration": 18, "velocity": 84}, {"time": 74, "pitch": 58, "duration": 10, "velocity": 84}, {"time": 74, "pitch": 61, "duration": 11, "velocity": 84}, {"time": 74, "pitch": 66, "duration": 11, "velocity": 84}, {"time": 80, "pitch": 49, "duration": 11, "velocity": 84}, {"time": 86, "pitch": 58, "duration": 6, "velocity": 84}, {"time": 86, "pitch": 61, "duration": 6, "velocity": 84}, {"time": 86, "pitch": 66, "duration": 6, "velocity": 84}, {"time": 98, "pitch": 47, "duration": 8, "velocity": 84}, {"time": 98, "pitch": 63, "duration": 7, "velocity": 84}, {"time": 98, "pitch": 66, "duration": 11, "velocity": 84}, {"time": 98, "pitch": 71, "duration": 9, "velocity": 84}, {"time": 110, "pitch": 46, "duration": 7, "velocity": 84}, {"time": 110, "pitch": 61, "duration": 7, "velocity": 84}, {"time": 110, "pitch": 66, "duration": 7, "velocity": 84}, {"time": 122, "pitch": 44, "duration": 19, "velocity": 84}, {"time": 122, "pitch": 59, "duration": 10, "velocity": 84}, {"time": 122, "pitch": 63, "duration": 11, "velocity": 84}, {"time": 122, "pitch": 68, "duration": 11, "velocity": 84}, {"time": 128, "pitch": 51, "duration": 12, "velocity": 84}, {"time": 134, "pitch": 59, "duration": 6, "velocity": 84}, {"time": 134, "pitch": 63, "duration": 6, "velocity": 84}, {"time": 134, "pitch": 68, "duration": 6, "velocity": 84}, {"time": 146, "pitch": 37, "duration": 18, "velocity": 84}, {"time": 146, "pitch": 52, "duration": 10, "velocity": 84}, {"time": 146, "pitch": 56, "duration": 11, "velocity": 84}, {"time": 146, "pitch": 61, "duration": 11, "velocity": 84}, {"time": 152, "pitch": 44, "duration": 12, "velocity": 84}, {"time": 158, "pitch": 52, "duration": 7, "velocity": 84}, {"time": 158, "pitch": 56, "duration": 7, "velocity": 84}, {"time": 158, "pitch": 61, "duration": 7, "velocity": 84}, {"time": 170, "pitch": 39, "duration": 19, "velocity": 84}, {"time": 170, "pitch": 54, "duration": 11, "velocity": 84}, {"time": 170, "pitch": 58, "duration": 11, "velocity": 84}, {"time": 170, "pitch": 63, "duration": 11, "velocity": 84}, {"time": 176, "pitch": 46, "duration": 11, "velocity": 84}, {"time": 182, "pitch": 54, "duration": 6, "velocity": 84}, {"time": 182, "pitch": 58, "duration": 6, "velocity": 84}, {"time": 182, "pitch": 63, "duration": 6, "velocity": 84}, {"time": 194, "pitch": 40, "duration": 6, "velocity": 84}, {"time": 194, "pitch": 56, "duration": 6, "velocity": 84}, {"time": 194, "pitch": 59, "duration": 5, "velocity": 84}, {"time": 194, "pitch": 64, "duration": 5, "velocity": 84}, {"time": 206, "pitch": 42, "duration": 7, "velocity": 84}, {"time": 206, "pitch": 58, "duration": 7, "velocity": 84}, {"time": 206, "pitch": 61, "duration": 7, "velocity": 84}, {"time": 206, "pitch": 66, "duration": 7, "velocity": 84}, {"time": 218, "pitch": 44, "duration": 23, "velocity": 83}, {"time": 218, "pitch": 59, "duration": 23, "velocity": 83}, {"time": 218, "pitch": 63, "duration": 23, "velocity": 83}, {"time": 218, "pitch": 68, "duration": 23, "velocity": 83}, {"time": 224, "pitch": 51, "duration": 16, "velocity": 83}, {"time": 242, "pitch": 40, "duration": 7, "velocity": 81}, {"time": 242, "pitch": 56, "duration": 6, "velocity": 81}, {"time": 242, "pitch": 59, "duration": 7, "velocity": 81}, {"time": 242, "pitch": 64, "duration": 7, "velocity": 81}, {"time": 254, "pitch": 42, "duration": 7, "velocity": 81}, {"time": 254, "pitch": 58, "duration": 6, "velocity": 81}, {"time": 254, "pitch": 61, "duration": 6, "velocity": 81}, {"time": 254, "pitch": 66, "duration": 7, "velocity": 81}, {"time": 266, "pitch": 44, "duration": 18, "velocity": 81}, {"time": 266, "pitch": 59, "duration": 19, "velocity": 81}, {"time": 266, "pitch": 63, "duration": 18, "velocity": 81}, {"time": 266, "pitch": 68, "duration": 18, "velocity": 81}, {"time": 290, "pitch": 40, "duration": 9, "velocity": 79}, {"time": 290, "pitch": 56, "duration": 7, "velocity": 79}, {"time": 290, "pitch": 59, "duration": 8, "velocity": 79}, {"time": 290, "pitch": 64, "duration": 7, "velocity": 79}, {"time": 296, "pitch": 47, "duration": 6, "velocity": 79}, {"time": 302, "pitch": 42, "duration": 7, "velocity": 78}, {"time": 302, "pitch": 58, "duration": 7, "velocity": 78}, {"time": 302, "pitch": 61, "duration": 7, "velocity": 78}, {"time": 302, "pitch": 66, "duration": 7, "velocity": 78}, {"time": 308, "pitch": 49, "duration": 2, "velocity": 78}, {"time": 314, "pitch": 47, "duration": 18, "velocity": 78}, {"time": 314, "pitch": 63, "duration": 10, "velocity": 78}, {"time": 314, "pitch": 66, "duration": 10, "velocity": 78}, {"time": 314, "pitch": 71, "duration": 10, "velocity": 78}, {"time": 326, "pitch": 63, "duration": 7, "velocity": 76}, {"time": 326, "pitch": 66, "duration": 7, "velocity": 76}, {"time": 326, "pitch": 71, "duration": 6, "velocity": 76}, {"time": 332, "pitch": 54, "duration": 2, "velocity": 76}, {"time": 338, "pitch": 49, "duration": 18, "velocity": 75}, {"time": 338, "pitch": 64, "duration": 11, "velocity": 75}, {"time": 338, "pitch": 68, "duration": 11, "velocity": 75}, {"time": 338, "pitch": 73, "duration": 10, "velocity": 75}, {"time": 344, "pitch": 56, "duration": 9, "velocity": 75}, {"time": 350, "pitch": 64, "duration": 7, "velocity": 75}, {"time": 350, "pitch": 68, "duration": 7, "velocity": 75}, {"time": 350, "pitch": 73, "duration": 6, "velocity": 75}, {"time": 362, "pitch": 39, "duration": 18, "velocity": 75}, {"time": 362, "pitch": 54, "duration": 10, "velocity": 75}, {"time": 362, "pitch": 58, "duration": 10, "velocity": 75}, {"time": 362, "pitch": 63, "duration": 10, "velocity": 75}, {"time": 368, "pitch": 46, "duration": 12, "velocity": 75}, {"time": 374, "pitch": 54, "duration": 7, "velocity": 75}, {"time": 374, "pitch": 58, "duration": 7, "velocity": 75}, {"time": 374, "pitch": 63, "duration": 6, "velocity": 75}, {"time": 380, "pitch": 51, "duration": 6, "velocity": 75}, {"time": 386, "pitch": 42, "duration": 18, "velocity": 75}, {"time": 386, "pitch": 58, "duration": 10, "velocity": 75}, {"time": 386, "pitch": 61, "duration": 10, "velocity": 75}, {"time": 386, "pitch": 66, "duration": 10, "velocity": 75}, {"time": 392, "pitch": 49, "duration": 13, "velocity": 75}, {"time": 398, "pitch": 58, "duration": 6, "velocity": 75}, {"time": 398, "pitch": 61, "duration": 6, "velocity": 75}, {"time": 398, "pitch": 66, "duration": 6, "velocity": 75}, {"time": 404, "pitch": 54, "duration": 4, "velocity": 75}, {"time": 410, "pitch": 44, "duration": 20, "velocity": 75}, {"time": 410, "pitch": 59, "duration": 11, "velocity": 75}, {"time": 410, "pitch": 63, "duration": 11, "velocity": 75}, {"time": 410, "pitch": 68, "duration": 11, "velocity": 75}, {"time": 416, "pitch": 51, "duration": 11, "velocity": 75}, {"time": 422, "pitch": 59, "duration": 8, "velocity": 75}, {"time": 422, "pitch": 63, "duration": 8, "velocity": 75}, {"time": 422, "pitch": 68, "duration": 7, "velocity": 75}, {"time": 434, "pitch": 40, "duration": 8, "velocity": 75}, {"time": 434, "pitch": 56, "duration": 7, "velocity": 75}, {"time": 434, "pitch": 59, "duration": 7, "velocity": 75}, {"time": 434, "pitch": 64, "duration": 7, "velocity": 75}, {"time": 440, "pitch": 47, "duration": 6, "velocity": 75}, {"time": 446, "pitch": 42, "duration": 7, "velocity": 75}, {"time": 446, "pitch": 58, "duration": 7, "velocity": 75}, {"time": 446, "pitch": 61, "duration": 7, "velocity": 75}, {"time": 446, "pitch": 66, "duration": 7, "velocity": 75}, {"time": 452, "pitch": 49, "duration": 6, "velocity": 75}, {"time": 458, "pitch": 44, "duration": 17, "velocity": 75}, {"time": 458, "pitch": 59, "duration": 10, "velocity": 75}, {"time": 458, "pitch": 63, "duration": 10, "velocity": 75}, {"time": 458, "pitch": 68, "duration": 10, "velocity": 75}, {"time": 464, "pitch": 51, "duration": 11, "velocity": 75}, {"time": 464, "pitch": 56, "duration": 10, "velocity": 75}, {"time": 470, "pitch": 59, "duration": 5, "velocity": 75}, {"time": 470, "pitch": 63, "duration": 5, "velocity": 75}, {"time": 470, "pitch": 68, "duration": 5, "velocity": 75}, {"time": 482, "pitch": 40, "duration": 7, "velocity": 75}, {"time": 482, "pitch": 56, "duration": 7, "velocity": 75}, {"time": 482, "pitch": 59, "duration": 7, "velocity": 75}, {"time": 482, "pitch": 64, "duration": 7, "velocity": 75}, {"time": 494, "pitch": 42, "duration": 5, "velocity": 75}, {"time": 494, "pitch": 58, "duration": 6, "velocity": 75}, {"time": 494, "pitch": 61, "duration": 6, "velocity": 75}, {"time": 494, "pitch": 66, "duration": 6, "velocity": 75}, {"time": 503, "pitch": 66, "duration": 1, "velocity": 75}, {"time": 506, "pitch": 47, "duration": 18, "velocity": 75}, {"time": 506, "pitch": 63, "duration": 10, "velocity": 75}, {"time": 506, "pitch": 66, "duration": 10, "velocity": 75}, {"time": 506, "pitch": 71, "duration": 10, "velocity": 75}, {"time": 512, "pitch": 54, "duration": 17, "velocity": 75}, {"time": 518, "pitch": 63, "duration": 7, "velocity": 75}, {"time": 518, "pitch": 66, "duration": 7, "velocity": 75}, {"time": 518, "pitch": 71, "duration": 7, "velocity": 75}, {"time": 524, "pitch": 59, "duration": 5, "velocity": 75}, {"time": 530, "pitch": 49, "duration": 18, "velocity": 75}, {"time": 530, "pitch": 64, "duration": 10, "velocity": 75}, {"time": 530, "pitch": 68, "duration": 10, "velocity": 75}, {"time": 530, "pitch": 73, "duration": 10, "velocity": 75}, {"time": 536, "pitch": 56, "duration": 11, "velocity": 75}, {"time": 542, "pitch": 64, "duration": 7, "velocity": 75}, {"time": 542, "pitch": 68, "duration": 6, "velocity": 75}, {"time": 542, "pitch": 73, "duration": 6, "velocity": 75}, {"time": 554, "pitch": 39, "duration": 18, "velocity": 75}, {"time": 554, "pitch": 54, "duration": 10, "velocity": 75}, {"time": 554, "pitch": 58, "duration": 10, "velocity": 75}, {"time": 554, "pitch": 63, "duration": 10, "velocity": 75}, {"time": 560, "pitch": 46, "duration": 12, "velocity": 75}, {"time": 566, "pitch": 54, "duration": 7, "velocity": 75}, {"time": 566, "pitch": 58, "duration": 7, "velocity": 75}, {"time": 566, "pitch": 63, "duration": 6, "velocity": 75}, {"time": 572, "pitch": 51, "duration": 6, "velocity": 75}, {"time": 578, "pitch": 42, "duration": 19, "velocity": 75}, {"time": 578, "pitch": 58, "duration": 10, "velocity": 75}, {"time": 578, "pitch": 61, "duration": 10, "velocity": 75}, {"time": 578, "pitch": 66, "duration": 10, "velocity": 75}, {"time": 584, "pitch": 49, "duration": 16, "velocity": 75}, {"time": 590, "pitch": 58, "duration": 7, "velocity": 75}, {"time": 590, "pitch": 61, "duration": 7, "velocity": 75}, {"time": 590, "pitch": 66, "duration": 7, "velocity": 75}, {"time": 596, "pitch": 54, "duration": 5, "velocity": 75}, {"time": 602, "pitch": 44, "duration": 19, "velocity": 75}, {"time": 602, "pitch": 59, "duration": 11, "velocity": 75}, {"time": 602, "pitch": 63, "duration": 11, "velocity": 75}, {"time": 602, "pitch": 68, "duration": 11, "velocity": 75}, {"time": 608, "pitch": 51, "duration": 12, "velocity": 75}, {"time": 614, "pitch": 59, "duration": 7, "velocity": 75}, {"time": 614, "pitch": 63, "duration": 7, "velocity": 75}, {"time": 614, "pitch": 68, "duration": 6, "velocity": 75}, {"time": 626, "pitch": 44, "duration": 1, "velocity": 75}, {"time": 626, "pitch": 59, "duration": 1, "velocity": 75}, {"time": 626, "pitch": 63, "duration": 1, "velocity": 75}, {"time": 626, "pitch": 68, "duration": 1, "velocity": 75}, {"time": 629, "pitch": 44, "duration": 2, "velocity": 75}, {"time": 629, "pitch": 59, "duration": 2, "velocity": 75}, {"time": 629, "pitch": 63, "duration": 2, "velocity": 75}, {"time": 629, "pitch": 68, "duration": 2, "velocity": 75}, {"time": 650, "pitch": 37, "duration": 26, "velocity": 75}, {"time": 650, "pitch": 52, "duration": 11, "velocity": 75}, {"time": 650, "pitch": 56, "duration": 11, "velocity": 75}, {"time": 650, "pitch": 61, "duration": 11, "velocity": 75}, {"time": 656, "pitch": 44, "duration": 20, "velocity": 75}, {"time": 662, "pitch": 52, "duration": 11, "velocity": 75}, {"time": 662, "pitch": 56, "duration": 11, "velocity": 75}, {"time": 662, "pitch": 61, "duration": 10, "velocity": 75}, {"time": 668, "pitch": 49, "duration": 6, "velocity": 75}, {"time": 674, "pitch": 42, "duration": 18, "velocity": 75}, {"time": 674, "pitch": 58, "duration": 11, "velocity": 75}, {"time": 674, "pitch": 61, "duration": 11, "velocity": 75}, {"time": 674, "pitch": 66, "duration": 11, "velocity": 75}, {"time": 680, "pitch": 49, "duration": 13, "velocity": 75}, {"time": 686, "pitch": 58, "duration": 7, "velocity": 75}, {"time": 686, "pitch": 61, "duration": 7, "velocity": 75}, {"time": 686, "pitch": 66, "duration": 7, "velocity": 75}, {"time": 692, "pitch": 54, "duration": 5, "velocity": 75}, {"time": 698, "pitch": 47, "duration": 12, "velocity": 75}, {"time": 698, "pitch": 63, "duration": 10, "velocity": 75}, {"time": 698, "pitch": 66, "duration": 10, "velocity": 75}, {"time": 698, "pitch": 71, "duration": 10, "velocity": 75}, {"time": 704, "pitch": 54, "duration": 4, "velocity": 75}, {"time": 710, "pitch": 46, "duration": 7, "velocity": 75}, {"time": 710, "pitch": 61, "duration": 7, "velocity": 75}, {"time": 710, "pitch": 66, "duration": 6, "velocity": 75}, {"time": 710, "pitch": 71, "duration": 6, "velocity": 75}, {"time": 722, "pitch": 44, "duration": 18, "velocity": 75}, {"time": 722, "pitch": 59, "duration": 11, "velocity": 75}, {"time": 722, "pitch": 63, "duration": 11, "velocity": 75}, {"time": 722, "pitch": 68, "duration": 11, "velocity": 75}, {"time": 728, "pitch": 51, "duration": 11, "velocity": 75}, {"time": 734, "pitch": 59, "duration": 6, "velocity": 75}, {"time": 734, "pitch": 63, "duration": 6, "velocity": 75}, {"time": 734, "pitch": 68, "duration": 5, "velocity": 75}, {"time": 746, "pitch": 37, "duration": 19, "velocity": 75}, {"time": 746, "pitch": 52, "duration": 10, "velocity": 75}, {"time": 746, "pitch": 56, "duration": 11, "velocity": 75}, {"time": 746, "pitch": 61, "duration": 10, "velocity": 75}, {"time": 752, "pitch": 44, "duration": 12, "velocity": 75}, {"time": 758, "pitch": 52, "duration": 7, "velocity": 75}, {"time": 758, "pitch": 56, "duration": 7, "velocity": 75}, {"time": 758, "pitch": 61, "duration": 7, "velocity": 75}, {"time": 770, "pitch": 42, "duration": 19, "velocity": 75}, {"time": 770, "pitch": 58, "duration": 10, "velocity": 75}, {"time": 770, "pitch": 61, "duration": 10, "velocity": 75}, {"time": 770, "pitch": 66, "duration": 10, "velocity": 75}, {"time": 776, "pitch": 49, "duration": 14, "velocity": 75}, {"time": 782, "pitch": 58, "duration": 7, "velocity": 75}, {"time": 782, "pitch": 61, "duration": 7, "velocity": 75}, {"time": 782, "pitch": 66, "duration": 7, "velocity": 75}, {"time": 788, "pitch": 54, "duration": 3, "velocity": 75}, {"time": 794, "pitch": 47, "duration": 12, "velocity": 76}, {"time": 794, "pitch": 63, "duration": 10, "velocity": 76}, {"time": 794, "pitch": 66, "duration": 10, "velocity": 76}, {"time": 794, "pitch": 71, "duration": 10, "velocity": 76}, {"time": 800, "pitch": 54, "duration": 6, "velocity": 76}, {"time": 806, "pitch": 46, "duration": 6, "velocity": 76}, {"time": 806, "pitch": 58, "duration": 6, "velocity": 76}, {"time": 806, "pitch": 61, "duration": 6, "velocity": 76}, {"time": 806, "pitch": 66, "duration": 6, "velocity": 76}, {"time": 818, "pitch": 44, "duration": 17, "velocity": 77}, {"time": 818, "pitch": 59, "duration": 11, "velocity": 77}, {"time": 818, "pitch": 63, "duration": 11, "velocity": 77}, {"time": 818, "pitch": 68, "duration": 10, "velocity": 77}, {"time": 824, "pitch": 51, "duration": 10, "velocity": 77}, {"time": 830, "pitch": 59, "duration": 6, "velocity": 77}, {"time": 830, "pitch": 63, "duration": 5, "velocity": 77}, {"time": 830, "pitch": 68, "duration": 5, "velocity": 77}, {"time": 842, "pitch": 40, "duration": 19, "velocity": 77}, {"time": 842, "pitch": 56, "duration": 10, "velocity": 77}, {"time": 842, "pitch": 59, "duration": 10, "velocity": 77}, {"time": 842, "pitch": 64, "duration": 10, "velocity": 77}, {"time": 848, "pitch": 47, "duration": 18, "velocity": 77}, {"time": 854, "pitch": 56, "duration": 7, "velocity": 78}, {"time": 854, "pitch": 59, "duration": 7, "velocity": 78}, {"time": 854, "pitch": 64, "duration": 7, "velocity": 78}, {"time": 860, "pitch": 52, "duration": 5, "velocity": 78}, {"time": 866, "pitch": 42, "duration": 18, "velocity": 78}, {"time": 866, "pitch": 58, "duration": 10, "velocity": 78}, {"time": 866, "pitch": 61, "duration": 11, "velocity": 78}, {"time": 866, "pitch": 66, "duration": 10, "velocity": 78}, {"time": 872, "pitch": 49, "duration": 11, "velocity": 78}, {"time": 878, "pitch": 58, "duration": 6, "velocity": 78}, {"time": 878, "pitch": 61, "duration": 6, "velocity": 78}, {"time": 878, "pitch": 66, "duration": 5, "velocity": 78}, {"time": 890, "pitch": 51, "duration": 6, "velocity": 120}, {"time": 890, "pitch": 54, "duration": 7, "velocity": 78}, {"time": 890, "pitch": 58, "duration": 4, "velocity": 78}, {"time": 890, "pitch": 63, "duration": 6, "velocity": 78}, {"time": 902, "pitch": 39, "duration": 5, "velocity": 78}, {"time": 902, "pitch": 39, "duration": 5, "velocity": 117}, {"time": 902, "pitch": 54, "duration": 6, "velocity": 78}, {"time": 902, "pitch": 58, "duration": 5, "velocity": 78}, {"time": 902, "pitch": 63, "duration": 5, "velocity": 78}, {"time": 914, "pitch": 44, "duration": 19, "velocity": 78}, {"time": 914, "pitch": 59, "duration": 11, "velocity": 78}, {"time": 914, "pitch": 63, "duration": 11, "velocity": 78}, {"time": 914, "pitch": 68, "duration": 11, "velocity": 78}, {"time": 926, "pitch": 59, "duration": 7, "velocity": 78}, {"time": 926, "pitch": 63, "duration": 7, "velocity": 78}, {"time": 926, "pitch": 68, "duration": 6, "velocity": 78}, {"time": 938, "pitch": 40, "duration": 19, "velocity": 78}, {"time": 938, "pitch": 56, "duration": 11, "velocity": 78}, {"time": 938, "pitch": 59, "duration": 11, "velocity": 78}, {"time": 938, "pitch": 64, "duration": 11, "velocity": 78}, {"time": 944, "pitch": 47, "duration": 17, "velocity": 78}, {"time": 950, "pitch": 56, "duration": 7, "velocity": 78}, {"time": 950, "pitch": 59, "duration": 6, "velocity": 78}, {"time": 950, "pitch": 64, "duration": 6, "velocity": 78}, {"time": 956, "pitch": 52, "duration": 5, "velocity": 78}, {"time": 962, "pitch": 42, "duration": 16, "velocity": 78}, {"time": 962, "pitch": 58, "duration": 10, "velocity": 78}, {"time": 962, "pitch": 61, "duration": 10, "velocity": 78}, {"time": 962, "pitch": 66, "duration": 10, "velocity": 78}, {"time": 968, "pitch": 49, "duration": 10, "velocity": 78}, {"time": 974, "pitch": 58, "duration": 6, "velocity": 78}, {"time": 974, "pitch": 61, "duration": 6, "velocity": 78}, {"time": 974, "pitch": 66, "duration": 6, "velocity": 78}, {"time": 983, "pitch": 66, "duration": 1, "velocity": 78}, {"time": 986, "pitch": 47, "duration": 40, "velocity": 78}, {"time": 986, "pitch": 63, "duration": 11, "velocity": 78}, {"time": 986, "pitch": 66, "duration": 11, "velocity": 78}, {"time": 986, "pitch": 71, "duration": 11, "velocity": 78}, {"time": 992, "pitch": 54, "duration": 34, "velocity": 78}, {"time": 998, "pitch": 63, "duration": 11, "velocity": 78}, {"time": 998, "pitch": 66, "duration": 11, "velocity": 78}, {"time": 998, "pitch": 71, "duration": 11, "velocity": 78}, {"time": 1004, "pitch": 59, "duration": 20, "velocity": 77}, {"time": 1010, "pitch": 63, "duration": 15, "velocity": 76}, {"time": 1010, "pitch": 66, "duration": 15, "velocity": 76}, {"time": 1010, "pitch": 71, "duration": 15, "velocity": 76}, {"time": 1034, "pitch": 40, "duration": 8, "velocity": 75}, {"time": 1034, "pitch": 56, "duration": 7, "velocity": 75}, {"time": 1034, "pitch": 59, "duration": 7, "velocity": 75}, {"time": 1034, "pitch": 64, "duration": 7, "velocity": 75}, {"time": 1040, "pitch": 47, "duration": 6, "velocity": 75}, {"time": 1046, "pitch": 42, "duration": 8, "velocity": 75}, {"time": 1046, "pitch": 58, "duration": 7, "velocity": 75}, {"time": 1046, "pitch": 61, "duration": 7, "velocity": 75}, {"time": 1046, "pitch": 66, "duration": 7, "velocity": 75}, {"time": 1052, "pitch": 49, "duration": 7, "velocity": 75}, {"time": 1058, "pitch": 44, "duration": 17, "velocity": 75}, {"time": 1058, "pitch": 59, "duration": 10, "velocity": 75}, {"time": 1058, "pitch": 63, "duration": 11, "velocity": 75}, {"time": 1058, "pitch": 68, "duration": 10, "velocity": 75}, {"time": 1064, "pitch": 51, "duration": 11, "velocity": 75}, {"time": 1064, "pitch": 56, "duration": 10, "velocity": 75}, {"time": 1070, "pitch": 59, "duration": 5, "velocity": 75}, {"time": 1070, "pitch": 63, "duration": 5, "velocity": 75}, {"time": 1070, "pitch": 68, "duration": 5, "velocity": 75}, {"time": 1082, "pitch": 40, "duration": 8, "velocity": 75}, {"time": 1082, "pitch": 56, "duration": 7, "velocity": 75}, {"time": 1082, "pitch": 59, "duration": 7, "velocity": 75}, {"time": 1082, "pitch": 64, "duration": 7, "velocity": 75}, {"time": 1088, "pitch": 47, "duration": 6, "velocity": 75}, {"time": 1088, "pitch": 52, "duration": 5, "velocity": 75}, {"time": 1094, "pitch": 42, "duration": 6, "velocity": 75}, {"time": 1094, "pitch": 58, "duration": 6, "velocity": 75}, {"time": 1094, "pitch": 61, "duration": 6, "velocity": 75}, {"time": 1094, "pitch": 66, "duration": 6, "velocity": 75}, {"time": 1100, "pitch": 49, "duration": 1, "velocity": 75}, {"time": 1106, "pitch": 47, "duration": 20, "velocity": 75}, {"time": 1106, "pitch": 63, "duration": 10, "velocity": 75}, {"time": 1106, "pitch": 66, "duration": 10, "velocity": 75}, {"time": 1106, "pitch": 71, "duration": 10, "velocity": 75}, {"time": 1112, "pitch": 54, "duration": 14, "velocity": 75}, {"time": 1118, "pitch": 59, "duration": 5, "velocity": 75}, {"time": 1118, "pitch": 63, "duration": 8, "velocity": 75}, {"time": 1118, "pitch": 66, "duration": 7, "velocity": 75}, {"time": 1118, "pitch": 71, "duration": 7, "velocity": 75}, {"time": 1124, "pitch": 59, "duration": 5, "velocity": 75}, {"time": 1130, "pitch": 49, "duration": 16, "velocity": 74}, {"time": 1130, "pitch": 64, "duration": 10, "velocity": 74}, {"time": 1130, "pitch": 68, "duration": 10, "velocity": 74}, {"time": 1130, "pitch": 73, "duration": 10, "velocity": 74}, {"time": 1136, "pitch": 56, "duration": 10, "velocity": 74}, {"time": 1142, "pitch": 64, "duration": 5, "velocity": 73}, {"time": 1142, "pitch": 68, "duration": 4, "velocity": 73}, {"time": 1142, "pitch": 73, "duration": 4, "velocity": 73}, {"time": 1154, "pitch": 39, "duration": 19, "velocity": 73}, {"time": 1154, "pitch": 54, "duration": 10, "velocity": 73}, {"time": 1154, "pitch": 58, "duration": 10, "velocity": 73}, {"time": 1154, "pitch": 63, "duration": 10, "velocity": 73}, {"time": 1160, "pitch": 46, "duration": 13, "velocity": 73}, {"time": 1166, "pitch": 54, "duration": 7, "velocity": 73}, {"time": 1166, "pitch": 58, "duration": 7, "velocity": 73}, {"time": 1166, "pitch": 63, "duration": 7, "velocity": 73}, {"time": 1172, "pitch": 51, "duration": 6, "velocity": 73}, {"time": 1178, "pitch": 42, "duration": 19, "velocity": 73}, {"time": 1178, "pitch": 58, "duration": 10, "velocity": 73}, {"time": 1178, "pitch": 61, "duration": 11, "velocity": 73}, {"time": 1178, "pitch": 66, "duration": 10, "velocity": 73}, {"time": 1184, "pitch": 49, "duration": 18, "velocity": 73}, {"time": 1190, "pitch": 58, "duration": 8, "velocity": 73}, {"time": 1190, "pitch": 61, "duration": 7, "velocity": 73}, {"time": 1190, "pitch": 66, "duration": 7, "velocity": 73}, {"time": 1196, "pitch": 54, "duration": 6, "velocity": 73}, {"time": 1202, "pitch": 44, "duration": 24, "velocity": 73}, {"time": 1202, "pitch": 59, "duration": 11, "velocity": 73}, {"time": 1202, "pitch": 63, "duration": 11, "velocity": 73}, {"time": 1202, "pitch": 68, "duration": 10, "velocity": 73}, {"time": 1208, "pitch": 51, "duration": 18, "velocity": 73}, {"time": 1214, "pitch": 59, "duration": 10, "velocity": 73}, {"time": 1214, "pitch": 63, "duration": 10, "velocity": 73}, {"time": 1214, "pitch": 68, "duration": 10, "velocity": 73}, {"time": 1220, "pitch": 56, "duration": 6, "velocity": 73}, {"time": 1226, "pitch": 44, "duration": 2, "velocity": 85}, {"time": 1226, "pitch": 56, "duration": 2, "velocity": 90}, {"time": 1226, "pitch": 59, "duration": 2, "velocity": 93}, {"time": 1226, "pitch": 63, "duration": 2, "velocity": 64}, {"time": 1229, "pitch": 44, "duration": 3, "velocity": 86}, {"time": 1229, "pitch": 56, "duration": 3, "velocity": 111}, {"time": 1229, "pitch": 59, "duration": 3, "velocity": 95}, {"time": 1229, "pitch": 63, "duration": 3, "velocity": 79}, {"time": 1250, "pitch": 40, "duration": 1, "velocity": 73}, {"time": 1250, "pitch": 47, "duration": 1, "velocity": 73}, {"time": 1250, "pitch": 52, "duration": 1, "velocity": 73}, {"time": 1250, "pitch": 56, "duration": 1, "velocity": 73}, {"time": 1250, "pitch": 59, "duration": 1, "velocity": 73}, {"time": 1250, "pitch": 64, "duration": 1, "velocity": 73}, {"time": 1253, "pitch": 40, "duration": 1, "velocity": 73}, {"time": 1253, "pitch": 47, "duration": 1, "velocity": 73}, {"time": 1253, "pitch": 52, "duration": 1, "velocity": 73}, {"time": 1253, "pitch": 56, "duration": 1, "velocity": 73}, {"time": 1253, "pitch": 59, "duration": 1, "velocity": 73}, {"time": 1253, "pitch": 64, "duration": 1, "velocity": 73}, {"time": 1256, "pitch": 40, "duration": 3, "velocity": 73}, {"time": 1256, "pitch": 47, "duration": 2, "velocity": 73}, {"time": 1256, "pitch": 52, "duration": 3, "velocity": 73}, {"time": 1256, "pitch": 56, "duration": 3, "velocity": 73}, {"time": 1256, "pitch": 59, "duration": 3, "velocity": 73}, {"time": 1256, "pitch": 64, "duration": 3, "velocity": 73}, {"time": 1265, "pitch": 40, "duration": 2, "velocity": 73}, {"time": 1265, "pitch": 47, "duration": 2, "velocity": 73}, {"time": 1265, "pitch": 52, "duration": 2, "velocity": 73}, {"time": 1265, "pitch": 56, "duration": 1, "velocity": 73}, {"time": 1265, "pitch": 59, "duration": 1, "velocity": 73}, {"time": 1265, "pitch": 64, "duration": 1, "velocity": 73}, {"time": 1271, "pitch": 42, "duration": 20, "velocity": 73}, {"time": 1271, "pitch": 58, "duration": 14, "velocity": 73}, {"time": 1271, "pitch": 61, "duration": 14, "velocity": 73}, {"time": 1271, "pitch": 66, "duration": 13, "velocity": 73}, {"time": 1280, "pitch": 49, "duration": 10, "velocity": 73}, {"time": 1286, "pitch": 58, "duration": 5, "velocity": 73}, {"time": 1286, "pitch": 61, "duration": 5, "velocity": 73}, {"time": 1286, "pitch": 66, "duration": 4, "velocity": 73}, {"time": 1298, "pitch": 42, "duration": 2, "velocity": 73}, {"time": 1298, "pitch": 49, "duration": 1, "velocity": 73}, {"time": 1298, "pitch": 54, "duration": 1, "velocity": 73}, {"time": 1298, "pitch": 58, "duration": 1, "velocity": 73}, {"time": 1298, "pitch": 61, "duration": 1, "velocity": 73}, {"time": 1298, "pitch": 66, "duration": 1, "velocity": 73}, {"time": 1301, "pitch": 42, "duration": 1, "velocity": 73}, {"time": 1301, "pitch": 49, "duration": 1, "velocity": 73}, {"time": 1301, "pitch": 54, "duration": 1, "velocity": 73}, {"time": 1301, "pitch": 58, "duration": 1, "velocity": 73}, {"time": 1301, "pitch": 61, "duration": 1, "velocity": 73}, {"time": 1301, "pitch": 66, "duration": 1, "velocity": 73}, {"time": 1304, "pitch": 42, "duration": 3, "velocity": 73}, {"time": 1304, "pitch": 49, "duration": 2, "velocity": 73}, {"time": 1304, "pitch": 54, "duration": 3, "velocity": 73}, {"time": 1304, "pitch": 58, "duration": 3, "velocity": 73}, {"time": 1304, "pitch": 61, "duration": 3, "velocity": 73}, {"time": 1304, "pitch": 66, "duration": 2, "velocity": 73}, {"time": 1313, "pitch": 42, "duration": 1, "velocity": 73}, {"time": 1313, "pitch": 49, "duration": 1, "velocity": 73}, {"time": 1313, "pitch": 54, "duration": 2, "velocity": 73}, {"time": 1313, "pitch": 58, "duration": 2, "velocity": 73}, {"time": 1313, "pitch": 61, "duration": 2, "velocity": 73}, {"time": 1313, "pitch": 66, "duration": 1, "velocity": 73}, {"time": 1313, "pitch": 68, "duration": 1, "velocity": 73}, {"time": 1319, "pitch": 44, "duration": 20, "velocity": 73}, {"time": 1319, "pitch": 59, "duration": 13, "velocity": 73}, {"time": 1319, "pitch": 63, "duration": 13, "velocity": 73}, {"time": 1319, "pitch": 68, "duration": 13, "velocity": 73}, {"time": 1325, "pitch": 51, "duration": 15, "velocity": 73}, {"time": 1328, "pitch": 56, "duration": 11, "velocity": 73}, {"time": 1334, "pitch": 59, "duration": 6, "velocity": 73}, {"time": 1334, "pitch": 63, "duration": 6, "velocity": 73}, {"time": 1334, "pitch": 68, "duration": 6, "velocity": 73}, {"time": 1346, "pitch": 40, "duration": 5, "velocity": 73}, {"time": 1346, "pitch": 56, "duration": 1, "velocity": 73}, {"time": 1346, "pitch": 59, "duration": 1, "velocity": 73}, {"time": 1346, "pitch": 64, "duration": 1, "velocity": 73}, {"time": 1349, "pitch": 47, "duration": 1, "velocity": 73}, {"time": 1349, "pitch": 56, "duration": 1, "velocity": 73}, {"time": 1349, "pitch": 59, "duration": 1, "velocity": 73}, {"time": 1349, "pitch": 64, "duration": 1, "velocity": 73}, {"time": 1352, "pitch": 40, "duration": 3, "velocity": 73}, {"time": 1352, "pitch": 47, "duration": 3, "velocity": 73}, {"time": 1352, "pitch": 56, "duration": 3, "velocity": 73}, {"time": 1352, "pitch": 59, "duration": 2, "velocity": 73}, {"time": 1352, "pitch": 64, "duration": 2, "velocity": 73}, {"time": 1361, "pitch": 40, "duration": 2, "velocity": 73}, {"time": 1361, "pitch": 47, "duration": 1, "velocity": 73}, {"time": 1361, "pitch": 52, "duration": 2, "velocity": 73}, {"time": 1361, "pitch": 56, "duration": 1, "velocity": 73}, {"time": 1361, "pitch": 59, "duration": 1, "velocity": 73}, {"time": 1361, "pitch": 64, "duration": 1, "velocity": 73}, {"time": 1367, "pitch": 42, "duration": 21, "velocity": 73}, {"time": 1367, "pitch": 58, "duration": 13, "velocity": 73}, {"time": 1367, "pitch": 61, "duration": 13, "velocity": 73}, {"time": 1367, "pitch": 66, "duration": 13, "velocity": 73}, {"time": 1370, "pitch": 49, "duration": 16, "velocity": 73}, {"time": 1376, "pitch": 54, "duration": 13, "velocity": 73}, {"time": 1382, "pitch": 58, "duration": 6, "velocity": 73}, {"time": 1382, "pitch": 61, "duration": 6, "velocity": 73}, {"time": 1382, "pitch": 66, "duration": 5, "velocity": 73}, {"time": 1394, "pitch": 37, "duration": 1, "velocity": 73}, {"time": 1394, "pitch": 41, "duration": 1, "velocity": 73}, {"time": 1394, "pitch": 44, "duration": 1, "velocity": 73}, {"time": 1394, "pitch": 49, "duration": 1, "velocity": 73}, {"time": 1394, "pitch": 53, "duration": 1, "velocity": 73}, {"time": 1394, "pitch": 56, "duration": 1, "velocity": 73}, {"time": 1394, "pitch": 61, "duration": 1, "velocity": 73}, {"time": 1397, "pitch": 37, "duration": 1, "velocity": 73}, {"time": 1397, "pitch": 41, "duration": 1, "velocity": 73}, {"time": 1397, "pitch": 44, "duration": 1, "velocity": 73}, {"time": 1397, "pitch": 49, "duration": 1, "velocity": 73}, {"time": 1397, "pitch": 53, "duration": 1, "velocity": 73}, {"time": 1397, "pitch": 56, "duration": 1, "velocity": 73}, {"time": 1400, "pitch": 37, "duration": 2, "velocity": 73}, {"time": 1400, "pitch": 41, "duration": 2, "velocity": 73}, {"time": 1400, "pitch": 44, "duration": 2, "velocity": 73}, {"time": 1400, "pitch": 49, "duration": 2, "velocity": 73}, {"time": 1400, "pitch": 53, "duration": 2, "velocity": 73}, {"time": 1400, "pitch": 56, "duration": 1, "velocity": 73}, {"time": 1400, "pitch": 61, "duration": 1, "velocity": 73}, {"time": 1409, "pitch": 37, "duration": 2, "velocity": 74}, {"time": 1409, "pitch": 41, "duration": 2, "velocity": 74}, {"time": 1409, "pitch": 44, "duration": 1, "velocity": 74}, {"time": 1409, "pitch": 49, "duration": 2, "velocity": 74}, {"time": 1409, "pitch": 53, "duration": 2, "velocity": 74}, {"time": 1409, "pitch": 56, "duration": 1, "velocity": 74}, {"time": 1409, "pitch": 61, "duration": 1, "velocity": 74}, {"time": 1415, "pitch": 39, "duration": 21, "velocity": 74}, {"time": 1415, "pitch": 43, "duration": 21, "velocity": 74}, {"time": 1415, "pitch": 46, "duration": 21, "velocity": 74}, {"time": 1415, "pitch": 51, "duration": 21, "velocity": 74}, {"time": 1415, "pitch": 55, "duration": 21, "velocity": 74}, {"time": 1415, "pitch": 58, "duration": 21, "velocity": 74}, {"time": 1415, "pitch": 63, "duration": 20, "velocity": 74}, {"time": 1442, "pitch": 40, "duration": 7, "velocity": 74}, {"time": 1442, "pitch": 56, "duration": 6, "velocity": 74}, {"time": 1442, "pitch": 59, "duration": 7, "velocity": 74}, {"time": 1442, "pitch": 64, "duration": 7, "velocity": 74}, {"time": 1454, "pitch": 42, "duration": 7, "velocity": 74}, {"time": 1454, "pitch": 58, "duration": 6, "velocity": 74}, {"time": 1454, "pitch": 61, "duration": 6, "velocity": 74}, {"time": 1454, "pitch": 66, "duration": 7, "velocity": 74}, {"time": 1466, "pitch": 44, "duration": 18, "velocity": 74}, {"time": 1466, "pitch": 59, "duration": 19, "velocity": 74}, {"time": 1466, "pitch": 63, "duration": 18, "velocity": 74}, {"time": 1466, "pitch": 68, "duration": 18, "velocity": 74}, {"time": 1490, "pitch": 40, "duration": 9, "velocity": 74}, {"time": 1490, "pitch": 56, "duration": 7, "velocity": 74}, {"time": 1490, "pitch": 59, "duration": 8, "velocity": 74}, {"time": 1490, "pitch": 64, "duration": 7, "velocity": 74}, {"time": 1496, "pitch": 47, "duration": 6, "velocity": 74}, {"time": 1502, "pitch": 42, "duration": 7, "velocity": 74}, {"time": 1502, "pitch": 58, "duration": 7, "velocity": 74}, {"time": 1502, "pitch": 61, "duration": 7, "velocity": 74}, {"time": 1502, "pitch": 66, "duration": 7, "velocity": 74}, {"time": 1508, "pitch": 49, "duration": 2, "velocity": 74}, {"time": 1514, "pitch": 47, "duration": 18, "velocity": 74}, {"time": 1514, "pitch": 63, "duration": 10, "velocity": 74}, {"time": 1514, "pitch": 66, "duration": 10, "velocity": 74}, {"time": 1514, "pitch": 71, "duration": 10, "velocity": 74}, {"time": 1526, "pitch": 63, "duration": 7, "velocity": 74}, {"time": 1526, "pitch": 66, "duration": 7, "velocity": 74}, {"time": 1526, "pitch": 71, "duration": 6, "velocity": 74}, {"time": 1532, "pitch": 54, "duration": 2, "velocity": 74}, {"time": 1538, "pitch": 49, "duration": 18, "velocity": 74}, {"time": 1538, "pitch": 64, "duration": 11, "velocity": 74}, {"time": 1538, "pitch": 68, "duration": 11, "velocity": 74}, {"time": 1538, "pitch": 73, "duration": 10, "velocity": 74}, {"time": 1544, "pitch": 56, "duration": 9, "velocity": 74}, {"time": 1550, "pitch": 64, "duration": 7, "velocity": 74}, {"time": 1550, "pitch": 68, "duration": 7, "velocity": 74}, {"time": 1550, "pitch": 73, "duration": 6, "velocity": 74}, {"time": 1562, "pitch": 39, "duration": 18, "velocity": 75}, {"time": 1562, "pitch": 54, "duration": 10, "velocity": 75}, {"time": 1562, "pitch": 58, "duration": 10, "velocity": 75}, {"time": 1562, "pitch": 63, "duration": 10, "velocity": 75}, {"time": 1568, "pitch": 46, "duration": 12, "velocity": 75}, {"time": 1574, "pitch": 54, "duration": 7, "velocity": 75}, {"time": 1574, "pitch": 58, "duration": 7, "velocity": 75}, {"time": 1574, "pitch": 63, "duration": 6, "velocity": 75}, {"time": 1580, "pitch": 51, "duration": 6, "velocity": 75}, {"time": 1586, "pitch": 42, "duration": 18, "velocity": 75}, {"time": 1586, "pitch": 58, "duration": 10, "velocity": 75}, {"time": 1586, "pitch": 61, "duration": 10, "velocity": 75}, {"time": 1586, "pitch": 66, "duration": 10, "velocity": 75}, {"time": 1592, "pitch": 49, "duration": 13, "velocity": 75}, {"time": 1598, "pitch": 58, "duration": 6, "velocity": 76}, {"time": 1598, "pitch": 61, "duration": 6, "velocity": 76}, {"time": 1598, "pitch": 66, "duration": 6, "velocity": 76}, {"time": 1604, "pitch": 54, "duration": 4, "velocity": 76}, {"time": 1610, "pitch": 44, "duration": 20, "velocity": 76}, {"time": 1610, "pitch": 59, "duration": 11, "velocity": 76}, {"time": 1610, "pitch": 63, "duration": 11, "velocity": 76}, {"time": 1610, "pitch": 68, "duration": 11, "velocity": 76}, {"time": 1616, "pitch": 51, "duration": 11, "velocity": 77}, {"time": 1622, "pitch": 59, "duration": 8, "velocity": 77}, {"time": 1622, "pitch": 63, "duration": 8, "velocity": 77}, {"time": 1622, "pitch": 68, "duration": 7, "velocity": 77}, {"time": 1634, "pitch": 40, "duration": 8, "velocity": 77}, {"time": 1634, "pitch": 56, "duration": 7, "velocity": 77}, {"time": 1634, "pitch": 59, "duration": 7, "velocity": 77}, {"time": 1634, "pitch": 64, "duration": 7, "velocity": 77}, {"time": 1640, "pitch": 47, "duration": 6, "velocity": 77}, {"time": 1646, "pitch": 42, "duration": 7, "velocity": 77}, {"time": 1646, "pitch": 58, "duration": 7, "velocity": 77}, {"time": 1646, "pitch": 61, "duration": 7, "velocity": 77}, {"time": 1646, "pitch": 66, "duration": 7, "velocity": 77}, {"time": 1652, "pitch": 49, "duration": 6, "velocity": 77}, {"time": 1658, "pitch": 44, "duration": 17, "velocity": 77}, {"time": 1658, "pitch": 59, "duration": 10, "velocity": 77}, {"time": 1658, "pitch": 63, "duration": 10, "velocity": 77}, {"time": 1658, "pitch": 68, "duration": 10, "velocity": 77}, {"time": 1664, "pitch": 51, "duration": 11, "velocity": 77}, {"time": 1664, "pitch": 56, "duration": 10, "velocity": 77}, {"time": 1670, "pitch": 59, "duration": 5, "velocity": 77}, {"time": 1670, "pitch": 63, "duration": 5, "velocity": 77}, {"time": 1670, "pitch": 68, "duration": 5, "velocity": 77}, {"time": 1682, "pitch": 40, "duration": 7, "velocity": 77}, {"time": 1682, "pitch": 56, "duration": 7, "velocity": 77}, {"time": 1682, "pitch": 59, "duration": 7, "velocity": 77}, {"time": 1682, "pitch": 64, "duration": 7, "velocity": 77}, {"time": 1694, "pitch": 42, "duration": 5, "velocity": 78}, {"time": 1694, "pitch": 58, "duration": 6, "velocity": 78}, {"time": 1694, "pitch": 61, "duration": 6, "velocity": 78}, {"time": 1694, "pitch": 66, "duration": 6, "velocity": 78}, {"time": 1703, "pitch": 66, "duration": 1, "velocity": 78}, {"time": 1706, "pitch": 47, "duration": 18, "velocity": 78}, {"time": 1706, "pitch": 63, "duration": 10, "velocity": 78}, {"time": 1706, "pitch": 66, "duration": 10, "velocity": 78}, {"time": 1706, "pitch": 71, "duration": 10, "velocity": 78}, {"time": 1712, "pitch": 54, "duration": 17, "velocity": 78}, {"time": 1718, "pitch": 63, "duration": 7, "velocity": 78}, {"time": 1718, "pitch": 66, "duration": 7, "velocity": 78}, {"time": 1718, "pitch": 71, "duration": 7, "velocity": 78}, {"time": 1724, "pitch": 59, "duration": 5, "velocity": 78}, {"time": 1730, "pitch": 49, "duration": 18, "velocity": 78}, {"time": 1730, "pitch": 64, "duration": 10, "velocity": 78}, {"time": 1730, "pitch": 68, "duration": 10, "velocity": 78}, {"time": 1730, "pitch": 73, "duration": 10, "velocity": 78}, {"time": 1736, "pitch": 56, "duration": 11, "velocity": 78}, {"time": 1742, "pitch": 64, "duration": 7, "velocity": 78}, {"time": 1742, "pitch": 68, "duration": 6, "velocity": 78}, {"time": 1742, "pitch": 73, "duration": 6, "velocity": 78}, {"time": 1754, "pitch": 39, "duration": 18, "velocity": 78}, {"time": 1754, "pitch": 54, "duration": 10, "velocity": 78}, {"time": 1754, "pitch": 58, "duration": 10, "velocity": 78}, {"time": 1754, "pitch": 63, "duration": 10, "velocity": 78}, {"time": 1760, "pitch": 46, "duration": 12, "velocity": 78}, {"time": 1766, "pitch": 54, "duration": 7, "velocity": 78}, {"time": 1766, "pitch": 58, "duration": 7, "velocity": 78}, {"time": 1766, "pitch": 63, "duration": 6, "velocity": 78}, {"time": 1772, "pitch": 51, "duration": 6, "velocity": 78}, {"time": 1778, "pitch": 42, "duration": 19, "velocity": 78}, {"time": 1778, "pitch": 58, "duration": 10, "velocity": 78}, {"time": 1778, "pitch": 61, "duration": 10, "velocity": 78}, {"time": 1778, "pitch": 66, "duration": 10, "velocity": 78}, {"time": 1784, "pitch": 49, "duration": 16, "velocity": 78}, {"time": 1790, "pitch": 58, "duration": 7, "velocity": 78}, {"time": 1790, "pitch": 61, "duration": 7, "velocity": 78}, {"time": 1790, "pitch": 66, "duration": 7, "velocity": 78}, {"time": 1796, "pitch": 54, "duration": 5, "velocity": 78}, {"time": 1802, "pitch": 44, "duration": 19, "velocity": 78}, {"time": 1802, "pitch": 59, "duration": 11, "velocity": 78}, {"time": 1802, "pitch": 63, "duration": 11, "velocity": 78}, {"time": 1802, "pitch": 68, "duration": 11, "velocity": 78}, {"time": 1808, "pitch": 51, "duration": 12, "velocity": 78}, {"time": 1814, "pitch": 59, "duration": 7, "velocity": 78}, {"time": 1814, "pitch": 63, "duration": 7, "velocity": 78}, {"time": 1814, "pitch": 68, "duration": 6, "velocity": 78}, {"time": 1826, "pitch": 44, "duration": 1, "velocity": 78}, {"time": 1826, "pitch": 59, "duration": 1, "velocity": 78}, {"time": 1826, "pitch": 63, "duration": 1, "velocity": 78}, {"time": 1826, "pitch": 68, "duration": 1, "velocity": 78}, {"time": 1829, "pitch": 44, "duration": 2, "velocity": 78}, {"time": 1829, "pitch": 59, "duration": 2, "velocity": 78}, {"time": 1829, "pitch": 63, "duration": 2, "velocity": 78}, {"time": 1829, "pitch": 68, "duration": 2, "velocity": 78}, {"time": 1850, "pitch": 37, "duration": 26, "velocity": 76}, {"time": 1850, "pitch": 52, "duration": 11, "velocity": 76}, {"time": 1850, "pitch": 56, "duration": 11, "velocity": 76}, {"time": 1850, "pitch": 61, "duration": 11, "velocity": 76}, {"time": 1856, "pitch": 44, "duration": 20, "velocity": 76}, {"time": 1862, "pitch": 52, "duration": 11, "velocity": 76}, {"time": 1862, "pitch": 56, "duration": 11, "velocity": 76}, {"time": 1862, "pitch": 61, "duration": 10, "velocity": 76}, {"time": 1868, "pitch": 49, "duration": 6, "velocity": 76}, {"time": 1874, "pitch": 42, "duration": 18, "velocity": 76}, {"time": 1874, "pitch": 58, "duration": 11, "velocity": 76}, {"time": 1874, "pitch": 61, "duration": 11, "velocity": 76}, {"time": 1874, "pitch": 66, "duration": 11, "velocity": 76}, {"time": 1880, "pitch": 49, "duration": 13, "velocity": 76}, {"time": 1886, "pitch": 58, "duration": 7, "velocity": 76}, {"time": 1886, "pitch": 61, "duration": 7, "velocity": 76}, {"time": 1886, "pitch": 66, "duration": 7, "velocity": 76}, {"time": 1892, "pitch": 54, "duration": 5, "velocity": 76}, {"time": 1898, "pitch": 47, "duration": 12, "velocity": 76}, {"time": 1898, "pitch": 63, "duration": 10, "velocity": 76}, {"time": 1898, "pitch": 66, "duration": 10, "velocity": 76}, {"time": 1898, "pitch": 71, "duration": 10, "velocity": 76}, {"time": 1904, "pitch": 54, "duration": 4, "velocity": 76}, {"time": 1910, "pitch": 46, "duration": 7, "velocity": 76}, {"time": 1910, "pitch": 61, "duration": 7, "velocity": 76}, {"time": 1910, "pitch": 66, "duration": 6, "velocity": 76}, {"time": 1910, "pitch": 71, "duration": 6, "velocity": 76}, {"time": 1922, "pitch": 44, "duration": 18, "velocity": 76}, {"time": 1922, "pitch": 59, "duration": 11, "velocity": 76}, {"time": 1922, "pitch": 63, "duration": 11, "velocity": 76}, {"time": 1922, "pitch": 68, "duration": 11, "velocity": 76}, {"time": 1928, "pitch": 51, "duration": 11, "velocity": 76}, {"time": 1934, "pitch": 59, "duration": 6, "velocity": 76}, {"time": 1934, "pitch": 63, "duration": 6, "velocity": 76}, {"time": 1934, "pitch": 68, "duration": 5, "velocity": 76}, {"time": 1946, "pitch": 37, "duration": 19, "velocity": 75}, {"time": 1946, "pitch": 52, "duration": 10, "velocity": 75}, {"time": 1946, "pitch": 56, "duration": 11, "velocity": 75}, {"time": 1946, "pitch": 61, "duration": 10, "velocity": 75}, {"time": 1952, "pitch": 44, "duration": 12, "velocity": 75}, {"time": 1958, "pitch": 52, "duration": 7, "velocity": 75}, {"time": 1958, "pitch": 56, "duration": 7, "velocity": 75}, {"time": 1958, "pitch": 61, "duration": 7, "velocity": 75}, {"time": 1970, "pitch": 42, "duration": 19, "velocity": 75}, {"time": 1970, "pitch": 58, "duration": 10, "velocity": 75}, {"time": 1970, "pitch": 61, "duration": 10, "velocity": 75}, {"time": 1970, "pitch": 66, "duration": 10, "velocity": 75}, {"time": 1976, "pitch": 49, "duration": 14, "velocity": 75}, {"time": 1982, "pitch": 58, "duration": 7, "velocity": 75}, {"time": 1982, "pitch": 61, "duration": 7, "velocity": 75}, {"time": 1982, "pitch": 66, "duration": 7, "velocity": 75}, {"time": 1988, "pitch": 54, "duration": 3, "velocity": 75}, {"time": 1994, "pitch": 47, "duration": 12, "velocity": 75}, {"time": 1994, "pitch": 63, "duration": 10, "velocity": 75}, {"time": 1994, "pitch": 66, "duration": 10, "velocity": 75}, {"time": 1994, "pitch": 71, "duration": 10, "velocity": 75}, {"time": 2000, "pitch": 54, "duration": 6, "velocity": 75}, {"time": 2006, "pitch": 46, "duration": 6, "velocity": 75}, {"time": 2006, "pitch": 58, "duration": 6, "velocity": 75}, {"time": 2006, "pitch": 61, "duration": 6, "velocity": 75}, {"time": 2006, "pitch": 66, "duration": 6, "velocity": 75}, {"time": 2018, "pitch": 44, "duration": 17, "velocity": 75}, {"time": 2018, "pitch": 59, "duration": 11, "velocity": 75}, {"time": 2018, "pitch": 63, "duration": 11, "velocity": 75}, {"time": 2018, "pitch": 68, "duration": 10, "velocity": 75}, {"time": 2024, "pitch": 51, "duration": 10, "velocity": 75}, {"time": 2030, "pitch": 59, "duration": 6, "velocity": 75}, {"time": 2030, "pitch": 63, "duration": 5, "velocity": 75}, {"time": 2030, "pitch": 68, "duration": 5, "velocity": 75}, {"time": 2042, "pitch": 40, "duration": 19, "velocity": 75}, {"time": 2042, "pitch": 56, "duration": 10, "velocity": 75}, {"time": 2042, "pitch": 59, "duration": 10, "velocity": 75}, {"time": 2042, "pitch": 64, "duration": 10, "velocity": 75}, {"time": 2048, "pitch": 47, "duration": 18, "velocity": 75}, {"time": 2054, "pitch": 56, "duration": 7, "velocity": 75}, {"time": 2054, "pitch": 59, "duration": 7, "velocity": 75}, {"time": 2054, "pitch": 64, "duration": 7, "velocity": 75}, {"time": 2060, "pitch": 52, "duration": 5, "velocity": 75}, {"time": 2066, "pitch": 42, "duration": 18, "velocity": 75}, {"time": 2066, "pitch": 58, "duration": 10, "velocity": 75}, {"time": 2066, "pitch": 61, "duration": 11, "velocity": 75}, {"time": 2066, "pitch": 66, "duration": 10, "velocity": 75}, {"time": 2072, "pitch": 49, "duration": 11, "velocity": 75}, {"time": 2078, "pitch": 58, "duration": 6, "velocity": 75}, {"time": 2078, "pitch": 61, "duration": 6, "velocity": 75}, {"time": 2078, "pitch": 66, "duration": 5, "velocity": 75}, {"time": 2090, "pitch": 51, "duration": 11, "velocity": 121}, {"time": 2090, "pitch": 54, "duration": 7, "velocity": 75}, {"time": 2090, "pitch": 58, "duration": 7, "velocity": 75}, {"time": 2090, "pitch": 63, "duration": 6, "velocity": 75}, {"time": 2102, "pitch": 39, "duration": 10, "velocity": 108}, {"time": 2102, "pitch": 54, "duration": 6, "velocity": 75}, {"time": 2102, "pitch": 58, "duration": 5, "velocity": 75}, {"time": 2102, "pitch": 63, "duration": 5, "velocity": 75}, {"time": 2114, "pitch": 44, "duration": 19, "velocity": 75}, {"time": 2114, "pitch": 59, "duration": 11, "velocity": 75}, {"time": 2114, "pitch": 63, "duration": 11, "velocity": 75}, {"time": 2114, "pitch": 68, "duration": 11, "velocity": 75}, {"time": 2126, "pitch": 59, "duration": 7, "velocity": 75}, {"time": 2126, "pitch": 63, "duration": 7, "velocity": 75}, {"time": 2126, "pitch": 68, "duration": 6, "velocity": 75}, {"time": 2138, "pitch": 40, "duration": 19, "velocity": 75}, {"time": 2138, "pitch": 56, "duration": 11, "velocity": 75}, {"time": 2138, "pitch": 59, "duration": 11, "velocity": 75}, {"time": 2138, "pitch": 64, "duration": 11, "velocity": 75}, {"time": 2144, "pitch": 47, "duration": 17, "velocity": 75}, {"time": 2150, "pitch": 56, "duration": 7, "velocity": 75}, {"time": 2150, "pitch": 59, "duration": 6, "velocity": 75}, {"time": 2150, "pitch": 64, "duration": 6, "velocity": 75}, {"time": 2156, "pitch": 52, "duration": 5, "velocity": 75}, {"time": 2162, "pitch": 42, "duration": 16, "velocity": 75}, {"time": 2162, "pitch": 58, "duration": 10, "velocity": 75}, {"time": 2162, "pitch": 61, "duration": 10, "velocity": 75}, {"time": 2162, "pitch": 66, "duration": 10, "velocity": 75}, {"time": 2168, "pitch": 49, "duration": 10, "velocity": 75}, {"time": 2174, "pitch": 58, "duration": 6, "velocity": 75}, {"time": 2174, "pitch": 61, "duration": 6, "velocity": 75}, {"time": 2174, "pitch": 66, "duration": 6, "velocity": 75}, {"time": 2183, "pitch": 66, "duration": 1, "velocity": 77}, {"time": 2186, "pitch": 47, "duration": 22, "velocity": 77}, {"time": 2186, "pitch": 63, "duration": 11, "velocity": 77}, {"time": 2186, "pitch": 66, "duration": 11, "velocity": 77}, {"time": 2186, "pitch": 71, "duration": 11, "velocity": 77}, {"time": 2192, "pitch": 54, "duration": 18, "velocity": 77}, {"time": 2198, "pitch": 63, "duration": 11, "velocity": 78}, {"time": 2198, "pitch": 66, "duration": 11, "velocity": 78}, {"time": 2198, "pitch": 71, "duration": 11, "velocity": 78}, {"time": 2210, "pitch": 45, "duration": 8, "velocity": 83}, {"time": 2210, "pitch": 57, "duration": 8, "velocity": 63}, {"time": 2210, "pitch": 61, "duration": 8, "velocity": 87}, {"time": 2210, "pitch": 64, "duration": 8, "velocity": 79}, {"time": 2222, "pitch": 42, "duration": 7, "velocity": 79}, {"time": 2222, "pitch": 58, "duration": 7, "velocity": 79}, {"time": 2222, "pitch": 61, "duration": 7, "velocity": 79}, {"time": 2222, "pitch": 66, "duration": 7, "velocity": 79}, {"time": 2234, "pitch": 40, "duration": 19, "velocity": 79}, {"time": 2234, "pitch": 56, "duration": 10, "velocity": 79}, {"time": 2234, "pitch": 59, "duration": 10, "velocity": 79}, {"time": 2234, "pitch": 64, "duration": 10, "velocity": 79}, {"time": 2240, "pitch": 47, "duration": 17, "velocity": 79}, {"time": 2246, "pitch": 56, "duration": 7, "velocity": 79}, {"time": 2246, "pitch": 59, "duration": 7, "velocity": 79}, {"time": 2246, "pitch": 64, "duration": 7, "velocity": 79}, {"time": 2252, "pitch": 52, "duration": 5, "velocity": 79}, {"time": 2258, "pitch": 42, "duration": 17, "velocity": 79}, {"time": 2258, "pitch": 58, "duration": 10, "velocity": 79}, {"time": 2258, "pitch": 61, "duration": 11, "velocity": 79}, {"time": 2258, "pitch": 66, "duration": 11, "velocity": 79}, {"time": 2264, "pitch": 49, "duration": 9, "velocity": 79}, {"time": 2270, "pitch": 58, "duration": 5, "velocity": 79}, {"time": 2270, "pitch": 61, "duration": 5, "velocity": 79}, {"time": 2270, "pitch": 66, "duration": 5, "velocity": 79}, {"time": 2282, "pitch": 35, "duration": 12, "velocity": 79}, {"time": 2282, "pitch": 51, "duration": 11, "velocity": 79}, {"time": 2282, "pitch": 54, "duration": 11, "velocity": 79}, {"time": 2282, "pitch": 59, "duration": 11, "velocity": 79}, {"time": 2288, "pitch": 42, "duration": 6, "velocity": 79}, {"time": 2294, "pitch": 46, "duration": 6, "velocity": 79}, {"time": 2294, "pitch": 54, "duration": 6, "velocity": 79}, {"time": 2294, "pitch": 61, "duration": 6, "velocity": 79}, {"time": 2294, "pitch": 66, "duration": 6, "velocity": 79}, {"time": 2306, "pitch": 44, "duration": 19, "velocity": 79}, {"time": 2306, "pitch": 59, "duration": 10, "velocity": 79}, {"time": 2306, "pitch": 63, "duration": 11, "velocity": 79}, {"time": 2306, "pitch": 68, "duration": 10, "velocity": 79}, {"time": 2312, "pitch": 51, "duration": 13, "velocity": 79}, {"time": 2318, "pitch": 59, "duration": 7, "velocity": 79}, {"time": 2318, "pitch": 63, "duration": 7, "velocity": 79}, {"time": 2318, "pitch": 68, "duration": 7, "velocity": 79}, {"time": 2330, "pitch": 37, "duration": 18, "velocity": 79}, {"time": 2330, "pitch": 52, "duration": 10, "velocity": 79}, {"time": 2330, "pitch": 56, "duration": 10, "velocity": 79}, {"time": 2330, "pitch": 61, "duration": 10, "velocity": 79}, {"time": 2336, "pitch": 44, "duration": 12, "velocity": 79}, {"time": 2342, "pitch": 52, "duration": 6, "velocity": 79}, {"time": 2342, "pitch": 56, "duration": 6, "velocity": 79}, {"time": 2342, "pitch": 61, "duration": 6, "velocity": 79}, {"time": 2354, "pitch": 42, "duration": 20, "velocity": 79}, {"time": 2354, "pitch": 58, "duration": 10, "velocity": 79}, {"time": 2354, "pitch": 61, "duration": 10, "velocity": 79}, {"time": 2354, "pitch": 66, "duration": 10, "velocity": 79}, {"time": 2360, "pitch": 49, "duration": 13, "velocity": 79}, {"time": 2366, "pitch": 58, "duration": 7, "velocity": 79}, {"time": 2366, "pitch": 61, "duration": 7, "velocity": 79}, {"time": 2366, "pitch": 66, "duration": 7, "velocity": 79}, {"time": 2378, "pitch": 47, "duration": 6, "velocity": 79}, {"time": 2378, "pitch": 63, "duration": 6, "velocity": 79}, {"time": 2378, "pitch": 66, "duration": 6, "velocity": 79}, {"time": 2378, "pitch": 71, "duration": 5, "velocity": 79}, {"time": 2390, "pitch": 46, "duration": 7, "velocity": 79}, {"time": 2390, "pitch": 61, "duration": 7, "velocity": 79}, {"time": 2390, "pitch": 66, "duration": 6, "velocity": 79}, {"time": 2402, "pitch": 44, "duration": 20, "velocity": 79}, {"time": 2402, "pitch": 59, "duration": 10, "velocity": 79}, {"time": 2402, "pitch": 63, "duration": 10, "velocity": 79}, {"time": 2402, "pitch": 68, "duration": 10, "velocity": 79}, {"time": 2408, "pitch": 51, "duration": 13, "velocity": 79}, {"time": 2414, "pitch": 59, "duration": 7, "velocity": 79}, {"time": 2414, "pitch": 63, "duration": 7, "velocity": 79}, {"time": 2414, "pitch": 68, "duration": 7, "velocity": 79}, {"time": 2426, "pitch": 40, "duration": 19, "velocity": 79}, {"time": 2426, "pitch": 56, "duration": 10, "velocity": 79}, {"time": 2426, "pitch": 59, "duration": 10, "velocity": 79}, {"time": 2426, "pitch": 64, "duration": 10, "velocity": 79}, {"time": 2432, "pitch": 47, "duration": 18, "velocity": 79}, {"time": 2438, "pitch": 56, "duration": 7, "velocity": 79}, {"time": 2438, "pitch": 59, "duration": 7, "velocity": 79}, {"time": 2438, "pitch": 64, "duration": 6, "velocity": 79}, {"time": 2444, "pitch": 52, "duration": 5, "velocity": 79}, {"time": 2450, "pitch": 42, "duration": 17, "velocity": 80}, {"time": 2450, "pitch": 58, "duration": 11, "velocity": 80}, {"time": 2450, "pitch": 61, "duration": 11, "velocity": 80}, {"time": 2450, "pitch": 66, "duration": 11, "velocity": 80}, {"time": 2456, "pitch": 49, "duration": 10, "velocity": 80}, {"time": 2462, "pitch": 58, "duration": 5, "velocity": 80}, {"time": 2462, "pitch": 61, "duration": 5, "velocity": 80}, {"time": 2462, "pitch": 66, "duration": 5, "velocity": 80}, {"time": 2474, "pitch": 47, "duration": 10, "velocity": 80}, {"time": 2474, "pitch": 63, "duration": 9, "velocity": 80}, {"time": 2474, "pitch": 66, "duration": 9, "velocity": 80}, {"time": 2474, "pitch": 71, "duration": 8, "velocity": 80}, {"time": 2486, "pitch": 46, "duration": 8, "velocity": 80}, {"time": 2486, "pitch": 61, "duration": 8, "velocity": 80}, {"time": 2498, "pitch": 44, "duration": 25, "velocity": 82}, {"time": 2498, "pitch": 59, "duration": 11, "velocity": 82}, {"time": 2498, "pitch": 63, "duration": 11, "velocity": 82}, {"time": 2498, "pitch": 68, "duration": 8, "velocity": 82}, {"time": 2504, "pitch": 51, "duration": 19, "velocity": 82}, {"time": 2510, "pitch": 59, "duration": 11, "velocity": 82}, {"time": 2510, "pitch": 63, "duration": 11, "velocity": 82}, {"time": 2510, "pitch": 68, "duration": 11, "velocity": 82}, {"time": 2522, "pitch": 40, "duration": 19, "velocity": 82}, {"time": 2522, "pitch": 56, "duration": 11, "velocity": 82}, {"time": 2522, "pitch": 59, "duration": 11, "velocity": 82}, {"time": 2522, "pitch": 64, "duration": 10, "velocity": 82}, {"time": 2528, "pitch": 47, "duration": 17, "velocity": 82}, {"time": 2534, "pitch": 56, "duration": 6, "velocity": 82}, {"time": 2534, "pitch": 59, "duration": 6, "velocity": 82}, {"time": 2534, "pitch": 64, "duration": 6, "velocity": 82}, {"time": 2540, "pitch": 52, "duration": 5, "velocity": 82}, {"time": 2546, "pitch": 42, "duration": 17, "velocity": 82}, {"time": 2546, "pitch": 58, "duration": 10, "velocity": 82}, {"time": 2546, "pitch": 61, "duration": 10, "velocity": 82}, {"time": 2546, "pitch": 66, "duration": 10, "velocity": 82}, {"time": 2552, "pitch": 49, "duration": 12, "velocity": 82}, {"time": 2558, "pitch": 54, "duration": 11, "velocity": 82}, {"time": 2558, "pitch": 58, "duration": 6, "velocity": 82}, {"time": 2558, "pitch": 61, "duration": 6, "velocity": 82}, {"time": 2558, "pitch": 66, "duration": 6, "velocity": 82}, {"time": 2570, "pitch": 47, "duration": 35, "velocity": 82}, {"time": 2570, "pitch": 63, "duration": 11, "velocity": 82}, {"time": 2570, "pitch": 66, "duration": 11, "velocity": 82}, {"time": 2570, "pitch": 71, "duration": 11, "velocity": 82}, {"time": 2576, "pitch": 54, "duration": 29, "velocity": 82}, {"time": 2582, "pitch": 59, "duration": 2, "velocity": 82}, {"time": 2582, "pitch": 63, "duration": 10, "velocity": 82}, {"time": 2582, "pitch": 66, "duration": 11, "velocity": 82}, {"time": 2582, "pitch": 71, "duration": 10, "velocity": 82}, {"time": 2588, "pitch": 59, "duration": 16, "velocity": 82}, {"time": 2594, "pitch": 63, "duration": 10, "velocity": 82}, {"time": 2594, "pitch": 66, "duration": 10, "velocity": 82}, {"time": 2594, "pitch": 71, "duration": 10, "velocity": 82}, {"time": 2606, "pitch": 59, "duration": 8, "velocity": 82}, {"time": 2606, "pitch": 63, "duration": 8, "velocity": 82}, {"time": 2606, "pitch": 68, "duration": 7, "velocity": 82}, {"time": 2618, "pitch": 40, "duration": 8, "velocity": 82}, {"time": 2618, "pitch": 56, "duration": 7, "velocity": 82}, {"time": 2618, "pitch": 59, "duration": 7, "velocity": 82}, {"time": 2618, "pitch": 64, "duration": 7, "velocity": 82}, {"time": 2624, "pitch": 47, "duration": 6, "velocity": 82}, {"time": 2630, "pitch": 42, "duration": 7, "velocity": 82}, {"time": 2630, "pitch": 58, "duration": 7, "velocity": 82}, {"time": 2630, "pitch": 61, "duration": 7, "velocity": 82}, {"time": 2630, "pitch": 66, "duration": 7, "velocity": 82}, {"time": 2636, "pitch": 49, "duration": 6, "velocity": 82}, {"time": 2642, "pitch": 44, "duration": 17, "velocity": 82}, {"time": 2642, "pitch": 59, "duration": 10, "velocity": 82}, {"time": 2642, "pitch": 63, "duration": 10, "velocity": 82}, {"time": 2642, "pitch": 68, "duration": 10, "velocity": 82}, {"time": 2648, "pitch": 51, "duration": 11, "velocity": 82}, {"time": 2648, "pitch": 56, "duration": 10, "velocity": 82}, {"time": 2654, "pitch": 59, "duration": 5, "velocity": 82}, {"time": 2654, "pitch": 63, "duration": 5, "velocity": 82}, {"time": 2654, "pitch": 68, "duration": 5, "velocity": 82}, {"time": 2666, "pitch": 40, "duration": 7, "velocity": 82}, {"time": 2666, "pitch": 56, "duration": 7, "velocity": 82}, {"time": 2666, "pitch": 59, "duration": 7, "velocity": 82}, {"time": 2666, "pitch": 64, "duration": 7, "velocity": 82}, {"time": 2678, "pitch": 42, "duration": 5, "velocity": 82}, {"time": 2678, "pitch": 58, "duration": 6, "velocity": 82}, {"time": 2678, "pitch": 61, "duration": 6, "velocity": 82}, {"time": 2678, "pitch": 66, "duration": 6, "velocity": 82}, {"time": 2690, "pitch": 47, "duration": 18, "velocity": 82}, {"time": 2690, "pitch": 63, "duration": 10, "velocity": 82}, {"time": 2690, "pitch": 66, "duration": 10, "velocity": 82}, {"time": 2690, "pitch": 71, "duration": 10, "velocity": 82}, {"time": 2696, "pitch": 54, "duration": 17, "velocity": 82}, {"time": 2702, "pitch": 63, "duration": 7, "velocity": 82}, {"time": 2702, "pitch": 66, "duration": 7, "velocity": 82}, {"time": 2702, "pitch": 71, "duration": 7, "velocity": 82}, {"time": 2708, "pitch": 59, "duration": 5, "velocity": 83}, {"time": 2714, "pitch": 49, "duration": 18, "velocity": 83}, {"time": 2714, "pitch": 64, "duration": 10, "velocity": 83}, {"time": 2714, "pitch": 68, "duration": 10, "velocity": 83}, {"time": 2714, "pitch": 73, "duration": 10, "velocity": 83}, {"time": 2720, "pitch": 56, "duration": 11, "velocity": 83}, {"time": 2726, "pitch": 64, "duration": 7, "velocity": 83}, {"time": 2726, "pitch": 68, "duration": 6, "velocity": 83}, {"time": 2726, "pitch": 73, "duration": 6, "velocity": 83}, {"time": 2738, "pitch": 39, "duration": 18, "velocity": 84}, {"time": 2738, "pitch": 54, "duration": 10, "velocity": 84}, {"time": 2738, "pitch": 58, "duration": 10, "velocity": 84}, {"time": 2738, "pitch": 63, "duration": 10, "velocity": 84}, {"time": 2744, "pitch": 46, "duration": 12, "velocity": 84}, {"time": 2750, "pitch": 54, "duration": 7, "velocity": 84}, {"time": 2750, "pitch": 58, "duration": 7, "velocity": 84}, {"time": 2750, "pitch": 63, "duration": 6, "velocity": 84}, {"time": 2756, "pitch": 51, "duration": 6, "velocity": 84}, {"time": 2762, "pitch": 42, "duration": 19, "velocity": 84}, {"time": 2762, "pitch": 58, "duration": 10, "velocity": 84}, {"time": 2762, "pitch": 61, "duration": 10, "velocity": 84}, {"time": 2762, "pitch": 66, "duration": 10, "velocity": 84}, {"time": 2768, "pitch": 49, "duration": 16, "velocity": 84}, {"time": 2774, "pitch": 58, "duration": 7, "velocity": 84}, {"time": 2774, "pitch": 61, "duration": 7, "velocity": 84}, {"time": 2774, "pitch": 66, "duration": 7, "velocity": 84}, {"time": 2780, "pitch": 54, "duration": 5, "velocity": 84}, {"time": 2786, "pitch": 44, "duration": 19, "velocity": 84}, {"time": 2786, "pitch": 59, "duration": 11, "velocity": 84}, {"time": 2786, "pitch": 63, "duration": 11, "velocity": 84}, {"time": 2786, "pitch": 68, "duration": 11, "velocity": 84}, {"time": 2792, "pitch": 51, "duration": 12, "velocity": 84}, {"time": 2798, "pitch": 59, "duration": 7, "velocity": 84}, {"time": 2798, "pitch": 63, "duration": 7, "velocity": 84}, {"time": 2798, "pitch": 68, "duration": 6, "velocity": 84}, {"time": 2810, "pitch": 44, "duration": 1, "velocity": 85}, {"time": 2810, "pitch": 59, "duration": 1, "velocity": 85}, {"time": 2810, "pitch": 63, "duration": 1, "velocity": 85}, {"time": 2810, "pitch": 68, "duration": 1, "velocity": 85}, {"time": 2813, "pitch": 44, "duration": 2, "velocity": 85}, {"time": 2813, "pitch": 59, "duration": 2, "velocity": 85}, {"time": 2813, "pitch": 63, "duration": 2, "velocity": 85}, {"time": 2813, "pitch": 68, "duration": 2, "velocity": 85}, {"time": 2834, "pitch": 40, "duration": 22, "velocity": 86}, {"time": 2834, "pitch": 56, "duration": 4, "velocity": 86}, {"time": 2834, "pitch": 59, "duration": 4, "velocity": 86}, {"time": 2834, "pitch": 64, "duration": 4, "velocity": 86}, {"time": 2840, "pitch": 56, "duration": 11, "velocity": 79}, {"time": 2840, "pitch": 59, "duration": 11, "velocity": 79}, {"time": 2840, "pitch": 64, "duration": 11, "velocity": 79}, {"time": 2846, "pitch": 47, "duration": 13, "velocity": 81}, {"time": 2846, "pitch": 52, "duration": 8, "velocity": 81}, {"time": 2852, "pitch": 56, "duration": 3, "velocity": 81}, {"time": 2852, "pitch": 59, "duration": 3, "velocity": 81}, {"time": 2852, "pitch": 64, "duration": 3, "velocity": 81}, {"time": 2858, "pitch": 42, "duration": 17, "velocity": 81}, {"time": 2858, "pitch": 58, "duration": 10, "velocity": 81}, {"time": 2858, "pitch": 61, "duration": 10, "velocity": 81}, {"time": 2858, "pitch": 66, "duration": 10, "velocity": 81}, {"time": 2864, "pitch": 49, "duration": 9, "velocity": 81}, {"time": 2870, "pitch": 58, "duration": 6, "velocity": 81}, {"time": 2870, "pitch": 61, "duration": 6, "velocity": 81}, {"time": 2870, "pitch": 66, "duration": 5, "velocity": 81}, {"time": 2882, "pitch": 39, "duration": 18, "velocity": 81}, {"time": 2882, "pitch": 54, "duration": 11, "velocity": 81}, {"time": 2882, "pitch": 58, "duration": 11, "velocity": 81}, {"time": 2882, "pitch": 63, "duration": 10, "velocity": 81}, {"time": 2888, "pitch": 46, "duration": 13, "velocity": 81}, {"time": 2894, "pitch": 54, "duration": 6, "velocity": 81}, {"time": 2894, "pitch": 58, "duration": 6, "velocity": 81}, {"time": 2894, "pitch": 63, "duration": 6, "velocity": 81}, {"time": 2900, "pitch": 51, "duration": 6, "velocity": 81}, {"time": 2906, "pitch": 44, "duration": 1, "velocity": 81}, {"time": 2906, "pitch": 51, "duration": 1, "velocity": 81}, {"time": 2906, "pitch": 56, "duration": 1, "velocity": 81}, {"time": 2906, "pitch": 59, "duration": 1, "velocity": 81}, {"time": 2906, "pitch": 63, "duration": 1, "velocity": 81}, {"time": 2906, "pitch": 68, "duration": 1, "velocity": 81}, {"time": 2909, "pitch": 44, "duration": 1, "velocity": 81}, {"time": 2909, "pitch": 51, "duration": 2, "velocity": 81}, {"time": 2909, "pitch": 56, "duration": 1, "velocity": 81}, {"time": 2909, "pitch": 59, "duration": 1, "velocity": 81}, {"time": 2909, "pitch": 63, "duration": 1, "velocity": 81}, {"time": 2909, "pitch": 68, "duration": 1, "velocity": 81}, {"time": 2915, "pitch": 44, "duration": 1, "velocity": 81}, {"time": 2915, "pitch": 51, "duration": 1, "velocity": 81}, {"time": 2915, "pitch": 56, "duration": 1, "velocity": 81}, {"time": 2915, "pitch": 59, "duration": 1, "velocity": 81}, {"time": 2915, "pitch": 63, "duration": 1, "velocity": 81}, {"time": 2915, "pitch": 68, "duration": 1, "velocity": 81}, {"time": 2918, "pitch": 44, "duration": 1, "velocity": 81}, {"time": 2918, "pitch": 51, "duration": 1, "velocity": 81}, {"time": 2918, "pitch": 56, "duration": 1, "velocity": 81}, {"time": 2918, "pitch": 59, "duration": 1, "velocity": 81}, {"time": 2918, "pitch": 63, "duration": 1, "velocity": 81}, {"time": 2918, "pitch": 68, "duration": 1, "velocity": 81}, {"time": 2924, "pitch": 44, "duration": 1, "velocity": 81}, {"time": 2924, "pitch": 51, "duration": 1, "velocity": 81}, {"time": 2924, "pitch": 56, "duration": 1, "velocity": 81}, {"time": 2924, "pitch": 59, "duration": 1, "velocity": 81}, {"time": 2924, "pitch": 63, "duration": 1, "velocity": 81}, {"time": 2924, "pitch": 68, "duration": 1, "velocity": 81}, {"time": 2927, "pitch": 44, "duration": 2, "velocity": 81}, {"time": 2927, "pitch": 51, "duration": 2, "velocity": 81}, {"time": 2927, "pitch": 56, "duration": 2, "velocity": 81}, {"time": 2927, "pitch": 59, "duration": 2, "velocity": 81}, {"time": 2927, "pitch": 63, "duration": 2, "velocity": 81}, {"time": 2927, "pitch": 68, "duration": 2, "velocity": 81}, {"time": 2952, "pitch": 63, "duration": 51, "velocity": 80}, {"time": 2952, "pitch": 44, "duration": 52, "velocity": 80}, {"time": 2953, "pitch": 59, "duration": 51, "velocity": 80}, {"time": 2953, "pitch": 68, "duration": 51, "velocity": 80}, {"time": 2955, "pitch": 51, "duration": 49, "velocity": 80}, {"time": 2959, "pitch": 56, "duration": 44, "velocity": 80}], "annotations": [{"time": 38, "annotation": {"number": 64, "value": 83}, "group": "control_change"}, {"time": 110, "annotation": {"number": 64, "value": 84}, "group": "control_change"}, {"time": 158, "annotation": {"number": 64, "value": 86}, "group": "control_change"}, {"time": 194, "annotation": {"number": 64, "value": 89}, "group": "control_change"}, {"time": 278, "annotation": {"number": 64, "value": 90}, "group": "control_change"}, {"time": 374, "annotation": {"number": 64, "value": 91}, "group": "control_change"}, {"time": 446, "annotation": {"number": 64, "value": 92}, "group": "control_change"}, {"time": 506, "annotation": {"number": 64, "value": 91}, "group": "control_change"}, {"time": 530, "annotation": {"number": 64, "value": 76}, "group": "control_change"}, {"time": 542, "annotation": {"number": 64, "value": 78}, "group": "control_change"}, {"time": 578, "annotation": {"number": 64, "value": 79}, "group": "control_change"}, {"time": 590, "annotation": {"number": 64, "value": 78}, "group": "control_change"}, {"time": 614, "annotation": {"number": 64, "value": 76}, "group": "control_change"}, {"time": 626, "annotation": {"number": 64, "value": 74}, "group": "control_change"}, {"time": 638, "annotation": {"number": 64, "value": 73}, "group": "control_change"}, {"time": 650, "annotation": {"number": 64, "value": 72}, "group": "control_change"}, {"time": 662, "annotation": {"number": 64, "value": 70}, "group": "control_change"}, {"time": 674, "annotation": {"number": 64, "value": 69}, "group": "control_change"}, {"time": 698, "annotation": {"number": 64, "value": 70}, "group": "control_change"}, {"time": 710, "annotation": {"number": 64, "value": 72}, "group": "control_change"}, {"time": 722, "annotation": {"number": 64, "value": 73}, "group": "control_change"}, {"time": 746, "annotation": {"number": 64, "value": 74}, "group": "control_change"}, {"time": 770, "annotation": {"number": 64, "value": 75}, "group": "control_change"}, {"time": 782, "annotation": {"number": 64, "value": 78}, "group": "control_change"}, {"time": 794, "annotation": {"number": 64, "value": 79}, "group": "control_change"}, {"time": 806, "annotation": {"number": 64, "value": 89}, "group": "control_change"}, {"time": 818, "annotation": {"number": 64, "value": 90}, "group": "control_change"}, {"time": 830, "annotation": {"number": 64, "value": 90}, "group": "control_change"}, {"time": 842, "annotation": {"number": 64, "value": 89}, "group": "control_change"}, {"time": 854, "annotation": {"number": 64, "value": 85}, "group": "control_change"}, {"time": 866, "annotation": {"number": 64, "value": 84}, "group": "control_change"}, {"time": 890, "annotation": {"number": 64, "value": 83}, "group": "control_change"}, {"time": 902, "annotation": {"number": 64, "value": 85}, "group": "control_change"}, {"time": 926, "annotation": {"number": 64, "value": 84}, "group": "control_change"}, {"time": 950, "annotation": {"number": 64, "value": 83}, "group": "control_change"}, {"time": 986, "annotation": {"number": 64, "value": 81}, "group": "control_change"}, {"time": 1010, "annotation": {"number": 64, "value": 80}, "group": "control_change"}, {"time": 1022, "annotation": {"number": 64, "value": 79}, "group": "control_change"}, {"time": 1130, "annotation": {"number": 64, "value": 78}, "group": "control_change"}, {"time": 1142, "annotation": {"number": 64, "value": 75}, "group": "control_change"}, {"time": 1250, "annotation": {"number": 64, "value": 62}, "group": "control_change"}, {"time": 1262, "annotation": {"number": 64, "value": 59}, "group": "control_change"}, {"time": 1274, "annotation": {"number": 64, "value": 55}, "group": "control_change"}, {"time": 1286, "annotation": {"number": 64, "value": 53}, "group": "control_change"}, {"time": 1298, "annotation": {"number": 64, "value": 52}, "group": "control_change"}, {"time": 1310, "annotation": {"number": 64, "value": 49}, "group": "control_change"}, {"time": 1322, "annotation": {"number": 64, "value": 48}, "group": "control_change"}, {"time": 1334, "annotation": {"number": 64, "value": 44}, "group": "control_change"}, {"time": 1346, "annotation": {"number": 64, "value": 42}, "group": "control_change"}, {"time": 1358, "annotation": {"number": 64, "value": 39}, "group": "control_change"}, {"time": 1370, "annotation": {"number": 64, "value": 36}, "group": "control_change"}, {"time": 1382, "annotation": {"number": 64, "value": 37}, "group": "control_change"}, {"time": 1394, "annotation": {"number": 64, "value": 39}, "group": "control_change"}, {"time": 1406, "annotation": {"number": 64, "value": 38}, "group": "control_change"}, {"time": 1418, "annotation": {"number": 64, "value": 41}, "group": "control_change"}, {"time": 1430, "annotation": {"number": 64, "value": 90}, "group": "control_change"}, {"time": 1442, "annotation": {"number": 64, "value": 88}, "group": "control_change"}, {"time": 1454, "annotation": {"number": 64, "value": 86}, "group": "control_change"}, {"time": 1466, "annotation": {"number": 64, "value": 81}, "group": "control_change"}, {"time": 1478, "annotation": {"number": 64, "value": 80}, "group": "control_change"}, {"time": 1490, "annotation": {"number": 64, "value": 79}, "group": "control_change"}, {"time": 1502, "annotation": {"number": 64, "value": 80}, "group": "control_change"}, {"time": 1514, "annotation": {"number": 64, "value": 83}, "group": "control_change"}, {"time": 1526, "annotation": {"number": 64, "value": 80}, "group": "control_change"}, {"time": 1730, "annotation": {"number": 64, "value": 79}, "group": "control_change"}, {"time": 1790, "annotation": {"number": 64, "value": 78}, "group": "control_change"}, {"time": 1826, "annotation": {"number": 64, "value": 10}, "group": "control_change"}, {"time": 1838, "annotation": {"number": 64, "value": 9}, "group": "control_change"}, {"time": 1850, "annotation": {"number": 64, "value": 75}, "group": "control_change"}, {"time": 1862, "annotation": {"number": 64, "value": 74}, "group": "control_change"}, {"time": 1874, "annotation": {"number": 64, "value": 67}, "group": "control_change"}, {"time": 1886, "annotation": {"number": 64, "value": 72}, "group": "control_change"}, {"time": 1898, "annotation": {"number": 64, "value": 68}, "group": "control_change"}, {"time": 1994, "annotation": {"number": 64, "value": 76}, "group": "control_change"}, {"time": 2042, "annotation": {"number": 64, "value": 78}, "group": "control_change"}, {"time": 2054, "annotation": {"number": 64, "value": 79}, "group": "control_change"}, {"time": 2066, "annotation": {"number": 64, "value": 80}, "group": "control_change"}, {"time": 2162, "annotation": {"number": 64, "value": 81}, "group": "control_change"}, {"time": 2214, "annotation": {"number": 64, "value": 82}, "group": "control_change"}, {"time": 2266, "annotation": {"number": 64, "value": 83}, "group": "control_change"}, {"time": 2318, "annotation": {"number": 64, "value": 84}, "group": "control_change"}, {"time": 2354, "annotation": {"number": 64, "value": 85}, "group": "control_change"}, {"time": 2378, "annotation": {"number": 64, "value": 86}, "group": "control_change"}, {"time": 2402, "annotation": {"number": 64, "value": 88}, "group": "control_change"}, {"time": 2558, "annotation": {"number": 64, "value": 89}, "group": "control_change"}, {"time": 2666, "annotation": {"number": 64, "value": 88}, "group": "control_change"}, {"time": 2702, "annotation": {"number": 64, "value": 86}, "group": "control_change"}, {"time": 2762, "annotation": {"number": 64, "value": 87}, "group": "control_change"}, {"time": 2822, "annotation": {"number": 64, "value": 88}, "group": "control_change"}, {"time": 2846, "annotation": {"number": 64, "value": 89}, "group": "control_change"}, {"time": 2870, "annotation": {"number": 64, "value": 90}, "group": "control_change"}, {"time": 2894, "annotation": {"number": 64, "value": 91}, "group": "control_change"}, {"time": 2906, "annotation": {"number": 64, "value": 92}, "group": "control_change"}, {"time": 2930, "annotation": {"number": 64, "value": 94}, "group": "control_change"}, {"time": 2990, "annotation": {"number": 64, "value": 95}, "group": "control_change"}]}]}