{"metadata": {"schema_version": "0.2", "title": "None", "source_filename": "029.mid", "source_format": "midi"}, "resolution": 12, "tempos": [{"time": 0, "qpm": 110.00011000011}], "key_signatures": [{"time": 0, "root": 0, "mode": "major"}], "time_signatures": [{"time": 0, "numerator": 4, "denominator": 4}, {"time": 0, "numerator": 1, "denominator": 4}], "tracks": [{"program": 0, "is_drum": false, "name": "MELODY", "notes": [{"time": 612, "pitch": 74, "duration": 8, "velocity": 79}, {"time": 624, "pitch": 77, "duration": 2, "velocity": 79}, {"time": 630, "pitch": 72, "duration": 12, "velocity": 79}, {"time": 648, "pitch": 74, "duration": 3, "velocity": 79}, {"time": 654, "pitch": 70, "duration": 34, "velocity": 79}, {"time": 696, "pitch": 70, "duration": 3, "velocity": 79}, {"time": 702, "pitch": 69, "duration": 2, "velocity": 79}, {"time": 708, "pitch": 70, "duration": 11, "velocity": 79}, {"time": 726, "pitch": 65, "duration": 4, "velocity": 79}, {"time": 750, "pitch": 75, "duration": 2, "velocity": 78}, {"time": 756, "pitch": 74, "duration": 12, "velocity": 78}, {"time": 774, "pitch": 72, "duration": 25, "velocity": 78}, {"time": 804, "pitch": 74, "duration": 6, "velocity": 76}, {"time": 816, "pitch": 77, "duration": 3, "velocity": 76}, {"time": 822, "pitch": 72, "duration": 14, "velocity": 76}, {"time": 840, "pitch": 74, "duration": 5, "velocity": 75}, {"time": 846, "pitch": 70, "duration": 33, "velocity": 75}, {"time": 882, "pitch": 65, "duration": 6, "velocity": 75}, {"time": 888, "pitch": 70, "duration": 5, "velocity": 75}, {"time": 894, "pitch": 72, "duration": 4, "velocity": 75}, {"time": 900, "pitch": 70, "duration": 14, "velocity": 75}, {"time": 918, "pitch": 70, "duration": 12, "velocity": 75}, {"time": 936, "pitch": 69, "duration": 4, "velocity": 75}, {"time": 942, "pitch": 70, "duration": 40, "velocity": 75}, {"time": 996, "pitch": 74, "duration": 8, "velocity": 74}, {"time": 1008, "pitch": 77, "duration": 7, "velocity": 74}, {"time": 1014, "pitch": 72, "duration": 12, "velocity": 74}, {"time": 1032, "pitch": 77, "duration": 3, "velocity": 74}, {"time": 1038, "pitch": 70, "duration": 22, "velocity": 74}, {"time": 1080, "pitch": 70, "duration": 1, "velocity": 74}, {"time": 1086, "pitch": 70, "duration": 4, "velocity": 74}, {"time": 1092, "pitch": 79, "duration": 8, "velocity": 74}, {"time": 1104, "pitch": 79, "duration": 3, "velocity": 74}, {"time": 1110, "pitch": 79, "duration": 13, "velocity": 74}, {"time": 1128, "pitch": 77, "duration": 2, "velocity": 74}, {"time": 1134, "pitch": 74, "duration": 22, "velocity": 74}, {"time": 1188, "pitch": 74, "duration": 8, "velocity": 74}, {"time": 1200, "pitch": 77, "duration": 3, "velocity": 74}, {"time": 1206, "pitch": 72, "duration": 13, "velocity": 74}, {"time": 1224, "pitch": 74, "duration": 4, "velocity": 74}, {"time": 1230, "pitch": 70, "duration": 18, "velocity": 74}, {"time": 1254, "pitch": 70, "duration": 3, "velocity": 74}, {"time": 1257, "pitch": 72, "duration": 3, "velocity": 74}, {"time": 1260, "pitch": 75, "duration": 5, "velocity": 74}, {"time": 1266, "pitch": 74, "duration": 3, "velocity": 74}, {"time": 1272, "pitch": 72, "duration": 2, "velocity": 74}, {"time": 1278, "pitch": 65, "duration": 2, "velocity": 74}, {"time": 1284, "pitch": 67, "duration": 8, "velocity": 74}, {"time": 1296, "pitch": 70, "duration": 4, "velocity": 74}, {"time": 1302, "pitch": 69, "duration": 14, "velocity": 74}, {"time": 1320, "pitch": 70, "duration": 2, "velocity": 74}, {"time": 1326, "pitch": 70, "duration": 62, "velocity": 74}, {"time": 1404, "pitch": 74, "duration": 6, "velocity": 74}, {"time": 1410, "pitch": 77, "duration": 3, "velocity": 74}, {"time": 1416, "pitch": 82, "duration": 3, "velocity": 74}, {"time": 1422, "pitch": 81, "duration": 6, "velocity": 74}, {"time": 1428, "pitch": 82, "duration": 9, "velocity": 83}, {"time": 1440, "pitch": 77, "duration": 4, "velocity": 70}, {"time": 1446, "pitch": 79, "duration": 14, "velocity": 73}, {"time": 1464, "pitch": 77, "duration": 5, "velocity": 81}, {"time": 1470, "pitch": 74, "duration": 16, "velocity": 84}, {"time": 1494, "pitch": 74, "duration": 3, "velocity": 84}, {"time": 1500, "pitch": 75, "duration": 3, "velocity": 83}, {"time": 1506, "pitch": 74, "duration": 3, "velocity": 83}, {"time": 1512, "pitch": 72, "duration": 3, "velocity": 83}, {"time": 1518, "pitch": 70, "duration": 3, "velocity": 83}, {"time": 1524, "pitch": 70, "duration": 10, "velocity": 86}, {"time": 1536, "pitch": 77, "duration": 3, "velocity": 90}, {"time": 1542, "pitch": 77, "duration": 12, "velocity": 89}, {"time": 1560, "pitch": 72, "duration": 5, "velocity": 79}, {"time": 1566, "pitch": 74, "duration": 17, "velocity": 83}, {"time": 1596, "pitch": 74, "duration": 4, "velocity": 82}, {"time": 1602, "pitch": 77, "duration": 3, "velocity": 79}, {"time": 1608, "pitch": 82, "duration": 3, "velocity": 79}, {"time": 1614, "pitch": 81, "duration": 3, "velocity": 80}, {"time": 1620, "pitch": 82, "duration": 11, "velocity": 83}, {"time": 1632, "pitch": 77, "duration": 2, "velocity": 84}, {"time": 1638, "pitch": 79, "duration": 13, "velocity": 84}, {"time": 1656, "pitch": 77, "duration": 5, "velocity": 80}, {"time": 1662, "pitch": 74, "duration": 21, "velocity": 82}, {"time": 1686, "pitch": 74, "duration": 3, "velocity": 82}, {"time": 1692, "pitch": 75, "duration": 3, "velocity": 78}, {"time": 1698, "pitch": 74, "duration": 3, "velocity": 75}, {"time": 1704, "pitch": 72, "duration": 3, "velocity": 73}, {"time": 1710, "pitch": 70, "duration": 2, "velocity": 73}, {"time": 1716, "pitch": 70, "duration": 12, "velocity": 73}, {"time": 1740, "pitch": 69, "duration": 8, "velocity": 79}, {"time": 1752, "pitch": 70, "duration": 2, "velocity": 71}, {"time": 1758, "pitch": 70, "duration": 53, "velocity": 71}, {"time": 2244, "pitch": 62, "duration": 8, "velocity": 83}, {"time": 2256, "pitch": 65, "duration": 7, "velocity": 75}, {"time": 2262, "pitch": 60, "duration": 12, "velocity": 79}, {"time": 2280, "pitch": 62, "duration": 3, "velocity": 87}, {"time": 2286, "pitch": 58, "duration": 22, "velocity": 84}, {"time": 2322, "pitch": 58, "duration": 4, "velocity": 64}, {"time": 2328, "pitch": 60, "duration": 5, "velocity": 70}, {"time": 2334, "pitch": 58, "duration": 7, "velocity": 70}, {"time": 2340, "pitch": 67, "duration": 8, "velocity": 84}, {"time": 2352, "pitch": 67, "duration": 3, "velocity": 89}, {"time": 2358, "pitch": 67, "duration": 13, "velocity": 84}, {"time": 2376, "pitch": 65, "duration": 2, "velocity": 84}, {"time": 2382, "pitch": 62, "duration": 22, "velocity": 81}, {"time": 2436, "pitch": 62, "duration": 8, "velocity": 84}, {"time": 2448, "pitch": 65, "duration": 3, "velocity": 78}, {"time": 2454, "pitch": 60, "duration": 13, "velocity": 78}, {"time": 2472, "pitch": 62, "duration": 4, "velocity": 78}, {"time": 2478, "pitch": 58, "duration": 18, "velocity": 87}, {"time": 2502, "pitch": 58, "duration": 3, "velocity": 90}, {"time": 2505, "pitch": 60, "duration": 3, "velocity": 90}, {"time": 2508, "pitch": 63, "duration": 5, "velocity": 90}, {"time": 2514, "pitch": 62, "duration": 3, "velocity": 90}, {"time": 2520, "pitch": 60, "duration": 2, "velocity": 89}, {"time": 2526, "pitch": 58, "duration": 2, "velocity": 78}, {"time": 2532, "pitch": 55, "duration": 8, "velocity": 72}, {"time": 2544, "pitch": 58, "duration": 4, "velocity": 84}, {"time": 2550, "pitch": 57, "duration": 14, "velocity": 84}, {"time": 2568, "pitch": 58, "duration": 2, "velocity": 87}, {"time": 2574, "pitch": 58, "duration": 18, "velocity": 84}, {"time": 2604, "pitch": 62, "duration": 6, "velocity": 91}, {"time": 2610, "pitch": 65, "duration": 3, "velocity": 91}, {"time": 2616, "pitch": 70, "duration": 3, "velocity": 91}, {"time": 2622, "pitch": 69, "duration": 13, "velocity": 91}, {"time": 2640, "pitch": 65, "duration": 4, "velocity": 91}, {"time": 2646, "pitch": 67, "duration": 14, "velocity": 91}, {"time": 2664, "pitch": 65, "duration": 5, "velocity": 91}, {"time": 2670, "pitch": 62, "duration": 16, "velocity": 91}, {"time": 2694, "pitch": 62, "duration": 3, "velocity": 94}, {"time": 2700, "pitch": 63, "duration": 3, "velocity": 94}, {"time": 2706, "pitch": 62, "duration": 3, "velocity": 94}, {"time": 2712, "pitch": 60, "duration": 3, "velocity": 94}, {"time": 2718, "pitch": 58, "duration": 3, "velocity": 94}, {"time": 2724, "pitch": 58, "duration": 10, "velocity": 94}, {"time": 2736, "pitch": 65, "duration": 3, "velocity": 94}, {"time": 2742, "pitch": 65, "duration": 12, "velocity": 94}, {"time": 2760, "pitch": 60, "duration": 5, "velocity": 94}, {"time": 2766, "pitch": 62, "duration": 17, "velocity": 94}, {"time": 2796, "pitch": 62, "duration": 4, "velocity": 94}, {"time": 2802, "pitch": 65, "duration": 3, "velocity": 95}, {"time": 2808, "pitch": 70, "duration": 3, "velocity": 95}, {"time": 2814, "pitch": 69, "duration": 3, "velocity": 95}, {"time": 2820, "pitch": 70, "duration": 11, "velocity": 95}, {"time": 2832, "pitch": 65, "duration": 2, "velocity": 95}, {"time": 2838, "pitch": 67, "duration": 13, "velocity": 95}, {"time": 2856, "pitch": 65, "duration": 8, "velocity": 95}, {"time": 2862, "pitch": 62, "duration": 21, "velocity": 95}, {"time": 2886, "pitch": 62, "duration": 3, "velocity": 95}, {"time": 2892, "pitch": 63, "duration": 3, "velocity": 95}, {"time": 2898, "pitch": 62, "duration": 3, "velocity": 95}, {"time": 2904, "pitch": 60, "duration": 3, "velocity": 95}, {"time": 2910, "pitch": 58, "duration": 2, "velocity": 95}, {"time": 2916, "pitch": 58, "duration": 12, "velocity": 95}, {"time": 2940, "pitch": 57, "duration": 8, "velocity": 95}, {"time": 2952, "pitch": 58, "duration": 2, "velocity": 95}, {"time": 2958, "pitch": 58, "duration": 23, "velocity": 95}, {"time": 2988, "pitch": 62, "duration": 6, "velocity": 95}, {"time": 2994, "pitch": 65, "duration": 3, "velocity": 96}, {"time": 3000, "pitch": 70, "duration": 3, "velocity": 96}, {"time": 3006, "pitch": 69, "duration": 6, "velocity": 96}, {"time": 3012, "pitch": 70, "duration": 6, "velocity": 96}, {"time": 3024, "pitch": 65, "duration": 4, "velocity": 96}, {"time": 3030, "pitch": 67, "duration": 14, "velocity": 96}, {"time": 3048, "pitch": 65, "duration": 5, "velocity": 96}, {"time": 3054, "pitch": 62, "duration": 16, "velocity": 96}, {"time": 3078, "pitch": 62, "duration": 3, "velocity": 96}, {"time": 3084, "pitch": 63, "duration": 3, "velocity": 96}, {"time": 3090, "pitch": 62, "duration": 3, "velocity": 96}, {"time": 3096, "pitch": 60, "duration": 3, "velocity": 96}, {"time": 3102, "pitch": 58, "duration": 3, "velocity": 96}, {"time": 3108, "pitch": 58, "duration": 10, "velocity": 96}, {"time": 3120, "pitch": 65, "duration": 3, "velocity": 96}, {"time": 3126, "pitch": 65, "duration": 12, "velocity": 96}, {"time": 3144, "pitch": 67, "duration": 5, "velocity": 96}, {"time": 3150, "pitch": 65, "duration": 21, "velocity": 96}, {"time": 3180, "pitch": 62, "duration": 4, "velocity": 96}, {"time": 3186, "pitch": 65, "duration": 3, "velocity": 96}, {"time": 3192, "pitch": 70, "duration": 3, "velocity": 96}, {"time": 3198, "pitch": 69, "duration": 3, "velocity": 96}, {"time": 3204, "pitch": 70, "duration": 11, "velocity": 96}, {"time": 3216, "pitch": 72, "duration": 2, "velocity": 96}, {"time": 3222, "pitch": 72, "duration": 11, "velocity": 96}, {"time": 3240, "pitch": 74, "duration": 2, "velocity": 96}, {"time": 3246, "pitch": 74, "duration": 21, "velocity": 96}, {"time": 3270, "pitch": 74, "duration": 2, "velocity": 96}, {"time": 3276, "pitch": 75, "duration": 3, "velocity": 96}, {"time": 3282, "pitch": 74, "duration": 3, "velocity": 96}, {"time": 3288, "pitch": 72, "duration": 3, "velocity": 96}, {"time": 3294, "pitch": 70, "duration": 2, "velocity": 96}, {"time": 3300, "pitch": 70, "duration": 12, "velocity": 96}, {"time": 3312, "pitch": 70, "duration": 4, "velocity": 96}, {"time": 3318, "pitch": 69, "duration": 7, "velocity": 96}, {"time": 3336, "pitch": 70, "duration": 2, "velocity": 96}, {"time": 3342, "pitch": 70, "duration": 53, "velocity": 96}, {"time": 3948, "pitch": 74, "duration": 6, "velocity": 101}, {"time": 3954, "pitch": 77, "duration": 3, "velocity": 101}, {"time": 3960, "pitch": 82, "duration": 3, "velocity": 103}, {"time": 3966, "pitch": 81, "duration": 6, "velocity": 103}, {"time": 3972, "pitch": 82, "duration": 11, "velocity": 93}, {"time": 3984, "pitch": 77, "duration": 4, "velocity": 102}, {"time": 3990, "pitch": 79, "duration": 14, "velocity": 102}, {"time": 4008, "pitch": 77, "duration": 5, "velocity": 101}, {"time": 4014, "pitch": 74, "duration": 16, "velocity": 101}, {"time": 4038, "pitch": 74, "duration": 3, "velocity": 103}, {"time": 4044, "pitch": 75, "duration": 3, "velocity": 103}, {"time": 4050, "pitch": 74, "duration": 3, "velocity": 103}, {"time": 4056, "pitch": 72, "duration": 3, "velocity": 102}, {"time": 4062, "pitch": 70, "duration": 3, "velocity": 102}, {"time": 4068, "pitch": 70, "duration": 10, "velocity": 102}, {"time": 4080, "pitch": 77, "duration": 3, "velocity": 101}, {"time": 4086, "pitch": 77, "duration": 12, "velocity": 101}, {"time": 4104, "pitch": 72, "duration": 5, "velocity": 103}, {"time": 4110, "pitch": 74, "duration": 17, "velocity": 103}, {"time": 4140, "pitch": 74, "duration": 4, "velocity": 102}, {"time": 4146, "pitch": 77, "duration": 3, "velocity": 102}, {"time": 4152, "pitch": 82, "duration": 3, "velocity": 102}, {"time": 4158, "pitch": 81, "duration": 3, "velocity": 101}, {"time": 4164, "pitch": 82, "duration": 11, "velocity": 101}, {"time": 4176, "pitch": 77, "duration": 2, "velocity": 101}, {"time": 4182, "pitch": 79, "duration": 13, "velocity": 101}, {"time": 4200, "pitch": 77, "duration": 8, "velocity": 103}, {"time": 4206, "pitch": 74, "duration": 21, "velocity": 102}, {"time": 4230, "pitch": 74, "duration": 3, "velocity": 102}, {"time": 4236, "pitch": 75, "duration": 3, "velocity": 102}, {"time": 4242, "pitch": 74, "duration": 3, "velocity": 101}, {"time": 4248, "pitch": 72, "duration": 3, "velocity": 101}, {"time": 4254, "pitch": 70, "duration": 2, "velocity": 101}, {"time": 4260, "pitch": 70, "duration": 12, "velocity": 101}, {"time": 4284, "pitch": 69, "duration": 8, "velocity": 103}, {"time": 4296, "pitch": 70, "duration": 2, "velocity": 102}, {"time": 4302, "pitch": 70, "duration": 23, "velocity": 102}, {"time": 4332, "pitch": 74, "duration": 6, "velocity": 101}, {"time": 4338, "pitch": 77, "duration": 3, "velocity": 101}, {"time": 4344, "pitch": 82, "duration": 3, "velocity": 103}, {"time": 4350, "pitch": 81, "duration": 6, "velocity": 103}, {"time": 4356, "pitch": 82, "duration": 6, "velocity": 103}, {"time": 4368, "pitch": 77, "duration": 4, "velocity": 102}, {"time": 4374, "pitch": 79, "duration": 14, "velocity": 102}, {"time": 4392, "pitch": 77, "duration": 5, "velocity": 101}, {"time": 4398, "pitch": 74, "duration": 16, "velocity": 101}, {"time": 4422, "pitch": 74, "duration": 3, "velocity": 100}, {"time": 4428, "pitch": 75, "duration": 3, "velocity": 100}, {"time": 4434, "pitch": 74, "duration": 3, "velocity": 100}, {"time": 4440, "pitch": 72, "duration": 3, "velocity": 100}, {"time": 4446, "pitch": 70, "duration": 3, "velocity": 100}, {"time": 4452, "pitch": 70, "duration": 10, "velocity": 100}, {"time": 4464, "pitch": 77, "duration": 3, "velocity": 100}, {"time": 4470, "pitch": 77, "duration": 12, "velocity": 100}, {"time": 4488, "pitch": 79, "duration": 5, "velocity": 100}, {"time": 4494, "pitch": 77, "duration": 21, "velocity": 100}, {"time": 4524, "pitch": 74, "duration": 4, "velocity": 100}, {"time": 4530, "pitch": 77, "duration": 3, "velocity": 100}, {"time": 4536, "pitch": 82, "duration": 3, "velocity": 100}, {"time": 4542, "pitch": 81, "duration": 3, "velocity": 100}, {"time": 4548, "pitch": 82, "duration": 11, "velocity": 100}, {"time": 4560, "pitch": 84, "duration": 2, "velocity": 100}, {"time": 4566, "pitch": 84, "duration": 11, "velocity": 100}, {"time": 4584, "pitch": 86, "duration": 2, "velocity": 100}, {"time": 4590, "pitch": 86, "duration": 21, "velocity": 100}, {"time": 4614, "pitch": 74, "duration": 3, "velocity": 100}, {"time": 4620, "pitch": 75, "duration": 3, "velocity": 100}, {"time": 4626, "pitch": 74, "duration": 3, "velocity": 100}, {"time": 4632, "pitch": 72, "duration": 3, "velocity": 100}, {"time": 4638, "pitch": 70, "duration": 2, "velocity": 100}, {"time": 4644, "pitch": 70, "duration": 12, "velocity": 100}, {"time": 4656, "pitch": 70, "duration": 4, "velocity": 100}, {"time": 4662, "pitch": 69, "duration": 7, "velocity": 100}, {"time": 4680, "pitch": 70, "duration": 2, "velocity": 100}, {"time": 4686, "pitch": 70, "duration": 53, "velocity": 100}], "annotations": [{"time": 12, "annotation": {"number": 64, "value": 80}, "group": "control_change"}, {"time": 60, "annotation": {"number": 64, "value": 79}, "group": "control_change"}, {"time": 96, "annotation": {"number": 64, "value": 78}, "group": "control_change"}, {"time": 132, "annotation": {"number": 64, "value": 76}, "group": "control_change"}, {"time": 168, "annotation": {"number": 64, "value": 74}, "group": "control_change"}, {"time": 216, "annotation": {"number": 64, "value": 72}, "group": "control_change"}, {"time": 252, "annotation": {"number": 64, "value": 73}, "group": "control_change"}, {"time": 372, "annotation": {"number": 64, "value": 74}, "group": "control_change"}, {"time": 432, "annotation": {"number": 64, "value": 75}, "group": "control_change"}]}, {"program": 0, "is_drum": false, "name": "PIANO", "notes": [{"time": 228, "pitch": 39, "duration": 17, "velocity": 80}, {"time": 234, "pitch": 46, "duration": 18, "velocity": 80}, {"time": 240, "pitch": 51, "duration": 13, "velocity": 80}, {"time": 246, "pitch": 55, "duration": 8, "velocity": 79}, {"time": 252, "pitch": 41, "duration": 17, "velocity": 79}, {"time": 258, "pitch": 48, "duration": 18, "velocity": 79}, {"time": 264, "pitch": 53, "duration": 12, "velocity": 79}, {"time": 270, "pitch": 57, "duration": 8, "velocity": 79}, {"time": 276, "pitch": 43, "duration": 39, "velocity": 79}, {"time": 282, "pitch": 50, "duration": 31, "velocity": 79}, {"time": 288, "pitch": 55, "duration": 15, "velocity": 79}, {"time": 294, "pitch": 58, "duration": 31, "velocity": 79}, {"time": 306, "pitch": 55, "duration": 7, "velocity": 79}, {"time": 324, "pitch": 39, "duration": 16, "velocity": 79}, {"time": 330, "pitch": 46, "duration": 18, "velocity": 79}, {"time": 336, "pitch": 51, "duration": 11, "velocity": 79}, {"time": 342, "pitch": 55, "duration": 8, "velocity": 79}, {"time": 348, "pitch": 41, "duration": 18, "velocity": 79}, {"time": 354, "pitch": 48, "duration": 16, "velocity": 79}, {"time": 360, "pitch": 53, "duration": 10, "velocity": 79}, {"time": 366, "pitch": 57, "duration": 8, "velocity": 79}, {"time": 372, "pitch": 46, "duration": 42, "velocity": 79}, {"time": 378, "pitch": 53, "duration": 42, "velocity": 79}, {"time": 378, "pitch": 65, "duration": 6, "velocity": 75}, {"time": 384, "pitch": 58, "duration": 36, "velocity": 79}, {"time": 384, "pitch": 63, "duration": 12, "velocity": 79}, {"time": 396, "pitch": 62, "duration": 21, "velocity": 79}, {"time": 420, "pitch": 39, "duration": 17, "velocity": 78}, {"time": 426, "pitch": 46, "duration": 18, "velocity": 78}, {"time": 432, "pitch": 51, "duration": 12, "velocity": 78}, {"time": 438, "pitch": 55, "duration": 7, "velocity": 78}, {"time": 444, "pitch": 41, "duration": 19, "velocity": 78}, {"time": 450, "pitch": 48, "duration": 19, "velocity": 78}, {"time": 456, "pitch": 53, "duration": 12, "velocity": 78}, {"time": 462, "pitch": 57, "duration": 7, "velocity": 78}, {"time": 468, "pitch": 43, "duration": 36, "velocity": 78}, {"time": 474, "pitch": 50, "duration": 27, "velocity": 78}, {"time": 480, "pitch": 55, "duration": 21, "velocity": 78}, {"time": 486, "pitch": 58, "duration": 26, "velocity": 77}, {"time": 516, "pitch": 39, "duration": 48, "velocity": 76}, {"time": 522, "pitch": 46, "duration": 43, "velocity": 76}, {"time": 528, "pitch": 51, "duration": 13, "velocity": 76}, {"time": 534, "pitch": 55, "duration": 12, "velocity": 76}, {"time": 540, "pitch": 58, "duration": 25, "velocity": 76}, {"time": 546, "pitch": 51, "duration": 18, "velocity": 76}, {"time": 564, "pitch": 41, "duration": 48, "velocity": 78}, {"time": 570, "pitch": 48, "duration": 36, "velocity": 78}, {"time": 576, "pitch": 53, "duration": 33, "velocity": 78}, {"time": 582, "pitch": 57, "duration": 25, "velocity": 77}, {"time": 594, "pitch": 58, "duration": 11, "velocity": 76}, {"time": 606, "pitch": 60, "duration": 6, "velocity": 76}, {"time": 612, "pitch": 46, "duration": 20, "velocity": 76}, {"time": 618, "pitch": 53, "duration": 17, "velocity": 75}, {"time": 624, "pitch": 62, "duration": 7, "velocity": 73}, {"time": 630, "pitch": 58, "duration": 4, "velocity": 75}, {"time": 630, "pitch": 65, "duration": 8, "velocity": 75}, {"time": 636, "pitch": 45, "duration": 18, "velocity": 78}, {"time": 642, "pitch": 48, "duration": 12, "velocity": 78}, {"time": 648, "pitch": 53, "duration": 6, "velocity": 78}, {"time": 648, "pitch": 60, "duration": 7, "velocity": 78}, {"time": 654, "pitch": 65, "duration": 5, "velocity": 78}, {"time": 660, "pitch": 43, "duration": 39, "velocity": 78}, {"time": 666, "pitch": 50, "duration": 26, "velocity": 78}, {"time": 672, "pitch": 58, "duration": 4, "velocity": 78}, {"time": 678, "pitch": 62, "duration": 19, "velocity": 78}, {"time": 696, "pitch": 58, "duration": 12, "velocity": 78}, {"time": 708, "pitch": 39, "duration": 17, "velocity": 77}, {"time": 714, "pitch": 46, "duration": 21, "velocity": 76}, {"time": 720, "pitch": 51, "duration": 10, "velocity": 76}, {"time": 726, "pitch": 55, "duration": 28, "velocity": 76}, {"time": 738, "pitch": 39, "duration": 14, "velocity": 75}, {"time": 744, "pitch": 46, "duration": 13, "velocity": 75}, {"time": 750, "pitch": 58, "duration": 5, "velocity": 74}, {"time": 750, "pitch": 60, "duration": 5, "velocity": 74}, {"time": 756, "pitch": 41, "duration": 31, "velocity": 74}, {"time": 762, "pitch": 48, "duration": 27, "velocity": 74}, {"time": 768, "pitch": 53, "duration": 9, "velocity": 74}, {"time": 774, "pitch": 57, "duration": 19, "velocity": 74}, {"time": 786, "pitch": 53, "duration": 16, "velocity": 74}, {"time": 792, "pitch": 62, "duration": 14, "velocity": 74}, {"time": 804, "pitch": 46, "duration": 20, "velocity": 74}, {"time": 810, "pitch": 53, "duration": 12, "velocity": 74}, {"time": 816, "pitch": 58, "duration": 6, "velocity": 74}, {"time": 822, "pitch": 62, "duration": 6, "velocity": 74}, {"time": 828, "pitch": 45, "duration": 24, "velocity": 74}, {"time": 834, "pitch": 48, "duration": 16, "velocity": 74}, {"time": 840, "pitch": 53, "duration": 12, "velocity": 74}, {"time": 840, "pitch": 60, "duration": 7, "velocity": 74}, {"time": 846, "pitch": 65, "duration": 2, "velocity": 74}, {"time": 852, "pitch": 43, "duration": 37, "velocity": 74}, {"time": 858, "pitch": 50, "duration": 20, "velocity": 74}, {"time": 864, "pitch": 58, "duration": 8, "velocity": 74}, {"time": 870, "pitch": 62, "duration": 13, "velocity": 74}, {"time": 882, "pitch": 58, "duration": 14, "velocity": 74}, {"time": 894, "pitch": 62, "duration": 7, "velocity": 74}, {"time": 900, "pitch": 39, "duration": 21, "velocity": 74}, {"time": 906, "pitch": 46, "duration": 12, "velocity": 74}, {"time": 912, "pitch": 51, "duration": 7, "velocity": 74}, {"time": 918, "pitch": 55, "duration": 13, "velocity": 74}, {"time": 918, "pitch": 58, "duration": 13, "velocity": 74}, {"time": 924, "pitch": 41, "duration": 18, "velocity": 74}, {"time": 930, "pitch": 48, "duration": 14, "velocity": 74}, {"time": 936, "pitch": 53, "duration": 7, "velocity": 74}, {"time": 942, "pitch": 57, "duration": 6, "velocity": 74}, {"time": 948, "pitch": 46, "duration": 42, "velocity": 74}, {"time": 954, "pitch": 53, "duration": 42, "velocity": 74}, {"time": 960, "pitch": 58, "duration": 30, "velocity": 74}, {"time": 966, "pitch": 62, "duration": 29, "velocity": 74}, {"time": 966, "pitch": 65, "duration": 29, "velocity": 74}, {"time": 996, "pitch": 46, "duration": 19, "velocity": 74}, {"time": 1002, "pitch": 53, "duration": 15, "velocity": 74}, {"time": 1008, "pitch": 62, "duration": 7, "velocity": 74}, {"time": 1014, "pitch": 62, "duration": 1, "velocity": 74}, {"time": 1014, "pitch": 65, "duration": 6, "velocity": 74}, {"time": 1020, "pitch": 45, "duration": 13, "velocity": 74}, {"time": 1026, "pitch": 48, "duration": 8, "velocity": 74}, {"time": 1026, "pitch": 60, "duration": 7, "velocity": 74}, {"time": 1032, "pitch": 53, "duration": 8, "velocity": 74}, {"time": 1032, "pitch": 65, "duration": 7, "velocity": 74}, {"time": 1044, "pitch": 43, "duration": 22, "velocity": 74}, {"time": 1050, "pitch": 50, "duration": 16, "velocity": 74}, {"time": 1056, "pitch": 55, "duration": 10, "velocity": 74}, {"time": 1056, "pitch": 58, "duration": 7, "velocity": 74}, {"time": 1062, "pitch": 62, "duration": 21, "velocity": 74}, {"time": 1068, "pitch": 41, "duration": 16, "velocity": 74}, {"time": 1074, "pitch": 48, "duration": 11, "velocity": 74}, {"time": 1080, "pitch": 57, "duration": 6, "velocity": 74}, {"time": 1086, "pitch": 60, "duration": 7, "velocity": 74}, {"time": 1092, "pitch": 39, "duration": 21, "velocity": 74}, {"time": 1098, "pitch": 46, "duration": 9, "velocity": 74}, {"time": 1104, "pitch": 51, "duration": 12, "velocity": 74}, {"time": 1110, "pitch": 55, "duration": 14, "velocity": 74}, {"time": 1116, "pitch": 41, "duration": 15, "velocity": 74}, {"time": 1122, "pitch": 48, "duration": 11, "velocity": 74}, {"time": 1128, "pitch": 57, "duration": 7, "velocity": 74}, {"time": 1134, "pitch": 60, "duration": 7, "velocity": 74}, {"time": 1140, "pitch": 46, "duration": 42, "velocity": 74}, {"time": 1146, "pitch": 53, "duration": 35, "velocity": 74}, {"time": 1152, "pitch": 58, "duration": 25, "velocity": 74}, {"time": 1158, "pitch": 62, "duration": 13, "velocity": 74}, {"time": 1158, "pitch": 65, "duration": 14, "velocity": 74}, {"time": 1176, "pitch": 62, "duration": 18, "velocity": 74}, {"time": 1176, "pitch": 65, "duration": 17, "velocity": 74}, {"time": 1188, "pitch": 46, "duration": 20, "velocity": 74}, {"time": 1194, "pitch": 53, "duration": 13, "velocity": 74}, {"time": 1206, "pitch": 62, "duration": 8, "velocity": 74}, {"time": 1212, "pitch": 45, "duration": 24, "velocity": 75}, {"time": 1218, "pitch": 48, "duration": 17, "velocity": 75}, {"time": 1224, "pitch": 60, "duration": 4, "velocity": 75}, {"time": 1230, "pitch": 65, "duration": 6, "velocity": 75}, {"time": 1236, "pitch": 43, "duration": 38, "velocity": 75}, {"time": 1242, "pitch": 50, "duration": 31, "velocity": 75}, {"time": 1248, "pitch": 55, "duration": 24, "velocity": 75}, {"time": 1254, "pitch": 58, "duration": 15, "velocity": 75}, {"time": 1254, "pitch": 62, "duration": 15, "velocity": 75}, {"time": 1272, "pitch": 58, "duration": 12, "velocity": 76}, {"time": 1272, "pitch": 62, "duration": 12, "velocity": 76}, {"time": 1284, "pitch": 39, "duration": 14, "velocity": 76}, {"time": 1290, "pitch": 46, "duration": 14, "velocity": 77}, {"time": 1296, "pitch": 55, "duration": 2, "velocity": 78}, {"time": 1296, "pitch": 58, "duration": 2, "velocity": 78}, {"time": 1308, "pitch": 41, "duration": 15, "velocity": 78}, {"time": 1308, "pitch": 57, "duration": 13, "velocity": 78}, {"time": 1308, "pitch": 60, "duration": 14, "velocity": 78}, {"time": 1314, "pitch": 48, "duration": 11, "velocity": 78}, {"time": 1320, "pitch": 53, "duration": 13, "velocity": 78}, {"time": 1326, "pitch": 57, "duration": 6, "velocity": 78}, {"time": 1326, "pitch": 60, "duration": 6, "velocity": 78}, {"time": 1332, "pitch": 46, "duration": 74, "velocity": 79}, {"time": 1338, "pitch": 53, "duration": 67, "velocity": 79}, {"time": 1344, "pitch": 58, "duration": 12, "velocity": 80}, {"time": 1350, "pitch": 63, "duration": 20, "velocity": 79}, {"time": 1362, "pitch": 58, "duration": 45, "velocity": 79}, {"time": 1374, "pitch": 63, "duration": 5, "velocity": 79}, {"time": 1380, "pitch": 62, "duration": 27, "velocity": 79}, {"time": 1428, "pitch": 39, "duration": 22, "velocity": 79}, {"time": 1434, "pitch": 46, "duration": 17, "velocity": 77}, {"time": 1440, "pitch": 51, "duration": 8, "velocity": 77}, {"time": 1446, "pitch": 55, "duration": 8, "velocity": 76}, {"time": 1452, "pitch": 41, "duration": 20, "velocity": 76}, {"time": 1458, "pitch": 48, "duration": 16, "velocity": 75}, {"time": 1464, "pitch": 53, "duration": 10, "velocity": 75}, {"time": 1470, "pitch": 57, "duration": 8, "velocity": 75}, {"time": 1476, "pitch": 43, "duration": 39, "velocity": 75}, {"time": 1482, "pitch": 50, "duration": 32, "velocity": 75}, {"time": 1488, "pitch": 55, "duration": 24, "velocity": 75}, {"time": 1494, "pitch": 58, "duration": 13, "velocity": 75}, {"time": 1494, "pitch": 62, "duration": 13, "velocity": 75}, {"time": 1512, "pitch": 58, "duration": 5, "velocity": 75}, {"time": 1512, "pitch": 62, "duration": 4, "velocity": 75}, {"time": 1524, "pitch": 39, "duration": 19, "velocity": 75}, {"time": 1524, "pitch": 55, "duration": 15, "velocity": 75}, {"time": 1524, "pitch": 58, "duration": 15, "velocity": 75}, {"time": 1530, "pitch": 46, "duration": 18, "velocity": 75}, {"time": 1536, "pitch": 51, "duration": 12, "velocity": 75}, {"time": 1542, "pitch": 55, "duration": 2, "velocity": 75}, {"time": 1542, "pitch": 58, "duration": 2, "velocity": 75}, {"time": 1548, "pitch": 41, "duration": 20, "velocity": 75}, {"time": 1548, "pitch": 57, "duration": 16, "velocity": 75}, {"time": 1548, "pitch": 60, "duration": 16, "velocity": 75}, {"time": 1554, "pitch": 48, "duration": 18, "velocity": 75}, {"time": 1560, "pitch": 53, "duration": 10, "velocity": 75}, {"time": 1566, "pitch": 57, "duration": 6, "velocity": 75}, {"time": 1566, "pitch": 60, "duration": 5, "velocity": 75}, {"time": 1572, "pitch": 46, "duration": 48, "velocity": 75}, {"time": 1572, "pitch": 62, "duration": 16, "velocity": 75}, {"time": 1572, "pitch": 65, "duration": 16, "velocity": 75}, {"time": 1578, "pitch": 53, "duration": 41, "velocity": 75}, {"time": 1584, "pitch": 58, "duration": 13, "velocity": 75}, {"time": 1590, "pitch": 62, "duration": 15, "velocity": 75}, {"time": 1590, "pitch": 65, "duration": 15, "velocity": 75}, {"time": 1602, "pitch": 58, "duration": 10, "velocity": 77}, {"time": 1608, "pitch": 62, "duration": 11, "velocity": 77}, {"time": 1608, "pitch": 65, "duration": 11, "velocity": 77}, {"time": 1620, "pitch": 39, "duration": 15, "velocity": 77}, {"time": 1620, "pitch": 55, "duration": 14, "velocity": 77}, {"time": 1620, "pitch": 58, "duration": 14, "velocity": 77}, {"time": 1626, "pitch": 46, "duration": 17, "velocity": 77}, {"time": 1632, "pitch": 51, "duration": 12, "velocity": 77}, {"time": 1644, "pitch": 41, "duration": 18, "velocity": 77}, {"time": 1644, "pitch": 57, "duration": 16, "velocity": 77}, {"time": 1644, "pitch": 60, "duration": 16, "velocity": 77}, {"time": 1650, "pitch": 48, "duration": 13, "velocity": 77}, {"time": 1656, "pitch": 53, "duration": 9, "velocity": 77}, {"time": 1662, "pitch": 57, "duration": 5, "velocity": 77}, {"time": 1662, "pitch": 60, "duration": 5, "velocity": 77}, {"time": 1668, "pitch": 43, "duration": 38, "velocity": 77}, {"time": 1674, "pitch": 50, "duration": 30, "velocity": 77}, {"time": 1680, "pitch": 55, "duration": 8, "velocity": 77}, {"time": 1686, "pitch": 58, "duration": 13, "velocity": 77}, {"time": 1686, "pitch": 62, "duration": 14, "velocity": 77}, {"time": 1698, "pitch": 55, "duration": 6, "velocity": 77}, {"time": 1704, "pitch": 58, "duration": 2, "velocity": 77}, {"time": 1704, "pitch": 62, "duration": 2, "velocity": 77}, {"time": 1716, "pitch": 39, "duration": 16, "velocity": 77}, {"time": 1716, "pitch": 55, "duration": 15, "velocity": 77}, {"time": 1716, "pitch": 58, "duration": 16, "velocity": 77}, {"time": 1722, "pitch": 46, "duration": 18, "velocity": 77}, {"time": 1728, "pitch": 51, "duration": 11, "velocity": 77}, {"time": 1740, "pitch": 41, "duration": 12, "velocity": 77}, {"time": 1740, "pitch": 57, "duration": 22, "velocity": 77}, {"time": 1740, "pitch": 60, "duration": 21, "velocity": 77}, {"time": 1746, "pitch": 48, "duration": 7, "velocity": 77}, {"time": 1752, "pitch": 53, "duration": 11, "velocity": 77}, {"time": 1764, "pitch": 46, "duration": 42, "velocity": 77}, {"time": 1770, "pitch": 53, "duration": 40, "velocity": 77}, {"time": 1776, "pitch": 58, "duration": 30, "velocity": 77}, {"time": 1782, "pitch": 62, "duration": 26, "velocity": 77}, {"time": 1782, "pitch": 65, "duration": 26, "velocity": 77}, {"time": 1812, "pitch": 46, "duration": 36, "velocity": 77}, {"time": 1812, "pitch": 62, "duration": 36, "velocity": 77}, {"time": 1812, "pitch": 65, "duration": 36, "velocity": 77}, {"time": 1860, "pitch": 46, "duration": 6, "velocity": 77}, {"time": 1860, "pitch": 58, "duration": 6, "velocity": 77}, {"time": 1860, "pitch": 62, "duration": 7, "velocity": 77}, {"time": 1872, "pitch": 62, "duration": 4, "velocity": 77}, {"time": 1878, "pitch": 46, "duration": 10, "velocity": 77}, {"time": 1878, "pitch": 58, "duration": 11, "velocity": 77}, {"time": 1878, "pitch": 63, "duration": 13, "velocity": 77}, {"time": 1890, "pitch": 60, "duration": 6, "velocity": 77}, {"time": 1896, "pitch": 55, "duration": 4, "velocity": 77}, {"time": 1902, "pitch": 69, "duration": 11, "velocity": 77}, {"time": 1908, "pitch": 46, "duration": 4, "velocity": 77}, {"time": 1908, "pitch": 58, "duration": 5, "velocity": 77}, {"time": 1914, "pitch": 67, "duration": 6, "velocity": 77}, {"time": 1920, "pitch": 55, "duration": 5, "velocity": 77}, {"time": 1926, "pitch": 60, "duration": 6, "velocity": 77}, {"time": 1932, "pitch": 46, "duration": 6, "velocity": 77}, {"time": 1932, "pitch": 58, "duration": 7, "velocity": 77}, {"time": 1938, "pitch": 63, "duration": 7, "velocity": 77}, {"time": 1950, "pitch": 60, "duration": 4, "velocity": 77}, {"time": 1956, "pitch": 46, "duration": 5, "velocity": 77}, {"time": 1956, "pitch": 58, "duration": 5, "velocity": 77}, {"time": 1956, "pitch": 62, "duration": 8, "velocity": 77}, {"time": 1968, "pitch": 62, "duration": 5, "velocity": 77}, {"time": 1974, "pitch": 60, "duration": 11, "velocity": 77}, {"time": 1980, "pitch": 46, "duration": 5, "velocity": 77}, {"time": 1980, "pitch": 58, "duration": 5, "velocity": 77}, {"time": 1986, "pitch": 62, "duration": 6, "velocity": 77}, {"time": 1992, "pitch": 55, "duration": 6, "velocity": 77}, {"time": 1998, "pitch": 65, "duration": 16, "velocity": 77}, {"time": 2004, "pitch": 46, "duration": 6, "velocity": 77}, {"time": 2004, "pitch": 58, "duration": 5, "velocity": 77}, {"time": 2010, "pitch": 57, "duration": 7, "velocity": 77}, {"time": 2016, "pitch": 60, "duration": 4, "velocity": 77}, {"time": 2022, "pitch": 65, "duration": 20, "velocity": 77}, {"time": 2028, "pitch": 46, "duration": 6, "velocity": 77}, {"time": 2028, "pitch": 58, "duration": 6, "velocity": 77}, {"time": 2052, "pitch": 39, "duration": 16, "velocity": 77}, {"time": 2052, "pitch": 51, "duration": 16, "velocity": 77}, {"time": 2052, "pitch": 65, "duration": 7, "velocity": 77}, {"time": 2058, "pitch": 63, "duration": 8, "velocity": 77}, {"time": 2064, "pitch": 57, "duration": 5, "velocity": 77}, {"time": 2070, "pitch": 65, "duration": 13, "velocity": 77}, {"time": 2076, "pitch": 39, "duration": 18, "velocity": 77}, {"time": 2076, "pitch": 51, "duration": 17, "velocity": 77}, {"time": 2082, "pitch": 63, "duration": 5, "velocity": 77}, {"time": 2088, "pitch": 57, "duration": 5, "velocity": 77}, {"time": 2094, "pitch": 70, "duration": 15, "velocity": 77}, {"time": 2100, "pitch": 39, "duration": 19, "velocity": 77}, {"time": 2100, "pitch": 51, "duration": 17, "velocity": 77}, {"time": 2106, "pitch": 58, "duration": 7, "velocity": 77}, {"time": 2112, "pitch": 55, "duration": 7, "velocity": 77}, {"time": 2118, "pitch": 63, "duration": 20, "velocity": 77}, {"time": 2124, "pitch": 39, "duration": 11, "velocity": 77}, {"time": 2124, "pitch": 51, "duration": 12, "velocity": 77}, {"time": 2130, "pitch": 65, "duration": 12, "velocity": 77}, {"time": 2148, "pitch": 41, "duration": 6, "velocity": 77}, {"time": 2148, "pitch": 53, "duration": 6, "velocity": 77}, {"time": 2148, "pitch": 62, "duration": 8, "velocity": 77}, {"time": 2160, "pitch": 41, "duration": 4, "velocity": 78}, {"time": 2165, "pitch": 62, "duration": 7, "velocity": 78}, {"time": 2166, "pitch": 41, "duration": 4, "velocity": 78}, {"time": 2166, "pitch": 53, "duration": 4, "velocity": 78}, {"time": 2178, "pitch": 41, "duration": 5, "velocity": 78}, {"time": 2178, "pitch": 53, "duration": 5, "velocity": 78}, {"time": 2178, "pitch": 62, "duration": 5, "velocity": 78}, {"time": 2190, "pitch": 41, "duration": 7, "velocity": 78}, {"time": 2190, "pitch": 53, "duration": 8, "velocity": 78}, {"time": 2190, "pitch": 60, "duration": 52, "velocity": 78}, {"time": 2196, "pitch": 41, "duration": 1, "velocity": 78}, {"time": 2244, "pitch": 34, "duration": 19, "velocity": 78}, {"time": 2244, "pitch": 46, "duration": 19, "velocity": 78}, {"time": 2250, "pitch": 53, "duration": 15, "velocity": 78}, {"time": 2256, "pitch": 62, "duration": 7, "velocity": 78}, {"time": 2262, "pitch": 62, "duration": 1, "velocity": 78}, {"time": 2262, "pitch": 65, "duration": 6, "velocity": 78}, {"time": 2268, "pitch": 33, "duration": 13, "velocity": 78}, {"time": 2268, "pitch": 45, "duration": 13, "velocity": 78}, {"time": 2274, "pitch": 48, "duration": 8, "velocity": 78}, {"time": 2274, "pitch": 60, "duration": 7, "velocity": 78}, {"time": 2280, "pitch": 53, "duration": 8, "velocity": 78}, {"time": 2280, "pitch": 65, "duration": 7, "velocity": 78}, {"time": 2292, "pitch": 31, "duration": 22, "velocity": 78}, {"time": 2292, "pitch": 43, "duration": 22, "velocity": 78}, {"time": 2298, "pitch": 50, "duration": 16, "velocity": 78}, {"time": 2304, "pitch": 55, "duration": 10, "velocity": 78}, {"time": 2304, "pitch": 58, "duration": 7, "velocity": 78}, {"time": 2310, "pitch": 62, "duration": 21, "velocity": 78}, {"time": 2316, "pitch": 29, "duration": 16, "velocity": 78}, {"time": 2316, "pitch": 41, "duration": 16, "velocity": 78}, {"time": 2322, "pitch": 48, "duration": 11, "velocity": 78}, {"time": 2328, "pitch": 57, "duration": 6, "velocity": 78}, {"time": 2334, "pitch": 60, "duration": 7, "velocity": 78}, {"time": 2340, "pitch": 27, "duration": 21, "velocity": 78}, {"time": 2340, "pitch": 39, "duration": 21, "velocity": 78}, {"time": 2346, "pitch": 46, "duration": 9, "velocity": 78}, {"time": 2352, "pitch": 51, "duration": 12, "velocity": 78}, {"time": 2358, "pitch": 55, "duration": 14, "velocity": 78}, {"time": 2364, "pitch": 29, "duration": 15, "velocity": 78}, {"time": 2364, "pitch": 41, "duration": 15, "velocity": 78}, {"time": 2370, "pitch": 48, "duration": 11, "velocity": 78}, {"time": 2376, "pitch": 57, "duration": 7, "velocity": 78}, {"time": 2382, "pitch": 60, "duration": 7, "velocity": 78}, {"time": 2388, "pitch": 34, "duration": 42, "velocity": 78}, {"time": 2388, "pitch": 46, "duration": 42, "velocity": 78}, {"time": 2394, "pitch": 53, "duration": 35, "velocity": 78}, {"time": 2400, "pitch": 58, "duration": 25, "velocity": 78}, {"time": 2406, "pitch": 62, "duration": 13, "velocity": 78}, {"time": 2406, "pitch": 65, "duration": 14, "velocity": 78}, {"time": 2424, "pitch": 62, "duration": 18, "velocity": 78}, {"time": 2424, "pitch": 65, "duration": 17, "velocity": 78}, {"time": 2436, "pitch": 34, "duration": 20, "velocity": 78}, {"time": 2436, "pitch": 46, "duration": 20, "velocity": 78}, {"time": 2442, "pitch": 53, "duration": 13, "velocity": 78}, {"time": 2454, "pitch": 62, "duration": 8, "velocity": 78}, {"time": 2460, "pitch": 33, "duration": 24, "velocity": 78}, {"time": 2460, "pitch": 45, "duration": 24, "velocity": 78}, {"time": 2466, "pitch": 48, "duration": 17, "velocity": 78}, {"time": 2472, "pitch": 60, "duration": 4, "velocity": 78}, {"time": 2478, "pitch": 65, "duration": 6, "velocity": 78}, {"time": 2484, "pitch": 31, "duration": 38, "velocity": 78}, {"time": 2484, "pitch": 43, "duration": 38, "velocity": 78}, {"time": 2490, "pitch": 50, "duration": 31, "velocity": 78}, {"time": 2496, "pitch": 55, "duration": 24, "velocity": 78}, {"time": 2502, "pitch": 58, "duration": 15, "velocity": 78}, {"time": 2502, "pitch": 62, "duration": 15, "velocity": 78}, {"time": 2520, "pitch": 58, "duration": 12, "velocity": 78}, {"time": 2520, "pitch": 62, "duration": 12, "velocity": 78}, {"time": 2532, "pitch": 27, "duration": 14, "velocity": 78}, {"time": 2532, "pitch": 39, "duration": 14, "velocity": 78}, {"time": 2538, "pitch": 46, "duration": 14, "velocity": 78}, {"time": 2544, "pitch": 55, "duration": 2, "velocity": 78}, {"time": 2544, "pitch": 58, "duration": 2, "velocity": 78}, {"time": 2556, "pitch": 29, "duration": 15, "velocity": 77}, {"time": 2556, "pitch": 41, "duration": 15, "velocity": 77}, {"time": 2556, "pitch": 57, "duration": 13, "velocity": 77}, {"time": 2556, "pitch": 60, "duration": 14, "velocity": 77}, {"time": 2562, "pitch": 48, "duration": 11, "velocity": 77}, {"time": 2568, "pitch": 53, "duration": 13, "velocity": 77}, {"time": 2574, "pitch": 57, "duration": 6, "velocity": 76}, {"time": 2574, "pitch": 60, "duration": 6, "velocity": 76}, {"time": 2580, "pitch": 34, "duration": 71, "velocity": 76}, {"time": 2580, "pitch": 46, "duration": 71, "velocity": 76}, {"time": 2586, "pitch": 53, "duration": 67, "velocity": 76}, {"time": 2592, "pitch": 58, "duration": 12, "velocity": 76}, {"time": 2598, "pitch": 63, "duration": 20, "velocity": 76}, {"time": 2610, "pitch": 58, "duration": 45, "velocity": 76}, {"time": 2622, "pitch": 65, "duration": 5, "velocity": 76}, {"time": 2628, "pitch": 27, "duration": 22, "velocity": 76}, {"time": 2628, "pitch": 39, "duration": 22, "velocity": 76}, {"time": 2628, "pitch": 63, "duration": 27, "velocity": 76}, {"time": 2634, "pitch": 46, "duration": 17, "velocity": 76}, {"time": 2640, "pitch": 51, "duration": 8, "velocity": 76}, {"time": 2646, "pitch": 55, "duration": 8, "velocity": 76}, {"time": 2652, "pitch": 29, "duration": 20, "velocity": 76}, {"time": 2652, "pitch": 41, "duration": 20, "velocity": 76}, {"time": 2658, "pitch": 48, "duration": 16, "velocity": 76}, {"time": 2664, "pitch": 53, "duration": 10, "velocity": 76}, {"time": 2670, "pitch": 57, "duration": 8, "velocity": 76}, {"time": 2676, "pitch": 31, "duration": 39, "velocity": 76}, {"time": 2676, "pitch": 43, "duration": 39, "velocity": 76}, {"time": 2682, "pitch": 50, "duration": 32, "velocity": 76}, {"time": 2688, "pitch": 55, "duration": 24, "velocity": 76}, {"time": 2694, "pitch": 58, "duration": 13, "velocity": 76}, {"time": 2694, "pitch": 62, "duration": 13, "velocity": 76}, {"time": 2712, "pitch": 58, "duration": 5, "velocity": 76}, {"time": 2712, "pitch": 62, "duration": 4, "velocity": 76}, {"time": 2724, "pitch": 27, "duration": 19, "velocity": 75}, {"time": 2724, "pitch": 39, "duration": 19, "velocity": 75}, {"time": 2724, "pitch": 55, "duration": 15, "velocity": 75}, {"time": 2724, "pitch": 58, "duration": 15, "velocity": 75}, {"time": 2730, "pitch": 46, "duration": 18, "velocity": 75}, {"time": 2736, "pitch": 51, "duration": 12, "velocity": 75}, {"time": 2742, "pitch": 55, "duration": 2, "velocity": 75}, {"time": 2742, "pitch": 58, "duration": 2, "velocity": 75}, {"time": 2748, "pitch": 29, "duration": 20, "velocity": 75}, {"time": 2748, "pitch": 41, "duration": 20, "velocity": 75}, {"time": 2748, "pitch": 57, "duration": 16, "velocity": 75}, {"time": 2748, "pitch": 60, "duration": 16, "velocity": 75}, {"time": 2754, "pitch": 48, "duration": 18, "velocity": 75}, {"time": 2760, "pitch": 53, "duration": 10, "velocity": 75}, {"time": 2766, "pitch": 57, "duration": 6, "velocity": 75}, {"time": 2766, "pitch": 60, "duration": 5, "velocity": 75}, {"time": 2772, "pitch": 34, "duration": 48, "velocity": 75}, {"time": 2772, "pitch": 46, "duration": 48, "velocity": 75}, {"time": 2772, "pitch": 62, "duration": 16, "velocity": 75}, {"time": 2772, "pitch": 65, "duration": 16, "velocity": 75}, {"time": 2778, "pitch": 53, "duration": 41, "velocity": 75}, {"time": 2784, "pitch": 58, "duration": 13, "velocity": 75}, {"time": 2790, "pitch": 62, "duration": 15, "velocity": 75}, {"time": 2790, "pitch": 65, "duration": 15, "velocity": 75}, {"time": 2802, "pitch": 58, "duration": 10, "velocity": 75}, {"time": 2808, "pitch": 62, "duration": 11, "velocity": 75}, {"time": 2808, "pitch": 65, "duration": 11, "velocity": 75}, {"time": 2820, "pitch": 27, "duration": 15, "velocity": 75}, {"time": 2820, "pitch": 39, "duration": 15, "velocity": 75}, {"time": 2820, "pitch": 55, "duration": 14, "velocity": 75}, {"time": 2820, "pitch": 58, "duration": 14, "velocity": 75}, {"time": 2826, "pitch": 46, "duration": 17, "velocity": 75}, {"time": 2832, "pitch": 51, "duration": 12, "velocity": 75}, {"time": 2844, "pitch": 29, "duration": 18, "velocity": 75}, {"time": 2844, "pitch": 41, "duration": 18, "velocity": 75}, {"time": 2844, "pitch": 57, "duration": 16, "velocity": 75}, {"time": 2844, "pitch": 60, "duration": 16, "velocity": 75}, {"time": 2850, "pitch": 48, "duration": 13, "velocity": 75}, {"time": 2856, "pitch": 53, "duration": 9, "velocity": 75}, {"time": 2862, "pitch": 57, "duration": 5, "velocity": 75}, {"time": 2862, "pitch": 60, "duration": 5, "velocity": 75}, {"time": 2868, "pitch": 31, "duration": 38, "velocity": 75}, {"time": 2868, "pitch": 43, "duration": 38, "velocity": 75}, {"time": 2874, "pitch": 50, "duration": 30, "velocity": 75}, {"time": 2880, "pitch": 55, "duration": 8, "velocity": 75}, {"time": 2886, "pitch": 58, "duration": 13, "velocity": 75}, {"time": 2886, "pitch": 62, "duration": 14, "velocity": 75}, {"time": 2898, "pitch": 55, "duration": 7, "velocity": 75}, {"time": 2904, "pitch": 58, "duration": 2, "velocity": 75}, {"time": 2904, "pitch": 62, "duration": 2, "velocity": 75}, {"time": 2916, "pitch": 27, "duration": 16, "velocity": 75}, {"time": 2916, "pitch": 39, "duration": 16, "velocity": 75}, {"time": 2916, "pitch": 55, "duration": 15, "velocity": 75}, {"time": 2916, "pitch": 58, "duration": 16, "velocity": 75}, {"time": 2922, "pitch": 46, "duration": 18, "velocity": 75}, {"time": 2928, "pitch": 51, "duration": 11, "velocity": 75}, {"time": 2940, "pitch": 29, "duration": 12, "velocity": 75}, {"time": 2940, "pitch": 41, "duration": 12, "velocity": 75}, {"time": 2940, "pitch": 57, "duration": 22, "velocity": 75}, {"time": 2940, "pitch": 60, "duration": 21, "velocity": 75}, {"time": 2946, "pitch": 48, "duration": 7, "velocity": 75}, {"time": 2952, "pitch": 53, "duration": 11, "velocity": 75}, {"time": 2964, "pitch": 34, "duration": 36, "velocity": 75}, {"time": 2964, "pitch": 46, "duration": 36, "velocity": 75}, {"time": 2970, "pitch": 53, "duration": 30, "velocity": 75}, {"time": 2976, "pitch": 58, "duration": 24, "velocity": 75}, {"time": 2982, "pitch": 62, "duration": 18, "velocity": 75}, {"time": 2982, "pitch": 65, "duration": 15, "velocity": 75}, {"time": 3012, "pitch": 27, "duration": 22, "velocity": 75}, {"time": 3012, "pitch": 39, "duration": 22, "velocity": 75}, {"time": 3018, "pitch": 46, "duration": 17, "velocity": 75}, {"time": 3024, "pitch": 51, "duration": 8, "velocity": 75}, {"time": 3030, "pitch": 55, "duration": 8, "velocity": 75}, {"time": 3036, "pitch": 29, "duration": 20, "velocity": 75}, {"time": 3036, "pitch": 41, "duration": 20, "velocity": 75}, {"time": 3042, "pitch": 48, "duration": 16, "velocity": 75}, {"time": 3048, "pitch": 53, "duration": 10, "velocity": 75}, {"time": 3054, "pitch": 57, "duration": 8, "velocity": 75}, {"time": 3060, "pitch": 31, "duration": 39, "velocity": 75}, {"time": 3060, "pitch": 43, "duration": 39, "velocity": 75}, {"time": 3066, "pitch": 50, "duration": 32, "velocity": 75}, {"time": 3072, "pitch": 55, "duration": 24, "velocity": 75}, {"time": 3078, "pitch": 58, "duration": 13, "velocity": 75}, {"time": 3078, "pitch": 62, "duration": 13, "velocity": 75}, {"time": 3096, "pitch": 58, "duration": 5, "velocity": 75}, {"time": 3096, "pitch": 62, "duration": 4, "velocity": 75}, {"time": 3108, "pitch": 27, "duration": 19, "velocity": 75}, {"time": 3108, "pitch": 39, "duration": 19, "velocity": 75}, {"time": 3108, "pitch": 55, "duration": 15, "velocity": 75}, {"time": 3108, "pitch": 58, "duration": 15, "velocity": 75}, {"time": 3114, "pitch": 46, "duration": 18, "velocity": 75}, {"time": 3120, "pitch": 51, "duration": 12, "velocity": 75}, {"time": 3126, "pitch": 55, "duration": 2, "velocity": 75}, {"time": 3126, "pitch": 58, "duration": 2, "velocity": 75}, {"time": 3132, "pitch": 29, "duration": 20, "velocity": 75}, {"time": 3132, "pitch": 41, "duration": 20, "velocity": 75}, {"time": 3132, "pitch": 57, "duration": 16, "velocity": 75}, {"time": 3132, "pitch": 60, "duration": 16, "velocity": 75}, {"time": 3138, "pitch": 48, "duration": 18, "velocity": 75}, {"time": 3144, "pitch": 53, "duration": 10, "velocity": 75}, {"time": 3150, "pitch": 57, "duration": 6, "velocity": 75}, {"time": 3150, "pitch": 60, "duration": 5, "velocity": 75}, {"time": 3156, "pitch": 34, "duration": 48, "velocity": 75}, {"time": 3156, "pitch": 46, "duration": 48, "velocity": 75}, {"time": 3156, "pitch": 62, "duration": 16, "velocity": 75}, {"time": 3156, "pitch": 65, "duration": 16, "velocity": 75}, {"time": 3162, "pitch": 53, "duration": 41, "velocity": 75}, {"time": 3168, "pitch": 58, "duration": 13, "velocity": 75}, {"time": 3174, "pitch": 62, "duration": 15, "velocity": 75}, {"time": 3174, "pitch": 65, "duration": 15, "velocity": 75}, {"time": 3186, "pitch": 58, "duration": 10, "velocity": 75}, {"time": 3192, "pitch": 62, "duration": 11, "velocity": 75}, {"time": 3192, "pitch": 65, "duration": 11, "velocity": 75}, {"time": 3204, "pitch": 27, "duration": 15, "velocity": 75}, {"time": 3204, "pitch": 39, "duration": 15, "velocity": 75}, {"time": 3204, "pitch": 55, "duration": 14, "velocity": 75}, {"time": 3204, "pitch": 58, "duration": 14, "velocity": 75}, {"time": 3210, "pitch": 46, "duration": 17, "velocity": 75}, {"time": 3216, "pitch": 51, "duration": 12, "velocity": 76}, {"time": 3228, "pitch": 29, "duration": 18, "velocity": 77}, {"time": 3228, "pitch": 41, "duration": 18, "velocity": 77}, {"time": 3228, "pitch": 57, "duration": 16, "velocity": 77}, {"time": 3228, "pitch": 60, "duration": 16, "velocity": 77}, {"time": 3234, "pitch": 48, "duration": 13, "velocity": 77}, {"time": 3240, "pitch": 53, "duration": 9, "velocity": 77}, {"time": 3246, "pitch": 57, "duration": 5, "velocity": 77}, {"time": 3246, "pitch": 60, "duration": 5, "velocity": 77}, {"time": 3252, "pitch": 31, "duration": 38, "velocity": 77}, {"time": 3252, "pitch": 43, "duration": 38, "velocity": 77}, {"time": 3258, "pitch": 50, "duration": 30, "velocity": 78}, {"time": 3264, "pitch": 55, "duration": 8, "velocity": 78}, {"time": 3270, "pitch": 58, "duration": 13, "velocity": 78}, {"time": 3270, "pitch": 62, "duration": 14, "velocity": 78}, {"time": 3282, "pitch": 55, "duration": 6, "velocity": 78}, {"time": 3288, "pitch": 58, "duration": 2, "velocity": 78}, {"time": 3288, "pitch": 62, "duration": 2, "velocity": 78}, {"time": 3300, "pitch": 27, "duration": 16, "velocity": 78}, {"time": 3300, "pitch": 39, "duration": 16, "velocity": 78}, {"time": 3300, "pitch": 55, "duration": 15, "velocity": 78}, {"time": 3300, "pitch": 58, "duration": 16, "velocity": 78}, {"time": 3306, "pitch": 46, "duration": 18, "velocity": 78}, {"time": 3312, "pitch": 51, "duration": 11, "velocity": 78}, {"time": 3324, "pitch": 29, "duration": 12, "velocity": 78}, {"time": 3324, "pitch": 41, "duration": 12, "velocity": 78}, {"time": 3324, "pitch": 57, "duration": 22, "velocity": 78}, {"time": 3324, "pitch": 60, "duration": 21, "velocity": 78}, {"time": 3330, "pitch": 48, "duration": 7, "velocity": 78}, {"time": 3336, "pitch": 53, "duration": 11, "velocity": 78}, {"time": 3348, "pitch": 34, "duration": 42, "velocity": 78}, {"time": 3348, "pitch": 46, "duration": 42, "velocity": 78}, {"time": 3354, "pitch": 53, "duration": 40, "velocity": 78}, {"time": 3360, "pitch": 58, "duration": 30, "velocity": 78}, {"time": 3366, "pitch": 62, "duration": 26, "velocity": 78}, {"time": 3366, "pitch": 65, "duration": 26, "velocity": 78}, {"time": 3396, "pitch": 34, "duration": 36, "velocity": 78}, {"time": 3396, "pitch": 46, "duration": 36, "velocity": 78}, {"time": 3396, "pitch": 62, "duration": 36, "velocity": 78}, {"time": 3396, "pitch": 65, "duration": 36, "velocity": 78}, {"time": 3444, "pitch": 46, "duration": 7, "velocity": 78}, {"time": 3444, "pitch": 58, "duration": 9, "velocity": 78}, {"time": 3444, "pitch": 74, "duration": 6, "velocity": 78}, {"time": 3450, "pitch": 77, "duration": 6, "velocity": 78}, {"time": 3456, "pitch": 46, "duration": 8, "velocity": 78}, {"time": 3456, "pitch": 58, "duration": 10, "velocity": 78}, {"time": 3456, "pitch": 74, "duration": 6, "velocity": 78}, {"time": 3462, "pitch": 77, "duration": 6, "velocity": 78}, {"time": 3468, "pitch": 45, "duration": 8, "velocity": 78}, {"time": 3468, "pitch": 57, "duration": 8, "velocity": 78}, {"time": 3468, "pitch": 72, "duration": 6, "velocity": 78}, {"time": 3474, "pitch": 77, "duration": 6, "velocity": 78}, {"time": 3480, "pitch": 45, "duration": 8, "velocity": 78}, {"time": 3480, "pitch": 57, "duration": 8, "velocity": 78}, {"time": 3480, "pitch": 72, "duration": 6, "velocity": 78}, {"time": 3486, "pitch": 77, "duration": 6, "velocity": 78}, {"time": 3492, "pitch": 43, "duration": 9, "velocity": 78}, {"time": 3492, "pitch": 55, "duration": 9, "velocity": 78}, {"time": 3492, "pitch": 70, "duration": 6, "velocity": 78}, {"time": 3498, "pitch": 77, "duration": 6, "velocity": 78}, {"time": 3501, "pitch": 70, "duration": 8, "velocity": 78}, {"time": 3504, "pitch": 43, "duration": 9, "velocity": 78}, {"time": 3504, "pitch": 55, "duration": 7, "velocity": 78}, {"time": 3510, "pitch": 72, "duration": 21, "velocity": 78}, {"time": 3516, "pitch": 45, "duration": 19, "velocity": 79}, {"time": 3516, "pitch": 57, "duration": 12, "velocity": 79}, {"time": 3534, "pitch": 65, "duration": 3, "velocity": 79}, {"time": 3540, "pitch": 58, "duration": 7, "velocity": 79}, {"time": 3540, "pitch": 74, "duration": 5, "velocity": 79}, {"time": 3552, "pitch": 58, "duration": 10, "velocity": 79}, {"time": 3552, "pitch": 74, "duration": 5, "velocity": 79}, {"time": 3558, "pitch": 77, "duration": 6, "velocity": 79}, {"time": 3564, "pitch": 57, "duration": 8, "velocity": 79}, {"time": 3564, "pitch": 72, "duration": 6, "velocity": 79}, {"time": 3570, "pitch": 77, "duration": 6, "velocity": 79}, {"time": 3576, "pitch": 57, "duration": 9, "velocity": 79}, {"time": 3576, "pitch": 72, "duration": 6, "velocity": 79}, {"time": 3582, "pitch": 77, "duration": 6, "velocity": 79}, {"time": 3588, "pitch": 55, "duration": 24, "velocity": 79}, {"time": 3588, "pitch": 70, "duration": 4, "velocity": 79}, {"time": 3594, "pitch": 65, "duration": 7, "velocity": 79}, {"time": 3600, "pitch": 74, "duration": 6, "velocity": 79}, {"time": 3606, "pitch": 72, "duration": 14, "velocity": 79}, {"time": 3612, "pitch": 53, "duration": 21, "velocity": 79}, {"time": 3630, "pitch": 70, "duration": 10, "velocity": 80}, {"time": 3630, "pitch": 82, "duration": 8, "velocity": 80}, {"time": 3636, "pitch": 51, "duration": 24, "velocity": 80}, {"time": 3636, "pitch": 67, "duration": 7, "velocity": 80}, {"time": 3636, "pitch": 79, "duration": 4, "velocity": 80}, {"time": 3642, "pitch": 69, "duration": 4, "velocity": 80}, {"time": 3642, "pitch": 81, "duration": 3, "velocity": 80}, {"time": 3648, "pitch": 70, "duration": 8, "velocity": 80}, {"time": 3648, "pitch": 82, "duration": 2, "velocity": 80}, {"time": 3660, "pitch": 50, "duration": 22, "velocity": 80}, {"time": 3660, "pitch": 65, "duration": 7, "velocity": 80}, {"time": 3660, "pitch": 77, "duration": 3, "velocity": 80}, {"time": 3666, "pitch": 69, "duration": 4, "velocity": 80}, {"time": 3666, "pitch": 81, "duration": 2, "velocity": 80}, {"time": 3672, "pitch": 70, "duration": 9, "velocity": 80}, {"time": 3672, "pitch": 82, "duration": 3, "velocity": 80}, {"time": 3684, "pitch": 48, "duration": 22, "velocity": 80}, {"time": 3684, "pitch": 63, "duration": 6, "velocity": 80}, {"time": 3684, "pitch": 75, "duration": 5, "velocity": 80}, {"time": 3690, "pitch": 69, "duration": 3, "velocity": 80}, {"time": 3690, "pitch": 81, "duration": 3, "velocity": 80}, {"time": 3696, "pitch": 70, "duration": 6, "velocity": 80}, {"time": 3696, "pitch": 82, "duration": 4, "velocity": 80}, {"time": 3708, "pitch": 46, "duration": 24, "velocity": 80}, {"time": 3714, "pitch": 84, "duration": 4, "velocity": 80}, {"time": 3720, "pitch": 82, "duration": 9, "velocity": 80}, {"time": 3732, "pitch": 48, "duration": 11, "velocity": 80}, {"time": 3738, "pitch": 58, "duration": 5, "velocity": 80}, {"time": 3744, "pitch": 50, "duration": 9, "velocity": 80}, {"time": 3744, "pitch": 65, "duration": 7, "velocity": 80}, {"time": 3750, "pitch": 58, "duration": 3, "velocity": 80}, {"time": 3756, "pitch": 51, "duration": 6, "velocity": 80}, {"time": 3756, "pitch": 67, "duration": 6, "velocity": 80}, {"time": 3763, "pitch": 60, "duration": 7, "velocity": 80}, {"time": 3768, "pitch": 52, "duration": 9, "velocity": 80}, {"time": 3768, "pitch": 67, "duration": 6, "velocity": 80}, {"time": 3774, "pitch": 60, "duration": 7, "velocity": 80}, {"time": 3780, "pitch": 53, "duration": 24, "velocity": 80}, {"time": 3780, "pitch": 69, "duration": 30, "velocity": 80}, {"time": 3804, "pitch": 54, "duration": 21, "velocity": 80}, {"time": 3810, "pitch": 62, "duration": 6, "velocity": 80}, {"time": 3816, "pitch": 69, "duration": 6, "velocity": 80}, {"time": 3822, "pitch": 62, "duration": 5, "velocity": 80}, {"time": 3828, "pitch": 55, "duration": 24, "velocity": 80}, {"time": 3828, "pitch": 70, "duration": 8, "velocity": 80}, {"time": 3834, "pitch": 62, "duration": 6, "velocity": 80}, {"time": 3840, "pitch": 70, "duration": 7, "velocity": 80}, {"time": 3846, "pitch": 62, "duration": 6, "velocity": 80}, {"time": 3852, "pitch": 57, "duration": 20, "velocity": 80}, {"time": 3852, "pitch": 72, "duration": 8, "velocity": 80}, {"time": 3858, "pitch": 62, "duration": 6, "velocity": 80}, {"time": 3864, "pitch": 72, "duration": 6, "velocity": 80}, {"time": 3870, "pitch": 62, "duration": 5, "velocity": 80}, {"time": 3876, "pitch": 58, "duration": 46, "velocity": 80}, {"time": 3876, "pitch": 74, "duration": 12, "velocity": 80}, {"time": 3894, "pitch": 65, "duration": 6, "velocity": 80}, {"time": 3894, "pitch": 77, "duration": 4, "velocity": 80}, {"time": 3900, "pitch": 74, "duration": 8, "velocity": 80}, {"time": 3900, "pitch": 79, "duration": 6, "velocity": 80}, {"time": 3906, "pitch": 65, "duration": 3, "velocity": 80}, {"time": 3906, "pitch": 77, "duration": 6, "velocity": 80}, {"time": 3912, "pitch": 72, "duration": 4, "velocity": 80}, {"time": 3912, "pitch": 75, "duration": 2, "velocity": 80}, {"time": 3918, "pitch": 77, "duration": 2, "velocity": 80}, {"time": 3918, "pitch": 65, "duration": 5, "velocity": 80}, {"time": 3924, "pitch": 70, "duration": 22, "velocity": 80}, {"time": 3924, "pitch": 74, "duration": 24, "velocity": 80}, {"time": 3972, "pitch": 27, "duration": 22, "velocity": 80}, {"time": 3972, "pitch": 39, "duration": 22, "velocity": 80}, {"time": 3978, "pitch": 46, "duration": 17, "velocity": 80}, {"time": 3984, "pitch": 51, "duration": 8, "velocity": 80}, {"time": 3990, "pitch": 55, "duration": 8, "velocity": 80}, {"time": 3996, "pitch": 29, "duration": 20, "velocity": 80}, {"time": 3996, "pitch": 41, "duration": 20, "velocity": 80}, {"time": 4002, "pitch": 48, "duration": 16, "velocity": 80}, {"time": 4008, "pitch": 53, "duration": 10, "velocity": 80}, {"time": 4014, "pitch": 57, "duration": 8, "velocity": 80}, {"time": 4020, "pitch": 31, "duration": 39, "velocity": 80}, {"time": 4020, "pitch": 43, "duration": 39, "velocity": 80}, {"time": 4026, "pitch": 50, "duration": 32, "velocity": 80}, {"time": 4032, "pitch": 55, "duration": 24, "velocity": 80}, {"time": 4038, "pitch": 58, "duration": 13, "velocity": 80}, {"time": 4038, "pitch": 62, "duration": 13, "velocity": 80}, {"time": 4056, "pitch": 58, "duration": 5, "velocity": 80}, {"time": 4056, "pitch": 62, "duration": 4, "velocity": 80}, {"time": 4068, "pitch": 27, "duration": 19, "velocity": 80}, {"time": 4068, "pitch": 39, "duration": 19, "velocity": 80}, {"time": 4068, "pitch": 55, "duration": 15, "velocity": 80}, {"time": 4068, "pitch": 58, "duration": 15, "velocity": 80}, {"time": 4074, "pitch": 46, "duration": 18, "velocity": 80}, {"time": 4080, "pitch": 51, "duration": 12, "velocity": 80}, {"time": 4086, "pitch": 55, "duration": 2, "velocity": 80}, {"time": 4086, "pitch": 58, "duration": 2, "velocity": 80}, {"time": 4092, "pitch": 29, "duration": 20, "velocity": 80}, {"time": 4092, "pitch": 41, "duration": 20, "velocity": 80}, {"time": 4092, "pitch": 57, "duration": 16, "velocity": 80}, {"time": 4092, "pitch": 60, "duration": 16, "velocity": 80}, {"time": 4098, "pitch": 48, "duration": 18, "velocity": 80}, {"time": 4104, "pitch": 53, "duration": 10, "velocity": 80}, {"time": 4110, "pitch": 57, "duration": 6, "velocity": 80}, {"time": 4110, "pitch": 60, "duration": 5, "velocity": 80}, {"time": 4116, "pitch": 34, "duration": 48, "velocity": 80}, {"time": 4116, "pitch": 46, "duration": 48, "velocity": 80}, {"time": 4116, "pitch": 62, "duration": 16, "velocity": 80}, {"time": 4116, "pitch": 65, "duration": 16, "velocity": 80}, {"time": 4122, "pitch": 53, "duration": 41, "velocity": 80}, {"time": 4128, "pitch": 58, "duration": 13, "velocity": 80}, {"time": 4134, "pitch": 62, "duration": 15, "velocity": 80}, {"time": 4134, "pitch": 65, "duration": 15, "velocity": 80}, {"time": 4146, "pitch": 58, "duration": 10, "velocity": 81}, {"time": 4152, "pitch": 62, "duration": 11, "velocity": 81}, {"time": 4152, "pitch": 65, "duration": 11, "velocity": 81}, {"time": 4164, "pitch": 27, "duration": 15, "velocity": 81}, {"time": 4164, "pitch": 39, "duration": 15, "velocity": 81}, {"time": 4164, "pitch": 55, "duration": 14, "velocity": 81}, {"time": 4164, "pitch": 58, "duration": 14, "velocity": 81}, {"time": 4170, "pitch": 46, "duration": 17, "velocity": 82}, {"time": 4176, "pitch": 51, "duration": 12, "velocity": 82}, {"time": 4188, "pitch": 29, "duration": 18, "velocity": 82}, {"time": 4188, "pitch": 41, "duration": 18, "velocity": 82}, {"time": 4188, "pitch": 57, "duration": 16, "velocity": 82}, {"time": 4188, "pitch": 60, "duration": 16, "velocity": 82}, {"time": 4194, "pitch": 48, "duration": 13, "velocity": 82}, {"time": 4200, "pitch": 53, "duration": 9, "velocity": 82}, {"time": 4206, "pitch": 57, "duration": 5, "velocity": 82}, {"time": 4206, "pitch": 60, "duration": 5, "velocity": 82}, {"time": 4212, "pitch": 31, "duration": 38, "velocity": 82}, {"time": 4212, "pitch": 43, "duration": 38, "velocity": 82}, {"time": 4218, "pitch": 50, "duration": 30, "velocity": 82}, {"time": 4224, "pitch": 55, "duration": 8, "velocity": 82}, {"time": 4230, "pitch": 58, "duration": 13, "velocity": 82}, {"time": 4230, "pitch": 62, "duration": 14, "velocity": 82}, {"time": 4242, "pitch": 55, "duration": 7, "velocity": 82}, {"time": 4248, "pitch": 58, "duration": 2, "velocity": 82}, {"time": 4248, "pitch": 62, "duration": 2, "velocity": 82}, {"time": 4260, "pitch": 27, "duration": 16, "velocity": 82}, {"time": 4260, "pitch": 39, "duration": 16, "velocity": 82}, {"time": 4260, "pitch": 55, "duration": 15, "velocity": 82}, {"time": 4260, "pitch": 58, "duration": 16, "velocity": 82}, {"time": 4266, "pitch": 46, "duration": 18, "velocity": 82}, {"time": 4272, "pitch": 51, "duration": 11, "velocity": 82}, {"time": 4284, "pitch": 29, "duration": 12, "velocity": 82}, {"time": 4284, "pitch": 41, "duration": 12, "velocity": 82}, {"time": 4284, "pitch": 57, "duration": 22, "velocity": 82}, {"time": 4284, "pitch": 60, "duration": 21, "velocity": 82}, {"time": 4290, "pitch": 48, "duration": 7, "velocity": 82}, {"time": 4296, "pitch": 53, "duration": 11, "velocity": 82}, {"time": 4308, "pitch": 34, "duration": 36, "velocity": 82}, {"time": 4308, "pitch": 46, "duration": 36, "velocity": 82}, {"time": 4314, "pitch": 53, "duration": 30, "velocity": 82}, {"time": 4320, "pitch": 58, "duration": 24, "velocity": 82}, {"time": 4326, "pitch": 62, "duration": 18, "velocity": 82}, {"time": 4326, "pitch": 65, "duration": 15, "velocity": 82}, {"time": 4356, "pitch": 27, "duration": 22, "velocity": 82}, {"time": 4356, "pitch": 39, "duration": 22, "velocity": 82}, {"time": 4362, "pitch": 46, "duration": 17, "velocity": 82}, {"time": 4368, "pitch": 51, "duration": 8, "velocity": 82}, {"time": 4374, "pitch": 55, "duration": 8, "velocity": 82}, {"time": 4380, "pitch": 29, "duration": 20, "velocity": 82}, {"time": 4380, "pitch": 41, "duration": 20, "velocity": 82}, {"time": 4386, "pitch": 48, "duration": 16, "velocity": 82}, {"time": 4392, "pitch": 53, "duration": 10, "velocity": 82}, {"time": 4398, "pitch": 57, "duration": 8, "velocity": 82}, {"time": 4404, "pitch": 31, "duration": 39, "velocity": 82}, {"time": 4404, "pitch": 43, "duration": 39, "velocity": 82}, {"time": 4410, "pitch": 50, "duration": 32, "velocity": 82}, {"time": 4416, "pitch": 55, "duration": 24, "velocity": 82}, {"time": 4422, "pitch": 58, "duration": 13, "velocity": 82}, {"time": 4422, "pitch": 62, "duration": 13, "velocity": 82}, {"time": 4440, "pitch": 58, "duration": 5, "velocity": 82}, {"time": 4440, "pitch": 62, "duration": 4, "velocity": 82}, {"time": 4452, "pitch": 27, "duration": 19, "velocity": 82}, {"time": 4452, "pitch": 39, "duration": 19, "velocity": 82}, {"time": 4452, "pitch": 55, "duration": 15, "velocity": 82}, {"time": 4452, "pitch": 58, "duration": 15, "velocity": 82}, {"time": 4458, "pitch": 46, "duration": 18, "velocity": 81}, {"time": 4464, "pitch": 51, "duration": 12, "velocity": 81}, {"time": 4470, "pitch": 55, "duration": 2, "velocity": 81}, {"time": 4470, "pitch": 58, "duration": 2, "velocity": 81}, {"time": 4476, "pitch": 29, "duration": 20, "velocity": 81}, {"time": 4476, "pitch": 41, "duration": 20, "velocity": 81}, {"time": 4476, "pitch": 57, "duration": 16, "velocity": 81}, {"time": 4476, "pitch": 60, "duration": 16, "velocity": 81}, {"time": 4482, "pitch": 48, "duration": 18, "velocity": 81}, {"time": 4488, "pitch": 53, "duration": 10, "velocity": 81}, {"time": 4494, "pitch": 57, "duration": 6, "velocity": 81}, {"time": 4494, "pitch": 60, "duration": 5, "velocity": 81}, {"time": 4500, "pitch": 34, "duration": 48, "velocity": 81}, {"time": 4500, "pitch": 46, "duration": 48, "velocity": 81}, {"time": 4500, "pitch": 62, "duration": 16, "velocity": 81}, {"time": 4500, "pitch": 65, "duration": 16, "velocity": 81}, {"time": 4506, "pitch": 53, "duration": 41, "velocity": 80}, {"time": 4512, "pitch": 58, "duration": 13, "velocity": 80}, {"time": 4518, "pitch": 62, "duration": 15, "velocity": 80}, {"time": 4518, "pitch": 65, "duration": 15, "velocity": 80}, {"time": 4530, "pitch": 58, "duration": 10, "velocity": 80}, {"time": 4536, "pitch": 62, "duration": 11, "velocity": 80}, {"time": 4536, "pitch": 65, "duration": 11, "velocity": 80}, {"time": 4548, "pitch": 27, "duration": 15, "velocity": 80}, {"time": 4548, "pitch": 39, "duration": 15, "velocity": 80}, {"time": 4548, "pitch": 55, "duration": 14, "velocity": 80}, {"time": 4548, "pitch": 58, "duration": 14, "velocity": 80}, {"time": 4554, "pitch": 46, "duration": 17, "velocity": 79}, {"time": 4560, "pitch": 51, "duration": 12, "velocity": 79}, {"time": 4572, "pitch": 29, "duration": 18, "velocity": 79}, {"time": 4572, "pitch": 41, "duration": 18, "velocity": 79}, {"time": 4572, "pitch": 57, "duration": 16, "velocity": 79}, {"time": 4572, "pitch": 60, "duration": 16, "velocity": 79}, {"time": 4578, "pitch": 48, "duration": 13, "velocity": 78}, {"time": 4584, "pitch": 53, "duration": 9, "velocity": 78}, {"time": 4590, "pitch": 57, "duration": 5, "velocity": 78}, {"time": 4590, "pitch": 60, "duration": 5, "velocity": 78}, {"time": 4596, "pitch": 31, "duration": 38, "velocity": 78}, {"time": 4596, "pitch": 43, "duration": 38, "velocity": 78}, {"time": 4602, "pitch": 50, "duration": 30, "velocity": 77}, {"time": 4608, "pitch": 55, "duration": 8, "velocity": 77}, {"time": 4614, "pitch": 58, "duration": 13, "velocity": 76}, {"time": 4614, "pitch": 62, "duration": 14, "velocity": 76}, {"time": 4626, "pitch": 55, "duration": 7, "velocity": 76}, {"time": 4632, "pitch": 58, "duration": 2, "velocity": 76}, {"time": 4632, "pitch": 62, "duration": 2, "velocity": 76}, {"time": 4644, "pitch": 27, "duration": 16, "velocity": 76}, {"time": 4644, "pitch": 39, "duration": 16, "velocity": 76}, {"time": 4644, "pitch": 55, "duration": 15, "velocity": 76}, {"time": 4644, "pitch": 58, "duration": 16, "velocity": 76}, {"time": 4650, "pitch": 46, "duration": 18, "velocity": 76}, {"time": 4656, "pitch": 51, "duration": 11, "velocity": 76}, {"time": 4668, "pitch": 29, "duration": 12, "velocity": 76}, {"time": 4668, "pitch": 41, "duration": 12, "velocity": 76}, {"time": 4668, "pitch": 57, "duration": 22, "velocity": 76}, {"time": 4668, "pitch": 60, "duration": 21, "velocity": 76}, {"time": 4674, "pitch": 48, "duration": 7, "velocity": 76}, {"time": 4680, "pitch": 53, "duration": 11, "velocity": 76}, {"time": 4692, "pitch": 34, "duration": 42, "velocity": 76}, {"time": 4692, "pitch": 46, "duration": 42, "velocity": 76}, {"time": 4698, "pitch": 53, "duration": 40, "velocity": 76}, {"time": 4704, "pitch": 58, "duration": 30, "velocity": 76}, {"time": 4710, "pitch": 62, "duration": 26, "velocity": 76}, {"time": 4710, "pitch": 65, "duration": 26, "velocity": 76}, {"time": 4740, "pitch": 34, "duration": 41, "velocity": 74}, {"time": 4740, "pitch": 46, "duration": 41, "velocity": 74}, {"time": 4740, "pitch": 62, "duration": 42, "velocity": 74}, {"time": 4740, "pitch": 65, "duration": 41, "velocity": 74}, {"time": 4788, "pitch": 39, "duration": 20, "velocity": 71}, {"time": 4794, "pitch": 46, "duration": 18, "velocity": 70}, {"time": 4800, "pitch": 51, "duration": 9, "velocity": 70}, {"time": 4806, "pitch": 58, "duration": 7, "velocity": 70}, {"time": 4812, "pitch": 41, "duration": 18, "velocity": 70}, {"time": 4818, "pitch": 48, "duration": 16, "velocity": 70}, {"time": 4824, "pitch": 53, "duration": 9, "velocity": 70}, {"time": 4830, "pitch": 57, "duration": 7, "velocity": 70}, {"time": 4836, "pitch": 43, "duration": 37, "velocity": 70}, {"time": 4842, "pitch": 50, "duration": 31, "velocity": 69}, {"time": 4848, "pitch": 55, "duration": 10, "velocity": 69}, {"time": 4854, "pitch": 58, "duration": 14, "velocity": 69}, {"time": 4854, "pitch": 62, "duration": 15, "velocity": 69}, {"time": 4866, "pitch": 55, "duration": 5, "velocity": 69}, {"time": 4872, "pitch": 58, "duration": 5, "velocity": 69}, {"time": 4872, "pitch": 62, "duration": 5, "velocity": 69}, {"time": 4884, "pitch": 39, "duration": 20, "velocity": 69}, {"time": 4884, "pitch": 55, "duration": 14, "velocity": 69}, {"time": 4884, "pitch": 58, "duration": 2, "velocity": 69}, {"time": 4887, "pitch": 58, "duration": 11, "velocity": 68}, {"time": 4890, "pitch": 46, "duration": 18, "velocity": 68}, {"time": 4896, "pitch": 51, "duration": 12, "velocity": 68}, {"time": 4902, "pitch": 55, "duration": 3, "velocity": 68}, {"time": 4902, "pitch": 58, "duration": 2, "velocity": 68}, {"time": 4908, "pitch": 41, "duration": 19, "velocity": 68}, {"time": 4908, "pitch": 57, "duration": 15, "velocity": 68}, {"time": 4908, "pitch": 60, "duration": 15, "velocity": 68}, {"time": 4914, "pitch": 48, "duration": 18, "velocity": 68}, {"time": 4920, "pitch": 53, "duration": 10, "velocity": 68}, {"time": 4926, "pitch": 57, "duration": 2, "velocity": 67}, {"time": 4926, "pitch": 60, "duration": 2, "velocity": 67}, {"time": 4932, "pitch": 43, "duration": 48, "velocity": 67}, {"time": 4932, "pitch": 58, "duration": 15, "velocity": 67}, {"time": 4932, "pitch": 62, "duration": 15, "velocity": 67}, {"time": 4938, "pitch": 50, "duration": 42, "velocity": 67}, {"time": 4944, "pitch": 55, "duration": 30, "velocity": 67}, {"time": 4950, "pitch": 58, "duration": 30, "velocity": 67}, {"time": 4950, "pitch": 62, "duration": 30, "velocity": 67}, {"time": 4980, "pitch": 39, "duration": 19, "velocity": 67}, {"time": 4986, "pitch": 46, "duration": 18, "velocity": 67}, {"time": 4992, "pitch": 51, "duration": 9, "velocity": 67}, {"time": 4998, "pitch": 55, "duration": 3, "velocity": 67}, {"time": 4998, "pitch": 58, "duration": 2, "velocity": 67}, {"time": 5004, "pitch": 41, "duration": 20, "velocity": 67}, {"time": 5004, "pitch": 57, "duration": 16, "velocity": 67}, {"time": 5004, "pitch": 60, "duration": 16, "velocity": 67}, {"time": 5010, "pitch": 48, "duration": 18, "velocity": 67}, {"time": 5016, "pitch": 53, "duration": 11, "velocity": 67}, {"time": 5022, "pitch": 57, "duration": 2, "velocity": 67}, {"time": 5022, "pitch": 60, "duration": 2, "velocity": 67}, {"time": 5028, "pitch": 43, "duration": 36, "velocity": 67}, {"time": 5028, "pitch": 58, "duration": 15, "velocity": 67}, {"time": 5028, "pitch": 62, "duration": 16, "velocity": 67}, {"time": 5034, "pitch": 50, "duration": 28, "velocity": 67}, {"time": 5040, "pitch": 55, "duration": 10, "velocity": 67}, {"time": 5046, "pitch": 58, "duration": 15, "velocity": 67}, {"time": 5046, "pitch": 62, "duration": 16, "velocity": 67}, {"time": 5058, "pitch": 55, "duration": 4, "velocity": 67}, {"time": 5064, "pitch": 58, "duration": 3, "velocity": 67}, {"time": 5064, "pitch": 62, "duration": 2, "velocity": 67}, {"time": 5076, "pitch": 39, "duration": 21, "velocity": 67}, {"time": 5076, "pitch": 55, "duration": 14, "velocity": 67}, {"time": 5076, "pitch": 58, "duration": 15, "velocity": 67}, {"time": 5082, "pitch": 46, "duration": 19, "velocity": 67}, {"time": 5088, "pitch": 51, "duration": 11, "velocity": 67}, {"time": 5094, "pitch": 55, "duration": 3, "velocity": 67}, {"time": 5094, "pitch": 58, "duration": 3, "velocity": 67}, {"time": 5100, "pitch": 41, "duration": 21, "velocity": 67}, {"time": 5100, "pitch": 57, "duration": 16, "velocity": 67}, {"time": 5100, "pitch": 60, "duration": 16, "velocity": 67}, {"time": 5106, "pitch": 48, "duration": 18, "velocity": 67}, {"time": 5112, "pitch": 53, "duration": 11, "velocity": 67}, {"time": 5118, "pitch": 57, "duration": 3, "velocity": 67}, {"time": 5118, "pitch": 60, "duration": 3, "velocity": 67}, {"time": 5124, "pitch": 46, "duration": 46, "velocity": 67}, {"time": 5124, "pitch": 62, "duration": 15, "velocity": 67}, {"time": 5124, "pitch": 65, "duration": 16, "velocity": 67}, {"time": 5130, "pitch": 53, "duration": 39, "velocity": 67}, {"time": 5136, "pitch": 58, "duration": 10, "velocity": 67}, {"time": 5142, "pitch": 62, "duration": 26, "velocity": 67}, {"time": 5142, "pitch": 65, "duration": 26, "velocity": 67}, {"time": 5154, "pitch": 58, "duration": 14, "velocity": 67}, {"time": 5172, "pitch": 39, "duration": 18, "velocity": 67}, {"time": 5178, "pitch": 46, "duration": 19, "velocity": 67}, {"time": 5184, "pitch": 51, "duration": 12, "velocity": 67}, {"time": 5190, "pitch": 55, "duration": 5, "velocity": 67}, {"time": 5196, "pitch": 41, "duration": 20, "velocity": 67}, {"time": 5196, "pitch": 57, "duration": 16, "velocity": 67}, {"time": 5202, "pitch": 48, "duration": 18, "velocity": 67}, {"time": 5208, "pitch": 53, "duration": 12, "velocity": 67}, {"time": 5214, "pitch": 57, "duration": 8, "velocity": 67}, {"time": 5220, "pitch": 43, "duration": 94, "velocity": 67}, {"time": 5220, "pitch": 58, "duration": 94, "velocity": 67}, {"time": 5220, "pitch": 62, "duration": 91, "velocity": 67}, {"time": 5220, "pitch": 67, "duration": 44, "velocity": 67}, {"time": 5232, "pitch": 50, "duration": 80, "velocity": 67}, {"time": 5268, "pitch": 55, "duration": 46, "velocity": 67}, {"time": 5268, "pitch": 67, "duration": 45, "velocity": 67}], "annotations": [{"time": 108, "annotation": {"number": 64, "value": 83}, "group": "control_change"}, {"time": 168, "annotation": {"number": 64, "value": 84}, "group": "control_change"}, {"time": 204, "annotation": {"number": 64, "value": 85}, "group": "control_change"}, {"time": 216, "annotation": {"number": 64, "value": 86}, "group": "control_change"}, {"time": 247, "annotation": {"number": 64, "value": 71}, "group": "control_change"}, {"time": 248, "annotation": {"number": 64, "value": 127}, "group": "control_change"}, {"time": 252, "annotation": {"number": 64, "value": 88}, "group": "control_change"}, {"time": 252, "annotation": {"number": 64, "value": 71}, "group": "control_change"}, {"time": 253, "annotation": {"number": 64, "value": 0}, "group": "control_change"}, {"time": 257, "annotation": {"number": 64, "value": 71}, "group": "control_change"}, {"time": 257, "annotation": {"number": 64, "value": 127}, "group": "control_change"}, {"time": 264, "annotation": {"number": 64, "value": 89}, "group": "control_change"}, {"time": 276, "annotation": {"number": 64, "value": 71}, "group": "control_change"}, {"time": 277, "annotation": {"number": 64, "value": 0}, "group": "control_change"}, {"time": 280, "annotation": {"number": 64, "value": 71}, "group": "control_change"}, {"time": 281, "annotation": {"number": 64, "value": 127}, "group": "control_change"}, {"time": 323, "annotation": {"number": 64, "value": 71}, "group": "control_change"}, {"time": 324, "annotation": {"number": 64, "value": 0}, "group": "control_change"}, {"time": 324, "annotation": {"number": 64, "value": 90}, "group": "control_change"}, {"time": 330, "annotation": {"number": 64, "value": 71}, "group": "control_change"}, {"time": 331, "annotation": {"number": 64, "value": 127}, "group": "control_change"}, {"time": 348, "annotation": {"number": 64, "value": 71}, "group": "control_change"}, {"time": 348, "annotation": {"number": 64, "value": 0}, "group": "control_change"}, {"time": 353, "annotation": {"number": 64, "value": 71}, "group": "control_change"}, {"time": 354, "annotation": {"number": 64, "value": 127}, "group": "control_change"}, {"time": 372, "annotation": {"number": 64, "value": 71}, "group": "control_change"}, {"time": 372, "annotation": {"number": 64, "value": 0}, "group": "control_change"}, {"time": 377, "annotation": {"number": 64, "value": 71}, "group": "control_change"}, {"time": 377, "annotation": {"number": 64, "value": 127}, "group": "control_change"}, {"time": 384, "annotation": {"number": 64, "value": 89}, "group": "control_change"}, {"time": 408, "annotation": {"number": 64, "value": 88}, "group": "control_change"}, {"time": 420, "annotation": {"number": 64, "value": 71}, "group": "control_change"}, {"time": 420, "annotation": {"number": 64, "value": 86}, "group": "control_change"}, {"time": 420, "annotation": {"number": 64, "value": 0}, "group": "control_change"}, {"time": 425, "annotation": {"number": 64, "value": 71}, "group": "control_change"}, {"time": 425, "annotation": {"number": 64, "value": 127}, "group": "control_change"}, {"time": 445, "annotation": {"number": 64, "value": 71}, "group": "control_change"}, {"time": 445, "annotation": {"number": 64, "value": 0}, "group": "control_change"}, {"time": 450, "annotation": {"number": 64, "value": 71}, "group": "control_change"}, {"time": 451, "annotation": {"number": 64, "value": 127}, "group": "control_change"}, {"time": 467, "annotation": {"number": 64, "value": 71}, "group": "control_change"}, {"time": 467, "annotation": {"number": 64, "value": 0}, "group": "control_change"}, {"time": 472, "annotation": {"number": 64, "value": 71}, "group": "control_change"}, {"time": 472, "annotation": {"number": 64, "value": 127}, "group": "control_change"}, {"time": 514, "annotation": {"number": 64, "value": 71}, "group": "control_change"}, {"time": 515, "annotation": {"number": 64, "value": 0}, "group": "control_change"}, {"time": 520, "annotation": {"number": 64, "value": 71}, "group": "control_change"}, {"time": 520, "annotation": {"number": 64, "value": 127}, "group": "control_change"}, {"time": 563, "annotation": {"number": 64, "value": 71}, "group": "control_change"}, {"time": 563, "annotation": {"number": 64, "value": 0}, "group": "control_change"}, {"time": 568, "annotation": {"number": 64, "value": 71}, "group": "control_change"}, {"time": 569, "annotation": {"number": 64, "value": 127}, "group": "control_change"}, {"time": 606, "annotation": {"number": 64, "value": 87}, "group": "control_change"}, {"time": 612, "annotation": {"number": 64, "value": 71}, "group": "control_change"}, {"time": 612, "annotation": {"number": 64, "value": 0}, "group": "control_change"}, {"time": 617, "annotation": {"number": 64, "value": 71}, "group": "control_change"}, {"time": 618, "annotation": {"number": 64, "value": 127}, "group": "control_change"}, {"time": 634, "annotation": {"number": 64, "value": 71}, "group": "control_change"}, {"time": 635, "annotation": {"number": 64, "value": 0}, "group": "control_change"}, {"time": 641, "annotation": {"number": 64, "value": 71}, "group": "control_change"}, {"time": 643, "annotation": {"number": 64, "value": 127}, "group": "control_change"}, {"time": 660, "annotation": {"number": 64, "value": 71}, "group": "control_change"}, {"time": 660, "annotation": {"number": 64, "value": 0}, "group": "control_change"}, {"time": 666, "annotation": {"number": 64, "value": 71}, "group": "control_change"}, {"time": 667, "annotation": {"number": 64, "value": 127}, "group": "control_change"}, {"time": 708, "annotation": {"number": 64, "value": 71}, "group": "control_change"}, {"time": 708, "annotation": {"number": 64, "value": 0}, "group": "control_change"}, {"time": 713, "annotation": {"number": 64, "value": 71}, "group": "control_change"}, {"time": 715, "annotation": {"number": 64, "value": 127}, "group": "control_change"}, {"time": 741, "annotation": {"number": 64, "value": 71}, "group": "control_change"}, {"time": 741, "annotation": {"number": 64, "value": 0}, "group": "control_change"}, {"time": 745, "annotation": {"number": 64, "value": 71}, "group": "control_change"}, {"time": 746, "annotation": {"number": 64, "value": 127}, "group": "control_change"}, {"time": 755, "annotation": {"number": 64, "value": 71}, "group": "control_change"}, {"time": 755, "annotation": {"number": 64, "value": 0}, "group": "control_change"}, {"time": 760, "annotation": {"number": 64, "value": 71}, "group": "control_change"}, {"time": 761, "annotation": {"number": 64, "value": 127}, "group": "control_change"}, {"time": 792, "annotation": {"number": 64, "value": 88}, "group": "control_change"}, {"time": 804, "annotation": {"number": 64, "value": 71}, "group": "control_change"}, {"time": 805, "annotation": {"number": 64, "value": 0}, "group": "control_change"}, {"time": 810, "annotation": {"number": 64, "value": 71}, "group": "control_change"}, {"time": 811, "annotation": {"number": 64, "value": 127}, "group": "control_change"}, {"time": 828, "annotation": {"number": 64, "value": 71}, "group": "control_change"}, {"time": 828, "annotation": {"number": 64, "value": 0}, "group": "control_change"}, {"time": 834, "annotation": {"number": 64, "value": 71}, "group": "control_change"}, {"time": 836, "annotation": {"number": 64, "value": 127}, "group": "control_change"}, {"time": 840, "annotation": {"number": 64, "value": 89}, "group": "control_change"}, {"time": 852, "annotation": {"number": 64, "value": 71}, "group": "control_change"}, {"time": 853, "annotation": {"number": 64, "value": 0}, "group": "control_change"}, {"time": 858, "annotation": {"number": 64, "value": 71}, "group": "control_change"}, {"time": 860, "annotation": {"number": 64, "value": 127}, "group": "control_change"}, {"time": 900, "annotation": {"number": 64, "value": 71}, "group": "control_change"}, {"time": 900, "annotation": {"number": 64, "value": 0}, "group": "control_change"}, {"time": 906, "annotation": {"number": 64, "value": 71}, "group": "control_change"}, {"time": 907, "annotation": {"number": 64, "value": 127}, "group": "control_change"}, {"time": 924, "annotation": {"number": 64, "value": 71}, "group": "control_change"}, {"time": 924, "annotation": {"number": 64, "value": 0}, "group": "control_change"}, {"time": 930, "annotation": {"number": 64, "value": 71}, "group": "control_change"}, {"time": 932, "annotation": {"number": 64, "value": 127}, "group": "control_change"}, {"time": 948, "annotation": {"number": 64, "value": 71}, "group": "control_change"}, {"time": 948, "annotation": {"number": 64, "value": 0}, "group": "control_change"}, {"time": 954, "annotation": {"number": 64, "value": 71}, "group": "control_change"}, {"time": 956, "annotation": {"number": 64, "value": 127}, "group": "control_change"}, {"time": 995, "annotation": {"number": 64, "value": 71}, "group": "control_change"}, {"time": 995, "annotation": {"number": 64, "value": 0}, "group": "control_change"}, {"time": 1001, "annotation": {"number": 64, "value": 71}, "group": "control_change"}, {"time": 1003, "annotation": {"number": 64, "value": 127}, "group": "control_change"}, {"time": 1020, "annotation": {"number": 64, "value": 71}, "group": "control_change"}, {"time": 1020, "annotation": {"number": 64, "value": 0}, "group": "control_change"}, {"time": 1026, "annotation": {"number": 64, "value": 71}, "group": "control_change"}, {"time": 1027, "annotation": {"number": 64, "value": 127}, "group": "control_change"}, {"time": 1043, "annotation": {"number": 64, "value": 71}, "group": "control_change"}, {"time": 1044, "annotation": {"number": 64, "value": 0}, "group": "control_change"}, {"time": 1052, "annotation": {"number": 64, "value": 71}, "group": "control_change"}, {"time": 1054, "annotation": {"number": 64, "value": 127}, "group": "control_change"}, {"time": 1068, "annotation": {"number": 64, "value": 71}, "group": "control_change"}, {"time": 1068, "annotation": {"number": 64, "value": 0}, "group": "control_change"}, {"time": 1073, "annotation": {"number": 64, "value": 71}, "group": "control_change"}, {"time": 1075, "annotation": {"number": 64, "value": 127}, "group": "control_change"}, {"time": 1091, "annotation": {"number": 64, "value": 71}, "group": "control_change"}, {"time": 1091, "annotation": {"number": 64, "value": 0}, "group": "control_change"}, {"time": 1098, "annotation": {"number": 64, "value": 71}, "group": "control_change"}, {"time": 1100, "annotation": {"number": 64, "value": 127}, "group": "control_change"}, {"time": 1116, "annotation": {"number": 64, "value": 71}, "group": "control_change"}, {"time": 1116, "annotation": {"number": 64, "value": 0}, "group": "control_change"}, {"time": 1122, "annotation": {"number": 64, "value": 71}, "group": "control_change"}, {"time": 1123, "annotation": {"number": 64, "value": 127}, "group": "control_change"}, {"time": 1140, "annotation": {"number": 64, "value": 71}, "group": "control_change"}, {"time": 1140, "annotation": {"number": 64, "value": 0}, "group": "control_change"}, {"time": 1146, "annotation": {"number": 64, "value": 71}, "group": "control_change"}, {"time": 1148, "annotation": {"number": 64, "value": 127}, "group": "control_change"}, {"time": 1187, "annotation": {"number": 64, "value": 71}, "group": "control_change"}, {"time": 1188, "annotation": {"number": 64, "value": 0}, "group": "control_change"}, {"time": 1194, "annotation": {"number": 64, "value": 71}, "group": "control_change"}, {"time": 1195, "annotation": {"number": 64, "value": 127}, "group": "control_change"}, {"time": 1211, "annotation": {"number": 64, "value": 71}, "group": "control_change"}, {"time": 1212, "annotation": {"number": 64, "value": 0}, "group": "control_change"}, {"time": 1218, "annotation": {"number": 64, "value": 71}, "group": "control_change"}, {"time": 1220, "annotation": {"number": 64, "value": 127}, "group": "control_change"}, {"time": 1236, "annotation": {"number": 64, "value": 71}, "group": "control_change"}, {"time": 1236, "annotation": {"number": 64, "value": 0}, "group": "control_change"}, {"time": 1242, "annotation": {"number": 64, "value": 71}, "group": "control_change"}, {"time": 1244, "annotation": {"number": 64, "value": 127}, "group": "control_change"}, {"time": 1284, "annotation": {"number": 64, "value": 71}, "group": "control_change"}, {"time": 1284, "annotation": {"number": 64, "value": 0}, "group": "control_change"}, {"time": 1290, "annotation": {"number": 64, "value": 71}, "group": "control_change"}, {"time": 1292, "annotation": {"number": 64, "value": 127}, "group": "control_change"}, {"time": 1307, "annotation": {"number": 64, "value": 71}, "group": "control_change"}, {"time": 1307, "annotation": {"number": 64, "value": 0}, "group": "control_change"}, {"time": 1308, "annotation": {"number": 64, "value": 88}, "group": "control_change"}, {"time": 1314, "annotation": {"number": 64, "value": 71}, "group": "control_change"}, {"time": 1315, "annotation": {"number": 64, "value": 127}, "group": "control_change"}, {"time": 1330, "annotation": {"number": 64, "value": 71}, "group": "control_change"}, {"time": 1331, "annotation": {"number": 64, "value": 0}, "group": "control_change"}, {"time": 1338, "annotation": {"number": 64, "value": 71}, "group": "control_change"}, {"time": 1338, "annotation": {"number": 64, "value": 127}, "group": "control_change"}, {"time": 1356, "annotation": {"number": 64, "value": 86}, "group": "control_change"}, {"time": 1383, "annotation": {"number": 64, "value": 71}, "group": "control_change"}, {"time": 1383, "annotation": {"number": 64, "value": 0}, "group": "control_change"}, {"time": 1386, "annotation": {"number": 64, "value": 71}, "group": "control_change"}, {"time": 1387, "annotation": {"number": 64, "value": 127}, "group": "control_change"}, {"time": 1392, "annotation": {"number": 64, "value": 86}, "group": "control_change"}, {"time": 1428, "annotation": {"number": 64, "value": 71}, "group": "control_change"}, {"time": 1428, "annotation": {"number": 64, "value": 0}, "group": "control_change"}, {"time": 1433, "annotation": {"number": 64, "value": 71}, "group": "control_change"}, {"time": 1435, "annotation": {"number": 64, "value": 127}, "group": "control_change"}, {"time": 1452, "annotation": {"number": 64, "value": 71}, "group": "control_change"}, {"time": 1452, "annotation": {"number": 64, "value": 0}, "group": "control_change"}, {"time": 1457, "annotation": {"number": 64, "value": 71}, "group": "control_change"}, {"time": 1458, "annotation": {"number": 64, "value": 127}, "group": "control_change"}, {"time": 1476, "annotation": {"number": 64, "value": 71}, "group": "control_change"}, {"time": 1476, "annotation": {"number": 64, "value": 0}, "group": "control_change"}, {"time": 1482, "annotation": {"number": 64, "value": 71}, "group": "control_change"}, {"time": 1483, "annotation": {"number": 64, "value": 127}, "group": "control_change"}, {"time": 1488, "annotation": {"number": 64, "value": 85}, "group": "control_change"}, {"time": 1524, "annotation": {"number": 64, "value": 71}, "group": "control_change"}, {"time": 1524, "annotation": {"number": 64, "value": 0}, "group": "control_change"}, {"time": 1530, "annotation": {"number": 64, "value": 71}, "group": "control_change"}, {"time": 1531, "annotation": {"number": 64, "value": 127}, "group": "control_change"}, {"time": 1546, "annotation": {"number": 64, "value": 71}, "group": "control_change"}, {"time": 1547, "annotation": {"number": 64, "value": 0}, "group": "control_change"}, {"time": 1553, "annotation": {"number": 64, "value": 71}, "group": "control_change"}, {"time": 1555, "annotation": {"number": 64, "value": 127}, "group": "control_change"}, {"time": 1570, "annotation": {"number": 64, "value": 71}, "group": "control_change"}, {"time": 1571, "annotation": {"number": 64, "value": 0}, "group": "control_change"}, {"time": 1577, "annotation": {"number": 64, "value": 71}, "group": "control_change"}, {"time": 1578, "annotation": {"number": 64, "value": 0}, "group": "control_change"}, {"time": 1578, "annotation": {"number": 64, "value": 71}, "group": "control_change"}, {"time": 1579, "annotation": {"number": 64, "value": 127}, "group": "control_change"}, {"time": 1620, "annotation": {"number": 64, "value": 71}, "group": "control_change"}, {"time": 1621, "annotation": {"number": 64, "value": 0}, "group": "control_change"}, {"time": 1626, "annotation": {"number": 64, "value": 71}, "group": "control_change"}, {"time": 1628, "annotation": {"number": 64, "value": 127}, "group": "control_change"}, {"time": 1643, "annotation": {"number": 64, "value": 71}, "group": "control_change"}, {"time": 1643, "annotation": {"number": 64, "value": 0}, "group": "control_change"}, {"time": 1649, "annotation": {"number": 64, "value": 71}, "group": "control_change"}, {"time": 1651, "annotation": {"number": 64, "value": 127}, "group": "control_change"}, {"time": 1667, "annotation": {"number": 64, "value": 71}, "group": "control_change"}, {"time": 1668, "annotation": {"number": 64, "value": 0}, "group": "control_change"}, {"time": 1668, "annotation": {"number": 64, "value": 84}, "group": "control_change"}, {"time": 1674, "annotation": {"number": 64, "value": 71}, "group": "control_change"}, {"time": 1676, "annotation": {"number": 64, "value": 127}, "group": "control_change"}, {"time": 1715, "annotation": {"number": 64, "value": 71}, "group": "control_change"}, {"time": 1715, "annotation": {"number": 64, "value": 0}, "group": "control_change"}, {"time": 1721, "annotation": {"number": 64, "value": 71}, "group": "control_change"}, {"time": 1723, "annotation": {"number": 64, "value": 127}, "group": "control_change"}, {"time": 1728, "annotation": {"number": 64, "value": 83}, "group": "control_change"}, {"time": 1739, "annotation": {"number": 64, "value": 71}, "group": "control_change"}, {"time": 1740, "annotation": {"number": 64, "value": 0}, "group": "control_change"}, {"time": 1746, "annotation": {"number": 64, "value": 71}, "group": "control_change"}, {"time": 1747, "annotation": {"number": 64, "value": 127}, "group": "control_change"}, {"time": 1764, "annotation": {"number": 64, "value": 71}, "group": "control_change"}, {"time": 1764, "annotation": {"number": 64, "value": 0}, "group": "control_change"}, {"time": 1770, "annotation": {"number": 64, "value": 71}, "group": "control_change"}, {"time": 1772, "annotation": {"number": 64, "value": 127}, "group": "control_change"}, {"time": 1776, "annotation": {"number": 64, "value": 81}, "group": "control_change"}, {"time": 1811, "annotation": {"number": 64, "value": 71}, "group": "control_change"}, {"time": 1812, "annotation": {"number": 64, "value": 0}, "group": "control_change"}, {"time": 1816, "annotation": {"number": 64, "value": 71}, "group": "control_change"}, {"time": 1818, "annotation": {"number": 64, "value": 127}, "group": "control_change"}, {"time": 1830, "annotation": {"number": 64, "value": 82}, "group": "control_change"}, {"time": 1858, "annotation": {"number": 64, "value": 71}, "group": "control_change"}, {"time": 1858, "annotation": {"number": 64, "value": 0}, "group": "control_change"}, {"time": 1864, "annotation": {"number": 64, "value": 71}, "group": "control_change"}, {"time": 1866, "annotation": {"number": 64, "value": 127}, "group": "control_change"}, {"time": 1883, "annotation": {"number": 64, "value": 71}, "group": "control_change"}, {"time": 1884, "annotation": {"number": 64, "value": 0}, "group": "control_change"}, {"time": 1884, "annotation": {"number": 64, "value": 83}, "group": "control_change"}, {"time": 1888, "annotation": {"number": 64, "value": 71}, "group": "control_change"}, {"time": 1889, "annotation": {"number": 64, "value": 127}, "group": "control_change"}, {"time": 1907, "annotation": {"number": 64, "value": 71}, "group": "control_change"}, {"time": 1908, "annotation": {"number": 64, "value": 0}, "group": "control_change"}, {"time": 1912, "annotation": {"number": 64, "value": 71}, "group": "control_change"}, {"time": 1914, "annotation": {"number": 64, "value": 127}, "group": "control_change"}, {"time": 1931, "annotation": {"number": 64, "value": 71}, "group": "control_change"}, {"time": 1932, "annotation": {"number": 64, "value": 0}, "group": "control_change"}, {"time": 1937, "annotation": {"number": 64, "value": 71}, "group": "control_change"}, {"time": 1938, "annotation": {"number": 64, "value": 127}, "group": "control_change"}, {"time": 1955, "annotation": {"number": 64, "value": 71}, "group": "control_change"}, {"time": 1956, "annotation": {"number": 64, "value": 0}, "group": "control_change"}, {"time": 1959, "annotation": {"number": 64, "value": 71}, "group": "control_change"}, {"time": 1960, "annotation": {"number": 64, "value": 127}, "group": "control_change"}, {"time": 1980, "annotation": {"number": 64, "value": 71}, "group": "control_change"}, {"time": 1981, "annotation": {"number": 64, "value": 0}, "group": "control_change"}, {"time": 1984, "annotation": {"number": 64, "value": 71}, "group": "control_change"}, {"time": 1986, "annotation": {"number": 64, "value": 127}, "group": "control_change"}, {"time": 2003, "annotation": {"number": 64, "value": 71}, "group": "control_change"}, {"time": 2003, "annotation": {"number": 64, "value": 0}, "group": "control_change"}, {"time": 2007, "annotation": {"number": 64, "value": 71}, "group": "control_change"}, {"time": 2008, "annotation": {"number": 64, "value": 127}, "group": "control_change"}, {"time": 2022, "annotation": {"number": 64, "value": 82}, "group": "control_change"}, {"time": 2026, "annotation": {"number": 64, "value": 71}, "group": "control_change"}, {"time": 2027, "annotation": {"number": 64, "value": 0}, "group": "control_change"}, {"time": 2032, "annotation": {"number": 64, "value": 71}, "group": "control_change"}, {"time": 2033, "annotation": {"number": 64, "value": 127}, "group": "control_change"}, {"time": 2052, "annotation": {"number": 64, "value": 71}, "group": "control_change"}, {"time": 2052, "annotation": {"number": 64, "value": 0}, "group": "control_change"}, {"time": 2056, "annotation": {"number": 64, "value": 71}, "group": "control_change"}, {"time": 2057, "annotation": {"number": 64, "value": 127}, "group": "control_change"}, {"time": 2075, "annotation": {"number": 64, "value": 71}, "group": "control_change"}, {"time": 2076, "annotation": {"number": 64, "value": 0}, "group": "control_change"}, {"time": 2080, "annotation": {"number": 64, "value": 71}, "group": "control_change"}, {"time": 2082, "annotation": {"number": 64, "value": 127}, "group": "control_change"}, {"time": 2099, "annotation": {"number": 64, "value": 71}, "group": "control_change"}, {"time": 2100, "annotation": {"number": 64, "value": 0}, "group": "control_change"}, {"time": 2104, "annotation": {"number": 64, "value": 71}, "group": "control_change"}, {"time": 2104, "annotation": {"number": 64, "value": 127}, "group": "control_change"}, {"time": 2125, "annotation": {"number": 64, "value": 71}, "group": "control_change"}, {"time": 2125, "annotation": {"number": 64, "value": 0}, "group": "control_change"}, {"time": 2128, "annotation": {"number": 64, "value": 71}, "group": "control_change"}, {"time": 2129, "annotation": {"number": 64, "value": 127}, "group": "control_change"}, {"time": 2147, "annotation": {"number": 64, "value": 71}, "group": "control_change"}, {"time": 2147, "annotation": {"number": 64, "value": 0}, "group": "control_change"}, {"time": 2151, "annotation": {"number": 64, "value": 71}, "group": "control_change"}, {"time": 2152, "annotation": {"number": 64, "value": 127}, "group": "control_change"}, {"time": 2160, "annotation": {"number": 64, "value": 81}, "group": "control_change"}, {"time": 2196, "annotation": {"number": 64, "value": 71}, "group": "control_change"}, {"time": 2196, "annotation": {"number": 64, "value": 0}, "group": "control_change"}, {"time": 2199, "annotation": {"number": 64, "value": 71}, "group": "control_change"}, {"time": 2200, "annotation": {"number": 64, "value": 127}, "group": "control_change"}, {"time": 2220, "annotation": {"number": 64, "value": 80}, "group": "control_change"}, {"time": 2243, "annotation": {"number": 64, "value": 71}, "group": "control_change"}, {"time": 2243, "annotation": {"number": 64, "value": 0}, "group": "control_change"}, {"time": 2247, "annotation": {"number": 64, "value": 71}, "group": "control_change"}, {"time": 2248, "annotation": {"number": 64, "value": 127}, "group": "control_change"}, {"time": 2267, "annotation": {"number": 64, "value": 71}, "group": "control_change"}, {"time": 2268, "annotation": {"number": 64, "value": 0}, "group": "control_change"}, {"time": 2272, "annotation": {"number": 64, "value": 71}, "group": "control_change"}, {"time": 2273, "annotation": {"number": 64, "value": 127}, "group": "control_change"}, {"time": 2292, "annotation": {"number": 64, "value": 71}, "group": "control_change"}, {"time": 2292, "annotation": {"number": 64, "value": 0}, "group": "control_change"}, {"time": 2297, "annotation": {"number": 64, "value": 71}, "group": "control_change"}, {"time": 2298, "annotation": {"number": 64, "value": 127}, "group": "control_change"}, {"time": 2316, "annotation": {"number": 64, "value": 71}, "group": "control_change"}, {"time": 2316, "annotation": {"number": 64, "value": 0}, "group": "control_change"}, {"time": 2321, "annotation": {"number": 64, "value": 71}, "group": "control_change"}, {"time": 2322, "annotation": {"number": 64, "value": 127}, "group": "control_change"}, {"time": 2339, "annotation": {"number": 64, "value": 71}, "group": "control_change"}, {"time": 2340, "annotation": {"number": 64, "value": 0}, "group": "control_change"}, {"time": 2345, "annotation": {"number": 64, "value": 71}, "group": "control_change"}, {"time": 2347, "annotation": {"number": 64, "value": 127}, "group": "control_change"}, {"time": 2363, "annotation": {"number": 64, "value": 71}, "group": "control_change"}, {"time": 2364, "annotation": {"number": 64, "value": 0}, "group": "control_change"}, {"time": 2369, "annotation": {"number": 64, "value": 71}, "group": "control_change"}, {"time": 2370, "annotation": {"number": 64, "value": 127}, "group": "control_change"}, {"time": 2387, "annotation": {"number": 64, "value": 71}, "group": "control_change"}, {"time": 2387, "annotation": {"number": 64, "value": 0}, "group": "control_change"}, {"time": 2392, "annotation": {"number": 64, "value": 71}, "group": "control_change"}, {"time": 2394, "annotation": {"number": 64, "value": 127}, "group": "control_change"}, {"time": 2435, "annotation": {"number": 64, "value": 71}, "group": "control_change"}, {"time": 2435, "annotation": {"number": 64, "value": 0}, "group": "control_change"}, {"time": 2440, "annotation": {"number": 64, "value": 71}, "group": "control_change"}, {"time": 2441, "annotation": {"number": 64, "value": 127}, "group": "control_change"}, {"time": 2459, "annotation": {"number": 64, "value": 71}, "group": "control_change"}, {"time": 2460, "annotation": {"number": 64, "value": 0}, "group": "control_change"}, {"time": 2465, "annotation": {"number": 64, "value": 71}, "group": "control_change"}, {"time": 2466, "annotation": {"number": 64, "value": 127}, "group": "control_change"}, {"time": 2484, "annotation": {"number": 64, "value": 71}, "group": "control_change"}, {"time": 2484, "annotation": {"number": 64, "value": 0}, "group": "control_change"}, {"time": 2490, "annotation": {"number": 64, "value": 71}, "group": "control_change"}, {"time": 2492, "annotation": {"number": 64, "value": 127}, "group": "control_change"}, {"time": 2531, "annotation": {"number": 64, "value": 71}, "group": "control_change"}, {"time": 2532, "annotation": {"number": 64, "value": 0}, "group": "control_change"}, {"time": 2536, "annotation": {"number": 64, "value": 71}, "group": "control_change"}, {"time": 2538, "annotation": {"number": 64, "value": 127}, "group": "control_change"}, {"time": 2555, "annotation": {"number": 64, "value": 71}, "group": "control_change"}, {"time": 2556, "annotation": {"number": 64, "value": 0}, "group": "control_change"}, {"time": 2561, "annotation": {"number": 64, "value": 71}, "group": "control_change"}, {"time": 2563, "annotation": {"number": 64, "value": 127}, "group": "control_change"}, {"time": 2579, "annotation": {"number": 64, "value": 71}, "group": "control_change"}, {"time": 2579, "annotation": {"number": 64, "value": 0}, "group": "control_change"}, {"time": 2584, "annotation": {"number": 64, "value": 71}, "group": "control_change"}, {"time": 2586, "annotation": {"number": 64, "value": 127}, "group": "control_change"}, {"time": 2627, "annotation": {"number": 64, "value": 71}, "group": "control_change"}, {"time": 2628, "annotation": {"number": 64, "value": 0}, "group": "control_change"}, {"time": 2633, "annotation": {"number": 64, "value": 71}, "group": "control_change"}, {"time": 2634, "annotation": {"number": 64, "value": 127}, "group": "control_change"}, {"time": 2651, "annotation": {"number": 64, "value": 71}, "group": "control_change"}, {"time": 2652, "annotation": {"number": 64, "value": 0}, "group": "control_change"}, {"time": 2656, "annotation": {"number": 64, "value": 71}, "group": "control_change"}, {"time": 2657, "annotation": {"number": 64, "value": 127}, "group": "control_change"}, {"time": 2676, "annotation": {"number": 64, "value": 71}, "group": "control_change"}, {"time": 2676, "annotation": {"number": 64, "value": 0}, "group": "control_change"}, {"time": 2681, "annotation": {"number": 64, "value": 71}, "group": "control_change"}, {"time": 2682, "annotation": {"number": 64, "value": 127}, "group": "control_change"}, {"time": 2724, "annotation": {"number": 64, "value": 71}, "group": "control_change"}, {"time": 2725, "annotation": {"number": 64, "value": 0}, "group": "control_change"}, {"time": 2729, "annotation": {"number": 64, "value": 71}, "group": "control_change"}, {"time": 2731, "annotation": {"number": 64, "value": 127}, "group": "control_change"}, {"time": 2747, "annotation": {"number": 64, "value": 71}, "group": "control_change"}, {"time": 2748, "annotation": {"number": 64, "value": 0}, "group": "control_change"}, {"time": 2754, "annotation": {"number": 64, "value": 71}, "group": "control_change"}, {"time": 2755, "annotation": {"number": 64, "value": 127}, "group": "control_change"}, {"time": 2772, "annotation": {"number": 64, "value": 71}, "group": "control_change"}, {"time": 2772, "annotation": {"number": 64, "value": 0}, "group": "control_change"}, {"time": 2777, "annotation": {"number": 64, "value": 71}, "group": "control_change"}, {"time": 2779, "annotation": {"number": 64, "value": 127}, "group": "control_change"}, {"time": 2808, "annotation": {"number": 64, "value": 81}, "group": "control_change"}, {"time": 2820, "annotation": {"number": 64, "value": 71}, "group": "control_change"}, {"time": 2820, "annotation": {"number": 64, "value": 0}, "group": "control_change"}, {"time": 2826, "annotation": {"number": 64, "value": 71}, "group": "control_change"}, {"time": 2827, "annotation": {"number": 64, "value": 127}, "group": "control_change"}, {"time": 2844, "annotation": {"number": 64, "value": 71}, "group": "control_change"}, {"time": 2845, "annotation": {"number": 64, "value": 0}, "group": "control_change"}, {"time": 2850, "annotation": {"number": 64, "value": 71}, "group": "control_change"}, {"time": 2851, "annotation": {"number": 64, "value": 127}, "group": "control_change"}, {"time": 2869, "annotation": {"number": 64, "value": 71}, "group": "control_change"}, {"time": 2869, "annotation": {"number": 64, "value": 0}, "group": "control_change"}, {"time": 2873, "annotation": {"number": 64, "value": 71}, "group": "control_change"}, {"time": 2874, "annotation": {"number": 64, "value": 127}, "group": "control_change"}, {"time": 2916, "annotation": {"number": 64, "value": 71}, "group": "control_change"}, {"time": 2916, "annotation": {"number": 64, "value": 0}, "group": "control_change"}, {"time": 2921, "annotation": {"number": 64, "value": 71}, "group": "control_change"}, {"time": 2922, "annotation": {"number": 64, "value": 127}, "group": "control_change"}, {"time": 2941, "annotation": {"number": 64, "value": 71}, "group": "control_change"}, {"time": 2941, "annotation": {"number": 64, "value": 0}, "group": "control_change"}, {"time": 2945, "annotation": {"number": 64, "value": 71}, "group": "control_change"}, {"time": 2946, "annotation": {"number": 64, "value": 127}, "group": "control_change"}, {"time": 2964, "annotation": {"number": 64, "value": 71}, "group": "control_change"}, {"time": 2965, "annotation": {"number": 64, "value": 0}, "group": "control_change"}, {"time": 2969, "annotation": {"number": 64, "value": 71}, "group": "control_change"}, {"time": 2970, "annotation": {"number": 64, "value": 127}, "group": "control_change"}, {"time": 3012, "annotation": {"number": 64, "value": 71}, "group": "control_change"}, {"time": 3012, "annotation": {"number": 64, "value": 0}, "group": "control_change"}, {"time": 3017, "annotation": {"number": 64, "value": 71}, "group": "control_change"}, {"time": 3018, "annotation": {"number": 64, "value": 127}, "group": "control_change"}, {"time": 3036, "annotation": {"number": 64, "value": 71}, "group": "control_change"}, {"time": 3036, "annotation": {"number": 64, "value": 0}, "group": "control_change"}, {"time": 3041, "annotation": {"number": 64, "value": 71}, "group": "control_change"}, {"time": 3042, "annotation": {"number": 64, "value": 127}, "group": "control_change"}, {"time": 3060, "annotation": {"number": 64, "value": 71}, "group": "control_change"}, {"time": 3061, "annotation": {"number": 64, "value": 0}, "group": "control_change"}, {"time": 3066, "annotation": {"number": 64, "value": 71}, "group": "control_change"}, {"time": 3067, "annotation": {"number": 64, "value": 127}, "group": "control_change"}, {"time": 3108, "annotation": {"number": 64, "value": 71}, "group": "control_change"}, {"time": 3109, "annotation": {"number": 64, "value": 0}, "group": "control_change"}, {"time": 3113, "annotation": {"number": 64, "value": 71}, "group": "control_change"}, {"time": 3114, "annotation": {"number": 64, "value": 127}, "group": "control_change"}, {"time": 3132, "annotation": {"number": 64, "value": 71}, "group": "control_change"}, {"time": 3132, "annotation": {"number": 64, "value": 0}, "group": "control_change"}, {"time": 3137, "annotation": {"number": 64, "value": 71}, "group": "control_change"}, {"time": 3138, "annotation": {"number": 64, "value": 127}, "group": "control_change"}, {"time": 3156, "annotation": {"number": 64, "value": 80}, "group": "control_change"}, {"time": 3158, "annotation": {"number": 64, "value": 71}, "group": "control_change"}, {"time": 3158, "annotation": {"number": 64, "value": 0}, "group": "control_change"}, {"time": 3162, "annotation": {"number": 64, "value": 71}, "group": "control_change"}, {"time": 3164, "annotation": {"number": 64, "value": 127}, "group": "control_change"}, {"time": 3192, "annotation": {"number": 64, "value": 78}, "group": "control_change"}, {"time": 3205, "annotation": {"number": 64, "value": 71}, "group": "control_change"}, {"time": 3205, "annotation": {"number": 64, "value": 0}, "group": "control_change"}, {"time": 3210, "annotation": {"number": 64, "value": 71}, "group": "control_change"}, {"time": 3211, "annotation": {"number": 64, "value": 127}, "group": "control_change"}, {"time": 3228, "annotation": {"number": 64, "value": 71}, "group": "control_change"}, {"time": 3228, "annotation": {"number": 64, "value": 0}, "group": "control_change"}, {"time": 3232, "annotation": {"number": 64, "value": 71}, "group": "control_change"}, {"time": 3233, "annotation": {"number": 64, "value": 127}, "group": "control_change"}, {"time": 3252, "annotation": {"number": 64, "value": 71}, "group": "control_change"}, {"time": 3252, "annotation": {"number": 64, "value": 0}, "group": "control_change"}, {"time": 3256, "annotation": {"number": 64, "value": 71}, "group": "control_change"}, {"time": 3257, "annotation": {"number": 64, "value": 127}, "group": "control_change"}, {"time": 3299, "annotation": {"number": 64, "value": 71}, "group": "control_change"}, {"time": 3299, "annotation": {"number": 64, "value": 0}, "group": "control_change"}, {"time": 3303, "annotation": {"number": 64, "value": 71}, "group": "control_change"}, {"time": 3304, "annotation": {"number": 64, "value": 127}, "group": "control_change"}, {"time": 3324, "annotation": {"number": 64, "value": 71}, "group": "control_change"}, {"time": 3324, "annotation": {"number": 64, "value": 0}, "group": "control_change"}, {"time": 3324, "annotation": {"number": 64, "value": 77}, "group": "control_change"}, {"time": 3327, "annotation": {"number": 64, "value": 71}, "group": "control_change"}, {"time": 3328, "annotation": {"number": 64, "value": 127}, "group": "control_change"}, {"time": 3347, "annotation": {"number": 64, "value": 71}, "group": "control_change"}, {"time": 3348, "annotation": {"number": 64, "value": 0}, "group": "control_change"}, {"time": 3353, "annotation": {"number": 64, "value": 71}, "group": "control_change"}, {"time": 3354, "annotation": {"number": 64, "value": 127}, "group": "control_change"}, {"time": 3395, "annotation": {"number": 64, "value": 71}, "group": "control_change"}, {"time": 3396, "annotation": {"number": 64, "value": 0}, "group": "control_change"}, {"time": 3400, "annotation": {"number": 64, "value": 71}, "group": "control_change"}, {"time": 3400, "annotation": {"number": 64, "value": 127}, "group": "control_change"}, {"time": 3443, "annotation": {"number": 64, "value": 71}, "group": "control_change"}, {"time": 3443, "annotation": {"number": 64, "value": 0}, "group": "control_change"}, {"time": 3447, "annotation": {"number": 64, "value": 71}, "group": "control_change"}, {"time": 3449, "annotation": {"number": 64, "value": 127}, "group": "control_change"}, {"time": 3456, "annotation": {"number": 64, "value": 76}, "group": "control_change"}, {"time": 3475, "annotation": {"number": 64, "value": 71}, "group": "control_change"}, {"time": 3476, "annotation": {"number": 64, "value": 0}, "group": "control_change"}, {"time": 3479, "annotation": {"number": 64, "value": 71}, "group": "control_change"}, {"time": 3479, "annotation": {"number": 64, "value": 127}, "group": "control_change"}, {"time": 3492, "annotation": {"number": 64, "value": 71}, "group": "control_change"}, {"time": 3493, "annotation": {"number": 64, "value": 0}, "group": "control_change"}, {"time": 3497, "annotation": {"number": 64, "value": 71}, "group": "control_change"}, {"time": 3498, "annotation": {"number": 64, "value": 127}, "group": "control_change"}, {"time": 3516, "annotation": {"number": 64, "value": 71}, "group": "control_change"}, {"time": 3516, "annotation": {"number": 64, "value": 0}, "group": "control_change"}, {"time": 3520, "annotation": {"number": 64, "value": 71}, "group": "control_change"}, {"time": 3521, "annotation": {"number": 64, "value": 127}, "group": "control_change"}, {"time": 3540, "annotation": {"number": 64, "value": 71}, "group": "control_change"}, {"time": 3540, "annotation": {"number": 64, "value": 0}, "group": "control_change"}, {"time": 3545, "annotation": {"number": 64, "value": 71}, "group": "control_change"}, {"time": 3546, "annotation": {"number": 64, "value": 127}, "group": "control_change"}, {"time": 3563, "annotation": {"number": 64, "value": 71}, "group": "control_change"}, {"time": 3564, "annotation": {"number": 64, "value": 0}, "group": "control_change"}, {"time": 3568, "annotation": {"number": 64, "value": 71}, "group": "control_change"}, {"time": 3570, "annotation": {"number": 64, "value": 127}, "group": "control_change"}, {"time": 3588, "annotation": {"number": 64, "value": 71}, "group": "control_change"}, {"time": 3588, "annotation": {"number": 64, "value": 0}, "group": "control_change"}, {"time": 3593, "annotation": {"number": 64, "value": 71}, "group": "control_change"}, {"time": 3594, "annotation": {"number": 64, "value": 77}, "group": "control_change"}, {"time": 3594, "annotation": {"number": 64, "value": 127}, "group": "control_change"}, {"time": 3611, "annotation": {"number": 64, "value": 71}, "group": "control_change"}, {"time": 3612, "annotation": {"number": 64, "value": 0}, "group": "control_change"}, {"time": 3617, "annotation": {"number": 64, "value": 71}, "group": "control_change"}, {"time": 3618, "annotation": {"number": 64, "value": 127}, "group": "control_change"}, {"time": 3636, "annotation": {"number": 64, "value": 71}, "group": "control_change"}, {"time": 3636, "annotation": {"number": 64, "value": 0}, "group": "control_change"}, {"time": 3641, "annotation": {"number": 64, "value": 71}, "group": "control_change"}, {"time": 3642, "annotation": {"number": 64, "value": 127}, "group": "control_change"}, {"time": 3659, "annotation": {"number": 64, "value": 71}, "group": "control_change"}, {"time": 3660, "annotation": {"number": 64, "value": 0}, "group": "control_change"}, {"time": 3664, "annotation": {"number": 64, "value": 71}, "group": "control_change"}, {"time": 3665, "annotation": {"number": 64, "value": 127}, "group": "control_change"}, {"time": 3685, "annotation": {"number": 64, "value": 71}, "group": "control_change"}, {"time": 3685, "annotation": {"number": 64, "value": 0}, "group": "control_change"}, {"time": 3689, "annotation": {"number": 64, "value": 71}, "group": "control_change"}, {"time": 3689, "annotation": {"number": 64, "value": 127}, "group": "control_change"}, {"time": 3708, "annotation": {"number": 64, "value": 71}, "group": "control_change"}, {"time": 3708, "annotation": {"number": 64, "value": 0}, "group": "control_change"}, {"time": 3713, "annotation": {"number": 64, "value": 71}, "group": "control_change"}, {"time": 3713, "annotation": {"number": 64, "value": 127}, "group": "control_change"}, {"time": 3731, "annotation": {"number": 64, "value": 71}, "group": "control_change"}, {"time": 3731, "annotation": {"number": 64, "value": 0}, "group": "control_change"}, {"time": 3732, "annotation": {"number": 64, "value": 78}, "group": "control_change"}, {"time": 3736, "annotation": {"number": 64, "value": 71}, "group": "control_change"}, {"time": 3736, "annotation": {"number": 64, "value": 127}, "group": "control_change"}, {"time": 3755, "annotation": {"number": 64, "value": 71}, "group": "control_change"}, {"time": 3755, "annotation": {"number": 64, "value": 0}, "group": "control_change"}, {"time": 3760, "annotation": {"number": 64, "value": 71}, "group": "control_change"}, {"time": 3761, "annotation": {"number": 64, "value": 127}, "group": "control_change"}, {"time": 3768, "annotation": {"number": 64, "value": 79}, "group": "control_change"}, {"time": 3771, "annotation": {"number": 64, "value": 71}, "group": "control_change"}, {"time": 3771, "annotation": {"number": 64, "value": 0}, "group": "control_change"}, {"time": 3774, "annotation": {"number": 64, "value": 71}, "group": "control_change"}, {"time": 3775, "annotation": {"number": 64, "value": 127}, "group": "control_change"}, {"time": 3781, "annotation": {"number": 64, "value": 71}, "group": "control_change"}, {"time": 3781, "annotation": {"number": 64, "value": 0}, "group": "control_change"}, {"time": 3785, "annotation": {"number": 64, "value": 71}, "group": "control_change"}, {"time": 3787, "annotation": {"number": 64, "value": 127}, "group": "control_change"}, {"time": 3792, "annotation": {"number": 64, "value": 80}, "group": "control_change"}, {"time": 3811, "annotation": {"number": 64, "value": 71}, "group": "control_change"}, {"time": 3811, "annotation": {"number": 64, "value": 0}, "group": "control_change"}, {"time": 3814, "annotation": {"number": 64, "value": 71}, "group": "control_change"}, {"time": 3815, "annotation": {"number": 64, "value": 127}, "group": "control_change"}, {"time": 3828, "annotation": {"number": 64, "value": 71}, "group": "control_change"}, {"time": 3828, "annotation": {"number": 64, "value": 0}, "group": "control_change"}, {"time": 3833, "annotation": {"number": 64, "value": 71}, "group": "control_change"}, {"time": 3834, "annotation": {"number": 64, "value": 127}, "group": "control_change"}, {"time": 3851, "annotation": {"number": 64, "value": 71}, "group": "control_change"}, {"time": 3851, "annotation": {"number": 64, "value": 0}, "group": "control_change"}, {"time": 3852, "annotation": {"number": 64, "value": 81}, "group": "control_change"}, {"time": 3857, "annotation": {"number": 64, "value": 71}, "group": "control_change"}, {"time": 3857, "annotation": {"number": 64, "value": 127}, "group": "control_change"}, {"time": 3875, "annotation": {"number": 64, "value": 71}, "group": "control_change"}, {"time": 3875, "annotation": {"number": 64, "value": 0}, "group": "control_change"}, {"time": 3880, "annotation": {"number": 64, "value": 71}, "group": "control_change"}, {"time": 3882, "annotation": {"number": 64, "value": 127}, "group": "control_change"}, {"time": 3900, "annotation": {"number": 64, "value": 82}, "group": "control_change"}, {"time": 3912, "annotation": {"number": 64, "value": 83}, "group": "control_change"}, {"time": 3923, "annotation": {"number": 64, "value": 71}, "group": "control_change"}, {"time": 3923, "annotation": {"number": 64, "value": 0}, "group": "control_change"}, {"time": 3927, "annotation": {"number": 64, "value": 71}, "group": "control_change"}, {"time": 3928, "annotation": {"number": 64, "value": 127}, "group": "control_change"}, {"time": 3948, "annotation": {"number": 64, "value": 84}, "group": "control_change"}, {"time": 3972, "annotation": {"number": 64, "value": 71}, "group": "control_change"}, {"time": 3973, "annotation": {"number": 64, "value": 0}, "group": "control_change"}, {"time": 3977, "annotation": {"number": 64, "value": 71}, "group": "control_change"}, {"time": 3978, "annotation": {"number": 64, "value": 127}, "group": "control_change"}, {"time": 3998, "annotation": {"number": 64, "value": 71}, "group": "control_change"}, {"time": 3998, "annotation": {"number": 64, "value": 0}, "group": "control_change"}, {"time": 4002, "annotation": {"number": 64, "value": 71}, "group": "control_change"}, {"time": 4003, "annotation": {"number": 64, "value": 127}, "group": "control_change"}, {"time": 4020, "annotation": {"number": 64, "value": 71}, "group": "control_change"}, {"time": 4021, "annotation": {"number": 64, "value": 0}, "group": "control_change"}, {"time": 4025, "annotation": {"number": 64, "value": 71}, "group": "control_change"}, {"time": 4027, "annotation": {"number": 64, "value": 127}, "group": "control_change"}, {"time": 4056, "annotation": {"number": 64, "value": 85}, "group": "control_change"}, {"time": 4067, "annotation": {"number": 64, "value": 71}, "group": "control_change"}, {"time": 4068, "annotation": {"number": 64, "value": 0}, "group": "control_change"}, {"time": 4073, "annotation": {"number": 64, "value": 71}, "group": "control_change"}, {"time": 4075, "annotation": {"number": 64, "value": 127}, "group": "control_change"}, {"time": 4092, "annotation": {"number": 64, "value": 71}, "group": "control_change"}, {"time": 4092, "annotation": {"number": 64, "value": 0}, "group": "control_change"}, {"time": 4097, "annotation": {"number": 64, "value": 71}, "group": "control_change"}, {"time": 4099, "annotation": {"number": 64, "value": 127}, "group": "control_change"}, {"time": 4116, "annotation": {"number": 64, "value": 71}, "group": "control_change"}, {"time": 4116, "annotation": {"number": 64, "value": 0}, "group": "control_change"}, {"time": 4121, "annotation": {"number": 64, "value": 71}, "group": "control_change"}, {"time": 4123, "annotation": {"number": 64, "value": 127}, "group": "control_change"}, {"time": 4163, "annotation": {"number": 64, "value": 71}, "group": "control_change"}, {"time": 4163, "annotation": {"number": 64, "value": 0}, "group": "control_change"}, {"time": 4169, "annotation": {"number": 64, "value": 71}, "group": "control_change"}, {"time": 4170, "annotation": {"number": 64, "value": 127}, "group": "control_change"}, {"time": 4187, "annotation": {"number": 64, "value": 71}, "group": "control_change"}, {"time": 4188, "annotation": {"number": 64, "value": 0}, "group": "control_change"}, {"time": 4192, "annotation": {"number": 64, "value": 71}, "group": "control_change"}, {"time": 4194, "annotation": {"number": 64, "value": 127}, "group": "control_change"}, {"time": 4211, "annotation": {"number": 64, "value": 71}, "group": "control_change"}, {"time": 4212, "annotation": {"number": 64, "value": 0}, "group": "control_change"}, {"time": 4217, "annotation": {"number": 64, "value": 71}, "group": "control_change"}, {"time": 4218, "annotation": {"number": 64, "value": 127}, "group": "control_change"}, {"time": 4248, "annotation": {"number": 64, "value": 86}, "group": "control_change"}, {"time": 4259, "annotation": {"number": 64, "value": 71}, "group": "control_change"}, {"time": 4260, "annotation": {"number": 64, "value": 0}, "group": "control_change"}, {"time": 4265, "annotation": {"number": 64, "value": 71}, "group": "control_change"}, {"time": 4266, "annotation": {"number": 64, "value": 127}, "group": "control_change"}, {"time": 4281, "annotation": {"number": 64, "value": 71}, "group": "control_change"}, {"time": 4281, "annotation": {"number": 64, "value": 0}, "group": "control_change"}, {"time": 4285, "annotation": {"number": 64, "value": 71}, "group": "control_change"}, {"time": 4286, "annotation": {"number": 64, "value": 127}, "group": "control_change"}, {"time": 4306, "annotation": {"number": 64, "value": 71}, "group": "control_change"}, {"time": 4307, "annotation": {"number": 64, "value": 0}, "group": "control_change"}, {"time": 4312, "annotation": {"number": 64, "value": 71}, "group": "control_change"}, {"time": 4314, "annotation": {"number": 64, "value": 127}, "group": "control_change"}, {"time": 4354, "annotation": {"number": 64, "value": 71}, "group": "control_change"}, {"time": 4355, "annotation": {"number": 64, "value": 0}, "group": "control_change"}, {"time": 4359, "annotation": {"number": 64, "value": 71}, "group": "control_change"}, {"time": 4360, "annotation": {"number": 64, "value": 127}, "group": "control_change"}, {"time": 4380, "annotation": {"number": 64, "value": 71}, "group": "control_change"}, {"time": 4380, "annotation": {"number": 64, "value": 0}, "group": "control_change"}, {"time": 4384, "annotation": {"number": 64, "value": 71}, "group": "control_change"}, {"time": 4385, "annotation": {"number": 64, "value": 127}, "group": "control_change"}, {"time": 4404, "annotation": {"number": 64, "value": 71}, "group": "control_change"}, {"time": 4404, "annotation": {"number": 64, "value": 0}, "group": "control_change"}, {"time": 4409, "annotation": {"number": 64, "value": 71}, "group": "control_change"}, {"time": 4410, "annotation": {"number": 64, "value": 127}, "group": "control_change"}, {"time": 4452, "annotation": {"number": 64, "value": 71}, "group": "control_change"}, {"time": 4452, "annotation": {"number": 64, "value": 0}, "group": "control_change"}, {"time": 4457, "annotation": {"number": 64, "value": 71}, "group": "control_change"}, {"time": 4459, "annotation": {"number": 64, "value": 127}, "group": "control_change"}, {"time": 4478, "annotation": {"number": 64, "value": 71}, "group": "control_change"}, {"time": 4478, "annotation": {"number": 64, "value": 0}, "group": "control_change"}, {"time": 4483, "annotation": {"number": 64, "value": 71}, "group": "control_change"}, {"time": 4485, "annotation": {"number": 64, "value": 127}, "group": "control_change"}, {"time": 4501, "annotation": {"number": 64, "value": 71}, "group": "control_change"}, {"time": 4502, "annotation": {"number": 64, "value": 0}, "group": "control_change"}, {"time": 4506, "annotation": {"number": 64, "value": 71}, "group": "control_change"}, {"time": 4507, "annotation": {"number": 64, "value": 127}, "group": "control_change"}, {"time": 4525, "annotation": {"number": 64, "value": 71}, "group": "control_change"}, {"time": 4526, "annotation": {"number": 64, "value": 0}, "group": "control_change"}, {"time": 4529, "annotation": {"number": 64, "value": 71}, "group": "control_change"}, {"time": 4530, "annotation": {"number": 64, "value": 127}, "group": "control_change"}, {"time": 4547, "annotation": {"number": 64, "value": 71}, "group": "control_change"}, {"time": 4547, "annotation": {"number": 64, "value": 0}, "group": "control_change"}, {"time": 4552, "annotation": {"number": 64, "value": 71}, "group": "control_change"}, {"time": 4553, "annotation": {"number": 64, "value": 127}, "group": "control_change"}, {"time": 4572, "annotation": {"number": 64, "value": 71}, "group": "control_change"}, {"time": 4572, "annotation": {"number": 64, "value": 0}, "group": "control_change"}, {"time": 4576, "annotation": {"number": 64, "value": 71}, "group": "control_change"}, {"time": 4577, "annotation": {"number": 64, "value": 127}, "group": "control_change"}, {"time": 4595, "annotation": {"number": 64, "value": 71}, "group": "control_change"}, {"time": 4596, "annotation": {"number": 64, "value": 0}, "group": "control_change"}, {"time": 4600, "annotation": {"number": 64, "value": 71}, "group": "control_change"}, {"time": 4602, "annotation": {"number": 64, "value": 127}, "group": "control_change"}, {"time": 4608, "annotation": {"number": 64, "value": 85}, "group": "control_change"}, {"time": 4618, "annotation": {"number": 64, "value": 71}, "group": "control_change"}, {"time": 4619, "annotation": {"number": 64, "value": 0}, "group": "control_change"}, {"time": 4623, "annotation": {"number": 64, "value": 71}, "group": "control_change"}, {"time": 4623, "annotation": {"number": 64, "value": 127}, "group": "control_change"}, {"time": 4632, "annotation": {"number": 64, "value": 84}, "group": "control_change"}, {"time": 4644, "annotation": {"number": 64, "value": 71}, "group": "control_change"}, {"time": 4644, "annotation": {"number": 64, "value": 0}, "group": "control_change"}, {"time": 4648, "annotation": {"number": 64, "value": 71}, "group": "control_change"}, {"time": 4650, "annotation": {"number": 64, "value": 127}, "group": "control_change"}, {"time": 4668, "annotation": {"number": 64, "value": 71}, "group": "control_change"}, {"time": 4668, "annotation": {"number": 64, "value": 0}, "group": "control_change"}, {"time": 4673, "annotation": {"number": 64, "value": 71}, "group": "control_change"}, {"time": 4674, "annotation": {"number": 64, "value": 127}, "group": "control_change"}, {"time": 4692, "annotation": {"number": 64, "value": 71}, "group": "control_change"}, {"time": 4692, "annotation": {"number": 64, "value": 0}, "group": "control_change"}, {"time": 4697, "annotation": {"number": 64, "value": 71}, "group": "control_change"}, {"time": 4699, "annotation": {"number": 64, "value": 127}, "group": "control_change"}, {"time": 4740, "annotation": {"number": 64, "value": 71}, "group": "control_change"}, {"time": 4740, "annotation": {"number": 64, "value": 0}, "group": "control_change"}, {"time": 4745, "annotation": {"number": 64, "value": 71}, "group": "control_change"}, {"time": 4747, "annotation": {"number": 64, "value": 127}, "group": "control_change"}, {"time": 4787, "annotation": {"number": 64, "value": 71}, "group": "control_change"}, {"time": 4788, "annotation": {"number": 64, "value": 0}, "group": "control_change"}, {"time": 4793, "annotation": {"number": 64, "value": 71}, "group": "control_change"}, {"time": 4795, "annotation": {"number": 64, "value": 127}, "group": "control_change"}, {"time": 4812, "annotation": {"number": 64, "value": 83}, "group": "control_change"}, {"time": 4812, "annotation": {"number": 64, "value": 71}, "group": "control_change"}, {"time": 4812, "annotation": {"number": 64, "value": 0}, "group": "control_change"}, {"time": 4818, "annotation": {"number": 64, "value": 71}, "group": "control_change"}, {"time": 4819, "annotation": {"number": 64, "value": 127}, "group": "control_change"}, {"time": 4836, "annotation": {"number": 64, "value": 71}, "group": "control_change"}, {"time": 4837, "annotation": {"number": 64, "value": 0}, "group": "control_change"}, {"time": 4842, "annotation": {"number": 64, "value": 71}, "group": "control_change"}, {"time": 4844, "annotation": {"number": 64, "value": 127}, "group": "control_change"}, {"time": 4860, "annotation": {"number": 64, "value": 81}, "group": "control_change"}, {"time": 4872, "annotation": {"number": 64, "value": 81}, "group": "control_change"}, {"time": 4884, "annotation": {"number": 64, "value": 71}, "group": "control_change"}, {"time": 4885, "annotation": {"number": 64, "value": 0}, "group": "control_change"}, {"time": 4889, "annotation": {"number": 64, "value": 71}, "group": "control_change"}, {"time": 4890, "annotation": {"number": 64, "value": 127}, "group": "control_change"}, {"time": 4908, "annotation": {"number": 64, "value": 71}, "group": "control_change"}, {"time": 4908, "annotation": {"number": 64, "value": 0}, "group": "control_change"}, {"time": 4913, "annotation": {"number": 64, "value": 71}, "group": "control_change"}, {"time": 4914, "annotation": {"number": 64, "value": 127}, "group": "control_change"}, {"time": 4932, "annotation": {"number": 64, "value": 71}, "group": "control_change"}, {"time": 4932, "annotation": {"number": 64, "value": 0}, "group": "control_change"}, {"time": 4937, "annotation": {"number": 64, "value": 71}, "group": "control_change"}, {"time": 4938, "annotation": {"number": 64, "value": 127}, "group": "control_change"}, {"time": 4980, "annotation": {"number": 64, "value": 71}, "group": "control_change"}, {"time": 4980, "annotation": {"number": 64, "value": 0}, "group": "control_change"}, {"time": 4984, "annotation": {"number": 64, "value": 71}, "group": "control_change"}, {"time": 4986, "annotation": {"number": 64, "value": 127}, "group": "control_change"}, {"time": 5004, "annotation": {"number": 64, "value": 71}, "group": "control_change"}, {"time": 5004, "annotation": {"number": 64, "value": 0}, "group": "control_change"}, {"time": 5008, "annotation": {"number": 64, "value": 71}, "group": "control_change"}, {"time": 5009, "annotation": {"number": 64, "value": 127}, "group": "control_change"}, {"time": 5028, "annotation": {"number": 64, "value": 71}, "group": "control_change"}, {"time": 5029, "annotation": {"number": 64, "value": 0}, "group": "control_change"}, {"time": 5033, "annotation": {"number": 64, "value": 71}, "group": "control_change"}, {"time": 5034, "annotation": {"number": 64, "value": 127}, "group": "control_change"}, {"time": 5076, "annotation": {"number": 64, "value": 71}, "group": "control_change"}, {"time": 5076, "annotation": {"number": 64, "value": 0}, "group": "control_change"}, {"time": 5080, "annotation": {"number": 64, "value": 71}, "group": "control_change"}, {"time": 5081, "annotation": {"number": 64, "value": 127}, "group": "control_change"}, {"time": 5100, "annotation": {"number": 64, "value": 71}, "group": "control_change"}, {"time": 5100, "annotation": {"number": 64, "value": 0}, "group": "control_change"}, {"time": 5104, "annotation": {"number": 64, "value": 71}, "group": "control_change"}, {"time": 5106, "annotation": {"number": 64, "value": 127}, "group": "control_change"}, {"time": 5123, "annotation": {"number": 64, "value": 71}, "group": "control_change"}, {"time": 5124, "annotation": {"number": 64, "value": 0}, "group": "control_change"}, {"time": 5124, "annotation": {"number": 64, "value": 82}, "group": "control_change"}, {"time": 5128, "annotation": {"number": 64, "value": 71}, "group": "control_change"}, {"time": 5129, "annotation": {"number": 64, "value": 127}, "group": "control_change"}, {"time": 5171, "annotation": {"number": 64, "value": 71}, "group": "control_change"}, {"time": 5172, "annotation": {"number": 64, "value": 0}, "group": "control_change"}, {"time": 5176, "annotation": {"number": 64, "value": 71}, "group": "control_change"}, {"time": 5176, "annotation": {"number": 64, "value": 127}, "group": "control_change"}, {"time": 5196, "annotation": {"number": 64, "value": 71}, "group": "control_change"}, {"time": 5196, "annotation": {"number": 64, "value": 0}, "group": "control_change"}, {"time": 5201, "annotation": {"number": 64, "value": 71}, "group": "control_change"}, {"time": 5203, "annotation": {"number": 64, "value": 127}, "group": "control_change"}, {"time": 5219, "annotation": {"number": 64, "value": 71}, "group": "control_change"}, {"time": 5219, "annotation": {"number": 64, "value": 0}, "group": "control_change"}, {"time": 5225, "annotation": {"number": 64, "value": 71}, "group": "control_change"}, {"time": 5226, "annotation": {"number": 64, "value": 127}, "group": "control_change"}, {"time": 5315, "annotation": {"number": 64, "value": 71}, "group": "control_change"}, {"time": 5315, "annotation": {"number": 64, "value": 0}, "group": "control_change"}, {"time": 5316, "annotation": {"number": 64, "value": 0}, "group": "control_change"}]}]}