{"metadata": {"schema_version": "0.2", "title": "None", "source_filename": "030.mid", "source_format": "midi"}, "resolution": 12, "tempos": [{"time": 0, "qpm": 60.0}], "time_signatures": [{"time": 0, "numerator": 1, "denominator": 4}], "tracks": [{"program": 0, "is_drum": false, "name": "MELODY", "notes": [{"time": 341, "pitch": 79, "duration": 3, "velocity": 80}, {"time": 347, "pitch": 79, "duration": 2, "velocity": 80}, {"time": 350, "pitch": 77, "duration": 1, "velocity": 80}, {"time": 353, "pitch": 79, "duration": 3, "velocity": 80}, {"time": 359, "pitch": 79, "duration": 1, "velocity": 80}, {"time": 362, "pitch": 77, "duration": 1, "velocity": 80}, {"time": 365, "pitch": 79, "duration": 13, "velocity": 80}, {"time": 383, "pitch": 72, "duration": 3, "velocity": 80}, {"time": 386, "pitch": 79, "duration": 2, "velocity": 80}, {"time": 389, "pitch": 77, "duration": 1, "velocity": 80}, {"time": 392, "pitch": 77, "duration": 1, "velocity": 80}, {"time": 395, "pitch": 77, "duration": 1, "velocity": 80}, {"time": 398, "pitch": 77, "duration": 1, "velocity": 80}, {"time": 401, "pitch": 77, "duration": 3, "velocity": 80}, {"time": 407, "pitch": 74, "duration": 2, "velocity": 80}, {"time": 410, "pitch": 75, "duration": 6, "velocity": 80}, {"time": 416, "pitch": 72, "duration": 17, "velocity": 80}, {"time": 437, "pitch": 84, "duration": 3, "velocity": 80}, {"time": 443, "pitch": 84, "duration": 1, "velocity": 80}, {"time": 446, "pitch": 82, "duration": 1, "velocity": 80}, {"time": 449, "pitch": 84, "duration": 3, "velocity": 80}, {"time": 455, "pitch": 79, "duration": 3, "velocity": 80}, {"time": 458, "pitch": 82, "duration": 5, "velocity": 80}, {"time": 464, "pitch": 77, "duration": 11, "velocity": 80}, {"time": 479, "pitch": 75, "duration": 2, "velocity": 81}, {"time": 482, "pitch": 77, "duration": 3, "velocity": 81}, {"time": 485, "pitch": 79, "duration": 3, "velocity": 81}, {"time": 491, "pitch": 80, "duration": 4, "velocity": 82}, {"time": 497, "pitch": 79, "duration": 4, "velocity": 82}, {"time": 503, "pitch": 77, "duration": 5, "velocity": 82}, {"time": 509, "pitch": 79, "duration": 11, "velocity": 82}, {"time": 518, "pitch": 67, "duration": 3, "velocity": 83}, {"time": 521, "pitch": 79, "duration": 4, "velocity": 83}, {"time": 527, "pitch": 82, "duration": 1, "velocity": 74}, {"time": 530, "pitch": 79, "duration": 4, "velocity": 73}, {"time": 536, "pitch": 77, "duration": 5, "velocity": 73}, {"time": 545, "pitch": 79, "duration": 4, "velocity": 73}, {"time": 551, "pitch": 82, "duration": 2, "velocity": 73}, {"time": 554, "pitch": 79, "duration": 5, "velocity": 73}, {"time": 560, "pitch": 77, "duration": 12, "velocity": 73}, {"time": 575, "pitch": 75, "duration": 4, "velocity": 73}, {"time": 579, "pitch": 74, "duration": 7, "velocity": 73}, {"time": 586, "pitch": 72, "duration": 15, "velocity": 73}, {"time": 629, "pitch": 79, "duration": 3, "velocity": 74}, {"time": 635, "pitch": 79, "duration": 2, "velocity": 74}, {"time": 638, "pitch": 77, "duration": 1, "velocity": 74}, {"time": 641, "pitch": 79, "duration": 3, "velocity": 74}, {"time": 647, "pitch": 79, "duration": 1, "velocity": 74}, {"time": 650, "pitch": 77, "duration": 1, "velocity": 74}, {"time": 653, "pitch": 79, "duration": 13, "velocity": 74}, {"time": 671, "pitch": 72, "duration": 3, "velocity": 74}, {"time": 674, "pitch": 79, "duration": 2, "velocity": 74}, {"time": 677, "pitch": 77, "duration": 1, "velocity": 74}, {"time": 680, "pitch": 77, "duration": 1, "velocity": 74}, {"time": 683, "pitch": 77, "duration": 1, "velocity": 74}, {"time": 686, "pitch": 77, "duration": 1, "velocity": 74}, {"time": 689, "pitch": 77, "duration": 3, "velocity": 74}, {"time": 695, "pitch": 74, "duration": 2, "velocity": 74}, {"time": 698, "pitch": 75, "duration": 6, "velocity": 74}, {"time": 704, "pitch": 72, "duration": 17, "velocity": 74}, {"time": 725, "pitch": 84, "duration": 3, "velocity": 75}, {"time": 731, "pitch": 84, "duration": 1, "velocity": 75}, {"time": 734, "pitch": 82, "duration": 1, "velocity": 75}, {"time": 737, "pitch": 84, "duration": 3, "velocity": 75}, {"time": 743, "pitch": 79, "duration": 3, "velocity": 75}, {"time": 746, "pitch": 82, "duration": 5, "velocity": 75}, {"time": 752, "pitch": 77, "duration": 11, "velocity": 75}, {"time": 767, "pitch": 75, "duration": 2, "velocity": 75}, {"time": 770, "pitch": 77, "duration": 3, "velocity": 74}, {"time": 773, "pitch": 79, "duration": 3, "velocity": 74}, {"time": 779, "pitch": 80, "duration": 4, "velocity": 74}, {"time": 785, "pitch": 79, "duration": 4, "velocity": 74}, {"time": 791, "pitch": 77, "duration": 5, "velocity": 74}, {"time": 797, "pitch": 79, "duration": 8, "velocity": 74}, {"time": 806, "pitch": 67, "duration": 3, "velocity": 74}, {"time": 809, "pitch": 79, "duration": 4, "velocity": 74}, {"time": 815, "pitch": 82, "duration": 1, "velocity": 75}, {"time": 818, "pitch": 79, "duration": 4, "velocity": 74}, {"time": 824, "pitch": 77, "duration": 5, "velocity": 75}, {"time": 830, "pitch": 67, "duration": 2, "velocity": 74}, {"time": 833, "pitch": 79, "duration": 4, "velocity": 74}, {"time": 839, "pitch": 82, "duration": 2, "velocity": 74}, {"time": 842, "pitch": 79, "duration": 5, "velocity": 74}, {"time": 848, "pitch": 77, "duration": 12, "velocity": 74}, {"time": 863, "pitch": 75, "duration": 3, "velocity": 74}, {"time": 866, "pitch": 74, "duration": 5, "velocity": 74}, {"time": 875, "pitch": 75, "duration": 5, "velocity": 74}, {"time": 881, "pitch": 72, "duration": 18, "velocity": 74}, {"time": 905, "pitch": 79, "duration": 4, "velocity": 72}, {"time": 911, "pitch": 82, "duration": 3, "velocity": 72}, {"time": 917, "pitch": 84, "duration": 4, "velocity": 72}, {"time": 923, "pitch": 82, "duration": 1, "velocity": 72}, {"time": 926, "pitch": 80, "duration": 6, "velocity": 72}, {"time": 935, "pitch": 79, "duration": 2, "velocity": 72}, {"time": 938, "pitch": 79, "duration": 3, "velocity": 72}, {"time": 944, "pitch": 77, "duration": 10, "velocity": 72}, {"time": 959, "pitch": 79, "duration": 3, "velocity": 72}, {"time": 962, "pitch": 80, "duration": 2, "velocity": 72}, {"time": 965, "pitch": 82, "duration": 5, "velocity": 72}, {"time": 971, "pitch": 79, "duration": 4, "velocity": 72}, {"time": 974, "pitch": 77, "duration": 6, "velocity": 72}, {"time": 983, "pitch": 79, "duration": 3, "velocity": 72}, {"time": 986, "pitch": 77, "duration": 5, "velocity": 72}, {"time": 992, "pitch": 76, "duration": 13, "velocity": 72}, {"time": 1007, "pitch": 77, "duration": 3, "velocity": 72}, {"time": 1010, "pitch": 79, "duration": 2, "velocity": 72}, {"time": 1013, "pitch": 80, "duration": 4, "velocity": 72}, {"time": 1019, "pitch": 79, "duration": 2, "velocity": 72}, {"time": 1022, "pitch": 75, "duration": 3, "velocity": 72}, {"time": 1028, "pitch": 72, "duration": 5, "velocity": 72}, {"time": 1037, "pitch": 80, "duration": 4, "velocity": 72}, {"time": 1043, "pitch": 79, "duration": 1, "velocity": 72}, {"time": 1046, "pitch": 75, "duration": 5, "velocity": 72}, {"time": 1052, "pitch": 77, "duration": 4, "velocity": 72}, {"time": 1061, "pitch": 77, "duration": 4, "velocity": 72}, {"time": 1067, "pitch": 79, "duration": 1, "velocity": 72}, {"time": 1070, "pitch": 79, "duration": 13, "velocity": 72}, {"time": 1097, "pitch": 79, "duration": 4, "velocity": 73}, {"time": 1103, "pitch": 82, "duration": 3, "velocity": 72}, {"time": 1109, "pitch": 84, "duration": 4, "velocity": 73}, {"time": 1115, "pitch": 82, "duration": 2, "velocity": 73}, {"time": 1118, "pitch": 80, "duration": 5, "velocity": 73}, {"time": 1127, "pitch": 79, "duration": 1, "velocity": 73}, {"time": 1130, "pitch": 79, "duration": 3, "velocity": 73}, {"time": 1136, "pitch": 77, "duration": 11, "velocity": 73}, {"time": 1148, "pitch": 79, "duration": 1, "velocity": 73}, {"time": 1151, "pitch": 79, "duration": 1, "velocity": 73}, {"time": 1154, "pitch": 80, "duration": 1, "velocity": 73}, {"time": 1157, "pitch": 83, "duration": 5, "velocity": 73}, {"time": 1163, "pitch": 79, "duration": 3, "velocity": 73}, {"time": 1166, "pitch": 77, "duration": 6, "velocity": 73}, {"time": 1175, "pitch": 79, "duration": 4, "velocity": 74}, {"time": 1178, "pitch": 77, "duration": 3, "velocity": 74}, {"time": 1184, "pitch": 75, "duration": 12, "velocity": 74}, {"time": 1196, "pitch": 75, "duration": 3, "velocity": 74}, {"time": 1199, "pitch": 77, "duration": 3, "velocity": 74}, {"time": 1202, "pitch": 79, "duration": 1, "velocity": 74}, {"time": 1205, "pitch": 80, "duration": 4, "velocity": 74}, {"time": 1211, "pitch": 79, "duration": 3, "velocity": 74}, {"time": 1214, "pitch": 75, "duration": 5, "velocity": 74}, {"time": 1220, "pitch": 72, "duration": 6, "velocity": 75}, {"time": 1229, "pitch": 80, "duration": 3, "velocity": 76}, {"time": 1235, "pitch": 79, "duration": 1, "velocity": 76}, {"time": 1238, "pitch": 75, "duration": 3, "velocity": 76}, {"time": 1244, "pitch": 77, "duration": 5, "velocity": 76}, {"time": 1250, "pitch": 77, "duration": 1, "velocity": 76}, {"time": 1253, "pitch": 77, "duration": 5, "velocity": 76}, {"time": 1262, "pitch": 75, "duration": 26, "velocity": 77}, {"time": 1613, "pitch": 79, "duration": 3, "velocity": 77}, {"time": 1619, "pitch": 79, "duration": 2, "velocity": 77}, {"time": 1622, "pitch": 77, "duration": 1, "velocity": 76}, {"time": 1625, "pitch": 79, "duration": 3, "velocity": 77}, {"time": 1631, "pitch": 79, "duration": 1, "velocity": 77}, {"time": 1634, "pitch": 77, "duration": 1, "velocity": 76}, {"time": 1637, "pitch": 79, "duration": 13, "velocity": 77}, {"time": 1655, "pitch": 72, "duration": 3, "velocity": 78}, {"time": 1658, "pitch": 79, "duration": 2, "velocity": 78}, {"time": 1661, "pitch": 77, "duration": 1, "velocity": 78}, {"time": 1664, "pitch": 77, "duration": 1, "velocity": 78}, {"time": 1667, "pitch": 77, "duration": 1, "velocity": 78}, {"time": 1670, "pitch": 77, "duration": 1, "velocity": 78}, {"time": 1673, "pitch": 77, "duration": 3, "velocity": 78}, {"time": 1679, "pitch": 74, "duration": 2, "velocity": 78}, {"time": 1682, "pitch": 75, "duration": 6, "velocity": 78}, {"time": 1688, "pitch": 72, "duration": 17, "velocity": 78}, {"time": 1709, "pitch": 84, "duration": 3, "velocity": 78}, {"time": 1715, "pitch": 84, "duration": 1, "velocity": 78}, {"time": 1718, "pitch": 82, "duration": 1, "velocity": 78}, {"time": 1721, "pitch": 84, "duration": 3, "velocity": 78}, {"time": 1727, "pitch": 79, "duration": 3, "velocity": 78}, {"time": 1730, "pitch": 82, "duration": 5, "velocity": 78}, {"time": 1736, "pitch": 77, "duration": 11, "velocity": 78}, {"time": 1751, "pitch": 75, "duration": 2, "velocity": 78}, {"time": 1754, "pitch": 77, "duration": 3, "velocity": 78}, {"time": 1757, "pitch": 79, "duration": 3, "velocity": 78}, {"time": 1763, "pitch": 80, "duration": 4, "velocity": 78}, {"time": 1769, "pitch": 79, "duration": 4, "velocity": 78}, {"time": 1775, "pitch": 77, "duration": 5, "velocity": 78}, {"time": 1781, "pitch": 79, "duration": 11, "velocity": 78}, {"time": 1790, "pitch": 67, "duration": 3, "velocity": 78}, {"time": 1793, "pitch": 79, "duration": 4, "velocity": 78}, {"time": 1799, "pitch": 82, "duration": 1, "velocity": 78}, {"time": 1802, "pitch": 79, "duration": 4, "velocity": 78}, {"time": 1808, "pitch": 77, "duration": 5, "velocity": 78}, {"time": 1817, "pitch": 79, "duration": 4, "velocity": 78}, {"time": 1823, "pitch": 82, "duration": 2, "velocity": 78}, {"time": 1826, "pitch": 79, "duration": 5, "velocity": 78}, {"time": 1832, "pitch": 77, "duration": 12, "velocity": 78}, {"time": 1847, "pitch": 75, "duration": 4, "velocity": 78}, {"time": 1851, "pitch": 74, "duration": 7, "velocity": 78}, {"time": 1858, "pitch": 72, "duration": 15, "velocity": 78}, {"time": 1901, "pitch": 79, "duration": 3, "velocity": 80}, {"time": 1907, "pitch": 79, "duration": 2, "velocity": 80}, {"time": 1910, "pitch": 77, "duration": 1, "velocity": 80}, {"time": 1913, "pitch": 79, "duration": 3, "velocity": 80}, {"time": 1919, "pitch": 79, "duration": 1, "velocity": 80}, {"time": 1922, "pitch": 77, "duration": 1, "velocity": 80}, {"time": 1925, "pitch": 79, "duration": 13, "velocity": 80}, {"time": 1943, "pitch": 72, "duration": 3, "velocity": 81}, {"time": 1946, "pitch": 79, "duration": 2, "velocity": 80}, {"time": 1949, "pitch": 77, "duration": 1, "velocity": 80}, {"time": 1952, "pitch": 77, "duration": 1, "velocity": 80}, {"time": 1955, "pitch": 77, "duration": 1, "velocity": 81}, {"time": 1958, "pitch": 77, "duration": 1, "velocity": 81}, {"time": 1961, "pitch": 77, "duration": 3, "velocity": 81}, {"time": 1967, "pitch": 74, "duration": 2, "velocity": 81}, {"time": 1970, "pitch": 75, "duration": 6, "velocity": 81}, {"time": 1976, "pitch": 72, "duration": 17, "velocity": 81}, {"time": 1997, "pitch": 84, "duration": 3, "velocity": 81}, {"time": 2003, "pitch": 84, "duration": 1, "velocity": 81}, {"time": 2006, "pitch": 82, "duration": 1, "velocity": 81}, {"time": 2009, "pitch": 84, "duration": 3, "velocity": 81}, {"time": 2015, "pitch": 79, "duration": 3, "velocity": 81}, {"time": 2018, "pitch": 82, "duration": 5, "velocity": 81}, {"time": 2024, "pitch": 77, "duration": 11, "velocity": 82}, {"time": 2039, "pitch": 75, "duration": 2, "velocity": 83}, {"time": 2042, "pitch": 77, "duration": 3, "velocity": 83}, {"time": 2045, "pitch": 79, "duration": 3, "velocity": 83}, {"time": 2051, "pitch": 80, "duration": 4, "velocity": 83}, {"time": 2057, "pitch": 79, "duration": 4, "velocity": 83}, {"time": 2063, "pitch": 77, "duration": 5, "velocity": 83}, {"time": 2069, "pitch": 79, "duration": 8, "velocity": 83}, {"time": 2078, "pitch": 67, "duration": 3, "velocity": 83}, {"time": 2081, "pitch": 79, "duration": 4, "velocity": 83}, {"time": 2087, "pitch": 82, "duration": 1, "velocity": 83}, {"time": 2090, "pitch": 79, "duration": 4, "velocity": 83}, {"time": 2096, "pitch": 77, "duration": 5, "velocity": 83}, {"time": 2102, "pitch": 67, "duration": 2, "velocity": 83}, {"time": 2105, "pitch": 79, "duration": 4, "velocity": 83}, {"time": 2111, "pitch": 82, "duration": 2, "velocity": 83}, {"time": 2114, "pitch": 79, "duration": 5, "velocity": 83}, {"time": 2120, "pitch": 77, "duration": 12, "velocity": 83}, {"time": 2135, "pitch": 75, "duration": 3, "velocity": 85}, {"time": 2138, "pitch": 74, "duration": 5, "velocity": 83}, {"time": 2147, "pitch": 75, "duration": 5, "velocity": 85}, {"time": 2153, "pitch": 72, "duration": 18, "velocity": 85}, {"time": 2177, "pitch": 79, "duration": 4, "velocity": 84}, {"time": 2183, "pitch": 82, "duration": 3, "velocity": 84}, {"time": 2189, "pitch": 84, "duration": 4, "velocity": 84}, {"time": 2195, "pitch": 82, "duration": 1, "velocity": 84}, {"time": 2198, "pitch": 80, "duration": 6, "velocity": 84}, {"time": 2207, "pitch": 79, "duration": 2, "velocity": 84}, {"time": 2210, "pitch": 79, "duration": 3, "velocity": 84}, {"time": 2216, "pitch": 77, "duration": 10, "velocity": 84}, {"time": 2231, "pitch": 79, "duration": 3, "velocity": 84}, {"time": 2234, "pitch": 80, "duration": 2, "velocity": 84}, {"time": 2237, "pitch": 82, "duration": 5, "velocity": 84}, {"time": 2243, "pitch": 79, "duration": 4, "velocity": 84}, {"time": 2246, "pitch": 77, "duration": 6, "velocity": 84}, {"time": 2255, "pitch": 79, "duration": 3, "velocity": 84}, {"time": 2258, "pitch": 77, "duration": 5, "velocity": 84}, {"time": 2264, "pitch": 76, "duration": 13, "velocity": 84}, {"time": 2279, "pitch": 77, "duration": 3, "velocity": 83}, {"time": 2282, "pitch": 79, "duration": 2, "velocity": 84}, {"time": 2285, "pitch": 80, "duration": 4, "velocity": 84}, {"time": 2291, "pitch": 79, "duration": 2, "velocity": 83}, {"time": 2294, "pitch": 75, "duration": 3, "velocity": 83}, {"time": 2300, "pitch": 72, "duration": 5, "velocity": 83}, {"time": 2309, "pitch": 80, "duration": 4, "velocity": 83}, {"time": 2315, "pitch": 79, "duration": 1, "velocity": 83}, {"time": 2318, "pitch": 75, "duration": 5, "velocity": 83}, {"time": 2324, "pitch": 77, "duration": 4, "velocity": 83}, {"time": 2333, "pitch": 77, "duration": 4, "velocity": 83}, {"time": 2339, "pitch": 79, "duration": 1, "velocity": 83}, {"time": 2342, "pitch": 79, "duration": 13, "velocity": 83}, {"time": 2369, "pitch": 79, "duration": 4, "velocity": 85}, {"time": 2375, "pitch": 82, "duration": 3, "velocity": 86}, {"time": 2381, "pitch": 84, "duration": 4, "velocity": 85}, {"time": 2387, "pitch": 82, "duration": 2, "velocity": 86}, {"time": 2390, "pitch": 80, "duration": 5, "velocity": 86}, {"time": 2399, "pitch": 79, "duration": 1, "velocity": 87}, {"time": 2402, "pitch": 79, "duration": 3, "velocity": 87}, {"time": 2408, "pitch": 77, "duration": 11, "velocity": 87}, {"time": 2420, "pitch": 79, "duration": 1, "velocity": 87}, {"time": 2423, "pitch": 79, "duration": 1, "velocity": 87}, {"time": 2426, "pitch": 80, "duration": 1, "velocity": 87}, {"time": 2429, "pitch": 83, "duration": 5, "velocity": 87}, {"time": 2435, "pitch": 79, "duration": 3, "velocity": 87}, {"time": 2438, "pitch": 77, "duration": 6, "velocity": 87}, {"time": 2447, "pitch": 79, "duration": 4, "velocity": 87}, {"time": 2450, "pitch": 77, "duration": 3, "velocity": 87}, {"time": 2456, "pitch": 75, "duration": 12, "velocity": 87}, {"time": 2468, "pitch": 75, "duration": 3, "velocity": 87}, {"time": 2471, "pitch": 77, "duration": 3, "velocity": 87}, {"time": 2474, "pitch": 79, "duration": 1, "velocity": 87}, {"time": 2477, "pitch": 80, "duration": 4, "velocity": 87}, {"time": 2483, "pitch": 79, "duration": 3, "velocity": 87}, {"time": 2486, "pitch": 75, "duration": 5, "velocity": 87}, {"time": 2492, "pitch": 72, "duration": 6, "velocity": 87}, {"time": 2501, "pitch": 80, "duration": 3, "velocity": 87}, {"time": 2507, "pitch": 79, "duration": 1, "velocity": 87}, {"time": 2510, "pitch": 75, "duration": 3, "velocity": 87}, {"time": 2516, "pitch": 77, "duration": 5, "velocity": 87}, {"time": 2522, "pitch": 77, "duration": 1, "velocity": 87}, {"time": 2525, "pitch": 77, "duration": 5, "velocity": 87}, {"time": 2534, "pitch": 75, "duration": 26, "velocity": 87}, {"time": 2561, "pitch": 79, "duration": 4, "velocity": 86}, {"time": 2567, "pitch": 82, "duration": 3, "velocity": 86}, {"time": 2573, "pitch": 84, "duration": 4, "velocity": 86}, {"time": 2579, "pitch": 82, "duration": 1, "velocity": 86}, {"time": 2582, "pitch": 80, "duration": 6, "velocity": 86}, {"time": 2591, "pitch": 79, "duration": 2, "velocity": 86}, {"time": 2594, "pitch": 79, "duration": 3, "velocity": 86}, {"time": 2600, "pitch": 77, "duration": 10, "velocity": 86}, {"time": 2615, "pitch": 79, "duration": 3, "velocity": 86}, {"time": 2618, "pitch": 80, "duration": 2, "velocity": 86}, {"time": 2621, "pitch": 82, "duration": 5, "velocity": 86}, {"time": 2627, "pitch": 79, "duration": 4, "velocity": 86}, {"time": 2630, "pitch": 77, "duration": 6, "velocity": 86}, {"time": 2639, "pitch": 79, "duration": 3, "velocity": 86}, {"time": 2642, "pitch": 77, "duration": 5, "velocity": 86}, {"time": 2648, "pitch": 76, "duration": 13, "velocity": 86}, {"time": 2663, "pitch": 77, "duration": 3, "velocity": 86}, {"time": 2666, "pitch": 79, "duration": 2, "velocity": 86}, {"time": 2669, "pitch": 80, "duration": 4, "velocity": 86}, {"time": 2675, "pitch": 79, "duration": 2, "velocity": 86}, {"time": 2678, "pitch": 75, "duration": 3, "velocity": 86}, {"time": 2684, "pitch": 72, "duration": 5, "velocity": 86}, {"time": 2693, "pitch": 80, "duration": 4, "velocity": 86}, {"time": 2699, "pitch": 79, "duration": 1, "velocity": 86}, {"time": 2702, "pitch": 75, "duration": 5, "velocity": 86}, {"time": 2708, "pitch": 77, "duration": 4, "velocity": 86}, {"time": 2717, "pitch": 77, "duration": 4, "velocity": 86}, {"time": 2723, "pitch": 79, "duration": 1, "velocity": 86}, {"time": 2726, "pitch": 79, "duration": 13, "velocity": 86}, {"time": 2753, "pitch": 79, "duration": 4, "velocity": 86}, {"time": 2759, "pitch": 82, "duration": 3, "velocity": 86}, {"time": 2765, "pitch": 84, "duration": 4, "velocity": 86}, {"time": 2771, "pitch": 82, "duration": 2, "velocity": 86}, {"time": 2774, "pitch": 80, "duration": 5, "velocity": 86}, {"time": 2783, "pitch": 79, "duration": 1, "velocity": 86}, {"time": 2786, "pitch": 79, "duration": 3, "velocity": 86}, {"time": 2792, "pitch": 77, "duration": 11, "velocity": 86}, {"time": 2804, "pitch": 79, "duration": 1, "velocity": 86}, {"time": 2807, "pitch": 79, "duration": 1, "velocity": 86}, {"time": 2810, "pitch": 80, "duration": 1, "velocity": 86}, {"time": 2813, "pitch": 83, "duration": 5, "velocity": 86}, {"time": 2819, "pitch": 79, "duration": 3, "velocity": 86}, {"time": 2822, "pitch": 77, "duration": 6, "velocity": 86}, {"time": 2831, "pitch": 79, "duration": 4, "velocity": 86}, {"time": 2834, "pitch": 77, "duration": 3, "velocity": 86}, {"time": 2840, "pitch": 75, "duration": 12, "velocity": 86}, {"time": 2852, "pitch": 75, "duration": 3, "velocity": 86}, {"time": 2855, "pitch": 77, "duration": 3, "velocity": 87}, {"time": 2858, "pitch": 79, "duration": 1, "velocity": 86}, {"time": 2861, "pitch": 80, "duration": 4, "velocity": 87}, {"time": 2867, "pitch": 79, "duration": 3, "velocity": 87}, {"time": 2870, "pitch": 75, "duration": 5, "velocity": 87}, {"time": 2876, "pitch": 72, "duration": 6, "velocity": 88}, {"time": 2885, "pitch": 80, "duration": 3, "velocity": 88}, {"time": 2891, "pitch": 79, "duration": 1, "velocity": 88}, {"time": 2894, "pitch": 75, "duration": 3, "velocity": 88}, {"time": 2900, "pitch": 77, "duration": 5, "velocity": 88}, {"time": 2906, "pitch": 77, "duration": 1, "velocity": 88}, {"time": 2909, "pitch": 77, "duration": 5, "velocity": 88}, {"time": 2918, "pitch": 75, "duration": 26, "velocity": 88}, {"time": 2948, "pitch": 75, "duration": 3, "velocity": 88}, {"time": 2951, "pitch": 77, "duration": 3, "velocity": 88}, {"time": 2954, "pitch": 79, "duration": 3, "velocity": 88}, {"time": 2957, "pitch": 80, "duration": 6, "velocity": 88}, {"time": 2963, "pitch": 79, "duration": 2, "velocity": 88}, {"time": 2966, "pitch": 75, "duration": 7, "velocity": 88}, {"time": 2972, "pitch": 72, "duration": 5, "velocity": 88}, {"time": 2981, "pitch": 80, "duration": 6, "velocity": 88}, {"time": 2987, "pitch": 79, "duration": 2, "velocity": 88}, {"time": 2990, "pitch": 82, "duration": 35, "velocity": 88}, {"time": 3023, "pitch": 75, "duration": 3, "velocity": 88}, {"time": 3029, "pitch": 75, "duration": 25, "velocity": 88}], "annotations": [{"time": 53, "annotation": {"number": 11, "value": 78}, "group": "control_change"}, {"time": 77, "annotation": {"number": 11, "value": 79}, "group": "control_change"}, {"time": 137, "annotation": {"number": 11, "value": 78}, "group": "control_change"}, {"time": 173, "annotation": {"number": 11, "value": 81}, "group": "control_change"}, {"time": 185, "annotation": {"number": 11, "value": 83}, "group": "control_change"}, {"time": 209, "annotation": {"number": 11, "value": 85}, "group": "control_change"}, {"time": 257, "annotation": {"number": 11, "value": 88}, "group": "control_change"}, {"time": 281, "annotation": {"number": 11, "value": 94}, "group": "control_change"}, {"time": 305, "annotation": {"number": 11, "value": 89}, "group": "control_change"}, {"time": 353, "annotation": {"number": 11, "value": 86}, "group": "control_change"}, {"time": 365, "annotation": {"number": 11, "value": 86}, "group": "control_change"}, {"time": 413, "annotation": {"number": 11, "value": 87}, "group": "control_change"}, {"time": 437, "annotation": {"number": 11, "value": 88}, "group": "control_change"}, {"time": 461, "annotation": {"number": 11, "value": 89}, "group": "control_change"}, {"time": 581, "annotation": {"number": 11, "value": 88}, "group": "control_change"}, {"time": 641, "annotation": {"number": 11, "value": 87}, "group": "control_change"}, {"time": 701, "annotation": {"number": 11, "value": 86}, "group": "control_change"}, {"time": 869, "annotation": {"number": 11, "value": 85}, "group": "control_change"}, {"time": 941, "annotation": {"number": 11, "value": 84}, "group": "control_change"}, {"time": 953, "annotation": {"number": 11, "value": 83}, "group": "control_change"}, {"time": 977, "annotation": {"number": 11, "value": 80}, "group": "control_change"}, {"time": 989, "annotation": {"number": 11, "value": 79}, "group": "control_change"}, {"time": 1001, "annotation": {"number": 11, "value": 78}, "group": "control_change"}, {"time": 1013, "annotation": {"number": 11, "value": 76}, "group": "control_change"}, {"time": 1025, "annotation": {"number": 11, "value": 75}, "group": "control_change"}, {"time": 1049, "annotation": {"number": 11, "value": 76}, "group": "control_change"}, {"time": 1061, "annotation": {"number": 11, "value": 78}, "group": "control_change"}, {"time": 1073, "annotation": {"number": 11, "value": 89}, "group": "control_change"}, {"time": 1133, "annotation": {"number": 11, "value": 90}, "group": "control_change"}, {"time": 1157, "annotation": {"number": 11, "value": 91}, "group": "control_change"}, {"time": 1241, "annotation": {"number": 11, "value": 90}, "group": "control_change"}, {"time": 1265, "annotation": {"number": 11, "value": 88}, "group": "control_change"}, {"time": 1277, "annotation": {"number": 11, "value": 86}, "group": "control_change"}, {"time": 1289, "annotation": {"number": 11, "value": 85}, "group": "control_change"}, {"time": 1301, "annotation": {"number": 11, "value": 84}, "group": "control_change"}, {"time": 1325, "annotation": {"number": 11, "value": 83}, "group": "control_change"}, {"time": 1337, "annotation": {"number": 11, "value": 81}, "group": "control_change"}, {"time": 1361, "annotation": {"number": 11, "value": 80}, "group": "control_change"}, {"time": 1385, "annotation": {"number": 11, "value": 79}, "group": "control_change"}, {"time": 1397, "annotation": {"number": 11, "value": 78}, "group": "control_change"}, {"time": 1409, "annotation": {"number": 11, "value": 76}, "group": "control_change"}, {"time": 1421, "annotation": {"number": 11, "value": 75}, "group": "control_change"}, {"time": 1433, "annotation": {"number": 11, "value": 74}, "group": "control_change"}, {"time": 1469, "annotation": {"number": 11, "value": 73}, "group": "control_change"}, {"time": 1493, "annotation": {"number": 11, "value": 72}, "group": "control_change"}, {"time": 1529, "annotation": {"number": 11, "value": 70}, "group": "control_change"}, {"time": 1541, "annotation": {"number": 11, "value": 69}, "group": "control_change"}, {"time": 1553, "annotation": {"number": 11, "value": 68}, "group": "control_change"}, {"time": 1565, "annotation": {"number": 11, "value": 79}, "group": "control_change"}, {"time": 1577, "annotation": {"number": 11, "value": 78}, "group": "control_change"}, {"time": 1613, "annotation": {"number": 11, "value": 75}, "group": "control_change"}, {"time": 1769, "annotation": {"number": 11, "value": 76}, "group": "control_change"}, {"time": 1883, "annotation": {"number": 11, "value": 77}, "group": "control_change"}, {"time": 1997, "annotation": {"number": 11, "value": 78}, "group": "control_change"}, {"time": 2129, "annotation": {"number": 11, "value": 79}, "group": "control_change"}, {"time": 2153, "annotation": {"number": 11, "value": 80}, "group": "control_change"}, {"time": 2165, "annotation": {"number": 11, "value": 81}, "group": "control_change"}, {"time": 2189, "annotation": {"number": 11, "value": 80}, "group": "control_change"}, {"time": 2261, "annotation": {"number": 11, "value": 81}, "group": "control_change"}, {"time": 2381, "annotation": {"number": 11, "value": 80}, "group": "control_change"}, {"time": 2429, "annotation": {"number": 11, "value": 81}, "group": "control_change"}, {"time": 2465, "annotation": {"number": 11, "value": 83}, "group": "control_change"}, {"time": 2501, "annotation": {"number": 11, "value": 84}, "group": "control_change"}, {"time": 2537, "annotation": {"number": 11, "value": 83}, "group": "control_change"}, {"time": 2549, "annotation": {"number": 11, "value": 81}, "group": "control_change"}, {"time": 2561, "annotation": {"number": 11, "value": 80}, "group": "control_change"}, {"time": 2609, "annotation": {"number": 11, "value": 81}, "group": "control_change"}, {"time": 2633, "annotation": {"number": 11, "value": 83}, "group": "control_change"}, {"time": 2645, "annotation": {"number": 11, "value": 80}, "group": "control_change"}, {"time": 2669, "annotation": {"number": 11, "value": 81}, "group": "control_change"}, {"time": 2693, "annotation": {"number": 11, "value": 83}, "group": "control_change"}, {"time": 2705, "annotation": {"number": 11, "value": 84}, "group": "control_change"}, {"time": 2825, "annotation": {"number": 11, "value": 85}, "group": "control_change"}, {"time": 2897, "annotation": {"number": 11, "value": 84}, "group": "control_change"}, {"time": 2933, "annotation": {"number": 11, "value": 85}, "group": "control_change"}, {"time": 2945, "annotation": {"number": 11, "value": 88}, "group": "control_change"}, {"time": 3221, "annotation": {"number": 11, "value": 89}, "group": "control_change"}]}, {"program": 0, "is_drum": false, "name": "BRIDGE", "notes": [{"time": 66, "pitch": 72, "duration": 23, "velocity": 120}, {"time": 89, "pitch": 75, "duration": 5, "velocity": 121}, {"time": 94, "pitch": 77, "duration": 7, "velocity": 116}, {"time": 101, "pitch": 79, "duration": 30, "velocity": 127}, {"time": 149, "pitch": 79, "duration": 4, "velocity": 114}, {"time": 155, "pitch": 79, "duration": 3, "velocity": 100}, {"time": 158, "pitch": 77, "duration": 2, "velocity": 76}, {"time": 161, "pitch": 79, "duration": 4, "velocity": 111}, {"time": 167, "pitch": 79, "duration": 3, "velocity": 114}, {"time": 170, "pitch": 77, "duration": 2, "velocity": 98}, {"time": 173, "pitch": 79, "duration": 14, "velocity": 120}, {"time": 179, "pitch": 77, "duration": 2, "velocity": 90}, {"time": 182, "pitch": 79, "duration": 5, "velocity": 100}, {"time": 194, "pitch": 77, "duration": 1, "velocity": 114}, {"time": 197, "pitch": 75, "duration": 10, "velocity": 111}, {"time": 206, "pitch": 70, "duration": 6, "velocity": 65}, {"time": 212, "pitch": 67, "duration": 12, "velocity": 112}, {"time": 227, "pitch": 72, "duration": 1, "velocity": 86}, {"time": 233, "pitch": 74, "duration": 4, "velocity": 92}, {"time": 239, "pitch": 75, "duration": 2, "velocity": 100}, {"time": 245, "pitch": 79, "duration": 3, "velocity": 115}, {"time": 251, "pitch": 79, "duration": 2, "velocity": 90}, {"time": 254, "pitch": 77, "duration": 1, "velocity": 83}, {"time": 257, "pitch": 79, "duration": 4, "velocity": 104}, {"time": 263, "pitch": 79, "duration": 1, "velocity": 95}, {"time": 266, "pitch": 77, "duration": 1, "velocity": 95}, {"time": 269, "pitch": 79, "duration": 15, "velocity": 98}, {"time": 287, "pitch": 77, "duration": 4, "velocity": 112}, {"time": 293, "pitch": 75, "duration": 6, "velocity": 86}, {"time": 302, "pitch": 72, "duration": 37, "velocity": 74}, {"time": 590, "pitch": 56, "duration": 3, "velocity": 75}, {"time": 593, "pitch": 55, "duration": 1, "velocity": 64}, {"time": 596, "pitch": 67, "duration": 3, "velocity": 108}, {"time": 599, "pitch": 65, "duration": 4, "velocity": 76}, {"time": 605, "pitch": 72, "duration": 10, "velocity": 100}, {"time": 617, "pitch": 75, "duration": 4, "velocity": 87}, {"time": 623, "pitch": 77, "duration": 5, "velocity": 112}, {"time": 629, "pitch": 79, "duration": 7, "velocity": 112}, {"time": 869, "pitch": 74, "duration": 1, "velocity": 79}, {"time": 870, "pitch": 75, "duration": 2, "velocity": 72}, {"time": 872, "pitch": 74, "duration": 1, "velocity": 71}, {"time": 874, "pitch": 75, "duration": 1, "velocity": 73}, {"time": 875, "pitch": 74, "duration": 1, "velocity": 69}, {"time": 877, "pitch": 75, "duration": 1, "velocity": 75}, {"time": 878, "pitch": 74, "duration": 1, "velocity": 81}, {"time": 879, "pitch": 75, "duration": 1, "velocity": 72}, {"time": 881, "pitch": 74, "duration": 1, "velocity": 74}, {"time": 883, "pitch": 75, "duration": 1, "velocity": 65}, {"time": 884, "pitch": 74, "duration": 2, "velocity": 69}, {"time": 886, "pitch": 75, "duration": 1, "velocity": 62}, {"time": 887, "pitch": 74, "duration": 2, "velocity": 67}, {"time": 889, "pitch": 75, "duration": 4, "velocity": 72}, {"time": 893, "pitch": 72, "duration": 11, "velocity": 98}, {"time": 923, "pitch": 67, "duration": 7, "velocity": 74}, {"time": 929, "pitch": 72, "duration": 4, "velocity": 67}, {"time": 935, "pitch": 79, "duration": 5, "velocity": 90}, {"time": 941, "pitch": 77, "duration": 21, "velocity": 98}, {"time": 971, "pitch": 70, "duration": 6, "velocity": 104}, {"time": 977, "pitch": 67, "duration": 6, "velocity": 83}, {"time": 983, "pitch": 77, "duration": 4, "velocity": 90}, {"time": 989, "pitch": 76, "duration": 8, "velocity": 112}, {"time": 998, "pitch": 77, "duration": 5, "velocity": 95}, {"time": 1004, "pitch": 79, "duration": 6, "velocity": 100}, {"time": 1013, "pitch": 80, "duration": 7, "velocity": 114}, {"time": 1043, "pitch": 75, "duration": 7, "velocity": 79}, {"time": 1049, "pitch": 74, "duration": 6, "velocity": 72}, {"time": 1055, "pitch": 70, "duration": 6, "velocity": 72}, {"time": 1061, "pitch": 67, "duration": 15, "velocity": 83}, {"time": 1085, "pitch": 79, "duration": 5, "velocity": 87}, {"time": 1091, "pitch": 80, "duration": 3, "velocity": 95}, {"time": 1097, "pitch": 82, "duration": 6, "velocity": 76}, {"time": 1301, "pitch": 75, "duration": 5, "velocity": 104}, {"time": 1307, "pitch": 73, "duration": 2, "velocity": 61}, {"time": 1310, "pitch": 75, "duration": 20, "velocity": 86}, {"time": 1331, "pitch": 78, "duration": 5, "velocity": 100}, {"time": 1337, "pitch": 80, "duration": 6, "velocity": 77}, {"time": 1343, "pitch": 78, "duration": 5, "velocity": 90}, {"time": 1349, "pitch": 82, "duration": 25, "velocity": 111}, {"time": 1379, "pitch": 73, "duration": 6, "velocity": 117}, {"time": 1385, "pitch": 75, "duration": 4, "velocity": 90}, {"time": 1388, "pitch": 78, "duration": 2, "velocity": 79}, {"time": 1394, "pitch": 80, "duration": 2, "velocity": 90}, {"time": 1397, "pitch": 82, "duration": 23, "velocity": 104}, {"time": 1421, "pitch": 85, "duration": 6, "velocity": 95}, {"time": 1427, "pitch": 82, "duration": 13, "velocity": 81}, {"time": 1439, "pitch": 78, "duration": 4, "velocity": 86}, {"time": 1445, "pitch": 80, "duration": 19, "velocity": 77}, {"time": 1463, "pitch": 82, "duration": 2, "velocity": 63}, {"time": 1466, "pitch": 80, "duration": 2, "velocity": 73}, {"time": 1469, "pitch": 79, "duration": 19, "velocity": 81}, {"time": 1487, "pitch": 75, "duration": 3, "velocity": 93}, {"time": 1490, "pitch": 73, "duration": 3, "velocity": 58}, {"time": 1493, "pitch": 71, "duration": 17, "velocity": 87}, {"time": 1502, "pitch": 75, "duration": 6, "velocity": 98}, {"time": 1511, "pitch": 78, "duration": 16, "velocity": 108}, {"time": 1523, "pitch": 78, "duration": 4, "velocity": 87}, {"time": 1529, "pitch": 80, "duration": 3, "velocity": 93}, {"time": 1535, "pitch": 80, "duration": 3, "velocity": 95}, {"time": 1538, "pitch": 78, "duration": 1, "velocity": 63}, {"time": 1541, "pitch": 82, "duration": 26, "velocity": 104}, {"time": 1580, "pitch": 75, "duration": 3, "velocity": 76}, {"time": 1583, "pitch": 80, "duration": 2, "velocity": 68}, {"time": 1586, "pitch": 75, "duration": 22, "velocity": 114}, {"time": 1877, "pitch": 72, "duration": 10, "velocity": 100}, {"time": 1889, "pitch": 75, "duration": 4, "velocity": 87}, {"time": 1895, "pitch": 77, "duration": 5, "velocity": 112}, {"time": 1901, "pitch": 79, "duration": 7, "velocity": 112}, {"time": 2357, "pitch": 79, "duration": 5, "velocity": 87}, {"time": 2363, "pitch": 80, "duration": 3, "velocity": 95}, {"time": 2369, "pitch": 82, "duration": 6, "velocity": 76}, {"time": 2741, "pitch": 79, "duration": 5, "velocity": 87}, {"time": 2747, "pitch": 80, "duration": 3, "velocity": 95}, {"time": 2753, "pitch": 82, "duration": 6, "velocity": 76}], "annotations": [{"time": 89, "annotation": {"number": 64, "value": 74}, "group": "control_change"}, {"time": 101, "annotation": {"number": 64, "value": 73}, "group": "control_change"}, {"time": 137, "annotation": {"number": 64, "value": 72}, "group": "control_change"}, {"time": 221, "annotation": {"number": 64, "value": 73}, "group": "control_change"}, {"time": 245, "annotation": {"number": 64, "value": 74}, "group": "control_change"}, {"time": 269, "annotation": {"number": 64, "value": 76}, "group": "control_change"}, {"time": 305, "annotation": {"number": 64, "value": 78}, "group": "control_change"}, {"time": 341, "annotation": {"number": 64, "value": 79}, "group": "control_change"}, {"time": 509, "annotation": {"number": 64, "value": 78}, "group": "control_change"}, {"time": 545, "annotation": {"number": 64, "value": 76}, "group": "control_change"}, {"time": 581, "annotation": {"number": 64, "value": 75}, "group": "control_change"}, {"time": 617, "annotation": {"number": 64, "value": 73}, "group": "control_change"}, {"time": 845, "annotation": {"number": 64, "value": 74}, "group": "control_change"}, {"time": 881, "annotation": {"number": 64, "value": 75}, "group": "control_change"}, {"time": 893, "annotation": {"number": 64, "value": 76}, "group": "control_change"}, {"time": 905, "annotation": {"number": 64, "value": 78}, "group": "control_change"}, {"time": 917, "annotation": {"number": 64, "value": 79}, "group": "control_change"}, {"time": 1241, "annotation": {"number": 64, "value": 79}, "group": "control_change"}, {"time": 1253, "annotation": {"number": 64, "value": 78}, "group": "control_change"}, {"time": 1277, "annotation": {"number": 64, "value": 75}, "group": "control_change"}, {"time": 1301, "annotation": {"number": 64, "value": 74}, "group": "control_change"}, {"time": 1313, "annotation": {"number": 64, "value": 73}, "group": "control_change"}, {"time": 1361, "annotation": {"number": 64, "value": 74}, "group": "control_change"}, {"time": 1373, "annotation": {"number": 64, "value": 75}, "group": "control_change"}, {"time": 1385, "annotation": {"number": 64, "value": 78}, "group": "control_change"}, {"time": 1409, "annotation": {"number": 64, "value": 79}, "group": "control_change"}, {"time": 1433, "annotation": {"number": 64, "value": 80}, "group": "control_change"}, {"time": 1493, "annotation": {"number": 64, "value": 79}, "group": "control_change"}, {"time": 1505, "annotation": {"number": 64, "value": 78}, "group": "control_change"}, {"time": 1553, "annotation": {"number": 64, "value": 79}, "group": "control_change"}, {"time": 1589, "annotation": {"number": 64, "value": 80}, "group": "control_change"}, {"time": 1613, "annotation": {"number": 64, "value": 83}, "group": "control_change"}, {"time": 1691, "annotation": {"number": 64, "value": 82}, "group": "control_change"}, {"time": 1769, "annotation": {"number": 64, "value": 81}, "group": "control_change"}, {"time": 1841, "annotation": {"number": 64, "value": 80}, "group": "control_change"}, {"time": 1853, "annotation": {"number": 64, "value": 79}, "group": "control_change"}, {"time": 1865, "annotation": {"number": 64, "value": 78}, "group": "control_change"}, {"time": 1877, "annotation": {"number": 64, "value": 76}, "group": "control_change"}, {"time": 1901, "annotation": {"number": 64, "value": 78}, "group": "control_change"}, {"time": 1913, "annotation": {"number": 64, "value": 79}, "group": "control_change"}, {"time": 1937, "annotation": {"number": 64, "value": 81}, "group": "control_change"}, {"time": 1961, "annotation": {"number": 64, "value": 83}, "group": "control_change"}, {"time": 2009, "annotation": {"number": 64, "value": 75}, "group": "control_change"}, {"time": 2021, "annotation": {"number": 64, "value": 76}, "group": "control_change"}, {"time": 2033, "annotation": {"number": 64, "value": 78}, "group": "control_change"}, {"time": 2045, "annotation": {"number": 64, "value": 79}, "group": "control_change"}, {"time": 2237, "annotation": {"number": 64, "value": 80}, "group": "control_change"}, {"time": 2249, "annotation": {"number": 64, "value": 81}, "group": "control_change"}, {"time": 2273, "annotation": {"number": 64, "value": 81}, "group": "control_change"}, {"time": 2321, "annotation": {"number": 64, "value": 83}, "group": "control_change"}, {"time": 2369, "annotation": {"number": 64, "value": 81}, "group": "control_change"}, {"time": 2393, "annotation": {"number": 64, "value": 80}, "group": "control_change"}, {"time": 2429, "annotation": {"number": 64, "value": 53}, "group": "control_change"}, {"time": 2477, "annotation": {"number": 64, "value": 54}, "group": "control_change"}, {"time": 2489, "annotation": {"number": 64, "value": 55}, "group": "control_change"}, {"time": 2501, "annotation": {"number": 64, "value": 57}, "group": "control_change"}, {"time": 2513, "annotation": {"number": 64, "value": 58}, "group": "control_change"}, {"time": 2525, "annotation": {"number": 64, "value": 60}, "group": "control_change"}, {"time": 2549, "annotation": {"number": 64, "value": 62}, "group": "control_change"}, {"time": 2573, "annotation": {"number": 64, "value": 63}, "group": "control_change"}, {"time": 2597, "annotation": {"number": 64, "value": 64}, "group": "control_change"}, {"time": 2633, "annotation": {"number": 64, "value": 67}, "group": "control_change"}, {"time": 2681, "annotation": {"number": 64, "value": 68}, "group": "control_change"}, {"time": 2729, "annotation": {"number": 64, "value": 69}, "group": "control_change"}, {"time": 2765, "annotation": {"number": 64, "value": 70}, "group": "control_change"}, {"time": 2801, "annotation": {"number": 64, "value": 72}, "group": "control_change"}, {"time": 2837, "annotation": {"number": 64, "value": 73}, "group": "control_change"}, {"time": 2861, "annotation": {"number": 64, "value": 74}, "group": "control_change"}, {"time": 2897, "annotation": {"number": 64, "value": 75}, "group": "control_change"}, {"time": 2921, "annotation": {"number": 64, "value": 76}, "group": "control_change"}]}, {"program": 0, "is_drum": false, "name": "PIANO", "notes": [{"time": 9, "pitch": 55, "duration": 40, "velocity": 56}, {"time": 9, "pitch": 58, "duration": 40, "velocity": 60}, {"time": 9, "pitch": 63, "duration": 40, "velocity": 51}, {"time": 9, "pitch": 67, "duration": 40, "velocity": 54}, {"time": 53, "pitch": 60, "duration": 18, "velocity": 87}, {"time": 56, "pitch": 67, "duration": 3, "velocity": 86}, {"time": 59, "pitch": 75, "duration": 2, "velocity": 60}, {"time": 62, "pitch": 74, "duration": 3, "velocity": 76}, {"time": 65, "pitch": 79, "duration": 9, "velocity": 76}, {"time": 77, "pitch": 58, "duration": 14, "velocity": 76}, {"time": 80, "pitch": 65, "duration": 5, "velocity": 76}, {"time": 83, "pitch": 75, "duration": 2, "velocity": 77}, {"time": 86, "pitch": 74, "duration": 1, "velocity": 78}, {"time": 89, "pitch": 77, "duration": 8, "velocity": 78}, {"time": 101, "pitch": 56, "duration": 24, "velocity": 78}, {"time": 104, "pitch": 63, "duration": 20, "velocity": 78}, {"time": 107, "pitch": 70, "duration": 3, "velocity": 78}, {"time": 110, "pitch": 68, "duration": 1, "velocity": 78}, {"time": 113, "pitch": 72, "duration": 10, "velocity": 78}, {"time": 125, "pitch": 44, "duration": 25, "velocity": 78}, {"time": 128, "pitch": 51, "duration": 21, "velocity": 78}, {"time": 131, "pitch": 60, "duration": 3, "velocity": 78}, {"time": 134, "pitch": 58, "duration": 3, "velocity": 77}, {"time": 137, "pitch": 65, "duration": 12, "velocity": 77}, {"time": 149, "pitch": 44, "duration": 1, "velocity": 75}, {"time": 149, "pitch": 60, "duration": 10, "velocity": 75}, {"time": 149, "pitch": 63, "duration": 10, "velocity": 75}, {"time": 149, "pitch": 68, "duration": 10, "velocity": 75}, {"time": 155, "pitch": 51, "duration": 13, "velocity": 75}, {"time": 161, "pitch": 60, "duration": 6, "velocity": 75}, {"time": 161, "pitch": 63, "duration": 6, "velocity": 75}, {"time": 161, "pitch": 68, "duration": 6, "velocity": 75}, {"time": 167, "pitch": 56, "duration": 6, "velocity": 75}, {"time": 173, "pitch": 46, "duration": 18, "velocity": 75}, {"time": 173, "pitch": 62, "duration": 11, "velocity": 75}, {"time": 173, "pitch": 65, "duration": 11, "velocity": 75}, {"time": 173, "pitch": 70, "duration": 11, "velocity": 75}, {"time": 179, "pitch": 53, "duration": 18, "velocity": 74}, {"time": 185, "pitch": 62, "duration": 6, "velocity": 73}, {"time": 185, "pitch": 65, "duration": 6, "velocity": 73}, {"time": 185, "pitch": 70, "duration": 6, "velocity": 73}, {"time": 197, "pitch": 48, "duration": 41, "velocity": 73}, {"time": 197, "pitch": 63, "duration": 11, "velocity": 73}, {"time": 197, "pitch": 67, "duration": 11, "velocity": 73}, {"time": 197, "pitch": 72, "duration": 11, "velocity": 73}, {"time": 203, "pitch": 55, "duration": 35, "velocity": 73}, {"time": 209, "pitch": 63, "duration": 11, "velocity": 73}, {"time": 209, "pitch": 67, "duration": 11, "velocity": 73}, {"time": 209, "pitch": 72, "duration": 11, "velocity": 73}, {"time": 215, "pitch": 60, "duration": 9, "velocity": 73}, {"time": 221, "pitch": 63, "duration": 8, "velocity": 73}, {"time": 221, "pitch": 67, "duration": 8, "velocity": 73}, {"time": 221, "pitch": 72, "duration": 8, "velocity": 73}, {"time": 227, "pitch": 60, "duration": 4, "velocity": 73}, {"time": 230, "pitch": 63, "duration": 6, "velocity": 73}, {"time": 230, "pitch": 67, "duration": 6, "velocity": 73}, {"time": 230, "pitch": 72, "duration": 6, "velocity": 73}, {"time": 236, "pitch": 60, "duration": 2, "velocity": 73}, {"time": 239, "pitch": 46, "duration": 3, "velocity": 73}, {"time": 245, "pitch": 44, "duration": 18, "velocity": 73}, {"time": 245, "pitch": 60, "duration": 11, "velocity": 73}, {"time": 245, "pitch": 63, "duration": 11, "velocity": 73}, {"time": 245, "pitch": 68, "duration": 11, "velocity": 73}, {"time": 251, "pitch": 51, "duration": 18, "velocity": 73}, {"time": 257, "pitch": 60, "duration": 7, "velocity": 73}, {"time": 257, "pitch": 63, "duration": 7, "velocity": 73}, {"time": 257, "pitch": 68, "duration": 7, "velocity": 73}, {"time": 263, "pitch": 56, "duration": 6, "velocity": 73}, {"time": 269, "pitch": 46, "duration": 18, "velocity": 72}, {"time": 269, "pitch": 62, "duration": 11, "velocity": 72}, {"time": 269, "pitch": 65, "duration": 11, "velocity": 72}, {"time": 269, "pitch": 70, "duration": 11, "velocity": 72}, {"time": 275, "pitch": 53, "duration": 18, "velocity": 72}, {"time": 281, "pitch": 62, "duration": 6, "velocity": 72}, {"time": 281, "pitch": 65, "duration": 6, "velocity": 72}, {"time": 281, "pitch": 70, "duration": 6, "velocity": 72}, {"time": 287, "pitch": 58, "duration": 6, "velocity": 72}, {"time": 293, "pitch": 48, "duration": 46, "velocity": 72}, {"time": 293, "pitch": 63, "duration": 11, "velocity": 72}, {"time": 293, "pitch": 67, "duration": 11, "velocity": 72}, {"time": 293, "pitch": 72, "duration": 11, "velocity": 72}, {"time": 299, "pitch": 55, "duration": 40, "velocity": 72}, {"time": 305, "pitch": 63, "duration": 11, "velocity": 72}, {"time": 305, "pitch": 67, "duration": 11, "velocity": 72}, {"time": 305, "pitch": 72, "duration": 11, "velocity": 72}, {"time": 311, "pitch": 60, "duration": 27, "velocity": 72}, {"time": 317, "pitch": 63, "duration": 21, "velocity": 72}, {"time": 317, "pitch": 67, "duration": 21, "velocity": 72}, {"time": 317, "pitch": 72, "duration": 21, "velocity": 72}, {"time": 341, "pitch": 48, "duration": 19, "velocity": 72}, {"time": 341, "pitch": 63, "duration": 11, "velocity": 72}, {"time": 341, "pitch": 67, "duration": 11, "velocity": 72}, {"time": 341, "pitch": 72, "duration": 11, "velocity": 72}, {"time": 347, "pitch": 55, "duration": 11, "velocity": 72}, {"time": 353, "pitch": 63, "duration": 6, "velocity": 72}, {"time": 353, "pitch": 67, "duration": 6, "velocity": 72}, {"time": 353, "pitch": 72, "duration": 6, "velocity": 72}, {"time": 365, "pitch": 44, "duration": 20, "velocity": 71}, {"time": 365, "pitch": 60, "duration": 21, "velocity": 71}, {"time": 365, "pitch": 63, "duration": 21, "velocity": 71}, {"time": 365, "pitch": 68, "duration": 21, "velocity": 71}, {"time": 389, "pitch": 46, "duration": 18, "velocity": 70}, {"time": 389, "pitch": 62, "duration": 18, "velocity": 70}, {"time": 389, "pitch": 65, "duration": 18, "velocity": 70}, {"time": 389, "pitch": 70, "duration": 18, "velocity": 70}, {"time": 413, "pitch": 48, "duration": 22, "velocity": 70}, {"time": 416, "pitch": 55, "duration": 19, "velocity": 70}, {"time": 419, "pitch": 60, "duration": 13, "velocity": 70}, {"time": 422, "pitch": 62, "duration": 4, "velocity": 70}, {"time": 425, "pitch": 63, "duration": 2, "velocity": 70}, {"time": 428, "pitch": 67, "duration": 8, "velocity": 70}, {"time": 437, "pitch": 44, "duration": 22, "velocity": 70}, {"time": 440, "pitch": 51, "duration": 19, "velocity": 70}, {"time": 443, "pitch": 56, "duration": 7, "velocity": 70}, {"time": 446, "pitch": 60, "duration": 3, "velocity": 70}, {"time": 449, "pitch": 67, "duration": 12, "velocity": 70}, {"time": 461, "pitch": 46, "duration": 17, "velocity": 70}, {"time": 464, "pitch": 53, "duration": 15, "velocity": 70}, {"time": 467, "pitch": 58, "duration": 12, "velocity": 70}, {"time": 470, "pitch": 62, "duration": 4, "velocity": 70}, {"time": 473, "pitch": 65, "duration": 12, "velocity": 70}, {"time": 485, "pitch": 39, "duration": 18, "velocity": 70}, {"time": 485, "pitch": 55, "duration": 10, "velocity": 70}, {"time": 485, "pitch": 58, "duration": 11, "velocity": 70}, {"time": 485, "pitch": 63, "duration": 11, "velocity": 70}, {"time": 491, "pitch": 46, "duration": 13, "velocity": 70}, {"time": 497, "pitch": 55, "duration": 6, "velocity": 70}, {"time": 497, "pitch": 58, "duration": 6, "velocity": 70}, {"time": 497, "pitch": 63, "duration": 6, "velocity": 70}, {"time": 503, "pitch": 51, "duration": 6, "velocity": 70}, {"time": 509, "pitch": 43, "duration": 19, "velocity": 70}, {"time": 509, "pitch": 59, "duration": 10, "velocity": 70}, {"time": 509, "pitch": 62, "duration": 10, "velocity": 70}, {"time": 509, "pitch": 67, "duration": 11, "velocity": 70}, {"time": 515, "pitch": 50, "duration": 13, "velocity": 71}, {"time": 521, "pitch": 59, "duration": 7, "velocity": 71}, {"time": 521, "pitch": 62, "duration": 6, "velocity": 71}, {"time": 521, "pitch": 67, "duration": 7, "velocity": 71}, {"time": 533, "pitch": 44, "duration": 18, "velocity": 72}, {"time": 533, "pitch": 60, "duration": 5, "velocity": 72}, {"time": 533, "pitch": 63, "duration": 5, "velocity": 72}, {"time": 533, "pitch": 68, "duration": 4, "velocity": 72}, {"time": 536, "pitch": 51, "duration": 16, "velocity": 72}, {"time": 539, "pitch": 56, "duration": 13, "velocity": 72}, {"time": 542, "pitch": 60, "duration": 2, "velocity": 73}, {"time": 545, "pitch": 60, "duration": 6, "velocity": 73}, {"time": 545, "pitch": 63, "duration": 6, "velocity": 73}, {"time": 545, "pitch": 68, "duration": 6, "velocity": 73}, {"time": 557, "pitch": 46, "duration": 20, "velocity": 74}, {"time": 560, "pitch": 53, "duration": 17, "velocity": 75}, {"time": 563, "pitch": 58, "duration": 14, "velocity": 75}, {"time": 566, "pitch": 62, "duration": 3, "velocity": 75}, {"time": 569, "pitch": 62, "duration": 9, "velocity": 75}, {"time": 569, "pitch": 65, "duration": 8, "velocity": 75}, {"time": 569, "pitch": 70, "duration": 8, "velocity": 75}, {"time": 581, "pitch": 48, "duration": 48, "velocity": 75}, {"time": 581, "pitch": 63, "duration": 10, "velocity": 75}, {"time": 581, "pitch": 67, "duration": 10, "velocity": 75}, {"time": 581, "pitch": 72, "duration": 10, "velocity": 75}, {"time": 587, "pitch": 55, "duration": 42, "velocity": 75}, {"time": 593, "pitch": 63, "duration": 10, "velocity": 75}, {"time": 593, "pitch": 67, "duration": 11, "velocity": 75}, {"time": 593, "pitch": 72, "duration": 10, "velocity": 75}, {"time": 605, "pitch": 72, "duration": 8, "velocity": 75}, {"time": 605, "pitch": 75, "duration": 7, "velocity": 75}, {"time": 617, "pitch": 72, "duration": 4, "velocity": 75}, {"time": 617, "pitch": 75, "duration": 4, "velocity": 75}, {"time": 623, "pitch": 72, "duration": 5, "velocity": 75}, {"time": 623, "pitch": 77, "duration": 5, "velocity": 75}, {"time": 629, "pitch": 48, "duration": 19, "velocity": 74}, {"time": 632, "pitch": 55, "duration": 15, "velocity": 74}, {"time": 635, "pitch": 60, "duration": 5, "velocity": 74}, {"time": 638, "pitch": 63, "duration": 8, "velocity": 74}, {"time": 638, "pitch": 67, "duration": 8, "velocity": 74}, {"time": 638, "pitch": 72, "duration": 8, "velocity": 74}, {"time": 647, "pitch": 63, "duration": 5, "velocity": 74}, {"time": 647, "pitch": 67, "duration": 5, "velocity": 74}, {"time": 647, "pitch": 72, "duration": 5, "velocity": 74}, {"time": 653, "pitch": 44, "duration": 22, "velocity": 74}, {"time": 656, "pitch": 51, "duration": 21, "velocity": 74}, {"time": 659, "pitch": 56, "duration": 4, "velocity": 74}, {"time": 662, "pitch": 60, "duration": 7, "velocity": 74}, {"time": 662, "pitch": 63, "duration": 7, "velocity": 74}, {"time": 662, "pitch": 68, "duration": 7, "velocity": 74}, {"time": 668, "pitch": 56, "duration": 8, "velocity": 74}, {"time": 671, "pitch": 60, "duration": 4, "velocity": 74}, {"time": 671, "pitch": 63, "duration": 4, "velocity": 74}, {"time": 671, "pitch": 68, "duration": 4, "velocity": 74}, {"time": 677, "pitch": 46, "duration": 17, "velocity": 74}, {"time": 677, "pitch": 62, "duration": 7, "velocity": 74}, {"time": 677, "pitch": 65, "duration": 8, "velocity": 74}, {"time": 677, "pitch": 70, "duration": 7, "velocity": 74}, {"time": 680, "pitch": 53, "duration": 20, "velocity": 74}, {"time": 683, "pitch": 58, "duration": 5, "velocity": 74}, {"time": 686, "pitch": 62, "duration": 9, "velocity": 74}, {"time": 686, "pitch": 65, "duration": 9, "velocity": 74}, {"time": 686, "pitch": 70, "duration": 9, "velocity": 74}, {"time": 692, "pitch": 58, "duration": 8, "velocity": 74}, {"time": 701, "pitch": 48, "duration": 20, "velocity": 74}, {"time": 704, "pitch": 55, "duration": 16, "velocity": 74}, {"time": 707, "pitch": 60, "duration": 11, "velocity": 74}, {"time": 707, "pitch": 68, "duration": 12, "velocity": 74}, {"time": 707, "pitch": 77, "duration": 1, "velocity": 74}, {"time": 710, "pitch": 75, "duration": 3, "velocity": 74}, {"time": 716, "pitch": 72, "duration": 6, "velocity": 75}, {"time": 725, "pitch": 44, "duration": 17, "velocity": 76}, {"time": 725, "pitch": 60, "duration": 10, "velocity": 76}, {"time": 725, "pitch": 63, "duration": 10, "velocity": 76}, {"time": 725, "pitch": 68, "duration": 10, "velocity": 76}, {"time": 731, "pitch": 51, "duration": 11, "velocity": 76}, {"time": 737, "pitch": 60, "duration": 6, "velocity": 76}, {"time": 737, "pitch": 63, "duration": 6, "velocity": 76}, {"time": 737, "pitch": 68, "duration": 5, "velocity": 76}, {"time": 749, "pitch": 46, "duration": 18, "velocity": 77}, {"time": 749, "pitch": 62, "duration": 11, "velocity": 77}, {"time": 749, "pitch": 65, "duration": 11, "velocity": 77}, {"time": 749, "pitch": 70, "duration": 11, "velocity": 77}, {"time": 755, "pitch": 53, "duration": 13, "velocity": 77}, {"time": 761, "pitch": 62, "duration": 6, "velocity": 77}, {"time": 761, "pitch": 65, "duration": 6, "velocity": 77}, {"time": 761, "pitch": 70, "duration": 5, "velocity": 77}, {"time": 761, "pitch": 82, "duration": 4, "velocity": 77}, {"time": 761, "pitch": 87, "duration": 2, "velocity": 77}, {"time": 764, "pitch": 89, "duration": 2, "velocity": 78}, {"time": 766, "pitch": 87, "duration": 1, "velocity": 78}, {"time": 767, "pitch": 82, "duration": 3, "velocity": 78}, {"time": 773, "pitch": 39, "duration": 16, "velocity": 78}, {"time": 773, "pitch": 55, "duration": 10, "velocity": 78}, {"time": 773, "pitch": 58, "duration": 10, "velocity": 78}, {"time": 773, "pitch": 63, "duration": 10, "velocity": 78}, {"time": 779, "pitch": 46, "duration": 13, "velocity": 78}, {"time": 785, "pitch": 55, "duration": 5, "velocity": 78}, {"time": 785, "pitch": 58, "duration": 5, "velocity": 78}, {"time": 785, "pitch": 63, "duration": 5, "velocity": 78}, {"time": 797, "pitch": 43, "duration": 19, "velocity": 78}, {"time": 797, "pitch": 59, "duration": 11, "velocity": 78}, {"time": 797, "pitch": 62, "duration": 11, "velocity": 78}, {"time": 797, "pitch": 67, "duration": 2, "velocity": 78}, {"time": 803, "pitch": 50, "duration": 13, "velocity": 78}, {"time": 809, "pitch": 59, "duration": 8, "velocity": 78}, {"time": 809, "pitch": 62, "duration": 7, "velocity": 78}, {"time": 809, "pitch": 67, "duration": 5, "velocity": 78}, {"time": 821, "pitch": 44, "duration": 20, "velocity": 78}, {"time": 824, "pitch": 51, "duration": 19, "velocity": 78}, {"time": 827, "pitch": 56, "duration": 13, "velocity": 78}, {"time": 827, "pitch": 60, "duration": 1, "velocity": 78}, {"time": 830, "pitch": 60, "duration": 8, "velocity": 78}, {"time": 836, "pitch": 67, "duration": 10, "velocity": 78}, {"time": 842, "pitch": 60, "duration": 4, "velocity": 78}, {"time": 845, "pitch": 46, "duration": 20, "velocity": 78}, {"time": 848, "pitch": 53, "duration": 20, "velocity": 78}, {"time": 851, "pitch": 58, "duration": 14, "velocity": 78}, {"time": 854, "pitch": 62, "duration": 5, "velocity": 78}, {"time": 860, "pitch": 62, "duration": 8, "velocity": 78}, {"time": 860, "pitch": 65, "duration": 8, "velocity": 78}, {"time": 869, "pitch": 48, "duration": 17, "velocity": 78}, {"time": 869, "pitch": 63, "duration": 10, "velocity": 78}, {"time": 869, "pitch": 67, "duration": 10, "velocity": 78}, {"time": 875, "pitch": 55, "duration": 15, "velocity": 78}, {"time": 881, "pitch": 63, "duration": 11, "velocity": 78}, {"time": 881, "pitch": 67, "duration": 10, "velocity": 78}, {"time": 893, "pitch": 48, "duration": 3, "velocity": 78}, {"time": 893, "pitch": 63, "duration": 3, "velocity": 78}, {"time": 893, "pitch": 67, "duration": 3, "velocity": 78}, {"time": 893, "pitch": 72, "duration": 3, "velocity": 78}, {"time": 905, "pitch": 43, "duration": 4, "velocity": 78}, {"time": 905, "pitch": 58, "duration": 4, "velocity": 78}, {"time": 905, "pitch": 62, "duration": 4, "velocity": 78}, {"time": 905, "pitch": 67, "duration": 4, "velocity": 78}, {"time": 911, "pitch": 43, "duration": 3, "velocity": 78}, {"time": 911, "pitch": 58, "duration": 3, "velocity": 78}, {"time": 911, "pitch": 62, "duration": 3, "velocity": 78}, {"time": 911, "pitch": 67, "duration": 3, "velocity": 78}, {"time": 917, "pitch": 44, "duration": 17, "velocity": 78}, {"time": 917, "pitch": 60, "duration": 10, "velocity": 78}, {"time": 917, "pitch": 63, "duration": 10, "velocity": 78}, {"time": 917, "pitch": 68, "duration": 10, "velocity": 78}, {"time": 923, "pitch": 51, "duration": 17, "velocity": 78}, {"time": 929, "pitch": 60, "duration": 6, "velocity": 78}, {"time": 929, "pitch": 63, "duration": 6, "velocity": 78}, {"time": 929, "pitch": 68, "duration": 6, "velocity": 78}, {"time": 935, "pitch": 56, "duration": 6, "velocity": 78}, {"time": 938, "pitch": 62, "duration": 1, "velocity": 80}, {"time": 938, "pitch": 65, "duration": 1, "velocity": 80}, {"time": 941, "pitch": 46, "duration": 18, "velocity": 80}, {"time": 941, "pitch": 62, "duration": 11, "velocity": 80}, {"time": 941, "pitch": 65, "duration": 11, "velocity": 80}, {"time": 941, "pitch": 70, "duration": 11, "velocity": 80}, {"time": 947, "pitch": 53, "duration": 10, "velocity": 80}, {"time": 953, "pitch": 62, "duration": 6, "velocity": 80}, {"time": 953, "pitch": 65, "duration": 6, "velocity": 80}, {"time": 953, "pitch": 70, "duration": 6, "velocity": 80}, {"time": 965, "pitch": 43, "duration": 18, "velocity": 82}, {"time": 965, "pitch": 58, "duration": 10, "velocity": 82}, {"time": 965, "pitch": 62, "duration": 10, "velocity": 82}, {"time": 965, "pitch": 67, "duration": 10, "velocity": 82}, {"time": 971, "pitch": 50, "duration": 12, "velocity": 82}, {"time": 977, "pitch": 58, "duration": 7, "velocity": 82}, {"time": 977, "pitch": 62, "duration": 7, "velocity": 82}, {"time": 977, "pitch": 67, "duration": 7, "velocity": 82}, {"time": 983, "pitch": 55, "duration": 6, "velocity": 82}, {"time": 989, "pitch": 48, "duration": 19, "velocity": 84}, {"time": 989, "pitch": 72, "duration": 6, "velocity": 84}, {"time": 989, "pitch": 76, "duration": 6, "velocity": 84}, {"time": 995, "pitch": 55, "duration": 14, "velocity": 86}, {"time": 998, "pitch": 72, "duration": 5, "velocity": 87}, {"time": 998, "pitch": 77, "duration": 4, "velocity": 87}, {"time": 1001, "pitch": 52, "duration": 7, "velocity": 87}, {"time": 1001, "pitch": 60, "duration": 6, "velocity": 87}, {"time": 1004, "pitch": 72, "duration": 8, "velocity": 88}, {"time": 1004, "pitch": 79, "duration": 8, "velocity": 88}, {"time": 1013, "pitch": 41, "duration": 17, "velocity": 88}, {"time": 1013, "pitch": 56, "duration": 10, "velocity": 88}, {"time": 1013, "pitch": 60, "duration": 10, "velocity": 88}, {"time": 1013, "pitch": 65, "duration": 10, "velocity": 88}, {"time": 1019, "pitch": 48, "duration": 13, "velocity": 88}, {"time": 1025, "pitch": 56, "duration": 7, "velocity": 88}, {"time": 1025, "pitch": 60, "duration": 7, "velocity": 88}, {"time": 1025, "pitch": 65, "duration": 7, "velocity": 88}, {"time": 1031, "pitch": 53, "duration": 5, "velocity": 88}, {"time": 1031, "pitch": 55, "duration": 1, "velocity": 88}, {"time": 1037, "pitch": 46, "duration": 18, "velocity": 88}, {"time": 1037, "pitch": 62, "duration": 10, "velocity": 88}, {"time": 1037, "pitch": 65, "duration": 10, "velocity": 88}, {"time": 1037, "pitch": 70, "duration": 10, "velocity": 88}, {"time": 1043, "pitch": 53, "duration": 11, "velocity": 88}, {"time": 1049, "pitch": 62, "duration": 6, "velocity": 88}, {"time": 1049, "pitch": 65, "duration": 6, "velocity": 88}, {"time": 1049, "pitch": 70, "duration": 6, "velocity": 88}, {"time": 1061, "pitch": 39, "duration": 24, "velocity": 88}, {"time": 1061, "pitch": 55, "duration": 11, "velocity": 88}, {"time": 1061, "pitch": 58, "duration": 11, "velocity": 88}, {"time": 1061, "pitch": 63, "duration": 11, "velocity": 88}, {"time": 1067, "pitch": 46, "duration": 18, "velocity": 88}, {"time": 1073, "pitch": 55, "duration": 11, "velocity": 88}, {"time": 1073, "pitch": 58, "duration": 11, "velocity": 88}, {"time": 1073, "pitch": 63, "duration": 10, "velocity": 88}, {"time": 1085, "pitch": 43, "duration": 18, "velocity": 88}, {"time": 1085, "pitch": 59, "duration": 10, "velocity": 88}, {"time": 1085, "pitch": 62, "duration": 10, "velocity": 88}, {"time": 1085, "pitch": 67, "duration": 10, "velocity": 88}, {"time": 1091, "pitch": 50, "duration": 17, "velocity": 88}, {"time": 1097, "pitch": 59, "duration": 6, "velocity": 88}, {"time": 1097, "pitch": 62, "duration": 6, "velocity": 88}, {"time": 1097, "pitch": 67, "duration": 5, "velocity": 88}, {"time": 1103, "pitch": 55, "duration": 5, "velocity": 88}, {"time": 1109, "pitch": 44, "duration": 19, "velocity": 88}, {"time": 1109, "pitch": 60, "duration": 11, "velocity": 88}, {"time": 1109, "pitch": 63, "duration": 11, "velocity": 88}, {"time": 1109, "pitch": 68, "duration": 7, "velocity": 88}, {"time": 1115, "pitch": 51, "duration": 18, "velocity": 88}, {"time": 1118, "pitch": 68, "duration": 1, "velocity": 87}, {"time": 1121, "pitch": 60, "duration": 6, "velocity": 86}, {"time": 1121, "pitch": 63, "duration": 6, "velocity": 86}, {"time": 1121, "pitch": 68, "duration": 6, "velocity": 86}, {"time": 1127, "pitch": 56, "duration": 6, "velocity": 86}, {"time": 1133, "pitch": 46, "duration": 17, "velocity": 85}, {"time": 1133, "pitch": 62, "duration": 10, "velocity": 85}, {"time": 1133, "pitch": 65, "duration": 10, "velocity": 85}, {"time": 1133, "pitch": 70, "duration": 10, "velocity": 85}, {"time": 1139, "pitch": 53, "duration": 10, "velocity": 84}, {"time": 1145, "pitch": 62, "duration": 6, "velocity": 84}, {"time": 1145, "pitch": 65, "duration": 5, "velocity": 84}, {"time": 1145, "pitch": 70, "duration": 5, "velocity": 84}, {"time": 1157, "pitch": 43, "duration": 18, "velocity": 83}, {"time": 1157, "pitch": 50, "duration": 18, "velocity": 83}, {"time": 1157, "pitch": 55, "duration": 15, "velocity": 83}, {"time": 1157, "pitch": 59, "duration": 11, "velocity": 83}, {"time": 1157, "pitch": 62, "duration": 11, "velocity": 83}, {"time": 1157, "pitch": 67, "duration": 7, "velocity": 83}, {"time": 1163, "pitch": 47, "duration": 12, "velocity": 83}, {"time": 1169, "pitch": 59, "duration": 6, "velocity": 83}, {"time": 1169, "pitch": 62, "duration": 6, "velocity": 83}, {"time": 1169, "pitch": 67, "duration": 5, "velocity": 83}, {"time": 1175, "pitch": 55, "duration": 6, "velocity": 83}, {"time": 1181, "pitch": 48, "duration": 18, "velocity": 83}, {"time": 1181, "pitch": 63, "duration": 10, "velocity": 83}, {"time": 1181, "pitch": 67, "duration": 10, "velocity": 83}, {"time": 1181, "pitch": 72, "duration": 10, "velocity": 83}, {"time": 1187, "pitch": 55, "duration": 13, "velocity": 83}, {"time": 1193, "pitch": 63, "duration": 7, "velocity": 83}, {"time": 1193, "pitch": 67, "duration": 7, "velocity": 83}, {"time": 1193, "pitch": 72, "duration": 7, "velocity": 83}, {"time": 1199, "pitch": 60, "duration": 6, "velocity": 83}, {"time": 1205, "pitch": 53, "duration": 17, "velocity": 83}, {"time": 1205, "pitch": 68, "duration": 10, "velocity": 83}, {"time": 1205, "pitch": 72, "duration": 11, "velocity": 83}, {"time": 1205, "pitch": 77, "duration": 10, "velocity": 83}, {"time": 1211, "pitch": 60, "duration": 8, "velocity": 83}, {"time": 1217, "pitch": 68, "duration": 6, "velocity": 83}, {"time": 1217, "pitch": 72, "duration": 6, "velocity": 83}, {"time": 1217, "pitch": 77, "duration": 6, "velocity": 83}, {"time": 1229, "pitch": 46, "duration": 18, "velocity": 83}, {"time": 1229, "pitch": 62, "duration": 10, "velocity": 83}, {"time": 1229, "pitch": 65, "duration": 10, "velocity": 83}, {"time": 1229, "pitch": 70, "duration": 10, "velocity": 83}, {"time": 1235, "pitch": 53, "duration": 10, "velocity": 83}, {"time": 1241, "pitch": 62, "duration": 5, "velocity": 83}, {"time": 1241, "pitch": 65, "duration": 5, "velocity": 83}, {"time": 1241, "pitch": 70, "duration": 5, "velocity": 83}, {"time": 1253, "pitch": 39, "duration": 38, "velocity": 83}, {"time": 1253, "pitch": 55, "duration": 11, "velocity": 83}, {"time": 1253, "pitch": 58, "duration": 11, "velocity": 83}, {"time": 1253, "pitch": 63, "duration": 11, "velocity": 83}, {"time": 1259, "pitch": 46, "duration": 30, "velocity": 83}, {"time": 1265, "pitch": 55, "duration": 10, "velocity": 83}, {"time": 1265, "pitch": 58, "duration": 11, "velocity": 83}, {"time": 1265, "pitch": 63, "duration": 8, "velocity": 83}, {"time": 1271, "pitch": 51, "duration": 18, "velocity": 83}, {"time": 1277, "pitch": 55, "duration": 9, "velocity": 83}, {"time": 1277, "pitch": 58, "duration": 12, "velocity": 83}, {"time": 1277, "pitch": 63, "duration": 10, "velocity": 83}, {"time": 1301, "pitch": 51, "duration": 10, "velocity": 83}, {"time": 1301, "pitch": 70, "duration": 7, "velocity": 83}, {"time": 1304, "pitch": 58, "duration": 6, "velocity": 83}, {"time": 1307, "pitch": 63, "duration": 3, "velocity": 83}, {"time": 1310, "pitch": 68, "duration": 2, "velocity": 83}, {"time": 1313, "pitch": 47, "duration": 6, "velocity": 83}, {"time": 1313, "pitch": 66, "duration": 7, "velocity": 83}, {"time": 1316, "pitch": 54, "duration": 6, "velocity": 83}, {"time": 1319, "pitch": 59, "duration": 5, "velocity": 83}, {"time": 1322, "pitch": 66, "duration": 4, "velocity": 83}, {"time": 1325, "pitch": 49, "duration": 7, "velocity": 83}, {"time": 1325, "pitch": 65, "duration": 3, "velocity": 83}, {"time": 1328, "pitch": 56, "duration": 6, "velocity": 82}, {"time": 1328, "pitch": 63, "duration": 4, "velocity": 82}, {"time": 1331, "pitch": 61, "duration": 2, "velocity": 82}, {"time": 1334, "pitch": 56, "duration": 1, "velocity": 81}, {"time": 1337, "pitch": 44, "duration": 4, "velocity": 81}, {"time": 1337, "pitch": 58, "duration": 7, "velocity": 81}, {"time": 1340, "pitch": 48, "duration": 3, "velocity": 81}, {"time": 1343, "pitch": 51, "duration": 6, "velocity": 81}, {"time": 1349, "pitch": 51, "duration": 6, "velocity": 81}, {"time": 1349, "pitch": 75, "duration": 6, "velocity": 81}, {"time": 1352, "pitch": 58, "duration": 5, "velocity": 81}, {"time": 1355, "pitch": 63, "duration": 2, "velocity": 81}, {"time": 1358, "pitch": 68, "duration": 3, "velocity": 80}, {"time": 1361, "pitch": 47, "duration": 6, "velocity": 80}, {"time": 1361, "pitch": 70, "duration": 3, "velocity": 80}, {"time": 1364, "pitch": 54, "duration": 8, "velocity": 80}, {"time": 1364, "pitch": 68, "duration": 3, "velocity": 80}, {"time": 1367, "pitch": 59, "duration": 5, "velocity": 80}, {"time": 1367, "pitch": 66, "duration": 3, "velocity": 80}, {"time": 1370, "pitch": 68, "duration": 14, "velocity": 80}, {"time": 1373, "pitch": 49, "duration": 9, "velocity": 80}, {"time": 1376, "pitch": 56, "duration": 7, "velocity": 80}, {"time": 1379, "pitch": 61, "duration": 5, "velocity": 80}, {"time": 1385, "pitch": 51, "duration": 6, "velocity": 80}, {"time": 1388, "pitch": 58, "duration": 6, "velocity": 80}, {"time": 1391, "pitch": 63, "duration": 6, "velocity": 80}, {"time": 1391, "pitch": 66, "duration": 2, "velocity": 80}, {"time": 1391, "pitch": 70, "duration": 2, "velocity": 80}, {"time": 1397, "pitch": 47, "duration": 19, "velocity": 80}, {"time": 1397, "pitch": 63, "duration": 1, "velocity": 80}, {"time": 1397, "pitch": 66, "duration": 11, "velocity": 80}, {"time": 1397, "pitch": 71, "duration": 11, "velocity": 80}, {"time": 1403, "pitch": 54, "duration": 18, "velocity": 80}, {"time": 1409, "pitch": 63, "duration": 7, "velocity": 80}, {"time": 1409, "pitch": 66, "duration": 7, "velocity": 80}, {"time": 1409, "pitch": 71, "duration": 6, "velocity": 80}, {"time": 1415, "pitch": 59, "duration": 6, "velocity": 80}, {"time": 1421, "pitch": 49, "duration": 20, "velocity": 80}, {"time": 1421, "pitch": 65, "duration": 10, "velocity": 80}, {"time": 1421, "pitch": 68, "duration": 10, "velocity": 80}, {"time": 1421, "pitch": 73, "duration": 10, "velocity": 80}, {"time": 1427, "pitch": 56, "duration": 13, "velocity": 80}, {"time": 1433, "pitch": 65, "duration": 7, "velocity": 80}, {"time": 1433, "pitch": 68, "duration": 6, "velocity": 80}, {"time": 1433, "pitch": 73, "duration": 6, "velocity": 80}, {"time": 1439, "pitch": 61, "duration": 1, "velocity": 80}, {"time": 1445, "pitch": 46, "duration": 18, "velocity": 80}, {"time": 1445, "pitch": 61, "duration": 10, "velocity": 80}, {"time": 1445, "pitch": 65, "duration": 10, "velocity": 80}, {"time": 1445, "pitch": 70, "duration": 10, "velocity": 80}, {"time": 1451, "pitch": 53, "duration": 12, "velocity": 80}, {"time": 1457, "pitch": 61, "duration": 6, "velocity": 80}, {"time": 1457, "pitch": 65, "duration": 6, "velocity": 80}, {"time": 1457, "pitch": 70, "duration": 6, "velocity": 80}, {"time": 1463, "pitch": 58, "duration": 5, "velocity": 80}, {"time": 1469, "pitch": 51, "duration": 19, "velocity": 80}, {"time": 1469, "pitch": 67, "duration": 10, "velocity": 80}, {"time": 1469, "pitch": 70, "duration": 10, "velocity": 80}, {"time": 1469, "pitch": 75, "duration": 10, "velocity": 80}, {"time": 1475, "pitch": 58, "duration": 14, "velocity": 80}, {"time": 1478, "pitch": 63, "duration": 15, "velocity": 80}, {"time": 1481, "pitch": 67, "duration": 7, "velocity": 80}, {"time": 1481, "pitch": 70, "duration": 7, "velocity": 80}, {"time": 1481, "pitch": 75, "duration": 7, "velocity": 80}, {"time": 1487, "pitch": 55, "duration": 1, "velocity": 80}, {"time": 1493, "pitch": 56, "duration": 18, "velocity": 80}, {"time": 1493, "pitch": 71, "duration": 10, "velocity": 80}, {"time": 1493, "pitch": 75, "duration": 10, "velocity": 80}, {"time": 1493, "pitch": 80, "duration": 10, "velocity": 80}, {"time": 1499, "pitch": 63, "duration": 11, "velocity": 80}, {"time": 1505, "pitch": 71, "duration": 7, "velocity": 80}, {"time": 1505, "pitch": 75, "duration": 6, "velocity": 80}, {"time": 1505, "pitch": 80, "duration": 6, "velocity": 80}, {"time": 1517, "pitch": 49, "duration": 18, "velocity": 80}, {"time": 1517, "pitch": 65, "duration": 10, "velocity": 80}, {"time": 1517, "pitch": 68, "duration": 10, "velocity": 80}, {"time": 1517, "pitch": 73, "duration": 10, "velocity": 80}, {"time": 1523, "pitch": 56, "duration": 11, "velocity": 80}, {"time": 1529, "pitch": 65, "duration": 6, "velocity": 80}, {"time": 1529, "pitch": 68, "duration": 6, "velocity": 80}, {"time": 1529, "pitch": 73, "duration": 6, "velocity": 80}, {"time": 1541, "pitch": 46, "duration": 72, "velocity": 80}, {"time": 1541, "pitch": 62, "duration": 11, "velocity": 80}, {"time": 1541, "pitch": 65, "duration": 11, "velocity": 80}, {"time": 1541, "pitch": 70, "duration": 10, "velocity": 80}, {"time": 1547, "pitch": 53, "duration": 65, "velocity": 80}, {"time": 1550, "pitch": 50, "duration": 62, "velocity": 80}, {"time": 1553, "pitch": 58, "duration": 35, "velocity": 80}, {"time": 1553, "pitch": 62, "duration": 10, "velocity": 80}, {"time": 1553, "pitch": 65, "duration": 10, "velocity": 80}, {"time": 1553, "pitch": 70, "duration": 9, "velocity": 80}, {"time": 1565, "pitch": 62, "duration": 11, "velocity": 80}, {"time": 1565, "pitch": 65, "duration": 11, "velocity": 80}, {"time": 1565, "pitch": 70, "duration": 9, "velocity": 80}, {"time": 1577, "pitch": 62, "duration": 10, "velocity": 82}, {"time": 1577, "pitch": 65, "duration": 10, "velocity": 82}, {"time": 1577, "pitch": 70, "duration": 9, "velocity": 82}, {"time": 1589, "pitch": 58, "duration": 23, "velocity": 84}, {"time": 1589, "pitch": 62, "duration": 24, "velocity": 84}, {"time": 1589, "pitch": 65, "duration": 23, "velocity": 84}, {"time": 1589, "pitch": 70, "duration": 23, "velocity": 84}, {"time": 1613, "pitch": 48, "duration": 19, "velocity": 85}, {"time": 1613, "pitch": 63, "duration": 11, "velocity": 85}, {"time": 1613, "pitch": 67, "duration": 11, "velocity": 85}, {"time": 1613, "pitch": 72, "duration": 11, "velocity": 85}, {"time": 1619, "pitch": 55, "duration": 11, "velocity": 85}, {"time": 1625, "pitch": 63, "duration": 6, "velocity": 85}, {"time": 1625, "pitch": 67, "duration": 6, "velocity": 85}, {"time": 1625, "pitch": 72, "duration": 6, "velocity": 85}, {"time": 1637, "pitch": 44, "duration": 20, "velocity": 85}, {"time": 1637, "pitch": 60, "duration": 21, "velocity": 85}, {"time": 1637, "pitch": 63, "duration": 21, "velocity": 85}, {"time": 1637, "pitch": 68, "duration": 21, "velocity": 85}, {"time": 1661, "pitch": 46, "duration": 18, "velocity": 85}, {"time": 1661, "pitch": 62, "duration": 18, "velocity": 85}, {"time": 1661, "pitch": 65, "duration": 18, "velocity": 85}, {"time": 1661, "pitch": 70, "duration": 18, "velocity": 85}, {"time": 1685, "pitch": 48, "duration": 22, "velocity": 83}, {"time": 1688, "pitch": 55, "duration": 19, "velocity": 83}, {"time": 1691, "pitch": 60, "duration": 13, "velocity": 83}, {"time": 1694, "pitch": 62, "duration": 4, "velocity": 83}, {"time": 1697, "pitch": 63, "duration": 2, "velocity": 83}, {"time": 1700, "pitch": 67, "duration": 8, "velocity": 83}, {"time": 1709, "pitch": 44, "duration": 22, "velocity": 82}, {"time": 1712, "pitch": 51, "duration": 19, "velocity": 81}, {"time": 1715, "pitch": 56, "duration": 7, "velocity": 81}, {"time": 1718, "pitch": 60, "duration": 3, "velocity": 81}, {"time": 1721, "pitch": 67, "duration": 12, "velocity": 81}, {"time": 1733, "pitch": 46, "duration": 17, "velocity": 81}, {"time": 1736, "pitch": 53, "duration": 15, "velocity": 81}, {"time": 1739, "pitch": 58, "duration": 12, "velocity": 81}, {"time": 1742, "pitch": 62, "duration": 4, "velocity": 81}, {"time": 1745, "pitch": 65, "duration": 12, "velocity": 81}, {"time": 1757, "pitch": 39, "duration": 18, "velocity": 80}, {"time": 1757, "pitch": 55, "duration": 10, "velocity": 80}, {"time": 1757, "pitch": 58, "duration": 11, "velocity": 80}, {"time": 1757, "pitch": 63, "duration": 11, "velocity": 80}, {"time": 1763, "pitch": 46, "duration": 13, "velocity": 80}, {"time": 1769, "pitch": 55, "duration": 6, "velocity": 80}, {"time": 1769, "pitch": 58, "duration": 6, "velocity": 80}, {"time": 1769, "pitch": 63, "duration": 6, "velocity": 80}, {"time": 1775, "pitch": 51, "duration": 6, "velocity": 80}, {"time": 1781, "pitch": 43, "duration": 19, "velocity": 80}, {"time": 1781, "pitch": 59, "duration": 10, "velocity": 80}, {"time": 1781, "pitch": 62, "duration": 10, "velocity": 80}, {"time": 1781, "pitch": 67, "duration": 11, "velocity": 80}, {"time": 1787, "pitch": 50, "duration": 13, "velocity": 80}, {"time": 1793, "pitch": 59, "duration": 7, "velocity": 80}, {"time": 1793, "pitch": 62, "duration": 6, "velocity": 80}, {"time": 1793, "pitch": 67, "duration": 7, "velocity": 80}, {"time": 1805, "pitch": 44, "duration": 18, "velocity": 79}, {"time": 1805, "pitch": 60, "duration": 5, "velocity": 79}, {"time": 1805, "pitch": 63, "duration": 5, "velocity": 79}, {"time": 1805, "pitch": 68, "duration": 4, "velocity": 79}, {"time": 1808, "pitch": 51, "duration": 16, "velocity": 79}, {"time": 1811, "pitch": 56, "duration": 13, "velocity": 79}, {"time": 1814, "pitch": 60, "duration": 2, "velocity": 79}, {"time": 1817, "pitch": 60, "duration": 6, "velocity": 79}, {"time": 1817, "pitch": 63, "duration": 6, "velocity": 79}, {"time": 1817, "pitch": 68, "duration": 6, "velocity": 79}, {"time": 1829, "pitch": 46, "duration": 20, "velocity": 79}, {"time": 1832, "pitch": 53, "duration": 17, "velocity": 79}, {"time": 1835, "pitch": 58, "duration": 14, "velocity": 79}, {"time": 1838, "pitch": 62, "duration": 3, "velocity": 79}, {"time": 1841, "pitch": 62, "duration": 9, "velocity": 79}, {"time": 1841, "pitch": 65, "duration": 8, "velocity": 79}, {"time": 1841, "pitch": 70, "duration": 8, "velocity": 79}, {"time": 1853, "pitch": 48, "duration": 48, "velocity": 78}, {"time": 1853, "pitch": 63, "duration": 10, "velocity": 78}, {"time": 1853, "pitch": 67, "duration": 10, "velocity": 78}, {"time": 1853, "pitch": 72, "duration": 10, "velocity": 78}, {"time": 1859, "pitch": 55, "duration": 42, "velocity": 78}, {"time": 1865, "pitch": 63, "duration": 10, "velocity": 78}, {"time": 1865, "pitch": 67, "duration": 11, "velocity": 78}, {"time": 1865, "pitch": 72, "duration": 10, "velocity": 78}, {"time": 1877, "pitch": 72, "duration": 8, "velocity": 78}, {"time": 1877, "pitch": 75, "duration": 7, "velocity": 78}, {"time": 1889, "pitch": 72, "duration": 4, "velocity": 78}, {"time": 1889, "pitch": 75, "duration": 4, "velocity": 78}, {"time": 1895, "pitch": 72, "duration": 5, "velocity": 78}, {"time": 1895, "pitch": 77, "duration": 5, "velocity": 78}, {"time": 1901, "pitch": 48, "duration": 19, "velocity": 78}, {"time": 1904, "pitch": 55, "duration": 15, "velocity": 78}, {"time": 1907, "pitch": 60, "duration": 5, "velocity": 78}, {"time": 1910, "pitch": 63, "duration": 8, "velocity": 78}, {"time": 1910, "pitch": 67, "duration": 8, "velocity": 78}, {"time": 1910, "pitch": 72, "duration": 8, "velocity": 78}, {"time": 1919, "pitch": 63, "duration": 5, "velocity": 78}, {"time": 1919, "pitch": 67, "duration": 5, "velocity": 78}, {"time": 1919, "pitch": 72, "duration": 5, "velocity": 78}, {"time": 1925, "pitch": 44, "duration": 22, "velocity": 78}, {"time": 1928, "pitch": 51, "duration": 21, "velocity": 78}, {"time": 1931, "pitch": 56, "duration": 4, "velocity": 78}, {"time": 1934, "pitch": 60, "duration": 7, "velocity": 78}, {"time": 1934, "pitch": 63, "duration": 7, "velocity": 78}, {"time": 1934, "pitch": 68, "duration": 7, "velocity": 78}, {"time": 1940, "pitch": 56, "duration": 8, "velocity": 78}, {"time": 1943, "pitch": 60, "duration": 4, "velocity": 78}, {"time": 1943, "pitch": 63, "duration": 4, "velocity": 78}, {"time": 1943, "pitch": 68, "duration": 4, "velocity": 78}, {"time": 1949, "pitch": 46, "duration": 17, "velocity": 78}, {"time": 1949, "pitch": 62, "duration": 7, "velocity": 78}, {"time": 1949, "pitch": 65, "duration": 8, "velocity": 78}, {"time": 1949, "pitch": 70, "duration": 7, "velocity": 78}, {"time": 1952, "pitch": 53, "duration": 20, "velocity": 78}, {"time": 1955, "pitch": 58, "duration": 5, "velocity": 78}, {"time": 1958, "pitch": 62, "duration": 9, "velocity": 78}, {"time": 1958, "pitch": 65, "duration": 9, "velocity": 78}, {"time": 1958, "pitch": 70, "duration": 9, "velocity": 78}, {"time": 1964, "pitch": 58, "duration": 8, "velocity": 78}, {"time": 1973, "pitch": 48, "duration": 20, "velocity": 78}, {"time": 1976, "pitch": 55, "duration": 16, "velocity": 78}, {"time": 1979, "pitch": 60, "duration": 11, "velocity": 78}, {"time": 1979, "pitch": 68, "duration": 12, "velocity": 78}, {"time": 1979, "pitch": 77, "duration": 1, "velocity": 78}, {"time": 1982, "pitch": 75, "duration": 3, "velocity": 78}, {"time": 1988, "pitch": 72, "duration": 6, "velocity": 78}, {"time": 1997, "pitch": 44, "duration": 17, "velocity": 78}, {"time": 1997, "pitch": 60, "duration": 10, "velocity": 78}, {"time": 1997, "pitch": 63, "duration": 10, "velocity": 78}, {"time": 1997, "pitch": 68, "duration": 10, "velocity": 78}, {"time": 2003, "pitch": 51, "duration": 11, "velocity": 78}, {"time": 2009, "pitch": 60, "duration": 6, "velocity": 78}, {"time": 2009, "pitch": 63, "duration": 6, "velocity": 78}, {"time": 2009, "pitch": 68, "duration": 5, "velocity": 78}, {"time": 2021, "pitch": 46, "duration": 18, "velocity": 78}, {"time": 2021, "pitch": 62, "duration": 11, "velocity": 78}, {"time": 2021, "pitch": 65, "duration": 11, "velocity": 78}, {"time": 2021, "pitch": 70, "duration": 11, "velocity": 78}, {"time": 2027, "pitch": 53, "duration": 13, "velocity": 78}, {"time": 2033, "pitch": 62, "duration": 6, "velocity": 78}, {"time": 2033, "pitch": 65, "duration": 6, "velocity": 78}, {"time": 2033, "pitch": 70, "duration": 5, "velocity": 78}, {"time": 2033, "pitch": 82, "duration": 4, "velocity": 78}, {"time": 2033, "pitch": 87, "duration": 2, "velocity": 78}, {"time": 2036, "pitch": 89, "duration": 2, "velocity": 78}, {"time": 2038, "pitch": 87, "duration": 1, "velocity": 78}, {"time": 2039, "pitch": 82, "duration": 3, "velocity": 78}, {"time": 2045, "pitch": 39, "duration": 16, "velocity": 78}, {"time": 2045, "pitch": 55, "duration": 10, "velocity": 78}, {"time": 2045, "pitch": 58, "duration": 10, "velocity": 78}, {"time": 2045, "pitch": 63, "duration": 10, "velocity": 78}, {"time": 2051, "pitch": 46, "duration": 13, "velocity": 78}, {"time": 2057, "pitch": 55, "duration": 5, "velocity": 78}, {"time": 2057, "pitch": 58, "duration": 5, "velocity": 78}, {"time": 2057, "pitch": 63, "duration": 5, "velocity": 78}, {"time": 2069, "pitch": 43, "duration": 19, "velocity": 78}, {"time": 2069, "pitch": 59, "duration": 11, "velocity": 78}, {"time": 2069, "pitch": 62, "duration": 11, "velocity": 78}, {"time": 2069, "pitch": 67, "duration": 2, "velocity": 78}, {"time": 2075, "pitch": 50, "duration": 13, "velocity": 78}, {"time": 2081, "pitch": 59, "duration": 8, "velocity": 78}, {"time": 2081, "pitch": 62, "duration": 7, "velocity": 78}, {"time": 2081, "pitch": 67, "duration": 5, "velocity": 78}, {"time": 2093, "pitch": 44, "duration": 20, "velocity": 78}, {"time": 2096, "pitch": 51, "duration": 19, "velocity": 78}, {"time": 2099, "pitch": 56, "duration": 13, "velocity": 78}, {"time": 2099, "pitch": 60, "duration": 1, "velocity": 78}, {"time": 2102, "pitch": 60, "duration": 8, "velocity": 78}, {"time": 2108, "pitch": 67, "duration": 10, "velocity": 78}, {"time": 2114, "pitch": 60, "duration": 4, "velocity": 78}, {"time": 2117, "pitch": 46, "duration": 20, "velocity": 78}, {"time": 2120, "pitch": 53, "duration": 20, "velocity": 78}, {"time": 2123, "pitch": 58, "duration": 14, "velocity": 78}, {"time": 2126, "pitch": 62, "duration": 5, "velocity": 78}, {"time": 2132, "pitch": 62, "duration": 8, "velocity": 78}, {"time": 2132, "pitch": 65, "duration": 8, "velocity": 78}, {"time": 2141, "pitch": 48, "duration": 17, "velocity": 78}, {"time": 2141, "pitch": 63, "duration": 10, "velocity": 78}, {"time": 2141, "pitch": 67, "duration": 10, "velocity": 78}, {"time": 2147, "pitch": 55, "duration": 15, "velocity": 78}, {"time": 2153, "pitch": 63, "duration": 11, "velocity": 78}, {"time": 2153, "pitch": 67, "duration": 10, "velocity": 78}, {"time": 2165, "pitch": 48, "duration": 3, "velocity": 78}, {"time": 2165, "pitch": 63, "duration": 3, "velocity": 78}, {"time": 2165, "pitch": 67, "duration": 3, "velocity": 78}, {"time": 2165, "pitch": 72, "duration": 3, "velocity": 78}, {"time": 2177, "pitch": 43, "duration": 4, "velocity": 78}, {"time": 2177, "pitch": 58, "duration": 4, "velocity": 78}, {"time": 2177, "pitch": 62, "duration": 4, "velocity": 78}, {"time": 2177, "pitch": 67, "duration": 4, "velocity": 78}, {"time": 2183, "pitch": 43, "duration": 3, "velocity": 78}, {"time": 2183, "pitch": 58, "duration": 3, "velocity": 78}, {"time": 2183, "pitch": 62, "duration": 3, "velocity": 78}, {"time": 2183, "pitch": 67, "duration": 3, "velocity": 78}, {"time": 2189, "pitch": 44, "duration": 17, "velocity": 78}, {"time": 2189, "pitch": 60, "duration": 10, "velocity": 78}, {"time": 2189, "pitch": 63, "duration": 10, "velocity": 78}, {"time": 2189, "pitch": 68, "duration": 10, "velocity": 78}, {"time": 2195, "pitch": 51, "duration": 17, "velocity": 78}, {"time": 2201, "pitch": 60, "duration": 6, "velocity": 78}, {"time": 2201, "pitch": 63, "duration": 6, "velocity": 78}, {"time": 2201, "pitch": 68, "duration": 6, "velocity": 78}, {"time": 2207, "pitch": 56, "duration": 6, "velocity": 78}, {"time": 2210, "pitch": 62, "duration": 1, "velocity": 78}, {"time": 2210, "pitch": 65, "duration": 1, "velocity": 78}, {"time": 2213, "pitch": 46, "duration": 18, "velocity": 78}, {"time": 2213, "pitch": 62, "duration": 11, "velocity": 78}, {"time": 2213, "pitch": 65, "duration": 11, "velocity": 78}, {"time": 2213, "pitch": 70, "duration": 11, "velocity": 78}, {"time": 2219, "pitch": 53, "duration": 10, "velocity": 78}, {"time": 2225, "pitch": 62, "duration": 6, "velocity": 78}, {"time": 2225, "pitch": 65, "duration": 6, "velocity": 78}, {"time": 2225, "pitch": 70, "duration": 6, "velocity": 78}, {"time": 2237, "pitch": 39, "duration": 8, "velocity": 78}, {"time": 2237, "pitch": 43, "duration": 18, "velocity": 78}, {"time": 2237, "pitch": 58, "duration": 10, "velocity": 78}, {"time": 2237, "pitch": 62, "duration": 10, "velocity": 78}, {"time": 2237, "pitch": 67, "duration": 10, "velocity": 78}, {"time": 2243, "pitch": 50, "duration": 12, "velocity": 78}, {"time": 2249, "pitch": 58, "duration": 7, "velocity": 78}, {"time": 2249, "pitch": 62, "duration": 7, "velocity": 78}, {"time": 2249, "pitch": 67, "duration": 7, "velocity": 78}, {"time": 2255, "pitch": 55, "duration": 6, "velocity": 78}, {"time": 2261, "pitch": 48, "duration": 19, "velocity": 78}, {"time": 2261, "pitch": 72, "duration": 6, "velocity": 78}, {"time": 2261, "pitch": 76, "duration": 6, "velocity": 78}, {"time": 2267, "pitch": 55, "duration": 14, "velocity": 79}, {"time": 2270, "pitch": 72, "duration": 5, "velocity": 79}, {"time": 2270, "pitch": 77, "duration": 4, "velocity": 79}, {"time": 2273, "pitch": 52, "duration": 7, "velocity": 79}, {"time": 2273, "pitch": 60, "duration": 6, "velocity": 79}, {"time": 2276, "pitch": 72, "duration": 8, "velocity": 79}, {"time": 2276, "pitch": 79, "duration": 8, "velocity": 79}, {"time": 2285, "pitch": 41, "duration": 17, "velocity": 79}, {"time": 2285, "pitch": 56, "duration": 10, "velocity": 79}, {"time": 2285, "pitch": 60, "duration": 10, "velocity": 79}, {"time": 2285, "pitch": 65, "duration": 10, "velocity": 79}, {"time": 2291, "pitch": 48, "duration": 13, "velocity": 79}, {"time": 2297, "pitch": 56, "duration": 7, "velocity": 79}, {"time": 2297, "pitch": 60, "duration": 7, "velocity": 79}, {"time": 2297, "pitch": 65, "duration": 7, "velocity": 79}, {"time": 2303, "pitch": 53, "duration": 5, "velocity": 79}, {"time": 2303, "pitch": 55, "duration": 1, "velocity": 79}, {"time": 2309, "pitch": 46, "duration": 18, "velocity": 79}, {"time": 2309, "pitch": 62, "duration": 10, "velocity": 79}, {"time": 2309, "pitch": 65, "duration": 10, "velocity": 79}, {"time": 2309, "pitch": 70, "duration": 10, "velocity": 79}, {"time": 2315, "pitch": 53, "duration": 11, "velocity": 79}, {"time": 2321, "pitch": 62, "duration": 6, "velocity": 79}, {"time": 2321, "pitch": 65, "duration": 6, "velocity": 79}, {"time": 2321, "pitch": 70, "duration": 6, "velocity": 79}, {"time": 2333, "pitch": 39, "duration": 24, "velocity": 79}, {"time": 2333, "pitch": 55, "duration": 11, "velocity": 79}, {"time": 2333, "pitch": 58, "duration": 11, "velocity": 79}, {"time": 2333, "pitch": 63, "duration": 11, "velocity": 79}, {"time": 2339, "pitch": 46, "duration": 18, "velocity": 79}, {"time": 2345, "pitch": 55, "duration": 11, "velocity": 79}, {"time": 2345, "pitch": 58, "duration": 11, "velocity": 79}, {"time": 2345, "pitch": 63, "duration": 10, "velocity": 79}, {"time": 2357, "pitch": 43, "duration": 18, "velocity": 79}, {"time": 2357, "pitch": 59, "duration": 10, "velocity": 79}, {"time": 2357, "pitch": 62, "duration": 10, "velocity": 79}, {"time": 2357, "pitch": 67, "duration": 10, "velocity": 79}, {"time": 2363, "pitch": 50, "duration": 17, "velocity": 79}, {"time": 2369, "pitch": 59, "duration": 6, "velocity": 79}, {"time": 2369, "pitch": 62, "duration": 6, "velocity": 79}, {"time": 2369, "pitch": 67, "duration": 5, "velocity": 79}, {"time": 2375, "pitch": 55, "duration": 5, "velocity": 79}, {"time": 2381, "pitch": 44, "duration": 19, "velocity": 79}, {"time": 2381, "pitch": 60, "duration": 11, "velocity": 79}, {"time": 2381, "pitch": 63, "duration": 11, "velocity": 79}, {"time": 2381, "pitch": 68, "duration": 7, "velocity": 79}, {"time": 2387, "pitch": 51, "duration": 18, "velocity": 79}, {"time": 2390, "pitch": 68, "duration": 1, "velocity": 80}, {"time": 2393, "pitch": 60, "duration": 6, "velocity": 80}, {"time": 2393, "pitch": 63, "duration": 6, "velocity": 80}, {"time": 2393, "pitch": 68, "duration": 6, "velocity": 80}, {"time": 2399, "pitch": 56, "duration": 6, "velocity": 80}, {"time": 2405, "pitch": 46, "duration": 17, "velocity": 80}, {"time": 2405, "pitch": 62, "duration": 10, "velocity": 80}, {"time": 2405, "pitch": 65, "duration": 10, "velocity": 80}, {"time": 2405, "pitch": 70, "duration": 10, "velocity": 80}, {"time": 2411, "pitch": 53, "duration": 10, "velocity": 80}, {"time": 2417, "pitch": 62, "duration": 6, "velocity": 80}, {"time": 2417, "pitch": 65, "duration": 5, "velocity": 80}, {"time": 2417, "pitch": 70, "duration": 5, "velocity": 80}, {"time": 2429, "pitch": 43, "duration": 18, "velocity": 80}, {"time": 2429, "pitch": 50, "duration": 18, "velocity": 80}, {"time": 2429, "pitch": 55, "duration": 15, "velocity": 80}, {"time": 2429, "pitch": 59, "duration": 11, "velocity": 80}, {"time": 2429, "pitch": 62, "duration": 11, "velocity": 80}, {"time": 2429, "pitch": 67, "duration": 7, "velocity": 80}, {"time": 2435, "pitch": 47, "duration": 12, "velocity": 80}, {"time": 2441, "pitch": 59, "duration": 6, "velocity": 80}, {"time": 2441, "pitch": 62, "duration": 6, "velocity": 80}, {"time": 2441, "pitch": 67, "duration": 5, "velocity": 80}, {"time": 2447, "pitch": 55, "duration": 6, "velocity": 80}, {"time": 2453, "pitch": 48, "duration": 18, "velocity": 80}, {"time": 2453, "pitch": 63, "duration": 10, "velocity": 80}, {"time": 2453, "pitch": 67, "duration": 10, "velocity": 80}, {"time": 2453, "pitch": 72, "duration": 10, "velocity": 80}, {"time": 2459, "pitch": 55, "duration": 13, "velocity": 80}, {"time": 2465, "pitch": 63, "duration": 7, "velocity": 80}, {"time": 2465, "pitch": 67, "duration": 7, "velocity": 80}, {"time": 2465, "pitch": 72, "duration": 7, "velocity": 80}, {"time": 2471, "pitch": 60, "duration": 6, "velocity": 82}, {"time": 2477, "pitch": 53, "duration": 17, "velocity": 82}, {"time": 2477, "pitch": 68, "duration": 10, "velocity": 82}, {"time": 2477, "pitch": 72, "duration": 11, "velocity": 82}, {"time": 2477, "pitch": 77, "duration": 10, "velocity": 82}, {"time": 2483, "pitch": 60, "duration": 8, "velocity": 82}, {"time": 2489, "pitch": 68, "duration": 6, "velocity": 82}, {"time": 2489, "pitch": 72, "duration": 6, "velocity": 82}, {"time": 2489, "pitch": 77, "duration": 6, "velocity": 82}, {"time": 2501, "pitch": 46, "duration": 18, "velocity": 86}, {"time": 2501, "pitch": 62, "duration": 10, "velocity": 86}, {"time": 2501, "pitch": 65, "duration": 10, "velocity": 86}, {"time": 2501, "pitch": 70, "duration": 10, "velocity": 86}, {"time": 2507, "pitch": 53, "duration": 10, "velocity": 86}, {"time": 2513, "pitch": 62, "duration": 5, "velocity": 86}, {"time": 2513, "pitch": 65, "duration": 5, "velocity": 86}, {"time": 2513, "pitch": 70, "duration": 5, "velocity": 86}, {"time": 2525, "pitch": 39, "duration": 38, "velocity": 88}, {"time": 2525, "pitch": 55, "duration": 11, "velocity": 88}, {"time": 2525, "pitch": 58, "duration": 11, "velocity": 88}, {"time": 2525, "pitch": 63, "duration": 11, "velocity": 88}, {"time": 2531, "pitch": 46, "duration": 30, "velocity": 88}, {"time": 2537, "pitch": 55, "duration": 10, "velocity": 88}, {"time": 2537, "pitch": 58, "duration": 11, "velocity": 88}, {"time": 2537, "pitch": 63, "duration": 8, "velocity": 88}, {"time": 2543, "pitch": 51, "duration": 18, "velocity": 89}, {"time": 2549, "pitch": 55, "duration": 9, "velocity": 89}, {"time": 2549, "pitch": 58, "duration": 12, "velocity": 89}, {"time": 2549, "pitch": 63, "duration": 10, "velocity": 89}, {"time": 2561, "pitch": 43, "duration": 4, "velocity": 90}, {"time": 2561, "pitch": 58, "duration": 4, "velocity": 90}, {"time": 2561, "pitch": 62, "duration": 4, "velocity": 90}, {"time": 2561, "pitch": 67, "duration": 4, "velocity": 90}, {"time": 2567, "pitch": 43, "duration": 3, "velocity": 90}, {"time": 2567, "pitch": 58, "duration": 3, "velocity": 90}, {"time": 2567, "pitch": 62, "duration": 3, "velocity": 90}, {"time": 2567, "pitch": 67, "duration": 3, "velocity": 90}, {"time": 2573, "pitch": 44, "duration": 17, "velocity": 90}, {"time": 2573, "pitch": 60, "duration": 10, "velocity": 90}, {"time": 2573, "pitch": 63, "duration": 10, "velocity": 90}, {"time": 2573, "pitch": 68, "duration": 10, "velocity": 90}, {"time": 2579, "pitch": 51, "duration": 17, "velocity": 90}, {"time": 2585, "pitch": 60, "duration": 6, "velocity": 90}, {"time": 2585, "pitch": 63, "duration": 6, "velocity": 90}, {"time": 2585, "pitch": 68, "duration": 6, "velocity": 90}, {"time": 2591, "pitch": 56, "duration": 6, "velocity": 90}, {"time": 2594, "pitch": 62, "duration": 1, "velocity": 90}, {"time": 2594, "pitch": 65, "duration": 1, "velocity": 90}, {"time": 2597, "pitch": 46, "duration": 18, "velocity": 90}, {"time": 2597, "pitch": 62, "duration": 11, "velocity": 90}, {"time": 2597, "pitch": 65, "duration": 11, "velocity": 90}, {"time": 2597, "pitch": 70, "duration": 11, "velocity": 90}, {"time": 2603, "pitch": 53, "duration": 10, "velocity": 90}, {"time": 2609, "pitch": 62, "duration": 6, "velocity": 90}, {"time": 2609, "pitch": 65, "duration": 6, "velocity": 90}, {"time": 2609, "pitch": 70, "duration": 6, "velocity": 90}, {"time": 2621, "pitch": 39, "duration": 8, "velocity": 91}, {"time": 2621, "pitch": 43, "duration": 18, "velocity": 91}, {"time": 2621, "pitch": 58, "duration": 10, "velocity": 91}, {"time": 2621, "pitch": 62, "duration": 10, "velocity": 91}, {"time": 2621, "pitch": 67, "duration": 10, "velocity": 91}, {"time": 2627, "pitch": 50, "duration": 12, "velocity": 91}, {"time": 2633, "pitch": 58, "duration": 7, "velocity": 91}, {"time": 2633, "pitch": 62, "duration": 7, "velocity": 91}, {"time": 2633, "pitch": 67, "duration": 7, "velocity": 91}, {"time": 2639, "pitch": 55, "duration": 6, "velocity": 91}, {"time": 2645, "pitch": 48, "duration": 19, "velocity": 91}, {"time": 2645, "pitch": 72, "duration": 6, "velocity": 91}, {"time": 2645, "pitch": 76, "duration": 6, "velocity": 91}, {"time": 2651, "pitch": 55, "duration": 14, "velocity": 91}, {"time": 2654, "pitch": 72, "duration": 5, "velocity": 91}, {"time": 2654, "pitch": 77, "duration": 4, "velocity": 91}, {"time": 2657, "pitch": 52, "duration": 7, "velocity": 91}, {"time": 2657, "pitch": 60, "duration": 6, "velocity": 91}, {"time": 2660, "pitch": 72, "duration": 8, "velocity": 91}, {"time": 2660, "pitch": 79, "duration": 8, "velocity": 91}, {"time": 2669, "pitch": 41, "duration": 17, "velocity": 92}, {"time": 2669, "pitch": 56, "duration": 10, "velocity": 92}, {"time": 2669, "pitch": 60, "duration": 10, "velocity": 92}, {"time": 2669, "pitch": 65, "duration": 10, "velocity": 92}, {"time": 2675, "pitch": 48, "duration": 13, "velocity": 92}, {"time": 2681, "pitch": 56, "duration": 7, "velocity": 92}, {"time": 2681, "pitch": 60, "duration": 7, "velocity": 92}, {"time": 2681, "pitch": 65, "duration": 7, "velocity": 92}, {"time": 2687, "pitch": 53, "duration": 5, "velocity": 92}, {"time": 2687, "pitch": 55, "duration": 1, "velocity": 92}, {"time": 2693, "pitch": 46, "duration": 18, "velocity": 92}, {"time": 2693, "pitch": 62, "duration": 10, "velocity": 92}, {"time": 2693, "pitch": 65, "duration": 10, "velocity": 92}, {"time": 2693, "pitch": 70, "duration": 10, "velocity": 92}, {"time": 2699, "pitch": 53, "duration": 11, "velocity": 92}, {"time": 2705, "pitch": 62, "duration": 6, "velocity": 92}, {"time": 2705, "pitch": 65, "duration": 6, "velocity": 92}, {"time": 2705, "pitch": 70, "duration": 6, "velocity": 92}, {"time": 2717, "pitch": 39, "duration": 24, "velocity": 92}, {"time": 2717, "pitch": 55, "duration": 11, "velocity": 92}, {"time": 2717, "pitch": 58, "duration": 11, "velocity": 92}, {"time": 2717, "pitch": 63, "duration": 11, "velocity": 92}, {"time": 2723, "pitch": 46, "duration": 18, "velocity": 92}, {"time": 2729, "pitch": 55, "duration": 11, "velocity": 92}, {"time": 2729, "pitch": 58, "duration": 11, "velocity": 92}, {"time": 2729, "pitch": 63, "duration": 10, "velocity": 92}, {"time": 2741, "pitch": 43, "duration": 18, "velocity": 92}, {"time": 2741, "pitch": 59, "duration": 10, "velocity": 92}, {"time": 2741, "pitch": 62, "duration": 10, "velocity": 92}, {"time": 2741, "pitch": 67, "duration": 10, "velocity": 92}, {"time": 2747, "pitch": 50, "duration": 17, "velocity": 92}, {"time": 2753, "pitch": 59, "duration": 6, "velocity": 92}, {"time": 2753, "pitch": 62, "duration": 6, "velocity": 92}, {"time": 2753, "pitch": 67, "duration": 5, "velocity": 92}, {"time": 2759, "pitch": 55, "duration": 5, "velocity": 92}, {"time": 2765, "pitch": 44, "duration": 19, "velocity": 92}, {"time": 2765, "pitch": 60, "duration": 11, "velocity": 92}, {"time": 2765, "pitch": 63, "duration": 11, "velocity": 92}, {"time": 2765, "pitch": 68, "duration": 7, "velocity": 92}, {"time": 2771, "pitch": 51, "duration": 18, "velocity": 92}, {"time": 2774, "pitch": 68, "duration": 1, "velocity": 90}, {"time": 2777, "pitch": 60, "duration": 6, "velocity": 90}, {"time": 2777, "pitch": 63, "duration": 6, "velocity": 90}, {"time": 2777, "pitch": 68, "duration": 6, "velocity": 90}, {"time": 2783, "pitch": 56, "duration": 6, "velocity": 90}, {"time": 2789, "pitch": 46, "duration": 17, "velocity": 90}, {"time": 2789, "pitch": 62, "duration": 10, "velocity": 90}, {"time": 2789, "pitch": 65, "duration": 10, "velocity": 90}, {"time": 2789, "pitch": 70, "duration": 10, "velocity": 90}, {"time": 2795, "pitch": 53, "duration": 10, "velocity": 90}, {"time": 2801, "pitch": 62, "duration": 6, "velocity": 88}, {"time": 2801, "pitch": 65, "duration": 5, "velocity": 88}, {"time": 2801, "pitch": 70, "duration": 5, "velocity": 88}, {"time": 2813, "pitch": 43, "duration": 18, "velocity": 87}, {"time": 2813, "pitch": 50, "duration": 18, "velocity": 87}, {"time": 2813, "pitch": 55, "duration": 15, "velocity": 87}, {"time": 2813, "pitch": 59, "duration": 11, "velocity": 87}, {"time": 2813, "pitch": 62, "duration": 11, "velocity": 87}, {"time": 2813, "pitch": 67, "duration": 7, "velocity": 87}, {"time": 2819, "pitch": 47, "duration": 12, "velocity": 87}, {"time": 2825, "pitch": 59, "duration": 6, "velocity": 87}, {"time": 2825, "pitch": 62, "duration": 6, "velocity": 87}, {"time": 2825, "pitch": 67, "duration": 5, "velocity": 87}, {"time": 2831, "pitch": 55, "duration": 6, "velocity": 87}, {"time": 2837, "pitch": 48, "duration": 18, "velocity": 87}, {"time": 2837, "pitch": 63, "duration": 10, "velocity": 87}, {"time": 2837, "pitch": 67, "duration": 10, "velocity": 87}, {"time": 2837, "pitch": 72, "duration": 10, "velocity": 87}, {"time": 2843, "pitch": 55, "duration": 13, "velocity": 87}, {"time": 2849, "pitch": 63, "duration": 7, "velocity": 87}, {"time": 2849, "pitch": 67, "duration": 7, "velocity": 87}, {"time": 2849, "pitch": 72, "duration": 7, "velocity": 87}, {"time": 2855, "pitch": 60, "duration": 6, "velocity": 87}, {"time": 2861, "pitch": 53, "duration": 17, "velocity": 87}, {"time": 2861, "pitch": 68, "duration": 10, "velocity": 87}, {"time": 2861, "pitch": 72, "duration": 11, "velocity": 87}, {"time": 2861, "pitch": 77, "duration": 10, "velocity": 87}, {"time": 2867, "pitch": 60, "duration": 8, "velocity": 87}, {"time": 2873, "pitch": 68, "duration": 6, "velocity": 86}, {"time": 2873, "pitch": 72, "duration": 6, "velocity": 86}, {"time": 2873, "pitch": 77, "duration": 6, "velocity": 86}, {"time": 2885, "pitch": 46, "duration": 18, "velocity": 85}, {"time": 2885, "pitch": 62, "duration": 10, "velocity": 85}, {"time": 2885, "pitch": 65, "duration": 10, "velocity": 85}, {"time": 2885, "pitch": 70, "duration": 10, "velocity": 85}, {"time": 2891, "pitch": 53, "duration": 10, "velocity": 85}, {"time": 2897, "pitch": 62, "duration": 5, "velocity": 85}, {"time": 2897, "pitch": 65, "duration": 5, "velocity": 85}, {"time": 2897, "pitch": 70, "duration": 5, "velocity": 85}, {"time": 2909, "pitch": 39, "duration": 38, "velocity": 85}, {"time": 2909, "pitch": 55, "duration": 11, "velocity": 85}, {"time": 2909, "pitch": 58, "duration": 11, "velocity": 85}, {"time": 2909, "pitch": 63, "duration": 11, "velocity": 85}, {"time": 2915, "pitch": 46, "duration": 30, "velocity": 85}, {"time": 2921, "pitch": 55, "duration": 10, "velocity": 85}, {"time": 2921, "pitch": 58, "duration": 11, "velocity": 85}, {"time": 2921, "pitch": 63, "duration": 8, "velocity": 85}, {"time": 2927, "pitch": 51, "duration": 18, "velocity": 85}, {"time": 2933, "pitch": 55, "duration": 9, "velocity": 85}, {"time": 2933, "pitch": 58, "duration": 12, "velocity": 85}, {"time": 2933, "pitch": 63, "duration": 10, "velocity": 85}, {"time": 2957, "pitch": 49, "duration": 8, "velocity": 85}, {"time": 2957, "pitch": 61, "duration": 8, "velocity": 85}, {"time": 2957, "pitch": 63, "duration": 8, "velocity": 85}, {"time": 2957, "pitch": 73, "duration": 8, "velocity": 85}, {"time": 2969, "pitch": 48, "duration": 7, "velocity": 85}, {"time": 2969, "pitch": 63, "duration": 8, "velocity": 85}, {"time": 2969, "pitch": 70, "duration": 7, "velocity": 85}, {"time": 2981, "pitch": 47, "duration": 7, "velocity": 85}, {"time": 2981, "pitch": 53, "duration": 7, "velocity": 85}, {"time": 2981, "pitch": 56, "duration": 8, "velocity": 85}, {"time": 2993, "pitch": 46, "duration": 39, "velocity": 85}, {"time": 2993, "pitch": 53, "duration": 39, "velocity": 85}, {"time": 2993, "pitch": 58, "duration": 39, "velocity": 85}, {"time": 3029, "pitch": 51, "duration": 19, "velocity": 83}, {"time": 3032, "pitch": 58, "duration": 1, "velocity": 83}, {"time": 3035, "pitch": 65, "duration": 1, "velocity": 83}, {"time": 3038, "pitch": 58, "duration": 2, "velocity": 83}, {"time": 3041, "pitch": 67, "duration": 12, "velocity": 83}, {"time": 3044, "pitch": 58, "duration": 4, "velocity": 83}, {"time": 3047, "pitch": 65, "duration": 3, "velocity": 83}, {"time": 3053, "pitch": 51, "duration": 21, "velocity": 83}, {"time": 3056, "pitch": 58, "duration": 3, "velocity": 83}, {"time": 3059, "pitch": 65, "duration": 1, "velocity": 83}, {"time": 3062, "pitch": 58, "duration": 3, "velocity": 83}, {"time": 3065, "pitch": 67, "duration": 6, "velocity": 83}, {"time": 3068, "pitch": 58, "duration": 4, "velocity": 83}, {"time": 3071, "pitch": 65, "duration": 5, "velocity": 83}, {"time": 3077, "pitch": 51, "duration": 24, "velocity": 83}, {"time": 3080, "pitch": 58, "duration": 13, "velocity": 83}, {"time": 3080, "pitch": 70, "duration": 3, "velocity": 83}, {"time": 3083, "pitch": 77, "duration": 4, "velocity": 83}, {"time": 3086, "pitch": 70, "duration": 4, "velocity": 83}, {"time": 3089, "pitch": 79, "duration": 5, "velocity": 83}, {"time": 3092, "pitch": 70, "duration": 5, "velocity": 83}, {"time": 3098, "pitch": 77, "duration": 31, "velocity": 83}, {"time": 3104, "pitch": 51, "duration": 34, "velocity": 83}, {"time": 3104, "pitch": 70, "duration": 33, "velocity": 83}, {"time": 3104, "pitch": 75, "duration": 33, "velocity": 83}, {"time": 3104, "pitch": 79, "duration": 33, "velocity": 83}, {"time": 3107, "pitch": 58, "duration": 30, "velocity": 83}, {"time": 3113, "pitch": 63, "duration": 24, "velocity": 83}], "annotations": [{"time": 10, "annotation": {"number": 64, "value": 79}, "group": "control_change"}, {"time": 10, "annotation": {"number": 64, "value": 80}, "group": "control_change"}, {"time": 10, "annotation": {"number": 64, "value": 81}, "group": "control_change"}, {"time": 10, "annotation": {"number": 64, "value": 82}, "group": "control_change"}, {"time": 11, "annotation": {"number": 64, "value": 83}, "group": "control_change"}, {"time": 11, "annotation": {"number": 64, "value": 82}, "group": "control_change"}, {"time": 12, "annotation": {"number": 64, "value": 81}, "group": "control_change"}, {"time": 15, "annotation": {"number": 64, "value": 80}, "group": "control_change"}, {"time": 15, "annotation": {"number": 64, "value": 79}, "group": "control_change"}, {"time": 15, "annotation": {"number": 64, "value": 78}, "group": "control_change"}, {"time": 16, "annotation": {"number": 64, "value": 77}, "group": "control_change"}, {"time": 16, "annotation": {"number": 64, "value": 76}, "group": "control_change"}, {"time": 17, "annotation": {"number": 64, "value": 75}, "group": "control_change"}, {"time": 19, "annotation": {"number": 64, "value": 76}, "group": "control_change"}, {"time": 19, "annotation": {"number": 64, "value": 77}, "group": "control_change"}, {"time": 20, "annotation": {"number": 64, "value": 78}, "group": "control_change"}, {"time": 21, "annotation": {"number": 64, "value": 79}, "group": "control_change"}, {"time": 22, "annotation": {"number": 64, "value": 80}, "group": "control_change"}, {"time": 22, "annotation": {"number": 64, "value": 81}, "group": "control_change"}, {"time": 23, "annotation": {"number": 64, "value": 81}, "group": "control_change"}, {"time": 23, "annotation": {"number": 64, "value": 82}, "group": "control_change"}, {"time": 24, "annotation": {"number": 64, "value": 82}, "group": "control_change"}, {"time": 24, "annotation": {"number": 64, "value": 83}, "group": "control_change"}, {"time": 25, "annotation": {"number": 64, "value": 84}, "group": "control_change"}, {"time": 29, "annotation": {"number": 64, "value": 85}, "group": "control_change"}, {"time": 29, "annotation": {"number": 64, "value": 70}, "group": "control_change"}, {"time": 29, "annotation": {"number": 64, "value": 69}, "group": "control_change"}, {"time": 30, "annotation": {"number": 64, "value": 68}, "group": "control_change"}, {"time": 30, "annotation": {"number": 64, "value": 67}, "group": "control_change"}, {"time": 30, "annotation": {"number": 64, "value": 66}, "group": "control_change"}, {"time": 31, "annotation": {"number": 64, "value": 66}, "group": "control_change"}, {"time": 31, "annotation": {"number": 64, "value": 65}, "group": "control_change"}, {"time": 32, "annotation": {"number": 64, "value": 65}, "group": "control_change"}, {"time": 33, "annotation": {"number": 64, "value": 66}, "group": "control_change"}, {"time": 34, "annotation": {"number": 64, "value": 67}, "group": "control_change"}, {"time": 35, "annotation": {"number": 64, "value": 68}, "group": "control_change"}, {"time": 35, "annotation": {"number": 64, "value": 69}, "group": "control_change"}, {"time": 36, "annotation": {"number": 64, "value": 70}, "group": "control_change"}, {"time": 38, "annotation": {"number": 64, "value": 71}, "group": "control_change"}, {"time": 38, "annotation": {"number": 64, "value": 72}, "group": "control_change"}, {"time": 39, "annotation": {"number": 64, "value": 73}, "group": "control_change"}, {"time": 40, "annotation": {"number": 64, "value": 74}, "group": "control_change"}, {"time": 40, "annotation": {"number": 64, "value": 75}, "group": "control_change"}, {"time": 41, "annotation": {"number": 64, "value": 76}, "group": "control_change"}, {"time": 42, "annotation": {"number": 64, "value": 77}, "group": "control_change"}, {"time": 42, "annotation": {"number": 64, "value": 78}, "group": "control_change"}, {"time": 44, "annotation": {"number": 64, "value": 79}, "group": "control_change"}, {"time": 45, "annotation": {"number": 64, "value": 80}, "group": "control_change"}, {"time": 47, "annotation": {"number": 64, "value": 79}, "group": "control_change"}, {"time": 48, "annotation": {"number": 64, "value": 78}, "group": "control_change"}, {"time": 49, "annotation": {"number": 64, "value": 78}, "group": "control_change"}, {"time": 50, "annotation": {"number": 64, "value": 77}, "group": "control_change"}, {"time": 51, "annotation": {"number": 64, "value": 76}, "group": "control_change"}, {"time": 52, "annotation": {"number": 64, "value": 75}, "group": "control_change"}, {"time": 53, "annotation": {"number": 64, "value": 76}, "group": "control_change"}, {"time": 53, "annotation": {"number": 64, "value": 77}, "group": "control_change"}, {"time": 53, "annotation": {"number": 64, "value": 78}, "group": "control_change"}, {"time": 65, "annotation": {"number": 64, "value": 76}, "group": "control_change"}, {"time": 113, "annotation": {"number": 64, "value": 75}, "group": "control_change"}, {"time": 125, "annotation": {"number": 64, "value": 76}, "group": "control_change"}, {"time": 173, "annotation": {"number": 64, "value": 78}, "group": "control_change"}, {"time": 185, "annotation": {"number": 64, "value": 79}, "group": "control_change"}, {"time": 209, "annotation": {"number": 64, "value": 80}, "group": "control_change"}, {"time": 293, "annotation": {"number": 64, "value": 81}, "group": "control_change"}, {"time": 305, "annotation": {"number": 64, "value": 80}, "group": "control_change"}, {"time": 365, "annotation": {"number": 64, "value": 79}, "group": "control_change"}, {"time": 485, "annotation": {"number": 64, "value": 80}, "group": "control_change"}, {"time": 497, "annotation": {"number": 64, "value": 81}, "group": "control_change"}, {"time": 509, "annotation": {"number": 64, "value": 83}, "group": "control_change"}, {"time": 521, "annotation": {"number": 64, "value": 84}, "group": "control_change"}, {"time": 557, "annotation": {"number": 64, "value": 85}, "group": "control_change"}, {"time": 605, "annotation": {"number": 64, "value": 88}, "group": "control_change"}, {"time": 617, "annotation": {"number": 64, "value": 85}, "group": "control_change"}, {"time": 641, "annotation": {"number": 64, "value": 84}, "group": "control_change"}, {"time": 725, "annotation": {"number": 64, "value": 83}, "group": "control_change"}, {"time": 749, "annotation": {"number": 64, "value": 84}, "group": "control_change"}, {"time": 761, "annotation": {"number": 64, "value": 85}, "group": "control_change"}, {"time": 785, "annotation": {"number": 64, "value": 86}, "group": "control_change"}, {"time": 797, "annotation": {"number": 64, "value": 89}, "group": "control_change"}, {"time": 845, "annotation": {"number": 64, "value": 90}, "group": "control_change"}, {"time": 881, "annotation": {"number": 64, "value": 89}, "group": "control_change"}, {"time": 893, "annotation": {"number": 64, "value": 6}, "group": "control_change"}, {"time": 905, "annotation": {"number": 64, "value": 5}, "group": "control_change"}, {"time": 917, "annotation": {"number": 64, "value": 85}, "group": "control_change"}, {"time": 941, "annotation": {"number": 64, "value": 84}, "group": "control_change"}, {"time": 977, "annotation": {"number": 64, "value": 83}, "group": "control_change"}, {"time": 1001, "annotation": {"number": 64, "value": 81}, "group": "control_change"}, {"time": 1013, "annotation": {"number": 64, "value": 83}, "group": "control_change"}, {"time": 1061, "annotation": {"number": 64, "value": 84}, "group": "control_change"}, {"time": 1097, "annotation": {"number": 64, "value": 85}, "group": "control_change"}, {"time": 1109, "annotation": {"number": 64, "value": 86}, "group": "control_change"}, {"time": 1121, "annotation": {"number": 64, "value": 89}, "group": "control_change"}, {"time": 1133, "annotation": {"number": 64, "value": 90}, "group": "control_change"}, {"time": 1145, "annotation": {"number": 64, "value": 91}, "group": "control_change"}, {"time": 1157, "annotation": {"number": 64, "value": 92}, "group": "control_change"}, {"time": 1169, "annotation": {"number": 64, "value": 94}, "group": "control_change"}, {"time": 1217, "annotation": {"number": 64, "value": 95}, "group": "control_change"}, {"time": 1229, "annotation": {"number": 64, "value": 94}, "group": "control_change"}, {"time": 1253, "annotation": {"number": 64, "value": 92}, "group": "control_change"}, {"time": 1277, "annotation": {"number": 64, "value": 90}, "group": "control_change"}, {"time": 1301, "annotation": {"number": 64, "value": 88}, "group": "control_change"}, {"time": 1313, "annotation": {"number": 64, "value": 84}, "group": "control_change"}, {"time": 1325, "annotation": {"number": 64, "value": 83}, "group": "control_change"}, {"time": 1337, "annotation": {"number": 64, "value": 75}, "group": "control_change"}, {"time": 1349, "annotation": {"number": 64, "value": 79}, "group": "control_change"}, {"time": 1361, "annotation": {"number": 64, "value": 81}, "group": "control_change"}, {"time": 1493, "annotation": {"number": 64, "value": 80}, "group": "control_change"}, {"time": 1505, "annotation": {"number": 64, "value": 79}, "group": "control_change"}, {"time": 1529, "annotation": {"number": 64, "value": 78}, "group": "control_change"}, {"time": 1553, "annotation": {"number": 64, "value": 76}, "group": "control_change"}, {"time": 1565, "annotation": {"number": 64, "value": 75}, "group": "control_change"}, {"time": 1625, "annotation": {"number": 64, "value": 74}, "group": "control_change"}, {"time": 1997, "annotation": {"number": 64, "value": 75}, "group": "control_change"}, {"time": 2033, "annotation": {"number": 64, "value": 76}, "group": "control_change"}, {"time": 2081, "annotation": {"number": 64, "value": 78}, "group": "control_change"}, {"time": 2117, "annotation": {"number": 64, "value": 79}, "group": "control_change"}, {"time": 2153, "annotation": {"number": 64, "value": 80}, "group": "control_change"}, {"time": 2189, "annotation": {"number": 64, "value": 81}, "group": "control_change"}, {"time": 2225, "annotation": {"number": 64, "value": 83}, "group": "control_change"}, {"time": 2345, "annotation": {"number": 64, "value": 84}, "group": "control_change"}, {"time": 2381, "annotation": {"number": 64, "value": 85}, "group": "control_change"}, {"time": 2501, "annotation": {"number": 64, "value": 84}, "group": "control_change"}, {"time": 2537, "annotation": {"number": 64, "value": 83}, "group": "control_change"}, {"time": 2561, "annotation": {"number": 64, "value": 81}, "group": "control_change"}, {"time": 2585, "annotation": {"number": 64, "value": 80}, "group": "control_change"}, {"time": 2729, "annotation": {"number": 64, "value": 79}, "group": "control_change"}, {"time": 2873, "annotation": {"number": 64, "value": 80}, "group": "control_change"}, {"time": 2897, "annotation": {"number": 64, "value": 69}, "group": "control_change"}, {"time": 2921, "annotation": {"number": 64, "value": 70}, "group": "control_change"}, {"time": 2948, "annotation": {"number": 64, "value": 0}, "group": "control_change"}, {"time": 2969, "annotation": {"number": 64, "value": 72}, "group": "control_change"}, {"time": 3005, "annotation": {"number": 64, "value": 74}, "group": "control_change"}, {"time": 3017, "annotation": {"number": 64, "value": 75}, "group": "control_change"}, {"time": 3053, "annotation": {"number": 64, "value": 76}, "group": "control_change"}]}]}