{"metadata": {"schema_version": "0.2", "title": "None", "source_filename": "031.mid", "source_format": "midi"}, "resolution": 12, "tempos": [{"time": 0, "qpm": 123.99999173333389}], "time_signatures": [{"time": 0, "numerator": 1, "denominator": 4}], "tracks": [{"program": 4, "is_drum": false, "name": "MELODY", "notes": [{"time": 830, "pitch": 68, "duration": 12, "velocity": 107}, {"time": 842, "pitch": 73, "duration": 12, "velocity": 107}, {"time": 854, "pitch": 75, "duration": 12, "velocity": 122}, {"time": 866, "pitch": 76, "duration": 12, "velocity": 117}, {"time": 878, "pitch": 75, "duration": 6, "velocity": 122}, {"time": 884, "pitch": 76, "duration": 30, "velocity": 112}, {"time": 914, "pitch": 76, "duration": 12, "velocity": 102}, {"time": 926, "pitch": 75, "duration": 6, "velocity": 117}, {"time": 932, "pitch": 73, "duration": 24, "velocity": 99}, {"time": 956, "pitch": 73, "duration": 6, "velocity": 102}, {"time": 962, "pitch": 73, "duration": 12, "velocity": 107}, {"time": 974, "pitch": 71, "duration": 6, "velocity": 99}, {"time": 980, "pitch": 71, "duration": 12, "velocity": 92}, {"time": 992, "pitch": 73, "duration": 12, "velocity": 99}, {"time": 1004, "pitch": 68, "duration": 36, "velocity": 93}, {"time": 1040, "pitch": 68, "duration": 6, "velocity": 86}, {"time": 1046, "pitch": 73, "duration": 6, "velocity": 35}, {"time": 1052, "pitch": 75, "duration": 6, "velocity": 89}, {"time": 1058, "pitch": 76, "duration": 12, "velocity": 95}, {"time": 1070, "pitch": 75, "duration": 6, "velocity": 117}, {"time": 1076, "pitch": 76, "duration": 30, "velocity": 107}, {"time": 1106, "pitch": 76, "duration": 12, "velocity": 117}, {"time": 1118, "pitch": 75, "duration": 6, "velocity": 112}, {"time": 1124, "pitch": 73, "duration": 30, "velocity": 107}, {"time": 1154, "pitch": 73, "duration": 12, "velocity": 127}, {"time": 1166, "pitch": 71, "duration": 6, "velocity": 93}, {"time": 1172, "pitch": 71, "duration": 6, "velocity": 86}, {"time": 1178, "pitch": 76, "duration": 9, "velocity": 99}, {"time": 1187, "pitch": 75, "duration": 9, "velocity": 102}, {"time": 1196, "pitch": 73, "duration": 6, "velocity": 89}, {"time": 1202, "pitch": 73, "duration": 48, "velocity": 112}, {"time": 1250, "pitch": 76, "duration": 12, "velocity": 100}, {"time": 1262, "pitch": 76, "duration": 6, "velocity": 97}, {"time": 1268, "pitch": 76, "duration": 30, "velocity": 107}, {"time": 1298, "pitch": 75, "duration": 12, "velocity": 102}, {"time": 1310, "pitch": 73, "duration": 6, "velocity": 100}, {"time": 1316, "pitch": 71, "duration": 30, "velocity": 95}, {"time": 1346, "pitch": 73, "duration": 12, "velocity": 102}, {"time": 1358, "pitch": 71, "duration": 6, "velocity": 99}, {"time": 1364, "pitch": 71, "duration": 12, "velocity": 90}, {"time": 1376, "pitch": 73, "duration": 12, "velocity": 89}, {"time": 1388, "pitch": 68, "duration": 54, "velocity": 97}, {"time": 1442, "pitch": 76, "duration": 12, "velocity": 89}, {"time": 1454, "pitch": 76, "duration": 6, "velocity": 99}, {"time": 1460, "pitch": 76, "duration": 30, "velocity": 112}, {"time": 1490, "pitch": 80, "duration": 12, "velocity": 117}, {"time": 1502, "pitch": 78, "duration": 6, "velocity": 102}, {"time": 1508, "pitch": 78, "duration": 24, "velocity": 122}, {"time": 1532, "pitch": 71, "duration": 6, "velocity": 90}, {"time": 1538, "pitch": 76, "duration": 9, "velocity": 97}, {"time": 1547, "pitch": 76, "duration": 9, "velocity": 97}, {"time": 1556, "pitch": 76, "duration": 6, "velocity": 92}, {"time": 1562, "pitch": 78, "duration": 6, "velocity": 127}, {"time": 1568, "pitch": 76, "duration": 12, "velocity": 102}, {"time": 1580, "pitch": 76, "duration": 6, "velocity": 88}, {"time": 1586, "pitch": 75, "duration": 46, "velocity": 112}, {"time": 2480, "pitch": 68, "duration": 6, "velocity": 95}, {"time": 2486, "pitch": 73, "duration": 7, "velocity": 96}, {"time": 2492, "pitch": 75, "duration": 6, "velocity": 100}, {"time": 2498, "pitch": 76, "duration": 12, "velocity": 117}, {"time": 2510, "pitch": 75, "duration": 6, "velocity": 122}, {"time": 2516, "pitch": 76, "duration": 30, "velocity": 112}, {"time": 2546, "pitch": 54, "duration": 20, "velocity": 1}, {"time": 2546, "pitch": 76, "duration": 12, "velocity": 102}, {"time": 2558, "pitch": 75, "duration": 6, "velocity": 117}, {"time": 2564, "pitch": 73, "duration": 24, "velocity": 99}, {"time": 2588, "pitch": 73, "duration": 6, "velocity": 102}, {"time": 2594, "pitch": 73, "duration": 12, "velocity": 107}, {"time": 2606, "pitch": 71, "duration": 6, "velocity": 99}, {"time": 2612, "pitch": 71, "duration": 12, "velocity": 92}, {"time": 2624, "pitch": 73, "duration": 12, "velocity": 99}, {"time": 2636, "pitch": 68, "duration": 36, "velocity": 93}, {"time": 2672, "pitch": 68, "duration": 6, "velocity": 86}, {"time": 2678, "pitch": 73, "duration": 6, "velocity": 35}, {"time": 2684, "pitch": 75, "duration": 6, "velocity": 89}, {"time": 2690, "pitch": 76, "duration": 12, "velocity": 95}, {"time": 2702, "pitch": 75, "duration": 6, "velocity": 117}, {"time": 2708, "pitch": 76, "duration": 30, "velocity": 107}, {"time": 2738, "pitch": 76, "duration": 12, "velocity": 117}, {"time": 2750, "pitch": 75, "duration": 6, "velocity": 112}, {"time": 2756, "pitch": 73, "duration": 30, "velocity": 107}, {"time": 2786, "pitch": 73, "duration": 12, "velocity": 127}, {"time": 2798, "pitch": 71, "duration": 6, "velocity": 93}, {"time": 2804, "pitch": 71, "duration": 6, "velocity": 86}, {"time": 2810, "pitch": 76, "duration": 9, "velocity": 99}, {"time": 2819, "pitch": 75, "duration": 9, "velocity": 102}, {"time": 2828, "pitch": 73, "duration": 6, "velocity": 89}, {"time": 2834, "pitch": 73, "duration": 48, "velocity": 112}, {"time": 2882, "pitch": 76, "duration": 12, "velocity": 100}, {"time": 2894, "pitch": 76, "duration": 6, "velocity": 97}, {"time": 2900, "pitch": 76, "duration": 30, "velocity": 107}, {"time": 2930, "pitch": 75, "duration": 12, "velocity": 102}, {"time": 2942, "pitch": 73, "duration": 6, "velocity": 100}, {"time": 2948, "pitch": 71, "duration": 30, "velocity": 95}, {"time": 2978, "pitch": 73, "duration": 12, "velocity": 102}, {"time": 2990, "pitch": 71, "duration": 6, "velocity": 99}, {"time": 2996, "pitch": 71, "duration": 12, "velocity": 90}, {"time": 3008, "pitch": 73, "duration": 12, "velocity": 89}, {"time": 3020, "pitch": 68, "duration": 54, "velocity": 97}, {"time": 3074, "pitch": 76, "duration": 12, "velocity": 89}, {"time": 3086, "pitch": 76, "duration": 6, "velocity": 99}, {"time": 3092, "pitch": 76, "duration": 30, "velocity": 112}, {"time": 3122, "pitch": 80, "duration": 12, "velocity": 117}, {"time": 3134, "pitch": 78, "duration": 6, "velocity": 102}, {"time": 3140, "pitch": 78, "duration": 24, "velocity": 122}, {"time": 3164, "pitch": 71, "duration": 6, "velocity": 90}, {"time": 3170, "pitch": 76, "duration": 9, "velocity": 97}, {"time": 3179, "pitch": 76, "duration": 9, "velocity": 97}, {"time": 3188, "pitch": 76, "duration": 6, "velocity": 92}, {"time": 3194, "pitch": 78, "duration": 6, "velocity": 127}, {"time": 3200, "pitch": 76, "duration": 12, "velocity": 102}, {"time": 3212, "pitch": 76, "duration": 6, "velocity": 88}, {"time": 3218, "pitch": 75, "duration": 96, "velocity": 112}, {"time": 3314, "pitch": 76, "duration": 12, "velocity": 100}, {"time": 3326, "pitch": 76, "duration": 6, "velocity": 97}, {"time": 3332, "pitch": 76, "duration": 30, "velocity": 107}, {"time": 3362, "pitch": 75, "duration": 12, "velocity": 102}, {"time": 3374, "pitch": 73, "duration": 6, "velocity": 100}, {"time": 3380, "pitch": 71, "duration": 30, "velocity": 95}, {"time": 3410, "pitch": 73, "duration": 12, "velocity": 102}, {"time": 3422, "pitch": 71, "duration": 6, "velocity": 99}, {"time": 3428, "pitch": 71, "duration": 12, "velocity": 90}, {"time": 3440, "pitch": 73, "duration": 12, "velocity": 89}, {"time": 3452, "pitch": 68, "duration": 54, "velocity": 97}, {"time": 3506, "pitch": 76, "duration": 12, "velocity": 89}, {"time": 3518, "pitch": 76, "duration": 6, "velocity": 99}, {"time": 3524, "pitch": 76, "duration": 30, "velocity": 112}, {"time": 3554, "pitch": 80, "duration": 12, "velocity": 117}, {"time": 3566, "pitch": 78, "duration": 6, "velocity": 102}, {"time": 3572, "pitch": 78, "duration": 24, "velocity": 122}, {"time": 3596, "pitch": 71, "duration": 6, "velocity": 90}, {"time": 3602, "pitch": 76, "duration": 9, "velocity": 97}, {"time": 3611, "pitch": 76, "duration": 9, "velocity": 97}, {"time": 3620, "pitch": 76, "duration": 6, "velocity": 92}, {"time": 3626, "pitch": 78, "duration": 6, "velocity": 127}, {"time": 3632, "pitch": 76, "duration": 12, "velocity": 102}, {"time": 3644, "pitch": 76, "duration": 6, "velocity": 88}, {"time": 3650, "pitch": 75, "duration": 46, "velocity": 112}]}, {"program": 0, "is_drum": false, "name": "PIANO", "notes": [{"time": 50, "pitch": 37, "duration": 14, "velocity": 69}, {"time": 50, "pitch": 49, "duration": 14, "velocity": 85}, {"time": 62, "pitch": 61, "duration": 8, "velocity": 92}, {"time": 62, "pitch": 64, "duration": 10, "velocity": 78}, {"time": 68, "pitch": 37, "duration": 2, "velocity": 70}, {"time": 68, "pitch": 49, "duration": 3, "velocity": 58}, {"time": 74, "pitch": 37, "duration": 9, "velocity": 57}, {"time": 74, "pitch": 49, "duration": 12, "velocity": 66}, {"time": 80, "pitch": 56, "duration": 9, "velocity": 92}, {"time": 80, "pitch": 61, "duration": 9, "velocity": 82}, {"time": 80, "pitch": 64, "duration": 9, "velocity": 81}, {"time": 92, "pitch": 56, "duration": 5, "velocity": 85}, {"time": 92, "pitch": 61, "duration": 4, "velocity": 81}, {"time": 92, "pitch": 64, "duration": 7, "velocity": 82}, {"time": 98, "pitch": 45, "duration": 15, "velocity": 82}, {"time": 110, "pitch": 57, "duration": 13, "velocity": 88}, {"time": 110, "pitch": 61, "duration": 14, "velocity": 92}, {"time": 110, "pitch": 64, "duration": 14, "velocity": 83}, {"time": 116, "pitch": 52, "duration": 3, "velocity": 58}, {"time": 122, "pitch": 45, "duration": 14, "velocity": 64}, {"time": 122, "pitch": 52, "duration": 15, "velocity": 60}, {"time": 128, "pitch": 57, "duration": 10, "velocity": 77}, {"time": 128, "pitch": 61, "duration": 10, "velocity": 88}, {"time": 128, "pitch": 64, "duration": 10, "velocity": 79}, {"time": 140, "pitch": 57, "duration": 7, "velocity": 77}, {"time": 140, "pitch": 61, "duration": 8, "velocity": 89}, {"time": 140, "pitch": 64, "duration": 5, "velocity": 72}, {"time": 146, "pitch": 47, "duration": 15, "velocity": 70}, {"time": 158, "pitch": 59, "duration": 14, "velocity": 75}, {"time": 158, "pitch": 63, "duration": 15, "velocity": 102}, {"time": 158, "pitch": 66, "duration": 14, "velocity": 85}, {"time": 164, "pitch": 47, "duration": 3, "velocity": 55}, {"time": 164, "pitch": 54, "duration": 3, "velocity": 69}, {"time": 170, "pitch": 47, "duration": 10, "velocity": 57}, {"time": 170, "pitch": 54, "duration": 9, "velocity": 83}, {"time": 176, "pitch": 59, "duration": 9, "velocity": 78}, {"time": 176, "pitch": 63, "duration": 9, "velocity": 122}, {"time": 176, "pitch": 66, "duration": 9, "velocity": 99}, {"time": 188, "pitch": 59, "duration": 7, "velocity": 73}, {"time": 188, "pitch": 63, "duration": 6, "velocity": 102}, {"time": 188, "pitch": 66, "duration": 5, "velocity": 88}, {"time": 194, "pitch": 40, "duration": 14, "velocity": 65}, {"time": 194, "pitch": 52, "duration": 14, "velocity": 93}, {"time": 206, "pitch": 59, "duration": 14, "velocity": 88}, {"time": 206, "pitch": 64, "duration": 15, "velocity": 88}, {"time": 206, "pitch": 68, "duration": 14, "velocity": 97}, {"time": 212, "pitch": 40, "duration": 2, "velocity": 43}, {"time": 212, "pitch": 47, "duration": 3, "velocity": 79}, {"time": 212, "pitch": 52, "duration": 3, "velocity": 66}, {"time": 218, "pitch": 40, "duration": 10, "velocity": 59}, {"time": 218, "pitch": 47, "duration": 10, "velocity": 78}, {"time": 218, "pitch": 52, "duration": 9, "velocity": 82}, {"time": 224, "pitch": 59, "duration": 9, "velocity": 88}, {"time": 224, "pitch": 64, "duration": 9, "velocity": 89}, {"time": 224, "pitch": 68, "duration": 9, "velocity": 92}, {"time": 236, "pitch": 59, "duration": 5, "velocity": 78}, {"time": 236, "pitch": 64, "duration": 5, "velocity": 95}, {"time": 236, "pitch": 68, "duration": 6, "velocity": 95}, {"time": 242, "pitch": 37, "duration": 14, "velocity": 82}, {"time": 242, "pitch": 49, "duration": 13, "velocity": 92}, {"time": 254, "pitch": 61, "duration": 13, "velocity": 96}, {"time": 254, "pitch": 64, "duration": 11, "velocity": 88}, {"time": 254, "pitch": 68, "duration": 13, "velocity": 93}, {"time": 260, "pitch": 37, "duration": 2, "velocity": 58}, {"time": 260, "pitch": 49, "duration": 2, "velocity": 72}, {"time": 266, "pitch": 37, "duration": 9, "velocity": 85}, {"time": 266, "pitch": 49, "duration": 13, "velocity": 88}, {"time": 272, "pitch": 61, "duration": 8, "velocity": 92}, {"time": 272, "pitch": 64, "duration": 8, "velocity": 81}, {"time": 272, "pitch": 68, "duration": 9, "velocity": 88}, {"time": 284, "pitch": 61, "duration": 6, "velocity": 95}, {"time": 284, "pitch": 64, "duration": 4, "velocity": 70}, {"time": 284, "pitch": 68, "duration": 4, "velocity": 85}, {"time": 290, "pitch": 45, "duration": 14, "velocity": 72}, {"time": 302, "pitch": 57, "duration": 14, "velocity": 83}, {"time": 302, "pitch": 61, "duration": 14, "velocity": 93}, {"time": 302, "pitch": 64, "duration": 14, "velocity": 83}, {"time": 308, "pitch": 45, "duration": 3, "velocity": 59}, {"time": 308, "pitch": 52, "duration": 3, "velocity": 43}, {"time": 314, "pitch": 45, "duration": 11, "velocity": 63}, {"time": 314, "pitch": 52, "duration": 12, "velocity": 74}, {"time": 320, "pitch": 57, "duration": 9, "velocity": 83}, {"time": 320, "pitch": 61, "duration": 10, "velocity": 97}, {"time": 320, "pitch": 64, "duration": 9, "velocity": 86}, {"time": 332, "pitch": 57, "duration": 6, "velocity": 76}, {"time": 332, "pitch": 61, "duration": 8, "velocity": 92}, {"time": 332, "pitch": 64, "duration": 5, "velocity": 75}, {"time": 338, "pitch": 47, "duration": 14, "velocity": 63}, {"time": 338, "pitch": 54, "duration": 14, "velocity": 61}, {"time": 350, "pitch": 59, "duration": 13, "velocity": 81}, {"time": 350, "pitch": 63, "duration": 13, "velocity": 100}, {"time": 350, "pitch": 66, "duration": 13, "velocity": 92}, {"time": 356, "pitch": 47, "duration": 2, "velocity": 49}, {"time": 356, "pitch": 54, "duration": 3, "velocity": 82}, {"time": 362, "pitch": 47, "duration": 8, "velocity": 63}, {"time": 362, "pitch": 54, "duration": 7, "velocity": 100}, {"time": 368, "pitch": 59, "duration": 10, "velocity": 82}, {"time": 368, "pitch": 63, "duration": 9, "velocity": 100}, {"time": 368, "pitch": 66, "duration": 9, "velocity": 93}, {"time": 380, "pitch": 59, "duration": 5, "velocity": 71}, {"time": 380, "pitch": 63, "duration": 5, "velocity": 99}, {"time": 380, "pitch": 66, "duration": 6, "velocity": 88}, {"time": 386, "pitch": 37, "duration": 15, "velocity": 85}, {"time": 386, "pitch": 49, "duration": 15, "velocity": 88}, {"time": 398, "pitch": 61, "duration": 13, "velocity": 92}, {"time": 398, "pitch": 64, "duration": 11, "velocity": 73}, {"time": 398, "pitch": 68, "duration": 13, "velocity": 78}, {"time": 404, "pitch": 37, "duration": 3, "velocity": 72}, {"time": 404, "pitch": 49, "duration": 3, "velocity": 72}, {"time": 410, "pitch": 37, "duration": 15, "velocity": 82}, {"time": 410, "pitch": 49, "duration": 15, "velocity": 78}, {"time": 416, "pitch": 61, "duration": 9, "velocity": 96}, {"time": 416, "pitch": 64, "duration": 9, "velocity": 83}, {"time": 416, "pitch": 68, "duration": 9, "velocity": 90}, {"time": 428, "pitch": 61, "duration": 6, "velocity": 86}, {"time": 428, "pitch": 64, "duration": 6, "velocity": 74}, {"time": 428, "pitch": 68, "duration": 6, "velocity": 85}, {"time": 434, "pitch": 37, "duration": 14, "velocity": 69}, {"time": 434, "pitch": 49, "duration": 14, "velocity": 85}, {"time": 446, "pitch": 61, "duration": 8, "velocity": 92}, {"time": 446, "pitch": 64, "duration": 10, "velocity": 78}, {"time": 452, "pitch": 37, "duration": 2, "velocity": 70}, {"time": 452, "pitch": 49, "duration": 3, "velocity": 58}, {"time": 458, "pitch": 37, "duration": 9, "velocity": 57}, {"time": 458, "pitch": 49, "duration": 12, "velocity": 66}, {"time": 464, "pitch": 56, "duration": 9, "velocity": 92}, {"time": 464, "pitch": 61, "duration": 9, "velocity": 82}, {"time": 464, "pitch": 64, "duration": 9, "velocity": 81}, {"time": 476, "pitch": 56, "duration": 5, "velocity": 85}, {"time": 476, "pitch": 61, "duration": 4, "velocity": 81}, {"time": 476, "pitch": 64, "duration": 7, "velocity": 82}, {"time": 482, "pitch": 45, "duration": 15, "velocity": 82}, {"time": 494, "pitch": 57, "duration": 13, "velocity": 88}, {"time": 494, "pitch": 61, "duration": 14, "velocity": 92}, {"time": 494, "pitch": 64, "duration": 14, "velocity": 83}, {"time": 500, "pitch": 52, "duration": 3, "velocity": 58}, {"time": 506, "pitch": 45, "duration": 14, "velocity": 64}, {"time": 506, "pitch": 52, "duration": 15, "velocity": 60}, {"time": 512, "pitch": 57, "duration": 10, "velocity": 77}, {"time": 512, "pitch": 61, "duration": 10, "velocity": 88}, {"time": 512, "pitch": 64, "duration": 10, "velocity": 79}, {"time": 524, "pitch": 57, "duration": 7, "velocity": 77}, {"time": 524, "pitch": 61, "duration": 8, "velocity": 89}, {"time": 524, "pitch": 64, "duration": 5, "velocity": 72}, {"time": 530, "pitch": 47, "duration": 15, "velocity": 70}, {"time": 542, "pitch": 59, "duration": 14, "velocity": 75}, {"time": 542, "pitch": 63, "duration": 15, "velocity": 102}, {"time": 542, "pitch": 66, "duration": 14, "velocity": 85}, {"time": 548, "pitch": 47, "duration": 3, "velocity": 55}, {"time": 548, "pitch": 54, "duration": 3, "velocity": 69}, {"time": 554, "pitch": 47, "duration": 10, "velocity": 57}, {"time": 554, "pitch": 54, "duration": 9, "velocity": 83}, {"time": 560, "pitch": 59, "duration": 9, "velocity": 78}, {"time": 560, "pitch": 63, "duration": 9, "velocity": 122}, {"time": 560, "pitch": 66, "duration": 9, "velocity": 99}, {"time": 572, "pitch": 59, "duration": 7, "velocity": 73}, {"time": 572, "pitch": 63, "duration": 6, "velocity": 102}, {"time": 572, "pitch": 66, "duration": 5, "velocity": 88}, {"time": 578, "pitch": 40, "duration": 14, "velocity": 65}, {"time": 578, "pitch": 52, "duration": 14, "velocity": 93}, {"time": 590, "pitch": 59, "duration": 14, "velocity": 88}, {"time": 590, "pitch": 64, "duration": 15, "velocity": 88}, {"time": 590, "pitch": 68, "duration": 14, "velocity": 97}, {"time": 596, "pitch": 40, "duration": 2, "velocity": 43}, {"time": 596, "pitch": 47, "duration": 3, "velocity": 79}, {"time": 596, "pitch": 52, "duration": 3, "velocity": 66}, {"time": 602, "pitch": 40, "duration": 10, "velocity": 59}, {"time": 602, "pitch": 47, "duration": 10, "velocity": 78}, {"time": 602, "pitch": 52, "duration": 9, "velocity": 82}, {"time": 608, "pitch": 59, "duration": 9, "velocity": 88}, {"time": 608, "pitch": 64, "duration": 9, "velocity": 89}, {"time": 608, "pitch": 68, "duration": 9, "velocity": 92}, {"time": 620, "pitch": 59, "duration": 5, "velocity": 78}, {"time": 620, "pitch": 64, "duration": 5, "velocity": 95}, {"time": 620, "pitch": 68, "duration": 6, "velocity": 95}, {"time": 626, "pitch": 37, "duration": 14, "velocity": 82}, {"time": 626, "pitch": 49, "duration": 13, "velocity": 92}, {"time": 638, "pitch": 61, "duration": 13, "velocity": 96}, {"time": 638, "pitch": 64, "duration": 11, "velocity": 88}, {"time": 638, "pitch": 68, "duration": 13, "velocity": 93}, {"time": 644, "pitch": 37, "duration": 2, "velocity": 58}, {"time": 644, "pitch": 49, "duration": 2, "velocity": 72}, {"time": 650, "pitch": 37, "duration": 9, "velocity": 85}, {"time": 650, "pitch": 49, "duration": 13, "velocity": 88}, {"time": 656, "pitch": 61, "duration": 8, "velocity": 92}, {"time": 656, "pitch": 64, "duration": 8, "velocity": 81}, {"time": 656, "pitch": 68, "duration": 9, "velocity": 88}, {"time": 668, "pitch": 61, "duration": 6, "velocity": 95}, {"time": 668, "pitch": 64, "duration": 4, "velocity": 70}, {"time": 668, "pitch": 68, "duration": 4, "velocity": 85}, {"time": 674, "pitch": 45, "duration": 14, "velocity": 72}, {"time": 686, "pitch": 57, "duration": 14, "velocity": 83}, {"time": 686, "pitch": 61, "duration": 14, "velocity": 93}, {"time": 686, "pitch": 64, "duration": 14, "velocity": 83}, {"time": 692, "pitch": 45, "duration": 3, "velocity": 59}, {"time": 692, "pitch": 52, "duration": 3, "velocity": 43}, {"time": 698, "pitch": 45, "duration": 11, "velocity": 63}, {"time": 698, "pitch": 52, "duration": 12, "velocity": 74}, {"time": 704, "pitch": 57, "duration": 9, "velocity": 83}, {"time": 704, "pitch": 61, "duration": 10, "velocity": 97}, {"time": 704, "pitch": 64, "duration": 9, "velocity": 86}, {"time": 716, "pitch": 57, "duration": 6, "velocity": 76}, {"time": 716, "pitch": 61, "duration": 8, "velocity": 92}, {"time": 716, "pitch": 64, "duration": 5, "velocity": 75}, {"time": 722, "pitch": 47, "duration": 14, "velocity": 63}, {"time": 722, "pitch": 54, "duration": 14, "velocity": 61}, {"time": 734, "pitch": 59, "duration": 13, "velocity": 81}, {"time": 734, "pitch": 63, "duration": 13, "velocity": 100}, {"time": 734, "pitch": 66, "duration": 13, "velocity": 92}, {"time": 740, "pitch": 47, "duration": 2, "velocity": 49}, {"time": 740, "pitch": 54, "duration": 3, "velocity": 82}, {"time": 746, "pitch": 47, "duration": 8, "velocity": 63}, {"time": 746, "pitch": 54, "duration": 7, "velocity": 100}, {"time": 752, "pitch": 59, "duration": 10, "velocity": 82}, {"time": 752, "pitch": 63, "duration": 9, "velocity": 100}, {"time": 752, "pitch": 66, "duration": 9, "velocity": 93}, {"time": 764, "pitch": 59, "duration": 5, "velocity": 71}, {"time": 764, "pitch": 63, "duration": 5, "velocity": 99}, {"time": 764, "pitch": 66, "duration": 6, "velocity": 88}, {"time": 770, "pitch": 37, "duration": 89, "velocity": 81}, {"time": 770, "pitch": 49, "duration": 92, "velocity": 79}, {"time": 770, "pitch": 61, "duration": 89, "velocity": 86}, {"time": 770, "pitch": 64, "duration": 89, "velocity": 72}, {"time": 770, "pitch": 68, "duration": 90, "velocity": 54}, {"time": 866, "pitch": 37, "duration": 14, "velocity": 93}, {"time": 878, "pitch": 61, "duration": 14, "velocity": 93}, {"time": 878, "pitch": 64, "duration": 13, "velocity": 82}, {"time": 878, "pitch": 68, "duration": 13, "velocity": 88}, {"time": 884, "pitch": 37, "duration": 2, "velocity": 63}, {"time": 884, "pitch": 49, "duration": 2, "velocity": 59}, {"time": 890, "pitch": 37, "duration": 10, "velocity": 72}, {"time": 890, "pitch": 49, "duration": 13, "velocity": 72}, {"time": 896, "pitch": 61, "duration": 10, "velocity": 78}, {"time": 896, "pitch": 64, "duration": 9, "velocity": 67}, {"time": 896, "pitch": 68, "duration": 9, "velocity": 62}, {"time": 908, "pitch": 61, "duration": 6, "velocity": 90}, {"time": 908, "pitch": 64, "duration": 4, "velocity": 73}, {"time": 908, "pitch": 68, "duration": 4, "velocity": 83}, {"time": 914, "pitch": 45, "duration": 15, "velocity": 72}, {"time": 926, "pitch": 57, "duration": 16, "velocity": 81}, {"time": 926, "pitch": 61, "duration": 16, "velocity": 86}, {"time": 926, "pitch": 64, "duration": 16, "velocity": 85}, {"time": 932, "pitch": 45, "duration": 3, "velocity": 48}, {"time": 932, "pitch": 52, "duration": 3, "velocity": 56}, {"time": 938, "pitch": 45, "duration": 16, "velocity": 59}, {"time": 938, "pitch": 52, "duration": 17, "velocity": 82}, {"time": 944, "pitch": 57, "duration": 19, "velocity": 88}, {"time": 944, "pitch": 61, "duration": 19, "velocity": 89}, {"time": 944, "pitch": 64, "duration": 19, "velocity": 81}, {"time": 962, "pitch": 47, "duration": 15, "velocity": 81}, {"time": 974, "pitch": 59, "duration": 12, "velocity": 74}, {"time": 974, "pitch": 63, "duration": 13, "velocity": 93}, {"time": 974, "pitch": 66, "duration": 13, "velocity": 83}, {"time": 980, "pitch": 47, "duration": 2, "velocity": 42}, {"time": 980, "pitch": 54, "duration": 3, "velocity": 72}, {"time": 986, "pitch": 47, "duration": 8, "velocity": 63}, {"time": 986, "pitch": 54, "duration": 6, "velocity": 88}, {"time": 992, "pitch": 59, "duration": 9, "velocity": 78}, {"time": 992, "pitch": 63, "duration": 9, "velocity": 100}, {"time": 992, "pitch": 66, "duration": 9, "velocity": 97}, {"time": 1004, "pitch": 59, "duration": 7, "velocity": 76}, {"time": 1004, "pitch": 63, "duration": 7, "velocity": 89}, {"time": 1010, "pitch": 40, "duration": 14, "velocity": 56}, {"time": 1010, "pitch": 47, "duration": 15, "velocity": 66}, {"time": 1010, "pitch": 52, "duration": 15, "velocity": 58}, {"time": 1022, "pitch": 59, "duration": 12, "velocity": 82}, {"time": 1022, "pitch": 64, "duration": 13, "velocity": 89}, {"time": 1022, "pitch": 68, "duration": 12, "velocity": 85}, {"time": 1028, "pitch": 47, "duration": 2, "velocity": 66}, {"time": 1028, "pitch": 52, "duration": 2, "velocity": 62}, {"time": 1034, "pitch": 40, "duration": 8, "velocity": 61}, {"time": 1034, "pitch": 47, "duration": 9, "velocity": 77}, {"time": 1034, "pitch": 52, "duration": 8, "velocity": 72}, {"time": 1040, "pitch": 59, "duration": 10, "velocity": 95}, {"time": 1040, "pitch": 64, "duration": 10, "velocity": 99}, {"time": 1040, "pitch": 68, "duration": 10, "velocity": 102}, {"time": 1052, "pitch": 59, "duration": 7, "velocity": 85}, {"time": 1052, "pitch": 64, "duration": 7, "velocity": 90}, {"time": 1052, "pitch": 68, "duration": 9, "velocity": 89}, {"time": 1058, "pitch": 37, "duration": 15, "velocity": 78}, {"time": 1058, "pitch": 49, "duration": 15, "velocity": 72}, {"time": 1070, "pitch": 61, "duration": 14, "velocity": 96}, {"time": 1070, "pitch": 64, "duration": 9, "velocity": 69}, {"time": 1070, "pitch": 68, "duration": 9, "velocity": 96}, {"time": 1076, "pitch": 37, "duration": 3, "velocity": 69}, {"time": 1076, "pitch": 49, "duration": 3, "velocity": 75}, {"time": 1082, "pitch": 37, "duration": 12, "velocity": 89}, {"time": 1082, "pitch": 49, "duration": 15, "velocity": 72}, {"time": 1088, "pitch": 61, "duration": 9, "velocity": 100}, {"time": 1088, "pitch": 64, "duration": 9, "velocity": 89}, {"time": 1088, "pitch": 68, "duration": 9, "velocity": 96}, {"time": 1100, "pitch": 61, "duration": 6, "velocity": 96}, {"time": 1100, "pitch": 64, "duration": 4, "velocity": 85}, {"time": 1100, "pitch": 68, "duration": 4, "velocity": 89}, {"time": 1106, "pitch": 45, "duration": 16, "velocity": 75}, {"time": 1118, "pitch": 57, "duration": 14, "velocity": 86}, {"time": 1118, "pitch": 61, "duration": 15, "velocity": 93}, {"time": 1118, "pitch": 64, "duration": 15, "velocity": 83}, {"time": 1124, "pitch": 45, "duration": 3, "velocity": 41}, {"time": 1124, "pitch": 52, "duration": 3, "velocity": 59}, {"time": 1130, "pitch": 45, "duration": 18, "velocity": 57}, {"time": 1130, "pitch": 52, "duration": 20, "velocity": 76}, {"time": 1136, "pitch": 57, "duration": 8, "velocity": 86}, {"time": 1136, "pitch": 61, "duration": 9, "velocity": 92}, {"time": 1136, "pitch": 64, "duration": 9, "velocity": 79}, {"time": 1148, "pitch": 57, "duration": 6, "velocity": 82}, {"time": 1148, "pitch": 61, "duration": 7, "velocity": 97}, {"time": 1148, "pitch": 64, "duration": 4, "velocity": 78}, {"time": 1154, "pitch": 47, "duration": 13, "velocity": 74}, {"time": 1166, "pitch": 59, "duration": 13, "velocity": 77}, {"time": 1166, "pitch": 63, "duration": 13, "velocity": 100}, {"time": 1166, "pitch": 66, "duration": 13, "velocity": 96}, {"time": 1172, "pitch": 47, "duration": 3, "velocity": 89}, {"time": 1178, "pitch": 47, "duration": 8, "velocity": 69}, {"time": 1184, "pitch": 59, "duration": 8, "velocity": 75}, {"time": 1184, "pitch": 63, "duration": 8, "velocity": 102}, {"time": 1184, "pitch": 66, "duration": 8, "velocity": 92}, {"time": 1196, "pitch": 59, "duration": 6, "velocity": 83}, {"time": 1196, "pitch": 63, "duration": 6, "velocity": 107}, {"time": 1196, "pitch": 66, "duration": 6, "velocity": 92}, {"time": 1202, "pitch": 37, "duration": 15, "velocity": 86}, {"time": 1202, "pitch": 49, "duration": 14, "velocity": 66}, {"time": 1214, "pitch": 61, "duration": 12, "velocity": 90}, {"time": 1214, "pitch": 64, "duration": 12, "velocity": 81}, {"time": 1214, "pitch": 68, "duration": 12, "velocity": 90}, {"time": 1220, "pitch": 37, "duration": 3, "velocity": 78}, {"time": 1220, "pitch": 49, "duration": 2, "velocity": 67}, {"time": 1226, "pitch": 37, "duration": 20, "velocity": 73}, {"time": 1226, "pitch": 49, "duration": 20, "velocity": 68}, {"time": 1232, "pitch": 61, "duration": 9, "velocity": 93}, {"time": 1232, "pitch": 64, "duration": 9, "velocity": 83}, {"time": 1232, "pitch": 68, "duration": 9, "velocity": 86}, {"time": 1244, "pitch": 61, "duration": 6, "velocity": 95}, {"time": 1244, "pitch": 64, "duration": 5, "velocity": 81}, {"time": 1244, "pitch": 68, "duration": 5, "velocity": 85}, {"time": 1250, "pitch": 33, "duration": 15, "velocity": 82}, {"time": 1250, "pitch": 45, "duration": 15, "velocity": 100}, {"time": 1250, "pitch": 57, "duration": 3, "velocity": 67}, {"time": 1250, "pitch": 61, "duration": 3, "velocity": 67}, {"time": 1250, "pitch": 64, "duration": 3, "velocity": 69}, {"time": 1262, "pitch": 57, "duration": 13, "velocity": 82}, {"time": 1262, "pitch": 61, "duration": 14, "velocity": 93}, {"time": 1262, "pitch": 64, "duration": 14, "velocity": 81}, {"time": 1268, "pitch": 33, "duration": 3, "velocity": 72}, {"time": 1268, "pitch": 45, "duration": 3, "velocity": 86}, {"time": 1274, "pitch": 33, "duration": 11, "velocity": 72}, {"time": 1274, "pitch": 45, "duration": 15, "velocity": 83}, {"time": 1280, "pitch": 57, "duration": 8, "velocity": 100}, {"time": 1280, "pitch": 61, "duration": 8, "velocity": 117}, {"time": 1280, "pitch": 64, "duration": 8, "velocity": 95}, {"time": 1292, "pitch": 57, "duration": 6, "velocity": 95}, {"time": 1292, "pitch": 61, "duration": 8, "velocity": 122}, {"time": 1292, "pitch": 64, "duration": 5, "velocity": 90}, {"time": 1298, "pitch": 35, "duration": 21, "velocity": 58}, {"time": 1298, "pitch": 47, "duration": 22, "velocity": 93}, {"time": 1310, "pitch": 59, "duration": 7, "velocity": 85}, {"time": 1310, "pitch": 63, "duration": 7, "velocity": 122}, {"time": 1310, "pitch": 66, "duration": 7, "velocity": 112}, {"time": 1319, "pitch": 59, "duration": 9, "velocity": 77}, {"time": 1319, "pitch": 63, "duration": 9, "velocity": 107}, {"time": 1319, "pitch": 66, "duration": 9, "velocity": 97}, {"time": 1322, "pitch": 35, "duration": 3, "velocity": 56}, {"time": 1322, "pitch": 47, "duration": 3, "velocity": 88}, {"time": 1328, "pitch": 35, "duration": 13, "velocity": 73}, {"time": 1328, "pitch": 47, "duration": 12, "velocity": 92}, {"time": 1334, "pitch": 59, "duration": 13, "velocity": 90}, {"time": 1334, "pitch": 63, "duration": 12, "velocity": 127}, {"time": 1334, "pitch": 66, "duration": 12, "velocity": 102}, {"time": 1346, "pitch": 33, "duration": 13, "velocity": 68}, {"time": 1346, "pitch": 45, "duration": 13, "velocity": 81}, {"time": 1358, "pitch": 57, "duration": 9, "velocity": 85}, {"time": 1358, "pitch": 61, "duration": 8, "velocity": 93}, {"time": 1358, "pitch": 64, "duration": 8, "velocity": 85}, {"time": 1367, "pitch": 57, "duration": 4, "velocity": 97}, {"time": 1367, "pitch": 61, "duration": 4, "velocity": 127}, {"time": 1367, "pitch": 64, "duration": 4, "velocity": 97}, {"time": 1370, "pitch": 33, "duration": 9, "velocity": 69}, {"time": 1370, "pitch": 45, "duration": 9, "velocity": 78}, {"time": 1376, "pitch": 57, "duration": 8, "velocity": 89}, {"time": 1376, "pitch": 61, "duration": 8, "velocity": 99}, {"time": 1376, "pitch": 64, "duration": 8, "velocity": 90}, {"time": 1388, "pitch": 57, "duration": 5, "velocity": 93}, {"time": 1388, "pitch": 61, "duration": 6, "velocity": 112}, {"time": 1388, "pitch": 64, "duration": 4, "velocity": 90}, {"time": 1394, "pitch": 40, "duration": 23, "velocity": 89}, {"time": 1406, "pitch": 52, "duration": 10, "velocity": 25}, {"time": 1406, "pitch": 59, "duration": 7, "velocity": 81}, {"time": 1406, "pitch": 64, "duration": 8, "velocity": 88}, {"time": 1406, "pitch": 68, "duration": 7, "velocity": 86}, {"time": 1415, "pitch": 59, "duration": 10, "velocity": 83}, {"time": 1415, "pitch": 64, "duration": 10, "velocity": 92}, {"time": 1415, "pitch": 68, "duration": 10, "velocity": 92}, {"time": 1418, "pitch": 40, "duration": 3, "velocity": 63}, {"time": 1418, "pitch": 52, "duration": 3, "velocity": 86}, {"time": 1424, "pitch": 40, "duration": 9, "velocity": 63}, {"time": 1424, "pitch": 52, "duration": 8, "velocity": 83}, {"time": 1430, "pitch": 59, "duration": 2, "velocity": 88}, {"time": 1430, "pitch": 64, "duration": 10, "velocity": 99}, {"time": 1430, "pitch": 68, "duration": 10, "velocity": 107}, {"time": 1436, "pitch": 59, "duration": 7, "velocity": 90}, {"time": 1442, "pitch": 33, "duration": 21, "velocity": 72}, {"time": 1442, "pitch": 45, "duration": 21, "velocity": 90}, {"time": 1454, "pitch": 57, "duration": 7, "velocity": 81}, {"time": 1454, "pitch": 61, "duration": 8, "velocity": 93}, {"time": 1454, "pitch": 64, "duration": 7, "velocity": 82}, {"time": 1463, "pitch": 57, "duration": 6, "velocity": 69}, {"time": 1463, "pitch": 61, "duration": 7, "velocity": 73}, {"time": 1463, "pitch": 64, "duration": 7, "velocity": 75}, {"time": 1466, "pitch": 33, "duration": 10, "velocity": 62}, {"time": 1466, "pitch": 45, "duration": 13, "velocity": 86}, {"time": 1472, "pitch": 57, "duration": 9, "velocity": 79}, {"time": 1472, "pitch": 61, "duration": 9, "velocity": 96}, {"time": 1472, "pitch": 64, "duration": 9, "velocity": 86}, {"time": 1484, "pitch": 57, "duration": 6, "velocity": 90}, {"time": 1484, "pitch": 61, "duration": 8, "velocity": 117}, {"time": 1484, "pitch": 64, "duration": 5, "velocity": 90}, {"time": 1490, "pitch": 35, "duration": 21, "velocity": 83}, {"time": 1490, "pitch": 47, "duration": 21, "velocity": 100}, {"time": 1502, "pitch": 59, "duration": 7, "velocity": 82}, {"time": 1502, "pitch": 63, "duration": 7, "velocity": 93}, {"time": 1502, "pitch": 66, "duration": 7, "velocity": 90}, {"time": 1511, "pitch": 59, "duration": 5, "velocity": 83}, {"time": 1511, "pitch": 63, "duration": 5, "velocity": 90}, {"time": 1511, "pitch": 66, "duration": 5, "velocity": 92}, {"time": 1514, "pitch": 35, "duration": 13, "velocity": 69}, {"time": 1514, "pitch": 47, "duration": 13, "velocity": 79}, {"time": 1520, "pitch": 59, "duration": 8, "velocity": 92}, {"time": 1520, "pitch": 63, "duration": 7, "velocity": 99}, {"time": 1520, "pitch": 66, "duration": 8, "velocity": 100}, {"time": 1532, "pitch": 59, "duration": 7, "velocity": 92}, {"time": 1532, "pitch": 63, "duration": 6, "velocity": 112}, {"time": 1532, "pitch": 66, "duration": 5, "velocity": 97}, {"time": 1538, "pitch": 33, "duration": 31, "velocity": 70}, {"time": 1538, "pitch": 45, "duration": 23, "velocity": 89}, {"time": 1550, "pitch": 57, "duration": 6, "velocity": 89}, {"time": 1550, "pitch": 61, "duration": 7, "velocity": 97}, {"time": 1550, "pitch": 64, "duration": 6, "velocity": 89}, {"time": 1559, "pitch": 57, "duration": 4, "velocity": 82}, {"time": 1559, "pitch": 61, "duration": 5, "velocity": 95}, {"time": 1559, "pitch": 64, "duration": 5, "velocity": 89}, {"time": 1562, "pitch": 45, "duration": 6, "velocity": 65}, {"time": 1568, "pitch": 57, "duration": 8, "velocity": 89}, {"time": 1568, "pitch": 61, "duration": 7, "velocity": 107}, {"time": 1568, "pitch": 64, "duration": 8, "velocity": 92}, {"time": 1580, "pitch": 57, "duration": 4, "velocity": 88}, {"time": 1586, "pitch": 44, "duration": 16, "velocity": 72}, {"time": 1586, "pitch": 56, "duration": 10, "velocity": 102}, {"time": 1586, "pitch": 60, "duration": 9, "velocity": 97}, {"time": 1586, "pitch": 63, "duration": 9, "velocity": 102}, {"time": 1598, "pitch": 56, "duration": 4, "velocity": 85}, {"time": 1598, "pitch": 60, "duration": 4, "velocity": 93}, {"time": 1598, "pitch": 63, "duration": 4, "velocity": 86}, {"time": 1604, "pitch": 56, "duration": 7, "velocity": 93}, {"time": 1604, "pitch": 60, "duration": 7, "velocity": 99}, {"time": 1604, "pitch": 63, "duration": 8, "velocity": 89}, {"time": 1607, "pitch": 44, "duration": 9, "velocity": 36}, {"time": 1610, "pitch": 51, "duration": 6, "velocity": 20}, {"time": 1616, "pitch": 56, "duration": 8, "velocity": 97}, {"time": 1616, "pitch": 60, "duration": 8, "velocity": 100}, {"time": 1616, "pitch": 63, "duration": 8, "velocity": 95}, {"time": 1622, "pitch": 44, "duration": 9, "velocity": 95}, {"time": 1622, "pitch": 51, "duration": 8, "velocity": 78}, {"time": 1628, "pitch": 56, "duration": 3, "velocity": 90}, {"time": 1628, "pitch": 60, "duration": 3, "velocity": 96}, {"time": 1628, "pitch": 63, "duration": 3, "velocity": 70}, {"time": 1634, "pitch": 44, "duration": 15, "velocity": 46}, {"time": 1634, "pitch": 56, "duration": 9, "velocity": 96}, {"time": 1634, "pitch": 60, "duration": 8, "velocity": 92}, {"time": 1634, "pitch": 63, "duration": 8, "velocity": 92}, {"time": 1646, "pitch": 56, "duration": 3, "velocity": 82}, {"time": 1646, "pitch": 60, "duration": 3, "velocity": 90}, {"time": 1646, "pitch": 63, "duration": 3, "velocity": 63}, {"time": 1652, "pitch": 44, "duration": 16, "velocity": 75}, {"time": 1652, "pitch": 56, "duration": 7, "velocity": 97}, {"time": 1652, "pitch": 60, "duration": 4, "velocity": 117}, {"time": 1652, "pitch": 63, "duration": 5, "velocity": 96}, {"time": 1664, "pitch": 56, "duration": 8, "velocity": 89}, {"time": 1664, "pitch": 60, "duration": 3, "velocity": 100}, {"time": 1664, "pitch": 63, "duration": 8, "velocity": 97}, {"time": 1670, "pitch": 44, "duration": 11, "velocity": 89}, {"time": 1676, "pitch": 56, "duration": 7, "velocity": 92}, {"time": 1676, "pitch": 60, "duration": 6, "velocity": 102}, {"time": 1676, "pitch": 63, "duration": 7, "velocity": 96}, {"time": 1682, "pitch": 37, "duration": 14, "velocity": 69}, {"time": 1682, "pitch": 49, "duration": 14, "velocity": 85}, {"time": 1694, "pitch": 61, "duration": 8, "velocity": 92}, {"time": 1694, "pitch": 64, "duration": 10, "velocity": 78}, {"time": 1700, "pitch": 37, "duration": 2, "velocity": 70}, {"time": 1700, "pitch": 49, "duration": 3, "velocity": 58}, {"time": 1706, "pitch": 37, "duration": 9, "velocity": 57}, {"time": 1706, "pitch": 49, "duration": 12, "velocity": 66}, {"time": 1712, "pitch": 56, "duration": 9, "velocity": 92}, {"time": 1712, "pitch": 61, "duration": 9, "velocity": 82}, {"time": 1712, "pitch": 64, "duration": 9, "velocity": 81}, {"time": 1724, "pitch": 56, "duration": 5, "velocity": 85}, {"time": 1724, "pitch": 61, "duration": 4, "velocity": 81}, {"time": 1724, "pitch": 64, "duration": 7, "velocity": 82}, {"time": 1730, "pitch": 45, "duration": 15, "velocity": 82}, {"time": 1742, "pitch": 57, "duration": 13, "velocity": 88}, {"time": 1742, "pitch": 61, "duration": 14, "velocity": 92}, {"time": 1742, "pitch": 64, "duration": 14, "velocity": 83}, {"time": 1748, "pitch": 52, "duration": 3, "velocity": 58}, {"time": 1754, "pitch": 45, "duration": 14, "velocity": 64}, {"time": 1754, "pitch": 52, "duration": 15, "velocity": 60}, {"time": 1760, "pitch": 57, "duration": 10, "velocity": 77}, {"time": 1760, "pitch": 61, "duration": 10, "velocity": 88}, {"time": 1760, "pitch": 64, "duration": 10, "velocity": 79}, {"time": 1772, "pitch": 57, "duration": 7, "velocity": 77}, {"time": 1772, "pitch": 61, "duration": 8, "velocity": 89}, {"time": 1772, "pitch": 64, "duration": 5, "velocity": 72}, {"time": 1778, "pitch": 47, "duration": 15, "velocity": 70}, {"time": 1790, "pitch": 59, "duration": 14, "velocity": 75}, {"time": 1790, "pitch": 63, "duration": 15, "velocity": 102}, {"time": 1790, "pitch": 66, "duration": 14, "velocity": 85}, {"time": 1796, "pitch": 47, "duration": 3, "velocity": 55}, {"time": 1796, "pitch": 54, "duration": 3, "velocity": 69}, {"time": 1802, "pitch": 47, "duration": 10, "velocity": 57}, {"time": 1802, "pitch": 54, "duration": 9, "velocity": 83}, {"time": 1808, "pitch": 59, "duration": 9, "velocity": 78}, {"time": 1808, "pitch": 63, "duration": 9, "velocity": 122}, {"time": 1808, "pitch": 66, "duration": 9, "velocity": 99}, {"time": 1820, "pitch": 59, "duration": 7, "velocity": 73}, {"time": 1820, "pitch": 63, "duration": 6, "velocity": 102}, {"time": 1820, "pitch": 66, "duration": 5, "velocity": 88}, {"time": 1826, "pitch": 40, "duration": 14, "velocity": 65}, {"time": 1826, "pitch": 52, "duration": 14, "velocity": 93}, {"time": 1838, "pitch": 59, "duration": 14, "velocity": 88}, {"time": 1838, "pitch": 64, "duration": 15, "velocity": 88}, {"time": 1838, "pitch": 68, "duration": 14, "velocity": 97}, {"time": 1844, "pitch": 40, "duration": 2, "velocity": 43}, {"time": 1844, "pitch": 47, "duration": 3, "velocity": 79}, {"time": 1844, "pitch": 52, "duration": 3, "velocity": 66}, {"time": 1850, "pitch": 40, "duration": 10, "velocity": 59}, {"time": 1850, "pitch": 47, "duration": 10, "velocity": 78}, {"time": 1850, "pitch": 52, "duration": 9, "velocity": 82}, {"time": 1856, "pitch": 59, "duration": 9, "velocity": 88}, {"time": 1856, "pitch": 64, "duration": 9, "velocity": 89}, {"time": 1856, "pitch": 68, "duration": 9, "velocity": 92}, {"time": 1868, "pitch": 59, "duration": 5, "velocity": 78}, {"time": 1868, "pitch": 64, "duration": 5, "velocity": 95}, {"time": 1868, "pitch": 68, "duration": 6, "velocity": 95}, {"time": 1874, "pitch": 37, "duration": 14, "velocity": 82}, {"time": 1874, "pitch": 49, "duration": 13, "velocity": 92}, {"time": 1886, "pitch": 61, "duration": 13, "velocity": 96}, {"time": 1886, "pitch": 64, "duration": 11, "velocity": 88}, {"time": 1886, "pitch": 68, "duration": 13, "velocity": 93}, {"time": 1892, "pitch": 37, "duration": 2, "velocity": 58}, {"time": 1892, "pitch": 49, "duration": 2, "velocity": 72}, {"time": 1898, "pitch": 37, "duration": 9, "velocity": 85}, {"time": 1898, "pitch": 49, "duration": 13, "velocity": 88}, {"time": 1904, "pitch": 61, "duration": 8, "velocity": 92}, {"time": 1904, "pitch": 64, "duration": 8, "velocity": 81}, {"time": 1904, "pitch": 68, "duration": 9, "velocity": 88}, {"time": 1916, "pitch": 61, "duration": 6, "velocity": 95}, {"time": 1916, "pitch": 64, "duration": 4, "velocity": 70}, {"time": 1916, "pitch": 68, "duration": 4, "velocity": 85}, {"time": 1922, "pitch": 45, "duration": 14, "velocity": 72}, {"time": 1934, "pitch": 57, "duration": 14, "velocity": 83}, {"time": 1934, "pitch": 61, "duration": 14, "velocity": 93}, {"time": 1934, "pitch": 64, "duration": 14, "velocity": 83}, {"time": 1940, "pitch": 45, "duration": 3, "velocity": 59}, {"time": 1940, "pitch": 52, "duration": 3, "velocity": 43}, {"time": 1946, "pitch": 45, "duration": 11, "velocity": 63}, {"time": 1946, "pitch": 52, "duration": 12, "velocity": 74}, {"time": 1952, "pitch": 57, "duration": 9, "velocity": 83}, {"time": 1952, "pitch": 61, "duration": 10, "velocity": 97}, {"time": 1952, "pitch": 64, "duration": 9, "velocity": 86}, {"time": 1964, "pitch": 57, "duration": 6, "velocity": 76}, {"time": 1964, "pitch": 61, "duration": 8, "velocity": 92}, {"time": 1964, "pitch": 64, "duration": 5, "velocity": 75}, {"time": 1970, "pitch": 47, "duration": 14, "velocity": 63}, {"time": 1970, "pitch": 54, "duration": 14, "velocity": 61}, {"time": 1982, "pitch": 59, "duration": 13, "velocity": 81}, {"time": 1982, "pitch": 63, "duration": 13, "velocity": 100}, {"time": 1982, "pitch": 66, "duration": 13, "velocity": 92}, {"time": 1988, "pitch": 47, "duration": 2, "velocity": 49}, {"time": 1988, "pitch": 54, "duration": 3, "velocity": 82}, {"time": 1994, "pitch": 47, "duration": 8, "velocity": 63}, {"time": 1994, "pitch": 54, "duration": 7, "velocity": 100}, {"time": 2000, "pitch": 59, "duration": 10, "velocity": 82}, {"time": 2000, "pitch": 63, "duration": 9, "velocity": 100}, {"time": 2000, "pitch": 66, "duration": 9, "velocity": 93}, {"time": 2012, "pitch": 59, "duration": 5, "velocity": 71}, {"time": 2012, "pitch": 63, "duration": 5, "velocity": 99}, {"time": 2012, "pitch": 66, "duration": 6, "velocity": 88}, {"time": 2018, "pitch": 37, "duration": 15, "velocity": 85}, {"time": 2018, "pitch": 49, "duration": 15, "velocity": 88}, {"time": 2030, "pitch": 61, "duration": 13, "velocity": 92}, {"time": 2030, "pitch": 64, "duration": 11, "velocity": 73}, {"time": 2030, "pitch": 68, "duration": 13, "velocity": 78}, {"time": 2036, "pitch": 37, "duration": 3, "velocity": 72}, {"time": 2036, "pitch": 49, "duration": 3, "velocity": 72}, {"time": 2042, "pitch": 37, "duration": 15, "velocity": 82}, {"time": 2042, "pitch": 49, "duration": 15, "velocity": 78}, {"time": 2048, "pitch": 61, "duration": 9, "velocity": 96}, {"time": 2048, "pitch": 64, "duration": 9, "velocity": 83}, {"time": 2048, "pitch": 68, "duration": 9, "velocity": 90}, {"time": 2060, "pitch": 61, "duration": 6, "velocity": 86}, {"time": 2060, "pitch": 64, "duration": 6, "velocity": 74}, {"time": 2060, "pitch": 68, "duration": 6, "velocity": 85}, {"time": 2066, "pitch": 37, "duration": 14, "velocity": 69}, {"time": 2066, "pitch": 49, "duration": 14, "velocity": 85}, {"time": 2078, "pitch": 61, "duration": 8, "velocity": 92}, {"time": 2078, "pitch": 64, "duration": 10, "velocity": 78}, {"time": 2084, "pitch": 37, "duration": 2, "velocity": 70}, {"time": 2084, "pitch": 49, "duration": 3, "velocity": 58}, {"time": 2090, "pitch": 37, "duration": 9, "velocity": 57}, {"time": 2090, "pitch": 49, "duration": 12, "velocity": 66}, {"time": 2096, "pitch": 56, "duration": 9, "velocity": 92}, {"time": 2096, "pitch": 61, "duration": 9, "velocity": 82}, {"time": 2096, "pitch": 64, "duration": 9, "velocity": 81}, {"time": 2108, "pitch": 56, "duration": 5, "velocity": 85}, {"time": 2108, "pitch": 61, "duration": 4, "velocity": 81}, {"time": 2108, "pitch": 64, "duration": 7, "velocity": 82}, {"time": 2114, "pitch": 45, "duration": 15, "velocity": 82}, {"time": 2126, "pitch": 57, "duration": 13, "velocity": 88}, {"time": 2126, "pitch": 61, "duration": 14, "velocity": 92}, {"time": 2126, "pitch": 64, "duration": 14, "velocity": 83}, {"time": 2132, "pitch": 52, "duration": 3, "velocity": 58}, {"time": 2138, "pitch": 45, "duration": 14, "velocity": 64}, {"time": 2138, "pitch": 52, "duration": 15, "velocity": 60}, {"time": 2144, "pitch": 57, "duration": 10, "velocity": 77}, {"time": 2144, "pitch": 61, "duration": 10, "velocity": 88}, {"time": 2144, "pitch": 64, "duration": 10, "velocity": 79}, {"time": 2156, "pitch": 57, "duration": 7, "velocity": 77}, {"time": 2156, "pitch": 61, "duration": 8, "velocity": 89}, {"time": 2156, "pitch": 64, "duration": 5, "velocity": 72}, {"time": 2162, "pitch": 47, "duration": 15, "velocity": 70}, {"time": 2174, "pitch": 59, "duration": 14, "velocity": 75}, {"time": 2174, "pitch": 63, "duration": 15, "velocity": 102}, {"time": 2174, "pitch": 66, "duration": 14, "velocity": 85}, {"time": 2180, "pitch": 47, "duration": 3, "velocity": 55}, {"time": 2180, "pitch": 54, "duration": 3, "velocity": 69}, {"time": 2186, "pitch": 47, "duration": 10, "velocity": 57}, {"time": 2186, "pitch": 54, "duration": 9, "velocity": 83}, {"time": 2192, "pitch": 59, "duration": 9, "velocity": 78}, {"time": 2192, "pitch": 63, "duration": 9, "velocity": 122}, {"time": 2192, "pitch": 66, "duration": 9, "velocity": 99}, {"time": 2204, "pitch": 59, "duration": 7, "velocity": 73}, {"time": 2204, "pitch": 63, "duration": 6, "velocity": 102}, {"time": 2204, "pitch": 66, "duration": 5, "velocity": 88}, {"time": 2210, "pitch": 40, "duration": 14, "velocity": 65}, {"time": 2210, "pitch": 52, "duration": 14, "velocity": 93}, {"time": 2222, "pitch": 59, "duration": 14, "velocity": 88}, {"time": 2222, "pitch": 64, "duration": 15, "velocity": 88}, {"time": 2222, "pitch": 68, "duration": 14, "velocity": 97}, {"time": 2228, "pitch": 40, "duration": 2, "velocity": 43}, {"time": 2228, "pitch": 47, "duration": 3, "velocity": 79}, {"time": 2228, "pitch": 52, "duration": 3, "velocity": 66}, {"time": 2234, "pitch": 40, "duration": 10, "velocity": 59}, {"time": 2234, "pitch": 47, "duration": 10, "velocity": 78}, {"time": 2234, "pitch": 52, "duration": 9, "velocity": 82}, {"time": 2240, "pitch": 59, "duration": 9, "velocity": 88}, {"time": 2240, "pitch": 64, "duration": 9, "velocity": 89}, {"time": 2240, "pitch": 68, "duration": 9, "velocity": 92}, {"time": 2252, "pitch": 59, "duration": 5, "velocity": 78}, {"time": 2252, "pitch": 64, "duration": 5, "velocity": 95}, {"time": 2252, "pitch": 68, "duration": 6, "velocity": 95}, {"time": 2258, "pitch": 37, "duration": 14, "velocity": 82}, {"time": 2258, "pitch": 49, "duration": 13, "velocity": 92}, {"time": 2270, "pitch": 61, "duration": 13, "velocity": 96}, {"time": 2270, "pitch": 64, "duration": 11, "velocity": 88}, {"time": 2270, "pitch": 68, "duration": 13, "velocity": 93}, {"time": 2276, "pitch": 37, "duration": 2, "velocity": 58}, {"time": 2276, "pitch": 49, "duration": 2, "velocity": 72}, {"time": 2282, "pitch": 37, "duration": 9, "velocity": 85}, {"time": 2282, "pitch": 49, "duration": 13, "velocity": 88}, {"time": 2288, "pitch": 61, "duration": 8, "velocity": 92}, {"time": 2288, "pitch": 64, "duration": 8, "velocity": 81}, {"time": 2288, "pitch": 68, "duration": 9, "velocity": 88}, {"time": 2300, "pitch": 61, "duration": 6, "velocity": 95}, {"time": 2300, "pitch": 64, "duration": 4, "velocity": 70}, {"time": 2300, "pitch": 68, "duration": 4, "velocity": 85}, {"time": 2306, "pitch": 45, "duration": 14, "velocity": 72}, {"time": 2318, "pitch": 57, "duration": 14, "velocity": 83}, {"time": 2318, "pitch": 61, "duration": 14, "velocity": 93}, {"time": 2318, "pitch": 64, "duration": 14, "velocity": 83}, {"time": 2324, "pitch": 45, "duration": 3, "velocity": 59}, {"time": 2324, "pitch": 52, "duration": 3, "velocity": 43}, {"time": 2330, "pitch": 45, "duration": 11, "velocity": 63}, {"time": 2330, "pitch": 52, "duration": 12, "velocity": 74}, {"time": 2336, "pitch": 57, "duration": 9, "velocity": 83}, {"time": 2336, "pitch": 61, "duration": 10, "velocity": 97}, {"time": 2336, "pitch": 64, "duration": 9, "velocity": 86}, {"time": 2348, "pitch": 57, "duration": 6, "velocity": 76}, {"time": 2348, "pitch": 61, "duration": 8, "velocity": 92}, {"time": 2348, "pitch": 64, "duration": 5, "velocity": 75}, {"time": 2354, "pitch": 47, "duration": 14, "velocity": 63}, {"time": 2354, "pitch": 54, "duration": 14, "velocity": 61}, {"time": 2366, "pitch": 59, "duration": 13, "velocity": 81}, {"time": 2366, "pitch": 63, "duration": 13, "velocity": 100}, {"time": 2366, "pitch": 66, "duration": 13, "velocity": 92}, {"time": 2372, "pitch": 47, "duration": 2, "velocity": 49}, {"time": 2372, "pitch": 54, "duration": 3, "velocity": 82}, {"time": 2378, "pitch": 47, "duration": 8, "velocity": 63}, {"time": 2378, "pitch": 54, "duration": 7, "velocity": 100}, {"time": 2384, "pitch": 59, "duration": 10, "velocity": 82}, {"time": 2384, "pitch": 63, "duration": 9, "velocity": 100}, {"time": 2384, "pitch": 66, "duration": 9, "velocity": 93}, {"time": 2396, "pitch": 59, "duration": 5, "velocity": 71}, {"time": 2396, "pitch": 63, "duration": 5, "velocity": 99}, {"time": 2396, "pitch": 66, "duration": 6, "velocity": 88}, {"time": 2402, "pitch": 37, "duration": 89, "velocity": 81}, {"time": 2402, "pitch": 49, "duration": 92, "velocity": 79}, {"time": 2402, "pitch": 61, "duration": 89, "velocity": 86}, {"time": 2402, "pitch": 64, "duration": 89, "velocity": 72}, {"time": 2402, "pitch": 68, "duration": 90, "velocity": 54}, {"time": 2498, "pitch": 37, "duration": 14, "velocity": 93}, {"time": 2510, "pitch": 61, "duration": 14, "velocity": 93}, {"time": 2510, "pitch": 64, "duration": 13, "velocity": 82}, {"time": 2510, "pitch": 68, "duration": 13, "velocity": 88}, {"time": 2516, "pitch": 37, "duration": 2, "velocity": 63}, {"time": 2516, "pitch": 49, "duration": 2, "velocity": 59}, {"time": 2522, "pitch": 37, "duration": 10, "velocity": 72}, {"time": 2522, "pitch": 49, "duration": 13, "velocity": 72}, {"time": 2528, "pitch": 61, "duration": 10, "velocity": 78}, {"time": 2528, "pitch": 64, "duration": 9, "velocity": 67}, {"time": 2528, "pitch": 68, "duration": 9, "velocity": 62}, {"time": 2540, "pitch": 61, "duration": 6, "velocity": 90}, {"time": 2540, "pitch": 64, "duration": 4, "velocity": 73}, {"time": 2540, "pitch": 68, "duration": 4, "velocity": 83}, {"time": 2546, "pitch": 45, "duration": 15, "velocity": 72}, {"time": 2558, "pitch": 57, "duration": 16, "velocity": 81}, {"time": 2558, "pitch": 61, "duration": 16, "velocity": 86}, {"time": 2558, "pitch": 64, "duration": 16, "velocity": 85}, {"time": 2564, "pitch": 45, "duration": 3, "velocity": 48}, {"time": 2564, "pitch": 52, "duration": 3, "velocity": 56}, {"time": 2570, "pitch": 45, "duration": 16, "velocity": 59}, {"time": 2570, "pitch": 52, "duration": 17, "velocity": 82}, {"time": 2576, "pitch": 57, "duration": 19, "velocity": 88}, {"time": 2576, "pitch": 61, "duration": 19, "velocity": 89}, {"time": 2576, "pitch": 64, "duration": 19, "velocity": 81}, {"time": 2594, "pitch": 47, "duration": 15, "velocity": 81}, {"time": 2606, "pitch": 59, "duration": 12, "velocity": 74}, {"time": 2606, "pitch": 63, "duration": 13, "velocity": 93}, {"time": 2606, "pitch": 66, "duration": 13, "velocity": 83}, {"time": 2612, "pitch": 47, "duration": 2, "velocity": 42}, {"time": 2612, "pitch": 54, "duration": 3, "velocity": 72}, {"time": 2618, "pitch": 47, "duration": 8, "velocity": 63}, {"time": 2618, "pitch": 54, "duration": 6, "velocity": 88}, {"time": 2624, "pitch": 59, "duration": 9, "velocity": 78}, {"time": 2624, "pitch": 63, "duration": 9, "velocity": 100}, {"time": 2624, "pitch": 66, "duration": 9, "velocity": 97}, {"time": 2636, "pitch": 59, "duration": 7, "velocity": 76}, {"time": 2636, "pitch": 63, "duration": 7, "velocity": 89}, {"time": 2642, "pitch": 40, "duration": 14, "velocity": 56}, {"time": 2642, "pitch": 47, "duration": 15, "velocity": 66}, {"time": 2642, "pitch": 52, "duration": 15, "velocity": 58}, {"time": 2654, "pitch": 59, "duration": 12, "velocity": 82}, {"time": 2654, "pitch": 64, "duration": 13, "velocity": 89}, {"time": 2654, "pitch": 68, "duration": 12, "velocity": 85}, {"time": 2660, "pitch": 47, "duration": 2, "velocity": 66}, {"time": 2660, "pitch": 52, "duration": 2, "velocity": 62}, {"time": 2666, "pitch": 40, "duration": 8, "velocity": 61}, {"time": 2666, "pitch": 47, "duration": 9, "velocity": 77}, {"time": 2666, "pitch": 52, "duration": 8, "velocity": 72}, {"time": 2672, "pitch": 59, "duration": 10, "velocity": 95}, {"time": 2672, "pitch": 64, "duration": 10, "velocity": 99}, {"time": 2672, "pitch": 68, "duration": 10, "velocity": 102}, {"time": 2684, "pitch": 59, "duration": 7, "velocity": 85}, {"time": 2684, "pitch": 64, "duration": 7, "velocity": 90}, {"time": 2684, "pitch": 68, "duration": 9, "velocity": 89}, {"time": 2690, "pitch": 37, "duration": 15, "velocity": 78}, {"time": 2690, "pitch": 49, "duration": 15, "velocity": 72}, {"time": 2702, "pitch": 61, "duration": 14, "velocity": 96}, {"time": 2702, "pitch": 64, "duration": 9, "velocity": 69}, {"time": 2702, "pitch": 68, "duration": 9, "velocity": 96}, {"time": 2708, "pitch": 37, "duration": 3, "velocity": 69}, {"time": 2708, "pitch": 49, "duration": 3, "velocity": 75}, {"time": 2714, "pitch": 37, "duration": 12, "velocity": 89}, {"time": 2714, "pitch": 49, "duration": 15, "velocity": 72}, {"time": 2720, "pitch": 61, "duration": 9, "velocity": 100}, {"time": 2720, "pitch": 64, "duration": 9, "velocity": 89}, {"time": 2720, "pitch": 68, "duration": 9, "velocity": 96}, {"time": 2732, "pitch": 61, "duration": 6, "velocity": 96}, {"time": 2732, "pitch": 64, "duration": 4, "velocity": 85}, {"time": 2732, "pitch": 68, "duration": 4, "velocity": 89}, {"time": 2738, "pitch": 45, "duration": 16, "velocity": 75}, {"time": 2750, "pitch": 57, "duration": 14, "velocity": 86}, {"time": 2750, "pitch": 61, "duration": 15, "velocity": 93}, {"time": 2750, "pitch": 64, "duration": 15, "velocity": 83}, {"time": 2756, "pitch": 45, "duration": 3, "velocity": 41}, {"time": 2756, "pitch": 52, "duration": 3, "velocity": 59}, {"time": 2762, "pitch": 45, "duration": 18, "velocity": 57}, {"time": 2762, "pitch": 52, "duration": 20, "velocity": 76}, {"time": 2768, "pitch": 57, "duration": 8, "velocity": 86}, {"time": 2768, "pitch": 61, "duration": 9, "velocity": 92}, {"time": 2768, "pitch": 64, "duration": 9, "velocity": 79}, {"time": 2780, "pitch": 57, "duration": 6, "velocity": 82}, {"time": 2780, "pitch": 61, "duration": 7, "velocity": 97}, {"time": 2780, "pitch": 64, "duration": 4, "velocity": 78}, {"time": 2786, "pitch": 47, "duration": 13, "velocity": 74}, {"time": 2798, "pitch": 59, "duration": 13, "velocity": 77}, {"time": 2798, "pitch": 63, "duration": 13, "velocity": 100}, {"time": 2798, "pitch": 66, "duration": 13, "velocity": 96}, {"time": 2804, "pitch": 47, "duration": 3, "velocity": 89}, {"time": 2810, "pitch": 47, "duration": 8, "velocity": 69}, {"time": 2816, "pitch": 59, "duration": 8, "velocity": 75}, {"time": 2816, "pitch": 63, "duration": 8, "velocity": 102}, {"time": 2816, "pitch": 66, "duration": 8, "velocity": 92}, {"time": 2828, "pitch": 59, "duration": 6, "velocity": 83}, {"time": 2828, "pitch": 63, "duration": 6, "velocity": 107}, {"time": 2828, "pitch": 66, "duration": 6, "velocity": 92}, {"time": 2834, "pitch": 37, "duration": 15, "velocity": 86}, {"time": 2834, "pitch": 49, "duration": 14, "velocity": 66}, {"time": 2846, "pitch": 61, "duration": 12, "velocity": 90}, {"time": 2846, "pitch": 64, "duration": 12, "velocity": 81}, {"time": 2846, "pitch": 68, "duration": 12, "velocity": 90}, {"time": 2852, "pitch": 37, "duration": 3, "velocity": 78}, {"time": 2852, "pitch": 49, "duration": 2, "velocity": 67}, {"time": 2858, "pitch": 37, "duration": 20, "velocity": 73}, {"time": 2858, "pitch": 49, "duration": 20, "velocity": 68}, {"time": 2864, "pitch": 61, "duration": 9, "velocity": 93}, {"time": 2864, "pitch": 64, "duration": 9, "velocity": 83}, {"time": 2864, "pitch": 68, "duration": 9, "velocity": 86}, {"time": 2876, "pitch": 61, "duration": 6, "velocity": 95}, {"time": 2876, "pitch": 64, "duration": 5, "velocity": 81}, {"time": 2876, "pitch": 68, "duration": 5, "velocity": 85}, {"time": 2882, "pitch": 33, "duration": 15, "velocity": 82}, {"time": 2882, "pitch": 45, "duration": 15, "velocity": 100}, {"time": 2882, "pitch": 57, "duration": 3, "velocity": 67}, {"time": 2882, "pitch": 61, "duration": 3, "velocity": 67}, {"time": 2882, "pitch": 64, "duration": 3, "velocity": 69}, {"time": 2894, "pitch": 57, "duration": 13, "velocity": 82}, {"time": 2894, "pitch": 61, "duration": 14, "velocity": 93}, {"time": 2894, "pitch": 64, "duration": 14, "velocity": 81}, {"time": 2900, "pitch": 33, "duration": 3, "velocity": 72}, {"time": 2900, "pitch": 45, "duration": 3, "velocity": 86}, {"time": 2906, "pitch": 33, "duration": 11, "velocity": 72}, {"time": 2906, "pitch": 45, "duration": 15, "velocity": 83}, {"time": 2912, "pitch": 57, "duration": 8, "velocity": 100}, {"time": 2912, "pitch": 61, "duration": 8, "velocity": 117}, {"time": 2912, "pitch": 64, "duration": 8, "velocity": 95}, {"time": 2924, "pitch": 57, "duration": 6, "velocity": 95}, {"time": 2924, "pitch": 61, "duration": 8, "velocity": 122}, {"time": 2924, "pitch": 64, "duration": 5, "velocity": 90}, {"time": 2930, "pitch": 35, "duration": 21, "velocity": 58}, {"time": 2930, "pitch": 47, "duration": 22, "velocity": 93}, {"time": 2942, "pitch": 59, "duration": 7, "velocity": 85}, {"time": 2942, "pitch": 63, "duration": 7, "velocity": 122}, {"time": 2942, "pitch": 66, "duration": 7, "velocity": 112}, {"time": 2951, "pitch": 59, "duration": 9, "velocity": 77}, {"time": 2951, "pitch": 63, "duration": 9, "velocity": 107}, {"time": 2951, "pitch": 66, "duration": 9, "velocity": 97}, {"time": 2954, "pitch": 35, "duration": 3, "velocity": 56}, {"time": 2954, "pitch": 47, "duration": 3, "velocity": 88}, {"time": 2960, "pitch": 35, "duration": 13, "velocity": 73}, {"time": 2960, "pitch": 47, "duration": 12, "velocity": 92}, {"time": 2966, "pitch": 59, "duration": 13, "velocity": 90}, {"time": 2966, "pitch": 63, "duration": 12, "velocity": 127}, {"time": 2966, "pitch": 66, "duration": 12, "velocity": 102}, {"time": 2978, "pitch": 33, "duration": 13, "velocity": 68}, {"time": 2978, "pitch": 45, "duration": 13, "velocity": 81}, {"time": 2990, "pitch": 57, "duration": 9, "velocity": 85}, {"time": 2990, "pitch": 61, "duration": 8, "velocity": 93}, {"time": 2990, "pitch": 64, "duration": 8, "velocity": 85}, {"time": 2999, "pitch": 57, "duration": 4, "velocity": 97}, {"time": 2999, "pitch": 61, "duration": 4, "velocity": 127}, {"time": 2999, "pitch": 64, "duration": 4, "velocity": 97}, {"time": 3002, "pitch": 33, "duration": 9, "velocity": 69}, {"time": 3002, "pitch": 45, "duration": 9, "velocity": 78}, {"time": 3008, "pitch": 57, "duration": 8, "velocity": 89}, {"time": 3008, "pitch": 61, "duration": 8, "velocity": 99}, {"time": 3008, "pitch": 64, "duration": 8, "velocity": 90}, {"time": 3020, "pitch": 57, "duration": 5, "velocity": 93}, {"time": 3020, "pitch": 61, "duration": 6, "velocity": 112}, {"time": 3020, "pitch": 64, "duration": 4, "velocity": 90}, {"time": 3026, "pitch": 40, "duration": 23, "velocity": 89}, {"time": 3038, "pitch": 52, "duration": 10, "velocity": 25}, {"time": 3038, "pitch": 59, "duration": 7, "velocity": 81}, {"time": 3038, "pitch": 64, "duration": 8, "velocity": 88}, {"time": 3038, "pitch": 68, "duration": 7, "velocity": 86}, {"time": 3047, "pitch": 59, "duration": 10, "velocity": 83}, {"time": 3047, "pitch": 64, "duration": 10, "velocity": 92}, {"time": 3047, "pitch": 68, "duration": 10, "velocity": 92}, {"time": 3050, "pitch": 40, "duration": 3, "velocity": 63}, {"time": 3050, "pitch": 52, "duration": 3, "velocity": 86}, {"time": 3056, "pitch": 40, "duration": 9, "velocity": 63}, {"time": 3056, "pitch": 52, "duration": 8, "velocity": 83}, {"time": 3062, "pitch": 59, "duration": 2, "velocity": 88}, {"time": 3062, "pitch": 64, "duration": 10, "velocity": 99}, {"time": 3062, "pitch": 68, "duration": 10, "velocity": 107}, {"time": 3068, "pitch": 59, "duration": 7, "velocity": 90}, {"time": 3074, "pitch": 33, "duration": 21, "velocity": 72}, {"time": 3074, "pitch": 45, "duration": 21, "velocity": 90}, {"time": 3086, "pitch": 57, "duration": 7, "velocity": 81}, {"time": 3086, "pitch": 61, "duration": 8, "velocity": 93}, {"time": 3086, "pitch": 64, "duration": 7, "velocity": 82}, {"time": 3095, "pitch": 57, "duration": 6, "velocity": 69}, {"time": 3095, "pitch": 61, "duration": 7, "velocity": 73}, {"time": 3095, "pitch": 64, "duration": 7, "velocity": 75}, {"time": 3098, "pitch": 33, "duration": 10, "velocity": 62}, {"time": 3098, "pitch": 45, "duration": 13, "velocity": 86}, {"time": 3104, "pitch": 57, "duration": 9, "velocity": 79}, {"time": 3104, "pitch": 61, "duration": 9, "velocity": 96}, {"time": 3104, "pitch": 64, "duration": 9, "velocity": 86}, {"time": 3116, "pitch": 57, "duration": 6, "velocity": 90}, {"time": 3116, "pitch": 61, "duration": 8, "velocity": 117}, {"time": 3116, "pitch": 64, "duration": 5, "velocity": 90}, {"time": 3122, "pitch": 35, "duration": 21, "velocity": 83}, {"time": 3122, "pitch": 47, "duration": 21, "velocity": 100}, {"time": 3134, "pitch": 59, "duration": 7, "velocity": 82}, {"time": 3134, "pitch": 63, "duration": 7, "velocity": 93}, {"time": 3134, "pitch": 66, "duration": 7, "velocity": 90}, {"time": 3143, "pitch": 59, "duration": 5, "velocity": 83}, {"time": 3143, "pitch": 63, "duration": 5, "velocity": 90}, {"time": 3143, "pitch": 66, "duration": 5, "velocity": 92}, {"time": 3146, "pitch": 35, "duration": 13, "velocity": 69}, {"time": 3146, "pitch": 47, "duration": 13, "velocity": 79}, {"time": 3152, "pitch": 59, "duration": 8, "velocity": 92}, {"time": 3152, "pitch": 63, "duration": 7, "velocity": 99}, {"time": 3152, "pitch": 66, "duration": 8, "velocity": 100}, {"time": 3164, "pitch": 59, "duration": 7, "velocity": 92}, {"time": 3164, "pitch": 63, "duration": 6, "velocity": 112}, {"time": 3164, "pitch": 66, "duration": 5, "velocity": 97}, {"time": 3170, "pitch": 33, "duration": 31, "velocity": 70}, {"time": 3170, "pitch": 45, "duration": 23, "velocity": 89}, {"time": 3182, "pitch": 57, "duration": 6, "velocity": 89}, {"time": 3182, "pitch": 61, "duration": 7, "velocity": 97}, {"time": 3182, "pitch": 64, "duration": 6, "velocity": 89}, {"time": 3191, "pitch": 57, "duration": 4, "velocity": 82}, {"time": 3191, "pitch": 61, "duration": 5, "velocity": 95}, {"time": 3191, "pitch": 64, "duration": 5, "velocity": 89}, {"time": 3194, "pitch": 45, "duration": 6, "velocity": 65}, {"time": 3200, "pitch": 57, "duration": 8, "velocity": 89}, {"time": 3200, "pitch": 61, "duration": 7, "velocity": 107}, {"time": 3200, "pitch": 64, "duration": 8, "velocity": 92}, {"time": 3212, "pitch": 57, "duration": 4, "velocity": 88}, {"time": 3218, "pitch": 44, "duration": 16, "velocity": 72}, {"time": 3218, "pitch": 56, "duration": 10, "velocity": 102}, {"time": 3218, "pitch": 60, "duration": 9, "velocity": 97}, {"time": 3218, "pitch": 63, "duration": 9, "velocity": 102}, {"time": 3230, "pitch": 56, "duration": 4, "velocity": 85}, {"time": 3230, "pitch": 60, "duration": 4, "velocity": 93}, {"time": 3230, "pitch": 63, "duration": 4, "velocity": 86}, {"time": 3236, "pitch": 56, "duration": 7, "velocity": 93}, {"time": 3236, "pitch": 60, "duration": 7, "velocity": 99}, {"time": 3236, "pitch": 63, "duration": 8, "velocity": 89}, {"time": 3239, "pitch": 44, "duration": 9, "velocity": 36}, {"time": 3242, "pitch": 51, "duration": 6, "velocity": 20}, {"time": 3248, "pitch": 56, "duration": 8, "velocity": 97}, {"time": 3248, "pitch": 60, "duration": 8, "velocity": 100}, {"time": 3248, "pitch": 63, "duration": 8, "velocity": 95}, {"time": 3254, "pitch": 44, "duration": 9, "velocity": 95}, {"time": 3254, "pitch": 51, "duration": 8, "velocity": 78}, {"time": 3260, "pitch": 56, "duration": 3, "velocity": 90}, {"time": 3260, "pitch": 60, "duration": 3, "velocity": 96}, {"time": 3260, "pitch": 63, "duration": 3, "velocity": 70}, {"time": 3266, "pitch": 44, "duration": 15, "velocity": 46}, {"time": 3266, "pitch": 56, "duration": 9, "velocity": 96}, {"time": 3266, "pitch": 60, "duration": 8, "velocity": 92}, {"time": 3266, "pitch": 63, "duration": 8, "velocity": 92}, {"time": 3278, "pitch": 56, "duration": 3, "velocity": 82}, {"time": 3278, "pitch": 60, "duration": 3, "velocity": 90}, {"time": 3278, "pitch": 63, "duration": 3, "velocity": 63}, {"time": 3284, "pitch": 44, "duration": 16, "velocity": 75}, {"time": 3284, "pitch": 56, "duration": 7, "velocity": 97}, {"time": 3284, "pitch": 60, "duration": 4, "velocity": 117}, {"time": 3284, "pitch": 63, "duration": 5, "velocity": 96}, {"time": 3296, "pitch": 56, "duration": 8, "velocity": 89}, {"time": 3296, "pitch": 60, "duration": 3, "velocity": 100}, {"time": 3296, "pitch": 63, "duration": 8, "velocity": 97}, {"time": 3302, "pitch": 44, "duration": 11, "velocity": 89}, {"time": 3308, "pitch": 56, "duration": 7, "velocity": 92}, {"time": 3308, "pitch": 60, "duration": 6, "velocity": 102}, {"time": 3308, "pitch": 63, "duration": 7, "velocity": 96}, {"time": 3314, "pitch": 33, "duration": 15, "velocity": 82}, {"time": 3314, "pitch": 45, "duration": 15, "velocity": 100}, {"time": 3314, "pitch": 57, "duration": 3, "velocity": 67}, {"time": 3314, "pitch": 61, "duration": 3, "velocity": 67}, {"time": 3314, "pitch": 64, "duration": 3, "velocity": 69}, {"time": 3326, "pitch": 57, "duration": 13, "velocity": 82}, {"time": 3326, "pitch": 61, "duration": 14, "velocity": 93}, {"time": 3326, "pitch": 64, "duration": 14, "velocity": 81}, {"time": 3332, "pitch": 33, "duration": 3, "velocity": 72}, {"time": 3332, "pitch": 45, "duration": 3, "velocity": 86}, {"time": 3338, "pitch": 33, "duration": 11, "velocity": 72}, {"time": 3338, "pitch": 45, "duration": 15, "velocity": 83}, {"time": 3344, "pitch": 57, "duration": 8, "velocity": 100}, {"time": 3344, "pitch": 61, "duration": 8, "velocity": 117}, {"time": 3344, "pitch": 64, "duration": 8, "velocity": 95}, {"time": 3356, "pitch": 57, "duration": 6, "velocity": 95}, {"time": 3356, "pitch": 61, "duration": 8, "velocity": 122}, {"time": 3356, "pitch": 64, "duration": 5, "velocity": 90}, {"time": 3362, "pitch": 35, "duration": 21, "velocity": 58}, {"time": 3362, "pitch": 47, "duration": 22, "velocity": 93}, {"time": 3374, "pitch": 59, "duration": 7, "velocity": 85}, {"time": 3374, "pitch": 63, "duration": 7, "velocity": 122}, {"time": 3374, "pitch": 66, "duration": 7, "velocity": 112}, {"time": 3383, "pitch": 59, "duration": 9, "velocity": 77}, {"time": 3383, "pitch": 63, "duration": 9, "velocity": 107}, {"time": 3383, "pitch": 66, "duration": 9, "velocity": 97}, {"time": 3386, "pitch": 35, "duration": 3, "velocity": 56}, {"time": 3386, "pitch": 47, "duration": 3, "velocity": 88}, {"time": 3392, "pitch": 35, "duration": 13, "velocity": 73}, {"time": 3392, "pitch": 47, "duration": 12, "velocity": 92}, {"time": 3398, "pitch": 59, "duration": 13, "velocity": 90}, {"time": 3398, "pitch": 63, "duration": 12, "velocity": 127}, {"time": 3398, "pitch": 66, "duration": 12, "velocity": 102}, {"time": 3410, "pitch": 33, "duration": 13, "velocity": 68}, {"time": 3410, "pitch": 45, "duration": 13, "velocity": 81}, {"time": 3422, "pitch": 57, "duration": 9, "velocity": 85}, {"time": 3422, "pitch": 61, "duration": 8, "velocity": 93}, {"time": 3422, "pitch": 64, "duration": 8, "velocity": 85}, {"time": 3431, "pitch": 57, "duration": 4, "velocity": 97}, {"time": 3431, "pitch": 61, "duration": 4, "velocity": 127}, {"time": 3431, "pitch": 64, "duration": 4, "velocity": 97}, {"time": 3434, "pitch": 33, "duration": 9, "velocity": 69}, {"time": 3434, "pitch": 45, "duration": 9, "velocity": 78}, {"time": 3440, "pitch": 57, "duration": 8, "velocity": 89}, {"time": 3440, "pitch": 61, "duration": 8, "velocity": 99}, {"time": 3440, "pitch": 64, "duration": 8, "velocity": 90}, {"time": 3452, "pitch": 57, "duration": 5, "velocity": 93}, {"time": 3452, "pitch": 61, "duration": 6, "velocity": 112}, {"time": 3452, "pitch": 64, "duration": 4, "velocity": 90}, {"time": 3458, "pitch": 40, "duration": 23, "velocity": 89}, {"time": 3470, "pitch": 52, "duration": 10, "velocity": 25}, {"time": 3470, "pitch": 59, "duration": 7, "velocity": 81}, {"time": 3470, "pitch": 64, "duration": 8, "velocity": 88}, {"time": 3470, "pitch": 68, "duration": 7, "velocity": 86}, {"time": 3479, "pitch": 59, "duration": 10, "velocity": 83}, {"time": 3479, "pitch": 64, "duration": 10, "velocity": 92}, {"time": 3479, "pitch": 68, "duration": 10, "velocity": 92}, {"time": 3482, "pitch": 40, "duration": 3, "velocity": 63}, {"time": 3482, "pitch": 52, "duration": 3, "velocity": 86}, {"time": 3488, "pitch": 40, "duration": 9, "velocity": 63}, {"time": 3488, "pitch": 52, "duration": 8, "velocity": 83}, {"time": 3494, "pitch": 59, "duration": 2, "velocity": 88}, {"time": 3494, "pitch": 64, "duration": 10, "velocity": 99}, {"time": 3494, "pitch": 68, "duration": 10, "velocity": 107}, {"time": 3500, "pitch": 59, "duration": 7, "velocity": 90}, {"time": 3506, "pitch": 33, "duration": 21, "velocity": 72}, {"time": 3506, "pitch": 45, "duration": 21, "velocity": 90}, {"time": 3518, "pitch": 57, "duration": 7, "velocity": 81}, {"time": 3518, "pitch": 61, "duration": 8, "velocity": 93}, {"time": 3518, "pitch": 64, "duration": 7, "velocity": 82}, {"time": 3527, "pitch": 57, "duration": 6, "velocity": 69}, {"time": 3527, "pitch": 61, "duration": 7, "velocity": 73}, {"time": 3527, "pitch": 64, "duration": 7, "velocity": 75}, {"time": 3530, "pitch": 33, "duration": 10, "velocity": 62}, {"time": 3530, "pitch": 45, "duration": 13, "velocity": 86}, {"time": 3536, "pitch": 57, "duration": 9, "velocity": 79}, {"time": 3536, "pitch": 61, "duration": 9, "velocity": 96}, {"time": 3536, "pitch": 64, "duration": 9, "velocity": 86}, {"time": 3548, "pitch": 57, "duration": 6, "velocity": 90}, {"time": 3548, "pitch": 61, "duration": 8, "velocity": 117}, {"time": 3548, "pitch": 64, "duration": 5, "velocity": 90}, {"time": 3554, "pitch": 35, "duration": 21, "velocity": 83}, {"time": 3554, "pitch": 47, "duration": 21, "velocity": 100}, {"time": 3566, "pitch": 59, "duration": 7, "velocity": 82}, {"time": 3566, "pitch": 63, "duration": 7, "velocity": 93}, {"time": 3566, "pitch": 66, "duration": 7, "velocity": 90}, {"time": 3575, "pitch": 59, "duration": 5, "velocity": 83}, {"time": 3575, "pitch": 63, "duration": 5, "velocity": 90}, {"time": 3575, "pitch": 66, "duration": 5, "velocity": 92}, {"time": 3578, "pitch": 35, "duration": 13, "velocity": 69}, {"time": 3578, "pitch": 47, "duration": 13, "velocity": 79}, {"time": 3584, "pitch": 59, "duration": 8, "velocity": 92}, {"time": 3584, "pitch": 63, "duration": 7, "velocity": 99}, {"time": 3584, "pitch": 66, "duration": 8, "velocity": 100}, {"time": 3596, "pitch": 59, "duration": 7, "velocity": 92}, {"time": 3596, "pitch": 63, "duration": 6, "velocity": 112}, {"time": 3596, "pitch": 66, "duration": 5, "velocity": 97}, {"time": 3602, "pitch": 33, "duration": 31, "velocity": 70}, {"time": 3602, "pitch": 45, "duration": 23, "velocity": 89}, {"time": 3614, "pitch": 57, "duration": 6, "velocity": 89}, {"time": 3614, "pitch": 61, "duration": 7, "velocity": 97}, {"time": 3614, "pitch": 64, "duration": 6, "velocity": 89}, {"time": 3623, "pitch": 57, "duration": 4, "velocity": 82}, {"time": 3623, "pitch": 61, "duration": 5, "velocity": 95}, {"time": 3623, "pitch": 64, "duration": 5, "velocity": 89}, {"time": 3626, "pitch": 45, "duration": 6, "velocity": 65}, {"time": 3632, "pitch": 57, "duration": 8, "velocity": 89}, {"time": 3632, "pitch": 61, "duration": 7, "velocity": 107}, {"time": 3632, "pitch": 64, "duration": 8, "velocity": 92}, {"time": 3644, "pitch": 57, "duration": 4, "velocity": 88}, {"time": 3650, "pitch": 44, "duration": 16, "velocity": 72}, {"time": 3650, "pitch": 56, "duration": 10, "velocity": 102}, {"time": 3650, "pitch": 60, "duration": 9, "velocity": 97}, {"time": 3650, "pitch": 63, "duration": 9, "velocity": 102}, {"time": 3662, "pitch": 56, "duration": 4, "velocity": 85}, {"time": 3662, "pitch": 60, "duration": 4, "velocity": 93}, {"time": 3662, "pitch": 63, "duration": 4, "velocity": 86}, {"time": 3668, "pitch": 56, "duration": 7, "velocity": 93}, {"time": 3668, "pitch": 60, "duration": 7, "velocity": 99}, {"time": 3668, "pitch": 63, "duration": 8, "velocity": 89}, {"time": 3671, "pitch": 44, "duration": 9, "velocity": 36}, {"time": 3674, "pitch": 51, "duration": 6, "velocity": 20}, {"time": 3680, "pitch": 56, "duration": 8, "velocity": 97}, {"time": 3680, "pitch": 60, "duration": 8, "velocity": 100}, {"time": 3680, "pitch": 63, "duration": 8, "velocity": 95}, {"time": 3686, "pitch": 44, "duration": 9, "velocity": 95}, {"time": 3686, "pitch": 51, "duration": 8, "velocity": 78}, {"time": 3692, "pitch": 56, "duration": 3, "velocity": 90}, {"time": 3692, "pitch": 60, "duration": 3, "velocity": 96}, {"time": 3692, "pitch": 63, "duration": 3, "velocity": 70}, {"time": 3698, "pitch": 44, "duration": 15, "velocity": 46}, {"time": 3698, "pitch": 56, "duration": 9, "velocity": 96}, {"time": 3698, "pitch": 60, "duration": 8, "velocity": 92}, {"time": 3698, "pitch": 63, "duration": 8, "velocity": 92}, {"time": 3710, "pitch": 56, "duration": 3, "velocity": 82}, {"time": 3710, "pitch": 60, "duration": 3, "velocity": 90}, {"time": 3710, "pitch": 63, "duration": 3, "velocity": 63}, {"time": 3716, "pitch": 44, "duration": 16, "velocity": 75}, {"time": 3716, "pitch": 56, "duration": 7, "velocity": 97}, {"time": 3716, "pitch": 60, "duration": 4, "velocity": 117}, {"time": 3716, "pitch": 63, "duration": 5, "velocity": 96}, {"time": 3728, "pitch": 56, "duration": 8, "velocity": 89}, {"time": 3728, "pitch": 60, "duration": 3, "velocity": 100}, {"time": 3728, "pitch": 63, "duration": 8, "velocity": 97}, {"time": 3734, "pitch": 44, "duration": 11, "velocity": 89}, {"time": 3740, "pitch": 56, "duration": 7, "velocity": 92}, {"time": 3740, "pitch": 60, "duration": 6, "velocity": 102}, {"time": 3740, "pitch": 63, "duration": 7, "velocity": 96}, {"time": 3746, "pitch": 37, "duration": 14, "velocity": 69}, {"time": 3746, "pitch": 49, "duration": 14, "velocity": 85}, {"time": 3758, "pitch": 61, "duration": 8, "velocity": 92}, {"time": 3758, "pitch": 64, "duration": 10, "velocity": 78}, {"time": 3764, "pitch": 37, "duration": 2, "velocity": 70}, {"time": 3764, "pitch": 49, "duration": 3, "velocity": 58}, {"time": 3770, "pitch": 37, "duration": 9, "velocity": 57}, {"time": 3770, "pitch": 49, "duration": 12, "velocity": 66}, {"time": 3776, "pitch": 56, "duration": 9, "velocity": 92}, {"time": 3776, "pitch": 61, "duration": 9, "velocity": 82}, {"time": 3776, "pitch": 64, "duration": 9, "velocity": 81}, {"time": 3788, "pitch": 56, "duration": 5, "velocity": 85}, {"time": 3788, "pitch": 61, "duration": 4, "velocity": 81}, {"time": 3788, "pitch": 64, "duration": 7, "velocity": 82}, {"time": 3794, "pitch": 45, "duration": 15, "velocity": 82}, {"time": 3806, "pitch": 57, "duration": 13, "velocity": 88}, {"time": 3806, "pitch": 61, "duration": 14, "velocity": 92}, {"time": 3806, "pitch": 64, "duration": 14, "velocity": 83}, {"time": 3812, "pitch": 52, "duration": 3, "velocity": 58}, {"time": 3818, "pitch": 45, "duration": 14, "velocity": 64}, {"time": 3818, "pitch": 52, "duration": 15, "velocity": 60}, {"time": 3824, "pitch": 57, "duration": 10, "velocity": 77}, {"time": 3824, "pitch": 61, "duration": 10, "velocity": 88}, {"time": 3824, "pitch": 64, "duration": 10, "velocity": 79}, {"time": 3836, "pitch": 57, "duration": 7, "velocity": 77}, {"time": 3836, "pitch": 61, "duration": 8, "velocity": 89}, {"time": 3836, "pitch": 64, "duration": 5, "velocity": 72}, {"time": 3842, "pitch": 47, "duration": 15, "velocity": 70}, {"time": 3854, "pitch": 59, "duration": 14, "velocity": 75}, {"time": 3854, "pitch": 63, "duration": 15, "velocity": 102}, {"time": 3854, "pitch": 66, "duration": 14, "velocity": 85}, {"time": 3860, "pitch": 47, "duration": 3, "velocity": 55}, {"time": 3860, "pitch": 54, "duration": 3, "velocity": 69}, {"time": 3866, "pitch": 47, "duration": 10, "velocity": 57}, {"time": 3866, "pitch": 54, "duration": 9, "velocity": 83}, {"time": 3872, "pitch": 59, "duration": 9, "velocity": 78}, {"time": 3872, "pitch": 63, "duration": 9, "velocity": 122}, {"time": 3872, "pitch": 66, "duration": 9, "velocity": 99}, {"time": 3884, "pitch": 59, "duration": 7, "velocity": 73}, {"time": 3884, "pitch": 63, "duration": 6, "velocity": 102}, {"time": 3884, "pitch": 66, "duration": 5, "velocity": 88}, {"time": 3890, "pitch": 40, "duration": 14, "velocity": 65}, {"time": 3890, "pitch": 52, "duration": 14, "velocity": 93}, {"time": 3902, "pitch": 59, "duration": 14, "velocity": 88}, {"time": 3902, "pitch": 64, "duration": 15, "velocity": 88}, {"time": 3902, "pitch": 68, "duration": 14, "velocity": 97}, {"time": 3908, "pitch": 40, "duration": 2, "velocity": 43}, {"time": 3908, "pitch": 47, "duration": 3, "velocity": 79}, {"time": 3908, "pitch": 52, "duration": 3, "velocity": 66}, {"time": 3914, "pitch": 40, "duration": 10, "velocity": 59}, {"time": 3914, "pitch": 47, "duration": 10, "velocity": 78}, {"time": 3914, "pitch": 52, "duration": 9, "velocity": 82}, {"time": 3920, "pitch": 59, "duration": 9, "velocity": 88}, {"time": 3920, "pitch": 64, "duration": 9, "velocity": 89}, {"time": 3920, "pitch": 68, "duration": 9, "velocity": 92}, {"time": 3932, "pitch": 59, "duration": 5, "velocity": 78}, {"time": 3932, "pitch": 64, "duration": 5, "velocity": 95}, {"time": 3932, "pitch": 68, "duration": 6, "velocity": 95}, {"time": 3938, "pitch": 37, "duration": 14, "velocity": 82}, {"time": 3938, "pitch": 49, "duration": 13, "velocity": 92}, {"time": 3950, "pitch": 61, "duration": 13, "velocity": 96}, {"time": 3950, "pitch": 64, "duration": 11, "velocity": 88}, {"time": 3950, "pitch": 68, "duration": 13, "velocity": 93}, {"time": 3956, "pitch": 37, "duration": 2, "velocity": 58}, {"time": 3956, "pitch": 49, "duration": 2, "velocity": 72}, {"time": 3962, "pitch": 37, "duration": 9, "velocity": 85}, {"time": 3962, "pitch": 49, "duration": 13, "velocity": 88}, {"time": 3968, "pitch": 61, "duration": 8, "velocity": 92}, {"time": 3968, "pitch": 64, "duration": 8, "velocity": 81}, {"time": 3968, "pitch": 68, "duration": 9, "velocity": 88}, {"time": 3980, "pitch": 61, "duration": 6, "velocity": 95}, {"time": 3980, "pitch": 64, "duration": 4, "velocity": 70}, {"time": 3980, "pitch": 68, "duration": 4, "velocity": 85}, {"time": 3986, "pitch": 45, "duration": 14, "velocity": 72}, {"time": 3998, "pitch": 57, "duration": 14, "velocity": 83}, {"time": 3998, "pitch": 61, "duration": 14, "velocity": 93}, {"time": 3998, "pitch": 64, "duration": 14, "velocity": 83}, {"time": 4004, "pitch": 45, "duration": 3, "velocity": 59}, {"time": 4004, "pitch": 52, "duration": 3, "velocity": 43}, {"time": 4010, "pitch": 45, "duration": 11, "velocity": 63}, {"time": 4010, "pitch": 52, "duration": 12, "velocity": 74}, {"time": 4016, "pitch": 57, "duration": 9, "velocity": 83}, {"time": 4016, "pitch": 61, "duration": 10, "velocity": 97}, {"time": 4016, "pitch": 64, "duration": 9, "velocity": 86}, {"time": 4028, "pitch": 57, "duration": 6, "velocity": 76}, {"time": 4028, "pitch": 61, "duration": 8, "velocity": 92}, {"time": 4028, "pitch": 64, "duration": 5, "velocity": 75}, {"time": 4034, "pitch": 47, "duration": 14, "velocity": 63}, {"time": 4034, "pitch": 54, "duration": 14, "velocity": 61}, {"time": 4046, "pitch": 59, "duration": 13, "velocity": 81}, {"time": 4046, "pitch": 63, "duration": 13, "velocity": 100}, {"time": 4046, "pitch": 66, "duration": 13, "velocity": 92}, {"time": 4052, "pitch": 47, "duration": 2, "velocity": 49}, {"time": 4052, "pitch": 54, "duration": 3, "velocity": 82}, {"time": 4058, "pitch": 47, "duration": 8, "velocity": 63}, {"time": 4058, "pitch": 54, "duration": 7, "velocity": 100}, {"time": 4064, "pitch": 59, "duration": 10, "velocity": 82}, {"time": 4064, "pitch": 63, "duration": 9, "velocity": 100}, {"time": 4064, "pitch": 66, "duration": 9, "velocity": 93}, {"time": 4076, "pitch": 59, "duration": 5, "velocity": 71}, {"time": 4076, "pitch": 63, "duration": 5, "velocity": 99}, {"time": 4076, "pitch": 66, "duration": 6, "velocity": 88}, {"time": 4082, "pitch": 37, "duration": 15, "velocity": 85}, {"time": 4082, "pitch": 49, "duration": 15, "velocity": 88}, {"time": 4094, "pitch": 61, "duration": 13, "velocity": 92}, {"time": 4094, "pitch": 64, "duration": 11, "velocity": 73}, {"time": 4094, "pitch": 68, "duration": 13, "velocity": 78}, {"time": 4100, "pitch": 37, "duration": 3, "velocity": 72}, {"time": 4100, "pitch": 49, "duration": 3, "velocity": 72}, {"time": 4106, "pitch": 37, "duration": 15, "velocity": 82}, {"time": 4106, "pitch": 49, "duration": 15, "velocity": 78}, {"time": 4112, "pitch": 61, "duration": 9, "velocity": 96}, {"time": 4112, "pitch": 64, "duration": 9, "velocity": 83}, {"time": 4112, "pitch": 68, "duration": 9, "velocity": 90}, {"time": 4124, "pitch": 61, "duration": 6, "velocity": 86}, {"time": 4124, "pitch": 64, "duration": 6, "velocity": 74}, {"time": 4124, "pitch": 68, "duration": 6, "velocity": 85}, {"time": 4130, "pitch": 37, "duration": 14, "velocity": 69}, {"time": 4130, "pitch": 49, "duration": 14, "velocity": 85}, {"time": 4142, "pitch": 61, "duration": 8, "velocity": 92}, {"time": 4142, "pitch": 64, "duration": 10, "velocity": 78}, {"time": 4148, "pitch": 37, "duration": 2, "velocity": 70}, {"time": 4148, "pitch": 49, "duration": 3, "velocity": 58}, {"time": 4154, "pitch": 37, "duration": 9, "velocity": 57}, {"time": 4154, "pitch": 49, "duration": 12, "velocity": 66}, {"time": 4160, "pitch": 56, "duration": 9, "velocity": 92}, {"time": 4160, "pitch": 61, "duration": 9, "velocity": 82}, {"time": 4160, "pitch": 64, "duration": 9, "velocity": 81}, {"time": 4172, "pitch": 56, "duration": 5, "velocity": 85}, {"time": 4172, "pitch": 61, "duration": 4, "velocity": 81}, {"time": 4172, "pitch": 64, "duration": 7, "velocity": 82}, {"time": 4178, "pitch": 45, "duration": 15, "velocity": 82}, {"time": 4190, "pitch": 57, "duration": 13, "velocity": 88}, {"time": 4190, "pitch": 61, "duration": 14, "velocity": 92}, {"time": 4190, "pitch": 64, "duration": 14, "velocity": 83}, {"time": 4196, "pitch": 52, "duration": 3, "velocity": 58}, {"time": 4202, "pitch": 45, "duration": 14, "velocity": 64}, {"time": 4202, "pitch": 52, "duration": 15, "velocity": 60}, {"time": 4208, "pitch": 57, "duration": 10, "velocity": 77}, {"time": 4208, "pitch": 61, "duration": 10, "velocity": 88}, {"time": 4208, "pitch": 64, "duration": 10, "velocity": 79}, {"time": 4220, "pitch": 57, "duration": 7, "velocity": 77}, {"time": 4220, "pitch": 61, "duration": 8, "velocity": 89}, {"time": 4220, "pitch": 64, "duration": 5, "velocity": 72}, {"time": 4226, "pitch": 47, "duration": 15, "velocity": 70}, {"time": 4238, "pitch": 59, "duration": 14, "velocity": 75}, {"time": 4238, "pitch": 63, "duration": 15, "velocity": 102}, {"time": 4238, "pitch": 66, "duration": 14, "velocity": 85}, {"time": 4244, "pitch": 47, "duration": 3, "velocity": 55}, {"time": 4244, "pitch": 54, "duration": 3, "velocity": 69}, {"time": 4250, "pitch": 47, "duration": 10, "velocity": 57}, {"time": 4250, "pitch": 54, "duration": 9, "velocity": 83}, {"time": 4256, "pitch": 59, "duration": 9, "velocity": 78}, {"time": 4256, "pitch": 63, "duration": 9, "velocity": 122}, {"time": 4256, "pitch": 66, "duration": 9, "velocity": 99}, {"time": 4268, "pitch": 59, "duration": 7, "velocity": 73}, {"time": 4268, "pitch": 63, "duration": 6, "velocity": 102}, {"time": 4268, "pitch": 66, "duration": 5, "velocity": 88}, {"time": 4274, "pitch": 40, "duration": 14, "velocity": 65}, {"time": 4274, "pitch": 52, "duration": 14, "velocity": 93}, {"time": 4286, "pitch": 59, "duration": 14, "velocity": 88}, {"time": 4286, "pitch": 64, "duration": 15, "velocity": 88}, {"time": 4286, "pitch": 68, "duration": 14, "velocity": 97}, {"time": 4292, "pitch": 40, "duration": 2, "velocity": 43}, {"time": 4292, "pitch": 47, "duration": 3, "velocity": 79}, {"time": 4292, "pitch": 52, "duration": 3, "velocity": 66}, {"time": 4298, "pitch": 40, "duration": 10, "velocity": 59}, {"time": 4298, "pitch": 47, "duration": 10, "velocity": 78}, {"time": 4298, "pitch": 52, "duration": 9, "velocity": 82}, {"time": 4304, "pitch": 59, "duration": 9, "velocity": 88}, {"time": 4304, "pitch": 64, "duration": 9, "velocity": 89}, {"time": 4304, "pitch": 68, "duration": 9, "velocity": 92}, {"time": 4316, "pitch": 59, "duration": 5, "velocity": 78}, {"time": 4316, "pitch": 64, "duration": 5, "velocity": 95}, {"time": 4316, "pitch": 68, "duration": 6, "velocity": 95}, {"time": 4322, "pitch": 37, "duration": 14, "velocity": 82}, {"time": 4322, "pitch": 49, "duration": 13, "velocity": 92}, {"time": 4334, "pitch": 61, "duration": 13, "velocity": 96}, {"time": 4334, "pitch": 64, "duration": 11, "velocity": 88}, {"time": 4334, "pitch": 68, "duration": 13, "velocity": 93}, {"time": 4340, "pitch": 37, "duration": 2, "velocity": 58}, {"time": 4340, "pitch": 49, "duration": 2, "velocity": 72}, {"time": 4346, "pitch": 37, "duration": 9, "velocity": 85}, {"time": 4346, "pitch": 49, "duration": 13, "velocity": 88}, {"time": 4352, "pitch": 61, "duration": 8, "velocity": 92}, {"time": 4352, "pitch": 64, "duration": 8, "velocity": 81}, {"time": 4352, "pitch": 68, "duration": 9, "velocity": 88}, {"time": 4364, "pitch": 61, "duration": 6, "velocity": 95}, {"time": 4364, "pitch": 64, "duration": 4, "velocity": 70}, {"time": 4364, "pitch": 68, "duration": 4, "velocity": 85}, {"time": 4370, "pitch": 45, "duration": 14, "velocity": 72}, {"time": 4382, "pitch": 57, "duration": 14, "velocity": 83}, {"time": 4382, "pitch": 61, "duration": 14, "velocity": 93}, {"time": 4382, "pitch": 64, "duration": 14, "velocity": 83}, {"time": 4388, "pitch": 45, "duration": 3, "velocity": 59}, {"time": 4388, "pitch": 52, "duration": 3, "velocity": 43}, {"time": 4394, "pitch": 45, "duration": 11, "velocity": 63}, {"time": 4394, "pitch": 52, "duration": 12, "velocity": 74}, {"time": 4400, "pitch": 57, "duration": 9, "velocity": 83}, {"time": 4400, "pitch": 61, "duration": 10, "velocity": 97}, {"time": 4400, "pitch": 64, "duration": 9, "velocity": 86}, {"time": 4412, "pitch": 57, "duration": 6, "velocity": 76}, {"time": 4412, "pitch": 61, "duration": 8, "velocity": 92}, {"time": 4412, "pitch": 64, "duration": 5, "velocity": 75}, {"time": 4418, "pitch": 47, "duration": 14, "velocity": 63}, {"time": 4418, "pitch": 54, "duration": 14, "velocity": 61}, {"time": 4430, "pitch": 59, "duration": 13, "velocity": 81}, {"time": 4430, "pitch": 63, "duration": 13, "velocity": 100}, {"time": 4430, "pitch": 66, "duration": 13, "velocity": 92}, {"time": 4436, "pitch": 47, "duration": 2, "velocity": 49}, {"time": 4436, "pitch": 54, "duration": 3, "velocity": 82}, {"time": 4442, "pitch": 47, "duration": 8, "velocity": 63}, {"time": 4442, "pitch": 54, "duration": 7, "velocity": 100}, {"time": 4448, "pitch": 59, "duration": 10, "velocity": 82}, {"time": 4448, "pitch": 63, "duration": 9, "velocity": 100}, {"time": 4448, "pitch": 66, "duration": 9, "velocity": 93}, {"time": 4460, "pitch": 59, "duration": 5, "velocity": 71}, {"time": 4460, "pitch": 63, "duration": 5, "velocity": 99}, {"time": 4460, "pitch": 66, "duration": 6, "velocity": 88}, {"time": 4466, "pitch": 49, "duration": 3, "velocity": 93}, {"time": 4466, "pitch": 61, "duration": 3, "velocity": 96}, {"time": 4466, "pitch": 64, "duration": 3, "velocity": 90}, {"time": 4466, "pitch": 68, "duration": 3, "velocity": 95}, {"time": 4472, "pitch": 49, "duration": 4, "velocity": 92}, {"time": 4472, "pitch": 61, "duration": 4, "velocity": 90}, {"time": 4472, "pitch": 64, "duration": 3, "velocity": 82}, {"time": 4472, "pitch": 68, "duration": 4, "velocity": 82}, {"time": 4478, "pitch": 47, "duration": 6, "velocity": 99}, {"time": 4478, "pitch": 59, "duration": 6, "velocity": 78}, {"time": 4478, "pitch": 63, "duration": 6, "velocity": 95}, {"time": 4478, "pitch": 66, "duration": 5, "velocity": 88}, {"time": 4484, "pitch": 49, "duration": 26, "velocity": 95}, {"time": 4484, "pitch": 61, "duration": 25, "velocity": 89}, {"time": 4484, "pitch": 64, "duration": 25, "velocity": 81}, {"time": 4484, "pitch": 68, "duration": 25, "velocity": 83}], "annotations": [{"time": 1087, "annotation": {"number": 64, "value": 127}, "group": "control_change"}, {"time": 1089, "annotation": {"number": 64, "value": 0}, "group": "control_change"}, {"time": 1134, "annotation": {"number": 64, "value": 127}, "group": "control_change"}, {"time": 1151, "annotation": {"number": 64, "value": 0}, "group": "control_change"}, {"time": 1156, "annotation": {"number": 64, "value": 127}, "group": "control_change"}, {"time": 1166, "annotation": {"number": 64, "value": 0}, "group": "control_change"}, {"time": 1170, "annotation": {"number": 64, "value": 127}, "group": "control_change"}, {"time": 1198, "annotation": {"number": 64, "value": 0}, "group": "control_change"}, {"time": 1202, "annotation": {"number": 64, "value": 127}, "group": "control_change"}, {"time": 1211, "annotation": {"number": 64, "value": 0}, "group": "control_change"}, {"time": 1215, "annotation": {"number": 64, "value": 127}, "group": "control_change"}, {"time": 1245, "annotation": {"number": 64, "value": 0}, "group": "control_change"}, {"time": 1249, "annotation": {"number": 64, "value": 127}, "group": "control_change"}, {"time": 1261, "annotation": {"number": 64, "value": 0}, "group": "control_change"}, {"time": 1265, "annotation": {"number": 64, "value": 127}, "group": "control_change"}, {"time": 1268, "annotation": {"number": 64, "value": 0}, "group": "control_change"}, {"time": 1273, "annotation": {"number": 64, "value": 127}, "group": "control_change"}, {"time": 1281, "annotation": {"number": 64, "value": 0}, "group": "control_change"}, {"time": 1287, "annotation": {"number": 64, "value": 127}, "group": "control_change"}, {"time": 1293, "annotation": {"number": 64, "value": 0}, "group": "control_change"}, {"time": 1298, "annotation": {"number": 64, "value": 127}, "group": "control_change"}, {"time": 1306, "annotation": {"number": 64, "value": 0}, "group": "control_change"}, {"time": 1310, "annotation": {"number": 64, "value": 127}, "group": "control_change"}, {"time": 1317, "annotation": {"number": 64, "value": 0}, "group": "control_change"}, {"time": 1321, "annotation": {"number": 64, "value": 127}, "group": "control_change"}, {"time": 1328, "annotation": {"number": 64, "value": 0}, "group": "control_change"}, {"time": 1333, "annotation": {"number": 64, "value": 127}, "group": "control_change"}, {"time": 1343, "annotation": {"number": 64, "value": 0}, "group": "control_change"}, {"time": 1347, "annotation": {"number": 64, "value": 127}, "group": "control_change"}, {"time": 1353, "annotation": {"number": 64, "value": 0}, "group": "control_change"}, {"time": 1357, "annotation": {"number": 64, "value": 127}, "group": "control_change"}, {"time": 1358, "annotation": {"number": 64, "value": 0}, "group": "control_change"}, {"time": 1362, "annotation": {"number": 64, "value": 127}, "group": "control_change"}, {"time": 1367, "annotation": {"number": 64, "value": 0}, "group": "control_change"}, {"time": 1370, "annotation": {"number": 64, "value": 127}, "group": "control_change"}, {"time": 1389, "annotation": {"number": 64, "value": 0}, "group": "control_change"}, {"time": 1394, "annotation": {"number": 64, "value": 127}, "group": "control_change"}, {"time": 1400, "annotation": {"number": 64, "value": 0}, "group": "control_change"}, {"time": 1405, "annotation": {"number": 64, "value": 127}, "group": "control_change"}, {"time": 1413, "annotation": {"number": 64, "value": 0}, "group": "control_change"}, {"time": 1418, "annotation": {"number": 64, "value": 127}, "group": "control_change"}, {"time": 1425, "annotation": {"number": 64, "value": 0}, "group": "control_change"}, {"time": 1430, "annotation": {"number": 64, "value": 127}, "group": "control_change"}, {"time": 1439, "annotation": {"number": 64, "value": 0}, "group": "control_change"}, {"time": 1443, "annotation": {"number": 64, "value": 127}, "group": "control_change"}, {"time": 1448, "annotation": {"number": 64, "value": 0}, "group": "control_change"}, {"time": 1453, "annotation": {"number": 64, "value": 127}, "group": "control_change"}, {"time": 1461, "annotation": {"number": 64, "value": 0}, "group": "control_change"}, {"time": 1466, "annotation": {"number": 64, "value": 127}, "group": "control_change"}, {"time": 1473, "annotation": {"number": 64, "value": 0}, "group": "control_change"}, {"time": 1478, "annotation": {"number": 64, "value": 127}, "group": "control_change"}, {"time": 1486, "annotation": {"number": 64, "value": 0}, "group": "control_change"}, {"time": 1490, "annotation": {"number": 64, "value": 127}, "group": "control_change"}, {"time": 1495, "annotation": {"number": 64, "value": 0}, "group": "control_change"}, {"time": 1501, "annotation": {"number": 64, "value": 127}, "group": "control_change"}, {"time": 1508, "annotation": {"number": 64, "value": 0}, "group": "control_change"}, {"time": 1512, "annotation": {"number": 64, "value": 127}, "group": "control_change"}, {"time": 1522, "annotation": {"number": 64, "value": 0}, "group": "control_change"}, {"time": 1526, "annotation": {"number": 64, "value": 127}, "group": "control_change"}, {"time": 1534, "annotation": {"number": 64, "value": 0}, "group": "control_change"}, {"time": 1538, "annotation": {"number": 64, "value": 127}, "group": "control_change"}, {"time": 1554, "annotation": {"number": 64, "value": 0}, "group": "control_change"}, {"time": 1558, "annotation": {"number": 64, "value": 127}, "group": "control_change"}, {"time": 1569, "annotation": {"number": 64, "value": 0}, "group": "control_change"}, {"time": 1575, "annotation": {"number": 64, "value": 127}, "group": "control_change"}, {"time": 1583, "annotation": {"number": 64, "value": 0}, "group": "control_change"}, {"time": 1586, "annotation": {"number": 64, "value": 127}, "group": "control_change"}, {"time": 1629, "annotation": {"number": 64, "value": 0}, "group": "control_change"}, {"time": 1645, "annotation": {"number": 64, "value": 127}, "group": "control_change"}, {"time": 1678, "annotation": {"number": 64, "value": 0}, "group": "control_change"}, {"time": 2719, "annotation": {"number": 64, "value": 127}, "group": "control_change"}, {"time": 2721, "annotation": {"number": 64, "value": 0}, "group": "control_change"}, {"time": 2766, "annotation": {"number": 64, "value": 127}, "group": "control_change"}, {"time": 2783, "annotation": {"number": 64, "value": 0}, "group": "control_change"}, {"time": 2788, "annotation": {"number": 64, "value": 127}, "group": "control_change"}, {"time": 2798, "annotation": {"number": 64, "value": 0}, "group": "control_change"}, {"time": 2802, "annotation": {"number": 64, "value": 127}, "group": "control_change"}, {"time": 2830, "annotation": {"number": 64, "value": 0}, "group": "control_change"}, {"time": 2834, "annotation": {"number": 64, "value": 127}, "group": "control_change"}, {"time": 2843, "annotation": {"number": 64, "value": 0}, "group": "control_change"}, {"time": 2847, "annotation": {"number": 64, "value": 127}, "group": "control_change"}, {"time": 2877, "annotation": {"number": 64, "value": 0}, "group": "control_change"}, {"time": 2881, "annotation": {"number": 64, "value": 127}, "group": "control_change"}, {"time": 2893, "annotation": {"number": 64, "value": 0}, "group": "control_change"}, {"time": 2897, "annotation": {"number": 64, "value": 127}, "group": "control_change"}, {"time": 2900, "annotation": {"number": 64, "value": 0}, "group": "control_change"}, {"time": 2905, "annotation": {"number": 64, "value": 127}, "group": "control_change"}, {"time": 2913, "annotation": {"number": 64, "value": 0}, "group": "control_change"}, {"time": 2919, "annotation": {"number": 64, "value": 127}, "group": "control_change"}, {"time": 2925, "annotation": {"number": 64, "value": 0}, "group": "control_change"}, {"time": 2930, "annotation": {"number": 64, "value": 127}, "group": "control_change"}, {"time": 2938, "annotation": {"number": 64, "value": 0}, "group": "control_change"}, {"time": 2942, "annotation": {"number": 64, "value": 127}, "group": "control_change"}, {"time": 2949, "annotation": {"number": 64, "value": 0}, "group": "control_change"}, {"time": 2953, "annotation": {"number": 64, "value": 127}, "group": "control_change"}, {"time": 2960, "annotation": {"number": 64, "value": 0}, "group": "control_change"}, {"time": 2965, "annotation": {"number": 64, "value": 127}, "group": "control_change"}, {"time": 2975, "annotation": {"number": 64, "value": 0}, "group": "control_change"}, {"time": 2979, "annotation": {"number": 64, "value": 127}, "group": "control_change"}, {"time": 2985, "annotation": {"number": 64, "value": 0}, "group": "control_change"}, {"time": 2989, "annotation": {"number": 64, "value": 127}, "group": "control_change"}, {"time": 2990, "annotation": {"number": 64, "value": 0}, "group": "control_change"}, {"time": 2994, "annotation": {"number": 64, "value": 127}, "group": "control_change"}, {"time": 2999, "annotation": {"number": 64, "value": 0}, "group": "control_change"}, {"time": 3002, "annotation": {"number": 64, "value": 127}, "group": "control_change"}, {"time": 3021, "annotation": {"number": 64, "value": 0}, "group": "control_change"}, {"time": 3026, "annotation": {"number": 64, "value": 127}, "group": "control_change"}, {"time": 3032, "annotation": {"number": 64, "value": 0}, "group": "control_change"}, {"time": 3037, "annotation": {"number": 64, "value": 127}, "group": "control_change"}, {"time": 3045, "annotation": {"number": 64, "value": 0}, "group": "control_change"}, {"time": 3050, "annotation": {"number": 64, "value": 127}, "group": "control_change"}, {"time": 3057, "annotation": {"number": 64, "value": 0}, "group": "control_change"}, {"time": 3062, "annotation": {"number": 64, "value": 127}, "group": "control_change"}, {"time": 3071, "annotation": {"number": 64, "value": 0}, "group": "control_change"}, {"time": 3075, "annotation": {"number": 64, "value": 127}, "group": "control_change"}, {"time": 3080, "annotation": {"number": 64, "value": 0}, "group": "control_change"}, {"time": 3085, "annotation": {"number": 64, "value": 127}, "group": "control_change"}, {"time": 3093, "annotation": {"number": 64, "value": 0}, "group": "control_change"}, {"time": 3098, "annotation": {"number": 64, "value": 127}, "group": "control_change"}, {"time": 3105, "annotation": {"number": 64, "value": 0}, "group": "control_change"}, {"time": 3110, "annotation": {"number": 64, "value": 127}, "group": "control_change"}, {"time": 3118, "annotation": {"number": 64, "value": 0}, "group": "control_change"}, {"time": 3122, "annotation": {"number": 64, "value": 127}, "group": "control_change"}, {"time": 3127, "annotation": {"number": 64, "value": 0}, "group": "control_change"}, {"time": 3133, "annotation": {"number": 64, "value": 127}, "group": "control_change"}, {"time": 3140, "annotation": {"number": 64, "value": 0}, "group": "control_change"}, {"time": 3144, "annotation": {"number": 64, "value": 127}, "group": "control_change"}, {"time": 3154, "annotation": {"number": 64, "value": 0}, "group": "control_change"}, {"time": 3158, "annotation": {"number": 64, "value": 127}, "group": "control_change"}, {"time": 3166, "annotation": {"number": 64, "value": 0}, "group": "control_change"}, {"time": 3170, "annotation": {"number": 64, "value": 127}, "group": "control_change"}, {"time": 3186, "annotation": {"number": 64, "value": 0}, "group": "control_change"}, {"time": 3190, "annotation": {"number": 64, "value": 127}, "group": "control_change"}, {"time": 3201, "annotation": {"number": 64, "value": 0}, "group": "control_change"}, {"time": 3207, "annotation": {"number": 64, "value": 127}, "group": "control_change"}, {"time": 3215, "annotation": {"number": 64, "value": 0}, "group": "control_change"}, {"time": 3218, "annotation": {"number": 64, "value": 127}, "group": "control_change"}, {"time": 3261, "annotation": {"number": 64, "value": 0}, "group": "control_change"}, {"time": 3277, "annotation": {"number": 64, "value": 127}, "group": "control_change"}, {"time": 3310, "annotation": {"number": 64, "value": 0}, "group": "control_change"}, {"time": 3325, "annotation": {"number": 64, "value": 0}, "group": "control_change"}, {"time": 3329, "annotation": {"number": 64, "value": 127}, "group": "control_change"}, {"time": 3332, "annotation": {"number": 64, "value": 0}, "group": "control_change"}, {"time": 3337, "annotation": {"number": 64, "value": 127}, "group": "control_change"}, {"time": 3345, "annotation": {"number": 64, "value": 0}, "group": "control_change"}, {"time": 3351, "annotation": {"number": 64, "value": 127}, "group": "control_change"}, {"time": 3357, "annotation": {"number": 64, "value": 0}, "group": "control_change"}, {"time": 3362, "annotation": {"number": 64, "value": 127}, "group": "control_change"}, {"time": 3370, "annotation": {"number": 64, "value": 0}, "group": "control_change"}, {"time": 3374, "annotation": {"number": 64, "value": 127}, "group": "control_change"}, {"time": 3381, "annotation": {"number": 64, "value": 0}, "group": "control_change"}, {"time": 3385, "annotation": {"number": 64, "value": 127}, "group": "control_change"}, {"time": 3392, "annotation": {"number": 64, "value": 0}, "group": "control_change"}, {"time": 3397, "annotation": {"number": 64, "value": 127}, "group": "control_change"}, {"time": 3407, "annotation": {"number": 64, "value": 0}, "group": "control_change"}, {"time": 3411, "annotation": {"number": 64, "value": 127}, "group": "control_change"}, {"time": 3417, "annotation": {"number": 64, "value": 0}, "group": "control_change"}, {"time": 3421, "annotation": {"number": 64, "value": 127}, "group": "control_change"}, {"time": 3422, "annotation": {"number": 64, "value": 0}, "group": "control_change"}, {"time": 3426, "annotation": {"number": 64, "value": 127}, "group": "control_change"}, {"time": 3431, "annotation": {"number": 64, "value": 0}, "group": "control_change"}, {"time": 3434, "annotation": {"number": 64, "value": 127}, "group": "control_change"}, {"time": 3453, "annotation": {"number": 64, "value": 0}, "group": "control_change"}, {"time": 3458, "annotation": {"number": 64, "value": 127}, "group": "control_change"}, {"time": 3464, "annotation": {"number": 64, "value": 0}, "group": "control_change"}, {"time": 3469, "annotation": {"number": 64, "value": 127}, "group": "control_change"}, {"time": 3477, "annotation": {"number": 64, "value": 0}, "group": "control_change"}, {"time": 3482, "annotation": {"number": 64, "value": 127}, "group": "control_change"}, {"time": 3489, "annotation": {"number": 64, "value": 0}, "group": "control_change"}, {"time": 3494, "annotation": {"number": 64, "value": 127}, "group": "control_change"}, {"time": 3503, "annotation": {"number": 64, "value": 0}, "group": "control_change"}, {"time": 3507, "annotation": {"number": 64, "value": 127}, "group": "control_change"}, {"time": 3512, "annotation": {"number": 64, "value": 0}, "group": "control_change"}, {"time": 3517, "annotation": {"number": 64, "value": 127}, "group": "control_change"}, {"time": 3525, "annotation": {"number": 64, "value": 0}, "group": "control_change"}, {"time": 3530, "annotation": {"number": 64, "value": 127}, "group": "control_change"}, {"time": 3537, "annotation": {"number": 64, "value": 0}, "group": "control_change"}, {"time": 3542, "annotation": {"number": 64, "value": 127}, "group": "control_change"}, {"time": 3550, "annotation": {"number": 64, "value": 0}, "group": "control_change"}, {"time": 3554, "annotation": {"number": 64, "value": 127}, "group": "control_change"}, {"time": 3559, "annotation": {"number": 64, "value": 0}, "group": "control_change"}, {"time": 3565, "annotation": {"number": 64, "value": 127}, "group": "control_change"}, {"time": 3572, "annotation": {"number": 64, "value": 0}, "group": "control_change"}, {"time": 3576, "annotation": {"number": 64, "value": 127}, "group": "control_change"}, {"time": 3586, "annotation": {"number": 64, "value": 0}, "group": "control_change"}, {"time": 3590, "annotation": {"number": 64, "value": 127}, "group": "control_change"}, {"time": 3598, "annotation": {"number": 64, "value": 0}, "group": "control_change"}, {"time": 3602, "annotation": {"number": 64, "value": 127}, "group": "control_change"}, {"time": 3618, "annotation": {"number": 64, "value": 0}, "group": "control_change"}, {"time": 3622, "annotation": {"number": 64, "value": 127}, "group": "control_change"}, {"time": 3633, "annotation": {"number": 64, "value": 0}, "group": "control_change"}, {"time": 3639, "annotation": {"number": 64, "value": 127}, "group": "control_change"}, {"time": 3647, "annotation": {"number": 64, "value": 0}, "group": "control_change"}, {"time": 3650, "annotation": {"number": 64, "value": 127}, "group": "control_change"}, {"time": 3693, "annotation": {"number": 64, "value": 0}, "group": "control_change"}, {"time": 3709, "annotation": {"number": 64, "value": 127}, "group": "control_change"}, {"time": 3742, "annotation": {"number": 64, "value": 0}, "group": "control_change"}]}]}