{"metadata": {"schema_version": "0.2", "title": "None", "source_filename": "032.mid", "source_format": "midi"}, "resolution": 12, "tempos": [{"time": 0, "qpm": 59.00006686674245}], "key_signatures": [{"time": 0, "root": 0, "mode": "major"}], "time_signatures": [{"time": 0, "numerator": 4, "denominator": 4}], "tracks": [{"program": 4, "is_drum": false, "name": "MELODY", "notes": [{"time": 361, "pitch": 66, "duration": 8, "velocity": 97}, {"time": 367, "pitch": 69, "duration": 6, "velocity": 64}, {"time": 373, "pitch": 71, "duration": 6, "velocity": 85}, {"time": 379, "pitch": 78, "duration": 6, "velocity": 66}, {"time": 385, "pitch": 78, "duration": 10, "velocity": 78}, {"time": 394, "pitch": 76, "duration": 15, "velocity": 70}, {"time": 409, "pitch": 74, "duration": 6, "velocity": 97}, {"time": 415, "pitch": 73, "duration": 6, "velocity": 97}, {"time": 421, "pitch": 71, "duration": 6, "velocity": 97}, {"time": 427, "pitch": 69, "duration": 6, "velocity": 99}, {"time": 433, "pitch": 66, "duration": 3, "velocity": 93}, {"time": 436, "pitch": 69, "duration": 3, "velocity": 78}, {"time": 439, "pitch": 66, "duration": 18, "velocity": 69}, {"time": 457, "pitch": 74, "duration": 6, "velocity": 97}, {"time": 463, "pitch": 71, "duration": 6, "velocity": 95}, {"time": 469, "pitch": 76, "duration": 6, "velocity": 82}, {"time": 475, "pitch": 81, "duration": 6, "velocity": 82}, {"time": 481, "pitch": 76, "duration": 12, "velocity": 99}, {"time": 493, "pitch": 74, "duration": 12, "velocity": 101}, {"time": 505, "pitch": 74, "duration": 6, "velocity": 97}, {"time": 511, "pitch": 81, "duration": 6, "velocity": 63}, {"time": 517, "pitch": 78, "duration": 6, "velocity": 91}, {"time": 523, "pitch": 76, "duration": 6, "velocity": 88}, {"time": 529, "pitch": 78, "duration": 3, "velocity": 88}, {"time": 532, "pitch": 81, "duration": 3, "velocity": 70}, {"time": 535, "pitch": 78, "duration": 18, "velocity": 64}, {"time": 553, "pitch": 78, "duration": 6, "velocity": 95}, {"time": 559, "pitch": 81, "duration": 6, "velocity": 82}, {"time": 565, "pitch": 81, "duration": 7, "velocity": 85}, {"time": 571, "pitch": 74, "duration": 7, "velocity": 88}, {"time": 577, "pitch": 76, "duration": 9, "velocity": 97}, {"time": 586, "pitch": 78, "duration": 3, "velocity": 78}, {"time": 589, "pitch": 74, "duration": 6, "velocity": 91}, {"time": 595, "pitch": 76, "duration": 6, "velocity": 100}, {"time": 601, "pitch": 78, "duration": 6, "velocity": 99}, {"time": 607, "pitch": 81, "duration": 6, "velocity": 76}, {"time": 613, "pitch": 76, "duration": 6, "velocity": 85}, {"time": 619, "pitch": 74, "duration": 6, "velocity": 80}, {"time": 625, "pitch": 71, "duration": 3, "velocity": 97}, {"time": 628, "pitch": 74, "duration": 3, "velocity": 97}, {"time": 631, "pitch": 71, "duration": 18, "velocity": 97}, {"time": 649, "pitch": 66, "duration": 7, "velocity": 93}, {"time": 655, "pitch": 69, "duration": 6, "velocity": 78}, {"time": 661, "pitch": 71, "duration": 7, "velocity": 72}, {"time": 667, "pitch": 78, "duration": 6, "velocity": 85}, {"time": 673, "pitch": 78, "duration": 13, "velocity": 75}, {"time": 685, "pitch": 76, "duration": 12, "velocity": 78}, {"time": 697, "pitch": 74, "duration": 7, "velocity": 95}, {"time": 703, "pitch": 73, "duration": 6, "velocity": 97}, {"time": 709, "pitch": 71, "duration": 6, "velocity": 95}, {"time": 715, "pitch": 69, "duration": 7, "velocity": 80}, {"time": 721, "pitch": 71, "duration": 36, "velocity": 85}, {"time": 757, "pitch": 76, "duration": 3, "velocity": 61}, {"time": 760, "pitch": 78, "duration": 3, "velocity": 54}, {"time": 763, "pitch": 76, "duration": 3, "velocity": 70}, {"time": 766, "pitch": 71, "duration": 4, "velocity": 72}, {"time": 769, "pitch": 76, "duration": 36, "velocity": 57}, {"time": 805, "pitch": 76, "duration": 3, "velocity": 85}, {"time": 808, "pitch": 78, "duration": 3, "velocity": 62}, {"time": 811, "pitch": 76, "duration": 3, "velocity": 91}, {"time": 814, "pitch": 71, "duration": 4, "velocity": 80}, {"time": 817, "pitch": 74, "duration": 18, "velocity": 85}, {"time": 835, "pitch": 73, "duration": 3, "velocity": 64}, {"time": 838, "pitch": 74, "duration": 3, "velocity": 73}, {"time": 840, "pitch": 73, "duration": 4, "velocity": 73}, {"time": 842, "pitch": 71, "duration": 10, "velocity": 73}, {"time": 853, "pitch": 76, "duration": 3, "velocity": 80}, {"time": 856, "pitch": 78, "duration": 3, "velocity": 55}, {"time": 859, "pitch": 76, "duration": 3, "velocity": 61}, {"time": 862, "pitch": 71, "duration": 4, "velocity": 61}, {"time": 865, "pitch": 76, "duration": 7, "velocity": 73}, {"time": 871, "pitch": 78, "duration": 5, "velocity": 51}, {"time": 874, "pitch": 76, "duration": 27, "velocity": 66}, {"time": 901, "pitch": 76, "duration": 3, "velocity": 93}, {"time": 904, "pitch": 78, "duration": 3, "velocity": 76}, {"time": 907, "pitch": 81, "duration": 3, "velocity": 99}, {"time": 910, "pitch": 78, "duration": 3, "velocity": 66}, {"time": 913, "pitch": 78, "duration": 3, "velocity": 78}, {"time": 916, "pitch": 81, "duration": 3, "velocity": 66}, {"time": 919, "pitch": 78, "duration": 42, "velocity": 78}, {"time": 961, "pitch": 83, "duration": 3, "velocity": 63}, {"time": 964, "pitch": 81, "duration": 3, "velocity": 88}, {"time": 967, "pitch": 78, "duration": 3, "velocity": 73}, {"time": 970, "pitch": 76, "duration": 5, "velocity": 60}, {"time": 973, "pitch": 78, "duration": 6, "velocity": 82}, {"time": 979, "pitch": 81, "duration": 6, "velocity": 69}, {"time": 985, "pitch": 78, "duration": 24, "velocity": 91}, {"time": 1009, "pitch": 83, "duration": 3, "velocity": 55}, {"time": 1012, "pitch": 81, "duration": 3, "velocity": 76}, {"time": 1015, "pitch": 78, "duration": 3, "velocity": 54}, {"time": 1018, "pitch": 76, "duration": 4, "velocity": 64}, {"time": 1021, "pitch": 78, "duration": 6, "velocity": 91}, {"time": 1027, "pitch": 81, "duration": 6, "velocity": 73}, {"time": 1033, "pitch": 71, "duration": 24, "velocity": 91}, {"time": 1057, "pitch": 71, "duration": 4, "velocity": 91}, {"time": 1060, "pitch": 73, "duration": 3, "velocity": 72}, {"time": 1063, "pitch": 74, "duration": 3, "velocity": 78}, {"time": 1066, "pitch": 78, "duration": 3, "velocity": 66}, {"time": 1069, "pitch": 76, "duration": 6, "velocity": 82}, {"time": 1075, "pitch": 81, "duration": 6, "velocity": 72}, {"time": 1081, "pitch": 76, "duration": 9, "velocity": 73}, {"time": 1090, "pitch": 74, "duration": 4, "velocity": 88}, {"time": 1093, "pitch": 76, "duration": 6, "velocity": 76}, {"time": 1099, "pitch": 81, "duration": 6, "velocity": 73}, {"time": 1105, "pitch": 78, "duration": 25, "velocity": 76}, {"time": 1123, "pitch": 76, "duration": 6, "velocity": 88}, {"time": 1129, "pitch": 78, "duration": 1, "velocity": 73}, {"time": 1153, "pitch": 83, "duration": 3, "velocity": 97}, {"time": 1156, "pitch": 81, "duration": 3, "velocity": 82}, {"time": 1159, "pitch": 78, "duration": 4, "velocity": 76}, {"time": 1162, "pitch": 76, "duration": 4, "velocity": 82}, {"time": 1165, "pitch": 78, "duration": 6, "velocity": 82}, {"time": 1171, "pitch": 81, "duration": 6, "velocity": 70}, {"time": 1177, "pitch": 78, "duration": 24, "velocity": 85}, {"time": 1201, "pitch": 83, "duration": 3, "velocity": 97}, {"time": 1204, "pitch": 81, "duration": 3, "velocity": 73}, {"time": 1207, "pitch": 78, "duration": 4, "velocity": 85}, {"time": 1210, "pitch": 76, "duration": 5, "velocity": 88}, {"time": 1213, "pitch": 78, "duration": 6, "velocity": 66}, {"time": 1219, "pitch": 81, "duration": 9, "velocity": 75}, {"time": 1225, "pitch": 71, "duration": 24, "velocity": 78}, {"time": 1249, "pitch": 71, "duration": 4, "velocity": 91}, {"time": 1252, "pitch": 73, "duration": 4, "velocity": 73}, {"time": 1255, "pitch": 74, "duration": 3, "velocity": 82}, {"time": 1258, "pitch": 78, "duration": 3, "velocity": 76}, {"time": 1261, "pitch": 76, "duration": 6, "velocity": 95}, {"time": 1267, "pitch": 81, "duration": 6, "velocity": 85}, {"time": 1273, "pitch": 76, "duration": 9, "velocity": 88}, {"time": 1282, "pitch": 74, "duration": 4, "velocity": 91}, {"time": 1285, "pitch": 76, "duration": 6, "velocity": 85}, {"time": 1291, "pitch": 81, "duration": 6, "velocity": 76}, {"time": 1297, "pitch": 78, "duration": 2, "velocity": 93}, {"time": 1299, "pitch": 81, "duration": 1, "velocity": 64}, {"time": 1300, "pitch": 78, "duration": 33, "velocity": 60}, {"time": 1333, "pitch": 76, "duration": 4, "velocity": 95}, {"time": 1336, "pitch": 78, "duration": 12, "velocity": 72}, {"time": 1348, "pitch": 74, "duration": 6, "velocity": 78}, {"time": 1354, "pitch": 71, "duration": 63, "velocity": 85}, {"time": 1825, "pitch": 66, "duration": 6, "velocity": 97}, {"time": 1831, "pitch": 69, "duration": 6, "velocity": 64}, {"time": 1837, "pitch": 71, "duration": 6, "velocity": 85}, {"time": 1843, "pitch": 78, "duration": 6, "velocity": 66}, {"time": 1849, "pitch": 78, "duration": 9, "velocity": 78}, {"time": 1858, "pitch": 76, "duration": 15, "velocity": 70}, {"time": 1873, "pitch": 74, "duration": 6, "velocity": 97}, {"time": 1879, "pitch": 73, "duration": 6, "velocity": 97}, {"time": 1885, "pitch": 71, "duration": 6, "velocity": 97}, {"time": 1891, "pitch": 69, "duration": 6, "velocity": 99}, {"time": 1897, "pitch": 66, "duration": 6, "velocity": 93}, {"time": 1903, "pitch": 66, "duration": 18, "velocity": 69}, {"time": 1903, "pitch": 69, "duration": 18, "velocity": 78}, {"time": 1921, "pitch": 74, "duration": 6, "velocity": 97}, {"time": 1927, "pitch": 71, "duration": 6, "velocity": 95}, {"time": 1933, "pitch": 76, "duration": 6, "velocity": 82}, {"time": 1939, "pitch": 81, "duration": 6, "velocity": 82}, {"time": 1945, "pitch": 76, "duration": 12, "velocity": 99}, {"time": 1957, "pitch": 74, "duration": 12, "velocity": 101}, {"time": 1969, "pitch": 74, "duration": 6, "velocity": 97}, {"time": 1975, "pitch": 81, "duration": 6, "velocity": 63}, {"time": 1981, "pitch": 78, "duration": 6, "velocity": 91}, {"time": 1987, "pitch": 76, "duration": 6, "velocity": 88}, {"time": 1993, "pitch": 78, "duration": 6, "velocity": 88}, {"time": 1999, "pitch": 78, "duration": 18, "velocity": 64}, {"time": 1999, "pitch": 81, "duration": 18, "velocity": 70}, {"time": 2017, "pitch": 78, "duration": 6, "velocity": 95}, {"time": 2023, "pitch": 81, "duration": 6, "velocity": 82}, {"time": 2029, "pitch": 81, "duration": 6, "velocity": 85}, {"time": 2035, "pitch": 74, "duration": 6, "velocity": 88}, {"time": 2041, "pitch": 76, "duration": 9, "velocity": 97}, {"time": 2050, "pitch": 78, "duration": 3, "velocity": 78}, {"time": 2053, "pitch": 74, "duration": 12, "velocity": 91}, {"time": 2065, "pitch": 78, "duration": 6, "velocity": 99}, {"time": 2071, "pitch": 81, "duration": 6, "velocity": 76}, {"time": 2077, "pitch": 76, "duration": 6, "velocity": 85}, {"time": 2083, "pitch": 74, "duration": 6, "velocity": 80}, {"time": 2089, "pitch": 71, "duration": 3, "velocity": 97}, {"time": 2092, "pitch": 74, "duration": 3, "velocity": 97}, {"time": 2095, "pitch": 71, "duration": 18, "velocity": 97}, {"time": 2113, "pitch": 66, "duration": 6, "velocity": 93}, {"time": 2119, "pitch": 69, "duration": 6, "velocity": 78}, {"time": 2125, "pitch": 71, "duration": 6, "velocity": 72}, {"time": 2131, "pitch": 78, "duration": 6, "velocity": 85}, {"time": 2137, "pitch": 78, "duration": 12, "velocity": 75}, {"time": 2149, "pitch": 76, "duration": 12, "velocity": 78}, {"time": 2161, "pitch": 74, "duration": 6, "velocity": 95}, {"time": 2167, "pitch": 73, "duration": 6, "velocity": 97}, {"time": 2173, "pitch": 71, "duration": 6, "velocity": 95}, {"time": 2179, "pitch": 69, "duration": 6, "velocity": 80}, {"time": 2185, "pitch": 74, "duration": 4, "velocity": 85}, {"time": 2188, "pitch": 71, "duration": 21, "velocity": 85}, {"time": 2209, "pitch": 83, "duration": 3, "velocity": 63}, {"time": 2212, "pitch": 81, "duration": 3, "velocity": 88}, {"time": 2215, "pitch": 78, "duration": 3, "velocity": 73}, {"time": 2218, "pitch": 76, "duration": 3, "velocity": 60}, {"time": 2221, "pitch": 78, "duration": 6, "velocity": 82}, {"time": 2227, "pitch": 81, "duration": 6, "velocity": 69}, {"time": 2233, "pitch": 78, "duration": 24, "velocity": 91}, {"time": 2257, "pitch": 83, "duration": 3, "velocity": 55}, {"time": 2260, "pitch": 81, "duration": 3, "velocity": 76}, {"time": 2263, "pitch": 78, "duration": 3, "velocity": 54}, {"time": 2266, "pitch": 76, "duration": 3, "velocity": 64}, {"time": 2269, "pitch": 78, "duration": 6, "velocity": 91}, {"time": 2275, "pitch": 81, "duration": 6, "velocity": 73}, {"time": 2281, "pitch": 71, "duration": 24, "velocity": 91}, {"time": 2305, "pitch": 71, "duration": 3, "velocity": 91}, {"time": 2308, "pitch": 73, "duration": 3, "velocity": 72}, {"time": 2311, "pitch": 74, "duration": 3, "velocity": 78}, {"time": 2314, "pitch": 78, "duration": 3, "velocity": 66}, {"time": 2317, "pitch": 76, "duration": 6, "velocity": 82}, {"time": 2323, "pitch": 81, "duration": 6, "velocity": 72}, {"time": 2329, "pitch": 76, "duration": 9, "velocity": 73}, {"time": 2338, "pitch": 74, "duration": 3, "velocity": 88}, {"time": 2341, "pitch": 76, "duration": 6, "velocity": 76}, {"time": 2347, "pitch": 81, "duration": 6, "velocity": 73}, {"time": 2353, "pitch": 78, "duration": 18, "velocity": 76}, {"time": 2371, "pitch": 76, "duration": 6, "velocity": 88}, {"time": 2377, "pitch": 78, "duration": 24, "velocity": 73}, {"time": 2401, "pitch": 83, "duration": 3, "velocity": 97}, {"time": 2404, "pitch": 81, "duration": 3, "velocity": 82}, {"time": 2407, "pitch": 78, "duration": 3, "velocity": 76}, {"time": 2410, "pitch": 76, "duration": 3, "velocity": 82}, {"time": 2413, "pitch": 78, "duration": 6, "velocity": 82}, {"time": 2419, "pitch": 81, "duration": 6, "velocity": 70}, {"time": 2425, "pitch": 78, "duration": 24, "velocity": 85}, {"time": 2449, "pitch": 83, "duration": 3, "velocity": 97}, {"time": 2452, "pitch": 81, "duration": 3, "velocity": 73}, {"time": 2455, "pitch": 78, "duration": 3, "velocity": 85}, {"time": 2458, "pitch": 76, "duration": 3, "velocity": 88}, {"time": 2461, "pitch": 78, "duration": 6, "velocity": 66}, {"time": 2467, "pitch": 81, "duration": 6, "velocity": 75}, {"time": 2473, "pitch": 71, "duration": 24, "velocity": 78}, {"time": 2497, "pitch": 71, "duration": 3, "velocity": 91}, {"time": 2500, "pitch": 73, "duration": 3, "velocity": 73}, {"time": 2503, "pitch": 74, "duration": 3, "velocity": 82}, {"time": 2506, "pitch": 78, "duration": 3, "velocity": 76}, {"time": 2509, "pitch": 76, "duration": 6, "velocity": 95}, {"time": 2515, "pitch": 81, "duration": 6, "velocity": 85}, {"time": 2521, "pitch": 76, "duration": 9, "velocity": 88}, {"time": 2530, "pitch": 74, "duration": 3, "velocity": 91}, {"time": 2533, "pitch": 76, "duration": 6, "velocity": 85}, {"time": 2539, "pitch": 81, "duration": 6, "velocity": 76}, {"time": 2545, "pitch": 78, "duration": 2, "velocity": 93}, {"time": 2547, "pitch": 81, "duration": 1, "velocity": 64}, {"time": 2548, "pitch": 78, "duration": 33, "velocity": 60}, {"time": 2581, "pitch": 76, "duration": 3, "velocity": 95}, {"time": 2584, "pitch": 78, "duration": 12, "velocity": 72}, {"time": 2596, "pitch": 74, "duration": 6, "velocity": 78}, {"time": 2602, "pitch": 71, "duration": 27, "velocity": 85}, {"time": 2629, "pitch": 76, "duration": 3, "velocity": 61}, {"time": 2632, "pitch": 78, "duration": 3, "velocity": 54}, {"time": 2635, "pitch": 76, "duration": 3, "velocity": 70}, {"time": 2638, "pitch": 71, "duration": 4, "velocity": 72}, {"time": 2641, "pitch": 76, "duration": 36, "velocity": 57}, {"time": 2677, "pitch": 76, "duration": 3, "velocity": 85}, {"time": 2680, "pitch": 78, "duration": 3, "velocity": 62}, {"time": 2683, "pitch": 76, "duration": 3, "velocity": 91}, {"time": 2686, "pitch": 71, "duration": 4, "velocity": 80}, {"time": 2689, "pitch": 74, "duration": 18, "velocity": 85}, {"time": 2707, "pitch": 73, "duration": 3, "velocity": 64}, {"time": 2710, "pitch": 74, "duration": 6, "velocity": 73}, {"time": 2713, "pitch": 71, "duration": 12, "velocity": 73}, {"time": 2725, "pitch": 76, "duration": 3, "velocity": 80}, {"time": 2728, "pitch": 78, "duration": 3, "velocity": 55}, {"time": 2731, "pitch": 76, "duration": 3, "velocity": 61}, {"time": 2734, "pitch": 71, "duration": 4, "velocity": 61}, {"time": 2737, "pitch": 76, "duration": 7, "velocity": 73}, {"time": 2743, "pitch": 78, "duration": 3, "velocity": 51}, {"time": 2745, "pitch": 76, "duration": 28, "velocity": 66}, {"time": 2773, "pitch": 76, "duration": 12, "velocity": 101}, {"time": 2785, "pitch": 78, "duration": 47, "velocity": 95}, {"time": 2831, "pitch": 71, "duration": 26, "velocity": 88}]}, {"program": 0, "is_drum": false, "name": "PIANO", "notes": [{"time": 13, "pitch": 47, "duration": 58, "velocity": 46}, {"time": 13, "pitch": 54, "duration": 58, "velocity": 52}, {"time": 13, "pitch": 59, "duration": 56, "velocity": 48}, {"time": 13, "pitch": 61, "duration": 58, "velocity": 52}, {"time": 13, "pitch": 62, "duration": 58, "velocity": 53}, {"time": 13, "pitch": 66, "duration": 58, "velocity": 57}, {"time": 78, "pitch": 52, "duration": 34, "velocity": 36}, {"time": 78, "pitch": 59, "duration": 37, "velocity": 36}, {"time": 78, "pitch": 64, "duration": 29, "velocity": 45}, {"time": 78, "pitch": 67, "duration": 34, "velocity": 30}, {"time": 78, "pitch": 40, "duration": 33, "velocity": 39}, {"time": 121, "pitch": 47, "duration": 40, "velocity": 54}, {"time": 121, "pitch": 54, "duration": 40, "velocity": 61}, {"time": 121, "pitch": 62, "duration": 6, "velocity": 69}, {"time": 121, "pitch": 66, "duration": 6, "velocity": 64}, {"time": 127, "pitch": 61, "duration": 5, "velocity": 41}, {"time": 127, "pitch": 64, "duration": 5, "velocity": 46}, {"time": 133, "pitch": 62, "duration": 4, "velocity": 61}, {"time": 133, "pitch": 66, "duration": 5, "velocity": 63}, {"time": 139, "pitch": 59, "duration": 19, "velocity": 31}, {"time": 142, "pitch": 66, "duration": 2, "velocity": 73}, {"time": 142, "pitch": 74, "duration": 3, "velocity": 73}, {"time": 145, "pitch": 74, "duration": 1, "velocity": 74}, {"time": 145, "pitch": 66, "duration": 2, "velocity": 76}, {"time": 151, "pitch": 64, "duration": 1, "velocity": 55}, {"time": 151, "pitch": 71, "duration": 1, "velocity": 54}, {"time": 157, "pitch": 62, "duration": 3, "velocity": 64}, {"time": 157, "pitch": 69, "duration": 3, "velocity": 69}, {"time": 163, "pitch": 47, "duration": 2, "velocity": 47}, {"time": 163, "pitch": 54, "duration": 1, "velocity": 47}, {"time": 163, "pitch": 64, "duration": 1, "velocity": 51}, {"time": 169, "pitch": 43, "duration": 42, "velocity": 78}, {"time": 169, "pitch": 62, "duration": 6, "velocity": 63}, {"time": 169, "pitch": 66, "duration": 6, "velocity": 62}, {"time": 175, "pitch": 55, "duration": 7, "velocity": 45}, {"time": 181, "pitch": 59, "duration": 4, "velocity": 60}, {"time": 181, "pitch": 64, "duration": 5, "velocity": 67}, {"time": 187, "pitch": 55, "duration": 7, "velocity": 39}, {"time": 190, "pitch": 62, "duration": 1, "velocity": 60}, {"time": 190, "pitch": 66, "duration": 2, "velocity": 56}, {"time": 193, "pitch": 62, "duration": 5, "velocity": 66}, {"time": 193, "pitch": 66, "duration": 5, "velocity": 66}, {"time": 199, "pitch": 55, "duration": 8, "velocity": 49}, {"time": 205, "pitch": 59, "duration": 6, "velocity": 67}, {"time": 205, "pitch": 62, "duration": 5, "velocity": 69}, {"time": 205, "pitch": 66, "duration": 6, "velocity": 73}, {"time": 211, "pitch": 55, "duration": 2, "velocity": 52}, {"time": 217, "pitch": 54, "duration": 41, "velocity": 70}, {"time": 217, "pitch": 61, "duration": 4, "velocity": 64}, {"time": 217, "pitch": 64, "duration": 4, "velocity": 66}, {"time": 217, "pitch": 69, "duration": 5, "velocity": 70}, {"time": 223, "pitch": 61, "duration": 7, "velocity": 46}, {"time": 229, "pitch": 64, "duration": 4, "velocity": 61}, {"time": 229, "pitch": 69, "duration": 4, "velocity": 63}, {"time": 235, "pitch": 64, "duration": 2, "velocity": 52}, {"time": 235, "pitch": 71, "duration": 2, "velocity": 63}, {"time": 238, "pitch": 73, "duration": 3, "velocity": 64}, {"time": 241, "pitch": 61, "duration": 7, "velocity": 60}, {"time": 241, "pitch": 69, "duration": 6, "velocity": 67}, {"time": 241, "pitch": 76, "duration": 5, "velocity": 64}, {"time": 247, "pitch": 64, "duration": 4, "velocity": 48}, {"time": 247, "pitch": 73, "duration": 6, "velocity": 64}, {"time": 253, "pitch": 61, "duration": 5, "velocity": 61}, {"time": 253, "pitch": 64, "duration": 4, "velocity": 61}, {"time": 253, "pitch": 71, "duration": 4, "velocity": 70}, {"time": 265, "pitch": 47, "duration": 84, "velocity": 64}, {"time": 265, "pitch": 62, "duration": 6, "velocity": 60}, {"time": 265, "pitch": 66, "duration": 6, "velocity": 70}, {"time": 271, "pitch": 54, "duration": 78, "velocity": 47}, {"time": 274, "pitch": 59, "duration": 9, "velocity": 57}, {"time": 277, "pitch": 61, "duration": 4, "velocity": 54}, {"time": 280, "pitch": 62, "duration": 2, "velocity": 60}, {"time": 283, "pitch": 64, "duration": 2, "velocity": 47}, {"time": 286, "pitch": 61, "duration": 2, "velocity": 53}, {"time": 289, "pitch": 59, "duration": 8, "velocity": 36}, {"time": 289, "pitch": 66, "duration": 2, "velocity": 49}, {"time": 292, "pitch": 64, "duration": 2, "velocity": 70}, {"time": 295, "pitch": 69, "duration": 2, "velocity": 63}, {"time": 298, "pitch": 66, "duration": 3, "velocity": 72}, {"time": 301, "pitch": 59, "duration": 8, "velocity": 42}, {"time": 301, "pitch": 71, "duration": 2, "velocity": 62}, {"time": 304, "pitch": 69, "duration": 3, "velocity": 49}, {"time": 307, "pitch": 74, "duration": 2, "velocity": 58}, {"time": 310, "pitch": 71, "duration": 4, "velocity": 51}, {"time": 313, "pitch": 59, "duration": 11, "velocity": 44}, {"time": 313, "pitch": 78, "duration": 8, "velocity": 58}, {"time": 325, "pitch": 62, "duration": 5, "velocity": 65}, {"time": 337, "pitch": 66, "duration": 12, "velocity": 79}, {"time": 361, "pitch": 47, "duration": 19, "velocity": 63}, {"time": 361, "pitch": 59, "duration": 18, "velocity": 53}, {"time": 361, "pitch": 62, "duration": 18, "velocity": 67}, {"time": 361, "pitch": 66, "duration": 18, "velocity": 72}, {"time": 361, "pitch": 71, "duration": 19, "velocity": 61}, {"time": 385, "pitch": 42, "duration": 18, "velocity": 63}, {"time": 385, "pitch": 54, "duration": 18, "velocity": 70}, {"time": 385, "pitch": 64, "duration": 9, "velocity": 59}, {"time": 385, "pitch": 69, "duration": 15, "velocity": 61}, {"time": 385, "pitch": 73, "duration": 15, "velocity": 66}, {"time": 397, "pitch": 66, "duration": 4, "velocity": 44}, {"time": 409, "pitch": 43, "duration": 6, "velocity": 73}, {"time": 409, "pitch": 55, "duration": 7, "velocity": 76}, {"time": 409, "pitch": 59, "duration": 6, "velocity": 66}, {"time": 409, "pitch": 62, "duration": 6, "velocity": 73}, {"time": 409, "pitch": 67, "duration": 5, "velocity": 75}, {"time": 421, "pitch": 45, "duration": 6, "velocity": 70}, {"time": 421, "pitch": 57, "duration": 9, "velocity": 66}, {"time": 421, "pitch": 61, "duration": 9, "velocity": 63}, {"time": 421, "pitch": 64, "duration": 8, "velocity": 72}, {"time": 421, "pitch": 69, "duration": 8, "velocity": 64}, {"time": 433, "pitch": 47, "duration": 21, "velocity": 66}, {"time": 433, "pitch": 62, "duration": 7, "velocity": 69}, {"time": 433, "pitch": 66, "duration": 8, "velocity": 63}, {"time": 439, "pitch": 54, "duration": 19, "velocity": 41}, {"time": 445, "pitch": 59, "duration": 11, "velocity": 47}, {"time": 445, "pitch": 61, "duration": 6, "velocity": 56}, {"time": 451, "pitch": 62, "duration": 4, "velocity": 59}, {"time": 457, "pitch": 43, "duration": 17, "velocity": 67}, {"time": 457, "pitch": 55, "duration": 18, "velocity": 66}, {"time": 457, "pitch": 59, "duration": 4, "velocity": 66}, {"time": 457, "pitch": 62, "duration": 5, "velocity": 75}, {"time": 457, "pitch": 67, "duration": 5, "velocity": 72}, {"time": 463, "pitch": 62, "duration": 6, "velocity": 45}, {"time": 469, "pitch": 67, "duration": 6, "velocity": 53}, {"time": 475, "pitch": 71, "duration": 5, "velocity": 63}, {"time": 481, "pitch": 69, "duration": 17, "velocity": 73}, {"time": 481, "pitch": 64, "duration": 15, "velocity": 63}, {"time": 481, "pitch": 73, "duration": 15, "velocity": 70}, {"time": 481, "pitch": 45, "duration": 6, "velocity": 58}, {"time": 486, "pitch": 57, "duration": 7, "velocity": 37}, {"time": 492, "pitch": 59, "duration": 8, "velocity": 46}, {"time": 499, "pitch": 61, "duration": 1, "velocity": 55}, {"time": 505, "pitch": 50, "duration": 41, "velocity": 72}, {"time": 505, "pitch": 66, "duration": 9, "velocity": 67}, {"time": 505, "pitch": 69, "duration": 10, "velocity": 72}, {"time": 505, "pitch": 74, "duration": 12, "velocity": 66}, {"time": 511, "pitch": 57, "duration": 36, "velocity": 45}, {"time": 517, "pitch": 62, "duration": 30, "velocity": 61}, {"time": 523, "pitch": 66, "duration": 11, "velocity": 72}, {"time": 529, "pitch": 74, "duration": 5, "velocity": 62}, {"time": 541, "pitch": 78, "duration": 4, "velocity": 73}, {"time": 547, "pitch": 76, "duration": 6, "velocity": 70}, {"time": 553, "pitch": 47, "duration": 16, "velocity": 66}, {"time": 553, "pitch": 66, "duration": 5, "velocity": 53}, {"time": 553, "pitch": 67, "duration": 1, "velocity": 55}, {"time": 559, "pitch": 54, "duration": 11, "velocity": 57}, {"time": 559, "pitch": 62, "duration": 6, "velocity": 76}, {"time": 565, "pitch": 59, "duration": 11, "velocity": 47}, {"time": 565, "pitch": 64, "duration": 7, "velocity": 63}, {"time": 571, "pitch": 66, "duration": 6, "velocity": 67}, {"time": 577, "pitch": 52, "duration": 18, "velocity": 61}, {"time": 577, "pitch": 67, "duration": 5, "velocity": 66}, {"time": 583, "pitch": 59, "duration": 12, "velocity": 39}, {"time": 589, "pitch": 64, "duration": 7, "velocity": 31}, {"time": 589, "pitch": 71, "duration": 7, "velocity": 56}, {"time": 595, "pitch": 76, "duration": 6, "velocity": 70}, {"time": 601, "pitch": 50, "duration": 19, "velocity": 64}, {"time": 601, "pitch": 69, "duration": 9, "velocity": 57}, {"time": 601, "pitch": 74, "duration": 5, "velocity": 66}, {"time": 601, "pitch": 78, "duration": 6, "velocity": 64}, {"time": 607, "pitch": 57, "duration": 13, "velocity": 38}, {"time": 607, "pitch": 76, "duration": 3, "velocity": 61}, {"time": 613, "pitch": 62, "duration": 4, "velocity": 42}, {"time": 613, "pitch": 69, "duration": 2, "velocity": 60}, {"time": 613, "pitch": 76, "duration": 1, "velocity": 63}, {"time": 619, "pitch": 74, "duration": 2, "velocity": 60}, {"time": 625, "pitch": 47, "duration": 19, "velocity": 69}, {"time": 625, "pitch": 66, "duration": 7, "velocity": 64}, {"time": 625, "pitch": 74, "duration": 6, "velocity": 52}, {"time": 631, "pitch": 54, "duration": 13, "velocity": 31}, {"time": 637, "pitch": 59, "duration": 7, "velocity": 34}, {"time": 637, "pitch": 66, "duration": 4, "velocity": 58}, {"time": 637, "pitch": 73, "duration": 3, "velocity": 58}, {"time": 643, "pitch": 69, "duration": 3, "velocity": 59}, {"time": 649, "pitch": 55, "duration": 18, "velocity": 58}, {"time": 649, "pitch": 62, "duration": 5, "velocity": 52}, {"time": 649, "pitch": 66, "duration": 5, "velocity": 52}, {"time": 649, "pitch": 71, "duration": 5, "velocity": 60}, {"time": 655, "pitch": 59, "duration": 12, "velocity": 47}, {"time": 658, "pitch": 62, "duration": 3, "velocity": 56}, {"time": 661, "pitch": 67, "duration": 6, "velocity": 48}, {"time": 667, "pitch": 71, "duration": 2, "velocity": 67}, {"time": 673, "pitch": 45, "duration": 17, "velocity": 67}, {"time": 673, "pitch": 64, "duration": 7, "velocity": 63}, {"time": 673, "pitch": 69, "duration": 7, "velocity": 69}, {"time": 673, "pitch": 73, "duration": 7, "velocity": 64}, {"time": 679, "pitch": 52, "duration": 10, "velocity": 44}, {"time": 685, "pitch": 57, "duration": 5, "velocity": 45}, {"time": 685, "pitch": 64, "duration": 5, "velocity": 57}, {"time": 685, "pitch": 71, "duration": 7, "velocity": 57}, {"time": 691, "pitch": 73, "duration": 2, "velocity": 67}, {"time": 697, "pitch": 55, "duration": 6, "velocity": 67}, {"time": 697, "pitch": 62, "duration": 6, "velocity": 61}, {"time": 697, "pitch": 67, "duration": 6, "velocity": 67}, {"time": 697, "pitch": 71, "duration": 6, "velocity": 70}, {"time": 703, "pitch": 73, "duration": 6, "velocity": 73}, {"time": 709, "pitch": 45, "duration": 8, "velocity": 51}, {"time": 709, "pitch": 57, "duration": 10, "velocity": 46}, {"time": 709, "pitch": 64, "duration": 7, "velocity": 58}, {"time": 709, "pitch": 69, "duration": 6, "velocity": 59}, {"time": 709, "pitch": 73, "duration": 1, "velocity": 67}, {"time": 721, "pitch": 47, "duration": 10, "velocity": 48}, {"time": 721, "pitch": 66, "duration": 1, "velocity": 48}, {"time": 721, "pitch": 71, "duration": 14, "velocity": 67}, {"time": 727, "pitch": 54, "duration": 5, "velocity": 46}, {"time": 727, "pitch": 71, "duration": 8, "velocity": 70}, {"time": 733, "pitch": 59, "duration": 7, "velocity": 44}, {"time": 739, "pitch": 61, "duration": 24, "velocity": 60}, {"time": 745, "pitch": 62, "duration": 18, "velocity": 63}, {"time": 751, "pitch": 66, "duration": 12, "velocity": 48}, {"time": 757, "pitch": 73, "duration": 4, "velocity": 61}, {"time": 769, "pitch": 52, "duration": 20, "velocity": 49}, {"time": 769, "pitch": 76, "duration": 5, "velocity": 45}, {"time": 775, "pitch": 59, "duration": 17, "velocity": 38}, {"time": 775, "pitch": 67, "duration": 3, "velocity": 44}, {"time": 778, "pitch": 71, "duration": 2, "velocity": 54}, {"time": 781, "pitch": 64, "duration": 9, "velocity": 46}, {"time": 781, "pitch": 76, "duration": 3, "velocity": 69}, {"time": 784, "pitch": 67, "duration": 3, "velocity": 44}, {"time": 787, "pitch": 76, "duration": 3, "velocity": 56}, {"time": 790, "pitch": 78, "duration": 1, "velocity": 62}, {"time": 793, "pitch": 52, "duration": 16, "velocity": 44}, {"time": 793, "pitch": 79, "duration": 11, "velocity": 67}, {"time": 799, "pitch": 59, "duration": 9, "velocity": 33}, {"time": 805, "pitch": 64, "duration": 5, "velocity": 44}, {"time": 817, "pitch": 47, "duration": 42, "velocity": 61}, {"time": 817, "pitch": 78, "duration": 4, "velocity": 67}, {"time": 823, "pitch": 54, "duration": 6, "velocity": 39}, {"time": 829, "pitch": 59, "duration": 6, "velocity": 35}, {"time": 829, "pitch": 62, "duration": 3, "velocity": 56}, {"time": 829, "pitch": 66, "duration": 3, "velocity": 56}, {"time": 829, "pitch": 69, "duration": 4, "velocity": 61}, {"time": 835, "pitch": 54, "duration": 23, "velocity": 41}, {"time": 835, "pitch": 64, "duration": 2, "velocity": 45}, {"time": 835, "pitch": 71, "duration": 1, "velocity": 44}, {"time": 841, "pitch": 59, "duration": 8, "velocity": 37}, {"time": 841, "pitch": 66, "duration": 2, "velocity": 60}, {"time": 841, "pitch": 74, "duration": 2, "velocity": 69}, {"time": 847, "pitch": 64, "duration": 1, "velocity": 50}, {"time": 847, "pitch": 73, "duration": 1, "velocity": 55}, {"time": 853, "pitch": 59, "duration": 3, "velocity": 46}, {"time": 853, "pitch": 62, "duration": 4, "velocity": 60}, {"time": 853, "pitch": 71, "duration": 4, "velocity": 64}, {"time": 859, "pitch": 69, "duration": 1, "velocity": 49}, {"time": 865, "pitch": 52, "duration": 19, "velocity": 66}, {"time": 865, "pitch": 67, "duration": 6, "velocity": 61}, {"time": 865, "pitch": 71, "duration": 6, "velocity": 64}, {"time": 871, "pitch": 59, "duration": 6, "velocity": 41}, {"time": 871, "pitch": 66, "duration": 4, "velocity": 47}, {"time": 871, "pitch": 69, "duration": 5, "velocity": 63}, {"time": 877, "pitch": 64, "duration": 7, "velocity": 45}, {"time": 877, "pitch": 71, "duration": 1, "velocity": 56}, {"time": 883, "pitch": 59, "duration": 5, "velocity": 45}, {"time": 883, "pitch": 71, "duration": 2, "velocity": 56}, {"time": 883, "pitch": 79, "duration": 3, "velocity": 63}, {"time": 889, "pitch": 52, "duration": 20, "velocity": 57}, {"time": 889, "pitch": 69, "duration": 3, "velocity": 59}, {"time": 889, "pitch": 78, "duration": 2, "velocity": 62}, {"time": 895, "pitch": 59, "duration": 6, "velocity": 44}, {"time": 901, "pitch": 64, "duration": 3, "velocity": 41}, {"time": 901, "pitch": 67, "duration": 4, "velocity": 59}, {"time": 901, "pitch": 76, "duration": 4, "velocity": 67}, {"time": 907, "pitch": 59, "duration": 1, "velocity": 72}, {"time": 913, "pitch": 54, "duration": 19, "velocity": 69}, {"time": 913, "pitch": 64, "duration": 4, "velocity": 64}, {"time": 913, "pitch": 69, "duration": 4, "velocity": 66}, {"time": 916, "pitch": 61, "duration": 7, "velocity": 63}, {"time": 919, "pitch": 64, "duration": 3, "velocity": 55}, {"time": 922, "pitch": 71, "duration": 6, "velocity": 62}, {"time": 928, "pitch": 61, "duration": 6, "velocity": 49}, {"time": 931, "pitch": 66, "duration": 9, "velocity": 55}, {"time": 934, "pitch": 76, "duration": 7, "velocity": 72}, {"time": 937, "pitch": 54, "duration": 17, "velocity": 70}, {"time": 940, "pitch": 61, "duration": 14, "velocity": 64}, {"time": 943, "pitch": 66, "duration": 2, "velocity": 73}, {"time": 946, "pitch": 69, "duration": 2, "velocity": 72}, {"time": 949, "pitch": 71, "duration": 2, "velocity": 73}, {"time": 952, "pitch": 73, "duration": 4, "velocity": 58}, {"time": 955, "pitch": 76, "duration": 2, "velocity": 66}, {"time": 958, "pitch": 78, "duration": 2, "velocity": 50}, {"time": 961, "pitch": 47, "duration": 18, "velocity": 70}, {"time": 961, "pitch": 74, "duration": 4, "velocity": 63}, {"time": 961, "pitch": 76, "duration": 1, "velocity": 69}, {"time": 961, "pitch": 78, "duration": 4, "velocity": 91}, {"time": 967, "pitch": 54, "duration": 6, "velocity": 42}, {"time": 970, "pitch": 59, "duration": 8, "velocity": 45}, {"time": 973, "pitch": 62, "duration": 4, "velocity": 85}, {"time": 973, "pitch": 66, "duration": 4, "velocity": 76}, {"time": 976, "pitch": 54, "duration": 7, "velocity": 44}, {"time": 979, "pitch": 61, "duration": 2, "velocity": 67}, {"time": 979, "pitch": 64, "duration": 2, "velocity": 76}, {"time": 982, "pitch": 62, "duration": 1, "velocity": 88}, {"time": 982, "pitch": 66, "duration": 2, "velocity": 93}, {"time": 985, "pitch": 47, "duration": 5, "velocity": 67}, {"time": 988, "pitch": 54, "duration": 3, "velocity": 46}, {"time": 988, "pitch": 66, "duration": 1, "velocity": 73}, {"time": 988, "pitch": 74, "duration": 1, "velocity": 73}, {"time": 991, "pitch": 59, "duration": 4, "velocity": 55}, {"time": 991, "pitch": 66, "duration": 1, "velocity": 64}, {"time": 991, "pitch": 74, "duration": 1, "velocity": 67}, {"time": 994, "pitch": 61, "duration": 5, "velocity": 63}, {"time": 994, "pitch": 64, "duration": 1, "velocity": 69}, {"time": 994, "pitch": 73, "duration": 1, "velocity": 66}, {"time": 997, "pitch": 64, "duration": 1, "velocity": 78}, {"time": 997, "pitch": 73, "duration": 1, "velocity": 66}, {"time": 1000, "pitch": 62, "duration": 1, "velocity": 72}, {"time": 1000, "pitch": 71, "duration": 1, "velocity": 63}, {"time": 1003, "pitch": 62, "duration": 2, "velocity": 80}, {"time": 1003, "pitch": 71, "duration": 2, "velocity": 67}, {"time": 1006, "pitch": 69, "duration": 2, "velocity": 67}, {"time": 1009, "pitch": 43, "duration": 6, "velocity": 72}, {"time": 1009, "pitch": 62, "duration": 12, "velocity": 82}, {"time": 1009, "pitch": 67, "duration": 10, "velocity": 85}, {"time": 1009, "pitch": 71, "duration": 10, "velocity": 75}, {"time": 1012, "pitch": 50, "duration": 3, "velocity": 55}, {"time": 1015, "pitch": 55, "duration": 4, "velocity": 49}, {"time": 1018, "pitch": 57, "duration": 6, "velocity": 59}, {"time": 1021, "pitch": 59, "duration": 3, "velocity": 58}, {"time": 1024, "pitch": 62, "duration": 2, "velocity": 61}, {"time": 1027, "pitch": 67, "duration": 2, "velocity": 70}, {"time": 1030, "pitch": 69, "duration": 2, "velocity": 64}, {"time": 1033, "pitch": 62, "duration": 9, "velocity": 70}, {"time": 1033, "pitch": 67, "duration": 9, "velocity": 64}, {"time": 1033, "pitch": 71, "duration": 6, "velocity": 54}, {"time": 1036, "pitch": 43, "duration": 18, "velocity": 64}, {"time": 1039, "pitch": 50, "duration": 14, "velocity": 54}, {"time": 1042, "pitch": 55, "duration": 7, "velocity": 82}, {"time": 1045, "pitch": 62, "duration": 2, "velocity": 80}, {"time": 1048, "pitch": 62, "duration": 4, "velocity": 80}, {"time": 1048, "pitch": 67, "duration": 4, "velocity": 99}, {"time": 1048, "pitch": 71, "duration": 4, "velocity": 99}, {"time": 1051, "pitch": 55, "duration": 2, "velocity": 75}, {"time": 1054, "pitch": 62, "duration": 1, "velocity": 54}, {"time": 1057, "pitch": 40, "duration": 2, "velocity": 76}, {"time": 1057, "pitch": 64, "duration": 8, "velocity": 80}, {"time": 1057, "pitch": 67, "duration": 10, "velocity": 85}, {"time": 1057, "pitch": 71, "duration": 9, "velocity": 85}, {"time": 1057, "pitch": 74, "duration": 12, "velocity": 66}, {"time": 1063, "pitch": 52, "duration": 13, "velocity": 59}, {"time": 1066, "pitch": 59, "duration": 7, "velocity": 60}, {"time": 1069, "pitch": 64, "duration": 5, "velocity": 63}, {"time": 1072, "pitch": 66, "duration": 4, "velocity": 72}, {"time": 1072, "pitch": 67, "duration": 4, "velocity": 75}, {"time": 1072, "pitch": 71, "duration": 5, "velocity": 70}, {"time": 1075, "pitch": 59, "duration": 1, "velocity": 61}, {"time": 1078, "pitch": 69, "duration": 2, "velocity": 73}, {"time": 1081, "pitch": 45, "duration": 5, "velocity": 64}, {"time": 1081, "pitch": 64, "duration": 5, "velocity": 69}, {"time": 1081, "pitch": 69, "duration": 5, "velocity": 72}, {"time": 1081, "pitch": 73, "duration": 6, "velocity": 73}, {"time": 1084, "pitch": 52, "duration": 3, "velocity": 61}, {"time": 1087, "pitch": 57, "duration": 4, "velocity": 49}, {"time": 1090, "pitch": 59, "duration": 11, "velocity": 53}, {"time": 1090, "pitch": 64, "duration": 4, "velocity": 80}, {"time": 1090, "pitch": 69, "duration": 4, "velocity": 80}, {"time": 1090, "pitch": 76, "duration": 4, "velocity": 75}, {"time": 1093, "pitch": 61, "duration": 4, "velocity": 66}, {"time": 1096, "pitch": 66, "duration": 4, "velocity": 80}, {"time": 1096, "pitch": 69, "duration": 4, "velocity": 85}, {"time": 1096, "pitch": 74, "duration": 4, "velocity": 72}, {"time": 1099, "pitch": 61, "duration": 1, "velocity": 73}, {"time": 1102, "pitch": 71, "duration": 2, "velocity": 67}, {"time": 1105, "pitch": 54, "duration": 16, "velocity": 63}, {"time": 1105, "pitch": 64, "duration": 4, "velocity": 69}, {"time": 1105, "pitch": 69, "duration": 4, "velocity": 76}, {"time": 1105, "pitch": 73, "duration": 4, "velocity": 72}, {"time": 1108, "pitch": 61, "duration": 7, "velocity": 56}, {"time": 1111, "pitch": 66, "duration": 3, "velocity": 78}, {"time": 1114, "pitch": 66, "duration": 1, "velocity": 52}, {"time": 1114, "pitch": 71, "duration": 4, "velocity": 72}, {"time": 1117, "pitch": 61, "duration": 4, "velocity": 58}, {"time": 1120, "pitch": 66, "duration": 2, "velocity": 76}, {"time": 1123, "pitch": 69, "duration": 2, "velocity": 67}, {"time": 1126, "pitch": 64, "duration": 12, "velocity": 93}, {"time": 1126, "pitch": 69, "duration": 11, "velocity": 73}, {"time": 1126, "pitch": 76, "duration": 11, "velocity": 72}, {"time": 1129, "pitch": 42, "duration": 2, "velocity": 60}, {"time": 1132, "pitch": 54, "duration": 4, "velocity": 70}, {"time": 1135, "pitch": 57, "duration": 14, "velocity": 62}, {"time": 1138, "pitch": 59, "duration": 2, "velocity": 61}, {"time": 1141, "pitch": 64, "duration": 2, "velocity": 91}, {"time": 1144, "pitch": 71, "duration": 1, "velocity": 91}, {"time": 1147, "pitch": 74, "duration": 3, "velocity": 63}, {"time": 1150, "pitch": 76, "duration": 3, "velocity": 76}, {"time": 1153, "pitch": 47, "duration": 5, "velocity": 75}, {"time": 1153, "pitch": 78, "duration": 9, "velocity": 88}, {"time": 1153, "pitch": 81, "duration": 2, "velocity": 69}, {"time": 1156, "pitch": 54, "duration": 3, "velocity": 60}, {"time": 1159, "pitch": 59, "duration": 4, "velocity": 49}, {"time": 1162, "pitch": 61, "duration": 8, "velocity": 60}, {"time": 1162, "pitch": 73, "duration": 2, "velocity": 57}, {"time": 1162, "pitch": 76, "duration": 3, "velocity": 75}, {"time": 1165, "pitch": 62, "duration": 5, "velocity": 69}, {"time": 1165, "pitch": 74, "duration": 2, "velocity": 80}, {"time": 1165, "pitch": 78, "duration": 3, "velocity": 73}, {"time": 1168, "pitch": 64, "duration": 2, "velocity": 63}, {"time": 1171, "pitch": 74, "duration": 1, "velocity": 93}, {"time": 1171, "pitch": 81, "duration": 2, "velocity": 82}, {"time": 1177, "pitch": 47, "duration": 5, "velocity": 67}, {"time": 1177, "pitch": 74, "duration": 7, "velocity": 88}, {"time": 1177, "pitch": 78, "duration": 7, "velocity": 93}, {"time": 1180, "pitch": 54, "duration": 3, "velocity": 63}, {"time": 1183, "pitch": 59, "duration": 4, "velocity": 73}, {"time": 1186, "pitch": 61, "duration": 3, "velocity": 58}, {"time": 1186, "pitch": 73, "duration": 1, "velocity": 63}, {"time": 1186, "pitch": 76, "duration": 1, "velocity": 78}, {"time": 1189, "pitch": 62, "duration": 7, "velocity": 73}, {"time": 1189, "pitch": 73, "duration": 3, "velocity": 82}, {"time": 1189, "pitch": 76, "duration": 3, "velocity": 95}, {"time": 1192, "pitch": 74, "duration": 4, "velocity": 82}, {"time": 1192, "pitch": 78, "duration": 4, "velocity": 82}, {"time": 1195, "pitch": 64, "duration": 1, "velocity": 70}, {"time": 1198, "pitch": 73, "duration": 2, "velocity": 54}, {"time": 1198, "pitch": 76, "duration": 4, "velocity": 88}, {"time": 1201, "pitch": 43, "duration": 21, "velocity": 76}, {"time": 1201, "pitch": 71, "duration": 3, "velocity": 85}, {"time": 1201, "pitch": 74, "duration": 3, "velocity": 88}, {"time": 1204, "pitch": 50, "duration": 20, "velocity": 73}, {"time": 1207, "pitch": 55, "duration": 7, "velocity": 85}, {"time": 1210, "pitch": 59, "duration": 2, "velocity": 85}, {"time": 1213, "pitch": 59, "duration": 3, "velocity": 70}, {"time": 1213, "pitch": 62, "duration": 4, "velocity": 82}, {"time": 1216, "pitch": 55, "duration": 4, "velocity": 66}, {"time": 1219, "pitch": 59, "duration": 4, "velocity": 85}, {"time": 1222, "pitch": 62, "duration": 2, "velocity": 55}, {"time": 1225, "pitch": 43, "duration": 18, "velocity": 72}, {"time": 1225, "pitch": 59, "duration": 8, "velocity": 58}, {"time": 1225, "pitch": 62, "duration": 6, "velocity": 72}, {"time": 1225, "pitch": 67, "duration": 6, "velocity": 72}, {"time": 1228, "pitch": 50, "duration": 16, "velocity": 64}, {"time": 1231, "pitch": 55, "duration": 9, "velocity": 91}, {"time": 1234, "pitch": 59, "duration": 2, "velocity": 80}, {"time": 1237, "pitch": 62, "duration": 2, "velocity": 62}, {"time": 1240, "pitch": 66, "duration": 8, "velocity": 72}, {"time": 1243, "pitch": 55, "duration": 5, "velocity": 63}, {"time": 1249, "pitch": 52, "duration": 18, "velocity": 72}, {"time": 1249, "pitch": 62, "duration": 3, "velocity": 78}, {"time": 1249, "pitch": 67, "duration": 4, "velocity": 70}, {"time": 1252, "pitch": 59, "duration": 10, "velocity": 59}, {"time": 1255, "pitch": 64, "duration": 10, "velocity": 72}, {"time": 1258, "pitch": 66, "duration": 2, "velocity": 78}, {"time": 1261, "pitch": 67, "duration": 5, "velocity": 80}, {"time": 1264, "pitch": 59, "duration": 2, "velocity": 57}, {"time": 1267, "pitch": 71, "duration": 5, "velocity": 91}, {"time": 1273, "pitch": 45, "duration": 5, "velocity": 67}, {"time": 1273, "pitch": 64, "duration": 7, "velocity": 70}, {"time": 1273, "pitch": 69, "duration": 7, "velocity": 85}, {"time": 1273, "pitch": 76, "duration": 7, "velocity": 78}, {"time": 1276, "pitch": 52, "duration": 3, "velocity": 58}, {"time": 1279, "pitch": 57, "duration": 4, "velocity": 67}, {"time": 1282, "pitch": 59, "duration": 7, "velocity": 54}, {"time": 1282, "pitch": 66, "duration": 2, "velocity": 64}, {"time": 1282, "pitch": 69, "duration": 1, "velocity": 66}, {"time": 1282, "pitch": 74, "duration": 2, "velocity": 76}, {"time": 1285, "pitch": 61, "duration": 7, "velocity": 61}, {"time": 1285, "pitch": 66, "duration": 2, "velocity": 66}, {"time": 1285, "pitch": 69, "duration": 4, "velocity": 61}, {"time": 1285, "pitch": 74, "duration": 4, "velocity": 75}, {"time": 1291, "pitch": 59, "duration": 2, "velocity": 69}, {"time": 1291, "pitch": 64, "duration": 2, "velocity": 70}, {"time": 1291, "pitch": 73, "duration": 6, "velocity": 85}, {"time": 1294, "pitch": 64, "duration": 2, "velocity": 45}, {"time": 1297, "pitch": 54, "duration": 20, "velocity": 70}, {"time": 1297, "pitch": 69, "duration": 2, "velocity": 69}, {"time": 1297, "pitch": 76, "duration": 7, "velocity": 75}, {"time": 1300, "pitch": 61, "duration": 6, "velocity": 54}, {"time": 1303, "pitch": 66, "duration": 6, "velocity": 69}, {"time": 1306, "pitch": 69, "duration": 4, "velocity": 76}, {"time": 1306, "pitch": 73, "duration": 5, "velocity": 76}, {"time": 1309, "pitch": 61, "duration": 4, "velocity": 56}, {"time": 1312, "pitch": 64, "duration": 4, "velocity": 67}, {"time": 1312, "pitch": 71, "duration": 4, "velocity": 55}, {"time": 1315, "pitch": 61, "duration": 1, "velocity": 70}, {"time": 1318, "pitch": 64, "duration": 7, "velocity": 70}, {"time": 1318, "pitch": 69, "duration": 6, "velocity": 82}, {"time": 1321, "pitch": 42, "duration": 19, "velocity": 73}, {"time": 1324, "pitch": 49, "duration": 5, "velocity": 50}, {"time": 1327, "pitch": 54, "duration": 4, "velocity": 76}, {"time": 1330, "pitch": 66, "duration": 1, "velocity": 73}, {"time": 1330, "pitch": 78, "duration": 1, "velocity": 76}, {"time": 1333, "pitch": 49, "duration": 7, "velocity": 62}, {"time": 1333, "pitch": 66, "duration": 1, "velocity": 69}, {"time": 1333, "pitch": 78, "duration": 2, "velocity": 80}, {"time": 1336, "pitch": 69, "duration": 1, "velocity": 62}, {"time": 1336, "pitch": 81, "duration": 1, "velocity": 80}, {"time": 1339, "pitch": 54, "duration": 4, "velocity": 61}, {"time": 1339, "pitch": 69, "duration": 1, "velocity": 60}, {"time": 1339, "pitch": 81, "duration": 2, "velocity": 72}, {"time": 1342, "pitch": 71, "duration": 2, "velocity": 54}, {"time": 1342, "pitch": 83, "duration": 2, "velocity": 64}, {"time": 1345, "pitch": 47, "duration": 45, "velocity": 70}, {"time": 1345, "pitch": 71, "duration": 6, "velocity": 67}, {"time": 1345, "pitch": 83, "duration": 4, "velocity": 73}, {"time": 1348, "pitch": 54, "duration": 41, "velocity": 58}, {"time": 1351, "pitch": 59, "duration": 29, "velocity": 55}, {"time": 1354, "pitch": 62, "duration": 3, "velocity": 80}, {"time": 1357, "pitch": 64, "duration": 4, "velocity": 58}, {"time": 1360, "pitch": 66, "duration": 1, "velocity": 61}, {"time": 1363, "pitch": 71, "duration": 3, "velocity": 82}, {"time": 1366, "pitch": 73, "duration": 3, "velocity": 44}, {"time": 1369, "pitch": 74, "duration": 2, "velocity": 57}, {"time": 1372, "pitch": 78, "duration": 3, "velocity": 75}, {"time": 1375, "pitch": 59, "duration": 5, "velocity": 101}, {"time": 1375, "pitch": 83, "duration": 3, "velocity": 33}, {"time": 1378, "pitch": 85, "duration": 2, "velocity": 54}, {"time": 1381, "pitch": 62, "duration": 6, "velocity": 95}, {"time": 1381, "pitch": 86, "duration": 3, "velocity": 52}, {"time": 1384, "pitch": 85, "duration": 3, "velocity": 57}, {"time": 1387, "pitch": 59, "duration": 1, "velocity": 101}, {"time": 1387, "pitch": 83, "duration": 2, "velocity": 49}, {"time": 1390, "pitch": 78, "duration": 2, "velocity": 57}, {"time": 1393, "pitch": 55, "duration": 41, "velocity": 62}, {"time": 1393, "pitch": 62, "duration": 6, "velocity": 61}, {"time": 1393, "pitch": 67, "duration": 6, "velocity": 61}, {"time": 1393, "pitch": 71, "duration": 6, "velocity": 58}, {"time": 1393, "pitch": 71, "duration": 6, "velocity": 97}, {"time": 1399, "pitch": 59, "duration": 8, "velocity": 36}, {"time": 1405, "pitch": 62, "duration": 4, "velocity": 44}, {"time": 1405, "pitch": 67, "duration": 4, "velocity": 45}, {"time": 1405, "pitch": 71, "duration": 5, "velocity": 44}, {"time": 1411, "pitch": 59, "duration": 23, "velocity": 39}, {"time": 1417, "pitch": 71, "duration": 8, "velocity": 40}, {"time": 1417, "pitch": 74, "duration": 7, "velocity": 47}, {"time": 1417, "pitch": 79, "duration": 8, "velocity": 46}, {"time": 1429, "pitch": 69, "duration": 6, "velocity": 101}, {"time": 1429, "pitch": 74, "duration": 5, "velocity": 49}, {"time": 1429, "pitch": 78, "duration": 5, "velocity": 55}, {"time": 1435, "pitch": 71, "duration": 4, "velocity": 93}, {"time": 1435, "pitch": 73, "duration": 6, "velocity": 44}, {"time": 1435, "pitch": 76, "duration": 7, "velocity": 53}, {"time": 1438, "pitch": 69, "duration": 3, "velocity": 72}, {"time": 1441, "pitch": 47, "duration": 41, "velocity": 32}, {"time": 1441, "pitch": 66, "duration": 13, "velocity": 93}, {"time": 1441, "pitch": 74, "duration": 5, "velocity": 57}, {"time": 1441, "pitch": 78, "duration": 5, "velocity": 58}, {"time": 1447, "pitch": 54, "duration": 7, "velocity": 45}, {"time": 1453, "pitch": 59, "duration": 15, "velocity": 39}, {"time": 1453, "pitch": 66, "duration": 1, "velocity": 49}, {"time": 1453, "pitch": 74, "duration": 5, "velocity": 49}, {"time": 1459, "pitch": 54, "duration": 24, "velocity": 37}, {"time": 1465, "pitch": 64, "duration": 9, "velocity": 41}, {"time": 1465, "pitch": 73, "duration": 8, "velocity": 47}, {"time": 1474, "pitch": 59, "duration": 8, "velocity": 36}, {"time": 1477, "pitch": 62, "duration": 4, "velocity": 61}, {"time": 1477, "pitch": 71, "duration": 4, "velocity": 67}, {"time": 1477, "pitch": 71, "duration": 4, "velocity": 99}, {"time": 1483, "pitch": 69, "duration": 2, "velocity": 64}, {"time": 1483, "pitch": 74, "duration": 6, "velocity": 99}, {"time": 1489, "pitch": 43, "duration": 43, "velocity": 56}, {"time": 1489, "pitch": 62, "duration": 6, "velocity": 45}, {"time": 1489, "pitch": 67, "duration": 6, "velocity": 45}, {"time": 1489, "pitch": 71, "duration": 5, "velocity": 44}, {"time": 1489, "pitch": 83, "duration": 24, "velocity": 91}, {"time": 1495, "pitch": 55, "duration": 41, "velocity": 38}, {"time": 1501, "pitch": 62, "duration": 3, "velocity": 44}, {"time": 1501, "pitch": 67, "duration": 3, "velocity": 45}, {"time": 1501, "pitch": 71, "duration": 4, "velocity": 45}, {"time": 1513, "pitch": 74, "duration": 3, "velocity": 48}, {"time": 1513, "pitch": 78, "duration": 3, "velocity": 50}, {"time": 1516, "pitch": 73, "duration": 2, "velocity": 39}, {"time": 1516, "pitch": 76, "duration": 2, "velocity": 56}, {"time": 1519, "pitch": 74, "duration": 1, "velocity": 39}, {"time": 1519, "pitch": 78, "duration": 2, "velocity": 56}, {"time": 1522, "pitch": 76, "duration": 2, "velocity": 40}, {"time": 1525, "pitch": 74, "duration": 6, "velocity": 48}, {"time": 1525, "pitch": 78, "duration": 6, "velocity": 52}, {"time": 1525, "pitch": 83, "duration": 12, "velocity": 101}, {"time": 1525, "pitch": 86, "duration": 12, "velocity": 82}, {"time": 1537, "pitch": 45, "duration": 24, "velocity": 62}, {"time": 1537, "pitch": 69, "duration": 5, "velocity": 47}, {"time": 1537, "pitch": 73, "duration": 5, "velocity": 49}, {"time": 1537, "pitch": 76, "duration": 5, "velocity": 51}, {"time": 1537, "pitch": 76, "duration": 5, "velocity": 101}, {"time": 1543, "pitch": 57, "duration": 11, "velocity": 37}, {"time": 1546, "pitch": 69, "duration": 5, "velocity": 48}, {"time": 1549, "pitch": 61, "duration": 4, "velocity": 52}, {"time": 1549, "pitch": 64, "duration": 4, "velocity": 52}, {"time": 1549, "pitch": 69, "duration": 2, "velocity": 47}, {"time": 1555, "pitch": 52, "duration": 6, "velocity": 29}, {"time": 1558, "pitch": 64, "duration": 3, "velocity": 30}, {"time": 1561, "pitch": 57, "duration": 7, "velocity": 45}, {"time": 1561, "pitch": 69, "duration": 2, "velocity": 62}, {"time": 1564, "pitch": 64, "duration": 3, "velocity": 49}, {"time": 1564, "pitch": 69, "duration": 1, "velocity": 63}, {"time": 1567, "pitch": 59, "duration": 11, "velocity": 46}, {"time": 1567, "pitch": 73, "duration": 2, "velocity": 63}, {"time": 1570, "pitch": 64, "duration": 4, "velocity": 54}, {"time": 1573, "pitch": 61, "duration": 4, "velocity": 61}, {"time": 1573, "pitch": 69, "duration": 1, "velocity": 56}, {"time": 1573, "pitch": 69, "duration": 1, "velocity": 61}, {"time": 1573, "pitch": 74, "duration": 3, "velocity": 70}, {"time": 1573, "pitch": 76, "duration": 10, "velocity": 103}, {"time": 1576, "pitch": 73, "duration": 2, "velocity": 64}, {"time": 1579, "pitch": 69, "duration": 3, "velocity": 56}, {"time": 1585, "pitch": 59, "duration": 20, "velocity": 61}, {"time": 1585, "pitch": 78, "duration": 3, "velocity": 69}, {"time": 1585, "pitch": 78, "duration": 3, "velocity": 113}, {"time": 1588, "pitch": 73, "duration": 3, "velocity": 53}, {"time": 1591, "pitch": 66, "duration": 9, "velocity": 47}, {"time": 1591, "pitch": 74, "duration": 3, "velocity": 67}, {"time": 1594, "pitch": 73, "duration": 3, "velocity": 51}, {"time": 1597, "pitch": 69, "duration": 7, "velocity": 51}, {"time": 1597, "pitch": 78, "duration": 3, "velocity": 66}, {"time": 1600, "pitch": 73, "duration": 3, "velocity": 51}, {"time": 1603, "pitch": 66, "duration": 6, "velocity": 60}, {"time": 1603, "pitch": 74, "duration": 3, "velocity": 66}, {"time": 1606, "pitch": 73, "duration": 3, "velocity": 51}, {"time": 1609, "pitch": 59, "duration": 19, "velocity": 48}, {"time": 1609, "pitch": 78, "duration": 2, "velocity": 63}, {"time": 1612, "pitch": 66, "duration": 10, "velocity": 56}, {"time": 1612, "pitch": 73, "duration": 3, "velocity": 47}, {"time": 1615, "pitch": 74, "duration": 3, "velocity": 60}, {"time": 1618, "pitch": 73, "duration": 4, "velocity": 57}, {"time": 1621, "pitch": 69, "duration": 5, "velocity": 50}, {"time": 1621, "pitch": 78, "duration": 3, "velocity": 61}, {"time": 1621, "pitch": 83, "duration": 12, "velocity": 109}, {"time": 1624, "pitch": 76, "duration": 3, "velocity": 54}, {"time": 1627, "pitch": 66, "duration": 1, "velocity": 55}, {"time": 1627, "pitch": 74, "duration": 3, "velocity": 58}, {"time": 1630, "pitch": 73, "duration": 4, "velocity": 54}, {"time": 1633, "pitch": 52, "duration": 22, "velocity": 63}, {"time": 1633, "pitch": 76, "duration": 4, "velocity": 72}, {"time": 1633, "pitch": 76, "duration": 4, "velocity": 99}, {"time": 1636, "pitch": 68, "duration": 3, "velocity": 57}, {"time": 1639, "pitch": 71, "duration": 3, "velocity": 70}, {"time": 1642, "pitch": 68, "duration": 4, "velocity": 60}, {"time": 1645, "pitch": 64, "duration": 12, "velocity": 55}, {"time": 1645, "pitch": 76, "duration": 4, "velocity": 60}, {"time": 1648, "pitch": 68, "duration": 4, "velocity": 52}, {"time": 1651, "pitch": 71, "duration": 3, "velocity": 66}, {"time": 1654, "pitch": 68, "duration": 4, "velocity": 58}, {"time": 1657, "pitch": 52, "duration": 17, "velocity": 54}, {"time": 1657, "pitch": 76, "duration": 3, "velocity": 67}, {"time": 1660, "pitch": 68, "duration": 3, "velocity": 55}, {"time": 1663, "pitch": 71, "duration": 2, "velocity": 57}, {"time": 1666, "pitch": 68, "duration": 4, "velocity": 59}, {"time": 1669, "pitch": 64, "duration": 5, "velocity": 44}, {"time": 1669, "pitch": 76, "duration": 3, "velocity": 70}, {"time": 1669, "pitch": 83, "duration": 13, "velocity": 101}, {"time": 1672, "pitch": 68, "duration": 3, "velocity": 56}, {"time": 1675, "pitch": 71, "duration": 3, "velocity": 60}, {"time": 1678, "pitch": 68, "duration": 3, "velocity": 56}, {"time": 1681, "pitch": 55, "duration": 19, "velocity": 61}, {"time": 1681, "pitch": 74, "duration": 8, "velocity": 103}, {"time": 1681, "pitch": 76, "duration": 4, "velocity": 63}, {"time": 1684, "pitch": 71, "duration": 4, "velocity": 53}, {"time": 1687, "pitch": 62, "duration": 13, "velocity": 48}, {"time": 1687, "pitch": 74, "duration": 2, "velocity": 66}, {"time": 1690, "pitch": 71, "duration": 4, "velocity": 58}, {"time": 1693, "pitch": 67, "duration": 4, "velocity": 49}, {"time": 1693, "pitch": 78, "duration": 4, "velocity": 75}, {"time": 1696, "pitch": 71, "duration": 3, "velocity": 54}, {"time": 1699, "pitch": 74, "duration": 3, "velocity": 61}, {"time": 1699, "pitch": 76, "duration": 3, "velocity": 103}, {"time": 1702, "pitch": 71, "duration": 3, "velocity": 53}, {"time": 1702, "pitch": 78, "duration": 3, "velocity": 99}, {"time": 1705, "pitch": 54, "duration": 17, "velocity": 67}, {"time": 1705, "pitch": 76, "duration": 3, "velocity": 60}, {"time": 1705, "pitch": 81, "duration": 23, "velocity": 95}, {"time": 1708, "pitch": 69, "duration": 3, "velocity": 55}, {"time": 1711, "pitch": 73, "duration": 2, "velocity": 63}, {"time": 1714, "pitch": 66, "duration": 3, "velocity": 56}, {"time": 1717, "pitch": 61, "duration": 5, "velocity": 61}, {"time": 1717, "pitch": 76, "duration": 5, "velocity": 62}, {"time": 1720, "pitch": 64, "duration": 3, "velocity": 53}, {"time": 1723, "pitch": 69, "duration": 4, "velocity": 75}, {"time": 1726, "pitch": 73, "duration": 2, "velocity": 38}, {"time": 1729, "pitch": 52, "duration": 16, "velocity": 61}, {"time": 1729, "pitch": 59, "duration": 17, "velocity": 67}, {"time": 1729, "pitch": 74, "duration": 4, "velocity": 73}, {"time": 1729, "pitch": 76, "duration": 20, "velocity": 106}, {"time": 1732, "pitch": 64, "duration": 4, "velocity": 57}, {"time": 1735, "pitch": 71, "duration": 3, "velocity": 62}, {"time": 1738, "pitch": 64, "duration": 4, "velocity": 57}, {"time": 1741, "pitch": 74, "duration": 3, "velocity": 67}, {"time": 1741, "pitch": 78, "duration": 12, "velocity": 106}, {"time": 1744, "pitch": 64, "duration": 2, "velocity": 48}, {"time": 1747, "pitch": 71, "duration": 2, "velocity": 56}, {"time": 1750, "pitch": 64, "duration": 2, "velocity": 47}, {"time": 1753, "pitch": 59, "duration": 19, "velocity": 60}, {"time": 1753, "pitch": 71, "duration": 9, "velocity": 101}, {"time": 1753, "pitch": 73, "duration": 3, "velocity": 60}, {"time": 1756, "pitch": 66, "duration": 4, "velocity": 48}, {"time": 1759, "pitch": 71, "duration": 3, "velocity": 52}, {"time": 1762, "pitch": 73, "duration": 2, "velocity": 66}, {"time": 1765, "pitch": 69, "duration": 13, "velocity": 101}, {"time": 1765, "pitch": 74, "duration": 4, "velocity": 82}, {"time": 1768, "pitch": 78, "duration": 2, "velocity": 53}, {"time": 1771, "pitch": 81, "duration": 1, "velocity": 42}, {"time": 1772, "pitch": 83, "duration": 2, "velocity": 42}, {"time": 1774, "pitch": 85, "duration": 3, "velocity": 51}, {"time": 1777, "pitch": 59, "duration": 41, "velocity": 67}, {"time": 1777, "pitch": 71, "duration": 13, "velocity": 106}, {"time": 1777, "pitch": 86, "duration": 4, "velocity": 64}, {"time": 1780, "pitch": 66, "duration": 37, "velocity": 58}, {"time": 1783, "pitch": 71, "duration": 7, "velocity": 61}, {"time": 1786, "pitch": 73, "duration": 3, "velocity": 62}, {"time": 1789, "pitch": 74, "duration": 4, "velocity": 58}, {"time": 1792, "pitch": 71, "duration": 5, "velocity": 53}, {"time": 1795, "pitch": 76, "duration": 3, "velocity": 54}, {"time": 1798, "pitch": 78, "duration": 2, "velocity": 46}, {"time": 1801, "pitch": 71, "duration": 16, "velocity": 48}, {"time": 1801, "pitch": 74, "duration": 16, "velocity": 51}, {"time": 1819, "pitch": 73, "duration": 3, "velocity": 49}, {"time": 1819, "pitch": 76, "duration": 3, "velocity": 56}, {"time": 1822, "pitch": 74, "duration": 4, "velocity": 48}, {"time": 1822, "pitch": 78, "duration": 4, "velocity": 53}, {"time": 1825, "pitch": 47, "duration": 19, "velocity": 63}, {"time": 1825, "pitch": 59, "duration": 18, "velocity": 53}, {"time": 1825, "pitch": 62, "duration": 18, "velocity": 67}, {"time": 1825, "pitch": 66, "duration": 18, "velocity": 72}, {"time": 1825, "pitch": 71, "duration": 19, "velocity": 61}, {"time": 1849, "pitch": 42, "duration": 18, "velocity": 63}, {"time": 1849, "pitch": 54, "duration": 18, "velocity": 70}, {"time": 1849, "pitch": 64, "duration": 9, "velocity": 59}, {"time": 1849, "pitch": 69, "duration": 15, "velocity": 61}, {"time": 1849, "pitch": 73, "duration": 15, "velocity": 66}, {"time": 1861, "pitch": 66, "duration": 4, "velocity": 44}, {"time": 1873, "pitch": 43, "duration": 6, "velocity": 73}, {"time": 1873, "pitch": 55, "duration": 7, "velocity": 76}, {"time": 1873, "pitch": 59, "duration": 6, "velocity": 66}, {"time": 1873, "pitch": 62, "duration": 6, "velocity": 73}, {"time": 1873, "pitch": 67, "duration": 5, "velocity": 75}, {"time": 1885, "pitch": 45, "duration": 6, "velocity": 70}, {"time": 1885, "pitch": 57, "duration": 9, "velocity": 66}, {"time": 1885, "pitch": 61, "duration": 9, "velocity": 63}, {"time": 1885, "pitch": 64, "duration": 8, "velocity": 72}, {"time": 1885, "pitch": 69, "duration": 8, "velocity": 64}, {"time": 1897, "pitch": 47, "duration": 21, "velocity": 66}, {"time": 1897, "pitch": 62, "duration": 7, "velocity": 69}, {"time": 1897, "pitch": 66, "duration": 8, "velocity": 63}, {"time": 1903, "pitch": 54, "duration": 19, "velocity": 41}, {"time": 1909, "pitch": 59, "duration": 11, "velocity": 47}, {"time": 1909, "pitch": 61, "duration": 6, "velocity": 56}, {"time": 1915, "pitch": 62, "duration": 4, "velocity": 59}, {"time": 1921, "pitch": 43, "duration": 17, "velocity": 67}, {"time": 1921, "pitch": 55, "duration": 18, "velocity": 66}, {"time": 1921, "pitch": 59, "duration": 4, "velocity": 66}, {"time": 1921, "pitch": 62, "duration": 5, "velocity": 75}, {"time": 1921, "pitch": 67, "duration": 5, "velocity": 72}, {"time": 1927, "pitch": 62, "duration": 6, "velocity": 45}, {"time": 1933, "pitch": 67, "duration": 6, "velocity": 53}, {"time": 1939, "pitch": 71, "duration": 5, "velocity": 63}, {"time": 1945, "pitch": 69, "duration": 17, "velocity": 73}, {"time": 1945, "pitch": 64, "duration": 15, "velocity": 63}, {"time": 1945, "pitch": 73, "duration": 15, "velocity": 70}, {"time": 1945, "pitch": 45, "duration": 6, "velocity": 58}, {"time": 1950, "pitch": 57, "duration": 7, "velocity": 37}, {"time": 1956, "pitch": 59, "duration": 8, "velocity": 46}, {"time": 1963, "pitch": 61, "duration": 1, "velocity": 55}, {"time": 1969, "pitch": 50, "duration": 41, "velocity": 72}, {"time": 1969, "pitch": 66, "duration": 9, "velocity": 67}, {"time": 1969, "pitch": 69, "duration": 10, "velocity": 72}, {"time": 1969, "pitch": 74, "duration": 12, "velocity": 66}, {"time": 1975, "pitch": 57, "duration": 36, "velocity": 45}, {"time": 1981, "pitch": 62, "duration": 30, "velocity": 61}, {"time": 1987, "pitch": 66, "duration": 11, "velocity": 72}, {"time": 1993, "pitch": 74, "duration": 5, "velocity": 62}, {"time": 2005, "pitch": 78, "duration": 4, "velocity": 73}, {"time": 2011, "pitch": 76, "duration": 6, "velocity": 70}, {"time": 2017, "pitch": 47, "duration": 16, "velocity": 66}, {"time": 2017, "pitch": 66, "duration": 5, "velocity": 53}, {"time": 2017, "pitch": 67, "duration": 1, "velocity": 55}, {"time": 2023, "pitch": 54, "duration": 11, "velocity": 57}, {"time": 2023, "pitch": 62, "duration": 6, "velocity": 76}, {"time": 2029, "pitch": 59, "duration": 11, "velocity": 47}, {"time": 2029, "pitch": 64, "duration": 7, "velocity": 63}, {"time": 2035, "pitch": 66, "duration": 6, "velocity": 67}, {"time": 2041, "pitch": 52, "duration": 18, "velocity": 61}, {"time": 2041, "pitch": 67, "duration": 5, "velocity": 66}, {"time": 2047, "pitch": 59, "duration": 12, "velocity": 39}, {"time": 2053, "pitch": 64, "duration": 7, "velocity": 31}, {"time": 2053, "pitch": 71, "duration": 7, "velocity": 56}, {"time": 2059, "pitch": 78, "duration": 6, "velocity": 70}, {"time": 2065, "pitch": 50, "duration": 19, "velocity": 64}, {"time": 2065, "pitch": 69, "duration": 9, "velocity": 57}, {"time": 2065, "pitch": 74, "duration": 5, "velocity": 66}, {"time": 2065, "pitch": 78, "duration": 6, "velocity": 64}, {"time": 2071, "pitch": 57, "duration": 13, "velocity": 38}, {"time": 2071, "pitch": 76, "duration": 3, "velocity": 61}, {"time": 2077, "pitch": 62, "duration": 4, "velocity": 42}, {"time": 2077, "pitch": 69, "duration": 2, "velocity": 60}, {"time": 2077, "pitch": 74, "duration": 1, "velocity": 63}, {"time": 2083, "pitch": 74, "duration": 2, "velocity": 60}, {"time": 2089, "pitch": 47, "duration": 19, "velocity": 69}, {"time": 2089, "pitch": 66, "duration": 7, "velocity": 64}, {"time": 2089, "pitch": 74, "duration": 6, "velocity": 52}, {"time": 2095, "pitch": 54, "duration": 13, "velocity": 31}, {"time": 2101, "pitch": 59, "duration": 7, "velocity": 34}, {"time": 2101, "pitch": 66, "duration": 4, "velocity": 58}, {"time": 2101, "pitch": 73, "duration": 3, "velocity": 58}, {"time": 2107, "pitch": 69, "duration": 3, "velocity": 59}, {"time": 2113, "pitch": 55, "duration": 18, "velocity": 58}, {"time": 2113, "pitch": 62, "duration": 5, "velocity": 52}, {"time": 2113, "pitch": 67, "duration": 5, "velocity": 52}, {"time": 2113, "pitch": 71, "duration": 5, "velocity": 60}, {"time": 2119, "pitch": 59, "duration": 12, "velocity": 47}, {"time": 2122, "pitch": 62, "duration": 3, "velocity": 56}, {"time": 2125, "pitch": 67, "duration": 6, "velocity": 48}, {"time": 2131, "pitch": 71, "duration": 2, "velocity": 67}, {"time": 2137, "pitch": 45, "duration": 17, "velocity": 67}, {"time": 2137, "pitch": 64, "duration": 7, "velocity": 63}, {"time": 2137, "pitch": 69, "duration": 7, "velocity": 69}, {"time": 2137, "pitch": 73, "duration": 7, "velocity": 64}, {"time": 2143, "pitch": 52, "duration": 10, "velocity": 44}, {"time": 2149, "pitch": 57, "duration": 5, "velocity": 45}, {"time": 2149, "pitch": 64, "duration": 5, "velocity": 57}, {"time": 2149, "pitch": 71, "duration": 7, "velocity": 57}, {"time": 2155, "pitch": 73, "duration": 2, "velocity": 67}, {"time": 2161, "pitch": 55, "duration": 6, "velocity": 67}, {"time": 2161, "pitch": 62, "duration": 6, "velocity": 61}, {"time": 2161, "pitch": 67, "duration": 6, "velocity": 67}, {"time": 2161, "pitch": 71, "duration": 6, "velocity": 70}, {"time": 2167, "pitch": 73, "duration": 6, "velocity": 73}, {"time": 2173, "pitch": 45, "duration": 8, "velocity": 51}, {"time": 2173, "pitch": 57, "duration": 10, "velocity": 46}, {"time": 2173, "pitch": 64, "duration": 7, "velocity": 58}, {"time": 2173, "pitch": 69, "duration": 6, "velocity": 59}, {"time": 2173, "pitch": 73, "duration": 1, "velocity": 67}, {"time": 2185, "pitch": 47, "duration": 10, "velocity": 48}, {"time": 2185, "pitch": 66, "duration": 1, "velocity": 48}, {"time": 2185, "pitch": 71, "duration": 14, "velocity": 67}, {"time": 2191, "pitch": 54, "duration": 5, "velocity": 46}, {"time": 2191, "pitch": 71, "duration": 8, "velocity": 70}, {"time": 2197, "pitch": 59, "duration": 7, "velocity": 44}, {"time": 2197, "pitch": 74, "duration": 5, "velocity": 64}, {"time": 2203, "pitch": 61, "duration": 6, "velocity": 60}, {"time": 2203, "pitch": 76, "duration": 6, "velocity": 69}, {"time": 2209, "pitch": 47, "duration": 18, "velocity": 70}, {"time": 2209, "pitch": 74, "duration": 4, "velocity": 63}, {"time": 2209, "pitch": 76, "duration": 1, "velocity": 69}, {"time": 2209, "pitch": 78, "duration": 4, "velocity": 91}, {"time": 2215, "pitch": 54, "duration": 6, "velocity": 42}, {"time": 2218, "pitch": 59, "duration": 8, "velocity": 45}, {"time": 2221, "pitch": 62, "duration": 4, "velocity": 85}, {"time": 2221, "pitch": 66, "duration": 4, "velocity": 76}, {"time": 2224, "pitch": 54, "duration": 7, "velocity": 44}, {"time": 2227, "pitch": 61, "duration": 2, "velocity": 67}, {"time": 2227, "pitch": 64, "duration": 2, "velocity": 76}, {"time": 2230, "pitch": 62, "duration": 1, "velocity": 88}, {"time": 2230, "pitch": 66, "duration": 2, "velocity": 93}, {"time": 2233, "pitch": 47, "duration": 5, "velocity": 67}, {"time": 2236, "pitch": 54, "duration": 3, "velocity": 46}, {"time": 2236, "pitch": 66, "duration": 1, "velocity": 73}, {"time": 2236, "pitch": 74, "duration": 1, "velocity": 73}, {"time": 2239, "pitch": 59, "duration": 4, "velocity": 55}, {"time": 2239, "pitch": 66, "duration": 1, "velocity": 64}, {"time": 2239, "pitch": 74, "duration": 1, "velocity": 67}, {"time": 2242, "pitch": 61, "duration": 5, "velocity": 63}, {"time": 2242, "pitch": 64, "duration": 1, "velocity": 69}, {"time": 2242, "pitch": 73, "duration": 1, "velocity": 66}, {"time": 2245, "pitch": 64, "duration": 1, "velocity": 78}, {"time": 2245, "pitch": 73, "duration": 1, "velocity": 66}, {"time": 2248, "pitch": 62, "duration": 1, "velocity": 72}, {"time": 2248, "pitch": 71, "duration": 1, "velocity": 63}, {"time": 2251, "pitch": 62, "duration": 2, "velocity": 80}, {"time": 2251, "pitch": 71, "duration": 2, "velocity": 67}, {"time": 2254, "pitch": 69, "duration": 2, "velocity": 67}, {"time": 2257, "pitch": 43, "duration": 6, "velocity": 72}, {"time": 2257, "pitch": 62, "duration": 12, "velocity": 82}, {"time": 2257, "pitch": 67, "duration": 10, "velocity": 85}, {"time": 2257, "pitch": 71, "duration": 10, "velocity": 75}, {"time": 2260, "pitch": 50, "duration": 3, "velocity": 55}, {"time": 2263, "pitch": 55, "duration": 4, "velocity": 49}, {"time": 2266, "pitch": 57, "duration": 6, "velocity": 59}, {"time": 2269, "pitch": 59, "duration": 3, "velocity": 58}, {"time": 2272, "pitch": 62, "duration": 2, "velocity": 61}, {"time": 2275, "pitch": 66, "duration": 2, "velocity": 70}, {"time": 2278, "pitch": 69, "duration": 2, "velocity": 64}, {"time": 2281, "pitch": 62, "duration": 9, "velocity": 70}, {"time": 2281, "pitch": 67, "duration": 9, "velocity": 64}, {"time": 2281, "pitch": 71, "duration": 6, "velocity": 54}, {"time": 2284, "pitch": 43, "duration": 18, "velocity": 64}, {"time": 2287, "pitch": 50, "duration": 14, "velocity": 54}, {"time": 2290, "pitch": 55, "duration": 7, "velocity": 82}, {"time": 2293, "pitch": 62, "duration": 2, "velocity": 80}, {"time": 2296, "pitch": 62, "duration": 4, "velocity": 80}, {"time": 2296, "pitch": 67, "duration": 4, "velocity": 99}, {"time": 2296, "pitch": 71, "duration": 4, "velocity": 99}, {"time": 2299, "pitch": 55, "duration": 2, "velocity": 75}, {"time": 2302, "pitch": 62, "duration": 1, "velocity": 54}, {"time": 2305, "pitch": 40, "duration": 2, "velocity": 76}, {"time": 2305, "pitch": 64, "duration": 8, "velocity": 80}, {"time": 2305, "pitch": 67, "duration": 10, "velocity": 85}, {"time": 2305, "pitch": 71, "duration": 9, "velocity": 85}, {"time": 2305, "pitch": 74, "duration": 12, "velocity": 66}, {"time": 2311, "pitch": 52, "duration": 13, "velocity": 59}, {"time": 2314, "pitch": 59, "duration": 7, "velocity": 60}, {"time": 2317, "pitch": 64, "duration": 5, "velocity": 63}, {"time": 2320, "pitch": 67, "duration": 4, "velocity": 75}, {"time": 2320, "pitch": 71, "duration": 5, "velocity": 70}, {"time": 2323, "pitch": 59, "duration": 1, "velocity": 61}, {"time": 2326, "pitch": 69, "duration": 2, "velocity": 73}, {"time": 2329, "pitch": 45, "duration": 5, "velocity": 64}, {"time": 2329, "pitch": 64, "duration": 5, "velocity": 69}, {"time": 2329, "pitch": 69, "duration": 5, "velocity": 72}, {"time": 2329, "pitch": 73, "duration": 6, "velocity": 73}, {"time": 2332, "pitch": 52, "duration": 3, "velocity": 61}, {"time": 2335, "pitch": 57, "duration": 4, "velocity": 49}, {"time": 2338, "pitch": 59, "duration": 11, "velocity": 53}, {"time": 2338, "pitch": 64, "duration": 4, "velocity": 80}, {"time": 2338, "pitch": 69, "duration": 4, "velocity": 80}, {"time": 2338, "pitch": 76, "duration": 4, "velocity": 75}, {"time": 2341, "pitch": 61, "duration": 4, "velocity": 66}, {"time": 2344, "pitch": 66, "duration": 4, "velocity": 80}, {"time": 2344, "pitch": 69, "duration": 4, "velocity": 85}, {"time": 2344, "pitch": 74, "duration": 4, "velocity": 72}, {"time": 2347, "pitch": 61, "duration": 1, "velocity": 73}, {"time": 2350, "pitch": 71, "duration": 2, "velocity": 67}, {"time": 2353, "pitch": 54, "duration": 16, "velocity": 63}, {"time": 2353, "pitch": 64, "duration": 4, "velocity": 69}, {"time": 2353, "pitch": 69, "duration": 4, "velocity": 76}, {"time": 2353, "pitch": 73, "duration": 4, "velocity": 72}, {"time": 2356, "pitch": 61, "duration": 7, "velocity": 56}, {"time": 2359, "pitch": 66, "duration": 3, "velocity": 78}, {"time": 2362, "pitch": 66, "duration": 1, "velocity": 52}, {"time": 2362, "pitch": 71, "duration": 4, "velocity": 72}, {"time": 2365, "pitch": 61, "duration": 4, "velocity": 58}, {"time": 2368, "pitch": 66, "duration": 2, "velocity": 76}, {"time": 2371, "pitch": 69, "duration": 2, "velocity": 67}, {"time": 2374, "pitch": 64, "duration": 12, "velocity": 93}, {"time": 2374, "pitch": 69, "duration": 11, "velocity": 73}, {"time": 2374, "pitch": 76, "duration": 11, "velocity": 72}, {"time": 2377, "pitch": 42, "duration": 2, "velocity": 60}, {"time": 2380, "pitch": 54, "duration": 4, "velocity": 70}, {"time": 2383, "pitch": 57, "duration": 14, "velocity": 62}, {"time": 2386, "pitch": 61, "duration": 10, "velocity": 43}, {"time": 2389, "pitch": 64, "duration": 2, "velocity": 91}, {"time": 2390, "pitch": 69, "duration": 2, "velocity": 66}, {"time": 2392, "pitch": 71, "duration": 1, "velocity": 91}, {"time": 2393, "pitch": 74, "duration": 3, "velocity": 63}, {"time": 2396, "pitch": 76, "duration": 2, "velocity": 91}, {"time": 2398, "pitch": 78, "duration": 3, "velocity": 76}, {"time": 2399, "pitch": 81, "duration": 2, "velocity": 70}, {"time": 2401, "pitch": 47, "duration": 5, "velocity": 75}, {"time": 2401, "pitch": 78, "duration": 9, "velocity": 88}, {"time": 2401, "pitch": 83, "duration": 2, "velocity": 69}, {"time": 2404, "pitch": 54, "duration": 3, "velocity": 60}, {"time": 2407, "pitch": 59, "duration": 4, "velocity": 49}, {"time": 2410, "pitch": 61, "duration": 8, "velocity": 60}, {"time": 2410, "pitch": 73, "duration": 2, "velocity": 57}, {"time": 2410, "pitch": 76, "duration": 3, "velocity": 75}, {"time": 2413, "pitch": 62, "duration": 5, "velocity": 69}, {"time": 2413, "pitch": 74, "duration": 2, "velocity": 80}, {"time": 2413, "pitch": 78, "duration": 3, "velocity": 73}, {"time": 2416, "pitch": 64, "duration": 2, "velocity": 63}, {"time": 2419, "pitch": 74, "duration": 1, "velocity": 93}, {"time": 2419, "pitch": 81, "duration": 2, "velocity": 82}, {"time": 2425, "pitch": 47, "duration": 5, "velocity": 67}, {"time": 2425, "pitch": 74, "duration": 7, "velocity": 88}, {"time": 2425, "pitch": 78, "duration": 7, "velocity": 93}, {"time": 2428, "pitch": 54, "duration": 3, "velocity": 63}, {"time": 2431, "pitch": 59, "duration": 4, "velocity": 73}, {"time": 2434, "pitch": 61, "duration": 10, "velocity": 58}, {"time": 2434, "pitch": 73, "duration": 1, "velocity": 63}, {"time": 2434, "pitch": 76, "duration": 1, "velocity": 78}, {"time": 2437, "pitch": 62, "duration": 7, "velocity": 73}, {"time": 2437, "pitch": 73, "duration": 3, "velocity": 82}, {"time": 2437, "pitch": 76, "duration": 3, "velocity": 95}, {"time": 2440, "pitch": 74, "duration": 4, "velocity": 82}, {"time": 2440, "pitch": 78, "duration": 4, "velocity": 82}, {"time": 2443, "pitch": 64, "duration": 1, "velocity": 70}, {"time": 2446, "pitch": 73, "duration": 2, "velocity": 54}, {"time": 2446, "pitch": 76, "duration": 4, "velocity": 88}, {"time": 2446, "pitch": 78, "duration": 1, "velocity": 50}, {"time": 2449, "pitch": 43, "duration": 21, "velocity": 76}, {"time": 2449, "pitch": 71, "duration": 3, "velocity": 85}, {"time": 2449, "pitch": 74, "duration": 3, "velocity": 88}, {"time": 2452, "pitch": 50, "duration": 20, "velocity": 73}, {"time": 2455, "pitch": 55, "duration": 7, "velocity": 85}, {"time": 2458, "pitch": 59, "duration": 2, "velocity": 85}, {"time": 2461, "pitch": 59, "duration": 3, "velocity": 70}, {"time": 2461, "pitch": 62, "duration": 4, "velocity": 82}, {"time": 2464, "pitch": 55, "duration": 4, "velocity": 66}, {"time": 2467, "pitch": 59, "duration": 4, "velocity": 85}, {"time": 2470, "pitch": 62, "duration": 2, "velocity": 55}, {"time": 2473, "pitch": 43, "duration": 18, "velocity": 72}, {"time": 2473, "pitch": 59, "duration": 8, "velocity": 58}, {"time": 2473, "pitch": 62, "duration": 6, "velocity": 72}, {"time": 2473, "pitch": 67, "duration": 6, "velocity": 72}, {"time": 2476, "pitch": 50, "duration": 16, "velocity": 64}, {"time": 2479, "pitch": 55, "duration": 9, "velocity": 91}, {"time": 2482, "pitch": 59, "duration": 2, "velocity": 80}, {"time": 2485, "pitch": 62, "duration": 2, "velocity": 62}, {"time": 2488, "pitch": 66, "duration": 8, "velocity": 72}, {"time": 2491, "pitch": 55, "duration": 5, "velocity": 63}, {"time": 2497, "pitch": 52, "duration": 18, "velocity": 72}, {"time": 2497, "pitch": 62, "duration": 3, "velocity": 78}, {"time": 2497, "pitch": 67, "duration": 4, "velocity": 70}, {"time": 2500, "pitch": 59, "duration": 10, "velocity": 59}, {"time": 2503, "pitch": 64, "duration": 10, "velocity": 72}, {"time": 2506, "pitch": 66, "duration": 2, "velocity": 78}, {"time": 2509, "pitch": 67, "duration": 5, "velocity": 80}, {"time": 2512, "pitch": 59, "duration": 2, "velocity": 57}, {"time": 2515, "pitch": 71, "duration": 5, "velocity": 91}, {"time": 2521, "pitch": 45, "duration": 5, "velocity": 67}, {"time": 2521, "pitch": 64, "duration": 7, "velocity": 70}, {"time": 2521, "pitch": 69, "duration": 7, "velocity": 85}, {"time": 2521, "pitch": 76, "duration": 7, "velocity": 78}, {"time": 2524, "pitch": 52, "duration": 3, "velocity": 58}, {"time": 2527, "pitch": 57, "duration": 4, "velocity": 67}, {"time": 2530, "pitch": 59, "duration": 7, "velocity": 54}, {"time": 2530, "pitch": 66, "duration": 2, "velocity": 64}, {"time": 2530, "pitch": 69, "duration": 1, "velocity": 66}, {"time": 2530, "pitch": 74, "duration": 2, "velocity": 76}, {"time": 2533, "pitch": 61, "duration": 7, "velocity": 61}, {"time": 2533, "pitch": 66, "duration": 2, "velocity": 66}, {"time": 2533, "pitch": 69, "duration": 4, "velocity": 61}, {"time": 2533, "pitch": 74, "duration": 4, "velocity": 75}, {"time": 2539, "pitch": 59, "duration": 2, "velocity": 69}, {"time": 2539, "pitch": 64, "duration": 2, "velocity": 70}, {"time": 2539, "pitch": 73, "duration": 6, "velocity": 85}, {"time": 2542, "pitch": 64, "duration": 2, "velocity": 45}, {"time": 2545, "pitch": 54, "duration": 20, "velocity": 70}, {"time": 2545, "pitch": 69, "duration": 2, "velocity": 69}, {"time": 2545, "pitch": 76, "duration": 7, "velocity": 75}, {"time": 2548, "pitch": 61, "duration": 6, "velocity": 54}, {"time": 2551, "pitch": 66, "duration": 6, "velocity": 69}, {"time": 2554, "pitch": 69, "duration": 4, "velocity": 76}, {"time": 2554, "pitch": 73, "duration": 5, "velocity": 76}, {"time": 2557, "pitch": 61, "duration": 4, "velocity": 56}, {"time": 2560, "pitch": 64, "duration": 4, "velocity": 67}, {"time": 2560, "pitch": 71, "duration": 4, "velocity": 55}, {"time": 2563, "pitch": 61, "duration": 1, "velocity": 70}, {"time": 2566, "pitch": 64, "duration": 7, "velocity": 70}, {"time": 2566, "pitch": 69, "duration": 6, "velocity": 82}, {"time": 2569, "pitch": 42, "duration": 19, "velocity": 73}, {"time": 2572, "pitch": 49, "duration": 5, "velocity": 50}, {"time": 2575, "pitch": 54, "duration": 4, "velocity": 76}, {"time": 2578, "pitch": 66, "duration": 1, "velocity": 73}, {"time": 2578, "pitch": 78, "duration": 1, "velocity": 76}, {"time": 2581, "pitch": 49, "duration": 7, "velocity": 62}, {"time": 2581, "pitch": 66, "duration": 1, "velocity": 69}, {"time": 2581, "pitch": 78, "duration": 2, "velocity": 80}, {"time": 2584, "pitch": 69, "duration": 1, "velocity": 62}, {"time": 2584, "pitch": 81, "duration": 1, "velocity": 80}, {"time": 2587, "pitch": 54, "duration": 4, "velocity": 61}, {"time": 2587, "pitch": 69, "duration": 1, "velocity": 60}, {"time": 2587, "pitch": 81, "duration": 2, "velocity": 72}, {"time": 2590, "pitch": 71, "duration": 2, "velocity": 54}, {"time": 2590, "pitch": 83, "duration": 2, "velocity": 64}, {"time": 2593, "pitch": 47, "duration": 45, "velocity": 70}, {"time": 2593, "pitch": 71, "duration": 6, "velocity": 67}, {"time": 2593, "pitch": 83, "duration": 4, "velocity": 73}, {"time": 2596, "pitch": 54, "duration": 41, "velocity": 58}, {"time": 2599, "pitch": 59, "duration": 37, "velocity": 55}, {"time": 2602, "pitch": 62, "duration": 3, "velocity": 80}, {"time": 2605, "pitch": 64, "duration": 4, "velocity": 58}, {"time": 2608, "pitch": 66, "duration": 1, "velocity": 61}, {"time": 2611, "pitch": 71, "duration": 3, "velocity": 82}, {"time": 2614, "pitch": 73, "duration": 3, "velocity": 44}, {"time": 2617, "pitch": 74, "duration": 2, "velocity": 57}, {"time": 2620, "pitch": 78, "duration": 3, "velocity": 75}, {"time": 2623, "pitch": 83, "duration": 3, "velocity": 33}, {"time": 2626, "pitch": 85, "duration": 2, "velocity": 54}, {"time": 2629, "pitch": 86, "duration": 3, "velocity": 52}, {"time": 2632, "pitch": 85, "duration": 3, "velocity": 57}, {"time": 2635, "pitch": 83, "duration": 2, "velocity": 49}, {"time": 2638, "pitch": 78, "duration": 2, "velocity": 57}, {"time": 2641, "pitch": 52, "duration": 44, "velocity": 58}, {"time": 2641, "pitch": 67, "duration": 6, "velocity": 53}, {"time": 2641, "pitch": 71, "duration": 6, "velocity": 54}, {"time": 2647, "pitch": 66, "duration": 6, "velocity": 41}, {"time": 2647, "pitch": 59, "duration": 7, "velocity": 33}, {"time": 2647, "pitch": 69, "duration": 5, "velocity": 46}, {"time": 2653, "pitch": 67, "duration": 4, "velocity": 49}, {"time": 2653, "pitch": 71, "duration": 5, "velocity": 44}, {"time": 2653, "pitch": 64, "duration": 6, "velocity": 33}, {"time": 2659, "pitch": 59, "duration": 9, "velocity": 35}, {"time": 2665, "pitch": 78, "duration": 3, "velocity": 53}, {"time": 2665, "pitch": 64, "duration": 8, "velocity": 33}, {"time": 2668, "pitch": 71, "duration": 2, "velocity": 35}, {"time": 2671, "pitch": 76, "duration": 2, "velocity": 54}, {"time": 2674, "pitch": 59, "duration": 7, "velocity": 7}, {"time": 2674, "pitch": 74, "duration": 3, "velocity": 48}, {"time": 2677, "pitch": 73, "duration": 5, "velocity": 51}, {"time": 2677, "pitch": 64, "duration": 6, "velocity": 44}, {"time": 2683, "pitch": 59, "duration": 2, "velocity": 49}, {"time": 2689, "pitch": 47, "duration": 5, "velocity": 63}, {"time": 2689, "pitch": 74, "duration": 7, "velocity": 62}, {"time": 2692, "pitch": 54, "duration": 3, "velocity": 51}, {"time": 2695, "pitch": 59, "duration": 3, "velocity": 41}, {"time": 2698, "pitch": 61, "duration": 5, "velocity": 50}, {"time": 2701, "pitch": 62, "duration": 2, "velocity": 66}, {"time": 2704, "pitch": 66, "duration": 3, "velocity": 54}, {"time": 2707, "pitch": 73, "duration": 3, "velocity": 63}, {"time": 2710, "pitch": 74, "duration": 3, "velocity": 58}, {"time": 2713, "pitch": 47, "duration": 17, "velocity": 52}, {"time": 2713, "pitch": 71, "duration": 4, "velocity": 54}, {"time": 2719, "pitch": 54, "duration": 11, "velocity": 37}, {"time": 2725, "pitch": 59, "duration": 6, "velocity": 44}, {"time": 2725, "pitch": 69, "duration": 5, "velocity": 44}, {"time": 2725, "pitch": 66, "duration": 4, "velocity": 48}, {"time": 2725, "pitch": 62, "duration": 6, "velocity": 43}, {"time": 2737, "pitch": 52, "duration": 30, "velocity": 61}, {"time": 2737, "pitch": 67, "duration": 11, "velocity": 53}, {"time": 2737, "pitch": 71, "duration": 11, "velocity": 45}, {"time": 2743, "pitch": 59, "duration": 6, "velocity": 28}, {"time": 2749, "pitch": 64, "duration": 7, "velocity": 37}, {"time": 2749, "pitch": 66, "duration": 6, "velocity": 48}, {"time": 2749, "pitch": 69, "duration": 8, "velocity": 49}, {"time": 2755, "pitch": 59, "duration": 11, "velocity": 38}, {"time": 2761, "pitch": 71, "duration": 5, "velocity": 41}, {"time": 2761, "pitch": 67, "duration": 5, "velocity": 48}, {"time": 2761, "pitch": 64, "duration": 4, "velocity": 36}, {"time": 2773, "pitch": 54, "duration": 8, "velocity": 61}, {"time": 2773, "pitch": 64, "duration": 5, "velocity": 48}, {"time": 2773, "pitch": 69, "duration": 7, "velocity": 48}, {"time": 2780, "pitch": 61, "duration": 1, "velocity": 61}, {"time": 2785, "pitch": 42, "duration": 40, "velocity": 70}, {"time": 2786, "pitch": 69, "duration": 7, "velocity": 58}, {"time": 2786, "pitch": 64, "duration": 8, "velocity": 51}, {"time": 2792, "pitch": 54, "duration": 9, "velocity": 36}, {"time": 2798, "pitch": 71, "duration": 6, "velocity": 48}, {"time": 2798, "pitch": 64, "duration": 4, "velocity": 39}, {"time": 2805, "pitch": 54, "duration": 8, "velocity": 37}, {"time": 2810, "pitch": 76, "duration": 4, "velocity": 59}, {"time": 2811, "pitch": 73, "duration": 2, "velocity": 54}, {"time": 2816, "pitch": 73, "duration": 2, "velocity": 55}, {"time": 2817, "pitch": 81, "duration": 1, "velocity": 57}, {"time": 2817, "pitch": 54, "duration": 10, "velocity": 34}, {"time": 2824, "pitch": 85, "duration": 6, "velocity": 50}, {"time": 2831, "pitch": 86, "duration": 2, "velocity": 56}, {"time": 2831, "pitch": 47, "duration": 75, "velocity": 57}, {"time": 2836, "pitch": 54, "duration": 69, "velocity": 45}, {"time": 2839, "pitch": 59, "duration": 66, "velocity": 45}, {"time": 2841, "pitch": 61, "duration": 3, "velocity": 48}, {"time": 2843, "pitch": 62, "duration": 2, "velocity": 54}, {"time": 2846, "pitch": 66, "duration": 1, "velocity": 67}, {"time": 2848, "pitch": 71, "duration": 3, "velocity": 53}, {"time": 2850, "pitch": 73, "duration": 2, "velocity": 58}, {"time": 2853, "pitch": 74, "duration": 3, "velocity": 70}, {"time": 2856, "pitch": 78, "duration": 2, "velocity": 62}, {"time": 2859, "pitch": 83, "duration": 3, "velocity": 44}, {"time": 2862, "pitch": 85, "duration": 3, "velocity": 41}, {"time": 2866, "pitch": 86, "duration": 3, "velocity": 39}, {"time": 2870, "pitch": 78, "duration": 5, "velocity": 53}, {"time": 2875, "pitch": 90, "duration": 3, "velocity": 33}, {"time": 2880, "pitch": 81, "duration": 6, "velocity": 39}, {"time": 2886, "pitch": 93, "duration": 5, "velocity": 32}, {"time": 2892, "pitch": 83, "duration": 12, "velocity": 25}, {"time": 2899, "pitch": 95, "duration": 6, "velocity": 32}], "annotations": [{"time": 24, "annotation": {"number": 64, "value": 127}, "group": "control_change"}, {"time": 82, "annotation": {"number": 64, "value": 0}, "group": "control_change"}, {"time": 85, "annotation": {"number": 64, "value": 127}, "group": "control_change"}, {"time": 119, "annotation": {"number": 64, "value": 0}, "group": "control_change"}, {"time": 122, "annotation": {"number": 64, "value": 127}, "group": "control_change"}, {"time": 170, "annotation": {"number": 64, "value": 0}, "group": "control_change"}, {"time": 172, "annotation": {"number": 64, "value": 127}, "group": "control_change"}, {"time": 217, "annotation": {"number": 64, "value": 0}, "group": "control_change"}, {"time": 217, "annotation": {"number": 64, "value": 127}, "group": "control_change"}, {"time": 264, "annotation": {"number": 64, "value": 0}, "group": "control_change"}, {"time": 270, "annotation": {"number": 64, "value": 127}, "group": "control_change"}, {"time": 313, "annotation": {"number": 64, "value": 0}, "group": "control_change"}, {"time": 316, "annotation": {"number": 64, "value": 127}, "group": "control_change"}, {"time": 360, "annotation": {"number": 64, "value": 0}, "group": "control_change"}, {"time": 361, "annotation": {"number": 64, "value": 127}, "group": "control_change"}, {"time": 385, "annotation": {"number": 64, "value": 0}, "group": "control_change"}, {"time": 385, "annotation": {"number": 64, "value": 127}, "group": "control_change"}, {"time": 409, "annotation": {"number": 64, "value": 0}, "group": "control_change"}, {"time": 412, "annotation": {"number": 64, "value": 127}, "group": "control_change"}, {"time": 421, "annotation": {"number": 64, "value": 0}, "group": "control_change"}, {"time": 424, "annotation": {"number": 64, "value": 127}, "group": "control_change"}, {"time": 433, "annotation": {"number": 64, "value": 0}, "group": "control_change"}, {"time": 438, "annotation": {"number": 64, "value": 127}, "group": "control_change"}, {"time": 457, "annotation": {"number": 64, "value": 0}, "group": "control_change"}, {"time": 458, "annotation": {"number": 64, "value": 127}, "group": "control_change"}, {"time": 481, "annotation": {"number": 64, "value": 0}, "group": "control_change"}, {"time": 486, "annotation": {"number": 64, "value": 127}, "group": "control_change"}, {"time": 503, "annotation": {"number": 64, "value": 0}, "group": "control_change"}, {"time": 506, "annotation": {"number": 64, "value": 127}, "group": "control_change"}, {"time": 553, "annotation": {"number": 64, "value": 0}, "group": "control_change"}, {"time": 559, "annotation": {"number": 64, "value": 127}, "group": "control_change"}, {"time": 577, "annotation": {"number": 64, "value": 0}, "group": "control_change"}, {"time": 582, "annotation": {"number": 64, "value": 127}, "group": "control_change"}, {"time": 601, "annotation": {"number": 64, "value": 0}, "group": "control_change"}, {"time": 602, "annotation": {"number": 64, "value": 127}, "group": "control_change"}, {"time": 624, "annotation": {"number": 64, "value": 0}, "group": "control_change"}, {"time": 630, "annotation": {"number": 64, "value": 127}, "group": "control_change"}, {"time": 649, "annotation": {"number": 64, "value": 0}, "group": "control_change"}, {"time": 656, "annotation": {"number": 64, "value": 127}, "group": "control_change"}, {"time": 672, "annotation": {"number": 64, "value": 0}, "group": "control_change"}, {"time": 674, "annotation": {"number": 64, "value": 127}, "group": "control_change"}, {"time": 696, "annotation": {"number": 64, "value": 0}, "group": "control_change"}, {"time": 699, "annotation": {"number": 64, "value": 127}, "group": "control_change"}, {"time": 708, "annotation": {"number": 64, "value": 0}, "group": "control_change"}, {"time": 713, "annotation": {"number": 64, "value": 127}, "group": "control_change"}, {"time": 721, "annotation": {"number": 64, "value": 0}, "group": "control_change"}, {"time": 726, "annotation": {"number": 64, "value": 127}, "group": "control_change"}, {"time": 769, "annotation": {"number": 64, "value": 0}, "group": "control_change"}, {"time": 770, "annotation": {"number": 64, "value": 127}, "group": "control_change"}, {"time": 816, "annotation": {"number": 64, "value": 0}, "group": "control_change"}, {"time": 820, "annotation": {"number": 64, "value": 127}, "group": "control_change"}, {"time": 865, "annotation": {"number": 64, "value": 0}, "group": "control_change"}, {"time": 869, "annotation": {"number": 64, "value": 127}, "group": "control_change"}, {"time": 913, "annotation": {"number": 64, "value": 0}, "group": "control_change"}, {"time": 915, "annotation": {"number": 64, "value": 127}, "group": "control_change"}, {"time": 960, "annotation": {"number": 64, "value": 0}, "group": "control_change"}, {"time": 964, "annotation": {"number": 64, "value": 127}, "group": "control_change"}, {"time": 1008, "annotation": {"number": 64, "value": 0}, "group": "control_change"}, {"time": 1013, "annotation": {"number": 64, "value": 127}, "group": "control_change"}, {"time": 1038, "annotation": {"number": 64, "value": 0}, "group": "control_change"}, {"time": 1042, "annotation": {"number": 64, "value": 127}, "group": "control_change"}, {"time": 1057, "annotation": {"number": 64, "value": 0}, "group": "control_change"}, {"time": 1060, "annotation": {"number": 64, "value": 127}, "group": "control_change"}, {"time": 1081, "annotation": {"number": 64, "value": 0}, "group": "control_change"}, {"time": 1082, "annotation": {"number": 64, "value": 127}, "group": "control_change"}, {"time": 1105, "annotation": {"number": 64, "value": 0}, "group": "control_change"}, {"time": 1106, "annotation": {"number": 64, "value": 127}, "group": "control_change"}, {"time": 1153, "annotation": {"number": 64, "value": 0}, "group": "control_change"}, {"time": 1155, "annotation": {"number": 64, "value": 127}, "group": "control_change"}, {"time": 1179, "annotation": {"number": 64, "value": 0}, "group": "control_change"}, {"time": 1182, "annotation": {"number": 64, "value": 127}, "group": "control_change"}, {"time": 1201, "annotation": {"number": 64, "value": 0}, "group": "control_change"}, {"time": 1204, "annotation": {"number": 64, "value": 127}, "group": "control_change"}, {"time": 1225, "annotation": {"number": 64, "value": 0}, "group": "control_change"}, {"time": 1226, "annotation": {"number": 64, "value": 127}, "group": "control_change"}, {"time": 1249, "annotation": {"number": 64, "value": 0}, "group": "control_change"}, {"time": 1252, "annotation": {"number": 64, "value": 127}, "group": "control_change"}, {"time": 1273, "annotation": {"number": 64, "value": 0}, "group": "control_change"}, {"time": 1275, "annotation": {"number": 64, "value": 127}, "group": "control_change"}, {"time": 1298, "annotation": {"number": 64, "value": 127}, "group": "control_change"}, {"time": 1323, "annotation": {"number": 64, "value": 0}, "group": "control_change"}, {"time": 1326, "annotation": {"number": 64, "value": 127}, "group": "control_change"}, {"time": 1345, "annotation": {"number": 64, "value": 0}, "group": "control_change"}, {"time": 1348, "annotation": {"number": 64, "value": 127}, "group": "control_change"}, {"time": 1393, "annotation": {"number": 64, "value": 0}, "group": "control_change"}, {"time": 1394, "annotation": {"number": 64, "value": 127}, "group": "control_change"}, {"time": 1440, "annotation": {"number": 64, "value": 0}, "group": "control_change"}, {"time": 1443, "annotation": {"number": 64, "value": 127}, "group": "control_change"}, {"time": 1489, "annotation": {"number": 64, "value": 0}, "group": "control_change"}, {"time": 1492, "annotation": {"number": 64, "value": 127}, "group": "control_change"}, {"time": 1537, "annotation": {"number": 64, "value": 0}, "group": "control_change"}, {"time": 1540, "annotation": {"number": 64, "value": 127}, "group": "control_change"}, {"time": 1585, "annotation": {"number": 64, "value": 0}, "group": "control_change"}, {"time": 1585, "annotation": {"number": 64, "value": 127}, "group": "control_change"}, {"time": 1631, "annotation": {"number": 64, "value": 0}, "group": "control_change"}, {"time": 1633, "annotation": {"number": 64, "value": 127}, "group": "control_change"}, {"time": 1658, "annotation": {"number": 64, "value": 0}, "group": "control_change"}, {"time": 1660, "annotation": {"number": 64, "value": 127}, "group": "control_change"}, {"time": 1679, "annotation": {"number": 64, "value": 0}, "group": "control_change"}, {"time": 1682, "annotation": {"number": 64, "value": 127}, "group": "control_change"}, {"time": 1705, "annotation": {"number": 64, "value": 0}, "group": "control_change"}, {"time": 1708, "annotation": {"number": 64, "value": 127}, "group": "control_change"}, {"time": 1727, "annotation": {"number": 64, "value": 0}, "group": "control_change"}, {"time": 1729, "annotation": {"number": 64, "value": 127}, "group": "control_change"}, {"time": 1754, "annotation": {"number": 64, "value": 0}, "group": "control_change"}, {"time": 1757, "annotation": {"number": 64, "value": 127}, "group": "control_change"}, {"time": 1778, "annotation": {"number": 64, "value": 0}, "group": "control_change"}, {"time": 1780, "annotation": {"number": 64, "value": 127}, "group": "control_change"}, {"time": 1822, "annotation": {"number": 64, "value": 0}, "group": "control_change"}, {"time": 1825, "annotation": {"number": 64, "value": 127}, "group": "control_change"}, {"time": 1849, "annotation": {"number": 64, "value": 0}, "group": "control_change"}, {"time": 1849, "annotation": {"number": 64, "value": 127}, "group": "control_change"}, {"time": 1873, "annotation": {"number": 64, "value": 0}, "group": "control_change"}, {"time": 1876, "annotation": {"number": 64, "value": 127}, "group": "control_change"}, {"time": 1885, "annotation": {"number": 64, "value": 0}, "group": "control_change"}, {"time": 1888, "annotation": {"number": 64, "value": 127}, "group": "control_change"}, {"time": 1897, "annotation": {"number": 64, "value": 0}, "group": "control_change"}, {"time": 1902, "annotation": {"number": 64, "value": 127}, "group": "control_change"}, {"time": 1921, "annotation": {"number": 64, "value": 0}, "group": "control_change"}, {"time": 1922, "annotation": {"number": 64, "value": 127}, "group": "control_change"}, {"time": 1945, "annotation": {"number": 64, "value": 0}, "group": "control_change"}, {"time": 1950, "annotation": {"number": 64, "value": 127}, "group": "control_change"}, {"time": 1967, "annotation": {"number": 64, "value": 0}, "group": "control_change"}, {"time": 1970, "annotation": {"number": 64, "value": 127}, "group": "control_change"}, {"time": 2017, "annotation": {"number": 64, "value": 0}, "group": "control_change"}, {"time": 2023, "annotation": {"number": 64, "value": 127}, "group": "control_change"}, {"time": 2041, "annotation": {"number": 64, "value": 0}, "group": "control_change"}, {"time": 2046, "annotation": {"number": 64, "value": 127}, "group": "control_change"}, {"time": 2065, "annotation": {"number": 64, "value": 0}, "group": "control_change"}, {"time": 2066, "annotation": {"number": 64, "value": 127}, "group": "control_change"}, {"time": 2088, "annotation": {"number": 64, "value": 0}, "group": "control_change"}, {"time": 2094, "annotation": {"number": 64, "value": 127}, "group": "control_change"}, {"time": 2113, "annotation": {"number": 64, "value": 0}, "group": "control_change"}, {"time": 2120, "annotation": {"number": 64, "value": 127}, "group": "control_change"}, {"time": 2136, "annotation": {"number": 64, "value": 0}, "group": "control_change"}, {"time": 2138, "annotation": {"number": 64, "value": 127}, "group": "control_change"}, {"time": 2160, "annotation": {"number": 64, "value": 0}, "group": "control_change"}, {"time": 2163, "annotation": {"number": 64, "value": 127}, "group": "control_change"}, {"time": 2172, "annotation": {"number": 64, "value": 0}, "group": "control_change"}, {"time": 2177, "annotation": {"number": 64, "value": 127}, "group": "control_change"}, {"time": 2185, "annotation": {"number": 64, "value": 0}, "group": "control_change"}, {"time": 2190, "annotation": {"number": 64, "value": 127}, "group": "control_change"}, {"time": 2209, "annotation": {"number": 64, "value": 0}, "group": "control_change"}, {"time": 2212, "annotation": {"number": 64, "value": 127}, "group": "control_change"}, {"time": 2256, "annotation": {"number": 64, "value": 0}, "group": "control_change"}, {"time": 2261, "annotation": {"number": 64, "value": 127}, "group": "control_change"}, {"time": 2286, "annotation": {"number": 64, "value": 0}, "group": "control_change"}, {"time": 2290, "annotation": {"number": 64, "value": 127}, "group": "control_change"}, {"time": 2305, "annotation": {"number": 64, "value": 0}, "group": "control_change"}, {"time": 2308, "annotation": {"number": 64, "value": 127}, "group": "control_change"}, {"time": 2329, "annotation": {"number": 64, "value": 0}, "group": "control_change"}, {"time": 2330, "annotation": {"number": 64, "value": 127}, "group": "control_change"}, {"time": 2353, "annotation": {"number": 64, "value": 0}, "group": "control_change"}, {"time": 2354, "annotation": {"number": 64, "value": 127}, "group": "control_change"}, {"time": 2401, "annotation": {"number": 64, "value": 0}, "group": "control_change"}, {"time": 2403, "annotation": {"number": 64, "value": 127}, "group": "control_change"}, {"time": 2427, "annotation": {"number": 64, "value": 0}, "group": "control_change"}, {"time": 2430, "annotation": {"number": 64, "value": 127}, "group": "control_change"}, {"time": 2449, "annotation": {"number": 64, "value": 0}, "group": "control_change"}, {"time": 2452, "annotation": {"number": 64, "value": 127}, "group": "control_change"}, {"time": 2473, "annotation": {"number": 64, "value": 0}, "group": "control_change"}, {"time": 2474, "annotation": {"number": 64, "value": 127}, "group": "control_change"}, {"time": 2497, "annotation": {"number": 64, "value": 0}, "group": "control_change"}, {"time": 2500, "annotation": {"number": 64, "value": 127}, "group": "control_change"}, {"time": 2521, "annotation": {"number": 64, "value": 0}, "group": "control_change"}, {"time": 2523, "annotation": {"number": 64, "value": 127}, "group": "control_change"}, {"time": 2546, "annotation": {"number": 64, "value": 127}, "group": "control_change"}, {"time": 2571, "annotation": {"number": 64, "value": 0}, "group": "control_change"}, {"time": 2574, "annotation": {"number": 64, "value": 127}, "group": "control_change"}, {"time": 2593, "annotation": {"number": 64, "value": 0}, "group": "control_change"}, {"time": 2596, "annotation": {"number": 64, "value": 127}, "group": "control_change"}, {"time": 2641, "annotation": {"number": 64, "value": 127}, "group": "control_change"}, {"time": 2641, "annotation": {"number": 64, "value": 0}, "group": "control_change"}, {"time": 2690, "annotation": {"number": 64, "value": 0}, "group": "control_change"}, {"time": 2692, "annotation": {"number": 64, "value": 127}, "group": "control_change"}, {"time": 2737, "annotation": {"number": 64, "value": 0}, "group": "control_change"}, {"time": 2739, "annotation": {"number": 64, "value": 127}, "group": "control_change"}, {"time": 2785, "annotation": {"number": 64, "value": 0}, "group": "control_change"}, {"time": 2786, "annotation": {"number": 64, "value": 127}, "group": "control_change"}, {"time": 2831, "annotation": {"number": 64, "value": 0}, "group": "control_change"}, {"time": 2831, "annotation": {"number": 64, "value": 127}, "group": "control_change"}]}]}