{"metadata": {"schema_version": "0.2", "title": "None", "source_filename": "033.mid", "source_format": "midi"}, "resolution": 12, "tempos": [{"time": 0, "qpm": 68.0000725334107}], "key_signatures": [{"time": 0, "root": 0, "mode": "major"}], "time_signatures": [{"time": 0, "numerator": 4, "denominator": 4}, {"time": 0, "numerator": 1, "denominator": 4}], "tracks": [{"program": 0, "is_drum": false, "name": "MELODY", "notes": [{"time": 321, "pitch": 64, "duration": 3, "velocity": 79}, {"time": 324, "pitch": 71, "duration": 1, "velocity": 79}, {"time": 327, "pitch": 69, "duration": 4, "velocity": 79}, {"time": 333, "pitch": 67, "duration": 2, "velocity": 79}, {"time": 339, "pitch": 66, "duration": 5, "velocity": 79}, {"time": 345, "pitch": 64, "duration": 8, "velocity": 79}, {"time": 357, "pitch": 62, "duration": 3, "velocity": 80}, {"time": 363, "pitch": 64, "duration": 8, "velocity": 80}, {"time": 417, "pitch": 64, "duration": 2, "velocity": 80}, {"time": 420, "pitch": 64, "duration": 4, "velocity": 80}, {"time": 423, "pitch": 67, "duration": 6, "velocity": 80}, {"time": 429, "pitch": 64, "duration": 6, "velocity": 80}, {"time": 435, "pitch": 67, "duration": 5, "velocity": 80}, {"time": 441, "pitch": 64, "duration": 7, "velocity": 80}, {"time": 453, "pitch": 74, "duration": 5, "velocity": 81}, {"time": 459, "pitch": 71, "duration": 21, "velocity": 81}, {"time": 501, "pitch": 71, "duration": 3, "velocity": 82}, {"time": 504, "pitch": 74, "duration": 2, "velocity": 82}, {"time": 507, "pitch": 76, "duration": 6, "velocity": 82}, {"time": 516, "pitch": 76, "duration": 1, "velocity": 83}, {"time": 519, "pitch": 76, "duration": 5, "velocity": 83}, {"time": 525, "pitch": 74, "duration": 3, "velocity": 83}, {"time": 531, "pitch": 71, "duration": 16, "velocity": 83}, {"time": 549, "pitch": 64, "duration": 4, "velocity": 83}, {"time": 555, "pitch": 69, "duration": 25, "velocity": 83}, {"time": 597, "pitch": 67, "duration": 3, "velocity": 83}, {"time": 600, "pitch": 69, "duration": 2, "velocity": 83}, {"time": 603, "pitch": 71, "duration": 4, "velocity": 83}, {"time": 609, "pitch": 74, "duration": 5, "velocity": 83}, {"time": 621, "pitch": 74, "duration": 3, "velocity": 83}, {"time": 624, "pitch": 71, "duration": 3, "velocity": 83}, {"time": 627, "pitch": 69, "duration": 2, "velocity": 83}, {"time": 633, "pitch": 67, "duration": 8, "velocity": 83}, {"time": 645, "pitch": 69, "duration": 6, "velocity": 83}, {"time": 651, "pitch": 64, "duration": 34, "velocity": 83}, {"time": 705, "pitch": 64, "duration": 3, "velocity": 84}, {"time": 708, "pitch": 71, "duration": 1, "velocity": 84}, {"time": 711, "pitch": 69, "duration": 4, "velocity": 84}, {"time": 717, "pitch": 67, "duration": 2, "velocity": 84}, {"time": 723, "pitch": 66, "duration": 5, "velocity": 84}, {"time": 729, "pitch": 64, "duration": 8, "velocity": 84}, {"time": 741, "pitch": 62, "duration": 3, "velocity": 86}, {"time": 747, "pitch": 64, "duration": 8, "velocity": 86}, {"time": 801, "pitch": 64, "duration": 2, "velocity": 87}, {"time": 804, "pitch": 64, "duration": 4, "velocity": 87}, {"time": 807, "pitch": 67, "duration": 6, "velocity": 87}, {"time": 813, "pitch": 64, "duration": 6, "velocity": 87}, {"time": 819, "pitch": 67, "duration": 5, "velocity": 87}, {"time": 825, "pitch": 64, "duration": 7, "velocity": 87}, {"time": 837, "pitch": 74, "duration": 5, "velocity": 87}, {"time": 843, "pitch": 71, "duration": 21, "velocity": 87}, {"time": 885, "pitch": 71, "duration": 3, "velocity": 87}, {"time": 888, "pitch": 74, "duration": 2, "velocity": 87}, {"time": 891, "pitch": 76, "duration": 6, "velocity": 87}, {"time": 900, "pitch": 76, "duration": 1, "velocity": 86}, {"time": 903, "pitch": 76, "duration": 5, "velocity": 86}, {"time": 909, "pitch": 74, "duration": 3, "velocity": 86}, {"time": 915, "pitch": 71, "duration": 16, "velocity": 86}, {"time": 933, "pitch": 64, "duration": 4, "velocity": 85}, {"time": 939, "pitch": 69, "duration": 25, "velocity": 85}, {"time": 978, "pitch": 67, "duration": 1, "velocity": 85}, {"time": 981, "pitch": 67, "duration": 3, "velocity": 85}, {"time": 984, "pitch": 69, "duration": 2, "velocity": 85}, {"time": 987, "pitch": 71, "duration": 4, "velocity": 85}, {"time": 993, "pitch": 74, "duration": 5, "velocity": 85}, {"time": 1005, "pitch": 74, "duration": 3, "velocity": 85}, {"time": 1008, "pitch": 71, "duration": 3, "velocity": 85}, {"time": 1011, "pitch": 69, "duration": 2, "velocity": 85}, {"time": 1017, "pitch": 67, "duration": 8, "velocity": 85}, {"time": 1029, "pitch": 69, "duration": 6, "velocity": 85}, {"time": 1035, "pitch": 64, "duration": 34, "velocity": 85}, {"time": 1080, "pitch": 71, "duration": 2, "velocity": 84}, {"time": 1083, "pitch": 76, "duration": 3, "velocity": 84}, {"time": 1089, "pitch": 76, "duration": 1, "velocity": 83}, {"time": 1092, "pitch": 76, "duration": 1, "velocity": 82}, {"time": 1095, "pitch": 74, "duration": 3, "velocity": 82}, {"time": 1101, "pitch": 76, "duration": 1, "velocity": 82}, {"time": 1104, "pitch": 74, "duration": 1, "velocity": 81}, {"time": 1107, "pitch": 71, "duration": 9, "velocity": 81}, {"time": 1119, "pitch": 79, "duration": 3, "velocity": 81}, {"time": 1125, "pitch": 76, "duration": 3, "velocity": 81}, {"time": 1131, "pitch": 74, "duration": 4, "velocity": 81}, {"time": 1137, "pitch": 69, "duration": 15, "velocity": 81}, {"time": 1149, "pitch": 74, "duration": 4, "velocity": 80}, {"time": 1155, "pitch": 71, "duration": 25, "velocity": 80}, {"time": 1179, "pitch": 64, "duration": 2, "velocity": 79}, {"time": 1182, "pitch": 69, "duration": 1, "velocity": 79}, {"time": 1185, "pitch": 69, "duration": 1, "velocity": 79}, {"time": 1188, "pitch": 69, "duration": 1, "velocity": 79}, {"time": 1191, "pitch": 69, "duration": 4, "velocity": 79}, {"time": 1197, "pitch": 67, "duration": 4, "velocity": 79}, {"time": 1203, "pitch": 69, "duration": 1, "velocity": 79}, {"time": 1206, "pitch": 69, "duration": 3, "velocity": 79}, {"time": 1212, "pitch": 71, "duration": 1, "velocity": 79}, {"time": 1215, "pitch": 69, "duration": 4, "velocity": 79}, {"time": 1221, "pitch": 67, "duration": 3, "velocity": 79}, {"time": 1224, "pitch": 69, "duration": 2, "velocity": 79}, {"time": 1227, "pitch": 74, "duration": 4, "velocity": 79}, {"time": 1233, "pitch": 76, "duration": 8, "velocity": 79}, {"time": 1245, "pitch": 74, "duration": 3, "velocity": 79}, {"time": 1251, "pitch": 71, "duration": 21, "velocity": 79}, {"time": 1275, "pitch": 71, "duration": 5, "velocity": 78}, {"time": 1281, "pitch": 76, "duration": 3, "velocity": 78}, {"time": 1287, "pitch": 76, "duration": 5, "velocity": 78}, {"time": 1296, "pitch": 74, "duration": 2, "velocity": 78}, {"time": 1299, "pitch": 76, "duration": 3, "velocity": 78}, {"time": 1305, "pitch": 76, "duration": 1, "velocity": 78}, {"time": 1308, "pitch": 76, "duration": 5, "velocity": 78}, {"time": 1317, "pitch": 79, "duration": 4, "velocity": 78}, {"time": 1323, "pitch": 67, "duration": 9, "velocity": 78}, {"time": 1332, "pitch": 64, "duration": 7, "velocity": 78}, {"time": 1341, "pitch": 71, "duration": 4, "velocity": 78}, {"time": 1347, "pitch": 69, "duration": 17, "velocity": 78}, {"time": 1365, "pitch": 67, "duration": 3, "velocity": 79}, {"time": 1368, "pitch": 69, "duration": 3, "velocity": 79}, {"time": 1371, "pitch": 71, "duration": 1, "velocity": 79}, {"time": 1374, "pitch": 74, "duration": 1, "velocity": 79}, {"time": 1377, "pitch": 74, "duration": 1, "velocity": 79}, {"time": 1380, "pitch": 74, "duration": 1, "velocity": 79}, {"time": 1383, "pitch": 74, "duration": 4, "velocity": 79}, {"time": 1389, "pitch": 71, "duration": 4, "velocity": 79}, {"time": 1395, "pitch": 79, "duration": 3, "velocity": 79}, {"time": 1401, "pitch": 81, "duration": 8, "velocity": 79}, {"time": 1413, "pitch": 79, "duration": 3, "velocity": 79}, {"time": 1419, "pitch": 76, "duration": 34, "velocity": 79}, {"time": 1857, "pitch": 64, "duration": 3, "velocity": 82}, {"time": 1860, "pitch": 71, "duration": 1, "velocity": 82}, {"time": 1863, "pitch": 69, "duration": 4, "velocity": 82}, {"time": 1869, "pitch": 67, "duration": 2, "velocity": 82}, {"time": 1875, "pitch": 66, "duration": 5, "velocity": 82}, {"time": 1881, "pitch": 64, "duration": 8, "velocity": 82}, {"time": 1893, "pitch": 62, "duration": 3, "velocity": 82}, {"time": 1899, "pitch": 64, "duration": 8, "velocity": 82}, {"time": 1953, "pitch": 64, "duration": 2, "velocity": 82}, {"time": 1956, "pitch": 64, "duration": 4, "velocity": 82}, {"time": 1959, "pitch": 67, "duration": 6, "velocity": 82}, {"time": 1965, "pitch": 64, "duration": 6, "velocity": 82}, {"time": 1971, "pitch": 67, "duration": 5, "velocity": 82}, {"time": 1977, "pitch": 64, "duration": 7, "velocity": 82}, {"time": 1989, "pitch": 74, "duration": 5, "velocity": 82}, {"time": 1995, "pitch": 71, "duration": 21, "velocity": 82}, {"time": 2037, "pitch": 71, "duration": 3, "velocity": 82}, {"time": 2040, "pitch": 74, "duration": 2, "velocity": 82}, {"time": 2043, "pitch": 76, "duration": 6, "velocity": 82}, {"time": 2052, "pitch": 76, "duration": 1, "velocity": 82}, {"time": 2055, "pitch": 76, "duration": 5, "velocity": 82}, {"time": 2061, "pitch": 74, "duration": 3, "velocity": 82}, {"time": 2067, "pitch": 71, "duration": 16, "velocity": 82}, {"time": 2085, "pitch": 64, "duration": 4, "velocity": 81}, {"time": 2091, "pitch": 69, "duration": 25, "velocity": 81}, {"time": 2130, "pitch": 67, "duration": 1, "velocity": 81}, {"time": 2133, "pitch": 67, "duration": 3, "velocity": 81}, {"time": 2136, "pitch": 69, "duration": 2, "velocity": 81}, {"time": 2139, "pitch": 71, "duration": 4, "velocity": 81}, {"time": 2145, "pitch": 74, "duration": 5, "velocity": 81}, {"time": 2157, "pitch": 74, "duration": 3, "velocity": 81}, {"time": 2160, "pitch": 71, "duration": 3, "velocity": 81}, {"time": 2163, "pitch": 69, "duration": 2, "velocity": 81}, {"time": 2169, "pitch": 67, "duration": 8, "velocity": 81}, {"time": 2181, "pitch": 69, "duration": 6, "velocity": 81}, {"time": 2187, "pitch": 64, "duration": 34, "velocity": 81}, {"time": 2232, "pitch": 71, "duration": 2, "velocity": 81}, {"time": 2235, "pitch": 76, "duration": 3, "velocity": 81}, {"time": 2241, "pitch": 76, "duration": 1, "velocity": 81}, {"time": 2244, "pitch": 76, "duration": 1, "velocity": 81}, {"time": 2247, "pitch": 74, "duration": 3, "velocity": 81}, {"time": 2253, "pitch": 76, "duration": 1, "velocity": 81}, {"time": 2256, "pitch": 74, "duration": 1, "velocity": 81}, {"time": 2259, "pitch": 71, "duration": 9, "velocity": 81}, {"time": 2271, "pitch": 79, "duration": 3, "velocity": 81}, {"time": 2277, "pitch": 76, "duration": 3, "velocity": 81}, {"time": 2283, "pitch": 74, "duration": 4, "velocity": 81}, {"time": 2289, "pitch": 69, "duration": 15, "velocity": 81}, {"time": 2301, "pitch": 74, "duration": 4, "velocity": 81}, {"time": 2307, "pitch": 71, "duration": 25, "velocity": 81}, {"time": 2331, "pitch": 64, "duration": 2, "velocity": 81}, {"time": 2334, "pitch": 69, "duration": 1, "velocity": 81}, {"time": 2337, "pitch": 69, "duration": 1, "velocity": 81}, {"time": 2340, "pitch": 69, "duration": 1, "velocity": 81}, {"time": 2343, "pitch": 69, "duration": 4, "velocity": 81}, {"time": 2349, "pitch": 67, "duration": 4, "velocity": 81}, {"time": 2355, "pitch": 69, "duration": 1, "velocity": 81}, {"time": 2358, "pitch": 69, "duration": 3, "velocity": 81}, {"time": 2364, "pitch": 71, "duration": 1, "velocity": 81}, {"time": 2367, "pitch": 69, "duration": 4, "velocity": 81}, {"time": 2373, "pitch": 67, "duration": 3, "velocity": 81}, {"time": 2376, "pitch": 69, "duration": 2, "velocity": 81}, {"time": 2379, "pitch": 74, "duration": 4, "velocity": 81}, {"time": 2385, "pitch": 76, "duration": 8, "velocity": 81}, {"time": 2397, "pitch": 74, "duration": 3, "velocity": 81}, {"time": 2403, "pitch": 71, "duration": 21, "velocity": 81}, {"time": 2427, "pitch": 71, "duration": 5, "velocity": 81}, {"time": 2433, "pitch": 76, "duration": 3, "velocity": 81}, {"time": 2439, "pitch": 76, "duration": 5, "velocity": 81}, {"time": 2448, "pitch": 74, "duration": 2, "velocity": 81}, {"time": 2451, "pitch": 76, "duration": 3, "velocity": 81}, {"time": 2457, "pitch": 76, "duration": 1, "velocity": 81}, {"time": 2460, "pitch": 76, "duration": 5, "velocity": 81}, {"time": 2469, "pitch": 79, "duration": 4, "velocity": 81}, {"time": 2475, "pitch": 67, "duration": 9, "velocity": 81}, {"time": 2484, "pitch": 64, "duration": 7, "velocity": 82}, {"time": 2493, "pitch": 71, "duration": 4, "velocity": 82}, {"time": 2499, "pitch": 69, "duration": 17, "velocity": 83}, {"time": 2517, "pitch": 67, "duration": 3, "velocity": 83}, {"time": 2520, "pitch": 69, "duration": 3, "velocity": 83}, {"time": 2523, "pitch": 71, "duration": 1, "velocity": 83}, {"time": 2526, "pitch": 74, "duration": 1, "velocity": 83}, {"time": 2529, "pitch": 74, "duration": 1, "velocity": 83}, {"time": 2532, "pitch": 74, "duration": 1, "velocity": 83}, {"time": 2535, "pitch": 74, "duration": 4, "velocity": 83}, {"time": 2541, "pitch": 71, "duration": 4, "velocity": 83}, {"time": 2547, "pitch": 79, "duration": 3, "velocity": 83}, {"time": 2553, "pitch": 81, "duration": 8, "velocity": 83}, {"time": 2565, "pitch": 79, "duration": 3, "velocity": 84}, {"time": 2571, "pitch": 76, "duration": 34, "velocity": 84}, {"time": 2616, "pitch": 71, "duration": 2, "velocity": 84}, {"time": 2619, "pitch": 76, "duration": 3, "velocity": 84}, {"time": 2625, "pitch": 76, "duration": 1, "velocity": 84}, {"time": 2628, "pitch": 76, "duration": 1, "velocity": 84}, {"time": 2631, "pitch": 74, "duration": 3, "velocity": 84}, {"time": 2637, "pitch": 76, "duration": 1, "velocity": 84}, {"time": 2640, "pitch": 74, "duration": 1, "velocity": 84}, {"time": 2643, "pitch": 71, "duration": 9, "velocity": 84}, {"time": 2655, "pitch": 79, "duration": 3, "velocity": 85}, {"time": 2661, "pitch": 76, "duration": 3, "velocity": 85}, {"time": 2667, "pitch": 74, "duration": 4, "velocity": 85}, {"time": 2673, "pitch": 69, "duration": 15, "velocity": 85}, {"time": 2685, "pitch": 74, "duration": 4, "velocity": 85}, {"time": 2691, "pitch": 71, "duration": 25, "velocity": 85}, {"time": 2715, "pitch": 64, "duration": 2, "velocity": 85}, {"time": 2718, "pitch": 69, "duration": 1, "velocity": 85}, {"time": 2721, "pitch": 69, "duration": 1, "velocity": 85}, {"time": 2724, "pitch": 69, "duration": 1, "velocity": 85}, {"time": 2727, "pitch": 69, "duration": 4, "velocity": 85}, {"time": 2733, "pitch": 67, "duration": 4, "velocity": 85}, {"time": 2739, "pitch": 69, "duration": 1, "velocity": 85}, {"time": 2742, "pitch": 69, "duration": 3, "velocity": 85}, {"time": 2748, "pitch": 71, "duration": 1, "velocity": 85}, {"time": 2751, "pitch": 69, "duration": 4, "velocity": 85}, {"time": 2757, "pitch": 67, "duration": 3, "velocity": 85}, {"time": 2760, "pitch": 69, "duration": 2, "velocity": 86}, {"time": 2763, "pitch": 74, "duration": 4, "velocity": 86}, {"time": 2769, "pitch": 76, "duration": 8, "velocity": 86}, {"time": 2781, "pitch": 74, "duration": 3, "velocity": 87}, {"time": 2787, "pitch": 71, "duration": 21, "velocity": 87}, {"time": 2811, "pitch": 71, "duration": 5, "velocity": 87}, {"time": 2817, "pitch": 76, "duration": 3, "velocity": 87}, {"time": 2823, "pitch": 76, "duration": 5, "velocity": 87}, {"time": 2832, "pitch": 74, "duration": 2, "velocity": 86}, {"time": 2835, "pitch": 76, "duration": 3, "velocity": 86}, {"time": 2841, "pitch": 76, "duration": 1, "velocity": 86}, {"time": 2844, "pitch": 76, "duration": 5, "velocity": 86}, {"time": 2853, "pitch": 79, "duration": 4, "velocity": 85}, {"time": 2859, "pitch": 67, "duration": 9, "velocity": 85}, {"time": 2868, "pitch": 64, "duration": 7, "velocity": 85}, {"time": 2877, "pitch": 71, "duration": 4, "velocity": 85}, {"time": 2883, "pitch": 69, "duration": 17, "velocity": 85}, {"time": 2901, "pitch": 67, "duration": 3, "velocity": 85}, {"time": 2904, "pitch": 69, "duration": 3, "velocity": 85}, {"time": 2907, "pitch": 71, "duration": 1, "velocity": 85}, {"time": 2910, "pitch": 74, "duration": 1, "velocity": 85}, {"time": 2913, "pitch": 74, "duration": 1, "velocity": 85}, {"time": 2916, "pitch": 74, "duration": 1, "velocity": 85}, {"time": 2919, "pitch": 74, "duration": 4, "velocity": 85}, {"time": 2925, "pitch": 71, "duration": 4, "velocity": 85}, {"time": 2931, "pitch": 79, "duration": 3, "velocity": 85}, {"time": 2937, "pitch": 81, "duration": 8, "velocity": 85}, {"time": 2949, "pitch": 79, "duration": 3, "velocity": 85}, {"time": 2955, "pitch": 76, "duration": 34, "velocity": 85}, {"time": 3003, "pitch": 71, "duration": 5, "velocity": 85}, {"time": 3009, "pitch": 76, "duration": 4, "velocity": 85}, {"time": 3015, "pitch": 76, "duration": 5, "velocity": 85}, {"time": 3024, "pitch": 74, "duration": 4, "velocity": 86}, {"time": 3027, "pitch": 76, "duration": 4, "velocity": 86}, {"time": 3033, "pitch": 76, "duration": 1, "velocity": 86}, {"time": 3036, "pitch": 76, "duration": 5, "velocity": 87}, {"time": 3045, "pitch": 79, "duration": 3, "velocity": 87}, {"time": 3051, "pitch": 67, "duration": 9, "velocity": 87}, {"time": 3060, "pitch": 64, "duration": 8, "velocity": 87}, {"time": 3069, "pitch": 71, "duration": 5, "velocity": 87}, {"time": 3075, "pitch": 69, "duration": 6, "velocity": 87}, {"time": 3093, "pitch": 67, "duration": 3, "velocity": 88}, {"time": 3096, "pitch": 69, "duration": 4, "velocity": 88}, {"time": 3099, "pitch": 71, "duration": 1, "velocity": 88}, {"time": 3102, "pitch": 74, "duration": 1, "velocity": 88}, {"time": 3105, "pitch": 74, "duration": 1, "velocity": 88}, {"time": 3108, "pitch": 74, "duration": 1, "velocity": 88}, {"time": 3111, "pitch": 74, "duration": 4, "velocity": 88}, {"time": 3117, "pitch": 71, "duration": 2, "velocity": 88}, {"time": 3123, "pitch": 79, "duration": 5, "velocity": 88}, {"time": 3129, "pitch": 81, "duration": 45, "velocity": 88}, {"time": 3189, "pitch": 79, "duration": 6, "velocity": 88}, {"time": 3195, "pitch": 76, "duration": 61, "velocity": 88}], "annotations": [{"time": 3, "annotation": {"number": 64, "value": 80}, "group": "control_change"}, {"time": 27, "annotation": {"number": 64, "value": 79}, "group": "control_change"}, {"time": 87, "annotation": {"number": 64, "value": 78}, "group": "control_change"}, {"time": 135, "annotation": {"number": 64, "value": 76}, "group": "control_change"}, {"time": 159, "annotation": {"number": 64, "value": 76}, "group": "control_change"}, {"time": 243, "annotation": {"number": 64, "value": 85}, "group": "control_change"}, {"time": 267, "annotation": {"number": 64, "value": 84}, "group": "control_change"}, {"time": 363, "annotation": {"number": 64, "value": 83}, "group": "control_change"}, {"time": 471, "annotation": {"number": 64, "value": 74}, "group": "control_change"}, {"time": 483, "annotation": {"number": 64, "value": 75}, "group": "control_change"}, {"time": 507, "annotation": {"number": 64, "value": 76}, "group": "control_change"}, {"time": 543, "annotation": {"number": 64, "value": 78}, "group": "control_change"}, {"time": 567, "annotation": {"number": 64, "value": 79}, "group": "control_change"}, {"time": 627, "annotation": {"number": 64, "value": 80}, "group": "control_change"}, {"time": 687, "annotation": {"number": 64, "value": 81}, "group": "control_change"}, {"time": 759, "annotation": {"number": 64, "value": 74}, "group": "control_change"}, {"time": 783, "annotation": {"number": 64, "value": 75}, "group": "control_change"}, {"time": 819, "annotation": {"number": 64, "value": 76}, "group": "control_change"}, {"time": 831, "annotation": {"number": 64, "value": 78}, "group": "control_change"}, {"time": 855, "annotation": {"number": 64, "value": 79}, "group": "control_change"}, {"time": 975, "annotation": {"number": 64, "value": 80}, "group": "control_change"}, {"time": 1071, "annotation": {"number": 64, "value": 81}, "group": "control_change"}, {"time": 1083, "annotation": {"number": 64, "value": 83}, "group": "control_change"}, {"time": 1191, "annotation": {"number": 64, "value": 84}, "group": "control_change"}, {"time": 1215, "annotation": {"number": 64, "value": 85}, "group": "control_change"}, {"time": 1275, "annotation": {"number": 64, "value": 86}, "group": "control_change"}, {"time": 1299, "annotation": {"number": 64, "value": 88}, "group": "control_change"}, {"time": 1323, "annotation": {"number": 64, "value": 85}, "group": "control_change"}, {"time": 1347, "annotation": {"number": 64, "value": 84}, "group": "control_change"}, {"time": 1419, "annotation": {"number": 64, "value": 83}, "group": "control_change"}, {"time": 1431, "annotation": {"number": 64, "value": 81}, "group": "control_change"}, {"time": 1455, "annotation": {"number": 64, "value": 80}, "group": "control_change"}, {"time": 1491, "annotation": {"number": 64, "value": 79}, "group": "control_change"}, {"time": 1719, "annotation": {"number": 64, "value": 80}, "group": "control_change"}, {"time": 1743, "annotation": {"number": 64, "value": 81}, "group": "control_change"}, {"time": 1791, "annotation": {"number": 64, "value": 82}, "group": "control_change"}, {"time": 1839, "annotation": {"number": 64, "value": 83}, "group": "control_change"}, {"time": 1899, "annotation": {"number": 64, "value": 73}, "group": "control_change"}, {"time": 2115, "annotation": {"number": 64, "value": 72}, "group": "control_change"}, {"time": 2151, "annotation": {"number": 64, "value": 73}, "group": "control_change"}, {"time": 2235, "annotation": {"number": 64, "value": 74}, "group": "control_change"}, {"time": 2283, "annotation": {"number": 64, "value": 75}, "group": "control_change"}, {"time": 2331, "annotation": {"number": 64, "value": 76}, "group": "control_change"}, {"time": 2355, "annotation": {"number": 64, "value": 78}, "group": "control_change"}, {"time": 2451, "annotation": {"number": 64, "value": 79}, "group": "control_change"}, {"time": 2487, "annotation": {"number": 64, "value": 80}, "group": "control_change"}, {"time": 2511, "annotation": {"number": 64, "value": 81}, "group": "control_change"}, {"time": 2523, "annotation": {"number": 64, "value": 83}, "group": "control_change"}, {"time": 2559, "annotation": {"number": 64, "value": 84}, "group": "control_change"}, {"time": 2595, "annotation": {"number": 64, "value": 85}, "group": "control_change"}, {"time": 2619, "annotation": {"number": 64, "value": 86}, "group": "control_change"}, {"time": 2673, "annotation": {"number": 64, "value": 87}, "group": "control_change"}, {"time": 2727, "annotation": {"number": 64, "value": 88}, "group": "control_change"}, {"time": 2739, "annotation": {"number": 64, "value": 89}, "group": "control_change"}, {"time": 2751, "annotation": {"number": 64, "value": 86}, "group": "control_change"}, {"time": 2775, "annotation": {"number": 64, "value": 88}, "group": "control_change"}, {"time": 2859, "annotation": {"number": 64, "value": 89}, "group": "control_change"}, {"time": 2871, "annotation": {"number": 64, "value": 90}, "group": "control_change"}, {"time": 2895, "annotation": {"number": 64, "value": 89}, "group": "control_change"}, {"time": 2967, "annotation": {"number": 64, "value": 88}, "group": "control_change"}, {"time": 2979, "annotation": {"number": 64, "value": 86}, "group": "control_change"}, {"time": 3027, "annotation": {"number": 64, "value": 86}, "group": "control_change"}, {"time": 3051, "annotation": {"number": 64, "value": 86}, "group": "control_change"}, {"time": 3099, "annotation": {"number": 64, "value": 88}, "group": "control_change"}, {"time": 3123, "annotation": {"number": 64, "value": 89}, "group": "control_change"}, {"time": 3135, "annotation": {"number": 64, "value": 90}, "group": "control_change"}]}, {"program": 0, "is_drum": false, "name": "BRIDGE", "notes": [{"time": 123, "pitch": 71, "duration": 6, "velocity": 95}, {"time": 129, "pitch": 76, "duration": 1, "velocity": 95}, {"time": 132, "pitch": 76, "duration": 11, "velocity": 95}, {"time": 144, "pitch": 71, "duration": 2, "velocity": 95}, {"time": 147, "pitch": 79, "duration": 4, "velocity": 95}, {"time": 153, "pitch": 78, "duration": 1, "velocity": 95}, {"time": 156, "pitch": 76, "duration": 11, "velocity": 95}, {"time": 171, "pitch": 71, "duration": 7, "velocity": 95}, {"time": 177, "pitch": 76, "duration": 2, "velocity": 95}, {"time": 180, "pitch": 76, "duration": 9, "velocity": 95}, {"time": 192, "pitch": 71, "duration": 1, "velocity": 96}, {"time": 195, "pitch": 71, "duration": 3, "velocity": 96}, {"time": 201, "pitch": 69, "duration": 1, "velocity": 96}, {"time": 204, "pitch": 69, "duration": 11, "velocity": 96}, {"time": 219, "pitch": 71, "duration": 5, "velocity": 98}, {"time": 225, "pitch": 74, "duration": 1, "velocity": 98}, {"time": 228, "pitch": 74, "duration": 8, "velocity": 98}, {"time": 243, "pitch": 79, "duration": 9, "velocity": 98}, {"time": 255, "pitch": 78, "duration": 8, "velocity": 99}, {"time": 267, "pitch": 76, "duration": 48, "velocity": 99}, {"time": 1446, "pitch": 62, "duration": 4, "velocity": 100}, {"time": 1449, "pitch": 64, "duration": 3, "velocity": 100}, {"time": 1452, "pitch": 67, "duration": 2, "velocity": 100}, {"time": 1455, "pitch": 69, "duration": 3, "velocity": 100}, {"time": 1458, "pitch": 69, "duration": 1, "velocity": 100}, {"time": 1461, "pitch": 71, "duration": 2, "velocity": 100}, {"time": 1464, "pitch": 74, "duration": 1, "velocity": 100}, {"time": 1467, "pitch": 79, "duration": 22, "velocity": 100}, {"time": 1482, "pitch": 71, "duration": 2, "velocity": 100}, {"time": 1485, "pitch": 74, "duration": 1, "velocity": 100}, {"time": 1488, "pitch": 79, "duration": 1, "velocity": 100}, {"time": 1491, "pitch": 81, "duration": 18, "velocity": 100}, {"time": 1511, "pitch": 74, "duration": 3, "velocity": 100}, {"time": 1513, "pitch": 76, "duration": 2, "velocity": 100}, {"time": 1515, "pitch": 78, "duration": 14, "velocity": 100}, {"time": 1530, "pitch": 71, "duration": 2, "velocity": 100}, {"time": 1533, "pitch": 74, "duration": 2, "velocity": 100}, {"time": 1536, "pitch": 76, "duration": 1, "velocity": 100}, {"time": 1539, "pitch": 79, "duration": 18, "velocity": 100}, {"time": 1559, "pitch": 76, "duration": 2, "velocity": 100}, {"time": 1561, "pitch": 78, "duration": 2, "velocity": 100}, {"time": 1562, "pitch": 79, "duration": 16, "velocity": 100}, {"time": 1578, "pitch": 74, "duration": 3, "velocity": 100}, {"time": 1581, "pitch": 76, "duration": 2, "velocity": 100}, {"time": 1584, "pitch": 78, "duration": 1, "velocity": 100}, {"time": 1587, "pitch": 79, "duration": 5, "velocity": 100}, {"time": 1593, "pitch": 78, "duration": 1, "velocity": 100}, {"time": 1596, "pitch": 78, "duration": 8, "velocity": 100}, {"time": 1605, "pitch": 74, "duration": 4, "velocity": 100}, {"time": 1611, "pitch": 76, "duration": 18, "velocity": 100}, {"time": 1626, "pitch": 71, "duration": 2, "velocity": 100}, {"time": 1629, "pitch": 76, "duration": 1, "velocity": 100}, {"time": 1632, "pitch": 79, "duration": 2, "velocity": 100}, {"time": 1635, "pitch": 78, "duration": 26, "velocity": 100}, {"time": 1659, "pitch": 71, "duration": 6, "velocity": 100}, {"time": 1665, "pitch": 76, "duration": 1, "velocity": 100}, {"time": 1668, "pitch": 76, "duration": 11, "velocity": 100}, {"time": 1680, "pitch": 71, "duration": 2, "velocity": 100}, {"time": 1683, "pitch": 79, "duration": 4, "velocity": 100}, {"time": 1689, "pitch": 78, "duration": 1, "velocity": 100}, {"time": 1692, "pitch": 76, "duration": 10, "velocity": 100}, {"time": 1707, "pitch": 71, "duration": 5, "velocity": 100}, {"time": 1713, "pitch": 76, "duration": 1, "velocity": 100}, {"time": 1716, "pitch": 76, "duration": 7, "velocity": 100}, {"time": 1725, "pitch": 71, "duration": 4, "velocity": 100}, {"time": 1731, "pitch": 71, "duration": 3, "velocity": 100}, {"time": 1737, "pitch": 69, "duration": 2, "velocity": 100}, {"time": 1740, "pitch": 69, "duration": 9, "velocity": 100}, {"time": 1755, "pitch": 71, "duration": 6, "velocity": 100}, {"time": 1761, "pitch": 74, "duration": 2, "velocity": 100}, {"time": 1764, "pitch": 74, "duration": 5, "velocity": 100}, {"time": 1773, "pitch": 71, "duration": 2, "velocity": 100}, {"time": 1776, "pitch": 74, "duration": 2, "velocity": 99}, {"time": 1779, "pitch": 79, "duration": 7, "velocity": 99}, {"time": 1788, "pitch": 78, "duration": 1, "velocity": 99}, {"time": 1791, "pitch": 76, "duration": 5, "velocity": 99}, {"time": 1797, "pitch": 74, "duration": 5, "velocity": 99}, {"time": 1803, "pitch": 76, "duration": 36, "velocity": 99}], "annotations": [{"time": 39, "annotation": {"number": 64, "value": 86}, "group": "control_change"}, {"time": 75, "annotation": {"number": 64, "value": 88}, "group": "control_change"}, {"time": 123, "annotation": {"number": 64, "value": 90}, "group": "control_change"}, {"time": 159, "annotation": {"number": 64, "value": 91}, "group": "control_change"}, {"time": 183, "annotation": {"number": 64, "value": 92}, "group": "control_change"}, {"time": 363, "annotation": {"number": 64, "value": 91}, "group": "control_change"}, {"time": 387, "annotation": {"number": 64, "value": 90}, "group": "control_change"}, {"time": 459, "annotation": {"number": 64, "value": 89}, "group": "control_change"}, {"time": 579, "annotation": {"number": 64, "value": 90}, "group": "control_change"}, {"time": 615, "annotation": {"number": 64, "value": 92}, "group": "control_change"}, {"time": 639, "annotation": {"number": 64, "value": 94}, "group": "control_change"}, {"time": 651, "annotation": {"number": 64, "value": 95}, "group": "control_change"}, {"time": 663, "annotation": {"number": 64, "value": 96}, "group": "control_change"}, {"time": 819, "annotation": {"number": 64, "value": 97}, "group": "control_change"}, {"time": 867, "annotation": {"number": 64, "value": 98}, "group": "control_change"}, {"time": 915, "annotation": {"number": 64, "value": 99}, "group": "control_change"}, {"time": 963, "annotation": {"number": 64, "value": 100}, "group": "control_change"}, {"time": 1107, "annotation": {"number": 64, "value": 99}, "group": "control_change"}, {"time": 1143, "annotation": {"number": 64, "value": 97}, "group": "control_change"}, {"time": 1155, "annotation": {"number": 64, "value": 96}, "group": "control_change"}, {"time": 1167, "annotation": {"number": 64, "value": 95}, "group": "control_change"}, {"time": 1179, "annotation": {"number": 64, "value": 94}, "group": "control_change"}, {"time": 1191, "annotation": {"number": 64, "value": 92}, "group": "control_change"}, {"time": 1215, "annotation": {"number": 64, "value": 91}, "group": "control_change"}, {"time": 1239, "annotation": {"number": 64, "value": 90}, "group": "control_change"}, {"time": 1263, "annotation": {"number": 64, "value": 89}, "group": "control_change"}, {"time": 1299, "annotation": {"number": 64, "value": 88}, "group": "control_change"}, {"time": 1311, "annotation": {"number": 64, "value": 86}, "group": "control_change"}, {"time": 1323, "annotation": {"number": 64, "value": 85}, "group": "control_change"}, {"time": 1371, "annotation": {"number": 64, "value": 83}, "group": "control_change"}, {"time": 1395, "annotation": {"number": 64, "value": 80}, "group": "control_change"}, {"time": 1419, "annotation": {"number": 64, "value": 79}, "group": "control_change"}, {"time": 1431, "annotation": {"number": 64, "value": 76}, "group": "control_change"}, {"time": 1455, "annotation": {"number": 64, "value": 75}, "group": "control_change"}, {"time": 1491, "annotation": {"number": 64, "value": 74}, "group": "control_change"}, {"time": 1551, "annotation": {"number": 64, "value": 73}, "group": "control_change"}, {"time": 1611, "annotation": {"number": 64, "value": 74}, "group": "control_change"}, {"time": 1623, "annotation": {"number": 64, "value": 75}, "group": "control_change"}, {"time": 1659, "annotation": {"number": 64, "value": 76}, "group": "control_change"}, {"time": 1671, "annotation": {"number": 64, "value": 78}, "group": "control_change"}, {"time": 1683, "annotation": {"number": 64, "value": 79}, "group": "control_change"}, {"time": 1707, "annotation": {"number": 64, "value": 80}, "group": "control_change"}, {"time": 1755, "annotation": {"number": 64, "value": 81}, "group": "control_change"}, {"time": 1767, "annotation": {"number": 64, "value": 83}, "group": "control_change"}, {"time": 1803, "annotation": {"number": 64, "value": 84}, "group": "control_change"}, {"time": 1815, "annotation": {"number": 64, "value": 85}, "group": "control_change"}, {"time": 1839, "annotation": {"number": 64, "value": 86}, "group": "control_change"}, {"time": 1851, "annotation": {"number": 64, "value": 89}, "group": "control_change"}, {"time": 1875, "annotation": {"number": 64, "value": 90}, "group": "control_change"}, {"time": 1887, "annotation": {"number": 64, "value": 91}, "group": "control_change"}, {"time": 1911, "annotation": {"number": 64, "value": 92}, "group": "control_change"}, {"time": 1923, "annotation": {"number": 64, "value": 94}, "group": "control_change"}, {"time": 1959, "annotation": {"number": 64, "value": 95}, "group": "control_change"}]}, {"program": 0, "is_drum": false, "name": "PIANO", "notes": [{"time": 21, "pitch": 40, "duration": 100, "velocity": 66}, {"time": 21, "pitch": 59, "duration": 99, "velocity": 54}, {"time": 21, "pitch": 64, "duration": 99, "velocity": 53}, {"time": 21, "pitch": 67, "duration": 99, "velocity": 61}, {"time": 123, "pitch": 40, "duration": 16, "velocity": 79}, {"time": 123, "pitch": 55, "duration": 11, "velocity": 79}, {"time": 123, "pitch": 59, "duration": 11, "velocity": 79}, {"time": 123, "pitch": 64, "duration": 11, "velocity": 79}, {"time": 135, "pitch": 55, "duration": 4, "velocity": 79}, {"time": 135, "pitch": 59, "duration": 4, "velocity": 79}, {"time": 135, "pitch": 64, "duration": 4, "velocity": 79}, {"time": 147, "pitch": 36, "duration": 16, "velocity": 79}, {"time": 147, "pitch": 52, "duration": 10, "velocity": 79}, {"time": 147, "pitch": 55, "duration": 10, "velocity": 79}, {"time": 147, "pitch": 60, "duration": 10, "velocity": 79}, {"time": 159, "pitch": 52, "duration": 6, "velocity": 79}, {"time": 159, "pitch": 55, "duration": 6, "velocity": 79}, {"time": 159, "pitch": 60, "duration": 6, "velocity": 79}, {"time": 171, "pitch": 40, "duration": 13, "velocity": 79}, {"time": 171, "pitch": 55, "duration": 11, "velocity": 79}, {"time": 171, "pitch": 59, "duration": 11, "velocity": 79}, {"time": 171, "pitch": 64, "duration": 11, "velocity": 79}, {"time": 177, "pitch": 47, "duration": 7, "velocity": 79}, {"time": 183, "pitch": 55, "duration": 6, "velocity": 79}, {"time": 183, "pitch": 59, "duration": 6, "velocity": 79}, {"time": 183, "pitch": 64, "duration": 6, "velocity": 79}, {"time": 195, "pitch": 45, "duration": 13, "velocity": 79}, {"time": 195, "pitch": 60, "duration": 10, "velocity": 79}, {"time": 195, "pitch": 64, "duration": 11, "velocity": 79}, {"time": 195, "pitch": 69, "duration": 11, "velocity": 79}, {"time": 207, "pitch": 60, "duration": 6, "velocity": 79}, {"time": 207, "pitch": 64, "duration": 6, "velocity": 79}, {"time": 207, "pitch": 69, "duration": 5, "velocity": 79}, {"time": 219, "pitch": 38, "duration": 18, "velocity": 78}, {"time": 219, "pitch": 54, "duration": 10, "velocity": 78}, {"time": 219, "pitch": 57, "duration": 10, "velocity": 78}, {"time": 219, "pitch": 62, "duration": 10, "velocity": 78}, {"time": 231, "pitch": 54, "duration": 6, "velocity": 78}, {"time": 231, "pitch": 57, "duration": 5, "velocity": 78}, {"time": 231, "pitch": 62, "duration": 5, "velocity": 78}, {"time": 243, "pitch": 36, "duration": 7, "velocity": 78}, {"time": 243, "pitch": 52, "duration": 8, "velocity": 78}, {"time": 243, "pitch": 55, "duration": 8, "velocity": 78}, {"time": 243, "pitch": 60, "duration": 8, "velocity": 78}, {"time": 255, "pitch": 38, "duration": 12, "velocity": 78}, {"time": 255, "pitch": 54, "duration": 7, "velocity": 78}, {"time": 255, "pitch": 57, "duration": 12, "velocity": 78}, {"time": 255, "pitch": 62, "duration": 8, "velocity": 78}, {"time": 267, "pitch": 40, "duration": 11, "velocity": 82}, {"time": 267, "pitch": 52, "duration": 8, "velocity": 82}, {"time": 267, "pitch": 55, "duration": 8, "velocity": 82}, {"time": 267, "pitch": 59, "duration": 7, "velocity": 82}, {"time": 276, "pitch": 52, "duration": 2, "velocity": 85}, {"time": 276, "pitch": 55, "duration": 2, "velocity": 85}, {"time": 276, "pitch": 59, "duration": 1, "velocity": 85}, {"time": 285, "pitch": 40, "duration": 30, "velocity": 83}, {"time": 285, "pitch": 52, "duration": 30, "velocity": 83}, {"time": 285, "pitch": 55, "duration": 30, "velocity": 83}, {"time": 285, "pitch": 59, "duration": 30, "velocity": 83}, {"time": 315, "pitch": 40, "duration": 1, "velocity": 76}, {"time": 315, "pitch": 55, "duration": 1, "velocity": 76}, {"time": 315, "pitch": 59, "duration": 1, "velocity": 76}, {"time": 315, "pitch": 64, "duration": 10, "velocity": 76}, {"time": 327, "pitch": 55, "duration": 5, "velocity": 76}, {"time": 327, "pitch": 59, "duration": 5, "velocity": 76}, {"time": 327, "pitch": 64, "duration": 5, "velocity": 76}, {"time": 339, "pitch": 38, "duration": 18, "velocity": 76}, {"time": 339, "pitch": 54, "duration": 19, "velocity": 76}, {"time": 339, "pitch": 57, "duration": 19, "velocity": 76}, {"time": 339, "pitch": 62, "duration": 19, "velocity": 76}, {"time": 345, "pitch": 45, "duration": 15, "velocity": 76}, {"time": 354, "pitch": 50, "duration": 9, "velocity": 76}, {"time": 363, "pitch": 40, "duration": 43, "velocity": 76}, {"time": 369, "pitch": 47, "duration": 36, "velocity": 76}, {"time": 375, "pitch": 55, "duration": 30, "velocity": 76}, {"time": 375, "pitch": 59, "duration": 8, "velocity": 76}, {"time": 375, "pitch": 64, "duration": 7, "velocity": 76}, {"time": 381, "pitch": 52, "duration": 23, "velocity": 76}, {"time": 387, "pitch": 59, "duration": 19, "velocity": 76}, {"time": 387, "pitch": 64, "duration": 18, "velocity": 76}, {"time": 411, "pitch": 40, "duration": 19, "velocity": 76}, {"time": 417, "pitch": 47, "duration": 11, "velocity": 76}, {"time": 423, "pitch": 55, "duration": 5, "velocity": 76}, {"time": 423, "pitch": 59, "duration": 5, "velocity": 76}, {"time": 423, "pitch": 64, "duration": 5, "velocity": 76}, {"time": 435, "pitch": 36, "duration": 12, "velocity": 75}, {"time": 435, "pitch": 52, "duration": 10, "velocity": 75}, {"time": 435, "pitch": 55, "duration": 11, "velocity": 75}, {"time": 435, "pitch": 60, "duration": 10, "velocity": 75}, {"time": 441, "pitch": 43, "duration": 6, "velocity": 75}, {"time": 447, "pitch": 52, "duration": 5, "velocity": 74}, {"time": 447, "pitch": 55, "duration": 6, "velocity": 74}, {"time": 447, "pitch": 60, "duration": 5, "velocity": 74}, {"time": 459, "pitch": 43, "duration": 39, "velocity": 74}, {"time": 459, "pitch": 59, "duration": 11, "velocity": 74}, {"time": 459, "pitch": 62, "duration": 23, "velocity": 74}, {"time": 459, "pitch": 67, "duration": 10, "velocity": 74}, {"time": 465, "pitch": 50, "duration": 31, "velocity": 74}, {"time": 471, "pitch": 59, "duration": 10, "velocity": 74}, {"time": 471, "pitch": 67, "duration": 9, "velocity": 74}, {"time": 477, "pitch": 55, "duration": 17, "velocity": 74}, {"time": 483, "pitch": 59, "duration": 15, "velocity": 74}, {"time": 483, "pitch": 62, "duration": 14, "velocity": 74}, {"time": 483, "pitch": 67, "duration": 14, "velocity": 74}, {"time": 507, "pitch": 40, "duration": 40, "velocity": 74}, {"time": 513, "pitch": 47, "duration": 32, "velocity": 74}, {"time": 519, "pitch": 55, "duration": 10, "velocity": 74}, {"time": 519, "pitch": 59, "duration": 10, "velocity": 74}, {"time": 519, "pitch": 64, "duration": 10, "velocity": 74}, {"time": 525, "pitch": 52, "duration": 18, "velocity": 74}, {"time": 531, "pitch": 55, "duration": 10, "velocity": 74}, {"time": 531, "pitch": 59, "duration": 10, "velocity": 74}, {"time": 531, "pitch": 64, "duration": 9, "velocity": 74}, {"time": 543, "pitch": 55, "duration": 6, "velocity": 74}, {"time": 543, "pitch": 59, "duration": 6, "velocity": 74}, {"time": 543, "pitch": 64, "duration": 6, "velocity": 74}, {"time": 555, "pitch": 45, "duration": 40, "velocity": 74}, {"time": 555, "pitch": 60, "duration": 10, "velocity": 74}, {"time": 555, "pitch": 64, "duration": 10, "velocity": 74}, {"time": 555, "pitch": 69, "duration": 10, "velocity": 74}, {"time": 561, "pitch": 52, "duration": 30, "velocity": 74}, {"time": 567, "pitch": 60, "duration": 10, "velocity": 74}, {"time": 567, "pitch": 64, "duration": 10, "velocity": 74}, {"time": 567, "pitch": 69, "duration": 9, "velocity": 74}, {"time": 573, "pitch": 57, "duration": 17, "velocity": 74}, {"time": 579, "pitch": 60, "duration": 11, "velocity": 74}, {"time": 579, "pitch": 64, "duration": 10, "velocity": 74}, {"time": 579, "pitch": 69, "duration": 16, "velocity": 74}, {"time": 591, "pitch": 60, "duration": 6, "velocity": 74}, {"time": 591, "pitch": 64, "duration": 5, "velocity": 74}, {"time": 600, "pitch": 43, "duration": 22, "velocity": 74}, {"time": 615, "pitch": 50, "duration": 11, "velocity": 74}, {"time": 615, "pitch": 55, "duration": 11, "velocity": 74}, {"time": 615, "pitch": 59, "duration": 10, "velocity": 74}, {"time": 627, "pitch": 38, "duration": 18, "velocity": 74}, {"time": 633, "pitch": 50, "duration": 18, "velocity": 74}, {"time": 639, "pitch": 54, "duration": 7, "velocity": 74}, {"time": 639, "pitch": 57, "duration": 6, "velocity": 74}, {"time": 645, "pitch": 50, "duration": 6, "velocity": 74}, {"time": 651, "pitch": 40, "duration": 47, "velocity": 74}, {"time": 657, "pitch": 47, "duration": 41, "velocity": 74}, {"time": 663, "pitch": 55, "duration": 10, "velocity": 74}, {"time": 663, "pitch": 59, "duration": 10, "velocity": 74}, {"time": 663, "pitch": 64, "duration": 10, "velocity": 74}, {"time": 669, "pitch": 52, "duration": 10, "velocity": 74}, {"time": 675, "pitch": 55, "duration": 22, "velocity": 74}, {"time": 675, "pitch": 59, "duration": 19, "velocity": 74}, {"time": 675, "pitch": 64, "duration": 13, "velocity": 74}, {"time": 687, "pitch": 52, "duration": 10, "velocity": 74}, {"time": 699, "pitch": 40, "duration": 20, "velocity": 74}, {"time": 699, "pitch": 55, "duration": 10, "velocity": 74}, {"time": 699, "pitch": 59, "duration": 10, "velocity": 74}, {"time": 699, "pitch": 64, "duration": 10, "velocity": 74}, {"time": 705, "pitch": 47, "duration": 13, "velocity": 74}, {"time": 711, "pitch": 55, "duration": 7, "velocity": 74}, {"time": 711, "pitch": 59, "duration": 7, "velocity": 74}, {"time": 711, "pitch": 64, "duration": 7, "velocity": 74}, {"time": 723, "pitch": 38, "duration": 18, "velocity": 74}, {"time": 723, "pitch": 54, "duration": 10, "velocity": 74}, {"time": 723, "pitch": 57, "duration": 10, "velocity": 74}, {"time": 723, "pitch": 62, "duration": 8, "velocity": 74}, {"time": 729, "pitch": 45, "duration": 18, "velocity": 74}, {"time": 735, "pitch": 54, "duration": 7, "velocity": 74}, {"time": 735, "pitch": 57, "duration": 6, "velocity": 74}, {"time": 735, "pitch": 62, "duration": 5, "velocity": 74}, {"time": 741, "pitch": 50, "duration": 5, "velocity": 74}, {"time": 747, "pitch": 40, "duration": 43, "velocity": 74}, {"time": 747, "pitch": 55, "duration": 10, "velocity": 74}, {"time": 747, "pitch": 59, "duration": 8, "velocity": 74}, {"time": 747, "pitch": 64, "duration": 7, "velocity": 74}, {"time": 753, "pitch": 47, "duration": 36, "velocity": 74}, {"time": 759, "pitch": 55, "duration": 10, "velocity": 74}, {"time": 759, "pitch": 59, "duration": 8, "velocity": 74}, {"time": 759, "pitch": 64, "duration": 6, "velocity": 74}, {"time": 765, "pitch": 52, "duration": 22, "velocity": 74}, {"time": 771, "pitch": 55, "duration": 10, "velocity": 74}, {"time": 771, "pitch": 59, "duration": 10, "velocity": 74}, {"time": 771, "pitch": 64, "duration": 9, "velocity": 74}, {"time": 783, "pitch": 55, "duration": 8, "velocity": 74}, {"time": 783, "pitch": 59, "duration": 8, "velocity": 74}, {"time": 783, "pitch": 64, "duration": 7, "velocity": 74}, {"time": 795, "pitch": 40, "duration": 19, "velocity": 75}, {"time": 795, "pitch": 55, "duration": 10, "velocity": 75}, {"time": 795, "pitch": 59, "duration": 10, "velocity": 75}, {"time": 795, "pitch": 64, "duration": 10, "velocity": 75}, {"time": 801, "pitch": 47, "duration": 11, "velocity": 76}, {"time": 807, "pitch": 55, "duration": 6, "velocity": 77}, {"time": 807, "pitch": 59, "duration": 6, "velocity": 77}, {"time": 807, "pitch": 64, "duration": 6, "velocity": 77}, {"time": 819, "pitch": 36, "duration": 17, "velocity": 78}, {"time": 819, "pitch": 52, "duration": 10, "velocity": 78}, {"time": 819, "pitch": 55, "duration": 10, "velocity": 78}, {"time": 819, "pitch": 60, "duration": 9, "velocity": 78}, {"time": 825, "pitch": 43, "duration": 12, "velocity": 78}, {"time": 831, "pitch": 52, "duration": 6, "velocity": 78}, {"time": 831, "pitch": 55, "duration": 6, "velocity": 78}, {"time": 831, "pitch": 60, "duration": 6, "velocity": 78}, {"time": 837, "pitch": 48, "duration": 6, "velocity": 79}, {"time": 843, "pitch": 43, "duration": 39, "velocity": 79}, {"time": 843, "pitch": 59, "duration": 10, "velocity": 79}, {"time": 843, "pitch": 62, "duration": 10, "velocity": 79}, {"time": 843, "pitch": 67, "duration": 10, "velocity": 79}, {"time": 849, "pitch": 50, "duration": 30, "velocity": 79}, {"time": 855, "pitch": 59, "duration": 10, "velocity": 79}, {"time": 855, "pitch": 62, "duration": 10, "velocity": 79}, {"time": 855, "pitch": 67, "duration": 10, "velocity": 79}, {"time": 861, "pitch": 55, "duration": 17, "velocity": 80}, {"time": 867, "pitch": 59, "duration": 10, "velocity": 80}, {"time": 867, "pitch": 62, "duration": 10, "velocity": 80}, {"time": 867, "pitch": 67, "duration": 10, "velocity": 80}, {"time": 879, "pitch": 59, "duration": 4, "velocity": 81}, {"time": 879, "pitch": 62, "duration": 4, "velocity": 81}, {"time": 879, "pitch": 67, "duration": 4, "velocity": 81}, {"time": 891, "pitch": 40, "duration": 35, "velocity": 81}, {"time": 891, "pitch": 55, "duration": 10, "velocity": 81}, {"time": 891, "pitch": 59, "duration": 10, "velocity": 81}, {"time": 891, "pitch": 64, "duration": 8, "velocity": 81}, {"time": 897, "pitch": 47, "duration": 29, "velocity": 81}, {"time": 903, "pitch": 55, "duration": 10, "velocity": 82}, {"time": 903, "pitch": 59, "duration": 10, "velocity": 82}, {"time": 903, "pitch": 64, "duration": 10, "velocity": 82}, {"time": 909, "pitch": 52, "duration": 7, "velocity": 82}, {"time": 915, "pitch": 55, "duration": 10, "velocity": 82}, {"time": 915, "pitch": 59, "duration": 9, "velocity": 82}, {"time": 915, "pitch": 64, "duration": 9, "velocity": 82}, {"time": 921, "pitch": 52, "duration": 5, "velocity": 82}, {"time": 927, "pitch": 55, "duration": 6, "velocity": 82}, {"time": 927, "pitch": 59, "duration": 6, "velocity": 82}, {"time": 927, "pitch": 64, "duration": 6, "velocity": 82}, {"time": 939, "pitch": 45, "duration": 48, "velocity": 83}, {"time": 939, "pitch": 60, "duration": 11, "velocity": 83}, {"time": 939, "pitch": 64, "duration": 11, "velocity": 83}, {"time": 939, "pitch": 69, "duration": 11, "velocity": 83}, {"time": 945, "pitch": 52, "duration": 41, "velocity": 84}, {"time": 951, "pitch": 60, "duration": 10, "velocity": 84}, {"time": 951, "pitch": 64, "duration": 10, "velocity": 84}, {"time": 951, "pitch": 69, "duration": 10, "velocity": 84}, {"time": 957, "pitch": 57, "duration": 8, "velocity": 84}, {"time": 963, "pitch": 60, "duration": 10, "velocity": 84}, {"time": 963, "pitch": 64, "duration": 10, "velocity": 84}, {"time": 963, "pitch": 69, "duration": 10, "velocity": 84}, {"time": 969, "pitch": 57, "duration": 9, "velocity": 84}, {"time": 975, "pitch": 60, "duration": 10, "velocity": 84}, {"time": 975, "pitch": 64, "duration": 10, "velocity": 84}, {"time": 975, "pitch": 69, "duration": 10, "velocity": 84}, {"time": 987, "pitch": 43, "duration": 18, "velocity": 84}, {"time": 987, "pitch": 59, "duration": 9, "velocity": 84}, {"time": 987, "pitch": 62, "duration": 9, "velocity": 84}, {"time": 987, "pitch": 67, "duration": 10, "velocity": 84}, {"time": 993, "pitch": 50, "duration": 11, "velocity": 84}, {"time": 999, "pitch": 59, "duration": 6, "velocity": 84}, {"time": 999, "pitch": 62, "duration": 5, "velocity": 84}, {"time": 999, "pitch": 67, "duration": 5, "velocity": 84}, {"time": 1011, "pitch": 38, "duration": 24, "velocity": 84}, {"time": 1011, "pitch": 54, "duration": 9, "velocity": 84}, {"time": 1011, "pitch": 57, "duration": 10, "velocity": 84}, {"time": 1011, "pitch": 62, "duration": 10, "velocity": 84}, {"time": 1017, "pitch": 45, "duration": 21, "velocity": 84}, {"time": 1023, "pitch": 54, "duration": 12, "velocity": 84}, {"time": 1023, "pitch": 57, "duration": 11, "velocity": 84}, {"time": 1023, "pitch": 62, "duration": 11, "velocity": 84}, {"time": 1035, "pitch": 40, "duration": 43, "velocity": 84}, {"time": 1035, "pitch": 55, "duration": 11, "velocity": 84}, {"time": 1035, "pitch": 59, "duration": 11, "velocity": 84}, {"time": 1035, "pitch": 64, "duration": 11, "velocity": 84}, {"time": 1041, "pitch": 47, "duration": 36, "velocity": 84}, {"time": 1047, "pitch": 55, "duration": 11, "velocity": 84}, {"time": 1047, "pitch": 59, "duration": 11, "velocity": 84}, {"time": 1047, "pitch": 64, "duration": 11, "velocity": 84}, {"time": 1053, "pitch": 52, "duration": 20, "velocity": 84}, {"time": 1059, "pitch": 55, "duration": 3, "velocity": 84}, {"time": 1059, "pitch": 59, "duration": 3, "velocity": 84}, {"time": 1059, "pitch": 64, "duration": 3, "velocity": 84}, {"time": 1065, "pitch": 55, "duration": 3, "velocity": 84}, {"time": 1065, "pitch": 59, "duration": 3, "velocity": 84}, {"time": 1065, "pitch": 64, "duration": 3, "velocity": 84}, {"time": 1083, "pitch": 40, "duration": 38, "velocity": 84}, {"time": 1083, "pitch": 55, "duration": 10, "velocity": 84}, {"time": 1083, "pitch": 59, "duration": 10, "velocity": 84}, {"time": 1083, "pitch": 64, "duration": 10, "velocity": 84}, {"time": 1089, "pitch": 47, "duration": 31, "velocity": 84}, {"time": 1095, "pitch": 55, "duration": 10, "velocity": 84}, {"time": 1095, "pitch": 59, "duration": 10, "velocity": 84}, {"time": 1095, "pitch": 64, "duration": 10, "velocity": 84}, {"time": 1101, "pitch": 52, "duration": 8, "velocity": 84}, {"time": 1107, "pitch": 55, "duration": 10, "velocity": 83}, {"time": 1107, "pitch": 59, "duration": 10, "velocity": 83}, {"time": 1107, "pitch": 64, "duration": 10, "velocity": 83}, {"time": 1113, "pitch": 52, "duration": 5, "velocity": 83}, {"time": 1119, "pitch": 55, "duration": 4, "velocity": 83}, {"time": 1119, "pitch": 59, "duration": 4, "velocity": 83}, {"time": 1119, "pitch": 64, "duration": 4, "velocity": 83}, {"time": 1131, "pitch": 38, "duration": 17, "velocity": 83}, {"time": 1131, "pitch": 54, "duration": 11, "velocity": 83}, {"time": 1131, "pitch": 57, "duration": 11, "velocity": 83}, {"time": 1131, "pitch": 62, "duration": 10, "velocity": 83}, {"time": 1137, "pitch": 45, "duration": 12, "velocity": 83}, {"time": 1143, "pitch": 54, "duration": 6, "velocity": 83}, {"time": 1143, "pitch": 57, "duration": 5, "velocity": 83}, {"time": 1143, "pitch": 62, "duration": 5, "velocity": 83}, {"time": 1155, "pitch": 43, "duration": 23, "velocity": 83}, {"time": 1155, "pitch": 59, "duration": 10, "velocity": 83}, {"time": 1155, "pitch": 62, "duration": 10, "velocity": 83}, {"time": 1155, "pitch": 67, "duration": 10, "velocity": 83}, {"time": 1161, "pitch": 50, "duration": 17, "velocity": 83}, {"time": 1167, "pitch": 59, "duration": 10, "velocity": 83}, {"time": 1167, "pitch": 62, "duration": 10, "velocity": 83}, {"time": 1167, "pitch": 67, "duration": 10, "velocity": 83}, {"time": 1173, "pitch": 55, "duration": 5, "velocity": 83}, {"time": 1179, "pitch": 45, "duration": 48, "velocity": 83}, {"time": 1179, "pitch": 60, "duration": 11, "velocity": 83}, {"time": 1179, "pitch": 64, "duration": 11, "velocity": 83}, {"time": 1179, "pitch": 69, "duration": 11, "velocity": 83}, {"time": 1185, "pitch": 52, "duration": 42, "velocity": 83}, {"time": 1191, "pitch": 60, "duration": 11, "velocity": 83}, {"time": 1191, "pitch": 64, "duration": 11, "velocity": 83}, {"time": 1191, "pitch": 69, "duration": 11, "velocity": 83}, {"time": 1197, "pitch": 57, "duration": 7, "velocity": 83}, {"time": 1203, "pitch": 60, "duration": 10, "velocity": 83}, {"time": 1203, "pitch": 64, "duration": 10, "velocity": 83}, {"time": 1203, "pitch": 69, "duration": 10, "velocity": 83}, {"time": 1209, "pitch": 57, "duration": 7, "velocity": 83}, {"time": 1215, "pitch": 60, "duration": 7, "velocity": 83}, {"time": 1215, "pitch": 64, "duration": 6, "velocity": 83}, {"time": 1215, "pitch": 69, "duration": 6, "velocity": 83}, {"time": 1221, "pitch": 57, "duration": 3, "velocity": 83}, {"time": 1227, "pitch": 38, "duration": 17, "velocity": 83}, {"time": 1227, "pitch": 54, "duration": 11, "velocity": 83}, {"time": 1227, "pitch": 57, "duration": 10, "velocity": 83}, {"time": 1227, "pitch": 62, "duration": 10, "velocity": 83}, {"time": 1233, "pitch": 45, "duration": 11, "velocity": 83}, {"time": 1239, "pitch": 54, "duration": 6, "velocity": 83}, {"time": 1239, "pitch": 57, "duration": 6, "velocity": 83}, {"time": 1239, "pitch": 62, "duration": 5, "velocity": 83}, {"time": 1251, "pitch": 43, "duration": 17, "velocity": 83}, {"time": 1251, "pitch": 59, "duration": 10, "velocity": 83}, {"time": 1251, "pitch": 62, "duration": 10, "velocity": 83}, {"time": 1251, "pitch": 67, "duration": 10, "velocity": 83}, {"time": 1257, "pitch": 50, "duration": 11, "velocity": 83}, {"time": 1263, "pitch": 59, "duration": 6, "velocity": 83}, {"time": 1263, "pitch": 62, "duration": 6, "velocity": 83}, {"time": 1263, "pitch": 67, "duration": 6, "velocity": 83}, {"time": 1275, "pitch": 40, "duration": 18, "velocity": 83}, {"time": 1275, "pitch": 55, "duration": 10, "velocity": 83}, {"time": 1275, "pitch": 59, "duration": 11, "velocity": 83}, {"time": 1275, "pitch": 64, "duration": 10, "velocity": 83}, {"time": 1281, "pitch": 47, "duration": 10, "velocity": 83}, {"time": 1287, "pitch": 55, "duration": 5, "velocity": 83}, {"time": 1287, "pitch": 59, "duration": 5, "velocity": 83}, {"time": 1287, "pitch": 64, "duration": 5, "velocity": 83}, {"time": 1299, "pitch": 36, "duration": 17, "velocity": 83}, {"time": 1299, "pitch": 52, "duration": 10, "velocity": 83}, {"time": 1299, "pitch": 55, "duration": 10, "velocity": 83}, {"time": 1299, "pitch": 60, "duration": 10, "velocity": 83}, {"time": 1305, "pitch": 43, "duration": 12, "velocity": 83}, {"time": 1311, "pitch": 52, "duration": 6, "velocity": 83}, {"time": 1311, "pitch": 55, "duration": 6, "velocity": 83}, {"time": 1311, "pitch": 60, "duration": 6, "velocity": 83}, {"time": 1323, "pitch": 40, "duration": 17, "velocity": 82}, {"time": 1323, "pitch": 55, "duration": 10, "velocity": 82}, {"time": 1323, "pitch": 59, "duration": 10, "velocity": 82}, {"time": 1323, "pitch": 64, "duration": 10, "velocity": 82}, {"time": 1323, "pitch": 67, "duration": 7, "velocity": 82}, {"time": 1335, "pitch": 55, "duration": 6, "velocity": 82}, {"time": 1335, "pitch": 59, "duration": 6, "velocity": 82}, {"time": 1335, "pitch": 64, "duration": 6, "velocity": 82}, {"time": 1347, "pitch": 45, "duration": 24, "velocity": 82}, {"time": 1347, "pitch": 60, "duration": 10, "velocity": 82}, {"time": 1347, "pitch": 64, "duration": 10, "velocity": 82}, {"time": 1347, "pitch": 69, "duration": 10, "velocity": 82}, {"time": 1353, "pitch": 52, "duration": 16, "velocity": 81}, {"time": 1359, "pitch": 60, "duration": 9, "velocity": 81}, {"time": 1359, "pitch": 64, "duration": 9, "velocity": 81}, {"time": 1359, "pitch": 69, "duration": 9, "velocity": 81}, {"time": 1365, "pitch": 57, "duration": 5, "velocity": 81}, {"time": 1371, "pitch": 38, "duration": 19, "velocity": 81}, {"time": 1371, "pitch": 54, "duration": 10, "velocity": 81}, {"time": 1371, "pitch": 57, "duration": 10, "velocity": 81}, {"time": 1371, "pitch": 62, "duration": 9, "velocity": 81}, {"time": 1383, "pitch": 54, "duration": 6, "velocity": 80}, {"time": 1383, "pitch": 57, "duration": 6, "velocity": 80}, {"time": 1383, "pitch": 62, "duration": 5, "velocity": 80}, {"time": 1395, "pitch": 36, "duration": 6, "velocity": 80}, {"time": 1395, "pitch": 52, "duration": 6, "velocity": 80}, {"time": 1395, "pitch": 55, "duration": 6, "velocity": 80}, {"time": 1395, "pitch": 60, "duration": 6, "velocity": 80}, {"time": 1407, "pitch": 38, "duration": 6, "velocity": 80}, {"time": 1407, "pitch": 54, "duration": 6, "velocity": 80}, {"time": 1407, "pitch": 57, "duration": 5, "velocity": 80}, {"time": 1407, "pitch": 62, "duration": 5, "velocity": 80}, {"time": 1419, "pitch": 40, "duration": 36, "velocity": 80}, {"time": 1419, "pitch": 55, "duration": 11, "velocity": 80}, {"time": 1419, "pitch": 59, "duration": 11, "velocity": 80}, {"time": 1419, "pitch": 64, "duration": 11, "velocity": 80}, {"time": 1425, "pitch": 47, "duration": 29, "velocity": 80}, {"time": 1431, "pitch": 55, "duration": 11, "velocity": 79}, {"time": 1431, "pitch": 59, "duration": 11, "velocity": 79}, {"time": 1431, "pitch": 64, "duration": 10, "velocity": 79}, {"time": 1437, "pitch": 52, "duration": 8, "velocity": 79}, {"time": 1443, "pitch": 55, "duration": 11, "velocity": 79}, {"time": 1443, "pitch": 59, "duration": 11, "velocity": 79}, {"time": 1443, "pitch": 64, "duration": 11, "velocity": 79}, {"time": 1449, "pitch": 52, "duration": 4, "velocity": 79}, {"time": 1467, "pitch": 43, "duration": 18, "velocity": 79}, {"time": 1467, "pitch": 59, "duration": 11, "velocity": 79}, {"time": 1467, "pitch": 62, "duration": 11, "velocity": 79}, {"time": 1467, "pitch": 67, "duration": 11, "velocity": 79}, {"time": 1473, "pitch": 50, "duration": 11, "velocity": 79}, {"time": 1479, "pitch": 59, "duration": 5, "velocity": 79}, {"time": 1479, "pitch": 62, "duration": 5, "velocity": 79}, {"time": 1479, "pitch": 67, "duration": 5, "velocity": 79}, {"time": 1491, "pitch": 38, "duration": 17, "velocity": 78}, {"time": 1491, "pitch": 54, "duration": 10, "velocity": 78}, {"time": 1491, "pitch": 57, "duration": 10, "velocity": 78}, {"time": 1491, "pitch": 62, "duration": 9, "velocity": 78}, {"time": 1497, "pitch": 45, "duration": 12, "velocity": 78}, {"time": 1503, "pitch": 50, "duration": 10, "velocity": 78}, {"time": 1503, "pitch": 54, "duration": 6, "velocity": 78}, {"time": 1503, "pitch": 57, "duration": 6, "velocity": 78}, {"time": 1503, "pitch": 62, "duration": 6, "velocity": 78}, {"time": 1515, "pitch": 47, "duration": 23, "velocity": 78}, {"time": 1515, "pitch": 59, "duration": 10, "velocity": 78}, {"time": 1515, "pitch": 62, "duration": 10, "velocity": 78}, {"time": 1527, "pitch": 59, "duration": 10, "velocity": 78}, {"time": 1527, "pitch": 62, "duration": 10, "velocity": 78}, {"time": 1527, "pitch": 66, "duration": 10, "velocity": 78}, {"time": 1539, "pitch": 40, "duration": 25, "velocity": 78}, {"time": 1539, "pitch": 55, "duration": 10, "velocity": 78}, {"time": 1539, "pitch": 59, "duration": 10, "velocity": 78}, {"time": 1539, "pitch": 64, "duration": 10, "velocity": 78}, {"time": 1551, "pitch": 55, "duration": 12, "velocity": 78}, {"time": 1551, "pitch": 59, "duration": 11, "velocity": 78}, {"time": 1551, "pitch": 64, "duration": 11, "velocity": 78}, {"time": 1563, "pitch": 36, "duration": 19, "velocity": 78}, {"time": 1563, "pitch": 52, "duration": 10, "velocity": 78}, {"time": 1563, "pitch": 55, "duration": 10, "velocity": 78}, {"time": 1563, "pitch": 60, "duration": 10, "velocity": 78}, {"time": 1575, "pitch": 52, "duration": 6, "velocity": 78}, {"time": 1575, "pitch": 55, "duration": 7, "velocity": 78}, {"time": 1575, "pitch": 60, "duration": 6, "velocity": 78}, {"time": 1587, "pitch": 38, "duration": 23, "velocity": 78}, {"time": 1587, "pitch": 54, "duration": 10, "velocity": 78}, {"time": 1587, "pitch": 57, "duration": 10, "velocity": 78}, {"time": 1587, "pitch": 62, "duration": 10, "velocity": 78}, {"time": 1593, "pitch": 45, "duration": 17, "velocity": 78}, {"time": 1599, "pitch": 54, "duration": 11, "velocity": 78}, {"time": 1599, "pitch": 57, "duration": 11, "velocity": 78}, {"time": 1599, "pitch": 62, "duration": 9, "velocity": 78}, {"time": 1611, "pitch": 36, "duration": 18, "velocity": 78}, {"time": 1611, "pitch": 52, "duration": 10, "velocity": 78}, {"time": 1611, "pitch": 55, "duration": 10, "velocity": 78}, {"time": 1611, "pitch": 60, "duration": 10, "velocity": 78}, {"time": 1617, "pitch": 43, "duration": 13, "velocity": 78}, {"time": 1623, "pitch": 52, "duration": 8, "velocity": 78}, {"time": 1623, "pitch": 55, "duration": 8, "velocity": 78}, {"time": 1623, "pitch": 60, "duration": 7, "velocity": 78}, {"time": 1635, "pitch": 47, "duration": 20, "velocity": 78}, {"time": 1635, "pitch": 54, "duration": 19, "velocity": 78}, {"time": 1635, "pitch": 59, "duration": 10, "velocity": 78}, {"time": 1635, "pitch": 63, "duration": 10, "velocity": 78}, {"time": 1635, "pitch": 66, "duration": 10, "velocity": 78}, {"time": 1647, "pitch": 59, "duration": 10, "velocity": 78}, {"time": 1647, "pitch": 63, "duration": 11, "velocity": 78}, {"time": 1647, "pitch": 66, "duration": 11, "velocity": 78}, {"time": 1659, "pitch": 40, "duration": 19, "velocity": 78}, {"time": 1659, "pitch": 55, "duration": 11, "velocity": 78}, {"time": 1659, "pitch": 59, "duration": 10, "velocity": 78}, {"time": 1659, "pitch": 64, "duration": 10, "velocity": 78}, {"time": 1665, "pitch": 47, "duration": 12, "velocity": 78}, {"time": 1671, "pitch": 55, "duration": 6, "velocity": 78}, {"time": 1671, "pitch": 59, "duration": 5, "velocity": 78}, {"time": 1671, "pitch": 64, "duration": 5, "velocity": 78}, {"time": 1683, "pitch": 36, "duration": 18, "velocity": 78}, {"time": 1683, "pitch": 52, "duration": 10, "velocity": 78}, {"time": 1683, "pitch": 55, "duration": 11, "velocity": 78}, {"time": 1683, "pitch": 60, "duration": 10, "velocity": 78}, {"time": 1689, "pitch": 43, "duration": 13, "velocity": 78}, {"time": 1695, "pitch": 52, "duration": 6, "velocity": 78}, {"time": 1695, "pitch": 55, "duration": 6, "velocity": 78}, {"time": 1695, "pitch": 60, "duration": 6, "velocity": 78}, {"time": 1701, "pitch": 48, "duration": 5, "velocity": 78}, {"time": 1707, "pitch": 40, "duration": 17, "velocity": 78}, {"time": 1707, "pitch": 55, "duration": 10, "velocity": 78}, {"time": 1707, "pitch": 59, "duration": 10, "velocity": 78}, {"time": 1707, "pitch": 64, "duration": 10, "velocity": 78}, {"time": 1713, "pitch": 47, "duration": 11, "velocity": 78}, {"time": 1719, "pitch": 55, "duration": 6, "velocity": 78}, {"time": 1719, "pitch": 59, "duration": 6, "velocity": 78}, {"time": 1719, "pitch": 64, "duration": 6, "velocity": 78}, {"time": 1725, "pitch": 52, "duration": 6, "velocity": 78}, {"time": 1731, "pitch": 45, "duration": 23, "velocity": 78}, {"time": 1731, "pitch": 60, "duration": 11, "velocity": 78}, {"time": 1731, "pitch": 64, "duration": 11, "velocity": 78}, {"time": 1731, "pitch": 69, "duration": 10, "velocity": 78}, {"time": 1737, "pitch": 52, "duration": 16, "velocity": 78}, {"time": 1743, "pitch": 60, "duration": 10, "velocity": 78}, {"time": 1743, "pitch": 64, "duration": 10, "velocity": 78}, {"time": 1743, "pitch": 69, "duration": 10, "velocity": 78}, {"time": 1755, "pitch": 38, "duration": 18, "velocity": 78}, {"time": 1755, "pitch": 54, "duration": 11, "velocity": 78}, {"time": 1755, "pitch": 57, "duration": 11, "velocity": 78}, {"time": 1755, "pitch": 62, "duration": 5, "velocity": 78}, {"time": 1767, "pitch": 54, "duration": 6, "velocity": 78}, {"time": 1767, "pitch": 57, "duration": 5, "velocity": 78}, {"time": 1767, "pitch": 62, "duration": 5, "velocity": 78}, {"time": 1779, "pitch": 36, "duration": 10, "velocity": 77}, {"time": 1779, "pitch": 52, "duration": 6, "velocity": 77}, {"time": 1779, "pitch": 55, "duration": 6, "velocity": 77}, {"time": 1779, "pitch": 60, "duration": 6, "velocity": 77}, {"time": 1791, "pitch": 38, "duration": 11, "velocity": 76}, {"time": 1791, "pitch": 54, "duration": 6, "velocity": 76}, {"time": 1791, "pitch": 57, "duration": 6, "velocity": 76}, {"time": 1791, "pitch": 62, "duration": 5, "velocity": 76}, {"time": 1803, "pitch": 40, "duration": 42, "velocity": 76}, {"time": 1803, "pitch": 55, "duration": 11, "velocity": 76}, {"time": 1803, "pitch": 59, "duration": 11, "velocity": 76}, {"time": 1803, "pitch": 64, "duration": 11, "velocity": 76}, {"time": 1809, "pitch": 47, "duration": 24, "velocity": 76}, {"time": 1815, "pitch": 55, "duration": 10, "velocity": 76}, {"time": 1815, "pitch": 59, "duration": 10, "velocity": 76}, {"time": 1815, "pitch": 64, "duration": 10, "velocity": 76}, {"time": 1821, "pitch": 52, "duration": 7, "velocity": 76}, {"time": 1827, "pitch": 55, "duration": 19, "velocity": 76}, {"time": 1827, "pitch": 59, "duration": 19, "velocity": 76}, {"time": 1827, "pitch": 64, "duration": 18, "velocity": 76}, {"time": 1851, "pitch": 40, "duration": 20, "velocity": 76}, {"time": 1851, "pitch": 55, "duration": 10, "velocity": 76}, {"time": 1851, "pitch": 59, "duration": 10, "velocity": 76}, {"time": 1851, "pitch": 64, "duration": 10, "velocity": 76}, {"time": 1857, "pitch": 47, "duration": 13, "velocity": 76}, {"time": 1863, "pitch": 55, "duration": 7, "velocity": 76}, {"time": 1863, "pitch": 59, "duration": 7, "velocity": 76}, {"time": 1863, "pitch": 64, "duration": 7, "velocity": 76}, {"time": 1875, "pitch": 38, "duration": 18, "velocity": 76}, {"time": 1875, "pitch": 54, "duration": 10, "velocity": 76}, {"time": 1875, "pitch": 57, "duration": 10, "velocity": 76}, {"time": 1875, "pitch": 62, "duration": 8, "velocity": 76}, {"time": 1881, "pitch": 45, "duration": 18, "velocity": 77}, {"time": 1887, "pitch": 54, "duration": 7, "velocity": 77}, {"time": 1887, "pitch": 57, "duration": 6, "velocity": 77}, {"time": 1887, "pitch": 62, "duration": 5, "velocity": 77}, {"time": 1893, "pitch": 50, "duration": 5, "velocity": 78}, {"time": 1899, "pitch": 40, "duration": 43, "velocity": 78}, {"time": 1899, "pitch": 55, "duration": 10, "velocity": 78}, {"time": 1899, "pitch": 59, "duration": 8, "velocity": 78}, {"time": 1899, "pitch": 64, "duration": 7, "velocity": 78}, {"time": 1905, "pitch": 47, "duration": 36, "velocity": 78}, {"time": 1911, "pitch": 55, "duration": 10, "velocity": 78}, {"time": 1911, "pitch": 59, "duration": 8, "velocity": 78}, {"time": 1911, "pitch": 64, "duration": 6, "velocity": 78}, {"time": 1917, "pitch": 52, "duration": 22, "velocity": 78}, {"time": 1923, "pitch": 55, "duration": 10, "velocity": 78}, {"time": 1923, "pitch": 59, "duration": 10, "velocity": 78}, {"time": 1923, "pitch": 64, "duration": 9, "velocity": 78}, {"time": 1935, "pitch": 55, "duration": 8, "velocity": 78}, {"time": 1935, "pitch": 59, "duration": 8, "velocity": 78}, {"time": 1935, "pitch": 64, "duration": 7, "velocity": 78}, {"time": 1947, "pitch": 40, "duration": 19, "velocity": 78}, {"time": 1947, "pitch": 55, "duration": 10, "velocity": 78}, {"time": 1947, "pitch": 59, "duration": 10, "velocity": 78}, {"time": 1947, "pitch": 64, "duration": 10, "velocity": 78}, {"time": 1953, "pitch": 47, "duration": 11, "velocity": 79}, {"time": 1959, "pitch": 55, "duration": 6, "velocity": 79}, {"time": 1959, "pitch": 59, "duration": 6, "velocity": 79}, {"time": 1959, "pitch": 64, "duration": 6, "velocity": 79}, {"time": 1971, "pitch": 36, "duration": 17, "velocity": 79}, {"time": 1971, "pitch": 52, "duration": 10, "velocity": 79}, {"time": 1971, "pitch": 55, "duration": 10, "velocity": 79}, {"time": 1971, "pitch": 60, "duration": 9, "velocity": 79}, {"time": 1977, "pitch": 43, "duration": 12, "velocity": 79}, {"time": 1983, "pitch": 52, "duration": 6, "velocity": 79}, {"time": 1983, "pitch": 55, "duration": 6, "velocity": 79}, {"time": 1983, "pitch": 60, "duration": 6, "velocity": 79}, {"time": 1989, "pitch": 48, "duration": 6, "velocity": 79}, {"time": 1995, "pitch": 43, "duration": 39, "velocity": 79}, {"time": 1995, "pitch": 59, "duration": 10, "velocity": 79}, {"time": 1995, "pitch": 62, "duration": 10, "velocity": 79}, {"time": 1995, "pitch": 67, "duration": 10, "velocity": 79}, {"time": 2001, "pitch": 50, "duration": 30, "velocity": 79}, {"time": 2007, "pitch": 59, "duration": 10, "velocity": 79}, {"time": 2007, "pitch": 62, "duration": 10, "velocity": 79}, {"time": 2007, "pitch": 67, "duration": 10, "velocity": 79}, {"time": 2013, "pitch": 55, "duration": 17, "velocity": 79}, {"time": 2019, "pitch": 59, "duration": 10, "velocity": 79}, {"time": 2019, "pitch": 62, "duration": 10, "velocity": 79}, {"time": 2019, "pitch": 67, "duration": 10, "velocity": 79}, {"time": 2031, "pitch": 59, "duration": 4, "velocity": 79}, {"time": 2031, "pitch": 62, "duration": 4, "velocity": 79}, {"time": 2031, "pitch": 67, "duration": 4, "velocity": 79}, {"time": 2043, "pitch": 40, "duration": 35, "velocity": 79}, {"time": 2043, "pitch": 55, "duration": 10, "velocity": 79}, {"time": 2043, "pitch": 59, "duration": 10, "velocity": 79}, {"time": 2043, "pitch": 64, "duration": 8, "velocity": 79}, {"time": 2049, "pitch": 47, "duration": 29, "velocity": 79}, {"time": 2055, "pitch": 55, "duration": 10, "velocity": 79}, {"time": 2055, "pitch": 59, "duration": 10, "velocity": 79}, {"time": 2055, "pitch": 64, "duration": 10, "velocity": 79}, {"time": 2061, "pitch": 52, "duration": 7, "velocity": 79}, {"time": 2067, "pitch": 55, "duration": 10, "velocity": 79}, {"time": 2067, "pitch": 59, "duration": 9, "velocity": 79}, {"time": 2067, "pitch": 64, "duration": 9, "velocity": 79}, {"time": 2073, "pitch": 52, "duration": 5, "velocity": 79}, {"time": 2079, "pitch": 55, "duration": 6, "velocity": 79}, {"time": 2079, "pitch": 59, "duration": 6, "velocity": 79}, {"time": 2079, "pitch": 64, "duration": 6, "velocity": 79}, {"time": 2091, "pitch": 45, "duration": 48, "velocity": 79}, {"time": 2091, "pitch": 60, "duration": 11, "velocity": 79}, {"time": 2091, "pitch": 64, "duration": 11, "velocity": 79}, {"time": 2091, "pitch": 69, "duration": 11, "velocity": 79}, {"time": 2097, "pitch": 52, "duration": 41, "velocity": 79}, {"time": 2103, "pitch": 60, "duration": 10, "velocity": 79}, {"time": 2103, "pitch": 64, "duration": 10, "velocity": 79}, {"time": 2103, "pitch": 69, "duration": 10, "velocity": 79}, {"time": 2109, "pitch": 57, "duration": 8, "velocity": 79}, {"time": 2115, "pitch": 60, "duration": 10, "velocity": 79}, {"time": 2115, "pitch": 64, "duration": 10, "velocity": 79}, {"time": 2115, "pitch": 69, "duration": 10, "velocity": 79}, {"time": 2121, "pitch": 57, "duration": 9, "velocity": 78}, {"time": 2127, "pitch": 60, "duration": 10, "velocity": 78}, {"time": 2127, "pitch": 64, "duration": 10, "velocity": 78}, {"time": 2127, "pitch": 69, "duration": 10, "velocity": 78}, {"time": 2139, "pitch": 43, "duration": 18, "velocity": 78}, {"time": 2139, "pitch": 59, "duration": 9, "velocity": 78}, {"time": 2139, "pitch": 62, "duration": 9, "velocity": 78}, {"time": 2139, "pitch": 67, "duration": 10, "velocity": 78}, {"time": 2145, "pitch": 50, "duration": 11, "velocity": 78}, {"time": 2151, "pitch": 59, "duration": 6, "velocity": 78}, {"time": 2151, "pitch": 62, "duration": 5, "velocity": 78}, {"time": 2151, "pitch": 67, "duration": 5, "velocity": 78}, {"time": 2163, "pitch": 38, "duration": 24, "velocity": 77}, {"time": 2163, "pitch": 54, "duration": 9, "velocity": 77}, {"time": 2163, "pitch": 57, "duration": 10, "velocity": 77}, {"time": 2163, "pitch": 62, "duration": 10, "velocity": 77}, {"time": 2169, "pitch": 45, "duration": 21, "velocity": 77}, {"time": 2175, "pitch": 54, "duration": 12, "velocity": 76}, {"time": 2175, "pitch": 57, "duration": 11, "velocity": 76}, {"time": 2175, "pitch": 62, "duration": 11, "velocity": 76}, {"time": 2187, "pitch": 40, "duration": 43, "velocity": 76}, {"time": 2187, "pitch": 55, "duration": 11, "velocity": 76}, {"time": 2187, "pitch": 59, "duration": 11, "velocity": 76}, {"time": 2187, "pitch": 64, "duration": 11, "velocity": 76}, {"time": 2193, "pitch": 47, "duration": 36, "velocity": 75}, {"time": 2199, "pitch": 55, "duration": 11, "velocity": 75}, {"time": 2199, "pitch": 59, "duration": 11, "velocity": 75}, {"time": 2199, "pitch": 64, "duration": 11, "velocity": 75}, {"time": 2205, "pitch": 52, "duration": 20, "velocity": 75}, {"time": 2211, "pitch": 55, "duration": 3, "velocity": 75}, {"time": 2211, "pitch": 59, "duration": 3, "velocity": 75}, {"time": 2211, "pitch": 64, "duration": 3, "velocity": 75}, {"time": 2217, "pitch": 55, "duration": 3, "velocity": 75}, {"time": 2217, "pitch": 59, "duration": 3, "velocity": 75}, {"time": 2217, "pitch": 64, "duration": 3, "velocity": 75}, {"time": 2223, "pitch": 55, "duration": 4, "velocity": 75}, {"time": 2223, "pitch": 59, "duration": 4, "velocity": 75}, {"time": 2223, "pitch": 64, "duration": 4, "velocity": 75}, {"time": 2235, "pitch": 40, "duration": 38, "velocity": 74}, {"time": 2235, "pitch": 55, "duration": 10, "velocity": 74}, {"time": 2235, "pitch": 59, "duration": 10, "velocity": 74}, {"time": 2235, "pitch": 64, "duration": 10, "velocity": 74}, {"time": 2241, "pitch": 47, "duration": 31, "velocity": 74}, {"time": 2247, "pitch": 55, "duration": 10, "velocity": 74}, {"time": 2247, "pitch": 59, "duration": 10, "velocity": 74}, {"time": 2247, "pitch": 64, "duration": 10, "velocity": 74}, {"time": 2253, "pitch": 52, "duration": 8, "velocity": 74}, {"time": 2259, "pitch": 55, "duration": 10, "velocity": 74}, {"time": 2259, "pitch": 59, "duration": 10, "velocity": 74}, {"time": 2259, "pitch": 64, "duration": 10, "velocity": 74}, {"time": 2265, "pitch": 52, "duration": 5, "velocity": 74}, {"time": 2271, "pitch": 55, "duration": 4, "velocity": 74}, {"time": 2271, "pitch": 59, "duration": 4, "velocity": 74}, {"time": 2271, "pitch": 64, "duration": 4, "velocity": 74}, {"time": 2283, "pitch": 38, "duration": 17, "velocity": 74}, {"time": 2283, "pitch": 54, "duration": 11, "velocity": 74}, {"time": 2283, "pitch": 57, "duration": 11, "velocity": 74}, {"time": 2283, "pitch": 62, "duration": 10, "velocity": 74}, {"time": 2289, "pitch": 45, "duration": 12, "velocity": 74}, {"time": 2295, "pitch": 54, "duration": 6, "velocity": 74}, {"time": 2295, "pitch": 57, "duration": 5, "velocity": 74}, {"time": 2295, "pitch": 62, "duration": 5, "velocity": 74}, {"time": 2307, "pitch": 43, "duration": 23, "velocity": 73}, {"time": 2307, "pitch": 59, "duration": 10, "velocity": 73}, {"time": 2307, "pitch": 62, "duration": 10, "velocity": 73}, {"time": 2307, "pitch": 67, "duration": 10, "velocity": 73}, {"time": 2313, "pitch": 50, "duration": 17, "velocity": 73}, {"time": 2319, "pitch": 59, "duration": 10, "velocity": 73}, {"time": 2319, "pitch": 62, "duration": 10, "velocity": 73}, {"time": 2319, "pitch": 67, "duration": 10, "velocity": 73}, {"time": 2325, "pitch": 55, "duration": 5, "velocity": 73}, {"time": 2331, "pitch": 45, "duration": 48, "velocity": 73}, {"time": 2331, "pitch": 60, "duration": 11, "velocity": 73}, {"time": 2331, "pitch": 64, "duration": 11, "velocity": 73}, {"time": 2331, "pitch": 69, "duration": 11, "velocity": 73}, {"time": 2337, "pitch": 52, "duration": 42, "velocity": 73}, {"time": 2343, "pitch": 60, "duration": 11, "velocity": 73}, {"time": 2343, "pitch": 64, "duration": 11, "velocity": 73}, {"time": 2343, "pitch": 69, "duration": 11, "velocity": 73}, {"time": 2349, "pitch": 57, "duration": 7, "velocity": 73}, {"time": 2355, "pitch": 60, "duration": 10, "velocity": 73}, {"time": 2355, "pitch": 64, "duration": 10, "velocity": 73}, {"time": 2355, "pitch": 69, "duration": 10, "velocity": 73}, {"time": 2361, "pitch": 57, "duration": 7, "velocity": 73}, {"time": 2367, "pitch": 60, "duration": 7, "velocity": 72}, {"time": 2367, "pitch": 64, "duration": 6, "velocity": 72}, {"time": 2367, "pitch": 69, "duration": 6, "velocity": 72}, {"time": 2373, "pitch": 57, "duration": 3, "velocity": 72}, {"time": 2379, "pitch": 38, "duration": 17, "velocity": 72}, {"time": 2379, "pitch": 54, "duration": 11, "velocity": 72}, {"time": 2379, "pitch": 57, "duration": 10, "velocity": 72}, {"time": 2379, "pitch": 62, "duration": 10, "velocity": 72}, {"time": 2385, "pitch": 45, "duration": 11, "velocity": 72}, {"time": 2391, "pitch": 54, "duration": 6, "velocity": 72}, {"time": 2391, "pitch": 57, "duration": 6, "velocity": 72}, {"time": 2391, "pitch": 62, "duration": 5, "velocity": 72}, {"time": 2397, "pitch": 50, "duration": 1, "velocity": 72}, {"time": 2403, "pitch": 43, "duration": 17, "velocity": 72}, {"time": 2403, "pitch": 59, "duration": 10, "velocity": 72}, {"time": 2403, "pitch": 62, "duration": 10, "velocity": 72}, {"time": 2403, "pitch": 67, "duration": 10, "velocity": 72}, {"time": 2409, "pitch": 50, "duration": 11, "velocity": 72}, {"time": 2415, "pitch": 59, "duration": 6, "velocity": 72}, {"time": 2415, "pitch": 62, "duration": 6, "velocity": 72}, {"time": 2415, "pitch": 67, "duration": 6, "velocity": 72}, {"time": 2427, "pitch": 40, "duration": 18, "velocity": 72}, {"time": 2427, "pitch": 55, "duration": 10, "velocity": 72}, {"time": 2427, "pitch": 59, "duration": 11, "velocity": 72}, {"time": 2427, "pitch": 64, "duration": 10, "velocity": 72}, {"time": 2433, "pitch": 47, "duration": 10, "velocity": 72}, {"time": 2439, "pitch": 55, "duration": 5, "velocity": 72}, {"time": 2439, "pitch": 59, "duration": 5, "velocity": 72}, {"time": 2439, "pitch": 64, "duration": 5, "velocity": 72}, {"time": 2451, "pitch": 36, "duration": 17, "velocity": 72}, {"time": 2451, "pitch": 52, "duration": 10, "velocity": 72}, {"time": 2451, "pitch": 55, "duration": 10, "velocity": 72}, {"time": 2451, "pitch": 60, "duration": 10, "velocity": 72}, {"time": 2457, "pitch": 43, "duration": 12, "velocity": 72}, {"time": 2463, "pitch": 52, "duration": 6, "velocity": 72}, {"time": 2463, "pitch": 55, "duration": 6, "velocity": 72}, {"time": 2463, "pitch": 60, "duration": 6, "velocity": 72}, {"time": 2469, "pitch": 48, "duration": 2, "velocity": 72}, {"time": 2475, "pitch": 40, "duration": 17, "velocity": 72}, {"time": 2475, "pitch": 55, "duration": 10, "velocity": 72}, {"time": 2475, "pitch": 59, "duration": 10, "velocity": 72}, {"time": 2475, "pitch": 64, "duration": 10, "velocity": 72}, {"time": 2475, "pitch": 67, "duration": 7, "velocity": 72}, {"time": 2487, "pitch": 55, "duration": 6, "velocity": 72}, {"time": 2487, "pitch": 59, "duration": 6, "velocity": 72}, {"time": 2487, "pitch": 64, "duration": 6, "velocity": 72}, {"time": 2499, "pitch": 45, "duration": 24, "velocity": 72}, {"time": 2499, "pitch": 60, "duration": 10, "velocity": 72}, {"time": 2499, "pitch": 64, "duration": 10, "velocity": 72}, {"time": 2499, "pitch": 69, "duration": 10, "velocity": 72}, {"time": 2505, "pitch": 52, "duration": 16, "velocity": 72}, {"time": 2511, "pitch": 60, "duration": 9, "velocity": 72}, {"time": 2511, "pitch": 64, "duration": 9, "velocity": 72}, {"time": 2511, "pitch": 69, "duration": 9, "velocity": 72}, {"time": 2517, "pitch": 57, "duration": 5, "velocity": 72}, {"time": 2523, "pitch": 38, "duration": 19, "velocity": 72}, {"time": 2523, "pitch": 54, "duration": 10, "velocity": 72}, {"time": 2523, "pitch": 57, "duration": 10, "velocity": 72}, {"time": 2523, "pitch": 62, "duration": 9, "velocity": 72}, {"time": 2535, "pitch": 54, "duration": 6, "velocity": 72}, {"time": 2535, "pitch": 57, "duration": 6, "velocity": 72}, {"time": 2535, "pitch": 62, "duration": 5, "velocity": 72}, {"time": 2547, "pitch": 36, "duration": 6, "velocity": 72}, {"time": 2547, "pitch": 52, "duration": 6, "velocity": 72}, {"time": 2547, "pitch": 55, "duration": 6, "velocity": 72}, {"time": 2547, "pitch": 60, "duration": 6, "velocity": 72}, {"time": 2559, "pitch": 38, "duration": 6, "velocity": 72}, {"time": 2559, "pitch": 54, "duration": 6, "velocity": 72}, {"time": 2559, "pitch": 57, "duration": 5, "velocity": 72}, {"time": 2559, "pitch": 62, "duration": 5, "velocity": 72}, {"time": 2571, "pitch": 40, "duration": 36, "velocity": 72}, {"time": 2571, "pitch": 55, "duration": 11, "velocity": 72}, {"time": 2571, "pitch": 59, "duration": 11, "velocity": 72}, {"time": 2571, "pitch": 64, "duration": 11, "velocity": 72}, {"time": 2577, "pitch": 47, "duration": 29, "velocity": 72}, {"time": 2583, "pitch": 55, "duration": 11, "velocity": 72}, {"time": 2583, "pitch": 59, "duration": 11, "velocity": 72}, {"time": 2583, "pitch": 64, "duration": 10, "velocity": 72}, {"time": 2589, "pitch": 52, "duration": 8, "velocity": 72}, {"time": 2595, "pitch": 55, "duration": 11, "velocity": 72}, {"time": 2595, "pitch": 59, "duration": 11, "velocity": 72}, {"time": 2595, "pitch": 64, "duration": 11, "velocity": 72}, {"time": 2601, "pitch": 52, "duration": 4, "velocity": 72}, {"time": 2607, "pitch": 55, "duration": 4, "velocity": 72}, {"time": 2607, "pitch": 59, "duration": 4, "velocity": 72}, {"time": 2607, "pitch": 64, "duration": 4, "velocity": 72}, {"time": 2619, "pitch": 40, "duration": 38, "velocity": 72}, {"time": 2619, "pitch": 55, "duration": 10, "velocity": 72}, {"time": 2619, "pitch": 59, "duration": 10, "velocity": 72}, {"time": 2619, "pitch": 64, "duration": 10, "velocity": 72}, {"time": 2625, "pitch": 47, "duration": 31, "velocity": 72}, {"time": 2631, "pitch": 55, "duration": 10, "velocity": 72}, {"time": 2631, "pitch": 59, "duration": 10, "velocity": 72}, {"time": 2631, "pitch": 64, "duration": 10, "velocity": 72}, {"time": 2637, "pitch": 52, "duration": 8, "velocity": 72}, {"time": 2643, "pitch": 55, "duration": 10, "velocity": 72}, {"time": 2643, "pitch": 59, "duration": 10, "velocity": 72}, {"time": 2643, "pitch": 64, "duration": 10, "velocity": 72}, {"time": 2649, "pitch": 52, "duration": 5, "velocity": 72}, {"time": 2655, "pitch": 55, "duration": 4, "velocity": 72}, {"time": 2655, "pitch": 59, "duration": 4, "velocity": 72}, {"time": 2655, "pitch": 64, "duration": 4, "velocity": 72}, {"time": 2667, "pitch": 38, "duration": 17, "velocity": 73}, {"time": 2667, "pitch": 54, "duration": 11, "velocity": 73}, {"time": 2667, "pitch": 57, "duration": 11, "velocity": 73}, {"time": 2667, "pitch": 62, "duration": 10, "velocity": 73}, {"time": 2673, "pitch": 45, "duration": 12, "velocity": 73}, {"time": 2679, "pitch": 54, "duration": 6, "velocity": 73}, {"time": 2679, "pitch": 57, "duration": 5, "velocity": 73}, {"time": 2679, "pitch": 62, "duration": 5, "velocity": 73}, {"time": 2691, "pitch": 43, "duration": 23, "velocity": 73}, {"time": 2691, "pitch": 59, "duration": 10, "velocity": 73}, {"time": 2691, "pitch": 62, "duration": 10, "velocity": 73}, {"time": 2691, "pitch": 67, "duration": 10, "velocity": 73}, {"time": 2697, "pitch": 50, "duration": 17, "velocity": 73}, {"time": 2703, "pitch": 59, "duration": 10, "velocity": 73}, {"time": 2703, "pitch": 62, "duration": 10, "velocity": 73}, {"time": 2703, "pitch": 67, "duration": 10, "velocity": 73}, {"time": 2709, "pitch": 55, "duration": 5, "velocity": 74}, {"time": 2715, "pitch": 45, "duration": 48, "velocity": 74}, {"time": 2715, "pitch": 60, "duration": 11, "velocity": 74}, {"time": 2715, "pitch": 64, "duration": 11, "velocity": 74}, {"time": 2715, "pitch": 69, "duration": 11, "velocity": 74}, {"time": 2721, "pitch": 52, "duration": 42, "velocity": 74}, {"time": 2727, "pitch": 60, "duration": 11, "velocity": 74}, {"time": 2727, "pitch": 64, "duration": 11, "velocity": 74}, {"time": 2727, "pitch": 69, "duration": 11, "velocity": 74}, {"time": 2733, "pitch": 57, "duration": 7, "velocity": 74}, {"time": 2739, "pitch": 60, "duration": 10, "velocity": 74}, {"time": 2739, "pitch": 64, "duration": 10, "velocity": 74}, {"time": 2739, "pitch": 69, "duration": 10, "velocity": 74}, {"time": 2745, "pitch": 57, "duration": 7, "velocity": 74}, {"time": 2751, "pitch": 60, "duration": 7, "velocity": 75}, {"time": 2751, "pitch": 64, "duration": 6, "velocity": 75}, {"time": 2751, "pitch": 69, "duration": 6, "velocity": 75}, {"time": 2757, "pitch": 57, "duration": 3, "velocity": 75}, {"time": 2763, "pitch": 38, "duration": 17, "velocity": 75}, {"time": 2763, "pitch": 54, "duration": 11, "velocity": 75}, {"time": 2763, "pitch": 57, "duration": 10, "velocity": 75}, {"time": 2763, "pitch": 62, "duration": 10, "velocity": 75}, {"time": 2769, "pitch": 45, "duration": 11, "velocity": 75}, {"time": 2775, "pitch": 54, "duration": 6, "velocity": 75}, {"time": 2775, "pitch": 57, "duration": 6, "velocity": 75}, {"time": 2775, "pitch": 62, "duration": 5, "velocity": 75}, {"time": 2781, "pitch": 50, "duration": 1, "velocity": 75}, {"time": 2787, "pitch": 43, "duration": 17, "velocity": 75}, {"time": 2787, "pitch": 59, "duration": 10, "velocity": 75}, {"time": 2787, "pitch": 62, "duration": 10, "velocity": 75}, {"time": 2787, "pitch": 67, "duration": 10, "velocity": 75}, {"time": 2793, "pitch": 50, "duration": 11, "velocity": 75}, {"time": 2799, "pitch": 59, "duration": 6, "velocity": 75}, {"time": 2799, "pitch": 62, "duration": 6, "velocity": 75}, {"time": 2799, "pitch": 67, "duration": 6, "velocity": 75}, {"time": 2811, "pitch": 40, "duration": 18, "velocity": 75}, {"time": 2811, "pitch": 55, "duration": 10, "velocity": 75}, {"time": 2811, "pitch": 59, "duration": 11, "velocity": 75}, {"time": 2811, "pitch": 64, "duration": 10, "velocity": 75}, {"time": 2817, "pitch": 47, "duration": 10, "velocity": 75}, {"time": 2823, "pitch": 55, "duration": 5, "velocity": 75}, {"time": 2823, "pitch": 59, "duration": 5, "velocity": 75}, {"time": 2823, "pitch": 64, "duration": 5, "velocity": 75}, {"time": 2835, "pitch": 36, "duration": 17, "velocity": 75}, {"time": 2835, "pitch": 52, "duration": 10, "velocity": 75}, {"time": 2835, "pitch": 55, "duration": 10, "velocity": 75}, {"time": 2835, "pitch": 60, "duration": 10, "velocity": 75}, {"time": 2841, "pitch": 43, "duration": 12, "velocity": 76}, {"time": 2847, "pitch": 52, "duration": 6, "velocity": 77}, {"time": 2847, "pitch": 55, "duration": 6, "velocity": 77}, {"time": 2847, "pitch": 60, "duration": 6, "velocity": 77}, {"time": 2853, "pitch": 48, "duration": 2, "velocity": 77}, {"time": 2859, "pitch": 40, "duration": 17, "velocity": 77}, {"time": 2859, "pitch": 55, "duration": 10, "velocity": 77}, {"time": 2859, "pitch": 59, "duration": 10, "velocity": 77}, {"time": 2859, "pitch": 64, "duration": 10, "velocity": 77}, {"time": 2859, "pitch": 67, "duration": 7, "velocity": 77}, {"time": 2871, "pitch": 55, "duration": 6, "velocity": 78}, {"time": 2871, "pitch": 59, "duration": 6, "velocity": 78}, {"time": 2871, "pitch": 64, "duration": 6, "velocity": 78}, {"time": 2883, "pitch": 45, "duration": 24, "velocity": 78}, {"time": 2883, "pitch": 60, "duration": 10, "velocity": 78}, {"time": 2883, "pitch": 64, "duration": 10, "velocity": 78}, {"time": 2883, "pitch": 69, "duration": 10, "velocity": 78}, {"time": 2889, "pitch": 52, "duration": 16, "velocity": 78}, {"time": 2895, "pitch": 60, "duration": 9, "velocity": 78}, {"time": 2895, "pitch": 64, "duration": 9, "velocity": 78}, {"time": 2895, "pitch": 69, "duration": 9, "velocity": 78}, {"time": 2901, "pitch": 57, "duration": 5, "velocity": 78}, {"time": 2907, "pitch": 38, "duration": 19, "velocity": 78}, {"time": 2907, "pitch": 54, "duration": 10, "velocity": 78}, {"time": 2907, "pitch": 57, "duration": 10, "velocity": 78}, {"time": 2907, "pitch": 62, "duration": 9, "velocity": 78}, {"time": 2919, "pitch": 54, "duration": 6, "velocity": 78}, {"time": 2919, "pitch": 57, "duration": 6, "velocity": 78}, {"time": 2919, "pitch": 62, "duration": 5, "velocity": 78}, {"time": 2931, "pitch": 36, "duration": 6, "velocity": 78}, {"time": 2931, "pitch": 52, "duration": 6, "velocity": 78}, {"time": 2931, "pitch": 55, "duration": 6, "velocity": 78}, {"time": 2931, "pitch": 60, "duration": 6, "velocity": 78}, {"time": 2943, "pitch": 38, "duration": 6, "velocity": 78}, {"time": 2943, "pitch": 54, "duration": 6, "velocity": 78}, {"time": 2943, "pitch": 57, "duration": 5, "velocity": 78}, {"time": 2943, "pitch": 62, "duration": 5, "velocity": 78}, {"time": 2955, "pitch": 40, "duration": 48, "velocity": 78}, {"time": 2955, "pitch": 55, "duration": 11, "velocity": 78}, {"time": 2955, "pitch": 59, "duration": 11, "velocity": 78}, {"time": 2955, "pitch": 64, "duration": 11, "velocity": 78}, {"time": 2961, "pitch": 47, "duration": 29, "velocity": 78}, {"time": 2967, "pitch": 55, "duration": 11, "velocity": 78}, {"time": 2967, "pitch": 59, "duration": 11, "velocity": 78}, {"time": 2967, "pitch": 64, "duration": 10, "velocity": 78}, {"time": 2973, "pitch": 52, "duration": 8, "velocity": 78}, {"time": 2979, "pitch": 55, "duration": 21, "velocity": 78}, {"time": 2979, "pitch": 59, "duration": 21, "velocity": 78}, {"time": 2979, "pitch": 64, "duration": 24, "velocity": 78}, {"time": 2985, "pitch": 52, "duration": 4, "velocity": 78}, {"time": 3003, "pitch": 40, "duration": 18, "velocity": 78}, {"time": 3003, "pitch": 55, "duration": 10, "velocity": 78}, {"time": 3003, "pitch": 59, "duration": 10, "velocity": 78}, {"time": 3003, "pitch": 64, "duration": 10, "velocity": 78}, {"time": 3015, "pitch": 55, "duration": 5, "velocity": 77}, {"time": 3015, "pitch": 59, "duration": 5, "velocity": 77}, {"time": 3015, "pitch": 64, "duration": 5, "velocity": 77}, {"time": 3027, "pitch": 36, "duration": 17, "velocity": 76}, {"time": 3027, "pitch": 52, "duration": 9, "velocity": 76}, {"time": 3027, "pitch": 55, "duration": 9, "velocity": 76}, {"time": 3027, "pitch": 60, "duration": 7, "velocity": 76}, {"time": 3036, "pitch": 43, "duration": 8, "velocity": 76}, {"time": 3039, "pitch": 52, "duration": 6, "velocity": 76}, {"time": 3039, "pitch": 55, "duration": 6, "velocity": 76}, {"time": 3039, "pitch": 60, "duration": 6, "velocity": 76}, {"time": 3045, "pitch": 48, "duration": 6, "velocity": 76}, {"time": 3051, "pitch": 40, "duration": 16, "velocity": 76}, {"time": 3051, "pitch": 55, "duration": 9, "velocity": 76}, {"time": 3051, "pitch": 59, "duration": 9, "velocity": 76}, {"time": 3051, "pitch": 64, "duration": 9, "velocity": 76}, {"time": 3063, "pitch": 55, "duration": 7, "velocity": 76}, {"time": 3063, "pitch": 59, "duration": 7, "velocity": 76}, {"time": 3063, "pitch": 64, "duration": 6, "velocity": 76}, {"time": 3075, "pitch": 45, "duration": 24, "velocity": 76}, {"time": 3075, "pitch": 60, "duration": 10, "velocity": 76}, {"time": 3075, "pitch": 64, "duration": 10, "velocity": 76}, {"time": 3075, "pitch": 69, "duration": 10, "velocity": 76}, {"time": 3087, "pitch": 60, "duration": 11, "velocity": 76}, {"time": 3087, "pitch": 64, "duration": 11, "velocity": 76}, {"time": 3087, "pitch": 69, "duration": 11, "velocity": 76}, {"time": 3099, "pitch": 38, "duration": 17, "velocity": 76}, {"time": 3099, "pitch": 54, "duration": 10, "velocity": 76}, {"time": 3099, "pitch": 57, "duration": 9, "velocity": 76}, {"time": 3099, "pitch": 62, "duration": 3, "velocity": 76}, {"time": 3111, "pitch": 54, "duration": 6, "velocity": 76}, {"time": 3111, "pitch": 57, "duration": 5, "velocity": 76}, {"time": 3111, "pitch": 62, "duration": 5, "velocity": 76}, {"time": 3123, "pitch": 36, "duration": 12, "velocity": 76}, {"time": 3123, "pitch": 52, "duration": 6, "velocity": 76}, {"time": 3123, "pitch": 55, "duration": 7, "velocity": 76}, {"time": 3123, "pitch": 60, "duration": 7, "velocity": 76}, {"time": 3135, "pitch": 38, "duration": 49, "velocity": 76}, {"time": 3135, "pitch": 54, "duration": 49, "velocity": 76}, {"time": 3135, "pitch": 57, "duration": 49, "velocity": 76}, {"time": 3135, "pitch": 62, "duration": 48, "velocity": 76}, {"time": 3195, "pitch": 40, "duration": 112, "velocity": 77}, {"time": 3195, "pitch": 55, "duration": 10, "velocity": 77}, {"time": 3195, "pitch": 59, "duration": 11, "velocity": 77}, {"time": 3195, "pitch": 64, "duration": 10, "velocity": 77}, {"time": 3207, "pitch": 55, "duration": 101, "velocity": 77}, {"time": 3207, "pitch": 59, "duration": 31, "velocity": 77}, {"time": 3207, "pitch": 64, "duration": 33, "velocity": 77}, {"time": 3243, "pitch": 47, "duration": 66, "velocity": 77}, {"time": 3243, "pitch": 52, "duration": 64, "velocity": 77}, {"time": 3243, "pitch": 59, "duration": 63, "velocity": 77}, {"time": 3243, "pitch": 64, "duration": 65, "velocity": 77}], "annotations": [{"time": 123, "annotation": {"number": 64, "value": 75}, "group": "control_change"}, {"time": 135, "annotation": {"number": 64, "value": 67}, "group": "control_change"}, {"time": 147, "annotation": {"number": 64, "value": 68}, "group": "control_change"}, {"time": 150, "annotation": {"number": 64, "value": 71}, "group": "control_change"}, {"time": 150, "annotation": {"number": 64, "value": 127}, "group": "control_change"}, {"time": 159, "annotation": {"number": 64, "value": 69}, "group": "control_change"}, {"time": 171, "annotation": {"number": 64, "value": 71}, "group": "control_change"}, {"time": 171, "annotation": {"number": 64, "value": 0}, "group": "control_change"}, {"time": 171, "annotation": {"number": 64, "value": 64}, "group": "control_change"}, {"time": 174, "annotation": {"number": 64, "value": 71}, "group": "control_change"}, {"time": 174, "annotation": {"number": 64, "value": 127}, "group": "control_change"}, {"time": 183, "annotation": {"number": 64, "value": 62}, "group": "control_change"}, {"time": 195, "annotation": {"number": 64, "value": 71}, "group": "control_change"}, {"time": 195, "annotation": {"number": 64, "value": 64}, "group": "control_change"}, {"time": 195, "annotation": {"number": 64, "value": 0}, "group": "control_change"}, {"time": 198, "annotation": {"number": 64, "value": 71}, "group": "control_change"}, {"time": 198, "annotation": {"number": 64, "value": 127}, "group": "control_change"}, {"time": 207, "annotation": {"number": 64, "value": 68}, "group": "control_change"}, {"time": 219, "annotation": {"number": 64, "value": 71}, "group": "control_change"}, {"time": 219, "annotation": {"number": 64, "value": 70}, "group": "control_change"}, {"time": 219, "annotation": {"number": 64, "value": 0}, "group": "control_change"}, {"time": 222, "annotation": {"number": 64, "value": 71}, "group": "control_change"}, {"time": 222, "annotation": {"number": 64, "value": 127}, "group": "control_change"}, {"time": 231, "annotation": {"number": 64, "value": 73}, "group": "control_change"}, {"time": 242, "annotation": {"number": 64, "value": 71}, "group": "control_change"}, {"time": 242, "annotation": {"number": 64, "value": 0}, "group": "control_change"}, {"time": 243, "annotation": {"number": 64, "value": 80}, "group": "control_change"}, {"time": 245, "annotation": {"number": 64, "value": 71}, "group": "control_change"}, {"time": 246, "annotation": {"number": 64, "value": 127}, "group": "control_change"}, {"time": 254, "annotation": {"number": 64, "value": 71}, "group": "control_change"}, {"time": 254, "annotation": {"number": 64, "value": 0}, "group": "control_change"}, {"time": 255, "annotation": {"number": 64, "value": 60}, "group": "control_change"}, {"time": 257, "annotation": {"number": 64, "value": 71}, "group": "control_change"}, {"time": 257, "annotation": {"number": 64, "value": 127}, "group": "control_change"}, {"time": 266, "annotation": {"number": 64, "value": 71}, "group": "control_change"}, {"time": 266, "annotation": {"number": 64, "value": 0}, "group": "control_change"}, {"time": 267, "annotation": {"number": 64, "value": 62}, "group": "control_change"}, {"time": 270, "annotation": {"number": 64, "value": 71}, "group": "control_change"}, {"time": 270, "annotation": {"number": 64, "value": 127}, "group": "control_change"}, {"time": 279, "annotation": {"number": 64, "value": 68}, "group": "control_change"}, {"time": 285, "annotation": {"number": 64, "value": 71}, "group": "control_change"}, {"time": 286, "annotation": {"number": 64, "value": 127}, "group": "control_change"}, {"time": 291, "annotation": {"number": 64, "value": 73}, "group": "control_change"}, {"time": 303, "annotation": {"number": 64, "value": 74}, "group": "control_change"}, {"time": 313, "annotation": {"number": 64, "value": 71}, "group": "control_change"}, {"time": 313, "annotation": {"number": 64, "value": 0}, "group": "control_change"}, {"time": 315, "annotation": {"number": 64, "value": 75}, "group": "control_change"}, {"time": 316, "annotation": {"number": 64, "value": 71}, "group": "control_change"}, {"time": 316, "annotation": {"number": 64, "value": 127}, "group": "control_change"}, {"time": 327, "annotation": {"number": 64, "value": 73}, "group": "control_change"}, {"time": 338, "annotation": {"number": 64, "value": 71}, "group": "control_change"}, {"time": 339, "annotation": {"number": 64, "value": 0}, "group": "control_change"}, {"time": 339, "annotation": {"number": 64, "value": 67}, "group": "control_change"}, {"time": 342, "annotation": {"number": 64, "value": 71}, "group": "control_change"}, {"time": 342, "annotation": {"number": 64, "value": 127}, "group": "control_change"}, {"time": 362, "annotation": {"number": 64, "value": 71}, "group": "control_change"}, {"time": 363, "annotation": {"number": 64, "value": 0}, "group": "control_change"}, {"time": 366, "annotation": {"number": 64, "value": 71}, "group": "control_change"}, {"time": 367, "annotation": {"number": 64, "value": 127}, "group": "control_change"}, {"time": 410, "annotation": {"number": 64, "value": 71}, "group": "control_change"}, {"time": 410, "annotation": {"number": 64, "value": 0}, "group": "control_change"}, {"time": 413, "annotation": {"number": 64, "value": 71}, "group": "control_change"}, {"time": 413, "annotation": {"number": 64, "value": 127}, "group": "control_change"}, {"time": 434, "annotation": {"number": 64, "value": 71}, "group": "control_change"}, {"time": 434, "annotation": {"number": 64, "value": 0}, "group": "control_change"}, {"time": 437, "annotation": {"number": 64, "value": 71}, "group": "control_change"}, {"time": 438, "annotation": {"number": 64, "value": 127}, "group": "control_change"}, {"time": 458, "annotation": {"number": 64, "value": 71}, "group": "control_change"}, {"time": 458, "annotation": {"number": 64, "value": 0}, "group": "control_change"}, {"time": 462, "annotation": {"number": 64, "value": 71}, "group": "control_change"}, {"time": 463, "annotation": {"number": 64, "value": 127}, "group": "control_change"}, {"time": 482, "annotation": {"number": 64, "value": 71}, "group": "control_change"}, {"time": 482, "annotation": {"number": 64, "value": 0}, "group": "control_change"}, {"time": 486, "annotation": {"number": 64, "value": 71}, "group": "control_change"}, {"time": 486, "annotation": {"number": 64, "value": 127}, "group": "control_change"}, {"time": 506, "annotation": {"number": 64, "value": 71}, "group": "control_change"}, {"time": 507, "annotation": {"number": 64, "value": 0}, "group": "control_change"}, {"time": 510, "annotation": {"number": 64, "value": 71}, "group": "control_change"}, {"time": 511, "annotation": {"number": 64, "value": 127}, "group": "control_change"}, {"time": 531, "annotation": {"number": 64, "value": 71}, "group": "control_change"}, {"time": 533, "annotation": {"number": 64, "value": 127}, "group": "control_change"}, {"time": 555, "annotation": {"number": 64, "value": 71}, "group": "control_change"}, {"time": 555, "annotation": {"number": 64, "value": 0}, "group": "control_change"}, {"time": 558, "annotation": {"number": 64, "value": 71}, "group": "control_change"}, {"time": 558, "annotation": {"number": 64, "value": 127}, "group": "control_change"}, {"time": 602, "annotation": {"number": 64, "value": 71}, "group": "control_change"}, {"time": 603, "annotation": {"number": 64, "value": 0}, "group": "control_change"}, {"time": 605, "annotation": {"number": 64, "value": 71}, "group": "control_change"}, {"time": 606, "annotation": {"number": 64, "value": 127}, "group": "control_change"}, {"time": 626, "annotation": {"number": 64, "value": 71}, "group": "control_change"}, {"time": 626, "annotation": {"number": 64, "value": 0}, "group": "control_change"}, {"time": 630, "annotation": {"number": 64, "value": 71}, "group": "control_change"}, {"time": 630, "annotation": {"number": 64, "value": 127}, "group": "control_change"}, {"time": 651, "annotation": {"number": 64, "value": 71}, "group": "control_change"}, {"time": 651, "annotation": {"number": 64, "value": 0}, "group": "control_change"}, {"time": 655, "annotation": {"number": 64, "value": 71}, "group": "control_change"}, {"time": 656, "annotation": {"number": 64, "value": 127}, "group": "control_change"}, {"time": 698, "annotation": {"number": 64, "value": 71}, "group": "control_change"}, {"time": 698, "annotation": {"number": 64, "value": 0}, "group": "control_change"}, {"time": 702, "annotation": {"number": 64, "value": 71}, "group": "control_change"}, {"time": 702, "annotation": {"number": 64, "value": 127}, "group": "control_change"}, {"time": 722, "annotation": {"number": 64, "value": 71}, "group": "control_change"}, {"time": 722, "annotation": {"number": 64, "value": 0}, "group": "control_change"}, {"time": 726, "annotation": {"number": 64, "value": 71}, "group": "control_change"}, {"time": 727, "annotation": {"number": 64, "value": 127}, "group": "control_change"}, {"time": 747, "annotation": {"number": 64, "value": 71}, "group": "control_change"}, {"time": 747, "annotation": {"number": 64, "value": 0}, "group": "control_change"}, {"time": 750, "annotation": {"number": 64, "value": 71}, "group": "control_change"}, {"time": 751, "annotation": {"number": 64, "value": 127}, "group": "control_change"}, {"time": 794, "annotation": {"number": 64, "value": 71}, "group": "control_change"}, {"time": 794, "annotation": {"number": 64, "value": 0}, "group": "control_change"}, {"time": 797, "annotation": {"number": 64, "value": 71}, "group": "control_change"}, {"time": 798, "annotation": {"number": 64, "value": 127}, "group": "control_change"}, {"time": 818, "annotation": {"number": 64, "value": 71}, "group": "control_change"}, {"time": 818, "annotation": {"number": 64, "value": 0}, "group": "control_change"}, {"time": 821, "annotation": {"number": 64, "value": 71}, "group": "control_change"}, {"time": 822, "annotation": {"number": 64, "value": 127}, "group": "control_change"}, {"time": 843, "annotation": {"number": 64, "value": 71}, "group": "control_change"}, {"time": 843, "annotation": {"number": 64, "value": 0}, "group": "control_change"}, {"time": 846, "annotation": {"number": 64, "value": 71}, "group": "control_change"}, {"time": 846, "annotation": {"number": 64, "value": 127}, "group": "control_change"}, {"time": 890, "annotation": {"number": 64, "value": 71}, "group": "control_change"}, {"time": 891, "annotation": {"number": 64, "value": 0}, "group": "control_change"}, {"time": 894, "annotation": {"number": 64, "value": 71}, "group": "control_change"}, {"time": 894, "annotation": {"number": 64, "value": 127}, "group": "control_change"}, {"time": 937, "annotation": {"number": 64, "value": 71}, "group": "control_change"}, {"time": 937, "annotation": {"number": 64, "value": 0}, "group": "control_change"}, {"time": 943, "annotation": {"number": 64, "value": 71}, "group": "control_change"}, {"time": 944, "annotation": {"number": 64, "value": 127}, "group": "control_change"}, {"time": 986, "annotation": {"number": 64, "value": 71}, "group": "control_change"}, {"time": 986, "annotation": {"number": 64, "value": 0}, "group": "control_change"}, {"time": 989, "annotation": {"number": 64, "value": 71}, "group": "control_change"}, {"time": 990, "annotation": {"number": 64, "value": 127}, "group": "control_change"}, {"time": 1010, "annotation": {"number": 64, "value": 71}, "group": "control_change"}, {"time": 1010, "annotation": {"number": 64, "value": 0}, "group": "control_change"}, {"time": 1013, "annotation": {"number": 64, "value": 71}, "group": "control_change"}, {"time": 1014, "annotation": {"number": 64, "value": 127}, "group": "control_change"}, {"time": 1035, "annotation": {"number": 64, "value": 71}, "group": "control_change"}, {"time": 1035, "annotation": {"number": 64, "value": 0}, "group": "control_change"}, {"time": 1038, "annotation": {"number": 64, "value": 71}, "group": "control_change"}, {"time": 1039, "annotation": {"number": 64, "value": 127}, "group": "control_change"}, {"time": 1059, "annotation": {"number": 64, "value": 6}, "group": "control_change"}, {"time": 1071, "annotation": {"number": 64, "value": 7}, "group": "control_change"}, {"time": 1081, "annotation": {"number": 64, "value": 71}, "group": "control_change"}, {"time": 1081, "annotation": {"number": 64, "value": 0}, "group": "control_change"}, {"time": 1083, "annotation": {"number": 64, "value": 65}, "group": "control_change"}, {"time": 1084, "annotation": {"number": 64, "value": 71}, "group": "control_change"}, {"time": 1084, "annotation": {"number": 64, "value": 127}, "group": "control_change"}, {"time": 1095, "annotation": {"number": 64, "value": 68}, "group": "control_change"}, {"time": 1130, "annotation": {"number": 64, "value": 71}, "group": "control_change"}, {"time": 1130, "annotation": {"number": 64, "value": 0}, "group": "control_change"}, {"time": 1133, "annotation": {"number": 64, "value": 71}, "group": "control_change"}, {"time": 1134, "annotation": {"number": 64, "value": 127}, "group": "control_change"}, {"time": 1154, "annotation": {"number": 64, "value": 71}, "group": "control_change"}, {"time": 1154, "annotation": {"number": 64, "value": 0}, "group": "control_change"}, {"time": 1157, "annotation": {"number": 64, "value": 71}, "group": "control_change"}, {"time": 1158, "annotation": {"number": 64, "value": 127}, "group": "control_change"}, {"time": 1179, "annotation": {"number": 64, "value": 71}, "group": "control_change"}, {"time": 1179, "annotation": {"number": 64, "value": 0}, "group": "control_change"}, {"time": 1182, "annotation": {"number": 64, "value": 71}, "group": "control_change"}, {"time": 1183, "annotation": {"number": 64, "value": 127}, "group": "control_change"}, {"time": 1226, "annotation": {"number": 64, "value": 71}, "group": "control_change"}, {"time": 1227, "annotation": {"number": 64, "value": 0}, "group": "control_change"}, {"time": 1229, "annotation": {"number": 64, "value": 71}, "group": "control_change"}, {"time": 1230, "annotation": {"number": 64, "value": 127}, "group": "control_change"}, {"time": 1250, "annotation": {"number": 64, "value": 71}, "group": "control_change"}, {"time": 1251, "annotation": {"number": 64, "value": 0}, "group": "control_change"}, {"time": 1254, "annotation": {"number": 64, "value": 71}, "group": "control_change"}, {"time": 1255, "annotation": {"number": 64, "value": 127}, "group": "control_change"}, {"time": 1274, "annotation": {"number": 64, "value": 71}, "group": "control_change"}, {"time": 1275, "annotation": {"number": 64, "value": 0}, "group": "control_change"}, {"time": 1277, "annotation": {"number": 64, "value": 71}, "group": "control_change"}, {"time": 1277, "annotation": {"number": 64, "value": 127}, "group": "control_change"}, {"time": 1298, "annotation": {"number": 64, "value": 71}, "group": "control_change"}, {"time": 1299, "annotation": {"number": 64, "value": 0}, "group": "control_change"}, {"time": 1301, "annotation": {"number": 64, "value": 71}, "group": "control_change"}, {"time": 1302, "annotation": {"number": 64, "value": 127}, "group": "control_change"}, {"time": 1322, "annotation": {"number": 64, "value": 71}, "group": "control_change"}, {"time": 1322, "annotation": {"number": 64, "value": 0}, "group": "control_change"}, {"time": 1325, "annotation": {"number": 64, "value": 71}, "group": "control_change"}, {"time": 1326, "annotation": {"number": 64, "value": 127}, "group": "control_change"}, {"time": 1346, "annotation": {"number": 64, "value": 71}, "group": "control_change"}, {"time": 1346, "annotation": {"number": 64, "value": 0}, "group": "control_change"}, {"time": 1350, "annotation": {"number": 64, "value": 71}, "group": "control_change"}, {"time": 1351, "annotation": {"number": 64, "value": 127}, "group": "control_change"}, {"time": 1371, "annotation": {"number": 64, "value": 71}, "group": "control_change"}, {"time": 1371, "annotation": {"number": 64, "value": 0}, "group": "control_change"}, {"time": 1374, "annotation": {"number": 64, "value": 71}, "group": "control_change"}, {"time": 1375, "annotation": {"number": 64, "value": 127}, "group": "control_change"}, {"time": 1395, "annotation": {"number": 64, "value": 71}, "group": "control_change"}, {"time": 1395, "annotation": {"number": 64, "value": 0}, "group": "control_change"}, {"time": 1398, "annotation": {"number": 64, "value": 71}, "group": "control_change"}, {"time": 1399, "annotation": {"number": 64, "value": 127}, "group": "control_change"}, {"time": 1406, "annotation": {"number": 64, "value": 71}, "group": "control_change"}, {"time": 1406, "annotation": {"number": 64, "value": 0}, "group": "control_change"}, {"time": 1409, "annotation": {"number": 64, "value": 71}, "group": "control_change"}, {"time": 1410, "annotation": {"number": 64, "value": 127}, "group": "control_change"}, {"time": 1418, "annotation": {"number": 64, "value": 71}, "group": "control_change"}, {"time": 1418, "annotation": {"number": 64, "value": 0}, "group": "control_change"}, {"time": 1421, "annotation": {"number": 64, "value": 71}, "group": "control_change"}, {"time": 1422, "annotation": {"number": 64, "value": 127}, "group": "control_change"}, {"time": 1466, "annotation": {"number": 64, "value": 71}, "group": "control_change"}, {"time": 1467, "annotation": {"number": 64, "value": 0}, "group": "control_change"}, {"time": 1469, "annotation": {"number": 64, "value": 71}, "group": "control_change"}, {"time": 1469, "annotation": {"number": 64, "value": 127}, "group": "control_change"}, {"time": 1491, "annotation": {"number": 64, "value": 71}, "group": "control_change"}, {"time": 1491, "annotation": {"number": 64, "value": 0}, "group": "control_change"}, {"time": 1493, "annotation": {"number": 64, "value": 71}, "group": "control_change"}, {"time": 1494, "annotation": {"number": 64, "value": 127}, "group": "control_change"}, {"time": 1514, "annotation": {"number": 64, "value": 71}, "group": "control_change"}, {"time": 1514, "annotation": {"number": 64, "value": 0}, "group": "control_change"}, {"time": 1517, "annotation": {"number": 64, "value": 71}, "group": "control_change"}, {"time": 1518, "annotation": {"number": 64, "value": 127}, "group": "control_change"}, {"time": 1538, "annotation": {"number": 64, "value": 71}, "group": "control_change"}, {"time": 1538, "annotation": {"number": 64, "value": 0}, "group": "control_change"}, {"time": 1542, "annotation": {"number": 64, "value": 71}, "group": "control_change"}, {"time": 1543, "annotation": {"number": 64, "value": 127}, "group": "control_change"}, {"time": 1562, "annotation": {"number": 64, "value": 71}, "group": "control_change"}, {"time": 1562, "annotation": {"number": 64, "value": 0}, "group": "control_change"}, {"time": 1565, "annotation": {"number": 64, "value": 71}, "group": "control_change"}, {"time": 1566, "annotation": {"number": 64, "value": 127}, "group": "control_change"}, {"time": 1587, "annotation": {"number": 64, "value": 71}, "group": "control_change"}, {"time": 1587, "annotation": {"number": 64, "value": 0}, "group": "control_change"}, {"time": 1590, "annotation": {"number": 64, "value": 71}, "group": "control_change"}, {"time": 1591, "annotation": {"number": 64, "value": 127}, "group": "control_change"}, {"time": 1611, "annotation": {"number": 64, "value": 71}, "group": "control_change"}, {"time": 1611, "annotation": {"number": 64, "value": 0}, "group": "control_change"}, {"time": 1614, "annotation": {"number": 64, "value": 71}, "group": "control_change"}, {"time": 1615, "annotation": {"number": 64, "value": 127}, "group": "control_change"}, {"time": 1634, "annotation": {"number": 64, "value": 71}, "group": "control_change"}, {"time": 1635, "annotation": {"number": 64, "value": 0}, "group": "control_change"}, {"time": 1638, "annotation": {"number": 64, "value": 71}, "group": "control_change"}, {"time": 1638, "annotation": {"number": 64, "value": 127}, "group": "control_change"}, {"time": 1658, "annotation": {"number": 64, "value": 71}, "group": "control_change"}, {"time": 1658, "annotation": {"number": 64, "value": 0}, "group": "control_change"}, {"time": 1662, "annotation": {"number": 64, "value": 71}, "group": "control_change"}, {"time": 1663, "annotation": {"number": 64, "value": 127}, "group": "control_change"}, {"time": 1682, "annotation": {"number": 64, "value": 71}, "group": "control_change"}, {"time": 1683, "annotation": {"number": 64, "value": 0}, "group": "control_change"}, {"time": 1686, "annotation": {"number": 64, "value": 71}, "group": "control_change"}, {"time": 1687, "annotation": {"number": 64, "value": 127}, "group": "control_change"}, {"time": 1706, "annotation": {"number": 64, "value": 71}, "group": "control_change"}, {"time": 1707, "annotation": {"number": 64, "value": 0}, "group": "control_change"}, {"time": 1710, "annotation": {"number": 64, "value": 71}, "group": "control_change"}, {"time": 1710, "annotation": {"number": 64, "value": 127}, "group": "control_change"}, {"time": 1730, "annotation": {"number": 64, "value": 71}, "group": "control_change"}, {"time": 1731, "annotation": {"number": 64, "value": 0}, "group": "control_change"}, {"time": 1734, "annotation": {"number": 64, "value": 71}, "group": "control_change"}, {"time": 1735, "annotation": {"number": 64, "value": 127}, "group": "control_change"}, {"time": 1754, "annotation": {"number": 64, "value": 71}, "group": "control_change"}, {"time": 1755, "annotation": {"number": 64, "value": 0}, "group": "control_change"}, {"time": 1758, "annotation": {"number": 64, "value": 71}, "group": "control_change"}, {"time": 1759, "annotation": {"number": 64, "value": 127}, "group": "control_change"}, {"time": 1778, "annotation": {"number": 64, "value": 71}, "group": "control_change"}, {"time": 1778, "annotation": {"number": 64, "value": 0}, "group": "control_change"}, {"time": 1781, "annotation": {"number": 64, "value": 71}, "group": "control_change"}, {"time": 1781, "annotation": {"number": 64, "value": 127}, "group": "control_change"}, {"time": 1790, "annotation": {"number": 64, "value": 71}, "group": "control_change"}, {"time": 1790, "annotation": {"number": 64, "value": 0}, "group": "control_change"}, {"time": 1794, "annotation": {"number": 64, "value": 71}, "group": "control_change"}, {"time": 1794, "annotation": {"number": 64, "value": 127}, "group": "control_change"}, {"time": 1802, "annotation": {"number": 64, "value": 71}, "group": "control_change"}, {"time": 1803, "annotation": {"number": 64, "value": 0}, "group": "control_change"}, {"time": 1805, "annotation": {"number": 64, "value": 71}, "group": "control_change"}, {"time": 1806, "annotation": {"number": 64, "value": 127}, "group": "control_change"}, {"time": 1849, "annotation": {"number": 64, "value": 71}, "group": "control_change"}, {"time": 1850, "annotation": {"number": 64, "value": 0}, "group": "control_change"}, {"time": 1853, "annotation": {"number": 64, "value": 71}, "group": "control_change"}, {"time": 1854, "annotation": {"number": 64, "value": 127}, "group": "control_change"}, {"time": 1874, "annotation": {"number": 64, "value": 71}, "group": "control_change"}, {"time": 1875, "annotation": {"number": 64, "value": 0}, "group": "control_change"}, {"time": 1877, "annotation": {"number": 64, "value": 71}, "group": "control_change"}, {"time": 1878, "annotation": {"number": 64, "value": 127}, "group": "control_change"}, {"time": 1898, "annotation": {"number": 64, "value": 71}, "group": "control_change"}, {"time": 1899, "annotation": {"number": 64, "value": 0}, "group": "control_change"}, {"time": 1902, "annotation": {"number": 64, "value": 71}, "group": "control_change"}, {"time": 1903, "annotation": {"number": 64, "value": 127}, "group": "control_change"}, {"time": 1946, "annotation": {"number": 64, "value": 71}, "group": "control_change"}, {"time": 1946, "annotation": {"number": 64, "value": 0}, "group": "control_change"}, {"time": 1949, "annotation": {"number": 64, "value": 71}, "group": "control_change"}, {"time": 1950, "annotation": {"number": 64, "value": 127}, "group": "control_change"}, {"time": 1970, "annotation": {"number": 64, "value": 71}, "group": "control_change"}, {"time": 1971, "annotation": {"number": 64, "value": 0}, "group": "control_change"}, {"time": 1973, "annotation": {"number": 64, "value": 71}, "group": "control_change"}, {"time": 1974, "annotation": {"number": 64, "value": 127}, "group": "control_change"}, {"time": 1995, "annotation": {"number": 64, "value": 71}, "group": "control_change"}, {"time": 1995, "annotation": {"number": 64, "value": 0}, "group": "control_change"}, {"time": 1998, "annotation": {"number": 64, "value": 71}, "group": "control_change"}, {"time": 1999, "annotation": {"number": 64, "value": 127}, "group": "control_change"}, {"time": 2019, "annotation": {"number": 64, "value": 71}, "group": "control_change"}, {"time": 2019, "annotation": {"number": 64, "value": 0}, "group": "control_change"}, {"time": 2021, "annotation": {"number": 64, "value": 71}, "group": "control_change"}, {"time": 2022, "annotation": {"number": 64, "value": 127}, "group": "control_change"}, {"time": 2043, "annotation": {"number": 64, "value": 71}, "group": "control_change"}, {"time": 2043, "annotation": {"number": 64, "value": 0}, "group": "control_change"}, {"time": 2046, "annotation": {"number": 64, "value": 71}, "group": "control_change"}, {"time": 2047, "annotation": {"number": 64, "value": 127}, "group": "control_change"}, {"time": 2090, "annotation": {"number": 64, "value": 71}, "group": "control_change"}, {"time": 2091, "annotation": {"number": 64, "value": 0}, "group": "control_change"}, {"time": 2094, "annotation": {"number": 64, "value": 71}, "group": "control_change"}, {"time": 2095, "annotation": {"number": 64, "value": 127}, "group": "control_change"}, {"time": 2139, "annotation": {"number": 64, "value": 71}, "group": "control_change"}, {"time": 2139, "annotation": {"number": 64, "value": 0}, "group": "control_change"}, {"time": 2142, "annotation": {"number": 64, "value": 71}, "group": "control_change"}, {"time": 2143, "annotation": {"number": 64, "value": 127}, "group": "control_change"}, {"time": 2163, "annotation": {"number": 64, "value": 71}, "group": "control_change"}, {"time": 2163, "annotation": {"number": 64, "value": 0}, "group": "control_change"}, {"time": 2166, "annotation": {"number": 64, "value": 71}, "group": "control_change"}, {"time": 2167, "annotation": {"number": 64, "value": 127}, "group": "control_change"}, {"time": 2186, "annotation": {"number": 64, "value": 71}, "group": "control_change"}, {"time": 2186, "annotation": {"number": 64, "value": 0}, "group": "control_change"}, {"time": 2190, "annotation": {"number": 64, "value": 71}, "group": "control_change"}, {"time": 2190, "annotation": {"number": 64, "value": 127}, "group": "control_change"}, {"time": 2234, "annotation": {"number": 64, "value": 71}, "group": "control_change"}, {"time": 2234, "annotation": {"number": 64, "value": 0}, "group": "control_change"}, {"time": 2237, "annotation": {"number": 64, "value": 71}, "group": "control_change"}, {"time": 2238, "annotation": {"number": 64, "value": 127}, "group": "control_change"}, {"time": 2282, "annotation": {"number": 64, "value": 71}, "group": "control_change"}, {"time": 2282, "annotation": {"number": 64, "value": 0}, "group": "control_change"}, {"time": 2287, "annotation": {"number": 64, "value": 71}, "group": "control_change"}, {"time": 2288, "annotation": {"number": 64, "value": 127}, "group": "control_change"}, {"time": 2306, "annotation": {"number": 64, "value": 71}, "group": "control_change"}, {"time": 2307, "annotation": {"number": 64, "value": 0}, "group": "control_change"}, {"time": 2311, "annotation": {"number": 64, "value": 71}, "group": "control_change"}, {"time": 2312, "annotation": {"number": 64, "value": 127}, "group": "control_change"}, {"time": 2330, "annotation": {"number": 64, "value": 71}, "group": "control_change"}, {"time": 2331, "annotation": {"number": 64, "value": 0}, "group": "control_change"}, {"time": 2334, "annotation": {"number": 64, "value": 71}, "group": "control_change"}, {"time": 2335, "annotation": {"number": 64, "value": 127}, "group": "control_change"}, {"time": 2378, "annotation": {"number": 64, "value": 71}, "group": "control_change"}, {"time": 2378, "annotation": {"number": 64, "value": 0}, "group": "control_change"}, {"time": 2382, "annotation": {"number": 64, "value": 71}, "group": "control_change"}, {"time": 2383, "annotation": {"number": 64, "value": 127}, "group": "control_change"}, {"time": 2403, "annotation": {"number": 64, "value": 71}, "group": "control_change"}, {"time": 2403, "annotation": {"number": 64, "value": 0}, "group": "control_change"}, {"time": 2408, "annotation": {"number": 64, "value": 71}, "group": "control_change"}, {"time": 2410, "annotation": {"number": 64, "value": 127}, "group": "control_change"}, {"time": 2427, "annotation": {"number": 64, "value": 71}, "group": "control_change"}, {"time": 2427, "annotation": {"number": 64, "value": 0}, "group": "control_change"}, {"time": 2431, "annotation": {"number": 64, "value": 71}, "group": "control_change"}, {"time": 2432, "annotation": {"number": 64, "value": 127}, "group": "control_change"}, {"time": 2451, "annotation": {"number": 64, "value": 71}, "group": "control_change"}, {"time": 2451, "annotation": {"number": 64, "value": 0}, "group": "control_change"}, {"time": 2454, "annotation": {"number": 64, "value": 71}, "group": "control_change"}, {"time": 2455, "annotation": {"number": 64, "value": 127}, "group": "control_change"}, {"time": 2474, "annotation": {"number": 64, "value": 71}, "group": "control_change"}, {"time": 2474, "annotation": {"number": 64, "value": 0}, "group": "control_change"}, {"time": 2478, "annotation": {"number": 64, "value": 71}, "group": "control_change"}, {"time": 2479, "annotation": {"number": 64, "value": 127}, "group": "control_change"}, {"time": 2498, "annotation": {"number": 64, "value": 71}, "group": "control_change"}, {"time": 2499, "annotation": {"number": 64, "value": 0}, "group": "control_change"}, {"time": 2502, "annotation": {"number": 64, "value": 71}, "group": "control_change"}, {"time": 2503, "annotation": {"number": 64, "value": 127}, "group": "control_change"}, {"time": 2523, "annotation": {"number": 64, "value": 71}, "group": "control_change"}, {"time": 2523, "annotation": {"number": 64, "value": 0}, "group": "control_change"}, {"time": 2527, "annotation": {"number": 64, "value": 71}, "group": "control_change"}, {"time": 2528, "annotation": {"number": 64, "value": 127}, "group": "control_change"}, {"time": 2546, "annotation": {"number": 64, "value": 71}, "group": "control_change"}, {"time": 2547, "annotation": {"number": 64, "value": 0}, "group": "control_change"}, {"time": 2551, "annotation": {"number": 64, "value": 71}, "group": "control_change"}, {"time": 2552, "annotation": {"number": 64, "value": 127}, "group": "control_change"}, {"time": 2558, "annotation": {"number": 64, "value": 71}, "group": "control_change"}, {"time": 2558, "annotation": {"number": 64, "value": 0}, "group": "control_change"}, {"time": 2562, "annotation": {"number": 64, "value": 71}, "group": "control_change"}, {"time": 2563, "annotation": {"number": 64, "value": 127}, "group": "control_change"}, {"time": 2570, "annotation": {"number": 64, "value": 71}, "group": "control_change"}, {"time": 2570, "annotation": {"number": 64, "value": 0}, "group": "control_change"}, {"time": 2574, "annotation": {"number": 64, "value": 71}, "group": "control_change"}, {"time": 2575, "annotation": {"number": 64, "value": 127}, "group": "control_change"}, {"time": 2618, "annotation": {"number": 64, "value": 71}, "group": "control_change"}, {"time": 2618, "annotation": {"number": 64, "value": 0}, "group": "control_change"}, {"time": 2622, "annotation": {"number": 64, "value": 71}, "group": "control_change"}, {"time": 2623, "annotation": {"number": 64, "value": 127}, "group": "control_change"}, {"time": 2666, "annotation": {"number": 64, "value": 71}, "group": "control_change"}, {"time": 2666, "annotation": {"number": 64, "value": 0}, "group": "control_change"}, {"time": 2670, "annotation": {"number": 64, "value": 71}, "group": "control_change"}, {"time": 2671, "annotation": {"number": 64, "value": 127}, "group": "control_change"}, {"time": 2691, "annotation": {"number": 64, "value": 71}, "group": "control_change"}, {"time": 2691, "annotation": {"number": 64, "value": 0}, "group": "control_change"}, {"time": 2694, "annotation": {"number": 64, "value": 71}, "group": "control_change"}, {"time": 2695, "annotation": {"number": 64, "value": 127}, "group": "control_change"}, {"time": 2714, "annotation": {"number": 64, "value": 71}, "group": "control_change"}, {"time": 2715, "annotation": {"number": 64, "value": 0}, "group": "control_change"}, {"time": 2718, "annotation": {"number": 64, "value": 71}, "group": "control_change"}, {"time": 2719, "annotation": {"number": 64, "value": 127}, "group": "control_change"}, {"time": 2762, "annotation": {"number": 64, "value": 71}, "group": "control_change"}, {"time": 2762, "annotation": {"number": 64, "value": 0}, "group": "control_change"}, {"time": 2766, "annotation": {"number": 64, "value": 71}, "group": "control_change"}, {"time": 2767, "annotation": {"number": 64, "value": 127}, "group": "control_change"}, {"time": 2786, "annotation": {"number": 64, "value": 71}, "group": "control_change"}, {"time": 2786, "annotation": {"number": 64, "value": 0}, "group": "control_change"}, {"time": 2790, "annotation": {"number": 64, "value": 71}, "group": "control_change"}, {"time": 2791, "annotation": {"number": 64, "value": 127}, "group": "control_change"}, {"time": 2811, "annotation": {"number": 64, "value": 71}, "group": "control_change"}, {"time": 2811, "annotation": {"number": 64, "value": 0}, "group": "control_change"}, {"time": 2814, "annotation": {"number": 64, "value": 71}, "group": "control_change"}, {"time": 2815, "annotation": {"number": 64, "value": 127}, "group": "control_change"}, {"time": 2834, "annotation": {"number": 64, "value": 71}, "group": "control_change"}, {"time": 2835, "annotation": {"number": 64, "value": 0}, "group": "control_change"}, {"time": 2838, "annotation": {"number": 64, "value": 71}, "group": "control_change"}, {"time": 2838, "annotation": {"number": 64, "value": 127}, "group": "control_change"}, {"time": 2858, "annotation": {"number": 64, "value": 71}, "group": "control_change"}, {"time": 2859, "annotation": {"number": 64, "value": 0}, "group": "control_change"}, {"time": 2862, "annotation": {"number": 64, "value": 71}, "group": "control_change"}, {"time": 2863, "annotation": {"number": 64, "value": 127}, "group": "control_change"}, {"time": 2882, "annotation": {"number": 64, "value": 71}, "group": "control_change"}, {"time": 2882, "annotation": {"number": 64, "value": 0}, "group": "control_change"}, {"time": 2886, "annotation": {"number": 64, "value": 71}, "group": "control_change"}, {"time": 2886, "annotation": {"number": 64, "value": 127}, "group": "control_change"}, {"time": 2906, "annotation": {"number": 64, "value": 71}, "group": "control_change"}, {"time": 2907, "annotation": {"number": 64, "value": 0}, "group": "control_change"}, {"time": 2910, "annotation": {"number": 64, "value": 71}, "group": "control_change"}, {"time": 2911, "annotation": {"number": 64, "value": 127}, "group": "control_change"}, {"time": 2930, "annotation": {"number": 64, "value": 71}, "group": "control_change"}, {"time": 2930, "annotation": {"number": 64, "value": 0}, "group": "control_change"}, {"time": 2934, "annotation": {"number": 64, "value": 71}, "group": "control_change"}, {"time": 2934, "annotation": {"number": 64, "value": 127}, "group": "control_change"}, {"time": 2942, "annotation": {"number": 64, "value": 71}, "group": "control_change"}, {"time": 2942, "annotation": {"number": 64, "value": 0}, "group": "control_change"}, {"time": 2946, "annotation": {"number": 64, "value": 71}, "group": "control_change"}, {"time": 2946, "annotation": {"number": 64, "value": 127}, "group": "control_change"}, {"time": 2954, "annotation": {"number": 64, "value": 71}, "group": "control_change"}, {"time": 2955, "annotation": {"number": 64, "value": 0}, "group": "control_change"}, {"time": 2958, "annotation": {"number": 64, "value": 71}, "group": "control_change"}, {"time": 2958, "annotation": {"number": 64, "value": 127}, "group": "control_change"}, {"time": 3002, "annotation": {"number": 64, "value": 71}, "group": "control_change"}, {"time": 3002, "annotation": {"number": 64, "value": 0}, "group": "control_change"}, {"time": 3006, "annotation": {"number": 64, "value": 71}, "group": "control_change"}, {"time": 3007, "annotation": {"number": 64, "value": 127}, "group": "control_change"}, {"time": 3026, "annotation": {"number": 64, "value": 71}, "group": "control_change"}, {"time": 3026, "annotation": {"number": 64, "value": 0}, "group": "control_change"}, {"time": 3030, "annotation": {"number": 64, "value": 71}, "group": "control_change"}, {"time": 3030, "annotation": {"number": 64, "value": 127}, "group": "control_change"}, {"time": 3051, "annotation": {"number": 64, "value": 71}, "group": "control_change"}, {"time": 3051, "annotation": {"number": 64, "value": 0}, "group": "control_change"}, {"time": 3055, "annotation": {"number": 64, "value": 71}, "group": "control_change"}, {"time": 3056, "annotation": {"number": 64, "value": 127}, "group": "control_change"}, {"time": 3075, "annotation": {"number": 64, "value": 71}, "group": "control_change"}, {"time": 3075, "annotation": {"number": 64, "value": 0}, "group": "control_change"}, {"time": 3079, "annotation": {"number": 64, "value": 71}, "group": "control_change"}, {"time": 3080, "annotation": {"number": 64, "value": 127}, "group": "control_change"}, {"time": 3099, "annotation": {"number": 64, "value": 71}, "group": "control_change"}, {"time": 3099, "annotation": {"number": 64, "value": 0}, "group": "control_change"}, {"time": 3102, "annotation": {"number": 64, "value": 71}, "group": "control_change"}, {"time": 3103, "annotation": {"number": 64, "value": 127}, "group": "control_change"}, {"time": 3122, "annotation": {"number": 64, "value": 71}, "group": "control_change"}, {"time": 3122, "annotation": {"number": 64, "value": 0}, "group": "control_change"}, {"time": 3126, "annotation": {"number": 64, "value": 71}, "group": "control_change"}, {"time": 3126, "annotation": {"number": 64, "value": 127}, "group": "control_change"}, {"time": 3134, "annotation": {"number": 64, "value": 71}, "group": "control_change"}, {"time": 3135, "annotation": {"number": 64, "value": 0}, "group": "control_change"}, {"time": 3138, "annotation": {"number": 64, "value": 71}, "group": "control_change"}, {"time": 3138, "annotation": {"number": 64, "value": 127}, "group": "control_change"}, {"time": 3192, "annotation": {"number": 64, "value": 71}, "group": "control_change"}, {"time": 3192, "annotation": {"number": 64, "value": 0}, "group": "control_change"}, {"time": 3200, "annotation": {"number": 64, "value": 71}, "group": "control_change"}, {"time": 3200, "annotation": {"number": 64, "value": 127}, "group": "control_change"}, {"time": 3243, "annotation": {"number": 64, "value": 0}, "group": "control_change"}, {"time": 3244, "annotation": {"number": 64, "value": 124}, "group": "control_change"}, {"time": 3312, "annotation": {"number": 64, "value": 71}, "group": "control_change"}, {"time": 3312, "annotation": {"number": 64, "value": 0}, "group": "control_change"}]}]}