{"metadata": {"schema_version": "0.2", "title": "None", "source_filename": "035.mid", "source_format": "midi"}, "resolution": 12, "tempos": [{"time": 0, "qpm": 71.00003550001774}], "key_signatures": [{"time": 0, "root": 0, "mode": "major"}], "time_signatures": [{"time": 0, "numerator": 4, "denominator": 4}, {"time": 0, "numerator": 1, "denominator": 4}], "tracks": [{"program": 0, "is_drum": false, "name": "MELODY", "notes": [{"time": 206, "pitch": 83, "duration": 4, "velocity": 88}, {"time": 212, "pitch": 88, "duration": 9, "velocity": 89}, {"time": 224, "pitch": 87, "duration": 5, "velocity": 89}, {"time": 230, "pitch": 88, "duration": 2, "velocity": 89}, {"time": 233, "pitch": 88, "duration": 12, "velocity": 89}, {"time": 254, "pitch": 88, "duration": 4, "velocity": 89}, {"time": 260, "pitch": 88, "duration": 4, "velocity": 90}, {"time": 266, "pitch": 87, "duration": 6, "velocity": 90}, {"time": 272, "pitch": 85, "duration": 5, "velocity": 90}, {"time": 278, "pitch": 87, "duration": 4, "velocity": 90}, {"time": 281, "pitch": 85, "duration": 4, "velocity": 90}, {"time": 287, "pitch": 83, "duration": 13, "velocity": 90}, {"time": 302, "pitch": 83, "duration": 7, "velocity": 90}, {"time": 308, "pitch": 83, "duration": 1, "velocity": 90}, {"time": 320, "pitch": 81, "duration": 5, "velocity": 90}, {"time": 326, "pitch": 80, "duration": 2, "velocity": 90}, {"time": 329, "pitch": 83, "duration": 10, "velocity": 90}, {"time": 350, "pitch": 83, "duration": 2, "velocity": 90}, {"time": 356, "pitch": 83, "duration": 4, "velocity": 90}, {"time": 362, "pitch": 85, "duration": 6, "velocity": 90}, {"time": 368, "pitch": 78, "duration": 5, "velocity": 90}, {"time": 374, "pitch": 81, "duration": 2, "velocity": 90}, {"time": 377, "pitch": 81, "duration": 5, "velocity": 90}, {"time": 383, "pitch": 80, "duration": 8, "velocity": 90}, {"time": 398, "pitch": 83, "duration": 5, "velocity": 89}, {"time": 404, "pitch": 88, "duration": 9, "velocity": 89}, {"time": 416, "pitch": 87, "duration": 6, "velocity": 89}, {"time": 422, "pitch": 88, "duration": 2, "velocity": 89}, {"time": 425, "pitch": 88, "duration": 13, "velocity": 89}, {"time": 446, "pitch": 88, "duration": 4, "velocity": 89}, {"time": 452, "pitch": 88, "duration": 4, "velocity": 89}, {"time": 458, "pitch": 87, "duration": 4, "velocity": 88}, {"time": 464, "pitch": 88, "duration": 4, "velocity": 88}, {"time": 470, "pitch": 90, "duration": 2, "velocity": 88}, {"time": 473, "pitch": 90, "duration": 4, "velocity": 88}, {"time": 479, "pitch": 88, "duration": 8, "velocity": 88}, {"time": 488, "pitch": 88, "duration": 6, "velocity": 88}, {"time": 494, "pitch": 87, "duration": 4, "velocity": 88}, {"time": 500, "pitch": 88, "duration": 4, "velocity": 88}, {"time": 506, "pitch": 88, "duration": 2, "velocity": 88}, {"time": 509, "pitch": 88, "duration": 6, "velocity": 88}, {"time": 518, "pitch": 87, "duration": 2, "velocity": 88}, {"time": 521, "pitch": 87, "duration": 5, "velocity": 88}, {"time": 527, "pitch": 85, "duration": 11, "velocity": 88}, {"time": 536, "pitch": 85, "duration": 2, "velocity": 88}, {"time": 542, "pitch": 87, "duration": 2, "velocity": 88}, {"time": 545, "pitch": 85, "duration": 5, "velocity": 88}, {"time": 551, "pitch": 83, "duration": 27, "velocity": 88}, {"time": 584, "pitch": 83, "duration": 7, "velocity": 86}, {"time": 590, "pitch": 88, "duration": 4, "velocity": 86}, {"time": 596, "pitch": 88, "duration": 9, "velocity": 86}, {"time": 608, "pitch": 80, "duration": 5, "velocity": 86}, {"time": 614, "pitch": 85, "duration": 4, "velocity": 86}, {"time": 620, "pitch": 85, "duration": 8, "velocity": 86}, {"time": 632, "pitch": 83, "duration": 8, "velocity": 86}, {"time": 638, "pitch": 90, "duration": 5, "velocity": 86}, {"time": 644, "pitch": 90, "duration": 8, "velocity": 86}, {"time": 656, "pitch": 78, "duration": 7, "velocity": 86}, {"time": 662, "pitch": 81, "duration": 2, "velocity": 86}, {"time": 665, "pitch": 81, "duration": 4, "velocity": 86}, {"time": 671, "pitch": 80, "duration": 10, "velocity": 86}, {"time": 686, "pitch": 83, "duration": 4, "velocity": 86}, {"time": 692, "pitch": 83, "duration": 4, "velocity": 86}, {"time": 698, "pitch": 81, "duration": 4, "velocity": 86}, {"time": 704, "pitch": 81, "duration": 4, "velocity": 86}, {"time": 710, "pitch": 80, "duration": 2, "velocity": 86}, {"time": 713, "pitch": 80, "duration": 5, "velocity": 86}, {"time": 719, "pitch": 78, "duration": 5, "velocity": 86}, {"time": 728, "pitch": 78, "duration": 5, "velocity": 86}, {"time": 734, "pitch": 76, "duration": 4, "velocity": 86}, {"time": 740, "pitch": 80, "duration": 4, "velocity": 86}, {"time": 746, "pitch": 78, "duration": 12, "velocity": 85}, {"time": 758, "pitch": 81, "duration": 4, "velocity": 84}, {"time": 764, "pitch": 80, "duration": 9, "velocity": 84}, {"time": 776, "pitch": 83, "duration": 7, "velocity": 84}, {"time": 782, "pitch": 88, "duration": 4, "velocity": 84}, {"time": 788, "pitch": 88, "duration": 9, "velocity": 84}, {"time": 800, "pitch": 80, "duration": 7, "velocity": 83}, {"time": 806, "pitch": 85, "duration": 4, "velocity": 83}, {"time": 812, "pitch": 85, "duration": 4, "velocity": 83}, {"time": 818, "pitch": 83, "duration": 4, "velocity": 83}, {"time": 824, "pitch": 83, "duration": 5, "velocity": 83}, {"time": 830, "pitch": 90, "duration": 4, "velocity": 83}, {"time": 836, "pitch": 90, "duration": 8, "velocity": 83}, {"time": 842, "pitch": 78, "duration": 4, "velocity": 83}, {"time": 848, "pitch": 78, "duration": 4, "velocity": 83}, {"time": 854, "pitch": 81, "duration": 4, "velocity": 83}, {"time": 860, "pitch": 80, "duration": 7, "velocity": 83}, {"time": 866, "pitch": 83, "duration": 4, "velocity": 83}, {"time": 872, "pitch": 83, "duration": 4, "velocity": 83}, {"time": 878, "pitch": 92, "duration": 4, "velocity": 83}, {"time": 884, "pitch": 92, "duration": 7, "velocity": 83}, {"time": 890, "pitch": 90, "duration": 4, "velocity": 83}, {"time": 896, "pitch": 90, "duration": 4, "velocity": 83}, {"time": 902, "pitch": 88, "duration": 4, "velocity": 83}, {"time": 908, "pitch": 88, "duration": 4, "velocity": 83}, {"time": 914, "pitch": 90, "duration": 6, "velocity": 83}, {"time": 920, "pitch": 88, "duration": 4, "velocity": 83}, {"time": 926, "pitch": 92, "duration": 4, "velocity": 83}, {"time": 932, "pitch": 92, "duration": 7, "velocity": 83}, {"time": 941, "pitch": 90, "duration": 15, "velocity": 83}, {"time": 962, "pitch": 83, "duration": 6, "velocity": 83}, {"time": 968, "pitch": 88, "duration": 5, "velocity": 83}, {"time": 974, "pitch": 88, "duration": 2, "velocity": 83}, {"time": 977, "pitch": 88, "duration": 16, "velocity": 83}, {"time": 998, "pitch": 88, "duration": 4, "velocity": 83}, {"time": 1004, "pitch": 88, "duration": 4, "velocity": 83}, {"time": 1010, "pitch": 87, "duration": 6, "velocity": 83}, {"time": 1016, "pitch": 85, "duration": 3, "velocity": 83}, {"time": 1022, "pitch": 83, "duration": 5, "velocity": 83}, {"time": 1028, "pitch": 87, "duration": 5, "velocity": 83}, {"time": 1034, "pitch": 88, "duration": 5, "velocity": 83}, {"time": 1040, "pitch": 90, "duration": 6, "velocity": 83}, {"time": 1049, "pitch": 88, "duration": 11, "velocity": 83}, {"time": 1058, "pitch": 83, "duration": 5, "velocity": 83}, {"time": 1064, "pitch": 88, "duration": 4, "velocity": 83}, {"time": 1070, "pitch": 88, "duration": 2, "velocity": 83}, {"time": 1073, "pitch": 88, "duration": 7, "velocity": 83}, {"time": 1094, "pitch": 88, "duration": 4, "velocity": 83}, {"time": 1100, "pitch": 88, "duration": 5, "velocity": 83}, {"time": 1106, "pitch": 87, "duration": 6, "velocity": 83}, {"time": 1112, "pitch": 85, "duration": 3, "velocity": 83}, {"time": 1118, "pitch": 83, "duration": 6, "velocity": 83}, {"time": 1124, "pitch": 90, "duration": 9, "velocity": 83}, {"time": 1130, "pitch": 92, "duration": 5, "velocity": 83}, {"time": 1136, "pitch": 93, "duration": 7, "velocity": 83}, {"time": 1145, "pitch": 92, "duration": 8, "velocity": 83}, {"time": 1154, "pitch": 83, "duration": 8, "velocity": 83}, {"time": 1160, "pitch": 88, "duration": 5, "velocity": 83}, {"time": 1166, "pitch": 88, "duration": 2, "velocity": 83}, {"time": 1169, "pitch": 88, "duration": 6, "velocity": 83}, {"time": 1190, "pitch": 88, "duration": 5, "velocity": 83}, {"time": 1196, "pitch": 88, "duration": 4, "velocity": 83}, {"time": 1202, "pitch": 87, "duration": 6, "velocity": 83}, {"time": 1208, "pitch": 85, "duration": 3, "velocity": 83}, {"time": 1214, "pitch": 83, "duration": 5, "velocity": 83}, {"time": 1220, "pitch": 90, "duration": 5, "velocity": 83}, {"time": 1226, "pitch": 88, "duration": 4, "velocity": 83}, {"time": 1232, "pitch": 87, "duration": 5, "velocity": 83}, {"time": 1238, "pitch": 88, "duration": 2, "velocity": 83}, {"time": 1241, "pitch": 88, "duration": 17, "velocity": 83}, {"time": 1262, "pitch": 88, "duration": 3, "velocity": 83}, {"time": 1268, "pitch": 88, "duration": 4, "velocity": 83}, {"time": 1274, "pitch": 92, "duration": 4, "velocity": 83}, {"time": 1280, "pitch": 90, "duration": 5, "velocity": 83}, {"time": 1286, "pitch": 88, "duration": 5, "velocity": 83}, {"time": 1292, "pitch": 88, "duration": 5, "velocity": 83}, {"time": 1298, "pitch": 87, "duration": 3, "velocity": 83}, {"time": 1304, "pitch": 90, "duration": 7, "velocity": 83}, {"time": 1313, "pitch": 88, "duration": 27, "velocity": 83}, {"time": 1346, "pitch": 83, "duration": 6, "velocity": 83}, {"time": 1352, "pitch": 88, "duration": 5, "velocity": 83}, {"time": 1358, "pitch": 88, "duration": 2, "velocity": 83}, {"time": 1361, "pitch": 88, "duration": 16, "velocity": 83}, {"time": 1382, "pitch": 88, "duration": 4, "velocity": 83}, {"time": 1388, "pitch": 88, "duration": 4, "velocity": 83}, {"time": 1394, "pitch": 87, "duration": 6, "velocity": 83}, {"time": 1400, "pitch": 85, "duration": 3, "velocity": 83}, {"time": 1406, "pitch": 83, "duration": 5, "velocity": 83}, {"time": 1412, "pitch": 87, "duration": 5, "velocity": 83}, {"time": 1418, "pitch": 88, "duration": 5, "velocity": 83}, {"time": 1424, "pitch": 90, "duration": 6, "velocity": 83}, {"time": 1433, "pitch": 88, "duration": 11, "velocity": 83}, {"time": 1442, "pitch": 83, "duration": 5, "velocity": 83}, {"time": 1448, "pitch": 88, "duration": 4, "velocity": 83}, {"time": 1454, "pitch": 88, "duration": 2, "velocity": 83}, {"time": 1457, "pitch": 88, "duration": 7, "velocity": 83}, {"time": 1478, "pitch": 88, "duration": 4, "velocity": 83}, {"time": 1484, "pitch": 88, "duration": 5, "velocity": 83}, {"time": 1490, "pitch": 87, "duration": 6, "velocity": 83}, {"time": 1496, "pitch": 85, "duration": 3, "velocity": 83}, {"time": 1502, "pitch": 83, "duration": 6, "velocity": 83}, {"time": 1508, "pitch": 90, "duration": 6, "velocity": 83}, {"time": 1514, "pitch": 92, "duration": 5, "velocity": 83}, {"time": 1520, "pitch": 93, "duration": 4, "velocity": 83}, {"time": 1526, "pitch": 92, "duration": 2, "velocity": 83}, {"time": 1529, "pitch": 92, "duration": 8, "velocity": 83}, {"time": 1538, "pitch": 83, "duration": 8, "velocity": 83}, {"time": 1544, "pitch": 88, "duration": 5, "velocity": 83}, {"time": 1550, "pitch": 88, "duration": 2, "velocity": 83}, {"time": 1553, "pitch": 88, "duration": 6, "velocity": 83}, {"time": 1574, "pitch": 88, "duration": 5, "velocity": 83}, {"time": 1580, "pitch": 88, "duration": 4, "velocity": 83}, {"time": 1586, "pitch": 87, "duration": 6, "velocity": 83}, {"time": 1592, "pitch": 85, "duration": 3, "velocity": 83}, {"time": 1598, "pitch": 83, "duration": 5, "velocity": 83}, {"time": 1604, "pitch": 90, "duration": 5, "velocity": 83}, {"time": 1610, "pitch": 88, "duration": 4, "velocity": 83}, {"time": 1616, "pitch": 90, "duration": 3, "velocity": 83}, {"time": 1622, "pitch": 93, "duration": 2, "velocity": 83}, {"time": 1625, "pitch": 92, "duration": 5, "velocity": 83}, {"time": 1631, "pitch": 88, "duration": 13, "velocity": 83}, {"time": 1646, "pitch": 88, "duration": 3, "velocity": 83}, {"time": 1652, "pitch": 88, "duration": 4, "velocity": 83}, {"time": 1658, "pitch": 92, "duration": 4, "velocity": 83}, {"time": 1664, "pitch": 90, "duration": 5, "velocity": 83}, {"time": 1670, "pitch": 88, "duration": 5, "velocity": 83}, {"time": 1676, "pitch": 88, "duration": 5, "velocity": 83}, {"time": 1682, "pitch": 87, "duration": 3, "velocity": 83}, {"time": 1688, "pitch": 90, "duration": 7, "velocity": 83}, {"time": 1694, "pitch": 88, "duration": 2, "velocity": 83}, {"time": 1697, "pitch": 88, "duration": 15, "velocity": 83}, {"time": 2120, "pitch": 88, "duration": 5, "velocity": 83}, {"time": 2126, "pitch": 88, "duration": 2, "velocity": 83}, {"time": 2129, "pitch": 88, "duration": 16, "velocity": 83}, {"time": 2150, "pitch": 88, "duration": 4, "velocity": 83}, {"time": 2156, "pitch": 88, "duration": 4, "velocity": 83}, {"time": 2162, "pitch": 87, "duration": 6, "velocity": 83}, {"time": 2168, "pitch": 85, "duration": 3, "velocity": 83}, {"time": 2174, "pitch": 83, "duration": 5, "velocity": 83}, {"time": 2180, "pitch": 87, "duration": 5, "velocity": 83}, {"time": 2186, "pitch": 88, "duration": 5, "velocity": 83}, {"time": 2192, "pitch": 90, "duration": 6, "velocity": 83}, {"time": 2201, "pitch": 88, "duration": 11, "velocity": 83}, {"time": 2210, "pitch": 83, "duration": 5, "velocity": 83}, {"time": 2216, "pitch": 88, "duration": 4, "velocity": 84}, {"time": 2222, "pitch": 88, "duration": 2, "velocity": 84}, {"time": 2225, "pitch": 88, "duration": 7, "velocity": 84}, {"time": 2246, "pitch": 88, "duration": 4, "velocity": 85}, {"time": 2252, "pitch": 88, "duration": 5, "velocity": 85}, {"time": 2258, "pitch": 87, "duration": 6, "velocity": 85}, {"time": 2264, "pitch": 85, "duration": 3, "velocity": 85}, {"time": 2270, "pitch": 83, "duration": 6, "velocity": 85}, {"time": 2276, "pitch": 90, "duration": 9, "velocity": 85}, {"time": 2282, "pitch": 92, "duration": 5, "velocity": 85}, {"time": 2288, "pitch": 93, "duration": 7, "velocity": 85}, {"time": 2297, "pitch": 92, "duration": 8, "velocity": 85}, {"time": 2306, "pitch": 83, "duration": 8, "velocity": 85}, {"time": 2312, "pitch": 88, "duration": 5, "velocity": 85}, {"time": 2318, "pitch": 88, "duration": 2, "velocity": 85}, {"time": 2321, "pitch": 88, "duration": 6, "velocity": 85}, {"time": 2342, "pitch": 88, "duration": 5, "velocity": 85}, {"time": 2348, "pitch": 88, "duration": 4, "velocity": 86}, {"time": 2354, "pitch": 87, "duration": 6, "velocity": 87}, {"time": 2360, "pitch": 85, "duration": 3, "velocity": 87}, {"time": 2366, "pitch": 83, "duration": 5, "velocity": 87}, {"time": 2372, "pitch": 90, "duration": 5, "velocity": 88}, {"time": 2378, "pitch": 88, "duration": 4, "velocity": 87}, {"time": 2384, "pitch": 87, "duration": 5, "velocity": 86}, {"time": 2390, "pitch": 88, "duration": 2, "velocity": 87}, {"time": 2393, "pitch": 88, "duration": 17, "velocity": 86}, {"time": 2414, "pitch": 88, "duration": 3, "velocity": 86}, {"time": 2420, "pitch": 88, "duration": 4, "velocity": 85}, {"time": 2426, "pitch": 92, "duration": 4, "velocity": 85}, {"time": 2432, "pitch": 90, "duration": 5, "velocity": 85}, {"time": 2438, "pitch": 88, "duration": 5, "velocity": 85}, {"time": 2444, "pitch": 88, "duration": 5, "velocity": 85}, {"time": 2450, "pitch": 87, "duration": 3, "velocity": 85}, {"time": 2456, "pitch": 90, "duration": 7, "velocity": 85}, {"time": 2465, "pitch": 88, "duration": 27, "velocity": 85}, {"time": 2504, "pitch": 83, "duration": 7, "velocity": 84}, {"time": 2510, "pitch": 88, "duration": 4, "velocity": 84}, {"time": 2516, "pitch": 88, "duration": 9, "velocity": 84}, {"time": 2528, "pitch": 80, "duration": 5, "velocity": 84}, {"time": 2534, "pitch": 85, "duration": 4, "velocity": 84}, {"time": 2540, "pitch": 85, "duration": 8, "velocity": 84}, {"time": 2552, "pitch": 83, "duration": 8, "velocity": 84}, {"time": 2558, "pitch": 90, "duration": 5, "velocity": 84}, {"time": 2564, "pitch": 90, "duration": 8, "velocity": 84}, {"time": 2576, "pitch": 78, "duration": 7, "velocity": 84}, {"time": 2582, "pitch": 81, "duration": 2, "velocity": 84}, {"time": 2585, "pitch": 81, "duration": 4, "velocity": 84}, {"time": 2591, "pitch": 80, "duration": 10, "velocity": 84}, {"time": 2606, "pitch": 83, "duration": 4, "velocity": 84}, {"time": 2612, "pitch": 83, "duration": 4, "velocity": 85}, {"time": 2618, "pitch": 81, "duration": 4, "velocity": 84}, {"time": 2624, "pitch": 81, "duration": 4, "velocity": 84}, {"time": 2630, "pitch": 80, "duration": 2, "velocity": 84}, {"time": 2633, "pitch": 80, "duration": 5, "velocity": 84}, {"time": 2639, "pitch": 78, "duration": 5, "velocity": 84}, {"time": 2648, "pitch": 78, "duration": 5, "velocity": 85}, {"time": 2654, "pitch": 76, "duration": 4, "velocity": 85}, {"time": 2660, "pitch": 80, "duration": 4, "velocity": 85}, {"time": 2666, "pitch": 78, "duration": 12, "velocity": 85}, {"time": 2678, "pitch": 81, "duration": 4, "velocity": 85}, {"time": 2684, "pitch": 80, "duration": 9, "velocity": 85}, {"time": 2696, "pitch": 83, "duration": 7, "velocity": 85}, {"time": 2702, "pitch": 88, "duration": 4, "velocity": 85}, {"time": 2708, "pitch": 88, "duration": 9, "velocity": 85}, {"time": 2720, "pitch": 80, "duration": 7, "velocity": 85}, {"time": 2726, "pitch": 85, "duration": 4, "velocity": 85}, {"time": 2732, "pitch": 85, "duration": 4, "velocity": 85}, {"time": 2738, "pitch": 83, "duration": 4, "velocity": 85}, {"time": 2744, "pitch": 83, "duration": 5, "velocity": 85}, {"time": 2750, "pitch": 90, "duration": 4, "velocity": 85}, {"time": 2756, "pitch": 90, "duration": 8, "velocity": 85}, {"time": 2762, "pitch": 78, "duration": 4, "velocity": 85}, {"time": 2768, "pitch": 78, "duration": 4, "velocity": 85}, {"time": 2774, "pitch": 81, "duration": 4, "velocity": 85}, {"time": 2780, "pitch": 80, "duration": 7, "velocity": 85}, {"time": 2786, "pitch": 83, "duration": 4, "velocity": 85}, {"time": 2792, "pitch": 83, "duration": 4, "velocity": 85}, {"time": 2798, "pitch": 92, "duration": 4, "velocity": 85}, {"time": 2804, "pitch": 92, "duration": 7, "velocity": 85}, {"time": 2810, "pitch": 90, "duration": 4, "velocity": 85}, {"time": 2816, "pitch": 90, "duration": 4, "velocity": 85}, {"time": 2822, "pitch": 88, "duration": 4, "velocity": 85}, {"time": 2828, "pitch": 88, "duration": 4, "velocity": 85}, {"time": 2834, "pitch": 90, "duration": 6, "velocity": 85}, {"time": 2840, "pitch": 88, "duration": 4, "velocity": 85}, {"time": 2846, "pitch": 92, "duration": 4, "velocity": 85}, {"time": 2852, "pitch": 92, "duration": 7, "velocity": 85}, {"time": 2861, "pitch": 90, "duration": 15, "velocity": 85}, {"time": 2882, "pitch": 83, "duration": 6, "velocity": 85}, {"time": 2888, "pitch": 88, "duration": 5, "velocity": 85}, {"time": 2894, "pitch": 88, "duration": 2, "velocity": 85}, {"time": 2897, "pitch": 88, "duration": 16, "velocity": 85}, {"time": 2918, "pitch": 88, "duration": 4, "velocity": 85}, {"time": 2924, "pitch": 88, "duration": 4, "velocity": 84}, {"time": 2930, "pitch": 87, "duration": 6, "velocity": 85}, {"time": 2936, "pitch": 85, "duration": 3, "velocity": 85}, {"time": 2942, "pitch": 83, "duration": 5, "velocity": 84}, {"time": 2948, "pitch": 87, "duration": 5, "velocity": 84}, {"time": 2954, "pitch": 88, "duration": 5, "velocity": 85}, {"time": 2960, "pitch": 90, "duration": 6, "velocity": 84}, {"time": 2969, "pitch": 88, "duration": 11, "velocity": 84}, {"time": 2978, "pitch": 83, "duration": 5, "velocity": 85}, {"time": 2984, "pitch": 88, "duration": 4, "velocity": 84}, {"time": 2990, "pitch": 88, "duration": 2, "velocity": 85}, {"time": 2993, "pitch": 88, "duration": 7, "velocity": 84}, {"time": 3014, "pitch": 88, "duration": 4, "velocity": 84}, {"time": 3020, "pitch": 88, "duration": 5, "velocity": 84}, {"time": 3026, "pitch": 87, "duration": 6, "velocity": 84}, {"time": 3032, "pitch": 85, "duration": 3, "velocity": 84}, {"time": 3038, "pitch": 83, "duration": 6, "velocity": 84}, {"time": 3044, "pitch": 90, "duration": 9, "velocity": 84}, {"time": 3050, "pitch": 92, "duration": 5, "velocity": 84}, {"time": 3056, "pitch": 93, "duration": 7, "velocity": 84}, {"time": 3065, "pitch": 92, "duration": 8, "velocity": 84}, {"time": 3074, "pitch": 83, "duration": 8, "velocity": 84}, {"time": 3080, "pitch": 88, "duration": 5, "velocity": 84}, {"time": 3086, "pitch": 88, "duration": 2, "velocity": 84}, {"time": 3089, "pitch": 88, "duration": 6, "velocity": 84}, {"time": 3110, "pitch": 88, "duration": 5, "velocity": 84}, {"time": 3116, "pitch": 88, "duration": 4, "velocity": 84}, {"time": 3122, "pitch": 87, "duration": 6, "velocity": 84}, {"time": 3128, "pitch": 85, "duration": 3, "velocity": 84}, {"time": 3134, "pitch": 83, "duration": 5, "velocity": 84}, {"time": 3140, "pitch": 90, "duration": 5, "velocity": 84}, {"time": 3146, "pitch": 88, "duration": 4, "velocity": 84}, {"time": 3152, "pitch": 87, "duration": 5, "velocity": 84}, {"time": 3158, "pitch": 88, "duration": 2, "velocity": 84}, {"time": 3161, "pitch": 88, "duration": 17, "velocity": 84}, {"time": 3182, "pitch": 88, "duration": 3, "velocity": 84}, {"time": 3188, "pitch": 88, "duration": 4, "velocity": 84}, {"time": 3194, "pitch": 92, "duration": 4, "velocity": 84}, {"time": 3200, "pitch": 90, "duration": 5, "velocity": 84}, {"time": 3206, "pitch": 88, "duration": 5, "velocity": 84}, {"time": 3212, "pitch": 88, "duration": 5, "velocity": 84}, {"time": 3218, "pitch": 87, "duration": 3, "velocity": 84}, {"time": 3224, "pitch": 90, "duration": 7, "velocity": 84}, {"time": 3233, "pitch": 88, "duration": 27, "velocity": 84}, {"time": 3266, "pitch": 83, "duration": 6, "velocity": 84}, {"time": 3272, "pitch": 88, "duration": 5, "velocity": 84}, {"time": 3278, "pitch": 88, "duration": 2, "velocity": 84}, {"time": 3281, "pitch": 88, "duration": 16, "velocity": 84}, {"time": 3302, "pitch": 88, "duration": 4, "velocity": 84}, {"time": 3308, "pitch": 88, "duration": 4, "velocity": 84}, {"time": 3314, "pitch": 87, "duration": 6, "velocity": 84}, {"time": 3320, "pitch": 85, "duration": 3, "velocity": 84}, {"time": 3326, "pitch": 83, "duration": 5, "velocity": 84}, {"time": 3332, "pitch": 87, "duration": 5, "velocity": 84}, {"time": 3338, "pitch": 88, "duration": 5, "velocity": 84}, {"time": 3344, "pitch": 90, "duration": 6, "velocity": 84}, {"time": 3353, "pitch": 88, "duration": 11, "velocity": 84}, {"time": 3362, "pitch": 83, "duration": 5, "velocity": 84}, {"time": 3368, "pitch": 88, "duration": 4, "velocity": 84}, {"time": 3374, "pitch": 88, "duration": 2, "velocity": 84}, {"time": 3377, "pitch": 88, "duration": 7, "velocity": 84}, {"time": 3398, "pitch": 88, "duration": 4, "velocity": 84}, {"time": 3404, "pitch": 88, "duration": 5, "velocity": 84}, {"time": 3410, "pitch": 87, "duration": 6, "velocity": 84}, {"time": 3416, "pitch": 85, "duration": 3, "velocity": 84}, {"time": 3422, "pitch": 83, "duration": 6, "velocity": 84}, {"time": 3428, "pitch": 90, "duration": 6, "velocity": 84}, {"time": 3434, "pitch": 92, "duration": 5, "velocity": 84}, {"time": 3440, "pitch": 93, "duration": 4, "velocity": 84}, {"time": 3446, "pitch": 92, "duration": 2, "velocity": 84}, {"time": 3449, "pitch": 92, "duration": 8, "velocity": 84}, {"time": 3458, "pitch": 83, "duration": 8, "velocity": 84}, {"time": 3464, "pitch": 88, "duration": 5, "velocity": 84}, {"time": 3470, "pitch": 88, "duration": 2, "velocity": 84}, {"time": 3473, "pitch": 88, "duration": 6, "velocity": 84}, {"time": 3494, "pitch": 88, "duration": 5, "velocity": 84}, {"time": 3500, "pitch": 88, "duration": 4, "velocity": 84}, {"time": 3506, "pitch": 87, "duration": 6, "velocity": 84}, {"time": 3512, "pitch": 85, "duration": 3, "velocity": 84}, {"time": 3518, "pitch": 83, "duration": 5, "velocity": 84}, {"time": 3524, "pitch": 90, "duration": 5, "velocity": 84}, {"time": 3530, "pitch": 88, "duration": 4, "velocity": 84}, {"time": 3536, "pitch": 90, "duration": 3, "velocity": 84}, {"time": 3542, "pitch": 93, "duration": 2, "velocity": 84}, {"time": 3545, "pitch": 92, "duration": 5, "velocity": 84}, {"time": 3551, "pitch": 88, "duration": 13, "velocity": 85}, {"time": 3566, "pitch": 88, "duration": 3, "velocity": 86}, {"time": 3572, "pitch": 88, "duration": 4, "velocity": 88}, {"time": 3578, "pitch": 92, "duration": 4, "velocity": 86}, {"time": 3584, "pitch": 90, "duration": 5, "velocity": 88}, {"time": 3590, "pitch": 88, "duration": 5, "velocity": 86}, {"time": 3596, "pitch": 88, "duration": 5, "velocity": 88}, {"time": 3602, "pitch": 87, "duration": 3, "velocity": 86}, {"time": 3608, "pitch": 90, "duration": 7, "velocity": 88}, {"time": 3614, "pitch": 88, "duration": 2, "velocity": 87}, {"time": 3617, "pitch": 88, "duration": 15, "velocity": 88}], "annotations": [{"time": 20, "annotation": {"number": 64, "value": 79}, "group": "control_change"}, {"time": 224, "annotation": {"number": 64, "value": 80}, "group": "control_change"}]}, {"program": 0, "is_drum": false, "name": "PIANO", "notes": [{"time": 8, "pitch": 66, "duration": 4, "velocity": 61}, {"time": 11, "pitch": 68, "duration": 3, "velocity": 61}, {"time": 14, "pitch": 71, "duration": 4, "velocity": 66}, {"time": 17, "pitch": 73, "duration": 2, "velocity": 63}, {"time": 20, "pitch": 49, "duration": 16, "velocity": 74}, {"time": 20, "pitch": 76, "duration": 11, "velocity": 70}, {"time": 26, "pitch": 56, "duration": 12, "velocity": 63}, {"time": 32, "pitch": 61, "duration": 8, "velocity": 85}, {"time": 38, "pitch": 47, "duration": 4, "velocity": 85}, {"time": 41, "pitch": 80, "duration": 2, "velocity": 85}, {"time": 44, "pitch": 45, "duration": 13, "velocity": 85}, {"time": 44, "pitch": 78, "duration": 4, "velocity": 85}, {"time": 50, "pitch": 52, "duration": 12, "velocity": 85}, {"time": 50, "pitch": 76, "duration": 7, "velocity": 85}, {"time": 56, "pitch": 57, "duration": 9, "velocity": 85}, {"time": 62, "pitch": 73, "duration": 2, "velocity": 85}, {"time": 64, "pitch": 76, "duration": 3, "velocity": 85}, {"time": 67, "pitch": 73, "duration": 2, "velocity": 85}, {"time": 68, "pitch": 47, "duration": 14, "velocity": 85}, {"time": 68, "pitch": 71, "duration": 7, "velocity": 85}, {"time": 74, "pitch": 54, "duration": 9, "velocity": 85}, {"time": 77, "pitch": 73, "duration": 3, "velocity": 85}, {"time": 80, "pitch": 59, "duration": 6, "velocity": 85}, {"time": 80, "pitch": 76, "duration": 4, "velocity": 85}, {"time": 86, "pitch": 49, "duration": 6, "velocity": 85}, {"time": 86, "pitch": 78, "duration": 4, "velocity": 85}, {"time": 92, "pitch": 52, "duration": 18, "velocity": 85}, {"time": 92, "pitch": 80, "duration": 6, "velocity": 85}, {"time": 98, "pitch": 59, "duration": 12, "velocity": 85}, {"time": 104, "pitch": 51, "duration": 7, "velocity": 85}, {"time": 104, "pitch": 64, "duration": 5, "velocity": 85}, {"time": 104, "pitch": 66, "duration": 3, "velocity": 85}, {"time": 107, "pitch": 68, "duration": 4, "velocity": 85}, {"time": 110, "pitch": 71, "duration": 2, "velocity": 85}, {"time": 113, "pitch": 73, "duration": 2, "velocity": 85}, {"time": 116, "pitch": 49, "duration": 14, "velocity": 85}, {"time": 116, "pitch": 76, "duration": 8, "velocity": 85}, {"time": 122, "pitch": 56, "duration": 9, "velocity": 85}, {"time": 128, "pitch": 61, "duration": 5, "velocity": 85}, {"time": 128, "pitch": 76, "duration": 5, "velocity": 85}, {"time": 134, "pitch": 47, "duration": 4, "velocity": 85}, {"time": 137, "pitch": 80, "duration": 2, "velocity": 85}, {"time": 140, "pitch": 45, "duration": 16, "velocity": 85}, {"time": 140, "pitch": 78, "duration": 4, "velocity": 85}, {"time": 146, "pitch": 52, "duration": 11, "velocity": 85}, {"time": 146, "pitch": 76, "duration": 6, "velocity": 85}, {"time": 152, "pitch": 57, "duration": 5, "velocity": 85}, {"time": 158, "pitch": 45, "duration": 5, "velocity": 85}, {"time": 158, "pitch": 73, "duration": 3, "velocity": 85}, {"time": 161, "pitch": 76, "duration": 2, "velocity": 85}, {"time": 164, "pitch": 47, "duration": 17, "velocity": 85}, {"time": 164, "pitch": 78, "duration": 25, "velocity": 85}, {"time": 170, "pitch": 54, "duration": 12, "velocity": 85}, {"time": 176, "pitch": 59, "duration": 6, "velocity": 85}, {"time": 182, "pitch": 47, "duration": 4, "velocity": 85}, {"time": 188, "pitch": 47, "duration": 13, "velocity": 85}, {"time": 188, "pitch": 54, "duration": 12, "velocity": 85}, {"time": 188, "pitch": 59, "duration": 12, "velocity": 85}, {"time": 188, "pitch": 63, "duration": 12, "velocity": 85}, {"time": 188, "pitch": 66, "duration": 12, "velocity": 85}, {"time": 212, "pitch": 52, "duration": 15, "velocity": 85}, {"time": 212, "pitch": 68, "duration": 11, "velocity": 85}, {"time": 212, "pitch": 71, "duration": 11, "velocity": 85}, {"time": 218, "pitch": 56, "duration": 6, "velocity": 85}, {"time": 224, "pitch": 59, "duration": 7, "velocity": 85}, {"time": 224, "pitch": 76, "duration": 4, "velocity": 85}, {"time": 227, "pitch": 71, "duration": 2, "velocity": 85}, {"time": 230, "pitch": 68, "duration": 4, "velocity": 85}, {"time": 233, "pitch": 69, "duration": 11, "velocity": 85}, {"time": 236, "pitch": 45, "duration": 19, "velocity": 85}, {"time": 242, "pitch": 52, "duration": 16, "velocity": 85}, {"time": 248, "pitch": 57, "duration": 7, "velocity": 85}, {"time": 248, "pitch": 73, "duration": 7, "velocity": 85}, {"time": 248, "pitch": 76, "duration": 7, "velocity": 85}, {"time": 254, "pitch": 71, "duration": 6, "velocity": 85}, {"time": 260, "pitch": 47, "duration": 14, "velocity": 85}, {"time": 260, "pitch": 75, "duration": 6, "velocity": 85}, {"time": 266, "pitch": 54, "duration": 9, "velocity": 85}, {"time": 272, "pitch": 59, "duration": 6, "velocity": 85}, {"time": 272, "pitch": 75, "duration": 4, "velocity": 85}, {"time": 275, "pitch": 71, "duration": 3, "velocity": 85}, {"time": 278, "pitch": 75, "duration": 3, "velocity": 85}, {"time": 281, "pitch": 76, "duration": 12, "velocity": 85}, {"time": 284, "pitch": 52, "duration": 9, "velocity": 85}, {"time": 290, "pitch": 59, "duration": 6, "velocity": 85}, {"time": 290, "pitch": 71, "duration": 3, "velocity": 85}, {"time": 293, "pitch": 76, "duration": 3, "velocity": 85}, {"time": 296, "pitch": 51, "duration": 9, "velocity": 85}, {"time": 296, "pitch": 64, "duration": 6, "velocity": 85}, {"time": 296, "pitch": 75, "duration": 6, "velocity": 85}, {"time": 308, "pitch": 49, "duration": 15, "velocity": 85}, {"time": 308, "pitch": 61, "duration": 14, "velocity": 85}, {"time": 308, "pitch": 71, "duration": 10, "velocity": 85}, {"time": 308, "pitch": 76, "duration": 10, "velocity": 85}, {"time": 320, "pitch": 71, "duration": 11, "velocity": 85}, {"time": 320, "pitch": 76, "duration": 10, "velocity": 85}, {"time": 326, "pitch": 47, "duration": 3, "velocity": 85}, {"time": 326, "pitch": 59, "duration": 2, "velocity": 85}, {"time": 332, "pitch": 45, "duration": 18, "velocity": 85}, {"time": 332, "pitch": 57, "duration": 17, "velocity": 85}, {"time": 332, "pitch": 71, "duration": 10, "velocity": 85}, {"time": 332, "pitch": 75, "duration": 10, "velocity": 85}, {"time": 344, "pitch": 71, "duration": 11, "velocity": 85}, {"time": 344, "pitch": 75, "duration": 11, "velocity": 85}, {"time": 356, "pitch": 47, "duration": 19, "velocity": 85}, {"time": 356, "pitch": 59, "duration": 12, "velocity": 85}, {"time": 356, "pitch": 71, "duration": 10, "velocity": 85}, {"time": 356, "pitch": 76, "duration": 11, "velocity": 85}, {"time": 368, "pitch": 75, "duration": 3, "velocity": 85}, {"time": 371, "pitch": 51, "duration": 6, "velocity": 85}, {"time": 371, "pitch": 73, "duration": 2, "velocity": 85}, {"time": 374, "pitch": 59, "duration": 6, "velocity": 85}, {"time": 374, "pitch": 75, "duration": 2, "velocity": 85}, {"time": 377, "pitch": 76, "duration": 8, "velocity": 85}, {"time": 380, "pitch": 52, "duration": 20, "velocity": 85}, {"time": 383, "pitch": 68, "duration": 4, "velocity": 85}, {"time": 386, "pitch": 59, "duration": 14, "velocity": 85}, {"time": 386, "pitch": 71, "duration": 2, "velocity": 85}, {"time": 389, "pitch": 76, "duration": 4, "velocity": 85}, {"time": 392, "pitch": 64, "duration": 7, "velocity": 85}, {"time": 392, "pitch": 71, "duration": 8, "velocity": 85}, {"time": 404, "pitch": 49, "duration": 20, "velocity": 85}, {"time": 404, "pitch": 71, "duration": 9, "velocity": 85}, {"time": 404, "pitch": 76, "duration": 9, "velocity": 85}, {"time": 410, "pitch": 56, "duration": 12, "velocity": 85}, {"time": 416, "pitch": 61, "duration": 6, "velocity": 85}, {"time": 416, "pitch": 71, "duration": 2, "velocity": 85}, {"time": 416, "pitch": 76, "duration": 3, "velocity": 85}, {"time": 419, "pitch": 71, "duration": 3, "velocity": 85}, {"time": 422, "pitch": 68, "duration": 3, "velocity": 85}, {"time": 425, "pitch": 69, "duration": 10, "velocity": 85}, {"time": 428, "pitch": 45, "duration": 19, "velocity": 85}, {"time": 434, "pitch": 52, "duration": 14, "velocity": 85}, {"time": 440, "pitch": 57, "duration": 9, "velocity": 85}, {"time": 440, "pitch": 71, "duration": 9, "velocity": 85}, {"time": 440, "pitch": 76, "duration": 6, "velocity": 85}, {"time": 446, "pitch": 71, "duration": 3, "velocity": 85}, {"time": 449, "pitch": 76, "duration": 3, "velocity": 85}, {"time": 452, "pitch": 47, "duration": 14, "velocity": 85}, {"time": 452, "pitch": 75, "duration": 11, "velocity": 85}, {"time": 458, "pitch": 54, "duration": 8, "velocity": 85}, {"time": 464, "pitch": 59, "duration": 5, "velocity": 85}, {"time": 464, "pitch": 75, "duration": 7, "velocity": 85}, {"time": 476, "pitch": 52, "duration": 10, "velocity": 85}, {"time": 482, "pitch": 59, "duration": 3, "velocity": 85}, {"time": 482, "pitch": 71, "duration": 3, "velocity": 85}, {"time": 485, "pitch": 76, "duration": 3, "velocity": 85}, {"time": 488, "pitch": 51, "duration": 7, "velocity": 85}, {"time": 488, "pitch": 75, "duration": 8, "velocity": 85}, {"time": 494, "pitch": 71, "duration": 5, "velocity": 85}, {"time": 500, "pitch": 49, "duration": 19, "velocity": 85}, {"time": 500, "pitch": 71, "duration": 10, "velocity": 85}, {"time": 500, "pitch": 76, "duration": 10, "velocity": 85}, {"time": 506, "pitch": 56, "duration": 12, "velocity": 85}, {"time": 512, "pitch": 61, "duration": 6, "velocity": 85}, {"time": 512, "pitch": 71, "duration": 10, "velocity": 85}, {"time": 512, "pitch": 76, "duration": 10, "velocity": 85}, {"time": 518, "pitch": 47, "duration": 5, "velocity": 85}, {"time": 524, "pitch": 45, "duration": 17, "velocity": 85}, {"time": 524, "pitch": 69, "duration": 10, "velocity": 85}, {"time": 524, "pitch": 73, "duration": 10, "velocity": 85}, {"time": 530, "pitch": 52, "duration": 13, "velocity": 85}, {"time": 536, "pitch": 57, "duration": 6, "velocity": 85}, {"time": 536, "pitch": 69, "duration": 10, "velocity": 85}, {"time": 536, "pitch": 73, "duration": 10, "velocity": 85}, {"time": 542, "pitch": 45, "duration": 7, "velocity": 85}, {"time": 548, "pitch": 47, "duration": 23, "velocity": 86}, {"time": 548, "pitch": 71, "duration": 11, "velocity": 86}, {"time": 548, "pitch": 75, "duration": 11, "velocity": 86}, {"time": 554, "pitch": 54, "duration": 16, "velocity": 86}, {"time": 560, "pitch": 59, "duration": 11, "velocity": 86}, {"time": 560, "pitch": 75, "duration": 4, "velocity": 86}, {"time": 563, "pitch": 73, "duration": 2, "velocity": 86}, {"time": 566, "pitch": 75, "duration": 2, "velocity": 87}, {"time": 572, "pitch": 52, "duration": 10, "velocity": 87}, {"time": 575, "pitch": 59, "duration": 6, "velocity": 87}, {"time": 575, "pitch": 68, "duration": 4, "velocity": 87}, {"time": 578, "pitch": 64, "duration": 3, "velocity": 87}, {"time": 578, "pitch": 75, "duration": 2, "velocity": 87}, {"time": 581, "pitch": 76, "duration": 6, "velocity": 87}, {"time": 584, "pitch": 51, "duration": 10, "velocity": 87}, {"time": 590, "pitch": 54, "duration": 4, "velocity": 88}, {"time": 596, "pitch": 49, "duration": 18, "velocity": 88}, {"time": 596, "pitch": 80, "duration": 6, "velocity": 88}, {"time": 602, "pitch": 61, "duration": 10, "velocity": 88}, {"time": 602, "pitch": 73, "duration": 6, "velocity": 88}, {"time": 608, "pitch": 80, "duration": 6, "velocity": 88}, {"time": 614, "pitch": 47, "duration": 4, "velocity": 88}, {"time": 614, "pitch": 73, "duration": 6, "velocity": 88}, {"time": 620, "pitch": 45, "duration": 16, "velocity": 88}, {"time": 620, "pitch": 80, "duration": 6, "velocity": 88}, {"time": 626, "pitch": 52, "duration": 13, "velocity": 88}, {"time": 626, "pitch": 73, "duration": 6, "velocity": 88}, {"time": 632, "pitch": 57, "duration": 7, "velocity": 88}, {"time": 632, "pitch": 80, "duration": 6, "velocity": 88}, {"time": 638, "pitch": 45, "duration": 5, "velocity": 89}, {"time": 638, "pitch": 73, "duration": 6, "velocity": 89}, {"time": 644, "pitch": 47, "duration": 17, "velocity": 89}, {"time": 644, "pitch": 71, "duration": 8, "velocity": 89}, {"time": 644, "pitch": 76, "duration": 8, "velocity": 89}, {"time": 650, "pitch": 54, "duration": 11, "velocity": 89}, {"time": 656, "pitch": 59, "duration": 7, "velocity": 89}, {"time": 656, "pitch": 71, "duration": 7, "velocity": 89}, {"time": 656, "pitch": 76, "duration": 7, "velocity": 89}, {"time": 668, "pitch": 52, "duration": 12, "velocity": 89}, {"time": 668, "pitch": 71, "duration": 7, "velocity": 89}, {"time": 668, "pitch": 80, "duration": 5, "velocity": 89}, {"time": 674, "pitch": 59, "duration": 11, "velocity": 89}, {"time": 674, "pitch": 81, "duration": 4, "velocity": 89}, {"time": 680, "pitch": 51, "duration": 7, "velocity": 89}, {"time": 680, "pitch": 64, "duration": 5, "velocity": 89}, {"time": 680, "pitch": 71, "duration": 5, "velocity": 89}, {"time": 680, "pitch": 80, "duration": 5, "velocity": 89}, {"time": 686, "pitch": 59, "duration": 5, "velocity": 89}, {"time": 686, "pitch": 78, "duration": 4, "velocity": 89}, {"time": 692, "pitch": 49, "duration": 13, "velocity": 89}, {"time": 692, "pitch": 80, "duration": 6, "velocity": 89}, {"time": 698, "pitch": 56, "duration": 6, "velocity": 89}, {"time": 698, "pitch": 73, "duration": 6, "velocity": 89}, {"time": 704, "pitch": 80, "duration": 5, "velocity": 89}, {"time": 710, "pitch": 47, "duration": 4, "velocity": 89}, {"time": 710, "pitch": 73, "duration": 6, "velocity": 89}, {"time": 716, "pitch": 45, "duration": 18, "velocity": 89}, {"time": 716, "pitch": 80, "duration": 6, "velocity": 89}, {"time": 722, "pitch": 52, "duration": 12, "velocity": 89}, {"time": 722, "pitch": 57, "duration": 11, "velocity": 89}, {"time": 722, "pitch": 73, "duration": 6, "velocity": 89}, {"time": 728, "pitch": 80, "duration": 6, "velocity": 89}, {"time": 734, "pitch": 73, "duration": 5, "velocity": 89}, {"time": 740, "pitch": 47, "duration": 20, "velocity": 89}, {"time": 740, "pitch": 54, "duration": 19, "velocity": 89}, {"time": 740, "pitch": 59, "duration": 19, "velocity": 89}, {"time": 740, "pitch": 71, "duration": 9, "velocity": 89}, {"time": 740, "pitch": 76, "duration": 10, "velocity": 89}, {"time": 752, "pitch": 71, "duration": 7, "velocity": 89}, {"time": 752, "pitch": 76, "duration": 5, "velocity": 89}, {"time": 758, "pitch": 78, "duration": 5, "velocity": 89}, {"time": 764, "pitch": 52, "duration": 12, "velocity": 89}, {"time": 764, "pitch": 71, "duration": 11, "velocity": 89}, {"time": 764, "pitch": 80, "duration": 9, "velocity": 89}, {"time": 770, "pitch": 59, "duration": 3, "velocity": 89}, {"time": 773, "pitch": 81, "duration": 2, "velocity": 89}, {"time": 775, "pitch": 80, "duration": 1, "velocity": 89}, {"time": 776, "pitch": 78, "duration": 7, "velocity": 89}, {"time": 776, "pitch": 51, "duration": 7, "velocity": 89}, {"time": 788, "pitch": 49, "duration": 19, "velocity": 89}, {"time": 788, "pitch": 80, "duration": 6, "velocity": 89}, {"time": 794, "pitch": 56, "duration": 12, "velocity": 89}, {"time": 794, "pitch": 61, "duration": 11, "velocity": 89}, {"time": 794, "pitch": 73, "duration": 6, "velocity": 89}, {"time": 800, "pitch": 80, "duration": 6, "velocity": 89}, {"time": 806, "pitch": 47, "duration": 2, "velocity": 89}, {"time": 806, "pitch": 73, "duration": 7, "velocity": 89}, {"time": 812, "pitch": 45, "duration": 18, "velocity": 89}, {"time": 812, "pitch": 80, "duration": 6, "velocity": 89}, {"time": 818, "pitch": 57, "duration": 12, "velocity": 89}, {"time": 818, "pitch": 73, "duration": 6, "velocity": 89}, {"time": 824, "pitch": 80, "duration": 6, "velocity": 89}, {"time": 830, "pitch": 73, "duration": 5, "velocity": 89}, {"time": 836, "pitch": 47, "duration": 18, "velocity": 89}, {"time": 836, "pitch": 78, "duration": 6, "velocity": 89}, {"time": 842, "pitch": 59, "duration": 12, "velocity": 89}, {"time": 848, "pitch": 54, "duration": 6, "velocity": 89}, {"time": 848, "pitch": 71, "duration": 7, "velocity": 89}, {"time": 848, "pitch": 76, "duration": 7, "velocity": 89}, {"time": 860, "pitch": 52, "duration": 12, "velocity": 89}, {"time": 860, "pitch": 59, "duration": 11, "velocity": 89}, {"time": 860, "pitch": 64, "duration": 11, "velocity": 89}, {"time": 860, "pitch": 80, "duration": 7, "velocity": 89}, {"time": 866, "pitch": 81, "duration": 6, "velocity": 88}, {"time": 872, "pitch": 51, "duration": 7, "velocity": 88}, {"time": 872, "pitch": 78, "duration": 6, "velocity": 88}, {"time": 878, "pitch": 80, "duration": 5, "velocity": 88}, {"time": 884, "pitch": 49, "duration": 16, "velocity": 88}, {"time": 884, "pitch": 80, "duration": 9, "velocity": 88}, {"time": 890, "pitch": 56, "duration": 10, "velocity": 88}, {"time": 890, "pitch": 73, "duration": 6, "velocity": 88}, {"time": 896, "pitch": 61, "duration": 4, "velocity": 88}, {"time": 896, "pitch": 80, "duration": 6, "velocity": 88}, {"time": 902, "pitch": 47, "duration": 4, "velocity": 88}, {"time": 902, "pitch": 73, "duration": 5, "velocity": 88}, {"time": 908, "pitch": 45, "duration": 18, "velocity": 88}, {"time": 908, "pitch": 80, "duration": 5, "velocity": 88}, {"time": 914, "pitch": 52, "duration": 12, "velocity": 88}, {"time": 914, "pitch": 73, "duration": 5, "velocity": 88}, {"time": 920, "pitch": 57, "duration": 6, "velocity": 88}, {"time": 920, "pitch": 80, "duration": 5, "velocity": 88}, {"time": 926, "pitch": 73, "duration": 5, "velocity": 88}, {"time": 932, "pitch": 47, "duration": 19, "velocity": 88}, {"time": 932, "pitch": 59, "duration": 12, "velocity": 88}, {"time": 932, "pitch": 71, "duration": 11, "velocity": 88}, {"time": 932, "pitch": 78, "duration": 11, "velocity": 88}, {"time": 938, "pitch": 54, "duration": 6, "velocity": 87}, {"time": 944, "pitch": 54, "duration": 8, "velocity": 87}, {"time": 944, "pitch": 59, "duration": 9, "velocity": 87}, {"time": 944, "pitch": 71, "duration": 10, "velocity": 87}, {"time": 944, "pitch": 78, "duration": 10, "velocity": 87}, {"time": 956, "pitch": 52, "duration": 9, "velocity": 87}, {"time": 956, "pitch": 68, "duration": 7, "velocity": 87}, {"time": 956, "pitch": 71, "duration": 11, "velocity": 87}, {"time": 968, "pitch": 51, "duration": 7, "velocity": 86}, {"time": 968, "pitch": 66, "duration": 7, "velocity": 86}, {"time": 968, "pitch": 71, "duration": 7, "velocity": 86}, {"time": 980, "pitch": 49, "duration": 20, "velocity": 86}, {"time": 980, "pitch": 64, "duration": 11, "velocity": 86}, {"time": 980, "pitch": 68, "duration": 11, "velocity": 86}, {"time": 986, "pitch": 56, "duration": 12, "velocity": 86}, {"time": 992, "pitch": 64, "duration": 5, "velocity": 86}, {"time": 992, "pitch": 68, "duration": 5, "velocity": 86}, {"time": 998, "pitch": 47, "duration": 5, "velocity": 86}, {"time": 1004, "pitch": 45, "duration": 19, "velocity": 86}, {"time": 1004, "pitch": 61, "duration": 11, "velocity": 86}, {"time": 1004, "pitch": 64, "duration": 11, "velocity": 86}, {"time": 1010, "pitch": 52, "duration": 17, "velocity": 86}, {"time": 1016, "pitch": 61, "duration": 7, "velocity": 86}, {"time": 1016, "pitch": 64, "duration": 7, "velocity": 86}, {"time": 1022, "pitch": 57, "duration": 5, "velocity": 86}, {"time": 1028, "pitch": 47, "duration": 19, "velocity": 86}, {"time": 1028, "pitch": 63, "duration": 11, "velocity": 86}, {"time": 1028, "pitch": 66, "duration": 11, "velocity": 86}, {"time": 1034, "pitch": 54, "duration": 13, "velocity": 86}, {"time": 1040, "pitch": 63, "duration": 7, "velocity": 86}, {"time": 1040, "pitch": 66, "duration": 7, "velocity": 86}, {"time": 1046, "pitch": 59, "duration": 7, "velocity": 85}, {"time": 1052, "pitch": 52, "duration": 8, "velocity": 85}, {"time": 1052, "pitch": 68, "duration": 7, "velocity": 85}, {"time": 1052, "pitch": 71, "duration": 7, "velocity": 85}, {"time": 1058, "pitch": 59, "duration": 4, "velocity": 85}, {"time": 1064, "pitch": 51, "duration": 8, "velocity": 85}, {"time": 1064, "pitch": 66, "duration": 8, "velocity": 85}, {"time": 1064, "pitch": 71, "duration": 7, "velocity": 85}, {"time": 1076, "pitch": 49, "duration": 16, "velocity": 85}, {"time": 1076, "pitch": 64, "duration": 11, "velocity": 85}, {"time": 1076, "pitch": 68, "duration": 11, "velocity": 85}, {"time": 1082, "pitch": 56, "duration": 7, "velocity": 85}, {"time": 1088, "pitch": 64, "duration": 3, "velocity": 85}, {"time": 1088, "pitch": 68, "duration": 3, "velocity": 85}, {"time": 1094, "pitch": 47, "duration": 4, "velocity": 85}, {"time": 1094, "pitch": 63, "duration": 4, "velocity": 85}, {"time": 1100, "pitch": 45, "duration": 21, "velocity": 85}, {"time": 1100, "pitch": 61, "duration": 10, "velocity": 85}, {"time": 1100, "pitch": 64, "duration": 11, "velocity": 85}, {"time": 1106, "pitch": 52, "duration": 18, "velocity": 85}, {"time": 1112, "pitch": 61, "duration": 7, "velocity": 85}, {"time": 1112, "pitch": 64, "duration": 7, "velocity": 85}, {"time": 1124, "pitch": 47, "duration": 19, "velocity": 85}, {"time": 1124, "pitch": 63, "duration": 11, "velocity": 85}, {"time": 1124, "pitch": 66, "duration": 11, "velocity": 85}, {"time": 1130, "pitch": 54, "duration": 14, "velocity": 85}, {"time": 1136, "pitch": 63, "duration": 7, "velocity": 85}, {"time": 1136, "pitch": 66, "duration": 7, "velocity": 85}, {"time": 1142, "pitch": 59, "duration": 6, "velocity": 85}, {"time": 1148, "pitch": 52, "duration": 10, "velocity": 85}, {"time": 1148, "pitch": 68, "duration": 10, "velocity": 85}, {"time": 1148, "pitch": 71, "duration": 10, "velocity": 85}, {"time": 1154, "pitch": 59, "duration": 4, "velocity": 85}, {"time": 1160, "pitch": 51, "duration": 8, "velocity": 85}, {"time": 1160, "pitch": 66, "duration": 8, "velocity": 85}, {"time": 1160, "pitch": 71, "duration": 5, "velocity": 85}, {"time": 1172, "pitch": 49, "duration": 17, "velocity": 85}, {"time": 1172, "pitch": 64, "duration": 11, "velocity": 85}, {"time": 1172, "pitch": 68, "duration": 11, "velocity": 85}, {"time": 1178, "pitch": 56, "duration": 10, "velocity": 85}, {"time": 1184, "pitch": 64, "duration": 4, "velocity": 85}, {"time": 1184, "pitch": 68, "duration": 4, "velocity": 85}, {"time": 1190, "pitch": 47, "duration": 4, "velocity": 85}, {"time": 1190, "pitch": 63, "duration": 4, "velocity": 85}, {"time": 1196, "pitch": 45, "duration": 20, "velocity": 85}, {"time": 1196, "pitch": 61, "duration": 10, "velocity": 85}, {"time": 1196, "pitch": 64, "duration": 10, "velocity": 85}, {"time": 1202, "pitch": 52, "duration": 17, "velocity": 85}, {"time": 1208, "pitch": 61, "duration": 7, "velocity": 85}, {"time": 1208, "pitch": 64, "duration": 7, "velocity": 85}, {"time": 1214, "pitch": 57, "duration": 5, "velocity": 85}, {"time": 1220, "pitch": 47, "duration": 12, "velocity": 85}, {"time": 1220, "pitch": 63, "duration": 11, "velocity": 85}, {"time": 1220, "pitch": 66, "duration": 11, "velocity": 85}, {"time": 1226, "pitch": 54, "duration": 6, "velocity": 85}, {"time": 1232, "pitch": 44, "duration": 7, "velocity": 85}, {"time": 1232, "pitch": 60, "duration": 6, "velocity": 85}, {"time": 1244, "pitch": 49, "duration": 12, "velocity": 85}, {"time": 1244, "pitch": 61, "duration": 12, "velocity": 85}, {"time": 1244, "pitch": 64, "duration": 12, "velocity": 85}, {"time": 1256, "pitch": 49, "duration": 8, "velocity": 85}, {"time": 1256, "pitch": 64, "duration": 6, "velocity": 85}, {"time": 1256, "pitch": 68, "duration": 6, "velocity": 85}, {"time": 1268, "pitch": 45, "duration": 19, "velocity": 85}, {"time": 1268, "pitch": 61, "duration": 10, "velocity": 85}, {"time": 1268, "pitch": 64, "duration": 10, "velocity": 85}, {"time": 1268, "pitch": 68, "duration": 10, "velocity": 85}, {"time": 1280, "pitch": 61, "duration": 7, "velocity": 85}, {"time": 1280, "pitch": 64, "duration": 7, "velocity": 85}, {"time": 1280, "pitch": 68, "duration": 7, "velocity": 85}, {"time": 1292, "pitch": 47, "duration": 18, "velocity": 85}, {"time": 1292, "pitch": 63, "duration": 11, "velocity": 85}, {"time": 1292, "pitch": 66, "duration": 11, "velocity": 85}, {"time": 1298, "pitch": 54, "duration": 13, "velocity": 85}, {"time": 1304, "pitch": 63, "duration": 7, "velocity": 85}, {"time": 1304, "pitch": 66, "duration": 7, "velocity": 85}, {"time": 1316, "pitch": 52, "duration": 23, "velocity": 85}, {"time": 1316, "pitch": 68, "duration": 4, "velocity": 85}, {"time": 1316, "pitch": 71, "duration": 5, "velocity": 85}, {"time": 1322, "pitch": 66, "duration": 4, "velocity": 85}, {"time": 1328, "pitch": 68, "duration": 3, "velocity": 85}, {"time": 1328, "pitch": 71, "duration": 10, "velocity": 85}, {"time": 1334, "pitch": 66, "duration": 4, "velocity": 85}, {"time": 1340, "pitch": 52, "duration": 7, "velocity": 85}, {"time": 1340, "pitch": 68, "duration": 7, "velocity": 85}, {"time": 1340, "pitch": 71, "duration": 7, "velocity": 85}, {"time": 1352, "pitch": 48, "duration": 7, "velocity": 85}, {"time": 1352, "pitch": 63, "duration": 7, "velocity": 85}, {"time": 1352, "pitch": 68, "duration": 7, "velocity": 85}, {"time": 1352, "pitch": 72, "duration": 7, "velocity": 85}, {"time": 1364, "pitch": 49, "duration": 19, "velocity": 85}, {"time": 1364, "pitch": 64, "duration": 10, "velocity": 85}, {"time": 1364, "pitch": 68, "duration": 10, "velocity": 85}, {"time": 1376, "pitch": 64, "duration": 7, "velocity": 85}, {"time": 1376, "pitch": 68, "duration": 7, "velocity": 85}, {"time": 1388, "pitch": 45, "duration": 19, "velocity": 85}, {"time": 1388, "pitch": 61, "duration": 10, "velocity": 85}, {"time": 1388, "pitch": 64, "duration": 10, "velocity": 85}, {"time": 1394, "pitch": 52, "duration": 18, "velocity": 85}, {"time": 1400, "pitch": 61, "duration": 7, "velocity": 85}, {"time": 1400, "pitch": 64, "duration": 7, "velocity": 85}, {"time": 1406, "pitch": 57, "duration": 6, "velocity": 85}, {"time": 1412, "pitch": 47, "duration": 18, "velocity": 85}, {"time": 1412, "pitch": 63, "duration": 11, "velocity": 85}, {"time": 1412, "pitch": 66, "duration": 11, "velocity": 85}, {"time": 1418, "pitch": 54, "duration": 13, "velocity": 85}, {"time": 1424, "pitch": 63, "duration": 6, "velocity": 85}, {"time": 1424, "pitch": 66, "duration": 6, "velocity": 85}, {"time": 1436, "pitch": 52, "duration": 7, "velocity": 85}, {"time": 1436, "pitch": 68, "duration": 6, "velocity": 85}, {"time": 1436, "pitch": 71, "duration": 6, "velocity": 85}, {"time": 1448, "pitch": 51, "duration": 6, "velocity": 85}, {"time": 1448, "pitch": 66, "duration": 7, "velocity": 85}, {"time": 1448, "pitch": 71, "duration": 6, "velocity": 85}, {"time": 1460, "pitch": 49, "duration": 16, "velocity": 85}, {"time": 1460, "pitch": 64, "duration": 10, "velocity": 85}, {"time": 1460, "pitch": 68, "duration": 10, "velocity": 85}, {"time": 1460, "pitch": 73, "duration": 11, "velocity": 85}, {"time": 1472, "pitch": 64, "duration": 5, "velocity": 86}, {"time": 1472, "pitch": 68, "duration": 5, "velocity": 86}, {"time": 1472, "pitch": 73, "duration": 5, "velocity": 86}, {"time": 1478, "pitch": 47, "duration": 4, "velocity": 87}, {"time": 1478, "pitch": 63, "duration": 4, "velocity": 87}, {"time": 1484, "pitch": 45, "duration": 21, "velocity": 87}, {"time": 1484, "pitch": 61, "duration": 11, "velocity": 87}, {"time": 1484, "pitch": 66, "duration": 11, "velocity": 87}, {"time": 1484, "pitch": 69, "duration": 10, "velocity": 87}, {"time": 1490, "pitch": 52, "duration": 15, "velocity": 87}, {"time": 1496, "pitch": 61, "duration": 9, "velocity": 87}, {"time": 1496, "pitch": 66, "duration": 9, "velocity": 87}, {"time": 1496, "pitch": 69, "duration": 8, "velocity": 87}, {"time": 1502, "pitch": 57, "duration": 3, "velocity": 87}, {"time": 1508, "pitch": 47, "duration": 21, "velocity": 87}, {"time": 1508, "pitch": 63, "duration": 11, "velocity": 87}, {"time": 1508, "pitch": 66, "duration": 11, "velocity": 87}, {"time": 1508, "pitch": 71, "duration": 11, "velocity": 87}, {"time": 1514, "pitch": 54, "duration": 14, "velocity": 87}, {"time": 1520, "pitch": 63, "duration": 9, "velocity": 87}, {"time": 1520, "pitch": 66, "duration": 9, "velocity": 87}, {"time": 1520, "pitch": 71, "duration": 9, "velocity": 87}, {"time": 1532, "pitch": 52, "duration": 5, "velocity": 87}, {"time": 1532, "pitch": 68, "duration": 6, "velocity": 87}, {"time": 1532, "pitch": 71, "duration": 6, "velocity": 87}, {"time": 1532, "pitch": 76, "duration": 6, "velocity": 87}, {"time": 1544, "pitch": 44, "duration": 6, "velocity": 87}, {"time": 1544, "pitch": 60, "duration": 6, "velocity": 87}, {"time": 1544, "pitch": 63, "duration": 2, "velocity": 87}, {"time": 1556, "pitch": 49, "duration": 18, "velocity": 87}, {"time": 1556, "pitch": 64, "duration": 11, "velocity": 87}, {"time": 1556, "pitch": 68, "duration": 11, "velocity": 87}, {"time": 1556, "pitch": 73, "duration": 11, "velocity": 87}, {"time": 1568, "pitch": 64, "duration": 6, "velocity": 88}, {"time": 1568, "pitch": 68, "duration": 6, "velocity": 88}, {"time": 1568, "pitch": 73, "duration": 6, "velocity": 88}, {"time": 1574, "pitch": 47, "duration": 5, "velocity": 88}, {"time": 1580, "pitch": 45, "duration": 19, "velocity": 88}, {"time": 1580, "pitch": 61, "duration": 10, "velocity": 88}, {"time": 1580, "pitch": 64, "duration": 10, "velocity": 88}, {"time": 1580, "pitch": 69, "duration": 10, "velocity": 88}, {"time": 1586, "pitch": 52, "duration": 18, "velocity": 88}, {"time": 1592, "pitch": 61, "duration": 7, "velocity": 88}, {"time": 1592, "pitch": 64, "duration": 7, "velocity": 88}, {"time": 1592, "pitch": 69, "duration": 7, "velocity": 88}, {"time": 1598, "pitch": 57, "duration": 6, "velocity": 88}, {"time": 1604, "pitch": 47, "duration": 7, "velocity": 88}, {"time": 1604, "pitch": 63, "duration": 6, "velocity": 88}, {"time": 1604, "pitch": 66, "duration": 6, "velocity": 88}, {"time": 1604, "pitch": 71, "duration": 6, "velocity": 88}, {"time": 1616, "pitch": 48, "duration": 6, "velocity": 88}, {"time": 1616, "pitch": 60, "duration": 6, "velocity": 88}, {"time": 1616, "pitch": 64, "duration": 6, "velocity": 88}, {"time": 1616, "pitch": 68, "duration": 5, "velocity": 88}, {"time": 1628, "pitch": 49, "duration": 10, "velocity": 88}, {"time": 1628, "pitch": 64, "duration": 11, "velocity": 88}, {"time": 1628, "pitch": 68, "duration": 11, "velocity": 88}, {"time": 1628, "pitch": 73, "duration": 11, "velocity": 88}, {"time": 1634, "pitch": 56, "duration": 8, "velocity": 88}, {"time": 1640, "pitch": 64, "duration": 5, "velocity": 88}, {"time": 1640, "pitch": 68, "duration": 5, "velocity": 88}, {"time": 1640, "pitch": 73, "duration": 5, "velocity": 88}, {"time": 1652, "pitch": 45, "duration": 20, "velocity": 88}, {"time": 1652, "pitch": 61, "duration": 11, "velocity": 88}, {"time": 1652, "pitch": 64, "duration": 11, "velocity": 88}, {"time": 1652, "pitch": 69, "duration": 11, "velocity": 88}, {"time": 1658, "pitch": 52, "duration": 18, "velocity": 88}, {"time": 1664, "pitch": 61, "duration": 7, "velocity": 88}, {"time": 1664, "pitch": 64, "duration": 7, "velocity": 88}, {"time": 1664, "pitch": 69, "duration": 7, "velocity": 88}, {"time": 1670, "pitch": 57, "duration": 5, "velocity": 88}, {"time": 1676, "pitch": 47, "duration": 17, "velocity": 88}, {"time": 1676, "pitch": 63, "duration": 11, "velocity": 88}, {"time": 1676, "pitch": 66, "duration": 11, "velocity": 88}, {"time": 1676, "pitch": 71, "duration": 11, "velocity": 88}, {"time": 1682, "pitch": 54, "duration": 12, "velocity": 88}, {"time": 1688, "pitch": 63, "duration": 6, "velocity": 88}, {"time": 1688, "pitch": 66, "duration": 6, "velocity": 88}, {"time": 1688, "pitch": 71, "duration": 6, "velocity": 88}, {"time": 1700, "pitch": 52, "duration": 47, "velocity": 88}, {"time": 1700, "pitch": 68, "duration": 11, "velocity": 88}, {"time": 1700, "pitch": 71, "duration": 11, "velocity": 88}, {"time": 1700, "pitch": 76, "duration": 11, "velocity": 88}, {"time": 1706, "pitch": 59, "duration": 40, "velocity": 89}, {"time": 1712, "pitch": 68, "duration": 11, "velocity": 89}, {"time": 1712, "pitch": 71, "duration": 11, "velocity": 89}, {"time": 1712, "pitch": 76, "duration": 11, "velocity": 89}, {"time": 1718, "pitch": 64, "duration": 8, "velocity": 89}, {"time": 1724, "pitch": 68, "duration": 10, "velocity": 89}, {"time": 1724, "pitch": 71, "duration": 11, "velocity": 89}, {"time": 1724, "pitch": 76, "duration": 10, "velocity": 89}, {"time": 1736, "pitch": 68, "duration": 11, "velocity": 89}, {"time": 1736, "pitch": 71, "duration": 12, "velocity": 89}, {"time": 1736, "pitch": 76, "duration": 11, "velocity": 89}, {"time": 1748, "pitch": 64, "duration": 4, "velocity": 89}, {"time": 1748, "pitch": 80, "duration": 6, "velocity": 89}, {"time": 1751, "pitch": 56, "duration": 4, "velocity": 89}, {"time": 1754, "pitch": 61, "duration": 3, "velocity": 89}, {"time": 1757, "pitch": 63, "duration": 3, "velocity": 89}, {"time": 1760, "pitch": 64, "duration": 5, "velocity": 89}, {"time": 1760, "pitch": 80, "duration": 4, "velocity": 89}, {"time": 1766, "pitch": 61, "duration": 5, "velocity": 89}, {"time": 1766, "pitch": 78, "duration": 4, "velocity": 89}, {"time": 1772, "pitch": 63, "duration": 4, "velocity": 89}, {"time": 1772, "pitch": 80, "duration": 8, "velocity": 89}, {"time": 1775, "pitch": 56, "duration": 4, "velocity": 89}, {"time": 1778, "pitch": 61, "duration": 4, "velocity": 89}, {"time": 1781, "pitch": 63, "duration": 4, "velocity": 89}, {"time": 1784, "pitch": 64, "duration": 6, "velocity": 89}, {"time": 1784, "pitch": 80, "duration": 5, "velocity": 89}, {"time": 1790, "pitch": 56, "duration": 6, "velocity": 89}, {"time": 1790, "pitch": 78, "duration": 4, "velocity": 89}, {"time": 1796, "pitch": 61, "duration": 4, "velocity": 89}, {"time": 1796, "pitch": 80, "duration": 8, "velocity": 89}, {"time": 1799, "pitch": 56, "duration": 3, "velocity": 89}, {"time": 1802, "pitch": 61, "duration": 3, "velocity": 89}, {"time": 1805, "pitch": 63, "duration": 2, "velocity": 89}, {"time": 1808, "pitch": 64, "duration": 8, "velocity": 89}, {"time": 1808, "pitch": 85, "duration": 6, "velocity": 89}, {"time": 1814, "pitch": 61, "duration": 5, "velocity": 89}, {"time": 1814, "pitch": 78, "duration": 5, "velocity": 89}, {"time": 1820, "pitch": 49, "duration": 4, "velocity": 89}, {"time": 1820, "pitch": 80, "duration": 8, "velocity": 89}, {"time": 1823, "pitch": 56, "duration": 3, "velocity": 89}, {"time": 1826, "pitch": 61, "duration": 2, "velocity": 89}, {"time": 1826, "pitch": 73, "duration": 6, "velocity": 89}, {"time": 1829, "pitch": 63, "duration": 3, "velocity": 89}, {"time": 1832, "pitch": 64, "duration": 6, "velocity": 89}, {"time": 1832, "pitch": 85, "duration": 5, "velocity": 89}, {"time": 1838, "pitch": 63, "duration": 6, "velocity": 89}, {"time": 1838, "pitch": 78, "duration": 5, "velocity": 89}, {"time": 1844, "pitch": 64, "duration": 2, "velocity": 89}, {"time": 1844, "pitch": 80, "duration": 7, "velocity": 89}, {"time": 1847, "pitch": 56, "duration": 4, "velocity": 89}, {"time": 1850, "pitch": 61, "duration": 3, "velocity": 89}, {"time": 1850, "pitch": 73, "duration": 5, "velocity": 89}, {"time": 1853, "pitch": 63, "duration": 4, "velocity": 89}, {"time": 1856, "pitch": 64, "duration": 5, "velocity": 89}, {"time": 1856, "pitch": 80, "duration": 6, "velocity": 89}, {"time": 1862, "pitch": 61, "duration": 6, "velocity": 89}, {"time": 1862, "pitch": 78, "duration": 6, "velocity": 89}, {"time": 1868, "pitch": 63, "duration": 4, "velocity": 89}, {"time": 1868, "pitch": 80, "duration": 8, "velocity": 89}, {"time": 1871, "pitch": 56, "duration": 4, "velocity": 89}, {"time": 1874, "pitch": 61, "duration": 4, "velocity": 89}, {"time": 1874, "pitch": 73, "duration": 6, "velocity": 89}, {"time": 1877, "pitch": 63, "duration": 3, "velocity": 89}, {"time": 1880, "pitch": 64, "duration": 6, "velocity": 89}, {"time": 1880, "pitch": 80, "duration": 6, "velocity": 89}, {"time": 1886, "pitch": 56, "duration": 5, "velocity": 89}, {"time": 1886, "pitch": 78, "duration": 5, "velocity": 89}, {"time": 1892, "pitch": 61, "duration": 4, "velocity": 89}, {"time": 1892, "pitch": 80, "duration": 5, "velocity": 89}, {"time": 1895, "pitch": 56, "duration": 4, "velocity": 89}, {"time": 1898, "pitch": 61, "duration": 4, "velocity": 89}, {"time": 1898, "pitch": 73, "duration": 6, "velocity": 89}, {"time": 1901, "pitch": 63, "duration": 4, "velocity": 89}, {"time": 1904, "pitch": 64, "duration": 7, "velocity": 89}, {"time": 1904, "pitch": 85, "duration": 6, "velocity": 89}, {"time": 1910, "pitch": 61, "duration": 5, "velocity": 89}, {"time": 1910, "pitch": 78, "duration": 6, "velocity": 89}, {"time": 1916, "pitch": 49, "duration": 3, "velocity": 89}, {"time": 1916, "pitch": 80, "duration": 8, "velocity": 89}, {"time": 1919, "pitch": 56, "duration": 4, "velocity": 89}, {"time": 1922, "pitch": 61, "duration": 4, "velocity": 89}, {"time": 1922, "pitch": 73, "duration": 5, "velocity": 89}, {"time": 1925, "pitch": 63, "duration": 4, "velocity": 89}, {"time": 1928, "pitch": 64, "duration": 6, "velocity": 89}, {"time": 1928, "pitch": 85, "duration": 6, "velocity": 89}, {"time": 1934, "pitch": 78, "duration": 6, "velocity": 89}, {"time": 1940, "pitch": 49, "duration": 19, "velocity": 89}, {"time": 1940, "pitch": 64, "duration": 11, "velocity": 89}, {"time": 1940, "pitch": 68, "duration": 11, "velocity": 89}, {"time": 1940, "pitch": 80, "duration": 6, "velocity": 89}, {"time": 1946, "pitch": 73, "duration": 5, "velocity": 89}, {"time": 1952, "pitch": 64, "duration": 7, "velocity": 89}, {"time": 1952, "pitch": 68, "duration": 7, "velocity": 89}, {"time": 1952, "pitch": 80, "duration": 4, "velocity": 89}, {"time": 1958, "pitch": 78, "duration": 4, "velocity": 89}, {"time": 1964, "pitch": 47, "duration": 22, "velocity": 89}, {"time": 1964, "pitch": 63, "duration": 11, "velocity": 89}, {"time": 1964, "pitch": 66, "duration": 11, "velocity": 89}, {"time": 1964, "pitch": 80, "duration": 6, "velocity": 89}, {"time": 1970, "pitch": 73, "duration": 3, "velocity": 89}, {"time": 1976, "pitch": 63, "duration": 10, "velocity": 89}, {"time": 1976, "pitch": 66, "duration": 10, "velocity": 89}, {"time": 1976, "pitch": 80, "duration": 5, "velocity": 89}, {"time": 1982, "pitch": 78, "duration": 4, "velocity": 89}, {"time": 1988, "pitch": 46, "duration": 34, "velocity": 89}, {"time": 1988, "pitch": 61, "duration": 11, "velocity": 89}, {"time": 1988, "pitch": 64, "duration": 11, "velocity": 89}, {"time": 1988, "pitch": 80, "duration": 6, "velocity": 89}, {"time": 1994, "pitch": 73, "duration": 4, "velocity": 89}, {"time": 2000, "pitch": 61, "duration": 11, "velocity": 89}, {"time": 2000, "pitch": 64, "duration": 11, "velocity": 89}, {"time": 2000, "pitch": 85, "duration": 6, "velocity": 89}, {"time": 2006, "pitch": 78, "duration": 6, "velocity": 89}, {"time": 2012, "pitch": 61, "duration": 9, "velocity": 89}, {"time": 2012, "pitch": 64, "duration": 9, "velocity": 89}, {"time": 2012, "pitch": 80, "duration": 7, "velocity": 89}, {"time": 2018, "pitch": 73, "duration": 5, "velocity": 89}, {"time": 2024, "pitch": 47, "duration": 11, "velocity": 89}, {"time": 2024, "pitch": 63, "duration": 7, "velocity": 89}, {"time": 2024, "pitch": 66, "duration": 7, "velocity": 89}, {"time": 2024, "pitch": 80, "duration": 6, "velocity": 89}, {"time": 2030, "pitch": 78, "duration": 5, "velocity": 89}, {"time": 2036, "pitch": 49, "duration": 24, "velocity": 89}, {"time": 2036, "pitch": 64, "duration": 11, "velocity": 89}, {"time": 2036, "pitch": 68, "duration": 11, "velocity": 89}, {"time": 2036, "pitch": 80, "duration": 7, "velocity": 89}, {"time": 2042, "pitch": 73, "duration": 4, "velocity": 89}, {"time": 2048, "pitch": 64, "duration": 8, "velocity": 89}, {"time": 2048, "pitch": 68, "duration": 8, "velocity": 89}, {"time": 2048, "pitch": 80, "duration": 6, "velocity": 89}, {"time": 2054, "pitch": 78, "duration": 5, "velocity": 89}, {"time": 2060, "pitch": 47, "duration": 20, "velocity": 89}, {"time": 2060, "pitch": 63, "duration": 10, "velocity": 89}, {"time": 2060, "pitch": 66, "duration": 11, "velocity": 89}, {"time": 2060, "pitch": 80, "duration": 7, "velocity": 89}, {"time": 2066, "pitch": 73, "duration": 3, "velocity": 89}, {"time": 2072, "pitch": 63, "duration": 7, "velocity": 89}, {"time": 2072, "pitch": 66, "duration": 7, "velocity": 89}, {"time": 2072, "pitch": 80, "duration": 6, "velocity": 89}, {"time": 2078, "pitch": 78, "duration": 4, "velocity": 88}, {"time": 2084, "pitch": 46, "duration": 34, "velocity": 88}, {"time": 2084, "pitch": 61, "duration": 12, "velocity": 88}, {"time": 2084, "pitch": 64, "duration": 12, "velocity": 88}, {"time": 2084, "pitch": 80, "duration": 6, "velocity": 88}, {"time": 2090, "pitch": 73, "duration": 6, "velocity": 88}, {"time": 2096, "pitch": 61, "duration": 10, "velocity": 88}, {"time": 2096, "pitch": 64, "duration": 11, "velocity": 88}, {"time": 2096, "pitch": 80, "duration": 5, "velocity": 88}, {"time": 2102, "pitch": 78, "duration": 5, "velocity": 88}, {"time": 2108, "pitch": 61, "duration": 9, "velocity": 88}, {"time": 2108, "pitch": 64, "duration": 9, "velocity": 88}, {"time": 2108, "pitch": 80, "duration": 6, "velocity": 88}, {"time": 2114, "pitch": 73, "duration": 4, "velocity": 88}, {"time": 2120, "pitch": 51, "duration": 7, "velocity": 88}, {"time": 2120, "pitch": 66, "duration": 7, "velocity": 88}, {"time": 2120, "pitch": 71, "duration": 7, "velocity": 88}, {"time": 2132, "pitch": 49, "duration": 20, "velocity": 88}, {"time": 2132, "pitch": 64, "duration": 11, "velocity": 88}, {"time": 2132, "pitch": 68, "duration": 11, "velocity": 88}, {"time": 2138, "pitch": 56, "duration": 12, "velocity": 87}, {"time": 2144, "pitch": 64, "duration": 5, "velocity": 89}, {"time": 2144, "pitch": 68, "duration": 5, "velocity": 89}, {"time": 2150, "pitch": 47, "duration": 5, "velocity": 84}, {"time": 2156, "pitch": 45, "duration": 19, "velocity": 80}, {"time": 2156, "pitch": 61, "duration": 11, "velocity": 80}, {"time": 2156, "pitch": 64, "duration": 11, "velocity": 80}, {"time": 2162, "pitch": 52, "duration": 17, "velocity": 80}, {"time": 2168, "pitch": 61, "duration": 7, "velocity": 80}, {"time": 2168, "pitch": 64, "duration": 7, "velocity": 80}, {"time": 2174, "pitch": 57, "duration": 5, "velocity": 80}, {"time": 2180, "pitch": 47, "duration": 19, "velocity": 81}, {"time": 2180, "pitch": 63, "duration": 11, "velocity": 81}, {"time": 2180, "pitch": 66, "duration": 11, "velocity": 81}, {"time": 2186, "pitch": 54, "duration": 13, "velocity": 81}, {"time": 2192, "pitch": 63, "duration": 7, "velocity": 81}, {"time": 2192, "pitch": 66, "duration": 7, "velocity": 81}, {"time": 2198, "pitch": 59, "duration": 7, "velocity": 82}, {"time": 2204, "pitch": 52, "duration": 8, "velocity": 82}, {"time": 2204, "pitch": 68, "duration": 7, "velocity": 82}, {"time": 2204, "pitch": 71, "duration": 7, "velocity": 82}, {"time": 2210, "pitch": 59, "duration": 4, "velocity": 82}, {"time": 2216, "pitch": 51, "duration": 8, "velocity": 83}, {"time": 2216, "pitch": 66, "duration": 8, "velocity": 83}, {"time": 2216, "pitch": 71, "duration": 7, "velocity": 83}, {"time": 2228, "pitch": 49, "duration": 16, "velocity": 83}, {"time": 2228, "pitch": 64, "duration": 11, "velocity": 83}, {"time": 2228, "pitch": 68, "duration": 11, "velocity": 83}, {"time": 2234, "pitch": 56, "duration": 7, "velocity": 83}, {"time": 2240, "pitch": 64, "duration": 3, "velocity": 83}, {"time": 2240, "pitch": 68, "duration": 3, "velocity": 83}, {"time": 2246, "pitch": 47, "duration": 4, "velocity": 83}, {"time": 2246, "pitch": 63, "duration": 4, "velocity": 83}, {"time": 2252, "pitch": 45, "duration": 21, "velocity": 83}, {"time": 2252, "pitch": 61, "duration": 10, "velocity": 83}, {"time": 2252, "pitch": 64, "duration": 11, "velocity": 83}, {"time": 2258, "pitch": 52, "duration": 18, "velocity": 83}, {"time": 2264, "pitch": 61, "duration": 7, "velocity": 83}, {"time": 2264, "pitch": 64, "duration": 7, "velocity": 83}, {"time": 2276, "pitch": 47, "duration": 19, "velocity": 84}, {"time": 2276, "pitch": 63, "duration": 11, "velocity": 84}, {"time": 2276, "pitch": 66, "duration": 11, "velocity": 84}, {"time": 2282, "pitch": 54, "duration": 14, "velocity": 84}, {"time": 2288, "pitch": 63, "duration": 7, "velocity": 84}, {"time": 2288, "pitch": 66, "duration": 7, "velocity": 84}, {"time": 2294, "pitch": 59, "duration": 6, "velocity": 84}, {"time": 2300, "pitch": 52, "duration": 10, "velocity": 84}, {"time": 2300, "pitch": 68, "duration": 10, "velocity": 84}, {"time": 2300, "pitch": 71, "duration": 10, "velocity": 84}, {"time": 2306, "pitch": 59, "duration": 4, "velocity": 84}, {"time": 2312, "pitch": 51, "duration": 8, "velocity": 84}, {"time": 2312, "pitch": 66, "duration": 8, "velocity": 84}, {"time": 2312, "pitch": 71, "duration": 5, "velocity": 84}, {"time": 2324, "pitch": 49, "duration": 17, "velocity": 84}, {"time": 2324, "pitch": 64, "duration": 11, "velocity": 84}, {"time": 2324, "pitch": 68, "duration": 11, "velocity": 84}, {"time": 2330, "pitch": 56, "duration": 10, "velocity": 84}, {"time": 2336, "pitch": 64, "duration": 4, "velocity": 84}, {"time": 2336, "pitch": 68, "duration": 4, "velocity": 84}, {"time": 2342, "pitch": 47, "duration": 4, "velocity": 84}, {"time": 2342, "pitch": 63, "duration": 4, "velocity": 84}, {"time": 2348, "pitch": 45, "duration": 20, "velocity": 89}, {"time": 2348, "pitch": 61, "duration": 10, "velocity": 89}, {"time": 2348, "pitch": 64, "duration": 10, "velocity": 89}, {"time": 2354, "pitch": 52, "duration": 17, "velocity": 84}, {"time": 2360, "pitch": 61, "duration": 7, "velocity": 89}, {"time": 2360, "pitch": 64, "duration": 7, "velocity": 89}, {"time": 2366, "pitch": 57, "duration": 5, "velocity": 84}, {"time": 2372, "pitch": 47, "duration": 12, "velocity": 89}, {"time": 2372, "pitch": 63, "duration": 11, "velocity": 89}, {"time": 2372, "pitch": 66, "duration": 11, "velocity": 89}, {"time": 2378, "pitch": 54, "duration": 6, "velocity": 84}, {"time": 2384, "pitch": 44, "duration": 7, "velocity": 89}, {"time": 2384, "pitch": 60, "duration": 6, "velocity": 89}, {"time": 2396, "pitch": 49, "duration": 12, "velocity": 84}, {"time": 2396, "pitch": 61, "duration": 12, "velocity": 84}, {"time": 2396, "pitch": 64, "duration": 12, "velocity": 84}, {"time": 2408, "pitch": 49, "duration": 8, "velocity": 89}, {"time": 2408, "pitch": 64, "duration": 6, "velocity": 89}, {"time": 2408, "pitch": 68, "duration": 6, "velocity": 89}, {"time": 2420, "pitch": 45, "duration": 19, "velocity": 82}, {"time": 2420, "pitch": 61, "duration": 10, "velocity": 82}, {"time": 2420, "pitch": 64, "duration": 10, "velocity": 82}, {"time": 2420, "pitch": 68, "duration": 10, "velocity": 82}, {"time": 2432, "pitch": 61, "duration": 7, "velocity": 85}, {"time": 2432, "pitch": 64, "duration": 7, "velocity": 85}, {"time": 2432, "pitch": 68, "duration": 7, "velocity": 85}, {"time": 2444, "pitch": 47, "duration": 18, "velocity": 89}, {"time": 2444, "pitch": 63, "duration": 11, "velocity": 89}, {"time": 2444, "pitch": 66, "duration": 11, "velocity": 89}, {"time": 2450, "pitch": 54, "duration": 13, "velocity": 81}, {"time": 2456, "pitch": 63, "duration": 7, "velocity": 84}, {"time": 2456, "pitch": 66, "duration": 7, "velocity": 84}, {"time": 2468, "pitch": 52, "duration": 23, "velocity": 89}, {"time": 2468, "pitch": 68, "duration": 4, "velocity": 89}, {"time": 2468, "pitch": 71, "duration": 5, "velocity": 89}, {"time": 2474, "pitch": 66, "duration": 4, "velocity": 80}, {"time": 2480, "pitch": 68, "duration": 3, "velocity": 81}, {"time": 2480, "pitch": 71, "duration": 10, "velocity": 81}, {"time": 2486, "pitch": 66, "duration": 4, "velocity": 82}, {"time": 2492, "pitch": 52, "duration": 7, "velocity": 84}, {"time": 2492, "pitch": 68, "duration": 7, "velocity": 84}, {"time": 2492, "pitch": 71, "duration": 7, "velocity": 84}, {"time": 2504, "pitch": 51, "duration": 10, "velocity": 86}, {"time": 2510, "pitch": 54, "duration": 4, "velocity": 87}, {"time": 2516, "pitch": 49, "duration": 18, "velocity": 89}, {"time": 2516, "pitch": 76, "duration": 6, "velocity": 89}, {"time": 2522, "pitch": 61, "duration": 10, "velocity": 82}, {"time": 2522, "pitch": 71, "duration": 6, "velocity": 82}, {"time": 2528, "pitch": 76, "duration": 6, "velocity": 84}, {"time": 2534, "pitch": 47, "duration": 4, "velocity": 86}, {"time": 2534, "pitch": 71, "duration": 6, "velocity": 86}, {"time": 2540, "pitch": 45, "duration": 16, "velocity": 89}, {"time": 2540, "pitch": 76, "duration": 6, "velocity": 89}, {"time": 2546, "pitch": 52, "duration": 13, "velocity": 84}, {"time": 2546, "pitch": 71, "duration": 6, "velocity": 84}, {"time": 2552, "pitch": 57, "duration": 7, "velocity": 89}, {"time": 2552, "pitch": 76, "duration": 6, "velocity": 89}, {"time": 2558, "pitch": 45, "duration": 5, "velocity": 84}, {"time": 2558, "pitch": 71, "duration": 6, "velocity": 84}, {"time": 2564, "pitch": 47, "duration": 17, "velocity": 89}, {"time": 2564, "pitch": 76, "duration": 8, "velocity": 89}, {"time": 2570, "pitch": 54, "duration": 11, "velocity": 84}, {"time": 2570, "pitch": 71, "duration": 8, "velocity": 89}, {"time": 2576, "pitch": 59, "duration": 7, "velocity": 89}, {"time": 2576, "pitch": 75, "duration": 7, "velocity": 89}, {"time": 2582, "pitch": 71, "duration": 4, "velocity": 89}, {"time": 2588, "pitch": 52, "duration": 12, "velocity": 84}, {"time": 2588, "pitch": 80, "duration": 5, "velocity": 84}, {"time": 2594, "pitch": 59, "duration": 11, "velocity": 86}, {"time": 2594, "pitch": 81, "duration": 4, "velocity": 86}, {"time": 2600, "pitch": 51, "duration": 7, "velocity": 89}, {"time": 2600, "pitch": 64, "duration": 5, "velocity": 89}, {"time": 2600, "pitch": 71, "duration": 5, "velocity": 89}, {"time": 2600, "pitch": 78, "duration": 5, "velocity": 89}, {"time": 2606, "pitch": 80, "duration": 4, "velocity": 84}, {"time": 2606, "pitch": 59, "duration": 5, "velocity": 84}, {"time": 2612, "pitch": 49, "duration": 13, "velocity": 89}, {"time": 2612, "pitch": 76, "duration": 6, "velocity": 89}, {"time": 2618, "pitch": 56, "duration": 6, "velocity": 82}, {"time": 2618, "pitch": 73, "duration": 6, "velocity": 82}, {"time": 2624, "pitch": 76, "duration": 5, "velocity": 84}, {"time": 2630, "pitch": 47, "duration": 4, "velocity": 86}, {"time": 2630, "pitch": 73, "duration": 6, "velocity": 86}, {"time": 2636, "pitch": 45, "duration": 18, "velocity": 89}, {"time": 2636, "pitch": 76, "duration": 6, "velocity": 89}, {"time": 2642, "pitch": 52, "duration": 12, "velocity": 82}, {"time": 2642, "pitch": 57, "duration": 11, "velocity": 82}, {"time": 2642, "pitch": 73, "duration": 6, "velocity": 82}, {"time": 2648, "pitch": 76, "duration": 6, "velocity": 83}, {"time": 2654, "pitch": 73, "duration": 5, "velocity": 85}, {"time": 2660, "pitch": 47, "duration": 20, "velocity": 86}, {"time": 2660, "pitch": 54, "duration": 19, "velocity": 86}, {"time": 2660, "pitch": 59, "duration": 19, "velocity": 86}, {"time": 2660, "pitch": 75, "duration": 10, "velocity": 86}, {"time": 2666, "pitch": 71, "duration": 9, "velocity": 86}, {"time": 2672, "pitch": 75, "duration": 5, "velocity": 89}, {"time": 2678, "pitch": 71, "duration": 4, "velocity": 89}, {"time": 2684, "pitch": 76, "duration": 4, "velocity": 85}, {"time": 2684, "pitch": 52, "duration": 12, "velocity": 89}, {"time": 2684, "pitch": 71, "duration": 11, "velocity": 89}, {"time": 2687, "pitch": 68, "duration": 3, "velocity": 78}, {"time": 2690, "pitch": 63, "duration": 4, "velocity": 71}, {"time": 2693, "pitch": 64, "duration": 3, "velocity": 56}, {"time": 2696, "pitch": 48, "duration": 7, "velocity": 89}, {"time": 2708, "pitch": 49, "duration": 19, "velocity": 84}, {"time": 2708, "pitch": 76, "duration": 6, "velocity": 84}, {"time": 2714, "pitch": 56, "duration": 12, "velocity": 84}, {"time": 2714, "pitch": 61, "duration": 11, "velocity": 84}, {"time": 2714, "pitch": 73, "duration": 6, "velocity": 84}, {"time": 2720, "pitch": 76, "duration": 6, "velocity": 85}, {"time": 2726, "pitch": 47, "duration": 2, "velocity": 86}, {"time": 2726, "pitch": 73, "duration": 7, "velocity": 86}, {"time": 2732, "pitch": 45, "duration": 18, "velocity": 86}, {"time": 2732, "pitch": 76, "duration": 6, "velocity": 86}, {"time": 2738, "pitch": 57, "duration": 12, "velocity": 87}, {"time": 2738, "pitch": 73, "duration": 6, "velocity": 87}, {"time": 2744, "pitch": 76, "duration": 6, "velocity": 87}, {"time": 2750, "pitch": 73, "duration": 5, "velocity": 88}, {"time": 2756, "pitch": 47, "duration": 18, "velocity": 89}, {"time": 2756, "pitch": 78, "duration": 6, "velocity": 89}, {"time": 2762, "pitch": 59, "duration": 12, "velocity": 84}, {"time": 2768, "pitch": 54, "duration": 6, "velocity": 86}, {"time": 2768, "pitch": 71, "duration": 7, "velocity": 86}, {"time": 2780, "pitch": 52, "duration": 12, "velocity": 89}, {"time": 2780, "pitch": 59, "duration": 11, "velocity": 89}, {"time": 2780, "pitch": 64, "duration": 11, "velocity": 89}, {"time": 2780, "pitch": 80, "duration": 7, "velocity": 89}, {"time": 2792, "pitch": 51, "duration": 7, "velocity": 85}, {"time": 2792, "pitch": 78, "duration": 6, "velocity": 85}, {"time": 2798, "pitch": 80, "duration": 5, "velocity": 85}, {"time": 2804, "pitch": 49, "duration": 16, "velocity": 86}, {"time": 2804, "pitch": 80, "duration": 9, "velocity": 86}, {"time": 2810, "pitch": 56, "duration": 10, "velocity": 86}, {"time": 2810, "pitch": 73, "duration": 6, "velocity": 86}, {"time": 2816, "pitch": 61, "duration": 4, "velocity": 87}, {"time": 2816, "pitch": 80, "duration": 6, "velocity": 87}, {"time": 2822, "pitch": 47, "duration": 4, "velocity": 87}, {"time": 2822, "pitch": 73, "duration": 5, "velocity": 87}, {"time": 2828, "pitch": 45, "duration": 18, "velocity": 88}, {"time": 2828, "pitch": 80, "duration": 5, "velocity": 88}, {"time": 2834, "pitch": 52, "duration": 12, "velocity": 88}, {"time": 2834, "pitch": 73, "duration": 5, "velocity": 88}, {"time": 2840, "pitch": 57, "duration": 6, "velocity": 89}, {"time": 2840, "pitch": 80, "duration": 5, "velocity": 89}, {"time": 2846, "pitch": 73, "duration": 5, "velocity": 86}, {"time": 2852, "pitch": 47, "duration": 19, "velocity": 89}, {"time": 2852, "pitch": 59, "duration": 12, "velocity": 89}, {"time": 2852, "pitch": 71, "duration": 11, "velocity": 89}, {"time": 2852, "pitch": 78, "duration": 11, "velocity": 89}, {"time": 2858, "pitch": 54, "duration": 6, "velocity": 87}, {"time": 2864, "pitch": 54, "duration": 8, "velocity": 89}, {"time": 2864, "pitch": 59, "duration": 9, "velocity": 89}, {"time": 2864, "pitch": 71, "duration": 10, "velocity": 89}, {"time": 2864, "pitch": 78, "duration": 10, "velocity": 89}, {"time": 2876, "pitch": 52, "duration": 9, "velocity": 86}, {"time": 2876, "pitch": 68, "duration": 7, "velocity": 86}, {"time": 2876, "pitch": 71, "duration": 11, "velocity": 86}, {"time": 2888, "pitch": 51, "duration": 7, "velocity": 87}, {"time": 2888, "pitch": 66, "duration": 7, "velocity": 87}, {"time": 2888, "pitch": 71, "duration": 7, "velocity": 87}, {"time": 2900, "pitch": 49, "duration": 20, "velocity": 89}, {"time": 2900, "pitch": 64, "duration": 11, "velocity": 89}, {"time": 2900, "pitch": 68, "duration": 11, "velocity": 89}, {"time": 2906, "pitch": 56, "duration": 12, "velocity": 86}, {"time": 2912, "pitch": 64, "duration": 5, "velocity": 86}, {"time": 2912, "pitch": 68, "duration": 5, "velocity": 86}, {"time": 2918, "pitch": 47, "duration": 5, "velocity": 86}, {"time": 2924, "pitch": 45, "duration": 19, "velocity": 87}, {"time": 2924, "pitch": 61, "duration": 11, "velocity": 87}, {"time": 2924, "pitch": 64, "duration": 11, "velocity": 87}, {"time": 2930, "pitch": 52, "duration": 17, "velocity": 87}, {"time": 2936, "pitch": 61, "duration": 7, "velocity": 87}, {"time": 2936, "pitch": 64, "duration": 7, "velocity": 87}, {"time": 2942, "pitch": 57, "duration": 5, "velocity": 87}, {"time": 2948, "pitch": 47, "duration": 19, "velocity": 88}, {"time": 2948, "pitch": 63, "duration": 11, "velocity": 88}, {"time": 2948, "pitch": 66, "duration": 11, "velocity": 88}, {"time": 2954, "pitch": 54, "duration": 13, "velocity": 88}, {"time": 2960, "pitch": 63, "duration": 7, "velocity": 88}, {"time": 2960, "pitch": 66, "duration": 7, "velocity": 88}, {"time": 2966, "pitch": 59, "duration": 7, "velocity": 88}, {"time": 2972, "pitch": 52, "duration": 8, "velocity": 89}, {"time": 2972, "pitch": 68, "duration": 7, "velocity": 89}, {"time": 2972, "pitch": 71, "duration": 7, "velocity": 89}, {"time": 2978, "pitch": 59, "duration": 4, "velocity": 88}, {"time": 2984, "pitch": 51, "duration": 8, "velocity": 89}, {"time": 2984, "pitch": 66, "duration": 8, "velocity": 89}, {"time": 2984, "pitch": 71, "duration": 7, "velocity": 89}, {"time": 2996, "pitch": 49, "duration": 16, "velocity": 88}, {"time": 2996, "pitch": 64, "duration": 11, "velocity": 88}, {"time": 2996, "pitch": 68, "duration": 11, "velocity": 88}, {"time": 3002, "pitch": 56, "duration": 7, "velocity": 88}, {"time": 3008, "pitch": 64, "duration": 3, "velocity": 88}, {"time": 3008, "pitch": 68, "duration": 3, "velocity": 88}, {"time": 3014, "pitch": 47, "duration": 4, "velocity": 88}, {"time": 3014, "pitch": 63, "duration": 4, "velocity": 88}, {"time": 3020, "pitch": 45, "duration": 21, "velocity": 88}, {"time": 3020, "pitch": 61, "duration": 10, "velocity": 88}, {"time": 3020, "pitch": 64, "duration": 11, "velocity": 88}, {"time": 3026, "pitch": 52, "duration": 18, "velocity": 88}, {"time": 3032, "pitch": 61, "duration": 7, "velocity": 88}, {"time": 3032, "pitch": 64, "duration": 7, "velocity": 88}, {"time": 3044, "pitch": 47, "duration": 19, "velocity": 88}, {"time": 3044, "pitch": 63, "duration": 11, "velocity": 88}, {"time": 3044, "pitch": 66, "duration": 11, "velocity": 88}, {"time": 3050, "pitch": 54, "duration": 14, "velocity": 88}, {"time": 3056, "pitch": 63, "duration": 7, "velocity": 89}, {"time": 3056, "pitch": 66, "duration": 7, "velocity": 89}, {"time": 3062, "pitch": 59, "duration": 6, "velocity": 90}, {"time": 3068, "pitch": 52, "duration": 10, "velocity": 90}, {"time": 3068, "pitch": 68, "duration": 10, "velocity": 90}, {"time": 3068, "pitch": 71, "duration": 10, "velocity": 90}, {"time": 3074, "pitch": 59, "duration": 4, "velocity": 90}, {"time": 3080, "pitch": 51, "duration": 8, "velocity": 89}, {"time": 3080, "pitch": 66, "duration": 8, "velocity": 89}, {"time": 3080, "pitch": 71, "duration": 5, "velocity": 89}, {"time": 3092, "pitch": 49, "duration": 17, "velocity": 89}, {"time": 3092, "pitch": 64, "duration": 11, "velocity": 89}, {"time": 3092, "pitch": 68, "duration": 11, "velocity": 89}, {"time": 3098, "pitch": 56, "duration": 10, "velocity": 90}, {"time": 3104, "pitch": 64, "duration": 4, "velocity": 89}, {"time": 3104, "pitch": 68, "duration": 4, "velocity": 89}, {"time": 3110, "pitch": 47, "duration": 4, "velocity": 91}, {"time": 3110, "pitch": 63, "duration": 4, "velocity": 91}, {"time": 3116, "pitch": 45, "duration": 20, "velocity": 90}, {"time": 3116, "pitch": 61, "duration": 10, "velocity": 90}, {"time": 3116, "pitch": 64, "duration": 10, "velocity": 90}, {"time": 3122, "pitch": 52, "duration": 17, "velocity": 89}, {"time": 3128, "pitch": 61, "duration": 7, "velocity": 89}, {"time": 3128, "pitch": 64, "duration": 7, "velocity": 89}, {"time": 3134, "pitch": 57, "duration": 5, "velocity": 91}, {"time": 3140, "pitch": 47, "duration": 12, "velocity": 91}, {"time": 3140, "pitch": 63, "duration": 11, "velocity": 91}, {"time": 3140, "pitch": 66, "duration": 11, "velocity": 91}, {"time": 3146, "pitch": 54, "duration": 6, "velocity": 90}, {"time": 3152, "pitch": 44, "duration": 7, "velocity": 90}, {"time": 3152, "pitch": 60, "duration": 6, "velocity": 90}, {"time": 3164, "pitch": 49, "duration": 12, "velocity": 89}, {"time": 3164, "pitch": 61, "duration": 12, "velocity": 89}, {"time": 3164, "pitch": 64, "duration": 12, "velocity": 89}, {"time": 3176, "pitch": 49, "duration": 8, "velocity": 89}, {"time": 3176, "pitch": 64, "duration": 6, "velocity": 89}, {"time": 3176, "pitch": 68, "duration": 6, "velocity": 89}, {"time": 3188, "pitch": 45, "duration": 19, "velocity": 91}, {"time": 3188, "pitch": 61, "duration": 10, "velocity": 91}, {"time": 3188, "pitch": 64, "duration": 10, "velocity": 91}, {"time": 3188, "pitch": 68, "duration": 10, "velocity": 91}, {"time": 3200, "pitch": 61, "duration": 7, "velocity": 90}, {"time": 3200, "pitch": 64, "duration": 7, "velocity": 90}, {"time": 3200, "pitch": 68, "duration": 7, "velocity": 90}, {"time": 3212, "pitch": 47, "duration": 18, "velocity": 89}, {"time": 3212, "pitch": 63, "duration": 11, "velocity": 89}, {"time": 3212, "pitch": 66, "duration": 11, "velocity": 89}, {"time": 3218, "pitch": 54, "duration": 13, "velocity": 89}, {"time": 3224, "pitch": 63, "duration": 7, "velocity": 89}, {"time": 3224, "pitch": 66, "duration": 7, "velocity": 89}, {"time": 3236, "pitch": 52, "duration": 23, "velocity": 91}, {"time": 3236, "pitch": 68, "duration": 4, "velocity": 91}, {"time": 3236, "pitch": 71, "duration": 5, "velocity": 91}, {"time": 3242, "pitch": 66, "duration": 4, "velocity": 91}, {"time": 3248, "pitch": 68, "duration": 3, "velocity": 90}, {"time": 3248, "pitch": 71, "duration": 10, "velocity": 90}, {"time": 3254, "pitch": 66, "duration": 4, "velocity": 90}, {"time": 3260, "pitch": 52, "duration": 7, "velocity": 90}, {"time": 3260, "pitch": 68, "duration": 7, "velocity": 90}, {"time": 3260, "pitch": 71, "duration": 7, "velocity": 90}, {"time": 3272, "pitch": 48, "duration": 7, "velocity": 89}, {"time": 3272, "pitch": 63, "duration": 7, "velocity": 89}, {"time": 3272, "pitch": 68, "duration": 7, "velocity": 89}, {"time": 3272, "pitch": 72, "duration": 7, "velocity": 89}, {"time": 3284, "pitch": 49, "duration": 19, "velocity": 89}, {"time": 3284, "pitch": 64, "duration": 10, "velocity": 89}, {"time": 3284, "pitch": 68, "duration": 10, "velocity": 89}, {"time": 3296, "pitch": 64, "duration": 7, "velocity": 91}, {"time": 3296, "pitch": 68, "duration": 7, "velocity": 91}, {"time": 3308, "pitch": 45, "duration": 19, "velocity": 90}, {"time": 3308, "pitch": 61, "duration": 10, "velocity": 90}, {"time": 3308, "pitch": 64, "duration": 10, "velocity": 90}, {"time": 3314, "pitch": 52, "duration": 18, "velocity": 90}, {"time": 3320, "pitch": 61, "duration": 7, "velocity": 90}, {"time": 3320, "pitch": 64, "duration": 7, "velocity": 90}, {"time": 3326, "pitch": 57, "duration": 6, "velocity": 89}, {"time": 3332, "pitch": 47, "duration": 18, "velocity": 89}, {"time": 3332, "pitch": 63, "duration": 11, "velocity": 89}, {"time": 3332, "pitch": 66, "duration": 11, "velocity": 89}, {"time": 3338, "pitch": 54, "duration": 13, "velocity": 89}, {"time": 3344, "pitch": 63, "duration": 6, "velocity": 89}, {"time": 3344, "pitch": 66, "duration": 6, "velocity": 89}, {"time": 3356, "pitch": 52, "duration": 7, "velocity": 89}, {"time": 3356, "pitch": 68, "duration": 6, "velocity": 89}, {"time": 3356, "pitch": 71, "duration": 6, "velocity": 89}, {"time": 3368, "pitch": 51, "duration": 6, "velocity": 89}, {"time": 3368, "pitch": 66, "duration": 7, "velocity": 89}, {"time": 3368, "pitch": 71, "duration": 6, "velocity": 89}, {"time": 3380, "pitch": 49, "duration": 16, "velocity": 89}, {"time": 3380, "pitch": 64, "duration": 10, "velocity": 89}, {"time": 3380, "pitch": 68, "duration": 10, "velocity": 89}, {"time": 3380, "pitch": 73, "duration": 11, "velocity": 89}, {"time": 3392, "pitch": 64, "duration": 5, "velocity": 89}, {"time": 3392, "pitch": 68, "duration": 5, "velocity": 89}, {"time": 3392, "pitch": 73, "duration": 5, "velocity": 89}, {"time": 3398, "pitch": 47, "duration": 4, "velocity": 89}, {"time": 3398, "pitch": 63, "duration": 4, "velocity": 89}, {"time": 3404, "pitch": 45, "duration": 21, "velocity": 89}, {"time": 3404, "pitch": 61, "duration": 11, "velocity": 89}, {"time": 3404, "pitch": 66, "duration": 11, "velocity": 89}, {"time": 3404, "pitch": 69, "duration": 10, "velocity": 89}, {"time": 3410, "pitch": 52, "duration": 15, "velocity": 89}, {"time": 3416, "pitch": 61, "duration": 9, "velocity": 89}, {"time": 3416, "pitch": 66, "duration": 9, "velocity": 89}, {"time": 3416, "pitch": 69, "duration": 8, "velocity": 89}, {"time": 3422, "pitch": 57, "duration": 3, "velocity": 89}, {"time": 3428, "pitch": 47, "duration": 21, "velocity": 89}, {"time": 3428, "pitch": 63, "duration": 11, "velocity": 89}, {"time": 3428, "pitch": 66, "duration": 11, "velocity": 89}, {"time": 3428, "pitch": 71, "duration": 11, "velocity": 89}, {"time": 3434, "pitch": 54, "duration": 14, "velocity": 89}, {"time": 3440, "pitch": 63, "duration": 9, "velocity": 89}, {"time": 3440, "pitch": 66, "duration": 9, "velocity": 89}, {"time": 3440, "pitch": 71, "duration": 9, "velocity": 89}, {"time": 3452, "pitch": 52, "duration": 5, "velocity": 89}, {"time": 3452, "pitch": 68, "duration": 6, "velocity": 89}, {"time": 3452, "pitch": 71, "duration": 6, "velocity": 89}, {"time": 3452, "pitch": 76, "duration": 6, "velocity": 89}, {"time": 3464, "pitch": 44, "duration": 6, "velocity": 89}, {"time": 3464, "pitch": 60, "duration": 6, "velocity": 89}, {"time": 3464, "pitch": 63, "duration": 2, "velocity": 89}, {"time": 3476, "pitch": 49, "duration": 18, "velocity": 89}, {"time": 3476, "pitch": 64, "duration": 11, "velocity": 89}, {"time": 3476, "pitch": 68, "duration": 11, "velocity": 89}, {"time": 3476, "pitch": 73, "duration": 11, "velocity": 89}, {"time": 3488, "pitch": 64, "duration": 6, "velocity": 89}, {"time": 3488, "pitch": 68, "duration": 6, "velocity": 89}, {"time": 3488, "pitch": 73, "duration": 6, "velocity": 89}, {"time": 3494, "pitch": 47, "duration": 5, "velocity": 89}, {"time": 3500, "pitch": 45, "duration": 19, "velocity": 89}, {"time": 3500, "pitch": 61, "duration": 10, "velocity": 89}, {"time": 3500, "pitch": 64, "duration": 10, "velocity": 89}, {"time": 3500, "pitch": 69, "duration": 10, "velocity": 89}, {"time": 3506, "pitch": 52, "duration": 18, "velocity": 89}, {"time": 3512, "pitch": 61, "duration": 7, "velocity": 89}, {"time": 3512, "pitch": 64, "duration": 7, "velocity": 89}, {"time": 3512, "pitch": 69, "duration": 7, "velocity": 89}, {"time": 3518, "pitch": 57, "duration": 6, "velocity": 89}, {"time": 3524, "pitch": 47, "duration": 7, "velocity": 89}, {"time": 3524, "pitch": 63, "duration": 6, "velocity": 89}, {"time": 3524, "pitch": 66, "duration": 6, "velocity": 89}, {"time": 3524, "pitch": 71, "duration": 6, "velocity": 89}, {"time": 3536, "pitch": 48, "duration": 6, "velocity": 89}, {"time": 3536, "pitch": 60, "duration": 6, "velocity": 89}, {"time": 3536, "pitch": 64, "duration": 6, "velocity": 89}, {"time": 3536, "pitch": 68, "duration": 5, "velocity": 89}, {"time": 3548, "pitch": 49, "duration": 10, "velocity": 89}, {"time": 3548, "pitch": 64, "duration": 11, "velocity": 89}, {"time": 3548, "pitch": 68, "duration": 11, "velocity": 89}, {"time": 3548, "pitch": 73, "duration": 11, "velocity": 89}, {"time": 3554, "pitch": 56, "duration": 8, "velocity": 89}, {"time": 3560, "pitch": 64, "duration": 5, "velocity": 89}, {"time": 3560, "pitch": 68, "duration": 5, "velocity": 89}, {"time": 3560, "pitch": 73, "duration": 5, "velocity": 89}, {"time": 3572, "pitch": 45, "duration": 20, "velocity": 89}, {"time": 3572, "pitch": 61, "duration": 11, "velocity": 89}, {"time": 3572, "pitch": 64, "duration": 11, "velocity": 89}, {"time": 3572, "pitch": 69, "duration": 11, "velocity": 89}, {"time": 3578, "pitch": 52, "duration": 18, "velocity": 89}, {"time": 3584, "pitch": 61, "duration": 7, "velocity": 89}, {"time": 3584, "pitch": 64, "duration": 7, "velocity": 89}, {"time": 3584, "pitch": 69, "duration": 7, "velocity": 89}, {"time": 3590, "pitch": 57, "duration": 5, "velocity": 89}, {"time": 3596, "pitch": 47, "duration": 17, "velocity": 89}, {"time": 3596, "pitch": 63, "duration": 11, "velocity": 89}, {"time": 3596, "pitch": 66, "duration": 11, "velocity": 89}, {"time": 3596, "pitch": 71, "duration": 11, "velocity": 89}, {"time": 3602, "pitch": 54, "duration": 12, "velocity": 89}, {"time": 3608, "pitch": 63, "duration": 6, "velocity": 89}, {"time": 3608, "pitch": 66, "duration": 6, "velocity": 89}, {"time": 3608, "pitch": 71, "duration": 6, "velocity": 89}, {"time": 3620, "pitch": 52, "duration": 47, "velocity": 89}, {"time": 3620, "pitch": 68, "duration": 11, "velocity": 89}, {"time": 3620, "pitch": 71, "duration": 11, "velocity": 89}, {"time": 3620, "pitch": 76, "duration": 11, "velocity": 89}, {"time": 3626, "pitch": 59, "duration": 40, "velocity": 89}, {"time": 3632, "pitch": 68, "duration": 11, "velocity": 89}, {"time": 3632, "pitch": 71, "duration": 11, "velocity": 89}, {"time": 3632, "pitch": 76, "duration": 11, "velocity": 89}, {"time": 3638, "pitch": 64, "duration": 8, "velocity": 89}, {"time": 3644, "pitch": 68, "duration": 10, "velocity": 89}, {"time": 3644, "pitch": 71, "duration": 11, "velocity": 89}, {"time": 3656, "pitch": 66, "duration": 4, "velocity": 89}, {"time": 3659, "pitch": 68, "duration": 3, "velocity": 89}, {"time": 3662, "pitch": 71, "duration": 4, "velocity": 89}, {"time": 3665, "pitch": 73, "duration": 2, "velocity": 89}, {"time": 3668, "pitch": 49, "duration": 16, "velocity": 89}, {"time": 3668, "pitch": 76, "duration": 11, "velocity": 89}, {"time": 3674, "pitch": 56, "duration": 12, "velocity": 89}, {"time": 3680, "pitch": 61, "duration": 8, "velocity": 89}, {"time": 3686, "pitch": 47, "duration": 4, "velocity": 89}, {"time": 3689, "pitch": 80, "duration": 2, "velocity": 89}, {"time": 3692, "pitch": 45, "duration": 13, "velocity": 89}, {"time": 3692, "pitch": 78, "duration": 4, "velocity": 89}, {"time": 3698, "pitch": 52, "duration": 12, "velocity": 89}, {"time": 3698, "pitch": 76, "duration": 7, "velocity": 89}, {"time": 3704, "pitch": 57, "duration": 9, "velocity": 89}, {"time": 3710, "pitch": 73, "duration": 2, "velocity": 89}, {"time": 3712, "pitch": 76, "duration": 3, "velocity": 89}, {"time": 3715, "pitch": 73, "duration": 2, "velocity": 89}, {"time": 3716, "pitch": 47, "duration": 14, "velocity": 89}, {"time": 3716, "pitch": 71, "duration": 7, "velocity": 89}, {"time": 3722, "pitch": 54, "duration": 9, "velocity": 89}, {"time": 3725, "pitch": 73, "duration": 3, "velocity": 89}, {"time": 3728, "pitch": 59, "duration": 6, "velocity": 89}, {"time": 3728, "pitch": 76, "duration": 4, "velocity": 89}, {"time": 3734, "pitch": 49, "duration": 6, "velocity": 89}, {"time": 3734, "pitch": 78, "duration": 4, "velocity": 89}, {"time": 3740, "pitch": 52, "duration": 12, "velocity": 89}, {"time": 3740, "pitch": 80, "duration": 6, "velocity": 89}, {"time": 3746, "pitch": 59, "duration": 12, "velocity": 89}, {"time": 3752, "pitch": 51, "duration": 7, "velocity": 89}, {"time": 3752, "pitch": 64, "duration": 5, "velocity": 89}, {"time": 3752, "pitch": 66, "duration": 3, "velocity": 89}, {"time": 3755, "pitch": 68, "duration": 4, "velocity": 89}, {"time": 3758, "pitch": 71, "duration": 2, "velocity": 89}, {"time": 3761, "pitch": 73, "duration": 2, "velocity": 89}, {"time": 3764, "pitch": 49, "duration": 14, "velocity": 89}, {"time": 3764, "pitch": 76, "duration": 8, "velocity": 89}, {"time": 3770, "pitch": 56, "duration": 9, "velocity": 89}, {"time": 3776, "pitch": 61, "duration": 5, "velocity": 89}, {"time": 3776, "pitch": 76, "duration": 5, "velocity": 89}, {"time": 3782, "pitch": 47, "duration": 4, "velocity": 89}, {"time": 3785, "pitch": 80, "duration": 2, "velocity": 89}, {"time": 3788, "pitch": 45, "duration": 16, "velocity": 89}, {"time": 3788, "pitch": 78, "duration": 4, "velocity": 89}, {"time": 3794, "pitch": 52, "duration": 11, "velocity": 89}, {"time": 3794, "pitch": 76, "duration": 6, "velocity": 89}, {"time": 3800, "pitch": 57, "duration": 5, "velocity": 89}, {"time": 3806, "pitch": 45, "duration": 5, "velocity": 89}, {"time": 3806, "pitch": 73, "duration": 3, "velocity": 89}, {"time": 3809, "pitch": 76, "duration": 2, "velocity": 89}, {"time": 3812, "pitch": 47, "duration": 8, "velocity": 89}, {"time": 3812, "pitch": 78, "duration": 25, "velocity": 89}, {"time": 3818, "pitch": 54, "duration": 12, "velocity": 89}, {"time": 3824, "pitch": 59, "duration": 6, "velocity": 89}, {"time": 3830, "pitch": 47, "duration": 4, "velocity": 89}, {"time": 3836, "pitch": 47, "duration": 13, "velocity": 89}, {"time": 3836, "pitch": 54, "duration": 12, "velocity": 89}, {"time": 3836, "pitch": 59, "duration": 12, "velocity": 89}, {"time": 3836, "pitch": 63, "duration": 12, "velocity": 89}, {"time": 3836, "pitch": 66, "duration": 12, "velocity": 89}, {"time": 3859, "pitch": 83, "duration": 73, "velocity": 89}, {"time": 3860, "pitch": 52, "duration": 51, "velocity": 89}, {"time": 3860, "pitch": 88, "duration": 72, "velocity": 89}, {"time": 3860, "pitch": 64, "duration": 56, "velocity": 89}, {"time": 3860, "pitch": 90, "duration": 72, "velocity": 89}], "annotations": [{"time": 8, "annotation": {"number": 64, "value": 75}, "group": "control_change"}, {"time": 48, "annotation": {"number": 64, "value": 71}, "group": "control_change"}, {"time": 49, "annotation": {"number": 64, "value": 127}, "group": "control_change"}, {"time": 56, "annotation": {"number": 64, "value": 74}, "group": "control_change"}, {"time": 68, "annotation": {"number": 64, "value": 71}, "group": "control_change"}, {"time": 68, "annotation": {"number": 64, "value": 0}, "group": "control_change"}, {"time": 71, "annotation": {"number": 64, "value": 71}, "group": "control_change"}, {"time": 71, "annotation": {"number": 64, "value": 127}, "group": "control_change"}, {"time": 91, "annotation": {"number": 64, "value": 71}, "group": "control_change"}, {"time": 91, "annotation": {"number": 64, "value": 0}, "group": "control_change"}, {"time": 93, "annotation": {"number": 64, "value": 71}, "group": "control_change"}, {"time": 93, "annotation": {"number": 64, "value": 127}, "group": "control_change"}, {"time": 106, "annotation": {"number": 64, "value": 71}, "group": "control_change"}, {"time": 106, "annotation": {"number": 64, "value": 0}, "group": "control_change"}, {"time": 108, "annotation": {"number": 64, "value": 71}, "group": "control_change"}, {"time": 108, "annotation": {"number": 64, "value": 127}, "group": "control_change"}, {"time": 116, "annotation": {"number": 64, "value": 71}, "group": "control_change"}, {"time": 116, "annotation": {"number": 64, "value": 0}, "group": "control_change"}, {"time": 119, "annotation": {"number": 64, "value": 71}, "group": "control_change"}, {"time": 120, "annotation": {"number": 64, "value": 127}, "group": "control_change"}, {"time": 140, "annotation": {"number": 64, "value": 71}, "group": "control_change"}, {"time": 140, "annotation": {"number": 64, "value": 0}, "group": "control_change"}, {"time": 143, "annotation": {"number": 64, "value": 71}, "group": "control_change"}, {"time": 143, "annotation": {"number": 64, "value": 127}, "group": "control_change"}, {"time": 164, "annotation": {"number": 64, "value": 71}, "group": "control_change"}, {"time": 164, "annotation": {"number": 64, "value": 0}, "group": "control_change"}, {"time": 167, "annotation": {"number": 64, "value": 71}, "group": "control_change"}, {"time": 168, "annotation": {"number": 64, "value": 127}, "group": "control_change"}, {"time": 188, "annotation": {"number": 64, "value": 71}, "group": "control_change"}, {"time": 188, "annotation": {"number": 64, "value": 0}, "group": "control_change"}, {"time": 191, "annotation": {"number": 64, "value": 71}, "group": "control_change"}, {"time": 191, "annotation": {"number": 64, "value": 127}, "group": "control_change"}, {"time": 212, "annotation": {"number": 64, "value": 71}, "group": "control_change"}, {"time": 212, "annotation": {"number": 64, "value": 0}, "group": "control_change"}, {"time": 215, "annotation": {"number": 64, "value": 71}, "group": "control_change"}, {"time": 216, "annotation": {"number": 64, "value": 127}, "group": "control_change"}, {"time": 236, "annotation": {"number": 64, "value": 71}, "group": "control_change"}, {"time": 236, "annotation": {"number": 64, "value": 0}, "group": "control_change"}, {"time": 239, "annotation": {"number": 64, "value": 71}, "group": "control_change"}, {"time": 240, "annotation": {"number": 64, "value": 127}, "group": "control_change"}, {"time": 260, "annotation": {"number": 64, "value": 71}, "group": "control_change"}, {"time": 260, "annotation": {"number": 64, "value": 0}, "group": "control_change"}, {"time": 263, "annotation": {"number": 64, "value": 71}, "group": "control_change"}, {"time": 265, "annotation": {"number": 64, "value": 127}, "group": "control_change"}, {"time": 283, "annotation": {"number": 64, "value": 71}, "group": "control_change"}, {"time": 283, "annotation": {"number": 64, "value": 0}, "group": "control_change"}, {"time": 286, "annotation": {"number": 64, "value": 71}, "group": "control_change"}, {"time": 287, "annotation": {"number": 64, "value": 127}, "group": "control_change"}, {"time": 295, "annotation": {"number": 64, "value": 71}, "group": "control_change"}, {"time": 296, "annotation": {"number": 64, "value": 0}, "group": "control_change"}, {"time": 296, "annotation": {"number": 64, "value": 73}, "group": "control_change"}, {"time": 298, "annotation": {"number": 64, "value": 71}, "group": "control_change"}, {"time": 299, "annotation": {"number": 64, "value": 127}, "group": "control_change"}, {"time": 308, "annotation": {"number": 64, "value": 71}, "group": "control_change"}, {"time": 309, "annotation": {"number": 64, "value": 0}, "group": "control_change"}, {"time": 312, "annotation": {"number": 64, "value": 71}, "group": "control_change"}, {"time": 312, "annotation": {"number": 64, "value": 127}, "group": "control_change"}, {"time": 332, "annotation": {"number": 64, "value": 71}, "group": "control_change"}, {"time": 333, "annotation": {"number": 64, "value": 0}, "group": "control_change"}, {"time": 335, "annotation": {"number": 64, "value": 71}, "group": "control_change"}, {"time": 335, "annotation": {"number": 64, "value": 127}, "group": "control_change"}, {"time": 356, "annotation": {"number": 64, "value": 71}, "group": "control_change"}, {"time": 357, "annotation": {"number": 64, "value": 0}, "group": "control_change"}, {"time": 360, "annotation": {"number": 64, "value": 71}, "group": "control_change"}, {"time": 361, "annotation": {"number": 64, "value": 127}, "group": "control_change"}, {"time": 380, "annotation": {"number": 64, "value": 71}, "group": "control_change"}, {"time": 380, "annotation": {"number": 64, "value": 0}, "group": "control_change"}, {"time": 383, "annotation": {"number": 64, "value": 71}, "group": "control_change"}, {"time": 383, "annotation": {"number": 64, "value": 127}, "group": "control_change"}, {"time": 405, "annotation": {"number": 64, "value": 71}, "group": "control_change"}, {"time": 405, "annotation": {"number": 64, "value": 0}, "group": "control_change"}, {"time": 408, "annotation": {"number": 64, "value": 71}, "group": "control_change"}, {"time": 408, "annotation": {"number": 64, "value": 127}, "group": "control_change"}, {"time": 428, "annotation": {"number": 64, "value": 71}, "group": "control_change"}, {"time": 428, "annotation": {"number": 64, "value": 0}, "group": "control_change"}, {"time": 431, "annotation": {"number": 64, "value": 71}, "group": "control_change"}, {"time": 432, "annotation": {"number": 64, "value": 127}, "group": "control_change"}, {"time": 452, "annotation": {"number": 64, "value": 71}, "group": "control_change"}, {"time": 452, "annotation": {"number": 64, "value": 0}, "group": "control_change"}, {"time": 455, "annotation": {"number": 64, "value": 71}, "group": "control_change"}, {"time": 456, "annotation": {"number": 64, "value": 127}, "group": "control_change"}, {"time": 476, "annotation": {"number": 64, "value": 71}, "group": "control_change"}, {"time": 476, "annotation": {"number": 64, "value": 0}, "group": "control_change"}, {"time": 479, "annotation": {"number": 64, "value": 71}, "group": "control_change"}, {"time": 480, "annotation": {"number": 64, "value": 127}, "group": "control_change"}, {"time": 488, "annotation": {"number": 64, "value": 71}, "group": "control_change"}, {"time": 488, "annotation": {"number": 64, "value": 0}, "group": "control_change"}, {"time": 491, "annotation": {"number": 64, "value": 71}, "group": "control_change"}, {"time": 492, "annotation": {"number": 64, "value": 127}, "group": "control_change"}, {"time": 500, "annotation": {"number": 64, "value": 71}, "group": "control_change"}, {"time": 500, "annotation": {"number": 64, "value": 0}, "group": "control_change"}, {"time": 503, "annotation": {"number": 64, "value": 71}, "group": "control_change"}, {"time": 504, "annotation": {"number": 64, "value": 127}, "group": "control_change"}, {"time": 524, "annotation": {"number": 64, "value": 71}, "group": "control_change"}, {"time": 524, "annotation": {"number": 64, "value": 0}, "group": "control_change"}, {"time": 527, "annotation": {"number": 64, "value": 71}, "group": "control_change"}, {"time": 527, "annotation": {"number": 64, "value": 127}, "group": "control_change"}, {"time": 548, "annotation": {"number": 64, "value": 71}, "group": "control_change"}, {"time": 548, "annotation": {"number": 64, "value": 0}, "group": "control_change"}, {"time": 551, "annotation": {"number": 64, "value": 71}, "group": "control_change"}, {"time": 552, "annotation": {"number": 64, "value": 127}, "group": "control_change"}, {"time": 572, "annotation": {"number": 64, "value": 71}, "group": "control_change"}, {"time": 573, "annotation": {"number": 64, "value": 0}, "group": "control_change"}, {"time": 576, "annotation": {"number": 64, "value": 71}, "group": "control_change"}, {"time": 576, "annotation": {"number": 64, "value": 127}, "group": "control_change"}, {"time": 584, "annotation": {"number": 64, "value": 71}, "group": "control_change"}, {"time": 584, "annotation": {"number": 64, "value": 0}, "group": "control_change"}, {"time": 587, "annotation": {"number": 64, "value": 71}, "group": "control_change"}, {"time": 587, "annotation": {"number": 64, "value": 127}, "group": "control_change"}, {"time": 596, "annotation": {"number": 64, "value": 74}, "group": "control_change"}, {"time": 597, "annotation": {"number": 64, "value": 71}, "group": "control_change"}, {"time": 597, "annotation": {"number": 64, "value": 0}, "group": "control_change"}, {"time": 600, "annotation": {"number": 64, "value": 71}, "group": "control_change"}, {"time": 600, "annotation": {"number": 64, "value": 127}, "group": "control_change"}, {"time": 620, "annotation": {"number": 64, "value": 71}, "group": "control_change"}, {"time": 620, "annotation": {"number": 64, "value": 0}, "group": "control_change"}, {"time": 623, "annotation": {"number": 64, "value": 71}, "group": "control_change"}, {"time": 623, "annotation": {"number": 64, "value": 127}, "group": "control_change"}, {"time": 644, "annotation": {"number": 64, "value": 71}, "group": "control_change"}, {"time": 644, "annotation": {"number": 64, "value": 0}, "group": "control_change"}, {"time": 647, "annotation": {"number": 64, "value": 71}, "group": "control_change"}, {"time": 647, "annotation": {"number": 64, "value": 127}, "group": "control_change"}, {"time": 668, "annotation": {"number": 64, "value": 71}, "group": "control_change"}, {"time": 668, "annotation": {"number": 64, "value": 0}, "group": "control_change"}, {"time": 671, "annotation": {"number": 64, "value": 71}, "group": "control_change"}, {"time": 671, "annotation": {"number": 64, "value": 127}, "group": "control_change"}, {"time": 681, "annotation": {"number": 64, "value": 71}, "group": "control_change"}, {"time": 681, "annotation": {"number": 64, "value": 0}, "group": "control_change"}, {"time": 683, "annotation": {"number": 64, "value": 71}, "group": "control_change"}, {"time": 683, "annotation": {"number": 64, "value": 127}, "group": "control_change"}, {"time": 692, "annotation": {"number": 64, "value": 71}, "group": "control_change"}, {"time": 692, "annotation": {"number": 64, "value": 0}, "group": "control_change"}, {"time": 695, "annotation": {"number": 64, "value": 71}, "group": "control_change"}, {"time": 695, "annotation": {"number": 64, "value": 127}, "group": "control_change"}, {"time": 711, "annotation": {"number": 64, "value": 71}, "group": "control_change"}, {"time": 712, "annotation": {"number": 64, "value": 127}, "group": "control_change"}, {"time": 716, "annotation": {"number": 64, "value": 71}, "group": "control_change"}, {"time": 716, "annotation": {"number": 64, "value": 0}, "group": "control_change"}, {"time": 719, "annotation": {"number": 64, "value": 71}, "group": "control_change"}, {"time": 719, "annotation": {"number": 64, "value": 127}, "group": "control_change"}, {"time": 728, "annotation": {"number": 64, "value": 75}, "group": "control_change"}, {"time": 740, "annotation": {"number": 64, "value": 71}, "group": "control_change"}, {"time": 740, "annotation": {"number": 64, "value": 0}, "group": "control_change"}, {"time": 743, "annotation": {"number": 64, "value": 71}, "group": "control_change"}, {"time": 743, "annotation": {"number": 64, "value": 127}, "group": "control_change"}, {"time": 752, "annotation": {"number": 64, "value": 76}, "group": "control_change"}, {"time": 764, "annotation": {"number": 64, "value": 71}, "group": "control_change"}, {"time": 765, "annotation": {"number": 64, "value": 0}, "group": "control_change"}, {"time": 768, "annotation": {"number": 64, "value": 71}, "group": "control_change"}, {"time": 769, "annotation": {"number": 64, "value": 127}, "group": "control_change"}, {"time": 776, "annotation": {"number": 64, "value": 71}, "group": "control_change"}, {"time": 776, "annotation": {"number": 64, "value": 0}, "group": "control_change"}, {"time": 780, "annotation": {"number": 64, "value": 71}, "group": "control_change"}, {"time": 780, "annotation": {"number": 64, "value": 127}, "group": "control_change"}, {"time": 788, "annotation": {"number": 64, "value": 71}, "group": "control_change"}, {"time": 788, "annotation": {"number": 64, "value": 0}, "group": "control_change"}, {"time": 791, "annotation": {"number": 64, "value": 71}, "group": "control_change"}, {"time": 792, "annotation": {"number": 64, "value": 127}, "group": "control_change"}, {"time": 800, "annotation": {"number": 64, "value": 77}, "group": "control_change"}, {"time": 812, "annotation": {"number": 64, "value": 71}, "group": "control_change"}, {"time": 812, "annotation": {"number": 64, "value": 0}, "group": "control_change"}, {"time": 816, "annotation": {"number": 64, "value": 71}, "group": "control_change"}, {"time": 817, "annotation": {"number": 64, "value": 127}, "group": "control_change"}, {"time": 824, "annotation": {"number": 64, "value": 78}, "group": "control_change"}, {"time": 836, "annotation": {"number": 64, "value": 71}, "group": "control_change"}, {"time": 837, "annotation": {"number": 64, "value": 0}, "group": "control_change"}, {"time": 840, "annotation": {"number": 64, "value": 71}, "group": "control_change"}, {"time": 841, "annotation": {"number": 64, "value": 127}, "group": "control_change"}, {"time": 860, "annotation": {"number": 64, "value": 71}, "group": "control_change"}, {"time": 860, "annotation": {"number": 64, "value": 0}, "group": "control_change"}, {"time": 863, "annotation": {"number": 64, "value": 71}, "group": "control_change"}, {"time": 864, "annotation": {"number": 64, "value": 127}, "group": "control_change"}, {"time": 872, "annotation": {"number": 64, "value": 71}, "group": "control_change"}, {"time": 873, "annotation": {"number": 64, "value": 0}, "group": "control_change"}, {"time": 875, "annotation": {"number": 64, "value": 71}, "group": "control_change"}, {"time": 876, "annotation": {"number": 64, "value": 127}, "group": "control_change"}, {"time": 884, "annotation": {"number": 64, "value": 71}, "group": "control_change"}, {"time": 884, "annotation": {"number": 64, "value": 0}, "group": "control_change"}, {"time": 887, "annotation": {"number": 64, "value": 71}, "group": "control_change"}, {"time": 888, "annotation": {"number": 64, "value": 127}, "group": "control_change"}, {"time": 908, "annotation": {"number": 64, "value": 71}, "group": "control_change"}, {"time": 909, "annotation": {"number": 64, "value": 0}, "group": "control_change"}, {"time": 912, "annotation": {"number": 64, "value": 71}, "group": "control_change"}, {"time": 912, "annotation": {"number": 64, "value": 127}, "group": "control_change"}, {"time": 932, "annotation": {"number": 64, "value": 71}, "group": "control_change"}, {"time": 932, "annotation": {"number": 64, "value": 0}, "group": "control_change"}, {"time": 932, "annotation": {"number": 64, "value": 79}, "group": "control_change"}, {"time": 935, "annotation": {"number": 64, "value": 71}, "group": "control_change"}, {"time": 936, "annotation": {"number": 64, "value": 127}, "group": "control_change"}, {"time": 956, "annotation": {"number": 64, "value": 71}, "group": "control_change"}, {"time": 956, "annotation": {"number": 64, "value": 0}, "group": "control_change"}, {"time": 959, "annotation": {"number": 64, "value": 71}, "group": "control_change"}, {"time": 960, "annotation": {"number": 64, "value": 127}, "group": "control_change"}, {"time": 968, "annotation": {"number": 64, "value": 71}, "group": "control_change"}, {"time": 968, "annotation": {"number": 64, "value": 0}, "group": "control_change"}, {"time": 971, "annotation": {"number": 64, "value": 71}, "group": "control_change"}, {"time": 972, "annotation": {"number": 64, "value": 127}, "group": "control_change"}, {"time": 980, "annotation": {"number": 64, "value": 71}, "group": "control_change"}, {"time": 980, "annotation": {"number": 64, "value": 0}, "group": "control_change"}, {"time": 984, "annotation": {"number": 64, "value": 71}, "group": "control_change"}, {"time": 985, "annotation": {"number": 64, "value": 127}, "group": "control_change"}, {"time": 1005, "annotation": {"number": 64, "value": 71}, "group": "control_change"}, {"time": 1005, "annotation": {"number": 64, "value": 0}, "group": "control_change"}, {"time": 1008, "annotation": {"number": 64, "value": 71}, "group": "control_change"}, {"time": 1009, "annotation": {"number": 64, "value": 127}, "group": "control_change"}, {"time": 1028, "annotation": {"number": 64, "value": 71}, "group": "control_change"}, {"time": 1029, "annotation": {"number": 64, "value": 0}, "group": "control_change"}, {"time": 1032, "annotation": {"number": 64, "value": 71}, "group": "control_change"}, {"time": 1032, "annotation": {"number": 64, "value": 127}, "group": "control_change"}, {"time": 1053, "annotation": {"number": 64, "value": 71}, "group": "control_change"}, {"time": 1053, "annotation": {"number": 64, "value": 0}, "group": "control_change"}, {"time": 1056, "annotation": {"number": 64, "value": 71}, "group": "control_change"}, {"time": 1056, "annotation": {"number": 64, "value": 127}, "group": "control_change"}, {"time": 1064, "annotation": {"number": 64, "value": 71}, "group": "control_change"}, {"time": 1064, "annotation": {"number": 64, "value": 0}, "group": "control_change"}, {"time": 1067, "annotation": {"number": 64, "value": 71}, "group": "control_change"}, {"time": 1067, "annotation": {"number": 64, "value": 127}, "group": "control_change"}, {"time": 1076, "annotation": {"number": 64, "value": 71}, "group": "control_change"}, {"time": 1077, "annotation": {"number": 64, "value": 0}, "group": "control_change"}, {"time": 1080, "annotation": {"number": 64, "value": 71}, "group": "control_change"}, {"time": 1080, "annotation": {"number": 64, "value": 127}, "group": "control_change"}, {"time": 1100, "annotation": {"number": 64, "value": 71}, "group": "control_change"}, {"time": 1100, "annotation": {"number": 64, "value": 0}, "group": "control_change"}, {"time": 1103, "annotation": {"number": 64, "value": 71}, "group": "control_change"}, {"time": 1103, "annotation": {"number": 64, "value": 127}, "group": "control_change"}, {"time": 1124, "annotation": {"number": 64, "value": 71}, "group": "control_change"}, {"time": 1124, "annotation": {"number": 64, "value": 0}, "group": "control_change"}, {"time": 1124, "annotation": {"number": 64, "value": 78}, "group": "control_change"}, {"time": 1127, "annotation": {"number": 64, "value": 71}, "group": "control_change"}, {"time": 1127, "annotation": {"number": 64, "value": 127}, "group": "control_change"}, {"time": 1148, "annotation": {"number": 64, "value": 71}, "group": "control_change"}, {"time": 1148, "annotation": {"number": 64, "value": 0}, "group": "control_change"}, {"time": 1151, "annotation": {"number": 64, "value": 71}, "group": "control_change"}, {"time": 1152, "annotation": {"number": 64, "value": 127}, "group": "control_change"}, {"time": 1160, "annotation": {"number": 64, "value": 71}, "group": "control_change"}, {"time": 1160, "annotation": {"number": 64, "value": 0}, "group": "control_change"}, {"time": 1163, "annotation": {"number": 64, "value": 71}, "group": "control_change"}, {"time": 1164, "annotation": {"number": 64, "value": 127}, "group": "control_change"}, {"time": 1172, "annotation": {"number": 64, "value": 71}, "group": "control_change"}, {"time": 1172, "annotation": {"number": 64, "value": 76}, "group": "control_change"}, {"time": 1172, "annotation": {"number": 64, "value": 0}, "group": "control_change"}, {"time": 1175, "annotation": {"number": 64, "value": 71}, "group": "control_change"}, {"time": 1176, "annotation": {"number": 64, "value": 127}, "group": "control_change"}, {"time": 1184, "annotation": {"number": 64, "value": 76}, "group": "control_change"}, {"time": 1196, "annotation": {"number": 64, "value": 71}, "group": "control_change"}, {"time": 1196, "annotation": {"number": 64, "value": 0}, "group": "control_change"}, {"time": 1199, "annotation": {"number": 64, "value": 71}, "group": "control_change"}, {"time": 1199, "annotation": {"number": 64, "value": 127}, "group": "control_change"}, {"time": 1220, "annotation": {"number": 64, "value": 71}, "group": "control_change"}, {"time": 1220, "annotation": {"number": 64, "value": 0}, "group": "control_change"}, {"time": 1223, "annotation": {"number": 64, "value": 71}, "group": "control_change"}, {"time": 1224, "annotation": {"number": 64, "value": 127}, "group": "control_change"}, {"time": 1240, "annotation": {"number": 64, "value": 71}, "group": "control_change"}, {"time": 1240, "annotation": {"number": 64, "value": 0}, "group": "control_change"}, {"time": 1243, "annotation": {"number": 64, "value": 71}, "group": "control_change"}, {"time": 1244, "annotation": {"number": 64, "value": 127}, "group": "control_change"}, {"time": 1247, "annotation": {"number": 64, "value": 71}, "group": "control_change"}, {"time": 1248, "annotation": {"number": 64, "value": 0}, "group": "control_change"}, {"time": 1250, "annotation": {"number": 64, "value": 71}, "group": "control_change"}, {"time": 1250, "annotation": {"number": 64, "value": 127}, "group": "control_change"}, {"time": 1256, "annotation": {"number": 64, "value": 71}, "group": "control_change"}, {"time": 1256, "annotation": {"number": 64, "value": 0}, "group": "control_change"}, {"time": 1259, "annotation": {"number": 64, "value": 71}, "group": "control_change"}, {"time": 1259, "annotation": {"number": 64, "value": 127}, "group": "control_change"}, {"time": 1268, "annotation": {"number": 64, "value": 71}, "group": "control_change"}, {"time": 1268, "annotation": {"number": 64, "value": 0}, "group": "control_change"}, {"time": 1268, "annotation": {"number": 64, "value": 75}, "group": "control_change"}, {"time": 1271, "annotation": {"number": 64, "value": 71}, "group": "control_change"}, {"time": 1271, "annotation": {"number": 64, "value": 127}, "group": "control_change"}, {"time": 1292, "annotation": {"number": 64, "value": 71}, "group": "control_change"}, {"time": 1292, "annotation": {"number": 64, "value": 0}, "group": "control_change"}, {"time": 1295, "annotation": {"number": 64, "value": 71}, "group": "control_change"}, {"time": 1295, "annotation": {"number": 64, "value": 127}, "group": "control_change"}, {"time": 1316, "annotation": {"number": 64, "value": 71}, "group": "control_change"}, {"time": 1317, "annotation": {"number": 64, "value": 0}, "group": "control_change"}, {"time": 1319, "annotation": {"number": 64, "value": 71}, "group": "control_change"}, {"time": 1320, "annotation": {"number": 64, "value": 127}, "group": "control_change"}, {"time": 1340, "annotation": {"number": 64, "value": 71}, "group": "control_change"}, {"time": 1340, "annotation": {"number": 64, "value": 0}, "group": "control_change"}, {"time": 1342, "annotation": {"number": 64, "value": 71}, "group": "control_change"}, {"time": 1342, "annotation": {"number": 64, "value": 127}, "group": "control_change"}, {"time": 1352, "annotation": {"number": 64, "value": 71}, "group": "control_change"}, {"time": 1352, "annotation": {"number": 64, "value": 0}, "group": "control_change"}, {"time": 1355, "annotation": {"number": 64, "value": 71}, "group": "control_change"}, {"time": 1355, "annotation": {"number": 64, "value": 127}, "group": "control_change"}, {"time": 1364, "annotation": {"number": 64, "value": 71}, "group": "control_change"}, {"time": 1364, "annotation": {"number": 64, "value": 0}, "group": "control_change"}, {"time": 1367, "annotation": {"number": 64, "value": 71}, "group": "control_change"}, {"time": 1367, "annotation": {"number": 64, "value": 127}, "group": "control_change"}, {"time": 1388, "annotation": {"number": 64, "value": 71}, "group": "control_change"}, {"time": 1389, "annotation": {"number": 64, "value": 0}, "group": "control_change"}, {"time": 1392, "annotation": {"number": 64, "value": 71}, "group": "control_change"}, {"time": 1392, "annotation": {"number": 64, "value": 127}, "group": "control_change"}, {"time": 1406, "annotation": {"number": 64, "value": 77}, "group": "control_change"}, {"time": 1412, "annotation": {"number": 64, "value": 71}, "group": "control_change"}, {"time": 1413, "annotation": {"number": 64, "value": 0}, "group": "control_change"}, {"time": 1415, "annotation": {"number": 64, "value": 71}, "group": "control_change"}, {"time": 1416, "annotation": {"number": 64, "value": 127}, "group": "control_change"}, {"time": 1436, "annotation": {"number": 64, "value": 71}, "group": "control_change"}, {"time": 1436, "annotation": {"number": 64, "value": 0}, "group": "control_change"}, {"time": 1439, "annotation": {"number": 64, "value": 71}, "group": "control_change"}, {"time": 1439, "annotation": {"number": 64, "value": 127}, "group": "control_change"}, {"time": 1448, "annotation": {"number": 64, "value": 71}, "group": "control_change"}, {"time": 1448, "annotation": {"number": 64, "value": 0}, "group": "control_change"}, {"time": 1451, "annotation": {"number": 64, "value": 71}, "group": "control_change"}, {"time": 1452, "annotation": {"number": 64, "value": 127}, "group": "control_change"}, {"time": 1460, "annotation": {"number": 64, "value": 71}, "group": "control_change"}, {"time": 1460, "annotation": {"number": 64, "value": 0}, "group": "control_change"}, {"time": 1462, "annotation": {"number": 64, "value": 71}, "group": "control_change"}, {"time": 1463, "annotation": {"number": 64, "value": 127}, "group": "control_change"}, {"time": 1484, "annotation": {"number": 64, "value": 71}, "group": "control_change"}, {"time": 1484, "annotation": {"number": 64, "value": 0}, "group": "control_change"}, {"time": 1486, "annotation": {"number": 64, "value": 71}, "group": "control_change"}, {"time": 1487, "annotation": {"number": 64, "value": 127}, "group": "control_change"}, {"time": 1508, "annotation": {"number": 64, "value": 71}, "group": "control_change"}, {"time": 1508, "annotation": {"number": 64, "value": 0}, "group": "control_change"}, {"time": 1511, "annotation": {"number": 64, "value": 71}, "group": "control_change"}, {"time": 1511, "annotation": {"number": 64, "value": 127}, "group": "control_change"}, {"time": 1532, "annotation": {"number": 64, "value": 71}, "group": "control_change"}, {"time": 1533, "annotation": {"number": 64, "value": 0}, "group": "control_change"}, {"time": 1535, "annotation": {"number": 64, "value": 71}, "group": "control_change"}, {"time": 1535, "annotation": {"number": 64, "value": 127}, "group": "control_change"}, {"time": 1543, "annotation": {"number": 64, "value": 71}, "group": "control_change"}, {"time": 1544, "annotation": {"number": 64, "value": 0}, "group": "control_change"}, {"time": 1546, "annotation": {"number": 64, "value": 71}, "group": "control_change"}, {"time": 1546, "annotation": {"number": 64, "value": 127}, "group": "control_change"}, {"time": 1556, "annotation": {"number": 64, "value": 71}, "group": "control_change"}, {"time": 1556, "annotation": {"number": 64, "value": 0}, "group": "control_change"}, {"time": 1556, "annotation": {"number": 64, "value": 78}, "group": "control_change"}, {"time": 1558, "annotation": {"number": 64, "value": 71}, "group": "control_change"}, {"time": 1559, "annotation": {"number": 64, "value": 127}, "group": "control_change"}, {"time": 1568, "annotation": {"number": 64, "value": 78}, "group": "control_change"}, {"time": 1581, "annotation": {"number": 64, "value": 71}, "group": "control_change"}, {"time": 1581, "annotation": {"number": 64, "value": 0}, "group": "control_change"}, {"time": 1583, "annotation": {"number": 64, "value": 71}, "group": "control_change"}, {"time": 1584, "annotation": {"number": 64, "value": 127}, "group": "control_change"}, {"time": 1604, "annotation": {"number": 64, "value": 71}, "group": "control_change"}, {"time": 1604, "annotation": {"number": 64, "value": 0}, "group": "control_change"}, {"time": 1607, "annotation": {"number": 64, "value": 71}, "group": "control_change"}, {"time": 1607, "annotation": {"number": 64, "value": 127}, "group": "control_change"}, {"time": 1616, "annotation": {"number": 64, "value": 81}, "group": "control_change"}, {"time": 1628, "annotation": {"number": 64, "value": 71}, "group": "control_change"}, {"time": 1628, "annotation": {"number": 64, "value": 0}, "group": "control_change"}, {"time": 1630, "annotation": {"number": 64, "value": 71}, "group": "control_change"}, {"time": 1631, "annotation": {"number": 64, "value": 127}, "group": "control_change"}, {"time": 1652, "annotation": {"number": 64, "value": 71}, "group": "control_change"}, {"time": 1652, "annotation": {"number": 64, "value": 0}, "group": "control_change"}, {"time": 1655, "annotation": {"number": 64, "value": 71}, "group": "control_change"}, {"time": 1656, "annotation": {"number": 64, "value": 127}, "group": "control_change"}, {"time": 1664, "annotation": {"number": 64, "value": 84}, "group": "control_change"}, {"time": 1676, "annotation": {"number": 64, "value": 71}, "group": "control_change"}, {"time": 1676, "annotation": {"number": 64, "value": 0}, "group": "control_change"}, {"time": 1679, "annotation": {"number": 64, "value": 71}, "group": "control_change"}, {"time": 1680, "annotation": {"number": 64, "value": 127}, "group": "control_change"}, {"time": 1688, "annotation": {"number": 64, "value": 82}, "group": "control_change"}, {"time": 1700, "annotation": {"number": 64, "value": 71}, "group": "control_change"}, {"time": 1700, "annotation": {"number": 64, "value": 0}, "group": "control_change"}, {"time": 1700, "annotation": {"number": 64, "value": 83}, "group": "control_change"}, {"time": 1703, "annotation": {"number": 64, "value": 71}, "group": "control_change"}, {"time": 1703, "annotation": {"number": 64, "value": 127}, "group": "control_change"}, {"time": 1747, "annotation": {"number": 64, "value": 71}, "group": "control_change"}, {"time": 1747, "annotation": {"number": 64, "value": 0}, "group": "control_change"}, {"time": 1750, "annotation": {"number": 64, "value": 71}, "group": "control_change"}, {"time": 1750, "annotation": {"number": 64, "value": 127}, "group": "control_change"}, {"time": 1772, "annotation": {"number": 64, "value": 71}, "group": "control_change"}, {"time": 1772, "annotation": {"number": 64, "value": 0}, "group": "control_change"}, {"time": 1775, "annotation": {"number": 64, "value": 71}, "group": "control_change"}, {"time": 1775, "annotation": {"number": 64, "value": 127}, "group": "control_change"}, {"time": 1784, "annotation": {"number": 64, "value": 82}, "group": "control_change"}, {"time": 1797, "annotation": {"number": 64, "value": 71}, "group": "control_change"}, {"time": 1797, "annotation": {"number": 64, "value": 0}, "group": "control_change"}, {"time": 1800, "annotation": {"number": 64, "value": 71}, "group": "control_change"}, {"time": 1800, "annotation": {"number": 64, "value": 127}, "group": "control_change"}, {"time": 1821, "annotation": {"number": 64, "value": 71}, "group": "control_change"}, {"time": 1821, "annotation": {"number": 64, "value": 0}, "group": "control_change"}, {"time": 1823, "annotation": {"number": 64, "value": 71}, "group": "control_change"}, {"time": 1823, "annotation": {"number": 64, "value": 127}, "group": "control_change"}, {"time": 1844, "annotation": {"number": 64, "value": 71}, "group": "control_change"}, {"time": 1844, "annotation": {"number": 64, "value": 0}, "group": "control_change"}, {"time": 1847, "annotation": {"number": 64, "value": 71}, "group": "control_change"}, {"time": 1847, "annotation": {"number": 64, "value": 127}, "group": "control_change"}, {"time": 1868, "annotation": {"number": 64, "value": 81}, "group": "control_change"}, {"time": 1870, "annotation": {"number": 64, "value": 71}, "group": "control_change"}, {"time": 1870, "annotation": {"number": 64, "value": 0}, "group": "control_change"}, {"time": 1872, "annotation": {"number": 64, "value": 71}, "group": "control_change"}, {"time": 1872, "annotation": {"number": 64, "value": 127}, "group": "control_change"}, {"time": 1892, "annotation": {"number": 64, "value": 80}, "group": "control_change"}, {"time": 1893, "annotation": {"number": 64, "value": 71}, "group": "control_change"}, {"time": 1893, "annotation": {"number": 64, "value": 0}, "group": "control_change"}, {"time": 1895, "annotation": {"number": 64, "value": 71}, "group": "control_change"}, {"time": 1895, "annotation": {"number": 64, "value": 127}, "group": "control_change"}, {"time": 1916, "annotation": {"number": 64, "value": 71}, "group": "control_change"}, {"time": 1916, "annotation": {"number": 64, "value": 0}, "group": "control_change"}, {"time": 1918, "annotation": {"number": 64, "value": 71}, "group": "control_change"}, {"time": 1919, "annotation": {"number": 64, "value": 127}, "group": "control_change"}, {"time": 1940, "annotation": {"number": 64, "value": 71}, "group": "control_change"}, {"time": 1940, "annotation": {"number": 64, "value": 0}, "group": "control_change"}, {"time": 1943, "annotation": {"number": 64, "value": 71}, "group": "control_change"}, {"time": 1943, "annotation": {"number": 64, "value": 127}, "group": "control_change"}, {"time": 1965, "annotation": {"number": 64, "value": 71}, "group": "control_change"}, {"time": 1965, "annotation": {"number": 64, "value": 0}, "group": "control_change"}, {"time": 1968, "annotation": {"number": 64, "value": 71}, "group": "control_change"}, {"time": 1968, "annotation": {"number": 64, "value": 127}, "group": "control_change"}, {"time": 1988, "annotation": {"number": 64, "value": 71}, "group": "control_change"}, {"time": 1989, "annotation": {"number": 64, "value": 0}, "group": "control_change"}, {"time": 1992, "annotation": {"number": 64, "value": 71}, "group": "control_change"}, {"time": 1993, "annotation": {"number": 64, "value": 127}, "group": "control_change"}, {"time": 2024, "annotation": {"number": 64, "value": 71}, "group": "control_change"}, {"time": 2024, "annotation": {"number": 64, "value": 0}, "group": "control_change"}, {"time": 2026, "annotation": {"number": 64, "value": 71}, "group": "control_change"}, {"time": 2027, "annotation": {"number": 64, "value": 127}, "group": "control_change"}, {"time": 2036, "annotation": {"number": 64, "value": 71}, "group": "control_change"}, {"time": 2036, "annotation": {"number": 64, "value": 0}, "group": "control_change"}, {"time": 2039, "annotation": {"number": 64, "value": 71}, "group": "control_change"}, {"time": 2039, "annotation": {"number": 64, "value": 127}, "group": "control_change"}, {"time": 2060, "annotation": {"number": 64, "value": 71}, "group": "control_change"}, {"time": 2060, "annotation": {"number": 64, "value": 0}, "group": "control_change"}, {"time": 2064, "annotation": {"number": 64, "value": 71}, "group": "control_change"}, {"time": 2065, "annotation": {"number": 64, "value": 127}, "group": "control_change"}, {"time": 2084, "annotation": {"number": 64, "value": 71}, "group": "control_change"}, {"time": 2085, "annotation": {"number": 64, "value": 0}, "group": "control_change"}, {"time": 2087, "annotation": {"number": 64, "value": 71}, "group": "control_change"}, {"time": 2088, "annotation": {"number": 64, "value": 127}, "group": "control_change"}, {"time": 2120, "annotation": {"number": 64, "value": 71}, "group": "control_change"}, {"time": 2120, "annotation": {"number": 64, "value": 0}, "group": "control_change"}, {"time": 2122, "annotation": {"number": 64, "value": 71}, "group": "control_change"}, {"time": 2123, "annotation": {"number": 64, "value": 127}, "group": "control_change"}, {"time": 2132, "annotation": {"number": 64, "value": 71}, "group": "control_change"}, {"time": 2132, "annotation": {"number": 64, "value": 0}, "group": "control_change"}, {"time": 2135, "annotation": {"number": 64, "value": 71}, "group": "control_change"}, {"time": 2135, "annotation": {"number": 64, "value": 127}, "group": "control_change"}, {"time": 2157, "annotation": {"number": 64, "value": 71}, "group": "control_change"}, {"time": 2157, "annotation": {"number": 64, "value": 0}, "group": "control_change"}, {"time": 2159, "annotation": {"number": 64, "value": 71}, "group": "control_change"}, {"time": 2160, "annotation": {"number": 64, "value": 127}, "group": "control_change"}, {"time": 2180, "annotation": {"number": 64, "value": 71}, "group": "control_change"}, {"time": 2181, "annotation": {"number": 64, "value": 0}, "group": "control_change"}, {"time": 2184, "annotation": {"number": 64, "value": 71}, "group": "control_change"}, {"time": 2185, "annotation": {"number": 64, "value": 127}, "group": "control_change"}, {"time": 2204, "annotation": {"number": 64, "value": 71}, "group": "control_change"}, {"time": 2205, "annotation": {"number": 64, "value": 0}, "group": "control_change"}, {"time": 2208, "annotation": {"number": 64, "value": 71}, "group": "control_change"}, {"time": 2209, "annotation": {"number": 64, "value": 127}, "group": "control_change"}, {"time": 2228, "annotation": {"number": 64, "value": 71}, "group": "control_change"}, {"time": 2228, "annotation": {"number": 64, "value": 0}, "group": "control_change"}, {"time": 2228, "annotation": {"number": 64, "value": 81}, "group": "control_change"}, {"time": 2231, "annotation": {"number": 64, "value": 71}, "group": "control_change"}, {"time": 2231, "annotation": {"number": 64, "value": 127}, "group": "control_change"}, {"time": 2253, "annotation": {"number": 64, "value": 71}, "group": "control_change"}, {"time": 2253, "annotation": {"number": 64, "value": 0}, "group": "control_change"}, {"time": 2255, "annotation": {"number": 64, "value": 71}, "group": "control_change"}, {"time": 2255, "annotation": {"number": 64, "value": 127}, "group": "control_change"}, {"time": 2277, "annotation": {"number": 64, "value": 71}, "group": "control_change"}, {"time": 2277, "annotation": {"number": 64, "value": 0}, "group": "control_change"}, {"time": 2280, "annotation": {"number": 64, "value": 71}, "group": "control_change"}, {"time": 2281, "annotation": {"number": 64, "value": 127}, "group": "control_change"}, {"time": 2294, "annotation": {"number": 64, "value": 82}, "group": "control_change"}, {"time": 2300, "annotation": {"number": 64, "value": 71}, "group": "control_change"}, {"time": 2300, "annotation": {"number": 64, "value": 0}, "group": "control_change"}, {"time": 2303, "annotation": {"number": 64, "value": 71}, "group": "control_change"}, {"time": 2303, "annotation": {"number": 64, "value": 127}, "group": "control_change"}, {"time": 2313, "annotation": {"number": 64, "value": 71}, "group": "control_change"}, {"time": 2313, "annotation": {"number": 64, "value": 0}, "group": "control_change"}, {"time": 2315, "annotation": {"number": 64, "value": 71}, "group": "control_change"}, {"time": 2316, "annotation": {"number": 64, "value": 127}, "group": "control_change"}, {"time": 2324, "annotation": {"number": 64, "value": 71}, "group": "control_change"}, {"time": 2325, "annotation": {"number": 64, "value": 0}, "group": "control_change"}, {"time": 2327, "annotation": {"number": 64, "value": 71}, "group": "control_change"}, {"time": 2327, "annotation": {"number": 64, "value": 127}, "group": "control_change"}, {"time": 2348, "annotation": {"number": 64, "value": 71}, "group": "control_change"}, {"time": 2348, "annotation": {"number": 64, "value": 0}, "group": "control_change"}, {"time": 2352, "annotation": {"number": 64, "value": 71}, "group": "control_change"}, {"time": 2353, "annotation": {"number": 64, "value": 127}, "group": "control_change"}, {"time": 2360, "annotation": {"number": 64, "value": 83}, "group": "control_change"}, {"time": 2372, "annotation": {"number": 64, "value": 71}, "group": "control_change"}, {"time": 2372, "annotation": {"number": 64, "value": 0}, "group": "control_change"}, {"time": 2375, "annotation": {"number": 64, "value": 71}, "group": "control_change"}, {"time": 2376, "annotation": {"number": 64, "value": 127}, "group": "control_change"}, {"time": 2384, "annotation": {"number": 64, "value": 71}, "group": "control_change"}, {"time": 2384, "annotation": {"number": 64, "value": 0}, "group": "control_change"}, {"time": 2387, "annotation": {"number": 64, "value": 71}, "group": "control_change"}, {"time": 2387, "annotation": {"number": 64, "value": 127}, "group": "control_change"}, {"time": 2396, "annotation": {"number": 64, "value": 71}, "group": "control_change"}, {"time": 2396, "annotation": {"number": 64, "value": 0}, "group": "control_change"}, {"time": 2399, "annotation": {"number": 64, "value": 71}, "group": "control_change"}, {"time": 2399, "annotation": {"number": 64, "value": 127}, "group": "control_change"}, {"time": 2409, "annotation": {"number": 64, "value": 71}, "group": "control_change"}, {"time": 2409, "annotation": {"number": 64, "value": 0}, "group": "control_change"}, {"time": 2411, "annotation": {"number": 64, "value": 71}, "group": "control_change"}, {"time": 2412, "annotation": {"number": 64, "value": 127}, "group": "control_change"}, {"time": 2421, "annotation": {"number": 64, "value": 71}, "group": "control_change"}, {"time": 2421, "annotation": {"number": 64, "value": 0}, "group": "control_change"}, {"time": 2423, "annotation": {"number": 64, "value": 71}, "group": "control_change"}, {"time": 2423, "annotation": {"number": 64, "value": 127}, "group": "control_change"}, {"time": 2432, "annotation": {"number": 64, "value": 82}, "group": "control_change"}, {"time": 2444, "annotation": {"number": 64, "value": 71}, "group": "control_change"}, {"time": 2444, "annotation": {"number": 64, "value": 0}, "group": "control_change"}, {"time": 2447, "annotation": {"number": 64, "value": 71}, "group": "control_change"}, {"time": 2447, "annotation": {"number": 64, "value": 127}, "group": "control_change"}, {"time": 2468, "annotation": {"number": 64, "value": 71}, "group": "control_change"}, {"time": 2468, "annotation": {"number": 64, "value": 0}, "group": "control_change"}, {"time": 2470, "annotation": {"number": 64, "value": 71}, "group": "control_change"}, {"time": 2471, "annotation": {"number": 64, "value": 127}, "group": "control_change"}, {"time": 2504, "annotation": {"number": 64, "value": 81}, "group": "control_change"}, {"time": 2516, "annotation": {"number": 64, "value": 71}, "group": "control_change"}, {"time": 2516, "annotation": {"number": 64, "value": 0}, "group": "control_change"}, {"time": 2518, "annotation": {"number": 64, "value": 71}, "group": "control_change"}, {"time": 2519, "annotation": {"number": 64, "value": 127}, "group": "control_change"}, {"time": 2540, "annotation": {"number": 64, "value": 71}, "group": "control_change"}, {"time": 2541, "annotation": {"number": 64, "value": 0}, "group": "control_change"}, {"time": 2542, "annotation": {"number": 64, "value": 71}, "group": "control_change"}, {"time": 2543, "annotation": {"number": 64, "value": 127}, "group": "control_change"}, {"time": 2564, "annotation": {"number": 64, "value": 71}, "group": "control_change"}, {"time": 2564, "annotation": {"number": 64, "value": 0}, "group": "control_change"}, {"time": 2564, "annotation": {"number": 64, "value": 80}, "group": "control_change"}, {"time": 2567, "annotation": {"number": 64, "value": 71}, "group": "control_change"}, {"time": 2567, "annotation": {"number": 64, "value": 127}, "group": "control_change"}, {"time": 2587, "annotation": {"number": 64, "value": 71}, "group": "control_change"}, {"time": 2588, "annotation": {"number": 64, "value": 0}, "group": "control_change"}, {"time": 2591, "annotation": {"number": 64, "value": 71}, "group": "control_change"}, {"time": 2591, "annotation": {"number": 64, "value": 127}, "group": "control_change"}, {"time": 2600, "annotation": {"number": 64, "value": 71}, "group": "control_change"}, {"time": 2600, "annotation": {"number": 64, "value": 0}, "group": "control_change"}, {"time": 2600, "annotation": {"number": 64, "value": 88}, "group": "control_change"}, {"time": 2602, "annotation": {"number": 64, "value": 71}, "group": "control_change"}, {"time": 2603, "annotation": {"number": 64, "value": 127}, "group": "control_change"}, {"time": 2612, "annotation": {"number": 64, "value": 71}, "group": "control_change"}, {"time": 2612, "annotation": {"number": 64, "value": 0}, "group": "control_change"}, {"time": 2615, "annotation": {"number": 64, "value": 71}, "group": "control_change"}, {"time": 2615, "annotation": {"number": 64, "value": 127}, "group": "control_change"}, {"time": 2636, "annotation": {"number": 64, "value": 71}, "group": "control_change"}, {"time": 2636, "annotation": {"number": 64, "value": 0}, "group": "control_change"}, {"time": 2636, "annotation": {"number": 64, "value": 86}, "group": "control_change"}, {"time": 2639, "annotation": {"number": 64, "value": 71}, "group": "control_change"}, {"time": 2639, "annotation": {"number": 64, "value": 127}, "group": "control_change"}, {"time": 2648, "annotation": {"number": 64, "value": 85}, "group": "control_change"}, {"time": 2660, "annotation": {"number": 64, "value": 71}, "group": "control_change"}, {"time": 2660, "annotation": {"number": 64, "value": 0}, "group": "control_change"}, {"time": 2663, "annotation": {"number": 64, "value": 71}, "group": "control_change"}, {"time": 2664, "annotation": {"number": 64, "value": 127}, "group": "control_change"}, {"time": 2683, "annotation": {"number": 64, "value": 71}, "group": "control_change"}, {"time": 2683, "annotation": {"number": 64, "value": 0}, "group": "control_change"}, {"time": 2686, "annotation": {"number": 64, "value": 71}, "group": "control_change"}, {"time": 2686, "annotation": {"number": 64, "value": 127}, "group": "control_change"}, {"time": 2696, "annotation": {"number": 64, "value": 0}, "group": "control_change"}, {"time": 2702, "annotation": {"number": 64, "value": 71}, "group": "control_change"}, {"time": 2703, "annotation": {"number": 64, "value": 0}, "group": "control_change"}, {"time": 2704, "annotation": {"number": 64, "value": 71}, "group": "control_change"}, {"time": 2705, "annotation": {"number": 64, "value": 127}, "group": "control_change"}, {"time": 2708, "annotation": {"number": 64, "value": 90}, "group": "control_change"}, {"time": 2709, "annotation": {"number": 64, "value": 71}, "group": "control_change"}, {"time": 2710, "annotation": {"number": 64, "value": 0}, "group": "control_change"}, {"time": 2712, "annotation": {"number": 64, "value": 71}, "group": "control_change"}, {"time": 2713, "annotation": {"number": 64, "value": 127}, "group": "control_change"}, {"time": 2720, "annotation": {"number": 64, "value": 87}, "group": "control_change"}, {"time": 2732, "annotation": {"number": 64, "value": 71}, "group": "control_change"}, {"time": 2732, "annotation": {"number": 64, "value": 0}, "group": "control_change"}, {"time": 2735, "annotation": {"number": 64, "value": 71}, "group": "control_change"}, {"time": 2736, "annotation": {"number": 64, "value": 127}, "group": "control_change"}, {"time": 2744, "annotation": {"number": 64, "value": 89}, "group": "control_change"}, {"time": 2756, "annotation": {"number": 64, "value": 71}, "group": "control_change"}, {"time": 2756, "annotation": {"number": 64, "value": 0}, "group": "control_change"}, {"time": 2759, "annotation": {"number": 64, "value": 71}, "group": "control_change"}, {"time": 2759, "annotation": {"number": 64, "value": 127}, "group": "control_change"}, {"time": 2768, "annotation": {"number": 64, "value": 86}, "group": "control_change"}, {"time": 2768, "annotation": {"number": 64, "value": 88}, "group": "control_change"}, {"time": 2780, "annotation": {"number": 64, "value": 71}, "group": "control_change"}, {"time": 2780, "annotation": {"number": 64, "value": 78}, "group": "control_change"}, {"time": 2780, "annotation": {"number": 64, "value": 0}, "group": "control_change"}, {"time": 2783, "annotation": {"number": 64, "value": 71}, "group": "control_change"}, {"time": 2783, "annotation": {"number": 64, "value": 127}, "group": "control_change"}, {"time": 2796, "annotation": {"number": 64, "value": 71}, "group": "control_change"}, {"time": 2796, "annotation": {"number": 64, "value": 0}, "group": "control_change"}, {"time": 2798, "annotation": {"number": 64, "value": 71}, "group": "control_change"}, {"time": 2798, "annotation": {"number": 64, "value": 127}, "group": "control_change"}, {"time": 2805, "annotation": {"number": 64, "value": 71}, "group": "control_change"}, {"time": 2805, "annotation": {"number": 64, "value": 0}, "group": "control_change"}, {"time": 2807, "annotation": {"number": 64, "value": 71}, "group": "control_change"}, {"time": 2808, "annotation": {"number": 64, "value": 127}, "group": "control_change"}, {"time": 2816, "annotation": {"number": 64, "value": 86}, "group": "control_change"}, {"time": 2828, "annotation": {"number": 64, "value": 71}, "group": "control_change"}, {"time": 2828, "annotation": {"number": 64, "value": 0}, "group": "control_change"}, {"time": 2830, "annotation": {"number": 64, "value": 71}, "group": "control_change"}, {"time": 2831, "annotation": {"number": 64, "value": 127}, "group": "control_change"}, {"time": 2852, "annotation": {"number": 64, "value": 71}, "group": "control_change"}, {"time": 2852, "annotation": {"number": 64, "value": 0}, "group": "control_change"}, {"time": 2855, "annotation": {"number": 64, "value": 71}, "group": "control_change"}, {"time": 2855, "annotation": {"number": 64, "value": 127}, "group": "control_change"}, {"time": 2876, "annotation": {"number": 64, "value": 71}, "group": "control_change"}, {"time": 2876, "annotation": {"number": 64, "value": 0}, "group": "control_change"}, {"time": 2876, "annotation": {"number": 64, "value": 85}, "group": "control_change"}, {"time": 2879, "annotation": {"number": 64, "value": 71}, "group": "control_change"}, {"time": 2879, "annotation": {"number": 64, "value": 127}, "group": "control_change"}, {"time": 2888, "annotation": {"number": 64, "value": 71}, "group": "control_change"}, {"time": 2888, "annotation": {"number": 64, "value": 0}, "group": "control_change"}, {"time": 2891, "annotation": {"number": 64, "value": 71}, "group": "control_change"}, {"time": 2891, "annotation": {"number": 64, "value": 127}, "group": "control_change"}, {"time": 2900, "annotation": {"number": 64, "value": 71}, "group": "control_change"}, {"time": 2900, "annotation": {"number": 64, "value": 0}, "group": "control_change"}, {"time": 2903, "annotation": {"number": 64, "value": 71}, "group": "control_change"}, {"time": 2903, "annotation": {"number": 64, "value": 127}, "group": "control_change"}, {"time": 2924, "annotation": {"number": 64, "value": 71}, "group": "control_change"}, {"time": 2924, "annotation": {"number": 64, "value": 84}, "group": "control_change"}, {"time": 2924, "annotation": {"number": 64, "value": 0}, "group": "control_change"}, {"time": 2927, "annotation": {"number": 64, "value": 71}, "group": "control_change"}, {"time": 2927, "annotation": {"number": 64, "value": 127}, "group": "control_change"}, {"time": 2948, "annotation": {"number": 64, "value": 71}, "group": "control_change"}, {"time": 2948, "annotation": {"number": 64, "value": 83}, "group": "control_change"}, {"time": 2948, "annotation": {"number": 64, "value": 0}, "group": "control_change"}, {"time": 2951, "annotation": {"number": 64, "value": 71}, "group": "control_change"}, {"time": 2951, "annotation": {"number": 64, "value": 127}, "group": "control_change"}, {"time": 2972, "annotation": {"number": 64, "value": 71}, "group": "control_change"}, {"time": 2972, "annotation": {"number": 64, "value": 0}, "group": "control_change"}, {"time": 2975, "annotation": {"number": 64, "value": 71}, "group": "control_change"}, {"time": 2975, "annotation": {"number": 64, "value": 127}, "group": "control_change"}, {"time": 2984, "annotation": {"number": 64, "value": 71}, "group": "control_change"}, {"time": 2984, "annotation": {"number": 64, "value": 0}, "group": "control_change"}, {"time": 2986, "annotation": {"number": 64, "value": 71}, "group": "control_change"}, {"time": 2987, "annotation": {"number": 64, "value": 127}, "group": "control_change"}, {"time": 2996, "annotation": {"number": 64, "value": 71}, "group": "control_change"}, {"time": 2996, "annotation": {"number": 64, "value": 0}, "group": "control_change"}, {"time": 2999, "annotation": {"number": 64, "value": 71}, "group": "control_change"}, {"time": 2999, "annotation": {"number": 64, "value": 127}, "group": "control_change"}, {"time": 3021, "annotation": {"number": 64, "value": 71}, "group": "control_change"}, {"time": 3021, "annotation": {"number": 64, "value": 0}, "group": "control_change"}, {"time": 3023, "annotation": {"number": 64, "value": 71}, "group": "control_change"}, {"time": 3024, "annotation": {"number": 64, "value": 127}, "group": "control_change"}, {"time": 3044, "annotation": {"number": 64, "value": 71}, "group": "control_change"}, {"time": 3045, "annotation": {"number": 64, "value": 0}, "group": "control_change"}, {"time": 3047, "annotation": {"number": 64, "value": 71}, "group": "control_change"}, {"time": 3047, "annotation": {"number": 64, "value": 127}, "group": "control_change"}, {"time": 3069, "annotation": {"number": 64, "value": 71}, "group": "control_change"}, {"time": 3069, "annotation": {"number": 64, "value": 0}, "group": "control_change"}, {"time": 3071, "annotation": {"number": 64, "value": 71}, "group": "control_change"}, {"time": 3071, "annotation": {"number": 64, "value": 127}, "group": "control_change"}, {"time": 3080, "annotation": {"number": 64, "value": 71}, "group": "control_change"}, {"time": 3080, "annotation": {"number": 64, "value": 0}, "group": "control_change"}, {"time": 3082, "annotation": {"number": 64, "value": 71}, "group": "control_change"}, {"time": 3083, "annotation": {"number": 64, "value": 127}, "group": "control_change"}, {"time": 3092, "annotation": {"number": 64, "value": 71}, "group": "control_change"}, {"time": 3092, "annotation": {"number": 64, "value": 0}, "group": "control_change"}, {"time": 3095, "annotation": {"number": 64, "value": 71}, "group": "control_change"}, {"time": 3095, "annotation": {"number": 64, "value": 127}, "group": "control_change"}, {"time": 3116, "annotation": {"number": 64, "value": 71}, "group": "control_change"}, {"time": 3117, "annotation": {"number": 64, "value": 0}, "group": "control_change"}, {"time": 3119, "annotation": {"number": 64, "value": 71}, "group": "control_change"}, {"time": 3119, "annotation": {"number": 64, "value": 127}, "group": "control_change"}, {"time": 3140, "annotation": {"number": 64, "value": 71}, "group": "control_change"}, {"time": 3140, "annotation": {"number": 64, "value": 0}, "group": "control_change"}, {"time": 3143, "annotation": {"number": 64, "value": 71}, "group": "control_change"}, {"time": 3144, "annotation": {"number": 64, "value": 127}, "group": "control_change"}, {"time": 3158, "annotation": {"number": 64, "value": 71}, "group": "control_change"}, {"time": 3158, "annotation": {"number": 64, "value": 0}, "group": "control_change"}, {"time": 3160, "annotation": {"number": 64, "value": 71}, "group": "control_change"}, {"time": 3160, "annotation": {"number": 64, "value": 127}, "group": "control_change"}, {"time": 3165, "annotation": {"number": 64, "value": 71}, "group": "control_change"}, {"time": 3165, "annotation": {"number": 64, "value": 0}, "group": "control_change"}, {"time": 3168, "annotation": {"number": 64, "value": 71}, "group": "control_change"}, {"time": 3168, "annotation": {"number": 64, "value": 127}, "group": "control_change"}, {"time": 3177, "annotation": {"number": 64, "value": 71}, "group": "control_change"}, {"time": 3177, "annotation": {"number": 64, "value": 0}, "group": "control_change"}, {"time": 3179, "annotation": {"number": 64, "value": 71}, "group": "control_change"}, {"time": 3179, "annotation": {"number": 64, "value": 127}, "group": "control_change"}, {"time": 3188, "annotation": {"number": 64, "value": 71}, "group": "control_change"}, {"time": 3189, "annotation": {"number": 64, "value": 0}, "group": "control_change"}, {"time": 3191, "annotation": {"number": 64, "value": 71}, "group": "control_change"}, {"time": 3191, "annotation": {"number": 64, "value": 127}, "group": "control_change"}, {"time": 3213, "annotation": {"number": 64, "value": 71}, "group": "control_change"}, {"time": 3213, "annotation": {"number": 64, "value": 0}, "group": "control_change"}, {"time": 3215, "annotation": {"number": 64, "value": 71}, "group": "control_change"}, {"time": 3216, "annotation": {"number": 64, "value": 127}, "group": "control_change"}, {"time": 3236, "annotation": {"number": 64, "value": 85}, "group": "control_change"}, {"time": 3236, "annotation": {"number": 64, "value": 71}, "group": "control_change"}, {"time": 3237, "annotation": {"number": 64, "value": 0}, "group": "control_change"}, {"time": 3239, "annotation": {"number": 64, "value": 71}, "group": "control_change"}, {"time": 3240, "annotation": {"number": 64, "value": 127}, "group": "control_change"}, {"time": 3272, "annotation": {"number": 64, "value": 71}, "group": "control_change"}, {"time": 3272, "annotation": {"number": 64, "value": 0}, "group": "control_change"}, {"time": 3274, "annotation": {"number": 64, "value": 71}, "group": "control_change"}, {"time": 3275, "annotation": {"number": 64, "value": 127}, "group": "control_change"}, {"time": 3284, "annotation": {"number": 64, "value": 71}, "group": "control_change"}, {"time": 3284, "annotation": {"number": 64, "value": 0}, "group": "control_change"}, {"time": 3287, "annotation": {"number": 64, "value": 71}, "group": "control_change"}, {"time": 3287, "annotation": {"number": 64, "value": 127}, "group": "control_change"}, {"time": 3296, "annotation": {"number": 64, "value": 84}, "group": "control_change"}, {"time": 3309, "annotation": {"number": 64, "value": 71}, "group": "control_change"}, {"time": 3309, "annotation": {"number": 64, "value": 0}, "group": "control_change"}, {"time": 3311, "annotation": {"number": 64, "value": 71}, "group": "control_change"}, {"time": 3311, "annotation": {"number": 64, "value": 127}, "group": "control_change"}, {"time": 3333, "annotation": {"number": 64, "value": 71}, "group": "control_change"}, {"time": 3333, "annotation": {"number": 64, "value": 0}, "group": "control_change"}, {"time": 3335, "annotation": {"number": 64, "value": 71}, "group": "control_change"}, {"time": 3335, "annotation": {"number": 64, "value": 127}, "group": "control_change"}, {"time": 3350, "annotation": {"number": 64, "value": 83}, "group": "control_change"}, {"time": 3357, "annotation": {"number": 64, "value": 71}, "group": "control_change"}, {"time": 3357, "annotation": {"number": 64, "value": 0}, "group": "control_change"}, {"time": 3359, "annotation": {"number": 64, "value": 71}, "group": "control_change"}, {"time": 3359, "annotation": {"number": 64, "value": 127}, "group": "control_change"}, {"time": 3368, "annotation": {"number": 64, "value": 71}, "group": "control_change"}, {"time": 3368, "annotation": {"number": 64, "value": 0}, "group": "control_change"}, {"time": 3371, "annotation": {"number": 64, "value": 71}, "group": "control_change"}, {"time": 3371, "annotation": {"number": 64, "value": 127}, "group": "control_change"}, {"time": 3380, "annotation": {"number": 64, "value": 71}, "group": "control_change"}, {"time": 3380, "annotation": {"number": 64, "value": 0}, "group": "control_change"}, {"time": 3383, "annotation": {"number": 64, "value": 71}, "group": "control_change"}, {"time": 3383, "annotation": {"number": 64, "value": 127}, "group": "control_change"}, {"time": 3404, "annotation": {"number": 64, "value": 71}, "group": "control_change"}, {"time": 3404, "annotation": {"number": 64, "value": 0}, "group": "control_change"}, {"time": 3404, "annotation": {"number": 64, "value": 82}, "group": "control_change"}, {"time": 3406, "annotation": {"number": 64, "value": 71}, "group": "control_change"}, {"time": 3406, "annotation": {"number": 64, "value": 127}, "group": "control_change"}, {"time": 3428, "annotation": {"number": 64, "value": 71}, "group": "control_change"}, {"time": 3429, "annotation": {"number": 64, "value": 0}, "group": "control_change"}, {"time": 3431, "annotation": {"number": 64, "value": 71}, "group": "control_change"}, {"time": 3431, "annotation": {"number": 64, "value": 127}, "group": "control_change"}, {"time": 3453, "annotation": {"number": 64, "value": 71}, "group": "control_change"}, {"time": 3453, "annotation": {"number": 64, "value": 0}, "group": "control_change"}, {"time": 3455, "annotation": {"number": 64, "value": 71}, "group": "control_change"}, {"time": 3456, "annotation": {"number": 64, "value": 127}, "group": "control_change"}, {"time": 3458, "annotation": {"number": 64, "value": 81}, "group": "control_change"}, {"time": 3464, "annotation": {"number": 64, "value": 71}, "group": "control_change"}, {"time": 3464, "annotation": {"number": 64, "value": 0}, "group": "control_change"}, {"time": 3466, "annotation": {"number": 64, "value": 71}, "group": "control_change"}, {"time": 3467, "annotation": {"number": 64, "value": 127}, "group": "control_change"}, {"time": 3477, "annotation": {"number": 64, "value": 71}, "group": "control_change"}, {"time": 3477, "annotation": {"number": 64, "value": 0}, "group": "control_change"}, {"time": 3479, "annotation": {"number": 64, "value": 71}, "group": "control_change"}, {"time": 3480, "annotation": {"number": 64, "value": 127}, "group": "control_change"}, {"time": 3500, "annotation": {"number": 64, "value": 71}, "group": "control_change"}, {"time": 3501, "annotation": {"number": 64, "value": 0}, "group": "control_change"}, {"time": 3503, "annotation": {"number": 64, "value": 71}, "group": "control_change"}, {"time": 3503, "annotation": {"number": 64, "value": 127}, "group": "control_change"}, {"time": 3512, "annotation": {"number": 64, "value": 80}, "group": "control_change"}, {"time": 3524, "annotation": {"number": 64, "value": 71}, "group": "control_change"}, {"time": 3524, "annotation": {"number": 64, "value": 0}, "group": "control_change"}, {"time": 3526, "annotation": {"number": 64, "value": 71}, "group": "control_change"}, {"time": 3526, "annotation": {"number": 64, "value": 127}, "group": "control_change"}, {"time": 3536, "annotation": {"number": 64, "value": 71}, "group": "control_change"}, {"time": 3536, "annotation": {"number": 64, "value": 0}, "group": "control_change"}, {"time": 3539, "annotation": {"number": 64, "value": 71}, "group": "control_change"}, {"time": 3539, "annotation": {"number": 64, "value": 127}, "group": "control_change"}, {"time": 3548, "annotation": {"number": 64, "value": 71}, "group": "control_change"}, {"time": 3548, "annotation": {"number": 64, "value": 0}, "group": "control_change"}, {"time": 3550, "annotation": {"number": 64, "value": 71}, "group": "control_change"}, {"time": 3551, "annotation": {"number": 64, "value": 127}, "group": "control_change"}, {"time": 3566, "annotation": {"number": 64, "value": 79}, "group": "control_change"}, {"time": 3572, "annotation": {"number": 64, "value": 71}, "group": "control_change"}, {"time": 3572, "annotation": {"number": 64, "value": 0}, "group": "control_change"}, {"time": 3574, "annotation": {"number": 64, "value": 71}, "group": "control_change"}, {"time": 3575, "annotation": {"number": 64, "value": 127}, "group": "control_change"}, {"time": 3596, "annotation": {"number": 64, "value": 71}, "group": "control_change"}, {"time": 3597, "annotation": {"number": 64, "value": 0}, "group": "control_change"}, {"time": 3599, "annotation": {"number": 64, "value": 71}, "group": "control_change"}, {"time": 3599, "annotation": {"number": 64, "value": 127}, "group": "control_change"}, {"time": 3620, "annotation": {"number": 64, "value": 71}, "group": "control_change"}, {"time": 3620, "annotation": {"number": 64, "value": 78}, "group": "control_change"}, {"time": 3620, "annotation": {"number": 64, "value": 0}, "group": "control_change"}, {"time": 3623, "annotation": {"number": 64, "value": 71}, "group": "control_change"}, {"time": 3623, "annotation": {"number": 64, "value": 127}, "group": "control_change"}, {"time": 3667, "annotation": {"number": 64, "value": 71}, "group": "control_change"}, {"time": 3668, "annotation": {"number": 64, "value": 0}, "group": "control_change"}, {"time": 3671, "annotation": {"number": 64, "value": 71}, "group": "control_change"}, {"time": 3672, "annotation": {"number": 64, "value": 127}, "group": "control_change"}, {"time": 3692, "annotation": {"number": 64, "value": 71}, "group": "control_change"}, {"time": 3692, "annotation": {"number": 64, "value": 0}, "group": "control_change"}, {"time": 3694, "annotation": {"number": 64, "value": 71}, "group": "control_change"}, {"time": 3695, "annotation": {"number": 64, "value": 127}, "group": "control_change"}, {"time": 3710, "annotation": {"number": 64, "value": 77}, "group": "control_change"}, {"time": 3716, "annotation": {"number": 64, "value": 71}, "group": "control_change"}, {"time": 3716, "annotation": {"number": 64, "value": 0}, "group": "control_change"}, {"time": 3720, "annotation": {"number": 64, "value": 71}, "group": "control_change"}, {"time": 3720, "annotation": {"number": 64, "value": 127}, "group": "control_change"}, {"time": 3740, "annotation": {"number": 64, "value": 71}, "group": "control_change"}, {"time": 3740, "annotation": {"number": 64, "value": 0}, "group": "control_change"}, {"time": 3742, "annotation": {"number": 64, "value": 71}, "group": "control_change"}, {"time": 3743, "annotation": {"number": 64, "value": 127}, "group": "control_change"}, {"time": 3764, "annotation": {"number": 64, "value": 71}, "group": "control_change"}, {"time": 3764, "annotation": {"number": 64, "value": 0}, "group": "control_change"}, {"time": 3766, "annotation": {"number": 64, "value": 71}, "group": "control_change"}, {"time": 3766, "annotation": {"number": 64, "value": 127}, "group": "control_change"}, {"time": 3788, "annotation": {"number": 64, "value": 71}, "group": "control_change"}, {"time": 3788, "annotation": {"number": 64, "value": 0}, "group": "control_change"}, {"time": 3790, "annotation": {"number": 64, "value": 71}, "group": "control_change"}, {"time": 3791, "annotation": {"number": 64, "value": 127}, "group": "control_change"}, {"time": 3800, "annotation": {"number": 64, "value": 76}, "group": "control_change"}, {"time": 3812, "annotation": {"number": 64, "value": 71}, "group": "control_change"}, {"time": 3812, "annotation": {"number": 64, "value": 0}, "group": "control_change"}, {"time": 3815, "annotation": {"number": 64, "value": 71}, "group": "control_change"}, {"time": 3815, "annotation": {"number": 64, "value": 127}, "group": "control_change"}, {"time": 3859, "annotation": {"number": 64, "value": 71}, "group": "control_change"}, {"time": 3860, "annotation": {"number": 64, "value": 0}, "group": "control_change"}, {"time": 3863, "annotation": {"number": 64, "value": 71}, "group": "control_change"}, {"time": 3863, "annotation": {"number": 64, "value": 127}, "group": "control_change"}, {"time": 3884, "annotation": {"number": 64, "value": 44}, "group": "control_change"}, {"time": 3896, "annotation": {"number": 64, "value": 36}, "group": "control_change"}, {"time": 3908, "annotation": {"number": 64, "value": 23}, "group": "control_change"}, {"time": 3925, "annotation": {"number": 64, "value": 71}, "group": "control_change"}, {"time": 3925, "annotation": {"number": 64, "value": 0}, "group": "control_change"}, {"time": 3936, "annotation": {"number": 64, "value": 0}, "group": "control_change"}]}]}