{"metadata": {"schema_version": "0.2", "title": "None", "source_filename": "036.mid", "source_format": "midi"}, "resolution": 12, "tempos": [{"time": 0, "qpm": 123.99999173333389}], "time_signatures": [{"time": 0, "numerator": 1, "denominator": 4}], "tracks": [{"program": 0, "is_drum": false, "name": "MELODY", "notes": [{"time": 497, "pitch": 79, "duration": 4, "velocity": 98}, {"time": 503, "pitch": 79, "duration": 7, "velocity": 79}, {"time": 515, "pitch": 79, "duration": 3, "velocity": 93}, {"time": 521, "pitch": 86, "duration": 3, "velocity": 93}, {"time": 527, "pitch": 84, "duration": 3, "velocity": 90}, {"time": 533, "pitch": 82, "duration": 3, "velocity": 87}, {"time": 539, "pitch": 84, "duration": 3, "velocity": 95}, {"time": 545, "pitch": 86, "duration": 20, "velocity": 112}, {"time": 593, "pitch": 89, "duration": 4, "velocity": 120}, {"time": 599, "pitch": 86, "duration": 3, "velocity": 79}, {"time": 605, "pitch": 86, "duration": 3, "velocity": 104}, {"time": 611, "pitch": 84, "duration": 3, "velocity": 87}, {"time": 617, "pitch": 82, "duration": 8, "velocity": 87}, {"time": 629, "pitch": 86, "duration": 8, "velocity": 111}, {"time": 641, "pitch": 84, "duration": 13, "velocity": 114}, {"time": 689, "pitch": 79, "duration": 13, "velocity": 104}, {"time": 707, "pitch": 82, "duration": 4, "velocity": 108}, {"time": 713, "pitch": 79, "duration": 8, "velocity": 104}, {"time": 725, "pitch": 84, "duration": 9, "velocity": 104}, {"time": 737, "pitch": 79, "duration": 10, "velocity": 114}, {"time": 749, "pitch": 84, "duration": 8, "velocity": 104}, {"time": 761, "pitch": 79, "duration": 15, "velocity": 114}, {"time": 785, "pitch": 81, "duration": 3, "velocity": 108}, {"time": 791, "pitch": 81, "duration": 3, "velocity": 95}, {"time": 797, "pitch": 81, "duration": 3, "velocity": 108}, {"time": 803, "pitch": 79, "duration": 3, "velocity": 104}, {"time": 809, "pitch": 77, "duration": 8, "velocity": 108}, {"time": 821, "pitch": 74, "duration": 9, "velocity": 111}, {"time": 833, "pitch": 79, "duration": 19, "velocity": 117}, {"time": 881, "pitch": 79, "duration": 4, "velocity": 98}, {"time": 887, "pitch": 79, "duration": 7, "velocity": 79}, {"time": 899, "pitch": 79, "duration": 3, "velocity": 93}, {"time": 905, "pitch": 86, "duration": 3, "velocity": 93}, {"time": 911, "pitch": 84, "duration": 3, "velocity": 90}, {"time": 917, "pitch": 82, "duration": 3, "velocity": 87}, {"time": 923, "pitch": 84, "duration": 3, "velocity": 95}, {"time": 929, "pitch": 86, "duration": 32, "velocity": 112}, {"time": 977, "pitch": 89, "duration": 4, "velocity": 120}, {"time": 983, "pitch": 86, "duration": 3, "velocity": 79}, {"time": 989, "pitch": 86, "duration": 3, "velocity": 104}, {"time": 995, "pitch": 84, "duration": 3, "velocity": 87}, {"time": 1001, "pitch": 82, "duration": 8, "velocity": 87}, {"time": 1013, "pitch": 86, "duration": 8, "velocity": 111}, {"time": 1025, "pitch": 84, "duration": 13, "velocity": 114}, {"time": 1073, "pitch": 79, "duration": 13, "velocity": 104}, {"time": 1091, "pitch": 82, "duration": 4, "velocity": 108}, {"time": 1097, "pitch": 79, "duration": 8, "velocity": 104}, {"time": 1109, "pitch": 84, "duration": 9, "velocity": 104}, {"time": 1121, "pitch": 79, "duration": 10, "velocity": 114}, {"time": 1133, "pitch": 84, "duration": 8, "velocity": 104}, {"time": 1145, "pitch": 79, "duration": 15, "velocity": 114}, {"time": 1169, "pitch": 81, "duration": 3, "velocity": 108}, {"time": 1175, "pitch": 81, "duration": 3, "velocity": 95}, {"time": 1181, "pitch": 81, "duration": 3, "velocity": 108}, {"time": 1187, "pitch": 79, "duration": 3, "velocity": 104}, {"time": 1193, "pitch": 77, "duration": 8, "velocity": 108}, {"time": 1205, "pitch": 74, "duration": 9, "velocity": 111}, {"time": 1217, "pitch": 79, "duration": 19, "velocity": 117}, {"time": 1457, "pitch": 79, "duration": 4, "velocity": 98}, {"time": 1463, "pitch": 79, "duration": 7, "velocity": 79}, {"time": 1475, "pitch": 79, "duration": 3, "velocity": 93}, {"time": 1481, "pitch": 86, "duration": 3, "velocity": 93}, {"time": 1487, "pitch": 84, "duration": 3, "velocity": 90}, {"time": 1493, "pitch": 82, "duration": 3, "velocity": 87}, {"time": 1499, "pitch": 84, "duration": 3, "velocity": 95}, {"time": 1505, "pitch": 86, "duration": 20, "velocity": 112}, {"time": 1553, "pitch": 89, "duration": 4, "velocity": 120}, {"time": 1559, "pitch": 86, "duration": 3, "velocity": 79}, {"time": 1565, "pitch": 86, "duration": 3, "velocity": 104}, {"time": 1571, "pitch": 84, "duration": 3, "velocity": 87}, {"time": 1577, "pitch": 82, "duration": 8, "velocity": 87}, {"time": 1589, "pitch": 86, "duration": 8, "velocity": 111}, {"time": 1601, "pitch": 84, "duration": 13, "velocity": 114}, {"time": 1649, "pitch": 79, "duration": 13, "velocity": 104}, {"time": 1667, "pitch": 82, "duration": 4, "velocity": 108}, {"time": 1673, "pitch": 79, "duration": 8, "velocity": 104}, {"time": 1685, "pitch": 84, "duration": 9, "velocity": 104}, {"time": 1697, "pitch": 79, "duration": 10, "velocity": 114}, {"time": 1709, "pitch": 84, "duration": 8, "velocity": 104}, {"time": 1721, "pitch": 79, "duration": 15, "velocity": 114}, {"time": 1745, "pitch": 81, "duration": 3, "velocity": 108}, {"time": 1751, "pitch": 81, "duration": 3, "velocity": 95}, {"time": 1757, "pitch": 81, "duration": 3, "velocity": 108}, {"time": 1763, "pitch": 79, "duration": 3, "velocity": 104}, {"time": 1769, "pitch": 77, "duration": 8, "velocity": 108}, {"time": 1781, "pitch": 74, "duration": 9, "velocity": 111}, {"time": 1793, "pitch": 79, "duration": 19, "velocity": 117}, {"time": 1841, "pitch": 79, "duration": 4, "velocity": 98}, {"time": 1847, "pitch": 79, "duration": 5, "velocity": 79}, {"time": 1847, "pitch": 79, "duration": 5, "velocity": 93}, {"time": 1859, "pitch": 79, "duration": 3, "velocity": 93}, {"time": 1865, "pitch": 86, "duration": 3, "velocity": 93}, {"time": 1871, "pitch": 84, "duration": 3, "velocity": 90}, {"time": 1877, "pitch": 82, "duration": 3, "velocity": 87}, {"time": 1883, "pitch": 84, "duration": 3, "velocity": 95}, {"time": 1889, "pitch": 86, "duration": 20, "velocity": 112}, {"time": 1937, "pitch": 89, "duration": 4, "velocity": 120}, {"time": 1943, "pitch": 86, "duration": 3, "velocity": 79}, {"time": 1949, "pitch": 86, "duration": 3, "velocity": 104}, {"time": 1955, "pitch": 84, "duration": 3, "velocity": 87}, {"time": 1961, "pitch": 82, "duration": 8, "velocity": 87}, {"time": 1973, "pitch": 86, "duration": 8, "velocity": 111}, {"time": 1985, "pitch": 84, "duration": 13, "velocity": 114}, {"time": 2033, "pitch": 79, "duration": 13, "velocity": 104}, {"time": 2051, "pitch": 82, "duration": 4, "velocity": 108}, {"time": 2057, "pitch": 79, "duration": 8, "velocity": 104}, {"time": 2069, "pitch": 84, "duration": 9, "velocity": 104}, {"time": 2081, "pitch": 79, "duration": 6, "velocity": 90}, {"time": 2081, "pitch": 79, "duration": 6, "velocity": 114}, {"time": 2087, "pitch": 82, "duration": 3, "velocity": 95}, {"time": 2093, "pitch": 84, "duration": 8, "velocity": 104}, {"time": 2105, "pitch": 79, "duration": 15, "velocity": 114}, {"time": 2129, "pitch": 81, "duration": 3, "velocity": 108}, {"time": 2135, "pitch": 81, "duration": 3, "velocity": 95}, {"time": 2141, "pitch": 81, "duration": 3, "velocity": 108}, {"time": 2147, "pitch": 82, "duration": 3, "velocity": 79}, {"time": 2153, "pitch": 84, "duration": 9, "velocity": 120}, {"time": 2165, "pitch": 74, "duration": 9, "velocity": 111}, {"time": 2177, "pitch": 79, "duration": 19, "velocity": 117}, {"time": 2609, "pitch": 79, "duration": 4, "velocity": 98}, {"time": 2615, "pitch": 79, "duration": 7, "velocity": 79}, {"time": 2627, "pitch": 79, "duration": 3, "velocity": 93}, {"time": 2633, "pitch": 86, "duration": 3, "velocity": 93}, {"time": 2639, "pitch": 84, "duration": 3, "velocity": 90}, {"time": 2645, "pitch": 82, "duration": 3, "velocity": 87}, {"time": 2651, "pitch": 84, "duration": 3, "velocity": 95}, {"time": 2657, "pitch": 86, "duration": 20, "velocity": 112}, {"time": 2705, "pitch": 89, "duration": 4, "velocity": 120}, {"time": 2711, "pitch": 86, "duration": 3, "velocity": 79}, {"time": 2717, "pitch": 86, "duration": 3, "velocity": 104}, {"time": 2723, "pitch": 84, "duration": 3, "velocity": 87}, {"time": 2729, "pitch": 82, "duration": 8, "velocity": 87}, {"time": 2741, "pitch": 86, "duration": 8, "velocity": 111}, {"time": 2753, "pitch": 84, "duration": 13, "velocity": 114}, {"time": 2801, "pitch": 79, "duration": 13, "velocity": 104}, {"time": 2819, "pitch": 82, "duration": 4, "velocity": 108}, {"time": 2825, "pitch": 79, "duration": 8, "velocity": 104}, {"time": 2837, "pitch": 84, "duration": 9, "velocity": 104}, {"time": 2849, "pitch": 79, "duration": 10, "velocity": 114}, {"time": 2861, "pitch": 84, "duration": 8, "velocity": 104}, {"time": 2873, "pitch": 79, "duration": 15, "velocity": 114}, {"time": 2897, "pitch": 81, "duration": 3, "velocity": 108}, {"time": 2903, "pitch": 81, "duration": 3, "velocity": 95}, {"time": 2909, "pitch": 81, "duration": 3, "velocity": 108}, {"time": 2915, "pitch": 79, "duration": 3, "velocity": 104}, {"time": 2921, "pitch": 77, "duration": 8, "velocity": 108}, {"time": 2933, "pitch": 74, "duration": 9, "velocity": 111}, {"time": 2945, "pitch": 79, "duration": 19, "velocity": 117}, {"time": 2993, "pitch": 79, "duration": 4, "velocity": 98}, {"time": 2999, "pitch": 79, "duration": 5, "velocity": 79}, {"time": 2999, "pitch": 79, "duration": 5, "velocity": 93}, {"time": 3011, "pitch": 79, "duration": 3, "velocity": 93}, {"time": 3017, "pitch": 86, "duration": 3, "velocity": 93}, {"time": 3023, "pitch": 84, "duration": 3, "velocity": 90}, {"time": 3029, "pitch": 82, "duration": 3, "velocity": 87}, {"time": 3035, "pitch": 84, "duration": 3, "velocity": 95}, {"time": 3041, "pitch": 86, "duration": 20, "velocity": 112}, {"time": 3089, "pitch": 89, "duration": 4, "velocity": 120}, {"time": 3095, "pitch": 86, "duration": 3, "velocity": 79}, {"time": 3101, "pitch": 86, "duration": 3, "velocity": 104}, {"time": 3107, "pitch": 84, "duration": 3, "velocity": 87}, {"time": 3113, "pitch": 82, "duration": 8, "velocity": 87}, {"time": 3125, "pitch": 86, "duration": 8, "velocity": 111}, {"time": 3137, "pitch": 84, "duration": 13, "velocity": 114}, {"time": 3185, "pitch": 79, "duration": 13, "velocity": 104}, {"time": 3203, "pitch": 82, "duration": 4, "velocity": 108}, {"time": 3209, "pitch": 79, "duration": 8, "velocity": 104}, {"time": 3221, "pitch": 84, "duration": 9, "velocity": 104}, {"time": 3233, "pitch": 79, "duration": 6, "velocity": 90}, {"time": 3233, "pitch": 79, "duration": 6, "velocity": 114}, {"time": 3239, "pitch": 82, "duration": 3, "velocity": 95}, {"time": 3245, "pitch": 84, "duration": 8, "velocity": 104}, {"time": 3257, "pitch": 79, "duration": 15, "velocity": 114}, {"time": 3281, "pitch": 81, "duration": 3, "velocity": 108}, {"time": 3287, "pitch": 81, "duration": 3, "velocity": 95}, {"time": 3293, "pitch": 81, "duration": 3, "velocity": 108}, {"time": 3299, "pitch": 82, "duration": 3, "velocity": 79}, {"time": 3305, "pitch": 84, "duration": 9, "velocity": 120}, {"time": 3317, "pitch": 74, "duration": 9, "velocity": 111}, {"time": 3329, "pitch": 79, "duration": 19, "velocity": 117}, {"time": 3569, "pitch": 79, "duration": 4, "velocity": 98}, {"time": 3575, "pitch": 79, "duration": 7, "velocity": 79}, {"time": 3587, "pitch": 79, "duration": 3, "velocity": 93}, {"time": 3593, "pitch": 86, "duration": 3, "velocity": 93}, {"time": 3599, "pitch": 84, "duration": 3, "velocity": 90}, {"time": 3605, "pitch": 82, "duration": 3, "velocity": 87}, {"time": 3611, "pitch": 84, "duration": 3, "velocity": 95}, {"time": 3617, "pitch": 86, "duration": 20, "velocity": 112}, {"time": 3665, "pitch": 89, "duration": 4, "velocity": 120}, {"time": 3671, "pitch": 86, "duration": 3, "velocity": 79}, {"time": 3677, "pitch": 86, "duration": 3, "velocity": 104}, {"time": 3683, "pitch": 84, "duration": 3, "velocity": 87}, {"time": 3689, "pitch": 82, "duration": 8, "velocity": 87}, {"time": 3701, "pitch": 86, "duration": 8, "velocity": 111}, {"time": 3713, "pitch": 84, "duration": 13, "velocity": 114}, {"time": 3761, "pitch": 79, "duration": 13, "velocity": 104}, {"time": 3779, "pitch": 82, "duration": 4, "velocity": 108}, {"time": 3785, "pitch": 79, "duration": 8, "velocity": 104}, {"time": 3797, "pitch": 84, "duration": 9, "velocity": 104}, {"time": 3809, "pitch": 79, "duration": 10, "velocity": 114}, {"time": 3821, "pitch": 84, "duration": 8, "velocity": 104}, {"time": 3833, "pitch": 79, "duration": 15, "velocity": 114}, {"time": 3857, "pitch": 81, "duration": 3, "velocity": 108}, {"time": 3863, "pitch": 81, "duration": 3, "velocity": 95}, {"time": 3869, "pitch": 81, "duration": 3, "velocity": 108}, {"time": 3875, "pitch": 79, "duration": 3, "velocity": 104}, {"time": 3881, "pitch": 77, "duration": 8, "velocity": 108}, {"time": 3893, "pitch": 74, "duration": 9, "velocity": 111}, {"time": 3905, "pitch": 79, "duration": 19, "velocity": 117}, {"time": 3953, "pitch": 79, "duration": 4, "velocity": 98}, {"time": 3959, "pitch": 79, "duration": 5, "velocity": 79}, {"time": 3959, "pitch": 79, "duration": 5, "velocity": 93}, {"time": 3971, "pitch": 79, "duration": 3, "velocity": 93}, {"time": 3977, "pitch": 86, "duration": 3, "velocity": 93}, {"time": 3983, "pitch": 84, "duration": 3, "velocity": 90}, {"time": 3989, "pitch": 82, "duration": 3, "velocity": 87}, {"time": 3995, "pitch": 84, "duration": 3, "velocity": 95}, {"time": 4001, "pitch": 86, "duration": 20, "velocity": 112}, {"time": 4049, "pitch": 89, "duration": 4, "velocity": 120}, {"time": 4055, "pitch": 86, "duration": 3, "velocity": 79}, {"time": 4061, "pitch": 86, "duration": 3, "velocity": 104}, {"time": 4067, "pitch": 84, "duration": 3, "velocity": 87}, {"time": 4073, "pitch": 82, "duration": 8, "velocity": 87}, {"time": 4085, "pitch": 86, "duration": 8, "velocity": 111}, {"time": 4097, "pitch": 84, "duration": 13, "velocity": 114}, {"time": 4145, "pitch": 79, "duration": 13, "velocity": 104}, {"time": 4163, "pitch": 82, "duration": 4, "velocity": 108}, {"time": 4169, "pitch": 79, "duration": 8, "velocity": 104}, {"time": 4181, "pitch": 84, "duration": 9, "velocity": 104}, {"time": 4193, "pitch": 79, "duration": 6, "velocity": 90}, {"time": 4193, "pitch": 79, "duration": 6, "velocity": 114}, {"time": 4199, "pitch": 82, "duration": 3, "velocity": 95}, {"time": 4205, "pitch": 84, "duration": 8, "velocity": 104}, {"time": 4217, "pitch": 79, "duration": 15, "velocity": 114}, {"time": 4241, "pitch": 81, "duration": 3, "velocity": 108}, {"time": 4247, "pitch": 81, "duration": 3, "velocity": 95}, {"time": 4253, "pitch": 81, "duration": 3, "velocity": 108}, {"time": 4259, "pitch": 82, "duration": 3, "velocity": 79}, {"time": 4265, "pitch": 84, "duration": 9, "velocity": 120}, {"time": 4277, "pitch": 74, "duration": 9, "velocity": 111}, {"time": 4289, "pitch": 79, "duration": 19, "velocity": 117}, {"time": 4337, "pitch": 79, "duration": 13, "velocity": 104}, {"time": 4355, "pitch": 82, "duration": 4, "velocity": 108}, {"time": 4361, "pitch": 79, "duration": 8, "velocity": 104}, {"time": 4373, "pitch": 84, "duration": 9, "velocity": 104}, {"time": 4385, "pitch": 79, "duration": 6, "velocity": 90}, {"time": 4385, "pitch": 79, "duration": 6, "velocity": 114}, {"time": 4391, "pitch": 82, "duration": 3, "velocity": 95}, {"time": 4397, "pitch": 84, "duration": 8, "velocity": 104}, {"time": 4409, "pitch": 79, "duration": 15, "velocity": 114}, {"time": 4433, "pitch": 81, "duration": 3, "velocity": 108}, {"time": 4439, "pitch": 81, "duration": 3, "velocity": 95}, {"time": 4445, "pitch": 81, "duration": 3, "velocity": 108}, {"time": 4451, "pitch": 82, "duration": 3, "velocity": 79}, {"time": 4457, "pitch": 84, "duration": 9, "velocity": 120}, {"time": 4469, "pitch": 89, "duration": 9, "velocity": 111}, {"time": 4481, "pitch": 91, "duration": 19, "velocity": 117}], "annotations": [{"time": 65, "annotation": {"number": 64, "value": 70}, "group": "control_change"}, {"time": 137, "annotation": {"number": 64, "value": 71}, "group": "control_change"}, {"time": 209, "annotation": {"number": 64, "value": 72}, "group": "control_change"}, {"time": 257, "annotation": {"number": 64, "value": 73}, "group": "control_change"}, {"time": 293, "annotation": {"number": 64, "value": 74}, "group": "control_change"}]}, {"program": 0, "is_drum": false, "name": "PIANO", "notes": [{"time": 17, "pitch": 43, "duration": 7, "velocity": 83}, {"time": 17, "pitch": 55, "duration": 7, "velocity": 61}, {"time": 17, "pitch": 58, "duration": 7, "velocity": 66}, {"time": 17, "pitch": 62, "duration": 6, "velocity": 68}, {"time": 35, "pitch": 43, "duration": 4, "velocity": 77}, {"time": 35, "pitch": 55, "duration": 3, "velocity": 59}, {"time": 35, "pitch": 58, "duration": 3, "velocity": 64}, {"time": 35, "pitch": 62, "duration": 3, "velocity": 67}, {"time": 41, "pitch": 43, "duration": 4, "velocity": 68}, {"time": 41, "pitch": 55, "duration": 3, "velocity": 70}, {"time": 41, "pitch": 58, "duration": 3, "velocity": 74}, {"time": 41, "pitch": 62, "duration": 3, "velocity": 74}, {"time": 65, "pitch": 43, "duration": 4, "velocity": 81}, {"time": 65, "pitch": 55, "duration": 3, "velocity": 65}, {"time": 65, "pitch": 58, "duration": 3, "velocity": 64}, {"time": 65, "pitch": 62, "duration": 3, "velocity": 70}, {"time": 83, "pitch": 43, "duration": 4, "velocity": 79}, {"time": 83, "pitch": 55, "duration": 2, "velocity": 63}, {"time": 83, "pitch": 58, "duration": 3, "velocity": 67}, {"time": 83, "pitch": 62, "duration": 2, "velocity": 69}, {"time": 89, "pitch": 43, "duration": 8, "velocity": 74}, {"time": 89, "pitch": 55, "duration": 7, "velocity": 73}, {"time": 89, "pitch": 58, "duration": 7, "velocity": 83}, {"time": 89, "pitch": 62, "duration": 7, "velocity": 85}, {"time": 113, "pitch": 43, "duration": 17, "velocity": 70}, {"time": 113, "pitch": 55, "duration": 15, "velocity": 72}, {"time": 113, "pitch": 58, "duration": 15, "velocity": 71}, {"time": 113, "pitch": 62, "duration": 15, "velocity": 72}, {"time": 131, "pitch": 38, "duration": 4, "velocity": 77}, {"time": 131, "pitch": 55, "duration": 2, "velocity": 71}, {"time": 131, "pitch": 58, "duration": 2, "velocity": 77}, {"time": 131, "pitch": 62, "duration": 2, "velocity": 77}, {"time": 137, "pitch": 38, "duration": 14, "velocity": 100}, {"time": 137, "pitch": 55, "duration": 14, "velocity": 76}, {"time": 137, "pitch": 58, "duration": 14, "velocity": 79}, {"time": 137, "pitch": 62, "duration": 14, "velocity": 83}, {"time": 155, "pitch": 55, "duration": 7, "velocity": 75}, {"time": 155, "pitch": 58, "duration": 7, "velocity": 75}, {"time": 155, "pitch": 62, "duration": 7, "velocity": 81}, {"time": 161, "pitch": 46, "duration": 38, "velocity": 104}, {"time": 161, "pitch": 58, "duration": 1, "velocity": 76}, {"time": 161, "pitch": 62, "duration": 1, "velocity": 73}, {"time": 161, "pitch": 65, "duration": 14, "velocity": 79}, {"time": 179, "pitch": 41, "duration": 3, "velocity": 93}, {"time": 179, "pitch": 58, "duration": 2, "velocity": 73}, {"time": 179, "pitch": 62, "duration": 2, "velocity": 79}, {"time": 179, "pitch": 65, "duration": 2, "velocity": 79}, {"time": 185, "pitch": 41, "duration": 14, "velocity": 87}, {"time": 185, "pitch": 58, "duration": 14, "velocity": 79}, {"time": 185, "pitch": 62, "duration": 14, "velocity": 87}, {"time": 185, "pitch": 65, "duration": 14, "velocity": 87}, {"time": 209, "pitch": 41, "duration": 13, "velocity": 111}, {"time": 221, "pitch": 53, "duration": 3, "velocity": 81}, {"time": 221, "pitch": 57, "duration": 3, "velocity": 69}, {"time": 221, "pitch": 60, "duration": 3, "velocity": 74}, {"time": 227, "pitch": 36, "duration": 3, "velocity": 100}, {"time": 233, "pitch": 36, "duration": 11, "velocity": 121}, {"time": 246, "pitch": 53, "duration": 7, "velocity": 87}, {"time": 246, "pitch": 57, "duration": 7, "velocity": 87}, {"time": 246, "pitch": 60, "duration": 7, "velocity": 90}, {"time": 257, "pitch": 39, "duration": 14, "velocity": 81}, {"time": 269, "pitch": 51, "duration": 4, "velocity": 81}, {"time": 269, "pitch": 55, "duration": 4, "velocity": 77}, {"time": 269, "pitch": 58, "duration": 4, "velocity": 79}, {"time": 275, "pitch": 39, "duration": 3, "velocity": 122}, {"time": 281, "pitch": 39, "duration": 11, "velocity": 123}, {"time": 281, "pitch": 51, "duration": 9, "velocity": 86}, {"time": 281, "pitch": 55, "duration": 8, "velocity": 85}, {"time": 281, "pitch": 58, "duration": 8, "velocity": 90}, {"time": 305, "pitch": 43, "duration": 14, "velocity": 104}, {"time": 317, "pitch": 58, "duration": 20, "velocity": 79}, {"time": 317, "pitch": 62, "duration": 20, "velocity": 90}, {"time": 317, "pitch": 67, "duration": 20, "velocity": 87}, {"time": 323, "pitch": 43, "duration": 3, "velocity": 111}, {"time": 329, "pitch": 43, "duration": 12, "velocity": 95}, {"time": 341, "pitch": 58, "duration": 14, "velocity": 87}, {"time": 341, "pitch": 62, "duration": 14, "velocity": 90}, {"time": 341, "pitch": 67, "duration": 13, "velocity": 87}, {"time": 353, "pitch": 46, "duration": 14, "velocity": 108}, {"time": 365, "pitch": 58, "duration": 11, "velocity": 77}, {"time": 365, "pitch": 62, "duration": 10, "velocity": 83}, {"time": 365, "pitch": 65, "duration": 12, "velocity": 87}, {"time": 371, "pitch": 46, "duration": 3, "velocity": 120}, {"time": 377, "pitch": 46, "duration": 12, "velocity": 83}, {"time": 389, "pitch": 58, "duration": 13, "velocity": 85}, {"time": 389, "pitch": 62, "duration": 13, "velocity": 87}, {"time": 389, "pitch": 65, "duration": 13, "velocity": 90}, {"time": 401, "pitch": 41, "duration": 14, "velocity": 100}, {"time": 413, "pitch": 53, "duration": 7, "velocity": 74}, {"time": 413, "pitch": 57, "duration": 7, "velocity": 73}, {"time": 413, "pitch": 60, "duration": 7, "velocity": 73}, {"time": 419, "pitch": 41, "duration": 3, "velocity": 108}, {"time": 425, "pitch": 41, "duration": 15, "velocity": 108}, {"time": 437, "pitch": 53, "duration": 13, "velocity": 104}, {"time": 437, "pitch": 57, "duration": 12, "velocity": 90}, {"time": 437, "pitch": 60, "duration": 12, "velocity": 85}, {"time": 449, "pitch": 43, "duration": 8, "velocity": 100}, {"time": 449, "pitch": 55, "duration": 7, "velocity": 86}, {"time": 449, "pitch": 58, "duration": 7, "velocity": 87}, {"time": 449, "pitch": 62, "duration": 7, "velocity": 86}, {"time": 461, "pitch": 41, "duration": 8, "velocity": 98}, {"time": 461, "pitch": 53, "duration": 7, "velocity": 93}, {"time": 461, "pitch": 57, "duration": 7, "velocity": 86}, {"time": 461, "pitch": 60, "duration": 6, "velocity": 81}, {"time": 473, "pitch": 43, "duration": 13, "velocity": 87}, {"time": 473, "pitch": 55, "duration": 13, "velocity": 76}, {"time": 473, "pitch": 58, "duration": 13, "velocity": 83}, {"time": 473, "pitch": 62, "duration": 12, "velocity": 85}, {"time": 497, "pitch": 43, "duration": 13, "velocity": 93}, {"time": 509, "pitch": 55, "duration": 20, "velocity": 69}, {"time": 509, "pitch": 58, "duration": 20, "velocity": 76}, {"time": 509, "pitch": 62, "duration": 20, "velocity": 79}, {"time": 515, "pitch": 43, "duration": 3, "velocity": 104}, {"time": 521, "pitch": 43, "duration": 13, "velocity": 95}, {"time": 533, "pitch": 55, "duration": 13, "velocity": 86}, {"time": 533, "pitch": 58, "duration": 13, "velocity": 93}, {"time": 533, "pitch": 62, "duration": 13, "velocity": 85}, {"time": 545, "pitch": 43, "duration": 14, "velocity": 83}, {"time": 557, "pitch": 55, "duration": 20, "velocity": 81}, {"time": 557, "pitch": 58, "duration": 19, "velocity": 83}, {"time": 557, "pitch": 62, "duration": 20, "velocity": 86}, {"time": 563, "pitch": 43, "duration": 3, "velocity": 104}, {"time": 569, "pitch": 43, "duration": 14, "velocity": 98}, {"time": 581, "pitch": 55, "duration": 13, "velocity": 85}, {"time": 581, "pitch": 58, "duration": 13, "velocity": 86}, {"time": 581, "pitch": 62, "duration": 13, "velocity": 90}, {"time": 593, "pitch": 46, "duration": 13, "velocity": 95}, {"time": 605, "pitch": 58, "duration": 20, "velocity": 86}, {"time": 605, "pitch": 62, "duration": 20, "velocity": 90}, {"time": 605, "pitch": 65, "duration": 20, "velocity": 95}, {"time": 611, "pitch": 46, "duration": 3, "velocity": 98}, {"time": 617, "pitch": 46, "duration": 13, "velocity": 104}, {"time": 629, "pitch": 58, "duration": 14, "velocity": 95}, {"time": 629, "pitch": 62, "duration": 13, "velocity": 95}, {"time": 629, "pitch": 65, "duration": 14, "velocity": 98}, {"time": 641, "pitch": 48, "duration": 13, "velocity": 87}, {"time": 653, "pitch": 60, "duration": 14, "velocity": 81}, {"time": 653, "pitch": 63, "duration": 13, "velocity": 87}, {"time": 653, "pitch": 67, "duration": 14, "velocity": 77}, {"time": 659, "pitch": 48, "duration": 3, "velocity": 111}, {"time": 665, "pitch": 48, "duration": 15, "velocity": 98}, {"time": 677, "pitch": 60, "duration": 12, "velocity": 86}, {"time": 677, "pitch": 63, "duration": 12, "velocity": 98}, {"time": 677, "pitch": 67, "duration": 12, "velocity": 87}, {"time": 689, "pitch": 43, "duration": 13, "velocity": 87}, {"time": 701, "pitch": 55, "duration": 12, "velocity": 73}, {"time": 701, "pitch": 58, "duration": 12, "velocity": 79}, {"time": 701, "pitch": 62, "duration": 12, "velocity": 74}, {"time": 707, "pitch": 43, "duration": 3, "velocity": 100}, {"time": 713, "pitch": 43, "duration": 12, "velocity": 90}, {"time": 725, "pitch": 55, "duration": 13, "velocity": 83}, {"time": 725, "pitch": 58, "duration": 13, "velocity": 90}, {"time": 725, "pitch": 62, "duration": 13, "velocity": 93}, {"time": 737, "pitch": 39, "duration": 14, "velocity": 108}, {"time": 749, "pitch": 51, "duration": 19, "velocity": 81}, {"time": 749, "pitch": 55, "duration": 19, "velocity": 76}, {"time": 749, "pitch": 58, "duration": 19, "velocity": 77}, {"time": 755, "pitch": 39, "duration": 3, "velocity": 108}, {"time": 761, "pitch": 39, "duration": 15, "velocity": 108}, {"time": 773, "pitch": 51, "duration": 6, "velocity": 81}, {"time": 773, "pitch": 55, "duration": 6, "velocity": 85}, {"time": 773, "pitch": 58, "duration": 6, "velocity": 79}, {"time": 785, "pitch": 41, "duration": 13, "velocity": 100}, {"time": 785, "pitch": 53, "duration": 13, "velocity": 87}, {"time": 785, "pitch": 57, "duration": 13, "velocity": 83}, {"time": 785, "pitch": 60, "duration": 13, "velocity": 79}, {"time": 803, "pitch": 41, "duration": 3, "velocity": 90}, {"time": 809, "pitch": 41, "duration": 14, "velocity": 77}, {"time": 809, "pitch": 53, "duration": 10, "velocity": 93}, {"time": 809, "pitch": 57, "duration": 10, "velocity": 87}, {"time": 809, "pitch": 60, "duration": 10, "velocity": 87}, {"time": 821, "pitch": 53, "duration": 5, "velocity": 93}, {"time": 821, "pitch": 57, "duration": 5, "velocity": 86}, {"time": 821, "pitch": 60, "duration": 5, "velocity": 86}, {"time": 833, "pitch": 43, "duration": 13, "velocity": 81}, {"time": 845, "pitch": 55, "duration": 10, "velocity": 68}, {"time": 845, "pitch": 58, "duration": 10, "velocity": 73}, {"time": 845, "pitch": 62, "duration": 10, "velocity": 71}, {"time": 851, "pitch": 43, "duration": 3, "velocity": 98}, {"time": 857, "pitch": 43, "duration": 20, "velocity": 57}, {"time": 857, "pitch": 55, "duration": 20, "velocity": 67}, {"time": 857, "pitch": 58, "duration": 20, "velocity": 74}, {"time": 857, "pitch": 62, "duration": 20, "velocity": 77}, {"time": 881, "pitch": 43, "duration": 13, "velocity": 93}, {"time": 893, "pitch": 55, "duration": 12, "velocity": 72}, {"time": 893, "pitch": 58, "duration": 11, "velocity": 74}, {"time": 893, "pitch": 62, "duration": 12, "velocity": 70}, {"time": 899, "pitch": 43, "duration": 3, "velocity": 95}, {"time": 905, "pitch": 43, "duration": 13, "velocity": 100}, {"time": 917, "pitch": 55, "duration": 12, "velocity": 79}, {"time": 917, "pitch": 58, "duration": 12, "velocity": 85}, {"time": 917, "pitch": 62, "duration": 12, "velocity": 83}, {"time": 929, "pitch": 46, "duration": 13, "velocity": 100}, {"time": 941, "pitch": 58, "duration": 21, "velocity": 83}, {"time": 941, "pitch": 62, "duration": 21, "velocity": 85}, {"time": 941, "pitch": 65, "duration": 21, "velocity": 83}, {"time": 947, "pitch": 46, "duration": 3, "velocity": 117}, {"time": 953, "pitch": 46, "duration": 16, "velocity": 114}, {"time": 965, "pitch": 58, "duration": 13, "velocity": 83}, {"time": 965, "pitch": 62, "duration": 13, "velocity": 93}, {"time": 965, "pitch": 65, "duration": 13, "velocity": 95}, {"time": 977, "pitch": 48, "duration": 13, "velocity": 87}, {"time": 989, "pitch": 60, "duration": 14, "velocity": 81}, {"time": 989, "pitch": 63, "duration": 13, "velocity": 90}, {"time": 989, "pitch": 67, "duration": 13, "velocity": 76}, {"time": 995, "pitch": 48, "duration": 3, "velocity": 98}, {"time": 1001, "pitch": 48, "duration": 12, "velocity": 104}, {"time": 1013, "pitch": 60, "duration": 11, "velocity": 86}, {"time": 1013, "pitch": 63, "duration": 11, "velocity": 87}, {"time": 1013, "pitch": 67, "duration": 12, "velocity": 79}, {"time": 1025, "pitch": 41, "duration": 14, "velocity": 86}, {"time": 1037, "pitch": 53, "duration": 8, "velocity": 83}, {"time": 1037, "pitch": 57, "duration": 8, "velocity": 76}, {"time": 1037, "pitch": 60, "duration": 8, "velocity": 76}, {"time": 1043, "pitch": 41, "duration": 3, "velocity": 104}, {"time": 1049, "pitch": 41, "duration": 13, "velocity": 95}, {"time": 1061, "pitch": 53, "duration": 13, "velocity": 100}, {"time": 1061, "pitch": 57, "duration": 12, "velocity": 87}, {"time": 1061, "pitch": 60, "duration": 12, "velocity": 79}, {"time": 1073, "pitch": 43, "duration": 13, "velocity": 108}, {"time": 1085, "pitch": 55, "duration": 21, "velocity": 63}, {"time": 1085, "pitch": 58, "duration": 21, "velocity": 79}, {"time": 1085, "pitch": 62, "duration": 21, "velocity": 79}, {"time": 1091, "pitch": 43, "duration": 3, "velocity": 111}, {"time": 1097, "pitch": 43, "duration": 10, "velocity": 93}, {"time": 1109, "pitch": 55, "duration": 12, "velocity": 77}, {"time": 1109, "pitch": 58, "duration": 11, "velocity": 83}, {"time": 1109, "pitch": 62, "duration": 11, "velocity": 79}, {"time": 1121, "pitch": 39, "duration": 11, "velocity": 85}, {"time": 1133, "pitch": 51, "duration": 17, "velocity": 79}, {"time": 1133, "pitch": 55, "duration": 16, "velocity": 83}, {"time": 1133, "pitch": 58, "duration": 15, "velocity": 85}, {"time": 1139, "pitch": 39, "duration": 3, "velocity": 98}, {"time": 1145, "pitch": 39, "duration": 13, "velocity": 100}, {"time": 1157, "pitch": 51, "duration": 4, "velocity": 86}, {"time": 1157, "pitch": 55, "duration": 4, "velocity": 77}, {"time": 1157, "pitch": 58, "duration": 4, "velocity": 75}, {"time": 1169, "pitch": 41, "duration": 13, "velocity": 86}, {"time": 1169, "pitch": 53, "duration": 14, "velocity": 100}, {"time": 1169, "pitch": 57, "duration": 14, "velocity": 90}, {"time": 1169, "pitch": 60, "duration": 13, "velocity": 90}, {"time": 1187, "pitch": 41, "duration": 4, "velocity": 85}, {"time": 1187, "pitch": 53, "duration": 3, "velocity": 100}, {"time": 1187, "pitch": 57, "duration": 3, "velocity": 86}, {"time": 1187, "pitch": 60, "duration": 2, "velocity": 85}, {"time": 1193, "pitch": 41, "duration": 14, "velocity": 76}, {"time": 1193, "pitch": 53, "duration": 10, "velocity": 95}, {"time": 1193, "pitch": 57, "duration": 11, "velocity": 86}, {"time": 1193, "pitch": 60, "duration": 10, "velocity": 87}, {"time": 1205, "pitch": 53, "duration": 2, "velocity": 63}, {"time": 1205, "pitch": 57, "duration": 2, "velocity": 65}, {"time": 1205, "pitch": 60, "duration": 2, "velocity": 68}, {"time": 1211, "pitch": 53, "duration": 7, "velocity": 95}, {"time": 1211, "pitch": 57, "duration": 7, "velocity": 86}, {"time": 1211, "pitch": 60, "duration": 7, "velocity": 90}, {"time": 1217, "pitch": 43, "duration": 13, "velocity": 98}, {"time": 1229, "pitch": 55, "duration": 8, "velocity": 76}, {"time": 1229, "pitch": 58, "duration": 7, "velocity": 73}, {"time": 1229, "pitch": 62, "duration": 7, "velocity": 79}, {"time": 1235, "pitch": 43, "duration": 3, "velocity": 87}, {"time": 1241, "pitch": 43, "duration": 15, "velocity": 81}, {"time": 1253, "pitch": 55, "duration": 13, "velocity": 85}, {"time": 1253, "pitch": 58, "duration": 13, "velocity": 86}, {"time": 1253, "pitch": 62, "duration": 12, "velocity": 90}, {"time": 1265, "pitch": 43, "duration": 14, "velocity": 95}, {"time": 1277, "pitch": 55, "duration": 21, "velocity": 79}, {"time": 1277, "pitch": 58, "duration": 21, "velocity": 83}, {"time": 1277, "pitch": 62, "duration": 21, "velocity": 93}, {"time": 1283, "pitch": 43, "duration": 3, "velocity": 86}, {"time": 1289, "pitch": 43, "duration": 13, "velocity": 98}, {"time": 1301, "pitch": 55, "duration": 10, "velocity": 83}, {"time": 1301, "pitch": 58, "duration": 10, "velocity": 87}, {"time": 1301, "pitch": 62, "duration": 10, "velocity": 83}, {"time": 1313, "pitch": 46, "duration": 14, "velocity": 86}, {"time": 1325, "pitch": 58, "duration": 21, "velocity": 74}, {"time": 1325, "pitch": 62, "duration": 20, "velocity": 77}, {"time": 1325, "pitch": 65, "duration": 20, "velocity": 85}, {"time": 1331, "pitch": 46, "duration": 3, "velocity": 87}, {"time": 1337, "pitch": 46, "duration": 14, "velocity": 95}, {"time": 1349, "pitch": 58, "duration": 12, "velocity": 81}, {"time": 1349, "pitch": 62, "duration": 12, "velocity": 86}, {"time": 1349, "pitch": 65, "duration": 12, "velocity": 98}, {"time": 1361, "pitch": 41, "duration": 14, "velocity": 111}, {"time": 1373, "pitch": 53, "duration": 20, "velocity": 87}, {"time": 1373, "pitch": 57, "duration": 20, "velocity": 83}, {"time": 1373, "pitch": 60, "duration": 20, "velocity": 81}, {"time": 1379, "pitch": 41, "duration": 3, "velocity": 98}, {"time": 1385, "pitch": 41, "duration": 18, "velocity": 112}, {"time": 1397, "pitch": 53, "duration": 7, "velocity": 108}, {"time": 1397, "pitch": 57, "duration": 7, "velocity": 93}, {"time": 1397, "pitch": 60, "duration": 7, "velocity": 93}, {"time": 1409, "pitch": 43, "duration": 5, "velocity": 79}, {"time": 1409, "pitch": 55, "duration": 5, "velocity": 85}, {"time": 1409, "pitch": 58, "duration": 5, "velocity": 87}, {"time": 1409, "pitch": 62, "duration": 4, "velocity": 90}, {"time": 1421, "pitch": 41, "duration": 7, "velocity": 87}, {"time": 1421, "pitch": 53, "duration": 6, "velocity": 114}, {"time": 1421, "pitch": 57, "duration": 6, "velocity": 98}, {"time": 1421, "pitch": 60, "duration": 5, "velocity": 90}, {"time": 1433, "pitch": 43, "duration": 24, "velocity": 83}, {"time": 1433, "pitch": 55, "duration": 24, "velocity": 77}, {"time": 1433, "pitch": 58, "duration": 23, "velocity": 86}, {"time": 1433, "pitch": 62, "duration": 23, "velocity": 90}, {"time": 1457, "pitch": 43, "duration": 13, "velocity": 93}, {"time": 1469, "pitch": 55, "duration": 20, "velocity": 69}, {"time": 1469, "pitch": 58, "duration": 20, "velocity": 76}, {"time": 1469, "pitch": 62, "duration": 20, "velocity": 79}, {"time": 1475, "pitch": 43, "duration": 3, "velocity": 104}, {"time": 1481, "pitch": 43, "duration": 13, "velocity": 95}, {"time": 1493, "pitch": 55, "duration": 13, "velocity": 86}, {"time": 1493, "pitch": 58, "duration": 13, "velocity": 93}, {"time": 1493, "pitch": 62, "duration": 13, "velocity": 85}, {"time": 1505, "pitch": 46, "duration": 14, "velocity": 108}, {"time": 1517, "pitch": 58, "duration": 20, "velocity": 79}, {"time": 1517, "pitch": 62, "duration": 20, "velocity": 83}, {"time": 1517, "pitch": 65, "duration": 20, "velocity": 85}, {"time": 1523, "pitch": 41, "duration": 3, "velocity": 76}, {"time": 1529, "pitch": 41, "duration": 14, "velocity": 81}, {"time": 1541, "pitch": 58, "duration": 9, "velocity": 75}, {"time": 1541, "pitch": 62, "duration": 9, "velocity": 83}, {"time": 1541, "pitch": 65, "duration": 9, "velocity": 79}, {"time": 1553, "pitch": 48, "duration": 14, "velocity": 79}, {"time": 1565, "pitch": 60, "duration": 10, "velocity": 60}, {"time": 1565, "pitch": 63, "duration": 10, "velocity": 67}, {"time": 1565, "pitch": 67, "duration": 10, "velocity": 63}, {"time": 1571, "pitch": 48, "duration": 3, "velocity": 87}, {"time": 1577, "pitch": 48, "duration": 11, "velocity": 87}, {"time": 1589, "pitch": 60, "duration": 13, "velocity": 74}, {"time": 1589, "pitch": 63, "duration": 12, "velocity": 75}, {"time": 1589, "pitch": 67, "duration": 12, "velocity": 74}, {"time": 1601, "pitch": 41, "duration": 14, "velocity": 77}, {"time": 1613, "pitch": 53, "duration": 20, "velocity": 75}, {"time": 1613, "pitch": 57, "duration": 21, "velocity": 64}, {"time": 1613, "pitch": 60, "duration": 21, "velocity": 67}, {"time": 1619, "pitch": 41, "duration": 3, "velocity": 100}, {"time": 1625, "pitch": 41, "duration": 15, "velocity": 87}, {"time": 1637, "pitch": 53, "duration": 12, "velocity": 98}, {"time": 1637, "pitch": 57, "duration": 12, "velocity": 86}, {"time": 1637, "pitch": 60, "duration": 12, "velocity": 83}, {"time": 1649, "pitch": 43, "duration": 13, "velocity": 87}, {"time": 1661, "pitch": 55, "duration": 12, "velocity": 73}, {"time": 1661, "pitch": 58, "duration": 12, "velocity": 79}, {"time": 1661, "pitch": 62, "duration": 12, "velocity": 74}, {"time": 1667, "pitch": 43, "duration": 3, "velocity": 100}, {"time": 1673, "pitch": 43, "duration": 12, "velocity": 90}, {"time": 1685, "pitch": 55, "duration": 13, "velocity": 83}, {"time": 1685, "pitch": 58, "duration": 13, "velocity": 90}, {"time": 1685, "pitch": 62, "duration": 13, "velocity": 93}, {"time": 1697, "pitch": 39, "duration": 14, "velocity": 108}, {"time": 1709, "pitch": 51, "duration": 19, "velocity": 81}, {"time": 1709, "pitch": 55, "duration": 19, "velocity": 76}, {"time": 1709, "pitch": 58, "duration": 19, "velocity": 77}, {"time": 1715, "pitch": 39, "duration": 3, "velocity": 108}, {"time": 1721, "pitch": 39, "duration": 15, "velocity": 108}, {"time": 1733, "pitch": 51, "duration": 6, "velocity": 81}, {"time": 1733, "pitch": 55, "duration": 6, "velocity": 85}, {"time": 1733, "pitch": 58, "duration": 6, "velocity": 79}, {"time": 1745, "pitch": 41, "duration": 13, "velocity": 100}, {"time": 1745, "pitch": 53, "duration": 13, "velocity": 87}, {"time": 1745, "pitch": 57, "duration": 13, "velocity": 83}, {"time": 1745, "pitch": 60, "duration": 13, "velocity": 79}, {"time": 1763, "pitch": 41, "duration": 3, "velocity": 90}, {"time": 1769, "pitch": 41, "duration": 14, "velocity": 77}, {"time": 1769, "pitch": 53, "duration": 10, "velocity": 93}, {"time": 1769, "pitch": 57, "duration": 10, "velocity": 87}, {"time": 1769, "pitch": 60, "duration": 10, "velocity": 87}, {"time": 1781, "pitch": 53, "duration": 5, "velocity": 93}, {"time": 1781, "pitch": 57, "duration": 5, "velocity": 86}, {"time": 1781, "pitch": 60, "duration": 5, "velocity": 86}, {"time": 1793, "pitch": 43, "duration": 13, "velocity": 81}, {"time": 1805, "pitch": 55, "duration": 10, "velocity": 68}, {"time": 1805, "pitch": 58, "duration": 10, "velocity": 73}, {"time": 1805, "pitch": 62, "duration": 10, "velocity": 71}, {"time": 1811, "pitch": 43, "duration": 3, "velocity": 98}, {"time": 1817, "pitch": 43, "duration": 20, "velocity": 57}, {"time": 1817, "pitch": 55, "duration": 20, "velocity": 67}, {"time": 1817, "pitch": 58, "duration": 20, "velocity": 74}, {"time": 1817, "pitch": 62, "duration": 20, "velocity": 77}, {"time": 1841, "pitch": 43, "duration": 13, "velocity": 93}, {"time": 1853, "pitch": 55, "duration": 12, "velocity": 72}, {"time": 1853, "pitch": 58, "duration": 11, "velocity": 74}, {"time": 1853, "pitch": 62, "duration": 12, "velocity": 70}, {"time": 1859, "pitch": 43, "duration": 3, "velocity": 95}, {"time": 1865, "pitch": 43, "duration": 13, "velocity": 100}, {"time": 1877, "pitch": 55, "duration": 12, "velocity": 79}, {"time": 1877, "pitch": 58, "duration": 12, "velocity": 85}, {"time": 1877, "pitch": 62, "duration": 12, "velocity": 83}, {"time": 1889, "pitch": 46, "duration": 13, "velocity": 100}, {"time": 1901, "pitch": 58, "duration": 21, "velocity": 83}, {"time": 1901, "pitch": 62, "duration": 21, "velocity": 85}, {"time": 1901, "pitch": 65, "duration": 21, "velocity": 83}, {"time": 1907, "pitch": 46, "duration": 3, "velocity": 117}, {"time": 1913, "pitch": 46, "duration": 16, "velocity": 114}, {"time": 1925, "pitch": 58, "duration": 13, "velocity": 83}, {"time": 1925, "pitch": 62, "duration": 13, "velocity": 93}, {"time": 1925, "pitch": 65, "duration": 13, "velocity": 95}, {"time": 1937, "pitch": 48, "duration": 13, "velocity": 87}, {"time": 1949, "pitch": 60, "duration": 14, "velocity": 81}, {"time": 1949, "pitch": 63, "duration": 13, "velocity": 90}, {"time": 1949, "pitch": 67, "duration": 13, "velocity": 76}, {"time": 1955, "pitch": 48, "duration": 3, "velocity": 98}, {"time": 1961, "pitch": 48, "duration": 12, "velocity": 104}, {"time": 1973, "pitch": 60, "duration": 11, "velocity": 86}, {"time": 1973, "pitch": 63, "duration": 11, "velocity": 87}, {"time": 1973, "pitch": 67, "duration": 12, "velocity": 79}, {"time": 1985, "pitch": 41, "duration": 14, "velocity": 86}, {"time": 1997, "pitch": 53, "duration": 8, "velocity": 83}, {"time": 1997, "pitch": 57, "duration": 8, "velocity": 76}, {"time": 1997, "pitch": 60, "duration": 8, "velocity": 76}, {"time": 2003, "pitch": 41, "duration": 3, "velocity": 104}, {"time": 2009, "pitch": 41, "duration": 13, "velocity": 95}, {"time": 2021, "pitch": 53, "duration": 13, "velocity": 100}, {"time": 2021, "pitch": 57, "duration": 12, "velocity": 87}, {"time": 2021, "pitch": 60, "duration": 12, "velocity": 79}, {"time": 2033, "pitch": 43, "duration": 13, "velocity": 108}, {"time": 2045, "pitch": 55, "duration": 21, "velocity": 63}, {"time": 2045, "pitch": 58, "duration": 21, "velocity": 79}, {"time": 2045, "pitch": 62, "duration": 21, "velocity": 79}, {"time": 2051, "pitch": 43, "duration": 3, "velocity": 111}, {"time": 2057, "pitch": 43, "duration": 10, "velocity": 93}, {"time": 2069, "pitch": 55, "duration": 12, "velocity": 77}, {"time": 2069, "pitch": 58, "duration": 11, "velocity": 83}, {"time": 2069, "pitch": 62, "duration": 11, "velocity": 79}, {"time": 2081, "pitch": 39, "duration": 11, "velocity": 85}, {"time": 2093, "pitch": 51, "duration": 17, "velocity": 79}, {"time": 2093, "pitch": 55, "duration": 16, "velocity": 83}, {"time": 2093, "pitch": 58, "duration": 15, "velocity": 85}, {"time": 2099, "pitch": 39, "duration": 3, "velocity": 98}, {"time": 2105, "pitch": 39, "duration": 13, "velocity": 100}, {"time": 2117, "pitch": 51, "duration": 8, "velocity": 86}, {"time": 2117, "pitch": 55, "duration": 9, "velocity": 77}, {"time": 2117, "pitch": 58, "duration": 10, "velocity": 75}, {"time": 2129, "pitch": 41, "duration": 13, "velocity": 86}, {"time": 2129, "pitch": 53, "duration": 14, "velocity": 100}, {"time": 2129, "pitch": 57, "duration": 14, "velocity": 90}, {"time": 2129, "pitch": 60, "duration": 13, "velocity": 90}, {"time": 2147, "pitch": 41, "duration": 4, "velocity": 85}, {"time": 2147, "pitch": 53, "duration": 3, "velocity": 100}, {"time": 2147, "pitch": 57, "duration": 3, "velocity": 86}, {"time": 2147, "pitch": 60, "duration": 2, "velocity": 85}, {"time": 2153, "pitch": 41, "duration": 14, "velocity": 76}, {"time": 2153, "pitch": 53, "duration": 10, "velocity": 95}, {"time": 2153, "pitch": 57, "duration": 11, "velocity": 86}, {"time": 2153, "pitch": 60, "duration": 10, "velocity": 87}, {"time": 2165, "pitch": 53, "duration": 2, "velocity": 63}, {"time": 2165, "pitch": 57, "duration": 2, "velocity": 65}, {"time": 2165, "pitch": 60, "duration": 2, "velocity": 68}, {"time": 2171, "pitch": 53, "duration": 7, "velocity": 95}, {"time": 2171, "pitch": 57, "duration": 7, "velocity": 86}, {"time": 2171, "pitch": 60, "duration": 7, "velocity": 90}, {"time": 2177, "pitch": 43, "duration": 14, "velocity": 79}, {"time": 2189, "pitch": 55, "duration": 8, "velocity": 71}, {"time": 2189, "pitch": 58, "duration": 7, "velocity": 75}, {"time": 2189, "pitch": 62, "duration": 8, "velocity": 77}, {"time": 2195, "pitch": 43, "duration": 3, "velocity": 86}, {"time": 2201, "pitch": 43, "duration": 15, "velocity": 87}, {"time": 2207, "pitch": 55, "duration": 3, "velocity": 79}, {"time": 2207, "pitch": 58, "duration": 3, "velocity": 87}, {"time": 2207, "pitch": 62, "duration": 2, "velocity": 81}, {"time": 2213, "pitch": 55, "duration": 13, "velocity": 81}, {"time": 2213, "pitch": 58, "duration": 13, "velocity": 85}, {"time": 2213, "pitch": 62, "duration": 12, "velocity": 85}, {"time": 2225, "pitch": 43, "duration": 13, "velocity": 74}, {"time": 2237, "pitch": 55, "duration": 13, "velocity": 72}, {"time": 2237, "pitch": 58, "duration": 12, "velocity": 75}, {"time": 2237, "pitch": 62, "duration": 13, "velocity": 74}, {"time": 2243, "pitch": 43, "duration": 3, "velocity": 86}, {"time": 2249, "pitch": 43, "duration": 14, "velocity": 86}, {"time": 2261, "pitch": 55, "duration": 13, "velocity": 74}, {"time": 2261, "pitch": 58, "duration": 12, "velocity": 79}, {"time": 2261, "pitch": 62, "duration": 12, "velocity": 90}, {"time": 2273, "pitch": 46, "duration": 13, "velocity": 83}, {"time": 2285, "pitch": 58, "duration": 20, "velocity": 79}, {"time": 2285, "pitch": 62, "duration": 19, "velocity": 77}, {"time": 2285, "pitch": 65, "duration": 19, "velocity": 81}, {"time": 2291, "pitch": 46, "duration": 3, "velocity": 100}, {"time": 2297, "pitch": 46, "duration": 15, "velocity": 81}, {"time": 2309, "pitch": 58, "duration": 12, "velocity": 87}, {"time": 2309, "pitch": 62, "duration": 12, "velocity": 87}, {"time": 2309, "pitch": 65, "duration": 11, "velocity": 93}, {"time": 2321, "pitch": 48, "duration": 14, "velocity": 83}, {"time": 2333, "pitch": 60, "duration": 14, "velocity": 79}, {"time": 2333, "pitch": 63, "duration": 15, "velocity": 81}, {"time": 2333, "pitch": 67, "duration": 15, "velocity": 79}, {"time": 2339, "pitch": 48, "duration": 3, "velocity": 93}, {"time": 2345, "pitch": 48, "duration": 13, "velocity": 77}, {"time": 2357, "pitch": 60, "duration": 9, "velocity": 83}, {"time": 2357, "pitch": 63, "duration": 9, "velocity": 86}, {"time": 2357, "pitch": 67, "duration": 9, "velocity": 81}, {"time": 2369, "pitch": 38, "duration": 14, "velocity": 72}, {"time": 2381, "pitch": 50, "duration": 8, "velocity": 64}, {"time": 2381, "pitch": 53, "duration": 8, "velocity": 81}, {"time": 2381, "pitch": 57, "duration": 8, "velocity": 69}, {"time": 2387, "pitch": 38, "duration": 18, "velocity": 95}, {"time": 2393, "pitch": 50, "duration": 9, "velocity": 74}, {"time": 2393, "pitch": 53, "duration": 9, "velocity": 90}, {"time": 2393, "pitch": 57, "duration": 9, "velocity": 74}, {"time": 2405, "pitch": 50, "duration": 9, "velocity": 79}, {"time": 2405, "pitch": 53, "duration": 9, "velocity": 87}, {"time": 2405, "pitch": 57, "duration": 9, "velocity": 74}, {"time": 2417, "pitch": 43, "duration": 13, "velocity": 95}, {"time": 2429, "pitch": 55, "duration": 17, "velocity": 74}, {"time": 2429, "pitch": 58, "duration": 15, "velocity": 77}, {"time": 2429, "pitch": 62, "duration": 15, "velocity": 77}, {"time": 2435, "pitch": 43, "duration": 3, "velocity": 95}, {"time": 2441, "pitch": 43, "duration": 14, "velocity": 93}, {"time": 2453, "pitch": 55, "duration": 13, "velocity": 77}, {"time": 2453, "pitch": 58, "duration": 13, "velocity": 76}, {"time": 2453, "pitch": 62, "duration": 13, "velocity": 81}, {"time": 2465, "pitch": 39, "duration": 14, "velocity": 87}, {"time": 2477, "pitch": 51, "duration": 7, "velocity": 73}, {"time": 2477, "pitch": 55, "duration": 7, "velocity": 70}, {"time": 2477, "pitch": 58, "duration": 7, "velocity": 59}, {"time": 2483, "pitch": 39, "duration": 3, "velocity": 100}, {"time": 2489, "pitch": 39, "duration": 11, "velocity": 104}, {"time": 2501, "pitch": 51, "duration": 12, "velocity": 83}, {"time": 2501, "pitch": 55, "duration": 12, "velocity": 77}, {"time": 2501, "pitch": 58, "duration": 12, "velocity": 83}, {"time": 2513, "pitch": 41, "duration": 13, "velocity": 90}, {"time": 2525, "pitch": 53, "duration": 13, "velocity": 87}, {"time": 2525, "pitch": 57, "duration": 13, "velocity": 79}, {"time": 2525, "pitch": 60, "duration": 13, "velocity": 74}, {"time": 2531, "pitch": 41, "duration": 3, "velocity": 95}, {"time": 2537, "pitch": 41, "duration": 14, "velocity": 85}, {"time": 2549, "pitch": 53, "duration": 13, "velocity": 98}, {"time": 2549, "pitch": 57, "duration": 12, "velocity": 86}, {"time": 2549, "pitch": 60, "duration": 12, "velocity": 79}, {"time": 2561, "pitch": 43, "duration": 7, "velocity": 98}, {"time": 2561, "pitch": 55, "duration": 8, "velocity": 90}, {"time": 2561, "pitch": 58, "duration": 7, "velocity": 90}, {"time": 2561, "pitch": 62, "duration": 7, "velocity": 83}, {"time": 2573, "pitch": 41, "duration": 9, "velocity": 93}, {"time": 2573, "pitch": 53, "duration": 8, "velocity": 112}, {"time": 2573, "pitch": 57, "duration": 8, "velocity": 95}, {"time": 2573, "pitch": 60, "duration": 8, "velocity": 77}, {"time": 2585, "pitch": 43, "duration": 15, "velocity": 85}, {"time": 2585, "pitch": 55, "duration": 15, "velocity": 95}, {"time": 2585, "pitch": 58, "duration": 15, "velocity": 95}, {"time": 2585, "pitch": 62, "duration": 14, "velocity": 87}, {"time": 2609, "pitch": 43, "duration": 14, "velocity": 63}, {"time": 2609, "pitch": 62, "duration": 37, "velocity": 68}, {"time": 2610, "pitch": 55, "duration": 40, "velocity": 49}, {"time": 2610, "pitch": 58, "duration": 39, "velocity": 74}, {"time": 2627, "pitch": 38, "duration": 3, "velocity": 77}, {"time": 2633, "pitch": 38, "duration": 13, "velocity": 81}, {"time": 2656, "pitch": 58, "duration": 38, "velocity": 69}, {"time": 2656, "pitch": 55, "duration": 39, "velocity": 51}, {"time": 2657, "pitch": 43, "duration": 12, "velocity": 62}, {"time": 2658, "pitch": 62, "duration": 36, "velocity": 58}, {"time": 2675, "pitch": 38, "duration": 2, "velocity": 83}, {"time": 2681, "pitch": 38, "duration": 11, "velocity": 100}, {"time": 2703, "pitch": 58, "duration": 39, "velocity": 59}, {"time": 2704, "pitch": 62, "duration": 38, "velocity": 71}, {"time": 2705, "pitch": 46, "duration": 17, "velocity": 79}, {"time": 2706, "pitch": 65, "duration": 36, "velocity": 64}, {"time": 2723, "pitch": 46, "duration": 3, "velocity": 98}, {"time": 2729, "pitch": 46, "duration": 12, "velocity": 108}, {"time": 2751, "pitch": 60, "duration": 43, "velocity": 8}, {"time": 2752, "pitch": 63, "duration": 41, "velocity": 77}, {"time": 2752, "pitch": 67, "duration": 42, "velocity": 70}, {"time": 2753, "pitch": 48, "duration": 14, "velocity": 66}, {"time": 2771, "pitch": 48, "duration": 3, "velocity": 86}, {"time": 2777, "pitch": 48, "duration": 14, "velocity": 104}, {"time": 2800, "pitch": 55, "duration": 36, "velocity": 58}, {"time": 2800, "pitch": 58, "duration": 36, "velocity": 70}, {"time": 2800, "pitch": 43, "duration": 13, "velocity": 61}, {"time": 2802, "pitch": 62, "duration": 34, "velocity": 60}, {"time": 2819, "pitch": 43, "duration": 3, "velocity": 79}, {"time": 2825, "pitch": 43, "duration": 11, "velocity": 87}, {"time": 2848, "pitch": 55, "duration": 36, "velocity": 61}, {"time": 2848, "pitch": 51, "duration": 37, "velocity": 57}, {"time": 2849, "pitch": 39, "duration": 14, "velocity": 69}, {"time": 2851, "pitch": 58, "duration": 34, "velocity": 15}, {"time": 2867, "pitch": 39, "duration": 3, "velocity": 83}, {"time": 2873, "pitch": 39, "duration": 12, "velocity": 104}, {"time": 2895, "pitch": 53, "duration": 39, "velocity": 54}, {"time": 2896, "pitch": 57, "duration": 38, "velocity": 61}, {"time": 2896, "pitch": 41, "duration": 16, "velocity": 63}, {"time": 2899, "pitch": 60, "duration": 35, "velocity": 59}, {"time": 2915, "pitch": 41, "duration": 3, "velocity": 86}, {"time": 2921, "pitch": 41, "duration": 10, "velocity": 104}, {"time": 2944, "pitch": 58, "duration": 14, "velocity": 59}, {"time": 2944, "pitch": 55, "duration": 14, "velocity": 49}, {"time": 2944, "pitch": 43, "duration": 14, "velocity": 63}, {"time": 2944, "pitch": 62, "duration": 14, "velocity": 63}, {"time": 2945, "pitch": 43, "duration": 13, "velocity": 81}, {"time": 2957, "pitch": 55, "duration": 1, "velocity": 68}, {"time": 2957, "pitch": 58, "duration": 1, "velocity": 73}, {"time": 2957, "pitch": 62, "duration": 1, "velocity": 71}, {"time": 2963, "pitch": 43, "duration": 3, "velocity": 98}, {"time": 2969, "pitch": 43, "duration": 20, "velocity": 57}, {"time": 2969, "pitch": 55, "duration": 20, "velocity": 67}, {"time": 2969, "pitch": 58, "duration": 20, "velocity": 74}, {"time": 2969, "pitch": 62, "duration": 20, "velocity": 77}, {"time": 2993, "pitch": 43, "duration": 13, "velocity": 93}, {"time": 3005, "pitch": 55, "duration": 12, "velocity": 72}, {"time": 3005, "pitch": 58, "duration": 11, "velocity": 74}, {"time": 3005, "pitch": 62, "duration": 12, "velocity": 70}, {"time": 3011, "pitch": 43, "duration": 3, "velocity": 95}, {"time": 3017, "pitch": 43, "duration": 13, "velocity": 100}, {"time": 3029, "pitch": 55, "duration": 12, "velocity": 79}, {"time": 3029, "pitch": 58, "duration": 12, "velocity": 85}, {"time": 3029, "pitch": 62, "duration": 12, "velocity": 83}, {"time": 3041, "pitch": 46, "duration": 13, "velocity": 100}, {"time": 3053, "pitch": 58, "duration": 21, "velocity": 83}, {"time": 3053, "pitch": 62, "duration": 21, "velocity": 85}, {"time": 3053, "pitch": 65, "duration": 21, "velocity": 83}, {"time": 3059, "pitch": 46, "duration": 3, "velocity": 117}, {"time": 3065, "pitch": 46, "duration": 16, "velocity": 114}, {"time": 3077, "pitch": 58, "duration": 13, "velocity": 83}, {"time": 3077, "pitch": 62, "duration": 13, "velocity": 93}, {"time": 3077, "pitch": 65, "duration": 13, "velocity": 95}, {"time": 3089, "pitch": 48, "duration": 13, "velocity": 87}, {"time": 3101, "pitch": 60, "duration": 14, "velocity": 81}, {"time": 3101, "pitch": 63, "duration": 13, "velocity": 90}, {"time": 3101, "pitch": 67, "duration": 13, "velocity": 76}, {"time": 3107, "pitch": 48, "duration": 3, "velocity": 98}, {"time": 3113, "pitch": 48, "duration": 12, "velocity": 104}, {"time": 3125, "pitch": 60, "duration": 11, "velocity": 86}, {"time": 3125, "pitch": 63, "duration": 11, "velocity": 87}, {"time": 3125, "pitch": 67, "duration": 12, "velocity": 79}, {"time": 3137, "pitch": 41, "duration": 14, "velocity": 86}, {"time": 3149, "pitch": 53, "duration": 8, "velocity": 83}, {"time": 3149, "pitch": 57, "duration": 8, "velocity": 76}, {"time": 3149, "pitch": 60, "duration": 8, "velocity": 76}, {"time": 3155, "pitch": 41, "duration": 3, "velocity": 104}, {"time": 3161, "pitch": 41, "duration": 13, "velocity": 95}, {"time": 3173, "pitch": 53, "duration": 13, "velocity": 100}, {"time": 3173, "pitch": 57, "duration": 12, "velocity": 87}, {"time": 3173, "pitch": 60, "duration": 12, "velocity": 79}, {"time": 3185, "pitch": 43, "duration": 13, "velocity": 108}, {"time": 3197, "pitch": 55, "duration": 21, "velocity": 63}, {"time": 3197, "pitch": 58, "duration": 21, "velocity": 79}, {"time": 3197, "pitch": 62, "duration": 21, "velocity": 79}, {"time": 3203, "pitch": 43, "duration": 3, "velocity": 111}, {"time": 3209, "pitch": 43, "duration": 10, "velocity": 93}, {"time": 3221, "pitch": 55, "duration": 12, "velocity": 77}, {"time": 3221, "pitch": 58, "duration": 11, "velocity": 83}, {"time": 3221, "pitch": 62, "duration": 11, "velocity": 79}, {"time": 3233, "pitch": 39, "duration": 11, "velocity": 85}, {"time": 3245, "pitch": 51, "duration": 17, "velocity": 79}, {"time": 3245, "pitch": 55, "duration": 16, "velocity": 83}, {"time": 3245, "pitch": 58, "duration": 15, "velocity": 85}, {"time": 3251, "pitch": 39, "duration": 3, "velocity": 98}, {"time": 3257, "pitch": 39, "duration": 13, "velocity": 100}, {"time": 3269, "pitch": 51, "duration": 4, "velocity": 86}, {"time": 3269, "pitch": 55, "duration": 4, "velocity": 77}, {"time": 3269, "pitch": 58, "duration": 4, "velocity": 75}, {"time": 3281, "pitch": 41, "duration": 13, "velocity": 86}, {"time": 3281, "pitch": 53, "duration": 14, "velocity": 100}, {"time": 3281, "pitch": 57, "duration": 14, "velocity": 90}, {"time": 3281, "pitch": 60, "duration": 13, "velocity": 90}, {"time": 3299, "pitch": 41, "duration": 4, "velocity": 85}, {"time": 3299, "pitch": 53, "duration": 3, "velocity": 100}, {"time": 3299, "pitch": 57, "duration": 3, "velocity": 86}, {"time": 3299, "pitch": 60, "duration": 2, "velocity": 85}, {"time": 3305, "pitch": 41, "duration": 14, "velocity": 76}, {"time": 3305, "pitch": 53, "duration": 10, "velocity": 95}, {"time": 3305, "pitch": 57, "duration": 11, "velocity": 86}, {"time": 3305, "pitch": 60, "duration": 10, "velocity": 87}, {"time": 3317, "pitch": 53, "duration": 2, "velocity": 63}, {"time": 3317, "pitch": 57, "duration": 2, "velocity": 65}, {"time": 3317, "pitch": 60, "duration": 2, "velocity": 68}, {"time": 3323, "pitch": 53, "duration": 7, "velocity": 95}, {"time": 3323, "pitch": 57, "duration": 7, "velocity": 86}, {"time": 3323, "pitch": 60, "duration": 7, "velocity": 90}, {"time": 3329, "pitch": 43, "duration": 14, "velocity": 79}, {"time": 3341, "pitch": 55, "duration": 8, "velocity": 71}, {"time": 3341, "pitch": 58, "duration": 7, "velocity": 75}, {"time": 3341, "pitch": 62, "duration": 8, "velocity": 77}, {"time": 3347, "pitch": 43, "duration": 3, "velocity": 86}, {"time": 3353, "pitch": 43, "duration": 15, "velocity": 81}, {"time": 3353, "pitch": 43, "duration": 15, "velocity": 87}, {"time": 3359, "pitch": 55, "duration": 3, "velocity": 79}, {"time": 3359, "pitch": 58, "duration": 3, "velocity": 87}, {"time": 3359, "pitch": 62, "duration": 2, "velocity": 81}, {"time": 3365, "pitch": 55, "duration": 13, "velocity": 85}, {"time": 3365, "pitch": 58, "duration": 13, "velocity": 86}, {"time": 3365, "pitch": 62, "duration": 12, "velocity": 90}, {"time": 3377, "pitch": 43, "duration": 14, "velocity": 95}, {"time": 3389, "pitch": 55, "duration": 21, "velocity": 79}, {"time": 3389, "pitch": 58, "duration": 21, "velocity": 83}, {"time": 3389, "pitch": 62, "duration": 21, "velocity": 93}, {"time": 3395, "pitch": 43, "duration": 3, "velocity": 86}, {"time": 3401, "pitch": 43, "duration": 13, "velocity": 98}, {"time": 3413, "pitch": 55, "duration": 10, "velocity": 83}, {"time": 3413, "pitch": 58, "duration": 10, "velocity": 87}, {"time": 3413, "pitch": 62, "duration": 10, "velocity": 83}, {"time": 3425, "pitch": 46, "duration": 14, "velocity": 86}, {"time": 3437, "pitch": 58, "duration": 21, "velocity": 74}, {"time": 3437, "pitch": 62, "duration": 20, "velocity": 77}, {"time": 3437, "pitch": 65, "duration": 20, "velocity": 85}, {"time": 3443, "pitch": 46, "duration": 3, "velocity": 87}, {"time": 3449, "pitch": 46, "duration": 14, "velocity": 95}, {"time": 3461, "pitch": 58, "duration": 12, "velocity": 81}, {"time": 3461, "pitch": 62, "duration": 12, "velocity": 86}, {"time": 3461, "pitch": 65, "duration": 12, "velocity": 98}, {"time": 3473, "pitch": 41, "duration": 14, "velocity": 111}, {"time": 3485, "pitch": 53, "duration": 20, "velocity": 87}, {"time": 3485, "pitch": 57, "duration": 20, "velocity": 83}, {"time": 3485, "pitch": 60, "duration": 20, "velocity": 81}, {"time": 3491, "pitch": 41, "duration": 3, "velocity": 98}, {"time": 3497, "pitch": 41, "duration": 18, "velocity": 112}, {"time": 3509, "pitch": 53, "duration": 7, "velocity": 108}, {"time": 3509, "pitch": 57, "duration": 7, "velocity": 93}, {"time": 3509, "pitch": 60, "duration": 7, "velocity": 93}, {"time": 3521, "pitch": 43, "duration": 5, "velocity": 79}, {"time": 3521, "pitch": 55, "duration": 5, "velocity": 85}, {"time": 3521, "pitch": 58, "duration": 5, "velocity": 87}, {"time": 3521, "pitch": 62, "duration": 4, "velocity": 90}, {"time": 3533, "pitch": 41, "duration": 7, "velocity": 87}, {"time": 3533, "pitch": 53, "duration": 6, "velocity": 114}, {"time": 3533, "pitch": 57, "duration": 6, "velocity": 98}, {"time": 3533, "pitch": 60, "duration": 5, "velocity": 90}, {"time": 3545, "pitch": 43, "duration": 24, "velocity": 83}, {"time": 3545, "pitch": 55, "duration": 24, "velocity": 77}, {"time": 3545, "pitch": 58, "duration": 23, "velocity": 86}, {"time": 3545, "pitch": 62, "duration": 23, "velocity": 90}, {"time": 3569, "pitch": 43, "duration": 13, "velocity": 93}, {"time": 3581, "pitch": 55, "duration": 20, "velocity": 69}, {"time": 3581, "pitch": 58, "duration": 20, "velocity": 76}, {"time": 3581, "pitch": 62, "duration": 20, "velocity": 79}, {"time": 3587, "pitch": 43, "duration": 3, "velocity": 104}, {"time": 3593, "pitch": 43, "duration": 13, "velocity": 95}, {"time": 3605, "pitch": 55, "duration": 13, "velocity": 86}, {"time": 3605, "pitch": 58, "duration": 13, "velocity": 93}, {"time": 3605, "pitch": 62, "duration": 13, "velocity": 85}, {"time": 3617, "pitch": 46, "duration": 14, "velocity": 108}, {"time": 3629, "pitch": 58, "duration": 20, "velocity": 79}, {"time": 3629, "pitch": 62, "duration": 20, "velocity": 83}, {"time": 3629, "pitch": 65, "duration": 20, "velocity": 85}, {"time": 3635, "pitch": 41, "duration": 3, "velocity": 76}, {"time": 3641, "pitch": 41, "duration": 14, "velocity": 81}, {"time": 3653, "pitch": 58, "duration": 9, "velocity": 75}, {"time": 3653, "pitch": 62, "duration": 9, "velocity": 83}, {"time": 3653, "pitch": 65, "duration": 9, "velocity": 79}, {"time": 3665, "pitch": 48, "duration": 14, "velocity": 79}, {"time": 3677, "pitch": 60, "duration": 10, "velocity": 60}, {"time": 3677, "pitch": 63, "duration": 10, "velocity": 67}, {"time": 3677, "pitch": 67, "duration": 10, "velocity": 63}, {"time": 3683, "pitch": 48, "duration": 3, "velocity": 87}, {"time": 3689, "pitch": 48, "duration": 11, "velocity": 87}, {"time": 3701, "pitch": 60, "duration": 13, "velocity": 74}, {"time": 3701, "pitch": 63, "duration": 12, "velocity": 75}, {"time": 3701, "pitch": 67, "duration": 12, "velocity": 74}, {"time": 3713, "pitch": 41, "duration": 14, "velocity": 77}, {"time": 3725, "pitch": 53, "duration": 20, "velocity": 75}, {"time": 3725, "pitch": 57, "duration": 21, "velocity": 64}, {"time": 3725, "pitch": 60, "duration": 21, "velocity": 67}, {"time": 3731, "pitch": 41, "duration": 3, "velocity": 100}, {"time": 3737, "pitch": 41, "duration": 15, "velocity": 87}, {"time": 3749, "pitch": 53, "duration": 12, "velocity": 98}, {"time": 3749, "pitch": 57, "duration": 12, "velocity": 86}, {"time": 3749, "pitch": 60, "duration": 12, "velocity": 83}, {"time": 3761, "pitch": 43, "duration": 13, "velocity": 87}, {"time": 3773, "pitch": 55, "duration": 12, "velocity": 73}, {"time": 3773, "pitch": 58, "duration": 12, "velocity": 79}, {"time": 3773, "pitch": 62, "duration": 12, "velocity": 74}, {"time": 3779, "pitch": 43, "duration": 3, "velocity": 100}, {"time": 3785, "pitch": 43, "duration": 12, "velocity": 90}, {"time": 3797, "pitch": 55, "duration": 13, "velocity": 83}, {"time": 3797, "pitch": 58, "duration": 13, "velocity": 90}, {"time": 3797, "pitch": 62, "duration": 13, "velocity": 93}, {"time": 3809, "pitch": 39, "duration": 14, "velocity": 108}, {"time": 3821, "pitch": 51, "duration": 19, "velocity": 81}, {"time": 3821, "pitch": 55, "duration": 19, "velocity": 76}, {"time": 3821, "pitch": 58, "duration": 19, "velocity": 77}, {"time": 3827, "pitch": 39, "duration": 3, "velocity": 108}, {"time": 3833, "pitch": 39, "duration": 15, "velocity": 108}, {"time": 3845, "pitch": 51, "duration": 6, "velocity": 81}, {"time": 3845, "pitch": 55, "duration": 6, "velocity": 85}, {"time": 3845, "pitch": 58, "duration": 6, "velocity": 79}, {"time": 3857, "pitch": 41, "duration": 13, "velocity": 100}, {"time": 3857, "pitch": 53, "duration": 13, "velocity": 87}, {"time": 3857, "pitch": 57, "duration": 13, "velocity": 83}, {"time": 3857, "pitch": 60, "duration": 13, "velocity": 79}, {"time": 3875, "pitch": 41, "duration": 3, "velocity": 90}, {"time": 3881, "pitch": 41, "duration": 14, "velocity": 77}, {"time": 3881, "pitch": 53, "duration": 10, "velocity": 93}, {"time": 3881, "pitch": 57, "duration": 10, "velocity": 87}, {"time": 3881, "pitch": 60, "duration": 10, "velocity": 87}, {"time": 3893, "pitch": 53, "duration": 5, "velocity": 93}, {"time": 3893, "pitch": 57, "duration": 5, "velocity": 86}, {"time": 3893, "pitch": 60, "duration": 5, "velocity": 86}, {"time": 3905, "pitch": 43, "duration": 13, "velocity": 81}, {"time": 3917, "pitch": 55, "duration": 10, "velocity": 68}, {"time": 3917, "pitch": 58, "duration": 10, "velocity": 73}, {"time": 3917, "pitch": 62, "duration": 10, "velocity": 71}, {"time": 3923, "pitch": 43, "duration": 3, "velocity": 98}, {"time": 3929, "pitch": 43, "duration": 20, "velocity": 57}, {"time": 3935, "pitch": 55, "duration": 2, "velocity": 75}, {"time": 3935, "pitch": 58, "duration": 2, "velocity": 79}, {"time": 3935, "pitch": 62, "duration": 2, "velocity": 74}, {"time": 3947, "pitch": 55, "duration": 3, "velocity": 76}, {"time": 3947, "pitch": 58, "duration": 3, "velocity": 85}, {"time": 3947, "pitch": 62, "duration": 2, "velocity": 75}, {"time": 3953, "pitch": 43, "duration": 13, "velocity": 93}, {"time": 3965, "pitch": 55, "duration": 12, "velocity": 72}, {"time": 3965, "pitch": 58, "duration": 11, "velocity": 74}, {"time": 3965, "pitch": 62, "duration": 12, "velocity": 70}, {"time": 3971, "pitch": 43, "duration": 3, "velocity": 95}, {"time": 3977, "pitch": 43, "duration": 13, "velocity": 100}, {"time": 3989, "pitch": 55, "duration": 12, "velocity": 79}, {"time": 3989, "pitch": 58, "duration": 12, "velocity": 85}, {"time": 3989, "pitch": 62, "duration": 12, "velocity": 83}, {"time": 4001, "pitch": 46, "duration": 13, "velocity": 100}, {"time": 4013, "pitch": 58, "duration": 21, "velocity": 83}, {"time": 4013, "pitch": 62, "duration": 21, "velocity": 85}, {"time": 4013, "pitch": 65, "duration": 21, "velocity": 83}, {"time": 4019, "pitch": 46, "duration": 3, "velocity": 117}, {"time": 4025, "pitch": 46, "duration": 16, "velocity": 114}, {"time": 4037, "pitch": 58, "duration": 13, "velocity": 83}, {"time": 4037, "pitch": 62, "duration": 13, "velocity": 93}, {"time": 4037, "pitch": 65, "duration": 13, "velocity": 95}, {"time": 4049, "pitch": 48, "duration": 13, "velocity": 87}, {"time": 4061, "pitch": 60, "duration": 14, "velocity": 81}, {"time": 4061, "pitch": 63, "duration": 13, "velocity": 90}, {"time": 4061, "pitch": 67, "duration": 13, "velocity": 76}, {"time": 4067, "pitch": 48, "duration": 3, "velocity": 98}, {"time": 4073, "pitch": 48, "duration": 12, "velocity": 104}, {"time": 4085, "pitch": 60, "duration": 11, "velocity": 86}, {"time": 4085, "pitch": 63, "duration": 11, "velocity": 87}, {"time": 4085, "pitch": 67, "duration": 12, "velocity": 79}, {"time": 4097, "pitch": 41, "duration": 14, "velocity": 86}, {"time": 4109, "pitch": 53, "duration": 8, "velocity": 83}, {"time": 4109, "pitch": 57, "duration": 8, "velocity": 76}, {"time": 4109, "pitch": 60, "duration": 8, "velocity": 76}, {"time": 4115, "pitch": 41, "duration": 3, "velocity": 104}, {"time": 4121, "pitch": 41, "duration": 13, "velocity": 95}, {"time": 4133, "pitch": 53, "duration": 13, "velocity": 100}, {"time": 4133, "pitch": 57, "duration": 12, "velocity": 87}, {"time": 4133, "pitch": 60, "duration": 12, "velocity": 79}, {"time": 4145, "pitch": 43, "duration": 13, "velocity": 108}, {"time": 4157, "pitch": 55, "duration": 21, "velocity": 63}, {"time": 4157, "pitch": 58, "duration": 21, "velocity": 79}, {"time": 4157, "pitch": 62, "duration": 21, "velocity": 79}, {"time": 4163, "pitch": 43, "duration": 3, "velocity": 111}, {"time": 4169, "pitch": 43, "duration": 10, "velocity": 93}, {"time": 4181, "pitch": 55, "duration": 12, "velocity": 77}, {"time": 4181, "pitch": 58, "duration": 11, "velocity": 83}, {"time": 4181, "pitch": 62, "duration": 11, "velocity": 79}, {"time": 4193, "pitch": 39, "duration": 11, "velocity": 85}, {"time": 4205, "pitch": 51, "duration": 17, "velocity": 79}, {"time": 4205, "pitch": 55, "duration": 16, "velocity": 83}, {"time": 4205, "pitch": 58, "duration": 15, "velocity": 85}, {"time": 4211, "pitch": 39, "duration": 3, "velocity": 98}, {"time": 4217, "pitch": 39, "duration": 13, "velocity": 100}, {"time": 4229, "pitch": 51, "duration": 9, "velocity": 86}, {"time": 4229, "pitch": 55, "duration": 8, "velocity": 77}, {"time": 4229, "pitch": 58, "duration": 9, "velocity": 75}, {"time": 4241, "pitch": 41, "duration": 13, "velocity": 86}, {"time": 4241, "pitch": 53, "duration": 14, "velocity": 100}, {"time": 4241, "pitch": 57, "duration": 14, "velocity": 90}, {"time": 4241, "pitch": 60, "duration": 13, "velocity": 90}, {"time": 4259, "pitch": 41, "duration": 4, "velocity": 85}, {"time": 4259, "pitch": 53, "duration": 3, "velocity": 100}, {"time": 4259, "pitch": 57, "duration": 3, "velocity": 86}, {"time": 4259, "pitch": 60, "duration": 2, "velocity": 85}, {"time": 4265, "pitch": 41, "duration": 14, "velocity": 76}, {"time": 4265, "pitch": 53, "duration": 10, "velocity": 95}, {"time": 4265, "pitch": 57, "duration": 11, "velocity": 86}, {"time": 4265, "pitch": 60, "duration": 10, "velocity": 87}, {"time": 4277, "pitch": 53, "duration": 2, "velocity": 63}, {"time": 4277, "pitch": 57, "duration": 2, "velocity": 65}, {"time": 4277, "pitch": 60, "duration": 2, "velocity": 68}, {"time": 4283, "pitch": 53, "duration": 7, "velocity": 95}, {"time": 4283, "pitch": 57, "duration": 7, "velocity": 86}, {"time": 4283, "pitch": 60, "duration": 7, "velocity": 90}, {"time": 4289, "pitch": 43, "duration": 14, "velocity": 79}, {"time": 4301, "pitch": 55, "duration": 8, "velocity": 71}, {"time": 4301, "pitch": 58, "duration": 7, "velocity": 75}, {"time": 4301, "pitch": 62, "duration": 8, "velocity": 77}, {"time": 4307, "pitch": 43, "duration": 3, "velocity": 86}, {"time": 4313, "pitch": 43, "duration": 15, "velocity": 87}, {"time": 4319, "pitch": 55, "duration": 3, "velocity": 79}, {"time": 4319, "pitch": 58, "duration": 3, "velocity": 87}, {"time": 4319, "pitch": 62, "duration": 2, "velocity": 81}, {"time": 4325, "pitch": 55, "duration": 13, "velocity": 81}, {"time": 4325, "pitch": 58, "duration": 13, "velocity": 85}, {"time": 4325, "pitch": 62, "duration": 12, "velocity": 85}, {"time": 4337, "pitch": 43, "duration": 13, "velocity": 108}, {"time": 4349, "pitch": 55, "duration": 21, "velocity": 63}, {"time": 4349, "pitch": 58, "duration": 21, "velocity": 79}, {"time": 4349, "pitch": 62, "duration": 21, "velocity": 79}, {"time": 4355, "pitch": 43, "duration": 3, "velocity": 111}, {"time": 4361, "pitch": 43, "duration": 10, "velocity": 93}, {"time": 4373, "pitch": 55, "duration": 12, "velocity": 77}, {"time": 4373, "pitch": 58, "duration": 11, "velocity": 83}, {"time": 4373, "pitch": 62, "duration": 11, "velocity": 79}, {"time": 4385, "pitch": 39, "duration": 11, "velocity": 85}, {"time": 4397, "pitch": 51, "duration": 17, "velocity": 79}, {"time": 4397, "pitch": 55, "duration": 16, "velocity": 83}, {"time": 4397, "pitch": 58, "duration": 15, "velocity": 85}, {"time": 4403, "pitch": 39, "duration": 3, "velocity": 98}, {"time": 4409, "pitch": 39, "duration": 13, "velocity": 100}, {"time": 4421, "pitch": 51, "duration": 4, "velocity": 86}, {"time": 4421, "pitch": 55, "duration": 4, "velocity": 77}, {"time": 4421, "pitch": 58, "duration": 4, "velocity": 75}, {"time": 4433, "pitch": 41, "duration": 13, "velocity": 86}, {"time": 4433, "pitch": 53, "duration": 14, "velocity": 100}, {"time": 4433, "pitch": 57, "duration": 14, "velocity": 90}, {"time": 4433, "pitch": 60, "duration": 13, "velocity": 90}, {"time": 4451, "pitch": 41, "duration": 4, "velocity": 85}, {"time": 4451, "pitch": 53, "duration": 3, "velocity": 100}, {"time": 4451, "pitch": 57, "duration": 3, "velocity": 86}, {"time": 4451, "pitch": 60, "duration": 2, "velocity": 85}, {"time": 4457, "pitch": 41, "duration": 14, "velocity": 76}, {"time": 4457, "pitch": 53, "duration": 10, "velocity": 95}, {"time": 4457, "pitch": 57, "duration": 11, "velocity": 86}, {"time": 4457, "pitch": 60, "duration": 10, "velocity": 87}, {"time": 4469, "pitch": 53, "duration": 2, "velocity": 63}, {"time": 4469, "pitch": 57, "duration": 2, "velocity": 65}, {"time": 4469, "pitch": 60, "duration": 2, "velocity": 68}, {"time": 4475, "pitch": 53, "duration": 7, "velocity": 95}, {"time": 4475, "pitch": 57, "duration": 7, "velocity": 86}, {"time": 4475, "pitch": 60, "duration": 7, "velocity": 90}, {"time": 4481, "pitch": 39, "duration": 11, "velocity": 81}, {"time": 4493, "pitch": 51, "duration": 12, "velocity": 72}, {"time": 4493, "pitch": 55, "duration": 12, "velocity": 70}, {"time": 4493, "pitch": 58, "duration": 9, "velocity": 68}, {"time": 4499, "pitch": 39, "duration": 3, "velocity": 111}, {"time": 4505, "pitch": 41, "duration": 15, "velocity": 86}, {"time": 4511, "pitch": 53, "duration": 2, "velocity": 72}, {"time": 4511, "pitch": 57, "duration": 2, "velocity": 74}, {"time": 4511, "pitch": 60, "duration": 2, "velocity": 75}, {"time": 4517, "pitch": 53, "duration": 10, "velocity": 108}, {"time": 4517, "pitch": 57, "duration": 10, "velocity": 93}, {"time": 4517, "pitch": 60, "duration": 10, "velocity": 85}, {"time": 4529, "pitch": 43, "duration": 24, "velocity": 70}, {"time": 4529, "pitch": 55, "duration": 15, "velocity": 72}, {"time": 4529, "pitch": 58, "duration": 15, "velocity": 71}, {"time": 4529, "pitch": 62, "duration": 15, "velocity": 72}, {"time": 4547, "pitch": 38, "duration": 4, "velocity": 77}, {"time": 4547, "pitch": 55, "duration": 2, "velocity": 71}, {"time": 4547, "pitch": 58, "duration": 2, "velocity": 77}, {"time": 4547, "pitch": 62, "duration": 2, "velocity": 77}, {"time": 4553, "pitch": 38, "duration": 14, "velocity": 100}, {"time": 4553, "pitch": 55, "duration": 14, "velocity": 76}, {"time": 4553, "pitch": 58, "duration": 14, "velocity": 79}, {"time": 4553, "pitch": 62, "duration": 14, "velocity": 83}, {"time": 4571, "pitch": 55, "duration": 11, "velocity": 75}, {"time": 4571, "pitch": 58, "duration": 9, "velocity": 75}, {"time": 4571, "pitch": 62, "duration": 11, "velocity": 81}, {"time": 4577, "pitch": 46, "duration": 38, "velocity": 104}, {"time": 4595, "pitch": 41, "duration": 3, "velocity": 93}, {"time": 4595, "pitch": 58, "duration": 2, "velocity": 73}, {"time": 4595, "pitch": 62, "duration": 2, "velocity": 79}, {"time": 4595, "pitch": 65, "duration": 2, "velocity": 79}, {"time": 4601, "pitch": 41, "duration": 14, "velocity": 87}, {"time": 4601, "pitch": 58, "duration": 14, "velocity": 79}, {"time": 4601, "pitch": 62, "duration": 14, "velocity": 87}, {"time": 4601, "pitch": 65, "duration": 14, "velocity": 87}, {"time": 4625, "pitch": 41, "duration": 13, "velocity": 111}, {"time": 4637, "pitch": 53, "duration": 3, "velocity": 81}, {"time": 4637, "pitch": 57, "duration": 3, "velocity": 69}, {"time": 4637, "pitch": 60, "duration": 3, "velocity": 74}, {"time": 4643, "pitch": 41, "duration": 3, "velocity": 100}, {"time": 4649, "pitch": 41, "duration": 11, "velocity": 121}, {"time": 4649, "pitch": 53, "duration": 8, "velocity": 87}, {"time": 4649, "pitch": 57, "duration": 8, "velocity": 87}, {"time": 4649, "pitch": 60, "duration": 8, "velocity": 90}, {"time": 4673, "pitch": 39, "duration": 14, "velocity": 81}, {"time": 4685, "pitch": 51, "duration": 4, "velocity": 81}, {"time": 4685, "pitch": 55, "duration": 4, "velocity": 77}, {"time": 4685, "pitch": 58, "duration": 4, "velocity": 79}, {"time": 4692, "pitch": 39, "duration": 2, "velocity": 122}, {"time": 4697, "pitch": 39, "duration": 11, "velocity": 123}, {"time": 4697, "pitch": 51, "duration": 9, "velocity": 86}, {"time": 4697, "pitch": 55, "duration": 8, "velocity": 85}, {"time": 4697, "pitch": 58, "duration": 8, "velocity": 90}, {"time": 4721, "pitch": 43, "duration": 14, "velocity": 104}, {"time": 4733, "pitch": 58, "duration": 20, "velocity": 79}, {"time": 4733, "pitch": 62, "duration": 20, "velocity": 90}, {"time": 4733, "pitch": 67, "duration": 20, "velocity": 87}, {"time": 4739, "pitch": 43, "duration": 3, "velocity": 111}, {"time": 4745, "pitch": 43, "duration": 12, "velocity": 95}, {"time": 4757, "pitch": 58, "duration": 14, "velocity": 87}, {"time": 4757, "pitch": 62, "duration": 14, "velocity": 90}, {"time": 4757, "pitch": 67, "duration": 13, "velocity": 87}, {"time": 4769, "pitch": 46, "duration": 14, "velocity": 108}, {"time": 4781, "pitch": 58, "duration": 11, "velocity": 77}, {"time": 4781, "pitch": 62, "duration": 10, "velocity": 83}, {"time": 4781, "pitch": 65, "duration": 12, "velocity": 87}, {"time": 4787, "pitch": 46, "duration": 3, "velocity": 120}, {"time": 4793, "pitch": 46, "duration": 12, "velocity": 83}, {"time": 4805, "pitch": 58, "duration": 13, "velocity": 85}, {"time": 4805, "pitch": 62, "duration": 13, "velocity": 87}, {"time": 4805, "pitch": 65, "duration": 13, "velocity": 90}, {"time": 4817, "pitch": 41, "duration": 14, "velocity": 100}, {"time": 4829, "pitch": 53, "duration": 7, "velocity": 74}, {"time": 4829, "pitch": 57, "duration": 7, "velocity": 73}, {"time": 4829, "pitch": 60, "duration": 7, "velocity": 73}, {"time": 4835, "pitch": 41, "duration": 3, "velocity": 108}, {"time": 4841, "pitch": 41, "duration": 15, "velocity": 108}, {"time": 4853, "pitch": 53, "duration": 13, "velocity": 104}, {"time": 4853, "pitch": 57, "duration": 12, "velocity": 90}, {"time": 4853, "pitch": 60, "duration": 12, "velocity": 85}, {"time": 4865, "pitch": 43, "duration": 8, "velocity": 100}, {"time": 4865, "pitch": 55, "duration": 7, "velocity": 86}, {"time": 4865, "pitch": 58, "duration": 7, "velocity": 87}, {"time": 4865, "pitch": 62, "duration": 7, "velocity": 86}, {"time": 4877, "pitch": 41, "duration": 8, "velocity": 98}, {"time": 4877, "pitch": 53, "duration": 7, "velocity": 93}, {"time": 4877, "pitch": 57, "duration": 7, "velocity": 86}, {"time": 4877, "pitch": 60, "duration": 6, "velocity": 81}, {"time": 4889, "pitch": 43, "duration": 10, "velocity": 87}, {"time": 4889, "pitch": 55, "duration": 12, "velocity": 76}, {"time": 4889, "pitch": 58, "duration": 12, "velocity": 83}, {"time": 4889, "pitch": 62, "duration": 12, "velocity": 85}, {"time": 4907, "pitch": 41, "duration": 4, "velocity": 87}, {"time": 4907, "pitch": 53, "duration": 2, "velocity": 85}, {"time": 4907, "pitch": 57, "duration": 2, "velocity": 83}, {"time": 4907, "pitch": 60, "duration": 2, "velocity": 74}, {"time": 4913, "pitch": 43, "duration": 3, "velocity": 93}, {"time": 4913, "pitch": 55, "duration": 2, "velocity": 79}, {"time": 4913, "pitch": 58, "duration": 2, "velocity": 85}, {"time": 4913, "pitch": 62, "duration": 2, "velocity": 83}, {"time": 4919, "pitch": 43, "duration": 6, "velocity": 112}, {"time": 4919, "pitch": 55, "duration": 5, "velocity": 100}, {"time": 4919, "pitch": 58, "duration": 5, "velocity": 104}, {"time": 4919, "pitch": 62, "duration": 5, "velocity": 98}], "annotations": [{"time": 5, "annotation": {"number": 64, "value": 70}, "group": "control_change"}, {"time": 17, "annotation": {"number": 64, "value": 64}, "group": "control_change"}, {"time": 41, "annotation": {"number": 64, "value": 7}, "group": "control_change"}, {"time": 53, "annotation": {"number": 64, "value": 9}, "group": "control_change"}, {"time": 65, "annotation": {"number": 64, "value": 17}, "group": "control_change"}, {"time": 113, "annotation": {"number": 64, "value": 57}, "group": "control_change"}, {"time": 125, "annotation": {"number": 64, "value": 55}, "group": "control_change"}]}]}