{"metadata": {"schema_version": "0.2", "title": "None", "source_filename": "037.mid", "source_format": "midi"}, "resolution": 12, "tempos": [{"time": 0, "qpm": 74.000074000074}], "time_signatures": [{"time": 0, "numerator": 1, "denominator": 4}], "tracks": [{"program": 4, "is_drum": false, "name": "MELODY", "notes": [{"time": 512, "pitch": 71, "duration": 6, "velocity": 77}, {"time": 518, "pitch": 73, "duration": 6, "velocity": 69}, {"time": 524, "pitch": 74, "duration": 6, "velocity": 74}, {"time": 530, "pitch": 73, "duration": 5, "velocity": 75}, {"time": 536, "pitch": 74, "duration": 7, "velocity": 74}, {"time": 542, "pitch": 76, "duration": 4, "velocity": 66}, {"time": 548, "pitch": 73, "duration": 14, "velocity": 72}, {"time": 560, "pitch": 69, "duration": 6, "velocity": 83}, {"time": 566, "pitch": 71, "duration": 16, "velocity": 74}, {"time": 602, "pitch": 71, "duration": 10, "velocity": 93}, {"time": 614, "pitch": 73, "duration": 4, "velocity": 87}, {"time": 620, "pitch": 74, "duration": 11, "velocity": 86}, {"time": 626, "pitch": 73, "duration": 9, "velocity": 85}, {"time": 638, "pitch": 74, "duration": 5, "velocity": 75}, {"time": 644, "pitch": 73, "duration": 6, "velocity": 100}, {"time": 650, "pitch": 71, "duration": 40, "velocity": 83}, {"time": 704, "pitch": 71, "duration": 6, "velocity": 77}, {"time": 710, "pitch": 73, "duration": 3, "velocity": 63}, {"time": 713, "pitch": 74, "duration": 9, "velocity": 81}, {"time": 722, "pitch": 73, "duration": 5, "velocity": 46}, {"time": 728, "pitch": 74, "duration": 7, "velocity": 90}, {"time": 734, "pitch": 76, "duration": 5, "velocity": 64}, {"time": 740, "pitch": 78, "duration": 6, "velocity": 95}, {"time": 746, "pitch": 76, "duration": 3, "velocity": 69}, {"time": 752, "pitch": 76, "duration": 6, "velocity": 74}, {"time": 758, "pitch": 69, "duration": 5, "velocity": 79}, {"time": 764, "pitch": 71, "duration": 17, "velocity": 100}, {"time": 794, "pitch": 71, "duration": 6, "velocity": 73}, {"time": 800, "pitch": 78, "duration": 6, "velocity": 62}, {"time": 806, "pitch": 76, "duration": 3, "velocity": 69}, {"time": 812, "pitch": 73, "duration": 14, "velocity": 98}, {"time": 830, "pitch": 69, "duration": 6, "velocity": 59}, {"time": 836, "pitch": 71, "duration": 19, "velocity": 65}, {"time": 890, "pitch": 78, "duration": 6, "velocity": 87}, {"time": 896, "pitch": 76, "duration": 7, "velocity": 74}, {"time": 902, "pitch": 74, "duration": 5, "velocity": 65}, {"time": 908, "pitch": 73, "duration": 5, "velocity": 98}, {"time": 914, "pitch": 74, "duration": 5, "velocity": 72}, {"time": 920, "pitch": 73, "duration": 5, "velocity": 74}, {"time": 926, "pitch": 74, "duration": 5, "velocity": 74}, {"time": 932, "pitch": 73, "duration": 8, "velocity": 74}, {"time": 944, "pitch": 71, "duration": 3, "velocity": 67}, {"time": 950, "pitch": 71, "duration": 18, "velocity": 64}, {"time": 986, "pitch": 78, "duration": 6, "velocity": 77}, {"time": 992, "pitch": 76, "duration": 7, "velocity": 63}, {"time": 998, "pitch": 74, "duration": 6, "velocity": 59}, {"time": 1004, "pitch": 73, "duration": 7, "velocity": 104}, {"time": 1010, "pitch": 74, "duration": 6, "velocity": 61}, {"time": 1016, "pitch": 69, "duration": 3, "velocity": 69}, {"time": 1022, "pitch": 69, "duration": 6, "velocity": 68}, {"time": 1028, "pitch": 76, "duration": 6, "velocity": 97}, {"time": 1040, "pitch": 78, "duration": 3, "velocity": 67}, {"time": 1046, "pitch": 78, "duration": 23, "velocity": 74}, {"time": 1082, "pitch": 83, "duration": 6, "velocity": 77}, {"time": 1088, "pitch": 81, "duration": 6, "velocity": 85}, {"time": 1094, "pitch": 76, "duration": 10, "velocity": 86}, {"time": 1106, "pitch": 76, "duration": 6, "velocity": 98}, {"time": 1112, "pitch": 74, "duration": 4, "velocity": 93}, {"time": 1118, "pitch": 73, "duration": 4, "velocity": 108}, {"time": 1124, "pitch": 73, "duration": 8, "velocity": 111}, {"time": 1133, "pitch": 74, "duration": 3, "velocity": 76}, {"time": 1142, "pitch": 73, "duration": 5, "velocity": 74}, {"time": 1148, "pitch": 71, "duration": 19, "velocity": 74}, {"time": 1178, "pitch": 71, "duration": 6, "velocity": 73}, {"time": 1184, "pitch": 78, "duration": 6, "velocity": 83}, {"time": 1190, "pitch": 76, "duration": 8, "velocity": 70}, {"time": 1202, "pitch": 73, "duration": 7, "velocity": 83}, {"time": 1214, "pitch": 74, "duration": 5, "velocity": 79}, {"time": 1220, "pitch": 73, "duration": 7, "velocity": 85}, {"time": 1229, "pitch": 71, "duration": 27, "velocity": 70}, {"time": 1256, "pitch": 78, "duration": 6, "velocity": 85}, {"time": 1262, "pitch": 81, "duration": 5, "velocity": 86}, {"time": 1268, "pitch": 83, "duration": 13, "velocity": 75}, {"time": 1286, "pitch": 83, "duration": 7, "velocity": 86}, {"time": 1292, "pitch": 81, "duration": 6, "velocity": 90}, {"time": 1298, "pitch": 76, "duration": 6, "velocity": 74}, {"time": 1304, "pitch": 74, "duration": 7, "velocity": 72}, {"time": 1310, "pitch": 76, "duration": 5, "velocity": 83}, {"time": 1316, "pitch": 78, "duration": 7, "velocity": 81}, {"time": 1322, "pitch": 81, "duration": 6, "velocity": 77}, {"time": 1328, "pitch": 76, "duration": 6, "velocity": 69}, {"time": 1334, "pitch": 78, "duration": 5, "velocity": 81}, {"time": 1340, "pitch": 74, "duration": 7, "velocity": 73}, {"time": 1352, "pitch": 78, "duration": 5, "velocity": 87}, {"time": 1358, "pitch": 81, "duration": 5, "velocity": 74}, {"time": 1364, "pitch": 83, "duration": 13, "velocity": 93}, {"time": 1382, "pitch": 83, "duration": 6, "velocity": 86}, {"time": 1388, "pitch": 81, "duration": 3, "velocity": 100}, {"time": 1394, "pitch": 76, "duration": 5, "velocity": 66}, {"time": 1400, "pitch": 74, "duration": 6, "velocity": 65}, {"time": 1406, "pitch": 76, "duration": 4, "velocity": 74}, {"time": 1418, "pitch": 78, "duration": 24, "velocity": 77}, {"time": 1448, "pitch": 78, "duration": 5, "velocity": 104}, {"time": 1454, "pitch": 81, "duration": 5, "velocity": 86}, {"time": 1460, "pitch": 83, "duration": 12, "velocity": 95}, {"time": 1478, "pitch": 83, "duration": 6, "velocity": 86}, {"time": 1484, "pitch": 81, "duration": 3, "velocity": 81}, {"time": 1490, "pitch": 76, "duration": 6, "velocity": 70}, {"time": 1496, "pitch": 74, "duration": 5, "velocity": 83}, {"time": 1502, "pitch": 76, "duration": 5, "velocity": 70}, {"time": 1508, "pitch": 78, "duration": 4, "velocity": 62}, {"time": 1514, "pitch": 81, "duration": 2, "velocity": 90}, {"time": 1520, "pitch": 81, "duration": 3, "velocity": 104}, {"time": 1526, "pitch": 76, "duration": 4, "velocity": 93}, {"time": 1532, "pitch": 74, "duration": 8, "velocity": 90}, {"time": 1544, "pitch": 78, "duration": 6, "velocity": 90}, {"time": 1550, "pitch": 76, "duration": 6, "velocity": 76}, {"time": 1556, "pitch": 71, "duration": 10, "velocity": 85}, {"time": 1562, "pitch": 78, "duration": 15, "velocity": 11}, {"time": 1580, "pitch": 76, "duration": 6, "velocity": 71}, {"time": 1589, "pitch": 74, "duration": 6, "velocity": 79}, {"time": 1598, "pitch": 73, "duration": 7, "velocity": 83}, {"time": 1610, "pitch": 71, "duration": 18, "velocity": 68}, {"time": 2096, "pitch": 71, "duration": 6, "velocity": 77}, {"time": 2102, "pitch": 73, "duration": 6, "velocity": 69}, {"time": 2108, "pitch": 74, "duration": 6, "velocity": 74}, {"time": 2114, "pitch": 73, "duration": 5, "velocity": 75}, {"time": 2120, "pitch": 74, "duration": 7, "velocity": 74}, {"time": 2126, "pitch": 76, "duration": 4, "velocity": 66}, {"time": 2132, "pitch": 73, "duration": 14, "velocity": 72}, {"time": 2144, "pitch": 69, "duration": 6, "velocity": 83}, {"time": 2150, "pitch": 71, "duration": 16, "velocity": 74}, {"time": 2186, "pitch": 71, "duration": 10, "velocity": 93}, {"time": 2198, "pitch": 73, "duration": 4, "velocity": 87}, {"time": 2204, "pitch": 74, "duration": 11, "velocity": 86}, {"time": 2210, "pitch": 73, "duration": 9, "velocity": 85}, {"time": 2222, "pitch": 74, "duration": 5, "velocity": 75}, {"time": 2228, "pitch": 73, "duration": 6, "velocity": 100}, {"time": 2234, "pitch": 71, "duration": 40, "velocity": 83}, {"time": 2288, "pitch": 71, "duration": 6, "velocity": 77}, {"time": 2294, "pitch": 73, "duration": 3, "velocity": 63}, {"time": 2297, "pitch": 74, "duration": 9, "velocity": 81}, {"time": 2306, "pitch": 73, "duration": 5, "velocity": 46}, {"time": 2312, "pitch": 74, "duration": 7, "velocity": 90}, {"time": 2318, "pitch": 76, "duration": 5, "velocity": 64}, {"time": 2324, "pitch": 78, "duration": 6, "velocity": 95}, {"time": 2330, "pitch": 76, "duration": 3, "velocity": 69}, {"time": 2336, "pitch": 76, "duration": 6, "velocity": 74}, {"time": 2342, "pitch": 69, "duration": 5, "velocity": 79}, {"time": 2348, "pitch": 71, "duration": 17, "velocity": 100}, {"time": 2378, "pitch": 71, "duration": 6, "velocity": 73}, {"time": 2384, "pitch": 78, "duration": 6, "velocity": 62}, {"time": 2390, "pitch": 76, "duration": 3, "velocity": 69}, {"time": 2396, "pitch": 73, "duration": 14, "velocity": 98}, {"time": 2414, "pitch": 69, "duration": 6, "velocity": 59}, {"time": 2420, "pitch": 71, "duration": 19, "velocity": 65}, {"time": 2474, "pitch": 78, "duration": 6, "velocity": 87}, {"time": 2480, "pitch": 76, "duration": 7, "velocity": 74}, {"time": 2486, "pitch": 74, "duration": 5, "velocity": 65}, {"time": 2492, "pitch": 73, "duration": 5, "velocity": 98}, {"time": 2498, "pitch": 74, "duration": 5, "velocity": 72}, {"time": 2504, "pitch": 73, "duration": 5, "velocity": 74}, {"time": 2510, "pitch": 74, "duration": 5, "velocity": 74}, {"time": 2516, "pitch": 73, "duration": 8, "velocity": 74}, {"time": 2528, "pitch": 71, "duration": 3, "velocity": 67}, {"time": 2534, "pitch": 71, "duration": 18, "velocity": 64}, {"time": 2570, "pitch": 78, "duration": 6, "velocity": 77}, {"time": 2576, "pitch": 76, "duration": 7, "velocity": 63}, {"time": 2582, "pitch": 74, "duration": 6, "velocity": 59}, {"time": 2588, "pitch": 73, "duration": 7, "velocity": 104}, {"time": 2594, "pitch": 74, "duration": 6, "velocity": 61}, {"time": 2600, "pitch": 69, "duration": 3, "velocity": 69}, {"time": 2606, "pitch": 69, "duration": 6, "velocity": 68}, {"time": 2612, "pitch": 76, "duration": 6, "velocity": 97}, {"time": 2624, "pitch": 78, "duration": 3, "velocity": 67}, {"time": 2630, "pitch": 78, "duration": 23, "velocity": 74}, {"time": 2666, "pitch": 83, "duration": 6, "velocity": 77}, {"time": 2672, "pitch": 81, "duration": 6, "velocity": 85}, {"time": 2678, "pitch": 76, "duration": 10, "velocity": 86}, {"time": 2690, "pitch": 76, "duration": 6, "velocity": 98}, {"time": 2696, "pitch": 74, "duration": 4, "velocity": 93}, {"time": 2702, "pitch": 73, "duration": 4, "velocity": 108}, {"time": 2708, "pitch": 73, "duration": 8, "velocity": 111}, {"time": 2717, "pitch": 74, "duration": 3, "velocity": 76}, {"time": 2726, "pitch": 73, "duration": 5, "velocity": 74}, {"time": 2732, "pitch": 71, "duration": 19, "velocity": 74}, {"time": 2762, "pitch": 71, "duration": 6, "velocity": 73}, {"time": 2768, "pitch": 78, "duration": 6, "velocity": 83}, {"time": 2774, "pitch": 76, "duration": 8, "velocity": 70}, {"time": 2786, "pitch": 73, "duration": 7, "velocity": 83}, {"time": 2798, "pitch": 74, "duration": 5, "velocity": 79}, {"time": 2804, "pitch": 73, "duration": 7, "velocity": 85}, {"time": 2813, "pitch": 71, "duration": 27, "velocity": 70}, {"time": 2936, "pitch": 78, "duration": 6, "velocity": 85}, {"time": 2942, "pitch": 81, "duration": 5, "velocity": 86}, {"time": 2948, "pitch": 83, "duration": 13, "velocity": 75}, {"time": 2966, "pitch": 83, "duration": 7, "velocity": 86}, {"time": 2972, "pitch": 81, "duration": 6, "velocity": 90}, {"time": 2978, "pitch": 76, "duration": 6, "velocity": 74}, {"time": 2984, "pitch": 74, "duration": 7, "velocity": 72}, {"time": 2990, "pitch": 76, "duration": 5, "velocity": 83}, {"time": 2996, "pitch": 78, "duration": 7, "velocity": 81}, {"time": 3002, "pitch": 81, "duration": 6, "velocity": 77}, {"time": 3008, "pitch": 76, "duration": 6, "velocity": 69}, {"time": 3014, "pitch": 78, "duration": 5, "velocity": 81}, {"time": 3020, "pitch": 74, "duration": 7, "velocity": 73}, {"time": 3032, "pitch": 78, "duration": 5, "velocity": 87}, {"time": 3038, "pitch": 81, "duration": 5, "velocity": 74}, {"time": 3044, "pitch": 83, "duration": 13, "velocity": 93}, {"time": 3062, "pitch": 83, "duration": 6, "velocity": 86}, {"time": 3068, "pitch": 81, "duration": 3, "velocity": 100}, {"time": 3074, "pitch": 76, "duration": 5, "velocity": 66}, {"time": 3080, "pitch": 74, "duration": 6, "velocity": 65}, {"time": 3086, "pitch": 76, "duration": 4, "velocity": 74}, {"time": 3098, "pitch": 78, "duration": 24, "velocity": 77}, {"time": 3128, "pitch": 78, "duration": 5, "velocity": 104}, {"time": 3134, "pitch": 81, "duration": 5, "velocity": 86}, {"time": 3140, "pitch": 83, "duration": 12, "velocity": 95}, {"time": 3158, "pitch": 83, "duration": 6, "velocity": 86}, {"time": 3164, "pitch": 81, "duration": 3, "velocity": 81}, {"time": 3170, "pitch": 76, "duration": 6, "velocity": 70}, {"time": 3176, "pitch": 74, "duration": 5, "velocity": 83}, {"time": 3182, "pitch": 76, "duration": 5, "velocity": 70}, {"time": 3188, "pitch": 78, "duration": 4, "velocity": 62}, {"time": 3194, "pitch": 81, "duration": 2, "velocity": 90}, {"time": 3200, "pitch": 81, "duration": 3, "velocity": 104}, {"time": 3206, "pitch": 76, "duration": 4, "velocity": 93}, {"time": 3212, "pitch": 74, "duration": 8, "velocity": 90}, {"time": 3224, "pitch": 78, "duration": 6, "velocity": 90}, {"time": 3230, "pitch": 76, "duration": 6, "velocity": 76}, {"time": 3236, "pitch": 71, "duration": 10, "velocity": 85}, {"time": 3248, "pitch": 78, "duration": 9, "velocity": 83}, {"time": 3260, "pitch": 76, "duration": 6, "velocity": 111}, {"time": 3269, "pitch": 74, "duration": 5, "velocity": 98}, {"time": 3277, "pitch": 76, "duration": 4, "velocity": 93}, {"time": 3284, "pitch": 78, "duration": 30, "velocity": 100}, {"time": 3368, "pitch": 79, "duration": 6, "velocity": 85}, {"time": 3374, "pitch": 82, "duration": 5, "velocity": 86}, {"time": 3380, "pitch": 84, "duration": 13, "velocity": 75}, {"time": 3398, "pitch": 84, "duration": 7, "velocity": 86}, {"time": 3404, "pitch": 82, "duration": 6, "velocity": 90}, {"time": 3410, "pitch": 77, "duration": 6, "velocity": 74}, {"time": 3416, "pitch": 75, "duration": 7, "velocity": 72}, {"time": 3422, "pitch": 77, "duration": 5, "velocity": 83}, {"time": 3428, "pitch": 79, "duration": 7, "velocity": 81}, {"time": 3434, "pitch": 82, "duration": 6, "velocity": 77}, {"time": 3440, "pitch": 77, "duration": 6, "velocity": 69}, {"time": 3446, "pitch": 79, "duration": 5, "velocity": 81}, {"time": 3452, "pitch": 75, "duration": 7, "velocity": 73}, {"time": 3464, "pitch": 79, "duration": 5, "velocity": 87}, {"time": 3470, "pitch": 82, "duration": 5, "velocity": 74}, {"time": 3476, "pitch": 84, "duration": 13, "velocity": 93}, {"time": 3494, "pitch": 87, "duration": 5, "velocity": 100}, {"time": 3500, "pitch": 86, "duration": 5, "velocity": 85}, {"time": 3506, "pitch": 84, "duration": 7, "velocity": 68}, {"time": 3512, "pitch": 82, "duration": 5, "velocity": 90}, {"time": 3518, "pitch": 77, "duration": 8, "velocity": 81}, {"time": 3530, "pitch": 79, "duration": 24, "velocity": 77}, {"time": 3560, "pitch": 79, "duration": 5, "velocity": 104}, {"time": 3566, "pitch": 82, "duration": 5, "velocity": 86}, {"time": 3572, "pitch": 84, "duration": 12, "velocity": 95}, {"time": 3590, "pitch": 84, "duration": 6, "velocity": 86}, {"time": 3596, "pitch": 82, "duration": 3, "velocity": 81}, {"time": 3602, "pitch": 77, "duration": 6, "velocity": 70}, {"time": 3608, "pitch": 75, "duration": 5, "velocity": 83}, {"time": 3614, "pitch": 77, "duration": 5, "velocity": 70}, {"time": 3620, "pitch": 79, "duration": 4, "velocity": 62}, {"time": 3626, "pitch": 82, "duration": 2, "velocity": 90}, {"time": 3632, "pitch": 82, "duration": 3, "velocity": 104}, {"time": 3638, "pitch": 77, "duration": 4, "velocity": 93}, {"time": 3644, "pitch": 75, "duration": 8, "velocity": 90}, {"time": 3656, "pitch": 79, "duration": 6, "velocity": 90}, {"time": 3662, "pitch": 77, "duration": 6, "velocity": 76}, {"time": 3668, "pitch": 72, "duration": 4, "velocity": 85}, {"time": 3674, "pitch": 79, "duration": 15, "velocity": 74}, {"time": 3692, "pitch": 77, "duration": 6, "velocity": 71}, {"time": 3701, "pitch": 75, "duration": 6, "velocity": 79}, {"time": 3710, "pitch": 74, "duration": 7, "velocity": 83}, {"time": 3722, "pitch": 72, "duration": 18, "velocity": 68}, {"time": 3752, "pitch": 79, "duration": 6, "velocity": 95}, {"time": 3758, "pitch": 77, "duration": 6, "velocity": 65}, {"time": 3764, "pitch": 72, "duration": 8, "velocity": 71}, {"time": 3770, "pitch": 79, "duration": 15, "velocity": 71}, {"time": 3788, "pitch": 77, "duration": 8, "velocity": 100}, {"time": 3797, "pitch": 75, "duration": 8, "velocity": 63}, {"time": 3806, "pitch": 74, "duration": 6, "velocity": 69}, {"time": 3812, "pitch": 75, "duration": 23, "velocity": 64}, {"time": 3839, "pitch": 74, "duration": 15, "velocity": 66}, {"time": 3851, "pitch": 72, "duration": 40, "velocity": 74}], "annotations": [{"time": 476, "annotation": {"number": 64, "value": 81}, "group": "control_change"}, {"time": 488, "annotation": {"number": 64, "value": 85}, "group": "control_change"}, {"time": 692, "annotation": {"number": 64, "value": 81}, "group": "control_change"}, {"time": 704, "annotation": {"number": 64, "value": 76}, "group": "control_change"}, {"time": 716, "annotation": {"number": 64, "value": 74}, "group": "control_change"}]}, {"program": 0, "is_drum": false, "name": "PIANO", "notes": [{"time": 31, "pitch": 43, "duration": 37, "velocity": 59}, {"time": 36, "pitch": 50, "duration": 32, "velocity": 58}, {"time": 43, "pitch": 55, "duration": 24, "velocity": 55}, {"time": 48, "pitch": 59, "duration": 20, "velocity": 47}, {"time": 54, "pitch": 67, "duration": 15, "velocity": 51}, {"time": 80, "pitch": 42, "duration": 51, "velocity": 56}, {"time": 88, "pitch": 49, "duration": 43, "velocity": 11}, {"time": 93, "pitch": 54, "duration": 38, "velocity": 56}, {"time": 100, "pitch": 62, "duration": 31, "velocity": 51}, {"time": 106, "pitch": 66, "duration": 25, "velocity": 43}, {"time": 133, "pitch": 40, "duration": 17, "velocity": 65}, {"time": 140, "pitch": 47, "duration": 10, "velocity": 51}, {"time": 147, "pitch": 55, "duration": 7, "velocity": 62}, {"time": 153, "pitch": 59, "duration": 6, "velocity": 64}, {"time": 160, "pitch": 45, "duration": 23, "velocity": 72}, {"time": 166, "pitch": 49, "duration": 16, "velocity": 63}, {"time": 173, "pitch": 61, "duration": 13, "velocity": 58}, {"time": 180, "pitch": 66, "duration": 7, "velocity": 52}, {"time": 186, "pitch": 50, "duration": 22, "velocity": 79}, {"time": 192, "pitch": 57, "duration": 26, "velocity": 58}, {"time": 199, "pitch": 64, "duration": 8, "velocity": 64}, {"time": 206, "pitch": 66, "duration": 16, "velocity": 60}, {"time": 212, "pitch": 49, "duration": 29, "velocity": 62}, {"time": 219, "pitch": 54, "duration": 22, "velocity": 58}, {"time": 225, "pitch": 57, "duration": 16, "velocity": 15}, {"time": 232, "pitch": 61, "duration": 7, "velocity": 61}, {"time": 238, "pitch": 43, "duration": 20, "velocity": 60}, {"time": 245, "pitch": 50, "duration": 14, "velocity": 51}, {"time": 251, "pitch": 59, "duration": 9, "velocity": 53}, {"time": 258, "pitch": 62, "duration": 7, "velocity": 61}, {"time": 264, "pitch": 45, "duration": 27, "velocity": 62}, {"time": 271, "pitch": 49, "duration": 19, "velocity": 56}, {"time": 277, "pitch": 66, "duration": 13, "velocity": 58}, {"time": 284, "pitch": 69, "duration": 6, "velocity": 60}, {"time": 290, "pitch": 42, "duration": 23, "velocity": 65}, {"time": 297, "pitch": 54, "duration": 15, "velocity": 54}, {"time": 303, "pitch": 61, "duration": 8, "velocity": 59}, {"time": 310, "pitch": 66, "duration": 7, "velocity": 58}, {"time": 317, "pitch": 47, "duration": 18, "velocity": 64}, {"time": 323, "pitch": 50, "duration": 13, "velocity": 59}, {"time": 329, "pitch": 54, "duration": 6, "velocity": 60}, {"time": 335, "pitch": 66, "duration": 8, "velocity": 63}, {"time": 342, "pitch": 43, "duration": 21, "velocity": 63}, {"time": 349, "pitch": 50, "duration": 19, "velocity": 62}, {"time": 356, "pitch": 62, "duration": 7, "velocity": 54}, {"time": 356, "pitch": 59, "duration": 10, "velocity": 54}, {"time": 362, "pitch": 55, "duration": 6, "velocity": 46}, {"time": 368, "pitch": 45, "duration": 21, "velocity": 72}, {"time": 369, "pitch": 61, "duration": 12, "velocity": 53}, {"time": 369, "pitch": 64, "duration": 8, "velocity": 64}, {"time": 375, "pitch": 52, "duration": 20, "velocity": 52}, {"time": 382, "pitch": 61, "duration": 8, "velocity": 64}, {"time": 382, "pitch": 64, "duration": 7, "velocity": 63}, {"time": 396, "pitch": 47, "duration": 46, "velocity": 64}, {"time": 402, "pitch": 50, "duration": 40, "velocity": 59}, {"time": 408, "pitch": 54, "duration": 34, "velocity": 58}, {"time": 415, "pitch": 62, "duration": 31, "velocity": 58}, {"time": 420, "pitch": 86, "duration": 3, "velocity": 54}, {"time": 420, "pitch": 83, "duration": 25, "velocity": 31}, {"time": 421, "pitch": 90, "duration": 25, "velocity": 53}, {"time": 421, "pitch": 66, "duration": 22, "velocity": 63}, {"time": 447, "pitch": 47, "duration": 43, "velocity": 63}, {"time": 453, "pitch": 50, "duration": 37, "velocity": 56}, {"time": 459, "pitch": 54, "duration": 31, "velocity": 58}, {"time": 466, "pitch": 62, "duration": 25, "velocity": 53}, {"time": 470, "pitch": 83, "duration": 18, "velocity": 15}, {"time": 471, "pitch": 86, "duration": 4, "velocity": 50}, {"time": 471, "pitch": 90, "duration": 24, "velocity": 53}, {"time": 473, "pitch": 66, "duration": 18, "velocity": 58}, {"time": 500, "pitch": 43, "duration": 20, "velocity": 72}, {"time": 500, "pitch": 66, "duration": 21, "velocity": 87}, {"time": 506, "pitch": 50, "duration": 17, "velocity": 62}, {"time": 512, "pitch": 59, "duration": 13, "velocity": 63}, {"time": 524, "pitch": 45, "duration": 20, "velocity": 70}, {"time": 524, "pitch": 64, "duration": 19, "velocity": 81}, {"time": 530, "pitch": 52, "duration": 17, "velocity": 50}, {"time": 536, "pitch": 61, "duration": 13, "velocity": 58}, {"time": 548, "pitch": 42, "duration": 14, "velocity": 66}, {"time": 548, "pitch": 64, "duration": 11, "velocity": 76}, {"time": 554, "pitch": 49, "duration": 11, "velocity": 60}, {"time": 560, "pitch": 54, "duration": 10, "velocity": 59}, {"time": 560, "pitch": 66, "duration": 6, "velocity": 67}, {"time": 566, "pitch": 64, "duration": 6, "velocity": 72}, {"time": 572, "pitch": 47, "duration": 12, "velocity": 67}, {"time": 572, "pitch": 62, "duration": 18, "velocity": 76}, {"time": 578, "pitch": 54, "duration": 7, "velocity": 63}, {"time": 584, "pitch": 59, "duration": 6, "velocity": 63}, {"time": 590, "pitch": 61, "duration": 6, "velocity": 67}, {"time": 596, "pitch": 43, "duration": 17, "velocity": 71}, {"time": 596, "pitch": 62, "duration": 24, "velocity": 86}, {"time": 602, "pitch": 50, "duration": 17, "velocity": 65}, {"time": 608, "pitch": 59, "duration": 14, "velocity": 60}, {"time": 620, "pitch": 45, "duration": 16, "velocity": 66}, {"time": 620, "pitch": 59, "duration": 2, "velocity": 65}, {"time": 626, "pitch": 52, "duration": 11, "velocity": 51}, {"time": 632, "pitch": 57, "duration": 9, "velocity": 61}, {"time": 644, "pitch": 47, "duration": 41, "velocity": 77}, {"time": 644, "pitch": 66, "duration": 46, "velocity": 81}, {"time": 650, "pitch": 54, "duration": 32, "velocity": 66}, {"time": 656, "pitch": 59, "duration": 6, "velocity": 63}, {"time": 662, "pitch": 61, "duration": 6, "velocity": 64}, {"time": 668, "pitch": 62, "duration": 17, "velocity": 87}, {"time": 692, "pitch": 43, "duration": 22, "velocity": 66}, {"time": 692, "pitch": 66, "duration": 15, "velocity": 85}, {"time": 698, "pitch": 50, "duration": 18, "velocity": 61}, {"time": 704, "pitch": 59, "duration": 12, "velocity": 63}, {"time": 710, "pitch": 66, "duration": 5, "velocity": 65}, {"time": 716, "pitch": 45, "duration": 20, "velocity": 76}, {"time": 716, "pitch": 64, "duration": 20, "velocity": 74}, {"time": 722, "pitch": 52, "duration": 16, "velocity": 59}, {"time": 728, "pitch": 61, "duration": 11, "velocity": 55}, {"time": 740, "pitch": 42, "duration": 19, "velocity": 73}, {"time": 740, "pitch": 64, "duration": 8, "velocity": 83}, {"time": 746, "pitch": 49, "duration": 12, "velocity": 14}, {"time": 752, "pitch": 54, "duration": 7, "velocity": 49}, {"time": 752, "pitch": 66, "duration": 3, "velocity": 71}, {"time": 758, "pitch": 64, "duration": 3, "velocity": 70}, {"time": 764, "pitch": 47, "duration": 25, "velocity": 76}, {"time": 764, "pitch": 62, "duration": 9, "velocity": 75}, {"time": 770, "pitch": 54, "duration": 18, "velocity": 62}, {"time": 776, "pitch": 59, "duration": 6, "velocity": 59}, {"time": 782, "pitch": 62, "duration": 5, "velocity": 62}, {"time": 788, "pitch": 43, "duration": 17, "velocity": 63}, {"time": 788, "pitch": 59, "duration": 24, "velocity": 60}, {"time": 794, "pitch": 50, "duration": 17, "velocity": 59}, {"time": 794, "pitch": 71, "duration": 6, "velocity": 72}, {"time": 800, "pitch": 78, "duration": 5, "velocity": 64}, {"time": 806, "pitch": 74, "duration": 3, "velocity": 68}, {"time": 812, "pitch": 45, "duration": 20, "velocity": 73}, {"time": 812, "pitch": 73, "duration": 20, "velocity": 75}, {"time": 818, "pitch": 52, "duration": 13, "velocity": 62}, {"time": 824, "pitch": 61, "duration": 7, "velocity": 50}, {"time": 836, "pitch": 47, "duration": 43, "velocity": 41}, {"time": 836, "pitch": 50, "duration": 43, "velocity": 60}, {"time": 836, "pitch": 62, "duration": 42, "velocity": 45}, {"time": 836, "pitch": 66, "duration": 14, "velocity": 49}, {"time": 836, "pitch": 71, "duration": 35, "velocity": 79}, {"time": 842, "pitch": 54, "duration": 36, "velocity": 54}, {"time": 854, "pitch": 66, "duration": 25, "velocity": 59}, {"time": 884, "pitch": 43, "duration": 19, "velocity": 77}, {"time": 884, "pitch": 66, "duration": 14, "velocity": 90}, {"time": 890, "pitch": 50, "duration": 18, "velocity": 59}, {"time": 896, "pitch": 59, "duration": 7, "velocity": 59}, {"time": 896, "pitch": 62, "duration": 7, "velocity": 66}, {"time": 902, "pitch": 69, "duration": 5, "velocity": 77}, {"time": 908, "pitch": 45, "duration": 23, "velocity": 75}, {"time": 908, "pitch": 64, "duration": 18, "velocity": 69}, {"time": 914, "pitch": 52, "duration": 18, "velocity": 54}, {"time": 920, "pitch": 61, "duration": 11, "velocity": 60}, {"time": 926, "pitch": 64, "duration": 1, "velocity": 64}, {"time": 932, "pitch": 42, "duration": 20, "velocity": 63}, {"time": 932, "pitch": 64, "duration": 10, "velocity": 86}, {"time": 938, "pitch": 54, "duration": 14, "velocity": 58}, {"time": 941, "pitch": 66, "duration": 7, "velocity": 74}, {"time": 944, "pitch": 61, "duration": 8, "velocity": 73}, {"time": 950, "pitch": 64, "duration": 6, "velocity": 66}, {"time": 956, "pitch": 47, "duration": 23, "velocity": 59}, {"time": 956, "pitch": 62, "duration": 22, "velocity": 58}, {"time": 956, "pitch": 62, "duration": 22, "velocity": 62}, {"time": 962, "pitch": 50, "duration": 18, "velocity": 62}, {"time": 968, "pitch": 54, "duration": 11, "velocity": 37}, {"time": 980, "pitch": 43, "duration": 17, "velocity": 62}, {"time": 980, "pitch": 59, "duration": 15, "velocity": 58}, {"time": 980, "pitch": 62, "duration": 16, "velocity": 66}, {"time": 986, "pitch": 50, "duration": 17, "velocity": 66}, {"time": 992, "pitch": 55, "duration": 6, "velocity": 54}, {"time": 998, "pitch": 59, "duration": 3, "velocity": 58}, {"time": 998, "pitch": 62, "duration": 4, "velocity": 65}, {"time": 1004, "pitch": 45, "duration": 22, "velocity": 68}, {"time": 1010, "pitch": 52, "duration": 18, "velocity": 62}, {"time": 1016, "pitch": 57, "duration": 10, "velocity": 54}, {"time": 1022, "pitch": 61, "duration": 10, "velocity": 63}, {"time": 1028, "pitch": 38, "duration": 36, "velocity": 62}, {"time": 1034, "pitch": 45, "duration": 31, "velocity": 49}, {"time": 1040, "pitch": 50, "duration": 24, "velocity": 58}, {"time": 1046, "pitch": 62, "duration": 16, "velocity": 51}, {"time": 1046, "pitch": 66, "duration": 17, "velocity": 61}, {"time": 1064, "pitch": 62, "duration": 11, "velocity": 61}, {"time": 1064, "pitch": 66, "duration": 11, "velocity": 63}, {"time": 1076, "pitch": 43, "duration": 18, "velocity": 76}, {"time": 1082, "pitch": 50, "duration": 19, "velocity": 64}, {"time": 1088, "pitch": 59, "duration": 7, "velocity": 59}, {"time": 1088, "pitch": 62, "duration": 7, "velocity": 64}, {"time": 1094, "pitch": 55, "duration": 6, "velocity": 46}, {"time": 1100, "pitch": 45, "duration": 22, "velocity": 63}, {"time": 1100, "pitch": 61, "duration": 15, "velocity": 57}, {"time": 1100, "pitch": 64, "duration": 13, "velocity": 71}, {"time": 1106, "pitch": 52, "duration": 16, "velocity": 53}, {"time": 1112, "pitch": 57, "duration": 9, "velocity": 53}, {"time": 1118, "pitch": 61, "duration": 5, "velocity": 67}, {"time": 1118, "pitch": 64, "duration": 4, "velocity": 73}, {"time": 1124, "pitch": 42, "duration": 18, "velocity": 60}, {"time": 1124, "pitch": 61, "duration": 15, "velocity": 71}, {"time": 1127, "pitch": 66, "duration": 9, "velocity": 9}, {"time": 1130, "pitch": 54, "duration": 8, "velocity": 63}, {"time": 1136, "pitch": 49, "duration": 6, "velocity": 63}, {"time": 1142, "pitch": 61, "duration": 5, "velocity": 71}, {"time": 1142, "pitch": 66, "duration": 4, "velocity": 38}, {"time": 1148, "pitch": 47, "duration": 18, "velocity": 86}, {"time": 1154, "pitch": 50, "duration": 13, "velocity": 64}, {"time": 1160, "pitch": 54, "duration": 7, "velocity": 65}, {"time": 1166, "pitch": 62, "duration": 6, "velocity": 61}, {"time": 1166, "pitch": 66, "duration": 6, "velocity": 65}, {"time": 1172, "pitch": 43, "duration": 20, "velocity": 62}, {"time": 1178, "pitch": 50, "duration": 19, "velocity": 59}, {"time": 1184, "pitch": 59, "duration": 7, "velocity": 60}, {"time": 1184, "pitch": 62, "duration": 7, "velocity": 63}, {"time": 1190, "pitch": 55, "duration": 5, "velocity": 43}, {"time": 1196, "pitch": 45, "duration": 19, "velocity": 81}, {"time": 1202, "pitch": 52, "duration": 17, "velocity": 67}, {"time": 1208, "pitch": 57, "duration": 8, "velocity": 54}, {"time": 1208, "pitch": 61, "duration": 12, "velocity": 71}, {"time": 1208, "pitch": 64, "duration": 11, "velocity": 73}, {"time": 1220, "pitch": 47, "duration": 21, "velocity": 60}, {"time": 1220, "pitch": 54, "duration": 21, "velocity": 68}, {"time": 1220, "pitch": 59, "duration": 10, "velocity": 62}, {"time": 1220, "pitch": 62, "duration": 11, "velocity": 64}, {"time": 1220, "pitch": 66, "duration": 11, "velocity": 59}, {"time": 1232, "pitch": 59, "duration": 8, "velocity": 67}, {"time": 1232, "pitch": 62, "duration": 8, "velocity": 69}, {"time": 1232, "pitch": 66, "duration": 8, "velocity": 64}, {"time": 1244, "pitch": 45, "duration": 17, "velocity": 81}, {"time": 1244, "pitch": 57, "duration": 11, "velocity": 63}, {"time": 1244, "pitch": 61, "duration": 11, "velocity": 100}, {"time": 1244, "pitch": 64, "duration": 11, "velocity": 74}, {"time": 1256, "pitch": 57, "duration": 5, "velocity": 67}, {"time": 1256, "pitch": 61, "duration": 6, "velocity": 90}, {"time": 1256, "pitch": 64, "duration": 5, "velocity": 75}, {"time": 1268, "pitch": 43, "duration": 19, "velocity": 60}, {"time": 1268, "pitch": 59, "duration": 10, "velocity": 68}, {"time": 1268, "pitch": 62, "duration": 11, "velocity": 67}, {"time": 1268, "pitch": 67, "duration": 11, "velocity": 79}, {"time": 1274, "pitch": 50, "duration": 14, "velocity": 72}, {"time": 1280, "pitch": 59, "duration": 5, "velocity": 63}, {"time": 1280, "pitch": 62, "duration": 6, "velocity": 62}, {"time": 1280, "pitch": 67, "duration": 6, "velocity": 67}, {"time": 1286, "pitch": 55, "duration": 2, "velocity": 58}, {"time": 1292, "pitch": 45, "duration": 23, "velocity": 77}, {"time": 1292, "pitch": 61, "duration": 10, "velocity": 42}, {"time": 1292, "pitch": 64, "duration": 9, "velocity": 63}, {"time": 1292, "pitch": 69, "duration": 9, "velocity": 75}, {"time": 1298, "pitch": 52, "duration": 17, "velocity": 61}, {"time": 1304, "pitch": 61, "duration": 11, "velocity": 90}, {"time": 1304, "pitch": 64, "duration": 9, "velocity": 85}, {"time": 1304, "pitch": 69, "duration": 8, "velocity": 79}, {"time": 1316, "pitch": 50, "duration": 7, "velocity": 74}, {"time": 1316, "pitch": 62, "duration": 6, "velocity": 66}, {"time": 1316, "pitch": 66, "duration": 7, "velocity": 74}, {"time": 1316, "pitch": 69, "duration": 8, "velocity": 74}, {"time": 1328, "pitch": 49, "duration": 6, "velocity": 83}, {"time": 1328, "pitch": 61, "duration": 6, "velocity": 98}, {"time": 1328, "pitch": 66, "duration": 5, "velocity": 67}, {"time": 1328, "pitch": 69, "duration": 5, "velocity": 69}, {"time": 1340, "pitch": 47, "duration": 18, "velocity": 75}, {"time": 1340, "pitch": 54, "duration": 15, "velocity": 66}, {"time": 1340, "pitch": 59, "duration": 10, "velocity": 65}, {"time": 1340, "pitch": 62, "duration": 10, "velocity": 74}, {"time": 1340, "pitch": 66, "duration": 10, "velocity": 63}, {"time": 1352, "pitch": 59, "duration": 5, "velocity": 75}, {"time": 1352, "pitch": 62, "duration": 5, "velocity": 81}, {"time": 1352, "pitch": 66, "duration": 5, "velocity": 76}, {"time": 1364, "pitch": 43, "duration": 20, "velocity": 66}, {"time": 1364, "pitch": 55, "duration": 10, "velocity": 61}, {"time": 1364, "pitch": 59, "duration": 10, "velocity": 58}, {"time": 1364, "pitch": 62, "duration": 11, "velocity": 62}, {"time": 1376, "pitch": 55, "duration": 6, "velocity": 73}, {"time": 1376, "pitch": 59, "duration": 6, "velocity": 70}, {"time": 1376, "pitch": 62, "duration": 6, "velocity": 69}, {"time": 1388, "pitch": 45, "duration": 23, "velocity": 65}, {"time": 1388, "pitch": 57, "duration": 10, "velocity": 65}, {"time": 1388, "pitch": 61, "duration": 10, "velocity": 86}, {"time": 1388, "pitch": 64, "duration": 11, "velocity": 71}, {"time": 1400, "pitch": 57, "duration": 5, "velocity": 68}, {"time": 1400, "pitch": 61, "duration": 5, "velocity": 93}, {"time": 1400, "pitch": 64, "duration": 6, "velocity": 73}, {"time": 1412, "pitch": 50, "duration": 24, "velocity": 61}, {"time": 1412, "pitch": 62, "duration": 11, "velocity": 71}, {"time": 1412, "pitch": 66, "duration": 11, "velocity": 71}, {"time": 1412, "pitch": 69, "duration": 11, "velocity": 71}, {"time": 1424, "pitch": 62, "duration": 11, "velocity": 70}, {"time": 1424, "pitch": 66, "duration": 11, "velocity": 71}, {"time": 1424, "pitch": 69, "duration": 11, "velocity": 76}, {"time": 1436, "pitch": 50, "duration": 9, "velocity": 62}, {"time": 1436, "pitch": 62, "duration": 10, "velocity": 68}, {"time": 1436, "pitch": 66, "duration": 12, "velocity": 74}, {"time": 1436, "pitch": 69, "duration": 11, "velocity": 79}, {"time": 1448, "pitch": 50, "duration": 6, "velocity": 72}, {"time": 1448, "pitch": 62, "duration": 7, "velocity": 66}, {"time": 1448, "pitch": 66, "duration": 1, "velocity": 65}, {"time": 1448, "pitch": 69, "duration": 7, "velocity": 70}, {"time": 1460, "pitch": 43, "duration": 12, "velocity": 70}, {"time": 1460, "pitch": 43, "duration": 12, "velocity": 81}, {"time": 1460, "pitch": 55, "duration": 10, "velocity": 68}, {"time": 1460, "pitch": 59, "duration": 10, "velocity": 61}, {"time": 1460, "pitch": 62, "duration": 10, "velocity": 62}, {"time": 1472, "pitch": 55, "duration": 5, "velocity": 68}, {"time": 1472, "pitch": 59, "duration": 5, "velocity": 67}, {"time": 1472, "pitch": 62, "duration": 6, "velocity": 62}, {"time": 1484, "pitch": 45, "duration": 19, "velocity": 58}, {"time": 1484, "pitch": 57, "duration": 10, "velocity": 60}, {"time": 1484, "pitch": 61, "duration": 10, "velocity": 87}, {"time": 1484, "pitch": 64, "duration": 11, "velocity": 67}, {"time": 1496, "pitch": 57, "duration": 4, "velocity": 66}, {"time": 1496, "pitch": 61, "duration": 5, "velocity": 93}, {"time": 1496, "pitch": 64, "duration": 4, "velocity": 69}, {"time": 1508, "pitch": 50, "duration": 8, "velocity": 77}, {"time": 1508, "pitch": 62, "duration": 6, "velocity": 75}, {"time": 1508, "pitch": 66, "duration": 8, "velocity": 74}, {"time": 1508, "pitch": 69, "duration": 8, "velocity": 71}, {"time": 1520, "pitch": 49, "duration": 6, "velocity": 71}, {"time": 1520, "pitch": 61, "duration": 6, "velocity": 86}, {"time": 1520, "pitch": 66, "duration": 6, "velocity": 71}, {"time": 1532, "pitch": 47, "duration": 17, "velocity": 70}, {"time": 1532, "pitch": 59, "duration": 9, "velocity": 64}, {"time": 1532, "pitch": 62, "duration": 9, "velocity": 69}, {"time": 1532, "pitch": 66, "duration": 10, "velocity": 62}, {"time": 1544, "pitch": 59, "duration": 5, "velocity": 74}, {"time": 1544, "pitch": 62, "duration": 5, "velocity": 73}, {"time": 1544, "pitch": 66, "duration": 5, "velocity": 74}, {"time": 1556, "pitch": 43, "duration": 25, "velocity": 67}, {"time": 1556, "pitch": 55, "duration": 10, "velocity": 74}, {"time": 1556, "pitch": 59, "duration": 10, "velocity": 71}, {"time": 1556, "pitch": 62, "duration": 11, "velocity": 65}, {"time": 1568, "pitch": 55, "duration": 5, "velocity": 69}, {"time": 1568, "pitch": 59, "duration": 5, "velocity": 69}, {"time": 1568, "pitch": 62, "duration": 6, "velocity": 65}, {"time": 1580, "pitch": 45, "duration": 24, "velocity": 79}, {"time": 1580, "pitch": 57, "duration": 10, "velocity": 67}, {"time": 1580, "pitch": 61, "duration": 10, "velocity": 85}, {"time": 1580, "pitch": 64, "duration": 10, "velocity": 77}, {"time": 1592, "pitch": 57, "duration": 5, "velocity": 73}, {"time": 1592, "pitch": 61, "duration": 6, "velocity": 86}, {"time": 1592, "pitch": 64, "duration": 6, "velocity": 76}, {"time": 1604, "pitch": 47, "duration": 45, "velocity": 81}, {"time": 1604, "pitch": 59, "duration": 9, "velocity": 60}, {"time": 1604, "pitch": 62, "duration": 10, "velocity": 68}, {"time": 1604, "pitch": 66, "duration": 10, "velocity": 62}, {"time": 1616, "pitch": 59, "duration": 10, "velocity": 67}, {"time": 1616, "pitch": 62, "duration": 11, "velocity": 67}, {"time": 1616, "pitch": 66, "duration": 11, "velocity": 62}, {"time": 1628, "pitch": 59, "duration": 21, "velocity": 59}, {"time": 1628, "pitch": 62, "duration": 21, "velocity": 65}, {"time": 1628, "pitch": 66, "duration": 20, "velocity": 60}, {"time": 1652, "pitch": 47, "duration": 40, "velocity": 71}, {"time": 1658, "pitch": 54, "duration": 34, "velocity": 61}, {"time": 1664, "pitch": 61, "duration": 7, "velocity": 74}, {"time": 1670, "pitch": 62, "duration": 27, "velocity": 86}, {"time": 1700, "pitch": 43, "duration": 16, "velocity": 67}, {"time": 1700, "pitch": 59, "duration": 17, "velocity": 60}, {"time": 1706, "pitch": 50, "duration": 15, "velocity": 56}, {"time": 1712, "pitch": 55, "duration": 8, "velocity": 51}, {"time": 1724, "pitch": 45, "duration": 18, "velocity": 67}, {"time": 1724, "pitch": 61, "duration": 25, "velocity": 83}, {"time": 1730, "pitch": 52, "duration": 11, "velocity": 58}, {"time": 1733, "pitch": 57, "duration": 5, "velocity": 58}, {"time": 1748, "pitch": 42, "duration": 15, "velocity": 69}, {"time": 1754, "pitch": 54, "duration": 11, "velocity": 62}, {"time": 1760, "pitch": 61, "duration": 12, "velocity": 67}, {"time": 1772, "pitch": 47, "duration": 18, "velocity": 86}, {"time": 1778, "pitch": 50, "duration": 13, "velocity": 68}, {"time": 1784, "pitch": 66, "duration": 11, "velocity": 72}, {"time": 1790, "pitch": 62, "duration": 6, "velocity": 53}, {"time": 1796, "pitch": 43, "duration": 18, "velocity": 71}, {"time": 1802, "pitch": 50, "duration": 17, "velocity": 59}, {"time": 1808, "pitch": 55, "duration": 9, "velocity": 52}, {"time": 1814, "pitch": 59, "duration": 7, "velocity": 58}, {"time": 1820, "pitch": 45, "duration": 19, "velocity": 72}, {"time": 1826, "pitch": 52, "duration": 12, "velocity": 53}, {"time": 1832, "pitch": 57, "duration": 5, "velocity": 58}, {"time": 1832, "pitch": 61, "duration": 12, "velocity": 74}, {"time": 1838, "pitch": 69, "duration": 6, "velocity": 59}, {"time": 1838, "pitch": 73, "duration": 5, "velocity": 65}, {"time": 1844, "pitch": 50, "duration": 46, "velocity": 87}, {"time": 1850, "pitch": 57, "duration": 41, "velocity": 53}, {"time": 1856, "pitch": 66, "duration": 23, "velocity": 58}, {"time": 1862, "pitch": 62, "duration": 27, "velocity": 35}, {"time": 1862, "pitch": 69, "duration": 17, "velocity": 65}, {"time": 1868, "pitch": 74, "duration": 10, "velocity": 76}, {"time": 1877, "pitch": 54, "duration": 13, "velocity": 9}, {"time": 1880, "pitch": 66, "duration": 10, "velocity": 67}, {"time": 1880, "pitch": 69, "duration": 8, "velocity": 86}, {"time": 1880, "pitch": 74, "duration": 8, "velocity": 74}, {"time": 1892, "pitch": 43, "duration": 19, "velocity": 59}, {"time": 1892, "pitch": 50, "duration": 21, "velocity": 63}, {"time": 1892, "pitch": 55, "duration": 21, "velocity": 57}, {"time": 1892, "pitch": 59, "duration": 10, "velocity": 60}, {"time": 1892, "pitch": 62, "duration": 10, "velocity": 59}, {"time": 1892, "pitch": 67, "duration": 10, "velocity": 71}, {"time": 1904, "pitch": 59, "duration": 11, "velocity": 59}, {"time": 1904, "pitch": 62, "duration": 11, "velocity": 59}, {"time": 1904, "pitch": 67, "duration": 8, "velocity": 67}, {"time": 1907, "pitch": 78, "duration": 3, "velocity": 74}, {"time": 1910, "pitch": 76, "duration": 3, "velocity": 64}, {"time": 1913, "pitch": 74, "duration": 3, "velocity": 60}, {"time": 1916, "pitch": 45, "duration": 18, "velocity": 74}, {"time": 1916, "pitch": 71, "duration": 8, "velocity": 83}, {"time": 1922, "pitch": 52, "duration": 10, "velocity": 51}, {"time": 1928, "pitch": 61, "duration": 10, "velocity": 64}, {"time": 1928, "pitch": 69, "duration": 7, "velocity": 59}, {"time": 1931, "pitch": 64, "duration": 6, "velocity": 11}, {"time": 1931, "pitch": 76, "duration": 4, "velocity": 67}, {"time": 1934, "pitch": 74, "duration": 3, "velocity": 61}, {"time": 1937, "pitch": 73, "duration": 3, "velocity": 60}, {"time": 1940, "pitch": 42, "duration": 15, "velocity": 67}, {"time": 1940, "pitch": 69, "duration": 12, "velocity": 65}, {"time": 1946, "pitch": 54, "duration": 9, "velocity": 47}, {"time": 1952, "pitch": 61, "duration": 10, "velocity": 63}, {"time": 1964, "pitch": 47, "duration": 21, "velocity": 72}, {"time": 1970, "pitch": 50, "duration": 18, "velocity": 59}, {"time": 1970, "pitch": 71, "duration": 3, "velocity": 70}, {"time": 1970, "pitch": 74, "duration": 4, "velocity": 72}, {"time": 1976, "pitch": 54, "duration": 12, "velocity": 62}, {"time": 1976, "pitch": 74, "duration": 8, "velocity": 69}, {"time": 1976, "pitch": 81, "duration": 8, "velocity": 87}, {"time": 1988, "pitch": 43, "duration": 17, "velocity": 68}, {"time": 1994, "pitch": 50, "duration": 18, "velocity": 68}, {"time": 2000, "pitch": 55, "duration": 12, "velocity": 59}, {"time": 2006, "pitch": 67, "duration": 4, "velocity": 65}, {"time": 2006, "pitch": 74, "duration": 4, "velocity": 67}, {"time": 2012, "pitch": 45, "duration": 18, "velocity": 64}, {"time": 2012, "pitch": 67, "duration": 24, "velocity": 69}, {"time": 2012, "pitch": 73, "duration": 24, "velocity": 95}, {"time": 2018, "pitch": 49, "duration": 6, "velocity": 63}, {"time": 2024, "pitch": 52, "duration": 12, "velocity": 56}, {"time": 2030, "pitch": 57, "duration": 6, "velocity": 58}, {"time": 2036, "pitch": 50, "duration": 24, "velocity": 60}, {"time": 2042, "pitch": 57, "duration": 31, "velocity": 57}, {"time": 2048, "pitch": 62, "duration": 25, "velocity": 51}, {"time": 2054, "pitch": 54, "duration": 19, "velocity": 63}, {"time": 2060, "pitch": 49, "duration": 12, "velocity": 73}, {"time": 2060, "pitch": 66, "duration": 13, "velocity": 58}, {"time": 2060, "pitch": 69, "duration": 12, "velocity": 68}, {"time": 2084, "pitch": 43, "duration": 20, "velocity": 72}, {"time": 2084, "pitch": 66, "duration": 21, "velocity": 87}, {"time": 2090, "pitch": 50, "duration": 17, "velocity": 62}, {"time": 2096, "pitch": 59, "duration": 13, "velocity": 63}, {"time": 2108, "pitch": 45, "duration": 20, "velocity": 70}, {"time": 2108, "pitch": 64, "duration": 19, "velocity": 81}, {"time": 2114, "pitch": 52, "duration": 17, "velocity": 50}, {"time": 2120, "pitch": 61, "duration": 13, "velocity": 58}, {"time": 2132, "pitch": 42, "duration": 14, "velocity": 66}, {"time": 2132, "pitch": 64, "duration": 11, "velocity": 76}, {"time": 2138, "pitch": 49, "duration": 11, "velocity": 60}, {"time": 2144, "pitch": 54, "duration": 10, "velocity": 59}, {"time": 2144, "pitch": 66, "duration": 6, "velocity": 67}, {"time": 2150, "pitch": 64, "duration": 6, "velocity": 72}, {"time": 2156, "pitch": 47, "duration": 12, "velocity": 67}, {"time": 2156, "pitch": 62, "duration": 18, "velocity": 76}, {"time": 2162, "pitch": 54, "duration": 7, "velocity": 63}, {"time": 2168, "pitch": 59, "duration": 6, "velocity": 63}, {"time": 2174, "pitch": 61, "duration": 6, "velocity": 67}, {"time": 2180, "pitch": 43, "duration": 17, "velocity": 71}, {"time": 2180, "pitch": 62, "duration": 24, "velocity": 86}, {"time": 2186, "pitch": 50, "duration": 17, "velocity": 65}, {"time": 2192, "pitch": 59, "duration": 14, "velocity": 60}, {"time": 2204, "pitch": 45, "duration": 16, "velocity": 66}, {"time": 2204, "pitch": 59, "duration": 2, "velocity": 65}, {"time": 2210, "pitch": 52, "duration": 11, "velocity": 51}, {"time": 2216, "pitch": 57, "duration": 9, "velocity": 61}, {"time": 2228, "pitch": 47, "duration": 41, "velocity": 77}, {"time": 2228, "pitch": 66, "duration": 46, "velocity": 81}, {"time": 2234, "pitch": 54, "duration": 32, "velocity": 66}, {"time": 2240, "pitch": 59, "duration": 6, "velocity": 63}, {"time": 2246, "pitch": 61, "duration": 6, "velocity": 64}, {"time": 2252, "pitch": 62, "duration": 17, "velocity": 87}, {"time": 2276, "pitch": 43, "duration": 22, "velocity": 66}, {"time": 2276, "pitch": 66, "duration": 15, "velocity": 85}, {"time": 2282, "pitch": 50, "duration": 18, "velocity": 61}, {"time": 2288, "pitch": 59, "duration": 12, "velocity": 63}, {"time": 2294, "pitch": 66, "duration": 5, "velocity": 65}, {"time": 2300, "pitch": 45, "duration": 20, "velocity": 76}, {"time": 2300, "pitch": 64, "duration": 20, "velocity": 74}, {"time": 2306, "pitch": 52, "duration": 16, "velocity": 59}, {"time": 2312, "pitch": 61, "duration": 11, "velocity": 55}, {"time": 2324, "pitch": 42, "duration": 19, "velocity": 73}, {"time": 2324, "pitch": 64, "duration": 8, "velocity": 83}, {"time": 2330, "pitch": 49, "duration": 12, "velocity": 14}, {"time": 2336, "pitch": 54, "duration": 7, "velocity": 49}, {"time": 2336, "pitch": 66, "duration": 3, "velocity": 71}, {"time": 2342, "pitch": 64, "duration": 3, "velocity": 70}, {"time": 2348, "pitch": 47, "duration": 25, "velocity": 76}, {"time": 2348, "pitch": 62, "duration": 9, "velocity": 75}, {"time": 2354, "pitch": 54, "duration": 18, "velocity": 62}, {"time": 2360, "pitch": 59, "duration": 6, "velocity": 59}, {"time": 2366, "pitch": 62, "duration": 5, "velocity": 62}, {"time": 2372, "pitch": 43, "duration": 17, "velocity": 63}, {"time": 2372, "pitch": 59, "duration": 24, "velocity": 60}, {"time": 2378, "pitch": 50, "duration": 17, "velocity": 59}, {"time": 2378, "pitch": 71, "duration": 6, "velocity": 72}, {"time": 2384, "pitch": 78, "duration": 5, "velocity": 64}, {"time": 2390, "pitch": 74, "duration": 3, "velocity": 68}, {"time": 2396, "pitch": 45, "duration": 20, "velocity": 73}, {"time": 2396, "pitch": 73, "duration": 20, "velocity": 75}, {"time": 2402, "pitch": 52, "duration": 13, "velocity": 62}, {"time": 2408, "pitch": 61, "duration": 7, "velocity": 50}, {"time": 2420, "pitch": 47, "duration": 43, "velocity": 41}, {"time": 2420, "pitch": 50, "duration": 43, "velocity": 60}, {"time": 2420, "pitch": 62, "duration": 42, "velocity": 45}, {"time": 2420, "pitch": 66, "duration": 14, "velocity": 49}, {"time": 2420, "pitch": 71, "duration": 35, "velocity": 79}, {"time": 2426, "pitch": 54, "duration": 36, "velocity": 54}, {"time": 2438, "pitch": 66, "duration": 25, "velocity": 59}, {"time": 2468, "pitch": 43, "duration": 19, "velocity": 77}, {"time": 2468, "pitch": 66, "duration": 14, "velocity": 90}, {"time": 2474, "pitch": 50, "duration": 18, "velocity": 59}, {"time": 2480, "pitch": 59, "duration": 7, "velocity": 59}, {"time": 2480, "pitch": 62, "duration": 7, "velocity": 66}, {"time": 2486, "pitch": 69, "duration": 5, "velocity": 77}, {"time": 2492, "pitch": 45, "duration": 23, "velocity": 75}, {"time": 2492, "pitch": 64, "duration": 18, "velocity": 69}, {"time": 2498, "pitch": 52, "duration": 18, "velocity": 54}, {"time": 2504, "pitch": 61, "duration": 11, "velocity": 60}, {"time": 2510, "pitch": 64, "duration": 1, "velocity": 64}, {"time": 2516, "pitch": 42, "duration": 20, "velocity": 63}, {"time": 2516, "pitch": 64, "duration": 10, "velocity": 86}, {"time": 2522, "pitch": 54, "duration": 14, "velocity": 58}, {"time": 2525, "pitch": 66, "duration": 7, "velocity": 74}, {"time": 2528, "pitch": 61, "duration": 8, "velocity": 73}, {"time": 2534, "pitch": 64, "duration": 6, "velocity": 66}, {"time": 2540, "pitch": 47, "duration": 23, "velocity": 59}, {"time": 2540, "pitch": 62, "duration": 22, "velocity": 58}, {"time": 2540, "pitch": 62, "duration": 22, "velocity": 62}, {"time": 2546, "pitch": 50, "duration": 18, "velocity": 62}, {"time": 2552, "pitch": 54, "duration": 11, "velocity": 37}, {"time": 2564, "pitch": 43, "duration": 17, "velocity": 62}, {"time": 2564, "pitch": 59, "duration": 15, "velocity": 58}, {"time": 2564, "pitch": 62, "duration": 16, "velocity": 66}, {"time": 2570, "pitch": 50, "duration": 17, "velocity": 66}, {"time": 2576, "pitch": 55, "duration": 6, "velocity": 54}, {"time": 2582, "pitch": 59, "duration": 3, "velocity": 58}, {"time": 2582, "pitch": 62, "duration": 4, "velocity": 65}, {"time": 2588, "pitch": 45, "duration": 22, "velocity": 68}, {"time": 2594, "pitch": 52, "duration": 18, "velocity": 62}, {"time": 2600, "pitch": 57, "duration": 10, "velocity": 54}, {"time": 2606, "pitch": 61, "duration": 10, "velocity": 63}, {"time": 2612, "pitch": 38, "duration": 36, "velocity": 62}, {"time": 2618, "pitch": 45, "duration": 31, "velocity": 49}, {"time": 2624, "pitch": 50, "duration": 24, "velocity": 58}, {"time": 2630, "pitch": 62, "duration": 16, "velocity": 51}, {"time": 2630, "pitch": 66, "duration": 17, "velocity": 61}, {"time": 2648, "pitch": 62, "duration": 11, "velocity": 61}, {"time": 2648, "pitch": 66, "duration": 11, "velocity": 63}, {"time": 2660, "pitch": 43, "duration": 18, "velocity": 76}, {"time": 2666, "pitch": 50, "duration": 19, "velocity": 64}, {"time": 2672, "pitch": 59, "duration": 7, "velocity": 59}, {"time": 2672, "pitch": 62, "duration": 7, "velocity": 64}, {"time": 2678, "pitch": 55, "duration": 6, "velocity": 46}, {"time": 2684, "pitch": 45, "duration": 22, "velocity": 63}, {"time": 2684, "pitch": 61, "duration": 15, "velocity": 57}, {"time": 2684, "pitch": 64, "duration": 13, "velocity": 71}, {"time": 2690, "pitch": 52, "duration": 16, "velocity": 53}, {"time": 2696, "pitch": 57, "duration": 9, "velocity": 53}, {"time": 2702, "pitch": 61, "duration": 5, "velocity": 67}, {"time": 2702, "pitch": 64, "duration": 4, "velocity": 73}, {"time": 2708, "pitch": 42, "duration": 18, "velocity": 60}, {"time": 2708, "pitch": 61, "duration": 15, "velocity": 71}, {"time": 2711, "pitch": 66, "duration": 9, "velocity": 9}, {"time": 2714, "pitch": 54, "duration": 8, "velocity": 63}, {"time": 2720, "pitch": 49, "duration": 6, "velocity": 63}, {"time": 2726, "pitch": 61, "duration": 5, "velocity": 71}, {"time": 2726, "pitch": 66, "duration": 4, "velocity": 38}, {"time": 2732, "pitch": 47, "duration": 18, "velocity": 86}, {"time": 2738, "pitch": 50, "duration": 13, "velocity": 64}, {"time": 2744, "pitch": 54, "duration": 7, "velocity": 65}, {"time": 2750, "pitch": 62, "duration": 6, "velocity": 61}, {"time": 2750, "pitch": 66, "duration": 6, "velocity": 65}, {"time": 2756, "pitch": 43, "duration": 20, "velocity": 62}, {"time": 2762, "pitch": 50, "duration": 19, "velocity": 59}, {"time": 2768, "pitch": 59, "duration": 7, "velocity": 60}, {"time": 2768, "pitch": 62, "duration": 7, "velocity": 63}, {"time": 2774, "pitch": 55, "duration": 5, "velocity": 43}, {"time": 2780, "pitch": 45, "duration": 19, "velocity": 81}, {"time": 2786, "pitch": 52, "duration": 17, "velocity": 67}, {"time": 2792, "pitch": 57, "duration": 8, "velocity": 54}, {"time": 2792, "pitch": 61, "duration": 12, "velocity": 71}, {"time": 2792, "pitch": 64, "duration": 11, "velocity": 73}, {"time": 2804, "pitch": 47, "duration": 21, "velocity": 60}, {"time": 2804, "pitch": 54, "duration": 21, "velocity": 68}, {"time": 2804, "pitch": 59, "duration": 10, "velocity": 62}, {"time": 2804, "pitch": 62, "duration": 11, "velocity": 64}, {"time": 2804, "pitch": 66, "duration": 11, "velocity": 59}, {"time": 2816, "pitch": 59, "duration": 8, "velocity": 67}, {"time": 2816, "pitch": 62, "duration": 8, "velocity": 69}, {"time": 2816, "pitch": 66, "duration": 8, "velocity": 64}, {"time": 2822, "pitch": 74, "duration": 5, "velocity": 71}, {"time": 2828, "pitch": 45, "duration": 17, "velocity": 81}, {"time": 2828, "pitch": 57, "duration": 11, "velocity": 63}, {"time": 2828, "pitch": 61, "duration": 11, "velocity": 100}, {"time": 2828, "pitch": 64, "duration": 11, "velocity": 74}, {"time": 2828, "pitch": 73, "duration": 3, "velocity": 77}, {"time": 2834, "pitch": 74, "duration": 1, "velocity": 74}, {"time": 2840, "pitch": 78, "duration": 7, "velocity": 60}, {"time": 2852, "pitch": 43, "duration": 18, "velocity": 60}, {"time": 2852, "pitch": 66, "duration": 15, "velocity": 85}, {"time": 2858, "pitch": 50, "duration": 15, "velocity": 60}, {"time": 2864, "pitch": 55, "duration": 6, "velocity": 60}, {"time": 2870, "pitch": 66, "duration": 5, "velocity": 75}, {"time": 2876, "pitch": 45, "duration": 20, "velocity": 61}, {"time": 2876, "pitch": 64, "duration": 14, "velocity": 64}, {"time": 2882, "pitch": 52, "duration": 15, "velocity": 59}, {"time": 2888, "pitch": 57, "duration": 6, "velocity": 54}, {"time": 2894, "pitch": 61, "duration": 5, "velocity": 77}, {"time": 2900, "pitch": 47, "duration": 36, "velocity": 63}, {"time": 2900, "pitch": 59, "duration": 17, "velocity": 65}, {"time": 2906, "pitch": 54, "duration": 28, "velocity": 69}, {"time": 2912, "pitch": 59, "duration": 5, "velocity": 79}, {"time": 2918, "pitch": 61, "duration": 6, "velocity": 62}, {"time": 2924, "pitch": 62, "duration": 11, "velocity": 63}, {"time": 2936, "pitch": 45, "duration": 6, "velocity": 67}, {"time": 2936, "pitch": 57, "duration": 6, "velocity": 51}, {"time": 2936, "pitch": 61, "duration": 6, "velocity": 68}, {"time": 2936, "pitch": 64, "duration": 6, "velocity": 59}, {"time": 2948, "pitch": 43, "duration": 19, "velocity": 60}, {"time": 2948, "pitch": 59, "duration": 10, "velocity": 68}, {"time": 2948, "pitch": 62, "duration": 11, "velocity": 67}, {"time": 2948, "pitch": 67, "duration": 11, "velocity": 79}, {"time": 2954, "pitch": 50, "duration": 14, "velocity": 72}, {"time": 2960, "pitch": 59, "duration": 5, "velocity": 63}, {"time": 2960, "pitch": 62, "duration": 6, "velocity": 62}, {"time": 2960, "pitch": 67, "duration": 6, "velocity": 67}, {"time": 2966, "pitch": 55, "duration": 2, "velocity": 58}, {"time": 2972, "pitch": 45, "duration": 23, "velocity": 77}, {"time": 2972, "pitch": 61, "duration": 10, "velocity": 42}, {"time": 2972, "pitch": 64, "duration": 9, "velocity": 63}, {"time": 2972, "pitch": 69, "duration": 9, "velocity": 75}, {"time": 2978, "pitch": 52, "duration": 17, "velocity": 61}, {"time": 2984, "pitch": 61, "duration": 11, "velocity": 90}, {"time": 2984, "pitch": 64, "duration": 9, "velocity": 85}, {"time": 2984, "pitch": 69, "duration": 8, "velocity": 79}, {"time": 2996, "pitch": 50, "duration": 7, "velocity": 74}, {"time": 2996, "pitch": 62, "duration": 6, "velocity": 66}, {"time": 2996, "pitch": 66, "duration": 7, "velocity": 74}, {"time": 2996, "pitch": 69, "duration": 8, "velocity": 74}, {"time": 3008, "pitch": 49, "duration": 6, "velocity": 83}, {"time": 3008, "pitch": 61, "duration": 6, "velocity": 98}, {"time": 3008, "pitch": 66, "duration": 5, "velocity": 67}, {"time": 3008, "pitch": 69, "duration": 5, "velocity": 69}, {"time": 3020, "pitch": 47, "duration": 18, "velocity": 75}, {"time": 3020, "pitch": 54, "duration": 15, "velocity": 66}, {"time": 3020, "pitch": 59, "duration": 10, "velocity": 65}, {"time": 3020, "pitch": 62, "duration": 10, "velocity": 74}, {"time": 3020, "pitch": 66, "duration": 10, "velocity": 63}, {"time": 3032, "pitch": 59, "duration": 5, "velocity": 75}, {"time": 3032, "pitch": 62, "duration": 5, "velocity": 81}, {"time": 3032, "pitch": 66, "duration": 5, "velocity": 76}, {"time": 3044, "pitch": 43, "duration": 20, "velocity": 66}, {"time": 3044, "pitch": 55, "duration": 10, "velocity": 61}, {"time": 3044, "pitch": 59, "duration": 10, "velocity": 58}, {"time": 3044, "pitch": 62, "duration": 11, "velocity": 62}, {"time": 3056, "pitch": 55, "duration": 6, "velocity": 73}, {"time": 3056, "pitch": 59, "duration": 6, "velocity": 70}, {"time": 3056, "pitch": 62, "duration": 6, "velocity": 69}, {"time": 3068, "pitch": 45, "duration": 23, "velocity": 65}, {"time": 3068, "pitch": 57, "duration": 10, "velocity": 65}, {"time": 3068, "pitch": 61, "duration": 10, "velocity": 86}, {"time": 3068, "pitch": 64, "duration": 11, "velocity": 71}, {"time": 3080, "pitch": 57, "duration": 5, "velocity": 68}, {"time": 3080, "pitch": 61, "duration": 5, "velocity": 93}, {"time": 3080, "pitch": 64, "duration": 6, "velocity": 73}, {"time": 3092, "pitch": 50, "duration": 24, "velocity": 61}, {"time": 3092, "pitch": 62, "duration": 11, "velocity": 71}, {"time": 3092, "pitch": 66, "duration": 11, "velocity": 71}, {"time": 3092, "pitch": 69, "duration": 11, "velocity": 71}, {"time": 3104, "pitch": 62, "duration": 11, "velocity": 70}, {"time": 3104, "pitch": 66, "duration": 11, "velocity": 71}, {"time": 3104, "pitch": 69, "duration": 11, "velocity": 76}, {"time": 3116, "pitch": 50, "duration": 9, "velocity": 62}, {"time": 3116, "pitch": 62, "duration": 10, "velocity": 68}, {"time": 3116, "pitch": 66, "duration": 12, "velocity": 74}, {"time": 3116, "pitch": 69, "duration": 11, "velocity": 79}, {"time": 3128, "pitch": 50, "duration": 6, "velocity": 72}, {"time": 3128, "pitch": 62, "duration": 7, "velocity": 66}, {"time": 3128, "pitch": 66, "duration": 1, "velocity": 65}, {"time": 3128, "pitch": 69, "duration": 7, "velocity": 70}, {"time": 3140, "pitch": 43, "duration": 12, "velocity": 70}, {"time": 3140, "pitch": 43, "duration": 12, "velocity": 81}, {"time": 3140, "pitch": 55, "duration": 10, "velocity": 68}, {"time": 3140, "pitch": 59, "duration": 10, "velocity": 61}, {"time": 3140, "pitch": 62, "duration": 10, "velocity": 62}, {"time": 3152, "pitch": 55, "duration": 5, "velocity": 68}, {"time": 3152, "pitch": 59, "duration": 5, "velocity": 67}, {"time": 3152, "pitch": 62, "duration": 6, "velocity": 62}, {"time": 3164, "pitch": 45, "duration": 19, "velocity": 58}, {"time": 3164, "pitch": 57, "duration": 10, "velocity": 60}, {"time": 3164, "pitch": 61, "duration": 10, "velocity": 87}, {"time": 3164, "pitch": 64, "duration": 11, "velocity": 67}, {"time": 3176, "pitch": 57, "duration": 4, "velocity": 66}, {"time": 3176, "pitch": 61, "duration": 5, "velocity": 93}, {"time": 3176, "pitch": 64, "duration": 4, "velocity": 69}, {"time": 3188, "pitch": 50, "duration": 8, "velocity": 77}, {"time": 3188, "pitch": 62, "duration": 6, "velocity": 75}, {"time": 3188, "pitch": 66, "duration": 8, "velocity": 74}, {"time": 3188, "pitch": 69, "duration": 8, "velocity": 71}, {"time": 3200, "pitch": 49, "duration": 6, "velocity": 71}, {"time": 3200, "pitch": 61, "duration": 6, "velocity": 86}, {"time": 3200, "pitch": 66, "duration": 6, "velocity": 71}, {"time": 3212, "pitch": 47, "duration": 17, "velocity": 70}, {"time": 3212, "pitch": 59, "duration": 9, "velocity": 64}, {"time": 3212, "pitch": 62, "duration": 9, "velocity": 69}, {"time": 3212, "pitch": 66, "duration": 10, "velocity": 62}, {"time": 3224, "pitch": 59, "duration": 5, "velocity": 74}, {"time": 3224, "pitch": 62, "duration": 5, "velocity": 73}, {"time": 3224, "pitch": 66, "duration": 5, "velocity": 74}, {"time": 3236, "pitch": 40, "duration": 21, "velocity": 54}, {"time": 3236, "pitch": 55, "duration": 9, "velocity": 65}, {"time": 3236, "pitch": 59, "duration": 9, "velocity": 57}, {"time": 3236, "pitch": 64, "duration": 9, "velocity": 67}, {"time": 3248, "pitch": 47, "duration": 10, "velocity": 1}, {"time": 3248, "pitch": 55, "duration": 10, "velocity": 71}, {"time": 3248, "pitch": 59, "duration": 10, "velocity": 67}, {"time": 3248, "pitch": 64, "duration": 10, "velocity": 71}, {"time": 3260, "pitch": 49, "duration": 22, "velocity": 66}, {"time": 3260, "pitch": 55, "duration": 22, "velocity": 75}, {"time": 3260, "pitch": 59, "duration": 10, "velocity": 67}, {"time": 3260, "pitch": 64, "duration": 10, "velocity": 69}, {"time": 3272, "pitch": 59, "duration": 10, "velocity": 68}, {"time": 3272, "pitch": 64, "duration": 10, "velocity": 72}, {"time": 3284, "pitch": 42, "duration": 42, "velocity": 48}, {"time": 3284, "pitch": 49, "duration": 41, "velocity": 12}, {"time": 3284, "pitch": 54, "duration": 42, "velocity": 57}, {"time": 3284, "pitch": 58, "duration": 10, "velocity": 60}, {"time": 3284, "pitch": 61, "duration": 10, "velocity": 77}, {"time": 3296, "pitch": 58, "duration": 10, "velocity": 59}, {"time": 3296, "pitch": 61, "duration": 10, "velocity": 87}, {"time": 3308, "pitch": 58, "duration": 10, "velocity": 62}, {"time": 3308, "pitch": 61, "duration": 10, "velocity": 95}, {"time": 3320, "pitch": 58, "duration": 6, "velocity": 77}, {"time": 3320, "pitch": 61, "duration": 6, "velocity": 108}, {"time": 3332, "pitch": 43, "duration": 22, "velocity": 59}, {"time": 3332, "pitch": 50, "duration": 22, "velocity": 68}, {"time": 3332, "pitch": 55, "duration": 22, "velocity": 55}, {"time": 3332, "pitch": 59, "duration": 9, "velocity": 59}, {"time": 3332, "pitch": 62, "duration": 9, "velocity": 69}, {"time": 3332, "pitch": 67, "duration": 9, "velocity": 70}, {"time": 3344, "pitch": 59, "duration": 10, "velocity": 66}, {"time": 3344, "pitch": 62, "duration": 10, "velocity": 76}, {"time": 3344, "pitch": 67, "duration": 10, "velocity": 74}, {"time": 3356, "pitch": 43, "duration": 20, "velocity": 71}, {"time": 3356, "pitch": 50, "duration": 20, "velocity": 81}, {"time": 3356, "pitch": 55, "duration": 19, "velocity": 68}, {"time": 3356, "pitch": 59, "duration": 20, "velocity": 74}, {"time": 3356, "pitch": 62, "duration": 20, "velocity": 81}, {"time": 3356, "pitch": 67, "duration": 20, "velocity": 81}, {"time": 3380, "pitch": 44, "duration": 19, "velocity": 60}, {"time": 3380, "pitch": 60, "duration": 10, "velocity": 68}, {"time": 3380, "pitch": 63, "duration": 11, "velocity": 67}, {"time": 3380, "pitch": 68, "duration": 11, "velocity": 79}, {"time": 3386, "pitch": 51, "duration": 14, "velocity": 72}, {"time": 3392, "pitch": 60, "duration": 5, "velocity": 63}, {"time": 3392, "pitch": 63, "duration": 6, "velocity": 62}, {"time": 3392, "pitch": 68, "duration": 6, "velocity": 67}, {"time": 3398, "pitch": 56, "duration": 2, "velocity": 58}, {"time": 3404, "pitch": 46, "duration": 23, "velocity": 77}, {"time": 3404, "pitch": 62, "duration": 10, "velocity": 42}, {"time": 3404, "pitch": 65, "duration": 9, "velocity": 63}, {"time": 3404, "pitch": 70, "duration": 9, "velocity": 75}, {"time": 3410, "pitch": 53, "duration": 17, "velocity": 61}, {"time": 3416, "pitch": 62, "duration": 11, "velocity": 90}, {"time": 3416, "pitch": 65, "duration": 9, "velocity": 85}, {"time": 3416, "pitch": 70, "duration": 8, "velocity": 79}, {"time": 3428, "pitch": 51, "duration": 7, "velocity": 74}, {"time": 3428, "pitch": 63, "duration": 6, "velocity": 66}, {"time": 3428, "pitch": 67, "duration": 7, "velocity": 74}, {"time": 3428, "pitch": 70, "duration": 8, "velocity": 74}, {"time": 3440, "pitch": 50, "duration": 6, "velocity": 83}, {"time": 3440, "pitch": 62, "duration": 6, "velocity": 98}, {"time": 3440, "pitch": 67, "duration": 5, "velocity": 67}, {"time": 3440, "pitch": 70, "duration": 5, "velocity": 69}, {"time": 3452, "pitch": 48, "duration": 18, "velocity": 75}, {"time": 3452, "pitch": 55, "duration": 15, "velocity": 66}, {"time": 3452, "pitch": 60, "duration": 10, "velocity": 65}, {"time": 3452, "pitch": 63, "duration": 10, "velocity": 74}, {"time": 3452, "pitch": 67, "duration": 10, "velocity": 63}, {"time": 3464, "pitch": 60, "duration": 5, "velocity": 75}, {"time": 3464, "pitch": 63, "duration": 5, "velocity": 81}, {"time": 3464, "pitch": 67, "duration": 5, "velocity": 76}, {"time": 3476, "pitch": 44, "duration": 20, "velocity": 66}, {"time": 3476, "pitch": 56, "duration": 10, "velocity": 61}, {"time": 3476, "pitch": 60, "duration": 10, "velocity": 58}, {"time": 3476, "pitch": 63, "duration": 11, "velocity": 62}, {"time": 3488, "pitch": 56, "duration": 6, "velocity": 73}, {"time": 3488, "pitch": 60, "duration": 6, "velocity": 70}, {"time": 3488, "pitch": 63, "duration": 6, "velocity": 69}, {"time": 3500, "pitch": 46, "duration": 23, "velocity": 65}, {"time": 3500, "pitch": 58, "duration": 10, "velocity": 65}, {"time": 3500, "pitch": 62, "duration": 10, "velocity": 86}, {"time": 3500, "pitch": 65, "duration": 11, "velocity": 71}, {"time": 3512, "pitch": 58, "duration": 5, "velocity": 68}, {"time": 3512, "pitch": 62, "duration": 5, "velocity": 93}, {"time": 3512, "pitch": 65, "duration": 6, "velocity": 73}, {"time": 3524, "pitch": 51, "duration": 24, "velocity": 61}, {"time": 3524, "pitch": 63, "duration": 11, "velocity": 71}, {"time": 3524, "pitch": 67, "duration": 11, "velocity": 71}, {"time": 3524, "pitch": 70, "duration": 11, "velocity": 71}, {"time": 3536, "pitch": 63, "duration": 11, "velocity": 70}, {"time": 3536, "pitch": 67, "duration": 11, "velocity": 71}, {"time": 3536, "pitch": 70, "duration": 11, "velocity": 76}, {"time": 3548, "pitch": 51, "duration": 9, "velocity": 62}, {"time": 3548, "pitch": 63, "duration": 10, "velocity": 68}, {"time": 3548, "pitch": 67, "duration": 12, "velocity": 74}, {"time": 3548, "pitch": 70, "duration": 11, "velocity": 79}, {"time": 3560, "pitch": 51, "duration": 6, "velocity": 72}, {"time": 3560, "pitch": 63, "duration": 7, "velocity": 66}, {"time": 3560, "pitch": 67, "duration": 1, "velocity": 65}, {"time": 3560, "pitch": 70, "duration": 7, "velocity": 70}, {"time": 3572, "pitch": 44, "duration": 12, "velocity": 70}, {"time": 3572, "pitch": 44, "duration": 12, "velocity": 81}, {"time": 3572, "pitch": 56, "duration": 10, "velocity": 68}, {"time": 3572, "pitch": 60, "duration": 10, "velocity": 61}, {"time": 3572, "pitch": 63, "duration": 10, "velocity": 62}, {"time": 3584, "pitch": 56, "duration": 5, "velocity": 68}, {"time": 3584, "pitch": 60, "duration": 5, "velocity": 67}, {"time": 3584, "pitch": 63, "duration": 6, "velocity": 62}, {"time": 3596, "pitch": 46, "duration": 19, "velocity": 58}, {"time": 3596, "pitch": 58, "duration": 10, "velocity": 60}, {"time": 3596, "pitch": 62, "duration": 10, "velocity": 87}, {"time": 3596, "pitch": 65, "duration": 11, "velocity": 67}, {"time": 3608, "pitch": 58, "duration": 4, "velocity": 66}, {"time": 3608, "pitch": 62, "duration": 5, "velocity": 93}, {"time": 3608, "pitch": 65, "duration": 4, "velocity": 69}, {"time": 3620, "pitch": 51, "duration": 8, "velocity": 77}, {"time": 3620, "pitch": 63, "duration": 6, "velocity": 75}, {"time": 3620, "pitch": 67, "duration": 8, "velocity": 74}, {"time": 3620, "pitch": 70, "duration": 8, "velocity": 71}, {"time": 3632, "pitch": 50, "duration": 6, "velocity": 71}, {"time": 3632, "pitch": 62, "duration": 6, "velocity": 86}, {"time": 3632, "pitch": 67, "duration": 6, "velocity": 71}, {"time": 3644, "pitch": 48, "duration": 17, "velocity": 70}, {"time": 3644, "pitch": 60, "duration": 9, "velocity": 64}, {"time": 3644, "pitch": 63, "duration": 9, "velocity": 69}, {"time": 3644, "pitch": 67, "duration": 10, "velocity": 62}, {"time": 3656, "pitch": 60, "duration": 5, "velocity": 74}, {"time": 3656, "pitch": 63, "duration": 5, "velocity": 73}, {"time": 3656, "pitch": 67, "duration": 5, "velocity": 74}, {"time": 3668, "pitch": 44, "duration": 25, "velocity": 67}, {"time": 3668, "pitch": 56, "duration": 10, "velocity": 74}, {"time": 3668, "pitch": 60, "duration": 10, "velocity": 71}, {"time": 3668, "pitch": 63, "duration": 11, "velocity": 65}, {"time": 3680, "pitch": 56, "duration": 5, "velocity": 69}, {"time": 3680, "pitch": 60, "duration": 5, "velocity": 69}, {"time": 3680, "pitch": 63, "duration": 6, "velocity": 65}, {"time": 3692, "pitch": 46, "duration": 24, "velocity": 79}, {"time": 3692, "pitch": 58, "duration": 10, "velocity": 67}, {"time": 3692, "pitch": 62, "duration": 10, "velocity": 85}, {"time": 3692, "pitch": 65, "duration": 10, "velocity": 77}, {"time": 3704, "pitch": 58, "duration": 5, "velocity": 73}, {"time": 3704, "pitch": 62, "duration": 6, "velocity": 86}, {"time": 3704, "pitch": 65, "duration": 6, "velocity": 76}, {"time": 3716, "pitch": 48, "duration": 45, "velocity": 81}, {"time": 3716, "pitch": 60, "duration": 9, "velocity": 60}, {"time": 3716, "pitch": 63, "duration": 10, "velocity": 68}, {"time": 3716, "pitch": 67, "duration": 10, "velocity": 62}, {"time": 3728, "pitch": 60, "duration": 10, "velocity": 67}, {"time": 3728, "pitch": 63, "duration": 11, "velocity": 67}, {"time": 3728, "pitch": 67, "duration": 11, "velocity": 62}, {"time": 3740, "pitch": 60, "duration": 21, "velocity": 59}, {"time": 3740, "pitch": 63, "duration": 21, "velocity": 65}, {"time": 3740, "pitch": 67, "duration": 20, "velocity": 60}, {"time": 3764, "pitch": 44, "duration": 25, "velocity": 56}, {"time": 3764, "pitch": 51, "duration": 24, "velocity": 9}, {"time": 3764, "pitch": 56, "duration": 24, "velocity": 59}, {"time": 3764, "pitch": 60, "duration": 9, "velocity": 62}, {"time": 3764, "pitch": 63, "duration": 10, "velocity": 63}, {"time": 3764, "pitch": 68, "duration": 10, "velocity": 64}, {"time": 3776, "pitch": 60, "duration": 12, "velocity": 60}, {"time": 3776, "pitch": 63, "duration": 11, "velocity": 63}, {"time": 3776, "pitch": 68, "duration": 11, "velocity": 60}, {"time": 3788, "pitch": 46, "duration": 20, "velocity": 49}, {"time": 3788, "pitch": 50, "duration": 24, "velocity": 57}, {"time": 3788, "pitch": 53, "duration": 24, "velocity": 57}, {"time": 3788, "pitch": 58, "duration": 24, "velocity": 60}, {"time": 3788, "pitch": 62, "duration": 8, "velocity": 51}, {"time": 3788, "pitch": 65, "duration": 8, "velocity": 59}, {"time": 3800, "pitch": 62, "duration": 9, "velocity": 60}, {"time": 3800, "pitch": 65, "duration": 10, "velocity": 67}, {"time": 3811, "pitch": 48, "duration": 50, "velocity": 60}, {"time": 3812, "pitch": 55, "duration": 49, "velocity": 72}, {"time": 3812, "pitch": 63, "duration": 23, "velocity": 60}, {"time": 3812, "pitch": 60, "duration": 49, "velocity": 57}, {"time": 3812, "pitch": 67, "duration": 9, "velocity": 74}, {"time": 3825, "pitch": 67, "duration": 10, "velocity": 69}, {"time": 3838, "pitch": 63, "duration": 23, "velocity": 62}, {"time": 3839, "pitch": 67, "duration": 20, "velocity": 72}, {"time": 3865, "pitch": 63, "duration": 40, "velocity": 58}, {"time": 3865, "pitch": 48, "duration": 41, "velocity": 69}, {"time": 3867, "pitch": 67, "duration": 38, "velocity": 65}, {"time": 3868, "pitch": 55, "duration": 37, "velocity": 72}, {"time": 3871, "pitch": 60, "duration": 34, "velocity": 38}, {"time": 3917, "pitch": 41, "duration": 21, "velocity": 81}, {"time": 3924, "pitch": 51, "duration": 18, "velocity": 73}, {"time": 3929, "pitch": 56, "duration": 9, "velocity": 60}, {"time": 3937, "pitch": 60, "duration": 7, "velocity": 46}, {"time": 3943, "pitch": 46, "duration": 19, "velocity": 71}, {"time": 3949, "pitch": 53, "duration": 12, "velocity": 61}, {"time": 3956, "pitch": 62, "duration": 7, "velocity": 59}, {"time": 3962, "pitch": 65, "duration": 7, "velocity": 56}, {"time": 3969, "pitch": 43, "duration": 19, "velocity": 73}, {"time": 3975, "pitch": 50, "duration": 12, "velocity": 61}, {"time": 3982, "pitch": 58, "duration": 12, "velocity": 54}, {"time": 3988, "pitch": 62, "duration": 6, "velocity": 60}, {"time": 3995, "pitch": 48, "duration": 19, "velocity": 66}, {"time": 4001, "pitch": 55, "duration": 12, "velocity": 58}, {"time": 4008, "pitch": 63, "duration": 14, "velocity": 61}, {"time": 4015, "pitch": 67, "duration": 7, "velocity": 61}, {"time": 4022, "pitch": 44, "duration": 21, "velocity": 69}, {"time": 4028, "pitch": 51, "duration": 21, "velocity": 65}, {"time": 4035, "pitch": 60, "duration": 14, "velocity": 60}, {"time": 4035, "pitch": 63, "duration": 12, "velocity": 65}, {"time": 4049, "pitch": 62, "duration": 65, "velocity": 57}, {"time": 4049, "pitch": 65, "duration": 67, "velocity": 69}, {"time": 4049, "pitch": 46, "duration": 71, "velocity": 72}, {"time": 4056, "pitch": 53, "duration": 63, "velocity": 58}, {"time": 4063, "pitch": 58, "duration": 56, "velocity": 39}, {"time": 4070, "pitch": 63, "duration": 8, "velocity": 65}, {"time": 4079, "pitch": 62, "duration": 35, "velocity": 63}, {"time": 4128, "pitch": 63, "duration": 35, "velocity": 58}, {"time": 4128, "pitch": 48, "duration": 79, "velocity": 67}, {"time": 4128, "pitch": 67, "duration": 24, "velocity": 60}, {"time": 4134, "pitch": 55, "duration": 73, "velocity": 60}, {"time": 4141, "pitch": 60, "duration": 66, "velocity": 41}, {"time": 4147, "pitch": 67, "duration": 5, "velocity": 40}, {"time": 4177, "pitch": 79, "duration": 5, "velocity": 59}, {"time": 4181, "pitch": 84, "duration": 15, "velocity": 72}], "annotations": [{"time": 8, "annotation": {"number": 64, "value": 76}, "group": "control_change"}]}]}