{"metadata": {"schema_version": "0.2", "title": "None", "source_filename": "038.mid", "source_format": "midi"}, "resolution": 12, "tempos": [{"time": 0, "qpm": 80.0}], "time_signatures": [{"time": 0, "numerator": 1, "denominator": 4}], "tracks": [{"program": 0, "is_drum": false, "name": "MELODY", "notes": [{"time": 390, "pitch": 76, "duration": 8, "velocity": 104}, {"time": 402, "pitch": 76, "duration": 7, "velocity": 98}, {"time": 414, "pitch": 74, "duration": 8, "velocity": 87}, {"time": 426, "pitch": 72, "duration": 7, "velocity": 90}, {"time": 438, "pitch": 74, "duration": 13, "velocity": 100}, {"time": 456, "pitch": 69, "duration": 2, "velocity": 85}, {"time": 462, "pitch": 72, "duration": 18, "velocity": 93}, {"time": 486, "pitch": 76, "duration": 7, "velocity": 108}, {"time": 498, "pitch": 76, "duration": 8, "velocity": 77}, {"time": 510, "pitch": 74, "duration": 8, "velocity": 90}, {"time": 522, "pitch": 72, "duration": 7, "velocity": 77}, {"time": 534, "pitch": 74, "duration": 2, "velocity": 87}, {"time": 540, "pitch": 72, "duration": 6, "velocity": 81}, {"time": 546, "pitch": 69, "duration": 3, "velocity": 71}, {"time": 552, "pitch": 76, "duration": 3, "velocity": 81}, {"time": 558, "pitch": 74, "duration": 19, "velocity": 93}, {"time": 582, "pitch": 69, "duration": 2, "velocity": 93}, {"time": 588, "pitch": 72, "duration": 25, "velocity": 70}, {"time": 618, "pitch": 72, "duration": 6, "velocity": 98}, {"time": 624, "pitch": 71, "duration": 3, "velocity": 64}, {"time": 626, "pitch": 69, "duration": 4, "velocity": 65}, {"time": 630, "pitch": 67, "duration": 8, "velocity": 90}, {"time": 636, "pitch": 67, "duration": 2, "velocity": 63}, {"time": 642, "pitch": 67, "duration": 3, "velocity": 64}, {"time": 648, "pitch": 77, "duration": 3, "velocity": 67}, {"time": 654, "pitch": 76, "duration": 17, "velocity": 90}, {"time": 678, "pitch": 74, "duration": 4, "velocity": 77}, {"time": 684, "pitch": 72, "duration": 1, "velocity": 60}, {"time": 690, "pitch": 72, "duration": 2, "velocity": 95}, {"time": 696, "pitch": 69, "duration": 6, "velocity": 72}, {"time": 702, "pitch": 67, "duration": 4, "velocity": 64}, {"time": 708, "pitch": 69, "duration": 3, "velocity": 81}, {"time": 714, "pitch": 72, "duration": 5, "velocity": 86}, {"time": 720, "pitch": 76, "duration": 6, "velocity": 72}, {"time": 726, "pitch": 74, "duration": 6, "velocity": 85}, {"time": 738, "pitch": 72, "duration": 6, "velocity": 86}, {"time": 750, "pitch": 74, "duration": 16, "velocity": 108}, {"time": 768, "pitch": 72, "duration": 5, "velocity": 65}, {"time": 774, "pitch": 81, "duration": 27, "velocity": 85}, {"time": 810, "pitch": 72, "duration": 6, "velocity": 72}, {"time": 816, "pitch": 81, "duration": 4, "velocity": 72}, {"time": 822, "pitch": 79, "duration": 2, "velocity": 83}, {"time": 828, "pitch": 79, "duration": 3, "velocity": 98}, {"time": 834, "pitch": 76, "duration": 4, "velocity": 79}, {"time": 840, "pitch": 79, "duration": 5, "velocity": 86}, {"time": 846, "pitch": 72, "duration": 13, "velocity": 81}, {"time": 864, "pitch": 67, "duration": 3, "velocity": 83}, {"time": 870, "pitch": 76, "duration": 4, "velocity": 77}, {"time": 876, "pitch": 74, "duration": 11, "velocity": 77}, {"time": 888, "pitch": 72, "duration": 5, "velocity": 72}, {"time": 894, "pitch": 67, "duration": 13, "velocity": 72}, {"time": 906, "pitch": 74, "duration": 5, "velocity": 79}, {"time": 912, "pitch": 67, "duration": 2, "velocity": 69}, {"time": 914, "pitch": 74, "duration": 5, "velocity": 79}, {"time": 924, "pitch": 72, "duration": 26, "velocity": 83}, {"time": 1014, "pitch": 76, "duration": 5, "velocity": 74}, {"time": 1020, "pitch": 79, "duration": 1, "velocity": 87}, {"time": 1022, "pitch": 79, "duration": 6, "velocity": 111}, {"time": 1032, "pitch": 76, "duration": 3, "velocity": 74}, {"time": 1038, "pitch": 76, "duration": 4, "velocity": 86}, {"time": 1044, "pitch": 79, "duration": 1, "velocity": 90}, {"time": 1046, "pitch": 79, "duration": 6, "velocity": 100}, {"time": 1056, "pitch": 76, "duration": 4, "velocity": 69}, {"time": 1062, "pitch": 76, "duration": 5, "velocity": 75}, {"time": 1068, "pitch": 84, "duration": 5, "velocity": 73}, {"time": 1074, "pitch": 76, "duration": 5, "velocity": 72}, {"time": 1080, "pitch": 81, "duration": 6, "velocity": 79}, {"time": 1092, "pitch": 79, "duration": 13, "velocity": 98}, {"time": 1110, "pitch": 69, "duration": 6, "velocity": 79}, {"time": 1116, "pitch": 72, "duration": 1, "velocity": 74}, {"time": 1118, "pitch": 72, "duration": 7, "velocity": 86}, {"time": 1128, "pitch": 69, "duration": 3, "velocity": 69}, {"time": 1134, "pitch": 67, "duration": 4, "velocity": 74}, {"time": 1140, "pitch": 79, "duration": 1, "velocity": 81}, {"time": 1142, "pitch": 79, "duration": 7, "velocity": 93}, {"time": 1152, "pitch": 76, "duration": 5, "velocity": 71}, {"time": 1158, "pitch": 81, "duration": 6, "velocity": 108}, {"time": 1164, "pitch": 79, "duration": 6, "velocity": 86}, {"time": 1170, "pitch": 72, "duration": 4, "velocity": 70}, {"time": 1176, "pitch": 76, "duration": 3, "velocity": 85}, {"time": 1182, "pitch": 74, "duration": 20, "velocity": 87}, {"time": 1206, "pitch": 72, "duration": 8, "velocity": 77}, {"time": 1218, "pitch": 84, "duration": 8, "velocity": 79}, {"time": 1230, "pitch": 83, "duration": 8, "velocity": 108}, {"time": 1242, "pitch": 79, "duration": 6, "velocity": 112}, {"time": 1254, "pitch": 81, "duration": 5, "velocity": 87}, {"time": 1260, "pitch": 79, "duration": 1, "velocity": 74}, {"time": 1266, "pitch": 79, "duration": 6, "velocity": 93}, {"time": 1272, "pitch": 72, "duration": 4, "velocity": 65}, {"time": 1278, "pitch": 77, "duration": 8, "velocity": 117}, {"time": 1290, "pitch": 76, "duration": 8, "velocity": 112}, {"time": 1302, "pitch": 74, "duration": 5, "velocity": 111}, {"time": 1308, "pitch": 72, "duration": 1, "velocity": 61}, {"time": 1310, "pitch": 72, "duration": 6, "velocity": 76}, {"time": 1320, "pitch": 69, "duration": 2, "velocity": 81}, {"time": 1326, "pitch": 67, "duration": 2, "velocity": 85}, {"time": 1332, "pitch": 79, "duration": 1, "velocity": 76}, {"time": 1334, "pitch": 79, "duration": 7, "velocity": 108}, {"time": 1344, "pitch": 76, "duration": 3, "velocity": 73}, {"time": 1350, "pitch": 81, "duration": 3, "velocity": 93}, {"time": 1356, "pitch": 79, "duration": 2, "velocity": 104}, {"time": 1362, "pitch": 79, "duration": 4, "velocity": 114}, {"time": 1368, "pitch": 72, "duration": 2, "velocity": 72}, {"time": 1374, "pitch": 74, "duration": 19, "velocity": 95}, {"time": 1398, "pitch": 76, "duration": 5, "velocity": 74}, {"time": 1404, "pitch": 79, "duration": 1, "velocity": 87}, {"time": 1406, "pitch": 79, "duration": 6, "velocity": 111}, {"time": 1416, "pitch": 76, "duration": 3, "velocity": 74}, {"time": 1422, "pitch": 76, "duration": 4, "velocity": 86}, {"time": 1428, "pitch": 79, "duration": 1, "velocity": 90}, {"time": 1430, "pitch": 79, "duration": 6, "velocity": 100}, {"time": 1440, "pitch": 76, "duration": 4, "velocity": 69}, {"time": 1446, "pitch": 76, "duration": 5, "velocity": 75}, {"time": 1452, "pitch": 84, "duration": 5, "velocity": 73}, {"time": 1464, "pitch": 76, "duration": 4, "velocity": 74}, {"time": 1470, "pitch": 81, "duration": 8, "velocity": 111}, {"time": 1482, "pitch": 79, "duration": 7, "velocity": 104}, {"time": 1494, "pitch": 69, "duration": 6, "velocity": 79}, {"time": 1500, "pitch": 72, "duration": 1, "velocity": 74}, {"time": 1502, "pitch": 72, "duration": 7, "velocity": 86}, {"time": 1512, "pitch": 69, "duration": 3, "velocity": 69}, {"time": 1518, "pitch": 67, "duration": 4, "velocity": 74}, {"time": 1524, "pitch": 79, "duration": 1, "velocity": 81}, {"time": 1526, "pitch": 79, "duration": 7, "velocity": 93}, {"time": 1536, "pitch": 76, "duration": 5, "velocity": 71}, {"time": 1542, "pitch": 81, "duration": 6, "velocity": 108}, {"time": 1548, "pitch": 79, "duration": 6, "velocity": 86}, {"time": 1554, "pitch": 72, "duration": 4, "velocity": 70}, {"time": 1560, "pitch": 76, "duration": 3, "velocity": 85}, {"time": 1566, "pitch": 74, "duration": 20, "velocity": 87}, {"time": 1590, "pitch": 72, "duration": 8, "velocity": 77}, {"time": 1602, "pitch": 84, "duration": 8, "velocity": 79}, {"time": 1614, "pitch": 83, "duration": 8, "velocity": 108}, {"time": 1626, "pitch": 79, "duration": 6, "velocity": 112}, {"time": 1638, "pitch": 81, "duration": 5, "velocity": 87}, {"time": 1644, "pitch": 79, "duration": 1, "velocity": 74}, {"time": 1650, "pitch": 79, "duration": 6, "velocity": 93}, {"time": 1656, "pitch": 72, "duration": 4, "velocity": 65}, {"time": 1662, "pitch": 77, "duration": 24, "velocity": 117}, {"time": 1686, "pitch": 76, "duration": 17, "velocity": 112}, {"time": 1710, "pitch": 74, "duration": 6, "velocity": 111}, {"time": 1716, "pitch": 72, "duration": 1, "velocity": 61}, {"time": 1719, "pitch": 72, "duration": 5, "velocity": 76}, {"time": 1728, "pitch": 69, "duration": 2, "velocity": 81}, {"time": 1734, "pitch": 67, "duration": 2, "velocity": 85}, {"time": 1740, "pitch": 79, "duration": 1, "velocity": 76}, {"time": 1743, "pitch": 79, "duration": 7, "velocity": 108}, {"time": 1752, "pitch": 76, "duration": 4, "velocity": 73}, {"time": 1758, "pitch": 74, "duration": 25, "velocity": 90}, {"time": 1788, "pitch": 69, "duration": 5, "velocity": 81}, {"time": 1794, "pitch": 74, "duration": 6, "velocity": 100}, {"time": 1800, "pitch": 69, "duration": 5, "velocity": 79}, {"time": 1806, "pitch": 72, "duration": 13, "velocity": 104}, {"time": 1896, "pitch": 67, "duration": 4, "velocity": 59}, {"time": 1902, "pitch": 76, "duration": 9, "velocity": 76}, {"time": 1914, "pitch": 76, "duration": 2, "velocity": 93}, {"time": 1920, "pitch": 76, "duration": 3, "velocity": 93}, {"time": 1926, "pitch": 74, "duration": 17, "velocity": 90}, {"time": 1944, "pitch": 67, "duration": 4, "velocity": 76}, {"time": 1950, "pitch": 72, "duration": 9, "velocity": 77}, {"time": 1962, "pitch": 74, "duration": 7, "velocity": 95}, {"time": 1974, "pitch": 76, "duration": 3, "velocity": 72}, {"time": 1980, "pitch": 67, "duration": 3, "velocity": 79}, {"time": 1986, "pitch": 69, "duration": 4, "velocity": 73}, {"time": 1992, "pitch": 67, "duration": 2, "velocity": 86}, {"time": 1998, "pitch": 69, "duration": 15, "velocity": 95}, {"time": 2010, "pitch": 76, "duration": 2, "velocity": 73}, {"time": 2016, "pitch": 74, "duration": 30, "velocity": 98}, {"time": 2064, "pitch": 69, "duration": 2, "velocity": 66}, {"time": 2070, "pitch": 69, "duration": 3, "velocity": 69}, {"time": 2076, "pitch": 74, "duration": 2, "velocity": 73}, {"time": 2082, "pitch": 74, "duration": 3, "velocity": 75}, {"time": 2088, "pitch": 69, "duration": 3, "velocity": 64}, {"time": 2094, "pitch": 72, "duration": 46, "velocity": 98}, {"time": 2382, "pitch": 81, "duration": 27, "velocity": 85}, {"time": 2418, "pitch": 72, "duration": 6, "velocity": 72}, {"time": 2424, "pitch": 81, "duration": 4, "velocity": 72}, {"time": 2430, "pitch": 79, "duration": 2, "velocity": 83}, {"time": 2436, "pitch": 79, "duration": 3, "velocity": 98}, {"time": 2442, "pitch": 76, "duration": 4, "velocity": 79}, {"time": 2448, "pitch": 79, "duration": 5, "velocity": 86}, {"time": 2454, "pitch": 72, "duration": 13, "velocity": 81}, {"time": 2472, "pitch": 67, "duration": 3, "velocity": 83}, {"time": 2478, "pitch": 76, "duration": 4, "velocity": 77}, {"time": 2484, "pitch": 74, "duration": 11, "velocity": 77}, {"time": 2496, "pitch": 72, "duration": 5, "velocity": 72}, {"time": 2502, "pitch": 67, "duration": 13, "velocity": 72}, {"time": 2514, "pitch": 74, "duration": 5, "velocity": 79}, {"time": 2520, "pitch": 67, "duration": 2, "velocity": 69}, {"time": 2522, "pitch": 74, "duration": 5, "velocity": 79}, {"time": 2532, "pitch": 72, "duration": 26, "velocity": 83}, {"time": 2622, "pitch": 76, "duration": 5, "velocity": 74}, {"time": 2628, "pitch": 79, "duration": 1, "velocity": 87}, {"time": 2630, "pitch": 79, "duration": 6, "velocity": 111}, {"time": 2640, "pitch": 76, "duration": 3, "velocity": 74}, {"time": 2646, "pitch": 76, "duration": 4, "velocity": 86}, {"time": 2652, "pitch": 79, "duration": 1, "velocity": 90}, {"time": 2654, "pitch": 79, "duration": 6, "velocity": 100}, {"time": 2664, "pitch": 76, "duration": 4, "velocity": 69}, {"time": 2670, "pitch": 76, "duration": 5, "velocity": 75}, {"time": 2676, "pitch": 84, "duration": 5, "velocity": 73}, {"time": 2682, "pitch": 76, "duration": 5, "velocity": 72}, {"time": 2688, "pitch": 81, "duration": 6, "velocity": 79}, {"time": 2700, "pitch": 79, "duration": 13, "velocity": 98}, {"time": 2718, "pitch": 69, "duration": 6, "velocity": 79}, {"time": 2724, "pitch": 72, "duration": 1, "velocity": 74}, {"time": 2726, "pitch": 72, "duration": 7, "velocity": 86}, {"time": 2736, "pitch": 69, "duration": 3, "velocity": 69}, {"time": 2742, "pitch": 67, "duration": 4, "velocity": 74}, {"time": 2748, "pitch": 79, "duration": 1, "velocity": 81}, {"time": 2750, "pitch": 79, "duration": 7, "velocity": 93}, {"time": 2760, "pitch": 76, "duration": 5, "velocity": 71}, {"time": 2766, "pitch": 81, "duration": 6, "velocity": 108}, {"time": 2772, "pitch": 79, "duration": 6, "velocity": 86}, {"time": 2778, "pitch": 72, "duration": 4, "velocity": 70}, {"time": 2784, "pitch": 76, "duration": 3, "velocity": 85}, {"time": 2790, "pitch": 74, "duration": 20, "velocity": 87}, {"time": 2814, "pitch": 72, "duration": 8, "velocity": 77}, {"time": 2826, "pitch": 84, "duration": 8, "velocity": 79}, {"time": 2838, "pitch": 83, "duration": 8, "velocity": 108}, {"time": 2850, "pitch": 79, "duration": 6, "velocity": 112}, {"time": 2862, "pitch": 81, "duration": 5, "velocity": 87}, {"time": 2868, "pitch": 79, "duration": 1, "velocity": 74}, {"time": 2874, "pitch": 79, "duration": 6, "velocity": 93}, {"time": 2880, "pitch": 72, "duration": 4, "velocity": 65}, {"time": 2886, "pitch": 77, "duration": 8, "velocity": 117}, {"time": 2898, "pitch": 76, "duration": 8, "velocity": 112}, {"time": 2910, "pitch": 74, "duration": 5, "velocity": 111}, {"time": 2916, "pitch": 72, "duration": 1, "velocity": 61}, {"time": 2918, "pitch": 72, "duration": 6, "velocity": 76}, {"time": 2928, "pitch": 69, "duration": 2, "velocity": 81}, {"time": 2934, "pitch": 67, "duration": 2, "velocity": 85}, {"time": 2940, "pitch": 79, "duration": 1, "velocity": 76}, {"time": 2942, "pitch": 79, "duration": 7, "velocity": 108}, {"time": 2952, "pitch": 76, "duration": 3, "velocity": 73}, {"time": 2958, "pitch": 81, "duration": 3, "velocity": 93}, {"time": 2964, "pitch": 79, "duration": 2, "velocity": 104}, {"time": 2970, "pitch": 79, "duration": 4, "velocity": 114}, {"time": 2976, "pitch": 72, "duration": 2, "velocity": 72}, {"time": 2982, "pitch": 74, "duration": 19, "velocity": 95}, {"time": 3006, "pitch": 76, "duration": 5, "velocity": 74}, {"time": 3012, "pitch": 79, "duration": 1, "velocity": 87}, {"time": 3014, "pitch": 79, "duration": 6, "velocity": 111}, {"time": 3024, "pitch": 76, "duration": 3, "velocity": 74}, {"time": 3030, "pitch": 76, "duration": 4, "velocity": 86}, {"time": 3036, "pitch": 79, "duration": 1, "velocity": 90}, {"time": 3038, "pitch": 79, "duration": 6, "velocity": 100}, {"time": 3048, "pitch": 76, "duration": 4, "velocity": 69}, {"time": 3054, "pitch": 76, "duration": 5, "velocity": 75}, {"time": 3060, "pitch": 84, "duration": 5, "velocity": 73}, {"time": 3072, "pitch": 76, "duration": 4, "velocity": 74}, {"time": 3078, "pitch": 81, "duration": 8, "velocity": 111}, {"time": 3090, "pitch": 79, "duration": 7, "velocity": 104}, {"time": 3102, "pitch": 69, "duration": 6, "velocity": 79}, {"time": 3108, "pitch": 72, "duration": 1, "velocity": 74}, {"time": 3110, "pitch": 72, "duration": 7, "velocity": 86}, {"time": 3120, "pitch": 69, "duration": 3, "velocity": 69}, {"time": 3126, "pitch": 67, "duration": 4, "velocity": 74}, {"time": 3132, "pitch": 79, "duration": 1, "velocity": 81}, {"time": 3134, "pitch": 79, "duration": 7, "velocity": 93}, {"time": 3144, "pitch": 76, "duration": 5, "velocity": 71}, {"time": 3150, "pitch": 81, "duration": 6, "velocity": 108}, {"time": 3156, "pitch": 79, "duration": 6, "velocity": 86}, {"time": 3162, "pitch": 72, "duration": 4, "velocity": 70}, {"time": 3168, "pitch": 76, "duration": 3, "velocity": 85}, {"time": 3174, "pitch": 74, "duration": 20, "velocity": 87}, {"time": 3198, "pitch": 72, "duration": 8, "velocity": 77}, {"time": 3210, "pitch": 84, "duration": 8, "velocity": 79}, {"time": 3222, "pitch": 83, "duration": 8, "velocity": 108}, {"time": 3234, "pitch": 79, "duration": 6, "velocity": 112}, {"time": 3246, "pitch": 81, "duration": 5, "velocity": 87}, {"time": 3252, "pitch": 79, "duration": 1, "velocity": 74}, {"time": 3258, "pitch": 79, "duration": 6, "velocity": 93}, {"time": 3264, "pitch": 72, "duration": 4, "velocity": 65}, {"time": 3270, "pitch": 77, "duration": 24, "velocity": 117}, {"time": 3294, "pitch": 76, "duration": 17, "velocity": 112}, {"time": 3318, "pitch": 74, "duration": 6, "velocity": 111}, {"time": 3324, "pitch": 72, "duration": 1, "velocity": 61}, {"time": 3327, "pitch": 72, "duration": 5, "velocity": 76}, {"time": 3336, "pitch": 69, "duration": 2, "velocity": 81}, {"time": 3342, "pitch": 67, "duration": 2, "velocity": 85}, {"time": 3348, "pitch": 79, "duration": 1, "velocity": 76}, {"time": 3351, "pitch": 79, "duration": 7, "velocity": 108}, {"time": 3360, "pitch": 76, "duration": 4, "velocity": 73}, {"time": 3366, "pitch": 74, "duration": 25, "velocity": 90}, {"time": 3396, "pitch": 69, "duration": 5, "velocity": 81}, {"time": 3402, "pitch": 74, "duration": 6, "velocity": 100}, {"time": 3408, "pitch": 69, "duration": 5, "velocity": 79}, {"time": 3414, "pitch": 72, "duration": 13, "velocity": 104}, {"time": 3534, "pitch": 76, "duration": 8, "velocity": 104}, {"time": 3546, "pitch": 76, "duration": 7, "velocity": 98}, {"time": 3558, "pitch": 74, "duration": 8, "velocity": 87}, {"time": 3570, "pitch": 72, "duration": 7, "velocity": 90}, {"time": 3582, "pitch": 74, "duration": 13, "velocity": 100}, {"time": 3600, "pitch": 69, "duration": 2, "velocity": 85}, {"time": 3606, "pitch": 72, "duration": 18, "velocity": 93}, {"time": 3630, "pitch": 76, "duration": 7, "velocity": 108}, {"time": 3642, "pitch": 76, "duration": 8, "velocity": 77}, {"time": 3654, "pitch": 74, "duration": 8, "velocity": 90}, {"time": 3666, "pitch": 72, "duration": 7, "velocity": 77}, {"time": 3678, "pitch": 74, "duration": 2, "velocity": 87}, {"time": 3684, "pitch": 72, "duration": 6, "velocity": 81}, {"time": 3690, "pitch": 69, "duration": 3, "velocity": 71}, {"time": 3696, "pitch": 76, "duration": 3, "velocity": 81}, {"time": 3702, "pitch": 74, "duration": 19, "velocity": 93}, {"time": 3726, "pitch": 69, "duration": 2, "velocity": 93}, {"time": 3732, "pitch": 72, "duration": 25, "velocity": 70}, {"time": 3762, "pitch": 72, "duration": 6, "velocity": 98}, {"time": 3768, "pitch": 71, "duration": 3, "velocity": 64}, {"time": 3770, "pitch": 69, "duration": 4, "velocity": 65}, {"time": 3774, "pitch": 67, "duration": 8, "velocity": 90}, {"time": 3780, "pitch": 67, "duration": 2, "velocity": 63}, {"time": 3786, "pitch": 67, "duration": 3, "velocity": 64}, {"time": 3792, "pitch": 77, "duration": 3, "velocity": 67}, {"time": 3798, "pitch": 76, "duration": 17, "velocity": 90}, {"time": 3822, "pitch": 74, "duration": 4, "velocity": 77}, {"time": 3828, "pitch": 72, "duration": 1, "velocity": 60}, {"time": 3834, "pitch": 72, "duration": 2, "velocity": 95}, {"time": 3840, "pitch": 69, "duration": 6, "velocity": 72}, {"time": 3846, "pitch": 67, "duration": 4, "velocity": 64}, {"time": 3852, "pitch": 69, "duration": 3, "velocity": 81}, {"time": 3858, "pitch": 72, "duration": 5, "velocity": 86}, {"time": 3864, "pitch": 76, "duration": 6, "velocity": 72}, {"time": 3870, "pitch": 74, "duration": 6, "velocity": 85}, {"time": 3882, "pitch": 72, "duration": 6, "velocity": 86}, {"time": 3894, "pitch": 74, "duration": 16, "velocity": 108}, {"time": 3912, "pitch": 72, "duration": 5, "velocity": 65}, {"time": 3918, "pitch": 81, "duration": 27, "velocity": 85}, {"time": 3954, "pitch": 72, "duration": 6, "velocity": 72}, {"time": 3960, "pitch": 81, "duration": 4, "velocity": 72}, {"time": 3966, "pitch": 79, "duration": 2, "velocity": 83}, {"time": 3972, "pitch": 79, "duration": 3, "velocity": 98}, {"time": 3978, "pitch": 76, "duration": 4, "velocity": 79}, {"time": 3984, "pitch": 79, "duration": 5, "velocity": 86}, {"time": 3996, "pitch": 72, "duration": 11, "velocity": 74}, {"time": 4008, "pitch": 67, "duration": 5, "velocity": 77}, {"time": 4014, "pitch": 74, "duration": 18, "velocity": 86}, {"time": 4026, "pitch": 74, "duration": 6, "velocity": 85}, {"time": 4032, "pitch": 69, "duration": 21, "velocity": 87}, {"time": 4080, "pitch": 69, "duration": 3, "velocity": 63}, {"time": 4086, "pitch": 69, "duration": 3, "velocity": 66}, {"time": 4092, "pitch": 74, "duration": 1, "velocity": 72}, {"time": 4098, "pitch": 74, "duration": 6, "velocity": 70}, {"time": 4104, "pitch": 69, "duration": 5, "velocity": 67}, {"time": 4110, "pitch": 72, "duration": 53, "velocity": 68}], "annotations": [{"time": 270, "annotation": {"number": 64, "value": 75}, "group": "control_change"}, {"time": 282, "annotation": {"number": 64, "value": 74}, "group": "control_change"}]}, {"program": 0, "is_drum": false, "name": "PIANO", "notes": [{"time": 6, "pitch": 48, "duration": 15, "velocity": 86}, {"time": 6, "pitch": 64, "duration": 11, "velocity": 63}, {"time": 6, "pitch": 67, "duration": 11, "velocity": 64}, {"time": 6, "pitch": 72, "duration": 11, "velocity": 61}, {"time": 12, "pitch": 55, "duration": 7, "velocity": 71}, {"time": 18, "pitch": 64, "duration": 5, "velocity": 68}, {"time": 18, "pitch": 67, "duration": 5, "velocity": 63}, {"time": 18, "pitch": 72, "duration": 4, "velocity": 68}, {"time": 30, "pitch": 41, "duration": 17, "velocity": 68}, {"time": 30, "pitch": 57, "duration": 9, "velocity": 55}, {"time": 30, "pitch": 60, "duration": 10, "velocity": 52}, {"time": 30, "pitch": 65, "duration": 10, "velocity": 62}, {"time": 36, "pitch": 48, "duration": 17, "velocity": 63}, {"time": 42, "pitch": 57, "duration": 6, "velocity": 63}, {"time": 42, "pitch": 60, "duration": 6, "velocity": 60}, {"time": 42, "pitch": 65, "duration": 6, "velocity": 75}, {"time": 48, "pitch": 53, "duration": 5, "velocity": 63}, {"time": 54, "pitch": 43, "duration": 13, "velocity": 75}, {"time": 54, "pitch": 59, "duration": 10, "velocity": 63}, {"time": 54, "pitch": 62, "duration": 10, "velocity": 60}, {"time": 54, "pitch": 67, "duration": 10, "velocity": 73}, {"time": 60, "pitch": 50, "duration": 9, "velocity": 60}, {"time": 66, "pitch": 59, "duration": 6, "velocity": 67}, {"time": 66, "pitch": 62, "duration": 7, "velocity": 67}, {"time": 66, "pitch": 67, "duration": 6, "velocity": 75}, {"time": 78, "pitch": 45, "duration": 20, "velocity": 63}, {"time": 78, "pitch": 60, "duration": 19, "velocity": 59}, {"time": 78, "pitch": 64, "duration": 19, "velocity": 58}, {"time": 78, "pitch": 69, "duration": 19, "velocity": 63}, {"time": 102, "pitch": 48, "duration": 15, "velocity": 79}, {"time": 102, "pitch": 64, "duration": 11, "velocity": 63}, {"time": 102, "pitch": 67, "duration": 11, "velocity": 64}, {"time": 102, "pitch": 72, "duration": 11, "velocity": 64}, {"time": 108, "pitch": 55, "duration": 6, "velocity": 63}, {"time": 114, "pitch": 64, "duration": 4, "velocity": 67}, {"time": 114, "pitch": 67, "duration": 4, "velocity": 81}, {"time": 114, "pitch": 72, "duration": 3, "velocity": 74}, {"time": 126, "pitch": 41, "duration": 20, "velocity": 67}, {"time": 126, "pitch": 57, "duration": 18, "velocity": 62}, {"time": 126, "pitch": 60, "duration": 18, "velocity": 60}, {"time": 126, "pitch": 65, "duration": 18, "velocity": 70}, {"time": 132, "pitch": 48, "duration": 18, "velocity": 59}, {"time": 138, "pitch": 53, "duration": 11, "velocity": 60}, {"time": 150, "pitch": 50, "duration": 15, "velocity": 67}, {"time": 150, "pitch": 62, "duration": 15, "velocity": 60}, {"time": 150, "pitch": 66, "duration": 15, "velocity": 66}, {"time": 150, "pitch": 69, "duration": 15, "velocity": 66}, {"time": 174, "pitch": 40, "duration": 17, "velocity": 59}, {"time": 174, "pitch": 47, "duration": 17, "velocity": 60}, {"time": 174, "pitch": 52, "duration": 17, "velocity": 48}, {"time": 174, "pitch": 55, "duration": 17, "velocity": 52}, {"time": 174, "pitch": 59, "duration": 17, "velocity": 53}, {"time": 174, "pitch": 64, "duration": 17, "velocity": 62}, {"time": 198, "pitch": 41, "duration": 24, "velocity": 71}, {"time": 198, "pitch": 57, "duration": 10, "velocity": 58}, {"time": 198, "pitch": 60, "duration": 10, "velocity": 58}, {"time": 198, "pitch": 65, "duration": 10, "velocity": 63}, {"time": 204, "pitch": 48, "duration": 18, "velocity": 67}, {"time": 210, "pitch": 57, "duration": 8, "velocity": 59}, {"time": 210, "pitch": 60, "duration": 8, "velocity": 59}, {"time": 210, "pitch": 65, "duration": 7, "velocity": 67}, {"time": 216, "pitch": 53, "duration": 1, "velocity": 51}, {"time": 222, "pitch": 40, "duration": 19, "velocity": 64}, {"time": 228, "pitch": 47, "duration": 11, "velocity": 46}, {"time": 234, "pitch": 52, "duration": 8, "velocity": 51}, {"time": 246, "pitch": 38, "duration": 18, "velocity": 69}, {"time": 252, "pitch": 45, "duration": 7, "velocity": 60}, {"time": 258, "pitch": 50, "duration": 10, "velocity": 60}, {"time": 270, "pitch": 41, "duration": 22, "velocity": 66}, {"time": 276, "pitch": 48, "duration": 18, "velocity": 65}, {"time": 282, "pitch": 53, "duration": 11, "velocity": 58}, {"time": 294, "pitch": 41, "duration": 18, "velocity": 59}, {"time": 294, "pitch": 57, "duration": 22, "velocity": 52}, {"time": 294, "pitch": 60, "duration": 18, "velocity": 59}, {"time": 318, "pitch": 43, "duration": 22, "velocity": 63}, {"time": 318, "pitch": 59, "duration": 15, "velocity": 58}, {"time": 318, "pitch": 62, "duration": 19, "velocity": 58}, {"time": 318, "pitch": 67, "duration": 17, "velocity": 71}, {"time": 324, "pitch": 50, "duration": 15, "velocity": 66}, {"time": 330, "pitch": 55, "duration": 9, "velocity": 60}, {"time": 342, "pitch": 48, "duration": 44, "velocity": 69}, {"time": 342, "pitch": 64, "duration": 10, "velocity": 61}, {"time": 342, "pitch": 65, "duration": 10, "velocity": 66}, {"time": 348, "pitch": 55, "duration": 25, "velocity": 51}, {"time": 354, "pitch": 64, "duration": 8, "velocity": 63}, {"time": 354, "pitch": 65, "duration": 9, "velocity": 66}, {"time": 360, "pitch": 60, "duration": 13, "velocity": 49}, {"time": 366, "pitch": 64, "duration": 12, "velocity": 70}, {"time": 378, "pitch": 64, "duration": 14, "velocity": 58}, {"time": 378, "pitch": 67, "duration": 14, "velocity": 59}, {"time": 390, "pitch": 48, "duration": 38, "velocity": 71}, {"time": 396, "pitch": 55, "duration": 30, "velocity": 64}, {"time": 402, "pitch": 64, "duration": 5, "velocity": 67}, {"time": 408, "pitch": 62, "duration": 6, "velocity": 52}, {"time": 414, "pitch": 64, "duration": 6, "velocity": 65}, {"time": 420, "pitch": 62, "duration": 6, "velocity": 55}, {"time": 426, "pitch": 64, "duration": 10, "velocity": 69}, {"time": 438, "pitch": 43, "duration": 20, "velocity": 41}, {"time": 438, "pitch": 59, "duration": 13, "velocity": 57}, {"time": 438, "pitch": 62, "duration": 13, "velocity": 58}, {"time": 438, "pitch": 65, "duration": 14, "velocity": 74}, {"time": 456, "pitch": 65, "duration": 6, "velocity": 71}, {"time": 462, "pitch": 48, "duration": 20, "velocity": 63}, {"time": 462, "pitch": 64, "duration": 19, "velocity": 64}, {"time": 468, "pitch": 55, "duration": 13, "velocity": 61}, {"time": 486, "pitch": 48, "duration": 40, "velocity": 59}, {"time": 486, "pitch": 64, "duration": 9, "velocity": 60}, {"time": 486, "pitch": 67, "duration": 9, "velocity": 69}, {"time": 492, "pitch": 55, "duration": 32, "velocity": 50}, {"time": 498, "pitch": 64, "duration": 9, "velocity": 60}, {"time": 498, "pitch": 67, "duration": 9, "velocity": 69}, {"time": 504, "pitch": 60, "duration": 6, "velocity": 32}, {"time": 510, "pitch": 64, "duration": 10, "velocity": 59}, {"time": 510, "pitch": 67, "duration": 10, "velocity": 64}, {"time": 516, "pitch": 60, "duration": 5, "velocity": 47}, {"time": 522, "pitch": 64, "duration": 4, "velocity": 61}, {"time": 522, "pitch": 67, "duration": 4, "velocity": 62}, {"time": 534, "pitch": 41, "duration": 18, "velocity": 74}, {"time": 534, "pitch": 57, "duration": 15, "velocity": 61}, {"time": 534, "pitch": 60, "duration": 15, "velocity": 65}, {"time": 540, "pitch": 48, "duration": 17, "velocity": 58}, {"time": 546, "pitch": 53, "duration": 7, "velocity": 52}, {"time": 552, "pitch": 57, "duration": 3, "velocity": 59}, {"time": 552, "pitch": 60, "duration": 3, "velocity": 61}, {"time": 558, "pitch": 43, "duration": 21, "velocity": 73}, {"time": 558, "pitch": 59, "duration": 21, "velocity": 60}, {"time": 558, "pitch": 62, "duration": 21, "velocity": 61}, {"time": 564, "pitch": 50, "duration": 15, "velocity": 52}, {"time": 570, "pitch": 55, "duration": 10, "velocity": 58}, {"time": 582, "pitch": 41, "duration": 42, "velocity": 71}, {"time": 582, "pitch": 57, "duration": 22, "velocity": 59}, {"time": 582, "pitch": 60, "duration": 19, "velocity": 67}, {"time": 588, "pitch": 48, "duration": 34, "velocity": 49}, {"time": 594, "pitch": 53, "duration": 27, "velocity": 45}, {"time": 606, "pitch": 57, "duration": 18, "velocity": 44}, {"time": 606, "pitch": 60, "duration": 17, "velocity": 64}, {"time": 630, "pitch": 40, "duration": 24, "velocity": 61}, {"time": 630, "pitch": 55, "duration": 22, "velocity": 55}, {"time": 630, "pitch": 59, "duration": 22, "velocity": 61}, {"time": 636, "pitch": 47, "duration": 19, "velocity": 59}, {"time": 642, "pitch": 52, "duration": 11, "velocity": 52}, {"time": 654, "pitch": 45, "duration": 24, "velocity": 65}, {"time": 654, "pitch": 61, "duration": 23, "velocity": 74}, {"time": 654, "pitch": 64, "duration": 13, "velocity": 64}, {"time": 660, "pitch": 52, "duration": 18, "velocity": 52}, {"time": 666, "pitch": 57, "duration": 11, "velocity": 56}, {"time": 678, "pitch": 41, "duration": 16, "velocity": 68}, {"time": 678, "pitch": 57, "duration": 16, "velocity": 57}, {"time": 678, "pitch": 60, "duration": 16, "velocity": 56}, {"time": 678, "pitch": 64, "duration": 16, "velocity": 61}, {"time": 702, "pitch": 40, "duration": 16, "velocity": 43}, {"time": 702, "pitch": 55, "duration": 17, "velocity": 58}, {"time": 702, "pitch": 59, "duration": 17, "velocity": 58}, {"time": 702, "pitch": 62, "duration": 17, "velocity": 59}, {"time": 726, "pitch": 38, "duration": 13, "velocity": 62}, {"time": 726, "pitch": 53, "duration": 13, "velocity": 59}, {"time": 726, "pitch": 57, "duration": 13, "velocity": 54}, {"time": 726, "pitch": 60, "duration": 14, "velocity": 58}, {"time": 750, "pitch": 43, "duration": 24, "velocity": 67}, {"time": 750, "pitch": 59, "duration": 24, "velocity": 59}, {"time": 750, "pitch": 62, "duration": 24, "velocity": 58}, {"time": 750, "pitch": 65, "duration": 24, "velocity": 61}, {"time": 756, "pitch": 50, "duration": 17, "velocity": 59}, {"time": 762, "pitch": 55, "duration": 10, "velocity": 58}, {"time": 774, "pitch": 41, "duration": 42, "velocity": 70}, {"time": 780, "pitch": 48, "duration": 34, "velocity": 60}, {"time": 786, "pitch": 57, "duration": 8, "velocity": 52}, {"time": 786, "pitch": 60, "duration": 8, "velocity": 60}, {"time": 786, "pitch": 64, "duration": 7, "velocity": 58}, {"time": 792, "pitch": 53, "duration": 7, "velocity": 53}, {"time": 798, "pitch": 57, "duration": 9, "velocity": 59}, {"time": 798, "pitch": 60, "duration": 9, "velocity": 59}, {"time": 798, "pitch": 64, "duration": 9, "velocity": 61}, {"time": 804, "pitch": 53, "duration": 6, "velocity": 50}, {"time": 810, "pitch": 57, "duration": 6, "velocity": 65}, {"time": 810, "pitch": 60, "duration": 6, "velocity": 70}, {"time": 810, "pitch": 64, "duration": 6, "velocity": 70}, {"time": 822, "pitch": 40, "duration": 14, "velocity": 71}, {"time": 822, "pitch": 55, "duration": 15, "velocity": 67}, {"time": 822, "pitch": 59, "duration": 16, "velocity": 69}, {"time": 828, "pitch": 47, "duration": 10, "velocity": 61}, {"time": 834, "pitch": 52, "duration": 9, "velocity": 58}, {"time": 840, "pitch": 55, "duration": 5, "velocity": 61}, {"time": 840, "pitch": 59, "duration": 5, "velocity": 67}, {"time": 846, "pitch": 45, "duration": 17, "velocity": 72}, {"time": 852, "pitch": 52, "duration": 12, "velocity": 58}, {"time": 858, "pitch": 60, "duration": 6, "velocity": 59}, {"time": 858, "pitch": 64, "duration": 6, "velocity": 65}, {"time": 864, "pitch": 57, "duration": 6, "velocity": 52}, {"time": 870, "pitch": 50, "duration": 21, "velocity": 71}, {"time": 876, "pitch": 57, "duration": 9, "velocity": 59}, {"time": 882, "pitch": 65, "duration": 12, "velocity": 63}, {"time": 882, "pitch": 69, "duration": 12, "velocity": 66}, {"time": 888, "pitch": 57, "duration": 3, "velocity": 51}, {"time": 894, "pitch": 43, "duration": 14, "velocity": 74}, {"time": 900, "pitch": 50, "duration": 8, "velocity": 65}, {"time": 906, "pitch": 59, "duration": 8, "velocity": 66}, {"time": 906, "pitch": 62, "duration": 7, "velocity": 70}, {"time": 918, "pitch": 48, "duration": 48, "velocity": 74}, {"time": 924, "pitch": 55, "duration": 42, "velocity": 62}, {"time": 930, "pitch": 64, "duration": 10, "velocity": 60}, {"time": 930, "pitch": 67, "duration": 10, "velocity": 68}, {"time": 936, "pitch": 60, "duration": 30, "velocity": 48}, {"time": 942, "pitch": 64, "duration": 24, "velocity": 63}, {"time": 942, "pitch": 67, "duration": 24, "velocity": 79}, {"time": 966, "pitch": 41, "duration": 16, "velocity": 74}, {"time": 966, "pitch": 57, "duration": 16, "velocity": 60}, {"time": 966, "pitch": 60, "duration": 1, "velocity": 62}, {"time": 966, "pitch": 65, "duration": 16, "velocity": 65}, {"time": 972, "pitch": 48, "duration": 17, "velocity": 60}, {"time": 978, "pitch": 53, "duration": 6, "velocity": 59}, {"time": 990, "pitch": 43, "duration": 23, "velocity": 74}, {"time": 990, "pitch": 59, "duration": 23, "velocity": 64}, {"time": 990, "pitch": 62, "duration": 23, "velocity": 63}, {"time": 990, "pitch": 67, "duration": 23, "velocity": 69}, {"time": 996, "pitch": 50, "duration": 16, "velocity": 65}, {"time": 1002, "pitch": 55, "duration": 10, "velocity": 60}, {"time": 1014, "pitch": 48, "duration": 16, "velocity": 86}, {"time": 1014, "pitch": 64, "duration": 10, "velocity": 72}, {"time": 1014, "pitch": 67, "duration": 10, "velocity": 81}, {"time": 1014, "pitch": 72, "duration": 10, "velocity": 69}, {"time": 1020, "pitch": 55, "duration": 9, "velocity": 71}, {"time": 1026, "pitch": 64, "duration": 4, "velocity": 65}, {"time": 1026, "pitch": 67, "duration": 4, "velocity": 74}, {"time": 1026, "pitch": 72, "duration": 4, "velocity": 70}, {"time": 1038, "pitch": 47, "duration": 18, "velocity": 74}, {"time": 1038, "pitch": 59, "duration": 10, "velocity": 71}, {"time": 1038, "pitch": 62, "duration": 10, "velocity": 65}, {"time": 1038, "pitch": 67, "duration": 10, "velocity": 77}, {"time": 1044, "pitch": 50, "duration": 18, "velocity": 74}, {"time": 1050, "pitch": 59, "duration": 6, "velocity": 73}, {"time": 1050, "pitch": 62, "duration": 6, "velocity": 75}, {"time": 1050, "pitch": 67, "duration": 6, "velocity": 76}, {"time": 1056, "pitch": 55, "duration": 5, "velocity": 58}, {"time": 1062, "pitch": 45, "duration": 16, "velocity": 76}, {"time": 1062, "pitch": 60, "duration": 10, "velocity": 71}, {"time": 1062, "pitch": 64, "duration": 10, "velocity": 83}, {"time": 1062, "pitch": 69, "duration": 10, "velocity": 74}, {"time": 1068, "pitch": 52, "duration": 9, "velocity": 62}, {"time": 1074, "pitch": 60, "duration": 4, "velocity": 75}, {"time": 1074, "pitch": 64, "duration": 4, "velocity": 79}, {"time": 1074, "pitch": 69, "duration": 4, "velocity": 74}, {"time": 1086, "pitch": 40, "duration": 18, "velocity": 70}, {"time": 1086, "pitch": 55, "duration": 9, "velocity": 65}, {"time": 1086, "pitch": 59, "duration": 9, "velocity": 58}, {"time": 1092, "pitch": 47, "duration": 17, "velocity": 72}, {"time": 1098, "pitch": 55, "duration": 6, "velocity": 81}, {"time": 1098, "pitch": 59, "duration": 6, "velocity": 83}, {"time": 1098, "pitch": 64, "duration": 6, "velocity": 79}, {"time": 1104, "pitch": 52, "duration": 5, "velocity": 54}, {"time": 1110, "pitch": 41, "duration": 16, "velocity": 83}, {"time": 1110, "pitch": 57, "duration": 10, "velocity": 67}, {"time": 1110, "pitch": 60, "duration": 11, "velocity": 71}, {"time": 1110, "pitch": 65, "duration": 10, "velocity": 71}, {"time": 1116, "pitch": 48, "duration": 7, "velocity": 71}, {"time": 1122, "pitch": 57, "duration": 5, "velocity": 69}, {"time": 1122, "pitch": 60, "duration": 5, "velocity": 79}, {"time": 1122, "pitch": 65, "duration": 5, "velocity": 81}, {"time": 1134, "pitch": 40, "duration": 20, "velocity": 74}, {"time": 1134, "pitch": 55, "duration": 10, "velocity": 71}, {"time": 1134, "pitch": 59, "duration": 10, "velocity": 65}, {"time": 1134, "pitch": 64, "duration": 10, "velocity": 71}, {"time": 1140, "pitch": 47, "duration": 13, "velocity": 61}, {"time": 1146, "pitch": 55, "duration": 7, "velocity": 71}, {"time": 1146, "pitch": 59, "duration": 7, "velocity": 75}, {"time": 1146, "pitch": 64, "duration": 7, "velocity": 76}, {"time": 1158, "pitch": 38, "duration": 17, "velocity": 74}, {"time": 1158, "pitch": 53, "duration": 10, "velocity": 69}, {"time": 1158, "pitch": 57, "duration": 10, "velocity": 67}, {"time": 1158, "pitch": 62, "duration": 10, "velocity": 67}, {"time": 1164, "pitch": 45, "duration": 12, "velocity": 63}, {"time": 1170, "pitch": 53, "duration": 6, "velocity": 81}, {"time": 1170, "pitch": 57, "duration": 6, "velocity": 81}, {"time": 1170, "pitch": 62, "duration": 6, "velocity": 75}, {"time": 1176, "pitch": 50, "duration": 5, "velocity": 61}, {"time": 1182, "pitch": 43, "duration": 12, "velocity": 70}, {"time": 1182, "pitch": 59, "duration": 10, "velocity": 71}, {"time": 1182, "pitch": 62, "duration": 10, "velocity": 74}, {"time": 1182, "pitch": 67, "duration": 10, "velocity": 76}, {"time": 1188, "pitch": 50, "duration": 12, "velocity": 62}, {"time": 1194, "pitch": 44, "duration": 12, "velocity": 87}, {"time": 1194, "pitch": 59, "duration": 6, "velocity": 79}, {"time": 1194, "pitch": 62, "duration": 6, "velocity": 81}, {"time": 1194, "pitch": 67, "duration": 6, "velocity": 83}, {"time": 1200, "pitch": 55, "duration": 5, "velocity": 58}, {"time": 1206, "pitch": 45, "duration": 17, "velocity": 75}, {"time": 1206, "pitch": 60, "duration": 9, "velocity": 63}, {"time": 1206, "pitch": 64, "duration": 10, "velocity": 64}, {"time": 1206, "pitch": 69, "duration": 10, "velocity": 67}, {"time": 1206, "pitch": 72, "duration": 10, "velocity": 68}, {"time": 1212, "pitch": 52, "duration": 8, "velocity": 60}, {"time": 1218, "pitch": 60, "duration": 6, "velocity": 65}, {"time": 1218, "pitch": 64, "duration": 6, "velocity": 76}, {"time": 1218, "pitch": 69, "duration": 6, "velocity": 75}, {"time": 1230, "pitch": 40, "duration": 18, "velocity": 65}, {"time": 1230, "pitch": 55, "duration": 10, "velocity": 64}, {"time": 1230, "pitch": 59, "duration": 10, "velocity": 59}, {"time": 1230, "pitch": 64, "duration": 10, "velocity": 60}, {"time": 1236, "pitch": 47, "duration": 17, "velocity": 60}, {"time": 1242, "pitch": 55, "duration": 7, "velocity": 74}, {"time": 1242, "pitch": 59, "duration": 7, "velocity": 72}, {"time": 1242, "pitch": 64, "duration": 7, "velocity": 74}, {"time": 1248, "pitch": 52, "duration": 5, "velocity": 54}, {"time": 1254, "pitch": 41, "duration": 17, "velocity": 85}, {"time": 1254, "pitch": 57, "duration": 10, "velocity": 65}, {"time": 1254, "pitch": 60, "duration": 10, "velocity": 74}, {"time": 1254, "pitch": 65, "duration": 10, "velocity": 83}, {"time": 1260, "pitch": 48, "duration": 10, "velocity": 68}, {"time": 1266, "pitch": 57, "duration": 5, "velocity": 67}, {"time": 1266, "pitch": 60, "duration": 5, "velocity": 74}, {"time": 1266, "pitch": 65, "duration": 5, "velocity": 79}, {"time": 1278, "pitch": 45, "duration": 20, "velocity": 60}, {"time": 1278, "pitch": 49, "duration": 19, "velocity": 70}, {"time": 1278, "pitch": 52, "duration": 19, "velocity": 67}, {"time": 1278, "pitch": 57, "duration": 19, "velocity": 58}, {"time": 1278, "pitch": 61, "duration": 20, "velocity": 70}, {"time": 1278, "pitch": 64, "duration": 19, "velocity": 79}, {"time": 1278, "pitch": 69, "duration": 19, "velocity": 71}, {"time": 1302, "pitch": 38, "duration": 17, "velocity": 70}, {"time": 1302, "pitch": 53, "duration": 9, "velocity": 61}, {"time": 1302, "pitch": 57, "duration": 9, "velocity": 59}, {"time": 1302, "pitch": 62, "duration": 9, "velocity": 64}, {"time": 1308, "pitch": 45, "duration": 16, "velocity": 15}, {"time": 1314, "pitch": 53, "duration": 6, "velocity": 64}, {"time": 1314, "pitch": 57, "duration": 5, "velocity": 67}, {"time": 1314, "pitch": 62, "duration": 5, "velocity": 64}, {"time": 1326, "pitch": 40, "duration": 17, "velocity": 71}, {"time": 1326, "pitch": 55, "duration": 10, "velocity": 71}, {"time": 1326, "pitch": 59, "duration": 10, "velocity": 65}, {"time": 1326, "pitch": 64, "duration": 10, "velocity": 70}, {"time": 1332, "pitch": 47, "duration": 16, "velocity": 60}, {"time": 1338, "pitch": 55, "duration": 6, "velocity": 69}, {"time": 1338, "pitch": 59, "duration": 5, "velocity": 69}, {"time": 1338, "pitch": 64, "duration": 5, "velocity": 73}, {"time": 1350, "pitch": 41, "duration": 18, "velocity": 71}, {"time": 1350, "pitch": 57, "duration": 9, "velocity": 65}, {"time": 1350, "pitch": 60, "duration": 10, "velocity": 63}, {"time": 1350, "pitch": 65, "duration": 9, "velocity": 71}, {"time": 1356, "pitch": 48, "duration": 17, "velocity": 62}, {"time": 1362, "pitch": 57, "duration": 7, "velocity": 69}, {"time": 1362, "pitch": 60, "duration": 7, "velocity": 74}, {"time": 1362, "pitch": 65, "duration": 7, "velocity": 74}, {"time": 1368, "pitch": 53, "duration": 4, "velocity": 56}, {"time": 1374, "pitch": 43, "duration": 14, "velocity": 77}, {"time": 1374, "pitch": 59, "duration": 10, "velocity": 65}, {"time": 1374, "pitch": 62, "duration": 10, "velocity": 64}, {"time": 1374, "pitch": 67, "duration": 10, "velocity": 74}, {"time": 1380, "pitch": 50, "duration": 9, "velocity": 70}, {"time": 1386, "pitch": 59, "duration": 6, "velocity": 72}, {"time": 1386, "pitch": 62, "duration": 6, "velocity": 76}, {"time": 1386, "pitch": 67, "duration": 6, "velocity": 83}, {"time": 1398, "pitch": 48, "duration": 16, "velocity": 83}, {"time": 1398, "pitch": 64, "duration": 10, "velocity": 64}, {"time": 1398, "pitch": 67, "duration": 10, "velocity": 74}, {"time": 1398, "pitch": 72, "duration": 10, "velocity": 67}, {"time": 1404, "pitch": 55, "duration": 13, "velocity": 73}, {"time": 1410, "pitch": 64, "duration": 21, "velocity": 64}, {"time": 1410, "pitch": 67, "duration": 22, "velocity": 77}, {"time": 1410, "pitch": 72, "duration": 21, "velocity": 74}, {"time": 1422, "pitch": 47, "duration": 17, "velocity": 95}, {"time": 1428, "pitch": 55, "duration": 10, "velocity": 50}, {"time": 1434, "pitch": 64, "duration": 6, "velocity": 68}, {"time": 1434, "pitch": 67, "duration": 6, "velocity": 81}, {"time": 1434, "pitch": 72, "duration": 6, "velocity": 73}, {"time": 1446, "pitch": 45, "duration": 18, "velocity": 74}, {"time": 1446, "pitch": 60, "duration": 10, "velocity": 63}, {"time": 1446, "pitch": 64, "duration": 10, "velocity": 63}, {"time": 1446, "pitch": 69, "duration": 9, "velocity": 76}, {"time": 1452, "pitch": 52, "duration": 12, "velocity": 56}, {"time": 1458, "pitch": 60, "duration": 7, "velocity": 69}, {"time": 1458, "pitch": 64, "duration": 6, "velocity": 81}, {"time": 1458, "pitch": 69, "duration": 6, "velocity": 74}, {"time": 1470, "pitch": 40, "duration": 18, "velocity": 77}, {"time": 1470, "pitch": 55, "duration": 9, "velocity": 70}, {"time": 1470, "pitch": 59, "duration": 9, "velocity": 61}, {"time": 1470, "pitch": 64, "duration": 2, "velocity": 60}, {"time": 1476, "pitch": 47, "duration": 16, "velocity": 63}, {"time": 1482, "pitch": 55, "duration": 7, "velocity": 81}, {"time": 1482, "pitch": 59, "duration": 6, "velocity": 85}, {"time": 1482, "pitch": 64, "duration": 6, "velocity": 77}, {"time": 1488, "pitch": 52, "duration": 4, "velocity": 57}, {"time": 1494, "pitch": 41, "duration": 18, "velocity": 79}, {"time": 1494, "pitch": 57, "duration": 10, "velocity": 66}, {"time": 1494, "pitch": 60, "duration": 10, "velocity": 74}, {"time": 1494, "pitch": 65, "duration": 10, "velocity": 76}, {"time": 1500, "pitch": 48, "duration": 13, "velocity": 67}, {"time": 1506, "pitch": 57, "duration": 5, "velocity": 74}, {"time": 1506, "pitch": 60, "duration": 5, "velocity": 79}, {"time": 1506, "pitch": 65, "duration": 5, "velocity": 79}, {"time": 1518, "pitch": 40, "duration": 17, "velocity": 68}, {"time": 1518, "pitch": 55, "duration": 11, "velocity": 75}, {"time": 1518, "pitch": 59, "duration": 11, "velocity": 79}, {"time": 1518, "pitch": 64, "duration": 11, "velocity": 63}, {"time": 1524, "pitch": 47, "duration": 10, "velocity": 69}, {"time": 1530, "pitch": 55, "duration": 5, "velocity": 69}, {"time": 1530, "pitch": 59, "duration": 5, "velocity": 72}, {"time": 1530, "pitch": 64, "duration": 4, "velocity": 72}, {"time": 1542, "pitch": 38, "duration": 18, "velocity": 73}, {"time": 1542, "pitch": 53, "duration": 9, "velocity": 77}, {"time": 1542, "pitch": 57, "duration": 9, "velocity": 85}, {"time": 1542, "pitch": 62, "duration": 9, "velocity": 63}, {"time": 1554, "pitch": 53, "duration": 7, "velocity": 69}, {"time": 1554, "pitch": 57, "duration": 7, "velocity": 76}, {"time": 1554, "pitch": 62, "duration": 7, "velocity": 74}, {"time": 1556, "pitch": 45, "duration": 5, "velocity": 9}, {"time": 1560, "pitch": 50, "duration": 5, "velocity": 63}, {"time": 1566, "pitch": 43, "duration": 12, "velocity": 74}, {"time": 1566, "pitch": 59, "duration": 10, "velocity": 69}, {"time": 1566, "pitch": 62, "duration": 10, "velocity": 62}, {"time": 1566, "pitch": 67, "duration": 10, "velocity": 72}, {"time": 1572, "pitch": 50, "duration": 17, "velocity": 67}, {"time": 1578, "pitch": 44, "duration": 10, "velocity": 63}, {"time": 1578, "pitch": 59, "duration": 7, "velocity": 79}, {"time": 1578, "pitch": 62, "duration": 7, "velocity": 83}, {"time": 1578, "pitch": 67, "duration": 7, "velocity": 81}, {"time": 1584, "pitch": 55, "duration": 4, "velocity": 60}, {"time": 1590, "pitch": 45, "duration": 18, "velocity": 74}, {"time": 1590, "pitch": 60, "duration": 10, "velocity": 71}, {"time": 1590, "pitch": 64, "duration": 10, "velocity": 81}, {"time": 1590, "pitch": 69, "duration": 10, "velocity": 76}, {"time": 1596, "pitch": 52, "duration": 11, "velocity": 62}, {"time": 1602, "pitch": 60, "duration": 6, "velocity": 71}, {"time": 1602, "pitch": 64, "duration": 5, "velocity": 79}, {"time": 1602, "pitch": 69, "duration": 5, "velocity": 74}, {"time": 1614, "pitch": 40, "duration": 18, "velocity": 77}, {"time": 1614, "pitch": 55, "duration": 10, "velocity": 76}, {"time": 1614, "pitch": 59, "duration": 10, "velocity": 79}, {"time": 1614, "pitch": 64, "duration": 10, "velocity": 76}, {"time": 1620, "pitch": 47, "duration": 18, "velocity": 70}, {"time": 1626, "pitch": 55, "duration": 6, "velocity": 79}, {"time": 1626, "pitch": 59, "duration": 6, "velocity": 83}, {"time": 1626, "pitch": 64, "duration": 6, "velocity": 73}, {"time": 1632, "pitch": 52, "duration": 5, "velocity": 43}, {"time": 1638, "pitch": 41, "duration": 16, "velocity": 83}, {"time": 1638, "pitch": 57, "duration": 10, "velocity": 71}, {"time": 1638, "pitch": 60, "duration": 10, "velocity": 77}, {"time": 1638, "pitch": 65, "duration": 10, "velocity": 66}, {"time": 1644, "pitch": 48, "duration": 7, "velocity": 72}, {"time": 1650, "pitch": 57, "duration": 5, "velocity": 81}, {"time": 1650, "pitch": 60, "duration": 5, "velocity": 85}, {"time": 1650, "pitch": 65, "duration": 4, "velocity": 87}, {"time": 1662, "pitch": 45, "duration": 44, "velocity": 60}, {"time": 1662, "pitch": 49, "duration": 41, "velocity": 75}, {"time": 1662, "pitch": 61, "duration": 44, "velocity": 79}, {"time": 1662, "pitch": 64, "duration": 44, "velocity": 81}, {"time": 1662, "pitch": 67, "duration": 44, "velocity": 71}, {"time": 1710, "pitch": 41, "duration": 18, "velocity": 73}, {"time": 1710, "pitch": 57, "duration": 10, "velocity": 65}, {"time": 1710, "pitch": 60, "duration": 10, "velocity": 60}, {"time": 1710, "pitch": 65, "duration": 10, "velocity": 69}, {"time": 1716, "pitch": 48, "duration": 17, "velocity": 62}, {"time": 1722, "pitch": 57, "duration": 6, "velocity": 67}, {"time": 1722, "pitch": 60, "duration": 6, "velocity": 77}, {"time": 1722, "pitch": 65, "duration": 5, "velocity": 76}, {"time": 1734, "pitch": 40, "duration": 16, "velocity": 68}, {"time": 1734, "pitch": 55, "duration": 9, "velocity": 73}, {"time": 1734, "pitch": 59, "duration": 10, "velocity": 76}, {"time": 1734, "pitch": 64, "duration": 9, "velocity": 71}, {"time": 1740, "pitch": 47, "duration": 16, "velocity": 45}, {"time": 1746, "pitch": 55, "duration": 5, "velocity": 76}, {"time": 1746, "pitch": 59, "duration": 5, "velocity": 77}, {"time": 1746, "pitch": 64, "duration": 4, "velocity": 73}, {"time": 1758, "pitch": 41, "duration": 18, "velocity": 72}, {"time": 1758, "pitch": 57, "duration": 9, "velocity": 77}, {"time": 1758, "pitch": 60, "duration": 9, "velocity": 83}, {"time": 1758, "pitch": 65, "duration": 9, "velocity": 83}, {"time": 1764, "pitch": 48, "duration": 17, "velocity": 68}, {"time": 1770, "pitch": 57, "duration": 7, "velocity": 74}, {"time": 1770, "pitch": 60, "duration": 7, "velocity": 79}, {"time": 1770, "pitch": 65, "duration": 7, "velocity": 79}, {"time": 1776, "pitch": 53, "duration": 5, "velocity": 58}, {"time": 1782, "pitch": 43, "duration": 18, "velocity": 79}, {"time": 1782, "pitch": 59, "duration": 10, "velocity": 83}, {"time": 1782, "pitch": 62, "duration": 10, "velocity": 86}, {"time": 1782, "pitch": 67, "duration": 10, "velocity": 85}, {"time": 1788, "pitch": 50, "duration": 11, "velocity": 65}, {"time": 1794, "pitch": 59, "duration": 8, "velocity": 75}, {"time": 1794, "pitch": 62, "duration": 9, "velocity": 79}, {"time": 1794, "pitch": 67, "duration": 9, "velocity": 79}, {"time": 1806, "pitch": 48, "duration": 16, "velocity": 100}, {"time": 1812, "pitch": 55, "duration": 18, "velocity": 74}, {"time": 1818, "pitch": 60, "duration": 15, "velocity": 59}, {"time": 1824, "pitch": 48, "duration": 5, "velocity": 71}, {"time": 1824, "pitch": 64, "duration": 18, "velocity": 60}, {"time": 1830, "pitch": 50, "duration": 14, "velocity": 87}, {"time": 1830, "pitch": 67, "duration": 15, "velocity": 49}, {"time": 1830, "pitch": 72, "duration": 12, "velocity": 73}, {"time": 1836, "pitch": 55, "duration": 6, "velocity": 72}, {"time": 1842, "pitch": 60, "duration": 9, "velocity": 72}, {"time": 1848, "pitch": 50, "duration": 6, "velocity": 77}, {"time": 1854, "pitch": 51, "duration": 14, "velocity": 86}, {"time": 1854, "pitch": 78, "duration": 12, "velocity": 81}, {"time": 1860, "pitch": 55, "duration": 5, "velocity": 85}, {"time": 1866, "pitch": 57, "duration": 12, "velocity": 74}, {"time": 1872, "pitch": 51, "duration": 6, "velocity": 64}, {"time": 1872, "pitch": 78, "duration": 4, "velocity": 74}, {"time": 1878, "pitch": 52, "duration": 20, "velocity": 79}, {"time": 1878, "pitch": 55, "duration": 21, "velocity": 76}, {"time": 1878, "pitch": 59, "duration": 21, "velocity": 52}, {"time": 1878, "pitch": 64, "duration": 21, "velocity": 61}, {"time": 1878, "pitch": 67, "duration": 20, "velocity": 64}, {"time": 1878, "pitch": 79, "duration": 13, "velocity": 108}, {"time": 1902, "pitch": 60, "duration": 20, "velocity": 67}, {"time": 1908, "pitch": 67, "duration": 6, "velocity": 58}, {"time": 1914, "pitch": 79, "duration": 5, "velocity": 83}, {"time": 1920, "pitch": 67, "duration": 7, "velocity": 63}, {"time": 1926, "pitch": 59, "duration": 16, "velocity": 74}, {"time": 1932, "pitch": 67, "duration": 6, "velocity": 59}, {"time": 1938, "pitch": 79, "duration": 5, "velocity": 74}, {"time": 1944, "pitch": 67, "duration": 6, "velocity": 61}, {"time": 1950, "pitch": 57, "duration": 12, "velocity": 72}, {"time": 1956, "pitch": 67, "duration": 6, "velocity": 56}, {"time": 1962, "pitch": 59, "duration": 8, "velocity": 85}, {"time": 1962, "pitch": 79, "duration": 7, "velocity": 87}, {"time": 1968, "pitch": 67, "duration": 4, "velocity": 65}, {"time": 1974, "pitch": 60, "duration": 14, "velocity": 83}, {"time": 1980, "pitch": 67, "duration": 6, "velocity": 76}, {"time": 1986, "pitch": 69, "duration": 5, "velocity": 85}, {"time": 1992, "pitch": 67, "duration": 8, "velocity": 81}, {"time": 1998, "pitch": 41, "duration": 42, "velocity": 73}, {"time": 1998, "pitch": 65, "duration": 15, "velocity": 71}, {"time": 1998, "pitch": 69, "duration": 15, "velocity": 77}, {"time": 2004, "pitch": 48, "duration": 36, "velocity": 59}, {"time": 2010, "pitch": 53, "duration": 12, "velocity": 58}, {"time": 2016, "pitch": 65, "duration": 24, "velocity": 65}, {"time": 2016, "pitch": 69, "duration": 22, "velocity": 65}, {"time": 2028, "pitch": 53, "duration": 10, "velocity": 58}, {"time": 2034, "pitch": 76, "duration": 6, "velocity": 83}, {"time": 2040, "pitch": 77, "duration": 6, "velocity": 100}, {"time": 2046, "pitch": 43, "duration": 17, "velocity": 59}, {"time": 2046, "pitch": 62, "duration": 18, "velocity": 47}, {"time": 2046, "pitch": 67, "duration": 17, "velocity": 58}, {"time": 2046, "pitch": 79, "duration": 7, "velocity": 114}, {"time": 2094, "pitch": 48, "duration": 45, "velocity": 77}, {"time": 2094, "pitch": 64, "duration": 9, "velocity": 54}, {"time": 2094, "pitch": 67, "duration": 10, "velocity": 67}, {"time": 2094, "pitch": 71, "duration": 10, "velocity": 65}, {"time": 2100, "pitch": 55, "duration": 37, "velocity": 60}, {"time": 2106, "pitch": 64, "duration": 32, "velocity": 59}, {"time": 2106, "pitch": 67, "duration": 32, "velocity": 60}, {"time": 2106, "pitch": 71, "duration": 6, "velocity": 59}, {"time": 2112, "pitch": 60, "duration": 25, "velocity": 42}, {"time": 2118, "pitch": 72, "duration": 19, "velocity": 64}, {"time": 2142, "pitch": 48, "duration": 44, "velocity": 75}, {"time": 2142, "pitch": 64, "duration": 44, "velocity": 61}, {"time": 2142, "pitch": 67, "duration": 44, "velocity": 72}, {"time": 2142, "pitch": 72, "duration": 12, "velocity": 60}, {"time": 2142, "pitch": 72, "duration": 12, "velocity": 67}, {"time": 2142, "pitch": 79, "duration": 13, "velocity": 81}, {"time": 2154, "pitch": 55, "duration": 30, "velocity": 60}, {"time": 2160, "pitch": 60, "duration": 24, "velocity": 34}, {"time": 2160, "pitch": 72, "duration": 4, "velocity": 56}, {"time": 2160, "pitch": 79, "duration": 4, "velocity": 74}, {"time": 2166, "pitch": 72, "duration": 14, "velocity": 62}, {"time": 2166, "pitch": 79, "duration": 13, "velocity": 81}, {"time": 2184, "pitch": 72, "duration": 1, "velocity": 58}, {"time": 2184, "pitch": 79, "duration": 8, "velocity": 71}, {"time": 2190, "pitch": 48, "duration": 45, "velocity": 81}, {"time": 2190, "pitch": 64, "duration": 17, "velocity": 57}, {"time": 2190, "pitch": 67, "duration": 43, "velocity": 72}, {"time": 2190, "pitch": 72, "duration": 1, "velocity": 65}, {"time": 2196, "pitch": 55, "duration": 35, "velocity": 64}, {"time": 2202, "pitch": 60, "duration": 30, "velocity": 46}, {"time": 2208, "pitch": 64, "duration": 27, "velocity": 50}, {"time": 2208, "pitch": 72, "duration": 1, "velocity": 60}, {"time": 2208, "pitch": 79, "duration": 2, "velocity": 75}, {"time": 2214, "pitch": 72, "duration": 20, "velocity": 61}, {"time": 2214, "pitch": 79, "duration": 21, "velocity": 77}, {"time": 2238, "pitch": 48, "duration": 36, "velocity": 83}, {"time": 2238, "pitch": 64, "duration": 3, "velocity": 49}, {"time": 2238, "pitch": 67, "duration": 50, "velocity": 60}, {"time": 2238, "pitch": 72, "duration": 21, "velocity": 61}, {"time": 2244, "pitch": 55, "duration": 44, "velocity": 64}, {"time": 2250, "pitch": 60, "duration": 38, "velocity": 56}, {"time": 2256, "pitch": 64, "duration": 31, "velocity": 54}, {"time": 2256, "pitch": 72, "duration": 3, "velocity": 60}, {"time": 2256, "pitch": 79, "duration": 3, "velocity": 66}, {"time": 2268, "pitch": 72, "duration": 12, "velocity": 67}, {"time": 2268, "pitch": 79, "duration": 12, "velocity": 85}, {"time": 2280, "pitch": 50, "duration": 2, "velocity": 59}, {"time": 2282, "pitch": 48, "duration": 3, "velocity": 76}, {"time": 2286, "pitch": 44, "duration": 48, "velocity": 67}, {"time": 2286, "pitch": 60, "duration": 2, "velocity": 69}, {"time": 2286, "pitch": 63, "duration": 16, "velocity": 75}, {"time": 2286, "pitch": 72, "duration": 1, "velocity": 72}, {"time": 2292, "pitch": 51, "duration": 41, "velocity": 39}, {"time": 2292, "pitch": 79, "duration": 2, "velocity": 87}, {"time": 2294, "pitch": 56, "duration": 37, "velocity": 59}, {"time": 2298, "pitch": 79, "duration": 5, "velocity": 108}, {"time": 2304, "pitch": 60, "duration": 30, "velocity": 65}, {"time": 2304, "pitch": 63, "duration": 30, "velocity": 72}, {"time": 2304, "pitch": 72, "duration": 3, "velocity": 63}, {"time": 2306, "pitch": 67, "duration": 5, "velocity": 69}, {"time": 2310, "pitch": 72, "duration": 5, "velocity": 75}, {"time": 2316, "pitch": 79, "duration": 4, "velocity": 77}, {"time": 2322, "pitch": 79, "duration": 9, "velocity": 93}, {"time": 2328, "pitch": 72, "duration": 4, "velocity": 74}, {"time": 2328, "pitch": 74, "duration": 2, "velocity": 81}, {"time": 2334, "pitch": 43, "duration": 25, "velocity": 69}, {"time": 2334, "pitch": 59, "duration": 25, "velocity": 60}, {"time": 2334, "pitch": 62, "duration": 25, "velocity": 67}, {"time": 2334, "pitch": 67, "duration": 3, "velocity": 74}, {"time": 2336, "pitch": 72, "duration": 4, "velocity": 64}, {"time": 2340, "pitch": 74, "duration": 3, "velocity": 74}, {"time": 2342, "pitch": 72, "duration": 2, "velocity": 71}, {"time": 2346, "pitch": 79, "duration": 11, "velocity": 86}, {"time": 2352, "pitch": 74, "duration": 3, "velocity": 65}, {"time": 2354, "pitch": 72, "duration": 4, "velocity": 71}, {"time": 2358, "pitch": 67, "duration": 3, "velocity": 74}, {"time": 2360, "pitch": 72, "duration": 3, "velocity": 62}, {"time": 2364, "pitch": 74, "duration": 2, "velocity": 72}, {"time": 2366, "pitch": 72, "duration": 4, "velocity": 63}, {"time": 2370, "pitch": 79, "duration": 6, "velocity": 79}, {"time": 2382, "pitch": 41, "duration": 42, "velocity": 70}, {"time": 2388, "pitch": 48, "duration": 34, "velocity": 60}, {"time": 2394, "pitch": 57, "duration": 8, "velocity": 52}, {"time": 2394, "pitch": 60, "duration": 8, "velocity": 60}, {"time": 2394, "pitch": 64, "duration": 7, "velocity": 58}, {"time": 2400, "pitch": 53, "duration": 7, "velocity": 53}, {"time": 2406, "pitch": 57, "duration": 9, "velocity": 59}, {"time": 2406, "pitch": 60, "duration": 9, "velocity": 59}, {"time": 2406, "pitch": 64, "duration": 9, "velocity": 61}, {"time": 2412, "pitch": 53, "duration": 6, "velocity": 50}, {"time": 2418, "pitch": 57, "duration": 6, "velocity": 65}, {"time": 2418, "pitch": 60, "duration": 6, "velocity": 70}, {"time": 2418, "pitch": 64, "duration": 6, "velocity": 70}, {"time": 2430, "pitch": 40, "duration": 14, "velocity": 71}, {"time": 2430, "pitch": 55, "duration": 15, "velocity": 67}, {"time": 2430, "pitch": 59, "duration": 16, "velocity": 69}, {"time": 2436, "pitch": 47, "duration": 10, "velocity": 61}, {"time": 2442, "pitch": 52, "duration": 9, "velocity": 58}, {"time": 2448, "pitch": 55, "duration": 5, "velocity": 61}, {"time": 2448, "pitch": 59, "duration": 5, "velocity": 67}, {"time": 2454, "pitch": 45, "duration": 17, "velocity": 72}, {"time": 2460, "pitch": 52, "duration": 12, "velocity": 58}, {"time": 2466, "pitch": 60, "duration": 6, "velocity": 59}, {"time": 2466, "pitch": 64, "duration": 6, "velocity": 65}, {"time": 2472, "pitch": 57, "duration": 6, "velocity": 52}, {"time": 2478, "pitch": 50, "duration": 21, "velocity": 71}, {"time": 2484, "pitch": 57, "duration": 9, "velocity": 59}, {"time": 2490, "pitch": 65, "duration": 12, "velocity": 63}, {"time": 2490, "pitch": 69, "duration": 12, "velocity": 66}, {"time": 2496, "pitch": 57, "duration": 3, "velocity": 13}, {"time": 2502, "pitch": 43, "duration": 14, "velocity": 74}, {"time": 2508, "pitch": 50, "duration": 8, "velocity": 65}, {"time": 2514, "pitch": 59, "duration": 8, "velocity": 66}, {"time": 2514, "pitch": 62, "duration": 7, "velocity": 70}, {"time": 2526, "pitch": 48, "duration": 48, "velocity": 74}, {"time": 2532, "pitch": 55, "duration": 42, "velocity": 62}, {"time": 2538, "pitch": 64, "duration": 10, "velocity": 60}, {"time": 2538, "pitch": 67, "duration": 10, "velocity": 68}, {"time": 2544, "pitch": 60, "duration": 30, "velocity": 48}, {"time": 2550, "pitch": 64, "duration": 24, "velocity": 63}, {"time": 2550, "pitch": 67, "duration": 24, "velocity": 79}, {"time": 2574, "pitch": 41, "duration": 16, "velocity": 74}, {"time": 2574, "pitch": 57, "duration": 16, "velocity": 60}, {"time": 2574, "pitch": 60, "duration": 1, "velocity": 62}, {"time": 2574, "pitch": 65, "duration": 16, "velocity": 65}, {"time": 2580, "pitch": 48, "duration": 17, "velocity": 60}, {"time": 2586, "pitch": 53, "duration": 6, "velocity": 59}, {"time": 2598, "pitch": 43, "duration": 23, "velocity": 74}, {"time": 2598, "pitch": 59, "duration": 23, "velocity": 64}, {"time": 2598, "pitch": 62, "duration": 23, "velocity": 63}, {"time": 2598, "pitch": 67, "duration": 23, "velocity": 69}, {"time": 2604, "pitch": 50, "duration": 16, "velocity": 65}, {"time": 2610, "pitch": 55, "duration": 10, "velocity": 60}, {"time": 2622, "pitch": 48, "duration": 16, "velocity": 86}, {"time": 2622, "pitch": 64, "duration": 10, "velocity": 72}, {"time": 2622, "pitch": 67, "duration": 10, "velocity": 81}, {"time": 2622, "pitch": 72, "duration": 10, "velocity": 69}, {"time": 2628, "pitch": 55, "duration": 9, "velocity": 71}, {"time": 2634, "pitch": 64, "duration": 4, "velocity": 65}, {"time": 2634, "pitch": 67, "duration": 4, "velocity": 74}, {"time": 2634, "pitch": 72, "duration": 4, "velocity": 70}, {"time": 2646, "pitch": 47, "duration": 18, "velocity": 74}, {"time": 2646, "pitch": 59, "duration": 10, "velocity": 71}, {"time": 2646, "pitch": 62, "duration": 10, "velocity": 65}, {"time": 2646, "pitch": 67, "duration": 10, "velocity": 77}, {"time": 2652, "pitch": 50, "duration": 18, "velocity": 74}, {"time": 2658, "pitch": 59, "duration": 6, "velocity": 73}, {"time": 2658, "pitch": 62, "duration": 6, "velocity": 75}, {"time": 2658, "pitch": 67, "duration": 6, "velocity": 76}, {"time": 2664, "pitch": 55, "duration": 5, "velocity": 58}, {"time": 2670, "pitch": 45, "duration": 16, "velocity": 76}, {"time": 2670, "pitch": 60, "duration": 10, "velocity": 71}, {"time": 2670, "pitch": 64, "duration": 10, "velocity": 83}, {"time": 2670, "pitch": 69, "duration": 10, "velocity": 74}, {"time": 2676, "pitch": 52, "duration": 9, "velocity": 62}, {"time": 2682, "pitch": 60, "duration": 4, "velocity": 75}, {"time": 2682, "pitch": 64, "duration": 4, "velocity": 79}, {"time": 2682, "pitch": 69, "duration": 4, "velocity": 74}, {"time": 2694, "pitch": 40, "duration": 18, "velocity": 70}, {"time": 2694, "pitch": 55, "duration": 9, "velocity": 65}, {"time": 2694, "pitch": 59, "duration": 9, "velocity": 58}, {"time": 2700, "pitch": 47, "duration": 17, "velocity": 72}, {"time": 2706, "pitch": 55, "duration": 6, "velocity": 81}, {"time": 2706, "pitch": 59, "duration": 6, "velocity": 83}, {"time": 2706, "pitch": 64, "duration": 6, "velocity": 79}, {"time": 2712, "pitch": 52, "duration": 5, "velocity": 54}, {"time": 2718, "pitch": 41, "duration": 16, "velocity": 83}, {"time": 2718, "pitch": 57, "duration": 10, "velocity": 67}, {"time": 2718, "pitch": 60, "duration": 11, "velocity": 71}, {"time": 2718, "pitch": 65, "duration": 10, "velocity": 71}, {"time": 2724, "pitch": 48, "duration": 7, "velocity": 71}, {"time": 2730, "pitch": 57, "duration": 5, "velocity": 69}, {"time": 2730, "pitch": 60, "duration": 5, "velocity": 79}, {"time": 2730, "pitch": 65, "duration": 5, "velocity": 81}, {"time": 2742, "pitch": 40, "duration": 20, "velocity": 74}, {"time": 2742, "pitch": 55, "duration": 10, "velocity": 71}, {"time": 2742, "pitch": 59, "duration": 10, "velocity": 65}, {"time": 2742, "pitch": 64, "duration": 10, "velocity": 71}, {"time": 2748, "pitch": 47, "duration": 13, "velocity": 61}, {"time": 2754, "pitch": 55, "duration": 7, "velocity": 71}, {"time": 2754, "pitch": 59, "duration": 7, "velocity": 75}, {"time": 2754, "pitch": 64, "duration": 7, "velocity": 76}, {"time": 2766, "pitch": 38, "duration": 17, "velocity": 74}, {"time": 2766, "pitch": 53, "duration": 10, "velocity": 69}, {"time": 2766, "pitch": 57, "duration": 10, "velocity": 67}, {"time": 2766, "pitch": 62, "duration": 10, "velocity": 67}, {"time": 2772, "pitch": 45, "duration": 12, "velocity": 63}, {"time": 2778, "pitch": 53, "duration": 6, "velocity": 81}, {"time": 2778, "pitch": 57, "duration": 6, "velocity": 81}, {"time": 2778, "pitch": 62, "duration": 6, "velocity": 75}, {"time": 2784, "pitch": 50, "duration": 5, "velocity": 61}, {"time": 2790, "pitch": 43, "duration": 12, "velocity": 70}, {"time": 2790, "pitch": 59, "duration": 10, "velocity": 71}, {"time": 2790, "pitch": 62, "duration": 10, "velocity": 74}, {"time": 2790, "pitch": 67, "duration": 10, "velocity": 76}, {"time": 2796, "pitch": 50, "duration": 12, "velocity": 62}, {"time": 2802, "pitch": 44, "duration": 12, "velocity": 87}, {"time": 2802, "pitch": 59, "duration": 6, "velocity": 79}, {"time": 2802, "pitch": 62, "duration": 6, "velocity": 81}, {"time": 2802, "pitch": 67, "duration": 6, "velocity": 83}, {"time": 2808, "pitch": 55, "duration": 5, "velocity": 58}, {"time": 2814, "pitch": 45, "duration": 17, "velocity": 75}, {"time": 2814, "pitch": 60, "duration": 9, "velocity": 63}, {"time": 2814, "pitch": 64, "duration": 10, "velocity": 64}, {"time": 2814, "pitch": 69, "duration": 10, "velocity": 67}, {"time": 2814, "pitch": 72, "duration": 10, "velocity": 68}, {"time": 2820, "pitch": 52, "duration": 8, "velocity": 60}, {"time": 2826, "pitch": 60, "duration": 6, "velocity": 65}, {"time": 2826, "pitch": 64, "duration": 6, "velocity": 76}, {"time": 2826, "pitch": 69, "duration": 6, "velocity": 75}, {"time": 2838, "pitch": 40, "duration": 18, "velocity": 65}, {"time": 2838, "pitch": 55, "duration": 10, "velocity": 64}, {"time": 2838, "pitch": 59, "duration": 10, "velocity": 59}, {"time": 2838, "pitch": 64, "duration": 10, "velocity": 60}, {"time": 2844, "pitch": 47, "duration": 17, "velocity": 60}, {"time": 2850, "pitch": 55, "duration": 7, "velocity": 74}, {"time": 2850, "pitch": 59, "duration": 7, "velocity": 72}, {"time": 2850, "pitch": 64, "duration": 7, "velocity": 74}, {"time": 2856, "pitch": 52, "duration": 5, "velocity": 54}, {"time": 2862, "pitch": 41, "duration": 17, "velocity": 85}, {"time": 2862, "pitch": 57, "duration": 10, "velocity": 65}, {"time": 2862, "pitch": 60, "duration": 10, "velocity": 74}, {"time": 2862, "pitch": 65, "duration": 10, "velocity": 83}, {"time": 2868, "pitch": 48, "duration": 10, "velocity": 68}, {"time": 2874, "pitch": 57, "duration": 5, "velocity": 67}, {"time": 2874, "pitch": 60, "duration": 5, "velocity": 74}, {"time": 2874, "pitch": 65, "duration": 5, "velocity": 79}, {"time": 2886, "pitch": 45, "duration": 20, "velocity": 60}, {"time": 2886, "pitch": 49, "duration": 19, "velocity": 70}, {"time": 2886, "pitch": 52, "duration": 19, "velocity": 67}, {"time": 2886, "pitch": 57, "duration": 19, "velocity": 58}, {"time": 2886, "pitch": 61, "duration": 20, "velocity": 70}, {"time": 2886, "pitch": 64, "duration": 19, "velocity": 79}, {"time": 2886, "pitch": 69, "duration": 19, "velocity": 71}, {"time": 2910, "pitch": 38, "duration": 17, "velocity": 70}, {"time": 2910, "pitch": 53, "duration": 9, "velocity": 61}, {"time": 2910, "pitch": 57, "duration": 9, "velocity": 59}, {"time": 2910, "pitch": 62, "duration": 9, "velocity": 64}, {"time": 2916, "pitch": 45, "duration": 16, "velocity": 15}, {"time": 2922, "pitch": 53, "duration": 6, "velocity": 64}, {"time": 2922, "pitch": 57, "duration": 5, "velocity": 67}, {"time": 2922, "pitch": 62, "duration": 5, "velocity": 64}, {"time": 2934, "pitch": 40, "duration": 17, "velocity": 71}, {"time": 2934, "pitch": 55, "duration": 10, "velocity": 71}, {"time": 2934, "pitch": 59, "duration": 10, "velocity": 65}, {"time": 2934, "pitch": 64, "duration": 10, "velocity": 70}, {"time": 2940, "pitch": 47, "duration": 16, "velocity": 60}, {"time": 2946, "pitch": 55, "duration": 6, "velocity": 69}, {"time": 2946, "pitch": 59, "duration": 5, "velocity": 69}, {"time": 2946, "pitch": 64, "duration": 5, "velocity": 73}, {"time": 2958, "pitch": 41, "duration": 18, "velocity": 71}, {"time": 2958, "pitch": 57, "duration": 9, "velocity": 65}, {"time": 2958, "pitch": 60, "duration": 10, "velocity": 63}, {"time": 2958, "pitch": 65, "duration": 9, "velocity": 71}, {"time": 2964, "pitch": 48, "duration": 17, "velocity": 62}, {"time": 2970, "pitch": 57, "duration": 7, "velocity": 69}, {"time": 2970, "pitch": 60, "duration": 7, "velocity": 74}, {"time": 2970, "pitch": 65, "duration": 7, "velocity": 74}, {"time": 2976, "pitch": 53, "duration": 4, "velocity": 56}, {"time": 2982, "pitch": 43, "duration": 14, "velocity": 77}, {"time": 2982, "pitch": 59, "duration": 10, "velocity": 65}, {"time": 2982, "pitch": 62, "duration": 10, "velocity": 64}, {"time": 2982, "pitch": 67, "duration": 10, "velocity": 74}, {"time": 2988, "pitch": 50, "duration": 9, "velocity": 70}, {"time": 2994, "pitch": 59, "duration": 6, "velocity": 72}, {"time": 2994, "pitch": 62, "duration": 6, "velocity": 76}, {"time": 2994, "pitch": 67, "duration": 6, "velocity": 83}, {"time": 3006, "pitch": 48, "duration": 16, "velocity": 83}, {"time": 3006, "pitch": 64, "duration": 10, "velocity": 64}, {"time": 3006, "pitch": 67, "duration": 10, "velocity": 74}, {"time": 3006, "pitch": 72, "duration": 10, "velocity": 67}, {"time": 3012, "pitch": 55, "duration": 13, "velocity": 73}, {"time": 3018, "pitch": 64, "duration": 21, "velocity": 64}, {"time": 3018, "pitch": 67, "duration": 22, "velocity": 77}, {"time": 3018, "pitch": 72, "duration": 21, "velocity": 74}, {"time": 3030, "pitch": 47, "duration": 17, "velocity": 95}, {"time": 3036, "pitch": 55, "duration": 10, "velocity": 50}, {"time": 3042, "pitch": 64, "duration": 6, "velocity": 68}, {"time": 3042, "pitch": 67, "duration": 6, "velocity": 81}, {"time": 3042, "pitch": 72, "duration": 6, "velocity": 73}, {"time": 3054, "pitch": 45, "duration": 18, "velocity": 74}, {"time": 3054, "pitch": 60, "duration": 10, "velocity": 63}, {"time": 3054, "pitch": 64, "duration": 10, "velocity": 63}, {"time": 3054, "pitch": 69, "duration": 9, "velocity": 76}, {"time": 3060, "pitch": 52, "duration": 12, "velocity": 56}, {"time": 3066, "pitch": 60, "duration": 7, "velocity": 69}, {"time": 3066, "pitch": 64, "duration": 6, "velocity": 81}, {"time": 3066, "pitch": 69, "duration": 6, "velocity": 74}, {"time": 3078, "pitch": 40, "duration": 18, "velocity": 77}, {"time": 3078, "pitch": 55, "duration": 9, "velocity": 70}, {"time": 3078, "pitch": 59, "duration": 9, "velocity": 61}, {"time": 3078, "pitch": 64, "duration": 2, "velocity": 60}, {"time": 3084, "pitch": 47, "duration": 16, "velocity": 63}, {"time": 3090, "pitch": 55, "duration": 7, "velocity": 81}, {"time": 3090, "pitch": 59, "duration": 6, "velocity": 85}, {"time": 3090, "pitch": 64, "duration": 6, "velocity": 77}, {"time": 3096, "pitch": 52, "duration": 4, "velocity": 57}, {"time": 3102, "pitch": 41, "duration": 18, "velocity": 79}, {"time": 3102, "pitch": 57, "duration": 10, "velocity": 66}, {"time": 3102, "pitch": 60, "duration": 10, "velocity": 74}, {"time": 3102, "pitch": 65, "duration": 10, "velocity": 76}, {"time": 3108, "pitch": 48, "duration": 13, "velocity": 67}, {"time": 3114, "pitch": 57, "duration": 5, "velocity": 74}, {"time": 3114, "pitch": 60, "duration": 5, "velocity": 79}, {"time": 3114, "pitch": 65, "duration": 5, "velocity": 79}, {"time": 3126, "pitch": 40, "duration": 17, "velocity": 68}, {"time": 3126, "pitch": 55, "duration": 11, "velocity": 75}, {"time": 3126, "pitch": 59, "duration": 11, "velocity": 79}, {"time": 3126, "pitch": 64, "duration": 11, "velocity": 63}, {"time": 3132, "pitch": 47, "duration": 10, "velocity": 69}, {"time": 3138, "pitch": 55, "duration": 5, "velocity": 69}, {"time": 3138, "pitch": 59, "duration": 5, "velocity": 72}, {"time": 3138, "pitch": 64, "duration": 4, "velocity": 72}, {"time": 3150, "pitch": 38, "duration": 18, "velocity": 73}, {"time": 3150, "pitch": 53, "duration": 9, "velocity": 77}, {"time": 3150, "pitch": 57, "duration": 9, "velocity": 85}, {"time": 3150, "pitch": 62, "duration": 9, "velocity": 63}, {"time": 3162, "pitch": 53, "duration": 7, "velocity": 69}, {"time": 3162, "pitch": 57, "duration": 7, "velocity": 76}, {"time": 3162, "pitch": 62, "duration": 7, "velocity": 74}, {"time": 3164, "pitch": 45, "duration": 5, "velocity": 9}, {"time": 3168, "pitch": 50, "duration": 5, "velocity": 63}, {"time": 3174, "pitch": 43, "duration": 12, "velocity": 74}, {"time": 3174, "pitch": 59, "duration": 10, "velocity": 69}, {"time": 3174, "pitch": 62, "duration": 10, "velocity": 62}, {"time": 3174, "pitch": 67, "duration": 10, "velocity": 72}, {"time": 3180, "pitch": 50, "duration": 17, "velocity": 67}, {"time": 3186, "pitch": 44, "duration": 10, "velocity": 63}, {"time": 3186, "pitch": 59, "duration": 7, "velocity": 79}, {"time": 3186, "pitch": 62, "duration": 7, "velocity": 83}, {"time": 3186, "pitch": 67, "duration": 7, "velocity": 81}, {"time": 3192, "pitch": 55, "duration": 4, "velocity": 60}, {"time": 3198, "pitch": 45, "duration": 18, "velocity": 74}, {"time": 3198, "pitch": 60, "duration": 10, "velocity": 71}, {"time": 3198, "pitch": 64, "duration": 10, "velocity": 81}, {"time": 3198, "pitch": 69, "duration": 10, "velocity": 76}, {"time": 3204, "pitch": 52, "duration": 11, "velocity": 62}, {"time": 3210, "pitch": 60, "duration": 6, "velocity": 71}, {"time": 3210, "pitch": 64, "duration": 5, "velocity": 79}, {"time": 3210, "pitch": 69, "duration": 5, "velocity": 74}, {"time": 3222, "pitch": 40, "duration": 18, "velocity": 77}, {"time": 3222, "pitch": 55, "duration": 10, "velocity": 76}, {"time": 3222, "pitch": 59, "duration": 10, "velocity": 79}, {"time": 3222, "pitch": 64, "duration": 10, "velocity": 76}, {"time": 3228, "pitch": 47, "duration": 18, "velocity": 70}, {"time": 3234, "pitch": 55, "duration": 6, "velocity": 79}, {"time": 3234, "pitch": 59, "duration": 6, "velocity": 83}, {"time": 3234, "pitch": 64, "duration": 6, "velocity": 73}, {"time": 3240, "pitch": 52, "duration": 5, "velocity": 43}, {"time": 3246, "pitch": 41, "duration": 16, "velocity": 83}, {"time": 3246, "pitch": 57, "duration": 10, "velocity": 71}, {"time": 3246, "pitch": 60, "duration": 10, "velocity": 77}, {"time": 3246, "pitch": 65, "duration": 10, "velocity": 66}, {"time": 3252, "pitch": 48, "duration": 7, "velocity": 72}, {"time": 3258, "pitch": 57, "duration": 5, "velocity": 81}, {"time": 3258, "pitch": 60, "duration": 5, "velocity": 85}, {"time": 3258, "pitch": 65, "duration": 4, "velocity": 87}, {"time": 3270, "pitch": 45, "duration": 44, "velocity": 60}, {"time": 3270, "pitch": 49, "duration": 41, "velocity": 75}, {"time": 3270, "pitch": 61, "duration": 44, "velocity": 79}, {"time": 3270, "pitch": 64, "duration": 44, "velocity": 81}, {"time": 3270, "pitch": 67, "duration": 44, "velocity": 71}, {"time": 3318, "pitch": 41, "duration": 18, "velocity": 73}, {"time": 3318, "pitch": 57, "duration": 10, "velocity": 65}, {"time": 3318, "pitch": 60, "duration": 10, "velocity": 60}, {"time": 3318, "pitch": 65, "duration": 10, "velocity": 69}, {"time": 3324, "pitch": 48, "duration": 17, "velocity": 62}, {"time": 3330, "pitch": 57, "duration": 6, "velocity": 67}, {"time": 3330, "pitch": 60, "duration": 6, "velocity": 77}, {"time": 3330, "pitch": 65, "duration": 5, "velocity": 76}, {"time": 3342, "pitch": 40, "duration": 16, "velocity": 68}, {"time": 3342, "pitch": 55, "duration": 9, "velocity": 73}, {"time": 3342, "pitch": 59, "duration": 10, "velocity": 76}, {"time": 3342, "pitch": 64, "duration": 9, "velocity": 71}, {"time": 3348, "pitch": 47, "duration": 16, "velocity": 45}, {"time": 3354, "pitch": 55, "duration": 5, "velocity": 76}, {"time": 3354, "pitch": 59, "duration": 5, "velocity": 77}, {"time": 3354, "pitch": 64, "duration": 4, "velocity": 73}, {"time": 3366, "pitch": 41, "duration": 18, "velocity": 72}, {"time": 3366, "pitch": 57, "duration": 9, "velocity": 77}, {"time": 3366, "pitch": 60, "duration": 9, "velocity": 83}, {"time": 3366, "pitch": 65, "duration": 9, "velocity": 83}, {"time": 3372, "pitch": 48, "duration": 17, "velocity": 68}, {"time": 3378, "pitch": 57, "duration": 7, "velocity": 74}, {"time": 3378, "pitch": 60, "duration": 7, "velocity": 79}, {"time": 3378, "pitch": 65, "duration": 7, "velocity": 79}, {"time": 3384, "pitch": 53, "duration": 5, "velocity": 58}, {"time": 3390, "pitch": 43, "duration": 18, "velocity": 79}, {"time": 3390, "pitch": 59, "duration": 10, "velocity": 83}, {"time": 3390, "pitch": 62, "duration": 10, "velocity": 86}, {"time": 3390, "pitch": 67, "duration": 10, "velocity": 85}, {"time": 3396, "pitch": 50, "duration": 11, "velocity": 65}, {"time": 3402, "pitch": 59, "duration": 8, "velocity": 75}, {"time": 3402, "pitch": 62, "duration": 9, "velocity": 79}, {"time": 3402, "pitch": 67, "duration": 9, "velocity": 79}, {"time": 3414, "pitch": 48, "duration": 16, "velocity": 100}, {"time": 3420, "pitch": 55, "duration": 18, "velocity": 74}, {"time": 3426, "pitch": 60, "duration": 15, "velocity": 59}, {"time": 3432, "pitch": 48, "duration": 5, "velocity": 71}, {"time": 3432, "pitch": 64, "duration": 18, "velocity": 60}, {"time": 3438, "pitch": 50, "duration": 14, "velocity": 87}, {"time": 3438, "pitch": 67, "duration": 15, "velocity": 49}, {"time": 3438, "pitch": 72, "duration": 12, "velocity": 73}, {"time": 3444, "pitch": 55, "duration": 6, "velocity": 72}, {"time": 3450, "pitch": 60, "duration": 9, "velocity": 72}, {"time": 3456, "pitch": 50, "duration": 6, "velocity": 77}, {"time": 3462, "pitch": 51, "duration": 14, "velocity": 86}, {"time": 3462, "pitch": 78, "duration": 12, "velocity": 81}, {"time": 3468, "pitch": 55, "duration": 5, "velocity": 85}, {"time": 3474, "pitch": 57, "duration": 12, "velocity": 74}, {"time": 3480, "pitch": 51, "duration": 6, "velocity": 64}, {"time": 3480, "pitch": 78, "duration": 4, "velocity": 74}, {"time": 3486, "pitch": 52, "duration": 20, "velocity": 79}, {"time": 3486, "pitch": 55, "duration": 21, "velocity": 76}, {"time": 3486, "pitch": 59, "duration": 21, "velocity": 52}, {"time": 3486, "pitch": 64, "duration": 21, "velocity": 61}, {"time": 3486, "pitch": 67, "duration": 20, "velocity": 64}, {"time": 3486, "pitch": 79, "duration": 13, "velocity": 108}, {"time": 3534, "pitch": 48, "duration": 38, "velocity": 71}, {"time": 3540, "pitch": 55, "duration": 30, "velocity": 64}, {"time": 3546, "pitch": 64, "duration": 5, "velocity": 67}, {"time": 3552, "pitch": 62, "duration": 6, "velocity": 52}, {"time": 3558, "pitch": 64, "duration": 6, "velocity": 65}, {"time": 3564, "pitch": 62, "duration": 6, "velocity": 55}, {"time": 3570, "pitch": 64, "duration": 10, "velocity": 69}, {"time": 3582, "pitch": 43, "duration": 20, "velocity": 41}, {"time": 3582, "pitch": 59, "duration": 13, "velocity": 57}, {"time": 3582, "pitch": 62, "duration": 13, "velocity": 58}, {"time": 3582, "pitch": 65, "duration": 14, "velocity": 74}, {"time": 3600, "pitch": 65, "duration": 6, "velocity": 71}, {"time": 3606, "pitch": 48, "duration": 20, "velocity": 63}, {"time": 3606, "pitch": 64, "duration": 19, "velocity": 64}, {"time": 3612, "pitch": 55, "duration": 13, "velocity": 61}, {"time": 3630, "pitch": 48, "duration": 40, "velocity": 59}, {"time": 3630, "pitch": 64, "duration": 9, "velocity": 60}, {"time": 3630, "pitch": 67, "duration": 9, "velocity": 69}, {"time": 3636, "pitch": 55, "duration": 32, "velocity": 50}, {"time": 3642, "pitch": 64, "duration": 9, "velocity": 60}, {"time": 3642, "pitch": 67, "duration": 9, "velocity": 69}, {"time": 3648, "pitch": 60, "duration": 6, "velocity": 32}, {"time": 3654, "pitch": 64, "duration": 10, "velocity": 59}, {"time": 3654, "pitch": 67, "duration": 10, "velocity": 64}, {"time": 3660, "pitch": 60, "duration": 5, "velocity": 47}, {"time": 3666, "pitch": 64, "duration": 4, "velocity": 61}, {"time": 3666, "pitch": 67, "duration": 4, "velocity": 62}, {"time": 3678, "pitch": 41, "duration": 18, "velocity": 74}, {"time": 3678, "pitch": 57, "duration": 15, "velocity": 61}, {"time": 3678, "pitch": 60, "duration": 15, "velocity": 65}, {"time": 3684, "pitch": 48, "duration": 17, "velocity": 58}, {"time": 3690, "pitch": 53, "duration": 7, "velocity": 52}, {"time": 3696, "pitch": 57, "duration": 3, "velocity": 59}, {"time": 3696, "pitch": 60, "duration": 3, "velocity": 61}, {"time": 3702, "pitch": 43, "duration": 21, "velocity": 73}, {"time": 3702, "pitch": 59, "duration": 21, "velocity": 60}, {"time": 3702, "pitch": 62, "duration": 21, "velocity": 61}, {"time": 3708, "pitch": 50, "duration": 15, "velocity": 52}, {"time": 3714, "pitch": 55, "duration": 10, "velocity": 58}, {"time": 3726, "pitch": 41, "duration": 42, "velocity": 71}, {"time": 3726, "pitch": 57, "duration": 22, "velocity": 59}, {"time": 3726, "pitch": 60, "duration": 19, "velocity": 67}, {"time": 3732, "pitch": 48, "duration": 34, "velocity": 49}, {"time": 3738, "pitch": 53, "duration": 27, "velocity": 45}, {"time": 3750, "pitch": 57, "duration": 18, "velocity": 44}, {"time": 3750, "pitch": 60, "duration": 17, "velocity": 64}, {"time": 3774, "pitch": 40, "duration": 24, "velocity": 61}, {"time": 3774, "pitch": 55, "duration": 22, "velocity": 55}, {"time": 3774, "pitch": 59, "duration": 22, "velocity": 61}, {"time": 3780, "pitch": 47, "duration": 19, "velocity": 59}, {"time": 3786, "pitch": 52, "duration": 11, "velocity": 52}, {"time": 3798, "pitch": 45, "duration": 24, "velocity": 65}, {"time": 3798, "pitch": 61, "duration": 23, "velocity": 74}, {"time": 3798, "pitch": 64, "duration": 13, "velocity": 64}, {"time": 3804, "pitch": 52, "duration": 18, "velocity": 52}, {"time": 3810, "pitch": 57, "duration": 11, "velocity": 15}, {"time": 3822, "pitch": 41, "duration": 16, "velocity": 68}, {"time": 3822, "pitch": 57, "duration": 16, "velocity": 57}, {"time": 3822, "pitch": 60, "duration": 16, "velocity": 56}, {"time": 3822, "pitch": 64, "duration": 16, "velocity": 61}, {"time": 3846, "pitch": 40, "duration": 16, "velocity": 43}, {"time": 3846, "pitch": 55, "duration": 17, "velocity": 58}, {"time": 3846, "pitch": 59, "duration": 17, "velocity": 58}, {"time": 3846, "pitch": 62, "duration": 17, "velocity": 59}, {"time": 3870, "pitch": 38, "duration": 13, "velocity": 62}, {"time": 3870, "pitch": 53, "duration": 13, "velocity": 59}, {"time": 3870, "pitch": 57, "duration": 13, "velocity": 54}, {"time": 3870, "pitch": 60, "duration": 14, "velocity": 58}, {"time": 3894, "pitch": 43, "duration": 24, "velocity": 67}, {"time": 3894, "pitch": 59, "duration": 24, "velocity": 59}, {"time": 3894, "pitch": 62, "duration": 24, "velocity": 58}, {"time": 3894, "pitch": 65, "duration": 24, "velocity": 61}, {"time": 3900, "pitch": 50, "duration": 17, "velocity": 59}, {"time": 3906, "pitch": 55, "duration": 10, "velocity": 58}, {"time": 3918, "pitch": 41, "duration": 42, "velocity": 70}, {"time": 3924, "pitch": 48, "duration": 34, "velocity": 60}, {"time": 3930, "pitch": 57, "duration": 8, "velocity": 52}, {"time": 3930, "pitch": 60, "duration": 8, "velocity": 60}, {"time": 3930, "pitch": 64, "duration": 7, "velocity": 58}, {"time": 3936, "pitch": 53, "duration": 7, "velocity": 53}, {"time": 3942, "pitch": 57, "duration": 9, "velocity": 59}, {"time": 3942, "pitch": 60, "duration": 9, "velocity": 59}, {"time": 3942, "pitch": 64, "duration": 9, "velocity": 61}, {"time": 3948, "pitch": 53, "duration": 6, "velocity": 50}, {"time": 3954, "pitch": 57, "duration": 6, "velocity": 65}, {"time": 3954, "pitch": 60, "duration": 6, "velocity": 70}, {"time": 3954, "pitch": 64, "duration": 6, "velocity": 70}, {"time": 3966, "pitch": 40, "duration": 14, "velocity": 71}, {"time": 3966, "pitch": 55, "duration": 15, "velocity": 67}, {"time": 3966, "pitch": 59, "duration": 16, "velocity": 69}, {"time": 3972, "pitch": 47, "duration": 10, "velocity": 61}, {"time": 3978, "pitch": 52, "duration": 9, "velocity": 58}, {"time": 3984, "pitch": 55, "duration": 5, "velocity": 61}, {"time": 3984, "pitch": 59, "duration": 5, "velocity": 67}, {"time": 3990, "pitch": 45, "duration": 17, "velocity": 72}, {"time": 3996, "pitch": 52, "duration": 12, "velocity": 58}, {"time": 4002, "pitch": 60, "duration": 6, "velocity": 59}, {"time": 4002, "pitch": 64, "duration": 6, "velocity": 65}, {"time": 4008, "pitch": 57, "duration": 6, "velocity": 52}, {"time": 4014, "pitch": 50, "duration": 38, "velocity": 65}, {"time": 4014, "pitch": 65, "duration": 15, "velocity": 61}, {"time": 4014, "pitch": 69, "duration": 16, "velocity": 64}, {"time": 4020, "pitch": 57, "duration": 31, "velocity": 58}, {"time": 4026, "pitch": 62, "duration": 7, "velocity": 52}, {"time": 4032, "pitch": 65, "duration": 21, "velocity": 65}, {"time": 4032, "pitch": 69, "duration": 21, "velocity": 71}, {"time": 4062, "pitch": 43, "duration": 43, "velocity": 59}, {"time": 4062, "pitch": 59, "duration": 48, "velocity": 55}, {"time": 4062, "pitch": 62, "duration": 42, "velocity": 53}, {"time": 4062, "pitch": 65, "duration": 13, "velocity": 51}, {"time": 4068, "pitch": 50, "duration": 42, "velocity": 56}, {"time": 4074, "pitch": 55, "duration": 36, "velocity": 60}, {"time": 4080, "pitch": 67, "duration": 25, "velocity": 67}, {"time": 4110, "pitch": 48, "duration": 37, "velocity": 75}, {"time": 4116, "pitch": 55, "duration": 29, "velocity": 68}, {"time": 4122, "pitch": 64, "duration": 8, "velocity": 58}, {"time": 4122, "pitch": 67, "duration": 8, "velocity": 65}, {"time": 4128, "pitch": 60, "duration": 10, "velocity": 58}, {"time": 4140, "pitch": 60, "duration": 5, "velocity": 58}, {"time": 4146, "pitch": 64, "duration": 6, "velocity": 60}, {"time": 4146, "pitch": 67, "duration": 6, "velocity": 64}, {"time": 4158, "pitch": 43, "duration": 20, "velocity": 74}, {"time": 4164, "pitch": 50, "duration": 19, "velocity": 76}, {"time": 4170, "pitch": 59, "duration": 13, "velocity": 62}, {"time": 4170, "pitch": 62, "duration": 7, "velocity": 69}, {"time": 4176, "pitch": 55, "duration": 6, "velocity": 54}, {"time": 4182, "pitch": 45, "duration": 18, "velocity": 73}, {"time": 4182, "pitch": 60, "duration": 15, "velocity": 67}, {"time": 4182, "pitch": 64, "duration": 15, "velocity": 67}, {"time": 4188, "pitch": 52, "duration": 11, "velocity": 62}, {"time": 4194, "pitch": 57, "duration": 4, "velocity": 58}, {"time": 4200, "pitch": 60, "duration": 7, "velocity": 59}, {"time": 4200, "pitch": 64, "duration": 7, "velocity": 72}, {"time": 4206, "pitch": 48, "duration": 18, "velocity": 79}, {"time": 4212, "pitch": 55, "duration": 9, "velocity": 73}, {"time": 4218, "pitch": 64, "duration": 3, "velocity": 59}, {"time": 4218, "pitch": 67, "duration": 3, "velocity": 79}, {"time": 4224, "pitch": 64, "duration": 6, "velocity": 60}, {"time": 4224, "pitch": 67, "duration": 6, "velocity": 73}, {"time": 4230, "pitch": 41, "duration": 15, "velocity": 42}, {"time": 4230, "pitch": 57, "duration": 14, "velocity": 63}, {"time": 4230, "pitch": 60, "duration": 14, "velocity": 69}, {"time": 4236, "pitch": 48, "duration": 9, "velocity": 61}, {"time": 4242, "pitch": 53, "duration": 2, "velocity": 59}, {"time": 4254, "pitch": 38, "duration": 17, "velocity": 66}, {"time": 4254, "pitch": 54, "duration": 18, "velocity": 61}, {"time": 4254, "pitch": 57, "duration": 19, "velocity": 65}, {"time": 4254, "pitch": 60, "duration": 19, "velocity": 60}, {"time": 4260, "pitch": 42, "duration": 11, "velocity": 34}, {"time": 4262, "pitch": 45, "duration": 11, "velocity": 51}, {"time": 4268, "pitch": 50, "duration": 16, "velocity": 68}, {"time": 4274, "pitch": 54, "duration": 8, "velocity": 60}, {"time": 4280, "pitch": 43, "duration": 34, "velocity": 62}, {"time": 4280, "pitch": 59, "duration": 34, "velocity": 48}, {"time": 4280, "pitch": 62, "duration": 35, "velocity": 54}, {"time": 4280, "pitch": 65, "duration": 15, "velocity": 60}, {"time": 4290, "pitch": 50, "duration": 25, "velocity": 67}, {"time": 4296, "pitch": 55, "duration": 19, "velocity": 60}, {"time": 4304, "pitch": 67, "duration": 13, "velocity": 66}, {"time": 4326, "pitch": 64, "duration": 35, "velocity": 50}, {"time": 4326, "pitch": 67, "duration": 35, "velocity": 58}, {"time": 4328, "pitch": 48, "duration": 72, "velocity": 75}, {"time": 4328, "pitch": 72, "duration": 35, "velocity": 67}, {"time": 4334, "pitch": 55, "duration": 64, "velocity": 59}, {"time": 4344, "pitch": 60, "duration": 54, "velocity": 56}, {"time": 4365, "pitch": 79, "duration": 9, "velocity": 69}, {"time": 4368, "pitch": 84, "duration": 9, "velocity": 88}], "annotations": [{"time": 6, "annotation": {"number": 64, "value": 70}, "group": "control_change"}, {"time": 18, "annotation": {"number": 64, "value": 69}, "group": "control_change"}, {"time": 30, "annotation": {"number": 64, "value": 72}, "group": "control_change"}, {"time": 90, "annotation": {"number": 64, "value": 78}, "group": "control_change"}, {"time": 102, "annotation": {"number": 64, "value": 68}, "group": "control_change"}, {"time": 114, "annotation": {"number": 64, "value": 76}, "group": "control_change"}, {"time": 126, "annotation": {"number": 64, "value": 79}, "group": "control_change"}, {"time": 138, "annotation": {"number": 64, "value": 86}, "group": "control_change"}, {"time": 3222, "annotation": {"number": 64, "value": 73}, "group": "control_change"}, {"time": 3234, "annotation": {"number": 64, "value": 74}, "group": "control_change"}, {"time": 3246, "annotation": {"number": 64, "value": 72}, "group": "control_change"}, {"time": 3258, "annotation": {"number": 64, "value": 76}, "group": "control_change"}, {"time": 3270, "annotation": {"number": 64, "value": 68}, "group": "control_change"}, {"time": 3282, "annotation": {"number": 64, "value": 64}, "group": "control_change"}, {"time": 3294, "annotation": {"number": 64, "value": 63}, "group": "control_change"}, {"time": 3306, "annotation": {"number": 64, "value": 65}, "group": "control_change"}, {"time": 3318, "annotation": {"number": 64, "value": 73}, "group": "control_change"}, {"time": 3330, "annotation": {"number": 64, "value": 75}, "group": "control_change"}, {"time": 3354, "annotation": {"number": 64, "value": 76}, "group": "control_change"}, {"time": 3366, "annotation": {"number": 64, "value": 72}, "group": "control_change"}, {"time": 3378, "annotation": {"number": 64, "value": 69}, "group": "control_change"}, {"time": 3390, "annotation": {"number": 64, "value": 67}, "group": "control_change"}, {"time": 3402, "annotation": {"number": 64, "value": 62}, "group": "control_change"}, {"time": 3414, "annotation": {"number": 64, "value": 63}, "group": "control_change"}, {"time": 3426, "annotation": {"number": 64, "value": 76}, "group": "control_change"}, {"time": 3438, "annotation": {"number": 64, "value": 80}, "group": "control_change"}, {"time": 3450, "annotation": {"number": 64, "value": 88}, "group": "control_change"}]}]}