{"metadata": {"schema_version": "0.2", "title": "None", "source_filename": "039.mid", "source_format": "midi"}, "resolution": 12, "tempos": [{"time": 0, "qpm": 77.000077000077}, {"time": 528, "qpm": 75.0}, {"time": 576, "qpm": 75.99996960001216}, {"time": 588, "qpm": 77.000077000077}, {"time": 996, "qpm": 78.000078000078}, {"time": 1032, "qpm": 75.0}, {"time": 1044, "qpm": 80.0}, {"time": 1056, "qpm": 78.000078000078}, {"time": 1056, "qpm": 80.0}, {"time": 1092, "qpm": 78.000078000078}, {"time": 2532, "qpm": 70.00007000007}, {"time": 2556, "qpm": 72.00011520018433}, {"time": 2580, "qpm": 80.0}, {"time": 2604, "qpm": 78.000078000078}], "time_signatures": [{"time": 0, "numerator": 1, "denominator": 4}], "tracks": [{"program": 4, "is_drum": false, "name": "MELODY", "notes": [{"time": 561, "pitch": 74, "duration": 3, "velocity": 83}, {"time": 566, "pitch": 74, "duration": 3, "velocity": 83}, {"time": 572, "pitch": 74, "duration": 2, "velocity": 83}, {"time": 578, "pitch": 74, "duration": 2, "velocity": 83}, {"time": 584, "pitch": 74, "duration": 2, "velocity": 83}, {"time": 590, "pitch": 79, "duration": 5, "velocity": 83}, {"time": 596, "pitch": 77, "duration": 5, "velocity": 82}, {"time": 603, "pitch": 79, "duration": 4, "velocity": 82}, {"time": 609, "pitch": 77, "duration": 6, "velocity": 82}, {"time": 616, "pitch": 74, "duration": 18, "velocity": 82}, {"time": 645, "pitch": 74, "duration": 7, "velocity": 81}, {"time": 650, "pitch": 77, "duration": 6, "velocity": 81}, {"time": 656, "pitch": 82, "duration": 6, "velocity": 81}, {"time": 662, "pitch": 81, "duration": 4, "velocity": 81}, {"time": 669, "pitch": 81, "duration": 5, "velocity": 80}, {"time": 675, "pitch": 79, "duration": 3, "velocity": 80}, {"time": 680, "pitch": 77, "duration": 6, "velocity": 80}, {"time": 687, "pitch": 72, "duration": 7, "velocity": 80}, {"time": 693, "pitch": 74, "duration": 6, "velocity": 79}, {"time": 699, "pitch": 75, "duration": 5, "velocity": 79}, {"time": 704, "pitch": 75, "duration": 1, "velocity": 79}, {"time": 712, "pitch": 74, "duration": 21, "velocity": 79}, {"time": 756, "pitch": 79, "duration": 5, "velocity": 79}, {"time": 763, "pitch": 79, "duration": 3, "velocity": 79}, {"time": 769, "pitch": 79, "duration": 3, "velocity": 78}, {"time": 775, "pitch": 77, "duration": 5, "velocity": 78}, {"time": 781, "pitch": 75, "duration": 6, "velocity": 78}, {"time": 787, "pitch": 74, "duration": 5, "velocity": 78}, {"time": 792, "pitch": 77, "duration": 9, "velocity": 78}, {"time": 805, "pitch": 77, "duration": 5, "velocity": 77}, {"time": 811, "pitch": 77, "duration": 5, "velocity": 76}, {"time": 816, "pitch": 74, "duration": 7, "velocity": 76}, {"time": 823, "pitch": 72, "duration": 6, "velocity": 76}, {"time": 829, "pitch": 70, "duration": 18, "velocity": 76}, {"time": 851, "pitch": 75, "duration": 3, "velocity": 75}, {"time": 857, "pitch": 75, "duration": 5, "velocity": 75}, {"time": 863, "pitch": 74, "duration": 3, "velocity": 74}, {"time": 869, "pitch": 75, "duration": 3, "velocity": 74}, {"time": 875, "pitch": 74, "duration": 2, "velocity": 74}, {"time": 881, "pitch": 75, "duration": 2, "velocity": 74}, {"time": 887, "pitch": 77, "duration": 7, "velocity": 74}, {"time": 899, "pitch": 79, "duration": 3, "velocity": 73}, {"time": 905, "pitch": 79, "duration": 3, "velocity": 73}, {"time": 911, "pitch": 79, "duration": 2, "velocity": 73}, {"time": 917, "pitch": 79, "duration": 2, "velocity": 73}, {"time": 923, "pitch": 76, "duration": 2, "velocity": 73}, {"time": 928, "pitch": 78, "duration": 3, "velocity": 73}, {"time": 934, "pitch": 79, "duration": 3, "velocity": 73}, {"time": 941, "pitch": 78, "duration": 11, "velocity": 73}, {"time": 955, "pitch": 79, "duration": 8, "velocity": 73}, {"time": 968, "pitch": 81, "duration": 60, "velocity": 73}, {"time": 1046, "pitch": 71, "duration": 4, "velocity": 73}, {"time": 1052, "pitch": 76, "duration": 2, "velocity": 73}, {"time": 1058, "pitch": 83, "duration": 3, "velocity": 73}, {"time": 1064, "pitch": 83, "duration": 24, "velocity": 73}, {"time": 1094, "pitch": 71, "duration": 4, "velocity": 73}, {"time": 1101, "pitch": 76, "duration": 2, "velocity": 73}, {"time": 1106, "pitch": 83, "duration": 2, "velocity": 73}, {"time": 1112, "pitch": 83, "duration": 9, "velocity": 73}, {"time": 1124, "pitch": 81, "duration": 2, "velocity": 73}, {"time": 1130, "pitch": 81, "duration": 8, "velocity": 73}, {"time": 1142, "pitch": 79, "duration": 5, "velocity": 73}, {"time": 1148, "pitch": 78, "duration": 4, "velocity": 73}, {"time": 1154, "pitch": 79, "duration": 3, "velocity": 73}, {"time": 1160, "pitch": 81, "duration": 26, "velocity": 73}, {"time": 1190, "pitch": 83, "duration": 5, "velocity": 73}, {"time": 1196, "pitch": 81, "duration": 4, "velocity": 73}, {"time": 1202, "pitch": 83, "duration": 3, "velocity": 73}, {"time": 1208, "pitch": 81, "duration": 6, "velocity": 73}, {"time": 1217, "pitch": 79, "duration": 12, "velocity": 73}, {"time": 1232, "pitch": 79, "duration": 6, "velocity": 73}, {"time": 1238, "pitch": 76, "duration": 3, "velocity": 73}, {"time": 1244, "pitch": 76, "duration": 3, "velocity": 73}, {"time": 1250, "pitch": 78, "duration": 3, "velocity": 73}, {"time": 1256, "pitch": 79, "duration": 27, "velocity": 73}, {"time": 1286, "pitch": 76, "duration": 5, "velocity": 73}, {"time": 1292, "pitch": 83, "duration": 6, "velocity": 73}, {"time": 1301, "pitch": 81, "duration": 16, "velocity": 73}, {"time": 1322, "pitch": 79, "duration": 7, "velocity": 73}, {"time": 1328, "pitch": 78, "duration": 4, "velocity": 74}, {"time": 1334, "pitch": 79, "duration": 3, "velocity": 74}, {"time": 1340, "pitch": 81, "duration": 2, "velocity": 74}, {"time": 1346, "pitch": 84, "duration": 3, "velocity": 74}, {"time": 1352, "pitch": 84, "duration": 8, "velocity": 74}, {"time": 1364, "pitch": 83, "duration": 7, "velocity": 74}, {"time": 1382, "pitch": 83, "duration": 5, "velocity": 74}, {"time": 1388, "pitch": 81, "duration": 3, "velocity": 74}, {"time": 1394, "pitch": 84, "duration": 7, "velocity": 74}, {"time": 1406, "pitch": 83, "duration": 12, "velocity": 74}, {"time": 1418, "pitch": 71, "duration": 4, "velocity": 74}, {"time": 1424, "pitch": 76, "duration": 7, "velocity": 74}, {"time": 1436, "pitch": 83, "duration": 9, "velocity": 74}, {"time": 1448, "pitch": 83, "duration": 24, "velocity": 75}, {"time": 1478, "pitch": 71, "duration": 5, "velocity": 75}, {"time": 1484, "pitch": 76, "duration": 3, "velocity": 75}, {"time": 1490, "pitch": 83, "duration": 2, "velocity": 75}, {"time": 1496, "pitch": 83, "duration": 8, "velocity": 75}, {"time": 1508, "pitch": 84, "duration": 3, "velocity": 75}, {"time": 1514, "pitch": 81, "duration": 6, "velocity": 75}, {"time": 1526, "pitch": 79, "duration": 6, "velocity": 75}, {"time": 1532, "pitch": 78, "duration": 4, "velocity": 75}, {"time": 1538, "pitch": 79, "duration": 3, "velocity": 75}, {"time": 1544, "pitch": 81, "duration": 24, "velocity": 75}, {"time": 1574, "pitch": 74, "duration": 5, "velocity": 75}, {"time": 1580, "pitch": 78, "duration": 3, "velocity": 75}, {"time": 1586, "pitch": 81, "duration": 3, "velocity": 75}, {"time": 1592, "pitch": 84, "duration": 8, "velocity": 75}, {"time": 1598, "pitch": 83, "duration": 2, "velocity": 75}, {"time": 1604, "pitch": 83, "duration": 3, "velocity": 75}, {"time": 1610, "pitch": 81, "duration": 2, "velocity": 75}, {"time": 1616, "pitch": 81, "duration": 3, "velocity": 75}, {"time": 1622, "pitch": 79, "duration": 3, "velocity": 75}, {"time": 1628, "pitch": 78, "duration": 3, "velocity": 75}, {"time": 1634, "pitch": 76, "duration": 4, "velocity": 75}, {"time": 1640, "pitch": 79, "duration": 16, "velocity": 75}, {"time": 1670, "pitch": 76, "duration": 3, "velocity": 75}, {"time": 1676, "pitch": 81, "duration": 3, "velocity": 75}, {"time": 1682, "pitch": 79, "duration": 2, "velocity": 75}, {"time": 1688, "pitch": 78, "duration": 20, "velocity": 75}, {"time": 1712, "pitch": 79, "duration": 9, "velocity": 75}, {"time": 1724, "pitch": 78, "duration": 9, "velocity": 75}, {"time": 1739, "pitch": 79, "duration": 47, "velocity": 75}, {"time": 2072, "pitch": 74, "duration": 3, "velocity": 79}, {"time": 2078, "pitch": 74, "duration": 2, "velocity": 79}, {"time": 2084, "pitch": 74, "duration": 2, "velocity": 79}, {"time": 2090, "pitch": 74, "duration": 2, "velocity": 79}, {"time": 2096, "pitch": 74, "duration": 3, "velocity": 79}, {"time": 2102, "pitch": 79, "duration": 3, "velocity": 79}, {"time": 2108, "pitch": 77, "duration": 3, "velocity": 79}, {"time": 2114, "pitch": 79, "duration": 3, "velocity": 79}, {"time": 2120, "pitch": 77, "duration": 3, "velocity": 79}, {"time": 2126, "pitch": 74, "duration": 6, "velocity": 79}, {"time": 2156, "pitch": 74, "duration": 7, "velocity": 79}, {"time": 2162, "pitch": 77, "duration": 3, "velocity": 79}, {"time": 2168, "pitch": 82, "duration": 3, "velocity": 79}, {"time": 2174, "pitch": 81, "duration": 2, "velocity": 79}, {"time": 2180, "pitch": 81, "duration": 3, "velocity": 79}, {"time": 2186, "pitch": 79, "duration": 3, "velocity": 79}, {"time": 2192, "pitch": 77, "duration": 3, "velocity": 79}, {"time": 2198, "pitch": 72, "duration": 4, "velocity": 79}, {"time": 2204, "pitch": 74, "duration": 3, "velocity": 79}, {"time": 2210, "pitch": 75, "duration": 2, "velocity": 79}, {"time": 2216, "pitch": 75, "duration": 7, "velocity": 79}, {"time": 2225, "pitch": 74, "duration": 15, "velocity": 79}, {"time": 2270, "pitch": 79, "duration": 3, "velocity": 79}, {"time": 2276, "pitch": 79, "duration": 2, "velocity": 79}, {"time": 2282, "pitch": 79, "duration": 3, "velocity": 79}, {"time": 2288, "pitch": 77, "duration": 6, "velocity": 79}, {"time": 2294, "pitch": 72, "duration": 7, "velocity": 79}, {"time": 2306, "pitch": 77, "duration": 8, "velocity": 79}, {"time": 2315, "pitch": 77, "duration": 3, "velocity": 78}, {"time": 2324, "pitch": 77, "duration": 3, "velocity": 78}, {"time": 2330, "pitch": 74, "duration": 3, "velocity": 78}, {"time": 2336, "pitch": 72, "duration": 3, "velocity": 78}, {"time": 2342, "pitch": 70, "duration": 18, "velocity": 78}, {"time": 2366, "pitch": 75, "duration": 3, "velocity": 78}, {"time": 2372, "pitch": 75, "duration": 3, "velocity": 78}, {"time": 2378, "pitch": 74, "duration": 3, "velocity": 78}, {"time": 2384, "pitch": 75, "duration": 3, "velocity": 78}, {"time": 2390, "pitch": 74, "duration": 2, "velocity": 78}, {"time": 2396, "pitch": 75, "duration": 2, "velocity": 78}, {"time": 2402, "pitch": 77, "duration": 10, "velocity": 78}, {"time": 2414, "pitch": 79, "duration": 3, "velocity": 78}, {"time": 2420, "pitch": 79, "duration": 2, "velocity": 78}, {"time": 2426, "pitch": 79, "duration": 2, "velocity": 78}, {"time": 2432, "pitch": 79, "duration": 3, "velocity": 78}, {"time": 2438, "pitch": 76, "duration": 3, "velocity": 78}, {"time": 2444, "pitch": 78, "duration": 3, "velocity": 78}, {"time": 2450, "pitch": 79, "duration": 3, "velocity": 78}, {"time": 2456, "pitch": 78, "duration": 8, "velocity": 78}, {"time": 2468, "pitch": 79, "duration": 9, "velocity": 78}, {"time": 2480, "pitch": 81, "duration": 58, "velocity": 78}, {"time": 2558, "pitch": 71, "duration": 4, "velocity": 78}, {"time": 2564, "pitch": 76, "duration": 2, "velocity": 78}, {"time": 2570, "pitch": 83, "duration": 3, "velocity": 78}, {"time": 2576, "pitch": 83, "duration": 24, "velocity": 78}, {"time": 2606, "pitch": 71, "duration": 4, "velocity": 78}, {"time": 2609, "pitch": 76, "duration": 3, "velocity": 78}, {"time": 2618, "pitch": 83, "duration": 2, "velocity": 78}, {"time": 2624, "pitch": 83, "duration": 9, "velocity": 78}, {"time": 2636, "pitch": 81, "duration": 2, "velocity": 78}, {"time": 2642, "pitch": 81, "duration": 8, "velocity": 78}, {"time": 2654, "pitch": 79, "duration": 5, "velocity": 78}, {"time": 2660, "pitch": 78, "duration": 4, "velocity": 78}, {"time": 2666, "pitch": 79, "duration": 3, "velocity": 78}, {"time": 2672, "pitch": 81, "duration": 26, "velocity": 79}, {"time": 2702, "pitch": 83, "duration": 5, "velocity": 79}, {"time": 2708, "pitch": 81, "duration": 4, "velocity": 79}, {"time": 2714, "pitch": 83, "duration": 3, "velocity": 79}, {"time": 2720, "pitch": 81, "duration": 6, "velocity": 80}, {"time": 2729, "pitch": 79, "duration": 12, "velocity": 80}, {"time": 2744, "pitch": 79, "duration": 6, "velocity": 80}, {"time": 2750, "pitch": 76, "duration": 3, "velocity": 80}, {"time": 2756, "pitch": 76, "duration": 3, "velocity": 80}, {"time": 2762, "pitch": 78, "duration": 3, "velocity": 80}, {"time": 2768, "pitch": 79, "duration": 27, "velocity": 80}, {"time": 2798, "pitch": 76, "duration": 5, "velocity": 80}, {"time": 2804, "pitch": 83, "duration": 6, "velocity": 80}, {"time": 2813, "pitch": 81, "duration": 16, "velocity": 80}, {"time": 2834, "pitch": 79, "duration": 7, "velocity": 80}, {"time": 2840, "pitch": 78, "duration": 4, "velocity": 80}, {"time": 2846, "pitch": 79, "duration": 3, "velocity": 80}, {"time": 2852, "pitch": 81, "duration": 2, "velocity": 80}, {"time": 2858, "pitch": 84, "duration": 3, "velocity": 80}, {"time": 2864, "pitch": 84, "duration": 8, "velocity": 81}, {"time": 2876, "pitch": 83, "duration": 7, "velocity": 81}, {"time": 2894, "pitch": 83, "duration": 5, "velocity": 82}, {"time": 2900, "pitch": 81, "duration": 3, "velocity": 83}, {"time": 2906, "pitch": 84, "duration": 7, "velocity": 83}, {"time": 2918, "pitch": 83, "duration": 12, "velocity": 83}, {"time": 2930, "pitch": 71, "duration": 4, "velocity": 83}, {"time": 2936, "pitch": 76, "duration": 7, "velocity": 83}, {"time": 2948, "pitch": 83, "duration": 9, "velocity": 83}, {"time": 2960, "pitch": 83, "duration": 24, "velocity": 83}, {"time": 2990, "pitch": 71, "duration": 5, "velocity": 83}, {"time": 2996, "pitch": 76, "duration": 3, "velocity": 83}, {"time": 3002, "pitch": 83, "duration": 2, "velocity": 83}, {"time": 3008, "pitch": 83, "duration": 8, "velocity": 83}, {"time": 3020, "pitch": 84, "duration": 3, "velocity": 84}, {"time": 3026, "pitch": 81, "duration": 6, "velocity": 84}, {"time": 3038, "pitch": 79, "duration": 6, "velocity": 84}, {"time": 3044, "pitch": 78, "duration": 4, "velocity": 84}, {"time": 3050, "pitch": 79, "duration": 3, "velocity": 84}, {"time": 3056, "pitch": 81, "duration": 24, "velocity": 84}, {"time": 3086, "pitch": 74, "duration": 5, "velocity": 84}, {"time": 3092, "pitch": 78, "duration": 3, "velocity": 84}, {"time": 3098, "pitch": 81, "duration": 3, "velocity": 84}, {"time": 3104, "pitch": 84, "duration": 8, "velocity": 84}, {"time": 3110, "pitch": 83, "duration": 2, "velocity": 84}, {"time": 3116, "pitch": 83, "duration": 3, "velocity": 84}, {"time": 3122, "pitch": 81, "duration": 2, "velocity": 84}, {"time": 3128, "pitch": 81, "duration": 3, "velocity": 84}, {"time": 3134, "pitch": 79, "duration": 3, "velocity": 84}, {"time": 3140, "pitch": 78, "duration": 3, "velocity": 84}, {"time": 3146, "pitch": 76, "duration": 4, "velocity": 84}, {"time": 3152, "pitch": 79, "duration": 16, "velocity": 84}, {"time": 3182, "pitch": 76, "duration": 3, "velocity": 84}, {"time": 3188, "pitch": 81, "duration": 3, "velocity": 85}, {"time": 3194, "pitch": 79, "duration": 2, "velocity": 85}, {"time": 3200, "pitch": 78, "duration": 20, "velocity": 85}, {"time": 3224, "pitch": 79, "duration": 9, "velocity": 85}, {"time": 3236, "pitch": 78, "duration": 9, "velocity": 85}, {"time": 3248, "pitch": 79, "duration": 50, "velocity": 86}, {"time": 3554, "pitch": 71, "duration": 4, "velocity": 88}, {"time": 3560, "pitch": 76, "duration": 7, "velocity": 88}, {"time": 3572, "pitch": 83, "duration": 9, "velocity": 88}, {"time": 3584, "pitch": 83, "duration": 24, "velocity": 88}, {"time": 3614, "pitch": 71, "duration": 5, "velocity": 89}, {"time": 3620, "pitch": 76, "duration": 3, "velocity": 89}, {"time": 3626, "pitch": 83, "duration": 2, "velocity": 89}, {"time": 3632, "pitch": 83, "duration": 8, "velocity": 89}, {"time": 3644, "pitch": 84, "duration": 3, "velocity": 89}, {"time": 3650, "pitch": 81, "duration": 6, "velocity": 89}, {"time": 3662, "pitch": 79, "duration": 6, "velocity": 89}, {"time": 3668, "pitch": 78, "duration": 4, "velocity": 90}, {"time": 3674, "pitch": 79, "duration": 3, "velocity": 89}, {"time": 3680, "pitch": 81, "duration": 24, "velocity": 90}, {"time": 3710, "pitch": 74, "duration": 5, "velocity": 90}, {"time": 3716, "pitch": 78, "duration": 3, "velocity": 91}, {"time": 3722, "pitch": 81, "duration": 3, "velocity": 90}, {"time": 3728, "pitch": 84, "duration": 8, "velocity": 90}, {"time": 3734, "pitch": 83, "duration": 2, "velocity": 90}, {"time": 3740, "pitch": 83, "duration": 3, "velocity": 91}, {"time": 3746, "pitch": 81, "duration": 2, "velocity": 91}, {"time": 3752, "pitch": 81, "duration": 3, "velocity": 91}, {"time": 3758, "pitch": 79, "duration": 3, "velocity": 91}, {"time": 3764, "pitch": 78, "duration": 3, "velocity": 91}, {"time": 3770, "pitch": 76, "duration": 4, "velocity": 91}, {"time": 3776, "pitch": 79, "duration": 16, "velocity": 91}, {"time": 3806, "pitch": 76, "duration": 3, "velocity": 92}, {"time": 3812, "pitch": 81, "duration": 3, "velocity": 92}, {"time": 3818, "pitch": 79, "duration": 2, "velocity": 92}, {"time": 3824, "pitch": 78, "duration": 20, "velocity": 92}, {"time": 3848, "pitch": 79, "duration": 11, "velocity": 92}, {"time": 3860, "pitch": 81, "duration": 7, "velocity": 92}, {"time": 3872, "pitch": 83, "duration": 50, "velocity": 92}, {"time": 3944, "pitch": 79, "duration": 14, "velocity": 92}, {"time": 3962, "pitch": 78, "duration": 7, "velocity": 91}, {"time": 3974, "pitch": 76, "duration": 89, "velocity": 91}], "annotations": [{"time": 8, "annotation": {"number": 64, "value": 74}, "group": "control_change"}, {"time": 212, "annotation": {"number": 64, "value": 73}, "group": "control_change"}, {"time": 248, "annotation": {"number": 64, "value": 72}, "group": "control_change"}]}, {"program": 0, "is_drum": false, "name": "PIANO", "notes": [{"time": 57, "pitch": 55, "duration": 16, "velocity": 69}, {"time": 64, "pitch": 57, "duration": 11, "velocity": 56}, {"time": 71, "pitch": 58, "duration": 8, "velocity": 63}, {"time": 77, "pitch": 62, "duration": 10, "velocity": 58}, {"time": 84, "pitch": 57, "duration": 8, "velocity": 59}, {"time": 90, "pitch": 58, "duration": 8, "velocity": 60}, {"time": 96, "pitch": 62, "duration": 22, "velocity": 60}, {"time": 109, "pitch": 53, "duration": 14, "velocity": 64}, {"time": 116, "pitch": 57, "duration": 8, "velocity": 56}, {"time": 123, "pitch": 58, "duration": 8, "velocity": 63}, {"time": 129, "pitch": 62, "duration": 10, "velocity": 65}, {"time": 135, "pitch": 57, "duration": 5, "velocity": 60}, {"time": 142, "pitch": 58, "duration": 8, "velocity": 61}, {"time": 148, "pitch": 62, "duration": 15, "velocity": 63}, {"time": 161, "pitch": 51, "duration": 24, "velocity": 65}, {"time": 168, "pitch": 55, "duration": 13, "velocity": 58}, {"time": 175, "pitch": 58, "duration": 6, "velocity": 70}, {"time": 181, "pitch": 62, "duration": 7, "velocity": 60}, {"time": 187, "pitch": 55, "duration": 14, "velocity": 58}, {"time": 194, "pitch": 58, "duration": 6, "velocity": 69}, {"time": 200, "pitch": 62, "duration": 12, "velocity": 71}, {"time": 213, "pitch": 50, "duration": 40, "velocity": 65}, {"time": 220, "pitch": 57, "duration": 9, "velocity": 56}, {"time": 227, "pitch": 58, "duration": 6, "velocity": 61}, {"time": 233, "pitch": 62, "duration": 6, "velocity": 62}, {"time": 240, "pitch": 57, "duration": 7, "velocity": 60}, {"time": 246, "pitch": 58, "duration": 6, "velocity": 62}, {"time": 253, "pitch": 62, "duration": 6, "velocity": 75}, {"time": 265, "pitch": 48, "duration": 47, "velocity": 73}, {"time": 272, "pitch": 60, "duration": 7, "velocity": 50}, {"time": 279, "pitch": 63, "duration": 6, "velocity": 64}, {"time": 285, "pitch": 60, "duration": 8, "velocity": 59}, {"time": 292, "pitch": 62, "duration": 6, "velocity": 66}, {"time": 298, "pitch": 63, "duration": 14, "velocity": 68}, {"time": 318, "pitch": 43, "duration": 23, "velocity": 64}, {"time": 324, "pitch": 50, "duration": 20, "velocity": 60}, {"time": 331, "pitch": 58, "duration": 5, "velocity": 62}, {"time": 337, "pitch": 55, "duration": 6, "velocity": 53}, {"time": 344, "pitch": 57, "duration": 5, "velocity": 60}, {"time": 350, "pitch": 58, "duration": 9, "velocity": 60}, {"time": 371, "pitch": 45, "duration": 26, "velocity": 60}, {"time": 377, "pitch": 51, "duration": 12, "velocity": 51}, {"time": 383, "pitch": 55, "duration": 6, "velocity": 63}, {"time": 389, "pitch": 60, "duration": 14, "velocity": 68}, {"time": 395, "pitch": 63, "duration": 7, "velocity": 72}, {"time": 402, "pitch": 67, "duration": 12, "velocity": 65}, {"time": 421, "pitch": 62, "duration": 9, "velocity": 52}, {"time": 422, "pitch": 66, "duration": 17, "velocity": 60}, {"time": 422, "pitch": 38, "duration": 30, "velocity": 53}, {"time": 429, "pitch": 45, "duration": 23, "velocity": 56}, {"time": 435, "pitch": 50, "duration": 17, "velocity": 58}, {"time": 442, "pitch": 66, "duration": 4, "velocity": 60}, {"time": 447, "pitch": 67, "duration": 21, "velocity": 51}, {"time": 447, "pitch": 63, "duration": 21, "velocity": 43}, {"time": 448, "pitch": 51, "duration": 21, "velocity": 46}, {"time": 448, "pitch": 70, "duration": 20, "velocity": 56}, {"time": 472, "pitch": 50, "duration": 9, "velocity": 44}, {"time": 473, "pitch": 74, "duration": 9, "velocity": 42}, {"time": 473, "pitch": 81, "duration": 15, "velocity": 62}, {"time": 473, "pitch": 54, "duration": 6, "velocity": 68}, {"time": 474, "pitch": 57, "duration": 28, "velocity": 54}, {"time": 474, "pitch": 86, "duration": 22, "velocity": 59}, {"time": 560, "pitch": 70, "duration": 16, "velocity": 60}, {"time": 560, "pitch": 55, "duration": 16, "velocity": 61}, {"time": 560, "pitch": 67, "duration": 15, "velocity": 41}, {"time": 561, "pitch": 74, "duration": 14, "velocity": 62}, {"time": 584, "pitch": 69, "duration": 15, "velocity": 58}, {"time": 584, "pitch": 65, "duration": 16, "velocity": 37}, {"time": 584, "pitch": 53, "duration": 15, "velocity": 59}, {"time": 585, "pitch": 72, "duration": 14, "velocity": 58}, {"time": 607, "pitch": 67, "duration": 27, "velocity": 55}, {"time": 607, "pitch": 63, "duration": 26, "velocity": 47}, {"time": 608, "pitch": 77, "duration": 21, "velocity": 67}, {"time": 608, "pitch": 51, "duration": 25, "velocity": 54}, {"time": 610, "pitch": 70, "duration": 24, "velocity": 59}, {"time": 655, "pitch": 67, "duration": 13, "velocity": 45}, {"time": 656, "pitch": 70, "duration": 10, "velocity": 36}, {"time": 656, "pitch": 51, "duration": 11, "velocity": 61}, {"time": 657, "pitch": 77, "duration": 9, "velocity": 43}, {"time": 680, "pitch": 69, "duration": 14, "velocity": 63}, {"time": 680, "pitch": 53, "duration": 13, "velocity": 59}, {"time": 680, "pitch": 65, "duration": 14, "velocity": 60}, {"time": 704, "pitch": 55, "duration": 41, "velocity": 58}, {"time": 704, "pitch": 67, "duration": 41, "velocity": 69}, {"time": 705, "pitch": 62, "duration": 41, "velocity": 41}, {"time": 752, "pitch": 51, "duration": 20, "velocity": 65}, {"time": 757, "pitch": 58, "duration": 16, "velocity": 61}, {"time": 763, "pitch": 63, "duration": 6, "velocity": 51}, {"time": 769, "pitch": 74, "duration": 6, "velocity": 66}, {"time": 775, "pitch": 53, "duration": 20, "velocity": 76}, {"time": 776, "pitch": 72, "duration": 6, "velocity": 67}, {"time": 781, "pitch": 60, "duration": 13, "velocity": 58}, {"time": 781, "pitch": 70, "duration": 7, "velocity": 62}, {"time": 787, "pitch": 65, "duration": 6, "velocity": 51}, {"time": 788, "pitch": 69, "duration": 6, "velocity": 58}, {"time": 793, "pitch": 70, "duration": 12, "velocity": 75}, {"time": 799, "pitch": 50, "duration": 17, "velocity": 71}, {"time": 804, "pitch": 57, "duration": 13, "velocity": 60}, {"time": 811, "pitch": 65, "duration": 7, "velocity": 63}, {"time": 817, "pitch": 69, "duration": 5, "velocity": 61}, {"time": 823, "pitch": 70, "duration": 21, "velocity": 60}, {"time": 823, "pitch": 62, "duration": 19, "velocity": 36}, {"time": 824, "pitch": 55, "duration": 22, "velocity": 61}, {"time": 845, "pitch": 48, "duration": 31, "velocity": 69}, {"time": 852, "pitch": 55, "duration": 30, "velocity": 53}, {"time": 857, "pitch": 60, "duration": 23, "velocity": 55}, {"time": 863, "pitch": 63, "duration": 7, "velocity": 58}, {"time": 869, "pitch": 67, "duration": 7, "velocity": 72}, {"time": 875, "pitch": 63, "duration": 15, "velocity": 51}, {"time": 892, "pitch": 60, "duration": 3, "velocity": 65}, {"time": 892, "pitch": 45, "duration": 8, "velocity": 72}, {"time": 893, "pitch": 57, "duration": 2, "velocity": 36}, {"time": 893, "pitch": 63, "duration": 3, "velocity": 69}, {"time": 899, "pitch": 51, "duration": 11, "velocity": 68}, {"time": 905, "pitch": 57, "duration": 7, "velocity": 69}, {"time": 911, "pitch": 60, "duration": 6, "velocity": 61}, {"time": 917, "pitch": 63, "duration": 11, "velocity": 93}, {"time": 922, "pitch": 57, "duration": 10, "velocity": 58}, {"time": 929, "pitch": 60, "duration": 6, "velocity": 63}, {"time": 935, "pitch": 63, "duration": 7, "velocity": 64}, {"time": 941, "pitch": 69, "duration": 7, "velocity": 83}, {"time": 941, "pitch": 62, "duration": 7, "velocity": 67}, {"time": 941, "pitch": 50, "duration": 7, "velocity": 76}, {"time": 954, "pitch": 67, "duration": 6, "velocity": 79}, {"time": 954, "pitch": 48, "duration": 6, "velocity": 81}, {"time": 954, "pitch": 63, "duration": 6, "velocity": 67}, {"time": 968, "pitch": 47, "duration": 61, "velocity": 74}, {"time": 969, "pitch": 59, "duration": 58, "velocity": 97}, {"time": 971, "pitch": 63, "duration": 25, "velocity": 60}, {"time": 974, "pitch": 66, "duration": 10, "velocity": 65}, {"time": 977, "pitch": 67, "duration": 4, "velocity": 61}, {"time": 979, "pitch": 69, "duration": 20, "velocity": 55}, {"time": 987, "pitch": 71, "duration": 9, "velocity": 64}, {"time": 990, "pitch": 75, "duration": 12, "velocity": 65}, {"time": 994, "pitch": 78, "duration": 9, "velocity": 61}, {"time": 999, "pitch": 81, "duration": 11, "velocity": 64}, {"time": 1005, "pitch": 83, "duration": 21, "velocity": 75}, {"time": 1016, "pitch": 90, "duration": 27, "velocity": 70}, {"time": 1064, "pitch": 60, "duration": 37, "velocity": 99}, {"time": 1064, "pitch": 83, "duration": 6, "velocity": 99}, {"time": 1070, "pitch": 64, "duration": 31, "velocity": 99}, {"time": 1070, "pitch": 81, "duration": 2, "velocity": 99}, {"time": 1073, "pitch": 83, "duration": 2, "velocity": 99}, {"time": 1076, "pitch": 67, "duration": 24, "velocity": 99}, {"time": 1076, "pitch": 78, "duration": 4, "velocity": 99}, {"time": 1082, "pitch": 76, "duration": 3, "velocity": 99}, {"time": 1085, "pitch": 78, "duration": 2, "velocity": 99}, {"time": 1088, "pitch": 71, "duration": 17, "velocity": 99}, {"time": 1112, "pitch": 62, "duration": 38, "velocity": 99}, {"time": 1112, "pitch": 83, "duration": 3, "velocity": 99}, {"time": 1115, "pitch": 66, "duration": 32, "velocity": 99}, {"time": 1118, "pitch": 81, "duration": 2, "velocity": 99}, {"time": 1121, "pitch": 83, "duration": 2, "velocity": 99}, {"time": 1124, "pitch": 78, "duration": 4, "velocity": 99}, {"time": 1130, "pitch": 76, "duration": 3, "velocity": 99}, {"time": 1133, "pitch": 78, "duration": 3, "velocity": 99}, {"time": 1136, "pitch": 71, "duration": 13, "velocity": 99}, {"time": 1160, "pitch": 59, "duration": 14, "velocity": 99}, {"time": 1160, "pitch": 78, "duration": 5, "velocity": 99}, {"time": 1166, "pitch": 76, "duration": 2, "velocity": 99}, {"time": 1167, "pitch": 62, "duration": 6, "velocity": 99}, {"time": 1169, "pitch": 78, "duration": 2, "velocity": 99}, {"time": 1172, "pitch": 66, "duration": 13, "velocity": 99}, {"time": 1172, "pitch": 74, "duration": 7, "velocity": 99}, {"time": 1178, "pitch": 69, "duration": 3, "velocity": 99}, {"time": 1181, "pitch": 71, "duration": 2, "velocity": 99}, {"time": 1184, "pitch": 66, "duration": 1, "velocity": 99}, {"time": 1208, "pitch": 52, "duration": 24, "velocity": 99}, {"time": 1208, "pitch": 81, "duration": 5, "velocity": 99}, {"time": 1214, "pitch": 59, "duration": 16, "velocity": 100}, {"time": 1214, "pitch": 76, "duration": 2, "velocity": 100}, {"time": 1217, "pitch": 78, "duration": 3, "velocity": 100}, {"time": 1220, "pitch": 64, "duration": 12, "velocity": 100}, {"time": 1220, "pitch": 74, "duration": 10, "velocity": 100}, {"time": 1226, "pitch": 69, "duration": 4, "velocity": 100}, {"time": 1229, "pitch": 71, "duration": 2, "velocity": 100}, {"time": 1232, "pitch": 50, "duration": 18, "velocity": 100}, {"time": 1232, "pitch": 67, "duration": 15, "velocity": 100}, {"time": 1238, "pitch": 57, "duration": 12, "velocity": 100}, {"time": 1244, "pitch": 62, "duration": 8, "velocity": 100}, {"time": 1256, "pitch": 45, "duration": 38, "velocity": 100}, {"time": 1262, "pitch": 52, "duration": 31, "velocity": 100}, {"time": 1262, "pitch": 71, "duration": 7, "velocity": 100}, {"time": 1268, "pitch": 57, "duration": 25, "velocity": 100}, {"time": 1268, "pitch": 76, "duration": 6, "velocity": 100}, {"time": 1274, "pitch": 59, "duration": 6, "velocity": 100}, {"time": 1274, "pitch": 78, "duration": 7, "velocity": 100}, {"time": 1280, "pitch": 60, "duration": 15, "velocity": 100}, {"time": 1280, "pitch": 79, "duration": 19, "velocity": 100}, {"time": 1304, "pitch": 50, "duration": 37, "velocity": 100}, {"time": 1310, "pitch": 57, "duration": 32, "velocity": 100}, {"time": 1310, "pitch": 74, "duration": 6, "velocity": 100}, {"time": 1316, "pitch": 62, "duration": 22, "velocity": 100}, {"time": 1316, "pitch": 76, "duration": 2, "velocity": 100}, {"time": 1322, "pitch": 66, "duration": 19, "velocity": 100}, {"time": 1322, "pitch": 78, "duration": 23, "velocity": 100}, {"time": 1334, "pitch": 54, "duration": 8, "velocity": 100}, {"time": 1340, "pitch": 69, "duration": 11, "velocity": 100}, {"time": 1352, "pitch": 43, "duration": 41, "velocity": 100}, {"time": 1358, "pitch": 50, "duration": 36, "velocity": 100}, {"time": 1364, "pitch": 55, "duration": 12, "velocity": 100}, {"time": 1370, "pitch": 59, "duration": 20, "velocity": 101}, {"time": 1382, "pitch": 55, "duration": 8, "velocity": 101}, {"time": 1388, "pitch": 62, "duration": 7, "velocity": 101}, {"time": 1394, "pitch": 59, "duration": 13, "velocity": 101}, {"time": 1400, "pitch": 47, "duration": 22, "velocity": 101}, {"time": 1400, "pitch": 51, "duration": 16, "velocity": 101}, {"time": 1400, "pitch": 54, "duration": 18, "velocity": 101}, {"time": 1400, "pitch": 59, "duration": 7, "velocity": 101}, {"time": 1400, "pitch": 63, "duration": 10, "velocity": 101}, {"time": 1400, "pitch": 66, "duration": 11, "velocity": 101}, {"time": 1412, "pitch": 63, "duration": 10, "velocity": 101}, {"time": 1412, "pitch": 66, "duration": 11, "velocity": 101}, {"time": 1424, "pitch": 47, "duration": 23, "velocity": 101}, {"time": 1424, "pitch": 54, "duration": 21, "velocity": 101}, {"time": 1424, "pitch": 59, "duration": 21, "velocity": 101}, {"time": 1424, "pitch": 63, "duration": 11, "velocity": 101}, {"time": 1424, "pitch": 66, "duration": 11, "velocity": 101}, {"time": 1427, "pitch": 51, "duration": 18, "velocity": 101}, {"time": 1436, "pitch": 63, "duration": 11, "velocity": 101}, {"time": 1436, "pitch": 66, "duration": 11, "velocity": 101}, {"time": 1448, "pitch": 48, "duration": 41, "velocity": 101}, {"time": 1448, "pitch": 83, "duration": 6, "velocity": 101}, {"time": 1454, "pitch": 55, "duration": 12, "velocity": 101}, {"time": 1454, "pitch": 81, "duration": 2, "velocity": 101}, {"time": 1457, "pitch": 83, "duration": 2, "velocity": 101}, {"time": 1460, "pitch": 60, "duration": 5, "velocity": 101}, {"time": 1460, "pitch": 78, "duration": 4, "velocity": 101}, {"time": 1466, "pitch": 52, "duration": 15, "velocity": 101}, {"time": 1466, "pitch": 76, "duration": 3, "velocity": 101}, {"time": 1469, "pitch": 78, "duration": 2, "velocity": 101}, {"time": 1472, "pitch": 55, "duration": 20, "velocity": 101}, {"time": 1472, "pitch": 71, "duration": 17, "velocity": 101}, {"time": 1478, "pitch": 60, "duration": 8, "velocity": 102}, {"time": 1484, "pitch": 52, "duration": 7, "velocity": 102}, {"time": 1496, "pitch": 50, "duration": 45, "velocity": 103}, {"time": 1496, "pitch": 83, "duration": 3, "velocity": 103}, {"time": 1502, "pitch": 81, "duration": 2, "velocity": 103}, {"time": 1505, "pitch": 83, "duration": 2, "velocity": 103}, {"time": 1508, "pitch": 54, "duration": 32, "velocity": 103}, {"time": 1508, "pitch": 76, "duration": 4, "velocity": 103}, {"time": 1514, "pitch": 57, "duration": 27, "velocity": 103}, {"time": 1514, "pitch": 78, "duration": 3, "velocity": 103}, {"time": 1517, "pitch": 76, "duration": 3, "velocity": 103}, {"time": 1520, "pitch": 62, "duration": 20, "velocity": 103}, {"time": 1520, "pitch": 71, "duration": 13, "velocity": 103}, {"time": 1544, "pitch": 47, "duration": 33, "velocity": 103}, {"time": 1544, "pitch": 59, "duration": 9, "velocity": 103}, {"time": 1544, "pitch": 66, "duration": 8, "velocity": 103}, {"time": 1544, "pitch": 78, "duration": 5, "velocity": 103}, {"time": 1550, "pitch": 50, "duration": 26, "velocity": 103}, {"time": 1550, "pitch": 76, "duration": 2, "velocity": 103}, {"time": 1553, "pitch": 78, "duration": 2, "velocity": 103}, {"time": 1556, "pitch": 59, "duration": 8, "velocity": 103}, {"time": 1556, "pitch": 66, "duration": 8, "velocity": 103}, {"time": 1556, "pitch": 74, "duration": 7, "velocity": 103}, {"time": 1562, "pitch": 54, "duration": 14, "velocity": 103}, {"time": 1562, "pitch": 69, "duration": 3, "velocity": 103}, {"time": 1565, "pitch": 71, "duration": 2, "velocity": 103}, {"time": 1568, "pitch": 59, "duration": 8, "velocity": 81}, {"time": 1568, "pitch": 66, "duration": 7, "velocity": 69}, {"time": 1580, "pitch": 40, "duration": 3, "velocity": 49}, {"time": 1592, "pitch": 40, "duration": 17, "velocity": 71}, {"time": 1592, "pitch": 55, "duration": 16, "velocity": 64}, {"time": 1592, "pitch": 59, "duration": 16, "velocity": 90}, {"time": 1598, "pitch": 47, "duration": 11, "velocity": 14}, {"time": 1604, "pitch": 52, "duration": 6, "velocity": 63}, {"time": 1610, "pitch": 55, "duration": 8, "velocity": 63}, {"time": 1616, "pitch": 38, "duration": 20, "velocity": 77}, {"time": 1622, "pitch": 45, "duration": 15, "velocity": 60}, {"time": 1628, "pitch": 54, "duration": 13, "velocity": 60}, {"time": 1634, "pitch": 50, "duration": 3, "velocity": 56}, {"time": 1640, "pitch": 49, "duration": 33, "velocity": 59}, {"time": 1640, "pitch": 55, "duration": 31, "velocity": 72}, {"time": 1640, "pitch": 59, "duration": 31, "velocity": 75}, {"time": 1640, "pitch": 64, "duration": 32, "velocity": 59}, {"time": 1688, "pitch": 45, "duration": 24, "velocity": 46}, {"time": 1688, "pitch": 48, "duration": 24, "velocity": 64}, {"time": 1688, "pitch": 52, "duration": 24, "velocity": 63}, {"time": 1688, "pitch": 60, "duration": 24, "velocity": 46}, {"time": 1688, "pitch": 64, "duration": 22, "velocity": 62}, {"time": 1712, "pitch": 52, "duration": 15, "velocity": 59}, {"time": 1712, "pitch": 55, "duration": 16, "velocity": 43}, {"time": 1712, "pitch": 60, "duration": 16, "velocity": 58}, {"time": 1712, "pitch": 64, "duration": 15, "velocity": 39}, {"time": 1736, "pitch": 52, "duration": 35, "velocity": 65}, {"time": 1742, "pitch": 59, "duration": 23, "velocity": 65}, {"time": 1748, "pitch": 64, "duration": 7, "velocity": 60}, {"time": 1754, "pitch": 66, "duration": 8, "velocity": 62}, {"time": 1760, "pitch": 67, "duration": 4, "velocity": 59}, {"time": 1766, "pitch": 69, "duration": 3, "velocity": 72}, {"time": 1772, "pitch": 66, "duration": 6, "velocity": 64}, {"time": 1778, "pitch": 67, "duration": 6, "velocity": 59}, {"time": 1784, "pitch": 52, "duration": 40, "velocity": 63}, {"time": 1790, "pitch": 59, "duration": 33, "velocity": 67}, {"time": 1796, "pitch": 64, "duration": 7, "velocity": 60}, {"time": 1802, "pitch": 66, "duration": 8, "velocity": 64}, {"time": 1808, "pitch": 67, "duration": 9, "velocity": 83}, {"time": 1814, "pitch": 62, "duration": 2, "velocity": 65}, {"time": 1814, "pitch": 69, "duration": 6, "velocity": 58}, {"time": 1814, "pitch": 74, "duration": 2, "velocity": 70}, {"time": 1820, "pitch": 67, "duration": 3, "velocity": 65}, {"time": 1820, "pitch": 79, "duration": 3, "velocity": 68}, {"time": 1826, "pitch": 74, "duration": 2, "velocity": 69}, {"time": 1826, "pitch": 86, "duration": 2, "velocity": 72}, {"time": 1832, "pitch": 43, "duration": 38, "velocity": 80}, {"time": 1832, "pitch": 58, "duration": 10, "velocity": 80}, {"time": 1832, "pitch": 62, "duration": 10, "velocity": 80}, {"time": 1832, "pitch": 67, "duration": 10, "velocity": 80}, {"time": 1832, "pitch": 74, "duration": 12, "velocity": 80}, {"time": 1832, "pitch": 86, "duration": 13, "velocity": 80}, {"time": 1838, "pitch": 50, "duration": 32, "velocity": 80}, {"time": 1844, "pitch": 58, "duration": 14, "velocity": 80}, {"time": 1844, "pitch": 62, "duration": 14, "velocity": 80}, {"time": 1844, "pitch": 67, "duration": 14, "velocity": 80}, {"time": 1862, "pitch": 58, "duration": 8, "velocity": 74}, {"time": 1862, "pitch": 62, "duration": 7, "velocity": 74}, {"time": 1862, "pitch": 67, "duration": 8, "velocity": 74}, {"time": 1862, "pitch": 74, "duration": 7, "velocity": 74}, {"time": 1868, "pitch": 67, "duration": 2, "velocity": 74}, {"time": 1868, "pitch": 79, "duration": 3, "velocity": 74}, {"time": 1874, "pitch": 74, "duration": 3, "velocity": 73}, {"time": 1874, "pitch": 86, "duration": 3, "velocity": 73}, {"time": 1880, "pitch": 41, "duration": 37, "velocity": 68}, {"time": 1880, "pitch": 57, "duration": 12, "velocity": 68}, {"time": 1880, "pitch": 60, "duration": 12, "velocity": 68}, {"time": 1880, "pitch": 65, "duration": 11, "velocity": 68}, {"time": 1880, "pitch": 74, "duration": 8, "velocity": 68}, {"time": 1880, "pitch": 86, "duration": 8, "velocity": 68}, {"time": 1886, "pitch": 48, "duration": 31, "velocity": 68}, {"time": 1892, "pitch": 53, "duration": 8, "velocity": 73}, {"time": 1892, "pitch": 72, "duration": 16, "velocity": 73}, {"time": 1892, "pitch": 84, "duration": 16, "velocity": 73}, {"time": 1898, "pitch": 57, "duration": 15, "velocity": 77}, {"time": 1898, "pitch": 60, "duration": 15, "velocity": 77}, {"time": 1898, "pitch": 65, "duration": 15, "velocity": 77}, {"time": 1910, "pitch": 53, "duration": 5, "velocity": 79}, {"time": 1910, "pitch": 62, "duration": 8, "velocity": 79}, {"time": 1910, "pitch": 74, "duration": 8, "velocity": 79}, {"time": 1916, "pitch": 57, "duration": 5, "velocity": 82}, {"time": 1916, "pitch": 60, "duration": 5, "velocity": 82}, {"time": 1916, "pitch": 65, "duration": 4, "velocity": 82}, {"time": 1916, "pitch": 67, "duration": 3, "velocity": 82}, {"time": 1916, "pitch": 79, "duration": 3, "velocity": 82}, {"time": 1922, "pitch": 74, "duration": 2, "velocity": 79}, {"time": 1922, "pitch": 86, "duration": 2, "velocity": 79}, {"time": 1928, "pitch": 39, "duration": 39, "velocity": 76}, {"time": 1928, "pitch": 55, "duration": 16, "velocity": 76}, {"time": 1928, "pitch": 58, "duration": 17, "velocity": 76}, {"time": 1928, "pitch": 63, "duration": 16, "velocity": 76}, {"time": 1928, "pitch": 74, "duration": 5, "velocity": 76}, {"time": 1928, "pitch": 86, "duration": 5, "velocity": 76}, {"time": 1934, "pitch": 46, "duration": 31, "velocity": 75}, {"time": 1934, "pitch": 72, "duration": 3, "velocity": 75}, {"time": 1934, "pitch": 84, "duration": 3, "velocity": 75}, {"time": 1940, "pitch": 51, "duration": 10, "velocity": 79}, {"time": 1940, "pitch": 77, "duration": 5, "velocity": 79}, {"time": 1940, "pitch": 89, "duration": 5, "velocity": 79}, {"time": 1946, "pitch": 55, "duration": 16, "velocity": 80}, {"time": 1946, "pitch": 58, "duration": 16, "velocity": 80}, {"time": 1946, "pitch": 63, "duration": 16, "velocity": 80}, {"time": 1946, "pitch": 75, "duration": 3, "velocity": 80}, {"time": 1946, "pitch": 87, "duration": 3, "velocity": 80}, {"time": 1952, "pitch": 51, "duration": 12, "velocity": 78}, {"time": 1952, "pitch": 74, "duration": 12, "velocity": 78}, {"time": 1952, "pitch": 86, "duration": 12, "velocity": 78}, {"time": 1964, "pitch": 55, "duration": 4, "velocity": 72}, {"time": 1964, "pitch": 58, "duration": 4, "velocity": 72}, {"time": 1964, "pitch": 63, "duration": 4, "velocity": 72}, {"time": 1964, "pitch": 72, "duration": 9, "velocity": 72}, {"time": 1964, "pitch": 84, "duration": 9, "velocity": 72}, {"time": 1976, "pitch": 38, "duration": 37, "velocity": 81}, {"time": 1976, "pitch": 74, "duration": 48, "velocity": 81}, {"time": 1976, "pitch": 86, "duration": 48, "velocity": 81}, {"time": 1982, "pitch": 45, "duration": 31, "velocity": 74}, {"time": 1988, "pitch": 50, "duration": 24, "velocity": 59}, {"time": 1994, "pitch": 54, "duration": 13, "velocity": 61}, {"time": 2000, "pitch": 57, "duration": 7, "velocity": 74}, {"time": 2006, "pitch": 60, "duration": 4, "velocity": 67}, {"time": 2006, "pitch": 66, "duration": 7, "velocity": 62}, {"time": 2012, "pitch": 69, "duration": 6, "velocity": 64}, {"time": 2020, "pitch": 78, "duration": 5, "velocity": 56}, {"time": 2023, "pitch": 81, "duration": 4, "velocity": 73}, {"time": 2025, "pitch": 86, "duration": 31, "velocity": 81}, {"time": 2048, "pitch": 81, "duration": 19, "velocity": 81}, {"time": 2072, "pitch": 43, "duration": 19, "velocity": 72}, {"time": 2078, "pitch": 50, "duration": 12, "velocity": 63}, {"time": 2084, "pitch": 55, "duration": 6, "velocity": 55}, {"time": 2090, "pitch": 58, "duration": 8, "velocity": 67}, {"time": 2096, "pitch": 41, "duration": 18, "velocity": 77}, {"time": 2102, "pitch": 48, "duration": 12, "velocity": 77}, {"time": 2108, "pitch": 57, "duration": 7, "velocity": 61}, {"time": 2114, "pitch": 60, "duration": 7, "velocity": 67}, {"time": 2120, "pitch": 39, "duration": 43, "velocity": 72}, {"time": 2126, "pitch": 46, "duration": 38, "velocity": 62}, {"time": 2132, "pitch": 55, "duration": 12, "velocity": 55}, {"time": 2138, "pitch": 58, "duration": 17, "velocity": 65}, {"time": 2150, "pitch": 51, "duration": 13, "velocity": 53}, {"time": 2156, "pitch": 55, "duration": 11, "velocity": 65}, {"time": 2162, "pitch": 58, "duration": 6, "velocity": 67}, {"time": 2168, "pitch": 39, "duration": 19, "velocity": 72}, {"time": 2174, "pitch": 46, "duration": 18, "velocity": 63}, {"time": 2180, "pitch": 55, "duration": 12, "velocity": 67}, {"time": 2186, "pitch": 58, "duration": 7, "velocity": 64}, {"time": 2192, "pitch": 41, "duration": 16, "velocity": 58}, {"time": 2198, "pitch": 48, "duration": 12, "velocity": 62}, {"time": 2204, "pitch": 53, "duration": 7, "velocity": 60}, {"time": 2210, "pitch": 57, "duration": 7, "velocity": 63}, {"time": 2216, "pitch": 43, "duration": 44, "velocity": 65}, {"time": 2222, "pitch": 50, "duration": 41, "velocity": 60}, {"time": 2228, "pitch": 57, "duration": 20, "velocity": 63}, {"time": 2234, "pitch": 60, "duration": 14, "velocity": 66}, {"time": 2240, "pitch": 55, "duration": 13, "velocity": 59}, {"time": 2246, "pitch": 63, "duration": 12, "velocity": 65}, {"time": 2258, "pitch": 55, "duration": 5, "velocity": 60}, {"time": 2264, "pitch": 39, "duration": 19, "velocity": 74}, {"time": 2270, "pitch": 46, "duration": 15, "velocity": 74}, {"time": 2276, "pitch": 55, "duration": 12, "velocity": 67}, {"time": 2279, "pitch": 58, "duration": 7, "velocity": 64}, {"time": 2288, "pitch": 41, "duration": 18, "velocity": 66}, {"time": 2294, "pitch": 48, "duration": 10, "velocity": 67}, {"time": 2300, "pitch": 57, "duration": 8, "velocity": 63}, {"time": 2306, "pitch": 60, "duration": 6, "velocity": 61}, {"time": 2312, "pitch": 38, "duration": 15, "velocity": 79}, {"time": 2318, "pitch": 45, "duration": 10, "velocity": 62}, {"time": 2321, "pitch": 50, "duration": 8, "velocity": 58}, {"time": 2330, "pitch": 55, "duration": 6, "velocity": 58}, {"time": 2336, "pitch": 43, "duration": 24, "velocity": 61}, {"time": 2342, "pitch": 50, "duration": 23, "velocity": 60}, {"time": 2348, "pitch": 58, "duration": 13, "velocity": 64}, {"time": 2354, "pitch": 55, "duration": 10, "velocity": 82}, {"time": 2360, "pitch": 48, "duration": 20, "velocity": 79}, {"time": 2360, "pitch": 62, "duration": 7, "velocity": 79}, {"time": 2366, "pitch": 55, "duration": 16, "velocity": 79}, {"time": 2372, "pitch": 60, "duration": 6, "velocity": 79}, {"time": 2378, "pitch": 63, "duration": 21, "velocity": 87}, {"time": 2384, "pitch": 46, "duration": 17, "velocity": 82}, {"time": 2390, "pitch": 53, "duration": 9, "velocity": 61}, {"time": 2396, "pitch": 67, "duration": 8, "velocity": 67}, {"time": 2402, "pitch": 63, "duration": 4, "velocity": 59}, {"time": 2408, "pitch": 45, "duration": 43, "velocity": 87}, {"time": 2414, "pitch": 51, "duration": 37, "velocity": 64}, {"time": 2420, "pitch": 55, "duration": 15, "velocity": 63}, {"time": 2426, "pitch": 62, "duration": 18, "velocity": 85}, {"time": 2444, "pitch": 55, "duration": 10, "velocity": 74}, {"time": 2450, "pitch": 62, "duration": 5, "velocity": 81}, {"time": 2456, "pitch": 50, "duration": 8, "velocity": 97}, {"time": 2456, "pitch": 62, "duration": 7, "velocity": 97}, {"time": 2456, "pitch": 66, "duration": 7, "velocity": 97}, {"time": 2468, "pitch": 48, "duration": 7, "velocity": 97}, {"time": 2468, "pitch": 60, "duration": 6, "velocity": 97}, {"time": 2468, "pitch": 63, "duration": 6, "velocity": 97}, {"time": 2480, "pitch": 63, "duration": 36, "velocity": 81}, {"time": 2480, "pitch": 66, "duration": 36, "velocity": 74}, {"time": 2480, "pitch": 47, "duration": 32, "velocity": 97}, {"time": 2576, "pitch": 60, "duration": 37, "velocity": 92}, {"time": 2576, "pitch": 83, "duration": 6, "velocity": 92}, {"time": 2582, "pitch": 64, "duration": 31, "velocity": 92}, {"time": 2582, "pitch": 81, "duration": 2, "velocity": 92}, {"time": 2585, "pitch": 83, "duration": 2, "velocity": 92}, {"time": 2588, "pitch": 67, "duration": 24, "velocity": 92}, {"time": 2588, "pitch": 78, "duration": 4, "velocity": 92}, {"time": 2594, "pitch": 76, "duration": 3, "velocity": 91}, {"time": 2597, "pitch": 78, "duration": 2, "velocity": 91}, {"time": 2600, "pitch": 71, "duration": 17, "velocity": 91}, {"time": 2624, "pitch": 62, "duration": 38, "velocity": 90}, {"time": 2624, "pitch": 83, "duration": 3, "velocity": 90}, {"time": 2630, "pitch": 66, "duration": 29, "velocity": 90}, {"time": 2630, "pitch": 81, "duration": 2, "velocity": 90}, {"time": 2633, "pitch": 83, "duration": 2, "velocity": 90}, {"time": 2636, "pitch": 78, "duration": 4, "velocity": 90}, {"time": 2642, "pitch": 76, "duration": 3, "velocity": 90}, {"time": 2645, "pitch": 78, "duration": 3, "velocity": 90}, {"time": 2648, "pitch": 71, "duration": 13, "velocity": 90}, {"time": 2672, "pitch": 59, "duration": 14, "velocity": 90}, {"time": 2672, "pitch": 78, "duration": 5, "velocity": 90}, {"time": 2678, "pitch": 76, "duration": 2, "velocity": 90}, {"time": 2679, "pitch": 62, "duration": 6, "velocity": 90}, {"time": 2681, "pitch": 78, "duration": 2, "velocity": 90}, {"time": 2684, "pitch": 66, "duration": 13, "velocity": 90}, {"time": 2684, "pitch": 74, "duration": 7, "velocity": 90}, {"time": 2690, "pitch": 69, "duration": 3, "velocity": 90}, {"time": 2693, "pitch": 71, "duration": 2, "velocity": 90}, {"time": 2696, "pitch": 66, "duration": 1, "velocity": 90}, {"time": 2720, "pitch": 52, "duration": 24, "velocity": 89}, {"time": 2720, "pitch": 81, "duration": 5, "velocity": 89}, {"time": 2726, "pitch": 59, "duration": 16, "velocity": 89}, {"time": 2726, "pitch": 76, "duration": 2, "velocity": 89}, {"time": 2729, "pitch": 78, "duration": 3, "velocity": 89}, {"time": 2732, "pitch": 64, "duration": 12, "velocity": 89}, {"time": 2732, "pitch": 74, "duration": 10, "velocity": 89}, {"time": 2738, "pitch": 69, "duration": 4, "velocity": 89}, {"time": 2741, "pitch": 71, "duration": 2, "velocity": 89}, {"time": 2744, "pitch": 50, "duration": 18, "velocity": 89}, {"time": 2744, "pitch": 67, "duration": 15, "velocity": 89}, {"time": 2750, "pitch": 57, "duration": 12, "velocity": 89}, {"time": 2756, "pitch": 62, "duration": 8, "velocity": 89}, {"time": 2768, "pitch": 45, "duration": 38, "velocity": 89}, {"time": 2768, "pitch": 79, "duration": 6, "velocity": 89}, {"time": 2771, "pitch": 71, "duration": 4, "velocity": 89}, {"time": 2774, "pitch": 52, "duration": 31, "velocity": 89}, {"time": 2774, "pitch": 76, "duration": 4, "velocity": 89}, {"time": 2777, "pitch": 78, "duration": 3, "velocity": 89}, {"time": 2780, "pitch": 57, "duration": 25, "velocity": 89}, {"time": 2780, "pitch": 79, "duration": 6, "velocity": 89}, {"time": 2783, "pitch": 71, "duration": 5, "velocity": 89}, {"time": 2786, "pitch": 59, "duration": 6, "velocity": 89}, {"time": 2786, "pitch": 76, "duration": 5, "velocity": 89}, {"time": 2789, "pitch": 78, "duration": 5, "velocity": 89}, {"time": 2792, "pitch": 60, "duration": 15, "velocity": 89}, {"time": 2792, "pitch": 79, "duration": 5, "velocity": 89}, {"time": 2795, "pitch": 71, "duration": 5, "velocity": 89}, {"time": 2798, "pitch": 76, "duration": 5, "velocity": 89}, {"time": 2801, "pitch": 78, "duration": 5, "velocity": 89}, {"time": 2804, "pitch": 79, "duration": 4, "velocity": 89}, {"time": 2816, "pitch": 50, "duration": 37, "velocity": 89}, {"time": 2816, "pitch": 81, "duration": 4, "velocity": 89}, {"time": 2819, "pitch": 74, "duration": 4, "velocity": 89}, {"time": 2822, "pitch": 57, "duration": 32, "velocity": 89}, {"time": 2822, "pitch": 76, "duration": 4, "velocity": 89}, {"time": 2825, "pitch": 78, "duration": 3, "velocity": 89}, {"time": 2828, "pitch": 62, "duration": 22, "velocity": 89}, {"time": 2828, "pitch": 81, "duration": 3, "velocity": 89}, {"time": 2831, "pitch": 74, "duration": 4, "velocity": 89}, {"time": 2834, "pitch": 66, "duration": 19, "velocity": 89}, {"time": 2834, "pitch": 76, "duration": 4, "velocity": 89}, {"time": 2837, "pitch": 78, "duration": 2, "velocity": 89}, {"time": 2840, "pitch": 81, "duration": 6, "velocity": 90}, {"time": 2843, "pitch": 74, "duration": 3, "velocity": 90}, {"time": 2846, "pitch": 54, "duration": 8, "velocity": 90}, {"time": 2846, "pitch": 76, "duration": 5, "velocity": 90}, {"time": 2849, "pitch": 78, "duration": 3, "velocity": 90}, {"time": 2852, "pitch": 69, "duration": 11, "velocity": 90}, {"time": 2852, "pitch": 81, "duration": 7, "velocity": 90}, {"time": 2864, "pitch": 43, "duration": 41, "velocity": 90}, {"time": 2867, "pitch": 74, "duration": 4, "velocity": 90}, {"time": 2870, "pitch": 50, "duration": 36, "velocity": 90}, {"time": 2870, "pitch": 76, "duration": 4, "velocity": 90}, {"time": 2873, "pitch": 78, "duration": 3, "velocity": 90}, {"time": 2876, "pitch": 55, "duration": 12, "velocity": 55}, {"time": 2876, "pitch": 83, "duration": 5, "velocity": 63}, {"time": 2879, "pitch": 74, "duration": 4, "velocity": 52}, {"time": 2882, "pitch": 59, "duration": 20, "velocity": 68}, {"time": 2882, "pitch": 76, "duration": 4, "velocity": 61}, {"time": 2885, "pitch": 78, "duration": 3, "velocity": 65}, {"time": 2888, "pitch": 83, "duration": 5, "velocity": 63}, {"time": 2891, "pitch": 74, "duration": 4, "velocity": 58}, {"time": 2894, "pitch": 55, "duration": 8, "velocity": 56}, {"time": 2894, "pitch": 76, "duration": 4, "velocity": 58}, {"time": 2897, "pitch": 78, "duration": 3, "velocity": 60}, {"time": 2900, "pitch": 62, "duration": 7, "velocity": 77}, {"time": 2900, "pitch": 83, "duration": 4, "velocity": 71}, {"time": 2903, "pitch": 74, "duration": 4, "velocity": 58}, {"time": 2906, "pitch": 59, "duration": 13, "velocity": 60}, {"time": 2906, "pitch": 76, "duration": 4, "velocity": 59}, {"time": 2909, "pitch": 78, "duration": 4, "velocity": 63}, {"time": 2912, "pitch": 47, "duration": 22, "velocity": 48}, {"time": 2912, "pitch": 51, "duration": 16, "velocity": 71}, {"time": 2912, "pitch": 54, "duration": 18, "velocity": 72}, {"time": 2912, "pitch": 59, "duration": 7, "velocity": 62}, {"time": 2912, "pitch": 63, "duration": 10, "velocity": 74}, {"time": 2912, "pitch": 66, "duration": 11, "velocity": 71}, {"time": 2912, "pitch": 83, "duration": 3, "velocity": 70}, {"time": 2915, "pitch": 71, "duration": 4, "velocity": 76}, {"time": 2918, "pitch": 76, "duration": 4, "velocity": 64}, {"time": 2921, "pitch": 78, "duration": 3, "velocity": 72}, {"time": 2924, "pitch": 63, "duration": 10, "velocity": 69}, {"time": 2924, "pitch": 66, "duration": 11, "velocity": 76}, {"time": 2924, "pitch": 83, "duration": 6, "velocity": 75}, {"time": 2927, "pitch": 71, "duration": 3, "velocity": 90}, {"time": 2930, "pitch": 76, "duration": 3, "velocity": 72}, {"time": 2933, "pitch": 78, "duration": 2, "velocity": 73}, {"time": 2936, "pitch": 47, "duration": 23, "velocity": 59}, {"time": 2936, "pitch": 54, "duration": 21, "velocity": 11}, {"time": 2936, "pitch": 59, "duration": 21, "velocity": 64}, {"time": 2936, "pitch": 63, "duration": 11, "velocity": 67}, {"time": 2936, "pitch": 66, "duration": 11, "velocity": 73}, {"time": 2936, "pitch": 83, "duration": 6, "velocity": 63}, {"time": 2939, "pitch": 51, "duration": 18, "velocity": 10}, {"time": 2939, "pitch": 71, "duration": 4, "velocity": 98}, {"time": 2942, "pitch": 76, "duration": 3, "velocity": 69}, {"time": 2945, "pitch": 78, "duration": 2, "velocity": 79}, {"time": 2948, "pitch": 63, "duration": 11, "velocity": 77}, {"time": 2948, "pitch": 66, "duration": 11, "velocity": 86}, {"time": 2948, "pitch": 83, "duration": 6, "velocity": 75}, {"time": 2951, "pitch": 71, "duration": 4, "velocity": 93}, {"time": 2954, "pitch": 76, "duration": 3, "velocity": 74}, {"time": 2957, "pitch": 78, "duration": 2, "velocity": 79}, {"time": 2960, "pitch": 48, "duration": 41, "velocity": 85}, {"time": 2960, "pitch": 83, "duration": 6, "velocity": 100}, {"time": 2966, "pitch": 55, "duration": 12, "velocity": 56}, {"time": 2966, "pitch": 81, "duration": 2, "velocity": 66}, {"time": 2969, "pitch": 83, "duration": 2, "velocity": 70}, {"time": 2972, "pitch": 60, "duration": 5, "velocity": 53}, {"time": 2972, "pitch": 78, "duration": 4, "velocity": 74}, {"time": 2978, "pitch": 52, "duration": 15, "velocity": 60}, {"time": 2978, "pitch": 76, "duration": 3, "velocity": 64}, {"time": 2981, "pitch": 78, "duration": 2, "velocity": 64}, {"time": 2984, "pitch": 55, "duration": 20, "velocity": 60}, {"time": 2984, "pitch": 71, "duration": 17, "velocity": 88}, {"time": 2990, "pitch": 60, "duration": 8, "velocity": 51}, {"time": 2996, "pitch": 52, "duration": 7, "velocity": 65}, {"time": 3008, "pitch": 50, "duration": 45, "velocity": 83}, {"time": 3008, "pitch": 83, "duration": 3, "velocity": 98}, {"time": 3014, "pitch": 81, "duration": 2, "velocity": 70}, {"time": 3017, "pitch": 83, "duration": 2, "velocity": 85}, {"time": 3020, "pitch": 54, "duration": 32, "velocity": 62}, {"time": 3020, "pitch": 76, "duration": 4, "velocity": 72}, {"time": 3026, "pitch": 57, "duration": 27, "velocity": 68}, {"time": 3026, "pitch": 78, "duration": 3, "velocity": 85}, {"time": 3029, "pitch": 76, "duration": 3, "velocity": 62}, {"time": 3032, "pitch": 62, "duration": 20, "velocity": 67}, {"time": 3032, "pitch": 71, "duration": 13, "velocity": 89}, {"time": 3056, "pitch": 47, "duration": 33, "velocity": 53}, {"time": 3056, "pitch": 59, "duration": 9, "velocity": 71}, {"time": 3056, "pitch": 66, "duration": 8, "velocity": 60}, {"time": 3056, "pitch": 78, "duration": 5, "velocity": 95}, {"time": 3062, "pitch": 50, "duration": 26, "velocity": 62}, {"time": 3062, "pitch": 76, "duration": 2, "velocity": 65}, {"time": 3065, "pitch": 78, "duration": 2, "velocity": 90}, {"time": 3068, "pitch": 59, "duration": 8, "velocity": 83}, {"time": 3068, "pitch": 66, "duration": 8, "velocity": 66}, {"time": 3068, "pitch": 74, "duration": 7, "velocity": 79}, {"time": 3074, "pitch": 54, "duration": 14, "velocity": 60}, {"time": 3074, "pitch": 69, "duration": 3, "velocity": 74}, {"time": 3077, "pitch": 71, "duration": 2, "velocity": 70}, {"time": 3080, "pitch": 59, "duration": 8, "velocity": 81}, {"time": 3080, "pitch": 66, "duration": 7, "velocity": 69}, {"time": 3104, "pitch": 40, "duration": 17, "velocity": 71}, {"time": 3104, "pitch": 55, "duration": 16, "velocity": 64}, {"time": 3104, "pitch": 59, "duration": 16, "velocity": 90}, {"time": 3104, "pitch": 81, "duration": 5, "velocity": 90}, {"time": 3110, "pitch": 47, "duration": 11, "velocity": 14}, {"time": 3110, "pitch": 76, "duration": 3, "velocity": 67}, {"time": 3113, "pitch": 78, "duration": 3, "velocity": 74}, {"time": 3116, "pitch": 52, "duration": 6, "velocity": 63}, {"time": 3116, "pitch": 74, "duration": 6, "velocity": 95}, {"time": 3122, "pitch": 55, "duration": 8, "velocity": 63}, {"time": 3122, "pitch": 69, "duration": 4, "velocity": 72}, {"time": 3125, "pitch": 71, "duration": 3, "velocity": 74}, {"time": 3128, "pitch": 38, "duration": 20, "velocity": 77}, {"time": 3128, "pitch": 67, "duration": 13, "velocity": 65}, {"time": 3134, "pitch": 45, "duration": 15, "velocity": 60}, {"time": 3140, "pitch": 54, "duration": 13, "velocity": 60}, {"time": 3146, "pitch": 50, "duration": 3, "velocity": 56}, {"time": 3152, "pitch": 45, "duration": 47, "velocity": 65}, {"time": 3152, "pitch": 48, "duration": 47, "velocity": 77}, {"time": 3152, "pitch": 60, "duration": 8, "velocity": 67}, {"time": 3152, "pitch": 64, "duration": 8, "velocity": 60}, {"time": 3152, "pitch": 67, "duration": 8, "velocity": 76}, {"time": 3158, "pitch": 52, "duration": 41, "velocity": 60}, {"time": 3164, "pitch": 60, "duration": 10, "velocity": 67}, {"time": 3164, "pitch": 64, "duration": 11, "velocity": 65}, {"time": 3164, "pitch": 67, "duration": 9, "velocity": 67}, {"time": 3176, "pitch": 60, "duration": 11, "velocity": 65}, {"time": 3176, "pitch": 64, "duration": 11, "velocity": 69}, {"time": 3176, "pitch": 67, "duration": 11, "velocity": 74}, {"time": 3188, "pitch": 60, "duration": 10, "velocity": 76}, {"time": 3188, "pitch": 64, "duration": 10, "velocity": 87}, {"time": 3188, "pitch": 67, "duration": 10, "velocity": 79}, {"time": 3200, "pitch": 47, "duration": 45, "velocity": 79}, {"time": 3200, "pitch": 59, "duration": 6, "velocity": 79}, {"time": 3200, "pitch": 63, "duration": 8, "velocity": 79}, {"time": 3200, "pitch": 64, "duration": 9, "velocity": 79}, {"time": 3200, "pitch": 66, "duration": 9, "velocity": 79}, {"time": 3203, "pitch": 54, "duration": 41, "velocity": 79}, {"time": 3206, "pitch": 59, "duration": 6, "velocity": 79}, {"time": 3206, "pitch": 76, "duration": 5, "velocity": 79}, {"time": 3212, "pitch": 63, "duration": 8, "velocity": 79}, {"time": 3212, "pitch": 64, "duration": 9, "velocity": 79}, {"time": 3212, "pitch": 66, "duration": 8, "velocity": 79}, {"time": 3212, "pitch": 79, "duration": 6, "velocity": 79}, {"time": 3218, "pitch": 59, "duration": 9, "velocity": 82}, {"time": 3218, "pitch": 76, "duration": 4, "velocity": 82}, {"time": 3224, "pitch": 63, "duration": 8, "velocity": 82}, {"time": 3224, "pitch": 64, "duration": 8, "velocity": 82}, {"time": 3224, "pitch": 78, "duration": 15, "velocity": 82}, {"time": 3230, "pitch": 59, "duration": 13, "velocity": 82}, {"time": 3236, "pitch": 63, "duration": 8, "velocity": 80}, {"time": 3248, "pitch": 48, "duration": 42, "velocity": 79}, {"time": 3248, "pitch": 60, "duration": 10, "velocity": 79}, {"time": 3248, "pitch": 64, "duration": 10, "velocity": 79}, {"time": 3248, "pitch": 67, "duration": 10, "velocity": 79}, {"time": 3248, "pitch": 71, "duration": 5, "velocity": 79}, {"time": 3254, "pitch": 76, "duration": 3, "velocity": 79}, {"time": 3260, "pitch": 60, "duration": 10, "velocity": 87}, {"time": 3260, "pitch": 64, "duration": 10, "velocity": 87}, {"time": 3260, "pitch": 67, "duration": 10, "velocity": 87}, {"time": 3260, "pitch": 76, "duration": 6, "velocity": 87}, {"time": 3266, "pitch": 71, "duration": 4, "velocity": 90}, {"time": 3272, "pitch": 60, "duration": 10, "velocity": 90}, {"time": 3272, "pitch": 64, "duration": 10, "velocity": 90}, {"time": 3272, "pitch": 67, "duration": 10, "velocity": 90}, {"time": 3272, "pitch": 76, "duration": 21, "velocity": 90}, {"time": 3284, "pitch": 60, "duration": 7, "velocity": 90}, {"time": 3284, "pitch": 64, "duration": 7, "velocity": 90}, {"time": 3284, "pitch": 67, "duration": 6, "velocity": 90}, {"time": 3296, "pitch": 48, "duration": 41, "velocity": 90}, {"time": 3296, "pitch": 60, "duration": 11, "velocity": 90}, {"time": 3296, "pitch": 64, "duration": 11, "velocity": 90}, {"time": 3296, "pitch": 67, "duration": 10, "velocity": 90}, {"time": 3296, "pitch": 71, "duration": 6, "velocity": 90}, {"time": 3302, "pitch": 76, "duration": 4, "velocity": 88}, {"time": 3308, "pitch": 60, "duration": 10, "velocity": 86}, {"time": 3308, "pitch": 64, "duration": 10, "velocity": 86}, {"time": 3308, "pitch": 67, "duration": 10, "velocity": 86}, {"time": 3308, "pitch": 76, "duration": 5, "velocity": 86}, {"time": 3314, "pitch": 71, "duration": 3, "velocity": 78}, {"time": 3320, "pitch": 60, "duration": 10, "velocity": 75}, {"time": 3320, "pitch": 64, "duration": 10, "velocity": 75}, {"time": 3320, "pitch": 67, "duration": 10, "velocity": 75}, {"time": 3320, "pitch": 76, "duration": 21, "velocity": 75}, {"time": 3332, "pitch": 60, "duration": 6, "velocity": 78}, {"time": 3332, "pitch": 64, "duration": 6, "velocity": 78}, {"time": 3332, "pitch": 67, "duration": 6, "velocity": 78}, {"time": 3344, "pitch": 47, "duration": 33, "velocity": 81}, {"time": 3344, "pitch": 59, "duration": 10, "velocity": 81}, {"time": 3344, "pitch": 62, "duration": 10, "velocity": 81}, {"time": 3344, "pitch": 66, "duration": 8, "velocity": 81}, {"time": 3344, "pitch": 71, "duration": 6, "velocity": 81}, {"time": 3350, "pitch": 76, "duration": 4, "velocity": 84}, {"time": 3356, "pitch": 59, "duration": 10, "velocity": 84}, {"time": 3356, "pitch": 62, "duration": 10, "velocity": 84}, {"time": 3356, "pitch": 66, "duration": 10, "velocity": 84}, {"time": 3356, "pitch": 76, "duration": 5, "velocity": 84}, {"time": 3362, "pitch": 71, "duration": 4, "velocity": 87}, {"time": 3368, "pitch": 59, "duration": 9, "velocity": 89}, {"time": 3368, "pitch": 62, "duration": 9, "velocity": 89}, {"time": 3368, "pitch": 66, "duration": 9, "velocity": 89}, {"time": 3368, "pitch": 76, "duration": 20, "velocity": 89}, {"time": 3380, "pitch": 59, "duration": 12, "velocity": 90}, {"time": 3380, "pitch": 62, "duration": 11, "velocity": 90}, {"time": 3380, "pitch": 66, "duration": 10, "velocity": 90}, {"time": 3392, "pitch": 47, "duration": 49, "velocity": 90}, {"time": 3392, "pitch": 59, "duration": 9, "velocity": 90}, {"time": 3392, "pitch": 62, "duration": 9, "velocity": 90}, {"time": 3392, "pitch": 66, "duration": 10, "velocity": 90}, {"time": 3392, "pitch": 71, "duration": 5, "velocity": 90}, {"time": 3398, "pitch": 76, "duration": 2, "velocity": 79}, {"time": 3404, "pitch": 59, "duration": 10, "velocity": 79}, {"time": 3404, "pitch": 62, "duration": 10, "velocity": 79}, {"time": 3404, "pitch": 66, "duration": 10, "velocity": 79}, {"time": 3404, "pitch": 76, "duration": 6, "velocity": 79}, {"time": 3410, "pitch": 71, "duration": 4, "velocity": 79}, {"time": 3416, "pitch": 59, "duration": 10, "velocity": 79}, {"time": 3416, "pitch": 62, "duration": 10, "velocity": 79}, {"time": 3416, "pitch": 66, "duration": 10, "velocity": 79}, {"time": 3416, "pitch": 76, "duration": 8, "velocity": 79}, {"time": 3428, "pitch": 59, "duration": 12, "velocity": 100}, {"time": 3428, "pitch": 62, "duration": 11, "velocity": 100}, {"time": 3428, "pitch": 66, "duration": 11, "velocity": 100}, {"time": 3428, "pitch": 71, "duration": 3, "velocity": 100}, {"time": 3434, "pitch": 76, "duration": 4, "velocity": 100}, {"time": 3440, "pitch": 45, "duration": 46, "velocity": 82}, {"time": 3440, "pitch": 57, "duration": 8, "velocity": 82}, {"time": 3440, "pitch": 60, "duration": 8, "velocity": 82}, {"time": 3440, "pitch": 64, "duration": 9, "velocity": 82}, {"time": 3440, "pitch": 71, "duration": 3, "velocity": 82}, {"time": 3446, "pitch": 76, "duration": 2, "velocity": 83}, {"time": 3452, "pitch": 57, "duration": 9, "velocity": 78}, {"time": 3452, "pitch": 60, "duration": 9, "velocity": 78}, {"time": 3452, "pitch": 64, "duration": 9, "velocity": 78}, {"time": 3452, "pitch": 76, "duration": 5, "velocity": 78}, {"time": 3458, "pitch": 71, "duration": 3, "velocity": 78}, {"time": 3464, "pitch": 57, "duration": 9, "velocity": 83}, {"time": 3464, "pitch": 60, "duration": 9, "velocity": 83}, {"time": 3464, "pitch": 64, "duration": 10, "velocity": 83}, {"time": 3464, "pitch": 76, "duration": 9, "velocity": 83}, {"time": 3476, "pitch": 57, "duration": 10, "velocity": 84}, {"time": 3476, "pitch": 60, "duration": 10, "velocity": 84}, {"time": 3476, "pitch": 64, "duration": 10, "velocity": 84}, {"time": 3476, "pitch": 71, "duration": 5, "velocity": 84}, {"time": 3482, "pitch": 76, "duration": 6, "velocity": 84}, {"time": 3488, "pitch": 45, "duration": 46, "velocity": 84}, {"time": 3488, "pitch": 57, "duration": 10, "velocity": 84}, {"time": 3488, "pitch": 60, "duration": 10, "velocity": 84}, {"time": 3488, "pitch": 64, "duration": 10, "velocity": 84}, {"time": 3488, "pitch": 71, "duration": 2, "velocity": 84}, {"time": 3494, "pitch": 76, "duration": 2, "velocity": 84}, {"time": 3500, "pitch": 57, "duration": 9, "velocity": 84}, {"time": 3500, "pitch": 60, "duration": 9, "velocity": 84}, {"time": 3500, "pitch": 64, "duration": 9, "velocity": 84}, {"time": 3500, "pitch": 76, "duration": 5, "velocity": 84}, {"time": 3506, "pitch": 71, "duration": 3, "velocity": 84}, {"time": 3512, "pitch": 57, "duration": 9, "velocity": 85}, {"time": 3512, "pitch": 60, "duration": 9, "velocity": 85}, {"time": 3512, "pitch": 64, "duration": 10, "velocity": 85}, {"time": 3512, "pitch": 76, "duration": 13, "velocity": 85}, {"time": 3524, "pitch": 57, "duration": 10, "velocity": 91}, {"time": 3524, "pitch": 60, "duration": 10, "velocity": 91}, {"time": 3524, "pitch": 64, "duration": 10, "velocity": 91}, {"time": 3536, "pitch": 47, "duration": 3, "velocity": 96}, {"time": 3536, "pitch": 59, "duration": 3, "velocity": 96}, {"time": 3536, "pitch": 64, "duration": 2, "velocity": 96}, {"time": 3536, "pitch": 66, "duration": 2, "velocity": 96}, {"time": 3536, "pitch": 71, "duration": 2, "velocity": 96}, {"time": 3542, "pitch": 47, "duration": 5, "velocity": 98}, {"time": 3542, "pitch": 59, "duration": 2, "velocity": 98}, {"time": 3542, "pitch": 64, "duration": 4, "velocity": 98}, {"time": 3542, "pitch": 66, "duration": 2, "velocity": 98}, {"time": 3542, "pitch": 71, "duration": 5, "velocity": 98}, {"time": 3584, "pitch": 60, "duration": 37, "velocity": 79}, {"time": 3584, "pitch": 83, "duration": 6, "velocity": 79}, {"time": 3590, "pitch": 64, "duration": 31, "velocity": 77}, {"time": 3590, "pitch": 81, "duration": 2, "velocity": 77}, {"time": 3593, "pitch": 83, "duration": 2, "velocity": 76}, {"time": 3596, "pitch": 67, "duration": 24, "velocity": 76}, {"time": 3596, "pitch": 78, "duration": 4, "velocity": 76}, {"time": 3602, "pitch": 76, "duration": 3, "velocity": 76}, {"time": 3605, "pitch": 78, "duration": 2, "velocity": 76}, {"time": 3608, "pitch": 71, "duration": 17, "velocity": 76}, {"time": 3632, "pitch": 62, "duration": 38, "velocity": 80}, {"time": 3632, "pitch": 83, "duration": 3, "velocity": 80}, {"time": 3638, "pitch": 66, "duration": 29, "velocity": 82}, {"time": 3638, "pitch": 81, "duration": 2, "velocity": 82}, {"time": 3641, "pitch": 83, "duration": 2, "velocity": 81}, {"time": 3644, "pitch": 78, "duration": 4, "velocity": 79}, {"time": 3650, "pitch": 76, "duration": 3, "velocity": 79}, {"time": 3653, "pitch": 78, "duration": 3, "velocity": 79}, {"time": 3656, "pitch": 71, "duration": 13, "velocity": 79}, {"time": 3680, "pitch": 59, "duration": 14, "velocity": 80}, {"time": 3680, "pitch": 78, "duration": 5, "velocity": 80}, {"time": 3686, "pitch": 76, "duration": 2, "velocity": 79}, {"time": 3687, "pitch": 62, "duration": 6, "velocity": 79}, {"time": 3689, "pitch": 78, "duration": 2, "velocity": 79}, {"time": 3692, "pitch": 66, "duration": 13, "velocity": 79}, {"time": 3692, "pitch": 74, "duration": 7, "velocity": 79}, {"time": 3698, "pitch": 69, "duration": 3, "velocity": 82}, {"time": 3701, "pitch": 71, "duration": 2, "velocity": 84}, {"time": 3704, "pitch": 66, "duration": 1, "velocity": 87}, {"time": 3728, "pitch": 52, "duration": 24, "velocity": 68}, {"time": 3728, "pitch": 81, "duration": 5, "velocity": 68}, {"time": 3734, "pitch": 59, "duration": 16, "velocity": 64}, {"time": 3734, "pitch": 76, "duration": 2, "velocity": 64}, {"time": 3737, "pitch": 78, "duration": 3, "velocity": 64}, {"time": 3740, "pitch": 64, "duration": 12, "velocity": 63}, {"time": 3740, "pitch": 74, "duration": 10, "velocity": 63}, {"time": 3746, "pitch": 69, "duration": 4, "velocity": 63}, {"time": 3749, "pitch": 71, "duration": 2, "velocity": 64}, {"time": 3752, "pitch": 50, "duration": 18, "velocity": 67}, {"time": 3752, "pitch": 67, "duration": 15, "velocity": 67}, {"time": 3758, "pitch": 57, "duration": 12, "velocity": 72}, {"time": 3764, "pitch": 62, "duration": 8, "velocity": 75}, {"time": 3776, "pitch": 45, "duration": 38, "velocity": 80}, {"time": 3776, "pitch": 79, "duration": 6, "velocity": 80}, {"time": 3779, "pitch": 71, "duration": 4, "velocity": 82}, {"time": 3782, "pitch": 52, "duration": 31, "velocity": 70}, {"time": 3782, "pitch": 76, "duration": 4, "velocity": 70}, {"time": 3785, "pitch": 78, "duration": 3, "velocity": 79}, {"time": 3788, "pitch": 57, "duration": 25, "velocity": 80}, {"time": 3788, "pitch": 79, "duration": 6, "velocity": 80}, {"time": 3791, "pitch": 71, "duration": 5, "velocity": 80}, {"time": 3794, "pitch": 59, "duration": 6, "velocity": 80}, {"time": 3794, "pitch": 76, "duration": 5, "velocity": 80}, {"time": 3797, "pitch": 78, "duration": 5, "velocity": 80}, {"time": 3800, "pitch": 60, "duration": 15, "velocity": 80}, {"time": 3800, "pitch": 79, "duration": 5, "velocity": 80}, {"time": 3803, "pitch": 71, "duration": 5, "velocity": 79}, {"time": 3806, "pitch": 76, "duration": 5, "velocity": 77}, {"time": 3809, "pitch": 78, "duration": 5, "velocity": 77}, {"time": 3812, "pitch": 79, "duration": 4, "velocity": 77}, {"time": 3824, "pitch": 50, "duration": 37, "velocity": 76}, {"time": 3824, "pitch": 81, "duration": 4, "velocity": 76}, {"time": 3827, "pitch": 74, "duration": 4, "velocity": 76}, {"time": 3830, "pitch": 57, "duration": 32, "velocity": 77}, {"time": 3830, "pitch": 76, "duration": 4, "velocity": 77}, {"time": 3833, "pitch": 78, "duration": 3, "velocity": 78}, {"time": 3836, "pitch": 62, "duration": 22, "velocity": 78}, {"time": 3836, "pitch": 81, "duration": 3, "velocity": 78}, {"time": 3839, "pitch": 74, "duration": 4, "velocity": 79}, {"time": 3842, "pitch": 66, "duration": 19, "velocity": 79}, {"time": 3842, "pitch": 76, "duration": 4, "velocity": 79}, {"time": 3845, "pitch": 78, "duration": 2, "velocity": 80}, {"time": 3848, "pitch": 81, "duration": 6, "velocity": 80}, {"time": 3851, "pitch": 74, "duration": 3, "velocity": 81}, {"time": 3854, "pitch": 54, "duration": 8, "velocity": 81}, {"time": 3854, "pitch": 76, "duration": 5, "velocity": 81}, {"time": 3857, "pitch": 78, "duration": 3, "velocity": 66}, {"time": 3860, "pitch": 69, "duration": 11, "velocity": 66}, {"time": 3860, "pitch": 81, "duration": 7, "velocity": 66}, {"time": 3872, "pitch": 48, "duration": 64, "velocity": 66}, {"time": 3872, "pitch": 60, "duration": 10, "velocity": 66}, {"time": 3872, "pitch": 64, "duration": 11, "velocity": 66}, {"time": 3872, "pitch": 67, "duration": 10, "velocity": 66}, {"time": 3872, "pitch": 71, "duration": 7, "velocity": 66}, {"time": 3878, "pitch": 76, "duration": 5, "velocity": 67}, {"time": 3884, "pitch": 60, "duration": 11, "velocity": 67}, {"time": 3884, "pitch": 64, "duration": 12, "velocity": 67}, {"time": 3884, "pitch": 67, "duration": 11, "velocity": 67}, {"time": 3884, "pitch": 83, "duration": 6, "velocity": 67}, {"time": 3890, "pitch": 71, "duration": 7, "velocity": 67}, {"time": 3896, "pitch": 60, "duration": 10, "velocity": 67}, {"time": 3896, "pitch": 64, "duration": 10, "velocity": 67}, {"time": 3896, "pitch": 67, "duration": 10, "velocity": 67}, {"time": 3896, "pitch": 76, "duration": 6, "velocity": 67}, {"time": 3902, "pitch": 83, "duration": 6, "velocity": 69}, {"time": 3908, "pitch": 60, "duration": 10, "velocity": 71}, {"time": 3908, "pitch": 64, "duration": 10, "velocity": 71}, {"time": 3908, "pitch": 67, "duration": 10, "velocity": 71}, {"time": 3908, "pitch": 71, "duration": 6, "velocity": 71}, {"time": 3914, "pitch": 76, "duration": 6, "velocity": 71}, {"time": 3920, "pitch": 60, "duration": 10, "velocity": 69}, {"time": 3920, "pitch": 64, "duration": 10, "velocity": 69}, {"time": 3920, "pitch": 67, "duration": 10, "velocity": 69}, {"time": 3920, "pitch": 71, "duration": 7, "velocity": 69}, {"time": 3926, "pitch": 76, "duration": 6, "velocity": 67}, {"time": 3932, "pitch": 60, "duration": 9, "velocity": 67}, {"time": 3932, "pitch": 64, "duration": 10, "velocity": 67}, {"time": 3932, "pitch": 67, "duration": 9, "velocity": 67}, {"time": 3932, "pitch": 83, "duration": 7, "velocity": 67}, {"time": 3938, "pitch": 71, "duration": 7, "velocity": 68}, {"time": 3944, "pitch": 50, "duration": 18, "velocity": 68}, {"time": 3944, "pitch": 62, "duration": 16, "velocity": 68}, {"time": 3944, "pitch": 66, "duration": 17, "velocity": 68}, {"time": 3944, "pitch": 69, "duration": 16, "velocity": 68}, {"time": 3944, "pitch": 76, "duration": 6, "velocity": 68}, {"time": 3950, "pitch": 83, "duration": 6, "velocity": 68}, {"time": 3956, "pitch": 71, "duration": 6, "velocity": 67}, {"time": 3962, "pitch": 76, "duration": 6, "velocity": 62}, {"time": 3968, "pitch": 52, "duration": 40, "velocity": 72}, {"time": 3968, "pitch": 64, "duration": 11, "velocity": 79}, {"time": 3968, "pitch": 67, "duration": 11, "velocity": 81}, {"time": 3968, "pitch": 71, "duration": 8, "velocity": 75}, {"time": 3968, "pitch": 71, "duration": 8, "velocity": 100}, {"time": 3974, "pitch": 76, "duration": 6, "velocity": 61}, {"time": 3980, "pitch": 64, "duration": 12, "velocity": 68}, {"time": 3980, "pitch": 67, "duration": 12, "velocity": 79}, {"time": 3980, "pitch": 71, "duration": 12, "velocity": 66}, {"time": 3980, "pitch": 83, "duration": 7, "velocity": 87}, {"time": 3986, "pitch": 71, "duration": 6, "velocity": 77}, {"time": 3992, "pitch": 64, "duration": 11, "velocity": 74}, {"time": 3992, "pitch": 67, "duration": 10, "velocity": 71}, {"time": 3992, "pitch": 71, "duration": 2, "velocity": 72}, {"time": 3992, "pitch": 76, "duration": 6, "velocity": 65}, {"time": 3998, "pitch": 83, "duration": 6, "velocity": 86}, {"time": 4004, "pitch": 64, "duration": 7, "velocity": 68}, {"time": 4004, "pitch": 67, "duration": 6, "velocity": 74}, {"time": 4004, "pitch": 71, "duration": 5, "velocity": 64}, {"time": 4004, "pitch": 71, "duration": 5, "velocity": 100}, {"time": 4010, "pitch": 76, "duration": 6, "velocity": 64}, {"time": 4016, "pitch": 50, "duration": 42, "velocity": 79}, {"time": 4016, "pitch": 62, "duration": 10, "velocity": 79}, {"time": 4016, "pitch": 66, "duration": 11, "velocity": 79}, {"time": 4016, "pitch": 69, "duration": 11, "velocity": 79}, {"time": 4016, "pitch": 71, "duration": 10, "velocity": 79}, {"time": 4022, "pitch": 78, "duration": 6, "velocity": 78}, {"time": 4028, "pitch": 62, "duration": 10, "velocity": 78}, {"time": 4028, "pitch": 66, "duration": 10, "velocity": 78}, {"time": 4028, "pitch": 69, "duration": 10, "velocity": 78}, {"time": 4028, "pitch": 83, "duration": 7, "velocity": 78}, {"time": 4034, "pitch": 71, "duration": 9, "velocity": 80}, {"time": 4040, "pitch": 62, "duration": 9, "velocity": 83}, {"time": 4040, "pitch": 66, "duration": 10, "velocity": 83}, {"time": 4040, "pitch": 69, "duration": 9, "velocity": 83}, {"time": 4040, "pitch": 78, "duration": 6, "velocity": 83}, {"time": 4046, "pitch": 83, "duration": 6, "velocity": 83}, {"time": 4052, "pitch": 62, "duration": 5, "velocity": 83}, {"time": 4052, "pitch": 66, "duration": 6, "velocity": 83}, {"time": 4052, "pitch": 69, "duration": 5, "velocity": 83}, {"time": 4052, "pitch": 71, "duration": 7, "velocity": 83}, {"time": 4058, "pitch": 76, "duration": 6, "velocity": 85}, {"time": 4064, "pitch": 48, "duration": 48, "velocity": 85}, {"time": 4064, "pitch": 60, "duration": 10, "velocity": 85}, {"time": 4064, "pitch": 64, "duration": 10, "velocity": 85}, {"time": 4064, "pitch": 67, "duration": 10, "velocity": 85}, {"time": 4064, "pitch": 71, "duration": 7, "velocity": 85}, {"time": 4070, "pitch": 76, "duration": 6, "velocity": 85}, {"time": 4076, "pitch": 60, "duration": 11, "velocity": 85}, {"time": 4076, "pitch": 64, "duration": 11, "velocity": 85}, {"time": 4076, "pitch": 67, "duration": 11, "velocity": 85}, {"time": 4076, "pitch": 83, "duration": 7, "velocity": 85}, {"time": 4082, "pitch": 71, "duration": 8, "velocity": 80}, {"time": 4088, "pitch": 60, "duration": 10, "velocity": 75}, {"time": 4088, "pitch": 64, "duration": 11, "velocity": 75}, {"time": 4088, "pitch": 67, "duration": 10, "velocity": 75}, {"time": 4088, "pitch": 76, "duration": 6, "velocity": 75}, {"time": 4094, "pitch": 83, "duration": 7, "velocity": 73}, {"time": 4100, "pitch": 60, "duration": 6, "velocity": 73}, {"time": 4100, "pitch": 64, "duration": 6, "velocity": 73}, {"time": 4100, "pitch": 67, "duration": 6, "velocity": 73}, {"time": 4100, "pitch": 71, "duration": 7, "velocity": 73}, {"time": 4106, "pitch": 76, "duration": 6, "velocity": 73}, {"time": 4112, "pitch": 50, "duration": 41, "velocity": 79}, {"time": 4112, "pitch": 62, "duration": 10, "velocity": 79}, {"time": 4112, "pitch": 66, "duration": 10, "velocity": 79}, {"time": 4112, "pitch": 69, "duration": 10, "velocity": 79}, {"time": 4112, "pitch": 71, "duration": 8, "velocity": 79}, {"time": 4118, "pitch": 78, "duration": 6, "velocity": 82}, {"time": 4124, "pitch": 62, "duration": 10, "velocity": 82}, {"time": 4124, "pitch": 66, "duration": 10, "velocity": 82}, {"time": 4124, "pitch": 69, "duration": 10, "velocity": 82}, {"time": 4124, "pitch": 83, "duration": 7, "velocity": 82}, {"time": 4130, "pitch": 71, "duration": 8, "velocity": 80}, {"time": 4136, "pitch": 62, "duration": 9, "velocity": 74}, {"time": 4136, "pitch": 66, "duration": 9, "velocity": 74}, {"time": 4136, "pitch": 69, "duration": 10, "velocity": 74}, {"time": 4136, "pitch": 78, "duration": 6, "velocity": 74}, {"time": 4142, "pitch": 83, "duration": 5, "velocity": 73}, {"time": 4148, "pitch": 62, "duration": 4, "velocity": 71}, {"time": 4148, "pitch": 66, "duration": 5, "velocity": 75}, {"time": 4148, "pitch": 69, "duration": 4, "velocity": 79}, {"time": 4148, "pitch": 83, "duration": 6, "velocity": 63}, {"time": 4160, "pitch": 59, "duration": 6, "velocity": 75}, {"time": 4160, "pitch": 71, "duration": 5, "velocity": 79}, {"time": 4160, "pitch": 83, "duration": 5, "velocity": 81}, {"time": 4160, "pitch": 83, "duration": 5, "velocity": 104}, {"time": 4206, "pitch": 40, "duration": 31, "velocity": 38}, {"time": 4210, "pitch": 47, "duration": 27, "velocity": 74}, {"time": 4214, "pitch": 52, "duration": 23, "velocity": 62}, {"time": 4217, "pitch": 54, "duration": 4, "velocity": 59}, {"time": 4220, "pitch": 55, "duration": 7, "velocity": 71}, {"time": 4223, "pitch": 57, "duration": 7, "velocity": 58}, {"time": 4228, "pitch": 59, "duration": 7, "velocity": 79}, {"time": 4231, "pitch": 66, "duration": 5, "velocity": 59}, {"time": 4235, "pitch": 67, "duration": 7, "velocity": 73}, {"time": 4239, "pitch": 69, "duration": 9, "velocity": 58}, {"time": 4245, "pitch": 71, "duration": 7, "velocity": 66}, {"time": 4252, "pitch": 76, "duration": 8, "velocity": 63}, {"time": 4260, "pitch": 78, "duration": 11, "velocity": 74}, {"time": 4268, "pitch": 81, "duration": 10, "velocity": 59}, {"time": 4277, "pitch": 83, "duration": 9, "velocity": 58}], "annotations": [{"time": 20, "annotation": {"number": 64, "value": 86}, "group": "control_change"}, {"time": 80, "annotation": {"number": 64, "value": 87}, "group": "control_change"}, {"time": 140, "annotation": {"number": 64, "value": 88}, "group": "control_change"}, {"time": 212, "annotation": {"number": 64, "value": 89}, "group": "control_change"}, {"time": 272, "annotation": {"number": 64, "value": 90}, "group": "control_change"}, {"time": 296, "annotation": {"number": 64, "value": 88}, "group": "control_change"}, {"time": 320, "annotation": {"number": 64, "value": 84}, "group": "control_change"}, {"time": 356, "annotation": {"number": 64, "value": 83}, "group": "control_change"}, {"time": 368, "annotation": {"number": 64, "value": 81}, "group": "control_change"}, {"time": 452, "annotation": {"number": 64, "value": 80}, "group": "control_change"}, {"time": 632, "annotation": {"number": 64, "value": 81}, "group": "control_change"}, {"time": 3536, "annotation": {"number": 64, "value": 25}, "group": "control_change"}, {"time": 3548, "annotation": {"number": 64, "value": 17}, "group": "control_change"}, {"time": 3584, "annotation": {"number": 64, "value": 83}, "group": "control_change"}, {"time": 3596, "annotation": {"number": 64, "value": 79}, "group": "control_change"}, {"time": 3608, "annotation": {"number": 64, "value": 80}, "group": "control_change"}]}]}