{"metadata": {"schema_version": "0.2", "title": "None", "source_filename": "040.mid", "source_format": "midi"}, "resolution": 12, "tempos": [{"time": 0, "qpm": 65.96001503888343}], "key_signatures": [{"time": 0, "root": 0, "mode": "major"}], "time_signatures": [{"time": 0, "numerator": 4, "denominator": 4}, {"time": 0, "numerator": 1, "denominator": 4}], "tracks": [{"program": 4, "is_drum": false, "name": "MELODY", "notes": [{"time": 432, "pitch": 74, "duration": 6, "velocity": 88}, {"time": 438, "pitch": 81, "duration": 2, "velocity": 88}, {"time": 442, "pitch": 81, "duration": 1, "velocity": 88}, {"time": 444, "pitch": 81, "duration": 9, "velocity": 88}, {"time": 456, "pitch": 79, "duration": 5, "velocity": 88}, {"time": 462, "pitch": 77, "duration": 6, "velocity": 88}, {"time": 480, "pitch": 79, "duration": 10, "velocity": 88}, {"time": 492, "pitch": 72, "duration": 4, "velocity": 88}, {"time": 498, "pitch": 76, "duration": 4, "velocity": 88}, {"time": 504, "pitch": 74, "duration": 7, "velocity": 88}, {"time": 528, "pitch": 77, "duration": 6, "velocity": 88}, {"time": 538, "pitch": 77, "duration": 1, "velocity": 88}, {"time": 540, "pitch": 77, "duration": 5, "velocity": 89}, {"time": 546, "pitch": 74, "duration": 4, "velocity": 89}, {"time": 552, "pitch": 77, "duration": 6, "velocity": 90}, {"time": 558, "pitch": 74, "duration": 16, "velocity": 91}, {"time": 576, "pitch": 77, "duration": 7, "velocity": 92}, {"time": 582, "pitch": 74, "duration": 3, "velocity": 94}, {"time": 588, "pitch": 74, "duration": 6, "velocity": 94}, {"time": 594, "pitch": 84, "duration": 5, "velocity": 94}, {"time": 600, "pitch": 81, "duration": 10, "velocity": 94}, {"time": 624, "pitch": 81, "duration": 5, "velocity": 94}, {"time": 630, "pitch": 86, "duration": 4, "velocity": 94}, {"time": 636, "pitch": 86, "duration": 4, "velocity": 94}, {"time": 642, "pitch": 84, "duration": 5, "velocity": 95}, {"time": 648, "pitch": 86, "duration": 6, "velocity": 97}, {"time": 654, "pitch": 81, "duration": 8, "velocity": 99}, {"time": 672, "pitch": 84, "duration": 5, "velocity": 100}, {"time": 676, "pitch": 81, "duration": 3, "velocity": 100}, {"time": 682, "pitch": 84, "duration": 3, "velocity": 100}, {"time": 684, "pitch": 81, "duration": 6, "velocity": 100}, {"time": 690, "pitch": 79, "duration": 6, "velocity": 99}, {"time": 696, "pitch": 77, "duration": 9, "velocity": 99}, {"time": 720, "pitch": 79, "duration": 8, "velocity": 76}, {"time": 730, "pitch": 79, "duration": 1, "velocity": 74}, {"time": 732, "pitch": 79, "duration": 6, "velocity": 87}, {"time": 738, "pitch": 77, "duration": 4, "velocity": 65}, {"time": 742, "pitch": 74, "duration": 3, "velocity": 62}, {"time": 744, "pitch": 81, "duration": 5, "velocity": 79}, {"time": 750, "pitch": 79, "duration": 11, "velocity": 95}, {"time": 768, "pitch": 72, "duration": 9, "velocity": 71}, {"time": 778, "pitch": 74, "duration": 2, "velocity": 64}, {"time": 780, "pitch": 77, "duration": 6, "velocity": 75}, {"time": 786, "pitch": 76, "duration": 6, "velocity": 65}, {"time": 792, "pitch": 74, "duration": 22, "velocity": 69}, {"time": 816, "pitch": 74, "duration": 6, "velocity": 68}, {"time": 822, "pitch": 81, "duration": 4, "velocity": 63}, {"time": 828, "pitch": 81, "duration": 5, "velocity": 68}, {"time": 834, "pitch": 79, "duration": 5, "velocity": 70}, {"time": 840, "pitch": 81, "duration": 6, "velocity": 67}, {"time": 846, "pitch": 77, "duration": 9, "velocity": 63}, {"time": 864, "pitch": 79, "duration": 5, "velocity": 87}, {"time": 870, "pitch": 76, "duration": 4, "velocity": 71}, {"time": 874, "pitch": 74, "duration": 1, "velocity": 66}, {"time": 876, "pitch": 72, "duration": 4, "velocity": 74}, {"time": 882, "pitch": 76, "duration": 4, "velocity": 79}, {"time": 888, "pitch": 74, "duration": 8, "velocity": 90}, {"time": 912, "pitch": 77, "duration": 7, "velocity": 75}, {"time": 922, "pitch": 77, "duration": 1, "velocity": 77}, {"time": 924, "pitch": 77, "duration": 5, "velocity": 83}, {"time": 930, "pitch": 74, "duration": 3, "velocity": 60}, {"time": 936, "pitch": 74, "duration": 3, "velocity": 77}, {"time": 940, "pitch": 77, "duration": 2, "velocity": 74}, {"time": 942, "pitch": 74, "duration": 10, "velocity": 74}, {"time": 960, "pitch": 77, "duration": 6, "velocity": 75}, {"time": 966, "pitch": 74, "duration": 3, "velocity": 61}, {"time": 972, "pitch": 74, "duration": 4, "velocity": 68}, {"time": 978, "pitch": 84, "duration": 4, "velocity": 71}, {"time": 984, "pitch": 81, "duration": 20, "velocity": 98}, {"time": 1008, "pitch": 81, "duration": 4, "velocity": 75}, {"time": 1014, "pitch": 86, "duration": 2, "velocity": 77}, {"time": 1018, "pitch": 86, "duration": 1, "velocity": 76}, {"time": 1020, "pitch": 86, "duration": 3, "velocity": 81}, {"time": 1026, "pitch": 84, "duration": 3, "velocity": 77}, {"time": 1032, "pitch": 86, "duration": 2, "velocity": 87}, {"time": 1036, "pitch": 84, "duration": 1, "velocity": 68}, {"time": 1038, "pitch": 81, "duration": 11, "velocity": 86}, {"time": 1056, "pitch": 84, "duration": 4, "velocity": 87}, {"time": 1060, "pitch": 81, "duration": 3, "velocity": 70}, {"time": 1066, "pitch": 84, "duration": 3, "velocity": 74}, {"time": 1068, "pitch": 81, "duration": 6, "velocity": 74}, {"time": 1074, "pitch": 79, "duration": 6, "velocity": 73}, {"time": 1080, "pitch": 77, "duration": 21, "velocity": 95}, {"time": 1104, "pitch": 79, "duration": 7, "velocity": 76}, {"time": 1114, "pitch": 79, "duration": 1, "velocity": 76}, {"time": 1116, "pitch": 79, "duration": 4, "velocity": 85}, {"time": 1122, "pitch": 77, "duration": 4, "velocity": 69}, {"time": 1126, "pitch": 74, "duration": 2, "velocity": 61}, {"time": 1128, "pitch": 81, "duration": 4, "velocity": 70}, {"time": 1134, "pitch": 79, "duration": 9, "velocity": 87}, {"time": 1152, "pitch": 72, "duration": 11, "velocity": 68}, {"time": 1162, "pitch": 74, "duration": 2, "velocity": 65}, {"time": 1164, "pitch": 77, "duration": 5, "velocity": 76}, {"time": 1170, "pitch": 76, "duration": 5, "velocity": 63}, {"time": 1176, "pitch": 74, "duration": 24, "velocity": 71}, {"time": 1200, "pitch": 86, "duration": 8, "velocity": 100}, {"time": 1212, "pitch": 86, "duration": 6, "velocity": 104}, {"time": 1218, "pitch": 81, "duration": 5, "velocity": 75}, {"time": 1224, "pitch": 86, "duration": 5, "velocity": 93}, {"time": 1230, "pitch": 89, "duration": 15, "velocity": 81}, {"time": 1248, "pitch": 88, "duration": 4, "velocity": 74}, {"time": 1254, "pitch": 86, "duration": 2, "velocity": 66}, {"time": 1258, "pitch": 88, "duration": 1, "velocity": 64}, {"time": 1260, "pitch": 84, "duration": 4, "velocity": 61}, {"time": 1266, "pitch": 81, "duration": 5, "velocity": 73}, {"time": 1272, "pitch": 86, "duration": 20, "velocity": 85}, {"time": 1296, "pitch": 86, "duration": 8, "velocity": 79}, {"time": 1306, "pitch": 89, "duration": 1, "velocity": 75}, {"time": 1308, "pitch": 89, "duration": 4, "velocity": 85}, {"time": 1314, "pitch": 84, "duration": 4, "velocity": 76}, {"time": 1320, "pitch": 86, "duration": 4, "velocity": 95}, {"time": 1326, "pitch": 86, "duration": 12, "velocity": 111}, {"time": 1338, "pitch": 84, "duration": 5, "velocity": 74}, {"time": 1344, "pitch": 86, "duration": 4, "velocity": 81}, {"time": 1350, "pitch": 86, "duration": 4, "velocity": 81}, {"time": 1356, "pitch": 79, "duration": 5, "velocity": 83}, {"time": 1362, "pitch": 82, "duration": 5, "velocity": 87}, {"time": 1368, "pitch": 81, "duration": 23, "velocity": 86}, {"time": 1392, "pitch": 81, "duration": 7, "velocity": 61}, {"time": 1398, "pitch": 86, "duration": 9, "velocity": 73}, {"time": 1410, "pitch": 84, "duration": 4, "velocity": 81}, {"time": 1416, "pitch": 86, "duration": 2, "velocity": 87}, {"time": 1420, "pitch": 84, "duration": 2, "velocity": 65}, {"time": 1422, "pitch": 81, "duration": 16, "velocity": 79}, {"time": 1440, "pitch": 84, "duration": 3, "velocity": 76}, {"time": 1444, "pitch": 81, "duration": 4, "velocity": 64}, {"time": 1450, "pitch": 84, "duration": 2, "velocity": 73}, {"time": 1452, "pitch": 81, "duration": 6, "velocity": 68}, {"time": 1458, "pitch": 79, "duration": 6, "velocity": 85}, {"time": 1464, "pitch": 77, "duration": 22, "velocity": 87}, {"time": 1488, "pitch": 79, "duration": 6, "velocity": 95}, {"time": 1498, "pitch": 79, "duration": 1, "velocity": 86}, {"time": 1500, "pitch": 79, "duration": 7, "velocity": 95}, {"time": 1506, "pitch": 77, "duration": 4, "velocity": 61}, {"time": 1510, "pitch": 74, "duration": 2, "velocity": 64}, {"time": 1512, "pitch": 81, "duration": 5, "velocity": 79}, {"time": 1518, "pitch": 79, "duration": 14, "velocity": 104}, {"time": 1536, "pitch": 72, "duration": 10, "velocity": 79}, {"time": 1546, "pitch": 74, "duration": 1, "velocity": 65}, {"time": 1548, "pitch": 77, "duration": 5, "velocity": 95}, {"time": 1554, "pitch": 76, "duration": 4, "velocity": 81}, {"time": 1560, "pitch": 74, "duration": 24, "velocity": 83}, {"time": 1584, "pitch": 86, "duration": 8, "velocity": 100}, {"time": 1596, "pitch": 86, "duration": 6, "velocity": 104}, {"time": 1602, "pitch": 81, "duration": 5, "velocity": 75}, {"time": 1608, "pitch": 86, "duration": 5, "velocity": 93}, {"time": 1614, "pitch": 89, "duration": 15, "velocity": 81}, {"time": 1632, "pitch": 88, "duration": 4, "velocity": 74}, {"time": 1638, "pitch": 86, "duration": 2, "velocity": 66}, {"time": 1642, "pitch": 88, "duration": 1, "velocity": 64}, {"time": 1644, "pitch": 84, "duration": 4, "velocity": 61}, {"time": 1650, "pitch": 81, "duration": 5, "velocity": 73}, {"time": 1656, "pitch": 86, "duration": 20, "velocity": 85}, {"time": 1680, "pitch": 86, "duration": 8, "velocity": 79}, {"time": 1690, "pitch": 89, "duration": 1, "velocity": 75}, {"time": 1692, "pitch": 89, "duration": 4, "velocity": 85}, {"time": 1698, "pitch": 84, "duration": 4, "velocity": 76}, {"time": 1704, "pitch": 86, "duration": 4, "velocity": 95}, {"time": 1710, "pitch": 86, "duration": 12, "velocity": 111}, {"time": 1728, "pitch": 86, "duration": 4, "velocity": 81}, {"time": 1734, "pitch": 86, "duration": 4, "velocity": 81}, {"time": 1740, "pitch": 79, "duration": 5, "velocity": 83}, {"time": 1746, "pitch": 82, "duration": 5, "velocity": 87}, {"time": 1752, "pitch": 81, "duration": 23, "velocity": 86}, {"time": 1776, "pitch": 81, "duration": 7, "velocity": 61}, {"time": 1782, "pitch": 86, "duration": 9, "velocity": 73}, {"time": 1794, "pitch": 84, "duration": 4, "velocity": 81}, {"time": 1800, "pitch": 86, "duration": 2, "velocity": 87}, {"time": 1804, "pitch": 84, "duration": 2, "velocity": 65}, {"time": 1806, "pitch": 81, "duration": 16, "velocity": 79}, {"time": 1824, "pitch": 84, "duration": 3, "velocity": 76}, {"time": 1828, "pitch": 81, "duration": 4, "velocity": 64}, {"time": 1834, "pitch": 84, "duration": 2, "velocity": 73}, {"time": 1836, "pitch": 81, "duration": 6, "velocity": 68}, {"time": 1842, "pitch": 79, "duration": 6, "velocity": 85}, {"time": 1848, "pitch": 77, "duration": 22, "velocity": 87}, {"time": 1872, "pitch": 79, "duration": 6, "velocity": 95}, {"time": 1882, "pitch": 79, "duration": 1, "velocity": 86}, {"time": 1884, "pitch": 79, "duration": 7, "velocity": 95}, {"time": 1890, "pitch": 77, "duration": 4, "velocity": 61}, {"time": 1894, "pitch": 74, "duration": 2, "velocity": 64}, {"time": 1896, "pitch": 81, "duration": 5, "velocity": 79}, {"time": 1902, "pitch": 79, "duration": 14, "velocity": 104}, {"time": 1914, "pitch": 81, "duration": 6, "velocity": 74}, {"time": 1920, "pitch": 84, "duration": 10, "velocity": 79}, {"time": 1930, "pitch": 86, "duration": 1, "velocity": 65}, {"time": 1932, "pitch": 89, "duration": 5, "velocity": 95}, {"time": 1938, "pitch": 88, "duration": 4, "velocity": 81}, {"time": 1944, "pitch": 86, "duration": 24, "velocity": 83}, {"time": 2352, "pitch": 74, "duration": 6, "velocity": 68}, {"time": 2358, "pitch": 81, "duration": 3, "velocity": 63}, {"time": 2364, "pitch": 81, "duration": 5, "velocity": 68}, {"time": 2370, "pitch": 79, "duration": 4, "velocity": 70}, {"time": 2376, "pitch": 81, "duration": 5, "velocity": 67}, {"time": 2382, "pitch": 77, "duration": 9, "velocity": 63}, {"time": 2400, "pitch": 79, "duration": 4, "velocity": 87}, {"time": 2406, "pitch": 76, "duration": 3, "velocity": 71}, {"time": 2409, "pitch": 74, "duration": 2, "velocity": 66}, {"time": 2412, "pitch": 72, "duration": 3, "velocity": 74}, {"time": 2418, "pitch": 76, "duration": 4, "velocity": 79}, {"time": 2424, "pitch": 74, "duration": 7, "velocity": 90}, {"time": 2448, "pitch": 77, "duration": 6, "velocity": 75}, {"time": 2457, "pitch": 77, "duration": 1, "velocity": 77}, {"time": 2460, "pitch": 77, "duration": 5, "velocity": 83}, {"time": 2466, "pitch": 74, "duration": 2, "velocity": 60}, {"time": 2472, "pitch": 74, "duration": 3, "velocity": 77}, {"time": 2475, "pitch": 77, "duration": 3, "velocity": 74}, {"time": 2478, "pitch": 74, "duration": 9, "velocity": 74}, {"time": 2496, "pitch": 77, "duration": 6, "velocity": 75}, {"time": 2502, "pitch": 74, "duration": 2, "velocity": 61}, {"time": 2508, "pitch": 74, "duration": 3, "velocity": 68}, {"time": 2514, "pitch": 84, "duration": 3, "velocity": 71}, {"time": 2520, "pitch": 81, "duration": 20, "velocity": 98}, {"time": 2544, "pitch": 81, "duration": 4, "velocity": 75}, {"time": 2550, "pitch": 86, "duration": 1, "velocity": 77}, {"time": 2553, "pitch": 86, "duration": 1, "velocity": 76}, {"time": 2556, "pitch": 86, "duration": 2, "velocity": 81}, {"time": 2562, "pitch": 84, "duration": 3, "velocity": 77}, {"time": 2568, "pitch": 86, "duration": 2, "velocity": 87}, {"time": 2571, "pitch": 84, "duration": 1, "velocity": 68}, {"time": 2574, "pitch": 81, "duration": 11, "velocity": 86}, {"time": 2592, "pitch": 84, "duration": 3, "velocity": 87}, {"time": 2595, "pitch": 81, "duration": 4, "velocity": 70}, {"time": 2601, "pitch": 84, "duration": 3, "velocity": 74}, {"time": 2604, "pitch": 81, "duration": 6, "velocity": 74}, {"time": 2610, "pitch": 79, "duration": 6, "velocity": 73}, {"time": 2616, "pitch": 77, "duration": 20, "velocity": 95}, {"time": 2640, "pitch": 79, "duration": 6, "velocity": 76}, {"time": 2649, "pitch": 79, "duration": 1, "velocity": 76}, {"time": 2652, "pitch": 79, "duration": 3, "velocity": 85}, {"time": 2658, "pitch": 77, "duration": 3, "velocity": 69}, {"time": 2661, "pitch": 74, "duration": 3, "velocity": 61}, {"time": 2664, "pitch": 81, "duration": 4, "velocity": 70}, {"time": 2670, "pitch": 79, "duration": 8, "velocity": 87}, {"time": 2688, "pitch": 72, "duration": 10, "velocity": 68}, {"time": 2697, "pitch": 74, "duration": 2, "velocity": 65}, {"time": 2700, "pitch": 77, "duration": 5, "velocity": 76}, {"time": 2706, "pitch": 76, "duration": 5, "velocity": 63}, {"time": 2712, "pitch": 74, "duration": 24, "velocity": 71}, {"time": 2736, "pitch": 86, "duration": 8, "velocity": 100}, {"time": 2748, "pitch": 86, "duration": 6, "velocity": 104}, {"time": 2754, "pitch": 81, "duration": 5, "velocity": 75}, {"time": 2760, "pitch": 86, "duration": 4, "velocity": 93}, {"time": 2766, "pitch": 89, "duration": 14, "velocity": 81}, {"time": 2784, "pitch": 88, "duration": 3, "velocity": 74}, {"time": 2790, "pitch": 86, "duration": 1, "velocity": 66}, {"time": 2793, "pitch": 88, "duration": 1, "velocity": 64}, {"time": 2796, "pitch": 84, "duration": 4, "velocity": 61}, {"time": 2802, "pitch": 81, "duration": 5, "velocity": 73}, {"time": 2808, "pitch": 86, "duration": 19, "velocity": 85}, {"time": 2832, "pitch": 86, "duration": 7, "velocity": 79}, {"time": 2841, "pitch": 89, "duration": 1, "velocity": 75}, {"time": 2844, "pitch": 89, "duration": 3, "velocity": 85}, {"time": 2850, "pitch": 84, "duration": 4, "velocity": 76}, {"time": 2856, "pitch": 86, "duration": 3, "velocity": 95}, {"time": 2862, "pitch": 86, "duration": 11, "velocity": 111}, {"time": 2874, "pitch": 84, "duration": 5, "velocity": 74}, {"time": 2880, "pitch": 86, "duration": 3, "velocity": 81}, {"time": 2886, "pitch": 86, "duration": 4, "velocity": 81}, {"time": 2892, "pitch": 79, "duration": 5, "velocity": 83}, {"time": 2898, "pitch": 82, "duration": 4, "velocity": 87}, {"time": 2904, "pitch": 81, "duration": 23, "velocity": 86}, {"time": 2928, "pitch": 81, "duration": 6, "velocity": 61}, {"time": 2934, "pitch": 86, "duration": 9, "velocity": 73}, {"time": 2946, "pitch": 84, "duration": 4, "velocity": 81}, {"time": 2952, "pitch": 86, "duration": 2, "velocity": 87}, {"time": 2955, "pitch": 84, "duration": 3, "velocity": 65}, {"time": 2958, "pitch": 81, "duration": 16, "velocity": 79}, {"time": 2976, "pitch": 84, "duration": 3, "velocity": 76}, {"time": 2979, "pitch": 81, "duration": 4, "velocity": 64}, {"time": 2985, "pitch": 84, "duration": 2, "velocity": 73}, {"time": 2988, "pitch": 81, "duration": 6, "velocity": 68}, {"time": 2994, "pitch": 79, "duration": 6, "velocity": 85}, {"time": 3000, "pitch": 77, "duration": 21, "velocity": 87}, {"time": 3024, "pitch": 79, "duration": 6, "velocity": 95}, {"time": 3033, "pitch": 79, "duration": 1, "velocity": 86}, {"time": 3036, "pitch": 79, "duration": 6, "velocity": 95}, {"time": 3042, "pitch": 77, "duration": 4, "velocity": 61}, {"time": 3045, "pitch": 74, "duration": 2, "velocity": 64}, {"time": 3048, "pitch": 81, "duration": 5, "velocity": 79}, {"time": 3054, "pitch": 79, "duration": 13, "velocity": 104}, {"time": 3072, "pitch": 72, "duration": 9, "velocity": 79}, {"time": 3081, "pitch": 74, "duration": 2, "velocity": 65}, {"time": 3084, "pitch": 77, "duration": 5, "velocity": 95}, {"time": 3090, "pitch": 76, "duration": 4, "velocity": 81}, {"time": 3096, "pitch": 74, "duration": 23, "velocity": 83}, {"time": 3120, "pitch": 86, "duration": 8, "velocity": 100}, {"time": 3132, "pitch": 86, "duration": 6, "velocity": 104}, {"time": 3138, "pitch": 81, "duration": 5, "velocity": 75}, {"time": 3144, "pitch": 86, "duration": 4, "velocity": 93}, {"time": 3150, "pitch": 89, "duration": 14, "velocity": 81}, {"time": 3168, "pitch": 88, "duration": 3, "velocity": 74}, {"time": 3174, "pitch": 86, "duration": 1, "velocity": 66}, {"time": 3177, "pitch": 88, "duration": 1, "velocity": 64}, {"time": 3180, "pitch": 84, "duration": 4, "velocity": 61}, {"time": 3186, "pitch": 81, "duration": 5, "velocity": 73}, {"time": 3192, "pitch": 86, "duration": 19, "velocity": 85}, {"time": 3216, "pitch": 86, "duration": 7, "velocity": 79}, {"time": 3225, "pitch": 89, "duration": 1, "velocity": 75}, {"time": 3228, "pitch": 89, "duration": 3, "velocity": 85}, {"time": 3234, "pitch": 84, "duration": 4, "velocity": 76}, {"time": 3240, "pitch": 86, "duration": 3, "velocity": 95}, {"time": 3246, "pitch": 86, "duration": 11, "velocity": 111}, {"time": 3264, "pitch": 86, "duration": 3, "velocity": 81}, {"time": 3270, "pitch": 86, "duration": 4, "velocity": 81}, {"time": 3276, "pitch": 79, "duration": 5, "velocity": 83}, {"time": 3282, "pitch": 82, "duration": 4, "velocity": 87}, {"time": 3288, "pitch": 81, "duration": 23, "velocity": 86}, {"time": 3312, "pitch": 81, "duration": 6, "velocity": 61}, {"time": 3318, "pitch": 86, "duration": 9, "velocity": 73}, {"time": 3330, "pitch": 84, "duration": 4, "velocity": 81}, {"time": 3336, "pitch": 86, "duration": 2, "velocity": 87}, {"time": 3339, "pitch": 84, "duration": 3, "velocity": 65}, {"time": 3342, "pitch": 81, "duration": 16, "velocity": 79}, {"time": 3360, "pitch": 84, "duration": 3, "velocity": 76}, {"time": 3363, "pitch": 81, "duration": 4, "velocity": 64}, {"time": 3369, "pitch": 84, "duration": 2, "velocity": 73}, {"time": 3372, "pitch": 81, "duration": 6, "velocity": 68}, {"time": 3378, "pitch": 79, "duration": 6, "velocity": 85}, {"time": 3384, "pitch": 77, "duration": 21, "velocity": 87}, {"time": 3408, "pitch": 79, "duration": 6, "velocity": 95}, {"time": 3417, "pitch": 79, "duration": 1, "velocity": 86}, {"time": 3420, "pitch": 79, "duration": 6, "velocity": 95}, {"time": 3426, "pitch": 77, "duration": 4, "velocity": 61}, {"time": 3429, "pitch": 74, "duration": 2, "velocity": 64}, {"time": 3432, "pitch": 81, "duration": 5, "velocity": 79}, {"time": 3438, "pitch": 79, "duration": 13, "velocity": 104}, {"time": 3450, "pitch": 81, "duration": 6, "velocity": 74}, {"time": 3456, "pitch": 84, "duration": 9, "velocity": 79}, {"time": 3465, "pitch": 86, "duration": 2, "velocity": 65}, {"time": 3468, "pitch": 89, "duration": 5, "velocity": 95}, {"time": 3474, "pitch": 88, "duration": 4, "velocity": 81}, {"time": 3480, "pitch": 86, "duration": 23, "velocity": 83}, {"time": 3504, "pitch": 79, "duration": 6, "velocity": 95}, {"time": 3513, "pitch": 79, "duration": 1, "velocity": 86}, {"time": 3516, "pitch": 79, "duration": 6, "velocity": 95}, {"time": 3522, "pitch": 77, "duration": 4, "velocity": 61}, {"time": 3525, "pitch": 74, "duration": 2, "velocity": 64}, {"time": 3528, "pitch": 81, "duration": 5, "velocity": 79}, {"time": 3534, "pitch": 79, "duration": 13, "velocity": 104}, {"time": 3546, "pitch": 81, "duration": 6, "velocity": 74}, {"time": 3552, "pitch": 72, "duration": 9, "velocity": 79}, {"time": 3561, "pitch": 74, "duration": 2, "velocity": 65}, {"time": 3564, "pitch": 77, "duration": 5, "velocity": 95}, {"time": 3570, "pitch": 76, "duration": 4, "velocity": 81}, {"time": 3576, "pitch": 74, "duration": 23, "velocity": 83}]}, {"program": 0, "is_drum": false, "name": "PIANO", "notes": [{"time": 48, "pitch": 50, "duration": 44, "velocity": 74}, {"time": 55, "pitch": 57, "duration": 12, "velocity": 61}, {"time": 61, "pitch": 62, "duration": 6, "velocity": 59}, {"time": 67, "pitch": 69, "duration": 6, "velocity": 68}, {"time": 73, "pitch": 67, "duration": 5, "velocity": 74}, {"time": 79, "pitch": 60, "duration": 7, "velocity": 61}, {"time": 85, "pitch": 64, "duration": 5, "velocity": 65}, {"time": 91, "pitch": 72, "duration": 7, "velocity": 69}, {"time": 96, "pitch": 48, "duration": 48, "velocity": 86}, {"time": 102, "pitch": 55, "duration": 19, "velocity": 67}, {"time": 108, "pitch": 72, "duration": 6, "velocity": 56}, {"time": 114, "pitch": 60, "duration": 6, "velocity": 59}, {"time": 120, "pitch": 62, "duration": 11, "velocity": 67}, {"time": 126, "pitch": 57, "duration": 12, "velocity": 59}, {"time": 132, "pitch": 69, "duration": 24, "velocity": 70}, {"time": 144, "pitch": 46, "duration": 42, "velocity": 60}, {"time": 150, "pitch": 50, "duration": 41, "velocity": 52}, {"time": 156, "pitch": 53, "duration": 19, "velocity": 60}, {"time": 162, "pitch": 57, "duration": 8, "velocity": 51}, {"time": 168, "pitch": 62, "duration": 18, "velocity": 64}, {"time": 180, "pitch": 53, "duration": 7, "velocity": 55}, {"time": 186, "pitch": 57, "duration": 7, "velocity": 55}, {"time": 192, "pitch": 48, "duration": 20, "velocity": 66}, {"time": 204, "pitch": 55, "duration": 7, "velocity": 76}, {"time": 210, "pitch": 60, "duration": 7, "velocity": 59}, {"time": 216, "pitch": 41, "duration": 25, "velocity": 72}, {"time": 222, "pitch": 48, "duration": 19, "velocity": 64}, {"time": 228, "pitch": 55, "duration": 6, "velocity": 59}, {"time": 234, "pitch": 57, "duration": 7, "velocity": 67}, {"time": 240, "pitch": 50, "duration": 45, "velocity": 90}, {"time": 247, "pitch": 57, "duration": 12, "velocity": 74}, {"time": 253, "pitch": 62, "duration": 4, "velocity": 61}, {"time": 259, "pitch": 69, "duration": 7, "velocity": 76}, {"time": 265, "pitch": 67, "duration": 6, "velocity": 66}, {"time": 271, "pitch": 60, "duration": 11, "velocity": 65}, {"time": 277, "pitch": 64, "duration": 9, "velocity": 69}, {"time": 283, "pitch": 72, "duration": 4, "velocity": 90}, {"time": 288, "pitch": 46, "duration": 46, "velocity": 64}, {"time": 294, "pitch": 53, "duration": 23, "velocity": 55}, {"time": 300, "pitch": 58, "duration": 13, "velocity": 47}, {"time": 306, "pitch": 60, "duration": 6, "velocity": 58}, {"time": 312, "pitch": 62, "duration": 7, "velocity": 66}, {"time": 318, "pitch": 58, "duration": 14, "velocity": 59}, {"time": 324, "pitch": 60, "duration": 6, "velocity": 62}, {"time": 330, "pitch": 62, "duration": 6, "velocity": 74}, {"time": 336, "pitch": 48, "duration": 44, "velocity": 93}, {"time": 342, "pitch": 55, "duration": 36, "velocity": 60}, {"time": 348, "pitch": 60, "duration": 12, "velocity": 52}, {"time": 354, "pitch": 64, "duration": 8, "velocity": 59}, {"time": 360, "pitch": 67, "duration": 12, "velocity": 73}, {"time": 366, "pitch": 60, "duration": 9, "velocity": 56}, {"time": 372, "pitch": 64, "duration": 7, "velocity": 74}, {"time": 378, "pitch": 67, "duration": 6, "velocity": 71}, {"time": 384, "pitch": 45, "duration": 18, "velocity": 74}, {"time": 390, "pitch": 52, "duration": 13, "velocity": 63}, {"time": 396, "pitch": 57, "duration": 12, "velocity": 51}, {"time": 402, "pitch": 60, "duration": 8, "velocity": 64}, {"time": 408, "pitch": 50, "duration": 22, "velocity": 69}, {"time": 414, "pitch": 57, "duration": 18, "velocity": 59}, {"time": 420, "pitch": 62, "duration": 9, "velocity": 58}, {"time": 426, "pitch": 64, "duration": 6, "velocity": 63}, {"time": 432, "pitch": 50, "duration": 39, "velocity": 72}, {"time": 432, "pitch": 65, "duration": 7, "velocity": 75}, {"time": 438, "pitch": 57, "duration": 33, "velocity": 59}, {"time": 444, "pitch": 62, "duration": 8, "velocity": 47}, {"time": 463, "pitch": 65, "duration": 6, "velocity": 77}, {"time": 469, "pitch": 64, "duration": 6, "velocity": 69}, {"time": 475, "pitch": 72, "duration": 7, "velocity": 75}, {"time": 480, "pitch": 48, "duration": 20, "velocity": 87}, {"time": 486, "pitch": 55, "duration": 18, "velocity": 60}, {"time": 492, "pitch": 60, "duration": 8, "velocity": 56}, {"time": 498, "pitch": 64, "duration": 5, "velocity": 66}, {"time": 502, "pitch": 65, "duration": 3, "velocity": 90}, {"time": 504, "pitch": 62, "duration": 12, "velocity": 90}, {"time": 504, "pitch": 50, "duration": 24, "velocity": 85}, {"time": 510, "pitch": 57, "duration": 18, "velocity": 60}, {"time": 516, "pitch": 65, "duration": 11, "velocity": 61}, {"time": 516, "pitch": 69, "duration": 11, "velocity": 63}, {"time": 522, "pitch": 62, "duration": 6, "velocity": 51}, {"time": 528, "pitch": 46, "duration": 43, "velocity": 59}, {"time": 534, "pitch": 53, "duration": 35, "velocity": 11}, {"time": 546, "pitch": 58, "duration": 9, "velocity": 58}, {"time": 552, "pitch": 62, "duration": 14, "velocity": 58}, {"time": 558, "pitch": 58, "duration": 8, "velocity": 58}, {"time": 564, "pitch": 70, "duration": 7, "velocity": 59}, {"time": 570, "pitch": 62, "duration": 8, "velocity": 60}, {"time": 576, "pitch": 43, "duration": 22, "velocity": 76}, {"time": 582, "pitch": 46, "duration": 16, "velocity": 57}, {"time": 588, "pitch": 58, "duration": 9, "velocity": 72}, {"time": 594, "pitch": 62, "duration": 6, "velocity": 68}, {"time": 600, "pitch": 45, "duration": 24, "velocity": 65}, {"time": 600, "pitch": 60, "duration": 11, "velocity": 61}, {"time": 600, "pitch": 64, "duration": 11, "velocity": 73}, {"time": 606, "pitch": 52, "duration": 18, "velocity": 61}, {"time": 612, "pitch": 69, "duration": 9, "velocity": 74}, {"time": 618, "pitch": 57, "duration": 6, "velocity": 47}, {"time": 622, "pitch": 60, "duration": 3, "velocity": 56}, {"time": 624, "pitch": 50, "duration": 19, "velocity": 86}, {"time": 630, "pitch": 57, "duration": 12, "velocity": 57}, {"time": 636, "pitch": 62, "duration": 6, "velocity": 59}, {"time": 642, "pitch": 65, "duration": 7, "velocity": 58}, {"time": 642, "pitch": 69, "duration": 7, "velocity": 64}, {"time": 648, "pitch": 45, "duration": 18, "velocity": 73}, {"time": 654, "pitch": 52, "duration": 11, "velocity": 60}, {"time": 660, "pitch": 60, "duration": 7, "velocity": 59}, {"time": 660, "pitch": 64, "duration": 8, "velocity": 64}, {"time": 672, "pitch": 46, "duration": 15, "velocity": 75}, {"time": 678, "pitch": 58, "duration": 9, "velocity": 59}, {"time": 684, "pitch": 62, "duration": 12, "velocity": 67}, {"time": 690, "pitch": 65, "duration": 6, "velocity": 67}, {"time": 696, "pitch": 46, "duration": 21, "velocity": 64}, {"time": 702, "pitch": 50, "duration": 13, "velocity": 63}, {"time": 708, "pitch": 62, "duration": 13, "velocity": 52}, {"time": 714, "pitch": 70, "duration": 7, "velocity": 68}, {"time": 721, "pitch": 43, "duration": 25, "velocity": 67}, {"time": 727, "pitch": 50, "duration": 13, "velocity": 62}, {"time": 733, "pitch": 62, "duration": 5, "velocity": 73}, {"time": 739, "pitch": 55, "duration": 6, "velocity": 58}, {"time": 745, "pitch": 48, "duration": 24, "velocity": 71}, {"time": 751, "pitch": 55, "duration": 17, "velocity": 59}, {"time": 757, "pitch": 60, "duration": 6, "velocity": 66}, {"time": 763, "pitch": 64, "duration": 5, "velocity": 74}, {"time": 768, "pitch": 45, "duration": 20, "velocity": 76}, {"time": 774, "pitch": 52, "duration": 16, "velocity": 61}, {"time": 780, "pitch": 60, "duration": 12, "velocity": 63}, {"time": 780, "pitch": 64, "duration": 12, "velocity": 71}, {"time": 786, "pitch": 57, "duration": 6, "velocity": 60}, {"time": 792, "pitch": 50, "duration": 24, "velocity": 81}, {"time": 798, "pitch": 57, "duration": 29, "velocity": 58}, {"time": 804, "pitch": 62, "duration": 14, "velocity": 46}, {"time": 810, "pitch": 64, "duration": 7, "velocity": 74}, {"time": 816, "pitch": 50, "duration": 41, "velocity": 65}, {"time": 816, "pitch": 65, "duration": 11, "velocity": 75}, {"time": 816, "pitch": 69, "duration": 22, "velocity": 67}, {"time": 828, "pitch": 57, "duration": 29, "velocity": 55}, {"time": 834, "pitch": 62, "duration": 8, "velocity": 48}, {"time": 840, "pitch": 65, "duration": 11, "velocity": 63}, {"time": 840, "pitch": 69, "duration": 11, "velocity": 71}, {"time": 846, "pitch": 62, "duration": 4, "velocity": 46}, {"time": 852, "pitch": 65, "duration": 13, "velocity": 62}, {"time": 852, "pitch": 69, "duration": 13, "velocity": 73}, {"time": 864, "pitch": 48, "duration": 20, "velocity": 86}, {"time": 870, "pitch": 55, "duration": 20, "velocity": 53}, {"time": 876, "pitch": 64, "duration": 7, "velocity": 63}, {"time": 876, "pitch": 67, "duration": 7, "velocity": 70}, {"time": 882, "pitch": 60, "duration": 5, "velocity": 54}, {"time": 889, "pitch": 50, "duration": 24, "velocity": 83}, {"time": 895, "pitch": 57, "duration": 18, "velocity": 63}, {"time": 895, "pitch": 65, "duration": 6, "velocity": 74}, {"time": 901, "pitch": 64, "duration": 4, "velocity": 64}, {"time": 907, "pitch": 65, "duration": 5, "velocity": 66}, {"time": 912, "pitch": 46, "duration": 44, "velocity": 58}, {"time": 918, "pitch": 58, "duration": 8, "velocity": 57}, {"time": 924, "pitch": 62, "duration": 12, "velocity": 61}, {"time": 930, "pitch": 58, "duration": 22, "velocity": 52}, {"time": 936, "pitch": 62, "duration": 10, "velocity": 53}, {"time": 936, "pitch": 65, "duration": 9, "velocity": 65}, {"time": 948, "pitch": 62, "duration": 13, "velocity": 59}, {"time": 948, "pitch": 65, "duration": 13, "velocity": 76}, {"time": 948, "pitch": 70, "duration": 13, "velocity": 68}, {"time": 960, "pitch": 43, "duration": 19, "velocity": 65}, {"time": 960, "pitch": 58, "duration": 10, "velocity": 63}, {"time": 960, "pitch": 62, "duration": 1, "velocity": 73}, {"time": 966, "pitch": 50, "duration": 17, "velocity": 69}, {"time": 972, "pitch": 58, "duration": 7, "velocity": 73}, {"time": 978, "pitch": 62, "duration": 6, "velocity": 75}, {"time": 984, "pitch": 45, "duration": 20, "velocity": 66}, {"time": 984, "pitch": 60, "duration": 9, "velocity": 60}, {"time": 984, "pitch": 64, "duration": 10, "velocity": 70}, {"time": 990, "pitch": 52, "duration": 15, "velocity": 65}, {"time": 996, "pitch": 62, "duration": 6, "velocity": 74}, {"time": 1002, "pitch": 64, "duration": 6, "velocity": 77}, {"time": 1008, "pitch": 50, "duration": 24, "velocity": 85}, {"time": 1008, "pitch": 65, "duration": 11, "velocity": 62}, {"time": 1008, "pitch": 69, "duration": 12, "velocity": 63}, {"time": 1014, "pitch": 57, "duration": 18, "velocity": 54}, {"time": 1020, "pitch": 65, "duration": 11, "velocity": 62}, {"time": 1020, "pitch": 69, "duration": 11, "velocity": 74}, {"time": 1026, "pitch": 62, "duration": 6, "velocity": 46}, {"time": 1032, "pitch": 48, "duration": 24, "velocity": 75}, {"time": 1032, "pitch": 62, "duration": 11, "velocity": 64}, {"time": 1032, "pitch": 65, "duration": 11, "velocity": 70}, {"time": 1044, "pitch": 62, "duration": 12, "velocity": 73}, {"time": 1044, "pitch": 65, "duration": 12, "velocity": 85}, {"time": 1056, "pitch": 46, "duration": 38, "velocity": 76}, {"time": 1062, "pitch": 50, "duration": 7, "velocity": 74}, {"time": 1066, "pitch": 53, "duration": 25, "velocity": 61}, {"time": 1072, "pitch": 50, "duration": 19, "velocity": 9}, {"time": 1072, "pitch": 62, "duration": 16, "velocity": 59}, {"time": 1080, "pitch": 70, "duration": 10, "velocity": 62}, {"time": 1092, "pitch": 62, "duration": 14, "velocity": 63}, {"time": 1092, "pitch": 70, "duration": 14, "velocity": 61}, {"time": 1105, "pitch": 43, "duration": 47, "velocity": 70}, {"time": 1111, "pitch": 50, "duration": 41, "velocity": 63}, {"time": 1117, "pitch": 58, "duration": 12, "velocity": 54}, {"time": 1123, "pitch": 62, "duration": 10, "velocity": 67}, {"time": 1129, "pitch": 55, "duration": 14, "velocity": 50}, {"time": 1135, "pitch": 60, "duration": 6, "velocity": 60}, {"time": 1141, "pitch": 62, "duration": 5, "velocity": 68}, {"time": 1147, "pitch": 64, "duration": 5, "velocity": 67}, {"time": 1152, "pitch": 45, "duration": 19, "velocity": 67}, {"time": 1158, "pitch": 52, "duration": 15, "velocity": 69}, {"time": 1164, "pitch": 57, "duration": 13, "velocity": 64}, {"time": 1164, "pitch": 65, "duration": 6, "velocity": 85}, {"time": 1170, "pitch": 64, "duration": 7, "velocity": 63}, {"time": 1176, "pitch": 50, "duration": 23, "velocity": 81}, {"time": 1176, "pitch": 62, "duration": 7, "velocity": 64}, {"time": 1182, "pitch": 57, "duration": 17, "velocity": 65}, {"time": 1188, "pitch": 62, "duration": 10, "velocity": 60}, {"time": 1192, "pitch": 64, "duration": 3, "velocity": 67}, {"time": 1194, "pitch": 65, "duration": 5, "velocity": 85}, {"time": 1200, "pitch": 50, "duration": 20, "velocity": 64}, {"time": 1203, "pitch": 57, "duration": 6, "velocity": 61}, {"time": 1206, "pitch": 62, "duration": 4, "velocity": 69}, {"time": 1210, "pitch": 57, "duration": 3, "velocity": 80}, {"time": 1212, "pitch": 65, "duration": 6, "velocity": 84}, {"time": 1213, "pitch": 69, "duration": 4, "velocity": 80}, {"time": 1216, "pitch": 62, "duration": 6, "velocity": 58}, {"time": 1219, "pitch": 57, "duration": 2, "velocity": 58}, {"time": 1221, "pitch": 65, "duration": 5, "velocity": 56}, {"time": 1222, "pitch": 69, "duration": 3, "velocity": 52}, {"time": 1225, "pitch": 50, "duration": 17, "velocity": 100}, {"time": 1228, "pitch": 57, "duration": 3, "velocity": 76}, {"time": 1230, "pitch": 60, "duration": 4, "velocity": 80}, {"time": 1233, "pitch": 57, "duration": 4, "velocity": 80}, {"time": 1236, "pitch": 64, "duration": 12, "velocity": 104}, {"time": 1239, "pitch": 57, "duration": 6, "velocity": 79}, {"time": 1243, "pitch": 72, "duration": 10, "velocity": 101}, {"time": 1245, "pitch": 50, "duration": 4, "velocity": 84}, {"time": 1248, "pitch": 48, "duration": 21, "velocity": 94}, {"time": 1251, "pitch": 55, "duration": 4, "velocity": 76}, {"time": 1254, "pitch": 60, "duration": 7, "velocity": 85}, {"time": 1257, "pitch": 55, "duration": 4, "velocity": 89}, {"time": 1261, "pitch": 64, "duration": 7, "velocity": 107}, {"time": 1261, "pitch": 67, "duration": 11, "velocity": 106}, {"time": 1263, "pitch": 55, "duration": 6, "velocity": 56}, {"time": 1266, "pitch": 60, "duration": 4, "velocity": 84}, {"time": 1269, "pitch": 64, "duration": 4, "velocity": 78}, {"time": 1272, "pitch": 50, "duration": 19, "velocity": 89}, {"time": 1275, "pitch": 57, "duration": 4, "velocity": 84}, {"time": 1278, "pitch": 62, "duration": 5, "velocity": 88}, {"time": 1281, "pitch": 57, "duration": 4, "velocity": 85}, {"time": 1284, "pitch": 65, "duration": 7, "velocity": 104}, {"time": 1284, "pitch": 69, "duration": 5, "velocity": 100}, {"time": 1287, "pitch": 57, "duration": 8, "velocity": 93}, {"time": 1290, "pitch": 62, "duration": 4, "velocity": 84}, {"time": 1293, "pitch": 65, "duration": 4, "velocity": 83}, {"time": 1296, "pitch": 46, "duration": 16, "velocity": 97}, {"time": 1299, "pitch": 53, "duration": 3, "velocity": 80}, {"time": 1302, "pitch": 58, "duration": 6, "velocity": 96}, {"time": 1305, "pitch": 53, "duration": 5, "velocity": 84}, {"time": 1308, "pitch": 65, "duration": 14, "velocity": 96}, {"time": 1308, "pitch": 62, "duration": 7, "velocity": 94}, {"time": 1311, "pitch": 58, "duration": 2, "velocity": 84}, {"time": 1314, "pitch": 53, "duration": 3, "velocity": 84}, {"time": 1317, "pitch": 58, "duration": 5, "velocity": 86}, {"time": 1318, "pitch": 62, "duration": 2, "velocity": 37}, {"time": 1320, "pitch": 46, "duration": 20, "velocity": 98}, {"time": 1323, "pitch": 53, "duration": 4, "velocity": 80}, {"time": 1326, "pitch": 58, "duration": 7, "velocity": 101}, {"time": 1329, "pitch": 53, "duration": 4, "velocity": 88}, {"time": 1332, "pitch": 65, "duration": 11, "velocity": 97}, {"time": 1332, "pitch": 62, "duration": 6, "velocity": 94}, {"time": 1335, "pitch": 53, "duration": 4, "velocity": 80}, {"time": 1338, "pitch": 58, "duration": 5, "velocity": 84}, {"time": 1341, "pitch": 53, "duration": 4, "velocity": 89}, {"time": 1344, "pitch": 48, "duration": 17, "velocity": 88}, {"time": 1347, "pitch": 55, "duration": 4, "velocity": 91}, {"time": 1350, "pitch": 60, "duration": 5, "velocity": 84}, {"time": 1353, "pitch": 55, "duration": 4, "velocity": 85}, {"time": 1356, "pitch": 64, "duration": 12, "velocity": 107}, {"time": 1356, "pitch": 67, "duration": 13, "velocity": 109}, {"time": 1360, "pitch": 55, "duration": 5, "velocity": 80}, {"time": 1363, "pitch": 60, "duration": 5, "velocity": 76}, {"time": 1365, "pitch": 48, "duration": 1, "velocity": 84}, {"time": 1368, "pitch": 41, "duration": 20, "velocity": 87}, {"time": 1371, "pitch": 53, "duration": 4, "velocity": 86}, {"time": 1375, "pitch": 57, "duration": 5, "velocity": 97}, {"time": 1377, "pitch": 53, "duration": 5, "velocity": 98}, {"time": 1381, "pitch": 65, "duration": 4, "velocity": 107}, {"time": 1381, "pitch": 60, "duration": 4, "velocity": 109}, {"time": 1383, "pitch": 53, "duration": 3, "velocity": 76}, {"time": 1386, "pitch": 64, "duration": 6, "velocity": 101}, {"time": 1386, "pitch": 60, "duration": 5, "velocity": 84}, {"time": 1386, "pitch": 57, "duration": 3, "velocity": 91}, {"time": 1389, "pitch": 53, "duration": 1, "velocity": 97}, {"time": 1392, "pitch": 46, "duration": 21, "velocity": 104}, {"time": 1395, "pitch": 53, "duration": 4, "velocity": 84}, {"time": 1398, "pitch": 58, "duration": 5, "velocity": 88}, {"time": 1401, "pitch": 53, "duration": 4, "velocity": 84}, {"time": 1404, "pitch": 62, "duration": 12, "velocity": 110}, {"time": 1404, "pitch": 58, "duration": 4, "velocity": 98}, {"time": 1407, "pitch": 53, "duration": 3, "velocity": 92}, {"time": 1410, "pitch": 58, "duration": 9, "velocity": 76}, {"time": 1413, "pitch": 53, "duration": 1, "velocity": 85}, {"time": 1416, "pitch": 46, "duration": 16, "velocity": 104}, {"time": 1419, "pitch": 53, "duration": 3, "velocity": 89}, {"time": 1422, "pitch": 60, "duration": 4, "velocity": 97}, {"time": 1425, "pitch": 53, "duration": 4, "velocity": 91}, {"time": 1428, "pitch": 64, "duration": 4, "velocity": 102}, {"time": 1431, "pitch": 53, "duration": 4, "velocity": 105}, {"time": 1434, "pitch": 72, "duration": 5, "velocity": 109}, {"time": 1437, "pitch": 50, "duration": 1, "velocity": 85}, {"time": 1440, "pitch": 46, "duration": 22, "velocity": 102}, {"time": 1443, "pitch": 53, "duration": 3, "velocity": 91}, {"time": 1446, "pitch": 58, "duration": 4, "velocity": 102}, {"time": 1449, "pitch": 53, "duration": 4, "velocity": 96}, {"time": 1452, "pitch": 58, "duration": 3, "velocity": 105}, {"time": 1452, "pitch": 62, "duration": 4, "velocity": 105}, {"time": 1452, "pitch": 65, "duration": 4, "velocity": 107}, {"time": 1455, "pitch": 53, "duration": 4, "velocity": 98}, {"time": 1461, "pitch": 53, "duration": 1, "velocity": 79}, {"time": 1464, "pitch": 46, "duration": 17, "velocity": 102}, {"time": 1467, "pitch": 53, "duration": 4, "velocity": 80}, {"time": 1470, "pitch": 58, "duration": 7, "velocity": 101}, {"time": 1473, "pitch": 53, "duration": 5, "velocity": 82}, {"time": 1476, "pitch": 65, "duration": 12, "velocity": 103}, {"time": 1476, "pitch": 62, "duration": 12, "velocity": 101}, {"time": 1479, "pitch": 53, "duration": 5, "velocity": 84}, {"time": 1482, "pitch": 58, "duration": 7, "velocity": 96}, {"time": 1485, "pitch": 46, "duration": 1, "velocity": 84}, {"time": 1489, "pitch": 43, "duration": 16, "velocity": 107}, {"time": 1491, "pitch": 50, "duration": 4, "velocity": 85}, {"time": 1495, "pitch": 55, "duration": 4, "velocity": 100}, {"time": 1497, "pitch": 50, "duration": 4, "velocity": 94}, {"time": 1500, "pitch": 58, "duration": 14, "velocity": 112}, {"time": 1501, "pitch": 62, "duration": 12, "velocity": 107}, {"time": 1503, "pitch": 50, "duration": 4, "velocity": 96}, {"time": 1506, "pitch": 55, "duration": 8, "velocity": 96}, {"time": 1509, "pitch": 50, "duration": 1, "velocity": 73}, {"time": 1512, "pitch": 43, "duration": 17, "velocity": 105}, {"time": 1515, "pitch": 50, "duration": 4, "velocity": 89}, {"time": 1518, "pitch": 55, "duration": 7, "velocity": 97}, {"time": 1521, "pitch": 50, "duration": 4, "velocity": 91}, {"time": 1524, "pitch": 60, "duration": 12, "velocity": 109}, {"time": 1527, "pitch": 50, "duration": 5, "velocity": 94}, {"time": 1530, "pitch": 55, "duration": 6, "velocity": 89}, {"time": 1531, "pitch": 64, "duration": 5, "velocity": 104}, {"time": 1533, "pitch": 43, "duration": 1, "velocity": 89}, {"time": 1536, "pitch": 45, "duration": 21, "velocity": 109}, {"time": 1539, "pitch": 52, "duration": 7, "velocity": 86}, {"time": 1542, "pitch": 57, "duration": 5, "velocity": 96}, {"time": 1547, "pitch": 52, "duration": 2, "velocity": 107}, {"time": 1549, "pitch": 60, "duration": 11, "velocity": 121}, {"time": 1549, "pitch": 64, "duration": 11, "velocity": 116}, {"time": 1552, "pitch": 52, "duration": 2, "velocity": 108}, {"time": 1554, "pitch": 57, "duration": 5, "velocity": 88}, {"time": 1557, "pitch": 52, "duration": 1, "velocity": 96}, {"time": 1560, "pitch": 50, "duration": 19, "velocity": 116}, {"time": 1563, "pitch": 57, "duration": 4, "velocity": 98}, {"time": 1566, "pitch": 62, "duration": 4, "velocity": 111}, {"time": 1569, "pitch": 64, "duration": 4, "velocity": 102}, {"time": 1572, "pitch": 65, "duration": 3, "velocity": 109}, {"time": 1572, "pitch": 62, "duration": 10, "velocity": 108}, {"time": 1572, "pitch": 57, "duration": 7, "velocity": 104}, {"time": 1575, "pitch": 69, "duration": 2, "velocity": 95}, {"time": 1578, "pitch": 72, "duration": 3, "velocity": 103}, {"time": 1581, "pitch": 50, "duration": 2, "velocity": 102}, {"time": 1584, "pitch": 50, "duration": 20, "velocity": 81}, {"time": 1587, "pitch": 57, "duration": 6, "velocity": 78}, {"time": 1590, "pitch": 62, "duration": 4, "velocity": 86}, {"time": 1594, "pitch": 57, "duration": 3, "velocity": 97}, {"time": 1596, "pitch": 65, "duration": 6, "velocity": 101}, {"time": 1597, "pitch": 69, "duration": 4, "velocity": 97}, {"time": 1600, "pitch": 62, "duration": 6, "velocity": 75}, {"time": 1603, "pitch": 57, "duration": 2, "velocity": 75}, {"time": 1605, "pitch": 65, "duration": 5, "velocity": 73}, {"time": 1606, "pitch": 69, "duration": 3, "velocity": 69}, {"time": 1609, "pitch": 50, "duration": 17, "velocity": 85}, {"time": 1612, "pitch": 57, "duration": 3, "velocity": 76}, {"time": 1614, "pitch": 60, "duration": 4, "velocity": 80}, {"time": 1617, "pitch": 57, "duration": 4, "velocity": 80}, {"time": 1620, "pitch": 64, "duration": 12, "velocity": 104}, {"time": 1623, "pitch": 57, "duration": 6, "velocity": 79}, {"time": 1627, "pitch": 72, "duration": 10, "velocity": 101}, {"time": 1629, "pitch": 50, "duration": 4, "velocity": 84}, {"time": 1632, "pitch": 48, "duration": 21, "velocity": 94}, {"time": 1635, "pitch": 55, "duration": 4, "velocity": 76}, {"time": 1638, "pitch": 60, "duration": 7, "velocity": 85}, {"time": 1641, "pitch": 55, "duration": 4, "velocity": 89}, {"time": 1645, "pitch": 64, "duration": 7, "velocity": 107}, {"time": 1645, "pitch": 67, "duration": 11, "velocity": 106}, {"time": 1647, "pitch": 55, "duration": 6, "velocity": 56}, {"time": 1650, "pitch": 60, "duration": 4, "velocity": 84}, {"time": 1653, "pitch": 64, "duration": 4, "velocity": 78}, {"time": 1656, "pitch": 50, "duration": 19, "velocity": 89}, {"time": 1659, "pitch": 57, "duration": 4, "velocity": 84}, {"time": 1662, "pitch": 62, "duration": 5, "velocity": 88}, {"time": 1665, "pitch": 57, "duration": 4, "velocity": 85}, {"time": 1668, "pitch": 65, "duration": 7, "velocity": 104}, {"time": 1668, "pitch": 69, "duration": 5, "velocity": 100}, {"time": 1671, "pitch": 57, "duration": 8, "velocity": 93}, {"time": 1674, "pitch": 62, "duration": 4, "velocity": 84}, {"time": 1677, "pitch": 65, "duration": 4, "velocity": 83}, {"time": 1680, "pitch": 46, "duration": 16, "velocity": 97}, {"time": 1683, "pitch": 53, "duration": 3, "velocity": 80}, {"time": 1686, "pitch": 58, "duration": 6, "velocity": 96}, {"time": 1689, "pitch": 53, "duration": 5, "velocity": 84}, {"time": 1692, "pitch": 65, "duration": 14, "velocity": 96}, {"time": 1692, "pitch": 62, "duration": 7, "velocity": 94}, {"time": 1695, "pitch": 58, "duration": 2, "velocity": 84}, {"time": 1698, "pitch": 53, "duration": 3, "velocity": 84}, {"time": 1701, "pitch": 58, "duration": 5, "velocity": 86}, {"time": 1702, "pitch": 62, "duration": 2, "velocity": 37}, {"time": 1704, "pitch": 46, "duration": 20, "velocity": 98}, {"time": 1707, "pitch": 53, "duration": 4, "velocity": 80}, {"time": 1710, "pitch": 58, "duration": 7, "velocity": 101}, {"time": 1713, "pitch": 53, "duration": 4, "velocity": 88}, {"time": 1716, "pitch": 65, "duration": 11, "velocity": 97}, {"time": 1716, "pitch": 62, "duration": 6, "velocity": 94}, {"time": 1719, "pitch": 53, "duration": 4, "velocity": 80}, {"time": 1722, "pitch": 58, "duration": 5, "velocity": 84}, {"time": 1725, "pitch": 53, "duration": 4, "velocity": 89}, {"time": 1728, "pitch": 48, "duration": 17, "velocity": 88}, {"time": 1731, "pitch": 55, "duration": 4, "velocity": 91}, {"time": 1734, "pitch": 60, "duration": 5, "velocity": 84}, {"time": 1737, "pitch": 55, "duration": 4, "velocity": 85}, {"time": 1740, "pitch": 64, "duration": 12, "velocity": 107}, {"time": 1740, "pitch": 67, "duration": 13, "velocity": 109}, {"time": 1744, "pitch": 55, "duration": 5, "velocity": 80}, {"time": 1747, "pitch": 60, "duration": 5, "velocity": 76}, {"time": 1749, "pitch": 48, "duration": 1, "velocity": 84}, {"time": 1752, "pitch": 41, "duration": 20, "velocity": 104}, {"time": 1755, "pitch": 53, "duration": 4, "velocity": 86}, {"time": 1759, "pitch": 57, "duration": 5, "velocity": 97}, {"time": 1761, "pitch": 53, "duration": 5, "velocity": 98}, {"time": 1765, "pitch": 65, "duration": 4, "velocity": 107}, {"time": 1765, "pitch": 60, "duration": 4, "velocity": 109}, {"time": 1767, "pitch": 53, "duration": 3, "velocity": 76}, {"time": 1770, "pitch": 64, "duration": 6, "velocity": 101}, {"time": 1770, "pitch": 60, "duration": 5, "velocity": 84}, {"time": 1770, "pitch": 57, "duration": 3, "velocity": 91}, {"time": 1773, "pitch": 53, "duration": 1, "velocity": 97}, {"time": 1776, "pitch": 46, "duration": 21, "velocity": 104}, {"time": 1779, "pitch": 53, "duration": 4, "velocity": 84}, {"time": 1782, "pitch": 58, "duration": 5, "velocity": 88}, {"time": 1785, "pitch": 53, "duration": 4, "velocity": 84}, {"time": 1788, "pitch": 62, "duration": 12, "velocity": 110}, {"time": 1788, "pitch": 58, "duration": 4, "velocity": 98}, {"time": 1791, "pitch": 53, "duration": 3, "velocity": 92}, {"time": 1794, "pitch": 58, "duration": 9, "velocity": 76}, {"time": 1797, "pitch": 53, "duration": 1, "velocity": 85}, {"time": 1800, "pitch": 46, "duration": 16, "velocity": 104}, {"time": 1803, "pitch": 53, "duration": 3, "velocity": 89}, {"time": 1806, "pitch": 60, "duration": 4, "velocity": 97}, {"time": 1809, "pitch": 53, "duration": 4, "velocity": 91}, {"time": 1812, "pitch": 64, "duration": 4, "velocity": 102}, {"time": 1815, "pitch": 53, "duration": 4, "velocity": 105}, {"time": 1818, "pitch": 72, "duration": 5, "velocity": 109}, {"time": 1821, "pitch": 50, "duration": 1, "velocity": 85}, {"time": 1824, "pitch": 46, "duration": 22, "velocity": 102}, {"time": 1827, "pitch": 53, "duration": 3, "velocity": 91}, {"time": 1830, "pitch": 58, "duration": 4, "velocity": 102}, {"time": 1833, "pitch": 53, "duration": 4, "velocity": 96}, {"time": 1836, "pitch": 58, "duration": 3, "velocity": 105}, {"time": 1836, "pitch": 62, "duration": 4, "velocity": 105}, {"time": 1836, "pitch": 65, "duration": 4, "velocity": 107}, {"time": 1839, "pitch": 53, "duration": 4, "velocity": 98}, {"time": 1845, "pitch": 53, "duration": 1, "velocity": 79}, {"time": 1848, "pitch": 46, "duration": 17, "velocity": 102}, {"time": 1851, "pitch": 53, "duration": 4, "velocity": 80}, {"time": 1854, "pitch": 58, "duration": 7, "velocity": 101}, {"time": 1857, "pitch": 53, "duration": 5, "velocity": 82}, {"time": 1860, "pitch": 65, "duration": 12, "velocity": 103}, {"time": 1860, "pitch": 62, "duration": 12, "velocity": 101}, {"time": 1863, "pitch": 53, "duration": 5, "velocity": 84}, {"time": 1866, "pitch": 58, "duration": 7, "velocity": 96}, {"time": 1869, "pitch": 46, "duration": 1, "velocity": 84}, {"time": 1873, "pitch": 43, "duration": 16, "velocity": 107}, {"time": 1875, "pitch": 50, "duration": 4, "velocity": 85}, {"time": 1879, "pitch": 55, "duration": 4, "velocity": 100}, {"time": 1881, "pitch": 50, "duration": 4, "velocity": 94}, {"time": 1884, "pitch": 58, "duration": 14, "velocity": 112}, {"time": 1885, "pitch": 62, "duration": 12, "velocity": 107}, {"time": 1887, "pitch": 50, "duration": 4, "velocity": 96}, {"time": 1890, "pitch": 55, "duration": 8, "velocity": 96}, {"time": 1893, "pitch": 50, "duration": 1, "velocity": 73}, {"time": 1896, "pitch": 43, "duration": 17, "velocity": 105}, {"time": 1899, "pitch": 50, "duration": 4, "velocity": 89}, {"time": 1902, "pitch": 55, "duration": 7, "velocity": 97}, {"time": 1905, "pitch": 50, "duration": 4, "velocity": 91}, {"time": 1908, "pitch": 60, "duration": 12, "velocity": 109}, {"time": 1911, "pitch": 50, "duration": 5, "velocity": 94}, {"time": 1914, "pitch": 55, "duration": 6, "velocity": 89}, {"time": 1915, "pitch": 64, "duration": 5, "velocity": 104}, {"time": 1917, "pitch": 43, "duration": 1, "velocity": 89}, {"time": 1920, "pitch": 45, "duration": 21, "velocity": 109}, {"time": 1923, "pitch": 52, "duration": 6, "velocity": 86}, {"time": 1926, "pitch": 57, "duration": 4, "velocity": 96}, {"time": 1929, "pitch": 52, "duration": 4, "velocity": 107}, {"time": 1932, "pitch": 60, "duration": 12, "velocity": 121}, {"time": 1932, "pitch": 64, "duration": 12, "velocity": 116}, {"time": 1935, "pitch": 52, "duration": 3, "velocity": 108}, {"time": 1938, "pitch": 57, "duration": 5, "velocity": 88}, {"time": 1941, "pitch": 52, "duration": 1, "velocity": 96}, {"time": 1944, "pitch": 50, "duration": 19, "velocity": 116}, {"time": 1947, "pitch": 57, "duration": 4, "velocity": 98}, {"time": 1950, "pitch": 62, "duration": 4, "velocity": 111}, {"time": 1953, "pitch": 64, "duration": 4, "velocity": 102}, {"time": 1956, "pitch": 65, "duration": 3, "velocity": 109}, {"time": 1956, "pitch": 62, "duration": 10, "velocity": 108}, {"time": 1956, "pitch": 57, "duration": 7, "velocity": 104}, {"time": 1959, "pitch": 69, "duration": 2, "velocity": 95}, {"time": 1962, "pitch": 72, "duration": 3, "velocity": 103}, {"time": 1965, "pitch": 50, "duration": 2, "velocity": 102}, {"time": 1968, "pitch": 50, "duration": 18, "velocity": 87}, {"time": 1971, "pitch": 57, "duration": 3, "velocity": 67}, {"time": 1974, "pitch": 62, "duration": 3, "velocity": 77}, {"time": 1977, "pitch": 57, "duration": 3, "velocity": 63}, {"time": 1980, "pitch": 62, "duration": 3, "velocity": 79}, {"time": 1980, "pitch": 65, "duration": 8, "velocity": 83}, {"time": 1983, "pitch": 57, "duration": 3, "velocity": 76}, {"time": 1986, "pitch": 62, "duration": 6, "velocity": 71}, {"time": 1989, "pitch": 57, "duration": 3, "velocity": 66}, {"time": 1992, "pitch": 50, "duration": 16, "velocity": 83}, {"time": 1995, "pitch": 57, "duration": 3, "velocity": 74}, {"time": 1998, "pitch": 60, "duration": 3, "velocity": 77}, {"time": 2001, "pitch": 57, "duration": 3, "velocity": 67}, {"time": 2004, "pitch": 64, "duration": 3, "velocity": 82}, {"time": 2007, "pitch": 57, "duration": 3, "velocity": 67}, {"time": 2010, "pitch": 62, "duration": 4, "velocity": 77}, {"time": 2010, "pitch": 72, "duration": 2, "velocity": 87}, {"time": 2013, "pitch": 57, "duration": 3, "velocity": 67}, {"time": 2016, "pitch": 48, "duration": 16, "velocity": 91}, {"time": 2019, "pitch": 55, "duration": 3, "velocity": 72}, {"time": 2022, "pitch": 60, "duration": 3, "velocity": 77}, {"time": 2025, "pitch": 55, "duration": 3, "velocity": 75}, {"time": 2028, "pitch": 60, "duration": 3, "velocity": 76}, {"time": 2028, "pitch": 64, "duration": 10, "velocity": 97}, {"time": 2031, "pitch": 55, "duration": 3, "velocity": 77}, {"time": 2034, "pitch": 60, "duration": 4, "velocity": 75}, {"time": 2037, "pitch": 55, "duration": 2, "velocity": 75}, {"time": 2040, "pitch": 50, "duration": 14, "velocity": 87}, {"time": 2043, "pitch": 57, "duration": 3, "velocity": 79}, {"time": 2046, "pitch": 62, "duration": 3, "velocity": 79}, {"time": 2049, "pitch": 57, "duration": 3, "velocity": 73}, {"time": 2052, "pitch": 62, "duration": 3, "velocity": 72}, {"time": 2052, "pitch": 65, "duration": 8, "velocity": 90}, {"time": 2055, "pitch": 57, "duration": 3, "velocity": 70}, {"time": 2058, "pitch": 62, "duration": 5, "velocity": 69}, {"time": 2061, "pitch": 57, "duration": 2, "velocity": 67}, {"time": 2064, "pitch": 46, "duration": 18, "velocity": 96}, {"time": 2067, "pitch": 58, "duration": 3, "velocity": 83}, {"time": 2070, "pitch": 62, "duration": 3, "velocity": 76}, {"time": 2073, "pitch": 58, "duration": 3, "velocity": 75}, {"time": 2076, "pitch": 62, "duration": 3, "velocity": 78}, {"time": 2076, "pitch": 65, "duration": 7, "velocity": 83}, {"time": 2079, "pitch": 58, "duration": 3, "velocity": 76}, {"time": 2082, "pitch": 62, "duration": 5, "velocity": 66}, {"time": 2085, "pitch": 58, "duration": 3, "velocity": 71}, {"time": 2088, "pitch": 46, "duration": 19, "velocity": 103}, {"time": 2091, "pitch": 58, "duration": 3, "velocity": 70}, {"time": 2094, "pitch": 62, "duration": 3, "velocity": 82}, {"time": 2097, "pitch": 58, "duration": 3, "velocity": 73}, {"time": 2100, "pitch": 62, "duration": 2, "velocity": 63}, {"time": 2100, "pitch": 65, "duration": 2, "velocity": 64}, {"time": 2103, "pitch": 58, "duration": 3, "velocity": 79}, {"time": 2106, "pitch": 62, "duration": 4, "velocity": 73}, {"time": 2109, "pitch": 58, "duration": 2, "velocity": 64}, {"time": 2112, "pitch": 48, "duration": 17, "velocity": 94}, {"time": 2115, "pitch": 55, "duration": 3, "velocity": 77}, {"time": 2118, "pitch": 60, "duration": 3, "velocity": 84}, {"time": 2121, "pitch": 55, "duration": 3, "velocity": 79}, {"time": 2124, "pitch": 60, "duration": 3, "velocity": 76}, {"time": 2124, "pitch": 64, "duration": 12, "velocity": 87}, {"time": 2127, "pitch": 55, "duration": 3, "velocity": 78}, {"time": 2130, "pitch": 60, "duration": 6, "velocity": 79}, {"time": 2133, "pitch": 55, "duration": 2, "velocity": 69}, {"time": 2136, "pitch": 45, "duration": 17, "velocity": 95}, {"time": 2139, "pitch": 57, "duration": 3, "velocity": 71}, {"time": 2142, "pitch": 60, "duration": 3, "velocity": 87}, {"time": 2145, "pitch": 57, "duration": 3, "velocity": 77}, {"time": 2148, "pitch": 60, "duration": 3, "velocity": 83}, {"time": 2148, "pitch": 64, "duration": 8, "velocity": 97}, {"time": 2151, "pitch": 57, "duration": 4, "velocity": 82}, {"time": 2154, "pitch": 60, "duration": 4, "velocity": 92}, {"time": 2157, "pitch": 57, "duration": 2, "velocity": 74}, {"time": 2160, "pitch": 50, "duration": 14, "velocity": 92}, {"time": 2163, "pitch": 57, "duration": 3, "velocity": 79}, {"time": 2166, "pitch": 62, "duration": 3, "velocity": 83}, {"time": 2169, "pitch": 57, "duration": 3, "velocity": 77}, {"time": 2172, "pitch": 62, "duration": 3, "velocity": 83}, {"time": 2172, "pitch": 65, "duration": 11, "velocity": 91}, {"time": 2175, "pitch": 57, "duration": 3, "velocity": 71}, {"time": 2178, "pitch": 62, "duration": 6, "velocity": 76}, {"time": 2181, "pitch": 57, "duration": 3, "velocity": 65}, {"time": 2184, "pitch": 50, "duration": 13, "velocity": 92}, {"time": 2187, "pitch": 57, "duration": 3, "velocity": 71}, {"time": 2190, "pitch": 60, "duration": 3, "velocity": 83}, {"time": 2193, "pitch": 57, "duration": 3, "velocity": 75}, {"time": 2196, "pitch": 64, "duration": 3, "velocity": 75}, {"time": 2199, "pitch": 57, "duration": 3, "velocity": 76}, {"time": 2202, "pitch": 62, "duration": 4, "velocity": 76}, {"time": 2202, "pitch": 72, "duration": 2, "velocity": 82}, {"time": 2205, "pitch": 57, "duration": 2, "velocity": 71}, {"time": 2208, "pitch": 46, "duration": 19, "velocity": 97}, {"time": 2211, "pitch": 58, "duration": 3, "velocity": 79}, {"time": 2214, "pitch": 62, "duration": 3, "velocity": 82}, {"time": 2217, "pitch": 58, "duration": 3, "velocity": 72}, {"time": 2220, "pitch": 62, "duration": 3, "velocity": 81}, {"time": 2220, "pitch": 65, "duration": 4, "velocity": 86}, {"time": 2223, "pitch": 58, "duration": 3, "velocity": 87}, {"time": 2226, "pitch": 62, "duration": 4, "velocity": 70}, {"time": 2229, "pitch": 58, "duration": 3, "velocity": 65}, {"time": 2232, "pitch": 46, "duration": 14, "velocity": 103}, {"time": 2235, "pitch": 58, "duration": 3, "velocity": 76}, {"time": 2238, "pitch": 62, "duration": 3, "velocity": 76}, {"time": 2241, "pitch": 58, "duration": 3, "velocity": 73}, {"time": 2244, "pitch": 62, "duration": 3, "velocity": 81}, {"time": 2244, "pitch": 65, "duration": 5, "velocity": 84}, {"time": 2247, "pitch": 58, "duration": 3, "velocity": 81}, {"time": 2250, "pitch": 62, "duration": 3, "velocity": 67}, {"time": 2253, "pitch": 58, "duration": 2, "velocity": 70}, {"time": 2256, "pitch": 43, "duration": 19, "velocity": 103}, {"time": 2259, "pitch": 55, "duration": 3, "velocity": 96}, {"time": 2262, "pitch": 58, "duration": 3, "velocity": 87}, {"time": 2265, "pitch": 55, "duration": 3, "velocity": 83}, {"time": 2268, "pitch": 58, "duration": 3, "velocity": 87}, {"time": 2268, "pitch": 62, "duration": 8, "velocity": 99}, {"time": 2271, "pitch": 55, "duration": 3, "velocity": 71}, {"time": 2274, "pitch": 58, "duration": 5, "velocity": 83}, {"time": 2277, "pitch": 55, "duration": 2, "velocity": 70}, {"time": 2280, "pitch": 48, "duration": 18, "velocity": 92}, {"time": 2283, "pitch": 55, "duration": 1, "velocity": 76}, {"time": 2286, "pitch": 60, "duration": 3, "velocity": 95}, {"time": 2289, "pitch": 55, "duration": 1, "velocity": 84}, {"time": 2292, "pitch": 60, "duration": 3, "velocity": 82}, {"time": 2292, "pitch": 64, "duration": 4, "velocity": 92}, {"time": 2295, "pitch": 55, "duration": 3, "velocity": 77}, {"time": 2298, "pitch": 60, "duration": 4, "velocity": 83}, {"time": 2301, "pitch": 55, "duration": 1, "velocity": 82}, {"time": 2304, "pitch": 45, "duration": 16, "velocity": 110}, {"time": 2307, "pitch": 57, "duration": 3, "velocity": 85}, {"time": 2310, "pitch": 60, "duration": 3, "velocity": 81}, {"time": 2313, "pitch": 57, "duration": 3, "velocity": 76}, {"time": 2316, "pitch": 60, "duration": 3, "velocity": 88}, {"time": 2316, "pitch": 64, "duration": 4, "velocity": 89}, {"time": 2319, "pitch": 57, "duration": 3, "velocity": 75}, {"time": 2322, "pitch": 60, "duration": 5, "velocity": 79}, {"time": 2325, "pitch": 57, "duration": 3, "velocity": 70}, {"time": 2328, "pitch": 50, "duration": 22, "velocity": 94}, {"time": 2331, "pitch": 57, "duration": 3, "velocity": 81}, {"time": 2334, "pitch": 62, "duration": 3, "velocity": 92}, {"time": 2337, "pitch": 57, "duration": 3, "velocity": 79}, {"time": 2340, "pitch": 62, "duration": 3, "velocity": 84}, {"time": 2340, "pitch": 65, "duration": 3, "velocity": 91}, {"time": 2343, "pitch": 57, "duration": 4, "velocity": 83}, {"time": 2346, "pitch": 62, "duration": 3, "velocity": 91}, {"time": 2349, "pitch": 57, "duration": 1, "velocity": 88}, {"time": 2352, "pitch": 50, "duration": 48, "velocity": 86}, {"time": 2358, "pitch": 57, "duration": 41, "velocity": 64}, {"time": 2364, "pitch": 65, "duration": 18, "velocity": 68}, {"time": 2370, "pitch": 62, "duration": 8, "velocity": 59}, {"time": 2376, "pitch": 69, "duration": 11, "velocity": 72}, {"time": 2382, "pitch": 62, "duration": 14, "velocity": 56}, {"time": 2382, "pitch": 65, "duration": 1, "velocity": 74}, {"time": 2388, "pitch": 64, "duration": 6, "velocity": 70}, {"time": 2388, "pitch": 64, "duration": 6, "velocity": 75}, {"time": 2394, "pitch": 72, "duration": 5, "velocity": 68}, {"time": 2394, "pitch": 72, "duration": 5, "velocity": 73}, {"time": 2400, "pitch": 48, "duration": 20, "velocity": 86}, {"time": 2406, "pitch": 55, "duration": 19, "velocity": 53}, {"time": 2412, "pitch": 64, "duration": 6, "velocity": 63}, {"time": 2412, "pitch": 67, "duration": 6, "velocity": 70}, {"time": 2418, "pitch": 60, "duration": 5, "velocity": 54}, {"time": 2424, "pitch": 50, "duration": 24, "velocity": 74}, {"time": 2424, "pitch": 65, "duration": 10, "velocity": 64}, {"time": 2424, "pitch": 69, "duration": 10, "velocity": 65}, {"time": 2430, "pitch": 57, "duration": 18, "velocity": 54}, {"time": 2436, "pitch": 65, "duration": 10, "velocity": 60}, {"time": 2436, "pitch": 69, "duration": 10, "velocity": 68}, {"time": 2442, "pitch": 62, "duration": 5, "velocity": 44}, {"time": 2448, "pitch": 46, "duration": 43, "velocity": 58}, {"time": 2454, "pitch": 58, "duration": 8, "velocity": 57}, {"time": 2460, "pitch": 62, "duration": 11, "velocity": 61}, {"time": 2466, "pitch": 58, "duration": 22, "velocity": 52}, {"time": 2472, "pitch": 62, "duration": 10, "velocity": 53}, {"time": 2472, "pitch": 65, "duration": 8, "velocity": 65}, {"time": 2484, "pitch": 62, "duration": 12, "velocity": 59}, {"time": 2484, "pitch": 65, "duration": 12, "velocity": 76}, {"time": 2484, "pitch": 70, "duration": 12, "velocity": 68}, {"time": 2496, "pitch": 43, "duration": 19, "velocity": 65}, {"time": 2496, "pitch": 58, "duration": 10, "velocity": 63}, {"time": 2496, "pitch": 62, "duration": 1, "velocity": 73}, {"time": 2502, "pitch": 50, "duration": 16, "velocity": 69}, {"time": 2508, "pitch": 58, "duration": 6, "velocity": 73}, {"time": 2514, "pitch": 62, "duration": 6, "velocity": 75}, {"time": 2520, "pitch": 45, "duration": 20, "velocity": 66}, {"time": 2520, "pitch": 60, "duration": 9, "velocity": 60}, {"time": 2520, "pitch": 64, "duration": 9, "velocity": 70}, {"time": 2526, "pitch": 52, "duration": 15, "velocity": 65}, {"time": 2532, "pitch": 62, "duration": 6, "velocity": 74}, {"time": 2538, "pitch": 64, "duration": 5, "velocity": 77}, {"time": 2544, "pitch": 50, "duration": 20, "velocity": 87}, {"time": 2550, "pitch": 57, "duration": 19, "velocity": 65}, {"time": 2556, "pitch": 65, "duration": 7, "velocity": 74}, {"time": 2562, "pitch": 69, "duration": 17, "velocity": 71}, {"time": 2568, "pitch": 48, "duration": 24, "velocity": 85}, {"time": 2574, "pitch": 57, "duration": 17, "velocity": 64}, {"time": 2574, "pitch": 60, "duration": 20, "velocity": 60}, {"time": 2580, "pitch": 64, "duration": 6, "velocity": 64}, {"time": 2586, "pitch": 72, "duration": 9, "velocity": 58}, {"time": 2592, "pitch": 46, "duration": 37, "velocity": 76}, {"time": 2598, "pitch": 50, "duration": 7, "velocity": 74}, {"time": 2601, "pitch": 53, "duration": 26, "velocity": 61}, {"time": 2607, "pitch": 50, "duration": 19, "velocity": 9}, {"time": 2607, "pitch": 62, "duration": 17, "velocity": 59}, {"time": 2616, "pitch": 70, "duration": 10, "velocity": 62}, {"time": 2628, "pitch": 62, "duration": 13, "velocity": 63}, {"time": 2628, "pitch": 70, "duration": 13, "velocity": 61}, {"time": 2640, "pitch": 43, "duration": 42, "velocity": 69}, {"time": 2640, "pitch": 58, "duration": 11, "velocity": 60}, {"time": 2640, "pitch": 62, "duration": 1, "velocity": 62}, {"time": 2646, "pitch": 50, "duration": 41, "velocity": 59}, {"time": 2652, "pitch": 58, "duration": 11, "velocity": 60}, {"time": 2652, "pitch": 62, "duration": 8, "velocity": 67}, {"time": 2658, "pitch": 55, "duration": 9, "velocity": 43}, {"time": 2664, "pitch": 58, "duration": 10, "velocity": 63}, {"time": 2664, "pitch": 62, "duration": 9, "velocity": 68}, {"time": 2670, "pitch": 55, "duration": 8, "velocity": 55}, {"time": 2676, "pitch": 58, "duration": 7, "velocity": 67}, {"time": 2676, "pitch": 62, "duration": 6, "velocity": 74}, {"time": 2682, "pitch": 55, "duration": 5, "velocity": 50}, {"time": 2688, "pitch": 45, "duration": 19, "velocity": 67}, {"time": 2694, "pitch": 52, "duration": 15, "velocity": 69}, {"time": 2700, "pitch": 57, "duration": 12, "velocity": 64}, {"time": 2700, "pitch": 65, "duration": 5, "velocity": 85}, {"time": 2706, "pitch": 64, "duration": 6, "velocity": 63}, {"time": 2712, "pitch": 50, "duration": 22, "velocity": 81}, {"time": 2712, "pitch": 62, "duration": 6, "velocity": 64}, {"time": 2718, "pitch": 57, "duration": 17, "velocity": 65}, {"time": 2724, "pitch": 62, "duration": 9, "velocity": 60}, {"time": 2727, "pitch": 64, "duration": 4, "velocity": 67}, {"time": 2730, "pitch": 65, "duration": 4, "velocity": 85}, {"time": 2733, "pitch": 69, "duration": 3, "velocity": 85}, {"time": 2736, "pitch": 50, "duration": 20, "velocity": 64}, {"time": 2739, "pitch": 57, "duration": 5, "velocity": 61}, {"time": 2742, "pitch": 62, "duration": 4, "velocity": 69}, {"time": 2745, "pitch": 57, "duration": 4, "velocity": 80}, {"time": 2748, "pitch": 65, "duration": 6, "velocity": 84}, {"time": 2748, "pitch": 69, "duration": 5, "velocity": 80}, {"time": 2751, "pitch": 62, "duration": 6, "velocity": 58}, {"time": 2754, "pitch": 57, "duration": 3, "velocity": 58}, {"time": 2757, "pitch": 65, "duration": 5, "velocity": 56}, {"time": 2757, "pitch": 69, "duration": 3, "velocity": 52}, {"time": 2760, "pitch": 50, "duration": 17, "velocity": 100}, {"time": 2763, "pitch": 57, "duration": 3, "velocity": 76}, {"time": 2766, "pitch": 60, "duration": 4, "velocity": 80}, {"time": 2769, "pitch": 57, "duration": 4, "velocity": 80}, {"time": 2772, "pitch": 64, "duration": 12, "velocity": 104}, {"time": 2775, "pitch": 57, "duration": 6, "velocity": 79}, {"time": 2778, "pitch": 72, "duration": 10, "velocity": 101}, {"time": 2781, "pitch": 50, "duration": 4, "velocity": 84}, {"time": 2784, "pitch": 48, "duration": 21, "velocity": 94}, {"time": 2787, "pitch": 55, "duration": 3, "velocity": 76}, {"time": 2790, "pitch": 60, "duration": 6, "velocity": 85}, {"time": 2793, "pitch": 55, "duration": 4, "velocity": 89}, {"time": 2796, "pitch": 64, "duration": 7, "velocity": 107}, {"time": 2796, "pitch": 67, "duration": 11, "velocity": 106}, {"time": 2799, "pitch": 55, "duration": 6, "velocity": 56}, {"time": 2802, "pitch": 60, "duration": 4, "velocity": 84}, {"time": 2805, "pitch": 64, "duration": 4, "velocity": 78}, {"time": 2808, "pitch": 50, "duration": 19, "velocity": 89}, {"time": 2811, "pitch": 57, "duration": 3, "velocity": 84}, {"time": 2814, "pitch": 62, "duration": 4, "velocity": 88}, {"time": 2817, "pitch": 57, "duration": 3, "velocity": 85}, {"time": 2820, "pitch": 65, "duration": 6, "velocity": 104}, {"time": 2820, "pitch": 69, "duration": 5, "velocity": 100}, {"time": 2823, "pitch": 57, "duration": 8, "velocity": 93}, {"time": 2826, "pitch": 62, "duration": 4, "velocity": 84}, {"time": 2829, "pitch": 65, "duration": 4, "velocity": 83}, {"time": 2832, "pitch": 46, "duration": 16, "velocity": 97}, {"time": 2835, "pitch": 53, "duration": 3, "velocity": 80}, {"time": 2838, "pitch": 58, "duration": 6, "velocity": 96}, {"time": 2841, "pitch": 53, "duration": 4, "velocity": 84}, {"time": 2844, "pitch": 62, "duration": 7, "velocity": 94}, {"time": 2844, "pitch": 65, "duration": 13, "velocity": 96}, {"time": 2847, "pitch": 58, "duration": 2, "velocity": 84}, {"time": 2850, "pitch": 53, "duration": 3, "velocity": 84}, {"time": 2853, "pitch": 58, "duration": 5, "velocity": 86}, {"time": 2853, "pitch": 62, "duration": 2, "velocity": 37}, {"time": 2856, "pitch": 46, "duration": 19, "velocity": 98}, {"time": 2859, "pitch": 53, "duration": 3, "velocity": 80}, {"time": 2862, "pitch": 58, "duration": 6, "velocity": 101}, {"time": 2865, "pitch": 53, "duration": 4, "velocity": 88}, {"time": 2868, "pitch": 62, "duration": 6, "velocity": 94}, {"time": 2868, "pitch": 65, "duration": 11, "velocity": 97}, {"time": 2871, "pitch": 53, "duration": 4, "velocity": 80}, {"time": 2874, "pitch": 58, "duration": 5, "velocity": 84}, {"time": 2877, "pitch": 53, "duration": 4, "velocity": 89}, {"time": 2880, "pitch": 48, "duration": 17, "velocity": 88}, {"time": 2883, "pitch": 55, "duration": 4, "velocity": 91}, {"time": 2886, "pitch": 60, "duration": 5, "velocity": 84}, {"time": 2889, "pitch": 55, "duration": 4, "velocity": 85}, {"time": 2892, "pitch": 64, "duration": 12, "velocity": 107}, {"time": 2892, "pitch": 67, "duration": 12, "velocity": 109}, {"time": 2895, "pitch": 55, "duration": 5, "velocity": 80}, {"time": 2898, "pitch": 60, "duration": 6, "velocity": 76}, {"time": 2901, "pitch": 48, "duration": 1, "velocity": 84}, {"time": 2904, "pitch": 41, "duration": 20, "velocity": 87}, {"time": 2907, "pitch": 53, "duration": 4, "velocity": 86}, {"time": 2910, "pitch": 57, "duration": 6, "velocity": 97}, {"time": 2913, "pitch": 53, "duration": 4, "velocity": 98}, {"time": 2916, "pitch": 60, "duration": 4, "velocity": 109}, {"time": 2916, "pitch": 65, "duration": 5, "velocity": 107}, {"time": 2919, "pitch": 53, "duration": 3, "velocity": 76}, {"time": 2922, "pitch": 57, "duration": 3, "velocity": 91}, {"time": 2922, "pitch": 60, "duration": 5, "velocity": 84}, {"time": 2922, "pitch": 64, "duration": 6, "velocity": 101}, {"time": 2925, "pitch": 53, "duration": 1, "velocity": 97}, {"time": 2928, "pitch": 46, "duration": 21, "velocity": 104}, {"time": 2931, "pitch": 53, "duration": 3, "velocity": 84}, {"time": 2934, "pitch": 58, "duration": 4, "velocity": 88}, {"time": 2937, "pitch": 53, "duration": 4, "velocity": 84}, {"time": 2940, "pitch": 58, "duration": 3, "velocity": 98}, {"time": 2940, "pitch": 62, "duration": 12, "velocity": 110}, {"time": 2943, "pitch": 53, "duration": 3, "velocity": 92}, {"time": 2946, "pitch": 58, "duration": 9, "velocity": 76}, {"time": 2949, "pitch": 53, "duration": 1, "velocity": 85}, {"time": 2952, "pitch": 46, "duration": 16, "velocity": 104}, {"time": 2955, "pitch": 53, "duration": 3, "velocity": 89}, {"time": 2958, "pitch": 60, "duration": 3, "velocity": 97}, {"time": 2961, "pitch": 53, "duration": 4, "velocity": 91}, {"time": 2964, "pitch": 64, "duration": 3, "velocity": 102}, {"time": 2967, "pitch": 53, "duration": 4, "velocity": 105}, {"time": 2970, "pitch": 72, "duration": 5, "velocity": 109}, {"time": 2973, "pitch": 50, "duration": 1, "velocity": 85}, {"time": 2976, "pitch": 46, "duration": 22, "velocity": 102}, {"time": 2979, "pitch": 53, "duration": 3, "velocity": 91}, {"time": 2982, "pitch": 58, "duration": 4, "velocity": 102}, {"time": 2985, "pitch": 53, "duration": 4, "velocity": 96}, {"time": 2988, "pitch": 58, "duration": 3, "velocity": 105}, {"time": 2988, "pitch": 62, "duration": 4, "velocity": 105}, {"time": 2988, "pitch": 65, "duration": 4, "velocity": 107}, {"time": 2991, "pitch": 53, "duration": 4, "velocity": 98}, {"time": 2997, "pitch": 53, "duration": 2, "velocity": 79}, {"time": 3000, "pitch": 46, "duration": 17, "velocity": 102}, {"time": 3003, "pitch": 53, "duration": 4, "velocity": 80}, {"time": 3006, "pitch": 58, "duration": 7, "velocity": 101}, {"time": 3009, "pitch": 53, "duration": 4, "velocity": 82}, {"time": 3012, "pitch": 62, "duration": 12, "velocity": 101}, {"time": 3012, "pitch": 65, "duration": 12, "velocity": 103}, {"time": 3015, "pitch": 53, "duration": 5, "velocity": 84}, {"time": 3018, "pitch": 58, "duration": 7, "velocity": 96}, {"time": 3021, "pitch": 46, "duration": 1, "velocity": 84}, {"time": 3024, "pitch": 43, "duration": 17, "velocity": 107}, {"time": 3027, "pitch": 50, "duration": 3, "velocity": 85}, {"time": 3030, "pitch": 55, "duration": 4, "velocity": 100}, {"time": 3033, "pitch": 50, "duration": 4, "velocity": 94}, {"time": 3036, "pitch": 58, "duration": 14, "velocity": 112}, {"time": 3036, "pitch": 62, "duration": 13, "velocity": 107}, {"time": 3039, "pitch": 50, "duration": 4, "velocity": 96}, {"time": 3042, "pitch": 55, "duration": 7, "velocity": 96}, {"time": 3045, "pitch": 50, "duration": 1, "velocity": 73}, {"time": 3048, "pitch": 43, "duration": 17, "velocity": 105}, {"time": 3051, "pitch": 50, "duration": 3, "velocity": 89}, {"time": 3054, "pitch": 55, "duration": 7, "velocity": 97}, {"time": 3057, "pitch": 50, "duration": 4, "velocity": 91}, {"time": 3060, "pitch": 60, "duration": 12, "velocity": 109}, {"time": 3063, "pitch": 50, "duration": 5, "velocity": 94}, {"time": 3066, "pitch": 55, "duration": 5, "velocity": 89}, {"time": 3066, "pitch": 64, "duration": 5, "velocity": 104}, {"time": 3069, "pitch": 43, "duration": 1, "velocity": 89}, {"time": 3072, "pitch": 45, "duration": 21, "velocity": 109}, {"time": 3075, "pitch": 52, "duration": 7, "velocity": 86}, {"time": 3078, "pitch": 57, "duration": 5, "velocity": 96}, {"time": 3084, "pitch": 52, "duration": 2, "velocity": 107}, {"time": 3084, "pitch": 60, "duration": 12, "velocity": 121}, {"time": 3084, "pitch": 64, "duration": 11, "velocity": 116}, {"time": 3087, "pitch": 52, "duration": 2, "velocity": 108}, {"time": 3090, "pitch": 57, "duration": 4, "velocity": 88}, {"time": 3093, "pitch": 52, "duration": 1, "velocity": 96}, {"time": 3096, "pitch": 50, "duration": 18, "velocity": 116}, {"time": 3099, "pitch": 57, "duration": 4, "velocity": 98}, {"time": 3102, "pitch": 62, "duration": 4, "velocity": 111}, {"time": 3105, "pitch": 64, "duration": 3, "velocity": 102}, {"time": 3108, "pitch": 57, "duration": 6, "velocity": 104}, {"time": 3108, "pitch": 62, "duration": 10, "velocity": 108}, {"time": 3108, "pitch": 65, "duration": 3, "velocity": 109}, {"time": 3111, "pitch": 69, "duration": 1, "velocity": 95}, {"time": 3114, "pitch": 72, "duration": 2, "velocity": 103}, {"time": 3117, "pitch": 50, "duration": 2, "velocity": 102}, {"time": 3120, "pitch": 50, "duration": 20, "velocity": 81}, {"time": 3123, "pitch": 57, "duration": 5, "velocity": 78}, {"time": 3126, "pitch": 62, "duration": 4, "velocity": 86}, {"time": 3129, "pitch": 57, "duration": 4, "velocity": 97}, {"time": 3132, "pitch": 65, "duration": 6, "velocity": 101}, {"time": 3132, "pitch": 69, "duration": 5, "velocity": 97}, {"time": 3135, "pitch": 62, "duration": 6, "velocity": 75}, {"time": 3138, "pitch": 57, "duration": 3, "velocity": 75}, {"time": 3141, "pitch": 65, "duration": 5, "velocity": 73}, {"time": 3141, "pitch": 69, "duration": 3, "velocity": 69}, {"time": 3144, "pitch": 50, "duration": 17, "velocity": 85}, {"time": 3147, "pitch": 57, "duration": 3, "velocity": 76}, {"time": 3150, "pitch": 60, "duration": 4, "velocity": 80}, {"time": 3153, "pitch": 57, "duration": 4, "velocity": 80}, {"time": 3156, "pitch": 64, "duration": 12, "velocity": 104}, {"time": 3159, "pitch": 57, "duration": 6, "velocity": 79}, {"time": 3162, "pitch": 72, "duration": 10, "velocity": 101}, {"time": 3165, "pitch": 50, "duration": 4, "velocity": 84}, {"time": 3168, "pitch": 48, "duration": 21, "velocity": 94}, {"time": 3171, "pitch": 55, "duration": 3, "velocity": 76}, {"time": 3174, "pitch": 60, "duration": 6, "velocity": 85}, {"time": 3177, "pitch": 55, "duration": 4, "velocity": 89}, {"time": 3180, "pitch": 64, "duration": 7, "velocity": 107}, {"time": 3180, "pitch": 67, "duration": 11, "velocity": 106}, {"time": 3183, "pitch": 55, "duration": 6, "velocity": 56}, {"time": 3186, "pitch": 60, "duration": 4, "velocity": 84}, {"time": 3189, "pitch": 64, "duration": 4, "velocity": 78}, {"time": 3192, "pitch": 50, "duration": 19, "velocity": 89}, {"time": 3195, "pitch": 57, "duration": 3, "velocity": 84}, {"time": 3198, "pitch": 62, "duration": 4, "velocity": 88}, {"time": 3201, "pitch": 57, "duration": 3, "velocity": 85}, {"time": 3204, "pitch": 65, "duration": 6, "velocity": 104}, {"time": 3204, "pitch": 69, "duration": 5, "velocity": 100}, {"time": 3207, "pitch": 57, "duration": 8, "velocity": 93}, {"time": 3210, "pitch": 62, "duration": 4, "velocity": 84}, {"time": 3213, "pitch": 65, "duration": 4, "velocity": 83}, {"time": 3216, "pitch": 46, "duration": 16, "velocity": 97}, {"time": 3219, "pitch": 53, "duration": 3, "velocity": 80}, {"time": 3222, "pitch": 58, "duration": 6, "velocity": 96}, {"time": 3225, "pitch": 53, "duration": 4, "velocity": 84}, {"time": 3228, "pitch": 62, "duration": 7, "velocity": 94}, {"time": 3228, "pitch": 65, "duration": 13, "velocity": 96}, {"time": 3231, "pitch": 58, "duration": 2, "velocity": 84}, {"time": 3234, "pitch": 53, "duration": 3, "velocity": 84}, {"time": 3237, "pitch": 58, "duration": 5, "velocity": 86}, {"time": 3237, "pitch": 62, "duration": 2, "velocity": 37}, {"time": 3240, "pitch": 46, "duration": 19, "velocity": 98}, {"time": 3243, "pitch": 53, "duration": 3, "velocity": 80}, {"time": 3246, "pitch": 58, "duration": 6, "velocity": 101}, {"time": 3249, "pitch": 53, "duration": 4, "velocity": 88}, {"time": 3252, "pitch": 62, "duration": 6, "velocity": 94}, {"time": 3252, "pitch": 65, "duration": 11, "velocity": 97}, {"time": 3255, "pitch": 53, "duration": 4, "velocity": 80}, {"time": 3258, "pitch": 58, "duration": 5, "velocity": 84}, {"time": 3261, "pitch": 53, "duration": 4, "velocity": 89}, {"time": 3264, "pitch": 48, "duration": 17, "velocity": 88}, {"time": 3267, "pitch": 55, "duration": 4, "velocity": 91}, {"time": 3270, "pitch": 60, "duration": 5, "velocity": 84}, {"time": 3273, "pitch": 55, "duration": 4, "velocity": 85}, {"time": 3276, "pitch": 64, "duration": 12, "velocity": 107}, {"time": 3276, "pitch": 67, "duration": 12, "velocity": 109}, {"time": 3279, "pitch": 55, "duration": 5, "velocity": 80}, {"time": 3282, "pitch": 60, "duration": 6, "velocity": 76}, {"time": 3285, "pitch": 48, "duration": 1, "velocity": 84}, {"time": 3288, "pitch": 41, "duration": 20, "velocity": 104}, {"time": 3291, "pitch": 53, "duration": 4, "velocity": 86}, {"time": 3294, "pitch": 57, "duration": 6, "velocity": 97}, {"time": 3297, "pitch": 53, "duration": 4, "velocity": 98}, {"time": 3300, "pitch": 60, "duration": 4, "velocity": 109}, {"time": 3300, "pitch": 65, "duration": 5, "velocity": 107}, {"time": 3303, "pitch": 53, "duration": 3, "velocity": 76}, {"time": 3306, "pitch": 57, "duration": 3, "velocity": 91}, {"time": 3306, "pitch": 60, "duration": 5, "velocity": 84}, {"time": 3306, "pitch": 64, "duration": 6, "velocity": 101}, {"time": 3309, "pitch": 53, "duration": 1, "velocity": 97}, {"time": 3312, "pitch": 46, "duration": 21, "velocity": 104}, {"time": 3315, "pitch": 53, "duration": 3, "velocity": 84}, {"time": 3318, "pitch": 58, "duration": 4, "velocity": 88}, {"time": 3321, "pitch": 53, "duration": 4, "velocity": 84}, {"time": 3324, "pitch": 58, "duration": 3, "velocity": 98}, {"time": 3324, "pitch": 62, "duration": 12, "velocity": 110}, {"time": 3327, "pitch": 53, "duration": 3, "velocity": 92}, {"time": 3330, "pitch": 58, "duration": 9, "velocity": 76}, {"time": 3333, "pitch": 53, "duration": 1, "velocity": 85}, {"time": 3336, "pitch": 46, "duration": 16, "velocity": 104}, {"time": 3339, "pitch": 53, "duration": 3, "velocity": 89}, {"time": 3342, "pitch": 60, "duration": 3, "velocity": 97}, {"time": 3345, "pitch": 53, "duration": 4, "velocity": 91}, {"time": 3348, "pitch": 64, "duration": 3, "velocity": 102}, {"time": 3351, "pitch": 53, "duration": 4, "velocity": 105}, {"time": 3354, "pitch": 72, "duration": 5, "velocity": 109}, {"time": 3357, "pitch": 50, "duration": 1, "velocity": 85}, {"time": 3360, "pitch": 46, "duration": 22, "velocity": 102}, {"time": 3363, "pitch": 53, "duration": 3, "velocity": 91}, {"time": 3366, "pitch": 58, "duration": 4, "velocity": 102}, {"time": 3369, "pitch": 53, "duration": 4, "velocity": 96}, {"time": 3372, "pitch": 58, "duration": 3, "velocity": 105}, {"time": 3372, "pitch": 62, "duration": 4, "velocity": 105}, {"time": 3372, "pitch": 65, "duration": 4, "velocity": 107}, {"time": 3375, "pitch": 53, "duration": 4, "velocity": 98}, {"time": 3381, "pitch": 53, "duration": 2, "velocity": 79}, {"time": 3384, "pitch": 46, "duration": 17, "velocity": 102}, {"time": 3387, "pitch": 53, "duration": 4, "velocity": 80}, {"time": 3390, "pitch": 58, "duration": 7, "velocity": 101}, {"time": 3393, "pitch": 53, "duration": 4, "velocity": 82}, {"time": 3396, "pitch": 62, "duration": 12, "velocity": 101}, {"time": 3396, "pitch": 65, "duration": 12, "velocity": 103}, {"time": 3399, "pitch": 53, "duration": 5, "velocity": 84}, {"time": 3402, "pitch": 58, "duration": 7, "velocity": 96}, {"time": 3405, "pitch": 46, "duration": 1, "velocity": 84}, {"time": 3408, "pitch": 43, "duration": 17, "velocity": 107}, {"time": 3411, "pitch": 50, "duration": 3, "velocity": 85}, {"time": 3414, "pitch": 55, "duration": 4, "velocity": 100}, {"time": 3417, "pitch": 50, "duration": 4, "velocity": 94}, {"time": 3420, "pitch": 58, "duration": 14, "velocity": 112}, {"time": 3420, "pitch": 62, "duration": 13, "velocity": 107}, {"time": 3423, "pitch": 50, "duration": 4, "velocity": 96}, {"time": 3426, "pitch": 55, "duration": 7, "velocity": 96}, {"time": 3429, "pitch": 50, "duration": 1, "velocity": 73}, {"time": 3432, "pitch": 43, "duration": 17, "velocity": 105}, {"time": 3435, "pitch": 50, "duration": 3, "velocity": 89}, {"time": 3438, "pitch": 55, "duration": 7, "velocity": 97}, {"time": 3441, "pitch": 50, "duration": 4, "velocity": 91}, {"time": 3444, "pitch": 60, "duration": 12, "velocity": 109}, {"time": 3447, "pitch": 50, "duration": 5, "velocity": 94}, {"time": 3450, "pitch": 55, "duration": 5, "velocity": 89}, {"time": 3450, "pitch": 64, "duration": 5, "velocity": 104}, {"time": 3453, "pitch": 43, "duration": 1, "velocity": 89}, {"time": 3456, "pitch": 45, "duration": 21, "velocity": 109}, {"time": 3459, "pitch": 52, "duration": 7, "velocity": 86}, {"time": 3462, "pitch": 57, "duration": 5, "velocity": 96}, {"time": 3465, "pitch": 52, "duration": 1, "velocity": 107}, {"time": 3468, "pitch": 60, "duration": 14, "velocity": 121}, {"time": 3468, "pitch": 64, "duration": 13, "velocity": 116}, {"time": 3471, "pitch": 52, "duration": 4, "velocity": 108}, {"time": 3474, "pitch": 57, "duration": 7, "velocity": 88}, {"time": 3477, "pitch": 52, "duration": 3, "velocity": 96}, {"time": 3480, "pitch": 50, "duration": 18, "velocity": 116}, {"time": 3483, "pitch": 57, "duration": 4, "velocity": 98}, {"time": 3486, "pitch": 62, "duration": 4, "velocity": 111}, {"time": 3489, "pitch": 64, "duration": 3, "velocity": 102}, {"time": 3492, "pitch": 57, "duration": 6, "velocity": 104}, {"time": 3492, "pitch": 62, "duration": 10, "velocity": 108}, {"time": 3492, "pitch": 65, "duration": 3, "velocity": 109}, {"time": 3495, "pitch": 69, "duration": 1, "velocity": 95}, {"time": 3498, "pitch": 72, "duration": 2, "velocity": 103}, {"time": 3501, "pitch": 50, "duration": 2, "velocity": 102}, {"time": 3504, "pitch": 43, "duration": 13, "velocity": 77}, {"time": 3504, "pitch": 58, "duration": 6, "velocity": 64}, {"time": 3504, "pitch": 62, "duration": 5, "velocity": 59}, {"time": 3513, "pitch": 55, "duration": 3, "velocity": 40}, {"time": 3516, "pitch": 58, "duration": 10, "velocity": 65}, {"time": 3516, "pitch": 62, "duration": 10, "velocity": 79}, {"time": 3522, "pitch": 55, "duration": 8, "velocity": 41}, {"time": 3528, "pitch": 58, "duration": 9, "velocity": 67}, {"time": 3528, "pitch": 62, "duration": 9, "velocity": 83}, {"time": 3534, "pitch": 55, "duration": 6, "velocity": 50}, {"time": 3540, "pitch": 58, "duration": 7, "velocity": 74}, {"time": 3540, "pitch": 62, "duration": 6, "velocity": 75}, {"time": 3546, "pitch": 55, "duration": 5, "velocity": 57}, {"time": 3552, "pitch": 45, "duration": 19, "velocity": 67}, {"time": 3552, "pitch": 60, "duration": 10, "velocity": 63}, {"time": 3552, "pitch": 64, "duration": 10, "velocity": 67}, {"time": 3558, "pitch": 52, "duration": 18, "velocity": 56}, {"time": 3564, "pitch": 60, "duration": 12, "velocity": 73}, {"time": 3564, "pitch": 64, "duration": 7, "velocity": 76}, {"time": 3570, "pitch": 57, "duration": 6, "velocity": 59}, {"time": 3576, "pitch": 50, "duration": 24, "velocity": 64}, {"time": 3576, "pitch": 62, "duration": 11, "velocity": 60}, {"time": 3576, "pitch": 65, "duration": 11, "velocity": 70}, {"time": 3588, "pitch": 62, "duration": 4, "velocity": 71}, {"time": 3588, "pitch": 65, "duration": 4, "velocity": 75}, {"time": 3594, "pitch": 62, "duration": 2, "velocity": 66}, {"time": 3597, "pitch": 65, "duration": 2, "velocity": 73}, {"time": 3600, "pitch": 57, "duration": 4, "velocity": 67}, {"time": 3603, "pitch": 62, "duration": 3, "velocity": 62}, {"time": 3606, "pitch": 64, "duration": 3, "velocity": 65}, {"time": 3609, "pitch": 65, "duration": 4, "velocity": 77}, {"time": 3612, "pitch": 67, "duration": 9, "velocity": 86}, {"time": 3618, "pitch": 69, "duration": 5, "velocity": 64}, {"time": 3623, "pitch": 62, "duration": 17, "velocity": 61}, {"time": 3624, "pitch": 65, "duration": 13, "velocity": 52}, {"time": 3625, "pitch": 69, "duration": 11, "velocity": 67}, {"time": 3626, "pitch": 74, "duration": 16, "velocity": 77}], "annotations": [{"time": 13, "annotation": {"number": 64, "value": 88}, "group": "control_change"}, {"time": 1200, "annotation": {"number": 64, "value": 0}, "group": "control_change"}, {"time": 1202, "annotation": {"number": 64, "value": 71}, "group": "control_change"}, {"time": 1202, "annotation": {"number": 64, "value": 127}, "group": "control_change"}, {"time": 1225, "annotation": {"number": 64, "value": 71}, "group": "control_change"}, {"time": 1225, "annotation": {"number": 64, "value": 0}, "group": "control_change"}, {"time": 1228, "annotation": {"number": 64, "value": 71}, "group": "control_change"}, {"time": 1229, "annotation": {"number": 64, "value": 127}, "group": "control_change"}, {"time": 1249, "annotation": {"number": 64, "value": 71}, "group": "control_change"}, {"time": 1249, "annotation": {"number": 64, "value": 0}, "group": "control_change"}, {"time": 1253, "annotation": {"number": 64, "value": 71}, "group": "control_change"}, {"time": 1255, "annotation": {"number": 64, "value": 127}, "group": "control_change"}, {"time": 1273, "annotation": {"number": 64, "value": 71}, "group": "control_change"}, {"time": 1273, "annotation": {"number": 64, "value": 0}, "group": "control_change"}, {"time": 1278, "annotation": {"number": 64, "value": 71}, "group": "control_change"}, {"time": 1279, "annotation": {"number": 64, "value": 127}, "group": "control_change"}, {"time": 1297, "annotation": {"number": 64, "value": 71}, "group": "control_change"}, {"time": 1298, "annotation": {"number": 64, "value": 0}, "group": "control_change"}, {"time": 1301, "annotation": {"number": 64, "value": 71}, "group": "control_change"}, {"time": 1302, "annotation": {"number": 64, "value": 127}, "group": "control_change"}, {"time": 1320, "annotation": {"number": 64, "value": 71}, "group": "control_change"}, {"time": 1321, "annotation": {"number": 64, "value": 0}, "group": "control_change"}, {"time": 1324, "annotation": {"number": 64, "value": 71}, "group": "control_change"}, {"time": 1325, "annotation": {"number": 64, "value": 127}, "group": "control_change"}, {"time": 1345, "annotation": {"number": 64, "value": 71}, "group": "control_change"}, {"time": 1345, "annotation": {"number": 64, "value": 0}, "group": "control_change"}, {"time": 1350, "annotation": {"number": 64, "value": 71}, "group": "control_change"}, {"time": 1351, "annotation": {"number": 64, "value": 127}, "group": "control_change"}, {"time": 1369, "annotation": {"number": 64, "value": 71}, "group": "control_change"}, {"time": 1369, "annotation": {"number": 64, "value": 0}, "group": "control_change"}, {"time": 1375, "annotation": {"number": 64, "value": 71}, "group": "control_change"}, {"time": 1375, "annotation": {"number": 64, "value": 127}, "group": "control_change"}, {"time": 1386, "annotation": {"number": 64, "value": 71}, "group": "control_change"}, {"time": 1386, "annotation": {"number": 64, "value": 127}, "group": "control_change"}, {"time": 1393, "annotation": {"number": 64, "value": 71}, "group": "control_change"}, {"time": 1393, "annotation": {"number": 64, "value": 0}, "group": "control_change"}, {"time": 1397, "annotation": {"number": 64, "value": 71}, "group": "control_change"}, {"time": 1398, "annotation": {"number": 64, "value": 127}, "group": "control_change"}, {"time": 1417, "annotation": {"number": 64, "value": 71}, "group": "control_change"}, {"time": 1417, "annotation": {"number": 64, "value": 0}, "group": "control_change"}, {"time": 1419, "annotation": {"number": 64, "value": 71}, "group": "control_change"}, {"time": 1420, "annotation": {"number": 64, "value": 127}, "group": "control_change"}, {"time": 1440, "annotation": {"number": 64, "value": 71}, "group": "control_change"}, {"time": 1441, "annotation": {"number": 64, "value": 0}, "group": "control_change"}, {"time": 1444, "annotation": {"number": 64, "value": 71}, "group": "control_change"}, {"time": 1444, "annotation": {"number": 64, "value": 127}, "group": "control_change"}, {"time": 1465, "annotation": {"number": 64, "value": 71}, "group": "control_change"}, {"time": 1466, "annotation": {"number": 64, "value": 0}, "group": "control_change"}, {"time": 1469, "annotation": {"number": 64, "value": 71}, "group": "control_change"}, {"time": 1470, "annotation": {"number": 64, "value": 127}, "group": "control_change"}, {"time": 1489, "annotation": {"number": 64, "value": 71}, "group": "control_change"}, {"time": 1489, "annotation": {"number": 64, "value": 0}, "group": "control_change"}, {"time": 1493, "annotation": {"number": 64, "value": 71}, "group": "control_change"}, {"time": 1494, "annotation": {"number": 64, "value": 127}, "group": "control_change"}, {"time": 1513, "annotation": {"number": 64, "value": 71}, "group": "control_change"}, {"time": 1513, "annotation": {"number": 64, "value": 0}, "group": "control_change"}, {"time": 1517, "annotation": {"number": 64, "value": 71}, "group": "control_change"}, {"time": 1518, "annotation": {"number": 64, "value": 127}, "group": "control_change"}, {"time": 1536, "annotation": {"number": 64, "value": 71}, "group": "control_change"}, {"time": 1537, "annotation": {"number": 64, "value": 0}, "group": "control_change"}, {"time": 1542, "annotation": {"number": 64, "value": 71}, "group": "control_change"}, {"time": 1542, "annotation": {"number": 64, "value": 127}, "group": "control_change"}, {"time": 1561, "annotation": {"number": 64, "value": 71}, "group": "control_change"}, {"time": 1561, "annotation": {"number": 64, "value": 0}, "group": "control_change"}, {"time": 1565, "annotation": {"number": 64, "value": 71}, "group": "control_change"}, {"time": 1565, "annotation": {"number": 64, "value": 127}, "group": "control_change"}, {"time": 1583, "annotation": {"number": 64, "value": 0}, "group": "control_change"}, {"time": 1586, "annotation": {"number": 64, "value": 71}, "group": "control_change"}, {"time": 1586, "annotation": {"number": 64, "value": 127}, "group": "control_change"}, {"time": 1609, "annotation": {"number": 64, "value": 71}, "group": "control_change"}, {"time": 1609, "annotation": {"number": 64, "value": 0}, "group": "control_change"}, {"time": 1612, "annotation": {"number": 64, "value": 71}, "group": "control_change"}, {"time": 1613, "annotation": {"number": 64, "value": 127}, "group": "control_change"}, {"time": 1633, "annotation": {"number": 64, "value": 71}, "group": "control_change"}, {"time": 1633, "annotation": {"number": 64, "value": 0}, "group": "control_change"}, {"time": 1637, "annotation": {"number": 64, "value": 71}, "group": "control_change"}, {"time": 1639, "annotation": {"number": 64, "value": 127}, "group": "control_change"}, {"time": 1657, "annotation": {"number": 64, "value": 71}, "group": "control_change"}, {"time": 1657, "annotation": {"number": 64, "value": 0}, "group": "control_change"}, {"time": 1662, "annotation": {"number": 64, "value": 71}, "group": "control_change"}, {"time": 1663, "annotation": {"number": 64, "value": 127}, "group": "control_change"}, {"time": 1681, "annotation": {"number": 64, "value": 71}, "group": "control_change"}, {"time": 1682, "annotation": {"number": 64, "value": 0}, "group": "control_change"}, {"time": 1685, "annotation": {"number": 64, "value": 71}, "group": "control_change"}, {"time": 1686, "annotation": {"number": 64, "value": 127}, "group": "control_change"}, {"time": 1704, "annotation": {"number": 64, "value": 71}, "group": "control_change"}, {"time": 1705, "annotation": {"number": 64, "value": 0}, "group": "control_change"}, {"time": 1708, "annotation": {"number": 64, "value": 71}, "group": "control_change"}, {"time": 1709, "annotation": {"number": 64, "value": 127}, "group": "control_change"}, {"time": 1729, "annotation": {"number": 64, "value": 71}, "group": "control_change"}, {"time": 1729, "annotation": {"number": 64, "value": 0}, "group": "control_change"}, {"time": 1734, "annotation": {"number": 64, "value": 71}, "group": "control_change"}, {"time": 1735, "annotation": {"number": 64, "value": 127}, "group": "control_change"}, {"time": 1753, "annotation": {"number": 64, "value": 71}, "group": "control_change"}, {"time": 1753, "annotation": {"number": 64, "value": 0}, "group": "control_change"}, {"time": 1759, "annotation": {"number": 64, "value": 71}, "group": "control_change"}, {"time": 1759, "annotation": {"number": 64, "value": 127}, "group": "control_change"}, {"time": 1770, "annotation": {"number": 64, "value": 71}, "group": "control_change"}, {"time": 1770, "annotation": {"number": 64, "value": 127}, "group": "control_change"}, {"time": 1777, "annotation": {"number": 64, "value": 71}, "group": "control_change"}, {"time": 1777, "annotation": {"number": 64, "value": 0}, "group": "control_change"}, {"time": 1781, "annotation": {"number": 64, "value": 71}, "group": "control_change"}, {"time": 1782, "annotation": {"number": 64, "value": 127}, "group": "control_change"}, {"time": 1801, "annotation": {"number": 64, "value": 71}, "group": "control_change"}, {"time": 1801, "annotation": {"number": 64, "value": 0}, "group": "control_change"}, {"time": 1803, "annotation": {"number": 64, "value": 71}, "group": "control_change"}, {"time": 1804, "annotation": {"number": 64, "value": 127}, "group": "control_change"}, {"time": 1824, "annotation": {"number": 64, "value": 71}, "group": "control_change"}, {"time": 1825, "annotation": {"number": 64, "value": 0}, "group": "control_change"}, {"time": 1828, "annotation": {"number": 64, "value": 71}, "group": "control_change"}, {"time": 1828, "annotation": {"number": 64, "value": 127}, "group": "control_change"}, {"time": 1849, "annotation": {"number": 64, "value": 71}, "group": "control_change"}, {"time": 1850, "annotation": {"number": 64, "value": 0}, "group": "control_change"}, {"time": 1853, "annotation": {"number": 64, "value": 71}, "group": "control_change"}, {"time": 1854, "annotation": {"number": 64, "value": 127}, "group": "control_change"}, {"time": 1873, "annotation": {"number": 64, "value": 71}, "group": "control_change"}, {"time": 1873, "annotation": {"number": 64, "value": 0}, "group": "control_change"}, {"time": 1877, "annotation": {"number": 64, "value": 71}, "group": "control_change"}, {"time": 1878, "annotation": {"number": 64, "value": 127}, "group": "control_change"}, {"time": 1897, "annotation": {"number": 64, "value": 71}, "group": "control_change"}, {"time": 1897, "annotation": {"number": 64, "value": 0}, "group": "control_change"}, {"time": 1901, "annotation": {"number": 64, "value": 71}, "group": "control_change"}, {"time": 1902, "annotation": {"number": 64, "value": 127}, "group": "control_change"}, {"time": 1920, "annotation": {"number": 64, "value": 71}, "group": "control_change"}, {"time": 1921, "annotation": {"number": 64, "value": 0}, "group": "control_change"}, {"time": 1926, "annotation": {"number": 64, "value": 71}, "group": "control_change"}, {"time": 1926, "annotation": {"number": 64, "value": 127}, "group": "control_change"}, {"time": 1945, "annotation": {"number": 64, "value": 71}, "group": "control_change"}, {"time": 1945, "annotation": {"number": 64, "value": 0}, "group": "control_change"}, {"time": 1949, "annotation": {"number": 64, "value": 71}, "group": "control_change"}, {"time": 1949, "annotation": {"number": 64, "value": 127}, "group": "control_change"}, {"time": 1967, "annotation": {"number": 64, "value": 0}, "group": "control_change"}, {"time": 1969, "annotation": {"number": 64, "value": 71}, "group": "control_change"}, {"time": 1970, "annotation": {"number": 64, "value": 127}, "group": "control_change"}, {"time": 1992, "annotation": {"number": 64, "value": 71}, "group": "control_change"}, {"time": 1993, "annotation": {"number": 64, "value": 0}, "group": "control_change"}, {"time": 1996, "annotation": {"number": 64, "value": 71}, "group": "control_change"}, {"time": 1997, "annotation": {"number": 64, "value": 127}, "group": "control_change"}, {"time": 2016, "annotation": {"number": 64, "value": 71}, "group": "control_change"}, {"time": 2017, "annotation": {"number": 64, "value": 0}, "group": "control_change"}, {"time": 2021, "annotation": {"number": 64, "value": 71}, "group": "control_change"}, {"time": 2022, "annotation": {"number": 64, "value": 127}, "group": "control_change"}, {"time": 2040, "annotation": {"number": 64, "value": 71}, "group": "control_change"}, {"time": 2041, "annotation": {"number": 64, "value": 0}, "group": "control_change"}, {"time": 2047, "annotation": {"number": 64, "value": 71}, "group": "control_change"}, {"time": 2047, "annotation": {"number": 64, "value": 127}, "group": "control_change"}, {"time": 2064, "annotation": {"number": 64, "value": 71}, "group": "control_change"}, {"time": 2065, "annotation": {"number": 64, "value": 0}, "group": "control_change"}, {"time": 2069, "annotation": {"number": 64, "value": 71}, "group": "control_change"}, {"time": 2070, "annotation": {"number": 64, "value": 127}, "group": "control_change"}, {"time": 2088, "annotation": {"number": 64, "value": 71}, "group": "control_change"}, {"time": 2089, "annotation": {"number": 64, "value": 0}, "group": "control_change"}, {"time": 2091, "annotation": {"number": 64, "value": 71}, "group": "control_change"}, {"time": 2092, "annotation": {"number": 64, "value": 127}, "group": "control_change"}, {"time": 2112, "annotation": {"number": 64, "value": 71}, "group": "control_change"}, {"time": 2113, "annotation": {"number": 64, "value": 0}, "group": "control_change"}, {"time": 2117, "annotation": {"number": 64, "value": 71}, "group": "control_change"}, {"time": 2117, "annotation": {"number": 64, "value": 127}, "group": "control_change"}, {"time": 2136, "annotation": {"number": 64, "value": 71}, "group": "control_change"}, {"time": 2137, "annotation": {"number": 64, "value": 0}, "group": "control_change"}, {"time": 2141, "annotation": {"number": 64, "value": 71}, "group": "control_change"}, {"time": 2142, "annotation": {"number": 64, "value": 127}, "group": "control_change"}, {"time": 2160, "annotation": {"number": 64, "value": 71}, "group": "control_change"}, {"time": 2161, "annotation": {"number": 64, "value": 0}, "group": "control_change"}, {"time": 2165, "annotation": {"number": 64, "value": 71}, "group": "control_change"}, {"time": 2166, "annotation": {"number": 64, "value": 127}, "group": "control_change"}, {"time": 2184, "annotation": {"number": 64, "value": 71}, "group": "control_change"}, {"time": 2185, "annotation": {"number": 64, "value": 0}, "group": "control_change"}, {"time": 2189, "annotation": {"number": 64, "value": 71}, "group": "control_change"}, {"time": 2190, "annotation": {"number": 64, "value": 127}, "group": "control_change"}, {"time": 2208, "annotation": {"number": 64, "value": 71}, "group": "control_change"}, {"time": 2209, "annotation": {"number": 64, "value": 0}, "group": "control_change"}, {"time": 2213, "annotation": {"number": 64, "value": 71}, "group": "control_change"}, {"time": 2213, "annotation": {"number": 64, "value": 127}, "group": "control_change"}, {"time": 2232, "annotation": {"number": 64, "value": 71}, "group": "control_change"}, {"time": 2233, "annotation": {"number": 64, "value": 0}, "group": "control_change"}, {"time": 2236, "annotation": {"number": 64, "value": 71}, "group": "control_change"}, {"time": 2237, "annotation": {"number": 64, "value": 127}, "group": "control_change"}, {"time": 2256, "annotation": {"number": 64, "value": 71}, "group": "control_change"}, {"time": 2257, "annotation": {"number": 64, "value": 0}, "group": "control_change"}, {"time": 2263, "annotation": {"number": 64, "value": 71}, "group": "control_change"}, {"time": 2263, "annotation": {"number": 64, "value": 127}, "group": "control_change"}, {"time": 2280, "annotation": {"number": 64, "value": 71}, "group": "control_change"}, {"time": 2281, "annotation": {"number": 64, "value": 0}, "group": "control_change"}, {"time": 2284, "annotation": {"number": 64, "value": 71}, "group": "control_change"}, {"time": 2285, "annotation": {"number": 64, "value": 127}, "group": "control_change"}, {"time": 2304, "annotation": {"number": 64, "value": 71}, "group": "control_change"}, {"time": 2305, "annotation": {"number": 64, "value": 0}, "group": "control_change"}, {"time": 2309, "annotation": {"number": 64, "value": 71}, "group": "control_change"}, {"time": 2310, "annotation": {"number": 64, "value": 127}, "group": "control_change"}, {"time": 2328, "annotation": {"number": 64, "value": 71}, "group": "control_change"}, {"time": 2329, "annotation": {"number": 64, "value": 0}, "group": "control_change"}, {"time": 2333, "annotation": {"number": 64, "value": 71}, "group": "control_change"}, {"time": 2334, "annotation": {"number": 64, "value": 127}, "group": "control_change"}, {"time": 2352, "annotation": {"number": 64, "value": 0}, "group": "control_change"}, {"time": 2736, "annotation": {"number": 64, "value": 0}, "group": "control_change"}, {"time": 2737, "annotation": {"number": 64, "value": 71}, "group": "control_change"}, {"time": 2738, "annotation": {"number": 64, "value": 127}, "group": "control_change"}, {"time": 2760, "annotation": {"number": 64, "value": 71}, "group": "control_change"}, {"time": 2761, "annotation": {"number": 64, "value": 0}, "group": "control_change"}, {"time": 2764, "annotation": {"number": 64, "value": 71}, "group": "control_change"}, {"time": 2765, "annotation": {"number": 64, "value": 127}, "group": "control_change"}, {"time": 2784, "annotation": {"number": 64, "value": 71}, "group": "control_change"}, {"time": 2784, "annotation": {"number": 64, "value": 0}, "group": "control_change"}, {"time": 2789, "annotation": {"number": 64, "value": 71}, "group": "control_change"}, {"time": 2790, "annotation": {"number": 64, "value": 127}, "group": "control_change"}, {"time": 2808, "annotation": {"number": 64, "value": 71}, "group": "control_change"}, {"time": 2809, "annotation": {"number": 64, "value": 0}, "group": "control_change"}, {"time": 2814, "annotation": {"number": 64, "value": 71}, "group": "control_change"}, {"time": 2815, "annotation": {"number": 64, "value": 127}, "group": "control_change"}, {"time": 2833, "annotation": {"number": 64, "value": 71}, "group": "control_change"}, {"time": 2833, "annotation": {"number": 64, "value": 0}, "group": "control_change"}, {"time": 2836, "annotation": {"number": 64, "value": 71}, "group": "control_change"}, {"time": 2837, "annotation": {"number": 64, "value": 127}, "group": "control_change"}, {"time": 2856, "annotation": {"number": 64, "value": 71}, "group": "control_change"}, {"time": 2857, "annotation": {"number": 64, "value": 0}, "group": "control_change"}, {"time": 2860, "annotation": {"number": 64, "value": 71}, "group": "control_change"}, {"time": 2861, "annotation": {"number": 64, "value": 127}, "group": "control_change"}, {"time": 2880, "annotation": {"number": 64, "value": 71}, "group": "control_change"}, {"time": 2881, "annotation": {"number": 64, "value": 0}, "group": "control_change"}, {"time": 2885, "annotation": {"number": 64, "value": 71}, "group": "control_change"}, {"time": 2886, "annotation": {"number": 64, "value": 127}, "group": "control_change"}, {"time": 2904, "annotation": {"number": 64, "value": 71}, "group": "control_change"}, {"time": 2905, "annotation": {"number": 64, "value": 0}, "group": "control_change"}, {"time": 2910, "annotation": {"number": 64, "value": 71}, "group": "control_change"}, {"time": 2911, "annotation": {"number": 64, "value": 127}, "group": "control_change"}, {"time": 2921, "annotation": {"number": 64, "value": 71}, "group": "control_change"}, {"time": 2922, "annotation": {"number": 64, "value": 127}, "group": "control_change"}, {"time": 2928, "annotation": {"number": 64, "value": 71}, "group": "control_change"}, {"time": 2929, "annotation": {"number": 64, "value": 0}, "group": "control_change"}, {"time": 2933, "annotation": {"number": 64, "value": 71}, "group": "control_change"}, {"time": 2934, "annotation": {"number": 64, "value": 127}, "group": "control_change"}, {"time": 2952, "annotation": {"number": 64, "value": 71}, "group": "control_change"}, {"time": 2953, "annotation": {"number": 64, "value": 0}, "group": "control_change"}, {"time": 2955, "annotation": {"number": 64, "value": 71}, "group": "control_change"}, {"time": 2955, "annotation": {"number": 64, "value": 127}, "group": "control_change"}, {"time": 2976, "annotation": {"number": 64, "value": 71}, "group": "control_change"}, {"time": 2976, "annotation": {"number": 64, "value": 0}, "group": "control_change"}, {"time": 2979, "annotation": {"number": 64, "value": 71}, "group": "control_change"}, {"time": 2980, "annotation": {"number": 64, "value": 127}, "group": "control_change"}, {"time": 3001, "annotation": {"number": 64, "value": 71}, "group": "control_change"}, {"time": 3001, "annotation": {"number": 64, "value": 0}, "group": "control_change"}, {"time": 3005, "annotation": {"number": 64, "value": 71}, "group": "control_change"}, {"time": 3006, "annotation": {"number": 64, "value": 127}, "group": "control_change"}, {"time": 3024, "annotation": {"number": 64, "value": 71}, "group": "control_change"}, {"time": 3025, "annotation": {"number": 64, "value": 0}, "group": "control_change"}, {"time": 3029, "annotation": {"number": 64, "value": 71}, "group": "control_change"}, {"time": 3030, "annotation": {"number": 64, "value": 127}, "group": "control_change"}, {"time": 3048, "annotation": {"number": 64, "value": 71}, "group": "control_change"}, {"time": 3049, "annotation": {"number": 64, "value": 0}, "group": "control_change"}, {"time": 3053, "annotation": {"number": 64, "value": 71}, "group": "control_change"}, {"time": 3054, "annotation": {"number": 64, "value": 127}, "group": "control_change"}, {"time": 3072, "annotation": {"number": 64, "value": 71}, "group": "control_change"}, {"time": 3072, "annotation": {"number": 64, "value": 0}, "group": "control_change"}, {"time": 3078, "annotation": {"number": 64, "value": 71}, "group": "control_change"}, {"time": 3078, "annotation": {"number": 64, "value": 127}, "group": "control_change"}, {"time": 3096, "annotation": {"number": 64, "value": 71}, "group": "control_change"}, {"time": 3097, "annotation": {"number": 64, "value": 0}, "group": "control_change"}, {"time": 3100, "annotation": {"number": 64, "value": 71}, "group": "control_change"}, {"time": 3101, "annotation": {"number": 64, "value": 127}, "group": "control_change"}, {"time": 3119, "annotation": {"number": 64, "value": 0}, "group": "control_change"}, {"time": 3121, "annotation": {"number": 64, "value": 71}, "group": "control_change"}, {"time": 3122, "annotation": {"number": 64, "value": 127}, "group": "control_change"}, {"time": 3144, "annotation": {"number": 64, "value": 71}, "group": "control_change"}, {"time": 3145, "annotation": {"number": 64, "value": 0}, "group": "control_change"}, {"time": 3148, "annotation": {"number": 64, "value": 71}, "group": "control_change"}, {"time": 3149, "annotation": {"number": 64, "value": 127}, "group": "control_change"}, {"time": 3168, "annotation": {"number": 64, "value": 71}, "group": "control_change"}, {"time": 3168, "annotation": {"number": 64, "value": 0}, "group": "control_change"}, {"time": 3173, "annotation": {"number": 64, "value": 71}, "group": "control_change"}, {"time": 3174, "annotation": {"number": 64, "value": 127}, "group": "control_change"}, {"time": 3192, "annotation": {"number": 64, "value": 71}, "group": "control_change"}, {"time": 3193, "annotation": {"number": 64, "value": 0}, "group": "control_change"}, {"time": 3198, "annotation": {"number": 64, "value": 71}, "group": "control_change"}, {"time": 3199, "annotation": {"number": 64, "value": 127}, "group": "control_change"}, {"time": 3217, "annotation": {"number": 64, "value": 71}, "group": "control_change"}, {"time": 3217, "annotation": {"number": 64, "value": 0}, "group": "control_change"}, {"time": 3220, "annotation": {"number": 64, "value": 71}, "group": "control_change"}, {"time": 3221, "annotation": {"number": 64, "value": 127}, "group": "control_change"}, {"time": 3240, "annotation": {"number": 64, "value": 71}, "group": "control_change"}, {"time": 3241, "annotation": {"number": 64, "value": 0}, "group": "control_change"}, {"time": 3244, "annotation": {"number": 64, "value": 71}, "group": "control_change"}, {"time": 3245, "annotation": {"number": 64, "value": 127}, "group": "control_change"}, {"time": 3264, "annotation": {"number": 64, "value": 71}, "group": "control_change"}, {"time": 3265, "annotation": {"number": 64, "value": 0}, "group": "control_change"}, {"time": 3269, "annotation": {"number": 64, "value": 71}, "group": "control_change"}, {"time": 3270, "annotation": {"number": 64, "value": 127}, "group": "control_change"}, {"time": 3288, "annotation": {"number": 64, "value": 71}, "group": "control_change"}, {"time": 3289, "annotation": {"number": 64, "value": 0}, "group": "control_change"}, {"time": 3294, "annotation": {"number": 64, "value": 71}, "group": "control_change"}, {"time": 3295, "annotation": {"number": 64, "value": 127}, "group": "control_change"}, {"time": 3305, "annotation": {"number": 64, "value": 71}, "group": "control_change"}, {"time": 3306, "annotation": {"number": 64, "value": 127}, "group": "control_change"}, {"time": 3312, "annotation": {"number": 64, "value": 71}, "group": "control_change"}, {"time": 3313, "annotation": {"number": 64, "value": 0}, "group": "control_change"}, {"time": 3317, "annotation": {"number": 64, "value": 71}, "group": "control_change"}, {"time": 3318, "annotation": {"number": 64, "value": 127}, "group": "control_change"}, {"time": 3336, "annotation": {"number": 64, "value": 71}, "group": "control_change"}, {"time": 3337, "annotation": {"number": 64, "value": 0}, "group": "control_change"}, {"time": 3339, "annotation": {"number": 64, "value": 71}, "group": "control_change"}, {"time": 3339, "annotation": {"number": 64, "value": 127}, "group": "control_change"}, {"time": 3360, "annotation": {"number": 64, "value": 71}, "group": "control_change"}, {"time": 3360, "annotation": {"number": 64, "value": 0}, "group": "control_change"}, {"time": 3363, "annotation": {"number": 64, "value": 71}, "group": "control_change"}, {"time": 3364, "annotation": {"number": 64, "value": 127}, "group": "control_change"}, {"time": 3385, "annotation": {"number": 64, "value": 71}, "group": "control_change"}, {"time": 3385, "annotation": {"number": 64, "value": 0}, "group": "control_change"}, {"time": 3389, "annotation": {"number": 64, "value": 71}, "group": "control_change"}, {"time": 3390, "annotation": {"number": 64, "value": 127}, "group": "control_change"}, {"time": 3408, "annotation": {"number": 64, "value": 71}, "group": "control_change"}, {"time": 3409, "annotation": {"number": 64, "value": 0}, "group": "control_change"}, {"time": 3413, "annotation": {"number": 64, "value": 71}, "group": "control_change"}, {"time": 3414, "annotation": {"number": 64, "value": 127}, "group": "control_change"}, {"time": 3432, "annotation": {"number": 64, "value": 71}, "group": "control_change"}, {"time": 3433, "annotation": {"number": 64, "value": 0}, "group": "control_change"}, {"time": 3437, "annotation": {"number": 64, "value": 71}, "group": "control_change"}, {"time": 3438, "annotation": {"number": 64, "value": 127}, "group": "control_change"}, {"time": 3456, "annotation": {"number": 64, "value": 71}, "group": "control_change"}, {"time": 3456, "annotation": {"number": 64, "value": 0}, "group": "control_change"}, {"time": 3462, "annotation": {"number": 64, "value": 71}, "group": "control_change"}, {"time": 3462, "annotation": {"number": 64, "value": 127}, "group": "control_change"}, {"time": 3480, "annotation": {"number": 64, "value": 71}, "group": "control_change"}, {"time": 3481, "annotation": {"number": 64, "value": 0}, "group": "control_change"}, {"time": 3484, "annotation": {"number": 64, "value": 71}, "group": "control_change"}, {"time": 3485, "annotation": {"number": 64, "value": 127}, "group": "control_change"}, {"time": 3503, "annotation": {"number": 64, "value": 0}, "group": "control_change"}, {"time": 3509, "annotation": {"number": 64, "value": 71}, "group": "control_change"}, {"time": 3509, "annotation": {"number": 64, "value": 127}, "group": "control_change"}, {"time": 3515, "annotation": {"number": 64, "value": 88}, "group": "control_change"}, {"time": 3517, "annotation": {"number": 64, "value": 71}, "group": "control_change"}, {"time": 3517, "annotation": {"number": 64, "value": 0}, "group": "control_change"}, {"time": 3648, "annotation": {"number": 64, "value": 0}, "group": "control_change"}]}]}