{"metadata": {"schema_version": "0.2", "title": "None", "source_filename": "041.mid", "source_format": "midi"}, "resolution": 12, "tempos": [{"time": 0, "qpm": 85.00004250002125}], "key_signatures": [{"time": 0, "root": 0, "mode": "major"}], "time_signatures": [{"time": 0, "numerator": 4, "denominator": 4}], "tracks": [{"program": 0, "is_drum": false, "name": "MELODY", "notes": [{"time": 434, "pitch": 70, "duration": 3, "velocity": 93}, {"time": 440, "pitch": 70, "duration": 3, "velocity": 78}, {"time": 446, "pitch": 70, "duration": 6, "velocity": 66}, {"time": 452, "pitch": 72, "duration": 6, "velocity": 67}, {"time": 458, "pitch": 74, "duration": 9, "velocity": 67}, {"time": 464, "pitch": 72, "duration": 6, "velocity": 80}, {"time": 470, "pitch": 70, "duration": 6, "velocity": 88}, {"time": 476, "pitch": 72, "duration": 6, "velocity": 67}, {"time": 482, "pitch": 67, "duration": 29, "velocity": 95}, {"time": 530, "pitch": 70, "duration": 3, "velocity": 85}, {"time": 536, "pitch": 70, "duration": 3, "velocity": 70}, {"time": 542, "pitch": 70, "duration": 6, "velocity": 66}, {"time": 548, "pitch": 72, "duration": 5, "velocity": 61}, {"time": 554, "pitch": 74, "duration": 7, "velocity": 75}, {"time": 560, "pitch": 77, "duration": 2, "velocity": 61}, {"time": 566, "pitch": 74, "duration": 5, "velocity": 75}, {"time": 572, "pitch": 70, "duration": 6, "velocity": 95}, {"time": 578, "pitch": 72, "duration": 11, "velocity": 76}, {"time": 626, "pitch": 74, "duration": 2, "velocity": 88}, {"time": 632, "pitch": 74, "duration": 5, "velocity": 78}, {"time": 638, "pitch": 72, "duration": 6, "velocity": 72}, {"time": 644, "pitch": 74, "duration": 5, "velocity": 76}, {"time": 650, "pitch": 77, "duration": 18, "velocity": 76}, {"time": 674, "pitch": 74, "duration": 4, "velocity": 61}, {"time": 680, "pitch": 72, "duration": 2, "velocity": 70}, {"time": 686, "pitch": 72, "duration": 5, "velocity": 78}, {"time": 692, "pitch": 65, "duration": 7, "velocity": 80}, {"time": 698, "pitch": 67, "duration": 19, "velocity": 75}, {"time": 722, "pitch": 72, "duration": 6, "velocity": 75}, {"time": 722, "pitch": 72, "duration": 6, "velocity": 93}, {"time": 728, "pitch": 72, "duration": 1, "velocity": 85}, {"time": 740, "pitch": 74, "duration": 6, "velocity": 76}, {"time": 746, "pitch": 72, "duration": 24, "velocity": 85}, {"time": 770, "pitch": 72, "duration": 6, "velocity": 85}, {"time": 776, "pitch": 72, "duration": 6, "velocity": 67}, {"time": 782, "pitch": 70, "duration": 6, "velocity": 76}, {"time": 788, "pitch": 67, "duration": 7, "velocity": 67}, {"time": 794, "pitch": 70, "duration": 48, "velocity": 73}, {"time": 842, "pitch": 65, "duration": 6, "velocity": 59}, {"time": 848, "pitch": 65, "duration": 12, "velocity": 82}, {"time": 860, "pitch": 67, "duration": 6, "velocity": 61}, {"time": 866, "pitch": 74, "duration": 12, "velocity": 69}, {"time": 878, "pitch": 72, "duration": 6, "velocity": 73}, {"time": 884, "pitch": 70, "duration": 6, "velocity": 54}, {"time": 890, "pitch": 72, "duration": 6, "velocity": 93}, {"time": 896, "pitch": 70, "duration": 6, "velocity": 72}, {"time": 902, "pitch": 70, "duration": 6, "velocity": 58}, {"time": 908, "pitch": 65, "duration": 6, "velocity": 60}, {"time": 914, "pitch": 70, "duration": 12, "velocity": 73}, {"time": 926, "pitch": 65, "duration": 4, "velocity": 82}, {"time": 929, "pitch": 67, "duration": 3, "velocity": 60}, {"time": 932, "pitch": 70, "duration": 3, "velocity": 63}, {"time": 935, "pitch": 72, "duration": 3, "velocity": 66}, {"time": 938, "pitch": 74, "duration": 6, "velocity": 73}, {"time": 938, "pitch": 74, "duration": 6, "velocity": 75}, {"time": 944, "pitch": 74, "duration": 5, "velocity": 70}, {"time": 956, "pitch": 77, "duration": 6, "velocity": 76}, {"time": 962, "pitch": 79, "duration": 10, "velocity": 85}, {"time": 971, "pitch": 77, "duration": 3, "velocity": 69}, {"time": 974, "pitch": 74, "duration": 6, "velocity": 85}, {"time": 980, "pitch": 74, "duration": 6, "velocity": 70}, {"time": 986, "pitch": 72, "duration": 48, "velocity": 85}, {"time": 1034, "pitch": 74, "duration": 6, "velocity": 73}, {"time": 1040, "pitch": 74, "duration": 6, "velocity": 85}, {"time": 1046, "pitch": 72, "duration": 6, "velocity": 91}, {"time": 1052, "pitch": 74, "duration": 6, "velocity": 93}, {"time": 1058, "pitch": 77, "duration": 24, "velocity": 70}, {"time": 1082, "pitch": 74, "duration": 6, "velocity": 85}, {"time": 1088, "pitch": 72, "duration": 12, "velocity": 58}, {"time": 1100, "pitch": 65, "duration": 7, "velocity": 76}, {"time": 1106, "pitch": 67, "duration": 30, "velocity": 69}, {"time": 1136, "pitch": 72, "duration": 6, "velocity": 70}, {"time": 1142, "pitch": 72, "duration": 6, "velocity": 82}, {"time": 1148, "pitch": 74, "duration": 6, "velocity": 62}, {"time": 1154, "pitch": 72, "duration": 6, "velocity": 76}, {"time": 1160, "pitch": 70, "duration": 6, "velocity": 80}, {"time": 1166, "pitch": 67, "duration": 6, "velocity": 85}, {"time": 1172, "pitch": 70, "duration": 12, "velocity": 91}, {"time": 1184, "pitch": 70, "duration": 42, "velocity": 82}, {"time": 1226, "pitch": 65, "duration": 6, "velocity": 95}, {"time": 1232, "pitch": 65, "duration": 6, "velocity": 95}, {"time": 1238, "pitch": 65, "duration": 6, "velocity": 97}, {"time": 1244, "pitch": 67, "duration": 6, "velocity": 93}, {"time": 1250, "pitch": 70, "duration": 8, "velocity": 97}, {"time": 1256, "pitch": 70, "duration": 2, "velocity": 95}, {"time": 1274, "pitch": 67, "duration": 6, "velocity": 99}, {"time": 1280, "pitch": 65, "duration": 6, "velocity": 80}, {"time": 1286, "pitch": 62, "duration": 6, "velocity": 88}, {"time": 1292, "pitch": 62, "duration": 7, "velocity": 85}, {"time": 1298, "pitch": 65, "duration": 24, "velocity": 95}, {"time": 1322, "pitch": 67, "duration": 6, "velocity": 97}, {"time": 1328, "pitch": 67, "duration": 6, "velocity": 88}, {"time": 1334, "pitch": 67, "duration": 6, "velocity": 95}, {"time": 1340, "pitch": 70, "duration": 6, "velocity": 63}, {"time": 1346, "pitch": 67, "duration": 6, "velocity": 91}, {"time": 1352, "pitch": 65, "duration": 18, "velocity": 97}, {"time": 1370, "pitch": 67, "duration": 6, "velocity": 78}, {"time": 1376, "pitch": 65, "duration": 6, "velocity": 91}, {"time": 1382, "pitch": 65, "duration": 6, "velocity": 88}, {"time": 1388, "pitch": 58, "duration": 6, "velocity": 97}, {"time": 1394, "pitch": 60, "duration": 24, "velocity": 99}, {"time": 1418, "pitch": 74, "duration": 6, "velocity": 88}, {"time": 1424, "pitch": 72, "duration": 6, "velocity": 80}, {"time": 1430, "pitch": 72, "duration": 6, "velocity": 82}, {"time": 1436, "pitch": 74, "duration": 6, "velocity": 88}, {"time": 1442, "pitch": 77, "duration": 12, "velocity": 69}, {"time": 1454, "pitch": 79, "duration": 12, "velocity": 99}, {"time": 1466, "pitch": 74, "duration": 6, "velocity": 97}, {"time": 1472, "pitch": 72, "duration": 6, "velocity": 82}, {"time": 1478, "pitch": 72, "duration": 6, "velocity": 91}, {"time": 1484, "pitch": 65, "duration": 6, "velocity": 91}, {"time": 1490, "pitch": 67, "duration": 24, "velocity": 85}, {"time": 1514, "pitch": 72, "duration": 6, "velocity": 93}, {"time": 1520, "pitch": 72, "duration": 6, "velocity": 93}, {"time": 1526, "pitch": 72, "duration": 6, "velocity": 91}, {"time": 1532, "pitch": 74, "duration": 6, "velocity": 93}, {"time": 1538, "pitch": 72, "duration": 6, "velocity": 97}, {"time": 1544, "pitch": 70, "duration": 6, "velocity": 91}, {"time": 1550, "pitch": 72, "duration": 6, "velocity": 80}, {"time": 1556, "pitch": 74, "duration": 6, "velocity": 88}, {"time": 1562, "pitch": 77, "duration": 48, "velocity": 85}, {"time": 1610, "pitch": 65, "duration": 6, "velocity": 95}, {"time": 1616, "pitch": 65, "duration": 6, "velocity": 95}, {"time": 1622, "pitch": 65, "duration": 6, "velocity": 97}, {"time": 1628, "pitch": 67, "duration": 6, "velocity": 93}, {"time": 1634, "pitch": 70, "duration": 8, "velocity": 97}, {"time": 1640, "pitch": 70, "duration": 2, "velocity": 95}, {"time": 1658, "pitch": 67, "duration": 6, "velocity": 99}, {"time": 1664, "pitch": 65, "duration": 6, "velocity": 80}, {"time": 1670, "pitch": 62, "duration": 6, "velocity": 88}, {"time": 1676, "pitch": 62, "duration": 7, "velocity": 85}, {"time": 1682, "pitch": 65, "duration": 24, "velocity": 95}, {"time": 1706, "pitch": 67, "duration": 6, "velocity": 97}, {"time": 1712, "pitch": 67, "duration": 6, "velocity": 88}, {"time": 1718, "pitch": 67, "duration": 6, "velocity": 95}, {"time": 1724, "pitch": 70, "duration": 6, "velocity": 63}, {"time": 1730, "pitch": 67, "duration": 6, "velocity": 91}, {"time": 1736, "pitch": 65, "duration": 18, "velocity": 97}, {"time": 1754, "pitch": 67, "duration": 6, "velocity": 78}, {"time": 1760, "pitch": 65, "duration": 6, "velocity": 91}, {"time": 1766, "pitch": 65, "duration": 6, "velocity": 88}, {"time": 1772, "pitch": 58, "duration": 6, "velocity": 97}, {"time": 1778, "pitch": 60, "duration": 24, "velocity": 99}, {"time": 1802, "pitch": 74, "duration": 6, "velocity": 88}, {"time": 1808, "pitch": 72, "duration": 6, "velocity": 80}, {"time": 1814, "pitch": 72, "duration": 6, "velocity": 82}, {"time": 1820, "pitch": 74, "duration": 6, "velocity": 88}, {"time": 1826, "pitch": 77, "duration": 12, "velocity": 69}, {"time": 1838, "pitch": 79, "duration": 12, "velocity": 99}, {"time": 1850, "pitch": 74, "duration": 6, "velocity": 97}, {"time": 1856, "pitch": 72, "duration": 6, "velocity": 82}, {"time": 1862, "pitch": 72, "duration": 6, "velocity": 91}, {"time": 1868, "pitch": 65, "duration": 6, "velocity": 91}, {"time": 1874, "pitch": 67, "duration": 24, "velocity": 85}, {"time": 1898, "pitch": 72, "duration": 6, "velocity": 93}, {"time": 1904, "pitch": 72, "duration": 6, "velocity": 93}, {"time": 1910, "pitch": 72, "duration": 6, "velocity": 91}, {"time": 1916, "pitch": 74, "duration": 6, "velocity": 93}, {"time": 1922, "pitch": 72, "duration": 6, "velocity": 97}, {"time": 1928, "pitch": 70, "duration": 18, "velocity": 85}, {"time": 1946, "pitch": 72, "duration": 6, "velocity": 97}, {"time": 1952, "pitch": 70, "duration": 6, "velocity": 85}, {"time": 1958, "pitch": 67, "duration": 7, "velocity": 91}, {"time": 1964, "pitch": 70, "duration": 6, "velocity": 85}, {"time": 1970, "pitch": 72, "duration": 6, "velocity": 91}, {"time": 1976, "pitch": 70, "duration": 42, "velocity": 82}, {"time": 2402, "pitch": 70, "duration": 6, "velocity": 93}, {"time": 2408, "pitch": 70, "duration": 6, "velocity": 78}, {"time": 2414, "pitch": 70, "duration": 6, "velocity": 66}, {"time": 2420, "pitch": 72, "duration": 6, "velocity": 67}, {"time": 2426, "pitch": 74, "duration": 9, "velocity": 67}, {"time": 2432, "pitch": 72, "duration": 6, "velocity": 80}, {"time": 2438, "pitch": 70, "duration": 6, "velocity": 88}, {"time": 2444, "pitch": 72, "duration": 6, "velocity": 67}, {"time": 2450, "pitch": 67, "duration": 48, "velocity": 95}, {"time": 2498, "pitch": 70, "duration": 6, "velocity": 85}, {"time": 2504, "pitch": 70, "duration": 6, "velocity": 70}, {"time": 2510, "pitch": 70, "duration": 6, "velocity": 66}, {"time": 2516, "pitch": 72, "duration": 6, "velocity": 61}, {"time": 2522, "pitch": 74, "duration": 7, "velocity": 75}, {"time": 2528, "pitch": 77, "duration": 6, "velocity": 61}, {"time": 2534, "pitch": 74, "duration": 6, "velocity": 75}, {"time": 2540, "pitch": 70, "duration": 6, "velocity": 95}, {"time": 2546, "pitch": 72, "duration": 66, "velocity": 76}, {"time": 2594, "pitch": 74, "duration": 6, "velocity": 88}, {"time": 2600, "pitch": 74, "duration": 6, "velocity": 78}, {"time": 2606, "pitch": 72, "duration": 6, "velocity": 72}, {"time": 2612, "pitch": 74, "duration": 6, "velocity": 76}, {"time": 2618, "pitch": 77, "duration": 24, "velocity": 76}, {"time": 2642, "pitch": 74, "duration": 6, "velocity": 61}, {"time": 2648, "pitch": 72, "duration": 6, "velocity": 70}, {"time": 2654, "pitch": 72, "duration": 6, "velocity": 78}, {"time": 2660, "pitch": 65, "duration": 7, "velocity": 80}, {"time": 2666, "pitch": 67, "duration": 24, "velocity": 75}, {"time": 2690, "pitch": 72, "duration": 6, "velocity": 75}, {"time": 2690, "pitch": 72, "duration": 6, "velocity": 93}, {"time": 2696, "pitch": 72, "duration": 1, "velocity": 85}, {"time": 2708, "pitch": 74, "duration": 6, "velocity": 76}, {"time": 2714, "pitch": 72, "duration": 24, "velocity": 85}, {"time": 2738, "pitch": 72, "duration": 6, "velocity": 85}, {"time": 2744, "pitch": 72, "duration": 6, "velocity": 67}, {"time": 2750, "pitch": 70, "duration": 6, "velocity": 76}, {"time": 2756, "pitch": 67, "duration": 7, "velocity": 67}, {"time": 2762, "pitch": 70, "duration": 48, "velocity": 73}, {"time": 2810, "pitch": 65, "duration": 6, "velocity": 59}, {"time": 2816, "pitch": 65, "duration": 12, "velocity": 82}, {"time": 2828, "pitch": 67, "duration": 6, "velocity": 61}, {"time": 2834, "pitch": 74, "duration": 12, "velocity": 69}, {"time": 2846, "pitch": 72, "duration": 6, "velocity": 73}, {"time": 2852, "pitch": 70, "duration": 6, "velocity": 54}, {"time": 2858, "pitch": 72, "duration": 6, "velocity": 93}, {"time": 2864, "pitch": 70, "duration": 6, "velocity": 72}, {"time": 2870, "pitch": 70, "duration": 6, "velocity": 58}, {"time": 2876, "pitch": 65, "duration": 6, "velocity": 60}, {"time": 2882, "pitch": 70, "duration": 12, "velocity": 73}, {"time": 2894, "pitch": 65, "duration": 4, "velocity": 82}, {"time": 2897, "pitch": 67, "duration": 3, "velocity": 60}, {"time": 2900, "pitch": 70, "duration": 3, "velocity": 63}, {"time": 2903, "pitch": 72, "duration": 3, "velocity": 66}, {"time": 2906, "pitch": 74, "duration": 6, "velocity": 73}, {"time": 2906, "pitch": 74, "duration": 6, "velocity": 75}, {"time": 2912, "pitch": 74, "duration": 5, "velocity": 70}, {"time": 2924, "pitch": 77, "duration": 6, "velocity": 76}, {"time": 2930, "pitch": 79, "duration": 10, "velocity": 85}, {"time": 2939, "pitch": 77, "duration": 3, "velocity": 69}, {"time": 2942, "pitch": 74, "duration": 6, "velocity": 85}, {"time": 2948, "pitch": 74, "duration": 6, "velocity": 70}, {"time": 2954, "pitch": 72, "duration": 48, "velocity": 85}, {"time": 3002, "pitch": 74, "duration": 6, "velocity": 73}, {"time": 3008, "pitch": 74, "duration": 6, "velocity": 85}, {"time": 3014, "pitch": 72, "duration": 6, "velocity": 91}, {"time": 3020, "pitch": 74, "duration": 6, "velocity": 93}, {"time": 3026, "pitch": 77, "duration": 24, "velocity": 70}, {"time": 3050, "pitch": 74, "duration": 6, "velocity": 85}, {"time": 3056, "pitch": 72, "duration": 12, "velocity": 58}, {"time": 3068, "pitch": 65, "duration": 7, "velocity": 76}, {"time": 3074, "pitch": 67, "duration": 30, "velocity": 69}, {"time": 3104, "pitch": 72, "duration": 6, "velocity": 70}, {"time": 3110, "pitch": 72, "duration": 6, "velocity": 82}, {"time": 3116, "pitch": 74, "duration": 6, "velocity": 62}, {"time": 3122, "pitch": 72, "duration": 6, "velocity": 76}, {"time": 3128, "pitch": 70, "duration": 6, "velocity": 80}, {"time": 3134, "pitch": 67, "duration": 6, "velocity": 85}, {"time": 3140, "pitch": 70, "duration": 12, "velocity": 91}, {"time": 3152, "pitch": 70, "duration": 42, "velocity": 82}, {"time": 3194, "pitch": 65, "duration": 6, "velocity": 95}, {"time": 3200, "pitch": 65, "duration": 6, "velocity": 95}, {"time": 3206, "pitch": 65, "duration": 6, "velocity": 97}, {"time": 3212, "pitch": 67, "duration": 6, "velocity": 93}, {"time": 3218, "pitch": 70, "duration": 8, "velocity": 97}, {"time": 3224, "pitch": 70, "duration": 2, "velocity": 95}, {"time": 3242, "pitch": 67, "duration": 6, "velocity": 99}, {"time": 3248, "pitch": 65, "duration": 6, "velocity": 80}, {"time": 3254, "pitch": 62, "duration": 6, "velocity": 88}, {"time": 3260, "pitch": 62, "duration": 7, "velocity": 85}, {"time": 3266, "pitch": 65, "duration": 24, "velocity": 95}, {"time": 3290, "pitch": 67, "duration": 6, "velocity": 97}, {"time": 3296, "pitch": 67, "duration": 6, "velocity": 88}, {"time": 3302, "pitch": 67, "duration": 6, "velocity": 95}, {"time": 3308, "pitch": 70, "duration": 6, "velocity": 63}, {"time": 3314, "pitch": 67, "duration": 6, "velocity": 91}, {"time": 3320, "pitch": 65, "duration": 18, "velocity": 97}, {"time": 3338, "pitch": 67, "duration": 6, "velocity": 78}, {"time": 3344, "pitch": 65, "duration": 6, "velocity": 91}, {"time": 3350, "pitch": 65, "duration": 6, "velocity": 88}, {"time": 3356, "pitch": 58, "duration": 6, "velocity": 97}, {"time": 3362, "pitch": 60, "duration": 24, "velocity": 99}, {"time": 3386, "pitch": 74, "duration": 6, "velocity": 88}, {"time": 3392, "pitch": 72, "duration": 6, "velocity": 80}, {"time": 3398, "pitch": 72, "duration": 6, "velocity": 82}, {"time": 3404, "pitch": 74, "duration": 6, "velocity": 88}, {"time": 3410, "pitch": 77, "duration": 12, "velocity": 69}, {"time": 3422, "pitch": 79, "duration": 12, "velocity": 99}, {"time": 3434, "pitch": 74, "duration": 6, "velocity": 97}, {"time": 3440, "pitch": 72, "duration": 6, "velocity": 82}, {"time": 3446, "pitch": 72, "duration": 6, "velocity": 91}, {"time": 3452, "pitch": 65, "duration": 6, "velocity": 91}, {"time": 3458, "pitch": 67, "duration": 24, "velocity": 85}, {"time": 3482, "pitch": 72, "duration": 6, "velocity": 93}, {"time": 3488, "pitch": 72, "duration": 6, "velocity": 93}, {"time": 3494, "pitch": 72, "duration": 6, "velocity": 91}, {"time": 3500, "pitch": 74, "duration": 6, "velocity": 93}, {"time": 3506, "pitch": 72, "duration": 6, "velocity": 97}, {"time": 3512, "pitch": 70, "duration": 6, "velocity": 91}, {"time": 3518, "pitch": 72, "duration": 6, "velocity": 80}, {"time": 3524, "pitch": 74, "duration": 6, "velocity": 88}, {"time": 3530, "pitch": 77, "duration": 48, "velocity": 85}, {"time": 3578, "pitch": 65, "duration": 6, "velocity": 95}, {"time": 3584, "pitch": 65, "duration": 6, "velocity": 95}, {"time": 3590, "pitch": 65, "duration": 6, "velocity": 97}, {"time": 3596, "pitch": 67, "duration": 6, "velocity": 93}, {"time": 3602, "pitch": 70, "duration": 8, "velocity": 97}, {"time": 3608, "pitch": 70, "duration": 2, "velocity": 95}, {"time": 3626, "pitch": 67, "duration": 6, "velocity": 99}, {"time": 3632, "pitch": 65, "duration": 6, "velocity": 80}, {"time": 3638, "pitch": 62, "duration": 6, "velocity": 88}, {"time": 3644, "pitch": 62, "duration": 7, "velocity": 85}, {"time": 3650, "pitch": 65, "duration": 24, "velocity": 95}, {"time": 3674, "pitch": 67, "duration": 6, "velocity": 97}, {"time": 3680, "pitch": 67, "duration": 6, "velocity": 88}, {"time": 3686, "pitch": 67, "duration": 6, "velocity": 95}, {"time": 3692, "pitch": 70, "duration": 6, "velocity": 63}, {"time": 3698, "pitch": 67, "duration": 6, "velocity": 91}, {"time": 3704, "pitch": 65, "duration": 18, "velocity": 97}, {"time": 3722, "pitch": 67, "duration": 6, "velocity": 78}, {"time": 3728, "pitch": 65, "duration": 6, "velocity": 91}, {"time": 3734, "pitch": 65, "duration": 6, "velocity": 88}, {"time": 3740, "pitch": 58, "duration": 6, "velocity": 97}, {"time": 3746, "pitch": 60, "duration": 24, "velocity": 99}, {"time": 3770, "pitch": 74, "duration": 6, "velocity": 88}, {"time": 3776, "pitch": 72, "duration": 6, "velocity": 80}, {"time": 3782, "pitch": 72, "duration": 6, "velocity": 82}, {"time": 3788, "pitch": 74, "duration": 6, "velocity": 88}, {"time": 3794, "pitch": 77, "duration": 12, "velocity": 69}, {"time": 3806, "pitch": 79, "duration": 12, "velocity": 99}, {"time": 3818, "pitch": 74, "duration": 6, "velocity": 97}, {"time": 3824, "pitch": 72, "duration": 6, "velocity": 82}, {"time": 3830, "pitch": 72, "duration": 6, "velocity": 91}, {"time": 3836, "pitch": 65, "duration": 6, "velocity": 91}, {"time": 3842, "pitch": 67, "duration": 24, "velocity": 85}, {"time": 3866, "pitch": 72, "duration": 6, "velocity": 93}, {"time": 3872, "pitch": 72, "duration": 6, "velocity": 93}, {"time": 3878, "pitch": 72, "duration": 6, "velocity": 91}, {"time": 3884, "pitch": 74, "duration": 6, "velocity": 93}, {"time": 3890, "pitch": 72, "duration": 6, "velocity": 97}, {"time": 3896, "pitch": 70, "duration": 18, "velocity": 85}, {"time": 3914, "pitch": 72, "duration": 6, "velocity": 97}, {"time": 3920, "pitch": 70, "duration": 6, "velocity": 85}, {"time": 3926, "pitch": 67, "duration": 7, "velocity": 91}, {"time": 3932, "pitch": 70, "duration": 6, "velocity": 85}, {"time": 3938, "pitch": 72, "duration": 6, "velocity": 91}, {"time": 3944, "pitch": 70, "duration": 42, "velocity": 82}, {"time": 3986, "pitch": 65, "duration": 6, "velocity": 95}, {"time": 3992, "pitch": 65, "duration": 6, "velocity": 95}, {"time": 3998, "pitch": 65, "duration": 6, "velocity": 97}, {"time": 4004, "pitch": 67, "duration": 6, "velocity": 93}, {"time": 4010, "pitch": 70, "duration": 8, "velocity": 97}, {"time": 4016, "pitch": 70, "duration": 2, "velocity": 95}, {"time": 4034, "pitch": 67, "duration": 6, "velocity": 99}, {"time": 4040, "pitch": 65, "duration": 6, "velocity": 80}, {"time": 4046, "pitch": 62, "duration": 6, "velocity": 88}, {"time": 4052, "pitch": 62, "duration": 7, "velocity": 85}, {"time": 4058, "pitch": 65, "duration": 24, "velocity": 95}, {"time": 4082, "pitch": 67, "duration": 6, "velocity": 97}, {"time": 4088, "pitch": 67, "duration": 6, "velocity": 88}, {"time": 4094, "pitch": 67, "duration": 6, "velocity": 95}, {"time": 4100, "pitch": 70, "duration": 6, "velocity": 63}, {"time": 4106, "pitch": 67, "duration": 6, "velocity": 91}, {"time": 4112, "pitch": 65, "duration": 18, "velocity": 97}, {"time": 4130, "pitch": 67, "duration": 6, "velocity": 78}, {"time": 4136, "pitch": 65, "duration": 6, "velocity": 91}, {"time": 4142, "pitch": 65, "duration": 6, "velocity": 88}, {"time": 4148, "pitch": 58, "duration": 6, "velocity": 97}, {"time": 4154, "pitch": 60, "duration": 24, "velocity": 99}, {"time": 4178, "pitch": 74, "duration": 6, "velocity": 88}, {"time": 4184, "pitch": 72, "duration": 6, "velocity": 80}, {"time": 4190, "pitch": 72, "duration": 6, "velocity": 82}, {"time": 4196, "pitch": 74, "duration": 6, "velocity": 88}, {"time": 4202, "pitch": 77, "duration": 12, "velocity": 69}, {"time": 4214, "pitch": 79, "duration": 12, "velocity": 99}, {"time": 4226, "pitch": 74, "duration": 6, "velocity": 97}, {"time": 4232, "pitch": 72, "duration": 6, "velocity": 82}, {"time": 4238, "pitch": 72, "duration": 6, "velocity": 91}, {"time": 4244, "pitch": 65, "duration": 6, "velocity": 91}, {"time": 4250, "pitch": 67, "duration": 24, "velocity": 85}, {"time": 4274, "pitch": 72, "duration": 6, "velocity": 93}, {"time": 4280, "pitch": 72, "duration": 6, "velocity": 93}, {"time": 4286, "pitch": 72, "duration": 6, "velocity": 91}, {"time": 4292, "pitch": 74, "duration": 6, "velocity": 93}, {"time": 4298, "pitch": 72, "duration": 6, "velocity": 97}, {"time": 4304, "pitch": 70, "duration": 18, "velocity": 85}, {"time": 4322, "pitch": 72, "duration": 6, "velocity": 97}, {"time": 4328, "pitch": 70, "duration": 6, "velocity": 85}, {"time": 4334, "pitch": 67, "duration": 7, "velocity": 91}, {"time": 4340, "pitch": 70, "duration": 6, "velocity": 85}, {"time": 4346, "pitch": 72, "duration": 6, "velocity": 91}, {"time": 4352, "pitch": 70, "duration": 42, "velocity": 82}, {"time": 4394, "pitch": 72, "duration": 6, "velocity": 97}, {"time": 4400, "pitch": 72, "duration": 6, "velocity": 91}, {"time": 4406, "pitch": 72, "duration": 6, "velocity": 85}, {"time": 4412, "pitch": 74, "duration": 7, "velocity": 80}, {"time": 4418, "pitch": 72, "duration": 7, "velocity": 82}, {"time": 4424, "pitch": 70, "duration": 21, "velocity": 82}, {"time": 4445, "pitch": 72, "duration": 9, "velocity": 93}, {"time": 4454, "pitch": 70, "duration": 9, "velocity": 73}, {"time": 4463, "pitch": 65, "duration": 7, "velocity": 72}, {"time": 4469, "pitch": 70, "duration": 7, "velocity": 80}, {"time": 4475, "pitch": 72, "duration": 18, "velocity": 78}, {"time": 4493, "pitch": 70, "duration": 69, "velocity": 82}]}, {"program": 0, "is_drum": false, "name": "BRIDGE", "notes": [{"time": 38, "pitch": 65, "duration": 6, "velocity": 99}, {"time": 44, "pitch": 67, "duration": 6, "velocity": 97}, {"time": 50, "pitch": 77, "duration": 18, "velocity": 93}, {"time": 68, "pitch": 79, "duration": 6, "velocity": 66}, {"time": 74, "pitch": 77, "duration": 12, "velocity": 80}, {"time": 86, "pitch": 74, "duration": 6, "velocity": 103}, {"time": 92, "pitch": 72, "duration": 3, "velocity": 64}, {"time": 92, "pitch": 72, "duration": 3, "velocity": 85}, {"time": 95, "pitch": 70, "duration": 3, "velocity": 91}, {"time": 98, "pitch": 67, "duration": 36, "velocity": 70}, {"time": 98, "pitch": 67, "duration": 36, "velocity": 97}, {"time": 134, "pitch": 65, "duration": 6, "velocity": 78}, {"time": 134, "pitch": 65, "duration": 6, "velocity": 85}, {"time": 140, "pitch": 67, "duration": 6, "velocity": 58}, {"time": 140, "pitch": 67, "duration": 6, "velocity": 80}, {"time": 146, "pitch": 77, "duration": 18, "velocity": 99}, {"time": 164, "pitch": 79, "duration": 6, "velocity": 80}, {"time": 170, "pitch": 77, "duration": 12, "velocity": 95}, {"time": 182, "pitch": 74, "duration": 6, "velocity": 103}, {"time": 188, "pitch": 72, "duration": 3, "velocity": 91}, {"time": 191, "pitch": 70, "duration": 3, "velocity": 70}, {"time": 194, "pitch": 72, "duration": 36, "velocity": 82}, {"time": 230, "pitch": 74, "duration": 6, "velocity": 103}, {"time": 236, "pitch": 77, "duration": 6, "velocity": 95}, {"time": 242, "pitch": 79, "duration": 18, "velocity": 93}, {"time": 242, "pitch": 79, "duration": 18, "velocity": 95}, {"time": 260, "pitch": 82, "duration": 6, "velocity": 69}, {"time": 266, "pitch": 79, "duration": 12, "velocity": 97}, {"time": 278, "pitch": 77, "duration": 6, "velocity": 91}, {"time": 284, "pitch": 74, "duration": 6, "velocity": 85}, {"time": 290, "pitch": 72, "duration": 18, "velocity": 80}, {"time": 308, "pitch": 70, "duration": 6, "velocity": 91}, {"time": 314, "pitch": 74, "duration": 24, "velocity": 101}, {"time": 338, "pitch": 77, "duration": 12, "velocity": 101}, {"time": 350, "pitch": 79, "duration": 6, "velocity": 82}, {"time": 356, "pitch": 82, "duration": 6, "velocity": 73}, {"time": 362, "pitch": 74, "duration": 12, "velocity": 93}, {"time": 374, "pitch": 72, "duration": 6, "velocity": 82}, {"time": 380, "pitch": 67, "duration": 6, "velocity": 73}, {"time": 386, "pitch": 70, "duration": 18, "velocity": 73}, {"time": 404, "pitch": 70, "duration": 14, "velocity": 69}, {"time": 404, "pitch": 91, "duration": 3, "velocity": 80}, {"time": 407, "pitch": 89, "duration": 3, "velocity": 64}, {"time": 410, "pitch": 86, "duration": 6, "velocity": 88}, {"time": 416, "pitch": 89, "duration": 6, "velocity": 69}, {"time": 422, "pitch": 86, "duration": 6, "velocity": 76}, {"time": 428, "pitch": 79, "duration": 32, "velocity": 54}, {"time": 500, "pitch": 70, "duration": 3, "velocity": 78}, {"time": 503, "pitch": 72, "duration": 3, "velocity": 69}, {"time": 506, "pitch": 74, "duration": 6, "velocity": 78}, {"time": 512, "pitch": 72, "duration": 6, "velocity": 67}, {"time": 518, "pitch": 70, "duration": 6, "velocity": 80}, {"time": 524, "pitch": 72, "duration": 6, "velocity": 75}, {"time": 530, "pitch": 67, "duration": 14, "velocity": 93}, {"time": 590, "pitch": 77, "duration": 5, "velocity": 48}, {"time": 596, "pitch": 79, "duration": 6, "velocity": 70}, {"time": 602, "pitch": 77, "duration": 5, "velocity": 61}, {"time": 608, "pitch": 74, "duration": 2, "velocity": 64}, {"time": 614, "pitch": 70, "duration": 3, "velocity": 69}, {"time": 617, "pitch": 72, "duration": 3, "velocity": 63}, {"time": 620, "pitch": 74, "duration": 6, "velocity": 73}, {"time": 698, "pitch": 67, "duration": 3, "velocity": 99}, {"time": 704, "pitch": 74, "duration": 6, "velocity": 88}, {"time": 710, "pitch": 72, "duration": 5, "velocity": 70}, {"time": 716, "pitch": 70, "duration": 6, "velocity": 66}, {"time": 818, "pitch": 65, "duration": 8, "velocity": 82}, {"time": 824, "pitch": 67, "duration": 6, "velocity": 73}, {"time": 830, "pitch": 70, "duration": 6, "velocity": 57}, {"time": 836, "pitch": 72, "duration": 6, "velocity": 75}, {"time": 842, "pitch": 74, "duration": 22, "velocity": 73}, {"time": 962, "pitch": 79, "duration": 10, "velocity": 85}, {"time": 992, "pitch": 77, "duration": 6, "velocity": 75}, {"time": 998, "pitch": 79, "duration": 5, "velocity": 70}, {"time": 1004, "pitch": 77, "duration": 5, "velocity": 69}, {"time": 1010, "pitch": 74, "duration": 6, "velocity": 66}, {"time": 1016, "pitch": 72, "duration": 7, "velocity": 67}, {"time": 1022, "pitch": 70, "duration": 8, "velocity": 72}, {"time": 1031, "pitch": 72, "duration": 4, "velocity": 32}, {"time": 1034, "pitch": 74, "duration": 2, "velocity": 76}, {"time": 1034, "pitch": 74, "duration": 2, "velocity": 80}, {"time": 1202, "pitch": 70, "duration": 7, "velocity": 88}, {"time": 1208, "pitch": 72, "duration": 7, "velocity": 82}, {"time": 1214, "pitch": 74, "duration": 5, "velocity": 85}, {"time": 1220, "pitch": 77, "duration": 6, "velocity": 76}, {"time": 1226, "pitch": 77, "duration": 1, "velocity": 93}, {"time": 1304, "pitch": 81, "duration": 3, "velocity": 64}, {"time": 1310, "pitch": 79, "duration": 5, "velocity": 76}, {"time": 1316, "pitch": 77, "duration": 7, "velocity": 73}, {"time": 1322, "pitch": 74, "duration": 14, "velocity": 85}, {"time": 1400, "pitch": 77, "duration": 5, "velocity": 91}, {"time": 1406, "pitch": 79, "duration": 5, "velocity": 72}, {"time": 1412, "pitch": 77, "duration": 5, "velocity": 85}, {"time": 1418, "pitch": 74, "duration": 13, "velocity": 91}, {"time": 1490, "pitch": 67, "duration": 5, "velocity": 95}, {"time": 1496, "pitch": 74, "duration": 5, "velocity": 93}, {"time": 1502, "pitch": 72, "duration": 5, "velocity": 97}, {"time": 1508, "pitch": 70, "duration": 7, "velocity": 97}, {"time": 1514, "pitch": 67, "duration": 5, "velocity": 80}, {"time": 1688, "pitch": 81, "duration": 6, "velocity": 97}, {"time": 1694, "pitch": 79, "duration": 5, "velocity": 97}, {"time": 1700, "pitch": 77, "duration": 6, "velocity": 95}, {"time": 1706, "pitch": 74, "duration": 10, "velocity": 101}, {"time": 2006, "pitch": 65, "duration": 5, "velocity": 99}, {"time": 2012, "pitch": 67, "duration": 5, "velocity": 97}, {"time": 2018, "pitch": 77, "duration": 17, "velocity": 93}, {"time": 2036, "pitch": 79, "duration": 5, "velocity": 66}, {"time": 2042, "pitch": 77, "duration": 11, "velocity": 80}, {"time": 2054, "pitch": 74, "duration": 5, "velocity": 103}, {"time": 2060, "pitch": 72, "duration": 2, "velocity": 64}, {"time": 2063, "pitch": 70, "duration": 2, "velocity": 91}, {"time": 2066, "pitch": 74, "duration": 21, "velocity": 80}, {"time": 2096, "pitch": 62, "duration": 7, "velocity": 69}, {"time": 2102, "pitch": 65, "duration": 5, "velocity": 85}, {"time": 2108, "pitch": 67, "duration": 4, "velocity": 80}, {"time": 2114, "pitch": 77, "duration": 17, "velocity": 99}, {"time": 2132, "pitch": 79, "duration": 5, "velocity": 80}, {"time": 2138, "pitch": 77, "duration": 11, "velocity": 95}, {"time": 2150, "pitch": 74, "duration": 5, "velocity": 103}, {"time": 2156, "pitch": 72, "duration": 2, "velocity": 91}, {"time": 2159, "pitch": 70, "duration": 2, "velocity": 70}, {"time": 2162, "pitch": 72, "duration": 35, "velocity": 82}, {"time": 2198, "pitch": 74, "duration": 5, "velocity": 103}, {"time": 2204, "pitch": 77, "duration": 5, "velocity": 95}, {"time": 2210, "pitch": 79, "duration": 17, "velocity": 93}, {"time": 2210, "pitch": 79, "duration": 17, "velocity": 95}, {"time": 2228, "pitch": 82, "duration": 5, "velocity": 69}, {"time": 2234, "pitch": 79, "duration": 11, "velocity": 97}, {"time": 2246, "pitch": 77, "duration": 5, "velocity": 91}, {"time": 2252, "pitch": 74, "duration": 5, "velocity": 85}, {"time": 2258, "pitch": 72, "duration": 17, "velocity": 80}, {"time": 2276, "pitch": 70, "duration": 5, "velocity": 91}, {"time": 2282, "pitch": 74, "duration": 23, "velocity": 101}, {"time": 2306, "pitch": 77, "duration": 11, "velocity": 101}, {"time": 2318, "pitch": 79, "duration": 5, "velocity": 82}, {"time": 2324, "pitch": 82, "duration": 5, "velocity": 73}, {"time": 2330, "pitch": 74, "duration": 11, "velocity": 93}, {"time": 2342, "pitch": 72, "duration": 5, "velocity": 82}, {"time": 2348, "pitch": 67, "duration": 5, "velocity": 73}, {"time": 2354, "pitch": 70, "duration": 8, "velocity": 73}, {"time": 2372, "pitch": 91, "duration": 2, "velocity": 80}, {"time": 2375, "pitch": 89, "duration": 2, "velocity": 64}, {"time": 2378, "pitch": 86, "duration": 5, "velocity": 88}, {"time": 2384, "pitch": 89, "duration": 5, "velocity": 69}, {"time": 2390, "pitch": 86, "duration": 5, "velocity": 76}, {"time": 2396, "pitch": 79, "duration": 6, "velocity": 54}, {"time": 2468, "pitch": 70, "duration": 3, "velocity": 78}, {"time": 2471, "pitch": 72, "duration": 3, "velocity": 69}, {"time": 2474, "pitch": 74, "duration": 6, "velocity": 78}, {"time": 2480, "pitch": 72, "duration": 6, "velocity": 67}, {"time": 2486, "pitch": 70, "duration": 6, "velocity": 80}, {"time": 2492, "pitch": 72, "duration": 6, "velocity": 75}, {"time": 2498, "pitch": 67, "duration": 14, "velocity": 93}, {"time": 2558, "pitch": 77, "duration": 5, "velocity": 48}, {"time": 2564, "pitch": 79, "duration": 6, "velocity": 70}, {"time": 2570, "pitch": 77, "duration": 5, "velocity": 61}, {"time": 2576, "pitch": 74, "duration": 2, "velocity": 64}, {"time": 2582, "pitch": 70, "duration": 3, "velocity": 69}, {"time": 2585, "pitch": 72, "duration": 3, "velocity": 63}, {"time": 2588, "pitch": 74, "duration": 6, "velocity": 73}, {"time": 2666, "pitch": 67, "duration": 3, "velocity": 99}, {"time": 2672, "pitch": 74, "duration": 6, "velocity": 88}, {"time": 2678, "pitch": 72, "duration": 5, "velocity": 70}, {"time": 2684, "pitch": 70, "duration": 6, "velocity": 66}, {"time": 2786, "pitch": 65, "duration": 8, "velocity": 82}, {"time": 2792, "pitch": 67, "duration": 6, "velocity": 73}, {"time": 2798, "pitch": 70, "duration": 6, "velocity": 57}, {"time": 2804, "pitch": 72, "duration": 6, "velocity": 75}, {"time": 2810, "pitch": 74, "duration": 22, "velocity": 73}, {"time": 2930, "pitch": 79, "duration": 10, "velocity": 85}, {"time": 2960, "pitch": 77, "duration": 6, "velocity": 75}, {"time": 2966, "pitch": 79, "duration": 5, "velocity": 70}, {"time": 2972, "pitch": 77, "duration": 5, "velocity": 69}, {"time": 2978, "pitch": 74, "duration": 6, "velocity": 66}, {"time": 2984, "pitch": 72, "duration": 7, "velocity": 67}, {"time": 2990, "pitch": 70, "duration": 8, "velocity": 72}, {"time": 2999, "pitch": 72, "duration": 4, "velocity": 32}, {"time": 3002, "pitch": 74, "duration": 2, "velocity": 76}, {"time": 3002, "pitch": 74, "duration": 2, "velocity": 80}, {"time": 3170, "pitch": 65, "duration": 7, "velocity": 88}, {"time": 3176, "pitch": 67, "duration": 7, "velocity": 82}, {"time": 3182, "pitch": 70, "duration": 5, "velocity": 85}, {"time": 3188, "pitch": 72, "duration": 6, "velocity": 76}, {"time": 3194, "pitch": 74, "duration": 16, "velocity": 93}, {"time": 3272, "pitch": 81, "duration": 3, "velocity": 64}, {"time": 3278, "pitch": 79, "duration": 5, "velocity": 76}, {"time": 3284, "pitch": 77, "duration": 7, "velocity": 73}, {"time": 3290, "pitch": 74, "duration": 14, "velocity": 85}, {"time": 3368, "pitch": 77, "duration": 5, "velocity": 91}, {"time": 3374, "pitch": 79, "duration": 5, "velocity": 72}, {"time": 3380, "pitch": 77, "duration": 5, "velocity": 85}, {"time": 3386, "pitch": 74, "duration": 13, "velocity": 91}, {"time": 3458, "pitch": 67, "duration": 5, "velocity": 95}, {"time": 3464, "pitch": 74, "duration": 5, "velocity": 93}, {"time": 3470, "pitch": 72, "duration": 5, "velocity": 97}, {"time": 3476, "pitch": 70, "duration": 7, "velocity": 97}, {"time": 3482, "pitch": 67, "duration": 5, "velocity": 80}, {"time": 3656, "pitch": 81, "duration": 6, "velocity": 97}, {"time": 3662, "pitch": 79, "duration": 5, "velocity": 97}, {"time": 3668, "pitch": 77, "duration": 6, "velocity": 95}, {"time": 3674, "pitch": 74, "duration": 10, "velocity": 101}, {"time": 3938, "pitch": 65, "duration": 7, "velocity": 93}, {"time": 3944, "pitch": 67, "duration": 5, "velocity": 82}, {"time": 3950, "pitch": 70, "duration": 4, "velocity": 82}, {"time": 3956, "pitch": 72, "duration": 5, "velocity": 93}, {"time": 3962, "pitch": 65, "duration": 3, "velocity": 97}, {"time": 3965, "pitch": 67, "duration": 2, "velocity": 72}, {"time": 3968, "pitch": 70, "duration": 3, "velocity": 91}, {"time": 3971, "pitch": 72, "duration": 1, "velocity": 99}, {"time": 3974, "pitch": 70, "duration": 3, "velocity": 97}, {"time": 3977, "pitch": 72, "duration": 3, "velocity": 73}, {"time": 3980, "pitch": 74, "duration": 2, "velocity": 95}, {"time": 3983, "pitch": 77, "duration": 2, "velocity": 97}, {"time": 3986, "pitch": 74, "duration": 16, "velocity": 93}, {"time": 3986, "pitch": 82, "duration": 4, "velocity": 85}, {"time": 4064, "pitch": 81, "duration": 3, "velocity": 64}, {"time": 4070, "pitch": 79, "duration": 5, "velocity": 76}, {"time": 4076, "pitch": 77, "duration": 7, "velocity": 73}, {"time": 4082, "pitch": 74, "duration": 14, "velocity": 85}, {"time": 4160, "pitch": 77, "duration": 5, "velocity": 91}, {"time": 4166, "pitch": 79, "duration": 5, "velocity": 72}, {"time": 4172, "pitch": 77, "duration": 5, "velocity": 85}, {"time": 4178, "pitch": 74, "duration": 13, "velocity": 91}, {"time": 4250, "pitch": 67, "duration": 5, "velocity": 95}, {"time": 4256, "pitch": 74, "duration": 5, "velocity": 93}, {"time": 4262, "pitch": 72, "duration": 5, "velocity": 97}, {"time": 4268, "pitch": 70, "duration": 7, "velocity": 97}, {"time": 4274, "pitch": 67, "duration": 5, "velocity": 80}], "annotations": [{"time": 50, "annotation": {"number": 64, "value": 127}, "group": "control_change"}, {"time": 97, "annotation": {"number": 64, "value": 0}, "group": "control_change"}, {"time": 103, "annotation": {"number": 64, "value": 127}, "group": "control_change"}, {"time": 145, "annotation": {"number": 64, "value": 0}, "group": "control_change"}, {"time": 152, "annotation": {"number": 64, "value": 127}, "group": "control_change"}, {"time": 193, "annotation": {"number": 64, "value": 0}, "group": "control_change"}, {"time": 199, "annotation": {"number": 64, "value": 127}, "group": "control_change"}, {"time": 217, "annotation": {"number": 64, "value": 0}, "group": "control_change"}, {"time": 223, "annotation": {"number": 64, "value": 127}, "group": "control_change"}, {"time": 242, "annotation": {"number": 64, "value": 0}, "group": "control_change"}, {"time": 248, "annotation": {"number": 64, "value": 127}, "group": "control_change"}, {"time": 288, "annotation": {"number": 64, "value": 0}, "group": "control_change"}, {"time": 295, "annotation": {"number": 64, "value": 127}, "group": "control_change"}, {"time": 314, "annotation": {"number": 64, "value": 0}, "group": "control_change"}, {"time": 315, "annotation": {"number": 64, "value": 127}, "group": "control_change"}, {"time": 337, "annotation": {"number": 64, "value": 0}, "group": "control_change"}, {"time": 339, "annotation": {"number": 64, "value": 127}, "group": "control_change"}, {"time": 362, "annotation": {"number": 64, "value": 0}, "group": "control_change"}, {"time": 367, "annotation": {"number": 64, "value": 127}, "group": "control_change"}, {"time": 385, "annotation": {"number": 64, "value": 0}, "group": "control_change"}, {"time": 393, "annotation": {"number": 64, "value": 127}, "group": "control_change"}, {"time": 432, "annotation": {"number": 64, "value": 0}, "group": "control_change"}, {"time": 2018, "annotation": {"number": 64, "value": 127}, "group": "control_change"}, {"time": 2065, "annotation": {"number": 64, "value": 0}, "group": "control_change"}, {"time": 2071, "annotation": {"number": 64, "value": 127}, "group": "control_change"}, {"time": 2113, "annotation": {"number": 64, "value": 0}, "group": "control_change"}, {"time": 2120, "annotation": {"number": 64, "value": 127}, "group": "control_change"}, {"time": 2161, "annotation": {"number": 64, "value": 0}, "group": "control_change"}, {"time": 2167, "annotation": {"number": 64, "value": 127}, "group": "control_change"}, {"time": 2185, "annotation": {"number": 64, "value": 0}, "group": "control_change"}, {"time": 2191, "annotation": {"number": 64, "value": 127}, "group": "control_change"}, {"time": 2210, "annotation": {"number": 64, "value": 0}, "group": "control_change"}, {"time": 2216, "annotation": {"number": 64, "value": 127}, "group": "control_change"}, {"time": 2256, "annotation": {"number": 64, "value": 0}, "group": "control_change"}, {"time": 2263, "annotation": {"number": 64, "value": 127}, "group": "control_change"}, {"time": 2282, "annotation": {"number": 64, "value": 0}, "group": "control_change"}, {"time": 2283, "annotation": {"number": 64, "value": 127}, "group": "control_change"}, {"time": 2305, "annotation": {"number": 64, "value": 0}, "group": "control_change"}, {"time": 2307, "annotation": {"number": 64, "value": 127}, "group": "control_change"}, {"time": 2330, "annotation": {"number": 64, "value": 0}, "group": "control_change"}, {"time": 2335, "annotation": {"number": 64, "value": 127}, "group": "control_change"}, {"time": 2353, "annotation": {"number": 64, "value": 0}, "group": "control_change"}, {"time": 2361, "annotation": {"number": 64, "value": 127}, "group": "control_change"}, {"time": 2400, "annotation": {"number": 64, "value": 0}, "group": "control_change"}]}, {"program": 0, "is_drum": false, "name": "PIANO", "notes": [{"time": 50, "pitch": 46, "duration": 39, "velocity": 70}, {"time": 50, "pitch": 62, "duration": 12, "velocity": 70}, {"time": 50, "pitch": 65, "duration": 12, "velocity": 73}, {"time": 50, "pitch": 70, "duration": 14, "velocity": 70}, {"time": 56, "pitch": 53, "duration": 35, "velocity": 64}, {"time": 62, "pitch": 58, "duration": 27, "velocity": 70}, {"time": 68, "pitch": 60, "duration": 7, "velocity": 61}, {"time": 74, "pitch": 62, "duration": 6, "velocity": 66}, {"time": 80, "pitch": 65, "duration": 2, "velocity": 63}, {"time": 86, "pitch": 70, "duration": 5, "velocity": 78}, {"time": 98, "pitch": 43, "duration": 12, "velocity": 70}, {"time": 98, "pitch": 74, "duration": 21, "velocity": 80}, {"time": 104, "pitch": 50, "duration": 6, "velocity": 48}, {"time": 110, "pitch": 53, "duration": 7, "velocity": 60}, {"time": 116, "pitch": 55, "duration": 23, "velocity": 64}, {"time": 122, "pitch": 58, "duration": 15, "velocity": 64}, {"time": 128, "pitch": 62, "duration": 7, "velocity": 69}, {"time": 146, "pitch": 46, "duration": 43, "velocity": 73}, {"time": 146, "pitch": 60, "duration": 13, "velocity": 64}, {"time": 146, "pitch": 62, "duration": 13, "velocity": 69}, {"time": 146, "pitch": 65, "duration": 12, "velocity": 64}, {"time": 152, "pitch": 53, "duration": 19, "velocity": 54}, {"time": 158, "pitch": 58, "duration": 18, "velocity": 63}, {"time": 164, "pitch": 60, "duration": 12, "velocity": 61}, {"time": 170, "pitch": 62, "duration": 6, "velocity": 72}, {"time": 176, "pitch": 53, "duration": 9, "velocity": 52}, {"time": 182, "pitch": 60, "duration": 6, "velocity": 69}, {"time": 182, "pitch": 65, "duration": 5, "velocity": 75}, {"time": 188, "pitch": 53, "duration": 5, "velocity": 60}, {"time": 194, "pitch": 48, "duration": 17, "velocity": 69}, {"time": 194, "pitch": 58, "duration": 5, "velocity": 70}, {"time": 194, "pitch": 63, "duration": 11, "velocity": 72}, {"time": 194, "pitch": 67, "duration": 11, "velocity": 72}, {"time": 200, "pitch": 55, "duration": 11, "velocity": 59}, {"time": 206, "pitch": 60, "duration": 4, "velocity": 61}, {"time": 212, "pitch": 70, "duration": 6, "velocity": 75}, {"time": 218, "pitch": 41, "duration": 16, "velocity": 72}, {"time": 218, "pitch": 60, "duration": 7, "velocity": 67}, {"time": 218, "pitch": 65, "duration": 10, "velocity": 66}, {"time": 218, "pitch": 69, "duration": 11, "velocity": 69}, {"time": 224, "pitch": 48, "duration": 10, "velocity": 52}, {"time": 230, "pitch": 53, "duration": 6, "velocity": 62}, {"time": 230, "pitch": 62, "duration": 5, "velocity": 93}, {"time": 230, "pitch": 70, "duration": 6, "velocity": 78}, {"time": 242, "pitch": 51, "duration": 44, "velocity": 70}, {"time": 242, "pitch": 58, "duration": 7, "velocity": 78}, {"time": 242, "pitch": 63, "duration": 7, "velocity": 75}, {"time": 242, "pitch": 67, "duration": 7, "velocity": 72}, {"time": 248, "pitch": 55, "duration": 18, "velocity": 59}, {"time": 254, "pitch": 58, "duration": 4, "velocity": 73}, {"time": 260, "pitch": 63, "duration": 4, "velocity": 69}, {"time": 266, "pitch": 58, "duration": 7, "velocity": 59}, {"time": 266, "pitch": 67, "duration": 8, "velocity": 72}, {"time": 272, "pitch": 55, "duration": 7, "velocity": 58}, {"time": 278, "pitch": 58, "duration": 3, "velocity": 78}, {"time": 278, "pitch": 65, "duration": 5, "velocity": 88}, {"time": 284, "pitch": 55, "duration": 4, "velocity": 62}, {"time": 290, "pitch": 48, "duration": 24, "velocity": 62}, {"time": 290, "pitch": 60, "duration": 8, "velocity": 70}, {"time": 290, "pitch": 63, "duration": 12, "velocity": 72}, {"time": 290, "pitch": 67, "duration": 11, "velocity": 67}, {"time": 296, "pitch": 55, "duration": 17, "velocity": 54}, {"time": 302, "pitch": 60, "duration": 7, "velocity": 85}, {"time": 308, "pitch": 63, "duration": 5, "velocity": 78}, {"time": 314, "pitch": 50, "duration": 15, "velocity": 73}, {"time": 314, "pitch": 60, "duration": 7, "velocity": 73}, {"time": 314, "pitch": 65, "duration": 7, "velocity": 75}, {"time": 314, "pitch": 69, "duration": 7, "velocity": 73}, {"time": 320, "pitch": 57, "duration": 8, "velocity": 61}, {"time": 326, "pitch": 60, "duration": 5, "velocity": 67}, {"time": 332, "pitch": 65, "duration": 4, "velocity": 61}, {"time": 338, "pitch": 53, "duration": 16, "velocity": 60}, {"time": 338, "pitch": 60, "duration": 7, "velocity": 66}, {"time": 338, "pitch": 65, "duration": 7, "velocity": 67}, {"time": 338, "pitch": 69, "duration": 7, "velocity": 69}, {"time": 344, "pitch": 57, "duration": 9, "velocity": 70}, {"time": 350, "pitch": 60, "duration": 5, "velocity": 80}, {"time": 356, "pitch": 67, "duration": 5, "velocity": 64}, {"time": 362, "pitch": 41, "duration": 16, "velocity": 78}, {"time": 362, "pitch": 65, "duration": 4, "velocity": 73}, {"time": 362, "pitch": 69, "duration": 10, "velocity": 72}, {"time": 368, "pitch": 48, "duration": 10, "velocity": 59}, {"time": 374, "pitch": 53, "duration": 6, "velocity": 55}, {"time": 374, "pitch": 65, "duration": 2, "velocity": 69}, {"time": 380, "pitch": 67, "duration": 5, "velocity": 73}, {"time": 386, "pitch": 46, "duration": 37, "velocity": 70}, {"time": 386, "pitch": 65, "duration": 6, "velocity": 64}, {"time": 386, "pitch": 70, "duration": 8, "velocity": 73}, {"time": 392, "pitch": 53, "duration": 6, "velocity": 67}, {"time": 398, "pitch": 58, "duration": 19, "velocity": 53}, {"time": 398, "pitch": 63, "duration": 7, "velocity": 75}, {"time": 398, "pitch": 67, "duration": 5, "velocity": 70}, {"time": 404, "pitch": 70, "duration": 14, "velocity": 69}, {"time": 410, "pitch": 53, "duration": 13, "velocity": 49}, {"time": 410, "pitch": 62, "duration": 8, "velocity": 66}, {"time": 410, "pitch": 65, "duration": 8, "velocity": 67}, {"time": 422, "pitch": 58, "duration": 1, "velocity": 59}, {"time": 434, "pitch": 46, "duration": 30, "velocity": 73}, {"time": 434, "pitch": 62, "duration": 11, "velocity": 67}, {"time": 434, "pitch": 65, "duration": 11, "velocity": 69}, {"time": 440, "pitch": 53, "duration": 36, "velocity": 46}, {"time": 446, "pitch": 58, "duration": 11, "velocity": 60}, {"time": 452, "pitch": 60, "duration": 7, "velocity": 61}, {"time": 458, "pitch": 62, "duration": 10, "velocity": 61}, {"time": 464, "pitch": 58, "duration": 1, "velocity": 31}, {"time": 470, "pitch": 60, "duration": 7, "velocity": 60}, {"time": 470, "pitch": 65, "duration": 5, "velocity": 69}, {"time": 482, "pitch": 43, "duration": 10, "velocity": 67}, {"time": 482, "pitch": 58, "duration": 10, "velocity": 69}, {"time": 482, "pitch": 67, "duration": 18, "velocity": 63}, {"time": 488, "pitch": 50, "duration": 5, "velocity": 48}, {"time": 494, "pitch": 53, "duration": 6, "velocity": 56}, {"time": 500, "pitch": 55, "duration": 19, "velocity": 63}, {"time": 506, "pitch": 58, "duration": 11, "velocity": 64}, {"time": 512, "pitch": 62, "duration": 4, "velocity": 72}, {"time": 518, "pitch": 65, "duration": 6, "velocity": 69}, {"time": 524, "pitch": 72, "duration": 16, "velocity": 70}, {"time": 530, "pitch": 46, "duration": 24, "velocity": 67}, {"time": 530, "pitch": 62, "duration": 10, "velocity": 64}, {"time": 530, "pitch": 65, "duration": 10, "velocity": 69}, {"time": 536, "pitch": 53, "duration": 17, "velocity": 51}, {"time": 542, "pitch": 58, "duration": 10, "velocity": 53}, {"time": 548, "pitch": 60, "duration": 6, "velocity": 69}, {"time": 548, "pitch": 65, "duration": 7, "velocity": 62}, {"time": 554, "pitch": 50, "duration": 16, "velocity": 76}, {"time": 554, "pitch": 62, "duration": 6, "velocity": 64}, {"time": 554, "pitch": 65, "duration": 1, "velocity": 70}, {"time": 554, "pitch": 69, "duration": 6, "velocity": 70}, {"time": 560, "pitch": 57, "duration": 9, "velocity": 59}, {"time": 566, "pitch": 62, "duration": 5, "velocity": 70}, {"time": 572, "pitch": 65, "duration": 1, "velocity": 44}, {"time": 575, "pitch": 67, "duration": 1, "velocity": 46}, {"time": 578, "pitch": 41, "duration": 11, "velocity": 64}, {"time": 578, "pitch": 60, "duration": 20, "velocity": 64}, {"time": 578, "pitch": 65, "duration": 20, "velocity": 75}, {"time": 584, "pitch": 48, "duration": 6, "velocity": 48}, {"time": 590, "pitch": 53, "duration": 6, "velocity": 53}, {"time": 596, "pitch": 55, "duration": 18, "velocity": 67}, {"time": 602, "pitch": 57, "duration": 12, "velocity": 69}, {"time": 608, "pitch": 60, "duration": 5, "velocity": 63}, {"time": 614, "pitch": 65, "duration": 6, "velocity": 70}, {"time": 620, "pitch": 70, "duration": 2, "velocity": 59}, {"time": 626, "pitch": 50, "duration": 17, "velocity": 75}, {"time": 626, "pitch": 65, "duration": 10, "velocity": 72}, {"time": 626, "pitch": 69, "duration": 11, "velocity": 67}, {"time": 632, "pitch": 57, "duration": 10, "velocity": 52}, {"time": 638, "pitch": 60, "duration": 4, "velocity": 70}, {"time": 644, "pitch": 69, "duration": 4, "velocity": 44}, {"time": 650, "pitch": 41, "duration": 16, "velocity": 73}, {"time": 650, "pitch": 60, "duration": 12, "velocity": 62}, {"time": 650, "pitch": 65, "duration": 12, "velocity": 70}, {"time": 656, "pitch": 48, "duration": 10, "velocity": 55}, {"time": 662, "pitch": 53, "duration": 6, "velocity": 64}, {"time": 668, "pitch": 60, "duration": 3, "velocity": 58}, {"time": 674, "pitch": 50, "duration": 16, "velocity": 76}, {"time": 674, "pitch": 60, "duration": 7, "velocity": 67}, {"time": 674, "pitch": 65, "duration": 7, "velocity": 72}, {"time": 680, "pitch": 57, "duration": 9, "velocity": 57}, {"time": 686, "pitch": 60, "duration": 4, "velocity": 82}, {"time": 692, "pitch": 65, "duration": 6, "velocity": 69}, {"time": 698, "pitch": 43, "duration": 15, "velocity": 73}, {"time": 698, "pitch": 62, "duration": 8, "velocity": 70}, {"time": 698, "pitch": 70, "duration": 9, "velocity": 78}, {"time": 704, "pitch": 50, "duration": 9, "velocity": 40}, {"time": 710, "pitch": 55, "duration": 3, "velocity": 57}, {"time": 710, "pitch": 62, "duration": 2, "velocity": 70}, {"time": 710, "pitch": 69, "duration": 2, "velocity": 63}, {"time": 722, "pitch": 48, "duration": 40, "velocity": 57}, {"time": 722, "pitch": 63, "duration": 10, "velocity": 76}, {"time": 722, "pitch": 67, "duration": 10, "velocity": 72}, {"time": 728, "pitch": 51, "duration": 34, "velocity": 60}, {"time": 734, "pitch": 55, "duration": 12, "velocity": 61}, {"time": 740, "pitch": 60, "duration": 5, "velocity": 73}, {"time": 746, "pitch": 60, "duration": 1, "velocity": 35}, {"time": 746, "pitch": 63, "duration": 7, "velocity": 75}, {"time": 752, "pitch": 55, "duration": 8, "velocity": 51}, {"time": 758, "pitch": 60, "duration": 5, "velocity": 73}, {"time": 764, "pitch": 67, "duration": 4, "velocity": 56}, {"time": 770, "pitch": 48, "duration": 15, "velocity": 66}, {"time": 770, "pitch": 63, "duration": 5, "velocity": 64}, {"time": 770, "pitch": 67, "duration": 5, "velocity": 60}, {"time": 776, "pitch": 55, "duration": 9, "velocity": 46}, {"time": 776, "pitch": 62, "duration": 6, "velocity": 49}, {"time": 776, "pitch": 65, "duration": 5, "velocity": 62}, {"time": 782, "pitch": 60, "duration": 3, "velocity": 61}, {"time": 782, "pitch": 63, "duration": 1, "velocity": 61}, {"time": 782, "pitch": 67, "duration": 1, "velocity": 69}, {"time": 788, "pitch": 70, "duration": 5, "velocity": 60}, {"time": 794, "pitch": 46, "duration": 37, "velocity": 63}, {"time": 794, "pitch": 65, "duration": 9, "velocity": 58}, {"time": 794, "pitch": 74, "duration": 8, "velocity": 64}, {"time": 800, "pitch": 53, "duration": 17, "velocity": 45}, {"time": 806, "pitch": 58, "duration": 24, "velocity": 61}, {"time": 812, "pitch": 60, "duration": 5, "velocity": 62}, {"time": 818, "pitch": 65, "duration": 6, "velocity": 59}, {"time": 824, "pitch": 67, "duration": 1, "velocity": 75}, {"time": 830, "pitch": 53, "duration": 4, "velocity": 75}, {"time": 830, "pitch": 70, "duration": 4, "velocity": 73}, {"time": 836, "pitch": 72, "duration": 4, "velocity": 78}, {"time": 839, "pitch": 65, "duration": 3, "velocity": 51}, {"time": 839, "pitch": 70, "duration": 2, "velocity": 49}, {"time": 842, "pitch": 46, "duration": 8, "velocity": 63}, {"time": 842, "pitch": 74, "duration": 6, "velocity": 85}, {"time": 848, "pitch": 53, "duration": 5, "velocity": 58}, {"time": 848, "pitch": 65, "duration": 4, "velocity": 49}, {"time": 854, "pitch": 58, "duration": 6, "velocity": 56}, {"time": 854, "pitch": 72, "duration": 5, "velocity": 60}, {"time": 860, "pitch": 60, "duration": 6, "velocity": 63}, {"time": 860, "pitch": 74, "duration": 6, "velocity": 72}, {"time": 866, "pitch": 50, "duration": 16, "velocity": 66}, {"time": 866, "pitch": 65, "duration": 6, "velocity": 58}, {"time": 866, "pitch": 69, "duration": 6, "velocity": 64}, {"time": 872, "pitch": 57, "duration": 10, "velocity": 54}, {"time": 872, "pitch": 67, "duration": 5, "velocity": 66}, {"time": 878, "pitch": 62, "duration": 3, "velocity": 50}, {"time": 878, "pitch": 69, "duration": 6, "velocity": 59}, {"time": 884, "pitch": 72, "duration": 6, "velocity": 66}, {"time": 890, "pitch": 48, "duration": 18, "velocity": 66}, {"time": 890, "pitch": 60, "duration": 7, "velocity": 57}, {"time": 890, "pitch": 63, "duration": 10, "velocity": 60}, {"time": 890, "pitch": 67, "duration": 11, "velocity": 52}, {"time": 896, "pitch": 55, "duration": 12, "velocity": 46}, {"time": 902, "pitch": 60, "duration": 4, "velocity": 46}, {"time": 902, "pitch": 65, "duration": 6, "velocity": 55}, {"time": 914, "pitch": 65, "duration": 10, "velocity": 70}, {"time": 914, "pitch": 46, "duration": 17, "velocity": 70}, {"time": 914, "pitch": 62, "duration": 7, "velocity": 61}, {"time": 920, "pitch": 53, "duration": 12, "velocity": 57}, {"time": 926, "pitch": 58, "duration": 5, "velocity": 49}, {"time": 926, "pitch": 60, "duration": 2, "velocity": 56}, {"time": 926, "pitch": 63, "duration": 6, "velocity": 66}, {"time": 932, "pitch": 62, "duration": 2, "velocity": 52}, {"time": 932, "pitch": 65, "duration": 3, "velocity": 67}, {"time": 938, "pitch": 50, "duration": 15, "velocity": 73}, {"time": 938, "pitch": 69, "duration": 6, "velocity": 67}, {"time": 944, "pitch": 57, "duration": 10, "velocity": 55}, {"time": 944, "pitch": 72, "duration": 3, "velocity": 69}, {"time": 950, "pitch": 62, "duration": 4, "velocity": 61}, {"time": 950, "pitch": 74, "duration": 5, "velocity": 73}, {"time": 956, "pitch": 77, "duration": 4, "velocity": 72}, {"time": 962, "pitch": 55, "duration": 17, "velocity": 72}, {"time": 962, "pitch": 70, "duration": 6, "velocity": 76}, {"time": 962, "pitch": 74, "duration": 6, "velocity": 75}, {"time": 968, "pitch": 62, "duration": 10, "velocity": 54}, {"time": 968, "pitch": 69, "duration": 3, "velocity": 42}, {"time": 968, "pitch": 72, "duration": 4, "velocity": 73}, {"time": 974, "pitch": 67, "duration": 3, "velocity": 61}, {"time": 974, "pitch": 70, "duration": 5, "velocity": 63}, {"time": 974, "pitch": 74, "duration": 6, "velocity": 70}, {"time": 980, "pitch": 77, "duration": 4, "velocity": 61}, {"time": 986, "pitch": 48, "duration": 10, "velocity": 54}, {"time": 986, "pitch": 72, "duration": 4, "velocity": 67}, {"time": 992, "pitch": 55, "duration": 5, "velocity": 61}, {"time": 992, "pitch": 70, "duration": 4, "velocity": 61}, {"time": 998, "pitch": 60, "duration": 7, "velocity": 52}, {"time": 998, "pitch": 67, "duration": 7, "velocity": 73}, {"time": 1004, "pitch": 62, "duration": 10, "velocity": 54}, {"time": 1004, "pitch": 70, "duration": 6, "velocity": 73}, {"time": 1010, "pitch": 41, "duration": 12, "velocity": 78}, {"time": 1010, "pitch": 69, "duration": 6, "velocity": 73}, {"time": 1016, "pitch": 48, "duration": 6, "velocity": 59}, {"time": 1016, "pitch": 67, "duration": 5, "velocity": 67}, {"time": 1022, "pitch": 53, "duration": 8, "velocity": 63}, {"time": 1022, "pitch": 65, "duration": 7, "velocity": 67}, {"time": 1028, "pitch": 55, "duration": 6, "velocity": 62}, {"time": 1028, "pitch": 70, "duration": 6, "velocity": 63}, {"time": 1034, "pitch": 50, "duration": 18, "velocity": 72}, {"time": 1034, "pitch": 65, "duration": 4, "velocity": 72}, {"time": 1034, "pitch": 69, "duration": 5, "velocity": 70}, {"time": 1040, "pitch": 57, "duration": 11, "velocity": 55}, {"time": 1040, "pitch": 67, "duration": 5, "velocity": 73}, {"time": 1046, "pitch": 62, "duration": 3, "velocity": 78}, {"time": 1046, "pitch": 65, "duration": 7, "velocity": 70}, {"time": 1046, "pitch": 69, "duration": 5, "velocity": 76}, {"time": 1052, "pitch": 72, "duration": 4, "velocity": 73}, {"time": 1058, "pitch": 60, "duration": 7, "velocity": 47}, {"time": 1058, "pitch": 62, "duration": 1, "velocity": 43}, {"time": 1058, "pitch": 65, "duration": 7, "velocity": 59}, {"time": 1058, "pitch": 69, "duration": 7, "velocity": 72}, {"time": 1061, "pitch": 41, "duration": 14, "velocity": 69}, {"time": 1064, "pitch": 48, "duration": 10, "velocity": 70}, {"time": 1070, "pitch": 53, "duration": 5, "velocity": 75}, {"time": 1073, "pitch": 60, "duration": 2, "velocity": 95}, {"time": 1076, "pitch": 65, "duration": 2, "velocity": 70}, {"time": 1079, "pitch": 67, "duration": 2, "velocity": 78}, {"time": 1082, "pitch": 50, "duration": 15, "velocity": 69}, {"time": 1082, "pitch": 60, "duration": 5, "velocity": 95}, {"time": 1082, "pitch": 65, "duration": 5, "velocity": 91}, {"time": 1082, "pitch": 72, "duration": 8, "velocity": 75}, {"time": 1088, "pitch": 57, "duration": 9, "velocity": 50}, {"time": 1094, "pitch": 62, "duration": 2, "velocity": 73}, {"time": 1097, "pitch": 70, "duration": 1, "velocity": 85}, {"time": 1100, "pitch": 72, "duration": 2, "velocity": 76}, {"time": 1103, "pitch": 77, "duration": 3, "velocity": 67}, {"time": 1106, "pitch": 43, "duration": 16, "velocity": 58}, {"time": 1106, "pitch": 70, "duration": 5, "velocity": 69}, {"time": 1106, "pitch": 74, "duration": 6, "velocity": 82}, {"time": 1112, "pitch": 50, "duration": 10, "velocity": 66}, {"time": 1112, "pitch": 69, "duration": 3, "velocity": 70}, {"time": 1112, "pitch": 72, "duration": 2, "velocity": 69}, {"time": 1118, "pitch": 55, "duration": 5, "velocity": 58}, {"time": 1118, "pitch": 67, "duration": 3, "velocity": 63}, {"time": 1118, "pitch": 70, "duration": 3, "velocity": 66}, {"time": 1124, "pitch": 69, "duration": 2, "velocity": 73}, {"time": 1130, "pitch": 48, "duration": 17, "velocity": 64}, {"time": 1130, "pitch": 60, "duration": 5, "velocity": 44}, {"time": 1130, "pitch": 63, "duration": 9, "velocity": 69}, {"time": 1130, "pitch": 67, "duration": 7, "velocity": 82}, {"time": 1136, "pitch": 55, "duration": 10, "velocity": 59}, {"time": 1142, "pitch": 60, "duration": 3, "velocity": 62}, {"time": 1148, "pitch": 63, "duration": 4, "velocity": 82}, {"time": 1154, "pitch": 36, "duration": 18, "velocity": 67}, {"time": 1154, "pitch": 60, "duration": 4, "velocity": 70}, {"time": 1154, "pitch": 67, "duration": 6, "velocity": 73}, {"time": 1160, "pitch": 48, "duration": 8, "velocity": 48}, {"time": 1160, "pitch": 60, "duration": 1, "velocity": 48}, {"time": 1160, "pitch": 65, "duration": 2, "velocity": 66}, {"time": 1166, "pitch": 58, "duration": 2, "velocity": 55}, {"time": 1166, "pitch": 63, "duration": 3, "velocity": 63}, {"time": 1172, "pitch": 48, "duration": 2, "velocity": 78}, {"time": 1178, "pitch": 46, "duration": 38, "velocity": 51}, {"time": 1178, "pitch": 58, "duration": 4, "velocity": 75}, {"time": 1178, "pitch": 62, "duration": 5, "velocity": 67}, {"time": 1184, "pitch": 53, "duration": 7, "velocity": 61}, {"time": 1190, "pitch": 58, "duration": 7, "velocity": 62}, {"time": 1202, "pitch": 53, "duration": 7, "velocity": 66}, {"time": 1202, "pitch": 62, "duration": 2, "velocity": 73}, {"time": 1202, "pitch": 70, "duration": 2, "velocity": 80}, {"time": 1208, "pitch": 58, "duration": 7, "velocity": 69}, {"time": 1208, "pitch": 63, "duration": 2, "velocity": 75}, {"time": 1208, "pitch": 72, "duration": 2, "velocity": 76}, {"time": 1214, "pitch": 53, "duration": 8, "velocity": 67}, {"time": 1214, "pitch": 63, "duration": 2, "velocity": 63}, {"time": 1214, "pitch": 72, "duration": 3, "velocity": 73}, {"time": 1220, "pitch": 65, "duration": 2, "velocity": 62}, {"time": 1220, "pitch": 74, "duration": 2, "velocity": 75}, {"time": 1226, "pitch": 46, "duration": 20, "velocity": 67}, {"time": 1232, "pitch": 53, "duration": 16, "velocity": 62}, {"time": 1235, "pitch": 58, "duration": 7, "velocity": 75}, {"time": 1238, "pitch": 60, "duration": 4, "velocity": 60}, {"time": 1241, "pitch": 65, "duration": 3, "velocity": 59}, {"time": 1244, "pitch": 70, "duration": 11, "velocity": 69}, {"time": 1247, "pitch": 62, "duration": 6, "velocity": 70}, {"time": 1250, "pitch": 46, "duration": 17, "velocity": 75}, {"time": 1253, "pitch": 53, "duration": 9, "velocity": 70}, {"time": 1256, "pitch": 58, "duration": 8, "velocity": 73}, {"time": 1259, "pitch": 60, "duration": 4, "velocity": 72}, {"time": 1262, "pitch": 65, "duration": 3, "velocity": 62}, {"time": 1265, "pitch": 53, "duration": 3, "velocity": 70}, {"time": 1265, "pitch": 70, "duration": 3, "velocity": 49}, {"time": 1268, "pitch": 65, "duration": 3, "velocity": 58}, {"time": 1271, "pitch": 67, "duration": 3, "velocity": 67}, {"time": 1274, "pitch": 43, "duration": 18, "velocity": 70}, {"time": 1274, "pitch": 70, "duration": 5, "velocity": 80}, {"time": 1280, "pitch": 50, "duration": 12, "velocity": 62}, {"time": 1283, "pitch": 55, "duration": 7, "velocity": 69}, {"time": 1286, "pitch": 57, "duration": 3, "velocity": 80}, {"time": 1289, "pitch": 58, "duration": 2, "velocity": 66}, {"time": 1292, "pitch": 60, "duration": 2, "velocity": 70}, {"time": 1295, "pitch": 62, "duration": 2, "velocity": 70}, {"time": 1298, "pitch": 41, "duration": 12, "velocity": 70}, {"time": 1298, "pitch": 57, "duration": 5, "velocity": 82}, {"time": 1298, "pitch": 60, "duration": 4, "velocity": 88}, {"time": 1298, "pitch": 65, "duration": 4, "velocity": 64}, {"time": 1304, "pitch": 48, "duration": 6, "velocity": 63}, {"time": 1304, "pitch": 58, "duration": 4, "velocity": 70}, {"time": 1304, "pitch": 62, "duration": 5, "velocity": 75}, {"time": 1310, "pitch": 53, "duration": 7, "velocity": 69}, {"time": 1310, "pitch": 58, "duration": 1, "velocity": 70}, {"time": 1310, "pitch": 65, "duration": 1, "velocity": 69}, {"time": 1316, "pitch": 55, "duration": 1, "velocity": 73}, {"time": 1316, "pitch": 65, "duration": 1, "velocity": 76}, {"time": 1322, "pitch": 43, "duration": 39, "velocity": 72}, {"time": 1322, "pitch": 58, "duration": 7, "velocity": 72}, {"time": 1322, "pitch": 62, "duration": 9, "velocity": 69}, {"time": 1322, "pitch": 67, "duration": 9, "velocity": 72}, {"time": 1328, "pitch": 50, "duration": 33, "velocity": 64}, {"time": 1334, "pitch": 55, "duration": 7, "velocity": 67}, {"time": 1340, "pitch": 58, "duration": 4, "velocity": 62}, {"time": 1346, "pitch": 55, "duration": 3, "velocity": 54}, {"time": 1346, "pitch": 58, "duration": 1, "velocity": 49}, {"time": 1346, "pitch": 62, "duration": 3, "velocity": 73}, {"time": 1346, "pitch": 67, "duration": 4, "velocity": 75}, {"time": 1352, "pitch": 67, "duration": 2, "velocity": 58}, {"time": 1358, "pitch": 55, "duration": 6, "velocity": 75}, {"time": 1358, "pitch": 70, "duration": 5, "velocity": 91}, {"time": 1364, "pitch": 74, "duration": 6, "velocity": 70}, {"time": 1370, "pitch": 43, "duration": 13, "velocity": 70}, {"time": 1370, "pitch": 58, "duration": 4, "velocity": 72}, {"time": 1370, "pitch": 67, "duration": 5, "velocity": 76}, {"time": 1376, "pitch": 50, "duration": 8, "velocity": 66}, {"time": 1376, "pitch": 58, "duration": 1, "velocity": 41}, {"time": 1376, "pitch": 65, "duration": 6, "velocity": 73}, {"time": 1382, "pitch": 55, "duration": 11, "velocity": 78}, {"time": 1382, "pitch": 67, "duration": 1, "velocity": 78}, {"time": 1388, "pitch": 70, "duration": 6, "velocity": 85}, {"time": 1394, "pitch": 48, "duration": 18, "velocity": 66}, {"time": 1394, "pitch": 72, "duration": 10, "velocity": 85}, {"time": 1400, "pitch": 55, "duration": 12, "velocity": 64}, {"time": 1406, "pitch": 60, "duration": 5, "velocity": 75}, {"time": 1412, "pitch": 63, "duration": 3, "velocity": 80}, {"time": 1418, "pitch": 50, "duration": 19, "velocity": 63}, {"time": 1418, "pitch": 65, "duration": 4, "velocity": 75}, {"time": 1418, "pitch": 69, "duration": 5, "velocity": 69}, {"time": 1424, "pitch": 57, "duration": 8, "velocity": 60}, {"time": 1424, "pitch": 67, "duration": 5, "velocity": 82}, {"time": 1430, "pitch": 62, "duration": 4, "velocity": 80}, {"time": 1430, "pitch": 65, "duration": 6, "velocity": 78}, {"time": 1430, "pitch": 69, "duration": 6, "velocity": 85}, {"time": 1436, "pitch": 57, "duration": 1, "velocity": 50}, {"time": 1436, "pitch": 72, "duration": 10, "velocity": 69}, {"time": 1442, "pitch": 41, "duration": 15, "velocity": 73}, {"time": 1442, "pitch": 60, "duration": 8, "velocity": 75}, {"time": 1442, "pitch": 65, "duration": 8, "velocity": 75}, {"time": 1448, "pitch": 48, "duration": 10, "velocity": 66}, {"time": 1454, "pitch": 53, "duration": 6, "velocity": 75}, {"time": 1460, "pitch": 60, "duration": 3, "velocity": 82}, {"time": 1466, "pitch": 50, "duration": 20, "velocity": 70}, {"time": 1466, "pitch": 62, "duration": 5, "velocity": 80}, {"time": 1466, "pitch": 65, "duration": 4, "velocity": 80}, {"time": 1472, "pitch": 57, "duration": 7, "velocity": 58}, {"time": 1472, "pitch": 67, "duration": 5, "velocity": 78}, {"time": 1478, "pitch": 62, "duration": 4, "velocity": 66}, {"time": 1478, "pitch": 69, "duration": 5, "velocity": 85}, {"time": 1484, "pitch": 57, "duration": 1, "velocity": 66}, {"time": 1484, "pitch": 72, "duration": 2, "velocity": 75}, {"time": 1490, "pitch": 43, "duration": 11, "velocity": 69}, {"time": 1490, "pitch": 62, "duration": 2, "velocity": 61}, {"time": 1490, "pitch": 70, "duration": 2, "velocity": 75}, {"time": 1496, "pitch": 50, "duration": 5, "velocity": 62}, {"time": 1496, "pitch": 65, "duration": 2, "velocity": 69}, {"time": 1496, "pitch": 74, "duration": 2, "velocity": 76}, {"time": 1502, "pitch": 55, "duration": 7, "velocity": 69}, {"time": 1502, "pitch": 65, "duration": 5, "velocity": 69}, {"time": 1502, "pitch": 74, "duration": 6, "velocity": 73}, {"time": 1508, "pitch": 57, "duration": 1, "velocity": 72}, {"time": 1514, "pitch": 48, "duration": 18, "velocity": 82}, {"time": 1514, "pitch": 72, "duration": 9, "velocity": 62}, {"time": 1520, "pitch": 55, "duration": 12, "velocity": 64}, {"time": 1520, "pitch": 63, "duration": 7, "velocity": 56}, {"time": 1526, "pitch": 60, "duration": 3, "velocity": 76}, {"time": 1526, "pitch": 67, "duration": 5, "velocity": 85}, {"time": 1532, "pitch": 70, "duration": 3, "velocity": 75}, {"time": 1538, "pitch": 48, "duration": 16, "velocity": 67}, {"time": 1538, "pitch": 63, "duration": 5, "velocity": 67}, {"time": 1538, "pitch": 67, "duration": 5, "velocity": 63}, {"time": 1544, "pitch": 55, "duration": 11, "velocity": 63}, {"time": 1544, "pitch": 60, "duration": 5, "velocity": 54}, {"time": 1544, "pitch": 65, "duration": 5, "velocity": 62}, {"time": 1550, "pitch": 58, "duration": 2, "velocity": 60}, {"time": 1550, "pitch": 63, "duration": 5, "velocity": 66}, {"time": 1550, "pitch": 67, "duration": 6, "velocity": 73}, {"time": 1556, "pitch": 70, "duration": 3, "velocity": 59}, {"time": 1562, "pitch": 41, "duration": 9, "velocity": 80}, {"time": 1562, "pitch": 60, "duration": 7, "velocity": 63}, {"time": 1562, "pitch": 65, "duration": 11, "velocity": 69}, {"time": 1568, "pitch": 48, "duration": 5, "velocity": 73}, {"time": 1574, "pitch": 53, "duration": 6, "velocity": 78}, {"time": 1580, "pitch": 55, "duration": 1, "velocity": 70}, {"time": 1586, "pitch": 41, "duration": 11, "velocity": 75}, {"time": 1586, "pitch": 58, "duration": 3, "velocity": 78}, {"time": 1589, "pitch": 60, "duration": 1, "velocity": 80}, {"time": 1592, "pitch": 48, "duration": 5, "velocity": 70}, {"time": 1592, "pitch": 65, "duration": 1, "velocity": 76}, {"time": 1595, "pitch": 70, "duration": 3, "velocity": 95}, {"time": 1598, "pitch": 53, "duration": 6, "velocity": 91}, {"time": 1598, "pitch": 72, "duration": 2, "velocity": 95}, {"time": 1601, "pitch": 74, "duration": 2, "velocity": 93}, {"time": 1604, "pitch": 55, "duration": 1, "velocity": 70}, {"time": 1604, "pitch": 75, "duration": 3, "velocity": 72}, {"time": 1607, "pitch": 77, "duration": 1, "velocity": 85}, {"time": 1610, "pitch": 46, "duration": 18, "velocity": 66}, {"time": 1610, "pitch": 77, "duration": 5, "velocity": 73}, {"time": 1616, "pitch": 53, "duration": 7, "velocity": 63}, {"time": 1616, "pitch": 77, "duration": 4, "velocity": 70}, {"time": 1622, "pitch": 58, "duration": 6, "velocity": 82}, {"time": 1622, "pitch": 74, "duration": 4, "velocity": 93}, {"time": 1622, "pitch": 77, "duration": 1, "velocity": 44}, {"time": 1628, "pitch": 53, "duration": 3, "velocity": 54}, {"time": 1628, "pitch": 72, "duration": 5, "velocity": 82}, {"time": 1634, "pitch": 46, "duration": 18, "velocity": 82}, {"time": 1634, "pitch": 65, "duration": 4, "velocity": 88}, {"time": 1634, "pitch": 70, "duration": 3, "velocity": 82}, {"time": 1640, "pitch": 53, "duration": 6, "velocity": 66}, {"time": 1646, "pitch": 58, "duration": 4, "velocity": 76}, {"time": 1646, "pitch": 62, "duration": 3, "velocity": 75}, {"time": 1646, "pitch": 65, "duration": 4, "velocity": 95}, {"time": 1652, "pitch": 53, "duration": 1, "velocity": 60}, {"time": 1652, "pitch": 63, "duration": 1, "velocity": 49}, {"time": 1652, "pitch": 67, "duration": 4, "velocity": 97}, {"time": 1658, "pitch": 43, "duration": 20, "velocity": 72}, {"time": 1658, "pitch": 62, "duration": 4, "velocity": 66}, {"time": 1658, "pitch": 70, "duration": 4, "velocity": 78}, {"time": 1664, "pitch": 50, "duration": 6, "velocity": 64}, {"time": 1664, "pitch": 62, "duration": 4, "velocity": 76}, {"time": 1664, "pitch": 69, "duration": 5, "velocity": 80}, {"time": 1670, "pitch": 55, "duration": 4, "velocity": 67}, {"time": 1670, "pitch": 62, "duration": 4, "velocity": 80}, {"time": 1670, "pitch": 70, "duration": 4, "velocity": 67}, {"time": 1676, "pitch": 50, "duration": 2, "velocity": 62}, {"time": 1676, "pitch": 69, "duration": 4, "velocity": 93}, {"time": 1682, "pitch": 41, "duration": 7, "velocity": 70}, {"time": 1682, "pitch": 60, "duration": 6, "velocity": 76}, {"time": 1682, "pitch": 65, "duration": 6, "velocity": 93}, {"time": 1688, "pitch": 48, "duration": 2, "velocity": 62}, {"time": 1691, "pitch": 53, "duration": 4, "velocity": 93}, {"time": 1694, "pitch": 55, "duration": 4, "velocity": 70}, {"time": 1697, "pitch": 57, "duration": 1, "velocity": 97}, {"time": 1700, "pitch": 60, "duration": 2, "velocity": 85}, {"time": 1703, "pitch": 65, "duration": 2, "velocity": 67}, {"time": 1706, "pitch": 43, "duration": 19, "velocity": 85}, {"time": 1706, "pitch": 58, "duration": 7, "velocity": 76}, {"time": 1706, "pitch": 62, "duration": 7, "velocity": 75}, {"time": 1706, "pitch": 67, "duration": 6, "velocity": 75}, {"time": 1712, "pitch": 50, "duration": 7, "velocity": 58}, {"time": 1718, "pitch": 55, "duration": 6, "velocity": 60}, {"time": 1718, "pitch": 58, "duration": 4, "velocity": 76}, {"time": 1718, "pitch": 62, "duration": 4, "velocity": 76}, {"time": 1718, "pitch": 67, "duration": 4, "velocity": 73}, {"time": 1724, "pitch": 50, "duration": 3, "velocity": 67}, {"time": 1730, "pitch": 41, "duration": 10, "velocity": 66}, {"time": 1730, "pitch": 60, "duration": 4, "velocity": 54}, {"time": 1730, "pitch": 65, "duration": 5, "velocity": 66}, {"time": 1730, "pitch": 69, "duration": 5, "velocity": 55}, {"time": 1736, "pitch": 48, "duration": 6, "velocity": 67}, {"time": 1736, "pitch": 60, "duration": 4, "velocity": 62}, {"time": 1736, "pitch": 67, "duration": 6, "velocity": 78}, {"time": 1742, "pitch": 53, "duration": 7, "velocity": 64}, {"time": 1742, "pitch": 60, "duration": 6, "velocity": 67}, {"time": 1742, "pitch": 72, "duration": 5, "velocity": 75}, {"time": 1748, "pitch": 55, "duration": 2, "velocity": 66}, {"time": 1754, "pitch": 43, "duration": 18, "velocity": 75}, {"time": 1754, "pitch": 58, "duration": 8, "velocity": 73}, {"time": 1754, "pitch": 62, "duration": 6, "velocity": 75}, {"time": 1754, "pitch": 67, "duration": 6, "velocity": 73}, {"time": 1760, "pitch": 50, "duration": 12, "velocity": 66}, {"time": 1760, "pitch": 65, "duration": 5, "velocity": 72}, {"time": 1766, "pitch": 55, "duration": 3, "velocity": 64}, {"time": 1766, "pitch": 58, "duration": 3, "velocity": 73}, {"time": 1766, "pitch": 67, "duration": 3, "velocity": 60}, {"time": 1772, "pitch": 55, "duration": 3, "velocity": 69}, {"time": 1778, "pitch": 48, "duration": 20, "velocity": 66}, {"time": 1778, "pitch": 60, "duration": 6, "velocity": 72}, {"time": 1778, "pitch": 65, "duration": 7, "velocity": 78}, {"time": 1784, "pitch": 55, "duration": 14, "velocity": 66}, {"time": 1784, "pitch": 63, "duration": 6, "velocity": 73}, {"time": 1790, "pitch": 60, "duration": 5, "velocity": 70}, {"time": 1790, "pitch": 65, "duration": 4, "velocity": 72}, {"time": 1796, "pitch": 67, "duration": 5, "velocity": 76}, {"time": 1802, "pitch": 50, "duration": 17, "velocity": 72}, {"time": 1802, "pitch": 69, "duration": 5, "velocity": 88}, {"time": 1808, "pitch": 57, "duration": 10, "velocity": 59}, {"time": 1808, "pitch": 67, "duration": 7, "velocity": 88}, {"time": 1814, "pitch": 62, "duration": 3, "velocity": 72}, {"time": 1820, "pitch": 74, "duration": 4, "velocity": 72}, {"time": 1826, "pitch": 41, "duration": 15, "velocity": 67}, {"time": 1826, "pitch": 77, "duration": 7, "velocity": 62}, {"time": 1832, "pitch": 48, "duration": 9, "velocity": 69}, {"time": 1838, "pitch": 53, "duration": 5, "velocity": 63}, {"time": 1838, "pitch": 79, "duration": 4, "velocity": 76}, {"time": 1844, "pitch": 77, "duration": 4, "velocity": 75}, {"time": 1850, "pitch": 50, "duration": 17, "velocity": 69}, {"time": 1850, "pitch": 74, "duration": 5, "velocity": 91}, {"time": 1856, "pitch": 57, "duration": 11, "velocity": 57}, {"time": 1856, "pitch": 72, "duration": 6, "velocity": 85}, {"time": 1862, "pitch": 62, "duration": 2, "velocity": 58}, {"time": 1862, "pitch": 72, "duration": 1, "velocity": 80}, {"time": 1868, "pitch": 65, "duration": 4, "velocity": 64}, {"time": 1874, "pitch": 43, "duration": 19, "velocity": 73}, {"time": 1874, "pitch": 67, "duration": 5, "velocity": 85}, {"time": 1880, "pitch": 50, "duration": 6, "velocity": 50}, {"time": 1886, "pitch": 55, "duration": 4, "velocity": 61}, {"time": 1886, "pitch": 62, "duration": 2, "velocity": 75}, {"time": 1886, "pitch": 70, "duration": 2, "velocity": 76}, {"time": 1892, "pitch": 50, "duration": 2, "velocity": 62}, {"time": 1892, "pitch": 60, "duration": 2, "velocity": 75}, {"time": 1892, "pitch": 69, "duration": 2, "velocity": 67}, {"time": 1898, "pitch": 48, "duration": 40, "velocity": 69}, {"time": 1898, "pitch": 58, "duration": 5, "velocity": 76}, {"time": 1898, "pitch": 67, "duration": 11, "velocity": 76}, {"time": 1904, "pitch": 55, "duration": 13, "velocity": 54}, {"time": 1910, "pitch": 60, "duration": 4, "velocity": 64}, {"time": 1910, "pitch": 63, "duration": 6, "velocity": 72}, {"time": 1916, "pitch": 67, "duration": 4, "velocity": 63}, {"time": 1922, "pitch": 55, "duration": 9, "velocity": 60}, {"time": 1922, "pitch": 60, "duration": 5, "velocity": 63}, {"time": 1922, "pitch": 63, "duration": 7, "velocity": 70}, {"time": 1922, "pitch": 67, "duration": 4, "velocity": 55}, {"time": 1928, "pitch": 65, "duration": 4, "velocity": 69}, {"time": 1934, "pitch": 55, "duration": 3, "velocity": 70}, {"time": 1934, "pitch": 63, "duration": 3, "velocity": 82}, {"time": 1934, "pitch": 67, "duration": 6, "velocity": 88}, {"time": 1940, "pitch": 70, "duration": 4, "velocity": 67}, {"time": 1946, "pitch": 48, "duration": 12, "velocity": 70}, {"time": 1946, "pitch": 63, "duration": 5, "velocity": 75}, {"time": 1946, "pitch": 67, "duration": 5, "velocity": 69}, {"time": 1952, "pitch": 55, "duration": 7, "velocity": 63}, {"time": 1952, "pitch": 62, "duration": 4, "velocity": 73}, {"time": 1952, "pitch": 65, "duration": 5, "velocity": 75}, {"time": 1958, "pitch": 63, "duration": 4, "velocity": 67}, {"time": 1958, "pitch": 67, "duration": 5, "velocity": 66}, {"time": 1964, "pitch": 41, "duration": 1, "velocity": 47}, {"time": 1970, "pitch": 46, "duration": 39, "velocity": 75}, {"time": 1970, "pitch": 62, "duration": 9, "velocity": 78}, {"time": 1970, "pitch": 65, "duration": 10, "velocity": 80}, {"time": 1976, "pitch": 53, "duration": 31, "velocity": 62}, {"time": 1982, "pitch": 58, "duration": 8, "velocity": 82}, {"time": 1988, "pitch": 63, "duration": 5, "velocity": 70}, {"time": 1994, "pitch": 58, "duration": 7, "velocity": 61}, {"time": 1994, "pitch": 62, "duration": 8, "velocity": 62}, {"time": 1994, "pitch": 65, "duration": 7, "velocity": 69}, {"time": 2006, "pitch": 62, "duration": 2, "velocity": 64}, {"time": 2006, "pitch": 70, "duration": 2, "velocity": 75}, {"time": 2012, "pitch": 63, "duration": 2, "velocity": 64}, {"time": 2012, "pitch": 72, "duration": 2, "velocity": 69}, {"time": 2018, "pitch": 46, "duration": 39, "velocity": 70}, {"time": 2018, "pitch": 62, "duration": 12, "velocity": 70}, {"time": 2018, "pitch": 65, "duration": 12, "velocity": 73}, {"time": 2018, "pitch": 70, "duration": 14, "velocity": 70}, {"time": 2024, "pitch": 53, "duration": 35, "velocity": 64}, {"time": 2030, "pitch": 58, "duration": 27, "velocity": 70}, {"time": 2036, "pitch": 60, "duration": 7, "velocity": 61}, {"time": 2042, "pitch": 62, "duration": 6, "velocity": 66}, {"time": 2048, "pitch": 65, "duration": 2, "velocity": 63}, {"time": 2054, "pitch": 70, "duration": 5, "velocity": 78}, {"time": 2066, "pitch": 43, "duration": 12, "velocity": 70}, {"time": 2066, "pitch": 74, "duration": 21, "velocity": 80}, {"time": 2072, "pitch": 50, "duration": 6, "velocity": 48}, {"time": 2078, "pitch": 53, "duration": 7, "velocity": 60}, {"time": 2084, "pitch": 55, "duration": 23, "velocity": 64}, {"time": 2090, "pitch": 58, "duration": 15, "velocity": 64}, {"time": 2096, "pitch": 62, "duration": 7, "velocity": 69}, {"time": 2102, "pitch": 65, "duration": 6, "velocity": 78}, {"time": 2108, "pitch": 67, "duration": 5, "velocity": 58}, {"time": 2114, "pitch": 46, "duration": 43, "velocity": 73}, {"time": 2114, "pitch": 60, "duration": 13, "velocity": 64}, {"time": 2114, "pitch": 62, "duration": 13, "velocity": 69}, {"time": 2114, "pitch": 65, "duration": 12, "velocity": 64}, {"time": 2120, "pitch": 53, "duration": 19, "velocity": 54}, {"time": 2126, "pitch": 58, "duration": 18, "velocity": 63}, {"time": 2132, "pitch": 60, "duration": 12, "velocity": 61}, {"time": 2138, "pitch": 62, "duration": 6, "velocity": 72}, {"time": 2144, "pitch": 53, "duration": 9, "velocity": 52}, {"time": 2150, "pitch": 60, "duration": 6, "velocity": 69}, {"time": 2150, "pitch": 65, "duration": 5, "velocity": 75}, {"time": 2156, "pitch": 53, "duration": 5, "velocity": 60}, {"time": 2162, "pitch": 48, "duration": 17, "velocity": 69}, {"time": 2162, "pitch": 58, "duration": 5, "velocity": 70}, {"time": 2162, "pitch": 63, "duration": 11, "velocity": 72}, {"time": 2162, "pitch": 67, "duration": 11, "velocity": 72}, {"time": 2168, "pitch": 55, "duration": 11, "velocity": 59}, {"time": 2174, "pitch": 60, "duration": 4, "velocity": 61}, {"time": 2180, "pitch": 70, "duration": 6, "velocity": 75}, {"time": 2186, "pitch": 41, "duration": 16, "velocity": 72}, {"time": 2186, "pitch": 60, "duration": 7, "velocity": 67}, {"time": 2186, "pitch": 65, "duration": 10, "velocity": 66}, {"time": 2186, "pitch": 69, "duration": 11, "velocity": 69}, {"time": 2192, "pitch": 48, "duration": 10, "velocity": 52}, {"time": 2198, "pitch": 53, "duration": 6, "velocity": 62}, {"time": 2198, "pitch": 62, "duration": 5, "velocity": 93}, {"time": 2198, "pitch": 70, "duration": 6, "velocity": 78}, {"time": 2210, "pitch": 51, "duration": 44, "velocity": 70}, {"time": 2210, "pitch": 58, "duration": 7, "velocity": 78}, {"time": 2210, "pitch": 63, "duration": 7, "velocity": 75}, {"time": 2210, "pitch": 67, "duration": 7, "velocity": 72}, {"time": 2216, "pitch": 55, "duration": 18, "velocity": 59}, {"time": 2222, "pitch": 58, "duration": 4, "velocity": 73}, {"time": 2228, "pitch": 63, "duration": 4, "velocity": 69}, {"time": 2234, "pitch": 58, "duration": 7, "velocity": 59}, {"time": 2234, "pitch": 67, "duration": 8, "velocity": 72}, {"time": 2240, "pitch": 55, "duration": 7, "velocity": 58}, {"time": 2246, "pitch": 58, "duration": 3, "velocity": 78}, {"time": 2246, "pitch": 65, "duration": 5, "velocity": 88}, {"time": 2252, "pitch": 55, "duration": 4, "velocity": 62}, {"time": 2258, "pitch": 48, "duration": 24, "velocity": 62}, {"time": 2258, "pitch": 60, "duration": 8, "velocity": 70}, {"time": 2258, "pitch": 63, "duration": 12, "velocity": 72}, {"time": 2258, "pitch": 67, "duration": 11, "velocity": 67}, {"time": 2264, "pitch": 55, "duration": 17, "velocity": 54}, {"time": 2270, "pitch": 60, "duration": 7, "velocity": 85}, {"time": 2276, "pitch": 63, "duration": 5, "velocity": 78}, {"time": 2282, "pitch": 50, "duration": 15, "velocity": 73}, {"time": 2282, "pitch": 60, "duration": 7, "velocity": 73}, {"time": 2282, "pitch": 65, "duration": 7, "velocity": 75}, {"time": 2282, "pitch": 69, "duration": 7, "velocity": 73}, {"time": 2288, "pitch": 57, "duration": 8, "velocity": 61}, {"time": 2294, "pitch": 60, "duration": 5, "velocity": 67}, {"time": 2300, "pitch": 65, "duration": 4, "velocity": 61}, {"time": 2306, "pitch": 53, "duration": 16, "velocity": 60}, {"time": 2306, "pitch": 60, "duration": 7, "velocity": 66}, {"time": 2306, "pitch": 65, "duration": 7, "velocity": 67}, {"time": 2306, "pitch": 69, "duration": 7, "velocity": 69}, {"time": 2312, "pitch": 57, "duration": 9, "velocity": 70}, {"time": 2318, "pitch": 60, "duration": 5, "velocity": 80}, {"time": 2324, "pitch": 67, "duration": 5, "velocity": 64}, {"time": 2330, "pitch": 41, "duration": 16, "velocity": 78}, {"time": 2330, "pitch": 65, "duration": 4, "velocity": 73}, {"time": 2330, "pitch": 69, "duration": 10, "velocity": 72}, {"time": 2336, "pitch": 48, "duration": 10, "velocity": 59}, {"time": 2342, "pitch": 53, "duration": 6, "velocity": 55}, {"time": 2342, "pitch": 65, "duration": 2, "velocity": 69}, {"time": 2342, "pitch": 70, "duration": 2, "velocity": 72}, {"time": 2348, "pitch": 72, "duration": 2, "velocity": 67}, {"time": 2354, "pitch": 46, "duration": 37, "velocity": 70}, {"time": 2354, "pitch": 65, "duration": 6, "velocity": 64}, {"time": 2354, "pitch": 70, "duration": 17, "velocity": 73}, {"time": 2360, "pitch": 53, "duration": 6, "velocity": 67}, {"time": 2366, "pitch": 58, "duration": 19, "velocity": 53}, {"time": 2366, "pitch": 63, "duration": 7, "velocity": 75}, {"time": 2366, "pitch": 67, "duration": 5, "velocity": 70}, {"time": 2372, "pitch": 70, "duration": 14, "velocity": 69}, {"time": 2378, "pitch": 53, "duration": 13, "velocity": 49}, {"time": 2378, "pitch": 62, "duration": 8, "velocity": 66}, {"time": 2378, "pitch": 65, "duration": 8, "velocity": 67}, {"time": 2390, "pitch": 58, "duration": 1, "velocity": 59}, {"time": 2402, "pitch": 46, "duration": 30, "velocity": 73}, {"time": 2402, "pitch": 62, "duration": 11, "velocity": 67}, {"time": 2402, "pitch": 65, "duration": 11, "velocity": 69}, {"time": 2408, "pitch": 53, "duration": 36, "velocity": 46}, {"time": 2414, "pitch": 58, "duration": 11, "velocity": 60}, {"time": 2420, "pitch": 60, "duration": 7, "velocity": 61}, {"time": 2426, "pitch": 62, "duration": 10, "velocity": 61}, {"time": 2432, "pitch": 58, "duration": 1, "velocity": 31}, {"time": 2438, "pitch": 60, "duration": 7, "velocity": 60}, {"time": 2438, "pitch": 65, "duration": 5, "velocity": 69}, {"time": 2450, "pitch": 43, "duration": 10, "velocity": 67}, {"time": 2450, "pitch": 58, "duration": 10, "velocity": 69}, {"time": 2450, "pitch": 65, "duration": 18, "velocity": 63}, {"time": 2456, "pitch": 50, "duration": 5, "velocity": 48}, {"time": 2462, "pitch": 53, "duration": 6, "velocity": 56}, {"time": 2468, "pitch": 55, "duration": 19, "velocity": 63}, {"time": 2474, "pitch": 58, "duration": 11, "velocity": 64}, {"time": 2480, "pitch": 62, "duration": 4, "velocity": 72}, {"time": 2486, "pitch": 65, "duration": 6, "velocity": 69}, {"time": 2492, "pitch": 70, "duration": 16, "velocity": 70}, {"time": 2498, "pitch": 46, "duration": 24, "velocity": 67}, {"time": 2498, "pitch": 62, "duration": 10, "velocity": 64}, {"time": 2498, "pitch": 65, "duration": 10, "velocity": 69}, {"time": 2504, "pitch": 53, "duration": 17, "velocity": 51}, {"time": 2510, "pitch": 58, "duration": 10, "velocity": 53}, {"time": 2516, "pitch": 60, "duration": 6, "velocity": 69}, {"time": 2516, "pitch": 65, "duration": 7, "velocity": 62}, {"time": 2522, "pitch": 50, "duration": 16, "velocity": 76}, {"time": 2522, "pitch": 62, "duration": 6, "velocity": 64}, {"time": 2522, "pitch": 65, "duration": 1, "velocity": 70}, {"time": 2522, "pitch": 69, "duration": 6, "velocity": 70}, {"time": 2528, "pitch": 57, "duration": 9, "velocity": 59}, {"time": 2534, "pitch": 62, "duration": 5, "velocity": 70}, {"time": 2540, "pitch": 65, "duration": 1, "velocity": 44}, {"time": 2543, "pitch": 67, "duration": 1, "velocity": 46}, {"time": 2546, "pitch": 41, "duration": 11, "velocity": 64}, {"time": 2546, "pitch": 60, "duration": 20, "velocity": 64}, {"time": 2546, "pitch": 65, "duration": 20, "velocity": 75}, {"time": 2552, "pitch": 48, "duration": 6, "velocity": 48}, {"time": 2558, "pitch": 53, "duration": 6, "velocity": 53}, {"time": 2564, "pitch": 55, "duration": 18, "velocity": 67}, {"time": 2570, "pitch": 57, "duration": 12, "velocity": 69}, {"time": 2576, "pitch": 60, "duration": 5, "velocity": 63}, {"time": 2582, "pitch": 65, "duration": 6, "velocity": 70}, {"time": 2588, "pitch": 70, "duration": 2, "velocity": 59}, {"time": 2594, "pitch": 50, "duration": 17, "velocity": 75}, {"time": 2594, "pitch": 65, "duration": 10, "velocity": 72}, {"time": 2594, "pitch": 69, "duration": 11, "velocity": 67}, {"time": 2600, "pitch": 57, "duration": 10, "velocity": 52}, {"time": 2606, "pitch": 60, "duration": 4, "velocity": 70}, {"time": 2612, "pitch": 69, "duration": 4, "velocity": 44}, {"time": 2618, "pitch": 41, "duration": 16, "velocity": 73}, {"time": 2618, "pitch": 60, "duration": 12, "velocity": 62}, {"time": 2618, "pitch": 65, "duration": 12, "velocity": 70}, {"time": 2624, "pitch": 48, "duration": 10, "velocity": 55}, {"time": 2630, "pitch": 53, "duration": 6, "velocity": 64}, {"time": 2636, "pitch": 60, "duration": 3, "velocity": 58}, {"time": 2642, "pitch": 50, "duration": 16, "velocity": 76}, {"time": 2642, "pitch": 60, "duration": 7, "velocity": 67}, {"time": 2642, "pitch": 65, "duration": 7, "velocity": 72}, {"time": 2648, "pitch": 57, "duration": 9, "velocity": 57}, {"time": 2654, "pitch": 60, "duration": 4, "velocity": 82}, {"time": 2660, "pitch": 65, "duration": 6, "velocity": 69}, {"time": 2666, "pitch": 43, "duration": 15, "velocity": 73}, {"time": 2666, "pitch": 62, "duration": 8, "velocity": 70}, {"time": 2666, "pitch": 70, "duration": 9, "velocity": 78}, {"time": 2672, "pitch": 50, "duration": 9, "velocity": 40}, {"time": 2678, "pitch": 55, "duration": 3, "velocity": 57}, {"time": 2678, "pitch": 62, "duration": 2, "velocity": 70}, {"time": 2678, "pitch": 69, "duration": 2, "velocity": 63}, {"time": 2690, "pitch": 48, "duration": 40, "velocity": 57}, {"time": 2690, "pitch": 63, "duration": 10, "velocity": 76}, {"time": 2690, "pitch": 67, "duration": 10, "velocity": 72}, {"time": 2696, "pitch": 51, "duration": 34, "velocity": 60}, {"time": 2702, "pitch": 55, "duration": 12, "velocity": 61}, {"time": 2708, "pitch": 60, "duration": 5, "velocity": 73}, {"time": 2714, "pitch": 60, "duration": 1, "velocity": 35}, {"time": 2714, "pitch": 63, "duration": 7, "velocity": 75}, {"time": 2720, "pitch": 55, "duration": 8, "velocity": 51}, {"time": 2726, "pitch": 60, "duration": 5, "velocity": 73}, {"time": 2732, "pitch": 67, "duration": 4, "velocity": 56}, {"time": 2738, "pitch": 48, "duration": 15, "velocity": 66}, {"time": 2738, "pitch": 63, "duration": 5, "velocity": 64}, {"time": 2738, "pitch": 67, "duration": 5, "velocity": 60}, {"time": 2744, "pitch": 55, "duration": 9, "velocity": 46}, {"time": 2744, "pitch": 62, "duration": 6, "velocity": 49}, {"time": 2744, "pitch": 65, "duration": 5, "velocity": 62}, {"time": 2750, "pitch": 60, "duration": 3, "velocity": 61}, {"time": 2750, "pitch": 63, "duration": 1, "velocity": 61}, {"time": 2750, "pitch": 67, "duration": 1, "velocity": 69}, {"time": 2756, "pitch": 70, "duration": 5, "velocity": 60}, {"time": 2762, "pitch": 46, "duration": 37, "velocity": 63}, {"time": 2762, "pitch": 65, "duration": 9, "velocity": 58}, {"time": 2762, "pitch": 74, "duration": 8, "velocity": 64}, {"time": 2768, "pitch": 53, "duration": 17, "velocity": 45}, {"time": 2774, "pitch": 58, "duration": 24, "velocity": 61}, {"time": 2780, "pitch": 60, "duration": 5, "velocity": 62}, {"time": 2786, "pitch": 62, "duration": 6, "velocity": 59}, {"time": 2792, "pitch": 65, "duration": 1, "velocity": 75}, {"time": 2798, "pitch": 53, "duration": 4, "velocity": 75}, {"time": 2798, "pitch": 70, "duration": 4, "velocity": 73}, {"time": 2804, "pitch": 72, "duration": 4, "velocity": 78}, {"time": 2807, "pitch": 65, "duration": 3, "velocity": 51}, {"time": 2807, "pitch": 70, "duration": 2, "velocity": 49}, {"time": 2810, "pitch": 46, "duration": 8, "velocity": 63}, {"time": 2810, "pitch": 74, "duration": 6, "velocity": 85}, {"time": 2816, "pitch": 53, "duration": 5, "velocity": 58}, {"time": 2816, "pitch": 65, "duration": 4, "velocity": 49}, {"time": 2822, "pitch": 58, "duration": 6, "velocity": 56}, {"time": 2822, "pitch": 72, "duration": 5, "velocity": 60}, {"time": 2828, "pitch": 60, "duration": 6, "velocity": 63}, {"time": 2828, "pitch": 74, "duration": 6, "velocity": 72}, {"time": 2834, "pitch": 50, "duration": 16, "velocity": 66}, {"time": 2834, "pitch": 65, "duration": 6, "velocity": 58}, {"time": 2834, "pitch": 69, "duration": 6, "velocity": 64}, {"time": 2840, "pitch": 57, "duration": 10, "velocity": 54}, {"time": 2840, "pitch": 67, "duration": 5, "velocity": 66}, {"time": 2846, "pitch": 62, "duration": 3, "velocity": 50}, {"time": 2846, "pitch": 69, "duration": 6, "velocity": 59}, {"time": 2852, "pitch": 72, "duration": 6, "velocity": 66}, {"time": 2858, "pitch": 48, "duration": 18, "velocity": 66}, {"time": 2858, "pitch": 60, "duration": 7, "velocity": 57}, {"time": 2858, "pitch": 63, "duration": 10, "velocity": 60}, {"time": 2858, "pitch": 67, "duration": 11, "velocity": 52}, {"time": 2864, "pitch": 55, "duration": 12, "velocity": 46}, {"time": 2870, "pitch": 60, "duration": 4, "velocity": 46}, {"time": 2870, "pitch": 65, "duration": 6, "velocity": 55}, {"time": 2876, "pitch": 67, "duration": 6, "velocity": 66}, {"time": 2882, "pitch": 46, "duration": 17, "velocity": 70}, {"time": 2882, "pitch": 62, "duration": 7, "velocity": 61}, {"time": 2882, "pitch": 65, "duration": 10, "velocity": 70}, {"time": 2888, "pitch": 53, "duration": 12, "velocity": 57}, {"time": 2894, "pitch": 58, "duration": 5, "velocity": 49}, {"time": 2894, "pitch": 60, "duration": 2, "velocity": 56}, {"time": 2894, "pitch": 63, "duration": 6, "velocity": 66}, {"time": 2900, "pitch": 62, "duration": 2, "velocity": 52}, {"time": 2900, "pitch": 65, "duration": 3, "velocity": 67}, {"time": 2906, "pitch": 50, "duration": 15, "velocity": 73}, {"time": 2906, "pitch": 69, "duration": 6, "velocity": 67}, {"time": 2912, "pitch": 57, "duration": 10, "velocity": 55}, {"time": 2912, "pitch": 72, "duration": 3, "velocity": 69}, {"time": 2918, "pitch": 62, "duration": 4, "velocity": 61}, {"time": 2918, "pitch": 74, "duration": 5, "velocity": 73}, {"time": 2924, "pitch": 77, "duration": 4, "velocity": 72}, {"time": 2930, "pitch": 55, "duration": 17, "velocity": 72}, {"time": 2930, "pitch": 70, "duration": 6, "velocity": 76}, {"time": 2930, "pitch": 74, "duration": 6, "velocity": 75}, {"time": 2936, "pitch": 62, "duration": 10, "velocity": 54}, {"time": 2936, "pitch": 69, "duration": 3, "velocity": 42}, {"time": 2936, "pitch": 72, "duration": 4, "velocity": 73}, {"time": 2942, "pitch": 67, "duration": 3, "velocity": 61}, {"time": 2942, "pitch": 70, "duration": 5, "velocity": 63}, {"time": 2942, "pitch": 74, "duration": 6, "velocity": 70}, {"time": 2948, "pitch": 77, "duration": 4, "velocity": 61}, {"time": 2954, "pitch": 48, "duration": 10, "velocity": 54}, {"time": 2954, "pitch": 72, "duration": 4, "velocity": 67}, {"time": 2960, "pitch": 55, "duration": 5, "velocity": 61}, {"time": 2960, "pitch": 70, "duration": 4, "velocity": 61}, {"time": 2966, "pitch": 60, "duration": 7, "velocity": 52}, {"time": 2966, "pitch": 67, "duration": 7, "velocity": 73}, {"time": 2972, "pitch": 62, "duration": 10, "velocity": 54}, {"time": 2972, "pitch": 70, "duration": 6, "velocity": 73}, {"time": 2978, "pitch": 41, "duration": 12, "velocity": 78}, {"time": 2978, "pitch": 69, "duration": 6, "velocity": 73}, {"time": 2984, "pitch": 48, "duration": 6, "velocity": 59}, {"time": 2984, "pitch": 67, "duration": 5, "velocity": 67}, {"time": 2990, "pitch": 53, "duration": 8, "velocity": 63}, {"time": 2990, "pitch": 65, "duration": 7, "velocity": 67}, {"time": 2996, "pitch": 55, "duration": 6, "velocity": 62}, {"time": 2996, "pitch": 70, "duration": 6, "velocity": 63}, {"time": 3002, "pitch": 50, "duration": 18, "velocity": 72}, {"time": 3002, "pitch": 65, "duration": 4, "velocity": 72}, {"time": 3002, "pitch": 69, "duration": 5, "velocity": 70}, {"time": 3008, "pitch": 57, "duration": 11, "velocity": 55}, {"time": 3008, "pitch": 67, "duration": 5, "velocity": 73}, {"time": 3014, "pitch": 62, "duration": 3, "velocity": 78}, {"time": 3014, "pitch": 65, "duration": 7, "velocity": 70}, {"time": 3014, "pitch": 69, "duration": 5, "velocity": 76}, {"time": 3020, "pitch": 72, "duration": 4, "velocity": 73}, {"time": 3026, "pitch": 60, "duration": 7, "velocity": 47}, {"time": 3026, "pitch": 62, "duration": 1, "velocity": 43}, {"time": 3026, "pitch": 65, "duration": 7, "velocity": 59}, {"time": 3026, "pitch": 69, "duration": 7, "velocity": 72}, {"time": 3029, "pitch": 41, "duration": 14, "velocity": 69}, {"time": 3032, "pitch": 48, "duration": 10, "velocity": 70}, {"time": 3038, "pitch": 53, "duration": 5, "velocity": 75}, {"time": 3041, "pitch": 60, "duration": 2, "velocity": 95}, {"time": 3044, "pitch": 65, "duration": 2, "velocity": 70}, {"time": 3047, "pitch": 67, "duration": 2, "velocity": 78}, {"time": 3050, "pitch": 50, "duration": 15, "velocity": 69}, {"time": 3050, "pitch": 60, "duration": 5, "velocity": 95}, {"time": 3050, "pitch": 65, "duration": 5, "velocity": 91}, {"time": 3050, "pitch": 72, "duration": 8, "velocity": 75}, {"time": 3056, "pitch": 57, "duration": 9, "velocity": 50}, {"time": 3062, "pitch": 62, "duration": 2, "velocity": 73}, {"time": 3065, "pitch": 70, "duration": 1, "velocity": 85}, {"time": 3068, "pitch": 72, "duration": 2, "velocity": 76}, {"time": 3071, "pitch": 77, "duration": 3, "velocity": 67}, {"time": 3074, "pitch": 43, "duration": 16, "velocity": 58}, {"time": 3074, "pitch": 70, "duration": 5, "velocity": 69}, {"time": 3074, "pitch": 74, "duration": 6, "velocity": 82}, {"time": 3080, "pitch": 50, "duration": 10, "velocity": 66}, {"time": 3080, "pitch": 69, "duration": 3, "velocity": 70}, {"time": 3080, "pitch": 72, "duration": 2, "velocity": 69}, {"time": 3086, "pitch": 55, "duration": 5, "velocity": 58}, {"time": 3086, "pitch": 67, "duration": 3, "velocity": 63}, {"time": 3086, "pitch": 70, "duration": 3, "velocity": 66}, {"time": 3092, "pitch": 69, "duration": 2, "velocity": 73}, {"time": 3098, "pitch": 48, "duration": 17, "velocity": 64}, {"time": 3098, "pitch": 60, "duration": 5, "velocity": 44}, {"time": 3098, "pitch": 63, "duration": 9, "velocity": 69}, {"time": 3098, "pitch": 67, "duration": 7, "velocity": 82}, {"time": 3104, "pitch": 55, "duration": 10, "velocity": 59}, {"time": 3110, "pitch": 60, "duration": 3, "velocity": 62}, {"time": 3116, "pitch": 63, "duration": 4, "velocity": 82}, {"time": 3122, "pitch": 36, "duration": 18, "velocity": 67}, {"time": 3122, "pitch": 60, "duration": 4, "velocity": 70}, {"time": 3122, "pitch": 67, "duration": 6, "velocity": 73}, {"time": 3128, "pitch": 48, "duration": 8, "velocity": 48}, {"time": 3128, "pitch": 60, "duration": 1, "velocity": 48}, {"time": 3128, "pitch": 65, "duration": 2, "velocity": 66}, {"time": 3134, "pitch": 58, "duration": 2, "velocity": 55}, {"time": 3134, "pitch": 63, "duration": 3, "velocity": 63}, {"time": 3140, "pitch": 48, "duration": 2, "velocity": 78}, {"time": 3146, "pitch": 46, "duration": 38, "velocity": 51}, {"time": 3146, "pitch": 58, "duration": 4, "velocity": 75}, {"time": 3146, "pitch": 62, "duration": 5, "velocity": 67}, {"time": 3152, "pitch": 53, "duration": 7, "velocity": 61}, {"time": 3158, "pitch": 58, "duration": 7, "velocity": 62}, {"time": 3164, "pitch": 62, "duration": 3, "velocity": 75}, {"time": 3164, "pitch": 70, "duration": 4, "velocity": 78}, {"time": 3170, "pitch": 53, "duration": 7, "velocity": 66}, {"time": 3170, "pitch": 62, "duration": 2, "velocity": 73}, {"time": 3170, "pitch": 70, "duration": 2, "velocity": 80}, {"time": 3176, "pitch": 58, "duration": 7, "velocity": 69}, {"time": 3176, "pitch": 63, "duration": 2, "velocity": 75}, {"time": 3176, "pitch": 72, "duration": 2, "velocity": 76}, {"time": 3182, "pitch": 53, "duration": 8, "velocity": 67}, {"time": 3182, "pitch": 63, "duration": 2, "velocity": 63}, {"time": 3182, "pitch": 72, "duration": 3, "velocity": 73}, {"time": 3188, "pitch": 65, "duration": 2, "velocity": 62}, {"time": 3188, "pitch": 74, "duration": 2, "velocity": 75}, {"time": 3194, "pitch": 46, "duration": 20, "velocity": 67}, {"time": 3200, "pitch": 53, "duration": 16, "velocity": 62}, {"time": 3203, "pitch": 58, "duration": 7, "velocity": 75}, {"time": 3206, "pitch": 60, "duration": 4, "velocity": 60}, {"time": 3209, "pitch": 65, "duration": 3, "velocity": 59}, {"time": 3212, "pitch": 70, "duration": 11, "velocity": 69}, {"time": 3215, "pitch": 62, "duration": 6, "velocity": 70}, {"time": 3218, "pitch": 46, "duration": 17, "velocity": 75}, {"time": 3221, "pitch": 53, "duration": 9, "velocity": 70}, {"time": 3224, "pitch": 58, "duration": 8, "velocity": 73}, {"time": 3227, "pitch": 60, "duration": 4, "velocity": 72}, {"time": 3230, "pitch": 65, "duration": 3, "velocity": 62}, {"time": 3233, "pitch": 53, "duration": 3, "velocity": 70}, {"time": 3233, "pitch": 70, "duration": 3, "velocity": 49}, {"time": 3236, "pitch": 65, "duration": 3, "velocity": 58}, {"time": 3239, "pitch": 67, "duration": 3, "velocity": 67}, {"time": 3242, "pitch": 43, "duration": 18, "velocity": 70}, {"time": 3242, "pitch": 70, "duration": 5, "velocity": 80}, {"time": 3248, "pitch": 50, "duration": 12, "velocity": 62}, {"time": 3251, "pitch": 55, "duration": 7, "velocity": 69}, {"time": 3254, "pitch": 57, "duration": 3, "velocity": 80}, {"time": 3257, "pitch": 58, "duration": 2, "velocity": 66}, {"time": 3260, "pitch": 60, "duration": 2, "velocity": 70}, {"time": 3263, "pitch": 62, "duration": 2, "velocity": 70}, {"time": 3266, "pitch": 41, "duration": 12, "velocity": 70}, {"time": 3266, "pitch": 57, "duration": 5, "velocity": 82}, {"time": 3266, "pitch": 60, "duration": 4, "velocity": 88}, {"time": 3266, "pitch": 65, "duration": 4, "velocity": 64}, {"time": 3272, "pitch": 48, "duration": 6, "velocity": 63}, {"time": 3272, "pitch": 58, "duration": 4, "velocity": 70}, {"time": 3272, "pitch": 62, "duration": 5, "velocity": 75}, {"time": 3278, "pitch": 53, "duration": 7, "velocity": 69}, {"time": 3278, "pitch": 58, "duration": 1, "velocity": 70}, {"time": 3278, "pitch": 65, "duration": 1, "velocity": 69}, {"time": 3284, "pitch": 55, "duration": 1, "velocity": 73}, {"time": 3284, "pitch": 65, "duration": 1, "velocity": 76}, {"time": 3290, "pitch": 43, "duration": 39, "velocity": 72}, {"time": 3290, "pitch": 58, "duration": 7, "velocity": 72}, {"time": 3290, "pitch": 62, "duration": 9, "velocity": 69}, {"time": 3290, "pitch": 67, "duration": 9, "velocity": 72}, {"time": 3296, "pitch": 50, "duration": 33, "velocity": 64}, {"time": 3302, "pitch": 55, "duration": 7, "velocity": 67}, {"time": 3308, "pitch": 58, "duration": 4, "velocity": 62}, {"time": 3314, "pitch": 55, "duration": 3, "velocity": 54}, {"time": 3314, "pitch": 58, "duration": 1, "velocity": 49}, {"time": 3314, "pitch": 62, "duration": 3, "velocity": 73}, {"time": 3314, "pitch": 67, "duration": 4, "velocity": 75}, {"time": 3320, "pitch": 67, "duration": 2, "velocity": 58}, {"time": 3326, "pitch": 55, "duration": 6, "velocity": 75}, {"time": 3326, "pitch": 70, "duration": 5, "velocity": 91}, {"time": 3332, "pitch": 74, "duration": 6, "velocity": 70}, {"time": 3338, "pitch": 43, "duration": 13, "velocity": 70}, {"time": 3338, "pitch": 58, "duration": 4, "velocity": 72}, {"time": 3338, "pitch": 67, "duration": 5, "velocity": 76}, {"time": 3344, "pitch": 50, "duration": 8, "velocity": 66}, {"time": 3344, "pitch": 58, "duration": 1, "velocity": 41}, {"time": 3344, "pitch": 65, "duration": 6, "velocity": 73}, {"time": 3350, "pitch": 55, "duration": 11, "velocity": 78}, {"time": 3350, "pitch": 67, "duration": 1, "velocity": 78}, {"time": 3356, "pitch": 70, "duration": 6, "velocity": 85}, {"time": 3362, "pitch": 48, "duration": 18, "velocity": 66}, {"time": 3362, "pitch": 72, "duration": 10, "velocity": 85}, {"time": 3368, "pitch": 55, "duration": 12, "velocity": 64}, {"time": 3374, "pitch": 60, "duration": 5, "velocity": 75}, {"time": 3380, "pitch": 63, "duration": 3, "velocity": 80}, {"time": 3386, "pitch": 50, "duration": 19, "velocity": 63}, {"time": 3386, "pitch": 65, "duration": 4, "velocity": 75}, {"time": 3386, "pitch": 69, "duration": 5, "velocity": 69}, {"time": 3392, "pitch": 57, "duration": 8, "velocity": 60}, {"time": 3392, "pitch": 67, "duration": 5, "velocity": 82}, {"time": 3398, "pitch": 62, "duration": 4, "velocity": 80}, {"time": 3398, "pitch": 65, "duration": 6, "velocity": 78}, {"time": 3398, "pitch": 69, "duration": 6, "velocity": 85}, {"time": 3404, "pitch": 57, "duration": 1, "velocity": 50}, {"time": 3404, "pitch": 72, "duration": 10, "velocity": 69}, {"time": 3410, "pitch": 41, "duration": 15, "velocity": 73}, {"time": 3410, "pitch": 60, "duration": 8, "velocity": 75}, {"time": 3410, "pitch": 65, "duration": 8, "velocity": 75}, {"time": 3416, "pitch": 48, "duration": 10, "velocity": 66}, {"time": 3422, "pitch": 53, "duration": 6, "velocity": 75}, {"time": 3428, "pitch": 60, "duration": 3, "velocity": 82}, {"time": 3434, "pitch": 50, "duration": 20, "velocity": 70}, {"time": 3434, "pitch": 62, "duration": 5, "velocity": 80}, {"time": 3434, "pitch": 65, "duration": 4, "velocity": 80}, {"time": 3440, "pitch": 57, "duration": 7, "velocity": 58}, {"time": 3440, "pitch": 67, "duration": 5, "velocity": 78}, {"time": 3446, "pitch": 62, "duration": 4, "velocity": 66}, {"time": 3446, "pitch": 69, "duration": 5, "velocity": 85}, {"time": 3452, "pitch": 57, "duration": 1, "velocity": 66}, {"time": 3452, "pitch": 72, "duration": 2, "velocity": 75}, {"time": 3458, "pitch": 43, "duration": 11, "velocity": 69}, {"time": 3458, "pitch": 62, "duration": 2, "velocity": 61}, {"time": 3458, "pitch": 70, "duration": 2, "velocity": 75}, {"time": 3464, "pitch": 50, "duration": 5, "velocity": 62}, {"time": 3464, "pitch": 65, "duration": 2, "velocity": 69}, {"time": 3464, "pitch": 74, "duration": 2, "velocity": 76}, {"time": 3470, "pitch": 55, "duration": 7, "velocity": 69}, {"time": 3470, "pitch": 65, "duration": 5, "velocity": 69}, {"time": 3470, "pitch": 72, "duration": 6, "velocity": 73}, {"time": 3476, "pitch": 57, "duration": 1, "velocity": 72}, {"time": 3482, "pitch": 48, "duration": 18, "velocity": 82}, {"time": 3482, "pitch": 72, "duration": 9, "velocity": 62}, {"time": 3488, "pitch": 55, "duration": 12, "velocity": 64}, {"time": 3488, "pitch": 63, "duration": 7, "velocity": 56}, {"time": 3494, "pitch": 60, "duration": 3, "velocity": 76}, {"time": 3494, "pitch": 67, "duration": 5, "velocity": 85}, {"time": 3500, "pitch": 70, "duration": 3, "velocity": 75}, {"time": 3506, "pitch": 48, "duration": 16, "velocity": 67}, {"time": 3506, "pitch": 63, "duration": 5, "velocity": 67}, {"time": 3506, "pitch": 67, "duration": 5, "velocity": 63}, {"time": 3512, "pitch": 55, "duration": 11, "velocity": 63}, {"time": 3512, "pitch": 60, "duration": 5, "velocity": 54}, {"time": 3512, "pitch": 65, "duration": 5, "velocity": 62}, {"time": 3518, "pitch": 58, "duration": 2, "velocity": 60}, {"time": 3518, "pitch": 63, "duration": 5, "velocity": 66}, {"time": 3518, "pitch": 67, "duration": 6, "velocity": 73}, {"time": 3524, "pitch": 70, "duration": 3, "velocity": 59}, {"time": 3530, "pitch": 41, "duration": 9, "velocity": 80}, {"time": 3530, "pitch": 60, "duration": 7, "velocity": 63}, {"time": 3530, "pitch": 65, "duration": 11, "velocity": 69}, {"time": 3536, "pitch": 48, "duration": 5, "velocity": 73}, {"time": 3542, "pitch": 53, "duration": 6, "velocity": 78}, {"time": 3548, "pitch": 55, "duration": 1, "velocity": 70}, {"time": 3554, "pitch": 41, "duration": 11, "velocity": 75}, {"time": 3554, "pitch": 58, "duration": 3, "velocity": 78}, {"time": 3557, "pitch": 60, "duration": 1, "velocity": 80}, {"time": 3560, "pitch": 48, "duration": 5, "velocity": 70}, {"time": 3560, "pitch": 65, "duration": 1, "velocity": 76}, {"time": 3563, "pitch": 70, "duration": 3, "velocity": 95}, {"time": 3566, "pitch": 53, "duration": 6, "velocity": 91}, {"time": 3566, "pitch": 72, "duration": 2, "velocity": 95}, {"time": 3569, "pitch": 74, "duration": 2, "velocity": 93}, {"time": 3572, "pitch": 55, "duration": 1, "velocity": 70}, {"time": 3572, "pitch": 75, "duration": 3, "velocity": 72}, {"time": 3575, "pitch": 77, "duration": 1, "velocity": 85}, {"time": 3578, "pitch": 46, "duration": 18, "velocity": 66}, {"time": 3578, "pitch": 77, "duration": 5, "velocity": 73}, {"time": 3584, "pitch": 53, "duration": 7, "velocity": 63}, {"time": 3584, "pitch": 77, "duration": 4, "velocity": 70}, {"time": 3590, "pitch": 58, "duration": 6, "velocity": 82}, {"time": 3590, "pitch": 74, "duration": 4, "velocity": 93}, {"time": 3596, "pitch": 53, "duration": 3, "velocity": 54}, {"time": 3596, "pitch": 72, "duration": 5, "velocity": 82}, {"time": 3602, "pitch": 46, "duration": 18, "velocity": 82}, {"time": 3602, "pitch": 65, "duration": 4, "velocity": 88}, {"time": 3602, "pitch": 70, "duration": 3, "velocity": 82}, {"time": 3608, "pitch": 53, "duration": 6, "velocity": 66}, {"time": 3614, "pitch": 58, "duration": 4, "velocity": 76}, {"time": 3614, "pitch": 62, "duration": 3, "velocity": 75}, {"time": 3614, "pitch": 65, "duration": 4, "velocity": 95}, {"time": 3620, "pitch": 53, "duration": 1, "velocity": 60}, {"time": 3620, "pitch": 63, "duration": 1, "velocity": 49}, {"time": 3620, "pitch": 67, "duration": 4, "velocity": 97}, {"time": 3626, "pitch": 43, "duration": 20, "velocity": 72}, {"time": 3626, "pitch": 62, "duration": 4, "velocity": 66}, {"time": 3626, "pitch": 70, "duration": 4, "velocity": 78}, {"time": 3632, "pitch": 50, "duration": 6, "velocity": 64}, {"time": 3632, "pitch": 62, "duration": 4, "velocity": 76}, {"time": 3632, "pitch": 69, "duration": 5, "velocity": 80}, {"time": 3638, "pitch": 55, "duration": 4, "velocity": 67}, {"time": 3638, "pitch": 62, "duration": 4, "velocity": 80}, {"time": 3638, "pitch": 70, "duration": 4, "velocity": 67}, {"time": 3644, "pitch": 50, "duration": 2, "velocity": 62}, {"time": 3644, "pitch": 69, "duration": 4, "velocity": 93}, {"time": 3650, "pitch": 41, "duration": 7, "velocity": 70}, {"time": 3650, "pitch": 60, "duration": 6, "velocity": 76}, {"time": 3650, "pitch": 65, "duration": 6, "velocity": 93}, {"time": 3656, "pitch": 48, "duration": 2, "velocity": 62}, {"time": 3659, "pitch": 53, "duration": 4, "velocity": 93}, {"time": 3662, "pitch": 55, "duration": 4, "velocity": 70}, {"time": 3665, "pitch": 57, "duration": 1, "velocity": 97}, {"time": 3668, "pitch": 60, "duration": 2, "velocity": 85}, {"time": 3671, "pitch": 65, "duration": 2, "velocity": 67}, {"time": 3674, "pitch": 43, "duration": 19, "velocity": 85}, {"time": 3674, "pitch": 58, "duration": 7, "velocity": 76}, {"time": 3674, "pitch": 62, "duration": 7, "velocity": 75}, {"time": 3674, "pitch": 67, "duration": 6, "velocity": 75}, {"time": 3680, "pitch": 50, "duration": 7, "velocity": 58}, {"time": 3686, "pitch": 55, "duration": 6, "velocity": 60}, {"time": 3686, "pitch": 58, "duration": 4, "velocity": 76}, {"time": 3686, "pitch": 62, "duration": 4, "velocity": 76}, {"time": 3686, "pitch": 67, "duration": 4, "velocity": 73}, {"time": 3692, "pitch": 50, "duration": 3, "velocity": 67}, {"time": 3698, "pitch": 41, "duration": 10, "velocity": 66}, {"time": 3698, "pitch": 60, "duration": 4, "velocity": 54}, {"time": 3698, "pitch": 65, "duration": 5, "velocity": 66}, {"time": 3698, "pitch": 69, "duration": 5, "velocity": 55}, {"time": 3704, "pitch": 48, "duration": 6, "velocity": 67}, {"time": 3704, "pitch": 60, "duration": 4, "velocity": 62}, {"time": 3704, "pitch": 67, "duration": 6, "velocity": 78}, {"time": 3710, "pitch": 53, "duration": 7, "velocity": 64}, {"time": 3710, "pitch": 60, "duration": 6, "velocity": 67}, {"time": 3710, "pitch": 72, "duration": 5, "velocity": 75}, {"time": 3716, "pitch": 55, "duration": 2, "velocity": 66}, {"time": 3722, "pitch": 43, "duration": 18, "velocity": 75}, {"time": 3722, "pitch": 58, "duration": 8, "velocity": 73}, {"time": 3722, "pitch": 62, "duration": 6, "velocity": 75}, {"time": 3722, "pitch": 67, "duration": 6, "velocity": 73}, {"time": 3728, "pitch": 50, "duration": 12, "velocity": 66}, {"time": 3728, "pitch": 65, "duration": 5, "velocity": 72}, {"time": 3734, "pitch": 55, "duration": 3, "velocity": 64}, {"time": 3734, "pitch": 58, "duration": 3, "velocity": 73}, {"time": 3734, "pitch": 67, "duration": 3, "velocity": 60}, {"time": 3740, "pitch": 55, "duration": 3, "velocity": 69}, {"time": 3746, "pitch": 48, "duration": 20, "velocity": 66}, {"time": 3746, "pitch": 60, "duration": 6, "velocity": 72}, {"time": 3746, "pitch": 65, "duration": 7, "velocity": 78}, {"time": 3752, "pitch": 55, "duration": 14, "velocity": 66}, {"time": 3752, "pitch": 63, "duration": 6, "velocity": 73}, {"time": 3758, "pitch": 60, "duration": 5, "velocity": 70}, {"time": 3758, "pitch": 65, "duration": 4, "velocity": 72}, {"time": 3764, "pitch": 67, "duration": 5, "velocity": 76}, {"time": 3770, "pitch": 50, "duration": 17, "velocity": 72}, {"time": 3770, "pitch": 69, "duration": 5, "velocity": 88}, {"time": 3776, "pitch": 57, "duration": 10, "velocity": 59}, {"time": 3776, "pitch": 67, "duration": 7, "velocity": 88}, {"time": 3782, "pitch": 62, "duration": 3, "velocity": 72}, {"time": 3782, "pitch": 69, "duration": 5, "velocity": 88}, {"time": 3788, "pitch": 74, "duration": 4, "velocity": 72}, {"time": 3794, "pitch": 41, "duration": 15, "velocity": 67}, {"time": 3794, "pitch": 77, "duration": 7, "velocity": 62}, {"time": 3800, "pitch": 48, "duration": 9, "velocity": 69}, {"time": 3806, "pitch": 53, "duration": 5, "velocity": 63}, {"time": 3806, "pitch": 79, "duration": 4, "velocity": 76}, {"time": 3812, "pitch": 77, "duration": 4, "velocity": 75}, {"time": 3818, "pitch": 50, "duration": 17, "velocity": 69}, {"time": 3818, "pitch": 74, "duration": 5, "velocity": 91}, {"time": 3824, "pitch": 57, "duration": 11, "velocity": 57}, {"time": 3824, "pitch": 72, "duration": 6, "velocity": 85}, {"time": 3830, "pitch": 62, "duration": 2, "velocity": 58}, {"time": 3830, "pitch": 69, "duration": 5, "velocity": 80}, {"time": 3836, "pitch": 65, "duration": 4, "velocity": 64}, {"time": 3842, "pitch": 43, "duration": 19, "velocity": 73}, {"time": 3842, "pitch": 67, "duration": 5, "velocity": 85}, {"time": 3848, "pitch": 50, "duration": 6, "velocity": 50}, {"time": 3854, "pitch": 55, "duration": 4, "velocity": 61}, {"time": 3854, "pitch": 62, "duration": 2, "velocity": 75}, {"time": 3854, "pitch": 70, "duration": 2, "velocity": 76}, {"time": 3860, "pitch": 50, "duration": 2, "velocity": 62}, {"time": 3860, "pitch": 60, "duration": 2, "velocity": 75}, {"time": 3860, "pitch": 69, "duration": 2, "velocity": 67}, {"time": 3866, "pitch": 48, "duration": 40, "velocity": 69}, {"time": 3866, "pitch": 58, "duration": 5, "velocity": 76}, {"time": 3866, "pitch": 67, "duration": 11, "velocity": 76}, {"time": 3872, "pitch": 55, "duration": 13, "velocity": 54}, {"time": 3878, "pitch": 60, "duration": 4, "velocity": 64}, {"time": 3878, "pitch": 63, "duration": 6, "velocity": 72}, {"time": 3884, "pitch": 67, "duration": 4, "velocity": 63}, {"time": 3890, "pitch": 55, "duration": 9, "velocity": 60}, {"time": 3890, "pitch": 60, "duration": 5, "velocity": 63}, {"time": 3890, "pitch": 63, "duration": 7, "velocity": 70}, {"time": 3890, "pitch": 67, "duration": 4, "velocity": 55}, {"time": 3896, "pitch": 65, "duration": 4, "velocity": 69}, {"time": 3902, "pitch": 55, "duration": 3, "velocity": 70}, {"time": 3902, "pitch": 63, "duration": 3, "velocity": 82}, {"time": 3902, "pitch": 67, "duration": 6, "velocity": 88}, {"time": 3908, "pitch": 70, "duration": 4, "velocity": 67}, {"time": 3914, "pitch": 48, "duration": 12, "velocity": 70}, {"time": 3914, "pitch": 63, "duration": 5, "velocity": 75}, {"time": 3914, "pitch": 67, "duration": 5, "velocity": 69}, {"time": 3920, "pitch": 55, "duration": 7, "velocity": 63}, {"time": 3920, "pitch": 62, "duration": 4, "velocity": 73}, {"time": 3920, "pitch": 65, "duration": 5, "velocity": 75}, {"time": 3926, "pitch": 63, "duration": 4, "velocity": 67}, {"time": 3926, "pitch": 67, "duration": 5, "velocity": 66}, {"time": 3932, "pitch": 41, "duration": 4, "velocity": 47}, {"time": 3938, "pitch": 46, "duration": 39, "velocity": 75}, {"time": 3938, "pitch": 62, "duration": 9, "velocity": 78}, {"time": 3938, "pitch": 65, "duration": 10, "velocity": 80}, {"time": 3944, "pitch": 53, "duration": 31, "velocity": 62}, {"time": 3950, "pitch": 58, "duration": 8, "velocity": 82}, {"time": 3956, "pitch": 63, "duration": 5, "velocity": 70}, {"time": 3962, "pitch": 58, "duration": 7, "velocity": 61}, {"time": 3962, "pitch": 62, "duration": 8, "velocity": 62}, {"time": 3962, "pitch": 65, "duration": 7, "velocity": 69}, {"time": 3974, "pitch": 62, "duration": 2, "velocity": 64}, {"time": 3974, "pitch": 70, "duration": 2, "velocity": 75}, {"time": 3980, "pitch": 63, "duration": 2, "velocity": 64}, {"time": 3980, "pitch": 72, "duration": 2, "velocity": 69}, {"time": 3986, "pitch": 46, "duration": 18, "velocity": 66}, {"time": 3986, "pitch": 77, "duration": 5, "velocity": 73}, {"time": 3992, "pitch": 53, "duration": 7, "velocity": 63}, {"time": 3992, "pitch": 77, "duration": 4, "velocity": 70}, {"time": 3998, "pitch": 58, "duration": 6, "velocity": 82}, {"time": 3998, "pitch": 74, "duration": 4, "velocity": 93}, {"time": 3998, "pitch": 77, "duration": 1, "velocity": 44}, {"time": 4004, "pitch": 53, "duration": 3, "velocity": 54}, {"time": 4004, "pitch": 72, "duration": 5, "velocity": 82}, {"time": 4010, "pitch": 46, "duration": 18, "velocity": 82}, {"time": 4010, "pitch": 65, "duration": 4, "velocity": 88}, {"time": 4010, "pitch": 70, "duration": 3, "velocity": 82}, {"time": 4016, "pitch": 53, "duration": 6, "velocity": 66}, {"time": 4022, "pitch": 58, "duration": 4, "velocity": 76}, {"time": 4022, "pitch": 62, "duration": 3, "velocity": 75}, {"time": 4022, "pitch": 65, "duration": 4, "velocity": 95}, {"time": 4028, "pitch": 53, "duration": 1, "velocity": 60}, {"time": 4028, "pitch": 63, "duration": 1, "velocity": 49}, {"time": 4028, "pitch": 67, "duration": 4, "velocity": 97}, {"time": 4034, "pitch": 43, "duration": 20, "velocity": 72}, {"time": 4034, "pitch": 62, "duration": 4, "velocity": 66}, {"time": 4034, "pitch": 70, "duration": 4, "velocity": 78}, {"time": 4040, "pitch": 50, "duration": 6, "velocity": 64}, {"time": 4040, "pitch": 62, "duration": 4, "velocity": 76}, {"time": 4040, "pitch": 69, "duration": 5, "velocity": 80}, {"time": 4046, "pitch": 55, "duration": 4, "velocity": 67}, {"time": 4046, "pitch": 62, "duration": 4, "velocity": 80}, {"time": 4046, "pitch": 70, "duration": 4, "velocity": 67}, {"time": 4052, "pitch": 50, "duration": 2, "velocity": 62}, {"time": 4052, "pitch": 69, "duration": 4, "velocity": 93}, {"time": 4058, "pitch": 41, "duration": 7, "velocity": 70}, {"time": 4058, "pitch": 60, "duration": 6, "velocity": 76}, {"time": 4058, "pitch": 65, "duration": 6, "velocity": 93}, {"time": 4064, "pitch": 48, "duration": 2, "velocity": 62}, {"time": 4067, "pitch": 53, "duration": 4, "velocity": 93}, {"time": 4070, "pitch": 55, "duration": 4, "velocity": 70}, {"time": 4073, "pitch": 57, "duration": 1, "velocity": 97}, {"time": 4076, "pitch": 60, "duration": 2, "velocity": 85}, {"time": 4079, "pitch": 65, "duration": 2, "velocity": 67}, {"time": 4082, "pitch": 43, "duration": 19, "velocity": 85}, {"time": 4082, "pitch": 58, "duration": 7, "velocity": 76}, {"time": 4082, "pitch": 62, "duration": 7, "velocity": 75}, {"time": 4082, "pitch": 67, "duration": 6, "velocity": 75}, {"time": 4088, "pitch": 50, "duration": 7, "velocity": 58}, {"time": 4094, "pitch": 55, "duration": 6, "velocity": 60}, {"time": 4094, "pitch": 58, "duration": 4, "velocity": 76}, {"time": 4094, "pitch": 62, "duration": 4, "velocity": 76}, {"time": 4094, "pitch": 67, "duration": 4, "velocity": 73}, {"time": 4100, "pitch": 50, "duration": 3, "velocity": 67}, {"time": 4106, "pitch": 41, "duration": 10, "velocity": 66}, {"time": 4106, "pitch": 60, "duration": 4, "velocity": 54}, {"time": 4106, "pitch": 65, "duration": 5, "velocity": 66}, {"time": 4106, "pitch": 69, "duration": 5, "velocity": 55}, {"time": 4112, "pitch": 48, "duration": 6, "velocity": 67}, {"time": 4112, "pitch": 60, "duration": 4, "velocity": 62}, {"time": 4112, "pitch": 67, "duration": 6, "velocity": 78}, {"time": 4118, "pitch": 53, "duration": 7, "velocity": 64}, {"time": 4118, "pitch": 60, "duration": 6, "velocity": 67}, {"time": 4118, "pitch": 72, "duration": 5, "velocity": 75}, {"time": 4124, "pitch": 55, "duration": 2, "velocity": 66}, {"time": 4130, "pitch": 43, "duration": 18, "velocity": 75}, {"time": 4130, "pitch": 58, "duration": 8, "velocity": 73}, {"time": 4130, "pitch": 62, "duration": 6, "velocity": 75}, {"time": 4130, "pitch": 67, "duration": 6, "velocity": 73}, {"time": 4136, "pitch": 50, "duration": 12, "velocity": 66}, {"time": 4136, "pitch": 65, "duration": 5, "velocity": 72}, {"time": 4142, "pitch": 55, "duration": 3, "velocity": 64}, {"time": 4142, "pitch": 58, "duration": 3, "velocity": 73}, {"time": 4142, "pitch": 67, "duration": 3, "velocity": 60}, {"time": 4148, "pitch": 55, "duration": 3, "velocity": 69}, {"time": 4154, "pitch": 48, "duration": 20, "velocity": 66}, {"time": 4154, "pitch": 60, "duration": 6, "velocity": 72}, {"time": 4154, "pitch": 65, "duration": 7, "velocity": 78}, {"time": 4160, "pitch": 55, "duration": 14, "velocity": 66}, {"time": 4160, "pitch": 63, "duration": 6, "velocity": 73}, {"time": 4166, "pitch": 60, "duration": 5, "velocity": 70}, {"time": 4166, "pitch": 65, "duration": 4, "velocity": 72}, {"time": 4172, "pitch": 67, "duration": 5, "velocity": 76}, {"time": 4178, "pitch": 50, "duration": 17, "velocity": 72}, {"time": 4178, "pitch": 69, "duration": 5, "velocity": 88}, {"time": 4184, "pitch": 57, "duration": 10, "velocity": 59}, {"time": 4184, "pitch": 67, "duration": 7, "velocity": 88}, {"time": 4190, "pitch": 62, "duration": 3, "velocity": 72}, {"time": 4190, "pitch": 69, "duration": 5, "velocity": 88}, {"time": 4196, "pitch": 74, "duration": 4, "velocity": 72}, {"time": 4202, "pitch": 41, "duration": 15, "velocity": 67}, {"time": 4202, "pitch": 77, "duration": 7, "velocity": 62}, {"time": 4208, "pitch": 48, "duration": 9, "velocity": 69}, {"time": 4214, "pitch": 53, "duration": 5, "velocity": 63}, {"time": 4214, "pitch": 79, "duration": 4, "velocity": 76}, {"time": 4220, "pitch": 77, "duration": 4, "velocity": 75}, {"time": 4226, "pitch": 50, "duration": 17, "velocity": 69}, {"time": 4226, "pitch": 74, "duration": 5, "velocity": 91}, {"time": 4232, "pitch": 57, "duration": 11, "velocity": 57}, {"time": 4232, "pitch": 72, "duration": 6, "velocity": 85}, {"time": 4238, "pitch": 62, "duration": 2, "velocity": 58}, {"time": 4238, "pitch": 69, "duration": 5, "velocity": 80}, {"time": 4244, "pitch": 65, "duration": 4, "velocity": 64}, {"time": 4250, "pitch": 43, "duration": 19, "velocity": 73}, {"time": 4250, "pitch": 67, "duration": 5, "velocity": 85}, {"time": 4256, "pitch": 50, "duration": 6, "velocity": 50}, {"time": 4262, "pitch": 55, "duration": 4, "velocity": 61}, {"time": 4262, "pitch": 62, "duration": 2, "velocity": 75}, {"time": 4262, "pitch": 72, "duration": 2, "velocity": 76}, {"time": 4268, "pitch": 50, "duration": 2, "velocity": 62}, {"time": 4268, "pitch": 60, "duration": 2, "velocity": 75}, {"time": 4268, "pitch": 70, "duration": 2, "velocity": 67}, {"time": 4274, "pitch": 48, "duration": 40, "velocity": 69}, {"time": 4274, "pitch": 58, "duration": 5, "velocity": 76}, {"time": 4274, "pitch": 67, "duration": 11, "velocity": 76}, {"time": 4280, "pitch": 55, "duration": 13, "velocity": 54}, {"time": 4286, "pitch": 60, "duration": 4, "velocity": 64}, {"time": 4286, "pitch": 63, "duration": 6, "velocity": 72}, {"time": 4292, "pitch": 67, "duration": 4, "velocity": 63}, {"time": 4298, "pitch": 55, "duration": 9, "velocity": 60}, {"time": 4298, "pitch": 60, "duration": 5, "velocity": 63}, {"time": 4298, "pitch": 63, "duration": 7, "velocity": 70}, {"time": 4298, "pitch": 67, "duration": 4, "velocity": 55}, {"time": 4304, "pitch": 65, "duration": 4, "velocity": 69}, {"time": 4310, "pitch": 55, "duration": 3, "velocity": 70}, {"time": 4310, "pitch": 63, "duration": 3, "velocity": 82}, {"time": 4310, "pitch": 67, "duration": 6, "velocity": 88}, {"time": 4316, "pitch": 70, "duration": 4, "velocity": 67}, {"time": 4322, "pitch": 48, "duration": 12, "velocity": 70}, {"time": 4322, "pitch": 63, "duration": 5, "velocity": 75}, {"time": 4322, "pitch": 67, "duration": 5, "velocity": 69}, {"time": 4328, "pitch": 55, "duration": 7, "velocity": 63}, {"time": 4328, "pitch": 62, "duration": 4, "velocity": 73}, {"time": 4328, "pitch": 65, "duration": 5, "velocity": 75}, {"time": 4334, "pitch": 63, "duration": 4, "velocity": 67}, {"time": 4334, "pitch": 67, "duration": 5, "velocity": 66}, {"time": 4340, "pitch": 41, "duration": 4, "velocity": 47}, {"time": 4346, "pitch": 46, "duration": 39, "velocity": 75}, {"time": 4346, "pitch": 62, "duration": 9, "velocity": 78}, {"time": 4346, "pitch": 65, "duration": 10, "velocity": 80}, {"time": 4352, "pitch": 53, "duration": 31, "velocity": 62}, {"time": 4358, "pitch": 58, "duration": 8, "velocity": 82}, {"time": 4364, "pitch": 63, "duration": 5, "velocity": 70}, {"time": 4370, "pitch": 58, "duration": 7, "velocity": 61}, {"time": 4370, "pitch": 62, "duration": 8, "velocity": 62}, {"time": 4370, "pitch": 65, "duration": 7, "velocity": 69}, {"time": 4382, "pitch": 62, "duration": 2, "velocity": 64}, {"time": 4382, "pitch": 70, "duration": 2, "velocity": 75}, {"time": 4388, "pitch": 63, "duration": 2, "velocity": 64}, {"time": 4388, "pitch": 72, "duration": 2, "velocity": 69}, {"time": 4394, "pitch": 48, "duration": 15, "velocity": 63}, {"time": 4394, "pitch": 63, "duration": 12, "velocity": 66}, {"time": 4394, "pitch": 67, "duration": 11, "velocity": 63}, {"time": 4400, "pitch": 55, "duration": 9, "velocity": 60}, {"time": 4406, "pitch": 60, "duration": 3, "velocity": 67}, {"time": 4493, "pitch": 46, "duration": 88, "velocity": 66}, {"time": 4505, "pitch": 53, "duration": 74, "velocity": 59}, {"time": 4511, "pitch": 58, "duration": 66, "velocity": 57}, {"time": 4517, "pitch": 60, "duration": 2, "velocity": 55}, {"time": 4523, "pitch": 62, "duration": 2, "velocity": 47}, {"time": 4526, "pitch": 65, "duration": 1, "velocity": 57}, {"time": 4532, "pitch": 70, "duration": 3, "velocity": 69}, {"time": 4538, "pitch": 72, "duration": 1, "velocity": 48}, {"time": 4541, "pitch": 77, "duration": 1, "velocity": 57}, {"time": 4547, "pitch": 82, "duration": 2, "velocity": 51}, {"time": 4553, "pitch": 84, "duration": 3, "velocity": 43}, {"time": 4559, "pitch": 86, "duration": 1, "velocity": 49}, {"time": 4568, "pitch": 89, "duration": 2, "velocity": 31}, {"time": 4577, "pitch": 94, "duration": 2, "velocity": 47}], "annotations": [{"time": 50, "annotation": {"number": 64, "value": 127}, "group": "control_change"}, {"time": 97, "annotation": {"number": 64, "value": 0}, "group": "control_change"}, {"time": 103, "annotation": {"number": 64, "value": 127}, "group": "control_change"}, {"time": 145, "annotation": {"number": 64, "value": 0}, "group": "control_change"}, {"time": 152, "annotation": {"number": 64, "value": 127}, "group": "control_change"}, {"time": 193, "annotation": {"number": 64, "value": 0}, "group": "control_change"}, {"time": 199, "annotation": {"number": 64, "value": 127}, "group": "control_change"}, {"time": 217, "annotation": {"number": 64, "value": 0}, "group": "control_change"}, {"time": 223, "annotation": {"number": 64, "value": 127}, "group": "control_change"}, {"time": 242, "annotation": {"number": 64, "value": 0}, "group": "control_change"}, {"time": 248, "annotation": {"number": 64, "value": 127}, "group": "control_change"}, {"time": 288, "annotation": {"number": 64, "value": 0}, "group": "control_change"}, {"time": 295, "annotation": {"number": 64, "value": 127}, "group": "control_change"}, {"time": 314, "annotation": {"number": 64, "value": 0}, "group": "control_change"}, {"time": 315, "annotation": {"number": 64, "value": 127}, "group": "control_change"}, {"time": 337, "annotation": {"number": 64, "value": 0}, "group": "control_change"}, {"time": 339, "annotation": {"number": 64, "value": 127}, "group": "control_change"}, {"time": 362, "annotation": {"number": 64, "value": 0}, "group": "control_change"}, {"time": 367, "annotation": {"number": 64, "value": 127}, "group": "control_change"}, {"time": 385, "annotation": {"number": 64, "value": 0}, "group": "control_change"}, {"time": 393, "annotation": {"number": 64, "value": 127}, "group": "control_change"}, {"time": 432, "annotation": {"number": 64, "value": 0}, "group": "control_change"}, {"time": 434, "annotation": {"number": 64, "value": 127}, "group": "control_change"}, {"time": 482, "annotation": {"number": 64, "value": 0}, "group": "control_change"}, {"time": 487, "annotation": {"number": 64, "value": 127}, "group": "control_change"}, {"time": 530, "annotation": {"number": 64, "value": 0}, "group": "control_change"}, {"time": 534, "annotation": {"number": 64, "value": 127}, "group": "control_change"}, {"time": 554, "annotation": {"number": 64, "value": 127}, "group": "control_change"}, {"time": 572, "annotation": {"number": 64, "value": 0}, "group": "control_change"}, {"time": 578, "annotation": {"number": 64, "value": 0}, "group": "control_change"}, {"time": 582, "annotation": {"number": 64, "value": 127}, "group": "control_change"}, {"time": 625, "annotation": {"number": 64, "value": 0}, "group": "control_change"}, {"time": 625, "annotation": {"number": 64, "value": 127}, "group": "control_change"}, {"time": 649, "annotation": {"number": 64, "value": 0}, "group": "control_change"}, {"time": 654, "annotation": {"number": 64, "value": 127}, "group": "control_change"}, {"time": 674, "annotation": {"number": 64, "value": 0}, "group": "control_change"}, {"time": 679, "annotation": {"number": 64, "value": 127}, "group": "control_change"}, {"time": 696, "annotation": {"number": 64, "value": 0}, "group": "control_change"}, {"time": 701, "annotation": {"number": 64, "value": 127}, "group": "control_change"}, {"time": 722, "annotation": {"number": 64, "value": 0}, "group": "control_change"}, {"time": 726, "annotation": {"number": 64, "value": 127}, "group": "control_change"}, {"time": 769, "annotation": {"number": 64, "value": 127}, "group": "control_change"}, {"time": 770, "annotation": {"number": 64, "value": 0}, "group": "control_change"}, {"time": 775, "annotation": {"number": 64, "value": 127}, "group": "control_change"}, {"time": 782, "annotation": {"number": 64, "value": 0}, "group": "control_change"}, {"time": 793, "annotation": {"number": 64, "value": 0}, "group": "control_change"}, {"time": 798, "annotation": {"number": 64, "value": 127}, "group": "control_change"}, {"time": 840, "annotation": {"number": 64, "value": 0}, "group": "control_change"}, {"time": 844, "annotation": {"number": 64, "value": 127}, "group": "control_change"}, {"time": 867, "annotation": {"number": 64, "value": 127}, "group": "control_change"}, {"time": 890, "annotation": {"number": 64, "value": 0}, "group": "control_change"}, {"time": 895, "annotation": {"number": 64, "value": 127}, "group": "control_change"}, {"time": 914, "annotation": {"number": 64, "value": 0}, "group": "control_change"}, {"time": 919, "annotation": {"number": 64, "value": 127}, "group": "control_change"}, {"time": 938, "annotation": {"number": 64, "value": 127}, "group": "control_change"}, {"time": 939, "annotation": {"number": 64, "value": 0}, "group": "control_change"}, {"time": 943, "annotation": {"number": 64, "value": 127}, "group": "control_change"}, {"time": 954, "annotation": {"number": 64, "value": 0}, "group": "control_change"}, {"time": 963, "annotation": {"number": 64, "value": 0}, "group": "control_change"}, {"time": 968, "annotation": {"number": 64, "value": 127}, "group": "control_change"}, {"time": 986, "annotation": {"number": 64, "value": 0}, "group": "control_change"}, {"time": 986, "annotation": {"number": 64, "value": 127}, "group": "control_change"}, {"time": 991, "annotation": {"number": 64, "value": 127}, "group": "control_change"}, {"time": 998, "annotation": {"number": 64, "value": 0}, "group": "control_change"}, {"time": 1009, "annotation": {"number": 64, "value": 127}, "group": "control_change"}, {"time": 1022, "annotation": {"number": 64, "value": 0}, "group": "control_change"}, {"time": 1032, "annotation": {"number": 64, "value": 0}, "group": "control_change"}, {"time": 1033, "annotation": {"number": 64, "value": 127}, "group": "control_change"}, {"time": 1037, "annotation": {"number": 64, "value": 127}, "group": "control_change"}, {"time": 1053, "annotation": {"number": 64, "value": 0}, "group": "control_change"}, {"time": 1060, "annotation": {"number": 64, "value": 0}, "group": "control_change"}, {"time": 1064, "annotation": {"number": 64, "value": 127}, "group": "control_change"}, {"time": 1080, "annotation": {"number": 64, "value": 0}, "group": "control_change"}, {"time": 1084, "annotation": {"number": 64, "value": 127}, "group": "control_change"}, {"time": 1103, "annotation": {"number": 64, "value": 0}, "group": "control_change"}, {"time": 1107, "annotation": {"number": 64, "value": 127}, "group": "control_change"}, {"time": 1130, "annotation": {"number": 64, "value": 0}, "group": "control_change"}, {"time": 1134, "annotation": {"number": 64, "value": 127}, "group": "control_change"}, {"time": 1176, "annotation": {"number": 64, "value": 0}, "group": "control_change"}, {"time": 1180, "annotation": {"number": 64, "value": 127}, "group": "control_change"}, {"time": 1225, "annotation": {"number": 64, "value": 0}, "group": "control_change"}, {"time": 1228, "annotation": {"number": 64, "value": 127}, "group": "control_change"}, {"time": 1249, "annotation": {"number": 64, "value": 0}, "group": "control_change"}, {"time": 1252, "annotation": {"number": 64, "value": 127}, "group": "control_change"}, {"time": 1272, "annotation": {"number": 64, "value": 0}, "group": "control_change"}, {"time": 1275, "annotation": {"number": 64, "value": 127}, "group": "control_change"}, {"time": 1296, "annotation": {"number": 64, "value": 0}, "group": "control_change"}, {"time": 1299, "annotation": {"number": 64, "value": 127}, "group": "control_change"}, {"time": 1320, "annotation": {"number": 64, "value": 0}, "group": "control_change"}, {"time": 1322, "annotation": {"number": 64, "value": 127}, "group": "control_change"}, {"time": 1323, "annotation": {"number": 64, "value": 127}, "group": "control_change"}, {"time": 1334, "annotation": {"number": 64, "value": 0}, "group": "control_change"}, {"time": 1368, "annotation": {"number": 64, "value": 0}, "group": "control_change"}, {"time": 1370, "annotation": {"number": 64, "value": 127}, "group": "control_change"}, {"time": 1371, "annotation": {"number": 64, "value": 127}, "group": "control_change"}, {"time": 1387, "annotation": {"number": 64, "value": 0}, "group": "control_change"}, {"time": 1391, "annotation": {"number": 64, "value": 0}, "group": "control_change"}, {"time": 1395, "annotation": {"number": 64, "value": 127}, "group": "control_change"}, {"time": 1417, "annotation": {"number": 64, "value": 127}, "group": "control_change"}, {"time": 1418, "annotation": {"number": 64, "value": 0}, "group": "control_change"}, {"time": 1423, "annotation": {"number": 64, "value": 127}, "group": "control_change"}, {"time": 1433, "annotation": {"number": 64, "value": 0}, "group": "control_change"}, {"time": 1441, "annotation": {"number": 64, "value": 0}, "group": "control_change"}, {"time": 1445, "annotation": {"number": 64, "value": 127}, "group": "control_change"}, {"time": 1466, "annotation": {"number": 64, "value": 0}, "group": "control_change"}, {"time": 1470, "annotation": {"number": 64, "value": 127}, "group": "control_change"}, {"time": 1487, "annotation": {"number": 64, "value": 0}, "group": "control_change"}, {"time": 1489, "annotation": {"number": 64, "value": 127}, "group": "control_change"}, {"time": 1514, "annotation": {"number": 64, "value": 0}, "group": "control_change"}, {"time": 1518, "annotation": {"number": 64, "value": 127}, "group": "control_change"}, {"time": 1538, "annotation": {"number": 64, "value": 0}, "group": "control_change"}, {"time": 1541, "annotation": {"number": 64, "value": 127}, "group": "control_change"}, {"time": 1563, "annotation": {"number": 64, "value": 0}, "group": "control_change"}, {"time": 1566, "annotation": {"number": 64, "value": 127}, "group": "control_change"}, {"time": 1583, "annotation": {"number": 64, "value": 0}, "group": "control_change"}, {"time": 1586, "annotation": {"number": 64, "value": 127}, "group": "control_change"}, {"time": 1608, "annotation": {"number": 64, "value": 0}, "group": "control_change"}, {"time": 1610, "annotation": {"number": 64, "value": 127}, "group": "control_change"}, {"time": 1657, "annotation": {"number": 64, "value": 0}, "group": "control_change"}, {"time": 1660, "annotation": {"number": 64, "value": 127}, "group": "control_change"}, {"time": 1680, "annotation": {"number": 64, "value": 0}, "group": "control_change"}, {"time": 1682, "annotation": {"number": 64, "value": 127}, "group": "control_change"}, {"time": 1706, "annotation": {"number": 64, "value": 0}, "group": "control_change"}, {"time": 1706, "annotation": {"number": 64, "value": 127}, "group": "control_change"}, {"time": 1709, "annotation": {"number": 64, "value": 127}, "group": "control_change"}, {"time": 1715, "annotation": {"number": 64, "value": 0}, "group": "control_change"}, {"time": 1729, "annotation": {"number": 64, "value": 127}, "group": "control_change"}, {"time": 1729, "annotation": {"number": 64, "value": 0}, "group": "control_change"}, {"time": 1734, "annotation": {"number": 64, "value": 127}, "group": "control_change"}, {"time": 1752, "annotation": {"number": 64, "value": 0}, "group": "control_change"}, {"time": 1755, "annotation": {"number": 64, "value": 0}, "group": "control_change"}, {"time": 1756, "annotation": {"number": 64, "value": 127}, "group": "control_change"}, {"time": 1759, "annotation": {"number": 64, "value": 127}, "group": "control_change"}, {"time": 1769, "annotation": {"number": 64, "value": 0}, "group": "control_change"}, {"time": 1778, "annotation": {"number": 64, "value": 0}, "group": "control_change"}, {"time": 1782, "annotation": {"number": 64, "value": 127}, "group": "control_change"}, {"time": 1801, "annotation": {"number": 64, "value": 0}, "group": "control_change"}, {"time": 1801, "annotation": {"number": 64, "value": 127}, "group": "control_change"}, {"time": 1804, "annotation": {"number": 64, "value": 127}, "group": "control_change"}, {"time": 1813, "annotation": {"number": 64, "value": 0}, "group": "control_change"}, {"time": 1824, "annotation": {"number": 64, "value": 0}, "group": "control_change"}, {"time": 1827, "annotation": {"number": 64, "value": 127}, "group": "control_change"}, {"time": 1850, "annotation": {"number": 64, "value": 0}, "group": "control_change"}, {"time": 1855, "annotation": {"number": 64, "value": 127}, "group": "control_change"}, {"time": 1872, "annotation": {"number": 64, "value": 0}, "group": "control_change"}, {"time": 1876, "annotation": {"number": 64, "value": 127}, "group": "control_change"}, {"time": 1900, "annotation": {"number": 64, "value": 0}, "group": "control_change"}, {"time": 1903, "annotation": {"number": 64, "value": 127}, "group": "control_change"}, {"time": 1945, "annotation": {"number": 64, "value": 127}, "group": "control_change"}, {"time": 1946, "annotation": {"number": 64, "value": 0}, "group": "control_change"}, {"time": 1950, "annotation": {"number": 64, "value": 127}, "group": "control_change"}, {"time": 1960, "annotation": {"number": 64, "value": 0}, "group": "control_change"}, {"time": 1970, "annotation": {"number": 64, "value": 0}, "group": "control_change"}, {"time": 1974, "annotation": {"number": 64, "value": 127}, "group": "control_change"}, {"time": 2018, "annotation": {"number": 64, "value": 0}, "group": "control_change"}, {"time": 2018, "annotation": {"number": 64, "value": 127}, "group": "control_change"}, {"time": 2065, "annotation": {"number": 64, "value": 0}, "group": "control_change"}, {"time": 2071, "annotation": {"number": 64, "value": 127}, "group": "control_change"}, {"time": 2113, "annotation": {"number": 64, "value": 0}, "group": "control_change"}, {"time": 2120, "annotation": {"number": 64, "value": 127}, "group": "control_change"}, {"time": 2161, "annotation": {"number": 64, "value": 0}, "group": "control_change"}, {"time": 2167, "annotation": {"number": 64, "value": 127}, "group": "control_change"}, {"time": 2185, "annotation": {"number": 64, "value": 0}, "group": "control_change"}, {"time": 2191, "annotation": {"number": 64, "value": 127}, "group": "control_change"}, {"time": 2210, "annotation": {"number": 64, "value": 0}, "group": "control_change"}, {"time": 2216, "annotation": {"number": 64, "value": 127}, "group": "control_change"}, {"time": 2256, "annotation": {"number": 64, "value": 0}, "group": "control_change"}, {"time": 2263, "annotation": {"number": 64, "value": 127}, "group": "control_change"}, {"time": 2282, "annotation": {"number": 64, "value": 0}, "group": "control_change"}, {"time": 2283, "annotation": {"number": 64, "value": 127}, "group": "control_change"}, {"time": 2305, "annotation": {"number": 64, "value": 0}, "group": "control_change"}, {"time": 2307, "annotation": {"number": 64, "value": 127}, "group": "control_change"}, {"time": 2330, "annotation": {"number": 64, "value": 0}, "group": "control_change"}, {"time": 2335, "annotation": {"number": 64, "value": 127}, "group": "control_change"}, {"time": 2353, "annotation": {"number": 64, "value": 0}, "group": "control_change"}, {"time": 2361, "annotation": {"number": 64, "value": 127}, "group": "control_change"}, {"time": 2400, "annotation": {"number": 64, "value": 0}, "group": "control_change"}, {"time": 2402, "annotation": {"number": 64, "value": 127}, "group": "control_change"}, {"time": 2450, "annotation": {"number": 64, "value": 0}, "group": "control_change"}, {"time": 2455, "annotation": {"number": 64, "value": 127}, "group": "control_change"}, {"time": 2498, "annotation": {"number": 64, "value": 0}, "group": "control_change"}, {"time": 2502, "annotation": {"number": 64, "value": 127}, "group": "control_change"}, {"time": 2522, "annotation": {"number": 64, "value": 127}, "group": "control_change"}, {"time": 2540, "annotation": {"number": 64, "value": 0}, "group": "control_change"}, {"time": 2546, "annotation": {"number": 64, "value": 0}, "group": "control_change"}, {"time": 2550, "annotation": {"number": 64, "value": 127}, "group": "control_change"}, {"time": 2593, "annotation": {"number": 64, "value": 0}, "group": "control_change"}, {"time": 2593, "annotation": {"number": 64, "value": 127}, "group": "control_change"}, {"time": 2617, "annotation": {"number": 64, "value": 0}, "group": "control_change"}, {"time": 2622, "annotation": {"number": 64, "value": 127}, "group": "control_change"}, {"time": 2642, "annotation": {"number": 64, "value": 0}, "group": "control_change"}, {"time": 2647, "annotation": {"number": 64, "value": 127}, "group": "control_change"}, {"time": 2664, "annotation": {"number": 64, "value": 0}, "group": "control_change"}, {"time": 2669, "annotation": {"number": 64, "value": 127}, "group": "control_change"}, {"time": 2690, "annotation": {"number": 64, "value": 0}, "group": "control_change"}, {"time": 2694, "annotation": {"number": 64, "value": 127}, "group": "control_change"}, {"time": 2737, "annotation": {"number": 64, "value": 127}, "group": "control_change"}, {"time": 2738, "annotation": {"number": 64, "value": 0}, "group": "control_change"}, {"time": 2743, "annotation": {"number": 64, "value": 127}, "group": "control_change"}, {"time": 2750, "annotation": {"number": 64, "value": 0}, "group": "control_change"}, {"time": 2761, "annotation": {"number": 64, "value": 0}, "group": "control_change"}, {"time": 2766, "annotation": {"number": 64, "value": 127}, "group": "control_change"}, {"time": 2808, "annotation": {"number": 64, "value": 0}, "group": "control_change"}, {"time": 2812, "annotation": {"number": 64, "value": 127}, "group": "control_change"}, {"time": 2835, "annotation": {"number": 64, "value": 127}, "group": "control_change"}, {"time": 2858, "annotation": {"number": 64, "value": 0}, "group": "control_change"}, {"time": 2863, "annotation": {"number": 64, "value": 127}, "group": "control_change"}, {"time": 2882, "annotation": {"number": 64, "value": 0}, "group": "control_change"}, {"time": 2887, "annotation": {"number": 64, "value": 127}, "group": "control_change"}, {"time": 2906, "annotation": {"number": 64, "value": 127}, "group": "control_change"}, {"time": 2907, "annotation": {"number": 64, "value": 0}, "group": "control_change"}, {"time": 2911, "annotation": {"number": 64, "value": 127}, "group": "control_change"}, {"time": 2922, "annotation": {"number": 64, "value": 0}, "group": "control_change"}, {"time": 2931, "annotation": {"number": 64, "value": 0}, "group": "control_change"}, {"time": 2936, "annotation": {"number": 64, "value": 127}, "group": "control_change"}, {"time": 2954, "annotation": {"number": 64, "value": 0}, "group": "control_change"}, {"time": 2954, "annotation": {"number": 64, "value": 127}, "group": "control_change"}, {"time": 2959, "annotation": {"number": 64, "value": 127}, "group": "control_change"}, {"time": 2966, "annotation": {"number": 64, "value": 0}, "group": "control_change"}, {"time": 2977, "annotation": {"number": 64, "value": 127}, "group": "control_change"}, {"time": 2990, "annotation": {"number": 64, "value": 0}, "group": "control_change"}, {"time": 3000, "annotation": {"number": 64, "value": 0}, "group": "control_change"}, {"time": 3001, "annotation": {"number": 64, "value": 127}, "group": "control_change"}, {"time": 3005, "annotation": {"number": 64, "value": 127}, "group": "control_change"}, {"time": 3021, "annotation": {"number": 64, "value": 0}, "group": "control_change"}, {"time": 3028, "annotation": {"number": 64, "value": 0}, "group": "control_change"}, {"time": 3032, "annotation": {"number": 64, "value": 127}, "group": "control_change"}, {"time": 3048, "annotation": {"number": 64, "value": 0}, "group": "control_change"}, {"time": 3052, "annotation": {"number": 64, "value": 127}, "group": "control_change"}, {"time": 3071, "annotation": {"number": 64, "value": 0}, "group": "control_change"}, {"time": 3075, "annotation": {"number": 64, "value": 127}, "group": "control_change"}, {"time": 3098, "annotation": {"number": 64, "value": 0}, "group": "control_change"}, {"time": 3102, "annotation": {"number": 64, "value": 127}, "group": "control_change"}, {"time": 3144, "annotation": {"number": 64, "value": 0}, "group": "control_change"}, {"time": 3148, "annotation": {"number": 64, "value": 127}, "group": "control_change"}, {"time": 3193, "annotation": {"number": 64, "value": 0}, "group": "control_change"}, {"time": 3196, "annotation": {"number": 64, "value": 127}, "group": "control_change"}, {"time": 3217, "annotation": {"number": 64, "value": 0}, "group": "control_change"}, {"time": 3220, "annotation": {"number": 64, "value": 127}, "group": "control_change"}, {"time": 3240, "annotation": {"number": 64, "value": 0}, "group": "control_change"}, {"time": 3243, "annotation": {"number": 64, "value": 127}, "group": "control_change"}, {"time": 3264, "annotation": {"number": 64, "value": 0}, "group": "control_change"}, {"time": 3267, "annotation": {"number": 64, "value": 127}, "group": "control_change"}, {"time": 3288, "annotation": {"number": 64, "value": 0}, "group": "control_change"}, {"time": 3290, "annotation": {"number": 64, "value": 127}, "group": "control_change"}, {"time": 3291, "annotation": {"number": 64, "value": 127}, "group": "control_change"}, {"time": 3302, "annotation": {"number": 64, "value": 0}, "group": "control_change"}, {"time": 3336, "annotation": {"number": 64, "value": 0}, "group": "control_change"}, {"time": 3338, "annotation": {"number": 64, "value": 127}, "group": "control_change"}, {"time": 3339, "annotation": {"number": 64, "value": 127}, "group": "control_change"}, {"time": 3355, "annotation": {"number": 64, "value": 0}, "group": "control_change"}, {"time": 3359, "annotation": {"number": 64, "value": 0}, "group": "control_change"}, {"time": 3363, "annotation": {"number": 64, "value": 127}, "group": "control_change"}, {"time": 3385, "annotation": {"number": 64, "value": 127}, "group": "control_change"}, {"time": 3386, "annotation": {"number": 64, "value": 0}, "group": "control_change"}, {"time": 3391, "annotation": {"number": 64, "value": 127}, "group": "control_change"}, {"time": 3401, "annotation": {"number": 64, "value": 0}, "group": "control_change"}, {"time": 3409, "annotation": {"number": 64, "value": 0}, "group": "control_change"}, {"time": 3413, "annotation": {"number": 64, "value": 127}, "group": "control_change"}, {"time": 3434, "annotation": {"number": 64, "value": 0}, "group": "control_change"}, {"time": 3438, "annotation": {"number": 64, "value": 127}, "group": "control_change"}, {"time": 3455, "annotation": {"number": 64, "value": 0}, "group": "control_change"}, {"time": 3457, "annotation": {"number": 64, "value": 127}, "group": "control_change"}, {"time": 3482, "annotation": {"number": 64, "value": 0}, "group": "control_change"}, {"time": 3486, "annotation": {"number": 64, "value": 127}, "group": "control_change"}, {"time": 3506, "annotation": {"number": 64, "value": 0}, "group": "control_change"}, {"time": 3509, "annotation": {"number": 64, "value": 127}, "group": "control_change"}, {"time": 3531, "annotation": {"number": 64, "value": 0}, "group": "control_change"}, {"time": 3534, "annotation": {"number": 64, "value": 127}, "group": "control_change"}, {"time": 3551, "annotation": {"number": 64, "value": 0}, "group": "control_change"}, {"time": 3554, "annotation": {"number": 64, "value": 127}, "group": "control_change"}, {"time": 3576, "annotation": {"number": 64, "value": 0}, "group": "control_change"}, {"time": 3578, "annotation": {"number": 64, "value": 127}, "group": "control_change"}, {"time": 3625, "annotation": {"number": 64, "value": 0}, "group": "control_change"}, {"time": 3628, "annotation": {"number": 64, "value": 127}, "group": "control_change"}, {"time": 3648, "annotation": {"number": 64, "value": 0}, "group": "control_change"}, {"time": 3650, "annotation": {"number": 64, "value": 127}, "group": "control_change"}, {"time": 3674, "annotation": {"number": 64, "value": 0}, "group": "control_change"}, {"time": 3674, "annotation": {"number": 64, "value": 127}, "group": "control_change"}, {"time": 3677, "annotation": {"number": 64, "value": 127}, "group": "control_change"}, {"time": 3683, "annotation": {"number": 64, "value": 0}, "group": "control_change"}, {"time": 3697, "annotation": {"number": 64, "value": 127}, "group": "control_change"}, {"time": 3697, "annotation": {"number": 64, "value": 0}, "group": "control_change"}, {"time": 3702, "annotation": {"number": 64, "value": 127}, "group": "control_change"}, {"time": 3720, "annotation": {"number": 64, "value": 0}, "group": "control_change"}, {"time": 3723, "annotation": {"number": 64, "value": 0}, "group": "control_change"}, {"time": 3724, "annotation": {"number": 64, "value": 127}, "group": "control_change"}, {"time": 3727, "annotation": {"number": 64, "value": 127}, "group": "control_change"}, {"time": 3737, "annotation": {"number": 64, "value": 0}, "group": "control_change"}, {"time": 3746, "annotation": {"number": 64, "value": 0}, "group": "control_change"}, {"time": 3750, "annotation": {"number": 64, "value": 127}, "group": "control_change"}, {"time": 3769, "annotation": {"number": 64, "value": 0}, "group": "control_change"}, {"time": 3769, "annotation": {"number": 64, "value": 127}, "group": "control_change"}, {"time": 3772, "annotation": {"number": 64, "value": 127}, "group": "control_change"}, {"time": 3781, "annotation": {"number": 64, "value": 0}, "group": "control_change"}, {"time": 3792, "annotation": {"number": 64, "value": 0}, "group": "control_change"}, {"time": 3795, "annotation": {"number": 64, "value": 127}, "group": "control_change"}, {"time": 3818, "annotation": {"number": 64, "value": 0}, "group": "control_change"}, {"time": 3823, "annotation": {"number": 64, "value": 127}, "group": "control_change"}, {"time": 3840, "annotation": {"number": 64, "value": 0}, "group": "control_change"}, {"time": 3844, "annotation": {"number": 64, "value": 127}, "group": "control_change"}, {"time": 3868, "annotation": {"number": 64, "value": 0}, "group": "control_change"}, {"time": 3871, "annotation": {"number": 64, "value": 127}, "group": "control_change"}, {"time": 3913, "annotation": {"number": 64, "value": 127}, "group": "control_change"}, {"time": 3914, "annotation": {"number": 64, "value": 0}, "group": "control_change"}, {"time": 3918, "annotation": {"number": 64, "value": 127}, "group": "control_change"}, {"time": 3928, "annotation": {"number": 64, "value": 0}, "group": "control_change"}, {"time": 3938, "annotation": {"number": 64, "value": 0}, "group": "control_change"}, {"time": 3942, "annotation": {"number": 64, "value": 127}, "group": "control_change"}, {"time": 3986, "annotation": {"number": 64, "value": 0}, "group": "control_change"}, {"time": 3986, "annotation": {"number": 64, "value": 127}, "group": "control_change"}, {"time": 4033, "annotation": {"number": 64, "value": 0}, "group": "control_change"}, {"time": 4036, "annotation": {"number": 64, "value": 127}, "group": "control_change"}, {"time": 4056, "annotation": {"number": 64, "value": 0}, "group": "control_change"}, {"time": 4058, "annotation": {"number": 64, "value": 127}, "group": "control_change"}, {"time": 4082, "annotation": {"number": 64, "value": 0}, "group": "control_change"}, {"time": 4082, "annotation": {"number": 64, "value": 127}, "group": "control_change"}, {"time": 4085, "annotation": {"number": 64, "value": 127}, "group": "control_change"}, {"time": 4091, "annotation": {"number": 64, "value": 0}, "group": "control_change"}, {"time": 4105, "annotation": {"number": 64, "value": 127}, "group": "control_change"}, {"time": 4105, "annotation": {"number": 64, "value": 0}, "group": "control_change"}, {"time": 4110, "annotation": {"number": 64, "value": 127}, "group": "control_change"}, {"time": 4128, "annotation": {"number": 64, "value": 0}, "group": "control_change"}, {"time": 4131, "annotation": {"number": 64, "value": 0}, "group": "control_change"}, {"time": 4132, "annotation": {"number": 64, "value": 127}, "group": "control_change"}, {"time": 4135, "annotation": {"number": 64, "value": 127}, "group": "control_change"}, {"time": 4145, "annotation": {"number": 64, "value": 0}, "group": "control_change"}, {"time": 4154, "annotation": {"number": 64, "value": 0}, "group": "control_change"}, {"time": 4158, "annotation": {"number": 64, "value": 127}, "group": "control_change"}, {"time": 4177, "annotation": {"number": 64, "value": 0}, "group": "control_change"}, {"time": 4177, "annotation": {"number": 64, "value": 127}, "group": "control_change"}, {"time": 4180, "annotation": {"number": 64, "value": 127}, "group": "control_change"}, {"time": 4189, "annotation": {"number": 64, "value": 0}, "group": "control_change"}, {"time": 4200, "annotation": {"number": 64, "value": 0}, "group": "control_change"}, {"time": 4203, "annotation": {"number": 64, "value": 127}, "group": "control_change"}, {"time": 4226, "annotation": {"number": 64, "value": 0}, "group": "control_change"}, {"time": 4231, "annotation": {"number": 64, "value": 127}, "group": "control_change"}, {"time": 4248, "annotation": {"number": 64, "value": 0}, "group": "control_change"}, {"time": 4252, "annotation": {"number": 64, "value": 127}, "group": "control_change"}, {"time": 4276, "annotation": {"number": 64, "value": 0}, "group": "control_change"}, {"time": 4279, "annotation": {"number": 64, "value": 127}, "group": "control_change"}, {"time": 4321, "annotation": {"number": 64, "value": 127}, "group": "control_change"}, {"time": 4322, "annotation": {"number": 64, "value": 0}, "group": "control_change"}, {"time": 4326, "annotation": {"number": 64, "value": 127}, "group": "control_change"}, {"time": 4336, "annotation": {"number": 64, "value": 0}, "group": "control_change"}, {"time": 4346, "annotation": {"number": 64, "value": 0}, "group": "control_change"}, {"time": 4350, "annotation": {"number": 64, "value": 127}, "group": "control_change"}, {"time": 4394, "annotation": {"number": 64, "value": 0}, "group": "control_change"}, {"time": 4395, "annotation": {"number": 64, "value": 127}, "group": "control_change"}, {"time": 4445, "annotation": {"number": 64, "value": 0}, "group": "control_change"}, {"time": 4495, "annotation": {"number": 64, "value": 127}, "group": "control_change"}, {"time": 4606, "annotation": {"number": 64, "value": 0}, "group": "control_change"}]}]}