{"metadata": {"schema_version": "0.2", "title": "None", "source_filename": "042.mid", "source_format": "midi"}, "resolution": 12, "tempos": [{"time": 0, "qpm": 72.99998296667064}], "key_signatures": [{"time": 0, "root": 0, "mode": "major"}], "time_signatures": [{"time": 0, "numerator": 4, "denominator": 4}], "tracks": [{"program": 4, "is_drum": false, "name": "MELODY", "notes": [{"time": 402, "pitch": 65, "duration": 4, "velocity": 61}, {"time": 405, "pitch": 68, "duration": 4, "velocity": 56}, {"time": 408, "pitch": 70, "duration": 6, "velocity": 64}, {"time": 414, "pitch": 70, "duration": 6, "velocity": 65}, {"time": 420, "pitch": 70, "duration": 3, "velocity": 64}, {"time": 423, "pitch": 68, "duration": 9, "velocity": 62}, {"time": 432, "pitch": 70, "duration": 18, "velocity": 72}, {"time": 450, "pitch": 70, "duration": 3, "velocity": 64}, {"time": 453, "pitch": 73, "duration": 3, "velocity": 66}, {"time": 456, "pitch": 73, "duration": 6, "velocity": 75}, {"time": 462, "pitch": 70, "duration": 6, "velocity": 82}, {"time": 468, "pitch": 65, "duration": 6, "velocity": 81}, {"time": 474, "pitch": 63, "duration": 6, "velocity": 66}, {"time": 480, "pitch": 65, "duration": 18, "velocity": 74}, {"time": 498, "pitch": 65, "duration": 3, "velocity": 89}, {"time": 501, "pitch": 68, "duration": 4, "velocity": 90}, {"time": 504, "pitch": 63, "duration": 6, "velocity": 86}, {"time": 510, "pitch": 63, "duration": 6, "velocity": 91}, {"time": 516, "pitch": 63, "duration": 4, "velocity": 87}, {"time": 519, "pitch": 61, "duration": 9, "velocity": 67}, {"time": 528, "pitch": 65, "duration": 18, "velocity": 91}, {"time": 546, "pitch": 65, "duration": 4, "velocity": 67}, {"time": 549, "pitch": 68, "duration": 4, "velocity": 83}, {"time": 552, "pitch": 70, "duration": 6, "velocity": 87}, {"time": 558, "pitch": 73, "duration": 6, "velocity": 90}, {"time": 564, "pitch": 70, "duration": 6, "velocity": 91}, {"time": 570, "pitch": 68, "duration": 7, "velocity": 87}, {"time": 576, "pitch": 70, "duration": 24, "velocity": 99}, {"time": 600, "pitch": 75, "duration": 6, "velocity": 98}, {"time": 606, "pitch": 75, "duration": 6, "velocity": 93}, {"time": 612, "pitch": 75, "duration": 3, "velocity": 90}, {"time": 615, "pitch": 73, "duration": 9, "velocity": 77}, {"time": 624, "pitch": 77, "duration": 18, "velocity": 105}, {"time": 642, "pitch": 77, "duration": 4, "velocity": 97}, {"time": 645, "pitch": 75, "duration": 3, "velocity": 91}, {"time": 648, "pitch": 73, "duration": 6, "velocity": 93}, {"time": 654, "pitch": 73, "duration": 6, "velocity": 95}, {"time": 660, "pitch": 73, "duration": 4, "velocity": 90}, {"time": 663, "pitch": 75, "duration": 9, "velocity": 93}, {"time": 672, "pitch": 73, "duration": 5, "velocity": 100}, {"time": 675, "pitch": 70, "duration": 15, "velocity": 74}, {"time": 690, "pitch": 77, "duration": 6, "velocity": 96}, {"time": 696, "pitch": 77, "duration": 4, "velocity": 95}, {"time": 699, "pitch": 75, "duration": 15, "velocity": 90}, {"time": 714, "pitch": 73, "duration": 6, "velocity": 98}, {"time": 720, "pitch": 70, "duration": 12, "velocity": 90}, {"time": 732, "pitch": 68, "duration": 6, "velocity": 91}, {"time": 738, "pitch": 73, "duration": 12, "velocity": 93}, {"time": 750, "pitch": 70, "duration": 36, "velocity": 94}, {"time": 786, "pitch": 73, "duration": 4, "velocity": 93}, {"time": 789, "pitch": 75, "duration": 3, "velocity": 84}, {"time": 792, "pitch": 77, "duration": 6, "velocity": 96}, {"time": 798, "pitch": 77, "duration": 6, "velocity": 93}, {"time": 804, "pitch": 77, "duration": 3, "velocity": 95}, {"time": 807, "pitch": 77, "duration": 10, "velocity": 95}, {"time": 816, "pitch": 75, "duration": 18, "velocity": 99}, {"time": 834, "pitch": 75, "duration": 3, "velocity": 68}, {"time": 837, "pitch": 77, "duration": 4, "velocity": 48}, {"time": 840, "pitch": 73, "duration": 6, "velocity": 64}, {"time": 846, "pitch": 70, "duration": 3, "velocity": 66}, {"time": 849, "pitch": 70, "duration": 3, "velocity": 57}, {"time": 852, "pitch": 70, "duration": 3, "velocity": 56}, {"time": 855, "pitch": 70, "duration": 3, "velocity": 56}, {"time": 858, "pitch": 68, "duration": 3, "velocity": 58}, {"time": 861, "pitch": 70, "duration": 21, "velocity": 63}, {"time": 882, "pitch": 73, "duration": 4, "velocity": 92}, {"time": 885, "pitch": 75, "duration": 3, "velocity": 86}, {"time": 888, "pitch": 77, "duration": 6, "velocity": 91}, {"time": 894, "pitch": 77, "duration": 3, "velocity": 90}, {"time": 897, "pitch": 77, "duration": 3, "velocity": 91}, {"time": 900, "pitch": 77, "duration": 3, "velocity": 86}, {"time": 903, "pitch": 77, "duration": 6, "velocity": 92}, {"time": 909, "pitch": 75, "duration": 21, "velocity": 84}, {"time": 930, "pitch": 75, "duration": 3, "velocity": 93}, {"time": 933, "pitch": 77, "duration": 3, "velocity": 81}, {"time": 936, "pitch": 73, "duration": 6, "velocity": 91}, {"time": 942, "pitch": 70, "duration": 6, "velocity": 87}, {"time": 948, "pitch": 73, "duration": 3, "velocity": 95}, {"time": 951, "pitch": 75, "duration": 9, "velocity": 96}, {"time": 960, "pitch": 77, "duration": 18, "velocity": 96}, {"time": 978, "pitch": 73, "duration": 3, "velocity": 99}, {"time": 981, "pitch": 75, "duration": 3, "velocity": 90}, {"time": 984, "pitch": 77, "duration": 9, "velocity": 97}, {"time": 993, "pitch": 80, "duration": 9, "velocity": 91}, {"time": 1002, "pitch": 77, "duration": 9, "velocity": 101}, {"time": 1011, "pitch": 75, "duration": 15, "velocity": 101}, {"time": 1026, "pitch": 75, "duration": 3, "velocity": 103}, {"time": 1029, "pitch": 77, "duration": 4, "velocity": 90}, {"time": 1032, "pitch": 73, "duration": 6, "velocity": 97}, {"time": 1038, "pitch": 70, "duration": 6, "velocity": 93}, {"time": 1044, "pitch": 70, "duration": 6, "velocity": 97}, {"time": 1050, "pitch": 70, "duration": 3, "velocity": 84}, {"time": 1053, "pitch": 68, "duration": 6, "velocity": 95}, {"time": 1059, "pitch": 70, "duration": 3, "velocity": 95}, {"time": 1062, "pitch": 68, "duration": 3, "velocity": 100}, {"time": 1065, "pitch": 65, "duration": 15, "velocity": 81}, {"time": 1080, "pitch": 63, "duration": 6, "velocity": 91}, {"time": 1086, "pitch": 63, "duration": 6, "velocity": 90}, {"time": 1092, "pitch": 63, "duration": 6, "velocity": 93}, {"time": 1098, "pitch": 61, "duration": 3, "velocity": 68}, {"time": 1101, "pitch": 63, "duration": 7, "velocity": 82}, {"time": 1107, "pitch": 65, "duration": 15, "velocity": 90}, {"time": 1122, "pitch": 65, "duration": 3, "velocity": 90}, {"time": 1125, "pitch": 68, "duration": 3, "velocity": 86}, {"time": 1128, "pitch": 70, "duration": 9, "velocity": 91}, {"time": 1137, "pitch": 73, "duration": 24, "velocity": 90}, {"time": 1161, "pitch": 72, "duration": 15, "velocity": 85}, {"time": 1176, "pitch": 68, "duration": 12, "velocity": 94}, {"time": 1185, "pitch": 70, "duration": 39, "velocity": 71}, {"time": 1650, "pitch": 65, "duration": 4, "velocity": 61}, {"time": 1653, "pitch": 68, "duration": 4, "velocity": 56}, {"time": 1656, "pitch": 70, "duration": 6, "velocity": 64}, {"time": 1662, "pitch": 70, "duration": 6, "velocity": 65}, {"time": 1668, "pitch": 70, "duration": 3, "velocity": 64}, {"time": 1671, "pitch": 68, "duration": 9, "velocity": 62}, {"time": 1680, "pitch": 70, "duration": 18, "velocity": 72}, {"time": 1698, "pitch": 70, "duration": 3, "velocity": 64}, {"time": 1701, "pitch": 73, "duration": 3, "velocity": 66}, {"time": 1704, "pitch": 73, "duration": 6, "velocity": 75}, {"time": 1710, "pitch": 70, "duration": 6, "velocity": 82}, {"time": 1716, "pitch": 65, "duration": 6, "velocity": 81}, {"time": 1722, "pitch": 63, "duration": 6, "velocity": 66}, {"time": 1728, "pitch": 65, "duration": 18, "velocity": 74}, {"time": 1746, "pitch": 65, "duration": 3, "velocity": 89}, {"time": 1749, "pitch": 68, "duration": 4, "velocity": 90}, {"time": 1752, "pitch": 63, "duration": 6, "velocity": 86}, {"time": 1758, "pitch": 63, "duration": 6, "velocity": 91}, {"time": 1764, "pitch": 63, "duration": 4, "velocity": 87}, {"time": 1767, "pitch": 61, "duration": 9, "velocity": 67}, {"time": 1776, "pitch": 65, "duration": 18, "velocity": 91}, {"time": 1794, "pitch": 65, "duration": 4, "velocity": 67}, {"time": 1797, "pitch": 68, "duration": 4, "velocity": 83}, {"time": 1800, "pitch": 70, "duration": 6, "velocity": 87}, {"time": 1806, "pitch": 73, "duration": 6, "velocity": 90}, {"time": 1812, "pitch": 70, "duration": 6, "velocity": 91}, {"time": 1818, "pitch": 68, "duration": 7, "velocity": 87}, {"time": 1824, "pitch": 70, "duration": 24, "velocity": 99}, {"time": 1848, "pitch": 75, "duration": 6, "velocity": 98}, {"time": 1854, "pitch": 75, "duration": 6, "velocity": 93}, {"time": 1860, "pitch": 75, "duration": 3, "velocity": 90}, {"time": 1863, "pitch": 73, "duration": 9, "velocity": 77}, {"time": 1872, "pitch": 77, "duration": 18, "velocity": 105}, {"time": 1890, "pitch": 77, "duration": 4, "velocity": 97}, {"time": 1893, "pitch": 75, "duration": 3, "velocity": 91}, {"time": 1896, "pitch": 73, "duration": 6, "velocity": 93}, {"time": 1902, "pitch": 73, "duration": 6, "velocity": 95}, {"time": 1908, "pitch": 73, "duration": 4, "velocity": 90}, {"time": 1911, "pitch": 75, "duration": 9, "velocity": 93}, {"time": 1920, "pitch": 73, "duration": 5, "velocity": 100}, {"time": 1923, "pitch": 70, "duration": 15, "velocity": 74}, {"time": 1938, "pitch": 77, "duration": 6, "velocity": 96}, {"time": 1944, "pitch": 77, "duration": 4, "velocity": 95}, {"time": 1947, "pitch": 75, "duration": 15, "velocity": 90}, {"time": 1962, "pitch": 73, "duration": 6, "velocity": 98}, {"time": 1968, "pitch": 70, "duration": 12, "velocity": 90}, {"time": 1980, "pitch": 68, "duration": 6, "velocity": 91}, {"time": 1986, "pitch": 73, "duration": 12, "velocity": 93}, {"time": 1998, "pitch": 70, "duration": 36, "velocity": 94}, {"time": 2034, "pitch": 73, "duration": 4, "velocity": 93}, {"time": 2037, "pitch": 75, "duration": 3, "velocity": 84}, {"time": 2040, "pitch": 77, "duration": 6, "velocity": 96}, {"time": 2046, "pitch": 77, "duration": 6, "velocity": 93}, {"time": 2052, "pitch": 77, "duration": 3, "velocity": 95}, {"time": 2055, "pitch": 77, "duration": 10, "velocity": 95}, {"time": 2064, "pitch": 75, "duration": 18, "velocity": 99}, {"time": 2082, "pitch": 75, "duration": 3, "velocity": 68}, {"time": 2085, "pitch": 77, "duration": 4, "velocity": 48}, {"time": 2088, "pitch": 73, "duration": 6, "velocity": 64}, {"time": 2094, "pitch": 70, "duration": 3, "velocity": 66}, {"time": 2097, "pitch": 70, "duration": 3, "velocity": 57}, {"time": 2100, "pitch": 70, "duration": 3, "velocity": 56}, {"time": 2103, "pitch": 70, "duration": 3, "velocity": 56}, {"time": 2106, "pitch": 68, "duration": 3, "velocity": 58}, {"time": 2109, "pitch": 70, "duration": 21, "velocity": 63}, {"time": 2130, "pitch": 73, "duration": 4, "velocity": 92}, {"time": 2133, "pitch": 75, "duration": 3, "velocity": 86}, {"time": 2136, "pitch": 77, "duration": 6, "velocity": 91}, {"time": 2142, "pitch": 77, "duration": 3, "velocity": 90}, {"time": 2145, "pitch": 77, "duration": 3, "velocity": 91}, {"time": 2148, "pitch": 77, "duration": 3, "velocity": 86}, {"time": 2151, "pitch": 77, "duration": 6, "velocity": 92}, {"time": 2157, "pitch": 75, "duration": 21, "velocity": 84}, {"time": 2178, "pitch": 75, "duration": 3, "velocity": 93}, {"time": 2181, "pitch": 77, "duration": 3, "velocity": 81}, {"time": 2184, "pitch": 73, "duration": 6, "velocity": 91}, {"time": 2190, "pitch": 70, "duration": 6, "velocity": 87}, {"time": 2196, "pitch": 73, "duration": 3, "velocity": 95}, {"time": 2199, "pitch": 75, "duration": 9, "velocity": 96}, {"time": 2208, "pitch": 77, "duration": 18, "velocity": 96}, {"time": 2226, "pitch": 73, "duration": 3, "velocity": 99}, {"time": 2229, "pitch": 75, "duration": 3, "velocity": 90}, {"time": 2232, "pitch": 77, "duration": 9, "velocity": 97}, {"time": 2241, "pitch": 80, "duration": 9, "velocity": 91}, {"time": 2250, "pitch": 77, "duration": 9, "velocity": 101}, {"time": 2259, "pitch": 75, "duration": 15, "velocity": 101}, {"time": 2274, "pitch": 75, "duration": 3, "velocity": 103}, {"time": 2277, "pitch": 77, "duration": 4, "velocity": 90}, {"time": 2280, "pitch": 73, "duration": 6, "velocity": 97}, {"time": 2286, "pitch": 70, "duration": 6, "velocity": 93}, {"time": 2292, "pitch": 70, "duration": 6, "velocity": 97}, {"time": 2298, "pitch": 70, "duration": 3, "velocity": 84}, {"time": 2301, "pitch": 68, "duration": 6, "velocity": 95}, {"time": 2307, "pitch": 70, "duration": 3, "velocity": 95}, {"time": 2310, "pitch": 68, "duration": 3, "velocity": 100}, {"time": 2313, "pitch": 65, "duration": 15, "velocity": 81}, {"time": 2328, "pitch": 63, "duration": 6, "velocity": 91}, {"time": 2334, "pitch": 63, "duration": 6, "velocity": 90}, {"time": 2340, "pitch": 63, "duration": 6, "velocity": 93}, {"time": 2346, "pitch": 61, "duration": 3, "velocity": 68}, {"time": 2349, "pitch": 63, "duration": 7, "velocity": 82}, {"time": 2355, "pitch": 65, "duration": 15, "velocity": 90}, {"time": 2370, "pitch": 65, "duration": 3, "velocity": 90}, {"time": 2373, "pitch": 68, "duration": 3, "velocity": 86}, {"time": 2376, "pitch": 70, "duration": 9, "velocity": 91}, {"time": 2385, "pitch": 73, "duration": 27, "velocity": 90}, {"time": 2412, "pitch": 72, "duration": 12, "velocity": 85}, {"time": 2424, "pitch": 68, "duration": 9, "velocity": 94}, {"time": 2433, "pitch": 70, "duration": 81, "velocity": 71}, {"time": 2514, "pitch": 73, "duration": 4, "velocity": 93}, {"time": 2517, "pitch": 75, "duration": 3, "velocity": 84}, {"time": 2520, "pitch": 77, "duration": 6, "velocity": 96}, {"time": 2526, "pitch": 77, "duration": 6, "velocity": 93}, {"time": 2532, "pitch": 77, "duration": 3, "velocity": 95}, {"time": 2535, "pitch": 77, "duration": 10, "velocity": 95}, {"time": 2544, "pitch": 75, "duration": 18, "velocity": 99}, {"time": 2562, "pitch": 75, "duration": 3, "velocity": 68}, {"time": 2565, "pitch": 77, "duration": 4, "velocity": 48}, {"time": 2568, "pitch": 73, "duration": 6, "velocity": 64}, {"time": 2574, "pitch": 70, "duration": 3, "velocity": 66}, {"time": 2577, "pitch": 70, "duration": 3, "velocity": 57}, {"time": 2580, "pitch": 70, "duration": 3, "velocity": 56}, {"time": 2583, "pitch": 70, "duration": 3, "velocity": 56}, {"time": 2586, "pitch": 68, "duration": 3, "velocity": 58}, {"time": 2589, "pitch": 70, "duration": 21, "velocity": 63}, {"time": 2610, "pitch": 73, "duration": 4, "velocity": 92}, {"time": 2613, "pitch": 75, "duration": 3, "velocity": 86}, {"time": 2616, "pitch": 77, "duration": 6, "velocity": 91}, {"time": 2622, "pitch": 77, "duration": 3, "velocity": 90}, {"time": 2625, "pitch": 77, "duration": 3, "velocity": 91}, {"time": 2628, "pitch": 77, "duration": 3, "velocity": 86}, {"time": 2631, "pitch": 77, "duration": 6, "velocity": 92}, {"time": 2637, "pitch": 75, "duration": 21, "velocity": 84}, {"time": 2658, "pitch": 75, "duration": 3, "velocity": 93}, {"time": 2661, "pitch": 77, "duration": 3, "velocity": 81}, {"time": 2664, "pitch": 73, "duration": 6, "velocity": 91}, {"time": 2670, "pitch": 70, "duration": 6, "velocity": 87}, {"time": 2676, "pitch": 73, "duration": 3, "velocity": 95}, {"time": 2679, "pitch": 75, "duration": 9, "velocity": 96}, {"time": 2688, "pitch": 77, "duration": 18, "velocity": 96}, {"time": 2706, "pitch": 73, "duration": 3, "velocity": 99}, {"time": 2709, "pitch": 75, "duration": 3, "velocity": 90}, {"time": 2712, "pitch": 77, "duration": 9, "velocity": 97}, {"time": 2721, "pitch": 80, "duration": 9, "velocity": 91}, {"time": 2730, "pitch": 77, "duration": 9, "velocity": 101}, {"time": 2739, "pitch": 75, "duration": 15, "velocity": 101}, {"time": 2754, "pitch": 75, "duration": 3, "velocity": 103}, {"time": 2757, "pitch": 77, "duration": 4, "velocity": 90}, {"time": 2760, "pitch": 73, "duration": 6, "velocity": 97}, {"time": 2766, "pitch": 70, "duration": 6, "velocity": 93}, {"time": 2772, "pitch": 70, "duration": 6, "velocity": 97}, {"time": 2778, "pitch": 70, "duration": 3, "velocity": 84}, {"time": 2781, "pitch": 68, "duration": 6, "velocity": 95}, {"time": 2787, "pitch": 70, "duration": 3, "velocity": 95}, {"time": 2790, "pitch": 68, "duration": 3, "velocity": 100}, {"time": 2793, "pitch": 65, "duration": 15, "velocity": 81}, {"time": 2808, "pitch": 63, "duration": 6, "velocity": 91}, {"time": 2814, "pitch": 63, "duration": 6, "velocity": 90}, {"time": 2820, "pitch": 63, "duration": 6, "velocity": 93}, {"time": 2826, "pitch": 61, "duration": 3, "velocity": 68}, {"time": 2829, "pitch": 63, "duration": 7, "velocity": 82}, {"time": 2835, "pitch": 65, "duration": 15, "velocity": 90}, {"time": 2850, "pitch": 65, "duration": 3, "velocity": 90}, {"time": 2853, "pitch": 68, "duration": 3, "velocity": 86}, {"time": 2856, "pitch": 70, "duration": 9, "velocity": 91}, {"time": 2865, "pitch": 73, "duration": 27, "velocity": 90}, {"time": 2892, "pitch": 72, "duration": 12, "velocity": 85}, {"time": 2904, "pitch": 65, "duration": 9, "velocity": 94}, {"time": 2913, "pitch": 70, "duration": 39, "velocity": 71}]}, {"program": 0, "is_drum": false, "name": "PIANO", "notes": [{"time": 24, "pitch": 58, "duration": 10, "velocity": 33}, {"time": 30, "pitch": 65, "duration": 5, "velocity": 39}, {"time": 36, "pitch": 70, "duration": 14, "velocity": 37}, {"time": 36, "pitch": 82, "duration": 11, "velocity": 42}, {"time": 42, "pitch": 72, "duration": 19, "velocity": 37}, {"time": 48, "pitch": 73, "duration": 12, "velocity": 42}, {"time": 48, "pitch": 84, "duration": 12, "velocity": 48}, {"time": 60, "pitch": 85, "duration": 9, "velocity": 52}, {"time": 72, "pitch": 56, "duration": 11, "velocity": 36}, {"time": 72, "pitch": 75, "duration": 3, "velocity": 25}, {"time": 72, "pitch": 80, "duration": 5, "velocity": 44}, {"time": 72, "pitch": 84, "duration": 7, "velocity": 42}, {"time": 78, "pitch": 63, "duration": 14, "velocity": 31}, {"time": 84, "pitch": 68, "duration": 5, "velocity": 33}, {"time": 90, "pitch": 58, "duration": 22, "velocity": 37}, {"time": 90, "pitch": 73, "duration": 19, "velocity": 37}, {"time": 90, "pitch": 82, "duration": 19, "velocity": 41}, {"time": 120, "pitch": 46, "duration": 11, "velocity": 40}, {"time": 126, "pitch": 53, "duration": 5, "velocity": 37}, {"time": 132, "pitch": 58, "duration": 9, "velocity": 39}, {"time": 132, "pitch": 65, "duration": 11, "velocity": 46}, {"time": 132, "pitch": 70, "duration": 11, "velocity": 52}, {"time": 138, "pitch": 60, "duration": 20, "velocity": 41}, {"time": 144, "pitch": 61, "duration": 13, "velocity": 50}, {"time": 144, "pitch": 68, "duration": 11, "velocity": 40}, {"time": 144, "pitch": 72, "duration": 12, "velocity": 44}, {"time": 156, "pitch": 65, "duration": 4, "velocity": 38}, {"time": 156, "pitch": 73, "duration": 4, "velocity": 49}, {"time": 168, "pitch": 44, "duration": 10, "velocity": 46}, {"time": 168, "pitch": 63, "duration": 4, "velocity": 46}, {"time": 168, "pitch": 68, "duration": 5, "velocity": 47}, {"time": 168, "pitch": 72, "duration": 6, "velocity": 50}, {"time": 174, "pitch": 63, "duration": 5, "velocity": 44}, {"time": 180, "pitch": 68, "duration": 1, "velocity": 32}, {"time": 186, "pitch": 46, "duration": 21, "velocity": 36}, {"time": 186, "pitch": 58, "duration": 21, "velocity": 36}, {"time": 186, "pitch": 61, "duration": 18, "velocity": 40}, {"time": 186, "pitch": 65, "duration": 18, "velocity": 47}, {"time": 186, "pitch": 70, "duration": 21, "velocity": 39}, {"time": 204, "pitch": 77, "duration": 3, "velocity": 45}, {"time": 207, "pitch": 75, "duration": 3, "velocity": 60}, {"time": 210, "pitch": 73, "duration": 3, "velocity": 45}, {"time": 213, "pitch": 72, "duration": 3, "velocity": 39}, {"time": 216, "pitch": 46, "duration": 19, "velocity": 55}, {"time": 216, "pitch": 70, "duration": 12, "velocity": 78}, {"time": 222, "pitch": 53, "duration": 12, "velocity": 39}, {"time": 228, "pitch": 58, "duration": 5, "velocity": 44}, {"time": 228, "pitch": 60, "duration": 11, "velocity": 45}, {"time": 228, "pitch": 65, "duration": 5, "velocity": 44}, {"time": 234, "pitch": 48, "duration": 6, "velocity": 44}, {"time": 234, "pitch": 63, "duration": 7, "velocity": 61}, {"time": 240, "pitch": 49, "duration": 24, "velocity": 43}, {"time": 240, "pitch": 61, "duration": 6, "velocity": 50}, {"time": 240, "pitch": 65, "duration": 6, "velocity": 52}, {"time": 246, "pitch": 53, "duration": 7, "velocity": 38}, {"time": 252, "pitch": 56, "duration": 6, "velocity": 49}, {"time": 252, "pitch": 61, "duration": 6, "velocity": 53}, {"time": 252, "pitch": 65, "duration": 7, "velocity": 55}, {"time": 258, "pitch": 53, "duration": 6, "velocity": 31}, {"time": 264, "pitch": 44, "duration": 20, "velocity": 61}, {"time": 264, "pitch": 60, "duration": 7, "velocity": 54}, {"time": 264, "pitch": 63, "duration": 7, "velocity": 54}, {"time": 264, "pitch": 68, "duration": 6, "velocity": 56}, {"time": 270, "pitch": 51, "duration": 15, "velocity": 37}, {"time": 276, "pitch": 56, "duration": 9, "velocity": 38}, {"time": 276, "pitch": 60, "duration": 8, "velocity": 51}, {"time": 276, "pitch": 63, "duration": 8, "velocity": 51}, {"time": 276, "pitch": 68, "duration": 9, "velocity": 57}, {"time": 288, "pitch": 46, "duration": 19, "velocity": 46}, {"time": 288, "pitch": 61, "duration": 6, "velocity": 48}, {"time": 288, "pitch": 65, "duration": 7, "velocity": 48}, {"time": 294, "pitch": 53, "duration": 13, "velocity": 40}, {"time": 294, "pitch": 60, "duration": 6, "velocity": 44}, {"time": 294, "pitch": 63, "duration": 6, "velocity": 57}, {"time": 300, "pitch": 58, "duration": 7, "velocity": 47}, {"time": 300, "pitch": 61, "duration": 6, "velocity": 60}, {"time": 300, "pitch": 65, "duration": 6, "velocity": 52}, {"time": 306, "pitch": 48, "duration": 6, "velocity": 47}, {"time": 312, "pitch": 51, "duration": 20, "velocity": 58}, {"time": 312, "pitch": 58, "duration": 7, "velocity": 55}, {"time": 312, "pitch": 63, "duration": 6, "velocity": 56}, {"time": 315, "pitch": 66, "duration": 4, "velocity": 26}, {"time": 318, "pitch": 54, "duration": 9, "velocity": 40}, {"time": 324, "pitch": 58, "duration": 8, "velocity": 45}, {"time": 324, "pitch": 63, "duration": 8, "velocity": 57}, {"time": 324, "pitch": 66, "duration": 7, "velocity": 49}, {"time": 330, "pitch": 53, "duration": 6, "velocity": 48}, {"time": 336, "pitch": 54, "duration": 10, "velocity": 60}, {"time": 336, "pitch": 58, "duration": 9, "velocity": 48}, {"time": 336, "pitch": 61, "duration": 5, "velocity": 53}, {"time": 336, "pitch": 66, "duration": 6, "velocity": 49}, {"time": 348, "pitch": 58, "duration": 5, "velocity": 55}, {"time": 348, "pitch": 61, "duration": 6, "velocity": 63}, {"time": 348, "pitch": 66, "duration": 5, "velocity": 58}, {"time": 354, "pitch": 41, "duration": 8, "velocity": 48}, {"time": 354, "pitch": 65, "duration": 12, "velocity": 41}, {"time": 360, "pitch": 46, "duration": 40, "velocity": 59}, {"time": 360, "pitch": 58, "duration": 4, "velocity": 45}, {"time": 360, "pitch": 61, "duration": 6, "velocity": 53}, {"time": 366, "pitch": 63, "duration": 7, "velocity": 61}, {"time": 372, "pitch": 53, "duration": 28, "velocity": 49}, {"time": 372, "pitch": 65, "duration": 2, "velocity": 56}, {"time": 378, "pitch": 58, "duration": 22, "velocity": 43}, {"time": 378, "pitch": 68, "duration": 5, "velocity": 47}, {"time": 384, "pitch": 70, "duration": 9, "velocity": 63}, {"time": 396, "pitch": 77, "duration": 2, "velocity": 54}, {"time": 408, "pitch": 46, "duration": 41, "velocity": 53}, {"time": 408, "pitch": 65, "duration": 7, "velocity": 51}, {"time": 408, "pitch": 73, "duration": 7, "velocity": 57}, {"time": 414, "pitch": 53, "duration": 36, "velocity": 58}, {"time": 420, "pitch": 58, "duration": 14, "velocity": 53}, {"time": 426, "pitch": 60, "duration": 8, "velocity": 57}, {"time": 432, "pitch": 61, "duration": 5, "velocity": 76}, {"time": 438, "pitch": 58, "duration": 11, "velocity": 35}, {"time": 444, "pitch": 65, "duration": 6, "velocity": 63}, {"time": 450, "pitch": 70, "duration": 6, "velocity": 45}, {"time": 456, "pitch": 44, "duration": 17, "velocity": 66}, {"time": 456, "pitch": 68, "duration": 8, "velocity": 66}, {"time": 462, "pitch": 51, "duration": 12, "velocity": 40}, {"time": 468, "pitch": 56, "duration": 13, "velocity": 50}, {"time": 474, "pitch": 63, "duration": 7, "velocity": 54}, {"time": 480, "pitch": 49, "duration": 16, "velocity": 61}, {"time": 480, "pitch": 65, "duration": 17, "velocity": 70}, {"time": 486, "pitch": 56, "duration": 12, "velocity": 38}, {"time": 492, "pitch": 61, "duration": 5, "velocity": 47}, {"time": 498, "pitch": 70, "duration": 7, "velocity": 56}, {"time": 504, "pitch": 51, "duration": 37, "velocity": 51}, {"time": 504, "pitch": 66, "duration": 14, "velocity": 67}, {"time": 510, "pitch": 58, "duration": 29, "velocity": 44}, {"time": 516, "pitch": 63, "duration": 14, "velocity": 50}, {"time": 522, "pitch": 70, "duration": 7, "velocity": 48}, {"time": 528, "pitch": 53, "duration": 18, "velocity": 69}, {"time": 528, "pitch": 63, "duration": 2, "velocity": 44}, {"time": 528, "pitch": 68, "duration": 7, "velocity": 60}, {"time": 528, "pitch": 77, "duration": 14, "velocity": 66}, {"time": 534, "pitch": 60, "duration": 12, "velocity": 59}, {"time": 540, "pitch": 63, "duration": 6, "velocity": 59}, {"time": 546, "pitch": 68, "duration": 5, "velocity": 63}, {"time": 552, "pitch": 54, "duration": 7, "velocity": 55}, {"time": 552, "pitch": 61, "duration": 6, "velocity": 55}, {"time": 552, "pitch": 66, "duration": 7, "velocity": 63}, {"time": 552, "pitch": 70, "duration": 6, "velocity": 62}, {"time": 558, "pitch": 58, "duration": 1, "velocity": 69}, {"time": 564, "pitch": 44, "duration": 8, "velocity": 72}, {"time": 564, "pitch": 63, "duration": 6, "velocity": 61}, {"time": 564, "pitch": 68, "duration": 6, "velocity": 59}, {"time": 564, "pitch": 72, "duration": 6, "velocity": 60}, {"time": 570, "pitch": 70, "duration": 6, "velocity": 57}, {"time": 576, "pitch": 46, "duration": 20, "velocity": 59}, {"time": 576, "pitch": 65, "duration": 8, "velocity": 52}, {"time": 576, "pitch": 73, "duration": 8, "velocity": 62}, {"time": 582, "pitch": 53, "duration": 8, "velocity": 46}, {"time": 588, "pitch": 58, "duration": 6, "velocity": 46}, {"time": 588, "pitch": 61, "duration": 6, "velocity": 70}, {"time": 588, "pitch": 65, "duration": 5, "velocity": 36}, {"time": 594, "pitch": 53, "duration": 6, "velocity": 39}, {"time": 594, "pitch": 60, "duration": 6, "velocity": 46}, {"time": 594, "pitch": 63, "duration": 7, "velocity": 49}, {"time": 600, "pitch": 51, "duration": 18, "velocity": 60}, {"time": 600, "pitch": 75, "duration": 6, "velocity": 66}, {"time": 606, "pitch": 58, "duration": 13, "velocity": 51}, {"time": 606, "pitch": 75, "duration": 6, "velocity": 59}, {"time": 612, "pitch": 63, "duration": 4, "velocity": 54}, {"time": 612, "pitch": 70, "duration": 3, "velocity": 72}, {"time": 618, "pitch": 68, "duration": 5, "velocity": 63}, {"time": 624, "pitch": 46, "duration": 19, "velocity": 73}, {"time": 624, "pitch": 73, "duration": 5, "velocity": 72}, {"time": 624, "pitch": 65, "duration": 7, "velocity": 58}, {"time": 630, "pitch": 72, "duration": 6, "velocity": 63}, {"time": 630, "pitch": 53, "duration": 13, "velocity": 55}, {"time": 636, "pitch": 58, "duration": 4, "velocity": 50}, {"time": 636, "pitch": 73, "duration": 8, "velocity": 63}, {"time": 636, "pitch": 65, "duration": 6, "velocity": 53}, {"time": 642, "pitch": 58, "duration": 2, "velocity": 45}, {"time": 648, "pitch": 49, "duration": 16, "velocity": 70}, {"time": 648, "pitch": 68, "duration": 4, "velocity": 63}, {"time": 648, "pitch": 73, "duration": 4, "velocity": 64}, {"time": 654, "pitch": 56, "duration": 11, "velocity": 50}, {"time": 654, "pitch": 73, "duration": 6, "velocity": 67}, {"time": 660, "pitch": 61, "duration": 5, "velocity": 57}, {"time": 660, "pitch": 73, "duration": 5, "velocity": 73}, {"time": 666, "pitch": 80, "duration": 3, "velocity": 63}, {"time": 672, "pitch": 46, "duration": 19, "velocity": 61}, {"time": 672, "pitch": 73, "duration": 6, "velocity": 67}, {"time": 678, "pitch": 53, "duration": 10, "velocity": 45}, {"time": 684, "pitch": 58, "duration": 5, "velocity": 55}, {"time": 684, "pitch": 73, "duration": 4, "velocity": 67}, {"time": 687, "pitch": 72, "duration": 3, "velocity": 53}, {"time": 690, "pitch": 70, "duration": 3, "velocity": 61}, {"time": 693, "pitch": 68, "duration": 3, "velocity": 64}, {"time": 696, "pitch": 51, "duration": 16, "velocity": 67}, {"time": 696, "pitch": 75, "duration": 6, "velocity": 60}, {"time": 702, "pitch": 58, "duration": 11, "velocity": 56}, {"time": 702, "pitch": 73, "duration": 5, "velocity": 62}, {"time": 708, "pitch": 63, "duration": 3, "velocity": 57}, {"time": 708, "pitch": 70, "duration": 2, "velocity": 62}, {"time": 714, "pitch": 68, "duration": 6, "velocity": 64}, {"time": 720, "pitch": 42, "duration": 6, "velocity": 64}, {"time": 720, "pitch": 54, "duration": 7, "velocity": 52}, {"time": 720, "pitch": 61, "duration": 5, "velocity": 67}, {"time": 720, "pitch": 66, "duration": 6, "velocity": 73}, {"time": 720, "pitch": 70, "duration": 6, "velocity": 66}, {"time": 732, "pitch": 44, "duration": 6, "velocity": 61}, {"time": 732, "pitch": 56, "duration": 7, "velocity": 53}, {"time": 732, "pitch": 63, "duration": 6, "velocity": 62}, {"time": 732, "pitch": 68, "duration": 6, "velocity": 69}, {"time": 732, "pitch": 72, "duration": 5, "velocity": 66}, {"time": 744, "pitch": 46, "duration": 20, "velocity": 69}, {"time": 744, "pitch": 61, "duration": 11, "velocity": 69}, {"time": 744, "pitch": 65, "duration": 8, "velocity": 66}, {"time": 750, "pitch": 53, "duration": 16, "velocity": 49}, {"time": 756, "pitch": 58, "duration": 5, "velocity": 55}, {"time": 759, "pitch": 60, "duration": 3, "velocity": 56}, {"time": 762, "pitch": 61, "duration": 4, "velocity": 54}, {"time": 765, "pitch": 63, "duration": 3, "velocity": 53}, {"time": 768, "pitch": 46, "duration": 2, "velocity": 67}, {"time": 768, "pitch": 53, "duration": 2, "velocity": 80}, {"time": 768, "pitch": 58, "duration": 2, "velocity": 78}, {"time": 768, "pitch": 61, "duration": 2, "velocity": 78}, {"time": 768, "pitch": 65, "duration": 2, "velocity": 75}, {"time": 771, "pitch": 46, "duration": 2, "velocity": 88}, {"time": 771, "pitch": 53, "duration": 1, "velocity": 95}, {"time": 771, "pitch": 58, "duration": 2, "velocity": 80}, {"time": 771, "pitch": 61, "duration": 2, "velocity": 91}, {"time": 771, "pitch": 65, "duration": 2, "velocity": 78}, {"time": 780, "pitch": 46, "duration": 6, "velocity": 73}, {"time": 780, "pitch": 58, "duration": 3, "velocity": 66}, {"time": 780, "pitch": 61, "duration": 4, "velocity": 73}, {"time": 780, "pitch": 65, "duration": 4, "velocity": 73}, {"time": 783, "pitch": 53, "duration": 2, "velocity": 67}, {"time": 786, "pitch": 48, "duration": 7, "velocity": 64}, {"time": 786, "pitch": 60, "duration": 7, "velocity": 67}, {"time": 786, "pitch": 63, "duration": 7, "velocity": 75}, {"time": 792, "pitch": 49, "duration": 18, "velocity": 80}, {"time": 792, "pitch": 61, "duration": 8, "velocity": 78}, {"time": 792, "pitch": 65, "duration": 8, "velocity": 73}, {"time": 801, "pitch": 53, "duration": 5, "velocity": 40}, {"time": 804, "pitch": 56, "duration": 4, "velocity": 70}, {"time": 804, "pitch": 61, "duration": 4, "velocity": 82}, {"time": 804, "pitch": 65, "duration": 4, "velocity": 80}, {"time": 807, "pitch": 53, "duration": 3, "velocity": 75}, {"time": 810, "pitch": 56, "duration": 3, "velocity": 64}, {"time": 813, "pitch": 65, "duration": 3, "velocity": 69}, {"time": 816, "pitch": 44, "duration": 19, "velocity": 72}, {"time": 816, "pitch": 60, "duration": 5, "velocity": 78}, {"time": 816, "pitch": 63, "duration": 5, "velocity": 75}, {"time": 822, "pitch": 51, "duration": 14, "velocity": 49}, {"time": 825, "pitch": 56, "duration": 8, "velocity": 61}, {"time": 828, "pitch": 65, "duration": 2, "velocity": 63}, {"time": 828, "pitch": 73, "duration": 2, "velocity": 76}, {"time": 831, "pitch": 65, "duration": 2, "velocity": 51}, {"time": 831, "pitch": 72, "duration": 4, "velocity": 57}, {"time": 834, "pitch": 56, "duration": 2, "velocity": 55}, {"time": 834, "pitch": 70, "duration": 3, "velocity": 58}, {"time": 837, "pitch": 65, "duration": 2, "velocity": 64}, {"time": 840, "pitch": 54, "duration": 6, "velocity": 72}, {"time": 840, "pitch": 61, "duration": 4, "velocity": 76}, {"time": 840, "pitch": 66, "duration": 4, "velocity": 80}, {"time": 840, "pitch": 70, "duration": 4, "velocity": 75}, {"time": 843, "pitch": 58, "duration": 3, "velocity": 56}, {"time": 846, "pitch": 61, "duration": 3, "velocity": 73}, {"time": 849, "pitch": 66, "duration": 3, "velocity": 66}, {"time": 852, "pitch": 44, "duration": 9, "velocity": 69}, {"time": 852, "pitch": 63, "duration": 5, "velocity": 67}, {"time": 852, "pitch": 68, "duration": 6, "velocity": 72}, {"time": 852, "pitch": 72, "duration": 5, "velocity": 67}, {"time": 855, "pitch": 51, "duration": 8, "velocity": 66}, {"time": 858, "pitch": 56, "duration": 4, "velocity": 64}, {"time": 861, "pitch": 63, "duration": 2, "velocity": 44}, {"time": 864, "pitch": 46, "duration": 19, "velocity": 66}, {"time": 864, "pitch": 65, "duration": 7, "velocity": 67}, {"time": 864, "pitch": 70, "duration": 7, "velocity": 69}, {"time": 864, "pitch": 73, "duration": 7, "velocity": 72}, {"time": 870, "pitch": 53, "duration": 10, "velocity": 51}, {"time": 873, "pitch": 58, "duration": 8, "velocity": 49}, {"time": 873, "pitch": 65, "duration": 2, "velocity": 73}, {"time": 873, "pitch": 72, "duration": 2, "velocity": 66}, {"time": 879, "pitch": 61, "duration": 2, "velocity": 69}, {"time": 879, "pitch": 68, "duration": 2, "velocity": 55}, {"time": 882, "pitch": 53, "duration": 2, "velocity": 70}, {"time": 888, "pitch": 49, "duration": 19, "velocity": 78}, {"time": 888, "pitch": 65, "duration": 6, "velocity": 66}, {"time": 888, "pitch": 68, "duration": 7, "velocity": 70}, {"time": 888, "pitch": 73, "duration": 7, "velocity": 73}, {"time": 891, "pitch": 56, "duration": 15, "velocity": 59}, {"time": 894, "pitch": 61, "duration": 10, "velocity": 62}, {"time": 897, "pitch": 65, "duration": 5, "velocity": 80}, {"time": 897, "pitch": 73, "duration": 4, "velocity": 73}, {"time": 903, "pitch": 68, "duration": 7, "velocity": 76}, {"time": 909, "pitch": 70, "duration": 3, "velocity": 70}, {"time": 912, "pitch": 44, "duration": 20, "velocity": 73}, {"time": 912, "pitch": 63, "duration": 6, "velocity": 63}, {"time": 912, "pitch": 68, "duration": 6, "velocity": 66}, {"time": 912, "pitch": 72, "duration": 7, "velocity": 70}, {"time": 915, "pitch": 51, "duration": 12, "velocity": 55}, {"time": 918, "pitch": 56, "duration": 10, "velocity": 55}, {"time": 921, "pitch": 63, "duration": 3, "velocity": 72}, {"time": 921, "pitch": 70, "duration": 2, "velocity": 80}, {"time": 927, "pitch": 63, "duration": 4, "velocity": 75}, {"time": 927, "pitch": 68, "duration": 3, "velocity": 76}, {"time": 930, "pitch": 51, "duration": 2, "velocity": 72}, {"time": 933, "pitch": 66, "duration": 2, "velocity": 51}, {"time": 933, "pitch": 68, "duration": 2, "velocity": 63}, {"time": 936, "pitch": 42, "duration": 5, "velocity": 72}, {"time": 936, "pitch": 61, "duration": 12, "velocity": 75}, {"time": 936, "pitch": 66, "duration": 12, "velocity": 67}, {"time": 936, "pitch": 70, "duration": 11, "velocity": 59}, {"time": 939, "pitch": 49, "duration": 3, "velocity": 67}, {"time": 942, "pitch": 54, "duration": 4, "velocity": 48}, {"time": 945, "pitch": 56, "duration": 4, "velocity": 66}, {"time": 948, "pitch": 58, "duration": 2, "velocity": 70}, {"time": 951, "pitch": 61, "duration": 3, "velocity": 69}, {"time": 954, "pitch": 66, "duration": 5, "velocity": 67}, {"time": 957, "pitch": 70, "duration": 3, "velocity": 66}, {"time": 960, "pitch": 41, "duration": 2, "velocity": 69}, {"time": 960, "pitch": 65, "duration": 9, "velocity": 80}, {"time": 960, "pitch": 69, "duration": 3, "velocity": 101}, {"time": 963, "pitch": 53, "duration": 4, "velocity": 63}, {"time": 966, "pitch": 58, "duration": 12, "velocity": 44}, {"time": 969, "pitch": 60, "duration": 9, "velocity": 75}, {"time": 972, "pitch": 65, "duration": 3, "velocity": 82}, {"time": 975, "pitch": 70, "duration": 4, "velocity": 61}, {"time": 978, "pitch": 73, "duration": 2, "velocity": 78}, {"time": 981, "pitch": 75, "duration": 5, "velocity": 73}, {"time": 984, "pitch": 49, "duration": 20, "velocity": 73}, {"time": 984, "pitch": 65, "duration": 7, "velocity": 70}, {"time": 984, "pitch": 68, "duration": 7, "velocity": 76}, {"time": 984, "pitch": 73, "duration": 7, "velocity": 75}, {"time": 987, "pitch": 56, "duration": 17, "velocity": 63}, {"time": 990, "pitch": 61, "duration": 12, "velocity": 66}, {"time": 993, "pitch": 65, "duration": 5, "velocity": 80}, {"time": 996, "pitch": 68, "duration": 4, "velocity": 53}, {"time": 999, "pitch": 70, "duration": 6, "velocity": 70}, {"time": 1002, "pitch": 72, "duration": 3, "velocity": 70}, {"time": 1005, "pitch": 73, "duration": 5, "velocity": 61}, {"time": 1008, "pitch": 44, "duration": 5, "velocity": 67}, {"time": 1008, "pitch": 63, "duration": 12, "velocity": 66}, {"time": 1008, "pitch": 68, "duration": 10, "velocity": 73}, {"time": 1008, "pitch": 72, "duration": 12, "velocity": 73}, {"time": 1011, "pitch": 51, "duration": 3, "velocity": 63}, {"time": 1014, "pitch": 56, "duration": 5, "velocity": 48}, {"time": 1017, "pitch": 58, "duration": 6, "velocity": 72}, {"time": 1020, "pitch": 60, "duration": 3, "velocity": 66}, {"time": 1023, "pitch": 63, "duration": 2, "velocity": 70}, {"time": 1026, "pitch": 68, "duration": 4, "velocity": 62}, {"time": 1029, "pitch": 73, "duration": 12, "velocity": 66}, {"time": 1032, "pitch": 42, "duration": 5, "velocity": 66}, {"time": 1032, "pitch": 61, "duration": 13, "velocity": 61}, {"time": 1032, "pitch": 66, "duration": 13, "velocity": 70}, {"time": 1032, "pitch": 70, "duration": 12, "velocity": 70}, {"time": 1035, "pitch": 49, "duration": 3, "velocity": 55}, {"time": 1038, "pitch": 54, "duration": 5, "velocity": 54}, {"time": 1041, "pitch": 56, "duration": 8, "velocity": 61}, {"time": 1044, "pitch": 58, "duration": 4, "velocity": 61}, {"time": 1047, "pitch": 61, "duration": 3, "velocity": 75}, {"time": 1050, "pitch": 70, "duration": 3, "velocity": 54}, {"time": 1053, "pitch": 68, "duration": 4, "velocity": 75}, {"time": 1056, "pitch": 53, "duration": 20, "velocity": 69}, {"time": 1056, "pitch": 63, "duration": 5, "velocity": 69}, {"time": 1056, "pitch": 68, "duration": 1, "velocity": 76}, {"time": 1059, "pitch": 60, "duration": 13, "velocity": 63}, {"time": 1062, "pitch": 63, "duration": 3, "velocity": 61}, {"time": 1065, "pitch": 68, "duration": 7, "velocity": 70}, {"time": 1071, "pitch": 72, "duration": 7, "velocity": 72}, {"time": 1074, "pitch": 60, "duration": 3, "velocity": 62}, {"time": 1077, "pitch": 68, "duration": 2, "velocity": 43}, {"time": 1080, "pitch": 51, "duration": 19, "velocity": 64}, {"time": 1080, "pitch": 61, "duration": 3, "velocity": 62}, {"time": 1080, "pitch": 66, "duration": 7, "velocity": 70}, {"time": 1080, "pitch": 70, "duration": 7, "velocity": 70}, {"time": 1083, "pitch": 58, "duration": 9, "velocity": 58}, {"time": 1086, "pitch": 63, "duration": 9, "velocity": 66}, {"time": 1089, "pitch": 68, "duration": 7, "velocity": 75}, {"time": 1095, "pitch": 66, "duration": 2, "velocity": 70}, {"time": 1095, "pitch": 70, "duration": 2, "velocity": 72}, {"time": 1098, "pitch": 58, "duration": 2, "velocity": 73}, {"time": 1104, "pitch": 53, "duration": 17, "velocity": 60}, {"time": 1104, "pitch": 63, "duration": 4, "velocity": 63}, {"time": 1104, "pitch": 68, "duration": 6, "velocity": 70}, {"time": 1107, "pitch": 60, "duration": 11, "velocity": 58}, {"time": 1110, "pitch": 65, "duration": 9, "velocity": 73}, {"time": 1113, "pitch": 68, "duration": 4, "velocity": 63}, {"time": 1116, "pitch": 72, "duration": 3, "velocity": 67}, {"time": 1119, "pitch": 75, "duration": 3, "velocity": 67}, {"time": 1122, "pitch": 77, "duration": 4, "velocity": 67}, {"time": 1125, "pitch": 78, "duration": 5, "velocity": 59}, {"time": 1128, "pitch": 42, "duration": 19, "velocity": 70}, {"time": 1128, "pitch": 70, "duration": 3, "velocity": 57}, {"time": 1128, "pitch": 73, "duration": 3, "velocity": 67}, {"time": 1131, "pitch": 49, "duration": 17, "velocity": 67}, {"time": 1134, "pitch": 54, "duration": 9, "velocity": 63}, {"time": 1137, "pitch": 58, "duration": 5, "velocity": 66}, {"time": 1140, "pitch": 61, "duration": 2, "velocity": 57}, {"time": 1143, "pitch": 63, "duration": 3, "velocity": 70}, {"time": 1146, "pitch": 54, "duration": 4, "velocity": 70}, {"time": 1146, "pitch": 65, "duration": 6, "velocity": 56}, {"time": 1152, "pitch": 44, "duration": 12, "velocity": 73}, {"time": 1152, "pitch": 56, "duration": 12, "velocity": 88}, {"time": 1152, "pitch": 60, "duration": 12, "velocity": 80}, {"time": 1152, "pitch": 63, "duration": 12, "velocity": 78}, {"time": 1152, "pitch": 68, "duration": 12, "velocity": 76}, {"time": 1176, "pitch": 46, "duration": 42, "velocity": 78}, {"time": 1176, "pitch": 61, "duration": 8, "velocity": 78}, {"time": 1176, "pitch": 65, "duration": 8, "velocity": 69}, {"time": 1182, "pitch": 53, "duration": 41, "velocity": 49}, {"time": 1185, "pitch": 60, "duration": 5, "velocity": 72}, {"time": 1185, "pitch": 63, "duration": 7, "velocity": 75}, {"time": 1194, "pitch": 61, "duration": 6, "velocity": 69}, {"time": 1194, "pitch": 65, "duration": 6, "velocity": 66}, {"time": 1200, "pitch": 58, "duration": 18, "velocity": 51}, {"time": 1203, "pitch": 60, "duration": 3, "velocity": 69}, {"time": 1206, "pitch": 61, "duration": 2, "velocity": 64}, {"time": 1209, "pitch": 65, "duration": 3, "velocity": 52}, {"time": 1212, "pitch": 70, "duration": 4, "velocity": 63}, {"time": 1215, "pitch": 72, "duration": 4, "velocity": 51}, {"time": 1218, "pitch": 73, "duration": 3, "velocity": 59}, {"time": 1221, "pitch": 75, "duration": 3, "velocity": 60}, {"time": 1224, "pitch": 44, "duration": 10, "velocity": 72}, {"time": 1224, "pitch": 56, "duration": 10, "velocity": 67}, {"time": 1224, "pitch": 60, "duration": 10, "velocity": 75}, {"time": 1224, "pitch": 63, "duration": 9, "velocity": 78}, {"time": 1224, "pitch": 68, "duration": 10, "velocity": 76}, {"time": 1242, "pitch": 46, "duration": 26, "velocity": 75}, {"time": 1242, "pitch": 58, "duration": 12, "velocity": 73}, {"time": 1242, "pitch": 61, "duration": 13, "velocity": 82}, {"time": 1242, "pitch": 65, "duration": 13, "velocity": 88}, {"time": 1242, "pitch": 70, "duration": 14, "velocity": 78}, {"time": 1257, "pitch": 58, "duration": 4, "velocity": 47}, {"time": 1260, "pitch": 61, "duration": 6, "velocity": 73}, {"time": 1260, "pitch": 65, "duration": 6, "velocity": 78}, {"time": 1260, "pitch": 70, "duration": 7, "velocity": 75}, {"time": 1266, "pitch": 58, "duration": 1, "velocity": 44}, {"time": 1272, "pitch": 49, "duration": 19, "velocity": 69}, {"time": 1272, "pitch": 65, "duration": 9, "velocity": 64}, {"time": 1272, "pitch": 68, "duration": 8, "velocity": 72}, {"time": 1272, "pitch": 73, "duration": 9, "velocity": 69}, {"time": 1278, "pitch": 56, "duration": 8, "velocity": 52}, {"time": 1284, "pitch": 61, "duration": 6, "velocity": 49}, {"time": 1284, "pitch": 65, "duration": 7, "velocity": 63}, {"time": 1284, "pitch": 68, "duration": 6, "velocity": 69}, {"time": 1284, "pitch": 73, "duration": 6, "velocity": 64}, {"time": 1290, "pitch": 56, "duration": 7, "velocity": 58}, {"time": 1296, "pitch": 48, "duration": 19, "velocity": 67}, {"time": 1296, "pitch": 63, "duration": 13, "velocity": 62}, {"time": 1296, "pitch": 68, "duration": 13, "velocity": 69}, {"time": 1296, "pitch": 72, "duration": 13, "velocity": 66}, {"time": 1308, "pitch": 60, "duration": 6, "velocity": 57}, {"time": 1314, "pitch": 63, "duration": 3, "velocity": 54}, {"time": 1320, "pitch": 54, "duration": 20, "velocity": 63}, {"time": 1320, "pitch": 61, "duration": 9, "velocity": 69}, {"time": 1320, "pitch": 66, "duration": 9, "velocity": 75}, {"time": 1320, "pitch": 70, "duration": 8, "velocity": 72}, {"time": 1326, "pitch": 58, "duration": 15, "velocity": 66}, {"time": 1332, "pitch": 61, "duration": 5, "velocity": 62}, {"time": 1332, "pitch": 73, "duration": 5, "velocity": 51}, {"time": 1338, "pitch": 68, "duration": 4, "velocity": 64}, {"time": 1344, "pitch": 53, "duration": 18, "velocity": 75}, {"time": 1344, "pitch": 63, "duration": 7, "velocity": 67}, {"time": 1344, "pitch": 68, "duration": 7, "velocity": 72}, {"time": 1350, "pitch": 60, "duration": 12, "velocity": 55}, {"time": 1356, "pitch": 65, "duration": 6, "velocity": 70}, {"time": 1362, "pitch": 70, "duration": 6, "velocity": 63}, {"time": 1368, "pitch": 51, "duration": 20, "velocity": 64}, {"time": 1368, "pitch": 63, "duration": 1, "velocity": 45}, {"time": 1368, "pitch": 66, "duration": 7, "velocity": 64}, {"time": 1368, "pitch": 70, "duration": 7, "velocity": 62}, {"time": 1374, "pitch": 58, "duration": 10, "velocity": 44}, {"time": 1380, "pitch": 63, "duration": 6, "velocity": 54}, {"time": 1380, "pitch": 66, "duration": 6, "velocity": 66}, {"time": 1380, "pitch": 70, "duration": 6, "velocity": 58}, {"time": 1386, "pitch": 58, "duration": 2, "velocity": 52}, {"time": 1392, "pitch": 44, "duration": 17, "velocity": 62}, {"time": 1392, "pitch": 63, "duration": 6, "velocity": 60}, {"time": 1392, "pitch": 68, "duration": 5, "velocity": 70}, {"time": 1398, "pitch": 51, "duration": 12, "velocity": 43}, {"time": 1404, "pitch": 56, "duration": 4, "velocity": 56}, {"time": 1404, "pitch": 60, "duration": 6, "velocity": 72}, {"time": 1404, "pitch": 63, "duration": 6, "velocity": 72}, {"time": 1416, "pitch": 42, "duration": 19, "velocity": 72}, {"time": 1416, "pitch": 58, "duration": 7, "velocity": 66}, {"time": 1416, "pitch": 61, "duration": 6, "velocity": 70}, {"time": 1416, "pitch": 66, "duration": 6, "velocity": 69}, {"time": 1422, "pitch": 49, "duration": 14, "velocity": 50}, {"time": 1428, "pitch": 58, "duration": 6, "velocity": 69}, {"time": 1428, "pitch": 61, "duration": 6, "velocity": 73}, {"time": 1428, "pitch": 66, "duration": 5, "velocity": 70}, {"time": 1434, "pitch": 54, "duration": 2, "velocity": 76}, {"time": 1440, "pitch": 41, "duration": 18, "velocity": 76}, {"time": 1443, "pitch": 48, "duration": 15, "velocity": 70}, {"time": 1446, "pitch": 53, "duration": 13, "velocity": 85}, {"time": 1449, "pitch": 58, "duration": 3, "velocity": 76}, {"time": 1452, "pitch": 60, "duration": 1, "velocity": 70}, {"time": 1455, "pitch": 65, "duration": 2, "velocity": 85}, {"time": 1458, "pitch": 70, "duration": 3, "velocity": 88}, {"time": 1461, "pitch": 72, "duration": 2, "velocity": 76}, {"time": 1464, "pitch": 46, "duration": 5, "velocity": 66}, {"time": 1464, "pitch": 65, "duration": 5, "velocity": 85}, {"time": 1464, "pitch": 73, "duration": 5, "velocity": 76}, {"time": 1467, "pitch": 53, "duration": 3, "velocity": 54}, {"time": 1470, "pitch": 58, "duration": 5, "velocity": 57}, {"time": 1470, "pitch": 65, "duration": 3, "velocity": 73}, {"time": 1470, "pitch": 72, "duration": 4, "velocity": 72}, {"time": 1473, "pitch": 60, "duration": 6, "velocity": 62}, {"time": 1473, "pitch": 65, "duration": 4, "velocity": 76}, {"time": 1473, "pitch": 73, "duration": 5, "velocity": 66}, {"time": 1476, "pitch": 61, "duration": 5, "velocity": 57}, {"time": 1479, "pitch": 65, "duration": 3, "velocity": 75}, {"time": 1479, "pitch": 72, "duration": 4, "velocity": 62}, {"time": 1482, "pitch": 60, "duration": 2, "velocity": 48}, {"time": 1485, "pitch": 58, "duration": 3, "velocity": 45}, {"time": 1485, "pitch": 65, "duration": 5, "velocity": 76}, {"time": 1485, "pitch": 70, "duration": 4, "velocity": 69}, {"time": 1488, "pitch": 46, "duration": 15, "velocity": 76}, {"time": 1491, "pitch": 53, "duration": 15, "velocity": 72}, {"time": 1494, "pitch": 58, "duration": 8, "velocity": 88}, {"time": 1497, "pitch": 60, "duration": 3, "velocity": 82}, {"time": 1500, "pitch": 61, "duration": 2, "velocity": 66}, {"time": 1500, "pitch": 70, "duration": 4, "velocity": 97}, {"time": 1503, "pitch": 65, "duration": 3, "velocity": 70}, {"time": 1506, "pitch": 44, "duration": 3, "velocity": 72}, {"time": 1506, "pitch": 68, "duration": 3, "velocity": 80}, {"time": 1509, "pitch": 70, "duration": 2, "velocity": 82}, {"time": 1512, "pitch": 51, "duration": 19, "velocity": 73}, {"time": 1515, "pitch": 58, "duration": 8, "velocity": 49}, {"time": 1521, "pitch": 63, "duration": 6, "velocity": 49}, {"time": 1527, "pitch": 58, "duration": 7, "velocity": 58}, {"time": 1530, "pitch": 65, "duration": 4, "velocity": 69}, {"time": 1533, "pitch": 66, "duration": 8, "velocity": 73}, {"time": 1536, "pitch": 51, "duration": 20, "velocity": 73}, {"time": 1539, "pitch": 58, "duration": 10, "velocity": 49}, {"time": 1542, "pitch": 63, "duration": 10, "velocity": 56}, {"time": 1545, "pitch": 65, "duration": 3, "velocity": 76}, {"time": 1551, "pitch": 68, "duration": 4, "velocity": 70}, {"time": 1554, "pitch": 58, "duration": 2, "velocity": 62}, {"time": 1557, "pitch": 73, "duration": 3, "velocity": 55}, {"time": 1557, "pitch": 73, "duration": 3, "velocity": 70}, {"time": 1560, "pitch": 44, "duration": 6, "velocity": 75}, {"time": 1560, "pitch": 63, "duration": 13, "velocity": 52}, {"time": 1560, "pitch": 68, "duration": 13, "velocity": 73}, {"time": 1563, "pitch": 51, "duration": 3, "velocity": 69}, {"time": 1566, "pitch": 56, "duration": 5, "velocity": 62}, {"time": 1569, "pitch": 58, "duration": 5, "velocity": 51}, {"time": 1572, "pitch": 60, "duration": 2, "velocity": 75}, {"time": 1575, "pitch": 63, "duration": 2, "velocity": 60}, {"time": 1578, "pitch": 68, "duration": 4, "velocity": 64}, {"time": 1584, "pitch": 41, "duration": 19, "velocity": 72}, {"time": 1584, "pitch": 65, "duration": 7, "velocity": 85}, {"time": 1590, "pitch": 53, "duration": 10, "velocity": 51}, {"time": 1596, "pitch": 63, "duration": 5, "velocity": 70}, {"time": 1602, "pitch": 53, "duration": 2, "velocity": 82}, {"time": 1608, "pitch": 46, "duration": 38, "velocity": 76}, {"time": 1608, "pitch": 65, "duration": 7, "velocity": 88}, {"time": 1614, "pitch": 53, "duration": 31, "velocity": 61}, {"time": 1617, "pitch": 65, "duration": 6, "velocity": 72}, {"time": 1623, "pitch": 65, "duration": 1, "velocity": 55}, {"time": 1623, "pitch": 70, "duration": 9, "velocity": 80}, {"time": 1626, "pitch": 58, "duration": 13, "velocity": 51}, {"time": 1629, "pitch": 70, "duration": 3, "velocity": 56}, {"time": 1632, "pitch": 82, "duration": 9, "velocity": 80}, {"time": 1644, "pitch": 80, "duration": 2, "velocity": 69}, {"time": 1656, "pitch": 46, "duration": 41, "velocity": 53}, {"time": 1656, "pitch": 65, "duration": 7, "velocity": 51}, {"time": 1656, "pitch": 73, "duration": 7, "velocity": 57}, {"time": 1662, "pitch": 53, "duration": 36, "velocity": 58}, {"time": 1668, "pitch": 58, "duration": 14, "velocity": 53}, {"time": 1674, "pitch": 60, "duration": 8, "velocity": 57}, {"time": 1680, "pitch": 61, "duration": 5, "velocity": 76}, {"time": 1686, "pitch": 58, "duration": 11, "velocity": 35}, {"time": 1692, "pitch": 65, "duration": 6, "velocity": 63}, {"time": 1698, "pitch": 70, "duration": 6, "velocity": 45}, {"time": 1704, "pitch": 44, "duration": 17, "velocity": 66}, {"time": 1704, "pitch": 68, "duration": 8, "velocity": 66}, {"time": 1710, "pitch": 51, "duration": 12, "velocity": 40}, {"time": 1716, "pitch": 56, "duration": 13, "velocity": 50}, {"time": 1722, "pitch": 63, "duration": 7, "velocity": 54}, {"time": 1728, "pitch": 49, "duration": 16, "velocity": 61}, {"time": 1728, "pitch": 65, "duration": 17, "velocity": 70}, {"time": 1734, "pitch": 56, "duration": 12, "velocity": 38}, {"time": 1740, "pitch": 61, "duration": 5, "velocity": 47}, {"time": 1746, "pitch": 70, "duration": 7, "velocity": 56}, {"time": 1752, "pitch": 51, "duration": 37, "velocity": 51}, {"time": 1752, "pitch": 66, "duration": 14, "velocity": 67}, {"time": 1758, "pitch": 58, "duration": 29, "velocity": 44}, {"time": 1764, "pitch": 63, "duration": 14, "velocity": 50}, {"time": 1770, "pitch": 70, "duration": 7, "velocity": 48}, {"time": 1776, "pitch": 53, "duration": 18, "velocity": 69}, {"time": 1776, "pitch": 65, "duration": 7, "velocity": 44}, {"time": 1776, "pitch": 68, "duration": 7, "velocity": 60}, {"time": 1776, "pitch": 77, "duration": 14, "velocity": 66}, {"time": 1782, "pitch": 60, "duration": 12, "velocity": 59}, {"time": 1788, "pitch": 63, "duration": 6, "velocity": 59}, {"time": 1794, "pitch": 68, "duration": 5, "velocity": 63}, {"time": 1800, "pitch": 54, "duration": 7, "velocity": 55}, {"time": 1800, "pitch": 61, "duration": 6, "velocity": 55}, {"time": 1800, "pitch": 66, "duration": 7, "velocity": 63}, {"time": 1800, "pitch": 70, "duration": 6, "velocity": 62}, {"time": 1806, "pitch": 58, "duration": 1, "velocity": 69}, {"time": 1812, "pitch": 44, "duration": 8, "velocity": 72}, {"time": 1812, "pitch": 63, "duration": 6, "velocity": 61}, {"time": 1812, "pitch": 68, "duration": 6, "velocity": 59}, {"time": 1812, "pitch": 72, "duration": 6, "velocity": 60}, {"time": 1818, "pitch": 70, "duration": 6, "velocity": 57}, {"time": 1824, "pitch": 46, "duration": 20, "velocity": 59}, {"time": 1824, "pitch": 65, "duration": 8, "velocity": 52}, {"time": 1824, "pitch": 73, "duration": 8, "velocity": 62}, {"time": 1830, "pitch": 53, "duration": 8, "velocity": 46}, {"time": 1836, "pitch": 58, "duration": 6, "velocity": 46}, {"time": 1836, "pitch": 61, "duration": 6, "velocity": 70}, {"time": 1836, "pitch": 65, "duration": 5, "velocity": 36}, {"time": 1842, "pitch": 53, "duration": 6, "velocity": 39}, {"time": 1842, "pitch": 60, "duration": 6, "velocity": 46}, {"time": 1842, "pitch": 63, "duration": 7, "velocity": 49}, {"time": 1848, "pitch": 51, "duration": 18, "velocity": 60}, {"time": 1848, "pitch": 75, "duration": 6, "velocity": 66}, {"time": 1854, "pitch": 58, "duration": 13, "velocity": 51}, {"time": 1854, "pitch": 75, "duration": 6, "velocity": 59}, {"time": 1860, "pitch": 63, "duration": 4, "velocity": 54}, {"time": 1860, "pitch": 70, "duration": 3, "velocity": 72}, {"time": 1866, "pitch": 68, "duration": 5, "velocity": 63}, {"time": 1872, "pitch": 46, "duration": 19, "velocity": 73}, {"time": 1872, "pitch": 73, "duration": 5, "velocity": 72}, {"time": 1872, "pitch": 65, "duration": 7, "velocity": 58}, {"time": 1878, "pitch": 72, "duration": 6, "velocity": 63}, {"time": 1878, "pitch": 53, "duration": 13, "velocity": 55}, {"time": 1884, "pitch": 58, "duration": 4, "velocity": 50}, {"time": 1884, "pitch": 73, "duration": 8, "velocity": 63}, {"time": 1884, "pitch": 65, "duration": 6, "velocity": 53}, {"time": 1890, "pitch": 58, "duration": 2, "velocity": 45}, {"time": 1896, "pitch": 49, "duration": 16, "velocity": 70}, {"time": 1896, "pitch": 68, "duration": 4, "velocity": 63}, {"time": 1896, "pitch": 73, "duration": 4, "velocity": 64}, {"time": 1902, "pitch": 56, "duration": 11, "velocity": 50}, {"time": 1902, "pitch": 73, "duration": 6, "velocity": 67}, {"time": 1908, "pitch": 61, "duration": 5, "velocity": 57}, {"time": 1908, "pitch": 77, "duration": 5, "velocity": 73}, {"time": 1914, "pitch": 80, "duration": 3, "velocity": 63}, {"time": 1920, "pitch": 46, "duration": 19, "velocity": 61}, {"time": 1920, "pitch": 73, "duration": 6, "velocity": 67}, {"time": 1926, "pitch": 53, "duration": 10, "velocity": 45}, {"time": 1932, "pitch": 58, "duration": 5, "velocity": 55}, {"time": 1932, "pitch": 73, "duration": 4, "velocity": 67}, {"time": 1935, "pitch": 72, "duration": 3, "velocity": 53}, {"time": 1938, "pitch": 70, "duration": 3, "velocity": 61}, {"time": 1941, "pitch": 68, "duration": 3, "velocity": 64}, {"time": 1944, "pitch": 51, "duration": 16, "velocity": 67}, {"time": 1944, "pitch": 75, "duration": 6, "velocity": 60}, {"time": 1950, "pitch": 58, "duration": 11, "velocity": 56}, {"time": 1950, "pitch": 73, "duration": 5, "velocity": 62}, {"time": 1956, "pitch": 63, "duration": 3, "velocity": 57}, {"time": 1956, "pitch": 70, "duration": 2, "velocity": 62}, {"time": 1962, "pitch": 68, "duration": 6, "velocity": 64}, {"time": 1968, "pitch": 42, "duration": 6, "velocity": 64}, {"time": 1968, "pitch": 54, "duration": 7, "velocity": 52}, {"time": 1968, "pitch": 61, "duration": 5, "velocity": 67}, {"time": 1968, "pitch": 66, "duration": 6, "velocity": 73}, {"time": 1968, "pitch": 70, "duration": 6, "velocity": 66}, {"time": 1980, "pitch": 44, "duration": 6, "velocity": 61}, {"time": 1980, "pitch": 56, "duration": 7, "velocity": 53}, {"time": 1980, "pitch": 63, "duration": 6, "velocity": 62}, {"time": 1980, "pitch": 68, "duration": 6, "velocity": 69}, {"time": 1980, "pitch": 72, "duration": 5, "velocity": 66}, {"time": 1992, "pitch": 46, "duration": 20, "velocity": 69}, {"time": 1992, "pitch": 61, "duration": 11, "velocity": 69}, {"time": 1992, "pitch": 65, "duration": 8, "velocity": 66}, {"time": 1998, "pitch": 53, "duration": 16, "velocity": 49}, {"time": 2004, "pitch": 58, "duration": 5, "velocity": 55}, {"time": 2007, "pitch": 60, "duration": 3, "velocity": 56}, {"time": 2010, "pitch": 61, "duration": 4, "velocity": 54}, {"time": 2013, "pitch": 63, "duration": 3, "velocity": 53}, {"time": 2016, "pitch": 46, "duration": 2, "velocity": 67}, {"time": 2016, "pitch": 53, "duration": 2, "velocity": 80}, {"time": 2016, "pitch": 58, "duration": 2, "velocity": 78}, {"time": 2016, "pitch": 61, "duration": 2, "velocity": 78}, {"time": 2016, "pitch": 65, "duration": 2, "velocity": 75}, {"time": 2019, "pitch": 46, "duration": 2, "velocity": 88}, {"time": 2019, "pitch": 53, "duration": 1, "velocity": 95}, {"time": 2019, "pitch": 58, "duration": 2, "velocity": 80}, {"time": 2019, "pitch": 61, "duration": 2, "velocity": 91}, {"time": 2019, "pitch": 65, "duration": 2, "velocity": 78}, {"time": 2028, "pitch": 46, "duration": 6, "velocity": 73}, {"time": 2028, "pitch": 58, "duration": 3, "velocity": 66}, {"time": 2028, "pitch": 61, "duration": 4, "velocity": 73}, {"time": 2028, "pitch": 65, "duration": 4, "velocity": 73}, {"time": 2031, "pitch": 53, "duration": 2, "velocity": 67}, {"time": 2034, "pitch": 48, "duration": 7, "velocity": 64}, {"time": 2034, "pitch": 60, "duration": 7, "velocity": 67}, {"time": 2034, "pitch": 63, "duration": 7, "velocity": 75}, {"time": 2040, "pitch": 49, "duration": 18, "velocity": 80}, {"time": 2040, "pitch": 61, "duration": 8, "velocity": 78}, {"time": 2040, "pitch": 65, "duration": 8, "velocity": 73}, {"time": 2049, "pitch": 53, "duration": 5, "velocity": 40}, {"time": 2052, "pitch": 56, "duration": 4, "velocity": 70}, {"time": 2052, "pitch": 61, "duration": 4, "velocity": 82}, {"time": 2052, "pitch": 65, "duration": 4, "velocity": 80}, {"time": 2055, "pitch": 53, "duration": 3, "velocity": 75}, {"time": 2058, "pitch": 56, "duration": 3, "velocity": 64}, {"time": 2061, "pitch": 65, "duration": 3, "velocity": 69}, {"time": 2064, "pitch": 44, "duration": 19, "velocity": 72}, {"time": 2064, "pitch": 60, "duration": 5, "velocity": 78}, {"time": 2064, "pitch": 63, "duration": 5, "velocity": 75}, {"time": 2070, "pitch": 51, "duration": 14, "velocity": 49}, {"time": 2073, "pitch": 56, "duration": 8, "velocity": 61}, {"time": 2076, "pitch": 65, "duration": 2, "velocity": 63}, {"time": 2076, "pitch": 73, "duration": 2, "velocity": 76}, {"time": 2079, "pitch": 65, "duration": 2, "velocity": 51}, {"time": 2079, "pitch": 72, "duration": 4, "velocity": 57}, {"time": 2082, "pitch": 56, "duration": 2, "velocity": 55}, {"time": 2082, "pitch": 70, "duration": 3, "velocity": 58}, {"time": 2085, "pitch": 65, "duration": 2, "velocity": 64}, {"time": 2088, "pitch": 54, "duration": 6, "velocity": 72}, {"time": 2088, "pitch": 61, "duration": 4, "velocity": 76}, {"time": 2088, "pitch": 66, "duration": 4, "velocity": 80}, {"time": 2088, "pitch": 70, "duration": 4, "velocity": 75}, {"time": 2091, "pitch": 58, "duration": 3, "velocity": 56}, {"time": 2094, "pitch": 61, "duration": 3, "velocity": 73}, {"time": 2097, "pitch": 66, "duration": 3, "velocity": 66}, {"time": 2100, "pitch": 44, "duration": 9, "velocity": 69}, {"time": 2100, "pitch": 63, "duration": 5, "velocity": 67}, {"time": 2100, "pitch": 68, "duration": 6, "velocity": 72}, {"time": 2100, "pitch": 72, "duration": 5, "velocity": 67}, {"time": 2103, "pitch": 51, "duration": 8, "velocity": 66}, {"time": 2106, "pitch": 56, "duration": 4, "velocity": 64}, {"time": 2109, "pitch": 63, "duration": 2, "velocity": 44}, {"time": 2112, "pitch": 46, "duration": 19, "velocity": 66}, {"time": 2112, "pitch": 65, "duration": 7, "velocity": 67}, {"time": 2112, "pitch": 70, "duration": 7, "velocity": 69}, {"time": 2112, "pitch": 73, "duration": 7, "velocity": 72}, {"time": 2118, "pitch": 53, "duration": 10, "velocity": 51}, {"time": 2121, "pitch": 58, "duration": 8, "velocity": 49}, {"time": 2121, "pitch": 65, "duration": 2, "velocity": 73}, {"time": 2121, "pitch": 72, "duration": 2, "velocity": 66}, {"time": 2127, "pitch": 61, "duration": 2, "velocity": 69}, {"time": 2127, "pitch": 68, "duration": 2, "velocity": 55}, {"time": 2130, "pitch": 53, "duration": 2, "velocity": 70}, {"time": 2136, "pitch": 49, "duration": 19, "velocity": 78}, {"time": 2136, "pitch": 65, "duration": 6, "velocity": 66}, {"time": 2136, "pitch": 68, "duration": 7, "velocity": 70}, {"time": 2136, "pitch": 73, "duration": 7, "velocity": 73}, {"time": 2139, "pitch": 56, "duration": 15, "velocity": 59}, {"time": 2142, "pitch": 61, "duration": 10, "velocity": 62}, {"time": 2145, "pitch": 65, "duration": 5, "velocity": 80}, {"time": 2145, "pitch": 73, "duration": 4, "velocity": 73}, {"time": 2151, "pitch": 68, "duration": 7, "velocity": 76}, {"time": 2157, "pitch": 70, "duration": 3, "velocity": 70}, {"time": 2160, "pitch": 44, "duration": 20, "velocity": 73}, {"time": 2160, "pitch": 63, "duration": 6, "velocity": 63}, {"time": 2160, "pitch": 68, "duration": 6, "velocity": 66}, {"time": 2160, "pitch": 72, "duration": 7, "velocity": 70}, {"time": 2163, "pitch": 51, "duration": 12, "velocity": 55}, {"time": 2166, "pitch": 56, "duration": 10, "velocity": 55}, {"time": 2169, "pitch": 63, "duration": 3, "velocity": 72}, {"time": 2169, "pitch": 70, "duration": 2, "velocity": 80}, {"time": 2175, "pitch": 63, "duration": 4, "velocity": 75}, {"time": 2175, "pitch": 68, "duration": 3, "velocity": 76}, {"time": 2178, "pitch": 51, "duration": 2, "velocity": 72}, {"time": 2181, "pitch": 68, "duration": 2, "velocity": 63}, {"time": 2184, "pitch": 42, "duration": 5, "velocity": 72}, {"time": 2184, "pitch": 61, "duration": 12, "velocity": 75}, {"time": 2184, "pitch": 66, "duration": 12, "velocity": 67}, {"time": 2184, "pitch": 70, "duration": 11, "velocity": 59}, {"time": 2187, "pitch": 49, "duration": 3, "velocity": 67}, {"time": 2190, "pitch": 54, "duration": 4, "velocity": 48}, {"time": 2193, "pitch": 56, "duration": 4, "velocity": 66}, {"time": 2196, "pitch": 58, "duration": 2, "velocity": 70}, {"time": 2199, "pitch": 61, "duration": 3, "velocity": 69}, {"time": 2202, "pitch": 66, "duration": 5, "velocity": 67}, {"time": 2205, "pitch": 70, "duration": 3, "velocity": 66}, {"time": 2208, "pitch": 41, "duration": 2, "velocity": 69}, {"time": 2208, "pitch": 65, "duration": 9, "velocity": 80}, {"time": 2208, "pitch": 69, "duration": 3, "velocity": 101}, {"time": 2211, "pitch": 53, "duration": 4, "velocity": 63}, {"time": 2214, "pitch": 58, "duration": 12, "velocity": 44}, {"time": 2217, "pitch": 60, "duration": 9, "velocity": 75}, {"time": 2220, "pitch": 65, "duration": 3, "velocity": 82}, {"time": 2223, "pitch": 70, "duration": 4, "velocity": 61}, {"time": 2226, "pitch": 73, "duration": 2, "velocity": 78}, {"time": 2229, "pitch": 75, "duration": 5, "velocity": 73}, {"time": 2232, "pitch": 49, "duration": 20, "velocity": 73}, {"time": 2232, "pitch": 65, "duration": 7, "velocity": 70}, {"time": 2232, "pitch": 68, "duration": 7, "velocity": 76}, {"time": 2232, "pitch": 73, "duration": 7, "velocity": 75}, {"time": 2235, "pitch": 56, "duration": 17, "velocity": 63}, {"time": 2238, "pitch": 61, "duration": 12, "velocity": 66}, {"time": 2241, "pitch": 65, "duration": 5, "velocity": 80}, {"time": 2244, "pitch": 68, "duration": 4, "velocity": 53}, {"time": 2247, "pitch": 70, "duration": 6, "velocity": 70}, {"time": 2250, "pitch": 72, "duration": 3, "velocity": 70}, {"time": 2253, "pitch": 73, "duration": 5, "velocity": 61}, {"time": 2256, "pitch": 44, "duration": 5, "velocity": 67}, {"time": 2256, "pitch": 63, "duration": 12, "velocity": 66}, {"time": 2256, "pitch": 68, "duration": 10, "velocity": 73}, {"time": 2256, "pitch": 72, "duration": 12, "velocity": 73}, {"time": 2259, "pitch": 51, "duration": 3, "velocity": 63}, {"time": 2262, "pitch": 56, "duration": 5, "velocity": 48}, {"time": 2265, "pitch": 58, "duration": 6, "velocity": 72}, {"time": 2268, "pitch": 60, "duration": 3, "velocity": 66}, {"time": 2271, "pitch": 63, "duration": 2, "velocity": 70}, {"time": 2274, "pitch": 68, "duration": 4, "velocity": 62}, {"time": 2277, "pitch": 73, "duration": 12, "velocity": 66}, {"time": 2280, "pitch": 42, "duration": 5, "velocity": 66}, {"time": 2280, "pitch": 61, "duration": 13, "velocity": 61}, {"time": 2280, "pitch": 66, "duration": 13, "velocity": 70}, {"time": 2280, "pitch": 70, "duration": 12, "velocity": 70}, {"time": 2283, "pitch": 49, "duration": 3, "velocity": 55}, {"time": 2286, "pitch": 54, "duration": 5, "velocity": 54}, {"time": 2289, "pitch": 56, "duration": 8, "velocity": 61}, {"time": 2292, "pitch": 58, "duration": 4, "velocity": 61}, {"time": 2295, "pitch": 61, "duration": 3, "velocity": 75}, {"time": 2298, "pitch": 68, "duration": 3, "velocity": 54}, {"time": 2301, "pitch": 72, "duration": 4, "velocity": 75}, {"time": 2304, "pitch": 53, "duration": 20, "velocity": 69}, {"time": 2304, "pitch": 63, "duration": 5, "velocity": 69}, {"time": 2304, "pitch": 68, "duration": 5, "velocity": 76}, {"time": 2307, "pitch": 60, "duration": 13, "velocity": 63}, {"time": 2310, "pitch": 63, "duration": 3, "velocity": 61}, {"time": 2313, "pitch": 68, "duration": 7, "velocity": 70}, {"time": 2319, "pitch": 72, "duration": 7, "velocity": 72}, {"time": 2322, "pitch": 60, "duration": 3, "velocity": 62}, {"time": 2325, "pitch": 68, "duration": 2, "velocity": 43}, {"time": 2328, "pitch": 51, "duration": 19, "velocity": 64}, {"time": 2328, "pitch": 61, "duration": 3, "velocity": 62}, {"time": 2328, "pitch": 66, "duration": 7, "velocity": 70}, {"time": 2328, "pitch": 70, "duration": 7, "velocity": 70}, {"time": 2331, "pitch": 58, "duration": 9, "velocity": 58}, {"time": 2334, "pitch": 63, "duration": 9, "velocity": 66}, {"time": 2337, "pitch": 68, "duration": 7, "velocity": 75}, {"time": 2343, "pitch": 66, "duration": 2, "velocity": 70}, {"time": 2343, "pitch": 70, "duration": 2, "velocity": 72}, {"time": 2346, "pitch": 58, "duration": 2, "velocity": 73}, {"time": 2352, "pitch": 53, "duration": 17, "velocity": 60}, {"time": 2352, "pitch": 63, "duration": 4, "velocity": 63}, {"time": 2352, "pitch": 68, "duration": 6, "velocity": 70}, {"time": 2355, "pitch": 60, "duration": 11, "velocity": 58}, {"time": 2358, "pitch": 65, "duration": 9, "velocity": 73}, {"time": 2361, "pitch": 68, "duration": 4, "velocity": 63}, {"time": 2364, "pitch": 72, "duration": 3, "velocity": 67}, {"time": 2367, "pitch": 75, "duration": 3, "velocity": 67}, {"time": 2370, "pitch": 77, "duration": 4, "velocity": 67}, {"time": 2373, "pitch": 78, "duration": 5, "velocity": 59}, {"time": 2376, "pitch": 42, "duration": 19, "velocity": 70}, {"time": 2376, "pitch": 70, "duration": 3, "velocity": 57}, {"time": 2376, "pitch": 73, "duration": 3, "velocity": 67}, {"time": 2379, "pitch": 49, "duration": 17, "velocity": 67}, {"time": 2382, "pitch": 54, "duration": 9, "velocity": 63}, {"time": 2385, "pitch": 58, "duration": 5, "velocity": 66}, {"time": 2388, "pitch": 61, "duration": 2, "velocity": 57}, {"time": 2391, "pitch": 63, "duration": 3, "velocity": 70}, {"time": 2394, "pitch": 54, "duration": 4, "velocity": 70}, {"time": 2394, "pitch": 65, "duration": 4, "velocity": 70}, {"time": 2400, "pitch": 44, "duration": 3, "velocity": 73}, {"time": 2400, "pitch": 56, "duration": 3, "velocity": 88}, {"time": 2400, "pitch": 60, "duration": 3, "velocity": 80}, {"time": 2400, "pitch": 63, "duration": 3, "velocity": 78}, {"time": 2400, "pitch": 68, "duration": 3, "velocity": 76}, {"time": 2424, "pitch": 46, "duration": 16, "velocity": 69}, {"time": 2424, "pitch": 53, "duration": 3, "velocity": 62}, {"time": 2424, "pitch": 61, "duration": 7, "velocity": 82}, {"time": 2424, "pitch": 65, "duration": 6, "velocity": 75}, {"time": 2430, "pitch": 53, "duration": 7, "velocity": 60}, {"time": 2433, "pitch": 58, "duration": 6, "velocity": 60}, {"time": 2436, "pitch": 61, "duration": 4, "velocity": 99}, {"time": 2436, "pitch": 65, "duration": 4, "velocity": 91}, {"time": 2439, "pitch": 53, "duration": 2, "velocity": 67}, {"time": 2442, "pitch": 39, "duration": 25, "velocity": 99}, {"time": 2442, "pitch": 51, "duration": 5, "velocity": 82}, {"time": 2442, "pitch": 58, "duration": 10, "velocity": 91}, {"time": 2442, "pitch": 63, "duration": 10, "velocity": 78}, {"time": 2442, "pitch": 67, "duration": 12, "velocity": 67}, {"time": 2454, "pitch": 51, "duration": 8, "velocity": 48}, {"time": 2460, "pitch": 58, "duration": 4, "velocity": 82}, {"time": 2460, "pitch": 63, "duration": 4, "velocity": 106}, {"time": 2460, "pitch": 67, "duration": 4, "velocity": 99}, {"time": 2463, "pitch": 51, "duration": 5, "velocity": 93}, {"time": 2466, "pitch": 58, "duration": 4, "velocity": 95}, {"time": 2472, "pitch": 41, "duration": 2, "velocity": 72}, {"time": 2472, "pitch": 53, "duration": 2, "velocity": 93}, {"time": 2472, "pitch": 57, "duration": 2, "velocity": 103}, {"time": 2472, "pitch": 60, "duration": 1, "velocity": 101}, {"time": 2472, "pitch": 65, "duration": 2, "velocity": 85}, {"time": 2475, "pitch": 41, "duration": 2, "velocity": 72}, {"time": 2475, "pitch": 53, "duration": 2, "velocity": 80}, {"time": 2475, "pitch": 57, "duration": 2, "velocity": 80}, {"time": 2475, "pitch": 60, "duration": 2, "velocity": 82}, {"time": 2475, "pitch": 65, "duration": 2, "velocity": 76}, {"time": 2478, "pitch": 41, "duration": 2, "velocity": 72}, {"time": 2478, "pitch": 53, "duration": 2, "velocity": 85}, {"time": 2478, "pitch": 57, "duration": 2, "velocity": 78}, {"time": 2478, "pitch": 60, "duration": 2, "velocity": 95}, {"time": 2478, "pitch": 65, "duration": 2, "velocity": 80}, {"time": 2481, "pitch": 41, "duration": 2, "velocity": 73}, {"time": 2481, "pitch": 53, "duration": 1, "velocity": 93}, {"time": 2481, "pitch": 60, "duration": 1, "velocity": 70}, {"time": 2487, "pitch": 41, "duration": 2, "velocity": 80}, {"time": 2487, "pitch": 53, "duration": 1, "velocity": 93}, {"time": 2487, "pitch": 57, "duration": 1, "velocity": 103}, {"time": 2487, "pitch": 60, "duration": 1, "velocity": 99}, {"time": 2487, "pitch": 65, "duration": 1, "velocity": 93}, {"time": 2490, "pitch": 39, "duration": 4, "velocity": 93}, {"time": 2490, "pitch": 51, "duration": 4, "velocity": 75}, {"time": 2490, "pitch": 55, "duration": 4, "velocity": 106}, {"time": 2490, "pitch": 58, "duration": 4, "velocity": 109}, {"time": 2490, "pitch": 63, "duration": 3, "velocity": 99}, {"time": 2496, "pitch": 41, "duration": 15, "velocity": 76}, {"time": 2496, "pitch": 53, "duration": 15, "velocity": 101}, {"time": 2496, "pitch": 57, "duration": 14, "velocity": 101}, {"time": 2496, "pitch": 60, "duration": 15, "velocity": 99}, {"time": 2496, "pitch": 65, "duration": 15, "velocity": 82}, {"time": 2520, "pitch": 49, "duration": 18, "velocity": 80}, {"time": 2520, "pitch": 61, "duration": 8, "velocity": 78}, {"time": 2520, "pitch": 65, "duration": 8, "velocity": 73}, {"time": 2529, "pitch": 53, "duration": 5, "velocity": 40}, {"time": 2532, "pitch": 56, "duration": 4, "velocity": 70}, {"time": 2532, "pitch": 61, "duration": 4, "velocity": 82}, {"time": 2532, "pitch": 65, "duration": 4, "velocity": 80}, {"time": 2535, "pitch": 53, "duration": 3, "velocity": 75}, {"time": 2538, "pitch": 56, "duration": 3, "velocity": 64}, {"time": 2541, "pitch": 65, "duration": 3, "velocity": 69}, {"time": 2544, "pitch": 44, "duration": 19, "velocity": 72}, {"time": 2544, "pitch": 60, "duration": 5, "velocity": 78}, {"time": 2544, "pitch": 63, "duration": 5, "velocity": 75}, {"time": 2550, "pitch": 51, "duration": 14, "velocity": 49}, {"time": 2553, "pitch": 56, "duration": 8, "velocity": 61}, {"time": 2556, "pitch": 65, "duration": 2, "velocity": 63}, {"time": 2556, "pitch": 73, "duration": 2, "velocity": 76}, {"time": 2559, "pitch": 65, "duration": 2, "velocity": 51}, {"time": 2559, "pitch": 72, "duration": 4, "velocity": 57}, {"time": 2562, "pitch": 56, "duration": 2, "velocity": 55}, {"time": 2562, "pitch": 70, "duration": 3, "velocity": 58}, {"time": 2565, "pitch": 65, "duration": 2, "velocity": 64}, {"time": 2568, "pitch": 54, "duration": 6, "velocity": 72}, {"time": 2568, "pitch": 61, "duration": 4, "velocity": 76}, {"time": 2568, "pitch": 66, "duration": 4, "velocity": 80}, {"time": 2568, "pitch": 70, "duration": 4, "velocity": 75}, {"time": 2571, "pitch": 58, "duration": 3, "velocity": 56}, {"time": 2574, "pitch": 61, "duration": 3, "velocity": 73}, {"time": 2577, "pitch": 66, "duration": 3, "velocity": 66}, {"time": 2580, "pitch": 44, "duration": 9, "velocity": 69}, {"time": 2580, "pitch": 63, "duration": 5, "velocity": 67}, {"time": 2580, "pitch": 68, "duration": 6, "velocity": 72}, {"time": 2580, "pitch": 72, "duration": 5, "velocity": 67}, {"time": 2583, "pitch": 51, "duration": 8, "velocity": 66}, {"time": 2586, "pitch": 56, "duration": 4, "velocity": 64}, {"time": 2589, "pitch": 63, "duration": 2, "velocity": 44}, {"time": 2592, "pitch": 46, "duration": 19, "velocity": 66}, {"time": 2592, "pitch": 65, "duration": 7, "velocity": 67}, {"time": 2592, "pitch": 70, "duration": 7, "velocity": 69}, {"time": 2592, "pitch": 73, "duration": 7, "velocity": 72}, {"time": 2598, "pitch": 53, "duration": 10, "velocity": 51}, {"time": 2601, "pitch": 58, "duration": 8, "velocity": 49}, {"time": 2601, "pitch": 65, "duration": 2, "velocity": 73}, {"time": 2601, "pitch": 72, "duration": 2, "velocity": 66}, {"time": 2607, "pitch": 61, "duration": 2, "velocity": 69}, {"time": 2607, "pitch": 68, "duration": 2, "velocity": 55}, {"time": 2610, "pitch": 53, "duration": 2, "velocity": 70}, {"time": 2616, "pitch": 49, "duration": 19, "velocity": 78}, {"time": 2616, "pitch": 65, "duration": 6, "velocity": 66}, {"time": 2616, "pitch": 68, "duration": 7, "velocity": 70}, {"time": 2616, "pitch": 73, "duration": 7, "velocity": 73}, {"time": 2619, "pitch": 56, "duration": 15, "velocity": 59}, {"time": 2622, "pitch": 61, "duration": 10, "velocity": 62}, {"time": 2625, "pitch": 65, "duration": 5, "velocity": 80}, {"time": 2625, "pitch": 73, "duration": 4, "velocity": 73}, {"time": 2631, "pitch": 68, "duration": 7, "velocity": 76}, {"time": 2637, "pitch": 70, "duration": 3, "velocity": 70}, {"time": 2640, "pitch": 44, "duration": 20, "velocity": 73}, {"time": 2640, "pitch": 63, "duration": 6, "velocity": 63}, {"time": 2640, "pitch": 68, "duration": 6, "velocity": 66}, {"time": 2640, "pitch": 72, "duration": 7, "velocity": 70}, {"time": 2643, "pitch": 51, "duration": 12, "velocity": 55}, {"time": 2646, "pitch": 56, "duration": 10, "velocity": 55}, {"time": 2649, "pitch": 63, "duration": 3, "velocity": 72}, {"time": 2649, "pitch": 70, "duration": 2, "velocity": 80}, {"time": 2655, "pitch": 63, "duration": 4, "velocity": 75}, {"time": 2655, "pitch": 68, "duration": 3, "velocity": 76}, {"time": 2658, "pitch": 51, "duration": 2, "velocity": 72}, {"time": 2661, "pitch": 68, "duration": 2, "velocity": 63}, {"time": 2664, "pitch": 42, "duration": 5, "velocity": 72}, {"time": 2664, "pitch": 61, "duration": 12, "velocity": 75}, {"time": 2664, "pitch": 66, "duration": 12, "velocity": 67}, {"time": 2664, "pitch": 70, "duration": 11, "velocity": 59}, {"time": 2667, "pitch": 49, "duration": 3, "velocity": 67}, {"time": 2670, "pitch": 54, "duration": 4, "velocity": 48}, {"time": 2673, "pitch": 56, "duration": 4, "velocity": 66}, {"time": 2676, "pitch": 58, "duration": 2, "velocity": 70}, {"time": 2679, "pitch": 61, "duration": 3, "velocity": 69}, {"time": 2682, "pitch": 66, "duration": 5, "velocity": 67}, {"time": 2685, "pitch": 70, "duration": 3, "velocity": 66}, {"time": 2688, "pitch": 41, "duration": 2, "velocity": 69}, {"time": 2688, "pitch": 65, "duration": 9, "velocity": 80}, {"time": 2688, "pitch": 69, "duration": 3, "velocity": 101}, {"time": 2691, "pitch": 53, "duration": 4, "velocity": 63}, {"time": 2694, "pitch": 58, "duration": 12, "velocity": 44}, {"time": 2697, "pitch": 60, "duration": 9, "velocity": 75}, {"time": 2700, "pitch": 65, "duration": 3, "velocity": 82}, {"time": 2703, "pitch": 70, "duration": 4, "velocity": 61}, {"time": 2706, "pitch": 73, "duration": 2, "velocity": 78}, {"time": 2709, "pitch": 75, "duration": 5, "velocity": 73}, {"time": 2712, "pitch": 49, "duration": 20, "velocity": 73}, {"time": 2712, "pitch": 65, "duration": 7, "velocity": 70}, {"time": 2712, "pitch": 68, "duration": 7, "velocity": 76}, {"time": 2712, "pitch": 73, "duration": 7, "velocity": 75}, {"time": 2715, "pitch": 56, "duration": 17, "velocity": 63}, {"time": 2718, "pitch": 61, "duration": 12, "velocity": 66}, {"time": 2721, "pitch": 65, "duration": 5, "velocity": 80}, {"time": 2724, "pitch": 68, "duration": 4, "velocity": 53}, {"time": 2727, "pitch": 70, "duration": 6, "velocity": 70}, {"time": 2730, "pitch": 72, "duration": 3, "velocity": 70}, {"time": 2733, "pitch": 73, "duration": 5, "velocity": 61}, {"time": 2736, "pitch": 44, "duration": 5, "velocity": 67}, {"time": 2736, "pitch": 63, "duration": 12, "velocity": 66}, {"time": 2736, "pitch": 68, "duration": 10, "velocity": 73}, {"time": 2736, "pitch": 72, "duration": 12, "velocity": 73}, {"time": 2739, "pitch": 51, "duration": 3, "velocity": 63}, {"time": 2742, "pitch": 56, "duration": 5, "velocity": 48}, {"time": 2745, "pitch": 58, "duration": 6, "velocity": 72}, {"time": 2748, "pitch": 60, "duration": 3, "velocity": 66}, {"time": 2751, "pitch": 63, "duration": 2, "velocity": 70}, {"time": 2754, "pitch": 68, "duration": 4, "velocity": 62}, {"time": 2757, "pitch": 73, "duration": 12, "velocity": 66}, {"time": 2760, "pitch": 42, "duration": 5, "velocity": 66}, {"time": 2760, "pitch": 61, "duration": 13, "velocity": 61}, {"time": 2760, "pitch": 66, "duration": 13, "velocity": 70}, {"time": 2760, "pitch": 70, "duration": 12, "velocity": 70}, {"time": 2763, "pitch": 49, "duration": 3, "velocity": 55}, {"time": 2766, "pitch": 54, "duration": 5, "velocity": 54}, {"time": 2769, "pitch": 56, "duration": 8, "velocity": 61}, {"time": 2772, "pitch": 58, "duration": 4, "velocity": 61}, {"time": 2775, "pitch": 61, "duration": 3, "velocity": 75}, {"time": 2778, "pitch": 68, "duration": 3, "velocity": 54}, {"time": 2781, "pitch": 72, "duration": 4, "velocity": 75}, {"time": 2784, "pitch": 53, "duration": 20, "velocity": 69}, {"time": 2784, "pitch": 63, "duration": 5, "velocity": 69}, {"time": 2784, "pitch": 68, "duration": 5, "velocity": 76}, {"time": 2787, "pitch": 60, "duration": 13, "velocity": 63}, {"time": 2790, "pitch": 63, "duration": 3, "velocity": 61}, {"time": 2793, "pitch": 68, "duration": 7, "velocity": 70}, {"time": 2799, "pitch": 72, "duration": 7, "velocity": 72}, {"time": 2802, "pitch": 60, "duration": 3, "velocity": 62}, {"time": 2805, "pitch": 68, "duration": 2, "velocity": 43}, {"time": 2808, "pitch": 51, "duration": 19, "velocity": 64}, {"time": 2808, "pitch": 61, "duration": 3, "velocity": 62}, {"time": 2808, "pitch": 66, "duration": 7, "velocity": 70}, {"time": 2808, "pitch": 70, "duration": 7, "velocity": 70}, {"time": 2811, "pitch": 58, "duration": 9, "velocity": 58}, {"time": 2814, "pitch": 63, "duration": 9, "velocity": 66}, {"time": 2817, "pitch": 68, "duration": 7, "velocity": 75}, {"time": 2823, "pitch": 66, "duration": 2, "velocity": 70}, {"time": 2823, "pitch": 70, "duration": 2, "velocity": 72}, {"time": 2826, "pitch": 58, "duration": 2, "velocity": 73}, {"time": 2832, "pitch": 53, "duration": 17, "velocity": 60}, {"time": 2832, "pitch": 63, "duration": 4, "velocity": 63}, {"time": 2832, "pitch": 68, "duration": 6, "velocity": 70}, {"time": 2835, "pitch": 60, "duration": 11, "velocity": 58}, {"time": 2838, "pitch": 65, "duration": 9, "velocity": 73}, {"time": 2841, "pitch": 68, "duration": 4, "velocity": 63}, {"time": 2844, "pitch": 72, "duration": 3, "velocity": 67}, {"time": 2847, "pitch": 75, "duration": 3, "velocity": 67}, {"time": 2850, "pitch": 77, "duration": 4, "velocity": 67}, {"time": 2853, "pitch": 80, "duration": 5, "velocity": 59}, {"time": 2856, "pitch": 42, "duration": 19, "velocity": 70}, {"time": 2856, "pitch": 70, "duration": 3, "velocity": 57}, {"time": 2856, "pitch": 73, "duration": 3, "velocity": 67}, {"time": 2859, "pitch": 49, "duration": 17, "velocity": 67}, {"time": 2862, "pitch": 54, "duration": 9, "velocity": 63}, {"time": 2865, "pitch": 58, "duration": 5, "velocity": 66}, {"time": 2868, "pitch": 61, "duration": 2, "velocity": 57}, {"time": 2871, "pitch": 63, "duration": 3, "velocity": 70}, {"time": 2874, "pitch": 54, "duration": 2, "velocity": 70}, {"time": 2874, "pitch": 65, "duration": 3, "velocity": 36}, {"time": 2880, "pitch": 44, "duration": 2, "velocity": 73}, {"time": 2880, "pitch": 56, "duration": 2, "velocity": 88}, {"time": 2880, "pitch": 60, "duration": 2, "velocity": 80}, {"time": 2880, "pitch": 63, "duration": 2, "velocity": 78}, {"time": 2880, "pitch": 68, "duration": 2, "velocity": 76}, {"time": 2892, "pitch": 77, "duration": 3, "velocity": 45}, {"time": 2895, "pitch": 75, "duration": 3, "velocity": 60}, {"time": 2898, "pitch": 73, "duration": 3, "velocity": 45}, {"time": 2901, "pitch": 72, "duration": 3, "velocity": 39}, {"time": 2904, "pitch": 46, "duration": 19, "velocity": 55}, {"time": 2904, "pitch": 70, "duration": 13, "velocity": 40}, {"time": 2910, "pitch": 53, "duration": 12, "velocity": 39}, {"time": 2916, "pitch": 58, "duration": 5, "velocity": 44}, {"time": 2916, "pitch": 61, "duration": 5, "velocity": 43}, {"time": 2916, "pitch": 65, "duration": 5, "velocity": 44}, {"time": 2922, "pitch": 48, "duration": 6, "velocity": 44}, {"time": 2922, "pitch": 63, "duration": 7, "velocity": 61}, {"time": 2928, "pitch": 49, "duration": 24, "velocity": 43}, {"time": 2928, "pitch": 61, "duration": 6, "velocity": 50}, {"time": 2928, "pitch": 65, "duration": 6, "velocity": 52}, {"time": 2934, "pitch": 53, "duration": 7, "velocity": 38}, {"time": 2940, "pitch": 56, "duration": 6, "velocity": 49}, {"time": 2940, "pitch": 61, "duration": 6, "velocity": 53}, {"time": 2940, "pitch": 65, "duration": 7, "velocity": 55}, {"time": 2946, "pitch": 53, "duration": 6, "velocity": 31}, {"time": 2952, "pitch": 44, "duration": 20, "velocity": 61}, {"time": 2952, "pitch": 60, "duration": 7, "velocity": 54}, {"time": 2952, "pitch": 63, "duration": 7, "velocity": 54}, {"time": 2952, "pitch": 68, "duration": 6, "velocity": 56}, {"time": 2958, "pitch": 51, "duration": 15, "velocity": 37}, {"time": 2964, "pitch": 56, "duration": 9, "velocity": 38}, {"time": 2964, "pitch": 60, "duration": 8, "velocity": 51}, {"time": 2964, "pitch": 63, "duration": 8, "velocity": 51}, {"time": 2964, "pitch": 68, "duration": 9, "velocity": 57}, {"time": 2976, "pitch": 46, "duration": 19, "velocity": 46}, {"time": 2976, "pitch": 61, "duration": 6, "velocity": 48}, {"time": 2976, "pitch": 65, "duration": 7, "velocity": 48}, {"time": 2982, "pitch": 53, "duration": 13, "velocity": 40}, {"time": 2982, "pitch": 60, "duration": 6, "velocity": 44}, {"time": 2982, "pitch": 63, "duration": 6, "velocity": 57}, {"time": 2988, "pitch": 58, "duration": 7, "velocity": 47}, {"time": 2988, "pitch": 61, "duration": 6, "velocity": 60}, {"time": 2988, "pitch": 65, "duration": 6, "velocity": 52}, {"time": 2994, "pitch": 48, "duration": 6, "velocity": 47}, {"time": 3000, "pitch": 66, "duration": 7, "velocity": 26}, {"time": 3000, "pitch": 51, "duration": 20, "velocity": 58}, {"time": 3000, "pitch": 58, "duration": 7, "velocity": 55}, {"time": 3000, "pitch": 63, "duration": 6, "velocity": 56}, {"time": 3006, "pitch": 54, "duration": 9, "velocity": 40}, {"time": 3012, "pitch": 58, "duration": 8, "velocity": 45}, {"time": 3012, "pitch": 63, "duration": 8, "velocity": 57}, {"time": 3012, "pitch": 66, "duration": 7, "velocity": 49}, {"time": 3018, "pitch": 53, "duration": 6, "velocity": 48}, {"time": 3024, "pitch": 54, "duration": 10, "velocity": 60}, {"time": 3024, "pitch": 58, "duration": 9, "velocity": 48}, {"time": 3024, "pitch": 61, "duration": 5, "velocity": 53}, {"time": 3024, "pitch": 66, "duration": 6, "velocity": 49}, {"time": 3036, "pitch": 58, "duration": 5, "velocity": 55}, {"time": 3036, "pitch": 61, "duration": 6, "velocity": 63}, {"time": 3036, "pitch": 66, "duration": 5, "velocity": 58}, {"time": 3042, "pitch": 41, "duration": 8, "velocity": 48}, {"time": 3042, "pitch": 65, "duration": 12, "velocity": 41}, {"time": 3048, "pitch": 46, "duration": 40, "velocity": 59}, {"time": 3048, "pitch": 58, "duration": 4, "velocity": 45}, {"time": 3048, "pitch": 61, "duration": 6, "velocity": 53}, {"time": 3054, "pitch": 63, "duration": 7, "velocity": 61}, {"time": 3060, "pitch": 53, "duration": 28, "velocity": 49}, {"time": 3060, "pitch": 65, "duration": 2, "velocity": 56}, {"time": 3066, "pitch": 58, "duration": 22, "velocity": 43}, {"time": 3066, "pitch": 68, "duration": 5, "velocity": 47}, {"time": 3072, "pitch": 70, "duration": 9, "velocity": 63}, {"time": 3084, "pitch": 77, "duration": 2, "velocity": 54}], "annotations": [{"time": 25, "annotation": {"number": 64, "value": 127}, "group": "control_change"}, {"time": 72, "annotation": {"number": 64, "value": 0}, "group": "control_change"}, {"time": 76, "annotation": {"number": 64, "value": 127}, "group": "control_change"}, {"time": 90, "annotation": {"number": 64, "value": 0}, "group": "control_change"}, {"time": 95, "annotation": {"number": 64, "value": 127}, "group": "control_change"}, {"time": 120, "annotation": {"number": 64, "value": 0}, "group": "control_change"}, {"time": 126, "annotation": {"number": 64, "value": 127}, "group": "control_change"}, {"time": 168, "annotation": {"number": 64, "value": 0}, "group": "control_change"}, {"time": 171, "annotation": {"number": 64, "value": 127}, "group": "control_change"}, {"time": 185, "annotation": {"number": 64, "value": 0}, "group": "control_change"}, {"time": 190, "annotation": {"number": 64, "value": 127}, "group": "control_change"}, {"time": 204, "annotation": {"number": 64, "value": 127}, "group": "control_change"}, {"time": 216, "annotation": {"number": 64, "value": 0}, "group": "control_change"}, {"time": 218, "annotation": {"number": 64, "value": 127}, "group": "control_change"}, {"time": 235, "annotation": {"number": 64, "value": 0}, "group": "control_change"}, {"time": 241, "annotation": {"number": 64, "value": 127}, "group": "control_change"}, {"time": 263, "annotation": {"number": 64, "value": 0}, "group": "control_change"}, {"time": 267, "annotation": {"number": 64, "value": 127}, "group": "control_change"}, {"time": 269, "annotation": {"number": 64, "value": 0}, "group": "control_change"}, {"time": 269, "annotation": {"number": 64, "value": 127}, "group": "control_change"}, {"time": 288, "annotation": {"number": 64, "value": 0}, "group": "control_change"}, {"time": 293, "annotation": {"number": 64, "value": 127}, "group": "control_change"}, {"time": 312, "annotation": {"number": 64, "value": 0}, "group": "control_change"}, {"time": 315, "annotation": {"number": 64, "value": 127}, "group": "control_change"}, {"time": 335, "annotation": {"number": 64, "value": 0}, "group": "control_change"}, {"time": 337, "annotation": {"number": 64, "value": 127}, "group": "control_change"}, {"time": 359, "annotation": {"number": 64, "value": 0}, "group": "control_change"}, {"time": 362, "annotation": {"number": 64, "value": 127}, "group": "control_change"}, {"time": 409, "annotation": {"number": 64, "value": 127}, "group": "control_change"}, {"time": 457, "annotation": {"number": 64, "value": 0}, "group": "control_change"}, {"time": 462, "annotation": {"number": 64, "value": 127}, "group": "control_change"}, {"time": 480, "annotation": {"number": 64, "value": 0}, "group": "control_change"}, {"time": 485, "annotation": {"number": 64, "value": 127}, "group": "control_change"}, {"time": 505, "annotation": {"number": 64, "value": 0}, "group": "control_change"}, {"time": 509, "annotation": {"number": 64, "value": 127}, "group": "control_change"}, {"time": 530, "annotation": {"number": 64, "value": 127}, "group": "control_change"}, {"time": 540, "annotation": {"number": 64, "value": 0}, "group": "control_change"}, {"time": 553, "annotation": {"number": 64, "value": 127}, "group": "control_change"}, {"time": 564, "annotation": {"number": 64, "value": 0}, "group": "control_change"}, {"time": 568, "annotation": {"number": 64, "value": 127}, "group": "control_change"}, {"time": 577, "annotation": {"number": 64, "value": 0}, "group": "control_change"}, {"time": 582, "annotation": {"number": 64, "value": 127}, "group": "control_change"}, {"time": 600, "annotation": {"number": 64, "value": 0}, "group": "control_change"}, {"time": 600, "annotation": {"number": 64, "value": 127}, "group": "control_change"}, {"time": 624, "annotation": {"number": 64, "value": 127}, "group": "control_change"}, {"time": 648, "annotation": {"number": 64, "value": 0}, "group": "control_change"}, {"time": 649, "annotation": {"number": 64, "value": 127}, "group": "control_change"}, {"time": 671, "annotation": {"number": 64, "value": 0}, "group": "control_change"}, {"time": 676, "annotation": {"number": 64, "value": 127}, "group": "control_change"}, {"time": 694, "annotation": {"number": 64, "value": 0}, "group": "control_change"}, {"time": 696, "annotation": {"number": 64, "value": 127}, "group": "control_change"}, {"time": 718, "annotation": {"number": 64, "value": 0}, "group": "control_change"}, {"time": 721, "annotation": {"number": 64, "value": 127}, "group": "control_change"}, {"time": 732, "annotation": {"number": 64, "value": 0}, "group": "control_change"}, {"time": 735, "annotation": {"number": 64, "value": 127}, "group": "control_change"}, {"time": 744, "annotation": {"number": 64, "value": 0}, "group": "control_change"}, {"time": 745, "annotation": {"number": 64, "value": 127}, "group": "control_change"}, {"time": 767, "annotation": {"number": 64, "value": 0}, "group": "control_change"}, {"time": 781, "annotation": {"number": 64, "value": 127}, "group": "control_change"}, {"time": 790, "annotation": {"number": 64, "value": 0}, "group": "control_change"}, {"time": 797, "annotation": {"number": 64, "value": 127}, "group": "control_change"}, {"time": 814, "annotation": {"number": 64, "value": 0}, "group": "control_change"}, {"time": 817, "annotation": {"number": 64, "value": 127}, "group": "control_change"}, {"time": 839, "annotation": {"number": 64, "value": 0}, "group": "control_change"}, {"time": 841, "annotation": {"number": 64, "value": 127}, "group": "control_change"}, {"time": 852, "annotation": {"number": 64, "value": 0}, "group": "control_change"}, {"time": 854, "annotation": {"number": 64, "value": 127}, "group": "control_change"}, {"time": 864, "annotation": {"number": 64, "value": 0}, "group": "control_change"}, {"time": 869, "annotation": {"number": 64, "value": 127}, "group": "control_change"}, {"time": 887, "annotation": {"number": 64, "value": 0}, "group": "control_change"}, {"time": 889, "annotation": {"number": 64, "value": 127}, "group": "control_change"}, {"time": 910, "annotation": {"number": 64, "value": 0}, "group": "control_change"}, {"time": 915, "annotation": {"number": 64, "value": 127}, "group": "control_change"}, {"time": 934, "annotation": {"number": 64, "value": 0}, "group": "control_change"}, {"time": 938, "annotation": {"number": 64, "value": 127}, "group": "control_change"}, {"time": 959, "annotation": {"number": 64, "value": 0}, "group": "control_change"}, {"time": 962, "annotation": {"number": 64, "value": 127}, "group": "control_change"}, {"time": 983, "annotation": {"number": 64, "value": 0}, "group": "control_change"}, {"time": 985, "annotation": {"number": 64, "value": 127}, "group": "control_change"}, {"time": 1007, "annotation": {"number": 64, "value": 0}, "group": "control_change"}, {"time": 1011, "annotation": {"number": 64, "value": 127}, "group": "control_change"}, {"time": 1031, "annotation": {"number": 64, "value": 0}, "group": "control_change"}, {"time": 1035, "annotation": {"number": 64, "value": 127}, "group": "control_change"}, {"time": 1055, "annotation": {"number": 64, "value": 0}, "group": "control_change"}, {"time": 1059, "annotation": {"number": 64, "value": 127}, "group": "control_change"}, {"time": 1078, "annotation": {"number": 64, "value": 0}, "group": "control_change"}, {"time": 1083, "annotation": {"number": 64, "value": 127}, "group": "control_change"}, {"time": 1103, "annotation": {"number": 64, "value": 0}, "group": "control_change"}, {"time": 1108, "annotation": {"number": 64, "value": 127}, "group": "control_change"}, {"time": 1127, "annotation": {"number": 64, "value": 0}, "group": "control_change"}, {"time": 1130, "annotation": {"number": 64, "value": 127}, "group": "control_change"}, {"time": 1152, "annotation": {"number": 64, "value": 0}, "group": "control_change"}, {"time": 1164, "annotation": {"number": 64, "value": 127}, "group": "control_change"}, {"time": 1176, "annotation": {"number": 64, "value": 0}, "group": "control_change"}, {"time": 1180, "annotation": {"number": 64, "value": 127}, "group": "control_change"}, {"time": 1223, "annotation": {"number": 64, "value": 0}, "group": "control_change"}, {"time": 1274, "annotation": {"number": 64, "value": 127}, "group": "control_change"}, {"time": 1296, "annotation": {"number": 64, "value": 0}, "group": "control_change"}, {"time": 1301, "annotation": {"number": 64, "value": 127}, "group": "control_change"}, {"time": 1320, "annotation": {"number": 64, "value": 0}, "group": "control_change"}, {"time": 1321, "annotation": {"number": 64, "value": 127}, "group": "control_change"}, {"time": 1344, "annotation": {"number": 64, "value": 0}, "group": "control_change"}, {"time": 1351, "annotation": {"number": 64, "value": 127}, "group": "control_change"}, {"time": 1368, "annotation": {"number": 64, "value": 0}, "group": "control_change"}, {"time": 1374, "annotation": {"number": 64, "value": 127}, "group": "control_change"}, {"time": 1392, "annotation": {"number": 64, "value": 0}, "group": "control_change"}, {"time": 1397, "annotation": {"number": 64, "value": 127}, "group": "control_change"}, {"time": 1416, "annotation": {"number": 64, "value": 0}, "group": "control_change"}, {"time": 1422, "annotation": {"number": 64, "value": 127}, "group": "control_change"}, {"time": 1439, "annotation": {"number": 64, "value": 0}, "group": "control_change"}, {"time": 1443, "annotation": {"number": 64, "value": 127}, "group": "control_change"}, {"time": 1464, "annotation": {"number": 64, "value": 0}, "group": "control_change"}, {"time": 1465, "annotation": {"number": 64, "value": 127}, "group": "control_change"}, {"time": 1488, "annotation": {"number": 64, "value": 0}, "group": "control_change"}, {"time": 1491, "annotation": {"number": 64, "value": 127}, "group": "control_change"}, {"time": 1511, "annotation": {"number": 64, "value": 0}, "group": "control_change"}, {"time": 1513, "annotation": {"number": 64, "value": 127}, "group": "control_change"}, {"time": 1536, "annotation": {"number": 64, "value": 0}, "group": "control_change"}, {"time": 1540, "annotation": {"number": 64, "value": 127}, "group": "control_change"}, {"time": 1560, "annotation": {"number": 64, "value": 0}, "group": "control_change"}, {"time": 1561, "annotation": {"number": 64, "value": 127}, "group": "control_change"}, {"time": 1584, "annotation": {"number": 64, "value": 0}, "group": "control_change"}, {"time": 1588, "annotation": {"number": 64, "value": 127}, "group": "control_change"}, {"time": 1608, "annotation": {"number": 64, "value": 0}, "group": "control_change"}, {"time": 1611, "annotation": {"number": 64, "value": 127}, "group": "control_change"}, {"time": 1655, "annotation": {"number": 64, "value": 0}, "group": "control_change"}, {"time": 1657, "annotation": {"number": 64, "value": 127}, "group": "control_change"}, {"time": 1705, "annotation": {"number": 64, "value": 0}, "group": "control_change"}, {"time": 1710, "annotation": {"number": 64, "value": 127}, "group": "control_change"}, {"time": 1728, "annotation": {"number": 64, "value": 0}, "group": "control_change"}, {"time": 1733, "annotation": {"number": 64, "value": 127}, "group": "control_change"}, {"time": 1753, "annotation": {"number": 64, "value": 0}, "group": "control_change"}, {"time": 1757, "annotation": {"number": 64, "value": 127}, "group": "control_change"}, {"time": 1778, "annotation": {"number": 64, "value": 127}, "group": "control_change"}, {"time": 1788, "annotation": {"number": 64, "value": 0}, "group": "control_change"}, {"time": 1801, "annotation": {"number": 64, "value": 127}, "group": "control_change"}, {"time": 1812, "annotation": {"number": 64, "value": 0}, "group": "control_change"}, {"time": 1816, "annotation": {"number": 64, "value": 127}, "group": "control_change"}, {"time": 1825, "annotation": {"number": 64, "value": 0}, "group": "control_change"}, {"time": 1830, "annotation": {"number": 64, "value": 127}, "group": "control_change"}, {"time": 1848, "annotation": {"number": 64, "value": 0}, "group": "control_change"}, {"time": 1848, "annotation": {"number": 64, "value": 127}, "group": "control_change"}, {"time": 1872, "annotation": {"number": 64, "value": 127}, "group": "control_change"}, {"time": 1896, "annotation": {"number": 64, "value": 0}, "group": "control_change"}, {"time": 1897, "annotation": {"number": 64, "value": 127}, "group": "control_change"}, {"time": 1919, "annotation": {"number": 64, "value": 0}, "group": "control_change"}, {"time": 1924, "annotation": {"number": 64, "value": 127}, "group": "control_change"}, {"time": 1942, "annotation": {"number": 64, "value": 0}, "group": "control_change"}, {"time": 1944, "annotation": {"number": 64, "value": 127}, "group": "control_change"}, {"time": 1966, "annotation": {"number": 64, "value": 0}, "group": "control_change"}, {"time": 1969, "annotation": {"number": 64, "value": 127}, "group": "control_change"}, {"time": 1980, "annotation": {"number": 64, "value": 0}, "group": "control_change"}, {"time": 1983, "annotation": {"number": 64, "value": 127}, "group": "control_change"}, {"time": 1992, "annotation": {"number": 64, "value": 0}, "group": "control_change"}, {"time": 1993, "annotation": {"number": 64, "value": 127}, "group": "control_change"}, {"time": 2015, "annotation": {"number": 64, "value": 0}, "group": "control_change"}, {"time": 2029, "annotation": {"number": 64, "value": 127}, "group": "control_change"}, {"time": 2038, "annotation": {"number": 64, "value": 0}, "group": "control_change"}, {"time": 2045, "annotation": {"number": 64, "value": 127}, "group": "control_change"}, {"time": 2062, "annotation": {"number": 64, "value": 0}, "group": "control_change"}, {"time": 2065, "annotation": {"number": 64, "value": 127}, "group": "control_change"}, {"time": 2087, "annotation": {"number": 64, "value": 0}, "group": "control_change"}, {"time": 2089, "annotation": {"number": 64, "value": 127}, "group": "control_change"}, {"time": 2100, "annotation": {"number": 64, "value": 0}, "group": "control_change"}, {"time": 2102, "annotation": {"number": 64, "value": 127}, "group": "control_change"}, {"time": 2112, "annotation": {"number": 64, "value": 0}, "group": "control_change"}, {"time": 2117, "annotation": {"number": 64, "value": 127}, "group": "control_change"}, {"time": 2135, "annotation": {"number": 64, "value": 0}, "group": "control_change"}, {"time": 2137, "annotation": {"number": 64, "value": 127}, "group": "control_change"}, {"time": 2158, "annotation": {"number": 64, "value": 0}, "group": "control_change"}, {"time": 2163, "annotation": {"number": 64, "value": 127}, "group": "control_change"}, {"time": 2182, "annotation": {"number": 64, "value": 0}, "group": "control_change"}, {"time": 2186, "annotation": {"number": 64, "value": 127}, "group": "control_change"}, {"time": 2207, "annotation": {"number": 64, "value": 0}, "group": "control_change"}, {"time": 2210, "annotation": {"number": 64, "value": 127}, "group": "control_change"}, {"time": 2231, "annotation": {"number": 64, "value": 0}, "group": "control_change"}, {"time": 2233, "annotation": {"number": 64, "value": 127}, "group": "control_change"}, {"time": 2255, "annotation": {"number": 64, "value": 0}, "group": "control_change"}, {"time": 2259, "annotation": {"number": 64, "value": 127}, "group": "control_change"}, {"time": 2279, "annotation": {"number": 64, "value": 0}, "group": "control_change"}, {"time": 2283, "annotation": {"number": 64, "value": 127}, "group": "control_change"}, {"time": 2303, "annotation": {"number": 64, "value": 0}, "group": "control_change"}, {"time": 2307, "annotation": {"number": 64, "value": 127}, "group": "control_change"}, {"time": 2326, "annotation": {"number": 64, "value": 0}, "group": "control_change"}, {"time": 2331, "annotation": {"number": 64, "value": 127}, "group": "control_change"}, {"time": 2351, "annotation": {"number": 64, "value": 0}, "group": "control_change"}, {"time": 2356, "annotation": {"number": 64, "value": 127}, "group": "control_change"}, {"time": 2375, "annotation": {"number": 64, "value": 0}, "group": "control_change"}, {"time": 2378, "annotation": {"number": 64, "value": 127}, "group": "control_change"}, {"time": 2400, "annotation": {"number": 64, "value": 0}, "group": "control_change"}, {"time": 2412, "annotation": {"number": 64, "value": 127}, "group": "control_change"}, {"time": 2424, "annotation": {"number": 64, "value": 0}, "group": "control_change"}, {"time": 2424, "annotation": {"number": 64, "value": 127}, "group": "control_change"}, {"time": 2443, "annotation": {"number": 64, "value": 0}, "group": "control_change"}, {"time": 2446, "annotation": {"number": 64, "value": 127}, "group": "control_change"}, {"time": 2470, "annotation": {"number": 64, "value": 0}, "group": "control_change"}, {"time": 2474, "annotation": {"number": 64, "value": 127}, "group": "control_change"}, {"time": 2490, "annotation": {"number": 64, "value": 0}, "group": "control_change"}, {"time": 2498, "annotation": {"number": 64, "value": 127}, "group": "control_change"}, {"time": 2517, "annotation": {"number": 64, "value": 0}, "group": "control_change"}, {"time": 2525, "annotation": {"number": 64, "value": 127}, "group": "control_change"}, {"time": 2542, "annotation": {"number": 64, "value": 0}, "group": "control_change"}, {"time": 2545, "annotation": {"number": 64, "value": 127}, "group": "control_change"}, {"time": 2567, "annotation": {"number": 64, "value": 0}, "group": "control_change"}, {"time": 2569, "annotation": {"number": 64, "value": 127}, "group": "control_change"}, {"time": 2580, "annotation": {"number": 64, "value": 0}, "group": "control_change"}, {"time": 2582, "annotation": {"number": 64, "value": 127}, "group": "control_change"}, {"time": 2592, "annotation": {"number": 64, "value": 0}, "group": "control_change"}, {"time": 2597, "annotation": {"number": 64, "value": 127}, "group": "control_change"}, {"time": 2615, "annotation": {"number": 64, "value": 0}, "group": "control_change"}, {"time": 2617, "annotation": {"number": 64, "value": 127}, "group": "control_change"}, {"time": 2638, "annotation": {"number": 64, "value": 0}, "group": "control_change"}, {"time": 2643, "annotation": {"number": 64, "value": 127}, "group": "control_change"}, {"time": 2662, "annotation": {"number": 64, "value": 0}, "group": "control_change"}, {"time": 2666, "annotation": {"number": 64, "value": 127}, "group": "control_change"}, {"time": 2687, "annotation": {"number": 64, "value": 0}, "group": "control_change"}, {"time": 2690, "annotation": {"number": 64, "value": 127}, "group": "control_change"}, {"time": 2711, "annotation": {"number": 64, "value": 0}, "group": "control_change"}, {"time": 2713, "annotation": {"number": 64, "value": 127}, "group": "control_change"}, {"time": 2735, "annotation": {"number": 64, "value": 0}, "group": "control_change"}, {"time": 2739, "annotation": {"number": 64, "value": 127}, "group": "control_change"}, {"time": 2759, "annotation": {"number": 64, "value": 0}, "group": "control_change"}, {"time": 2763, "annotation": {"number": 64, "value": 127}, "group": "control_change"}, {"time": 2783, "annotation": {"number": 64, "value": 0}, "group": "control_change"}, {"time": 2787, "annotation": {"number": 64, "value": 127}, "group": "control_change"}, {"time": 2806, "annotation": {"number": 64, "value": 0}, "group": "control_change"}, {"time": 2811, "annotation": {"number": 64, "value": 127}, "group": "control_change"}, {"time": 2831, "annotation": {"number": 64, "value": 0}, "group": "control_change"}, {"time": 2836, "annotation": {"number": 64, "value": 127}, "group": "control_change"}, {"time": 2855, "annotation": {"number": 64, "value": 0}, "group": "control_change"}, {"time": 2858, "annotation": {"number": 64, "value": 127}, "group": "control_change"}, {"time": 2880, "annotation": {"number": 64, "value": 0}, "group": "control_change"}, {"time": 2892, "annotation": {"number": 64, "value": 127}, "group": "control_change"}, {"time": 2904, "annotation": {"number": 64, "value": 0}, "group": "control_change"}, {"time": 2906, "annotation": {"number": 64, "value": 127}, "group": "control_change"}, {"time": 2923, "annotation": {"number": 64, "value": 0}, "group": "control_change"}, {"time": 2929, "annotation": {"number": 64, "value": 127}, "group": "control_change"}, {"time": 2951, "annotation": {"number": 64, "value": 0}, "group": "control_change"}, {"time": 2955, "annotation": {"number": 64, "value": 127}, "group": "control_change"}, {"time": 2957, "annotation": {"number": 64, "value": 0}, "group": "control_change"}, {"time": 2957, "annotation": {"number": 64, "value": 127}, "group": "control_change"}, {"time": 2976, "annotation": {"number": 64, "value": 0}, "group": "control_change"}, {"time": 2981, "annotation": {"number": 64, "value": 127}, "group": "control_change"}, {"time": 3000, "annotation": {"number": 64, "value": 0}, "group": "control_change"}, {"time": 3003, "annotation": {"number": 64, "value": 127}, "group": "control_change"}, {"time": 3023, "annotation": {"number": 64, "value": 0}, "group": "control_change"}, {"time": 3025, "annotation": {"number": 64, "value": 127}, "group": "control_change"}, {"time": 3047, "annotation": {"number": 64, "value": 0}, "group": "control_change"}, {"time": 3050, "annotation": {"number": 64, "value": 127}, "group": "control_change"}, {"time": 3098, "annotation": {"number": 64, "value": 0}, "group": "control_change"}]}]}