{"metadata": {"schema_version": "0.2", "title": "None", "source_filename": "043.mid", "source_format": "midi"}, "resolution": 12, "tempos": [{"time": 0, "qpm": 107.8899953607302}], "time_signatures": [{"time": 0, "numerator": 4, "denominator": 4}, {"time": 62, "numerator": 2, "denominator": 4}], "tracks": [{"program": 0, "is_drum": false, "name": "MELODY", "notes": [{"time": 1004, "pitch": 70, "duration": 7, "velocity": 88}, {"time": 1010, "pitch": 69, "duration": 6, "velocity": 88}, {"time": 1016, "pitch": 69, "duration": 6, "velocity": 88}, {"time": 1022, "pitch": 69, "duration": 6, "velocity": 88}, {"time": 1028, "pitch": 69, "duration": 6, "velocity": 88}, {"time": 1034, "pitch": 69, "duration": 6, "velocity": 88}, {"time": 1040, "pitch": 67, "duration": 7, "velocity": 88}, {"time": 1046, "pitch": 69, "duration": 12, "velocity": 88}, {"time": 1058, "pitch": 70, "duration": 6, "velocity": 88}, {"time": 1064, "pitch": 69, "duration": 12, "velocity": 88}, {"time": 1076, "pitch": 67, "duration": 12, "velocity": 88}, {"time": 1088, "pitch": 67, "duration": 12, "velocity": 88}, {"time": 1100, "pitch": 65, "duration": 6, "velocity": 88}, {"time": 1106, "pitch": 65, "duration": 6, "velocity": 88}, {"time": 1112, "pitch": 65, "duration": 6, "velocity": 88}, {"time": 1118, "pitch": 65, "duration": 6, "velocity": 91}, {"time": 1124, "pitch": 65, "duration": 6, "velocity": 91}, {"time": 1130, "pitch": 65, "duration": 6, "velocity": 92}, {"time": 1136, "pitch": 63, "duration": 6, "velocity": 92}, {"time": 1142, "pitch": 65, "duration": 12, "velocity": 92}, {"time": 1154, "pitch": 67, "duration": 6, "velocity": 92}, {"time": 1160, "pitch": 65, "duration": 12, "velocity": 92}, {"time": 1172, "pitch": 63, "duration": 12, "velocity": 92}, {"time": 1184, "pitch": 63, "duration": 13, "velocity": 92}, {"time": 1196, "pitch": 62, "duration": 6, "velocity": 92}, {"time": 1202, "pitch": 62, "duration": 6, "velocity": 92}, {"time": 1208, "pitch": 60, "duration": 6, "velocity": 92}, {"time": 1214, "pitch": 60, "duration": 18, "velocity": 92}, {"time": 1232, "pitch": 70, "duration": 12, "velocity": 92}, {"time": 1244, "pitch": 69, "duration": 12, "velocity": 92}, {"time": 1256, "pitch": 70, "duration": 12, "velocity": 92}, {"time": 1268, "pitch": 69, "duration": 12, "velocity": 92}, {"time": 1280, "pitch": 67, "duration": 108, "velocity": 92}, {"time": 1388, "pitch": 69, "duration": 6, "velocity": 92}, {"time": 1394, "pitch": 69, "duration": 6, "velocity": 92}, {"time": 1400, "pitch": 69, "duration": 6, "velocity": 92}, {"time": 1406, "pitch": 69, "duration": 6, "velocity": 92}, {"time": 1412, "pitch": 69, "duration": 6, "velocity": 92}, {"time": 1418, "pitch": 69, "duration": 7, "velocity": 92}, {"time": 1424, "pitch": 67, "duration": 7, "velocity": 92}, {"time": 1430, "pitch": 69, "duration": 13, "velocity": 92}, {"time": 1442, "pitch": 70, "duration": 6, "velocity": 92}, {"time": 1448, "pitch": 69, "duration": 12, "velocity": 93}, {"time": 1460, "pitch": 67, "duration": 12, "velocity": 93}, {"time": 1472, "pitch": 67, "duration": 12, "velocity": 93}, {"time": 1484, "pitch": 65, "duration": 6, "velocity": 93}, {"time": 1490, "pitch": 65, "duration": 6, "velocity": 94}, {"time": 1496, "pitch": 65, "duration": 6, "velocity": 94}, {"time": 1502, "pitch": 65, "duration": 6, "velocity": 94}, {"time": 1508, "pitch": 65, "duration": 6, "velocity": 94}, {"time": 1514, "pitch": 65, "duration": 6, "velocity": 94}, {"time": 1520, "pitch": 63, "duration": 6, "velocity": 94}, {"time": 1526, "pitch": 65, "duration": 13, "velocity": 94}, {"time": 1538, "pitch": 67, "duration": 6, "velocity": 94}, {"time": 1544, "pitch": 65, "duration": 13, "velocity": 95}, {"time": 1556, "pitch": 63, "duration": 12, "velocity": 95}, {"time": 1568, "pitch": 63, "duration": 12, "velocity": 95}, {"time": 1580, "pitch": 62, "duration": 6, "velocity": 95}, {"time": 1586, "pitch": 62, "duration": 6, "velocity": 95}, {"time": 1592, "pitch": 60, "duration": 6, "velocity": 95}, {"time": 1598, "pitch": 60, "duration": 18, "velocity": 95}, {"time": 1616, "pitch": 70, "duration": 12, "velocity": 96}, {"time": 1628, "pitch": 69, "duration": 12, "velocity": 95}, {"time": 1640, "pitch": 70, "duration": 13, "velocity": 98}, {"time": 1652, "pitch": 69, "duration": 12, "velocity": 90}, {"time": 1664, "pitch": 67, "duration": 90, "velocity": 93}, {"time": 1754, "pitch": 67, "duration": 6, "velocity": 65}, {"time": 1760, "pitch": 70, "duration": 6, "velocity": 74}, {"time": 1766, "pitch": 74, "duration": 24, "velocity": 85}, {"time": 1790, "pitch": 72, "duration": 24, "velocity": 87}, {"time": 1814, "pitch": 67, "duration": 18, "velocity": 80}, {"time": 1832, "pitch": 70, "duration": 6, "velocity": 105}, {"time": 1838, "pitch": 70, "duration": 24, "velocity": 95}, {"time": 1862, "pitch": 74, "duration": 24, "velocity": 105}, {"time": 1886, "pitch": 72, "duration": 24, "velocity": 101}, {"time": 1910, "pitch": 67, "duration": 19, "velocity": 90}, {"time": 1928, "pitch": 74, "duration": 6, "velocity": 97}, {"time": 1934, "pitch": 74, "duration": 18, "velocity": 100}, {"time": 1952, "pitch": 74, "duration": 6, "velocity": 93}, {"time": 1958, "pitch": 74, "duration": 6, "velocity": 89}, {"time": 1964, "pitch": 72, "duration": 6, "velocity": 72}, {"time": 1970, "pitch": 72, "duration": 7, "velocity": 68}, {"time": 1976, "pitch": 70, "duration": 6, "velocity": 56}, {"time": 1982, "pitch": 70, "duration": 18, "velocity": 63}, {"time": 2000, "pitch": 72, "duration": 6, "velocity": 90}, {"time": 2006, "pitch": 72, "duration": 6, "velocity": 84}, {"time": 2012, "pitch": 70, "duration": 6, "velocity": 73}, {"time": 2018, "pitch": 70, "duration": 6, "velocity": 66}, {"time": 2024, "pitch": 69, "duration": 6, "velocity": 62}, {"time": 2030, "pitch": 69, "duration": 12, "velocity": 66}, {"time": 2042, "pitch": 67, "duration": 6, "velocity": 71}, {"time": 2048, "pitch": 69, "duration": 78, "velocity": 90}, {"time": 2126, "pitch": 67, "duration": 9, "velocity": 90}, {"time": 2135, "pitch": 70, "duration": 9, "velocity": 84}, {"time": 2144, "pitch": 74, "duration": 6, "velocity": 85}, {"time": 2150, "pitch": 79, "duration": 36, "velocity": 87}, {"time": 2186, "pitch": 81, "duration": 6, "velocity": 93}, {"time": 2192, "pitch": 81, "duration": 30, "velocity": 94}, {"time": 2222, "pitch": 77, "duration": 9, "velocity": 103}, {"time": 2231, "pitch": 72, "duration": 9, "velocity": 91}, {"time": 2240, "pitch": 69, "duration": 6, "velocity": 84}, {"time": 2246, "pitch": 72, "duration": 30, "velocity": 98}, {"time": 2276, "pitch": 77, "duration": 12, "velocity": 97}, {"time": 2288, "pitch": 74, "duration": 30, "velocity": 100}, {"time": 2318, "pitch": 67, "duration": 10, "velocity": 79}, {"time": 2327, "pitch": 70, "duration": 9, "velocity": 87}, {"time": 2336, "pitch": 74, "duration": 7, "velocity": 79}, {"time": 2342, "pitch": 79, "duration": 30, "velocity": 73}, {"time": 2372, "pitch": 74, "duration": 12, "velocity": 87}, {"time": 2384, "pitch": 70, "duration": 8, "velocity": 63}, {"time": 2390, "pitch": 72, "duration": 24, "velocity": 85}, {"time": 2414, "pitch": 72, "duration": 9, "velocity": 101}, {"time": 2420, "pitch": 77, "duration": 12, "velocity": 89}, {"time": 2432, "pitch": 72, "duration": 6, "velocity": 85}, {"time": 2438, "pitch": 72, "duration": 12, "velocity": 93}, {"time": 2450, "pitch": 74, "duration": 6, "velocity": 99}, {"time": 2456, "pitch": 74, "duration": 54, "velocity": 97}, {"time": 2510, "pitch": 67, "duration": 10, "velocity": 91}, {"time": 2519, "pitch": 70, "duration": 9, "velocity": 95}, {"time": 2528, "pitch": 74, "duration": 6, "velocity": 96}, {"time": 2534, "pitch": 79, "duration": 30, "velocity": 90}, {"time": 2564, "pitch": 81, "duration": 12, "velocity": 103}, {"time": 2576, "pitch": 81, "duration": 5, "velocity": 96}, {"time": 2579, "pitch": 82, "duration": 3, "velocity": 90}, {"time": 2582, "pitch": 81, "duration": 24, "velocity": 66}, {"time": 2606, "pitch": 77, "duration": 9, "velocity": 93}, {"time": 2615, "pitch": 72, "duration": 6, "velocity": 84}, {"time": 2621, "pitch": 69, "duration": 9, "velocity": 66}, {"time": 2630, "pitch": 72, "duration": 30, "velocity": 90}, {"time": 2660, "pitch": 77, "duration": 12, "velocity": 87}, {"time": 2672, "pitch": 74, "duration": 9, "velocity": 91}, {"time": 2681, "pitch": 72, "duration": 3, "velocity": 80}, {"time": 2684, "pitch": 70, "duration": 18, "velocity": 66}, {"time": 2702, "pitch": 67, "duration": 9, "velocity": 74}, {"time": 2711, "pitch": 70, "duration": 6, "velocity": 91}, {"time": 2717, "pitch": 74, "duration": 9, "velocity": 93}, {"time": 2726, "pitch": 79, "duration": 30, "velocity": 94}, {"time": 2756, "pitch": 74, "duration": 18, "velocity": 103}, {"time": 2774, "pitch": 72, "duration": 24, "velocity": 98}, {"time": 2798, "pitch": 72, "duration": 9, "velocity": 108}, {"time": 2807, "pitch": 77, "duration": 9, "velocity": 94}, {"time": 2816, "pitch": 72, "duration": 6, "velocity": 97}, {"time": 2822, "pitch": 72, "duration": 12, "velocity": 105}, {"time": 2834, "pitch": 74, "duration": 6, "velocity": 97}, {"time": 2840, "pitch": 74, "duration": 72, "velocity": 99}, {"time": 2912, "pitch": 74, "duration": 6, "velocity": 91}, {"time": 2918, "pitch": 72, "duration": 6, "velocity": 90}, {"time": 2924, "pitch": 70, "duration": 36, "velocity": 95}, {"time": 2960, "pitch": 74, "duration": 6, "velocity": 96}, {"time": 2966, "pitch": 72, "duration": 6, "velocity": 84}, {"time": 2972, "pitch": 70, "duration": 18, "velocity": 85}, {"time": 2990, "pitch": 74, "duration": 6, "velocity": 87}, {"time": 2996, "pitch": 69, "duration": 18, "velocity": 93}, {"time": 3014, "pitch": 69, "duration": 6, "velocity": 98}, {"time": 3020, "pitch": 67, "duration": 84, "velocity": 93}, {"time": 3104, "pitch": 74, "duration": 6, "velocity": 91}, {"time": 3110, "pitch": 72, "duration": 7, "velocity": 84}, {"time": 3116, "pitch": 70, "duration": 36, "velocity": 94}, {"time": 3152, "pitch": 74, "duration": 6, "velocity": 99}, {"time": 3158, "pitch": 72, "duration": 6, "velocity": 94}, {"time": 3164, "pitch": 70, "duration": 18, "velocity": 92}, {"time": 3182, "pitch": 74, "duration": 6, "velocity": 97}, {"time": 3188, "pitch": 69, "duration": 18, "velocity": 96}, {"time": 3206, "pitch": 69, "duration": 18, "velocity": 95}, {"time": 3224, "pitch": 67, "duration": 78, "velocity": 94}, {"time": 3884, "pitch": 70, "duration": 7, "velocity": 86}, {"time": 3890, "pitch": 69, "duration": 6, "velocity": 86}, {"time": 3896, "pitch": 69, "duration": 6, "velocity": 87}, {"time": 3902, "pitch": 69, "duration": 6, "velocity": 89}, {"time": 3908, "pitch": 69, "duration": 12, "velocity": 90}, {"time": 3920, "pitch": 67, "duration": 12, "velocity": 92}, {"time": 3932, "pitch": 70, "duration": 6, "velocity": 93}, {"time": 3938, "pitch": 69, "duration": 9, "velocity": 94}, {"time": 3947, "pitch": 69, "duration": 9, "velocity": 96}, {"time": 3956, "pitch": 67, "duration": 12, "velocity": 96}, {"time": 3968, "pitch": 67, "duration": 12, "velocity": 97}, {"time": 3980, "pitch": 65, "duration": 6, "velocity": 99}, {"time": 3986, "pitch": 65, "duration": 6, "velocity": 99}, {"time": 3992, "pitch": 65, "duration": 6, "velocity": 100}, {"time": 3998, "pitch": 65, "duration": 6, "velocity": 100}, {"time": 4004, "pitch": 65, "duration": 6, "velocity": 100}, {"time": 4010, "pitch": 65, "duration": 6, "velocity": 100}, {"time": 4016, "pitch": 63, "duration": 6, "velocity": 100}, {"time": 4022, "pitch": 65, "duration": 12, "velocity": 100}, {"time": 4034, "pitch": 67, "duration": 6, "velocity": 100}, {"time": 4040, "pitch": 65, "duration": 12, "velocity": 100}, {"time": 4052, "pitch": 63, "duration": 15, "velocity": 101}, {"time": 4067, "pitch": 63, "duration": 9, "velocity": 102}, {"time": 4076, "pitch": 62, "duration": 6, "velocity": 103}, {"time": 4082, "pitch": 62, "duration": 6, "velocity": 104}, {"time": 4088, "pitch": 60, "duration": 6, "velocity": 104}, {"time": 4094, "pitch": 60, "duration": 18, "velocity": 102}, {"time": 4112, "pitch": 70, "duration": 12, "velocity": 102}, {"time": 4124, "pitch": 69, "duration": 12, "velocity": 100}, {"time": 4136, "pitch": 70, "duration": 12, "velocity": 97}, {"time": 4148, "pitch": 69, "duration": 12, "velocity": 99}, {"time": 4160, "pitch": 67, "duration": 108, "velocity": 77}, {"time": 4268, "pitch": 69, "duration": 6, "velocity": 99}, {"time": 4274, "pitch": 69, "duration": 6, "velocity": 99}, {"time": 4280, "pitch": 69, "duration": 6, "velocity": 100}, {"time": 4286, "pitch": 69, "duration": 6, "velocity": 101}, {"time": 4292, "pitch": 69, "duration": 6, "velocity": 101}, {"time": 4298, "pitch": 69, "duration": 7, "velocity": 102}, {"time": 4304, "pitch": 67, "duration": 7, "velocity": 102}, {"time": 4310, "pitch": 69, "duration": 13, "velocity": 102}, {"time": 4322, "pitch": 74, "duration": 6, "velocity": 103}, {"time": 4328, "pitch": 69, "duration": 12, "velocity": 104}, {"time": 4340, "pitch": 67, "duration": 12, "velocity": 104}, {"time": 4352, "pitch": 67, "duration": 12, "velocity": 104}, {"time": 4364, "pitch": 65, "duration": 6, "velocity": 104}, {"time": 4370, "pitch": 65, "duration": 6, "velocity": 105}, {"time": 4376, "pitch": 65, "duration": 6, "velocity": 105}, {"time": 4382, "pitch": 65, "duration": 6, "velocity": 105}, {"time": 4388, "pitch": 65, "duration": 6, "velocity": 105}, {"time": 4394, "pitch": 65, "duration": 6, "velocity": 106}, {"time": 4400, "pitch": 63, "duration": 6, "velocity": 95}, {"time": 4406, "pitch": 65, "duration": 13, "velocity": 95}, {"time": 4418, "pitch": 67, "duration": 6, "velocity": 95}, {"time": 4424, "pitch": 65, "duration": 13, "velocity": 95}, {"time": 4436, "pitch": 63, "duration": 12, "velocity": 95}, {"time": 4448, "pitch": 63, "duration": 12, "velocity": 95}, {"time": 4460, "pitch": 62, "duration": 6, "velocity": 96}, {"time": 4466, "pitch": 62, "duration": 9, "velocity": 96}, {"time": 4472, "pitch": 60, "duration": 6, "velocity": 96}, {"time": 4478, "pitch": 60, "duration": 18, "velocity": 96}, {"time": 4496, "pitch": 70, "duration": 12, "velocity": 96}, {"time": 4508, "pitch": 69, "duration": 12, "velocity": 96}, {"time": 4520, "pitch": 70, "duration": 13, "velocity": 96}, {"time": 4532, "pitch": 69, "duration": 12, "velocity": 96}, {"time": 4544, "pitch": 67, "duration": 84, "velocity": 98}, {"time": 4628, "pitch": 67, "duration": 6, "velocity": 99}, {"time": 4634, "pitch": 70, "duration": 12, "velocity": 99}, {"time": 4646, "pitch": 74, "duration": 24, "velocity": 99}, {"time": 4670, "pitch": 72, "duration": 24, "velocity": 99}, {"time": 4694, "pitch": 67, "duration": 18, "velocity": 98}, {"time": 4712, "pitch": 70, "duration": 6, "velocity": 99}, {"time": 4718, "pitch": 70, "duration": 24, "velocity": 102}, {"time": 4742, "pitch": 74, "duration": 24, "velocity": 109}, {"time": 4766, "pitch": 72, "duration": 24, "velocity": 111}, {"time": 4790, "pitch": 67, "duration": 18, "velocity": 111}, {"time": 4808, "pitch": 74, "duration": 6, "velocity": 111}, {"time": 4814, "pitch": 74, "duration": 18, "velocity": 111}, {"time": 4832, "pitch": 74, "duration": 6, "velocity": 111}, {"time": 4838, "pitch": 74, "duration": 6, "velocity": 111}, {"time": 4844, "pitch": 72, "duration": 6, "velocity": 111}, {"time": 4850, "pitch": 72, "duration": 6, "velocity": 111}, {"time": 4856, "pitch": 70, "duration": 6, "velocity": 111}, {"time": 4862, "pitch": 70, "duration": 18, "velocity": 111}, {"time": 4880, "pitch": 72, "duration": 6, "velocity": 90}, {"time": 4886, "pitch": 72, "duration": 6, "velocity": 84}, {"time": 4892, "pitch": 70, "duration": 6, "velocity": 73}, {"time": 4898, "pitch": 70, "duration": 6, "velocity": 66}, {"time": 4904, "pitch": 69, "duration": 6, "velocity": 62}, {"time": 4910, "pitch": 69, "duration": 6, "velocity": 66}, {"time": 4916, "pitch": 67, "duration": 6, "velocity": 71}, {"time": 4922, "pitch": 70, "duration": 6, "velocity": 90}, {"time": 4928, "pitch": 69, "duration": 9, "velocity": 90}, {"time": 4937, "pitch": 70, "duration": 3, "velocity": 90}, {"time": 4940, "pitch": 69, "duration": 66, "velocity": 90}, {"time": 5006, "pitch": 67, "duration": 9, "velocity": 90}, {"time": 5012, "pitch": 70, "duration": 12, "velocity": 84}, {"time": 5024, "pitch": 74, "duration": 6, "velocity": 85}, {"time": 5030, "pitch": 79, "duration": 36, "velocity": 87}, {"time": 5066, "pitch": 81, "duration": 6, "velocity": 93}, {"time": 5072, "pitch": 81, "duration": 30, "velocity": 94}, {"time": 5102, "pitch": 77, "duration": 6, "velocity": 103}, {"time": 5108, "pitch": 72, "duration": 9, "velocity": 91}, {"time": 5117, "pitch": 69, "duration": 9, "velocity": 84}, {"time": 5126, "pitch": 72, "duration": 30, "velocity": 98}, {"time": 5156, "pitch": 77, "duration": 12, "velocity": 97}, {"time": 5168, "pitch": 74, "duration": 30, "velocity": 100}, {"time": 5198, "pitch": 67, "duration": 9, "velocity": 79}, {"time": 5207, "pitch": 70, "duration": 9, "velocity": 87}, {"time": 5216, "pitch": 74, "duration": 6, "velocity": 79}, {"time": 5222, "pitch": 79, "duration": 30, "velocity": 73}, {"time": 5252, "pitch": 74, "duration": 9, "velocity": 87}, {"time": 5261, "pitch": 70, "duration": 9, "velocity": 63}, {"time": 5270, "pitch": 72, "duration": 24, "velocity": 85}, {"time": 5294, "pitch": 72, "duration": 9, "velocity": 101}, {"time": 5303, "pitch": 77, "duration": 9, "velocity": 89}, {"time": 5312, "pitch": 72, "duration": 6, "velocity": 85}, {"time": 5318, "pitch": 72, "duration": 12, "velocity": 93}, {"time": 5330, "pitch": 74, "duration": 6, "velocity": 99}, {"time": 5336, "pitch": 74, "duration": 54, "velocity": 97}, {"time": 5390, "pitch": 67, "duration": 10, "velocity": 91}, {"time": 5399, "pitch": 70, "duration": 9, "velocity": 95}, {"time": 5408, "pitch": 74, "duration": 6, "velocity": 96}, {"time": 5414, "pitch": 79, "duration": 33, "velocity": 90}, {"time": 5447, "pitch": 81, "duration": 12, "velocity": 103}, {"time": 5459, "pitch": 81, "duration": 3, "velocity": 96}, {"time": 5462, "pitch": 82, "duration": 3, "velocity": 90}, {"time": 5465, "pitch": 81, "duration": 21, "velocity": 66}, {"time": 5486, "pitch": 77, "duration": 9, "velocity": 93}, {"time": 5495, "pitch": 72, "duration": 6, "velocity": 84}, {"time": 5501, "pitch": 69, "duration": 9, "velocity": 66}, {"time": 5510, "pitch": 72, "duration": 33, "velocity": 90}, {"time": 5540, "pitch": 77, "duration": 12, "velocity": 87}, {"time": 5552, "pitch": 74, "duration": 9, "velocity": 91}, {"time": 5561, "pitch": 72, "duration": 3, "velocity": 80}, {"time": 5564, "pitch": 70, "duration": 18, "velocity": 66}, {"time": 5582, "pitch": 67, "duration": 9, "velocity": 74}, {"time": 5591, "pitch": 70, "duration": 9, "velocity": 91}, {"time": 5600, "pitch": 74, "duration": 6, "velocity": 93}, {"time": 5606, "pitch": 79, "duration": 30, "velocity": 94}, {"time": 5636, "pitch": 74, "duration": 18, "velocity": 103}, {"time": 5654, "pitch": 72, "duration": 24, "velocity": 98}, {"time": 5678, "pitch": 72, "duration": 9, "velocity": 108}, {"time": 5687, "pitch": 77, "duration": 9, "velocity": 94}, {"time": 5696, "pitch": 72, "duration": 6, "velocity": 97}, {"time": 5702, "pitch": 72, "duration": 9, "velocity": 105}, {"time": 5711, "pitch": 74, "duration": 9, "velocity": 97}, {"time": 5720, "pitch": 74, "duration": 72, "velocity": 99}, {"time": 5792, "pitch": 74, "duration": 6, "velocity": 91}, {"time": 5798, "pitch": 72, "duration": 6, "velocity": 90}, {"time": 5804, "pitch": 70, "duration": 36, "velocity": 95}, {"time": 5840, "pitch": 74, "duration": 6, "velocity": 96}, {"time": 5846, "pitch": 72, "duration": 6, "velocity": 84}, {"time": 5852, "pitch": 70, "duration": 18, "velocity": 85}, {"time": 5867, "pitch": 74, "duration": 9, "velocity": 87}, {"time": 5876, "pitch": 69, "duration": 18, "velocity": 93}, {"time": 5894, "pitch": 69, "duration": 18, "velocity": 98}, {"time": 5912, "pitch": 67, "duration": 54, "velocity": 93}, {"time": 5966, "pitch": 67, "duration": 9, "velocity": 90}, {"time": 5975, "pitch": 70, "duration": 9, "velocity": 84}, {"time": 5984, "pitch": 74, "duration": 6, "velocity": 85}, {"time": 5990, "pitch": 79, "duration": 36, "velocity": 87}, {"time": 6026, "pitch": 81, "duration": 6, "velocity": 93}, {"time": 6032, "pitch": 81, "duration": 30, "velocity": 94}, {"time": 6062, "pitch": 77, "duration": 6, "velocity": 103}, {"time": 6068, "pitch": 72, "duration": 9, "velocity": 91}, {"time": 6077, "pitch": 69, "duration": 9, "velocity": 84}, {"time": 6086, "pitch": 72, "duration": 30, "velocity": 98}, {"time": 6116, "pitch": 77, "duration": 12, "velocity": 97}, {"time": 6128, "pitch": 74, "duration": 30, "velocity": 100}, {"time": 6158, "pitch": 67, "duration": 9, "velocity": 79}, {"time": 6167, "pitch": 70, "duration": 9, "velocity": 87}, {"time": 6176, "pitch": 74, "duration": 6, "velocity": 79}, {"time": 6182, "pitch": 79, "duration": 30, "velocity": 73}, {"time": 6212, "pitch": 74, "duration": 9, "velocity": 87}, {"time": 6221, "pitch": 70, "duration": 9, "velocity": 63}, {"time": 6230, "pitch": 72, "duration": 24, "velocity": 85}, {"time": 6254, "pitch": 72, "duration": 9, "velocity": 101}, {"time": 6263, "pitch": 77, "duration": 9, "velocity": 89}, {"time": 6272, "pitch": 72, "duration": 6, "velocity": 85}, {"time": 6278, "pitch": 72, "duration": 12, "velocity": 93}, {"time": 6290, "pitch": 74, "duration": 6, "velocity": 99}, {"time": 6296, "pitch": 74, "duration": 54, "velocity": 97}, {"time": 6350, "pitch": 67, "duration": 10, "velocity": 91}, {"time": 6359, "pitch": 70, "duration": 9, "velocity": 95}, {"time": 6368, "pitch": 74, "duration": 6, "velocity": 96}, {"time": 6374, "pitch": 79, "duration": 33, "velocity": 90}, {"time": 6404, "pitch": 81, "duration": 12, "velocity": 103}, {"time": 6416, "pitch": 81, "duration": 3, "velocity": 96}, {"time": 6419, "pitch": 82, "duration": 3, "velocity": 90}, {"time": 6422, "pitch": 81, "duration": 24, "velocity": 88}, {"time": 6446, "pitch": 77, "duration": 9, "velocity": 93}, {"time": 6455, "pitch": 72, "duration": 6, "velocity": 84}, {"time": 6461, "pitch": 69, "duration": 9, "velocity": 66}, {"time": 6470, "pitch": 72, "duration": 33, "velocity": 90}, {"time": 6500, "pitch": 77, "duration": 12, "velocity": 87}, {"time": 6512, "pitch": 74, "duration": 9, "velocity": 91}, {"time": 6521, "pitch": 72, "duration": 3, "velocity": 80}, {"time": 6524, "pitch": 70, "duration": 18, "velocity": 66}, {"time": 6542, "pitch": 67, "duration": 9, "velocity": 74}, {"time": 6551, "pitch": 70, "duration": 9, "velocity": 91}, {"time": 6560, "pitch": 74, "duration": 6, "velocity": 93}, {"time": 6566, "pitch": 79, "duration": 30, "velocity": 94}, {"time": 6596, "pitch": 74, "duration": 18, "velocity": 103}, {"time": 6614, "pitch": 72, "duration": 24, "velocity": 98}, {"time": 6638, "pitch": 72, "duration": 9, "velocity": 108}, {"time": 6647, "pitch": 77, "duration": 9, "velocity": 94}, {"time": 6656, "pitch": 72, "duration": 6, "velocity": 97}, {"time": 6662, "pitch": 72, "duration": 9, "velocity": 105}, {"time": 6671, "pitch": 74, "duration": 9, "velocity": 97}, {"time": 6680, "pitch": 74, "duration": 72, "velocity": 99}, {"time": 6752, "pitch": 74, "duration": 6, "velocity": 91}, {"time": 6758, "pitch": 72, "duration": 6, "velocity": 90}, {"time": 6764, "pitch": 70, "duration": 36, "velocity": 95}, {"time": 6800, "pitch": 74, "duration": 6, "velocity": 96}, {"time": 6806, "pitch": 72, "duration": 6, "velocity": 84}, {"time": 6812, "pitch": 70, "duration": 18, "velocity": 85}, {"time": 6830, "pitch": 74, "duration": 6, "velocity": 87}, {"time": 6836, "pitch": 69, "duration": 18, "velocity": 93}, {"time": 6854, "pitch": 69, "duration": 18, "velocity": 98}, {"time": 6872, "pitch": 67, "duration": 54, "velocity": 93}, {"time": 6926, "pitch": 67, "duration": 18, "velocity": 93}, {"time": 6944, "pitch": 74, "duration": 6, "velocity": 90}, {"time": 6950, "pitch": 72, "duration": 6, "velocity": 89}, {"time": 6956, "pitch": 70, "duration": 36, "velocity": 79}, {"time": 6992, "pitch": 74, "duration": 6, "velocity": 105}, {"time": 6998, "pitch": 72, "duration": 7, "velocity": 90}, {"time": 7004, "pitch": 74, "duration": 18, "velocity": 97}, {"time": 7022, "pitch": 74, "duration": 12, "velocity": 103}, {"time": 7034, "pitch": 70, "duration": 12, "velocity": 99}, {"time": 7046, "pitch": 69, "duration": 42, "velocity": 99}, {"time": 7088, "pitch": 70, "duration": 3, "velocity": 52}, {"time": 7091, "pitch": 69, "duration": 9, "velocity": 52}, {"time": 7100, "pitch": 67, "duration": 42, "velocity": 77}], "annotations": [{"time": 2884, "annotation": {"number": 64, "value": 127}, "group": "control_change"}, {"time": 2902, "annotation": {"number": 64, "value": 127}, "group": "control_change"}, {"time": 2905, "annotation": {"number": 64, "value": 0}, "group": "control_change"}, {"time": 2934, "annotation": {"number": 64, "value": 127}, "group": "control_change"}, {"time": 2936, "annotation": {"number": 64, "value": 0}, "group": "control_change"}, {"time": 5765, "annotation": {"number": 64, "value": 127}, "group": "control_change"}, {"time": 5784, "annotation": {"number": 64, "value": 127}, "group": "control_change"}, {"time": 5787, "annotation": {"number": 64, "value": 0}, "group": "control_change"}, {"time": 5815, "annotation": {"number": 64, "value": 127}, "group": "control_change"}, {"time": 5818, "annotation": {"number": 64, "value": 0}, "group": "control_change"}]}, {"program": 0, "is_drum": false, "name": "PIANO", "notes": [{"time": 134, "pitch": 51, "duration": 41, "velocity": 60}, {"time": 134, "pitch": 58, "duration": 7, "velocity": 75}, {"time": 134, "pitch": 63, "duration": 8, "velocity": 88}, {"time": 134, "pitch": 67, "duration": 8, "velocity": 82}, {"time": 140, "pitch": 55, "duration": 25, "velocity": 58}, {"time": 146, "pitch": 58, "duration": 9, "velocity": 69}, {"time": 152, "pitch": 63, "duration": 10, "velocity": 75}, {"time": 164, "pitch": 58, "duration": 9, "velocity": 80}, {"time": 164, "pitch": 67, "duration": 9, "velocity": 76}, {"time": 170, "pitch": 55, "duration": 4, "velocity": 67}, {"time": 176, "pitch": 70, "duration": 7, "velocity": 73}, {"time": 182, "pitch": 41, "duration": 11, "velocity": 72}, {"time": 182, "pitch": 60, "duration": 26, "velocity": 69}, {"time": 182, "pitch": 65, "duration": 22, "velocity": 70}, {"time": 182, "pitch": 69, "duration": 25, "velocity": 73}, {"time": 188, "pitch": 48, "duration": 6, "velocity": 63}, {"time": 194, "pitch": 53, "duration": 8, "velocity": 55}, {"time": 200, "pitch": 55, "duration": 20, "velocity": 59}, {"time": 206, "pitch": 57, "duration": 15, "velocity": 66}, {"time": 212, "pitch": 60, "duration": 5, "velocity": 57}, {"time": 218, "pitch": 65, "duration": 6, "velocity": 63}, {"time": 230, "pitch": 38, "duration": 6, "velocity": 72}, {"time": 230, "pitch": 60, "duration": 20, "velocity": 62}, {"time": 230, "pitch": 65, "duration": 18, "velocity": 70}, {"time": 230, "pitch": 69, "duration": 18, "velocity": 66}, {"time": 236, "pitch": 50, "duration": 8, "velocity": 63}, {"time": 242, "pitch": 53, "duration": 26, "velocity": 53}, {"time": 248, "pitch": 57, "duration": 19, "velocity": 67}, {"time": 254, "pitch": 60, "duration": 8, "velocity": 63}, {"time": 260, "pitch": 65, "duration": 5, "velocity": 75}, {"time": 266, "pitch": 65, "duration": 1, "velocity": 43}, {"time": 266, "pitch": 67, "duration": 4, "velocity": 76}, {"time": 272, "pitch": 69, "duration": 5, "velocity": 58}, {"time": 278, "pitch": 43, "duration": 20, "velocity": 67}, {"time": 278, "pitch": 62, "duration": 9, "velocity": 63}, {"time": 278, "pitch": 65, "duration": 10, "velocity": 62}, {"time": 278, "pitch": 70, "duration": 10, "velocity": 70}, {"time": 284, "pitch": 50, "duration": 15, "velocity": 59}, {"time": 290, "pitch": 55, "duration": 6, "velocity": 75}, {"time": 290, "pitch": 62, "duration": 4, "velocity": 66}, {"time": 290, "pitch": 69, "duration": 5, "velocity": 73}, {"time": 296, "pitch": 62, "duration": 2, "velocity": 40}, {"time": 296, "pitch": 70, "duration": 3, "velocity": 69}, {"time": 302, "pitch": 43, "duration": 7, "velocity": 64}, {"time": 302, "pitch": 55, "duration": 7, "velocity": 85}, {"time": 302, "pitch": 62, "duration": 6, "velocity": 82}, {"time": 302, "pitch": 70, "duration": 8, "velocity": 80}, {"time": 311, "pitch": 43, "duration": 6, "velocity": 73}, {"time": 311, "pitch": 55, "duration": 4, "velocity": 63}, {"time": 311, "pitch": 60, "duration": 6, "velocity": 80}, {"time": 311, "pitch": 69, "duration": 6, "velocity": 85}, {"time": 311, "pitch": 70, "duration": 5, "velocity": 60}, {"time": 320, "pitch": 41, "duration": 4, "velocity": 73}, {"time": 320, "pitch": 53, "duration": 3, "velocity": 70}, {"time": 320, "pitch": 60, "duration": 4, "velocity": 73}, {"time": 320, "pitch": 65, "duration": 6, "velocity": 85}, {"time": 326, "pitch": 39, "duration": 42, "velocity": 85}, {"time": 326, "pitch": 58, "duration": 7, "velocity": 88}, {"time": 326, "pitch": 63, "duration": 7, "velocity": 91}, {"time": 326, "pitch": 67, "duration": 8, "velocity": 76}, {"time": 332, "pitch": 46, "duration": 39, "velocity": 59}, {"time": 338, "pitch": 51, "duration": 13, "velocity": 56}, {"time": 344, "pitch": 55, "duration": 5, "velocity": 49}, {"time": 350, "pitch": 55, "duration": 8, "velocity": 75}, {"time": 350, "pitch": 58, "duration": 8, "velocity": 73}, {"time": 350, "pitch": 63, "duration": 7, "velocity": 82}, {"time": 353, "pitch": 51, "duration": 5, "velocity": 48}, {"time": 359, "pitch": 55, "duration": 6, "velocity": 80}, {"time": 359, "pitch": 62, "duration": 7, "velocity": 78}, {"time": 362, "pitch": 51, "duration": 7, "velocity": 57}, {"time": 368, "pitch": 55, "duration": 3, "velocity": 64}, {"time": 368, "pitch": 58, "duration": 4, "velocity": 72}, {"time": 368, "pitch": 63, "duration": 4, "velocity": 78}, {"time": 374, "pitch": 39, "duration": 38, "velocity": 78}, {"time": 374, "pitch": 57, "duration": 7, "velocity": 80}, {"time": 374, "pitch": 60, "duration": 7, "velocity": 78}, {"time": 374, "pitch": 65, "duration": 6, "velocity": 80}, {"time": 380, "pitch": 51, "duration": 3, "velocity": 50}, {"time": 383, "pitch": 57, "duration": 2, "velocity": 70}, {"time": 383, "pitch": 60, "duration": 2, "velocity": 66}, {"time": 383, "pitch": 65, "duration": 2, "velocity": 53}, {"time": 386, "pitch": 51, "duration": 6, "velocity": 52}, {"time": 392, "pitch": 57, "duration": 2, "velocity": 75}, {"time": 392, "pitch": 60, "duration": 2, "velocity": 78}, {"time": 392, "pitch": 65, "duration": 2, "velocity": 78}, {"time": 398, "pitch": 51, "duration": 5, "velocity": 48}, {"time": 404, "pitch": 60, "duration": 6, "velocity": 80}, {"time": 404, "pitch": 65, "duration": 3, "velocity": 72}, {"time": 404, "pitch": 72, "duration": 6, "velocity": 76}, {"time": 407, "pitch": 51, "duration": 7, "velocity": 53}, {"time": 413, "pitch": 67, "duration": 4, "velocity": 70}, {"time": 416, "pitch": 69, "duration": 3, "velocity": 51}, {"time": 422, "pitch": 50, "duration": 40, "velocity": 73}, {"time": 422, "pitch": 60, "duration": 6, "velocity": 72}, {"time": 422, "pitch": 65, "duration": 7, "velocity": 78}, {"time": 422, "pitch": 69, "duration": 7, "velocity": 73}, {"time": 428, "pitch": 57, "duration": 16, "velocity": 61}, {"time": 434, "pitch": 60, "duration": 4, "velocity": 72}, {"time": 440, "pitch": 65, "duration": 3, "velocity": 78}, {"time": 446, "pitch": 65, "duration": 6, "velocity": 93}, {"time": 446, "pitch": 72, "duration": 5, "velocity": 80}, {"time": 449, "pitch": 57, "duration": 3, "velocity": 58}, {"time": 455, "pitch": 67, "duration": 4, "velocity": 78}, {"time": 458, "pitch": 57, "duration": 2, "velocity": 62}, {"time": 458, "pitch": 69, "duration": 4, "velocity": 64}, {"time": 464, "pitch": 69, "duration": 4, "velocity": 60}, {"time": 470, "pitch": 43, "duration": 21, "velocity": 69}, {"time": 470, "pitch": 62, "duration": 8, "velocity": 82}, {"time": 470, "pitch": 65, "duration": 10, "velocity": 80}, {"time": 470, "pitch": 70, "duration": 8, "velocity": 59}, {"time": 476, "pitch": 50, "duration": 16, "velocity": 54}, {"time": 482, "pitch": 55, "duration": 6, "velocity": 51}, {"time": 482, "pitch": 62, "duration": 9, "velocity": 67}, {"time": 494, "pitch": 43, "duration": 6, "velocity": 73}, {"time": 494, "pitch": 55, "duration": 6, "velocity": 85}, {"time": 494, "pitch": 62, "duration": 6, "velocity": 85}, {"time": 494, "pitch": 70, "duration": 7, "velocity": 80}, {"time": 503, "pitch": 41, "duration": 6, "velocity": 76}, {"time": 503, "pitch": 53, "duration": 5, "velocity": 85}, {"time": 503, "pitch": 60, "duration": 6, "velocity": 85}, {"time": 503, "pitch": 69, "duration": 6, "velocity": 93}, {"time": 512, "pitch": 38, "duration": 4, "velocity": 80}, {"time": 512, "pitch": 50, "duration": 5, "velocity": 88}, {"time": 512, "pitch": 58, "duration": 5, "velocity": 82}, {"time": 512, "pitch": 65, "duration": 6, "velocity": 95}, {"time": 518, "pitch": 39, "duration": 45, "velocity": 95}, {"time": 518, "pitch": 58, "duration": 6, "velocity": 85}, {"time": 518, "pitch": 63, "duration": 5, "velocity": 93}, {"time": 518, "pitch": 67, "duration": 5, "velocity": 93}, {"time": 524, "pitch": 46, "duration": 35, "velocity": 62}, {"time": 530, "pitch": 51, "duration": 14, "velocity": 60}, {"time": 536, "pitch": 55, "duration": 5, "velocity": 60}, {"time": 542, "pitch": 55, "duration": 8, "velocity": 72}, {"time": 542, "pitch": 58, "duration": 8, "velocity": 78}, {"time": 542, "pitch": 63, "duration": 8, "velocity": 78}, {"time": 548, "pitch": 51, "duration": 6, "velocity": 47}, {"time": 554, "pitch": 55, "duration": 7, "velocity": 70}, {"time": 560, "pitch": 46, "duration": 3, "velocity": 35}, {"time": 560, "pitch": 51, "duration": 3, "velocity": 43}, {"time": 560, "pitch": 58, "duration": 5, "velocity": 72}, {"time": 566, "pitch": 39, "duration": 35, "velocity": 64}, {"time": 566, "pitch": 57, "duration": 7, "velocity": 75}, {"time": 566, "pitch": 60, "duration": 8, "velocity": 70}, {"time": 566, "pitch": 65, "duration": 7, "velocity": 75}, {"time": 572, "pitch": 46, "duration": 30, "velocity": 53}, {"time": 575, "pitch": 57, "duration": 2, "velocity": 76}, {"time": 575, "pitch": 60, "duration": 2, "velocity": 66}, {"time": 575, "pitch": 65, "duration": 2, "velocity": 52}, {"time": 578, "pitch": 51, "duration": 7, "velocity": 44}, {"time": 584, "pitch": 60, "duration": 5, "velocity": 54}, {"time": 584, "pitch": 65, "duration": 3, "velocity": 55}, {"time": 587, "pitch": 51, "duration": 5, "velocity": 44}, {"time": 593, "pitch": 60, "duration": 3, "velocity": 66}, {"time": 593, "pitch": 72, "duration": 4, "velocity": 73}, {"time": 596, "pitch": 51, "duration": 6, "velocity": 46}, {"time": 602, "pitch": 60, "duration": 4, "velocity": 66}, {"time": 602, "pitch": 69, "duration": 5, "velocity": 60}, {"time": 608, "pitch": 67, "duration": 5, "velocity": 66}, {"time": 614, "pitch": 46, "duration": 17, "velocity": 78}, {"time": 614, "pitch": 65, "duration": 8, "velocity": 61}, {"time": 614, "pitch": 70, "duration": 7, "velocity": 54}, {"time": 614, "pitch": 74, "duration": 7, "velocity": 62}, {"time": 620, "pitch": 53, "duration": 16, "velocity": 61}, {"time": 626, "pitch": 58, "duration": 5, "velocity": 85}, {"time": 632, "pitch": 67, "duration": 3, "velocity": 48}, {"time": 635, "pitch": 65, "duration": 3, "velocity": 45}, {"time": 638, "pitch": 45, "duration": 15, "velocity": 70}, {"time": 638, "pitch": 60, "duration": 12, "velocity": 78}, {"time": 638, "pitch": 65, "duration": 1, "velocity": 85}, {"time": 644, "pitch": 53, "duration": 8, "velocity": 56}, {"time": 650, "pitch": 57, "duration": 4, "velocity": 73}, {"time": 656, "pitch": 60, "duration": 4, "velocity": 60}, {"time": 662, "pitch": 44, "duration": 18, "velocity": 76}, {"time": 662, "pitch": 60, "duration": 13, "velocity": 64}, {"time": 662, "pitch": 63, "duration": 14, "velocity": 70}, {"time": 662, "pitch": 68, "duration": 14, "velocity": 78}, {"time": 668, "pitch": 51, "duration": 11, "velocity": 61}, {"time": 674, "pitch": 56, "duration": 5, "velocity": 80}, {"time": 680, "pitch": 60, "duration": 1, "velocity": 37}, {"time": 686, "pitch": 43, "duration": 17, "velocity": 75}, {"time": 686, "pitch": 59, "duration": 15, "velocity": 82}, {"time": 686, "pitch": 62, "duration": 13, "velocity": 76}, {"time": 686, "pitch": 67, "duration": 13, "velocity": 76}, {"time": 692, "pitch": 50, "duration": 10, "velocity": 46}, {"time": 698, "pitch": 55, "duration": 4, "velocity": 82}, {"time": 707, "pitch": 58, "duration": 5, "velocity": 49}, {"time": 707, "pitch": 63, "duration": 10, "velocity": 63}, {"time": 710, "pitch": 51, "duration": 46, "velocity": 66}, {"time": 710, "pitch": 70, "duration": 33, "velocity": 73}, {"time": 716, "pitch": 55, "duration": 21, "velocity": 70}, {"time": 716, "pitch": 58, "duration": 3, "velocity": 20}, {"time": 722, "pitch": 58, "duration": 8, "velocity": 82}, {"time": 728, "pitch": 63, "duration": 6, "velocity": 78}, {"time": 734, "pitch": 58, "duration": 8, "velocity": 45}, {"time": 734, "pitch": 67, "duration": 15, "velocity": 62}, {"time": 740, "pitch": 55, "duration": 9, "velocity": 59}, {"time": 746, "pitch": 58, "duration": 6, "velocity": 62}, {"time": 746, "pitch": 70, "duration": 3, "velocity": 47}, {"time": 752, "pitch": 63, "duration": 13, "velocity": 67}, {"time": 758, "pitch": 51, "duration": 3, "velocity": 59}, {"time": 764, "pitch": 51, "duration": 29, "velocity": 64}, {"time": 770, "pitch": 55, "duration": 12, "velocity": 57}, {"time": 770, "pitch": 58, "duration": 2, "velocity": 39}, {"time": 782, "pitch": 58, "duration": 9, "velocity": 72}, {"time": 782, "pitch": 63, "duration": 9, "velocity": 80}, {"time": 782, "pitch": 67, "duration": 8, "velocity": 75}, {"time": 788, "pitch": 55, "duration": 4, "velocity": 66}, {"time": 794, "pitch": 58, "duration": 4, "velocity": 69}, {"time": 800, "pitch": 50, "duration": 3, "velocity": 52}, {"time": 800, "pitch": 65, "duration": 3, "velocity": 47}, {"time": 806, "pitch": 43, "duration": 42, "velocity": 69}, {"time": 806, "pitch": 58, "duration": 12, "velocity": 64}, {"time": 806, "pitch": 62, "duration": 10, "velocity": 69}, {"time": 806, "pitch": 65, "duration": 9, "velocity": 62}, {"time": 812, "pitch": 50, "duration": 40, "velocity": 60}, {"time": 818, "pitch": 55, "duration": 14, "velocity": 53}, {"time": 824, "pitch": 60, "duration": 7, "velocity": 70}, {"time": 830, "pitch": 62, "duration": 3, "velocity": 75}, {"time": 842, "pitch": 67, "duration": 8, "velocity": 61}, {"time": 848, "pitch": 69, "duration": 8, "velocity": 76}, {"time": 854, "pitch": 43, "duration": 10, "velocity": 44}, {"time": 860, "pitch": 50, "duration": 5, "velocity": 48}, {"time": 866, "pitch": 55, "duration": 8, "velocity": 49}, {"time": 872, "pitch": 57, "duration": 16, "velocity": 46}, {"time": 872, "pitch": 82, "duration": 3, "velocity": 63}, {"time": 875, "pitch": 81, "duration": 3, "velocity": 52}, {"time": 878, "pitch": 77, "duration": 3, "velocity": 55}, {"time": 881, "pitch": 72, "duration": 3, "velocity": 52}, {"time": 884, "pitch": 70, "duration": 3, "velocity": 73}, {"time": 887, "pitch": 69, "duration": 4, "velocity": 69}, {"time": 890, "pitch": 67, "duration": 4, "velocity": 78}, {"time": 893, "pitch": 69, "duration": 4, "velocity": 58}, {"time": 896, "pitch": 70, "duration": 3, "velocity": 61}, {"time": 899, "pitch": 72, "duration": 3, "velocity": 46}, {"time": 902, "pitch": 43, "duration": 10, "velocity": 73}, {"time": 902, "pitch": 70, "duration": 9, "velocity": 66}, {"time": 908, "pitch": 50, "duration": 5, "velocity": 57}, {"time": 914, "pitch": 55, "duration": 7, "velocity": 50}, {"time": 920, "pitch": 57, "duration": 10, "velocity": 61}, {"time": 926, "pitch": 58, "duration": 4, "velocity": 67}, {"time": 932, "pitch": 62, "duration": 5, "velocity": 63}, {"time": 938, "pitch": 67, "duration": 5, "velocity": 61}, {"time": 944, "pitch": 62, "duration": 9, "velocity": 64}, {"time": 944, "pitch": 69, "duration": 9, "velocity": 70}, {"time": 950, "pitch": 41, "duration": 25, "velocity": 67}, {"time": 962, "pitch": 60, "duration": 8, "velocity": 55}, {"time": 968, "pitch": 65, "duration": 4, "velocity": 64}, {"time": 980, "pitch": 60, "duration": 8, "velocity": 63}, {"time": 980, "pitch": 69, "duration": 8, "velocity": 75}, {"time": 998, "pitch": 43, "duration": 15, "velocity": 56}, {"time": 998, "pitch": 58, "duration": 13, "velocity": 46}, {"time": 998, "pitch": 62, "duration": 14, "velocity": 41}, {"time": 998, "pitch": 67, "duration": 14, "velocity": 36}, {"time": 1004, "pitch": 50, "duration": 42, "velocity": 48}, {"time": 1010, "pitch": 43, "duration": 3, "velocity": 48}, {"time": 1010, "pitch": 55, "duration": 32, "velocity": 47}, {"time": 1016, "pitch": 58, "duration": 14, "velocity": 47}, {"time": 1028, "pitch": 62, "duration": 7, "velocity": 41}, {"time": 1040, "pitch": 58, "duration": 10, "velocity": 16}, {"time": 1040, "pitch": 62, "duration": 13, "velocity": 48}, {"time": 1040, "pitch": 67, "duration": 16, "velocity": 55}, {"time": 1046, "pitch": 43, "duration": 17, "velocity": 43}, {"time": 1052, "pitch": 50, "duration": 13, "velocity": 42}, {"time": 1058, "pitch": 55, "duration": 5, "velocity": 32}, {"time": 1076, "pitch": 41, "duration": 8, "velocity": 56}, {"time": 1076, "pitch": 57, "duration": 5, "velocity": 47}, {"time": 1076, "pitch": 60, "duration": 4, "velocity": 56}, {"time": 1076, "pitch": 65, "duration": 5, "velocity": 48}, {"time": 1094, "pitch": 51, "duration": 44, "velocity": 54}, {"time": 1094, "pitch": 58, "duration": 8, "velocity": 49}, {"time": 1094, "pitch": 63, "duration": 8, "velocity": 49}, {"time": 1094, "pitch": 67, "duration": 7, "velocity": 48}, {"time": 1100, "pitch": 55, "duration": 22, "velocity": 44}, {"time": 1106, "pitch": 58, "duration": 15, "velocity": 40}, {"time": 1112, "pitch": 67, "duration": 18, "velocity": 55}, {"time": 1124, "pitch": 55, "duration": 14, "velocity": 34}, {"time": 1130, "pitch": 58, "duration": 18, "velocity": 31}, {"time": 1136, "pitch": 63, "duration": 13, "velocity": 44}, {"time": 1142, "pitch": 51, "duration": 17, "velocity": 40}, {"time": 1148, "pitch": 55, "duration": 11, "velocity": 34}, {"time": 1154, "pitch": 58, "duration": 5, "velocity": 33}, {"time": 1160, "pitch": 63, "duration": 2, "velocity": 41}, {"time": 1166, "pitch": 50, "duration": 16, "velocity": 46}, {"time": 1166, "pitch": 58, "duration": 6, "velocity": 49}, {"time": 1166, "pitch": 65, "duration": 7, "velocity": 52}, {"time": 1172, "pitch": 55, "duration": 7, "velocity": 44}, {"time": 1178, "pitch": 58, "duration": 5, "velocity": 43}, {"time": 1184, "pitch": 70, "duration": 22, "velocity": 46}, {"time": 1190, "pitch": 48, "duration": 39, "velocity": 44}, {"time": 1190, "pitch": 60, "duration": 8, "velocity": 46}, {"time": 1190, "pitch": 63, "duration": 9, "velocity": 44}, {"time": 1196, "pitch": 55, "duration": 20, "velocity": 37}, {"time": 1202, "pitch": 60, "duration": 16, "velocity": 37}, {"time": 1208, "pitch": 63, "duration": 17, "velocity": 39}, {"time": 1220, "pitch": 55, "duration": 13, "velocity": 29}, {"time": 1226, "pitch": 60, "duration": 7, "velocity": 30}, {"time": 1232, "pitch": 67, "duration": 12, "velocity": 44}, {"time": 1238, "pitch": 48, "duration": 25, "velocity": 47}, {"time": 1244, "pitch": 55, "duration": 13, "velocity": 38}, {"time": 1250, "pitch": 58, "duration": 6, "velocity": 40}, {"time": 1256, "pitch": 62, "duration": 20, "velocity": 60}, {"time": 1265, "pitch": 55, "duration": 9, "velocity": 33}, {"time": 1274, "pitch": 38, "duration": 8, "velocity": 46}, {"time": 1280, "pitch": 55, "duration": 4, "velocity": 37}, {"time": 1286, "pitch": 43, "duration": 41, "velocity": 64}, {"time": 1286, "pitch": 58, "duration": 11, "velocity": 51}, {"time": 1286, "pitch": 62, "duration": 12, "velocity": 48}, {"time": 1292, "pitch": 50, "duration": 42, "velocity": 51}, {"time": 1298, "pitch": 55, "duration": 9, "velocity": 53}, {"time": 1304, "pitch": 58, "duration": 18, "velocity": 56}, {"time": 1304, "pitch": 62, "duration": 12, "velocity": 55}, {"time": 1316, "pitch": 55, "duration": 8, "velocity": 31}, {"time": 1322, "pitch": 57, "duration": 5, "velocity": 34}, {"time": 1325, "pitch": 60, "duration": 3, "velocity": 24}, {"time": 1328, "pitch": 58, "duration": 15, "velocity": 53}, {"time": 1328, "pitch": 62, "duration": 14, "velocity": 55}, {"time": 1334, "pitch": 43, "duration": 17, "velocity": 42}, {"time": 1340, "pitch": 50, "duration": 16, "velocity": 40}, {"time": 1346, "pitch": 55, "duration": 4, "velocity": 32}, {"time": 1352, "pitch": 57, "duration": 11, "velocity": 48}, {"time": 1352, "pitch": 60, "duration": 7, "velocity": 48}, {"time": 1358, "pitch": 41, "duration": 14, "velocity": 35}, {"time": 1364, "pitch": 50, "duration": 12, "velocity": 48}, {"time": 1370, "pitch": 57, "duration": 6, "velocity": 44}, {"time": 1376, "pitch": 60, "duration": 6, "velocity": 35}, {"time": 1382, "pitch": 43, "duration": 44, "velocity": 48}, {"time": 1382, "pitch": 58, "duration": 13, "velocity": 53}, {"time": 1382, "pitch": 62, "duration": 12, "velocity": 51}, {"time": 1406, "pitch": 58, "duration": 12, "velocity": 47}, {"time": 1406, "pitch": 62, "duration": 11, "velocity": 46}, {"time": 1421, "pitch": 55, "duration": 8, "velocity": 16}, {"time": 1427, "pitch": 50, "duration": 6, "velocity": 44}, {"time": 1430, "pitch": 43, "duration": 33, "velocity": 54}, {"time": 1430, "pitch": 57, "duration": 11, "velocity": 48}, {"time": 1430, "pitch": 60, "duration": 16, "velocity": 56}, {"time": 1448, "pitch": 55, "duration": 8, "velocity": 37}, {"time": 1454, "pitch": 58, "duration": 9, "velocity": 53}, {"time": 1454, "pitch": 62, "duration": 8, "velocity": 54}, {"time": 1460, "pitch": 55, "duration": 3, "velocity": 36}, {"time": 1466, "pitch": 57, "duration": 6, "velocity": 48}, {"time": 1466, "pitch": 60, "duration": 7, "velocity": 52}, {"time": 1472, "pitch": 41, "duration": 5, "velocity": 59}, {"time": 1478, "pitch": 39, "duration": 36, "velocity": 45}, {"time": 1478, "pitch": 55, "duration": 14, "velocity": 47}, {"time": 1478, "pitch": 58, "duration": 14, "velocity": 52}, {"time": 1478, "pitch": 62, "duration": 9, "velocity": 49}, {"time": 1496, "pitch": 51, "duration": 10, "velocity": 31}, {"time": 1502, "pitch": 55, "duration": 7, "velocity": 40}, {"time": 1502, "pitch": 58, "duration": 8, "velocity": 47}, {"time": 1502, "pitch": 62, "duration": 9, "velocity": 47}, {"time": 1514, "pitch": 58, "duration": 7, "velocity": 41}, {"time": 1520, "pitch": 65, "duration": 6, "velocity": 62}, {"time": 1526, "pitch": 39, "duration": 38, "velocity": 53}, {"time": 1526, "pitch": 58, "duration": 18, "velocity": 44}, {"time": 1526, "pitch": 63, "duration": 13, "velocity": 47}, {"time": 1526, "pitch": 67, "duration": 14, "velocity": 46}, {"time": 1544, "pitch": 51, "duration": 13, "velocity": 39}, {"time": 1550, "pitch": 58, "duration": 12, "velocity": 50}, {"time": 1550, "pitch": 63, "duration": 10, "velocity": 59}, {"time": 1550, "pitch": 67, "duration": 13, "velocity": 54}, {"time": 1562, "pitch": 51, "duration": 4, "velocity": 53}, {"time": 1574, "pitch": 38, "duration": 44, "velocity": 46}, {"time": 1574, "pitch": 50, "duration": 55, "velocity": 47}, {"time": 1574, "pitch": 62, "duration": 19, "velocity": 55}, {"time": 1574, "pitch": 65, "duration": 16, "velocity": 58}, {"time": 1574, "pitch": 69, "duration": 19, "velocity": 55}, {"time": 1598, "pitch": 62, "duration": 21, "velocity": 51}, {"time": 1598, "pitch": 65, "duration": 16, "velocity": 56}, {"time": 1598, "pitch": 69, "duration": 20, "velocity": 52}, {"time": 1622, "pitch": 38, "duration": 38, "velocity": 42}, {"time": 1622, "pitch": 62, "duration": 18, "velocity": 43}, {"time": 1622, "pitch": 65, "duration": 17, "velocity": 49}, {"time": 1622, "pitch": 72, "duration": 14, "velocity": 49}, {"time": 1631, "pitch": 69, "duration": 5, "velocity": 1}, {"time": 1640, "pitch": 50, "duration": 15, "velocity": 37}, {"time": 1646, "pitch": 62, "duration": 13, "velocity": 59}, {"time": 1646, "pitch": 65, "duration": 9, "velocity": 63}, {"time": 1646, "pitch": 69, "duration": 10, "velocity": 60}, {"time": 1658, "pitch": 50, "duration": 6, "velocity": 33}, {"time": 1670, "pitch": 43, "duration": 13, "velocity": 48}, {"time": 1670, "pitch": 62, "duration": 12, "velocity": 47}, {"time": 1670, "pitch": 70, "duration": 14, "velocity": 56}, {"time": 1676, "pitch": 50, "duration": 7, "velocity": 43}, {"time": 1682, "pitch": 55, "duration": 20, "velocity": 47}, {"time": 1688, "pitch": 62, "duration": 12, "velocity": 51}, {"time": 1688, "pitch": 69, "duration": 13, "velocity": 63}, {"time": 1700, "pitch": 57, "duration": 3, "velocity": 50}, {"time": 1706, "pitch": 65, "duration": 6, "velocity": 66}, {"time": 1712, "pitch": 58, "duration": 16, "velocity": 46}, {"time": 1712, "pitch": 67, "duration": 27, "velocity": 59}, {"time": 1718, "pitch": 43, "duration": 39, "velocity": 39}, {"time": 1724, "pitch": 50, "duration": 31, "velocity": 44}, {"time": 1730, "pitch": 55, "duration": 26, "velocity": 38}, {"time": 1736, "pitch": 60, "duration": 8, "velocity": 36}, {"time": 1742, "pitch": 65, "duration": 6, "velocity": 54}, {"time": 1748, "pitch": 67, "duration": 8, "velocity": 46}, {"time": 1754, "pitch": 60, "duration": 4, "velocity": 34}, {"time": 1766, "pitch": 39, "duration": 35, "velocity": 72}, {"time": 1766, "pitch": 58, "duration": 15, "velocity": 58}, {"time": 1766, "pitch": 62, "duration": 13, "velocity": 61}, {"time": 1772, "pitch": 46, "duration": 28, "velocity": 32}, {"time": 1778, "pitch": 51, "duration": 27, "velocity": 60}, {"time": 1784, "pitch": 55, "duration": 7, "velocity": 78}, {"time": 1790, "pitch": 58, "duration": 6, "velocity": 66}, {"time": 1796, "pitch": 60, "duration": 3, "velocity": 72}, {"time": 1802, "pitch": 62, "duration": 7, "velocity": 64}, {"time": 1808, "pitch": 67, "duration": 7, "velocity": 66}, {"time": 1814, "pitch": 51, "duration": 30, "velocity": 63}, {"time": 1814, "pitch": 69, "duration": 6, "velocity": 63}, {"time": 1820, "pitch": 58, "duration": 27, "velocity": 47}, {"time": 1820, "pitch": 70, "duration": 3, "velocity": 59}, {"time": 1826, "pitch": 74, "duration": 5, "velocity": 45}, {"time": 1832, "pitch": 67, "duration": 9, "velocity": 55}, {"time": 1838, "pitch": 63, "duration": 8, "velocity": 45}, {"time": 1838, "pitch": 70, "duration": 7, "velocity": 70}, {"time": 1844, "pitch": 72, "duration": 5, "velocity": 58}, {"time": 1850, "pitch": 74, "duration": 6, "velocity": 50}, {"time": 1856, "pitch": 77, "duration": 7, "velocity": 64}, {"time": 1862, "pitch": 43, "duration": 9, "velocity": 62}, {"time": 1862, "pitch": 74, "duration": 22, "velocity": 67}, {"time": 1868, "pitch": 50, "duration": 7, "velocity": 44}, {"time": 1874, "pitch": 55, "duration": 8, "velocity": 39}, {"time": 1880, "pitch": 57, "duration": 15, "velocity": 48}, {"time": 1886, "pitch": 58, "duration": 8, "velocity": 63}, {"time": 1892, "pitch": 62, "duration": 8, "velocity": 59}, {"time": 1898, "pitch": 67, "duration": 6, "velocity": 51}, {"time": 1904, "pitch": 69, "duration": 7, "velocity": 61}, {"time": 1910, "pitch": 43, "duration": 16, "velocity": 66}, {"time": 1910, "pitch": 70, "duration": 11, "velocity": 70}, {"time": 1916, "pitch": 50, "duration": 19, "velocity": 48}, {"time": 1916, "pitch": 62, "duration": 12, "velocity": 57}, {"time": 1922, "pitch": 55, "duration": 6, "velocity": 48}, {"time": 1922, "pitch": 69, "duration": 6, "velocity": 55}, {"time": 1928, "pitch": 70, "duration": 15, "velocity": 72}, {"time": 1934, "pitch": 41, "duration": 14, "velocity": 69}, {"time": 1934, "pitch": 60, "duration": 14, "velocity": 59}, {"time": 1934, "pitch": 69, "duration": 11, "velocity": 70}, {"time": 1940, "pitch": 50, "duration": 10, "velocity": 55}, {"time": 1946, "pitch": 53, "duration": 4, "velocity": 53}, {"time": 1946, "pitch": 65, "duration": 4, "velocity": 69}, {"time": 1958, "pitch": 51, "duration": 27, "velocity": 63}, {"time": 1958, "pitch": 58, "duration": 16, "velocity": 63}, {"time": 1958, "pitch": 63, "duration": 14, "velocity": 67}, {"time": 1958, "pitch": 67, "duration": 14, "velocity": 67}, {"time": 1970, "pitch": 55, "duration": 14, "velocity": 48}, {"time": 1976, "pitch": 58, "duration": 4, "velocity": 41}, {"time": 1982, "pitch": 58, "duration": 8, "velocity": 59}, {"time": 1982, "pitch": 63, "duration": 9, "velocity": 73}, {"time": 1982, "pitch": 67, "duration": 9, "velocity": 66}, {"time": 1988, "pitch": 51, "duration": 5, "velocity": 46}, {"time": 1988, "pitch": 55, "duration": 5, "velocity": 48}, {"time": 1994, "pitch": 58, "duration": 6, "velocity": 58}, {"time": 2000, "pitch": 63, "duration": 4, "velocity": 63}, {"time": 2006, "pitch": 36, "duration": 38, "velocity": 67}, {"time": 2006, "pitch": 60, "duration": 17, "velocity": 66}, {"time": 2006, "pitch": 63, "duration": 17, "velocity": 69}, {"time": 2006, "pitch": 67, "duration": 14, "velocity": 66}, {"time": 2021, "pitch": 48, "duration": 2, "velocity": 40}, {"time": 2027, "pitch": 48, "duration": 9, "velocity": 44}, {"time": 2030, "pitch": 60, "duration": 14, "velocity": 69}, {"time": 2030, "pitch": 63, "duration": 12, "velocity": 73}, {"time": 2030, "pitch": 67, "duration": 11, "velocity": 67}, {"time": 2042, "pitch": 48, "duration": 4, "velocity": 59}, {"time": 2054, "pitch": 38, "duration": 42, "velocity": 70}, {"time": 2060, "pitch": 50, "duration": 32, "velocity": 55}, {"time": 2066, "pitch": 55, "duration": 7, "velocity": 69}, {"time": 2072, "pitch": 57, "duration": 3, "velocity": 64}, {"time": 2078, "pitch": 62, "duration": 7, "velocity": 69}, {"time": 2084, "pitch": 67, "duration": 6, "velocity": 61}, {"time": 2090, "pitch": 69, "duration": 3, "velocity": 62}, {"time": 2096, "pitch": 50, "duration": 20, "velocity": 52}, {"time": 2096, "pitch": 62, "duration": 21, "velocity": 49}, {"time": 2102, "pitch": 38, "duration": 15, "velocity": 67}, {"time": 2102, "pitch": 74, "duration": 14, "velocity": 75}, {"time": 2150, "pitch": 51, "duration": 45, "velocity": 62}, {"time": 2150, "pitch": 74, "duration": 6, "velocity": 66}, {"time": 2156, "pitch": 58, "duration": 9, "velocity": 33}, {"time": 2156, "pitch": 67, "duration": 5, "velocity": 58}, {"time": 2162, "pitch": 62, "duration": 5, "velocity": 38}, {"time": 2162, "pitch": 63, "duration": 5, "velocity": 38}, {"time": 2162, "pitch": 70, "duration": 5, "velocity": 64}, {"time": 2168, "pitch": 58, "duration": 12, "velocity": 55}, {"time": 2168, "pitch": 67, "duration": 5, "velocity": 51}, {"time": 2174, "pitch": 62, "duration": 15, "velocity": 54}, {"time": 2174, "pitch": 77, "duration": 8, "velocity": 70}, {"time": 2180, "pitch": 67, "duration": 5, "velocity": 46}, {"time": 2186, "pitch": 58, "duration": 10, "velocity": 61}, {"time": 2186, "pitch": 79, "duration": 4, "velocity": 55}, {"time": 2192, "pitch": 67, "duration": 6, "velocity": 54}, {"time": 2198, "pitch": 51, "duration": 34, "velocity": 61}, {"time": 2198, "pitch": 72, "duration": 6, "velocity": 67}, {"time": 2204, "pitch": 65, "duration": 8, "velocity": 55}, {"time": 2210, "pitch": 69, "duration": 5, "velocity": 57}, {"time": 2216, "pitch": 65, "duration": 9, "velocity": 49}, {"time": 2222, "pitch": 58, "duration": 14, "velocity": 58}, {"time": 2222, "pitch": 77, "duration": 6, "velocity": 66}, {"time": 2228, "pitch": 65, "duration": 8, "velocity": 58}, {"time": 2234, "pitch": 72, "duration": 6, "velocity": 67}, {"time": 2240, "pitch": 65, "duration": 11, "velocity": 58}, {"time": 2246, "pitch": 50, "duration": 34, "velocity": 60}, {"time": 2246, "pitch": 69, "duration": 5, "velocity": 62}, {"time": 2252, "pitch": 57, "duration": 8, "velocity": 56}, {"time": 2258, "pitch": 60, "duration": 4, "velocity": 60}, {"time": 2258, "pitch": 65, "duration": 8, "velocity": 63}, {"time": 2264, "pitch": 62, "duration": 4, "velocity": 64}, {"time": 2264, "pitch": 67, "duration": 5, "velocity": 75}, {"time": 2270, "pitch": 62, "duration": 2, "velocity": 44}, {"time": 2270, "pitch": 65, "duration": 3, "velocity": 58}, {"time": 2270, "pitch": 69, "duration": 5, "velocity": 57}, {"time": 2276, "pitch": 57, "duration": 3, "velocity": 63}, {"time": 2276, "pitch": 65, "duration": 2, "velocity": 51}, {"time": 2276, "pitch": 70, "duration": 3, "velocity": 58}, {"time": 2282, "pitch": 72, "duration": 3, "velocity": 72}, {"time": 2288, "pitch": 74, "duration": 5, "velocity": 70}, {"time": 2294, "pitch": 43, "duration": 29, "velocity": 58}, {"time": 2294, "pitch": 70, "duration": 7, "velocity": 72}, {"time": 2300, "pitch": 50, "duration": 14, "velocity": 48}, {"time": 2306, "pitch": 55, "duration": 16, "velocity": 48}, {"time": 2312, "pitch": 58, "duration": 3, "velocity": 60}, {"time": 2312, "pitch": 62, "duration": 4, "velocity": 75}, {"time": 2318, "pitch": 50, "duration": 13, "velocity": 55}, {"time": 2318, "pitch": 58, "duration": 3, "velocity": 67}, {"time": 2318, "pitch": 62, "duration": 2, "velocity": 63}, {"time": 2327, "pitch": 57, "duration": 4, "velocity": 67}, {"time": 2327, "pitch": 60, "duration": 5, "velocity": 69}, {"time": 2330, "pitch": 41, "duration": 4, "velocity": 60}, {"time": 2336, "pitch": 58, "duration": 4, "velocity": 61}, {"time": 2336, "pitch": 62, "duration": 5, "velocity": 75}, {"time": 2342, "pitch": 39, "duration": 39, "velocity": 46}, {"time": 2342, "pitch": 55, "duration": 11, "velocity": 66}, {"time": 2342, "pitch": 58, "duration": 11, "velocity": 64}, {"time": 2342, "pitch": 65, "duration": 12, "velocity": 73}, {"time": 2348, "pitch": 46, "duration": 34, "velocity": 50}, {"time": 2354, "pitch": 51, "duration": 13, "velocity": 50}, {"time": 2360, "pitch": 55, "duration": 4, "velocity": 52}, {"time": 2366, "pitch": 55, "duration": 6, "velocity": 61}, {"time": 2366, "pitch": 58, "duration": 6, "velocity": 63}, {"time": 2366, "pitch": 67, "duration": 6, "velocity": 67}, {"time": 2369, "pitch": 51, "duration": 3, "velocity": 38}, {"time": 2375, "pitch": 55, "duration": 4, "velocity": 58}, {"time": 2375, "pitch": 58, "duration": 2, "velocity": 36}, {"time": 2375, "pitch": 65, "duration": 6, "velocity": 58}, {"time": 2378, "pitch": 51, "duration": 5, "velocity": 50}, {"time": 2384, "pitch": 55, "duration": 3, "velocity": 50}, {"time": 2384, "pitch": 60, "duration": 4, "velocity": 60}, {"time": 2390, "pitch": 41, "duration": 22, "velocity": 63}, {"time": 2390, "pitch": 57, "duration": 12, "velocity": 70}, {"time": 2390, "pitch": 60, "duration": 12, "velocity": 73}, {"time": 2396, "pitch": 48, "duration": 17, "velocity": 44}, {"time": 2402, "pitch": 53, "duration": 8, "velocity": 47}, {"time": 2408, "pitch": 57, "duration": 7, "velocity": 72}, {"time": 2408, "pitch": 60, "duration": 5, "velocity": 67}, {"time": 2408, "pitch": 65, "duration": 7, "velocity": 66}, {"time": 2420, "pitch": 57, "duration": 10, "velocity": 62}, {"time": 2426, "pitch": 58, "duration": 6, "velocity": 76}, {"time": 2432, "pitch": 60, "duration": 4, "velocity": 58}, {"time": 2438, "pitch": 46, "duration": 42, "velocity": 62}, {"time": 2438, "pitch": 60, "duration": 13, "velocity": 63}, {"time": 2438, "pitch": 62, "duration": 12, "velocity": 70}, {"time": 2438, "pitch": 65, "duration": 12, "velocity": 70}, {"time": 2444, "pitch": 53, "duration": 43, "velocity": 51}, {"time": 2450, "pitch": 58, "duration": 19, "velocity": 58}, {"time": 2456, "pitch": 60, "duration": 10, "velocity": 73}, {"time": 2468, "pitch": 60, "duration": 2, "velocity": 45}, {"time": 2468, "pitch": 62, "duration": 9, "velocity": 76}, {"time": 2471, "pitch": 58, "duration": 8, "velocity": 52}, {"time": 2480, "pitch": 60, "duration": 4, "velocity": 41}, {"time": 2483, "pitch": 65, "duration": 9, "velocity": 47}, {"time": 2486, "pitch": 46, "duration": 8, "velocity": 72}, {"time": 2486, "pitch": 70, "duration": 7, "velocity": 59}, {"time": 2486, "pitch": 74, "duration": 9, "velocity": 63}, {"time": 2498, "pitch": 45, "duration": 13, "velocity": 69}, {"time": 2498, "pitch": 65, "duration": 5, "velocity": 70}, {"time": 2498, "pitch": 72, "duration": 4, "velocity": 78}, {"time": 2510, "pitch": 43, "duration": 13, "velocity": 63}, {"time": 2510, "pitch": 62, "duration": 8, "velocity": 66}, {"time": 2510, "pitch": 70, "duration": 17, "velocity": 72}, {"time": 2522, "pitch": 41, "duration": 12, "velocity": 64}, {"time": 2522, "pitch": 60, "duration": 7, "velocity": 69}, {"time": 2522, "pitch": 69, "duration": 4, "velocity": 80}, {"time": 2534, "pitch": 39, "duration": 11, "velocity": 66}, {"time": 2534, "pitch": 58, "duration": 26, "velocity": 73}, {"time": 2534, "pitch": 63, "duration": 22, "velocity": 78}, {"time": 2534, "pitch": 67, "duration": 25, "velocity": 72}, {"time": 2540, "pitch": 46, "duration": 6, "velocity": 64}, {"time": 2546, "pitch": 51, "duration": 8, "velocity": 56}, {"time": 2552, "pitch": 53, "duration": 15, "velocity": 50}, {"time": 2558, "pitch": 55, "duration": 9, "velocity": 61}, {"time": 2564, "pitch": 58, "duration": 8, "velocity": 82}, {"time": 2570, "pitch": 63, "duration": 10, "velocity": 73}, {"time": 2576, "pitch": 67, "duration": 5, "velocity": 47}, {"time": 2582, "pitch": 39, "duration": 11, "velocity": 69}, {"time": 2582, "pitch": 60, "duration": 8, "velocity": 69}, {"time": 2582, "pitch": 65, "duration": 8, "velocity": 69}, {"time": 2582, "pitch": 69, "duration": 7, "velocity": 78}, {"time": 2588, "pitch": 46, "duration": 6, "velocity": 55}, {"time": 2591, "pitch": 51, "duration": 8, "velocity": 59}, {"time": 2591, "pitch": 60, "duration": 2, "velocity": 63}, {"time": 2591, "pitch": 65, "duration": 2, "velocity": 69}, {"time": 2591, "pitch": 69, "duration": 2, "velocity": 67}, {"time": 2597, "pitch": 53, "duration": 23, "velocity": 41}, {"time": 2600, "pitch": 60, "duration": 9, "velocity": 66}, {"time": 2600, "pitch": 65, "duration": 9, "velocity": 69}, {"time": 2600, "pitch": 72, "duration": 9, "velocity": 76}, {"time": 2612, "pitch": 62, "duration": 8, "velocity": 67}, {"time": 2612, "pitch": 69, "duration": 9, "velocity": 66}, {"time": 2618, "pitch": 55, "duration": 3, "velocity": 52}, {"time": 2621, "pitch": 67, "duration": 8, "velocity": 63}, {"time": 2630, "pitch": 38, "duration": 7, "velocity": 66}, {"time": 2630, "pitch": 60, "duration": 19, "velocity": 64}, {"time": 2630, "pitch": 65, "duration": 18, "velocity": 69}, {"time": 2636, "pitch": 50, "duration": 8, "velocity": 66}, {"time": 2642, "pitch": 53, "duration": 22, "velocity": 48}, {"time": 2648, "pitch": 57, "duration": 14, "velocity": 50}, {"time": 2654, "pitch": 60, "duration": 8, "velocity": 88}, {"time": 2660, "pitch": 65, "duration": 8, "velocity": 64}, {"time": 2666, "pitch": 67, "duration": 7, "velocity": 72}, {"time": 2672, "pitch": 69, "duration": 6, "velocity": 61}, {"time": 2678, "pitch": 43, "duration": 23, "velocity": 50}, {"time": 2678, "pitch": 62, "duration": 9, "velocity": 62}, {"time": 2678, "pitch": 65, "duration": 13, "velocity": 67}, {"time": 2678, "pitch": 70, "duration": 10, "velocity": 60}, {"time": 2684, "pitch": 50, "duration": 15, "velocity": 48}, {"time": 2690, "pitch": 62, "duration": 4, "velocity": 66}, {"time": 2690, "pitch": 69, "duration": 6, "velocity": 72}, {"time": 2696, "pitch": 55, "duration": 5, "velocity": 53}, {"time": 2696, "pitch": 62, "duration": 4, "velocity": 58}, {"time": 2696, "pitch": 70, "duration": 4, "velocity": 72}, {"time": 2699, "pitch": 50, "duration": 5, "velocity": 32}, {"time": 2702, "pitch": 41, "duration": 14, "velocity": 75}, {"time": 2702, "pitch": 62, "duration": 4, "velocity": 70}, {"time": 2702, "pitch": 69, "duration": 4, "velocity": 70}, {"time": 2708, "pitch": 50, "duration": 9, "velocity": 61}, {"time": 2714, "pitch": 53, "duration": 3, "velocity": 67}, {"time": 2714, "pitch": 65, "duration": 4, "velocity": 73}, {"time": 2720, "pitch": 58, "duration": 4, "velocity": 67}, {"time": 2726, "pitch": 39, "duration": 12, "velocity": 64}, {"time": 2726, "pitch": 58, "duration": 19, "velocity": 63}, {"time": 2726, "pitch": 63, "duration": 16, "velocity": 69}, {"time": 2726, "pitch": 67, "duration": 16, "velocity": 67}, {"time": 2732, "pitch": 46, "duration": 7, "velocity": 48}, {"time": 2738, "pitch": 51, "duration": 8, "velocity": 61}, {"time": 2744, "pitch": 53, "duration": 10, "velocity": 52}, {"time": 2750, "pitch": 55, "duration": 8, "velocity": 58}, {"time": 2750, "pitch": 58, "duration": 18, "velocity": 61}, {"time": 2750, "pitch": 63, "duration": 18, "velocity": 62}, {"time": 2750, "pitch": 67, "duration": 20, "velocity": 57}, {"time": 2756, "pitch": 53, "duration": 10, "velocity": 58}, {"time": 2768, "pitch": 50, "duration": 6, "velocity": 47}, {"time": 2774, "pitch": 41, "duration": 36, "velocity": 63}, {"time": 2774, "pitch": 58, "duration": 4, "velocity": 61}, {"time": 2774, "pitch": 62, "duration": 10, "velocity": 67}, {"time": 2774, "pitch": 65, "duration": 10, "velocity": 67}, {"time": 2780, "pitch": 48, "duration": 14, "velocity": 51}, {"time": 2786, "pitch": 53, "duration": 17, "velocity": 48}, {"time": 2792, "pitch": 57, "duration": 14, "velocity": 69}, {"time": 2792, "pitch": 60, "duration": 12, "velocity": 70}, {"time": 2792, "pitch": 65, "duration": 11, "velocity": 61}, {"time": 2804, "pitch": 48, "duration": 7, "velocity": 45}, {"time": 2810, "pitch": 57, "duration": 10, "velocity": 60}, {"time": 2822, "pitch": 46, "duration": 40, "velocity": 52}, {"time": 2822, "pitch": 58, "duration": 6, "velocity": 67}, {"time": 2822, "pitch": 62, "duration": 8, "velocity": 67}, {"time": 2828, "pitch": 53, "duration": 34, "velocity": 53}, {"time": 2834, "pitch": 58, "duration": 21, "velocity": 49}, {"time": 2840, "pitch": 60, "duration": 9, "velocity": 66}, {"time": 2840, "pitch": 65, "duration": 11, "velocity": 69}, {"time": 2852, "pitch": 62, "duration": 9, "velocity": 60}, {"time": 2858, "pitch": 58, "duration": 6, "velocity": 38}, {"time": 2864, "pitch": 60, "duration": 4, "velocity": 58}, {"time": 2867, "pitch": 62, "duration": 4, "velocity": 61}, {"time": 2870, "pitch": 46, "duration": 39, "velocity": 60}, {"time": 2870, "pitch": 63, "duration": 6, "velocity": 59}, {"time": 2876, "pitch": 53, "duration": 9, "velocity": 62}, {"time": 2876, "pitch": 62, "duration": 6, "velocity": 67}, {"time": 2882, "pitch": 58, "duration": 8, "velocity": 48}, {"time": 2882, "pitch": 60, "duration": 9, "velocity": 61}, {"time": 2888, "pitch": 53, "duration": 23, "velocity": 61}, {"time": 2888, "pitch": 62, "duration": 7, "velocity": 58}, {"time": 2894, "pitch": 63, "duration": 5, "velocity": 63}, {"time": 2900, "pitch": 65, "duration": 8, "velocity": 69}, {"time": 2906, "pitch": 67, "duration": 5, "velocity": 61}, {"time": 2912, "pitch": 69, "duration": 6, "velocity": 57}, {"time": 2918, "pitch": 48, "duration": 34, "velocity": 63}, {"time": 2918, "pitch": 63, "duration": 14, "velocity": 58}, {"time": 2918, "pitch": 67, "duration": 13, "velocity": 61}, {"time": 2924, "pitch": 55, "duration": 29, "velocity": 43}, {"time": 2930, "pitch": 60, "duration": 24, "velocity": 53}, {"time": 2936, "pitch": 62, "duration": 14, "velocity": 54}, {"time": 2948, "pitch": 63, "duration": 3, "velocity": 61}, {"time": 2966, "pitch": 50, "duration": 35, "velocity": 55}, {"time": 2966, "pitch": 62, "duration": 8, "velocity": 62}, {"time": 2966, "pitch": 65, "duration": 8, "velocity": 67}, {"time": 2972, "pitch": 57, "duration": 28, "velocity": 46}, {"time": 2978, "pitch": 60, "duration": 21, "velocity": 52}, {"time": 2984, "pitch": 65, "duration": 13, "velocity": 63}, {"time": 2996, "pitch": 69, "duration": 14, "velocity": 61}, {"time": 3014, "pitch": 43, "duration": 9, "velocity": 56}, {"time": 3014, "pitch": 70, "duration": 17, "velocity": 72}, {"time": 3020, "pitch": 50, "duration": 5, "velocity": 44}, {"time": 3026, "pitch": 55, "duration": 8, "velocity": 45}, {"time": 3032, "pitch": 57, "duration": 15, "velocity": 48}, {"time": 3032, "pitch": 62, "duration": 13, "velocity": 49}, {"time": 3032, "pitch": 69, "duration": 12, "velocity": 49}, {"time": 3044, "pitch": 58, "duration": 3, "velocity": 61}, {"time": 3059, "pitch": 58, "duration": 21, "velocity": 40}, {"time": 3062, "pitch": 43, "duration": 38, "velocity": 39}, {"time": 3062, "pitch": 55, "duration": 31, "velocity": 44}, {"time": 3062, "pitch": 62, "duration": 18, "velocity": 47}, {"time": 3062, "pitch": 67, "duration": 17, "velocity": 60}, {"time": 3086, "pitch": 57, "duration": 4, "velocity": 49}, {"time": 3086, "pitch": 65, "duration": 4, "velocity": 56}, {"time": 3098, "pitch": 60, "duration": 2, "velocity": 52}, {"time": 3110, "pitch": 48, "duration": 34, "velocity": 46}, {"time": 3110, "pitch": 63, "duration": 13, "velocity": 57}, {"time": 3110, "pitch": 67, "duration": 16, "velocity": 55}, {"time": 3116, "pitch": 55, "duration": 28, "velocity": 36}, {"time": 3122, "pitch": 60, "duration": 23, "velocity": 43}, {"time": 3128, "pitch": 62, "duration": 8, "velocity": 52}, {"time": 3134, "pitch": 63, "duration": 10, "velocity": 62}, {"time": 3158, "pitch": 50, "duration": 35, "velocity": 49}, {"time": 3158, "pitch": 62, "duration": 8, "velocity": 49}, {"time": 3158, "pitch": 65, "duration": 9, "velocity": 55}, {"time": 3158, "pitch": 70, "duration": 12, "velocity": 51}, {"time": 3164, "pitch": 58, "duration": 26, "velocity": 53}, {"time": 3170, "pitch": 62, "duration": 23, "velocity": 52}, {"time": 3176, "pitch": 65, "duration": 15, "velocity": 64}, {"time": 3188, "pitch": 70, "duration": 18, "velocity": 54}, {"time": 3206, "pitch": 43, "duration": 89, "velocity": 47}, {"time": 3206, "pitch": 62, "duration": 10, "velocity": 50}, {"time": 3206, "pitch": 69, "duration": 12, "velocity": 52}, {"time": 3212, "pitch": 50, "duration": 83, "velocity": 43}, {"time": 3218, "pitch": 55, "duration": 14, "velocity": 34}, {"time": 3224, "pitch": 58, "duration": 12, "velocity": 55}, {"time": 3224, "pitch": 67, "duration": 11, "velocity": 66}, {"time": 3239, "pitch": 55, "duration": 9, "velocity": 3}, {"time": 3254, "pitch": 55, "duration": 20, "velocity": 25}, {"time": 3254, "pitch": 57, "duration": 31, "velocity": 30}, {"time": 3254, "pitch": 65, "duration": 29, "velocity": 32}, {"time": 3278, "pitch": 55, "duration": 15, "velocity": 26}, {"time": 3278, "pitch": 58, "duration": 7, "velocity": 42}, {"time": 3284, "pitch": 60, "duration": 8, "velocity": 55}, {"time": 3290, "pitch": 62, "duration": 4, "velocity": 63}, {"time": 3302, "pitch": 58, "duration": 16, "velocity": 63}, {"time": 3302, "pitch": 60, "duration": 6, "velocity": 66}, {"time": 3302, "pitch": 61, "duration": 14, "velocity": 73}, {"time": 3302, "pitch": 65, "duration": 14, "velocity": 72}, {"time": 3314, "pitch": 60, "duration": 23, "velocity": 45}, {"time": 3320, "pitch": 58, "duration": 20, "velocity": 56}, {"time": 3320, "pitch": 61, "duration": 12, "velocity": 73}, {"time": 3320, "pitch": 65, "duration": 12, "velocity": 64}, {"time": 3338, "pitch": 60, "duration": 9, "velocity": 60}, {"time": 3338, "pitch": 61, "duration": 10, "velocity": 73}, {"time": 3338, "pitch": 65, "duration": 10, "velocity": 73}, {"time": 3344, "pitch": 58, "duration": 5, "velocity": 63}, {"time": 3350, "pitch": 55, "duration": 28, "velocity": 69}, {"time": 3350, "pitch": 58, "duration": 15, "velocity": 64}, {"time": 3350, "pitch": 61, "duration": 17, "velocity": 75}, {"time": 3350, "pitch": 65, "duration": 11, "velocity": 73}, {"time": 3368, "pitch": 58, "duration": 14, "velocity": 72}, {"time": 3368, "pitch": 61, "duration": 14, "velocity": 70}, {"time": 3368, "pitch": 65, "duration": 14, "velocity": 76}, {"time": 3380, "pitch": 55, "duration": 9, "velocity": 58}, {"time": 3386, "pitch": 58, "duration": 11, "velocity": 63}, {"time": 3386, "pitch": 61, "duration": 12, "velocity": 73}, {"time": 3386, "pitch": 65, "duration": 12, "velocity": 72}, {"time": 3392, "pitch": 55, "duration": 7, "velocity": 63}, {"time": 3398, "pitch": 51, "duration": 16, "velocity": 46}, {"time": 3398, "pitch": 58, "duration": 16, "velocity": 67}, {"time": 3398, "pitch": 61, "duration": 16, "velocity": 72}, {"time": 3398, "pitch": 66, "duration": 15, "velocity": 72}, {"time": 3416, "pitch": 51, "duration": 21, "velocity": 72}, {"time": 3416, "pitch": 58, "duration": 15, "velocity": 63}, {"time": 3416, "pitch": 61, "duration": 15, "velocity": 70}, {"time": 3416, "pitch": 66, "duration": 13, "velocity": 70}, {"time": 3434, "pitch": 58, "duration": 9, "velocity": 66}, {"time": 3434, "pitch": 61, "duration": 12, "velocity": 70}, {"time": 3434, "pitch": 66, "duration": 11, "velocity": 69}, {"time": 3440, "pitch": 51, "duration": 5, "velocity": 66}, {"time": 3446, "pitch": 51, "duration": 15, "velocity": 69}, {"time": 3446, "pitch": 58, "duration": 15, "velocity": 66}, {"time": 3446, "pitch": 63, "duration": 14, "velocity": 72}, {"time": 3446, "pitch": 66, "duration": 14, "velocity": 52}, {"time": 3464, "pitch": 51, "duration": 30, "velocity": 56}, {"time": 3464, "pitch": 58, "duration": 13, "velocity": 57}, {"time": 3464, "pitch": 63, "duration": 12, "velocity": 64}, {"time": 3464, "pitch": 66, "duration": 12, "velocity": 56}, {"time": 3482, "pitch": 58, "duration": 6, "velocity": 70}, {"time": 3485, "pitch": 63, "duration": 7, "velocity": 55}, {"time": 3488, "pitch": 65, "duration": 6, "velocity": 66}, {"time": 3494, "pitch": 56, "duration": 25, "velocity": 70}, {"time": 3494, "pitch": 63, "duration": 16, "velocity": 72}, {"time": 3494, "pitch": 68, "duration": 13, "velocity": 73}, {"time": 3494, "pitch": 72, "duration": 16, "velocity": 73}, {"time": 3512, "pitch": 63, "duration": 13, "velocity": 64}, {"time": 3512, "pitch": 68, "duration": 13, "velocity": 69}, {"time": 3512, "pitch": 72, "duration": 13, "velocity": 57}, {"time": 3512, "pitch": 75, "duration": 13, "velocity": 67}, {"time": 3524, "pitch": 56, "duration": 9, "velocity": 60}, {"time": 3530, "pitch": 63, "duration": 6, "velocity": 69}, {"time": 3530, "pitch": 68, "duration": 6, "velocity": 70}, {"time": 3530, "pitch": 72, "duration": 10, "velocity": 67}, {"time": 3536, "pitch": 56, "duration": 4, "velocity": 55}, {"time": 3542, "pitch": 53, "duration": 42, "velocity": 72}, {"time": 3542, "pitch": 65, "duration": 15, "velocity": 85}, {"time": 3542, "pitch": 69, "duration": 16, "velocity": 68}, {"time": 3542, "pitch": 72, "duration": 13, "velocity": 73}, {"time": 3554, "pitch": 60, "duration": 20, "velocity": 56}, {"time": 3560, "pitch": 65, "duration": 9, "velocity": 70}, {"time": 3560, "pitch": 72, "duration": 10, "velocity": 73}, {"time": 3572, "pitch": 65, "duration": 9, "velocity": 67}, {"time": 3572, "pitch": 72, "duration": 9, "velocity": 60}, {"time": 3578, "pitch": 60, "duration": 3, "velocity": 64}, {"time": 3587, "pitch": 65, "duration": 2, "velocity": 40}, {"time": 3590, "pitch": 46, "duration": 43, "velocity": 70}, {"time": 3590, "pitch": 58, "duration": 10, "velocity": 82}, {"time": 3590, "pitch": 62, "duration": 20, "velocity": 76}, {"time": 3590, "pitch": 65, "duration": 20, "velocity": 80}, {"time": 3590, "pitch": 70, "duration": 19, "velocity": 60}, {"time": 3605, "pitch": 58, "duration": 11, "velocity": 19}, {"time": 3614, "pitch": 62, "duration": 21, "velocity": 75}, {"time": 3614, "pitch": 65, "duration": 16, "velocity": 78}, {"time": 3614, "pitch": 70, "duration": 20, "velocity": 69}, {"time": 3626, "pitch": 58, "duration": 7, "velocity": 54}, {"time": 3632, "pitch": 67, "duration": 5, "velocity": 61}, {"time": 3638, "pitch": 38, "duration": 8, "velocity": 63}, {"time": 3638, "pitch": 62, "duration": 18, "velocity": 66}, {"time": 3638, "pitch": 66, "duration": 19, "velocity": 70}, {"time": 3638, "pitch": 69, "duration": 21, "velocity": 70}, {"time": 3644, "pitch": 50, "duration": 8, "velocity": 63}, {"time": 3650, "pitch": 55, "duration": 24, "velocity": 75}, {"time": 3656, "pitch": 57, "duration": 18, "velocity": 59}, {"time": 3662, "pitch": 62, "duration": 9, "velocity": 75}, {"time": 3668, "pitch": 66, "duration": 7, "velocity": 88}, {"time": 3674, "pitch": 67, "duration": 7, "velocity": 73}, {"time": 3680, "pitch": 69, "duration": 6, "velocity": 72}, {"time": 3686, "pitch": 43, "duration": 93, "velocity": 78}, {"time": 3686, "pitch": 62, "duration": 4, "velocity": 76}, {"time": 3686, "pitch": 67, "duration": 4, "velocity": 76}, {"time": 3686, "pitch": 70, "duration": 4, "velocity": 76}, {"time": 3692, "pitch": 62, "duration": 12, "velocity": 75}, {"time": 3692, "pitch": 67, "duration": 12, "velocity": 72}, {"time": 3692, "pitch": 70, "duration": 13, "velocity": 75}, {"time": 3698, "pitch": 50, "duration": 13, "velocity": 56}, {"time": 3704, "pitch": 55, "duration": 15, "velocity": 49}, {"time": 3710, "pitch": 60, "duration": 6, "velocity": 70}, {"time": 3710, "pitch": 69, "duration": 6, "velocity": 62}, {"time": 3716, "pitch": 50, "duration": 15, "velocity": 48}, {"time": 3719, "pitch": 60, "duration": 3, "velocity": 67}, {"time": 3719, "pitch": 67, "duration": 2, "velocity": 67}, {"time": 3722, "pitch": 55, "duration": 8, "velocity": 44}, {"time": 3728, "pitch": 58, "duration": 5, "velocity": 73}, {"time": 3728, "pitch": 65, "duration": 4, "velocity": 76}, {"time": 3740, "pitch": 50, "duration": 41, "velocity": 53}, {"time": 3746, "pitch": 57, "duration": 8, "velocity": 67}, {"time": 3746, "pitch": 62, "duration": 7, "velocity": 69}, {"time": 3752, "pitch": 58, "duration": 7, "velocity": 75}, {"time": 3758, "pitch": 60, "duration": 8, "velocity": 69}, {"time": 3764, "pitch": 62, "duration": 4, "velocity": 73}, {"time": 3770, "pitch": 65, "duration": 5, "velocity": 69}, {"time": 3776, "pitch": 67, "duration": 4, "velocity": 44}, {"time": 3782, "pitch": 43, "duration": 4, "velocity": 73}, {"time": 3782, "pitch": 55, "duration": 3, "velocity": 76}, {"time": 3782, "pitch": 62, "duration": 4, "velocity": 82}, {"time": 3782, "pitch": 65, "duration": 4, "velocity": 75}, {"time": 3782, "pitch": 70, "duration": 4, "velocity": 75}, {"time": 3788, "pitch": 43, "duration": 85, "velocity": 75}, {"time": 3788, "pitch": 55, "duration": 12, "velocity": 82}, {"time": 3788, "pitch": 62, "duration": 13, "velocity": 73}, {"time": 3788, "pitch": 65, "duration": 9, "velocity": 64}, {"time": 3788, "pitch": 67, "duration": 12, "velocity": 75}, {"time": 3788, "pitch": 70, "duration": 13, "velocity": 76}, {"time": 3800, "pitch": 50, "duration": 25, "velocity": 42}, {"time": 3806, "pitch": 60, "duration": 6, "velocity": 66}, {"time": 3806, "pitch": 69, "duration": 5, "velocity": 70}, {"time": 3812, "pitch": 55, "duration": 4, "velocity": 36}, {"time": 3815, "pitch": 58, "duration": 2, "velocity": 53}, {"time": 3815, "pitch": 60, "duration": 2, "velocity": 46}, {"time": 3815, "pitch": 65, "duration": 2, "velocity": 66}, {"time": 3818, "pitch": 55, "duration": 8, "velocity": 38}, {"time": 3824, "pitch": 57, "duration": 11, "velocity": 48}, {"time": 3824, "pitch": 62, "duration": 9, "velocity": 64}, {"time": 3836, "pitch": 50, "duration": 42, "velocity": 63}, {"time": 3842, "pitch": 57, "duration": 3, "velocity": 91}, {"time": 3845, "pitch": 58, "duration": 2, "velocity": 63}, {"time": 3848, "pitch": 62, "duration": 4, "velocity": 70}, {"time": 3851, "pitch": 67, "duration": 5, "velocity": 56}, {"time": 3854, "pitch": 69, "duration": 4, "velocity": 62}, {"time": 3857, "pitch": 70, "duration": 6, "velocity": 58}, {"time": 3860, "pitch": 69, "duration": 4, "velocity": 69}, {"time": 3863, "pitch": 67, "duration": 3, "velocity": 57}, {"time": 3866, "pitch": 62, "duration": 4, "velocity": 62}, {"time": 3869, "pitch": 60, "duration": 3, "velocity": 66}, {"time": 3872, "pitch": 58, "duration": 4, "velocity": 58}, {"time": 3878, "pitch": 43, "duration": 15, "velocity": 56}, {"time": 3878, "pitch": 58, "duration": 13, "velocity": 46}, {"time": 3878, "pitch": 62, "duration": 14, "velocity": 41}, {"time": 3878, "pitch": 67, "duration": 14, "velocity": 36}, {"time": 3884, "pitch": 50, "duration": 42, "velocity": 48}, {"time": 3890, "pitch": 43, "duration": 3, "velocity": 48}, {"time": 3890, "pitch": 55, "duration": 32, "velocity": 47}, {"time": 3896, "pitch": 58, "duration": 14, "velocity": 47}, {"time": 3908, "pitch": 62, "duration": 7, "velocity": 41}, {"time": 3920, "pitch": 58, "duration": 10, "velocity": 16}, {"time": 3920, "pitch": 62, "duration": 13, "velocity": 48}, {"time": 3920, "pitch": 67, "duration": 16, "velocity": 55}, {"time": 3926, "pitch": 43, "duration": 17, "velocity": 43}, {"time": 3932, "pitch": 50, "duration": 13, "velocity": 42}, {"time": 3938, "pitch": 55, "duration": 5, "velocity": 32}, {"time": 3956, "pitch": 41, "duration": 8, "velocity": 56}, {"time": 3956, "pitch": 57, "duration": 5, "velocity": 47}, {"time": 3956, "pitch": 60, "duration": 4, "velocity": 56}, {"time": 3956, "pitch": 65, "duration": 5, "velocity": 48}, {"time": 3974, "pitch": 51, "duration": 44, "velocity": 54}, {"time": 3974, "pitch": 58, "duration": 8, "velocity": 49}, {"time": 3974, "pitch": 63, "duration": 8, "velocity": 49}, {"time": 3974, "pitch": 67, "duration": 7, "velocity": 48}, {"time": 3980, "pitch": 55, "duration": 22, "velocity": 44}, {"time": 3986, "pitch": 58, "duration": 15, "velocity": 40}, {"time": 3992, "pitch": 67, "duration": 18, "velocity": 55}, {"time": 4004, "pitch": 55, "duration": 14, "velocity": 34}, {"time": 4010, "pitch": 58, "duration": 18, "velocity": 31}, {"time": 4016, "pitch": 63, "duration": 13, "velocity": 44}, {"time": 4022, "pitch": 51, "duration": 17, "velocity": 40}, {"time": 4028, "pitch": 55, "duration": 11, "velocity": 34}, {"time": 4034, "pitch": 58, "duration": 5, "velocity": 33}, {"time": 4040, "pitch": 63, "duration": 2, "velocity": 41}, {"time": 4046, "pitch": 50, "duration": 16, "velocity": 46}, {"time": 4046, "pitch": 58, "duration": 6, "velocity": 49}, {"time": 4046, "pitch": 65, "duration": 7, "velocity": 52}, {"time": 4052, "pitch": 55, "duration": 7, "velocity": 44}, {"time": 4058, "pitch": 58, "duration": 5, "velocity": 43}, {"time": 4064, "pitch": 70, "duration": 22, "velocity": 46}, {"time": 4070, "pitch": 48, "duration": 39, "velocity": 44}, {"time": 4070, "pitch": 60, "duration": 8, "velocity": 46}, {"time": 4070, "pitch": 63, "duration": 9, "velocity": 44}, {"time": 4076, "pitch": 55, "duration": 20, "velocity": 37}, {"time": 4082, "pitch": 60, "duration": 16, "velocity": 37}, {"time": 4088, "pitch": 63, "duration": 17, "velocity": 39}, {"time": 4100, "pitch": 55, "duration": 13, "velocity": 29}, {"time": 4106, "pitch": 60, "duration": 7, "velocity": 30}, {"time": 4112, "pitch": 67, "duration": 12, "velocity": 44}, {"time": 4118, "pitch": 48, "duration": 25, "velocity": 47}, {"time": 4124, "pitch": 55, "duration": 13, "velocity": 38}, {"time": 4130, "pitch": 58, "duration": 6, "velocity": 40}, {"time": 4136, "pitch": 62, "duration": 20, "velocity": 60}, {"time": 4145, "pitch": 55, "duration": 9, "velocity": 33}, {"time": 4154, "pitch": 38, "duration": 8, "velocity": 46}, {"time": 4160, "pitch": 55, "duration": 4, "velocity": 37}, {"time": 4166, "pitch": 43, "duration": 41, "velocity": 64}, {"time": 4166, "pitch": 58, "duration": 11, "velocity": 51}, {"time": 4166, "pitch": 62, "duration": 12, "velocity": 48}, {"time": 4172, "pitch": 50, "duration": 42, "velocity": 51}, {"time": 4178, "pitch": 55, "duration": 9, "velocity": 53}, {"time": 4184, "pitch": 58, "duration": 18, "velocity": 56}, {"time": 4184, "pitch": 62, "duration": 12, "velocity": 55}, {"time": 4196, "pitch": 55, "duration": 8, "velocity": 31}, {"time": 4202, "pitch": 57, "duration": 5, "velocity": 34}, {"time": 4205, "pitch": 60, "duration": 3, "velocity": 24}, {"time": 4208, "pitch": 58, "duration": 15, "velocity": 53}, {"time": 4208, "pitch": 62, "duration": 14, "velocity": 55}, {"time": 4214, "pitch": 43, "duration": 17, "velocity": 42}, {"time": 4220, "pitch": 50, "duration": 16, "velocity": 40}, {"time": 4226, "pitch": 55, "duration": 4, "velocity": 32}, {"time": 4232, "pitch": 57, "duration": 11, "velocity": 48}, {"time": 4232, "pitch": 60, "duration": 7, "velocity": 48}, {"time": 4238, "pitch": 41, "duration": 14, "velocity": 35}, {"time": 4244, "pitch": 50, "duration": 12, "velocity": 48}, {"time": 4250, "pitch": 57, "duration": 6, "velocity": 44}, {"time": 4256, "pitch": 60, "duration": 6, "velocity": 35}, {"time": 4262, "pitch": 43, "duration": 44, "velocity": 48}, {"time": 4262, "pitch": 58, "duration": 13, "velocity": 53}, {"time": 4262, "pitch": 62, "duration": 12, "velocity": 51}, {"time": 4286, "pitch": 58, "duration": 12, "velocity": 47}, {"time": 4286, "pitch": 62, "duration": 11, "velocity": 46}, {"time": 4301, "pitch": 55, "duration": 8, "velocity": 16}, {"time": 4307, "pitch": 50, "duration": 6, "velocity": 44}, {"time": 4310, "pitch": 43, "duration": 33, "velocity": 54}, {"time": 4310, "pitch": 57, "duration": 11, "velocity": 48}, {"time": 4310, "pitch": 60, "duration": 16, "velocity": 56}, {"time": 4328, "pitch": 55, "duration": 8, "velocity": 37}, {"time": 4334, "pitch": 58, "duration": 9, "velocity": 53}, {"time": 4334, "pitch": 62, "duration": 8, "velocity": 54}, {"time": 4340, "pitch": 55, "duration": 3, "velocity": 36}, {"time": 4346, "pitch": 57, "duration": 6, "velocity": 48}, {"time": 4346, "pitch": 60, "duration": 7, "velocity": 52}, {"time": 4352, "pitch": 41, "duration": 5, "velocity": 59}, {"time": 4358, "pitch": 39, "duration": 36, "velocity": 45}, {"time": 4358, "pitch": 55, "duration": 14, "velocity": 47}, {"time": 4358, "pitch": 58, "duration": 14, "velocity": 52}, {"time": 4358, "pitch": 62, "duration": 9, "velocity": 49}, {"time": 4376, "pitch": 51, "duration": 10, "velocity": 31}, {"time": 4382, "pitch": 55, "duration": 7, "velocity": 40}, {"time": 4382, "pitch": 58, "duration": 8, "velocity": 47}, {"time": 4382, "pitch": 62, "duration": 9, "velocity": 47}, {"time": 4394, "pitch": 58, "duration": 7, "velocity": 41}, {"time": 4400, "pitch": 65, "duration": 6, "velocity": 62}, {"time": 4406, "pitch": 39, "duration": 38, "velocity": 53}, {"time": 4406, "pitch": 58, "duration": 18, "velocity": 44}, {"time": 4406, "pitch": 63, "duration": 13, "velocity": 47}, {"time": 4406, "pitch": 67, "duration": 14, "velocity": 46}, {"time": 4424, "pitch": 51, "duration": 13, "velocity": 39}, {"time": 4430, "pitch": 58, "duration": 12, "velocity": 50}, {"time": 4430, "pitch": 63, "duration": 10, "velocity": 59}, {"time": 4430, "pitch": 67, "duration": 13, "velocity": 54}, {"time": 4442, "pitch": 51, "duration": 4, "velocity": 53}, {"time": 4454, "pitch": 38, "duration": 44, "velocity": 46}, {"time": 4454, "pitch": 50, "duration": 55, "velocity": 47}, {"time": 4454, "pitch": 62, "duration": 19, "velocity": 55}, {"time": 4454, "pitch": 65, "duration": 16, "velocity": 58}, {"time": 4454, "pitch": 69, "duration": 19, "velocity": 55}, {"time": 4478, "pitch": 62, "duration": 21, "velocity": 51}, {"time": 4478, "pitch": 65, "duration": 16, "velocity": 56}, {"time": 4478, "pitch": 69, "duration": 20, "velocity": 52}, {"time": 4502, "pitch": 38, "duration": 38, "velocity": 42}, {"time": 4502, "pitch": 62, "duration": 18, "velocity": 43}, {"time": 4502, "pitch": 65, "duration": 17, "velocity": 49}, {"time": 4502, "pitch": 72, "duration": 14, "velocity": 49}, {"time": 4511, "pitch": 69, "duration": 5, "velocity": 1}, {"time": 4520, "pitch": 50, "duration": 15, "velocity": 37}, {"time": 4526, "pitch": 62, "duration": 13, "velocity": 59}, {"time": 4526, "pitch": 65, "duration": 9, "velocity": 63}, {"time": 4526, "pitch": 69, "duration": 10, "velocity": 60}, {"time": 4538, "pitch": 50, "duration": 6, "velocity": 33}, {"time": 4550, "pitch": 43, "duration": 13, "velocity": 48}, {"time": 4550, "pitch": 62, "duration": 12, "velocity": 47}, {"time": 4550, "pitch": 70, "duration": 14, "velocity": 56}, {"time": 4556, "pitch": 50, "duration": 7, "velocity": 43}, {"time": 4562, "pitch": 55, "duration": 20, "velocity": 47}, {"time": 4568, "pitch": 62, "duration": 12, "velocity": 51}, {"time": 4568, "pitch": 69, "duration": 13, "velocity": 63}, {"time": 4580, "pitch": 57, "duration": 3, "velocity": 50}, {"time": 4586, "pitch": 65, "duration": 6, "velocity": 66}, {"time": 4592, "pitch": 58, "duration": 16, "velocity": 46}, {"time": 4592, "pitch": 67, "duration": 27, "velocity": 59}, {"time": 4598, "pitch": 43, "duration": 39, "velocity": 39}, {"time": 4604, "pitch": 50, "duration": 31, "velocity": 44}, {"time": 4610, "pitch": 55, "duration": 26, "velocity": 38}, {"time": 4616, "pitch": 60, "duration": 8, "velocity": 36}, {"time": 4622, "pitch": 65, "duration": 6, "velocity": 54}, {"time": 4628, "pitch": 67, "duration": 8, "velocity": 46}, {"time": 4634, "pitch": 60, "duration": 4, "velocity": 34}, {"time": 4646, "pitch": 39, "duration": 35, "velocity": 72}, {"time": 4646, "pitch": 58, "duration": 15, "velocity": 58}, {"time": 4646, "pitch": 62, "duration": 13, "velocity": 61}, {"time": 4652, "pitch": 46, "duration": 28, "velocity": 32}, {"time": 4658, "pitch": 51, "duration": 27, "velocity": 60}, {"time": 4664, "pitch": 55, "duration": 7, "velocity": 78}, {"time": 4670, "pitch": 58, "duration": 6, "velocity": 66}, {"time": 4676, "pitch": 60, "duration": 3, "velocity": 72}, {"time": 4682, "pitch": 62, "duration": 7, "velocity": 64}, {"time": 4688, "pitch": 67, "duration": 7, "velocity": 66}, {"time": 4694, "pitch": 51, "duration": 30, "velocity": 63}, {"time": 4694, "pitch": 69, "duration": 6, "velocity": 63}, {"time": 4700, "pitch": 58, "duration": 27, "velocity": 47}, {"time": 4700, "pitch": 70, "duration": 3, "velocity": 59}, {"time": 4706, "pitch": 74, "duration": 5, "velocity": 45}, {"time": 4712, "pitch": 67, "duration": 9, "velocity": 55}, {"time": 4718, "pitch": 63, "duration": 8, "velocity": 45}, {"time": 4718, "pitch": 70, "duration": 7, "velocity": 70}, {"time": 4724, "pitch": 72, "duration": 5, "velocity": 58}, {"time": 4730, "pitch": 74, "duration": 6, "velocity": 50}, {"time": 4736, "pitch": 77, "duration": 7, "velocity": 64}, {"time": 4742, "pitch": 43, "duration": 9, "velocity": 62}, {"time": 4742, "pitch": 74, "duration": 22, "velocity": 67}, {"time": 4748, "pitch": 50, "duration": 7, "velocity": 44}, {"time": 4754, "pitch": 55, "duration": 8, "velocity": 39}, {"time": 4760, "pitch": 57, "duration": 15, "velocity": 48}, {"time": 4766, "pitch": 58, "duration": 8, "velocity": 63}, {"time": 4772, "pitch": 62, "duration": 8, "velocity": 59}, {"time": 4778, "pitch": 67, "duration": 6, "velocity": 51}, {"time": 4784, "pitch": 69, "duration": 7, "velocity": 61}, {"time": 4790, "pitch": 43, "duration": 16, "velocity": 66}, {"time": 4790, "pitch": 70, "duration": 11, "velocity": 70}, {"time": 4796, "pitch": 50, "duration": 19, "velocity": 48}, {"time": 4796, "pitch": 62, "duration": 12, "velocity": 57}, {"time": 4802, "pitch": 55, "duration": 6, "velocity": 48}, {"time": 4802, "pitch": 69, "duration": 6, "velocity": 55}, {"time": 4808, "pitch": 70, "duration": 15, "velocity": 72}, {"time": 4814, "pitch": 41, "duration": 14, "velocity": 69}, {"time": 4814, "pitch": 60, "duration": 14, "velocity": 59}, {"time": 4814, "pitch": 69, "duration": 11, "velocity": 70}, {"time": 4820, "pitch": 50, "duration": 10, "velocity": 55}, {"time": 4826, "pitch": 53, "duration": 4, "velocity": 53}, {"time": 4826, "pitch": 65, "duration": 4, "velocity": 69}, {"time": 4838, "pitch": 51, "duration": 27, "velocity": 63}, {"time": 4838, "pitch": 58, "duration": 16, "velocity": 63}, {"time": 4838, "pitch": 63, "duration": 14, "velocity": 67}, {"time": 4838, "pitch": 67, "duration": 14, "velocity": 67}, {"time": 4850, "pitch": 55, "duration": 14, "velocity": 48}, {"time": 4856, "pitch": 58, "duration": 4, "velocity": 41}, {"time": 4862, "pitch": 58, "duration": 8, "velocity": 59}, {"time": 4862, "pitch": 63, "duration": 9, "velocity": 73}, {"time": 4862, "pitch": 67, "duration": 9, "velocity": 66}, {"time": 4868, "pitch": 51, "duration": 5, "velocity": 46}, {"time": 4868, "pitch": 55, "duration": 5, "velocity": 48}, {"time": 4874, "pitch": 58, "duration": 6, "velocity": 58}, {"time": 4880, "pitch": 63, "duration": 4, "velocity": 63}, {"time": 4886, "pitch": 36, "duration": 38, "velocity": 67}, {"time": 4886, "pitch": 60, "duration": 17, "velocity": 66}, {"time": 4886, "pitch": 63, "duration": 17, "velocity": 69}, {"time": 4886, "pitch": 67, "duration": 14, "velocity": 66}, {"time": 4901, "pitch": 48, "duration": 2, "velocity": 40}, {"time": 4907, "pitch": 48, "duration": 9, "velocity": 44}, {"time": 4910, "pitch": 60, "duration": 14, "velocity": 69}, {"time": 4910, "pitch": 63, "duration": 12, "velocity": 73}, {"time": 4910, "pitch": 67, "duration": 11, "velocity": 67}, {"time": 4922, "pitch": 48, "duration": 4, "velocity": 59}, {"time": 4934, "pitch": 38, "duration": 42, "velocity": 70}, {"time": 4940, "pitch": 50, "duration": 32, "velocity": 55}, {"time": 4946, "pitch": 55, "duration": 7, "velocity": 69}, {"time": 4952, "pitch": 57, "duration": 3, "velocity": 64}, {"time": 4958, "pitch": 62, "duration": 7, "velocity": 69}, {"time": 4964, "pitch": 67, "duration": 6, "velocity": 61}, {"time": 4970, "pitch": 69, "duration": 3, "velocity": 62}, {"time": 4976, "pitch": 50, "duration": 20, "velocity": 52}, {"time": 4976, "pitch": 62, "duration": 21, "velocity": 49}, {"time": 4982, "pitch": 38, "duration": 15, "velocity": 67}, {"time": 4982, "pitch": 74, "duration": 14, "velocity": 75}, {"time": 5030, "pitch": 51, "duration": 45, "velocity": 62}, {"time": 5030, "pitch": 74, "duration": 6, "velocity": 66}, {"time": 5036, "pitch": 58, "duration": 9, "velocity": 33}, {"time": 5036, "pitch": 67, "duration": 5, "velocity": 58}, {"time": 5042, "pitch": 62, "duration": 5, "velocity": 38}, {"time": 5042, "pitch": 63, "duration": 5, "velocity": 38}, {"time": 5042, "pitch": 70, "duration": 5, "velocity": 64}, {"time": 5048, "pitch": 58, "duration": 12, "velocity": 55}, {"time": 5048, "pitch": 67, "duration": 5, "velocity": 51}, {"time": 5054, "pitch": 62, "duration": 15, "velocity": 54}, {"time": 5054, "pitch": 77, "duration": 8, "velocity": 70}, {"time": 5060, "pitch": 67, "duration": 5, "velocity": 46}, {"time": 5066, "pitch": 58, "duration": 10, "velocity": 61}, {"time": 5066, "pitch": 79, "duration": 4, "velocity": 55}, {"time": 5072, "pitch": 67, "duration": 6, "velocity": 54}, {"time": 5078, "pitch": 51, "duration": 34, "velocity": 61}, {"time": 5078, "pitch": 72, "duration": 6, "velocity": 67}, {"time": 5084, "pitch": 65, "duration": 8, "velocity": 55}, {"time": 5090, "pitch": 69, "duration": 5, "velocity": 57}, {"time": 5096, "pitch": 65, "duration": 9, "velocity": 49}, {"time": 5102, "pitch": 58, "duration": 14, "velocity": 58}, {"time": 5102, "pitch": 77, "duration": 6, "velocity": 66}, {"time": 5108, "pitch": 65, "duration": 8, "velocity": 58}, {"time": 5114, "pitch": 72, "duration": 6, "velocity": 67}, {"time": 5120, "pitch": 65, "duration": 11, "velocity": 58}, {"time": 5126, "pitch": 50, "duration": 34, "velocity": 60}, {"time": 5126, "pitch": 69, "duration": 5, "velocity": 62}, {"time": 5132, "pitch": 57, "duration": 8, "velocity": 56}, {"time": 5138, "pitch": 60, "duration": 4, "velocity": 60}, {"time": 5138, "pitch": 65, "duration": 8, "velocity": 63}, {"time": 5144, "pitch": 62, "duration": 4, "velocity": 64}, {"time": 5144, "pitch": 67, "duration": 5, "velocity": 75}, {"time": 5150, "pitch": 62, "duration": 2, "velocity": 44}, {"time": 5150, "pitch": 65, "duration": 3, "velocity": 58}, {"time": 5150, "pitch": 69, "duration": 5, "velocity": 57}, {"time": 5156, "pitch": 57, "duration": 3, "velocity": 63}, {"time": 5156, "pitch": 65, "duration": 2, "velocity": 51}, {"time": 5156, "pitch": 70, "duration": 3, "velocity": 58}, {"time": 5162, "pitch": 72, "duration": 3, "velocity": 72}, {"time": 5168, "pitch": 74, "duration": 5, "velocity": 70}, {"time": 5174, "pitch": 43, "duration": 29, "velocity": 58}, {"time": 5174, "pitch": 70, "duration": 7, "velocity": 72}, {"time": 5180, "pitch": 50, "duration": 14, "velocity": 48}, {"time": 5186, "pitch": 55, "duration": 16, "velocity": 48}, {"time": 5192, "pitch": 58, "duration": 3, "velocity": 60}, {"time": 5192, "pitch": 62, "duration": 4, "velocity": 75}, {"time": 5198, "pitch": 50, "duration": 13, "velocity": 55}, {"time": 5198, "pitch": 58, "duration": 3, "velocity": 67}, {"time": 5198, "pitch": 62, "duration": 2, "velocity": 63}, {"time": 5207, "pitch": 57, "duration": 4, "velocity": 67}, {"time": 5207, "pitch": 60, "duration": 5, "velocity": 69}, {"time": 5210, "pitch": 41, "duration": 4, "velocity": 60}, {"time": 5216, "pitch": 58, "duration": 4, "velocity": 61}, {"time": 5216, "pitch": 62, "duration": 5, "velocity": 75}, {"time": 5222, "pitch": 39, "duration": 39, "velocity": 46}, {"time": 5222, "pitch": 55, "duration": 11, "velocity": 66}, {"time": 5222, "pitch": 58, "duration": 11, "velocity": 64}, {"time": 5222, "pitch": 65, "duration": 12, "velocity": 73}, {"time": 5228, "pitch": 46, "duration": 34, "velocity": 50}, {"time": 5234, "pitch": 51, "duration": 13, "velocity": 50}, {"time": 5240, "pitch": 55, "duration": 4, "velocity": 52}, {"time": 5246, "pitch": 55, "duration": 6, "velocity": 61}, {"time": 5246, "pitch": 58, "duration": 6, "velocity": 63}, {"time": 5246, "pitch": 67, "duration": 6, "velocity": 67}, {"time": 5249, "pitch": 51, "duration": 3, "velocity": 38}, {"time": 5255, "pitch": 55, "duration": 4, "velocity": 58}, {"time": 5255, "pitch": 58, "duration": 2, "velocity": 36}, {"time": 5255, "pitch": 65, "duration": 6, "velocity": 58}, {"time": 5258, "pitch": 51, "duration": 5, "velocity": 50}, {"time": 5264, "pitch": 55, "duration": 3, "velocity": 50}, {"time": 5264, "pitch": 60, "duration": 4, "velocity": 60}, {"time": 5270, "pitch": 41, "duration": 22, "velocity": 63}, {"time": 5270, "pitch": 57, "duration": 12, "velocity": 70}, {"time": 5270, "pitch": 60, "duration": 12, "velocity": 73}, {"time": 5276, "pitch": 48, "duration": 17, "velocity": 44}, {"time": 5282, "pitch": 53, "duration": 8, "velocity": 47}, {"time": 5288, "pitch": 57, "duration": 7, "velocity": 72}, {"time": 5288, "pitch": 60, "duration": 5, "velocity": 67}, {"time": 5288, "pitch": 65, "duration": 7, "velocity": 66}, {"time": 5300, "pitch": 57, "duration": 10, "velocity": 62}, {"time": 5306, "pitch": 58, "duration": 6, "velocity": 76}, {"time": 5312, "pitch": 60, "duration": 4, "velocity": 58}, {"time": 5318, "pitch": 46, "duration": 42, "velocity": 62}, {"time": 5318, "pitch": 60, "duration": 13, "velocity": 63}, {"time": 5318, "pitch": 62, "duration": 12, "velocity": 70}, {"time": 5318, "pitch": 65, "duration": 12, "velocity": 70}, {"time": 5324, "pitch": 53, "duration": 43, "velocity": 51}, {"time": 5330, "pitch": 58, "duration": 19, "velocity": 58}, {"time": 5336, "pitch": 60, "duration": 10, "velocity": 73}, {"time": 5348, "pitch": 60, "duration": 2, "velocity": 45}, {"time": 5348, "pitch": 62, "duration": 9, "velocity": 76}, {"time": 5351, "pitch": 58, "duration": 8, "velocity": 52}, {"time": 5360, "pitch": 60, "duration": 4, "velocity": 41}, {"time": 5363, "pitch": 65, "duration": 9, "velocity": 47}, {"time": 5366, "pitch": 46, "duration": 8, "velocity": 72}, {"time": 5366, "pitch": 70, "duration": 7, "velocity": 59}, {"time": 5366, "pitch": 74, "duration": 9, "velocity": 63}, {"time": 5378, "pitch": 45, "duration": 13, "velocity": 69}, {"time": 5378, "pitch": 65, "duration": 5, "velocity": 70}, {"time": 5378, "pitch": 72, "duration": 4, "velocity": 78}, {"time": 5390, "pitch": 43, "duration": 13, "velocity": 63}, {"time": 5390, "pitch": 62, "duration": 8, "velocity": 66}, {"time": 5390, "pitch": 70, "duration": 17, "velocity": 72}, {"time": 5402, "pitch": 41, "duration": 12, "velocity": 64}, {"time": 5402, "pitch": 60, "duration": 7, "velocity": 69}, {"time": 5402, "pitch": 69, "duration": 4, "velocity": 80}, {"time": 5414, "pitch": 39, "duration": 11, "velocity": 66}, {"time": 5414, "pitch": 58, "duration": 26, "velocity": 73}, {"time": 5414, "pitch": 63, "duration": 22, "velocity": 78}, {"time": 5414, "pitch": 67, "duration": 25, "velocity": 72}, {"time": 5420, "pitch": 46, "duration": 6, "velocity": 64}, {"time": 5426, "pitch": 51, "duration": 8, "velocity": 56}, {"time": 5432, "pitch": 53, "duration": 15, "velocity": 50}, {"time": 5438, "pitch": 55, "duration": 9, "velocity": 61}, {"time": 5444, "pitch": 58, "duration": 8, "velocity": 82}, {"time": 5450, "pitch": 63, "duration": 10, "velocity": 73}, {"time": 5456, "pitch": 67, "duration": 5, "velocity": 47}, {"time": 5462, "pitch": 39, "duration": 11, "velocity": 69}, {"time": 5462, "pitch": 60, "duration": 8, "velocity": 69}, {"time": 5462, "pitch": 65, "duration": 8, "velocity": 69}, {"time": 5462, "pitch": 69, "duration": 7, "velocity": 78}, {"time": 5468, "pitch": 46, "duration": 6, "velocity": 55}, {"time": 5471, "pitch": 51, "duration": 8, "velocity": 59}, {"time": 5471, "pitch": 60, "duration": 2, "velocity": 63}, {"time": 5471, "pitch": 65, "duration": 2, "velocity": 69}, {"time": 5471, "pitch": 69, "duration": 2, "velocity": 67}, {"time": 5477, "pitch": 53, "duration": 23, "velocity": 41}, {"time": 5480, "pitch": 60, "duration": 9, "velocity": 66}, {"time": 5480, "pitch": 65, "duration": 9, "velocity": 69}, {"time": 5480, "pitch": 72, "duration": 9, "velocity": 76}, {"time": 5492, "pitch": 62, "duration": 8, "velocity": 67}, {"time": 5492, "pitch": 69, "duration": 9, "velocity": 66}, {"time": 5498, "pitch": 55, "duration": 3, "velocity": 52}, {"time": 5501, "pitch": 67, "duration": 8, "velocity": 63}, {"time": 5510, "pitch": 38, "duration": 7, "velocity": 66}, {"time": 5510, "pitch": 60, "duration": 19, "velocity": 64}, {"time": 5510, "pitch": 65, "duration": 18, "velocity": 69}, {"time": 5516, "pitch": 50, "duration": 8, "velocity": 66}, {"time": 5522, "pitch": 53, "duration": 22, "velocity": 48}, {"time": 5528, "pitch": 57, "duration": 14, "velocity": 50}, {"time": 5534, "pitch": 60, "duration": 8, "velocity": 88}, {"time": 5540, "pitch": 65, "duration": 8, "velocity": 64}, {"time": 5546, "pitch": 67, "duration": 7, "velocity": 72}, {"time": 5552, "pitch": 69, "duration": 6, "velocity": 61}, {"time": 5558, "pitch": 43, "duration": 23, "velocity": 50}, {"time": 5558, "pitch": 62, "duration": 9, "velocity": 62}, {"time": 5558, "pitch": 65, "duration": 13, "velocity": 67}, {"time": 5558, "pitch": 70, "duration": 10, "velocity": 60}, {"time": 5564, "pitch": 50, "duration": 15, "velocity": 48}, {"time": 5570, "pitch": 62, "duration": 4, "velocity": 66}, {"time": 5570, "pitch": 69, "duration": 6, "velocity": 72}, {"time": 5576, "pitch": 55, "duration": 5, "velocity": 53}, {"time": 5576, "pitch": 62, "duration": 4, "velocity": 58}, {"time": 5576, "pitch": 70, "duration": 4, "velocity": 72}, {"time": 5579, "pitch": 50, "duration": 5, "velocity": 32}, {"time": 5582, "pitch": 41, "duration": 14, "velocity": 75}, {"time": 5582, "pitch": 62, "duration": 4, "velocity": 70}, {"time": 5582, "pitch": 69, "duration": 4, "velocity": 70}, {"time": 5588, "pitch": 50, "duration": 9, "velocity": 61}, {"time": 5594, "pitch": 53, "duration": 3, "velocity": 67}, {"time": 5594, "pitch": 65, "duration": 4, "velocity": 73}, {"time": 5600, "pitch": 58, "duration": 4, "velocity": 67}, {"time": 5606, "pitch": 39, "duration": 12, "velocity": 64}, {"time": 5606, "pitch": 58, "duration": 19, "velocity": 63}, {"time": 5606, "pitch": 63, "duration": 16, "velocity": 69}, {"time": 5606, "pitch": 67, "duration": 16, "velocity": 67}, {"time": 5612, "pitch": 46, "duration": 7, "velocity": 48}, {"time": 5618, "pitch": 51, "duration": 8, "velocity": 61}, {"time": 5624, "pitch": 53, "duration": 10, "velocity": 52}, {"time": 5630, "pitch": 55, "duration": 8, "velocity": 58}, {"time": 5630, "pitch": 58, "duration": 18, "velocity": 61}, {"time": 5630, "pitch": 63, "duration": 18, "velocity": 62}, {"time": 5630, "pitch": 67, "duration": 20, "velocity": 57}, {"time": 5636, "pitch": 53, "duration": 10, "velocity": 58}, {"time": 5648, "pitch": 50, "duration": 6, "velocity": 47}, {"time": 5654, "pitch": 41, "duration": 36, "velocity": 63}, {"time": 5654, "pitch": 58, "duration": 4, "velocity": 61}, {"time": 5654, "pitch": 62, "duration": 10, "velocity": 67}, {"time": 5654, "pitch": 65, "duration": 10, "velocity": 67}, {"time": 5660, "pitch": 48, "duration": 14, "velocity": 51}, {"time": 5666, "pitch": 53, "duration": 17, "velocity": 48}, {"time": 5672, "pitch": 57, "duration": 14, "velocity": 69}, {"time": 5672, "pitch": 60, "duration": 12, "velocity": 70}, {"time": 5672, "pitch": 65, "duration": 11, "velocity": 61}, {"time": 5684, "pitch": 48, "duration": 7, "velocity": 45}, {"time": 5690, "pitch": 57, "duration": 10, "velocity": 60}, {"time": 5702, "pitch": 46, "duration": 40, "velocity": 52}, {"time": 5702, "pitch": 58, "duration": 6, "velocity": 67}, {"time": 5702, "pitch": 62, "duration": 8, "velocity": 67}, {"time": 5708, "pitch": 53, "duration": 34, "velocity": 53}, {"time": 5714, "pitch": 58, "duration": 21, "velocity": 49}, {"time": 5720, "pitch": 60, "duration": 9, "velocity": 66}, {"time": 5720, "pitch": 65, "duration": 11, "velocity": 69}, {"time": 5732, "pitch": 62, "duration": 9, "velocity": 60}, {"time": 5738, "pitch": 58, "duration": 6, "velocity": 38}, {"time": 5744, "pitch": 60, "duration": 4, "velocity": 58}, {"time": 5747, "pitch": 62, "duration": 4, "velocity": 61}, {"time": 5750, "pitch": 46, "duration": 39, "velocity": 60}, {"time": 5750, "pitch": 63, "duration": 6, "velocity": 59}, {"time": 5756, "pitch": 53, "duration": 9, "velocity": 62}, {"time": 5756, "pitch": 62, "duration": 6, "velocity": 67}, {"time": 5762, "pitch": 58, "duration": 8, "velocity": 48}, {"time": 5762, "pitch": 60, "duration": 9, "velocity": 61}, {"time": 5768, "pitch": 53, "duration": 23, "velocity": 61}, {"time": 5768, "pitch": 62, "duration": 7, "velocity": 58}, {"time": 5774, "pitch": 63, "duration": 5, "velocity": 63}, {"time": 5780, "pitch": 65, "duration": 8, "velocity": 69}, {"time": 5786, "pitch": 67, "duration": 5, "velocity": 61}, {"time": 5792, "pitch": 69, "duration": 6, "velocity": 57}, {"time": 5798, "pitch": 48, "duration": 34, "velocity": 63}, {"time": 5798, "pitch": 63, "duration": 14, "velocity": 58}, {"time": 5798, "pitch": 67, "duration": 13, "velocity": 61}, {"time": 5804, "pitch": 55, "duration": 29, "velocity": 43}, {"time": 5810, "pitch": 60, "duration": 24, "velocity": 53}, {"time": 5816, "pitch": 62, "duration": 14, "velocity": 54}, {"time": 5828, "pitch": 63, "duration": 3, "velocity": 61}, {"time": 5846, "pitch": 50, "duration": 35, "velocity": 55}, {"time": 5846, "pitch": 62, "duration": 8, "velocity": 62}, {"time": 5846, "pitch": 65, "duration": 8, "velocity": 67}, {"time": 5852, "pitch": 57, "duration": 28, "velocity": 46}, {"time": 5858, "pitch": 60, "duration": 21, "velocity": 52}, {"time": 5864, "pitch": 65, "duration": 13, "velocity": 63}, {"time": 5876, "pitch": 69, "duration": 14, "velocity": 61}, {"time": 5894, "pitch": 43, "duration": 9, "velocity": 56}, {"time": 5894, "pitch": 70, "duration": 17, "velocity": 72}, {"time": 5900, "pitch": 50, "duration": 5, "velocity": 44}, {"time": 5906, "pitch": 55, "duration": 8, "velocity": 45}, {"time": 5912, "pitch": 57, "duration": 15, "velocity": 48}, {"time": 5912, "pitch": 62, "duration": 13, "velocity": 49}, {"time": 5912, "pitch": 69, "duration": 12, "velocity": 49}, {"time": 5924, "pitch": 43, "duration": 39, "velocity": 66}, {"time": 5924, "pitch": 58, "duration": 3, "velocity": 61}, {"time": 5930, "pitch": 50, "duration": 35, "velocity": 56}, {"time": 5936, "pitch": 55, "duration": 27, "velocity": 50}, {"time": 5936, "pitch": 57, "duration": 6, "velocity": 59}, {"time": 5939, "pitch": 58, "duration": 3, "velocity": 40}, {"time": 5942, "pitch": 58, "duration": 7, "velocity": 69}, {"time": 5948, "pitch": 60, "duration": 5, "velocity": 72}, {"time": 5954, "pitch": 62, "duration": 8, "velocity": 76}, {"time": 5960, "pitch": 67, "duration": 5, "velocity": 56}, {"time": 5963, "pitch": 69, "duration": 1, "velocity": 59}, {"time": 5966, "pitch": 43, "duration": 7, "velocity": 76}, {"time": 5966, "pitch": 55, "duration": 7, "velocity": 82}, {"time": 5966, "pitch": 62, "duration": 7, "velocity": 88}, {"time": 5966, "pitch": 67, "duration": 7, "velocity": 80}, {"time": 5966, "pitch": 70, "duration": 7, "velocity": 64}, {"time": 5975, "pitch": 43, "duration": 5, "velocity": 76}, {"time": 5975, "pitch": 55, "duration": 4, "velocity": 67}, {"time": 5975, "pitch": 62, "duration": 6, "velocity": 80}, {"time": 5975, "pitch": 67, "duration": 7, "velocity": 76}, {"time": 5975, "pitch": 70, "duration": 6, "velocity": 78}, {"time": 5984, "pitch": 41, "duration": 5, "velocity": 82}, {"time": 5984, "pitch": 53, "duration": 4, "velocity": 75}, {"time": 5984, "pitch": 60, "duration": 4, "velocity": 80}, {"time": 5984, "pitch": 65, "duration": 4, "velocity": 85}, {"time": 5984, "pitch": 69, "duration": 4, "velocity": 82}, {"time": 5990, "pitch": 39, "duration": 7, "velocity": 80}, {"time": 5990, "pitch": 58, "duration": 19, "velocity": 78}, {"time": 5990, "pitch": 62, "duration": 19, "velocity": 82}, {"time": 5990, "pitch": 67, "duration": 19, "velocity": 80}, {"time": 5996, "pitch": 51, "duration": 8, "velocity": 70}, {"time": 6002, "pitch": 53, "duration": 28, "velocity": 53}, {"time": 6008, "pitch": 55, "duration": 22, "velocity": 72}, {"time": 6014, "pitch": 58, "duration": 7, "velocity": 80}, {"time": 6020, "pitch": 63, "duration": 8, "velocity": 72}, {"time": 6026, "pitch": 65, "duration": 7, "velocity": 66}, {"time": 6032, "pitch": 70, "duration": 7, "velocity": 80}, {"time": 6038, "pitch": 39, "duration": 11, "velocity": 78}, {"time": 6038, "pitch": 60, "duration": 8, "velocity": 78}, {"time": 6038, "pitch": 65, "duration": 8, "velocity": 78}, {"time": 6038, "pitch": 69, "duration": 11, "velocity": 76}, {"time": 6044, "pitch": 46, "duration": 6, "velocity": 63}, {"time": 6047, "pitch": 51, "duration": 6, "velocity": 59}, {"time": 6047, "pitch": 60, "duration": 3, "velocity": 67}, {"time": 6047, "pitch": 65, "duration": 3, "velocity": 61}, {"time": 6047, "pitch": 70, "duration": 3, "velocity": 75}, {"time": 6053, "pitch": 53, "duration": 25, "velocity": 63}, {"time": 6056, "pitch": 60, "duration": 9, "velocity": 70}, {"time": 6056, "pitch": 65, "duration": 9, "velocity": 67}, {"time": 6056, "pitch": 72, "duration": 16, "velocity": 80}, {"time": 6062, "pitch": 55, "duration": 14, "velocity": 73}, {"time": 6068, "pitch": 60, "duration": 4, "velocity": 72}, {"time": 6074, "pitch": 60, "duration": 2, "velocity": 43}, {"time": 6074, "pitch": 65, "duration": 5, "velocity": 93}, {"time": 6074, "pitch": 72, "duration": 2, "velocity": 58}, {"time": 6080, "pitch": 72, "duration": 5, "velocity": 78}, {"time": 6086, "pitch": 50, "duration": 45, "velocity": 85}, {"time": 6086, "pitch": 60, "duration": 5, "velocity": 75}, {"time": 6086, "pitch": 65, "duration": 7, "velocity": 78}, {"time": 6086, "pitch": 69, "duration": 8, "velocity": 82}, {"time": 6092, "pitch": 57, "duration": 15, "velocity": 69}, {"time": 6095, "pitch": 62, "duration": 5, "velocity": 67}, {"time": 6095, "pitch": 67, "duration": 9, "velocity": 64}, {"time": 6104, "pitch": 60, "duration": 8, "velocity": 80}, {"time": 6104, "pitch": 65, "duration": 9, "velocity": 80}, {"time": 6104, "pitch": 69, "duration": 8, "velocity": 78}, {"time": 6113, "pitch": 57, "duration": 16, "velocity": 62}, {"time": 6116, "pitch": 60, "duration": 4, "velocity": 97}, {"time": 6119, "pitch": 65, "duration": 4, "velocity": 63}, {"time": 6122, "pitch": 67, "duration": 5, "velocity": 64}, {"time": 6125, "pitch": 69, "duration": 3, "velocity": 69}, {"time": 6128, "pitch": 72, "duration": 4, "velocity": 70}, {"time": 6131, "pitch": 69, "duration": 4, "velocity": 75}, {"time": 6134, "pitch": 43, "duration": 8, "velocity": 93}, {"time": 6134, "pitch": 62, "duration": 6, "velocity": 91}, {"time": 6134, "pitch": 65, "duration": 8, "velocity": 63}, {"time": 6134, "pitch": 67, "duration": 2, "velocity": 63}, {"time": 6134, "pitch": 70, "duration": 9, "velocity": 95}, {"time": 6140, "pitch": 50, "duration": 5, "velocity": 57}, {"time": 6143, "pitch": 55, "duration": 6, "velocity": 69}, {"time": 6143, "pitch": 60, "duration": 3, "velocity": 85}, {"time": 6143, "pitch": 69, "duration": 9, "velocity": 82}, {"time": 6149, "pitch": 57, "duration": 22, "velocity": 47}, {"time": 6152, "pitch": 62, "duration": 4, "velocity": 82}, {"time": 6152, "pitch": 69, "duration": 1, "velocity": 66}, {"time": 6152, "pitch": 70, "duration": 7, "velocity": 64}, {"time": 6158, "pitch": 58, "duration": 12, "velocity": 72}, {"time": 6158, "pitch": 62, "duration": 3, "velocity": 66}, {"time": 6158, "pitch": 69, "duration": 8, "velocity": 82}, {"time": 6170, "pitch": 60, "duration": 4, "velocity": 91}, {"time": 6170, "pitch": 65, "duration": 4, "velocity": 103}, {"time": 6176, "pitch": 63, "duration": 4, "velocity": 95}, {"time": 6182, "pitch": 39, "duration": 10, "velocity": 73}, {"time": 6182, "pitch": 58, "duration": 9, "velocity": 91}, {"time": 6182, "pitch": 63, "duration": 10, "velocity": 78}, {"time": 6182, "pitch": 67, "duration": 7, "velocity": 69}, {"time": 6188, "pitch": 46, "duration": 6, "velocity": 69}, {"time": 6194, "pitch": 51, "duration": 8, "velocity": 59}, {"time": 6200, "pitch": 53, "duration": 22, "velocity": 56}, {"time": 6206, "pitch": 55, "duration": 14, "velocity": 70}, {"time": 6209, "pitch": 58, "duration": 3, "velocity": 88}, {"time": 6212, "pitch": 63, "duration": 5, "velocity": 67}, {"time": 6215, "pitch": 65, "duration": 4, "velocity": 59}, {"time": 6218, "pitch": 67, "duration": 3, "velocity": 66}, {"time": 6221, "pitch": 70, "duration": 5, "velocity": 73}, {"time": 6224, "pitch": 69, "duration": 4, "velocity": 63}, {"time": 6227, "pitch": 67, "duration": 3, "velocity": 48}, {"time": 6230, "pitch": 41, "duration": 10, "velocity": 72}, {"time": 6230, "pitch": 60, "duration": 8, "velocity": 70}, {"time": 6230, "pitch": 65, "duration": 3, "velocity": 45}, {"time": 6230, "pitch": 69, "duration": 11, "velocity": 97}, {"time": 6236, "pitch": 48, "duration": 6, "velocity": 49}, {"time": 6242, "pitch": 53, "duration": 8, "velocity": 45}, {"time": 6242, "pitch": 60, "duration": 4, "velocity": 61}, {"time": 6242, "pitch": 67, "duration": 6, "velocity": 72}, {"time": 6248, "pitch": 55, "duration": 15, "velocity": 72}, {"time": 6248, "pitch": 60, "duration": 5, "velocity": 72}, {"time": 6248, "pitch": 69, "duration": 4, "velocity": 78}, {"time": 6254, "pitch": 57, "duration": 7, "velocity": 49}, {"time": 6260, "pitch": 60, "duration": 7, "velocity": 82}, {"time": 6260, "pitch": 72, "duration": 6, "velocity": 73}, {"time": 6266, "pitch": 57, "duration": 2, "velocity": 63}, {"time": 6272, "pitch": 67, "duration": 4, "velocity": 58}, {"time": 6278, "pitch": 50, "duration": 38, "velocity": 69}, {"time": 6278, "pitch": 60, "duration": 8, "velocity": 80}, {"time": 6278, "pitch": 65, "duration": 8, "velocity": 93}, {"time": 6278, "pitch": 69, "duration": 7, "velocity": 91}, {"time": 6284, "pitch": 57, "duration": 15, "velocity": 62}, {"time": 6290, "pitch": 60, "duration": 6, "velocity": 78}, {"time": 6296, "pitch": 65, "duration": 12, "velocity": 75}, {"time": 6308, "pitch": 57, "duration": 7, "velocity": 73}, {"time": 6314, "pitch": 65, "duration": 5, "velocity": 97}, {"time": 6326, "pitch": 43, "duration": 21, "velocity": 72}, {"time": 6326, "pitch": 62, "duration": 8, "velocity": 69}, {"time": 6326, "pitch": 65, "duration": 10, "velocity": 72}, {"time": 6326, "pitch": 70, "duration": 9, "velocity": 88}, {"time": 6332, "pitch": 50, "duration": 16, "velocity": 60}, {"time": 6338, "pitch": 55, "duration": 8, "velocity": 70}, {"time": 6338, "pitch": 62, "duration": 5, "velocity": 91}, {"time": 6338, "pitch": 69, "duration": 5, "velocity": 73}, {"time": 6344, "pitch": 65, "duration": 3, "velocity": 52}, {"time": 6344, "pitch": 70, "duration": 4, "velocity": 73}, {"time": 6350, "pitch": 43, "duration": 7, "velocity": 73}, {"time": 6350, "pitch": 55, "duration": 7, "velocity": 88}, {"time": 6350, "pitch": 62, "duration": 7, "velocity": 97}, {"time": 6350, "pitch": 70, "duration": 7, "velocity": 91}, {"time": 6359, "pitch": 43, "duration": 6, "velocity": 95}, {"time": 6359, "pitch": 55, "duration": 3, "velocity": 88}, {"time": 6359, "pitch": 60, "duration": 6, "velocity": 88}, {"time": 6359, "pitch": 69, "duration": 6, "velocity": 93}, {"time": 6368, "pitch": 41, "duration": 4, "velocity": 78}, {"time": 6368, "pitch": 53, "duration": 3, "velocity": 64}, {"time": 6368, "pitch": 60, "duration": 4, "velocity": 67}, {"time": 6368, "pitch": 65, "duration": 6, "velocity": 88}, {"time": 6374, "pitch": 39, "duration": 10, "velocity": 80}, {"time": 6374, "pitch": 51, "duration": 9, "velocity": 91}, {"time": 6374, "pitch": 58, "duration": 10, "velocity": 85}, {"time": 6374, "pitch": 63, "duration": 12, "velocity": 82}, {"time": 6374, "pitch": 67, "duration": 8, "velocity": 85}, {"time": 6380, "pitch": 46, "duration": 6, "velocity": 64}, {"time": 6392, "pitch": 53, "duration": 15, "velocity": 50}, {"time": 6398, "pitch": 55, "duration": 9, "velocity": 61}, {"time": 6404, "pitch": 58, "duration": 8, "velocity": 82}, {"time": 6410, "pitch": 63, "duration": 10, "velocity": 73}, {"time": 6416, "pitch": 67, "duration": 5, "velocity": 47}, {"time": 6422, "pitch": 39, "duration": 11, "velocity": 69}, {"time": 6422, "pitch": 60, "duration": 8, "velocity": 69}, {"time": 6422, "pitch": 65, "duration": 8, "velocity": 69}, {"time": 6422, "pitch": 69, "duration": 7, "velocity": 78}, {"time": 6428, "pitch": 46, "duration": 6, "velocity": 55}, {"time": 6431, "pitch": 51, "duration": 8, "velocity": 59}, {"time": 6431, "pitch": 60, "duration": 2, "velocity": 63}, {"time": 6431, "pitch": 65, "duration": 2, "velocity": 69}, {"time": 6431, "pitch": 69, "duration": 2, "velocity": 67}, {"time": 6437, "pitch": 53, "duration": 23, "velocity": 41}, {"time": 6440, "pitch": 60, "duration": 9, "velocity": 66}, {"time": 6440, "pitch": 65, "duration": 9, "velocity": 69}, {"time": 6440, "pitch": 72, "duration": 9, "velocity": 76}, {"time": 6452, "pitch": 62, "duration": 8, "velocity": 67}, {"time": 6452, "pitch": 69, "duration": 9, "velocity": 66}, {"time": 6458, "pitch": 55, "duration": 3, "velocity": 52}, {"time": 6461, "pitch": 67, "duration": 8, "velocity": 63}, {"time": 6470, "pitch": 38, "duration": 7, "velocity": 66}, {"time": 6470, "pitch": 60, "duration": 19, "velocity": 64}, {"time": 6470, "pitch": 65, "duration": 18, "velocity": 69}, {"time": 6476, "pitch": 50, "duration": 8, "velocity": 66}, {"time": 6482, "pitch": 53, "duration": 22, "velocity": 48}, {"time": 6488, "pitch": 57, "duration": 14, "velocity": 50}, {"time": 6494, "pitch": 60, "duration": 8, "velocity": 88}, {"time": 6500, "pitch": 65, "duration": 8, "velocity": 64}, {"time": 6506, "pitch": 67, "duration": 7, "velocity": 72}, {"time": 6512, "pitch": 69, "duration": 6, "velocity": 61}, {"time": 6518, "pitch": 43, "duration": 23, "velocity": 50}, {"time": 6518, "pitch": 62, "duration": 9, "velocity": 62}, {"time": 6518, "pitch": 65, "duration": 13, "velocity": 67}, {"time": 6518, "pitch": 70, "duration": 10, "velocity": 60}, {"time": 6524, "pitch": 50, "duration": 15, "velocity": 48}, {"time": 6530, "pitch": 62, "duration": 4, "velocity": 66}, {"time": 6530, "pitch": 69, "duration": 6, "velocity": 72}, {"time": 6536, "pitch": 55, "duration": 5, "velocity": 53}, {"time": 6536, "pitch": 62, "duration": 4, "velocity": 58}, {"time": 6536, "pitch": 70, "duration": 4, "velocity": 72}, {"time": 6539, "pitch": 50, "duration": 5, "velocity": 32}, {"time": 6542, "pitch": 41, "duration": 14, "velocity": 75}, {"time": 6542, "pitch": 62, "duration": 4, "velocity": 70}, {"time": 6542, "pitch": 69, "duration": 4, "velocity": 70}, {"time": 6548, "pitch": 50, "duration": 9, "velocity": 61}, {"time": 6554, "pitch": 53, "duration": 3, "velocity": 67}, {"time": 6554, "pitch": 65, "duration": 4, "velocity": 73}, {"time": 6560, "pitch": 58, "duration": 4, "velocity": 67}, {"time": 6566, "pitch": 39, "duration": 12, "velocity": 64}, {"time": 6566, "pitch": 58, "duration": 19, "velocity": 63}, {"time": 6566, "pitch": 63, "duration": 16, "velocity": 69}, {"time": 6566, "pitch": 67, "duration": 16, "velocity": 67}, {"time": 6572, "pitch": 46, "duration": 7, "velocity": 48}, {"time": 6578, "pitch": 51, "duration": 8, "velocity": 61}, {"time": 6584, "pitch": 53, "duration": 10, "velocity": 52}, {"time": 6590, "pitch": 55, "duration": 8, "velocity": 58}, {"time": 6590, "pitch": 58, "duration": 18, "velocity": 61}, {"time": 6590, "pitch": 63, "duration": 18, "velocity": 62}, {"time": 6590, "pitch": 67, "duration": 20, "velocity": 57}, {"time": 6596, "pitch": 53, "duration": 10, "velocity": 58}, {"time": 6608, "pitch": 50, "duration": 6, "velocity": 47}, {"time": 6614, "pitch": 41, "duration": 36, "velocity": 63}, {"time": 6614, "pitch": 58, "duration": 4, "velocity": 61}, {"time": 6614, "pitch": 62, "duration": 10, "velocity": 67}, {"time": 6614, "pitch": 65, "duration": 10, "velocity": 67}, {"time": 6620, "pitch": 48, "duration": 14, "velocity": 51}, {"time": 6626, "pitch": 53, "duration": 17, "velocity": 48}, {"time": 6632, "pitch": 57, "duration": 14, "velocity": 69}, {"time": 6632, "pitch": 60, "duration": 12, "velocity": 70}, {"time": 6632, "pitch": 65, "duration": 11, "velocity": 61}, {"time": 6644, "pitch": 48, "duration": 7, "velocity": 45}, {"time": 6650, "pitch": 57, "duration": 10, "velocity": 60}, {"time": 6662, "pitch": 46, "duration": 40, "velocity": 52}, {"time": 6662, "pitch": 58, "duration": 6, "velocity": 67}, {"time": 6662, "pitch": 62, "duration": 8, "velocity": 67}, {"time": 6668, "pitch": 53, "duration": 34, "velocity": 53}, {"time": 6674, "pitch": 58, "duration": 21, "velocity": 49}, {"time": 6680, "pitch": 60, "duration": 9, "velocity": 66}, {"time": 6680, "pitch": 65, "duration": 11, "velocity": 69}, {"time": 6692, "pitch": 62, "duration": 9, "velocity": 60}, {"time": 6698, "pitch": 58, "duration": 6, "velocity": 38}, {"time": 6704, "pitch": 60, "duration": 4, "velocity": 58}, {"time": 6707, "pitch": 62, "duration": 4, "velocity": 61}, {"time": 6710, "pitch": 46, "duration": 39, "velocity": 60}, {"time": 6710, "pitch": 63, "duration": 6, "velocity": 59}, {"time": 6716, "pitch": 53, "duration": 9, "velocity": 62}, {"time": 6716, "pitch": 62, "duration": 6, "velocity": 67}, {"time": 6722, "pitch": 58, "duration": 8, "velocity": 48}, {"time": 6722, "pitch": 60, "duration": 9, "velocity": 61}, {"time": 6728, "pitch": 53, "duration": 23, "velocity": 61}, {"time": 6728, "pitch": 62, "duration": 7, "velocity": 58}, {"time": 6734, "pitch": 63, "duration": 5, "velocity": 63}, {"time": 6740, "pitch": 65, "duration": 8, "velocity": 69}, {"time": 6746, "pitch": 67, "duration": 5, "velocity": 61}, {"time": 6752, "pitch": 69, "duration": 6, "velocity": 57}, {"time": 6758, "pitch": 48, "duration": 34, "velocity": 63}, {"time": 6758, "pitch": 63, "duration": 14, "velocity": 58}, {"time": 6758, "pitch": 67, "duration": 13, "velocity": 61}, {"time": 6764, "pitch": 55, "duration": 29, "velocity": 43}, {"time": 6770, "pitch": 60, "duration": 24, "velocity": 53}, {"time": 6776, "pitch": 62, "duration": 14, "velocity": 54}, {"time": 6788, "pitch": 63, "duration": 3, "velocity": 61}, {"time": 6806, "pitch": 50, "duration": 35, "velocity": 55}, {"time": 6806, "pitch": 62, "duration": 8, "velocity": 62}, {"time": 6806, "pitch": 65, "duration": 8, "velocity": 67}, {"time": 6812, "pitch": 57, "duration": 28, "velocity": 46}, {"time": 6818, "pitch": 60, "duration": 21, "velocity": 52}, {"time": 6824, "pitch": 65, "duration": 13, "velocity": 63}, {"time": 6836, "pitch": 69, "duration": 14, "velocity": 61}, {"time": 6854, "pitch": 43, "duration": 12, "velocity": 73}, {"time": 6854, "pitch": 67, "duration": 25, "velocity": 66}, {"time": 6854, "pitch": 70, "duration": 25, "velocity": 73}, {"time": 6860, "pitch": 50, "duration": 6, "velocity": 56}, {"time": 6866, "pitch": 55, "duration": 9, "velocity": 58}, {"time": 6872, "pitch": 57, "duration": 16, "velocity": 69}, {"time": 6878, "pitch": 58, "duration": 10, "velocity": 69}, {"time": 6884, "pitch": 62, "duration": 7, "velocity": 69}, {"time": 6890, "pitch": 67, "duration": 7, "velocity": 52}, {"time": 6896, "pitch": 69, "duration": 7, "velocity": 64}, {"time": 6902, "pitch": 43, "duration": 11, "velocity": 66}, {"time": 6902, "pitch": 62, "duration": 26, "velocity": 61}, {"time": 6902, "pitch": 70, "duration": 25, "velocity": 67}, {"time": 6908, "pitch": 50, "duration": 6, "velocity": 49}, {"time": 6914, "pitch": 55, "duration": 7, "velocity": 42}, {"time": 6914, "pitch": 69, "duration": 13, "velocity": 62}, {"time": 6920, "pitch": 57, "duration": 19, "velocity": 40}, {"time": 6926, "pitch": 58, "duration": 14, "velocity": 62}, {"time": 6926, "pitch": 67, "duration": 8, "velocity": 64}, {"time": 6932, "pitch": 62, "duration": 7, "velocity": 46}, {"time": 6938, "pitch": 67, "duration": 6, "velocity": 63}, {"time": 6944, "pitch": 70, "duration": 4, "velocity": 63}, {"time": 6950, "pitch": 48, "duration": 38, "velocity": 66}, {"time": 6950, "pitch": 63, "duration": 14, "velocity": 58}, {"time": 6950, "pitch": 67, "duration": 14, "velocity": 63}, {"time": 6950, "pitch": 70, "duration": 14, "velocity": 57}, {"time": 6962, "pitch": 55, "duration": 28, "velocity": 36}, {"time": 6974, "pitch": 60, "duration": 13, "velocity": 47}, {"time": 6974, "pitch": 63, "duration": 20, "velocity": 63}, {"time": 6974, "pitch": 67, "duration": 17, "velocity": 62}, {"time": 6974, "pitch": 70, "duration": 11, "velocity": 61}, {"time": 6998, "pitch": 50, "duration": 38, "velocity": 58}, {"time": 6998, "pitch": 65, "duration": 8, "velocity": 59}, {"time": 6998, "pitch": 69, "duration": 11, "velocity": 57}, {"time": 7004, "pitch": 57, "duration": 31, "velocity": 40}, {"time": 7010, "pitch": 60, "duration": 24, "velocity": 54}, {"time": 7016, "pitch": 65, "duration": 15, "velocity": 69}, {"time": 7028, "pitch": 72, "duration": 10, "velocity": 64}, {"time": 7046, "pitch": 43, "duration": 43, "velocity": 70}, {"time": 7052, "pitch": 50, "duration": 42, "velocity": 72}, {"time": 7058, "pitch": 55, "duration": 32, "velocity": 85}, {"time": 7064, "pitch": 57, "duration": 6, "velocity": 76}, {"time": 7070, "pitch": 58, "duration": 3, "velocity": 66}, {"time": 7076, "pitch": 62, "duration": 9, "velocity": 85}, {"time": 7082, "pitch": 70, "duration": 7, "velocity": 69}, {"time": 7088, "pitch": 69, "duration": 11, "velocity": 97}, {"time": 7094, "pitch": 43, "duration": 42, "velocity": 62}, {"time": 7100, "pitch": 50, "duration": 25, "velocity": 60}, {"time": 7106, "pitch": 55, "duration": 29, "velocity": 53}, {"time": 7112, "pitch": 57, "duration": 20, "velocity": 67}, {"time": 7112, "pitch": 58, "duration": 19, "velocity": 72}, {"time": 7112, "pitch": 62, "duration": 21, "velocity": 73}, {"time": 7133, "pitch": 50, "duration": 11, "velocity": 63}, {"time": 7139, "pitch": 57, "duration": 4, "velocity": 60}, {"time": 7142, "pitch": 43, "duration": 44, "velocity": 72}, {"time": 7142, "pitch": 58, "duration": 13, "velocity": 72}, {"time": 7142, "pitch": 62, "duration": 13, "velocity": 72}, {"time": 7148, "pitch": 50, "duration": 38, "velocity": 64}, {"time": 7154, "pitch": 55, "duration": 12, "velocity": 82}, {"time": 7160, "pitch": 57, "duration": 7, "velocity": 64}, {"time": 7160, "pitch": 58, "duration": 12, "velocity": 75}, {"time": 7160, "pitch": 62, "duration": 12, "velocity": 73}, {"time": 7172, "pitch": 55, "duration": 14, "velocity": 50}, {"time": 7178, "pitch": 57, "duration": 5, "velocity": 75}, {"time": 7184, "pitch": 58, "duration": 13, "velocity": 75}, {"time": 7184, "pitch": 65, "duration": 19, "velocity": 75}, {"time": 7190, "pitch": 43, "duration": 52, "velocity": 78}, {"time": 7196, "pitch": 50, "duration": 46, "velocity": 72}, {"time": 7202, "pitch": 55, "duration": 40, "velocity": 78}, {"time": 7208, "pitch": 57, "duration": 5, "velocity": 88}, {"time": 7217, "pitch": 58, "duration": 8, "velocity": 95}, {"time": 7223, "pitch": 60, "duration": 3, "velocity": 76}, {"time": 7232, "pitch": 62, "duration": 6, "velocity": 75}, {"time": 7241, "pitch": 67, "duration": 2, "velocity": 67}, {"time": 7253, "pitch": 43, "duration": 21, "velocity": 59}, {"time": 7253, "pitch": 50, "duration": 20, "velocity": 69}, {"time": 7253, "pitch": 55, "duration": 20, "velocity": 62}, {"time": 7253, "pitch": 57, "duration": 20, "velocity": 57}, {"time": 7253, "pitch": 58, "duration": 19, "velocity": 75}, {"time": 7256, "pitch": 62, "duration": 17, "velocity": 63}], "annotations": [{"time": 136, "annotation": {"number": 64, "value": 127}, "group": "control_change"}, {"time": 182, "annotation": {"number": 64, "value": 0}, "group": "control_change"}, {"time": 189, "annotation": {"number": 64, "value": 127}, "group": "control_change"}, {"time": 230, "annotation": {"number": 64, "value": 0}, "group": "control_change"}, {"time": 233, "annotation": {"number": 64, "value": 127}, "group": "control_change"}, {"time": 278, "annotation": {"number": 64, "value": 0}, "group": "control_change"}, {"time": 287, "annotation": {"number": 64, "value": 127}, "group": "control_change"}, {"time": 302, "annotation": {"number": 64, "value": 0}, "group": "control_change"}, {"time": 312, "annotation": {"number": 64, "value": 127}, "group": "control_change"}, {"time": 324, "annotation": {"number": 64, "value": 0}, "group": "control_change"}, {"time": 330, "annotation": {"number": 64, "value": 127}, "group": "control_change"}, {"time": 373, "annotation": {"number": 64, "value": 0}, "group": "control_change"}, {"time": 380, "annotation": {"number": 64, "value": 127}, "group": "control_change"}, {"time": 398, "annotation": {"number": 64, "value": 0}, "group": "control_change"}, {"time": 401, "annotation": {"number": 64, "value": 122}, "group": "control_change"}, {"time": 428, "annotation": {"number": 64, "value": 127}, "group": "control_change"}, {"time": 467, "annotation": {"number": 64, "value": 0}, "group": "control_change"}, {"time": 478, "annotation": {"number": 64, "value": 127}, "group": "control_change"}, {"time": 494, "annotation": {"number": 64, "value": 0}, "group": "control_change"}, {"time": 497, "annotation": {"number": 64, "value": 127}, "group": "control_change"}, {"time": 502, "annotation": {"number": 64, "value": 0}, "group": "control_change"}, {"time": 521, "annotation": {"number": 64, "value": 127}, "group": "control_change"}, {"time": 536, "annotation": {"number": 64, "value": 0}, "group": "control_change"}, {"time": 554, "annotation": {"number": 64, "value": 127}, "group": "control_change"}, {"time": 564, "annotation": {"number": 64, "value": 0}, "group": "control_change"}, {"time": 571, "annotation": {"number": 64, "value": 127}, "group": "control_change"}, {"time": 611, "annotation": {"number": 64, "value": 0}, "group": "control_change"}, {"time": 618, "annotation": {"number": 64, "value": 127}, "group": "control_change"}, {"time": 639, "annotation": {"number": 64, "value": 0}, "group": "control_change"}, {"time": 647, "annotation": {"number": 64, "value": 127}, "group": "control_change"}, {"time": 663, "annotation": {"number": 64, "value": 0}, "group": "control_change"}, {"time": 676, "annotation": {"number": 64, "value": 127}, "group": "control_change"}, {"time": 686, "annotation": {"number": 64, "value": 0}, "group": "control_change"}, {"time": 697, "annotation": {"number": 64, "value": 127}, "group": "control_change"}, {"time": 709, "annotation": {"number": 64, "value": 0}, "group": "control_change"}, {"time": 713, "annotation": {"number": 64, "value": 127}, "group": "control_change"}, {"time": 804, "annotation": {"number": 64, "value": 0}, "group": "control_change"}, {"time": 815, "annotation": {"number": 64, "value": 127}, "group": "control_change"}, {"time": 899, "annotation": {"number": 64, "value": 0}, "group": "control_change"}, {"time": 905, "annotation": {"number": 64, "value": 127}, "group": "control_change"}, {"time": 997, "annotation": {"number": 64, "value": 0}, "group": "control_change"}, {"time": 999, "annotation": {"number": 64, "value": 127}, "group": "control_change"}, {"time": 1093, "annotation": {"number": 64, "value": 0}, "group": "control_change"}, {"time": 1098, "annotation": {"number": 64, "value": 127}, "group": "control_change"}, {"time": 1168, "annotation": {"number": 64, "value": 0}, "group": "control_change"}, {"time": 1172, "annotation": {"number": 64, "value": 127}, "group": "control_change"}, {"time": 1190, "annotation": {"number": 64, "value": 0}, "group": "control_change"}, {"time": 1196, "annotation": {"number": 64, "value": 127}, "group": "control_change"}, {"time": 1239, "annotation": {"number": 64, "value": 127}, "group": "control_change"}, {"time": 1244, "annotation": {"number": 64, "value": 0}, "group": "control_change"}, {"time": 1286, "annotation": {"number": 64, "value": 0}, "group": "control_change"}, {"time": 1291, "annotation": {"number": 64, "value": 127}, "group": "control_change"}, {"time": 1360, "annotation": {"number": 64, "value": 0}, "group": "control_change"}, {"time": 1365, "annotation": {"number": 64, "value": 127}, "group": "control_change"}, {"time": 1380, "annotation": {"number": 64, "value": 0}, "group": "control_change"}, {"time": 1385, "annotation": {"number": 64, "value": 127}, "group": "control_change"}, {"time": 1428, "annotation": {"number": 64, "value": 0}, "group": "control_change"}, {"time": 1434, "annotation": {"number": 64, "value": 127}, "group": "control_change"}, {"time": 1477, "annotation": {"number": 64, "value": 0}, "group": "control_change"}, {"time": 1482, "annotation": {"number": 64, "value": 127}, "group": "control_change"}, {"time": 1514, "annotation": {"number": 64, "value": 0}, "group": "control_change"}, {"time": 1525, "annotation": {"number": 64, "value": 127}, "group": "control_change"}, {"time": 1573, "annotation": {"number": 64, "value": 0}, "group": "control_change"}, {"time": 1580, "annotation": {"number": 64, "value": 127}, "group": "control_change"}, {"time": 1669, "annotation": {"number": 64, "value": 127}, "group": "control_change"}, {"time": 1669, "annotation": {"number": 64, "value": 0}, "group": "control_change"}, {"time": 1768, "annotation": {"number": 64, "value": 0}, "group": "control_change"}, {"time": 1770, "annotation": {"number": 64, "value": 127}, "group": "control_change"}, {"time": 1859, "annotation": {"number": 64, "value": 0}, "group": "control_change"}, {"time": 1864, "annotation": {"number": 64, "value": 127}, "group": "control_change"}, {"time": 1911, "annotation": {"number": 64, "value": 0}, "group": "control_change"}, {"time": 1913, "annotation": {"number": 64, "value": 127}, "group": "control_change"}, {"time": 1935, "annotation": {"number": 64, "value": 0}, "group": "control_change"}, {"time": 1938, "annotation": {"number": 64, "value": 127}, "group": "control_change"}, {"time": 1958, "annotation": {"number": 64, "value": 0}, "group": "control_change"}, {"time": 1964, "annotation": {"number": 64, "value": 127}, "group": "control_change"}, {"time": 2008, "annotation": {"number": 64, "value": 0}, "group": "control_change"}, {"time": 2013, "annotation": {"number": 64, "value": 127}, "group": "control_change"}, {"time": 2054, "annotation": {"number": 64, "value": 0}, "group": "control_change"}, {"time": 2059, "annotation": {"number": 64, "value": 127}, "group": "control_change"}, {"time": 2101, "annotation": {"number": 64, "value": 0}, "group": "control_change"}, {"time": 2104, "annotation": {"number": 64, "value": 127}, "group": "control_change"}, {"time": 2119, "annotation": {"number": 64, "value": 0}, "group": "control_change"}, {"time": 2125, "annotation": {"number": 64, "value": 127}, "group": "control_change"}, {"time": 2131, "annotation": {"number": 64, "value": 0}, "group": "control_change"}, {"time": 2149, "annotation": {"number": 64, "value": 127}, "group": "control_change"}, {"time": 2202, "annotation": {"number": 64, "value": 0}, "group": "control_change"}, {"time": 2206, "annotation": {"number": 64, "value": 127}, "group": "control_change"}, {"time": 2244, "annotation": {"number": 64, "value": 0}, "group": "control_change"}, {"time": 2249, "annotation": {"number": 64, "value": 127}, "group": "control_change"}, {"time": 2293, "annotation": {"number": 64, "value": 0}, "group": "control_change"}, {"time": 2297, "annotation": {"number": 64, "value": 127}, "group": "control_change"}, {"time": 2342, "annotation": {"number": 64, "value": 0}, "group": "control_change"}, {"time": 2348, "annotation": {"number": 64, "value": 127}, "group": "control_change"}, {"time": 2390, "annotation": {"number": 64, "value": 0}, "group": "control_change"}, {"time": 2397, "annotation": {"number": 64, "value": 127}, "group": "control_change"}, {"time": 2437, "annotation": {"number": 64, "value": 0}, "group": "control_change"}, {"time": 2440, "annotation": {"number": 64, "value": 127}, "group": "control_change"}, {"time": 2486, "annotation": {"number": 64, "value": 127}, "group": "control_change"}, {"time": 2486, "annotation": {"number": 64, "value": 0}, "group": "control_change"}, {"time": 2498, "annotation": {"number": 64, "value": 0}, "group": "control_change"}, {"time": 2500, "annotation": {"number": 64, "value": 127}, "group": "control_change"}, {"time": 2509, "annotation": {"number": 64, "value": 0}, "group": "control_change"}, {"time": 2511, "annotation": {"number": 64, "value": 127}, "group": "control_change"}, {"time": 2520, "annotation": {"number": 64, "value": 0}, "group": "control_change"}, {"time": 2523, "annotation": {"number": 64, "value": 127}, "group": "control_change"}, {"time": 2532, "annotation": {"number": 64, "value": 0}, "group": "control_change"}, {"time": 2538, "annotation": {"number": 64, "value": 127}, "group": "control_change"}, {"time": 2582, "annotation": {"number": 64, "value": 0}, "group": "control_change"}, {"time": 2587, "annotation": {"number": 64, "value": 127}, "group": "control_change"}, {"time": 2628, "annotation": {"number": 64, "value": 0}, "group": "control_change"}, {"time": 2634, "annotation": {"number": 64, "value": 127}, "group": "control_change"}, {"time": 2675, "annotation": {"number": 64, "value": 0}, "group": "control_change"}, {"time": 2683, "annotation": {"number": 64, "value": 127}, "group": "control_change"}, {"time": 2725, "annotation": {"number": 64, "value": 0}, "group": "control_change"}, {"time": 2732, "annotation": {"number": 64, "value": 127}, "group": "control_change"}, {"time": 2775, "annotation": {"number": 64, "value": 0}, "group": "control_change"}, {"time": 2784, "annotation": {"number": 64, "value": 127}, "group": "control_change"}, {"time": 2820, "annotation": {"number": 64, "value": 0}, "group": "control_change"}, {"time": 2829, "annotation": {"number": 64, "value": 127}, "group": "control_change"}, {"time": 2868, "annotation": {"number": 64, "value": 0}, "group": "control_change"}, {"time": 2875, "annotation": {"number": 64, "value": 127}, "group": "control_change"}, {"time": 2916, "annotation": {"number": 64, "value": 0}, "group": "control_change"}, {"time": 2926, "annotation": {"number": 64, "value": 127}, "group": "control_change"}, {"time": 2965, "annotation": {"number": 64, "value": 0}, "group": "control_change"}, {"time": 2972, "annotation": {"number": 64, "value": 127}, "group": "control_change"}, {"time": 3013, "annotation": {"number": 64, "value": 0}, "group": "control_change"}, {"time": 3016, "annotation": {"number": 64, "value": 127}, "group": "control_change"}, {"time": 3111, "annotation": {"number": 64, "value": 0}, "group": "control_change"}, {"time": 3113, "annotation": {"number": 64, "value": 127}, "group": "control_change"}, {"time": 3158, "annotation": {"number": 64, "value": 0}, "group": "control_change"}, {"time": 3165, "annotation": {"number": 64, "value": 127}, "group": "control_change"}, {"time": 3207, "annotation": {"number": 64, "value": 0}, "group": "control_change"}, {"time": 3213, "annotation": {"number": 64, "value": 127}, "group": "control_change"}, {"time": 3299, "annotation": {"number": 64, "value": 0}, "group": "control_change"}, {"time": 3303, "annotation": {"number": 64, "value": 127}, "group": "control_change"}, {"time": 3350, "annotation": {"number": 64, "value": 0}, "group": "control_change"}, {"time": 3354, "annotation": {"number": 64, "value": 127}, "group": "control_change"}, {"time": 3400, "annotation": {"number": 64, "value": 0}, "group": "control_change"}, {"time": 3403, "annotation": {"number": 64, "value": 127}, "group": "control_change"}, {"time": 3447, "annotation": {"number": 64, "value": 0}, "group": "control_change"}, {"time": 3451, "annotation": {"number": 64, "value": 127}, "group": "control_change"}, {"time": 3494, "annotation": {"number": 64, "value": 0}, "group": "control_change"}, {"time": 3505, "annotation": {"number": 64, "value": 127}, "group": "control_change"}, {"time": 3545, "annotation": {"number": 64, "value": 0}, "group": "control_change"}, {"time": 3552, "annotation": {"number": 64, "value": 127}, "group": "control_change"}, {"time": 3590, "annotation": {"number": 64, "value": 0}, "group": "control_change"}, {"time": 3592, "annotation": {"number": 64, "value": 127}, "group": "control_change"}, {"time": 3642, "annotation": {"number": 64, "value": 127}, "group": "control_change"}, {"time": 3642, "annotation": {"number": 64, "value": 0}, "group": "control_change"}, {"time": 3685, "annotation": {"number": 64, "value": 0}, "group": "control_change"}, {"time": 3689, "annotation": {"number": 64, "value": 127}, "group": "control_change"}, {"time": 3781, "annotation": {"number": 64, "value": 0}, "group": "control_change"}, {"time": 3795, "annotation": {"number": 64, "value": 127}, "group": "control_change"}, {"time": 3878, "annotation": {"number": 64, "value": 0}, "group": "control_change"}, {"time": 3879, "annotation": {"number": 64, "value": 127}, "group": "control_change"}, {"time": 3973, "annotation": {"number": 64, "value": 0}, "group": "control_change"}, {"time": 3978, "annotation": {"number": 64, "value": 127}, "group": "control_change"}, {"time": 4048, "annotation": {"number": 64, "value": 0}, "group": "control_change"}, {"time": 4052, "annotation": {"number": 64, "value": 127}, "group": "control_change"}, {"time": 4070, "annotation": {"number": 64, "value": 0}, "group": "control_change"}, {"time": 4076, "annotation": {"number": 64, "value": 127}, "group": "control_change"}, {"time": 4119, "annotation": {"number": 64, "value": 127}, "group": "control_change"}, {"time": 4124, "annotation": {"number": 64, "value": 0}, "group": "control_change"}, {"time": 4166, "annotation": {"number": 64, "value": 0}, "group": "control_change"}, {"time": 4171, "annotation": {"number": 64, "value": 127}, "group": "control_change"}, {"time": 4240, "annotation": {"number": 64, "value": 0}, "group": "control_change"}, {"time": 4245, "annotation": {"number": 64, "value": 127}, "group": "control_change"}, {"time": 4260, "annotation": {"number": 64, "value": 0}, "group": "control_change"}, {"time": 4265, "annotation": {"number": 64, "value": 127}, "group": "control_change"}, {"time": 4308, "annotation": {"number": 64, "value": 0}, "group": "control_change"}, {"time": 4314, "annotation": {"number": 64, "value": 127}, "group": "control_change"}, {"time": 4357, "annotation": {"number": 64, "value": 0}, "group": "control_change"}, {"time": 4362, "annotation": {"number": 64, "value": 127}, "group": "control_change"}, {"time": 4394, "annotation": {"number": 64, "value": 0}, "group": "control_change"}, {"time": 4405, "annotation": {"number": 64, "value": 127}, "group": "control_change"}, {"time": 4453, "annotation": {"number": 64, "value": 0}, "group": "control_change"}, {"time": 4460, "annotation": {"number": 64, "value": 127}, "group": "control_change"}, {"time": 4549, "annotation": {"number": 64, "value": 127}, "group": "control_change"}, {"time": 4549, "annotation": {"number": 64, "value": 0}, "group": "control_change"}, {"time": 4648, "annotation": {"number": 64, "value": 0}, "group": "control_change"}, {"time": 4650, "annotation": {"number": 64, "value": 127}, "group": "control_change"}, {"time": 4739, "annotation": {"number": 64, "value": 0}, "group": "control_change"}, {"time": 4744, "annotation": {"number": 64, "value": 127}, "group": "control_change"}, {"time": 4791, "annotation": {"number": 64, "value": 0}, "group": "control_change"}, {"time": 4793, "annotation": {"number": 64, "value": 127}, "group": "control_change"}, {"time": 4815, "annotation": {"number": 64, "value": 0}, "group": "control_change"}, {"time": 4818, "annotation": {"number": 64, "value": 127}, "group": "control_change"}, {"time": 4838, "annotation": {"number": 64, "value": 0}, "group": "control_change"}, {"time": 4844, "annotation": {"number": 64, "value": 127}, "group": "control_change"}, {"time": 4888, "annotation": {"number": 64, "value": 0}, "group": "control_change"}, {"time": 4893, "annotation": {"number": 64, "value": 127}, "group": "control_change"}, {"time": 4934, "annotation": {"number": 64, "value": 0}, "group": "control_change"}, {"time": 4939, "annotation": {"number": 64, "value": 127}, "group": "control_change"}, {"time": 4981, "annotation": {"number": 64, "value": 0}, "group": "control_change"}, {"time": 4984, "annotation": {"number": 64, "value": 127}, "group": "control_change"}, {"time": 4999, "annotation": {"number": 64, "value": 0}, "group": "control_change"}, {"time": 5005, "annotation": {"number": 64, "value": 127}, "group": "control_change"}, {"time": 5011, "annotation": {"number": 64, "value": 0}, "group": "control_change"}, {"time": 5029, "annotation": {"number": 64, "value": 127}, "group": "control_change"}, {"time": 5030, "annotation": {"number": 64, "value": 0}, "group": "control_change"}, {"time": 5082, "annotation": {"number": 64, "value": 0}, "group": "control_change"}, {"time": 5086, "annotation": {"number": 64, "value": 127}, "group": "control_change"}, {"time": 5124, "annotation": {"number": 64, "value": 0}, "group": "control_change"}, {"time": 5129, "annotation": {"number": 64, "value": 127}, "group": "control_change"}, {"time": 5173, "annotation": {"number": 64, "value": 0}, "group": "control_change"}, {"time": 5177, "annotation": {"number": 64, "value": 127}, "group": "control_change"}, {"time": 5222, "annotation": {"number": 64, "value": 0}, "group": "control_change"}, {"time": 5228, "annotation": {"number": 64, "value": 127}, "group": "control_change"}, {"time": 5270, "annotation": {"number": 64, "value": 0}, "group": "control_change"}, {"time": 5277, "annotation": {"number": 64, "value": 127}, "group": "control_change"}, {"time": 5317, "annotation": {"number": 64, "value": 0}, "group": "control_change"}, {"time": 5320, "annotation": {"number": 64, "value": 127}, "group": "control_change"}, {"time": 5366, "annotation": {"number": 64, "value": 127}, "group": "control_change"}, {"time": 5366, "annotation": {"number": 64, "value": 0}, "group": "control_change"}, {"time": 5378, "annotation": {"number": 64, "value": 0}, "group": "control_change"}, {"time": 5380, "annotation": {"number": 64, "value": 127}, "group": "control_change"}, {"time": 5389, "annotation": {"number": 64, "value": 0}, "group": "control_change"}, {"time": 5391, "annotation": {"number": 64, "value": 127}, "group": "control_change"}, {"time": 5400, "annotation": {"number": 64, "value": 0}, "group": "control_change"}, {"time": 5403, "annotation": {"number": 64, "value": 127}, "group": "control_change"}, {"time": 5412, "annotation": {"number": 64, "value": 0}, "group": "control_change"}, {"time": 5418, "annotation": {"number": 64, "value": 127}, "group": "control_change"}, {"time": 5462, "annotation": {"number": 64, "value": 0}, "group": "control_change"}, {"time": 5467, "annotation": {"number": 64, "value": 127}, "group": "control_change"}, {"time": 5508, "annotation": {"number": 64, "value": 0}, "group": "control_change"}, {"time": 5514, "annotation": {"number": 64, "value": 127}, "group": "control_change"}, {"time": 5555, "annotation": {"number": 64, "value": 0}, "group": "control_change"}, {"time": 5563, "annotation": {"number": 64, "value": 127}, "group": "control_change"}, {"time": 5605, "annotation": {"number": 64, "value": 0}, "group": "control_change"}, {"time": 5612, "annotation": {"number": 64, "value": 127}, "group": "control_change"}, {"time": 5655, "annotation": {"number": 64, "value": 0}, "group": "control_change"}, {"time": 5664, "annotation": {"number": 64, "value": 127}, "group": "control_change"}, {"time": 5700, "annotation": {"number": 64, "value": 0}, "group": "control_change"}, {"time": 5709, "annotation": {"number": 64, "value": 127}, "group": "control_change"}, {"time": 5748, "annotation": {"number": 64, "value": 0}, "group": "control_change"}, {"time": 5755, "annotation": {"number": 64, "value": 127}, "group": "control_change"}, {"time": 5796, "annotation": {"number": 64, "value": 0}, "group": "control_change"}, {"time": 5806, "annotation": {"number": 64, "value": 127}, "group": "control_change"}, {"time": 5845, "annotation": {"number": 64, "value": 0}, "group": "control_change"}, {"time": 5852, "annotation": {"number": 64, "value": 127}, "group": "control_change"}, {"time": 5893, "annotation": {"number": 64, "value": 0}, "group": "control_change"}, {"time": 5896, "annotation": {"number": 64, "value": 127}, "group": "control_change"}, {"time": 5942, "annotation": {"number": 64, "value": 0}, "group": "control_change"}, {"time": 5957, "annotation": {"number": 64, "value": 127}, "group": "control_change"}, {"time": 5964, "annotation": {"number": 64, "value": 0}, "group": "control_change"}, {"time": 5968, "annotation": {"number": 64, "value": 127}, "group": "control_change"}, {"time": 5972, "annotation": {"number": 64, "value": 0}, "group": "control_change"}, {"time": 5976, "annotation": {"number": 64, "value": 127}, "group": "control_change"}, {"time": 5980, "annotation": {"number": 64, "value": 0}, "group": "control_change"}, {"time": 5982, "annotation": {"number": 64, "value": 127}, "group": "control_change"}, {"time": 5989, "annotation": {"number": 64, "value": 0}, "group": "control_change"}, {"time": 5992, "annotation": {"number": 64, "value": 127}, "group": "control_change"}, {"time": 6037, "annotation": {"number": 64, "value": 0}, "group": "control_change"}, {"time": 6042, "annotation": {"number": 64, "value": 127}, "group": "control_change"}, {"time": 6086, "annotation": {"number": 64, "value": 0}, "group": "control_change"}, {"time": 6090, "annotation": {"number": 64, "value": 127}, "group": "control_change"}, {"time": 6135, "annotation": {"number": 64, "value": 0}, "group": "control_change"}, {"time": 6139, "annotation": {"number": 64, "value": 127}, "group": "control_change"}, {"time": 6180, "annotation": {"number": 64, "value": 0}, "group": "control_change"}, {"time": 6186, "annotation": {"number": 64, "value": 127}, "group": "control_change"}, {"time": 6228, "annotation": {"number": 64, "value": 0}, "group": "control_change"}, {"time": 6233, "annotation": {"number": 64, "value": 127}, "group": "control_change"}, {"time": 6277, "annotation": {"number": 64, "value": 0}, "group": "control_change"}, {"time": 6284, "annotation": {"number": 64, "value": 127}, "group": "control_change"}, {"time": 6326, "annotation": {"number": 64, "value": 0}, "group": "control_change"}, {"time": 6332, "annotation": {"number": 64, "value": 127}, "group": "control_change"}, {"time": 6348, "annotation": {"number": 64, "value": 0}, "group": "control_change"}, {"time": 6352, "annotation": {"number": 64, "value": 127}, "group": "control_change"}, {"time": 6373, "annotation": {"number": 64, "value": 0}, "group": "control_change"}, {"time": 6377, "annotation": {"number": 64, "value": 127}, "group": "control_change"}, {"time": 6422, "annotation": {"number": 64, "value": 0}, "group": "control_change"}, {"time": 6427, "annotation": {"number": 64, "value": 127}, "group": "control_change"}, {"time": 6468, "annotation": {"number": 64, "value": 0}, "group": "control_change"}, {"time": 6474, "annotation": {"number": 64, "value": 127}, "group": "control_change"}, {"time": 6515, "annotation": {"number": 64, "value": 0}, "group": "control_change"}, {"time": 6523, "annotation": {"number": 64, "value": 127}, "group": "control_change"}, {"time": 6565, "annotation": {"number": 64, "value": 0}, "group": "control_change"}, {"time": 6572, "annotation": {"number": 64, "value": 127}, "group": "control_change"}, {"time": 6615, "annotation": {"number": 64, "value": 0}, "group": "control_change"}, {"time": 6624, "annotation": {"number": 64, "value": 127}, "group": "control_change"}, {"time": 6660, "annotation": {"number": 64, "value": 0}, "group": "control_change"}, {"time": 6669, "annotation": {"number": 64, "value": 127}, "group": "control_change"}, {"time": 6708, "annotation": {"number": 64, "value": 0}, "group": "control_change"}, {"time": 6715, "annotation": {"number": 64, "value": 127}, "group": "control_change"}, {"time": 6756, "annotation": {"number": 64, "value": 0}, "group": "control_change"}, {"time": 6766, "annotation": {"number": 64, "value": 127}, "group": "control_change"}, {"time": 6805, "annotation": {"number": 64, "value": 0}, "group": "control_change"}, {"time": 6812, "annotation": {"number": 64, "value": 127}, "group": "control_change"}, {"time": 6853, "annotation": {"number": 64, "value": 0}, "group": "control_change"}, {"time": 6855, "annotation": {"number": 64, "value": 127}, "group": "control_change"}, {"time": 6903, "annotation": {"number": 64, "value": 0}, "group": "control_change"}, {"time": 6908, "annotation": {"number": 64, "value": 127}, "group": "control_change"}, {"time": 6948, "annotation": {"number": 64, "value": 0}, "group": "control_change"}, {"time": 6953, "annotation": {"number": 64, "value": 127}, "group": "control_change"}, {"time": 6998, "annotation": {"number": 64, "value": 0}, "group": "control_change"}, {"time": 7002, "annotation": {"number": 64, "value": 127}, "group": "control_change"}, {"time": 7046, "annotation": {"number": 64, "value": 0}, "group": "control_change"}, {"time": 7046, "annotation": {"number": 64, "value": 127}, "group": "control_change"}, {"time": 7144, "annotation": {"number": 64, "value": 0}, "group": "control_change"}, {"time": 7150, "annotation": {"number": 64, "value": 127}, "group": "control_change"}, {"time": 7255, "annotation": {"number": 64, "value": 0}, "group": "control_change"}, {"time": 7261, "annotation": {"number": 64, "value": 127}, "group": "control_change"}, {"time": 7334, "annotation": {"number": 64, "value": 0}, "group": "control_change"}]}]}