{"metadata": {"schema_version": "0.2", "title": "None", "source_filename": "044.mid", "source_format": "midi"}, "resolution": 12, "tempos": [{"time": 0, "qpm": 58.00004253336452}], "time_signatures": [{"time": 0, "numerator": 1, "denominator": 4}], "tracks": [{"program": 0, "is_drum": false, "name": "MELODY", "notes": [{"time": 225, "pitch": 65, "duration": 5, "velocity": 112}, {"time": 231, "pitch": 67, "duration": 4, "velocity": 86}, {"time": 237, "pitch": 74, "duration": 9, "velocity": 98}, {"time": 249, "pitch": 74, "duration": 3, "velocity": 90}, {"time": 255, "pitch": 72, "duration": 1, "velocity": 98}, {"time": 258, "pitch": 70, "duration": 8, "velocity": 86}, {"time": 279, "pitch": 74, "duration": 2, "velocity": 98}, {"time": 282, "pitch": 77, "duration": 1, "velocity": 90}, {"time": 285, "pitch": 79, "duration": 3, "velocity": 112}, {"time": 291, "pitch": 79, "duration": 3, "velocity": 111}, {"time": 297, "pitch": 79, "duration": 2, "velocity": 111}, {"time": 303, "pitch": 77, "duration": 2, "velocity": 98}, {"time": 306, "pitch": 74, "duration": 6, "velocity": 79}, {"time": 333, "pitch": 82, "duration": 2, "velocity": 114}, {"time": 339, "pitch": 79, "duration": 1, "velocity": 104}, {"time": 342, "pitch": 79, "duration": 6, "velocity": 104}, {"time": 354, "pitch": 77, "duration": 1, "velocity": 98}, {"time": 357, "pitch": 79, "duration": 2, "velocity": 100}, {"time": 363, "pitch": 77, "duration": 1, "velocity": 98}, {"time": 366, "pitch": 77, "duration": 4, "velocity": 95}, {"time": 375, "pitch": 74, "duration": 1, "velocity": 98}, {"time": 378, "pitch": 74, "duration": 1, "velocity": 85}, {"time": 381, "pitch": 72, "duration": 9, "velocity": 98}, {"time": 393, "pitch": 72, "duration": 4, "velocity": 104}, {"time": 399, "pitch": 70, "duration": 3, "velocity": 54}, {"time": 405, "pitch": 72, "duration": 4, "velocity": 87}, {"time": 429, "pitch": 77, "duration": 3, "velocity": 93}, {"time": 435, "pitch": 77, "duration": 3, "velocity": 76}, {"time": 441, "pitch": 77, "duration": 2, "velocity": 83}, {"time": 450, "pitch": 65, "duration": 2, "velocity": 87}, {"time": 453, "pitch": 67, "duration": 8, "velocity": 70}, {"time": 477, "pitch": 72, "duration": 2, "velocity": 79}, {"time": 483, "pitch": 72, "duration": 1, "velocity": 77}, {"time": 486, "pitch": 72, "duration": 6, "velocity": 81}, {"time": 495, "pitch": 70, "duration": 3, "velocity": 69}, {"time": 501, "pitch": 67, "duration": 8, "velocity": 90}, {"time": 525, "pitch": 72, "duration": 2, "velocity": 87}, {"time": 531, "pitch": 72, "duration": 1, "velocity": 79}, {"time": 534, "pitch": 72, "duration": 1, "velocity": 67}, {"time": 537, "pitch": 72, "duration": 1, "velocity": 75}, {"time": 540, "pitch": 72, "duration": 1, "velocity": 69}, {"time": 543, "pitch": 70, "duration": 1, "velocity": 73}, {"time": 546, "pitch": 72, "duration": 1, "velocity": 79}, {"time": 549, "pitch": 70, "duration": 1, "velocity": 76}, {"time": 552, "pitch": 70, "duration": 3, "velocity": 74}, {"time": 558, "pitch": 70, "duration": 1, "velocity": 85}, {"time": 561, "pitch": 70, "duration": 3, "velocity": 81}, {"time": 567, "pitch": 67, "duration": 3, "velocity": 83}, {"time": 573, "pitch": 65, "duration": 23, "velocity": 90}, {"time": 615, "pitch": 74, "duration": 2, "velocity": 100}, {"time": 618, "pitch": 72, "duration": 1, "velocity": 62}, {"time": 621, "pitch": 74, "duration": 30, "velocity": 111}, {"time": 654, "pitch": 74, "duration": 1, "velocity": 87}, {"time": 657, "pitch": 74, "duration": 1, "velocity": 85}, {"time": 660, "pitch": 77, "duration": 1, "velocity": 98}, {"time": 663, "pitch": 77, "duration": 1, "velocity": 104}, {"time": 666, "pitch": 82, "duration": 1, "velocity": 76}, {"time": 669, "pitch": 79, "duration": 4, "velocity": 108}, {"time": 675, "pitch": 79, "duration": 3, "velocity": 98}, {"time": 681, "pitch": 79, "duration": 2, "velocity": 108}, {"time": 687, "pitch": 77, "duration": 1, "velocity": 104}, {"time": 690, "pitch": 74, "duration": 16, "velocity": 72}, {"time": 717, "pitch": 82, "duration": 3, "velocity": 87}, {"time": 723, "pitch": 79, "duration": 1, "velocity": 90}, {"time": 726, "pitch": 79, "duration": 1, "velocity": 93}, {"time": 729, "pitch": 79, "duration": 2, "velocity": 90}, {"time": 735, "pitch": 77, "duration": 1, "velocity": 98}, {"time": 738, "pitch": 77, "duration": 1, "velocity": 93}, {"time": 741, "pitch": 79, "duration": 2, "velocity": 100}, {"time": 747, "pitch": 77, "duration": 1, "velocity": 95}, {"time": 747, "pitch": 77, "duration": 1, "velocity": 104}, {"time": 750, "pitch": 77, "duration": 1, "velocity": 111}, {"time": 753, "pitch": 77, "duration": 1, "velocity": 114}, {"time": 759, "pitch": 77, "duration": 3, "velocity": 81}, {"time": 762, "pitch": 74, "duration": 4, "velocity": 70}, {"time": 768, "pitch": 72, "duration": 7, "velocity": 74}, {"time": 813, "pitch": 77, "duration": 3, "velocity": 83}, {"time": 819, "pitch": 77, "duration": 1, "velocity": 68}, {"time": 822, "pitch": 77, "duration": 4, "velocity": 83}, {"time": 834, "pitch": 65, "duration": 1, "velocity": 85}, {"time": 837, "pitch": 67, "duration": 9, "velocity": 87}, {"time": 861, "pitch": 72, "duration": 4, "velocity": 86}, {"time": 867, "pitch": 74, "duration": 3, "velocity": 93}, {"time": 873, "pitch": 72, "duration": 2, "velocity": 93}, {"time": 876, "pitch": 70, "duration": 3, "velocity": 93}, {"time": 885, "pitch": 67, "duration": 17, "velocity": 86}, {"time": 903, "pitch": 67, "duration": 1, "velocity": 81}, {"time": 906, "pitch": 67, "duration": 1, "velocity": 77}, {"time": 909, "pitch": 65, "duration": 3, "velocity": 104}, {"time": 915, "pitch": 77, "duration": 1, "velocity": 108}, {"time": 918, "pitch": 77, "duration": 1, "velocity": 108}, {"time": 921, "pitch": 77, "duration": 2, "velocity": 112}, {"time": 927, "pitch": 74, "duration": 4, "velocity": 114}, {"time": 933, "pitch": 72, "duration": 5, "velocity": 114}, {"time": 939, "pitch": 67, "duration": 9, "velocity": 83}, {"time": 948, "pitch": 67, "duration": 1, "velocity": 74}, {"time": 951, "pitch": 72, "duration": 3, "velocity": 98}, {"time": 957, "pitch": 70, "duration": 34, "velocity": 93}, {"time": 996, "pitch": 77, "duration": 1, "velocity": 79}, {"time": 999, "pitch": 79, "duration": 1, "velocity": 76}, {"time": 1002, "pitch": 77, "duration": 1, "velocity": 90}, {"time": 1005, "pitch": 79, "duration": 3, "velocity": 81}, {"time": 1008, "pitch": 77, "duration": 1, "velocity": 104}, {"time": 1011, "pitch": 77, "duration": 1, "velocity": 93}, {"time": 1011, "pitch": 77, "duration": 1, "velocity": 95}, {"time": 1014, "pitch": 77, "duration": 1, "velocity": 104}, {"time": 1017, "pitch": 79, "duration": 4, "velocity": 95}, {"time": 1023, "pitch": 77, "duration": 3, "velocity": 114}, {"time": 1029, "pitch": 79, "duration": 1, "velocity": 86}, {"time": 1032, "pitch": 77, "duration": 1, "velocity": 98}, {"time": 1035, "pitch": 74, "duration": 1, "velocity": 79}, {"time": 1038, "pitch": 77, "duration": 2, "velocity": 114}, {"time": 1044, "pitch": 77, "duration": 1, "velocity": 87}, {"time": 1047, "pitch": 77, "duration": 1, "velocity": 90}, {"time": 1050, "pitch": 79, "duration": 1, "velocity": 98}, {"time": 1053, "pitch": 82, "duration": 2, "velocity": 90}, {"time": 1056, "pitch": 79, "duration": 1, "velocity": 83}, {"time": 1059, "pitch": 79, "duration": 1, "velocity": 90}, {"time": 1062, "pitch": 79, "duration": 1, "velocity": 93}, {"time": 1065, "pitch": 77, "duration": 3, "velocity": 100}, {"time": 1074, "pitch": 72, "duration": 1, "velocity": 72}, {"time": 1077, "pitch": 74, "duration": 23, "velocity": 95}, {"time": 1101, "pitch": 82, "duration": 3, "velocity": 71}, {"time": 1107, "pitch": 79, "duration": 1, "velocity": 86}, {"time": 1110, "pitch": 79, "duration": 1, "velocity": 87}, {"time": 1113, "pitch": 79, "duration": 2, "velocity": 93}, {"time": 1119, "pitch": 79, "duration": 1, "velocity": 90}, {"time": 1122, "pitch": 79, "duration": 1, "velocity": 93}, {"time": 1125, "pitch": 77, "duration": 3, "velocity": 111}, {"time": 1128, "pitch": 74, "duration": 1, "velocity": 73}, {"time": 1131, "pitch": 74, "duration": 1, "velocity": 86}, {"time": 1134, "pitch": 74, "duration": 2, "velocity": 90}, {"time": 1140, "pitch": 67, "duration": 1, "velocity": 62}, {"time": 1143, "pitch": 67, "duration": 2, "velocity": 67}, {"time": 1146, "pitch": 70, "duration": 2, "velocity": 70}, {"time": 1149, "pitch": 72, "duration": 3, "velocity": 90}, {"time": 1155, "pitch": 74, "duration": 5, "velocity": 86}, {"time": 1161, "pitch": 72, "duration": 2, "velocity": 93}, {"time": 1164, "pitch": 72, "duration": 3, "velocity": 100}, {"time": 1170, "pitch": 67, "duration": 2, "velocity": 83}, {"time": 1173, "pitch": 72, "duration": 14, "velocity": 108}, {"time": 1188, "pitch": 77, "duration": 1, "velocity": 111}, {"time": 1191, "pitch": 79, "duration": 1, "velocity": 111}, {"time": 1194, "pitch": 77, "duration": 1, "velocity": 98}, {"time": 1197, "pitch": 79, "duration": 1, "velocity": 111}, {"time": 1200, "pitch": 77, "duration": 1, "velocity": 95}, {"time": 1203, "pitch": 77, "duration": 1, "velocity": 86}, {"time": 1206, "pitch": 77, "duration": 1, "velocity": 111}, {"time": 1209, "pitch": 79, "duration": 3, "velocity": 108}, {"time": 1215, "pitch": 77, "duration": 1, "velocity": 93}, {"time": 1221, "pitch": 79, "duration": 2, "velocity": 114}, {"time": 1224, "pitch": 77, "duration": 3, "velocity": 70}, {"time": 1227, "pitch": 74, "duration": 2, "velocity": 74}, {"time": 1230, "pitch": 77, "duration": 3, "velocity": 111}, {"time": 1236, "pitch": 77, "duration": 1, "velocity": 75}, {"time": 1239, "pitch": 77, "duration": 1, "velocity": 70}, {"time": 1242, "pitch": 79, "duration": 1, "velocity": 83}, {"time": 1245, "pitch": 82, "duration": 3, "velocity": 111}, {"time": 1248, "pitch": 79, "duration": 1, "velocity": 100}, {"time": 1251, "pitch": 79, "duration": 1, "velocity": 111}, {"time": 1254, "pitch": 79, "duration": 1, "velocity": 114}, {"time": 1257, "pitch": 77, "duration": 4, "velocity": 111}, {"time": 1266, "pitch": 72, "duration": 1, "velocity": 81}, {"time": 1269, "pitch": 74, "duration": 17, "velocity": 86}, {"time": 1293, "pitch": 82, "duration": 1, "velocity": 98}, {"time": 1296, "pitch": 79, "duration": 1, "velocity": 98}, {"time": 1299, "pitch": 79, "duration": 1, "velocity": 93}, {"time": 1302, "pitch": 79, "duration": 1, "velocity": 104}, {"time": 1305, "pitch": 79, "duration": 2, "velocity": 104}, {"time": 1311, "pitch": 79, "duration": 3, "velocity": 112}, {"time": 1317, "pitch": 77, "duration": 1, "velocity": 122}, {"time": 1320, "pitch": 74, "duration": 1, "velocity": 81}, {"time": 1323, "pitch": 74, "duration": 1, "velocity": 93}, {"time": 1326, "pitch": 74, "duration": 1, "velocity": 111}, {"time": 1332, "pitch": 67, "duration": 1, "velocity": 68}, {"time": 1335, "pitch": 67, "duration": 1, "velocity": 77}, {"time": 1338, "pitch": 70, "duration": 1, "velocity": 74}, {"time": 1341, "pitch": 74, "duration": 4, "velocity": 77}, {"time": 1347, "pitch": 72, "duration": 3, "velocity": 104}, {"time": 1353, "pitch": 72, "duration": 20, "velocity": 108}, {"time": 1377, "pitch": 72, "duration": 2, "velocity": 81}, {"time": 1380, "pitch": 74, "duration": 7, "velocity": 90}, {"time": 1407, "pitch": 67, "duration": 4, "velocity": 77}, {"time": 1413, "pitch": 70, "duration": 26, "velocity": 93}, {"time": 1647, "pitch": 74, "duration": 2, "velocity": 100}, {"time": 1650, "pitch": 72, "duration": 1, "velocity": 62}, {"time": 1653, "pitch": 74, "duration": 30, "velocity": 111}, {"time": 1686, "pitch": 74, "duration": 1, "velocity": 87}, {"time": 1689, "pitch": 74, "duration": 1, "velocity": 85}, {"time": 1692, "pitch": 77, "duration": 1, "velocity": 98}, {"time": 1695, "pitch": 77, "duration": 1, "velocity": 104}, {"time": 1698, "pitch": 82, "duration": 1, "velocity": 76}, {"time": 1701, "pitch": 79, "duration": 4, "velocity": 108}, {"time": 1707, "pitch": 79, "duration": 3, "velocity": 98}, {"time": 1713, "pitch": 79, "duration": 2, "velocity": 108}, {"time": 1719, "pitch": 77, "duration": 1, "velocity": 104}, {"time": 1722, "pitch": 74, "duration": 16, "velocity": 72}, {"time": 1749, "pitch": 82, "duration": 3, "velocity": 87}, {"time": 1755, "pitch": 79, "duration": 1, "velocity": 90}, {"time": 1758, "pitch": 79, "duration": 1, "velocity": 93}, {"time": 1761, "pitch": 79, "duration": 2, "velocity": 90}, {"time": 1767, "pitch": 77, "duration": 1, "velocity": 98}, {"time": 1770, "pitch": 77, "duration": 1, "velocity": 93}, {"time": 1773, "pitch": 79, "duration": 2, "velocity": 100}, {"time": 1779, "pitch": 77, "duration": 1, "velocity": 95}, {"time": 1779, "pitch": 77, "duration": 1, "velocity": 104}, {"time": 1782, "pitch": 77, "duration": 1, "velocity": 111}, {"time": 1785, "pitch": 77, "duration": 1, "velocity": 114}, {"time": 1791, "pitch": 77, "duration": 3, "velocity": 81}, {"time": 1794, "pitch": 74, "duration": 4, "velocity": 70}, {"time": 1800, "pitch": 72, "duration": 7, "velocity": 74}, {"time": 1845, "pitch": 77, "duration": 3, "velocity": 83}, {"time": 1851, "pitch": 77, "duration": 1, "velocity": 68}, {"time": 1854, "pitch": 77, "duration": 4, "velocity": 83}, {"time": 1866, "pitch": 65, "duration": 1, "velocity": 85}, {"time": 1869, "pitch": 67, "duration": 9, "velocity": 87}, {"time": 1893, "pitch": 72, "duration": 4, "velocity": 86}, {"time": 1899, "pitch": 74, "duration": 3, "velocity": 93}, {"time": 1905, "pitch": 72, "duration": 2, "velocity": 93}, {"time": 1908, "pitch": 70, "duration": 3, "velocity": 93}, {"time": 1917, "pitch": 67, "duration": 17, "velocity": 86}, {"time": 1935, "pitch": 67, "duration": 1, "velocity": 81}, {"time": 1938, "pitch": 67, "duration": 1, "velocity": 77}, {"time": 1941, "pitch": 65, "duration": 3, "velocity": 104}, {"time": 1947, "pitch": 77, "duration": 1, "velocity": 108}, {"time": 1950, "pitch": 77, "duration": 1, "velocity": 108}, {"time": 1953, "pitch": 77, "duration": 2, "velocity": 112}, {"time": 1959, "pitch": 74, "duration": 4, "velocity": 114}, {"time": 1965, "pitch": 72, "duration": 5, "velocity": 114}, {"time": 1971, "pitch": 67, "duration": 9, "velocity": 83}, {"time": 1980, "pitch": 67, "duration": 1, "velocity": 74}, {"time": 1983, "pitch": 72, "duration": 3, "velocity": 98}, {"time": 1989, "pitch": 70, "duration": 34, "velocity": 93}, {"time": 2028, "pitch": 77, "duration": 1, "velocity": 79}, {"time": 2031, "pitch": 79, "duration": 1, "velocity": 76}, {"time": 2034, "pitch": 77, "duration": 1, "velocity": 90}, {"time": 2037, "pitch": 79, "duration": 3, "velocity": 81}, {"time": 2040, "pitch": 77, "duration": 1, "velocity": 104}, {"time": 2043, "pitch": 77, "duration": 1, "velocity": 93}, {"time": 2043, "pitch": 77, "duration": 1, "velocity": 95}, {"time": 2046, "pitch": 77, "duration": 1, "velocity": 104}, {"time": 2049, "pitch": 79, "duration": 4, "velocity": 95}, {"time": 2055, "pitch": 77, "duration": 3, "velocity": 114}, {"time": 2061, "pitch": 79, "duration": 1, "velocity": 86}, {"time": 2064, "pitch": 77, "duration": 1, "velocity": 98}, {"time": 2067, "pitch": 74, "duration": 1, "velocity": 79}, {"time": 2070, "pitch": 77, "duration": 2, "velocity": 114}, {"time": 2076, "pitch": 77, "duration": 1, "velocity": 87}, {"time": 2079, "pitch": 77, "duration": 1, "velocity": 90}, {"time": 2082, "pitch": 79, "duration": 1, "velocity": 98}, {"time": 2085, "pitch": 82, "duration": 2, "velocity": 90}, {"time": 2088, "pitch": 79, "duration": 1, "velocity": 83}, {"time": 2091, "pitch": 79, "duration": 1, "velocity": 90}, {"time": 2094, "pitch": 79, "duration": 1, "velocity": 93}, {"time": 2097, "pitch": 77, "duration": 3, "velocity": 100}, {"time": 2106, "pitch": 72, "duration": 1, "velocity": 72}, {"time": 2109, "pitch": 74, "duration": 23, "velocity": 95}, {"time": 2133, "pitch": 82, "duration": 3, "velocity": 71}, {"time": 2139, "pitch": 79, "duration": 1, "velocity": 86}, {"time": 2142, "pitch": 79, "duration": 1, "velocity": 87}, {"time": 2145, "pitch": 79, "duration": 2, "velocity": 93}, {"time": 2151, "pitch": 79, "duration": 1, "velocity": 90}, {"time": 2154, "pitch": 79, "duration": 1, "velocity": 93}, {"time": 2157, "pitch": 77, "duration": 3, "velocity": 111}, {"time": 2160, "pitch": 74, "duration": 1, "velocity": 73}, {"time": 2163, "pitch": 74, "duration": 1, "velocity": 86}, {"time": 2166, "pitch": 74, "duration": 2, "velocity": 90}, {"time": 2172, "pitch": 67, "duration": 1, "velocity": 62}, {"time": 2175, "pitch": 67, "duration": 2, "velocity": 67}, {"time": 2178, "pitch": 70, "duration": 2, "velocity": 70}, {"time": 2181, "pitch": 72, "duration": 3, "velocity": 90}, {"time": 2187, "pitch": 74, "duration": 5, "velocity": 86}, {"time": 2193, "pitch": 72, "duration": 2, "velocity": 93}, {"time": 2196, "pitch": 72, "duration": 3, "velocity": 100}, {"time": 2202, "pitch": 67, "duration": 2, "velocity": 83}, {"time": 2205, "pitch": 72, "duration": 14, "velocity": 108}, {"time": 2220, "pitch": 77, "duration": 1, "velocity": 111}, {"time": 2223, "pitch": 79, "duration": 1, "velocity": 111}, {"time": 2226, "pitch": 77, "duration": 1, "velocity": 98}, {"time": 2229, "pitch": 79, "duration": 1, "velocity": 111}, {"time": 2232, "pitch": 77, "duration": 1, "velocity": 95}, {"time": 2235, "pitch": 77, "duration": 1, "velocity": 86}, {"time": 2238, "pitch": 77, "duration": 1, "velocity": 111}, {"time": 2241, "pitch": 79, "duration": 3, "velocity": 108}, {"time": 2247, "pitch": 77, "duration": 1, "velocity": 93}, {"time": 2253, "pitch": 79, "duration": 2, "velocity": 114}, {"time": 2256, "pitch": 77, "duration": 3, "velocity": 70}, {"time": 2259, "pitch": 74, "duration": 2, "velocity": 74}, {"time": 2262, "pitch": 77, "duration": 3, "velocity": 111}, {"time": 2268, "pitch": 77, "duration": 1, "velocity": 75}, {"time": 2271, "pitch": 77, "duration": 1, "velocity": 70}, {"time": 2274, "pitch": 79, "duration": 1, "velocity": 83}, {"time": 2277, "pitch": 82, "duration": 3, "velocity": 111}, {"time": 2280, "pitch": 79, "duration": 1, "velocity": 100}, {"time": 2283, "pitch": 79, "duration": 1, "velocity": 111}, {"time": 2286, "pitch": 79, "duration": 1, "velocity": 114}, {"time": 2289, "pitch": 77, "duration": 4, "velocity": 111}, {"time": 2298, "pitch": 72, "duration": 1, "velocity": 81}, {"time": 2301, "pitch": 74, "duration": 17, "velocity": 86}, {"time": 2325, "pitch": 82, "duration": 1, "velocity": 98}, {"time": 2328, "pitch": 79, "duration": 1, "velocity": 98}, {"time": 2331, "pitch": 79, "duration": 1, "velocity": 93}, {"time": 2334, "pitch": 79, "duration": 1, "velocity": 104}, {"time": 2337, "pitch": 79, "duration": 2, "velocity": 104}, {"time": 2343, "pitch": 79, "duration": 3, "velocity": 112}, {"time": 2349, "pitch": 77, "duration": 1, "velocity": 122}, {"time": 2352, "pitch": 74, "duration": 1, "velocity": 81}, {"time": 2355, "pitch": 74, "duration": 1, "velocity": 93}, {"time": 2358, "pitch": 74, "duration": 1, "velocity": 111}, {"time": 2364, "pitch": 67, "duration": 1, "velocity": 68}, {"time": 2367, "pitch": 67, "duration": 1, "velocity": 77}, {"time": 2370, "pitch": 70, "duration": 1, "velocity": 74}, {"time": 2373, "pitch": 74, "duration": 4, "velocity": 77}, {"time": 2379, "pitch": 72, "duration": 3, "velocity": 104}, {"time": 2385, "pitch": 72, "duration": 20, "velocity": 108}, {"time": 2409, "pitch": 72, "duration": 2, "velocity": 81}, {"time": 2412, "pitch": 74, "duration": 7, "velocity": 90}, {"time": 2439, "pitch": 67, "duration": 4, "velocity": 77}, {"time": 2445, "pitch": 70, "duration": 12, "velocity": 93}, {"time": 2460, "pitch": 77, "duration": 1, "velocity": 79}, {"time": 2463, "pitch": 79, "duration": 1, "velocity": 76}, {"time": 2466, "pitch": 77, "duration": 1, "velocity": 90}, {"time": 2469, "pitch": 79, "duration": 3, "velocity": 81}, {"time": 2472, "pitch": 77, "duration": 1, "velocity": 104}, {"time": 2475, "pitch": 77, "duration": 1, "velocity": 93}, {"time": 2475, "pitch": 77, "duration": 1, "velocity": 95}, {"time": 2478, "pitch": 77, "duration": 1, "velocity": 104}, {"time": 2481, "pitch": 79, "duration": 4, "velocity": 95}, {"time": 2487, "pitch": 77, "duration": 3, "velocity": 114}, {"time": 2493, "pitch": 79, "duration": 1, "velocity": 86}, {"time": 2496, "pitch": 77, "duration": 1, "velocity": 98}, {"time": 2499, "pitch": 74, "duration": 1, "velocity": 79}, {"time": 2502, "pitch": 77, "duration": 2, "velocity": 114}, {"time": 2508, "pitch": 77, "duration": 1, "velocity": 87}, {"time": 2511, "pitch": 77, "duration": 1, "velocity": 90}, {"time": 2514, "pitch": 79, "duration": 1, "velocity": 98}, {"time": 2517, "pitch": 82, "duration": 2, "velocity": 90}, {"time": 2520, "pitch": 79, "duration": 1, "velocity": 83}, {"time": 2523, "pitch": 79, "duration": 1, "velocity": 90}, {"time": 2526, "pitch": 79, "duration": 1, "velocity": 93}, {"time": 2529, "pitch": 77, "duration": 3, "velocity": 100}, {"time": 2538, "pitch": 72, "duration": 1, "velocity": 72}, {"time": 2541, "pitch": 74, "duration": 23, "velocity": 95}, {"time": 2565, "pitch": 82, "duration": 3, "velocity": 71}, {"time": 2571, "pitch": 79, "duration": 1, "velocity": 86}, {"time": 2574, "pitch": 79, "duration": 1, "velocity": 87}, {"time": 2577, "pitch": 79, "duration": 2, "velocity": 93}, {"time": 2583, "pitch": 79, "duration": 1, "velocity": 90}, {"time": 2586, "pitch": 79, "duration": 1, "velocity": 93}, {"time": 2589, "pitch": 77, "duration": 3, "velocity": 111}, {"time": 2592, "pitch": 74, "duration": 1, "velocity": 73}, {"time": 2595, "pitch": 74, "duration": 1, "velocity": 86}, {"time": 2598, "pitch": 74, "duration": 2, "velocity": 90}, {"time": 2604, "pitch": 67, "duration": 1, "velocity": 62}, {"time": 2607, "pitch": 67, "duration": 2, "velocity": 67}, {"time": 2610, "pitch": 70, "duration": 2, "velocity": 70}, {"time": 2613, "pitch": 72, "duration": 3, "velocity": 90}, {"time": 2619, "pitch": 74, "duration": 5, "velocity": 86}, {"time": 2625, "pitch": 72, "duration": 2, "velocity": 93}, {"time": 2628, "pitch": 72, "duration": 3, "velocity": 100}, {"time": 2634, "pitch": 67, "duration": 2, "velocity": 83}, {"time": 2637, "pitch": 72, "duration": 14, "velocity": 108}, {"time": 2652, "pitch": 77, "duration": 1, "velocity": 111}, {"time": 2655, "pitch": 79, "duration": 1, "velocity": 111}, {"time": 2658, "pitch": 77, "duration": 1, "velocity": 98}, {"time": 2661, "pitch": 79, "duration": 1, "velocity": 111}, {"time": 2664, "pitch": 77, "duration": 1, "velocity": 95}, {"time": 2667, "pitch": 77, "duration": 1, "velocity": 86}, {"time": 2670, "pitch": 77, "duration": 1, "velocity": 111}, {"time": 2673, "pitch": 79, "duration": 3, "velocity": 108}, {"time": 2679, "pitch": 77, "duration": 1, "velocity": 93}, {"time": 2685, "pitch": 79, "duration": 2, "velocity": 114}, {"time": 2688, "pitch": 77, "duration": 3, "velocity": 70}, {"time": 2691, "pitch": 74, "duration": 2, "velocity": 74}, {"time": 2694, "pitch": 77, "duration": 3, "velocity": 111}, {"time": 2700, "pitch": 77, "duration": 1, "velocity": 75}, {"time": 2703, "pitch": 77, "duration": 1, "velocity": 70}, {"time": 2706, "pitch": 79, "duration": 1, "velocity": 83}, {"time": 2709, "pitch": 82, "duration": 3, "velocity": 111}, {"time": 2712, "pitch": 79, "duration": 1, "velocity": 100}, {"time": 2715, "pitch": 79, "duration": 1, "velocity": 111}, {"time": 2718, "pitch": 79, "duration": 1, "velocity": 114}, {"time": 2721, "pitch": 77, "duration": 4, "velocity": 111}, {"time": 2730, "pitch": 72, "duration": 1, "velocity": 81}, {"time": 2733, "pitch": 74, "duration": 17, "velocity": 86}, {"time": 2757, "pitch": 82, "duration": 1, "velocity": 98}, {"time": 2760, "pitch": 79, "duration": 1, "velocity": 98}, {"time": 2763, "pitch": 79, "duration": 1, "velocity": 93}, {"time": 2766, "pitch": 79, "duration": 1, "velocity": 104}, {"time": 2769, "pitch": 79, "duration": 2, "velocity": 104}, {"time": 2775, "pitch": 79, "duration": 3, "velocity": 112}, {"time": 2781, "pitch": 77, "duration": 1, "velocity": 122}, {"time": 2784, "pitch": 74, "duration": 1, "velocity": 81}, {"time": 2787, "pitch": 74, "duration": 1, "velocity": 93}, {"time": 2790, "pitch": 74, "duration": 1, "velocity": 111}, {"time": 2796, "pitch": 67, "duration": 1, "velocity": 68}, {"time": 2799, "pitch": 67, "duration": 1, "velocity": 77}, {"time": 2802, "pitch": 70, "duration": 1, "velocity": 74}, {"time": 2805, "pitch": 74, "duration": 4, "velocity": 77}, {"time": 2811, "pitch": 72, "duration": 3, "velocity": 104}, {"time": 2817, "pitch": 72, "duration": 20, "velocity": 108}, {"time": 2841, "pitch": 72, "duration": 2, "velocity": 81}, {"time": 2847, "pitch": 74, "duration": 14, "velocity": 90}, {"time": 2871, "pitch": 67, "duration": 11, "velocity": 77}, {"time": 2886, "pitch": 70, "duration": 22, "velocity": 93}], "annotations": [{"time": 189, "annotation": {"number": 64, "value": 78}, "group": "control_change"}, {"time": 190, "annotation": {"number": 64, "value": 78}, "group": "control_change"}, {"time": 196, "annotation": {"number": 64, "value": 79}, "group": "control_change"}, {"time": 197, "annotation": {"number": 64, "value": 80}, "group": "control_change"}, {"time": 199, "annotation": {"number": 64, "value": 81}, "group": "control_change"}, {"time": 201, "annotation": {"number": 64, "value": 80}, "group": "control_change"}, {"time": 203, "annotation": {"number": 64, "value": 79}, "group": "control_change"}, {"time": 205, "annotation": {"number": 64, "value": 78}, "group": "control_change"}, {"time": 205, "annotation": {"number": 64, "value": 77}, "group": "control_change"}, {"time": 209, "annotation": {"number": 64, "value": 79}, "group": "control_change"}, {"time": 212, "annotation": {"number": 64, "value": 78}, "group": "control_change"}, {"time": 212, "annotation": {"number": 64, "value": 77}, "group": "control_change"}, {"time": 213, "annotation": {"number": 64, "value": 76}, "group": "control_change"}, {"time": 214, "annotation": {"number": 64, "value": 75}, "group": "control_change"}, {"time": 222, "annotation": {"number": 64, "value": 76}, "group": "control_change"}, {"time": 223, "annotation": {"number": 64, "value": 77}, "group": "control_change"}, {"time": 224, "annotation": {"number": 64, "value": 78}, "group": "control_change"}]}, {"program": 0, "is_drum": false, "name": "BRIDGE", "notes": [{"time": 57, "pitch": 70, "duration": 2, "velocity": 79}, {"time": 60, "pitch": 77, "duration": 4, "velocity": 77}, {"time": 66, "pitch": 74, "duration": 1, "velocity": 70}, {"time": 69, "pitch": 74, "duration": 21, "velocity": 81}, {"time": 90, "pitch": 72, "duration": 2, "velocity": 69}, {"time": 92, "pitch": 70, "duration": 1, "velocity": 65}, {"time": 93, "pitch": 69, "duration": 16, "velocity": 62}, {"time": 105, "pitch": 65, "duration": 12, "velocity": 79}, {"time": 117, "pitch": 79, "duration": 19, "velocity": 83}, {"time": 138, "pitch": 77, "duration": 2, "velocity": 90}, {"time": 139, "pitch": 75, "duration": 2, "velocity": 77}, {"time": 140, "pitch": 74, "duration": 11, "velocity": 65}, {"time": 150, "pitch": 77, "duration": 2, "velocity": 75}, {"time": 153, "pitch": 70, "duration": 9, "velocity": 90}, {"time": 165, "pitch": 72, "duration": 26, "velocity": 112}, {"time": 183, "pitch": 79, "duration": 4, "velocity": 86}, {"time": 189, "pitch": 77, "duration": 47, "velocity": 111}, {"time": 414, "pitch": 82, "duration": 3, "velocity": 50}, {"time": 417, "pitch": 81, "duration": 1, "velocity": 62}, {"time": 420, "pitch": 77, "duration": 1, "velocity": 81}, {"time": 423, "pitch": 72, "duration": 4, "velocity": 77}, {"time": 439, "pitch": 82, "duration": 2, "velocity": 50}, {"time": 439, "pitch": 86, "duration": 2, "velocity": 66}, {"time": 440, "pitch": 89, "duration": 6, "velocity": 74}, {"time": 585, "pitch": 77, "duration": 13, "velocity": 95}, {"time": 597, "pitch": 89, "duration": 17, "velocity": 112}, {"time": 783, "pitch": 74, "duration": 3, "velocity": 61}, {"time": 783, "pitch": 86, "duration": 3, "velocity": 74}, {"time": 789, "pitch": 72, "duration": 20, "velocity": 72}, {"time": 789, "pitch": 84, "duration": 20, "velocity": 68}, {"time": 846, "pitch": 62, "duration": 2, "velocity": 60}, {"time": 849, "pitch": 70, "duration": 2, "velocity": 67}, {"time": 852, "pitch": 62, "duration": 3, "velocity": 59}, {"time": 855, "pitch": 67, "duration": 3, "velocity": 61}, {"time": 858, "pitch": 74, "duration": 2, "velocity": 63}, {"time": 861, "pitch": 72, "duration": 5, "velocity": 74}, {"time": 894, "pitch": 62, "duration": 2, "velocity": 61}, {"time": 897, "pitch": 70, "duration": 3, "velocity": 74}, {"time": 984, "pitch": 79, "duration": 6, "velocity": 61}, {"time": 984, "pitch": 91, "duration": 7, "velocity": 71}, {"time": 993, "pitch": 81, "duration": 11, "velocity": 86}, {"time": 993, "pitch": 93, "duration": 11, "velocity": 87}, {"time": 1077, "pitch": 77, "duration": 3, "velocity": 81}, {"time": 1077, "pitch": 89, "duration": 3, "velocity": 85}, {"time": 1083, "pitch": 82, "duration": 5, "velocity": 85}, {"time": 1083, "pitch": 94, "duration": 5, "velocity": 85}, {"time": 1089, "pitch": 81, "duration": 5, "velocity": 90}, {"time": 1089, "pitch": 93, "duration": 5, "velocity": 90}, {"time": 1095, "pitch": 77, "duration": 4, "velocity": 93}, {"time": 1095, "pitch": 89, "duration": 4, "velocity": 93}, {"time": 1101, "pitch": 79, "duration": 10, "velocity": 111}, {"time": 1101, "pitch": 91, "duration": 10, "velocity": 111}, {"time": 1257, "pitch": 79, "duration": 6, "velocity": 74}, {"time": 1257, "pitch": 91, "duration": 6, "velocity": 74}, {"time": 1263, "pitch": 82, "duration": 6, "velocity": 64}, {"time": 1263, "pitch": 94, "duration": 6, "velocity": 64}, {"time": 1269, "pitch": 81, "duration": 6, "velocity": 70}, {"time": 1269, "pitch": 93, "duration": 6, "velocity": 70}, {"time": 1275, "pitch": 79, "duration": 6, "velocity": 76}, {"time": 1275, "pitch": 91, "duration": 7, "velocity": 76}, {"time": 1281, "pitch": 77, "duration": 10, "velocity": 81}, {"time": 1281, "pitch": 89, "duration": 10, "velocity": 81}, {"time": 1293, "pitch": 79, "duration": 12, "velocity": 87}, {"time": 1293, "pitch": 91, "duration": 12, "velocity": 87}, {"time": 1387, "pitch": 82, "duration": 2, "velocity": 61}, {"time": 1387, "pitch": 77, "duration": 1, "velocity": 39}, {"time": 1388, "pitch": 86, "duration": 1, "velocity": 54}, {"time": 1388, "pitch": 89, "duration": 3, "velocity": 83}, {"time": 1428, "pitch": 65, "duration": 6, "velocity": 64}, {"time": 1431, "pitch": 70, "duration": 3, "velocity": 58}, {"time": 1434, "pitch": 77, "duration": 3, "velocity": 60}, {"time": 1437, "pitch": 74, "duration": 11, "velocity": 72}, {"time": 1449, "pitch": 72, "duration": 5, "velocity": 69}, {"time": 1455, "pitch": 74, "duration": 2, "velocity": 63}, {"time": 1458, "pitch": 70, "duration": 11, "velocity": 74}, {"time": 1476, "pitch": 65, "duration": 3, "velocity": 68}, {"time": 1479, "pitch": 70, "duration": 3, "velocity": 67}, {"time": 1482, "pitch": 72, "duration": 2, "velocity": 67}, {"time": 1485, "pitch": 74, "duration": 5, "velocity": 76}, {"time": 1491, "pitch": 72, "duration": 3, "velocity": 60}, {"time": 1494, "pitch": 74, "duration": 2, "velocity": 67}, {"time": 1497, "pitch": 77, "duration": 7, "velocity": 85}, {"time": 1503, "pitch": 81, "duration": 4, "velocity": 81}, {"time": 1509, "pitch": 82, "duration": 12, "velocity": 87}, {"time": 1524, "pitch": 74, "duration": 2, "velocity": 71}, {"time": 1527, "pitch": 77, "duration": 1, "velocity": 75}, {"time": 1530, "pitch": 81, "duration": 1, "velocity": 81}, {"time": 1533, "pitch": 82, "duration": 7, "velocity": 104}, {"time": 1547, "pitch": 79, "duration": 1, "velocity": 87}, {"time": 1548, "pitch": 81, "duration": 1, "velocity": 90}, {"time": 1553, "pitch": 79, "duration": 2, "velocity": 76}, {"time": 1557, "pitch": 77, "duration": 4, "velocity": 95}, {"time": 1563, "pitch": 72, "duration": 1, "velocity": 62}, {"time": 1563, "pitch": 74, "duration": 5, "velocity": 111}, {"time": 1569, "pitch": 70, "duration": 7, "velocity": 81}, {"time": 1581, "pitch": 65, "duration": 3, "velocity": 62}, {"time": 1584, "pitch": 79, "duration": 3, "velocity": 65}, {"time": 1590, "pitch": 77, "duration": 2, "velocity": 87}, {"time": 1593, "pitch": 75, "duration": 3, "velocity": 95}, {"time": 1596, "pitch": 74, "duration": 4, "velocity": 85}, {"time": 1602, "pitch": 70, "duration": 3, "velocity": 75}, {"time": 1605, "pitch": 72, "duration": 10, "velocity": 86}, {"time": 1626, "pitch": 70, "duration": 2, "velocity": 73}, {"time": 1629, "pitch": 69, "duration": 12, "velocity": 76}, {"time": 1815, "pitch": 74, "duration": 3, "velocity": 61}, {"time": 1815, "pitch": 86, "duration": 3, "velocity": 74}, {"time": 1821, "pitch": 72, "duration": 20, "velocity": 72}, {"time": 1821, "pitch": 84, "duration": 20, "velocity": 68}, {"time": 1878, "pitch": 62, "duration": 2, "velocity": 60}, {"time": 1881, "pitch": 70, "duration": 2, "velocity": 67}, {"time": 1884, "pitch": 62, "duration": 3, "velocity": 59}, {"time": 1887, "pitch": 67, "duration": 3, "velocity": 61}, {"time": 1890, "pitch": 74, "duration": 2, "velocity": 63}, {"time": 1893, "pitch": 72, "duration": 5, "velocity": 74}, {"time": 1926, "pitch": 62, "duration": 2, "velocity": 61}, {"time": 1929, "pitch": 70, "duration": 3, "velocity": 74}, {"time": 2016, "pitch": 79, "duration": 6, "velocity": 61}, {"time": 2016, "pitch": 91, "duration": 7, "velocity": 71}, {"time": 2025, "pitch": 81, "duration": 11, "velocity": 86}, {"time": 2025, "pitch": 93, "duration": 11, "velocity": 87}, {"time": 2109, "pitch": 77, "duration": 3, "velocity": 81}, {"time": 2109, "pitch": 89, "duration": 3, "velocity": 85}, {"time": 2115, "pitch": 82, "duration": 5, "velocity": 85}, {"time": 2115, "pitch": 94, "duration": 5, "velocity": 85}, {"time": 2121, "pitch": 81, "duration": 5, "velocity": 90}, {"time": 2121, "pitch": 93, "duration": 5, "velocity": 90}, {"time": 2127, "pitch": 77, "duration": 4, "velocity": 93}, {"time": 2127, "pitch": 89, "duration": 4, "velocity": 93}, {"time": 2133, "pitch": 79, "duration": 10, "velocity": 111}, {"time": 2133, "pitch": 91, "duration": 10, "velocity": 111}, {"time": 2208, "pitch": 77, "duration": 4, "velocity": 78}, {"time": 2211, "pitch": 79, "duration": 2, "velocity": 80}, {"time": 2214, "pitch": 82, "duration": 1, "velocity": 80}, {"time": 2217, "pitch": 84, "duration": 1, "velocity": 81}, {"time": 2220, "pitch": 82, "duration": 1, "velocity": 82}, {"time": 2223, "pitch": 84, "duration": 1, "velocity": 82}, {"time": 2226, "pitch": 89, "duration": 1, "velocity": 83}, {"time": 2229, "pitch": 89, "duration": 1, "velocity": 83}, {"time": 2229, "pitch": 91, "duration": 7, "velocity": 83}, {"time": 2289, "pitch": 79, "duration": 6, "velocity": 74}, {"time": 2289, "pitch": 91, "duration": 6, "velocity": 74}, {"time": 2295, "pitch": 82, "duration": 6, "velocity": 64}, {"time": 2295, "pitch": 94, "duration": 6, "velocity": 64}, {"time": 2301, "pitch": 81, "duration": 6, "velocity": 70}, {"time": 2301, "pitch": 93, "duration": 6, "velocity": 70}, {"time": 2307, "pitch": 79, "duration": 6, "velocity": 76}, {"time": 2307, "pitch": 91, "duration": 7, "velocity": 76}, {"time": 2313, "pitch": 77, "duration": 10, "velocity": 81}, {"time": 2313, "pitch": 89, "duration": 10, "velocity": 81}, {"time": 2325, "pitch": 79, "duration": 12, "velocity": 87}, {"time": 2325, "pitch": 91, "duration": 12, "velocity": 87}, {"time": 2419, "pitch": 82, "duration": 2, "velocity": 61}, {"time": 2419, "pitch": 77, "duration": 1, "velocity": 39}, {"time": 2420, "pitch": 86, "duration": 1, "velocity": 54}, {"time": 2420, "pitch": 89, "duration": 3, "velocity": 83}, {"time": 2849, "pitch": 82, "duration": 2, "velocity": 61}, {"time": 2849, "pitch": 77, "duration": 1, "velocity": 39}, {"time": 2850, "pitch": 86, "duration": 1, "velocity": 54}, {"time": 2850, "pitch": 89, "duration": 3, "velocity": 83}, {"time": 2901, "pitch": 65, "duration": 13, "velocity": 67}, {"time": 2913, "pitch": 77, "duration": 10, "velocity": 86}, {"time": 2925, "pitch": 77, "duration": 49, "velocity": 83}, {"time": 2961, "pitch": 65, "duration": 12, "velocity": 68}, {"time": 2973, "pitch": 77, "duration": 1, "velocity": 76}, {"time": 3009, "pitch": 91, "duration": 5, "velocity": 81}, {"time": 3012, "pitch": 89, "duration": 4, "velocity": 81}, {"time": 3018, "pitch": 86, "duration": 3, "velocity": 63}, {"time": 3021, "pitch": 82, "duration": 13, "velocity": 77}, {"time": 3041, "pitch": 78, "duration": 17, "velocity": 61}, {"time": 3057, "pitch": 75, "duration": 12, "velocity": 77}, {"time": 3092, "pitch": 74, "duration": 2, "velocity": 60}, {"time": 3093, "pitch": 75, "duration": 3, "velocity": 71}, {"time": 3095, "pitch": 77, "duration": 20, "velocity": 70}], "annotations": [{"time": 36, "annotation": {"number": 64, "value": 94}, "group": "control_change"}, {"time": 37, "annotation": {"number": 64, "value": 95}, "group": "control_change"}, {"time": 38, "annotation": {"number": 64, "value": 96}, "group": "control_change"}, {"time": 38, "annotation": {"number": 64, "value": 95}, "group": "control_change"}, {"time": 40, "annotation": {"number": 64, "value": 94}, "group": "control_change"}, {"time": 43, "annotation": {"number": 64, "value": 95}, "group": "control_change"}, {"time": 44, "annotation": {"number": 64, "value": 96}, "group": "control_change"}, {"time": 45, "annotation": {"number": 64, "value": 97}, "group": "control_change"}, {"time": 45, "annotation": {"number": 64, "value": 98}, "group": "control_change"}, {"time": 46, "annotation": {"number": 64, "value": 99}, "group": "control_change"}, {"time": 46, "annotation": {"number": 64, "value": 98}, "group": "control_change"}, {"time": 46, "annotation": {"number": 64, "value": 97}, "group": "control_change"}, {"time": 46, "annotation": {"number": 64, "value": 96}, "group": "control_change"}, {"time": 47, "annotation": {"number": 64, "value": 95}, "group": "control_change"}, {"time": 47, "annotation": {"number": 64, "value": 94}, "group": "control_change"}, {"time": 47, "annotation": {"number": 64, "value": 93}, "group": "control_change"}, {"time": 48, "annotation": {"number": 64, "value": 92}, "group": "control_change"}, {"time": 49, "annotation": {"number": 64, "value": 91}, "group": "control_change"}, {"time": 49, "annotation": {"number": 64, "value": 90}, "group": "control_change"}, {"time": 49, "annotation": {"number": 64, "value": 89}, "group": "control_change"}, {"time": 50, "annotation": {"number": 64, "value": 88}, "group": "control_change"}, {"time": 50, "annotation": {"number": 64, "value": 87}, "group": "control_change"}, {"time": 50, "annotation": {"number": 64, "value": 86}, "group": "control_change"}, {"time": 51, "annotation": {"number": 64, "value": 85}, "group": "control_change"}, {"time": 51, "annotation": {"number": 64, "value": 84}, "group": "control_change"}, {"time": 52, "annotation": {"number": 64, "value": 83}, "group": "control_change"}, {"time": 52, "annotation": {"number": 64, "value": 82}, "group": "control_change"}, {"time": 52, "annotation": {"number": 64, "value": 81}, "group": "control_change"}, {"time": 53, "annotation": {"number": 64, "value": 81}, "group": "control_change"}, {"time": 53, "annotation": {"number": 64, "value": 82}, "group": "control_change"}, {"time": 54, "annotation": {"number": 64, "value": 83}, "group": "control_change"}, {"time": 55, "annotation": {"number": 64, "value": 84}, "group": "control_change"}, {"time": 55, "annotation": {"number": 64, "value": 85}, "group": "control_change"}, {"time": 56, "annotation": {"number": 64, "value": 86}, "group": "control_change"}, {"time": 56, "annotation": {"number": 64, "value": 87}, "group": "control_change"}, {"time": 56, "annotation": {"number": 64, "value": 88}, "group": "control_change"}, {"time": 56, "annotation": {"number": 64, "value": 89}, "group": "control_change"}, {"time": 56, "annotation": {"number": 64, "value": 90}, "group": "control_change"}, {"time": 57, "annotation": {"number": 64, "value": 90}, "group": "control_change"}, {"time": 57, "annotation": {"number": 64, "value": 91}, "group": "control_change"}, {"time": 57, "annotation": {"number": 64, "value": 92}, "group": "control_change"}, {"time": 57, "annotation": {"number": 64, "value": 93}, "group": "control_change"}, {"time": 57, "annotation": {"number": 64, "value": 94}, "group": "control_change"}, {"time": 58, "annotation": {"number": 64, "value": 95}, "group": "control_change"}, {"time": 58, "annotation": {"number": 64, "value": 96}, "group": "control_change"}, {"time": 59, "annotation": {"number": 64, "value": 95}, "group": "control_change"}, {"time": 59, "annotation": {"number": 64, "value": 94}, "group": "control_change"}, {"time": 59, "annotation": {"number": 64, "value": 93}, "group": "control_change"}, {"time": 59, "annotation": {"number": 64, "value": 92}, "group": "control_change"}, {"time": 59, "annotation": {"number": 64, "value": 91}, "group": "control_change"}, {"time": 60, "annotation": {"number": 64, "value": 90}, "group": "control_change"}, {"time": 60, "annotation": {"number": 64, "value": 89}, "group": "control_change"}, {"time": 61, "annotation": {"number": 64, "value": 88}, "group": "control_change"}, {"time": 61, "annotation": {"number": 64, "value": 87}, "group": "control_change"}, {"time": 61, "annotation": {"number": 64, "value": 86}, "group": "control_change"}, {"time": 394, "annotation": {"number": 64, "value": 80}, "group": "control_change"}, {"time": 395, "annotation": {"number": 64, "value": 79}, "group": "control_change"}, {"time": 396, "annotation": {"number": 64, "value": 78}, "group": "control_change"}, {"time": 396, "annotation": {"number": 64, "value": 77}, "group": "control_change"}, {"time": 397, "annotation": {"number": 64, "value": 76}, "group": "control_change"}, {"time": 399, "annotation": {"number": 64, "value": 75}, "group": "control_change"}, {"time": 400, "annotation": {"number": 64, "value": 74}, "group": "control_change"}, {"time": 401, "annotation": {"number": 64, "value": 73}, "group": "control_change"}, {"time": 402, "annotation": {"number": 64, "value": 72}, "group": "control_change"}, {"time": 404, "annotation": {"number": 64, "value": 71}, "group": "control_change"}, {"time": 405, "annotation": {"number": 64, "value": 70}, "group": "control_change"}, {"time": 407, "annotation": {"number": 64, "value": 69}, "group": "control_change"}, {"time": 409, "annotation": {"number": 64, "value": 70}, "group": "control_change"}, {"time": 409, "annotation": {"number": 64, "value": 71}, "group": "control_change"}, {"time": 410, "annotation": {"number": 64, "value": 71}, "group": "control_change"}, {"time": 410, "annotation": {"number": 64, "value": 72}, "group": "control_change"}, {"time": 410, "annotation": {"number": 64, "value": 73}, "group": "control_change"}, {"time": 411, "annotation": {"number": 64, "value": 74}, "group": "control_change"}, {"time": 412, "annotation": {"number": 64, "value": 75}, "group": "control_change"}, {"time": 413, "annotation": {"number": 64, "value": 76}, "group": "control_change"}, {"time": 413, "annotation": {"number": 64, "value": 77}, "group": "control_change"}, {"time": 414, "annotation": {"number": 64, "value": 78}, "group": "control_change"}, {"time": 414, "annotation": {"number": 64, "value": 79}, "group": "control_change"}, {"time": 414, "annotation": {"number": 64, "value": 80}, "group": "control_change"}, {"time": 415, "annotation": {"number": 64, "value": 81}, "group": "control_change"}, {"time": 415, "annotation": {"number": 64, "value": 82}, "group": "control_change"}, {"time": 416, "annotation": {"number": 64, "value": 83}, "group": "control_change"}, {"time": 417, "annotation": {"number": 64, "value": 82}, "group": "control_change"}, {"time": 418, "annotation": {"number": 64, "value": 81}, "group": "control_change"}, {"time": 419, "annotation": {"number": 64, "value": 80}, "group": "control_change"}, {"time": 419, "annotation": {"number": 64, "value": 79}, "group": "control_change"}, {"time": 419, "annotation": {"number": 64, "value": 78}, "group": "control_change"}, {"time": 419, "annotation": {"number": 64, "value": 77}, "group": "control_change"}, {"time": 420, "annotation": {"number": 64, "value": 76}, "group": "control_change"}, {"time": 421, "annotation": {"number": 64, "value": 76}, "group": "control_change"}, {"time": 422, "annotation": {"number": 64, "value": 77}, "group": "control_change"}, {"time": 423, "annotation": {"number": 64, "value": 78}, "group": "control_change"}, {"time": 424, "annotation": {"number": 64, "value": 79}, "group": "control_change"}, {"time": 425, "annotation": {"number": 64, "value": 80}, "group": "control_change"}, {"time": 425, "annotation": {"number": 64, "value": 81}, "group": "control_change"}, {"time": 426, "annotation": {"number": 64, "value": 82}, "group": "control_change"}, {"time": 426, "annotation": {"number": 64, "value": 83}, "group": "control_change"}, {"time": 426, "annotation": {"number": 64, "value": 84}, "group": "control_change"}, {"time": 426, "annotation": {"number": 64, "value": 85}, "group": "control_change"}, {"time": 426, "annotation": {"number": 64, "value": 86}, "group": "control_change"}, {"time": 427, "annotation": {"number": 64, "value": 87}, "group": "control_change"}]}, {"program": 0, "is_drum": false, "name": "PIANO", "notes": [{"time": 18, "pitch": 46, "duration": 43, "velocity": 68}, {"time": 18, "pitch": 67, "duration": 15, "velocity": 46}, {"time": 18, "pitch": 70, "duration": 9, "velocity": 14}, {"time": 21, "pitch": 79, "duration": 12, "velocity": 60}, {"time": 27, "pitch": 53, "duration": 37, "velocity": 61}, {"time": 33, "pitch": 77, "duration": 30, "velocity": 70}, {"time": 69, "pitch": 43, "duration": 40, "velocity": 60}, {"time": 69, "pitch": 67, "duration": 10, "velocity": 33}, {"time": 69, "pitch": 72, "duration": 1, "velocity": 46}, {"time": 72, "pitch": 82, "duration": 5, "velocity": 49}, {"time": 75, "pitch": 50, "duration": 35, "velocity": 50}, {"time": 78, "pitch": 55, "duration": 30, "velocity": 44}, {"time": 78, "pitch": 79, "duration": 12, "velocity": 74}, {"time": 117, "pitch": 39, "duration": 19, "velocity": 70}, {"time": 117, "pitch": 55, "duration": 18, "velocity": 52}, {"time": 117, "pitch": 58, "duration": 18, "velocity": 67}, {"time": 117, "pitch": 63, "duration": 17, "velocity": 61}, {"time": 123, "pitch": 46, "duration": 12, "velocity": 59}, {"time": 129, "pitch": 51, "duration": 5, "velocity": 58}, {"time": 141, "pitch": 38, "duration": 21, "velocity": 58}, {"time": 141, "pitch": 53, "duration": 11, "velocity": 52}, {"time": 141, "pitch": 57, "duration": 12, "velocity": 47}, {"time": 141, "pitch": 62, "duration": 11, "velocity": 59}, {"time": 147, "pitch": 45, "duration": 13, "velocity": 49}, {"time": 153, "pitch": 53, "duration": 7, "velocity": 67}, {"time": 165, "pitch": 36, "duration": 18, "velocity": 68}, {"time": 165, "pitch": 51, "duration": 16, "velocity": 59}, {"time": 165, "pitch": 55, "duration": 17, "velocity": 54}, {"time": 165, "pitch": 60, "duration": 17, "velocity": 60}, {"time": 171, "pitch": 43, "duration": 12, "velocity": 58}, {"time": 177, "pitch": 48, "duration": 8, "velocity": 63}, {"time": 183, "pitch": 51, "duration": 1, "velocity": 63}, {"time": 189, "pitch": 41, "duration": 42, "velocity": 74}, {"time": 189, "pitch": 57, "duration": 20, "velocity": 56}, {"time": 189, "pitch": 60, "duration": 18, "velocity": 52}, {"time": 189, "pitch": 65, "duration": 19, "velocity": 67}, {"time": 195, "pitch": 48, "duration": 36, "velocity": 63}, {"time": 201, "pitch": 53, "duration": 12, "velocity": 58}, {"time": 210, "pitch": 60, "duration": 2, "velocity": 59}, {"time": 212, "pitch": 69, "duration": 12, "velocity": 56}, {"time": 212, "pitch": 72, "duration": 12, "velocity": 60}, {"time": 212, "pitch": 65, "duration": 6, "velocity": 60}, {"time": 213, "pitch": 65, "duration": 5, "velocity": 63}, {"time": 213, "pitch": 77, "duration": 11, "velocity": 68}, {"time": 237, "pitch": 46, "duration": 36, "velocity": 66}, {"time": 237, "pitch": 65, "duration": 37, "velocity": 69}, {"time": 243, "pitch": 53, "duration": 29, "velocity": 58}, {"time": 249, "pitch": 58, "duration": 13, "velocity": 53}, {"time": 255, "pitch": 62, "duration": 6, "velocity": 54}, {"time": 261, "pitch": 70, "duration": 12, "velocity": 58}, {"time": 273, "pitch": 62, "duration": 4, "velocity": 64}, {"time": 279, "pitch": 45, "duration": 4, "velocity": 71}, {"time": 279, "pitch": 60, "duration": 4, "velocity": 60}, {"time": 285, "pitch": 43, "duration": 42, "velocity": 65}, {"time": 285, "pitch": 58, "duration": 35, "velocity": 58}, {"time": 285, "pitch": 62, "duration": 17, "velocity": 59}, {"time": 291, "pitch": 50, "duration": 33, "velocity": 60}, {"time": 297, "pitch": 55, "duration": 19, "velocity": 53}, {"time": 309, "pitch": 62, "duration": 10, "velocity": 9}, {"time": 309, "pitch": 67, "duration": 11, "velocity": 68}, {"time": 321, "pitch": 58, "duration": 9, "velocity": 59}, {"time": 321, "pitch": 62, "duration": 9, "velocity": 65}, {"time": 333, "pitch": 39, "duration": 21, "velocity": 74}, {"time": 333, "pitch": 55, "duration": 12, "velocity": 66}, {"time": 333, "pitch": 58, "duration": 13, "velocity": 75}, {"time": 333, "pitch": 63, "duration": 10, "velocity": 85}, {"time": 339, "pitch": 46, "duration": 14, "velocity": 66}, {"time": 345, "pitch": 51, "duration": 5, "velocity": 53}, {"time": 351, "pitch": 55, "duration": 3, "velocity": 57}, {"time": 357, "pitch": 38, "duration": 20, "velocity": 57}, {"time": 357, "pitch": 53, "duration": 11, "velocity": 59}, {"time": 357, "pitch": 57, "duration": 14, "velocity": 67}, {"time": 363, "pitch": 45, "duration": 14, "velocity": 63}, {"time": 369, "pitch": 53, "duration": 6, "velocity": 65}, {"time": 375, "pitch": 50, "duration": 1, "velocity": 43}, {"time": 381, "pitch": 36, "duration": 17, "velocity": 62}, {"time": 381, "pitch": 51, "duration": 13, "velocity": 59}, {"time": 381, "pitch": 55, "duration": 10, "velocity": 59}, {"time": 387, "pitch": 43, "duration": 12, "velocity": 61}, {"time": 393, "pitch": 60, "duration": 7, "velocity": 67}, {"time": 399, "pitch": 55, "duration": 4, "velocity": 43}, {"time": 405, "pitch": 41, "duration": 18, "velocity": 60}, {"time": 411, "pitch": 48, "duration": 12, "velocity": 60}, {"time": 414, "pitch": 57, "duration": 10, "velocity": 59}, {"time": 417, "pitch": 53, "duration": 6, "velocity": 72}, {"time": 420, "pitch": 60, "duration": 6, "velocity": 65}, {"time": 423, "pitch": 63, "duration": 3, "velocity": 68}, {"time": 429, "pitch": 46, "duration": 22, "velocity": 85}, {"time": 432, "pitch": 53, "duration": 18, "velocity": 61}, {"time": 435, "pitch": 58, "duration": 7, "velocity": 53}, {"time": 438, "pitch": 62, "duration": 12, "velocity": 62}, {"time": 441, "pitch": 65, "duration": 9, "velocity": 73}, {"time": 453, "pitch": 43, "duration": 19, "velocity": 67}, {"time": 459, "pitch": 50, "duration": 13, "velocity": 52}, {"time": 465, "pitch": 58, "duration": 8, "velocity": 9}, {"time": 465, "pitch": 62, "duration": 8, "velocity": 62}, {"time": 465, "pitch": 67, "duration": 7, "velocity": 75}, {"time": 477, "pitch": 48, "duration": 19, "velocity": 63}, {"time": 477, "pitch": 63, "duration": 11, "velocity": 60}, {"time": 477, "pitch": 67, "duration": 11, "velocity": 60}, {"time": 483, "pitch": 55, "duration": 10, "velocity": 50}, {"time": 489, "pitch": 63, "duration": 7, "velocity": 67}, {"time": 489, "pitch": 67, "duration": 7, "velocity": 64}, {"time": 489, "pitch": 72, "duration": 6, "velocity": 65}, {"time": 501, "pitch": 43, "duration": 22, "velocity": 72}, {"time": 501, "pitch": 58, "duration": 10, "velocity": 58}, {"time": 501, "pitch": 62, "duration": 22, "velocity": 60}, {"time": 507, "pitch": 50, "duration": 16, "velocity": 43}, {"time": 513, "pitch": 67, "duration": 9, "velocity": 62}, {"time": 519, "pitch": 55, "duration": 4, "velocity": 43}, {"time": 525, "pitch": 48, "duration": 21, "velocity": 69}, {"time": 528, "pitch": 55, "duration": 16, "velocity": 62}, {"time": 531, "pitch": 60, "duration": 7, "velocity": 58}, {"time": 534, "pitch": 62, "duration": 2, "velocity": 63}, {"time": 537, "pitch": 63, "duration": 9, "velocity": 75}, {"time": 549, "pitch": 39, "duration": 18, "velocity": 75}, {"time": 552, "pitch": 46, "duration": 15, "velocity": 65}, {"time": 555, "pitch": 51, "duration": 6, "velocity": 56}, {"time": 558, "pitch": 55, "duration": 12, "velocity": 62}, {"time": 561, "pitch": 58, "duration": 6, "velocity": 70}, {"time": 567, "pitch": 62, "duration": 5, "velocity": 66}, {"time": 573, "pitch": 41, "duration": 41, "velocity": 64}, {"time": 573, "pitch": 57, "duration": 23, "velocity": 63}, {"time": 579, "pitch": 48, "duration": 24, "velocity": 59}, {"time": 585, "pitch": 53, "duration": 14, "velocity": 55}, {"time": 591, "pitch": 58, "duration": 5, "velocity": 63}, {"time": 597, "pitch": 65, "duration": 17, "velocity": 87}, {"time": 621, "pitch": 46, "duration": 42, "velocity": 67}, {"time": 621, "pitch": 62, "duration": 10, "velocity": 61}, {"time": 621, "pitch": 65, "duration": 10, "velocity": 63}, {"time": 627, "pitch": 53, "duration": 26, "velocity": 60}, {"time": 633, "pitch": 62, "duration": 10, "velocity": 60}, {"time": 633, "pitch": 65, "duration": 11, "velocity": 71}, {"time": 639, "pitch": 58, "duration": 7, "velocity": 47}, {"time": 645, "pitch": 65, "duration": 11, "velocity": 46}, {"time": 645, "pitch": 70, "duration": 7, "velocity": 64}, {"time": 657, "pitch": 62, "duration": 6, "velocity": 79}, {"time": 663, "pitch": 60, "duration": 5, "velocity": 68}, {"time": 669, "pitch": 43, "duration": 41, "velocity": 76}, {"time": 672, "pitch": 50, "duration": 37, "velocity": 61}, {"time": 675, "pitch": 55, "duration": 6, "velocity": 56}, {"time": 678, "pitch": 57, "duration": 3, "velocity": 60}, {"time": 681, "pitch": 58, "duration": 6, "velocity": 67}, {"time": 684, "pitch": 55, "duration": 10, "velocity": 54}, {"time": 687, "pitch": 60, "duration": 2, "velocity": 64}, {"time": 693, "pitch": 65, "duration": 12, "velocity": 75}, {"time": 699, "pitch": 55, "duration": 7, "velocity": 58}, {"time": 705, "pitch": 60, "duration": 12, "velocity": 64}, {"time": 717, "pitch": 39, "duration": 21, "velocity": 73}, {"time": 717, "pitch": 55, "duration": 11, "velocity": 63}, {"time": 717, "pitch": 58, "duration": 11, "velocity": 61}, {"time": 717, "pitch": 63, "duration": 10, "velocity": 75}, {"time": 723, "pitch": 46, "duration": 13, "velocity": 66}, {"time": 729, "pitch": 55, "duration": 6, "velocity": 59}, {"time": 729, "pitch": 58, "duration": 6, "velocity": 65}, {"time": 735, "pitch": 51, "duration": 2, "velocity": 52}, {"time": 741, "pitch": 38, "duration": 16, "velocity": 64}, {"time": 741, "pitch": 53, "duration": 11, "velocity": 65}, {"time": 741, "pitch": 57, "duration": 11, "velocity": 64}, {"time": 747, "pitch": 45, "duration": 10, "velocity": 12}, {"time": 747, "pitch": 50, "duration": 6, "velocity": 59}, {"time": 753, "pitch": 53, "duration": 7, "velocity": 72}, {"time": 756, "pitch": 50, "duration": 3, "velocity": 60}, {"time": 759, "pitch": 57, "duration": 4, "velocity": 63}, {"time": 765, "pitch": 48, "duration": 18, "velocity": 41}, {"time": 768, "pitch": 55, "duration": 14, "velocity": 60}, {"time": 771, "pitch": 60, "duration": 6, "velocity": 47}, {"time": 774, "pitch": 62, "duration": 3, "velocity": 65}, {"time": 777, "pitch": 63, "duration": 6, "velocity": 81}, {"time": 780, "pitch": 60, "duration": 3, "velocity": 58}, {"time": 783, "pitch": 65, "duration": 3, "velocity": 74}, {"time": 786, "pitch": 63, "duration": 3, "velocity": 67}, {"time": 789, "pitch": 41, "duration": 18, "velocity": 71}, {"time": 792, "pitch": 48, "duration": 15, "velocity": 66}, {"time": 795, "pitch": 53, "duration": 11, "velocity": 63}, {"time": 798, "pitch": 55, "duration": 2, "velocity": 70}, {"time": 801, "pitch": 57, "duration": 7, "velocity": 76}, {"time": 813, "pitch": 46, "duration": 21, "velocity": 75}, {"time": 819, "pitch": 53, "duration": 14, "velocity": 58}, {"time": 825, "pitch": 62, "duration": 5, "velocity": 73}, {"time": 825, "pitch": 65, "duration": 5, "velocity": 76}, {"time": 831, "pitch": 58, "duration": 2, "velocity": 45}, {"time": 837, "pitch": 43, "duration": 18, "velocity": 67}, {"time": 843, "pitch": 50, "duration": 13, "velocity": 65}, {"time": 849, "pitch": 58, "duration": 7, "velocity": 62}, {"time": 849, "pitch": 62, "duration": 6, "velocity": 74}, {"time": 855, "pitch": 55, "duration": 4, "velocity": 58}, {"time": 861, "pitch": 48, "duration": 18, "velocity": 68}, {"time": 861, "pitch": 63, "duration": 11, "velocity": 60}, {"time": 861, "pitch": 67, "duration": 11, "velocity": 67}, {"time": 867, "pitch": 55, "duration": 12, "velocity": 61}, {"time": 873, "pitch": 60, "duration": 4, "velocity": 58}, {"time": 873, "pitch": 63, "duration": 6, "velocity": 64}, {"time": 873, "pitch": 67, "duration": 6, "velocity": 67}, {"time": 885, "pitch": 43, "duration": 21, "velocity": 76}, {"time": 885, "pitch": 58, "duration": 11, "velocity": 60}, {"time": 885, "pitch": 62, "duration": 8, "velocity": 74}, {"time": 891, "pitch": 50, "duration": 13, "velocity": 63}, {"time": 894, "pitch": 55, "duration": 4, "velocity": 60}, {"time": 897, "pitch": 58, "duration": 4, "velocity": 70}, {"time": 900, "pitch": 55, "duration": 3, "velocity": 59}, {"time": 903, "pitch": 58, "duration": 5, "velocity": 53}, {"time": 903, "pitch": 62, "duration": 5, "velocity": 69}, {"time": 909, "pitch": 46, "duration": 17, "velocity": 67}, {"time": 909, "pitch": 62, "duration": 11, "velocity": 64}, {"time": 909, "pitch": 65, "duration": 11, "velocity": 74}, {"time": 915, "pitch": 53, "duration": 11, "velocity": 67}, {"time": 921, "pitch": 62, "duration": 6, "velocity": 64}, {"time": 921, "pitch": 65, "duration": 6, "velocity": 64}, {"time": 921, "pitch": 70, "duration": 6, "velocity": 66}, {"time": 933, "pitch": 41, "duration": 18, "velocity": 73}, {"time": 933, "pitch": 57, "duration": 10, "velocity": 65}, {"time": 933, "pitch": 60, "duration": 10, "velocity": 61}, {"time": 933, "pitch": 65, "duration": 6, "velocity": 69}, {"time": 939, "pitch": 48, "duration": 13, "velocity": 63}, {"time": 942, "pitch": 65, "duration": 1, "velocity": 11}, {"time": 945, "pitch": 57, "duration": 7, "velocity": 68}, {"time": 945, "pitch": 60, "duration": 7, "velocity": 72}, {"time": 945, "pitch": 65, "duration": 7, "velocity": 74}, {"time": 951, "pitch": 53, "duration": 5, "velocity": 59}, {"time": 957, "pitch": 46, "duration": 20, "velocity": 73}, {"time": 957, "pitch": 62, "duration": 13, "velocity": 67}, {"time": 957, "pitch": 65, "duration": 13, "velocity": 67}, {"time": 957, "pitch": 70, "duration": 13, "velocity": 67}, {"time": 963, "pitch": 53, "duration": 16, "velocity": 65}, {"time": 969, "pitch": 58, "duration": 5, "velocity": 58}, {"time": 972, "pitch": 62, "duration": 11, "velocity": 71}, {"time": 975, "pitch": 65, "duration": 4, "velocity": 74}, {"time": 981, "pitch": 39, "duration": 7, "velocity": 73}, {"time": 981, "pitch": 55, "duration": 6, "velocity": 56}, {"time": 981, "pitch": 58, "duration": 7, "velocity": 59}, {"time": 981, "pitch": 63, "duration": 6, "velocity": 59}, {"time": 993, "pitch": 41, "duration": 6, "velocity": 64}, {"time": 993, "pitch": 57, "duration": 7, "velocity": 40}, {"time": 993, "pitch": 60, "duration": 6, "velocity": 59}, {"time": 993, "pitch": 65, "duration": 6, "velocity": 58}, {"time": 1005, "pitch": 46, "duration": 12, "velocity": 65}, {"time": 1005, "pitch": 53, "duration": 12, "velocity": 65}, {"time": 1005, "pitch": 62, "duration": 10, "velocity": 72}, {"time": 1005, "pitch": 65, "duration": 10, "velocity": 81}, {"time": 1017, "pitch": 62, "duration": 2, "velocity": 68}, {"time": 1017, "pitch": 65, "duration": 2, "velocity": 77}, {"time": 1020, "pitch": 46, "duration": 3, "velocity": 72}, {"time": 1023, "pitch": 62, "duration": 2, "velocity": 68}, {"time": 1023, "pitch": 65, "duration": 2, "velocity": 77}, {"time": 1029, "pitch": 45, "duration": 15, "velocity": 69}, {"time": 1029, "pitch": 53, "duration": 17, "velocity": 48}, {"time": 1029, "pitch": 60, "duration": 11, "velocity": 72}, {"time": 1029, "pitch": 65, "duration": 11, "velocity": 90}, {"time": 1041, "pitch": 60, "duration": 6, "velocity": 68}, {"time": 1041, "pitch": 65, "duration": 6, "velocity": 86}, {"time": 1047, "pitch": 45, "duration": 3, "velocity": 89}, {"time": 1053, "pitch": 43, "duration": 15, "velocity": 71}, {"time": 1053, "pitch": 50, "duration": 12, "velocity": 60}, {"time": 1053, "pitch": 58, "duration": 10, "velocity": 67}, {"time": 1053, "pitch": 62, "duration": 10, "velocity": 77}, {"time": 1053, "pitch": 67, "duration": 10, "velocity": 67}, {"time": 1065, "pitch": 58, "duration": 3, "velocity": 81}, {"time": 1065, "pitch": 62, "duration": 3, "velocity": 93}, {"time": 1065, "pitch": 67, "duration": 3, "velocity": 79}, {"time": 1068, "pitch": 43, "duration": 3, "velocity": 100}, {"time": 1071, "pitch": 58, "duration": 3, "velocity": 81}, {"time": 1071, "pitch": 62, "duration": 2, "velocity": 93}, {"time": 1071, "pitch": 67, "duration": 3, "velocity": 79}, {"time": 1074, "pitch": 31, "duration": 3, "velocity": 86}, {"time": 1077, "pitch": 38, "duration": 18, "velocity": 61}, {"time": 1077, "pitch": 53, "duration": 11, "velocity": 65}, {"time": 1077, "pitch": 57, "duration": 11, "velocity": 60}, {"time": 1077, "pitch": 62, "duration": 11, "velocity": 69}, {"time": 1083, "pitch": 45, "duration": 15, "velocity": 47}, {"time": 1089, "pitch": 53, "duration": 7, "velocity": 74}, {"time": 1089, "pitch": 57, "duration": 6, "velocity": 81}, {"time": 1089, "pitch": 62, "duration": 6, "velocity": 79}, {"time": 1095, "pitch": 38, "duration": 3, "velocity": 100}, {"time": 1095, "pitch": 50, "duration": 5, "velocity": 58}, {"time": 1101, "pitch": 39, "duration": 15, "velocity": 81}, {"time": 1101, "pitch": 55, "duration": 10, "velocity": 65}, {"time": 1101, "pitch": 58, "duration": 10, "velocity": 71}, {"time": 1101, "pitch": 63, "duration": 10, "velocity": 71}, {"time": 1107, "pitch": 46, "duration": 14, "velocity": 70}, {"time": 1113, "pitch": 55, "duration": 3, "velocity": 79}, {"time": 1113, "pitch": 58, "duration": 3, "velocity": 87}, {"time": 1113, "pitch": 63, "duration": 2, "velocity": 90}, {"time": 1116, "pitch": 39, "duration": 3, "velocity": 100}, {"time": 1119, "pitch": 51, "duration": 2, "velocity": 58}, {"time": 1119, "pitch": 55, "duration": 3, "velocity": 79}, {"time": 1119, "pitch": 58, "duration": 3, "velocity": 87}, {"time": 1119, "pitch": 63, "duration": 2, "velocity": 90}, {"time": 1125, "pitch": 38, "duration": 9, "velocity": 81}, {"time": 1125, "pitch": 53, "duration": 11, "velocity": 67}, {"time": 1125, "pitch": 57, "duration": 11, "velocity": 74}, {"time": 1125, "pitch": 62, "duration": 11, "velocity": 75}, {"time": 1131, "pitch": 45, "duration": 6, "velocity": 66}, {"time": 1137, "pitch": 43, "duration": 6, "velocity": 81}, {"time": 1137, "pitch": 58, "duration": 6, "velocity": 65}, {"time": 1137, "pitch": 62, "duration": 6, "velocity": 70}, {"time": 1137, "pitch": 67, "duration": 6, "velocity": 71}, {"time": 1143, "pitch": 38, "duration": 3, "velocity": 87}, {"time": 1149, "pitch": 36, "duration": 18, "velocity": 82}, {"time": 1149, "pitch": 51, "duration": 10, "velocity": 82}, {"time": 1149, "pitch": 55, "duration": 10, "velocity": 82}, {"time": 1149, "pitch": 60, "duration": 10, "velocity": 82}, {"time": 1155, "pitch": 43, "duration": 13, "velocity": 53}, {"time": 1161, "pitch": 51, "duration": 6, "velocity": 72}, {"time": 1161, "pitch": 55, "duration": 6, "velocity": 73}, {"time": 1161, "pitch": 60, "duration": 6, "velocity": 72}, {"time": 1167, "pitch": 48, "duration": 5, "velocity": 66}, {"time": 1173, "pitch": 41, "duration": 15, "velocity": 87}, {"time": 1173, "pitch": 57, "duration": 7, "velocity": 66}, {"time": 1173, "pitch": 60, "duration": 7, "velocity": 69}, {"time": 1173, "pitch": 65, "duration": 7, "velocity": 74}, {"time": 1179, "pitch": 48, "duration": 13, "velocity": 75}, {"time": 1182, "pitch": 57, "duration": 1, "velocity": 32}, {"time": 1182, "pitch": 60, "duration": 1, "velocity": 43}, {"time": 1182, "pitch": 65, "duration": 1, "velocity": 49}, {"time": 1185, "pitch": 57, "duration": 3, "velocity": 79}, {"time": 1185, "pitch": 60, "duration": 3, "velocity": 87}, {"time": 1185, "pitch": 65, "duration": 3, "velocity": 93}, {"time": 1188, "pitch": 41, "duration": 3, "velocity": 100}, {"time": 1191, "pitch": 53, "duration": 5, "velocity": 61}, {"time": 1191, "pitch": 57, "duration": 3, "velocity": 79}, {"time": 1191, "pitch": 60, "duration": 3, "velocity": 87}, {"time": 1191, "pitch": 65, "duration": 3, "velocity": 93}, {"time": 1197, "pitch": 46, "duration": 15, "velocity": 85}, {"time": 1197, "pitch": 62, "duration": 7, "velocity": 77}, {"time": 1197, "pitch": 65, "duration": 7, "velocity": 87}, {"time": 1197, "pitch": 70, "duration": 7, "velocity": 75}, {"time": 1203, "pitch": 53, "duration": 9, "velocity": 71}, {"time": 1206, "pitch": 62, "duration": 1, "velocity": 54}, {"time": 1206, "pitch": 65, "duration": 1, "velocity": 59}, {"time": 1206, "pitch": 70, "duration": 1, "velocity": 59}, {"time": 1209, "pitch": 62, "duration": 3, "velocity": 87}, {"time": 1209, "pitch": 65, "duration": 3, "velocity": 95}, {"time": 1209, "pitch": 70, "duration": 3, "velocity": 79}, {"time": 1212, "pitch": 46, "duration": 3, "velocity": 100}, {"time": 1215, "pitch": 62, "duration": 3, "velocity": 87}, {"time": 1215, "pitch": 65, "duration": 3, "velocity": 95}, {"time": 1215, "pitch": 70, "duration": 3, "velocity": 79}, {"time": 1221, "pitch": 45, "duration": 15, "velocity": 79}, {"time": 1221, "pitch": 60, "duration": 10, "velocity": 65}, {"time": 1221, "pitch": 65, "duration": 10, "velocity": 71}, {"time": 1221, "pitch": 70, "duration": 10, "velocity": 53}, {"time": 1233, "pitch": 60, "duration": 3, "velocity": 74}, {"time": 1233, "pitch": 65, "duration": 3, "velocity": 87}, {"time": 1233, "pitch": 70, "duration": 3, "velocity": 77}, {"time": 1236, "pitch": 45, "duration": 3, "velocity": 100}, {"time": 1239, "pitch": 60, "duration": 3, "velocity": 74}, {"time": 1239, "pitch": 65, "duration": 3, "velocity": 87}, {"time": 1239, "pitch": 70, "duration": 3, "velocity": 77}, {"time": 1242, "pitch": 45, "duration": 3, "velocity": 100}, {"time": 1245, "pitch": 43, "duration": 18, "velocity": 76}, {"time": 1245, "pitch": 58, "duration": 10, "velocity": 65}, {"time": 1245, "pitch": 62, "duration": 10, "velocity": 73}, {"time": 1245, "pitch": 67, "duration": 10, "velocity": 75}, {"time": 1251, "pitch": 50, "duration": 10, "velocity": 63}, {"time": 1257, "pitch": 58, "duration": 6, "velocity": 77}, {"time": 1257, "pitch": 62, "duration": 6, "velocity": 93}, {"time": 1257, "pitch": 67, "duration": 6, "velocity": 87}, {"time": 1269, "pitch": 41, "duration": 15, "velocity": 70}, {"time": 1269, "pitch": 57, "duration": 10, "velocity": 58}, {"time": 1269, "pitch": 60, "duration": 11, "velocity": 60}, {"time": 1269, "pitch": 65, "duration": 11, "velocity": 72}, {"time": 1275, "pitch": 48, "duration": 16, "velocity": 56}, {"time": 1281, "pitch": 57, "duration": 3, "velocity": 73}, {"time": 1281, "pitch": 60, "duration": 3, "velocity": 76}, {"time": 1281, "pitch": 65, "duration": 3, "velocity": 81}, {"time": 1284, "pitch": 41, "duration": 3, "velocity": 100}, {"time": 1287, "pitch": 53, "duration": 4, "velocity": 51}, {"time": 1287, "pitch": 57, "duration": 3, "velocity": 73}, {"time": 1287, "pitch": 60, "duration": 3, "velocity": 76}, {"time": 1287, "pitch": 65, "duration": 3, "velocity": 81}, {"time": 1293, "pitch": 39, "duration": 22, "velocity": 76}, {"time": 1293, "pitch": 55, "duration": 10, "velocity": 66}, {"time": 1293, "pitch": 58, "duration": 10, "velocity": 74}, {"time": 1293, "pitch": 63, "duration": 10, "velocity": 79}, {"time": 1299, "pitch": 46, "duration": 14, "velocity": 76}, {"time": 1305, "pitch": 55, "duration": 7, "velocity": 76}, {"time": 1305, "pitch": 58, "duration": 7, "velocity": 81}, {"time": 1305, "pitch": 63, "duration": 7, "velocity": 87}, {"time": 1311, "pitch": 51, "duration": 2, "velocity": 59}, {"time": 1317, "pitch": 38, "duration": 12, "velocity": 81}, {"time": 1317, "pitch": 53, "duration": 11, "velocity": 77}, {"time": 1317, "pitch": 57, "duration": 11, "velocity": 81}, {"time": 1317, "pitch": 62, "duration": 11, "velocity": 79}, {"time": 1323, "pitch": 45, "duration": 5, "velocity": 81}, {"time": 1329, "pitch": 43, "duration": 6, "velocity": 76}, {"time": 1329, "pitch": 58, "duration": 6, "velocity": 63}, {"time": 1329, "pitch": 62, "duration": 6, "velocity": 69}, {"time": 1329, "pitch": 67, "duration": 6, "velocity": 75}, {"time": 1341, "pitch": 36, "duration": 18, "velocity": 68}, {"time": 1341, "pitch": 51, "duration": 10, "velocity": 61}, {"time": 1341, "pitch": 55, "duration": 10, "velocity": 58}, {"time": 1341, "pitch": 60, "duration": 10, "velocity": 64}, {"time": 1347, "pitch": 43, "duration": 13, "velocity": 55}, {"time": 1353, "pitch": 51, "duration": 6, "velocity": 68}, {"time": 1353, "pitch": 55, "duration": 6, "velocity": 67}, {"time": 1353, "pitch": 60, "duration": 6, "velocity": 75}, {"time": 1359, "pitch": 48, "duration": 5, "velocity": 59}, {"time": 1365, "pitch": 41, "duration": 20, "velocity": 72}, {"time": 1365, "pitch": 57, "duration": 11, "velocity": 72}, {"time": 1365, "pitch": 60, "duration": 11, "velocity": 65}, {"time": 1365, "pitch": 65, "duration": 11, "velocity": 72}, {"time": 1371, "pitch": 48, "duration": 13, "velocity": 75}, {"time": 1377, "pitch": 57, "duration": 8, "velocity": 68}, {"time": 1377, "pitch": 60, "duration": 7, "velocity": 76}, {"time": 1377, "pitch": 65, "duration": 8, "velocity": 83}, {"time": 1383, "pitch": 53, "duration": 2, "velocity": 65}, {"time": 1383, "pitch": 60, "duration": 1, "velocity": 61}, {"time": 1386, "pitch": 77, "duration": 4, "velocity": 58}, {"time": 1387, "pitch": 65, "duration": 11, "velocity": 60}, {"time": 1388, "pitch": 84, "duration": 4, "velocity": 65}, {"time": 1389, "pitch": 89, "duration": 9, "velocity": 79}, {"time": 1437, "pitch": 58, "duration": 8, "velocity": 64}, {"time": 1437, "pitch": 74, "duration": 7, "velocity": 63}, {"time": 1437, "pitch": 77, "duration": 7, "velocity": 72}, {"time": 1443, "pitch": 65, "duration": 6, "velocity": 74}, {"time": 1449, "pitch": 57, "duration": 6, "velocity": 81}, {"time": 1449, "pitch": 72, "duration": 6, "velocity": 63}, {"time": 1449, "pitch": 77, "duration": 7, "velocity": 83}, {"time": 1458, "pitch": 55, "duration": 13, "velocity": 70}, {"time": 1458, "pitch": 70, "duration": 13, "velocity": 60}, {"time": 1458, "pitch": 74, "duration": 13, "velocity": 76}, {"time": 1473, "pitch": 53, "duration": 9, "velocity": 83}, {"time": 1473, "pitch": 69, "duration": 9, "velocity": 61}, {"time": 1473, "pitch": 72, "duration": 9, "velocity": 71}, {"time": 1485, "pitch": 58, "duration": 8, "velocity": 67}, {"time": 1485, "pitch": 74, "duration": 7, "velocity": 63}, {"time": 1485, "pitch": 77, "duration": 11, "velocity": 83}, {"time": 1497, "pitch": 57, "duration": 6, "velocity": 81}, {"time": 1497, "pitch": 72, "duration": 6, "velocity": 68}, {"time": 1497, "pitch": 77, "duration": 6, "velocity": 83}, {"time": 1506, "pitch": 55, "duration": 17, "velocity": 59}, {"time": 1506, "pitch": 70, "duration": 9, "velocity": 61}, {"time": 1506, "pitch": 74, "duration": 10, "velocity": 58}, {"time": 1506, "pitch": 79, "duration": 10, "velocity": 63}, {"time": 1512, "pitch": 62, "duration": 12, "velocity": 67}, {"time": 1518, "pitch": 70, "duration": 5, "velocity": 63}, {"time": 1521, "pitch": 74, "duration": 6, "velocity": 77}, {"time": 1524, "pitch": 79, "duration": 3, "velocity": 65}, {"time": 1533, "pitch": 51, "duration": 21, "velocity": 74}, {"time": 1533, "pitch": 67, "duration": 10, "velocity": 58}, {"time": 1533, "pitch": 70, "duration": 10, "velocity": 48}, {"time": 1533, "pitch": 75, "duration": 10, "velocity": 59}, {"time": 1539, "pitch": 58, "duration": 13, "velocity": 68}, {"time": 1545, "pitch": 67, "duration": 7, "velocity": 63}, {"time": 1545, "pitch": 70, "duration": 7, "velocity": 74}, {"time": 1545, "pitch": 75, "duration": 7, "velocity": 75}, {"time": 1551, "pitch": 63, "duration": 2, "velocity": 53}, {"time": 1557, "pitch": 50, "duration": 21, "velocity": 74}, {"time": 1557, "pitch": 65, "duration": 11, "velocity": 63}, {"time": 1557, "pitch": 69, "duration": 11, "velocity": 63}, {"time": 1557, "pitch": 74, "duration": 11, "velocity": 72}, {"time": 1563, "pitch": 57, "duration": 13, "velocity": 53}, {"time": 1569, "pitch": 65, "duration": 6, "velocity": 62}, {"time": 1569, "pitch": 69, "duration": 6, "velocity": 65}, {"time": 1569, "pitch": 74, "duration": 6, "velocity": 73}, {"time": 1575, "pitch": 62, "duration": 2, "velocity": 53}, {"time": 1581, "pitch": 48, "duration": 18, "velocity": 71}, {"time": 1581, "pitch": 63, "duration": 10, "velocity": 64}, {"time": 1581, "pitch": 67, "duration": 11, "velocity": 63}, {"time": 1581, "pitch": 72, "duration": 11, "velocity": 69}, {"time": 1587, "pitch": 55, "duration": 13, "velocity": 61}, {"time": 1590, "pitch": 60, "duration": 4, "velocity": 60}, {"time": 1593, "pitch": 63, "duration": 11, "velocity": 69}, {"time": 1599, "pitch": 60, "duration": 5, "velocity": 58}, {"time": 1599, "pitch": 67, "duration": 5, "velocity": 64}, {"time": 1605, "pitch": 53, "duration": 42, "velocity": 76}, {"time": 1608, "pitch": 60, "duration": 38, "velocity": 63}, {"time": 1611, "pitch": 65, "duration": 9, "velocity": 59}, {"time": 1614, "pitch": 69, "duration": 6, "velocity": 63}, {"time": 1617, "pitch": 72, "duration": 5, "velocity": 65}, {"time": 1620, "pitch": 77, "duration": 3, "velocity": 75}, {"time": 1623, "pitch": 65, "duration": 24, "velocity": 58}, {"time": 1629, "pitch": 89, "duration": 13, "velocity": 76}, {"time": 1653, "pitch": 46, "duration": 42, "velocity": 67}, {"time": 1653, "pitch": 62, "duration": 10, "velocity": 61}, {"time": 1653, "pitch": 65, "duration": 10, "velocity": 63}, {"time": 1659, "pitch": 53, "duration": 26, "velocity": 60}, {"time": 1665, "pitch": 62, "duration": 10, "velocity": 60}, {"time": 1665, "pitch": 65, "duration": 11, "velocity": 71}, {"time": 1671, "pitch": 58, "duration": 7, "velocity": 47}, {"time": 1677, "pitch": 65, "duration": 11, "velocity": 46}, {"time": 1677, "pitch": 70, "duration": 7, "velocity": 64}, {"time": 1689, "pitch": 62, "duration": 6, "velocity": 79}, {"time": 1695, "pitch": 60, "duration": 5, "velocity": 68}, {"time": 1701, "pitch": 43, "duration": 41, "velocity": 76}, {"time": 1704, "pitch": 50, "duration": 37, "velocity": 61}, {"time": 1707, "pitch": 55, "duration": 6, "velocity": 56}, {"time": 1710, "pitch": 57, "duration": 3, "velocity": 60}, {"time": 1713, "pitch": 58, "duration": 6, "velocity": 67}, {"time": 1716, "pitch": 55, "duration": 10, "velocity": 54}, {"time": 1719, "pitch": 60, "duration": 2, "velocity": 64}, {"time": 1725, "pitch": 65, "duration": 12, "velocity": 75}, {"time": 1731, "pitch": 55, "duration": 7, "velocity": 58}, {"time": 1737, "pitch": 60, "duration": 12, "velocity": 64}, {"time": 1749, "pitch": 39, "duration": 21, "velocity": 73}, {"time": 1749, "pitch": 55, "duration": 11, "velocity": 63}, {"time": 1749, "pitch": 58, "duration": 11, "velocity": 61}, {"time": 1749, "pitch": 63, "duration": 10, "velocity": 75}, {"time": 1755, "pitch": 46, "duration": 13, "velocity": 66}, {"time": 1761, "pitch": 55, "duration": 6, "velocity": 59}, {"time": 1761, "pitch": 58, "duration": 6, "velocity": 65}, {"time": 1767, "pitch": 51, "duration": 2, "velocity": 52}, {"time": 1773, "pitch": 38, "duration": 16, "velocity": 64}, {"time": 1773, "pitch": 53, "duration": 11, "velocity": 65}, {"time": 1773, "pitch": 57, "duration": 11, "velocity": 64}, {"time": 1779, "pitch": 45, "duration": 10, "velocity": 12}, {"time": 1779, "pitch": 50, "duration": 6, "velocity": 59}, {"time": 1785, "pitch": 53, "duration": 7, "velocity": 72}, {"time": 1788, "pitch": 50, "duration": 3, "velocity": 60}, {"time": 1791, "pitch": 57, "duration": 4, "velocity": 63}, {"time": 1797, "pitch": 48, "duration": 18, "velocity": 41}, {"time": 1800, "pitch": 55, "duration": 14, "velocity": 60}, {"time": 1803, "pitch": 60, "duration": 6, "velocity": 47}, {"time": 1806, "pitch": 62, "duration": 3, "velocity": 65}, {"time": 1809, "pitch": 63, "duration": 6, "velocity": 81}, {"time": 1812, "pitch": 60, "duration": 3, "velocity": 58}, {"time": 1815, "pitch": 65, "duration": 3, "velocity": 74}, {"time": 1818, "pitch": 63, "duration": 3, "velocity": 67}, {"time": 1821, "pitch": 41, "duration": 18, "velocity": 71}, {"time": 1824, "pitch": 48, "duration": 15, "velocity": 66}, {"time": 1827, "pitch": 53, "duration": 11, "velocity": 63}, {"time": 1830, "pitch": 55, "duration": 2, "velocity": 70}, {"time": 1833, "pitch": 57, "duration": 7, "velocity": 76}, {"time": 1845, "pitch": 46, "duration": 21, "velocity": 75}, {"time": 1851, "pitch": 53, "duration": 14, "velocity": 58}, {"time": 1857, "pitch": 62, "duration": 5, "velocity": 73}, {"time": 1857, "pitch": 65, "duration": 5, "velocity": 76}, {"time": 1863, "pitch": 58, "duration": 2, "velocity": 45}, {"time": 1869, "pitch": 43, "duration": 18, "velocity": 67}, {"time": 1875, "pitch": 50, "duration": 13, "velocity": 65}, {"time": 1881, "pitch": 58, "duration": 7, "velocity": 62}, {"time": 1881, "pitch": 62, "duration": 6, "velocity": 74}, {"time": 1887, "pitch": 55, "duration": 4, "velocity": 58}, {"time": 1893, "pitch": 48, "duration": 18, "velocity": 68}, {"time": 1893, "pitch": 63, "duration": 11, "velocity": 60}, {"time": 1893, "pitch": 67, "duration": 11, "velocity": 67}, {"time": 1899, "pitch": 55, "duration": 12, "velocity": 61}, {"time": 1905, "pitch": 60, "duration": 4, "velocity": 58}, {"time": 1905, "pitch": 63, "duration": 6, "velocity": 64}, {"time": 1905, "pitch": 67, "duration": 6, "velocity": 67}, {"time": 1917, "pitch": 43, "duration": 21, "velocity": 76}, {"time": 1917, "pitch": 58, "duration": 11, "velocity": 60}, {"time": 1917, "pitch": 62, "duration": 8, "velocity": 74}, {"time": 1923, "pitch": 50, "duration": 13, "velocity": 63}, {"time": 1926, "pitch": 55, "duration": 4, "velocity": 60}, {"time": 1929, "pitch": 58, "duration": 4, "velocity": 70}, {"time": 1932, "pitch": 55, "duration": 3, "velocity": 59}, {"time": 1935, "pitch": 58, "duration": 5, "velocity": 53}, {"time": 1935, "pitch": 62, "duration": 5, "velocity": 69}, {"time": 1941, "pitch": 46, "duration": 17, "velocity": 67}, {"time": 1941, "pitch": 62, "duration": 11, "velocity": 64}, {"time": 1941, "pitch": 65, "duration": 11, "velocity": 74}, {"time": 1947, "pitch": 53, "duration": 11, "velocity": 67}, {"time": 1953, "pitch": 62, "duration": 6, "velocity": 64}, {"time": 1953, "pitch": 65, "duration": 6, "velocity": 64}, {"time": 1953, "pitch": 70, "duration": 6, "velocity": 66}, {"time": 1965, "pitch": 41, "duration": 18, "velocity": 73}, {"time": 1965, "pitch": 57, "duration": 10, "velocity": 65}, {"time": 1965, "pitch": 60, "duration": 10, "velocity": 61}, {"time": 1965, "pitch": 65, "duration": 6, "velocity": 69}, {"time": 1971, "pitch": 48, "duration": 13, "velocity": 63}, {"time": 1974, "pitch": 65, "duration": 1, "velocity": 11}, {"time": 1977, "pitch": 57, "duration": 7, "velocity": 68}, {"time": 1977, "pitch": 60, "duration": 7, "velocity": 72}, {"time": 1977, "pitch": 65, "duration": 7, "velocity": 74}, {"time": 1983, "pitch": 53, "duration": 5, "velocity": 59}, {"time": 1989, "pitch": 46, "duration": 21, "velocity": 73}, {"time": 1989, "pitch": 62, "duration": 13, "velocity": 67}, {"time": 1989, "pitch": 65, "duration": 13, "velocity": 67}, {"time": 1989, "pitch": 70, "duration": 13, "velocity": 67}, {"time": 1995, "pitch": 53, "duration": 16, "velocity": 65}, {"time": 2001, "pitch": 58, "duration": 5, "velocity": 58}, {"time": 2004, "pitch": 62, "duration": 11, "velocity": 71}, {"time": 2007, "pitch": 65, "duration": 4, "velocity": 74}, {"time": 2011, "pitch": 58, "duration": 8, "velocity": 59}, {"time": 2012, "pitch": 55, "duration": 6, "velocity": 56}, {"time": 2012, "pitch": 39, "duration": 7, "velocity": 73}, {"time": 2013, "pitch": 63, "duration": 6, "velocity": 59}, {"time": 2024, "pitch": 41, "duration": 6, "velocity": 64}, {"time": 2024, "pitch": 57, "duration": 7, "velocity": 40}, {"time": 2024, "pitch": 60, "duration": 6, "velocity": 59}, {"time": 2024, "pitch": 65, "duration": 7, "velocity": 58}, {"time": 2037, "pitch": 46, "duration": 12, "velocity": 65}, {"time": 2037, "pitch": 53, "duration": 12, "velocity": 65}, {"time": 2037, "pitch": 62, "duration": 10, "velocity": 72}, {"time": 2037, "pitch": 65, "duration": 10, "velocity": 81}, {"time": 2049, "pitch": 62, "duration": 2, "velocity": 68}, {"time": 2049, "pitch": 65, "duration": 2, "velocity": 77}, {"time": 2052, "pitch": 46, "duration": 3, "velocity": 72}, {"time": 2055, "pitch": 62, "duration": 2, "velocity": 68}, {"time": 2055, "pitch": 65, "duration": 2, "velocity": 77}, {"time": 2061, "pitch": 45, "duration": 15, "velocity": 69}, {"time": 2061, "pitch": 53, "duration": 17, "velocity": 48}, {"time": 2061, "pitch": 60, "duration": 11, "velocity": 72}, {"time": 2061, "pitch": 65, "duration": 11, "velocity": 90}, {"time": 2073, "pitch": 60, "duration": 6, "velocity": 68}, {"time": 2073, "pitch": 65, "duration": 6, "velocity": 86}, {"time": 2079, "pitch": 45, "duration": 3, "velocity": 89}, {"time": 2085, "pitch": 43, "duration": 15, "velocity": 71}, {"time": 2085, "pitch": 50, "duration": 12, "velocity": 60}, {"time": 2085, "pitch": 58, "duration": 10, "velocity": 67}, {"time": 2085, "pitch": 62, "duration": 10, "velocity": 77}, {"time": 2085, "pitch": 67, "duration": 10, "velocity": 67}, {"time": 2097, "pitch": 58, "duration": 3, "velocity": 81}, {"time": 2097, "pitch": 62, "duration": 3, "velocity": 93}, {"time": 2097, "pitch": 67, "duration": 3, "velocity": 79}, {"time": 2100, "pitch": 43, "duration": 3, "velocity": 100}, {"time": 2103, "pitch": 58, "duration": 3, "velocity": 81}, {"time": 2103, "pitch": 62, "duration": 2, "velocity": 93}, {"time": 2103, "pitch": 67, "duration": 3, "velocity": 79}, {"time": 2106, "pitch": 31, "duration": 3, "velocity": 86}, {"time": 2109, "pitch": 38, "duration": 18, "velocity": 61}, {"time": 2109, "pitch": 53, "duration": 11, "velocity": 65}, {"time": 2109, "pitch": 57, "duration": 11, "velocity": 60}, {"time": 2109, "pitch": 62, "duration": 11, "velocity": 69}, {"time": 2115, "pitch": 45, "duration": 15, "velocity": 47}, {"time": 2121, "pitch": 53, "duration": 7, "velocity": 74}, {"time": 2121, "pitch": 57, "duration": 6, "velocity": 81}, {"time": 2121, "pitch": 62, "duration": 6, "velocity": 79}, {"time": 2127, "pitch": 38, "duration": 3, "velocity": 100}, {"time": 2127, "pitch": 50, "duration": 5, "velocity": 58}, {"time": 2133, "pitch": 39, "duration": 15, "velocity": 81}, {"time": 2133, "pitch": 55, "duration": 10, "velocity": 65}, {"time": 2133, "pitch": 58, "duration": 10, "velocity": 71}, {"time": 2133, "pitch": 63, "duration": 10, "velocity": 71}, {"time": 2139, "pitch": 46, "duration": 14, "velocity": 70}, {"time": 2145, "pitch": 55, "duration": 3, "velocity": 79}, {"time": 2145, "pitch": 58, "duration": 3, "velocity": 87}, {"time": 2145, "pitch": 63, "duration": 2, "velocity": 90}, {"time": 2148, "pitch": 39, "duration": 3, "velocity": 100}, {"time": 2151, "pitch": 51, "duration": 2, "velocity": 58}, {"time": 2151, "pitch": 55, "duration": 3, "velocity": 79}, {"time": 2151, "pitch": 58, "duration": 3, "velocity": 87}, {"time": 2151, "pitch": 63, "duration": 2, "velocity": 90}, {"time": 2157, "pitch": 38, "duration": 9, "velocity": 81}, {"time": 2157, "pitch": 53, "duration": 11, "velocity": 67}, {"time": 2157, "pitch": 57, "duration": 11, "velocity": 74}, {"time": 2157, "pitch": 62, "duration": 11, "velocity": 75}, {"time": 2163, "pitch": 45, "duration": 6, "velocity": 66}, {"time": 2169, "pitch": 43, "duration": 6, "velocity": 81}, {"time": 2169, "pitch": 58, "duration": 6, "velocity": 65}, {"time": 2169, "pitch": 62, "duration": 6, "velocity": 70}, {"time": 2169, "pitch": 67, "duration": 6, "velocity": 71}, {"time": 2175, "pitch": 38, "duration": 3, "velocity": 87}, {"time": 2181, "pitch": 36, "duration": 18, "velocity": 82}, {"time": 2181, "pitch": 51, "duration": 10, "velocity": 82}, {"time": 2181, "pitch": 55, "duration": 10, "velocity": 82}, {"time": 2181, "pitch": 60, "duration": 10, "velocity": 82}, {"time": 2187, "pitch": 43, "duration": 13, "velocity": 53}, {"time": 2193, "pitch": 51, "duration": 6, "velocity": 72}, {"time": 2193, "pitch": 55, "duration": 6, "velocity": 73}, {"time": 2193, "pitch": 60, "duration": 6, "velocity": 72}, {"time": 2199, "pitch": 48, "duration": 5, "velocity": 66}, {"time": 2205, "pitch": 41, "duration": 15, "velocity": 87}, {"time": 2205, "pitch": 57, "duration": 7, "velocity": 66}, {"time": 2205, "pitch": 60, "duration": 7, "velocity": 69}, {"time": 2205, "pitch": 65, "duration": 7, "velocity": 74}, {"time": 2211, "pitch": 48, "duration": 13, "velocity": 75}, {"time": 2214, "pitch": 57, "duration": 1, "velocity": 32}, {"time": 2214, "pitch": 60, "duration": 1, "velocity": 43}, {"time": 2214, "pitch": 65, "duration": 1, "velocity": 49}, {"time": 2217, "pitch": 57, "duration": 3, "velocity": 79}, {"time": 2217, "pitch": 60, "duration": 3, "velocity": 87}, {"time": 2217, "pitch": 65, "duration": 3, "velocity": 93}, {"time": 2220, "pitch": 41, "duration": 3, "velocity": 100}, {"time": 2223, "pitch": 53, "duration": 5, "velocity": 61}, {"time": 2223, "pitch": 57, "duration": 3, "velocity": 79}, {"time": 2223, "pitch": 60, "duration": 3, "velocity": 87}, {"time": 2223, "pitch": 65, "duration": 3, "velocity": 93}, {"time": 2229, "pitch": 46, "duration": 15, "velocity": 85}, {"time": 2229, "pitch": 62, "duration": 7, "velocity": 77}, {"time": 2229, "pitch": 65, "duration": 7, "velocity": 87}, {"time": 2229, "pitch": 70, "duration": 7, "velocity": 75}, {"time": 2235, "pitch": 53, "duration": 9, "velocity": 71}, {"time": 2238, "pitch": 62, "duration": 1, "velocity": 54}, {"time": 2238, "pitch": 65, "duration": 1, "velocity": 59}, {"time": 2238, "pitch": 70, "duration": 1, "velocity": 59}, {"time": 2241, "pitch": 62, "duration": 3, "velocity": 87}, {"time": 2241, "pitch": 65, "duration": 3, "velocity": 95}, {"time": 2241, "pitch": 70, "duration": 3, "velocity": 79}, {"time": 2244, "pitch": 46, "duration": 3, "velocity": 100}, {"time": 2247, "pitch": 62, "duration": 3, "velocity": 87}, {"time": 2247, "pitch": 65, "duration": 3, "velocity": 95}, {"time": 2247, "pitch": 70, "duration": 3, "velocity": 79}, {"time": 2253, "pitch": 45, "duration": 15, "velocity": 79}, {"time": 2253, "pitch": 60, "duration": 10, "velocity": 65}, {"time": 2253, "pitch": 65, "duration": 10, "velocity": 71}, {"time": 2253, "pitch": 70, "duration": 10, "velocity": 53}, {"time": 2265, "pitch": 60, "duration": 3, "velocity": 74}, {"time": 2265, "pitch": 65, "duration": 3, "velocity": 87}, {"time": 2265, "pitch": 70, "duration": 3, "velocity": 77}, {"time": 2268, "pitch": 45, "duration": 3, "velocity": 100}, {"time": 2271, "pitch": 60, "duration": 3, "velocity": 74}, {"time": 2271, "pitch": 65, "duration": 3, "velocity": 87}, {"time": 2271, "pitch": 70, "duration": 3, "velocity": 77}, {"time": 2274, "pitch": 45, "duration": 3, "velocity": 100}, {"time": 2277, "pitch": 43, "duration": 18, "velocity": 76}, {"time": 2277, "pitch": 58, "duration": 10, "velocity": 65}, {"time": 2277, "pitch": 62, "duration": 10, "velocity": 73}, {"time": 2277, "pitch": 67, "duration": 10, "velocity": 75}, {"time": 2283, "pitch": 50, "duration": 10, "velocity": 63}, {"time": 2289, "pitch": 58, "duration": 6, "velocity": 77}, {"time": 2289, "pitch": 62, "duration": 6, "velocity": 93}, {"time": 2289, "pitch": 67, "duration": 6, "velocity": 87}, {"time": 2301, "pitch": 41, "duration": 15, "velocity": 70}, {"time": 2301, "pitch": 57, "duration": 10, "velocity": 58}, {"time": 2301, "pitch": 60, "duration": 11, "velocity": 60}, {"time": 2301, "pitch": 65, "duration": 11, "velocity": 72}, {"time": 2307, "pitch": 48, "duration": 16, "velocity": 56}, {"time": 2313, "pitch": 57, "duration": 3, "velocity": 73}, {"time": 2313, "pitch": 60, "duration": 3, "velocity": 76}, {"time": 2313, "pitch": 65, "duration": 3, "velocity": 81}, {"time": 2316, "pitch": 41, "duration": 3, "velocity": 100}, {"time": 2319, "pitch": 53, "duration": 4, "velocity": 51}, {"time": 2319, "pitch": 57, "duration": 3, "velocity": 73}, {"time": 2319, "pitch": 60, "duration": 3, "velocity": 76}, {"time": 2319, "pitch": 65, "duration": 3, "velocity": 81}, {"time": 2325, "pitch": 39, "duration": 22, "velocity": 76}, {"time": 2325, "pitch": 55, "duration": 10, "velocity": 66}, {"time": 2325, "pitch": 58, "duration": 10, "velocity": 74}, {"time": 2325, "pitch": 63, "duration": 10, "velocity": 79}, {"time": 2331, "pitch": 46, "duration": 14, "velocity": 76}, {"time": 2337, "pitch": 55, "duration": 7, "velocity": 76}, {"time": 2337, "pitch": 58, "duration": 7, "velocity": 81}, {"time": 2337, "pitch": 63, "duration": 7, "velocity": 87}, {"time": 2343, "pitch": 51, "duration": 2, "velocity": 59}, {"time": 2349, "pitch": 38, "duration": 12, "velocity": 81}, {"time": 2349, "pitch": 53, "duration": 11, "velocity": 77}, {"time": 2349, "pitch": 57, "duration": 11, "velocity": 81}, {"time": 2349, "pitch": 62, "duration": 11, "velocity": 79}, {"time": 2355, "pitch": 45, "duration": 5, "velocity": 81}, {"time": 2361, "pitch": 43, "duration": 6, "velocity": 76}, {"time": 2361, "pitch": 58, "duration": 6, "velocity": 63}, {"time": 2361, "pitch": 62, "duration": 6, "velocity": 69}, {"time": 2361, "pitch": 67, "duration": 6, "velocity": 75}, {"time": 2373, "pitch": 36, "duration": 18, "velocity": 68}, {"time": 2373, "pitch": 51, "duration": 10, "velocity": 61}, {"time": 2373, "pitch": 55, "duration": 10, "velocity": 58}, {"time": 2373, "pitch": 60, "duration": 10, "velocity": 64}, {"time": 2379, "pitch": 43, "duration": 13, "velocity": 55}, {"time": 2385, "pitch": 51, "duration": 6, "velocity": 68}, {"time": 2385, "pitch": 55, "duration": 6, "velocity": 67}, {"time": 2385, "pitch": 60, "duration": 6, "velocity": 75}, {"time": 2391, "pitch": 48, "duration": 5, "velocity": 59}, {"time": 2397, "pitch": 41, "duration": 20, "velocity": 72}, {"time": 2397, "pitch": 57, "duration": 11, "velocity": 72}, {"time": 2397, "pitch": 60, "duration": 11, "velocity": 65}, {"time": 2397, "pitch": 65, "duration": 11, "velocity": 72}, {"time": 2403, "pitch": 48, "duration": 13, "velocity": 75}, {"time": 2409, "pitch": 57, "duration": 8, "velocity": 68}, {"time": 2409, "pitch": 60, "duration": 7, "velocity": 76}, {"time": 2409, "pitch": 65, "duration": 8, "velocity": 83}, {"time": 2421, "pitch": 46, "duration": 24, "velocity": 85}, {"time": 2421, "pitch": 62, "duration": 10, "velocity": 63}, {"time": 2421, "pitch": 65, "duration": 11, "velocity": 73}, {"time": 2421, "pitch": 70, "duration": 10, "velocity": 66}, {"time": 2427, "pitch": 53, "duration": 18, "velocity": 62}, {"time": 2433, "pitch": 62, "duration": 11, "velocity": 62}, {"time": 2433, "pitch": 65, "duration": 11, "velocity": 67}, {"time": 2433, "pitch": 70, "duration": 11, "velocity": 63}, {"time": 2439, "pitch": 58, "duration": 7, "velocity": 41}, {"time": 2445, "pitch": 39, "duration": 7, "velocity": 73}, {"time": 2445, "pitch": 55, "duration": 7, "velocity": 72}, {"time": 2445, "pitch": 58, "duration": 1, "velocity": 74}, {"time": 2445, "pitch": 63, "duration": 7, "velocity": 79}, {"time": 2451, "pitch": 46, "duration": 5, "velocity": 79}, {"time": 2457, "pitch": 41, "duration": 6, "velocity": 86}, {"time": 2457, "pitch": 57, "duration": 7, "velocity": 68}, {"time": 2457, "pitch": 60, "duration": 6, "velocity": 65}, {"time": 2457, "pitch": 65, "duration": 7, "velocity": 74}, {"time": 2469, "pitch": 46, "duration": 12, "velocity": 65}, {"time": 2469, "pitch": 53, "duration": 12, "velocity": 65}, {"time": 2469, "pitch": 62, "duration": 10, "velocity": 72}, {"time": 2469, "pitch": 65, "duration": 10, "velocity": 81}, {"time": 2481, "pitch": 62, "duration": 2, "velocity": 68}, {"time": 2481, "pitch": 65, "duration": 2, "velocity": 77}, {"time": 2484, "pitch": 46, "duration": 3, "velocity": 72}, {"time": 2487, "pitch": 62, "duration": 2, "velocity": 68}, {"time": 2487, "pitch": 65, "duration": 2, "velocity": 77}, {"time": 2493, "pitch": 45, "duration": 15, "velocity": 69}, {"time": 2493, "pitch": 53, "duration": 17, "velocity": 48}, {"time": 2493, "pitch": 60, "duration": 11, "velocity": 72}, {"time": 2493, "pitch": 65, "duration": 11, "velocity": 90}, {"time": 2505, "pitch": 60, "duration": 6, "velocity": 68}, {"time": 2505, "pitch": 65, "duration": 6, "velocity": 86}, {"time": 2511, "pitch": 45, "duration": 3, "velocity": 89}, {"time": 2517, "pitch": 43, "duration": 15, "velocity": 71}, {"time": 2517, "pitch": 50, "duration": 12, "velocity": 60}, {"time": 2517, "pitch": 58, "duration": 10, "velocity": 67}, {"time": 2517, "pitch": 62, "duration": 10, "velocity": 77}, {"time": 2517, "pitch": 67, "duration": 10, "velocity": 67}, {"time": 2529, "pitch": 58, "duration": 3, "velocity": 81}, {"time": 2529, "pitch": 62, "duration": 3, "velocity": 93}, {"time": 2529, "pitch": 67, "duration": 3, "velocity": 79}, {"time": 2532, "pitch": 43, "duration": 3, "velocity": 100}, {"time": 2535, "pitch": 58, "duration": 3, "velocity": 81}, {"time": 2535, "pitch": 62, "duration": 2, "velocity": 93}, {"time": 2535, "pitch": 67, "duration": 3, "velocity": 79}, {"time": 2538, "pitch": 31, "duration": 3, "velocity": 86}, {"time": 2541, "pitch": 38, "duration": 18, "velocity": 61}, {"time": 2541, "pitch": 53, "duration": 11, "velocity": 65}, {"time": 2541, "pitch": 57, "duration": 11, "velocity": 60}, {"time": 2541, "pitch": 62, "duration": 11, "velocity": 69}, {"time": 2547, "pitch": 45, "duration": 15, "velocity": 47}, {"time": 2553, "pitch": 53, "duration": 7, "velocity": 74}, {"time": 2553, "pitch": 57, "duration": 6, "velocity": 81}, {"time": 2553, "pitch": 62, "duration": 6, "velocity": 79}, {"time": 2559, "pitch": 38, "duration": 3, "velocity": 100}, {"time": 2559, "pitch": 50, "duration": 5, "velocity": 58}, {"time": 2565, "pitch": 39, "duration": 15, "velocity": 81}, {"time": 2565, "pitch": 55, "duration": 10, "velocity": 65}, {"time": 2565, "pitch": 58, "duration": 10, "velocity": 71}, {"time": 2565, "pitch": 63, "duration": 10, "velocity": 71}, {"time": 2571, "pitch": 46, "duration": 14, "velocity": 70}, {"time": 2577, "pitch": 55, "duration": 3, "velocity": 79}, {"time": 2577, "pitch": 58, "duration": 3, "velocity": 87}, {"time": 2577, "pitch": 63, "duration": 2, "velocity": 90}, {"time": 2580, "pitch": 39, "duration": 3, "velocity": 100}, {"time": 2583, "pitch": 51, "duration": 2, "velocity": 58}, {"time": 2583, "pitch": 55, "duration": 3, "velocity": 79}, {"time": 2583, "pitch": 58, "duration": 3, "velocity": 87}, {"time": 2583, "pitch": 63, "duration": 2, "velocity": 90}, {"time": 2589, "pitch": 38, "duration": 9, "velocity": 81}, {"time": 2589, "pitch": 53, "duration": 11, "velocity": 67}, {"time": 2589, "pitch": 57, "duration": 11, "velocity": 74}, {"time": 2589, "pitch": 62, "duration": 11, "velocity": 75}, {"time": 2595, "pitch": 45, "duration": 6, "velocity": 66}, {"time": 2601, "pitch": 43, "duration": 6, "velocity": 81}, {"time": 2601, "pitch": 58, "duration": 6, "velocity": 65}, {"time": 2601, "pitch": 62, "duration": 6, "velocity": 70}, {"time": 2601, "pitch": 67, "duration": 6, "velocity": 71}, {"time": 2607, "pitch": 38, "duration": 3, "velocity": 87}, {"time": 2613, "pitch": 36, "duration": 18, "velocity": 82}, {"time": 2613, "pitch": 51, "duration": 10, "velocity": 82}, {"time": 2613, "pitch": 55, "duration": 10, "velocity": 82}, {"time": 2613, "pitch": 60, "duration": 10, "velocity": 82}, {"time": 2619, "pitch": 43, "duration": 13, "velocity": 53}, {"time": 2625, "pitch": 51, "duration": 6, "velocity": 72}, {"time": 2625, "pitch": 55, "duration": 6, "velocity": 73}, {"time": 2625, "pitch": 60, "duration": 6, "velocity": 72}, {"time": 2631, "pitch": 48, "duration": 5, "velocity": 66}, {"time": 2637, "pitch": 41, "duration": 15, "velocity": 87}, {"time": 2637, "pitch": 57, "duration": 7, "velocity": 66}, {"time": 2637, "pitch": 60, "duration": 7, "velocity": 69}, {"time": 2637, "pitch": 65, "duration": 7, "velocity": 74}, {"time": 2643, "pitch": 48, "duration": 13, "velocity": 75}, {"time": 2646, "pitch": 57, "duration": 1, "velocity": 32}, {"time": 2646, "pitch": 60, "duration": 1, "velocity": 43}, {"time": 2646, "pitch": 65, "duration": 1, "velocity": 49}, {"time": 2649, "pitch": 57, "duration": 3, "velocity": 79}, {"time": 2649, "pitch": 60, "duration": 3, "velocity": 87}, {"time": 2649, "pitch": 65, "duration": 3, "velocity": 93}, {"time": 2652, "pitch": 41, "duration": 3, "velocity": 100}, {"time": 2655, "pitch": 53, "duration": 5, "velocity": 61}, {"time": 2655, "pitch": 57, "duration": 3, "velocity": 79}, {"time": 2655, "pitch": 60, "duration": 3, "velocity": 87}, {"time": 2655, "pitch": 65, "duration": 3, "velocity": 93}, {"time": 2661, "pitch": 46, "duration": 15, "velocity": 85}, {"time": 2661, "pitch": 62, "duration": 7, "velocity": 77}, {"time": 2661, "pitch": 65, "duration": 7, "velocity": 87}, {"time": 2661, "pitch": 70, "duration": 7, "velocity": 75}, {"time": 2667, "pitch": 53, "duration": 9, "velocity": 71}, {"time": 2670, "pitch": 62, "duration": 1, "velocity": 54}, {"time": 2670, "pitch": 65, "duration": 1, "velocity": 59}, {"time": 2670, "pitch": 70, "duration": 1, "velocity": 59}, {"time": 2673, "pitch": 62, "duration": 3, "velocity": 87}, {"time": 2673, "pitch": 65, "duration": 3, "velocity": 95}, {"time": 2673, "pitch": 70, "duration": 3, "velocity": 79}, {"time": 2676, "pitch": 46, "duration": 3, "velocity": 100}, {"time": 2679, "pitch": 62, "duration": 3, "velocity": 87}, {"time": 2679, "pitch": 65, "duration": 3, "velocity": 95}, {"time": 2679, "pitch": 70, "duration": 3, "velocity": 79}, {"time": 2685, "pitch": 45, "duration": 15, "velocity": 79}, {"time": 2685, "pitch": 60, "duration": 10, "velocity": 65}, {"time": 2685, "pitch": 65, "duration": 10, "velocity": 71}, {"time": 2685, "pitch": 70, "duration": 10, "velocity": 53}, {"time": 2697, "pitch": 60, "duration": 3, "velocity": 74}, {"time": 2697, "pitch": 65, "duration": 3, "velocity": 87}, {"time": 2697, "pitch": 70, "duration": 3, "velocity": 77}, {"time": 2700, "pitch": 45, "duration": 3, "velocity": 100}, {"time": 2703, "pitch": 60, "duration": 3, "velocity": 74}, {"time": 2703, "pitch": 65, "duration": 3, "velocity": 87}, {"time": 2703, "pitch": 70, "duration": 3, "velocity": 77}, {"time": 2706, "pitch": 45, "duration": 3, "velocity": 100}, {"time": 2709, "pitch": 43, "duration": 18, "velocity": 76}, {"time": 2709, "pitch": 58, "duration": 10, "velocity": 65}, {"time": 2709, "pitch": 62, "duration": 10, "velocity": 73}, {"time": 2709, "pitch": 67, "duration": 10, "velocity": 75}, {"time": 2715, "pitch": 50, "duration": 10, "velocity": 63}, {"time": 2721, "pitch": 58, "duration": 6, "velocity": 77}, {"time": 2721, "pitch": 62, "duration": 6, "velocity": 93}, {"time": 2721, "pitch": 67, "duration": 6, "velocity": 87}, {"time": 2733, "pitch": 41, "duration": 15, "velocity": 70}, {"time": 2733, "pitch": 57, "duration": 10, "velocity": 58}, {"time": 2733, "pitch": 60, "duration": 11, "velocity": 60}, {"time": 2733, "pitch": 65, "duration": 11, "velocity": 72}, {"time": 2739, "pitch": 48, "duration": 16, "velocity": 56}, {"time": 2745, "pitch": 57, "duration": 3, "velocity": 73}, {"time": 2745, "pitch": 60, "duration": 3, "velocity": 76}, {"time": 2745, "pitch": 65, "duration": 3, "velocity": 81}, {"time": 2748, "pitch": 41, "duration": 3, "velocity": 100}, {"time": 2751, "pitch": 53, "duration": 4, "velocity": 51}, {"time": 2751, "pitch": 57, "duration": 3, "velocity": 73}, {"time": 2751, "pitch": 60, "duration": 3, "velocity": 76}, {"time": 2751, "pitch": 65, "duration": 3, "velocity": 81}, {"time": 2757, "pitch": 39, "duration": 22, "velocity": 76}, {"time": 2757, "pitch": 55, "duration": 10, "velocity": 66}, {"time": 2757, "pitch": 58, "duration": 10, "velocity": 74}, {"time": 2757, "pitch": 63, "duration": 10, "velocity": 79}, {"time": 2763, "pitch": 46, "duration": 14, "velocity": 76}, {"time": 2769, "pitch": 55, "duration": 7, "velocity": 74}, {"time": 2769, "pitch": 55, "duration": 7, "velocity": 76}, {"time": 2769, "pitch": 58, "duration": 7, "velocity": 81}, {"time": 2769, "pitch": 58, "duration": 7, "velocity": 87}, {"time": 2769, "pitch": 63, "duration": 7, "velocity": 87}, {"time": 2769, "pitch": 63, "duration": 7, "velocity": 93}, {"time": 2775, "pitch": 51, "duration": 2, "velocity": 58}, {"time": 2775, "pitch": 51, "duration": 2, "velocity": 59}, {"time": 2781, "pitch": 38, "duration": 21, "velocity": 65}, {"time": 2781, "pitch": 53, "duration": 11, "velocity": 59}, {"time": 2781, "pitch": 57, "duration": 11, "velocity": 75}, {"time": 2781, "pitch": 62, "duration": 11, "velocity": 74}, {"time": 2787, "pitch": 45, "duration": 13, "velocity": 83}, {"time": 2793, "pitch": 53, "duration": 6, "velocity": 74}, {"time": 2793, "pitch": 57, "duration": 6, "velocity": 81}, {"time": 2793, "pitch": 62, "duration": 6, "velocity": 76}, {"time": 2799, "pitch": 50, "duration": 2, "velocity": 58}, {"time": 2805, "pitch": 36, "duration": 18, "velocity": 65}, {"time": 2805, "pitch": 51, "duration": 10, "velocity": 60}, {"time": 2805, "pitch": 55, "duration": 10, "velocity": 74}, {"time": 2805, "pitch": 60, "duration": 10, "velocity": 74}, {"time": 2811, "pitch": 43, "duration": 13, "velocity": 64}, {"time": 2817, "pitch": 51, "duration": 6, "velocity": 74}, {"time": 2817, "pitch": 55, "duration": 6, "velocity": 76}, {"time": 2817, "pitch": 60, "duration": 6, "velocity": 83}, {"time": 2823, "pitch": 48, "duration": 5, "velocity": 61}, {"time": 2925, "pitch": 46, "duration": 43, "velocity": 86}, {"time": 2928, "pitch": 53, "duration": 39, "velocity": 68}, {"time": 2931, "pitch": 58, "duration": 7, "velocity": 44}, {"time": 2934, "pitch": 62, "duration": 4, "velocity": 61}, {"time": 2937, "pitch": 65, "duration": 9, "velocity": 75}, {"time": 2943, "pitch": 58, "duration": 7, "velocity": 59}, {"time": 2946, "pitch": 62, "duration": 4, "velocity": 59}, {"time": 2949, "pitch": 70, "duration": 10, "velocity": 72}, {"time": 2958, "pitch": 58, "duration": 6, "velocity": 63}, {"time": 2961, "pitch": 62, "duration": 3, "velocity": 69}, {"time": 2964, "pitch": 65, "duration": 3, "velocity": 65}, {"time": 2967, "pitch": 62, "duration": 6, "velocity": 71}, {"time": 2973, "pitch": 43, "duration": 43, "velocity": 68}, {"time": 2976, "pitch": 50, "duration": 39, "velocity": 63}, {"time": 2979, "pitch": 55, "duration": 6, "velocity": 53}, {"time": 2982, "pitch": 57, "duration": 3, "velocity": 71}, {"time": 2985, "pitch": 58, "duration": 6, "velocity": 75}, {"time": 2988, "pitch": 55, "duration": 12, "velocity": 61}, {"time": 2991, "pitch": 60, "duration": 5, "velocity": 67}, {"time": 2997, "pitch": 63, "duration": 7, "velocity": 61}, {"time": 3003, "pitch": 55, "duration": 6, "velocity": 60}, {"time": 3009, "pitch": 60, "duration": 6, "velocity": 74}, {"time": 3015, "pitch": 58, "duration": 6, "velocity": 67}, {"time": 3020, "pitch": 63, "duration": 7, "velocity": 62}, {"time": 3021, "pitch": 66, "duration": 15, "velocity": 67}, {"time": 3021, "pitch": 51, "duration": 44, "velocity": 68}, {"time": 3022, "pitch": 70, "duration": 35, "velocity": 66}, {"time": 3057, "pitch": 66, "duration": 9, "velocity": 65}, {"time": 3093, "pitch": 46, "duration": 70, "velocity": 60}, {"time": 3093, "pitch": 62, "duration": 6, "velocity": 49}, {"time": 3093, "pitch": 65, "duration": 9, "velocity": 63}, {"time": 3096, "pitch": 53, "duration": 68, "velocity": 64}, {"time": 3096, "pitch": 70, "duration": 9, "velocity": 63}, {"time": 3099, "pitch": 58, "duration": 10, "velocity": 51}, {"time": 3102, "pitch": 62, "duration": 8, "velocity": 58}, {"time": 3105, "pitch": 65, "duration": 5, "velocity": 61}, {"time": 3108, "pitch": 70, "duration": 6, "velocity": 59}, {"time": 3126, "pitch": 77, "duration": 3, "velocity": 54}, {"time": 3129, "pitch": 82, "duration": 5, "velocity": 11}], "annotations": [{"time": 7, "annotation": {"number": 64, "value": 81}, "group": "control_change"}, {"time": 11, "annotation": {"number": 64, "value": 81}, "group": "control_change"}, {"time": 15, "annotation": {"number": 64, "value": 82}, "group": "control_change"}, {"time": 16, "annotation": {"number": 64, "value": 83}, "group": "control_change"}, {"time": 19, "annotation": {"number": 64, "value": 84}, "group": "control_change"}, {"time": 20, "annotation": {"number": 64, "value": 85}, "group": "control_change"}, {"time": 22, "annotation": {"number": 64, "value": 86}, "group": "control_change"}, {"time": 23, "annotation": {"number": 64, "value": 87}, "group": "control_change"}, {"time": 23, "annotation": {"number": 64, "value": 88}, "group": "control_change"}, {"time": 24, "annotation": {"number": 64, "value": 89}, "group": "control_change"}, {"time": 27, "annotation": {"number": 64, "value": 90}, "group": "control_change"}, {"time": 29, "annotation": {"number": 64, "value": 91}, "group": "control_change"}, {"time": 33, "annotation": {"number": 64, "value": 92}, "group": "control_change"}, {"time": 35, "annotation": {"number": 64, "value": 91}, "group": "control_change"}, {"time": 37, "annotation": {"number": 64, "value": 90}, "group": "control_change"}, {"time": 38, "annotation": {"number": 64, "value": 89}, "group": "control_change"}, {"time": 40, "annotation": {"number": 64, "value": 88}, "group": "control_change"}, {"time": 40, "annotation": {"number": 64, "value": 87}, "group": "control_change"}, {"time": 40, "annotation": {"number": 64, "value": 86}, "group": "control_change"}, {"time": 41, "annotation": {"number": 64, "value": 85}, "group": "control_change"}, {"time": 42, "annotation": {"number": 64, "value": 84}, "group": "control_change"}, {"time": 43, "annotation": {"number": 64, "value": 83}, "group": "control_change"}, {"time": 43, "annotation": {"number": 64, "value": 82}, "group": "control_change"}, {"time": 44, "annotation": {"number": 64, "value": 81}, "group": "control_change"}, {"time": 44, "annotation": {"number": 64, "value": 80}, "group": "control_change"}, {"time": 45, "annotation": {"number": 64, "value": 79}, "group": "control_change"}, {"time": 46, "annotation": {"number": 64, "value": 78}, "group": "control_change"}, {"time": 46, "annotation": {"number": 64, "value": 77}, "group": "control_change"}, {"time": 47, "annotation": {"number": 64, "value": 76}, "group": "control_change"}, {"time": 51, "annotation": {"number": 64, "value": 77}, "group": "control_change"}, {"time": 54, "annotation": {"number": 64, "value": 78}, "group": "control_change"}, {"time": 56, "annotation": {"number": 64, "value": 79}, "group": "control_change"}, {"time": 57, "annotation": {"number": 64, "value": 80}, "group": "control_change"}, {"time": 58, "annotation": {"number": 64, "value": 81}, "group": "control_change"}]}]}