{"metadata": {"schema_version": "0.2", "title": "None", "source_filename": "045.mid", "source_format": "midi"}, "resolution": 12, "tempos": [{"time": 0, "qpm": 60.0}], "time_signatures": [{"time": 0, "numerator": 1, "denominator": 4}], "tracks": [{"program": 0, "is_drum": false, "name": "MELODY", "notes": [{"time": 263, "pitch": 76, "duration": 1, "velocity": 75}, {"time": 266, "pitch": 76, "duration": 1, "velocity": 75}, {"time": 269, "pitch": 76, "duration": 1, "velocity": 75}, {"time": 272, "pitch": 76, "duration": 1, "velocity": 75}, {"time": 275, "pitch": 76, "duration": 1, "velocity": 75}, {"time": 278, "pitch": 76, "duration": 2, "velocity": 75}, {"time": 281, "pitch": 71, "duration": 2, "velocity": 75}, {"time": 284, "pitch": 80, "duration": 4, "velocity": 75}, {"time": 287, "pitch": 78, "duration": 1, "velocity": 75}, {"time": 290, "pitch": 78, "duration": 1, "velocity": 75}, {"time": 293, "pitch": 76, "duration": 3, "velocity": 75}, {"time": 296, "pitch": 80, "duration": 7, "velocity": 75}, {"time": 311, "pitch": 76, "duration": 1, "velocity": 75}, {"time": 314, "pitch": 76, "duration": 1, "velocity": 75}, {"time": 317, "pitch": 76, "duration": 1, "velocity": 75}, {"time": 320, "pitch": 76, "duration": 1, "velocity": 75}, {"time": 323, "pitch": 71, "duration": 1, "velocity": 75}, {"time": 326, "pitch": 71, "duration": 4, "velocity": 75}, {"time": 332, "pitch": 80, "duration": 4, "velocity": 75}, {"time": 335, "pitch": 78, "duration": 3, "velocity": 75}, {"time": 338, "pitch": 73, "duration": 3, "velocity": 75}, {"time": 341, "pitch": 76, "duration": 10, "velocity": 75}, {"time": 350, "pitch": 78, "duration": 3, "velocity": 75}, {"time": 353, "pitch": 76, "duration": 1, "velocity": 75}, {"time": 356, "pitch": 78, "duration": 2, "velocity": 75}, {"time": 359, "pitch": 76, "duration": 5, "velocity": 75}, {"time": 365, "pitch": 76, "duration": 2, "velocity": 75}, {"time": 368, "pitch": 80, "duration": 3, "velocity": 75}, {"time": 371, "pitch": 78, "duration": 3, "velocity": 75}, {"time": 374, "pitch": 76, "duration": 2, "velocity": 75}, {"time": 377, "pitch": 73, "duration": 4, "velocity": 75}, {"time": 392, "pitch": 73, "duration": 3, "velocity": 75}, {"time": 395, "pitch": 71, "duration": 3, "velocity": 75}, {"time": 398, "pitch": 73, "duration": 3, "velocity": 75}, {"time": 401, "pitch": 71, "duration": 2, "velocity": 75}, {"time": 404, "pitch": 80, "duration": 3, "velocity": 76}, {"time": 407, "pitch": 78, "duration": 1, "velocity": 77}, {"time": 410, "pitch": 78, "duration": 2, "velocity": 77}, {"time": 413, "pitch": 76, "duration": 1, "velocity": 77}, {"time": 416, "pitch": 80, "duration": 3, "velocity": 77}, {"time": 419, "pitch": 78, "duration": 3, "velocity": 77}, {"time": 422, "pitch": 76, "duration": 2, "velocity": 77}, {"time": 425, "pitch": 78, "duration": 11, "velocity": 77}, {"time": 455, "pitch": 76, "duration": 1, "velocity": 77}, {"time": 458, "pitch": 76, "duration": 1, "velocity": 77}, {"time": 461, "pitch": 76, "duration": 1, "velocity": 77}, {"time": 464, "pitch": 76, "duration": 1, "velocity": 77}, {"time": 467, "pitch": 76, "duration": 1, "velocity": 77}, {"time": 470, "pitch": 76, "duration": 2, "velocity": 78}, {"time": 473, "pitch": 71, "duration": 2, "velocity": 78}, {"time": 476, "pitch": 80, "duration": 4, "velocity": 78}, {"time": 479, "pitch": 78, "duration": 1, "velocity": 78}, {"time": 482, "pitch": 78, "duration": 1, "velocity": 78}, {"time": 485, "pitch": 76, "duration": 3, "velocity": 79}, {"time": 488, "pitch": 80, "duration": 7, "velocity": 79}, {"time": 503, "pitch": 76, "duration": 1, "velocity": 79}, {"time": 506, "pitch": 76, "duration": 1, "velocity": 79}, {"time": 509, "pitch": 76, "duration": 1, "velocity": 79}, {"time": 512, "pitch": 76, "duration": 1, "velocity": 79}, {"time": 515, "pitch": 71, "duration": 1, "velocity": 79}, {"time": 518, "pitch": 71, "duration": 4, "velocity": 79}, {"time": 524, "pitch": 80, "duration": 4, "velocity": 79}, {"time": 527, "pitch": 78, "duration": 3, "velocity": 79}, {"time": 530, "pitch": 73, "duration": 3, "velocity": 79}, {"time": 533, "pitch": 76, "duration": 10, "velocity": 79}, {"time": 542, "pitch": 78, "duration": 3, "velocity": 79}, {"time": 545, "pitch": 76, "duration": 1, "velocity": 79}, {"time": 548, "pitch": 78, "duration": 2, "velocity": 79}, {"time": 551, "pitch": 76, "duration": 5, "velocity": 79}, {"time": 557, "pitch": 76, "duration": 2, "velocity": 78}, {"time": 560, "pitch": 80, "duration": 3, "velocity": 78}, {"time": 563, "pitch": 78, "duration": 3, "velocity": 78}, {"time": 566, "pitch": 76, "duration": 2, "velocity": 78}, {"time": 569, "pitch": 73, "duration": 4, "velocity": 78}, {"time": 584, "pitch": 73, "duration": 3, "velocity": 76}, {"time": 587, "pitch": 71, "duration": 3, "velocity": 76}, {"time": 590, "pitch": 73, "duration": 3, "velocity": 76}, {"time": 593, "pitch": 71, "duration": 2, "velocity": 76}, {"time": 596, "pitch": 80, "duration": 3, "velocity": 76}, {"time": 599, "pitch": 78, "duration": 1, "velocity": 75}, {"time": 602, "pitch": 78, "duration": 2, "velocity": 75}, {"time": 605, "pitch": 76, "duration": 1, "velocity": 75}, {"time": 608, "pitch": 76, "duration": 3, "velocity": 75}, {"time": 611, "pitch": 73, "duration": 3, "velocity": 75}, {"time": 614, "pitch": 80, "duration": 2, "velocity": 75}, {"time": 617, "pitch": 78, "duration": 15, "velocity": 75}, {"time": 644, "pitch": 80, "duration": 6, "velocity": 74}, {"time": 650, "pitch": 78, "duration": 1, "velocity": 74}, {"time": 653, "pitch": 78, "duration": 1, "velocity": 74}, {"time": 656, "pitch": 76, "duration": 3, "velocity": 74}, {"time": 662, "pitch": 73, "duration": 2, "velocity": 74}, {"time": 665, "pitch": 76, "duration": 28, "velocity": 74}, {"time": 710, "pitch": 80, "duration": 3, "velocity": 74}, {"time": 713, "pitch": 83, "duration": 2, "velocity": 74}, {"time": 716, "pitch": 85, "duration": 4, "velocity": 74}, {"time": 722, "pitch": 83, "duration": 1, "velocity": 74}, {"time": 725, "pitch": 83, "duration": 1, "velocity": 74}, {"time": 728, "pitch": 83, "duration": 3, "velocity": 74}, {"time": 731, "pitch": 80, "duration": 2, "velocity": 74}, {"time": 734, "pitch": 83, "duration": 3, "velocity": 74}, {"time": 737, "pitch": 80, "duration": 2, "velocity": 74}, {"time": 740, "pitch": 78, "duration": 3, "velocity": 74}, {"time": 743, "pitch": 83, "duration": 3, "velocity": 74}, {"time": 749, "pitch": 80, "duration": 6, "velocity": 74}, {"time": 758, "pitch": 80, "duration": 3, "velocity": 74}, {"time": 761, "pitch": 83, "duration": 2, "velocity": 74}, {"time": 764, "pitch": 85, "duration": 4, "velocity": 74}, {"time": 770, "pitch": 83, "duration": 1, "velocity": 74}, {"time": 773, "pitch": 83, "duration": 2, "velocity": 74}, {"time": 776, "pitch": 80, "duration": 4, "velocity": 74}, {"time": 782, "pitch": 83, "duration": 2, "velocity": 74}, {"time": 785, "pitch": 80, "duration": 16, "velocity": 74}, {"time": 806, "pitch": 80, "duration": 3, "velocity": 74}, {"time": 809, "pitch": 78, "duration": 1, "velocity": 74}, {"time": 812, "pitch": 80, "duration": 4, "velocity": 74}, {"time": 818, "pitch": 78, "duration": 3, "velocity": 74}, {"time": 824, "pitch": 78, "duration": 3, "velocity": 74}, {"time": 827, "pitch": 76, "duration": 4, "velocity": 74}, {"time": 833, "pitch": 73, "duration": 4, "velocity": 74}, {"time": 836, "pitch": 76, "duration": 6, "velocity": 74}, {"time": 844, "pitch": 73, "duration": 8, "velocity": 74}, {"time": 854, "pitch": 73, "duration": 4, "velocity": 74}, {"time": 857, "pitch": 71, "duration": 3, "velocity": 74}, {"time": 860, "pitch": 80, "duration": 6, "velocity": 74}, {"time": 869, "pitch": 78, "duration": 3, "velocity": 74}, {"time": 872, "pitch": 76, "duration": 3, "velocity": 74}, {"time": 875, "pitch": 73, "duration": 2, "velocity": 74}, {"time": 878, "pitch": 80, "duration": 2, "velocity": 74}, {"time": 881, "pitch": 78, "duration": 4, "velocity": 74}, {"time": 902, "pitch": 80, "duration": 3, "velocity": 74}, {"time": 905, "pitch": 83, "duration": 2, "velocity": 74}, {"time": 908, "pitch": 85, "duration": 4, "velocity": 74}, {"time": 914, "pitch": 83, "duration": 1, "velocity": 74}, {"time": 917, "pitch": 83, "duration": 1, "velocity": 74}, {"time": 920, "pitch": 83, "duration": 3, "velocity": 74}, {"time": 923, "pitch": 80, "duration": 2, "velocity": 74}, {"time": 926, "pitch": 83, "duration": 3, "velocity": 74}, {"time": 929, "pitch": 80, "duration": 2, "velocity": 74}, {"time": 932, "pitch": 78, "duration": 3, "velocity": 74}, {"time": 935, "pitch": 83, "duration": 3, "velocity": 74}, {"time": 941, "pitch": 80, "duration": 6, "velocity": 74}, {"time": 950, "pitch": 80, "duration": 3, "velocity": 74}, {"time": 953, "pitch": 83, "duration": 2, "velocity": 74}, {"time": 956, "pitch": 85, "duration": 4, "velocity": 74}, {"time": 962, "pitch": 83, "duration": 1, "velocity": 74}, {"time": 965, "pitch": 83, "duration": 2, "velocity": 74}, {"time": 968, "pitch": 80, "duration": 4, "velocity": 74}, {"time": 974, "pitch": 83, "duration": 2, "velocity": 74}, {"time": 977, "pitch": 80, "duration": 16, "velocity": 74}, {"time": 998, "pitch": 80, "duration": 3, "velocity": 74}, {"time": 1001, "pitch": 78, "duration": 1, "velocity": 74}, {"time": 1004, "pitch": 80, "duration": 4, "velocity": 74}, {"time": 1010, "pitch": 78, "duration": 3, "velocity": 74}, {"time": 1016, "pitch": 78, "duration": 3, "velocity": 74}, {"time": 1020, "pitch": 76, "duration": 4, "velocity": 74}, {"time": 1025, "pitch": 73, "duration": 4, "velocity": 74}, {"time": 1028, "pitch": 76, "duration": 6, "velocity": 74}, {"time": 1036, "pitch": 73, "duration": 8, "velocity": 74}, {"time": 1046, "pitch": 73, "duration": 4, "velocity": 74}, {"time": 1049, "pitch": 71, "duration": 3, "velocity": 74}, {"time": 1052, "pitch": 80, "duration": 6, "velocity": 74}, {"time": 1061, "pitch": 78, "duration": 3, "velocity": 74}, {"time": 1064, "pitch": 76, "duration": 3, "velocity": 74}, {"time": 1067, "pitch": 73, "duration": 2, "velocity": 74}, {"time": 1076, "pitch": 80, "duration": 9, "velocity": 75}, {"time": 1085, "pitch": 78, "duration": 2, "velocity": 76}, {"time": 1088, "pitch": 76, "duration": 6, "velocity": 76}, {"time": 1094, "pitch": 73, "duration": 4, "velocity": 76}, {"time": 1100, "pitch": 76, "duration": 25, "velocity": 76}, {"time": 1151, "pitch": 76, "duration": 1, "velocity": 78}, {"time": 1154, "pitch": 76, "duration": 1, "velocity": 78}, {"time": 1157, "pitch": 76, "duration": 1, "velocity": 78}, {"time": 1160, "pitch": 76, "duration": 1, "velocity": 78}, {"time": 1163, "pitch": 76, "duration": 1, "velocity": 78}, {"time": 1166, "pitch": 76, "duration": 2, "velocity": 79}, {"time": 1169, "pitch": 71, "duration": 2, "velocity": 79}, {"time": 1172, "pitch": 80, "duration": 4, "velocity": 79}, {"time": 1175, "pitch": 78, "duration": 1, "velocity": 79}, {"time": 1178, "pitch": 78, "duration": 1, "velocity": 79}, {"time": 1181, "pitch": 76, "duration": 3, "velocity": 79}, {"time": 1184, "pitch": 80, "duration": 7, "velocity": 79}, {"time": 1199, "pitch": 76, "duration": 1, "velocity": 81}, {"time": 1202, "pitch": 76, "duration": 1, "velocity": 82}, {"time": 1205, "pitch": 76, "duration": 1, "velocity": 82}, {"time": 1208, "pitch": 76, "duration": 1, "velocity": 82}, {"time": 1211, "pitch": 71, "duration": 1, "velocity": 83}, {"time": 1214, "pitch": 71, "duration": 4, "velocity": 83}, {"time": 1220, "pitch": 80, "duration": 4, "velocity": 83}, {"time": 1223, "pitch": 78, "duration": 3, "velocity": 83}, {"time": 1226, "pitch": 73, "duration": 3, "velocity": 83}, {"time": 1229, "pitch": 76, "duration": 10, "velocity": 83}, {"time": 1238, "pitch": 78, "duration": 3, "velocity": 83}, {"time": 1241, "pitch": 76, "duration": 1, "velocity": 83}, {"time": 1244, "pitch": 78, "duration": 2, "velocity": 83}, {"time": 1247, "pitch": 76, "duration": 5, "velocity": 83}, {"time": 1253, "pitch": 76, "duration": 2, "velocity": 84}, {"time": 1256, "pitch": 80, "duration": 3, "velocity": 84}, {"time": 1259, "pitch": 78, "duration": 3, "velocity": 84}, {"time": 1262, "pitch": 76, "duration": 2, "velocity": 84}, {"time": 1265, "pitch": 73, "duration": 4, "velocity": 84}, {"time": 1280, "pitch": 73, "duration": 3, "velocity": 85}, {"time": 1283, "pitch": 71, "duration": 3, "velocity": 85}, {"time": 1286, "pitch": 73, "duration": 3, "velocity": 85}, {"time": 1289, "pitch": 71, "duration": 2, "velocity": 85}, {"time": 1292, "pitch": 80, "duration": 3, "velocity": 85}, {"time": 1295, "pitch": 78, "duration": 1, "velocity": 85}, {"time": 1298, "pitch": 78, "duration": 2, "velocity": 85}, {"time": 1301, "pitch": 76, "duration": 1, "velocity": 85}, {"time": 1304, "pitch": 76, "duration": 3, "velocity": 85}, {"time": 1307, "pitch": 73, "duration": 3, "velocity": 85}, {"time": 1310, "pitch": 80, "duration": 2, "velocity": 85}, {"time": 1313, "pitch": 78, "duration": 15, "velocity": 85}, {"time": 1340, "pitch": 80, "duration": 6, "velocity": 85}, {"time": 1346, "pitch": 78, "duration": 1, "velocity": 85}, {"time": 1349, "pitch": 78, "duration": 1, "velocity": 85}, {"time": 1352, "pitch": 76, "duration": 3, "velocity": 85}, {"time": 1358, "pitch": 73, "duration": 2, "velocity": 85}, {"time": 1361, "pitch": 76, "duration": 28, "velocity": 85}, {"time": 1406, "pitch": 80, "duration": 3, "velocity": 84}, {"time": 1409, "pitch": 83, "duration": 2, "velocity": 84}, {"time": 1412, "pitch": 85, "duration": 4, "velocity": 84}, {"time": 1418, "pitch": 83, "duration": 1, "velocity": 84}, {"time": 1421, "pitch": 83, "duration": 1, "velocity": 84}, {"time": 1424, "pitch": 83, "duration": 3, "velocity": 84}, {"time": 1427, "pitch": 80, "duration": 2, "velocity": 84}, {"time": 1430, "pitch": 83, "duration": 3, "velocity": 84}, {"time": 1433, "pitch": 80, "duration": 2, "velocity": 84}, {"time": 1436, "pitch": 78, "duration": 3, "velocity": 84}, {"time": 1439, "pitch": 83, "duration": 3, "velocity": 84}, {"time": 1445, "pitch": 80, "duration": 6, "velocity": 83}, {"time": 1454, "pitch": 80, "duration": 3, "velocity": 82}, {"time": 1457, "pitch": 83, "duration": 2, "velocity": 81}, {"time": 1460, "pitch": 85, "duration": 4, "velocity": 81}, {"time": 1466, "pitch": 83, "duration": 1, "velocity": 81}, {"time": 1469, "pitch": 83, "duration": 2, "velocity": 80}, {"time": 1472, "pitch": 80, "duration": 4, "velocity": 80}, {"time": 1478, "pitch": 83, "duration": 2, "velocity": 80}, {"time": 1481, "pitch": 80, "duration": 16, "velocity": 80}, {"time": 1502, "pitch": 80, "duration": 3, "velocity": 79}, {"time": 1505, "pitch": 78, "duration": 1, "velocity": 79}, {"time": 1508, "pitch": 80, "duration": 4, "velocity": 79}, {"time": 1514, "pitch": 78, "duration": 3, "velocity": 79}, {"time": 1520, "pitch": 78, "duration": 3, "velocity": 79}, {"time": 1523, "pitch": 76, "duration": 4, "velocity": 79}, {"time": 1529, "pitch": 73, "duration": 4, "velocity": 79}, {"time": 1532, "pitch": 76, "duration": 6, "velocity": 79}, {"time": 1540, "pitch": 73, "duration": 8, "velocity": 79}, {"time": 1550, "pitch": 73, "duration": 4, "velocity": 79}, {"time": 1553, "pitch": 71, "duration": 3, "velocity": 79}, {"time": 1556, "pitch": 80, "duration": 6, "velocity": 79}, {"time": 1565, "pitch": 78, "duration": 3, "velocity": 80}, {"time": 1568, "pitch": 76, "duration": 3, "velocity": 80}, {"time": 1571, "pitch": 73, "duration": 2, "velocity": 80}, {"time": 1574, "pitch": 80, "duration": 2, "velocity": 81}, {"time": 1577, "pitch": 78, "duration": 4, "velocity": 82}, {"time": 1598, "pitch": 80, "duration": 3, "velocity": 83}, {"time": 1601, "pitch": 83, "duration": 2, "velocity": 83}, {"time": 1604, "pitch": 85, "duration": 4, "velocity": 83}, {"time": 1610, "pitch": 83, "duration": 1, "velocity": 83}, {"time": 1613, "pitch": 83, "duration": 1, "velocity": 83}, {"time": 1616, "pitch": 83, "duration": 3, "velocity": 83}, {"time": 1619, "pitch": 80, "duration": 2, "velocity": 83}, {"time": 1622, "pitch": 83, "duration": 3, "velocity": 83}, {"time": 1625, "pitch": 80, "duration": 2, "velocity": 84}, {"time": 1628, "pitch": 78, "duration": 3, "velocity": 84}, {"time": 1631, "pitch": 83, "duration": 3, "velocity": 84}, {"time": 1637, "pitch": 80, "duration": 6, "velocity": 84}, {"time": 1646, "pitch": 80, "duration": 3, "velocity": 84}, {"time": 1649, "pitch": 83, "duration": 2, "velocity": 84}, {"time": 1652, "pitch": 85, "duration": 4, "velocity": 84}, {"time": 1658, "pitch": 83, "duration": 1, "velocity": 84}, {"time": 1661, "pitch": 83, "duration": 2, "velocity": 84}, {"time": 1664, "pitch": 80, "duration": 4, "velocity": 84}, {"time": 1670, "pitch": 83, "duration": 2, "velocity": 84}, {"time": 1673, "pitch": 80, "duration": 16, "velocity": 84}, {"time": 1694, "pitch": 80, "duration": 3, "velocity": 84}, {"time": 1697, "pitch": 78, "duration": 1, "velocity": 84}, {"time": 1700, "pitch": 80, "duration": 4, "velocity": 84}, {"time": 1706, "pitch": 78, "duration": 3, "velocity": 83}, {"time": 1712, "pitch": 78, "duration": 3, "velocity": 82}, {"time": 1716, "pitch": 76, "duration": 4, "velocity": 82}, {"time": 1721, "pitch": 73, "duration": 4, "velocity": 81}, {"time": 1724, "pitch": 76, "duration": 6, "velocity": 81}, {"time": 1732, "pitch": 73, "duration": 8, "velocity": 80}, {"time": 1742, "pitch": 73, "duration": 4, "velocity": 79}, {"time": 1745, "pitch": 71, "duration": 3, "velocity": 79}, {"time": 1748, "pitch": 80, "duration": 6, "velocity": 79}, {"time": 1757, "pitch": 78, "duration": 3, "velocity": 78}, {"time": 1760, "pitch": 76, "duration": 3, "velocity": 78}, {"time": 1763, "pitch": 73, "duration": 2, "velocity": 78}, {"time": 1772, "pitch": 80, "duration": 9, "velocity": 77}, {"time": 1781, "pitch": 78, "duration": 2, "velocity": 76}, {"time": 1784, "pitch": 76, "duration": 6, "velocity": 76}, {"time": 1790, "pitch": 73, "duration": 4, "velocity": 76}, {"time": 1796, "pitch": 76, "duration": 25, "velocity": 75}, {"time": 1844, "pitch": 81, "duration": 6, "velocity": 76}, {"time": 1850, "pitch": 80, "duration": 6, "velocity": 76}, {"time": 1856, "pitch": 78, "duration": 7, "velocity": 76}, {"time": 1862, "pitch": 76, "duration": 2, "velocity": 79}, {"time": 1865, "pitch": 81, "duration": 5, "velocity": 80}, {"time": 1874, "pitch": 80, "duration": 1, "velocity": 80}, {"time": 1877, "pitch": 80, "duration": 1, "velocity": 80}, {"time": 1880, "pitch": 78, "duration": 2, "velocity": 80}, {"time": 1883, "pitch": 80, "duration": 7, "velocity": 80}, {"time": 1892, "pitch": 76, "duration": 21, "velocity": 80}, {"time": 1931, "pitch": 78, "duration": 2, "velocity": 80}, {"time": 1934, "pitch": 80, "duration": 3, "velocity": 80}, {"time": 1937, "pitch": 76, "duration": 3, "velocity": 80}, {"time": 1940, "pitch": 81, "duration": 5, "velocity": 80}, {"time": 1946, "pitch": 80, "duration": 6, "velocity": 81}, {"time": 1952, "pitch": 78, "duration": 5, "velocity": 82}, {"time": 1958, "pitch": 76, "duration": 1, "velocity": 82}, {"time": 1961, "pitch": 81, "duration": 6, "velocity": 83}, {"time": 1970, "pitch": 80, "duration": 4, "velocity": 83}, {"time": 1976, "pitch": 78, "duration": 5, "velocity": 83}, {"time": 1979, "pitch": 80, "duration": 5, "velocity": 83}, {"time": 1988, "pitch": 81, "duration": 24, "velocity": 83}, {"time": 2012, "pitch": 83, "duration": 36, "velocity": 83}, {"time": 2054, "pitch": 80, "duration": 3, "velocity": 85}, {"time": 2057, "pitch": 83, "duration": 2, "velocity": 85}, {"time": 2060, "pitch": 85, "duration": 4, "velocity": 86}, {"time": 2066, "pitch": 83, "duration": 1, "velocity": 86}, {"time": 2069, "pitch": 83, "duration": 1, "velocity": 87}, {"time": 2072, "pitch": 83, "duration": 3, "velocity": 88}, {"time": 2075, "pitch": 80, "duration": 2, "velocity": 87}, {"time": 2078, "pitch": 83, "duration": 3, "velocity": 88}, {"time": 2081, "pitch": 80, "duration": 2, "velocity": 88}, {"time": 2084, "pitch": 78, "duration": 3, "velocity": 89}, {"time": 2087, "pitch": 83, "duration": 3, "velocity": 89}, {"time": 2093, "pitch": 80, "duration": 6, "velocity": 89}, {"time": 2102, "pitch": 80, "duration": 3, "velocity": 90}, {"time": 2105, "pitch": 83, "duration": 2, "velocity": 90}, {"time": 2108, "pitch": 85, "duration": 4, "velocity": 90}, {"time": 2114, "pitch": 83, "duration": 1, "velocity": 90}, {"time": 2117, "pitch": 83, "duration": 2, "velocity": 91}, {"time": 2120, "pitch": 80, "duration": 4, "velocity": 91}, {"time": 2126, "pitch": 83, "duration": 2, "velocity": 91}, {"time": 2129, "pitch": 80, "duration": 16, "velocity": 92}, {"time": 2150, "pitch": 80, "duration": 3, "velocity": 92}, {"time": 2153, "pitch": 78, "duration": 1, "velocity": 92}, {"time": 2156, "pitch": 80, "duration": 4, "velocity": 92}, {"time": 2162, "pitch": 78, "duration": 3, "velocity": 92}, {"time": 2168, "pitch": 78, "duration": 3, "velocity": 92}, {"time": 2171, "pitch": 76, "duration": 4, "velocity": 92}, {"time": 2177, "pitch": 73, "duration": 4, "velocity": 92}, {"time": 2180, "pitch": 76, "duration": 6, "velocity": 92}, {"time": 2188, "pitch": 73, "duration": 8, "velocity": 91}, {"time": 2198, "pitch": 73, "duration": 4, "velocity": 91}, {"time": 2201, "pitch": 71, "duration": 3, "velocity": 91}, {"time": 2204, "pitch": 80, "duration": 6, "velocity": 91}, {"time": 2213, "pitch": 78, "duration": 3, "velocity": 91}, {"time": 2216, "pitch": 76, "duration": 3, "velocity": 91}, {"time": 2219, "pitch": 73, "duration": 2, "velocity": 91}, {"time": 2222, "pitch": 80, "duration": 2, "velocity": 91}, {"time": 2225, "pitch": 78, "duration": 4, "velocity": 91}, {"time": 2246, "pitch": 80, "duration": 3, "velocity": 89}, {"time": 2249, "pitch": 83, "duration": 2, "velocity": 89}, {"time": 2252, "pitch": 85, "duration": 4, "velocity": 89}, {"time": 2258, "pitch": 83, "duration": 1, "velocity": 88}, {"time": 2261, "pitch": 83, "duration": 1, "velocity": 88}, {"time": 2264, "pitch": 83, "duration": 3, "velocity": 88}, {"time": 2267, "pitch": 80, "duration": 2, "velocity": 88}, {"time": 2270, "pitch": 83, "duration": 3, "velocity": 88}, {"time": 2273, "pitch": 80, "duration": 2, "velocity": 88}, {"time": 2276, "pitch": 78, "duration": 3, "velocity": 88}, {"time": 2279, "pitch": 83, "duration": 3, "velocity": 88}, {"time": 2285, "pitch": 80, "duration": 6, "velocity": 88}, {"time": 2294, "pitch": 80, "duration": 3, "velocity": 88}, {"time": 2297, "pitch": 83, "duration": 2, "velocity": 88}, {"time": 2300, "pitch": 85, "duration": 4, "velocity": 88}, {"time": 2306, "pitch": 83, "duration": 1, "velocity": 88}, {"time": 2309, "pitch": 83, "duration": 2, "velocity": 88}, {"time": 2312, "pitch": 80, "duration": 4, "velocity": 88}, {"time": 2318, "pitch": 83, "duration": 2, "velocity": 88}, {"time": 2321, "pitch": 80, "duration": 16, "velocity": 88}, {"time": 2342, "pitch": 80, "duration": 3, "velocity": 88}, {"time": 2345, "pitch": 78, "duration": 1, "velocity": 88}, {"time": 2348, "pitch": 80, "duration": 4, "velocity": 88}, {"time": 2354, "pitch": 78, "duration": 3, "velocity": 88}, {"time": 2360, "pitch": 78, "duration": 3, "velocity": 88}, {"time": 2364, "pitch": 76, "duration": 4, "velocity": 88}, {"time": 2369, "pitch": 73, "duration": 4, "velocity": 88}, {"time": 2372, "pitch": 76, "duration": 6, "velocity": 88}, {"time": 2380, "pitch": 73, "duration": 8, "velocity": 88}, {"time": 2390, "pitch": 73, "duration": 4, "velocity": 88}, {"time": 2393, "pitch": 71, "duration": 3, "velocity": 88}, {"time": 2396, "pitch": 80, "duration": 6, "velocity": 88}, {"time": 2405, "pitch": 78, "duration": 3, "velocity": 87}, {"time": 2408, "pitch": 76, "duration": 3, "velocity": 87}, {"time": 2411, "pitch": 73, "duration": 2, "velocity": 86}, {"time": 2420, "pitch": 80, "duration": 9, "velocity": 85}, {"time": 2429, "pitch": 78, "duration": 2, "velocity": 85}, {"time": 2432, "pitch": 76, "duration": 6, "velocity": 85}, {"time": 2438, "pitch": 73, "duration": 4, "velocity": 85}, {"time": 2444, "pitch": 76, "duration": 25, "velocity": 85}], "annotations": [{"time": 44, "annotation": {"number": 64, "value": 75}, "group": "control_change"}, {"time": 56, "annotation": {"number": 64, "value": 76}, "group": "control_change"}, {"time": 104, "annotation": {"number": 64, "value": 78}, "group": "control_change"}, {"time": 116, "annotation": {"number": 64, "value": 79}, "group": "control_change"}, {"time": 200, "annotation": {"number": 64, "value": 80}, "group": "control_change"}, {"time": 260, "annotation": {"number": 64, "value": 79}, "group": "control_change"}, {"time": 308, "annotation": {"number": 64, "value": 78}, "group": "control_change"}, {"time": 356, "annotation": {"number": 64, "value": 76}, "group": "control_change"}, {"time": 380, "annotation": {"number": 64, "value": 75}, "group": "control_change"}]}, {"program": 0, "is_drum": false, "name": "PIANO", "notes": [{"time": 17, "pitch": 59, "duration": 3, "velocity": 88}, {"time": 18, "pitch": 66, "duration": 2, "velocity": 88}, {"time": 20, "pitch": 40, "duration": 43, "velocity": 88}, {"time": 20, "pitch": 68, "duration": 23, "velocity": 88}, {"time": 26, "pitch": 47, "duration": 37, "velocity": 88}, {"time": 32, "pitch": 52, "duration": 9, "velocity": 88}, {"time": 38, "pitch": 63, "duration": 6, "velocity": 88}, {"time": 44, "pitch": 59, "duration": 12, "velocity": 88}, {"time": 56, "pitch": 52, "duration": 6, "velocity": 88}, {"time": 59, "pitch": 59, "duration": 3, "velocity": 88}, {"time": 62, "pitch": 64, "duration": 2, "velocity": 88}, {"time": 65, "pitch": 66, "duration": 3, "velocity": 88}, {"time": 68, "pitch": 37, "duration": 39, "velocity": 88}, {"time": 68, "pitch": 68, "duration": 14, "velocity": 88}, {"time": 74, "pitch": 44, "duration": 8, "velocity": 88}, {"time": 80, "pitch": 49, "duration": 6, "velocity": 88}, {"time": 83, "pitch": 66, "duration": 5, "velocity": 88}, {"time": 86, "pitch": 44, "duration": 20, "velocity": 88}, {"time": 92, "pitch": 49, "duration": 14, "velocity": 88}, {"time": 92, "pitch": 64, "duration": 19, "velocity": 88}, {"time": 107, "pitch": 59, "duration": 2, "velocity": 66}, {"time": 110, "pitch": 61, "duration": 3, "velocity": 62}, {"time": 113, "pitch": 64, "duration": 1, "velocity": 90}, {"time": 116, "pitch": 45, "duration": 37, "velocity": 90}, {"time": 116, "pitch": 61, "duration": 11, "velocity": 90}, {"time": 116, "pitch": 64, "duration": 11, "velocity": 90}, {"time": 116, "pitch": 71, "duration": 24, "velocity": 90}, {"time": 122, "pitch": 52, "duration": 31, "velocity": 90}, {"time": 128, "pitch": 61, "duration": 10, "velocity": 90}, {"time": 128, "pitch": 64, "duration": 11, "velocity": 90}, {"time": 128, "pitch": 69, "duration": 10, "velocity": 90}, {"time": 137, "pitch": 57, "duration": 16, "velocity": 90}, {"time": 140, "pitch": 61, "duration": 11, "velocity": 90}, {"time": 140, "pitch": 64, "duration": 11, "velocity": 90}, {"time": 140, "pitch": 69, "duration": 11, "velocity": 90}, {"time": 155, "pitch": 44, "duration": 7, "velocity": 91}, {"time": 155, "pitch": 59, "duration": 7, "velocity": 91}, {"time": 155, "pitch": 63, "duration": 7, "velocity": 91}, {"time": 164, "pitch": 66, "duration": 10, "velocity": 91}, {"time": 164, "pitch": 42, "duration": 24, "velocity": 91}, {"time": 164, "pitch": 57, "duration": 10, "velocity": 91}, {"time": 164, "pitch": 61, "duration": 10, "velocity": 91}, {"time": 170, "pitch": 49, "duration": 15, "velocity": 91}, {"time": 176, "pitch": 57, "duration": 12, "velocity": 91}, {"time": 176, "pitch": 61, "duration": 8, "velocity": 91}, {"time": 176, "pitch": 66, "duration": 7, "velocity": 91}, {"time": 188, "pitch": 47, "duration": 45, "velocity": 91}, {"time": 188, "pitch": 63, "duration": 17, "velocity": 91}, {"time": 188, "pitch": 66, "duration": 17, "velocity": 91}, {"time": 188, "pitch": 71, "duration": 16, "velocity": 91}, {"time": 193, "pitch": 54, "duration": 21, "velocity": 91}, {"time": 200, "pitch": 59, "duration": 12, "velocity": 91}, {"time": 212, "pitch": 63, "duration": 2, "velocity": 91}, {"time": 212, "pitch": 66, "duration": 3, "velocity": 91}, {"time": 212, "pitch": 71, "duration": 21, "velocity": 91}, {"time": 224, "pitch": 47, "duration": 9, "velocity": 91}, {"time": 224, "pitch": 63, "duration": 13, "velocity": 91}, {"time": 224, "pitch": 66, "duration": 13, "velocity": 91}, {"time": 224, "pitch": 71, "duration": 9, "velocity": 91}, {"time": 224, "pitch": 76, "duration": 10, "velocity": 91}, {"time": 260, "pitch": 52, "duration": 36, "velocity": 79}, {"time": 260, "pitch": 68, "duration": 11, "velocity": 79}, {"time": 260, "pitch": 71, "duration": 12, "velocity": 79}, {"time": 260, "pitch": 76, "duration": 10, "velocity": 79}, {"time": 266, "pitch": 59, "duration": 30, "velocity": 79}, {"time": 272, "pitch": 68, "duration": 21, "velocity": 63}, {"time": 272, "pitch": 71, "duration": 22, "velocity": 60}, {"time": 272, "pitch": 76, "duration": 21, "velocity": 64}, {"time": 290, "pitch": 64, "duration": 10, "velocity": 53}, {"time": 296, "pitch": 51, "duration": 9, "velocity": 85}, {"time": 296, "pitch": 66, "duration": 9, "velocity": 67}, {"time": 296, "pitch": 71, "duration": 9, "velocity": 75}, {"time": 299, "pitch": 71, "duration": 6, "velocity": 64}, {"time": 302, "pitch": 76, "duration": 3, "velocity": 74}, {"time": 308, "pitch": 49, "duration": 34, "velocity": 83}, {"time": 314, "pitch": 56, "duration": 27, "velocity": 62}, {"time": 320, "pitch": 64, "duration": 11, "velocity": 54}, {"time": 320, "pitch": 68, "duration": 11, "velocity": 61}, {"time": 320, "pitch": 73, "duration": 11, "velocity": 65}, {"time": 326, "pitch": 61, "duration": 9, "velocity": 47}, {"time": 332, "pitch": 64, "duration": 9, "velocity": 62}, {"time": 332, "pitch": 68, "duration": 9, "velocity": 69}, {"time": 332, "pitch": 73, "duration": 8, "velocity": 68}, {"time": 338, "pitch": 61, "duration": 2, "velocity": 51}, {"time": 344, "pitch": 47, "duration": 7, "velocity": 70}, {"time": 344, "pitch": 63, "duration": 6, "velocity": 67}, {"time": 344, "pitch": 66, "duration": 7, "velocity": 73}, {"time": 356, "pitch": 42, "duration": 42, "velocity": 65}, {"time": 356, "pitch": 57, "duration": 10, "velocity": 62}, {"time": 356, "pitch": 61, "duration": 11, "velocity": 72}, {"time": 362, "pitch": 49, "duration": 36, "velocity": 54}, {"time": 368, "pitch": 57, "duration": 10, "velocity": 60}, {"time": 368, "pitch": 61, "duration": 10, "velocity": 52}, {"time": 374, "pitch": 54, "duration": 7, "velocity": 54}, {"time": 380, "pitch": 57, "duration": 10, "velocity": 81}, {"time": 380, "pitch": 61, "duration": 7, "velocity": 81}, {"time": 386, "pitch": 54, "duration": 5, "velocity": 81}, {"time": 389, "pitch": 61, "duration": 1, "velocity": 81}, {"time": 389, "pitch": 69, "duration": 1, "velocity": 81}, {"time": 392, "pitch": 57, "duration": 7, "velocity": 81}, {"time": 392, "pitch": 61, "duration": 6, "velocity": 81}, {"time": 392, "pitch": 69, "duration": 1, "velocity": 81}, {"time": 395, "pitch": 68, "duration": 1, "velocity": 81}, {"time": 398, "pitch": 68, "duration": 2, "velocity": 81}, {"time": 401, "pitch": 64, "duration": 3, "velocity": 81}, {"time": 404, "pitch": 47, "duration": 37, "velocity": 81}, {"time": 404, "pitch": 63, "duration": 16, "velocity": 81}, {"time": 404, "pitch": 66, "duration": 14, "velocity": 81}, {"time": 410, "pitch": 54, "duration": 30, "velocity": 81}, {"time": 422, "pitch": 61, "duration": 6, "velocity": 81}, {"time": 428, "pitch": 63, "duration": 9, "velocity": 81}, {"time": 431, "pitch": 59, "duration": 4, "velocity": 81}, {"time": 443, "pitch": 59, "duration": 4, "velocity": 81}, {"time": 446, "pitch": 64, "duration": 3, "velocity": 81}, {"time": 449, "pitch": 66, "duration": 4, "velocity": 81}, {"time": 452, "pitch": 52, "duration": 36, "velocity": 81}, {"time": 452, "pitch": 68, "duration": 5, "velocity": 81}, {"time": 458, "pitch": 59, "duration": 30, "velocity": 81}, {"time": 464, "pitch": 68, "duration": 22, "velocity": 81}, {"time": 464, "pitch": 71, "duration": 22, "velocity": 81}, {"time": 470, "pitch": 64, "duration": 6, "velocity": 81}, {"time": 476, "pitch": 76, "duration": 10, "velocity": 86}, {"time": 482, "pitch": 64, "duration": 6, "velocity": 85}, {"time": 488, "pitch": 51, "duration": 12, "velocity": 85}, {"time": 488, "pitch": 66, "duration": 8, "velocity": 85}, {"time": 488, "pitch": 71, "duration": 8, "velocity": 85}, {"time": 500, "pitch": 49, "duration": 33, "velocity": 76}, {"time": 500, "pitch": 64, "duration": 7, "velocity": 64}, {"time": 500, "pitch": 68, "duration": 7, "velocity": 69}, {"time": 506, "pitch": 56, "duration": 26, "velocity": 61}, {"time": 509, "pitch": 68, "duration": 1, "velocity": 36}, {"time": 512, "pitch": 64, "duration": 10, "velocity": 61}, {"time": 512, "pitch": 68, "duration": 10, "velocity": 74}, {"time": 518, "pitch": 61, "duration": 7, "velocity": 46}, {"time": 524, "pitch": 64, "duration": 9, "velocity": 66}, {"time": 524, "pitch": 68, "duration": 9, "velocity": 76}, {"time": 530, "pitch": 61, "duration": 2, "velocity": 48}, {"time": 536, "pitch": 47, "duration": 6, "velocity": 77}, {"time": 536, "pitch": 63, "duration": 6, "velocity": 73}, {"time": 536, "pitch": 66, "duration": 6, "velocity": 86}, {"time": 548, "pitch": 45, "duration": 32, "velocity": 74}, {"time": 548, "pitch": 61, "duration": 11, "velocity": 61}, {"time": 548, "pitch": 64, "duration": 11, "velocity": 60}, {"time": 548, "pitch": 69, "duration": 11, "velocity": 70}, {"time": 554, "pitch": 52, "duration": 26, "velocity": 66}, {"time": 560, "pitch": 61, "duration": 10, "velocity": 64}, {"time": 560, "pitch": 64, "duration": 10, "velocity": 75}, {"time": 560, "pitch": 69, "duration": 10, "velocity": 77}, {"time": 566, "pitch": 57, "duration": 9, "velocity": 47}, {"time": 572, "pitch": 61, "duration": 7, "velocity": 62}, {"time": 572, "pitch": 64, "duration": 8, "velocity": 63}, {"time": 572, "pitch": 69, "duration": 7, "velocity": 54}, {"time": 584, "pitch": 44, "duration": 10, "velocity": 69}, {"time": 584, "pitch": 56, "duration": 9, "velocity": 69}, {"time": 584, "pitch": 59, "duration": 9, "velocity": 69}, {"time": 584, "pitch": 63, "duration": 10, "velocity": 69}, {"time": 596, "pitch": 42, "duration": 17, "velocity": 78}, {"time": 596, "pitch": 57, "duration": 10, "velocity": 78}, {"time": 596, "pitch": 61, "duration": 10, "velocity": 78}, {"time": 602, "pitch": 49, "duration": 10, "velocity": 60}, {"time": 608, "pitch": 57, "duration": 6, "velocity": 74}, {"time": 608, "pitch": 61, "duration": 6, "velocity": 74}, {"time": 608, "pitch": 66, "duration": 5, "velocity": 74}, {"time": 620, "pitch": 42, "duration": 12, "velocity": 68}, {"time": 620, "pitch": 57, "duration": 10, "velocity": 67}, {"time": 620, "pitch": 61, "duration": 10, "velocity": 71}, {"time": 632, "pitch": 44, "duration": 10, "velocity": 89}, {"time": 632, "pitch": 59, "duration": 11, "velocity": 89}, {"time": 632, "pitch": 63, "duration": 10, "velocity": 89}, {"time": 644, "pitch": 45, "duration": 9, "velocity": 79}, {"time": 644, "pitch": 61, "duration": 11, "velocity": 79}, {"time": 644, "pitch": 64, "duration": 10, "velocity": 79}, {"time": 644, "pitch": 69, "duration": 8, "velocity": 79}, {"time": 650, "pitch": 52, "duration": 6, "velocity": 80}, {"time": 656, "pitch": 47, "duration": 6, "velocity": 80}, {"time": 656, "pitch": 63, "duration": 7, "velocity": 80}, {"time": 656, "pitch": 66, "duration": 7, "velocity": 80}, {"time": 656, "pitch": 71, "duration": 7, "velocity": 80}, {"time": 662, "pitch": 54, "duration": 3, "velocity": 83}, {"time": 668, "pitch": 52, "duration": 24, "velocity": 79}, {"time": 668, "pitch": 68, "duration": 10, "velocity": 79}, {"time": 668, "pitch": 71, "duration": 11, "velocity": 79}, {"time": 668, "pitch": 76, "duration": 11, "velocity": 79}, {"time": 674, "pitch": 59, "duration": 18, "velocity": 79}, {"time": 677, "pitch": 64, "duration": 9, "velocity": 83}, {"time": 680, "pitch": 68, "duration": 9, "velocity": 84}, {"time": 686, "pitch": 71, "duration": 3, "velocity": 85}, {"time": 691, "pitch": 66, "duration": 1, "velocity": 85}, {"time": 691, "pitch": 40, "duration": 18, "velocity": 101}, {"time": 692, "pitch": 59, "duration": 11, "velocity": 85}, {"time": 692, "pitch": 76, "duration": 10, "velocity": 85}, {"time": 692, "pitch": 68, "duration": 18, "velocity": 85}, {"time": 716, "pitch": 52, "duration": 31, "velocity": 101}, {"time": 716, "pitch": 68, "duration": 10, "velocity": 101}, {"time": 716, "pitch": 71, "duration": 10, "velocity": 101}, {"time": 716, "pitch": 76, "duration": 10, "velocity": 101}, {"time": 722, "pitch": 59, "duration": 25, "velocity": 101}, {"time": 728, "pitch": 68, "duration": 10, "velocity": 101}, {"time": 728, "pitch": 71, "duration": 10, "velocity": 101}, {"time": 728, "pitch": 76, "duration": 10, "velocity": 101}, {"time": 734, "pitch": 64, "duration": 6, "velocity": 101}, {"time": 740, "pitch": 68, "duration": 6, "velocity": 101}, {"time": 740, "pitch": 71, "duration": 10, "velocity": 101}, {"time": 740, "pitch": 76, "duration": 6, "velocity": 101}, {"time": 752, "pitch": 51, "duration": 7, "velocity": 102}, {"time": 752, "pitch": 66, "duration": 7, "velocity": 102}, {"time": 752, "pitch": 71, "duration": 6, "velocity": 102}, {"time": 764, "pitch": 49, "duration": 33, "velocity": 102}, {"time": 764, "pitch": 64, "duration": 11, "velocity": 102}, {"time": 764, "pitch": 68, "duration": 11, "velocity": 102}, {"time": 764, "pitch": 73, "duration": 11, "velocity": 102}, {"time": 770, "pitch": 56, "duration": 25, "velocity": 102}, {"time": 776, "pitch": 64, "duration": 10, "velocity": 102}, {"time": 776, "pitch": 68, "duration": 10, "velocity": 102}, {"time": 776, "pitch": 73, "duration": 10, "velocity": 102}, {"time": 782, "pitch": 61, "duration": 6, "velocity": 102}, {"time": 788, "pitch": 64, "duration": 7, "velocity": 102}, {"time": 788, "pitch": 68, "duration": 7, "velocity": 102}, {"time": 788, "pitch": 73, "duration": 6, "velocity": 102}, {"time": 800, "pitch": 47, "duration": 7, "velocity": 98}, {"time": 800, "pitch": 63, "duration": 6, "velocity": 98}, {"time": 800, "pitch": 66, "duration": 6, "velocity": 98}, {"time": 812, "pitch": 45, "duration": 38, "velocity": 99}, {"time": 812, "pitch": 61, "duration": 10, "velocity": 99}, {"time": 812, "pitch": 64, "duration": 11, "velocity": 99}, {"time": 812, "pitch": 69, "duration": 10, "velocity": 99}, {"time": 818, "pitch": 52, "duration": 33, "velocity": 100}, {"time": 824, "pitch": 61, "duration": 10, "velocity": 100}, {"time": 824, "pitch": 64, "duration": 10, "velocity": 100}, {"time": 824, "pitch": 69, "duration": 10, "velocity": 100}, {"time": 830, "pitch": 57, "duration": 9, "velocity": 101}, {"time": 836, "pitch": 61, "duration": 10, "velocity": 64}, {"time": 836, "pitch": 64, "duration": 10, "velocity": 75}, {"time": 836, "pitch": 69, "duration": 10, "velocity": 79}, {"time": 842, "pitch": 57, "duration": 7, "velocity": 52}, {"time": 848, "pitch": 61, "duration": 5, "velocity": 72}, {"time": 848, "pitch": 64, "duration": 5, "velocity": 85}, {"time": 848, "pitch": 69, "duration": 5, "velocity": 87}, {"time": 860, "pitch": 54, "duration": 18, "velocity": 75}, {"time": 860, "pitch": 69, "duration": 11, "velocity": 87}, {"time": 860, "pitch": 73, "duration": 11, "velocity": 87}, {"time": 860, "pitch": 78, "duration": 11, "velocity": 83}, {"time": 866, "pitch": 61, "duration": 11, "velocity": 60}, {"time": 872, "pitch": 66, "duration": 3, "velocity": 64}, {"time": 872, "pitch": 69, "duration": 6, "velocity": 95}, {"time": 872, "pitch": 73, "duration": 6, "velocity": 93}, {"time": 872, "pitch": 78, "duration": 5, "velocity": 90}, {"time": 884, "pitch": 47, "duration": 18, "velocity": 87}, {"time": 884, "pitch": 63, "duration": 11, "velocity": 85}, {"time": 884, "pitch": 66, "duration": 11, "velocity": 86}, {"time": 884, "pitch": 71, "duration": 11, "velocity": 93}, {"time": 890, "pitch": 54, "duration": 12, "velocity": 65}, {"time": 896, "pitch": 63, "duration": 6, "velocity": 83}, {"time": 896, "pitch": 66, "duration": 6, "velocity": 90}, {"time": 896, "pitch": 71, "duration": 6, "velocity": 95}, {"time": 902, "pitch": 59, "duration": 5, "velocity": 64}, {"time": 908, "pitch": 52, "duration": 33, "velocity": 100}, {"time": 908, "pitch": 68, "duration": 10, "velocity": 81}, {"time": 908, "pitch": 71, "duration": 10, "velocity": 98}, {"time": 908, "pitch": 76, "duration": 10, "velocity": 86}, {"time": 914, "pitch": 59, "duration": 26, "velocity": 64}, {"time": 920, "pitch": 68, "duration": 10, "velocity": 85}, {"time": 920, "pitch": 71, "duration": 10, "velocity": 95}, {"time": 920, "pitch": 76, "duration": 10, "velocity": 83}, {"time": 926, "pitch": 64, "duration": 6, "velocity": 50}, {"time": 932, "pitch": 68, "duration": 7, "velocity": 90}, {"time": 932, "pitch": 71, "duration": 7, "velocity": 93}, {"time": 932, "pitch": 76, "duration": 10, "velocity": 79}, {"time": 938, "pitch": 64, "duration": 2, "velocity": 44}, {"time": 944, "pitch": 51, "duration": 6, "velocity": 76}, {"time": 944, "pitch": 66, "duration": 7, "velocity": 90}, {"time": 944, "pitch": 71, "duration": 6, "velocity": 95}, {"time": 956, "pitch": 49, "duration": 34, "velocity": 79}, {"time": 956, "pitch": 64, "duration": 11, "velocity": 67}, {"time": 956, "pitch": 68, "duration": 11, "velocity": 67}, {"time": 956, "pitch": 73, "duration": 11, "velocity": 64}, {"time": 962, "pitch": 56, "duration": 26, "velocity": 64}, {"time": 968, "pitch": 64, "duration": 11, "velocity": 71}, {"time": 968, "pitch": 68, "duration": 11, "velocity": 83}, {"time": 968, "pitch": 73, "duration": 10, "velocity": 79}, {"time": 974, "pitch": 61, "duration": 13, "velocity": 51}, {"time": 980, "pitch": 64, "duration": 7, "velocity": 68}, {"time": 980, "pitch": 68, "duration": 7, "velocity": 85}, {"time": 980, "pitch": 73, "duration": 7, "velocity": 77}, {"time": 992, "pitch": 47, "duration": 7, "velocity": 77}, {"time": 992, "pitch": 63, "duration": 6, "velocity": 83}, {"time": 992, "pitch": 66, "duration": 7, "velocity": 90}, {"time": 1001, "pitch": 61, "duration": 1, "velocity": 11}, {"time": 1004, "pitch": 45, "duration": 42, "velocity": 86}, {"time": 1004, "pitch": 61, "duration": 11, "velocity": 70}, {"time": 1004, "pitch": 64, "duration": 11, "velocity": 87}, {"time": 1004, "pitch": 69, "duration": 11, "velocity": 87}, {"time": 1010, "pitch": 52, "duration": 34, "velocity": 69}, {"time": 1016, "pitch": 61, "duration": 11, "velocity": 68}, {"time": 1016, "pitch": 64, "duration": 10, "velocity": 74}, {"time": 1016, "pitch": 69, "duration": 10, "velocity": 71}, {"time": 1022, "pitch": 57, "duration": 10, "velocity": 52}, {"time": 1028, "pitch": 61, "duration": 11, "velocity": 69}, {"time": 1028, "pitch": 64, "duration": 11, "velocity": 79}, {"time": 1028, "pitch": 69, "duration": 10, "velocity": 83}, {"time": 1034, "pitch": 57, "duration": 8, "velocity": 58}, {"time": 1040, "pitch": 61, "duration": 5, "velocity": 74}, {"time": 1040, "pitch": 64, "duration": 5, "velocity": 83}, {"time": 1040, "pitch": 69, "duration": 5, "velocity": 86}, {"time": 1052, "pitch": 42, "duration": 18, "velocity": 86}, {"time": 1052, "pitch": 57, "duration": 10, "velocity": 71}, {"time": 1052, "pitch": 61, "duration": 10, "velocity": 74}, {"time": 1052, "pitch": 66, "duration": 10, "velocity": 74}, {"time": 1058, "pitch": 49, "duration": 12, "velocity": 61}, {"time": 1064, "pitch": 57, "duration": 6, "velocity": 81}, {"time": 1064, "pitch": 61, "duration": 6, "velocity": 83}, {"time": 1064, "pitch": 66, "duration": 6, "velocity": 79}, {"time": 1070, "pitch": 54, "duration": 5, "velocity": 60}, {"time": 1076, "pitch": 47, "duration": 18, "velocity": 77}, {"time": 1076, "pitch": 63, "duration": 11, "velocity": 83}, {"time": 1076, "pitch": 66, "duration": 11, "velocity": 85}, {"time": 1076, "pitch": 71, "duration": 11, "velocity": 90}, {"time": 1082, "pitch": 54, "duration": 12, "velocity": 74}, {"time": 1088, "pitch": 63, "duration": 6, "velocity": 76}, {"time": 1088, "pitch": 66, "duration": 7, "velocity": 83}, {"time": 1088, "pitch": 71, "duration": 6, "velocity": 81}, {"time": 1094, "pitch": 59, "duration": 6, "velocity": 59}, {"time": 1100, "pitch": 52, "duration": 40, "velocity": 68}, {"time": 1100, "pitch": 59, "duration": 40, "velocity": 71}, {"time": 1100, "pitch": 64, "duration": 8, "velocity": 58}, {"time": 1100, "pitch": 69, "duration": 10, "velocity": 67}, {"time": 1100, "pitch": 76, "duration": 8, "velocity": 65}, {"time": 1112, "pitch": 64, "duration": 4, "velocity": 9}, {"time": 1112, "pitch": 69, "duration": 9, "velocity": 86}, {"time": 1112, "pitch": 76, "duration": 8, "velocity": 73}, {"time": 1118, "pitch": 64, "duration": 22, "velocity": 58}, {"time": 1124, "pitch": 68, "duration": 14, "velocity": 76}, {"time": 1148, "pitch": 52, "duration": 36, "velocity": 84}, {"time": 1148, "pitch": 80, "duration": 5, "velocity": 84}, {"time": 1154, "pitch": 59, "duration": 30, "velocity": 84}, {"time": 1160, "pitch": 68, "duration": 22, "velocity": 84}, {"time": 1160, "pitch": 71, "duration": 22, "velocity": 84}, {"time": 1166, "pitch": 64, "duration": 6, "velocity": 86}, {"time": 1172, "pitch": 76, "duration": 10, "velocity": 84}, {"time": 1178, "pitch": 64, "duration": 6, "velocity": 83}, {"time": 1184, "pitch": 51, "duration": 12, "velocity": 83}, {"time": 1184, "pitch": 66, "duration": 8, "velocity": 83}, {"time": 1184, "pitch": 71, "duration": 8, "velocity": 83}, {"time": 1196, "pitch": 49, "duration": 33, "velocity": 83}, {"time": 1196, "pitch": 64, "duration": 7, "velocity": 83}, {"time": 1196, "pitch": 68, "duration": 7, "velocity": 83}, {"time": 1202, "pitch": 56, "duration": 26, "velocity": 83}, {"time": 1205, "pitch": 68, "duration": 1, "velocity": 83}, {"time": 1208, "pitch": 64, "duration": 10, "velocity": 83}, {"time": 1208, "pitch": 68, "duration": 10, "velocity": 83}, {"time": 1214, "pitch": 61, "duration": 7, "velocity": 83}, {"time": 1220, "pitch": 64, "duration": 9, "velocity": 83}, {"time": 1220, "pitch": 68, "duration": 9, "velocity": 83}, {"time": 1226, "pitch": 61, "duration": 2, "velocity": 83}, {"time": 1232, "pitch": 47, "duration": 6, "velocity": 83}, {"time": 1232, "pitch": 63, "duration": 6, "velocity": 83}, {"time": 1232, "pitch": 66, "duration": 6, "velocity": 83}, {"time": 1244, "pitch": 45, "duration": 32, "velocity": 84}, {"time": 1244, "pitch": 61, "duration": 11, "velocity": 84}, {"time": 1244, "pitch": 64, "duration": 11, "velocity": 84}, {"time": 1244, "pitch": 69, "duration": 11, "velocity": 84}, {"time": 1250, "pitch": 52, "duration": 26, "velocity": 84}, {"time": 1256, "pitch": 61, "duration": 10, "velocity": 84}, {"time": 1256, "pitch": 64, "duration": 10, "velocity": 84}, {"time": 1256, "pitch": 69, "duration": 10, "velocity": 84}, {"time": 1262, "pitch": 57, "duration": 9, "velocity": 84}, {"time": 1268, "pitch": 61, "duration": 7, "velocity": 86}, {"time": 1268, "pitch": 64, "duration": 8, "velocity": 86}, {"time": 1268, "pitch": 69, "duration": 7, "velocity": 86}, {"time": 1280, "pitch": 44, "duration": 10, "velocity": 86}, {"time": 1280, "pitch": 56, "duration": 9, "velocity": 86}, {"time": 1280, "pitch": 59, "duration": 9, "velocity": 86}, {"time": 1280, "pitch": 63, "duration": 10, "velocity": 86}, {"time": 1292, "pitch": 42, "duration": 17, "velocity": 86}, {"time": 1292, "pitch": 57, "duration": 10, "velocity": 86}, {"time": 1292, "pitch": 61, "duration": 10, "velocity": 86}, {"time": 1298, "pitch": 49, "duration": 10, "velocity": 86}, {"time": 1304, "pitch": 57, "duration": 6, "velocity": 86}, {"time": 1304, "pitch": 61, "duration": 6, "velocity": 86}, {"time": 1304, "pitch": 66, "duration": 5, "velocity": 86}, {"time": 1316, "pitch": 42, "duration": 12, "velocity": 87}, {"time": 1316, "pitch": 57, "duration": 10, "velocity": 87}, {"time": 1316, "pitch": 61, "duration": 10, "velocity": 87}, {"time": 1328, "pitch": 44, "duration": 10, "velocity": 87}, {"time": 1328, "pitch": 59, "duration": 11, "velocity": 87}, {"time": 1328, "pitch": 63, "duration": 10, "velocity": 87}, {"time": 1340, "pitch": 45, "duration": 9, "velocity": 89}, {"time": 1340, "pitch": 61, "duration": 11, "velocity": 89}, {"time": 1340, "pitch": 64, "duration": 10, "velocity": 89}, {"time": 1340, "pitch": 69, "duration": 8, "velocity": 89}, {"time": 1346, "pitch": 52, "duration": 6, "velocity": 89}, {"time": 1352, "pitch": 47, "duration": 6, "velocity": 89}, {"time": 1352, "pitch": 63, "duration": 7, "velocity": 89}, {"time": 1352, "pitch": 66, "duration": 7, "velocity": 89}, {"time": 1352, "pitch": 71, "duration": 7, "velocity": 89}, {"time": 1358, "pitch": 54, "duration": 3, "velocity": 89}, {"time": 1364, "pitch": 52, "duration": 24, "velocity": 89}, {"time": 1364, "pitch": 68, "duration": 10, "velocity": 89}, {"time": 1364, "pitch": 71, "duration": 11, "velocity": 89}, {"time": 1364, "pitch": 76, "duration": 11, "velocity": 89}, {"time": 1370, "pitch": 59, "duration": 18, "velocity": 89}, {"time": 1373, "pitch": 64, "duration": 9, "velocity": 89}, {"time": 1376, "pitch": 68, "duration": 9, "velocity": 89}, {"time": 1382, "pitch": 71, "duration": 3, "velocity": 89}, {"time": 1387, "pitch": 66, "duration": 1, "velocity": 89}, {"time": 1387, "pitch": 40, "duration": 18, "velocity": 89}, {"time": 1388, "pitch": 59, "duration": 11, "velocity": 89}, {"time": 1388, "pitch": 76, "duration": 10, "velocity": 89}, {"time": 1388, "pitch": 68, "duration": 18, "velocity": 89}, {"time": 1412, "pitch": 52, "duration": 31, "velocity": 92}, {"time": 1412, "pitch": 68, "duration": 10, "velocity": 92}, {"time": 1412, "pitch": 71, "duration": 10, "velocity": 92}, {"time": 1412, "pitch": 76, "duration": 10, "velocity": 92}, {"time": 1418, "pitch": 59, "duration": 25, "velocity": 92}, {"time": 1424, "pitch": 68, "duration": 10, "velocity": 92}, {"time": 1424, "pitch": 71, "duration": 10, "velocity": 92}, {"time": 1424, "pitch": 76, "duration": 10, "velocity": 92}, {"time": 1430, "pitch": 64, "duration": 6, "velocity": 94}, {"time": 1436, "pitch": 68, "duration": 6, "velocity": 94}, {"time": 1436, "pitch": 71, "duration": 10, "velocity": 94}, {"time": 1436, "pitch": 76, "duration": 6, "velocity": 94}, {"time": 1448, "pitch": 51, "duration": 7, "velocity": 95}, {"time": 1448, "pitch": 66, "duration": 7, "velocity": 79}, {"time": 1448, "pitch": 71, "duration": 6, "velocity": 85}, {"time": 1460, "pitch": 49, "duration": 33, "velocity": 83}, {"time": 1460, "pitch": 64, "duration": 11, "velocity": 64}, {"time": 1460, "pitch": 68, "duration": 11, "velocity": 72}, {"time": 1460, "pitch": 73, "duration": 11, "velocity": 69}, {"time": 1466, "pitch": 56, "duration": 25, "velocity": 63}, {"time": 1472, "pitch": 64, "duration": 10, "velocity": 63}, {"time": 1472, "pitch": 68, "duration": 10, "velocity": 69}, {"time": 1472, "pitch": 73, "duration": 10, "velocity": 67}, {"time": 1478, "pitch": 61, "duration": 6, "velocity": 47}, {"time": 1484, "pitch": 64, "duration": 7, "velocity": 67}, {"time": 1484, "pitch": 68, "duration": 7, "velocity": 81}, {"time": 1484, "pitch": 73, "duration": 6, "velocity": 81}, {"time": 1496, "pitch": 47, "duration": 7, "velocity": 81}, {"time": 1496, "pitch": 63, "duration": 6, "velocity": 74}, {"time": 1496, "pitch": 66, "duration": 6, "velocity": 83}, {"time": 1508, "pitch": 45, "duration": 38, "velocity": 76}, {"time": 1508, "pitch": 61, "duration": 10, "velocity": 62}, {"time": 1508, "pitch": 64, "duration": 11, "velocity": 72}, {"time": 1508, "pitch": 69, "duration": 10, "velocity": 77}, {"time": 1514, "pitch": 52, "duration": 33, "velocity": 56}, {"time": 1520, "pitch": 61, "duration": 10, "velocity": 65}, {"time": 1520, "pitch": 64, "duration": 10, "velocity": 71}, {"time": 1520, "pitch": 69, "duration": 10, "velocity": 75}, {"time": 1526, "pitch": 57, "duration": 9, "velocity": 45}, {"time": 1532, "pitch": 61, "duration": 10, "velocity": 64}, {"time": 1532, "pitch": 64, "duration": 10, "velocity": 75}, {"time": 1532, "pitch": 69, "duration": 10, "velocity": 79}, {"time": 1538, "pitch": 57, "duration": 7, "velocity": 52}, {"time": 1544, "pitch": 61, "duration": 5, "velocity": 72}, {"time": 1544, "pitch": 64, "duration": 5, "velocity": 85}, {"time": 1544, "pitch": 69, "duration": 5, "velocity": 87}, {"time": 1556, "pitch": 54, "duration": 18, "velocity": 75}, {"time": 1556, "pitch": 69, "duration": 11, "velocity": 87}, {"time": 1556, "pitch": 73, "duration": 11, "velocity": 87}, {"time": 1556, "pitch": 78, "duration": 11, "velocity": 83}, {"time": 1562, "pitch": 61, "duration": 11, "velocity": 60}, {"time": 1568, "pitch": 66, "duration": 3, "velocity": 64}, {"time": 1568, "pitch": 69, "duration": 6, "velocity": 95}, {"time": 1568, "pitch": 73, "duration": 6, "velocity": 93}, {"time": 1568, "pitch": 78, "duration": 5, "velocity": 90}, {"time": 1580, "pitch": 47, "duration": 18, "velocity": 87}, {"time": 1580, "pitch": 63, "duration": 11, "velocity": 85}, {"time": 1580, "pitch": 66, "duration": 11, "velocity": 86}, {"time": 1580, "pitch": 71, "duration": 11, "velocity": 93}, {"time": 1586, "pitch": 54, "duration": 12, "velocity": 65}, {"time": 1592, "pitch": 63, "duration": 6, "velocity": 83}, {"time": 1592, "pitch": 66, "duration": 6, "velocity": 90}, {"time": 1592, "pitch": 71, "duration": 6, "velocity": 95}, {"time": 1598, "pitch": 59, "duration": 5, "velocity": 64}, {"time": 1604, "pitch": 52, "duration": 33, "velocity": 100}, {"time": 1604, "pitch": 68, "duration": 10, "velocity": 81}, {"time": 1604, "pitch": 71, "duration": 10, "velocity": 98}, {"time": 1604, "pitch": 76, "duration": 10, "velocity": 86}, {"time": 1610, "pitch": 59, "duration": 26, "velocity": 64}, {"time": 1616, "pitch": 68, "duration": 10, "velocity": 85}, {"time": 1616, "pitch": 71, "duration": 10, "velocity": 95}, {"time": 1616, "pitch": 76, "duration": 10, "velocity": 83}, {"time": 1622, "pitch": 64, "duration": 6, "velocity": 50}, {"time": 1628, "pitch": 68, "duration": 7, "velocity": 90}, {"time": 1628, "pitch": 71, "duration": 7, "velocity": 93}, {"time": 1628, "pitch": 76, "duration": 10, "velocity": 79}, {"time": 1634, "pitch": 64, "duration": 2, "velocity": 44}, {"time": 1640, "pitch": 51, "duration": 6, "velocity": 76}, {"time": 1640, "pitch": 66, "duration": 7, "velocity": 90}, {"time": 1640, "pitch": 71, "duration": 6, "velocity": 95}, {"time": 1652, "pitch": 49, "duration": 34, "velocity": 79}, {"time": 1652, "pitch": 64, "duration": 11, "velocity": 67}, {"time": 1652, "pitch": 68, "duration": 11, "velocity": 67}, {"time": 1652, "pitch": 73, "duration": 11, "velocity": 64}, {"time": 1658, "pitch": 56, "duration": 26, "velocity": 64}, {"time": 1664, "pitch": 64, "duration": 11, "velocity": 71}, {"time": 1664, "pitch": 68, "duration": 11, "velocity": 83}, {"time": 1664, "pitch": 73, "duration": 10, "velocity": 79}, {"time": 1670, "pitch": 61, "duration": 13, "velocity": 51}, {"time": 1676, "pitch": 64, "duration": 7, "velocity": 68}, {"time": 1676, "pitch": 68, "duration": 7, "velocity": 85}, {"time": 1676, "pitch": 73, "duration": 7, "velocity": 77}, {"time": 1688, "pitch": 47, "duration": 7, "velocity": 77}, {"time": 1688, "pitch": 63, "duration": 6, "velocity": 83}, {"time": 1688, "pitch": 66, "duration": 7, "velocity": 90}, {"time": 1697, "pitch": 61, "duration": 1, "velocity": 11}, {"time": 1700, "pitch": 45, "duration": 42, "velocity": 86}, {"time": 1700, "pitch": 61, "duration": 11, "velocity": 70}, {"time": 1700, "pitch": 64, "duration": 11, "velocity": 87}, {"time": 1700, "pitch": 69, "duration": 11, "velocity": 87}, {"time": 1706, "pitch": 52, "duration": 34, "velocity": 69}, {"time": 1712, "pitch": 61, "duration": 11, "velocity": 68}, {"time": 1712, "pitch": 64, "duration": 10, "velocity": 74}, {"time": 1712, "pitch": 69, "duration": 10, "velocity": 71}, {"time": 1718, "pitch": 57, "duration": 10, "velocity": 52}, {"time": 1724, "pitch": 61, "duration": 11, "velocity": 69}, {"time": 1724, "pitch": 64, "duration": 11, "velocity": 79}, {"time": 1724, "pitch": 69, "duration": 10, "velocity": 83}, {"time": 1730, "pitch": 57, "duration": 8, "velocity": 58}, {"time": 1736, "pitch": 61, "duration": 5, "velocity": 74}, {"time": 1736, "pitch": 64, "duration": 5, "velocity": 83}, {"time": 1736, "pitch": 69, "duration": 5, "velocity": 86}, {"time": 1748, "pitch": 42, "duration": 18, "velocity": 86}, {"time": 1748, "pitch": 57, "duration": 10, "velocity": 71}, {"time": 1748, "pitch": 61, "duration": 10, "velocity": 74}, {"time": 1748, "pitch": 66, "duration": 10, "velocity": 74}, {"time": 1754, "pitch": 49, "duration": 12, "velocity": 61}, {"time": 1760, "pitch": 57, "duration": 6, "velocity": 81}, {"time": 1760, "pitch": 61, "duration": 6, "velocity": 83}, {"time": 1760, "pitch": 66, "duration": 6, "velocity": 79}, {"time": 1766, "pitch": 54, "duration": 5, "velocity": 60}, {"time": 1772, "pitch": 47, "duration": 18, "velocity": 77}, {"time": 1772, "pitch": 63, "duration": 11, "velocity": 83}, {"time": 1772, "pitch": 66, "duration": 11, "velocity": 85}, {"time": 1772, "pitch": 71, "duration": 11, "velocity": 90}, {"time": 1778, "pitch": 54, "duration": 12, "velocity": 74}, {"time": 1784, "pitch": 63, "duration": 6, "velocity": 76}, {"time": 1784, "pitch": 66, "duration": 7, "velocity": 83}, {"time": 1784, "pitch": 71, "duration": 6, "velocity": 81}, {"time": 1790, "pitch": 59, "duration": 6, "velocity": 59}, {"time": 1796, "pitch": 52, "duration": 40, "velocity": 68}, {"time": 1796, "pitch": 59, "duration": 40, "velocity": 71}, {"time": 1796, "pitch": 64, "duration": 8, "velocity": 58}, {"time": 1796, "pitch": 69, "duration": 10, "velocity": 67}, {"time": 1796, "pitch": 76, "duration": 8, "velocity": 65}, {"time": 1808, "pitch": 64, "duration": 4, "velocity": 9}, {"time": 1808, "pitch": 69, "duration": 9, "velocity": 86}, {"time": 1808, "pitch": 76, "duration": 8, "velocity": 73}, {"time": 1814, "pitch": 64, "duration": 22, "velocity": 58}, {"time": 1820, "pitch": 68, "duration": 14, "velocity": 76}, {"time": 1844, "pitch": 42, "duration": 42, "velocity": 70}, {"time": 1844, "pitch": 57, "duration": 10, "velocity": 64}, {"time": 1844, "pitch": 61, "duration": 10, "velocity": 67}, {"time": 1844, "pitch": 66, "duration": 10, "velocity": 70}, {"time": 1850, "pitch": 49, "duration": 36, "velocity": 62}, {"time": 1856, "pitch": 57, "duration": 10, "velocity": 60}, {"time": 1856, "pitch": 61, "duration": 10, "velocity": 69}, {"time": 1856, "pitch": 66, "duration": 10, "velocity": 70}, {"time": 1862, "pitch": 54, "duration": 18, "velocity": 57}, {"time": 1868, "pitch": 57, "duration": 10, "velocity": 62}, {"time": 1868, "pitch": 61, "duration": 10, "velocity": 72}, {"time": 1868, "pitch": 66, "duration": 10, "velocity": 71}, {"time": 1880, "pitch": 57, "duration": 6, "velocity": 73}, {"time": 1880, "pitch": 61, "duration": 6, "velocity": 76}, {"time": 1880, "pitch": 66, "duration": 6, "velocity": 75}, {"time": 1886, "pitch": 54, "duration": 5, "velocity": 53}, {"time": 1892, "pitch": 49, "duration": 46, "velocity": 63}, {"time": 1892, "pitch": 64, "duration": 10, "velocity": 65}, {"time": 1892, "pitch": 68, "duration": 10, "velocity": 63}, {"time": 1892, "pitch": 73, "duration": 10, "velocity": 64}, {"time": 1898, "pitch": 56, "duration": 39, "velocity": 59}, {"time": 1904, "pitch": 64, "duration": 10, "velocity": 67}, {"time": 1904, "pitch": 68, "duration": 10, "velocity": 79}, {"time": 1904, "pitch": 73, "duration": 10, "velocity": 76}, {"time": 1910, "pitch": 61, "duration": 7, "velocity": 50}, {"time": 1916, "pitch": 64, "duration": 10, "velocity": 64}, {"time": 1916, "pitch": 68, "duration": 10, "velocity": 81}, {"time": 1916, "pitch": 73, "duration": 10, "velocity": 81}, {"time": 1922, "pitch": 61, "duration": 6, "velocity": 51}, {"time": 1928, "pitch": 64, "duration": 9, "velocity": 74}, {"time": 1928, "pitch": 68, "duration": 9, "velocity": 90}, {"time": 1928, "pitch": 73, "duration": 8, "velocity": 87}, {"time": 1940, "pitch": 42, "duration": 46, "velocity": 66}, {"time": 1940, "pitch": 57, "duration": 10, "velocity": 67}, {"time": 1940, "pitch": 61, "duration": 10, "velocity": 70}, {"time": 1940, "pitch": 66, "duration": 10, "velocity": 69}, {"time": 1946, "pitch": 49, "duration": 40, "velocity": 63}, {"time": 1952, "pitch": 57, "duration": 10, "velocity": 74}, {"time": 1952, "pitch": 61, "duration": 7, "velocity": 81}, {"time": 1952, "pitch": 66, "duration": 7, "velocity": 79}, {"time": 1958, "pitch": 54, "duration": 6, "velocity": 61}, {"time": 1961, "pitch": 61, "duration": 1, "velocity": 31}, {"time": 1961, "pitch": 66, "duration": 1, "velocity": 37}, {"time": 1964, "pitch": 57, "duration": 10, "velocity": 74}, {"time": 1964, "pitch": 61, "duration": 10, "velocity": 86}, {"time": 1964, "pitch": 66, "duration": 10, "velocity": 85}, {"time": 1970, "pitch": 54, "duration": 6, "velocity": 60}, {"time": 1976, "pitch": 57, "duration": 9, "velocity": 86}, {"time": 1976, "pitch": 61, "duration": 8, "velocity": 90}, {"time": 1976, "pitch": 66, "duration": 8, "velocity": 93}, {"time": 1982, "pitch": 54, "duration": 4, "velocity": 56}, {"time": 1988, "pitch": 45, "duration": 24, "velocity": 74}, {"time": 1988, "pitch": 61, "duration": 10, "velocity": 75}, {"time": 1988, "pitch": 64, "duration": 10, "velocity": 77}, {"time": 1988, "pitch": 69, "duration": 10, "velocity": 77}, {"time": 1994, "pitch": 52, "duration": 18, "velocity": 67}, {"time": 2000, "pitch": 61, "duration": 10, "velocity": 85}, {"time": 2000, "pitch": 64, "duration": 10, "velocity": 90}, {"time": 2000, "pitch": 69, "duration": 10, "velocity": 93}, {"time": 2006, "pitch": 57, "duration": 5, "velocity": 61}, {"time": 2012, "pitch": 47, "duration": 24, "velocity": 74}, {"time": 2012, "pitch": 63, "duration": 10, "velocity": 79}, {"time": 2012, "pitch": 66, "duration": 10, "velocity": 87}, {"time": 2012, "pitch": 71, "duration": 10, "velocity": 87}, {"time": 2018, "pitch": 54, "duration": 18, "velocity": 67}, {"time": 2024, "pitch": 63, "duration": 10, "velocity": 81}, {"time": 2024, "pitch": 66, "duration": 10, "velocity": 93}, {"time": 2024, "pitch": 71, "duration": 10, "velocity": 95}, {"time": 2030, "pitch": 59, "duration": 6, "velocity": 58}, {"time": 2036, "pitch": 47, "duration": 6, "velocity": 83}, {"time": 2036, "pitch": 63, "duration": 5, "velocity": 62}, {"time": 2036, "pitch": 66, "duration": 5, "velocity": 65}, {"time": 2036, "pitch": 71, "duration": 5, "velocity": 75}, {"time": 2048, "pitch": 47, "duration": 12, "velocity": 79}, {"time": 2048, "pitch": 63, "duration": 12, "velocity": 77}, {"time": 2048, "pitch": 66, "duration": 12, "velocity": 79}, {"time": 2048, "pitch": 71, "duration": 12, "velocity": 93}, {"time": 2060, "pitch": 52, "duration": 31, "velocity": 77}, {"time": 2060, "pitch": 68, "duration": 10, "velocity": 74}, {"time": 2060, "pitch": 71, "duration": 1, "velocity": 79}, {"time": 2060, "pitch": 76, "duration": 10, "velocity": 72}, {"time": 2066, "pitch": 59, "duration": 25, "velocity": 65}, {"time": 2072, "pitch": 68, "duration": 10, "velocity": 69}, {"time": 2072, "pitch": 71, "duration": 10, "velocity": 83}, {"time": 2072, "pitch": 76, "duration": 10, "velocity": 74}, {"time": 2078, "pitch": 64, "duration": 6, "velocity": 48}, {"time": 2084, "pitch": 68, "duration": 6, "velocity": 68}, {"time": 2084, "pitch": 71, "duration": 10, "velocity": 81}, {"time": 2084, "pitch": 76, "duration": 6, "velocity": 74}, {"time": 2096, "pitch": 51, "duration": 7, "velocity": 95}, {"time": 2096, "pitch": 66, "duration": 7, "velocity": 79}, {"time": 2096, "pitch": 71, "duration": 6, "velocity": 85}, {"time": 2108, "pitch": 49, "duration": 33, "velocity": 83}, {"time": 2108, "pitch": 64, "duration": 11, "velocity": 64}, {"time": 2108, "pitch": 68, "duration": 11, "velocity": 72}, {"time": 2108, "pitch": 73, "duration": 11, "velocity": 69}, {"time": 2114, "pitch": 56, "duration": 25, "velocity": 63}, {"time": 2120, "pitch": 64, "duration": 10, "velocity": 63}, {"time": 2120, "pitch": 68, "duration": 10, "velocity": 69}, {"time": 2120, "pitch": 73, "duration": 10, "velocity": 67}, {"time": 2126, "pitch": 61, "duration": 6, "velocity": 47}, {"time": 2132, "pitch": 64, "duration": 7, "velocity": 67}, {"time": 2132, "pitch": 68, "duration": 7, "velocity": 81}, {"time": 2132, "pitch": 73, "duration": 6, "velocity": 81}, {"time": 2144, "pitch": 47, "duration": 7, "velocity": 81}, {"time": 2144, "pitch": 63, "duration": 6, "velocity": 74}, {"time": 2144, "pitch": 66, "duration": 6, "velocity": 83}, {"time": 2156, "pitch": 45, "duration": 38, "velocity": 76}, {"time": 2156, "pitch": 61, "duration": 10, "velocity": 62}, {"time": 2156, "pitch": 64, "duration": 11, "velocity": 72}, {"time": 2156, "pitch": 69, "duration": 10, "velocity": 77}, {"time": 2162, "pitch": 52, "duration": 33, "velocity": 56}, {"time": 2168, "pitch": 61, "duration": 10, "velocity": 65}, {"time": 2168, "pitch": 64, "duration": 10, "velocity": 71}, {"time": 2168, "pitch": 69, "duration": 10, "velocity": 75}, {"time": 2174, "pitch": 57, "duration": 9, "velocity": 45}, {"time": 2180, "pitch": 61, "duration": 10, "velocity": 64}, {"time": 2180, "pitch": 64, "duration": 10, "velocity": 75}, {"time": 2180, "pitch": 69, "duration": 10, "velocity": 79}, {"time": 2186, "pitch": 57, "duration": 7, "velocity": 52}, {"time": 2192, "pitch": 61, "duration": 5, "velocity": 72}, {"time": 2192, "pitch": 64, "duration": 5, "velocity": 85}, {"time": 2192, "pitch": 69, "duration": 5, "velocity": 87}, {"time": 2204, "pitch": 54, "duration": 18, "velocity": 75}, {"time": 2204, "pitch": 69, "duration": 11, "velocity": 87}, {"time": 2204, "pitch": 73, "duration": 11, "velocity": 87}, {"time": 2204, "pitch": 78, "duration": 11, "velocity": 83}, {"time": 2210, "pitch": 61, "duration": 11, "velocity": 60}, {"time": 2216, "pitch": 66, "duration": 3, "velocity": 64}, {"time": 2216, "pitch": 69, "duration": 6, "velocity": 95}, {"time": 2216, "pitch": 73, "duration": 6, "velocity": 93}, {"time": 2216, "pitch": 78, "duration": 5, "velocity": 90}, {"time": 2228, "pitch": 47, "duration": 18, "velocity": 87}, {"time": 2228, "pitch": 63, "duration": 11, "velocity": 85}, {"time": 2228, "pitch": 66, "duration": 11, "velocity": 86}, {"time": 2228, "pitch": 71, "duration": 11, "velocity": 93}, {"time": 2234, "pitch": 54, "duration": 12, "velocity": 65}, {"time": 2240, "pitch": 63, "duration": 6, "velocity": 83}, {"time": 2240, "pitch": 66, "duration": 6, "velocity": 90}, {"time": 2240, "pitch": 71, "duration": 6, "velocity": 95}, {"time": 2246, "pitch": 59, "duration": 5, "velocity": 64}, {"time": 2252, "pitch": 52, "duration": 33, "velocity": 100}, {"time": 2252, "pitch": 68, "duration": 10, "velocity": 81}, {"time": 2252, "pitch": 71, "duration": 10, "velocity": 98}, {"time": 2252, "pitch": 76, "duration": 10, "velocity": 86}, {"time": 2258, "pitch": 59, "duration": 26, "velocity": 64}, {"time": 2264, "pitch": 68, "duration": 10, "velocity": 85}, {"time": 2264, "pitch": 71, "duration": 10, "velocity": 95}, {"time": 2264, "pitch": 76, "duration": 10, "velocity": 83}, {"time": 2270, "pitch": 64, "duration": 6, "velocity": 50}, {"time": 2276, "pitch": 68, "duration": 7, "velocity": 90}, {"time": 2276, "pitch": 71, "duration": 7, "velocity": 93}, {"time": 2276, "pitch": 76, "duration": 10, "velocity": 79}, {"time": 2282, "pitch": 64, "duration": 2, "velocity": 44}, {"time": 2288, "pitch": 51, "duration": 6, "velocity": 76}, {"time": 2288, "pitch": 66, "duration": 7, "velocity": 90}, {"time": 2288, "pitch": 71, "duration": 6, "velocity": 95}, {"time": 2300, "pitch": 49, "duration": 34, "velocity": 79}, {"time": 2300, "pitch": 64, "duration": 11, "velocity": 67}, {"time": 2300, "pitch": 68, "duration": 11, "velocity": 67}, {"time": 2300, "pitch": 73, "duration": 11, "velocity": 64}, {"time": 2306, "pitch": 56, "duration": 26, "velocity": 64}, {"time": 2312, "pitch": 64, "duration": 11, "velocity": 71}, {"time": 2312, "pitch": 68, "duration": 11, "velocity": 83}, {"time": 2312, "pitch": 73, "duration": 10, "velocity": 79}, {"time": 2318, "pitch": 61, "duration": 13, "velocity": 51}, {"time": 2324, "pitch": 64, "duration": 7, "velocity": 68}, {"time": 2324, "pitch": 68, "duration": 7, "velocity": 85}, {"time": 2324, "pitch": 73, "duration": 7, "velocity": 77}, {"time": 2336, "pitch": 47, "duration": 7, "velocity": 77}, {"time": 2336, "pitch": 63, "duration": 6, "velocity": 83}, {"time": 2336, "pitch": 66, "duration": 7, "velocity": 90}, {"time": 2345, "pitch": 61, "duration": 1, "velocity": 11}, {"time": 2348, "pitch": 45, "duration": 42, "velocity": 86}, {"time": 2348, "pitch": 61, "duration": 11, "velocity": 70}, {"time": 2348, "pitch": 64, "duration": 11, "velocity": 87}, {"time": 2348, "pitch": 69, "duration": 11, "velocity": 87}, {"time": 2354, "pitch": 52, "duration": 34, "velocity": 69}, {"time": 2360, "pitch": 61, "duration": 11, "velocity": 68}, {"time": 2360, "pitch": 64, "duration": 10, "velocity": 74}, {"time": 2360, "pitch": 69, "duration": 10, "velocity": 71}, {"time": 2366, "pitch": 57, "duration": 10, "velocity": 52}, {"time": 2372, "pitch": 61, "duration": 11, "velocity": 69}, {"time": 2372, "pitch": 64, "duration": 11, "velocity": 79}, {"time": 2372, "pitch": 69, "duration": 10, "velocity": 83}, {"time": 2378, "pitch": 57, "duration": 8, "velocity": 58}, {"time": 2384, "pitch": 61, "duration": 5, "velocity": 74}, {"time": 2384, "pitch": 64, "duration": 5, "velocity": 83}, {"time": 2384, "pitch": 69, "duration": 5, "velocity": 86}, {"time": 2396, "pitch": 42, "duration": 18, "velocity": 86}, {"time": 2396, "pitch": 57, "duration": 10, "velocity": 71}, {"time": 2396, "pitch": 61, "duration": 10, "velocity": 74}, {"time": 2396, "pitch": 66, "duration": 10, "velocity": 74}, {"time": 2402, "pitch": 49, "duration": 12, "velocity": 61}, {"time": 2408, "pitch": 57, "duration": 6, "velocity": 81}, {"time": 2408, "pitch": 61, "duration": 6, "velocity": 83}, {"time": 2408, "pitch": 66, "duration": 6, "velocity": 79}, {"time": 2414, "pitch": 54, "duration": 5, "velocity": 60}, {"time": 2420, "pitch": 47, "duration": 18, "velocity": 77}, {"time": 2420, "pitch": 63, "duration": 11, "velocity": 83}, {"time": 2420, "pitch": 66, "duration": 11, "velocity": 85}, {"time": 2420, "pitch": 71, "duration": 11, "velocity": 90}, {"time": 2426, "pitch": 54, "duration": 12, "velocity": 74}, {"time": 2432, "pitch": 63, "duration": 6, "velocity": 76}, {"time": 2432, "pitch": 66, "duration": 7, "velocity": 83}, {"time": 2432, "pitch": 71, "duration": 6, "velocity": 81}, {"time": 2438, "pitch": 59, "duration": 6, "velocity": 59}, {"time": 2444, "pitch": 52, "duration": 40, "velocity": 68}, {"time": 2444, "pitch": 59, "duration": 40, "velocity": 71}, {"time": 2444, "pitch": 64, "duration": 8, "velocity": 58}, {"time": 2444, "pitch": 69, "duration": 10, "velocity": 67}, {"time": 2444, "pitch": 76, "duration": 8, "velocity": 65}, {"time": 2456, "pitch": 64, "duration": 4, "velocity": 9}, {"time": 2456, "pitch": 69, "duration": 9, "velocity": 86}, {"time": 2456, "pitch": 76, "duration": 8, "velocity": 73}, {"time": 2462, "pitch": 64, "duration": 22, "velocity": 58}, {"time": 2468, "pitch": 68, "duration": 14, "velocity": 76}, {"time": 2492, "pitch": 45, "duration": 29, "velocity": 74}, {"time": 2492, "pitch": 69, "duration": 19, "velocity": 79}, {"time": 2498, "pitch": 52, "duration": 25, "velocity": 63}, {"time": 2507, "pitch": 57, "duration": 15, "velocity": 63}, {"time": 2510, "pitch": 61, "duration": 3, "velocity": 58}, {"time": 2513, "pitch": 64, "duration": 2, "velocity": 64}, {"time": 2515, "pitch": 69, "duration": 13, "velocity": 73}, {"time": 2516, "pitch": 47, "duration": 28, "velocity": 73}, {"time": 2529, "pitch": 68, "duration": 15, "velocity": 76}, {"time": 2541, "pitch": 64, "duration": 16, "velocity": 79}, {"time": 2541, "pitch": 48, "duration": 15, "velocity": 62}, {"time": 2542, "pitch": 60, "duration": 13, "velocity": 63}, {"time": 2542, "pitch": 55, "duration": 13, "velocity": 65}, {"time": 2556, "pitch": 57, "duration": 9, "velocity": 57}, {"time": 2560, "pitch": 61, "duration": 4, "velocity": 72}, {"time": 2563, "pitch": 64, "duration": 4, "velocity": 76}, {"time": 2569, "pitch": 38, "duration": 24, "velocity": 64}, {"time": 2569, "pitch": 50, "duration": 24, "velocity": 61}, {"time": 2569, "pitch": 66, "duration": 21, "velocity": 81}, {"time": 2584, "pitch": 64, "duration": 14, "velocity": 65}, {"time": 2598, "pitch": 59, "duration": 10, "velocity": 64}, {"time": 2602, "pitch": 40, "duration": 27, "velocity": 59}, {"time": 2608, "pitch": 47, "duration": 20, "velocity": 59}, {"time": 2609, "pitch": 57, "duration": 11, "velocity": 63}, {"time": 2612, "pitch": 56, "duration": 24, "velocity": 39}, {"time": 2612, "pitch": 52, "duration": 16, "velocity": 53}, {"time": 2621, "pitch": 52, "duration": 7, "velocity": 58}, {"time": 2624, "pitch": 59, "duration": 59, "velocity": 60}, {"time": 2628, "pitch": 64, "duration": 10, "velocity": 47}, {"time": 2632, "pitch": 68, "duration": 3, "velocity": 37}, {"time": 2633, "pitch": 71, "duration": 6, "velocity": 61}, {"time": 2635, "pitch": 76, "duration": 47, "velocity": 63}], "annotations": [{"time": 8, "annotation": {"number": 64, "value": 80}, "group": "control_change"}, {"time": 32, "annotation": {"number": 64, "value": 79}, "group": "control_change"}]}]}