{"metadata": {"schema_version": "0.2", "title": "None", "source_filename": "046.mid", "source_format": "midi"}, "resolution": 12, "tempos": [{"time": 0, "qpm": 90.0002250005625}], "time_signatures": [{"time": 0, "numerator": 1, "denominator": 4}], "tracks": [{"program": 0, "is_drum": false, "name": "MELODY", "notes": [{"time": 361, "pitch": 70, "duration": 9, "velocity": 107}, {"time": 370, "pitch": 69, "duration": 10, "velocity": 86}, {"time": 379, "pitch": 62, "duration": 36, "velocity": 86}, {"time": 415, "pitch": 70, "duration": 7, "velocity": 85}, {"time": 421, "pitch": 69, "duration": 6, "velocity": 88}, {"time": 427, "pitch": 70, "duration": 6, "velocity": 92}, {"time": 433, "pitch": 72, "duration": 6, "velocity": 96}, {"time": 439, "pitch": 70, "duration": 6, "velocity": 85}, {"time": 445, "pitch": 69, "duration": 7, "velocity": 66}, {"time": 451, "pitch": 70, "duration": 6, "velocity": 107}, {"time": 457, "pitch": 69, "duration": 10, "velocity": 100}, {"time": 466, "pitch": 65, "duration": 12, "velocity": 89}, {"time": 478, "pitch": 62, "duration": 75, "velocity": 81}, {"time": 553, "pitch": 70, "duration": 9, "velocity": 117}, {"time": 562, "pitch": 69, "duration": 9, "velocity": 78}, {"time": 571, "pitch": 62, "duration": 36, "velocity": 72}, {"time": 607, "pitch": 70, "duration": 6, "velocity": 99}, {"time": 613, "pitch": 69, "duration": 6, "velocity": 88}, {"time": 619, "pitch": 70, "duration": 6, "velocity": 102}, {"time": 625, "pitch": 72, "duration": 6, "velocity": 95}, {"time": 631, "pitch": 70, "duration": 7, "velocity": 99}, {"time": 637, "pitch": 69, "duration": 6, "velocity": 88}, {"time": 643, "pitch": 70, "duration": 6, "velocity": 93}, {"time": 649, "pitch": 69, "duration": 12, "velocity": 100}, {"time": 661, "pitch": 67, "duration": 6, "velocity": 96}, {"time": 667, "pitch": 62, "duration": 78, "velocity": 97}, {"time": 745, "pitch": 70, "duration": 18, "velocity": 107}, {"time": 763, "pitch": 67, "duration": 12, "velocity": 96}, {"time": 775, "pitch": 74, "duration": 18, "velocity": 99}, {"time": 793, "pitch": 72, "duration": 36, "velocity": 102}, {"time": 829, "pitch": 69, "duration": 6, "velocity": 112}, {"time": 835, "pitch": 69, "duration": 6, "velocity": 95}, {"time": 841, "pitch": 69, "duration": 12, "velocity": 102}, {"time": 853, "pitch": 65, "duration": 6, "velocity": 93}, {"time": 859, "pitch": 65, "duration": 12, "velocity": 97}, {"time": 871, "pitch": 72, "duration": 12, "velocity": 93}, {"time": 883, "pitch": 70, "duration": 48, "velocity": 100}, {"time": 931, "pitch": 69, "duration": 6, "velocity": 102}, {"time": 937, "pitch": 70, "duration": 12, "velocity": 112}, {"time": 949, "pitch": 70, "duration": 6, "velocity": 127}, {"time": 955, "pitch": 67, "duration": 12, "velocity": 102}, {"time": 967, "pitch": 74, "duration": 12, "velocity": 100}, {"time": 979, "pitch": 72, "duration": 24, "velocity": 96}, {"time": 1003, "pitch": 70, "duration": 6, "velocity": 95}, {"time": 1009, "pitch": 70, "duration": 9, "velocity": 112}, {"time": 1018, "pitch": 67, "duration": 9, "velocity": 100}, {"time": 1027, "pitch": 74, "duration": 12, "velocity": 102}, {"time": 1039, "pitch": 72, "duration": 60, "velocity": 112}, {"time": 1099, "pitch": 74, "duration": 6, "velocity": 97}, {"time": 1105, "pitch": 73, "duration": 9, "velocity": 117}, {"time": 1114, "pitch": 74, "duration": 9, "velocity": 112}, {"time": 1123, "pitch": 79, "duration": 33, "velocity": 122}, {"time": 1156, "pitch": 79, "duration": 9, "velocity": 117}, {"time": 1165, "pitch": 77, "duration": 6, "velocity": 102}, {"time": 1171, "pitch": 74, "duration": 12, "velocity": 102}, {"time": 1183, "pitch": 72, "duration": 15, "velocity": 102}, {"time": 1195, "pitch": 72, "duration": 3, "velocity": 97}, {"time": 1201, "pitch": 72, "duration": 6, "velocity": 97}, {"time": 1207, "pitch": 70, "duration": 6, "velocity": 99}, {"time": 1213, "pitch": 72, "duration": 6, "velocity": 122}, {"time": 1219, "pitch": 77, "duration": 36, "velocity": 122}, {"time": 1255, "pitch": 74, "duration": 6, "velocity": 102}, {"time": 1261, "pitch": 74, "duration": 6, "velocity": 102}, {"time": 1267, "pitch": 72, "duration": 6, "velocity": 82}, {"time": 1273, "pitch": 70, "duration": 6, "velocity": 92}, {"time": 1279, "pitch": 74, "duration": 54, "velocity": 99}, {"time": 1333, "pitch": 74, "duration": 6, "velocity": 107}, {"time": 1339, "pitch": 67, "duration": 6, "velocity": 92}, {"time": 1345, "pitch": 69, "duration": 6, "velocity": 117}, {"time": 1351, "pitch": 70, "duration": 12, "velocity": 117}, {"time": 1363, "pitch": 72, "duration": 15, "velocity": 112}, {"time": 1375, "pitch": 65, "duration": 6, "velocity": 96}, {"time": 1381, "pitch": 65, "duration": 6, "velocity": 112}, {"time": 1387, "pitch": 65, "duration": 6, "velocity": 102}, {"time": 1393, "pitch": 72, "duration": 6, "velocity": 122}, {"time": 1399, "pitch": 75, "duration": 12, "velocity": 127}, {"time": 1411, "pitch": 74, "duration": 72, "velocity": 127}, {"time": 1483, "pitch": 74, "duration": 6, "velocity": 93}, {"time": 1489, "pitch": 73, "duration": 10, "velocity": 127}, {"time": 1498, "pitch": 74, "duration": 9, "velocity": 107}, {"time": 1507, "pitch": 79, "duration": 27, "velocity": 117}, {"time": 1531, "pitch": 79, "duration": 3, "velocity": 102}, {"time": 1537, "pitch": 79, "duration": 12, "velocity": 127}, {"time": 1549, "pitch": 77, "duration": 6, "velocity": 127}, {"time": 1555, "pitch": 74, "duration": 12, "velocity": 127}, {"time": 1567, "pitch": 72, "duration": 12, "velocity": 127}, {"time": 1579, "pitch": 72, "duration": 6, "velocity": 122}, {"time": 1585, "pitch": 72, "duration": 6, "velocity": 112}, {"time": 1591, "pitch": 70, "duration": 6, "velocity": 99}, {"time": 1597, "pitch": 72, "duration": 6, "velocity": 112}, {"time": 1603, "pitch": 77, "duration": 36, "velocity": 122}, {"time": 1639, "pitch": 74, "duration": 6, "velocity": 122}, {"time": 1645, "pitch": 74, "duration": 6, "velocity": 97}, {"time": 1651, "pitch": 72, "duration": 6, "velocity": 99}, {"time": 1657, "pitch": 70, "duration": 6, "velocity": 92}, {"time": 1663, "pitch": 74, "duration": 54, "velocity": 117}, {"time": 1717, "pitch": 75, "duration": 6, "velocity": 112}, {"time": 1723, "pitch": 67, "duration": 6, "velocity": 93}, {"time": 1729, "pitch": 69, "duration": 7, "velocity": 97}, {"time": 1735, "pitch": 70, "duration": 12, "velocity": 107}, {"time": 1747, "pitch": 72, "duration": 19, "velocity": 127}, {"time": 1765, "pitch": 65, "duration": 6, "velocity": 99}, {"time": 1771, "pitch": 65, "duration": 6, "velocity": 100}, {"time": 1777, "pitch": 74, "duration": 15, "velocity": 122}, {"time": 1792, "pitch": 72, "duration": 9, "velocity": 102}, {"time": 1801, "pitch": 70, "duration": 66, "velocity": 112}, {"time": 1867, "pitch": 74, "duration": 6, "velocity": 97}, {"time": 1873, "pitch": 73, "duration": 9, "velocity": 117}, {"time": 1882, "pitch": 74, "duration": 9, "velocity": 112}, {"time": 1891, "pitch": 79, "duration": 36, "velocity": 122}, {"time": 1927, "pitch": 79, "duration": 6, "velocity": 117}, {"time": 1933, "pitch": 77, "duration": 6, "velocity": 102}, {"time": 1939, "pitch": 74, "duration": 12, "velocity": 102}, {"time": 1951, "pitch": 72, "duration": 12, "velocity": 102}, {"time": 1963, "pitch": 72, "duration": 6, "velocity": 97}, {"time": 1969, "pitch": 72, "duration": 6, "velocity": 97}, {"time": 1975, "pitch": 70, "duration": 6, "velocity": 99}, {"time": 1981, "pitch": 72, "duration": 6, "velocity": 122}, {"time": 1987, "pitch": 77, "duration": 36, "velocity": 122}, {"time": 2023, "pitch": 74, "duration": 6, "velocity": 102}, {"time": 2029, "pitch": 74, "duration": 6, "velocity": 102}, {"time": 2035, "pitch": 72, "duration": 6, "velocity": 82}, {"time": 2041, "pitch": 70, "duration": 6, "velocity": 92}, {"time": 2047, "pitch": 74, "duration": 54, "velocity": 99}, {"time": 2101, "pitch": 74, "duration": 6, "velocity": 107}, {"time": 2107, "pitch": 67, "duration": 6, "velocity": 92}, {"time": 2113, "pitch": 69, "duration": 6, "velocity": 117}, {"time": 2119, "pitch": 70, "duration": 12, "velocity": 117}, {"time": 2131, "pitch": 72, "duration": 15, "velocity": 112}, {"time": 2143, "pitch": 65, "duration": 6, "velocity": 96}, {"time": 2149, "pitch": 65, "duration": 6, "velocity": 112}, {"time": 2155, "pitch": 65, "duration": 6, "velocity": 102}, {"time": 2161, "pitch": 72, "duration": 12, "velocity": 122}, {"time": 2173, "pitch": 74, "duration": 6, "velocity": 127}, {"time": 2179, "pitch": 75, "duration": 12, "velocity": 127}, {"time": 2191, "pitch": 74, "duration": 60, "velocity": 127}, {"time": 2251, "pitch": 74, "duration": 6, "velocity": 93}, {"time": 2257, "pitch": 73, "duration": 10, "velocity": 127}, {"time": 2266, "pitch": 74, "duration": 9, "velocity": 107}, {"time": 2275, "pitch": 79, "duration": 27, "velocity": 117}, {"time": 2299, "pitch": 79, "duration": 3, "velocity": 102}, {"time": 2305, "pitch": 79, "duration": 12, "velocity": 127}, {"time": 2317, "pitch": 77, "duration": 6, "velocity": 127}, {"time": 2323, "pitch": 74, "duration": 12, "velocity": 127}, {"time": 2335, "pitch": 72, "duration": 12, "velocity": 127}, {"time": 2347, "pitch": 72, "duration": 6, "velocity": 122}, {"time": 2353, "pitch": 72, "duration": 6, "velocity": 112}, {"time": 2359, "pitch": 70, "duration": 6, "velocity": 117}, {"time": 2365, "pitch": 72, "duration": 6, "velocity": 112}, {"time": 2371, "pitch": 77, "duration": 36, "velocity": 122}, {"time": 2407, "pitch": 74, "duration": 6, "velocity": 122}, {"time": 2413, "pitch": 74, "duration": 6, "velocity": 97}, {"time": 2419, "pitch": 72, "duration": 6, "velocity": 99}, {"time": 2425, "pitch": 70, "duration": 6, "velocity": 92}, {"time": 2431, "pitch": 74, "duration": 54, "velocity": 117}, {"time": 2485, "pitch": 75, "duration": 6, "velocity": 112}, {"time": 2491, "pitch": 67, "duration": 6, "velocity": 93}, {"time": 2497, "pitch": 69, "duration": 7, "velocity": 97}, {"time": 2503, "pitch": 70, "duration": 12, "velocity": 107}, {"time": 2515, "pitch": 72, "duration": 19, "velocity": 127}, {"time": 2533, "pitch": 65, "duration": 6, "velocity": 99}, {"time": 2539, "pitch": 65, "duration": 6, "velocity": 100}, {"time": 2545, "pitch": 74, "duration": 15, "velocity": 122}, {"time": 2560, "pitch": 72, "duration": 9, "velocity": 102}, {"time": 2569, "pitch": 70, "duration": 61, "velocity": 112}, {"time": 3001, "pitch": 70, "duration": 9, "velocity": 107}, {"time": 3010, "pitch": 69, "duration": 10, "velocity": 86}, {"time": 3019, "pitch": 62, "duration": 36, "velocity": 86}, {"time": 3055, "pitch": 70, "duration": 7, "velocity": 85}, {"time": 3061, "pitch": 69, "duration": 6, "velocity": 88}, {"time": 3067, "pitch": 70, "duration": 6, "velocity": 92}, {"time": 3073, "pitch": 72, "duration": 6, "velocity": 96}, {"time": 3079, "pitch": 70, "duration": 6, "velocity": 85}, {"time": 3085, "pitch": 69, "duration": 7, "velocity": 66}, {"time": 3091, "pitch": 70, "duration": 6, "velocity": 107}, {"time": 3097, "pitch": 69, "duration": 10, "velocity": 100}, {"time": 3106, "pitch": 65, "duration": 12, "velocity": 89}, {"time": 3118, "pitch": 62, "duration": 75, "velocity": 81}, {"time": 3193, "pitch": 70, "duration": 9, "velocity": 117}, {"time": 3202, "pitch": 69, "duration": 9, "velocity": 78}, {"time": 3211, "pitch": 62, "duration": 36, "velocity": 72}, {"time": 3247, "pitch": 70, "duration": 6, "velocity": 99}, {"time": 3253, "pitch": 69, "duration": 6, "velocity": 88}, {"time": 3259, "pitch": 70, "duration": 6, "velocity": 102}, {"time": 3265, "pitch": 72, "duration": 6, "velocity": 95}, {"time": 3271, "pitch": 70, "duration": 7, "velocity": 99}, {"time": 3277, "pitch": 69, "duration": 6, "velocity": 88}, {"time": 3283, "pitch": 70, "duration": 6, "velocity": 93}, {"time": 3289, "pitch": 69, "duration": 12, "velocity": 100}, {"time": 3301, "pitch": 67, "duration": 6, "velocity": 96}, {"time": 3307, "pitch": 62, "duration": 78, "velocity": 97}, {"time": 3385, "pitch": 70, "duration": 18, "velocity": 107}, {"time": 3403, "pitch": 67, "duration": 12, "velocity": 96}, {"time": 3415, "pitch": 74, "duration": 18, "velocity": 99}, {"time": 3433, "pitch": 72, "duration": 36, "velocity": 102}, {"time": 3469, "pitch": 69, "duration": 6, "velocity": 112}, {"time": 3475, "pitch": 69, "duration": 6, "velocity": 95}, {"time": 3481, "pitch": 69, "duration": 12, "velocity": 102}, {"time": 3493, "pitch": 65, "duration": 6, "velocity": 93}, {"time": 3499, "pitch": 65, "duration": 12, "velocity": 97}, {"time": 3511, "pitch": 72, "duration": 12, "velocity": 93}, {"time": 3523, "pitch": 70, "duration": 48, "velocity": 100}, {"time": 3571, "pitch": 69, "duration": 6, "velocity": 102}, {"time": 3577, "pitch": 70, "duration": 12, "velocity": 112}, {"time": 3589, "pitch": 70, "duration": 6, "velocity": 127}, {"time": 3595, "pitch": 67, "duration": 12, "velocity": 102}, {"time": 3607, "pitch": 74, "duration": 12, "velocity": 100}, {"time": 3619, "pitch": 72, "duration": 24, "velocity": 96}, {"time": 3643, "pitch": 70, "duration": 6, "velocity": 95}, {"time": 3649, "pitch": 70, "duration": 9, "velocity": 112}, {"time": 3658, "pitch": 67, "duration": 9, "velocity": 100}, {"time": 3667, "pitch": 74, "duration": 12, "velocity": 102}, {"time": 3679, "pitch": 72, "duration": 60, "velocity": 112}, {"time": 3739, "pitch": 74, "duration": 6, "velocity": 97}, {"time": 3745, "pitch": 73, "duration": 9, "velocity": 117}, {"time": 3754, "pitch": 74, "duration": 9, "velocity": 112}, {"time": 3763, "pitch": 79, "duration": 33, "velocity": 122}, {"time": 3796, "pitch": 79, "duration": 9, "velocity": 117}, {"time": 3805, "pitch": 77, "duration": 6, "velocity": 102}, {"time": 3811, "pitch": 74, "duration": 12, "velocity": 102}, {"time": 3823, "pitch": 72, "duration": 15, "velocity": 102}, {"time": 3835, "pitch": 72, "duration": 3, "velocity": 97}, {"time": 3841, "pitch": 72, "duration": 6, "velocity": 97}, {"time": 3847, "pitch": 70, "duration": 6, "velocity": 99}, {"time": 3853, "pitch": 72, "duration": 6, "velocity": 122}, {"time": 3859, "pitch": 77, "duration": 36, "velocity": 122}, {"time": 3895, "pitch": 74, "duration": 6, "velocity": 102}, {"time": 3901, "pitch": 74, "duration": 6, "velocity": 102}, {"time": 3907, "pitch": 72, "duration": 6, "velocity": 82}, {"time": 3913, "pitch": 70, "duration": 6, "velocity": 92}, {"time": 3919, "pitch": 74, "duration": 54, "velocity": 99}, {"time": 3973, "pitch": 74, "duration": 6, "velocity": 107}, {"time": 3979, "pitch": 67, "duration": 6, "velocity": 92}, {"time": 3985, "pitch": 69, "duration": 6, "velocity": 117}, {"time": 3991, "pitch": 70, "duration": 12, "velocity": 117}, {"time": 4003, "pitch": 72, "duration": 15, "velocity": 112}, {"time": 4015, "pitch": 65, "duration": 6, "velocity": 96}, {"time": 4021, "pitch": 65, "duration": 6, "velocity": 112}, {"time": 4027, "pitch": 65, "duration": 6, "velocity": 102}, {"time": 4033, "pitch": 72, "duration": 6, "velocity": 122}, {"time": 4039, "pitch": 75, "duration": 12, "velocity": 127}, {"time": 4051, "pitch": 74, "duration": 72, "velocity": 127}, {"time": 4123, "pitch": 74, "duration": 6, "velocity": 93}, {"time": 4129, "pitch": 73, "duration": 10, "velocity": 127}, {"time": 4138, "pitch": 74, "duration": 9, "velocity": 107}, {"time": 4147, "pitch": 79, "duration": 27, "velocity": 117}, {"time": 4171, "pitch": 79, "duration": 3, "velocity": 102}, {"time": 4177, "pitch": 79, "duration": 12, "velocity": 127}, {"time": 4189, "pitch": 77, "duration": 6, "velocity": 127}, {"time": 4195, "pitch": 74, "duration": 12, "velocity": 127}, {"time": 4207, "pitch": 72, "duration": 12, "velocity": 127}, {"time": 4219, "pitch": 72, "duration": 6, "velocity": 122}, {"time": 4225, "pitch": 72, "duration": 6, "velocity": 112}, {"time": 4231, "pitch": 70, "duration": 6, "velocity": 99}, {"time": 4237, "pitch": 72, "duration": 6, "velocity": 112}, {"time": 4243, "pitch": 77, "duration": 36, "velocity": 122}, {"time": 4279, "pitch": 74, "duration": 6, "velocity": 122}, {"time": 4285, "pitch": 74, "duration": 6, "velocity": 97}, {"time": 4291, "pitch": 72, "duration": 6, "velocity": 99}, {"time": 4297, "pitch": 70, "duration": 6, "velocity": 92}, {"time": 4303, "pitch": 74, "duration": 54, "velocity": 117}, {"time": 4357, "pitch": 75, "duration": 6, "velocity": 112}, {"time": 4363, "pitch": 67, "duration": 6, "velocity": 93}, {"time": 4369, "pitch": 69, "duration": 7, "velocity": 97}, {"time": 4375, "pitch": 70, "duration": 12, "velocity": 107}, {"time": 4387, "pitch": 72, "duration": 19, "velocity": 127}, {"time": 4405, "pitch": 65, "duration": 6, "velocity": 99}, {"time": 4411, "pitch": 65, "duration": 6, "velocity": 100}, {"time": 4417, "pitch": 74, "duration": 15, "velocity": 122}, {"time": 4432, "pitch": 72, "duration": 9, "velocity": 102}, {"time": 4441, "pitch": 70, "duration": 66, "velocity": 112}, {"time": 4507, "pitch": 74, "duration": 6, "velocity": 97}, {"time": 4513, "pitch": 73, "duration": 9, "velocity": 117}, {"time": 4522, "pitch": 74, "duration": 9, "velocity": 112}, {"time": 4531, "pitch": 79, "duration": 36, "velocity": 122}, {"time": 4567, "pitch": 79, "duration": 6, "velocity": 117}, {"time": 4573, "pitch": 77, "duration": 6, "velocity": 102}, {"time": 4579, "pitch": 74, "duration": 12, "velocity": 102}, {"time": 4591, "pitch": 72, "duration": 12, "velocity": 102}, {"time": 4603, "pitch": 72, "duration": 6, "velocity": 97}, {"time": 4609, "pitch": 72, "duration": 6, "velocity": 97}, {"time": 4615, "pitch": 70, "duration": 6, "velocity": 99}, {"time": 4621, "pitch": 72, "duration": 6, "velocity": 122}, {"time": 4627, "pitch": 77, "duration": 36, "velocity": 122}, {"time": 4663, "pitch": 74, "duration": 6, "velocity": 102}, {"time": 4669, "pitch": 74, "duration": 6, "velocity": 102}, {"time": 4675, "pitch": 72, "duration": 6, "velocity": 82}, {"time": 4681, "pitch": 70, "duration": 6, "velocity": 92}, {"time": 4687, "pitch": 74, "duration": 54, "velocity": 99}, {"time": 4741, "pitch": 74, "duration": 6, "velocity": 107}, {"time": 4747, "pitch": 67, "duration": 6, "velocity": 92}, {"time": 4753, "pitch": 69, "duration": 6, "velocity": 117}, {"time": 4759, "pitch": 70, "duration": 12, "velocity": 117}, {"time": 4771, "pitch": 72, "duration": 15, "velocity": 112}, {"time": 4783, "pitch": 65, "duration": 6, "velocity": 96}, {"time": 4789, "pitch": 65, "duration": 6, "velocity": 112}, {"time": 4795, "pitch": 65, "duration": 6, "velocity": 102}, {"time": 4801, "pitch": 72, "duration": 12, "velocity": 122}, {"time": 4813, "pitch": 74, "duration": 6, "velocity": 127}, {"time": 4819, "pitch": 75, "duration": 12, "velocity": 127}, {"time": 4831, "pitch": 74, "duration": 60, "velocity": 127}, {"time": 4891, "pitch": 74, "duration": 6, "velocity": 93}, {"time": 4897, "pitch": 73, "duration": 10, "velocity": 127}, {"time": 4906, "pitch": 74, "duration": 9, "velocity": 107}, {"time": 4915, "pitch": 79, "duration": 27, "velocity": 117}, {"time": 4939, "pitch": 79, "duration": 3, "velocity": 102}, {"time": 4945, "pitch": 79, "duration": 12, "velocity": 127}, {"time": 4957, "pitch": 77, "duration": 6, "velocity": 127}, {"time": 4963, "pitch": 74, "duration": 12, "velocity": 127}, {"time": 4975, "pitch": 72, "duration": 12, "velocity": 127}, {"time": 4987, "pitch": 72, "duration": 6, "velocity": 122}, {"time": 4993, "pitch": 72, "duration": 6, "velocity": 112}, {"time": 4999, "pitch": 70, "duration": 6, "velocity": 117}, {"time": 5005, "pitch": 72, "duration": 6, "velocity": 112}, {"time": 5011, "pitch": 77, "duration": 36, "velocity": 122}, {"time": 5047, "pitch": 74, "duration": 6, "velocity": 122}, {"time": 5053, "pitch": 74, "duration": 6, "velocity": 97}, {"time": 5059, "pitch": 72, "duration": 6, "velocity": 99}, {"time": 5065, "pitch": 70, "duration": 6, "velocity": 92}, {"time": 5071, "pitch": 74, "duration": 48, "velocity": 117}, {"time": 5119, "pitch": 75, "duration": 6, "velocity": 100}, {"time": 5125, "pitch": 75, "duration": 6, "velocity": 112}, {"time": 5131, "pitch": 67, "duration": 6, "velocity": 93}, {"time": 5137, "pitch": 69, "duration": 7, "velocity": 97}, {"time": 5143, "pitch": 70, "duration": 12, "velocity": 107}, {"time": 5155, "pitch": 72, "duration": 30, "velocity": 127}, {"time": 5185, "pitch": 74, "duration": 18, "velocity": 96}, {"time": 5203, "pitch": 65, "duration": 6, "velocity": 86}, {"time": 5209, "pitch": 72, "duration": 8, "velocity": 95}, {"time": 5215, "pitch": 70, "duration": 55, "velocity": 90}]}, {"program": 0, "is_drum": false, "name": "BRIDGE", "notes": [{"time": 7, "pitch": 46, "duration": 97, "velocity": 72}, {"time": 9, "pitch": 65, "duration": 91, "velocity": 48}, {"time": 10, "pitch": 58, "duration": 90, "velocity": 35}, {"time": 10, "pitch": 70, "duration": 90, "velocity": 62}, {"time": 12, "pitch": 74, "duration": 88, "velocity": 56}, {"time": 13, "pitch": 77, "duration": 87, "velocity": 74}, {"time": 78, "pitch": 53, "duration": 20, "velocity": 65}, {"time": 100, "pitch": 67, "duration": 66, "velocity": 66}, {"time": 101, "pitch": 70, "duration": 58, "velocity": 67}, {"time": 102, "pitch": 43, "duration": 86, "velocity": 66}, {"time": 102, "pitch": 74, "duration": 66, "velocity": 70}, {"time": 103, "pitch": 77, "duration": 66, "velocity": 90}, {"time": 127, "pitch": 57, "duration": 7, "velocity": 78}, {"time": 133, "pitch": 58, "duration": 9, "velocity": 78}, {"time": 139, "pitch": 62, "duration": 6, "velocity": 88}, {"time": 145, "pitch": 69, "duration": 10, "velocity": 81}, {"time": 150, "pitch": 70, "duration": 9, "velocity": 99}, {"time": 156, "pitch": 82, "duration": 12, "velocity": 96}, {"time": 167, "pitch": 89, "duration": 63, "velocity": 86}, {"time": 233, "pitch": 58, "duration": 45, "velocity": 74}, {"time": 233, "pitch": 63, "duration": 46, "velocity": 70}, {"time": 233, "pitch": 42, "duration": 119, "velocity": 73}, {"time": 272, "pitch": 79, "duration": 3, "velocity": 69}, {"time": 274, "pitch": 82, "duration": 3, "velocity": 93}, {"time": 277, "pitch": 89, "duration": 84, "velocity": 76}, {"time": 394, "pitch": 77, "duration": 11, "velocity": 81}, {"time": 403, "pitch": 89, "duration": 30, "velocity": 92}, {"time": 469, "pitch": 77, "duration": 5, "velocity": 100}, {"time": 474, "pitch": 84, "duration": 11, "velocity": 112}, {"time": 486, "pitch": 77, "duration": 7, "velocity": 95}, {"time": 492, "pitch": 72, "duration": 6, "velocity": 67}, {"time": 498, "pitch": 65, "duration": 44, "velocity": 74}, {"time": 691, "pitch": 89, "duration": 5, "velocity": 117}, {"time": 697, "pitch": 84, "duration": 33, "velocity": 77}, {"time": 715, "pitch": 77, "duration": 5, "velocity": 86}, {"time": 721, "pitch": 72, "duration": 24, "velocity": 78}, {"time": 793, "pitch": 57, "duration": 24, "velocity": 90}, {"time": 817, "pitch": 58, "duration": 38, "velocity": 77}, {"time": 1675, "pitch": 70, "duration": 5, "velocity": 95}, {"time": 1681, "pitch": 77, "duration": 40, "velocity": 97}, {"time": 1819, "pitch": 70, "duration": 4, "velocity": 102}, {"time": 1825, "pitch": 70, "duration": 10, "velocity": 102}, {"time": 1837, "pitch": 77, "duration": 13, "velocity": 112}, {"time": 1849, "pitch": 70, "duration": 33, "velocity": 99}, {"time": 2065, "pitch": 74, "duration": 25, "velocity": 92}, {"time": 2449, "pitch": 77, "duration": 27, "velocity": 97}, {"time": 2581, "pitch": 89, "duration": 6, "velocity": 122}, {"time": 2587, "pitch": 82, "duration": 5, "velocity": 107}, {"time": 2593, "pitch": 84, "duration": 15, "velocity": 127}, {"time": 2605, "pitch": 82, "duration": 10, "velocity": 127}, {"time": 2617, "pitch": 74, "duration": 18, "velocity": 97}, {"time": 2617, "pitch": 77, "duration": 18, "velocity": 117}, {"time": 2629, "pitch": 86, "duration": 11, "velocity": 127}, {"time": 2641, "pitch": 81, "duration": 24, "velocity": 117}, {"time": 2677, "pitch": 89, "duration": 11, "velocity": 127}, {"time": 2689, "pitch": 84, "duration": 24, "velocity": 117}, {"time": 2725, "pitch": 86, "duration": 12, "velocity": 127}, {"time": 2737, "pitch": 81, "duration": 25, "velocity": 112}, {"time": 2761, "pitch": 58, "duration": 8, "velocity": 107}, {"time": 2761, "pitch": 62, "duration": 8, "velocity": 96}, {"time": 2770, "pitch": 57, "duration": 9, "velocity": 76}, {"time": 2770, "pitch": 60, "duration": 8, "velocity": 75}, {"time": 2779, "pitch": 58, "duration": 27, "velocity": 107}, {"time": 2779, "pitch": 62, "duration": 27, "velocity": 74}, {"time": 2809, "pitch": 58, "duration": 7, "velocity": 107}, {"time": 2809, "pitch": 62, "duration": 7, "velocity": 83}, {"time": 2818, "pitch": 57, "duration": 9, "velocity": 74}, {"time": 2818, "pitch": 60, "duration": 8, "velocity": 72}, {"time": 2827, "pitch": 58, "duration": 27, "velocity": 92}, {"time": 2827, "pitch": 62, "duration": 24, "velocity": 72}, {"time": 2845, "pitch": 70, "duration": 4, "velocity": 127}, {"time": 2848, "pitch": 62, "duration": 3, "velocity": 99}, {"time": 2851, "pitch": 65, "duration": 3, "velocity": 100}, {"time": 2854, "pitch": 70, "duration": 39, "velocity": 117}, {"time": 2905, "pitch": 70, "duration": 16, "velocity": 127}, {"time": 2923, "pitch": 72, "duration": 26, "velocity": 127}, {"time": 2938, "pitch": 82, "duration": 3, "velocity": 67}, {"time": 2939, "pitch": 86, "duration": 2, "velocity": 47}, {"time": 2940, "pitch": 89, "duration": 5, "velocity": 112}, {"time": 2943, "pitch": 84, "duration": 2, "velocity": 99}, {"time": 2946, "pitch": 77, "duration": 14, "velocity": 92}, {"time": 2970, "pitch": 65, "duration": 5, "velocity": 92}, {"time": 2976, "pitch": 72, "duration": 14, "velocity": 99}, {"time": 2987, "pitch": 77, "duration": 15, "velocity": 117}, {"time": 3037, "pitch": 77, "duration": 11, "velocity": 81}, {"time": 3043, "pitch": 89, "duration": 29, "velocity": 92}, {"time": 3109, "pitch": 77, "duration": 5, "velocity": 100}, {"time": 3114, "pitch": 84, "duration": 11, "velocity": 112}, {"time": 3126, "pitch": 77, "duration": 7, "velocity": 95}, {"time": 3132, "pitch": 72, "duration": 6, "velocity": 67}, {"time": 3138, "pitch": 65, "duration": 44, "velocity": 74}, {"time": 3331, "pitch": 89, "duration": 5, "velocity": 117}, {"time": 3337, "pitch": 84, "duration": 33, "velocity": 77}, {"time": 3355, "pitch": 77, "duration": 5, "velocity": 86}, {"time": 3361, "pitch": 72, "duration": 24, "velocity": 78}, {"time": 3433, "pitch": 57, "duration": 24, "velocity": 90}, {"time": 3457, "pitch": 58, "duration": 38, "velocity": 77}, {"time": 4315, "pitch": 70, "duration": 5, "velocity": 95}, {"time": 4321, "pitch": 77, "duration": 40, "velocity": 97}, {"time": 4459, "pitch": 70, "duration": 4, "velocity": 102}, {"time": 4465, "pitch": 70, "duration": 10, "velocity": 102}, {"time": 4477, "pitch": 77, "duration": 13, "velocity": 112}, {"time": 4489, "pitch": 70, "duration": 33, "velocity": 99}, {"time": 4705, "pitch": 74, "duration": 25, "velocity": 92}, {"time": 4873, "pitch": 70, "duration": 11, "velocity": 127}, {"time": 4885, "pitch": 72, "duration": 11, "velocity": 122}, {"time": 4897, "pitch": 74, "duration": 24, "velocity": 127}, {"time": 4921, "pitch": 79, "duration": 42, "velocity": 127}, {"time": 5076, "pitch": 89, "duration": 5, "velocity": 102}, {"time": 5082, "pitch": 81, "duration": 6, "velocity": 117}, {"time": 5094, "pitch": 84, "duration": 5, "velocity": 122}, {"time": 5100, "pitch": 77, "duration": 12, "velocity": 99}, {"time": 5221, "pitch": 89, "duration": 11, "velocity": 122}, {"time": 5232, "pitch": 84, "duration": 34, "velocity": 97}, {"time": 5268, "pitch": 86, "duration": 12, "velocity": 117}, {"time": 5280, "pitch": 81, "duration": 37, "velocity": 95}, {"time": 5317, "pitch": 82, "duration": 11, "velocity": 122}, {"time": 5328, "pitch": 77, "duration": 51, "velocity": 89}, {"time": 5360, "pitch": 74, "duration": 75, "velocity": 63}, {"time": 5360, "pitch": 77, "duration": 19, "velocity": 74}], "annotations": [{"time": 0, "annotation": {"number": 64, "value": 127}, "group": "control_change"}, {"time": 97, "annotation": {"number": 64, "value": 0}, "group": "control_change"}, {"time": 99, "annotation": {"number": 64, "value": 127}, "group": "control_change"}, {"time": 232, "annotation": {"number": 64, "value": 127}, "group": "control_change"}, {"time": 236, "annotation": {"number": 64, "value": 0}, "group": "control_change"}]}, {"program": 0, "is_drum": false, "name": "PIANO", "notes": [{"time": 361, "pitch": 46, "duration": 43, "velocity": 89}, {"time": 361, "pitch": 70, "duration": 13, "velocity": 47}, {"time": 361, "pitch": 74, "duration": 10, "velocity": 57}, {"time": 367, "pitch": 58, "duration": 27, "velocity": 26}, {"time": 373, "pitch": 65, "duration": 7, "velocity": 42}, {"time": 379, "pitch": 70, "duration": 43, "velocity": 44}, {"time": 379, "pitch": 74, "duration": 44, "velocity": 52}, {"time": 457, "pitch": 43, "duration": 75, "velocity": 64}, {"time": 457, "pitch": 67, "duration": 3, "velocity": 51}, {"time": 457, "pitch": 70, "duration": 4, "velocity": 60}, {"time": 463, "pitch": 50, "duration": 69, "velocity": 39}, {"time": 469, "pitch": 55, "duration": 62, "velocity": 41}, {"time": 475, "pitch": 58, "duration": 52, "velocity": 55}, {"time": 475, "pitch": 62, "duration": 52, "velocity": 65}, {"time": 553, "pitch": 46, "duration": 78, "velocity": 75}, {"time": 553, "pitch": 62, "duration": 7, "velocity": 54}, {"time": 553, "pitch": 69, "duration": 11, "velocity": 68}, {"time": 553, "pitch": 70, "duration": 13, "velocity": 46}, {"time": 559, "pitch": 58, "duration": 67, "velocity": 57}, {"time": 565, "pitch": 62, "duration": 50, "velocity": 35}, {"time": 571, "pitch": 70, "duration": 45, "velocity": 48}, {"time": 613, "pitch": 65, "duration": 7, "velocity": 58}, {"time": 619, "pitch": 62, "duration": 8, "velocity": 43}, {"time": 625, "pitch": 70, "duration": 12, "velocity": 90}, {"time": 631, "pitch": 58, "duration": 1, "velocity": 32}, {"time": 649, "pitch": 43, "duration": 77, "velocity": 58}, {"time": 649, "pitch": 58, "duration": 2, "velocity": 63}, {"time": 649, "pitch": 62, "duration": 2, "velocity": 62}, {"time": 655, "pitch": 50, "duration": 69, "velocity": 32}, {"time": 661, "pitch": 55, "duration": 15, "velocity": 58}, {"time": 667, "pitch": 67, "duration": 25, "velocity": 65}, {"time": 667, "pitch": 70, "duration": 50, "velocity": 47}, {"time": 679, "pitch": 55, "duration": 16, "velocity": 66}, {"time": 685, "pitch": 62, "duration": 14, "velocity": 58}, {"time": 691, "pitch": 65, "duration": 4, "velocity": 37}, {"time": 697, "pitch": 55, "duration": 27, "velocity": 59}, {"time": 697, "pitch": 67, "duration": 20, "velocity": 16}, {"time": 727, "pitch": 67, "duration": 6, "velocity": 32}, {"time": 733, "pitch": 62, "duration": 1, "velocity": 33}, {"time": 745, "pitch": 39, "duration": 35, "velocity": 95}, {"time": 745, "pitch": 63, "duration": 4, "velocity": 49}, {"time": 745, "pitch": 67, "duration": 37, "velocity": 68}, {"time": 745, "pitch": 70, "duration": 84, "velocity": 69}, {"time": 751, "pitch": 51, "duration": 30, "velocity": 58}, {"time": 757, "pitch": 63, "duration": 20, "velocity": 56}, {"time": 763, "pitch": 75, "duration": 47, "velocity": 66}, {"time": 781, "pitch": 63, "duration": 24, "velocity": 48}, {"time": 787, "pitch": 67, "duration": 40, "velocity": 17}, {"time": 793, "pitch": 51, "duration": 32, "velocity": 29}, {"time": 793, "pitch": 55, "duration": 32, "velocity": 40}, {"time": 793, "pitch": 58, "duration": 24, "velocity": 32}, {"time": 811, "pitch": 63, "duration": 10, "velocity": 52}, {"time": 817, "pitch": 75, "duration": 12, "velocity": 95}, {"time": 823, "pitch": 58, "duration": 3, "velocity": 35}, {"time": 829, "pitch": 63, "duration": 1, "velocity": 58}, {"time": 841, "pitch": 38, "duration": 29, "velocity": 71}, {"time": 841, "pitch": 65, "duration": 13, "velocity": 73}, {"time": 841, "pitch": 69, "duration": 13, "velocity": 74}, {"time": 847, "pitch": 50, "duration": 22, "velocity": 35}, {"time": 853, "pitch": 62, "duration": 6, "velocity": 51}, {"time": 859, "pitch": 65, "duration": 24, "velocity": 67}, {"time": 859, "pitch": 69, "duration": 19, "velocity": 81}, {"time": 877, "pitch": 62, "duration": 14, "velocity": 58}, {"time": 889, "pitch": 43, "duration": 34, "velocity": 52}, {"time": 889, "pitch": 67, "duration": 2, "velocity": 59}, {"time": 889, "pitch": 70, "duration": 2, "velocity": 68}, {"time": 895, "pitch": 50, "duration": 20, "velocity": 40}, {"time": 901, "pitch": 55, "duration": 8, "velocity": 72}, {"time": 907, "pitch": 58, "duration": 7, "velocity": 63}, {"time": 913, "pitch": 62, "duration": 13, "velocity": 100}, {"time": 919, "pitch": 50, "duration": 3, "velocity": 35}, {"time": 925, "pitch": 58, "duration": 6, "velocity": 127}, {"time": 931, "pitch": 55, "duration": 4, "velocity": 57}, {"time": 937, "pitch": 39, "duration": 41, "velocity": 92}, {"time": 937, "pitch": 58, "duration": 14, "velocity": 81}, {"time": 937, "pitch": 63, "duration": 13, "velocity": 93}, {"time": 943, "pitch": 51, "duration": 33, "velocity": 58}, {"time": 949, "pitch": 55, "duration": 22, "velocity": 53}, {"time": 955, "pitch": 58, "duration": 22, "velocity": 63}, {"time": 955, "pitch": 63, "duration": 21, "velocity": 90}, {"time": 973, "pitch": 55, "duration": 5, "velocity": 38}, {"time": 985, "pitch": 39, "duration": 36, "velocity": 68}, {"time": 985, "pitch": 51, "duration": 8, "velocity": 89}, {"time": 985, "pitch": 54, "duration": 8, "velocity": 71}, {"time": 1009, "pitch": 51, "duration": 13, "velocity": 27}, {"time": 1009, "pitch": 58, "duration": 6, "velocity": 40}, {"time": 1009, "pitch": 63, "duration": 12, "velocity": 56}, {"time": 1033, "pitch": 41, "duration": 42, "velocity": 75}, {"time": 1033, "pitch": 53, "duration": 1, "velocity": 76}, {"time": 1033, "pitch": 57, "duration": 2, "velocity": 82}, {"time": 1033, "pitch": 60, "duration": 2, "velocity": 81}, {"time": 1039, "pitch": 48, "duration": 43, "velocity": 48}, {"time": 1045, "pitch": 53, "duration": 13, "velocity": 75}, {"time": 1051, "pitch": 60, "duration": 18, "velocity": 61}, {"time": 1057, "pitch": 65, "duration": 12, "velocity": 97}, {"time": 1063, "pitch": 53, "duration": 4, "velocity": 40}, {"time": 1069, "pitch": 67, "duration": 11, "velocity": 77}, {"time": 1075, "pitch": 69, "duration": 3, "velocity": 33}, {"time": 1081, "pitch": 41, "duration": 24, "velocity": 62}, {"time": 1081, "pitch": 60, "duration": 24, "velocity": 59}, {"time": 1081, "pitch": 65, "duration": 24, "velocity": 65}, {"time": 1081, "pitch": 69, "duration": 24, "velocity": 65}, {"time": 1105, "pitch": 40, "duration": 8, "velocity": 86}, {"time": 1105, "pitch": 64, "duration": 9, "velocity": 71}, {"time": 1105, "pitch": 67, "duration": 9, "velocity": 83}, {"time": 1105, "pitch": 70, "duration": 11, "velocity": 82}, {"time": 1129, "pitch": 39, "duration": 45, "velocity": 100}, {"time": 1135, "pitch": 51, "duration": 40, "velocity": 89}, {"time": 1141, "pitch": 55, "duration": 7, "velocity": 75}, {"time": 1147, "pitch": 58, "duration": 6, "velocity": 89}, {"time": 1153, "pitch": 63, "duration": 1, "velocity": 117}, {"time": 1159, "pitch": 63, "duration": 7, "velocity": 31}, {"time": 1165, "pitch": 70, "duration": 10, "velocity": 112}, {"time": 1171, "pitch": 63, "duration": 11, "velocity": 42}, {"time": 1177, "pitch": 39, "duration": 35, "velocity": 112}, {"time": 1177, "pitch": 67, "duration": 2, "velocity": 69}, {"time": 1177, "pitch": 70, "duration": 38, "velocity": 77}, {"time": 1183, "pitch": 51, "duration": 19, "velocity": 70}, {"time": 1189, "pitch": 63, "duration": 9, "velocity": 69}, {"time": 1195, "pitch": 75, "duration": 19, "velocity": 90}, {"time": 1201, "pitch": 63, "duration": 12, "velocity": 56}, {"time": 1201, "pitch": 67, "duration": 9, "velocity": 29}, {"time": 1213, "pitch": 67, "duration": 1, "velocity": 61}, {"time": 1225, "pitch": 46, "duration": 34, "velocity": 100}, {"time": 1225, "pitch": 70, "duration": 11, "velocity": 112}, {"time": 1225, "pitch": 74, "duration": 13, "velocity": 96}, {"time": 1231, "pitch": 58, "duration": 20, "velocity": 99}, {"time": 1237, "pitch": 65, "duration": 10, "velocity": 86}, {"time": 1243, "pitch": 74, "duration": 30, "velocity": 117}, {"time": 1249, "pitch": 70, "duration": 12, "velocity": 70}, {"time": 1255, "pitch": 58, "duration": 3, "velocity": 79}, {"time": 1261, "pitch": 69, "duration": 6, "velocity": 107}, {"time": 1267, "pitch": 70, "duration": 7, "velocity": 89}, {"time": 1273, "pitch": 43, "duration": 33, "velocity": 92}, {"time": 1273, "pitch": 67, "duration": 2, "velocity": 77}, {"time": 1279, "pitch": 50, "duration": 22, "velocity": 59}, {"time": 1285, "pitch": 55, "duration": 6, "velocity": 96}, {"time": 1291, "pitch": 58, "duration": 19, "velocity": 107}, {"time": 1291, "pitch": 62, "duration": 19, "velocity": 93}, {"time": 1321, "pitch": 36, "duration": 37, "velocity": 72}, {"time": 1321, "pitch": 55, "duration": 2, "velocity": 48}, {"time": 1321, "pitch": 60, "duration": 4, "velocity": 76}, {"time": 1321, "pitch": 63, "duration": 5, "velocity": 79}, {"time": 1327, "pitch": 43, "duration": 33, "velocity": 59}, {"time": 1333, "pitch": 48, "duration": 16, "velocity": 89}, {"time": 1339, "pitch": 63, "duration": 16, "velocity": 117}, {"time": 1339, "pitch": 67, "duration": 17, "velocity": 93}, {"time": 1351, "pitch": 48, "duration": 17, "velocity": 61}, {"time": 1357, "pitch": 63, "duration": 8, "velocity": 127}, {"time": 1357, "pitch": 67, "duration": 7, "velocity": 72}, {"time": 1363, "pitch": 60, "duration": 3, "velocity": 48}, {"time": 1369, "pitch": 41, "duration": 31, "velocity": 75}, {"time": 1369, "pitch": 65, "duration": 3, "velocity": 93}, {"time": 1369, "pitch": 69, "duration": 3, "velocity": 96}, {"time": 1375, "pitch": 48, "duration": 21, "velocity": 51}, {"time": 1381, "pitch": 53, "duration": 7, "velocity": 86}, {"time": 1387, "pitch": 57, "duration": 4, "velocity": 52}, {"time": 1387, "pitch": 60, "duration": 4, "velocity": 49}, {"time": 1393, "pitch": 57, "duration": 10, "velocity": 99}, {"time": 1393, "pitch": 60, "duration": 12, "velocity": 127}, {"time": 1399, "pitch": 48, "duration": 2, "velocity": 95}, {"time": 1405, "pitch": 53, "duration": 1, "velocity": 99}, {"time": 1417, "pitch": 46, "duration": 45, "velocity": 99}, {"time": 1417, "pitch": 62, "duration": 1, "velocity": 95}, {"time": 1417, "pitch": 65, "duration": 1, "velocity": 99}, {"time": 1417, "pitch": 70, "duration": 2, "velocity": 100}, {"time": 1423, "pitch": 58, "duration": 20, "velocity": 93}, {"time": 1429, "pitch": 65, "duration": 3, "velocity": 41}, {"time": 1435, "pitch": 70, "duration": 15, "velocity": 122}, {"time": 1435, "pitch": 74, "duration": 16, "velocity": 112}, {"time": 1441, "pitch": 65, "duration": 10, "velocity": 59}, {"time": 1447, "pitch": 58, "duration": 16, "velocity": 88}, {"time": 1453, "pitch": 70, "duration": 3, "velocity": 112}, {"time": 1453, "pitch": 74, "duration": 9, "velocity": 102}, {"time": 1459, "pitch": 65, "duration": 4, "velocity": 54}, {"time": 1465, "pitch": 46, "duration": 24, "velocity": 117}, {"time": 1465, "pitch": 65, "duration": 3, "velocity": 71}, {"time": 1465, "pitch": 68, "duration": 11, "velocity": 112}, {"time": 1465, "pitch": 70, "duration": 15, "velocity": 112}, {"time": 1465, "pitch": 74, "duration": 15, "velocity": 90}, {"time": 1477, "pitch": 58, "duration": 12, "velocity": 97}, {"time": 1483, "pitch": 70, "duration": 3, "velocity": 77}, {"time": 1483, "pitch": 74, "duration": 2, "velocity": 65}, {"time": 1489, "pitch": 40, "duration": 12, "velocity": 79}, {"time": 1489, "pitch": 64, "duration": 10, "velocity": 73}, {"time": 1489, "pitch": 67, "duration": 10, "velocity": 95}, {"time": 1489, "pitch": 70, "duration": 11, "velocity": 99}, {"time": 1501, "pitch": 43, "duration": 10, "velocity": 89}, {"time": 1513, "pitch": 39, "duration": 45, "velocity": 96}, {"time": 1513, "pitch": 63, "duration": 14, "velocity": 85}, {"time": 1513, "pitch": 67, "duration": 2, "velocity": 89}, {"time": 1513, "pitch": 70, "duration": 13, "velocity": 79}, {"time": 1519, "pitch": 67, "duration": 9, "velocity": 25}, {"time": 1525, "pitch": 51, "duration": 9, "velocity": 90}, {"time": 1531, "pitch": 63, "duration": 3, "velocity": 72}, {"time": 1531, "pitch": 67, "duration": 15, "velocity": 77}, {"time": 1531, "pitch": 70, "duration": 35, "velocity": 71}, {"time": 1531, "pitch": 75, "duration": 15, "velocity": 86}, {"time": 1543, "pitch": 51, "duration": 18, "velocity": 48}, {"time": 1549, "pitch": 63, "duration": 14, "velocity": 86}, {"time": 1549, "pitch": 67, "duration": 15, "velocity": 36}, {"time": 1555, "pitch": 75, "duration": 9, "velocity": 100}, {"time": 1561, "pitch": 39, "duration": 30, "velocity": 96}, {"time": 1567, "pitch": 51, "duration": 19, "velocity": 90}, {"time": 1573, "pitch": 63, "duration": 10, "velocity": 74}, {"time": 1579, "pitch": 67, "duration": 6, "velocity": 63}, {"time": 1585, "pitch": 70, "duration": 12, "velocity": 122}, {"time": 1591, "pitch": 51, "duration": 1, "velocity": 99}, {"time": 1597, "pitch": 63, "duration": 1, "velocity": 96}, {"time": 1609, "pitch": 46, "duration": 38, "velocity": 100}, {"time": 1609, "pitch": 62, "duration": 8, "velocity": 100}, {"time": 1609, "pitch": 65, "duration": 10, "velocity": 102}, {"time": 1615, "pitch": 58, "duration": 21, "velocity": 86}, {"time": 1621, "pitch": 62, "duration": 3, "velocity": 63}, {"time": 1627, "pitch": 65, "duration": 17, "velocity": 97}, {"time": 1627, "pitch": 70, "duration": 18, "velocity": 127}, {"time": 1639, "pitch": 58, "duration": 3, "velocity": 79}, {"time": 1645, "pitch": 62, "duration": 1, "velocity": 93}, {"time": 1657, "pitch": 43, "duration": 41, "velocity": 74}, {"time": 1657, "pitch": 58, "duration": 2, "velocity": 93}, {"time": 1657, "pitch": 62, "duration": 2, "velocity": 89}, {"time": 1663, "pitch": 50, "duration": 33, "velocity": 48}, {"time": 1669, "pitch": 55, "duration": 20, "velocity": 82}, {"time": 1675, "pitch": 67, "duration": 21, "velocity": 90}, {"time": 1675, "pitch": 70, "duration": 21, "velocity": 99}, {"time": 1705, "pitch": 36, "duration": 32, "velocity": 64}, {"time": 1705, "pitch": 63, "duration": 17, "velocity": 88}, {"time": 1705, "pitch": 67, "duration": 36, "velocity": 74}, {"time": 1711, "pitch": 43, "duration": 26, "velocity": 57}, {"time": 1717, "pitch": 48, "duration": 21, "velocity": 83}, {"time": 1723, "pitch": 60, "duration": 29, "velocity": 73}, {"time": 1753, "pitch": 41, "duration": 36, "velocity": 82}, {"time": 1753, "pitch": 65, "duration": 2, "velocity": 100}, {"time": 1753, "pitch": 69, "duration": 1, "velocity": 90}, {"time": 1759, "pitch": 48, "duration": 31, "velocity": 55}, {"time": 1765, "pitch": 53, "duration": 16, "velocity": 81}, {"time": 1771, "pitch": 57, "duration": 19, "velocity": 92}, {"time": 1771, "pitch": 60, "duration": 19, "velocity": 92}, {"time": 1783, "pitch": 53, "duration": 8, "velocity": 25}, {"time": 1789, "pitch": 65, "duration": 1, "velocity": 61}, {"time": 1801, "pitch": 46, "duration": 45, "velocity": 89}, {"time": 1807, "pitch": 58, "duration": 21, "velocity": 90}, {"time": 1813, "pitch": 62, "duration": 8, "velocity": 67}, {"time": 1819, "pitch": 70, "duration": 30, "velocity": 117}, {"time": 1831, "pitch": 58, "duration": 18, "velocity": 70}, {"time": 1837, "pitch": 65, "duration": 12, "velocity": 99}, {"time": 1843, "pitch": 62, "duration": 6, "velocity": 56}, {"time": 1849, "pitch": 46, "duration": 23, "velocity": 97}, {"time": 1849, "pitch": 65, "duration": 13, "velocity": 92}, {"time": 1849, "pitch": 70, "duration": 13, "velocity": 107}, {"time": 1855, "pitch": 58, "duration": 8, "velocity": 100}, {"time": 1858, "pitch": 62, "duration": 3, "velocity": 96}, {"time": 1864, "pitch": 58, "duration": 6, "velocity": 88}, {"time": 1873, "pitch": 64, "duration": 13, "velocity": 86}, {"time": 1873, "pitch": 67, "duration": 23, "velocity": 99}, {"time": 1873, "pitch": 70, "duration": 1, "velocity": 99}, {"time": 1873, "pitch": 73, "duration": 23, "velocity": 127}, {"time": 1885, "pitch": 70, "duration": 11, "velocity": 95}, {"time": 1897, "pitch": 39, "duration": 36, "velocity": 96}, {"time": 1897, "pitch": 63, "duration": 7, "velocity": 96}, {"time": 1897, "pitch": 67, "duration": 10, "velocity": 99}, {"time": 1897, "pitch": 70, "duration": 15, "velocity": 100}, {"time": 1903, "pitch": 51, "duration": 15, "velocity": 89}, {"time": 1909, "pitch": 63, "duration": 4, "velocity": 69}, {"time": 1915, "pitch": 67, "duration": 27, "velocity": 92}, {"time": 1915, "pitch": 70, "duration": 28, "velocity": 86}, {"time": 1915, "pitch": 75, "duration": 17, "velocity": 99}, {"time": 1927, "pitch": 51, "duration": 15, "velocity": 38}, {"time": 1933, "pitch": 63, "duration": 7, "velocity": 93}, {"time": 1939, "pitch": 39, "duration": 1, "velocity": 27}, {"time": 1939, "pitch": 75, "duration": 5, "velocity": 82}, {"time": 1945, "pitch": 39, "duration": 1, "velocity": 102}, {"time": 1945, "pitch": 63, "duration": 9, "velocity": 99}, {"time": 1945, "pitch": 67, "duration": 2, "velocity": 69}, {"time": 1945, "pitch": 70, "duration": 14, "velocity": 70}, {"time": 1945, "pitch": 75, "duration": 13, "velocity": 79}, {"time": 1957, "pitch": 63, "duration": 3, "velocity": 43}, {"time": 1963, "pitch": 67, "duration": 11, "velocity": 88}, {"time": 1963, "pitch": 70, "duration": 12, "velocity": 82}, {"time": 1963, "pitch": 75, "duration": 7, "velocity": 96}, {"time": 1969, "pitch": 63, "duration": 3, "velocity": 38}, {"time": 1975, "pitch": 55, "duration": 1, "velocity": 40}, {"time": 1975, "pitch": 58, "duration": 3, "velocity": 63}, {"time": 1981, "pitch": 67, "duration": 11, "velocity": 85}, {"time": 1981, "pitch": 70, "duration": 12, "velocity": 72}, {"time": 1981, "pitch": 74, "duration": 11, "velocity": 74}, {"time": 1987, "pitch": 63, "duration": 5, "velocity": 53}, {"time": 1993, "pitch": 46, "duration": 36, "velocity": 99}, {"time": 1999, "pitch": 58, "duration": 20, "velocity": 93}, {"time": 2005, "pitch": 62, "duration": 15, "velocity": 81}, {"time": 2011, "pitch": 70, "duration": 30, "velocity": 127}, {"time": 2023, "pitch": 58, "duration": 3, "velocity": 63}, {"time": 2029, "pitch": 65, "duration": 13, "velocity": 89}, {"time": 2035, "pitch": 45, "duration": 5, "velocity": 74}, {"time": 2041, "pitch": 43, "duration": 34, "velocity": 86}, {"time": 2047, "pitch": 50, "duration": 20, "velocity": 76}, {"time": 2053, "pitch": 55, "duration": 5, "velocity": 97}, {"time": 2059, "pitch": 58, "duration": 15, "velocity": 107}, {"time": 2059, "pitch": 62, "duration": 17, "velocity": 93}, {"time": 2071, "pitch": 50, "duration": 2, "velocity": 50}, {"time": 2089, "pitch": 36, "duration": 33, "velocity": 66}, {"time": 2089, "pitch": 60, "duration": 7, "velocity": 72}, {"time": 2089, "pitch": 63, "duration": 13, "velocity": 82}, {"time": 2089, "pitch": 67, "duration": 14, "velocity": 73}, {"time": 2095, "pitch": 43, "duration": 28, "velocity": 52}, {"time": 2101, "pitch": 48, "duration": 11, "velocity": 83}, {"time": 2107, "pitch": 63, "duration": 14, "velocity": 117}, {"time": 2107, "pitch": 67, "duration": 14, "velocity": 95}, {"time": 2119, "pitch": 48, "duration": 5, "velocity": 52}, {"time": 2125, "pitch": 63, "duration": 11, "velocity": 122}, {"time": 2125, "pitch": 67, "duration": 9, "velocity": 97}, {"time": 2137, "pitch": 41, "duration": 34, "velocity": 78}, {"time": 2137, "pitch": 60, "duration": 5, "velocity": 86}, {"time": 2137, "pitch": 65, "duration": 7, "velocity": 93}, {"time": 2137, "pitch": 69, "duration": 7, "velocity": 95}, {"time": 2143, "pitch": 48, "duration": 30, "velocity": 57}, {"time": 2149, "pitch": 53, "duration": 14, "velocity": 89}, {"time": 2155, "pitch": 60, "duration": 5, "velocity": 60}, {"time": 2161, "pitch": 65, "duration": 12, "velocity": 117}, {"time": 2161, "pitch": 69, "duration": 12, "velocity": 117}, {"time": 2167, "pitch": 53, "duration": 7, "velocity": 85}, {"time": 2173, "pitch": 60, "duration": 2, "velocity": 88}, {"time": 2185, "pitch": 46, "duration": 40, "velocity": 127}, {"time": 2185, "pitch": 65, "duration": 14, "velocity": 97}, {"time": 2185, "pitch": 70, "duration": 15, "velocity": 117}, {"time": 2191, "pitch": 58, "duration": 18, "velocity": 99}, {"time": 2197, "pitch": 62, "duration": 3, "velocity": 69}, {"time": 2203, "pitch": 65, "duration": 15, "velocity": 102}, {"time": 2203, "pitch": 70, "duration": 15, "velocity": 127}, {"time": 2215, "pitch": 58, "duration": 13, "velocity": 76}, {"time": 2221, "pitch": 62, "duration": 1, "velocity": 92}, {"time": 2221, "pitch": 65, "duration": 1, "velocity": 72}, {"time": 2221, "pitch": 70, "duration": 1, "velocity": 72}, {"time": 2233, "pitch": 46, "duration": 34, "velocity": 102}, {"time": 2233, "pitch": 58, "duration": 9, "velocity": 107}, {"time": 2239, "pitch": 74, "duration": 1, "velocity": 112}, {"time": 2239, "pitch": 86, "duration": 1, "velocity": 97}, {"time": 2245, "pitch": 58, "duration": 8, "velocity": 97}, {"time": 2251, "pitch": 72, "duration": 2, "velocity": 89}, {"time": 2251, "pitch": 84, "duration": 1, "velocity": 85}, {"time": 2257, "pitch": 58, "duration": 10, "velocity": 117}, {"time": 2257, "pitch": 74, "duration": 2, "velocity": 102}, {"time": 2257, "pitch": 86, "duration": 1, "velocity": 92}, {"time": 2269, "pitch": 68, "duration": 1, "velocity": 95}, {"time": 2281, "pitch": 39, "duration": 37, "velocity": 96}, {"time": 2281, "pitch": 63, "duration": 6, "velocity": 79}, {"time": 2281, "pitch": 67, "duration": 11, "velocity": 76}, {"time": 2281, "pitch": 70, "duration": 17, "velocity": 81}, {"time": 2287, "pitch": 51, "duration": 22, "velocity": 66}, {"time": 2293, "pitch": 63, "duration": 9, "velocity": 67}, {"time": 2299, "pitch": 67, "duration": 26, "velocity": 59}, {"time": 2299, "pitch": 70, "duration": 28, "velocity": 53}, {"time": 2299, "pitch": 75, "duration": 18, "velocity": 100}, {"time": 2311, "pitch": 51, "duration": 7, "velocity": 63}, {"time": 2317, "pitch": 63, "duration": 7, "velocity": 72}, {"time": 2323, "pitch": 75, "duration": 4, "velocity": 49}, {"time": 2329, "pitch": 39, "duration": 1, "velocity": 96}, {"time": 2329, "pitch": 63, "duration": 14, "velocity": 77}, {"time": 2329, "pitch": 67, "duration": 15, "velocity": 76}, {"time": 2329, "pitch": 70, "duration": 20, "velocity": 67}, {"time": 2329, "pitch": 75, "duration": 16, "velocity": 99}, {"time": 2347, "pitch": 63, "duration": 4, "velocity": 63}, {"time": 2353, "pitch": 67, "duration": 11, "velocity": 93}, {"time": 2353, "pitch": 70, "duration": 13, "velocity": 95}, {"time": 2353, "pitch": 75, "duration": 12, "velocity": 112}, {"time": 2359, "pitch": 51, "duration": 2, "velocity": 22}, {"time": 2359, "pitch": 58, "duration": 2, "velocity": 89}, {"time": 2365, "pitch": 63, "duration": 1, "velocity": 99}, {"time": 2377, "pitch": 38, "duration": 35, "velocity": 63}, {"time": 2377, "pitch": 62, "duration": 14, "velocity": 107}, {"time": 2377, "pitch": 65, "duration": 16, "velocity": 99}, {"time": 2377, "pitch": 69, "duration": 16, "velocity": 96}, {"time": 2383, "pitch": 45, "duration": 30, "velocity": 72}, {"time": 2389, "pitch": 50, "duration": 15, "velocity": 90}, {"time": 2395, "pitch": 65, "duration": 16, "velocity": 100}, {"time": 2395, "pitch": 69, "duration": 20, "velocity": 99}, {"time": 2407, "pitch": 50, "duration": 8, "velocity": 45}, {"time": 2413, "pitch": 62, "duration": 3, "velocity": 89}, {"time": 2413, "pitch": 65, "duration": 2, "velocity": 64}, {"time": 2425, "pitch": 43, "duration": 32, "velocity": 59}, {"time": 2425, "pitch": 62, "duration": 2, "velocity": 76}, {"time": 2425, "pitch": 67, "duration": 2, "velocity": 93}, {"time": 2425, "pitch": 70, "duration": 2, "velocity": 97}, {"time": 2431, "pitch": 50, "duration": 20, "velocity": 45}, {"time": 2437, "pitch": 55, "duration": 8, "velocity": 90}, {"time": 2443, "pitch": 58, "duration": 16, "velocity": 102}, {"time": 2443, "pitch": 62, "duration": 16, "velocity": 90}, {"time": 2473, "pitch": 36, "duration": 1, "velocity": 59}, {"time": 2473, "pitch": 60, "duration": 13, "velocity": 71}, {"time": 2473, "pitch": 63, "duration": 15, "velocity": 89}, {"time": 2473, "pitch": 67, "duration": 15, "velocity": 73}, {"time": 2485, "pitch": 48, "duration": 21, "velocity": 39}, {"time": 2491, "pitch": 63, "duration": 19, "velocity": 96}, {"time": 2491, "pitch": 67, "duration": 19, "velocity": 73}, {"time": 2503, "pitch": 55, "duration": 3, "velocity": 36}, {"time": 2509, "pitch": 60, "duration": 2, "velocity": 62}, {"time": 2521, "pitch": 41, "duration": 33, "velocity": 67}, {"time": 2521, "pitch": 60, "duration": 12, "velocity": 83}, {"time": 2521, "pitch": 65, "duration": 14, "velocity": 85}, {"time": 2521, "pitch": 69, "duration": 14, "velocity": 81}, {"time": 2527, "pitch": 48, "duration": 28, "velocity": 61}, {"time": 2533, "pitch": 53, "duration": 14, "velocity": 69}, {"time": 2539, "pitch": 65, "duration": 19, "velocity": 99}, {"time": 2539, "pitch": 69, "duration": 19, "velocity": 95}, {"time": 2551, "pitch": 53, "duration": 3, "velocity": 41}, {"time": 2557, "pitch": 60, "duration": 1, "velocity": 41}, {"time": 2569, "pitch": 46, "duration": 38, "velocity": 81}, {"time": 2575, "pitch": 58, "duration": 19, "velocity": 73}, {"time": 2581, "pitch": 62, "duration": 7, "velocity": 66}, {"time": 2587, "pitch": 70, "duration": 21, "velocity": 117}, {"time": 2593, "pitch": 62, "duration": 9, "velocity": 46}, {"time": 2599, "pitch": 58, "duration": 9, "velocity": 61}, {"time": 2605, "pitch": 65, "duration": 9, "velocity": 85}, {"time": 2617, "pitch": 46, "duration": 37, "velocity": 117}, {"time": 2617, "pitch": 62, "duration": 23, "velocity": 77}, {"time": 2617, "pitch": 65, "duration": 21, "velocity": 82}, {"time": 2617, "pitch": 70, "duration": 21, "velocity": 90}, {"time": 2641, "pitch": 70, "duration": 12, "velocity": 122}, {"time": 2647, "pitch": 58, "duration": 3, "velocity": 59}, {"time": 2653, "pitch": 65, "duration": 2, "velocity": 74}, {"time": 2665, "pitch": 43, "duration": 36, "velocity": 69}, {"time": 2665, "pitch": 58, "duration": 9, "velocity": 93}, {"time": 2665, "pitch": 62, "duration": 11, "velocity": 83}, {"time": 2671, "pitch": 50, "duration": 19, "velocity": 79}, {"time": 2677, "pitch": 55, "duration": 8, "velocity": 96}, {"time": 2683, "pitch": 58, "duration": 7, "velocity": 117}, {"time": 2683, "pitch": 62, "duration": 8, "velocity": 93}, {"time": 2695, "pitch": 50, "duration": 5, "velocity": 60}, {"time": 2701, "pitch": 67, "duration": 7, "velocity": 107}, {"time": 2701, "pitch": 70, "duration": 7, "velocity": 122}, {"time": 2707, "pitch": 62, "duration": 3, "velocity": 70}, {"time": 2713, "pitch": 31, "duration": 1, "velocity": 72}, {"time": 2713, "pitch": 62, "duration": 5, "velocity": 79}, {"time": 2713, "pitch": 67, "duration": 15, "velocity": 95}, {"time": 2713, "pitch": 70, "duration": 15, "velocity": 117}, {"time": 2725, "pitch": 62, "duration": 3, "velocity": 50}, {"time": 2731, "pitch": 67, "duration": 15, "velocity": 90}, {"time": 2731, "pitch": 70, "duration": 20, "velocity": 102}, {"time": 2749, "pitch": 67, "duration": 2, "velocity": 63}, {"time": 2761, "pitch": 39, "duration": 39, "velocity": 93}, {"time": 2761, "pitch": 63, "duration": 12, "velocity": 100}, {"time": 2761, "pitch": 67, "duration": 13, "velocity": 92}, {"time": 2761, "pitch": 70, "duration": 10, "velocity": 89}, {"time": 2767, "pitch": 51, "duration": 19, "velocity": 90}, {"time": 2773, "pitch": 62, "duration": 5, "velocity": 63}, {"time": 2779, "pitch": 63, "duration": 19, "velocity": 107}, {"time": 2779, "pitch": 67, "duration": 21, "velocity": 85}, {"time": 2779, "pitch": 70, "duration": 20, "velocity": 92}, {"time": 2791, "pitch": 51, "duration": 10, "velocity": 73}, {"time": 2797, "pitch": 62, "duration": 5, "velocity": 83}, {"time": 2803, "pitch": 67, "duration": 3, "velocity": 38}, {"time": 2803, "pitch": 70, "duration": 3, "velocity": 55}, {"time": 2809, "pitch": 43, "duration": 36, "velocity": 83}, {"time": 2809, "pitch": 62, "duration": 12, "velocity": 86}, {"time": 2809, "pitch": 67, "duration": 14, "velocity": 89}, {"time": 2809, "pitch": 70, "duration": 14, "velocity": 92}, {"time": 2821, "pitch": 50, "duration": 25, "velocity": 56}, {"time": 2827, "pitch": 67, "duration": 15, "velocity": 112}, {"time": 2827, "pitch": 70, "duration": 16, "velocity": 127}, {"time": 2839, "pitch": 55, "duration": 4, "velocity": 61}, {"time": 2845, "pitch": 67, "duration": 2, "velocity": 117}, {"time": 2845, "pitch": 70, "duration": 3, "velocity": 122}, {"time": 2851, "pitch": 62, "duration": 1, "velocity": 31}, {"time": 2857, "pitch": 39, "duration": 2, "velocity": 122}, {"time": 2857, "pitch": 63, "duration": 12, "velocity": 112}, {"time": 2857, "pitch": 67, "duration": 13, "velocity": 96}, {"time": 2857, "pitch": 70, "duration": 10, "velocity": 93}, {"time": 2869, "pitch": 62, "duration": 2, "velocity": 43}, {"time": 2875, "pitch": 63, "duration": 12, "velocity": 127}, {"time": 2875, "pitch": 67, "duration": 12, "velocity": 102}, {"time": 2875, "pitch": 70, "duration": 12, "velocity": 107}, {"time": 2887, "pitch": 58, "duration": 4, "velocity": 61}, {"time": 2893, "pitch": 63, "duration": 2, "velocity": 122}, {"time": 2893, "pitch": 67, "duration": 2, "velocity": 100}, {"time": 2893, "pitch": 70, "duration": 1, "velocity": 89}, {"time": 2905, "pitch": 43, "duration": 49, "velocity": 97}, {"time": 2905, "pitch": 62, "duration": 2, "velocity": 100}, {"time": 2905, "pitch": 67, "duration": 2, "velocity": 107}, {"time": 2905, "pitch": 70, "duration": 2, "velocity": 117}, {"time": 2911, "pitch": 50, "duration": 23, "velocity": 90}, {"time": 2917, "pitch": 55, "duration": 3, "velocity": 96}, {"time": 2923, "pitch": 55, "duration": 14, "velocity": 97}, {"time": 2923, "pitch": 58, "duration": 15, "velocity": 117}, {"time": 2923, "pitch": 62, "duration": 14, "velocity": 99}, {"time": 2935, "pitch": 50, "duration": 18, "velocity": 66}, {"time": 2941, "pitch": 58, "duration": 12, "velocity": 127}, {"time": 2941, "pitch": 62, "duration": 12, "velocity": 107}, {"time": 2947, "pitch": 55, "duration": 7, "velocity": 90}, {"time": 2953, "pitch": 43, "duration": 1, "velocity": 96}, {"time": 2953, "pitch": 62, "duration": 1, "velocity": 95}, {"time": 2953, "pitch": 67, "duration": 11, "velocity": 97}, {"time": 2953, "pitch": 70, "duration": 11, "velocity": 107}, {"time": 2977, "pitch": 45, "duration": 24, "velocity": 73}, {"time": 2977, "pitch": 57, "duration": 24, "velocity": 93}, {"time": 2977, "pitch": 69, "duration": 24, "velocity": 95}, {"time": 3001, "pitch": 46, "duration": 43, "velocity": 89}, {"time": 3001, "pitch": 70, "duration": 13, "velocity": 47}, {"time": 3001, "pitch": 74, "duration": 10, "velocity": 57}, {"time": 3007, "pitch": 58, "duration": 27, "velocity": 26}, {"time": 3013, "pitch": 65, "duration": 7, "velocity": 42}, {"time": 3019, "pitch": 70, "duration": 43, "velocity": 44}, {"time": 3019, "pitch": 74, "duration": 44, "velocity": 52}, {"time": 3097, "pitch": 43, "duration": 75, "velocity": 64}, {"time": 3097, "pitch": 67, "duration": 3, "velocity": 51}, {"time": 3097, "pitch": 70, "duration": 4, "velocity": 60}, {"time": 3103, "pitch": 50, "duration": 69, "velocity": 39}, {"time": 3109, "pitch": 55, "duration": 62, "velocity": 41}, {"time": 3115, "pitch": 58, "duration": 52, "velocity": 55}, {"time": 3115, "pitch": 62, "duration": 52, "velocity": 65}, {"time": 3193, "pitch": 46, "duration": 78, "velocity": 75}, {"time": 3193, "pitch": 62, "duration": 7, "velocity": 54}, {"time": 3193, "pitch": 69, "duration": 11, "velocity": 68}, {"time": 3193, "pitch": 70, "duration": 13, "velocity": 46}, {"time": 3199, "pitch": 58, "duration": 67, "velocity": 57}, {"time": 3205, "pitch": 62, "duration": 50, "velocity": 35}, {"time": 3211, "pitch": 70, "duration": 45, "velocity": 48}, {"time": 3253, "pitch": 65, "duration": 7, "velocity": 58}, {"time": 3259, "pitch": 62, "duration": 8, "velocity": 43}, {"time": 3265, "pitch": 70, "duration": 12, "velocity": 90}, {"time": 3271, "pitch": 58, "duration": 1, "velocity": 32}, {"time": 3289, "pitch": 43, "duration": 77, "velocity": 58}, {"time": 3289, "pitch": 58, "duration": 2, "velocity": 63}, {"time": 3289, "pitch": 62, "duration": 2, "velocity": 62}, {"time": 3295, "pitch": 50, "duration": 69, "velocity": 32}, {"time": 3301, "pitch": 55, "duration": 15, "velocity": 58}, {"time": 3307, "pitch": 67, "duration": 25, "velocity": 65}, {"time": 3307, "pitch": 70, "duration": 50, "velocity": 47}, {"time": 3319, "pitch": 55, "duration": 16, "velocity": 66}, {"time": 3325, "pitch": 62, "duration": 14, "velocity": 58}, {"time": 3331, "pitch": 65, "duration": 4, "velocity": 37}, {"time": 3337, "pitch": 55, "duration": 27, "velocity": 59}, {"time": 3337, "pitch": 67, "duration": 20, "velocity": 16}, {"time": 3367, "pitch": 67, "duration": 6, "velocity": 32}, {"time": 3373, "pitch": 62, "duration": 1, "velocity": 33}, {"time": 3385, "pitch": 39, "duration": 35, "velocity": 95}, {"time": 3385, "pitch": 63, "duration": 4, "velocity": 49}, {"time": 3385, "pitch": 67, "duration": 37, "velocity": 68}, {"time": 3385, "pitch": 70, "duration": 84, "velocity": 69}, {"time": 3391, "pitch": 51, "duration": 30, "velocity": 58}, {"time": 3397, "pitch": 63, "duration": 20, "velocity": 56}, {"time": 3403, "pitch": 75, "duration": 47, "velocity": 66}, {"time": 3421, "pitch": 63, "duration": 24, "velocity": 48}, {"time": 3427, "pitch": 67, "duration": 40, "velocity": 17}, {"time": 3433, "pitch": 51, "duration": 32, "velocity": 29}, {"time": 3433, "pitch": 55, "duration": 32, "velocity": 40}, {"time": 3433, "pitch": 58, "duration": 24, "velocity": 32}, {"time": 3451, "pitch": 63, "duration": 10, "velocity": 52}, {"time": 3457, "pitch": 75, "duration": 12, "velocity": 95}, {"time": 3463, "pitch": 58, "duration": 3, "velocity": 35}, {"time": 3469, "pitch": 63, "duration": 1, "velocity": 58}, {"time": 3481, "pitch": 38, "duration": 29, "velocity": 71}, {"time": 3481, "pitch": 65, "duration": 13, "velocity": 73}, {"time": 3481, "pitch": 69, "duration": 13, "velocity": 74}, {"time": 3487, "pitch": 50, "duration": 22, "velocity": 35}, {"time": 3493, "pitch": 62, "duration": 6, "velocity": 51}, {"time": 3499, "pitch": 65, "duration": 24, "velocity": 67}, {"time": 3499, "pitch": 69, "duration": 19, "velocity": 81}, {"time": 3517, "pitch": 62, "duration": 14, "velocity": 58}, {"time": 3529, "pitch": 43, "duration": 34, "velocity": 52}, {"time": 3529, "pitch": 67, "duration": 2, "velocity": 59}, {"time": 3529, "pitch": 70, "duration": 2, "velocity": 68}, {"time": 3535, "pitch": 50, "duration": 20, "velocity": 40}, {"time": 3541, "pitch": 55, "duration": 8, "velocity": 72}, {"time": 3547, "pitch": 58, "duration": 7, "velocity": 63}, {"time": 3553, "pitch": 62, "duration": 13, "velocity": 100}, {"time": 3559, "pitch": 50, "duration": 3, "velocity": 35}, {"time": 3565, "pitch": 58, "duration": 6, "velocity": 127}, {"time": 3571, "pitch": 55, "duration": 4, "velocity": 57}, {"time": 3577, "pitch": 36, "duration": 35, "velocity": 77}, {"time": 3577, "pitch": 63, "duration": 17, "velocity": 117}, {"time": 3577, "pitch": 67, "duration": 17, "velocity": 90}, {"time": 3589, "pitch": 48, "duration": 13, "velocity": 39}, {"time": 3595, "pitch": 63, "duration": 17, "velocity": 127}, {"time": 3595, "pitch": 67, "duration": 17, "velocity": 92}, {"time": 3607, "pitch": 48, "duration": 7, "velocity": 66}, {"time": 3613, "pitch": 60, "duration": 1, "velocity": 97}, {"time": 3625, "pitch": 39, "duration": 39, "velocity": 100}, {"time": 3625, "pitch": 63, "duration": 14, "velocity": 92}, {"time": 3625, "pitch": 67, "duration": 13, "velocity": 97}, {"time": 3625, "pitch": 70, "duration": 14, "velocity": 96}, {"time": 3637, "pitch": 51, "duration": 27, "velocity": 36}, {"time": 3643, "pitch": 63, "duration": 15, "velocity": 92}, {"time": 3643, "pitch": 70, "duration": 14, "velocity": 95}, {"time": 3643, "pitch": 67, "duration": 15, "velocity": 95}, {"time": 3661, "pitch": 70, "duration": 11, "velocity": 112}, {"time": 3661, "pitch": 67, "duration": 11, "velocity": 107}, {"time": 3667, "pitch": 63, "duration": 5, "velocity": 93}, {"time": 3673, "pitch": 41, "duration": 42, "velocity": 75}, {"time": 3673, "pitch": 53, "duration": 1, "velocity": 76}, {"time": 3673, "pitch": 57, "duration": 2, "velocity": 82}, {"time": 3673, "pitch": 60, "duration": 2, "velocity": 81}, {"time": 3679, "pitch": 48, "duration": 43, "velocity": 48}, {"time": 3685, "pitch": 53, "duration": 13, "velocity": 75}, {"time": 3691, "pitch": 60, "duration": 18, "velocity": 61}, {"time": 3697, "pitch": 65, "duration": 12, "velocity": 97}, {"time": 3703, "pitch": 53, "duration": 4, "velocity": 40}, {"time": 3709, "pitch": 67, "duration": 11, "velocity": 77}, {"time": 3715, "pitch": 69, "duration": 3, "velocity": 33}, {"time": 3721, "pitch": 41, "duration": 24, "velocity": 62}, {"time": 3721, "pitch": 60, "duration": 24, "velocity": 59}, {"time": 3721, "pitch": 65, "duration": 24, "velocity": 65}, {"time": 3721, "pitch": 69, "duration": 24, "velocity": 65}, {"time": 3745, "pitch": 40, "duration": 8, "velocity": 86}, {"time": 3745, "pitch": 61, "duration": 21, "velocity": 112}, {"time": 3745, "pitch": 64, "duration": 9, "velocity": 71}, {"time": 3745, "pitch": 67, "duration": 9, "velocity": 83}, {"time": 3745, "pitch": 70, "duration": 11, "velocity": 82}, {"time": 3769, "pitch": 39, "duration": 45, "velocity": 100}, {"time": 3775, "pitch": 51, "duration": 40, "velocity": 89}, {"time": 3781, "pitch": 55, "duration": 7, "velocity": 75}, {"time": 3787, "pitch": 58, "duration": 6, "velocity": 89}, {"time": 3793, "pitch": 63, "duration": 1, "velocity": 117}, {"time": 3799, "pitch": 63, "duration": 7, "velocity": 31}, {"time": 3805, "pitch": 70, "duration": 10, "velocity": 112}, {"time": 3811, "pitch": 63, "duration": 11, "velocity": 42}, {"time": 3817, "pitch": 39, "duration": 35, "velocity": 112}, {"time": 3817, "pitch": 67, "duration": 2, "velocity": 69}, {"time": 3817, "pitch": 70, "duration": 38, "velocity": 77}, {"time": 3823, "pitch": 51, "duration": 19, "velocity": 70}, {"time": 3829, "pitch": 63, "duration": 9, "velocity": 69}, {"time": 3835, "pitch": 75, "duration": 19, "velocity": 90}, {"time": 3841, "pitch": 63, "duration": 12, "velocity": 56}, {"time": 3841, "pitch": 67, "duration": 9, "velocity": 29}, {"time": 3853, "pitch": 67, "duration": 1, "velocity": 61}, {"time": 3865, "pitch": 46, "duration": 34, "velocity": 100}, {"time": 3865, "pitch": 70, "duration": 11, "velocity": 112}, {"time": 3865, "pitch": 74, "duration": 13, "velocity": 96}, {"time": 3871, "pitch": 58, "duration": 20, "velocity": 99}, {"time": 3877, "pitch": 65, "duration": 10, "velocity": 86}, {"time": 3883, "pitch": 74, "duration": 30, "velocity": 117}, {"time": 3889, "pitch": 70, "duration": 12, "velocity": 70}, {"time": 3895, "pitch": 58, "duration": 3, "velocity": 79}, {"time": 3901, "pitch": 69, "duration": 6, "velocity": 107}, {"time": 3907, "pitch": 70, "duration": 7, "velocity": 89}, {"time": 3913, "pitch": 43, "duration": 33, "velocity": 92}, {"time": 3913, "pitch": 67, "duration": 2, "velocity": 77}, {"time": 3919, "pitch": 50, "duration": 22, "velocity": 59}, {"time": 3925, "pitch": 55, "duration": 6, "velocity": 96}, {"time": 3931, "pitch": 58, "duration": 19, "velocity": 107}, {"time": 3931, "pitch": 62, "duration": 19, "velocity": 93}, {"time": 3961, "pitch": 36, "duration": 37, "velocity": 72}, {"time": 3961, "pitch": 55, "duration": 2, "velocity": 48}, {"time": 3961, "pitch": 60, "duration": 4, "velocity": 76}, {"time": 3961, "pitch": 63, "duration": 5, "velocity": 79}, {"time": 3967, "pitch": 43, "duration": 33, "velocity": 59}, {"time": 3973, "pitch": 48, "duration": 16, "velocity": 89}, {"time": 3979, "pitch": 63, "duration": 16, "velocity": 117}, {"time": 3979, "pitch": 67, "duration": 17, "velocity": 93}, {"time": 3991, "pitch": 48, "duration": 17, "velocity": 61}, {"time": 3997, "pitch": 63, "duration": 8, "velocity": 127}, {"time": 3997, "pitch": 67, "duration": 7, "velocity": 72}, {"time": 4003, "pitch": 60, "duration": 3, "velocity": 48}, {"time": 4009, "pitch": 41, "duration": 31, "velocity": 75}, {"time": 4009, "pitch": 65, "duration": 3, "velocity": 93}, {"time": 4009, "pitch": 69, "duration": 3, "velocity": 96}, {"time": 4015, "pitch": 48, "duration": 21, "velocity": 51}, {"time": 4021, "pitch": 53, "duration": 7, "velocity": 86}, {"time": 4027, "pitch": 57, "duration": 4, "velocity": 52}, {"time": 4027, "pitch": 60, "duration": 4, "velocity": 49}, {"time": 4033, "pitch": 57, "duration": 10, "velocity": 99}, {"time": 4033, "pitch": 60, "duration": 12, "velocity": 127}, {"time": 4039, "pitch": 48, "duration": 2, "velocity": 95}, {"time": 4045, "pitch": 53, "duration": 1, "velocity": 99}, {"time": 4057, "pitch": 46, "duration": 45, "velocity": 99}, {"time": 4057, "pitch": 62, "duration": 1, "velocity": 95}, {"time": 4057, "pitch": 65, "duration": 1, "velocity": 99}, {"time": 4057, "pitch": 70, "duration": 2, "velocity": 100}, {"time": 4063, "pitch": 58, "duration": 20, "velocity": 93}, {"time": 4069, "pitch": 65, "duration": 3, "velocity": 41}, {"time": 4075, "pitch": 70, "duration": 15, "velocity": 122}, {"time": 4075, "pitch": 74, "duration": 16, "velocity": 112}, {"time": 4081, "pitch": 65, "duration": 10, "velocity": 59}, {"time": 4087, "pitch": 58, "duration": 16, "velocity": 88}, {"time": 4093, "pitch": 70, "duration": 3, "velocity": 112}, {"time": 4093, "pitch": 74, "duration": 9, "velocity": 102}, {"time": 4099, "pitch": 65, "duration": 4, "velocity": 54}, {"time": 4105, "pitch": 46, "duration": 24, "velocity": 117}, {"time": 4105, "pitch": 65, "duration": 3, "velocity": 71}, {"time": 4105, "pitch": 68, "duration": 11, "velocity": 112}, {"time": 4105, "pitch": 70, "duration": 15, "velocity": 112}, {"time": 4105, "pitch": 74, "duration": 15, "velocity": 90}, {"time": 4117, "pitch": 58, "duration": 12, "velocity": 97}, {"time": 4123, "pitch": 70, "duration": 3, "velocity": 77}, {"time": 4123, "pitch": 74, "duration": 2, "velocity": 65}, {"time": 4129, "pitch": 40, "duration": 12, "velocity": 79}, {"time": 4129, "pitch": 64, "duration": 10, "velocity": 73}, {"time": 4129, "pitch": 67, "duration": 10, "velocity": 95}, {"time": 4129, "pitch": 70, "duration": 11, "velocity": 99}, {"time": 4141, "pitch": 43, "duration": 10, "velocity": 89}, {"time": 4153, "pitch": 39, "duration": 45, "velocity": 96}, {"time": 4153, "pitch": 63, "duration": 14, "velocity": 85}, {"time": 4153, "pitch": 67, "duration": 2, "velocity": 89}, {"time": 4153, "pitch": 70, "duration": 13, "velocity": 79}, {"time": 4159, "pitch": 67, "duration": 9, "velocity": 25}, {"time": 4165, "pitch": 51, "duration": 9, "velocity": 90}, {"time": 4171, "pitch": 63, "duration": 3, "velocity": 72}, {"time": 4171, "pitch": 67, "duration": 15, "velocity": 77}, {"time": 4171, "pitch": 70, "duration": 35, "velocity": 71}, {"time": 4171, "pitch": 75, "duration": 15, "velocity": 86}, {"time": 4183, "pitch": 51, "duration": 18, "velocity": 48}, {"time": 4189, "pitch": 63, "duration": 14, "velocity": 86}, {"time": 4189, "pitch": 67, "duration": 15, "velocity": 36}, {"time": 4195, "pitch": 75, "duration": 9, "velocity": 100}, {"time": 4201, "pitch": 39, "duration": 30, "velocity": 96}, {"time": 4207, "pitch": 51, "duration": 19, "velocity": 90}, {"time": 4213, "pitch": 63, "duration": 10, "velocity": 74}, {"time": 4219, "pitch": 67, "duration": 6, "velocity": 63}, {"time": 4225, "pitch": 70, "duration": 12, "velocity": 122}, {"time": 4231, "pitch": 51, "duration": 1, "velocity": 99}, {"time": 4237, "pitch": 63, "duration": 1, "velocity": 96}, {"time": 4249, "pitch": 46, "duration": 38, "velocity": 100}, {"time": 4249, "pitch": 62, "duration": 8, "velocity": 100}, {"time": 4249, "pitch": 65, "duration": 10, "velocity": 102}, {"time": 4255, "pitch": 58, "duration": 21, "velocity": 86}, {"time": 4261, "pitch": 62, "duration": 3, "velocity": 63}, {"time": 4267, "pitch": 65, "duration": 17, "velocity": 97}, {"time": 4267, "pitch": 70, "duration": 18, "velocity": 127}, {"time": 4279, "pitch": 58, "duration": 3, "velocity": 79}, {"time": 4285, "pitch": 62, "duration": 1, "velocity": 93}, {"time": 4297, "pitch": 43, "duration": 41, "velocity": 74}, {"time": 4297, "pitch": 58, "duration": 2, "velocity": 93}, {"time": 4297, "pitch": 62, "duration": 2, "velocity": 89}, {"time": 4303, "pitch": 50, "duration": 33, "velocity": 48}, {"time": 4309, "pitch": 55, "duration": 20, "velocity": 82}, {"time": 4315, "pitch": 67, "duration": 21, "velocity": 90}, {"time": 4315, "pitch": 70, "duration": 21, "velocity": 99}, {"time": 4345, "pitch": 36, "duration": 32, "velocity": 64}, {"time": 4345, "pitch": 63, "duration": 17, "velocity": 88}, {"time": 4345, "pitch": 67, "duration": 36, "velocity": 74}, {"time": 4351, "pitch": 43, "duration": 26, "velocity": 57}, {"time": 4357, "pitch": 48, "duration": 21, "velocity": 83}, {"time": 4363, "pitch": 60, "duration": 29, "velocity": 73}, {"time": 4393, "pitch": 41, "duration": 36, "velocity": 82}, {"time": 4393, "pitch": 65, "duration": 2, "velocity": 100}, {"time": 4393, "pitch": 69, "duration": 1, "velocity": 90}, {"time": 4399, "pitch": 48, "duration": 31, "velocity": 55}, {"time": 4405, "pitch": 53, "duration": 16, "velocity": 81}, {"time": 4411, "pitch": 57, "duration": 19, "velocity": 92}, {"time": 4411, "pitch": 60, "duration": 19, "velocity": 92}, {"time": 4423, "pitch": 53, "duration": 8, "velocity": 25}, {"time": 4429, "pitch": 65, "duration": 1, "velocity": 61}, {"time": 4441, "pitch": 46, "duration": 45, "velocity": 89}, {"time": 4447, "pitch": 58, "duration": 21, "velocity": 90}, {"time": 4453, "pitch": 62, "duration": 8, "velocity": 67}, {"time": 4459, "pitch": 70, "duration": 30, "velocity": 117}, {"time": 4471, "pitch": 58, "duration": 18, "velocity": 70}, {"time": 4477, "pitch": 65, "duration": 12, "velocity": 99}, {"time": 4483, "pitch": 62, "duration": 6, "velocity": 56}, {"time": 4489, "pitch": 46, "duration": 23, "velocity": 97}, {"time": 4489, "pitch": 65, "duration": 13, "velocity": 92}, {"time": 4489, "pitch": 70, "duration": 13, "velocity": 107}, {"time": 4495, "pitch": 58, "duration": 8, "velocity": 100}, {"time": 4498, "pitch": 62, "duration": 3, "velocity": 96}, {"time": 4504, "pitch": 58, "duration": 6, "velocity": 88}, {"time": 4513, "pitch": 64, "duration": 13, "velocity": 86}, {"time": 4513, "pitch": 67, "duration": 23, "velocity": 99}, {"time": 4513, "pitch": 70, "duration": 1, "velocity": 99}, {"time": 4513, "pitch": 73, "duration": 23, "velocity": 127}, {"time": 4525, "pitch": 70, "duration": 11, "velocity": 95}, {"time": 4537, "pitch": 39, "duration": 36, "velocity": 96}, {"time": 4537, "pitch": 63, "duration": 7, "velocity": 96}, {"time": 4537, "pitch": 67, "duration": 10, "velocity": 99}, {"time": 4537, "pitch": 70, "duration": 15, "velocity": 100}, {"time": 4543, "pitch": 51, "duration": 15, "velocity": 89}, {"time": 4549, "pitch": 63, "duration": 4, "velocity": 69}, {"time": 4555, "pitch": 67, "duration": 27, "velocity": 92}, {"time": 4555, "pitch": 70, "duration": 28, "velocity": 86}, {"time": 4555, "pitch": 75, "duration": 17, "velocity": 99}, {"time": 4567, "pitch": 51, "duration": 15, "velocity": 38}, {"time": 4573, "pitch": 63, "duration": 7, "velocity": 93}, {"time": 4579, "pitch": 39, "duration": 1, "velocity": 27}, {"time": 4579, "pitch": 75, "duration": 5, "velocity": 82}, {"time": 4585, "pitch": 39, "duration": 1, "velocity": 102}, {"time": 4585, "pitch": 63, "duration": 9, "velocity": 99}, {"time": 4585, "pitch": 67, "duration": 2, "velocity": 69}, {"time": 4585, "pitch": 70, "duration": 14, "velocity": 70}, {"time": 4585, "pitch": 75, "duration": 13, "velocity": 79}, {"time": 4597, "pitch": 63, "duration": 3, "velocity": 43}, {"time": 4603, "pitch": 67, "duration": 11, "velocity": 88}, {"time": 4603, "pitch": 70, "duration": 12, "velocity": 82}, {"time": 4603, "pitch": 75, "duration": 7, "velocity": 96}, {"time": 4609, "pitch": 63, "duration": 3, "velocity": 38}, {"time": 4615, "pitch": 55, "duration": 1, "velocity": 40}, {"time": 4615, "pitch": 58, "duration": 3, "velocity": 63}, {"time": 4621, "pitch": 67, "duration": 11, "velocity": 85}, {"time": 4621, "pitch": 70, "duration": 12, "velocity": 72}, {"time": 4621, "pitch": 74, "duration": 11, "velocity": 74}, {"time": 4627, "pitch": 63, "duration": 5, "velocity": 53}, {"time": 4633, "pitch": 46, "duration": 36, "velocity": 99}, {"time": 4639, "pitch": 58, "duration": 20, "velocity": 93}, {"time": 4645, "pitch": 62, "duration": 15, "velocity": 81}, {"time": 4651, "pitch": 70, "duration": 30, "velocity": 127}, {"time": 4663, "pitch": 58, "duration": 3, "velocity": 63}, {"time": 4669, "pitch": 65, "duration": 13, "velocity": 89}, {"time": 4675, "pitch": 45, "duration": 5, "velocity": 74}, {"time": 4681, "pitch": 43, "duration": 34, "velocity": 86}, {"time": 4687, "pitch": 50, "duration": 20, "velocity": 76}, {"time": 4693, "pitch": 55, "duration": 5, "velocity": 97}, {"time": 4699, "pitch": 58, "duration": 15, "velocity": 107}, {"time": 4699, "pitch": 62, "duration": 17, "velocity": 93}, {"time": 4711, "pitch": 50, "duration": 2, "velocity": 50}, {"time": 4729, "pitch": 36, "duration": 33, "velocity": 66}, {"time": 4729, "pitch": 60, "duration": 7, "velocity": 72}, {"time": 4729, "pitch": 63, "duration": 13, "velocity": 82}, {"time": 4729, "pitch": 67, "duration": 14, "velocity": 73}, {"time": 4735, "pitch": 43, "duration": 28, "velocity": 52}, {"time": 4741, "pitch": 48, "duration": 11, "velocity": 83}, {"time": 4747, "pitch": 63, "duration": 14, "velocity": 117}, {"time": 4747, "pitch": 67, "duration": 14, "velocity": 95}, {"time": 4759, "pitch": 48, "duration": 5, "velocity": 52}, {"time": 4765, "pitch": 63, "duration": 11, "velocity": 122}, {"time": 4765, "pitch": 67, "duration": 9, "velocity": 97}, {"time": 4777, "pitch": 41, "duration": 34, "velocity": 78}, {"time": 4777, "pitch": 60, "duration": 5, "velocity": 86}, {"time": 4777, "pitch": 65, "duration": 7, "velocity": 93}, {"time": 4777, "pitch": 69, "duration": 7, "velocity": 95}, {"time": 4783, "pitch": 48, "duration": 30, "velocity": 57}, {"time": 4789, "pitch": 53, "duration": 14, "velocity": 89}, {"time": 4795, "pitch": 60, "duration": 5, "velocity": 60}, {"time": 4801, "pitch": 65, "duration": 12, "velocity": 117}, {"time": 4801, "pitch": 69, "duration": 12, "velocity": 117}, {"time": 4807, "pitch": 53, "duration": 7, "velocity": 85}, {"time": 4813, "pitch": 60, "duration": 2, "velocity": 88}, {"time": 4825, "pitch": 46, "duration": 40, "velocity": 127}, {"time": 4825, "pitch": 65, "duration": 14, "velocity": 97}, {"time": 4825, "pitch": 70, "duration": 15, "velocity": 117}, {"time": 4831, "pitch": 58, "duration": 18, "velocity": 99}, {"time": 4837, "pitch": 62, "duration": 3, "velocity": 69}, {"time": 4843, "pitch": 65, "duration": 15, "velocity": 102}, {"time": 4843, "pitch": 70, "duration": 15, "velocity": 127}, {"time": 4855, "pitch": 58, "duration": 13, "velocity": 76}, {"time": 4861, "pitch": 62, "duration": 1, "velocity": 92}, {"time": 4861, "pitch": 65, "duration": 1, "velocity": 72}, {"time": 4861, "pitch": 70, "duration": 1, "velocity": 72}, {"time": 4873, "pitch": 46, "duration": 34, "velocity": 102}, {"time": 4873, "pitch": 58, "duration": 9, "velocity": 107}, {"time": 4879, "pitch": 74, "duration": 1, "velocity": 112}, {"time": 4879, "pitch": 86, "duration": 1, "velocity": 97}, {"time": 4885, "pitch": 58, "duration": 8, "velocity": 97}, {"time": 4891, "pitch": 72, "duration": 2, "velocity": 89}, {"time": 4891, "pitch": 84, "duration": 1, "velocity": 85}, {"time": 4897, "pitch": 58, "duration": 10, "velocity": 117}, {"time": 4897, "pitch": 74, "duration": 2, "velocity": 102}, {"time": 4897, "pitch": 86, "duration": 1, "velocity": 92}, {"time": 4909, "pitch": 68, "duration": 1, "velocity": 95}, {"time": 4921, "pitch": 39, "duration": 37, "velocity": 96}, {"time": 4921, "pitch": 63, "duration": 6, "velocity": 79}, {"time": 4921, "pitch": 67, "duration": 11, "velocity": 76}, {"time": 4921, "pitch": 70, "duration": 17, "velocity": 81}, {"time": 4927, "pitch": 51, "duration": 22, "velocity": 66}, {"time": 4933, "pitch": 63, "duration": 9, "velocity": 67}, {"time": 4939, "pitch": 67, "duration": 26, "velocity": 59}, {"time": 4939, "pitch": 70, "duration": 28, "velocity": 53}, {"time": 4939, "pitch": 75, "duration": 18, "velocity": 100}, {"time": 4951, "pitch": 51, "duration": 7, "velocity": 63}, {"time": 4957, "pitch": 63, "duration": 7, "velocity": 72}, {"time": 4963, "pitch": 75, "duration": 4, "velocity": 49}, {"time": 4969, "pitch": 39, "duration": 1, "velocity": 96}, {"time": 4969, "pitch": 63, "duration": 14, "velocity": 77}, {"time": 4969, "pitch": 67, "duration": 15, "velocity": 76}, {"time": 4969, "pitch": 70, "duration": 20, "velocity": 67}, {"time": 4969, "pitch": 75, "duration": 16, "velocity": 99}, {"time": 4987, "pitch": 63, "duration": 4, "velocity": 63}, {"time": 4993, "pitch": 67, "duration": 11, "velocity": 93}, {"time": 4993, "pitch": 70, "duration": 13, "velocity": 95}, {"time": 4993, "pitch": 75, "duration": 12, "velocity": 112}, {"time": 4999, "pitch": 51, "duration": 2, "velocity": 22}, {"time": 4999, "pitch": 58, "duration": 2, "velocity": 89}, {"time": 5005, "pitch": 63, "duration": 1, "velocity": 99}, {"time": 5017, "pitch": 38, "duration": 35, "velocity": 63}, {"time": 5017, "pitch": 62, "duration": 14, "velocity": 107}, {"time": 5017, "pitch": 65, "duration": 16, "velocity": 99}, {"time": 5017, "pitch": 69, "duration": 16, "velocity": 96}, {"time": 5023, "pitch": 45, "duration": 30, "velocity": 72}, {"time": 5029, "pitch": 50, "duration": 15, "velocity": 90}, {"time": 5035, "pitch": 65, "duration": 16, "velocity": 100}, {"time": 5035, "pitch": 69, "duration": 20, "velocity": 99}, {"time": 5047, "pitch": 50, "duration": 8, "velocity": 45}, {"time": 5053, "pitch": 62, "duration": 3, "velocity": 89}, {"time": 5053, "pitch": 65, "duration": 2, "velocity": 64}, {"time": 5065, "pitch": 43, "duration": 32, "velocity": 59}, {"time": 5065, "pitch": 62, "duration": 2, "velocity": 76}, {"time": 5065, "pitch": 67, "duration": 2, "velocity": 93}, {"time": 5065, "pitch": 70, "duration": 2, "velocity": 97}, {"time": 5071, "pitch": 50, "duration": 20, "velocity": 45}, {"time": 5077, "pitch": 55, "duration": 8, "velocity": 90}, {"time": 5083, "pitch": 58, "duration": 16, "velocity": 102}, {"time": 5083, "pitch": 62, "duration": 16, "velocity": 90}, {"time": 5113, "pitch": 36, "duration": 1, "velocity": 59}, {"time": 5113, "pitch": 60, "duration": 13, "velocity": 71}, {"time": 5113, "pitch": 63, "duration": 15, "velocity": 89}, {"time": 5113, "pitch": 67, "duration": 15, "velocity": 73}, {"time": 5125, "pitch": 48, "duration": 21, "velocity": 39}, {"time": 5131, "pitch": 63, "duration": 19, "velocity": 96}, {"time": 5131, "pitch": 67, "duration": 19, "velocity": 73}, {"time": 5143, "pitch": 55, "duration": 3, "velocity": 36}, {"time": 5149, "pitch": 60, "duration": 2, "velocity": 62}, {"time": 5160, "pitch": 69, "duration": 50, "velocity": 72}, {"time": 5160, "pitch": 65, "duration": 50, "velocity": 73}, {"time": 5160, "pitch": 60, "duration": 50, "velocity": 79}, {"time": 5160, "pitch": 41, "duration": 50, "velocity": 90}, {"time": 5209, "pitch": 46, "duration": 44, "velocity": 83}, {"time": 5214, "pitch": 58, "duration": 18, "velocity": 72}, {"time": 5220, "pitch": 62, "duration": 14, "velocity": 44}, {"time": 5226, "pitch": 69, "duration": 32, "velocity": 65}, {"time": 5238, "pitch": 58, "duration": 16, "velocity": 37}, {"time": 5244, "pitch": 65, "duration": 13, "velocity": 61}, {"time": 5249, "pitch": 62, "duration": 9, "velocity": 39}, {"time": 5256, "pitch": 46, "duration": 46, "velocity": 88}, {"time": 5262, "pitch": 58, "duration": 20, "velocity": 68}, {"time": 5268, "pitch": 57, "duration": 8, "velocity": 39}, {"time": 5274, "pitch": 65, "duration": 35, "velocity": 65}, {"time": 5286, "pitch": 58, "duration": 6, "velocity": 40}, {"time": 5292, "pitch": 57, "duration": 14, "velocity": 65}, {"time": 5298, "pitch": 62, "duration": 10, "velocity": 42}, {"time": 5305, "pitch": 46, "duration": 73, "velocity": 69}, {"time": 5310, "pitch": 58, "duration": 64, "velocity": 43}, {"time": 5316, "pitch": 57, "duration": 60, "velocity": 35}, {"time": 5322, "pitch": 65, "duration": 55, "velocity": 63}, {"time": 5341, "pitch": 62, "duration": 35, "velocity": 31}, {"time": 5360, "pitch": 58, "duration": 14, "velocity": 60}, {"time": 5360, "pitch": 34, "duration": 75, "velocity": 82}, {"time": 5360, "pitch": 65, "duration": 17, "velocity": 66}, {"time": 5360, "pitch": 62, "duration": 16, "velocity": 57}], "annotations": [{"time": 360, "annotation": {"number": 64, "value": 127}, "group": "control_change"}, {"time": 455, "annotation": {"number": 64, "value": 0}, "group": "control_change"}, {"time": 455, "annotation": {"number": 64, "value": 127}, "group": "control_change"}, {"time": 457, "annotation": {"number": 64, "value": 127}, "group": "control_change"}, {"time": 887, "annotation": {"number": 64, "value": 0}, "group": "control_change"}, {"time": 889, "annotation": {"number": 64, "value": 127}, "group": "control_change"}, {"time": 936, "annotation": {"number": 64, "value": 0}, "group": "control_change"}, {"time": 940, "annotation": {"number": 64, "value": 127}, "group": "control_change"}, {"time": 983, "annotation": {"number": 64, "value": 0}, "group": "control_change"}, {"time": 986, "annotation": {"number": 64, "value": 127}, "group": "control_change"}, {"time": 1030, "annotation": {"number": 64, "value": 0}, "group": "control_change"}, {"time": 1033, "annotation": {"number": 64, "value": 127}, "group": "control_change"}, {"time": 1078, "annotation": {"number": 64, "value": 0}, "group": "control_change"}, {"time": 1082, "annotation": {"number": 64, "value": 127}, "group": "control_change"}, {"time": 1106, "annotation": {"number": 64, "value": 127}, "group": "control_change"}, {"time": 1123, "annotation": {"number": 64, "value": 0}, "group": "control_change"}, {"time": 1128, "annotation": {"number": 64, "value": 127}, "group": "control_change"}, {"time": 1174, "annotation": {"number": 64, "value": 0}, "group": "control_change"}, {"time": 1176, "annotation": {"number": 64, "value": 127}, "group": "control_change"}, {"time": 1222, "annotation": {"number": 64, "value": 0}, "group": "control_change"}, {"time": 1224, "annotation": {"number": 64, "value": 127}, "group": "control_change"}, {"time": 1268, "annotation": {"number": 64, "value": 0}, "group": "control_change"}, {"time": 1271, "annotation": {"number": 64, "value": 127}, "group": "control_change"}, {"time": 1318, "annotation": {"number": 64, "value": 0}, "group": "control_change"}, {"time": 1321, "annotation": {"number": 64, "value": 127}, "group": "control_change"}, {"time": 1365, "annotation": {"number": 64, "value": 0}, "group": "control_change"}, {"time": 1368, "annotation": {"number": 64, "value": 127}, "group": "control_change"}, {"time": 1414, "annotation": {"number": 64, "value": 0}, "group": "control_change"}, {"time": 1416, "annotation": {"number": 64, "value": 127}, "group": "control_change"}, {"time": 1461, "annotation": {"number": 64, "value": 0}, "group": "control_change"}, {"time": 1464, "annotation": {"number": 64, "value": 127}, "group": "control_change"}, {"time": 1487, "annotation": {"number": 64, "value": 127}, "group": "control_change"}, {"time": 1494, "annotation": {"number": 64, "value": 0}, "group": "control_change"}, {"time": 1511, "annotation": {"number": 64, "value": 127}, "group": "control_change"}, {"time": 1557, "annotation": {"number": 64, "value": 0}, "group": "control_change"}, {"time": 1560, "annotation": {"number": 64, "value": 127}, "group": "control_change"}, {"time": 1604, "annotation": {"number": 64, "value": 0}, "group": "control_change"}, {"time": 1608, "annotation": {"number": 64, "value": 127}, "group": "control_change"}, {"time": 1654, "annotation": {"number": 64, "value": 0}, "group": "control_change"}, {"time": 1657, "annotation": {"number": 64, "value": 127}, "group": "control_change"}, {"time": 1702, "annotation": {"number": 64, "value": 0}, "group": "control_change"}, {"time": 1708, "annotation": {"number": 64, "value": 127}, "group": "control_change"}, {"time": 1748, "annotation": {"number": 64, "value": 0}, "group": "control_change"}, {"time": 1752, "annotation": {"number": 64, "value": 127}, "group": "control_change"}, {"time": 1797, "annotation": {"number": 64, "value": 0}, "group": "control_change"}, {"time": 1801, "annotation": {"number": 64, "value": 127}, "group": "control_change"}, {"time": 1844, "annotation": {"number": 64, "value": 0}, "group": "control_change"}, {"time": 1847, "annotation": {"number": 64, "value": 127}, "group": "control_change"}, {"time": 1872, "annotation": {"number": 64, "value": 0}, "group": "control_change"}, {"time": 1898, "annotation": {"number": 64, "value": 127}, "group": "control_change"}, {"time": 1989, "annotation": {"number": 64, "value": 0}, "group": "control_change"}, {"time": 1993, "annotation": {"number": 64, "value": 127}, "group": "control_change"}, {"time": 2034, "annotation": {"number": 64, "value": 0}, "group": "control_change"}, {"time": 2041, "annotation": {"number": 64, "value": 127}, "group": "control_change"}, {"time": 2085, "annotation": {"number": 64, "value": 0}, "group": "control_change"}, {"time": 2089, "annotation": {"number": 64, "value": 127}, "group": "control_change"}, {"time": 2134, "annotation": {"number": 64, "value": 0}, "group": "control_change"}, {"time": 2137, "annotation": {"number": 64, "value": 127}, "group": "control_change"}, {"time": 2180, "annotation": {"number": 64, "value": 0}, "group": "control_change"}, {"time": 2184, "annotation": {"number": 64, "value": 127}, "group": "control_change"}, {"time": 2230, "annotation": {"number": 64, "value": 0}, "group": "control_change"}, {"time": 2233, "annotation": {"number": 64, "value": 127}, "group": "control_change"}, {"time": 2276, "annotation": {"number": 64, "value": 0}, "group": "control_change"}, {"time": 2281, "annotation": {"number": 64, "value": 127}, "group": "control_change"}, {"time": 2326, "annotation": {"number": 64, "value": 0}, "group": "control_change"}, {"time": 2329, "annotation": {"number": 64, "value": 127}, "group": "control_change"}, {"time": 2373, "annotation": {"number": 64, "value": 0}, "group": "control_change"}, {"time": 2376, "annotation": {"number": 64, "value": 127}, "group": "control_change"}, {"time": 2421, "annotation": {"number": 64, "value": 0}, "group": "control_change"}, {"time": 2424, "annotation": {"number": 64, "value": 127}, "group": "control_change"}, {"time": 2469, "annotation": {"number": 64, "value": 0}, "group": "control_change"}, {"time": 2472, "annotation": {"number": 64, "value": 127}, "group": "control_change"}, {"time": 2517, "annotation": {"number": 64, "value": 0}, "group": "control_change"}, {"time": 2521, "annotation": {"number": 64, "value": 127}, "group": "control_change"}, {"time": 2565, "annotation": {"number": 64, "value": 0}, "group": "control_change"}, {"time": 2569, "annotation": {"number": 64, "value": 127}, "group": "control_change"}, {"time": 2612, "annotation": {"number": 64, "value": 0}, "group": "control_change"}, {"time": 2616, "annotation": {"number": 64, "value": 127}, "group": "control_change"}, {"time": 2661, "annotation": {"number": 64, "value": 0}, "group": "control_change"}, {"time": 2667, "annotation": {"number": 64, "value": 127}, "group": "control_change"}, {"time": 2758, "annotation": {"number": 64, "value": 0}, "group": "control_change"}, {"time": 2760, "annotation": {"number": 64, "value": 127}, "group": "control_change"}, {"time": 2805, "annotation": {"number": 64, "value": 0}, "group": "control_change"}, {"time": 2807, "annotation": {"number": 64, "value": 127}, "group": "control_change"}, {"time": 2854, "annotation": {"number": 64, "value": 0}, "group": "control_change"}, {"time": 2856, "annotation": {"number": 64, "value": 127}, "group": "control_change"}, {"time": 2901, "annotation": {"number": 64, "value": 0}, "group": "control_change"}, {"time": 2904, "annotation": {"number": 64, "value": 127}, "group": "control_change"}, {"time": 2951, "annotation": {"number": 64, "value": 127}, "group": "control_change"}, {"time": 2952, "annotation": {"number": 64, "value": 0}, "group": "control_change"}, {"time": 2975, "annotation": {"number": 64, "value": 0}, "group": "control_change"}, {"time": 3095, "annotation": {"number": 64, "value": 0}, "group": "control_change"}, {"time": 3095, "annotation": {"number": 64, "value": 127}, "group": "control_change"}, {"time": 3097, "annotation": {"number": 64, "value": 127}, "group": "control_change"}, {"time": 3527, "annotation": {"number": 64, "value": 0}, "group": "control_change"}, {"time": 3529, "annotation": {"number": 64, "value": 127}, "group": "control_change"}, {"time": 3576, "annotation": {"number": 64, "value": 0}, "group": "control_change"}, {"time": 3607, "annotation": {"number": 64, "value": 127}, "group": "control_change"}, {"time": 3623, "annotation": {"number": 64, "value": 0}, "group": "control_change"}, {"time": 3626, "annotation": {"number": 64, "value": 127}, "group": "control_change"}, {"time": 3670, "annotation": {"number": 64, "value": 0}, "group": "control_change"}, {"time": 3673, "annotation": {"number": 64, "value": 127}, "group": "control_change"}, {"time": 3674, "annotation": {"number": 64, "value": 0}, "group": "control_change"}, {"time": 3718, "annotation": {"number": 64, "value": 0}, "group": "control_change"}, {"time": 3722, "annotation": {"number": 64, "value": 127}, "group": "control_change"}, {"time": 3746, "annotation": {"number": 64, "value": 127}, "group": "control_change"}, {"time": 3763, "annotation": {"number": 64, "value": 0}, "group": "control_change"}, {"time": 3768, "annotation": {"number": 64, "value": 127}, "group": "control_change"}, {"time": 3814, "annotation": {"number": 64, "value": 0}, "group": "control_change"}, {"time": 3816, "annotation": {"number": 64, "value": 127}, "group": "control_change"}, {"time": 3862, "annotation": {"number": 64, "value": 0}, "group": "control_change"}, {"time": 3864, "annotation": {"number": 64, "value": 127}, "group": "control_change"}, {"time": 3908, "annotation": {"number": 64, "value": 0}, "group": "control_change"}, {"time": 3911, "annotation": {"number": 64, "value": 127}, "group": "control_change"}, {"time": 3958, "annotation": {"number": 64, "value": 0}, "group": "control_change"}, {"time": 3961, "annotation": {"number": 64, "value": 127}, "group": "control_change"}, {"time": 4005, "annotation": {"number": 64, "value": 0}, "group": "control_change"}, {"time": 4008, "annotation": {"number": 64, "value": 127}, "group": "control_change"}, {"time": 4054, "annotation": {"number": 64, "value": 0}, "group": "control_change"}, {"time": 4056, "annotation": {"number": 64, "value": 127}, "group": "control_change"}, {"time": 4101, "annotation": {"number": 64, "value": 0}, "group": "control_change"}, {"time": 4104, "annotation": {"number": 64, "value": 127}, "group": "control_change"}, {"time": 4127, "annotation": {"number": 64, "value": 127}, "group": "control_change"}, {"time": 4134, "annotation": {"number": 64, "value": 0}, "group": "control_change"}, {"time": 4151, "annotation": {"number": 64, "value": 127}, "group": "control_change"}, {"time": 4197, "annotation": {"number": 64, "value": 0}, "group": "control_change"}, {"time": 4200, "annotation": {"number": 64, "value": 127}, "group": "control_change"}, {"time": 4244, "annotation": {"number": 64, "value": 0}, "group": "control_change"}, {"time": 4248, "annotation": {"number": 64, "value": 127}, "group": "control_change"}, {"time": 4294, "annotation": {"number": 64, "value": 0}, "group": "control_change"}, {"time": 4297, "annotation": {"number": 64, "value": 127}, "group": "control_change"}, {"time": 4342, "annotation": {"number": 64, "value": 0}, "group": "control_change"}, {"time": 4348, "annotation": {"number": 64, "value": 127}, "group": "control_change"}, {"time": 4388, "annotation": {"number": 64, "value": 0}, "group": "control_change"}, {"time": 4392, "annotation": {"number": 64, "value": 127}, "group": "control_change"}, {"time": 4437, "annotation": {"number": 64, "value": 0}, "group": "control_change"}, {"time": 4441, "annotation": {"number": 64, "value": 127}, "group": "control_change"}, {"time": 4484, "annotation": {"number": 64, "value": 0}, "group": "control_change"}, {"time": 4487, "annotation": {"number": 64, "value": 127}, "group": "control_change"}, {"time": 4512, "annotation": {"number": 64, "value": 0}, "group": "control_change"}, {"time": 4538, "annotation": {"number": 64, "value": 127}, "group": "control_change"}, {"time": 4629, "annotation": {"number": 64, "value": 0}, "group": "control_change"}, {"time": 4633, "annotation": {"number": 64, "value": 127}, "group": "control_change"}, {"time": 4674, "annotation": {"number": 64, "value": 0}, "group": "control_change"}, {"time": 4681, "annotation": {"number": 64, "value": 127}, "group": "control_change"}, {"time": 4725, "annotation": {"number": 64, "value": 0}, "group": "control_change"}, {"time": 4729, "annotation": {"number": 64, "value": 127}, "group": "control_change"}, {"time": 4774, "annotation": {"number": 64, "value": 0}, "group": "control_change"}, {"time": 4777, "annotation": {"number": 64, "value": 127}, "group": "control_change"}, {"time": 4820, "annotation": {"number": 64, "value": 0}, "group": "control_change"}, {"time": 4824, "annotation": {"number": 64, "value": 127}, "group": "control_change"}, {"time": 4870, "annotation": {"number": 64, "value": 0}, "group": "control_change"}, {"time": 4873, "annotation": {"number": 64, "value": 127}, "group": "control_change"}, {"time": 4916, "annotation": {"number": 64, "value": 0}, "group": "control_change"}, {"time": 4921, "annotation": {"number": 64, "value": 127}, "group": "control_change"}, {"time": 4966, "annotation": {"number": 64, "value": 0}, "group": "control_change"}, {"time": 4969, "annotation": {"number": 64, "value": 127}, "group": "control_change"}, {"time": 5013, "annotation": {"number": 64, "value": 0}, "group": "control_change"}, {"time": 5016, "annotation": {"number": 64, "value": 127}, "group": "control_change"}, {"time": 5061, "annotation": {"number": 64, "value": 0}, "group": "control_change"}, {"time": 5064, "annotation": {"number": 64, "value": 127}, "group": "control_change"}, {"time": 5109, "annotation": {"number": 64, "value": 0}, "group": "control_change"}, {"time": 5112, "annotation": {"number": 64, "value": 127}, "group": "control_change"}, {"time": 5157, "annotation": {"number": 64, "value": 0}, "group": "control_change"}, {"time": 5160, "annotation": {"number": 64, "value": 127}, "group": "control_change"}, {"time": 5208, "annotation": {"number": 64, "value": 127}, "group": "control_change"}, {"time": 5208, "annotation": {"number": 64, "value": 0}, "group": "control_change"}, {"time": 5252, "annotation": {"number": 64, "value": 0}, "group": "control_change"}, {"time": 5256, "annotation": {"number": 64, "value": 127}, "group": "control_change"}, {"time": 5301, "annotation": {"number": 64, "value": 0}, "group": "control_change"}, {"time": 5305, "annotation": {"number": 64, "value": 127}, "group": "control_change"}, {"time": 5366, "annotation": {"number": 64, "value": 0}, "group": "control_change"}, {"time": 5430, "annotation": {"number": 64, "value": 127}, "group": "control_change"}, {"time": 5446, "annotation": {"number": 64, "value": 0}, "group": "control_change"}, {"time": 5448, "annotation": {"number": 64, "value": 127}, "group": "control_change"}, {"time": 5449, "annotation": {"number": 64, "value": 0}, "group": "control_change"}, {"time": 5450, "annotation": {"number": 64, "value": 127}, "group": "control_change"}, {"time": 5453, "annotation": {"number": 64, "value": 0}, "group": "control_change"}]}]}