{"metadata": {"schema_version": "0.2", "title": "None", "source_filename": "047.mid", "source_format": "midi"}, "resolution": 12, "tempos": [{"time": 0, "qpm": 64.0}], "time_signatures": [{"time": 0, "numerator": 1, "denominator": 4}], "tracks": [{"program": 4, "is_drum": false, "name": "MELODY", "notes": [{"time": 25, "pitch": 68, "duration": 4, "velocity": 84}, {"time": 31, "pitch": 69, "duration": 4, "velocity": 84}, {"time": 37, "pitch": 71, "duration": 4, "velocity": 84}, {"time": 43, "pitch": 71, "duration": 1, "velocity": 84}, {"time": 46, "pitch": 71, "duration": 2, "velocity": 84}, {"time": 55, "pitch": 71, "duration": 1, "velocity": 84}, {"time": 58, "pitch": 71, "duration": 4, "velocity": 84}, {"time": 67, "pitch": 71, "duration": 5, "velocity": 84}, {"time": 73, "pitch": 75, "duration": 6, "velocity": 84}, {"time": 82, "pitch": 76, "duration": 4, "velocity": 84}, {"time": 91, "pitch": 76, "duration": 17, "velocity": 84}, {"time": 127, "pitch": 80, "duration": 1, "velocity": 85}, {"time": 130, "pitch": 80, "duration": 1, "velocity": 85}, {"time": 133, "pitch": 80, "duration": 6, "velocity": 85}, {"time": 139, "pitch": 81, "duration": 2, "velocity": 85}, {"time": 142, "pitch": 76, "duration": 7, "velocity": 85}, {"time": 154, "pitch": 73, "duration": 2, "velocity": 85}, {"time": 157, "pitch": 72, "duration": 4, "velocity": 85}, {"time": 163, "pitch": 72, "duration": 4, "velocity": 85}, {"time": 169, "pitch": 78, "duration": 4, "velocity": 85}, {"time": 175, "pitch": 80, "duration": 1, "velocity": 85}, {"time": 178, "pitch": 80, "duration": 27, "velocity": 85}, {"time": 220, "pitch": 71, "duration": 3, "velocity": 85}, {"time": 223, "pitch": 80, "duration": 1, "velocity": 85}, {"time": 226, "pitch": 80, "duration": 1, "velocity": 85}, {"time": 229, "pitch": 80, "duration": 5, "velocity": 85}, {"time": 235, "pitch": 81, "duration": 1, "velocity": 85}, {"time": 238, "pitch": 83, "duration": 5, "velocity": 85}, {"time": 247, "pitch": 76, "duration": 2, "velocity": 85}, {"time": 250, "pitch": 78, "duration": 20, "velocity": 85}, {"time": 277, "pitch": 80, "duration": 3, "velocity": 85}, {"time": 283, "pitch": 81, "duration": 1, "velocity": 85}, {"time": 286, "pitch": 83, "duration": 7, "velocity": 85}, {"time": 295, "pitch": 71, "duration": 1, "velocity": 85}, {"time": 298, "pitch": 77, "duration": 11, "velocity": 85}, {"time": 313, "pitch": 80, "duration": 1, "velocity": 85}, {"time": 316, "pitch": 81, "duration": 1, "velocity": 85}, {"time": 319, "pitch": 83, "duration": 1, "velocity": 85}, {"time": 322, "pitch": 78, "duration": 6, "velocity": 85}, {"time": 328, "pitch": 76, "duration": 2, "velocity": 85}, {"time": 337, "pitch": 80, "duration": 2, "velocity": 85}, {"time": 340, "pitch": 81, "duration": 1, "velocity": 85}, {"time": 343, "pitch": 83, "duration": 1, "velocity": 85}, {"time": 346, "pitch": 78, "duration": 6, "velocity": 85}, {"time": 352, "pitch": 76, "duration": 2, "velocity": 85}, {"time": 361, "pitch": 80, "duration": 1, "velocity": 85}, {"time": 364, "pitch": 81, "duration": 1, "velocity": 85}, {"time": 367, "pitch": 83, "duration": 2, "velocity": 85}, {"time": 370, "pitch": 78, "duration": 7, "velocity": 85}, {"time": 379, "pitch": 76, "duration": 36, "velocity": 85}, {"time": 421, "pitch": 71, "duration": 4, "velocity": 86}, {"time": 427, "pitch": 71, "duration": 1, "velocity": 86}, {"time": 430, "pitch": 71, "duration": 5, "velocity": 86}, {"time": 439, "pitch": 71, "duration": 1, "velocity": 86}, {"time": 442, "pitch": 71, "duration": 5, "velocity": 86}, {"time": 451, "pitch": 71, "duration": 3, "velocity": 86}, {"time": 454, "pitch": 78, "duration": 6, "velocity": 86}, {"time": 463, "pitch": 75, "duration": 3, "velocity": 86}, {"time": 469, "pitch": 76, "duration": 25, "velocity": 86}, {"time": 511, "pitch": 80, "duration": 1, "velocity": 86}, {"time": 514, "pitch": 80, "duration": 1, "velocity": 86}, {"time": 517, "pitch": 80, "duration": 3, "velocity": 86}, {"time": 523, "pitch": 81, "duration": 2, "velocity": 86}, {"time": 526, "pitch": 76, "duration": 6, "velocity": 86}, {"time": 538, "pitch": 73, "duration": 1, "velocity": 86}, {"time": 541, "pitch": 72, "duration": 3, "velocity": 86}, {"time": 547, "pitch": 72, "duration": 3, "velocity": 86}, {"time": 553, "pitch": 78, "duration": 4, "velocity": 86}, {"time": 559, "pitch": 80, "duration": 1, "velocity": 86}, {"time": 562, "pitch": 80, "duration": 26, "velocity": 86}, {"time": 604, "pitch": 71, "duration": 1, "velocity": 86}, {"time": 607, "pitch": 80, "duration": 1, "velocity": 86}, {"time": 610, "pitch": 80, "duration": 1, "velocity": 86}, {"time": 613, "pitch": 80, "duration": 4, "velocity": 87}, {"time": 619, "pitch": 81, "duration": 1, "velocity": 87}, {"time": 622, "pitch": 83, "duration": 5, "velocity": 87}, {"time": 631, "pitch": 76, "duration": 4, "velocity": 88}, {"time": 637, "pitch": 78, "duration": 15, "velocity": 88}, {"time": 661, "pitch": 80, "duration": 4, "velocity": 88}, {"time": 667, "pitch": 81, "duration": 1, "velocity": 88}, {"time": 670, "pitch": 83, "duration": 5, "velocity": 88}, {"time": 679, "pitch": 71, "duration": 5, "velocity": 88}, {"time": 685, "pitch": 77, "duration": 15, "velocity": 88}, {"time": 697, "pitch": 80, "duration": 1, "velocity": 88}, {"time": 700, "pitch": 81, "duration": 1, "velocity": 88}, {"time": 703, "pitch": 83, "duration": 1, "velocity": 88}, {"time": 706, "pitch": 78, "duration": 6, "velocity": 88}, {"time": 712, "pitch": 76, "duration": 2, "velocity": 88}, {"time": 721, "pitch": 80, "duration": 2, "velocity": 89}, {"time": 724, "pitch": 81, "duration": 1, "velocity": 89}, {"time": 727, "pitch": 83, "duration": 2, "velocity": 89}, {"time": 730, "pitch": 78, "duration": 6, "velocity": 89}, {"time": 736, "pitch": 76, "duration": 2, "velocity": 89}, {"time": 745, "pitch": 80, "duration": 1, "velocity": 89}, {"time": 748, "pitch": 81, "duration": 1, "velocity": 89}, {"time": 751, "pitch": 83, "duration": 1, "velocity": 89}, {"time": 754, "pitch": 78, "duration": 6, "velocity": 89}, {"time": 763, "pitch": 76, "duration": 21, "velocity": 89}, {"time": 787, "pitch": 71, "duration": 4, "velocity": 89}, {"time": 793, "pitch": 83, "duration": 4, "velocity": 89}, {"time": 799, "pitch": 81, "duration": 1, "velocity": 89}, {"time": 802, "pitch": 80, "duration": 6, "velocity": 89}, {"time": 811, "pitch": 71, "duration": 3, "velocity": 89}, {"time": 817, "pitch": 83, "duration": 3, "velocity": 89}, {"time": 823, "pitch": 81, "duration": 1, "velocity": 89}, {"time": 826, "pitch": 80, "duration": 5, "velocity": 89}, {"time": 835, "pitch": 71, "duration": 3, "velocity": 89}, {"time": 841, "pitch": 83, "duration": 3, "velocity": 89}, {"time": 847, "pitch": 81, "duration": 1, "velocity": 89}, {"time": 850, "pitch": 78, "duration": 4, "velocity": 89}, {"time": 856, "pitch": 76, "duration": 1, "velocity": 90}, {"time": 859, "pitch": 78, "duration": 1, "velocity": 90}, {"time": 862, "pitch": 76, "duration": 1, "velocity": 90}, {"time": 865, "pitch": 78, "duration": 3, "velocity": 90}, {"time": 871, "pitch": 80, "duration": 1, "velocity": 90}, {"time": 874, "pitch": 80, "duration": 7, "velocity": 90}, {"time": 883, "pitch": 71, "duration": 3, "velocity": 90}, {"time": 889, "pitch": 83, "duration": 4, "velocity": 90}, {"time": 895, "pitch": 81, "duration": 1, "velocity": 90}, {"time": 898, "pitch": 80, "duration": 5, "velocity": 90}, {"time": 907, "pitch": 71, "duration": 3, "velocity": 90}, {"time": 913, "pitch": 83, "duration": 3, "velocity": 90}, {"time": 919, "pitch": 85, "duration": 1, "velocity": 90}, {"time": 922, "pitch": 80, "duration": 5, "velocity": 90}, {"time": 931, "pitch": 78, "duration": 1, "velocity": 91}, {"time": 933, "pitch": 78, "duration": 2, "velocity": 91}, {"time": 937, "pitch": 76, "duration": 2, "velocity": 91}, {"time": 940, "pitch": 78, "duration": 5, "velocity": 91}, {"time": 949, "pitch": 81, "duration": 5, "velocity": 91}, {"time": 955, "pitch": 80, "duration": 2, "velocity": 91}, {"time": 958, "pitch": 76, "duration": 4, "velocity": 91}, {"time": 964, "pitch": 78, "duration": 4, "velocity": 91}, {"time": 970, "pitch": 80, "duration": 9, "velocity": 91}, {"time": 985, "pitch": 83, "duration": 2, "velocity": 91}, {"time": 988, "pitch": 85, "duration": 3, "velocity": 91}, {"time": 994, "pitch": 85, "duration": 4, "velocity": 91}, {"time": 1000, "pitch": 83, "duration": 2, "velocity": 91}, {"time": 1003, "pitch": 85, "duration": 1, "velocity": 91}, {"time": 1006, "pitch": 83, "duration": 2, "velocity": 91}, {"time": 1009, "pitch": 85, "duration": 3, "velocity": 92}, {"time": 1012, "pitch": 85, "duration": 3, "velocity": 92}, {"time": 1015, "pitch": 83, "duration": 1, "velocity": 92}, {"time": 1018, "pitch": 88, "duration": 3, "velocity": 92}, {"time": 1024, "pitch": 83, "duration": 5, "velocity": 92}, {"time": 1030, "pitch": 88, "duration": 3, "velocity": 92}, {"time": 1036, "pitch": 85, "duration": 7, "velocity": 92}, {"time": 1042, "pitch": 83, "duration": 5, "velocity": 92}, {"time": 1048, "pitch": 83, "duration": 1, "velocity": 92}, {"time": 1051, "pitch": 83, "duration": 2, "velocity": 92}, {"time": 1054, "pitch": 80, "duration": 2, "velocity": 92}, {"time": 1057, "pitch": 83, "duration": 1, "velocity": 92}, {"time": 1060, "pitch": 83, "duration": 1, "velocity": 92}, {"time": 1063, "pitch": 85, "duration": 1, "velocity": 92}, {"time": 1066, "pitch": 80, "duration": 11, "velocity": 92}, {"time": 1081, "pitch": 83, "duration": 3, "velocity": 92}, {"time": 1084, "pitch": 81, "duration": 2, "velocity": 92}, {"time": 1090, "pitch": 80, "duration": 1, "velocity": 92}, {"time": 1093, "pitch": 80, "duration": 3, "velocity": 92}, {"time": 1099, "pitch": 81, "duration": 2, "velocity": 92}, {"time": 1102, "pitch": 73, "duration": 7, "velocity": 92}, {"time": 1111, "pitch": 76, "duration": 2, "velocity": 92}, {"time": 1114, "pitch": 80, "duration": 6, "velocity": 92}, {"time": 1123, "pitch": 78, "duration": 2, "velocity": 92}, {"time": 1126, "pitch": 75, "duration": 5, "velocity": 92}, {"time": 1132, "pitch": 76, "duration": 5, "velocity": 92}, {"time": 1141, "pitch": 78, "duration": 14, "velocity": 92}, {"time": 1156, "pitch": 77, "duration": 1, "velocity": 90}, {"time": 1159, "pitch": 78, "duration": 1, "velocity": 90}, {"time": 1165, "pitch": 80, "duration": 8, "velocity": 89}, {"time": 1177, "pitch": 83, "duration": 3, "velocity": 89}, {"time": 1183, "pitch": 81, "duration": 2, "velocity": 90}, {"time": 1186, "pitch": 80, "duration": 1, "velocity": 89}, {"time": 1189, "pitch": 80, "duration": 4, "velocity": 90}, {"time": 1195, "pitch": 81, "duration": 1, "velocity": 89}, {"time": 1198, "pitch": 73, "duration": 5, "velocity": 89}, {"time": 1204, "pitch": 75, "duration": 3, "velocity": 89}, {"time": 1210, "pitch": 75, "duration": 32, "velocity": 89}, {"time": 1651, "pitch": 71, "duration": 1, "velocity": 86}, {"time": 1654, "pitch": 71, "duration": 5, "velocity": 86}, {"time": 1663, "pitch": 71, "duration": 1, "velocity": 86}, {"time": 1666, "pitch": 71, "duration": 5, "velocity": 86}, {"time": 1675, "pitch": 71, "duration": 3, "velocity": 86}, {"time": 1678, "pitch": 78, "duration": 6, "velocity": 86}, {"time": 1687, "pitch": 75, "duration": 3, "velocity": 86}, {"time": 1693, "pitch": 76, "duration": 25, "velocity": 86}, {"time": 1735, "pitch": 80, "duration": 1, "velocity": 86}, {"time": 1738, "pitch": 80, "duration": 1, "velocity": 86}, {"time": 1741, "pitch": 80, "duration": 3, "velocity": 86}, {"time": 1747, "pitch": 81, "duration": 2, "velocity": 86}, {"time": 1750, "pitch": 76, "duration": 6, "velocity": 86}, {"time": 1762, "pitch": 73, "duration": 1, "velocity": 86}, {"time": 1765, "pitch": 72, "duration": 3, "velocity": 86}, {"time": 1771, "pitch": 72, "duration": 3, "velocity": 86}, {"time": 1777, "pitch": 78, "duration": 4, "velocity": 86}, {"time": 1783, "pitch": 80, "duration": 1, "velocity": 86}, {"time": 1786, "pitch": 80, "duration": 26, "velocity": 86}, {"time": 1828, "pitch": 71, "duration": 1, "velocity": 88}, {"time": 1831, "pitch": 80, "duration": 1, "velocity": 88}, {"time": 1834, "pitch": 80, "duration": 1, "velocity": 88}, {"time": 1837, "pitch": 80, "duration": 4, "velocity": 88}, {"time": 1843, "pitch": 81, "duration": 1, "velocity": 88}, {"time": 1846, "pitch": 83, "duration": 5, "velocity": 88}, {"time": 1855, "pitch": 76, "duration": 4, "velocity": 88}, {"time": 1861, "pitch": 78, "duration": 15, "velocity": 89}, {"time": 1885, "pitch": 80, "duration": 4, "velocity": 89}, {"time": 1891, "pitch": 81, "duration": 1, "velocity": 89}, {"time": 1894, "pitch": 83, "duration": 5, "velocity": 89}, {"time": 1900, "pitch": 85, "duration": 5, "velocity": 89}, {"time": 1909, "pitch": 77, "duration": 8, "velocity": 89}, {"time": 1921, "pitch": 80, "duration": 1, "velocity": 89}, {"time": 1924, "pitch": 81, "duration": 1, "velocity": 89}, {"time": 1927, "pitch": 83, "duration": 1, "velocity": 89}, {"time": 1930, "pitch": 78, "duration": 6, "velocity": 89}, {"time": 1936, "pitch": 76, "duration": 2, "velocity": 89}, {"time": 1945, "pitch": 80, "duration": 2, "velocity": 90}, {"time": 1948, "pitch": 81, "duration": 1, "velocity": 90}, {"time": 1951, "pitch": 83, "duration": 2, "velocity": 90}, {"time": 1954, "pitch": 78, "duration": 6, "velocity": 90}, {"time": 1960, "pitch": 76, "duration": 2, "velocity": 90}, {"time": 1969, "pitch": 80, "duration": 1, "velocity": 90}, {"time": 1972, "pitch": 81, "duration": 1, "velocity": 90}, {"time": 1975, "pitch": 83, "duration": 1, "velocity": 90}, {"time": 1978, "pitch": 78, "duration": 6, "velocity": 90}, {"time": 1987, "pitch": 76, "duration": 21, "velocity": 90}, {"time": 2011, "pitch": 71, "duration": 4, "velocity": 91}, {"time": 2017, "pitch": 83, "duration": 4, "velocity": 92}, {"time": 2023, "pitch": 81, "duration": 1, "velocity": 92}, {"time": 2026, "pitch": 80, "duration": 6, "velocity": 92}, {"time": 2035, "pitch": 71, "duration": 3, "velocity": 93}, {"time": 2041, "pitch": 83, "duration": 3, "velocity": 94}, {"time": 2047, "pitch": 81, "duration": 1, "velocity": 94}, {"time": 2050, "pitch": 80, "duration": 5, "velocity": 94}, {"time": 2059, "pitch": 71, "duration": 3, "velocity": 95}, {"time": 2065, "pitch": 83, "duration": 3, "velocity": 95}, {"time": 2071, "pitch": 81, "duration": 1, "velocity": 95}, {"time": 2074, "pitch": 78, "duration": 4, "velocity": 95}, {"time": 2080, "pitch": 76, "duration": 1, "velocity": 95}, {"time": 2083, "pitch": 78, "duration": 1, "velocity": 95}, {"time": 2086, "pitch": 76, "duration": 1, "velocity": 95}, {"time": 2089, "pitch": 78, "duration": 3, "velocity": 95}, {"time": 2095, "pitch": 80, "duration": 1, "velocity": 95}, {"time": 2098, "pitch": 80, "duration": 7, "velocity": 95}, {"time": 2107, "pitch": 71, "duration": 3, "velocity": 95}, {"time": 2113, "pitch": 83, "duration": 4, "velocity": 95}, {"time": 2119, "pitch": 81, "duration": 1, "velocity": 95}, {"time": 2122, "pitch": 80, "duration": 5, "velocity": 95}, {"time": 2131, "pitch": 71, "duration": 3, "velocity": 95}, {"time": 2137, "pitch": 83, "duration": 3, "velocity": 95}, {"time": 2143, "pitch": 85, "duration": 1, "velocity": 95}, {"time": 2146, "pitch": 80, "duration": 2, "velocity": 95}, {"time": 2149, "pitch": 78, "duration": 3, "velocity": 95}, {"time": 2155, "pitch": 78, "duration": 2, "velocity": 95}, {"time": 2157, "pitch": 76, "duration": 3, "velocity": 95}, {"time": 2161, "pitch": 76, "duration": 2, "velocity": 95}, {"time": 2164, "pitch": 78, "duration": 5, "velocity": 95}, {"time": 2173, "pitch": 81, "duration": 5, "velocity": 95}, {"time": 2179, "pitch": 80, "duration": 2, "velocity": 95}, {"time": 2182, "pitch": 76, "duration": 4, "velocity": 95}, {"time": 2188, "pitch": 78, "duration": 4, "velocity": 95}, {"time": 2194, "pitch": 80, "duration": 9, "velocity": 95}, {"time": 2209, "pitch": 83, "duration": 2, "velocity": 95}, {"time": 2212, "pitch": 85, "duration": 3, "velocity": 95}, {"time": 2218, "pitch": 85, "duration": 4, "velocity": 95}, {"time": 2224, "pitch": 83, "duration": 2, "velocity": 95}, {"time": 2227, "pitch": 85, "duration": 1, "velocity": 95}, {"time": 2230, "pitch": 83, "duration": 2, "velocity": 95}, {"time": 2233, "pitch": 85, "duration": 3, "velocity": 95}, {"time": 2236, "pitch": 85, "duration": 3, "velocity": 95}, {"time": 2239, "pitch": 83, "duration": 1, "velocity": 95}, {"time": 2242, "pitch": 88, "duration": 3, "velocity": 95}, {"time": 2248, "pitch": 83, "duration": 5, "velocity": 95}, {"time": 2254, "pitch": 88, "duration": 3, "velocity": 95}, {"time": 2260, "pitch": 85, "duration": 7, "velocity": 95}, {"time": 2266, "pitch": 83, "duration": 5, "velocity": 95}, {"time": 2272, "pitch": 83, "duration": 1, "velocity": 95}, {"time": 2275, "pitch": 83, "duration": 2, "velocity": 95}, {"time": 2278, "pitch": 80, "duration": 2, "velocity": 95}, {"time": 2281, "pitch": 83, "duration": 1, "velocity": 95}, {"time": 2284, "pitch": 83, "duration": 1, "velocity": 95}, {"time": 2287, "pitch": 85, "duration": 1, "velocity": 95}, {"time": 2290, "pitch": 80, "duration": 11, "velocity": 95}, {"time": 2305, "pitch": 83, "duration": 3, "velocity": 95}, {"time": 2308, "pitch": 81, "duration": 2, "velocity": 95}, {"time": 2314, "pitch": 80, "duration": 1, "velocity": 95}, {"time": 2317, "pitch": 80, "duration": 3, "velocity": 95}, {"time": 2323, "pitch": 81, "duration": 2, "velocity": 95}, {"time": 2326, "pitch": 73, "duration": 7, "velocity": 95}, {"time": 2335, "pitch": 76, "duration": 2, "velocity": 95}, {"time": 2338, "pitch": 80, "duration": 6, "velocity": 95}, {"time": 2347, "pitch": 78, "duration": 2, "velocity": 95}, {"time": 2350, "pitch": 75, "duration": 5, "velocity": 95}, {"time": 2356, "pitch": 76, "duration": 5, "velocity": 95}, {"time": 2365, "pitch": 78, "duration": 14, "velocity": 95}, {"time": 2380, "pitch": 77, "duration": 1, "velocity": 95}, {"time": 2383, "pitch": 78, "duration": 1, "velocity": 95}, {"time": 2389, "pitch": 80, "duration": 8, "velocity": 95}, {"time": 2401, "pitch": 83, "duration": 3, "velocity": 95}, {"time": 2407, "pitch": 81, "duration": 2, "velocity": 95}, {"time": 2410, "pitch": 80, "duration": 1, "velocity": 95}, {"time": 2413, "pitch": 80, "duration": 4, "velocity": 95}, {"time": 2419, "pitch": 81, "duration": 1, "velocity": 95}, {"time": 2422, "pitch": 73, "duration": 5, "velocity": 95}, {"time": 2428, "pitch": 75, "duration": 3, "velocity": 95}, {"time": 2434, "pitch": 75, "duration": 32, "velocity": 95}, {"time": 2467, "pitch": 71, "duration": 4, "velocity": 63}, {"time": 2473, "pitch": 83, "duration": 3, "velocity": 100}, {"time": 2479, "pitch": 81, "duration": 1, "velocity": 95}, {"time": 2482, "pitch": 80, "duration": 4, "velocity": 85}, {"time": 2491, "pitch": 71, "duration": 3, "velocity": 77}, {"time": 2497, "pitch": 83, "duration": 3, "velocity": 104}, {"time": 2503, "pitch": 81, "duration": 1, "velocity": 98}, {"time": 2506, "pitch": 80, "duration": 4, "velocity": 86}, {"time": 2518, "pitch": 71, "duration": 1, "velocity": 67}, {"time": 2521, "pitch": 83, "duration": 3, "velocity": 111}, {"time": 2527, "pitch": 85, "duration": 1, "velocity": 117}, {"time": 2530, "pitch": 78, "duration": 3, "velocity": 114}, {"time": 2536, "pitch": 76, "duration": 2, "velocity": 70}, {"time": 2539, "pitch": 78, "duration": 2, "velocity": 93}, {"time": 2542, "pitch": 76, "duration": 1, "velocity": 81}, {"time": 2545, "pitch": 78, "duration": 1, "velocity": 93}, {"time": 2548, "pitch": 83, "duration": 2, "velocity": 90}, {"time": 2554, "pitch": 80, "duration": 12, "velocity": 112}, {"time": 2563, "pitch": 71, "duration": 4, "velocity": 73}, {"time": 2569, "pitch": 83, "duration": 3, "velocity": 93}, {"time": 2575, "pitch": 81, "duration": 1, "velocity": 98}, {"time": 2578, "pitch": 80, "duration": 5, "velocity": 95}, {"time": 2587, "pitch": 71, "duration": 3, "velocity": 79}, {"time": 2593, "pitch": 83, "duration": 3, "velocity": 98}, {"time": 2599, "pitch": 85, "duration": 1, "velocity": 108}, {"time": 2602, "pitch": 78, "duration": 4, "velocity": 104}, {"time": 2611, "pitch": 78, "duration": 3, "velocity": 112}, {"time": 2617, "pitch": 76, "duration": 1, "velocity": 83}, {"time": 2620, "pitch": 78, "duration": 3, "velocity": 100}, {"time": 2629, "pitch": 81, "duration": 4, "velocity": 95}, {"time": 2635, "pitch": 80, "duration": 2, "velocity": 98}, {"time": 2641, "pitch": 83, "duration": 3, "velocity": 86}, {"time": 2647, "pitch": 78, "duration": 3, "velocity": 87}, {"time": 2650, "pitch": 78, "duration": 1, "velocity": 93}, {"time": 2656, "pitch": 80, "duration": 6, "velocity": 95}, {"time": 2665, "pitch": 83, "duration": 2, "velocity": 87}, {"time": 2668, "pitch": 85, "duration": 2, "velocity": 93}, {"time": 2671, "pitch": 80, "duration": 1, "velocity": 93}, {"time": 2674, "pitch": 83, "duration": 4, "velocity": 86}, {"time": 2680, "pitch": 83, "duration": 2, "velocity": 67}, {"time": 2683, "pitch": 85, "duration": 2, "velocity": 100}, {"time": 2686, "pitch": 83, "duration": 2, "velocity": 75}, {"time": 2689, "pitch": 85, "duration": 2, "velocity": 117}, {"time": 2692, "pitch": 85, "duration": 3, "velocity": 114}, {"time": 2695, "pitch": 83, "duration": 2, "velocity": 70}, {"time": 2698, "pitch": 88, "duration": 3, "velocity": 112}, {"time": 2704, "pitch": 85, "duration": 4, "velocity": 104}, {"time": 2710, "pitch": 88, "duration": 3, "velocity": 85}, {"time": 2716, "pitch": 85, "duration": 5, "velocity": 98}, {"time": 2722, "pitch": 83, "duration": 5, "velocity": 86}, {"time": 2728, "pitch": 83, "duration": 1, "velocity": 83}, {"time": 2731, "pitch": 83, "duration": 3, "velocity": 85}, {"time": 2734, "pitch": 80, "duration": 2, "velocity": 71}, {"time": 2737, "pitch": 83, "duration": 1, "velocity": 68}, {"time": 2740, "pitch": 83, "duration": 1, "velocity": 70}, {"time": 2743, "pitch": 85, "duration": 2, "velocity": 93}, {"time": 2746, "pitch": 80, "duration": 10, "velocity": 65}, {"time": 2761, "pitch": 83, "duration": 3, "velocity": 108}, {"time": 2767, "pitch": 81, "duration": 2, "velocity": 104}, {"time": 2770, "pitch": 80, "duration": 1, "velocity": 104}, {"time": 2773, "pitch": 80, "duration": 3, "velocity": 112}, {"time": 2779, "pitch": 81, "duration": 3, "velocity": 72}, {"time": 2782, "pitch": 73, "duration": 8, "velocity": 98}, {"time": 2791, "pitch": 76, "duration": 2, "velocity": 74}, {"time": 2794, "pitch": 80, "duration": 5, "velocity": 93}, {"time": 2803, "pitch": 78, "duration": 2, "velocity": 95}, {"time": 2806, "pitch": 75, "duration": 4, "velocity": 68}, {"time": 2812, "pitch": 76, "duration": 6, "velocity": 85}, {"time": 2821, "pitch": 78, "duration": 13, "velocity": 111}, {"time": 2836, "pitch": 77, "duration": 1, "velocity": 79}, {"time": 2839, "pitch": 78, "duration": 1, "velocity": 93}, {"time": 2842, "pitch": 80, "duration": 10, "velocity": 100}, {"time": 2857, "pitch": 83, "duration": 3, "velocity": 98}, {"time": 2863, "pitch": 81, "duration": 2, "velocity": 90}, {"time": 2866, "pitch": 80, "duration": 1, "velocity": 90}, {"time": 2869, "pitch": 80, "duration": 2, "velocity": 114}, {"time": 2875, "pitch": 81, "duration": 2, "velocity": 73}, {"time": 2878, "pitch": 73, "duration": 7, "velocity": 95}, {"time": 2884, "pitch": 76, "duration": 7, "velocity": 95}, {"time": 2893, "pitch": 75, "duration": 25, "velocity": 86}], "annotations": [{"time": 13, "annotation": {"number": 64, "value": 76}, "group": "control_change"}, {"time": 61, "annotation": {"number": 64, "value": 78}, "group": "control_change"}, {"time": 109, "annotation": {"number": 64, "value": 79}, "group": "control_change"}, {"time": 193, "annotation": {"number": 64, "value": 80}, "group": "control_change"}, {"time": 661, "annotation": {"number": 64, "value": 81}, "group": "control_change"}, {"time": 709, "annotation": {"number": 64, "value": 83}, "group": "control_change"}, {"time": 757, "annotation": {"number": 64, "value": 82}, "group": "control_change"}, {"time": 805, "annotation": {"number": 64, "value": 81}, "group": "control_change"}, {"time": 841, "annotation": {"number": 64, "value": 80}, "group": "control_change"}, {"time": 853, "annotation": {"number": 64, "value": 79}, "group": "control_change"}, {"time": 877, "annotation": {"number": 64, "value": 78}, "group": "control_change"}, {"time": 889, "annotation": {"number": 64, "value": 76}, "group": "control_change"}, {"time": 913, "annotation": {"number": 64, "value": 75}, "group": "control_change"}, {"time": 925, "annotation": {"number": 64, "value": 74}, "group": "control_change"}, {"time": 961, "annotation": {"number": 64, "value": 73}, "group": "control_change"}, {"time": 973, "annotation": {"number": 64, "value": 70}, "group": "control_change"}, {"time": 985, "annotation": {"number": 64, "value": 69}, "group": "control_change"}, {"time": 1009, "annotation": {"number": 64, "value": 68}, "group": "control_change"}, {"time": 1021, "annotation": {"number": 64, "value": 67}, "group": "control_change"}, {"time": 1033, "annotation": {"number": 64, "value": 65}, "group": "control_change"}, {"time": 1057, "annotation": {"number": 64, "value": 64}, "group": "control_change"}, {"time": 1081, "annotation": {"number": 64, "value": 63}, "group": "control_change"}, {"time": 1105, "annotation": {"number": 64, "value": 62}, "group": "control_change"}, {"time": 1117, "annotation": {"number": 64, "value": 70}, "group": "control_change"}, {"time": 1165, "annotation": {"number": 64, "value": 68}, "group": "control_change"}, {"time": 1213, "annotation": {"number": 64, "value": 65}, "group": "control_change"}, {"time": 1261, "annotation": {"number": 64, "value": 63}, "group": "control_change"}, {"time": 1273, "annotation": {"number": 64, "value": 63}, "group": "control_change"}, {"time": 1309, "annotation": {"number": 64, "value": 62}, "group": "control_change"}, {"time": 1333, "annotation": {"number": 64, "value": 59}, "group": "control_change"}, {"time": 1381, "annotation": {"number": 64, "value": 58}, "group": "control_change"}, {"time": 1393, "annotation": {"number": 64, "value": 57}, "group": "control_change"}, {"time": 1417, "annotation": {"number": 64, "value": 55}, "group": "control_change"}, {"time": 1525, "annotation": {"number": 64, "value": 56}, "group": "control_change"}, {"time": 1573, "annotation": {"number": 64, "value": 72}, "group": "control_change"}, {"time": 1789, "annotation": {"number": 64, "value": 73}, "group": "control_change"}, {"time": 2005, "annotation": {"number": 64, "value": 74}, "group": "control_change"}, {"time": 2053, "annotation": {"number": 64, "value": 75}, "group": "control_change"}, {"time": 2101, "annotation": {"number": 64, "value": 76}, "group": "control_change"}, {"time": 2149, "annotation": {"number": 64, "value": 78}, "group": "control_change"}, {"time": 2281, "annotation": {"number": 64, "value": 79}, "group": "control_change"}, {"time": 2361, "annotation": {"number": 64, "value": 78}, "group": "control_change"}, {"time": 2441, "annotation": {"number": 64, "value": 77}, "group": "control_change"}, {"time": 2521, "annotation": {"number": 64, "value": 76}, "group": "control_change"}, {"time": 2533, "annotation": {"number": 64, "value": 75}, "group": "control_change"}, {"time": 2545, "annotation": {"number": 64, "value": 74}, "group": "control_change"}, {"time": 2569, "annotation": {"number": 64, "value": 73}, "group": "control_change"}, {"time": 2593, "annotation": {"number": 64, "value": 72}, "group": "control_change"}, {"time": 2605, "annotation": {"number": 64, "value": 70}, "group": "control_change"}, {"time": 2617, "annotation": {"number": 64, "value": 69}, "group": "control_change"}, {"time": 2629, "annotation": {"number": 64, "value": 68}, "group": "control_change"}, {"time": 2653, "annotation": {"number": 64, "value": 67}, "group": "control_change"}, {"time": 2689, "annotation": {"number": 64, "value": 64}, "group": "control_change"}, {"time": 2725, "annotation": {"number": 64, "value": 65}, "group": "control_change"}, {"time": 2737, "annotation": {"number": 64, "value": 60}, "group": "control_change"}, {"time": 2785, "annotation": {"number": 64, "value": 61}, "group": "control_change"}, {"time": 2797, "annotation": {"number": 64, "value": 62}, "group": "control_change"}, {"time": 2809, "annotation": {"number": 64, "value": 63}, "group": "control_change"}, {"time": 2833, "annotation": {"number": 64, "value": 64}, "group": "control_change"}, {"time": 2869, "annotation": {"number": 64, "value": 65}, "group": "control_change"}, {"time": 2941, "annotation": {"number": 64, "value": 66}, "group": "control_change"}, {"time": 3013, "annotation": {"number": 64, "value": 67}, "group": "control_change"}]}, {"program": 0, "is_drum": false, "name": "PIANO", "notes": [{"time": 37, "pitch": 40, "duration": 20, "velocity": 76}, {"time": 37, "pitch": 52, "duration": 10, "velocity": 76}, {"time": 37, "pitch": 56, "duration": 10, "velocity": 76}, {"time": 37, "pitch": 59, "duration": 11, "velocity": 76}, {"time": 49, "pitch": 52, "duration": 6, "velocity": 76}, {"time": 49, "pitch": 56, "duration": 7, "velocity": 76}, {"time": 49, "pitch": 59, "duration": 7, "velocity": 76}, {"time": 61, "pitch": 44, "duration": 20, "velocity": 76}, {"time": 61, "pitch": 56, "duration": 10, "velocity": 76}, {"time": 61, "pitch": 59, "duration": 10, "velocity": 76}, {"time": 61, "pitch": 63, "duration": 9, "velocity": 76}, {"time": 73, "pitch": 56, "duration": 6, "velocity": 76}, {"time": 73, "pitch": 59, "duration": 5, "velocity": 76}, {"time": 73, "pitch": 63, "duration": 5, "velocity": 76}, {"time": 85, "pitch": 49, "duration": 23, "velocity": 76}, {"time": 85, "pitch": 61, "duration": 10, "velocity": 76}, {"time": 85, "pitch": 64, "duration": 10, "velocity": 76}, {"time": 85, "pitch": 68, "duration": 10, "velocity": 76}, {"time": 97, "pitch": 61, "duration": 10, "velocity": 76}, {"time": 97, "pitch": 64, "duration": 10, "velocity": 76}, {"time": 97, "pitch": 68, "duration": 10, "velocity": 76}, {"time": 109, "pitch": 47, "duration": 23, "velocity": 76}, {"time": 109, "pitch": 61, "duration": 10, "velocity": 76}, {"time": 109, "pitch": 64, "duration": 10, "velocity": 76}, {"time": 109, "pitch": 68, "duration": 10, "velocity": 76}, {"time": 121, "pitch": 61, "duration": 5, "velocity": 76}, {"time": 121, "pitch": 64, "duration": 5, "velocity": 76}, {"time": 121, "pitch": 68, "duration": 5, "velocity": 76}, {"time": 133, "pitch": 45, "duration": 18, "velocity": 76}, {"time": 133, "pitch": 57, "duration": 11, "velocity": 76}, {"time": 133, "pitch": 61, "duration": 11, "velocity": 76}, {"time": 133, "pitch": 64, "duration": 11, "velocity": 76}, {"time": 145, "pitch": 57, "duration": 6, "velocity": 76}, {"time": 145, "pitch": 61, "duration": 6, "velocity": 76}, {"time": 145, "pitch": 64, "duration": 6, "velocity": 76}, {"time": 157, "pitch": 44, "duration": 18, "velocity": 76}, {"time": 157, "pitch": 56, "duration": 11, "velocity": 76}, {"time": 157, "pitch": 60, "duration": 11, "velocity": 76}, {"time": 157, "pitch": 63, "duration": 11, "velocity": 76}, {"time": 169, "pitch": 56, "duration": 5, "velocity": 76}, {"time": 169, "pitch": 60, "duration": 5, "velocity": 76}, {"time": 169, "pitch": 63, "duration": 6, "velocity": 76}, {"time": 181, "pitch": 49, "duration": 24, "velocity": 76}, {"time": 181, "pitch": 61, "duration": 9, "velocity": 76}, {"time": 181, "pitch": 64, "duration": 10, "velocity": 76}, {"time": 181, "pitch": 68, "duration": 10, "velocity": 76}, {"time": 193, "pitch": 61, "duration": 11, "velocity": 76}, {"time": 193, "pitch": 64, "duration": 11, "velocity": 76}, {"time": 193, "pitch": 68, "duration": 11, "velocity": 76}, {"time": 205, "pitch": 47, "duration": 22, "velocity": 76}, {"time": 205, "pitch": 61, "duration": 10, "velocity": 76}, {"time": 205, "pitch": 64, "duration": 10, "velocity": 76}, {"time": 205, "pitch": 68, "duration": 10, "velocity": 76}, {"time": 217, "pitch": 61, "duration": 6, "velocity": 75}, {"time": 217, "pitch": 64, "duration": 6, "velocity": 75}, {"time": 217, "pitch": 68, "duration": 6, "velocity": 75}, {"time": 229, "pitch": 45, "duration": 18, "velocity": 75}, {"time": 229, "pitch": 55, "duration": 7, "velocity": 75}, {"time": 229, "pitch": 57, "duration": 8, "velocity": 75}, {"time": 229, "pitch": 61, "duration": 10, "velocity": 75}, {"time": 229, "pitch": 64, "duration": 10, "velocity": 75}, {"time": 241, "pitch": 57, "duration": 6, "velocity": 75}, {"time": 241, "pitch": 61, "duration": 6, "velocity": 75}, {"time": 241, "pitch": 64, "duration": 6, "velocity": 75}, {"time": 253, "pitch": 45, "duration": 18, "velocity": 75}, {"time": 253, "pitch": 57, "duration": 9, "velocity": 75}, {"time": 253, "pitch": 60, "duration": 10, "velocity": 75}, {"time": 253, "pitch": 64, "duration": 10, "velocity": 75}, {"time": 265, "pitch": 57, "duration": 6, "velocity": 75}, {"time": 265, "pitch": 60, "duration": 6, "velocity": 75}, {"time": 265, "pitch": 64, "duration": 6, "velocity": 75}, {"time": 277, "pitch": 44, "duration": 16, "velocity": 75}, {"time": 277, "pitch": 56, "duration": 10, "velocity": 75}, {"time": 277, "pitch": 59, "duration": 9, "velocity": 75}, {"time": 277, "pitch": 63, "duration": 7, "velocity": 75}, {"time": 289, "pitch": 56, "duration": 5, "velocity": 75}, {"time": 289, "pitch": 59, "duration": 5, "velocity": 75}, {"time": 289, "pitch": 63, "duration": 4, "velocity": 75}, {"time": 301, "pitch": 49, "duration": 10, "velocity": 74}, {"time": 301, "pitch": 61, "duration": 9, "velocity": 74}, {"time": 301, "pitch": 65, "duration": 10, "velocity": 74}, {"time": 301, "pitch": 68, "duration": 10, "velocity": 74}, {"time": 313, "pitch": 49, "duration": 11, "velocity": 73}, {"time": 313, "pitch": 61, "duration": 11, "velocity": 73}, {"time": 313, "pitch": 65, "duration": 10, "velocity": 73}, {"time": 313, "pitch": 68, "duration": 11, "velocity": 73}, {"time": 325, "pitch": 42, "duration": 18, "velocity": 73}, {"time": 325, "pitch": 54, "duration": 9, "velocity": 73}, {"time": 325, "pitch": 57, "duration": 9, "velocity": 73}, {"time": 325, "pitch": 61, "duration": 9, "velocity": 73}, {"time": 337, "pitch": 54, "duration": 5, "velocity": 73}, {"time": 337, "pitch": 57, "duration": 5, "velocity": 73}, {"time": 337, "pitch": 61, "duration": 5, "velocity": 73}, {"time": 349, "pitch": 47, "duration": 9, "velocity": 73}, {"time": 349, "pitch": 51, "duration": 9, "velocity": 73}, {"time": 349, "pitch": 59, "duration": 9, "velocity": 73}, {"time": 349, "pitch": 63, "duration": 10, "velocity": 73}, {"time": 349, "pitch": 66, "duration": 10, "velocity": 73}, {"time": 361, "pitch": 47, "duration": 5, "velocity": 73}, {"time": 361, "pitch": 51, "duration": 5, "velocity": 73}, {"time": 361, "pitch": 59, "duration": 5, "velocity": 73}, {"time": 361, "pitch": 63, "duration": 5, "velocity": 73}, {"time": 361, "pitch": 66, "duration": 5, "velocity": 73}, {"time": 373, "pitch": 40, "duration": 24, "velocity": 73}, {"time": 373, "pitch": 52, "duration": 11, "velocity": 73}, {"time": 373, "pitch": 56, "duration": 11, "velocity": 73}, {"time": 373, "pitch": 59, "duration": 11, "velocity": 73}, {"time": 385, "pitch": 52, "duration": 10, "velocity": 73}, {"time": 385, "pitch": 56, "duration": 10, "velocity": 73}, {"time": 385, "pitch": 59, "duration": 10, "velocity": 73}, {"time": 397, "pitch": 40, "duration": 10, "velocity": 73}, {"time": 397, "pitch": 52, "duration": 10, "velocity": 73}, {"time": 397, "pitch": 56, "duration": 8, "velocity": 73}, {"time": 397, "pitch": 61, "duration": 9, "velocity": 73}, {"time": 409, "pitch": 40, "duration": 11, "velocity": 73}, {"time": 409, "pitch": 52, "duration": 8, "velocity": 73}, {"time": 409, "pitch": 56, "duration": 1, "velocity": 73}, {"time": 409, "pitch": 59, "duration": 12, "velocity": 73}, {"time": 421, "pitch": 40, "duration": 14, "velocity": 81}, {"time": 421, "pitch": 59, "duration": 11, "velocity": 74}, {"time": 421, "pitch": 64, "duration": 10, "velocity": 75}, {"time": 421, "pitch": 68, "duration": 10, "velocity": 75}, {"time": 427, "pitch": 47, "duration": 9, "velocity": 54}, {"time": 433, "pitch": 52, "duration": 3, "velocity": 61}, {"time": 433, "pitch": 64, "duration": 6, "velocity": 88}, {"time": 433, "pitch": 68, "duration": 6, "velocity": 88}, {"time": 439, "pitch": 59, "duration": 2, "velocity": 72}, {"time": 439, "pitch": 63, "duration": 1, "velocity": 53}, {"time": 445, "pitch": 39, "duration": 14, "velocity": 45}, {"time": 445, "pitch": 59, "duration": 7, "velocity": 76}, {"time": 445, "pitch": 63, "duration": 7, "velocity": 78}, {"time": 451, "pitch": 56, "duration": 28, "velocity": 69}, {"time": 457, "pitch": 63, "duration": 7, "velocity": 83}, {"time": 463, "pitch": 59, "duration": 4, "velocity": 48}, {"time": 469, "pitch": 37, "duration": 14, "velocity": 76}, {"time": 469, "pitch": 61, "duration": 6, "velocity": 66}, {"time": 469, "pitch": 64, "duration": 6, "velocity": 65}, {"time": 475, "pitch": 49, "duration": 10, "velocity": 77}, {"time": 481, "pitch": 56, "duration": 1, "velocity": 41}, {"time": 481, "pitch": 61, "duration": 12, "velocity": 64}, {"time": 481, "pitch": 64, "duration": 9, "velocity": 67}, {"time": 487, "pitch": 56, "duration": 4, "velocity": 88}, {"time": 493, "pitch": 47, "duration": 15, "velocity": 71}, {"time": 493, "pitch": 59, "duration": 12, "velocity": 88}, {"time": 499, "pitch": 54, "duration": 9, "velocity": 66}, {"time": 505, "pitch": 63, "duration": 7, "velocity": 93}, {"time": 505, "pitch": 66, "duration": 6, "velocity": 95}, {"time": 511, "pitch": 59, "duration": 9, "velocity": 74}, {"time": 517, "pitch": 45, "duration": 14, "velocity": 73}, {"time": 523, "pitch": 52, "duration": 7, "velocity": 72}, {"time": 529, "pitch": 61, "duration": 12, "velocity": 79}, {"time": 529, "pitch": 64, "duration": 12, "velocity": 69}, {"time": 535, "pitch": 57, "duration": 6, "velocity": 69}, {"time": 541, "pitch": 44, "duration": 19, "velocity": 90}, {"time": 547, "pitch": 56, "duration": 5, "velocity": 74}, {"time": 553, "pitch": 60, "duration": 12, "velocity": 89}, {"time": 553, "pitch": 63, "duration": 13, "velocity": 67}, {"time": 559, "pitch": 56, "duration": 10, "velocity": 72}, {"time": 565, "pitch": 49, "duration": 23, "velocity": 93}, {"time": 571, "pitch": 56, "duration": 7, "velocity": 89}, {"time": 577, "pitch": 61, "duration": 18, "velocity": 68}, {"time": 577, "pitch": 64, "duration": 19, "velocity": 70}, {"time": 583, "pitch": 56, "duration": 10, "velocity": 72}, {"time": 589, "pitch": 49, "duration": 15, "velocity": 65}, {"time": 595, "pitch": 56, "duration": 5, "velocity": 64}, {"time": 601, "pitch": 61, "duration": 10, "velocity": 92}, {"time": 601, "pitch": 64, "duration": 7, "velocity": 82}, {"time": 607, "pitch": 49, "duration": 6, "velocity": 82}, {"time": 613, "pitch": 45, "duration": 19, "velocity": 66}, {"time": 613, "pitch": 57, "duration": 8, "velocity": 83}, {"time": 613, "pitch": 61, "duration": 8, "velocity": 77}, {"time": 613, "pitch": 64, "duration": 8, "velocity": 75}, {"time": 619, "pitch": 52, "duration": 9, "velocity": 61}, {"time": 625, "pitch": 61, "duration": 7, "velocity": 88}, {"time": 625, "pitch": 64, "duration": 7, "velocity": 67}, {"time": 631, "pitch": 57, "duration": 13, "velocity": 73}, {"time": 637, "pitch": 45, "duration": 14, "velocity": 75}, {"time": 637, "pitch": 60, "duration": 10, "velocity": 76}, {"time": 637, "pitch": 64, "duration": 10, "velocity": 75}, {"time": 643, "pitch": 52, "duration": 7, "velocity": 58}, {"time": 649, "pitch": 60, "duration": 6, "velocity": 78}, {"time": 649, "pitch": 64, "duration": 6, "velocity": 69}, {"time": 655, "pitch": 57, "duration": 4, "velocity": 61}, {"time": 661, "pitch": 44, "duration": 23, "velocity": 83}, {"time": 661, "pitch": 59, "duration": 8, "velocity": 63}, {"time": 661, "pitch": 63, "duration": 7, "velocity": 74}, {"time": 661, "pitch": 66, "duration": 7, "velocity": 83}, {"time": 667, "pitch": 56, "duration": 7, "velocity": 70}, {"time": 673, "pitch": 63, "duration": 7, "velocity": 79}, {"time": 673, "pitch": 66, "duration": 7, "velocity": 74}, {"time": 679, "pitch": 59, "duration": 6, "velocity": 72}, {"time": 685, "pitch": 49, "duration": 14, "velocity": 66}, {"time": 685, "pitch": 56, "duration": 10, "velocity": 85}, {"time": 685, "pitch": 61, "duration": 10, "velocity": 70}, {"time": 685, "pitch": 65, "duration": 5, "velocity": 71}, {"time": 697, "pitch": 56, "duration": 1, "velocity": 33}, {"time": 697, "pitch": 61, "duration": 13, "velocity": 89}, {"time": 697, "pitch": 65, "duration": 10, "velocity": 74}, {"time": 703, "pitch": 56, "duration": 5, "velocity": 69}, {"time": 709, "pitch": 42, "duration": 13, "velocity": 86}, {"time": 709, "pitch": 57, "duration": 13, "velocity": 88}, {"time": 715, "pitch": 54, "duration": 9, "velocity": 74}, {"time": 721, "pitch": 61, "duration": 11, "velocity": 89}, {"time": 721, "pitch": 66, "duration": 6, "velocity": 92}, {"time": 727, "pitch": 57, "duration": 4, "velocity": 71}, {"time": 733, "pitch": 47, "duration": 13, "velocity": 68}, {"time": 733, "pitch": 59, "duration": 9, "velocity": 73}, {"time": 733, "pitch": 63, "duration": 10, "velocity": 69}, {"time": 733, "pitch": 66, "duration": 8, "velocity": 62}, {"time": 739, "pitch": 54, "duration": 5, "velocity": 59}, {"time": 745, "pitch": 63, "duration": 7, "velocity": 86}, {"time": 745, "pitch": 66, "duration": 6, "velocity": 93}, {"time": 751, "pitch": 59, "duration": 4, "velocity": 66}, {"time": 757, "pitch": 40, "duration": 22, "velocity": 77}, {"time": 757, "pitch": 59, "duration": 10, "velocity": 78}, {"time": 757, "pitch": 64, "duration": 10, "velocity": 86}, {"time": 757, "pitch": 68, "duration": 10, "velocity": 86}, {"time": 763, "pitch": 47, "duration": 9, "velocity": 45}, {"time": 769, "pitch": 52, "duration": 6, "velocity": 69}, {"time": 769, "pitch": 64, "duration": 7, "velocity": 100}, {"time": 769, "pitch": 68, "duration": 7, "velocity": 112}, {"time": 775, "pitch": 47, "duration": 6, "velocity": 41}, {"time": 775, "pitch": 59, "duration": 5, "velocity": 90}, {"time": 781, "pitch": 40, "duration": 16, "velocity": 82}, {"time": 781, "pitch": 59, "duration": 6, "velocity": 75}, {"time": 781, "pitch": 64, "duration": 7, "velocity": 95}, {"time": 781, "pitch": 68, "duration": 10, "velocity": 99}, {"time": 784, "pitch": 47, "duration": 14, "velocity": 68}, {"time": 787, "pitch": 52, "duration": 7, "velocity": 96}, {"time": 790, "pitch": 59, "duration": 4, "velocity": 93}, {"time": 793, "pitch": 64, "duration": 6, "velocity": 102}, {"time": 793, "pitch": 68, "duration": 6, "velocity": 117}, {"time": 796, "pitch": 52, "duration": 2, "velocity": 82}, {"time": 799, "pitch": 59, "duration": 5, "velocity": 96}, {"time": 805, "pitch": 45, "duration": 18, "velocity": 93}, {"time": 805, "pitch": 61, "duration": 6, "velocity": 102}, {"time": 805, "pitch": 64, "duration": 7, "velocity": 92}, {"time": 808, "pitch": 52, "duration": 10, "velocity": 57}, {"time": 811, "pitch": 57, "duration": 3, "velocity": 79}, {"time": 817, "pitch": 61, "duration": 5, "velocity": 127}, {"time": 817, "pitch": 64, "duration": 5, "velocity": 100}, {"time": 820, "pitch": 52, "duration": 8, "velocity": 79}, {"time": 823, "pitch": 57, "duration": 3, "velocity": 96}, {"time": 829, "pitch": 47, "duration": 3, "velocity": 69}, {"time": 829, "pitch": 59, "duration": 9, "velocity": 92}, {"time": 829, "pitch": 63, "duration": 7, "velocity": 99}, {"time": 829, "pitch": 66, "duration": 7, "velocity": 93}, {"time": 835, "pitch": 47, "duration": 11, "velocity": 92}, {"time": 841, "pitch": 54, "duration": 5, "velocity": 85}, {"time": 841, "pitch": 63, "duration": 7, "velocity": 112}, {"time": 841, "pitch": 66, "duration": 6, "velocity": 107}, {"time": 847, "pitch": 59, "duration": 4, "velocity": 95}, {"time": 850, "pitch": 44, "duration": 1, "velocity": 36}, {"time": 853, "pitch": 44, "duration": 2, "velocity": 96}, {"time": 853, "pitch": 59, "duration": 7, "velocity": 83}, {"time": 853, "pitch": 63, "duration": 7, "velocity": 100}, {"time": 853, "pitch": 68, "duration": 7, "velocity": 92}, {"time": 859, "pitch": 44, "duration": 14, "velocity": 102}, {"time": 865, "pitch": 56, "duration": 4, "velocity": 93}, {"time": 865, "pitch": 63, "duration": 6, "velocity": 122}, {"time": 865, "pitch": 68, "duration": 6, "velocity": 117}, {"time": 871, "pitch": 59, "duration": 3, "velocity": 96}, {"time": 877, "pitch": 49, "duration": 5, "velocity": 99}, {"time": 877, "pitch": 61, "duration": 8, "velocity": 76}, {"time": 877, "pitch": 64, "duration": 8, "velocity": 76}, {"time": 883, "pitch": 49, "duration": 5, "velocity": 72}, {"time": 889, "pitch": 49, "duration": 4, "velocity": 95}, {"time": 889, "pitch": 61, "duration": 7, "velocity": 112}, {"time": 889, "pitch": 64, "duration": 8, "velocity": 85}, {"time": 895, "pitch": 56, "duration": 2, "velocity": 97}, {"time": 901, "pitch": 45, "duration": 14, "velocity": 85}, {"time": 901, "pitch": 61, "duration": 10, "velocity": 81}, {"time": 901, "pitch": 64, "duration": 8, "velocity": 85}, {"time": 907, "pitch": 52, "duration": 10, "velocity": 73}, {"time": 913, "pitch": 57, "duration": 9, "velocity": 92}, {"time": 913, "pitch": 61, "duration": 11, "velocity": 107}, {"time": 913, "pitch": 64, "duration": 6, "velocity": 88}, {"time": 919, "pitch": 45, "duration": 5, "velocity": 73}, {"time": 925, "pitch": 47, "duration": 15, "velocity": 75}, {"time": 925, "pitch": 59, "duration": 5, "velocity": 79}, {"time": 925, "pitch": 63, "duration": 11, "velocity": 93}, {"time": 925, "pitch": 66, "duration": 9, "velocity": 93}, {"time": 931, "pitch": 59, "duration": 8, "velocity": 72}, {"time": 937, "pitch": 63, "duration": 7, "velocity": 100}, {"time": 937, "pitch": 66, "duration": 7, "velocity": 100}, {"time": 940, "pitch": 47, "duration": 2, "velocity": 77}, {"time": 943, "pitch": 59, "duration": 4, "velocity": 97}, {"time": 949, "pitch": 40, "duration": 23, "velocity": 82}, {"time": 949, "pitch": 59, "duration": 7, "velocity": 99}, {"time": 949, "pitch": 64, "duration": 10, "velocity": 97}, {"time": 949, "pitch": 68, "duration": 10, "velocity": 112}, {"time": 952, "pitch": 47, "duration": 21, "velocity": 75}, {"time": 955, "pitch": 52, "duration": 7, "velocity": 92}, {"time": 958, "pitch": 59, "duration": 7, "velocity": 79}, {"time": 961, "pitch": 64, "duration": 7, "velocity": 122}, {"time": 961, "pitch": 68, "duration": 7, "velocity": 127}, {"time": 964, "pitch": 52, "duration": 3, "velocity": 99}, {"time": 967, "pitch": 59, "duration": 5, "velocity": 96}, {"time": 970, "pitch": 64, "duration": 2, "velocity": 89}, {"time": 970, "pitch": 68, "duration": 2, "velocity": 93}, {"time": 973, "pitch": 40, "duration": 17, "velocity": 92}, {"time": 973, "pitch": 59, "duration": 6, "velocity": 72}, {"time": 973, "pitch": 64, "duration": 7, "velocity": 122}, {"time": 973, "pitch": 68, "duration": 7, "velocity": 127}, {"time": 976, "pitch": 47, "duration": 15, "velocity": 77}, {"time": 979, "pitch": 52, "duration": 8, "velocity": 97}, {"time": 982, "pitch": 59, "duration": 2, "velocity": 96}, {"time": 982, "pitch": 64, "duration": 2, "velocity": 53}, {"time": 982, "pitch": 68, "duration": 1, "velocity": 38}, {"time": 985, "pitch": 59, "duration": 4, "velocity": 93}, {"time": 985, "pitch": 64, "duration": 6, "velocity": 102}, {"time": 985, "pitch": 68, "duration": 6, "velocity": 127}, {"time": 988, "pitch": 52, "duration": 4, "velocity": 96}, {"time": 991, "pitch": 59, "duration": 4, "velocity": 112}, {"time": 994, "pitch": 64, "duration": 1, "velocity": 33}, {"time": 997, "pitch": 45, "duration": 21, "velocity": 83}, {"time": 997, "pitch": 57, "duration": 3, "velocity": 112}, {"time": 997, "pitch": 61, "duration": 7, "velocity": 112}, {"time": 997, "pitch": 64, "duration": 8, "velocity": 89}, {"time": 1000, "pitch": 52, "duration": 10, "velocity": 93}, {"time": 1003, "pitch": 57, "duration": 5, "velocity": 89}, {"time": 1006, "pitch": 61, "duration": 14, "velocity": 85}, {"time": 1009, "pitch": 64, "duration": 5, "velocity": 97}, {"time": 1012, "pitch": 52, "duration": 8, "velocity": 88}, {"time": 1015, "pitch": 57, "duration": 4, "velocity": 89}, {"time": 1021, "pitch": 47, "duration": 16, "velocity": 79}, {"time": 1021, "pitch": 59, "duration": 10, "velocity": 89}, {"time": 1021, "pitch": 63, "duration": 10, "velocity": 97}, {"time": 1021, "pitch": 66, "duration": 8, "velocity": 96}, {"time": 1027, "pitch": 54, "duration": 8, "velocity": 85}, {"time": 1033, "pitch": 63, "duration": 6, "velocity": 127}, {"time": 1033, "pitch": 66, "duration": 6, "velocity": 127}, {"time": 1036, "pitch": 54, "duration": 2, "velocity": 96}, {"time": 1039, "pitch": 59, "duration": 5, "velocity": 96}, {"time": 1045, "pitch": 44, "duration": 22, "velocity": 99}, {"time": 1045, "pitch": 59, "duration": 1, "velocity": 69}, {"time": 1045, "pitch": 63, "duration": 6, "velocity": 107}, {"time": 1045, "pitch": 68, "duration": 7, "velocity": 102}, {"time": 1048, "pitch": 56, "duration": 9, "velocity": 97}, {"time": 1051, "pitch": 59, "duration": 5, "velocity": 88}, {"time": 1054, "pitch": 63, "duration": 2, "velocity": 72}, {"time": 1057, "pitch": 63, "duration": 6, "velocity": 122}, {"time": 1057, "pitch": 68, "duration": 6, "velocity": 117}, {"time": 1060, "pitch": 56, "duration": 2, "velocity": 95}, {"time": 1063, "pitch": 59, "duration": 5, "velocity": 93}, {"time": 1069, "pitch": 37, "duration": 15, "velocity": 90}, {"time": 1069, "pitch": 56, "duration": 6, "velocity": 97}, {"time": 1069, "pitch": 61, "duration": 7, "velocity": 89}, {"time": 1069, "pitch": 65, "duration": 6, "velocity": 60}, {"time": 1072, "pitch": 44, "duration": 12, "velocity": 66}, {"time": 1075, "pitch": 49, "duration": 7, "velocity": 93}, {"time": 1078, "pitch": 56, "duration": 6, "velocity": 79}, {"time": 1081, "pitch": 61, "duration": 6, "velocity": 72}, {"time": 1081, "pitch": 65, "duration": 9, "velocity": 74}, {"time": 1084, "pitch": 49, "duration": 2, "velocity": 79}, {"time": 1087, "pitch": 56, "duration": 6, "velocity": 100}, {"time": 1093, "pitch": 45, "duration": 18, "velocity": 83}, {"time": 1096, "pitch": 52, "duration": 11, "velocity": 64}, {"time": 1099, "pitch": 57, "duration": 3, "velocity": 96}, {"time": 1102, "pitch": 61, "duration": 2, "velocity": 66}, {"time": 1102, "pitch": 64, "duration": 2, "velocity": 68}, {"time": 1105, "pitch": 61, "duration": 11, "velocity": 99}, {"time": 1105, "pitch": 64, "duration": 6, "velocity": 89}, {"time": 1108, "pitch": 52, "duration": 4, "velocity": 70}, {"time": 1111, "pitch": 57, "duration": 4, "velocity": 83}, {"time": 1117, "pitch": 47, "duration": 20, "velocity": 69}, {"time": 1117, "pitch": 59, "duration": 11, "velocity": 83}, {"time": 1117, "pitch": 63, "duration": 10, "velocity": 75}, {"time": 1117, "pitch": 66, "duration": 10, "velocity": 77}, {"time": 1123, "pitch": 54, "duration": 8, "velocity": 66}, {"time": 1129, "pitch": 59, "duration": 4, "velocity": 60}, {"time": 1129, "pitch": 63, "duration": 10, "velocity": 117}, {"time": 1129, "pitch": 66, "duration": 10, "velocity": 107}, {"time": 1132, "pitch": 54, "duration": 8, "velocity": 63}, {"time": 1135, "pitch": 59, "duration": 5, "velocity": 74}, {"time": 1141, "pitch": 37, "duration": 21, "velocity": 95}, {"time": 1141, "pitch": 56, "duration": 11, "velocity": 102}, {"time": 1141, "pitch": 61, "duration": 9, "velocity": 102}, {"time": 1141, "pitch": 65, "duration": 8, "velocity": 73}, {"time": 1147, "pitch": 44, "duration": 19, "velocity": 64}, {"time": 1150, "pitch": 49, "duration": 4, "velocity": 66}, {"time": 1153, "pitch": 56, "duration": 1, "velocity": 78}, {"time": 1153, "pitch": 61, "duration": 7, "velocity": 112}, {"time": 1153, "pitch": 65, "duration": 6, "velocity": 93}, {"time": 1156, "pitch": 49, "duration": 4, "velocity": 88}, {"time": 1159, "pitch": 56, "duration": 4, "velocity": 96}, {"time": 1162, "pitch": 61, "duration": 1, "velocity": 66}, {"time": 1162, "pitch": 65, "duration": 1, "velocity": 34}, {"time": 1165, "pitch": 37, "duration": 15, "velocity": 88}, {"time": 1165, "pitch": 56, "duration": 7, "velocity": 97}, {"time": 1165, "pitch": 61, "duration": 6, "velocity": 93}, {"time": 1165, "pitch": 65, "duration": 7, "velocity": 81}, {"time": 1168, "pitch": 44, "duration": 12, "velocity": 36}, {"time": 1171, "pitch": 49, "duration": 6, "velocity": 89}, {"time": 1174, "pitch": 56, "duration": 2, "velocity": 75}, {"time": 1174, "pitch": 61, "duration": 1, "velocity": 36}, {"time": 1174, "pitch": 65, "duration": 1, "velocity": 37}, {"time": 1177, "pitch": 56, "duration": 4, "velocity": 72}, {"time": 1177, "pitch": 61, "duration": 11, "velocity": 99}, {"time": 1177, "pitch": 65, "duration": 7, "velocity": 92}, {"time": 1180, "pitch": 49, "duration": 2, "velocity": 89}, {"time": 1183, "pitch": 56, "duration": 4, "velocity": 102}, {"time": 1189, "pitch": 45, "duration": 22, "velocity": 76}, {"time": 1189, "pitch": 57, "duration": 1, "velocity": 92}, {"time": 1189, "pitch": 61, "duration": 6, "velocity": 72}, {"time": 1189, "pitch": 64, "duration": 8, "velocity": 83}, {"time": 1192, "pitch": 52, "duration": 11, "velocity": 65}, {"time": 1195, "pitch": 57, "duration": 3, "velocity": 96}, {"time": 1198, "pitch": 61, "duration": 10, "velocity": 92}, {"time": 1201, "pitch": 64, "duration": 9, "velocity": 93}, {"time": 1204, "pitch": 52, "duration": 8, "velocity": 75}, {"time": 1207, "pitch": 57, "duration": 4, "velocity": 85}, {"time": 1210, "pitch": 61, "duration": 3, "velocity": 86}, {"time": 1213, "pitch": 47, "duration": 19, "velocity": 83}, {"time": 1213, "pitch": 59, "duration": 3, "velocity": 75}, {"time": 1213, "pitch": 63, "duration": 7, "velocity": 92}, {"time": 1213, "pitch": 66, "duration": 4, "velocity": 89}, {"time": 1216, "pitch": 54, "duration": 10, "velocity": 96}, {"time": 1219, "pitch": 59, "duration": 7, "velocity": 73}, {"time": 1222, "pitch": 63, "duration": 10, "velocity": 73}, {"time": 1225, "pitch": 66, "duration": 8, "velocity": 107}, {"time": 1228, "pitch": 54, "duration": 7, "velocity": 81}, {"time": 1231, "pitch": 59, "duration": 29, "velocity": 74}, {"time": 1237, "pitch": 47, "duration": 23, "velocity": 66}, {"time": 1237, "pitch": 54, "duration": 23, "velocity": 69}, {"time": 1237, "pitch": 63, "duration": 23, "velocity": 88}, {"time": 1237, "pitch": 66, "duration": 23, "velocity": 100}, {"time": 1261, "pitch": 45, "duration": 9, "velocity": 84}, {"time": 1261, "pitch": 49, "duration": 9, "velocity": 84}, {"time": 1261, "pitch": 52, "duration": 9, "velocity": 84}, {"time": 1273, "pitch": 45, "duration": 8, "velocity": 84}, {"time": 1273, "pitch": 49, "duration": 7, "velocity": 84}, {"time": 1273, "pitch": 52, "duration": 7, "velocity": 84}, {"time": 1285, "pitch": 45, "duration": 9, "velocity": 84}, {"time": 1285, "pitch": 48, "duration": 10, "velocity": 84}, {"time": 1285, "pitch": 52, "duration": 9, "velocity": 84}, {"time": 1297, "pitch": 45, "duration": 9, "velocity": 84}, {"time": 1297, "pitch": 48, "duration": 8, "velocity": 84}, {"time": 1297, "pitch": 52, "duration": 8, "velocity": 84}, {"time": 1309, "pitch": 40, "duration": 11, "velocity": 83}, {"time": 1309, "pitch": 52, "duration": 10, "velocity": 83}, {"time": 1309, "pitch": 56, "duration": 10, "velocity": 83}, {"time": 1309, "pitch": 59, "duration": 10, "velocity": 83}, {"time": 1321, "pitch": 40, "duration": 10, "velocity": 83}, {"time": 1321, "pitch": 52, "duration": 10, "velocity": 83}, {"time": 1321, "pitch": 56, "duration": 10, "velocity": 83}, {"time": 1321, "pitch": 59, "duration": 10, "velocity": 83}, {"time": 1333, "pitch": 40, "duration": 11, "velocity": 83}, {"time": 1333, "pitch": 52, "duration": 10, "velocity": 83}, {"time": 1333, "pitch": 56, "duration": 10, "velocity": 83}, {"time": 1333, "pitch": 59, "duration": 10, "velocity": 83}, {"time": 1345, "pitch": 40, "duration": 6, "velocity": 83}, {"time": 1345, "pitch": 52, "duration": 6, "velocity": 83}, {"time": 1345, "pitch": 56, "duration": 6, "velocity": 83}, {"time": 1345, "pitch": 59, "duration": 6, "velocity": 83}, {"time": 1357, "pitch": 45, "duration": 9, "velocity": 83}, {"time": 1357, "pitch": 49, "duration": 10, "velocity": 83}, {"time": 1357, "pitch": 52, "duration": 10, "velocity": 83}, {"time": 1369, "pitch": 45, "duration": 10, "velocity": 83}, {"time": 1369, "pitch": 49, "duration": 11, "velocity": 83}, {"time": 1369, "pitch": 52, "duration": 11, "velocity": 83}, {"time": 1381, "pitch": 45, "duration": 10, "velocity": 83}, {"time": 1381, "pitch": 48, "duration": 10, "velocity": 83}, {"time": 1381, "pitch": 52, "duration": 10, "velocity": 83}, {"time": 1393, "pitch": 45, "duration": 10, "velocity": 83}, {"time": 1393, "pitch": 48, "duration": 10, "velocity": 83}, {"time": 1393, "pitch": 52, "duration": 9, "velocity": 83}, {"time": 1405, "pitch": 40, "duration": 11, "velocity": 83}, {"time": 1405, "pitch": 52, "duration": 10, "velocity": 83}, {"time": 1405, "pitch": 56, "duration": 11, "velocity": 83}, {"time": 1405, "pitch": 59, "duration": 11, "velocity": 83}, {"time": 1417, "pitch": 40, "duration": 10, "velocity": 83}, {"time": 1417, "pitch": 52, "duration": 10, "velocity": 83}, {"time": 1417, "pitch": 56, "duration": 11, "velocity": 83}, {"time": 1417, "pitch": 59, "duration": 10, "velocity": 83}, {"time": 1429, "pitch": 40, "duration": 10, "velocity": 83}, {"time": 1429, "pitch": 52, "duration": 10, "velocity": 83}, {"time": 1429, "pitch": 56, "duration": 10, "velocity": 83}, {"time": 1429, "pitch": 59, "duration": 10, "velocity": 83}, {"time": 1441, "pitch": 40, "duration": 8, "velocity": 79}, {"time": 1441, "pitch": 52, "duration": 7, "velocity": 79}, {"time": 1441, "pitch": 56, "duration": 7, "velocity": 79}, {"time": 1441, "pitch": 59, "duration": 7, "velocity": 79}, {"time": 1453, "pitch": 45, "duration": 10, "velocity": 79}, {"time": 1453, "pitch": 49, "duration": 10, "velocity": 79}, {"time": 1453, "pitch": 52, "duration": 10, "velocity": 79}, {"time": 1465, "pitch": 45, "duration": 11, "velocity": 79}, {"time": 1465, "pitch": 49, "duration": 10, "velocity": 79}, {"time": 1465, "pitch": 52, "duration": 11, "velocity": 79}, {"time": 1477, "pitch": 45, "duration": 10, "velocity": 79}, {"time": 1477, "pitch": 48, "duration": 11, "velocity": 79}, {"time": 1477, "pitch": 52, "duration": 10, "velocity": 79}, {"time": 1489, "pitch": 45, "duration": 4, "velocity": 79}, {"time": 1489, "pitch": 48, "duration": 4, "velocity": 79}, {"time": 1489, "pitch": 52, "duration": 4, "velocity": 79}, {"time": 1501, "pitch": 40, "duration": 11, "velocity": 79}, {"time": 1501, "pitch": 52, "duration": 11, "velocity": 79}, {"time": 1501, "pitch": 56, "duration": 11, "velocity": 79}, {"time": 1501, "pitch": 59, "duration": 11, "velocity": 79}, {"time": 1513, "pitch": 40, "duration": 10, "velocity": 77}, {"time": 1513, "pitch": 52, "duration": 11, "velocity": 77}, {"time": 1513, "pitch": 56, "duration": 11, "velocity": 77}, {"time": 1513, "pitch": 59, "duration": 10, "velocity": 77}, {"time": 1525, "pitch": 49, "duration": 10, "velocity": 77}, {"time": 1525, "pitch": 53, "duration": 10, "velocity": 77}, {"time": 1525, "pitch": 56, "duration": 10, "velocity": 77}, {"time": 1537, "pitch": 49, "duration": 5, "velocity": 77}, {"time": 1537, "pitch": 53, "duration": 5, "velocity": 77}, {"time": 1537, "pitch": 56, "duration": 5, "velocity": 77}, {"time": 1549, "pitch": 42, "duration": 11, "velocity": 77}, {"time": 1549, "pitch": 45, "duration": 10, "velocity": 77}, {"time": 1549, "pitch": 49, "duration": 10, "velocity": 77}, {"time": 1561, "pitch": 42, "duration": 11, "velocity": 76}, {"time": 1561, "pitch": 45, "duration": 10, "velocity": 76}, {"time": 1561, "pitch": 49, "duration": 10, "velocity": 76}, {"time": 1573, "pitch": 42, "duration": 11, "velocity": 75}, {"time": 1573, "pitch": 45, "duration": 10, "velocity": 75}, {"time": 1573, "pitch": 49, "duration": 10, "velocity": 75}, {"time": 1585, "pitch": 42, "duration": 4, "velocity": 75}, {"time": 1585, "pitch": 45, "duration": 4, "velocity": 75}, {"time": 1585, "pitch": 49, "duration": 4, "velocity": 75}, {"time": 1597, "pitch": 45, "duration": 10, "velocity": 75}, {"time": 1597, "pitch": 48, "duration": 10, "velocity": 75}, {"time": 1597, "pitch": 52, "duration": 10, "velocity": 75}, {"time": 1609, "pitch": 45, "duration": 6, "velocity": 75}, {"time": 1609, "pitch": 48, "duration": 5, "velocity": 75}, {"time": 1609, "pitch": 52, "duration": 5, "velocity": 75}, {"time": 1621, "pitch": 47, "duration": 26, "velocity": 75}, {"time": 1621, "pitch": 51, "duration": 25, "velocity": 75}, {"time": 1621, "pitch": 54, "duration": 25, "velocity": 75}, {"time": 1645, "pitch": 40, "duration": 14, "velocity": 81}, {"time": 1645, "pitch": 59, "duration": 11, "velocity": 74}, {"time": 1645, "pitch": 64, "duration": 10, "velocity": 75}, {"time": 1645, "pitch": 68, "duration": 10, "velocity": 75}, {"time": 1651, "pitch": 47, "duration": 9, "velocity": 54}, {"time": 1657, "pitch": 52, "duration": 3, "velocity": 61}, {"time": 1657, "pitch": 64, "duration": 6, "velocity": 88}, {"time": 1657, "pitch": 68, "duration": 6, "velocity": 88}, {"time": 1663, "pitch": 59, "duration": 2, "velocity": 72}, {"time": 1663, "pitch": 63, "duration": 1, "velocity": 53}, {"time": 1669, "pitch": 39, "duration": 14, "velocity": 45}, {"time": 1669, "pitch": 59, "duration": 7, "velocity": 76}, {"time": 1669, "pitch": 63, "duration": 7, "velocity": 78}, {"time": 1675, "pitch": 56, "duration": 28, "velocity": 69}, {"time": 1681, "pitch": 63, "duration": 7, "velocity": 83}, {"time": 1687, "pitch": 59, "duration": 4, "velocity": 48}, {"time": 1693, "pitch": 37, "duration": 14, "velocity": 76}, {"time": 1693, "pitch": 61, "duration": 6, "velocity": 66}, {"time": 1693, "pitch": 64, "duration": 6, "velocity": 65}, {"time": 1699, "pitch": 49, "duration": 10, "velocity": 77}, {"time": 1705, "pitch": 56, "duration": 1, "velocity": 41}, {"time": 1705, "pitch": 61, "duration": 12, "velocity": 64}, {"time": 1705, "pitch": 64, "duration": 9, "velocity": 67}, {"time": 1711, "pitch": 56, "duration": 4, "velocity": 88}, {"time": 1717, "pitch": 47, "duration": 15, "velocity": 71}, {"time": 1717, "pitch": 59, "duration": 12, "velocity": 88}, {"time": 1723, "pitch": 54, "duration": 9, "velocity": 66}, {"time": 1729, "pitch": 63, "duration": 7, "velocity": 93}, {"time": 1729, "pitch": 66, "duration": 6, "velocity": 95}, {"time": 1735, "pitch": 59, "duration": 9, "velocity": 74}, {"time": 1741, "pitch": 45, "duration": 14, "velocity": 73}, {"time": 1747, "pitch": 52, "duration": 7, "velocity": 72}, {"time": 1753, "pitch": 61, "duration": 12, "velocity": 79}, {"time": 1753, "pitch": 64, "duration": 12, "velocity": 69}, {"time": 1759, "pitch": 57, "duration": 6, "velocity": 69}, {"time": 1765, "pitch": 44, "duration": 19, "velocity": 90}, {"time": 1771, "pitch": 56, "duration": 5, "velocity": 74}, {"time": 1777, "pitch": 60, "duration": 12, "velocity": 89}, {"time": 1777, "pitch": 63, "duration": 13, "velocity": 67}, {"time": 1783, "pitch": 56, "duration": 10, "velocity": 72}, {"time": 1789, "pitch": 49, "duration": 23, "velocity": 93}, {"time": 1795, "pitch": 56, "duration": 7, "velocity": 89}, {"time": 1801, "pitch": 61, "duration": 18, "velocity": 68}, {"time": 1801, "pitch": 64, "duration": 19, "velocity": 70}, {"time": 1807, "pitch": 56, "duration": 10, "velocity": 72}, {"time": 1813, "pitch": 49, "duration": 15, "velocity": 65}, {"time": 1819, "pitch": 56, "duration": 5, "velocity": 64}, {"time": 1825, "pitch": 61, "duration": 10, "velocity": 92}, {"time": 1825, "pitch": 64, "duration": 7, "velocity": 82}, {"time": 1831, "pitch": 49, "duration": 6, "velocity": 82}, {"time": 1837, "pitch": 45, "duration": 19, "velocity": 66}, {"time": 1837, "pitch": 57, "duration": 8, "velocity": 83}, {"time": 1837, "pitch": 61, "duration": 8, "velocity": 77}, {"time": 1837, "pitch": 64, "duration": 8, "velocity": 75}, {"time": 1843, "pitch": 52, "duration": 9, "velocity": 61}, {"time": 1849, "pitch": 61, "duration": 7, "velocity": 88}, {"time": 1849, "pitch": 64, "duration": 7, "velocity": 67}, {"time": 1855, "pitch": 57, "duration": 13, "velocity": 73}, {"time": 1861, "pitch": 45, "duration": 14, "velocity": 75}, {"time": 1861, "pitch": 60, "duration": 10, "velocity": 76}, {"time": 1861, "pitch": 64, "duration": 10, "velocity": 75}, {"time": 1867, "pitch": 52, "duration": 7, "velocity": 58}, {"time": 1873, "pitch": 60, "duration": 6, "velocity": 78}, {"time": 1873, "pitch": 64, "duration": 6, "velocity": 69}, {"time": 1879, "pitch": 57, "duration": 4, "velocity": 61}, {"time": 1885, "pitch": 44, "duration": 23, "velocity": 83}, {"time": 1885, "pitch": 59, "duration": 8, "velocity": 63}, {"time": 1885, "pitch": 63, "duration": 7, "velocity": 74}, {"time": 1885, "pitch": 66, "duration": 7, "velocity": 83}, {"time": 1891, "pitch": 56, "duration": 7, "velocity": 70}, {"time": 1897, "pitch": 63, "duration": 7, "velocity": 79}, {"time": 1897, "pitch": 66, "duration": 7, "velocity": 74}, {"time": 1903, "pitch": 59, "duration": 6, "velocity": 72}, {"time": 1909, "pitch": 49, "duration": 14, "velocity": 66}, {"time": 1909, "pitch": 56, "duration": 10, "velocity": 85}, {"time": 1909, "pitch": 61, "duration": 10, "velocity": 70}, {"time": 1909, "pitch": 65, "duration": 5, "velocity": 71}, {"time": 1921, "pitch": 56, "duration": 1, "velocity": 33}, {"time": 1921, "pitch": 61, "duration": 13, "velocity": 89}, {"time": 1921, "pitch": 65, "duration": 10, "velocity": 74}, {"time": 1927, "pitch": 56, "duration": 5, "velocity": 69}, {"time": 1933, "pitch": 42, "duration": 13, "velocity": 86}, {"time": 1933, "pitch": 57, "duration": 13, "velocity": 88}, {"time": 1939, "pitch": 54, "duration": 9, "velocity": 74}, {"time": 1945, "pitch": 61, "duration": 11, "velocity": 89}, {"time": 1945, "pitch": 66, "duration": 6, "velocity": 92}, {"time": 1951, "pitch": 57, "duration": 4, "velocity": 71}, {"time": 1957, "pitch": 47, "duration": 13, "velocity": 68}, {"time": 1957, "pitch": 59, "duration": 9, "velocity": 73}, {"time": 1957, "pitch": 63, "duration": 10, "velocity": 69}, {"time": 1957, "pitch": 66, "duration": 8, "velocity": 62}, {"time": 1963, "pitch": 54, "duration": 5, "velocity": 59}, {"time": 1969, "pitch": 63, "duration": 7, "velocity": 86}, {"time": 1969, "pitch": 66, "duration": 6, "velocity": 93}, {"time": 1975, "pitch": 59, "duration": 4, "velocity": 66}, {"time": 1981, "pitch": 40, "duration": 22, "velocity": 77}, {"time": 1981, "pitch": 59, "duration": 10, "velocity": 78}, {"time": 1981, "pitch": 64, "duration": 10, "velocity": 86}, {"time": 1981, "pitch": 68, "duration": 10, "velocity": 86}, {"time": 1987, "pitch": 47, "duration": 9, "velocity": 45}, {"time": 1993, "pitch": 52, "duration": 6, "velocity": 69}, {"time": 1993, "pitch": 64, "duration": 7, "velocity": 100}, {"time": 1993, "pitch": 68, "duration": 7, "velocity": 112}, {"time": 1999, "pitch": 47, "duration": 6, "velocity": 41}, {"time": 1999, "pitch": 59, "duration": 5, "velocity": 90}, {"time": 2005, "pitch": 40, "duration": 16, "velocity": 82}, {"time": 2005, "pitch": 59, "duration": 6, "velocity": 75}, {"time": 2005, "pitch": 64, "duration": 7, "velocity": 95}, {"time": 2005, "pitch": 68, "duration": 10, "velocity": 99}, {"time": 2008, "pitch": 47, "duration": 14, "velocity": 68}, {"time": 2011, "pitch": 52, "duration": 7, "velocity": 96}, {"time": 2014, "pitch": 59, "duration": 4, "velocity": 93}, {"time": 2017, "pitch": 64, "duration": 6, "velocity": 102}, {"time": 2017, "pitch": 68, "duration": 6, "velocity": 117}, {"time": 2020, "pitch": 52, "duration": 2, "velocity": 82}, {"time": 2023, "pitch": 59, "duration": 5, "velocity": 96}, {"time": 2029, "pitch": 45, "duration": 18, "velocity": 93}, {"time": 2029, "pitch": 61, "duration": 6, "velocity": 102}, {"time": 2029, "pitch": 64, "duration": 7, "velocity": 92}, {"time": 2032, "pitch": 52, "duration": 10, "velocity": 57}, {"time": 2035, "pitch": 57, "duration": 3, "velocity": 79}, {"time": 2041, "pitch": 61, "duration": 5, "velocity": 127}, {"time": 2041, "pitch": 64, "duration": 5, "velocity": 100}, {"time": 2044, "pitch": 52, "duration": 8, "velocity": 79}, {"time": 2047, "pitch": 57, "duration": 3, "velocity": 96}, {"time": 2053, "pitch": 47, "duration": 3, "velocity": 69}, {"time": 2053, "pitch": 59, "duration": 9, "velocity": 92}, {"time": 2053, "pitch": 63, "duration": 7, "velocity": 99}, {"time": 2053, "pitch": 66, "duration": 7, "velocity": 93}, {"time": 2059, "pitch": 47, "duration": 11, "velocity": 92}, {"time": 2065, "pitch": 54, "duration": 5, "velocity": 85}, {"time": 2065, "pitch": 63, "duration": 7, "velocity": 112}, {"time": 2065, "pitch": 66, "duration": 6, "velocity": 107}, {"time": 2071, "pitch": 59, "duration": 4, "velocity": 95}, {"time": 2074, "pitch": 44, "duration": 1, "velocity": 36}, {"time": 2077, "pitch": 44, "duration": 2, "velocity": 96}, {"time": 2077, "pitch": 59, "duration": 7, "velocity": 83}, {"time": 2077, "pitch": 63, "duration": 7, "velocity": 100}, {"time": 2077, "pitch": 68, "duration": 7, "velocity": 92}, {"time": 2083, "pitch": 44, "duration": 14, "velocity": 102}, {"time": 2089, "pitch": 56, "duration": 4, "velocity": 93}, {"time": 2089, "pitch": 63, "duration": 6, "velocity": 122}, {"time": 2089, "pitch": 68, "duration": 6, "velocity": 117}, {"time": 2095, "pitch": 59, "duration": 3, "velocity": 96}, {"time": 2101, "pitch": 49, "duration": 5, "velocity": 99}, {"time": 2101, "pitch": 61, "duration": 8, "velocity": 76}, {"time": 2101, "pitch": 64, "duration": 8, "velocity": 76}, {"time": 2107, "pitch": 49, "duration": 5, "velocity": 72}, {"time": 2113, "pitch": 49, "duration": 4, "velocity": 95}, {"time": 2113, "pitch": 61, "duration": 7, "velocity": 112}, {"time": 2113, "pitch": 64, "duration": 8, "velocity": 85}, {"time": 2119, "pitch": 56, "duration": 2, "velocity": 97}, {"time": 2125, "pitch": 45, "duration": 14, "velocity": 85}, {"time": 2125, "pitch": 61, "duration": 10, "velocity": 81}, {"time": 2125, "pitch": 64, "duration": 8, "velocity": 85}, {"time": 2131, "pitch": 52, "duration": 10, "velocity": 73}, {"time": 2137, "pitch": 57, "duration": 9, "velocity": 92}, {"time": 2137, "pitch": 61, "duration": 11, "velocity": 107}, {"time": 2137, "pitch": 64, "duration": 6, "velocity": 88}, {"time": 2143, "pitch": 45, "duration": 5, "velocity": 73}, {"time": 2149, "pitch": 47, "duration": 15, "velocity": 75}, {"time": 2149, "pitch": 59, "duration": 5, "velocity": 79}, {"time": 2149, "pitch": 63, "duration": 11, "velocity": 93}, {"time": 2149, "pitch": 66, "duration": 9, "velocity": 93}, {"time": 2155, "pitch": 59, "duration": 8, "velocity": 72}, {"time": 2161, "pitch": 63, "duration": 7, "velocity": 100}, {"time": 2161, "pitch": 66, "duration": 7, "velocity": 100}, {"time": 2164, "pitch": 47, "duration": 2, "velocity": 77}, {"time": 2167, "pitch": 59, "duration": 4, "velocity": 97}, {"time": 2173, "pitch": 40, "duration": 23, "velocity": 82}, {"time": 2173, "pitch": 59, "duration": 7, "velocity": 99}, {"time": 2173, "pitch": 64, "duration": 10, "velocity": 97}, {"time": 2173, "pitch": 68, "duration": 10, "velocity": 112}, {"time": 2176, "pitch": 47, "duration": 21, "velocity": 75}, {"time": 2179, "pitch": 52, "duration": 7, "velocity": 92}, {"time": 2182, "pitch": 59, "duration": 7, "velocity": 79}, {"time": 2185, "pitch": 64, "duration": 7, "velocity": 122}, {"time": 2185, "pitch": 68, "duration": 7, "velocity": 127}, {"time": 2188, "pitch": 52, "duration": 3, "velocity": 99}, {"time": 2191, "pitch": 59, "duration": 5, "velocity": 96}, {"time": 2194, "pitch": 64, "duration": 2, "velocity": 89}, {"time": 2194, "pitch": 68, "duration": 2, "velocity": 93}, {"time": 2197, "pitch": 40, "duration": 17, "velocity": 92}, {"time": 2197, "pitch": 59, "duration": 6, "velocity": 72}, {"time": 2197, "pitch": 64, "duration": 7, "velocity": 122}, {"time": 2197, "pitch": 68, "duration": 7, "velocity": 127}, {"time": 2200, "pitch": 47, "duration": 15, "velocity": 77}, {"time": 2203, "pitch": 52, "duration": 8, "velocity": 97}, {"time": 2206, "pitch": 59, "duration": 2, "velocity": 96}, {"time": 2206, "pitch": 64, "duration": 2, "velocity": 53}, {"time": 2206, "pitch": 68, "duration": 1, "velocity": 38}, {"time": 2209, "pitch": 59, "duration": 4, "velocity": 93}, {"time": 2209, "pitch": 64, "duration": 6, "velocity": 102}, {"time": 2209, "pitch": 68, "duration": 6, "velocity": 127}, {"time": 2212, "pitch": 52, "duration": 4, "velocity": 96}, {"time": 2215, "pitch": 59, "duration": 4, "velocity": 112}, {"time": 2218, "pitch": 64, "duration": 1, "velocity": 33}, {"time": 2221, "pitch": 45, "duration": 21, "velocity": 83}, {"time": 2221, "pitch": 57, "duration": 3, "velocity": 112}, {"time": 2221, "pitch": 61, "duration": 7, "velocity": 112}, {"time": 2221, "pitch": 64, "duration": 8, "velocity": 89}, {"time": 2224, "pitch": 52, "duration": 10, "velocity": 93}, {"time": 2227, "pitch": 57, "duration": 5, "velocity": 89}, {"time": 2230, "pitch": 61, "duration": 14, "velocity": 85}, {"time": 2233, "pitch": 64, "duration": 5, "velocity": 97}, {"time": 2236, "pitch": 52, "duration": 8, "velocity": 88}, {"time": 2239, "pitch": 57, "duration": 4, "velocity": 89}, {"time": 2245, "pitch": 47, "duration": 16, "velocity": 79}, {"time": 2245, "pitch": 59, "duration": 10, "velocity": 89}, {"time": 2245, "pitch": 63, "duration": 10, "velocity": 97}, {"time": 2245, "pitch": 66, "duration": 8, "velocity": 96}, {"time": 2251, "pitch": 54, "duration": 8, "velocity": 85}, {"time": 2257, "pitch": 63, "duration": 6, "velocity": 127}, {"time": 2257, "pitch": 66, "duration": 6, "velocity": 127}, {"time": 2260, "pitch": 54, "duration": 2, "velocity": 96}, {"time": 2263, "pitch": 59, "duration": 5, "velocity": 96}, {"time": 2269, "pitch": 44, "duration": 22, "velocity": 99}, {"time": 2269, "pitch": 59, "duration": 1, "velocity": 69}, {"time": 2269, "pitch": 63, "duration": 6, "velocity": 107}, {"time": 2269, "pitch": 68, "duration": 7, "velocity": 102}, {"time": 2272, "pitch": 56, "duration": 9, "velocity": 97}, {"time": 2275, "pitch": 59, "duration": 5, "velocity": 88}, {"time": 2278, "pitch": 63, "duration": 2, "velocity": 72}, {"time": 2281, "pitch": 63, "duration": 6, "velocity": 122}, {"time": 2281, "pitch": 68, "duration": 6, "velocity": 117}, {"time": 2284, "pitch": 56, "duration": 2, "velocity": 95}, {"time": 2287, "pitch": 59, "duration": 5, "velocity": 93}, {"time": 2293, "pitch": 37, "duration": 15, "velocity": 90}, {"time": 2293, "pitch": 56, "duration": 6, "velocity": 97}, {"time": 2293, "pitch": 61, "duration": 7, "velocity": 89}, {"time": 2293, "pitch": 65, "duration": 6, "velocity": 60}, {"time": 2296, "pitch": 44, "duration": 12, "velocity": 66}, {"time": 2299, "pitch": 49, "duration": 7, "velocity": 93}, {"time": 2302, "pitch": 56, "duration": 6, "velocity": 79}, {"time": 2305, "pitch": 61, "duration": 6, "velocity": 72}, {"time": 2305, "pitch": 65, "duration": 9, "velocity": 74}, {"time": 2308, "pitch": 49, "duration": 2, "velocity": 79}, {"time": 2311, "pitch": 56, "duration": 6, "velocity": 100}, {"time": 2317, "pitch": 45, "duration": 18, "velocity": 83}, {"time": 2320, "pitch": 52, "duration": 11, "velocity": 64}, {"time": 2323, "pitch": 57, "duration": 3, "velocity": 96}, {"time": 2326, "pitch": 61, "duration": 2, "velocity": 66}, {"time": 2326, "pitch": 64, "duration": 2, "velocity": 68}, {"time": 2329, "pitch": 61, "duration": 11, "velocity": 99}, {"time": 2329, "pitch": 64, "duration": 6, "velocity": 89}, {"time": 2332, "pitch": 52, "duration": 4, "velocity": 70}, {"time": 2335, "pitch": 57, "duration": 4, "velocity": 83}, {"time": 2341, "pitch": 47, "duration": 20, "velocity": 69}, {"time": 2341, "pitch": 59, "duration": 11, "velocity": 83}, {"time": 2341, "pitch": 63, "duration": 10, "velocity": 75}, {"time": 2341, "pitch": 66, "duration": 10, "velocity": 77}, {"time": 2347, "pitch": 54, "duration": 8, "velocity": 66}, {"time": 2353, "pitch": 59, "duration": 4, "velocity": 60}, {"time": 2353, "pitch": 63, "duration": 10, "velocity": 117}, {"time": 2353, "pitch": 66, "duration": 10, "velocity": 107}, {"time": 2356, "pitch": 54, "duration": 8, "velocity": 63}, {"time": 2359, "pitch": 59, "duration": 5, "velocity": 74}, {"time": 2365, "pitch": 37, "duration": 21, "velocity": 95}, {"time": 2365, "pitch": 56, "duration": 11, "velocity": 102}, {"time": 2365, "pitch": 61, "duration": 9, "velocity": 102}, {"time": 2365, "pitch": 65, "duration": 8, "velocity": 73}, {"time": 2371, "pitch": 44, "duration": 19, "velocity": 64}, {"time": 2374, "pitch": 49, "duration": 4, "velocity": 66}, {"time": 2377, "pitch": 56, "duration": 1, "velocity": 78}, {"time": 2377, "pitch": 61, "duration": 7, "velocity": 112}, {"time": 2377, "pitch": 65, "duration": 6, "velocity": 93}, {"time": 2380, "pitch": 49, "duration": 4, "velocity": 88}, {"time": 2383, "pitch": 56, "duration": 4, "velocity": 96}, {"time": 2386, "pitch": 61, "duration": 1, "velocity": 66}, {"time": 2386, "pitch": 65, "duration": 1, "velocity": 34}, {"time": 2389, "pitch": 37, "duration": 15, "velocity": 88}, {"time": 2389, "pitch": 56, "duration": 7, "velocity": 97}, {"time": 2389, "pitch": 61, "duration": 6, "velocity": 93}, {"time": 2389, "pitch": 65, "duration": 7, "velocity": 81}, {"time": 2392, "pitch": 44, "duration": 12, "velocity": 36}, {"time": 2395, "pitch": 49, "duration": 6, "velocity": 89}, {"time": 2398, "pitch": 56, "duration": 2, "velocity": 75}, {"time": 2398, "pitch": 61, "duration": 1, "velocity": 36}, {"time": 2398, "pitch": 65, "duration": 1, "velocity": 37}, {"time": 2401, "pitch": 56, "duration": 4, "velocity": 72}, {"time": 2401, "pitch": 61, "duration": 11, "velocity": 99}, {"time": 2401, "pitch": 65, "duration": 7, "velocity": 92}, {"time": 2404, "pitch": 49, "duration": 2, "velocity": 89}, {"time": 2407, "pitch": 56, "duration": 4, "velocity": 102}, {"time": 2413, "pitch": 45, "duration": 22, "velocity": 76}, {"time": 2413, "pitch": 57, "duration": 1, "velocity": 92}, {"time": 2413, "pitch": 61, "duration": 6, "velocity": 72}, {"time": 2413, "pitch": 64, "duration": 8, "velocity": 83}, {"time": 2416, "pitch": 52, "duration": 11, "velocity": 65}, {"time": 2419, "pitch": 57, "duration": 3, "velocity": 96}, {"time": 2422, "pitch": 61, "duration": 10, "velocity": 92}, {"time": 2425, "pitch": 64, "duration": 9, "velocity": 93}, {"time": 2428, "pitch": 52, "duration": 8, "velocity": 75}, {"time": 2431, "pitch": 57, "duration": 4, "velocity": 85}, {"time": 2434, "pitch": 61, "duration": 3, "velocity": 86}, {"time": 2437, "pitch": 47, "duration": 11, "velocity": 90}, {"time": 2437, "pitch": 59, "duration": 5, "velocity": 89}, {"time": 2437, "pitch": 63, "duration": 8, "velocity": 117}, {"time": 2437, "pitch": 66, "duration": 8, "velocity": 93}, {"time": 2440, "pitch": 54, "duration": 8, "velocity": 86}, {"time": 2443, "pitch": 59, "duration": 4, "velocity": 73}, {"time": 2446, "pitch": 63, "duration": 2, "velocity": 56}, {"time": 2449, "pitch": 47, "duration": 13, "velocity": 66}, {"time": 2449, "pitch": 54, "duration": 13, "velocity": 76}, {"time": 2449, "pitch": 59, "duration": 13, "velocity": 89}, {"time": 2449, "pitch": 63, "duration": 13, "velocity": 96}, {"time": 2449, "pitch": 66, "duration": 13, "velocity": 96}, {"time": 2485, "pitch": 45, "duration": 41, "velocity": 76}, {"time": 2485, "pitch": 57, "duration": 41, "velocity": 76}, {"time": 2485, "pitch": 61, "duration": 42, "velocity": 76}, {"time": 2485, "pitch": 64, "duration": 42, "velocity": 76}, {"time": 2533, "pitch": 44, "duration": 18, "velocity": 78}, {"time": 2533, "pitch": 56, "duration": 10, "velocity": 78}, {"time": 2533, "pitch": 59, "duration": 10, "velocity": 78}, {"time": 2533, "pitch": 63, "duration": 11, "velocity": 78}, {"time": 2545, "pitch": 56, "duration": 4, "velocity": 78}, {"time": 2545, "pitch": 59, "duration": 4, "velocity": 78}, {"time": 2545, "pitch": 63, "duration": 5, "velocity": 78}, {"time": 2557, "pitch": 49, "duration": 18, "velocity": 78}, {"time": 2557, "pitch": 61, "duration": 10, "velocity": 78}, {"time": 2557, "pitch": 64, "duration": 10, "velocity": 78}, {"time": 2557, "pitch": 68, "duration": 10, "velocity": 78}, {"time": 2569, "pitch": 61, "duration": 5, "velocity": 78}, {"time": 2569, "pitch": 64, "duration": 5, "velocity": 78}, {"time": 2569, "pitch": 68, "duration": 5, "velocity": 78}, {"time": 2581, "pitch": 45, "duration": 19, "velocity": 85}, {"time": 2581, "pitch": 61, "duration": 6, "velocity": 99}, {"time": 2581, "pitch": 64, "duration": 7, "velocity": 90}, {"time": 2584, "pitch": 52, "duration": 11, "velocity": 65}, {"time": 2587, "pitch": 57, "duration": 3, "velocity": 96}, {"time": 2590, "pitch": 61, "duration": 2, "velocity": 76}, {"time": 2593, "pitch": 61, "duration": 11, "velocity": 95}, {"time": 2593, "pitch": 64, "duration": 6, "velocity": 95}, {"time": 2596, "pitch": 52, "duration": 4, "velocity": 56}, {"time": 2599, "pitch": 57, "duration": 3, "velocity": 85}, {"time": 2605, "pitch": 47, "duration": 17, "velocity": 66}, {"time": 2605, "pitch": 59, "duration": 3, "velocity": 88}, {"time": 2605, "pitch": 63, "duration": 7, "velocity": 69}, {"time": 2605, "pitch": 66, "duration": 7, "velocity": 77}, {"time": 2608, "pitch": 54, "duration": 10, "velocity": 96}, {"time": 2611, "pitch": 59, "duration": 5, "velocity": 77}, {"time": 2614, "pitch": 63, "duration": 2, "velocity": 86}, {"time": 2614, "pitch": 66, "duration": 2, "velocity": 70}, {"time": 2617, "pitch": 63, "duration": 7, "velocity": 112}, {"time": 2617, "pitch": 66, "duration": 7, "velocity": 99}, {"time": 2620, "pitch": 54, "duration": 1, "velocity": 95}, {"time": 2623, "pitch": 59, "duration": 4, "velocity": 100}, {"time": 2626, "pitch": 63, "duration": 2, "velocity": 45}, {"time": 2629, "pitch": 40, "duration": 22, "velocity": 85}, {"time": 2629, "pitch": 59, "duration": 7, "velocity": 75}, {"time": 2629, "pitch": 64, "duration": 8, "velocity": 95}, {"time": 2629, "pitch": 68, "duration": 8, "velocity": 100}, {"time": 2632, "pitch": 47, "duration": 22, "velocity": 70}, {"time": 2635, "pitch": 52, "duration": 7, "velocity": 86}, {"time": 2638, "pitch": 59, "duration": 2, "velocity": 90}, {"time": 2638, "pitch": 64, "duration": 1, "velocity": 30}, {"time": 2638, "pitch": 68, "duration": 1, "velocity": 46}, {"time": 2641, "pitch": 59, "duration": 3, "velocity": 68}, {"time": 2641, "pitch": 64, "duration": 7, "velocity": 99}, {"time": 2641, "pitch": 68, "duration": 7, "velocity": 117}, {"time": 2644, "pitch": 52, "duration": 7, "velocity": 86}, {"time": 2647, "pitch": 59, "duration": 2, "velocity": 88}, {"time": 2650, "pitch": 59, "duration": 9, "velocity": 63}, {"time": 2650, "pitch": 64, "duration": 9, "velocity": 92}, {"time": 2650, "pitch": 68, "duration": 9, "velocity": 102}, {"time": 2653, "pitch": 40, "duration": 16, "velocity": 74}, {"time": 2656, "pitch": 47, "duration": 14, "velocity": 74}, {"time": 2659, "pitch": 52, "duration": 7, "velocity": 93}, {"time": 2662, "pitch": 59, "duration": 2, "velocity": 89}, {"time": 2662, "pitch": 64, "duration": 2, "velocity": 90}, {"time": 2662, "pitch": 68, "duration": 2, "velocity": 93}, {"time": 2665, "pitch": 64, "duration": 6, "velocity": 122}, {"time": 2665, "pitch": 68, "duration": 5, "velocity": 127}, {"time": 2668, "pitch": 52, "duration": 2, "velocity": 90}, {"time": 2671, "pitch": 59, "duration": 4, "velocity": 117}, {"time": 2677, "pitch": 45, "duration": 20, "velocity": 74}, {"time": 2677, "pitch": 61, "duration": 7, "velocity": 100}, {"time": 2677, "pitch": 64, "duration": 8, "velocity": 90}, {"time": 2680, "pitch": 52, "duration": 10, "velocity": 37}, {"time": 2683, "pitch": 57, "duration": 5, "velocity": 88}, {"time": 2686, "pitch": 61, "duration": 2, "velocity": 82}, {"time": 2686, "pitch": 64, "duration": 1, "velocity": 36}, {"time": 2689, "pitch": 61, "duration": 6, "velocity": 117}, {"time": 2689, "pitch": 64, "duration": 9, "velocity": 96}, {"time": 2692, "pitch": 52, "duration": 8, "velocity": 86}, {"time": 2695, "pitch": 57, "duration": 4, "velocity": 96}, {"time": 2698, "pitch": 61, "duration": 3, "velocity": 93}, {"time": 2701, "pitch": 47, "duration": 16, "velocity": 75}, {"time": 2701, "pitch": 63, "duration": 7, "velocity": 112}, {"time": 2701, "pitch": 66, "duration": 7, "velocity": 107}, {"time": 2704, "pitch": 54, "duration": 10, "velocity": 96}, {"time": 2707, "pitch": 59, "duration": 4, "velocity": 99}, {"time": 2710, "pitch": 63, "duration": 1, "velocity": 112}, {"time": 2710, "pitch": 66, "duration": 1, "velocity": 96}, {"time": 2713, "pitch": 63, "duration": 6, "velocity": 127}, {"time": 2713, "pitch": 66, "duration": 6, "velocity": 107}, {"time": 2716, "pitch": 54, "duration": 1, "velocity": 86}, {"time": 2719, "pitch": 59, "duration": 5, "velocity": 96}, {"time": 2725, "pitch": 44, "duration": 18, "velocity": 89}, {"time": 2725, "pitch": 59, "duration": 7, "velocity": 78}, {"time": 2725, "pitch": 63, "duration": 7, "velocity": 112}, {"time": 2725, "pitch": 68, "duration": 7, "velocity": 99}, {"time": 2728, "pitch": 51, "duration": 15, "velocity": 34}, {"time": 2731, "pitch": 56, "duration": 7, "velocity": 93}, {"time": 2734, "pitch": 59, "duration": 4, "velocity": 96}, {"time": 2737, "pitch": 63, "duration": 5, "velocity": 112}, {"time": 2737, "pitch": 68, "duration": 5, "velocity": 122}, {"time": 2740, "pitch": 56, "duration": 2, "velocity": 97}, {"time": 2743, "pitch": 59, "duration": 3, "velocity": 90}, {"time": 2749, "pitch": 49, "duration": 14, "velocity": 81}, {"time": 2749, "pitch": 61, "duration": 4, "velocity": 78}, {"time": 2749, "pitch": 65, "duration": 5, "velocity": 69}, {"time": 2752, "pitch": 56, "duration": 4, "velocity": 95}, {"time": 2755, "pitch": 61, "duration": 5, "velocity": 63}, {"time": 2758, "pitch": 56, "duration": 5, "velocity": 69}, {"time": 2761, "pitch": 61, "duration": 7, "velocity": 77}, {"time": 2761, "pitch": 65, "duration": 9, "velocity": 81}, {"time": 2764, "pitch": 49, "duration": 3, "velocity": 66}, {"time": 2767, "pitch": 56, "duration": 5, "velocity": 102}, {"time": 2770, "pitch": 61, "duration": 2, "velocity": 28}, {"time": 2773, "pitch": 45, "duration": 19, "velocity": 79}, {"time": 2773, "pitch": 61, "duration": 7, "velocity": 60}, {"time": 2773, "pitch": 64, "duration": 8, "velocity": 82}, {"time": 2776, "pitch": 52, "duration": 11, "velocity": 69}, {"time": 2779, "pitch": 57, "duration": 3, "velocity": 96}, {"time": 2785, "pitch": 57, "duration": 3, "velocity": 97}, {"time": 2785, "pitch": 61, "duration": 7, "velocity": 102}, {"time": 2785, "pitch": 64, "duration": 9, "velocity": 89}, {"time": 2788, "pitch": 52, "duration": 8, "velocity": 76}, {"time": 2791, "pitch": 57, "duration": 4, "velocity": 117}, {"time": 2794, "pitch": 61, "duration": 2, "velocity": 35}, {"time": 2797, "pitch": 47, "duration": 16, "velocity": 78}, {"time": 2797, "pitch": 59, "duration": 10, "velocity": 96}, {"time": 2797, "pitch": 63, "duration": 8, "velocity": 112}, {"time": 2797, "pitch": 66, "duration": 7, "velocity": 100}, {"time": 2803, "pitch": 54, "duration": 8, "velocity": 96}, {"time": 2809, "pitch": 63, "duration": 7, "velocity": 127}, {"time": 2809, "pitch": 66, "duration": 6, "velocity": 112}, {"time": 2812, "pitch": 54, "duration": 1, "velocity": 72}, {"time": 2815, "pitch": 59, "duration": 2, "velocity": 102}, {"time": 2821, "pitch": 37, "duration": 23, "velocity": 90}, {"time": 2821, "pitch": 56, "duration": 10, "velocity": 97}, {"time": 2821, "pitch": 61, "duration": 7, "velocity": 61}, {"time": 2821, "pitch": 65, "duration": 6, "velocity": 66}, {"time": 2827, "pitch": 44, "duration": 18, "velocity": 39}, {"time": 2833, "pitch": 56, "duration": 4, "velocity": 102}, {"time": 2833, "pitch": 61, "duration": 7, "velocity": 102}, {"time": 2833, "pitch": 65, "duration": 7, "velocity": 86}, {"time": 2836, "pitch": 49, "duration": 10, "velocity": 75}, {"time": 2839, "pitch": 56, "duration": 5, "velocity": 99}, {"time": 2842, "pitch": 61, "duration": 1, "velocity": 35}, {"time": 2842, "pitch": 65, "duration": 1, "velocity": 34}, {"time": 2845, "pitch": 37, "duration": 17, "velocity": 97}, {"time": 2845, "pitch": 56, "duration": 10, "velocity": 85}, {"time": 2845, "pitch": 61, "duration": 7, "velocity": 73}, {"time": 2845, "pitch": 65, "duration": 7, "velocity": 72}, {"time": 2851, "pitch": 44, "duration": 9, "velocity": 25}, {"time": 2851, "pitch": 49, "duration": 7, "velocity": 53}, {"time": 2857, "pitch": 56, "duration": 4, "velocity": 99}, {"time": 2857, "pitch": 61, "duration": 7, "velocity": 122}, {"time": 2857, "pitch": 65, "duration": 7, "velocity": 83}, {"time": 2860, "pitch": 49, "duration": 3, "velocity": 77}, {"time": 2863, "pitch": 56, "duration": 3, "velocity": 97}, {"time": 2866, "pitch": 61, "duration": 2, "velocity": 24}, {"time": 2869, "pitch": 45, "duration": 14, "velocity": 83}, {"time": 2869, "pitch": 57, "duration": 10, "velocity": 107}, {"time": 2869, "pitch": 61, "duration": 11, "velocity": 90}, {"time": 2869, "pitch": 64, "duration": 10, "velocity": 90}, {"time": 2881, "pitch": 57, "duration": 2, "velocity": 97}, {"time": 2881, "pitch": 61, "duration": 10, "velocity": 117}, {"time": 2881, "pitch": 64, "duration": 10, "velocity": 99}, {"time": 2884, "pitch": 45, "duration": 7, "velocity": 65}, {"time": 2887, "pitch": 57, "duration": 4, "velocity": 99}, {"time": 2893, "pitch": 47, "duration": 22, "velocity": 75}, {"time": 2893, "pitch": 59, "duration": 22, "velocity": 75}, {"time": 2893, "pitch": 63, "duration": 22, "velocity": 75}, {"time": 2893, "pitch": 66, "duration": 22, "velocity": 75}, {"time": 2917, "pitch": 47, "duration": 30, "velocity": 75}, {"time": 2917, "pitch": 59, "duration": 30, "velocity": 75}, {"time": 2917, "pitch": 63, "duration": 30, "velocity": 75}, {"time": 2917, "pitch": 66, "duration": 30, "velocity": 75}, {"time": 2941, "pitch": 52, "duration": 10, "velocity": 75}, {"time": 2941, "pitch": 56, "duration": 11, "velocity": 75}, {"time": 2941, "pitch": 59, "duration": 6, "velocity": 75}, {"time": 2953, "pitch": 52, "duration": 6, "velocity": 75}, {"time": 2953, "pitch": 56, "duration": 9, "velocity": 75}, {"time": 2953, "pitch": 59, "duration": 8, "velocity": 75}, {"time": 2965, "pitch": 51, "duration": 11, "velocity": 75}, {"time": 2965, "pitch": 56, "duration": 11, "velocity": 75}, {"time": 2965, "pitch": 59, "duration": 10, "velocity": 75}, {"time": 2977, "pitch": 51, "duration": 10, "velocity": 75}, {"time": 2977, "pitch": 56, "duration": 10, "velocity": 75}, {"time": 2977, "pitch": 59, "duration": 9, "velocity": 75}, {"time": 2989, "pitch": 49, "duration": 10, "velocity": 75}, {"time": 2989, "pitch": 52, "duration": 10, "velocity": 75}, {"time": 2989, "pitch": 56, "duration": 10, "velocity": 75}, {"time": 3001, "pitch": 49, "duration": 6, "velocity": 75}, {"time": 3001, "pitch": 52, "duration": 5, "velocity": 75}, {"time": 3001, "pitch": 56, "duration": 5, "velocity": 75}, {"time": 3013, "pitch": 47, "duration": 10, "velocity": 75}, {"time": 3013, "pitch": 51, "duration": 10, "velocity": 75}, {"time": 3013, "pitch": 54, "duration": 10, "velocity": 75}, {"time": 3025, "pitch": 47, "duration": 6, "velocity": 75}, {"time": 3025, "pitch": 51, "duration": 6, "velocity": 75}, {"time": 3025, "pitch": 54, "duration": 6, "velocity": 75}, {"time": 3037, "pitch": 45, "duration": 12, "velocity": 75}, {"time": 3037, "pitch": 49, "duration": 12, "velocity": 75}, {"time": 3037, "pitch": 52, "duration": 12, "velocity": 75}, {"time": 3049, "pitch": 45, "duration": 1, "velocity": 73}, {"time": 3049, "pitch": 49, "duration": 12, "velocity": 73}, {"time": 3049, "pitch": 52, "duration": 1, "velocity": 73}, {"time": 3064, "pitch": 45, "duration": 14, "velocity": 72}, {"time": 3064, "pitch": 49, "duration": 14, "velocity": 72}, {"time": 3064, "pitch": 52, "duration": 14, "velocity": 72}, {"time": 3079, "pitch": 45, "duration": 9, "velocity": 71}, {"time": 3079, "pitch": 49, "duration": 9, "velocity": 71}, {"time": 3079, "pitch": 52, "duration": 9, "velocity": 71}, {"time": 3100, "pitch": 40, "duration": 59, "velocity": 70}, {"time": 3100, "pitch": 44, "duration": 60, "velocity": 70}, {"time": 3100, "pitch": 47, "duration": 59, "velocity": 70}], "annotations": [{"time": 13, "annotation": {"number": 64, "value": 80}, "group": "control_change"}, {"time": 49, "annotation": {"number": 64, "value": 81}, "group": "control_change"}, {"time": 73, "annotation": {"number": 64, "value": 84}, "group": "control_change"}, {"time": 109, "annotation": {"number": 64, "value": 85}, "group": "control_change"}, {"time": 121, "annotation": {"number": 64, "value": 86}, "group": "control_change"}, {"time": 193, "annotation": {"number": 64, "value": 85}, "group": "control_change"}, {"time": 241, "annotation": {"number": 64, "value": 84}, "group": "control_change"}, {"time": 265, "annotation": {"number": 64, "value": 83}, "group": "control_change"}, {"time": 277, "annotation": {"number": 64, "value": 81}, "group": "control_change"}, {"time": 313, "annotation": {"number": 64, "value": 80}, "group": "control_change"}, {"time": 373, "annotation": {"number": 64, "value": 81}, "group": "control_change"}, {"time": 421, "annotation": {"number": 64, "value": 127}, "group": "control_change"}, {"time": 443, "annotation": {"number": 64, "value": 0}, "group": "control_change"}, {"time": 444, "annotation": {"number": 64, "value": 127}, "group": "control_change"}, {"time": 468, "annotation": {"number": 64, "value": 0}, "group": "control_change"}, {"time": 469, "annotation": {"number": 64, "value": 127}, "group": "control_change"}, {"time": 492, "annotation": {"number": 64, "value": 0}, "group": "control_change"}, {"time": 493, "annotation": {"number": 64, "value": 127}, "group": "control_change"}, {"time": 514, "annotation": {"number": 64, "value": 0}, "group": "control_change"}, {"time": 515, "annotation": {"number": 64, "value": 0}, "group": "control_change"}, {"time": 517, "annotation": {"number": 64, "value": 127}, "group": "control_change"}, {"time": 539, "annotation": {"number": 64, "value": 0}, "group": "control_change"}, {"time": 541, "annotation": {"number": 64, "value": 127}, "group": "control_change"}, {"time": 542, "annotation": {"number": 64, "value": 127}, "group": "control_change"}, {"time": 562, "annotation": {"number": 64, "value": 0}, "group": "control_change"}, {"time": 565, "annotation": {"number": 64, "value": 127}, "group": "control_change"}, {"time": 586, "annotation": {"number": 64, "value": 0}, "group": "control_change"}, {"time": 589, "annotation": {"number": 64, "value": 127}, "group": "control_change"}, {"time": 610, "annotation": {"number": 64, "value": 0}, "group": "control_change"}, {"time": 612, "annotation": {"number": 64, "value": 127}, "group": "control_change"}, {"time": 634, "annotation": {"number": 64, "value": 0}, "group": "control_change"}, {"time": 637, "annotation": {"number": 64, "value": 127}, "group": "control_change"}, {"time": 658, "annotation": {"number": 64, "value": 0}, "group": "control_change"}, {"time": 660, "annotation": {"number": 64, "value": 127}, "group": "control_change"}, {"time": 682, "annotation": {"number": 64, "value": 0}, "group": "control_change"}, {"time": 684, "annotation": {"number": 64, "value": 127}, "group": "control_change"}, {"time": 685, "annotation": {"number": 64, "value": 127}, "group": "control_change"}, {"time": 707, "annotation": {"number": 64, "value": 0}, "group": "control_change"}, {"time": 709, "annotation": {"number": 64, "value": 127}, "group": "control_change"}, {"time": 730, "annotation": {"number": 64, "value": 0}, "group": "control_change"}, {"time": 732, "annotation": {"number": 64, "value": 127}, "group": "control_change"}, {"time": 733, "annotation": {"number": 64, "value": 127}, "group": "control_change"}, {"time": 754, "annotation": {"number": 64, "value": 0}, "group": "control_change"}, {"time": 757, "annotation": {"number": 64, "value": 127}, "group": "control_change"}, {"time": 779, "annotation": {"number": 64, "value": 0}, "group": "control_change"}, {"time": 781, "annotation": {"number": 64, "value": 127}, "group": "control_change"}, {"time": 802, "annotation": {"number": 64, "value": 0}, "group": "control_change"}, {"time": 804, "annotation": {"number": 64, "value": 127}, "group": "control_change"}, {"time": 805, "annotation": {"number": 64, "value": 127}, "group": "control_change"}, {"time": 827, "annotation": {"number": 64, "value": 0}, "group": "control_change"}, {"time": 829, "annotation": {"number": 64, "value": 127}, "group": "control_change"}, {"time": 836, "annotation": {"number": 64, "value": 0}, "group": "control_change"}, {"time": 840, "annotation": {"number": 64, "value": 127}, "group": "control_change"}, {"time": 850, "annotation": {"number": 64, "value": 0}, "group": "control_change"}, {"time": 853, "annotation": {"number": 64, "value": 127}, "group": "control_change"}, {"time": 859, "annotation": {"number": 64, "value": 0}, "group": "control_change"}, {"time": 864, "annotation": {"number": 64, "value": 127}, "group": "control_change"}, {"time": 875, "annotation": {"number": 64, "value": 0}, "group": "control_change"}, {"time": 877, "annotation": {"number": 64, "value": 127}, "group": "control_change"}, {"time": 899, "annotation": {"number": 64, "value": 0}, "group": "control_change"}, {"time": 901, "annotation": {"number": 64, "value": 127}, "group": "control_change"}, {"time": 922, "annotation": {"number": 64, "value": 0}, "group": "control_change"}, {"time": 925, "annotation": {"number": 64, "value": 127}, "group": "control_change"}, {"time": 946, "annotation": {"number": 64, "value": 0}, "group": "control_change"}, {"time": 949, "annotation": {"number": 64, "value": 127}, "group": "control_change"}, {"time": 970, "annotation": {"number": 64, "value": 0}, "group": "control_change"}, {"time": 973, "annotation": {"number": 64, "value": 127}, "group": "control_change"}, {"time": 994, "annotation": {"number": 64, "value": 0}, "group": "control_change"}, {"time": 997, "annotation": {"number": 64, "value": 127}, "group": "control_change"}, {"time": 1019, "annotation": {"number": 64, "value": 0}, "group": "control_change"}, {"time": 1020, "annotation": {"number": 64, "value": 127}, "group": "control_change"}, {"time": 1043, "annotation": {"number": 64, "value": 0}, "group": "control_change"}, {"time": 1044, "annotation": {"number": 64, "value": 127}, "group": "control_change"}, {"time": 1045, "annotation": {"number": 64, "value": 127}, "group": "control_change"}, {"time": 1068, "annotation": {"number": 64, "value": 0}, "group": "control_change"}, {"time": 1069, "annotation": {"number": 64, "value": 127}, "group": "control_change"}, {"time": 1091, "annotation": {"number": 64, "value": 0}, "group": "control_change"}, {"time": 1093, "annotation": {"number": 64, "value": 127}, "group": "control_change"}, {"time": 1114, "annotation": {"number": 64, "value": 0}, "group": "control_change"}, {"time": 1117, "annotation": {"number": 64, "value": 127}, "group": "control_change"}, {"time": 1138, "annotation": {"number": 64, "value": 0}, "group": "control_change"}, {"time": 1141, "annotation": {"number": 64, "value": 127}, "group": "control_change"}, {"time": 1162, "annotation": {"number": 64, "value": 0}, "group": "control_change"}, {"time": 1165, "annotation": {"number": 64, "value": 127}, "group": "control_change"}, {"time": 1187, "annotation": {"number": 64, "value": 0}, "group": "control_change"}, {"time": 1189, "annotation": {"number": 64, "value": 127}, "group": "control_change"}, {"time": 1211, "annotation": {"number": 64, "value": 0}, "group": "control_change"}, {"time": 1213, "annotation": {"number": 64, "value": 127}, "group": "control_change"}, {"time": 1235, "annotation": {"number": 64, "value": 0}, "group": "control_change"}, {"time": 1239, "annotation": {"number": 64, "value": 127}, "group": "control_change"}, {"time": 1256, "annotation": {"number": 64, "value": 0}, "group": "control_change"}, {"time": 1453, "annotation": {"number": 64, "value": 78}, "group": "control_change"}, {"time": 1465, "annotation": {"number": 64, "value": 79}, "group": "control_change"}, {"time": 1561, "annotation": {"number": 64, "value": 80}, "group": "control_change"}, {"time": 1645, "annotation": {"number": 64, "value": 127}, "group": "control_change"}, {"time": 1667, "annotation": {"number": 64, "value": 0}, "group": "control_change"}, {"time": 1668, "annotation": {"number": 64, "value": 127}, "group": "control_change"}, {"time": 1692, "annotation": {"number": 64, "value": 0}, "group": "control_change"}, {"time": 1693, "annotation": {"number": 64, "value": 127}, "group": "control_change"}, {"time": 1716, "annotation": {"number": 64, "value": 0}, "group": "control_change"}, {"time": 1717, "annotation": {"number": 64, "value": 127}, "group": "control_change"}, {"time": 1738, "annotation": {"number": 64, "value": 0}, "group": "control_change"}, {"time": 1739, "annotation": {"number": 64, "value": 0}, "group": "control_change"}, {"time": 1741, "annotation": {"number": 64, "value": 127}, "group": "control_change"}, {"time": 1763, "annotation": {"number": 64, "value": 0}, "group": "control_change"}, {"time": 1765, "annotation": {"number": 64, "value": 127}, "group": "control_change"}, {"time": 1766, "annotation": {"number": 64, "value": 127}, "group": "control_change"}, {"time": 1786, "annotation": {"number": 64, "value": 0}, "group": "control_change"}, {"time": 1789, "annotation": {"number": 64, "value": 127}, "group": "control_change"}, {"time": 1810, "annotation": {"number": 64, "value": 0}, "group": "control_change"}, {"time": 1813, "annotation": {"number": 64, "value": 127}, "group": "control_change"}, {"time": 1834, "annotation": {"number": 64, "value": 0}, "group": "control_change"}, {"time": 1836, "annotation": {"number": 64, "value": 127}, "group": "control_change"}, {"time": 1858, "annotation": {"number": 64, "value": 0}, "group": "control_change"}, {"time": 1861, "annotation": {"number": 64, "value": 127}, "group": "control_change"}, {"time": 1882, "annotation": {"number": 64, "value": 0}, "group": "control_change"}, {"time": 1884, "annotation": {"number": 64, "value": 127}, "group": "control_change"}, {"time": 1906, "annotation": {"number": 64, "value": 0}, "group": "control_change"}, {"time": 1908, "annotation": {"number": 64, "value": 127}, "group": "control_change"}, {"time": 1909, "annotation": {"number": 64, "value": 127}, "group": "control_change"}, {"time": 1931, "annotation": {"number": 64, "value": 0}, "group": "control_change"}, {"time": 1933, "annotation": {"number": 64, "value": 127}, "group": "control_change"}, {"time": 1954, "annotation": {"number": 64, "value": 0}, "group": "control_change"}, {"time": 1956, "annotation": {"number": 64, "value": 127}, "group": "control_change"}, {"time": 1957, "annotation": {"number": 64, "value": 127}, "group": "control_change"}, {"time": 1978, "annotation": {"number": 64, "value": 0}, "group": "control_change"}, {"time": 1981, "annotation": {"number": 64, "value": 127}, "group": "control_change"}, {"time": 2003, "annotation": {"number": 64, "value": 0}, "group": "control_change"}, {"time": 2005, "annotation": {"number": 64, "value": 127}, "group": "control_change"}, {"time": 2026, "annotation": {"number": 64, "value": 0}, "group": "control_change"}, {"time": 2028, "annotation": {"number": 64, "value": 127}, "group": "control_change"}, {"time": 2029, "annotation": {"number": 64, "value": 127}, "group": "control_change"}, {"time": 2051, "annotation": {"number": 64, "value": 0}, "group": "control_change"}, {"time": 2053, "annotation": {"number": 64, "value": 127}, "group": "control_change"}, {"time": 2060, "annotation": {"number": 64, "value": 0}, "group": "control_change"}, {"time": 2064, "annotation": {"number": 64, "value": 127}, "group": "control_change"}, {"time": 2074, "annotation": {"number": 64, "value": 0}, "group": "control_change"}, {"time": 2077, "annotation": {"number": 64, "value": 127}, "group": "control_change"}, {"time": 2083, "annotation": {"number": 64, "value": 0}, "group": "control_change"}, {"time": 2088, "annotation": {"number": 64, "value": 127}, "group": "control_change"}, {"time": 2099, "annotation": {"number": 64, "value": 0}, "group": "control_change"}, {"time": 2101, "annotation": {"number": 64, "value": 127}, "group": "control_change"}, {"time": 2123, "annotation": {"number": 64, "value": 0}, "group": "control_change"}, {"time": 2125, "annotation": {"number": 64, "value": 127}, "group": "control_change"}, {"time": 2146, "annotation": {"number": 64, "value": 0}, "group": "control_change"}, {"time": 2149, "annotation": {"number": 64, "value": 127}, "group": "control_change"}, {"time": 2170, "annotation": {"number": 64, "value": 0}, "group": "control_change"}, {"time": 2173, "annotation": {"number": 64, "value": 127}, "group": "control_change"}, {"time": 2194, "annotation": {"number": 64, "value": 0}, "group": "control_change"}, {"time": 2197, "annotation": {"number": 64, "value": 127}, "group": "control_change"}, {"time": 2218, "annotation": {"number": 64, "value": 0}, "group": "control_change"}, {"time": 2221, "annotation": {"number": 64, "value": 127}, "group": "control_change"}, {"time": 2243, "annotation": {"number": 64, "value": 0}, "group": "control_change"}, {"time": 2244, "annotation": {"number": 64, "value": 127}, "group": "control_change"}, {"time": 2267, "annotation": {"number": 64, "value": 0}, "group": "control_change"}, {"time": 2268, "annotation": {"number": 64, "value": 127}, "group": "control_change"}, {"time": 2269, "annotation": {"number": 64, "value": 127}, "group": "control_change"}, {"time": 2292, "annotation": {"number": 64, "value": 0}, "group": "control_change"}, {"time": 2293, "annotation": {"number": 64, "value": 127}, "group": "control_change"}, {"time": 2315, "annotation": {"number": 64, "value": 0}, "group": "control_change"}, {"time": 2317, "annotation": {"number": 64, "value": 127}, "group": "control_change"}, {"time": 2338, "annotation": {"number": 64, "value": 0}, "group": "control_change"}, {"time": 2341, "annotation": {"number": 64, "value": 127}, "group": "control_change"}, {"time": 2362, "annotation": {"number": 64, "value": 0}, "group": "control_change"}, {"time": 2365, "annotation": {"number": 64, "value": 127}, "group": "control_change"}, {"time": 2386, "annotation": {"number": 64, "value": 0}, "group": "control_change"}, {"time": 2389, "annotation": {"number": 64, "value": 127}, "group": "control_change"}, {"time": 2411, "annotation": {"number": 64, "value": 0}, "group": "control_change"}, {"time": 2413, "annotation": {"number": 64, "value": 127}, "group": "control_change"}, {"time": 2435, "annotation": {"number": 64, "value": 0}, "group": "control_change"}, {"time": 2474, "annotation": {"number": 64, "value": 127}, "group": "control_change"}, {"time": 2476, "annotation": {"number": 64, "value": 0}, "group": "control_change"}, {"time": 2581, "annotation": {"number": 64, "value": 127}, "group": "control_change"}, {"time": 2603, "annotation": {"number": 64, "value": 0}, "group": "control_change"}, {"time": 2605, "annotation": {"number": 64, "value": 127}, "group": "control_change"}, {"time": 2626, "annotation": {"number": 64, "value": 0}, "group": "control_change"}, {"time": 2629, "annotation": {"number": 64, "value": 127}, "group": "control_change"}, {"time": 2651, "annotation": {"number": 64, "value": 0}, "group": "control_change"}, {"time": 2653, "annotation": {"number": 64, "value": 127}, "group": "control_change"}, {"time": 2674, "annotation": {"number": 64, "value": 0}, "group": "control_change"}, {"time": 2676, "annotation": {"number": 64, "value": 127}, "group": "control_change"}, {"time": 2699, "annotation": {"number": 64, "value": 0}, "group": "control_change"}, {"time": 2701, "annotation": {"number": 64, "value": 127}, "group": "control_change"}, {"time": 2723, "annotation": {"number": 64, "value": 0}, "group": "control_change"}, {"time": 2725, "annotation": {"number": 64, "value": 127}, "group": "control_change"}, {"time": 2747, "annotation": {"number": 64, "value": 0}, "group": "control_change"}, {"time": 2748, "annotation": {"number": 64, "value": 127}, "group": "control_change"}, {"time": 2771, "annotation": {"number": 64, "value": 0}, "group": "control_change"}, {"time": 2773, "annotation": {"number": 64, "value": 127}, "group": "control_change"}, {"time": 2795, "annotation": {"number": 64, "value": 0}, "group": "control_change"}, {"time": 2797, "annotation": {"number": 64, "value": 127}, "group": "control_change"}, {"time": 2819, "annotation": {"number": 64, "value": 0}, "group": "control_change"}, {"time": 2821, "annotation": {"number": 64, "value": 127}, "group": "control_change"}, {"time": 2843, "annotation": {"number": 64, "value": 0}, "group": "control_change"}, {"time": 2845, "annotation": {"number": 64, "value": 127}, "group": "control_change"}, {"time": 2867, "annotation": {"number": 64, "value": 0}, "group": "control_change"}, {"time": 2869, "annotation": {"number": 64, "value": 127}, "group": "control_change"}, {"time": 2889, "annotation": {"number": 64, "value": 0}, "group": "control_change"}, {"time": 3109, "annotation": {"number": 64, "value": 79}, "group": "control_change"}]}]}