{"metadata": {"schema_version": "0.2", "title": "None", "source_filename": "048.mid", "source_format": "midi"}, "resolution": 12, "tempos": [{"time": 0, "qpm": 110.00011000011}, {"time": 1932, "qpm": 107.99991360006912}, {"time": 2088, "qpm": 110.00011000011}, {"time": 3828, "qpm": 107.99991360006912}, {"time": 3900, "qpm": 110.00011000011}], "time_signatures": [{"time": 0, "numerator": 1, "denominator": 4}], "tracks": [{"program": 4, "is_drum": false, "name": "MELODY", "notes": [{"time": 388, "pitch": 68, "duration": 12, "velocity": 91}, {"time": 400, "pitch": 68, "duration": 6, "velocity": 91}, {"time": 406, "pitch": 75, "duration": 3, "velocity": 91}, {"time": 412, "pitch": 75, "duration": 3, "velocity": 91}, {"time": 418, "pitch": 73, "duration": 4, "velocity": 91}, {"time": 424, "pitch": 71, "duration": 7, "velocity": 91}, {"time": 436, "pitch": 71, "duration": 20, "velocity": 91}, {"time": 484, "pitch": 75, "duration": 10, "velocity": 91}, {"time": 496, "pitch": 78, "duration": 16, "velocity": 91}, {"time": 520, "pitch": 70, "duration": 8, "velocity": 91}, {"time": 532, "pitch": 68, "duration": 15, "velocity": 91}, {"time": 580, "pitch": 80, "duration": 8, "velocity": 91}, {"time": 592, "pitch": 83, "duration": 7, "velocity": 91}, {"time": 604, "pitch": 80, "duration": 7, "velocity": 91}, {"time": 616, "pitch": 78, "duration": 4, "velocity": 91}, {"time": 622, "pitch": 80, "duration": 3, "velocity": 91}, {"time": 628, "pitch": 75, "duration": 19, "velocity": 91}, {"time": 652, "pitch": 73, "duration": 9, "velocity": 92}, {"time": 664, "pitch": 71, "duration": 3, "velocity": 93}, {"time": 670, "pitch": 73, "duration": 2, "velocity": 93}, {"time": 676, "pitch": 75, "duration": 50, "velocity": 93}, {"time": 772, "pitch": 80, "duration": 6, "velocity": 95}, {"time": 784, "pitch": 80, "duration": 17, "velocity": 95}, {"time": 808, "pitch": 78, "duration": 8, "velocity": 95}, {"time": 820, "pitch": 80, "duration": 13, "velocity": 95}, {"time": 832, "pitch": 83, "duration": 6, "velocity": 95}, {"time": 844, "pitch": 80, "duration": 14, "velocity": 95}, {"time": 868, "pitch": 68, "duration": 20, "velocity": 95}, {"time": 880, "pitch": 80, "duration": 17, "velocity": 95}, {"time": 904, "pitch": 73, "duration": 6, "velocity": 95}, {"time": 916, "pitch": 71, "duration": 37, "velocity": 95}, {"time": 964, "pitch": 75, "duration": 13, "velocity": 94}, {"time": 982, "pitch": 78, "duration": 3, "velocity": 94}, {"time": 988, "pitch": 75, "duration": 7, "velocity": 94}, {"time": 1000, "pitch": 73, "duration": 7, "velocity": 94}, {"time": 1012, "pitch": 71, "duration": 5, "velocity": 94}, {"time": 1024, "pitch": 71, "duration": 3, "velocity": 94}, {"time": 1030, "pitch": 73, "duration": 3, "velocity": 94}, {"time": 1036, "pitch": 75, "duration": 7, "velocity": 94}, {"time": 1048, "pitch": 71, "duration": 5, "velocity": 94}, {"time": 1060, "pitch": 68, "duration": 37, "velocity": 94}, {"time": 1156, "pitch": 80, "duration": 7, "velocity": 93}, {"time": 1168, "pitch": 80, "duration": 20, "velocity": 93}, {"time": 1192, "pitch": 85, "duration": 7, "velocity": 93}, {"time": 1204, "pitch": 83, "duration": 18, "velocity": 92}, {"time": 1228, "pitch": 82, "duration": 21, "velocity": 92}, {"time": 1252, "pitch": 78, "duration": 7, "velocity": 92}, {"time": 1264, "pitch": 78, "duration": 4, "velocity": 91}, {"time": 1270, "pitch": 80, "duration": 3, "velocity": 91}, {"time": 1276, "pitch": 82, "duration": 8, "velocity": 91}, {"time": 1288, "pitch": 75, "duration": 11, "velocity": 91}, {"time": 1300, "pitch": 80, "duration": 31, "velocity": 91}, {"time": 1348, "pitch": 80, "duration": 7, "velocity": 90}, {"time": 1360, "pitch": 80, "duration": 3, "velocity": 90}, {"time": 1372, "pitch": 83, "duration": 9, "velocity": 90}, {"time": 1384, "pitch": 83, "duration": 5, "velocity": 90}, {"time": 1390, "pitch": 85, "duration": 3, "velocity": 90}, {"time": 1396, "pitch": 80, "duration": 22, "velocity": 90}, {"time": 1444, "pitch": 75, "duration": 84, "velocity": 90}, {"time": 1540, "pitch": 73, "duration": 6, "velocity": 91}, {"time": 1552, "pitch": 73, "duration": 17, "velocity": 91}, {"time": 1576, "pitch": 75, "duration": 7, "velocity": 92}, {"time": 1588, "pitch": 80, "duration": 12, "velocity": 92}, {"time": 1606, "pitch": 83, "duration": 3, "velocity": 93}, {"time": 1612, "pitch": 80, "duration": 20, "velocity": 93}, {"time": 1636, "pitch": 75, "duration": 6, "velocity": 93}, {"time": 1648, "pitch": 75, "duration": 3, "velocity": 93}, {"time": 1654, "pitch": 80, "duration": 2, "velocity": 94}, {"time": 1660, "pitch": 80, "duration": 9, "velocity": 94}, {"time": 1672, "pitch": 75, "duration": 7, "velocity": 94}, {"time": 1684, "pitch": 71, "duration": 47, "velocity": 94}, {"time": 1732, "pitch": 75, "duration": 6, "velocity": 95}, {"time": 1744, "pitch": 75, "duration": 3, "velocity": 96}, {"time": 1750, "pitch": 78, "duration": 3, "velocity": 96}, {"time": 1756, "pitch": 75, "duration": 7, "velocity": 96}, {"time": 1768, "pitch": 73, "duration": 3, "velocity": 96}, {"time": 1774, "pitch": 75, "duration": 3, "velocity": 96}, {"time": 1780, "pitch": 68, "duration": 12, "velocity": 96}, {"time": 1798, "pitch": 73, "duration": 3, "velocity": 96}, {"time": 1804, "pitch": 75, "duration": 9, "velocity": 96}, {"time": 1816, "pitch": 71, "duration": 6, "velocity": 96}, {"time": 1828, "pitch": 68, "duration": 49, "velocity": 96}, {"time": 2308, "pitch": 68, "duration": 12, "velocity": 96}, {"time": 2320, "pitch": 68, "duration": 6, "velocity": 96}, {"time": 2326, "pitch": 75, "duration": 3, "velocity": 96}, {"time": 2332, "pitch": 75, "duration": 3, "velocity": 96}, {"time": 2338, "pitch": 73, "duration": 4, "velocity": 96}, {"time": 2344, "pitch": 71, "duration": 7, "velocity": 96}, {"time": 2356, "pitch": 71, "duration": 20, "velocity": 96}, {"time": 2404, "pitch": 75, "duration": 10, "velocity": 97}, {"time": 2416, "pitch": 78, "duration": 16, "velocity": 97}, {"time": 2440, "pitch": 70, "duration": 8, "velocity": 97}, {"time": 2452, "pitch": 68, "duration": 15, "velocity": 97}, {"time": 2500, "pitch": 80, "duration": 8, "velocity": 98}, {"time": 2512, "pitch": 83, "duration": 7, "velocity": 98}, {"time": 2524, "pitch": 80, "duration": 7, "velocity": 98}, {"time": 2536, "pitch": 78, "duration": 4, "velocity": 98}, {"time": 2542, "pitch": 80, "duration": 3, "velocity": 98}, {"time": 2548, "pitch": 75, "duration": 19, "velocity": 98}, {"time": 2572, "pitch": 73, "duration": 9, "velocity": 99}, {"time": 2584, "pitch": 71, "duration": 3, "velocity": 99}, {"time": 2590, "pitch": 73, "duration": 2, "velocity": 99}, {"time": 2596, "pitch": 75, "duration": 50, "velocity": 99}, {"time": 2692, "pitch": 80, "duration": 6, "velocity": 100}, {"time": 2704, "pitch": 80, "duration": 17, "velocity": 100}, {"time": 2728, "pitch": 78, "duration": 8, "velocity": 101}, {"time": 2740, "pitch": 80, "duration": 13, "velocity": 101}, {"time": 2752, "pitch": 83, "duration": 6, "velocity": 101}, {"time": 2764, "pitch": 80, "duration": 14, "velocity": 101}, {"time": 2788, "pitch": 68, "duration": 20, "velocity": 101}, {"time": 2800, "pitch": 80, "duration": 17, "velocity": 101}, {"time": 2824, "pitch": 73, "duration": 6, "velocity": 102}, {"time": 2836, "pitch": 71, "duration": 37, "velocity": 102}, {"time": 2884, "pitch": 75, "duration": 13, "velocity": 102}, {"time": 2902, "pitch": 78, "duration": 3, "velocity": 102}, {"time": 2908, "pitch": 75, "duration": 7, "velocity": 102}, {"time": 2920, "pitch": 73, "duration": 7, "velocity": 102}, {"time": 2932, "pitch": 71, "duration": 5, "velocity": 102}, {"time": 2944, "pitch": 71, "duration": 3, "velocity": 102}, {"time": 2950, "pitch": 73, "duration": 3, "velocity": 102}, {"time": 2956, "pitch": 75, "duration": 7, "velocity": 102}, {"time": 2968, "pitch": 71, "duration": 5, "velocity": 102}, {"time": 2980, "pitch": 68, "duration": 37, "velocity": 102}, {"time": 3076, "pitch": 80, "duration": 7, "velocity": 102}, {"time": 3088, "pitch": 80, "duration": 20, "velocity": 102}, {"time": 3112, "pitch": 85, "duration": 7, "velocity": 102}, {"time": 3124, "pitch": 83, "duration": 18, "velocity": 102}, {"time": 3148, "pitch": 82, "duration": 21, "velocity": 102}, {"time": 3172, "pitch": 78, "duration": 7, "velocity": 102}, {"time": 3184, "pitch": 78, "duration": 4, "velocity": 102}, {"time": 3190, "pitch": 80, "duration": 3, "velocity": 102}, {"time": 3196, "pitch": 82, "duration": 8, "velocity": 102}, {"time": 3208, "pitch": 75, "duration": 11, "velocity": 102}, {"time": 3220, "pitch": 80, "duration": 31, "velocity": 102}, {"time": 3268, "pitch": 80, "duration": 7, "velocity": 102}, {"time": 3280, "pitch": 80, "duration": 3, "velocity": 102}, {"time": 3292, "pitch": 83, "duration": 9, "velocity": 101}, {"time": 3304, "pitch": 83, "duration": 5, "velocity": 101}, {"time": 3310, "pitch": 85, "duration": 3, "velocity": 101}, {"time": 3316, "pitch": 80, "duration": 22, "velocity": 101}, {"time": 3364, "pitch": 75, "duration": 84, "velocity": 101}, {"time": 3460, "pitch": 73, "duration": 6, "velocity": 100}, {"time": 3472, "pitch": 73, "duration": 17, "velocity": 100}, {"time": 3496, "pitch": 75, "duration": 7, "velocity": 100}, {"time": 3508, "pitch": 80, "duration": 12, "velocity": 100}, {"time": 3526, "pitch": 83, "duration": 3, "velocity": 100}, {"time": 3532, "pitch": 80, "duration": 20, "velocity": 100}, {"time": 3556, "pitch": 75, "duration": 6, "velocity": 99}, {"time": 3568, "pitch": 75, "duration": 3, "velocity": 99}, {"time": 3574, "pitch": 80, "duration": 2, "velocity": 99}, {"time": 3580, "pitch": 80, "duration": 9, "velocity": 99}, {"time": 3592, "pitch": 75, "duration": 7, "velocity": 99}, {"time": 3604, "pitch": 71, "duration": 47, "velocity": 99}, {"time": 3652, "pitch": 75, "duration": 6, "velocity": 98}, {"time": 3664, "pitch": 75, "duration": 3, "velocity": 98}, {"time": 3670, "pitch": 78, "duration": 3, "velocity": 98}, {"time": 3676, "pitch": 75, "duration": 7, "velocity": 97}, {"time": 3688, "pitch": 73, "duration": 3, "velocity": 97}, {"time": 3694, "pitch": 75, "duration": 3, "velocity": 97}, {"time": 3700, "pitch": 68, "duration": 12, "velocity": 97}, {"time": 3718, "pitch": 73, "duration": 3, "velocity": 97}, {"time": 3724, "pitch": 75, "duration": 9, "velocity": 97}, {"time": 3736, "pitch": 71, "duration": 6, "velocity": 97}, {"time": 3748, "pitch": 68, "duration": 48, "velocity": 97}, {"time": 3844, "pitch": 73, "duration": 6, "velocity": 96}, {"time": 3856, "pitch": 73, "duration": 18, "velocity": 96}, {"time": 3880, "pitch": 75, "duration": 8, "velocity": 96}, {"time": 3892, "pitch": 80, "duration": 10, "velocity": 96}, {"time": 3910, "pitch": 83, "duration": 3, "velocity": 96}, {"time": 3916, "pitch": 80, "duration": 12, "velocity": 96}, {"time": 3940, "pitch": 75, "duration": 7, "velocity": 96}, {"time": 3952, "pitch": 75, "duration": 4, "velocity": 96}, {"time": 3958, "pitch": 80, "duration": 3, "velocity": 96}, {"time": 3964, "pitch": 80, "duration": 5, "velocity": 96}, {"time": 3970, "pitch": 75, "duration": 7, "velocity": 96}, {"time": 3976, "pitch": 73, "duration": 11, "velocity": 96}, {"time": 3988, "pitch": 71, "duration": 38, "velocity": 96}, {"time": 4036, "pitch": 75, "duration": 13, "velocity": 96}, {"time": 4048, "pitch": 78, "duration": 12, "velocity": 96}, {"time": 4060, "pitch": 75, "duration": 7, "velocity": 96}, {"time": 4072, "pitch": 73, "duration": 4, "velocity": 96}, {"time": 4078, "pitch": 75, "duration": 6, "velocity": 96}, {"time": 4084, "pitch": 71, "duration": 21, "velocity": 96}, {"time": 4102, "pitch": 73, "duration": 4, "velocity": 96}, {"time": 4108, "pitch": 75, "duration": 4, "velocity": 96}, {"time": 4114, "pitch": 73, "duration": 3, "velocity": 96}, {"time": 4120, "pitch": 71, "duration": 6, "velocity": 96}, {"time": 4132, "pitch": 68, "duration": 96, "velocity": 96}, {"time": 4228, "pitch": 68, "duration": 99, "velocity": 127}], "annotations": [{"time": 1072, "annotation": {"number": 64, "value": 66}, "group": "control_change"}, {"time": 1720, "annotation": {"number": 64, "value": 67}, "group": "control_change"}, {"time": 2140, "annotation": {"number": 64, "value": 68}, "group": "control_change"}, {"time": 2308, "annotation": {"number": 64, "value": 69}, "group": "control_change"}, {"time": 2416, "annotation": {"number": 64, "value": 70}, "group": "control_change"}, {"time": 2572, "annotation": {"number": 64, "value": 71}, "group": "control_change"}, {"time": 2728, "annotation": {"number": 64, "value": 72}, "group": "control_change"}, {"time": 3664, "annotation": {"number": 64, "value": 73}, "group": "control_change"}, {"time": 4036, "annotation": {"number": 64, "value": 72}, "group": "control_change"}]}, {"program": 0, "is_drum": false, "name": "PIANO", "notes": [{"time": 4, "pitch": 44, "duration": 20, "velocity": 93}, {"time": 16, "pitch": 56, "duration": 11, "velocity": 97}, {"time": 16, "pitch": 59, "duration": 11, "velocity": 100}, {"time": 16, "pitch": 63, "duration": 12, "velocity": 96}, {"time": 28, "pitch": 51, "duration": 13, "velocity": 102}, {"time": 40, "pitch": 59, "duration": 12, "velocity": 107}, {"time": 40, "pitch": 63, "duration": 12, "velocity": 99}, {"time": 52, "pitch": 40, "duration": 21, "velocity": 89}, {"time": 64, "pitch": 52, "duration": 13, "velocity": 89}, {"time": 64, "pitch": 56, "duration": 13, "velocity": 92}, {"time": 64, "pitch": 59, "duration": 13, "velocity": 90}, {"time": 76, "pitch": 47, "duration": 12, "velocity": 68}, {"time": 88, "pitch": 42, "duration": 11, "velocity": 95}, {"time": 100, "pitch": 44, "duration": 24, "velocity": 102}, {"time": 112, "pitch": 56, "duration": 13, "velocity": 82}, {"time": 112, "pitch": 59, "duration": 14, "velocity": 90}, {"time": 112, "pitch": 63, "duration": 14, "velocity": 86}, {"time": 124, "pitch": 51, "duration": 18, "velocity": 79}, {"time": 136, "pitch": 56, "duration": 6, "velocity": 99}, {"time": 136, "pitch": 59, "duration": 8, "velocity": 102}, {"time": 136, "pitch": 63, "duration": 8, "velocity": 99}, {"time": 142, "pitch": 46, "duration": 7, "velocity": 83}, {"time": 148, "pitch": 47, "duration": 16, "velocity": 95}, {"time": 160, "pitch": 54, "duration": 13, "velocity": 81}, {"time": 160, "pitch": 59, "duration": 13, "velocity": 89}, {"time": 160, "pitch": 63, "duration": 13, "velocity": 78}, {"time": 172, "pitch": 47, "duration": 12, "velocity": 93}, {"time": 184, "pitch": 54, "duration": 11, "velocity": 86}, {"time": 184, "pitch": 59, "duration": 10, "velocity": 96}, {"time": 184, "pitch": 63, "duration": 10, "velocity": 83}, {"time": 196, "pitch": 39, "duration": 24, "velocity": 76}, {"time": 208, "pitch": 51, "duration": 14, "velocity": 83}, {"time": 208, "pitch": 54, "duration": 14, "velocity": 89}, {"time": 208, "pitch": 58, "duration": 14, "velocity": 88}, {"time": 220, "pitch": 46, "duration": 14, "velocity": 89}, {"time": 232, "pitch": 51, "duration": 11, "velocity": 79}, {"time": 232, "pitch": 54, "duration": 11, "velocity": 88}, {"time": 232, "pitch": 58, "duration": 11, "velocity": 86}, {"time": 244, "pitch": 47, "duration": 16, "velocity": 88}, {"time": 256, "pitch": 54, "duration": 14, "velocity": 86}, {"time": 256, "pitch": 59, "duration": 14, "velocity": 93}, {"time": 256, "pitch": 63, "duration": 14, "velocity": 88}, {"time": 268, "pitch": 47, "duration": 17, "velocity": 97}, {"time": 280, "pitch": 54, "duration": 5, "velocity": 83}, {"time": 280, "pitch": 59, "duration": 6, "velocity": 99}, {"time": 280, "pitch": 63, "duration": 7, "velocity": 85}, {"time": 286, "pitch": 46, "duration": 5, "velocity": 97}, {"time": 292, "pitch": 44, "duration": 25, "velocity": 95}, {"time": 304, "pitch": 56, "duration": 11, "velocity": 82}, {"time": 304, "pitch": 59, "duration": 12, "velocity": 99}, {"time": 304, "pitch": 63, "duration": 12, "velocity": 93}, {"time": 316, "pitch": 51, "duration": 24, "velocity": 92}, {"time": 328, "pitch": 58, "duration": 36, "velocity": 102}, {"time": 340, "pitch": 44, "duration": 50, "velocity": 88}, {"time": 364, "pitch": 51, "duration": 25, "velocity": 69}, {"time": 364, "pitch": 56, "duration": 25, "velocity": 57}, {"time": 364, "pitch": 59, "duration": 24, "velocity": 73}, {"time": 364, "pitch": 63, "duration": 25, "velocity": 69}, {"time": 388, "pitch": 44, "duration": 2, "velocity": 89}, {"time": 400, "pitch": 56, "duration": 14, "velocity": 81}, {"time": 400, "pitch": 59, "duration": 14, "velocity": 88}, {"time": 400, "pitch": 63, "duration": 15, "velocity": 78}, {"time": 412, "pitch": 51, "duration": 24, "velocity": 83}, {"time": 424, "pitch": 56, "duration": 13, "velocity": 78}, {"time": 424, "pitch": 59, "duration": 13, "velocity": 90}, {"time": 424, "pitch": 63, "duration": 14, "velocity": 85}, {"time": 436, "pitch": 44, "duration": 24, "velocity": 72}, {"time": 448, "pitch": 56, "duration": 13, "velocity": 78}, {"time": 448, "pitch": 59, "duration": 14, "velocity": 86}, {"time": 448, "pitch": 63, "duration": 14, "velocity": 83}, {"time": 460, "pitch": 51, "duration": 21, "velocity": 72}, {"time": 472, "pitch": 56, "duration": 12, "velocity": 89}, {"time": 472, "pitch": 59, "duration": 12, "velocity": 89}, {"time": 472, "pitch": 63, "duration": 12, "velocity": 88}, {"time": 484, "pitch": 39, "duration": 23, "velocity": 95}, {"time": 496, "pitch": 51, "duration": 12, "velocity": 88}, {"time": 496, "pitch": 54, "duration": 12, "velocity": 93}, {"time": 496, "pitch": 58, "duration": 12, "velocity": 93}, {"time": 508, "pitch": 46, "duration": 15, "velocity": 65}, {"time": 520, "pitch": 51, "duration": 12, "velocity": 82}, {"time": 520, "pitch": 54, "duration": 12, "velocity": 90}, {"time": 520, "pitch": 58, "duration": 13, "velocity": 90}, {"time": 532, "pitch": 44, "duration": 22, "velocity": 88}, {"time": 544, "pitch": 56, "duration": 16, "velocity": 96}, {"time": 544, "pitch": 59, "duration": 14, "velocity": 95}, {"time": 544, "pitch": 63, "duration": 14, "velocity": 93}, {"time": 556, "pitch": 51, "duration": 23, "velocity": 78}, {"time": 568, "pitch": 56, "duration": 11, "velocity": 77}, {"time": 568, "pitch": 58, "duration": 11, "velocity": 95}, {"time": 568, "pitch": 61, "duration": 11, "velocity": 89}, {"time": 580, "pitch": 44, "duration": 25, "velocity": 88}, {"time": 592, "pitch": 56, "duration": 15, "velocity": 82}, {"time": 592, "pitch": 59, "duration": 16, "velocity": 95}, {"time": 592, "pitch": 63, "duration": 15, "velocity": 92}, {"time": 604, "pitch": 51, "duration": 26, "velocity": 72}, {"time": 616, "pitch": 56, "duration": 12, "velocity": 89}, {"time": 616, "pitch": 59, "duration": 13, "velocity": 96}, {"time": 616, "pitch": 63, "duration": 14, "velocity": 86}, {"time": 628, "pitch": 44, "duration": 25, "velocity": 67}, {"time": 640, "pitch": 56, "duration": 13, "velocity": 90}, {"time": 640, "pitch": 59, "duration": 15, "velocity": 100}, {"time": 640, "pitch": 63, "duration": 15, "velocity": 89}, {"time": 652, "pitch": 51, "duration": 15, "velocity": 71}, {"time": 664, "pitch": 56, "duration": 12, "velocity": 78}, {"time": 664, "pitch": 59, "duration": 11, "velocity": 96}, {"time": 664, "pitch": 63, "duration": 11, "velocity": 88}, {"time": 676, "pitch": 39, "duration": 20, "velocity": 70}, {"time": 688, "pitch": 51, "duration": 12, "velocity": 85}, {"time": 688, "pitch": 54, "duration": 12, "velocity": 90}, {"time": 688, "pitch": 58, "duration": 13, "velocity": 90}, {"time": 700, "pitch": 46, "duration": 15, "velocity": 99}, {"time": 712, "pitch": 51, "duration": 12, "velocity": 81}, {"time": 712, "pitch": 54, "duration": 12, "velocity": 89}, {"time": 712, "pitch": 58, "duration": 12, "velocity": 86}, {"time": 724, "pitch": 39, "duration": 17, "velocity": 69}, {"time": 736, "pitch": 51, "duration": 12, "velocity": 78}, {"time": 736, "pitch": 54, "duration": 12, "velocity": 86}, {"time": 736, "pitch": 58, "duration": 13, "velocity": 86}, {"time": 748, "pitch": 39, "duration": 12, "velocity": 79}, {"time": 760, "pitch": 51, "duration": 9, "velocity": 79}, {"time": 760, "pitch": 54, "duration": 10, "velocity": 86}, {"time": 760, "pitch": 58, "duration": 10, "velocity": 86}, {"time": 772, "pitch": 44, "duration": 26, "velocity": 92}, {"time": 784, "pitch": 56, "duration": 13, "velocity": 86}, {"time": 784, "pitch": 59, "duration": 13, "velocity": 90}, {"time": 784, "pitch": 63, "duration": 14, "velocity": 88}, {"time": 796, "pitch": 51, "duration": 22, "velocity": 56}, {"time": 808, "pitch": 56, "duration": 13, "velocity": 88}, {"time": 808, "pitch": 59, "duration": 14, "velocity": 99}, {"time": 808, "pitch": 63, "duration": 14, "velocity": 90}, {"time": 820, "pitch": 44, "duration": 20, "velocity": 73}, {"time": 832, "pitch": 56, "duration": 15, "velocity": 89}, {"time": 832, "pitch": 59, "duration": 16, "velocity": 95}, {"time": 832, "pitch": 63, "duration": 15, "velocity": 90}, {"time": 844, "pitch": 51, "duration": 16, "velocity": 37}, {"time": 856, "pitch": 56, "duration": 12, "velocity": 90}, {"time": 856, "pitch": 59, "duration": 13, "velocity": 93}, {"time": 856, "pitch": 63, "duration": 13, "velocity": 93}, {"time": 868, "pitch": 44, "duration": 24, "velocity": 75}, {"time": 880, "pitch": 56, "duration": 12, "velocity": 88}, {"time": 880, "pitch": 59, "duration": 13, "velocity": 93}, {"time": 880, "pitch": 63, "duration": 14, "velocity": 88}, {"time": 892, "pitch": 46, "duration": 22, "velocity": 79}, {"time": 904, "pitch": 58, "duration": 14, "velocity": 85}, {"time": 904, "pitch": 61, "duration": 11, "velocity": 89}, {"time": 916, "pitch": 47, "duration": 21, "velocity": 95}, {"time": 928, "pitch": 54, "duration": 13, "velocity": 85}, {"time": 928, "pitch": 59, "duration": 11, "velocity": 97}, {"time": 928, "pitch": 63, "duration": 13, "velocity": 96}, {"time": 940, "pitch": 47, "duration": 14, "velocity": 67}, {"time": 952, "pitch": 54, "duration": 12, "velocity": 90}, {"time": 952, "pitch": 59, "duration": 12, "velocity": 107}, {"time": 952, "pitch": 63, "duration": 12, "velocity": 95}, {"time": 964, "pitch": 39, "duration": 24, "velocity": 78}, {"time": 976, "pitch": 51, "duration": 12, "velocity": 89}, {"time": 976, "pitch": 54, "duration": 12, "velocity": 92}, {"time": 976, "pitch": 58, "duration": 13, "velocity": 86}, {"time": 988, "pitch": 46, "duration": 19, "velocity": 59}, {"time": 1000, "pitch": 51, "duration": 13, "velocity": 83}, {"time": 1000, "pitch": 54, "duration": 13, "velocity": 83}, {"time": 1000, "pitch": 58, "duration": 13, "velocity": 86}, {"time": 1012, "pitch": 39, "duration": 24, "velocity": 61}, {"time": 1024, "pitch": 51, "duration": 13, "velocity": 82}, {"time": 1024, "pitch": 54, "duration": 13, "velocity": 89}, {"time": 1024, "pitch": 58, "duration": 14, "velocity": 86}, {"time": 1036, "pitch": 46, "duration": 13, "velocity": 58}, {"time": 1048, "pitch": 51, "duration": 11, "velocity": 81}, {"time": 1048, "pitch": 54, "duration": 11, "velocity": 92}, {"time": 1048, "pitch": 58, "duration": 11, "velocity": 86}, {"time": 1048, "pitch": 61, "duration": 13, "velocity": 86}, {"time": 1060, "pitch": 44, "duration": 25, "velocity": 77}, {"time": 1072, "pitch": 56, "duration": 13, "velocity": 88}, {"time": 1072, "pitch": 59, "duration": 12, "velocity": 95}, {"time": 1072, "pitch": 63, "duration": 11, "velocity": 88}, {"time": 1084, "pitch": 51, "duration": 24, "velocity": 66}, {"time": 1096, "pitch": 58, "duration": 13, "velocity": 92}, {"time": 1096, "pitch": 61, "duration": 11, "velocity": 93}, {"time": 1108, "pitch": 44, "duration": 26, "velocity": 66}, {"time": 1120, "pitch": 59, "duration": 12, "velocity": 93}, {"time": 1120, "pitch": 63, "duration": 13, "velocity": 90}, {"time": 1132, "pitch": 51, "duration": 19, "velocity": 65}, {"time": 1132, "pitch": 58, "duration": 11, "velocity": 95}, {"time": 1144, "pitch": 59, "duration": 9, "velocity": 96}, {"time": 1156, "pitch": 44, "duration": 27, "velocity": 93}, {"time": 1168, "pitch": 56, "duration": 13, "velocity": 92}, {"time": 1168, "pitch": 59, "duration": 13, "velocity": 97}, {"time": 1168, "pitch": 63, "duration": 14, "velocity": 93}, {"time": 1180, "pitch": 51, "duration": 19, "velocity": 112}, {"time": 1192, "pitch": 56, "duration": 13, "velocity": 90}, {"time": 1192, "pitch": 59, "duration": 13, "velocity": 99}, {"time": 1192, "pitch": 63, "duration": 13, "velocity": 92}, {"time": 1204, "pitch": 44, "duration": 24, "velocity": 88}, {"time": 1216, "pitch": 56, "duration": 12, "velocity": 96}, {"time": 1216, "pitch": 59, "duration": 11, "velocity": 96}, {"time": 1216, "pitch": 63, "duration": 12, "velocity": 92}, {"time": 1228, "pitch": 51, "duration": 22, "velocity": 67}, {"time": 1240, "pitch": 56, "duration": 11, "velocity": 90}, {"time": 1240, "pitch": 59, "duration": 11, "velocity": 95}, {"time": 1240, "pitch": 63, "duration": 12, "velocity": 85}, {"time": 1252, "pitch": 42, "duration": 24, "velocity": 83}, {"time": 1264, "pitch": 54, "duration": 12, "velocity": 99}, {"time": 1264, "pitch": 58, "duration": 12, "velocity": 100}, {"time": 1264, "pitch": 61, "duration": 12, "velocity": 93}, {"time": 1276, "pitch": 49, "duration": 15, "velocity": 66}, {"time": 1288, "pitch": 54, "duration": 11, "velocity": 90}, {"time": 1288, "pitch": 58, "duration": 12, "velocity": 92}, {"time": 1288, "pitch": 61, "duration": 11, "velocity": 89}, {"time": 1300, "pitch": 44, "duration": 25, "velocity": 72}, {"time": 1312, "pitch": 56, "duration": 17, "velocity": 85}, {"time": 1312, "pitch": 59, "duration": 14, "velocity": 95}, {"time": 1312, "pitch": 63, "duration": 13, "velocity": 88}, {"time": 1324, "pitch": 51, "duration": 24, "velocity": 72}, {"time": 1336, "pitch": 58, "duration": 13, "velocity": 93}, {"time": 1336, "pitch": 61, "duration": 12, "velocity": 89}, {"time": 1348, "pitch": 44, "duration": 25, "velocity": 76}, {"time": 1360, "pitch": 56, "duration": 13, "velocity": 85}, {"time": 1360, "pitch": 59, "duration": 13, "velocity": 97}, {"time": 1360, "pitch": 63, "duration": 13, "velocity": 83}, {"time": 1372, "pitch": 51, "duration": 22, "velocity": 68}, {"time": 1384, "pitch": 56, "duration": 12, "velocity": 79}, {"time": 1384, "pitch": 59, "duration": 13, "velocity": 95}, {"time": 1384, "pitch": 63, "duration": 13, "velocity": 86}, {"time": 1396, "pitch": 44, "duration": 24, "velocity": 69}, {"time": 1408, "pitch": 56, "duration": 12, "velocity": 88}, {"time": 1408, "pitch": 59, "duration": 13, "velocity": 96}, {"time": 1408, "pitch": 63, "duration": 13, "velocity": 90}, {"time": 1420, "pitch": 51, "duration": 17, "velocity": 72}, {"time": 1432, "pitch": 56, "duration": 11, "velocity": 89}, {"time": 1432, "pitch": 59, "duration": 10, "velocity": 99}, {"time": 1432, "pitch": 63, "duration": 10, "velocity": 89}, {"time": 1444, "pitch": 39, "duration": 23, "velocity": 82}, {"time": 1456, "pitch": 51, "duration": 13, "velocity": 79}, {"time": 1456, "pitch": 54, "duration": 12, "velocity": 86}, {"time": 1456, "pitch": 58, "duration": 13, "velocity": 88}, {"time": 1468, "pitch": 46, "duration": 20, "velocity": 49}, {"time": 1480, "pitch": 51, "duration": 11, "velocity": 83}, {"time": 1480, "pitch": 54, "duration": 11, "velocity": 86}, {"time": 1480, "pitch": 58, "duration": 12, "velocity": 88}, {"time": 1492, "pitch": 39, "duration": 25, "velocity": 72}, {"time": 1504, "pitch": 51, "duration": 11, "velocity": 79}, {"time": 1504, "pitch": 54, "duration": 11, "velocity": 89}, {"time": 1504, "pitch": 58, "duration": 12, "velocity": 85}, {"time": 1516, "pitch": 46, "duration": 15, "velocity": 69}, {"time": 1528, "pitch": 51, "duration": 4, "velocity": 83}, {"time": 1528, "pitch": 54, "duration": 5, "velocity": 96}, {"time": 1528, "pitch": 58, "duration": 5, "velocity": 93}, {"time": 1540, "pitch": 49, "duration": 15, "velocity": 85}, {"time": 1552, "pitch": 56, "duration": 13, "velocity": 93}, {"time": 1552, "pitch": 61, "duration": 13, "velocity": 95}, {"time": 1552, "pitch": 65, "duration": 14, "velocity": 97}, {"time": 1564, "pitch": 49, "duration": 17, "velocity": 62}, {"time": 1576, "pitch": 56, "duration": 12, "velocity": 82}, {"time": 1576, "pitch": 61, "duration": 12, "velocity": 90}, {"time": 1576, "pitch": 65, "duration": 13, "velocity": 92}, {"time": 1588, "pitch": 49, "duration": 18, "velocity": 50}, {"time": 1600, "pitch": 56, "duration": 14, "velocity": 86}, {"time": 1600, "pitch": 61, "duration": 14, "velocity": 89}, {"time": 1600, "pitch": 65, "duration": 15, "velocity": 88}, {"time": 1612, "pitch": 49, "duration": 18, "velocity": 75}, {"time": 1624, "pitch": 56, "duration": 12, "velocity": 89}, {"time": 1624, "pitch": 61, "duration": 13, "velocity": 96}, {"time": 1624, "pitch": 65, "duration": 12, "velocity": 96}, {"time": 1636, "pitch": 44, "duration": 24, "velocity": 73}, {"time": 1648, "pitch": 56, "duration": 14, "velocity": 81}, {"time": 1648, "pitch": 59, "duration": 14, "velocity": 90}, {"time": 1648, "pitch": 63, "duration": 15, "velocity": 81}, {"time": 1660, "pitch": 51, "duration": 23, "velocity": 52}, {"time": 1672, "pitch": 56, "duration": 13, "velocity": 85}, {"time": 1672, "pitch": 59, "duration": 13, "velocity": 93}, {"time": 1672, "pitch": 63, "duration": 14, "velocity": 85}, {"time": 1684, "pitch": 44, "duration": 23, "velocity": 60}, {"time": 1696, "pitch": 56, "duration": 12, "velocity": 85}, {"time": 1696, "pitch": 59, "duration": 12, "velocity": 90}, {"time": 1696, "pitch": 63, "duration": 12, "velocity": 82}, {"time": 1708, "pitch": 51, "duration": 12, "velocity": 48}, {"time": 1720, "pitch": 56, "duration": 12, "velocity": 81}, {"time": 1720, "pitch": 59, "duration": 11, "velocity": 89}, {"time": 1720, "pitch": 63, "duration": 11, "velocity": 88}, {"time": 1732, "pitch": 39, "duration": 23, "velocity": 82}, {"time": 1744, "pitch": 51, "duration": 13, "velocity": 82}, {"time": 1744, "pitch": 54, "duration": 13, "velocity": 83}, {"time": 1744, "pitch": 58, "duration": 13, "velocity": 81}, {"time": 1756, "pitch": 46, "duration": 9, "velocity": 55}, {"time": 1768, "pitch": 51, "duration": 7, "velocity": 85}, {"time": 1768, "pitch": 54, "duration": 9, "velocity": 88}, {"time": 1768, "pitch": 58, "duration": 9, "velocity": 86}, {"time": 1780, "pitch": 47, "duration": 15, "velocity": 79}, {"time": 1792, "pitch": 54, "duration": 14, "velocity": 86}, {"time": 1792, "pitch": 59, "duration": 14, "velocity": 90}, {"time": 1792, "pitch": 63, "duration": 15, "velocity": 85}, {"time": 1804, "pitch": 47, "duration": 14, "velocity": 74}, {"time": 1816, "pitch": 54, "duration": 12, "velocity": 79}, {"time": 1816, "pitch": 59, "duration": 14, "velocity": 90}, {"time": 1816, "pitch": 63, "duration": 14, "velocity": 77}, {"time": 1828, "pitch": 44, "duration": 24, "velocity": 70}, {"time": 1840, "pitch": 56, "duration": 12, "velocity": 79}, {"time": 1840, "pitch": 59, "duration": 12, "velocity": 95}, {"time": 1840, "pitch": 63, "duration": 11, "velocity": 85}, {"time": 1852, "pitch": 51, "duration": 24, "velocity": 61}, {"time": 1864, "pitch": 58, "duration": 13, "velocity": 89}, {"time": 1864, "pitch": 61, "duration": 11, "velocity": 89}, {"time": 1876, "pitch": 44, "duration": 25, "velocity": 71}, {"time": 1888, "pitch": 56, "duration": 14, "velocity": 70}, {"time": 1888, "pitch": 59, "duration": 13, "velocity": 79}, {"time": 1888, "pitch": 63, "duration": 11, "velocity": 67}, {"time": 1900, "pitch": 51, "duration": 15, "velocity": 73}, {"time": 1912, "pitch": 58, "duration": 12, "velocity": 92}, {"time": 1912, "pitch": 61, "duration": 12, "velocity": 93}, {"time": 1924, "pitch": 44, "duration": 20, "velocity": 93}, {"time": 1936, "pitch": 56, "duration": 11, "velocity": 97}, {"time": 1936, "pitch": 59, "duration": 11, "velocity": 100}, {"time": 1936, "pitch": 63, "duration": 12, "velocity": 96}, {"time": 1948, "pitch": 51, "duration": 13, "velocity": 102}, {"time": 1960, "pitch": 59, "duration": 12, "velocity": 107}, {"time": 1960, "pitch": 63, "duration": 12, "velocity": 99}, {"time": 1972, "pitch": 40, "duration": 21, "velocity": 89}, {"time": 1984, "pitch": 52, "duration": 13, "velocity": 89}, {"time": 1984, "pitch": 56, "duration": 13, "velocity": 92}, {"time": 1984, "pitch": 59, "duration": 13, "velocity": 90}, {"time": 1996, "pitch": 47, "duration": 12, "velocity": 68}, {"time": 2008, "pitch": 42, "duration": 11, "velocity": 95}, {"time": 2020, "pitch": 44, "duration": 24, "velocity": 102}, {"time": 2032, "pitch": 56, "duration": 13, "velocity": 82}, {"time": 2032, "pitch": 59, "duration": 14, "velocity": 90}, {"time": 2032, "pitch": 63, "duration": 14, "velocity": 86}, {"time": 2044, "pitch": 51, "duration": 18, "velocity": 79}, {"time": 2056, "pitch": 56, "duration": 6, "velocity": 99}, {"time": 2056, "pitch": 59, "duration": 8, "velocity": 102}, {"time": 2056, "pitch": 63, "duration": 8, "velocity": 99}, {"time": 2062, "pitch": 46, "duration": 7, "velocity": 83}, {"time": 2068, "pitch": 47, "duration": 16, "velocity": 95}, {"time": 2080, "pitch": 54, "duration": 13, "velocity": 81}, {"time": 2080, "pitch": 59, "duration": 13, "velocity": 89}, {"time": 2080, "pitch": 63, "duration": 13, "velocity": 78}, {"time": 2092, "pitch": 47, "duration": 12, "velocity": 93}, {"time": 2104, "pitch": 54, "duration": 11, "velocity": 86}, {"time": 2104, "pitch": 59, "duration": 10, "velocity": 96}, {"time": 2104, "pitch": 63, "duration": 10, "velocity": 83}, {"time": 2116, "pitch": 39, "duration": 24, "velocity": 76}, {"time": 2128, "pitch": 51, "duration": 14, "velocity": 83}, {"time": 2128, "pitch": 54, "duration": 14, "velocity": 89}, {"time": 2128, "pitch": 58, "duration": 14, "velocity": 88}, {"time": 2140, "pitch": 46, "duration": 14, "velocity": 89}, {"time": 2152, "pitch": 51, "duration": 11, "velocity": 79}, {"time": 2152, "pitch": 54, "duration": 11, "velocity": 88}, {"time": 2152, "pitch": 58, "duration": 11, "velocity": 86}, {"time": 2164, "pitch": 47, "duration": 16, "velocity": 88}, {"time": 2176, "pitch": 54, "duration": 14, "velocity": 86}, {"time": 2176, "pitch": 59, "duration": 14, "velocity": 93}, {"time": 2176, "pitch": 63, "duration": 14, "velocity": 88}, {"time": 2188, "pitch": 47, "duration": 17, "velocity": 97}, {"time": 2200, "pitch": 54, "duration": 5, "velocity": 83}, {"time": 2200, "pitch": 59, "duration": 6, "velocity": 99}, {"time": 2200, "pitch": 63, "duration": 7, "velocity": 85}, {"time": 2206, "pitch": 46, "duration": 5, "velocity": 97}, {"time": 2212, "pitch": 44, "duration": 25, "velocity": 95}, {"time": 2224, "pitch": 56, "duration": 11, "velocity": 82}, {"time": 2224, "pitch": 59, "duration": 12, "velocity": 99}, {"time": 2224, "pitch": 63, "duration": 12, "velocity": 93}, {"time": 2236, "pitch": 51, "duration": 24, "velocity": 92}, {"time": 2248, "pitch": 58, "duration": 36, "velocity": 102}, {"time": 2260, "pitch": 44, "duration": 50, "velocity": 88}, {"time": 2284, "pitch": 51, "duration": 25, "velocity": 69}, {"time": 2284, "pitch": 56, "duration": 25, "velocity": 57}, {"time": 2284, "pitch": 59, "duration": 24, "velocity": 73}, {"time": 2284, "pitch": 63, "duration": 25, "velocity": 69}, {"time": 2308, "pitch": 44, "duration": 2, "velocity": 89}, {"time": 2320, "pitch": 56, "duration": 14, "velocity": 81}, {"time": 2320, "pitch": 59, "duration": 14, "velocity": 88}, {"time": 2320, "pitch": 63, "duration": 15, "velocity": 78}, {"time": 2332, "pitch": 51, "duration": 24, "velocity": 83}, {"time": 2344, "pitch": 56, "duration": 13, "velocity": 78}, {"time": 2344, "pitch": 59, "duration": 13, "velocity": 90}, {"time": 2344, "pitch": 63, "duration": 14, "velocity": 85}, {"time": 2356, "pitch": 44, "duration": 24, "velocity": 72}, {"time": 2368, "pitch": 56, "duration": 13, "velocity": 78}, {"time": 2368, "pitch": 59, "duration": 14, "velocity": 86}, {"time": 2368, "pitch": 63, "duration": 14, "velocity": 83}, {"time": 2380, "pitch": 51, "duration": 21, "velocity": 72}, {"time": 2392, "pitch": 56, "duration": 12, "velocity": 89}, {"time": 2392, "pitch": 59, "duration": 12, "velocity": 89}, {"time": 2392, "pitch": 63, "duration": 12, "velocity": 88}, {"time": 2404, "pitch": 39, "duration": 23, "velocity": 95}, {"time": 2416, "pitch": 51, "duration": 12, "velocity": 88}, {"time": 2416, "pitch": 54, "duration": 12, "velocity": 93}, {"time": 2416, "pitch": 58, "duration": 12, "velocity": 93}, {"time": 2428, "pitch": 46, "duration": 15, "velocity": 65}, {"time": 2440, "pitch": 51, "duration": 12, "velocity": 82}, {"time": 2440, "pitch": 54, "duration": 12, "velocity": 90}, {"time": 2440, "pitch": 58, "duration": 13, "velocity": 90}, {"time": 2452, "pitch": 44, "duration": 22, "velocity": 88}, {"time": 2464, "pitch": 56, "duration": 16, "velocity": 96}, {"time": 2464, "pitch": 59, "duration": 14, "velocity": 95}, {"time": 2464, "pitch": 63, "duration": 14, "velocity": 93}, {"time": 2476, "pitch": 51, "duration": 23, "velocity": 78}, {"time": 2488, "pitch": 56, "duration": 11, "velocity": 77}, {"time": 2488, "pitch": 58, "duration": 11, "velocity": 95}, {"time": 2488, "pitch": 61, "duration": 11, "velocity": 89}, {"time": 2500, "pitch": 44, "duration": 25, "velocity": 88}, {"time": 2512, "pitch": 56, "duration": 15, "velocity": 82}, {"time": 2512, "pitch": 59, "duration": 16, "velocity": 95}, {"time": 2512, "pitch": 63, "duration": 15, "velocity": 92}, {"time": 2524, "pitch": 51, "duration": 26, "velocity": 72}, {"time": 2536, "pitch": 56, "duration": 12, "velocity": 89}, {"time": 2536, "pitch": 59, "duration": 13, "velocity": 96}, {"time": 2536, "pitch": 63, "duration": 14, "velocity": 86}, {"time": 2548, "pitch": 44, "duration": 25, "velocity": 67}, {"time": 2560, "pitch": 56, "duration": 13, "velocity": 90}, {"time": 2560, "pitch": 59, "duration": 15, "velocity": 100}, {"time": 2560, "pitch": 63, "duration": 15, "velocity": 89}, {"time": 2572, "pitch": 51, "duration": 15, "velocity": 71}, {"time": 2584, "pitch": 56, "duration": 12, "velocity": 78}, {"time": 2584, "pitch": 59, "duration": 11, "velocity": 96}, {"time": 2584, "pitch": 63, "duration": 11, "velocity": 88}, {"time": 2596, "pitch": 39, "duration": 20, "velocity": 70}, {"time": 2608, "pitch": 51, "duration": 12, "velocity": 85}, {"time": 2608, "pitch": 54, "duration": 12, "velocity": 90}, {"time": 2608, "pitch": 58, "duration": 13, "velocity": 90}, {"time": 2620, "pitch": 46, "duration": 15, "velocity": 99}, {"time": 2632, "pitch": 51, "duration": 12, "velocity": 81}, {"time": 2632, "pitch": 54, "duration": 12, "velocity": 89}, {"time": 2632, "pitch": 58, "duration": 12, "velocity": 86}, {"time": 2644, "pitch": 39, "duration": 17, "velocity": 69}, {"time": 2656, "pitch": 51, "duration": 12, "velocity": 78}, {"time": 2656, "pitch": 54, "duration": 12, "velocity": 86}, {"time": 2656, "pitch": 58, "duration": 13, "velocity": 86}, {"time": 2668, "pitch": 39, "duration": 12, "velocity": 79}, {"time": 2680, "pitch": 51, "duration": 9, "velocity": 79}, {"time": 2680, "pitch": 54, "duration": 10, "velocity": 86}, {"time": 2680, "pitch": 58, "duration": 10, "velocity": 86}, {"time": 2692, "pitch": 44, "duration": 26, "velocity": 92}, {"time": 2704, "pitch": 56, "duration": 13, "velocity": 86}, {"time": 2704, "pitch": 59, "duration": 13, "velocity": 90}, {"time": 2704, "pitch": 63, "duration": 14, "velocity": 88}, {"time": 2716, "pitch": 51, "duration": 22, "velocity": 56}, {"time": 2728, "pitch": 56, "duration": 13, "velocity": 88}, {"time": 2728, "pitch": 59, "duration": 14, "velocity": 99}, {"time": 2728, "pitch": 63, "duration": 14, "velocity": 90}, {"time": 2740, "pitch": 44, "duration": 20, "velocity": 73}, {"time": 2752, "pitch": 56, "duration": 15, "velocity": 89}, {"time": 2752, "pitch": 59, "duration": 16, "velocity": 95}, {"time": 2752, "pitch": 63, "duration": 15, "velocity": 90}, {"time": 2764, "pitch": 51, "duration": 16, "velocity": 37}, {"time": 2776, "pitch": 56, "duration": 12, "velocity": 90}, {"time": 2776, "pitch": 59, "duration": 13, "velocity": 93}, {"time": 2776, "pitch": 63, "duration": 13, "velocity": 93}, {"time": 2788, "pitch": 44, "duration": 24, "velocity": 75}, {"time": 2800, "pitch": 56, "duration": 12, "velocity": 88}, {"time": 2800, "pitch": 59, "duration": 13, "velocity": 93}, {"time": 2800, "pitch": 63, "duration": 14, "velocity": 88}, {"time": 2812, "pitch": 46, "duration": 22, "velocity": 79}, {"time": 2824, "pitch": 58, "duration": 14, "velocity": 85}, {"time": 2824, "pitch": 61, "duration": 11, "velocity": 89}, {"time": 2836, "pitch": 47, "duration": 21, "velocity": 95}, {"time": 2848, "pitch": 54, "duration": 13, "velocity": 85}, {"time": 2848, "pitch": 59, "duration": 11, "velocity": 97}, {"time": 2848, "pitch": 63, "duration": 13, "velocity": 96}, {"time": 2860, "pitch": 47, "duration": 14, "velocity": 67}, {"time": 2872, "pitch": 54, "duration": 12, "velocity": 90}, {"time": 2872, "pitch": 59, "duration": 12, "velocity": 107}, {"time": 2872, "pitch": 63, "duration": 12, "velocity": 95}, {"time": 2884, "pitch": 39, "duration": 24, "velocity": 78}, {"time": 2896, "pitch": 51, "duration": 12, "velocity": 89}, {"time": 2896, "pitch": 54, "duration": 12, "velocity": 92}, {"time": 2896, "pitch": 58, "duration": 13, "velocity": 86}, {"time": 2908, "pitch": 46, "duration": 19, "velocity": 59}, {"time": 2920, "pitch": 51, "duration": 13, "velocity": 83}, {"time": 2920, "pitch": 54, "duration": 13, "velocity": 83}, {"time": 2920, "pitch": 58, "duration": 13, "velocity": 86}, {"time": 2932, "pitch": 39, "duration": 24, "velocity": 61}, {"time": 2944, "pitch": 51, "duration": 13, "velocity": 82}, {"time": 2944, "pitch": 54, "duration": 13, "velocity": 89}, {"time": 2944, "pitch": 58, "duration": 14, "velocity": 86}, {"time": 2956, "pitch": 46, "duration": 13, "velocity": 58}, {"time": 2968, "pitch": 51, "duration": 11, "velocity": 81}, {"time": 2968, "pitch": 54, "duration": 11, "velocity": 92}, {"time": 2968, "pitch": 58, "duration": 11, "velocity": 86}, {"time": 2968, "pitch": 61, "duration": 13, "velocity": 86}, {"time": 2980, "pitch": 44, "duration": 25, "velocity": 77}, {"time": 2992, "pitch": 56, "duration": 13, "velocity": 88}, {"time": 2992, "pitch": 59, "duration": 12, "velocity": 95}, {"time": 2992, "pitch": 63, "duration": 11, "velocity": 88}, {"time": 3004, "pitch": 51, "duration": 24, "velocity": 66}, {"time": 3016, "pitch": 58, "duration": 13, "velocity": 92}, {"time": 3016, "pitch": 61, "duration": 11, "velocity": 93}, {"time": 3028, "pitch": 44, "duration": 26, "velocity": 66}, {"time": 3040, "pitch": 59, "duration": 12, "velocity": 93}, {"time": 3040, "pitch": 63, "duration": 13, "velocity": 90}, {"time": 3052, "pitch": 51, "duration": 19, "velocity": 65}, {"time": 3052, "pitch": 58, "duration": 11, "velocity": 95}, {"time": 3064, "pitch": 59, "duration": 9, "velocity": 96}, {"time": 3076, "pitch": 44, "duration": 27, "velocity": 93}, {"time": 3088, "pitch": 56, "duration": 13, "velocity": 92}, {"time": 3088, "pitch": 59, "duration": 13, "velocity": 97}, {"time": 3088, "pitch": 63, "duration": 14, "velocity": 93}, {"time": 3100, "pitch": 51, "duration": 19, "velocity": 112}, {"time": 3112, "pitch": 56, "duration": 13, "velocity": 90}, {"time": 3112, "pitch": 59, "duration": 13, "velocity": 99}, {"time": 3112, "pitch": 63, "duration": 13, "velocity": 92}, {"time": 3124, "pitch": 44, "duration": 24, "velocity": 88}, {"time": 3136, "pitch": 56, "duration": 12, "velocity": 96}, {"time": 3136, "pitch": 59, "duration": 11, "velocity": 96}, {"time": 3136, "pitch": 63, "duration": 12, "velocity": 92}, {"time": 3148, "pitch": 51, "duration": 22, "velocity": 67}, {"time": 3160, "pitch": 56, "duration": 11, "velocity": 90}, {"time": 3160, "pitch": 59, "duration": 11, "velocity": 95}, {"time": 3160, "pitch": 63, "duration": 12, "velocity": 85}, {"time": 3172, "pitch": 42, "duration": 24, "velocity": 83}, {"time": 3184, "pitch": 54, "duration": 12, "velocity": 99}, {"time": 3184, "pitch": 58, "duration": 12, "velocity": 100}, {"time": 3184, "pitch": 61, "duration": 12, "velocity": 93}, {"time": 3196, "pitch": 49, "duration": 15, "velocity": 66}, {"time": 3208, "pitch": 54, "duration": 11, "velocity": 90}, {"time": 3208, "pitch": 58, "duration": 12, "velocity": 92}, {"time": 3208, "pitch": 61, "duration": 11, "velocity": 89}, {"time": 3220, "pitch": 44, "duration": 25, "velocity": 72}, {"time": 3232, "pitch": 56, "duration": 17, "velocity": 85}, {"time": 3232, "pitch": 59, "duration": 14, "velocity": 95}, {"time": 3232, "pitch": 63, "duration": 13, "velocity": 88}, {"time": 3244, "pitch": 51, "duration": 24, "velocity": 72}, {"time": 3256, "pitch": 58, "duration": 13, "velocity": 93}, {"time": 3256, "pitch": 61, "duration": 12, "velocity": 89}, {"time": 3268, "pitch": 44, "duration": 25, "velocity": 76}, {"time": 3280, "pitch": 56, "duration": 13, "velocity": 85}, {"time": 3280, "pitch": 59, "duration": 13, "velocity": 97}, {"time": 3280, "pitch": 63, "duration": 13, "velocity": 83}, {"time": 3292, "pitch": 51, "duration": 22, "velocity": 68}, {"time": 3304, "pitch": 56, "duration": 12, "velocity": 79}, {"time": 3304, "pitch": 59, "duration": 13, "velocity": 95}, {"time": 3304, "pitch": 63, "duration": 13, "velocity": 86}, {"time": 3316, "pitch": 44, "duration": 24, "velocity": 69}, {"time": 3328, "pitch": 56, "duration": 12, "velocity": 88}, {"time": 3328, "pitch": 59, "duration": 13, "velocity": 96}, {"time": 3328, "pitch": 63, "duration": 13, "velocity": 90}, {"time": 3340, "pitch": 51, "duration": 17, "velocity": 72}, {"time": 3352, "pitch": 56, "duration": 11, "velocity": 89}, {"time": 3352, "pitch": 59, "duration": 10, "velocity": 99}, {"time": 3352, "pitch": 63, "duration": 10, "velocity": 89}, {"time": 3364, "pitch": 39, "duration": 23, "velocity": 82}, {"time": 3376, "pitch": 51, "duration": 13, "velocity": 79}, {"time": 3376, "pitch": 54, "duration": 12, "velocity": 86}, {"time": 3376, "pitch": 58, "duration": 13, "velocity": 88}, {"time": 3388, "pitch": 46, "duration": 20, "velocity": 49}, {"time": 3400, "pitch": 51, "duration": 11, "velocity": 83}, {"time": 3400, "pitch": 54, "duration": 11, "velocity": 86}, {"time": 3400, "pitch": 58, "duration": 12, "velocity": 88}, {"time": 3412, "pitch": 39, "duration": 25, "velocity": 72}, {"time": 3424, "pitch": 51, "duration": 11, "velocity": 79}, {"time": 3424, "pitch": 54, "duration": 11, "velocity": 89}, {"time": 3424, "pitch": 58, "duration": 12, "velocity": 85}, {"time": 3436, "pitch": 46, "duration": 15, "velocity": 69}, {"time": 3448, "pitch": 51, "duration": 4, "velocity": 83}, {"time": 3448, "pitch": 54, "duration": 5, "velocity": 96}, {"time": 3448, "pitch": 58, "duration": 5, "velocity": 93}, {"time": 3460, "pitch": 49, "duration": 15, "velocity": 85}, {"time": 3472, "pitch": 56, "duration": 13, "velocity": 93}, {"time": 3472, "pitch": 61, "duration": 13, "velocity": 95}, {"time": 3472, "pitch": 65, "duration": 14, "velocity": 97}, {"time": 3484, "pitch": 49, "duration": 17, "velocity": 62}, {"time": 3496, "pitch": 56, "duration": 12, "velocity": 82}, {"time": 3496, "pitch": 61, "duration": 12, "velocity": 90}, {"time": 3496, "pitch": 65, "duration": 13, "velocity": 92}, {"time": 3508, "pitch": 49, "duration": 18, "velocity": 50}, {"time": 3520, "pitch": 56, "duration": 14, "velocity": 86}, {"time": 3520, "pitch": 61, "duration": 14, "velocity": 89}, {"time": 3520, "pitch": 65, "duration": 15, "velocity": 88}, {"time": 3532, "pitch": 49, "duration": 18, "velocity": 75}, {"time": 3544, "pitch": 56, "duration": 12, "velocity": 89}, {"time": 3544, "pitch": 61, "duration": 13, "velocity": 96}, {"time": 3544, "pitch": 65, "duration": 12, "velocity": 96}, {"time": 3556, "pitch": 44, "duration": 24, "velocity": 73}, {"time": 3568, "pitch": 56, "duration": 14, "velocity": 81}, {"time": 3568, "pitch": 59, "duration": 14, "velocity": 90}, {"time": 3568, "pitch": 63, "duration": 15, "velocity": 81}, {"time": 3580, "pitch": 51, "duration": 23, "velocity": 52}, {"time": 3592, "pitch": 56, "duration": 13, "velocity": 85}, {"time": 3592, "pitch": 59, "duration": 13, "velocity": 93}, {"time": 3592, "pitch": 63, "duration": 14, "velocity": 85}, {"time": 3604, "pitch": 44, "duration": 23, "velocity": 60}, {"time": 3616, "pitch": 56, "duration": 12, "velocity": 85}, {"time": 3616, "pitch": 59, "duration": 12, "velocity": 90}, {"time": 3616, "pitch": 63, "duration": 12, "velocity": 82}, {"time": 3628, "pitch": 51, "duration": 12, "velocity": 48}, {"time": 3640, "pitch": 56, "duration": 12, "velocity": 81}, {"time": 3640, "pitch": 59, "duration": 11, "velocity": 89}, {"time": 3640, "pitch": 63, "duration": 11, "velocity": 88}, {"time": 3652, "pitch": 39, "duration": 23, "velocity": 82}, {"time": 3664, "pitch": 51, "duration": 13, "velocity": 82}, {"time": 3664, "pitch": 54, "duration": 13, "velocity": 83}, {"time": 3664, "pitch": 58, "duration": 13, "velocity": 81}, {"time": 3676, "pitch": 46, "duration": 9, "velocity": 55}, {"time": 3688, "pitch": 51, "duration": 7, "velocity": 85}, {"time": 3688, "pitch": 54, "duration": 9, "velocity": 88}, {"time": 3688, "pitch": 58, "duration": 9, "velocity": 86}, {"time": 3700, "pitch": 47, "duration": 15, "velocity": 79}, {"time": 3712, "pitch": 54, "duration": 14, "velocity": 86}, {"time": 3712, "pitch": 59, "duration": 14, "velocity": 90}, {"time": 3712, "pitch": 63, "duration": 15, "velocity": 85}, {"time": 3724, "pitch": 47, "duration": 14, "velocity": 74}, {"time": 3736, "pitch": 54, "duration": 12, "velocity": 79}, {"time": 3736, "pitch": 59, "duration": 14, "velocity": 90}, {"time": 3736, "pitch": 63, "duration": 14, "velocity": 77}, {"time": 3748, "pitch": 44, "duration": 24, "velocity": 70}, {"time": 3760, "pitch": 56, "duration": 12, "velocity": 79}, {"time": 3760, "pitch": 59, "duration": 12, "velocity": 95}, {"time": 3760, "pitch": 63, "duration": 11, "velocity": 85}, {"time": 3772, "pitch": 51, "duration": 24, "velocity": 61}, {"time": 3784, "pitch": 58, "duration": 13, "velocity": 89}, {"time": 3784, "pitch": 61, "duration": 11, "velocity": 89}, {"time": 3796, "pitch": 44, "duration": 25, "velocity": 71}, {"time": 3808, "pitch": 56, "duration": 14, "velocity": 70}, {"time": 3808, "pitch": 59, "duration": 13, "velocity": 79}, {"time": 3808, "pitch": 63, "duration": 11, "velocity": 67}, {"time": 3820, "pitch": 51, "duration": 15, "velocity": 73}, {"time": 3832, "pitch": 58, "duration": 12, "velocity": 92}, {"time": 3832, "pitch": 61, "duration": 12, "velocity": 93}, {"time": 3844, "pitch": 49, "duration": 15, "velocity": 85}, {"time": 3856, "pitch": 56, "duration": 13, "velocity": 93}, {"time": 3856, "pitch": 61, "duration": 13, "velocity": 95}, {"time": 3856, "pitch": 65, "duration": 14, "velocity": 97}, {"time": 3868, "pitch": 49, "duration": 17, "velocity": 62}, {"time": 3880, "pitch": 56, "duration": 12, "velocity": 82}, {"time": 3880, "pitch": 61, "duration": 12, "velocity": 90}, {"time": 3880, "pitch": 65, "duration": 13, "velocity": 92}, {"time": 3892, "pitch": 49, "duration": 18, "velocity": 50}, {"time": 3904, "pitch": 56, "duration": 14, "velocity": 86}, {"time": 3904, "pitch": 61, "duration": 14, "velocity": 89}, {"time": 3904, "pitch": 65, "duration": 15, "velocity": 88}, {"time": 3916, "pitch": 49, "duration": 18, "velocity": 75}, {"time": 3928, "pitch": 56, "duration": 12, "velocity": 89}, {"time": 3928, "pitch": 61, "duration": 13, "velocity": 96}, {"time": 3928, "pitch": 65, "duration": 12, "velocity": 96}, {"time": 3940, "pitch": 44, "duration": 24, "velocity": 73}, {"time": 3952, "pitch": 56, "duration": 14, "velocity": 81}, {"time": 3952, "pitch": 59, "duration": 14, "velocity": 90}, {"time": 3952, "pitch": 63, "duration": 15, "velocity": 81}, {"time": 3964, "pitch": 51, "duration": 23, "velocity": 52}, {"time": 3976, "pitch": 56, "duration": 13, "velocity": 85}, {"time": 3976, "pitch": 59, "duration": 13, "velocity": 93}, {"time": 3976, "pitch": 63, "duration": 14, "velocity": 85}, {"time": 3988, "pitch": 44, "duration": 23, "velocity": 60}, {"time": 4000, "pitch": 56, "duration": 12, "velocity": 85}, {"time": 4000, "pitch": 59, "duration": 12, "velocity": 90}, {"time": 4000, "pitch": 63, "duration": 12, "velocity": 82}, {"time": 4012, "pitch": 51, "duration": 12, "velocity": 48}, {"time": 4024, "pitch": 56, "duration": 12, "velocity": 81}, {"time": 4024, "pitch": 59, "duration": 11, "velocity": 89}, {"time": 4024, "pitch": 63, "duration": 11, "velocity": 88}, {"time": 4036, "pitch": 39, "duration": 23, "velocity": 82}, {"time": 4048, "pitch": 51, "duration": 13, "velocity": 82}, {"time": 4048, "pitch": 54, "duration": 13, "velocity": 83}, {"time": 4048, "pitch": 58, "duration": 13, "velocity": 81}, {"time": 4060, "pitch": 46, "duration": 9, "velocity": 55}, {"time": 4072, "pitch": 51, "duration": 7, "velocity": 85}, {"time": 4072, "pitch": 54, "duration": 9, "velocity": 88}, {"time": 4072, "pitch": 58, "duration": 9, "velocity": 86}, {"time": 4084, "pitch": 47, "duration": 15, "velocity": 79}, {"time": 4096, "pitch": 54, "duration": 14, "velocity": 86}, {"time": 4096, "pitch": 59, "duration": 14, "velocity": 90}, {"time": 4096, "pitch": 63, "duration": 15, "velocity": 85}, {"time": 4108, "pitch": 47, "duration": 14, "velocity": 74}, {"time": 4120, "pitch": 54, "duration": 12, "velocity": 79}, {"time": 4120, "pitch": 59, "duration": 14, "velocity": 90}, {"time": 4120, "pitch": 63, "duration": 14, "velocity": 77}, {"time": 4132, "pitch": 44, "duration": 24, "velocity": 70}, {"time": 4144, "pitch": 56, "duration": 12, "velocity": 79}, {"time": 4144, "pitch": 59, "duration": 12, "velocity": 95}, {"time": 4144, "pitch": 63, "duration": 11, "velocity": 85}, {"time": 4156, "pitch": 51, "duration": 24, "velocity": 61}, {"time": 4168, "pitch": 58, "duration": 13, "velocity": 89}, {"time": 4168, "pitch": 61, "duration": 11, "velocity": 89}, {"time": 4180, "pitch": 44, "duration": 25, "velocity": 71}, {"time": 4192, "pitch": 56, "duration": 14, "velocity": 70}, {"time": 4192, "pitch": 59, "duration": 13, "velocity": 79}, {"time": 4192, "pitch": 63, "duration": 11, "velocity": 67}, {"time": 4204, "pitch": 51, "duration": 15, "velocity": 73}, {"time": 4216, "pitch": 58, "duration": 12, "velocity": 92}, {"time": 4216, "pitch": 61, "duration": 12, "velocity": 93}, {"time": 4228, "pitch": 44, "duration": 21, "velocity": 69}, {"time": 4228, "pitch": 56, "duration": 10, "velocity": 92}, {"time": 4228, "pitch": 59, "duration": 10, "velocity": 96}, {"time": 4228, "pitch": 63, "duration": 10, "velocity": 93}, {"time": 4240, "pitch": 56, "duration": 9, "velocity": 69}, {"time": 4240, "pitch": 59, "duration": 9, "velocity": 71}, {"time": 4240, "pitch": 63, "duration": 9, "velocity": 71}, {"time": 4252, "pitch": 51, "duration": 16, "velocity": 75}, {"time": 4264, "pitch": 56, "duration": 15, "velocity": 90}, {"time": 4264, "pitch": 59, "duration": 15, "velocity": 92}, {"time": 4264, "pitch": 63, "duration": 15, "velocity": 90}, {"time": 4276, "pitch": 44, "duration": 26, "velocity": 73}, {"time": 4288, "pitch": 56, "duration": 19, "velocity": 86}, {"time": 4288, "pitch": 59, "duration": 14, "velocity": 95}, {"time": 4288, "pitch": 63, "duration": 14, "velocity": 88}, {"time": 4300, "pitch": 51, "duration": 22, "velocity": 83}, {"time": 4312, "pitch": 58, "duration": 10, "velocity": 102}, {"time": 4312, "pitch": 61, "duration": 7, "velocity": 99}, {"time": 4324, "pitch": 44, "duration": 123, "velocity": 70}, {"time": 4324, "pitch": 51, "duration": 122, "velocity": 79}, {"time": 4324, "pitch": 56, "duration": 122, "velocity": 97}, {"time": 4324, "pitch": 59, "duration": 122, "velocity": 97}, {"time": 4324, "pitch": 63, "duration": 122, "velocity": 97}], "annotations": [{"time": 1546, "annotation": {"number": 64, "value": 127}, "group": "control_change"}, {"time": 1555, "annotation": {"number": 64, "value": 0}, "group": "control_change"}, {"time": 1564, "annotation": {"number": 64, "value": 127}, "group": "control_change"}, {"time": 1581, "annotation": {"number": 64, "value": 0}, "group": "control_change"}, {"time": 1635, "annotation": {"number": 64, "value": 127}, "group": "control_change"}, {"time": 1641, "annotation": {"number": 64, "value": 0}, "group": "control_change"}, {"time": 1683, "annotation": {"number": 64, "value": 127}, "group": "control_change"}, {"time": 1688, "annotation": {"number": 64, "value": 0}, "group": "control_change"}, {"time": 1734, "annotation": {"number": 64, "value": 127}, "group": "control_change"}, {"time": 1739, "annotation": {"number": 64, "value": 0}, "group": "control_change"}, {"time": 1757, "annotation": {"number": 64, "value": 127}, "group": "control_change"}, {"time": 1763, "annotation": {"number": 64, "value": 0}, "group": "control_change"}, {"time": 1782, "annotation": {"number": 64, "value": 127}, "group": "control_change"}, {"time": 1788, "annotation": {"number": 64, "value": 0}, "group": "control_change"}, {"time": 1805, "annotation": {"number": 64, "value": 127}, "group": "control_change"}, {"time": 1809, "annotation": {"number": 64, "value": 0}, "group": "control_change"}, {"time": 1829, "annotation": {"number": 64, "value": 127}, "group": "control_change"}, {"time": 1832, "annotation": {"number": 64, "value": 0}, "group": "control_change"}, {"time": 3466, "annotation": {"number": 64, "value": 127}, "group": "control_change"}, {"time": 3475, "annotation": {"number": 64, "value": 0}, "group": "control_change"}, {"time": 3484, "annotation": {"number": 64, "value": 127}, "group": "control_change"}, {"time": 3501, "annotation": {"number": 64, "value": 0}, "group": "control_change"}, {"time": 3555, "annotation": {"number": 64, "value": 127}, "group": "control_change"}, {"time": 3561, "annotation": {"number": 64, "value": 0}, "group": "control_change"}, {"time": 3603, "annotation": {"number": 64, "value": 127}, "group": "control_change"}, {"time": 3608, "annotation": {"number": 64, "value": 0}, "group": "control_change"}, {"time": 3654, "annotation": {"number": 64, "value": 127}, "group": "control_change"}, {"time": 3659, "annotation": {"number": 64, "value": 0}, "group": "control_change"}, {"time": 3677, "annotation": {"number": 64, "value": 127}, "group": "control_change"}, {"time": 3683, "annotation": {"number": 64, "value": 0}, "group": "control_change"}, {"time": 3702, "annotation": {"number": 64, "value": 127}, "group": "control_change"}, {"time": 3708, "annotation": {"number": 64, "value": 0}, "group": "control_change"}, {"time": 3725, "annotation": {"number": 64, "value": 127}, "group": "control_change"}, {"time": 3729, "annotation": {"number": 64, "value": 0}, "group": "control_change"}, {"time": 3749, "annotation": {"number": 64, "value": 127}, "group": "control_change"}, {"time": 3752, "annotation": {"number": 64, "value": 0}, "group": "control_change"}, {"time": 3850, "annotation": {"number": 64, "value": 127}, "group": "control_change"}, {"time": 3859, "annotation": {"number": 64, "value": 0}, "group": "control_change"}, {"time": 3868, "annotation": {"number": 64, "value": 127}, "group": "control_change"}, {"time": 3885, "annotation": {"number": 64, "value": 0}, "group": "control_change"}, {"time": 3939, "annotation": {"number": 64, "value": 127}, "group": "control_change"}, {"time": 3945, "annotation": {"number": 64, "value": 0}, "group": "control_change"}, {"time": 3987, "annotation": {"number": 64, "value": 127}, "group": "control_change"}, {"time": 3992, "annotation": {"number": 64, "value": 0}, "group": "control_change"}, {"time": 4038, "annotation": {"number": 64, "value": 127}, "group": "control_change"}, {"time": 4043, "annotation": {"number": 64, "value": 0}, "group": "control_change"}, {"time": 4061, "annotation": {"number": 64, "value": 127}, "group": "control_change"}, {"time": 4067, "annotation": {"number": 64, "value": 0}, "group": "control_change"}, {"time": 4086, "annotation": {"number": 64, "value": 127}, "group": "control_change"}, {"time": 4092, "annotation": {"number": 64, "value": 0}, "group": "control_change"}, {"time": 4109, "annotation": {"number": 64, "value": 127}, "group": "control_change"}, {"time": 4113, "annotation": {"number": 64, "value": 0}, "group": "control_change"}, {"time": 4133, "annotation": {"number": 64, "value": 127}, "group": "control_change"}, {"time": 4136, "annotation": {"number": 64, "value": 0}, "group": "control_change"}, {"time": 4386, "annotation": {"number": 64, "value": 127}, "group": "control_change"}, {"time": 4390, "annotation": {"number": 64, "value": 0}, "group": "control_change"}, {"time": 4442, "annotation": {"number": 64, "value": 127}, "group": "control_change"}, {"time": 4446, "annotation": {"number": 64, "value": 0}, "group": "control_change"}, {"time": 4450, "annotation": {"number": 64, "value": 127}, "group": "control_change"}, {"time": 4452, "annotation": {"number": 64, "value": 0}, "group": "control_change"}]}]}