{"metadata": {"schema_version": "0.2", "title": "None", "source_filename": "049.mid", "source_format": "midi"}, "resolution": 12, "tempos": [{"time": 0, "qpm": 110.00011000011}], "time_signatures": [{"time": 0, "numerator": 1, "denominator": 4}], "tracks": [{"program": 0, "is_drum": false, "name": "MELODY", "notes": [{"time": 68, "pitch": 68, "duration": 5, "velocity": 97}, {"time": 74, "pitch": 80, "duration": 8, "velocity": 99}, {"time": 80, "pitch": 78, "duration": 6, "velocity": 99}, {"time": 86, "pitch": 76, "duration": 4, "velocity": 72}, {"time": 92, "pitch": 75, "duration": 7, "velocity": 107}, {"time": 98, "pitch": 76, "duration": 12, "velocity": 100}, {"time": 110, "pitch": 76, "duration": 2, "velocity": 127}, {"time": 116, "pitch": 76, "duration": 2, "velocity": 96}, {"time": 122, "pitch": 76, "duration": 2, "velocity": 112}, {"time": 128, "pitch": 80, "duration": 5, "velocity": 122}, {"time": 134, "pitch": 83, "duration": 5, "velocity": 107}, {"time": 140, "pitch": 85, "duration": 8, "velocity": 122}, {"time": 164, "pitch": 68, "duration": 6, "velocity": 88}, {"time": 170, "pitch": 78, "duration": 7, "velocity": 100}, {"time": 176, "pitch": 76, "duration": 7, "velocity": 93}, {"time": 182, "pitch": 75, "duration": 6, "velocity": 107}, {"time": 188, "pitch": 73, "duration": 7, "velocity": 97}, {"time": 194, "pitch": 75, "duration": 9, "velocity": 107}, {"time": 206, "pitch": 71, "duration": 2, "velocity": 96}, {"time": 212, "pitch": 71, "duration": 2, "velocity": 90}, {"time": 218, "pitch": 71, "duration": 4, "velocity": 97}, {"time": 224, "pitch": 76, "duration": 2, "velocity": 99}, {"time": 230, "pitch": 80, "duration": 4, "velocity": 122}, {"time": 236, "pitch": 83, "duration": 11, "velocity": 112}, {"time": 266, "pitch": 76, "duration": 5, "velocity": 102}, {"time": 272, "pitch": 75, "duration": 6, "velocity": 88}, {"time": 278, "pitch": 73, "duration": 6, "velocity": 96}, {"time": 284, "pitch": 71, "duration": 7, "velocity": 74}, {"time": 290, "pitch": 73, "duration": 14, "velocity": 99}, {"time": 308, "pitch": 73, "duration": 1, "velocity": 112}, {"time": 311, "pitch": 73, "duration": 2, "velocity": 92}, {"time": 314, "pitch": 80, "duration": 9, "velocity": 127}, {"time": 326, "pitch": 81, "duration": 9, "velocity": 117}, {"time": 338, "pitch": 81, "duration": 6, "velocity": 117}, {"time": 344, "pitch": 80, "duration": 11, "velocity": 100}, {"time": 356, "pitch": 78, "duration": 11, "velocity": 107}, {"time": 380, "pitch": 80, "duration": 14, "velocity": 112}, {"time": 404, "pitch": 75, "duration": 15, "velocity": 122}, {"time": 428, "pitch": 73, "duration": 29, "velocity": 102}, {"time": 854, "pitch": 73, "duration": 5, "velocity": 107}, {"time": 860, "pitch": 75, "duration": 4, "velocity": 102}, {"time": 866, "pitch": 76, "duration": 8, "velocity": 112}, {"time": 878, "pitch": 75, "duration": 4, "velocity": 127}, {"time": 884, "pitch": 76, "duration": 6, "velocity": 102}, {"time": 902, "pitch": 68, "duration": 6, "velocity": 107}, {"time": 908, "pitch": 69, "duration": 9, "velocity": 99}, {"time": 920, "pitch": 76, "duration": 16, "velocity": 117}, {"time": 944, "pitch": 71, "duration": 3, "velocity": 112}, {"time": 950, "pitch": 71, "duration": 4, "velocity": 89}, {"time": 956, "pitch": 73, "duration": 4, "velocity": 107}, {"time": 962, "pitch": 75, "duration": 6, "velocity": 127}, {"time": 974, "pitch": 73, "duration": 6, "velocity": 122}, {"time": 980, "pitch": 75, "duration": 4, "velocity": 127}, {"time": 998, "pitch": 66, "duration": 7, "velocity": 107}, {"time": 1004, "pitch": 68, "duration": 9, "velocity": 117}, {"time": 1016, "pitch": 75, "duration": 8, "velocity": 127}, {"time": 1046, "pitch": 69, "duration": 5, "velocity": 100}, {"time": 1052, "pitch": 68, "duration": 3, "velocity": 112}, {"time": 1058, "pitch": 69, "duration": 6, "velocity": 127}, {"time": 1070, "pitch": 68, "duration": 4, "velocity": 122}, {"time": 1076, "pitch": 69, "duration": 8, "velocity": 127}, {"time": 1088, "pitch": 80, "duration": 7, "velocity": 127}, {"time": 1100, "pitch": 80, "duration": 7, "velocity": 127}, {"time": 1112, "pitch": 81, "duration": 5, "velocity": 117}, {"time": 1118, "pitch": 80, "duration": 5, "velocity": 117}, {"time": 1124, "pitch": 78, "duration": 10, "velocity": 127}, {"time": 1136, "pitch": 76, "duration": 3, "velocity": 102}, {"time": 1142, "pitch": 78, "duration": 4, "velocity": 127}, {"time": 1148, "pitch": 80, "duration": 11, "velocity": 127}, {"time": 1166, "pitch": 78, "duration": 4, "velocity": 127}, {"time": 1172, "pitch": 80, "duration": 8, "velocity": 127}, {"time": 1190, "pitch": 78, "duration": 3, "velocity": 127}, {"time": 1196, "pitch": 80, "duration": 44, "velocity": 127}, {"time": 1268, "pitch": 68, "duration": 5, "velocity": 97}, {"time": 1274, "pitch": 80, "duration": 8, "velocity": 99}, {"time": 1280, "pitch": 78, "duration": 6, "velocity": 99}, {"time": 1286, "pitch": 76, "duration": 4, "velocity": 72}, {"time": 1292, "pitch": 75, "duration": 7, "velocity": 107}, {"time": 1298, "pitch": 76, "duration": 12, "velocity": 100}, {"time": 1310, "pitch": 76, "duration": 2, "velocity": 127}, {"time": 1316, "pitch": 76, "duration": 2, "velocity": 96}, {"time": 1322, "pitch": 76, "duration": 2, "velocity": 112}, {"time": 1328, "pitch": 80, "duration": 5, "velocity": 122}, {"time": 1334, "pitch": 83, "duration": 5, "velocity": 107}, {"time": 1340, "pitch": 85, "duration": 8, "velocity": 122}, {"time": 1364, "pitch": 68, "duration": 6, "velocity": 88}, {"time": 1370, "pitch": 78, "duration": 7, "velocity": 100}, {"time": 1376, "pitch": 76, "duration": 7, "velocity": 93}, {"time": 1382, "pitch": 75, "duration": 6, "velocity": 107}, {"time": 1388, "pitch": 73, "duration": 7, "velocity": 97}, {"time": 1394, "pitch": 75, "duration": 9, "velocity": 107}, {"time": 1406, "pitch": 71, "duration": 2, "velocity": 96}, {"time": 1412, "pitch": 71, "duration": 2, "velocity": 90}, {"time": 1418, "pitch": 71, "duration": 4, "velocity": 97}, {"time": 1424, "pitch": 76, "duration": 2, "velocity": 99}, {"time": 1430, "pitch": 80, "duration": 4, "velocity": 122}, {"time": 1436, "pitch": 83, "duration": 11, "velocity": 112}, {"time": 1466, "pitch": 76, "duration": 5, "velocity": 102}, {"time": 1472, "pitch": 75, "duration": 6, "velocity": 88}, {"time": 1478, "pitch": 73, "duration": 6, "velocity": 96}, {"time": 1484, "pitch": 71, "duration": 7, "velocity": 74}, {"time": 1490, "pitch": 73, "duration": 14, "velocity": 99}, {"time": 1508, "pitch": 73, "duration": 1, "velocity": 112}, {"time": 1511, "pitch": 73, "duration": 2, "velocity": 92}, {"time": 1514, "pitch": 80, "duration": 9, "velocity": 127}, {"time": 1526, "pitch": 81, "duration": 9, "velocity": 117}, {"time": 1538, "pitch": 81, "duration": 6, "velocity": 117}, {"time": 1544, "pitch": 80, "duration": 11, "velocity": 100}, {"time": 1556, "pitch": 78, "duration": 11, "velocity": 107}, {"time": 1580, "pitch": 80, "duration": 14, "velocity": 112}, {"time": 1616, "pitch": 68, "duration": 2, "velocity": 117}, {"time": 1622, "pitch": 81, "duration": 6, "velocity": 102}, {"time": 1628, "pitch": 80, "duration": 18, "velocity": 112}, {"time": 1652, "pitch": 56, "duration": 5, "velocity": 97}, {"time": 1658, "pitch": 68, "duration": 8, "velocity": 99}, {"time": 1664, "pitch": 66, "duration": 6, "velocity": 99}, {"time": 1670, "pitch": 64, "duration": 4, "velocity": 72}, {"time": 1676, "pitch": 63, "duration": 7, "velocity": 107}, {"time": 1682, "pitch": 64, "duration": 12, "velocity": 100}, {"time": 1694, "pitch": 64, "duration": 2, "velocity": 127}, {"time": 1700, "pitch": 64, "duration": 2, "velocity": 96}, {"time": 1706, "pitch": 64, "duration": 2, "velocity": 112}, {"time": 1712, "pitch": 68, "duration": 5, "velocity": 122}, {"time": 1718, "pitch": 71, "duration": 5, "velocity": 107}, {"time": 1724, "pitch": 73, "duration": 8, "velocity": 122}, {"time": 1748, "pitch": 56, "duration": 6, "velocity": 88}, {"time": 1754, "pitch": 66, "duration": 7, "velocity": 100}, {"time": 1760, "pitch": 64, "duration": 7, "velocity": 93}, {"time": 1766, "pitch": 63, "duration": 6, "velocity": 107}, {"time": 1772, "pitch": 61, "duration": 7, "velocity": 97}, {"time": 1778, "pitch": 63, "duration": 9, "velocity": 107}, {"time": 1790, "pitch": 59, "duration": 2, "velocity": 96}, {"time": 1796, "pitch": 59, "duration": 2, "velocity": 90}, {"time": 1802, "pitch": 59, "duration": 4, "velocity": 97}, {"time": 1808, "pitch": 64, "duration": 2, "velocity": 99}, {"time": 1814, "pitch": 68, "duration": 4, "velocity": 122}, {"time": 1820, "pitch": 71, "duration": 11, "velocity": 112}, {"time": 1850, "pitch": 64, "duration": 5, "velocity": 102}, {"time": 1856, "pitch": 63, "duration": 6, "velocity": 88}, {"time": 1862, "pitch": 61, "duration": 6, "velocity": 96}, {"time": 1868, "pitch": 59, "duration": 7, "velocity": 74}, {"time": 1874, "pitch": 61, "duration": 14, "velocity": 99}, {"time": 1892, "pitch": 61, "duration": 1, "velocity": 112}, {"time": 1895, "pitch": 61, "duration": 2, "velocity": 92}, {"time": 1898, "pitch": 68, "duration": 9, "velocity": 127}, {"time": 1910, "pitch": 69, "duration": 9, "velocity": 117}, {"time": 1922, "pitch": 69, "duration": 6, "velocity": 117}, {"time": 1928, "pitch": 68, "duration": 11, "velocity": 100}, {"time": 1940, "pitch": 66, "duration": 11, "velocity": 107}, {"time": 1952, "pitch": 66, "duration": 4, "velocity": 117}, {"time": 1958, "pitch": 68, "duration": 4, "velocity": 97}, {"time": 1964, "pitch": 69, "duration": 5, "velocity": 99}, {"time": 1970, "pitch": 68, "duration": 6, "velocity": 122}, {"time": 1982, "pitch": 66, "duration": 2, "velocity": 127}, {"time": 1988, "pitch": 63, "duration": 9, "velocity": 117}, {"time": 2000, "pitch": 64, "duration": 9, "velocity": 102}, {"time": 2012, "pitch": 61, "duration": 32, "velocity": 127}, {"time": 2678, "pitch": 73, "duration": 5, "velocity": 107}, {"time": 2684, "pitch": 75, "duration": 3, "velocity": 102}, {"time": 2690, "pitch": 76, "duration": 7, "velocity": 112}, {"time": 2702, "pitch": 75, "duration": 4, "velocity": 127}, {"time": 2708, "pitch": 76, "duration": 5, "velocity": 102}, {"time": 2726, "pitch": 68, "duration": 5, "velocity": 107}, {"time": 2732, "pitch": 69, "duration": 9, "velocity": 99}, {"time": 2744, "pitch": 76, "duration": 15, "velocity": 117}, {"time": 2774, "pitch": 71, "duration": 3, "velocity": 89}, {"time": 2780, "pitch": 73, "duration": 3, "velocity": 107}, {"time": 2786, "pitch": 75, "duration": 5, "velocity": 127}, {"time": 2798, "pitch": 73, "duration": 5, "velocity": 122}, {"time": 2804, "pitch": 75, "duration": 4, "velocity": 127}, {"time": 2822, "pitch": 66, "duration": 6, "velocity": 107}, {"time": 2828, "pitch": 68, "duration": 9, "velocity": 117}, {"time": 2840, "pitch": 75, "duration": 7, "velocity": 127}, {"time": 2870, "pitch": 69, "duration": 4, "velocity": 100}, {"time": 2876, "pitch": 68, "duration": 3, "velocity": 112}, {"time": 2882, "pitch": 69, "duration": 6, "velocity": 127}, {"time": 2894, "pitch": 68, "duration": 3, "velocity": 122}, {"time": 2900, "pitch": 69, "duration": 7, "velocity": 127}, {"time": 2912, "pitch": 80, "duration": 6, "velocity": 127}, {"time": 2924, "pitch": 80, "duration": 6, "velocity": 127}, {"time": 2936, "pitch": 81, "duration": 5, "velocity": 117}, {"time": 2942, "pitch": 80, "duration": 4, "velocity": 117}, {"time": 2948, "pitch": 78, "duration": 9, "velocity": 127}, {"time": 2960, "pitch": 76, "duration": 3, "velocity": 102}, {"time": 2966, "pitch": 78, "duration": 3, "velocity": 127}, {"time": 2972, "pitch": 80, "duration": 11, "velocity": 127}, {"time": 2990, "pitch": 78, "duration": 3, "velocity": 127}, {"time": 2996, "pitch": 80, "duration": 8, "velocity": 127}, {"time": 3014, "pitch": 78, "duration": 2, "velocity": 127}, {"time": 3020, "pitch": 80, "duration": 43, "velocity": 127}, {"time": 3092, "pitch": 68, "duration": 4, "velocity": 97}, {"time": 3098, "pitch": 80, "duration": 7, "velocity": 99}, {"time": 3104, "pitch": 78, "duration": 6, "velocity": 99}, {"time": 3110, "pitch": 76, "duration": 3, "velocity": 72}, {"time": 3116, "pitch": 75, "duration": 6, "velocity": 107}, {"time": 3122, "pitch": 76, "duration": 12, "velocity": 100}, {"time": 3134, "pitch": 76, "duration": 1, "velocity": 127}, {"time": 3140, "pitch": 76, "duration": 2, "velocity": 96}, {"time": 3146, "pitch": 76, "duration": 1, "velocity": 112}, {"time": 3152, "pitch": 80, "duration": 5, "velocity": 122}, {"time": 3158, "pitch": 83, "duration": 4, "velocity": 107}, {"time": 3164, "pitch": 85, "duration": 8, "velocity": 122}, {"time": 3188, "pitch": 68, "duration": 6, "velocity": 88}, {"time": 3194, "pitch": 78, "duration": 6, "velocity": 100}, {"time": 3200, "pitch": 76, "duration": 7, "velocity": 93}, {"time": 3206, "pitch": 75, "duration": 5, "velocity": 107}, {"time": 3212, "pitch": 73, "duration": 6, "velocity": 97}, {"time": 3218, "pitch": 75, "duration": 8, "velocity": 107}, {"time": 3230, "pitch": 71, "duration": 2, "velocity": 96}, {"time": 3236, "pitch": 71, "duration": 2, "velocity": 90}, {"time": 3242, "pitch": 71, "duration": 4, "velocity": 97}, {"time": 3248, "pitch": 76, "duration": 2, "velocity": 99}, {"time": 3254, "pitch": 80, "duration": 3, "velocity": 122}, {"time": 3260, "pitch": 83, "duration": 11, "velocity": 112}, {"time": 3290, "pitch": 76, "duration": 5, "velocity": 102}, {"time": 3296, "pitch": 75, "duration": 5, "velocity": 88}, {"time": 3302, "pitch": 73, "duration": 6, "velocity": 96}, {"time": 3308, "pitch": 71, "duration": 6, "velocity": 74}, {"time": 3314, "pitch": 73, "duration": 14, "velocity": 99}, {"time": 3332, "pitch": 73, "duration": 1, "velocity": 112}, {"time": 3335, "pitch": 73, "duration": 2, "velocity": 92}, {"time": 3338, "pitch": 80, "duration": 8, "velocity": 127}, {"time": 3350, "pitch": 81, "duration": 8, "velocity": 117}, {"time": 3362, "pitch": 81, "duration": 6, "velocity": 117}, {"time": 3368, "pitch": 80, "duration": 10, "velocity": 100}, {"time": 3380, "pitch": 78, "duration": 11, "velocity": 107}, {"time": 3404, "pitch": 80, "duration": 13, "velocity": 112}, {"time": 3440, "pitch": 68, "duration": 2, "velocity": 117}, {"time": 3446, "pitch": 81, "duration": 6, "velocity": 102}, {"time": 3452, "pitch": 80, "duration": 18, "velocity": 112}, {"time": 3476, "pitch": 68, "duration": 4, "velocity": 97}, {"time": 3482, "pitch": 80, "duration": 7, "velocity": 99}, {"time": 3488, "pitch": 78, "duration": 6, "velocity": 99}, {"time": 3494, "pitch": 76, "duration": 3, "velocity": 72}, {"time": 3500, "pitch": 75, "duration": 6, "velocity": 107}, {"time": 3506, "pitch": 76, "duration": 12, "velocity": 100}, {"time": 3518, "pitch": 76, "duration": 1, "velocity": 127}, {"time": 3524, "pitch": 76, "duration": 2, "velocity": 96}, {"time": 3530, "pitch": 76, "duration": 1, "velocity": 112}, {"time": 3536, "pitch": 80, "duration": 5, "velocity": 122}, {"time": 3542, "pitch": 83, "duration": 4, "velocity": 107}, {"time": 3548, "pitch": 85, "duration": 8, "velocity": 122}, {"time": 3572, "pitch": 68, "duration": 6, "velocity": 88}, {"time": 3578, "pitch": 78, "duration": 6, "velocity": 100}, {"time": 3584, "pitch": 76, "duration": 7, "velocity": 93}, {"time": 3590, "pitch": 75, "duration": 5, "velocity": 107}, {"time": 3596, "pitch": 73, "duration": 6, "velocity": 97}, {"time": 3602, "pitch": 75, "duration": 8, "velocity": 107}, {"time": 3614, "pitch": 71, "duration": 2, "velocity": 96}, {"time": 3620, "pitch": 71, "duration": 2, "velocity": 90}, {"time": 3626, "pitch": 71, "duration": 4, "velocity": 97}, {"time": 3632, "pitch": 76, "duration": 2, "velocity": 99}, {"time": 3638, "pitch": 80, "duration": 3, "velocity": 122}, {"time": 3644, "pitch": 83, "duration": 11, "velocity": 112}, {"time": 3674, "pitch": 76, "duration": 5, "velocity": 102}, {"time": 3680, "pitch": 75, "duration": 5, "velocity": 88}, {"time": 3686, "pitch": 73, "duration": 6, "velocity": 96}, {"time": 3692, "pitch": 71, "duration": 6, "velocity": 74}, {"time": 3698, "pitch": 73, "duration": 14, "velocity": 99}, {"time": 3716, "pitch": 73, "duration": 1, "velocity": 112}, {"time": 3719, "pitch": 73, "duration": 2, "velocity": 92}, {"time": 3722, "pitch": 80, "duration": 8, "velocity": 127}, {"time": 3734, "pitch": 81, "duration": 8, "velocity": 117}, {"time": 3746, "pitch": 81, "duration": 6, "velocity": 117}, {"time": 3752, "pitch": 80, "duration": 10, "velocity": 100}, {"time": 3764, "pitch": 78, "duration": 11, "velocity": 107}, {"time": 3776, "pitch": 78, "duration": 4, "velocity": 117}, {"time": 3782, "pitch": 80, "duration": 3, "velocity": 97}, {"time": 3788, "pitch": 81, "duration": 4, "velocity": 99}, {"time": 3794, "pitch": 80, "duration": 6, "velocity": 122}, {"time": 3806, "pitch": 78, "duration": 4, "velocity": 127}, {"time": 3812, "pitch": 75, "duration": 8, "velocity": 117}, {"time": 3824, "pitch": 76, "duration": 8, "velocity": 102}, {"time": 3836, "pitch": 73, "duration": 18, "velocity": 127}, {"time": 3860, "pitch": 68, "duration": 4, "velocity": 97}, {"time": 3866, "pitch": 80, "duration": 7, "velocity": 99}, {"time": 3872, "pitch": 78, "duration": 6, "velocity": 99}, {"time": 3878, "pitch": 76, "duration": 3, "velocity": 72}, {"time": 3884, "pitch": 75, "duration": 6, "velocity": 107}, {"time": 3890, "pitch": 76, "duration": 12, "velocity": 100}, {"time": 3902, "pitch": 76, "duration": 1, "velocity": 127}, {"time": 3908, "pitch": 76, "duration": 2, "velocity": 96}, {"time": 3914, "pitch": 76, "duration": 1, "velocity": 112}, {"time": 3920, "pitch": 80, "duration": 5, "velocity": 122}, {"time": 3926, "pitch": 83, "duration": 4, "velocity": 107}, {"time": 3932, "pitch": 85, "duration": 8, "velocity": 122}, {"time": 3956, "pitch": 68, "duration": 6, "velocity": 88}, {"time": 3962, "pitch": 78, "duration": 6, "velocity": 100}, {"time": 3968, "pitch": 76, "duration": 7, "velocity": 93}, {"time": 3974, "pitch": 75, "duration": 5, "velocity": 107}, {"time": 3980, "pitch": 73, "duration": 6, "velocity": 97}, {"time": 3986, "pitch": 75, "duration": 8, "velocity": 107}, {"time": 3998, "pitch": 71, "duration": 2, "velocity": 96}, {"time": 4004, "pitch": 71, "duration": 2, "velocity": 90}, {"time": 4010, "pitch": 71, "duration": 4, "velocity": 97}, {"time": 4016, "pitch": 76, "duration": 2, "velocity": 99}, {"time": 4022, "pitch": 80, "duration": 3, "velocity": 122}, {"time": 4028, "pitch": 83, "duration": 11, "velocity": 112}, {"time": 4058, "pitch": 76, "duration": 5, "velocity": 102}, {"time": 4064, "pitch": 75, "duration": 5, "velocity": 88}, {"time": 4070, "pitch": 73, "duration": 6, "velocity": 96}, {"time": 4076, "pitch": 71, "duration": 6, "velocity": 74}, {"time": 4082, "pitch": 73, "duration": 14, "velocity": 99}, {"time": 4100, "pitch": 73, "duration": 1, "velocity": 112}, {"time": 4103, "pitch": 73, "duration": 2, "velocity": 92}, {"time": 4106, "pitch": 80, "duration": 8, "velocity": 127}, {"time": 4118, "pitch": 81, "duration": 8, "velocity": 117}, {"time": 4130, "pitch": 81, "duration": 6, "velocity": 117}, {"time": 4136, "pitch": 80, "duration": 10, "velocity": 100}, {"time": 4148, "pitch": 78, "duration": 11, "velocity": 107}, {"time": 4172, "pitch": 80, "duration": 13, "velocity": 112}, {"time": 4208, "pitch": 56, "duration": 2, "velocity": 117}, {"time": 4214, "pitch": 69, "duration": 6, "velocity": 102}, {"time": 4220, "pitch": 68, "duration": 18, "velocity": 112}, {"time": 4244, "pitch": 56, "duration": 4, "velocity": 97}, {"time": 4250, "pitch": 68, "duration": 7, "velocity": 99}, {"time": 4256, "pitch": 66, "duration": 6, "velocity": 99}, {"time": 4262, "pitch": 64, "duration": 3, "velocity": 72}, {"time": 4268, "pitch": 63, "duration": 6, "velocity": 107}, {"time": 4274, "pitch": 64, "duration": 12, "velocity": 100}, {"time": 4286, "pitch": 64, "duration": 1, "velocity": 127}, {"time": 4292, "pitch": 64, "duration": 2, "velocity": 96}, {"time": 4298, "pitch": 64, "duration": 1, "velocity": 112}, {"time": 4304, "pitch": 68, "duration": 5, "velocity": 122}, {"time": 4310, "pitch": 71, "duration": 4, "velocity": 107}, {"time": 4316, "pitch": 73, "duration": 8, "velocity": 122}, {"time": 4340, "pitch": 56, "duration": 6, "velocity": 88}, {"time": 4346, "pitch": 66, "duration": 6, "velocity": 100}, {"time": 4352, "pitch": 64, "duration": 7, "velocity": 93}, {"time": 4358, "pitch": 63, "duration": 5, "velocity": 107}, {"time": 4364, "pitch": 61, "duration": 6, "velocity": 97}, {"time": 4370, "pitch": 63, "duration": 8, "velocity": 107}, {"time": 4382, "pitch": 59, "duration": 2, "velocity": 96}, {"time": 4388, "pitch": 59, "duration": 2, "velocity": 90}, {"time": 4394, "pitch": 59, "duration": 4, "velocity": 97}, {"time": 4400, "pitch": 64, "duration": 2, "velocity": 99}, {"time": 4406, "pitch": 68, "duration": 3, "velocity": 122}, {"time": 4412, "pitch": 71, "duration": 11, "velocity": 112}, {"time": 4442, "pitch": 64, "duration": 5, "velocity": 102}, {"time": 4448, "pitch": 63, "duration": 5, "velocity": 88}, {"time": 4454, "pitch": 61, "duration": 6, "velocity": 96}, {"time": 4460, "pitch": 59, "duration": 6, "velocity": 74}, {"time": 4466, "pitch": 61, "duration": 14, "velocity": 99}, {"time": 4484, "pitch": 61, "duration": 1, "velocity": 112}, {"time": 4487, "pitch": 61, "duration": 2, "velocity": 92}, {"time": 4490, "pitch": 68, "duration": 8, "velocity": 127}, {"time": 4502, "pitch": 69, "duration": 8, "velocity": 117}, {"time": 4514, "pitch": 69, "duration": 6, "velocity": 117}, {"time": 4520, "pitch": 68, "duration": 10, "velocity": 100}, {"time": 4532, "pitch": 66, "duration": 11, "velocity": 107}, {"time": 4544, "pitch": 66, "duration": 4, "velocity": 117}, {"time": 4550, "pitch": 68, "duration": 3, "velocity": 97}, {"time": 4556, "pitch": 69, "duration": 4, "velocity": 99}, {"time": 4562, "pitch": 68, "duration": 6, "velocity": 122}, {"time": 4574, "pitch": 66, "duration": 4, "velocity": 127}, {"time": 4580, "pitch": 63, "duration": 8, "velocity": 117}, {"time": 4592, "pitch": 64, "duration": 8, "velocity": 102}, {"time": 4604, "pitch": 61, "duration": 32, "velocity": 127}], "annotations": [{"time": 650, "annotation": {"number": 64, "value": 77}, "group": "control_change"}, {"time": 818, "annotation": {"number": 64, "value": 78}, "group": "control_change"}, {"time": 1178, "annotation": {"number": 64, "value": 77}, "group": "control_change"}, {"time": 1262, "annotation": {"number": 64, "value": 76}, "group": "control_change"}, {"time": 1418, "annotation": {"number": 64, "value": 75}, "group": "control_change"}, {"time": 2162, "annotation": {"number": 64, "value": 74}, "group": "control_change"}, {"time": 2306, "annotation": {"number": 64, "value": 73}, "group": "control_change"}, {"time": 2402, "annotation": {"number": 64, "value": 72}, "group": "control_change"}, {"time": 3254, "annotation": {"number": 64, "value": 73}, "group": "control_change"}, {"time": 3542, "annotation": {"number": 64, "value": 74}, "group": "control_change"}, {"time": 3998, "annotation": {"number": 64, "value": 75}, "group": "control_change"}, {"time": 4598, "annotation": {"number": 64, "value": 74}, "group": "control_change"}, {"time": 4814, "annotation": {"number": 64, "value": 73}, "group": "control_change"}]}, {"program": 0, "is_drum": false, "name": "BRIDGE", "notes": [{"time": 488, "pitch": 68, "duration": 7, "velocity": 97}, {"time": 494, "pitch": 73, "duration": 5, "velocity": 86}, {"time": 500, "pitch": 76, "duration": 6, "velocity": 93}, {"time": 506, "pitch": 80, "duration": 7, "velocity": 103}, {"time": 512, "pitch": 78, "duration": 6, "velocity": 89}, {"time": 518, "pitch": 76, "duration": 6, "velocity": 93}, {"time": 524, "pitch": 75, "duration": 6, "velocity": 95}, {"time": 530, "pitch": 76, "duration": 15, "velocity": 79}, {"time": 542, "pitch": 69, "duration": 7, "velocity": 95}, {"time": 548, "pitch": 76, "duration": 7, "velocity": 99}, {"time": 554, "pitch": 78, "duration": 6, "velocity": 106}, {"time": 560, "pitch": 76, "duration": 6, "velocity": 89}, {"time": 566, "pitch": 75, "duration": 6, "velocity": 100}, {"time": 572, "pitch": 73, "duration": 7, "velocity": 89}, {"time": 578, "pitch": 71, "duration": 11, "velocity": 93}, {"time": 590, "pitch": 71, "duration": 6, "velocity": 95}, {"time": 596, "pitch": 75, "duration": 7, "velocity": 97}, {"time": 602, "pitch": 78, "duration": 6, "velocity": 89}, {"time": 608, "pitch": 76, "duration": 6, "velocity": 93}, {"time": 614, "pitch": 75, "duration": 7, "velocity": 100}, {"time": 620, "pitch": 71, "duration": 18, "velocity": 107}, {"time": 638, "pitch": 76, "duration": 6, "velocity": 100}, {"time": 644, "pitch": 78, "duration": 7, "velocity": 102}, {"time": 650, "pitch": 80, "duration": 7, "velocity": 107}, {"time": 656, "pitch": 78, "duration": 6, "velocity": 97}, {"time": 662, "pitch": 76, "duration": 6, "velocity": 96}, {"time": 668, "pitch": 75, "duration": 8, "velocity": 97}, {"time": 686, "pitch": 69, "duration": 6, "velocity": 95}, {"time": 692, "pitch": 73, "duration": 6, "velocity": 97}, {"time": 698, "pitch": 76, "duration": 6, "velocity": 96}, {"time": 704, "pitch": 73, "duration": 7, "velocity": 112}, {"time": 710, "pitch": 71, "duration": 6, "velocity": 92}, {"time": 716, "pitch": 69, "duration": 8, "velocity": 95}, {"time": 722, "pitch": 66, "duration": 6, "velocity": 99}, {"time": 728, "pitch": 61, "duration": 7, "velocity": 95}, {"time": 734, "pitch": 66, "duration": 7, "velocity": 78}, {"time": 740, "pitch": 69, "duration": 7, "velocity": 79}, {"time": 746, "pitch": 73, "duration": 7, "velocity": 96}, {"time": 752, "pitch": 71, "duration": 6, "velocity": 99}, {"time": 758, "pitch": 68, "duration": 6, "velocity": 107}, {"time": 764, "pitch": 66, "duration": 5, "velocity": 102}, {"time": 770, "pitch": 63, "duration": 9, "velocity": 112}, {"time": 782, "pitch": 68, "duration": 7, "velocity": 99}, {"time": 788, "pitch": 73, "duration": 7, "velocity": 97}, {"time": 794, "pitch": 75, "duration": 8, "velocity": 97}, {"time": 800, "pitch": 73, "duration": 6, "velocity": 97}, {"time": 806, "pitch": 72, "duration": 5, "velocity": 99}, {"time": 812, "pitch": 68, "duration": 7, "velocity": 99}, {"time": 830, "pitch": 73, "duration": 7, "velocity": 107}, {"time": 836, "pitch": 76, "duration": 6, "velocity": 61}, {"time": 842, "pitch": 80, "duration": 7, "velocity": 96}, {"time": 848, "pitch": 78, "duration": 6, "velocity": 100}, {"time": 854, "pitch": 76, "duration": 6, "velocity": 85}, {"time": 860, "pitch": 75, "duration": 7, "velocity": 99}, {"time": 872, "pitch": 68, "duration": 7, "velocity": 97}, {"time": 878, "pitch": 73, "duration": 5, "velocity": 86}, {"time": 884, "pitch": 76, "duration": 6, "velocity": 93}, {"time": 890, "pitch": 80, "duration": 7, "velocity": 112}, {"time": 896, "pitch": 78, "duration": 6, "velocity": 89}, {"time": 902, "pitch": 76, "duration": 6, "velocity": 93}, {"time": 908, "pitch": 75, "duration": 6, "velocity": 95}, {"time": 914, "pitch": 76, "duration": 15, "velocity": 79}, {"time": 926, "pitch": 69, "duration": 7, "velocity": 95}, {"time": 932, "pitch": 76, "duration": 7, "velocity": 99}, {"time": 938, "pitch": 78, "duration": 6, "velocity": 117}, {"time": 944, "pitch": 76, "duration": 6, "velocity": 89}, {"time": 950, "pitch": 75, "duration": 6, "velocity": 100}, {"time": 956, "pitch": 73, "duration": 7, "velocity": 89}, {"time": 962, "pitch": 71, "duration": 11, "velocity": 93}, {"time": 974, "pitch": 71, "duration": 6, "velocity": 95}, {"time": 980, "pitch": 75, "duration": 7, "velocity": 97}, {"time": 986, "pitch": 78, "duration": 6, "velocity": 89}, {"time": 992, "pitch": 76, "duration": 6, "velocity": 93}, {"time": 998, "pitch": 75, "duration": 7, "velocity": 100}, {"time": 1004, "pitch": 71, "duration": 18, "velocity": 107}, {"time": 1022, "pitch": 76, "duration": 6, "velocity": 100}, {"time": 1028, "pitch": 78, "duration": 7, "velocity": 102}, {"time": 1034, "pitch": 80, "duration": 7, "velocity": 107}, {"time": 1040, "pitch": 78, "duration": 6, "velocity": 97}, {"time": 1046, "pitch": 76, "duration": 6, "velocity": 96}, {"time": 1052, "pitch": 75, "duration": 8, "velocity": 97}, {"time": 1070, "pitch": 69, "duration": 6, "velocity": 95}, {"time": 1076, "pitch": 73, "duration": 6, "velocity": 97}, {"time": 1082, "pitch": 76, "duration": 6, "velocity": 96}, {"time": 1088, "pitch": 73, "duration": 7, "velocity": 112}, {"time": 1094, "pitch": 71, "duration": 6, "velocity": 92}, {"time": 1100, "pitch": 69, "duration": 8, "velocity": 95}, {"time": 1106, "pitch": 66, "duration": 6, "velocity": 99}, {"time": 1112, "pitch": 61, "duration": 7, "velocity": 95}, {"time": 1118, "pitch": 66, "duration": 7, "velocity": 78}, {"time": 1124, "pitch": 69, "duration": 7, "velocity": 79}, {"time": 1130, "pitch": 73, "duration": 7, "velocity": 96}, {"time": 1136, "pitch": 71, "duration": 6, "velocity": 99}, {"time": 1142, "pitch": 68, "duration": 6, "velocity": 107}, {"time": 1148, "pitch": 66, "duration": 5, "velocity": 102}, {"time": 1154, "pitch": 63, "duration": 9, "velocity": 112}, {"time": 1166, "pitch": 68, "duration": 7, "velocity": 99}, {"time": 1172, "pitch": 73, "duration": 7, "velocity": 97}, {"time": 1178, "pitch": 75, "duration": 8, "velocity": 97}, {"time": 1184, "pitch": 73, "duration": 6, "velocity": 97}, {"time": 1190, "pitch": 72, "duration": 5, "velocity": 99}, {"time": 1196, "pitch": 68, "duration": 7, "velocity": 99}, {"time": 1214, "pitch": 73, "duration": 7, "velocity": 107}, {"time": 1220, "pitch": 76, "duration": 7, "velocity": 61}, {"time": 1226, "pitch": 80, "duration": 7, "velocity": 96}, {"time": 1232, "pitch": 78, "duration": 6, "velocity": 100}, {"time": 1238, "pitch": 76, "duration": 6, "velocity": 85}, {"time": 1244, "pitch": 75, "duration": 8, "velocity": 99}, {"time": 1304, "pitch": 68, "duration": 7, "velocity": 97}, {"time": 1310, "pitch": 73, "duration": 5, "velocity": 86}, {"time": 1316, "pitch": 76, "duration": 6, "velocity": 93}, {"time": 1322, "pitch": 80, "duration": 7, "velocity": 112}, {"time": 1328, "pitch": 78, "duration": 6, "velocity": 89}, {"time": 1334, "pitch": 76, "duration": 6, "velocity": 93}, {"time": 1340, "pitch": 75, "duration": 6, "velocity": 95}, {"time": 1346, "pitch": 76, "duration": 15, "velocity": 79}, {"time": 1358, "pitch": 69, "duration": 7, "velocity": 95}, {"time": 1364, "pitch": 76, "duration": 7, "velocity": 99}, {"time": 1370, "pitch": 78, "duration": 6, "velocity": 117}, {"time": 1376, "pitch": 76, "duration": 6, "velocity": 89}, {"time": 1382, "pitch": 75, "duration": 6, "velocity": 100}, {"time": 1388, "pitch": 73, "duration": 7, "velocity": 89}, {"time": 1394, "pitch": 71, "duration": 11, "velocity": 93}, {"time": 1406, "pitch": 71, "duration": 6, "velocity": 95}, {"time": 1412, "pitch": 75, "duration": 7, "velocity": 97}, {"time": 1418, "pitch": 78, "duration": 6, "velocity": 89}, {"time": 1424, "pitch": 76, "duration": 6, "velocity": 93}, {"time": 1430, "pitch": 75, "duration": 7, "velocity": 100}, {"time": 1436, "pitch": 71, "duration": 18, "velocity": 107}, {"time": 1454, "pitch": 76, "duration": 6, "velocity": 100}, {"time": 1460, "pitch": 78, "duration": 7, "velocity": 102}, {"time": 1466, "pitch": 80, "duration": 7, "velocity": 107}, {"time": 1472, "pitch": 78, "duration": 6, "velocity": 97}, {"time": 1478, "pitch": 76, "duration": 6, "velocity": 96}, {"time": 1484, "pitch": 75, "duration": 8, "velocity": 97}, {"time": 1502, "pitch": 69, "duration": 6, "velocity": 95}, {"time": 1508, "pitch": 73, "duration": 6, "velocity": 97}, {"time": 1514, "pitch": 76, "duration": 6, "velocity": 96}, {"time": 1520, "pitch": 73, "duration": 7, "velocity": 112}, {"time": 1526, "pitch": 71, "duration": 6, "velocity": 92}, {"time": 1532, "pitch": 69, "duration": 8, "velocity": 95}, {"time": 1538, "pitch": 66, "duration": 6, "velocity": 99}, {"time": 1544, "pitch": 61, "duration": 7, "velocity": 95}, {"time": 1550, "pitch": 66, "duration": 7, "velocity": 78}, {"time": 1556, "pitch": 69, "duration": 7, "velocity": 79}, {"time": 1562, "pitch": 73, "duration": 7, "velocity": 96}, {"time": 1568, "pitch": 71, "duration": 6, "velocity": 99}, {"time": 1574, "pitch": 68, "duration": 6, "velocity": 107}, {"time": 1580, "pitch": 66, "duration": 5, "velocity": 102}, {"time": 1586, "pitch": 63, "duration": 9, "velocity": 112}, {"time": 1598, "pitch": 68, "duration": 7, "velocity": 99}, {"time": 1604, "pitch": 73, "duration": 7, "velocity": 97}, {"time": 1610, "pitch": 75, "duration": 8, "velocity": 97}, {"time": 1616, "pitch": 73, "duration": 6, "velocity": 97}, {"time": 1622, "pitch": 72, "duration": 5, "velocity": 99}, {"time": 1628, "pitch": 68, "duration": 7, "velocity": 99}, {"time": 1646, "pitch": 73, "duration": 7, "velocity": 107}, {"time": 1652, "pitch": 76, "duration": 6, "velocity": 61}, {"time": 1658, "pitch": 80, "duration": 7, "velocity": 96}, {"time": 1664, "pitch": 78, "duration": 6, "velocity": 100}, {"time": 1670, "pitch": 76, "duration": 6, "velocity": 85}, {"time": 1676, "pitch": 75, "duration": 7, "velocity": 99}, {"time": 1694, "pitch": 73, "duration": 5, "velocity": 86}, {"time": 1700, "pitch": 76, "duration": 6, "velocity": 93}, {"time": 1706, "pitch": 80, "duration": 7, "velocity": 112}, {"time": 1712, "pitch": 78, "duration": 6, "velocity": 89}, {"time": 1718, "pitch": 76, "duration": 6, "velocity": 93}, {"time": 1724, "pitch": 75, "duration": 6, "velocity": 95}, {"time": 1730, "pitch": 76, "duration": 15, "velocity": 79}, {"time": 1742, "pitch": 69, "duration": 7, "velocity": 95}, {"time": 1748, "pitch": 76, "duration": 7, "velocity": 99}, {"time": 1754, "pitch": 78, "duration": 6, "velocity": 117}, {"time": 1760, "pitch": 76, "duration": 6, "velocity": 89}, {"time": 1766, "pitch": 75, "duration": 6, "velocity": 100}, {"time": 1772, "pitch": 73, "duration": 7, "velocity": 89}, {"time": 1778, "pitch": 71, "duration": 11, "velocity": 93}, {"time": 1790, "pitch": 71, "duration": 6, "velocity": 95}, {"time": 1796, "pitch": 75, "duration": 7, "velocity": 97}, {"time": 1802, "pitch": 78, "duration": 6, "velocity": 89}, {"time": 1808, "pitch": 76, "duration": 6, "velocity": 93}, {"time": 1814, "pitch": 75, "duration": 7, "velocity": 100}, {"time": 1820, "pitch": 71, "duration": 18, "velocity": 107}, {"time": 1838, "pitch": 76, "duration": 6, "velocity": 100}, {"time": 1844, "pitch": 78, "duration": 7, "velocity": 102}, {"time": 1850, "pitch": 80, "duration": 7, "velocity": 107}, {"time": 1856, "pitch": 78, "duration": 6, "velocity": 97}, {"time": 1862, "pitch": 76, "duration": 6, "velocity": 96}, {"time": 1868, "pitch": 75, "duration": 8, "velocity": 97}, {"time": 1886, "pitch": 69, "duration": 6, "velocity": 95}, {"time": 1892, "pitch": 73, "duration": 6, "velocity": 97}, {"time": 1898, "pitch": 76, "duration": 6, "velocity": 96}, {"time": 1904, "pitch": 73, "duration": 7, "velocity": 112}, {"time": 1910, "pitch": 71, "duration": 6, "velocity": 92}, {"time": 1916, "pitch": 69, "duration": 8, "velocity": 95}, {"time": 1922, "pitch": 66, "duration": 6, "velocity": 99}, {"time": 1928, "pitch": 61, "duration": 7, "velocity": 95}, {"time": 1934, "pitch": 66, "duration": 7, "velocity": 78}, {"time": 1940, "pitch": 69, "duration": 7, "velocity": 79}, {"time": 1946, "pitch": 73, "duration": 7, "velocity": 96}, {"time": 1952, "pitch": 71, "duration": 6, "velocity": 99}, {"time": 1958, "pitch": 68, "duration": 6, "velocity": 107}, {"time": 1964, "pitch": 66, "duration": 5, "velocity": 102}, {"time": 1970, "pitch": 63, "duration": 9, "velocity": 112}, {"time": 1982, "pitch": 68, "duration": 7, "velocity": 99}, {"time": 1988, "pitch": 73, "duration": 7, "velocity": 97}, {"time": 1994, "pitch": 75, "duration": 8, "velocity": 97}, {"time": 2000, "pitch": 73, "duration": 6, "velocity": 97}, {"time": 2006, "pitch": 72, "duration": 5, "velocity": 99}, {"time": 2012, "pitch": 68, "duration": 7, "velocity": 99}, {"time": 2030, "pitch": 73, "duration": 7, "velocity": 107}, {"time": 2036, "pitch": 76, "duration": 6, "velocity": 61}, {"time": 2042, "pitch": 80, "duration": 7, "velocity": 96}, {"time": 2048, "pitch": 78, "duration": 6, "velocity": 100}, {"time": 2054, "pitch": 76, "duration": 6, "velocity": 85}, {"time": 2060, "pitch": 75, "duration": 7, "velocity": 99}, {"time": 2126, "pitch": 73, "duration": 8, "velocity": 127}, {"time": 2134, "pitch": 83, "duration": 21, "velocity": 102}, {"time": 2156, "pitch": 81, "duration": 4, "velocity": 112}, {"time": 2159, "pitch": 80, "duration": 4, "velocity": 88}, {"time": 2162, "pitch": 78, "duration": 7, "velocity": 127}, {"time": 2168, "pitch": 80, "duration": 4, "velocity": 122}, {"time": 2171, "pitch": 78, "duration": 4, "velocity": 99}, {"time": 2174, "pitch": 76, "duration": 6, "velocity": 97}, {"time": 2180, "pitch": 78, "duration": 4, "velocity": 112}, {"time": 2183, "pitch": 76, "duration": 4, "velocity": 92}, {"time": 2186, "pitch": 75, "duration": 6, "velocity": 107}, {"time": 2192, "pitch": 76, "duration": 4, "velocity": 97}, {"time": 2195, "pitch": 75, "duration": 4, "velocity": 94}, {"time": 2198, "pitch": 73, "duration": 6, "velocity": 112}, {"time": 2204, "pitch": 75, "duration": 3, "velocity": 127}, {"time": 2207, "pitch": 73, "duration": 4, "velocity": 96}, {"time": 2210, "pitch": 72, "duration": 19, "velocity": 102}, {"time": 2229, "pitch": 68, "duration": 3, "velocity": 93}, {"time": 2232, "pitch": 67, "duration": 3, "velocity": 73}, {"time": 2234, "pitch": 68, "duration": 37, "velocity": 100}, {"time": 2312, "pitch": 68, "duration": 6, "velocity": 97}, {"time": 2318, "pitch": 73, "duration": 5, "velocity": 86}, {"time": 2324, "pitch": 76, "duration": 5, "velocity": 93}, {"time": 2330, "pitch": 80, "duration": 6, "velocity": 112}, {"time": 2336, "pitch": 78, "duration": 6, "velocity": 89}, {"time": 2342, "pitch": 76, "duration": 6, "velocity": 93}, {"time": 2348, "pitch": 75, "duration": 6, "velocity": 95}, {"time": 2354, "pitch": 76, "duration": 14, "velocity": 79}, {"time": 2366, "pitch": 69, "duration": 6, "velocity": 95}, {"time": 2372, "pitch": 76, "duration": 7, "velocity": 99}, {"time": 2378, "pitch": 78, "duration": 5, "velocity": 117}, {"time": 2384, "pitch": 76, "duration": 5, "velocity": 89}, {"time": 2390, "pitch": 75, "duration": 6, "velocity": 100}, {"time": 2396, "pitch": 73, "duration": 7, "velocity": 89}, {"time": 2402, "pitch": 71, "duration": 10, "velocity": 93}, {"time": 2414, "pitch": 71, "duration": 6, "velocity": 95}, {"time": 2420, "pitch": 75, "duration": 6, "velocity": 97}, {"time": 2426, "pitch": 78, "duration": 5, "velocity": 89}, {"time": 2432, "pitch": 76, "duration": 5, "velocity": 93}, {"time": 2438, "pitch": 75, "duration": 6, "velocity": 100}, {"time": 2444, "pitch": 71, "duration": 18, "velocity": 107}, {"time": 2462, "pitch": 76, "duration": 5, "velocity": 100}, {"time": 2468, "pitch": 78, "duration": 6, "velocity": 102}, {"time": 2474, "pitch": 80, "duration": 6, "velocity": 107}, {"time": 2480, "pitch": 78, "duration": 6, "velocity": 97}, {"time": 2486, "pitch": 76, "duration": 5, "velocity": 96}, {"time": 2492, "pitch": 75, "duration": 8, "velocity": 97}, {"time": 2510, "pitch": 69, "duration": 6, "velocity": 95}, {"time": 2516, "pitch": 73, "duration": 6, "velocity": 97}, {"time": 2522, "pitch": 76, "duration": 5, "velocity": 96}, {"time": 2528, "pitch": 73, "duration": 6, "velocity": 112}, {"time": 2534, "pitch": 71, "duration": 6, "velocity": 92}, {"time": 2540, "pitch": 69, "duration": 7, "velocity": 95}, {"time": 2546, "pitch": 66, "duration": 5, "velocity": 99}, {"time": 2552, "pitch": 61, "duration": 7, "velocity": 95}, {"time": 2558, "pitch": 66, "duration": 7, "velocity": 78}, {"time": 2564, "pitch": 69, "duration": 6, "velocity": 79}, {"time": 2570, "pitch": 73, "duration": 7, "velocity": 96}, {"time": 2576, "pitch": 71, "duration": 5, "velocity": 99}, {"time": 2582, "pitch": 68, "duration": 6, "velocity": 107}, {"time": 2588, "pitch": 66, "duration": 5, "velocity": 102}, {"time": 2594, "pitch": 63, "duration": 8, "velocity": 112}, {"time": 2606, "pitch": 68, "duration": 6, "velocity": 99}, {"time": 2612, "pitch": 73, "duration": 7, "velocity": 97}, {"time": 2618, "pitch": 75, "duration": 8, "velocity": 97}, {"time": 2624, "pitch": 73, "duration": 5, "velocity": 97}, {"time": 2630, "pitch": 72, "duration": 5, "velocity": 99}, {"time": 2636, "pitch": 68, "duration": 7, "velocity": 99}, {"time": 2654, "pitch": 73, "duration": 6, "velocity": 107}, {"time": 2660, "pitch": 76, "duration": 6, "velocity": 61}, {"time": 2666, "pitch": 80, "duration": 7, "velocity": 96}, {"time": 2672, "pitch": 78, "duration": 6, "velocity": 100}, {"time": 2678, "pitch": 76, "duration": 6, "velocity": 85}, {"time": 2684, "pitch": 75, "duration": 7, "velocity": 99}, {"time": 2696, "pitch": 68, "duration": 6, "velocity": 97}, {"time": 2702, "pitch": 73, "duration": 5, "velocity": 86}, {"time": 2708, "pitch": 76, "duration": 5, "velocity": 93}, {"time": 2714, "pitch": 80, "duration": 6, "velocity": 112}, {"time": 2720, "pitch": 78, "duration": 6, "velocity": 89}, {"time": 2726, "pitch": 76, "duration": 6, "velocity": 93}, {"time": 2732, "pitch": 75, "duration": 6, "velocity": 95}, {"time": 2738, "pitch": 76, "duration": 14, "velocity": 79}, {"time": 2750, "pitch": 69, "duration": 6, "velocity": 95}, {"time": 2756, "pitch": 76, "duration": 7, "velocity": 99}, {"time": 2762, "pitch": 78, "duration": 5, "velocity": 117}, {"time": 2768, "pitch": 76, "duration": 5, "velocity": 89}, {"time": 2774, "pitch": 75, "duration": 6, "velocity": 100}, {"time": 2780, "pitch": 73, "duration": 7, "velocity": 89}, {"time": 2786, "pitch": 71, "duration": 10, "velocity": 93}, {"time": 2798, "pitch": 71, "duration": 6, "velocity": 95}, {"time": 2804, "pitch": 75, "duration": 6, "velocity": 97}, {"time": 2810, "pitch": 78, "duration": 5, "velocity": 89}, {"time": 2816, "pitch": 76, "duration": 5, "velocity": 93}, {"time": 2822, "pitch": 75, "duration": 6, "velocity": 100}, {"time": 2828, "pitch": 71, "duration": 18, "velocity": 107}, {"time": 2846, "pitch": 76, "duration": 5, "velocity": 100}, {"time": 2852, "pitch": 78, "duration": 6, "velocity": 102}, {"time": 2858, "pitch": 80, "duration": 6, "velocity": 107}, {"time": 2864, "pitch": 78, "duration": 6, "velocity": 97}, {"time": 2870, "pitch": 76, "duration": 5, "velocity": 96}, {"time": 2876, "pitch": 75, "duration": 8, "velocity": 97}, {"time": 2894, "pitch": 69, "duration": 6, "velocity": 95}, {"time": 2900, "pitch": 73, "duration": 6, "velocity": 97}, {"time": 2906, "pitch": 76, "duration": 5, "velocity": 96}, {"time": 2912, "pitch": 73, "duration": 6, "velocity": 112}, {"time": 2918, "pitch": 71, "duration": 6, "velocity": 92}, {"time": 2924, "pitch": 69, "duration": 7, "velocity": 95}, {"time": 2930, "pitch": 66, "duration": 5, "velocity": 99}, {"time": 2936, "pitch": 61, "duration": 7, "velocity": 95}, {"time": 2942, "pitch": 66, "duration": 7, "velocity": 78}, {"time": 2948, "pitch": 69, "duration": 6, "velocity": 79}, {"time": 2954, "pitch": 73, "duration": 7, "velocity": 96}, {"time": 2960, "pitch": 71, "duration": 5, "velocity": 99}, {"time": 2966, "pitch": 68, "duration": 6, "velocity": 107}, {"time": 2972, "pitch": 66, "duration": 5, "velocity": 102}, {"time": 2978, "pitch": 63, "duration": 8, "velocity": 112}, {"time": 2990, "pitch": 68, "duration": 6, "velocity": 99}, {"time": 2996, "pitch": 73, "duration": 7, "velocity": 97}, {"time": 3002, "pitch": 75, "duration": 8, "velocity": 97}, {"time": 3008, "pitch": 73, "duration": 5, "velocity": 97}, {"time": 3014, "pitch": 72, "duration": 5, "velocity": 99}, {"time": 3020, "pitch": 68, "duration": 7, "velocity": 99}, {"time": 3038, "pitch": 73, "duration": 6, "velocity": 107}, {"time": 3044, "pitch": 76, "duration": 6, "velocity": 61}, {"time": 3050, "pitch": 80, "duration": 7, "velocity": 96}, {"time": 3056, "pitch": 78, "duration": 6, "velocity": 100}, {"time": 3062, "pitch": 76, "duration": 6, "velocity": 85}, {"time": 3068, "pitch": 75, "duration": 7, "velocity": 99}, {"time": 3128, "pitch": 68, "duration": 6, "velocity": 97}, {"time": 3134, "pitch": 73, "duration": 5, "velocity": 86}, {"time": 3140, "pitch": 76, "duration": 5, "velocity": 93}, {"time": 3146, "pitch": 80, "duration": 6, "velocity": 112}, {"time": 3152, "pitch": 78, "duration": 6, "velocity": 89}, {"time": 3158, "pitch": 76, "duration": 6, "velocity": 93}, {"time": 3164, "pitch": 75, "duration": 6, "velocity": 95}, {"time": 3170, "pitch": 76, "duration": 14, "velocity": 79}, {"time": 3182, "pitch": 69, "duration": 6, "velocity": 95}, {"time": 3188, "pitch": 76, "duration": 7, "velocity": 99}, {"time": 3194, "pitch": 78, "duration": 5, "velocity": 117}, {"time": 3200, "pitch": 76, "duration": 5, "velocity": 89}, {"time": 3206, "pitch": 75, "duration": 6, "velocity": 100}, {"time": 3212, "pitch": 73, "duration": 7, "velocity": 89}, {"time": 3218, "pitch": 71, "duration": 10, "velocity": 93}, {"time": 3230, "pitch": 71, "duration": 6, "velocity": 95}, {"time": 3236, "pitch": 75, "duration": 6, "velocity": 97}, {"time": 3242, "pitch": 78, "duration": 5, "velocity": 89}, {"time": 3248, "pitch": 76, "duration": 5, "velocity": 93}, {"time": 3254, "pitch": 75, "duration": 6, "velocity": 100}, {"time": 3260, "pitch": 71, "duration": 18, "velocity": 107}, {"time": 3278, "pitch": 76, "duration": 5, "velocity": 100}, {"time": 3284, "pitch": 78, "duration": 6, "velocity": 102}, {"time": 3290, "pitch": 80, "duration": 6, "velocity": 107}, {"time": 3296, "pitch": 78, "duration": 6, "velocity": 97}, {"time": 3302, "pitch": 76, "duration": 5, "velocity": 96}, {"time": 3308, "pitch": 75, "duration": 8, "velocity": 97}, {"time": 3326, "pitch": 69, "duration": 6, "velocity": 95}, {"time": 3332, "pitch": 73, "duration": 6, "velocity": 97}, {"time": 3338, "pitch": 76, "duration": 5, "velocity": 96}, {"time": 3344, "pitch": 73, "duration": 6, "velocity": 112}, {"time": 3350, "pitch": 71, "duration": 6, "velocity": 92}, {"time": 3356, "pitch": 69, "duration": 7, "velocity": 95}, {"time": 3362, "pitch": 66, "duration": 5, "velocity": 99}, {"time": 3368, "pitch": 61, "duration": 7, "velocity": 95}, {"time": 3374, "pitch": 66, "duration": 7, "velocity": 78}, {"time": 3380, "pitch": 69, "duration": 6, "velocity": 79}, {"time": 3386, "pitch": 73, "duration": 7, "velocity": 96}, {"time": 3392, "pitch": 71, "duration": 5, "velocity": 99}, {"time": 3398, "pitch": 68, "duration": 6, "velocity": 107}, {"time": 3404, "pitch": 66, "duration": 5, "velocity": 102}, {"time": 3410, "pitch": 63, "duration": 8, "velocity": 112}, {"time": 3422, "pitch": 68, "duration": 6, "velocity": 99}, {"time": 3428, "pitch": 73, "duration": 7, "velocity": 97}, {"time": 3434, "pitch": 75, "duration": 8, "velocity": 97}, {"time": 3440, "pitch": 73, "duration": 5, "velocity": 97}, {"time": 3446, "pitch": 72, "duration": 5, "velocity": 99}, {"time": 3452, "pitch": 68, "duration": 7, "velocity": 99}, {"time": 3470, "pitch": 73, "duration": 6, "velocity": 107}, {"time": 3476, "pitch": 76, "duration": 6, "velocity": 61}, {"time": 3482, "pitch": 80, "duration": 7, "velocity": 96}, {"time": 3488, "pitch": 78, "duration": 6, "velocity": 100}, {"time": 3494, "pitch": 76, "duration": 6, "velocity": 85}, {"time": 3500, "pitch": 75, "duration": 7, "velocity": 99}, {"time": 3512, "pitch": 68, "duration": 6, "velocity": 97}, {"time": 3518, "pitch": 73, "duration": 5, "velocity": 86}, {"time": 3524, "pitch": 76, "duration": 5, "velocity": 93}, {"time": 3530, "pitch": 80, "duration": 6, "velocity": 112}, {"time": 3536, "pitch": 78, "duration": 6, "velocity": 89}, {"time": 3542, "pitch": 76, "duration": 6, "velocity": 93}, {"time": 3548, "pitch": 75, "duration": 6, "velocity": 95}, {"time": 3554, "pitch": 76, "duration": 14, "velocity": 79}, {"time": 3566, "pitch": 69, "duration": 6, "velocity": 95}, {"time": 3572, "pitch": 76, "duration": 7, "velocity": 99}, {"time": 3578, "pitch": 78, "duration": 5, "velocity": 117}, {"time": 3584, "pitch": 76, "duration": 5, "velocity": 89}, {"time": 3590, "pitch": 75, "duration": 6, "velocity": 100}, {"time": 3596, "pitch": 73, "duration": 7, "velocity": 89}, {"time": 3602, "pitch": 71, "duration": 10, "velocity": 93}, {"time": 3614, "pitch": 71, "duration": 6, "velocity": 95}, {"time": 3620, "pitch": 75, "duration": 6, "velocity": 97}, {"time": 3626, "pitch": 78, "duration": 5, "velocity": 89}, {"time": 3632, "pitch": 76, "duration": 5, "velocity": 93}, {"time": 3638, "pitch": 75, "duration": 6, "velocity": 100}, {"time": 3644, "pitch": 71, "duration": 18, "velocity": 107}, {"time": 3662, "pitch": 76, "duration": 5, "velocity": 100}, {"time": 3668, "pitch": 78, "duration": 6, "velocity": 102}, {"time": 3674, "pitch": 80, "duration": 6, "velocity": 107}, {"time": 3680, "pitch": 78, "duration": 6, "velocity": 97}, {"time": 3686, "pitch": 76, "duration": 5, "velocity": 96}, {"time": 3692, "pitch": 75, "duration": 8, "velocity": 97}, {"time": 3710, "pitch": 69, "duration": 6, "velocity": 95}, {"time": 3716, "pitch": 73, "duration": 6, "velocity": 97}, {"time": 3722, "pitch": 76, "duration": 5, "velocity": 96}, {"time": 3728, "pitch": 73, "duration": 6, "velocity": 112}, {"time": 3734, "pitch": 71, "duration": 6, "velocity": 92}, {"time": 3740, "pitch": 69, "duration": 7, "velocity": 95}, {"time": 3746, "pitch": 66, "duration": 5, "velocity": 99}, {"time": 3752, "pitch": 61, "duration": 7, "velocity": 95}, {"time": 3758, "pitch": 66, "duration": 7, "velocity": 78}, {"time": 3764, "pitch": 69, "duration": 6, "velocity": 79}, {"time": 3770, "pitch": 73, "duration": 7, "velocity": 96}, {"time": 3776, "pitch": 71, "duration": 5, "velocity": 99}, {"time": 3782, "pitch": 68, "duration": 6, "velocity": 107}, {"time": 3788, "pitch": 66, "duration": 5, "velocity": 102}, {"time": 3794, "pitch": 63, "duration": 8, "velocity": 112}, {"time": 3806, "pitch": 68, "duration": 6, "velocity": 99}, {"time": 3812, "pitch": 73, "duration": 7, "velocity": 97}, {"time": 3818, "pitch": 75, "duration": 8, "velocity": 97}, {"time": 3824, "pitch": 73, "duration": 5, "velocity": 97}, {"time": 3830, "pitch": 72, "duration": 5, "velocity": 99}, {"time": 3836, "pitch": 68, "duration": 7, "velocity": 99}, {"time": 3896, "pitch": 68, "duration": 6, "velocity": 97}, {"time": 3902, "pitch": 73, "duration": 5, "velocity": 86}, {"time": 3908, "pitch": 76, "duration": 5, "velocity": 93}, {"time": 3914, "pitch": 80, "duration": 6, "velocity": 112}, {"time": 3920, "pitch": 78, "duration": 6, "velocity": 89}, {"time": 3926, "pitch": 76, "duration": 6, "velocity": 93}, {"time": 3932, "pitch": 75, "duration": 6, "velocity": 95}, {"time": 3938, "pitch": 76, "duration": 14, "velocity": 79}, {"time": 3950, "pitch": 69, "duration": 6, "velocity": 95}, {"time": 3956, "pitch": 76, "duration": 7, "velocity": 99}, {"time": 3962, "pitch": 78, "duration": 5, "velocity": 117}, {"time": 3968, "pitch": 76, "duration": 5, "velocity": 89}, {"time": 3974, "pitch": 75, "duration": 6, "velocity": 100}, {"time": 3980, "pitch": 73, "duration": 7, "velocity": 89}, {"time": 3986, "pitch": 71, "duration": 10, "velocity": 93}, {"time": 3998, "pitch": 71, "duration": 6, "velocity": 95}, {"time": 4004, "pitch": 75, "duration": 6, "velocity": 97}, {"time": 4010, "pitch": 78, "duration": 5, "velocity": 89}, {"time": 4016, "pitch": 76, "duration": 5, "velocity": 93}, {"time": 4022, "pitch": 75, "duration": 6, "velocity": 100}, {"time": 4028, "pitch": 71, "duration": 18, "velocity": 107}, {"time": 4046, "pitch": 76, "duration": 5, "velocity": 100}, {"time": 4052, "pitch": 78, "duration": 6, "velocity": 102}, {"time": 4058, "pitch": 80, "duration": 6, "velocity": 107}, {"time": 4064, "pitch": 78, "duration": 6, "velocity": 97}, {"time": 4070, "pitch": 76, "duration": 5, "velocity": 96}, {"time": 4076, "pitch": 75, "duration": 8, "velocity": 97}, {"time": 4094, "pitch": 69, "duration": 6, "velocity": 95}, {"time": 4100, "pitch": 73, "duration": 6, "velocity": 97}, {"time": 4106, "pitch": 76, "duration": 5, "velocity": 96}, {"time": 4112, "pitch": 73, "duration": 6, "velocity": 112}, {"time": 4118, "pitch": 71, "duration": 6, "velocity": 92}, {"time": 4124, "pitch": 69, "duration": 7, "velocity": 95}, {"time": 4130, "pitch": 66, "duration": 5, "velocity": 99}, {"time": 4136, "pitch": 61, "duration": 7, "velocity": 95}, {"time": 4142, "pitch": 66, "duration": 7, "velocity": 78}, {"time": 4148, "pitch": 69, "duration": 6, "velocity": 79}, {"time": 4154, "pitch": 73, "duration": 7, "velocity": 96}, {"time": 4160, "pitch": 71, "duration": 5, "velocity": 99}, {"time": 4166, "pitch": 68, "duration": 6, "velocity": 107}, {"time": 4172, "pitch": 66, "duration": 5, "velocity": 102}, {"time": 4178, "pitch": 63, "duration": 8, "velocity": 112}, {"time": 4190, "pitch": 68, "duration": 6, "velocity": 99}, {"time": 4196, "pitch": 73, "duration": 7, "velocity": 97}, {"time": 4202, "pitch": 75, "duration": 8, "velocity": 97}, {"time": 4208, "pitch": 73, "duration": 5, "velocity": 97}, {"time": 4214, "pitch": 72, "duration": 5, "velocity": 99}, {"time": 4220, "pitch": 68, "duration": 7, "velocity": 99}, {"time": 4238, "pitch": 73, "duration": 6, "velocity": 107}, {"time": 4244, "pitch": 76, "duration": 6, "velocity": 61}, {"time": 4250, "pitch": 80, "duration": 7, "velocity": 96}, {"time": 4256, "pitch": 78, "duration": 6, "velocity": 100}, {"time": 4262, "pitch": 76, "duration": 6, "velocity": 85}, {"time": 4268, "pitch": 75, "duration": 7, "velocity": 99}, {"time": 4292, "pitch": 76, "duration": 5, "velocity": 93}, {"time": 4298, "pitch": 80, "duration": 6, "velocity": 112}, {"time": 4304, "pitch": 78, "duration": 6, "velocity": 89}, {"time": 4310, "pitch": 76, "duration": 6, "velocity": 93}, {"time": 4316, "pitch": 75, "duration": 6, "velocity": 95}, {"time": 4322, "pitch": 76, "duration": 14, "velocity": 79}, {"time": 4334, "pitch": 69, "duration": 6, "velocity": 95}, {"time": 4340, "pitch": 76, "duration": 7, "velocity": 99}, {"time": 4346, "pitch": 78, "duration": 5, "velocity": 117}, {"time": 4352, "pitch": 76, "duration": 5, "velocity": 89}, {"time": 4358, "pitch": 75, "duration": 6, "velocity": 100}, {"time": 4364, "pitch": 73, "duration": 7, "velocity": 89}, {"time": 4370, "pitch": 71, "duration": 10, "velocity": 93}, {"time": 4382, "pitch": 71, "duration": 6, "velocity": 95}, {"time": 4388, "pitch": 75, "duration": 6, "velocity": 97}, {"time": 4394, "pitch": 78, "duration": 5, "velocity": 89}, {"time": 4400, "pitch": 76, "duration": 5, "velocity": 93}, {"time": 4406, "pitch": 75, "duration": 6, "velocity": 100}, {"time": 4412, "pitch": 71, "duration": 18, "velocity": 107}, {"time": 4430, "pitch": 76, "duration": 5, "velocity": 100}, {"time": 4436, "pitch": 78, "duration": 6, "velocity": 102}, {"time": 4442, "pitch": 80, "duration": 6, "velocity": 107}, {"time": 4448, "pitch": 78, "duration": 6, "velocity": 97}, {"time": 4454, "pitch": 76, "duration": 5, "velocity": 96}, {"time": 4460, "pitch": 75, "duration": 8, "velocity": 97}, {"time": 4478, "pitch": 69, "duration": 6, "velocity": 95}, {"time": 4484, "pitch": 73, "duration": 6, "velocity": 97}, {"time": 4490, "pitch": 76, "duration": 5, "velocity": 96}, {"time": 4496, "pitch": 73, "duration": 6, "velocity": 112}, {"time": 4502, "pitch": 71, "duration": 6, "velocity": 92}, {"time": 4508, "pitch": 69, "duration": 7, "velocity": 95}, {"time": 4514, "pitch": 66, "duration": 5, "velocity": 99}, {"time": 4520, "pitch": 61, "duration": 7, "velocity": 95}, {"time": 4526, "pitch": 66, "duration": 7, "velocity": 78}, {"time": 4532, "pitch": 69, "duration": 6, "velocity": 79}, {"time": 4538, "pitch": 73, "duration": 7, "velocity": 96}, {"time": 4544, "pitch": 71, "duration": 5, "velocity": 99}, {"time": 4550, "pitch": 68, "duration": 6, "velocity": 107}, {"time": 4556, "pitch": 66, "duration": 5, "velocity": 102}, {"time": 4562, "pitch": 63, "duration": 8, "velocity": 112}, {"time": 4574, "pitch": 68, "duration": 6, "velocity": 99}, {"time": 4580, "pitch": 73, "duration": 7, "velocity": 97}, {"time": 4586, "pitch": 75, "duration": 8, "velocity": 97}, {"time": 4592, "pitch": 73, "duration": 5, "velocity": 97}, {"time": 4598, "pitch": 72, "duration": 5, "velocity": 99}, {"time": 4604, "pitch": 68, "duration": 7, "velocity": 99}, {"time": 4634, "pitch": 80, "duration": 6, "velocity": 112}, {"time": 4640, "pitch": 78, "duration": 6, "velocity": 89}, {"time": 4646, "pitch": 76, "duration": 6, "velocity": 93}, {"time": 4652, "pitch": 75, "duration": 6, "velocity": 95}, {"time": 4658, "pitch": 76, "duration": 14, "velocity": 79}, {"time": 4670, "pitch": 69, "duration": 6, "velocity": 95}, {"time": 4676, "pitch": 76, "duration": 7, "velocity": 99}, {"time": 4682, "pitch": 78, "duration": 5, "velocity": 117}, {"time": 4688, "pitch": 76, "duration": 5, "velocity": 89}, {"time": 4694, "pitch": 75, "duration": 6, "velocity": 100}, {"time": 4700, "pitch": 73, "duration": 7, "velocity": 89}, {"time": 4706, "pitch": 71, "duration": 10, "velocity": 93}, {"time": 4718, "pitch": 71, "duration": 6, "velocity": 95}, {"time": 4724, "pitch": 75, "duration": 6, "velocity": 97}, {"time": 4730, "pitch": 78, "duration": 5, "velocity": 89}, {"time": 4736, "pitch": 76, "duration": 5, "velocity": 93}, {"time": 4742, "pitch": 75, "duration": 6, "velocity": 100}, {"time": 4748, "pitch": 71, "duration": 18, "velocity": 107}, {"time": 4766, "pitch": 76, "duration": 5, "velocity": 100}, {"time": 4772, "pitch": 78, "duration": 6, "velocity": 102}, {"time": 4778, "pitch": 80, "duration": 6, "velocity": 107}, {"time": 4784, "pitch": 78, "duration": 6, "velocity": 97}, {"time": 4789, "pitch": 80, "duration": 2, "velocity": 54}, {"time": 4790, "pitch": 76, "duration": 5, "velocity": 96}, {"time": 4792, "pitch": 81, "duration": 1, "velocity": 68}, {"time": 4792, "pitch": 82, "duration": 1, "velocity": 69}, {"time": 4793, "pitch": 83, "duration": 2, "velocity": 70}, {"time": 4794, "pitch": 84, "duration": 1, "velocity": 70}, {"time": 4795, "pitch": 85, "duration": 1, "velocity": 71}, {"time": 4796, "pitch": 86, "duration": 1, "velocity": 73}, {"time": 4796, "pitch": 75, "duration": 8, "velocity": 97}, {"time": 4796, "pitch": 87, "duration": 2, "velocity": 78}, {"time": 4797, "pitch": 88, "duration": 2, "velocity": 83}, {"time": 4798, "pitch": 89, "duration": 1, "velocity": 85}, {"time": 4799, "pitch": 90, "duration": 1, "velocity": 93}, {"time": 4800, "pitch": 91, "duration": 1, "velocity": 104}, {"time": 4802, "pitch": 92, "duration": 54, "velocity": 110}, {"time": 4814, "pitch": 69, "duration": 6, "velocity": 95}, {"time": 4820, "pitch": 73, "duration": 6, "velocity": 97}, {"time": 4826, "pitch": 76, "duration": 5, "velocity": 96}, {"time": 4832, "pitch": 73, "duration": 6, "velocity": 112}, {"time": 4838, "pitch": 71, "duration": 6, "velocity": 92}, {"time": 4844, "pitch": 69, "duration": 7, "velocity": 95}, {"time": 4850, "pitch": 66, "duration": 5, "velocity": 99}, {"time": 4856, "pitch": 61, "duration": 7, "velocity": 95}, {"time": 4861, "pitch": 88, "duration": 8, "velocity": 127}, {"time": 4862, "pitch": 66, "duration": 7, "velocity": 78}, {"time": 4868, "pitch": 69, "duration": 6, "velocity": 79}, {"time": 4868, "pitch": 87, "duration": 9, "velocity": 127}, {"time": 4874, "pitch": 73, "duration": 7, "velocity": 96}, {"time": 4879, "pitch": 88, "duration": 7, "velocity": 127}, {"time": 4880, "pitch": 71, "duration": 5, "velocity": 99}, {"time": 4886, "pitch": 68, "duration": 6, "velocity": 107}, {"time": 4891, "pitch": 80, "duration": 22, "velocity": 127}, {"time": 4892, "pitch": 66, "duration": 5, "velocity": 102}, {"time": 4898, "pitch": 63, "duration": 8, "velocity": 112}, {"time": 4910, "pitch": 68, "duration": 6, "velocity": 99}, {"time": 4915, "pitch": 87, "duration": 32, "velocity": 100}, {"time": 4916, "pitch": 73, "duration": 7, "velocity": 97}, {"time": 4922, "pitch": 75, "duration": 8, "velocity": 97}, {"time": 4928, "pitch": 73, "duration": 5, "velocity": 97}, {"time": 4934, "pitch": 72, "duration": 5, "velocity": 99}, {"time": 4940, "pitch": 68, "duration": 7, "velocity": 99}], "annotations": [{"time": 86, "annotation": {"number": 64, "value": 89}, "group": "control_change"}, {"time": 122, "annotation": {"number": 64, "value": 90}, "group": "control_change"}, {"time": 134, "annotation": {"number": 64, "value": 91}, "group": "control_change"}, {"time": 170, "annotation": {"number": 64, "value": 92}, "group": "control_change"}, {"time": 182, "annotation": {"number": 64, "value": 94}, "group": "control_change"}, {"time": 194, "annotation": {"number": 64, "value": 95}, "group": "control_change"}, {"time": 206, "annotation": {"number": 64, "value": 97}, "group": "control_change"}, {"time": 230, "annotation": {"number": 64, "value": 99}, "group": "control_change"}, {"time": 242, "annotation": {"number": 64, "value": 100}, "group": "control_change"}, {"time": 254, "annotation": {"number": 64, "value": 101}, "group": "control_change"}, {"time": 266, "annotation": {"number": 64, "value": 104}, "group": "control_change"}, {"time": 278, "annotation": {"number": 64, "value": 105}, "group": "control_change"}, {"time": 302, "annotation": {"number": 64, "value": 52}, "group": "control_change"}, {"time": 314, "annotation": {"number": 64, "value": 51}, "group": "control_change"}, {"time": 326, "annotation": {"number": 64, "value": 49}, "group": "control_change"}, {"time": 338, "annotation": {"number": 64, "value": 48}, "group": "control_change"}, {"time": 350, "annotation": {"number": 64, "value": 46}, "group": "control_change"}, {"time": 362, "annotation": {"number": 64, "value": 44}, "group": "control_change"}, {"time": 374, "annotation": {"number": 64, "value": 43}, "group": "control_change"}, {"time": 398, "annotation": {"number": 64, "value": 42}, "group": "control_change"}, {"time": 578, "annotation": {"number": 64, "value": 41}, "group": "control_change"}, {"time": 590, "annotation": {"number": 64, "value": 39}, "group": "control_change"}, {"time": 602, "annotation": {"number": 64, "value": 38}, "group": "control_change"}, {"time": 614, "annotation": {"number": 64, "value": 37}, "group": "control_change"}, {"time": 626, "annotation": {"number": 64, "value": 36}, "group": "control_change"}, {"time": 674, "annotation": {"number": 64, "value": 35}, "group": "control_change"}, {"time": 722, "annotation": {"number": 64, "value": 36}, "group": "control_change"}, {"time": 734, "annotation": {"number": 64, "value": 37}, "group": "control_change"}, {"time": 746, "annotation": {"number": 64, "value": 38}, "group": "control_change"}, {"time": 770, "annotation": {"number": 64, "value": 39}, "group": "control_change"}, {"time": 782, "annotation": {"number": 64, "value": 42}, "group": "control_change"}, {"time": 794, "annotation": {"number": 64, "value": 43}, "group": "control_change"}, {"time": 806, "annotation": {"number": 64, "value": 44}, "group": "control_change"}, {"time": 818, "annotation": {"number": 64, "value": 47}, "group": "control_change"}, {"time": 830, "annotation": {"number": 64, "value": 48}, "group": "control_change"}, {"time": 842, "annotation": {"number": 64, "value": 51}, "group": "control_change"}, {"time": 854, "annotation": {"number": 64, "value": 52}, "group": "control_change"}, {"time": 866, "annotation": {"number": 64, "value": 53}, "group": "control_change"}, {"time": 878, "annotation": {"number": 64, "value": 54}, "group": "control_change"}, {"time": 890, "annotation": {"number": 64, "value": 55}, "group": "control_change"}, {"time": 902, "annotation": {"number": 64, "value": 58}, "group": "control_change"}, {"time": 914, "annotation": {"number": 64, "value": 59}, "group": "control_change"}, {"time": 926, "annotation": {"number": 64, "value": 62}, "group": "control_change"}, {"time": 950, "annotation": {"number": 64, "value": 64}, "group": "control_change"}, {"time": 962, "annotation": {"number": 64, "value": 65}, "group": "control_change"}, {"time": 962, "annotation": {"number": 64, "value": 41}, "group": "control_change"}, {"time": 974, "annotation": {"number": 64, "value": 67}, "group": "control_change"}, {"time": 974, "annotation": {"number": 64, "value": 39}, "group": "control_change"}, {"time": 986, "annotation": {"number": 64, "value": 68}, "group": "control_change"}, {"time": 986, "annotation": {"number": 64, "value": 38}, "group": "control_change"}, {"time": 998, "annotation": {"number": 64, "value": 69}, "group": "control_change"}, {"time": 998, "annotation": {"number": 64, "value": 37}, "group": "control_change"}, {"time": 1010, "annotation": {"number": 64, "value": 70}, "group": "control_change"}, {"time": 1010, "annotation": {"number": 64, "value": 36}, "group": "control_change"}, {"time": 1058, "annotation": {"number": 64, "value": 35}, "group": "control_change"}, {"time": 1106, "annotation": {"number": 64, "value": 71}, "group": "control_change"}, {"time": 1106, "annotation": {"number": 64, "value": 36}, "group": "control_change"}, {"time": 1118, "annotation": {"number": 64, "value": 37}, "group": "control_change"}, {"time": 1130, "annotation": {"number": 64, "value": 38}, "group": "control_change"}, {"time": 1154, "annotation": {"number": 64, "value": 39}, "group": "control_change"}, {"time": 1166, "annotation": {"number": 64, "value": 42}, "group": "control_change"}, {"time": 1178, "annotation": {"number": 64, "value": 43}, "group": "control_change"}, {"time": 1190, "annotation": {"number": 64, "value": 44}, "group": "control_change"}, {"time": 1202, "annotation": {"number": 64, "value": 72}, "group": "control_change"}, {"time": 1202, "annotation": {"number": 64, "value": 47}, "group": "control_change"}, {"time": 1214, "annotation": {"number": 64, "value": 73}, "group": "control_change"}, {"time": 1214, "annotation": {"number": 64, "value": 48}, "group": "control_change"}, {"time": 1226, "annotation": {"number": 64, "value": 76}, "group": "control_change"}, {"time": 1226, "annotation": {"number": 64, "value": 51}, "group": "control_change"}, {"time": 1238, "annotation": {"number": 64, "value": 81}, "group": "control_change"}, {"time": 1238, "annotation": {"number": 64, "value": 52}, "group": "control_change"}, {"time": 1250, "annotation": {"number": 64, "value": 53}, "group": "control_change"}, {"time": 1394, "annotation": {"number": 64, "value": 41}, "group": "control_change"}, {"time": 1406, "annotation": {"number": 64, "value": 39}, "group": "control_change"}, {"time": 1418, "annotation": {"number": 64, "value": 38}, "group": "control_change"}, {"time": 1430, "annotation": {"number": 64, "value": 37}, "group": "control_change"}, {"time": 1442, "annotation": {"number": 64, "value": 36}, "group": "control_change"}, {"time": 1490, "annotation": {"number": 64, "value": 35}, "group": "control_change"}, {"time": 1538, "annotation": {"number": 64, "value": 36}, "group": "control_change"}, {"time": 1550, "annotation": {"number": 64, "value": 37}, "group": "control_change"}, {"time": 1562, "annotation": {"number": 64, "value": 38}, "group": "control_change"}, {"time": 1586, "annotation": {"number": 64, "value": 39}, "group": "control_change"}, {"time": 1598, "annotation": {"number": 64, "value": 42}, "group": "control_change"}, {"time": 1610, "annotation": {"number": 64, "value": 43}, "group": "control_change"}, {"time": 1622, "annotation": {"number": 64, "value": 44}, "group": "control_change"}, {"time": 1634, "annotation": {"number": 64, "value": 47}, "group": "control_change"}, {"time": 1646, "annotation": {"number": 64, "value": 48}, "group": "control_change"}, {"time": 1658, "annotation": {"number": 64, "value": 51}, "group": "control_change"}, {"time": 1670, "annotation": {"number": 64, "value": 52}, "group": "control_change"}, {"time": 1682, "annotation": {"number": 64, "value": 53}, "group": "control_change"}, {"time": 1778, "annotation": {"number": 64, "value": 41}, "group": "control_change"}, {"time": 1790, "annotation": {"number": 64, "value": 39}, "group": "control_change"}, {"time": 1802, "annotation": {"number": 64, "value": 38}, "group": "control_change"}, {"time": 1814, "annotation": {"number": 64, "value": 37}, "group": "control_change"}, {"time": 1826, "annotation": {"number": 64, "value": 36}, "group": "control_change"}, {"time": 1874, "annotation": {"number": 64, "value": 35}, "group": "control_change"}, {"time": 1922, "annotation": {"number": 64, "value": 36}, "group": "control_change"}, {"time": 1934, "annotation": {"number": 64, "value": 37}, "group": "control_change"}, {"time": 1946, "annotation": {"number": 64, "value": 38}, "group": "control_change"}, {"time": 1970, "annotation": {"number": 64, "value": 39}, "group": "control_change"}, {"time": 1982, "annotation": {"number": 64, "value": 42}, "group": "control_change"}, {"time": 1994, "annotation": {"number": 64, "value": 43}, "group": "control_change"}, {"time": 2006, "annotation": {"number": 64, "value": 44}, "group": "control_change"}, {"time": 2018, "annotation": {"number": 64, "value": 47}, "group": "control_change"}, {"time": 2030, "annotation": {"number": 64, "value": 48}, "group": "control_change"}, {"time": 2042, "annotation": {"number": 64, "value": 51}, "group": "control_change"}, {"time": 2054, "annotation": {"number": 64, "value": 52}, "group": "control_change"}, {"time": 2066, "annotation": {"number": 64, "value": 53}, "group": "control_change"}, {"time": 2282, "annotation": {"number": 64, "value": 54}, "group": "control_change"}, {"time": 2294, "annotation": {"number": 64, "value": 53}, "group": "control_change"}, {"time": 2318, "annotation": {"number": 64, "value": 54}, "group": "control_change"}, {"time": 2330, "annotation": {"number": 64, "value": 55}, "group": "control_change"}, {"time": 2342, "annotation": {"number": 64, "value": 57}, "group": "control_change"}, {"time": 2366, "annotation": {"number": 64, "value": 58}, "group": "control_change"}, {"time": 2378, "annotation": {"number": 64, "value": 59}, "group": "control_change"}, {"time": 2390, "annotation": {"number": 64, "value": 60}, "group": "control_change"}, {"time": 2402, "annotation": {"number": 64, "value": 63}, "group": "control_change"}, {"time": 2414, "annotation": {"number": 64, "value": 64}, "group": "control_change"}, {"time": 2438, "annotation": {"number": 64, "value": 65}, "group": "control_change"}, {"time": 2498, "annotation": {"number": 64, "value": 64}, "group": "control_change"}, {"time": 2558, "annotation": {"number": 64, "value": 63}, "group": "control_change"}, {"time": 2570, "annotation": {"number": 64, "value": 53}, "group": "control_change"}, {"time": 2582, "annotation": {"number": 64, "value": 62}, "group": "control_change"}, {"time": 2594, "annotation": {"number": 64, "value": 67}, "group": "control_change"}, {"time": 2606, "annotation": {"number": 64, "value": 68}, "group": "control_change"}, {"time": 2618, "annotation": {"number": 64, "value": 69}, "group": "control_change"}, {"time": 2666, "annotation": {"number": 64, "value": 70}, "group": "control_change"}, {"time": 2690, "annotation": {"number": 64, "value": 72}, "group": "control_change"}, {"time": 2702, "annotation": {"number": 64, "value": 73}, "group": "control_change"}, {"time": 2726, "annotation": {"number": 64, "value": 74}, "group": "control_change"}, {"time": 2750, "annotation": {"number": 64, "value": 81}, "group": "control_change"}, {"time": 2786, "annotation": {"number": 64, "value": 41}, "group": "control_change"}, {"time": 2786, "annotation": {"number": 64, "value": 83}, "group": "control_change"}, {"time": 2798, "annotation": {"number": 64, "value": 39}, "group": "control_change"}, {"time": 2798, "annotation": {"number": 64, "value": 84}, "group": "control_change"}, {"time": 2810, "annotation": {"number": 64, "value": 38}, "group": "control_change"}, {"time": 2810, "annotation": {"number": 64, "value": 86}, "group": "control_change"}, {"time": 2822, "annotation": {"number": 64, "value": 37}, "group": "control_change"}, {"time": 2822, "annotation": {"number": 64, "value": 88}, "group": "control_change"}, {"time": 2834, "annotation": {"number": 64, "value": 36}, "group": "control_change"}, {"time": 2846, "annotation": {"number": 64, "value": 89}, "group": "control_change"}, {"time": 2882, "annotation": {"number": 64, "value": 35}, "group": "control_change"}, {"time": 2882, "annotation": {"number": 64, "value": 90}, "group": "control_change"}, {"time": 2894, "annotation": {"number": 64, "value": 64}, "group": "control_change"}, {"time": 2906, "annotation": {"number": 64, "value": 68}, "group": "control_change"}, {"time": 2918, "annotation": {"number": 64, "value": 67}, "group": "control_change"}, {"time": 2930, "annotation": {"number": 64, "value": 36}, "group": "control_change"}, {"time": 2942, "annotation": {"number": 64, "value": 37}, "group": "control_change"}, {"time": 2954, "annotation": {"number": 64, "value": 38}, "group": "control_change"}, {"time": 2978, "annotation": {"number": 64, "value": 39}, "group": "control_change"}, {"time": 2990, "annotation": {"number": 64, "value": 42}, "group": "control_change"}, {"time": 3002, "annotation": {"number": 64, "value": 43}, "group": "control_change"}, {"time": 3014, "annotation": {"number": 64, "value": 44}, "group": "control_change"}, {"time": 3026, "annotation": {"number": 64, "value": 47}, "group": "control_change"}, {"time": 3038, "annotation": {"number": 64, "value": 48}, "group": "control_change"}, {"time": 3050, "annotation": {"number": 64, "value": 51}, "group": "control_change"}, {"time": 3062, "annotation": {"number": 64, "value": 52}, "group": "control_change"}, {"time": 3074, "annotation": {"number": 64, "value": 53}, "group": "control_change"}, {"time": 3218, "annotation": {"number": 64, "value": 41}, "group": "control_change"}, {"time": 3230, "annotation": {"number": 64, "value": 39}, "group": "control_change"}, {"time": 3242, "annotation": {"number": 64, "value": 38}, "group": "control_change"}, {"time": 3254, "annotation": {"number": 64, "value": 37}, "group": "control_change"}, {"time": 3266, "annotation": {"number": 64, "value": 36}, "group": "control_change"}, {"time": 3314, "annotation": {"number": 64, "value": 35}, "group": "control_change"}, {"time": 3362, "annotation": {"number": 64, "value": 36}, "group": "control_change"}, {"time": 3374, "annotation": {"number": 64, "value": 37}, "group": "control_change"}, {"time": 3386, "annotation": {"number": 64, "value": 38}, "group": "control_change"}, {"time": 3410, "annotation": {"number": 64, "value": 39}, "group": "control_change"}, {"time": 3422, "annotation": {"number": 64, "value": 42}, "group": "control_change"}, {"time": 3434, "annotation": {"number": 64, "value": 43}, "group": "control_change"}, {"time": 3446, "annotation": {"number": 64, "value": 44}, "group": "control_change"}, {"time": 3458, "annotation": {"number": 64, "value": 47}, "group": "control_change"}, {"time": 3470, "annotation": {"number": 64, "value": 48}, "group": "control_change"}, {"time": 3482, "annotation": {"number": 64, "value": 51}, "group": "control_change"}, {"time": 3494, "annotation": {"number": 64, "value": 52}, "group": "control_change"}, {"time": 3506, "annotation": {"number": 64, "value": 53}, "group": "control_change"}, {"time": 3602, "annotation": {"number": 64, "value": 41}, "group": "control_change"}, {"time": 3614, "annotation": {"number": 64, "value": 39}, "group": "control_change"}, {"time": 3626, "annotation": {"number": 64, "value": 38}, "group": "control_change"}, {"time": 3638, "annotation": {"number": 64, "value": 37}, "group": "control_change"}, {"time": 3650, "annotation": {"number": 64, "value": 36}, "group": "control_change"}, {"time": 3698, "annotation": {"number": 64, "value": 35}, "group": "control_change"}, {"time": 3746, "annotation": {"number": 64, "value": 36}, "group": "control_change"}, {"time": 3758, "annotation": {"number": 64, "value": 37}, "group": "control_change"}, {"time": 3770, "annotation": {"number": 64, "value": 38}, "group": "control_change"}, {"time": 3794, "annotation": {"number": 64, "value": 39}, "group": "control_change"}, {"time": 3806, "annotation": {"number": 64, "value": 42}, "group": "control_change"}, {"time": 3818, "annotation": {"number": 64, "value": 43}, "group": "control_change"}, {"time": 3830, "annotation": {"number": 64, "value": 44}, "group": "control_change"}, {"time": 3842, "annotation": {"number": 64, "value": 47}, "group": "control_change"}, {"time": 3986, "annotation": {"number": 64, "value": 41}, "group": "control_change"}, {"time": 3998, "annotation": {"number": 64, "value": 39}, "group": "control_change"}, {"time": 4010, "annotation": {"number": 64, "value": 38}, "group": "control_change"}, {"time": 4022, "annotation": {"number": 64, "value": 37}, "group": "control_change"}, {"time": 4034, "annotation": {"number": 64, "value": 36}, "group": "control_change"}, {"time": 4082, "annotation": {"number": 64, "value": 35}, "group": "control_change"}, {"time": 4130, "annotation": {"number": 64, "value": 36}, "group": "control_change"}, {"time": 4142, "annotation": {"number": 64, "value": 37}, "group": "control_change"}, {"time": 4154, "annotation": {"number": 64, "value": 38}, "group": "control_change"}, {"time": 4178, "annotation": {"number": 64, "value": 39}, "group": "control_change"}, {"time": 4190, "annotation": {"number": 64, "value": 42}, "group": "control_change"}, {"time": 4202, "annotation": {"number": 64, "value": 43}, "group": "control_change"}, {"time": 4214, "annotation": {"number": 64, "value": 44}, "group": "control_change"}, {"time": 4226, "annotation": {"number": 64, "value": 47}, "group": "control_change"}, {"time": 4238, "annotation": {"number": 64, "value": 48}, "group": "control_change"}, {"time": 4250, "annotation": {"number": 64, "value": 51}, "group": "control_change"}, {"time": 4262, "annotation": {"number": 64, "value": 52}, "group": "control_change"}, {"time": 4274, "annotation": {"number": 64, "value": 53}, "group": "control_change"}, {"time": 4370, "annotation": {"number": 64, "value": 41}, "group": "control_change"}, {"time": 4382, "annotation": {"number": 64, "value": 39}, "group": "control_change"}, {"time": 4394, "annotation": {"number": 64, "value": 38}, "group": "control_change"}, {"time": 4406, "annotation": {"number": 64, "value": 37}, "group": "control_change"}, {"time": 4418, "annotation": {"number": 64, "value": 36}, "group": "control_change"}, {"time": 4466, "annotation": {"number": 64, "value": 35}, "group": "control_change"}, {"time": 4514, "annotation": {"number": 64, "value": 36}, "group": "control_change"}, {"time": 4526, "annotation": {"number": 64, "value": 37}, "group": "control_change"}, {"time": 4538, "annotation": {"number": 64, "value": 38}, "group": "control_change"}, {"time": 4562, "annotation": {"number": 64, "value": 39}, "group": "control_change"}, {"time": 4574, "annotation": {"number": 64, "value": 42}, "group": "control_change"}, {"time": 4586, "annotation": {"number": 64, "value": 43}, "group": "control_change"}, {"time": 4598, "annotation": {"number": 64, "value": 44}, "group": "control_change"}, {"time": 4598, "annotation": {"number": 64, "value": 57}, "group": "control_change"}, {"time": 4610, "annotation": {"number": 64, "value": 47}, "group": "control_change"}, {"time": 4610, "annotation": {"number": 64, "value": 59}, "group": "control_change"}, {"time": 4622, "annotation": {"number": 64, "value": 63}, "group": "control_change"}, {"time": 4634, "annotation": {"number": 64, "value": 67}, "group": "control_change"}, {"time": 4646, "annotation": {"number": 64, "value": 68}, "group": "control_change"}, {"time": 4682, "annotation": {"number": 64, "value": 67}, "group": "control_change"}, {"time": 4706, "annotation": {"number": 64, "value": 65}, "group": "control_change"}, {"time": 4730, "annotation": {"number": 64, "value": 64}, "group": "control_change"}, {"time": 4754, "annotation": {"number": 64, "value": 63}, "group": "control_change"}, {"time": 4802, "annotation": {"number": 64, "value": 62}, "group": "control_change"}, {"time": 4814, "annotation": {"number": 64, "value": 60}, "group": "control_change"}, {"time": 4826, "annotation": {"number": 64, "value": 59}, "group": "control_change"}, {"time": 4838, "annotation": {"number": 64, "value": 58}, "group": "control_change"}, {"time": 4862, "annotation": {"number": 64, "value": 57}, "group": "control_change"}, {"time": 4922, "annotation": {"number": 64, "value": 58}, "group": "control_change"}, {"time": 4934, "annotation": {"number": 64, "value": 59}, "group": "control_change"}, {"time": 4946, "annotation": {"number": 64, "value": 60}, "group": "control_change"}, {"time": 4982, "annotation": {"number": 64, "value": 62}, "group": "control_change"}, {"time": 4994, "annotation": {"number": 64, "value": 63}, "group": "control_change"}, {"time": 5006, "annotation": {"number": 64, "value": 64}, "group": "control_change"}]}, {"program": 0, "is_drum": false, "name": "PIANO", "notes": [{"time": 98, "pitch": 61, "duration": 48, "velocity": 77}, {"time": 104, "pitch": 68, "duration": 15, "velocity": 54}, {"time": 110, "pitch": 73, "duration": 7, "velocity": 66}, {"time": 116, "pitch": 76, "duration": 17, "velocity": 74}, {"time": 128, "pitch": 68, "duration": 14, "velocity": 58}, {"time": 134, "pitch": 76, "duration": 15, "velocity": 52}, {"time": 140, "pitch": 73, "duration": 9, "velocity": 41}, {"time": 146, "pitch": 57, "duration": 39, "velocity": 66}, {"time": 152, "pitch": 64, "duration": 20, "velocity": 59}, {"time": 158, "pitch": 69, "duration": 8, "velocity": 53}, {"time": 164, "pitch": 76, "duration": 31, "velocity": 83}, {"time": 170, "pitch": 73, "duration": 14, "velocity": 48}, {"time": 176, "pitch": 64, "duration": 7, "velocity": 51}, {"time": 182, "pitch": 69, "duration": 13, "velocity": 74}, {"time": 188, "pitch": 73, "duration": 7, "velocity": 74}, {"time": 194, "pitch": 59, "duration": 36, "velocity": 66}, {"time": 200, "pitch": 66, "duration": 19, "velocity": 82}, {"time": 206, "pitch": 71, "duration": 9, "velocity": 71}, {"time": 212, "pitch": 78, "duration": 29, "velocity": 87}, {"time": 224, "pitch": 66, "duration": 5, "velocity": 63}, {"time": 230, "pitch": 75, "duration": 11, "velocity": 90}, {"time": 236, "pitch": 71, "duration": 6, "velocity": 82}, {"time": 242, "pitch": 52, "duration": 37, "velocity": 68}, {"time": 248, "pitch": 59, "duration": 30, "velocity": 63}, {"time": 254, "pitch": 64, "duration": 7, "velocity": 78}, {"time": 260, "pitch": 71, "duration": 31, "velocity": 87}, {"time": 266, "pitch": 68, "duration": 14, "velocity": 92}, {"time": 272, "pitch": 66, "duration": 9, "velocity": 83}, {"time": 278, "pitch": 64, "duration": 12, "velocity": 79}, {"time": 284, "pitch": 66, "duration": 7, "velocity": 67}, {"time": 290, "pitch": 57, "duration": 38, "velocity": 62}, {"time": 296, "pitch": 64, "duration": 28, "velocity": 72}, {"time": 302, "pitch": 69, "duration": 14, "velocity": 89}, {"time": 308, "pitch": 71, "duration": 6, "velocity": 69}, {"time": 314, "pitch": 73, "duration": 6, "velocity": 97}, {"time": 320, "pitch": 76, "duration": 16, "velocity": 93}, {"time": 326, "pitch": 73, "duration": 10, "velocity": 101}, {"time": 332, "pitch": 71, "duration": 6, "velocity": 88}, {"time": 338, "pitch": 54, "duration": 34, "velocity": 49}, {"time": 344, "pitch": 66, "duration": 16, "velocity": 74}, {"time": 350, "pitch": 69, "duration": 7, "velocity": 62}, {"time": 356, "pitch": 73, "duration": 20, "velocity": 90}, {"time": 362, "pitch": 61, "duration": 10, "velocity": 57}, {"time": 368, "pitch": 66, "duration": 18, "velocity": 66}, {"time": 374, "pitch": 68, "duration": 10, "velocity": 89}, {"time": 380, "pitch": 73, "duration": 6, "velocity": 55}, {"time": 386, "pitch": 56, "duration": 36, "velocity": 83}, {"time": 392, "pitch": 60, "duration": 28, "velocity": 66}, {"time": 398, "pitch": 63, "duration": 15, "velocity": 71}, {"time": 404, "pitch": 68, "duration": 10, "velocity": 75}, {"time": 410, "pitch": 75, "duration": 24, "velocity": 74}, {"time": 416, "pitch": 63, "duration": 4, "velocity": 68}, {"time": 422, "pitch": 72, "duration": 10, "velocity": 71}, {"time": 428, "pitch": 68, "duration": 7, "velocity": 75}, {"time": 434, "pitch": 49, "duration": 49, "velocity": 81}, {"time": 440, "pitch": 56, "duration": 41, "velocity": 35}, {"time": 446, "pitch": 61, "duration": 36, "velocity": 79}, {"time": 452, "pitch": 64, "duration": 7, "velocity": 59}, {"time": 458, "pitch": 68, "duration": 24, "velocity": 56}, {"time": 482, "pitch": 49, "duration": 1, "velocity": 71}, {"time": 482, "pitch": 61, "duration": 14, "velocity": 82}, {"time": 482, "pitch": 64, "duration": 9, "velocity": 58}, {"time": 482, "pitch": 68, "duration": 10, "velocity": 70}, {"time": 494, "pitch": 56, "duration": 11, "velocity": 39}, {"time": 500, "pitch": 61, "duration": 14, "velocity": 86}, {"time": 500, "pitch": 64, "duration": 13, "velocity": 85}, {"time": 500, "pitch": 68, "duration": 15, "velocity": 92}, {"time": 512, "pitch": 56, "duration": 6, "velocity": 59}, {"time": 518, "pitch": 61, "duration": 5, "velocity": 82}, {"time": 518, "pitch": 64, "duration": 3, "velocity": 62}, {"time": 518, "pitch": 68, "duration": 4, "velocity": 82}, {"time": 530, "pitch": 45, "duration": 37, "velocity": 66}, {"time": 530, "pitch": 57, "duration": 13, "velocity": 85}, {"time": 530, "pitch": 61, "duration": 13, "velocity": 81}, {"time": 530, "pitch": 64, "duration": 13, "velocity": 73}, {"time": 542, "pitch": 52, "duration": 11, "velocity": 57}, {"time": 548, "pitch": 57, "duration": 15, "velocity": 81}, {"time": 548, "pitch": 61, "duration": 16, "velocity": 90}, {"time": 548, "pitch": 64, "duration": 16, "velocity": 73}, {"time": 560, "pitch": 52, "duration": 9, "velocity": 45}, {"time": 566, "pitch": 57, "duration": 6, "velocity": 72}, {"time": 566, "pitch": 61, "duration": 5, "velocity": 60}, {"time": 566, "pitch": 64, "duration": 4, "velocity": 61}, {"time": 578, "pitch": 47, "duration": 42, "velocity": 65}, {"time": 578, "pitch": 59, "duration": 14, "velocity": 83}, {"time": 578, "pitch": 63, "duration": 14, "velocity": 92}, {"time": 578, "pitch": 66, "duration": 13, "velocity": 77}, {"time": 590, "pitch": 54, "duration": 12, "velocity": 45}, {"time": 596, "pitch": 59, "duration": 15, "velocity": 73}, {"time": 596, "pitch": 63, "duration": 15, "velocity": 99}, {"time": 596, "pitch": 66, "duration": 15, "velocity": 82}, {"time": 608, "pitch": 54, "duration": 8, "velocity": 66}, {"time": 614, "pitch": 63, "duration": 6, "velocity": 112}, {"time": 614, "pitch": 66, "duration": 6, "velocity": 95}, {"time": 626, "pitch": 52, "duration": 34, "velocity": 68}, {"time": 626, "pitch": 59, "duration": 15, "velocity": 83}, {"time": 626, "pitch": 64, "duration": 16, "velocity": 76}, {"time": 626, "pitch": 68, "duration": 15, "velocity": 77}, {"time": 644, "pitch": 59, "duration": 9, "velocity": 83}, {"time": 644, "pitch": 64, "duration": 9, "velocity": 92}, {"time": 644, "pitch": 68, "duration": 9, "velocity": 95}, {"time": 656, "pitch": 59, "duration": 13, "velocity": 83}, {"time": 656, "pitch": 64, "duration": 9, "velocity": 92}, {"time": 656, "pitch": 68, "duration": 8, "velocity": 92}, {"time": 662, "pitch": 52, "duration": 11, "velocity": 78}, {"time": 674, "pitch": 45, "duration": 37, "velocity": 61}, {"time": 674, "pitch": 57, "duration": 13, "velocity": 88}, {"time": 674, "pitch": 61, "duration": 14, "velocity": 95}, {"time": 674, "pitch": 64, "duration": 13, "velocity": 81}, {"time": 686, "pitch": 52, "duration": 15, "velocity": 36}, {"time": 692, "pitch": 57, "duration": 15, "velocity": 89}, {"time": 692, "pitch": 61, "duration": 16, "velocity": 97}, {"time": 692, "pitch": 64, "duration": 16, "velocity": 85}, {"time": 704, "pitch": 52, "duration": 6, "velocity": 66}, {"time": 710, "pitch": 61, "duration": 6, "velocity": 122}, {"time": 710, "pitch": 64, "duration": 6, "velocity": 88}, {"time": 722, "pitch": 42, "duration": 38, "velocity": 89}, {"time": 722, "pitch": 57, "duration": 14, "velocity": 92}, {"time": 722, "pitch": 61, "duration": 13, "velocity": 95}, {"time": 734, "pitch": 54, "duration": 10, "velocity": 48}, {"time": 740, "pitch": 57, "duration": 15, "velocity": 86}, {"time": 740, "pitch": 61, "duration": 15, "velocity": 96}, {"time": 740, "pitch": 66, "duration": 15, "velocity": 86}, {"time": 752, "pitch": 54, "duration": 10, "velocity": 56}, {"time": 758, "pitch": 57, "duration": 5, "velocity": 97}, {"time": 758, "pitch": 61, "duration": 2, "velocity": 95}, {"time": 758, "pitch": 66, "duration": 2, "velocity": 76}, {"time": 770, "pitch": 44, "duration": 38, "velocity": 93}, {"time": 770, "pitch": 56, "duration": 14, "velocity": 92}, {"time": 770, "pitch": 60, "duration": 15, "velocity": 96}, {"time": 770, "pitch": 63, "duration": 15, "velocity": 79}, {"time": 782, "pitch": 51, "duration": 10, "velocity": 35}, {"time": 788, "pitch": 56, "duration": 9, "velocity": 89}, {"time": 788, "pitch": 60, "duration": 9, "velocity": 96}, {"time": 788, "pitch": 63, "duration": 9, "velocity": 90}, {"time": 794, "pitch": 51, "duration": 5, "velocity": 37}, {"time": 800, "pitch": 56, "duration": 7, "velocity": 86}, {"time": 800, "pitch": 60, "duration": 7, "velocity": 90}, {"time": 800, "pitch": 63, "duration": 8, "velocity": 88}, {"time": 806, "pitch": 51, "duration": 2, "velocity": 72}, {"time": 818, "pitch": 49, "duration": 36, "velocity": 50}, {"time": 818, "pitch": 56, "duration": 22, "velocity": 92}, {"time": 818, "pitch": 61, "duration": 16, "velocity": 97}, {"time": 818, "pitch": 64, "duration": 15, "velocity": 83}, {"time": 818, "pitch": 68, "duration": 15, "velocity": 92}, {"time": 836, "pitch": 61, "duration": 10, "velocity": 90}, {"time": 836, "pitch": 64, "duration": 9, "velocity": 73}, {"time": 836, "pitch": 68, "duration": 9, "velocity": 74}, {"time": 842, "pitch": 56, "duration": 8, "velocity": 38}, {"time": 848, "pitch": 61, "duration": 13, "velocity": 96}, {"time": 848, "pitch": 64, "duration": 9, "velocity": 85}, {"time": 848, "pitch": 68, "duration": 9, "velocity": 89}, {"time": 854, "pitch": 49, "duration": 2, "velocity": 42}, {"time": 854, "pitch": 56, "duration": 4, "velocity": 107}, {"time": 866, "pitch": 49, "duration": 37, "velocity": 55}, {"time": 866, "pitch": 56, "duration": 21, "velocity": 69}, {"time": 866, "pitch": 61, "duration": 15, "velocity": 99}, {"time": 866, "pitch": 64, "duration": 14, "velocity": 86}, {"time": 866, "pitch": 68, "duration": 15, "velocity": 92}, {"time": 884, "pitch": 61, "duration": 9, "velocity": 99}, {"time": 884, "pitch": 64, "duration": 9, "velocity": 95}, {"time": 884, "pitch": 68, "duration": 9, "velocity": 99}, {"time": 890, "pitch": 56, "duration": 8, "velocity": 33}, {"time": 896, "pitch": 61, "duration": 8, "velocity": 95}, {"time": 896, "pitch": 64, "duration": 6, "velocity": 89}, {"time": 896, "pitch": 68, "duration": 7, "velocity": 102}, {"time": 902, "pitch": 56, "duration": 2, "velocity": 95}, {"time": 914, "pitch": 45, "duration": 38, "velocity": 66}, {"time": 914, "pitch": 57, "duration": 14, "velocity": 85}, {"time": 914, "pitch": 61, "duration": 14, "velocity": 83}, {"time": 914, "pitch": 64, "duration": 14, "velocity": 82}, {"time": 926, "pitch": 52, "duration": 10, "velocity": 66}, {"time": 932, "pitch": 57, "duration": 14, "velocity": 93}, {"time": 932, "pitch": 61, "duration": 15, "velocity": 97}, {"time": 932, "pitch": 64, "duration": 15, "velocity": 90}, {"time": 944, "pitch": 52, "duration": 10, "velocity": 77}, {"time": 950, "pitch": 57, "duration": 8, "velocity": 89}, {"time": 950, "pitch": 61, "duration": 10, "velocity": 102}, {"time": 950, "pitch": 64, "duration": 4, "velocity": 88}, {"time": 962, "pitch": 47, "duration": 38, "velocity": 70}, {"time": 962, "pitch": 59, "duration": 14, "velocity": 83}, {"time": 962, "pitch": 63, "duration": 14, "velocity": 102}, {"time": 962, "pitch": 66, "duration": 13, "velocity": 92}, {"time": 974, "pitch": 54, "duration": 12, "velocity": 74}, {"time": 980, "pitch": 59, "duration": 14, "velocity": 74}, {"time": 980, "pitch": 63, "duration": 15, "velocity": 97}, {"time": 980, "pitch": 66, "duration": 15, "velocity": 81}, {"time": 992, "pitch": 54, "duration": 7, "velocity": 89}, {"time": 998, "pitch": 63, "duration": 6, "velocity": 122}, {"time": 998, "pitch": 66, "duration": 6, "velocity": 100}, {"time": 1004, "pitch": 59, "duration": 4, "velocity": 57}, {"time": 1010, "pitch": 40, "duration": 38, "velocity": 73}, {"time": 1010, "pitch": 59, "duration": 14, "velocity": 86}, {"time": 1010, "pitch": 64, "duration": 15, "velocity": 88}, {"time": 1010, "pitch": 68, "duration": 14, "velocity": 92}, {"time": 1022, "pitch": 47, "duration": 27, "velocity": 44}, {"time": 1028, "pitch": 59, "duration": 13, "velocity": 88}, {"time": 1028, "pitch": 64, "duration": 14, "velocity": 88}, {"time": 1028, "pitch": 68, "duration": 14, "velocity": 90}, {"time": 1040, "pitch": 52, "duration": 17, "velocity": 90}, {"time": 1046, "pitch": 64, "duration": 6, "velocity": 96}, {"time": 1046, "pitch": 68, "duration": 6, "velocity": 95}, {"time": 1052, "pitch": 59, "duration": 8, "velocity": 97}, {"time": 1058, "pitch": 45, "duration": 37, "velocity": 71}, {"time": 1058, "pitch": 61, "duration": 15, "velocity": 112}, {"time": 1058, "pitch": 64, "duration": 14, "velocity": 82}, {"time": 1070, "pitch": 52, "duration": 11, "velocity": 65}, {"time": 1076, "pitch": 57, "duration": 13, "velocity": 97}, {"time": 1076, "pitch": 61, "duration": 14, "velocity": 99}, {"time": 1076, "pitch": 64, "duration": 13, "velocity": 85}, {"time": 1088, "pitch": 52, "duration": 7, "velocity": 72}, {"time": 1094, "pitch": 61, "duration": 10, "velocity": 127}, {"time": 1094, "pitch": 64, "duration": 9, "velocity": 93}, {"time": 1106, "pitch": 42, "duration": 40, "velocity": 82}, {"time": 1106, "pitch": 57, "duration": 14, "velocity": 89}, {"time": 1106, "pitch": 61, "duration": 7, "velocity": 89}, {"time": 1118, "pitch": 54, "duration": 13, "velocity": 85}, {"time": 1124, "pitch": 57, "duration": 9, "velocity": 83}, {"time": 1124, "pitch": 61, "duration": 8, "velocity": 89}, {"time": 1124, "pitch": 66, "duration": 9, "velocity": 88}, {"time": 1136, "pitch": 54, "duration": 5, "velocity": 23}, {"time": 1136, "pitch": 57, "duration": 10, "velocity": 85}, {"time": 1136, "pitch": 61, "duration": 6, "velocity": 97}, {"time": 1136, "pitch": 66, "duration": 8, "velocity": 93}, {"time": 1142, "pitch": 54, "duration": 10, "velocity": 82}, {"time": 1154, "pitch": 44, "duration": 39, "velocity": 83}, {"time": 1154, "pitch": 56, "duration": 14, "velocity": 92}, {"time": 1154, "pitch": 60, "duration": 13, "velocity": 89}, {"time": 1154, "pitch": 63, "duration": 13, "velocity": 100}, {"time": 1166, "pitch": 51, "duration": 21, "velocity": 67}, {"time": 1172, "pitch": 56, "duration": 9, "velocity": 95}, {"time": 1172, "pitch": 60, "duration": 9, "velocity": 102}, {"time": 1172, "pitch": 63, "duration": 9, "velocity": 99}, {"time": 1184, "pitch": 56, "duration": 13, "velocity": 86}, {"time": 1184, "pitch": 60, "duration": 8, "velocity": 97}, {"time": 1184, "pitch": 63, "duration": 9, "velocity": 93}, {"time": 1190, "pitch": 51, "duration": 8, "velocity": 93}, {"time": 1202, "pitch": 44, "duration": 34, "velocity": 100}, {"time": 1202, "pitch": 51, "duration": 11, "velocity": 90}, {"time": 1202, "pitch": 56, "duration": 14, "velocity": 100}, {"time": 1202, "pitch": 60, "duration": 12, "velocity": 99}, {"time": 1202, "pitch": 63, "duration": 13, "velocity": 102}, {"time": 1214, "pitch": 51, "duration": 10, "velocity": 68}, {"time": 1220, "pitch": 56, "duration": 9, "velocity": 97}, {"time": 1220, "pitch": 60, "duration": 8, "velocity": 100}, {"time": 1220, "pitch": 63, "duration": 8, "velocity": 99}, {"time": 1226, "pitch": 51, "duration": 9, "velocity": 44}, {"time": 1232, "pitch": 56, "duration": 9, "velocity": 92}, {"time": 1232, "pitch": 60, "duration": 9, "velocity": 92}, {"time": 1232, "pitch": 63, "duration": 13, "velocity": 89}, {"time": 1238, "pitch": 44, "duration": 9, "velocity": 96}, {"time": 1238, "pitch": 51, "duration": 9, "velocity": 82}, {"time": 1244, "pitch": 56, "duration": 4, "velocity": 90}, {"time": 1250, "pitch": 44, "duration": 35, "velocity": 95}, {"time": 1250, "pitch": 51, "duration": 35, "velocity": 92}, {"time": 1250, "pitch": 56, "duration": 35, "velocity": 96}, {"time": 1250, "pitch": 60, "duration": 34, "velocity": 97}, {"time": 1250, "pitch": 63, "duration": 36, "velocity": 93}, {"time": 1298, "pitch": 49, "duration": 36, "velocity": 66}, {"time": 1298, "pitch": 56, "duration": 10, "velocity": 68}, {"time": 1298, "pitch": 61, "duration": 13, "velocity": 97}, {"time": 1298, "pitch": 64, "duration": 13, "velocity": 86}, {"time": 1298, "pitch": 68, "duration": 13, "velocity": 97}, {"time": 1310, "pitch": 56, "duration": 9, "velocity": 51}, {"time": 1316, "pitch": 61, "duration": 9, "velocity": 96}, {"time": 1316, "pitch": 64, "duration": 3, "velocity": 89}, {"time": 1316, "pitch": 68, "duration": 9, "velocity": 102}, {"time": 1322, "pitch": 56, "duration": 8, "velocity": 47}, {"time": 1328, "pitch": 61, "duration": 8, "velocity": 99}, {"time": 1328, "pitch": 64, "duration": 6, "velocity": 96}, {"time": 1328, "pitch": 68, "duration": 7, "velocity": 112}, {"time": 1334, "pitch": 56, "duration": 2, "velocity": 99}, {"time": 1346, "pitch": 45, "duration": 44, "velocity": 68}, {"time": 1346, "pitch": 57, "duration": 14, "velocity": 92}, {"time": 1346, "pitch": 61, "duration": 14, "velocity": 96}, {"time": 1346, "pitch": 64, "duration": 14, "velocity": 86}, {"time": 1358, "pitch": 52, "duration": 10, "velocity": 48}, {"time": 1364, "pitch": 57, "duration": 8, "velocity": 86}, {"time": 1364, "pitch": 61, "duration": 8, "velocity": 97}, {"time": 1364, "pitch": 64, "duration": 8, "velocity": 86}, {"time": 1370, "pitch": 52, "duration": 9, "velocity": 37}, {"time": 1376, "pitch": 57, "duration": 10, "velocity": 88}, {"time": 1376, "pitch": 61, "duration": 9, "velocity": 107}, {"time": 1376, "pitch": 64, "duration": 10, "velocity": 88}, {"time": 1382, "pitch": 52, "duration": 12, "velocity": 61}, {"time": 1388, "pitch": 57, "duration": 3, "velocity": 76}, {"time": 1388, "pitch": 61, "duration": 5, "velocity": 86}, {"time": 1388, "pitch": 64, "duration": 2, "velocity": 57}, {"time": 1394, "pitch": 47, "duration": 37, "velocity": 72}, {"time": 1394, "pitch": 59, "duration": 14, "velocity": 76}, {"time": 1394, "pitch": 63, "duration": 14, "velocity": 102}, {"time": 1394, "pitch": 66, "duration": 14, "velocity": 95}, {"time": 1406, "pitch": 54, "duration": 11, "velocity": 59}, {"time": 1412, "pitch": 59, "duration": 9, "velocity": 85}, {"time": 1412, "pitch": 63, "duration": 9, "velocity": 122}, {"time": 1412, "pitch": 66, "duration": 9, "velocity": 102}, {"time": 1424, "pitch": 59, "duration": 9, "velocity": 78}, {"time": 1424, "pitch": 63, "duration": 9, "velocity": 107}, {"time": 1424, "pitch": 66, "duration": 10, "velocity": 102}, {"time": 1430, "pitch": 54, "duration": 2, "velocity": 71}, {"time": 1436, "pitch": 59, "duration": 3, "velocity": 86}, {"time": 1436, "pitch": 63, "duration": 3, "velocity": 112}, {"time": 1436, "pitch": 66, "duration": 2, "velocity": 88}, {"time": 1442, "pitch": 40, "duration": 36, "velocity": 69}, {"time": 1442, "pitch": 59, "duration": 14, "velocity": 86}, {"time": 1442, "pitch": 64, "duration": 14, "velocity": 92}, {"time": 1442, "pitch": 68, "duration": 14, "velocity": 97}, {"time": 1454, "pitch": 47, "duration": 10, "velocity": 42}, {"time": 1460, "pitch": 59, "duration": 9, "velocity": 90}, {"time": 1460, "pitch": 64, "duration": 9, "velocity": 97}, {"time": 1460, "pitch": 68, "duration": 9, "velocity": 97}, {"time": 1472, "pitch": 59, "duration": 13, "velocity": 81}, {"time": 1472, "pitch": 64, "duration": 8, "velocity": 89}, {"time": 1472, "pitch": 68, "duration": 9, "velocity": 93}, {"time": 1478, "pitch": 47, "duration": 2, "velocity": 82}, {"time": 1490, "pitch": 45, "duration": 38, "velocity": 72}, {"time": 1490, "pitch": 57, "duration": 14, "velocity": 90}, {"time": 1490, "pitch": 61, "duration": 14, "velocity": 99}, {"time": 1490, "pitch": 64, "duration": 14, "velocity": 79}, {"time": 1502, "pitch": 52, "duration": 10, "velocity": 53}, {"time": 1508, "pitch": 57, "duration": 9, "velocity": 86}, {"time": 1508, "pitch": 61, "duration": 9, "velocity": 99}, {"time": 1508, "pitch": 64, "duration": 9, "velocity": 82}, {"time": 1520, "pitch": 57, "duration": 9, "velocity": 92}, {"time": 1520, "pitch": 61, "duration": 7, "velocity": 122}, {"time": 1520, "pitch": 64, "duration": 8, "velocity": 93}, {"time": 1526, "pitch": 52, "duration": 2, "velocity": 75}, {"time": 1538, "pitch": 42, "duration": 39, "velocity": 81}, {"time": 1538, "pitch": 57, "duration": 14, "velocity": 96}, {"time": 1538, "pitch": 61, "duration": 13, "velocity": 100}, {"time": 1538, "pitch": 66, "duration": 13, "velocity": 95}, {"time": 1550, "pitch": 54, "duration": 21, "velocity": 74}, {"time": 1556, "pitch": 57, "duration": 8, "velocity": 88}, {"time": 1556, "pitch": 61, "duration": 8, "velocity": 102}, {"time": 1556, "pitch": 66, "duration": 8, "velocity": 99}, {"time": 1568, "pitch": 57, "duration": 11, "velocity": 90}, {"time": 1568, "pitch": 61, "duration": 6, "velocity": 112}, {"time": 1568, "pitch": 66, "duration": 7, "velocity": 97}, {"time": 1574, "pitch": 54, "duration": 10, "velocity": 89}, {"time": 1586, "pitch": 44, "duration": 45, "velocity": 72}, {"time": 1586, "pitch": 56, "duration": 15, "velocity": 90}, {"time": 1586, "pitch": 60, "duration": 14, "velocity": 97}, {"time": 1586, "pitch": 63, "duration": 14, "velocity": 97}, {"time": 1604, "pitch": 56, "duration": 10, "velocity": 93}, {"time": 1604, "pitch": 60, "duration": 4, "velocity": 96}, {"time": 1604, "pitch": 63, "duration": 10, "velocity": 90}, {"time": 1616, "pitch": 56, "duration": 14, "velocity": 100}, {"time": 1616, "pitch": 63, "duration": 10, "velocity": 102}, {"time": 1622, "pitch": 54, "duration": 7, "velocity": 86}, {"time": 1634, "pitch": 44, "duration": 34, "velocity": 86}, {"time": 1634, "pitch": 54, "duration": 11, "velocity": 73}, {"time": 1634, "pitch": 56, "duration": 14, "velocity": 99}, {"time": 1634, "pitch": 63, "duration": 14, "velocity": 96}, {"time": 1646, "pitch": 54, "duration": 8, "velocity": 72}, {"time": 1652, "pitch": 56, "duration": 8, "velocity": 97}, {"time": 1652, "pitch": 60, "duration": 8, "velocity": 97}, {"time": 1652, "pitch": 63, "duration": 8, "velocity": 96}, {"time": 1658, "pitch": 54, "duration": 10, "velocity": 76}, {"time": 1664, "pitch": 56, "duration": 7, "velocity": 97}, {"time": 1664, "pitch": 60, "duration": 7, "velocity": 102}, {"time": 1664, "pitch": 63, "duration": 8, "velocity": 99}, {"time": 1670, "pitch": 44, "duration": 2, "velocity": 35}, {"time": 1670, "pitch": 54, "duration": 4, "velocity": 102}, {"time": 1682, "pitch": 49, "duration": 37, "velocity": 92}, {"time": 1682, "pitch": 61, "duration": 14, "velocity": 107}, {"time": 1682, "pitch": 64, "duration": 10, "velocity": 96}, {"time": 1682, "pitch": 68, "duration": 13, "velocity": 102}, {"time": 1694, "pitch": 56, "duration": 22, "velocity": 55}, {"time": 1700, "pitch": 61, "duration": 8, "velocity": 95}, {"time": 1700, "pitch": 64, "duration": 2, "velocity": 89}, {"time": 1700, "pitch": 68, "duration": 8, "velocity": 96}, {"time": 1712, "pitch": 61, "duration": 8, "velocity": 99}, {"time": 1712, "pitch": 64, "duration": 6, "velocity": 96}, {"time": 1712, "pitch": 68, "duration": 7, "velocity": 117}, {"time": 1718, "pitch": 56, "duration": 2, "velocity": 100}, {"time": 1730, "pitch": 45, "duration": 43, "velocity": 70}, {"time": 1730, "pitch": 57, "duration": 13, "velocity": 100}, {"time": 1730, "pitch": 61, "duration": 14, "velocity": 100}, {"time": 1730, "pitch": 64, "duration": 13, "velocity": 86}, {"time": 1742, "pitch": 52, "duration": 21, "velocity": 55}, {"time": 1748, "pitch": 57, "duration": 8, "velocity": 86}, {"time": 1748, "pitch": 61, "duration": 8, "velocity": 97}, {"time": 1748, "pitch": 64, "duration": 8, "velocity": 83}, {"time": 1760, "pitch": 57, "duration": 10, "velocity": 88}, {"time": 1760, "pitch": 61, "duration": 9, "velocity": 107}, {"time": 1760, "pitch": 64, "duration": 9, "velocity": 88}, {"time": 1766, "pitch": 52, "duration": 13, "velocity": 61}, {"time": 1772, "pitch": 57, "duration": 4, "velocity": 81}, {"time": 1772, "pitch": 61, "duration": 4, "velocity": 96}, {"time": 1772, "pitch": 64, "duration": 2, "velocity": 69}, {"time": 1778, "pitch": 47, "duration": 37, "velocity": 70}, {"time": 1778, "pitch": 59, "duration": 14, "velocity": 81}, {"time": 1778, "pitch": 63, "duration": 13, "velocity": 112}, {"time": 1778, "pitch": 66, "duration": 13, "velocity": 102}, {"time": 1790, "pitch": 54, "duration": 21, "velocity": 53}, {"time": 1796, "pitch": 59, "duration": 8, "velocity": 81}, {"time": 1796, "pitch": 63, "duration": 9, "velocity": 122}, {"time": 1796, "pitch": 66, "duration": 9, "velocity": 112}, {"time": 1808, "pitch": 59, "duration": 10, "velocity": 78}, {"time": 1808, "pitch": 63, "duration": 7, "velocity": 127}, {"time": 1808, "pitch": 66, "duration": 8, "velocity": 117}, {"time": 1814, "pitch": 54, "duration": 2, "velocity": 89}, {"time": 1826, "pitch": 40, "duration": 37, "velocity": 68}, {"time": 1826, "pitch": 52, "duration": 14, "velocity": 93}, {"time": 1826, "pitch": 56, "duration": 14, "velocity": 97}, {"time": 1826, "pitch": 59, "duration": 15, "velocity": 92}, {"time": 1838, "pitch": 47, "duration": 9, "velocity": 75}, {"time": 1844, "pitch": 52, "duration": 8, "velocity": 85}, {"time": 1844, "pitch": 56, "duration": 9, "velocity": 96}, {"time": 1844, "pitch": 59, "duration": 9, "velocity": 89}, {"time": 1856, "pitch": 52, "duration": 6, "velocity": 85}, {"time": 1856, "pitch": 56, "duration": 6, "velocity": 97}, {"time": 1856, "pitch": 59, "duration": 6, "velocity": 89}, {"time": 1862, "pitch": 47, "duration": 2, "velocity": 69}, {"time": 1874, "pitch": 45, "duration": 39, "velocity": 70}, {"time": 1874, "pitch": 57, "duration": 13, "velocity": 93}, {"time": 1874, "pitch": 61, "duration": 14, "velocity": 107}, {"time": 1874, "pitch": 64, "duration": 14, "velocity": 89}, {"time": 1886, "pitch": 52, "duration": 10, "velocity": 47}, {"time": 1892, "pitch": 57, "duration": 8, "velocity": 92}, {"time": 1892, "pitch": 61, "duration": 9, "velocity": 112}, {"time": 1892, "pitch": 64, "duration": 8, "velocity": 90}, {"time": 1898, "pitch": 52, "duration": 7, "velocity": 25}, {"time": 1904, "pitch": 57, "duration": 9, "velocity": 92}, {"time": 1904, "pitch": 61, "duration": 8, "velocity": 127}, {"time": 1904, "pitch": 64, "duration": 9, "velocity": 93}, {"time": 1910, "pitch": 52, "duration": 2, "velocity": 68}, {"time": 1916, "pitch": 57, "duration": 4, "velocity": 86}, {"time": 1922, "pitch": 42, "duration": 39, "velocity": 93}, {"time": 1922, "pitch": 57, "duration": 13, "velocity": 92}, {"time": 1922, "pitch": 61, "duration": 13, "velocity": 112}, {"time": 1922, "pitch": 66, "duration": 14, "velocity": 96}, {"time": 1934, "pitch": 54, "duration": 7, "velocity": 92}, {"time": 1940, "pitch": 57, "duration": 8, "velocity": 95}, {"time": 1940, "pitch": 61, "duration": 8, "velocity": 117}, {"time": 1940, "pitch": 66, "duration": 8, "velocity": 99}, {"time": 1952, "pitch": 57, "duration": 11, "velocity": 96}, {"time": 1952, "pitch": 61, "duration": 7, "velocity": 117}, {"time": 1952, "pitch": 66, "duration": 8, "velocity": 99}, {"time": 1958, "pitch": 54, "duration": 9, "velocity": 86}, {"time": 1970, "pitch": 44, "duration": 34, "velocity": 95}, {"time": 1970, "pitch": 56, "duration": 14, "velocity": 102}, {"time": 1970, "pitch": 60, "duration": 13, "velocity": 107}, {"time": 1970, "pitch": 63, "duration": 13, "velocity": 100}, {"time": 1988, "pitch": 56, "duration": 8, "velocity": 95}, {"time": 1988, "pitch": 60, "duration": 8, "velocity": 99}, {"time": 1988, "pitch": 63, "duration": 8, "velocity": 90}, {"time": 2000, "pitch": 56, "duration": 6, "velocity": 90}, {"time": 2000, "pitch": 60, "duration": 6, "velocity": 97}, {"time": 2000, "pitch": 63, "duration": 7, "velocity": 92}, {"time": 2006, "pitch": 44, "duration": 10, "velocity": 79}, {"time": 2018, "pitch": 49, "duration": 23, "velocity": 89}, {"time": 2018, "pitch": 61, "duration": 22, "velocity": 99}, {"time": 2018, "pitch": 64, "duration": 21, "velocity": 95}, {"time": 2018, "pitch": 68, "duration": 21, "velocity": 100}, {"time": 2066, "pitch": 42, "duration": 39, "velocity": 76}, {"time": 2066, "pitch": 54, "duration": 41, "velocity": 92}, {"time": 2066, "pitch": 57, "duration": 18, "velocity": 88}, {"time": 2066, "pitch": 61, "duration": 17, "velocity": 96}, {"time": 2066, "pitch": 64, "duration": 16, "velocity": 81}, {"time": 2084, "pitch": 61, "duration": 20, "velocity": 81}, {"time": 2084, "pitch": 64, "duration": 21, "velocity": 75}, {"time": 2102, "pitch": 57, "duration": 6, "velocity": 77}, {"time": 2114, "pitch": 44, "duration": 35, "velocity": 86}, {"time": 2114, "pitch": 56, "duration": 15, "velocity": 99}, {"time": 2114, "pitch": 59, "duration": 15, "velocity": 78}, {"time": 2114, "pitch": 63, "duration": 15, "velocity": 97}, {"time": 2132, "pitch": 56, "duration": 19, "velocity": 81}, {"time": 2132, "pitch": 59, "duration": 17, "velocity": 78}, {"time": 2132, "pitch": 63, "duration": 18, "velocity": 72}, {"time": 2132, "pitch": 66, "duration": 18, "velocity": 72}, {"time": 2162, "pitch": 42, "duration": 39, "velocity": 72}, {"time": 2162, "pitch": 54, "duration": 40, "velocity": 85}, {"time": 2162, "pitch": 57, "duration": 16, "velocity": 93}, {"time": 2162, "pitch": 61, "duration": 17, "velocity": 96}, {"time": 2162, "pitch": 64, "duration": 17, "velocity": 88}, {"time": 2180, "pitch": 57, "duration": 15, "velocity": 73}, {"time": 2180, "pitch": 61, "duration": 19, "velocity": 100}, {"time": 2180, "pitch": 64, "duration": 20, "velocity": 77}, {"time": 2198, "pitch": 57, "duration": 6, "velocity": 100}, {"time": 2210, "pitch": 44, "duration": 46, "velocity": 57}, {"time": 2210, "pitch": 48, "duration": 47, "velocity": 65}, {"time": 2210, "pitch": 51, "duration": 46, "velocity": 72}, {"time": 2210, "pitch": 56, "duration": 47, "velocity": 102}, {"time": 2210, "pitch": 60, "duration": 46, "velocity": 107}, {"time": 2210, "pitch": 63, "duration": 47, "velocity": 122}, {"time": 2258, "pitch": 44, "duration": 6, "velocity": 88}, {"time": 2258, "pitch": 51, "duration": 5, "velocity": 88}, {"time": 2258, "pitch": 56, "duration": 6, "velocity": 90}, {"time": 2258, "pitch": 60, "duration": 5, "velocity": 93}, {"time": 2258, "pitch": 63, "duration": 6, "velocity": 83}, {"time": 2258, "pitch": 66, "duration": 6, "velocity": 88}, {"time": 2306, "pitch": 49, "duration": 37, "velocity": 71}, {"time": 2306, "pitch": 61, "duration": 13, "velocity": 82}, {"time": 2306, "pitch": 64, "duration": 9, "velocity": 58}, {"time": 2306, "pitch": 68, "duration": 9, "velocity": 70}, {"time": 2318, "pitch": 56, "duration": 11, "velocity": 39}, {"time": 2324, "pitch": 61, "duration": 13, "velocity": 86}, {"time": 2324, "pitch": 64, "duration": 12, "velocity": 85}, {"time": 2324, "pitch": 68, "duration": 14, "velocity": 92}, {"time": 2336, "pitch": 56, "duration": 6, "velocity": 59}, {"time": 2342, "pitch": 61, "duration": 5, "velocity": 82}, {"time": 2342, "pitch": 64, "duration": 3, "velocity": 62}, {"time": 2342, "pitch": 68, "duration": 3, "velocity": 82}, {"time": 2354, "pitch": 45, "duration": 37, "velocity": 66}, {"time": 2354, "pitch": 57, "duration": 12, "velocity": 85}, {"time": 2354, "pitch": 61, "duration": 13, "velocity": 81}, {"time": 2354, "pitch": 64, "duration": 12, "velocity": 73}, {"time": 2366, "pitch": 52, "duration": 10, "velocity": 57}, {"time": 2372, "pitch": 57, "duration": 15, "velocity": 81}, {"time": 2372, "pitch": 61, "duration": 15, "velocity": 90}, {"time": 2372, "pitch": 64, "duration": 15, "velocity": 73}, {"time": 2384, "pitch": 52, "duration": 8, "velocity": 45}, {"time": 2390, "pitch": 57, "duration": 6, "velocity": 72}, {"time": 2390, "pitch": 61, "duration": 4, "velocity": 60}, {"time": 2390, "pitch": 64, "duration": 3, "velocity": 61}, {"time": 2402, "pitch": 47, "duration": 41, "velocity": 65}, {"time": 2402, "pitch": 59, "duration": 13, "velocity": 83}, {"time": 2402, "pitch": 63, "duration": 13, "velocity": 92}, {"time": 2402, "pitch": 66, "duration": 13, "velocity": 77}, {"time": 2414, "pitch": 54, "duration": 12, "velocity": 45}, {"time": 2420, "pitch": 59, "duration": 14, "velocity": 73}, {"time": 2420, "pitch": 63, "duration": 15, "velocity": 99}, {"time": 2420, "pitch": 66, "duration": 15, "velocity": 82}, {"time": 2432, "pitch": 54, "duration": 7, "velocity": 66}, {"time": 2438, "pitch": 63, "duration": 5, "velocity": 112}, {"time": 2438, "pitch": 66, "duration": 6, "velocity": 95}, {"time": 2450, "pitch": 52, "duration": 34, "velocity": 68}, {"time": 2450, "pitch": 59, "duration": 14, "velocity": 83}, {"time": 2450, "pitch": 64, "duration": 15, "velocity": 76}, {"time": 2450, "pitch": 68, "duration": 14, "velocity": 77}, {"time": 2468, "pitch": 59, "duration": 8, "velocity": 83}, {"time": 2468, "pitch": 64, "duration": 9, "velocity": 92}, {"time": 2468, "pitch": 68, "duration": 8, "velocity": 95}, {"time": 2480, "pitch": 59, "duration": 13, "velocity": 83}, {"time": 2480, "pitch": 64, "duration": 8, "velocity": 92}, {"time": 2480, "pitch": 68, "duration": 7, "velocity": 92}, {"time": 2486, "pitch": 52, "duration": 11, "velocity": 78}, {"time": 2498, "pitch": 45, "duration": 37, "velocity": 61}, {"time": 2498, "pitch": 57, "duration": 13, "velocity": 88}, {"time": 2498, "pitch": 61, "duration": 13, "velocity": 95}, {"time": 2498, "pitch": 64, "duration": 13, "velocity": 81}, {"time": 2510, "pitch": 52, "duration": 14, "velocity": 36}, {"time": 2516, "pitch": 57, "duration": 15, "velocity": 89}, {"time": 2516, "pitch": 61, "duration": 15, "velocity": 97}, {"time": 2516, "pitch": 64, "duration": 15, "velocity": 85}, {"time": 2528, "pitch": 52, "duration": 6, "velocity": 66}, {"time": 2534, "pitch": 61, "duration": 5, "velocity": 122}, {"time": 2534, "pitch": 64, "duration": 5, "velocity": 88}, {"time": 2546, "pitch": 42, "duration": 37, "velocity": 89}, {"time": 2546, "pitch": 57, "duration": 13, "velocity": 92}, {"time": 2546, "pitch": 61, "duration": 13, "velocity": 95}, {"time": 2558, "pitch": 54, "duration": 9, "velocity": 48}, {"time": 2564, "pitch": 57, "duration": 15, "velocity": 86}, {"time": 2564, "pitch": 61, "duration": 14, "velocity": 96}, {"time": 2564, "pitch": 66, "duration": 15, "velocity": 86}, {"time": 2576, "pitch": 54, "duration": 9, "velocity": 56}, {"time": 2582, "pitch": 57, "duration": 4, "velocity": 97}, {"time": 2582, "pitch": 61, "duration": 2, "velocity": 95}, {"time": 2582, "pitch": 66, "duration": 1, "velocity": 76}, {"time": 2594, "pitch": 44, "duration": 37, "velocity": 93}, {"time": 2594, "pitch": 56, "duration": 13, "velocity": 92}, {"time": 2594, "pitch": 60, "duration": 14, "velocity": 96}, {"time": 2594, "pitch": 63, "duration": 14, "velocity": 79}, {"time": 2606, "pitch": 51, "duration": 9, "velocity": 35}, {"time": 2612, "pitch": 56, "duration": 9, "velocity": 89}, {"time": 2612, "pitch": 60, "duration": 8, "velocity": 96}, {"time": 2612, "pitch": 63, "duration": 8, "velocity": 90}, {"time": 2618, "pitch": 51, "duration": 4, "velocity": 37}, {"time": 2624, "pitch": 56, "duration": 7, "velocity": 86}, {"time": 2624, "pitch": 60, "duration": 6, "velocity": 90}, {"time": 2624, "pitch": 63, "duration": 7, "velocity": 88}, {"time": 2630, "pitch": 51, "duration": 2, "velocity": 72}, {"time": 2642, "pitch": 49, "duration": 35, "velocity": 50}, {"time": 2642, "pitch": 56, "duration": 22, "velocity": 92}, {"time": 2642, "pitch": 61, "duration": 15, "velocity": 97}, {"time": 2642, "pitch": 64, "duration": 15, "velocity": 83}, {"time": 2642, "pitch": 68, "duration": 15, "velocity": 92}, {"time": 2660, "pitch": 61, "duration": 9, "velocity": 90}, {"time": 2660, "pitch": 64, "duration": 9, "velocity": 73}, {"time": 2660, "pitch": 68, "duration": 9, "velocity": 74}, {"time": 2666, "pitch": 56, "duration": 7, "velocity": 38}, {"time": 2672, "pitch": 61, "duration": 12, "velocity": 96}, {"time": 2672, "pitch": 64, "duration": 8, "velocity": 85}, {"time": 2672, "pitch": 68, "duration": 8, "velocity": 89}, {"time": 2678, "pitch": 49, "duration": 1, "velocity": 42}, {"time": 2678, "pitch": 56, "duration": 3, "velocity": 107}, {"time": 2690, "pitch": 49, "duration": 37, "velocity": 55}, {"time": 2690, "pitch": 56, "duration": 21, "velocity": 69}, {"time": 2690, "pitch": 61, "duration": 14, "velocity": 99}, {"time": 2690, "pitch": 64, "duration": 14, "velocity": 86}, {"time": 2690, "pitch": 68, "duration": 14, "velocity": 92}, {"time": 2708, "pitch": 61, "duration": 8, "velocity": 99}, {"time": 2708, "pitch": 64, "duration": 8, "velocity": 95}, {"time": 2708, "pitch": 68, "duration": 8, "velocity": 99}, {"time": 2714, "pitch": 56, "duration": 7, "velocity": 33}, {"time": 2720, "pitch": 61, "duration": 8, "velocity": 95}, {"time": 2720, "pitch": 64, "duration": 6, "velocity": 89}, {"time": 2720, "pitch": 68, "duration": 6, "velocity": 102}, {"time": 2726, "pitch": 56, "duration": 2, "velocity": 95}, {"time": 2738, "pitch": 45, "duration": 37, "velocity": 66}, {"time": 2738, "pitch": 57, "duration": 13, "velocity": 85}, {"time": 2738, "pitch": 61, "duration": 14, "velocity": 83}, {"time": 2738, "pitch": 64, "duration": 13, "velocity": 82}, {"time": 2750, "pitch": 52, "duration": 9, "velocity": 66}, {"time": 2756, "pitch": 57, "duration": 14, "velocity": 93}, {"time": 2756, "pitch": 61, "duration": 15, "velocity": 97}, {"time": 2756, "pitch": 64, "duration": 14, "velocity": 90}, {"time": 2768, "pitch": 52, "duration": 10, "velocity": 77}, {"time": 2774, "pitch": 57, "duration": 7, "velocity": 89}, {"time": 2774, "pitch": 61, "duration": 9, "velocity": 102}, {"time": 2774, "pitch": 64, "duration": 3, "velocity": 88}, {"time": 2786, "pitch": 47, "duration": 37, "velocity": 70}, {"time": 2786, "pitch": 59, "duration": 13, "velocity": 83}, {"time": 2786, "pitch": 63, "duration": 13, "velocity": 102}, {"time": 2786, "pitch": 66, "duration": 13, "velocity": 92}, {"time": 2798, "pitch": 54, "duration": 12, "velocity": 74}, {"time": 2804, "pitch": 59, "duration": 14, "velocity": 74}, {"time": 2804, "pitch": 63, "duration": 14, "velocity": 97}, {"time": 2804, "pitch": 66, "duration": 14, "velocity": 81}, {"time": 2816, "pitch": 54, "duration": 6, "velocity": 89}, {"time": 2822, "pitch": 63, "duration": 5, "velocity": 122}, {"time": 2822, "pitch": 66, "duration": 5, "velocity": 100}, {"time": 2828, "pitch": 59, "duration": 3, "velocity": 57}, {"time": 2834, "pitch": 40, "duration": 37, "velocity": 73}, {"time": 2834, "pitch": 59, "duration": 13, "velocity": 86}, {"time": 2834, "pitch": 64, "duration": 14, "velocity": 88}, {"time": 2834, "pitch": 68, "duration": 14, "velocity": 92}, {"time": 2846, "pitch": 47, "duration": 26, "velocity": 44}, {"time": 2852, "pitch": 59, "duration": 13, "velocity": 88}, {"time": 2852, "pitch": 64, "duration": 13, "velocity": 88}, {"time": 2852, "pitch": 68, "duration": 13, "velocity": 90}, {"time": 2864, "pitch": 52, "duration": 16, "velocity": 90}, {"time": 2870, "pitch": 64, "duration": 5, "velocity": 96}, {"time": 2870, "pitch": 68, "duration": 5, "velocity": 95}, {"time": 2876, "pitch": 59, "duration": 7, "velocity": 97}, {"time": 2882, "pitch": 45, "duration": 36, "velocity": 71}, {"time": 2882, "pitch": 61, "duration": 14, "velocity": 112}, {"time": 2882, "pitch": 64, "duration": 14, "velocity": 82}, {"time": 2894, "pitch": 52, "duration": 10, "velocity": 65}, {"time": 2900, "pitch": 57, "duration": 13, "velocity": 97}, {"time": 2900, "pitch": 61, "duration": 13, "velocity": 99}, {"time": 2900, "pitch": 64, "duration": 13, "velocity": 85}, {"time": 2912, "pitch": 52, "duration": 7, "velocity": 72}, {"time": 2918, "pitch": 61, "duration": 9, "velocity": 127}, {"time": 2918, "pitch": 64, "duration": 8, "velocity": 93}, {"time": 2930, "pitch": 42, "duration": 39, "velocity": 82}, {"time": 2930, "pitch": 57, "duration": 13, "velocity": 89}, {"time": 2930, "pitch": 61, "duration": 7, "velocity": 89}, {"time": 2942, "pitch": 54, "duration": 12, "velocity": 85}, {"time": 2948, "pitch": 57, "duration": 8, "velocity": 83}, {"time": 2948, "pitch": 61, "duration": 8, "velocity": 89}, {"time": 2948, "pitch": 66, "duration": 8, "velocity": 88}, {"time": 2960, "pitch": 54, "duration": 4, "velocity": 23}, {"time": 2960, "pitch": 57, "duration": 9, "velocity": 85}, {"time": 2960, "pitch": 61, "duration": 6, "velocity": 97}, {"time": 2960, "pitch": 66, "duration": 7, "velocity": 93}, {"time": 2966, "pitch": 54, "duration": 9, "velocity": 82}, {"time": 2978, "pitch": 44, "duration": 38, "velocity": 83}, {"time": 2978, "pitch": 56, "duration": 13, "velocity": 92}, {"time": 2978, "pitch": 60, "duration": 13, "velocity": 89}, {"time": 2978, "pitch": 63, "duration": 13, "velocity": 100}, {"time": 2990, "pitch": 51, "duration": 20, "velocity": 67}, {"time": 2996, "pitch": 56, "duration": 9, "velocity": 95}, {"time": 2996, "pitch": 60, "duration": 8, "velocity": 102}, {"time": 2996, "pitch": 63, "duration": 8, "velocity": 99}, {"time": 3008, "pitch": 56, "duration": 12, "velocity": 86}, {"time": 3008, "pitch": 60, "duration": 8, "velocity": 97}, {"time": 3008, "pitch": 63, "duration": 8, "velocity": 93}, {"time": 3014, "pitch": 51, "duration": 8, "velocity": 93}, {"time": 3026, "pitch": 44, "duration": 33, "velocity": 100}, {"time": 3026, "pitch": 51, "duration": 11, "velocity": 90}, {"time": 3026, "pitch": 56, "duration": 13, "velocity": 100}, {"time": 3026, "pitch": 60, "duration": 11, "velocity": 99}, {"time": 3026, "pitch": 63, "duration": 13, "velocity": 102}, {"time": 3038, "pitch": 51, "duration": 10, "velocity": 68}, {"time": 3044, "pitch": 56, "duration": 8, "velocity": 97}, {"time": 3044, "pitch": 60, "duration": 8, "velocity": 100}, {"time": 3044, "pitch": 63, "duration": 8, "velocity": 99}, {"time": 3050, "pitch": 51, "duration": 8, "velocity": 44}, {"time": 3056, "pitch": 56, "duration": 9, "velocity": 92}, {"time": 3056, "pitch": 60, "duration": 8, "velocity": 92}, {"time": 3056, "pitch": 63, "duration": 12, "velocity": 89}, {"time": 3062, "pitch": 44, "duration": 9, "velocity": 96}, {"time": 3062, "pitch": 51, "duration": 8, "velocity": 82}, {"time": 3068, "pitch": 56, "duration": 3, "velocity": 90}, {"time": 3074, "pitch": 44, "duration": 34, "velocity": 95}, {"time": 3074, "pitch": 51, "duration": 35, "velocity": 92}, {"time": 3074, "pitch": 56, "duration": 34, "velocity": 96}, {"time": 3074, "pitch": 60, "duration": 34, "velocity": 97}, {"time": 3074, "pitch": 63, "duration": 35, "velocity": 93}, {"time": 3122, "pitch": 49, "duration": 36, "velocity": 66}, {"time": 3122, "pitch": 56, "duration": 9, "velocity": 68}, {"time": 3122, "pitch": 61, "duration": 12, "velocity": 97}, {"time": 3122, "pitch": 64, "duration": 12, "velocity": 86}, {"time": 3122, "pitch": 68, "duration": 12, "velocity": 97}, {"time": 3134, "pitch": 56, "duration": 9, "velocity": 51}, {"time": 3140, "pitch": 61, "duration": 8, "velocity": 96}, {"time": 3140, "pitch": 64, "duration": 2, "velocity": 89}, {"time": 3140, "pitch": 68, "duration": 8, "velocity": 102}, {"time": 3146, "pitch": 56, "duration": 8, "velocity": 47}, {"time": 3152, "pitch": 61, "duration": 8, "velocity": 99}, {"time": 3152, "pitch": 64, "duration": 6, "velocity": 96}, {"time": 3152, "pitch": 68, "duration": 6, "velocity": 112}, {"time": 3158, "pitch": 56, "duration": 2, "velocity": 99}, {"time": 3170, "pitch": 45, "duration": 43, "velocity": 68}, {"time": 3170, "pitch": 57, "duration": 13, "velocity": 92}, {"time": 3170, "pitch": 61, "duration": 13, "velocity": 96}, {"time": 3170, "pitch": 64, "duration": 13, "velocity": 86}, {"time": 3182, "pitch": 52, "duration": 9, "velocity": 48}, {"time": 3188, "pitch": 57, "duration": 7, "velocity": 86}, {"time": 3188, "pitch": 61, "duration": 8, "velocity": 97}, {"time": 3188, "pitch": 64, "duration": 7, "velocity": 86}, {"time": 3194, "pitch": 52, "duration": 9, "velocity": 37}, {"time": 3200, "pitch": 57, "duration": 9, "velocity": 88}, {"time": 3200, "pitch": 61, "duration": 9, "velocity": 107}, {"time": 3200, "pitch": 64, "duration": 9, "velocity": 88}, {"time": 3206, "pitch": 52, "duration": 12, "velocity": 61}, {"time": 3212, "pitch": 57, "duration": 3, "velocity": 76}, {"time": 3212, "pitch": 61, "duration": 4, "velocity": 86}, {"time": 3212, "pitch": 64, "duration": 1, "velocity": 57}, {"time": 3218, "pitch": 47, "duration": 36, "velocity": 72}, {"time": 3218, "pitch": 59, "duration": 13, "velocity": 76}, {"time": 3218, "pitch": 63, "duration": 14, "velocity": 102}, {"time": 3218, "pitch": 66, "duration": 13, "velocity": 95}, {"time": 3230, "pitch": 54, "duration": 10, "velocity": 59}, {"time": 3236, "pitch": 59, "duration": 8, "velocity": 85}, {"time": 3236, "pitch": 63, "duration": 8, "velocity": 122}, {"time": 3236, "pitch": 66, "duration": 8, "velocity": 102}, {"time": 3248, "pitch": 59, "duration": 9, "velocity": 78}, {"time": 3248, "pitch": 63, "duration": 8, "velocity": 107}, {"time": 3248, "pitch": 66, "duration": 9, "velocity": 102}, {"time": 3254, "pitch": 54, "duration": 2, "velocity": 71}, {"time": 3260, "pitch": 59, "duration": 3, "velocity": 86}, {"time": 3260, "pitch": 63, "duration": 2, "velocity": 112}, {"time": 3260, "pitch": 66, "duration": 2, "velocity": 88}, {"time": 3266, "pitch": 40, "duration": 36, "velocity": 69}, {"time": 3266, "pitch": 59, "duration": 13, "velocity": 86}, {"time": 3266, "pitch": 64, "duration": 13, "velocity": 92}, {"time": 3266, "pitch": 68, "duration": 13, "velocity": 97}, {"time": 3278, "pitch": 47, "duration": 9, "velocity": 42}, {"time": 3284, "pitch": 59, "duration": 9, "velocity": 90}, {"time": 3284, "pitch": 64, "duration": 9, "velocity": 97}, {"time": 3284, "pitch": 68, "duration": 9, "velocity": 97}, {"time": 3296, "pitch": 59, "duration": 13, "velocity": 81}, {"time": 3296, "pitch": 64, "duration": 7, "velocity": 89}, {"time": 3296, "pitch": 68, "duration": 8, "velocity": 93}, {"time": 3302, "pitch": 47, "duration": 2, "velocity": 82}, {"time": 3314, "pitch": 45, "duration": 37, "velocity": 72}, {"time": 3314, "pitch": 57, "duration": 13, "velocity": 90}, {"time": 3314, "pitch": 61, "duration": 14, "velocity": 99}, {"time": 3314, "pitch": 64, "duration": 13, "velocity": 79}, {"time": 3326, "pitch": 52, "duration": 10, "velocity": 53}, {"time": 3332, "pitch": 57, "duration": 8, "velocity": 86}, {"time": 3332, "pitch": 61, "duration": 8, "velocity": 99}, {"time": 3332, "pitch": 64, "duration": 8, "velocity": 82}, {"time": 3344, "pitch": 57, "duration": 8, "velocity": 92}, {"time": 3344, "pitch": 61, "duration": 7, "velocity": 122}, {"time": 3344, "pitch": 64, "duration": 7, "velocity": 93}, {"time": 3350, "pitch": 52, "duration": 2, "velocity": 75}, {"time": 3362, "pitch": 42, "duration": 38, "velocity": 81}, {"time": 3362, "pitch": 57, "duration": 13, "velocity": 96}, {"time": 3362, "pitch": 61, "duration": 13, "velocity": 100}, {"time": 3362, "pitch": 66, "duration": 13, "velocity": 95}, {"time": 3374, "pitch": 54, "duration": 20, "velocity": 74}, {"time": 3380, "pitch": 57, "duration": 7, "velocity": 88}, {"time": 3380, "pitch": 61, "duration": 7, "velocity": 102}, {"time": 3380, "pitch": 66, "duration": 8, "velocity": 99}, {"time": 3392, "pitch": 57, "duration": 10, "velocity": 90}, {"time": 3392, "pitch": 61, "duration": 6, "velocity": 112}, {"time": 3392, "pitch": 66, "duration": 6, "velocity": 97}, {"time": 3398, "pitch": 54, "duration": 10, "velocity": 89}, {"time": 3410, "pitch": 44, "duration": 44, "velocity": 72}, {"time": 3410, "pitch": 56, "duration": 14, "velocity": 90}, {"time": 3410, "pitch": 60, "duration": 14, "velocity": 97}, {"time": 3410, "pitch": 63, "duration": 14, "velocity": 97}, {"time": 3428, "pitch": 56, "duration": 9, "velocity": 93}, {"time": 3428, "pitch": 60, "duration": 3, "velocity": 96}, {"time": 3428, "pitch": 63, "duration": 9, "velocity": 90}, {"time": 3440, "pitch": 56, "duration": 14, "velocity": 100}, {"time": 3440, "pitch": 63, "duration": 10, "velocity": 102}, {"time": 3446, "pitch": 54, "duration": 6, "velocity": 86}, {"time": 3458, "pitch": 44, "duration": 34, "velocity": 86}, {"time": 3458, "pitch": 54, "duration": 10, "velocity": 73}, {"time": 3458, "pitch": 56, "duration": 13, "velocity": 99}, {"time": 3458, "pitch": 63, "duration": 13, "velocity": 96}, {"time": 3470, "pitch": 54, "duration": 7, "velocity": 72}, {"time": 3476, "pitch": 56, "duration": 8, "velocity": 97}, {"time": 3476, "pitch": 60, "duration": 7, "velocity": 97}, {"time": 3476, "pitch": 63, "duration": 8, "velocity": 96}, {"time": 3482, "pitch": 54, "duration": 9, "velocity": 76}, {"time": 3488, "pitch": 56, "duration": 6, "velocity": 97}, {"time": 3488, "pitch": 60, "duration": 6, "velocity": 102}, {"time": 3488, "pitch": 63, "duration": 7, "velocity": 99}, {"time": 3494, "pitch": 44, "duration": 2, "velocity": 35}, {"time": 3494, "pitch": 54, "duration": 3, "velocity": 102}, {"time": 3506, "pitch": 49, "duration": 37, "velocity": 92}, {"time": 3506, "pitch": 61, "duration": 13, "velocity": 107}, {"time": 3506, "pitch": 64, "duration": 10, "velocity": 96}, {"time": 3506, "pitch": 68, "duration": 12, "velocity": 102}, {"time": 3518, "pitch": 56, "duration": 21, "velocity": 55}, {"time": 3524, "pitch": 61, "duration": 8, "velocity": 95}, {"time": 3524, "pitch": 64, "duration": 2, "velocity": 89}, {"time": 3524, "pitch": 68, "duration": 7, "velocity": 96}, {"time": 3536, "pitch": 61, "duration": 8, "velocity": 99}, {"time": 3536, "pitch": 64, "duration": 6, "velocity": 96}, {"time": 3536, "pitch": 68, "duration": 6, "velocity": 117}, {"time": 3542, "pitch": 56, "duration": 2, "velocity": 100}, {"time": 3554, "pitch": 45, "duration": 43, "velocity": 70}, {"time": 3554, "pitch": 57, "duration": 13, "velocity": 100}, {"time": 3554, "pitch": 61, "duration": 13, "velocity": 100}, {"time": 3554, "pitch": 64, "duration": 13, "velocity": 86}, {"time": 3566, "pitch": 52, "duration": 20, "velocity": 55}, {"time": 3572, "pitch": 57, "duration": 7, "velocity": 86}, {"time": 3572, "pitch": 61, "duration": 7, "velocity": 97}, {"time": 3572, "pitch": 64, "duration": 7, "velocity": 83}, {"time": 3584, "pitch": 57, "duration": 9, "velocity": 88}, {"time": 3584, "pitch": 61, "duration": 9, "velocity": 107}, {"time": 3584, "pitch": 64, "duration": 9, "velocity": 88}, {"time": 3590, "pitch": 52, "duration": 12, "velocity": 61}, {"time": 3596, "pitch": 57, "duration": 3, "velocity": 81}, {"time": 3596, "pitch": 61, "duration": 4, "velocity": 96}, {"time": 3596, "pitch": 64, "duration": 2, "velocity": 69}, {"time": 3602, "pitch": 47, "duration": 37, "velocity": 70}, {"time": 3602, "pitch": 59, "duration": 13, "velocity": 81}, {"time": 3602, "pitch": 63, "duration": 13, "velocity": 112}, {"time": 3602, "pitch": 66, "duration": 13, "velocity": 102}, {"time": 3614, "pitch": 54, "duration": 21, "velocity": 53}, {"time": 3620, "pitch": 59, "duration": 8, "velocity": 81}, {"time": 3620, "pitch": 63, "duration": 8, "velocity": 122}, {"time": 3620, "pitch": 66, "duration": 8, "velocity": 112}, {"time": 3632, "pitch": 59, "duration": 9, "velocity": 78}, {"time": 3632, "pitch": 63, "duration": 7, "velocity": 127}, {"time": 3632, "pitch": 66, "duration": 7, "velocity": 117}, {"time": 3638, "pitch": 54, "duration": 1, "velocity": 89}, {"time": 3650, "pitch": 40, "duration": 36, "velocity": 68}, {"time": 3650, "pitch": 52, "duration": 13, "velocity": 93}, {"time": 3650, "pitch": 56, "duration": 13, "velocity": 97}, {"time": 3650, "pitch": 59, "duration": 14, "velocity": 92}, {"time": 3662, "pitch": 47, "duration": 8, "velocity": 75}, {"time": 3668, "pitch": 52, "duration": 8, "velocity": 85}, {"time": 3668, "pitch": 56, "duration": 9, "velocity": 96}, {"time": 3668, "pitch": 59, "duration": 9, "velocity": 89}, {"time": 3680, "pitch": 52, "duration": 5, "velocity": 85}, {"time": 3680, "pitch": 56, "duration": 5, "velocity": 97}, {"time": 3680, "pitch": 59, "duration": 6, "velocity": 89}, {"time": 3686, "pitch": 47, "duration": 2, "velocity": 69}, {"time": 3698, "pitch": 45, "duration": 38, "velocity": 70}, {"time": 3698, "pitch": 57, "duration": 13, "velocity": 93}, {"time": 3698, "pitch": 61, "duration": 13, "velocity": 107}, {"time": 3698, "pitch": 64, "duration": 13, "velocity": 89}, {"time": 3710, "pitch": 52, "duration": 10, "velocity": 47}, {"time": 3716, "pitch": 57, "duration": 7, "velocity": 92}, {"time": 3716, "pitch": 61, "duration": 8, "velocity": 112}, {"time": 3716, "pitch": 64, "duration": 8, "velocity": 90}, {"time": 3722, "pitch": 52, "duration": 7, "velocity": 25}, {"time": 3728, "pitch": 57, "duration": 8, "velocity": 92}, {"time": 3728, "pitch": 61, "duration": 8, "velocity": 127}, {"time": 3728, "pitch": 64, "duration": 8, "velocity": 93}, {"time": 3734, "pitch": 52, "duration": 2, "velocity": 68}, {"time": 3740, "pitch": 57, "duration": 3, "velocity": 86}, {"time": 3746, "pitch": 42, "duration": 38, "velocity": 93}, {"time": 3746, "pitch": 57, "duration": 13, "velocity": 92}, {"time": 3746, "pitch": 61, "duration": 13, "velocity": 112}, {"time": 3746, "pitch": 66, "duration": 13, "velocity": 96}, {"time": 3758, "pitch": 54, "duration": 7, "velocity": 92}, {"time": 3764, "pitch": 57, "duration": 7, "velocity": 95}, {"time": 3764, "pitch": 61, "duration": 7, "velocity": 117}, {"time": 3764, "pitch": 66, "duration": 8, "velocity": 99}, {"time": 3776, "pitch": 57, "duration": 10, "velocity": 96}, {"time": 3776, "pitch": 61, "duration": 6, "velocity": 117}, {"time": 3776, "pitch": 66, "duration": 7, "velocity": 99}, {"time": 3782, "pitch": 54, "duration": 9, "velocity": 86}, {"time": 3794, "pitch": 44, "duration": 33, "velocity": 95}, {"time": 3794, "pitch": 56, "duration": 13, "velocity": 102}, {"time": 3794, "pitch": 60, "duration": 13, "velocity": 107}, {"time": 3794, "pitch": 63, "duration": 12, "velocity": 100}, {"time": 3812, "pitch": 56, "duration": 8, "velocity": 95}, {"time": 3812, "pitch": 60, "duration": 7, "velocity": 99}, {"time": 3812, "pitch": 63, "duration": 8, "velocity": 90}, {"time": 3824, "pitch": 56, "duration": 6, "velocity": 90}, {"time": 3824, "pitch": 60, "duration": 5, "velocity": 97}, {"time": 3824, "pitch": 63, "duration": 6, "velocity": 92}, {"time": 3830, "pitch": 44, "duration": 9, "velocity": 79}, {"time": 3842, "pitch": 49, "duration": 31, "velocity": 107}, {"time": 3842, "pitch": 61, "duration": 16, "velocity": 96}, {"time": 3842, "pitch": 64, "duration": 14, "velocity": 92}, {"time": 3842, "pitch": 68, "duration": 15, "velocity": 95}, {"time": 3860, "pitch": 61, "duration": 2, "velocity": 63}, {"time": 3860, "pitch": 64, "duration": 2, "velocity": 74}, {"time": 3860, "pitch": 68, "duration": 18, "velocity": 99}, {"time": 3866, "pitch": 64, "duration": 14, "velocity": 50}, {"time": 3878, "pitch": 61, "duration": 1, "velocity": 74}, {"time": 3890, "pitch": 61, "duration": 37, "velocity": 96}, {"time": 3896, "pitch": 68, "duration": 14, "velocity": 85}, {"time": 3902, "pitch": 73, "duration": 7, "velocity": 63}, {"time": 3908, "pitch": 76, "duration": 30, "velocity": 76}, {"time": 3920, "pitch": 68, "duration": 7, "velocity": 77}, {"time": 3926, "pitch": 73, "duration": 10, "velocity": 83}, {"time": 3932, "pitch": 68, "duration": 6, "velocity": 61}, {"time": 3938, "pitch": 57, "duration": 36, "velocity": 73}, {"time": 3944, "pitch": 64, "duration": 19, "velocity": 76}, {"time": 3950, "pitch": 69, "duration": 6, "velocity": 63}, {"time": 3956, "pitch": 76, "duration": 28, "velocity": 107}, {"time": 3962, "pitch": 73, "duration": 12, "velocity": 93}, {"time": 3968, "pitch": 64, "duration": 3, "velocity": 62}, {"time": 3974, "pitch": 69, "duration": 10, "velocity": 92}, {"time": 3980, "pitch": 73, "duration": 4, "velocity": 102}, {"time": 3986, "pitch": 47, "duration": 36, "velocity": 72}, {"time": 3986, "pitch": 59, "duration": 13, "velocity": 76}, {"time": 3986, "pitch": 63, "duration": 14, "velocity": 102}, {"time": 3986, "pitch": 66, "duration": 13, "velocity": 95}, {"time": 3998, "pitch": 54, "duration": 10, "velocity": 59}, {"time": 4004, "pitch": 59, "duration": 8, "velocity": 85}, {"time": 4004, "pitch": 63, "duration": 8, "velocity": 122}, {"time": 4004, "pitch": 66, "duration": 8, "velocity": 102}, {"time": 4016, "pitch": 59, "duration": 9, "velocity": 78}, {"time": 4016, "pitch": 63, "duration": 8, "velocity": 107}, {"time": 4016, "pitch": 66, "duration": 9, "velocity": 102}, {"time": 4022, "pitch": 54, "duration": 2, "velocity": 71}, {"time": 4028, "pitch": 59, "duration": 3, "velocity": 86}, {"time": 4028, "pitch": 63, "duration": 2, "velocity": 112}, {"time": 4028, "pitch": 66, "duration": 2, "velocity": 88}, {"time": 4034, "pitch": 40, "duration": 36, "velocity": 69}, {"time": 4034, "pitch": 59, "duration": 13, "velocity": 86}, {"time": 4034, "pitch": 64, "duration": 13, "velocity": 92}, {"time": 4034, "pitch": 68, "duration": 13, "velocity": 97}, {"time": 4046, "pitch": 47, "duration": 9, "velocity": 42}, {"time": 4052, "pitch": 59, "duration": 9, "velocity": 90}, {"time": 4052, "pitch": 64, "duration": 9, "velocity": 97}, {"time": 4052, "pitch": 68, "duration": 9, "velocity": 97}, {"time": 4064, "pitch": 59, "duration": 13, "velocity": 81}, {"time": 4064, "pitch": 64, "duration": 7, "velocity": 89}, {"time": 4064, "pitch": 68, "duration": 8, "velocity": 93}, {"time": 4070, "pitch": 47, "duration": 2, "velocity": 82}, {"time": 4082, "pitch": 45, "duration": 37, "velocity": 72}, {"time": 4082, "pitch": 57, "duration": 13, "velocity": 90}, {"time": 4082, "pitch": 61, "duration": 14, "velocity": 99}, {"time": 4082, "pitch": 64, "duration": 13, "velocity": 79}, {"time": 4094, "pitch": 52, "duration": 10, "velocity": 53}, {"time": 4100, "pitch": 57, "duration": 8, "velocity": 86}, {"time": 4100, "pitch": 61, "duration": 8, "velocity": 99}, {"time": 4100, "pitch": 64, "duration": 8, "velocity": 82}, {"time": 4112, "pitch": 57, "duration": 8, "velocity": 92}, {"time": 4112, "pitch": 61, "duration": 7, "velocity": 122}, {"time": 4112, "pitch": 64, "duration": 7, "velocity": 93}, {"time": 4118, "pitch": 52, "duration": 2, "velocity": 75}, {"time": 4130, "pitch": 42, "duration": 38, "velocity": 81}, {"time": 4130, "pitch": 57, "duration": 13, "velocity": 96}, {"time": 4130, "pitch": 61, "duration": 13, "velocity": 100}, {"time": 4130, "pitch": 66, "duration": 13, "velocity": 95}, {"time": 4142, "pitch": 54, "duration": 20, "velocity": 74}, {"time": 4148, "pitch": 57, "duration": 7, "velocity": 88}, {"time": 4148, "pitch": 61, "duration": 7, "velocity": 102}, {"time": 4148, "pitch": 66, "duration": 8, "velocity": 99}, {"time": 4160, "pitch": 57, "duration": 10, "velocity": 90}, {"time": 4160, "pitch": 61, "duration": 6, "velocity": 112}, {"time": 4160, "pitch": 66, "duration": 6, "velocity": 97}, {"time": 4166, "pitch": 54, "duration": 10, "velocity": 89}, {"time": 4178, "pitch": 44, "duration": 44, "velocity": 72}, {"time": 4178, "pitch": 56, "duration": 14, "velocity": 90}, {"time": 4178, "pitch": 60, "duration": 14, "velocity": 97}, {"time": 4178, "pitch": 63, "duration": 14, "velocity": 97}, {"time": 4196, "pitch": 56, "duration": 9, "velocity": 93}, {"time": 4196, "pitch": 60, "duration": 3, "velocity": 96}, {"time": 4196, "pitch": 63, "duration": 9, "velocity": 90}, {"time": 4208, "pitch": 56, "duration": 14, "velocity": 100}, {"time": 4208, "pitch": 63, "duration": 10, "velocity": 102}, {"time": 4214, "pitch": 54, "duration": 6, "velocity": 86}, {"time": 4226, "pitch": 44, "duration": 34, "velocity": 86}, {"time": 4226, "pitch": 54, "duration": 10, "velocity": 73}, {"time": 4226, "pitch": 56, "duration": 13, "velocity": 99}, {"time": 4226, "pitch": 63, "duration": 13, "velocity": 96}, {"time": 4238, "pitch": 54, "duration": 7, "velocity": 72}, {"time": 4244, "pitch": 56, "duration": 8, "velocity": 97}, {"time": 4244, "pitch": 60, "duration": 7, "velocity": 97}, {"time": 4244, "pitch": 63, "duration": 8, "velocity": 96}, {"time": 4250, "pitch": 54, "duration": 9, "velocity": 76}, {"time": 4256, "pitch": 56, "duration": 6, "velocity": 97}, {"time": 4256, "pitch": 60, "duration": 6, "velocity": 102}, {"time": 4256, "pitch": 63, "duration": 7, "velocity": 99}, {"time": 4262, "pitch": 44, "duration": 2, "velocity": 35}, {"time": 4262, "pitch": 54, "duration": 3, "velocity": 102}, {"time": 4274, "pitch": 49, "duration": 37, "velocity": 92}, {"time": 4274, "pitch": 61, "duration": 13, "velocity": 107}, {"time": 4274, "pitch": 64, "duration": 10, "velocity": 96}, {"time": 4274, "pitch": 68, "duration": 12, "velocity": 102}, {"time": 4286, "pitch": 56, "duration": 21, "velocity": 55}, {"time": 4292, "pitch": 61, "duration": 8, "velocity": 95}, {"time": 4292, "pitch": 64, "duration": 2, "velocity": 89}, {"time": 4292, "pitch": 68, "duration": 7, "velocity": 96}, {"time": 4304, "pitch": 61, "duration": 8, "velocity": 99}, {"time": 4304, "pitch": 64, "duration": 6, "velocity": 96}, {"time": 4304, "pitch": 68, "duration": 6, "velocity": 117}, {"time": 4310, "pitch": 56, "duration": 2, "velocity": 100}, {"time": 4322, "pitch": 45, "duration": 43, "velocity": 70}, {"time": 4322, "pitch": 57, "duration": 13, "velocity": 100}, {"time": 4322, "pitch": 61, "duration": 13, "velocity": 100}, {"time": 4322, "pitch": 64, "duration": 13, "velocity": 86}, {"time": 4334, "pitch": 52, "duration": 20, "velocity": 55}, {"time": 4340, "pitch": 57, "duration": 7, "velocity": 86}, {"time": 4340, "pitch": 61, "duration": 7, "velocity": 97}, {"time": 4340, "pitch": 64, "duration": 7, "velocity": 83}, {"time": 4352, "pitch": 57, "duration": 9, "velocity": 88}, {"time": 4352, "pitch": 61, "duration": 9, "velocity": 107}, {"time": 4352, "pitch": 64, "duration": 9, "velocity": 88}, {"time": 4358, "pitch": 52, "duration": 12, "velocity": 61}, {"time": 4364, "pitch": 57, "duration": 3, "velocity": 81}, {"time": 4364, "pitch": 61, "duration": 4, "velocity": 96}, {"time": 4364, "pitch": 64, "duration": 2, "velocity": 69}, {"time": 4370, "pitch": 47, "duration": 37, "velocity": 70}, {"time": 4370, "pitch": 59, "duration": 13, "velocity": 81}, {"time": 4370, "pitch": 63, "duration": 13, "velocity": 112}, {"time": 4370, "pitch": 66, "duration": 13, "velocity": 102}, {"time": 4382, "pitch": 54, "duration": 21, "velocity": 53}, {"time": 4388, "pitch": 59, "duration": 8, "velocity": 81}, {"time": 4388, "pitch": 63, "duration": 8, "velocity": 122}, {"time": 4388, "pitch": 66, "duration": 8, "velocity": 112}, {"time": 4400, "pitch": 59, "duration": 9, "velocity": 78}, {"time": 4400, "pitch": 63, "duration": 7, "velocity": 127}, {"time": 4400, "pitch": 66, "duration": 7, "velocity": 117}, {"time": 4406, "pitch": 54, "duration": 1, "velocity": 89}, {"time": 4418, "pitch": 40, "duration": 36, "velocity": 68}, {"time": 4418, "pitch": 52, "duration": 13, "velocity": 93}, {"time": 4418, "pitch": 56, "duration": 13, "velocity": 97}, {"time": 4418, "pitch": 59, "duration": 14, "velocity": 92}, {"time": 4430, "pitch": 47, "duration": 8, "velocity": 75}, {"time": 4436, "pitch": 52, "duration": 8, "velocity": 85}, {"time": 4436, "pitch": 56, "duration": 9, "velocity": 96}, {"time": 4436, "pitch": 59, "duration": 9, "velocity": 89}, {"time": 4448, "pitch": 52, "duration": 5, "velocity": 85}, {"time": 4448, "pitch": 56, "duration": 5, "velocity": 97}, {"time": 4448, "pitch": 59, "duration": 6, "velocity": 89}, {"time": 4454, "pitch": 47, "duration": 2, "velocity": 69}, {"time": 4466, "pitch": 45, "duration": 38, "velocity": 70}, {"time": 4466, "pitch": 57, "duration": 13, "velocity": 93}, {"time": 4466, "pitch": 61, "duration": 13, "velocity": 107}, {"time": 4466, "pitch": 64, "duration": 13, "velocity": 89}, {"time": 4478, "pitch": 52, "duration": 10, "velocity": 47}, {"time": 4484, "pitch": 57, "duration": 7, "velocity": 92}, {"time": 4484, "pitch": 61, "duration": 8, "velocity": 112}, {"time": 4484, "pitch": 64, "duration": 8, "velocity": 90}, {"time": 4490, "pitch": 52, "duration": 7, "velocity": 25}, {"time": 4496, "pitch": 57, "duration": 8, "velocity": 92}, {"time": 4496, "pitch": 61, "duration": 8, "velocity": 127}, {"time": 4496, "pitch": 64, "duration": 8, "velocity": 93}, {"time": 4502, "pitch": 52, "duration": 2, "velocity": 68}, {"time": 4508, "pitch": 57, "duration": 3, "velocity": 86}, {"time": 4514, "pitch": 42, "duration": 38, "velocity": 93}, {"time": 4514, "pitch": 57, "duration": 13, "velocity": 92}, {"time": 4514, "pitch": 61, "duration": 13, "velocity": 112}, {"time": 4514, "pitch": 66, "duration": 13, "velocity": 96}, {"time": 4526, "pitch": 54, "duration": 7, "velocity": 92}, {"time": 4532, "pitch": 57, "duration": 7, "velocity": 95}, {"time": 4532, "pitch": 61, "duration": 7, "velocity": 117}, {"time": 4532, "pitch": 66, "duration": 8, "velocity": 99}, {"time": 4544, "pitch": 57, "duration": 10, "velocity": 96}, {"time": 4544, "pitch": 61, "duration": 6, "velocity": 117}, {"time": 4544, "pitch": 66, "duration": 7, "velocity": 99}, {"time": 4550, "pitch": 54, "duration": 9, "velocity": 86}, {"time": 4562, "pitch": 44, "duration": 33, "velocity": 95}, {"time": 4562, "pitch": 56, "duration": 13, "velocity": 102}, {"time": 4562, "pitch": 60, "duration": 13, "velocity": 107}, {"time": 4562, "pitch": 63, "duration": 12, "velocity": 100}, {"time": 4580, "pitch": 56, "duration": 8, "velocity": 95}, {"time": 4580, "pitch": 60, "duration": 7, "velocity": 99}, {"time": 4580, "pitch": 63, "duration": 8, "velocity": 90}, {"time": 4592, "pitch": 56, "duration": 6, "velocity": 90}, {"time": 4592, "pitch": 60, "duration": 5, "velocity": 97}, {"time": 4592, "pitch": 63, "duration": 6, "velocity": 92}, {"time": 4598, "pitch": 44, "duration": 9, "velocity": 79}, {"time": 4610, "pitch": 49, "duration": 35, "velocity": 93}, {"time": 4610, "pitch": 61, "duration": 15, "velocity": 96}, {"time": 4610, "pitch": 64, "duration": 9, "velocity": 89}, {"time": 4610, "pitch": 68, "duration": 13, "velocity": 97}, {"time": 4622, "pitch": 56, "duration": 9, "velocity": 31}, {"time": 4628, "pitch": 61, "duration": 12, "velocity": 92}, {"time": 4628, "pitch": 64, "duration": 16, "velocity": 90}, {"time": 4628, "pitch": 68, "duration": 18, "velocity": 100}, {"time": 4640, "pitch": 56, "duration": 4, "velocity": 60}, {"time": 4646, "pitch": 61, "duration": 2, "velocity": 127}, {"time": 4658, "pitch": 45, "duration": 33, "velocity": 72}, {"time": 4658, "pitch": 57, "duration": 14, "velocity": 100}, {"time": 4658, "pitch": 61, "duration": 15, "velocity": 100}, {"time": 4658, "pitch": 64, "duration": 15, "velocity": 90}, {"time": 4670, "pitch": 52, "duration": 22, "velocity": 40}, {"time": 4676, "pitch": 57, "duration": 15, "velocity": 79}, {"time": 4676, "pitch": 61, "duration": 15, "velocity": 97}, {"time": 4676, "pitch": 64, "duration": 15, "velocity": 79}, {"time": 4694, "pitch": 57, "duration": 3, "velocity": 63}, {"time": 4694, "pitch": 61, "duration": 5, "velocity": 92}, {"time": 4694, "pitch": 64, "duration": 3, "velocity": 69}, {"time": 4706, "pitch": 47, "duration": 37, "velocity": 68}, {"time": 4706, "pitch": 59, "duration": 14, "velocity": 83}, {"time": 4706, "pitch": 63, "duration": 15, "velocity": 102}, {"time": 4706, "pitch": 66, "duration": 14, "velocity": 100}, {"time": 4718, "pitch": 54, "duration": 23, "velocity": 40}, {"time": 4724, "pitch": 59, "duration": 15, "velocity": 70}, {"time": 4724, "pitch": 63, "duration": 20, "velocity": 100}, {"time": 4724, "pitch": 66, "duration": 20, "velocity": 93}, {"time": 4742, "pitch": 59, "duration": 8, "velocity": 99}, {"time": 4754, "pitch": 40, "duration": 31, "velocity": 73}, {"time": 4754, "pitch": 59, "duration": 14, "velocity": 99}, {"time": 4754, "pitch": 64, "duration": 13, "velocity": 95}, {"time": 4754, "pitch": 68, "duration": 13, "velocity": 97}, {"time": 4766, "pitch": 47, "duration": 20, "velocity": 50}, {"time": 4772, "pitch": 59, "duration": 2, "velocity": 32}, {"time": 4772, "pitch": 64, "duration": 17, "velocity": 31}, {"time": 4772, "pitch": 68, "duration": 18, "velocity": 127}, {"time": 4790, "pitch": 59, "duration": 8, "velocity": 102}, {"time": 4802, "pitch": 45, "duration": 28, "velocity": 71}, {"time": 4802, "pitch": 57, "duration": 14, "velocity": 96}, {"time": 4802, "pitch": 61, "duration": 15, "velocity": 99}, {"time": 4802, "pitch": 64, "duration": 14, "velocity": 82}, {"time": 4814, "pitch": 52, "duration": 15, "velocity": 56}, {"time": 4820, "pitch": 61, "duration": 18, "velocity": 100}, {"time": 4820, "pitch": 64, "duration": 18, "velocity": 83}, {"time": 4838, "pitch": 57, "duration": 8, "velocity": 99}, {"time": 4850, "pitch": 42, "duration": 37, "velocity": 89}, {"time": 4850, "pitch": 57, "duration": 14, "velocity": 95}, {"time": 4850, "pitch": 61, "duration": 14, "velocity": 100}, {"time": 4862, "pitch": 54, "duration": 14, "velocity": 58}, {"time": 4868, "pitch": 57, "duration": 15, "velocity": 82}, {"time": 4868, "pitch": 61, "duration": 14, "velocity": 96}, {"time": 4868, "pitch": 66, "duration": 15, "velocity": 86}, {"time": 4880, "pitch": 54, "duration": 7, "velocity": 63}, {"time": 4886, "pitch": 57, "duration": 4, "velocity": 86}, {"time": 4898, "pitch": 44, "duration": 34, "velocity": 81}, {"time": 4898, "pitch": 56, "duration": 15, "velocity": 89}, {"time": 4898, "pitch": 60, "duration": 15, "velocity": 88}, {"time": 4898, "pitch": 63, "duration": 15, "velocity": 81}, {"time": 4916, "pitch": 56, "duration": 9, "velocity": 92}, {"time": 4916, "pitch": 60, "duration": 9, "velocity": 90}, {"time": 4916, "pitch": 63, "duration": 9, "velocity": 73}, {"time": 4928, "pitch": 56, "duration": 5, "velocity": 93}, {"time": 4928, "pitch": 60, "duration": 4, "velocity": 93}, {"time": 4928, "pitch": 63, "duration": 6, "velocity": 90}, {"time": 4934, "pitch": 44, "duration": 2, "velocity": 66}, {"time": 4946, "pitch": 37, "duration": 55, "velocity": 112}, {"time": 4946, "pitch": 49, "duration": 53, "velocity": 92}, {"time": 4946, "pitch": 61, "duration": 54, "velocity": 99}, {"time": 4946, "pitch": 64, "duration": 53, "velocity": 93}, {"time": 4946, "pitch": 68, "duration": 54, "velocity": 95}], "annotations": [{"time": 95, "annotation": {"number": 64, "value": 127}, "group": "control_change"}, {"time": 144, "annotation": {"number": 64, "value": 0}, "group": "control_change"}, {"time": 146, "annotation": {"number": 64, "value": 127}, "group": "control_change"}, {"time": 191, "annotation": {"number": 64, "value": 0}, "group": "control_change"}, {"time": 194, "annotation": {"number": 64, "value": 127}, "group": "control_change"}, {"time": 241, "annotation": {"number": 64, "value": 0}, "group": "control_change"}, {"time": 244, "annotation": {"number": 64, "value": 127}, "group": "control_change"}, {"time": 287, "annotation": {"number": 64, "value": 0}, "group": "control_change"}, {"time": 290, "annotation": {"number": 64, "value": 127}, "group": "control_change"}, {"time": 336, "annotation": {"number": 64, "value": 0}, "group": "control_change"}, {"time": 338, "annotation": {"number": 64, "value": 127}, "group": "control_change"}, {"time": 382, "annotation": {"number": 64, "value": 0}, "group": "control_change"}, {"time": 385, "annotation": {"number": 64, "value": 127}, "group": "control_change"}, {"time": 431, "annotation": {"number": 64, "value": 0}, "group": "control_change"}, {"time": 434, "annotation": {"number": 64, "value": 127}, "group": "control_change"}, {"time": 480, "annotation": {"number": 64, "value": 0}, "group": "control_change"}, {"time": 482, "annotation": {"number": 64, "value": 127}, "group": "control_change"}, {"time": 504, "annotation": {"number": 64, "value": 0}, "group": "control_change"}, {"time": 505, "annotation": {"number": 64, "value": 127}, "group": "control_change"}, {"time": 528, "annotation": {"number": 64, "value": 0}, "group": "control_change"}, {"time": 530, "annotation": {"number": 64, "value": 127}, "group": "control_change"}, {"time": 541, "annotation": {"number": 64, "value": 0}, "group": "control_change"}, {"time": 541, "annotation": {"number": 64, "value": 127}, "group": "control_change"}, {"time": 551, "annotation": {"number": 64, "value": 0}, "group": "control_change"}, {"time": 553, "annotation": {"number": 64, "value": 127}, "group": "control_change"}, {"time": 565, "annotation": {"number": 64, "value": 0}, "group": "control_change"}, {"time": 566, "annotation": {"number": 64, "value": 127}, "group": "control_change"}, {"time": 576, "annotation": {"number": 64, "value": 0}, "group": "control_change"}, {"time": 578, "annotation": {"number": 64, "value": 127}, "group": "control_change"}, {"time": 588, "annotation": {"number": 64, "value": 0}, "group": "control_change"}, {"time": 589, "annotation": {"number": 64, "value": 127}, "group": "control_change"}, {"time": 599, "annotation": {"number": 64, "value": 0}, "group": "control_change"}, {"time": 601, "annotation": {"number": 64, "value": 127}, "group": "control_change"}, {"time": 612, "annotation": {"number": 64, "value": 0}, "group": "control_change"}, {"time": 614, "annotation": {"number": 64, "value": 127}, "group": "control_change"}, {"time": 623, "annotation": {"number": 64, "value": 0}, "group": "control_change"}, {"time": 626, "annotation": {"number": 64, "value": 127}, "group": "control_change"}, {"time": 636, "annotation": {"number": 64, "value": 0}, "group": "control_change"}, {"time": 637, "annotation": {"number": 64, "value": 127}, "group": "control_change"}, {"time": 672, "annotation": {"number": 64, "value": 0}, "group": "control_change"}, {"time": 674, "annotation": {"number": 64, "value": 127}, "group": "control_change"}, {"time": 709, "annotation": {"number": 64, "value": 0}, "group": "control_change"}, {"time": 710, "annotation": {"number": 64, "value": 127}, "group": "control_change"}, {"time": 721, "annotation": {"number": 64, "value": 0}, "group": "control_change"}, {"time": 722, "annotation": {"number": 64, "value": 127}, "group": "control_change"}, {"time": 815, "annotation": {"number": 64, "value": 0}, "group": "control_change"}, {"time": 818, "annotation": {"number": 64, "value": 127}, "group": "control_change"}, {"time": 862, "annotation": {"number": 64, "value": 0}, "group": "control_change"}, {"time": 865, "annotation": {"number": 64, "value": 127}, "group": "control_change"}, {"time": 912, "annotation": {"number": 64, "value": 0}, "group": "control_change"}, {"time": 915, "annotation": {"number": 64, "value": 127}, "group": "control_change"}, {"time": 924, "annotation": {"number": 64, "value": 0}, "group": "control_change"}, {"time": 927, "annotation": {"number": 64, "value": 127}, "group": "control_change"}, {"time": 936, "annotation": {"number": 64, "value": 0}, "group": "control_change"}, {"time": 939, "annotation": {"number": 64, "value": 127}, "group": "control_change"}, {"time": 948, "annotation": {"number": 64, "value": 0}, "group": "control_change"}, {"time": 950, "annotation": {"number": 64, "value": 127}, "group": "control_change"}, {"time": 959, "annotation": {"number": 64, "value": 0}, "group": "control_change"}, {"time": 962, "annotation": {"number": 64, "value": 127}, "group": "control_change"}, {"time": 971, "annotation": {"number": 64, "value": 0}, "group": "control_change"}, {"time": 974, "annotation": {"number": 64, "value": 127}, "group": "control_change"}, {"time": 983, "annotation": {"number": 64, "value": 0}, "group": "control_change"}, {"time": 985, "annotation": {"number": 64, "value": 127}, "group": "control_change"}, {"time": 996, "annotation": {"number": 64, "value": 0}, "group": "control_change"}, {"time": 997, "annotation": {"number": 64, "value": 127}, "group": "control_change"}, {"time": 1008, "annotation": {"number": 64, "value": 0}, "group": "control_change"}, {"time": 1010, "annotation": {"number": 64, "value": 127}, "group": "control_change"}, {"time": 1020, "annotation": {"number": 64, "value": 0}, "group": "control_change"}, {"time": 1022, "annotation": {"number": 64, "value": 127}, "group": "control_change"}, {"time": 1031, "annotation": {"number": 64, "value": 0}, "group": "control_change"}, {"time": 1034, "annotation": {"number": 64, "value": 127}, "group": "control_change"}, {"time": 1044, "annotation": {"number": 64, "value": 0}, "group": "control_change"}, {"time": 1046, "annotation": {"number": 64, "value": 127}, "group": "control_change"}, {"time": 1056, "annotation": {"number": 64, "value": 0}, "group": "control_change"}, {"time": 1058, "annotation": {"number": 64, "value": 127}, "group": "control_change"}, {"time": 1068, "annotation": {"number": 64, "value": 0}, "group": "control_change"}, {"time": 1070, "annotation": {"number": 64, "value": 127}, "group": "control_change"}, {"time": 1104, "annotation": {"number": 64, "value": 0}, "group": "control_change"}, {"time": 1105, "annotation": {"number": 64, "value": 127}, "group": "control_change"}, {"time": 1116, "annotation": {"number": 64, "value": 0}, "group": "control_change"}, {"time": 1117, "annotation": {"number": 64, "value": 127}, "group": "control_change"}, {"time": 1128, "annotation": {"number": 64, "value": 0}, "group": "control_change"}, {"time": 1129, "annotation": {"number": 64, "value": 127}, "group": "control_change"}, {"time": 1141, "annotation": {"number": 64, "value": 0}, "group": "control_change"}, {"time": 1143, "annotation": {"number": 64, "value": 127}, "group": "control_change"}, {"time": 1152, "annotation": {"number": 64, "value": 0}, "group": "control_change"}, {"time": 1154, "annotation": {"number": 64, "value": 127}, "group": "control_change"}, {"time": 1164, "annotation": {"number": 64, "value": 0}, "group": "control_change"}, {"time": 1166, "annotation": {"number": 64, "value": 127}, "group": "control_change"}, {"time": 1176, "annotation": {"number": 64, "value": 0}, "group": "control_change"}, {"time": 1178, "annotation": {"number": 64, "value": 127}, "group": "control_change"}, {"time": 1188, "annotation": {"number": 64, "value": 0}, "group": "control_change"}, {"time": 1191, "annotation": {"number": 64, "value": 127}, "group": "control_change"}, {"time": 1199, "annotation": {"number": 64, "value": 0}, "group": "control_change"}, {"time": 1202, "annotation": {"number": 64, "value": 127}, "group": "control_change"}, {"time": 1212, "annotation": {"number": 64, "value": 0}, "group": "control_change"}, {"time": 1214, "annotation": {"number": 64, "value": 127}, "group": "control_change"}, {"time": 1223, "annotation": {"number": 64, "value": 0}, "group": "control_change"}, {"time": 1226, "annotation": {"number": 64, "value": 127}, "group": "control_change"}, {"time": 1236, "annotation": {"number": 64, "value": 0}, "group": "control_change"}, {"time": 1239, "annotation": {"number": 64, "value": 127}, "group": "control_change"}, {"time": 1247, "annotation": {"number": 64, "value": 0}, "group": "control_change"}, {"time": 1299, "annotation": {"number": 64, "value": 127}, "group": "control_change"}, {"time": 1307, "annotation": {"number": 64, "value": 0}, "group": "control_change"}, {"time": 1310, "annotation": {"number": 64, "value": 127}, "group": "control_change"}, {"time": 1320, "annotation": {"number": 64, "value": 0}, "group": "control_change"}, {"time": 1322, "annotation": {"number": 64, "value": 127}, "group": "control_change"}, {"time": 1333, "annotation": {"number": 64, "value": 0}, "group": "control_change"}, {"time": 1334, "annotation": {"number": 64, "value": 127}, "group": "control_change"}, {"time": 1344, "annotation": {"number": 64, "value": 0}, "group": "control_change"}, {"time": 1346, "annotation": {"number": 64, "value": 127}, "group": "control_change"}, {"time": 1355, "annotation": {"number": 64, "value": 0}, "group": "control_change"}, {"time": 1358, "annotation": {"number": 64, "value": 127}, "group": "control_change"}, {"time": 1367, "annotation": {"number": 64, "value": 0}, "group": "control_change"}, {"time": 1370, "annotation": {"number": 64, "value": 127}, "group": "control_change"}, {"time": 1381, "annotation": {"number": 64, "value": 0}, "group": "control_change"}, {"time": 1383, "annotation": {"number": 64, "value": 127}, "group": "control_change"}, {"time": 1391, "annotation": {"number": 64, "value": 0}, "group": "control_change"}, {"time": 1394, "annotation": {"number": 64, "value": 127}, "group": "control_change"}, {"time": 1403, "annotation": {"number": 64, "value": 0}, "group": "control_change"}, {"time": 1406, "annotation": {"number": 64, "value": 127}, "group": "control_change"}, {"time": 1416, "annotation": {"number": 64, "value": 0}, "group": "control_change"}, {"time": 1417, "annotation": {"number": 64, "value": 127}, "group": "control_change"}, {"time": 1452, "annotation": {"number": 64, "value": 0}, "group": "control_change"}, {"time": 1453, "annotation": {"number": 64, "value": 127}, "group": "control_change"}, {"time": 1488, "annotation": {"number": 64, "value": 0}, "group": "control_change"}, {"time": 1490, "annotation": {"number": 64, "value": 127}, "group": "control_change"}, {"time": 1501, "annotation": {"number": 64, "value": 0}, "group": "control_change"}, {"time": 1501, "annotation": {"number": 64, "value": 127}, "group": "control_change"}, {"time": 1584, "annotation": {"number": 64, "value": 0}, "group": "control_change"}, {"time": 1586, "annotation": {"number": 64, "value": 127}, "group": "control_change"}, {"time": 1632, "annotation": {"number": 64, "value": 0}, "group": "control_change"}, {"time": 1634, "annotation": {"number": 64, "value": 127}, "group": "control_change"}, {"time": 1679, "annotation": {"number": 64, "value": 0}, "group": "control_change"}, {"time": 1681, "annotation": {"number": 64, "value": 127}, "group": "control_change"}, {"time": 1733, "annotation": {"number": 64, "value": 0}, "group": "control_change"}, {"time": 1741, "annotation": {"number": 64, "value": 127}, "group": "control_change"}, {"time": 1775, "annotation": {"number": 64, "value": 0}, "group": "control_change"}, {"time": 1778, "annotation": {"number": 64, "value": 127}, "group": "control_change"}, {"time": 1823, "annotation": {"number": 64, "value": 0}, "group": "control_change"}, {"time": 1825, "annotation": {"number": 64, "value": 127}, "group": "control_change"}, {"time": 1861, "annotation": {"number": 64, "value": 0}, "group": "control_change"}, {"time": 1862, "annotation": {"number": 64, "value": 127}, "group": "control_change"}, {"time": 1871, "annotation": {"number": 64, "value": 0}, "group": "control_change"}, {"time": 1874, "annotation": {"number": 64, "value": 127}, "group": "control_change"}, {"time": 1909, "annotation": {"number": 64, "value": 0}, "group": "control_change"}, {"time": 1910, "annotation": {"number": 64, "value": 127}, "group": "control_change"}, {"time": 1920, "annotation": {"number": 64, "value": 0}, "group": "control_change"}, {"time": 1922, "annotation": {"number": 64, "value": 127}, "group": "control_change"}, {"time": 1957, "annotation": {"number": 64, "value": 0}, "group": "control_change"}, {"time": 1958, "annotation": {"number": 64, "value": 127}, "group": "control_change"}, {"time": 1967, "annotation": {"number": 64, "value": 0}, "group": "control_change"}, {"time": 1969, "annotation": {"number": 64, "value": 127}, "group": "control_change"}, {"time": 2014, "annotation": {"number": 64, "value": 0}, "group": "control_change"}, {"time": 2017, "annotation": {"number": 64, "value": 127}, "group": "control_change"}, {"time": 2018, "annotation": {"number": 64, "value": 127}, "group": "control_change"}, {"time": 2061, "annotation": {"number": 64, "value": 0}, "group": "control_change"}, {"time": 2065, "annotation": {"number": 64, "value": 127}, "group": "control_change"}, {"time": 2112, "annotation": {"number": 64, "value": 0}, "group": "control_change"}, {"time": 2115, "annotation": {"number": 64, "value": 127}, "group": "control_change"}, {"time": 2158, "annotation": {"number": 64, "value": 0}, "group": "control_change"}, {"time": 2162, "annotation": {"number": 64, "value": 127}, "group": "control_change"}, {"time": 2207, "annotation": {"number": 64, "value": 0}, "group": "control_change"}, {"time": 2212, "annotation": {"number": 64, "value": 127}, "group": "control_change"}, {"time": 2256, "annotation": {"number": 64, "value": 0}, "group": "control_change"}, {"time": 2306, "annotation": {"number": 64, "value": 127}, "group": "control_change"}, {"time": 2316, "annotation": {"number": 64, "value": 0}, "group": "control_change"}, {"time": 2328, "annotation": {"number": 64, "value": 0}, "group": "control_change"}, {"time": 2329, "annotation": {"number": 64, "value": 127}, "group": "control_change"}, {"time": 2351, "annotation": {"number": 64, "value": 0}, "group": "control_change"}, {"time": 2354, "annotation": {"number": 64, "value": 127}, "group": "control_change"}, {"time": 2365, "annotation": {"number": 64, "value": 0}, "group": "control_change"}, {"time": 2365, "annotation": {"number": 64, "value": 127}, "group": "control_change"}, {"time": 2375, "annotation": {"number": 64, "value": 0}, "group": "control_change"}, {"time": 2377, "annotation": {"number": 64, "value": 127}, "group": "control_change"}, {"time": 2389, "annotation": {"number": 64, "value": 0}, "group": "control_change"}, {"time": 2390, "annotation": {"number": 64, "value": 127}, "group": "control_change"}, {"time": 2400, "annotation": {"number": 64, "value": 0}, "group": "control_change"}, {"time": 2402, "annotation": {"number": 64, "value": 127}, "group": "control_change"}, {"time": 2412, "annotation": {"number": 64, "value": 0}, "group": "control_change"}, {"time": 2413, "annotation": {"number": 64, "value": 127}, "group": "control_change"}, {"time": 2423, "annotation": {"number": 64, "value": 0}, "group": "control_change"}, {"time": 2424, "annotation": {"number": 64, "value": 127}, "group": "control_change"}, {"time": 2436, "annotation": {"number": 64, "value": 0}, "group": "control_change"}, {"time": 2437, "annotation": {"number": 64, "value": 127}, "group": "control_change"}, {"time": 2447, "annotation": {"number": 64, "value": 0}, "group": "control_change"}, {"time": 2450, "annotation": {"number": 64, "value": 127}, "group": "control_change"}, {"time": 2459, "annotation": {"number": 64, "value": 0}, "group": "control_change"}, {"time": 2461, "annotation": {"number": 64, "value": 127}, "group": "control_change"}, {"time": 2496, "annotation": {"number": 64, "value": 0}, "group": "control_change"}, {"time": 2498, "annotation": {"number": 64, "value": 127}, "group": "control_change"}, {"time": 2533, "annotation": {"number": 64, "value": 0}, "group": "control_change"}, {"time": 2534, "annotation": {"number": 64, "value": 127}, "group": "control_change"}, {"time": 2544, "annotation": {"number": 64, "value": 0}, "group": "control_change"}, {"time": 2545, "annotation": {"number": 64, "value": 127}, "group": "control_change"}, {"time": 2639, "annotation": {"number": 64, "value": 0}, "group": "control_change"}, {"time": 2641, "annotation": {"number": 64, "value": 127}, "group": "control_change"}, {"time": 2686, "annotation": {"number": 64, "value": 0}, "group": "control_change"}, {"time": 2689, "annotation": {"number": 64, "value": 127}, "group": "control_change"}, {"time": 2735, "annotation": {"number": 64, "value": 0}, "group": "control_change"}, {"time": 2738, "annotation": {"number": 64, "value": 127}, "group": "control_change"}, {"time": 2748, "annotation": {"number": 64, "value": 0}, "group": "control_change"}, {"time": 2751, "annotation": {"number": 64, "value": 127}, "group": "control_change"}, {"time": 2760, "annotation": {"number": 64, "value": 0}, "group": "control_change"}, {"time": 2762, "annotation": {"number": 64, "value": 127}, "group": "control_change"}, {"time": 2772, "annotation": {"number": 64, "value": 0}, "group": "control_change"}, {"time": 2774, "annotation": {"number": 64, "value": 127}, "group": "control_change"}, {"time": 2783, "annotation": {"number": 64, "value": 0}, "group": "control_change"}, {"time": 2786, "annotation": {"number": 64, "value": 127}, "group": "control_change"}, {"time": 2795, "annotation": {"number": 64, "value": 0}, "group": "control_change"}, {"time": 2797, "annotation": {"number": 64, "value": 127}, "group": "control_change"}, {"time": 2807, "annotation": {"number": 64, "value": 0}, "group": "control_change"}, {"time": 2809, "annotation": {"number": 64, "value": 127}, "group": "control_change"}, {"time": 2820, "annotation": {"number": 64, "value": 0}, "group": "control_change"}, {"time": 2821, "annotation": {"number": 64, "value": 127}, "group": "control_change"}, {"time": 2831, "annotation": {"number": 64, "value": 0}, "group": "control_change"}, {"time": 2833, "annotation": {"number": 64, "value": 127}, "group": "control_change"}, {"time": 2844, "annotation": {"number": 64, "value": 0}, "group": "control_change"}, {"time": 2846, "annotation": {"number": 64, "value": 127}, "group": "control_change"}, {"time": 2855, "annotation": {"number": 64, "value": 0}, "group": "control_change"}, {"time": 2857, "annotation": {"number": 64, "value": 127}, "group": "control_change"}, {"time": 2867, "annotation": {"number": 64, "value": 0}, "group": "control_change"}, {"time": 2870, "annotation": {"number": 64, "value": 127}, "group": "control_change"}, {"time": 2879, "annotation": {"number": 64, "value": 0}, "group": "control_change"}, {"time": 2882, "annotation": {"number": 64, "value": 127}, "group": "control_change"}, {"time": 2891, "annotation": {"number": 64, "value": 0}, "group": "control_change"}, {"time": 2894, "annotation": {"number": 64, "value": 127}, "group": "control_change"}, {"time": 2927, "annotation": {"number": 64, "value": 0}, "group": "control_change"}, {"time": 2929, "annotation": {"number": 64, "value": 127}, "group": "control_change"}, {"time": 2940, "annotation": {"number": 64, "value": 0}, "group": "control_change"}, {"time": 2941, "annotation": {"number": 64, "value": 127}, "group": "control_change"}, {"time": 2952, "annotation": {"number": 64, "value": 0}, "group": "control_change"}, {"time": 2953, "annotation": {"number": 64, "value": 127}, "group": "control_change"}, {"time": 2965, "annotation": {"number": 64, "value": 0}, "group": "control_change"}, {"time": 2966, "annotation": {"number": 64, "value": 127}, "group": "control_change"}, {"time": 2975, "annotation": {"number": 64, "value": 0}, "group": "control_change"}, {"time": 2978, "annotation": {"number": 64, "value": 127}, "group": "control_change"}, {"time": 2988, "annotation": {"number": 64, "value": 0}, "group": "control_change"}, {"time": 2989, "annotation": {"number": 64, "value": 127}, "group": "control_change"}, {"time": 3000, "annotation": {"number": 64, "value": 0}, "group": "control_change"}, {"time": 3002, "annotation": {"number": 64, "value": 127}, "group": "control_change"}, {"time": 3012, "annotation": {"number": 64, "value": 0}, "group": "control_change"}, {"time": 3014, "annotation": {"number": 64, "value": 127}, "group": "control_change"}, {"time": 3022, "annotation": {"number": 64, "value": 0}, "group": "control_change"}, {"time": 3025, "annotation": {"number": 64, "value": 127}, "group": "control_change"}, {"time": 3036, "annotation": {"number": 64, "value": 0}, "group": "control_change"}, {"time": 3038, "annotation": {"number": 64, "value": 127}, "group": "control_change"}, {"time": 3047, "annotation": {"number": 64, "value": 0}, "group": "control_change"}, {"time": 3049, "annotation": {"number": 64, "value": 127}, "group": "control_change"}, {"time": 3060, "annotation": {"number": 64, "value": 0}, "group": "control_change"}, {"time": 3062, "annotation": {"number": 64, "value": 127}, "group": "control_change"}, {"time": 3070, "annotation": {"number": 64, "value": 0}, "group": "control_change"}, {"time": 3122, "annotation": {"number": 64, "value": 127}, "group": "control_change"}, {"time": 3131, "annotation": {"number": 64, "value": 0}, "group": "control_change"}, {"time": 3134, "annotation": {"number": 64, "value": 127}, "group": "control_change"}, {"time": 3143, "annotation": {"number": 64, "value": 0}, "group": "control_change"}, {"time": 3145, "annotation": {"number": 64, "value": 127}, "group": "control_change"}, {"time": 3157, "annotation": {"number": 64, "value": 0}, "group": "control_change"}, {"time": 3158, "annotation": {"number": 64, "value": 127}, "group": "control_change"}, {"time": 3167, "annotation": {"number": 64, "value": 0}, "group": "control_change"}, {"time": 3170, "annotation": {"number": 64, "value": 127}, "group": "control_change"}, {"time": 3179, "annotation": {"number": 64, "value": 0}, "group": "control_change"}, {"time": 3181, "annotation": {"number": 64, "value": 127}, "group": "control_change"}, {"time": 3190, "annotation": {"number": 64, "value": 0}, "group": "control_change"}, {"time": 3193, "annotation": {"number": 64, "value": 127}, "group": "control_change"}, {"time": 3204, "annotation": {"number": 64, "value": 0}, "group": "control_change"}, {"time": 3206, "annotation": {"number": 64, "value": 127}, "group": "control_change"}, {"time": 3215, "annotation": {"number": 64, "value": 0}, "group": "control_change"}, {"time": 3218, "annotation": {"number": 64, "value": 127}, "group": "control_change"}, {"time": 3227, "annotation": {"number": 64, "value": 0}, "group": "control_change"}, {"time": 3230, "annotation": {"number": 64, "value": 127}, "group": "control_change"}, {"time": 3240, "annotation": {"number": 64, "value": 0}, "group": "control_change"}, {"time": 3241, "annotation": {"number": 64, "value": 127}, "group": "control_change"}, {"time": 3276, "annotation": {"number": 64, "value": 0}, "group": "control_change"}, {"time": 3277, "annotation": {"number": 64, "value": 127}, "group": "control_change"}, {"time": 3311, "annotation": {"number": 64, "value": 0}, "group": "control_change"}, {"time": 3313, "annotation": {"number": 64, "value": 127}, "group": "control_change"}, {"time": 3324, "annotation": {"number": 64, "value": 0}, "group": "control_change"}, {"time": 3324, "annotation": {"number": 64, "value": 127}, "group": "control_change"}, {"time": 3407, "annotation": {"number": 64, "value": 0}, "group": "control_change"}, {"time": 3409, "annotation": {"number": 64, "value": 127}, "group": "control_change"}, {"time": 3456, "annotation": {"number": 64, "value": 0}, "group": "control_change"}, {"time": 3458, "annotation": {"number": 64, "value": 127}, "group": "control_change"}, {"time": 3502, "annotation": {"number": 64, "value": 0}, "group": "control_change"}, {"time": 3505, "annotation": {"number": 64, "value": 127}, "group": "control_change"}, {"time": 3557, "annotation": {"number": 64, "value": 0}, "group": "control_change"}, {"time": 3565, "annotation": {"number": 64, "value": 127}, "group": "control_change"}, {"time": 3599, "annotation": {"number": 64, "value": 0}, "group": "control_change"}, {"time": 3601, "annotation": {"number": 64, "value": 127}, "group": "control_change"}, {"time": 3647, "annotation": {"number": 64, "value": 0}, "group": "control_change"}, {"time": 3649, "annotation": {"number": 64, "value": 127}, "group": "control_change"}, {"time": 3684, "annotation": {"number": 64, "value": 0}, "group": "control_change"}, {"time": 3686, "annotation": {"number": 64, "value": 127}, "group": "control_change"}, {"time": 3695, "annotation": {"number": 64, "value": 0}, "group": "control_change"}, {"time": 3697, "annotation": {"number": 64, "value": 127}, "group": "control_change"}, {"time": 3732, "annotation": {"number": 64, "value": 0}, "group": "control_change"}, {"time": 3733, "annotation": {"number": 64, "value": 127}, "group": "control_change"}, {"time": 3743, "annotation": {"number": 64, "value": 0}, "group": "control_change"}, {"time": 3745, "annotation": {"number": 64, "value": 127}, "group": "control_change"}, {"time": 3781, "annotation": {"number": 64, "value": 0}, "group": "control_change"}, {"time": 3782, "annotation": {"number": 64, "value": 127}, "group": "control_change"}, {"time": 3791, "annotation": {"number": 64, "value": 0}, "group": "control_change"}, {"time": 3793, "annotation": {"number": 64, "value": 127}, "group": "control_change"}, {"time": 3838, "annotation": {"number": 64, "value": 0}, "group": "control_change"}, {"time": 3840, "annotation": {"number": 64, "value": 127}, "group": "control_change"}, {"time": 3842, "annotation": {"number": 64, "value": 127}, "group": "control_change"}, {"time": 3884, "annotation": {"number": 64, "value": 0}, "group": "control_change"}, {"time": 3889, "annotation": {"number": 64, "value": 127}, "group": "control_change"}, {"time": 3933, "annotation": {"number": 64, "value": 0}, "group": "control_change"}, {"time": 3937, "annotation": {"number": 64, "value": 127}, "group": "control_change"}, {"time": 3982, "annotation": {"number": 64, "value": 0}, "group": "control_change"}, {"time": 3995, "annotation": {"number": 64, "value": 0}, "group": "control_change"}, {"time": 3998, "annotation": {"number": 64, "value": 127}, "group": "control_change"}, {"time": 4008, "annotation": {"number": 64, "value": 0}, "group": "control_change"}, {"time": 4009, "annotation": {"number": 64, "value": 127}, "group": "control_change"}, {"time": 4044, "annotation": {"number": 64, "value": 0}, "group": "control_change"}, {"time": 4045, "annotation": {"number": 64, "value": 127}, "group": "control_change"}, {"time": 4079, "annotation": {"number": 64, "value": 0}, "group": "control_change"}, {"time": 4081, "annotation": {"number": 64, "value": 127}, "group": "control_change"}, {"time": 4092, "annotation": {"number": 64, "value": 0}, "group": "control_change"}, {"time": 4092, "annotation": {"number": 64, "value": 127}, "group": "control_change"}, {"time": 4175, "annotation": {"number": 64, "value": 0}, "group": "control_change"}, {"time": 4177, "annotation": {"number": 64, "value": 127}, "group": "control_change"}, {"time": 4224, "annotation": {"number": 64, "value": 0}, "group": "control_change"}, {"time": 4226, "annotation": {"number": 64, "value": 127}, "group": "control_change"}, {"time": 4270, "annotation": {"number": 64, "value": 0}, "group": "control_change"}, {"time": 4273, "annotation": {"number": 64, "value": 127}, "group": "control_change"}, {"time": 4325, "annotation": {"number": 64, "value": 0}, "group": "control_change"}, {"time": 4333, "annotation": {"number": 64, "value": 127}, "group": "control_change"}, {"time": 4367, "annotation": {"number": 64, "value": 0}, "group": "control_change"}, {"time": 4369, "annotation": {"number": 64, "value": 127}, "group": "control_change"}, {"time": 4415, "annotation": {"number": 64, "value": 0}, "group": "control_change"}, {"time": 4417, "annotation": {"number": 64, "value": 127}, "group": "control_change"}, {"time": 4452, "annotation": {"number": 64, "value": 0}, "group": "control_change"}, {"time": 4454, "annotation": {"number": 64, "value": 127}, "group": "control_change"}, {"time": 4463, "annotation": {"number": 64, "value": 0}, "group": "control_change"}, {"time": 4465, "annotation": {"number": 64, "value": 127}, "group": "control_change"}, {"time": 4500, "annotation": {"number": 64, "value": 0}, "group": "control_change"}, {"time": 4501, "annotation": {"number": 64, "value": 127}, "group": "control_change"}, {"time": 4511, "annotation": {"number": 64, "value": 0}, "group": "control_change"}, {"time": 4513, "annotation": {"number": 64, "value": 127}, "group": "control_change"}, {"time": 4549, "annotation": {"number": 64, "value": 0}, "group": "control_change"}, {"time": 4550, "annotation": {"number": 64, "value": 127}, "group": "control_change"}, {"time": 4559, "annotation": {"number": 64, "value": 0}, "group": "control_change"}, {"time": 4561, "annotation": {"number": 64, "value": 127}, "group": "control_change"}, {"time": 4606, "annotation": {"number": 64, "value": 0}, "group": "control_change"}, {"time": 4608, "annotation": {"number": 64, "value": 127}, "group": "control_change"}, {"time": 4610, "annotation": {"number": 64, "value": 127}, "group": "control_change"}, {"time": 4611, "annotation": {"number": 64, "value": 127}, "group": "control_change"}, {"time": 4652, "annotation": {"number": 64, "value": 0}, "group": "control_change"}, {"time": 4657, "annotation": {"number": 64, "value": 127}, "group": "control_change"}, {"time": 4701, "annotation": {"number": 64, "value": 0}, "group": "control_change"}, {"time": 4706, "annotation": {"number": 64, "value": 127}, "group": "control_change"}, {"time": 4749, "annotation": {"number": 64, "value": 0}, "group": "control_change"}, {"time": 4754, "annotation": {"number": 64, "value": 127}, "group": "control_change"}, {"time": 4798, "annotation": {"number": 64, "value": 0}, "group": "control_change"}, {"time": 4803, "annotation": {"number": 64, "value": 127}, "group": "control_change"}, {"time": 4845, "annotation": {"number": 64, "value": 0}, "group": "control_change"}, {"time": 4850, "annotation": {"number": 64, "value": 127}, "group": "control_change"}, {"time": 4894, "annotation": {"number": 64, "value": 0}, "group": "control_change"}, {"time": 4898, "annotation": {"number": 64, "value": 127}, "group": "control_change"}, {"time": 4942, "annotation": {"number": 64, "value": 0}, "group": "control_change"}, {"time": 4970, "annotation": {"number": 64, "value": 127}, "group": "control_change"}]}]}