{"metadata": {"schema_version": "0.2", "title": "None", "source_filename": "050.mid", "source_format": "midi"}, "resolution": 12, "tempos": [{"time": 0, "qpm": 64.99999458333379}], "time_signatures": [{"time": 0, "numerator": 1, "denominator": 4}], "tracks": [{"program": 4, "is_drum": false, "name": "MELODY", "notes": [{"time": 244, "pitch": 67, "duration": 2, "velocity": 73}, {"time": 247, "pitch": 67, "duration": 3, "velocity": 73}, {"time": 250, "pitch": 62, "duration": 2, "velocity": 55}, {"time": 253, "pitch": 62, "duration": 2, "velocity": 67}, {"time": 256, "pitch": 69, "duration": 1, "velocity": 71}, {"time": 259, "pitch": 69, "duration": 2, "velocity": 85}, {"time": 262, "pitch": 67, "duration": 2, "velocity": 70}, {"time": 265, "pitch": 69, "duration": 5, "velocity": 111}, {"time": 271, "pitch": 69, "duration": 2, "velocity": 74}, {"time": 274, "pitch": 69, "duration": 4, "velocity": 75}, {"time": 280, "pitch": 67, "duration": 2, "velocity": 86}, {"time": 283, "pitch": 66, "duration": 2, "velocity": 61}, {"time": 286, "pitch": 67, "duration": 5, "velocity": 75}, {"time": 292, "pitch": 67, "duration": 1, "velocity": 64}, {"time": 295, "pitch": 67, "duration": 2, "velocity": 73}, {"time": 298, "pitch": 62, "duration": 2, "velocity": 60}, {"time": 301, "pitch": 62, "duration": 2, "velocity": 63}, {"time": 304, "pitch": 69, "duration": 1, "velocity": 69}, {"time": 307, "pitch": 69, "duration": 2, "velocity": 85}, {"time": 310, "pitch": 67, "duration": 2, "velocity": 66}, {"time": 313, "pitch": 69, "duration": 4, "velocity": 104}, {"time": 319, "pitch": 69, "duration": 1, "velocity": 70}, {"time": 322, "pitch": 69, "duration": 4, "velocity": 74}, {"time": 328, "pitch": 67, "duration": 2, "velocity": 98}, {"time": 331, "pitch": 66, "duration": 2, "velocity": 63}, {"time": 334, "pitch": 67, "duration": 3, "velocity": 83}, {"time": 340, "pitch": 67, "duration": 1, "velocity": 75}, {"time": 343, "pitch": 67, "duration": 3, "velocity": 76}, {"time": 346, "pitch": 62, "duration": 2, "velocity": 74}, {"time": 349, "pitch": 67, "duration": 5, "velocity": 95}, {"time": 352, "pitch": 69, "duration": 1, "velocity": 70}, {"time": 355, "pitch": 69, "duration": 3, "velocity": 81}, {"time": 358, "pitch": 67, "duration": 2, "velocity": 70}, {"time": 361, "pitch": 74, "duration": 5, "velocity": 73}, {"time": 367, "pitch": 74, "duration": 3, "velocity": 72}, {"time": 370, "pitch": 69, "duration": 4, "velocity": 67}, {"time": 376, "pitch": 71, "duration": 4, "velocity": 72}, {"time": 379, "pitch": 69, "duration": 3, "velocity": 73}, {"time": 382, "pitch": 67, "duration": 7, "velocity": 83}, {"time": 388, "pitch": 67, "duration": 1, "velocity": 81}, {"time": 391, "pitch": 67, "duration": 2, "velocity": 77}, {"time": 394, "pitch": 62, "duration": 2, "velocity": 72}, {"time": 397, "pitch": 67, "duration": 2, "velocity": 83}, {"time": 400, "pitch": 69, "duration": 2, "velocity": 70}, {"time": 403, "pitch": 69, "duration": 2, "velocity": 75}, {"time": 406, "pitch": 67, "duration": 2, "velocity": 72}, {"time": 409, "pitch": 69, "duration": 9, "velocity": 83}, {"time": 418, "pitch": 69, "duration": 1, "velocity": 86}, {"time": 421, "pitch": 69, "duration": 2, "velocity": 93}, {"time": 424, "pitch": 71, "duration": 5, "velocity": 79}, {"time": 433, "pitch": 69, "duration": 5, "velocity": 87}, {"time": 442, "pitch": 67, "duration": 27, "velocity": 81}, {"time": 469, "pitch": 67, "duration": 1, "velocity": 95}, {"time": 472, "pitch": 69, "duration": 4, "velocity": 69}, {"time": 475, "pitch": 71, "duration": 2, "velocity": 85}, {"time": 478, "pitch": 72, "duration": 1, "velocity": 76}, {"time": 481, "pitch": 74, "duration": 10, "velocity": 90}, {"time": 493, "pitch": 67, "duration": 8, "velocity": 104}, {"time": 499, "pitch": 69, "duration": 3, "velocity": 87}, {"time": 505, "pitch": 69, "duration": 9, "velocity": 98}, {"time": 517, "pitch": 66, "duration": 3, "velocity": 73}, {"time": 520, "pitch": 67, "duration": 4, "velocity": 86}, {"time": 523, "pitch": 69, "duration": 3, "velocity": 74}, {"time": 526, "pitch": 62, "duration": 3, "velocity": 59}, {"time": 529, "pitch": 74, "duration": 5, "velocity": 87}, {"time": 541, "pitch": 69, "duration": 5, "velocity": 85}, {"time": 547, "pitch": 71, "duration": 6, "velocity": 98}, {"time": 553, "pitch": 67, "duration": 11, "velocity": 95}, {"time": 565, "pitch": 67, "duration": 4, "velocity": 77}, {"time": 568, "pitch": 69, "duration": 3, "velocity": 65}, {"time": 571, "pitch": 71, "duration": 3, "velocity": 74}, {"time": 574, "pitch": 67, "duration": 3, "velocity": 72}, {"time": 577, "pitch": 74, "duration": 11, "velocity": 95}, {"time": 589, "pitch": 67, "duration": 5, "velocity": 90}, {"time": 595, "pitch": 69, "duration": 4, "velocity": 76}, {"time": 601, "pitch": 69, "duration": 8, "velocity": 93}, {"time": 610, "pitch": 66, "duration": 1, "velocity": 63}, {"time": 613, "pitch": 66, "duration": 2, "velocity": 69}, {"time": 616, "pitch": 67, "duration": 2, "velocity": 74}, {"time": 619, "pitch": 69, "duration": 5, "velocity": 81}, {"time": 625, "pitch": 72, "duration": 5, "velocity": 93}, {"time": 631, "pitch": 71, "duration": 1, "velocity": 66}, {"time": 634, "pitch": 69, "duration": 1, "velocity": 72}, {"time": 637, "pitch": 69, "duration": 2, "velocity": 76}, {"time": 640, "pitch": 67, "duration": 2, "velocity": 66}, {"time": 643, "pitch": 71, "duration": 3, "velocity": 93}, {"time": 649, "pitch": 69, "duration": 5, "velocity": 79}, {"time": 658, "pitch": 62, "duration": 2, "velocity": 62}, {"time": 661, "pitch": 74, "duration": 2, "velocity": 72}, {"time": 664, "pitch": 72, "duration": 2, "velocity": 63}, {"time": 667, "pitch": 71, "duration": 2, "velocity": 75}, {"time": 670, "pitch": 69, "duration": 2, "velocity": 61}, {"time": 673, "pitch": 69, "duration": 3, "velocity": 85}, {"time": 676, "pitch": 71, "duration": 4, "velocity": 66}, {"time": 682, "pitch": 71, "duration": 2, "velocity": 76}, {"time": 685, "pitch": 74, "duration": 1, "velocity": 75}, {"time": 688, "pitch": 76, "duration": 2, "velocity": 73}, {"time": 691, "pitch": 74, "duration": 1, "velocity": 73}, {"time": 694, "pitch": 76, "duration": 1, "velocity": 72}, {"time": 697, "pitch": 74, "duration": 4, "velocity": 87}, {"time": 700, "pitch": 69, "duration": 4, "velocity": 79}, {"time": 706, "pitch": 69, "duration": 2, "velocity": 63}, {"time": 709, "pitch": 79, "duration": 2, "velocity": 95}, {"time": 712, "pitch": 78, "duration": 1, "velocity": 86}, {"time": 715, "pitch": 79, "duration": 1, "velocity": 85}, {"time": 718, "pitch": 78, "duration": 1, "velocity": 77}, {"time": 721, "pitch": 76, "duration": 2, "velocity": 75}, {"time": 727, "pitch": 79, "duration": 6, "velocity": 93}, {"time": 733, "pitch": 78, "duration": 2, "velocity": 79}, {"time": 736, "pitch": 74, "duration": 4, "velocity": 79}, {"time": 745, "pitch": 71, "duration": 6, "velocity": 93}, {"time": 754, "pitch": 71, "duration": 2, "velocity": 77}, {"time": 757, "pitch": 79, "duration": 2, "velocity": 87}, {"time": 760, "pitch": 78, "duration": 2, "velocity": 69}, {"time": 763, "pitch": 79, "duration": 3, "velocity": 85}, {"time": 766, "pitch": 78, "duration": 1, "velocity": 67}, {"time": 769, "pitch": 76, "duration": 7, "velocity": 76}, {"time": 775, "pitch": 79, "duration": 6, "velocity": 108}, {"time": 781, "pitch": 78, "duration": 2, "velocity": 76}, {"time": 787, "pitch": 74, "duration": 2, "velocity": 77}, {"time": 790, "pitch": 71, "duration": 7, "velocity": 93}, {"time": 802, "pitch": 71, "duration": 1, "velocity": 90}, {"time": 805, "pitch": 71, "duration": 2, "velocity": 95}, {"time": 808, "pitch": 69, "duration": 1, "velocity": 72}, {"time": 811, "pitch": 69, "duration": 2, "velocity": 79}, {"time": 814, "pitch": 71, "duration": 1, "velocity": 93}, {"time": 817, "pitch": 71, "duration": 5, "velocity": 95}, {"time": 823, "pitch": 69, "duration": 1, "velocity": 73}, {"time": 826, "pitch": 69, "duration": 4, "velocity": 74}, {"time": 832, "pitch": 67, "duration": 2, "velocity": 64}, {"time": 835, "pitch": 71, "duration": 4, "velocity": 93}, {"time": 841, "pitch": 69, "duration": 8, "velocity": 98}, {"time": 850, "pitch": 62, "duration": 2, "velocity": 62}, {"time": 853, "pitch": 74, "duration": 2, "velocity": 72}, {"time": 856, "pitch": 72, "duration": 2, "velocity": 63}, {"time": 859, "pitch": 71, "duration": 2, "velocity": 75}, {"time": 862, "pitch": 69, "duration": 2, "velocity": 61}, {"time": 865, "pitch": 69, "duration": 3, "velocity": 85}, {"time": 868, "pitch": 71, "duration": 4, "velocity": 66}, {"time": 874, "pitch": 71, "duration": 2, "velocity": 76}, {"time": 877, "pitch": 74, "duration": 1, "velocity": 75}, {"time": 880, "pitch": 76, "duration": 2, "velocity": 73}, {"time": 883, "pitch": 74, "duration": 1, "velocity": 73}, {"time": 886, "pitch": 76, "duration": 1, "velocity": 72}, {"time": 889, "pitch": 74, "duration": 4, "velocity": 87}, {"time": 892, "pitch": 69, "duration": 4, "velocity": 79}, {"time": 898, "pitch": 69, "duration": 2, "velocity": 63}, {"time": 901, "pitch": 79, "duration": 2, "velocity": 95}, {"time": 904, "pitch": 78, "duration": 1, "velocity": 86}, {"time": 907, "pitch": 79, "duration": 1, "velocity": 85}, {"time": 910, "pitch": 78, "duration": 1, "velocity": 77}, {"time": 913, "pitch": 76, "duration": 2, "velocity": 75}, {"time": 919, "pitch": 79, "duration": 6, "velocity": 93}, {"time": 925, "pitch": 78, "duration": 2, "velocity": 79}, {"time": 928, "pitch": 74, "duration": 4, "velocity": 79}, {"time": 937, "pitch": 71, "duration": 6, "velocity": 93}, {"time": 946, "pitch": 71, "duration": 2, "velocity": 77}, {"time": 949, "pitch": 79, "duration": 2, "velocity": 87}, {"time": 952, "pitch": 78, "duration": 2, "velocity": 69}, {"time": 955, "pitch": 79, "duration": 3, "velocity": 85}, {"time": 958, "pitch": 78, "duration": 1, "velocity": 67}, {"time": 961, "pitch": 76, "duration": 7, "velocity": 76}, {"time": 967, "pitch": 79, "duration": 6, "velocity": 108}, {"time": 973, "pitch": 78, "duration": 2, "velocity": 76}, {"time": 979, "pitch": 74, "duration": 2, "velocity": 77}, {"time": 982, "pitch": 71, "duration": 7, "velocity": 93}, {"time": 994, "pitch": 71, "duration": 1, "velocity": 90}, {"time": 997, "pitch": 71, "duration": 2, "velocity": 95}, {"time": 1000, "pitch": 69, "duration": 1, "velocity": 72}, {"time": 1003, "pitch": 69, "duration": 2, "velocity": 79}, {"time": 1006, "pitch": 71, "duration": 1, "velocity": 93}, {"time": 1009, "pitch": 71, "duration": 5, "velocity": 95}, {"time": 1012, "pitch": 69, "duration": 2, "velocity": 85}, {"time": 1018, "pitch": 69, "duration": 2, "velocity": 83}, {"time": 1021, "pitch": 69, "duration": 2, "velocity": 95}, {"time": 1024, "pitch": 69, "duration": 2, "velocity": 85}, {"time": 1030, "pitch": 69, "duration": 1, "velocity": 79}, {"time": 1033, "pitch": 71, "duration": 5, "velocity": 95}, {"time": 1042, "pitch": 69, "duration": 5, "velocity": 90}, {"time": 1051, "pitch": 69, "duration": 4, "velocity": 93}, {"time": 1057, "pitch": 67, "duration": 25, "velocity": 90}, {"time": 1252, "pitch": 67, "duration": 2, "velocity": 73}, {"time": 1255, "pitch": 67, "duration": 3, "velocity": 73}, {"time": 1258, "pitch": 62, "duration": 2, "velocity": 55}, {"time": 1261, "pitch": 62, "duration": 2, "velocity": 67}, {"time": 1264, "pitch": 69, "duration": 1, "velocity": 71}, {"time": 1267, "pitch": 69, "duration": 2, "velocity": 85}, {"time": 1270, "pitch": 67, "duration": 2, "velocity": 70}, {"time": 1273, "pitch": 69, "duration": 5, "velocity": 111}, {"time": 1279, "pitch": 69, "duration": 2, "velocity": 74}, {"time": 1282, "pitch": 69, "duration": 4, "velocity": 75}, {"time": 1288, "pitch": 67, "duration": 2, "velocity": 86}, {"time": 1291, "pitch": 66, "duration": 2, "velocity": 61}, {"time": 1294, "pitch": 67, "duration": 5, "velocity": 75}, {"time": 1300, "pitch": 67, "duration": 1, "velocity": 64}, {"time": 1303, "pitch": 67, "duration": 2, "velocity": 73}, {"time": 1306, "pitch": 62, "duration": 2, "velocity": 60}, {"time": 1309, "pitch": 62, "duration": 2, "velocity": 63}, {"time": 1312, "pitch": 69, "duration": 1, "velocity": 69}, {"time": 1315, "pitch": 69, "duration": 2, "velocity": 85}, {"time": 1318, "pitch": 67, "duration": 2, "velocity": 66}, {"time": 1321, "pitch": 69, "duration": 4, "velocity": 104}, {"time": 1327, "pitch": 69, "duration": 1, "velocity": 70}, {"time": 1330, "pitch": 69, "duration": 4, "velocity": 74}, {"time": 1336, "pitch": 67, "duration": 2, "velocity": 98}, {"time": 1339, "pitch": 66, "duration": 2, "velocity": 63}, {"time": 1342, "pitch": 67, "duration": 3, "velocity": 83}, {"time": 1348, "pitch": 67, "duration": 1, "velocity": 75}, {"time": 1351, "pitch": 67, "duration": 3, "velocity": 76}, {"time": 1354, "pitch": 62, "duration": 2, "velocity": 74}, {"time": 1357, "pitch": 67, "duration": 5, "velocity": 95}, {"time": 1360, "pitch": 69, "duration": 1, "velocity": 70}, {"time": 1363, "pitch": 69, "duration": 3, "velocity": 81}, {"time": 1366, "pitch": 67, "duration": 2, "velocity": 70}, {"time": 1369, "pitch": 74, "duration": 5, "velocity": 73}, {"time": 1375, "pitch": 74, "duration": 3, "velocity": 72}, {"time": 1378, "pitch": 69, "duration": 4, "velocity": 67}, {"time": 1384, "pitch": 71, "duration": 4, "velocity": 72}, {"time": 1387, "pitch": 69, "duration": 3, "velocity": 73}, {"time": 1390, "pitch": 67, "duration": 7, "velocity": 83}, {"time": 1396, "pitch": 67, "duration": 1, "velocity": 81}, {"time": 1399, "pitch": 67, "duration": 2, "velocity": 77}, {"time": 1402, "pitch": 62, "duration": 2, "velocity": 72}, {"time": 1405, "pitch": 67, "duration": 2, "velocity": 83}, {"time": 1408, "pitch": 69, "duration": 2, "velocity": 70}, {"time": 1411, "pitch": 69, "duration": 2, "velocity": 75}, {"time": 1414, "pitch": 67, "duration": 2, "velocity": 72}, {"time": 1417, "pitch": 69, "duration": 9, "velocity": 83}, {"time": 1426, "pitch": 69, "duration": 1, "velocity": 86}, {"time": 1429, "pitch": 69, "duration": 2, "velocity": 93}, {"time": 1432, "pitch": 71, "duration": 5, "velocity": 79}, {"time": 1441, "pitch": 69, "duration": 5, "velocity": 87}, {"time": 1450, "pitch": 67, "duration": 27, "velocity": 81}, {"time": 1477, "pitch": 67, "duration": 1, "velocity": 95}, {"time": 1480, "pitch": 69, "duration": 4, "velocity": 69}, {"time": 1483, "pitch": 71, "duration": 2, "velocity": 85}, {"time": 1486, "pitch": 72, "duration": 1, "velocity": 76}, {"time": 1489, "pitch": 74, "duration": 10, "velocity": 90}, {"time": 1501, "pitch": 67, "duration": 8, "velocity": 104}, {"time": 1507, "pitch": 69, "duration": 3, "velocity": 87}, {"time": 1513, "pitch": 69, "duration": 9, "velocity": 98}, {"time": 1525, "pitch": 66, "duration": 3, "velocity": 73}, {"time": 1528, "pitch": 67, "duration": 4, "velocity": 86}, {"time": 1531, "pitch": 69, "duration": 3, "velocity": 74}, {"time": 1534, "pitch": 62, "duration": 3, "velocity": 59}, {"time": 1537, "pitch": 74, "duration": 5, "velocity": 87}, {"time": 1549, "pitch": 69, "duration": 5, "velocity": 85}, {"time": 1555, "pitch": 71, "duration": 6, "velocity": 98}, {"time": 1561, "pitch": 67, "duration": 11, "velocity": 95}, {"time": 1573, "pitch": 67, "duration": 4, "velocity": 77}, {"time": 1576, "pitch": 69, "duration": 3, "velocity": 65}, {"time": 1579, "pitch": 71, "duration": 3, "velocity": 74}, {"time": 1582, "pitch": 67, "duration": 3, "velocity": 72}, {"time": 1585, "pitch": 74, "duration": 11, "velocity": 95}, {"time": 1597, "pitch": 67, "duration": 5, "velocity": 90}, {"time": 1603, "pitch": 69, "duration": 4, "velocity": 76}, {"time": 1609, "pitch": 69, "duration": 8, "velocity": 93}, {"time": 1618, "pitch": 66, "duration": 1, "velocity": 63}, {"time": 1621, "pitch": 66, "duration": 2, "velocity": 69}, {"time": 1624, "pitch": 67, "duration": 2, "velocity": 74}, {"time": 1627, "pitch": 69, "duration": 5, "velocity": 81}, {"time": 1633, "pitch": 72, "duration": 5, "velocity": 93}, {"time": 1639, "pitch": 71, "duration": 1, "velocity": 66}, {"time": 1642, "pitch": 69, "duration": 1, "velocity": 72}, {"time": 1645, "pitch": 69, "duration": 2, "velocity": 76}, {"time": 1648, "pitch": 67, "duration": 2, "velocity": 66}, {"time": 1651, "pitch": 71, "duration": 3, "velocity": 93}, {"time": 1657, "pitch": 69, "duration": 5, "velocity": 79}, {"time": 1666, "pitch": 62, "duration": 2, "velocity": 62}, {"time": 1669, "pitch": 74, "duration": 2, "velocity": 72}, {"time": 1672, "pitch": 72, "duration": 2, "velocity": 63}, {"time": 1675, "pitch": 71, "duration": 2, "velocity": 75}, {"time": 1678, "pitch": 69, "duration": 2, "velocity": 61}, {"time": 1681, "pitch": 69, "duration": 3, "velocity": 85}, {"time": 1684, "pitch": 71, "duration": 4, "velocity": 66}, {"time": 1690, "pitch": 71, "duration": 2, "velocity": 76}, {"time": 1693, "pitch": 74, "duration": 1, "velocity": 75}, {"time": 1696, "pitch": 76, "duration": 2, "velocity": 73}, {"time": 1699, "pitch": 74, "duration": 1, "velocity": 73}, {"time": 1702, "pitch": 76, "duration": 1, "velocity": 72}, {"time": 1705, "pitch": 74, "duration": 4, "velocity": 87}, {"time": 1708, "pitch": 69, "duration": 4, "velocity": 79}, {"time": 1714, "pitch": 69, "duration": 2, "velocity": 63}, {"time": 1717, "pitch": 79, "duration": 2, "velocity": 95}, {"time": 1720, "pitch": 78, "duration": 1, "velocity": 86}, {"time": 1723, "pitch": 79, "duration": 1, "velocity": 85}, {"time": 1726, "pitch": 78, "duration": 1, "velocity": 77}, {"time": 1729, "pitch": 76, "duration": 2, "velocity": 75}, {"time": 1735, "pitch": 79, "duration": 6, "velocity": 93}, {"time": 1741, "pitch": 78, "duration": 2, "velocity": 79}, {"time": 1744, "pitch": 74, "duration": 4, "velocity": 79}, {"time": 1753, "pitch": 71, "duration": 6, "velocity": 93}, {"time": 1762, "pitch": 71, "duration": 2, "velocity": 77}, {"time": 1765, "pitch": 79, "duration": 2, "velocity": 87}, {"time": 1768, "pitch": 78, "duration": 2, "velocity": 69}, {"time": 1771, "pitch": 79, "duration": 3, "velocity": 85}, {"time": 1774, "pitch": 78, "duration": 1, "velocity": 67}, {"time": 1777, "pitch": 76, "duration": 7, "velocity": 76}, {"time": 1783, "pitch": 79, "duration": 6, "velocity": 108}, {"time": 1789, "pitch": 78, "duration": 2, "velocity": 76}, {"time": 1795, "pitch": 74, "duration": 2, "velocity": 77}, {"time": 1798, "pitch": 71, "duration": 7, "velocity": 93}, {"time": 1810, "pitch": 71, "duration": 1, "velocity": 90}, {"time": 1813, "pitch": 71, "duration": 2, "velocity": 95}, {"time": 1816, "pitch": 69, "duration": 1, "velocity": 72}, {"time": 1819, "pitch": 69, "duration": 2, "velocity": 79}, {"time": 1822, "pitch": 71, "duration": 1, "velocity": 93}, {"time": 1825, "pitch": 71, "duration": 5, "velocity": 95}, {"time": 1831, "pitch": 69, "duration": 1, "velocity": 73}, {"time": 1834, "pitch": 69, "duration": 4, "velocity": 74}, {"time": 1840, "pitch": 67, "duration": 2, "velocity": 64}, {"time": 1843, "pitch": 71, "duration": 4, "velocity": 93}, {"time": 1849, "pitch": 69, "duration": 8, "velocity": 98}, {"time": 1858, "pitch": 62, "duration": 2, "velocity": 62}, {"time": 1861, "pitch": 74, "duration": 2, "velocity": 72}, {"time": 1864, "pitch": 72, "duration": 2, "velocity": 63}, {"time": 1867, "pitch": 71, "duration": 2, "velocity": 75}, {"time": 1870, "pitch": 69, "duration": 2, "velocity": 61}, {"time": 1873, "pitch": 69, "duration": 3, "velocity": 85}, {"time": 1876, "pitch": 71, "duration": 4, "velocity": 66}, {"time": 1882, "pitch": 71, "duration": 2, "velocity": 76}, {"time": 1885, "pitch": 74, "duration": 1, "velocity": 75}, {"time": 1888, "pitch": 76, "duration": 2, "velocity": 73}, {"time": 1891, "pitch": 74, "duration": 1, "velocity": 73}, {"time": 1894, "pitch": 76, "duration": 1, "velocity": 72}, {"time": 1897, "pitch": 74, "duration": 4, "velocity": 87}, {"time": 1900, "pitch": 69, "duration": 4, "velocity": 79}, {"time": 1906, "pitch": 69, "duration": 2, "velocity": 63}, {"time": 1909, "pitch": 79, "duration": 2, "velocity": 95}, {"time": 1912, "pitch": 78, "duration": 1, "velocity": 86}, {"time": 1915, "pitch": 79, "duration": 1, "velocity": 85}, {"time": 1918, "pitch": 78, "duration": 1, "velocity": 77}, {"time": 1921, "pitch": 76, "duration": 2, "velocity": 75}, {"time": 1927, "pitch": 79, "duration": 6, "velocity": 93}, {"time": 1933, "pitch": 78, "duration": 2, "velocity": 79}, {"time": 1936, "pitch": 74, "duration": 4, "velocity": 79}, {"time": 1945, "pitch": 71, "duration": 6, "velocity": 93}, {"time": 1954, "pitch": 71, "duration": 2, "velocity": 77}, {"time": 1957, "pitch": 79, "duration": 2, "velocity": 87}, {"time": 1960, "pitch": 78, "duration": 2, "velocity": 69}, {"time": 1963, "pitch": 79, "duration": 3, "velocity": 85}, {"time": 1966, "pitch": 78, "duration": 1, "velocity": 67}, {"time": 1969, "pitch": 76, "duration": 7, "velocity": 76}, {"time": 1975, "pitch": 79, "duration": 6, "velocity": 108}, {"time": 1981, "pitch": 78, "duration": 2, "velocity": 76}, {"time": 1987, "pitch": 74, "duration": 2, "velocity": 77}, {"time": 1990, "pitch": 71, "duration": 7, "velocity": 93}, {"time": 2002, "pitch": 71, "duration": 1, "velocity": 90}, {"time": 2005, "pitch": 71, "duration": 2, "velocity": 95}, {"time": 2008, "pitch": 69, "duration": 1, "velocity": 72}, {"time": 2011, "pitch": 69, "duration": 2, "velocity": 79}, {"time": 2014, "pitch": 71, "duration": 1, "velocity": 93}, {"time": 2017, "pitch": 71, "duration": 5, "velocity": 95}, {"time": 2020, "pitch": 69, "duration": 2, "velocity": 85}, {"time": 2026, "pitch": 69, "duration": 2, "velocity": 83}, {"time": 2029, "pitch": 69, "duration": 2, "velocity": 95}, {"time": 2032, "pitch": 69, "duration": 2, "velocity": 85}, {"time": 2038, "pitch": 69, "duration": 1, "velocity": 79}, {"time": 2041, "pitch": 71, "duration": 5, "velocity": 95}, {"time": 2050, "pitch": 62, "duration": 2, "velocity": 62}, {"time": 2050, "pitch": 69, "duration": 5, "velocity": 90}, {"time": 2053, "pitch": 74, "duration": 2, "velocity": 72}, {"time": 2056, "pitch": 72, "duration": 2, "velocity": 63}, {"time": 2059, "pitch": 71, "duration": 2, "velocity": 75}, {"time": 2062, "pitch": 69, "duration": 2, "velocity": 61}, {"time": 2065, "pitch": 69, "duration": 3, "velocity": 85}, {"time": 2068, "pitch": 71, "duration": 4, "velocity": 66}, {"time": 2074, "pitch": 71, "duration": 2, "velocity": 76}, {"time": 2077, "pitch": 74, "duration": 1, "velocity": 75}, {"time": 2080, "pitch": 76, "duration": 2, "velocity": 73}, {"time": 2083, "pitch": 74, "duration": 1, "velocity": 73}, {"time": 2086, "pitch": 76, "duration": 1, "velocity": 72}, {"time": 2089, "pitch": 74, "duration": 4, "velocity": 87}, {"time": 2092, "pitch": 69, "duration": 4, "velocity": 79}, {"time": 2098, "pitch": 69, "duration": 2, "velocity": 63}, {"time": 2101, "pitch": 79, "duration": 2, "velocity": 95}, {"time": 2104, "pitch": 78, "duration": 1, "velocity": 86}, {"time": 2107, "pitch": 79, "duration": 1, "velocity": 85}, {"time": 2110, "pitch": 78, "duration": 1, "velocity": 77}, {"time": 2113, "pitch": 76, "duration": 2, "velocity": 75}, {"time": 2119, "pitch": 79, "duration": 6, "velocity": 93}, {"time": 2125, "pitch": 78, "duration": 2, "velocity": 79}, {"time": 2128, "pitch": 74, "duration": 4, "velocity": 79}, {"time": 2137, "pitch": 71, "duration": 6, "velocity": 93}, {"time": 2146, "pitch": 71, "duration": 2, "velocity": 77}, {"time": 2149, "pitch": 79, "duration": 2, "velocity": 87}, {"time": 2152, "pitch": 78, "duration": 2, "velocity": 69}, {"time": 2155, "pitch": 79, "duration": 3, "velocity": 85}, {"time": 2158, "pitch": 78, "duration": 1, "velocity": 67}, {"time": 2161, "pitch": 76, "duration": 7, "velocity": 76}, {"time": 2167, "pitch": 79, "duration": 6, "velocity": 108}, {"time": 2173, "pitch": 78, "duration": 2, "velocity": 76}, {"time": 2179, "pitch": 74, "duration": 2, "velocity": 77}, {"time": 2182, "pitch": 71, "duration": 7, "velocity": 93}, {"time": 2194, "pitch": 71, "duration": 1, "velocity": 90}, {"time": 2197, "pitch": 71, "duration": 2, "velocity": 95}, {"time": 2200, "pitch": 69, "duration": 1, "velocity": 72}, {"time": 2203, "pitch": 69, "duration": 2, "velocity": 79}, {"time": 2206, "pitch": 71, "duration": 1, "velocity": 93}, {"time": 2209, "pitch": 71, "duration": 5, "velocity": 95}, {"time": 2215, "pitch": 69, "duration": 1, "velocity": 73}, {"time": 2218, "pitch": 69, "duration": 4, "velocity": 74}, {"time": 2224, "pitch": 67, "duration": 2, "velocity": 64}, {"time": 2227, "pitch": 71, "duration": 4, "velocity": 93}, {"time": 2233, "pitch": 69, "duration": 8, "velocity": 98}, {"time": 2242, "pitch": 62, "duration": 2, "velocity": 62}, {"time": 2245, "pitch": 74, "duration": 2, "velocity": 72}, {"time": 2248, "pitch": 72, "duration": 2, "velocity": 63}, {"time": 2251, "pitch": 71, "duration": 2, "velocity": 75}, {"time": 2254, "pitch": 69, "duration": 2, "velocity": 61}, {"time": 2257, "pitch": 69, "duration": 3, "velocity": 85}, {"time": 2260, "pitch": 71, "duration": 4, "velocity": 66}, {"time": 2266, "pitch": 71, "duration": 2, "velocity": 76}, {"time": 2269, "pitch": 74, "duration": 1, "velocity": 75}, {"time": 2272, "pitch": 76, "duration": 2, "velocity": 73}, {"time": 2275, "pitch": 74, "duration": 1, "velocity": 73}, {"time": 2278, "pitch": 76, "duration": 1, "velocity": 72}, {"time": 2281, "pitch": 74, "duration": 4, "velocity": 87}, {"time": 2284, "pitch": 69, "duration": 4, "velocity": 79}, {"time": 2290, "pitch": 69, "duration": 2, "velocity": 63}, {"time": 2293, "pitch": 79, "duration": 2, "velocity": 95}, {"time": 2296, "pitch": 78, "duration": 1, "velocity": 86}, {"time": 2299, "pitch": 79, "duration": 1, "velocity": 85}, {"time": 2302, "pitch": 78, "duration": 1, "velocity": 77}, {"time": 2305, "pitch": 76, "duration": 2, "velocity": 75}, {"time": 2311, "pitch": 79, "duration": 6, "velocity": 93}, {"time": 2317, "pitch": 78, "duration": 2, "velocity": 79}, {"time": 2320, "pitch": 74, "duration": 4, "velocity": 79}, {"time": 2329, "pitch": 71, "duration": 6, "velocity": 93}, {"time": 2338, "pitch": 71, "duration": 2, "velocity": 77}, {"time": 2341, "pitch": 79, "duration": 2, "velocity": 87}, {"time": 2344, "pitch": 78, "duration": 2, "velocity": 69}, {"time": 2347, "pitch": 79, "duration": 3, "velocity": 85}, {"time": 2350, "pitch": 78, "duration": 1, "velocity": 67}, {"time": 2353, "pitch": 76, "duration": 7, "velocity": 76}, {"time": 2359, "pitch": 79, "duration": 6, "velocity": 108}, {"time": 2365, "pitch": 78, "duration": 2, "velocity": 76}, {"time": 2371, "pitch": 74, "duration": 2, "velocity": 77}, {"time": 2374, "pitch": 71, "duration": 7, "velocity": 93}, {"time": 2386, "pitch": 71, "duration": 1, "velocity": 90}, {"time": 2389, "pitch": 71, "duration": 2, "velocity": 95}, {"time": 2392, "pitch": 69, "duration": 1, "velocity": 72}, {"time": 2395, "pitch": 69, "duration": 2, "velocity": 79}, {"time": 2398, "pitch": 71, "duration": 1, "velocity": 93}, {"time": 2401, "pitch": 71, "duration": 5, "velocity": 95}, {"time": 2404, "pitch": 69, "duration": 2, "velocity": 85}, {"time": 2410, "pitch": 69, "duration": 2, "velocity": 83}, {"time": 2413, "pitch": 69, "duration": 2, "velocity": 95}, {"time": 2416, "pitch": 69, "duration": 2, "velocity": 85}, {"time": 2422, "pitch": 69, "duration": 1, "velocity": 79}, {"time": 2425, "pitch": 71, "duration": 5, "velocity": 95}, {"time": 2434, "pitch": 69, "duration": 5, "velocity": 90}, {"time": 2443, "pitch": 69, "duration": 4, "velocity": 93}, {"time": 2449, "pitch": 67, "duration": 24, "velocity": 90}], "annotations": [{"time": 24, "annotation": {"number": 64, "value": 76}, "group": "control_change"}, {"time": 84, "annotation": {"number": 64, "value": 75}, "group": "control_change"}, {"time": 120, "annotation": {"number": 64, "value": 74}, "group": "control_change"}]}, {"program": 0, "is_drum": false, "name": "PIANO", "notes": [{"time": 22, "pitch": 55, "duration": 2, "velocity": 54}, {"time": 25, "pitch": 43, "duration": 22, "velocity": 79}, {"time": 25, "pitch": 59, "duration": 11, "velocity": 66}, {"time": 31, "pitch": 50, "duration": 10, "velocity": 60}, {"time": 37, "pitch": 59, "duration": 7, "velocity": 66}, {"time": 43, "pitch": 50, "duration": 10, "velocity": 47}, {"time": 49, "pitch": 42, "duration": 22, "velocity": 75}, {"time": 49, "pitch": 57, "duration": 12, "velocity": 73}, {"time": 55, "pitch": 45, "duration": 16, "velocity": 68}, {"time": 61, "pitch": 50, "duration": 10, "velocity": 64}, {"time": 67, "pitch": 57, "duration": 3, "velocity": 70}, {"time": 70, "pitch": 59, "duration": 2, "velocity": 74}, {"time": 73, "pitch": 36, "duration": 19, "velocity": 75}, {"time": 73, "pitch": 60, "duration": 12, "velocity": 104}, {"time": 79, "pitch": 43, "duration": 8, "velocity": 69}, {"time": 85, "pitch": 48, "duration": 10, "velocity": 76}, {"time": 85, "pitch": 60, "duration": 4, "velocity": 79}, {"time": 91, "pitch": 43, "duration": 5, "velocity": 68}, {"time": 91, "pitch": 59, "duration": 5, "velocity": 95}, {"time": 97, "pitch": 38, "duration": 25, "velocity": 77}, {"time": 97, "pitch": 57, "duration": 24, "velocity": 87}, {"time": 103, "pitch": 45, "duration": 18, "velocity": 65}, {"time": 109, "pitch": 50, "duration": 12, "velocity": 83}, {"time": 121, "pitch": 40, "duration": 22, "velocity": 65}, {"time": 121, "pitch": 55, "duration": 10, "velocity": 75}, {"time": 127, "pitch": 47, "duration": 10, "velocity": 54}, {"time": 133, "pitch": 52, "duration": 7, "velocity": 58}, {"time": 133, "pitch": 54, "duration": 5, "velocity": 79}, {"time": 139, "pitch": 47, "duration": 4, "velocity": 64}, {"time": 139, "pitch": 55, "duration": 4, "velocity": 64}, {"time": 145, "pitch": 35, "duration": 24, "velocity": 74}, {"time": 145, "pitch": 59, "duration": 18, "velocity": 76}, {"time": 151, "pitch": 42, "duration": 18, "velocity": 49}, {"time": 157, "pitch": 47, "duration": 8, "velocity": 63}, {"time": 157, "pitch": 62, "duration": 10, "velocity": 90}, {"time": 169, "pitch": 36, "duration": 7, "velocity": 68}, {"time": 169, "pitch": 64, "duration": 17, "velocity": 79}, {"time": 175, "pitch": 43, "duration": 4, "velocity": 64}, {"time": 178, "pitch": 48, "duration": 11, "velocity": 68}, {"time": 181, "pitch": 64, "duration": 5, "velocity": 83}, {"time": 187, "pitch": 71, "duration": 4, "velocity": 111}, {"time": 193, "pitch": 38, "duration": 46, "velocity": 72}, {"time": 193, "pitch": 69, "duration": 22, "velocity": 114}, {"time": 199, "pitch": 45, "duration": 18, "velocity": 71}, {"time": 199, "pitch": 57, "duration": 3, "velocity": 53}, {"time": 202, "pitch": 62, "duration": 2, "velocity": 52}, {"time": 205, "pitch": 50, "duration": 12, "velocity": 62}, {"time": 205, "pitch": 64, "duration": 9, "velocity": 66}, {"time": 241, "pitch": 43, "duration": 19, "velocity": 74}, {"time": 241, "pitch": 59, "duration": 11, "velocity": 70}, {"time": 241, "pitch": 62, "duration": 11, "velocity": 74}, {"time": 241, "pitch": 67, "duration": 11, "velocity": 70}, {"time": 247, "pitch": 50, "duration": 11, "velocity": 67}, {"time": 253, "pitch": 59, "duration": 6, "velocity": 77}, {"time": 253, "pitch": 62, "duration": 6, "velocity": 87}, {"time": 253, "pitch": 67, "duration": 6, "velocity": 77}, {"time": 265, "pitch": 38, "duration": 19, "velocity": 70}, {"time": 265, "pitch": 54, "duration": 10, "velocity": 64}, {"time": 265, "pitch": 57, "duration": 10, "velocity": 53}, {"time": 265, "pitch": 62, "duration": 9, "velocity": 48}, {"time": 271, "pitch": 45, "duration": 18, "velocity": 67}, {"time": 277, "pitch": 54, "duration": 7, "velocity": 69}, {"time": 277, "pitch": 57, "duration": 7, "velocity": 75}, {"time": 277, "pitch": 62, "duration": 7, "velocity": 81}, {"time": 283, "pitch": 50, "duration": 5, "velocity": 58}, {"time": 289, "pitch": 40, "duration": 19, "velocity": 74}, {"time": 289, "pitch": 55, "duration": 11, "velocity": 67}, {"time": 289, "pitch": 59, "duration": 10, "velocity": 75}, {"time": 289, "pitch": 64, "duration": 10, "velocity": 76}, {"time": 295, "pitch": 47, "duration": 9, "velocity": 62}, {"time": 301, "pitch": 55, "duration": 6, "velocity": 76}, {"time": 301, "pitch": 59, "duration": 6, "velocity": 87}, {"time": 301, "pitch": 64, "duration": 6, "velocity": 85}, {"time": 313, "pitch": 35, "duration": 19, "velocity": 81}, {"time": 313, "pitch": 50, "duration": 11, "velocity": 72}, {"time": 313, "pitch": 54, "duration": 11, "velocity": 76}, {"time": 313, "pitch": 59, "duration": 11, "velocity": 81}, {"time": 319, "pitch": 42, "duration": 18, "velocity": 76}, {"time": 325, "pitch": 50, "duration": 7, "velocity": 76}, {"time": 325, "pitch": 54, "duration": 7, "velocity": 83}, {"time": 325, "pitch": 59, "duration": 7, "velocity": 77}, {"time": 331, "pitch": 47, "duration": 6, "velocity": 58}, {"time": 337, "pitch": 43, "duration": 7, "velocity": 79}, {"time": 337, "pitch": 59, "duration": 7, "velocity": 76}, {"time": 337, "pitch": 62, "duration": 6, "velocity": 81}, {"time": 349, "pitch": 38, "duration": 6, "velocity": 79}, {"time": 349, "pitch": 54, "duration": 6, "velocity": 74}, {"time": 349, "pitch": 57, "duration": 5, "velocity": 75}, {"time": 361, "pitch": 43, "duration": 18, "velocity": 76}, {"time": 361, "pitch": 59, "duration": 10, "velocity": 64}, {"time": 361, "pitch": 62, "duration": 11, "velocity": 73}, {"time": 367, "pitch": 50, "duration": 18, "velocity": 68}, {"time": 373, "pitch": 59, "duration": 7, "velocity": 73}, {"time": 373, "pitch": 62, "duration": 7, "velocity": 79}, {"time": 379, "pitch": 55, "duration": 6, "velocity": 49}, {"time": 385, "pitch": 45, "duration": 20, "velocity": 83}, {"time": 385, "pitch": 60, "duration": 8, "velocity": 71}, {"time": 391, "pitch": 52, "duration": 13, "velocity": 58}, {"time": 397, "pitch": 60, "duration": 6, "velocity": 87}, {"time": 403, "pitch": 59, "duration": 6, "velocity": 70}, {"time": 409, "pitch": 38, "duration": 20, "velocity": 85}, {"time": 409, "pitch": 57, "duration": 10, "velocity": 72}, {"time": 415, "pitch": 45, "duration": 16, "velocity": 75}, {"time": 421, "pitch": 54, "duration": 14, "velocity": 77}, {"time": 424, "pitch": 50, "duration": 9, "velocity": 60}, {"time": 427, "pitch": 57, "duration": 7, "velocity": 61}, {"time": 433, "pitch": 43, "duration": 38, "velocity": 76}, {"time": 433, "pitch": 59, "duration": 10, "velocity": 65}, {"time": 433, "pitch": 62, "duration": 11, "velocity": 81}, {"time": 439, "pitch": 50, "duration": 31, "velocity": 66}, {"time": 445, "pitch": 59, "duration": 10, "velocity": 53}, {"time": 445, "pitch": 62, "duration": 25, "velocity": 77}, {"time": 451, "pitch": 55, "duration": 7, "velocity": 49}, {"time": 457, "pitch": 59, "duration": 1, "velocity": 53}, {"time": 457, "pitch": 67, "duration": 13, "velocity": 75}, {"time": 481, "pitch": 43, "duration": 8, "velocity": 85}, {"time": 481, "pitch": 59, "duration": 7, "velocity": 85}, {"time": 481, "pitch": 62, "duration": 7, "velocity": 81}, {"time": 487, "pitch": 50, "duration": 2, "velocity": 77}, {"time": 493, "pitch": 36, "duration": 9, "velocity": 74}, {"time": 493, "pitch": 52, "duration": 7, "velocity": 69}, {"time": 493, "pitch": 55, "duration": 7, "velocity": 75}, {"time": 499, "pitch": 43, "duration": 6, "velocity": 86}, {"time": 505, "pitch": 38, "duration": 19, "velocity": 74}, {"time": 505, "pitch": 54, "duration": 10, "velocity": 76}, {"time": 505, "pitch": 57, "duration": 10, "velocity": 77}, {"time": 511, "pitch": 45, "duration": 13, "velocity": 64}, {"time": 517, "pitch": 54, "duration": 10, "velocity": 72}, {"time": 517, "pitch": 57, "duration": 9, "velocity": 75}, {"time": 523, "pitch": 50, "duration": 2, "velocity": 58}, {"time": 529, "pitch": 35, "duration": 19, "velocity": 68}, {"time": 529, "pitch": 50, "duration": 11, "velocity": 62}, {"time": 529, "pitch": 54, "duration": 11, "velocity": 67}, {"time": 529, "pitch": 59, "duration": 11, "velocity": 73}, {"time": 535, "pitch": 42, "duration": 13, "velocity": 53}, {"time": 541, "pitch": 50, "duration": 6, "velocity": 77}, {"time": 541, "pitch": 54, "duration": 6, "velocity": 85}, {"time": 541, "pitch": 59, "duration": 6, "velocity": 74}, {"time": 547, "pitch": 47, "duration": 6, "velocity": 60}, {"time": 553, "pitch": 40, "duration": 23, "velocity": 65}, {"time": 553, "pitch": 55, "duration": 11, "velocity": 63}, {"time": 553, "pitch": 59, "duration": 11, "velocity": 67}, {"time": 553, "pitch": 64, "duration": 11, "velocity": 67}, {"time": 559, "pitch": 47, "duration": 16, "velocity": 58}, {"time": 565, "pitch": 55, "duration": 9, "velocity": 70}, {"time": 565, "pitch": 59, "duration": 9, "velocity": 83}, {"time": 565, "pitch": 64, "duration": 9, "velocity": 75}, {"time": 571, "pitch": 52, "duration": 4, "velocity": 58}, {"time": 577, "pitch": 43, "duration": 7, "velocity": 86}, {"time": 577, "pitch": 59, "duration": 6, "velocity": 79}, {"time": 577, "pitch": 62, "duration": 6, "velocity": 85}, {"time": 589, "pitch": 36, "duration": 7, "velocity": 83}, {"time": 589, "pitch": 52, "duration": 7, "velocity": 77}, {"time": 589, "pitch": 55, "duration": 7, "velocity": 79}, {"time": 595, "pitch": 43, "duration": 6, "velocity": 79}, {"time": 601, "pitch": 38, "duration": 21, "velocity": 79}, {"time": 601, "pitch": 54, "duration": 11, "velocity": 81}, {"time": 601, "pitch": 57, "duration": 11, "velocity": 81}, {"time": 607, "pitch": 45, "duration": 14, "velocity": 74}, {"time": 613, "pitch": 54, "duration": 7, "velocity": 77}, {"time": 613, "pitch": 57, "duration": 7, "velocity": 76}, {"time": 619, "pitch": 50, "duration": 2, "velocity": 51}, {"time": 625, "pitch": 43, "duration": 12, "velocity": 86}, {"time": 625, "pitch": 59, "duration": 12, "velocity": 83}, {"time": 625, "pitch": 62, "duration": 12, "velocity": 85}, {"time": 637, "pitch": 36, "duration": 8, "velocity": 73}, {"time": 637, "pitch": 52, "duration": 7, "velocity": 76}, {"time": 637, "pitch": 55, "duration": 7, "velocity": 79}, {"time": 649, "pitch": 38, "duration": 23, "velocity": 72}, {"time": 649, "pitch": 54, "duration": 11, "velocity": 81}, {"time": 649, "pitch": 57, "duration": 11, "velocity": 79}, {"time": 655, "pitch": 45, "duration": 16, "velocity": 67}, {"time": 661, "pitch": 54, "duration": 10, "velocity": 76}, {"time": 661, "pitch": 57, "duration": 10, "velocity": 81}, {"time": 667, "pitch": 50, "duration": 4, "velocity": 53}, {"time": 673, "pitch": 43, "duration": 20, "velocity": 76}, {"time": 673, "pitch": 59, "duration": 11, "velocity": 79}, {"time": 673, "pitch": 62, "duration": 11, "velocity": 77}, {"time": 679, "pitch": 50, "duration": 13, "velocity": 68}, {"time": 685, "pitch": 59, "duration": 7, "velocity": 83}, {"time": 685, "pitch": 62, "duration": 7, "velocity": 90}, {"time": 697, "pitch": 38, "duration": 19, "velocity": 77}, {"time": 697, "pitch": 54, "duration": 10, "velocity": 81}, {"time": 697, "pitch": 57, "duration": 11, "velocity": 76}, {"time": 703, "pitch": 45, "duration": 18, "velocity": 75}, {"time": 709, "pitch": 54, "duration": 7, "velocity": 87}, {"time": 709, "pitch": 57, "duration": 7, "velocity": 86}, {"time": 715, "pitch": 50, "duration": 5, "velocity": 59}, {"time": 721, "pitch": 40, "duration": 21, "velocity": 73}, {"time": 721, "pitch": 55, "duration": 10, "velocity": 79}, {"time": 721, "pitch": 59, "duration": 11, "velocity": 79}, {"time": 727, "pitch": 47, "duration": 13, "velocity": 59}, {"time": 733, "pitch": 55, "duration": 7, "velocity": 81}, {"time": 733, "pitch": 59, "duration": 7, "velocity": 86}, {"time": 739, "pitch": 52, "duration": 2, "velocity": 61}, {"time": 745, "pitch": 35, "duration": 19, "velocity": 74}, {"time": 745, "pitch": 50, "duration": 10, "velocity": 81}, {"time": 745, "pitch": 54, "duration": 11, "velocity": 81}, {"time": 751, "pitch": 42, "duration": 18, "velocity": 74}, {"time": 757, "pitch": 50, "duration": 7, "velocity": 87}, {"time": 757, "pitch": 54, "duration": 7, "velocity": 83}, {"time": 763, "pitch": 47, "duration": 5, "velocity": 60}, {"time": 769, "pitch": 36, "duration": 18, "velocity": 85}, {"time": 769, "pitch": 52, "duration": 10, "velocity": 74}, {"time": 769, "pitch": 55, "duration": 11, "velocity": 75}, {"time": 775, "pitch": 43, "duration": 12, "velocity": 73}, {"time": 781, "pitch": 52, "duration": 7, "velocity": 77}, {"time": 781, "pitch": 55, "duration": 7, "velocity": 79}, {"time": 787, "pitch": 48, "duration": 6, "velocity": 64}, {"time": 793, "pitch": 43, "duration": 19, "velocity": 63}, {"time": 793, "pitch": 59, "duration": 10, "velocity": 83}, {"time": 793, "pitch": 62, "duration": 10, "velocity": 85}, {"time": 805, "pitch": 50, "duration": 12, "velocity": 68}, {"time": 805, "pitch": 59, "duration": 7, "velocity": 83}, {"time": 805, "pitch": 62, "duration": 7, "velocity": 85}, {"time": 811, "pitch": 55, "duration": 5, "velocity": 59}, {"time": 817, "pitch": 45, "duration": 20, "velocity": 83}, {"time": 817, "pitch": 60, "duration": 11, "velocity": 93}, {"time": 817, "pitch": 64, "duration": 11, "velocity": 86}, {"time": 823, "pitch": 52, "duration": 13, "velocity": 63}, {"time": 829, "pitch": 60, "duration": 7, "velocity": 93}, {"time": 829, "pitch": 64, "duration": 7, "velocity": 83}, {"time": 835, "pitch": 57, "duration": 2, "velocity": 63}, {"time": 841, "pitch": 38, "duration": 18, "velocity": 79}, {"time": 841, "pitch": 54, "duration": 11, "velocity": 81}, {"time": 841, "pitch": 57, "duration": 11, "velocity": 77}, {"time": 847, "pitch": 45, "duration": 13, "velocity": 74}, {"time": 853, "pitch": 54, "duration": 7, "velocity": 87}, {"time": 853, "pitch": 57, "duration": 7, "velocity": 85}, {"time": 859, "pitch": 50, "duration": 6, "velocity": 63}, {"time": 865, "pitch": 43, "duration": 20, "velocity": 86}, {"time": 865, "pitch": 59, "duration": 11, "velocity": 85}, {"time": 865, "pitch": 62, "duration": 11, "velocity": 76}, {"time": 871, "pitch": 50, "duration": 13, "velocity": 70}, {"time": 877, "pitch": 59, "duration": 7, "velocity": 73}, {"time": 877, "pitch": 62, "duration": 6, "velocity": 100}, {"time": 883, "pitch": 55, "duration": 2, "velocity": 59}, {"time": 889, "pitch": 38, "duration": 22, "velocity": 76}, {"time": 889, "pitch": 54, "duration": 10, "velocity": 81}, {"time": 889, "pitch": 57, "duration": 10, "velocity": 66}, {"time": 895, "pitch": 45, "duration": 17, "velocity": 66}, {"time": 901, "pitch": 54, "duration": 7, "velocity": 77}, {"time": 901, "pitch": 57, "duration": 8, "velocity": 86}, {"time": 907, "pitch": 50, "duration": 5, "velocity": 59}, {"time": 910, "pitch": 54, "duration": 2, "velocity": 81}, {"time": 913, "pitch": 40, "duration": 20, "velocity": 73}, {"time": 913, "pitch": 55, "duration": 11, "velocity": 87}, {"time": 913, "pitch": 59, "duration": 11, "velocity": 83}, {"time": 919, "pitch": 47, "duration": 12, "velocity": 70}, {"time": 925, "pitch": 55, "duration": 7, "velocity": 74}, {"time": 925, "pitch": 59, "duration": 6, "velocity": 93}, {"time": 931, "pitch": 52, "duration": 2, "velocity": 59}, {"time": 937, "pitch": 35, "duration": 19, "velocity": 76}, {"time": 937, "pitch": 50, "duration": 11, "velocity": 76}, {"time": 937, "pitch": 54, "duration": 11, "velocity": 77}, {"time": 943, "pitch": 42, "duration": 18, "velocity": 79}, {"time": 949, "pitch": 50, "duration": 7, "velocity": 79}, {"time": 949, "pitch": 54, "duration": 7, "velocity": 93}, {"time": 955, "pitch": 47, "duration": 6, "velocity": 63}, {"time": 961, "pitch": 36, "duration": 18, "velocity": 83}, {"time": 961, "pitch": 52, "duration": 11, "velocity": 73}, {"time": 961, "pitch": 55, "duration": 11, "velocity": 79}, {"time": 967, "pitch": 43, "duration": 13, "velocity": 72}, {"time": 973, "pitch": 52, "duration": 7, "velocity": 79}, {"time": 973, "pitch": 55, "duration": 7, "velocity": 95}, {"time": 979, "pitch": 48, "duration": 6, "velocity": 63}, {"time": 985, "pitch": 43, "duration": 19, "velocity": 81}, {"time": 985, "pitch": 59, "duration": 10, "velocity": 65}, {"time": 985, "pitch": 62, "duration": 7, "velocity": 86}, {"time": 991, "pitch": 50, "duration": 18, "velocity": 72}, {"time": 994, "pitch": 62, "duration": 2, "velocity": 13}, {"time": 997, "pitch": 59, "duration": 7, "velocity": 90}, {"time": 997, "pitch": 62, "duration": 7, "velocity": 112}, {"time": 1003, "pitch": 55, "duration": 5, "velocity": 53}, {"time": 1009, "pitch": 45, "duration": 13, "velocity": 85}, {"time": 1009, "pitch": 60, "duration": 11, "velocity": 87}, {"time": 1009, "pitch": 64, "duration": 11, "velocity": 87}, {"time": 1015, "pitch": 52, "duration": 13, "velocity": 62}, {"time": 1021, "pitch": 60, "duration": 7, "velocity": 95}, {"time": 1021, "pitch": 64, "duration": 6, "velocity": 100}, {"time": 1024, "pitch": 57, "duration": 8, "velocity": 85}, {"time": 1024, "pitch": 45, "duration": 7, "velocity": 100}, {"time": 1027, "pitch": 60, "duration": 1, "velocity": 83}, {"time": 1030, "pitch": 64, "duration": 2, "velocity": 82}, {"time": 1033, "pitch": 38, "duration": 18, "velocity": 61}, {"time": 1033, "pitch": 54, "duration": 11, "velocity": 75}, {"time": 1033, "pitch": 57, "duration": 11, "velocity": 83}, {"time": 1033, "pitch": 62, "duration": 7, "velocity": 100}, {"time": 1039, "pitch": 45, "duration": 12, "velocity": 72}, {"time": 1045, "pitch": 54, "duration": 7, "velocity": 91}, {"time": 1045, "pitch": 57, "duration": 7, "velocity": 91}, {"time": 1045, "pitch": 62, "duration": 3, "velocity": 91}, {"time": 1045, "pitch": 66, "duration": 3, "velocity": 91}, {"time": 1051, "pitch": 50, "duration": 6, "velocity": 64}, {"time": 1051, "pitch": 62, "duration": 4, "velocity": 76}, {"time": 1051, "pitch": 66, "duration": 4, "velocity": 81}, {"time": 1051, "pitch": 69, "duration": 4, "velocity": 96}, {"time": 1057, "pitch": 43, "duration": 19, "velocity": 66}, {"time": 1060, "pitch": 50, "duration": 16, "velocity": 74}, {"time": 1063, "pitch": 55, "duration": 8, "velocity": 58}, {"time": 1069, "pitch": 59, "duration": 7, "velocity": 76}, {"time": 1072, "pitch": 55, "duration": 6, "velocity": 59}, {"time": 1075, "pitch": 62, "duration": 5, "velocity": 72}, {"time": 1078, "pitch": 59, "duration": 3, "velocity": 67}, {"time": 1081, "pitch": 50, "duration": 21, "velocity": 74}, {"time": 1084, "pitch": 57, "duration": 18, "velocity": 63}, {"time": 1087, "pitch": 62, "duration": 8, "velocity": 53}, {"time": 1090, "pitch": 54, "duration": 12, "velocity": 65}, {"time": 1096, "pitch": 62, "duration": 5, "velocity": 75}, {"time": 1099, "pitch": 66, "duration": 5, "velocity": 73}, {"time": 1102, "pitch": 69, "duration": 3, "velocity": 69}, {"time": 1105, "pitch": 52, "duration": 20, "velocity": 75}, {"time": 1108, "pitch": 59, "duration": 16, "velocity": 64}, {"time": 1111, "pitch": 64, "duration": 7, "velocity": 73}, {"time": 1114, "pitch": 67, "duration": 4, "velocity": 74}, {"time": 1117, "pitch": 71, "duration": 6, "velocity": 83}, {"time": 1120, "pitch": 64, "duration": 3, "velocity": 70}, {"time": 1123, "pitch": 67, "duration": 5, "velocity": 83}, {"time": 1126, "pitch": 71, "duration": 3, "velocity": 71}, {"time": 1129, "pitch": 47, "duration": 15, "velocity": 81}, {"time": 1132, "pitch": 50, "duration": 17, "velocity": 65}, {"time": 1138, "pitch": 54, "duration": 4, "velocity": 63}, {"time": 1141, "pitch": 62, "duration": 7, "velocity": 93}, {"time": 1144, "pitch": 54, "duration": 4, "velocity": 83}, {"time": 1145, "pitch": 43, "duration": 3, "velocity": 89}, {"time": 1147, "pitch": 66, "duration": 4, "velocity": 90}, {"time": 1148, "pitch": 47, "duration": 5, "velocity": 89}, {"time": 1150, "pitch": 62, "duration": 3, "velocity": 101}, {"time": 1153, "pitch": 48, "duration": 16, "velocity": 101}, {"time": 1156, "pitch": 55, "duration": 17, "velocity": 104}, {"time": 1159, "pitch": 60, "duration": 5, "velocity": 61}, {"time": 1162, "pitch": 64, "duration": 10, "velocity": 71}, {"time": 1165, "pitch": 60, "duration": 6, "velocity": 60}, {"time": 1171, "pitch": 48, "duration": 6, "velocity": 100}, {"time": 1171, "pitch": 67, "duration": 3, "velocity": 89}, {"time": 1174, "pitch": 64, "duration": 3, "velocity": 100}, {"time": 1177, "pitch": 43, "duration": 11, "velocity": 100}, {"time": 1180, "pitch": 50, "duration": 11, "velocity": 81}, {"time": 1183, "pitch": 55, "duration": 7, "velocity": 70}, {"time": 1186, "pitch": 59, "duration": 9, "velocity": 79}, {"time": 1189, "pitch": 50, "duration": 2, "velocity": 98}, {"time": 1192, "pitch": 60, "duration": 6, "velocity": 98}, {"time": 1192, "pitch": 48, "duration": 4, "velocity": 98}, {"time": 1195, "pitch": 47, "duration": 5, "velocity": 98}, {"time": 1195, "pitch": 55, "duration": 5, "velocity": 63}, {"time": 1198, "pitch": 59, "duration": 4, "velocity": 70}, {"time": 1201, "pitch": 45, "duration": 13, "velocity": 97}, {"time": 1204, "pitch": 52, "duration": 18, "velocity": 65}, {"time": 1207, "pitch": 57, "duration": 7, "velocity": 61}, {"time": 1213, "pitch": 60, "duration": 6, "velocity": 86}, {"time": 1213, "pitch": 64, "duration": 6, "velocity": 86}, {"time": 1216, "pitch": 57, "duration": 7, "velocity": 97}, {"time": 1219, "pitch": 45, "duration": 5, "velocity": 97}, {"time": 1219, "pitch": 60, "duration": 5, "velocity": 97}, {"time": 1225, "pitch": 50, "duration": 9, "velocity": 98}, {"time": 1228, "pitch": 57, "duration": 22, "velocity": 62}, {"time": 1231, "pitch": 62, "duration": 5, "velocity": 64}, {"time": 1234, "pitch": 54, "duration": 17, "velocity": 97}, {"time": 1234, "pitch": 38, "duration": 3, "velocity": 97}, {"time": 1237, "pitch": 45, "duration": 3, "velocity": 98}, {"time": 1237, "pitch": 66, "duration": 8, "velocity": 98}, {"time": 1240, "pitch": 48, "duration": 3, "velocity": 98}, {"time": 1240, "pitch": 62, "duration": 4, "velocity": 98}, {"time": 1243, "pitch": 47, "duration": 3, "velocity": 97}, {"time": 1243, "pitch": 69, "duration": 5, "velocity": 98}, {"time": 1246, "pitch": 38, "duration": 3, "velocity": 98}, {"time": 1246, "pitch": 62, "duration": 4, "velocity": 98}, {"time": 1249, "pitch": 59, "duration": 8, "velocity": 98}, {"time": 1249, "pitch": 62, "duration": 1, "velocity": 98}, {"time": 1249, "pitch": 43, "duration": 22, "velocity": 97}, {"time": 1252, "pitch": 50, "duration": 21, "velocity": 97}, {"time": 1255, "pitch": 55, "duration": 7, "velocity": 60}, {"time": 1258, "pitch": 59, "duration": 2, "velocity": 58}, {"time": 1261, "pitch": 59, "duration": 11, "velocity": 52}, {"time": 1261, "pitch": 62, "duration": 11, "velocity": 81}, {"time": 1261, "pitch": 67, "duration": 11, "velocity": 79}, {"time": 1273, "pitch": 38, "duration": 19, "velocity": 86}, {"time": 1273, "pitch": 54, "duration": 10, "velocity": 64}, {"time": 1273, "pitch": 57, "duration": 10, "velocity": 53}, {"time": 1273, "pitch": 62, "duration": 9, "velocity": 48}, {"time": 1279, "pitch": 45, "duration": 18, "velocity": 67}, {"time": 1285, "pitch": 54, "duration": 7, "velocity": 69}, {"time": 1285, "pitch": 57, "duration": 7, "velocity": 75}, {"time": 1285, "pitch": 62, "duration": 7, "velocity": 81}, {"time": 1291, "pitch": 50, "duration": 5, "velocity": 58}, {"time": 1297, "pitch": 40, "duration": 19, "velocity": 74}, {"time": 1297, "pitch": 55, "duration": 11, "velocity": 67}, {"time": 1297, "pitch": 59, "duration": 10, "velocity": 75}, {"time": 1297, "pitch": 64, "duration": 10, "velocity": 76}, {"time": 1303, "pitch": 47, "duration": 9, "velocity": 62}, {"time": 1309, "pitch": 55, "duration": 6, "velocity": 76}, {"time": 1309, "pitch": 59, "duration": 6, "velocity": 87}, {"time": 1309, "pitch": 64, "duration": 6, "velocity": 85}, {"time": 1321, "pitch": 35, "duration": 19, "velocity": 81}, {"time": 1321, "pitch": 50, "duration": 11, "velocity": 72}, {"time": 1321, "pitch": 54, "duration": 11, "velocity": 76}, {"time": 1321, "pitch": 59, "duration": 11, "velocity": 81}, {"time": 1327, "pitch": 42, "duration": 18, "velocity": 76}, {"time": 1333, "pitch": 50, "duration": 7, "velocity": 76}, {"time": 1333, "pitch": 54, "duration": 7, "velocity": 83}, {"time": 1333, "pitch": 59, "duration": 7, "velocity": 77}, {"time": 1339, "pitch": 47, "duration": 6, "velocity": 58}, {"time": 1345, "pitch": 43, "duration": 7, "velocity": 79}, {"time": 1345, "pitch": 59, "duration": 7, "velocity": 76}, {"time": 1345, "pitch": 62, "duration": 6, "velocity": 81}, {"time": 1357, "pitch": 38, "duration": 6, "velocity": 79}, {"time": 1357, "pitch": 54, "duration": 6, "velocity": 74}, {"time": 1357, "pitch": 57, "duration": 5, "velocity": 75}, {"time": 1369, "pitch": 43, "duration": 18, "velocity": 76}, {"time": 1369, "pitch": 59, "duration": 10, "velocity": 64}, {"time": 1369, "pitch": 62, "duration": 11, "velocity": 73}, {"time": 1375, "pitch": 50, "duration": 18, "velocity": 68}, {"time": 1381, "pitch": 59, "duration": 7, "velocity": 73}, {"time": 1381, "pitch": 62, "duration": 7, "velocity": 79}, {"time": 1387, "pitch": 55, "duration": 6, "velocity": 49}, {"time": 1393, "pitch": 45, "duration": 20, "velocity": 83}, {"time": 1393, "pitch": 60, "duration": 8, "velocity": 71}, {"time": 1399, "pitch": 52, "duration": 13, "velocity": 58}, {"time": 1405, "pitch": 60, "duration": 6, "velocity": 87}, {"time": 1411, "pitch": 59, "duration": 6, "velocity": 70}, {"time": 1417, "pitch": 38, "duration": 20, "velocity": 85}, {"time": 1417, "pitch": 57, "duration": 10, "velocity": 72}, {"time": 1423, "pitch": 45, "duration": 16, "velocity": 75}, {"time": 1429, "pitch": 54, "duration": 14, "velocity": 77}, {"time": 1432, "pitch": 50, "duration": 9, "velocity": 60}, {"time": 1435, "pitch": 57, "duration": 7, "velocity": 61}, {"time": 1441, "pitch": 43, "duration": 38, "velocity": 76}, {"time": 1441, "pitch": 59, "duration": 10, "velocity": 65}, {"time": 1441, "pitch": 62, "duration": 11, "velocity": 81}, {"time": 1447, "pitch": 50, "duration": 31, "velocity": 66}, {"time": 1453, "pitch": 59, "duration": 10, "velocity": 53}, {"time": 1453, "pitch": 62, "duration": 25, "velocity": 77}, {"time": 1459, "pitch": 55, "duration": 7, "velocity": 49}, {"time": 1465, "pitch": 67, "duration": 13, "velocity": 75}, {"time": 1489, "pitch": 43, "duration": 8, "velocity": 85}, {"time": 1489, "pitch": 59, "duration": 7, "velocity": 85}, {"time": 1489, "pitch": 62, "duration": 7, "velocity": 81}, {"time": 1495, "pitch": 50, "duration": 2, "velocity": 77}, {"time": 1501, "pitch": 36, "duration": 9, "velocity": 74}, {"time": 1501, "pitch": 52, "duration": 7, "velocity": 69}, {"time": 1501, "pitch": 55, "duration": 7, "velocity": 75}, {"time": 1507, "pitch": 43, "duration": 6, "velocity": 86}, {"time": 1513, "pitch": 50, "duration": 20, "velocity": 93}, {"time": 1513, "pitch": 66, "duration": 10, "velocity": 70}, {"time": 1513, "pitch": 69, "duration": 11, "velocity": 83}, {"time": 1519, "pitch": 57, "duration": 13, "velocity": 61}, {"time": 1522, "pitch": 62, "duration": 6, "velocity": 64}, {"time": 1525, "pitch": 66, "duration": 6, "velocity": 108}, {"time": 1528, "pitch": 54, "duration": 5, "velocity": 79}, {"time": 1531, "pitch": 69, "duration": 3, "velocity": 67}, {"time": 1534, "pitch": 66, "duration": 4, "velocity": 74}, {"time": 1537, "pitch": 47, "duration": 21, "velocity": 74}, {"time": 1543, "pitch": 50, "duration": 15, "velocity": 68}, {"time": 1549, "pitch": 62, "duration": 7, "velocity": 85}, {"time": 1552, "pitch": 54, "duration": 5, "velocity": 68}, {"time": 1555, "pitch": 66, "duration": 4, "velocity": 111}, {"time": 1558, "pitch": 62, "duration": 3, "velocity": 60}, {"time": 1561, "pitch": 52, "duration": 22, "velocity": 79}, {"time": 1564, "pitch": 59, "duration": 18, "velocity": 65}, {"time": 1567, "pitch": 64, "duration": 8, "velocity": 67}, {"time": 1570, "pitch": 66, "duration": 2, "velocity": 67}, {"time": 1573, "pitch": 67, "duration": 7, "velocity": 72}, {"time": 1576, "pitch": 64, "duration": 6, "velocity": 83}, {"time": 1579, "pitch": 52, "duration": 4, "velocity": 58}, {"time": 1579, "pitch": 69, "duration": 3, "velocity": 95}, {"time": 1585, "pitch": 43, "duration": 7, "velocity": 86}, {"time": 1585, "pitch": 59, "duration": 6, "velocity": 79}, {"time": 1585, "pitch": 62, "duration": 6, "velocity": 85}, {"time": 1597, "pitch": 36, "duration": 7, "velocity": 83}, {"time": 1597, "pitch": 52, "duration": 7, "velocity": 77}, {"time": 1597, "pitch": 55, "duration": 7, "velocity": 79}, {"time": 1603, "pitch": 43, "duration": 6, "velocity": 79}, {"time": 1609, "pitch": 38, "duration": 21, "velocity": 79}, {"time": 1609, "pitch": 54, "duration": 11, "velocity": 81}, {"time": 1609, "pitch": 57, "duration": 11, "velocity": 81}, {"time": 1615, "pitch": 45, "duration": 14, "velocity": 74}, {"time": 1621, "pitch": 54, "duration": 7, "velocity": 77}, {"time": 1621, "pitch": 57, "duration": 7, "velocity": 76}, {"time": 1627, "pitch": 50, "duration": 2, "velocity": 51}, {"time": 1633, "pitch": 43, "duration": 12, "velocity": 86}, {"time": 1633, "pitch": 59, "duration": 12, "velocity": 83}, {"time": 1633, "pitch": 62, "duration": 12, "velocity": 85}, {"time": 1645, "pitch": 36, "duration": 8, "velocity": 73}, {"time": 1645, "pitch": 52, "duration": 7, "velocity": 76}, {"time": 1645, "pitch": 55, "duration": 7, "velocity": 79}, {"time": 1657, "pitch": 38, "duration": 16, "velocity": 77}, {"time": 1657, "pitch": 50, "duration": 21, "velocity": 104}, {"time": 1660, "pitch": 57, "duration": 18, "velocity": 61}, {"time": 1663, "pitch": 62, "duration": 6, "velocity": 63}, {"time": 1666, "pitch": 54, "duration": 13, "velocity": 65}, {"time": 1669, "pitch": 66, "duration": 7, "velocity": 93}, {"time": 1672, "pitch": 62, "duration": 4, "velocity": 73}, {"time": 1675, "pitch": 69, "duration": 3, "velocity": 90}, {"time": 1681, "pitch": 43, "duration": 20, "velocity": 76}, {"time": 1681, "pitch": 59, "duration": 11, "velocity": 79}, {"time": 1681, "pitch": 62, "duration": 11, "velocity": 77}, {"time": 1687, "pitch": 50, "duration": 13, "velocity": 68}, {"time": 1693, "pitch": 59, "duration": 7, "velocity": 83}, {"time": 1693, "pitch": 62, "duration": 7, "velocity": 90}, {"time": 1705, "pitch": 38, "duration": 19, "velocity": 77}, {"time": 1705, "pitch": 54, "duration": 10, "velocity": 81}, {"time": 1705, "pitch": 57, "duration": 11, "velocity": 76}, {"time": 1711, "pitch": 45, "duration": 18, "velocity": 75}, {"time": 1717, "pitch": 54, "duration": 7, "velocity": 87}, {"time": 1717, "pitch": 57, "duration": 7, "velocity": 86}, {"time": 1723, "pitch": 50, "duration": 5, "velocity": 59}, {"time": 1729, "pitch": 40, "duration": 21, "velocity": 73}, {"time": 1729, "pitch": 55, "duration": 10, "velocity": 79}, {"time": 1729, "pitch": 59, "duration": 11, "velocity": 79}, {"time": 1735, "pitch": 47, "duration": 13, "velocity": 59}, {"time": 1741, "pitch": 55, "duration": 7, "velocity": 81}, {"time": 1741, "pitch": 59, "duration": 7, "velocity": 86}, {"time": 1747, "pitch": 52, "duration": 2, "velocity": 61}, {"time": 1753, "pitch": 35, "duration": 19, "velocity": 74}, {"time": 1753, "pitch": 50, "duration": 10, "velocity": 81}, {"time": 1753, "pitch": 54, "duration": 11, "velocity": 81}, {"time": 1759, "pitch": 42, "duration": 18, "velocity": 74}, {"time": 1765, "pitch": 50, "duration": 7, "velocity": 87}, {"time": 1765, "pitch": 54, "duration": 7, "velocity": 83}, {"time": 1771, "pitch": 47, "duration": 5, "velocity": 60}, {"time": 1777, "pitch": 48, "duration": 21, "velocity": 108}, {"time": 1777, "pitch": 64, "duration": 8, "velocity": 77}, {"time": 1780, "pitch": 55, "duration": 18, "velocity": 63}, {"time": 1783, "pitch": 60, "duration": 5, "velocity": 72}, {"time": 1786, "pitch": 67, "duration": 4, "velocity": 69}, {"time": 1789, "pitch": 60, "duration": 7, "velocity": 77}, {"time": 1801, "pitch": 43, "duration": 24, "velocity": 74}, {"time": 1804, "pitch": 50, "duration": 21, "velocity": 63}, {"time": 1807, "pitch": 55, "duration": 7, "velocity": 62}, {"time": 1810, "pitch": 59, "duration": 7, "velocity": 72}, {"time": 1813, "pitch": 62, "duration": 7, "velocity": 74}, {"time": 1816, "pitch": 55, "duration": 7, "velocity": 54}, {"time": 1819, "pitch": 59, "duration": 4, "velocity": 72}, {"time": 1822, "pitch": 67, "duration": 2, "velocity": 74}, {"time": 1825, "pitch": 45, "duration": 20, "velocity": 83}, {"time": 1825, "pitch": 60, "duration": 11, "velocity": 93}, {"time": 1825, "pitch": 64, "duration": 11, "velocity": 86}, {"time": 1831, "pitch": 52, "duration": 13, "velocity": 63}, {"time": 1837, "pitch": 60, "duration": 7, "velocity": 93}, {"time": 1837, "pitch": 64, "duration": 7, "velocity": 83}, {"time": 1843, "pitch": 57, "duration": 2, "velocity": 63}, {"time": 1849, "pitch": 38, "duration": 18, "velocity": 79}, {"time": 1849, "pitch": 54, "duration": 11, "velocity": 81}, {"time": 1849, "pitch": 57, "duration": 11, "velocity": 77}, {"time": 1855, "pitch": 45, "duration": 13, "velocity": 74}, {"time": 1861, "pitch": 54, "duration": 7, "velocity": 87}, {"time": 1861, "pitch": 57, "duration": 7, "velocity": 85}, {"time": 1867, "pitch": 50, "duration": 6, "velocity": 63}, {"time": 1873, "pitch": 43, "duration": 20, "velocity": 86}, {"time": 1873, "pitch": 59, "duration": 11, "velocity": 85}, {"time": 1873, "pitch": 62, "duration": 11, "velocity": 76}, {"time": 1879, "pitch": 50, "duration": 13, "velocity": 70}, {"time": 1885, "pitch": 59, "duration": 7, "velocity": 73}, {"time": 1885, "pitch": 62, "duration": 6, "velocity": 100}, {"time": 1891, "pitch": 55, "duration": 2, "velocity": 59}, {"time": 1897, "pitch": 38, "duration": 22, "velocity": 76}, {"time": 1897, "pitch": 54, "duration": 10, "velocity": 81}, {"time": 1897, "pitch": 57, "duration": 10, "velocity": 66}, {"time": 1903, "pitch": 45, "duration": 17, "velocity": 66}, {"time": 1909, "pitch": 54, "duration": 7, "velocity": 77}, {"time": 1909, "pitch": 57, "duration": 8, "velocity": 86}, {"time": 1915, "pitch": 50, "duration": 5, "velocity": 59}, {"time": 1918, "pitch": 54, "duration": 2, "velocity": 81}, {"time": 1921, "pitch": 48, "duration": 23, "velocity": 75}, {"time": 1924, "pitch": 55, "duration": 20, "velocity": 59}, {"time": 1927, "pitch": 60, "duration": 7, "velocity": 60}, {"time": 1930, "pitch": 64, "duration": 4, "velocity": 73}, {"time": 1933, "pitch": 67, "duration": 6, "velocity": 85}, {"time": 1936, "pitch": 60, "duration": 7, "velocity": 67}, {"time": 1939, "pitch": 64, "duration": 3, "velocity": 74}, {"time": 1945, "pitch": 47, "duration": 19, "velocity": 76}, {"time": 1945, "pitch": 62, "duration": 11, "velocity": 76}, {"time": 1945, "pitch": 66, "duration": 11, "velocity": 77}, {"time": 1951, "pitch": 54, "duration": 18, "velocity": 79}, {"time": 1957, "pitch": 62, "duration": 7, "velocity": 79}, {"time": 1957, "pitch": 66, "duration": 7, "velocity": 93}, {"time": 1963, "pitch": 59, "duration": 6, "velocity": 63}, {"time": 1969, "pitch": 48, "duration": 18, "velocity": 83}, {"time": 1969, "pitch": 64, "duration": 11, "velocity": 73}, {"time": 1969, "pitch": 67, "duration": 11, "velocity": 79}, {"time": 1975, "pitch": 55, "duration": 13, "velocity": 72}, {"time": 1981, "pitch": 64, "duration": 7, "velocity": 79}, {"time": 1981, "pitch": 67, "duration": 7, "velocity": 95}, {"time": 1993, "pitch": 43, "duration": 19, "velocity": 81}, {"time": 1993, "pitch": 59, "duration": 10, "velocity": 65}, {"time": 1993, "pitch": 62, "duration": 7, "velocity": 86}, {"time": 1999, "pitch": 50, "duration": 18, "velocity": 72}, {"time": 2002, "pitch": 62, "duration": 2, "velocity": 13}, {"time": 2005, "pitch": 59, "duration": 7, "velocity": 90}, {"time": 2005, "pitch": 62, "duration": 7, "velocity": 112}, {"time": 2011, "pitch": 55, "duration": 5, "velocity": 53}, {"time": 2017, "pitch": 45, "duration": 20, "velocity": 85}, {"time": 2017, "pitch": 60, "duration": 11, "velocity": 87}, {"time": 2017, "pitch": 64, "duration": 11, "velocity": 87}, {"time": 2023, "pitch": 52, "duration": 13, "velocity": 62}, {"time": 2029, "pitch": 60, "duration": 7, "velocity": 95}, {"time": 2029, "pitch": 64, "duration": 6, "velocity": 100}, {"time": 2035, "pitch": 57, "duration": 1, "velocity": 61}, {"time": 2041, "pitch": 50, "duration": 23, "velocity": 98}, {"time": 2044, "pitch": 57, "duration": 20, "velocity": 64}, {"time": 2047, "pitch": 62, "duration": 6, "velocity": 70}, {"time": 2050, "pitch": 54, "duration": 14, "velocity": 63}, {"time": 2053, "pitch": 62, "duration": 1, "velocity": 79}, {"time": 2053, "pitch": 66, "duration": 3, "velocity": 77}, {"time": 2053, "pitch": 66, "duration": 3, "velocity": 95}, {"time": 2056, "pitch": 62, "duration": 1, "velocity": 87}, {"time": 2059, "pitch": 62, "duration": 4, "velocity": 76}, {"time": 2059, "pitch": 67, "duration": 4, "velocity": 81}, {"time": 2059, "pitch": 69, "duration": 3, "velocity": 79}, {"time": 2065, "pitch": 43, "duration": 20, "velocity": 76}, {"time": 2065, "pitch": 59, "duration": 11, "velocity": 65}, {"time": 2065, "pitch": 59, "duration": 11, "velocity": 79}, {"time": 2065, "pitch": 62, "duration": 11, "velocity": 74}, {"time": 2065, "pitch": 62, "duration": 11, "velocity": 77}, {"time": 2065, "pitch": 67, "duration": 11, "velocity": 71}, {"time": 2071, "pitch": 50, "duration": 13, "velocity": 68}, {"time": 2077, "pitch": 59, "duration": 7, "velocity": 83}, {"time": 2077, "pitch": 62, "duration": 7, "velocity": 90}, {"time": 2077, "pitch": 67, "duration": 6, "velocity": 79}, {"time": 2089, "pitch": 38, "duration": 19, "velocity": 66}, {"time": 2089, "pitch": 54, "duration": 11, "velocity": 67}, {"time": 2089, "pitch": 57, "duration": 11, "velocity": 60}, {"time": 2089, "pitch": 62, "duration": 8, "velocity": 64}, {"time": 2095, "pitch": 45, "duration": 18, "velocity": 75}, {"time": 2101, "pitch": 54, "duration": 7, "velocity": 83}, {"time": 2101, "pitch": 57, "duration": 7, "velocity": 86}, {"time": 2101, "pitch": 57, "duration": 7, "velocity": 87}, {"time": 2107, "pitch": 50, "duration": 5, "velocity": 59}, {"time": 2113, "pitch": 40, "duration": 21, "velocity": 73}, {"time": 2113, "pitch": 55, "duration": 10, "velocity": 79}, {"time": 2113, "pitch": 59, "duration": 11, "velocity": 79}, {"time": 2119, "pitch": 47, "duration": 13, "velocity": 59}, {"time": 2125, "pitch": 55, "duration": 7, "velocity": 81}, {"time": 2125, "pitch": 59, "duration": 7, "velocity": 86}, {"time": 2131, "pitch": 52, "duration": 2, "velocity": 61}, {"time": 2137, "pitch": 47, "duration": 24, "velocity": 39}, {"time": 2140, "pitch": 50, "duration": 21, "velocity": 77}, {"time": 2143, "pitch": 54, "duration": 8, "velocity": 52}, {"time": 2149, "pitch": 62, "duration": 10, "velocity": 76}, {"time": 2155, "pitch": 54, "duration": 6, "velocity": 85}, {"time": 2158, "pitch": 66, "duration": 3, "velocity": 104}, {"time": 2161, "pitch": 48, "duration": 24, "velocity": 83}, {"time": 2161, "pitch": 62, "duration": 1, "velocity": 66}, {"time": 2164, "pitch": 55, "duration": 21, "velocity": 58}, {"time": 2167, "pitch": 60, "duration": 7, "velocity": 63}, {"time": 2173, "pitch": 64, "duration": 7, "velocity": 74}, {"time": 2176, "pitch": 60, "duration": 8, "velocity": 73}, {"time": 2179, "pitch": 67, "duration": 4, "velocity": 90}, {"time": 2185, "pitch": 43, "duration": 19, "velocity": 63}, {"time": 2185, "pitch": 59, "duration": 10, "velocity": 83}, {"time": 2185, "pitch": 62, "duration": 10, "velocity": 85}, {"time": 2197, "pitch": 50, "duration": 12, "velocity": 68}, {"time": 2197, "pitch": 59, "duration": 7, "velocity": 83}, {"time": 2197, "pitch": 62, "duration": 7, "velocity": 85}, {"time": 2203, "pitch": 55, "duration": 5, "velocity": 59}, {"time": 2209, "pitch": 45, "duration": 20, "velocity": 83}, {"time": 2209, "pitch": 60, "duration": 11, "velocity": 93}, {"time": 2209, "pitch": 64, "duration": 11, "velocity": 86}, {"time": 2215, "pitch": 52, "duration": 13, "velocity": 63}, {"time": 2221, "pitch": 60, "duration": 7, "velocity": 93}, {"time": 2221, "pitch": 64, "duration": 7, "velocity": 83}, {"time": 2227, "pitch": 57, "duration": 2, "velocity": 63}, {"time": 2233, "pitch": 50, "duration": 25, "velocity": 98}, {"time": 2236, "pitch": 57, "duration": 21, "velocity": 54}, {"time": 2239, "pitch": 62, "duration": 6, "velocity": 60}, {"time": 2242, "pitch": 54, "duration": 15, "velocity": 59}, {"time": 2245, "pitch": 66, "duration": 7, "velocity": 90}, {"time": 2248, "pitch": 62, "duration": 4, "velocity": 76}, {"time": 2251, "pitch": 69, "duration": 4, "velocity": 74}, {"time": 2254, "pitch": 62, "duration": 3, "velocity": 81}, {"time": 2257, "pitch": 43, "duration": 20, "velocity": 86}, {"time": 2257, "pitch": 59, "duration": 11, "velocity": 85}, {"time": 2257, "pitch": 62, "duration": 11, "velocity": 76}, {"time": 2263, "pitch": 50, "duration": 13, "velocity": 70}, {"time": 2269, "pitch": 59, "duration": 7, "velocity": 73}, {"time": 2269, "pitch": 62, "duration": 6, "velocity": 100}, {"time": 2275, "pitch": 55, "duration": 2, "velocity": 59}, {"time": 2281, "pitch": 38, "duration": 22, "velocity": 76}, {"time": 2281, "pitch": 54, "duration": 10, "velocity": 81}, {"time": 2281, "pitch": 57, "duration": 10, "velocity": 66}, {"time": 2287, "pitch": 45, "duration": 17, "velocity": 66}, {"time": 2293, "pitch": 54, "duration": 7, "velocity": 77}, {"time": 2293, "pitch": 57, "duration": 8, "velocity": 86}, {"time": 2299, "pitch": 50, "duration": 5, "velocity": 59}, {"time": 2302, "pitch": 54, "duration": 2, "velocity": 81}, {"time": 2305, "pitch": 40, "duration": 20, "velocity": 73}, {"time": 2305, "pitch": 55, "duration": 11, "velocity": 87}, {"time": 2305, "pitch": 59, "duration": 11, "velocity": 83}, {"time": 2311, "pitch": 47, "duration": 12, "velocity": 70}, {"time": 2317, "pitch": 55, "duration": 7, "velocity": 74}, {"time": 2317, "pitch": 59, "duration": 6, "velocity": 93}, {"time": 2323, "pitch": 52, "duration": 2, "velocity": 59}, {"time": 2329, "pitch": 47, "duration": 24, "velocity": 76}, {"time": 2332, "pitch": 50, "duration": 21, "velocity": 75}, {"time": 2338, "pitch": 54, "duration": 5, "velocity": 69}, {"time": 2341, "pitch": 62, "duration": 8, "velocity": 74}, {"time": 2344, "pitch": 54, "duration": 9, "velocity": 73}, {"time": 2347, "pitch": 66, "duration": 6, "velocity": 98}, {"time": 2353, "pitch": 48, "duration": 20, "velocity": 95}, {"time": 2356, "pitch": 55, "duration": 16, "velocity": 58}, {"time": 2359, "pitch": 60, "duration": 6, "velocity": 60}, {"time": 2362, "pitch": 64, "duration": 10, "velocity": 72}, {"time": 2368, "pitch": 60, "duration": 3, "velocity": 63}, {"time": 2371, "pitch": 67, "duration": 4, "velocity": 90}, {"time": 2374, "pitch": 64, "duration": 3, "velocity": 72}, {"time": 2377, "pitch": 43, "duration": 19, "velocity": 81}, {"time": 2377, "pitch": 59, "duration": 10, "velocity": 65}, {"time": 2377, "pitch": 62, "duration": 7, "velocity": 86}, {"time": 2383, "pitch": 50, "duration": 18, "velocity": 72}, {"time": 2386, "pitch": 62, "duration": 2, "velocity": 13}, {"time": 2389, "pitch": 59, "duration": 7, "velocity": 90}, {"time": 2389, "pitch": 62, "duration": 7, "velocity": 112}, {"time": 2395, "pitch": 55, "duration": 5, "velocity": 53}, {"time": 2401, "pitch": 45, "duration": 20, "velocity": 85}, {"time": 2401, "pitch": 60, "duration": 11, "velocity": 87}, {"time": 2401, "pitch": 64, "duration": 11, "velocity": 87}, {"time": 2407, "pitch": 52, "duration": 13, "velocity": 62}, {"time": 2413, "pitch": 60, "duration": 7, "velocity": 95}, {"time": 2413, "pitch": 64, "duration": 6, "velocity": 100}, {"time": 2419, "pitch": 57, "duration": 1, "velocity": 61}, {"time": 2425, "pitch": 38, "duration": 18, "velocity": 61}, {"time": 2425, "pitch": 54, "duration": 11, "velocity": 75}, {"time": 2425, "pitch": 57, "duration": 11, "velocity": 83}, {"time": 2431, "pitch": 45, "duration": 12, "velocity": 72}, {"time": 2437, "pitch": 54, "duration": 7, "velocity": 90}, {"time": 2437, "pitch": 57, "duration": 7, "velocity": 98}, {"time": 2437, "pitch": 62, "duration": 3, "velocity": 79}, {"time": 2437, "pitch": 66, "duration": 3, "velocity": 95}, {"time": 2443, "pitch": 50, "duration": 6, "velocity": 64}, {"time": 2443, "pitch": 62, "duration": 4, "velocity": 76}, {"time": 2443, "pitch": 67, "duration": 4, "velocity": 81}, {"time": 2449, "pitch": 36, "duration": 83, "velocity": 81}, {"time": 2449, "pitch": 52, "duration": 11, "velocity": 62}, {"time": 2449, "pitch": 55, "duration": 11, "velocity": 63}, {"time": 2449, "pitch": 60, "duration": 11, "velocity": 71}, {"time": 2455, "pitch": 43, "duration": 77, "velocity": 75}, {"time": 2461, "pitch": 52, "duration": 11, "velocity": 61}, {"time": 2461, "pitch": 55, "duration": 11, "velocity": 74}, {"time": 2461, "pitch": 60, "duration": 11, "velocity": 76}, {"time": 2467, "pitch": 48, "duration": 11, "velocity": 54}, {"time": 2473, "pitch": 52, "duration": 11, "velocity": 60}, {"time": 2473, "pitch": 55, "duration": 11, "velocity": 74}, {"time": 2473, "pitch": 60, "duration": 11, "velocity": 81}, {"time": 2479, "pitch": 48, "duration": 9, "velocity": 58}, {"time": 2485, "pitch": 52, "duration": 14, "velocity": 65}, {"time": 2485, "pitch": 55, "duration": 12, "velocity": 75}, {"time": 2485, "pitch": 60, "duration": 11, "velocity": 77}, {"time": 2485, "pitch": 69, "duration": 4, "velocity": 86}, {"time": 2488, "pitch": 71, "duration": 2, "velocity": 72}, {"time": 2491, "pitch": 48, "duration": 40, "velocity": 52}, {"time": 2494, "pitch": 72, "duration": 4, "velocity": 86}, {"time": 2500, "pitch": 71, "duration": 4, "velocity": 79}, {"time": 2509, "pitch": 67, "duration": 37, "velocity": 86}, {"time": 2544, "pitch": 55, "duration": 2, "velocity": 49}, {"time": 2548, "pitch": 43, "duration": 62, "velocity": 70}, {"time": 2549, "pitch": 57, "duration": 8, "velocity": 74}, {"time": 2554, "pitch": 50, "duration": 54, "velocity": 64}, {"time": 2560, "pitch": 59, "duration": 47, "velocity": 68}, {"time": 2566, "pitch": 55, "duration": 41, "velocity": 37}], "annotations": [{"time": 0, "annotation": {"number": 64, "value": 81}, "group": "control_change"}, {"time": 48, "annotation": {"number": 64, "value": 83}, "group": "control_change"}, {"time": 60, "annotation": {"number": 64, "value": 84}, "group": "control_change"}, {"time": 1232, "annotation": {"number": 64, "value": 84}, "group": "control_change"}, {"time": 1235, "annotation": {"number": 64, "value": 0}, "group": "control_change"}, {"time": 1250, "annotation": {"number": 64, "value": 84}, "group": "control_change"}]}]}