{"metadata": {"schema_version": "0.2", "title": "None", "source_filename": "051.mid", "source_format": "midi"}, "resolution": 12, "tempos": [{"time": 0, "qpm": 64.99999458333379}], "time_signatures": [{"time": 0, "numerator": 1, "denominator": 4}], "tracks": [{"program": 0, "is_drum": false, "name": "MELODY", "notes": [{"time": 206, "pitch": 63, "duration": 6, "velocity": 89}, {"time": 212, "pitch": 61, "duration": 7, "velocity": 89}, {"time": 218, "pitch": 63, "duration": 5, "velocity": 89}, {"time": 224, "pitch": 66, "duration": 2, "velocity": 89}, {"time": 230, "pitch": 66, "duration": 10, "velocity": 89}, {"time": 242, "pitch": 61, "duration": 8, "velocity": 89}, {"time": 254, "pitch": 59, "duration": 6, "velocity": 89}, {"time": 260, "pitch": 58, "duration": 6, "velocity": 89}, {"time": 266, "pitch": 59, "duration": 4, "velocity": 89}, {"time": 272, "pitch": 63, "duration": 3, "velocity": 89}, {"time": 278, "pitch": 63, "duration": 9, "velocity": 89}, {"time": 302, "pitch": 56, "duration": 6, "velocity": 89}, {"time": 308, "pitch": 54, "duration": 7, "velocity": 89}, {"time": 314, "pitch": 56, "duration": 6, "velocity": 89}, {"time": 320, "pitch": 68, "duration": 4, "velocity": 89}, {"time": 326, "pitch": 66, "duration": 8, "velocity": 89}, {"time": 338, "pitch": 59, "duration": 6, "velocity": 89}, {"time": 350, "pitch": 56, "duration": 8, "velocity": 89}, {"time": 356, "pitch": 58, "duration": 8, "velocity": 89}, {"time": 362, "pitch": 59, "duration": 3, "velocity": 89}, {"time": 368, "pitch": 63, "duration": 3, "velocity": 89}, {"time": 374, "pitch": 61, "duration": 12, "velocity": 89}, {"time": 398, "pitch": 63, "duration": 6, "velocity": 89}, {"time": 404, "pitch": 59, "duration": 6, "velocity": 89}, {"time": 410, "pitch": 63, "duration": 4, "velocity": 89}, {"time": 416, "pitch": 66, "duration": 4, "velocity": 89}, {"time": 422, "pitch": 66, "duration": 10, "velocity": 89}, {"time": 434, "pitch": 61, "duration": 6, "velocity": 89}, {"time": 446, "pitch": 71, "duration": 6, "velocity": 90}, {"time": 452, "pitch": 70, "duration": 7, "velocity": 90}, {"time": 458, "pitch": 68, "duration": 6, "velocity": 90}, {"time": 464, "pitch": 63, "duration": 6, "velocity": 90}, {"time": 470, "pitch": 66, "duration": 18, "velocity": 90}, {"time": 494, "pitch": 71, "duration": 7, "velocity": 90}, {"time": 500, "pitch": 70, "duration": 7, "velocity": 90}, {"time": 506, "pitch": 68, "duration": 6, "velocity": 90}, {"time": 512, "pitch": 63, "duration": 5, "velocity": 90}, {"time": 518, "pitch": 66, "duration": 8, "velocity": 90}, {"time": 530, "pitch": 59, "duration": 7, "velocity": 90}, {"time": 542, "pitch": 64, "duration": 4, "velocity": 90}, {"time": 548, "pitch": 63, "duration": 4, "velocity": 90}, {"time": 554, "pitch": 61, "duration": 3, "velocity": 90}, {"time": 560, "pitch": 59, "duration": 3, "velocity": 90}, {"time": 566, "pitch": 59, "duration": 24, "velocity": 90}, {"time": 614, "pitch": 71, "duration": 4, "velocity": 90}, {"time": 620, "pitch": 71, "duration": 3, "velocity": 90}, {"time": 626, "pitch": 71, "duration": 3, "velocity": 90}, {"time": 632, "pitch": 63, "duration": 3, "velocity": 90}, {"time": 638, "pitch": 70, "duration": 18, "velocity": 90}, {"time": 662, "pitch": 68, "duration": 3, "velocity": 90}, {"time": 668, "pitch": 68, "duration": 2, "velocity": 90}, {"time": 674, "pitch": 68, "duration": 3, "velocity": 90}, {"time": 680, "pitch": 59, "duration": 4, "velocity": 90}, {"time": 686, "pitch": 66, "duration": 18, "velocity": 90}, {"time": 704, "pitch": 68, "duration": 3, "velocity": 90}, {"time": 707, "pitch": 70, "duration": 2, "velocity": 90}, {"time": 710, "pitch": 71, "duration": 4, "velocity": 90}, {"time": 716, "pitch": 71, "duration": 4, "velocity": 90}, {"time": 722, "pitch": 71, "duration": 3, "velocity": 90}, {"time": 728, "pitch": 71, "duration": 4, "velocity": 91}, {"time": 734, "pitch": 71, "duration": 7, "velocity": 91}, {"time": 746, "pitch": 68, "duration": 2, "velocity": 91}, {"time": 752, "pitch": 66, "duration": 30, "velocity": 91}, {"time": 800, "pitch": 71, "duration": 3, "velocity": 91}, {"time": 803, "pitch": 73, "duration": 2, "velocity": 91}, {"time": 806, "pitch": 75, "duration": 3, "velocity": 91}, {"time": 812, "pitch": 75, "duration": 2, "velocity": 91}, {"time": 818, "pitch": 75, "duration": 6, "velocity": 91}, {"time": 824, "pitch": 66, "duration": 4, "velocity": 91}, {"time": 830, "pitch": 73, "duration": 2, "velocity": 91}, {"time": 836, "pitch": 73, "duration": 3, "velocity": 91}, {"time": 842, "pitch": 73, "duration": 3, "velocity": 91}, {"time": 848, "pitch": 66, "duration": 3, "velocity": 91}, {"time": 854, "pitch": 71, "duration": 4, "velocity": 91}, {"time": 860, "pitch": 70, "duration": 5, "velocity": 91}, {"time": 866, "pitch": 68, "duration": 6, "velocity": 91}, {"time": 872, "pitch": 63, "duration": 4, "velocity": 91}, {"time": 878, "pitch": 66, "duration": 18, "velocity": 91}, {"time": 896, "pitch": 73, "duration": 2, "velocity": 91}, {"time": 899, "pitch": 75, "duration": 2, "velocity": 91}, {"time": 902, "pitch": 76, "duration": 4, "velocity": 91}, {"time": 908, "pitch": 76, "duration": 4, "velocity": 91}, {"time": 914, "pitch": 76, "duration": 5, "velocity": 91}, {"time": 920, "pitch": 68, "duration": 5, "velocity": 91}, {"time": 926, "pitch": 75, "duration": 6, "velocity": 91}, {"time": 932, "pitch": 73, "duration": 4, "velocity": 91}, {"time": 938, "pitch": 71, "duration": 9, "velocity": 91}, {"time": 947, "pitch": 66, "duration": 2, "velocity": 91}, {"time": 950, "pitch": 65, "duration": 4, "velocity": 91}, {"time": 956, "pitch": 68, "duration": 3, "velocity": 91}, {"time": 962, "pitch": 71, "duration": 4, "velocity": 91}, {"time": 968, "pitch": 75, "duration": 4, "velocity": 91}, {"time": 974, "pitch": 73, "duration": 16, "velocity": 90}, {"time": 992, "pitch": 71, "duration": 2, "velocity": 90}, {"time": 995, "pitch": 73, "duration": 2, "velocity": 90}, {"time": 998, "pitch": 75, "duration": 4, "velocity": 90}, {"time": 1004, "pitch": 75, "duration": 2, "velocity": 90}, {"time": 1010, "pitch": 75, "duration": 6, "velocity": 90}, {"time": 1016, "pitch": 66, "duration": 5, "velocity": 90}, {"time": 1022, "pitch": 67, "duration": 6, "velocity": 90}, {"time": 1028, "pitch": 70, "duration": 4, "velocity": 90}, {"time": 1034, "pitch": 76, "duration": 4, "velocity": 90}, {"time": 1040, "pitch": 75, "duration": 4, "velocity": 90}, {"time": 1046, "pitch": 73, "duration": 4, "velocity": 90}, {"time": 1052, "pitch": 71, "duration": 7, "velocity": 90}, {"time": 1061, "pitch": 71, "duration": 5, "velocity": 90}, {"time": 1067, "pitch": 66, "duration": 2, "velocity": 90}, {"time": 1070, "pitch": 67, "duration": 21, "velocity": 90}, {"time": 1088, "pitch": 73, "duration": 3, "velocity": 89}, {"time": 1091, "pitch": 75, "duration": 2, "velocity": 89}, {"time": 1094, "pitch": 78, "duration": 4, "velocity": 89}, {"time": 1100, "pitch": 76, "duration": 4, "velocity": 89}, {"time": 1106, "pitch": 76, "duration": 4, "velocity": 89}, {"time": 1112, "pitch": 68, "duration": 4, "velocity": 89}, {"time": 1118, "pitch": 75, "duration": 4, "velocity": 89}, {"time": 1124, "pitch": 73, "duration": 3, "velocity": 89}, {"time": 1130, "pitch": 71, "duration": 6, "velocity": 89}, {"time": 1139, "pitch": 66, "duration": 2, "velocity": 89}, {"time": 1142, "pitch": 65, "duration": 4, "velocity": 89}, {"time": 1148, "pitch": 68, "duration": 5, "velocity": 89}, {"time": 1154, "pitch": 71, "duration": 4, "velocity": 88}, {"time": 1160, "pitch": 75, "duration": 4, "velocity": 88}, {"time": 1166, "pitch": 73, "duration": 15, "velocity": 88}, {"time": 1184, "pitch": 71, "duration": 4, "velocity": 88}, {"time": 1190, "pitch": 71, "duration": 20, "velocity": 88}, {"time": 1382, "pitch": 63, "duration": 6, "velocity": 87}, {"time": 1388, "pitch": 61, "duration": 7, "velocity": 87}, {"time": 1394, "pitch": 63, "duration": 5, "velocity": 87}, {"time": 1400, "pitch": 66, "duration": 2, "velocity": 87}, {"time": 1406, "pitch": 66, "duration": 10, "velocity": 87}, {"time": 1418, "pitch": 61, "duration": 8, "velocity": 87}, {"time": 1430, "pitch": 59, "duration": 6, "velocity": 87}, {"time": 1436, "pitch": 58, "duration": 6, "velocity": 87}, {"time": 1442, "pitch": 59, "duration": 4, "velocity": 87}, {"time": 1448, "pitch": 63, "duration": 3, "velocity": 87}, {"time": 1454, "pitch": 63, "duration": 9, "velocity": 87}, {"time": 1478, "pitch": 56, "duration": 6, "velocity": 87}, {"time": 1484, "pitch": 54, "duration": 7, "velocity": 87}, {"time": 1490, "pitch": 56, "duration": 6, "velocity": 87}, {"time": 1496, "pitch": 68, "duration": 4, "velocity": 87}, {"time": 1502, "pitch": 66, "duration": 8, "velocity": 87}, {"time": 1514, "pitch": 59, "duration": 6, "velocity": 87}, {"time": 1526, "pitch": 56, "duration": 8, "velocity": 87}, {"time": 1532, "pitch": 58, "duration": 8, "velocity": 87}, {"time": 1538, "pitch": 59, "duration": 3, "velocity": 87}, {"time": 1544, "pitch": 63, "duration": 3, "velocity": 87}, {"time": 1550, "pitch": 61, "duration": 12, "velocity": 87}, {"time": 1574, "pitch": 63, "duration": 6, "velocity": 87}, {"time": 1580, "pitch": 59, "duration": 6, "velocity": 87}, {"time": 1586, "pitch": 63, "duration": 4, "velocity": 87}, {"time": 1592, "pitch": 66, "duration": 4, "velocity": 87}, {"time": 1598, "pitch": 66, "duration": 10, "velocity": 87}, {"time": 1610, "pitch": 61, "duration": 6, "velocity": 87}, {"time": 1622, "pitch": 71, "duration": 6, "velocity": 87}, {"time": 1628, "pitch": 70, "duration": 7, "velocity": 87}, {"time": 1634, "pitch": 68, "duration": 6, "velocity": 87}, {"time": 1640, "pitch": 63, "duration": 6, "velocity": 87}, {"time": 1646, "pitch": 66, "duration": 18, "velocity": 87}, {"time": 1670, "pitch": 71, "duration": 7, "velocity": 87}, {"time": 1676, "pitch": 70, "duration": 7, "velocity": 87}, {"time": 1682, "pitch": 68, "duration": 6, "velocity": 87}, {"time": 1688, "pitch": 63, "duration": 5, "velocity": 87}, {"time": 1694, "pitch": 66, "duration": 8, "velocity": 87}, {"time": 1706, "pitch": 59, "duration": 7, "velocity": 87}, {"time": 1718, "pitch": 64, "duration": 4, "velocity": 87}, {"time": 1724, "pitch": 63, "duration": 4, "velocity": 88}, {"time": 1730, "pitch": 61, "duration": 3, "velocity": 88}, {"time": 1736, "pitch": 59, "duration": 3, "velocity": 88}, {"time": 1742, "pitch": 59, "duration": 24, "velocity": 88}, {"time": 1790, "pitch": 71, "duration": 4, "velocity": 88}, {"time": 1796, "pitch": 71, "duration": 3, "velocity": 88}, {"time": 1802, "pitch": 71, "duration": 3, "velocity": 88}, {"time": 1808, "pitch": 63, "duration": 3, "velocity": 88}, {"time": 1814, "pitch": 70, "duration": 18, "velocity": 88}, {"time": 1838, "pitch": 68, "duration": 3, "velocity": 89}, {"time": 1844, "pitch": 68, "duration": 2, "velocity": 89}, {"time": 1850, "pitch": 68, "duration": 3, "velocity": 89}, {"time": 1856, "pitch": 59, "duration": 4, "velocity": 89}, {"time": 1862, "pitch": 66, "duration": 18, "velocity": 89}, {"time": 1880, "pitch": 68, "duration": 3, "velocity": 89}, {"time": 1883, "pitch": 70, "duration": 2, "velocity": 89}, {"time": 1886, "pitch": 71, "duration": 4, "velocity": 89}, {"time": 1892, "pitch": 71, "duration": 4, "velocity": 89}, {"time": 1898, "pitch": 71, "duration": 3, "velocity": 89}, {"time": 1904, "pitch": 71, "duration": 4, "velocity": 89}, {"time": 1910, "pitch": 71, "duration": 7, "velocity": 89}, {"time": 1922, "pitch": 68, "duration": 2, "velocity": 89}, {"time": 1928, "pitch": 66, "duration": 30, "velocity": 89}, {"time": 1976, "pitch": 71, "duration": 3, "velocity": 89}, {"time": 1979, "pitch": 73, "duration": 2, "velocity": 89}, {"time": 1982, "pitch": 75, "duration": 3, "velocity": 89}, {"time": 1988, "pitch": 75, "duration": 2, "velocity": 89}, {"time": 1994, "pitch": 75, "duration": 6, "velocity": 89}, {"time": 2000, "pitch": 66, "duration": 4, "velocity": 89}, {"time": 2006, "pitch": 73, "duration": 2, "velocity": 89}, {"time": 2012, "pitch": 73, "duration": 3, "velocity": 89}, {"time": 2018, "pitch": 73, "duration": 3, "velocity": 89}, {"time": 2024, "pitch": 66, "duration": 3, "velocity": 89}, {"time": 2030, "pitch": 71, "duration": 4, "velocity": 89}, {"time": 2036, "pitch": 70, "duration": 5, "velocity": 89}, {"time": 2042, "pitch": 68, "duration": 6, "velocity": 89}, {"time": 2048, "pitch": 63, "duration": 4, "velocity": 89}, {"time": 2054, "pitch": 66, "duration": 18, "velocity": 89}, {"time": 2072, "pitch": 73, "duration": 2, "velocity": 89}, {"time": 2075, "pitch": 75, "duration": 2, "velocity": 89}, {"time": 2078, "pitch": 76, "duration": 4, "velocity": 89}, {"time": 2084, "pitch": 76, "duration": 4, "velocity": 89}, {"time": 2090, "pitch": 76, "duration": 5, "velocity": 89}, {"time": 2096, "pitch": 68, "duration": 5, "velocity": 89}, {"time": 2102, "pitch": 75, "duration": 6, "velocity": 89}, {"time": 2108, "pitch": 73, "duration": 4, "velocity": 89}, {"time": 2114, "pitch": 71, "duration": 9, "velocity": 89}, {"time": 2123, "pitch": 66, "duration": 2, "velocity": 89}, {"time": 2126, "pitch": 65, "duration": 4, "velocity": 89}, {"time": 2132, "pitch": 68, "duration": 3, "velocity": 89}, {"time": 2138, "pitch": 71, "duration": 4, "velocity": 89}, {"time": 2144, "pitch": 75, "duration": 4, "velocity": 89}, {"time": 2150, "pitch": 73, "duration": 16, "velocity": 89}, {"time": 2168, "pitch": 71, "duration": 2, "velocity": 89}, {"time": 2171, "pitch": 73, "duration": 2, "velocity": 89}, {"time": 2174, "pitch": 75, "duration": 4, "velocity": 89}, {"time": 2180, "pitch": 75, "duration": 2, "velocity": 89}, {"time": 2186, "pitch": 75, "duration": 6, "velocity": 89}, {"time": 2192, "pitch": 66, "duration": 5, "velocity": 89}, {"time": 2198, "pitch": 67, "duration": 6, "velocity": 89}, {"time": 2204, "pitch": 70, "duration": 4, "velocity": 89}, {"time": 2210, "pitch": 76, "duration": 4, "velocity": 89}, {"time": 2216, "pitch": 75, "duration": 4, "velocity": 89}, {"time": 2222, "pitch": 73, "duration": 4, "velocity": 89}, {"time": 2228, "pitch": 71, "duration": 7, "velocity": 89}, {"time": 2237, "pitch": 71, "duration": 5, "velocity": 89}, {"time": 2243, "pitch": 66, "duration": 2, "velocity": 89}, {"time": 2246, "pitch": 67, "duration": 21, "velocity": 89}, {"time": 2264, "pitch": 73, "duration": 3, "velocity": 89}, {"time": 2267, "pitch": 75, "duration": 2, "velocity": 89}, {"time": 2270, "pitch": 78, "duration": 4, "velocity": 90}, {"time": 2276, "pitch": 76, "duration": 4, "velocity": 90}, {"time": 2282, "pitch": 76, "duration": 4, "velocity": 90}, {"time": 2288, "pitch": 68, "duration": 4, "velocity": 90}, {"time": 2294, "pitch": 75, "duration": 4, "velocity": 90}, {"time": 2300, "pitch": 73, "duration": 3, "velocity": 90}, {"time": 2306, "pitch": 71, "duration": 6, "velocity": 90}, {"time": 2315, "pitch": 66, "duration": 2, "velocity": 90}, {"time": 2318, "pitch": 65, "duration": 4, "velocity": 90}, {"time": 2324, "pitch": 68, "duration": 5, "velocity": 90}, {"time": 2330, "pitch": 71, "duration": 4, "velocity": 90}, {"time": 2336, "pitch": 75, "duration": 4, "velocity": 90}, {"time": 2342, "pitch": 73, "duration": 15, "velocity": 90}, {"time": 2360, "pitch": 71, "duration": 4, "velocity": 90}, {"time": 2366, "pitch": 71, "duration": 20, "velocity": 91}, {"time": 2552, "pitch": 71, "duration": 3, "velocity": 92}, {"time": 2555, "pitch": 73, "duration": 2, "velocity": 92}, {"time": 2558, "pitch": 75, "duration": 3, "velocity": 92}, {"time": 2564, "pitch": 75, "duration": 2, "velocity": 92}, {"time": 2570, "pitch": 75, "duration": 6, "velocity": 92}, {"time": 2576, "pitch": 66, "duration": 4, "velocity": 92}, {"time": 2582, "pitch": 73, "duration": 2, "velocity": 92}, {"time": 2588, "pitch": 73, "duration": 3, "velocity": 92}, {"time": 2594, "pitch": 73, "duration": 3, "velocity": 92}, {"time": 2600, "pitch": 66, "duration": 3, "velocity": 92}, {"time": 2606, "pitch": 71, "duration": 4, "velocity": 92}, {"time": 2612, "pitch": 70, "duration": 5, "velocity": 92}, {"time": 2618, "pitch": 68, "duration": 6, "velocity": 92}, {"time": 2624, "pitch": 63, "duration": 4, "velocity": 92}, {"time": 2630, "pitch": 66, "duration": 18, "velocity": 92}, {"time": 2648, "pitch": 73, "duration": 2, "velocity": 92}, {"time": 2651, "pitch": 75, "duration": 2, "velocity": 92}, {"time": 2654, "pitch": 76, "duration": 4, "velocity": 92}, {"time": 2660, "pitch": 76, "duration": 4, "velocity": 92}, {"time": 2666, "pitch": 76, "duration": 5, "velocity": 92}, {"time": 2672, "pitch": 68, "duration": 5, "velocity": 92}, {"time": 2678, "pitch": 75, "duration": 6, "velocity": 92}, {"time": 2684, "pitch": 73, "duration": 4, "velocity": 92}, {"time": 2690, "pitch": 71, "duration": 9, "velocity": 92}, {"time": 2699, "pitch": 66, "duration": 2, "velocity": 92}, {"time": 2702, "pitch": 65, "duration": 4, "velocity": 92}, {"time": 2708, "pitch": 68, "duration": 3, "velocity": 92}, {"time": 2714, "pitch": 71, "duration": 4, "velocity": 92}, {"time": 2720, "pitch": 75, "duration": 4, "velocity": 92}, {"time": 2726, "pitch": 73, "duration": 16, "velocity": 92}, {"time": 2744, "pitch": 71, "duration": 2, "velocity": 92}, {"time": 2747, "pitch": 73, "duration": 2, "velocity": 92}, {"time": 2750, "pitch": 75, "duration": 4, "velocity": 92}, {"time": 2756, "pitch": 75, "duration": 2, "velocity": 92}, {"time": 2762, "pitch": 75, "duration": 6, "velocity": 92}, {"time": 2768, "pitch": 66, "duration": 5, "velocity": 92}, {"time": 2774, "pitch": 67, "duration": 6, "velocity": 92}, {"time": 2780, "pitch": 70, "duration": 4, "velocity": 92}, {"time": 2786, "pitch": 76, "duration": 4, "velocity": 92}, {"time": 2792, "pitch": 75, "duration": 4, "velocity": 92}, {"time": 2798, "pitch": 73, "duration": 4, "velocity": 92}, {"time": 2804, "pitch": 71, "duration": 7, "velocity": 92}, {"time": 2813, "pitch": 71, "duration": 5, "velocity": 92}, {"time": 2819, "pitch": 66, "duration": 2, "velocity": 92}, {"time": 2822, "pitch": 67, "duration": 21, "velocity": 92}, {"time": 2840, "pitch": 73, "duration": 3, "velocity": 92}, {"time": 2843, "pitch": 75, "duration": 2, "velocity": 92}, {"time": 2846, "pitch": 78, "duration": 4, "velocity": 92}, {"time": 2852, "pitch": 76, "duration": 4, "velocity": 92}, {"time": 2858, "pitch": 76, "duration": 4, "velocity": 92}, {"time": 2864, "pitch": 68, "duration": 4, "velocity": 92}, {"time": 2870, "pitch": 75, "duration": 4, "velocity": 92}, {"time": 2876, "pitch": 73, "duration": 3, "velocity": 92}, {"time": 2882, "pitch": 71, "duration": 6, "velocity": 92}, {"time": 2891, "pitch": 66, "duration": 2, "velocity": 92}, {"time": 2894, "pitch": 65, "duration": 4, "velocity": 92}, {"time": 2900, "pitch": 68, "duration": 5, "velocity": 92}, {"time": 2906, "pitch": 71, "duration": 4, "velocity": 92}, {"time": 2912, "pitch": 75, "duration": 4, "velocity": 92}, {"time": 2918, "pitch": 73, "duration": 15, "velocity": 92}, {"time": 2936, "pitch": 71, "duration": 4, "velocity": 92}, {"time": 2942, "pitch": 71, "duration": 20, "velocity": 92}], "annotations": [{"time": 180, "annotation": {"number": 64, "value": 73}, "group": "control_change"}, {"time": 192, "annotation": {"number": 64, "value": 76}, "group": "control_change"}, {"time": 204, "annotation": {"number": 64, "value": 79}, "group": "control_change"}, {"time": 216, "annotation": {"number": 64, "value": 80}, "group": "control_change"}]}, {"program": 0, "is_drum": false, "name": "BRIDGE", "notes": [{"time": 86, "pitch": 80, "duration": 16, "velocity": 79}, {"time": 116, "pitch": 66, "duration": 4, "velocity": 77}, {"time": 122, "pitch": 78, "duration": 10, "velocity": 75}, {"time": 140, "pitch": 66, "duration": 3, "velocity": 75}, {"time": 146, "pitch": 78, "duration": 10, "velocity": 76}, {"time": 164, "pitch": 71, "duration": 4, "velocity": 76}, {"time": 170, "pitch": 75, "duration": 12, "velocity": 76}, {"time": 212, "pitch": 66, "duration": 5, "velocity": 76}, {"time": 218, "pitch": 78, "duration": 11, "velocity": 76}, {"time": 236, "pitch": 71, "duration": 4, "velocity": 76}, {"time": 242, "pitch": 78, "duration": 7, "velocity": 76}, {"time": 260, "pitch": 71, "duration": 3, "velocity": 78}, {"time": 266, "pitch": 78, "duration": 12, "velocity": 78}, {"time": 284, "pitch": 71, "duration": 3, "velocity": 78}, {"time": 290, "pitch": 78, "duration": 6, "velocity": 78}, {"time": 404, "pitch": 66, "duration": 6, "velocity": 82}, {"time": 410, "pitch": 78, "duration": 13, "velocity": 83}, {"time": 428, "pitch": 71, "duration": 5, "velocity": 83}, {"time": 434, "pitch": 78, "duration": 14, "velocity": 83}, {"time": 452, "pitch": 71, "duration": 3, "velocity": 83}, {"time": 458, "pitch": 78, "duration": 13, "velocity": 83}, {"time": 476, "pitch": 71, "duration": 4, "velocity": 83}, {"time": 482, "pitch": 78, "duration": 11, "velocity": 83}, {"time": 578, "pitch": 78, "duration": 9, "velocity": 84}, {"time": 590, "pitch": 76, "duration": 8, "velocity": 84}, {"time": 602, "pitch": 75, "duration": 7, "velocity": 84}, {"time": 638, "pitch": 79, "duration": 6, "velocity": 84}, {"time": 764, "pitch": 80, "duration": 4, "velocity": 84}, {"time": 770, "pitch": 83, "duration": 4, "velocity": 84}, {"time": 776, "pitch": 80, "duration": 4, "velocity": 84}, {"time": 782, "pitch": 82, "duration": 13, "velocity": 84}, {"time": 1190, "pitch": 71, "duration": 5, "velocity": 75}, {"time": 1196, "pitch": 75, "duration": 5, "velocity": 75}, {"time": 1202, "pitch": 78, "duration": 4, "velocity": 75}, {"time": 1208, "pitch": 75, "duration": 3, "velocity": 75}, {"time": 1214, "pitch": 71, "duration": 4, "velocity": 75}, {"time": 1220, "pitch": 75, "duration": 4, "velocity": 75}, {"time": 1226, "pitch": 78, "duration": 4, "velocity": 75}, {"time": 1232, "pitch": 75, "duration": 2, "velocity": 75}, {"time": 1238, "pitch": 70, "duration": 4, "velocity": 75}, {"time": 1244, "pitch": 73, "duration": 3, "velocity": 75}, {"time": 1250, "pitch": 78, "duration": 3, "velocity": 75}, {"time": 1256, "pitch": 73, "duration": 3, "velocity": 75}, {"time": 1261, "pitch": 70, "duration": 3, "velocity": 75}, {"time": 1268, "pitch": 73, "duration": 3, "velocity": 75}, {"time": 1274, "pitch": 78, "duration": 2, "velocity": 75}, {"time": 1280, "pitch": 73, "duration": 3, "velocity": 75}, {"time": 1286, "pitch": 71, "duration": 3, "velocity": 75}, {"time": 1292, "pitch": 75, "duration": 3, "velocity": 75}, {"time": 1297, "pitch": 78, "duration": 4, "velocity": 75}, {"time": 1304, "pitch": 75, "duration": 3, "velocity": 75}, {"time": 1310, "pitch": 71, "duration": 3, "velocity": 75}, {"time": 1316, "pitch": 75, "duration": 3, "velocity": 75}, {"time": 1322, "pitch": 78, "duration": 3, "velocity": 75}, {"time": 1328, "pitch": 75, "duration": 2, "velocity": 75}, {"time": 1334, "pitch": 70, "duration": 3, "velocity": 75}, {"time": 1340, "pitch": 73, "duration": 3, "velocity": 75}, {"time": 1345, "pitch": 78, "duration": 4, "velocity": 75}, {"time": 1352, "pitch": 73, "duration": 3, "velocity": 75}, {"time": 1358, "pitch": 70, "duration": 3, "velocity": 75}, {"time": 1364, "pitch": 73, "duration": 3, "velocity": 75}, {"time": 1370, "pitch": 78, "duration": 5, "velocity": 75}, {"time": 1388, "pitch": 66, "duration": 5, "velocity": 75}, {"time": 1394, "pitch": 78, "duration": 11, "velocity": 75}, {"time": 1412, "pitch": 71, "duration": 4, "velocity": 75}, {"time": 1418, "pitch": 78, "duration": 7, "velocity": 75}, {"time": 1436, "pitch": 71, "duration": 3, "velocity": 75}, {"time": 1442, "pitch": 78, "duration": 12, "velocity": 75}, {"time": 1460, "pitch": 71, "duration": 3, "velocity": 75}, {"time": 1466, "pitch": 78, "duration": 6, "velocity": 75}, {"time": 1580, "pitch": 66, "duration": 6, "velocity": 75}, {"time": 1586, "pitch": 78, "duration": 13, "velocity": 75}, {"time": 1604, "pitch": 71, "duration": 5, "velocity": 75}, {"time": 1610, "pitch": 78, "duration": 14, "velocity": 75}, {"time": 1619, "pitch": 59, "duration": 2, "velocity": 75}, {"time": 1628, "pitch": 71, "duration": 3, "velocity": 75}, {"time": 1634, "pitch": 78, "duration": 13, "velocity": 75}, {"time": 1652, "pitch": 71, "duration": 4, "velocity": 76}, {"time": 1658, "pitch": 78, "duration": 11, "velocity": 76}, {"time": 1715, "pitch": 64, "duration": 1, "velocity": 76}, {"time": 1754, "pitch": 78, "duration": 9, "velocity": 76}, {"time": 1766, "pitch": 76, "duration": 8, "velocity": 76}, {"time": 1778, "pitch": 75, "duration": 7, "velocity": 76}, {"time": 1793, "pitch": 80, "duration": 2, "velocity": 76}, {"time": 1796, "pitch": 83, "duration": 3, "velocity": 76}, {"time": 1799, "pitch": 80, "duration": 2, "velocity": 76}, {"time": 1802, "pitch": 87, "duration": 1, "velocity": 76}, {"time": 1817, "pitch": 80, "duration": 2, "velocity": 76}, {"time": 1820, "pitch": 83, "duration": 2, "velocity": 76}, {"time": 1823, "pitch": 80, "duration": 1, "velocity": 76}, {"time": 1826, "pitch": 87, "duration": 1, "velocity": 76}, {"time": 1841, "pitch": 80, "duration": 2, "velocity": 76}, {"time": 1844, "pitch": 83, "duration": 2, "velocity": 76}, {"time": 1847, "pitch": 80, "duration": 2, "velocity": 76}, {"time": 1850, "pitch": 87, "duration": 1, "velocity": 76}, {"time": 1865, "pitch": 80, "duration": 2, "velocity": 76}, {"time": 1868, "pitch": 83, "duration": 2, "velocity": 76}, {"time": 1871, "pitch": 80, "duration": 1, "velocity": 76}, {"time": 1874, "pitch": 87, "duration": 2, "velocity": 76}, {"time": 1889, "pitch": 77, "duration": 2, "velocity": 76}, {"time": 1892, "pitch": 80, "duration": 3, "velocity": 76}, {"time": 1895, "pitch": 77, "duration": 4, "velocity": 76}, {"time": 1898, "pitch": 87, "duration": 3, "velocity": 76}, {"time": 1940, "pitch": 80, "duration": 4, "velocity": 76}, {"time": 1946, "pitch": 83, "duration": 4, "velocity": 76}, {"time": 1952, "pitch": 80, "duration": 4, "velocity": 76}, {"time": 1958, "pitch": 82, "duration": 13, "velocity": 76}, {"time": 2366, "pitch": 92, "duration": 4, "velocity": 76}, {"time": 2372, "pitch": 87, "duration": 3, "velocity": 76}, {"time": 2378, "pitch": 87, "duration": 4, "velocity": 76}, {"time": 2384, "pitch": 83, "duration": 3, "velocity": 76}, {"time": 2390, "pitch": 83, "duration": 3, "velocity": 76}, {"time": 2396, "pitch": 80, "duration": 3, "velocity": 76}, {"time": 2402, "pitch": 80, "duration": 4, "velocity": 76}, {"time": 2408, "pitch": 92, "duration": 4, "velocity": 76}, {"time": 2414, "pitch": 90, "duration": 5, "velocity": 76}, {"time": 2420, "pitch": 85, "duration": 4, "velocity": 76}, {"time": 2426, "pitch": 85, "duration": 5, "velocity": 76}, {"time": 2432, "pitch": 82, "duration": 3, "velocity": 76}, {"time": 2438, "pitch": 82, "duration": 4, "velocity": 76}, {"time": 2444, "pitch": 78, "duration": 3, "velocity": 76}, {"time": 2450, "pitch": 78, "duration": 5, "velocity": 76}, {"time": 2462, "pitch": 90, "duration": 4, "velocity": 76}, {"time": 2468, "pitch": 88, "duration": 4, "velocity": 76}, {"time": 2474, "pitch": 88, "duration": 3, "velocity": 76}, {"time": 2480, "pitch": 86, "duration": 3, "velocity": 76}, {"time": 2486, "pitch": 86, "duration": 3, "velocity": 76}, {"time": 2492, "pitch": 85, "duration": 3, "velocity": 76}, {"time": 2498, "pitch": 85, "duration": 3, "velocity": 76}, {"time": 2504, "pitch": 83, "duration": 4, "velocity": 76}, {"time": 2510, "pitch": 85, "duration": 33, "velocity": 76}, {"time": 2534, "pitch": 90, "duration": 8, "velocity": 76}, {"time": 2546, "pitch": 92, "duration": 12, "velocity": 76}, {"time": 3014, "pitch": 80, "duration": 16, "velocity": 79}, {"time": 3044, "pitch": 66, "duration": 4, "velocity": 79}, {"time": 3050, "pitch": 78, "duration": 10, "velocity": 79}, {"time": 3068, "pitch": 66, "duration": 3, "velocity": 79}, {"time": 3074, "pitch": 78, "duration": 10, "velocity": 79}, {"time": 3092, "pitch": 71, "duration": 4, "velocity": 79}, {"time": 3098, "pitch": 75, "duration": 12, "velocity": 79}], "annotations": [{"time": 0, "annotation": {"number": 64, "value": 78}, "group": "control_change"}, {"time": 36, "annotation": {"number": 64, "value": 79}, "group": "control_change"}, {"time": 144, "annotation": {"number": 64, "value": 79}, "group": "control_change"}, {"time": 396, "annotation": {"number": 64, "value": 80}, "group": "control_change"}]}, {"program": 0, "is_drum": false, "name": "PIANO", "notes": [{"time": 14, "pitch": 47, "duration": 18, "velocity": 79}, {"time": 14, "pitch": 75, "duration": 6, "velocity": 70}, {"time": 20, "pitch": 54, "duration": 14, "velocity": 72}, {"time": 20, "pitch": 66, "duration": 8, "velocity": 63}, {"time": 26, "pitch": 59, "duration": 8, "velocity": 56}, {"time": 26, "pitch": 71, "duration": 6, "velocity": 66}, {"time": 32, "pitch": 75, "duration": 5, "velocity": 79}, {"time": 38, "pitch": 46, "duration": 12, "velocity": 49}, {"time": 38, "pitch": 73, "duration": 5, "velocity": 72}, {"time": 44, "pitch": 54, "duration": 6, "velocity": 49}, {"time": 44, "pitch": 66, "duration": 7, "velocity": 62}, {"time": 50, "pitch": 58, "duration": 7, "velocity": 61}, {"time": 50, "pitch": 70, "duration": 6, "velocity": 74}, {"time": 62, "pitch": 44, "duration": 11, "velocity": 71}, {"time": 62, "pitch": 71, "duration": 6, "velocity": 75}, {"time": 68, "pitch": 51, "duration": 6, "velocity": 63}, {"time": 68, "pitch": 63, "duration": 7, "velocity": 73}, {"time": 74, "pitch": 56, "duration": 7, "velocity": 58}, {"time": 74, "pitch": 66, "duration": 5, "velocity": 85}, {"time": 80, "pitch": 58, "duration": 7, "velocity": 61}, {"time": 80, "pitch": 71, "duration": 7, "velocity": 65}, {"time": 110, "pitch": 47, "duration": 18, "velocity": 79}, {"time": 110, "pitch": 75, "duration": 6, "velocity": 70}, {"time": 116, "pitch": 54, "duration": 14, "velocity": 72}, {"time": 116, "pitch": 66, "duration": 8, "velocity": 63}, {"time": 122, "pitch": 59, "duration": 8, "velocity": 56}, {"time": 122, "pitch": 71, "duration": 6, "velocity": 66}, {"time": 128, "pitch": 75, "duration": 5, "velocity": 79}, {"time": 134, "pitch": 46, "duration": 12, "velocity": 49}, {"time": 134, "pitch": 73, "duration": 5, "velocity": 72}, {"time": 140, "pitch": 54, "duration": 6, "velocity": 49}, {"time": 140, "pitch": 66, "duration": 7, "velocity": 62}, {"time": 146, "pitch": 58, "duration": 7, "velocity": 61}, {"time": 146, "pitch": 70, "duration": 6, "velocity": 74}, {"time": 158, "pitch": 44, "duration": 11, "velocity": 71}, {"time": 158, "pitch": 71, "duration": 6, "velocity": 75}, {"time": 164, "pitch": 51, "duration": 6, "velocity": 63}, {"time": 164, "pitch": 63, "duration": 7, "velocity": 73}, {"time": 170, "pitch": 56, "duration": 7, "velocity": 58}, {"time": 170, "pitch": 66, "duration": 5, "velocity": 85}, {"time": 176, "pitch": 58, "duration": 7, "velocity": 61}, {"time": 176, "pitch": 71, "duration": 7, "velocity": 65}, {"time": 206, "pitch": 47, "duration": 18, "velocity": 85}, {"time": 206, "pitch": 63, "duration": 11, "velocity": 83}, {"time": 212, "pitch": 54, "duration": 18, "velocity": 66}, {"time": 218, "pitch": 59, "duration": 7, "velocity": 64}, {"time": 224, "pitch": 63, "duration": 25, "velocity": 64}, {"time": 230, "pitch": 46, "duration": 18, "velocity": 73}, {"time": 236, "pitch": 49, "duration": 6, "velocity": 65}, {"time": 242, "pitch": 54, "duration": 7, "velocity": 79}, {"time": 254, "pitch": 44, "duration": 21, "velocity": 74}, {"time": 260, "pitch": 51, "duration": 22, "velocity": 61}, {"time": 266, "pitch": 56, "duration": 12, "velocity": 55}, {"time": 272, "pitch": 59, "duration": 7, "velocity": 59}, {"time": 278, "pitch": 39, "duration": 20, "velocity": 63}, {"time": 284, "pitch": 46, "duration": 18, "velocity": 61}, {"time": 290, "pitch": 51, "duration": 9, "velocity": 58}, {"time": 296, "pitch": 54, "duration": 7, "velocity": 61}, {"time": 302, "pitch": 40, "duration": 18, "velocity": 79}, {"time": 308, "pitch": 47, "duration": 12, "velocity": 70}, {"time": 314, "pitch": 56, "duration": 7, "velocity": 59}, {"time": 320, "pitch": 52, "duration": 6, "velocity": 54}, {"time": 326, "pitch": 47, "duration": 19, "velocity": 76}, {"time": 332, "pitch": 54, "duration": 18, "velocity": 65}, {"time": 338, "pitch": 63, "duration": 12, "velocity": 63}, {"time": 344, "pitch": 59, "duration": 6, "velocity": 60}, {"time": 350, "pitch": 49, "duration": 18, "velocity": 76}, {"time": 350, "pitch": 64, "duration": 13, "velocity": 76}, {"time": 356, "pitch": 56, "duration": 9, "velocity": 62}, {"time": 362, "pitch": 66, "duration": 7, "velocity": 74}, {"time": 368, "pitch": 64, "duration": 6, "velocity": 81}, {"time": 374, "pitch": 42, "duration": 19, "velocity": 87}, {"time": 380, "pitch": 49, "duration": 12, "velocity": 63}, {"time": 386, "pitch": 56, "duration": 7, "velocity": 65}, {"time": 392, "pitch": 58, "duration": 6, "velocity": 73}, {"time": 398, "pitch": 47, "duration": 19, "velocity": 79}, {"time": 404, "pitch": 54, "duration": 12, "velocity": 64}, {"time": 410, "pitch": 59, "duration": 6, "velocity": 63}, {"time": 416, "pitch": 61, "duration": 7, "velocity": 69}, {"time": 422, "pitch": 42, "duration": 19, "velocity": 72}, {"time": 428, "pitch": 49, "duration": 19, "velocity": 70}, {"time": 434, "pitch": 56, "duration": 7, "velocity": 74}, {"time": 440, "pitch": 54, "duration": 6, "velocity": 59}, {"time": 440, "pitch": 58, "duration": 6, "velocity": 70}, {"time": 446, "pitch": 44, "duration": 18, "velocity": 68}, {"time": 446, "pitch": 59, "duration": 18, "velocity": 77}, {"time": 452, "pitch": 51, "duration": 11, "velocity": 65}, {"time": 458, "pitch": 56, "duration": 3, "velocity": 61}, {"time": 464, "pitch": 58, "duration": 6, "velocity": 68}, {"time": 470, "pitch": 39, "duration": 21, "velocity": 58}, {"time": 476, "pitch": 46, "duration": 18, "velocity": 57}, {"time": 482, "pitch": 54, "duration": 13, "velocity": 85}, {"time": 488, "pitch": 51, "duration": 6, "velocity": 51}, {"time": 494, "pitch": 40, "duration": 18, "velocity": 86}, {"time": 494, "pitch": 56, "duration": 8, "velocity": 72}, {"time": 500, "pitch": 47, "duration": 13, "velocity": 74}, {"time": 506, "pitch": 52, "duration": 7, "velocity": 59}, {"time": 512, "pitch": 58, "duration": 6, "velocity": 74}, {"time": 518, "pitch": 47, "duration": 6, "velocity": 81}, {"time": 518, "pitch": 63, "duration": 6, "velocity": 67}, {"time": 518, "pitch": 66, "duration": 6, "velocity": 79}, {"time": 530, "pitch": 44, "duration": 8, "velocity": 61}, {"time": 530, "pitch": 59, "duration": 8, "velocity": 60}, {"time": 530, "pitch": 63, "duration": 8, "velocity": 69}, {"time": 542, "pitch": 40, "duration": 11, "velocity": 63}, {"time": 542, "pitch": 64, "duration": 6, "velocity": 71}, {"time": 548, "pitch": 47, "duration": 4, "velocity": 63}, {"time": 548, "pitch": 63, "duration": 6, "velocity": 54}, {"time": 554, "pitch": 42, "duration": 8, "velocity": 64}, {"time": 554, "pitch": 61, "duration": 6, "velocity": 61}, {"time": 560, "pitch": 49, "duration": 5, "velocity": 65}, {"time": 560, "pitch": 59, "duration": 5, "velocity": 61}, {"time": 566, "pitch": 47, "duration": 48, "velocity": 79}, {"time": 566, "pitch": 59, "duration": 6, "velocity": 64}, {"time": 572, "pitch": 54, "duration": 41, "velocity": 63}, {"time": 578, "pitch": 59, "duration": 35, "velocity": 60}, {"time": 584, "pitch": 61, "duration": 6, "velocity": 59}, {"time": 590, "pitch": 64, "duration": 11, "velocity": 71}, {"time": 602, "pitch": 63, "duration": 11, "velocity": 74}, {"time": 614, "pitch": 44, "duration": 15, "velocity": 81}, {"time": 620, "pitch": 51, "duration": 12, "velocity": 65}, {"time": 626, "pitch": 59, "duration": 7, "velocity": 59}, {"time": 632, "pitch": 39, "duration": 4, "velocity": 74}, {"time": 638, "pitch": 43, "duration": 15, "velocity": 63}, {"time": 644, "pitch": 51, "duration": 8, "velocity": 54}, {"time": 650, "pitch": 67, "duration": 8, "velocity": 77}, {"time": 662, "pitch": 40, "duration": 16, "velocity": 63}, {"time": 662, "pitch": 56, "duration": 10, "velocity": 60}, {"time": 662, "pitch": 59, "duration": 11, "velocity": 69}, {"time": 668, "pitch": 47, "duration": 10, "velocity": 58}, {"time": 674, "pitch": 56, "duration": 6, "velocity": 59}, {"time": 674, "pitch": 59, "duration": 6, "velocity": 72}, {"time": 686, "pitch": 39, "duration": 22, "velocity": 59}, {"time": 686, "pitch": 54, "duration": 11, "velocity": 64}, {"time": 686, "pitch": 58, "duration": 11, "velocity": 68}, {"time": 692, "pitch": 46, "duration": 15, "velocity": 59}, {"time": 698, "pitch": 54, "duration": 9, "velocity": 62}, {"time": 698, "pitch": 58, "duration": 9, "velocity": 77}, {"time": 710, "pitch": 37, "duration": 41, "velocity": 83}, {"time": 716, "pitch": 44, "duration": 37, "velocity": 61}, {"time": 722, "pitch": 49, "duration": 17, "velocity": 61}, {"time": 728, "pitch": 53, "duration": 14, "velocity": 66}, {"time": 734, "pitch": 61, "duration": 17, "velocity": 81}, {"time": 740, "pitch": 49, "duration": 11, "velocity": 58}, {"time": 746, "pitch": 53, "duration": 8, "velocity": 68}, {"time": 752, "pitch": 56, "duration": 5, "velocity": 69}, {"time": 758, "pitch": 42, "duration": 41, "velocity": 64}, {"time": 764, "pitch": 49, "duration": 36, "velocity": 71}, {"time": 770, "pitch": 54, "duration": 31, "velocity": 63}, {"time": 776, "pitch": 56, "duration": 6, "velocity": 58}, {"time": 782, "pitch": 58, "duration": 8, "velocity": 79}, {"time": 794, "pitch": 59, "duration": 7, "velocity": 90}, {"time": 800, "pitch": 61, "duration": 6, "velocity": 87}, {"time": 806, "pitch": 47, "duration": 18, "velocity": 83}, {"time": 806, "pitch": 63, "duration": 7, "velocity": 90}, {"time": 812, "pitch": 54, "duration": 11, "velocity": 69}, {"time": 818, "pitch": 63, "duration": 12, "velocity": 70}, {"time": 824, "pitch": 66, "duration": 6, "velocity": 67}, {"time": 830, "pitch": 46, "duration": 18, "velocity": 68}, {"time": 830, "pitch": 49, "duration": 18, "velocity": 74}, {"time": 830, "pitch": 61, "duration": 10, "velocity": 58}, {"time": 830, "pitch": 66, "duration": 11, "velocity": 66}, {"time": 842, "pitch": 54, "duration": 6, "velocity": 60}, {"time": 842, "pitch": 61, "duration": 6, "velocity": 67}, {"time": 842, "pitch": 66, "duration": 6, "velocity": 79}, {"time": 854, "pitch": 44, "duration": 18, "velocity": 66}, {"time": 854, "pitch": 59, "duration": 11, "velocity": 65}, {"time": 854, "pitch": 63, "duration": 11, "velocity": 75}, {"time": 860, "pitch": 51, "duration": 11, "velocity": 58}, {"time": 866, "pitch": 59, "duration": 6, "velocity": 68}, {"time": 866, "pitch": 63, "duration": 6, "velocity": 74}, {"time": 878, "pitch": 39, "duration": 19, "velocity": 75}, {"time": 878, "pitch": 54, "duration": 11, "velocity": 65}, {"time": 878, "pitch": 58, "duration": 11, "velocity": 71}, {"time": 884, "pitch": 46, "duration": 18, "velocity": 74}, {"time": 890, "pitch": 54, "duration": 7, "velocity": 70}, {"time": 890, "pitch": 58, "duration": 7, "velocity": 74}, {"time": 896, "pitch": 51, "duration": 5, "velocity": 54}, {"time": 902, "pitch": 40, "duration": 18, "velocity": 77}, {"time": 902, "pitch": 56, "duration": 7, "velocity": 63}, {"time": 902, "pitch": 59, "duration": 6, "velocity": 58}, {"time": 908, "pitch": 47, "duration": 12, "velocity": 68}, {"time": 914, "pitch": 56, "duration": 7, "velocity": 59}, {"time": 914, "pitch": 59, "duration": 7, "velocity": 65}, {"time": 920, "pitch": 52, "duration": 6, "velocity": 59}, {"time": 926, "pitch": 39, "duration": 18, "velocity": 70}, {"time": 926, "pitch": 54, "duration": 11, "velocity": 66}, {"time": 926, "pitch": 58, "duration": 11, "velocity": 65}, {"time": 932, "pitch": 46, "duration": 13, "velocity": 64}, {"time": 938, "pitch": 54, "duration": 7, "velocity": 70}, {"time": 938, "pitch": 58, "duration": 7, "velocity": 77}, {"time": 944, "pitch": 51, "duration": 2, "velocity": 59}, {"time": 950, "pitch": 49, "duration": 17, "velocity": 77}, {"time": 950, "pitch": 65, "duration": 10, "velocity": 67}, {"time": 950, "pitch": 68, "duration": 10, "velocity": 85}, {"time": 950, "pitch": 73, "duration": 10, "velocity": 77}, {"time": 956, "pitch": 56, "duration": 11, "velocity": 60}, {"time": 962, "pitch": 61, "duration": 4, "velocity": 59}, {"time": 962, "pitch": 65, "duration": 5, "velocity": 70}, {"time": 962, "pitch": 68, "duration": 4, "velocity": 85}, {"time": 962, "pitch": 73, "duration": 4, "velocity": 83}, {"time": 974, "pitch": 42, "duration": 18, "velocity": 81}, {"time": 974, "pitch": 58, "duration": 11, "velocity": 64}, {"time": 974, "pitch": 61, "duration": 11, "velocity": 59}, {"time": 974, "pitch": 66, "duration": 11, "velocity": 48}, {"time": 980, "pitch": 49, "duration": 13, "velocity": 61}, {"time": 986, "pitch": 58, "duration": 7, "velocity": 77}, {"time": 986, "pitch": 61, "duration": 7, "velocity": 85}, {"time": 986, "pitch": 66, "duration": 7, "velocity": 87}, {"time": 992, "pitch": 54, "duration": 3, "velocity": 60}, {"time": 998, "pitch": 47, "duration": 19, "velocity": 79}, {"time": 998, "pitch": 63, "duration": 10, "velocity": 63}, {"time": 998, "pitch": 66, "duration": 10, "velocity": 58}, {"time": 998, "pitch": 71, "duration": 10, "velocity": 54}, {"time": 1004, "pitch": 54, "duration": 12, "velocity": 74}, {"time": 1010, "pitch": 63, "duration": 6, "velocity": 83}, {"time": 1010, "pitch": 66, "duration": 6, "velocity": 95}, {"time": 1010, "pitch": 71, "duration": 6, "velocity": 79}, {"time": 1013, "pitch": 59, "duration": 1, "velocity": 61}, {"time": 1022, "pitch": 51, "duration": 12, "velocity": 64}, {"time": 1022, "pitch": 67, "duration": 10, "velocity": 71}, {"time": 1022, "pitch": 70, "duration": 10, "velocity": 87}, {"time": 1022, "pitch": 73, "duration": 10, "velocity": 76}, {"time": 1028, "pitch": 55, "duration": 11, "velocity": 66}, {"time": 1034, "pitch": 43, "duration": 10, "velocity": 75}, {"time": 1034, "pitch": 67, "duration": 6, "velocity": 71}, {"time": 1034, "pitch": 70, "duration": 5, "velocity": 95}, {"time": 1034, "pitch": 73, "duration": 5, "velocity": 90}, {"time": 1046, "pitch": 44, "duration": 23, "velocity": 72}, {"time": 1046, "pitch": 59, "duration": 10, "velocity": 64}, {"time": 1046, "pitch": 63, "duration": 10, "velocity": 62}, {"time": 1046, "pitch": 66, "duration": 10, "velocity": 63}, {"time": 1052, "pitch": 51, "duration": 17, "velocity": 60}, {"time": 1058, "pitch": 59, "duration": 8, "velocity": 68}, {"time": 1058, "pitch": 63, "duration": 8, "velocity": 75}, {"time": 1058, "pitch": 66, "duration": 8, "velocity": 74}, {"time": 1064, "pitch": 56, "duration": 3, "velocity": 43}, {"time": 1070, "pitch": 42, "duration": 12, "velocity": 60}, {"time": 1070, "pitch": 57, "duration": 12, "velocity": 58}, {"time": 1070, "pitch": 61, "duration": 12, "velocity": 74}, {"time": 1070, "pitch": 66, "duration": 11, "velocity": 67}, {"time": 1082, "pitch": 42, "duration": 12, "velocity": 64}, {"time": 1082, "pitch": 57, "duration": 1, "velocity": 60}, {"time": 1082, "pitch": 61, "duration": 11, "velocity": 63}, {"time": 1082, "pitch": 66, "duration": 11, "velocity": 72}, {"time": 1094, "pitch": 40, "duration": 18, "velocity": 74}, {"time": 1094, "pitch": 56, "duration": 10, "velocity": 64}, {"time": 1094, "pitch": 59, "duration": 11, "velocity": 67}, {"time": 1094, "pitch": 64, "duration": 10, "velocity": 73}, {"time": 1100, "pitch": 47, "duration": 12, "velocity": 72}, {"time": 1106, "pitch": 56, "duration": 6, "velocity": 68}, {"time": 1106, "pitch": 59, "duration": 6, "velocity": 79}, {"time": 1106, "pitch": 64, "duration": 6, "velocity": 76}, {"time": 1118, "pitch": 39, "duration": 18, "velocity": 67}, {"time": 1118, "pitch": 54, "duration": 10, "velocity": 65}, {"time": 1118, "pitch": 58, "duration": 11, "velocity": 68}, {"time": 1118, "pitch": 63, "duration": 11, "velocity": 71}, {"time": 1124, "pitch": 46, "duration": 13, "velocity": 63}, {"time": 1130, "pitch": 54, "duration": 7, "velocity": 72}, {"time": 1130, "pitch": 58, "duration": 7, "velocity": 77}, {"time": 1130, "pitch": 63, "duration": 7, "velocity": 73}, {"time": 1142, "pitch": 49, "duration": 17, "velocity": 75}, {"time": 1142, "pitch": 65, "duration": 10, "velocity": 66}, {"time": 1142, "pitch": 68, "duration": 8, "velocity": 77}, {"time": 1142, "pitch": 71, "duration": 8, "velocity": 74}, {"time": 1148, "pitch": 53, "duration": 11, "velocity": 62}, {"time": 1154, "pitch": 65, "duration": 5, "velocity": 63}, {"time": 1154, "pitch": 68, "duration": 5, "velocity": 75}, {"time": 1154, "pitch": 71, "duration": 5, "velocity": 79}, {"time": 1166, "pitch": 42, "duration": 19, "velocity": 73}, {"time": 1166, "pitch": 58, "duration": 11, "velocity": 63}, {"time": 1166, "pitch": 61, "duration": 11, "velocity": 63}, {"time": 1166, "pitch": 64, "duration": 2, "velocity": 71}, {"time": 1166, "pitch": 66, "duration": 11, "velocity": 66}, {"time": 1172, "pitch": 49, "duration": 13, "velocity": 64}, {"time": 1178, "pitch": 58, "duration": 7, "velocity": 83}, {"time": 1178, "pitch": 61, "duration": 7, "velocity": 90}, {"time": 1178, "pitch": 66, "duration": 7, "velocity": 95}, {"time": 1184, "pitch": 54, "duration": 6, "velocity": 66}, {"time": 1190, "pitch": 47, "duration": 46, "velocity": 81}, {"time": 1190, "pitch": 63, "duration": 10, "velocity": 73}, {"time": 1190, "pitch": 66, "duration": 10, "velocity": 77}, {"time": 1190, "pitch": 71, "duration": 10, "velocity": 74}, {"time": 1196, "pitch": 54, "duration": 38, "velocity": 68}, {"time": 1202, "pitch": 63, "duration": 10, "velocity": 65}, {"time": 1202, "pitch": 66, "duration": 10, "velocity": 76}, {"time": 1202, "pitch": 71, "duration": 8, "velocity": 69}, {"time": 1202, "pitch": 78, "duration": 6, "velocity": 81}, {"time": 1208, "pitch": 59, "duration": 8, "velocity": 54}, {"time": 1208, "pitch": 75, "duration": 6, "velocity": 65}, {"time": 1214, "pitch": 63, "duration": 21, "velocity": 65}, {"time": 1214, "pitch": 66, "duration": 19, "velocity": 63}, {"time": 1214, "pitch": 71, "duration": 21, "velocity": 74}, {"time": 1220, "pitch": 75, "duration": 6, "velocity": 49}, {"time": 1226, "pitch": 78, "duration": 6, "velocity": 73}, {"time": 1232, "pitch": 75, "duration": 7, "velocity": 66}, {"time": 1238, "pitch": 42, "duration": 41, "velocity": 65}, {"time": 1238, "pitch": 58, "duration": 41, "velocity": 62}, {"time": 1238, "pitch": 70, "duration": 7, "velocity": 64}, {"time": 1244, "pitch": 49, "duration": 35, "velocity": 63}, {"time": 1244, "pitch": 73, "duration": 6, "velocity": 69}, {"time": 1250, "pitch": 61, "duration": 29, "velocity": 62}, {"time": 1250, "pitch": 78, "duration": 7, "velocity": 76}, {"time": 1256, "pitch": 54, "duration": 23, "velocity": 57}, {"time": 1256, "pitch": 73, "duration": 6, "velocity": 59}, {"time": 1262, "pitch": 66, "duration": 18, "velocity": 61}, {"time": 1262, "pitch": 70, "duration": 8, "velocity": 60}, {"time": 1268, "pitch": 73, "duration": 7, "velocity": 51}, {"time": 1274, "pitch": 78, "duration": 7, "velocity": 58}, {"time": 1280, "pitch": 73, "duration": 7, "velocity": 58}, {"time": 1286, "pitch": 47, "duration": 41, "velocity": 63}, {"time": 1286, "pitch": 63, "duration": 41, "velocity": 58}, {"time": 1286, "pitch": 66, "duration": 41, "velocity": 70}, {"time": 1286, "pitch": 71, "duration": 12, "velocity": 62}, {"time": 1292, "pitch": 75, "duration": 6, "velocity": 63}, {"time": 1298, "pitch": 78, "duration": 6, "velocity": 68}, {"time": 1304, "pitch": 75, "duration": 6, "velocity": 65}, {"time": 1310, "pitch": 71, "duration": 7, "velocity": 59}, {"time": 1316, "pitch": 75, "duration": 6, "velocity": 59}, {"time": 1322, "pitch": 78, "duration": 6, "velocity": 76}, {"time": 1328, "pitch": 75, "duration": 6, "velocity": 63}, {"time": 1334, "pitch": 42, "duration": 46, "velocity": 71}, {"time": 1334, "pitch": 58, "duration": 46, "velocity": 59}, {"time": 1334, "pitch": 61, "duration": 46, "velocity": 59}, {"time": 1334, "pitch": 70, "duration": 10, "velocity": 60}, {"time": 1340, "pitch": 73, "duration": 5, "velocity": 59}, {"time": 1346, "pitch": 78, "duration": 6, "velocity": 71}, {"time": 1352, "pitch": 73, "duration": 6, "velocity": 67}, {"time": 1358, "pitch": 70, "duration": 7, "velocity": 60}, {"time": 1364, "pitch": 73, "duration": 7, "velocity": 63}, {"time": 1370, "pitch": 78, "duration": 7, "velocity": 65}, {"time": 1376, "pitch": 73, "duration": 6, "velocity": 59}, {"time": 1382, "pitch": 47, "duration": 18, "velocity": 85}, {"time": 1382, "pitch": 63, "duration": 11, "velocity": 83}, {"time": 1388, "pitch": 54, "duration": 18, "velocity": 66}, {"time": 1394, "pitch": 59, "duration": 7, "velocity": 64}, {"time": 1400, "pitch": 63, "duration": 25, "velocity": 64}, {"time": 1406, "pitch": 46, "duration": 18, "velocity": 73}, {"time": 1412, "pitch": 49, "duration": 6, "velocity": 65}, {"time": 1418, "pitch": 54, "duration": 7, "velocity": 79}, {"time": 1430, "pitch": 44, "duration": 21, "velocity": 74}, {"time": 1436, "pitch": 51, "duration": 22, "velocity": 61}, {"time": 1442, "pitch": 56, "duration": 12, "velocity": 55}, {"time": 1448, "pitch": 59, "duration": 7, "velocity": 59}, {"time": 1454, "pitch": 39, "duration": 20, "velocity": 63}, {"time": 1460, "pitch": 46, "duration": 18, "velocity": 61}, {"time": 1466, "pitch": 51, "duration": 9, "velocity": 58}, {"time": 1472, "pitch": 54, "duration": 7, "velocity": 61}, {"time": 1478, "pitch": 40, "duration": 18, "velocity": 79}, {"time": 1484, "pitch": 47, "duration": 12, "velocity": 70}, {"time": 1490, "pitch": 56, "duration": 7, "velocity": 59}, {"time": 1496, "pitch": 52, "duration": 6, "velocity": 54}, {"time": 1502, "pitch": 47, "duration": 19, "velocity": 76}, {"time": 1508, "pitch": 54, "duration": 18, "velocity": 65}, {"time": 1514, "pitch": 63, "duration": 12, "velocity": 63}, {"time": 1520, "pitch": 59, "duration": 6, "velocity": 60}, {"time": 1526, "pitch": 49, "duration": 18, "velocity": 76}, {"time": 1526, "pitch": 64, "duration": 13, "velocity": 76}, {"time": 1532, "pitch": 56, "duration": 9, "velocity": 62}, {"time": 1538, "pitch": 66, "duration": 7, "velocity": 74}, {"time": 1544, "pitch": 64, "duration": 6, "velocity": 81}, {"time": 1550, "pitch": 42, "duration": 19, "velocity": 87}, {"time": 1556, "pitch": 49, "duration": 12, "velocity": 63}, {"time": 1562, "pitch": 56, "duration": 7, "velocity": 65}, {"time": 1568, "pitch": 58, "duration": 6, "velocity": 73}, {"time": 1574, "pitch": 47, "duration": 19, "velocity": 79}, {"time": 1580, "pitch": 54, "duration": 12, "velocity": 64}, {"time": 1586, "pitch": 59, "duration": 6, "velocity": 63}, {"time": 1592, "pitch": 61, "duration": 7, "velocity": 69}, {"time": 1598, "pitch": 42, "duration": 19, "velocity": 72}, {"time": 1604, "pitch": 49, "duration": 19, "velocity": 70}, {"time": 1610, "pitch": 56, "duration": 7, "velocity": 74}, {"time": 1616, "pitch": 54, "duration": 6, "velocity": 59}, {"time": 1616, "pitch": 58, "duration": 6, "velocity": 70}, {"time": 1622, "pitch": 44, "duration": 18, "velocity": 68}, {"time": 1622, "pitch": 59, "duration": 18, "velocity": 77}, {"time": 1628, "pitch": 51, "duration": 11, "velocity": 65}, {"time": 1634, "pitch": 56, "duration": 3, "velocity": 61}, {"time": 1640, "pitch": 58, "duration": 6, "velocity": 68}, {"time": 1646, "pitch": 39, "duration": 21, "velocity": 58}, {"time": 1652, "pitch": 46, "duration": 18, "velocity": 57}, {"time": 1658, "pitch": 54, "duration": 13, "velocity": 85}, {"time": 1664, "pitch": 51, "duration": 6, "velocity": 51}, {"time": 1670, "pitch": 40, "duration": 18, "velocity": 86}, {"time": 1670, "pitch": 56, "duration": 8, "velocity": 72}, {"time": 1676, "pitch": 47, "duration": 13, "velocity": 74}, {"time": 1682, "pitch": 52, "duration": 7, "velocity": 59}, {"time": 1688, "pitch": 58, "duration": 6, "velocity": 74}, {"time": 1694, "pitch": 47, "duration": 6, "velocity": 81}, {"time": 1694, "pitch": 63, "duration": 6, "velocity": 67}, {"time": 1694, "pitch": 66, "duration": 6, "velocity": 79}, {"time": 1706, "pitch": 44, "duration": 8, "velocity": 61}, {"time": 1706, "pitch": 59, "duration": 8, "velocity": 60}, {"time": 1706, "pitch": 63, "duration": 8, "velocity": 69}, {"time": 1718, "pitch": 40, "duration": 11, "velocity": 63}, {"time": 1718, "pitch": 64, "duration": 6, "velocity": 71}, {"time": 1724, "pitch": 47, "duration": 4, "velocity": 63}, {"time": 1724, "pitch": 63, "duration": 6, "velocity": 54}, {"time": 1730, "pitch": 42, "duration": 8, "velocity": 64}, {"time": 1730, "pitch": 61, "duration": 6, "velocity": 61}, {"time": 1736, "pitch": 49, "duration": 5, "velocity": 65}, {"time": 1736, "pitch": 59, "duration": 5, "velocity": 61}, {"time": 1742, "pitch": 47, "duration": 48, "velocity": 79}, {"time": 1742, "pitch": 59, "duration": 6, "velocity": 64}, {"time": 1748, "pitch": 54, "duration": 41, "velocity": 63}, {"time": 1754, "pitch": 59, "duration": 35, "velocity": 60}, {"time": 1760, "pitch": 61, "duration": 6, "velocity": 59}, {"time": 1766, "pitch": 64, "duration": 11, "velocity": 71}, {"time": 1778, "pitch": 63, "duration": 11, "velocity": 74}, {"time": 1790, "pitch": 44, "duration": 15, "velocity": 81}, {"time": 1796, "pitch": 51, "duration": 12, "velocity": 65}, {"time": 1802, "pitch": 59, "duration": 7, "velocity": 59}, {"time": 1808, "pitch": 39, "duration": 4, "velocity": 74}, {"time": 1814, "pitch": 43, "duration": 15, "velocity": 63}, {"time": 1820, "pitch": 51, "duration": 8, "velocity": 54}, {"time": 1826, "pitch": 67, "duration": 8, "velocity": 77}, {"time": 1838, "pitch": 40, "duration": 16, "velocity": 63}, {"time": 1838, "pitch": 56, "duration": 10, "velocity": 60}, {"time": 1838, "pitch": 59, "duration": 11, "velocity": 69}, {"time": 1844, "pitch": 47, "duration": 10, "velocity": 58}, {"time": 1850, "pitch": 56, "duration": 6, "velocity": 59}, {"time": 1850, "pitch": 59, "duration": 6, "velocity": 72}, {"time": 1862, "pitch": 39, "duration": 22, "velocity": 59}, {"time": 1862, "pitch": 54, "duration": 11, "velocity": 64}, {"time": 1862, "pitch": 58, "duration": 11, "velocity": 68}, {"time": 1868, "pitch": 46, "duration": 15, "velocity": 59}, {"time": 1874, "pitch": 54, "duration": 9, "velocity": 62}, {"time": 1874, "pitch": 58, "duration": 9, "velocity": 77}, {"time": 1886, "pitch": 37, "duration": 41, "velocity": 83}, {"time": 1892, "pitch": 44, "duration": 37, "velocity": 61}, {"time": 1898, "pitch": 49, "duration": 17, "velocity": 61}, {"time": 1904, "pitch": 53, "duration": 14, "velocity": 66}, {"time": 1910, "pitch": 61, "duration": 17, "velocity": 81}, {"time": 1916, "pitch": 49, "duration": 11, "velocity": 58}, {"time": 1922, "pitch": 53, "duration": 8, "velocity": 68}, {"time": 1928, "pitch": 56, "duration": 5, "velocity": 69}, {"time": 1934, "pitch": 42, "duration": 41, "velocity": 64}, {"time": 1940, "pitch": 49, "duration": 36, "velocity": 71}, {"time": 1946, "pitch": 54, "duration": 31, "velocity": 63}, {"time": 1952, "pitch": 56, "duration": 6, "velocity": 58}, {"time": 1958, "pitch": 58, "duration": 8, "velocity": 79}, {"time": 1970, "pitch": 59, "duration": 7, "velocity": 90}, {"time": 1976, "pitch": 61, "duration": 6, "velocity": 87}, {"time": 1982, "pitch": 47, "duration": 18, "velocity": 83}, {"time": 1982, "pitch": 63, "duration": 7, "velocity": 90}, {"time": 1988, "pitch": 54, "duration": 11, "velocity": 69}, {"time": 1994, "pitch": 63, "duration": 12, "velocity": 70}, {"time": 2000, "pitch": 66, "duration": 6, "velocity": 67}, {"time": 2006, "pitch": 46, "duration": 18, "velocity": 68}, {"time": 2006, "pitch": 49, "duration": 18, "velocity": 74}, {"time": 2006, "pitch": 61, "duration": 10, "velocity": 58}, {"time": 2006, "pitch": 66, "duration": 11, "velocity": 66}, {"time": 2018, "pitch": 54, "duration": 6, "velocity": 60}, {"time": 2018, "pitch": 61, "duration": 6, "velocity": 67}, {"time": 2018, "pitch": 66, "duration": 6, "velocity": 79}, {"time": 2030, "pitch": 44, "duration": 18, "velocity": 66}, {"time": 2030, "pitch": 59, "duration": 11, "velocity": 65}, {"time": 2030, "pitch": 63, "duration": 11, "velocity": 75}, {"time": 2036, "pitch": 51, "duration": 11, "velocity": 58}, {"time": 2042, "pitch": 59, "duration": 6, "velocity": 68}, {"time": 2042, "pitch": 63, "duration": 6, "velocity": 74}, {"time": 2054, "pitch": 39, "duration": 19, "velocity": 75}, {"time": 2054, "pitch": 54, "duration": 11, "velocity": 65}, {"time": 2054, "pitch": 58, "duration": 11, "velocity": 71}, {"time": 2060, "pitch": 46, "duration": 18, "velocity": 74}, {"time": 2066, "pitch": 54, "duration": 7, "velocity": 70}, {"time": 2066, "pitch": 58, "duration": 7, "velocity": 74}, {"time": 2072, "pitch": 51, "duration": 5, "velocity": 54}, {"time": 2078, "pitch": 40, "duration": 18, "velocity": 77}, {"time": 2078, "pitch": 56, "duration": 7, "velocity": 63}, {"time": 2078, "pitch": 59, "duration": 6, "velocity": 58}, {"time": 2084, "pitch": 47, "duration": 12, "velocity": 68}, {"time": 2090, "pitch": 56, "duration": 7, "velocity": 59}, {"time": 2090, "pitch": 59, "duration": 7, "velocity": 65}, {"time": 2096, "pitch": 52, "duration": 6, "velocity": 59}, {"time": 2102, "pitch": 39, "duration": 18, "velocity": 70}, {"time": 2102, "pitch": 54, "duration": 11, "velocity": 66}, {"time": 2102, "pitch": 58, "duration": 11, "velocity": 65}, {"time": 2108, "pitch": 46, "duration": 13, "velocity": 64}, {"time": 2114, "pitch": 54, "duration": 7, "velocity": 70}, {"time": 2114, "pitch": 58, "duration": 7, "velocity": 77}, {"time": 2120, "pitch": 51, "duration": 2, "velocity": 59}, {"time": 2126, "pitch": 49, "duration": 17, "velocity": 77}, {"time": 2126, "pitch": 65, "duration": 10, "velocity": 67}, {"time": 2126, "pitch": 68, "duration": 10, "velocity": 85}, {"time": 2126, "pitch": 73, "duration": 10, "velocity": 77}, {"time": 2132, "pitch": 56, "duration": 11, "velocity": 60}, {"time": 2138, "pitch": 53, "duration": 6, "velocity": 63}, {"time": 2138, "pitch": 61, "duration": 4, "velocity": 59}, {"time": 2138, "pitch": 65, "duration": 5, "velocity": 70}, {"time": 2138, "pitch": 68, "duration": 4, "velocity": 85}, {"time": 2138, "pitch": 73, "duration": 4, "velocity": 83}, {"time": 2150, "pitch": 42, "duration": 18, "velocity": 81}, {"time": 2150, "pitch": 58, "duration": 11, "velocity": 64}, {"time": 2150, "pitch": 61, "duration": 11, "velocity": 59}, {"time": 2150, "pitch": 66, "duration": 11, "velocity": 48}, {"time": 2156, "pitch": 49, "duration": 13, "velocity": 61}, {"time": 2162, "pitch": 58, "duration": 7, "velocity": 77}, {"time": 2162, "pitch": 61, "duration": 7, "velocity": 85}, {"time": 2162, "pitch": 66, "duration": 7, "velocity": 87}, {"time": 2168, "pitch": 54, "duration": 3, "velocity": 60}, {"time": 2174, "pitch": 47, "duration": 19, "velocity": 79}, {"time": 2174, "pitch": 63, "duration": 10, "velocity": 63}, {"time": 2174, "pitch": 66, "duration": 10, "velocity": 58}, {"time": 2174, "pitch": 71, "duration": 10, "velocity": 54}, {"time": 2180, "pitch": 54, "duration": 12, "velocity": 74}, {"time": 2186, "pitch": 63, "duration": 6, "velocity": 83}, {"time": 2186, "pitch": 66, "duration": 6, "velocity": 95}, {"time": 2186, "pitch": 71, "duration": 6, "velocity": 79}, {"time": 2189, "pitch": 59, "duration": 1, "velocity": 61}, {"time": 2198, "pitch": 51, "duration": 12, "velocity": 64}, {"time": 2198, "pitch": 67, "duration": 10, "velocity": 71}, {"time": 2198, "pitch": 70, "duration": 10, "velocity": 87}, {"time": 2198, "pitch": 73, "duration": 10, "velocity": 76}, {"time": 2204, "pitch": 55, "duration": 11, "velocity": 66}, {"time": 2210, "pitch": 43, "duration": 10, "velocity": 75}, {"time": 2210, "pitch": 67, "duration": 6, "velocity": 71}, {"time": 2210, "pitch": 70, "duration": 5, "velocity": 95}, {"time": 2210, "pitch": 73, "duration": 5, "velocity": 90}, {"time": 2222, "pitch": 44, "duration": 23, "velocity": 72}, {"time": 2222, "pitch": 59, "duration": 10, "velocity": 64}, {"time": 2222, "pitch": 63, "duration": 10, "velocity": 62}, {"time": 2222, "pitch": 66, "duration": 10, "velocity": 63}, {"time": 2228, "pitch": 51, "duration": 17, "velocity": 60}, {"time": 2234, "pitch": 59, "duration": 8, "velocity": 68}, {"time": 2234, "pitch": 63, "duration": 8, "velocity": 75}, {"time": 2234, "pitch": 66, "duration": 8, "velocity": 74}, {"time": 2240, "pitch": 56, "duration": 3, "velocity": 43}, {"time": 2246, "pitch": 42, "duration": 13, "velocity": 60}, {"time": 2246, "pitch": 57, "duration": 12, "velocity": 58}, {"time": 2246, "pitch": 61, "duration": 12, "velocity": 74}, {"time": 2246, "pitch": 66, "duration": 11, "velocity": 67}, {"time": 2258, "pitch": 42, "duration": 1, "velocity": 64}, {"time": 2258, "pitch": 54, "duration": 11, "velocity": 60}, {"time": 2258, "pitch": 61, "duration": 11, "velocity": 63}, {"time": 2258, "pitch": 66, "duration": 11, "velocity": 72}, {"time": 2270, "pitch": 40, "duration": 18, "velocity": 74}, {"time": 2270, "pitch": 56, "duration": 10, "velocity": 64}, {"time": 2270, "pitch": 59, "duration": 11, "velocity": 67}, {"time": 2270, "pitch": 64, "duration": 10, "velocity": 73}, {"time": 2276, "pitch": 47, "duration": 12, "velocity": 72}, {"time": 2282, "pitch": 56, "duration": 6, "velocity": 68}, {"time": 2282, "pitch": 59, "duration": 6, "velocity": 79}, {"time": 2282, "pitch": 64, "duration": 6, "velocity": 76}, {"time": 2294, "pitch": 39, "duration": 18, "velocity": 67}, {"time": 2294, "pitch": 54, "duration": 10, "velocity": 65}, {"time": 2294, "pitch": 58, "duration": 11, "velocity": 68}, {"time": 2294, "pitch": 63, "duration": 11, "velocity": 71}, {"time": 2300, "pitch": 46, "duration": 13, "velocity": 63}, {"time": 2306, "pitch": 54, "duration": 7, "velocity": 72}, {"time": 2306, "pitch": 58, "duration": 7, "velocity": 77}, {"time": 2306, "pitch": 63, "duration": 7, "velocity": 73}, {"time": 2318, "pitch": 49, "duration": 17, "velocity": 75}, {"time": 2318, "pitch": 65, "duration": 10, "velocity": 66}, {"time": 2318, "pitch": 68, "duration": 8, "velocity": 77}, {"time": 2318, "pitch": 71, "duration": 8, "velocity": 74}, {"time": 2324, "pitch": 53, "duration": 11, "velocity": 62}, {"time": 2330, "pitch": 65, "duration": 5, "velocity": 63}, {"time": 2330, "pitch": 68, "duration": 5, "velocity": 75}, {"time": 2330, "pitch": 71, "duration": 5, "velocity": 79}, {"time": 2342, "pitch": 42, "duration": 19, "velocity": 73}, {"time": 2342, "pitch": 58, "duration": 11, "velocity": 63}, {"time": 2342, "pitch": 61, "duration": 11, "velocity": 63}, {"time": 2342, "pitch": 64, "duration": 2, "velocity": 71}, {"time": 2342, "pitch": 66, "duration": 11, "velocity": 66}, {"time": 2348, "pitch": 49, "duration": 13, "velocity": 64}, {"time": 2354, "pitch": 58, "duration": 7, "velocity": 83}, {"time": 2354, "pitch": 61, "duration": 7, "velocity": 90}, {"time": 2354, "pitch": 66, "duration": 7, "velocity": 95}, {"time": 2360, "pitch": 54, "duration": 6, "velocity": 66}, {"time": 2366, "pitch": 47, "duration": 36, "velocity": 81}, {"time": 2366, "pitch": 52, "duration": 42, "velocity": 72}, {"time": 2366, "pitch": 68, "duration": 15, "velocity": 58}, {"time": 2366, "pitch": 71, "duration": 23, "velocity": 67}, {"time": 2372, "pitch": 59, "duration": 39, "velocity": 63}, {"time": 2378, "pitch": 64, "duration": 15, "velocity": 51}, {"time": 2384, "pitch": 68, "duration": 21, "velocity": 56}, {"time": 2390, "pitch": 63, "duration": 11, "velocity": 65}, {"time": 2390, "pitch": 66, "duration": 11, "velocity": 63}, {"time": 2390, "pitch": 71, "duration": 11, "velocity": 74}, {"time": 2390, "pitch": 76, "duration": 16, "velocity": 73}, {"time": 2393, "pitch": 71, "duration": 8, "velocity": 12}, {"time": 2402, "pitch": 64, "duration": 4, "velocity": 57}, {"time": 2408, "pitch": 68, "duration": 7, "velocity": 59}, {"time": 2414, "pitch": 51, "duration": 43, "velocity": 62}, {"time": 2420, "pitch": 66, "duration": 7, "velocity": 59}, {"time": 2426, "pitch": 70, "duration": 25, "velocity": 65}, {"time": 2432, "pitch": 58, "duration": 25, "velocity": 57}, {"time": 2432, "pitch": 63, "duration": 6, "velocity": 64}, {"time": 2435, "pitch": 66, "duration": 3, "velocity": 11}, {"time": 2438, "pitch": 75, "duration": 12, "velocity": 63}, {"time": 2444, "pitch": 63, "duration": 11, "velocity": 54}, {"time": 2450, "pitch": 66, "duration": 11, "velocity": 63}, {"time": 2456, "pitch": 70, "duration": 5, "velocity": 61}, {"time": 2462, "pitch": 50, "duration": 47, "velocity": 60}, {"time": 2462, "pitch": 54, "duration": 46, "velocity": 66}, {"time": 2462, "pitch": 57, "duration": 21, "velocity": 64}, {"time": 2462, "pitch": 62, "duration": 22, "velocity": 61}, {"time": 2462, "pitch": 66, "duration": 10, "velocity": 74}, {"time": 2462, "pitch": 69, "duration": 10, "velocity": 71}, {"time": 2474, "pitch": 66, "duration": 10, "velocity": 74}, {"time": 2474, "pitch": 69, "duration": 10, "velocity": 81}, {"time": 2486, "pitch": 57, "duration": 23, "velocity": 75}, {"time": 2486, "pitch": 62, "duration": 8, "velocity": 62}, {"time": 2486, "pitch": 66, "duration": 10, "velocity": 69}, {"time": 2486, "pitch": 69, "duration": 10, "velocity": 75}, {"time": 2498, "pitch": 62, "duration": 11, "velocity": 64}, {"time": 2498, "pitch": 66, "duration": 9, "velocity": 72}, {"time": 2498, "pitch": 69, "duration": 9, "velocity": 86}, {"time": 2510, "pitch": 42, "duration": 24, "velocity": 50}, {"time": 2510, "pitch": 58, "duration": 16, "velocity": 61}, {"time": 2510, "pitch": 61, "duration": 24, "velocity": 67}, {"time": 2516, "pitch": 49, "duration": 16, "velocity": 71}, {"time": 2522, "pitch": 54, "duration": 12, "velocity": 56}, {"time": 2528, "pitch": 58, "duration": 6, "velocity": 54}, {"time": 2534, "pitch": 40, "duration": 9, "velocity": 70}, {"time": 2534, "pitch": 56, "duration": 7, "velocity": 75}, {"time": 2534, "pitch": 59, "duration": 7, "velocity": 81}, {"time": 2546, "pitch": 42, "duration": 7, "velocity": 76}, {"time": 2546, "pitch": 58, "duration": 7, "velocity": 85}, {"time": 2546, "pitch": 59, "duration": 7, "velocity": 90}, {"time": 2546, "pitch": 61, "duration": 7, "velocity": 85}, {"time": 2552, "pitch": 61, "duration": 1, "velocity": 87}, {"time": 2558, "pitch": 47, "duration": 18, "velocity": 83}, {"time": 2558, "pitch": 63, "duration": 7, "velocity": 90}, {"time": 2564, "pitch": 54, "duration": 11, "velocity": 69}, {"time": 2570, "pitch": 63, "duration": 12, "velocity": 70}, {"time": 2576, "pitch": 66, "duration": 6, "velocity": 67}, {"time": 2582, "pitch": 46, "duration": 18, "velocity": 68}, {"time": 2582, "pitch": 49, "duration": 18, "velocity": 74}, {"time": 2582, "pitch": 61, "duration": 10, "velocity": 58}, {"time": 2582, "pitch": 66, "duration": 11, "velocity": 66}, {"time": 2594, "pitch": 54, "duration": 6, "velocity": 60}, {"time": 2594, "pitch": 61, "duration": 6, "velocity": 67}, {"time": 2594, "pitch": 66, "duration": 6, "velocity": 79}, {"time": 2606, "pitch": 44, "duration": 18, "velocity": 66}, {"time": 2606, "pitch": 59, "duration": 11, "velocity": 65}, {"time": 2606, "pitch": 63, "duration": 11, "velocity": 75}, {"time": 2612, "pitch": 51, "duration": 11, "velocity": 58}, {"time": 2618, "pitch": 59, "duration": 6, "velocity": 68}, {"time": 2618, "pitch": 63, "duration": 6, "velocity": 74}, {"time": 2630, "pitch": 39, "duration": 19, "velocity": 75}, {"time": 2630, "pitch": 54, "duration": 11, "velocity": 65}, {"time": 2630, "pitch": 58, "duration": 11, "velocity": 71}, {"time": 2636, "pitch": 46, "duration": 18, "velocity": 74}, {"time": 2642, "pitch": 54, "duration": 7, "velocity": 70}, {"time": 2642, "pitch": 58, "duration": 7, "velocity": 74}, {"time": 2648, "pitch": 51, "duration": 5, "velocity": 54}, {"time": 2654, "pitch": 40, "duration": 18, "velocity": 77}, {"time": 2654, "pitch": 56, "duration": 7, "velocity": 63}, {"time": 2654, "pitch": 59, "duration": 6, "velocity": 58}, {"time": 2660, "pitch": 47, "duration": 12, "velocity": 68}, {"time": 2666, "pitch": 56, "duration": 7, "velocity": 59}, {"time": 2666, "pitch": 59, "duration": 7, "velocity": 65}, {"time": 2672, "pitch": 52, "duration": 6, "velocity": 59}, {"time": 2678, "pitch": 39, "duration": 18, "velocity": 70}, {"time": 2678, "pitch": 54, "duration": 11, "velocity": 66}, {"time": 2678, "pitch": 58, "duration": 11, "velocity": 65}, {"time": 2684, "pitch": 46, "duration": 13, "velocity": 64}, {"time": 2690, "pitch": 54, "duration": 7, "velocity": 70}, {"time": 2690, "pitch": 58, "duration": 7, "velocity": 77}, {"time": 2696, "pitch": 51, "duration": 2, "velocity": 59}, {"time": 2702, "pitch": 49, "duration": 17, "velocity": 77}, {"time": 2702, "pitch": 65, "duration": 10, "velocity": 67}, {"time": 2702, "pitch": 68, "duration": 10, "velocity": 85}, {"time": 2702, "pitch": 73, "duration": 10, "velocity": 77}, {"time": 2708, "pitch": 56, "duration": 11, "velocity": 60}, {"time": 2714, "pitch": 53, "duration": 6, "velocity": 63}, {"time": 2714, "pitch": 61, "duration": 4, "velocity": 59}, {"time": 2714, "pitch": 65, "duration": 5, "velocity": 70}, {"time": 2714, "pitch": 68, "duration": 4, "velocity": 85}, {"time": 2714, "pitch": 73, "duration": 4, "velocity": 83}, {"time": 2726, "pitch": 42, "duration": 18, "velocity": 81}, {"time": 2726, "pitch": 58, "duration": 11, "velocity": 64}, {"time": 2726, "pitch": 61, "duration": 11, "velocity": 59}, {"time": 2726, "pitch": 66, "duration": 11, "velocity": 48}, {"time": 2732, "pitch": 49, "duration": 13, "velocity": 61}, {"time": 2738, "pitch": 58, "duration": 7, "velocity": 77}, {"time": 2738, "pitch": 61, "duration": 7, "velocity": 85}, {"time": 2738, "pitch": 66, "duration": 7, "velocity": 87}, {"time": 2744, "pitch": 54, "duration": 3, "velocity": 60}, {"time": 2750, "pitch": 47, "duration": 19, "velocity": 79}, {"time": 2750, "pitch": 63, "duration": 10, "velocity": 63}, {"time": 2750, "pitch": 66, "duration": 10, "velocity": 58}, {"time": 2750, "pitch": 71, "duration": 10, "velocity": 54}, {"time": 2756, "pitch": 54, "duration": 12, "velocity": 74}, {"time": 2762, "pitch": 63, "duration": 6, "velocity": 83}, {"time": 2762, "pitch": 66, "duration": 6, "velocity": 95}, {"time": 2762, "pitch": 71, "duration": 6, "velocity": 79}, {"time": 2765, "pitch": 59, "duration": 1, "velocity": 61}, {"time": 2774, "pitch": 51, "duration": 12, "velocity": 64}, {"time": 2774, "pitch": 67, "duration": 10, "velocity": 71}, {"time": 2774, "pitch": 70, "duration": 10, "velocity": 87}, {"time": 2774, "pitch": 73, "duration": 10, "velocity": 76}, {"time": 2780, "pitch": 55, "duration": 11, "velocity": 66}, {"time": 2786, "pitch": 43, "duration": 10, "velocity": 75}, {"time": 2786, "pitch": 67, "duration": 6, "velocity": 71}, {"time": 2786, "pitch": 70, "duration": 5, "velocity": 95}, {"time": 2786, "pitch": 73, "duration": 5, "velocity": 90}, {"time": 2798, "pitch": 44, "duration": 23, "velocity": 72}, {"time": 2798, "pitch": 59, "duration": 10, "velocity": 64}, {"time": 2798, "pitch": 63, "duration": 10, "velocity": 62}, {"time": 2798, "pitch": 66, "duration": 10, "velocity": 63}, {"time": 2804, "pitch": 51, "duration": 17, "velocity": 60}, {"time": 2810, "pitch": 59, "duration": 8, "velocity": 68}, {"time": 2810, "pitch": 63, "duration": 8, "velocity": 75}, {"time": 2810, "pitch": 66, "duration": 8, "velocity": 74}, {"time": 2816, "pitch": 56, "duration": 3, "velocity": 43}, {"time": 2822, "pitch": 42, "duration": 13, "velocity": 60}, {"time": 2822, "pitch": 57, "duration": 12, "velocity": 58}, {"time": 2822, "pitch": 61, "duration": 12, "velocity": 74}, {"time": 2822, "pitch": 66, "duration": 11, "velocity": 67}, {"time": 2834, "pitch": 42, "duration": 1, "velocity": 64}, {"time": 2834, "pitch": 54, "duration": 11, "velocity": 60}, {"time": 2834, "pitch": 61, "duration": 11, "velocity": 63}, {"time": 2834, "pitch": 66, "duration": 11, "velocity": 72}, {"time": 2846, "pitch": 40, "duration": 18, "velocity": 74}, {"time": 2846, "pitch": 56, "duration": 10, "velocity": 64}, {"time": 2846, "pitch": 59, "duration": 11, "velocity": 67}, {"time": 2846, "pitch": 64, "duration": 10, "velocity": 73}, {"time": 2852, "pitch": 47, "duration": 12, "velocity": 72}, {"time": 2858, "pitch": 56, "duration": 6, "velocity": 68}, {"time": 2858, "pitch": 59, "duration": 6, "velocity": 79}, {"time": 2858, "pitch": 64, "duration": 6, "velocity": 76}, {"time": 2870, "pitch": 39, "duration": 18, "velocity": 67}, {"time": 2870, "pitch": 54, "duration": 10, "velocity": 65}, {"time": 2870, "pitch": 58, "duration": 11, "velocity": 68}, {"time": 2870, "pitch": 63, "duration": 11, "velocity": 71}, {"time": 2876, "pitch": 46, "duration": 13, "velocity": 63}, {"time": 2882, "pitch": 54, "duration": 7, "velocity": 72}, {"time": 2882, "pitch": 58, "duration": 7, "velocity": 77}, {"time": 2882, "pitch": 63, "duration": 7, "velocity": 73}, {"time": 2894, "pitch": 49, "duration": 17, "velocity": 75}, {"time": 2894, "pitch": 65, "duration": 10, "velocity": 66}, {"time": 2894, "pitch": 68, "duration": 8, "velocity": 77}, {"time": 2894, "pitch": 71, "duration": 8, "velocity": 74}, {"time": 2900, "pitch": 53, "duration": 11, "velocity": 62}, {"time": 2906, "pitch": 65, "duration": 5, "velocity": 63}, {"time": 2906, "pitch": 68, "duration": 5, "velocity": 75}, {"time": 2906, "pitch": 71, "duration": 5, "velocity": 79}, {"time": 2918, "pitch": 42, "duration": 19, "velocity": 73}, {"time": 2918, "pitch": 58, "duration": 11, "velocity": 63}, {"time": 2918, "pitch": 61, "duration": 11, "velocity": 63}, {"time": 2918, "pitch": 64, "duration": 2, "velocity": 71}, {"time": 2918, "pitch": 66, "duration": 11, "velocity": 66}, {"time": 2924, "pitch": 49, "duration": 13, "velocity": 64}, {"time": 2930, "pitch": 58, "duration": 7, "velocity": 83}, {"time": 2930, "pitch": 61, "duration": 7, "velocity": 90}, {"time": 2930, "pitch": 66, "duration": 7, "velocity": 95}, {"time": 2936, "pitch": 54, "duration": 6, "velocity": 66}, {"time": 2942, "pitch": 47, "duration": 18, "velocity": 79}, {"time": 2942, "pitch": 75, "duration": 6, "velocity": 70}, {"time": 2948, "pitch": 54, "duration": 14, "velocity": 72}, {"time": 2948, "pitch": 66, "duration": 8, "velocity": 63}, {"time": 2954, "pitch": 59, "duration": 8, "velocity": 56}, {"time": 2954, "pitch": 71, "duration": 6, "velocity": 66}, {"time": 2960, "pitch": 75, "duration": 5, "velocity": 79}, {"time": 2966, "pitch": 46, "duration": 12, "velocity": 49}, {"time": 2966, "pitch": 73, "duration": 5, "velocity": 72}, {"time": 2972, "pitch": 54, "duration": 6, "velocity": 49}, {"time": 2972, "pitch": 66, "duration": 7, "velocity": 62}, {"time": 2978, "pitch": 58, "duration": 7, "velocity": 61}, {"time": 2978, "pitch": 70, "duration": 6, "velocity": 74}, {"time": 2990, "pitch": 44, "duration": 11, "velocity": 71}, {"time": 2990, "pitch": 71, "duration": 6, "velocity": 75}, {"time": 2996, "pitch": 51, "duration": 6, "velocity": 63}, {"time": 2996, "pitch": 63, "duration": 7, "velocity": 73}, {"time": 3002, "pitch": 56, "duration": 7, "velocity": 58}, {"time": 3002, "pitch": 66, "duration": 5, "velocity": 85}, {"time": 3008, "pitch": 58, "duration": 7, "velocity": 61}, {"time": 3008, "pitch": 71, "duration": 7, "velocity": 65}, {"time": 3038, "pitch": 47, "duration": 18, "velocity": 79}, {"time": 3038, "pitch": 75, "duration": 6, "velocity": 70}, {"time": 3044, "pitch": 54, "duration": 14, "velocity": 72}, {"time": 3044, "pitch": 66, "duration": 8, "velocity": 63}, {"time": 3050, "pitch": 59, "duration": 8, "velocity": 56}, {"time": 3050, "pitch": 71, "duration": 6, "velocity": 66}, {"time": 3056, "pitch": 75, "duration": 5, "velocity": 79}, {"time": 3062, "pitch": 46, "duration": 12, "velocity": 49}, {"time": 3062, "pitch": 73, "duration": 5, "velocity": 72}, {"time": 3068, "pitch": 54, "duration": 6, "velocity": 49}, {"time": 3068, "pitch": 66, "duration": 7, "velocity": 62}, {"time": 3074, "pitch": 58, "duration": 7, "velocity": 61}, {"time": 3074, "pitch": 70, "duration": 6, "velocity": 74}, {"time": 3086, "pitch": 44, "duration": 11, "velocity": 71}, {"time": 3086, "pitch": 71, "duration": 6, "velocity": 75}, {"time": 3092, "pitch": 51, "duration": 6, "velocity": 63}, {"time": 3092, "pitch": 63, "duration": 7, "velocity": 73}, {"time": 3098, "pitch": 56, "duration": 7, "velocity": 58}, {"time": 3098, "pitch": 66, "duration": 5, "velocity": 85}, {"time": 3104, "pitch": 58, "duration": 6, "velocity": 61}, {"time": 3104, "pitch": 71, "duration": 6, "velocity": 65}, {"time": 3115, "pitch": 68, "duration": 35, "velocity": 59}, {"time": 3115, "pitch": 80, "duration": 35, "velocity": 74}], "annotations": [{"time": 0, "annotation": {"number": 64, "value": 31}, "group": "control_change"}, {"time": 12, "annotation": {"number": 64, "value": 38}, "group": "control_change"}, {"time": 24, "annotation": {"number": 64, "value": 33}, "group": "control_change"}, {"time": 36, "annotation": {"number": 64, "value": 28}, "group": "control_change"}, {"time": 48, "annotation": {"number": 64, "value": 27}, "group": "control_change"}, {"time": 60, "annotation": {"number": 64, "value": 28}, "group": "control_change"}, {"time": 72, "annotation": {"number": 64, "value": 30}, "group": "control_change"}, {"time": 84, "annotation": {"number": 64, "value": 27}, "group": "control_change"}, {"time": 96, "annotation": {"number": 64, "value": 28}, "group": "control_change"}, {"time": 108, "annotation": {"number": 64, "value": 26}, "group": "control_change"}, {"time": 120, "annotation": {"number": 64, "value": 30}, "group": "control_change"}, {"time": 132, "annotation": {"number": 64, "value": 31}, "group": "control_change"}, {"time": 144, "annotation": {"number": 64, "value": 26}, "group": "control_change"}, {"time": 156, "annotation": {"number": 64, "value": 33}, "group": "control_change"}, {"time": 168, "annotation": {"number": 64, "value": 35}, "group": "control_change"}, {"time": 180, "annotation": {"number": 64, "value": 27}, "group": "control_change"}, {"time": 192, "annotation": {"number": 64, "value": 26}, "group": "control_change"}, {"time": 204, "annotation": {"number": 64, "value": 70}, "group": "control_change"}, {"time": 216, "annotation": {"number": 64, "value": 72}, "group": "control_change"}, {"time": 228, "annotation": {"number": 64, "value": 74}, "group": "control_change"}, {"time": 240, "annotation": {"number": 64, "value": 76}, "group": "control_change"}, {"time": 252, "annotation": {"number": 64, "value": 78}, "group": "control_change"}]}]}