{"metadata": {"schema_version": "0.2", "title": "None", "source_filename": "052.mid", "source_format": "midi"}, "resolution": 12, "tempos": [{"time": 0, "qpm": 85.00004250002125}], "time_signatures": [{"time": 0, "numerator": 1, "denominator": 4}], "tracks": [{"program": 4, "is_drum": false, "name": "MELODY", "notes": [{"time": 435, "pitch": 62, "duration": 2, "velocity": 61}, {"time": 438, "pitch": 64, "duration": 2, "velocity": 69}, {"time": 441, "pitch": 66, "duration": 4, "velocity": 87}, {"time": 447, "pitch": 66, "duration": 1, "velocity": 76}, {"time": 450, "pitch": 66, "duration": 2, "velocity": 93}, {"time": 456, "pitch": 71, "duration": 7, "velocity": 112}, {"time": 465, "pitch": 69, "duration": 5, "velocity": 90}, {"time": 471, "pitch": 66, "duration": 2, "velocity": 70}, {"time": 474, "pitch": 69, "duration": 5, "velocity": 98}, {"time": 483, "pitch": 66, "duration": 6, "velocity": 85}, {"time": 489, "pitch": 64, "duration": 5, "velocity": 77}, {"time": 495, "pitch": 62, "duration": 2, "velocity": 66}, {"time": 498, "pitch": 62, "duration": 4, "velocity": 73}, {"time": 504, "pitch": 64, "duration": 5, "velocity": 77}, {"time": 510, "pitch": 66, "duration": 15, "velocity": 104}, {"time": 531, "pitch": 62, "duration": 3, "velocity": 77}, {"time": 534, "pitch": 64, "duration": 2, "velocity": 71}, {"time": 537, "pitch": 66, "duration": 4, "velocity": 93}, {"time": 543, "pitch": 66, "duration": 1, "velocity": 79}, {"time": 546, "pitch": 66, "duration": 1, "velocity": 85}, {"time": 552, "pitch": 71, "duration": 8, "velocity": 108}, {"time": 561, "pitch": 69, "duration": 5, "velocity": 108}, {"time": 567, "pitch": 66, "duration": 1, "velocity": 72}, {"time": 570, "pitch": 69, "duration": 5, "velocity": 117}, {"time": 576, "pitch": 66, "duration": 7, "velocity": 100}, {"time": 585, "pitch": 64, "duration": 5, "velocity": 90}, {"time": 591, "pitch": 62, "duration": 2, "velocity": 73}, {"time": 594, "pitch": 62, "duration": 3, "velocity": 72}, {"time": 600, "pitch": 69, "duration": 5, "velocity": 112}, {"time": 606, "pitch": 66, "duration": 8, "velocity": 93}, {"time": 627, "pitch": 62, "duration": 3, "velocity": 81}, {"time": 630, "pitch": 64, "duration": 2, "velocity": 67}, {"time": 633, "pitch": 66, "duration": 4, "velocity": 93}, {"time": 639, "pitch": 66, "duration": 1, "velocity": 86}, {"time": 642, "pitch": 66, "duration": 2, "velocity": 90}, {"time": 648, "pitch": 71, "duration": 7, "velocity": 108}, {"time": 657, "pitch": 69, "duration": 5, "velocity": 104}, {"time": 663, "pitch": 66, "duration": 3, "velocity": 61}, {"time": 666, "pitch": 69, "duration": 6, "velocity": 87}, {"time": 672, "pitch": 66, "duration": 7, "velocity": 87}, {"time": 681, "pitch": 64, "duration": 6, "velocity": 83}, {"time": 687, "pitch": 62, "duration": 1, "velocity": 70}, {"time": 690, "pitch": 62, "duration": 4, "velocity": 72}, {"time": 696, "pitch": 64, "duration": 4, "velocity": 74}, {"time": 702, "pitch": 66, "duration": 14, "velocity": 85}, {"time": 723, "pitch": 62, "duration": 3, "velocity": 87}, {"time": 726, "pitch": 64, "duration": 4, "velocity": 70}, {"time": 729, "pitch": 66, "duration": 4, "velocity": 90}, {"time": 735, "pitch": 66, "duration": 1, "velocity": 75}, {"time": 738, "pitch": 66, "duration": 3, "velocity": 81}, {"time": 744, "pitch": 71, "duration": 7, "velocity": 112}, {"time": 753, "pitch": 73, "duration": 4, "velocity": 104}, {"time": 759, "pitch": 71, "duration": 2, "velocity": 77}, {"time": 762, "pitch": 69, "duration": 5, "velocity": 111}, {"time": 768, "pitch": 69, "duration": 5, "velocity": 98}, {"time": 777, "pitch": 71, "duration": 4, "velocity": 87}, {"time": 783, "pitch": 74, "duration": 2, "velocity": 74}, {"time": 786, "pitch": 76, "duration": 4, "velocity": 86}, {"time": 792, "pitch": 74, "duration": 4, "velocity": 86}, {"time": 798, "pitch": 74, "duration": 12, "velocity": 93}, {"time": 813, "pitch": 71, "duration": 3, "velocity": 90}, {"time": 816, "pitch": 73, "duration": 3, "velocity": 83}, {"time": 819, "pitch": 74, "duration": 2, "velocity": 93}, {"time": 822, "pitch": 76, "duration": 1, "velocity": 114}, {"time": 825, "pitch": 78, "duration": 6, "velocity": 108}, {"time": 831, "pitch": 71, "duration": 1, "velocity": 81}, {"time": 834, "pitch": 71, "duration": 2, "velocity": 76}, {"time": 840, "pitch": 78, "duration": 3, "velocity": 95}, {"time": 846, "pitch": 76, "duration": 7, "velocity": 114}, {"time": 861, "pitch": 76, "duration": 3, "velocity": 111}, {"time": 864, "pitch": 74, "duration": 3, "velocity": 72}, {"time": 867, "pitch": 73, "duration": 3, "velocity": 74}, {"time": 870, "pitch": 74, "duration": 2, "velocity": 83}, {"time": 873, "pitch": 76, "duration": 3, "velocity": 108}, {"time": 879, "pitch": 69, "duration": 1, "velocity": 93}, {"time": 882, "pitch": 69, "duration": 2, "velocity": 95}, {"time": 888, "pitch": 76, "duration": 3, "velocity": 95}, {"time": 894, "pitch": 74, "duration": 7, "velocity": 90}, {"time": 912, "pitch": 71, "duration": 1, "velocity": 79}, {"time": 915, "pitch": 71, "duration": 2, "velocity": 79}, {"time": 918, "pitch": 73, "duration": 1, "velocity": 76}, {"time": 921, "pitch": 74, "duration": 5, "velocity": 100}, {"time": 927, "pitch": 67, "duration": 1, "velocity": 65}, {"time": 930, "pitch": 67, "duration": 3, "velocity": 83}, {"time": 936, "pitch": 74, "duration": 5, "velocity": 90}, {"time": 942, "pitch": 74, "duration": 2, "velocity": 79}, {"time": 945, "pitch": 73, "duration": 4, "velocity": 108}, {"time": 951, "pitch": 71, "duration": 2, "velocity": 83}, {"time": 954, "pitch": 71, "duration": 4, "velocity": 85}, {"time": 960, "pitch": 74, "duration": 4, "velocity": 100}, {"time": 966, "pitch": 73, "duration": 28, "velocity": 112}, {"time": 1005, "pitch": 71, "duration": 6, "velocity": 90}, {"time": 1011, "pitch": 73, "duration": 4, "velocity": 74}, {"time": 1017, "pitch": 74, "duration": 3, "velocity": 86}, {"time": 1023, "pitch": 76, "duration": 1, "velocity": 83}, {"time": 1026, "pitch": 78, "duration": 4, "velocity": 104}, {"time": 1032, "pitch": 74, "duration": 6, "velocity": 87}, {"time": 1041, "pitch": 73, "duration": 4, "velocity": 114}, {"time": 1047, "pitch": 71, "duration": 1, "velocity": 87}, {"time": 1050, "pitch": 71, "duration": 4, "velocity": 95}, {"time": 1056, "pitch": 69, "duration": 5, "velocity": 95}, {"time": 1065, "pitch": 71, "duration": 5, "velocity": 108}, {"time": 1071, "pitch": 69, "duration": 1, "velocity": 86}, {"time": 1074, "pitch": 69, "duration": 4, "velocity": 100}, {"time": 1080, "pitch": 67, "duration": 3, "velocity": 93}, {"time": 1086, "pitch": 66, "duration": 7, "velocity": 85}, {"time": 1101, "pitch": 71, "duration": 5, "velocity": 98}, {"time": 1107, "pitch": 73, "duration": 5, "velocity": 83}, {"time": 1113, "pitch": 74, "duration": 3, "velocity": 87}, {"time": 1119, "pitch": 76, "duration": 1, "velocity": 83}, {"time": 1122, "pitch": 78, "duration": 4, "velocity": 98}, {"time": 1128, "pitch": 74, "duration": 6, "velocity": 85}, {"time": 1137, "pitch": 73, "duration": 4, "velocity": 100}, {"time": 1143, "pitch": 71, "duration": 1, "velocity": 100}, {"time": 1146, "pitch": 71, "duration": 3, "velocity": 98}, {"time": 1152, "pitch": 69, "duration": 5, "velocity": 104}, {"time": 1161, "pitch": 71, "duration": 5, "velocity": 90}, {"time": 1167, "pitch": 74, "duration": 2, "velocity": 69}, {"time": 1170, "pitch": 76, "duration": 4, "velocity": 86}, {"time": 1176, "pitch": 74, "duration": 3, "velocity": 75}, {"time": 1182, "pitch": 74, "duration": 10, "velocity": 86}, {"time": 1197, "pitch": 71, "duration": 5, "velocity": 108}, {"time": 1203, "pitch": 73, "duration": 5, "velocity": 95}, {"time": 1209, "pitch": 74, "duration": 2, "velocity": 108}, {"time": 1215, "pitch": 76, "duration": 1, "velocity": 81}, {"time": 1218, "pitch": 78, "duration": 3, "velocity": 98}, {"time": 1224, "pitch": 74, "duration": 6, "velocity": 95}, {"time": 1233, "pitch": 73, "duration": 3, "velocity": 112}, {"time": 1239, "pitch": 71, "duration": 1, "velocity": 90}, {"time": 1242, "pitch": 71, "duration": 3, "velocity": 95}, {"time": 1248, "pitch": 69, "duration": 6, "velocity": 95}, {"time": 1257, "pitch": 71, "duration": 4, "velocity": 112}, {"time": 1263, "pitch": 69, "duration": 1, "velocity": 81}, {"time": 1266, "pitch": 69, "duration": 3, "velocity": 95}, {"time": 1272, "pitch": 67, "duration": 3, "velocity": 87}, {"time": 1278, "pitch": 66, "duration": 8, "velocity": 77}, {"time": 1293, "pitch": 71, "duration": 4, "velocity": 108}, {"time": 1299, "pitch": 73, "duration": 4, "velocity": 93}, {"time": 1305, "pitch": 74, "duration": 2, "velocity": 95}, {"time": 1311, "pitch": 76, "duration": 1, "velocity": 79}, {"time": 1314, "pitch": 78, "duration": 3, "velocity": 98}, {"time": 1320, "pitch": 74, "duration": 5, "velocity": 77}, {"time": 1329, "pitch": 73, "duration": 4, "velocity": 98}, {"time": 1335, "pitch": 81, "duration": 2, "velocity": 98}, {"time": 1338, "pitch": 81, "duration": 2, "velocity": 81}, {"time": 1344, "pitch": 69, "duration": 8, "velocity": 59}, {"time": 1350, "pitch": 71, "duration": 26, "velocity": 90}, {"time": 1377, "pitch": 73, "duration": 7, "velocity": 87}, {"time": 1383, "pitch": 66, "duration": 2, "velocity": 66}, {"time": 1386, "pitch": 74, "duration": 2, "velocity": 74}, {"time": 1392, "pitch": 73, "duration": 4, "velocity": 93}, {"time": 1401, "pitch": 71, "duration": 48, "velocity": 112}, {"time": 1779, "pitch": 62, "duration": 2, "velocity": 61}, {"time": 1782, "pitch": 64, "duration": 2, "velocity": 69}, {"time": 1785, "pitch": 66, "duration": 4, "velocity": 87}, {"time": 1791, "pitch": 66, "duration": 1, "velocity": 76}, {"time": 1794, "pitch": 66, "duration": 2, "velocity": 93}, {"time": 1800, "pitch": 71, "duration": 7, "velocity": 112}, {"time": 1809, "pitch": 69, "duration": 5, "velocity": 90}, {"time": 1815, "pitch": 66, "duration": 2, "velocity": 70}, {"time": 1818, "pitch": 69, "duration": 5, "velocity": 98}, {"time": 1827, "pitch": 66, "duration": 6, "velocity": 85}, {"time": 1833, "pitch": 64, "duration": 5, "velocity": 77}, {"time": 1839, "pitch": 62, "duration": 2, "velocity": 66}, {"time": 1842, "pitch": 62, "duration": 4, "velocity": 73}, {"time": 1848, "pitch": 64, "duration": 5, "velocity": 77}, {"time": 1854, "pitch": 66, "duration": 15, "velocity": 104}, {"time": 1875, "pitch": 62, "duration": 3, "velocity": 77}, {"time": 1878, "pitch": 64, "duration": 2, "velocity": 71}, {"time": 1881, "pitch": 66, "duration": 4, "velocity": 93}, {"time": 1887, "pitch": 66, "duration": 1, "velocity": 79}, {"time": 1890, "pitch": 66, "duration": 1, "velocity": 85}, {"time": 1896, "pitch": 71, "duration": 8, "velocity": 108}, {"time": 1905, "pitch": 69, "duration": 5, "velocity": 108}, {"time": 1911, "pitch": 66, "duration": 1, "velocity": 72}, {"time": 1914, "pitch": 69, "duration": 5, "velocity": 117}, {"time": 1920, "pitch": 66, "duration": 7, "velocity": 100}, {"time": 1929, "pitch": 64, "duration": 5, "velocity": 90}, {"time": 1935, "pitch": 62, "duration": 2, "velocity": 73}, {"time": 1938, "pitch": 62, "duration": 3, "velocity": 72}, {"time": 1944, "pitch": 69, "duration": 5, "velocity": 112}, {"time": 1950, "pitch": 66, "duration": 8, "velocity": 93}, {"time": 1971, "pitch": 62, "duration": 3, "velocity": 81}, {"time": 1974, "pitch": 64, "duration": 2, "velocity": 67}, {"time": 1977, "pitch": 66, "duration": 4, "velocity": 93}, {"time": 1983, "pitch": 66, "duration": 1, "velocity": 86}, {"time": 1986, "pitch": 66, "duration": 2, "velocity": 90}, {"time": 1992, "pitch": 71, "duration": 7, "velocity": 108}, {"time": 2001, "pitch": 69, "duration": 5, "velocity": 104}, {"time": 2007, "pitch": 66, "duration": 3, "velocity": 61}, {"time": 2010, "pitch": 69, "duration": 6, "velocity": 87}, {"time": 2016, "pitch": 66, "duration": 7, "velocity": 87}, {"time": 2025, "pitch": 64, "duration": 6, "velocity": 83}, {"time": 2031, "pitch": 62, "duration": 1, "velocity": 70}, {"time": 2034, "pitch": 62, "duration": 4, "velocity": 72}, {"time": 2040, "pitch": 64, "duration": 4, "velocity": 74}, {"time": 2046, "pitch": 66, "duration": 14, "velocity": 85}, {"time": 2067, "pitch": 62, "duration": 3, "velocity": 87}, {"time": 2070, "pitch": 64, "duration": 4, "velocity": 70}, {"time": 2073, "pitch": 66, "duration": 4, "velocity": 90}, {"time": 2079, "pitch": 66, "duration": 1, "velocity": 75}, {"time": 2082, "pitch": 66, "duration": 3, "velocity": 81}, {"time": 2088, "pitch": 71, "duration": 7, "velocity": 112}, {"time": 2097, "pitch": 73, "duration": 4, "velocity": 104}, {"time": 2103, "pitch": 71, "duration": 2, "velocity": 77}, {"time": 2106, "pitch": 69, "duration": 5, "velocity": 111}, {"time": 2112, "pitch": 69, "duration": 5, "velocity": 98}, {"time": 2121, "pitch": 71, "duration": 4, "velocity": 87}, {"time": 2127, "pitch": 74, "duration": 2, "velocity": 74}, {"time": 2130, "pitch": 76, "duration": 4, "velocity": 86}, {"time": 2136, "pitch": 74, "duration": 4, "velocity": 86}, {"time": 2142, "pitch": 74, "duration": 12, "velocity": 93}, {"time": 2157, "pitch": 71, "duration": 3, "velocity": 90}, {"time": 2160, "pitch": 73, "duration": 3, "velocity": 83}, {"time": 2163, "pitch": 74, "duration": 2, "velocity": 93}, {"time": 2166, "pitch": 76, "duration": 1, "velocity": 114}, {"time": 2169, "pitch": 78, "duration": 6, "velocity": 108}, {"time": 2175, "pitch": 71, "duration": 1, "velocity": 81}, {"time": 2178, "pitch": 71, "duration": 2, "velocity": 76}, {"time": 2184, "pitch": 78, "duration": 3, "velocity": 95}, {"time": 2190, "pitch": 76, "duration": 7, "velocity": 114}, {"time": 2205, "pitch": 76, "duration": 3, "velocity": 111}, {"time": 2208, "pitch": 74, "duration": 3, "velocity": 72}, {"time": 2211, "pitch": 73, "duration": 3, "velocity": 74}, {"time": 2214, "pitch": 74, "duration": 2, "velocity": 83}, {"time": 2217, "pitch": 76, "duration": 3, "velocity": 108}, {"time": 2223, "pitch": 69, "duration": 1, "velocity": 93}, {"time": 2226, "pitch": 69, "duration": 2, "velocity": 95}, {"time": 2232, "pitch": 76, "duration": 3, "velocity": 95}, {"time": 2238, "pitch": 74, "duration": 7, "velocity": 90}, {"time": 2256, "pitch": 71, "duration": 1, "velocity": 79}, {"time": 2259, "pitch": 71, "duration": 2, "velocity": 79}, {"time": 2262, "pitch": 73, "duration": 1, "velocity": 76}, {"time": 2265, "pitch": 74, "duration": 5, "velocity": 100}, {"time": 2271, "pitch": 67, "duration": 1, "velocity": 65}, {"time": 2274, "pitch": 67, "duration": 3, "velocity": 83}, {"time": 2280, "pitch": 74, "duration": 5, "velocity": 90}, {"time": 2286, "pitch": 74, "duration": 2, "velocity": 79}, {"time": 2289, "pitch": 73, "duration": 4, "velocity": 108}, {"time": 2295, "pitch": 71, "duration": 2, "velocity": 83}, {"time": 2298, "pitch": 71, "duration": 4, "velocity": 85}, {"time": 2304, "pitch": 74, "duration": 4, "velocity": 100}, {"time": 2310, "pitch": 73, "duration": 28, "velocity": 112}, {"time": 2349, "pitch": 71, "duration": 6, "velocity": 90}, {"time": 2355, "pitch": 73, "duration": 4, "velocity": 74}, {"time": 2361, "pitch": 74, "duration": 3, "velocity": 86}, {"time": 2367, "pitch": 76, "duration": 1, "velocity": 83}, {"time": 2370, "pitch": 78, "duration": 4, "velocity": 104}, {"time": 2376, "pitch": 74, "duration": 6, "velocity": 87}, {"time": 2385, "pitch": 73, "duration": 4, "velocity": 114}, {"time": 2391, "pitch": 71, "duration": 1, "velocity": 87}, {"time": 2394, "pitch": 71, "duration": 4, "velocity": 95}, {"time": 2400, "pitch": 69, "duration": 5, "velocity": 95}, {"time": 2409, "pitch": 71, "duration": 5, "velocity": 108}, {"time": 2415, "pitch": 69, "duration": 1, "velocity": 86}, {"time": 2418, "pitch": 69, "duration": 4, "velocity": 100}, {"time": 2424, "pitch": 67, "duration": 3, "velocity": 93}, {"time": 2430, "pitch": 66, "duration": 7, "velocity": 85}, {"time": 2445, "pitch": 71, "duration": 5, "velocity": 98}, {"time": 2451, "pitch": 73, "duration": 5, "velocity": 83}, {"time": 2457, "pitch": 74, "duration": 3, "velocity": 87}, {"time": 2463, "pitch": 76, "duration": 1, "velocity": 83}, {"time": 2466, "pitch": 78, "duration": 4, "velocity": 98}, {"time": 2472, "pitch": 74, "duration": 6, "velocity": 85}, {"time": 2481, "pitch": 73, "duration": 4, "velocity": 100}, {"time": 2487, "pitch": 71, "duration": 1, "velocity": 100}, {"time": 2490, "pitch": 71, "duration": 3, "velocity": 98}, {"time": 2496, "pitch": 69, "duration": 5, "velocity": 104}, {"time": 2505, "pitch": 71, "duration": 5, "velocity": 90}, {"time": 2511, "pitch": 74, "duration": 2, "velocity": 69}, {"time": 2514, "pitch": 76, "duration": 4, "velocity": 86}, {"time": 2520, "pitch": 74, "duration": 3, "velocity": 75}, {"time": 2526, "pitch": 74, "duration": 10, "velocity": 86}, {"time": 2541, "pitch": 71, "duration": 5, "velocity": 108}, {"time": 2547, "pitch": 73, "duration": 5, "velocity": 95}, {"time": 2553, "pitch": 74, "duration": 2, "velocity": 108}, {"time": 2559, "pitch": 76, "duration": 1, "velocity": 81}, {"time": 2562, "pitch": 78, "duration": 3, "velocity": 98}, {"time": 2568, "pitch": 74, "duration": 6, "velocity": 95}, {"time": 2577, "pitch": 73, "duration": 3, "velocity": 112}, {"time": 2583, "pitch": 71, "duration": 1, "velocity": 90}, {"time": 2586, "pitch": 71, "duration": 3, "velocity": 95}, {"time": 2592, "pitch": 69, "duration": 6, "velocity": 95}, {"time": 2601, "pitch": 71, "duration": 4, "velocity": 112}, {"time": 2607, "pitch": 69, "duration": 1, "velocity": 81}, {"time": 2610, "pitch": 69, "duration": 3, "velocity": 95}, {"time": 2616, "pitch": 67, "duration": 3, "velocity": 87}, {"time": 2622, "pitch": 66, "duration": 8, "velocity": 77}, {"time": 2637, "pitch": 71, "duration": 4, "velocity": 108}, {"time": 2643, "pitch": 73, "duration": 4, "velocity": 93}, {"time": 2649, "pitch": 74, "duration": 2, "velocity": 95}, {"time": 2655, "pitch": 76, "duration": 1, "velocity": 79}, {"time": 2658, "pitch": 78, "duration": 3, "velocity": 98}, {"time": 2664, "pitch": 74, "duration": 5, "velocity": 77}, {"time": 2673, "pitch": 73, "duration": 4, "velocity": 98}, {"time": 2679, "pitch": 81, "duration": 2, "velocity": 98}, {"time": 2682, "pitch": 81, "duration": 2, "velocity": 81}, {"time": 2688, "pitch": 69, "duration": 8, "velocity": 59}, {"time": 2694, "pitch": 71, "duration": 26, "velocity": 90}, {"time": 2721, "pitch": 73, "duration": 7, "velocity": 87}, {"time": 2727, "pitch": 66, "duration": 2, "velocity": 66}, {"time": 2730, "pitch": 74, "duration": 2, "velocity": 74}, {"time": 2733, "pitch": 71, "duration": 6, "velocity": 90}, {"time": 2736, "pitch": 73, "duration": 3, "velocity": 93}, {"time": 2742, "pitch": 73, "duration": 1, "velocity": 74}, {"time": 2745, "pitch": 74, "duration": 3, "velocity": 86}, {"time": 2751, "pitch": 76, "duration": 1, "velocity": 83}, {"time": 2754, "pitch": 78, "duration": 4, "velocity": 104}, {"time": 2760, "pitch": 74, "duration": 6, "velocity": 87}, {"time": 2769, "pitch": 73, "duration": 4, "velocity": 114}, {"time": 2775, "pitch": 71, "duration": 1, "velocity": 87}, {"time": 2778, "pitch": 71, "duration": 4, "velocity": 95}, {"time": 2784, "pitch": 69, "duration": 5, "velocity": 95}, {"time": 2793, "pitch": 71, "duration": 5, "velocity": 108}, {"time": 2799, "pitch": 69, "duration": 1, "velocity": 86}, {"time": 2802, "pitch": 69, "duration": 4, "velocity": 100}, {"time": 2808, "pitch": 67, "duration": 3, "velocity": 93}, {"time": 2814, "pitch": 66, "duration": 7, "velocity": 85}, {"time": 2829, "pitch": 71, "duration": 5, "velocity": 98}, {"time": 2835, "pitch": 73, "duration": 5, "velocity": 83}, {"time": 2841, "pitch": 74, "duration": 3, "velocity": 87}, {"time": 2847, "pitch": 76, "duration": 1, "velocity": 83}, {"time": 2850, "pitch": 78, "duration": 4, "velocity": 98}, {"time": 2856, "pitch": 74, "duration": 6, "velocity": 85}, {"time": 2865, "pitch": 73, "duration": 4, "velocity": 100}, {"time": 2871, "pitch": 71, "duration": 1, "velocity": 100}, {"time": 2874, "pitch": 71, "duration": 3, "velocity": 98}, {"time": 2880, "pitch": 69, "duration": 5, "velocity": 104}, {"time": 2889, "pitch": 71, "duration": 5, "velocity": 90}, {"time": 2895, "pitch": 74, "duration": 2, "velocity": 69}, {"time": 2898, "pitch": 76, "duration": 4, "velocity": 86}, {"time": 2904, "pitch": 74, "duration": 3, "velocity": 75}, {"time": 2910, "pitch": 74, "duration": 10, "velocity": 86}, {"time": 2925, "pitch": 71, "duration": 5, "velocity": 108}, {"time": 2931, "pitch": 73, "duration": 5, "velocity": 95}, {"time": 2937, "pitch": 74, "duration": 2, "velocity": 108}, {"time": 2943, "pitch": 76, "duration": 1, "velocity": 81}, {"time": 2946, "pitch": 78, "duration": 3, "velocity": 98}, {"time": 2952, "pitch": 74, "duration": 6, "velocity": 95}, {"time": 2961, "pitch": 73, "duration": 3, "velocity": 112}, {"time": 2967, "pitch": 71, "duration": 1, "velocity": 90}, {"time": 2970, "pitch": 71, "duration": 3, "velocity": 95}, {"time": 2976, "pitch": 69, "duration": 6, "velocity": 95}, {"time": 2985, "pitch": 71, "duration": 4, "velocity": 112}, {"time": 2991, "pitch": 69, "duration": 1, "velocity": 81}, {"time": 2994, "pitch": 69, "duration": 3, "velocity": 95}, {"time": 3000, "pitch": 67, "duration": 3, "velocity": 87}, {"time": 3006, "pitch": 66, "duration": 8, "velocity": 77}, {"time": 3021, "pitch": 71, "duration": 4, "velocity": 108}, {"time": 3027, "pitch": 73, "duration": 4, "velocity": 93}, {"time": 3033, "pitch": 74, "duration": 2, "velocity": 95}, {"time": 3039, "pitch": 76, "duration": 1, "velocity": 79}, {"time": 3042, "pitch": 78, "duration": 3, "velocity": 98}, {"time": 3048, "pitch": 74, "duration": 5, "velocity": 77}, {"time": 3057, "pitch": 73, "duration": 4, "velocity": 98}, {"time": 3063, "pitch": 81, "duration": 2, "velocity": 98}, {"time": 3066, "pitch": 81, "duration": 2, "velocity": 81}, {"time": 3072, "pitch": 69, "duration": 8, "velocity": 59}, {"time": 3078, "pitch": 71, "duration": 26, "velocity": 90}, {"time": 3105, "pitch": 73, "duration": 7, "velocity": 87}, {"time": 3111, "pitch": 66, "duration": 2, "velocity": 66}, {"time": 3114, "pitch": 74, "duration": 39, "velocity": 74}, {"time": 3153, "pitch": 73, "duration": 13, "velocity": 85}, {"time": 3167, "pitch": 71, "duration": 34, "velocity": 66}], "annotations": [{"time": 393, "annotation": {"number": 64, "value": 76}, "group": "control_change"}, {"time": 405, "annotation": {"number": 64, "value": 79}, "group": "control_change"}, {"time": 417, "annotation": {"number": 64, "value": 88}, "group": "control_change"}, {"time": 429, "annotation": {"number": 64, "value": 86}, "group": "control_change"}, {"time": 441, "annotation": {"number": 64, "value": 91}, "group": "control_change"}, {"time": 453, "annotation": {"number": 64, "value": 80}, "group": "control_change"}, {"time": 465, "annotation": {"number": 64, "value": 81}, "group": "control_change"}, {"time": 477, "annotation": {"number": 64, "value": 83}, "group": "control_change"}]}, {"program": 0, "is_drum": false, "name": "PIANO", "notes": [{"time": 9, "pitch": 47, "duration": 17, "velocity": 77}, {"time": 12, "pitch": 54, "duration": 14, "velocity": 70}, {"time": 15, "pitch": 59, "duration": 9, "velocity": 59}, {"time": 18, "pitch": 62, "duration": 10, "velocity": 86}, {"time": 33, "pitch": 42, "duration": 16, "velocity": 81}, {"time": 36, "pitch": 49, "duration": 14, "velocity": 76}, {"time": 39, "pitch": 54, "duration": 10, "velocity": 64}, {"time": 42, "pitch": 61, "duration": 8, "velocity": 81}, {"time": 57, "pitch": 43, "duration": 9, "velocity": 86}, {"time": 60, "pitch": 50, "duration": 8, "velocity": 74}, {"time": 63, "pitch": 55, "duration": 4, "velocity": 67}, {"time": 66, "pitch": 59, "duration": 4, "velocity": 70}, {"time": 69, "pitch": 45, "duration": 9, "velocity": 77}, {"time": 72, "pitch": 52, "duration": 8, "velocity": 81}, {"time": 75, "pitch": 57, "duration": 4, "velocity": 65}, {"time": 78, "pitch": 61, "duration": 3, "velocity": 74}, {"time": 81, "pitch": 50, "duration": 19, "velocity": 90}, {"time": 84, "pitch": 57, "duration": 16, "velocity": 67}, {"time": 87, "pitch": 62, "duration": 12, "velocity": 60}, {"time": 90, "pitch": 66, "duration": 9, "velocity": 85}, {"time": 105, "pitch": 47, "duration": 17, "velocity": 77}, {"time": 108, "pitch": 54, "duration": 14, "velocity": 70}, {"time": 111, "pitch": 59, "duration": 9, "velocity": 59}, {"time": 114, "pitch": 62, "duration": 10, "velocity": 86}, {"time": 129, "pitch": 42, "duration": 16, "velocity": 81}, {"time": 132, "pitch": 49, "duration": 14, "velocity": 76}, {"time": 135, "pitch": 54, "duration": 10, "velocity": 64}, {"time": 138, "pitch": 61, "duration": 8, "velocity": 81}, {"time": 153, "pitch": 43, "duration": 9, "velocity": 86}, {"time": 156, "pitch": 50, "duration": 8, "velocity": 74}, {"time": 159, "pitch": 55, "duration": 4, "velocity": 67}, {"time": 162, "pitch": 59, "duration": 4, "velocity": 70}, {"time": 165, "pitch": 45, "duration": 9, "velocity": 77}, {"time": 168, "pitch": 52, "duration": 8, "velocity": 81}, {"time": 171, "pitch": 57, "duration": 4, "velocity": 65}, {"time": 174, "pitch": 61, "duration": 3, "velocity": 74}, {"time": 177, "pitch": 50, "duration": 13, "velocity": 90}, {"time": 180, "pitch": 57, "duration": 10, "velocity": 67}, {"time": 183, "pitch": 62, "duration": 6, "velocity": 60}, {"time": 186, "pitch": 66, "duration": 9, "velocity": 85}, {"time": 201, "pitch": 47, "duration": 13, "velocity": 77}, {"time": 204, "pitch": 54, "duration": 9, "velocity": 70}, {"time": 207, "pitch": 59, "duration": 4, "velocity": 59}, {"time": 210, "pitch": 66, "duration": 3, "velocity": 86}, {"time": 216, "pitch": 66, "duration": 3, "velocity": 76}, {"time": 219, "pitch": 62, "duration": 3, "velocity": 74}, {"time": 222, "pitch": 54, "duration": 4, "velocity": 98}, {"time": 225, "pitch": 42, "duration": 11, "velocity": 81}, {"time": 228, "pitch": 49, "duration": 10, "velocity": 76}, {"time": 231, "pitch": 54, "duration": 6, "velocity": 64}, {"time": 234, "pitch": 61, "duration": 8, "velocity": 81}, {"time": 240, "pitch": 61, "duration": 2, "velocity": 74}, {"time": 243, "pitch": 54, "duration": 3, "velocity": 68}, {"time": 246, "pitch": 49, "duration": 4, "velocity": 83}, {"time": 249, "pitch": 43, "duration": 9, "velocity": 86}, {"time": 252, "pitch": 50, "duration": 8, "velocity": 74}, {"time": 255, "pitch": 55, "duration": 4, "velocity": 67}, {"time": 258, "pitch": 59, "duration": 4, "velocity": 70}, {"time": 261, "pitch": 45, "duration": 9, "velocity": 77}, {"time": 264, "pitch": 52, "duration": 8, "velocity": 81}, {"time": 267, "pitch": 57, "duration": 4, "velocity": 65}, {"time": 270, "pitch": 61, "duration": 3, "velocity": 74}, {"time": 273, "pitch": 50, "duration": 12, "velocity": 90}, {"time": 276, "pitch": 57, "duration": 9, "velocity": 67}, {"time": 279, "pitch": 62, "duration": 5, "velocity": 60}, {"time": 282, "pitch": 66, "duration": 5, "velocity": 75}, {"time": 288, "pitch": 66, "duration": 3, "velocity": 79}, {"time": 291, "pitch": 62, "duration": 3, "velocity": 74}, {"time": 294, "pitch": 57, "duration": 4, "velocity": 80}, {"time": 297, "pitch": 47, "duration": 11, "velocity": 77}, {"time": 300, "pitch": 54, "duration": 9, "velocity": 70}, {"time": 303, "pitch": 59, "duration": 4, "velocity": 59}, {"time": 306, "pitch": 62, "duration": 4, "velocity": 86}, {"time": 312, "pitch": 62, "duration": 3, "velocity": 77}, {"time": 315, "pitch": 59, "duration": 3, "velocity": 69}, {"time": 318, "pitch": 54, "duration": 5, "velocity": 83}, {"time": 321, "pitch": 42, "duration": 10, "velocity": 81}, {"time": 324, "pitch": 49, "duration": 9, "velocity": 76}, {"time": 327, "pitch": 54, "duration": 5, "velocity": 64}, {"time": 330, "pitch": 61, "duration": 4, "velocity": 81}, {"time": 336, "pitch": 61, "duration": 4, "velocity": 67}, {"time": 339, "pitch": 57, "duration": 3, "velocity": 59}, {"time": 342, "pitch": 54, "duration": 5, "velocity": 79}, {"time": 345, "pitch": 43, "duration": 19, "velocity": 79}, {"time": 348, "pitch": 50, "duration": 15, "velocity": 79}, {"time": 351, "pitch": 55, "duration": 12, "velocity": 60}, {"time": 354, "pitch": 59, "duration": 16, "velocity": 73}, {"time": 369, "pitch": 42, "duration": 22, "velocity": 73}, {"time": 372, "pitch": 49, "duration": 18, "velocity": 62}, {"time": 375, "pitch": 54, "duration": 14, "velocity": 61}, {"time": 378, "pitch": 58, "duration": 12, "velocity": 81}, {"time": 384, "pitch": 61, "duration": 7, "velocity": 63}, {"time": 393, "pitch": 66, "duration": 16, "velocity": 68}, {"time": 441, "pitch": 47, "duration": 13, "velocity": 77}, {"time": 444, "pitch": 54, "duration": 9, "velocity": 70}, {"time": 447, "pitch": 59, "duration": 4, "velocity": 59}, {"time": 450, "pitch": 62, "duration": 5, "velocity": 86}, {"time": 456, "pitch": 59, "duration": 3, "velocity": 75}, {"time": 459, "pitch": 54, "duration": 3, "velocity": 67}, {"time": 462, "pitch": 50, "duration": 4, "velocity": 87}, {"time": 465, "pitch": 42, "duration": 16, "velocity": 81}, {"time": 468, "pitch": 49, "duration": 14, "velocity": 76}, {"time": 471, "pitch": 54, "duration": 10, "velocity": 64}, {"time": 474, "pitch": 61, "duration": 8, "velocity": 81}, {"time": 489, "pitch": 43, "duration": 9, "velocity": 86}, {"time": 492, "pitch": 50, "duration": 8, "velocity": 74}, {"time": 495, "pitch": 55, "duration": 4, "velocity": 67}, {"time": 498, "pitch": 59, "duration": 4, "velocity": 70}, {"time": 501, "pitch": 45, "duration": 9, "velocity": 77}, {"time": 504, "pitch": 52, "duration": 8, "velocity": 81}, {"time": 507, "pitch": 57, "duration": 4, "velocity": 65}, {"time": 510, "pitch": 61, "duration": 3, "velocity": 74}, {"time": 513, "pitch": 50, "duration": 19, "velocity": 90}, {"time": 516, "pitch": 57, "duration": 16, "velocity": 67}, {"time": 519, "pitch": 62, "duration": 12, "velocity": 60}, {"time": 522, "pitch": 66, "duration": 9, "velocity": 85}, {"time": 537, "pitch": 47, "duration": 17, "velocity": 77}, {"time": 540, "pitch": 54, "duration": 14, "velocity": 70}, {"time": 543, "pitch": 59, "duration": 9, "velocity": 59}, {"time": 546, "pitch": 62, "duration": 10, "velocity": 86}, {"time": 561, "pitch": 42, "duration": 16, "velocity": 81}, {"time": 564, "pitch": 49, "duration": 14, "velocity": 76}, {"time": 567, "pitch": 54, "duration": 10, "velocity": 64}, {"time": 570, "pitch": 61, "duration": 8, "velocity": 81}, {"time": 585, "pitch": 43, "duration": 9, "velocity": 86}, {"time": 588, "pitch": 50, "duration": 8, "velocity": 74}, {"time": 591, "pitch": 55, "duration": 4, "velocity": 67}, {"time": 594, "pitch": 59, "duration": 4, "velocity": 70}, {"time": 597, "pitch": 45, "duration": 9, "velocity": 77}, {"time": 600, "pitch": 52, "duration": 8, "velocity": 81}, {"time": 603, "pitch": 57, "duration": 4, "velocity": 65}, {"time": 606, "pitch": 61, "duration": 3, "velocity": 74}, {"time": 609, "pitch": 50, "duration": 12, "velocity": 90}, {"time": 612, "pitch": 57, "duration": 9, "velocity": 67}, {"time": 615, "pitch": 62, "duration": 7, "velocity": 60}, {"time": 618, "pitch": 66, "duration": 4, "velocity": 85}, {"time": 624, "pitch": 66, "duration": 3, "velocity": 79}, {"time": 627, "pitch": 62, "duration": 4, "velocity": 75}, {"time": 630, "pitch": 57, "duration": 5, "velocity": 67}, {"time": 633, "pitch": 47, "duration": 17, "velocity": 77}, {"time": 636, "pitch": 54, "duration": 14, "velocity": 70}, {"time": 639, "pitch": 59, "duration": 9, "velocity": 59}, {"time": 642, "pitch": 66, "duration": 10, "velocity": 86}, {"time": 657, "pitch": 42, "duration": 16, "velocity": 81}, {"time": 660, "pitch": 49, "duration": 14, "velocity": 76}, {"time": 663, "pitch": 54, "duration": 10, "velocity": 64}, {"time": 666, "pitch": 61, "duration": 8, "velocity": 81}, {"time": 681, "pitch": 43, "duration": 9, "velocity": 86}, {"time": 684, "pitch": 50, "duration": 8, "velocity": 74}, {"time": 687, "pitch": 55, "duration": 4, "velocity": 67}, {"time": 690, "pitch": 59, "duration": 4, "velocity": 70}, {"time": 693, "pitch": 45, "duration": 9, "velocity": 77}, {"time": 696, "pitch": 52, "duration": 8, "velocity": 81}, {"time": 699, "pitch": 57, "duration": 4, "velocity": 65}, {"time": 702, "pitch": 61, "duration": 3, "velocity": 74}, {"time": 705, "pitch": 50, "duration": 13, "velocity": 90}, {"time": 708, "pitch": 57, "duration": 10, "velocity": 67}, {"time": 711, "pitch": 62, "duration": 6, "velocity": 60}, {"time": 714, "pitch": 66, "duration": 4, "velocity": 85}, {"time": 720, "pitch": 66, "duration": 3, "velocity": 73}, {"time": 723, "pitch": 62, "duration": 3, "velocity": 72}, {"time": 726, "pitch": 57, "duration": 5, "velocity": 70}, {"time": 729, "pitch": 47, "duration": 17, "velocity": 77}, {"time": 732, "pitch": 54, "duration": 14, "velocity": 70}, {"time": 735, "pitch": 59, "duration": 9, "velocity": 59}, {"time": 738, "pitch": 62, "duration": 10, "velocity": 86}, {"time": 753, "pitch": 42, "duration": 16, "velocity": 81}, {"time": 756, "pitch": 49, "duration": 14, "velocity": 76}, {"time": 759, "pitch": 54, "duration": 10, "velocity": 64}, {"time": 762, "pitch": 61, "duration": 8, "velocity": 81}, {"time": 777, "pitch": 43, "duration": 9, "velocity": 85}, {"time": 780, "pitch": 50, "duration": 9, "velocity": 71}, {"time": 783, "pitch": 55, "duration": 5, "velocity": 57}, {"time": 786, "pitch": 59, "duration": 3, "velocity": 64}, {"time": 789, "pitch": 45, "duration": 8, "velocity": 74}, {"time": 792, "pitch": 52, "duration": 6, "velocity": 71}, {"time": 795, "pitch": 57, "duration": 3, "velocity": 60}, {"time": 798, "pitch": 61, "duration": 2, "velocity": 60}, {"time": 801, "pitch": 50, "duration": 13, "velocity": 63}, {"time": 804, "pitch": 57, "duration": 10, "velocity": 73}, {"time": 807, "pitch": 62, "duration": 6, "velocity": 55}, {"time": 810, "pitch": 66, "duration": 5, "velocity": 83}, {"time": 825, "pitch": 47, "duration": 21, "velocity": 79}, {"time": 831, "pitch": 54, "duration": 14, "velocity": 73}, {"time": 834, "pitch": 62, "duration": 9, "velocity": 81}, {"time": 837, "pitch": 66, "duration": 5, "velocity": 100}, {"time": 837, "pitch": 71, "duration": 6, "velocity": 100}, {"time": 840, "pitch": 59, "duration": 4, "velocity": 68}, {"time": 849, "pitch": 45, "duration": 22, "velocity": 67}, {"time": 855, "pitch": 52, "duration": 15, "velocity": 76}, {"time": 858, "pitch": 57, "duration": 5, "velocity": 69}, {"time": 861, "pitch": 61, "duration": 4, "velocity": 90}, {"time": 861, "pitch": 64, "duration": 4, "velocity": 100}, {"time": 861, "pitch": 69, "duration": 3, "velocity": 100}, {"time": 867, "pitch": 57, "duration": 5, "velocity": 65}, {"time": 873, "pitch": 42, "duration": 20, "velocity": 59}, {"time": 879, "pitch": 49, "duration": 14, "velocity": 81}, {"time": 882, "pitch": 54, "duration": 4, "velocity": 60}, {"time": 885, "pitch": 57, "duration": 4, "velocity": 85}, {"time": 885, "pitch": 61, "duration": 3, "velocity": 100}, {"time": 885, "pitch": 66, "duration": 3, "velocity": 100}, {"time": 891, "pitch": 54, "duration": 6, "velocity": 63}, {"time": 894, "pitch": 57, "duration": 2, "velocity": 63}, {"time": 897, "pitch": 47, "duration": 19, "velocity": 76}, {"time": 903, "pitch": 54, "duration": 12, "velocity": 73}, {"time": 906, "pitch": 59, "duration": 7, "velocity": 64}, {"time": 909, "pitch": 62, "duration": 8, "velocity": 86}, {"time": 909, "pitch": 66, "duration": 8, "velocity": 100}, {"time": 909, "pitch": 71, "duration": 7, "velocity": 100}, {"time": 912, "pitch": 59, "duration": 1, "velocity": 63}, {"time": 915, "pitch": 45, "duration": 3, "velocity": 100}, {"time": 921, "pitch": 43, "duration": 19, "velocity": 85}, {"time": 924, "pitch": 50, "duration": 9, "velocity": 76}, {"time": 930, "pitch": 55, "duration": 4, "velocity": 62}, {"time": 933, "pitch": 59, "duration": 14, "velocity": 79}, {"time": 933, "pitch": 62, "duration": 11, "velocity": 100}, {"time": 933, "pitch": 67, "duration": 9, "velocity": 100}, {"time": 936, "pitch": 50, "duration": 3, "velocity": 95}, {"time": 945, "pitch": 40, "duration": 15, "velocity": 86}, {"time": 948, "pitch": 47, "duration": 21, "velocity": 59}, {"time": 954, "pitch": 52, "duration": 4, "velocity": 67}, {"time": 957, "pitch": 55, "duration": 15, "velocity": 86}, {"time": 957, "pitch": 64, "duration": 13, "velocity": 100}, {"time": 957, "pitch": 67, "duration": 12, "velocity": 100}, {"time": 963, "pitch": 52, "duration": 7, "velocity": 83}, {"time": 969, "pitch": 42, "duration": 35, "velocity": 86}, {"time": 972, "pitch": 49, "duration": 32, "velocity": 74}, {"time": 978, "pitch": 54, "duration": 7, "velocity": 67}, {"time": 981, "pitch": 58, "duration": 11, "velocity": 81}, {"time": 981, "pitch": 66, "duration": 10, "velocity": 100}, {"time": 981, "pitch": 70, "duration": 10, "velocity": 100}, {"time": 987, "pitch": 54, "duration": 18, "velocity": 68}, {"time": 992, "pitch": 61, "duration": 3, "velocity": 75}, {"time": 993, "pitch": 61, "duration": 2, "velocity": 79}, {"time": 993, "pitch": 66, "duration": 12, "velocity": 71}, {"time": 1017, "pitch": 47, "duration": 17, "velocity": 75}, {"time": 1023, "pitch": 54, "duration": 10, "velocity": 65}, {"time": 1026, "pitch": 59, "duration": 6, "velocity": 65}, {"time": 1029, "pitch": 62, "duration": 14, "velocity": 93}, {"time": 1029, "pitch": 66, "duration": 13, "velocity": 100}, {"time": 1029, "pitch": 71, "duration": 12, "velocity": 100}, {"time": 1041, "pitch": 42, "duration": 15, "velocity": 71}, {"time": 1047, "pitch": 49, "duration": 16, "velocity": 65}, {"time": 1050, "pitch": 54, "duration": 7, "velocity": 64}, {"time": 1053, "pitch": 66, "duration": 8, "velocity": 100}, {"time": 1053, "pitch": 57, "duration": 10, "velocity": 83}, {"time": 1059, "pitch": 54, "duration": 6, "velocity": 58}, {"time": 1065, "pitch": 43, "duration": 10, "velocity": 70}, {"time": 1068, "pitch": 50, "duration": 8, "velocity": 68}, {"time": 1071, "pitch": 55, "duration": 5, "velocity": 63}, {"time": 1074, "pitch": 59, "duration": 2, "velocity": 71}, {"time": 1077, "pitch": 45, "duration": 8, "velocity": 90}, {"time": 1080, "pitch": 52, "duration": 6, "velocity": 81}, {"time": 1083, "pitch": 57, "duration": 4, "velocity": 67}, {"time": 1086, "pitch": 61, "duration": 3, "velocity": 75}, {"time": 1089, "pitch": 50, "duration": 18, "velocity": 93}, {"time": 1095, "pitch": 57, "duration": 6, "velocity": 72}, {"time": 1098, "pitch": 62, "duration": 7, "velocity": 63}, {"time": 1101, "pitch": 74, "duration": 8, "velocity": 100}, {"time": 1101, "pitch": 66, "duration": 10, "velocity": 86}, {"time": 1101, "pitch": 71, "duration": 7, "velocity": 100}, {"time": 1107, "pitch": 57, "duration": 6, "velocity": 66}, {"time": 1113, "pitch": 47, "duration": 19, "velocity": 83}, {"time": 1119, "pitch": 54, "duration": 12, "velocity": 63}, {"time": 1122, "pitch": 59, "duration": 5, "velocity": 65}, {"time": 1125, "pitch": 62, "duration": 13, "velocity": 93}, {"time": 1125, "pitch": 66, "duration": 12, "velocity": 100}, {"time": 1125, "pitch": 71, "duration": 10, "velocity": 100}, {"time": 1131, "pitch": 59, "duration": 3, "velocity": 72}, {"time": 1137, "pitch": 42, "duration": 17, "velocity": 87}, {"time": 1140, "pitch": 49, "duration": 20, "velocity": 74}, {"time": 1143, "pitch": 54, "duration": 4, "velocity": 67}, {"time": 1146, "pitch": 61, "duration": 7, "velocity": 100}, {"time": 1146, "pitch": 57, "duration": 8, "velocity": 75}, {"time": 1146, "pitch": 66, "duration": 6, "velocity": 100}, {"time": 1152, "pitch": 54, "duration": 8, "velocity": 72}, {"time": 1161, "pitch": 43, "duration": 9, "velocity": 93}, {"time": 1164, "pitch": 50, "duration": 9, "velocity": 87}, {"time": 1167, "pitch": 55, "duration": 5, "velocity": 59}, {"time": 1167, "pitch": 59, "duration": 5, "velocity": 64}, {"time": 1173, "pitch": 45, "duration": 8, "velocity": 75}, {"time": 1176, "pitch": 52, "duration": 6, "velocity": 83}, {"time": 1179, "pitch": 57, "duration": 7, "velocity": 67}, {"time": 1182, "pitch": 61, "duration": 3, "velocity": 74}, {"time": 1185, "pitch": 50, "duration": 17, "velocity": 86}, {"time": 1188, "pitch": 57, "duration": 12, "velocity": 66}, {"time": 1191, "pitch": 62, "duration": 7, "velocity": 48}, {"time": 1194, "pitch": 66, "duration": 10, "velocity": 79}, {"time": 1209, "pitch": 47, "duration": 17, "velocity": 81}, {"time": 1215, "pitch": 54, "duration": 10, "velocity": 71}, {"time": 1218, "pitch": 59, "duration": 7, "velocity": 64}, {"time": 1221, "pitch": 66, "duration": 5, "velocity": 100}, {"time": 1221, "pitch": 71, "duration": 5, "velocity": 100}, {"time": 1221, "pitch": 62, "duration": 8, "velocity": 86}, {"time": 1227, "pitch": 59, "duration": 5, "velocity": 85}, {"time": 1233, "pitch": 42, "duration": 17, "velocity": 81}, {"time": 1239, "pitch": 49, "duration": 18, "velocity": 77}, {"time": 1242, "pitch": 54, "duration": 3, "velocity": 71}, {"time": 1244, "pitch": 66, "duration": 7, "velocity": 100}, {"time": 1245, "pitch": 61, "duration": 6, "velocity": 100}, {"time": 1245, "pitch": 57, "duration": 8, "velocity": 93}, {"time": 1251, "pitch": 54, "duration": 5, "velocity": 76}, {"time": 1257, "pitch": 43, "duration": 9, "velocity": 79}, {"time": 1260, "pitch": 50, "duration": 9, "velocity": 81}, {"time": 1263, "pitch": 55, "duration": 5, "velocity": 63}, {"time": 1266, "pitch": 59, "duration": 3, "velocity": 73}, {"time": 1269, "pitch": 45, "duration": 9, "velocity": 90}, {"time": 1272, "pitch": 52, "duration": 6, "velocity": 86}, {"time": 1275, "pitch": 57, "duration": 4, "velocity": 58}, {"time": 1278, "pitch": 61, "duration": 2, "velocity": 73}, {"time": 1281, "pitch": 50, "duration": 12, "velocity": 93}, {"time": 1284, "pitch": 57, "duration": 8, "velocity": 67}, {"time": 1287, "pitch": 62, "duration": 4, "velocity": 63}, {"time": 1290, "pitch": 66, "duration": 5, "velocity": 85}, {"time": 1296, "pitch": 66, "duration": 3, "velocity": 77}, {"time": 1299, "pitch": 62, "duration": 3, "velocity": 70}, {"time": 1302, "pitch": 57, "duration": 4, "velocity": 77}, {"time": 1305, "pitch": 47, "duration": 17, "velocity": 67}, {"time": 1311, "pitch": 54, "duration": 10, "velocity": 67}, {"time": 1314, "pitch": 59, "duration": 9, "velocity": 59}, {"time": 1317, "pitch": 71, "duration": 7, "velocity": 100}, {"time": 1317, "pitch": 66, "duration": 6, "velocity": 100}, {"time": 1317, "pitch": 62, "duration": 9, "velocity": 81}, {"time": 1329, "pitch": 42, "duration": 17, "velocity": 81}, {"time": 1335, "pitch": 49, "duration": 12, "velocity": 67}, {"time": 1338, "pitch": 54, "duration": 9, "velocity": 75}, {"time": 1341, "pitch": 66, "duration": 6, "velocity": 100}, {"time": 1341, "pitch": 61, "duration": 7, "velocity": 100}, {"time": 1341, "pitch": 57, "duration": 8, "velocity": 87}, {"time": 1353, "pitch": 43, "duration": 25, "velocity": 86}, {"time": 1356, "pitch": 50, "duration": 22, "velocity": 62}, {"time": 1359, "pitch": 55, "duration": 8, "velocity": 62}, {"time": 1362, "pitch": 59, "duration": 15, "velocity": 70}, {"time": 1368, "pitch": 55, "duration": 8, "velocity": 75}, {"time": 1377, "pitch": 42, "duration": 15, "velocity": 77}, {"time": 1380, "pitch": 49, "duration": 14, "velocity": 65}, {"time": 1383, "pitch": 54, "duration": 6, "velocity": 71}, {"time": 1386, "pitch": 58, "duration": 12, "velocity": 104}, {"time": 1392, "pitch": 54, "duration": 9, "velocity": 75}, {"time": 1401, "pitch": 47, "duration": 20, "velocity": 83}, {"time": 1401, "pitch": 62, "duration": 7, "velocity": 93}, {"time": 1407, "pitch": 54, "duration": 1, "velocity": 73}, {"time": 1410, "pitch": 54, "duration": 9, "velocity": 77}, {"time": 1416, "pitch": 62, "duration": 6, "velocity": 98}, {"time": 1425, "pitch": 45, "duration": 21, "velocity": 83}, {"time": 1425, "pitch": 61, "duration": 13, "velocity": 81}, {"time": 1434, "pitch": 52, "duration": 9, "velocity": 90}, {"time": 1440, "pitch": 61, "duration": 6, "velocity": 98}, {"time": 1449, "pitch": 43, "duration": 21, "velocity": 81}, {"time": 1449, "pitch": 59, "duration": 13, "velocity": 83}, {"time": 1458, "pitch": 50, "duration": 10, "velocity": 87}, {"time": 1464, "pitch": 59, "duration": 7, "velocity": 95}, {"time": 1473, "pitch": 42, "duration": 17, "velocity": 71}, {"time": 1473, "pitch": 59, "duration": 8, "velocity": 74}, {"time": 1479, "pitch": 49, "duration": 10, "velocity": 64}, {"time": 1482, "pitch": 58, "duration": 6, "velocity": 95}, {"time": 1488, "pitch": 59, "duration": 6, "velocity": 75}, {"time": 1494, "pitch": 61, "duration": 2, "velocity": 81}, {"time": 1497, "pitch": 47, "duration": 20, "velocity": 83}, {"time": 1497, "pitch": 62, "duration": 7, "velocity": 93}, {"time": 1503, "pitch": 54, "duration": 1, "velocity": 73}, {"time": 1506, "pitch": 54, "duration": 9, "velocity": 77}, {"time": 1512, "pitch": 62, "duration": 6, "velocity": 98}, {"time": 1521, "pitch": 45, "duration": 21, "velocity": 83}, {"time": 1521, "pitch": 61, "duration": 13, "velocity": 81}, {"time": 1530, "pitch": 52, "duration": 9, "velocity": 90}, {"time": 1536, "pitch": 61, "duration": 6, "velocity": 98}, {"time": 1545, "pitch": 43, "duration": 21, "velocity": 81}, {"time": 1545, "pitch": 59, "duration": 13, "velocity": 83}, {"time": 1554, "pitch": 50, "duration": 10, "velocity": 87}, {"time": 1560, "pitch": 59, "duration": 7, "velocity": 95}, {"time": 1569, "pitch": 42, "duration": 17, "velocity": 71}, {"time": 1569, "pitch": 59, "duration": 8, "velocity": 74}, {"time": 1575, "pitch": 49, "duration": 10, "velocity": 64}, {"time": 1578, "pitch": 58, "duration": 6, "velocity": 95}, {"time": 1593, "pitch": 52, "duration": 7, "velocity": 98}, {"time": 1596, "pitch": 59, "duration": 4, "velocity": 58}, {"time": 1596, "pitch": 59, "duration": 4, "velocity": 66}, {"time": 1599, "pitch": 64, "duration": 2, "velocity": 66}, {"time": 1599, "pitch": 64, "duration": 2, "velocity": 70}, {"time": 1602, "pitch": 67, "duration": 6, "velocity": 77}, {"time": 1617, "pitch": 45, "duration": 8, "velocity": 61}, {"time": 1620, "pitch": 52, "duration": 6, "velocity": 74}, {"time": 1623, "pitch": 57, "duration": 3, "velocity": 60}, {"time": 1626, "pitch": 57, "duration": 7, "velocity": 87}, {"time": 1641, "pitch": 38, "duration": 6, "velocity": 91}, {"time": 1644, "pitch": 45, "duration": 3, "velocity": 81}, {"time": 1647, "pitch": 50, "duration": 1, "velocity": 87}, {"time": 1665, "pitch": 43, "duration": 7, "velocity": 61}, {"time": 1668, "pitch": 50, "duration": 4, "velocity": 63}, {"time": 1671, "pitch": 55, "duration": 2, "velocity": 77}, {"time": 1689, "pitch": 40, "duration": 7, "velocity": 85}, {"time": 1692, "pitch": 47, "duration": 5, "velocity": 75}, {"time": 1695, "pitch": 52, "duration": 1, "velocity": 74}, {"time": 1713, "pitch": 42, "duration": 7, "velocity": 76}, {"time": 1716, "pitch": 49, "duration": 4, "velocity": 67}, {"time": 1719, "pitch": 54, "duration": 1, "velocity": 74}, {"time": 1737, "pitch": 47, "duration": 25, "velocity": 64}, {"time": 1740, "pitch": 54, "duration": 22, "velocity": 62}, {"time": 1743, "pitch": 59, "duration": 13, "velocity": 60}, {"time": 1785, "pitch": 47, "duration": 17, "velocity": 77}, {"time": 1788, "pitch": 54, "duration": 14, "velocity": 70}, {"time": 1791, "pitch": 59, "duration": 9, "velocity": 59}, {"time": 1794, "pitch": 62, "duration": 10, "velocity": 86}, {"time": 1809, "pitch": 42, "duration": 16, "velocity": 81}, {"time": 1812, "pitch": 49, "duration": 14, "velocity": 76}, {"time": 1815, "pitch": 54, "duration": 10, "velocity": 64}, {"time": 1818, "pitch": 61, "duration": 8, "velocity": 81}, {"time": 1833, "pitch": 43, "duration": 9, "velocity": 86}, {"time": 1836, "pitch": 50, "duration": 8, "velocity": 74}, {"time": 1839, "pitch": 55, "duration": 4, "velocity": 67}, {"time": 1842, "pitch": 59, "duration": 4, "velocity": 70}, {"time": 1845, "pitch": 45, "duration": 9, "velocity": 77}, {"time": 1848, "pitch": 52, "duration": 8, "velocity": 81}, {"time": 1851, "pitch": 57, "duration": 4, "velocity": 65}, {"time": 1854, "pitch": 61, "duration": 3, "velocity": 74}, {"time": 1857, "pitch": 50, "duration": 19, "velocity": 90}, {"time": 1860, "pitch": 57, "duration": 16, "velocity": 67}, {"time": 1863, "pitch": 62, "duration": 12, "velocity": 60}, {"time": 1866, "pitch": 66, "duration": 9, "velocity": 85}, {"time": 1881, "pitch": 47, "duration": 17, "velocity": 77}, {"time": 1884, "pitch": 54, "duration": 14, "velocity": 70}, {"time": 1887, "pitch": 59, "duration": 9, "velocity": 59}, {"time": 1890, "pitch": 62, "duration": 10, "velocity": 86}, {"time": 1905, "pitch": 42, "duration": 16, "velocity": 81}, {"time": 1908, "pitch": 49, "duration": 14, "velocity": 76}, {"time": 1911, "pitch": 54, "duration": 10, "velocity": 64}, {"time": 1914, "pitch": 61, "duration": 8, "velocity": 81}, {"time": 1929, "pitch": 43, "duration": 9, "velocity": 86}, {"time": 1932, "pitch": 50, "duration": 8, "velocity": 74}, {"time": 1935, "pitch": 55, "duration": 4, "velocity": 67}, {"time": 1938, "pitch": 59, "duration": 4, "velocity": 70}, {"time": 1941, "pitch": 45, "duration": 9, "velocity": 77}, {"time": 1944, "pitch": 52, "duration": 8, "velocity": 81}, {"time": 1947, "pitch": 57, "duration": 4, "velocity": 65}, {"time": 1950, "pitch": 61, "duration": 3, "velocity": 74}, {"time": 1953, "pitch": 50, "duration": 19, "velocity": 90}, {"time": 1956, "pitch": 57, "duration": 16, "velocity": 67}, {"time": 1959, "pitch": 62, "duration": 12, "velocity": 60}, {"time": 1962, "pitch": 66, "duration": 9, "velocity": 85}, {"time": 1977, "pitch": 47, "duration": 17, "velocity": 77}, {"time": 1980, "pitch": 54, "duration": 14, "velocity": 70}, {"time": 1983, "pitch": 59, "duration": 9, "velocity": 59}, {"time": 1986, "pitch": 66, "duration": 10, "velocity": 86}, {"time": 2001, "pitch": 42, "duration": 16, "velocity": 81}, {"time": 2004, "pitch": 49, "duration": 14, "velocity": 76}, {"time": 2007, "pitch": 54, "duration": 10, "velocity": 64}, {"time": 2010, "pitch": 61, "duration": 8, "velocity": 81}, {"time": 2025, "pitch": 43, "duration": 9, "velocity": 86}, {"time": 2028, "pitch": 50, "duration": 8, "velocity": 74}, {"time": 2031, "pitch": 55, "duration": 4, "velocity": 67}, {"time": 2034, "pitch": 59, "duration": 4, "velocity": 70}, {"time": 2037, "pitch": 45, "duration": 9, "velocity": 77}, {"time": 2040, "pitch": 52, "duration": 8, "velocity": 81}, {"time": 2043, "pitch": 57, "duration": 4, "velocity": 65}, {"time": 2046, "pitch": 61, "duration": 3, "velocity": 74}, {"time": 2049, "pitch": 50, "duration": 19, "velocity": 90}, {"time": 2052, "pitch": 57, "duration": 14, "velocity": 67}, {"time": 2055, "pitch": 62, "duration": 9, "velocity": 60}, {"time": 2058, "pitch": 66, "duration": 6, "velocity": 85}, {"time": 2064, "pitch": 66, "duration": 5, "velocity": 74}, {"time": 2067, "pitch": 62, "duration": 4, "velocity": 70}, {"time": 2070, "pitch": 57, "duration": 4, "velocity": 67}, {"time": 2073, "pitch": 47, "duration": 17, "velocity": 77}, {"time": 2076, "pitch": 54, "duration": 14, "velocity": 70}, {"time": 2079, "pitch": 59, "duration": 9, "velocity": 59}, {"time": 2082, "pitch": 62, "duration": 10, "velocity": 86}, {"time": 2097, "pitch": 42, "duration": 16, "velocity": 81}, {"time": 2100, "pitch": 49, "duration": 14, "velocity": 76}, {"time": 2103, "pitch": 54, "duration": 10, "velocity": 64}, {"time": 2106, "pitch": 61, "duration": 8, "velocity": 81}, {"time": 2121, "pitch": 43, "duration": 9, "velocity": 85}, {"time": 2124, "pitch": 50, "duration": 9, "velocity": 71}, {"time": 2127, "pitch": 55, "duration": 5, "velocity": 57}, {"time": 2130, "pitch": 59, "duration": 3, "velocity": 64}, {"time": 2133, "pitch": 45, "duration": 8, "velocity": 74}, {"time": 2136, "pitch": 52, "duration": 6, "velocity": 71}, {"time": 2139, "pitch": 57, "duration": 3, "velocity": 60}, {"time": 2142, "pitch": 61, "duration": 2, "velocity": 60}, {"time": 2145, "pitch": 50, "duration": 13, "velocity": 63}, {"time": 2148, "pitch": 57, "duration": 10, "velocity": 73}, {"time": 2151, "pitch": 62, "duration": 6, "velocity": 55}, {"time": 2154, "pitch": 66, "duration": 5, "velocity": 83}, {"time": 2169, "pitch": 43, "duration": 11, "velocity": 81}, {"time": 2169, "pitch": 59, "duration": 8, "velocity": 67}, {"time": 2169, "pitch": 62, "duration": 8, "velocity": 74}, {"time": 2172, "pitch": 50, "duration": 8, "velocity": 75}, {"time": 2175, "pitch": 55, "duration": 4, "velocity": 60}, {"time": 2178, "pitch": 59, "duration": 1, "velocity": 81}, {"time": 2178, "pitch": 62, "duration": 1, "velocity": 93}, {"time": 2184, "pitch": 43, "duration": 3, "velocity": 60}, {"time": 2184, "pitch": 59, "duration": 3, "velocity": 61}, {"time": 2184, "pitch": 62, "duration": 3, "velocity": 60}, {"time": 2190, "pitch": 45, "duration": 20, "velocity": 72}, {"time": 2190, "pitch": 61, "duration": 14, "velocity": 85}, {"time": 2190, "pitch": 64, "duration": 14, "velocity": 77}, {"time": 2196, "pitch": 52, "duration": 13, "velocity": 60}, {"time": 2199, "pitch": 57, "duration": 7, "velocity": 53}, {"time": 2205, "pitch": 61, "duration": 5, "velocity": 81}, {"time": 2205, "pitch": 64, "duration": 4, "velocity": 86}, {"time": 2217, "pitch": 42, "duration": 11, "velocity": 74}, {"time": 2217, "pitch": 57, "duration": 7, "velocity": 79}, {"time": 2217, "pitch": 61, "duration": 7, "velocity": 85}, {"time": 2223, "pitch": 49, "duration": 6, "velocity": 75}, {"time": 2226, "pitch": 57, "duration": 2, "velocity": 77}, {"time": 2226, "pitch": 61, "duration": 1, "velocity": 86}, {"time": 2232, "pitch": 42, "duration": 3, "velocity": 77}, {"time": 2232, "pitch": 57, "duration": 3, "velocity": 86}, {"time": 2232, "pitch": 61, "duration": 3, "velocity": 90}, {"time": 2238, "pitch": 47, "duration": 3, "velocity": 74}, {"time": 2238, "pitch": 62, "duration": 3, "velocity": 79}, {"time": 2238, "pitch": 66, "duration": 3, "velocity": 79}, {"time": 2265, "pitch": 43, "duration": 19, "velocity": 85}, {"time": 2268, "pitch": 50, "duration": 9, "velocity": 76}, {"time": 2271, "pitch": 55, "duration": 4, "velocity": 62}, {"time": 2274, "pitch": 59, "duration": 14, "velocity": 79}, {"time": 2280, "pitch": 50, "duration": 3, "velocity": 95}, {"time": 2289, "pitch": 40, "duration": 15, "velocity": 86}, {"time": 2292, "pitch": 47, "duration": 21, "velocity": 59}, {"time": 2295, "pitch": 52, "duration": 4, "velocity": 67}, {"time": 2298, "pitch": 55, "duration": 15, "velocity": 86}, {"time": 2304, "pitch": 52, "duration": 7, "velocity": 83}, {"time": 2313, "pitch": 42, "duration": 35, "velocity": 86}, {"time": 2316, "pitch": 49, "duration": 32, "velocity": 74}, {"time": 2319, "pitch": 54, "duration": 7, "velocity": 67}, {"time": 2322, "pitch": 58, "duration": 11, "velocity": 81}, {"time": 2328, "pitch": 54, "duration": 18, "velocity": 68}, {"time": 2336, "pitch": 61, "duration": 3, "velocity": 75}, {"time": 2337, "pitch": 61, "duration": 2, "velocity": 79}, {"time": 2337, "pitch": 66, "duration": 12, "velocity": 71}, {"time": 2361, "pitch": 47, "duration": 17, "velocity": 75}, {"time": 2367, "pitch": 54, "duration": 10, "velocity": 65}, {"time": 2370, "pitch": 59, "duration": 6, "velocity": 65}, {"time": 2373, "pitch": 62, "duration": 14, "velocity": 93}, {"time": 2373, "pitch": 66, "duration": 13, "velocity": 100}, {"time": 2373, "pitch": 71, "duration": 12, "velocity": 100}, {"time": 2385, "pitch": 42, "duration": 15, "velocity": 71}, {"time": 2391, "pitch": 49, "duration": 16, "velocity": 65}, {"time": 2394, "pitch": 54, "duration": 7, "velocity": 64}, {"time": 2397, "pitch": 66, "duration": 8, "velocity": 100}, {"time": 2397, "pitch": 57, "duration": 10, "velocity": 83}, {"time": 2403, "pitch": 54, "duration": 6, "velocity": 58}, {"time": 2409, "pitch": 43, "duration": 10, "velocity": 70}, {"time": 2412, "pitch": 50, "duration": 8, "velocity": 68}, {"time": 2415, "pitch": 55, "duration": 5, "velocity": 63}, {"time": 2418, "pitch": 59, "duration": 2, "velocity": 71}, {"time": 2421, "pitch": 45, "duration": 8, "velocity": 90}, {"time": 2424, "pitch": 52, "duration": 6, "velocity": 81}, {"time": 2427, "pitch": 57, "duration": 4, "velocity": 67}, {"time": 2430, "pitch": 61, "duration": 3, "velocity": 75}, {"time": 2433, "pitch": 50, "duration": 18, "velocity": 93}, {"time": 2439, "pitch": 57, "duration": 6, "velocity": 72}, {"time": 2442, "pitch": 62, "duration": 7, "velocity": 63}, {"time": 2445, "pitch": 74, "duration": 8, "velocity": 100}, {"time": 2445, "pitch": 66, "duration": 10, "velocity": 86}, {"time": 2445, "pitch": 71, "duration": 7, "velocity": 100}, {"time": 2451, "pitch": 57, "duration": 6, "velocity": 66}, {"time": 2457, "pitch": 47, "duration": 19, "velocity": 83}, {"time": 2463, "pitch": 54, "duration": 12, "velocity": 63}, {"time": 2466, "pitch": 59, "duration": 5, "velocity": 65}, {"time": 2469, "pitch": 62, "duration": 13, "velocity": 93}, {"time": 2469, "pitch": 66, "duration": 12, "velocity": 100}, {"time": 2469, "pitch": 71, "duration": 10, "velocity": 100}, {"time": 2475, "pitch": 59, "duration": 3, "velocity": 72}, {"time": 2481, "pitch": 42, "duration": 17, "velocity": 87}, {"time": 2484, "pitch": 49, "duration": 20, "velocity": 74}, {"time": 2487, "pitch": 54, "duration": 4, "velocity": 67}, {"time": 2490, "pitch": 61, "duration": 7, "velocity": 100}, {"time": 2490, "pitch": 57, "duration": 8, "velocity": 75}, {"time": 2490, "pitch": 66, "duration": 6, "velocity": 100}, {"time": 2496, "pitch": 54, "duration": 8, "velocity": 72}, {"time": 2505, "pitch": 43, "duration": 9, "velocity": 93}, {"time": 2508, "pitch": 50, "duration": 9, "velocity": 87}, {"time": 2511, "pitch": 55, "duration": 5, "velocity": 59}, {"time": 2511, "pitch": 59, "duration": 5, "velocity": 64}, {"time": 2517, "pitch": 45, "duration": 8, "velocity": 75}, {"time": 2520, "pitch": 52, "duration": 6, "velocity": 83}, {"time": 2523, "pitch": 57, "duration": 7, "velocity": 67}, {"time": 2526, "pitch": 61, "duration": 3, "velocity": 74}, {"time": 2529, "pitch": 50, "duration": 17, "velocity": 86}, {"time": 2532, "pitch": 57, "duration": 12, "velocity": 66}, {"time": 2535, "pitch": 62, "duration": 7, "velocity": 48}, {"time": 2538, "pitch": 66, "duration": 10, "velocity": 79}, {"time": 2553, "pitch": 47, "duration": 17, "velocity": 81}, {"time": 2559, "pitch": 54, "duration": 10, "velocity": 71}, {"time": 2562, "pitch": 59, "duration": 7, "velocity": 64}, {"time": 2565, "pitch": 66, "duration": 5, "velocity": 100}, {"time": 2565, "pitch": 71, "duration": 5, "velocity": 100}, {"time": 2565, "pitch": 62, "duration": 8, "velocity": 86}, {"time": 2571, "pitch": 59, "duration": 5, "velocity": 85}, {"time": 2577, "pitch": 42, "duration": 17, "velocity": 81}, {"time": 2583, "pitch": 49, "duration": 18, "velocity": 77}, {"time": 2586, "pitch": 54, "duration": 3, "velocity": 71}, {"time": 2588, "pitch": 66, "duration": 7, "velocity": 100}, {"time": 2589, "pitch": 61, "duration": 6, "velocity": 100}, {"time": 2589, "pitch": 57, "duration": 8, "velocity": 93}, {"time": 2595, "pitch": 54, "duration": 5, "velocity": 76}, {"time": 2601, "pitch": 43, "duration": 9, "velocity": 79}, {"time": 2604, "pitch": 50, "duration": 9, "velocity": 81}, {"time": 2607, "pitch": 55, "duration": 5, "velocity": 63}, {"time": 2610, "pitch": 59, "duration": 3, "velocity": 73}, {"time": 2613, "pitch": 45, "duration": 9, "velocity": 90}, {"time": 2616, "pitch": 52, "duration": 6, "velocity": 86}, {"time": 2619, "pitch": 57, "duration": 4, "velocity": 58}, {"time": 2622, "pitch": 61, "duration": 2, "velocity": 73}, {"time": 2625, "pitch": 50, "duration": 12, "velocity": 93}, {"time": 2628, "pitch": 57, "duration": 8, "velocity": 67}, {"time": 2631, "pitch": 62, "duration": 4, "velocity": 63}, {"time": 2634, "pitch": 66, "duration": 5, "velocity": 85}, {"time": 2640, "pitch": 66, "duration": 3, "velocity": 77}, {"time": 2643, "pitch": 62, "duration": 3, "velocity": 70}, {"time": 2646, "pitch": 57, "duration": 4, "velocity": 77}, {"time": 2649, "pitch": 47, "duration": 17, "velocity": 67}, {"time": 2655, "pitch": 54, "duration": 10, "velocity": 67}, {"time": 2658, "pitch": 59, "duration": 9, "velocity": 59}, {"time": 2661, "pitch": 71, "duration": 7, "velocity": 100}, {"time": 2661, "pitch": 66, "duration": 6, "velocity": 100}, {"time": 2661, "pitch": 62, "duration": 9, "velocity": 81}, {"time": 2673, "pitch": 42, "duration": 17, "velocity": 81}, {"time": 2679, "pitch": 49, "duration": 12, "velocity": 67}, {"time": 2682, "pitch": 54, "duration": 9, "velocity": 75}, {"time": 2685, "pitch": 66, "duration": 6, "velocity": 100}, {"time": 2685, "pitch": 61, "duration": 7, "velocity": 100}, {"time": 2685, "pitch": 57, "duration": 8, "velocity": 87}, {"time": 2697, "pitch": 43, "duration": 25, "velocity": 86}, {"time": 2700, "pitch": 50, "duration": 22, "velocity": 62}, {"time": 2703, "pitch": 55, "duration": 8, "velocity": 62}, {"time": 2706, "pitch": 59, "duration": 15, "velocity": 70}, {"time": 2745, "pitch": 47, "duration": 17, "velocity": 75}, {"time": 2751, "pitch": 54, "duration": 10, "velocity": 65}, {"time": 2754, "pitch": 59, "duration": 6, "velocity": 65}, {"time": 2757, "pitch": 62, "duration": 14, "velocity": 93}, {"time": 2757, "pitch": 66, "duration": 13, "velocity": 100}, {"time": 2757, "pitch": 71, "duration": 12, "velocity": 100}, {"time": 2769, "pitch": 42, "duration": 15, "velocity": 71}, {"time": 2775, "pitch": 49, "duration": 16, "velocity": 65}, {"time": 2778, "pitch": 54, "duration": 7, "velocity": 64}, {"time": 2781, "pitch": 66, "duration": 8, "velocity": 100}, {"time": 2781, "pitch": 57, "duration": 10, "velocity": 83}, {"time": 2787, "pitch": 54, "duration": 6, "velocity": 58}, {"time": 2793, "pitch": 43, "duration": 10, "velocity": 70}, {"time": 2796, "pitch": 50, "duration": 8, "velocity": 68}, {"time": 2799, "pitch": 55, "duration": 5, "velocity": 63}, {"time": 2802, "pitch": 59, "duration": 2, "velocity": 71}, {"time": 2805, "pitch": 45, "duration": 8, "velocity": 90}, {"time": 2808, "pitch": 52, "duration": 6, "velocity": 81}, {"time": 2811, "pitch": 57, "duration": 4, "velocity": 67}, {"time": 2814, "pitch": 61, "duration": 3, "velocity": 75}, {"time": 2817, "pitch": 50, "duration": 18, "velocity": 93}, {"time": 2823, "pitch": 57, "duration": 6, "velocity": 72}, {"time": 2826, "pitch": 62, "duration": 7, "velocity": 63}, {"time": 2829, "pitch": 74, "duration": 8, "velocity": 100}, {"time": 2829, "pitch": 66, "duration": 10, "velocity": 86}, {"time": 2829, "pitch": 71, "duration": 7, "velocity": 100}, {"time": 2835, "pitch": 57, "duration": 6, "velocity": 66}, {"time": 2841, "pitch": 47, "duration": 19, "velocity": 83}, {"time": 2847, "pitch": 54, "duration": 12, "velocity": 63}, {"time": 2850, "pitch": 59, "duration": 5, "velocity": 65}, {"time": 2853, "pitch": 62, "duration": 13, "velocity": 93}, {"time": 2853, "pitch": 66, "duration": 12, "velocity": 100}, {"time": 2853, "pitch": 71, "duration": 10, "velocity": 100}, {"time": 2859, "pitch": 59, "duration": 3, "velocity": 72}, {"time": 2865, "pitch": 42, "duration": 17, "velocity": 87}, {"time": 2868, "pitch": 49, "duration": 20, "velocity": 74}, {"time": 2871, "pitch": 54, "duration": 4, "velocity": 67}, {"time": 2874, "pitch": 61, "duration": 7, "velocity": 100}, {"time": 2874, "pitch": 57, "duration": 8, "velocity": 75}, {"time": 2874, "pitch": 66, "duration": 6, "velocity": 100}, {"time": 2880, "pitch": 54, "duration": 8, "velocity": 72}, {"time": 2889, "pitch": 43, "duration": 9, "velocity": 93}, {"time": 2892, "pitch": 50, "duration": 9, "velocity": 87}, {"time": 2895, "pitch": 55, "duration": 5, "velocity": 59}, {"time": 2895, "pitch": 59, "duration": 5, "velocity": 64}, {"time": 2901, "pitch": 45, "duration": 8, "velocity": 75}, {"time": 2904, "pitch": 52, "duration": 6, "velocity": 83}, {"time": 2907, "pitch": 57, "duration": 7, "velocity": 67}, {"time": 2910, "pitch": 61, "duration": 3, "velocity": 74}, {"time": 2913, "pitch": 50, "duration": 17, "velocity": 86}, {"time": 2916, "pitch": 57, "duration": 12, "velocity": 66}, {"time": 2919, "pitch": 62, "duration": 7, "velocity": 48}, {"time": 2922, "pitch": 66, "duration": 10, "velocity": 79}, {"time": 2937, "pitch": 47, "duration": 17, "velocity": 81}, {"time": 2943, "pitch": 54, "duration": 10, "velocity": 71}, {"time": 2946, "pitch": 59, "duration": 7, "velocity": 64}, {"time": 2949, "pitch": 66, "duration": 5, "velocity": 100}, {"time": 2949, "pitch": 71, "duration": 5, "velocity": 100}, {"time": 2949, "pitch": 62, "duration": 8, "velocity": 86}, {"time": 2955, "pitch": 59, "duration": 5, "velocity": 85}, {"time": 2961, "pitch": 42, "duration": 17, "velocity": 81}, {"time": 2967, "pitch": 49, "duration": 18, "velocity": 77}, {"time": 2970, "pitch": 54, "duration": 3, "velocity": 71}, {"time": 2972, "pitch": 66, "duration": 7, "velocity": 100}, {"time": 2973, "pitch": 61, "duration": 6, "velocity": 100}, {"time": 2973, "pitch": 57, "duration": 8, "velocity": 93}, {"time": 2979, "pitch": 54, "duration": 5, "velocity": 76}, {"time": 2985, "pitch": 43, "duration": 9, "velocity": 79}, {"time": 2988, "pitch": 50, "duration": 9, "velocity": 81}, {"time": 2991, "pitch": 55, "duration": 5, "velocity": 63}, {"time": 2994, "pitch": 59, "duration": 3, "velocity": 73}, {"time": 2997, "pitch": 45, "duration": 9, "velocity": 90}, {"time": 3000, "pitch": 52, "duration": 6, "velocity": 86}, {"time": 3003, "pitch": 57, "duration": 4, "velocity": 58}, {"time": 3006, "pitch": 61, "duration": 2, "velocity": 73}, {"time": 3009, "pitch": 50, "duration": 12, "velocity": 93}, {"time": 3012, "pitch": 57, "duration": 8, "velocity": 67}, {"time": 3015, "pitch": 62, "duration": 4, "velocity": 63}, {"time": 3018, "pitch": 66, "duration": 5, "velocity": 85}, {"time": 3024, "pitch": 66, "duration": 3, "velocity": 77}, {"time": 3027, "pitch": 62, "duration": 3, "velocity": 70}, {"time": 3030, "pitch": 57, "duration": 4, "velocity": 77}, {"time": 3033, "pitch": 47, "duration": 17, "velocity": 67}, {"time": 3039, "pitch": 54, "duration": 10, "velocity": 67}, {"time": 3042, "pitch": 59, "duration": 9, "velocity": 59}, {"time": 3045, "pitch": 71, "duration": 7, "velocity": 100}, {"time": 3045, "pitch": 66, "duration": 6, "velocity": 100}, {"time": 3045, "pitch": 62, "duration": 9, "velocity": 81}, {"time": 3057, "pitch": 42, "duration": 17, "velocity": 81}, {"time": 3063, "pitch": 49, "duration": 12, "velocity": 67}, {"time": 3066, "pitch": 54, "duration": 9, "velocity": 75}, {"time": 3069, "pitch": 66, "duration": 6, "velocity": 100}, {"time": 3069, "pitch": 61, "duration": 7, "velocity": 100}, {"time": 3069, "pitch": 57, "duration": 8, "velocity": 87}, {"time": 3081, "pitch": 43, "duration": 25, "velocity": 86}, {"time": 3084, "pitch": 50, "duration": 22, "velocity": 62}, {"time": 3087, "pitch": 55, "duration": 8, "velocity": 62}, {"time": 3090, "pitch": 59, "duration": 15, "velocity": 70}, {"time": 3096, "pitch": 55, "duration": 9, "velocity": 74}, {"time": 3102, "pitch": 62, "duration": 4, "velocity": 61}, {"time": 3105, "pitch": 42, "duration": 21, "velocity": 67}, {"time": 3108, "pitch": 49, "duration": 19, "velocity": 70}, {"time": 3111, "pitch": 54, "duration": 6, "velocity": 70}, {"time": 3114, "pitch": 58, "duration": 4, "velocity": 81}, {"time": 3120, "pitch": 54, "duration": 6, "velocity": 86}, {"time": 3120, "pitch": 59, "duration": 5, "velocity": 72}, {"time": 3120, "pitch": 61, "duration": 1, "velocity": 76}, {"time": 3162, "pitch": 62, "duration": 6, "velocity": 68}, {"time": 3167, "pitch": 64, "duration": 5, "velocity": 74}, {"time": 3171, "pitch": 66, "duration": 11, "velocity": 100}, {"time": 3177, "pitch": 67, "duration": 5, "velocity": 70}, {"time": 3182, "pitch": 64, "duration": 4, "velocity": 62}, {"time": 3186, "pitch": 66, "duration": 8, "velocity": 77}, {"time": 3192, "pitch": 62, "duration": 7, "velocity": 60}, {"time": 3198, "pitch": 64, "duration": 6, "velocity": 67}, {"time": 3205, "pitch": 67, "duration": 15, "velocity": 76}, {"time": 3214, "pitch": 66, "duration": 8, "velocity": 70}, {"time": 3233, "pitch": 58, "duration": 19, "velocity": 60}, {"time": 3243, "pitch": 59, "duration": 5, "velocity": 63}, {"time": 3248, "pitch": 58, "duration": 4, "velocity": 63}, {"time": 3251, "pitch": 59, "duration": 5, "velocity": 86}, {"time": 3255, "pitch": 58, "duration": 4, "velocity": 60}, {"time": 3258, "pitch": 59, "duration": 4, "velocity": 79}, {"time": 3261, "pitch": 58, "duration": 3, "velocity": 71}, {"time": 3264, "pitch": 59, "duration": 3, "velocity": 71}, {"time": 3266, "pitch": 58, "duration": 3, "velocity": 67}, {"time": 3269, "pitch": 59, "duration": 3, "velocity": 71}, {"time": 3271, "pitch": 58, "duration": 3, "velocity": 70}, {"time": 3274, "pitch": 59, "duration": 4, "velocity": 67}, {"time": 3277, "pitch": 58, "duration": 4, "velocity": 75}, {"time": 3280, "pitch": 59, "duration": 6, "velocity": 73}, {"time": 3285, "pitch": 58, "duration": 31, "velocity": 71}, {"time": 3340, "pitch": 62, "duration": 78, "velocity": 57}, {"time": 3341, "pitch": 66, "duration": 61, "velocity": 59}, {"time": 3341, "pitch": 47, "duration": 81, "velocity": 60}, {"time": 3341, "pitch": 59, "duration": 77, "velocity": 12}, {"time": 3375, "pitch": 47, "duration": 47, "velocity": 52}, {"time": 3379, "pitch": 54, "duration": 86, "velocity": 60}, {"time": 3384, "pitch": 59, "duration": 34, "velocity": 60}, {"time": 3388, "pitch": 66, "duration": 14, "velocity": 52}, {"time": 3394, "pitch": 71, "duration": 71, "velocity": 60}], "annotations": [{"time": 9, "annotation": {"number": 64, "value": 23}, "group": "control_change"}, {"time": 369, "annotation": {"number": 64, "value": 79}, "group": "control_change"}, {"time": 393, "annotation": {"number": 64, "value": 80}, "group": "control_change"}, {"time": 441, "annotation": {"number": 64, "value": 22}, "group": "control_change"}, {"time": 453, "annotation": {"number": 64, "value": 26}, "group": "control_change"}, {"time": 1593, "annotation": {"number": 64, "value": 88}, "group": "control_change"}, {"time": 1605, "annotation": {"number": 64, "value": 91}, "group": "control_change"}, {"time": 1617, "annotation": {"number": 64, "value": 94}, "group": "control_change"}, {"time": 1629, "annotation": {"number": 64, "value": 95}, "group": "control_change"}, {"time": 1641, "annotation": {"number": 64, "value": 97}, "group": "control_change"}, {"time": 1653, "annotation": {"number": 64, "value": 101}, "group": "control_change"}, {"time": 1665, "annotation": {"number": 64, "value": 106}, "group": "control_change"}, {"time": 1677, "annotation": {"number": 64, "value": 110}, "group": "control_change"}, {"time": 1689, "annotation": {"number": 64, "value": 111}, "group": "control_change"}, {"time": 1701, "annotation": {"number": 64, "value": 112}, "group": "control_change"}, {"time": 1725, "annotation": {"number": 64, "value": 111}, "group": "control_change"}, {"time": 1737, "annotation": {"number": 64, "value": 89}, "group": "control_change"}, {"time": 1749, "annotation": {"number": 64, "value": 85}, "group": "control_change"}, {"time": 1761, "annotation": {"number": 64, "value": 80}, "group": "control_change"}, {"time": 1773, "annotation": {"number": 64, "value": 78}, "group": "control_change"}, {"time": 1785, "annotation": {"number": 64, "value": 32}, "group": "control_change"}, {"time": 1797, "annotation": {"number": 64, "value": 33}, "group": "control_change"}, {"time": 3153, "annotation": {"number": 64, "value": 100}, "group": "control_change"}, {"time": 3165, "annotation": {"number": 64, "value": 102}, "group": "control_change"}, {"time": 3177, "annotation": {"number": 64, "value": 104}, "group": "control_change"}, {"time": 3189, "annotation": {"number": 64, "value": 91}, "group": "control_change"}]}]}