{"metadata": {"schema_version": "0.2", "title": "None", "source_filename": "053.mid", "source_format": "midi"}, "resolution": 12, "tempos": [{"time": 0, "qpm": 72.29995806602432}, {"time": 1212, "qpm": 72.00011520018433}, {"time": 1572, "qpm": 72.40002461600837}, {"time": 2172, "qpm": 72.00011520018433}, {"time": 2520, "qpm": 72.29995806602432}], "time_signatures": [{"time": 0, "numerator": 1, "denominator": 4}], "tracks": [{"program": 0, "is_drum": false, "name": "MELODY", "notes": [{"time": 481, "pitch": 77, "duration": 2, "velocity": 107}, {"time": 484, "pitch": 77, "duration": 2, "velocity": 79}, {"time": 487, "pitch": 77, "duration": 3, "velocity": 93}, {"time": 490, "pitch": 80, "duration": 2, "velocity": 127}, {"time": 493, "pitch": 80, "duration": 4, "velocity": 122}, {"time": 499, "pitch": 75, "duration": 6, "velocity": 117}, {"time": 505, "pitch": 77, "duration": 7, "velocity": 107}, {"time": 523, "pitch": 80, "duration": 4, "velocity": 127}, {"time": 526, "pitch": 82, "duration": 3, "velocity": 100}, {"time": 529, "pitch": 84, "duration": 5, "velocity": 112}, {"time": 535, "pitch": 84, "duration": 2, "velocity": 127}, {"time": 541, "pitch": 82, "duration": 2, "velocity": 122}, {"time": 544, "pitch": 87, "duration": 9, "velocity": 127}, {"time": 553, "pitch": 84, "duration": 9, "velocity": 117}, {"time": 577, "pitch": 82, "duration": 4, "velocity": 127}, {"time": 583, "pitch": 82, "duration": 3, "velocity": 122}, {"time": 586, "pitch": 84, "duration": 2, "velocity": 95}, {"time": 589, "pitch": 84, "duration": 4, "velocity": 99}, {"time": 595, "pitch": 80, "duration": 5, "velocity": 122}, {"time": 601, "pitch": 82, "duration": 9, "velocity": 127}, {"time": 619, "pitch": 82, "duration": 3, "velocity": 127}, {"time": 622, "pitch": 84, "duration": 3, "velocity": 95}, {"time": 625, "pitch": 77, "duration": 5, "velocity": 102}, {"time": 631, "pitch": 77, "duration": 4, "velocity": 107}, {"time": 637, "pitch": 75, "duration": 3, "velocity": 127}, {"time": 643, "pitch": 75, "duration": 6, "velocity": 117}, {"time": 649, "pitch": 72, "duration": 11, "velocity": 96}, {"time": 673, "pitch": 77, "duration": 4, "velocity": 122}, {"time": 679, "pitch": 77, "duration": 2, "velocity": 100}, {"time": 682, "pitch": 80, "duration": 2, "velocity": 102}, {"time": 685, "pitch": 80, "duration": 6, "velocity": 107}, {"time": 691, "pitch": 75, "duration": 6, "velocity": 107}, {"time": 697, "pitch": 77, "duration": 11, "velocity": 107}, {"time": 715, "pitch": 80, "duration": 4, "velocity": 127}, {"time": 718, "pitch": 82, "duration": 3, "velocity": 100}, {"time": 721, "pitch": 84, "duration": 4, "velocity": 107}, {"time": 727, "pitch": 87, "duration": 5, "velocity": 127}, {"time": 733, "pitch": 89, "duration": 4, "velocity": 127}, {"time": 742, "pitch": 82, "duration": 10, "velocity": 117}, {"time": 751, "pitch": 84, "duration": 12, "velocity": 122}, {"time": 763, "pitch": 82, "duration": 3, "velocity": 122}, {"time": 766, "pitch": 80, "duration": 4, "velocity": 97}, {"time": 769, "pitch": 82, "duration": 5, "velocity": 127}, {"time": 775, "pitch": 84, "duration": 4, "velocity": 117}, {"time": 781, "pitch": 84, "duration": 4, "velocity": 112}, {"time": 787, "pitch": 80, "duration": 2, "velocity": 112}, {"time": 790, "pitch": 82, "duration": 11, "velocity": 127}, {"time": 802, "pitch": 75, "duration": 3, "velocity": 107}, {"time": 805, "pitch": 72, "duration": 4, "velocity": 97}, {"time": 811, "pitch": 82, "duration": 12, "velocity": 127}, {"time": 823, "pitch": 77, "duration": 17, "velocity": 107}, {"time": 853, "pitch": 80, "duration": 4, "velocity": 127}, {"time": 859, "pitch": 82, "duration": 4, "velocity": 127}, {"time": 865, "pitch": 84, "duration": 2, "velocity": 127}, {"time": 868, "pitch": 84, "duration": 3, "velocity": 117}, {"time": 874, "pitch": 84, "duration": 2, "velocity": 127}, {"time": 877, "pitch": 84, "duration": 3, "velocity": 127}, {"time": 883, "pitch": 82, "duration": 4, "velocity": 127}, {"time": 889, "pitch": 84, "duration": 8, "velocity": 127}, {"time": 907, "pitch": 84, "duration": 3, "velocity": 107}, {"time": 910, "pitch": 87, "duration": 3, "velocity": 100}, {"time": 913, "pitch": 89, "duration": 4, "velocity": 112}, {"time": 919, "pitch": 89, "duration": 2, "velocity": 127}, {"time": 922, "pitch": 89, "duration": 2, "velocity": 95}, {"time": 925, "pitch": 92, "duration": 7, "velocity": 127}, {"time": 934, "pitch": 87, "duration": 3, "velocity": 122}, {"time": 937, "pitch": 89, "duration": 9, "velocity": 102}, {"time": 955, "pitch": 87, "duration": 3, "velocity": 127}, {"time": 958, "pitch": 89, "duration": 3, "velocity": 97}, {"time": 961, "pitch": 92, "duration": 7, "velocity": 127}, {"time": 970, "pitch": 92, "duration": 1, "velocity": 112}, {"time": 973, "pitch": 92, "duration": 3, "velocity": 127}, {"time": 979, "pitch": 89, "duration": 6, "velocity": 112}, {"time": 985, "pitch": 87, "duration": 8, "velocity": 122}, {"time": 994, "pitch": 87, "duration": 3, "velocity": 100}, {"time": 997, "pitch": 89, "duration": 4, "velocity": 112}, {"time": 1006, "pitch": 82, "duration": 6, "velocity": 122}, {"time": 1015, "pitch": 84, "duration": 24, "velocity": 122}, {"time": 1045, "pitch": 87, "duration": 5, "velocity": 127}, {"time": 1051, "pitch": 84, "duration": 4, "velocity": 122}, {"time": 1057, "pitch": 82, "duration": 1, "velocity": 127}, {"time": 1060, "pitch": 82, "duration": 1, "velocity": 127}, {"time": 1063, "pitch": 82, "duration": 2, "velocity": 112}, {"time": 1066, "pitch": 82, "duration": 2, "velocity": 127}, {"time": 1069, "pitch": 84, "duration": 4, "velocity": 127}, {"time": 1075, "pitch": 80, "duration": 6, "velocity": 122}, {"time": 1081, "pitch": 82, "duration": 6, "velocity": 127}, {"time": 1099, "pitch": 84, "duration": 5, "velocity": 112}, {"time": 1105, "pitch": 77, "duration": 7, "velocity": 102}, {"time": 1114, "pitch": 77, "duration": 4, "velocity": 122}, {"time": 1117, "pitch": 75, "duration": 5, "velocity": 107}, {"time": 1123, "pitch": 75, "duration": 6, "velocity": 127}, {"time": 1129, "pitch": 72, "duration": 6, "velocity": 96}, {"time": 1147, "pitch": 79, "duration": 4, "velocity": 127}, {"time": 1153, "pitch": 79, "duration": 5, "velocity": 127}, {"time": 1171, "pitch": 77, "duration": 5, "velocity": 117}, {"time": 1177, "pitch": 75, "duration": 7, "velocity": 99}, {"time": 1186, "pitch": 72, "duration": 2, "velocity": 99}, {"time": 1189, "pitch": 82, "duration": 6, "velocity": 112}, {"time": 1195, "pitch": 80, "duration": 6, "velocity": 117}, {"time": 1201, "pitch": 77, "duration": 36, "velocity": 102}, {"time": 1237, "pitch": 82, "duration": 3, "velocity": 127}, {"time": 1240, "pitch": 80, "duration": 3, "velocity": 112}, {"time": 1243, "pitch": 77, "duration": 3, "velocity": 86}, {"time": 1246, "pitch": 82, "duration": 24, "velocity": 127}, {"time": 1282, "pitch": 82, "duration": 1, "velocity": 99}, {"time": 1285, "pitch": 82, "duration": 1, "velocity": 97}, {"time": 1288, "pitch": 82, "duration": 3, "velocity": 117}, {"time": 1291, "pitch": 80, "duration": 6, "velocity": 112}, {"time": 1297, "pitch": 77, "duration": 23, "velocity": 100}, {"time": 1339, "pitch": 80, "duration": 5, "velocity": 127}, {"time": 1345, "pitch": 79, "duration": 12, "velocity": 122}, {"time": 1363, "pitch": 77, "duration": 5, "velocity": 100}, {"time": 1369, "pitch": 75, "duration": 5, "velocity": 102}, {"time": 1378, "pitch": 72, "duration": 2, "velocity": 97}, {"time": 1381, "pitch": 82, "duration": 5, "velocity": 117}, {"time": 1387, "pitch": 80, "duration": 6, "velocity": 122}, {"time": 1393, "pitch": 77, "duration": 32, "velocity": 100}, {"time": 1825, "pitch": 77, "duration": 2, "velocity": 107}, {"time": 1828, "pitch": 77, "duration": 2, "velocity": 79}, {"time": 1831, "pitch": 77, "duration": 3, "velocity": 93}, {"time": 1834, "pitch": 80, "duration": 2, "velocity": 127}, {"time": 1837, "pitch": 80, "duration": 4, "velocity": 122}, {"time": 1843, "pitch": 75, "duration": 6, "velocity": 117}, {"time": 1849, "pitch": 77, "duration": 7, "velocity": 107}, {"time": 1867, "pitch": 80, "duration": 4, "velocity": 127}, {"time": 1870, "pitch": 82, "duration": 3, "velocity": 100}, {"time": 1873, "pitch": 84, "duration": 5, "velocity": 112}, {"time": 1879, "pitch": 84, "duration": 2, "velocity": 127}, {"time": 1885, "pitch": 82, "duration": 2, "velocity": 122}, {"time": 1888, "pitch": 87, "duration": 9, "velocity": 127}, {"time": 1897, "pitch": 84, "duration": 9, "velocity": 117}, {"time": 1921, "pitch": 82, "duration": 4, "velocity": 127}, {"time": 1927, "pitch": 82, "duration": 3, "velocity": 122}, {"time": 1930, "pitch": 84, "duration": 2, "velocity": 95}, {"time": 1933, "pitch": 84, "duration": 4, "velocity": 99}, {"time": 1939, "pitch": 80, "duration": 5, "velocity": 122}, {"time": 1945, "pitch": 82, "duration": 9, "velocity": 127}, {"time": 1963, "pitch": 82, "duration": 3, "velocity": 127}, {"time": 1966, "pitch": 84, "duration": 3, "velocity": 95}, {"time": 1969, "pitch": 77, "duration": 5, "velocity": 102}, {"time": 1975, "pitch": 77, "duration": 4, "velocity": 107}, {"time": 1981, "pitch": 75, "duration": 3, "velocity": 127}, {"time": 1987, "pitch": 75, "duration": 6, "velocity": 117}, {"time": 1993, "pitch": 72, "duration": 11, "velocity": 96}, {"time": 2017, "pitch": 77, "duration": 4, "velocity": 122}, {"time": 2023, "pitch": 77, "duration": 2, "velocity": 100}, {"time": 2026, "pitch": 80, "duration": 2, "velocity": 102}, {"time": 2029, "pitch": 80, "duration": 6, "velocity": 107}, {"time": 2035, "pitch": 75, "duration": 6, "velocity": 107}, {"time": 2041, "pitch": 77, "duration": 11, "velocity": 107}, {"time": 2059, "pitch": 80, "duration": 4, "velocity": 127}, {"time": 2062, "pitch": 82, "duration": 3, "velocity": 100}, {"time": 2065, "pitch": 84, "duration": 4, "velocity": 107}, {"time": 2071, "pitch": 87, "duration": 5, "velocity": 127}, {"time": 2077, "pitch": 89, "duration": 4, "velocity": 127}, {"time": 2086, "pitch": 82, "duration": 10, "velocity": 117}, {"time": 2095, "pitch": 84, "duration": 12, "velocity": 122}, {"time": 2107, "pitch": 82, "duration": 3, "velocity": 122}, {"time": 2110, "pitch": 80, "duration": 4, "velocity": 97}, {"time": 2113, "pitch": 82, "duration": 5, "velocity": 127}, {"time": 2119, "pitch": 84, "duration": 4, "velocity": 117}, {"time": 2125, "pitch": 84, "duration": 4, "velocity": 112}, {"time": 2131, "pitch": 80, "duration": 2, "velocity": 112}, {"time": 2134, "pitch": 82, "duration": 11, "velocity": 127}, {"time": 2146, "pitch": 75, "duration": 3, "velocity": 107}, {"time": 2149, "pitch": 72, "duration": 4, "velocity": 97}, {"time": 2155, "pitch": 82, "duration": 12, "velocity": 127}, {"time": 2167, "pitch": 77, "duration": 17, "velocity": 107}, {"time": 2197, "pitch": 80, "duration": 4, "velocity": 127}, {"time": 2203, "pitch": 82, "duration": 4, "velocity": 127}, {"time": 2209, "pitch": 84, "duration": 2, "velocity": 127}, {"time": 2212, "pitch": 84, "duration": 3, "velocity": 117}, {"time": 2218, "pitch": 84, "duration": 2, "velocity": 127}, {"time": 2221, "pitch": 84, "duration": 3, "velocity": 127}, {"time": 2227, "pitch": 82, "duration": 4, "velocity": 127}, {"time": 2233, "pitch": 84, "duration": 8, "velocity": 127}, {"time": 2251, "pitch": 84, "duration": 3, "velocity": 107}, {"time": 2254, "pitch": 87, "duration": 3, "velocity": 100}, {"time": 2257, "pitch": 89, "duration": 4, "velocity": 112}, {"time": 2263, "pitch": 89, "duration": 2, "velocity": 127}, {"time": 2266, "pitch": 89, "duration": 2, "velocity": 95}, {"time": 2269, "pitch": 92, "duration": 7, "velocity": 127}, {"time": 2278, "pitch": 87, "duration": 3, "velocity": 122}, {"time": 2281, "pitch": 89, "duration": 9, "velocity": 102}, {"time": 2299, "pitch": 87, "duration": 3, "velocity": 127}, {"time": 2302, "pitch": 89, "duration": 3, "velocity": 97}, {"time": 2305, "pitch": 92, "duration": 7, "velocity": 127}, {"time": 2314, "pitch": 92, "duration": 1, "velocity": 112}, {"time": 2317, "pitch": 92, "duration": 3, "velocity": 127}, {"time": 2323, "pitch": 89, "duration": 6, "velocity": 112}, {"time": 2329, "pitch": 87, "duration": 8, "velocity": 122}, {"time": 2338, "pitch": 87, "duration": 3, "velocity": 100}, {"time": 2341, "pitch": 89, "duration": 4, "velocity": 112}, {"time": 2350, "pitch": 82, "duration": 6, "velocity": 122}, {"time": 2359, "pitch": 84, "duration": 24, "velocity": 122}, {"time": 2389, "pitch": 87, "duration": 5, "velocity": 127}, {"time": 2395, "pitch": 84, "duration": 4, "velocity": 122}, {"time": 2401, "pitch": 82, "duration": 1, "velocity": 127}, {"time": 2404, "pitch": 82, "duration": 1, "velocity": 127}, {"time": 2407, "pitch": 82, "duration": 2, "velocity": 112}, {"time": 2410, "pitch": 82, "duration": 2, "velocity": 127}, {"time": 2413, "pitch": 84, "duration": 4, "velocity": 127}, {"time": 2419, "pitch": 80, "duration": 6, "velocity": 122}, {"time": 2425, "pitch": 82, "duration": 6, "velocity": 127}, {"time": 2443, "pitch": 84, "duration": 5, "velocity": 112}, {"time": 2449, "pitch": 77, "duration": 7, "velocity": 102}, {"time": 2458, "pitch": 77, "duration": 4, "velocity": 122}, {"time": 2461, "pitch": 75, "duration": 5, "velocity": 107}, {"time": 2467, "pitch": 75, "duration": 6, "velocity": 127}, {"time": 2473, "pitch": 72, "duration": 6, "velocity": 96}, {"time": 2491, "pitch": 79, "duration": 4, "velocity": 127}, {"time": 2497, "pitch": 79, "duration": 5, "velocity": 127}, {"time": 2515, "pitch": 77, "duration": 5, "velocity": 117}, {"time": 2521, "pitch": 75, "duration": 7, "velocity": 99}, {"time": 2530, "pitch": 72, "duration": 2, "velocity": 99}, {"time": 2533, "pitch": 82, "duration": 6, "velocity": 112}, {"time": 2539, "pitch": 80, "duration": 6, "velocity": 117}, {"time": 2545, "pitch": 77, "duration": 36, "velocity": 102}, {"time": 2581, "pitch": 82, "duration": 3, "velocity": 127}, {"time": 2584, "pitch": 80, "duration": 3, "velocity": 112}, {"time": 2587, "pitch": 77, "duration": 3, "velocity": 86}, {"time": 2590, "pitch": 82, "duration": 24, "velocity": 127}, {"time": 2626, "pitch": 82, "duration": 1, "velocity": 99}, {"time": 2629, "pitch": 82, "duration": 1, "velocity": 97}, {"time": 2632, "pitch": 82, "duration": 3, "velocity": 117}, {"time": 2635, "pitch": 80, "duration": 6, "velocity": 112}, {"time": 2641, "pitch": 77, "duration": 23, "velocity": 100}, {"time": 2683, "pitch": 80, "duration": 5, "velocity": 127}, {"time": 2689, "pitch": 79, "duration": 12, "velocity": 122}, {"time": 2707, "pitch": 77, "duration": 5, "velocity": 100}, {"time": 2713, "pitch": 75, "duration": 5, "velocity": 102}, {"time": 2722, "pitch": 72, "duration": 2, "velocity": 97}, {"time": 2725, "pitch": 82, "duration": 5, "velocity": 117}, {"time": 2731, "pitch": 80, "duration": 6, "velocity": 122}, {"time": 2737, "pitch": 77, "duration": 32, "velocity": 100}, {"time": 2785, "pitch": 84, "duration": 2, "velocity": 127}, {"time": 2788, "pitch": 84, "duration": 3, "velocity": 117}, {"time": 2794, "pitch": 84, "duration": 2, "velocity": 127}, {"time": 2797, "pitch": 84, "duration": 3, "velocity": 127}, {"time": 2803, "pitch": 82, "duration": 4, "velocity": 127}, {"time": 2809, "pitch": 84, "duration": 8, "velocity": 127}, {"time": 2827, "pitch": 84, "duration": 3, "velocity": 107}, {"time": 2830, "pitch": 87, "duration": 3, "velocity": 100}, {"time": 2833, "pitch": 89, "duration": 4, "velocity": 112}, {"time": 2839, "pitch": 89, "duration": 2, "velocity": 127}, {"time": 2842, "pitch": 89, "duration": 2, "velocity": 95}, {"time": 2845, "pitch": 92, "duration": 7, "velocity": 127}, {"time": 2854, "pitch": 87, "duration": 3, "velocity": 122}, {"time": 2857, "pitch": 89, "duration": 9, "velocity": 102}, {"time": 2875, "pitch": 87, "duration": 3, "velocity": 127}, {"time": 2878, "pitch": 89, "duration": 3, "velocity": 97}, {"time": 2881, "pitch": 92, "duration": 7, "velocity": 127}, {"time": 2890, "pitch": 92, "duration": 1, "velocity": 112}, {"time": 2893, "pitch": 92, "duration": 3, "velocity": 127}, {"time": 2899, "pitch": 89, "duration": 6, "velocity": 112}, {"time": 2905, "pitch": 87, "duration": 8, "velocity": 122}, {"time": 2914, "pitch": 87, "duration": 3, "velocity": 100}, {"time": 2917, "pitch": 89, "duration": 4, "velocity": 112}, {"time": 2926, "pitch": 82, "duration": 6, "velocity": 122}, {"time": 2935, "pitch": 84, "duration": 24, "velocity": 122}, {"time": 2965, "pitch": 87, "duration": 5, "velocity": 127}, {"time": 2971, "pitch": 84, "duration": 4, "velocity": 122}, {"time": 2977, "pitch": 82, "duration": 1, "velocity": 127}, {"time": 2980, "pitch": 82, "duration": 1, "velocity": 127}, {"time": 2983, "pitch": 82, "duration": 2, "velocity": 112}, {"time": 2986, "pitch": 82, "duration": 2, "velocity": 127}, {"time": 2989, "pitch": 84, "duration": 4, "velocity": 127}, {"time": 2995, "pitch": 80, "duration": 6, "velocity": 122}, {"time": 3001, "pitch": 82, "duration": 6, "velocity": 127}, {"time": 3019, "pitch": 84, "duration": 5, "velocity": 112}, {"time": 3025, "pitch": 77, "duration": 7, "velocity": 102}, {"time": 3034, "pitch": 77, "duration": 4, "velocity": 122}, {"time": 3037, "pitch": 75, "duration": 5, "velocity": 107}, {"time": 3043, "pitch": 75, "duration": 6, "velocity": 127}, {"time": 3049, "pitch": 72, "duration": 6, "velocity": 96}, {"time": 3067, "pitch": 79, "duration": 4, "velocity": 127}, {"time": 3073, "pitch": 79, "duration": 5, "velocity": 127}, {"time": 3091, "pitch": 77, "duration": 5, "velocity": 117}, {"time": 3097, "pitch": 75, "duration": 7, "velocity": 99}, {"time": 3106, "pitch": 72, "duration": 2, "velocity": 99}, {"time": 3109, "pitch": 82, "duration": 6, "velocity": 112}, {"time": 3115, "pitch": 80, "duration": 6, "velocity": 117}, {"time": 3121, "pitch": 77, "duration": 36, "velocity": 102}, {"time": 3157, "pitch": 82, "duration": 3, "velocity": 127}, {"time": 3160, "pitch": 80, "duration": 3, "velocity": 112}, {"time": 3163, "pitch": 77, "duration": 3, "velocity": 86}, {"time": 3166, "pitch": 82, "duration": 24, "velocity": 127}, {"time": 3202, "pitch": 82, "duration": 1, "velocity": 99}, {"time": 3205, "pitch": 82, "duration": 1, "velocity": 97}, {"time": 3208, "pitch": 82, "duration": 3, "velocity": 117}, {"time": 3211, "pitch": 80, "duration": 6, "velocity": 112}, {"time": 3217, "pitch": 77, "duration": 23, "velocity": 100}, {"time": 3259, "pitch": 80, "duration": 5, "velocity": 127}, {"time": 3265, "pitch": 79, "duration": 12, "velocity": 122}, {"time": 3283, "pitch": 77, "duration": 5, "velocity": 100}, {"time": 3289, "pitch": 75, "duration": 5, "velocity": 102}, {"time": 3298, "pitch": 72, "duration": 2, "velocity": 97}, {"time": 3301, "pitch": 82, "duration": 5, "velocity": 117}, {"time": 3307, "pitch": 80, "duration": 6, "velocity": 122}, {"time": 3313, "pitch": 77, "duration": 31, "velocity": 100}], "annotations": [{"time": 349, "annotation": {"number": 64, "value": 87}, "group": "control_change"}, {"time": 433, "annotation": {"number": 64, "value": 88}, "group": "control_change"}, {"time": 565, "annotation": {"number": 64, "value": 89}, "group": "control_change"}, {"time": 961, "annotation": {"number": 64, "value": 90}, "group": "control_change"}, {"time": 1489, "annotation": {"number": 64, "value": 89}, "group": "control_change"}, {"time": 2137, "annotation": {"number": 64, "value": 90}, "group": "control_change"}, {"time": 2725, "annotation": {"number": 64, "value": 91}, "group": "control_change"}, {"time": 3505, "annotation": {"number": 64, "value": 92}, "group": "control_change"}]}, {"program": 0, "is_drum": false, "name": "BRIDGE", "notes": [{"time": 43, "pitch": 80, "duration": 4, "velocity": 107}, {"time": 46, "pitch": 82, "duration": 4, "velocity": 96}, {"time": 49, "pitch": 84, "duration": 6, "velocity": 95}, {"time": 55, "pitch": 77, "duration": 7, "velocity": 92}, {"time": 61, "pitch": 82, "duration": 7, "velocity": 99}, {"time": 67, "pitch": 77, "duration": 7, "velocity": 78}, {"time": 73, "pitch": 80, "duration": 12, "velocity": 102}, {"time": 79, "pitch": 79, "duration": 6, "velocity": 99}, {"time": 85, "pitch": 72, "duration": 7, "velocity": 96}, {"time": 91, "pitch": 80, "duration": 6, "velocity": 112}, {"time": 97, "pitch": 84, "duration": 6, "velocity": 112}, {"time": 103, "pitch": 77, "duration": 7, "velocity": 96}, {"time": 109, "pitch": 84, "duration": 6, "velocity": 100}, {"time": 115, "pitch": 77, "duration": 5, "velocity": 92}, {"time": 121, "pitch": 80, "duration": 6, "velocity": 127}, {"time": 127, "pitch": 79, "duration": 6, "velocity": 97}, {"time": 133, "pitch": 77, "duration": 5, "velocity": 93}, {"time": 139, "pitch": 80, "duration": 4, "velocity": 117}, {"time": 142, "pitch": 82, "duration": 3, "velocity": 95}, {"time": 145, "pitch": 84, "duration": 5, "velocity": 100}, {"time": 151, "pitch": 77, "duration": 7, "velocity": 89}, {"time": 157, "pitch": 82, "duration": 6, "velocity": 99}, {"time": 163, "pitch": 77, "duration": 5, "velocity": 93}, {"time": 169, "pitch": 80, "duration": 6, "velocity": 112}, {"time": 175, "pitch": 72, "duration": 6, "velocity": 96}, {"time": 181, "pitch": 80, "duration": 6, "velocity": 100}, {"time": 187, "pitch": 82, "duration": 6, "velocity": 102}, {"time": 193, "pitch": 84, "duration": 6, "velocity": 97}, {"time": 199, "pitch": 75, "duration": 6, "velocity": 96}, {"time": 205, "pitch": 82, "duration": 6, "velocity": 100}, {"time": 211, "pitch": 75, "duration": 6, "velocity": 100}, {"time": 217, "pitch": 80, "duration": 6, "velocity": 112}, {"time": 223, "pitch": 75, "duration": 5, "velocity": 102}, {"time": 229, "pitch": 72, "duration": 6, "velocity": 127}, {"time": 235, "pitch": 75, "duration": 3, "velocity": 102}, {"time": 238, "pitch": 72, "duration": 3, "velocity": 112}, {"time": 241, "pitch": 70, "duration": 7, "velocity": 127}, {"time": 250, "pitch": 70, "duration": 1, "velocity": 127}, {"time": 253, "pitch": 70, "duration": 3, "velocity": 117}, {"time": 256, "pitch": 72, "duration": 3, "velocity": 90}, {"time": 259, "pitch": 68, "duration": 4, "velocity": 107}, {"time": 262, "pitch": 70, "duration": 11, "velocity": 122}, {"time": 274, "pitch": 70, "duration": 2, "velocity": 93}, {"time": 277, "pitch": 70, "duration": 5, "velocity": 127}, {"time": 283, "pitch": 72, "duration": 5, "velocity": 122}, {"time": 289, "pitch": 65, "duration": 9, "velocity": 117}, {"time": 295, "pitch": 65, "duration": 3, "velocity": 102}, {"time": 301, "pitch": 68, "duration": 4, "velocity": 107}, {"time": 304, "pitch": 65, "duration": 3, "velocity": 100}, {"time": 307, "pitch": 63, "duration": 6, "velocity": 127}, {"time": 313, "pitch": 60, "duration": 6, "velocity": 117}, {"time": 325, "pitch": 72, "duration": 3, "velocity": 107}, {"time": 328, "pitch": 75, "duration": 3, "velocity": 127}, {"time": 331, "pitch": 77, "duration": 3, "velocity": 102}, {"time": 334, "pitch": 80, "duration": 3, "velocity": 107}, {"time": 337, "pitch": 79, "duration": 12, "velocity": 127}, {"time": 355, "pitch": 77, "duration": 6, "velocity": 112}, {"time": 361, "pitch": 75, "duration": 5, "velocity": 117}, {"time": 373, "pitch": 72, "duration": 7, "velocity": 107}, {"time": 379, "pitch": 75, "duration": 6, "velocity": 117}, {"time": 385, "pitch": 77, "duration": 29, "velocity": 112}, {"time": 397, "pitch": 84, "duration": 5, "velocity": 102}, {"time": 397, "pitch": 87, "duration": 6, "velocity": 112}, {"time": 403, "pitch": 82, "duration": 34, "velocity": 99}, {"time": 403, "pitch": 85, "duration": 34, "velocity": 102}, {"time": 445, "pitch": 84, "duration": 4, "velocity": 99}, {"time": 445, "pitch": 87, "duration": 4, "velocity": 117}, {"time": 451, "pitch": 82, "duration": 25, "velocity": 89}, {"time": 451, "pitch": 85, "duration": 25, "velocity": 100}, {"time": 559, "pitch": 65, "duration": 6, "velocity": 100}, {"time": 565, "pitch": 68, "duration": 6, "velocity": 107}, {"time": 571, "pitch": 72, "duration": 7, "velocity": 96}, {"time": 578, "pitch": 70, "duration": 34, "velocity": 117}, {"time": 655, "pitch": 70, "duration": 4, "velocity": 112}, {"time": 658, "pitch": 72, "duration": 3, "velocity": 82}, {"time": 662, "pitch": 67, "duration": 3, "velocity": 82}, {"time": 667, "pitch": 65, "duration": 3, "velocity": 79}, {"time": 670, "pitch": 63, "duration": 3, "velocity": 79}, {"time": 673, "pitch": 65, "duration": 25, "velocity": 88}, {"time": 751, "pitch": 72, "duration": 7, "velocity": 99}, {"time": 758, "pitch": 70, "duration": 5, "velocity": 95}, {"time": 763, "pitch": 68, "duration": 7, "velocity": 90}, {"time": 769, "pitch": 70, "duration": 24, "velocity": 92}, {"time": 859, "pitch": 65, "duration": 5, "velocity": 71}, {"time": 859, "pitch": 77, "duration": 5, "velocity": 71}, {"time": 860, "pitch": 67, "duration": 4, "velocity": 77}, {"time": 860, "pitch": 79, "duration": 4, "velocity": 77}, {"time": 861, "pitch": 68, "duration": 6, "velocity": 79}, {"time": 861, "pitch": 80, "duration": 6, "velocity": 79}, {"time": 863, "pitch": 70, "duration": 5, "velocity": 113}, {"time": 863, "pitch": 82, "duration": 5, "velocity": 113}, {"time": 866, "pitch": 72, "duration": 11, "velocity": 102}, {"time": 866, "pitch": 84, "duration": 11, "velocity": 102}, {"time": 896, "pitch": 70, "duration": 5, "velocity": 122}, {"time": 902, "pitch": 72, "duration": 6, "velocity": 107}, {"time": 908, "pitch": 75, "duration": 5, "velocity": 122}, {"time": 913, "pitch": 77, "duration": 24, "velocity": 107}, {"time": 944, "pitch": 77, "duration": 3, "velocity": 96}, {"time": 947, "pitch": 75, "duration": 3, "velocity": 86}, {"time": 950, "pitch": 72, "duration": 3, "velocity": 89}, {"time": 952, "pitch": 75, "duration": 4, "velocity": 96}, {"time": 955, "pitch": 77, "duration": 4, "velocity": 78}, {"time": 958, "pitch": 79, "duration": 2, "velocity": 95}, {"time": 961, "pitch": 80, "duration": 23, "velocity": 102}, {"time": 1021, "pitch": 72, "duration": 4, "velocity": 97}, {"time": 1024, "pitch": 70, "duration": 3, "velocity": 86}, {"time": 1027, "pitch": 67, "duration": 3, "velocity": 83}, {"time": 1030, "pitch": 70, "duration": 4, "velocity": 100}, {"time": 1034, "pitch": 72, "duration": 10, "velocity": 96}, {"time": 1046, "pitch": 72, "duration": 3, "velocity": 102}, {"time": 1048, "pitch": 75, "duration": 4, "velocity": 90}, {"time": 1052, "pitch": 72, "duration": 6, "velocity": 95}, {"time": 1058, "pitch": 70, "duration": 22, "velocity": 102}, {"time": 1088, "pitch": 70, "duration": 1, "velocity": 112}, {"time": 1091, "pitch": 68, "duration": 1, "velocity": 93}, {"time": 1094, "pitch": 70, "duration": 1, "velocity": 112}, {"time": 1135, "pitch": 72, "duration": 2, "velocity": 96}, {"time": 1138, "pitch": 70, "duration": 1, "velocity": 97}, {"time": 1141, "pitch": 72, "duration": 1, "velocity": 112}, {"time": 1208, "pitch": 68, "duration": 3, "velocity": 117}, {"time": 1211, "pitch": 70, "duration": 3, "velocity": 107}, {"time": 1214, "pitch": 68, "duration": 4, "velocity": 117}, {"time": 1220, "pitch": 63, "duration": 4, "velocity": 100}, {"time": 1226, "pitch": 65, "duration": 19, "velocity": 122}, {"time": 1264, "pitch": 70, "duration": 4, "velocity": 107}, {"time": 1270, "pitch": 68, "duration": 4, "velocity": 97}, {"time": 1274, "pitch": 70, "duration": 18, "velocity": 100}, {"time": 1312, "pitch": 68, "duration": 2, "velocity": 117}, {"time": 1316, "pitch": 68, "duration": 2, "velocity": 102}, {"time": 1319, "pitch": 67, "duration": 3, "velocity": 81}, {"time": 1322, "pitch": 65, "duration": 16, "velocity": 99}, {"time": 1351, "pitch": 79, "duration": 3, "velocity": 75}, {"time": 1351, "pitch": 67, "duration": 4, "velocity": 82}, {"time": 1358, "pitch": 67, "duration": 3, "velocity": 93}, {"time": 1358, "pitch": 79, "duration": 2, "velocity": 95}, {"time": 1363, "pitch": 77, "duration": 6, "velocity": 96}, {"time": 1363, "pitch": 65, "duration": 6, "velocity": 97}, {"time": 1369, "pitch": 63, "duration": 6, "velocity": 102}, {"time": 1369, "pitch": 75, "duration": 6, "velocity": 95}, {"time": 1399, "pitch": 89, "duration": 4, "velocity": 65}, {"time": 1399, "pitch": 77, "duration": 4, "velocity": 79}, {"time": 1405, "pitch": 89, "duration": 4, "velocity": 74}, {"time": 1405, "pitch": 77, "duration": 4, "velocity": 74}, {"time": 1411, "pitch": 89, "duration": 4, "velocity": 92}, {"time": 1411, "pitch": 77, "duration": 4, "velocity": 89}, {"time": 1417, "pitch": 89, "duration": 14, "velocity": 99}, {"time": 1417, "pitch": 77, "duration": 13, "velocity": 100}, {"time": 1441, "pitch": 84, "duration": 18, "velocity": 127}, {"time": 1459, "pitch": 77, "duration": 6, "velocity": 112}, {"time": 1465, "pitch": 82, "duration": 19, "velocity": 127}, {"time": 1489, "pitch": 80, "duration": 7, "velocity": 127}, {"time": 1498, "pitch": 82, "duration": 2, "velocity": 107}, {"time": 1500, "pitch": 80, "duration": 1, "velocity": 117}, {"time": 1502, "pitch": 77, "duration": 4, "velocity": 88}, {"time": 1507, "pitch": 75, "duration": 5, "velocity": 112}, {"time": 1513, "pitch": 72, "duration": 16, "velocity": 100}, {"time": 1537, "pitch": 82, "duration": 15, "velocity": 127}, {"time": 1555, "pitch": 80, "duration": 3, "velocity": 127}, {"time": 1558, "pitch": 82, "duration": 3, "velocity": 107}, {"time": 1561, "pitch": 79, "duration": 6, "velocity": 127}, {"time": 1573, "pitch": 87, "duration": 13, "velocity": 127}, {"time": 1585, "pitch": 84, "duration": 12, "velocity": 127}, {"time": 1597, "pitch": 75, "duration": 3, "velocity": 127}, {"time": 1600, "pitch": 80, "duration": 2, "velocity": 112}, {"time": 1603, "pitch": 82, "duration": 3, "velocity": 127}, {"time": 1606, "pitch": 84, "duration": 4, "velocity": 117}, {"time": 1609, "pitch": 86, "duration": 6, "velocity": 127}, {"time": 1618, "pitch": 88, "duration": 7, "velocity": 127}, {"time": 1627, "pitch": 84, "duration": 6, "velocity": 117}, {"time": 1633, "pitch": 77, "duration": 16, "velocity": 112}, {"time": 1633, "pitch": 89, "duration": 11, "velocity": 127}, {"time": 1651, "pitch": 80, "duration": 3, "velocity": 127}, {"time": 1654, "pitch": 84, "duration": 4, "velocity": 102}, {"time": 1657, "pitch": 82, "duration": 14, "velocity": 127}, {"time": 1673, "pitch": 84, "duration": 1, "velocity": 93}, {"time": 1674, "pitch": 82, "duration": 2, "velocity": 89}, {"time": 1675, "pitch": 80, "duration": 4, "velocity": 96}, {"time": 1678, "pitch": 82, "duration": 3, "velocity": 122}, {"time": 1681, "pitch": 84, "duration": 8, "velocity": 95}, {"time": 1687, "pitch": 77, "duration": 8, "velocity": 107}, {"time": 1693, "pitch": 77, "duration": 2, "velocity": 127}, {"time": 1699, "pitch": 75, "duration": 6, "velocity": 122}, {"time": 1705, "pitch": 72, "duration": 13, "velocity": 117}, {"time": 1723, "pitch": 80, "duration": 5, "velocity": 127}, {"time": 1729, "pitch": 79, "duration": 11, "velocity": 127}, {"time": 1747, "pitch": 80, "duration": 5, "velocity": 127}, {"time": 1753, "pitch": 82, "duration": 10, "velocity": 127}, {"time": 1765, "pitch": 75, "duration": 12, "velocity": 117}, {"time": 1777, "pitch": 77, "duration": 39, "velocity": 112}, {"time": 1903, "pitch": 65, "duration": 6, "velocity": 100}, {"time": 1909, "pitch": 68, "duration": 6, "velocity": 107}, {"time": 1915, "pitch": 72, "duration": 7, "velocity": 96}, {"time": 1921, "pitch": 70, "duration": 35, "velocity": 117}, {"time": 1999, "pitch": 70, "duration": 3, "velocity": 112}, {"time": 2002, "pitch": 72, "duration": 3, "velocity": 82}, {"time": 2005, "pitch": 67, "duration": 4, "velocity": 82}, {"time": 2011, "pitch": 65, "duration": 3, "velocity": 79}, {"time": 2014, "pitch": 63, "duration": 3, "velocity": 79}, {"time": 2017, "pitch": 65, "duration": 25, "velocity": 88}, {"time": 2095, "pitch": 72, "duration": 7, "velocity": 99}, {"time": 2101, "pitch": 70, "duration": 6, "velocity": 95}, {"time": 2107, "pitch": 68, "duration": 6, "velocity": 90}, {"time": 2113, "pitch": 70, "duration": 24, "velocity": 92}, {"time": 2203, "pitch": 65, "duration": 4, "velocity": 94}, {"time": 2204, "pitch": 67, "duration": 3, "velocity": 94}, {"time": 2204, "pitch": 79, "duration": 4, "velocity": 94}, {"time": 2205, "pitch": 68, "duration": 5, "velocity": 94}, {"time": 2206, "pitch": 80, "duration": 4, "velocity": 94}, {"time": 2207, "pitch": 70, "duration": 5, "velocity": 99}, {"time": 2207, "pitch": 82, "duration": 5, "velocity": 99}, {"time": 2209, "pitch": 72, "duration": 11, "velocity": 106}, {"time": 2210, "pitch": 84, "duration": 10, "velocity": 106}, {"time": 2240, "pitch": 70, "duration": 5, "velocity": 122}, {"time": 2246, "pitch": 72, "duration": 5, "velocity": 107}, {"time": 2252, "pitch": 75, "duration": 5, "velocity": 122}, {"time": 2257, "pitch": 77, "duration": 24, "velocity": 107}, {"time": 2287, "pitch": 77, "duration": 4, "velocity": 96}, {"time": 2290, "pitch": 75, "duration": 4, "velocity": 86}, {"time": 2293, "pitch": 72, "duration": 4, "velocity": 89}, {"time": 2296, "pitch": 75, "duration": 4, "velocity": 96}, {"time": 2299, "pitch": 77, "duration": 3, "velocity": 78}, {"time": 2302, "pitch": 79, "duration": 2, "velocity": 95}, {"time": 2305, "pitch": 80, "duration": 23, "velocity": 102}, {"time": 2365, "pitch": 72, "duration": 4, "velocity": 97}, {"time": 2368, "pitch": 70, "duration": 3, "velocity": 86}, {"time": 2371, "pitch": 67, "duration": 3, "velocity": 83}, {"time": 2374, "pitch": 70, "duration": 4, "velocity": 100}, {"time": 2377, "pitch": 72, "duration": 11, "velocity": 96}, {"time": 2390, "pitch": 72, "duration": 2, "velocity": 102}, {"time": 2392, "pitch": 75, "duration": 4, "velocity": 90}, {"time": 2395, "pitch": 72, "duration": 7, "velocity": 95}, {"time": 2402, "pitch": 70, "duration": 22, "velocity": 102}, {"time": 2431, "pitch": 70, "duration": 2, "velocity": 112}, {"time": 2434, "pitch": 68, "duration": 1, "velocity": 93}, {"time": 2438, "pitch": 70, "duration": 1, "velocity": 112}, {"time": 2479, "pitch": 72, "duration": 2, "velocity": 96}, {"time": 2482, "pitch": 70, "duration": 1, "velocity": 97}, {"time": 2485, "pitch": 72, "duration": 1, "velocity": 112}, {"time": 2552, "pitch": 68, "duration": 3, "velocity": 117}, {"time": 2555, "pitch": 70, "duration": 3, "velocity": 107}, {"time": 2558, "pitch": 68, "duration": 4, "velocity": 117}, {"time": 2563, "pitch": 63, "duration": 5, "velocity": 100}, {"time": 2569, "pitch": 65, "duration": 20, "velocity": 122}, {"time": 2608, "pitch": 70, "duration": 4, "velocity": 107}, {"time": 2614, "pitch": 68, "duration": 3, "velocity": 97}, {"time": 2618, "pitch": 70, "duration": 18, "velocity": 100}, {"time": 2656, "pitch": 68, "duration": 2, "velocity": 117}, {"time": 2659, "pitch": 68, "duration": 3, "velocity": 102}, {"time": 2662, "pitch": 67, "duration": 3, "velocity": 81}, {"time": 2666, "pitch": 65, "duration": 16, "velocity": 99}, {"time": 2695, "pitch": 79, "duration": 3, "velocity": 75}, {"time": 2695, "pitch": 67, "duration": 3, "velocity": 82}, {"time": 2701, "pitch": 67, "duration": 4, "velocity": 93}, {"time": 2702, "pitch": 79, "duration": 2, "velocity": 95}, {"time": 2707, "pitch": 77, "duration": 5, "velocity": 96}, {"time": 2707, "pitch": 65, "duration": 6, "velocity": 97}, {"time": 2713, "pitch": 63, "duration": 6, "velocity": 102}, {"time": 2713, "pitch": 75, "duration": 6, "velocity": 95}, {"time": 2737, "pitch": 77, "duration": 1, "velocity": 95}, {"time": 2740, "pitch": 77, "duration": 1, "velocity": 72}, {"time": 2743, "pitch": 77, "duration": 1, "velocity": 82}, {"time": 2746, "pitch": 77, "duration": 1, "velocity": 107}, {"time": 2752, "pitch": 75, "duration": 1, "velocity": 122}, {"time": 2758, "pitch": 76, "duration": 1, "velocity": 96}, {"time": 2761, "pitch": 77, "duration": 3, "velocity": 127}, {"time": 2778, "pitch": 77, "duration": 2, "velocity": 102}, {"time": 2780, "pitch": 79, "duration": 2, "velocity": 76}, {"time": 2781, "pitch": 80, "duration": 4, "velocity": 71}, {"time": 2783, "pitch": 82, "duration": 3, "velocity": 74}, {"time": 2785, "pitch": 84, "duration": 9, "velocity": 127}, {"time": 2815, "pitch": 70, "duration": 5, "velocity": 112}, {"time": 2821, "pitch": 72, "duration": 6, "velocity": 102}, {"time": 2827, "pitch": 75, "duration": 5, "velocity": 127}, {"time": 2832, "pitch": 77, "duration": 19, "velocity": 117}, {"time": 2863, "pitch": 77, "duration": 2, "velocity": 117}, {"time": 2866, "pitch": 75, "duration": 2, "velocity": 96}, {"time": 2869, "pitch": 72, "duration": 3, "velocity": 93}, {"time": 2871, "pitch": 75, "duration": 4, "velocity": 112}, {"time": 2874, "pitch": 77, "duration": 4, "velocity": 90}, {"time": 2877, "pitch": 79, "duration": 3, "velocity": 92}, {"time": 2881, "pitch": 80, "duration": 18, "velocity": 127}, {"time": 3007, "pitch": 70, "duration": 2, "velocity": 127}, {"time": 3010, "pitch": 68, "duration": 1, "velocity": 102}, {"time": 3013, "pitch": 70, "duration": 1, "velocity": 127}, {"time": 3055, "pitch": 72, "duration": 1, "velocity": 112}, {"time": 3058, "pitch": 70, "duration": 1, "velocity": 102}, {"time": 3061, "pitch": 72, "duration": 1, "velocity": 117}, {"time": 3181, "pitch": 70, "duration": 3, "velocity": 117}, {"time": 3184, "pitch": 68, "duration": 3, "velocity": 93}, {"time": 3187, "pitch": 65, "duration": 3, "velocity": 85}, {"time": 3190, "pitch": 70, "duration": 27, "velocity": 122}, {"time": 3229, "pitch": 70, "duration": 1, "velocity": 117}, {"time": 3232, "pitch": 70, "duration": 1, "velocity": 95}, {"time": 3235, "pitch": 68, "duration": 1, "velocity": 102}, {"time": 3238, "pitch": 72, "duration": 22, "velocity": 117}, {"time": 3266, "pitch": 79, "duration": 16, "velocity": 127}, {"time": 3283, "pitch": 65, "duration": 5, "velocity": 102}, {"time": 3283, "pitch": 77, "duration": 6, "velocity": 107}, {"time": 3289, "pitch": 63, "duration": 5, "velocity": 127}, {"time": 3289, "pitch": 75, "duration": 5, "velocity": 112}, {"time": 3319, "pitch": 72, "duration": 6, "velocity": 107}, {"time": 3325, "pitch": 80, "duration": 6, "velocity": 127}, {"time": 3331, "pitch": 79, "duration": 28, "velocity": 112}, {"time": 3361, "pitch": 77, "duration": 6, "velocity": 112}, {"time": 3367, "pitch": 72, "duration": 6, "velocity": 95}, {"time": 3373, "pitch": 84, "duration": 7, "velocity": 122}, {"time": 3379, "pitch": 82, "duration": 27, "velocity": 117}, {"time": 3404, "pitch": 80, "duration": 4, "velocity": 97}, {"time": 3407, "pitch": 82, "duration": 3, "velocity": 82}, {"time": 3410, "pitch": 84, "duration": 5, "velocity": 100}, {"time": 3415, "pitch": 77, "duration": 7, "velocity": 86}, {"time": 3421, "pitch": 82, "duration": 12, "velocity": 117}, {"time": 3433, "pitch": 77, "duration": 7, "velocity": 100}, {"time": 3443, "pitch": 72, "duration": 21, "velocity": 107}, {"time": 3463, "pitch": 79, "duration": 10, "velocity": 96}, {"time": 3472, "pitch": 75, "duration": 16, "velocity": 112}, {"time": 3488, "pitch": 77, "duration": 55, "velocity": 99}], "annotations": [{"time": 49, "annotation": {"number": 64, "value": 97}, "group": "control_change"}, {"time": 61, "annotation": {"number": 64, "value": 101}, "group": "control_change"}, {"time": 73, "annotation": {"number": 64, "value": 104}, "group": "control_change"}, {"time": 85, "annotation": {"number": 64, "value": 105}, "group": "control_change"}, {"time": 121, "annotation": {"number": 64, "value": 104}, "group": "control_change"}, {"time": 133, "annotation": {"number": 64, "value": 102}, "group": "control_change"}, {"time": 145, "annotation": {"number": 64, "value": 104}, "group": "control_change"}, {"time": 157, "annotation": {"number": 64, "value": 105}, "group": "control_change"}, {"time": 169, "annotation": {"number": 64, "value": 106}, "group": "control_change"}, {"time": 193, "annotation": {"number": 64, "value": 107}, "group": "control_change"}, {"time": 217, "annotation": {"number": 64, "value": 109}, "group": "control_change"}, {"time": 229, "annotation": {"number": 64, "value": 110}, "group": "control_change"}, {"time": 277, "annotation": {"number": 64, "value": 111}, "group": "control_change"}, {"time": 289, "annotation": {"number": 64, "value": 112}, "group": "control_change"}, {"time": 301, "annotation": {"number": 64, "value": 113}, "group": "control_change"}, {"time": 313, "annotation": {"number": 64, "value": 116}, "group": "control_change"}, {"time": 349, "annotation": {"number": 64, "value": 115}, "group": "control_change"}, {"time": 361, "annotation": {"number": 64, "value": 112}, "group": "control_change"}, {"time": 373, "annotation": {"number": 64, "value": 111}, "group": "control_change"}, {"time": 385, "annotation": {"number": 64, "value": 109}, "group": "control_change"}, {"time": 397, "annotation": {"number": 64, "value": 107}, "group": "control_change"}, {"time": 421, "annotation": {"number": 64, "value": 106}, "group": "control_change"}, {"time": 469, "annotation": {"number": 64, "value": 107}, "group": "control_change"}, {"time": 481, "annotation": {"number": 64, "value": 109}, "group": "control_change"}, {"time": 493, "annotation": {"number": 64, "value": 111}, "group": "control_change"}, {"time": 505, "annotation": {"number": 64, "value": 113}, "group": "control_change"}, {"time": 517, "annotation": {"number": 64, "value": 116}, "group": "control_change"}, {"time": 561, "annotation": {"number": 64, "value": 76}, "group": "control_change"}, {"time": 567, "annotation": {"number": 64, "value": 75}, "group": "control_change"}, {"time": 585, "annotation": {"number": 64, "value": 74}, "group": "control_change"}, {"time": 651, "annotation": {"number": 64, "value": 73}, "group": "control_change"}, {"time": 696, "annotation": {"number": 64, "value": 74}, "group": "control_change"}, {"time": 708, "annotation": {"number": 64, "value": 75}, "group": "control_change"}, {"time": 735, "annotation": {"number": 64, "value": 76}, "group": "control_change"}, {"time": 750, "annotation": {"number": 64, "value": 77}, "group": "control_change"}, {"time": 786, "annotation": {"number": 64, "value": 78}, "group": "control_change"}, {"time": 795, "annotation": {"number": 64, "value": 79}, "group": "control_change"}, {"time": 822, "annotation": {"number": 64, "value": 80}, "group": "control_change"}, {"time": 852, "annotation": {"number": 64, "value": 81}, "group": "control_change"}, {"time": 873, "annotation": {"number": 64, "value": 82}, "group": "control_change"}, {"time": 888, "annotation": {"number": 64, "value": 83}, "group": "control_change"}, {"time": 921, "annotation": {"number": 64, "value": 84}, "group": "control_change"}, {"time": 969, "annotation": {"number": 64, "value": 85}, "group": "control_change"}, {"time": 1050, "annotation": {"number": 64, "value": 84}, "group": "control_change"}, {"time": 1071, "annotation": {"number": 64, "value": 83}, "group": "control_change"}, {"time": 1104, "annotation": {"number": 64, "value": 82}, "group": "control_change"}, {"time": 1131, "annotation": {"number": 64, "value": 81}, "group": "control_change"}, {"time": 1182, "annotation": {"number": 64, "value": 80}, "group": "control_change"}, {"time": 1197, "annotation": {"number": 64, "value": 79}, "group": "control_change"}, {"time": 1365, "annotation": {"number": 64, "value": 78}, "group": "control_change"}, {"time": 1398, "annotation": {"number": 64, "value": 77}, "group": "control_change"}, {"time": 1473, "annotation": {"number": 64, "value": 76}, "group": "control_change"}, {"time": 1477, "annotation": {"number": 64, "value": 91}, "group": "control_change"}, {"time": 1489, "annotation": {"number": 64, "value": 85}, "group": "control_change"}, {"time": 1501, "annotation": {"number": 64, "value": 84}, "group": "control_change"}, {"time": 1513, "annotation": {"number": 64, "value": 83}, "group": "control_change"}, {"time": 1549, "annotation": {"number": 64, "value": 85}, "group": "control_change"}, {"time": 1561, "annotation": {"number": 64, "value": 88}, "group": "control_change"}, {"time": 1573, "annotation": {"number": 64, "value": 90}, "group": "control_change"}, {"time": 1578, "annotation": {"number": 64, "value": 93}, "group": "control_change"}, {"time": 1608, "annotation": {"number": 64, "value": 94}, "group": "control_change"}, {"time": 1626, "annotation": {"number": 64, "value": 95}, "group": "control_change"}, {"time": 1632, "annotation": {"number": 64, "value": 96}, "group": "control_change"}, {"time": 1650, "annotation": {"number": 64, "value": 97}, "group": "control_change"}, {"time": 1683, "annotation": {"number": 64, "value": 96}, "group": "control_change"}, {"time": 1698, "annotation": {"number": 64, "value": 95}, "group": "control_change"}, {"time": 1704, "annotation": {"number": 64, "value": 94}, "group": "control_change"}, {"time": 1716, "annotation": {"number": 64, "value": 93}, "group": "control_change"}, {"time": 1731, "annotation": {"number": 64, "value": 92}, "group": "control_change"}, {"time": 1741, "annotation": {"number": 64, "value": 92}, "group": "control_change"}, {"time": 1755, "annotation": {"number": 64, "value": 84}, "group": "control_change"}, {"time": 1818, "annotation": {"number": 64, "value": 85}, "group": "control_change"}, {"time": 1842, "annotation": {"number": 64, "value": 86}, "group": "control_change"}, {"time": 1851, "annotation": {"number": 64, "value": 87}, "group": "control_change"}, {"time": 1860, "annotation": {"number": 64, "value": 88}, "group": "control_change"}, {"time": 1905, "annotation": {"number": 64, "value": 89}, "group": "control_change"}, {"time": 1944, "annotation": {"number": 64, "value": 58}, "group": "control_change"}, {"time": 1956, "annotation": {"number": 64, "value": 59}, "group": "control_change"}, {"time": 1968, "annotation": {"number": 64, "value": 60}, "group": "control_change"}, {"time": 1975, "annotation": {"number": 64, "value": 61}, "group": "control_change"}, {"time": 1982, "annotation": {"number": 64, "value": 62}, "group": "control_change"}, {"time": 1989, "annotation": {"number": 64, "value": 63}, "group": "control_change"}, {"time": 1996, "annotation": {"number": 64, "value": 64}, "group": "control_change"}, {"time": 2004, "annotation": {"number": 64, "value": 65}, "group": "control_change"}, {"time": 2010, "annotation": {"number": 64, "value": 66}, "group": "control_change"}, {"time": 2016, "annotation": {"number": 64, "value": 67}, "group": "control_change"}, {"time": 2022, "annotation": {"number": 64, "value": 68}, "group": "control_change"}, {"time": 2061, "annotation": {"number": 64, "value": 69}, "group": "control_change"}, {"time": 2226, "annotation": {"number": 64, "value": 70}, "group": "control_change"}, {"time": 2244, "annotation": {"number": 64, "value": 69}, "group": "control_change"}, {"time": 2262, "annotation": {"number": 64, "value": 68}, "group": "control_change"}, {"time": 2289, "annotation": {"number": 64, "value": 67}, "group": "control_change"}, {"time": 2294, "annotation": {"number": 64, "value": 66}, "group": "control_change"}, {"time": 2299, "annotation": {"number": 64, "value": 65}, "group": "control_change"}, {"time": 2304, "annotation": {"number": 64, "value": 64}, "group": "control_change"}, {"time": 2370, "annotation": {"number": 64, "value": 63}, "group": "control_change"}, {"time": 2403, "annotation": {"number": 64, "value": 62}, "group": "control_change"}, {"time": 2406, "annotation": {"number": 64, "value": 61}, "group": "control_change"}, {"time": 2409, "annotation": {"number": 64, "value": 60}, "group": "control_change"}, {"time": 2568, "annotation": {"number": 64, "value": 59}, "group": "control_change"}, {"time": 2583, "annotation": {"number": 64, "value": 60}, "group": "control_change"}, {"time": 2592, "annotation": {"number": 64, "value": 61}, "group": "control_change"}, {"time": 2601, "annotation": {"number": 64, "value": 62}, "group": "control_change"}, {"time": 2613, "annotation": {"number": 64, "value": 63}, "group": "control_change"}, {"time": 2622, "annotation": {"number": 64, "value": 64}, "group": "control_change"}, {"time": 2628, "annotation": {"number": 64, "value": 65}, "group": "control_change"}, {"time": 2637, "annotation": {"number": 64, "value": 66}, "group": "control_change"}, {"time": 2646, "annotation": {"number": 64, "value": 67}, "group": "control_change"}, {"time": 2661, "annotation": {"number": 64, "value": 68}, "group": "control_change"}, {"time": 2682, "annotation": {"number": 64, "value": 69}, "group": "control_change"}, {"time": 2709, "annotation": {"number": 64, "value": 70}, "group": "control_change"}, {"time": 2716, "annotation": {"number": 64, "value": 71}, "group": "control_change"}, {"time": 2724, "annotation": {"number": 64, "value": 72}, "group": "control_change"}, {"time": 2736, "annotation": {"number": 64, "value": 73}, "group": "control_change"}, {"time": 2844, "annotation": {"number": 64, "value": 74}, "group": "control_change"}, {"time": 2853, "annotation": {"number": 64, "value": 73}, "group": "control_change"}, {"time": 2997, "annotation": {"number": 64, "value": 79}, "group": "control_change"}, {"time": 3099, "annotation": {"number": 64, "value": 78}, "group": "control_change"}, {"time": 3117, "annotation": {"number": 64, "value": 77}, "group": "control_change"}, {"time": 3135, "annotation": {"number": 64, "value": 76}, "group": "control_change"}, {"time": 3265, "annotation": {"number": 64, "value": 68}, "group": "control_change"}, {"time": 3277, "annotation": {"number": 64, "value": 69}, "group": "control_change"}, {"time": 3289, "annotation": {"number": 64, "value": 74}, "group": "control_change"}, {"time": 3301, "annotation": {"number": 64, "value": 81}, "group": "control_change"}, {"time": 3313, "annotation": {"number": 64, "value": 88}, "group": "control_change"}, {"time": 3325, "annotation": {"number": 64, "value": 91}, "group": "control_change"}, {"time": 3337, "annotation": {"number": 64, "value": 95}, "group": "control_change"}, {"time": 3349, "annotation": {"number": 64, "value": 97}, "group": "control_change"}, {"time": 3361, "annotation": {"number": 64, "value": 99}, "group": "control_change"}, {"time": 3373, "annotation": {"number": 64, "value": 102}, "group": "control_change"}, {"time": 3385, "annotation": {"number": 64, "value": 105}, "group": "control_change"}, {"time": 3397, "annotation": {"number": 64, "value": 109}, "group": "control_change"}, {"time": 3421, "annotation": {"number": 64, "value": 110}, "group": "control_change"}, {"time": 3481, "annotation": {"number": 64, "value": 109}, "group": "control_change"}, {"time": 3529, "annotation": {"number": 64, "value": 107}, "group": "control_change"}, {"time": 3553, "annotation": {"number": 64, "value": 106}, "group": "control_change"}, {"time": 3565, "annotation": {"number": 64, "value": 105}, "group": "control_change"}, {"time": 3577, "annotation": {"number": 64, "value": 104}, "group": "control_change"}, {"time": 3613, "annotation": {"number": 64, "value": 102}, "group": "control_change"}, {"time": 3625, "annotation": {"number": 64, "value": 104}, "group": "control_change"}, {"time": 3636, "annotation": {"number": 64, "value": 110}, "group": "control_change"}, {"time": 3642, "annotation": {"number": 64, "value": 109}, "group": "control_change"}, {"time": 3648, "annotation": {"number": 64, "value": 108}, "group": "control_change"}, {"time": 3663, "annotation": {"number": 64, "value": 107}, "group": "control_change"}, {"time": 3678, "annotation": {"number": 64, "value": 106}, "group": "control_change"}, {"time": 3693, "annotation": {"number": 64, "value": 105}, "group": "control_change"}, {"time": 3705, "annotation": {"number": 64, "value": 104}, "group": "control_change"}, {"time": 3720, "annotation": {"number": 64, "value": 103}, "group": "control_change"}, {"time": 3735, "annotation": {"number": 64, "value": 102}, "group": "control_change"}, {"time": 3756, "annotation": {"number": 64, "value": 101}, "group": "control_change"}, {"time": 3771, "annotation": {"number": 64, "value": 100}, "group": "control_change"}, {"time": 3780, "annotation": {"number": 64, "value": 99}, "group": "control_change"}, {"time": 3783, "annotation": {"number": 64, "value": 98}, "group": "control_change"}, {"time": 3798, "annotation": {"number": 64, "value": 97}, "group": "control_change"}, {"time": 3804, "annotation": {"number": 64, "value": 96}, "group": "control_change"}, {"time": 3811, "annotation": {"number": 64, "value": 95}, "group": "control_change"}, {"time": 3819, "annotation": {"number": 64, "value": 94}, "group": "control_change"}, {"time": 3823, "annotation": {"number": 64, "value": 93}, "group": "control_change"}, {"time": 3828, "annotation": {"number": 64, "value": 92}, "group": "control_change"}, {"time": 3832, "annotation": {"number": 64, "value": 91}, "group": "control_change"}, {"time": 3837, "annotation": {"number": 64, "value": 90}, "group": "control_change"}, {"time": 3842, "annotation": {"number": 64, "value": 89}, "group": "control_change"}, {"time": 3847, "annotation": {"number": 64, "value": 88}, "group": "control_change"}, {"time": 3852, "annotation": {"number": 64, "value": 87}, "group": "control_change"}, {"time": 3858, "annotation": {"number": 64, "value": 86}, "group": "control_change"}, {"time": 3867, "annotation": {"number": 64, "value": 85}, "group": "control_change"}, {"time": 3870, "annotation": {"number": 64, "value": 84}, "group": "control_change"}]}, {"program": 0, "is_drum": false, "name": "PIANO", "notes": [{"time": 49, "pitch": 41, "duration": 45, "velocity": 79}, {"time": 55, "pitch": 48, "duration": 43, "velocity": 55}, {"time": 61, "pitch": 53, "duration": 34, "velocity": 38}, {"time": 61, "pitch": 65, "duration": 45, "velocity": 77}, {"time": 61, "pitch": 68, "duration": 45, "velocity": 74}, {"time": 67, "pitch": 60, "duration": 39, "velocity": 73}, {"time": 97, "pitch": 41, "duration": 46, "velocity": 67}, {"time": 103, "pitch": 48, "duration": 44, "velocity": 42}, {"time": 109, "pitch": 53, "duration": 35, "velocity": 52}, {"time": 109, "pitch": 65, "duration": 44, "velocity": 67}, {"time": 109, "pitch": 68, "duration": 44, "velocity": 76}, {"time": 115, "pitch": 60, "duration": 21, "velocity": 63}, {"time": 139, "pitch": 60, "duration": 14, "velocity": 63}, {"time": 145, "pitch": 41, "duration": 41, "velocity": 72}, {"time": 151, "pitch": 48, "duration": 35, "velocity": 35}, {"time": 157, "pitch": 53, "duration": 30, "velocity": 55}, {"time": 157, "pitch": 65, "duration": 30, "velocity": 82}, {"time": 157, "pitch": 68, "duration": 30, "velocity": 86}, {"time": 163, "pitch": 60, "duration": 25, "velocity": 88}, {"time": 193, "pitch": 44, "duration": 38, "velocity": 92}, {"time": 199, "pitch": 56, "duration": 8, "velocity": 72}, {"time": 205, "pitch": 60, "duration": 22, "velocity": 73}, {"time": 205, "pitch": 63, "duration": 22, "velocity": 71}, {"time": 211, "pitch": 56, "duration": 18, "velocity": 72}, {"time": 229, "pitch": 56, "duration": 2, "velocity": 41}, {"time": 229, "pitch": 60, "duration": 2, "velocity": 66}, {"time": 229, "pitch": 63, "duration": 2, "velocity": 90}, {"time": 241, "pitch": 46, "duration": 30, "velocity": 112}, {"time": 241, "pitch": 58, "duration": 10, "velocity": 99}, {"time": 241, "pitch": 61, "duration": 10, "velocity": 107}, {"time": 241, "pitch": 65, "duration": 9, "velocity": 86}, {"time": 253, "pitch": 58, "duration": 9, "velocity": 66}, {"time": 253, "pitch": 61, "duration": 9, "velocity": 72}, {"time": 253, "pitch": 65, "duration": 8, "velocity": 71}, {"time": 265, "pitch": 58, "duration": 7, "velocity": 93}, {"time": 265, "pitch": 61, "duration": 7, "velocity": 97}, {"time": 265, "pitch": 65, "duration": 8, "velocity": 77}, {"time": 271, "pitch": 46, "duration": 5, "velocity": 64}, {"time": 277, "pitch": 58, "duration": 6, "velocity": 97}, {"time": 277, "pitch": 61, "duration": 5, "velocity": 102}, {"time": 277, "pitch": 65, "duration": 5, "velocity": 92}, {"time": 283, "pitch": 46, "duration": 6, "velocity": 93}, {"time": 289, "pitch": 41, "duration": 17, "velocity": 72}, {"time": 289, "pitch": 53, "duration": 4, "velocity": 93}, {"time": 289, "pitch": 56, "duration": 4, "velocity": 99}, {"time": 289, "pitch": 60, "duration": 5, "velocity": 90}, {"time": 295, "pitch": 48, "duration": 7, "velocity": 49}, {"time": 301, "pitch": 60, "duration": 8, "velocity": 96}, {"time": 301, "pitch": 65, "duration": 7, "velocity": 100}, {"time": 301, "pitch": 68, "duration": 6, "velocity": 107}, {"time": 307, "pitch": 48, "duration": 1, "velocity": 52}, {"time": 313, "pitch": 48, "duration": 20, "velocity": 69}, {"time": 313, "pitch": 55, "duration": 14, "velocity": 92}, {"time": 313, "pitch": 60, "duration": 10, "velocity": 96}, {"time": 313, "pitch": 63, "duration": 10, "velocity": 102}, {"time": 313, "pitch": 67, "duration": 10, "velocity": 89}, {"time": 325, "pitch": 60, "duration": 6, "velocity": 112}, {"time": 325, "pitch": 63, "duration": 6, "velocity": 127}, {"time": 325, "pitch": 67, "duration": 6, "velocity": 107}, {"time": 331, "pitch": 55, "duration": 4, "velocity": 86}, {"time": 337, "pitch": 51, "duration": 15, "velocity": 107}, {"time": 337, "pitch": 63, "duration": 11, "velocity": 100}, {"time": 337, "pitch": 67, "duration": 10, "velocity": 107}, {"time": 337, "pitch": 70, "duration": 10, "velocity": 102}, {"time": 349, "pitch": 63, "duration": 6, "velocity": 97}, {"time": 349, "pitch": 67, "duration": 5, "velocity": 117}, {"time": 349, "pitch": 70, "duration": 5, "velocity": 100}, {"time": 355, "pitch": 51, "duration": 5, "velocity": 97}, {"time": 361, "pitch": 48, "duration": 7, "velocity": 71}, {"time": 361, "pitch": 60, "duration": 6, "velocity": 95}, {"time": 361, "pitch": 63, "duration": 6, "velocity": 102}, {"time": 361, "pitch": 67, "duration": 7, "velocity": 92}, {"time": 385, "pitch": 41, "duration": 46, "velocity": 81}, {"time": 385, "pitch": 53, "duration": 11, "velocity": 86}, {"time": 385, "pitch": 56, "duration": 11, "velocity": 93}, {"time": 385, "pitch": 60, "duration": 10, "velocity": 83}, {"time": 391, "pitch": 48, "duration": 8, "velocity": 52}, {"time": 397, "pitch": 53, "duration": 5, "velocity": 55}, {"time": 397, "pitch": 56, "duration": 9, "velocity": 72}, {"time": 397, "pitch": 60, "duration": 43, "velocity": 76}, {"time": 403, "pitch": 48, "duration": 7, "velocity": 51}, {"time": 409, "pitch": 55, "duration": 14, "velocity": 77}, {"time": 415, "pitch": 48, "duration": 8, "velocity": 40}, {"time": 421, "pitch": 56, "duration": 7, "velocity": 102}, {"time": 427, "pitch": 48, "duration": 5, "velocity": 24}, {"time": 427, "pitch": 55, "duration": 5, "velocity": 66}, {"time": 433, "pitch": 41, "duration": 43, "velocity": 82}, {"time": 439, "pitch": 48, "duration": 39, "velocity": 52}, {"time": 445, "pitch": 56, "duration": 35, "velocity": 86}, {"time": 445, "pitch": 60, "duration": 35, "velocity": 73}, {"time": 451, "pitch": 55, "duration": 27, "velocity": 38}, {"time": 481, "pitch": 41, "duration": 36, "velocity": 68}, {"time": 481, "pitch": 53, "duration": 11, "velocity": 89}, {"time": 481, "pitch": 56, "duration": 11, "velocity": 88}, {"time": 481, "pitch": 60, "duration": 10, "velocity": 79}, {"time": 487, "pitch": 48, "duration": 10, "velocity": 39}, {"time": 493, "pitch": 56, "duration": 9, "velocity": 69}, {"time": 493, "pitch": 60, "duration": 8, "velocity": 67}, {"time": 499, "pitch": 48, "duration": 9, "velocity": 41}, {"time": 505, "pitch": 53, "duration": 6, "velocity": 42}, {"time": 505, "pitch": 56, "duration": 6, "velocity": 53}, {"time": 505, "pitch": 60, "duration": 5, "velocity": 57}, {"time": 511, "pitch": 48, "duration": 5, "velocity": 38}, {"time": 517, "pitch": 56, "duration": 2, "velocity": 100}, {"time": 517, "pitch": 60, "duration": 2, "velocity": 90}, {"time": 529, "pitch": 44, "duration": 43, "velocity": 55}, {"time": 529, "pitch": 51, "duration": 14, "velocity": 75}, {"time": 529, "pitch": 56, "duration": 8, "velocity": 92}, {"time": 529, "pitch": 60, "duration": 7, "velocity": 92}, {"time": 529, "pitch": 63, "duration": 7, "velocity": 95}, {"time": 541, "pitch": 56, "duration": 7, "velocity": 83}, {"time": 541, "pitch": 60, "duration": 7, "velocity": 90}, {"time": 541, "pitch": 63, "duration": 7, "velocity": 88}, {"time": 547, "pitch": 48, "duration": 26, "velocity": 1}, {"time": 547, "pitch": 51, "duration": 20, "velocity": 36}, {"time": 553, "pitch": 56, "duration": 7, "velocity": 70}, {"time": 553, "pitch": 60, "duration": 6, "velocity": 86}, {"time": 553, "pitch": 63, "duration": 7, "velocity": 79}, {"time": 565, "pitch": 56, "duration": 3, "velocity": 92}, {"time": 565, "pitch": 60, "duration": 2, "velocity": 95}, {"time": 565, "pitch": 63, "duration": 2, "velocity": 85}, {"time": 571, "pitch": 51, "duration": 3, "velocity": 45}, {"time": 577, "pitch": 46, "duration": 14, "velocity": 68}, {"time": 577, "pitch": 58, "duration": 8, "velocity": 81}, {"time": 577, "pitch": 61, "duration": 8, "velocity": 62}, {"time": 577, "pitch": 65, "duration": 7, "velocity": 69}, {"time": 589, "pitch": 58, "duration": 8, "velocity": 83}, {"time": 589, "pitch": 61, "duration": 8, "velocity": 74}, {"time": 589, "pitch": 65, "duration": 7, "velocity": 75}, {"time": 595, "pitch": 46, "duration": 17, "velocity": 38}, {"time": 601, "pitch": 58, "duration": 9, "velocity": 78}, {"time": 601, "pitch": 61, "duration": 10, "velocity": 82}, {"time": 601, "pitch": 65, "duration": 7, "velocity": 77}, {"time": 613, "pitch": 58, "duration": 5, "velocity": 78}, {"time": 613, "pitch": 61, "duration": 4, "velocity": 74}, {"time": 613, "pitch": 65, "duration": 4, "velocity": 72}, {"time": 619, "pitch": 46, "duration": 6, "velocity": 50}, {"time": 625, "pitch": 41, "duration": 12, "velocity": 56}, {"time": 625, "pitch": 53, "duration": 8, "velocity": 88}, {"time": 625, "pitch": 56, "duration": 9, "velocity": 89}, {"time": 625, "pitch": 60, "duration": 7, "velocity": 83}, {"time": 631, "pitch": 48, "duration": 7, "velocity": 38}, {"time": 637, "pitch": 53, "duration": 2, "velocity": 66}, {"time": 637, "pitch": 56, "duration": 2, "velocity": 97}, {"time": 637, "pitch": 60, "duration": 2, "velocity": 90}, {"time": 649, "pitch": 48, "duration": 18, "velocity": 75}, {"time": 649, "pitch": 55, "duration": 14, "velocity": 90}, {"time": 649, "pitch": 60, "duration": 9, "velocity": 89}, {"time": 649, "pitch": 63, "duration": 10, "velocity": 96}, {"time": 649, "pitch": 67, "duration": 10, "velocity": 74}, {"time": 661, "pitch": 63, "duration": 6, "velocity": 117}, {"time": 661, "pitch": 67, "duration": 6, "velocity": 95}, {"time": 667, "pitch": 60, "duration": 1, "velocity": 96}, {"time": 673, "pitch": 41, "duration": 40, "velocity": 72}, {"time": 673, "pitch": 53, "duration": 8, "velocity": 102}, {"time": 673, "pitch": 56, "duration": 9, "velocity": 97}, {"time": 673, "pitch": 60, "duration": 7, "velocity": 93}, {"time": 685, "pitch": 56, "duration": 8, "velocity": 99}, {"time": 685, "pitch": 60, "duration": 9, "velocity": 81}, {"time": 691, "pitch": 48, "duration": 18, "velocity": 36}, {"time": 697, "pitch": 53, "duration": 10, "velocity": 74}, {"time": 697, "pitch": 56, "duration": 10, "velocity": 78}, {"time": 697, "pitch": 60, "duration": 10, "velocity": 74}, {"time": 709, "pitch": 56, "duration": 6, "velocity": 112}, {"time": 709, "pitch": 60, "duration": 6, "velocity": 96}, {"time": 712, "pitch": 48, "duration": 2, "velocity": 89}, {"time": 715, "pitch": 55, "duration": 1, "velocity": 83}, {"time": 721, "pitch": 44, "duration": 43, "velocity": 60}, {"time": 721, "pitch": 51, "duration": 16, "velocity": 83}, {"time": 721, "pitch": 56, "duration": 9, "velocity": 95}, {"time": 721, "pitch": 60, "duration": 7, "velocity": 85}, {"time": 721, "pitch": 63, "duration": 10, "velocity": 77}, {"time": 733, "pitch": 56, "duration": 7, "velocity": 89}, {"time": 733, "pitch": 60, "duration": 7, "velocity": 99}, {"time": 733, "pitch": 63, "duration": 7, "velocity": 90}, {"time": 739, "pitch": 51, "duration": 11, "velocity": 34}, {"time": 745, "pitch": 56, "duration": 7, "velocity": 89}, {"time": 745, "pitch": 60, "duration": 6, "velocity": 96}, {"time": 745, "pitch": 63, "duration": 7, "velocity": 89}, {"time": 751, "pitch": 51, "duration": 8, "velocity": 41}, {"time": 757, "pitch": 56, "duration": 4, "velocity": 96}, {"time": 757, "pitch": 60, "duration": 4, "velocity": 107}, {"time": 757, "pitch": 63, "duration": 5, "velocity": 99}, {"time": 763, "pitch": 51, "duration": 3, "velocity": 50}, {"time": 769, "pitch": 46, "duration": 13, "velocity": 89}, {"time": 769, "pitch": 58, "duration": 9, "velocity": 95}, {"time": 769, "pitch": 61, "duration": 11, "velocity": 88}, {"time": 769, "pitch": 65, "duration": 7, "velocity": 72}, {"time": 781, "pitch": 58, "duration": 5, "velocity": 100}, {"time": 781, "pitch": 61, "duration": 4, "velocity": 99}, {"time": 781, "pitch": 65, "duration": 4, "velocity": 85}, {"time": 787, "pitch": 46, "duration": 5, "velocity": 37}, {"time": 793, "pitch": 51, "duration": 15, "velocity": 90}, {"time": 793, "pitch": 58, "duration": 8, "velocity": 95}, {"time": 793, "pitch": 63, "duration": 8, "velocity": 90}, {"time": 793, "pitch": 67, "duration": 7, "velocity": 85}, {"time": 805, "pitch": 58, "duration": 5, "velocity": 95}, {"time": 805, "pitch": 63, "duration": 4, "velocity": 112}, {"time": 805, "pitch": 67, "duration": 4, "velocity": 88}, {"time": 811, "pitch": 51, "duration": 2, "velocity": 86}, {"time": 817, "pitch": 41, "duration": 20, "velocity": 64}, {"time": 817, "pitch": 53, "duration": 8, "velocity": 97}, {"time": 817, "pitch": 56, "duration": 8, "velocity": 96}, {"time": 817, "pitch": 60, "duration": 9, "velocity": 89}, {"time": 823, "pitch": 48, "duration": 8, "velocity": 53}, {"time": 829, "pitch": 56, "duration": 6, "velocity": 117}, {"time": 829, "pitch": 60, "duration": 8, "velocity": 90}, {"time": 832, "pitch": 48, "duration": 9, "velocity": 37}, {"time": 835, "pitch": 55, "duration": 6, "velocity": 93}, {"time": 841, "pitch": 41, "duration": 17, "velocity": 72}, {"time": 841, "pitch": 56, "duration": 10, "velocity": 107}, {"time": 841, "pitch": 60, "duration": 10, "velocity": 89}, {"time": 847, "pitch": 48, "duration": 7, "velocity": 55}, {"time": 853, "pitch": 56, "duration": 6, "velocity": 117}, {"time": 853, "pitch": 60, "duration": 6, "velocity": 97}, {"time": 856, "pitch": 48, "duration": 2, "velocity": 38}, {"time": 859, "pitch": 55, "duration": 2, "velocity": 92}, {"time": 865, "pitch": 44, "duration": 36, "velocity": 81}, {"time": 865, "pitch": 51, "duration": 16, "velocity": 97}, {"time": 865, "pitch": 56, "duration": 9, "velocity": 112}, {"time": 865, "pitch": 60, "duration": 8, "velocity": 127}, {"time": 865, "pitch": 63, "duration": 8, "velocity": 112}, {"time": 877, "pitch": 48, "duration": 25, "velocity": 25}, {"time": 877, "pitch": 56, "duration": 7, "velocity": 112}, {"time": 877, "pitch": 60, "duration": 6, "velocity": 127}, {"time": 877, "pitch": 63, "duration": 7, "velocity": 107}, {"time": 883, "pitch": 51, "duration": 9, "velocity": 39}, {"time": 889, "pitch": 56, "duration": 6, "velocity": 97}, {"time": 889, "pitch": 60, "duration": 6, "velocity": 122}, {"time": 889, "pitch": 63, "duration": 6, "velocity": 107}, {"time": 895, "pitch": 51, "duration": 6, "velocity": 65}, {"time": 901, "pitch": 56, "duration": 5, "velocity": 102}, {"time": 901, "pitch": 60, "duration": 4, "velocity": 107}, {"time": 901, "pitch": 63, "duration": 4, "velocity": 107}, {"time": 907, "pitch": 43, "duration": 6, "velocity": 81}, {"time": 913, "pitch": 41, "duration": 39, "velocity": 72}, {"time": 913, "pitch": 53, "duration": 8, "velocity": 95}, {"time": 913, "pitch": 56, "duration": 7, "velocity": 107}, {"time": 913, "pitch": 60, "duration": 7, "velocity": 90}, {"time": 919, "pitch": 48, "duration": 10, "velocity": 37}, {"time": 925, "pitch": 53, "duration": 9, "velocity": 92}, {"time": 925, "pitch": 56, "duration": 9, "velocity": 107}, {"time": 925, "pitch": 60, "duration": 9, "velocity": 92}, {"time": 931, "pitch": 48, "duration": 9, "velocity": 44}, {"time": 937, "pitch": 53, "duration": 7, "velocity": 85}, {"time": 937, "pitch": 56, "duration": 7, "velocity": 112}, {"time": 937, "pitch": 60, "duration": 7, "velocity": 89}, {"time": 943, "pitch": 48, "duration": 7, "velocity": 47}, {"time": 949, "pitch": 53, "duration": 2, "velocity": 93}, {"time": 949, "pitch": 56, "duration": 2, "velocity": 117}, {"time": 949, "pitch": 60, "duration": 2, "velocity": 96}, {"time": 955, "pitch": 48, "duration": 2, "velocity": 90}, {"time": 961, "pitch": 49, "duration": 15, "velocity": 112}, {"time": 961, "pitch": 61, "duration": 7, "velocity": 102}, {"time": 961, "pitch": 65, "duration": 5, "velocity": 97}, {"time": 961, "pitch": 68, "duration": 7, "velocity": 102}, {"time": 973, "pitch": 61, "duration": 4, "velocity": 95}, {"time": 973, "pitch": 65, "duration": 3, "velocity": 117}, {"time": 973, "pitch": 68, "duration": 4, "velocity": 100}, {"time": 979, "pitch": 49, "duration": 4, "velocity": 77}, {"time": 985, "pitch": 51, "duration": 15, "velocity": 112}, {"time": 985, "pitch": 58, "duration": 7, "velocity": 107}, {"time": 985, "pitch": 63, "duration": 7, "velocity": 117}, {"time": 985, "pitch": 67, "duration": 6, "velocity": 86}, {"time": 997, "pitch": 58, "duration": 6, "velocity": 102}, {"time": 997, "pitch": 63, "duration": 5, "velocity": 117}, {"time": 997, "pitch": 67, "duration": 5, "velocity": 89}, {"time": 1003, "pitch": 51, "duration": 4, "velocity": 92}, {"time": 1009, "pitch": 44, "duration": 15, "velocity": 90}, {"time": 1009, "pitch": 56, "duration": 7, "velocity": 95}, {"time": 1009, "pitch": 60, "duration": 6, "velocity": 95}, {"time": 1009, "pitch": 63, "duration": 6, "velocity": 99}, {"time": 1021, "pitch": 56, "duration": 5, "velocity": 112}, {"time": 1021, "pitch": 60, "duration": 6, "velocity": 112}, {"time": 1021, "pitch": 63, "duration": 6, "velocity": 112}, {"time": 1027, "pitch": 44, "duration": 5, "velocity": 93}, {"time": 1033, "pitch": 48, "duration": 15, "velocity": 96}, {"time": 1033, "pitch": 55, "duration": 9, "velocity": 97}, {"time": 1033, "pitch": 60, "duration": 9, "velocity": 99}, {"time": 1033, "pitch": 64, "duration": 7, "velocity": 93}, {"time": 1045, "pitch": 55, "duration": 6, "velocity": 96}, {"time": 1045, "pitch": 60, "duration": 5, "velocity": 107}, {"time": 1045, "pitch": 64, "duration": 6, "velocity": 95}, {"time": 1051, "pitch": 48, "duration": 5, "velocity": 86}, {"time": 1057, "pitch": 46, "duration": 38, "velocity": 96}, {"time": 1057, "pitch": 58, "duration": 10, "velocity": 96}, {"time": 1057, "pitch": 61, "duration": 10, "velocity": 86}, {"time": 1057, "pitch": 65, "duration": 10, "velocity": 72}, {"time": 1069, "pitch": 58, "duration": 8, "velocity": 55}, {"time": 1069, "pitch": 61, "duration": 9, "velocity": 55}, {"time": 1069, "pitch": 65, "duration": 8, "velocity": 58}, {"time": 1081, "pitch": 58, "duration": 10, "velocity": 45}, {"time": 1081, "pitch": 61, "duration": 10, "velocity": 42}, {"time": 1081, "pitch": 65, "duration": 9, "velocity": 50}, {"time": 1093, "pitch": 61, "duration": 6, "velocity": 72}, {"time": 1093, "pitch": 65, "duration": 6, "velocity": 66}, {"time": 1105, "pitch": 41, "duration": 11, "velocity": 73}, {"time": 1105, "pitch": 53, "duration": 7, "velocity": 82}, {"time": 1105, "pitch": 56, "duration": 7, "velocity": 82}, {"time": 1105, "pitch": 60, "duration": 7, "velocity": 77}, {"time": 1111, "pitch": 48, "duration": 6, "velocity": 53}, {"time": 1117, "pitch": 56, "duration": 1, "velocity": 77}, {"time": 1117, "pitch": 60, "duration": 2, "velocity": 74}, {"time": 1129, "pitch": 48, "duration": 22, "velocity": 68}, {"time": 1129, "pitch": 55, "duration": 16, "velocity": 69}, {"time": 1129, "pitch": 60, "duration": 9, "velocity": 83}, {"time": 1129, "pitch": 63, "duration": 10, "velocity": 85}, {"time": 1129, "pitch": 67, "duration": 7, "velocity": 62}, {"time": 1141, "pitch": 60, "duration": 5, "velocity": 86}, {"time": 1141, "pitch": 63, "duration": 4, "velocity": 99}, {"time": 1141, "pitch": 67, "duration": 5, "velocity": 86}, {"time": 1147, "pitch": 55, "duration": 3, "velocity": 61}, {"time": 1153, "pitch": 51, "duration": 21, "velocity": 69}, {"time": 1153, "pitch": 58, "duration": 20, "velocity": 93}, {"time": 1153, "pitch": 63, "duration": 21, "velocity": 83}, {"time": 1153, "pitch": 67, "duration": 18, "velocity": 56}, {"time": 1177, "pitch": 51, "duration": 5, "velocity": 64}, {"time": 1177, "pitch": 58, "duration": 5, "velocity": 92}, {"time": 1177, "pitch": 63, "duration": 5, "velocity": 88}, {"time": 1177, "pitch": 67, "duration": 5, "velocity": 79}, {"time": 1201, "pitch": 41, "duration": 21, "velocity": 74}, {"time": 1201, "pitch": 53, "duration": 7, "velocity": 88}, {"time": 1201, "pitch": 56, "duration": 8, "velocity": 93}, {"time": 1201, "pitch": 60, "duration": 8, "velocity": 88}, {"time": 1207, "pitch": 48, "duration": 8, "velocity": 37}, {"time": 1213, "pitch": 56, "duration": 6, "velocity": 102}, {"time": 1213, "pitch": 60, "duration": 10, "velocity": 86}, {"time": 1216, "pitch": 48, "duration": 9, "velocity": 31}, {"time": 1219, "pitch": 55, "duration": 11, "velocity": 71}, {"time": 1225, "pitch": 41, "duration": 20, "velocity": 78}, {"time": 1231, "pitch": 48, "duration": 9, "velocity": 45}, {"time": 1237, "pitch": 56, "duration": 7, "velocity": 112}, {"time": 1237, "pitch": 60, "duration": 6, "velocity": 99}, {"time": 1243, "pitch": 48, "duration": 5, "velocity": 70}, {"time": 1249, "pitch": 46, "duration": 41, "velocity": 82}, {"time": 1249, "pitch": 53, "duration": 22, "velocity": 77}, {"time": 1249, "pitch": 58, "duration": 23, "velocity": 99}, {"time": 1249, "pitch": 61, "duration": 21, "velocity": 96}, {"time": 1273, "pitch": 53, "duration": 11, "velocity": 62}, {"time": 1273, "pitch": 58, "duration": 11, "velocity": 89}, {"time": 1273, "pitch": 61, "duration": 11, "velocity": 89}, {"time": 1285, "pitch": 58, "duration": 7, "velocity": 107}, {"time": 1285, "pitch": 61, "duration": 6, "velocity": 100}, {"time": 1291, "pitch": 53, "duration": 5, "velocity": 66}, {"time": 1297, "pitch": 41, "duration": 36, "velocity": 68}, {"time": 1297, "pitch": 53, "duration": 6, "velocity": 69}, {"time": 1297, "pitch": 56, "duration": 17, "velocity": 81}, {"time": 1297, "pitch": 60, "duration": 21, "velocity": 77}, {"time": 1303, "pitch": 48, "duration": 8, "velocity": 45}, {"time": 1309, "pitch": 53, "duration": 14, "velocity": 60}, {"time": 1315, "pitch": 48, "duration": 10, "velocity": 42}, {"time": 1321, "pitch": 56, "duration": 8, "velocity": 75}, {"time": 1321, "pitch": 60, "duration": 10, "velocity": 70}, {"time": 1327, "pitch": 48, "duration": 5, "velocity": 44}, {"time": 1333, "pitch": 56, "duration": 5, "velocity": 95}, {"time": 1333, "pitch": 60, "duration": 4, "velocity": 89}, {"time": 1345, "pitch": 51, "duration": 13, "velocity": 89}, {"time": 1345, "pitch": 55, "duration": 9, "velocity": 86}, {"time": 1345, "pitch": 58, "duration": 10, "velocity": 102}, {"time": 1345, "pitch": 63, "duration": 10, "velocity": 95}, {"time": 1357, "pitch": 55, "duration": 5, "velocity": 78}, {"time": 1357, "pitch": 58, "duration": 8, "velocity": 122}, {"time": 1357, "pitch": 63, "duration": 8, "velocity": 100}, {"time": 1360, "pitch": 51, "duration": 1, "velocity": 95}, {"time": 1363, "pitch": 55, "duration": 3, "velocity": 90}, {"time": 1369, "pitch": 36, "duration": 9, "velocity": 79}, {"time": 1369, "pitch": 55, "duration": 8, "velocity": 97}, {"time": 1369, "pitch": 60, "duration": 8, "velocity": 93}, {"time": 1369, "pitch": 63, "duration": 8, "velocity": 97}, {"time": 1393, "pitch": 41, "duration": 42, "velocity": 69}, {"time": 1393, "pitch": 53, "duration": 6, "velocity": 90}, {"time": 1393, "pitch": 56, "duration": 9, "velocity": 97}, {"time": 1393, "pitch": 60, "duration": 10, "velocity": 90}, {"time": 1399, "pitch": 48, "duration": 7, "velocity": 52}, {"time": 1405, "pitch": 55, "duration": 9, "velocity": 97}, {"time": 1411, "pitch": 48, "duration": 9, "velocity": 61}, {"time": 1417, "pitch": 53, "duration": 10, "velocity": 99}, {"time": 1417, "pitch": 56, "duration": 10, "velocity": 117}, {"time": 1417, "pitch": 60, "duration": 10, "velocity": 95}, {"time": 1423, "pitch": 48, "duration": 8, "velocity": 46}, {"time": 1429, "pitch": 53, "duration": 5, "velocity": 93}, {"time": 1429, "pitch": 56, "duration": 4, "velocity": 107}, {"time": 1429, "pitch": 60, "duration": 5, "velocity": 95}, {"time": 1435, "pitch": 48, "duration": 1, "velocity": 73}, {"time": 1441, "pitch": 49, "duration": 1, "velocity": 53}, {"time": 1441, "pitch": 56, "duration": 30, "velocity": 93}, {"time": 1441, "pitch": 61, "duration": 10, "velocity": 96}, {"time": 1441, "pitch": 65, "duration": 8, "velocity": 83}, {"time": 1441, "pitch": 68, "duration": 9, "velocity": 90}, {"time": 1444, "pitch": 53, "duration": 38, "velocity": 18}, {"time": 1453, "pitch": 61, "duration": 9, "velocity": 88}, {"time": 1453, "pitch": 65, "duration": 7, "velocity": 93}, {"time": 1453, "pitch": 68, "duration": 7, "velocity": 81}, {"time": 1459, "pitch": 49, "duration": 21, "velocity": 42}, {"time": 1465, "pitch": 61, "duration": 8, "velocity": 63}, {"time": 1465, "pitch": 65, "duration": 8, "velocity": 73}, {"time": 1465, "pitch": 68, "duration": 8, "velocity": 51}, {"time": 1471, "pitch": 56, "duration": 6, "velocity": 41}, {"time": 1477, "pitch": 61, "duration": 1, "velocity": 57}, {"time": 1477, "pitch": 65, "duration": 6, "velocity": 107}, {"time": 1477, "pitch": 68, "duration": 6, "velocity": 102}, {"time": 1480, "pitch": 56, "duration": 2, "velocity": 88}, {"time": 1483, "pitch": 61, "duration": 1, "velocity": 95}, {"time": 1489, "pitch": 41, "duration": 10, "velocity": 70}, {"time": 1489, "pitch": 53, "duration": 8, "velocity": 99}, {"time": 1489, "pitch": 56, "duration": 8, "velocity": 97}, {"time": 1489, "pitch": 60, "duration": 7, "velocity": 88}, {"time": 1495, "pitch": 48, "duration": 3, "velocity": 53}, {"time": 1501, "pitch": 53, "duration": 1, "velocity": 72}, {"time": 1501, "pitch": 56, "duration": 2, "velocity": 112}, {"time": 1501, "pitch": 60, "duration": 2, "velocity": 93}, {"time": 1513, "pitch": 48, "duration": 19, "velocity": 73}, {"time": 1513, "pitch": 55, "duration": 13, "velocity": 77}, {"time": 1513, "pitch": 60, "duration": 10, "velocity": 93}, {"time": 1513, "pitch": 63, "duration": 10, "velocity": 97}, {"time": 1513, "pitch": 67, "duration": 8, "velocity": 82}, {"time": 1522, "pitch": 51, "duration": 14, "velocity": 42}, {"time": 1525, "pitch": 63, "duration": 4, "velocity": 127}, {"time": 1525, "pitch": 67, "duration": 3, "velocity": 95}, {"time": 1531, "pitch": 55, "duration": 3, "velocity": 63}, {"time": 1537, "pitch": 46, "duration": 16, "velocity": 88}, {"time": 1537, "pitch": 58, "duration": 9, "velocity": 100}, {"time": 1537, "pitch": 61, "duration": 10, "velocity": 97}, {"time": 1537, "pitch": 65, "duration": 10, "velocity": 90}, {"time": 1549, "pitch": 58, "duration": 3, "velocity": 92}, {"time": 1549, "pitch": 61, "duration": 3, "velocity": 96}, {"time": 1549, "pitch": 65, "duration": 3, "velocity": 88}, {"time": 1555, "pitch": 46, "duration": 4, "velocity": 55}, {"time": 1561, "pitch": 51, "duration": 16, "velocity": 107}, {"time": 1561, "pitch": 63, "duration": 6, "velocity": 107}, {"time": 1561, "pitch": 67, "duration": 6, "velocity": 112}, {"time": 1561, "pitch": 70, "duration": 6, "velocity": 102}, {"time": 1573, "pitch": 63, "duration": 4, "velocity": 97}, {"time": 1573, "pitch": 67, "duration": 2, "velocity": 122}, {"time": 1573, "pitch": 70, "duration": 4, "velocity": 112}, {"time": 1585, "pitch": 44, "duration": 17, "velocity": 63}, {"time": 1585, "pitch": 51, "duration": 13, "velocity": 99}, {"time": 1585, "pitch": 56, "duration": 7, "velocity": 107}, {"time": 1585, "pitch": 60, "duration": 7, "velocity": 122}, {"time": 1585, "pitch": 63, "duration": 8, "velocity": 127}, {"time": 1591, "pitch": 48, "duration": 10, "velocity": 40}, {"time": 1594, "pitch": 56, "duration": 1, "velocity": 24}, {"time": 1597, "pitch": 56, "duration": 2, "velocity": 117}, {"time": 1597, "pitch": 60, "duration": 1, "velocity": 127}, {"time": 1597, "pitch": 63, "duration": 2, "velocity": 127}, {"time": 1603, "pitch": 51, "duration": 1, "velocity": 50}, {"time": 1609, "pitch": 48, "duration": 11, "velocity": 96}, {"time": 1609, "pitch": 52, "duration": 11, "velocity": 102}, {"time": 1609, "pitch": 55, "duration": 10, "velocity": 117}, {"time": 1609, "pitch": 60, "duration": 4, "velocity": 99}, {"time": 1609, "pitch": 62, "duration": 1, "velocity": 83}, {"time": 1609, "pitch": 64, "duration": 4, "velocity": 107}, {"time": 1609, "pitch": 67, "duration": 4, "velocity": 107}, {"time": 1615, "pitch": 60, "duration": 5, "velocity": 112}, {"time": 1615, "pitch": 64, "duration": 4, "velocity": 100}, {"time": 1615, "pitch": 67, "duration": 5, "velocity": 99}, {"time": 1621, "pitch": 48, "duration": 6, "velocity": 99}, {"time": 1621, "pitch": 52, "duration": 5, "velocity": 107}, {"time": 1621, "pitch": 55, "duration": 5, "velocity": 122}, {"time": 1621, "pitch": 60, "duration": 5, "velocity": 112}, {"time": 1621, "pitch": 64, "duration": 5, "velocity": 112}, {"time": 1621, "pitch": 67, "duration": 5, "velocity": 112}, {"time": 1627, "pitch": 60, "duration": 2, "velocity": 122}, {"time": 1633, "pitch": 41, "duration": 19, "velocity": 73}, {"time": 1633, "pitch": 53, "duration": 8, "velocity": 100}, {"time": 1633, "pitch": 56, "duration": 8, "velocity": 112}, {"time": 1633, "pitch": 60, "duration": 10, "velocity": 96}, {"time": 1639, "pitch": 48, "duration": 9, "velocity": 49}, {"time": 1645, "pitch": 53, "duration": 6, "velocity": 99}, {"time": 1645, "pitch": 56, "duration": 3, "velocity": 117}, {"time": 1645, "pitch": 60, "duration": 4, "velocity": 95}, {"time": 1651, "pitch": 48, "duration": 2, "velocity": 76}, {"time": 1657, "pitch": 51, "duration": 15, "velocity": 112}, {"time": 1657, "pitch": 55, "duration": 9, "velocity": 102}, {"time": 1657, "pitch": 58, "duration": 10, "velocity": 117}, {"time": 1657, "pitch": 63, "duration": 10, "velocity": 107}, {"time": 1669, "pitch": 55, "duration": 3, "velocity": 97}, {"time": 1669, "pitch": 58, "duration": 2, "velocity": 127}, {"time": 1669, "pitch": 63, "duration": 3, "velocity": 107}, {"time": 1672, "pitch": 51, "duration": 2, "velocity": 67}, {"time": 1681, "pitch": 37, "duration": 18, "velocity": 127}, {"time": 1681, "pitch": 56, "duration": 10, "velocity": 90}, {"time": 1681, "pitch": 61, "duration": 7, "velocity": 72}, {"time": 1681, "pitch": 65, "duration": 6, "velocity": 78}, {"time": 1687, "pitch": 49, "duration": 8, "velocity": 63}, {"time": 1693, "pitch": 56, "duration": 5, "velocity": 112}, {"time": 1693, "pitch": 61, "duration": 4, "velocity": 76}, {"time": 1693, "pitch": 65, "duration": 4, "velocity": 79}, {"time": 1696, "pitch": 49, "duration": 2, "velocity": 40}, {"time": 1705, "pitch": 36, "duration": 18, "velocity": 72}, {"time": 1705, "pitch": 55, "duration": 10, "velocity": 97}, {"time": 1705, "pitch": 60, "duration": 10, "velocity": 100}, {"time": 1705, "pitch": 63, "duration": 10, "velocity": 112}, {"time": 1711, "pitch": 48, "duration": 8, "velocity": 41}, {"time": 1717, "pitch": 55, "duration": 7, "velocity": 97}, {"time": 1717, "pitch": 60, "duration": 4, "velocity": 100}, {"time": 1717, "pitch": 63, "duration": 4, "velocity": 112}, {"time": 1720, "pitch": 48, "duration": 2, "velocity": 77}, {"time": 1729, "pitch": 39, "duration": 15, "velocity": 97}, {"time": 1729, "pitch": 55, "duration": 10, "velocity": 96}, {"time": 1729, "pitch": 58, "duration": 10, "velocity": 117}, {"time": 1729, "pitch": 63, "duration": 10, "velocity": 102}, {"time": 1735, "pitch": 51, "duration": 5, "velocity": 47}, {"time": 1741, "pitch": 58, "duration": 5, "velocity": 122}, {"time": 1741, "pitch": 63, "duration": 5, "velocity": 107}, {"time": 1753, "pitch": 36, "duration": 14, "velocity": 72}, {"time": 1753, "pitch": 48, "duration": 13, "velocity": 95}, {"time": 1753, "pitch": 51, "duration": 14, "velocity": 97}, {"time": 1753, "pitch": 55, "duration": 14, "velocity": 88}, {"time": 1777, "pitch": 41, "duration": 48, "velocity": 73}, {"time": 1777, "pitch": 53, "duration": 1, "velocity": 69}, {"time": 1777, "pitch": 56, "duration": 13, "velocity": 95}, {"time": 1777, "pitch": 60, "duration": 23, "velocity": 82}, {"time": 1783, "pitch": 48, "duration": 8, "velocity": 54}, {"time": 1789, "pitch": 55, "duration": 28, "velocity": 93}, {"time": 1795, "pitch": 48, "duration": 29, "velocity": 38}, {"time": 1801, "pitch": 56, "duration": 24, "velocity": 58}, {"time": 1801, "pitch": 60, "duration": 24, "velocity": 67}, {"time": 1825, "pitch": 41, "duration": 36, "velocity": 68}, {"time": 1825, "pitch": 53, "duration": 11, "velocity": 89}, {"time": 1825, "pitch": 56, "duration": 11, "velocity": 88}, {"time": 1825, "pitch": 60, "duration": 10, "velocity": 79}, {"time": 1831, "pitch": 48, "duration": 10, "velocity": 39}, {"time": 1837, "pitch": 56, "duration": 9, "velocity": 69}, {"time": 1837, "pitch": 60, "duration": 8, "velocity": 67}, {"time": 1843, "pitch": 48, "duration": 9, "velocity": 41}, {"time": 1849, "pitch": 53, "duration": 6, "velocity": 42}, {"time": 1849, "pitch": 56, "duration": 6, "velocity": 53}, {"time": 1849, "pitch": 60, "duration": 5, "velocity": 57}, {"time": 1855, "pitch": 48, "duration": 5, "velocity": 38}, {"time": 1861, "pitch": 56, "duration": 9, "velocity": 100}, {"time": 1861, "pitch": 60, "duration": 9, "velocity": 90}, {"time": 1873, "pitch": 44, "duration": 43, "velocity": 55}, {"time": 1873, "pitch": 51, "duration": 14, "velocity": 75}, {"time": 1873, "pitch": 56, "duration": 8, "velocity": 92}, {"time": 1873, "pitch": 60, "duration": 7, "velocity": 92}, {"time": 1873, "pitch": 63, "duration": 7, "velocity": 95}, {"time": 1885, "pitch": 56, "duration": 7, "velocity": 83}, {"time": 1885, "pitch": 60, "duration": 7, "velocity": 90}, {"time": 1885, "pitch": 63, "duration": 7, "velocity": 88}, {"time": 1891, "pitch": 48, "duration": 26, "velocity": 1}, {"time": 1891, "pitch": 51, "duration": 20, "velocity": 36}, {"time": 1897, "pitch": 56, "duration": 7, "velocity": 70}, {"time": 1897, "pitch": 60, "duration": 6, "velocity": 86}, {"time": 1897, "pitch": 63, "duration": 7, "velocity": 79}, {"time": 1909, "pitch": 56, "duration": 3, "velocity": 92}, {"time": 1909, "pitch": 60, "duration": 2, "velocity": 95}, {"time": 1909, "pitch": 63, "duration": 2, "velocity": 85}, {"time": 1915, "pitch": 51, "duration": 3, "velocity": 45}, {"time": 1921, "pitch": 46, "duration": 14, "velocity": 68}, {"time": 1921, "pitch": 58, "duration": 8, "velocity": 81}, {"time": 1921, "pitch": 61, "duration": 8, "velocity": 62}, {"time": 1921, "pitch": 65, "duration": 7, "velocity": 69}, {"time": 1933, "pitch": 58, "duration": 8, "velocity": 83}, {"time": 1933, "pitch": 61, "duration": 8, "velocity": 74}, {"time": 1933, "pitch": 65, "duration": 7, "velocity": 75}, {"time": 1939, "pitch": 46, "duration": 17, "velocity": 38}, {"time": 1945, "pitch": 58, "duration": 9, "velocity": 78}, {"time": 1945, "pitch": 61, "duration": 10, "velocity": 82}, {"time": 1945, "pitch": 65, "duration": 7, "velocity": 77}, {"time": 1957, "pitch": 58, "duration": 5, "velocity": 78}, {"time": 1957, "pitch": 61, "duration": 4, "velocity": 74}, {"time": 1957, "pitch": 65, "duration": 4, "velocity": 72}, {"time": 1963, "pitch": 46, "duration": 6, "velocity": 50}, {"time": 1969, "pitch": 41, "duration": 12, "velocity": 56}, {"time": 1969, "pitch": 53, "duration": 8, "velocity": 88}, {"time": 1969, "pitch": 56, "duration": 9, "velocity": 89}, {"time": 1969, "pitch": 60, "duration": 7, "velocity": 83}, {"time": 1975, "pitch": 48, "duration": 7, "velocity": 38}, {"time": 1981, "pitch": 53, "duration": 2, "velocity": 66}, {"time": 1981, "pitch": 56, "duration": 2, "velocity": 97}, {"time": 1981, "pitch": 60, "duration": 2, "velocity": 90}, {"time": 1993, "pitch": 48, "duration": 18, "velocity": 75}, {"time": 1993, "pitch": 55, "duration": 14, "velocity": 90}, {"time": 1993, "pitch": 60, "duration": 9, "velocity": 89}, {"time": 1993, "pitch": 63, "duration": 10, "velocity": 96}, {"time": 1993, "pitch": 67, "duration": 10, "velocity": 74}, {"time": 2005, "pitch": 63, "duration": 6, "velocity": 117}, {"time": 2005, "pitch": 67, "duration": 6, "velocity": 95}, {"time": 2011, "pitch": 60, "duration": 1, "velocity": 96}, {"time": 2017, "pitch": 41, "duration": 40, "velocity": 72}, {"time": 2017, "pitch": 53, "duration": 8, "velocity": 102}, {"time": 2017, "pitch": 56, "duration": 9, "velocity": 97}, {"time": 2017, "pitch": 60, "duration": 7, "velocity": 93}, {"time": 2029, "pitch": 56, "duration": 8, "velocity": 99}, {"time": 2029, "pitch": 60, "duration": 9, "velocity": 81}, {"time": 2035, "pitch": 48, "duration": 18, "velocity": 36}, {"time": 2041, "pitch": 53, "duration": 10, "velocity": 74}, {"time": 2041, "pitch": 56, "duration": 10, "velocity": 78}, {"time": 2041, "pitch": 60, "duration": 10, "velocity": 74}, {"time": 2053, "pitch": 56, "duration": 6, "velocity": 112}, {"time": 2053, "pitch": 60, "duration": 6, "velocity": 96}, {"time": 2056, "pitch": 48, "duration": 2, "velocity": 89}, {"time": 2059, "pitch": 55, "duration": 1, "velocity": 83}, {"time": 2065, "pitch": 44, "duration": 43, "velocity": 60}, {"time": 2065, "pitch": 51, "duration": 16, "velocity": 83}, {"time": 2065, "pitch": 56, "duration": 9, "velocity": 95}, {"time": 2065, "pitch": 60, "duration": 7, "velocity": 85}, {"time": 2065, "pitch": 63, "duration": 10, "velocity": 77}, {"time": 2077, "pitch": 56, "duration": 7, "velocity": 89}, {"time": 2077, "pitch": 60, "duration": 7, "velocity": 99}, {"time": 2077, "pitch": 63, "duration": 7, "velocity": 90}, {"time": 2083, "pitch": 51, "duration": 11, "velocity": 34}, {"time": 2089, "pitch": 56, "duration": 7, "velocity": 89}, {"time": 2089, "pitch": 60, "duration": 6, "velocity": 96}, {"time": 2089, "pitch": 63, "duration": 7, "velocity": 89}, {"time": 2095, "pitch": 51, "duration": 8, "velocity": 41}, {"time": 2101, "pitch": 56, "duration": 4, "velocity": 96}, {"time": 2101, "pitch": 60, "duration": 4, "velocity": 107}, {"time": 2101, "pitch": 63, "duration": 5, "velocity": 99}, {"time": 2107, "pitch": 51, "duration": 3, "velocity": 50}, {"time": 2113, "pitch": 46, "duration": 13, "velocity": 89}, {"time": 2113, "pitch": 58, "duration": 9, "velocity": 95}, {"time": 2113, "pitch": 61, "duration": 11, "velocity": 88}, {"time": 2113, "pitch": 65, "duration": 7, "velocity": 72}, {"time": 2125, "pitch": 58, "duration": 5, "velocity": 100}, {"time": 2125, "pitch": 61, "duration": 4, "velocity": 99}, {"time": 2125, "pitch": 65, "duration": 4, "velocity": 85}, {"time": 2131, "pitch": 46, "duration": 5, "velocity": 37}, {"time": 2137, "pitch": 51, "duration": 15, "velocity": 90}, {"time": 2137, "pitch": 58, "duration": 8, "velocity": 95}, {"time": 2137, "pitch": 63, "duration": 8, "velocity": 90}, {"time": 2137, "pitch": 67, "duration": 7, "velocity": 85}, {"time": 2149, "pitch": 58, "duration": 5, "velocity": 95}, {"time": 2149, "pitch": 63, "duration": 4, "velocity": 112}, {"time": 2149, "pitch": 67, "duration": 4, "velocity": 88}, {"time": 2155, "pitch": 51, "duration": 2, "velocity": 86}, {"time": 2161, "pitch": 41, "duration": 20, "velocity": 64}, {"time": 2161, "pitch": 53, "duration": 8, "velocity": 97}, {"time": 2161, "pitch": 56, "duration": 8, "velocity": 96}, {"time": 2161, "pitch": 60, "duration": 9, "velocity": 89}, {"time": 2167, "pitch": 48, "duration": 8, "velocity": 53}, {"time": 2173, "pitch": 56, "duration": 6, "velocity": 117}, {"time": 2173, "pitch": 60, "duration": 8, "velocity": 90}, {"time": 2176, "pitch": 48, "duration": 9, "velocity": 37}, {"time": 2179, "pitch": 55, "duration": 6, "velocity": 93}, {"time": 2185, "pitch": 41, "duration": 17, "velocity": 72}, {"time": 2185, "pitch": 56, "duration": 10, "velocity": 107}, {"time": 2185, "pitch": 60, "duration": 10, "velocity": 89}, {"time": 2191, "pitch": 48, "duration": 7, "velocity": 55}, {"time": 2197, "pitch": 56, "duration": 6, "velocity": 117}, {"time": 2197, "pitch": 60, "duration": 6, "velocity": 97}, {"time": 2200, "pitch": 48, "duration": 2, "velocity": 38}, {"time": 2203, "pitch": 55, "duration": 2, "velocity": 92}, {"time": 2209, "pitch": 44, "duration": 36, "velocity": 81}, {"time": 2209, "pitch": 51, "duration": 16, "velocity": 97}, {"time": 2209, "pitch": 56, "duration": 9, "velocity": 112}, {"time": 2209, "pitch": 60, "duration": 8, "velocity": 127}, {"time": 2209, "pitch": 63, "duration": 8, "velocity": 112}, {"time": 2221, "pitch": 48, "duration": 25, "velocity": 25}, {"time": 2221, "pitch": 56, "duration": 7, "velocity": 112}, {"time": 2221, "pitch": 60, "duration": 6, "velocity": 127}, {"time": 2221, "pitch": 63, "duration": 7, "velocity": 107}, {"time": 2227, "pitch": 51, "duration": 9, "velocity": 39}, {"time": 2233, "pitch": 56, "duration": 6, "velocity": 97}, {"time": 2233, "pitch": 60, "duration": 6, "velocity": 122}, {"time": 2233, "pitch": 63, "duration": 6, "velocity": 107}, {"time": 2239, "pitch": 51, "duration": 6, "velocity": 65}, {"time": 2245, "pitch": 56, "duration": 5, "velocity": 102}, {"time": 2245, "pitch": 60, "duration": 4, "velocity": 107}, {"time": 2245, "pitch": 63, "duration": 4, "velocity": 107}, {"time": 2251, "pitch": 43, "duration": 6, "velocity": 81}, {"time": 2257, "pitch": 41, "duration": 39, "velocity": 72}, {"time": 2257, "pitch": 53, "duration": 8, "velocity": 95}, {"time": 2257, "pitch": 56, "duration": 7, "velocity": 107}, {"time": 2257, "pitch": 60, "duration": 7, "velocity": 90}, {"time": 2263, "pitch": 48, "duration": 10, "velocity": 37}, {"time": 2269, "pitch": 53, "duration": 9, "velocity": 92}, {"time": 2269, "pitch": 56, "duration": 9, "velocity": 107}, {"time": 2269, "pitch": 60, "duration": 9, "velocity": 92}, {"time": 2275, "pitch": 48, "duration": 9, "velocity": 44}, {"time": 2281, "pitch": 53, "duration": 7, "velocity": 85}, {"time": 2281, "pitch": 56, "duration": 7, "velocity": 112}, {"time": 2281, "pitch": 60, "duration": 7, "velocity": 89}, {"time": 2287, "pitch": 48, "duration": 7, "velocity": 47}, {"time": 2293, "pitch": 53, "duration": 2, "velocity": 93}, {"time": 2293, "pitch": 56, "duration": 2, "velocity": 117}, {"time": 2293, "pitch": 60, "duration": 2, "velocity": 96}, {"time": 2299, "pitch": 48, "duration": 2, "velocity": 90}, {"time": 2305, "pitch": 49, "duration": 15, "velocity": 112}, {"time": 2305, "pitch": 61, "duration": 7, "velocity": 102}, {"time": 2305, "pitch": 65, "duration": 5, "velocity": 97}, {"time": 2305, "pitch": 68, "duration": 7, "velocity": 102}, {"time": 2317, "pitch": 61, "duration": 4, "velocity": 95}, {"time": 2317, "pitch": 65, "duration": 3, "velocity": 117}, {"time": 2317, "pitch": 68, "duration": 4, "velocity": 100}, {"time": 2323, "pitch": 49, "duration": 4, "velocity": 77}, {"time": 2329, "pitch": 51, "duration": 15, "velocity": 112}, {"time": 2329, "pitch": 58, "duration": 7, "velocity": 107}, {"time": 2329, "pitch": 63, "duration": 7, "velocity": 117}, {"time": 2329, "pitch": 67, "duration": 6, "velocity": 86}, {"time": 2341, "pitch": 58, "duration": 6, "velocity": 102}, {"time": 2341, "pitch": 63, "duration": 5, "velocity": 117}, {"time": 2341, "pitch": 67, "duration": 5, "velocity": 89}, {"time": 2347, "pitch": 51, "duration": 4, "velocity": 92}, {"time": 2353, "pitch": 44, "duration": 15, "velocity": 90}, {"time": 2353, "pitch": 56, "duration": 7, "velocity": 95}, {"time": 2353, "pitch": 60, "duration": 6, "velocity": 95}, {"time": 2353, "pitch": 63, "duration": 6, "velocity": 99}, {"time": 2365, "pitch": 56, "duration": 5, "velocity": 112}, {"time": 2365, "pitch": 60, "duration": 6, "velocity": 112}, {"time": 2365, "pitch": 63, "duration": 6, "velocity": 112}, {"time": 2371, "pitch": 44, "duration": 5, "velocity": 93}, {"time": 2377, "pitch": 48, "duration": 15, "velocity": 96}, {"time": 2377, "pitch": 55, "duration": 9, "velocity": 97}, {"time": 2377, "pitch": 60, "duration": 9, "velocity": 99}, {"time": 2377, "pitch": 64, "duration": 7, "velocity": 93}, {"time": 2389, "pitch": 55, "duration": 6, "velocity": 96}, {"time": 2389, "pitch": 60, "duration": 5, "velocity": 107}, {"time": 2389, "pitch": 64, "duration": 6, "velocity": 95}, {"time": 2395, "pitch": 48, "duration": 5, "velocity": 86}, {"time": 2401, "pitch": 46, "duration": 38, "velocity": 96}, {"time": 2401, "pitch": 58, "duration": 10, "velocity": 96}, {"time": 2401, "pitch": 61, "duration": 10, "velocity": 86}, {"time": 2401, "pitch": 65, "duration": 10, "velocity": 72}, {"time": 2413, "pitch": 58, "duration": 8, "velocity": 55}, {"time": 2413, "pitch": 61, "duration": 9, "velocity": 55}, {"time": 2413, "pitch": 65, "duration": 8, "velocity": 58}, {"time": 2425, "pitch": 58, "duration": 10, "velocity": 45}, {"time": 2425, "pitch": 61, "duration": 10, "velocity": 42}, {"time": 2425, "pitch": 65, "duration": 9, "velocity": 50}, {"time": 2437, "pitch": 61, "duration": 6, "velocity": 72}, {"time": 2437, "pitch": 65, "duration": 6, "velocity": 66}, {"time": 2449, "pitch": 41, "duration": 11, "velocity": 73}, {"time": 2449, "pitch": 53, "duration": 7, "velocity": 82}, {"time": 2449, "pitch": 56, "duration": 7, "velocity": 82}, {"time": 2449, "pitch": 60, "duration": 7, "velocity": 77}, {"time": 2455, "pitch": 48, "duration": 6, "velocity": 53}, {"time": 2461, "pitch": 56, "duration": 1, "velocity": 77}, {"time": 2461, "pitch": 60, "duration": 2, "velocity": 74}, {"time": 2473, "pitch": 48, "duration": 22, "velocity": 68}, {"time": 2473, "pitch": 55, "duration": 16, "velocity": 69}, {"time": 2473, "pitch": 60, "duration": 9, "velocity": 83}, {"time": 2473, "pitch": 63, "duration": 10, "velocity": 85}, {"time": 2473, "pitch": 67, "duration": 7, "velocity": 62}, {"time": 2485, "pitch": 60, "duration": 5, "velocity": 86}, {"time": 2485, "pitch": 63, "duration": 4, "velocity": 99}, {"time": 2485, "pitch": 67, "duration": 5, "velocity": 86}, {"time": 2491, "pitch": 55, "duration": 3, "velocity": 61}, {"time": 2497, "pitch": 51, "duration": 21, "velocity": 69}, {"time": 2497, "pitch": 58, "duration": 20, "velocity": 93}, {"time": 2497, "pitch": 63, "duration": 21, "velocity": 83}, {"time": 2497, "pitch": 67, "duration": 18, "velocity": 56}, {"time": 2521, "pitch": 51, "duration": 5, "velocity": 64}, {"time": 2521, "pitch": 58, "duration": 5, "velocity": 92}, {"time": 2521, "pitch": 63, "duration": 5, "velocity": 88}, {"time": 2521, "pitch": 67, "duration": 5, "velocity": 79}, {"time": 2545, "pitch": 41, "duration": 21, "velocity": 74}, {"time": 2545, "pitch": 53, "duration": 7, "velocity": 88}, {"time": 2545, "pitch": 56, "duration": 8, "velocity": 93}, {"time": 2545, "pitch": 60, "duration": 8, "velocity": 88}, {"time": 2551, "pitch": 48, "duration": 8, "velocity": 37}, {"time": 2557, "pitch": 56, "duration": 6, "velocity": 102}, {"time": 2557, "pitch": 60, "duration": 10, "velocity": 86}, {"time": 2560, "pitch": 48, "duration": 9, "velocity": 31}, {"time": 2563, "pitch": 55, "duration": 11, "velocity": 71}, {"time": 2569, "pitch": 41, "duration": 20, "velocity": 78}, {"time": 2575, "pitch": 48, "duration": 9, "velocity": 45}, {"time": 2581, "pitch": 56, "duration": 7, "velocity": 112}, {"time": 2581, "pitch": 60, "duration": 6, "velocity": 99}, {"time": 2587, "pitch": 48, "duration": 5, "velocity": 70}, {"time": 2593, "pitch": 46, "duration": 41, "velocity": 82}, {"time": 2593, "pitch": 53, "duration": 22, "velocity": 77}, {"time": 2593, "pitch": 58, "duration": 23, "velocity": 99}, {"time": 2593, "pitch": 61, "duration": 21, "velocity": 96}, {"time": 2617, "pitch": 53, "duration": 11, "velocity": 62}, {"time": 2617, "pitch": 58, "duration": 11, "velocity": 89}, {"time": 2617, "pitch": 61, "duration": 11, "velocity": 89}, {"time": 2629, "pitch": 58, "duration": 7, "velocity": 107}, {"time": 2629, "pitch": 61, "duration": 6, "velocity": 100}, {"time": 2635, "pitch": 53, "duration": 5, "velocity": 66}, {"time": 2641, "pitch": 41, "duration": 36, "velocity": 68}, {"time": 2641, "pitch": 53, "duration": 6, "velocity": 69}, {"time": 2641, "pitch": 56, "duration": 17, "velocity": 81}, {"time": 2641, "pitch": 60, "duration": 21, "velocity": 77}, {"time": 2647, "pitch": 48, "duration": 8, "velocity": 45}, {"time": 2653, "pitch": 53, "duration": 14, "velocity": 60}, {"time": 2659, "pitch": 48, "duration": 10, "velocity": 42}, {"time": 2665, "pitch": 56, "duration": 8, "velocity": 75}, {"time": 2665, "pitch": 60, "duration": 10, "velocity": 70}, {"time": 2671, "pitch": 48, "duration": 5, "velocity": 44}, {"time": 2677, "pitch": 56, "duration": 5, "velocity": 95}, {"time": 2677, "pitch": 60, "duration": 4, "velocity": 89}, {"time": 2689, "pitch": 51, "duration": 13, "velocity": 89}, {"time": 2689, "pitch": 55, "duration": 9, "velocity": 86}, {"time": 2689, "pitch": 58, "duration": 10, "velocity": 102}, {"time": 2689, "pitch": 63, "duration": 10, "velocity": 95}, {"time": 2701, "pitch": 55, "duration": 5, "velocity": 78}, {"time": 2701, "pitch": 58, "duration": 8, "velocity": 122}, {"time": 2701, "pitch": 63, "duration": 8, "velocity": 100}, {"time": 2704, "pitch": 51, "duration": 1, "velocity": 95}, {"time": 2707, "pitch": 55, "duration": 3, "velocity": 90}, {"time": 2713, "pitch": 36, "duration": 9, "velocity": 79}, {"time": 2713, "pitch": 55, "duration": 8, "velocity": 97}, {"time": 2713, "pitch": 60, "duration": 8, "velocity": 93}, {"time": 2713, "pitch": 63, "duration": 8, "velocity": 97}, {"time": 2737, "pitch": 53, "duration": 2, "velocity": 99}, {"time": 2737, "pitch": 60, "duration": 2, "velocity": 89}, {"time": 2737, "pitch": 65, "duration": 1, "velocity": 96}, {"time": 2737, "pitch": 68, "duration": 1, "velocity": 97}, {"time": 2740, "pitch": 53, "duration": 2, "velocity": 81}, {"time": 2740, "pitch": 60, "duration": 2, "velocity": 77}, {"time": 2740, "pitch": 65, "duration": 1, "velocity": 85}, {"time": 2740, "pitch": 68, "duration": 1, "velocity": 89}, {"time": 2743, "pitch": 53, "duration": 2, "velocity": 79}, {"time": 2743, "pitch": 60, "duration": 2, "velocity": 76}, {"time": 2743, "pitch": 65, "duration": 1, "velocity": 82}, {"time": 2743, "pitch": 68, "duration": 1, "velocity": 82}, {"time": 2746, "pitch": 53, "duration": 2, "velocity": 102}, {"time": 2746, "pitch": 60, "duration": 2, "velocity": 96}, {"time": 2746, "pitch": 65, "duration": 2, "velocity": 99}, {"time": 2746, "pitch": 68, "duration": 1, "velocity": 92}, {"time": 2752, "pitch": 51, "duration": 2, "velocity": 122}, {"time": 2752, "pitch": 63, "duration": 3, "velocity": 112}, {"time": 2752, "pitch": 67, "duration": 2, "velocity": 89}, {"time": 2758, "pitch": 52, "duration": 2, "velocity": 99}, {"time": 2758, "pitch": 64, "duration": 2, "velocity": 93}, {"time": 2761, "pitch": 53, "duration": 3, "velocity": 122}, {"time": 2761, "pitch": 60, "duration": 3, "velocity": 96}, {"time": 2761, "pitch": 65, "duration": 3, "velocity": 107}, {"time": 2761, "pitch": 68, "duration": 3, "velocity": 122}, {"time": 2773, "pitch": 44, "duration": 7, "velocity": 90}, {"time": 2773, "pitch": 56, "duration": 6, "velocity": 127}, {"time": 2779, "pitch": 46, "duration": 6, "velocity": 99}, {"time": 2779, "pitch": 58, "duration": 6, "velocity": 122}, {"time": 2785, "pitch": 44, "duration": 36, "velocity": 81}, {"time": 2785, "pitch": 51, "duration": 16, "velocity": 97}, {"time": 2785, "pitch": 56, "duration": 9, "velocity": 112}, {"time": 2785, "pitch": 60, "duration": 8, "velocity": 127}, {"time": 2785, "pitch": 63, "duration": 8, "velocity": 112}, {"time": 2797, "pitch": 48, "duration": 25, "velocity": 25}, {"time": 2797, "pitch": 56, "duration": 7, "velocity": 112}, {"time": 2797, "pitch": 60, "duration": 6, "velocity": 127}, {"time": 2797, "pitch": 63, "duration": 7, "velocity": 107}, {"time": 2803, "pitch": 51, "duration": 9, "velocity": 39}, {"time": 2809, "pitch": 56, "duration": 6, "velocity": 97}, {"time": 2809, "pitch": 60, "duration": 6, "velocity": 122}, {"time": 2809, "pitch": 63, "duration": 6, "velocity": 107}, {"time": 2815, "pitch": 51, "duration": 6, "velocity": 65}, {"time": 2821, "pitch": 56, "duration": 5, "velocity": 102}, {"time": 2821, "pitch": 60, "duration": 4, "velocity": 107}, {"time": 2821, "pitch": 63, "duration": 4, "velocity": 107}, {"time": 2827, "pitch": 43, "duration": 6, "velocity": 81}, {"time": 2833, "pitch": 41, "duration": 39, "velocity": 72}, {"time": 2833, "pitch": 53, "duration": 8, "velocity": 95}, {"time": 2833, "pitch": 56, "duration": 7, "velocity": 107}, {"time": 2833, "pitch": 60, "duration": 7, "velocity": 90}, {"time": 2839, "pitch": 48, "duration": 10, "velocity": 37}, {"time": 2845, "pitch": 53, "duration": 9, "velocity": 92}, {"time": 2845, "pitch": 56, "duration": 9, "velocity": 107}, {"time": 2845, "pitch": 60, "duration": 9, "velocity": 92}, {"time": 2851, "pitch": 48, "duration": 9, "velocity": 44}, {"time": 2857, "pitch": 53, "duration": 7, "velocity": 85}, {"time": 2857, "pitch": 56, "duration": 7, "velocity": 112}, {"time": 2857, "pitch": 60, "duration": 7, "velocity": 89}, {"time": 2863, "pitch": 48, "duration": 7, "velocity": 47}, {"time": 2869, "pitch": 53, "duration": 2, "velocity": 93}, {"time": 2869, "pitch": 56, "duration": 2, "velocity": 117}, {"time": 2869, "pitch": 60, "duration": 2, "velocity": 96}, {"time": 2875, "pitch": 48, "duration": 2, "velocity": 90}, {"time": 2881, "pitch": 49, "duration": 15, "velocity": 112}, {"time": 2881, "pitch": 61, "duration": 7, "velocity": 102}, {"time": 2881, "pitch": 65, "duration": 5, "velocity": 97}, {"time": 2881, "pitch": 68, "duration": 7, "velocity": 102}, {"time": 2893, "pitch": 61, "duration": 4, "velocity": 95}, {"time": 2893, "pitch": 65, "duration": 3, "velocity": 117}, {"time": 2893, "pitch": 68, "duration": 4, "velocity": 100}, {"time": 2899, "pitch": 49, "duration": 4, "velocity": 77}, {"time": 2905, "pitch": 51, "duration": 15, "velocity": 112}, {"time": 2905, "pitch": 58, "duration": 7, "velocity": 107}, {"time": 2905, "pitch": 63, "duration": 7, "velocity": 117}, {"time": 2905, "pitch": 67, "duration": 6, "velocity": 86}, {"time": 2917, "pitch": 58, "duration": 6, "velocity": 102}, {"time": 2917, "pitch": 63, "duration": 5, "velocity": 117}, {"time": 2917, "pitch": 67, "duration": 5, "velocity": 89}, {"time": 2923, "pitch": 51, "duration": 4, "velocity": 92}, {"time": 2929, "pitch": 44, "duration": 15, "velocity": 90}, {"time": 2929, "pitch": 56, "duration": 7, "velocity": 95}, {"time": 2929, "pitch": 60, "duration": 6, "velocity": 95}, {"time": 2929, "pitch": 63, "duration": 6, "velocity": 99}, {"time": 2941, "pitch": 56, "duration": 5, "velocity": 112}, {"time": 2941, "pitch": 60, "duration": 6, "velocity": 112}, {"time": 2941, "pitch": 63, "duration": 6, "velocity": 112}, {"time": 2947, "pitch": 44, "duration": 5, "velocity": 93}, {"time": 2953, "pitch": 48, "duration": 15, "velocity": 96}, {"time": 2953, "pitch": 55, "duration": 9, "velocity": 97}, {"time": 2953, "pitch": 60, "duration": 9, "velocity": 99}, {"time": 2953, "pitch": 64, "duration": 7, "velocity": 93}, {"time": 2965, "pitch": 55, "duration": 6, "velocity": 96}, {"time": 2965, "pitch": 60, "duration": 5, "velocity": 107}, {"time": 2965, "pitch": 64, "duration": 6, "velocity": 95}, {"time": 2971, "pitch": 48, "duration": 5, "velocity": 86}, {"time": 2977, "pitch": 46, "duration": 38, "velocity": 96}, {"time": 2977, "pitch": 58, "duration": 10, "velocity": 96}, {"time": 2977, "pitch": 61, "duration": 10, "velocity": 86}, {"time": 2977, "pitch": 65, "duration": 10, "velocity": 72}, {"time": 2989, "pitch": 58, "duration": 8, "velocity": 55}, {"time": 2989, "pitch": 61, "duration": 9, "velocity": 55}, {"time": 2989, "pitch": 65, "duration": 8, "velocity": 58}, {"time": 3001, "pitch": 58, "duration": 10, "velocity": 45}, {"time": 3001, "pitch": 61, "duration": 10, "velocity": 42}, {"time": 3001, "pitch": 65, "duration": 9, "velocity": 50}, {"time": 3013, "pitch": 61, "duration": 6, "velocity": 72}, {"time": 3013, "pitch": 65, "duration": 6, "velocity": 66}, {"time": 3025, "pitch": 41, "duration": 11, "velocity": 73}, {"time": 3025, "pitch": 53, "duration": 7, "velocity": 82}, {"time": 3025, "pitch": 56, "duration": 7, "velocity": 82}, {"time": 3025, "pitch": 60, "duration": 7, "velocity": 77}, {"time": 3031, "pitch": 48, "duration": 6, "velocity": 53}, {"time": 3037, "pitch": 56, "duration": 1, "velocity": 77}, {"time": 3037, "pitch": 60, "duration": 2, "velocity": 74}, {"time": 3049, "pitch": 48, "duration": 22, "velocity": 68}, {"time": 3049, "pitch": 55, "duration": 16, "velocity": 69}, {"time": 3049, "pitch": 60, "duration": 9, "velocity": 83}, {"time": 3049, "pitch": 63, "duration": 10, "velocity": 85}, {"time": 3049, "pitch": 67, "duration": 7, "velocity": 62}, {"time": 3061, "pitch": 60, "duration": 5, "velocity": 86}, {"time": 3061, "pitch": 63, "duration": 4, "velocity": 99}, {"time": 3061, "pitch": 67, "duration": 5, "velocity": 86}, {"time": 3067, "pitch": 55, "duration": 3, "velocity": 61}, {"time": 3073, "pitch": 51, "duration": 21, "velocity": 69}, {"time": 3073, "pitch": 58, "duration": 20, "velocity": 93}, {"time": 3073, "pitch": 63, "duration": 21, "velocity": 83}, {"time": 3073, "pitch": 67, "duration": 18, "velocity": 56}, {"time": 3097, "pitch": 51, "duration": 5, "velocity": 64}, {"time": 3097, "pitch": 58, "duration": 5, "velocity": 92}, {"time": 3097, "pitch": 63, "duration": 5, "velocity": 88}, {"time": 3097, "pitch": 67, "duration": 5, "velocity": 79}, {"time": 3121, "pitch": 41, "duration": 21, "velocity": 74}, {"time": 3121, "pitch": 53, "duration": 7, "velocity": 88}, {"time": 3121, "pitch": 56, "duration": 8, "velocity": 93}, {"time": 3121, "pitch": 60, "duration": 8, "velocity": 88}, {"time": 3127, "pitch": 48, "duration": 8, "velocity": 37}, {"time": 3133, "pitch": 56, "duration": 6, "velocity": 102}, {"time": 3133, "pitch": 60, "duration": 10, "velocity": 86}, {"time": 3136, "pitch": 48, "duration": 9, "velocity": 31}, {"time": 3139, "pitch": 55, "duration": 11, "velocity": 71}, {"time": 3145, "pitch": 41, "duration": 20, "velocity": 78}, {"time": 3151, "pitch": 48, "duration": 9, "velocity": 45}, {"time": 3157, "pitch": 56, "duration": 7, "velocity": 112}, {"time": 3157, "pitch": 60, "duration": 6, "velocity": 99}, {"time": 3163, "pitch": 48, "duration": 5, "velocity": 70}, {"time": 3169, "pitch": 46, "duration": 41, "velocity": 82}, {"time": 3169, "pitch": 53, "duration": 22, "velocity": 77}, {"time": 3169, "pitch": 58, "duration": 23, "velocity": 99}, {"time": 3169, "pitch": 61, "duration": 21, "velocity": 96}, {"time": 3193, "pitch": 53, "duration": 11, "velocity": 62}, {"time": 3193, "pitch": 58, "duration": 11, "velocity": 89}, {"time": 3193, "pitch": 61, "duration": 11, "velocity": 89}, {"time": 3205, "pitch": 58, "duration": 7, "velocity": 107}, {"time": 3205, "pitch": 61, "duration": 6, "velocity": 100}, {"time": 3211, "pitch": 53, "duration": 5, "velocity": 66}, {"time": 3217, "pitch": 41, "duration": 36, "velocity": 68}, {"time": 3217, "pitch": 53, "duration": 6, "velocity": 69}, {"time": 3217, "pitch": 56, "duration": 17, "velocity": 81}, {"time": 3217, "pitch": 60, "duration": 21, "velocity": 77}, {"time": 3223, "pitch": 48, "duration": 8, "velocity": 45}, {"time": 3229, "pitch": 53, "duration": 14, "velocity": 60}, {"time": 3235, "pitch": 48, "duration": 10, "velocity": 42}, {"time": 3241, "pitch": 56, "duration": 8, "velocity": 75}, {"time": 3241, "pitch": 60, "duration": 10, "velocity": 70}, {"time": 3247, "pitch": 48, "duration": 5, "velocity": 44}, {"time": 3253, "pitch": 56, "duration": 5, "velocity": 95}, {"time": 3253, "pitch": 60, "duration": 4, "velocity": 89}, {"time": 3265, "pitch": 51, "duration": 13, "velocity": 89}, {"time": 3265, "pitch": 55, "duration": 9, "velocity": 86}, {"time": 3265, "pitch": 58, "duration": 10, "velocity": 102}, {"time": 3265, "pitch": 63, "duration": 10, "velocity": 95}, {"time": 3277, "pitch": 55, "duration": 5, "velocity": 78}, {"time": 3277, "pitch": 58, "duration": 8, "velocity": 122}, {"time": 3277, "pitch": 63, "duration": 8, "velocity": 100}, {"time": 3280, "pitch": 51, "duration": 1, "velocity": 95}, {"time": 3283, "pitch": 55, "duration": 3, "velocity": 90}, {"time": 3289, "pitch": 36, "duration": 9, "velocity": 79}, {"time": 3289, "pitch": 55, "duration": 8, "velocity": 97}, {"time": 3289, "pitch": 60, "duration": 8, "velocity": 93}, {"time": 3289, "pitch": 63, "duration": 8, "velocity": 97}, {"time": 3313, "pitch": 53, "duration": 38, "velocity": 75}, {"time": 3313, "pitch": 60, "duration": 11, "velocity": 88}, {"time": 3313, "pitch": 65, "duration": 10, "velocity": 90}, {"time": 3313, "pitch": 68, "duration": 10, "velocity": 89}, {"time": 3325, "pitch": 60, "duration": 2, "velocity": 30}, {"time": 3325, "pitch": 65, "duration": 11, "velocity": 78}, {"time": 3325, "pitch": 68, "duration": 10, "velocity": 92}, {"time": 3331, "pitch": 60, "duration": 18, "velocity": 46}, {"time": 3337, "pitch": 65, "duration": 11, "velocity": 81}, {"time": 3337, "pitch": 68, "duration": 11, "velocity": 95}, {"time": 3349, "pitch": 60, "duration": 1, "velocity": 30}, {"time": 3349, "pitch": 65, "duration": 9, "velocity": 75}, {"time": 3349, "pitch": 68, "duration": 10, "velocity": 79}, {"time": 3361, "pitch": 41, "duration": 44, "velocity": 72}, {"time": 3361, "pitch": 60, "duration": 9, "velocity": 75}, {"time": 3361, "pitch": 65, "duration": 8, "velocity": 78}, {"time": 3361, "pitch": 68, "duration": 8, "velocity": 88}, {"time": 3367, "pitch": 48, "duration": 16, "velocity": 40}, {"time": 3373, "pitch": 65, "duration": 23, "velocity": 83}, {"time": 3373, "pitch": 68, "duration": 23, "velocity": 85}, {"time": 3379, "pitch": 60, "duration": 17, "velocity": 66}, {"time": 3385, "pitch": 48, "duration": 24, "velocity": 40}, {"time": 3397, "pitch": 65, "duration": 8, "velocity": 88}, {"time": 3397, "pitch": 68, "duration": 8, "velocity": 78}, {"time": 3403, "pitch": 63, "duration": 5, "velocity": 49}, {"time": 3406, "pitch": 60, "duration": 3, "velocity": 48}, {"time": 3409, "pitch": 61, "duration": 15, "velocity": 85}, {"time": 3409, "pitch": 68, "duration": 15, "velocity": 74}, {"time": 3410, "pitch": 37, "duration": 13, "velocity": 83}, {"time": 3410, "pitch": 65, "duration": 13, "velocity": 69}, {"time": 3421, "pitch": 49, "duration": 2, "velocity": 43}, {"time": 3441, "pitch": 63, "duration": 15, "velocity": 65}, {"time": 3441, "pitch": 36, "duration": 30, "velocity": 70}, {"time": 3441, "pitch": 60, "duration": 16, "velocity": 69}, {"time": 3441, "pitch": 67, "duration": 15, "velocity": 68}, {"time": 3449, "pitch": 43, "duration": 23, "velocity": 36}, {"time": 3456, "pitch": 48, "duration": 19, "velocity": 65}, {"time": 3464, "pitch": 51, "duration": 6, "velocity": 51}, {"time": 3486, "pitch": 41, "duration": 77, "velocity": 83}, {"time": 3487, "pitch": 56, "duration": 1, "velocity": 58}, {"time": 3487, "pitch": 60, "duration": 4, "velocity": 70}, {"time": 3493, "pitch": 48, "duration": 68, "velocity": 67}, {"time": 3498, "pitch": 53, "duration": 63, "velocity": 62}, {"time": 3502, "pitch": 56, "duration": 3, "velocity": 67}, {"time": 3504, "pitch": 60, "duration": 1, "velocity": 71}, {"time": 3508, "pitch": 65, "duration": 5, "velocity": 66}, {"time": 3511, "pitch": 68, "duration": 3, "velocity": 50}, {"time": 3514, "pitch": 72, "duration": 1, "velocity": 76}, {"time": 3517, "pitch": 77, "duration": 8, "velocity": 61}, {"time": 3521, "pitch": 80, "duration": 4, "velocity": 60}, {"time": 3524, "pitch": 84, "duration": 1, "velocity": 66}, {"time": 3533, "pitch": 92, "duration": 29, "velocity": 64}, {"time": 3539, "pitch": 96, "duration": 23, "velocity": 63}, {"time": 3541, "pitch": 89, "duration": 21, "velocity": 19}, {"time": 3546, "pitch": 101, "duration": 16, "velocity": 58}], "annotations": [{"time": 52, "annotation": {"number": 64, "value": 127}, "group": "control_change"}, {"time": 93, "annotation": {"number": 64, "value": 0}, "group": "control_change"}, {"time": 97, "annotation": {"number": 64, "value": 127}, "group": "control_change"}, {"time": 116, "annotation": {"number": 64, "value": 0}, "group": "control_change"}, {"time": 122, "annotation": {"number": 64, "value": 127}, "group": "control_change"}, {"time": 141, "annotation": {"number": 64, "value": 0}, "group": "control_change"}, {"time": 146, "annotation": {"number": 64, "value": 127}, "group": "control_change"}, {"time": 159, "annotation": {"number": 64, "value": 0}, "group": "control_change"}, {"time": 170, "annotation": {"number": 64, "value": 127}, "group": "control_change"}, {"time": 173, "annotation": {"number": 64, "value": 0}, "group": "control_change"}, {"time": 180, "annotation": {"number": 64, "value": 127}, "group": "control_change"}, {"time": 191, "annotation": {"number": 64, "value": 0}, "group": "control_change"}, {"time": 194, "annotation": {"number": 64, "value": 127}, "group": "control_change"}, {"time": 239, "annotation": {"number": 64, "value": 0}, "group": "control_change"}, {"time": 242, "annotation": {"number": 64, "value": 127}, "group": "control_change"}, {"time": 264, "annotation": {"number": 64, "value": 0}, "group": "control_change"}, {"time": 265, "annotation": {"number": 64, "value": 127}, "group": "control_change"}, {"time": 311, "annotation": {"number": 64, "value": 0}, "group": "control_change"}, {"time": 314, "annotation": {"number": 64, "value": 127}, "group": "control_change"}, {"time": 335, "annotation": {"number": 64, "value": 0}, "group": "control_change"}, {"time": 337, "annotation": {"number": 64, "value": 127}, "group": "control_change"}, {"time": 359, "annotation": {"number": 64, "value": 0}, "group": "control_change"}, {"time": 372, "annotation": {"number": 64, "value": 127}, "group": "control_change"}, {"time": 383, "annotation": {"number": 64, "value": 0}, "group": "control_change"}, {"time": 386, "annotation": {"number": 64, "value": 127}, "group": "control_change"}, {"time": 407, "annotation": {"number": 64, "value": 0}, "group": "control_change"}, {"time": 421, "annotation": {"number": 64, "value": 127}, "group": "control_change"}, {"time": 428, "annotation": {"number": 64, "value": 0}, "group": "control_change"}, {"time": 434, "annotation": {"number": 64, "value": 127}, "group": "control_change"}, {"time": 443, "annotation": {"number": 64, "value": 0}, "group": "control_change"}, {"time": 470, "annotation": {"number": 64, "value": 127}, "group": "control_change"}, {"time": 473, "annotation": {"number": 64, "value": 0}, "group": "control_change"}, {"time": 481, "annotation": {"number": 64, "value": 127}, "group": "control_change"}, {"time": 528, "annotation": {"number": 64, "value": 0}, "group": "control_change"}, {"time": 533, "annotation": {"number": 64, "value": 127}, "group": "control_change"}, {"time": 575, "annotation": {"number": 64, "value": 0}, "group": "control_change"}, {"time": 578, "annotation": {"number": 64, "value": 127}, "group": "control_change"}, {"time": 624, "annotation": {"number": 64, "value": 0}, "group": "control_change"}, {"time": 626, "annotation": {"number": 64, "value": 127}, "group": "control_change"}, {"time": 647, "annotation": {"number": 64, "value": 0}, "group": "control_change"}, {"time": 649, "annotation": {"number": 64, "value": 127}, "group": "control_change"}, {"time": 673, "annotation": {"number": 64, "value": 0}, "group": "control_change"}, {"time": 675, "annotation": {"number": 64, "value": 127}, "group": "control_change"}, {"time": 696, "annotation": {"number": 64, "value": 0}, "group": "control_change"}, {"time": 697, "annotation": {"number": 64, "value": 127}, "group": "control_change"}, {"time": 719, "annotation": {"number": 64, "value": 0}, "group": "control_change"}, {"time": 722, "annotation": {"number": 64, "value": 127}, "group": "control_change"}, {"time": 767, "annotation": {"number": 64, "value": 0}, "group": "control_change"}, {"time": 769, "annotation": {"number": 64, "value": 127}, "group": "control_change"}, {"time": 792, "annotation": {"number": 64, "value": 0}, "group": "control_change"}, {"time": 794, "annotation": {"number": 64, "value": 127}, "group": "control_change"}, {"time": 815, "annotation": {"number": 64, "value": 0}, "group": "control_change"}, {"time": 818, "annotation": {"number": 64, "value": 127}, "group": "control_change"}, {"time": 839, "annotation": {"number": 64, "value": 0}, "group": "control_change"}, {"time": 842, "annotation": {"number": 64, "value": 127}, "group": "control_change"}, {"time": 863, "annotation": {"number": 64, "value": 0}, "group": "control_change"}, {"time": 866, "annotation": {"number": 64, "value": 127}, "group": "control_change"}, {"time": 910, "annotation": {"number": 64, "value": 0}, "group": "control_change"}, {"time": 914, "annotation": {"number": 64, "value": 127}, "group": "control_change"}, {"time": 935, "annotation": {"number": 64, "value": 0}, "group": "control_change"}, {"time": 937, "annotation": {"number": 64, "value": 127}, "group": "control_change"}, {"time": 958, "annotation": {"number": 64, "value": 0}, "group": "control_change"}, {"time": 962, "annotation": {"number": 64, "value": 127}, "group": "control_change"}, {"time": 982, "annotation": {"number": 64, "value": 0}, "group": "control_change"}, {"time": 986, "annotation": {"number": 64, "value": 127}, "group": "control_change"}, {"time": 1006, "annotation": {"number": 64, "value": 0}, "group": "control_change"}, {"time": 1010, "annotation": {"number": 64, "value": 127}, "group": "control_change"}, {"time": 1031, "annotation": {"number": 64, "value": 0}, "group": "control_change"}, {"time": 1035, "annotation": {"number": 64, "value": 127}, "group": "control_change"}, {"time": 1040, "annotation": {"number": 64, "value": 0}, "group": "control_change"}, {"time": 1045, "annotation": {"number": 64, "value": 127}, "group": "control_change"}, {"time": 1056, "annotation": {"number": 64, "value": 0}, "group": "control_change"}, {"time": 1058, "annotation": {"number": 64, "value": 127}, "group": "control_change"}, {"time": 1102, "annotation": {"number": 64, "value": 0}, "group": "control_change"}, {"time": 1109, "annotation": {"number": 64, "value": 127}, "group": "control_change"}, {"time": 1128, "annotation": {"number": 64, "value": 0}, "group": "control_change"}, {"time": 1131, "annotation": {"number": 64, "value": 127}, "group": "control_change"}, {"time": 1152, "annotation": {"number": 64, "value": 0}, "group": "control_change"}, {"time": 1166, "annotation": {"number": 64, "value": 127}, "group": "control_change"}, {"time": 1173, "annotation": {"number": 64, "value": 0}, "group": "control_change"}, {"time": 1189, "annotation": {"number": 64, "value": 127}, "group": "control_change"}, {"time": 1194, "annotation": {"number": 64, "value": 0}, "group": "control_change"}, {"time": 1202, "annotation": {"number": 64, "value": 127}, "group": "control_change"}, {"time": 1223, "annotation": {"number": 64, "value": 0}, "group": "control_change"}, {"time": 1226, "annotation": {"number": 64, "value": 127}, "group": "control_change"}, {"time": 1247, "annotation": {"number": 64, "value": 0}, "group": "control_change"}, {"time": 1250, "annotation": {"number": 64, "value": 127}, "group": "control_change"}, {"time": 1268, "annotation": {"number": 64, "value": 0}, "group": "control_change"}, {"time": 1274, "annotation": {"number": 64, "value": 127}, "group": "control_change"}, {"time": 1294, "annotation": {"number": 64, "value": 0}, "group": "control_change"}, {"time": 1297, "annotation": {"number": 64, "value": 127}, "group": "control_change"}, {"time": 1319, "annotation": {"number": 64, "value": 0}, "group": "control_change"}, {"time": 1322, "annotation": {"number": 64, "value": 127}, "group": "control_change"}, {"time": 1343, "annotation": {"number": 64, "value": 0}, "group": "control_change"}, {"time": 1346, "annotation": {"number": 64, "value": 127}, "group": "control_change"}, {"time": 1367, "annotation": {"number": 64, "value": 0}, "group": "control_change"}, {"time": 1381, "annotation": {"number": 64, "value": 127}, "group": "control_change"}, {"time": 1388, "annotation": {"number": 64, "value": 0}, "group": "control_change"}, {"time": 1394, "annotation": {"number": 64, "value": 127}, "group": "control_change"}, {"time": 1414, "annotation": {"number": 64, "value": 0}, "group": "control_change"}, {"time": 1418, "annotation": {"number": 64, "value": 127}, "group": "control_change"}, {"time": 1439, "annotation": {"number": 64, "value": 0}, "group": "control_change"}, {"time": 1442, "annotation": {"number": 64, "value": 127}, "group": "control_change"}, {"time": 1488, "annotation": {"number": 64, "value": 0}, "group": "control_change"}, {"time": 1490, "annotation": {"number": 64, "value": 127}, "group": "control_change"}, {"time": 1511, "annotation": {"number": 64, "value": 0}, "group": "control_change"}, {"time": 1516, "annotation": {"number": 64, "value": 127}, "group": "control_change"}, {"time": 1536, "annotation": {"number": 64, "value": 0}, "group": "control_change"}, {"time": 1538, "annotation": {"number": 64, "value": 127}, "group": "control_change"}, {"time": 1559, "annotation": {"number": 64, "value": 0}, "group": "control_change"}, {"time": 1562, "annotation": {"number": 64, "value": 127}, "group": "control_change"}, {"time": 1612, "annotation": {"number": 64, "value": 0}, "group": "control_change"}, {"time": 1616, "annotation": {"number": 64, "value": 127}, "group": "control_change"}, {"time": 1620, "annotation": {"number": 64, "value": 0}, "group": "control_change"}, {"time": 1626, "annotation": {"number": 64, "value": 127}, "group": "control_change"}, {"time": 1631, "annotation": {"number": 64, "value": 0}, "group": "control_change"}, {"time": 1634, "annotation": {"number": 64, "value": 127}, "group": "control_change"}, {"time": 1655, "annotation": {"number": 64, "value": 0}, "group": "control_change"}, {"time": 1657, "annotation": {"number": 64, "value": 127}, "group": "control_change"}, {"time": 1679, "annotation": {"number": 64, "value": 0}, "group": "control_change"}, {"time": 1681, "annotation": {"number": 64, "value": 127}, "group": "control_change"}, {"time": 1703, "annotation": {"number": 64, "value": 0}, "group": "control_change"}, {"time": 1705, "annotation": {"number": 64, "value": 127}, "group": "control_change"}, {"time": 1727, "annotation": {"number": 64, "value": 0}, "group": "control_change"}, {"time": 1730, "annotation": {"number": 64, "value": 127}, "group": "control_change"}, {"time": 1751, "annotation": {"number": 64, "value": 0}, "group": "control_change"}, {"time": 1765, "annotation": {"number": 64, "value": 127}, "group": "control_change"}, {"time": 1774, "annotation": {"number": 64, "value": 0}, "group": "control_change"}, {"time": 1779, "annotation": {"number": 64, "value": 127}, "group": "control_change"}, {"time": 1818, "annotation": {"number": 64, "value": 0}, "group": "control_change"}, {"time": 1872, "annotation": {"number": 64, "value": 0}, "group": "control_change"}, {"time": 1877, "annotation": {"number": 64, "value": 127}, "group": "control_change"}, {"time": 1919, "annotation": {"number": 64, "value": 0}, "group": "control_change"}, {"time": 1922, "annotation": {"number": 64, "value": 127}, "group": "control_change"}, {"time": 1968, "annotation": {"number": 64, "value": 0}, "group": "control_change"}, {"time": 1970, "annotation": {"number": 64, "value": 127}, "group": "control_change"}, {"time": 1991, "annotation": {"number": 64, "value": 0}, "group": "control_change"}, {"time": 1993, "annotation": {"number": 64, "value": 127}, "group": "control_change"}, {"time": 2017, "annotation": {"number": 64, "value": 0}, "group": "control_change"}, {"time": 2019, "annotation": {"number": 64, "value": 127}, "group": "control_change"}, {"time": 2040, "annotation": {"number": 64, "value": 0}, "group": "control_change"}, {"time": 2041, "annotation": {"number": 64, "value": 127}, "group": "control_change"}, {"time": 2063, "annotation": {"number": 64, "value": 0}, "group": "control_change"}, {"time": 2066, "annotation": {"number": 64, "value": 127}, "group": "control_change"}, {"time": 2111, "annotation": {"number": 64, "value": 0}, "group": "control_change"}, {"time": 2113, "annotation": {"number": 64, "value": 127}, "group": "control_change"}, {"time": 2136, "annotation": {"number": 64, "value": 0}, "group": "control_change"}, {"time": 2138, "annotation": {"number": 64, "value": 127}, "group": "control_change"}, {"time": 2159, "annotation": {"number": 64, "value": 0}, "group": "control_change"}, {"time": 2162, "annotation": {"number": 64, "value": 127}, "group": "control_change"}, {"time": 2183, "annotation": {"number": 64, "value": 0}, "group": "control_change"}, {"time": 2186, "annotation": {"number": 64, "value": 127}, "group": "control_change"}, {"time": 2207, "annotation": {"number": 64, "value": 0}, "group": "control_change"}, {"time": 2210, "annotation": {"number": 64, "value": 127}, "group": "control_change"}, {"time": 2254, "annotation": {"number": 64, "value": 0}, "group": "control_change"}, {"time": 2258, "annotation": {"number": 64, "value": 127}, "group": "control_change"}, {"time": 2279, "annotation": {"number": 64, "value": 0}, "group": "control_change"}, {"time": 2281, "annotation": {"number": 64, "value": 127}, "group": "control_change"}, {"time": 2302, "annotation": {"number": 64, "value": 0}, "group": "control_change"}, {"time": 2306, "annotation": {"number": 64, "value": 127}, "group": "control_change"}, {"time": 2326, "annotation": {"number": 64, "value": 0}, "group": "control_change"}, {"time": 2330, "annotation": {"number": 64, "value": 127}, "group": "control_change"}, {"time": 2350, "annotation": {"number": 64, "value": 0}, "group": "control_change"}, {"time": 2354, "annotation": {"number": 64, "value": 127}, "group": "control_change"}, {"time": 2375, "annotation": {"number": 64, "value": 0}, "group": "control_change"}, {"time": 2379, "annotation": {"number": 64, "value": 127}, "group": "control_change"}, {"time": 2384, "annotation": {"number": 64, "value": 0}, "group": "control_change"}, {"time": 2389, "annotation": {"number": 64, "value": 127}, "group": "control_change"}, {"time": 2400, "annotation": {"number": 64, "value": 0}, "group": "control_change"}, {"time": 2402, "annotation": {"number": 64, "value": 127}, "group": "control_change"}, {"time": 2446, "annotation": {"number": 64, "value": 0}, "group": "control_change"}, {"time": 2453, "annotation": {"number": 64, "value": 127}, "group": "control_change"}, {"time": 2472, "annotation": {"number": 64, "value": 0}, "group": "control_change"}, {"time": 2475, "annotation": {"number": 64, "value": 127}, "group": "control_change"}, {"time": 2496, "annotation": {"number": 64, "value": 0}, "group": "control_change"}, {"time": 2510, "annotation": {"number": 64, "value": 127}, "group": "control_change"}, {"time": 2517, "annotation": {"number": 64, "value": 0}, "group": "control_change"}, {"time": 2533, "annotation": {"number": 64, "value": 127}, "group": "control_change"}, {"time": 2538, "annotation": {"number": 64, "value": 0}, "group": "control_change"}, {"time": 2546, "annotation": {"number": 64, "value": 127}, "group": "control_change"}, {"time": 2567, "annotation": {"number": 64, "value": 0}, "group": "control_change"}, {"time": 2570, "annotation": {"number": 64, "value": 127}, "group": "control_change"}, {"time": 2591, "annotation": {"number": 64, "value": 0}, "group": "control_change"}, {"time": 2594, "annotation": {"number": 64, "value": 127}, "group": "control_change"}, {"time": 2612, "annotation": {"number": 64, "value": 0}, "group": "control_change"}, {"time": 2618, "annotation": {"number": 64, "value": 127}, "group": "control_change"}, {"time": 2638, "annotation": {"number": 64, "value": 0}, "group": "control_change"}, {"time": 2641, "annotation": {"number": 64, "value": 127}, "group": "control_change"}, {"time": 2663, "annotation": {"number": 64, "value": 0}, "group": "control_change"}, {"time": 2666, "annotation": {"number": 64, "value": 127}, "group": "control_change"}, {"time": 2687, "annotation": {"number": 64, "value": 0}, "group": "control_change"}, {"time": 2690, "annotation": {"number": 64, "value": 127}, "group": "control_change"}, {"time": 2711, "annotation": {"number": 64, "value": 0}, "group": "control_change"}, {"time": 2725, "annotation": {"number": 64, "value": 127}, "group": "control_change"}, {"time": 2732, "annotation": {"number": 64, "value": 0}, "group": "control_change"}, {"time": 2736, "annotation": {"number": 64, "value": 127}, "group": "control_change"}, {"time": 2739, "annotation": {"number": 64, "value": 0}, "group": "control_change"}, {"time": 2741, "annotation": {"number": 64, "value": 127}, "group": "control_change"}, {"time": 2744, "annotation": {"number": 64, "value": 0}, "group": "control_change"}, {"time": 2786, "annotation": {"number": 64, "value": 127}, "group": "control_change"}, {"time": 2830, "annotation": {"number": 64, "value": 0}, "group": "control_change"}, {"time": 2834, "annotation": {"number": 64, "value": 127}, "group": "control_change"}, {"time": 2855, "annotation": {"number": 64, "value": 0}, "group": "control_change"}, {"time": 2857, "annotation": {"number": 64, "value": 127}, "group": "control_change"}, {"time": 2878, "annotation": {"number": 64, "value": 0}, "group": "control_change"}, {"time": 2882, "annotation": {"number": 64, "value": 127}, "group": "control_change"}, {"time": 2902, "annotation": {"number": 64, "value": 0}, "group": "control_change"}, {"time": 2906, "annotation": {"number": 64, "value": 127}, "group": "control_change"}, {"time": 2926, "annotation": {"number": 64, "value": 0}, "group": "control_change"}, {"time": 2930, "annotation": {"number": 64, "value": 127}, "group": "control_change"}, {"time": 2951, "annotation": {"number": 64, "value": 0}, "group": "control_change"}, {"time": 2955, "annotation": {"number": 64, "value": 127}, "group": "control_change"}, {"time": 2960, "annotation": {"number": 64, "value": 0}, "group": "control_change"}, {"time": 2965, "annotation": {"number": 64, "value": 127}, "group": "control_change"}, {"time": 2976, "annotation": {"number": 64, "value": 0}, "group": "control_change"}, {"time": 2978, "annotation": {"number": 64, "value": 127}, "group": "control_change"}, {"time": 3022, "annotation": {"number": 64, "value": 0}, "group": "control_change"}, {"time": 3029, "annotation": {"number": 64, "value": 127}, "group": "control_change"}, {"time": 3048, "annotation": {"number": 64, "value": 0}, "group": "control_change"}, {"time": 3051, "annotation": {"number": 64, "value": 127}, "group": "control_change"}, {"time": 3072, "annotation": {"number": 64, "value": 0}, "group": "control_change"}, {"time": 3086, "annotation": {"number": 64, "value": 127}, "group": "control_change"}, {"time": 3093, "annotation": {"number": 64, "value": 0}, "group": "control_change"}, {"time": 3109, "annotation": {"number": 64, "value": 127}, "group": "control_change"}, {"time": 3114, "annotation": {"number": 64, "value": 0}, "group": "control_change"}, {"time": 3122, "annotation": {"number": 64, "value": 127}, "group": "control_change"}, {"time": 3143, "annotation": {"number": 64, "value": 0}, "group": "control_change"}, {"time": 3146, "annotation": {"number": 64, "value": 127}, "group": "control_change"}, {"time": 3167, "annotation": {"number": 64, "value": 0}, "group": "control_change"}, {"time": 3170, "annotation": {"number": 64, "value": 127}, "group": "control_change"}, {"time": 3188, "annotation": {"number": 64, "value": 0}, "group": "control_change"}, {"time": 3194, "annotation": {"number": 64, "value": 127}, "group": "control_change"}, {"time": 3214, "annotation": {"number": 64, "value": 0}, "group": "control_change"}, {"time": 3217, "annotation": {"number": 64, "value": 127}, "group": "control_change"}, {"time": 3239, "annotation": {"number": 64, "value": 0}, "group": "control_change"}, {"time": 3242, "annotation": {"number": 64, "value": 127}, "group": "control_change"}, {"time": 3263, "annotation": {"number": 64, "value": 0}, "group": "control_change"}, {"time": 3266, "annotation": {"number": 64, "value": 127}, "group": "control_change"}, {"time": 3287, "annotation": {"number": 64, "value": 0}, "group": "control_change"}, {"time": 3301, "annotation": {"number": 64, "value": 127}, "group": "control_change"}, {"time": 3312, "annotation": {"number": 64, "value": 127}, "group": "control_change"}, {"time": 3359, "annotation": {"number": 64, "value": 0}, "group": "control_change"}, {"time": 3362, "annotation": {"number": 64, "value": 127}, "group": "control_change"}, {"time": 3397, "annotation": {"number": 64, "value": 127}, "group": "control_change"}, {"time": 3406, "annotation": {"number": 64, "value": 0}, "group": "control_change"}, {"time": 3409, "annotation": {"number": 64, "value": 127}, "group": "control_change"}, {"time": 3443, "annotation": {"number": 64, "value": 0}, "group": "control_change"}, {"time": 3448, "annotation": {"number": 64, "value": 127}, "group": "control_change"}, {"time": 3486, "annotation": {"number": 64, "value": 0}, "group": "control_change"}, {"time": 3491, "annotation": {"number": 64, "value": 127}, "group": "control_change"}, {"time": 3599, "annotation": {"number": 64, "value": 0}, "group": "control_change"}, {"time": 3599, "annotation": {"number": 64, "value": 127}, "group": "control_change"}, {"time": 3609, "annotation": {"number": 64, "value": 0}, "group": "control_change"}]}]}