{"metadata": {"schema_version": "0.2", "title": "None", "source_filename": "054.mid", "source_format": "midi"}, "resolution": 12, "tempos": [{"time": 0, "qpm": 70.00007000007}], "time_signatures": [{"time": 0, "numerator": 1, "denominator": 4}], "tracks": [{"program": 0, "is_drum": false, "name": "MELODY", "notes": [{"time": 433, "pitch": 71, "duration": 13, "velocity": 122}, {"time": 451, "pitch": 68, "duration": 3, "velocity": 97}, {"time": 454, "pitch": 69, "duration": 4, "velocity": 82}, {"time": 457, "pitch": 71, "duration": 7, "velocity": 95}, {"time": 463, "pitch": 78, "duration": 4, "velocity": 122}, {"time": 469, "pitch": 78, "duration": 4, "velocity": 122}, {"time": 475, "pitch": 75, "duration": 3, "velocity": 112}, {"time": 478, "pitch": 76, "duration": 17, "velocity": 97}, {"time": 499, "pitch": 76, "duration": 1, "velocity": 117}, {"time": 502, "pitch": 76, "duration": 2, "velocity": 89}, {"time": 505, "pitch": 75, "duration": 5, "velocity": 122}, {"time": 511, "pitch": 71, "duration": 4, "velocity": 88}, {"time": 517, "pitch": 71, "duration": 3, "velocity": 92}, {"time": 520, "pitch": 75, "duration": 9, "velocity": 107}, {"time": 529, "pitch": 73, "duration": 14, "velocity": 102}, {"time": 547, "pitch": 73, "duration": 2, "velocity": 122}, {"time": 550, "pitch": 71, "duration": 2, "velocity": 77}, {"time": 553, "pitch": 73, "duration": 4, "velocity": 107}, {"time": 559, "pitch": 71, "duration": 5, "velocity": 95}, {"time": 565, "pitch": 73, "duration": 5, "velocity": 107}, {"time": 571, "pitch": 71, "duration": 6, "velocity": 102}, {"time": 577, "pitch": 68, "duration": 23, "velocity": 92}, {"time": 619, "pitch": 68, "duration": 2, "velocity": 127}, {"time": 622, "pitch": 69, "duration": 2, "velocity": 90}, {"time": 625, "pitch": 71, "duration": 14, "velocity": 117}, {"time": 643, "pitch": 71, "duration": 1, "velocity": 97}, {"time": 646, "pitch": 71, "duration": 1, "velocity": 97}, {"time": 649, "pitch": 71, "duration": 4, "velocity": 99}, {"time": 655, "pitch": 78, "duration": 4, "velocity": 127}, {"time": 661, "pitch": 78, "duration": 4, "velocity": 127}, {"time": 667, "pitch": 80, "duration": 2, "velocity": 127}, {"time": 670, "pitch": 76, "duration": 20, "velocity": 122}, {"time": 694, "pitch": 76, "duration": 3, "velocity": 107}, {"time": 697, "pitch": 75, "duration": 5, "velocity": 122}, {"time": 703, "pitch": 71, "duration": 4, "velocity": 95}, {"time": 709, "pitch": 71, "duration": 3, "velocity": 102}, {"time": 712, "pitch": 75, "duration": 8, "velocity": 122}, {"time": 721, "pitch": 73, "duration": 21, "velocity": 112}, {"time": 745, "pitch": 78, "duration": 4, "velocity": 127}, {"time": 751, "pitch": 78, "duration": 3, "velocity": 117}, {"time": 757, "pitch": 78, "duration": 5, "velocity": 117}, {"time": 763, "pitch": 75, "duration": 4, "velocity": 112}, {"time": 769, "pitch": 76, "duration": 25, "velocity": 107}, {"time": 817, "pitch": 80, "duration": 4, "velocity": 127}, {"time": 823, "pitch": 80, "duration": 4, "velocity": 127}, {"time": 829, "pitch": 80, "duration": 3, "velocity": 127}, {"time": 832, "pitch": 80, "duration": 1, "velocity": 102}, {"time": 838, "pitch": 80, "duration": 1, "velocity": 122}, {"time": 841, "pitch": 80, "duration": 3, "velocity": 127}, {"time": 847, "pitch": 78, "duration": 1, "velocity": 127}, {"time": 850, "pitch": 78, "duration": 3, "velocity": 122}, {"time": 859, "pitch": 75, "duration": 3, "velocity": 122}, {"time": 862, "pitch": 73, "duration": 3, "velocity": 95}, {"time": 865, "pitch": 71, "duration": 4, "velocity": 99}, {"time": 871, "pitch": 78, "duration": 4, "velocity": 127}, {"time": 877, "pitch": 78, "duration": 5, "velocity": 127}, {"time": 883, "pitch": 80, "duration": 4, "velocity": 107}, {"time": 889, "pitch": 78, "duration": 6, "velocity": 127}, {"time": 895, "pitch": 76, "duration": 1, "velocity": 93}, {"time": 898, "pitch": 76, "duration": 5, "velocity": 102}, {"time": 907, "pitch": 73, "duration": 2, "velocity": 117}, {"time": 910, "pitch": 75, "duration": 2, "velocity": 112}, {"time": 913, "pitch": 76, "duration": 4, "velocity": 107}, {"time": 919, "pitch": 76, "duration": 8, "velocity": 117}, {"time": 937, "pitch": 76, "duration": 5, "velocity": 122}, {"time": 943, "pitch": 75, "duration": 5, "velocity": 107}, {"time": 949, "pitch": 73, "duration": 6, "velocity": 102}, {"time": 955, "pitch": 71, "duration": 7, "velocity": 93}, {"time": 961, "pitch": 68, "duration": 22, "velocity": 107}, {"time": 1009, "pitch": 80, "duration": 4, "velocity": 127}, {"time": 1015, "pitch": 80, "duration": 3, "velocity": 122}, {"time": 1021, "pitch": 80, "duration": 3, "velocity": 127}, {"time": 1027, "pitch": 80, "duration": 1, "velocity": 122}, {"time": 1030, "pitch": 80, "duration": 1, "velocity": 117}, {"time": 1033, "pitch": 80, "duration": 3, "velocity": 127}, {"time": 1039, "pitch": 81, "duration": 2, "velocity": 112}, {"time": 1042, "pitch": 78, "duration": 4, "velocity": 127}, {"time": 1051, "pitch": 75, "duration": 2, "velocity": 102}, {"time": 1054, "pitch": 76, "duration": 3, "velocity": 90}, {"time": 1057, "pitch": 78, "duration": 4, "velocity": 122}, {"time": 1063, "pitch": 83, "duration": 4, "velocity": 112}, {"time": 1069, "pitch": 83, "duration": 3, "velocity": 102}, {"time": 1075, "pitch": 75, "duration": 4, "velocity": 117}, {"time": 1081, "pitch": 78, "duration": 4, "velocity": 127}, {"time": 1087, "pitch": 76, "duration": 1, "velocity": 112}, {"time": 1090, "pitch": 76, "duration": 5, "velocity": 122}, {"time": 1099, "pitch": 73, "duration": 2, "velocity": 127}, {"time": 1102, "pitch": 75, "duration": 2, "velocity": 100}, {"time": 1105, "pitch": 76, "duration": 7, "velocity": 117}, {"time": 1114, "pitch": 76, "duration": 8, "velocity": 127}, {"time": 1129, "pitch": 76, "duration": 6, "velocity": 112}, {"time": 1135, "pitch": 75, "duration": 4, "velocity": 102}, {"time": 1141, "pitch": 76, "duration": 3, "velocity": 107}, {"time": 1144, "pitch": 78, "duration": 7, "velocity": 122}, {"time": 1153, "pitch": 78, "duration": 20, "velocity": 127}, {"time": 1195, "pitch": 76, "duration": 5, "velocity": 117}, {"time": 1201, "pitch": 83, "duration": 5, "velocity": 127}, {"time": 1213, "pitch": 83, "duration": 4, "velocity": 122}, {"time": 1219, "pitch": 76, "duration": 2, "velocity": 102}, {"time": 1222, "pitch": 80, "duration": 3, "velocity": 127}, {"time": 1228, "pitch": 78, "duration": 11, "velocity": 127}, {"time": 1246, "pitch": 75, "duration": 1, "velocity": 122}, {"time": 1249, "pitch": 75, "duration": 4, "velocity": 127}, {"time": 1255, "pitch": 83, "duration": 4, "velocity": 127}, {"time": 1261, "pitch": 83, "duration": 3, "velocity": 127}, {"time": 1267, "pitch": 85, "duration": 4, "velocity": 127}, {"time": 1270, "pitch": 78, "duration": 6, "velocity": 117}, {"time": 1276, "pitch": 76, "duration": 18, "velocity": 102}, {"time": 1291, "pitch": 78, "duration": 2, "velocity": 127}, {"time": 1294, "pitch": 80, "duration": 1, "velocity": 92}, {"time": 1297, "pitch": 81, "duration": 4, "velocity": 122}, {"time": 1303, "pitch": 80, "duration": 1, "velocity": 122}, {"time": 1306, "pitch": 81, "duration": 5, "velocity": 122}, {"time": 1315, "pitch": 81, "duration": 3, "velocity": 102}, {"time": 1318, "pitch": 80, "duration": 2, "velocity": 112}, {"time": 1321, "pitch": 81, "duration": 4, "velocity": 97}, {"time": 1327, "pitch": 80, "duration": 3, "velocity": 127}, {"time": 1333, "pitch": 78, "duration": 3, "velocity": 127}, {"time": 1339, "pitch": 76, "duration": 4, "velocity": 127}, {"time": 1345, "pitch": 80, "duration": 24, "velocity": 127}, {"time": 1387, "pitch": 76, "duration": 4, "velocity": 117}, {"time": 1393, "pitch": 83, "duration": 5, "velocity": 127}, {"time": 1405, "pitch": 83, "duration": 4, "velocity": 127}, {"time": 1411, "pitch": 76, "duration": 2, "velocity": 107}, {"time": 1414, "pitch": 80, "duration": 3, "velocity": 122}, {"time": 1420, "pitch": 78, "duration": 10, "velocity": 127}, {"time": 1435, "pitch": 75, "duration": 1, "velocity": 127}, {"time": 1438, "pitch": 75, "duration": 1, "velocity": 117}, {"time": 1441, "pitch": 75, "duration": 3, "velocity": 127}, {"time": 1447, "pitch": 83, "duration": 4, "velocity": 122}, {"time": 1453, "pitch": 83, "duration": 3, "velocity": 127}, {"time": 1459, "pitch": 85, "duration": 2, "velocity": 122}, {"time": 1462, "pitch": 78, "duration": 9, "velocity": 117}, {"time": 1471, "pitch": 76, "duration": 6, "velocity": 107}, {"time": 1483, "pitch": 78, "duration": 2, "velocity": 127}, {"time": 1486, "pitch": 80, "duration": 2, "velocity": 112}, {"time": 1489, "pitch": 81, "duration": 4, "velocity": 117}, {"time": 1495, "pitch": 80, "duration": 1, "velocity": 122}, {"time": 1498, "pitch": 81, "duration": 6, "velocity": 127}, {"time": 1510, "pitch": 80, "duration": 2, "velocity": 112}, {"time": 1513, "pitch": 81, "duration": 4, "velocity": 99}, {"time": 1519, "pitch": 80, "duration": 3, "velocity": 127}, {"time": 1525, "pitch": 78, "duration": 4, "velocity": 127}, {"time": 1531, "pitch": 76, "duration": 4, "velocity": 112}, {"time": 1537, "pitch": 76, "duration": 26, "velocity": 127}, {"time": 1969, "pitch": 71, "duration": 13, "velocity": 122}, {"time": 1987, "pitch": 68, "duration": 3, "velocity": 97}, {"time": 1990, "pitch": 69, "duration": 4, "velocity": 82}, {"time": 1993, "pitch": 71, "duration": 7, "velocity": 95}, {"time": 1999, "pitch": 78, "duration": 4, "velocity": 122}, {"time": 2005, "pitch": 78, "duration": 4, "velocity": 122}, {"time": 2011, "pitch": 75, "duration": 3, "velocity": 112}, {"time": 2014, "pitch": 76, "duration": 17, "velocity": 97}, {"time": 2035, "pitch": 76, "duration": 1, "velocity": 117}, {"time": 2038, "pitch": 76, "duration": 2, "velocity": 89}, {"time": 2041, "pitch": 75, "duration": 5, "velocity": 122}, {"time": 2047, "pitch": 71, "duration": 4, "velocity": 88}, {"time": 2053, "pitch": 71, "duration": 3, "velocity": 92}, {"time": 2056, "pitch": 75, "duration": 9, "velocity": 107}, {"time": 2065, "pitch": 73, "duration": 14, "velocity": 102}, {"time": 2083, "pitch": 73, "duration": 2, "velocity": 122}, {"time": 2086, "pitch": 71, "duration": 2, "velocity": 77}, {"time": 2089, "pitch": 73, "duration": 4, "velocity": 107}, {"time": 2095, "pitch": 71, "duration": 5, "velocity": 95}, {"time": 2101, "pitch": 73, "duration": 5, "velocity": 107}, {"time": 2107, "pitch": 71, "duration": 6, "velocity": 102}, {"time": 2113, "pitch": 68, "duration": 23, "velocity": 92}, {"time": 2155, "pitch": 68, "duration": 2, "velocity": 127}, {"time": 2158, "pitch": 69, "duration": 2, "velocity": 90}, {"time": 2161, "pitch": 71, "duration": 14, "velocity": 117}, {"time": 2179, "pitch": 71, "duration": 1, "velocity": 97}, {"time": 2182, "pitch": 71, "duration": 1, "velocity": 97}, {"time": 2185, "pitch": 71, "duration": 4, "velocity": 99}, {"time": 2191, "pitch": 78, "duration": 4, "velocity": 127}, {"time": 2197, "pitch": 78, "duration": 4, "velocity": 127}, {"time": 2203, "pitch": 80, "duration": 2, "velocity": 127}, {"time": 2206, "pitch": 76, "duration": 20, "velocity": 122}, {"time": 2230, "pitch": 76, "duration": 3, "velocity": 107}, {"time": 2233, "pitch": 75, "duration": 5, "velocity": 122}, {"time": 2239, "pitch": 71, "duration": 4, "velocity": 95}, {"time": 2245, "pitch": 71, "duration": 3, "velocity": 102}, {"time": 2248, "pitch": 75, "duration": 8, "velocity": 122}, {"time": 2257, "pitch": 73, "duration": 21, "velocity": 112}, {"time": 2281, "pitch": 78, "duration": 4, "velocity": 127}, {"time": 2287, "pitch": 78, "duration": 3, "velocity": 117}, {"time": 2293, "pitch": 78, "duration": 5, "velocity": 117}, {"time": 2299, "pitch": 75, "duration": 4, "velocity": 112}, {"time": 2305, "pitch": 76, "duration": 25, "velocity": 107}, {"time": 2353, "pitch": 80, "duration": 4, "velocity": 127}, {"time": 2359, "pitch": 80, "duration": 4, "velocity": 127}, {"time": 2365, "pitch": 80, "duration": 3, "velocity": 127}, {"time": 2368, "pitch": 80, "duration": 1, "velocity": 102}, {"time": 2374, "pitch": 80, "duration": 1, "velocity": 122}, {"time": 2377, "pitch": 80, "duration": 3, "velocity": 127}, {"time": 2383, "pitch": 78, "duration": 1, "velocity": 127}, {"time": 2386, "pitch": 78, "duration": 3, "velocity": 122}, {"time": 2395, "pitch": 75, "duration": 3, "velocity": 122}, {"time": 2398, "pitch": 73, "duration": 3, "velocity": 95}, {"time": 2401, "pitch": 71, "duration": 4, "velocity": 99}, {"time": 2407, "pitch": 78, "duration": 4, "velocity": 127}, {"time": 2413, "pitch": 78, "duration": 5, "velocity": 127}, {"time": 2419, "pitch": 80, "duration": 4, "velocity": 107}, {"time": 2425, "pitch": 78, "duration": 6, "velocity": 127}, {"time": 2431, "pitch": 76, "duration": 1, "velocity": 93}, {"time": 2434, "pitch": 76, "duration": 5, "velocity": 102}, {"time": 2443, "pitch": 73, "duration": 2, "velocity": 117}, {"time": 2446, "pitch": 75, "duration": 2, "velocity": 112}, {"time": 2449, "pitch": 76, "duration": 4, "velocity": 107}, {"time": 2455, "pitch": 76, "duration": 8, "velocity": 117}, {"time": 2473, "pitch": 76, "duration": 5, "velocity": 122}, {"time": 2479, "pitch": 75, "duration": 5, "velocity": 107}, {"time": 2485, "pitch": 73, "duration": 6, "velocity": 102}, {"time": 2491, "pitch": 71, "duration": 7, "velocity": 93}, {"time": 2497, "pitch": 68, "duration": 22, "velocity": 107}, {"time": 2545, "pitch": 80, "duration": 4, "velocity": 127}, {"time": 2551, "pitch": 80, "duration": 3, "velocity": 122}, {"time": 2557, "pitch": 80, "duration": 3, "velocity": 127}, {"time": 2563, "pitch": 80, "duration": 1, "velocity": 122}, {"time": 2566, "pitch": 80, "duration": 1, "velocity": 117}, {"time": 2569, "pitch": 80, "duration": 3, "velocity": 127}, {"time": 2575, "pitch": 81, "duration": 2, "velocity": 112}, {"time": 2578, "pitch": 78, "duration": 4, "velocity": 127}, {"time": 2587, "pitch": 75, "duration": 2, "velocity": 102}, {"time": 2590, "pitch": 76, "duration": 3, "velocity": 90}, {"time": 2593, "pitch": 78, "duration": 4, "velocity": 122}, {"time": 2599, "pitch": 83, "duration": 4, "velocity": 112}, {"time": 2605, "pitch": 83, "duration": 3, "velocity": 102}, {"time": 2611, "pitch": 75, "duration": 4, "velocity": 117}, {"time": 2617, "pitch": 78, "duration": 4, "velocity": 127}, {"time": 2623, "pitch": 76, "duration": 1, "velocity": 112}, {"time": 2626, "pitch": 76, "duration": 5, "velocity": 122}, {"time": 2635, "pitch": 73, "duration": 2, "velocity": 127}, {"time": 2638, "pitch": 75, "duration": 2, "velocity": 100}, {"time": 2641, "pitch": 76, "duration": 7, "velocity": 117}, {"time": 2650, "pitch": 76, "duration": 8, "velocity": 127}, {"time": 2665, "pitch": 76, "duration": 6, "velocity": 112}, {"time": 2671, "pitch": 75, "duration": 4, "velocity": 102}, {"time": 2677, "pitch": 76, "duration": 3, "velocity": 107}, {"time": 2680, "pitch": 78, "duration": 7, "velocity": 122}, {"time": 2689, "pitch": 78, "duration": 20, "velocity": 127}, {"time": 2731, "pitch": 76, "duration": 5, "velocity": 117}, {"time": 2737, "pitch": 83, "duration": 5, "velocity": 127}, {"time": 2749, "pitch": 83, "duration": 4, "velocity": 122}, {"time": 2755, "pitch": 76, "duration": 2, "velocity": 102}, {"time": 2758, "pitch": 80, "duration": 3, "velocity": 127}, {"time": 2764, "pitch": 78, "duration": 11, "velocity": 127}, {"time": 2782, "pitch": 75, "duration": 1, "velocity": 122}, {"time": 2785, "pitch": 75, "duration": 4, "velocity": 127}, {"time": 2791, "pitch": 83, "duration": 4, "velocity": 127}, {"time": 2797, "pitch": 83, "duration": 3, "velocity": 127}, {"time": 2803, "pitch": 85, "duration": 4, "velocity": 127}, {"time": 2806, "pitch": 78, "duration": 6, "velocity": 117}, {"time": 2812, "pitch": 76, "duration": 18, "velocity": 102}, {"time": 2827, "pitch": 78, "duration": 2, "velocity": 127}, {"time": 2830, "pitch": 80, "duration": 1, "velocity": 92}, {"time": 2833, "pitch": 81, "duration": 4, "velocity": 122}, {"time": 2839, "pitch": 80, "duration": 1, "velocity": 122}, {"time": 2842, "pitch": 81, "duration": 5, "velocity": 122}, {"time": 2851, "pitch": 81, "duration": 3, "velocity": 102}, {"time": 2854, "pitch": 80, "duration": 2, "velocity": 112}, {"time": 2857, "pitch": 81, "duration": 4, "velocity": 97}, {"time": 2863, "pitch": 80, "duration": 3, "velocity": 127}, {"time": 2869, "pitch": 78, "duration": 3, "velocity": 127}, {"time": 2875, "pitch": 76, "duration": 4, "velocity": 127}, {"time": 2881, "pitch": 80, "duration": 24, "velocity": 127}, {"time": 2923, "pitch": 76, "duration": 4, "velocity": 117}, {"time": 2929, "pitch": 83, "duration": 5, "velocity": 127}, {"time": 2941, "pitch": 83, "duration": 4, "velocity": 127}, {"time": 2947, "pitch": 76, "duration": 2, "velocity": 107}, {"time": 2950, "pitch": 80, "duration": 3, "velocity": 122}, {"time": 2956, "pitch": 78, "duration": 10, "velocity": 127}, {"time": 2971, "pitch": 75, "duration": 1, "velocity": 127}, {"time": 2974, "pitch": 75, "duration": 1, "velocity": 117}, {"time": 2977, "pitch": 75, "duration": 3, "velocity": 127}, {"time": 2983, "pitch": 83, "duration": 4, "velocity": 122}, {"time": 2989, "pitch": 83, "duration": 3, "velocity": 127}, {"time": 2995, "pitch": 85, "duration": 2, "velocity": 122}, {"time": 2998, "pitch": 78, "duration": 9, "velocity": 117}, {"time": 3007, "pitch": 76, "duration": 6, "velocity": 107}, {"time": 3019, "pitch": 78, "duration": 2, "velocity": 127}, {"time": 3022, "pitch": 80, "duration": 2, "velocity": 112}, {"time": 3025, "pitch": 81, "duration": 4, "velocity": 117}, {"time": 3031, "pitch": 80, "duration": 1, "velocity": 122}, {"time": 3034, "pitch": 81, "duration": 6, "velocity": 127}, {"time": 3046, "pitch": 80, "duration": 2, "velocity": 112}, {"time": 3049, "pitch": 81, "duration": 4, "velocity": 99}, {"time": 3055, "pitch": 80, "duration": 3, "velocity": 127}, {"time": 3061, "pitch": 78, "duration": 4, "velocity": 127}, {"time": 3067, "pitch": 76, "duration": 4, "velocity": 112}, {"time": 3073, "pitch": 76, "duration": 26, "velocity": 127}, {"time": 3115, "pitch": 76, "duration": 5, "velocity": 117}, {"time": 3121, "pitch": 83, "duration": 5, "velocity": 127}, {"time": 3133, "pitch": 83, "duration": 4, "velocity": 122}, {"time": 3139, "pitch": 76, "duration": 2, "velocity": 102}, {"time": 3142, "pitch": 80, "duration": 3, "velocity": 127}, {"time": 3148, "pitch": 78, "duration": 11, "velocity": 127}, {"time": 3166, "pitch": 75, "duration": 1, "velocity": 122}, {"time": 3169, "pitch": 75, "duration": 4, "velocity": 127}, {"time": 3175, "pitch": 83, "duration": 4, "velocity": 127}, {"time": 3181, "pitch": 83, "duration": 3, "velocity": 127}, {"time": 3187, "pitch": 85, "duration": 4, "velocity": 127}, {"time": 3190, "pitch": 78, "duration": 6, "velocity": 117}, {"time": 3196, "pitch": 76, "duration": 18, "velocity": 102}, {"time": 3211, "pitch": 78, "duration": 2, "velocity": 127}, {"time": 3214, "pitch": 80, "duration": 1, "velocity": 92}, {"time": 3217, "pitch": 81, "duration": 4, "velocity": 122}, {"time": 3223, "pitch": 80, "duration": 1, "velocity": 122}, {"time": 3226, "pitch": 81, "duration": 5, "velocity": 122}, {"time": 3235, "pitch": 81, "duration": 3, "velocity": 102}, {"time": 3238, "pitch": 80, "duration": 2, "velocity": 112}, {"time": 3241, "pitch": 81, "duration": 4, "velocity": 97}, {"time": 3247, "pitch": 80, "duration": 3, "velocity": 127}, {"time": 3253, "pitch": 78, "duration": 3, "velocity": 127}, {"time": 3259, "pitch": 76, "duration": 4, "velocity": 127}, {"time": 3265, "pitch": 80, "duration": 24, "velocity": 127}, {"time": 3307, "pitch": 76, "duration": 4, "velocity": 117}, {"time": 3313, "pitch": 83, "duration": 5, "velocity": 127}, {"time": 3325, "pitch": 83, "duration": 4, "velocity": 127}, {"time": 3331, "pitch": 76, "duration": 2, "velocity": 107}, {"time": 3334, "pitch": 80, "duration": 3, "velocity": 122}, {"time": 3340, "pitch": 78, "duration": 10, "velocity": 127}, {"time": 3355, "pitch": 75, "duration": 1, "velocity": 127}, {"time": 3358, "pitch": 75, "duration": 1, "velocity": 117}, {"time": 3361, "pitch": 75, "duration": 3, "velocity": 127}, {"time": 3367, "pitch": 83, "duration": 4, "velocity": 122}, {"time": 3373, "pitch": 83, "duration": 3, "velocity": 127}, {"time": 3379, "pitch": 85, "duration": 2, "velocity": 122}, {"time": 3382, "pitch": 78, "duration": 9, "velocity": 117}, {"time": 3391, "pitch": 76, "duration": 6, "velocity": 107}, {"time": 3403, "pitch": 78, "duration": 2, "velocity": 127}, {"time": 3406, "pitch": 80, "duration": 2, "velocity": 112}, {"time": 3409, "pitch": 81, "duration": 4, "velocity": 117}, {"time": 3415, "pitch": 80, "duration": 1, "velocity": 122}, {"time": 3418, "pitch": 81, "duration": 6, "velocity": 127}, {"time": 3430, "pitch": 80, "duration": 2, "velocity": 112}, {"time": 3433, "pitch": 81, "duration": 4, "velocity": 99}, {"time": 3439, "pitch": 80, "duration": 3, "velocity": 127}, {"time": 3445, "pitch": 78, "duration": 4, "velocity": 127}, {"time": 3451, "pitch": 76, "duration": 4, "velocity": 112}, {"time": 3457, "pitch": 76, "duration": 26, "velocity": 127}, {"time": 3499, "pitch": 78, "duration": 2, "velocity": 127}, {"time": 3502, "pitch": 80, "duration": 2, "velocity": 112}, {"time": 3505, "pitch": 81, "duration": 7, "velocity": 127}, {"time": 3511, "pitch": 80, "duration": 2, "velocity": 127}, {"time": 3514, "pitch": 81, "duration": 9, "velocity": 112}, {"time": 3526, "pitch": 80, "duration": 2, "velocity": 117}, {"time": 3529, "pitch": 81, "duration": 3, "velocity": 100}, {"time": 3535, "pitch": 80, "duration": 3, "velocity": 122}, {"time": 3541, "pitch": 78, "duration": 6, "velocity": 127}, {"time": 3550, "pitch": 76, "duration": 2, "velocity": 95}, {"time": 3553, "pitch": 76, "duration": 43, "velocity": 100}], "annotations": [{"time": 429, "annotation": {"number": 64, "value": 127}, "group": "control_change"}, {"time": 451, "annotation": {"number": 64, "value": 0}, "group": "control_change"}, {"time": 456, "annotation": {"number": 64, "value": 127}, "group": "control_change"}, {"time": 463, "annotation": {"number": 64, "value": 0}, "group": "control_change"}, {"time": 1987, "annotation": {"number": 64, "value": 0}, "group": "control_change"}, {"time": 1992, "annotation": {"number": 64, "value": 127}, "group": "control_change"}, {"time": 1999, "annotation": {"number": 64, "value": 0}, "group": "control_change"}]}, {"program": 0, "is_drum": false, "name": "PIANO", "notes": [{"time": 49, "pitch": 57, "duration": 13, "velocity": 60}, {"time": 55, "pitch": 64, "duration": 6, "velocity": 45}, {"time": 61, "pitch": 69, "duration": 12, "velocity": 75}, {"time": 61, "pitch": 73, "duration": 12, "velocity": 78}, {"time": 67, "pitch": 64, "duration": 6, "velocity": 45}, {"time": 73, "pitch": 59, "duration": 18, "velocity": 69}, {"time": 79, "pitch": 66, "duration": 11, "velocity": 64}, {"time": 85, "pitch": 75, "duration": 12, "velocity": 95}, {"time": 85, "pitch": 78, "duration": 11, "velocity": 63}, {"time": 91, "pitch": 71, "duration": 6, "velocity": 48}, {"time": 97, "pitch": 56, "duration": 18, "velocity": 58}, {"time": 103, "pitch": 68, "duration": 7, "velocity": 53}, {"time": 109, "pitch": 71, "duration": 12, "velocity": 66}, {"time": 109, "pitch": 75, "duration": 11, "velocity": 59}, {"time": 115, "pitch": 68, "duration": 9, "velocity": 46}, {"time": 121, "pitch": 61, "duration": 15, "velocity": 38}, {"time": 127, "pitch": 68, "duration": 8, "velocity": 63}, {"time": 133, "pitch": 73, "duration": 12, "velocity": 38}, {"time": 133, "pitch": 76, "duration": 12, "velocity": 69}, {"time": 139, "pitch": 68, "duration": 6, "velocity": 55}, {"time": 145, "pitch": 57, "duration": 22, "velocity": 70}, {"time": 151, "pitch": 64, "duration": 7, "velocity": 68}, {"time": 157, "pitch": 69, "duration": 19, "velocity": 67}, {"time": 157, "pitch": 73, "duration": 20, "velocity": 60}, {"time": 163, "pitch": 64, "duration": 8, "velocity": 47}, {"time": 169, "pitch": 57, "duration": 14, "velocity": 44}, {"time": 175, "pitch": 64, "duration": 7, "velocity": 51}, {"time": 181, "pitch": 69, "duration": 12, "velocity": 66}, {"time": 181, "pitch": 73, "duration": 13, "velocity": 58}, {"time": 187, "pitch": 64, "duration": 8, "velocity": 41}, {"time": 193, "pitch": 47, "duration": 43, "velocity": 57}, {"time": 199, "pitch": 54, "duration": 16, "velocity": 58}, {"time": 205, "pitch": 59, "duration": 25, "velocity": 73}, {"time": 211, "pitch": 66, "duration": 16, "velocity": 63}, {"time": 217, "pitch": 54, "duration": 18, "velocity": 56}, {"time": 217, "pitch": 63, "duration": 24, "velocity": 63}, {"time": 229, "pitch": 66, "duration": 13, "velocity": 66}, {"time": 235, "pitch": 59, "duration": 7, "velocity": 38}, {"time": 241, "pitch": 45, "duration": 15, "velocity": 71}, {"time": 247, "pitch": 52, "duration": 10, "velocity": 66}, {"time": 253, "pitch": 61, "duration": 13, "velocity": 89}, {"time": 253, "pitch": 64, "duration": 12, "velocity": 88}, {"time": 259, "pitch": 57, "duration": 7, "velocity": 52}, {"time": 265, "pitch": 47, "duration": 14, "velocity": 69}, {"time": 271, "pitch": 54, "duration": 8, "velocity": 73}, {"time": 277, "pitch": 63, "duration": 11, "velocity": 117}, {"time": 277, "pitch": 66, "duration": 13, "velocity": 107}, {"time": 283, "pitch": 59, "duration": 9, "velocity": 59}, {"time": 289, "pitch": 44, "duration": 17, "velocity": 90}, {"time": 295, "pitch": 56, "duration": 12, "velocity": 82}, {"time": 301, "pitch": 63, "duration": 12, "velocity": 86}, {"time": 301, "pitch": 68, "duration": 12, "velocity": 96}, {"time": 307, "pitch": 59, "duration": 6, "velocity": 69}, {"time": 313, "pitch": 49, "duration": 8, "velocity": 64}, {"time": 319, "pitch": 61, "duration": 7, "velocity": 76}, {"time": 325, "pitch": 64, "duration": 11, "velocity": 69}, {"time": 325, "pitch": 68, "duration": 12, "velocity": 99}, {"time": 331, "pitch": 61, "duration": 7, "velocity": 67}, {"time": 337, "pitch": 45, "duration": 18, "velocity": 72}, {"time": 343, "pitch": 52, "duration": 13, "velocity": 66}, {"time": 349, "pitch": 61, "duration": 12, "velocity": 86}, {"time": 349, "pitch": 64, "duration": 12, "velocity": 76}, {"time": 355, "pitch": 57, "duration": 8, "velocity": 62}, {"time": 361, "pitch": 47, "duration": 15, "velocity": 71}, {"time": 367, "pitch": 54, "duration": 8, "velocity": 56}, {"time": 373, "pitch": 63, "duration": 13, "velocity": 99}, {"time": 373, "pitch": 66, "duration": 13, "velocity": 89}, {"time": 379, "pitch": 59, "duration": 8, "velocity": 55}, {"time": 385, "pitch": 40, "duration": 34, "velocity": 73}, {"time": 391, "pitch": 47, "duration": 9, "velocity": 66}, {"time": 397, "pitch": 59, "duration": 11, "velocity": 85}, {"time": 403, "pitch": 47, "duration": 18, "velocity": 49}, {"time": 409, "pitch": 52, "duration": 22, "velocity": 71}, {"time": 409, "pitch": 56, "duration": 22, "velocity": 62}, {"time": 409, "pitch": 59, "duration": 22, "velocity": 72}, {"time": 433, "pitch": 40, "duration": 39, "velocity": 66}, {"time": 433, "pitch": 52, "duration": 6, "velocity": 38}, {"time": 433, "pitch": 56, "duration": 10, "velocity": 64}, {"time": 433, "pitch": 59, "duration": 9, "velocity": 67}, {"time": 439, "pitch": 47, "duration": 32, "velocity": 37}, {"time": 445, "pitch": 56, "duration": 22, "velocity": 63}, {"time": 445, "pitch": 59, "duration": 22, "velocity": 62}, {"time": 457, "pitch": 52, "duration": 18, "velocity": 41}, {"time": 469, "pitch": 56, "duration": 6, "velocity": 72}, {"time": 469, "pitch": 59, "duration": 6, "velocity": 75}, {"time": 481, "pitch": 37, "duration": 38, "velocity": 93}, {"time": 487, "pitch": 49, "duration": 9, "velocity": 46}, {"time": 493, "pitch": 56, "duration": 17, "velocity": 70}, {"time": 499, "pitch": 49, "duration": 9, "velocity": 47}, {"time": 505, "pitch": 61, "duration": 9, "velocity": 82}, {"time": 511, "pitch": 49, "duration": 10, "velocity": 58}, {"time": 517, "pitch": 61, "duration": 15, "velocity": 95}, {"time": 523, "pitch": 56, "duration": 8, "velocity": 46}, {"time": 529, "pitch": 45, "duration": 35, "velocity": 72}, {"time": 535, "pitch": 52, "duration": 23, "velocity": 52}, {"time": 541, "pitch": 64, "duration": 21, "velocity": 88}, {"time": 547, "pitch": 57, "duration": 31, "velocity": 58}, {"time": 553, "pitch": 61, "duration": 9, "velocity": 52}, {"time": 559, "pitch": 52, "duration": 3, "velocity": 33}, {"time": 565, "pitch": 64, "duration": 13, "velocity": 72}, {"time": 571, "pitch": 61, "duration": 6, "velocity": 31}, {"time": 577, "pitch": 40, "duration": 41, "velocity": 68}, {"time": 583, "pitch": 47, "duration": 9, "velocity": 59}, {"time": 589, "pitch": 52, "duration": 13, "velocity": 66}, {"time": 595, "pitch": 47, "duration": 25, "velocity": 52}, {"time": 601, "pitch": 59, "duration": 1, "velocity": 86}, {"time": 607, "pitch": 52, "duration": 14, "velocity": 31}, {"time": 613, "pitch": 68, "duration": 14, "velocity": 122}, {"time": 616, "pitch": 64, "duration": 10, "velocity": 63}, {"time": 619, "pitch": 59, "duration": 6, "velocity": 67}, {"time": 625, "pitch": 40, "duration": 34, "velocity": 66}, {"time": 631, "pitch": 47, "duration": 27, "velocity": 58}, {"time": 637, "pitch": 64, "duration": 8, "velocity": 85}, {"time": 643, "pitch": 52, "duration": 11, "velocity": 53}, {"time": 649, "pitch": 64, "duration": 10, "velocity": 83}, {"time": 649, "pitch": 68, "duration": 11, "velocity": 97}, {"time": 655, "pitch": 52, "duration": 5, "velocity": 53}, {"time": 661, "pitch": 64, "duration": 9, "velocity": 88}, {"time": 661, "pitch": 68, "duration": 8, "velocity": 92}, {"time": 667, "pitch": 51, "duration": 7, "velocity": 82}, {"time": 673, "pitch": 49, "duration": 17, "velocity": 82}, {"time": 679, "pitch": 61, "duration": 7, "velocity": 47}, {"time": 685, "pitch": 64, "duration": 7, "velocity": 69}, {"time": 691, "pitch": 61, "duration": 7, "velocity": 61}, {"time": 697, "pitch": 64, "duration": 10, "velocity": 74}, {"time": 697, "pitch": 68, "duration": 10, "velocity": 64}, {"time": 709, "pitch": 64, "duration": 2, "velocity": 73}, {"time": 709, "pitch": 68, "duration": 5, "velocity": 88}, {"time": 712, "pitch": 64, "duration": 2, "velocity": 26}, {"time": 715, "pitch": 47, "duration": 6, "velocity": 65}, {"time": 721, "pitch": 45, "duration": 37, "velocity": 66}, {"time": 727, "pitch": 52, "duration": 9, "velocity": 48}, {"time": 733, "pitch": 61, "duration": 18, "velocity": 79}, {"time": 733, "pitch": 64, "duration": 36, "velocity": 74}, {"time": 739, "pitch": 52, "duration": 9, "velocity": 38}, {"time": 745, "pitch": 57, "duration": 11, "velocity": 73}, {"time": 751, "pitch": 52, "duration": 6, "velocity": 39}, {"time": 757, "pitch": 61, "duration": 12, "velocity": 112}, {"time": 763, "pitch": 57, "duration": 7, "velocity": 49}, {"time": 769, "pitch": 40, "duration": 37, "velocity": 76}, {"time": 775, "pitch": 47, "duration": 19, "velocity": 56}, {"time": 781, "pitch": 59, "duration": 11, "velocity": 88}, {"time": 787, "pitch": 56, "duration": 5, "velocity": 81}, {"time": 793, "pitch": 52, "duration": 11, "velocity": 93}, {"time": 793, "pitch": 56, "duration": 10, "velocity": 72}, {"time": 793, "pitch": 59, "duration": 11, "velocity": 67}, {"time": 793, "pitch": 62, "duration": 10, "velocity": 70}, {"time": 805, "pitch": 56, "duration": 7, "velocity": 96}, {"time": 805, "pitch": 59, "duration": 7, "velocity": 85}, {"time": 805, "pitch": 62, "duration": 7, "velocity": 89}, {"time": 811, "pitch": 52, "duration": 1, "velocity": 85}, {"time": 817, "pitch": 45, "duration": 13, "velocity": 76}, {"time": 817, "pitch": 57, "duration": 17, "velocity": 82}, {"time": 817, "pitch": 61, "duration": 7, "velocity": 88}, {"time": 817, "pitch": 64, "duration": 7, "velocity": 82}, {"time": 823, "pitch": 52, "duration": 7, "velocity": 47}, {"time": 829, "pitch": 61, "duration": 3, "velocity": 102}, {"time": 829, "pitch": 64, "duration": 3, "velocity": 90}, {"time": 841, "pitch": 47, "duration": 16, "velocity": 65}, {"time": 841, "pitch": 59, "duration": 8, "velocity": 82}, {"time": 841, "pitch": 63, "duration": 8, "velocity": 100}, {"time": 841, "pitch": 66, "duration": 8, "velocity": 97}, {"time": 847, "pitch": 54, "duration": 8, "velocity": 58}, {"time": 853, "pitch": 63, "duration": 5, "velocity": 112}, {"time": 853, "pitch": 66, "duration": 5, "velocity": 122}, {"time": 865, "pitch": 44, "duration": 19, "velocity": 77}, {"time": 865, "pitch": 59, "duration": 11, "velocity": 77}, {"time": 865, "pitch": 63, "duration": 10, "velocity": 92}, {"time": 877, "pitch": 63, "duration": 6, "velocity": 100}, {"time": 883, "pitch": 56, "duration": 6, "velocity": 66}, {"time": 889, "pitch": 49, "duration": 16, "velocity": 66}, {"time": 889, "pitch": 56, "duration": 10, "velocity": 36}, {"time": 889, "pitch": 61, "duration": 7, "velocity": 72}, {"time": 889, "pitch": 64, "duration": 9, "velocity": 89}, {"time": 901, "pitch": 61, "duration": 6, "velocity": 117}, {"time": 901, "pitch": 64, "duration": 7, "velocity": 89}, {"time": 907, "pitch": 47, "duration": 6, "velocity": 64}, {"time": 913, "pitch": 45, "duration": 14, "velocity": 69}, {"time": 913, "pitch": 57, "duration": 13, "velocity": 92}, {"time": 913, "pitch": 61, "duration": 10, "velocity": 96}, {"time": 913, "pitch": 64, "duration": 13, "velocity": 82}, {"time": 919, "pitch": 52, "duration": 6, "velocity": 35}, {"time": 925, "pitch": 61, "duration": 6, "velocity": 68}, {"time": 931, "pitch": 57, "duration": 3, "velocity": 69}, {"time": 937, "pitch": 47, "duration": 14, "velocity": 64}, {"time": 937, "pitch": 59, "duration": 9, "velocity": 82}, {"time": 937, "pitch": 63, "duration": 10, "velocity": 117}, {"time": 937, "pitch": 66, "duration": 9, "velocity": 100}, {"time": 949, "pitch": 63, "duration": 7, "velocity": 122}, {"time": 949, "pitch": 66, "duration": 6, "velocity": 102}, {"time": 955, "pitch": 59, "duration": 1, "velocity": 89}, {"time": 961, "pitch": 40, "duration": 23, "velocity": 73}, {"time": 961, "pitch": 56, "duration": 12, "velocity": 92}, {"time": 961, "pitch": 59, "duration": 12, "velocity": 88}, {"time": 967, "pitch": 47, "duration": 17, "velocity": 56}, {"time": 973, "pitch": 52, "duration": 21, "velocity": 88}, {"time": 979, "pitch": 56, "duration": 5, "velocity": 68}, {"time": 985, "pitch": 40, "duration": 18, "velocity": 85}, {"time": 985, "pitch": 56, "duration": 8, "velocity": 96}, {"time": 985, "pitch": 59, "duration": 9, "velocity": 90}, {"time": 985, "pitch": 62, "duration": 9, "velocity": 95}, {"time": 991, "pitch": 47, "duration": 8, "velocity": 58}, {"time": 997, "pitch": 56, "duration": 6, "velocity": 117}, {"time": 997, "pitch": 59, "duration": 6, "velocity": 97}, {"time": 1003, "pitch": 47, "duration": 2, "velocity": 74}, {"time": 1009, "pitch": 33, "duration": 14, "velocity": 72}, {"time": 1009, "pitch": 45, "duration": 14, "velocity": 72}, {"time": 1009, "pitch": 57, "duration": 12, "velocity": 93}, {"time": 1009, "pitch": 61, "duration": 11, "velocity": 99}, {"time": 1009, "pitch": 64, "duration": 10, "velocity": 82}, {"time": 1015, "pitch": 52, "duration": 8, "velocity": 42}, {"time": 1021, "pitch": 64, "duration": 6, "velocity": 69}, {"time": 1027, "pitch": 57, "duration": 3, "velocity": 81}, {"time": 1033, "pitch": 35, "duration": 13, "velocity": 69}, {"time": 1033, "pitch": 47, "duration": 13, "velocity": 69}, {"time": 1033, "pitch": 59, "duration": 8, "velocity": 77}, {"time": 1033, "pitch": 63, "duration": 7, "velocity": 112}, {"time": 1033, "pitch": 66, "duration": 7, "velocity": 102}, {"time": 1039, "pitch": 54, "duration": 7, "velocity": 41}, {"time": 1045, "pitch": 63, "duration": 7, "velocity": 127}, {"time": 1045, "pitch": 66, "duration": 6, "velocity": 127}, {"time": 1048, "pitch": 47, "duration": 2, "velocity": 58}, {"time": 1048, "pitch": 54, "duration": 2, "velocity": 62}, {"time": 1051, "pitch": 59, "duration": 3, "velocity": 93}, {"time": 1057, "pitch": 32, "duration": 21, "velocity": 95}, {"time": 1057, "pitch": 44, "duration": 21, "velocity": 95}, {"time": 1057, "pitch": 59, "duration": 9, "velocity": 85}, {"time": 1057, "pitch": 63, "duration": 8, "velocity": 95}, {"time": 1063, "pitch": 56, "duration": 8, "velocity": 61}, {"time": 1069, "pitch": 59, "duration": 6, "velocity": 92}, {"time": 1069, "pitch": 63, "duration": 5, "velocity": 127}, {"time": 1075, "pitch": 56, "duration": 3, "velocity": 63}, {"time": 1081, "pitch": 37, "duration": 12, "velocity": 63}, {"time": 1081, "pitch": 49, "duration": 12, "velocity": 63}, {"time": 1081, "pitch": 61, "duration": 8, "velocity": 102}, {"time": 1081, "pitch": 64, "duration": 7, "velocity": 90}, {"time": 1081, "pitch": 68, "duration": 7, "velocity": 100}, {"time": 1093, "pitch": 61, "duration": 4, "velocity": 97}, {"time": 1093, "pitch": 64, "duration": 4, "velocity": 100}, {"time": 1093, "pitch": 68, "duration": 4, "velocity": 112}, {"time": 1096, "pitch": 49, "duration": 2, "velocity": 95}, {"time": 1099, "pitch": 47, "duration": 7, "velocity": 82}, {"time": 1105, "pitch": 33, "duration": 18, "velocity": 78}, {"time": 1105, "pitch": 45, "duration": 18, "velocity": 78}, {"time": 1105, "pitch": 57, "duration": 10, "velocity": 90}, {"time": 1105, "pitch": 61, "duration": 8, "velocity": 97}, {"time": 1105, "pitch": 64, "duration": 9, "velocity": 83}, {"time": 1117, "pitch": 57, "duration": 10, "velocity": 95}, {"time": 1117, "pitch": 61, "duration": 10, "velocity": 127}, {"time": 1117, "pitch": 64, "duration": 10, "velocity": 96}, {"time": 1126, "pitch": 45, "duration": 2, "velocity": 20}, {"time": 1129, "pitch": 33, "duration": 16, "velocity": 69}, {"time": 1129, "pitch": 45, "duration": 16, "velocity": 69}, {"time": 1129, "pitch": 57, "duration": 10, "velocity": 79}, {"time": 1129, "pitch": 61, "duration": 10, "velocity": 99}, {"time": 1129, "pitch": 64, "duration": 9, "velocity": 82}, {"time": 1141, "pitch": 57, "duration": 8, "velocity": 99}, {"time": 1141, "pitch": 61, "duration": 5, "velocity": 127}, {"time": 1141, "pitch": 64, "duration": 5, "velocity": 96}, {"time": 1147, "pitch": 45, "duration": 5, "velocity": 81}, {"time": 1153, "pitch": 35, "duration": 23, "velocity": 93}, {"time": 1153, "pitch": 47, "duration": 23, "velocity": 93}, {"time": 1153, "pitch": 59, "duration": 10, "velocity": 93}, {"time": 1153, "pitch": 63, "duration": 10, "velocity": 117}, {"time": 1153, "pitch": 66, "duration": 10, "velocity": 102}, {"time": 1165, "pitch": 51, "duration": 6, "velocity": 25}, {"time": 1165, "pitch": 59, "duration": 8, "velocity": 96}, {"time": 1165, "pitch": 63, "duration": 7, "velocity": 127}, {"time": 1165, "pitch": 66, "duration": 7, "velocity": 127}, {"time": 1171, "pitch": 54, "duration": 4, "velocity": 82}, {"time": 1174, "pitch": 51, "duration": 2, "velocity": 39}, {"time": 1177, "pitch": 35, "duration": 22, "velocity": 62}, {"time": 1177, "pitch": 47, "duration": 22, "velocity": 62}, {"time": 1177, "pitch": 51, "duration": 1, "velocity": 59}, {"time": 1177, "pitch": 54, "duration": 7, "velocity": 117}, {"time": 1177, "pitch": 59, "duration": 2, "velocity": 117}, {"time": 1177, "pitch": 71, "duration": 2, "velocity": 93}, {"time": 1183, "pitch": 51, "duration": 8, "velocity": 54}, {"time": 1183, "pitch": 61, "duration": 1, "velocity": 122}, {"time": 1183, "pitch": 73, "duration": 1, "velocity": 99}, {"time": 1189, "pitch": 54, "duration": 5, "velocity": 95}, {"time": 1189, "pitch": 63, "duration": 4, "velocity": 127}, {"time": 1189, "pitch": 75, "duration": 3, "velocity": 93}, {"time": 1195, "pitch": 51, "duration": 3, "velocity": 75}, {"time": 1195, "pitch": 54, "duration": 2, "velocity": 42}, {"time": 1201, "pitch": 33, "duration": 22, "velocity": 70}, {"time": 1201, "pitch": 45, "duration": 22, "velocity": 70}, {"time": 1201, "pitch": 57, "duration": 10, "velocity": 107}, {"time": 1201, "pitch": 61, "duration": 9, "velocity": 117}, {"time": 1201, "pitch": 64, "duration": 8, "velocity": 92}, {"time": 1207, "pitch": 52, "duration": 9, "velocity": 41}, {"time": 1213, "pitch": 57, "duration": 8, "velocity": 102}, {"time": 1213, "pitch": 61, "duration": 5, "velocity": 127}, {"time": 1213, "pitch": 64, "duration": 5, "velocity": 96}, {"time": 1219, "pitch": 52, "duration": 5, "velocity": 41}, {"time": 1225, "pitch": 35, "duration": 16, "velocity": 70}, {"time": 1225, "pitch": 47, "duration": 16, "velocity": 70}, {"time": 1225, "pitch": 59, "duration": 8, "velocity": 92}, {"time": 1225, "pitch": 63, "duration": 7, "velocity": 127}, {"time": 1225, "pitch": 66, "duration": 7, "velocity": 107}, {"time": 1231, "pitch": 54, "duration": 7, "velocity": 53}, {"time": 1237, "pitch": 63, "duration": 7, "velocity": 127}, {"time": 1237, "pitch": 66, "duration": 6, "velocity": 122}, {"time": 1240, "pitch": 54, "duration": 1, "velocity": 100}, {"time": 1243, "pitch": 59, "duration": 4, "velocity": 88}, {"time": 1249, "pitch": 32, "duration": 19, "velocity": 96}, {"time": 1249, "pitch": 44, "duration": 19, "velocity": 96}, {"time": 1249, "pitch": 59, "duration": 10, "velocity": 97}, {"time": 1249, "pitch": 63, "duration": 6, "velocity": 112}, {"time": 1255, "pitch": 56, "duration": 8, "velocity": 77}, {"time": 1261, "pitch": 59, "duration": 7, "velocity": 95}, {"time": 1261, "pitch": 63, "duration": 6, "velocity": 112}, {"time": 1267, "pitch": 56, "duration": 4, "velocity": 66}, {"time": 1273, "pitch": 49, "duration": 10, "velocity": 73}, {"time": 1273, "pitch": 61, "duration": 9, "velocity": 107}, {"time": 1273, "pitch": 64, "duration": 7, "velocity": 93}, {"time": 1273, "pitch": 68, "duration": 6, "velocity": 100}, {"time": 1285, "pitch": 61, "duration": 5, "velocity": 100}, {"time": 1285, "pitch": 64, "duration": 4, "velocity": 102}, {"time": 1285, "pitch": 68, "duration": 4, "velocity": 117}, {"time": 1291, "pitch": 49, "duration": 6, "velocity": 99}, {"time": 1297, "pitch": 33, "duration": 16, "velocity": 74}, {"time": 1297, "pitch": 45, "duration": 16, "velocity": 74}, {"time": 1297, "pitch": 57, "duration": 10, "velocity": 107}, {"time": 1297, "pitch": 61, "duration": 10, "velocity": 117}, {"time": 1297, "pitch": 64, "duration": 9, "velocity": 97}, {"time": 1309, "pitch": 57, "duration": 8, "velocity": 102}, {"time": 1309, "pitch": 61, "duration": 5, "velocity": 127}, {"time": 1309, "pitch": 64, "duration": 6, "velocity": 100}, {"time": 1315, "pitch": 33, "duration": 6, "velocity": 74}, {"time": 1315, "pitch": 45, "duration": 6, "velocity": 74}, {"time": 1321, "pitch": 35, "duration": 24, "velocity": 88}, {"time": 1321, "pitch": 47, "duration": 24, "velocity": 88}, {"time": 1321, "pitch": 59, "duration": 9, "velocity": 92}, {"time": 1321, "pitch": 63, "duration": 9, "velocity": 117}, {"time": 1321, "pitch": 66, "duration": 9, "velocity": 99}, {"time": 1333, "pitch": 63, "duration": 6, "velocity": 127}, {"time": 1333, "pitch": 66, "duration": 6, "velocity": 122}, {"time": 1339, "pitch": 59, "duration": 1, "velocity": 77}, {"time": 1345, "pitch": 40, "duration": 23, "velocity": 72}, {"time": 1345, "pitch": 52, "duration": 7, "velocity": 102}, {"time": 1345, "pitch": 56, "duration": 7, "velocity": 100}, {"time": 1345, "pitch": 59, "duration": 9, "velocity": 95}, {"time": 1351, "pitch": 47, "duration": 7, "velocity": 46}, {"time": 1357, "pitch": 52, "duration": 6, "velocity": 90}, {"time": 1357, "pitch": 56, "duration": 4, "velocity": 112}, {"time": 1357, "pitch": 59, "duration": 6, "velocity": 96}, {"time": 1363, "pitch": 47, "duration": 6, "velocity": 68}, {"time": 1366, "pitch": 52, "duration": 1, "velocity": 38}, {"time": 1369, "pitch": 40, "duration": 18, "velocity": 81}, {"time": 1369, "pitch": 52, "duration": 10, "velocity": 99}, {"time": 1369, "pitch": 56, "duration": 8, "velocity": 107}, {"time": 1369, "pitch": 59, "duration": 10, "velocity": 88}, {"time": 1369, "pitch": 62, "duration": 9, "velocity": 89}, {"time": 1375, "pitch": 47, "duration": 9, "velocity": 66}, {"time": 1381, "pitch": 52, "duration": 5, "velocity": 97}, {"time": 1381, "pitch": 56, "duration": 5, "velocity": 127}, {"time": 1381, "pitch": 59, "duration": 5, "velocity": 97}, {"time": 1381, "pitch": 62, "duration": 6, "velocity": 96}, {"time": 1387, "pitch": 47, "duration": 1, "velocity": 59}, {"time": 1393, "pitch": 33, "duration": 19, "velocity": 68}, {"time": 1393, "pitch": 45, "duration": 19, "velocity": 68}, {"time": 1393, "pitch": 57, "duration": 9, "velocity": 96}, {"time": 1393, "pitch": 61, "duration": 10, "velocity": 112}, {"time": 1393, "pitch": 64, "duration": 7, "velocity": 93}, {"time": 1399, "pitch": 52, "duration": 9, "velocity": 33}, {"time": 1405, "pitch": 57, "duration": 8, "velocity": 95}, {"time": 1405, "pitch": 61, "duration": 5, "velocity": 117}, {"time": 1405, "pitch": 64, "duration": 5, "velocity": 95}, {"time": 1411, "pitch": 52, "duration": 6, "velocity": 64}, {"time": 1417, "pitch": 35, "duration": 15, "velocity": 64}, {"time": 1417, "pitch": 47, "duration": 15, "velocity": 64}, {"time": 1417, "pitch": 59, "duration": 8, "velocity": 90}, {"time": 1417, "pitch": 63, "duration": 7, "velocity": 117}, {"time": 1417, "pitch": 66, "duration": 7, "velocity": 102}, {"time": 1423, "pitch": 54, "duration": 7, "velocity": 42}, {"time": 1429, "pitch": 63, "duration": 6, "velocity": 127}, {"time": 1429, "pitch": 66, "duration": 6, "velocity": 122}, {"time": 1435, "pitch": 59, "duration": 2, "velocity": 95}, {"time": 1441, "pitch": 32, "duration": 16, "velocity": 76}, {"time": 1441, "pitch": 44, "duration": 16, "velocity": 76}, {"time": 1441, "pitch": 56, "duration": 9, "velocity": 100}, {"time": 1441, "pitch": 59, "duration": 9, "velocity": 95}, {"time": 1441, "pitch": 63, "duration": 7, "velocity": 99}, {"time": 1453, "pitch": 56, "duration": 4, "velocity": 107}, {"time": 1453, "pitch": 59, "duration": 4, "velocity": 102}, {"time": 1453, "pitch": 63, "duration": 4, "velocity": 107}, {"time": 1459, "pitch": 32, "duration": 5, "velocity": 100}, {"time": 1459, "pitch": 44, "duration": 5, "velocity": 100}, {"time": 1465, "pitch": 37, "duration": 16, "velocity": 72}, {"time": 1465, "pitch": 49, "duration": 16, "velocity": 72}, {"time": 1465, "pitch": 61, "duration": 6, "velocity": 107}, {"time": 1465, "pitch": 64, "duration": 6, "velocity": 90}, {"time": 1465, "pitch": 68, "duration": 6, "velocity": 96}, {"time": 1477, "pitch": 61, "duration": 5, "velocity": 112}, {"time": 1477, "pitch": 64, "duration": 4, "velocity": 107}, {"time": 1477, "pitch": 68, "duration": 4, "velocity": 112}, {"time": 1483, "pitch": 35, "duration": 7, "velocity": 93}, {"time": 1483, "pitch": 47, "duration": 7, "velocity": 93}, {"time": 1489, "pitch": 33, "duration": 14, "velocity": 69}, {"time": 1489, "pitch": 45, "duration": 14, "velocity": 69}, {"time": 1489, "pitch": 57, "duration": 10, "velocity": 97}, {"time": 1489, "pitch": 61, "duration": 9, "velocity": 112}, {"time": 1489, "pitch": 64, "duration": 9, "velocity": 90}, {"time": 1501, "pitch": 61, "duration": 6, "velocity": 127}, {"time": 1501, "pitch": 64, "duration": 6, "velocity": 96}, {"time": 1507, "pitch": 57, "duration": 4, "velocity": 86}, {"time": 1513, "pitch": 35, "duration": 14, "velocity": 71}, {"time": 1513, "pitch": 47, "duration": 14, "velocity": 71}, {"time": 1513, "pitch": 59, "duration": 9, "velocity": 96}, {"time": 1513, "pitch": 63, "duration": 8, "velocity": 112}, {"time": 1513, "pitch": 66, "duration": 8, "velocity": 97}, {"time": 1519, "pitch": 54, "duration": 6, "velocity": 47}, {"time": 1525, "pitch": 63, "duration": 7, "velocity": 127}, {"time": 1525, "pitch": 66, "duration": 7, "velocity": 127}, {"time": 1531, "pitch": 59, "duration": 4, "velocity": 83}, {"time": 1537, "pitch": 40, "duration": 49, "velocity": 81}, {"time": 1537, "pitch": 59, "duration": 7, "velocity": 97}, {"time": 1537, "pitch": 64, "duration": 6, "velocity": 100}, {"time": 1537, "pitch": 68, "duration": 6, "velocity": 100}, {"time": 1543, "pitch": 47, "duration": 42, "velocity": 56}, {"time": 1555, "pitch": 52, "duration": 21, "velocity": 53}, {"time": 1573, "pitch": 64, "duration": 17, "velocity": 86}, {"time": 1573, "pitch": 68, "duration": 17, "velocity": 82}, {"time": 1579, "pitch": 59, "duration": 11, "velocity": 62}, {"time": 1585, "pitch": 45, "duration": 17, "velocity": 72}, {"time": 1591, "pitch": 52, "duration": 13, "velocity": 66}, {"time": 1597, "pitch": 61, "duration": 17, "velocity": 69}, {"time": 1597, "pitch": 64, "duration": 11, "velocity": 64}, {"time": 1603, "pitch": 57, "duration": 8, "velocity": 55}, {"time": 1609, "pitch": 47, "duration": 14, "velocity": 72}, {"time": 1615, "pitch": 54, "duration": 7, "velocity": 42}, {"time": 1621, "pitch": 63, "duration": 10, "velocity": 97}, {"time": 1621, "pitch": 66, "duration": 9, "velocity": 89}, {"time": 1627, "pitch": 59, "duration": 5, "velocity": 48}, {"time": 1633, "pitch": 44, "duration": 13, "velocity": 82}, {"time": 1639, "pitch": 56, "duration": 7, "velocity": 67}, {"time": 1645, "pitch": 59, "duration": 12, "velocity": 68}, {"time": 1645, "pitch": 63, "duration": 10, "velocity": 73}, {"time": 1651, "pitch": 56, "duration": 8, "velocity": 53}, {"time": 1657, "pitch": 49, "duration": 16, "velocity": 69}, {"time": 1663, "pitch": 56, "duration": 8, "velocity": 52}, {"time": 1669, "pitch": 61, "duration": 10, "velocity": 59}, {"time": 1669, "pitch": 64, "duration": 6, "velocity": 69}, {"time": 1681, "pitch": 45, "duration": 14, "velocity": 73}, {"time": 1687, "pitch": 52, "duration": 11, "velocity": 36}, {"time": 1693, "pitch": 61, "duration": 15, "velocity": 90}, {"time": 1693, "pitch": 64, "duration": 9, "velocity": 76}, {"time": 1699, "pitch": 57, "duration": 7, "velocity": 53}, {"time": 1705, "pitch": 47, "duration": 13, "velocity": 72}, {"time": 1711, "pitch": 54, "duration": 7, "velocity": 51}, {"time": 1717, "pitch": 63, "duration": 6, "velocity": 127}, {"time": 1717, "pitch": 66, "duration": 5, "velocity": 100}, {"time": 1723, "pitch": 59, "duration": 1, "velocity": 73}, {"time": 1729, "pitch": 40, "duration": 42, "velocity": 82}, {"time": 1729, "pitch": 52, "duration": 5, "velocity": 79}, {"time": 1729, "pitch": 56, "duration": 5, "velocity": 97}, {"time": 1729, "pitch": 59, "duration": 5, "velocity": 83}, {"time": 1735, "pitch": 47, "duration": 7, "velocity": 42}, {"time": 1738, "pitch": 56, "duration": 1, "velocity": 33}, {"time": 1741, "pitch": 52, "duration": 7, "velocity": 38}, {"time": 1741, "pitch": 56, "duration": 1, "velocity": 127}, {"time": 1741, "pitch": 68, "duration": 1, "velocity": 100}, {"time": 1747, "pitch": 47, "duration": 7, "velocity": 44}, {"time": 1753, "pitch": 52, "duration": 7, "velocity": 82}, {"time": 1753, "pitch": 59, "duration": 2, "velocity": 102}, {"time": 1753, "pitch": 71, "duration": 2, "velocity": 97}, {"time": 1759, "pitch": 47, "duration": 12, "velocity": 41}, {"time": 1765, "pitch": 52, "duration": 11, "velocity": 81}, {"time": 1765, "pitch": 61, "duration": 1, "velocity": 117}, {"time": 1765, "pitch": 73, "duration": 1, "velocity": 90}, {"time": 1768, "pitch": 63, "duration": 1, "velocity": 72}, {"time": 1768, "pitch": 75, "duration": 1, "velocity": 42}, {"time": 1771, "pitch": 63, "duration": 1, "velocity": 127}, {"time": 1777, "pitch": 45, "duration": 22, "velocity": 79}, {"time": 1777, "pitch": 57, "duration": 10, "velocity": 122}, {"time": 1777, "pitch": 61, "duration": 8, "velocity": 117}, {"time": 1777, "pitch": 64, "duration": 10, "velocity": 95}, {"time": 1783, "pitch": 52, "duration": 8, "velocity": 49}, {"time": 1789, "pitch": 57, "duration": 9, "velocity": 100}, {"time": 1789, "pitch": 61, "duration": 9, "velocity": 127}, {"time": 1789, "pitch": 64, "duration": 5, "velocity": 96}, {"time": 1795, "pitch": 52, "duration": 6, "velocity": 64}, {"time": 1801, "pitch": 47, "duration": 16, "velocity": 86}, {"time": 1801, "pitch": 59, "duration": 9, "velocity": 92}, {"time": 1801, "pitch": 63, "duration": 10, "velocity": 122}, {"time": 1801, "pitch": 66, "duration": 9, "velocity": 122}, {"time": 1813, "pitch": 59, "duration": 3, "velocity": 96}, {"time": 1813, "pitch": 63, "duration": 6, "velocity": 127}, {"time": 1813, "pitch": 66, "duration": 6, "velocity": 127}, {"time": 1819, "pitch": 47, "duration": 6, "velocity": 86}, {"time": 1825, "pitch": 44, "duration": 10, "velocity": 76}, {"time": 1825, "pitch": 56, "duration": 9, "velocity": 100}, {"time": 1825, "pitch": 59, "duration": 5, "velocity": 95}, {"time": 1825, "pitch": 63, "duration": 9, "velocity": 100}, {"time": 1837, "pitch": 44, "duration": 2, "velocity": 68}, {"time": 1837, "pitch": 56, "duration": 1, "velocity": 100}, {"time": 1837, "pitch": 59, "duration": 1, "velocity": 93}, {"time": 1837, "pitch": 63, "duration": 1, "velocity": 96}, {"time": 1843, "pitch": 49, "duration": 21, "velocity": 81}, {"time": 1843, "pitch": 56, "duration": 15, "velocity": 99}, {"time": 1843, "pitch": 61, "duration": 16, "velocity": 97}, {"time": 1843, "pitch": 64, "duration": 15, "velocity": 79}, {"time": 1861, "pitch": 56, "duration": 6, "velocity": 107}, {"time": 1861, "pitch": 61, "duration": 6, "velocity": 112}, {"time": 1861, "pitch": 64, "duration": 6, "velocity": 85}, {"time": 1867, "pitch": 49, "duration": 5, "velocity": 90}, {"time": 1873, "pitch": 45, "duration": 15, "velocity": 69}, {"time": 1873, "pitch": 57, "duration": 10, "velocity": 99}, {"time": 1873, "pitch": 61, "duration": 10, "velocity": 107}, {"time": 1873, "pitch": 64, "duration": 10, "velocity": 95}, {"time": 1885, "pitch": 57, "duration": 1, "velocity": 90}, {"time": 1885, "pitch": 61, "duration": 1, "velocity": 112}, {"time": 1885, "pitch": 64, "duration": 2, "velocity": 77}, {"time": 1891, "pitch": 47, "duration": 21, "velocity": 95}, {"time": 1891, "pitch": 59, "duration": 15, "velocity": 97}, {"time": 1891, "pitch": 63, "duration": 15, "velocity": 122}, {"time": 1891, "pitch": 66, "duration": 15, "velocity": 107}, {"time": 1909, "pitch": 63, "duration": 6, "velocity": 127}, {"time": 1909, "pitch": 66, "duration": 6, "velocity": 117}, {"time": 1915, "pitch": 59, "duration": 5, "velocity": 96}, {"time": 1921, "pitch": 40, "duration": 48, "velocity": 75}, {"time": 1921, "pitch": 59, "duration": 5, "velocity": 74}, {"time": 1921, "pitch": 64, "duration": 4, "velocity": 95}, {"time": 1921, "pitch": 68, "duration": 4, "velocity": 102}, {"time": 1927, "pitch": 47, "duration": 42, "velocity": 66}, {"time": 1933, "pitch": 56, "duration": 1, "velocity": 93}, {"time": 1933, "pitch": 59, "duration": 1, "velocity": 93}, {"time": 1939, "pitch": 52, "duration": 29, "velocity": 57}, {"time": 1945, "pitch": 64, "duration": 24, "velocity": 77}, {"time": 1945, "pitch": 68, "duration": 24, "velocity": 90}, {"time": 1945, "pitch": 71, "duration": 24, "velocity": 78}, {"time": 1969, "pitch": 40, "duration": 1, "velocity": 66}, {"time": 1969, "pitch": 52, "duration": 6, "velocity": 38}, {"time": 1969, "pitch": 56, "duration": 10, "velocity": 64}, {"time": 1969, "pitch": 59, "duration": 9, "velocity": 67}, {"time": 1975, "pitch": 47, "duration": 32, "velocity": 37}, {"time": 1981, "pitch": 56, "duration": 22, "velocity": 63}, {"time": 1981, "pitch": 59, "duration": 22, "velocity": 62}, {"time": 1993, "pitch": 52, "duration": 18, "velocity": 41}, {"time": 2005, "pitch": 56, "duration": 6, "velocity": 72}, {"time": 2005, "pitch": 59, "duration": 6, "velocity": 75}, {"time": 2017, "pitch": 37, "duration": 38, "velocity": 93}, {"time": 2023, "pitch": 49, "duration": 9, "velocity": 46}, {"time": 2029, "pitch": 56, "duration": 17, "velocity": 70}, {"time": 2035, "pitch": 49, "duration": 9, "velocity": 47}, {"time": 2041, "pitch": 61, "duration": 9, "velocity": 82}, {"time": 2047, "pitch": 49, "duration": 10, "velocity": 58}, {"time": 2053, "pitch": 61, "duration": 15, "velocity": 95}, {"time": 2059, "pitch": 56, "duration": 8, "velocity": 46}, {"time": 2065, "pitch": 45, "duration": 35, "velocity": 72}, {"time": 2071, "pitch": 52, "duration": 23, "velocity": 52}, {"time": 2077, "pitch": 64, "duration": 21, "velocity": 88}, {"time": 2083, "pitch": 57, "duration": 31, "velocity": 58}, {"time": 2089, "pitch": 61, "duration": 9, "velocity": 52}, {"time": 2095, "pitch": 52, "duration": 3, "velocity": 33}, {"time": 2101, "pitch": 64, "duration": 13, "velocity": 72}, {"time": 2107, "pitch": 61, "duration": 6, "velocity": 31}, {"time": 2113, "pitch": 40, "duration": 41, "velocity": 68}, {"time": 2119, "pitch": 47, "duration": 9, "velocity": 59}, {"time": 2125, "pitch": 52, "duration": 13, "velocity": 66}, {"time": 2131, "pitch": 47, "duration": 25, "velocity": 52}, {"time": 2137, "pitch": 59, "duration": 1, "velocity": 86}, {"time": 2143, "pitch": 52, "duration": 14, "velocity": 31}, {"time": 2149, "pitch": 68, "duration": 14, "velocity": 122}, {"time": 2152, "pitch": 64, "duration": 10, "velocity": 63}, {"time": 2155, "pitch": 59, "duration": 6, "velocity": 67}, {"time": 2161, "pitch": 40, "duration": 34, "velocity": 66}, {"time": 2167, "pitch": 47, "duration": 27, "velocity": 58}, {"time": 2173, "pitch": 64, "duration": 8, "velocity": 85}, {"time": 2179, "pitch": 52, "duration": 11, "velocity": 53}, {"time": 2185, "pitch": 64, "duration": 10, "velocity": 83}, {"time": 2185, "pitch": 68, "duration": 11, "velocity": 97}, {"time": 2191, "pitch": 52, "duration": 5, "velocity": 53}, {"time": 2197, "pitch": 64, "duration": 9, "velocity": 88}, {"time": 2197, "pitch": 68, "duration": 8, "velocity": 92}, {"time": 2203, "pitch": 51, "duration": 7, "velocity": 82}, {"time": 2209, "pitch": 49, "duration": 17, "velocity": 82}, {"time": 2215, "pitch": 61, "duration": 7, "velocity": 47}, {"time": 2221, "pitch": 64, "duration": 7, "velocity": 69}, {"time": 2227, "pitch": 61, "duration": 7, "velocity": 61}, {"time": 2233, "pitch": 64, "duration": 10, "velocity": 74}, {"time": 2233, "pitch": 68, "duration": 10, "velocity": 64}, {"time": 2245, "pitch": 64, "duration": 2, "velocity": 73}, {"time": 2245, "pitch": 68, "duration": 5, "velocity": 88}, {"time": 2248, "pitch": 64, "duration": 2, "velocity": 26}, {"time": 2251, "pitch": 47, "duration": 6, "velocity": 65}, {"time": 2257, "pitch": 45, "duration": 37, "velocity": 66}, {"time": 2263, "pitch": 52, "duration": 9, "velocity": 48}, {"time": 2269, "pitch": 61, "duration": 18, "velocity": 79}, {"time": 2269, "pitch": 64, "duration": 36, "velocity": 74}, {"time": 2275, "pitch": 52, "duration": 9, "velocity": 38}, {"time": 2281, "pitch": 57, "duration": 11, "velocity": 73}, {"time": 2287, "pitch": 52, "duration": 6, "velocity": 39}, {"time": 2293, "pitch": 61, "duration": 12, "velocity": 112}, {"time": 2299, "pitch": 57, "duration": 7, "velocity": 49}, {"time": 2305, "pitch": 40, "duration": 37, "velocity": 76}, {"time": 2311, "pitch": 47, "duration": 19, "velocity": 56}, {"time": 2317, "pitch": 59, "duration": 11, "velocity": 88}, {"time": 2323, "pitch": 56, "duration": 5, "velocity": 81}, {"time": 2329, "pitch": 52, "duration": 11, "velocity": 93}, {"time": 2329, "pitch": 56, "duration": 10, "velocity": 72}, {"time": 2329, "pitch": 59, "duration": 11, "velocity": 67}, {"time": 2329, "pitch": 62, "duration": 10, "velocity": 70}, {"time": 2341, "pitch": 56, "duration": 7, "velocity": 96}, {"time": 2341, "pitch": 59, "duration": 7, "velocity": 85}, {"time": 2341, "pitch": 62, "duration": 7, "velocity": 89}, {"time": 2347, "pitch": 52, "duration": 1, "velocity": 85}, {"time": 2353, "pitch": 45, "duration": 13, "velocity": 76}, {"time": 2353, "pitch": 57, "duration": 17, "velocity": 82}, {"time": 2353, "pitch": 61, "duration": 7, "velocity": 88}, {"time": 2353, "pitch": 64, "duration": 7, "velocity": 82}, {"time": 2359, "pitch": 52, "duration": 7, "velocity": 47}, {"time": 2365, "pitch": 61, "duration": 3, "velocity": 102}, {"time": 2365, "pitch": 64, "duration": 3, "velocity": 90}, {"time": 2377, "pitch": 47, "duration": 16, "velocity": 65}, {"time": 2377, "pitch": 59, "duration": 8, "velocity": 82}, {"time": 2377, "pitch": 63, "duration": 8, "velocity": 100}, {"time": 2377, "pitch": 66, "duration": 8, "velocity": 97}, {"time": 2383, "pitch": 54, "duration": 8, "velocity": 58}, {"time": 2389, "pitch": 63, "duration": 5, "velocity": 112}, {"time": 2389, "pitch": 66, "duration": 5, "velocity": 122}, {"time": 2401, "pitch": 44, "duration": 19, "velocity": 77}, {"time": 2401, "pitch": 59, "duration": 11, "velocity": 77}, {"time": 2401, "pitch": 63, "duration": 10, "velocity": 92}, {"time": 2413, "pitch": 63, "duration": 6, "velocity": 100}, {"time": 2419, "pitch": 56, "duration": 6, "velocity": 66}, {"time": 2425, "pitch": 49, "duration": 16, "velocity": 66}, {"time": 2425, "pitch": 56, "duration": 10, "velocity": 36}, {"time": 2425, "pitch": 61, "duration": 7, "velocity": 72}, {"time": 2425, "pitch": 64, "duration": 9, "velocity": 89}, {"time": 2437, "pitch": 61, "duration": 6, "velocity": 117}, {"time": 2437, "pitch": 64, "duration": 7, "velocity": 89}, {"time": 2443, "pitch": 47, "duration": 6, "velocity": 64}, {"time": 2449, "pitch": 45, "duration": 14, "velocity": 69}, {"time": 2449, "pitch": 57, "duration": 13, "velocity": 92}, {"time": 2449, "pitch": 61, "duration": 10, "velocity": 96}, {"time": 2449, "pitch": 64, "duration": 13, "velocity": 82}, {"time": 2455, "pitch": 52, "duration": 6, "velocity": 35}, {"time": 2461, "pitch": 61, "duration": 6, "velocity": 68}, {"time": 2467, "pitch": 57, "duration": 3, "velocity": 69}, {"time": 2473, "pitch": 47, "duration": 14, "velocity": 64}, {"time": 2473, "pitch": 59, "duration": 9, "velocity": 82}, {"time": 2473, "pitch": 63, "duration": 10, "velocity": 117}, {"time": 2473, "pitch": 66, "duration": 9, "velocity": 100}, {"time": 2485, "pitch": 63, "duration": 7, "velocity": 122}, {"time": 2485, "pitch": 66, "duration": 6, "velocity": 102}, {"time": 2491, "pitch": 59, "duration": 1, "velocity": 89}, {"time": 2497, "pitch": 40, "duration": 23, "velocity": 73}, {"time": 2497, "pitch": 56, "duration": 12, "velocity": 92}, {"time": 2497, "pitch": 59, "duration": 12, "velocity": 88}, {"time": 2503, "pitch": 47, "duration": 17, "velocity": 56}, {"time": 2509, "pitch": 52, "duration": 21, "velocity": 88}, {"time": 2515, "pitch": 56, "duration": 5, "velocity": 68}, {"time": 2521, "pitch": 40, "duration": 18, "velocity": 85}, {"time": 2521, "pitch": 56, "duration": 8, "velocity": 96}, {"time": 2521, "pitch": 59, "duration": 9, "velocity": 90}, {"time": 2521, "pitch": 62, "duration": 9, "velocity": 95}, {"time": 2527, "pitch": 47, "duration": 8, "velocity": 58}, {"time": 2533, "pitch": 56, "duration": 6, "velocity": 117}, {"time": 2533, "pitch": 59, "duration": 6, "velocity": 97}, {"time": 2539, "pitch": 47, "duration": 2, "velocity": 74}, {"time": 2545, "pitch": 45, "duration": 14, "velocity": 72}, {"time": 2545, "pitch": 57, "duration": 12, "velocity": 93}, {"time": 2545, "pitch": 61, "duration": 11, "velocity": 99}, {"time": 2545, "pitch": 64, "duration": 10, "velocity": 82}, {"time": 2551, "pitch": 52, "duration": 8, "velocity": 42}, {"time": 2557, "pitch": 64, "duration": 6, "velocity": 69}, {"time": 2563, "pitch": 57, "duration": 3, "velocity": 81}, {"time": 2569, "pitch": 47, "duration": 13, "velocity": 69}, {"time": 2569, "pitch": 59, "duration": 8, "velocity": 77}, {"time": 2569, "pitch": 63, "duration": 7, "velocity": 112}, {"time": 2569, "pitch": 66, "duration": 7, "velocity": 102}, {"time": 2575, "pitch": 54, "duration": 7, "velocity": 41}, {"time": 2581, "pitch": 63, "duration": 7, "velocity": 127}, {"time": 2581, "pitch": 66, "duration": 6, "velocity": 127}, {"time": 2584, "pitch": 47, "duration": 2, "velocity": 58}, {"time": 2584, "pitch": 54, "duration": 2, "velocity": 62}, {"time": 2587, "pitch": 59, "duration": 3, "velocity": 93}, {"time": 2593, "pitch": 44, "duration": 21, "velocity": 95}, {"time": 2593, "pitch": 59, "duration": 9, "velocity": 85}, {"time": 2593, "pitch": 63, "duration": 8, "velocity": 95}, {"time": 2599, "pitch": 56, "duration": 8, "velocity": 61}, {"time": 2605, "pitch": 59, "duration": 6, "velocity": 92}, {"time": 2605, "pitch": 63, "duration": 5, "velocity": 127}, {"time": 2611, "pitch": 56, "duration": 3, "velocity": 63}, {"time": 2617, "pitch": 49, "duration": 12, "velocity": 63}, {"time": 2617, "pitch": 61, "duration": 8, "velocity": 102}, {"time": 2617, "pitch": 64, "duration": 7, "velocity": 90}, {"time": 2617, "pitch": 68, "duration": 7, "velocity": 100}, {"time": 2629, "pitch": 61, "duration": 4, "velocity": 97}, {"time": 2629, "pitch": 64, "duration": 4, "velocity": 100}, {"time": 2629, "pitch": 68, "duration": 4, "velocity": 112}, {"time": 2632, "pitch": 49, "duration": 2, "velocity": 95}, {"time": 2635, "pitch": 47, "duration": 7, "velocity": 82}, {"time": 2641, "pitch": 45, "duration": 18, "velocity": 78}, {"time": 2641, "pitch": 57, "duration": 10, "velocity": 90}, {"time": 2641, "pitch": 61, "duration": 8, "velocity": 97}, {"time": 2641, "pitch": 64, "duration": 9, "velocity": 83}, {"time": 2653, "pitch": 57, "duration": 10, "velocity": 95}, {"time": 2653, "pitch": 61, "duration": 10, "velocity": 127}, {"time": 2653, "pitch": 64, "duration": 10, "velocity": 96}, {"time": 2662, "pitch": 45, "duration": 2, "velocity": 20}, {"time": 2665, "pitch": 45, "duration": 16, "velocity": 69}, {"time": 2665, "pitch": 57, "duration": 10, "velocity": 79}, {"time": 2665, "pitch": 61, "duration": 10, "velocity": 99}, {"time": 2665, "pitch": 64, "duration": 9, "velocity": 82}, {"time": 2677, "pitch": 57, "duration": 8, "velocity": 99}, {"time": 2677, "pitch": 61, "duration": 5, "velocity": 127}, {"time": 2677, "pitch": 64, "duration": 5, "velocity": 96}, {"time": 2683, "pitch": 45, "duration": 5, "velocity": 81}, {"time": 2689, "pitch": 47, "duration": 23, "velocity": 93}, {"time": 2689, "pitch": 59, "duration": 10, "velocity": 93}, {"time": 2689, "pitch": 63, "duration": 10, "velocity": 117}, {"time": 2689, "pitch": 66, "duration": 10, "velocity": 102}, {"time": 2701, "pitch": 51, "duration": 6, "velocity": 25}, {"time": 2701, "pitch": 59, "duration": 8, "velocity": 96}, {"time": 2701, "pitch": 63, "duration": 7, "velocity": 127}, {"time": 2701, "pitch": 66, "duration": 7, "velocity": 127}, {"time": 2707, "pitch": 54, "duration": 4, "velocity": 82}, {"time": 2710, "pitch": 51, "duration": 2, "velocity": 39}, {"time": 2713, "pitch": 47, "duration": 22, "velocity": 62}, {"time": 2713, "pitch": 51, "duration": 1, "velocity": 59}, {"time": 2713, "pitch": 54, "duration": 7, "velocity": 117}, {"time": 2713, "pitch": 59, "duration": 2, "velocity": 117}, {"time": 2713, "pitch": 71, "duration": 2, "velocity": 93}, {"time": 2719, "pitch": 51, "duration": 8, "velocity": 54}, {"time": 2719, "pitch": 61, "duration": 1, "velocity": 122}, {"time": 2719, "pitch": 73, "duration": 1, "velocity": 99}, {"time": 2725, "pitch": 54, "duration": 5, "velocity": 95}, {"time": 2725, "pitch": 63, "duration": 4, "velocity": 127}, {"time": 2725, "pitch": 75, "duration": 3, "velocity": 93}, {"time": 2731, "pitch": 51, "duration": 3, "velocity": 75}, {"time": 2731, "pitch": 54, "duration": 2, "velocity": 42}, {"time": 2737, "pitch": 45, "duration": 22, "velocity": 70}, {"time": 2737, "pitch": 57, "duration": 10, "velocity": 107}, {"time": 2737, "pitch": 61, "duration": 9, "velocity": 117}, {"time": 2737, "pitch": 64, "duration": 8, "velocity": 92}, {"time": 2743, "pitch": 52, "duration": 9, "velocity": 41}, {"time": 2749, "pitch": 57, "duration": 8, "velocity": 102}, {"time": 2749, "pitch": 61, "duration": 5, "velocity": 127}, {"time": 2749, "pitch": 64, "duration": 5, "velocity": 96}, {"time": 2755, "pitch": 52, "duration": 5, "velocity": 41}, {"time": 2761, "pitch": 47, "duration": 16, "velocity": 70}, {"time": 2761, "pitch": 59, "duration": 8, "velocity": 92}, {"time": 2761, "pitch": 63, "duration": 7, "velocity": 127}, {"time": 2761, "pitch": 66, "duration": 7, "velocity": 107}, {"time": 2767, "pitch": 54, "duration": 7, "velocity": 53}, {"time": 2773, "pitch": 63, "duration": 7, "velocity": 127}, {"time": 2773, "pitch": 66, "duration": 6, "velocity": 122}, {"time": 2776, "pitch": 54, "duration": 1, "velocity": 100}, {"time": 2779, "pitch": 59, "duration": 4, "velocity": 88}, {"time": 2785, "pitch": 44, "duration": 19, "velocity": 96}, {"time": 2785, "pitch": 59, "duration": 10, "velocity": 97}, {"time": 2785, "pitch": 63, "duration": 6, "velocity": 112}, {"time": 2791, "pitch": 56, "duration": 8, "velocity": 77}, {"time": 2797, "pitch": 59, "duration": 7, "velocity": 95}, {"time": 2797, "pitch": 63, "duration": 6, "velocity": 112}, {"time": 2803, "pitch": 56, "duration": 4, "velocity": 66}, {"time": 2809, "pitch": 49, "duration": 10, "velocity": 73}, {"time": 2809, "pitch": 61, "duration": 9, "velocity": 107}, {"time": 2809, "pitch": 64, "duration": 7, "velocity": 93}, {"time": 2809, "pitch": 68, "duration": 6, "velocity": 100}, {"time": 2821, "pitch": 61, "duration": 5, "velocity": 100}, {"time": 2821, "pitch": 64, "duration": 4, "velocity": 102}, {"time": 2821, "pitch": 68, "duration": 4, "velocity": 117}, {"time": 2827, "pitch": 49, "duration": 6, "velocity": 99}, {"time": 2833, "pitch": 45, "duration": 16, "velocity": 74}, {"time": 2833, "pitch": 57, "duration": 10, "velocity": 107}, {"time": 2833, "pitch": 61, "duration": 10, "velocity": 117}, {"time": 2833, "pitch": 64, "duration": 9, "velocity": 97}, {"time": 2845, "pitch": 57, "duration": 8, "velocity": 102}, {"time": 2845, "pitch": 61, "duration": 5, "velocity": 127}, {"time": 2845, "pitch": 64, "duration": 6, "velocity": 100}, {"time": 2851, "pitch": 45, "duration": 6, "velocity": 74}, {"time": 2857, "pitch": 47, "duration": 24, "velocity": 88}, {"time": 2857, "pitch": 59, "duration": 9, "velocity": 92}, {"time": 2857, "pitch": 63, "duration": 9, "velocity": 117}, {"time": 2857, "pitch": 66, "duration": 9, "velocity": 99}, {"time": 2869, "pitch": 63, "duration": 6, "velocity": 127}, {"time": 2869, "pitch": 66, "duration": 6, "velocity": 122}, {"time": 2875, "pitch": 59, "duration": 1, "velocity": 77}, {"time": 2881, "pitch": 40, "duration": 23, "velocity": 72}, {"time": 2881, "pitch": 52, "duration": 7, "velocity": 102}, {"time": 2881, "pitch": 56, "duration": 7, "velocity": 100}, {"time": 2881, "pitch": 59, "duration": 9, "velocity": 95}, {"time": 2887, "pitch": 47, "duration": 7, "velocity": 46}, {"time": 2893, "pitch": 52, "duration": 6, "velocity": 90}, {"time": 2893, "pitch": 56, "duration": 4, "velocity": 112}, {"time": 2893, "pitch": 59, "duration": 6, "velocity": 96}, {"time": 2899, "pitch": 47, "duration": 6, "velocity": 68}, {"time": 2902, "pitch": 52, "duration": 1, "velocity": 38}, {"time": 2905, "pitch": 40, "duration": 18, "velocity": 81}, {"time": 2905, "pitch": 52, "duration": 10, "velocity": 99}, {"time": 2905, "pitch": 56, "duration": 8, "velocity": 107}, {"time": 2905, "pitch": 59, "duration": 10, "velocity": 88}, {"time": 2905, "pitch": 62, "duration": 9, "velocity": 89}, {"time": 2911, "pitch": 47, "duration": 9, "velocity": 66}, {"time": 2917, "pitch": 52, "duration": 5, "velocity": 97}, {"time": 2917, "pitch": 56, "duration": 5, "velocity": 127}, {"time": 2917, "pitch": 59, "duration": 5, "velocity": 97}, {"time": 2917, "pitch": 62, "duration": 6, "velocity": 96}, {"time": 2923, "pitch": 47, "duration": 1, "velocity": 59}, {"time": 2929, "pitch": 33, "duration": 19, "velocity": 68}, {"time": 2929, "pitch": 45, "duration": 19, "velocity": 68}, {"time": 2929, "pitch": 57, "duration": 9, "velocity": 96}, {"time": 2929, "pitch": 61, "duration": 10, "velocity": 112}, {"time": 2929, "pitch": 64, "duration": 7, "velocity": 93}, {"time": 2935, "pitch": 52, "duration": 9, "velocity": 33}, {"time": 2941, "pitch": 57, "duration": 8, "velocity": 95}, {"time": 2941, "pitch": 61, "duration": 5, "velocity": 117}, {"time": 2941, "pitch": 64, "duration": 5, "velocity": 95}, {"time": 2947, "pitch": 52, "duration": 6, "velocity": 64}, {"time": 2953, "pitch": 35, "duration": 15, "velocity": 64}, {"time": 2953, "pitch": 47, "duration": 15, "velocity": 64}, {"time": 2953, "pitch": 59, "duration": 8, "velocity": 90}, {"time": 2953, "pitch": 63, "duration": 7, "velocity": 117}, {"time": 2953, "pitch": 66, "duration": 7, "velocity": 102}, {"time": 2959, "pitch": 54, "duration": 7, "velocity": 42}, {"time": 2965, "pitch": 63, "duration": 6, "velocity": 127}, {"time": 2965, "pitch": 66, "duration": 6, "velocity": 122}, {"time": 2971, "pitch": 59, "duration": 2, "velocity": 95}, {"time": 2977, "pitch": 32, "duration": 16, "velocity": 76}, {"time": 2977, "pitch": 44, "duration": 16, "velocity": 76}, {"time": 2977, "pitch": 56, "duration": 9, "velocity": 100}, {"time": 2977, "pitch": 59, "duration": 9, "velocity": 95}, {"time": 2977, "pitch": 63, "duration": 7, "velocity": 99}, {"time": 2989, "pitch": 56, "duration": 4, "velocity": 107}, {"time": 2989, "pitch": 59, "duration": 4, "velocity": 102}, {"time": 2989, "pitch": 63, "duration": 4, "velocity": 107}, {"time": 2995, "pitch": 32, "duration": 5, "velocity": 100}, {"time": 2995, "pitch": 44, "duration": 5, "velocity": 100}, {"time": 3001, "pitch": 37, "duration": 16, "velocity": 72}, {"time": 3001, "pitch": 49, "duration": 16, "velocity": 72}, {"time": 3001, "pitch": 61, "duration": 6, "velocity": 107}, {"time": 3001, "pitch": 64, "duration": 6, "velocity": 90}, {"time": 3001, "pitch": 68, "duration": 6, "velocity": 96}, {"time": 3013, "pitch": 61, "duration": 5, "velocity": 112}, {"time": 3013, "pitch": 64, "duration": 4, "velocity": 107}, {"time": 3013, "pitch": 68, "duration": 4, "velocity": 112}, {"time": 3019, "pitch": 35, "duration": 7, "velocity": 93}, {"time": 3019, "pitch": 47, "duration": 7, "velocity": 93}, {"time": 3025, "pitch": 33, "duration": 14, "velocity": 69}, {"time": 3025, "pitch": 45, "duration": 14, "velocity": 69}, {"time": 3025, "pitch": 57, "duration": 10, "velocity": 97}, {"time": 3025, "pitch": 61, "duration": 9, "velocity": 112}, {"time": 3025, "pitch": 64, "duration": 9, "velocity": 90}, {"time": 3037, "pitch": 61, "duration": 6, "velocity": 127}, {"time": 3037, "pitch": 64, "duration": 6, "velocity": 96}, {"time": 3043, "pitch": 57, "duration": 4, "velocity": 86}, {"time": 3049, "pitch": 35, "duration": 14, "velocity": 71}, {"time": 3049, "pitch": 47, "duration": 14, "velocity": 71}, {"time": 3049, "pitch": 59, "duration": 9, "velocity": 96}, {"time": 3049, "pitch": 63, "duration": 8, "velocity": 112}, {"time": 3049, "pitch": 66, "duration": 8, "velocity": 97}, {"time": 3055, "pitch": 54, "duration": 6, "velocity": 47}, {"time": 3061, "pitch": 63, "duration": 7, "velocity": 127}, {"time": 3061, "pitch": 66, "duration": 7, "velocity": 127}, {"time": 3067, "pitch": 59, "duration": 4, "velocity": 83}, {"time": 3073, "pitch": 52, "duration": 8, "velocity": 107}, {"time": 3073, "pitch": 59, "duration": 8, "velocity": 90}, {"time": 3073, "pitch": 64, "duration": 8, "velocity": 97}, {"time": 3073, "pitch": 68, "duration": 8, "velocity": 96}, {"time": 3082, "pitch": 52, "duration": 4, "velocity": 81}, {"time": 3082, "pitch": 59, "duration": 4, "velocity": 92}, {"time": 3082, "pitch": 64, "duration": 4, "velocity": 93}, {"time": 3082, "pitch": 68, "duration": 4, "velocity": 99}, {"time": 3091, "pitch": 52, "duration": 22, "velocity": 97}, {"time": 3091, "pitch": 59, "duration": 25, "velocity": 96}, {"time": 3091, "pitch": 64, "duration": 23, "velocity": 100}, {"time": 3091, "pitch": 68, "duration": 23, "velocity": 100}, {"time": 3121, "pitch": 33, "duration": 15, "velocity": 66}, {"time": 3121, "pitch": 45, "duration": 15, "velocity": 66}, {"time": 3121, "pitch": 57, "duration": 11, "velocity": 81}, {"time": 3121, "pitch": 61, "duration": 11, "velocity": 89}, {"time": 3121, "pitch": 64, "duration": 11, "velocity": 74}, {"time": 3127, "pitch": 52, "duration": 10, "velocity": 32}, {"time": 3133, "pitch": 57, "duration": 7, "velocity": 54}, {"time": 3133, "pitch": 61, "duration": 5, "velocity": 59}, {"time": 3133, "pitch": 64, "duration": 4, "velocity": 58}, {"time": 3145, "pitch": 35, "duration": 14, "velocity": 66}, {"time": 3145, "pitch": 47, "duration": 14, "velocity": 66}, {"time": 3145, "pitch": 59, "duration": 8, "velocity": 79}, {"time": 3145, "pitch": 63, "duration": 8, "velocity": 89}, {"time": 3145, "pitch": 66, "duration": 8, "velocity": 86}, {"time": 3151, "pitch": 54, "duration": 7, "velocity": 36}, {"time": 3157, "pitch": 63, "duration": 8, "velocity": 96}, {"time": 3157, "pitch": 66, "duration": 7, "velocity": 97}, {"time": 3163, "pitch": 59, "duration": 4, "velocity": 59}, {"time": 3169, "pitch": 32, "duration": 18, "velocity": 77}, {"time": 3169, "pitch": 44, "duration": 18, "velocity": 77}, {"time": 3169, "pitch": 59, "duration": 7, "velocity": 76}, {"time": 3169, "pitch": 63, "duration": 7, "velocity": 85}, {"time": 3175, "pitch": 56, "duration": 12, "velocity": 73}, {"time": 3181, "pitch": 63, "duration": 6, "velocity": 127}, {"time": 3187, "pitch": 59, "duration": 1, "velocity": 73}, {"time": 3193, "pitch": 37, "duration": 15, "velocity": 66}, {"time": 3193, "pitch": 49, "duration": 15, "velocity": 66}, {"time": 3193, "pitch": 61, "duration": 5, "velocity": 83}, {"time": 3193, "pitch": 64, "duration": 6, "velocity": 76}, {"time": 3193, "pitch": 68, "duration": 9, "velocity": 93}, {"time": 3199, "pitch": 61, "duration": 4, "velocity": 49}, {"time": 3205, "pitch": 61, "duration": 6, "velocity": 95}, {"time": 3205, "pitch": 64, "duration": 5, "velocity": 83}, {"time": 3205, "pitch": 68, "duration": 5, "velocity": 100}, {"time": 3217, "pitch": 33, "duration": 21, "velocity": 77}, {"time": 3217, "pitch": 45, "duration": 21, "velocity": 77}, {"time": 3217, "pitch": 57, "duration": 7, "velocity": 95}, {"time": 3217, "pitch": 61, "duration": 8, "velocity": 96}, {"time": 3217, "pitch": 64, "duration": 7, "velocity": 82}, {"time": 3223, "pitch": 52, "duration": 9, "velocity": 59}, {"time": 3229, "pitch": 57, "duration": 7, "velocity": 83}, {"time": 3229, "pitch": 61, "duration": 9, "velocity": 97}, {"time": 3229, "pitch": 64, "duration": 5, "velocity": 82}, {"time": 3235, "pitch": 52, "duration": 5, "velocity": 35}, {"time": 3241, "pitch": 35, "duration": 21, "velocity": 69}, {"time": 3241, "pitch": 47, "duration": 21, "velocity": 69}, {"time": 3241, "pitch": 59, "duration": 10, "velocity": 85}, {"time": 3241, "pitch": 63, "duration": 10, "velocity": 100}, {"time": 3241, "pitch": 66, "duration": 10, "velocity": 96}, {"time": 3253, "pitch": 59, "duration": 10, "velocity": 88}, {"time": 3253, "pitch": 63, "duration": 8, "velocity": 107}, {"time": 3253, "pitch": 66, "duration": 7, "velocity": 100}, {"time": 3265, "pitch": 40, "duration": 7, "velocity": 97}, {"time": 3265, "pitch": 52, "duration": 7, "velocity": 97}, {"time": 3265, "pitch": 59, "duration": 7, "velocity": 102}, {"time": 3265, "pitch": 64, "duration": 7, "velocity": 102}, {"time": 3265, "pitch": 68, "duration": 7, "velocity": 102}, {"time": 3274, "pitch": 40, "duration": 6, "velocity": 95}, {"time": 3274, "pitch": 52, "duration": 6, "velocity": 95}, {"time": 3274, "pitch": 59, "duration": 6, "velocity": 107}, {"time": 3274, "pitch": 64, "duration": 6, "velocity": 102}, {"time": 3274, "pitch": 68, "duration": 6, "velocity": 117}, {"time": 3283, "pitch": 40, "duration": 19, "velocity": 122}, {"time": 3283, "pitch": 52, "duration": 19, "velocity": 122}, {"time": 3283, "pitch": 59, "duration": 15, "velocity": 112}, {"time": 3283, "pitch": 64, "duration": 16, "velocity": 107}, {"time": 3283, "pitch": 68, "duration": 16, "velocity": 107}, {"time": 3301, "pitch": 62, "duration": 7, "velocity": 117}, {"time": 3301, "pitch": 64, "duration": 7, "velocity": 102}, {"time": 3301, "pitch": 68, "duration": 7, "velocity": 122}, {"time": 3307, "pitch": 59, "duration": 4, "velocity": 75}, {"time": 3313, "pitch": 33, "duration": 19, "velocity": 74}, {"time": 3313, "pitch": 45, "duration": 19, "velocity": 74}, {"time": 3313, "pitch": 57, "duration": 10, "velocity": 102}, {"time": 3313, "pitch": 61, "duration": 10, "velocity": 112}, {"time": 3313, "pitch": 64, "duration": 10, "velocity": 90}, {"time": 3319, "pitch": 52, "duration": 9, "velocity": 34}, {"time": 3325, "pitch": 57, "duration": 9, "velocity": 89}, {"time": 3325, "pitch": 61, "duration": 6, "velocity": 122}, {"time": 3325, "pitch": 64, "duration": 6, "velocity": 95}, {"time": 3331, "pitch": 52, "duration": 6, "velocity": 60}, {"time": 3337, "pitch": 35, "duration": 16, "velocity": 76}, {"time": 3337, "pitch": 47, "duration": 16, "velocity": 76}, {"time": 3337, "pitch": 59, "duration": 8, "velocity": 95}, {"time": 3337, "pitch": 63, "duration": 8, "velocity": 117}, {"time": 3337, "pitch": 66, "duration": 7, "velocity": 112}, {"time": 3343, "pitch": 53, "duration": 8, "velocity": 53}, {"time": 3349, "pitch": 63, "duration": 7, "velocity": 127}, {"time": 3349, "pitch": 66, "duration": 7, "velocity": 122}, {"time": 3352, "pitch": 53, "duration": 1, "velocity": 56}, {"time": 3355, "pitch": 59, "duration": 4, "velocity": 81}, {"time": 3361, "pitch": 32, "duration": 19, "velocity": 107}, {"time": 3361, "pitch": 44, "duration": 19, "velocity": 107}, {"time": 3361, "pitch": 59, "duration": 7, "velocity": 95}, {"time": 3361, "pitch": 63, "duration": 8, "velocity": 112}, {"time": 3367, "pitch": 56, "duration": 8, "velocity": 59}, {"time": 3373, "pitch": 59, "duration": 5, "velocity": 97}, {"time": 3373, "pitch": 63, "duration": 5, "velocity": 127}, {"time": 3379, "pitch": 56, "duration": 5, "velocity": 72}, {"time": 3385, "pitch": 37, "duration": 14, "velocity": 67}, {"time": 3385, "pitch": 49, "duration": 14, "velocity": 67}, {"time": 3385, "pitch": 61, "duration": 9, "velocity": 102}, {"time": 3385, "pitch": 64, "duration": 9, "velocity": 90}, {"time": 3385, "pitch": 68, "duration": 9, "velocity": 95}, {"time": 3397, "pitch": 61, "duration": 6, "velocity": 107}, {"time": 3397, "pitch": 64, "duration": 5, "velocity": 99}, {"time": 3397, "pitch": 68, "duration": 5, "velocity": 112}, {"time": 3403, "pitch": 37, "duration": 6, "velocity": 62}, {"time": 3403, "pitch": 49, "duration": 6, "velocity": 62}, {"time": 3409, "pitch": 33, "duration": 21, "velocity": 64}, {"time": 3409, "pitch": 45, "duration": 21, "velocity": 64}, {"time": 3409, "pitch": 57, "duration": 10, "velocity": 97}, {"time": 3409, "pitch": 61, "duration": 10, "velocity": 100}, {"time": 3409, "pitch": 64, "duration": 10, "velocity": 86}, {"time": 3415, "pitch": 52, "duration": 8, "velocity": 35}, {"time": 3421, "pitch": 57, "duration": 7, "velocity": 93}, {"time": 3421, "pitch": 61, "duration": 9, "velocity": 117}, {"time": 3421, "pitch": 64, "duration": 5, "velocity": 90}, {"time": 3427, "pitch": 52, "duration": 6, "velocity": 64}, {"time": 3433, "pitch": 35, "duration": 16, "velocity": 74}, {"time": 3433, "pitch": 47, "duration": 16, "velocity": 74}, {"time": 3433, "pitch": 59, "duration": 9, "velocity": 89}, {"time": 3433, "pitch": 63, "duration": 10, "velocity": 122}, {"time": 3433, "pitch": 66, "duration": 10, "velocity": 107}, {"time": 3445, "pitch": 59, "duration": 9, "velocity": 86}, {"time": 3445, "pitch": 63, "duration": 7, "velocity": 127}, {"time": 3445, "pitch": 66, "duration": 7, "velocity": 112}, {"time": 3451, "pitch": 35, "duration": 5, "velocity": 79}, {"time": 3451, "pitch": 47, "duration": 5, "velocity": 79}, {"time": 3457, "pitch": 40, "duration": 15, "velocity": 79}, {"time": 3457, "pitch": 52, "duration": 15, "velocity": 79}, {"time": 3457, "pitch": 59, "duration": 9, "velocity": 93}, {"time": 3457, "pitch": 64, "duration": 10, "velocity": 93}, {"time": 3457, "pitch": 68, "duration": 10, "velocity": 100}, {"time": 3469, "pitch": 59, "duration": 10, "velocity": 95}, {"time": 3469, "pitch": 64, "duration": 11, "velocity": 99}, {"time": 3469, "pitch": 68, "duration": 11, "velocity": 102}, {"time": 3475, "pitch": 40, "duration": 4, "velocity": 42}, {"time": 3475, "pitch": 52, "duration": 4, "velocity": 42}, {"time": 3481, "pitch": 40, "duration": 16, "velocity": 63}, {"time": 3481, "pitch": 52, "duration": 16, "velocity": 63}, {"time": 3481, "pitch": 59, "duration": 10, "velocity": 83}, {"time": 3481, "pitch": 64, "duration": 10, "velocity": 81}, {"time": 3481, "pitch": 68, "duration": 10, "velocity": 83}, {"time": 3493, "pitch": 64, "duration": 5, "velocity": 86}, {"time": 3493, "pitch": 68, "duration": 6, "velocity": 88}, {"time": 3505, "pitch": 33, "duration": 14, "velocity": 62}, {"time": 3505, "pitch": 45, "duration": 14, "velocity": 62}, {"time": 3505, "pitch": 57, "duration": 15, "velocity": 73}, {"time": 3505, "pitch": 61, "duration": 10, "velocity": 88}, {"time": 3505, "pitch": 64, "duration": 10, "velocity": 70}, {"time": 3511, "pitch": 52, "duration": 8, "velocity": 38}, {"time": 3517, "pitch": 64, "duration": 3, "velocity": 83}, {"time": 3529, "pitch": 35, "duration": 19, "velocity": 72}, {"time": 3529, "pitch": 47, "duration": 19, "velocity": 72}, {"time": 3529, "pitch": 63, "duration": 7, "velocity": 92}, {"time": 3529, "pitch": 66, "duration": 7, "velocity": 83}, {"time": 3535, "pitch": 54, "duration": 13, "velocity": 40}, {"time": 3541, "pitch": 59, "duration": 4, "velocity": 36}, {"time": 3541, "pitch": 63, "duration": 11, "velocity": 75}, {"time": 3541, "pitch": 66, "duration": 8, "velocity": 81}, {"time": 3553, "pitch": 40, "duration": 40, "velocity": 66}, {"time": 3553, "pitch": 59, "duration": 6, "velocity": 59}, {"time": 3553, "pitch": 64, "duration": 5, "velocity": 66}, {"time": 3559, "pitch": 47, "duration": 35, "velocity": 51}, {"time": 3565, "pitch": 52, "duration": 10, "velocity": 65}, {"time": 3571, "pitch": 59, "duration": 23, "velocity": 58}, {"time": 3577, "pitch": 56, "duration": 16, "velocity": 58}, {"time": 3601, "pitch": 33, "duration": 13, "velocity": 75}, {"time": 3601, "pitch": 45, "duration": 13, "velocity": 75}, {"time": 3601, "pitch": 57, "duration": 9, "velocity": 73}, {"time": 3601, "pitch": 61, "duration": 10, "velocity": 78}, {"time": 3601, "pitch": 64, "duration": 8, "velocity": 68}, {"time": 3607, "pitch": 52, "duration": 8, "velocity": 52}, {"time": 3613, "pitch": 61, "duration": 3, "velocity": 73}, {"time": 3613, "pitch": 64, "duration": 3, "velocity": 56}, {"time": 3625, "pitch": 35, "duration": 17, "velocity": 61}, {"time": 3625, "pitch": 47, "duration": 17, "velocity": 61}, {"time": 3625, "pitch": 63, "duration": 2, "velocity": 67}, {"time": 3625, "pitch": 66, "duration": 2, "velocity": 57}, {"time": 3631, "pitch": 54, "duration": 10, "velocity": 40}, {"time": 3637, "pitch": 59, "duration": 3, "velocity": 34}, {"time": 3637, "pitch": 75, "duration": 3, "velocity": 57}, {"time": 3637, "pitch": 78, "duration": 3, "velocity": 44}, {"time": 3649, "pitch": 32, "duration": 16, "velocity": 90}, {"time": 3649, "pitch": 44, "duration": 16, "velocity": 90}, {"time": 3655, "pitch": 56, "duration": 14, "velocity": 47}, {"time": 3661, "pitch": 63, "duration": 11, "velocity": 56}, {"time": 3661, "pitch": 68, "duration": 12, "velocity": 66}, {"time": 3667, "pitch": 59, "duration": 6, "velocity": 58}, {"time": 3673, "pitch": 37, "duration": 14, "velocity": 95}, {"time": 3673, "pitch": 49, "duration": 14, "velocity": 95}, {"time": 3679, "pitch": 61, "duration": 7, "velocity": 81}, {"time": 3685, "pitch": 64, "duration": 6, "velocity": 65}, {"time": 3685, "pitch": 68, "duration": 6, "velocity": 83}, {"time": 3697, "pitch": 33, "duration": 12, "velocity": 69}, {"time": 3697, "pitch": 45, "duration": 12, "velocity": 69}, {"time": 3697, "pitch": 61, "duration": 10, "velocity": 70}, {"time": 3697, "pitch": 64, "duration": 10, "velocity": 69}, {"time": 3703, "pitch": 52, "duration": 7, "velocity": 39}, {"time": 3709, "pitch": 61, "duration": 2, "velocity": 69}, {"time": 3709, "pitch": 64, "duration": 2, "velocity": 64}, {"time": 3721, "pitch": 35, "duration": 15, "velocity": 63}, {"time": 3721, "pitch": 47, "duration": 15, "velocity": 63}, {"time": 3721, "pitch": 59, "duration": 8, "velocity": 67}, {"time": 3721, "pitch": 63, "duration": 8, "velocity": 66}, {"time": 3721, "pitch": 66, "duration": 8, "velocity": 67}, {"time": 3727, "pitch": 54, "duration": 7, "velocity": 40}, {"time": 3733, "pitch": 63, "duration": 13, "velocity": 88}, {"time": 3733, "pitch": 66, "duration": 13, "velocity": 83}, {"time": 3739, "pitch": 59, "duration": 7, "velocity": 46}, {"time": 3745, "pitch": 40, "duration": 88, "velocity": 66}, {"time": 3751, "pitch": 47, "duration": 80, "velocity": 55}, {"time": 3757, "pitch": 52, "duration": 75, "velocity": 58}, {"time": 3763, "pitch": 56, "duration": 6, "velocity": 66}, {"time": 3769, "pitch": 59, "duration": 1, "velocity": 63}, {"time": 3775, "pitch": 64, "duration": 57, "velocity": 46}, {"time": 3781, "pitch": 68, "duration": 50, "velocity": 55}, {"time": 3787, "pitch": 71, "duration": 44, "velocity": 55}, {"time": 3793, "pitch": 76, "duration": 38, "velocity": 37}], "annotations": [{"time": 36, "annotation": {"number": 64, "value": 127}, "group": "control_change"}, {"time": 48, "annotation": {"number": 64, "value": 0}, "group": "control_change"}, {"time": 50, "annotation": {"number": 64, "value": 127}, "group": "control_change"}, {"time": 95, "annotation": {"number": 64, "value": 0}, "group": "control_change"}, {"time": 97, "annotation": {"number": 64, "value": 127}, "group": "control_change"}, {"time": 120, "annotation": {"number": 64, "value": 0}, "group": "control_change"}, {"time": 122, "annotation": {"number": 64, "value": 127}, "group": "control_change"}, {"time": 143, "annotation": {"number": 64, "value": 0}, "group": "control_change"}, {"time": 145, "annotation": {"number": 64, "value": 127}, "group": "control_change"}, {"time": 168, "annotation": {"number": 64, "value": 0}, "group": "control_change"}, {"time": 170, "annotation": {"number": 64, "value": 127}, "group": "control_change"}, {"time": 191, "annotation": {"number": 64, "value": 0}, "group": "control_change"}, {"time": 193, "annotation": {"number": 64, "value": 127}, "group": "control_change"}, {"time": 215, "annotation": {"number": 64, "value": 0}, "group": "control_change"}, {"time": 218, "annotation": {"number": 64, "value": 127}, "group": "control_change"}, {"time": 239, "annotation": {"number": 64, "value": 0}, "group": "control_change"}, {"time": 241, "annotation": {"number": 64, "value": 127}, "group": "control_change"}, {"time": 263, "annotation": {"number": 64, "value": 0}, "group": "control_change"}, {"time": 265, "annotation": {"number": 64, "value": 127}, "group": "control_change"}, {"time": 285, "annotation": {"number": 64, "value": 0}, "group": "control_change"}, {"time": 288, "annotation": {"number": 64, "value": 127}, "group": "control_change"}, {"time": 310, "annotation": {"number": 64, "value": 0}, "group": "control_change"}, {"time": 313, "annotation": {"number": 64, "value": 127}, "group": "control_change"}, {"time": 335, "annotation": {"number": 64, "value": 0}, "group": "control_change"}, {"time": 337, "annotation": {"number": 64, "value": 127}, "group": "control_change"}, {"time": 357, "annotation": {"number": 64, "value": 0}, "group": "control_change"}, {"time": 361, "annotation": {"number": 64, "value": 127}, "group": "control_change"}, {"time": 381, "annotation": {"number": 64, "value": 0}, "group": "control_change"}, {"time": 385, "annotation": {"number": 64, "value": 127}, "group": "control_change"}, {"time": 406, "annotation": {"number": 64, "value": 0}, "group": "control_change"}, {"time": 409, "annotation": {"number": 64, "value": 127}, "group": "control_change"}, {"time": 430, "annotation": {"number": 64, "value": 0}, "group": "control_change"}, {"time": 433, "annotation": {"number": 64, "value": 127}, "group": "control_change"}, {"time": 479, "annotation": {"number": 64, "value": 0}, "group": "control_change"}, {"time": 482, "annotation": {"number": 64, "value": 127}, "group": "control_change"}, {"time": 527, "annotation": {"number": 64, "value": 0}, "group": "control_change"}, {"time": 530, "annotation": {"number": 64, "value": 127}, "group": "control_change"}, {"time": 574, "annotation": {"number": 64, "value": 0}, "group": "control_change"}, {"time": 577, "annotation": {"number": 64, "value": 127}, "group": "control_change"}, {"time": 624, "annotation": {"number": 64, "value": 0}, "group": "control_change"}, {"time": 626, "annotation": {"number": 64, "value": 127}, "group": "control_change"}, {"time": 670, "annotation": {"number": 64, "value": 0}, "group": "control_change"}, {"time": 673, "annotation": {"number": 64, "value": 127}, "group": "control_change"}, {"time": 716, "annotation": {"number": 64, "value": 0}, "group": "control_change"}, {"time": 721, "annotation": {"number": 64, "value": 127}, "group": "control_change"}, {"time": 767, "annotation": {"number": 64, "value": 0}, "group": "control_change"}, {"time": 770, "annotation": {"number": 64, "value": 127}, "group": "control_change"}, {"time": 791, "annotation": {"number": 64, "value": 0}, "group": "control_change"}, {"time": 793, "annotation": {"number": 64, "value": 127}, "group": "control_change"}, {"time": 816, "annotation": {"number": 64, "value": 0}, "group": "control_change"}, {"time": 817, "annotation": {"number": 64, "value": 127}, "group": "control_change"}, {"time": 838, "annotation": {"number": 64, "value": 0}, "group": "control_change"}, {"time": 840, "annotation": {"number": 64, "value": 127}, "group": "control_change"}, {"time": 863, "annotation": {"number": 64, "value": 0}, "group": "control_change"}, {"time": 865, "annotation": {"number": 64, "value": 127}, "group": "control_change"}, {"time": 887, "annotation": {"number": 64, "value": 0}, "group": "control_change"}, {"time": 889, "annotation": {"number": 64, "value": 127}, "group": "control_change"}, {"time": 909, "annotation": {"number": 64, "value": 0}, "group": "control_change"}, {"time": 913, "annotation": {"number": 64, "value": 127}, "group": "control_change"}, {"time": 936, "annotation": {"number": 64, "value": 0}, "group": "control_change"}, {"time": 940, "annotation": {"number": 64, "value": 127}, "group": "control_change"}, {"time": 959, "annotation": {"number": 64, "value": 0}, "group": "control_change"}, {"time": 961, "annotation": {"number": 64, "value": 127}, "group": "control_change"}, {"time": 982, "annotation": {"number": 64, "value": 0}, "group": "control_change"}, {"time": 988, "annotation": {"number": 64, "value": 127}, "group": "control_change"}, {"time": 1007, "annotation": {"number": 64, "value": 0}, "group": "control_change"}, {"time": 1009, "annotation": {"number": 64, "value": 127}, "group": "control_change"}, {"time": 1020, "annotation": {"number": 64, "value": 0}, "group": "control_change"}, {"time": 1021, "annotation": {"number": 64, "value": 127}, "group": "control_change"}, {"time": 1031, "annotation": {"number": 64, "value": 0}, "group": "control_change"}, {"time": 1034, "annotation": {"number": 64, "value": 127}, "group": "control_change"}, {"time": 1054, "annotation": {"number": 64, "value": 0}, "group": "control_change"}, {"time": 1056, "annotation": {"number": 64, "value": 127}, "group": "control_change"}, {"time": 1079, "annotation": {"number": 64, "value": 0}, "group": "control_change"}, {"time": 1081, "annotation": {"number": 64, "value": 127}, "group": "control_change"}, {"time": 1101, "annotation": {"number": 64, "value": 0}, "group": "control_change"}, {"time": 1104, "annotation": {"number": 64, "value": 127}, "group": "control_change"}, {"time": 1128, "annotation": {"number": 64, "value": 0}, "group": "control_change"}, {"time": 1129, "annotation": {"number": 64, "value": 127}, "group": "control_change"}, {"time": 1151, "annotation": {"number": 64, "value": 0}, "group": "control_change"}, {"time": 1153, "annotation": {"number": 64, "value": 127}, "group": "control_change"}, {"time": 1198, "annotation": {"number": 64, "value": 0}, "group": "control_change"}, {"time": 1201, "annotation": {"number": 64, "value": 127}, "group": "control_change"}, {"time": 1222, "annotation": {"number": 64, "value": 0}, "group": "control_change"}, {"time": 1225, "annotation": {"number": 64, "value": 127}, "group": "control_change"}, {"time": 1247, "annotation": {"number": 64, "value": 0}, "group": "control_change"}, {"time": 1249, "annotation": {"number": 64, "value": 127}, "group": "control_change"}, {"time": 1271, "annotation": {"number": 64, "value": 0}, "group": "control_change"}, {"time": 1273, "annotation": {"number": 64, "value": 127}, "group": "control_change"}, {"time": 1295, "annotation": {"number": 64, "value": 0}, "group": "control_change"}, {"time": 1297, "annotation": {"number": 64, "value": 127}, "group": "control_change"}, {"time": 1319, "annotation": {"number": 64, "value": 0}, "group": "control_change"}, {"time": 1320, "annotation": {"number": 64, "value": 127}, "group": "control_change"}, {"time": 1343, "annotation": {"number": 64, "value": 0}, "group": "control_change"}, {"time": 1345, "annotation": {"number": 64, "value": 127}, "group": "control_change"}, {"time": 1391, "annotation": {"number": 64, "value": 0}, "group": "control_change"}, {"time": 1393, "annotation": {"number": 64, "value": 127}, "group": "control_change"}, {"time": 1415, "annotation": {"number": 64, "value": 0}, "group": "control_change"}, {"time": 1417, "annotation": {"number": 64, "value": 127}, "group": "control_change"}, {"time": 1439, "annotation": {"number": 64, "value": 0}, "group": "control_change"}, {"time": 1441, "annotation": {"number": 64, "value": 127}, "group": "control_change"}, {"time": 1462, "annotation": {"number": 64, "value": 0}, "group": "control_change"}, {"time": 1465, "annotation": {"number": 64, "value": 127}, "group": "control_change"}, {"time": 1486, "annotation": {"number": 64, "value": 0}, "group": "control_change"}, {"time": 1489, "annotation": {"number": 64, "value": 127}, "group": "control_change"}, {"time": 1509, "annotation": {"number": 64, "value": 0}, "group": "control_change"}, {"time": 1513, "annotation": {"number": 64, "value": 127}, "group": "control_change"}, {"time": 1533, "annotation": {"number": 64, "value": 0}, "group": "control_change"}, {"time": 1537, "annotation": {"number": 64, "value": 127}, "group": "control_change"}, {"time": 1584, "annotation": {"number": 64, "value": 0}, "group": "control_change"}, {"time": 1585, "annotation": {"number": 64, "value": 127}, "group": "control_change"}, {"time": 1606, "annotation": {"number": 64, "value": 0}, "group": "control_change"}, {"time": 1609, "annotation": {"number": 64, "value": 127}, "group": "control_change"}, {"time": 1655, "annotation": {"number": 64, "value": 0}, "group": "control_change"}, {"time": 1658, "annotation": {"number": 64, "value": 127}, "group": "control_change"}, {"time": 1678, "annotation": {"number": 64, "value": 0}, "group": "control_change"}, {"time": 1681, "annotation": {"number": 64, "value": 127}, "group": "control_change"}, {"time": 1701, "annotation": {"number": 64, "value": 0}, "group": "control_change"}, {"time": 1705, "annotation": {"number": 64, "value": 127}, "group": "control_change"}, {"time": 1775, "annotation": {"number": 64, "value": 0}, "group": "control_change"}, {"time": 1778, "annotation": {"number": 64, "value": 127}, "group": "control_change"}, {"time": 1799, "annotation": {"number": 64, "value": 0}, "group": "control_change"}, {"time": 1801, "annotation": {"number": 64, "value": 127}, "group": "control_change"}, {"time": 1823, "annotation": {"number": 64, "value": 0}, "group": "control_change"}, {"time": 1825, "annotation": {"number": 64, "value": 127}, "group": "control_change"}, {"time": 1826, "annotation": {"number": 64, "value": 127}, "group": "control_change"}, {"time": 1836, "annotation": {"number": 64, "value": 0}, "group": "control_change"}, {"time": 1837, "annotation": {"number": 64, "value": 127}, "group": "control_change"}, {"time": 1838, "annotation": {"number": 64, "value": 0}, "group": "control_change"}, {"time": 1849, "annotation": {"number": 64, "value": 127}, "group": "control_change"}, {"time": 1868, "annotation": {"number": 64, "value": 0}, "group": "control_change"}, {"time": 1873, "annotation": {"number": 64, "value": 127}, "group": "control_change"}, {"time": 1883, "annotation": {"number": 64, "value": 0}, "group": "control_change"}, {"time": 1885, "annotation": {"number": 64, "value": 127}, "group": "control_change"}, {"time": 1887, "annotation": {"number": 64, "value": 0}, "group": "control_change"}, {"time": 1897, "annotation": {"number": 64, "value": 127}, "group": "control_change"}, {"time": 1918, "annotation": {"number": 64, "value": 0}, "group": "control_change"}, {"time": 1921, "annotation": {"number": 64, "value": 127}, "group": "control_change"}, {"time": 1965, "annotation": {"number": 64, "value": 0}, "group": "control_change"}, {"time": 2015, "annotation": {"number": 64, "value": 0}, "group": "control_change"}, {"time": 2018, "annotation": {"number": 64, "value": 127}, "group": "control_change"}, {"time": 2063, "annotation": {"number": 64, "value": 0}, "group": "control_change"}, {"time": 2066, "annotation": {"number": 64, "value": 127}, "group": "control_change"}, {"time": 2110, "annotation": {"number": 64, "value": 0}, "group": "control_change"}, {"time": 2113, "annotation": {"number": 64, "value": 127}, "group": "control_change"}, {"time": 2160, "annotation": {"number": 64, "value": 0}, "group": "control_change"}, {"time": 2162, "annotation": {"number": 64, "value": 127}, "group": "control_change"}, {"time": 2206, "annotation": {"number": 64, "value": 0}, "group": "control_change"}, {"time": 2209, "annotation": {"number": 64, "value": 127}, "group": "control_change"}, {"time": 2252, "annotation": {"number": 64, "value": 0}, "group": "control_change"}, {"time": 2257, "annotation": {"number": 64, "value": 127}, "group": "control_change"}, {"time": 2303, "annotation": {"number": 64, "value": 0}, "group": "control_change"}, {"time": 2306, "annotation": {"number": 64, "value": 127}, "group": "control_change"}, {"time": 2327, "annotation": {"number": 64, "value": 0}, "group": "control_change"}, {"time": 2329, "annotation": {"number": 64, "value": 127}, "group": "control_change"}, {"time": 2352, "annotation": {"number": 64, "value": 0}, "group": "control_change"}, {"time": 2353, "annotation": {"number": 64, "value": 127}, "group": "control_change"}, {"time": 2374, "annotation": {"number": 64, "value": 0}, "group": "control_change"}, {"time": 2376, "annotation": {"number": 64, "value": 127}, "group": "control_change"}, {"time": 2399, "annotation": {"number": 64, "value": 0}, "group": "control_change"}, {"time": 2401, "annotation": {"number": 64, "value": 127}, "group": "control_change"}, {"time": 2423, "annotation": {"number": 64, "value": 0}, "group": "control_change"}, {"time": 2425, "annotation": {"number": 64, "value": 127}, "group": "control_change"}, {"time": 2445, "annotation": {"number": 64, "value": 0}, "group": "control_change"}, {"time": 2449, "annotation": {"number": 64, "value": 127}, "group": "control_change"}, {"time": 2472, "annotation": {"number": 64, "value": 0}, "group": "control_change"}, {"time": 2476, "annotation": {"number": 64, "value": 127}, "group": "control_change"}, {"time": 2495, "annotation": {"number": 64, "value": 0}, "group": "control_change"}, {"time": 2497, "annotation": {"number": 64, "value": 127}, "group": "control_change"}, {"time": 2518, "annotation": {"number": 64, "value": 0}, "group": "control_change"}, {"time": 2524, "annotation": {"number": 64, "value": 127}, "group": "control_change"}, {"time": 2543, "annotation": {"number": 64, "value": 0}, "group": "control_change"}, {"time": 2545, "annotation": {"number": 64, "value": 127}, "group": "control_change"}, {"time": 2556, "annotation": {"number": 64, "value": 0}, "group": "control_change"}, {"time": 2557, "annotation": {"number": 64, "value": 127}, "group": "control_change"}, {"time": 2567, "annotation": {"number": 64, "value": 0}, "group": "control_change"}, {"time": 2570, "annotation": {"number": 64, "value": 127}, "group": "control_change"}, {"time": 2590, "annotation": {"number": 64, "value": 0}, "group": "control_change"}, {"time": 2592, "annotation": {"number": 64, "value": 127}, "group": "control_change"}, {"time": 2615, "annotation": {"number": 64, "value": 0}, "group": "control_change"}, {"time": 2617, "annotation": {"number": 64, "value": 127}, "group": "control_change"}, {"time": 2637, "annotation": {"number": 64, "value": 0}, "group": "control_change"}, {"time": 2640, "annotation": {"number": 64, "value": 127}, "group": "control_change"}, {"time": 2664, "annotation": {"number": 64, "value": 0}, "group": "control_change"}, {"time": 2665, "annotation": {"number": 64, "value": 127}, "group": "control_change"}, {"time": 2687, "annotation": {"number": 64, "value": 0}, "group": "control_change"}, {"time": 2689, "annotation": {"number": 64, "value": 127}, "group": "control_change"}, {"time": 2734, "annotation": {"number": 64, "value": 0}, "group": "control_change"}, {"time": 2737, "annotation": {"number": 64, "value": 127}, "group": "control_change"}, {"time": 2758, "annotation": {"number": 64, "value": 0}, "group": "control_change"}, {"time": 2761, "annotation": {"number": 64, "value": 127}, "group": "control_change"}, {"time": 2783, "annotation": {"number": 64, "value": 0}, "group": "control_change"}, {"time": 2785, "annotation": {"number": 64, "value": 127}, "group": "control_change"}, {"time": 2807, "annotation": {"number": 64, "value": 0}, "group": "control_change"}, {"time": 2809, "annotation": {"number": 64, "value": 127}, "group": "control_change"}, {"time": 2831, "annotation": {"number": 64, "value": 0}, "group": "control_change"}, {"time": 2833, "annotation": {"number": 64, "value": 127}, "group": "control_change"}, {"time": 2855, "annotation": {"number": 64, "value": 0}, "group": "control_change"}, {"time": 2856, "annotation": {"number": 64, "value": 127}, "group": "control_change"}, {"time": 2879, "annotation": {"number": 64, "value": 0}, "group": "control_change"}, {"time": 2881, "annotation": {"number": 64, "value": 127}, "group": "control_change"}, {"time": 2927, "annotation": {"number": 64, "value": 0}, "group": "control_change"}, {"time": 2929, "annotation": {"number": 64, "value": 127}, "group": "control_change"}, {"time": 2951, "annotation": {"number": 64, "value": 0}, "group": "control_change"}, {"time": 2953, "annotation": {"number": 64, "value": 127}, "group": "control_change"}, {"time": 2975, "annotation": {"number": 64, "value": 0}, "group": "control_change"}, {"time": 2977, "annotation": {"number": 64, "value": 127}, "group": "control_change"}, {"time": 2998, "annotation": {"number": 64, "value": 0}, "group": "control_change"}, {"time": 3001, "annotation": {"number": 64, "value": 127}, "group": "control_change"}, {"time": 3022, "annotation": {"number": 64, "value": 0}, "group": "control_change"}, {"time": 3025, "annotation": {"number": 64, "value": 127}, "group": "control_change"}, {"time": 3045, "annotation": {"number": 64, "value": 0}, "group": "control_change"}, {"time": 3049, "annotation": {"number": 64, "value": 127}, "group": "control_change"}, {"time": 3069, "annotation": {"number": 64, "value": 0}, "group": "control_change"}, {"time": 3072, "annotation": {"number": 64, "value": 127}, "group": "control_change"}, {"time": 3077, "annotation": {"number": 64, "value": 0}, "group": "control_change"}, {"time": 3082, "annotation": {"number": 64, "value": 127}, "group": "control_change"}, {"time": 3086, "annotation": {"number": 64, "value": 0}, "group": "control_change"}, {"time": 3096, "annotation": {"number": 64, "value": 127}, "group": "control_change"}, {"time": 3108, "annotation": {"number": 64, "value": 0}, "group": "control_change"}, {"time": 3108, "annotation": {"number": 64, "value": 127}, "group": "control_change"}, {"time": 3118, "annotation": {"number": 64, "value": 0}, "group": "control_change"}, {"time": 3121, "annotation": {"number": 64, "value": 127}, "group": "control_change"}, {"time": 3143, "annotation": {"number": 64, "value": 0}, "group": "control_change"}, {"time": 3145, "annotation": {"number": 64, "value": 127}, "group": "control_change"}, {"time": 3166, "annotation": {"number": 64, "value": 0}, "group": "control_change"}, {"time": 3169, "annotation": {"number": 64, "value": 127}, "group": "control_change"}, {"time": 3191, "annotation": {"number": 64, "value": 0}, "group": "control_change"}, {"time": 3193, "annotation": {"number": 64, "value": 127}, "group": "control_change"}, {"time": 3214, "annotation": {"number": 64, "value": 0}, "group": "control_change"}, {"time": 3217, "annotation": {"number": 64, "value": 127}, "group": "control_change"}, {"time": 3218, "annotation": {"number": 64, "value": 127}, "group": "control_change"}, {"time": 3238, "annotation": {"number": 64, "value": 0}, "group": "control_change"}, {"time": 3242, "annotation": {"number": 64, "value": 127}, "group": "control_change"}, {"time": 3262, "annotation": {"number": 64, "value": 0}, "group": "control_change"}, {"time": 3324, "annotation": {"number": 64, "value": 127}, "group": "control_change"}, {"time": 3335, "annotation": {"number": 64, "value": 0}, "group": "control_change"}, {"time": 3336, "annotation": {"number": 64, "value": 127}, "group": "control_change"}, {"time": 3359, "annotation": {"number": 64, "value": 0}, "group": "control_change"}, {"time": 3361, "annotation": {"number": 64, "value": 127}, "group": "control_change"}, {"time": 3383, "annotation": {"number": 64, "value": 0}, "group": "control_change"}, {"time": 3385, "annotation": {"number": 64, "value": 127}, "group": "control_change"}, {"time": 3407, "annotation": {"number": 64, "value": 0}, "group": "control_change"}, {"time": 3409, "annotation": {"number": 64, "value": 127}, "group": "control_change"}, {"time": 3430, "annotation": {"number": 64, "value": 0}, "group": "control_change"}, {"time": 3433, "annotation": {"number": 64, "value": 127}, "group": "control_change"}, {"time": 3455, "annotation": {"number": 64, "value": 0}, "group": "control_change"}, {"time": 3457, "annotation": {"number": 64, "value": 127}, "group": "control_change"}, {"time": 3479, "annotation": {"number": 64, "value": 0}, "group": "control_change"}, {"time": 3481, "annotation": {"number": 64, "value": 127}, "group": "control_change"}, {"time": 3501, "annotation": {"number": 64, "value": 0}, "group": "control_change"}, {"time": 3504, "annotation": {"number": 64, "value": 127}, "group": "control_change"}, {"time": 3526, "annotation": {"number": 64, "value": 0}, "group": "control_change"}, {"time": 3528, "annotation": {"number": 64, "value": 127}, "group": "control_change"}, {"time": 3551, "annotation": {"number": 64, "value": 0}, "group": "control_change"}, {"time": 3553, "annotation": {"number": 64, "value": 127}, "group": "control_change"}, {"time": 3598, "annotation": {"number": 64, "value": 0}, "group": "control_change"}, {"time": 3601, "annotation": {"number": 64, "value": 127}, "group": "control_change"}, {"time": 3622, "annotation": {"number": 64, "value": 0}, "group": "control_change"}, {"time": 3624, "annotation": {"number": 64, "value": 127}, "group": "control_change"}, {"time": 3647, "annotation": {"number": 64, "value": 0}, "group": "control_change"}, {"time": 3649, "annotation": {"number": 64, "value": 127}, "group": "control_change"}, {"time": 3670, "annotation": {"number": 64, "value": 0}, "group": "control_change"}, {"time": 3673, "annotation": {"number": 64, "value": 127}, "group": "control_change"}, {"time": 3695, "annotation": {"number": 64, "value": 0}, "group": "control_change"}, {"time": 3697, "annotation": {"number": 64, "value": 127}, "group": "control_change"}, {"time": 3717, "annotation": {"number": 64, "value": 0}, "group": "control_change"}, {"time": 3720, "annotation": {"number": 64, "value": 127}, "group": "control_change"}, {"time": 3742, "annotation": {"number": 64, "value": 0}, "group": "control_change"}, {"time": 3745, "annotation": {"number": 64, "value": 127}, "group": "control_change"}, {"time": 3845, "annotation": {"number": 64, "value": 0}, "group": "control_change"}, {"time": 3846, "annotation": {"number": 64, "value": 127}, "group": "control_change"}, {"time": 3847, "annotation": {"number": 64, "value": 0}, "group": "control_change"}]}]}