{"metadata": {"schema_version": "0.2", "title": "None", "source_filename": "055.mid", "source_format": "midi"}, "resolution": 12, "tempos": [{"time": 0, "qpm": 72.00002880001152}], "key_signatures": [{"time": 0, "root": 0, "mode": "major"}], "time_signatures": [{"time": 0, "numerator": 4, "denominator": 4}, {"time": 0, "numerator": 1, "denominator": 4}], "tracks": [{"program": 4, "is_drum": false, "name": "MELODY", "notes": [{"time": 200, "pitch": 64, "duration": 9, "velocity": 67}, {"time": 212, "pitch": 67, "duration": 5, "velocity": 83}, {"time": 218, "pitch": 69, "duration": 9, "velocity": 77}, {"time": 230, "pitch": 64, "duration": 9, "velocity": 76}, {"time": 236, "pitch": 62, "duration": 6, "velocity": 74}, {"time": 242, "pitch": 60, "duration": 6, "velocity": 64}, {"time": 248, "pitch": 62, "duration": 4, "velocity": 77}, {"time": 254, "pitch": 62, "duration": 1, "velocity": 68}, {"time": 257, "pitch": 62, "duration": 6, "velocity": 74}, {"time": 263, "pitch": 55, "duration": 7, "velocity": 74}, {"time": 269, "pitch": 64, "duration": 15, "velocity": 81}, {"time": 290, "pitch": 60, "duration": 4, "velocity": 62}, {"time": 293, "pitch": 62, "duration": 3, "velocity": 70}, {"time": 296, "pitch": 64, "duration": 7, "velocity": 67}, {"time": 308, "pitch": 67, "duration": 6, "velocity": 72}, {"time": 314, "pitch": 69, "duration": 8, "velocity": 95}, {"time": 326, "pitch": 64, "duration": 6, "velocity": 73}, {"time": 332, "pitch": 62, "duration": 7, "velocity": 68}, {"time": 338, "pitch": 60, "duration": 3, "velocity": 60}, {"time": 344, "pitch": 62, "duration": 3, "velocity": 86}, {"time": 350, "pitch": 60, "duration": 1, "velocity": 74}, {"time": 353, "pitch": 62, "duration": 3, "velocity": 77}, {"time": 359, "pitch": 67, "duration": 5, "velocity": 74}, {"time": 368, "pitch": 64, "duration": 12, "velocity": 73}, {"time": 386, "pitch": 64, "duration": 3, "velocity": 87}, {"time": 389, "pitch": 62, "duration": 3, "velocity": 73}, {"time": 392, "pitch": 60, "duration": 4, "velocity": 87}, {"time": 398, "pitch": 59, "duration": 4, "velocity": 75}, {"time": 401, "pitch": 60, "duration": 5, "velocity": 72}, {"time": 407, "pitch": 72, "duration": 6, "velocity": 100}, {"time": 416, "pitch": 71, "duration": 6, "velocity": 90}, {"time": 422, "pitch": 69, "duration": 3, "velocity": 68}, {"time": 425, "pitch": 67, "duration": 11, "velocity": 81}, {"time": 437, "pitch": 64, "duration": 2, "velocity": 59}, {"time": 440, "pitch": 69, "duration": 4, "velocity": 93}, {"time": 446, "pitch": 67, "duration": 1, "velocity": 81}, {"time": 449, "pitch": 67, "duration": 4, "velocity": 90}, {"time": 455, "pitch": 67, "duration": 5, "velocity": 71}, {"time": 464, "pitch": 64, "duration": 6, "velocity": 95}, {"time": 482, "pitch": 64, "duration": 3, "velocity": 74}, {"time": 485, "pitch": 62, "duration": 4, "velocity": 60}, {"time": 488, "pitch": 60, "duration": 6, "velocity": 62}, {"time": 494, "pitch": 59, "duration": 4, "velocity": 60}, {"time": 497, "pitch": 60, "duration": 3, "velocity": 71}, {"time": 503, "pitch": 72, "duration": 7, "velocity": 65}, {"time": 512, "pitch": 71, "duration": 6, "velocity": 85}, {"time": 518, "pitch": 69, "duration": 3, "velocity": 70}, {"time": 521, "pitch": 67, "duration": 7, "velocity": 90}, {"time": 530, "pitch": 60, "duration": 5, "velocity": 74}, {"time": 536, "pitch": 69, "duration": 15, "velocity": 86}, {"time": 554, "pitch": 60, "duration": 3, "velocity": 64}, {"time": 557, "pitch": 67, "duration": 15, "velocity": 85}, {"time": 584, "pitch": 64, "duration": 8, "velocity": 90}, {"time": 596, "pitch": 67, "duration": 2, "velocity": 93}, {"time": 602, "pitch": 69, "duration": 8, "velocity": 104}, {"time": 614, "pitch": 64, "duration": 5, "velocity": 79}, {"time": 620, "pitch": 62, "duration": 6, "velocity": 79}, {"time": 626, "pitch": 60, "duration": 5, "velocity": 67}, {"time": 632, "pitch": 62, "duration": 7, "velocity": 86}, {"time": 638, "pitch": 62, "duration": 1, "velocity": 74}, {"time": 641, "pitch": 62, "duration": 4, "velocity": 77}, {"time": 647, "pitch": 55, "duration": 5, "velocity": 72}, {"time": 656, "pitch": 64, "duration": 9, "velocity": 64}, {"time": 674, "pitch": 60, "duration": 4, "velocity": 81}, {"time": 680, "pitch": 64, "duration": 12, "velocity": 90}, {"time": 692, "pitch": 67, "duration": 4, "velocity": 76}, {"time": 698, "pitch": 69, "duration": 9, "velocity": 76}, {"time": 710, "pitch": 64, "duration": 4, "velocity": 87}, {"time": 716, "pitch": 62, "duration": 6, "velocity": 86}, {"time": 722, "pitch": 60, "duration": 5, "velocity": 63}, {"time": 728, "pitch": 62, "duration": 6, "velocity": 81}, {"time": 734, "pitch": 60, "duration": 4, "velocity": 64}, {"time": 737, "pitch": 62, "duration": 4, "velocity": 90}, {"time": 743, "pitch": 67, "duration": 6, "velocity": 98}, {"time": 752, "pitch": 64, "duration": 13, "velocity": 87}, {"time": 770, "pitch": 64, "duration": 3, "velocity": 74}, {"time": 773, "pitch": 62, "duration": 4, "velocity": 65}, {"time": 776, "pitch": 60, "duration": 8, "velocity": 93}, {"time": 782, "pitch": 59, "duration": 4, "velocity": 77}, {"time": 785, "pitch": 60, "duration": 3, "velocity": 77}, {"time": 791, "pitch": 72, "duration": 7, "velocity": 104}, {"time": 800, "pitch": 71, "duration": 4, "velocity": 104}, {"time": 806, "pitch": 69, "duration": 3, "velocity": 77}, {"time": 809, "pitch": 67, "duration": 7, "velocity": 104}, {"time": 821, "pitch": 64, "duration": 2, "velocity": 61}, {"time": 824, "pitch": 69, "duration": 4, "velocity": 100}, {"time": 830, "pitch": 67, "duration": 1, "velocity": 77}, {"time": 833, "pitch": 67, "duration": 3, "velocity": 93}, {"time": 839, "pitch": 65, "duration": 6, "velocity": 77}, {"time": 848, "pitch": 64, "duration": 10, "velocity": 71}, {"time": 866, "pitch": 64, "duration": 3, "velocity": 90}, {"time": 869, "pitch": 62, "duration": 3, "velocity": 62}, {"time": 872, "pitch": 60, "duration": 5, "velocity": 90}, {"time": 878, "pitch": 59, "duration": 4, "velocity": 85}, {"time": 881, "pitch": 60, "duration": 3, "velocity": 77}, {"time": 887, "pitch": 72, "duration": 6, "velocity": 104}, {"time": 896, "pitch": 71, "duration": 5, "velocity": 87}, {"time": 902, "pitch": 69, "duration": 3, "velocity": 74}, {"time": 905, "pitch": 67, "duration": 6, "velocity": 111}, {"time": 914, "pitch": 60, "duration": 3, "velocity": 76}, {"time": 917, "pitch": 69, "duration": 15, "velocity": 68}, {"time": 938, "pitch": 60, "duration": 5, "velocity": 76}, {"time": 944, "pitch": 71, "duration": 51, "velocity": 86}, {"time": 1016, "pitch": 64, "duration": 8, "velocity": 87}, {"time": 1022, "pitch": 67, "duration": 4, "velocity": 74}, {"time": 1028, "pitch": 74, "duration": 4, "velocity": 85}, {"time": 1034, "pitch": 72, "duration": 6, "velocity": 83}, {"time": 1046, "pitch": 74, "duration": 3, "velocity": 104}, {"time": 1052, "pitch": 76, "duration": 4, "velocity": 95}, {"time": 1058, "pitch": 69, "duration": 29, "velocity": 100}, {"time": 1112, "pitch": 65, "duration": 7, "velocity": 111}, {"time": 1118, "pitch": 69, "duration": 7, "velocity": 90}, {"time": 1124, "pitch": 77, "duration": 4, "velocity": 95}, {"time": 1130, "pitch": 76, "duration": 9, "velocity": 111}, {"time": 1142, "pitch": 74, "duration": 4, "velocity": 95}, {"time": 1148, "pitch": 72, "duration": 3, "velocity": 95}, {"time": 1154, "pitch": 71, "duration": 21, "velocity": 100}, {"time": 1208, "pitch": 67, "duration": 8, "velocity": 95}, {"time": 1214, "pitch": 71, "duration": 5, "velocity": 74}, {"time": 1220, "pitch": 74, "duration": 4, "velocity": 86}, {"time": 1226, "pitch": 79, "duration": 8, "velocity": 120}, {"time": 1244, "pitch": 71, "duration": 5, "velocity": 100}, {"time": 1250, "pitch": 72, "duration": 29, "velocity": 112}, {"time": 1280, "pitch": 72, "duration": 4, "velocity": 90}, {"time": 1286, "pitch": 74, "duration": 3, "velocity": 93}, {"time": 1292, "pitch": 76, "duration": 2, "velocity": 81}, {"time": 1298, "pitch": 76, "duration": 16, "velocity": 104}, {"time": 1316, "pitch": 74, "duration": 4, "velocity": 108}, {"time": 1322, "pitch": 72, "duration": 15, "velocity": 90}, {"time": 1334, "pitch": 69, "duration": 8, "velocity": 87}, {"time": 1346, "pitch": 69, "duration": 4, "velocity": 98}, {"time": 1357, "pitch": 67, "duration": 16, "velocity": 59}, {"time": 1400, "pitch": 64, "duration": 8, "velocity": 87}, {"time": 1406, "pitch": 67, "duration": 4, "velocity": 74}, {"time": 1412, "pitch": 74, "duration": 4, "velocity": 85}, {"time": 1418, "pitch": 72, "duration": 6, "velocity": 83}, {"time": 1430, "pitch": 74, "duration": 3, "velocity": 104}, {"time": 1436, "pitch": 76, "duration": 4, "velocity": 95}, {"time": 1442, "pitch": 69, "duration": 35, "velocity": 100}, {"time": 1496, "pitch": 65, "duration": 7, "velocity": 111}, {"time": 1502, "pitch": 69, "duration": 7, "velocity": 90}, {"time": 1508, "pitch": 77, "duration": 4, "velocity": 95}, {"time": 1514, "pitch": 76, "duration": 9, "velocity": 111}, {"time": 1526, "pitch": 74, "duration": 4, "velocity": 95}, {"time": 1532, "pitch": 72, "duration": 3, "velocity": 95}, {"time": 1538, "pitch": 71, "duration": 47, "velocity": 100}, {"time": 1592, "pitch": 71, "duration": 10, "velocity": 112}, {"time": 1598, "pitch": 72, "duration": 7, "velocity": 76}, {"time": 1604, "pitch": 74, "duration": 2, "velocity": 81}, {"time": 1610, "pitch": 80, "duration": 11, "velocity": 117}, {"time": 1622, "pitch": 76, "duration": 2, "velocity": 67}, {"time": 1628, "pitch": 76, "duration": 3, "velocity": 76}, {"time": 1634, "pitch": 81, "duration": 16, "velocity": 95}, {"time": 1646, "pitch": 72, "duration": 2, "velocity": 72}, {"time": 1652, "pitch": 72, "duration": 2, "velocity": 86}, {"time": 1658, "pitch": 72, "duration": 15, "velocity": 98}, {"time": 1676, "pitch": 76, "duration": 6, "velocity": 85}, {"time": 1682, "pitch": 69, "duration": 15, "velocity": 100}, {"time": 1700, "pitch": 74, "duration": 5, "velocity": 90}, {"time": 1706, "pitch": 72, "duration": 8, "velocity": 104}, {"time": 1718, "pitch": 71, "duration": 6, "velocity": 98}, {"time": 1730, "pitch": 72, "duration": 42, "velocity": 104}, {"time": 1832, "pitch": 64, "duration": 8, "velocity": 90}, {"time": 1844, "pitch": 67, "duration": 2, "velocity": 93}, {"time": 1850, "pitch": 69, "duration": 8, "velocity": 104}, {"time": 1862, "pitch": 64, "duration": 5, "velocity": 79}, {"time": 1868, "pitch": 62, "duration": 6, "velocity": 79}, {"time": 1874, "pitch": 60, "duration": 5, "velocity": 67}, {"time": 1880, "pitch": 62, "duration": 7, "velocity": 86}, {"time": 1886, "pitch": 62, "duration": 1, "velocity": 74}, {"time": 1889, "pitch": 62, "duration": 4, "velocity": 77}, {"time": 1895, "pitch": 55, "duration": 5, "velocity": 72}, {"time": 1904, "pitch": 64, "duration": 9, "velocity": 64}, {"time": 1922, "pitch": 60, "duration": 4, "velocity": 81}, {"time": 1928, "pitch": 64, "duration": 12, "velocity": 90}, {"time": 1940, "pitch": 67, "duration": 4, "velocity": 76}, {"time": 1946, "pitch": 69, "duration": 9, "velocity": 76}, {"time": 1958, "pitch": 64, "duration": 4, "velocity": 87}, {"time": 1964, "pitch": 62, "duration": 6, "velocity": 86}, {"time": 1970, "pitch": 60, "duration": 5, "velocity": 63}, {"time": 1976, "pitch": 62, "duration": 6, "velocity": 81}, {"time": 1982, "pitch": 60, "duration": 4, "velocity": 64}, {"time": 1985, "pitch": 62, "duration": 4, "velocity": 90}, {"time": 1991, "pitch": 67, "duration": 6, "velocity": 98}, {"time": 2000, "pitch": 64, "duration": 13, "velocity": 87}, {"time": 2018, "pitch": 64, "duration": 3, "velocity": 74}, {"time": 2021, "pitch": 62, "duration": 4, "velocity": 65}, {"time": 2024, "pitch": 60, "duration": 8, "velocity": 93}, {"time": 2030, "pitch": 59, "duration": 4, "velocity": 77}, {"time": 2033, "pitch": 60, "duration": 3, "velocity": 77}, {"time": 2039, "pitch": 72, "duration": 7, "velocity": 104}, {"time": 2048, "pitch": 71, "duration": 4, "velocity": 104}, {"time": 2054, "pitch": 69, "duration": 3, "velocity": 77}, {"time": 2057, "pitch": 67, "duration": 7, "velocity": 104}, {"time": 2069, "pitch": 64, "duration": 2, "velocity": 61}, {"time": 2072, "pitch": 69, "duration": 4, "velocity": 100}, {"time": 2078, "pitch": 67, "duration": 1, "velocity": 77}, {"time": 2081, "pitch": 67, "duration": 3, "velocity": 93}, {"time": 2087, "pitch": 65, "duration": 6, "velocity": 77}, {"time": 2096, "pitch": 64, "duration": 10, "velocity": 71}, {"time": 2114, "pitch": 64, "duration": 3, "velocity": 90}, {"time": 2117, "pitch": 62, "duration": 3, "velocity": 62}, {"time": 2120, "pitch": 60, "duration": 5, "velocity": 90}, {"time": 2126, "pitch": 59, "duration": 4, "velocity": 85}, {"time": 2129, "pitch": 60, "duration": 3, "velocity": 77}, {"time": 2135, "pitch": 72, "duration": 6, "velocity": 104}, {"time": 2144, "pitch": 71, "duration": 5, "velocity": 87}, {"time": 2150, "pitch": 69, "duration": 3, "velocity": 74}, {"time": 2153, "pitch": 67, "duration": 6, "velocity": 111}, {"time": 2162, "pitch": 60, "duration": 3, "velocity": 76}, {"time": 2165, "pitch": 69, "duration": 15, "velocity": 68}, {"time": 2186, "pitch": 60, "duration": 5, "velocity": 76}, {"time": 2192, "pitch": 71, "duration": 51, "velocity": 86}, {"time": 2240, "pitch": 64, "duration": 8, "velocity": 87}, {"time": 2246, "pitch": 67, "duration": 4, "velocity": 74}, {"time": 2252, "pitch": 74, "duration": 4, "velocity": 85}, {"time": 2258, "pitch": 72, "duration": 6, "velocity": 83}, {"time": 2270, "pitch": 74, "duration": 3, "velocity": 104}, {"time": 2276, "pitch": 76, "duration": 4, "velocity": 95}, {"time": 2282, "pitch": 69, "duration": 29, "velocity": 100}, {"time": 2336, "pitch": 65, "duration": 7, "velocity": 111}, {"time": 2342, "pitch": 69, "duration": 7, "velocity": 90}, {"time": 2348, "pitch": 77, "duration": 4, "velocity": 95}, {"time": 2354, "pitch": 76, "duration": 9, "velocity": 111}, {"time": 2366, "pitch": 74, "duration": 4, "velocity": 95}, {"time": 2372, "pitch": 72, "duration": 3, "velocity": 95}, {"time": 2378, "pitch": 71, "duration": 21, "velocity": 100}, {"time": 2432, "pitch": 67, "duration": 8, "velocity": 95}, {"time": 2438, "pitch": 71, "duration": 5, "velocity": 74}, {"time": 2444, "pitch": 74, "duration": 4, "velocity": 86}, {"time": 2450, "pitch": 79, "duration": 8, "velocity": 120}, {"time": 2468, "pitch": 71, "duration": 5, "velocity": 100}, {"time": 2474, "pitch": 72, "duration": 29, "velocity": 112}, {"time": 2504, "pitch": 72, "duration": 4, "velocity": 90}, {"time": 2510, "pitch": 74, "duration": 3, "velocity": 93}, {"time": 2516, "pitch": 76, "duration": 2, "velocity": 81}, {"time": 2522, "pitch": 76, "duration": 16, "velocity": 104}, {"time": 2540, "pitch": 74, "duration": 4, "velocity": 108}, {"time": 2546, "pitch": 72, "duration": 15, "velocity": 90}, {"time": 2558, "pitch": 69, "duration": 8, "velocity": 87}, {"time": 2570, "pitch": 69, "duration": 4, "velocity": 98}, {"time": 2581, "pitch": 67, "duration": 16, "velocity": 59}, {"time": 2624, "pitch": 64, "duration": 8, "velocity": 87}, {"time": 2630, "pitch": 67, "duration": 4, "velocity": 74}, {"time": 2636, "pitch": 74, "duration": 4, "velocity": 85}, {"time": 2642, "pitch": 72, "duration": 6, "velocity": 83}, {"time": 2654, "pitch": 74, "duration": 3, "velocity": 104}, {"time": 2660, "pitch": 76, "duration": 4, "velocity": 95}, {"time": 2666, "pitch": 69, "duration": 35, "velocity": 100}, {"time": 2720, "pitch": 65, "duration": 7, "velocity": 111}, {"time": 2726, "pitch": 69, "duration": 7, "velocity": 90}, {"time": 2732, "pitch": 77, "duration": 4, "velocity": 95}, {"time": 2738, "pitch": 76, "duration": 9, "velocity": 111}, {"time": 2750, "pitch": 74, "duration": 4, "velocity": 95}, {"time": 2756, "pitch": 72, "duration": 3, "velocity": 95}, {"time": 2762, "pitch": 71, "duration": 47, "velocity": 100}, {"time": 2816, "pitch": 71, "duration": 10, "velocity": 112}, {"time": 2822, "pitch": 72, "duration": 7, "velocity": 76}, {"time": 2828, "pitch": 74, "duration": 2, "velocity": 81}, {"time": 2834, "pitch": 80, "duration": 11, "velocity": 117}, {"time": 2846, "pitch": 76, "duration": 2, "velocity": 67}, {"time": 2852, "pitch": 76, "duration": 3, "velocity": 76}, {"time": 2858, "pitch": 81, "duration": 16, "velocity": 95}, {"time": 2870, "pitch": 72, "duration": 2, "velocity": 72}, {"time": 2876, "pitch": 72, "duration": 2, "velocity": 86}, {"time": 2882, "pitch": 72, "duration": 15, "velocity": 98}, {"time": 2900, "pitch": 76, "duration": 6, "velocity": 85}, {"time": 2906, "pitch": 69, "duration": 15, "velocity": 100}, {"time": 2924, "pitch": 74, "duration": 5, "velocity": 90}, {"time": 2930, "pitch": 72, "duration": 8, "velocity": 104}, {"time": 2942, "pitch": 71, "duration": 6, "velocity": 98}, {"time": 2954, "pitch": 72, "duration": 42, "velocity": 104}, {"time": 3296, "pitch": 72, "duration": 3, "velocity": 109}, {"time": 3302, "pitch": 72, "duration": 3, "velocity": 103}, {"time": 3308, "pitch": 72, "duration": 3, "velocity": 96}, {"time": 3314, "pitch": 72, "duration": 4, "velocity": 96}, {"time": 3320, "pitch": 75, "duration": 13, "velocity": 99}, {"time": 3341, "pitch": 72, "duration": 4, "velocity": 107}, {"time": 3344, "pitch": 74, "duration": 3, "velocity": 108}, {"time": 3350, "pitch": 74, "duration": 2, "velocity": 109}, {"time": 3356, "pitch": 74, "duration": 3, "velocity": 118}, {"time": 3362, "pitch": 74, "duration": 3, "velocity": 117}, {"time": 3368, "pitch": 74, "duration": 46, "velocity": 112}, {"time": 3446, "pitch": 67, "duration": 4, "velocity": 74}, {"time": 3452, "pitch": 74, "duration": 4, "velocity": 85}, {"time": 3458, "pitch": 72, "duration": 6, "velocity": 83}, {"time": 3470, "pitch": 74, "duration": 3, "velocity": 104}, {"time": 3476, "pitch": 76, "duration": 4, "velocity": 95}, {"time": 3482, "pitch": 69, "duration": 29, "velocity": 100}, {"time": 3536, "pitch": 65, "duration": 7, "velocity": 111}, {"time": 3542, "pitch": 69, "duration": 7, "velocity": 90}, {"time": 3548, "pitch": 77, "duration": 4, "velocity": 95}, {"time": 3554, "pitch": 76, "duration": 9, "velocity": 111}, {"time": 3566, "pitch": 74, "duration": 4, "velocity": 95}, {"time": 3572, "pitch": 72, "duration": 3, "velocity": 95}, {"time": 3578, "pitch": 71, "duration": 20, "velocity": 100}, {"time": 3632, "pitch": 67, "duration": 8, "velocity": 95}, {"time": 3638, "pitch": 71, "duration": 5, "velocity": 74}, {"time": 3644, "pitch": 74, "duration": 4, "velocity": 86}, {"time": 3650, "pitch": 79, "duration": 8, "velocity": 120}, {"time": 3668, "pitch": 71, "duration": 5, "velocity": 100}, {"time": 3674, "pitch": 72, "duration": 29, "velocity": 112}, {"time": 3704, "pitch": 72, "duration": 4, "velocity": 90}, {"time": 3710, "pitch": 74, "duration": 3, "velocity": 93}, {"time": 3716, "pitch": 76, "duration": 2, "velocity": 81}, {"time": 3722, "pitch": 76, "duration": 16, "velocity": 104}, {"time": 3740, "pitch": 74, "duration": 4, "velocity": 108}, {"time": 3746, "pitch": 72, "duration": 15, "velocity": 90}, {"time": 3758, "pitch": 69, "duration": 8, "velocity": 87}, {"time": 3770, "pitch": 69, "duration": 4, "velocity": 98}, {"time": 3782, "pitch": 67, "duration": 15, "velocity": 59}, {"time": 3824, "pitch": 64, "duration": 8, "velocity": 87}, {"time": 3830, "pitch": 67, "duration": 4, "velocity": 74}, {"time": 3836, "pitch": 74, "duration": 4, "velocity": 85}, {"time": 3842, "pitch": 72, "duration": 6, "velocity": 83}, {"time": 3854, "pitch": 74, "duration": 3, "velocity": 104}, {"time": 3860, "pitch": 76, "duration": 4, "velocity": 95}, {"time": 3866, "pitch": 69, "duration": 35, "velocity": 100}, {"time": 3920, "pitch": 65, "duration": 7, "velocity": 111}, {"time": 3926, "pitch": 69, "duration": 7, "velocity": 90}, {"time": 3932, "pitch": 77, "duration": 4, "velocity": 95}, {"time": 3938, "pitch": 76, "duration": 9, "velocity": 111}, {"time": 3950, "pitch": 74, "duration": 4, "velocity": 95}, {"time": 3956, "pitch": 72, "duration": 3, "velocity": 95}, {"time": 3962, "pitch": 71, "duration": 47, "velocity": 100}, {"time": 4016, "pitch": 71, "duration": 10, "velocity": 112}, {"time": 4022, "pitch": 72, "duration": 7, "velocity": 81}, {"time": 4028, "pitch": 74, "duration": 3, "velocity": 105}, {"time": 4034, "pitch": 80, "duration": 11, "velocity": 117}, {"time": 4046, "pitch": 76, "duration": 2, "velocity": 74}, {"time": 4052, "pitch": 76, "duration": 3, "velocity": 97}, {"time": 4058, "pitch": 84, "duration": 16, "velocity": 95}, {"time": 4070, "pitch": 72, "duration": 2, "velocity": 72}, {"time": 4076, "pitch": 72, "duration": 2, "velocity": 86}, {"time": 4082, "pitch": 72, "duration": 15, "velocity": 98}, {"time": 4100, "pitch": 76, "duration": 6, "velocity": 85}, {"time": 4106, "pitch": 69, "duration": 15, "velocity": 100}, {"time": 4124, "pitch": 74, "duration": 5, "velocity": 90}, {"time": 4130, "pitch": 72, "duration": 8, "velocity": 104}, {"time": 4142, "pitch": 71, "duration": 6, "velocity": 98}, {"time": 4154, "pitch": 72, "duration": 42, "velocity": 104}, {"time": 4196, "pitch": 76, "duration": 6, "velocity": 85}, {"time": 4202, "pitch": 69, "duration": 15, "velocity": 100}, {"time": 4220, "pitch": 74, "duration": 6, "velocity": 90}, {"time": 4226, "pitch": 72, "duration": 8, "velocity": 104}, {"time": 4238, "pitch": 71, "duration": 6, "velocity": 98}, {"time": 4253, "pitch": 72, "duration": 39, "velocity": 104}], "annotations": [{"time": 48, "annotation": {"number": 64, "value": 78}, "group": "control_change"}, {"time": 72, "annotation": {"number": 64, "value": 80}, "group": "control_change"}, {"time": 84, "annotation": {"number": 64, "value": 81}, "group": "control_change"}, {"time": 192, "annotation": {"number": 64, "value": 80}, "group": "control_change"}, {"time": 216, "annotation": {"number": 64, "value": 79}, "group": "control_change"}]}, {"program": 0, "is_drum": false, "name": "PIANO", "notes": [{"time": 8, "pitch": 48, "duration": 18, "velocity": 81}, {"time": 8, "pitch": 64, "duration": 11, "velocity": 66}, {"time": 8, "pitch": 67, "duration": 11, "velocity": 74}, {"time": 14, "pitch": 55, "duration": 11, "velocity": 63}, {"time": 20, "pitch": 64, "duration": 6, "velocity": 72}, {"time": 20, "pitch": 67, "duration": 6, "velocity": 79}, {"time": 32, "pitch": 45, "duration": 18, "velocity": 61}, {"time": 32, "pitch": 60, "duration": 11, "velocity": 62}, {"time": 32, "pitch": 64, "duration": 11, "velocity": 74}, {"time": 38, "pitch": 52, "duration": 12, "velocity": 71}, {"time": 44, "pitch": 60, "duration": 8, "velocity": 63}, {"time": 44, "pitch": 64, "duration": 8, "velocity": 74}, {"time": 50, "pitch": 52, "duration": 1, "velocity": 46}, {"time": 56, "pitch": 50, "duration": 18, "velocity": 66}, {"time": 56, "pitch": 65, "duration": 7, "velocity": 62}, {"time": 56, "pitch": 69, "duration": 6, "velocity": 61}, {"time": 62, "pitch": 57, "duration": 10, "velocity": 61}, {"time": 68, "pitch": 65, "duration": 7, "velocity": 90}, {"time": 68, "pitch": 69, "duration": 6, "velocity": 76}, {"time": 80, "pitch": 43, "duration": 23, "velocity": 72}, {"time": 80, "pitch": 59, "duration": 10, "velocity": 66}, {"time": 80, "pitch": 62, "duration": 10, "velocity": 72}, {"time": 86, "pitch": 50, "duration": 17, "velocity": 65}, {"time": 92, "pitch": 59, "duration": 7, "velocity": 67}, {"time": 92, "pitch": 62, "duration": 10, "velocity": 74}, {"time": 98, "pitch": 55, "duration": 5, "velocity": 49}, {"time": 104, "pitch": 40, "duration": 18, "velocity": 77}, {"time": 104, "pitch": 55, "duration": 10, "velocity": 64}, {"time": 104, "pitch": 59, "duration": 10, "velocity": 72}, {"time": 110, "pitch": 47, "duration": 13, "velocity": 65}, {"time": 116, "pitch": 55, "duration": 6, "velocity": 79}, {"time": 116, "pitch": 59, "duration": 6, "velocity": 79}, {"time": 122, "pitch": 52, "duration": 6, "velocity": 60}, {"time": 128, "pitch": 45, "duration": 19, "velocity": 65}, {"time": 128, "pitch": 60, "duration": 10, "velocity": 63}, {"time": 128, "pitch": 64, "duration": 10, "velocity": 76}, {"time": 134, "pitch": 52, "duration": 14, "velocity": 57}, {"time": 140, "pitch": 60, "duration": 8, "velocity": 70}, {"time": 140, "pitch": 64, "duration": 7, "velocity": 74}, {"time": 146, "pitch": 57, "duration": 5, "velocity": 52}, {"time": 152, "pitch": 41, "duration": 19, "velocity": 74}, {"time": 152, "pitch": 56, "duration": 11, "velocity": 61}, {"time": 152, "pitch": 59, "duration": 10, "velocity": 58}, {"time": 164, "pitch": 56, "duration": 6, "velocity": 81}, {"time": 164, "pitch": 59, "duration": 6, "velocity": 83}, {"time": 176, "pitch": 43, "duration": 24, "velocity": 67}, {"time": 176, "pitch": 59, "duration": 24, "velocity": 67}, {"time": 176, "pitch": 62, "duration": 24, "velocity": 65}, {"time": 200, "pitch": 48, "duration": 19, "velocity": 74}, {"time": 200, "pitch": 64, "duration": 10, "velocity": 65}, {"time": 200, "pitch": 67, "duration": 11, "velocity": 79}, {"time": 206, "pitch": 55, "duration": 11, "velocity": 47}, {"time": 212, "pitch": 64, "duration": 12, "velocity": 65}, {"time": 212, "pitch": 67, "duration": 12, "velocity": 53}, {"time": 212, "pitch": 72, "duration": 11, "velocity": 64}, {"time": 224, "pitch": 41, "duration": 18, "velocity": 73}, {"time": 230, "pitch": 48, "duration": 17, "velocity": 73}, {"time": 236, "pitch": 57, "duration": 6, "velocity": 64}, {"time": 236, "pitch": 60, "duration": 7, "velocity": 64}, {"time": 236, "pitch": 65, "duration": 6, "velocity": 76}, {"time": 248, "pitch": 43, "duration": 17, "velocity": 75}, {"time": 248, "pitch": 59, "duration": 11, "velocity": 70}, {"time": 248, "pitch": 62, "duration": 11, "velocity": 64}, {"time": 248, "pitch": 67, "duration": 11, "velocity": 73}, {"time": 254, "pitch": 50, "duration": 13, "velocity": 61}, {"time": 260, "pitch": 59, "duration": 7, "velocity": 73}, {"time": 260, "pitch": 62, "duration": 7, "velocity": 79}, {"time": 260, "pitch": 67, "duration": 7, "velocity": 86}, {"time": 266, "pitch": 55, "duration": 7, "velocity": 54}, {"time": 272, "pitch": 48, "duration": 16, "velocity": 67}, {"time": 272, "pitch": 64, "duration": 10, "velocity": 70}, {"time": 272, "pitch": 67, "duration": 11, "velocity": 75}, {"time": 272, "pitch": 72, "duration": 10, "velocity": 67}, {"time": 278, "pitch": 55, "duration": 10, "velocity": 65}, {"time": 284, "pitch": 64, "duration": 9, "velocity": 75}, {"time": 284, "pitch": 67, "duration": 9, "velocity": 83}, {"time": 284, "pitch": 72, "duration": 9, "velocity": 76}, {"time": 296, "pitch": 48, "duration": 17, "velocity": 85}, {"time": 296, "pitch": 64, "duration": 10, "velocity": 74}, {"time": 296, "pitch": 67, "duration": 10, "velocity": 79}, {"time": 302, "pitch": 55, "duration": 7, "velocity": 62}, {"time": 308, "pitch": 64, "duration": 6, "velocity": 81}, {"time": 308, "pitch": 67, "duration": 6, "velocity": 75}, {"time": 320, "pitch": 41, "duration": 19, "velocity": 71}, {"time": 320, "pitch": 57, "duration": 11, "velocity": 65}, {"time": 320, "pitch": 60, "duration": 11, "velocity": 76}, {"time": 326, "pitch": 48, "duration": 17, "velocity": 73}, {"time": 332, "pitch": 57, "duration": 7, "velocity": 67}, {"time": 332, "pitch": 60, "duration": 7, "velocity": 74}, {"time": 338, "pitch": 53, "duration": 4, "velocity": 47}, {"time": 344, "pitch": 43, "duration": 18, "velocity": 74}, {"time": 344, "pitch": 59, "duration": 11, "velocity": 71}, {"time": 344, "pitch": 62, "duration": 11, "velocity": 74}, {"time": 350, "pitch": 50, "duration": 14, "velocity": 66}, {"time": 356, "pitch": 59, "duration": 7, "velocity": 70}, {"time": 356, "pitch": 62, "duration": 7, "velocity": 75}, {"time": 362, "pitch": 55, "duration": 5, "velocity": 60}, {"time": 368, "pitch": 48, "duration": 19, "velocity": 98}, {"time": 368, "pitch": 64, "duration": 11, "velocity": 68}, {"time": 368, "pitch": 67, "duration": 11, "velocity": 79}, {"time": 374, "pitch": 55, "duration": 12, "velocity": 64}, {"time": 380, "pitch": 64, "duration": 6, "velocity": 73}, {"time": 380, "pitch": 67, "duration": 6, "velocity": 83}, {"time": 392, "pitch": 41, "duration": 20, "velocity": 65}, {"time": 392, "pitch": 57, "duration": 11, "velocity": 61}, {"time": 392, "pitch": 60, "duration": 11, "velocity": 74}, {"time": 398, "pitch": 48, "duration": 11, "velocity": 74}, {"time": 404, "pitch": 57, "duration": 6, "velocity": 61}, {"time": 404, "pitch": 60, "duration": 6, "velocity": 71}, {"time": 416, "pitch": 40, "duration": 18, "velocity": 74}, {"time": 416, "pitch": 55, "duration": 10, "velocity": 63}, {"time": 416, "pitch": 59, "duration": 11, "velocity": 75}, {"time": 422, "pitch": 47, "duration": 17, "velocity": 63}, {"time": 428, "pitch": 55, "duration": 7, "velocity": 66}, {"time": 428, "pitch": 59, "duration": 7, "velocity": 76}, {"time": 434, "pitch": 52, "duration": 5, "velocity": 47}, {"time": 440, "pitch": 41, "duration": 18, "velocity": 75}, {"time": 440, "pitch": 57, "duration": 11, "velocity": 70}, {"time": 440, "pitch": 60, "duration": 11, "velocity": 74}, {"time": 446, "pitch": 48, "duration": 13, "velocity": 67}, {"time": 452, "pitch": 57, "duration": 7, "velocity": 65}, {"time": 452, "pitch": 60, "duration": 7, "velocity": 75}, {"time": 458, "pitch": 53, "duration": 7, "velocity": 59}, {"time": 464, "pitch": 48, "duration": 19, "velocity": 64}, {"time": 464, "pitch": 64, "duration": 10, "velocity": 63}, {"time": 464, "pitch": 67, "duration": 10, "velocity": 74}, {"time": 470, "pitch": 55, "duration": 11, "velocity": 64}, {"time": 476, "pitch": 64, "duration": 6, "velocity": 79}, {"time": 476, "pitch": 67, "duration": 6, "velocity": 83}, {"time": 488, "pitch": 45, "duration": 19, "velocity": 77}, {"time": 488, "pitch": 60, "duration": 10, "velocity": 66}, {"time": 488, "pitch": 64, "duration": 11, "velocity": 81}, {"time": 494, "pitch": 52, "duration": 11, "velocity": 61}, {"time": 500, "pitch": 60, "duration": 6, "velocity": 83}, {"time": 500, "pitch": 64, "duration": 6, "velocity": 86}, {"time": 512, "pitch": 40, "duration": 20, "velocity": 69}, {"time": 512, "pitch": 55, "duration": 11, "velocity": 76}, {"time": 512, "pitch": 59, "duration": 11, "velocity": 77}, {"time": 518, "pitch": 47, "duration": 18, "velocity": 70}, {"time": 524, "pitch": 55, "duration": 10, "velocity": 74}, {"time": 524, "pitch": 59, "duration": 10, "velocity": 79}, {"time": 530, "pitch": 52, "duration": 5, "velocity": 53}, {"time": 536, "pitch": 41, "duration": 22, "velocity": 76}, {"time": 536, "pitch": 57, "duration": 10, "velocity": 58}, {"time": 536, "pitch": 60, "duration": 11, "velocity": 70}, {"time": 542, "pitch": 48, "duration": 18, "velocity": 65}, {"time": 548, "pitch": 57, "duration": 10, "velocity": 66}, {"time": 548, "pitch": 60, "duration": 10, "velocity": 73}, {"time": 554, "pitch": 53, "duration": 4, "velocity": 52}, {"time": 560, "pitch": 43, "duration": 18, "velocity": 73}, {"time": 560, "pitch": 59, "duration": 11, "velocity": 61}, {"time": 560, "pitch": 62, "duration": 10, "velocity": 63}, {"time": 566, "pitch": 50, "duration": 12, "velocity": 62}, {"time": 572, "pitch": 59, "duration": 7, "velocity": 76}, {"time": 572, "pitch": 62, "duration": 6, "velocity": 72}, {"time": 578, "pitch": 55, "duration": 1, "velocity": 56}, {"time": 584, "pitch": 48, "duration": 19, "velocity": 74}, {"time": 584, "pitch": 64, "duration": 10, "velocity": 65}, {"time": 584, "pitch": 67, "duration": 11, "velocity": 79}, {"time": 590, "pitch": 55, "duration": 11, "velocity": 47}, {"time": 596, "pitch": 64, "duration": 12, "velocity": 65}, {"time": 596, "pitch": 67, "duration": 12, "velocity": 53}, {"time": 596, "pitch": 72, "duration": 11, "velocity": 64}, {"time": 608, "pitch": 41, "duration": 18, "velocity": 73}, {"time": 614, "pitch": 48, "duration": 17, "velocity": 73}, {"time": 620, "pitch": 57, "duration": 6, "velocity": 64}, {"time": 620, "pitch": 60, "duration": 7, "velocity": 64}, {"time": 620, "pitch": 65, "duration": 6, "velocity": 76}, {"time": 632, "pitch": 43, "duration": 17, "velocity": 75}, {"time": 632, "pitch": 59, "duration": 11, "velocity": 70}, {"time": 632, "pitch": 62, "duration": 11, "velocity": 64}, {"time": 632, "pitch": 67, "duration": 11, "velocity": 73}, {"time": 638, "pitch": 50, "duration": 13, "velocity": 61}, {"time": 644, "pitch": 59, "duration": 7, "velocity": 73}, {"time": 644, "pitch": 62, "duration": 7, "velocity": 79}, {"time": 644, "pitch": 67, "duration": 7, "velocity": 86}, {"time": 650, "pitch": 55, "duration": 7, "velocity": 54}, {"time": 656, "pitch": 48, "duration": 16, "velocity": 67}, {"time": 656, "pitch": 64, "duration": 10, "velocity": 70}, {"time": 656, "pitch": 67, "duration": 11, "velocity": 75}, {"time": 656, "pitch": 72, "duration": 10, "velocity": 67}, {"time": 662, "pitch": 55, "duration": 10, "velocity": 65}, {"time": 668, "pitch": 64, "duration": 9, "velocity": 75}, {"time": 668, "pitch": 67, "duration": 9, "velocity": 83}, {"time": 668, "pitch": 72, "duration": 9, "velocity": 76}, {"time": 680, "pitch": 48, "duration": 17, "velocity": 85}, {"time": 680, "pitch": 64, "duration": 10, "velocity": 74}, {"time": 680, "pitch": 67, "duration": 10, "velocity": 79}, {"time": 686, "pitch": 55, "duration": 7, "velocity": 62}, {"time": 692, "pitch": 64, "duration": 6, "velocity": 81}, {"time": 692, "pitch": 67, "duration": 6, "velocity": 75}, {"time": 704, "pitch": 41, "duration": 19, "velocity": 71}, {"time": 704, "pitch": 57, "duration": 11, "velocity": 65}, {"time": 704, "pitch": 60, "duration": 11, "velocity": 76}, {"time": 710, "pitch": 48, "duration": 17, "velocity": 73}, {"time": 716, "pitch": 57, "duration": 7, "velocity": 67}, {"time": 716, "pitch": 60, "duration": 7, "velocity": 74}, {"time": 722, "pitch": 53, "duration": 4, "velocity": 47}, {"time": 728, "pitch": 43, "duration": 18, "velocity": 74}, {"time": 728, "pitch": 59, "duration": 11, "velocity": 71}, {"time": 728, "pitch": 62, "duration": 11, "velocity": 74}, {"time": 734, "pitch": 50, "duration": 14, "velocity": 66}, {"time": 740, "pitch": 59, "duration": 7, "velocity": 70}, {"time": 740, "pitch": 62, "duration": 7, "velocity": 75}, {"time": 746, "pitch": 55, "duration": 5, "velocity": 60}, {"time": 752, "pitch": 48, "duration": 19, "velocity": 98}, {"time": 752, "pitch": 64, "duration": 11, "velocity": 68}, {"time": 752, "pitch": 67, "duration": 11, "velocity": 79}, {"time": 758, "pitch": 55, "duration": 12, "velocity": 64}, {"time": 764, "pitch": 64, "duration": 6, "velocity": 73}, {"time": 764, "pitch": 67, "duration": 6, "velocity": 83}, {"time": 776, "pitch": 41, "duration": 20, "velocity": 65}, {"time": 776, "pitch": 57, "duration": 11, "velocity": 61}, {"time": 776, "pitch": 60, "duration": 11, "velocity": 74}, {"time": 782, "pitch": 48, "duration": 11, "velocity": 74}, {"time": 788, "pitch": 57, "duration": 6, "velocity": 61}, {"time": 788, "pitch": 60, "duration": 6, "velocity": 71}, {"time": 800, "pitch": 40, "duration": 18, "velocity": 74}, {"time": 800, "pitch": 55, "duration": 10, "velocity": 63}, {"time": 800, "pitch": 59, "duration": 11, "velocity": 75}, {"time": 806, "pitch": 47, "duration": 17, "velocity": 63}, {"time": 812, "pitch": 55, "duration": 7, "velocity": 66}, {"time": 812, "pitch": 59, "duration": 7, "velocity": 76}, {"time": 818, "pitch": 52, "duration": 5, "velocity": 47}, {"time": 824, "pitch": 41, "duration": 12, "velocity": 75}, {"time": 824, "pitch": 57, "duration": 11, "velocity": 70}, {"time": 824, "pitch": 60, "duration": 11, "velocity": 74}, {"time": 830, "pitch": 48, "duration": 6, "velocity": 67}, {"time": 836, "pitch": 43, "duration": 8, "velocity": 75}, {"time": 836, "pitch": 59, "duration": 6, "velocity": 69}, {"time": 836, "pitch": 62, "duration": 6, "velocity": 75}, {"time": 842, "pitch": 50, "duration": 6, "velocity": 86}, {"time": 848, "pitch": 48, "duration": 12, "velocity": 64}, {"time": 848, "pitch": 64, "duration": 10, "velocity": 63}, {"time": 848, "pitch": 67, "duration": 10, "velocity": 74}, {"time": 854, "pitch": 55, "duration": 6, "velocity": 64}, {"time": 860, "pitch": 47, "duration": 10, "velocity": 83}, {"time": 860, "pitch": 62, "duration": 7, "velocity": 63}, {"time": 860, "pitch": 67, "duration": 7, "velocity": 71}, {"time": 872, "pitch": 45, "duration": 19, "velocity": 77}, {"time": 872, "pitch": 60, "duration": 10, "velocity": 66}, {"time": 872, "pitch": 64, "duration": 11, "velocity": 81}, {"time": 878, "pitch": 52, "duration": 11, "velocity": 61}, {"time": 884, "pitch": 60, "duration": 6, "velocity": 83}, {"time": 884, "pitch": 64, "duration": 6, "velocity": 86}, {"time": 896, "pitch": 40, "duration": 20, "velocity": 69}, {"time": 896, "pitch": 55, "duration": 11, "velocity": 76}, {"time": 896, "pitch": 59, "duration": 11, "velocity": 77}, {"time": 902, "pitch": 47, "duration": 18, "velocity": 70}, {"time": 908, "pitch": 55, "duration": 10, "velocity": 74}, {"time": 908, "pitch": 59, "duration": 10, "velocity": 79}, {"time": 914, "pitch": 52, "duration": 5, "velocity": 53}, {"time": 920, "pitch": 41, "duration": 22, "velocity": 76}, {"time": 920, "pitch": 57, "duration": 10, "velocity": 58}, {"time": 920, "pitch": 60, "duration": 11, "velocity": 70}, {"time": 926, "pitch": 48, "duration": 18, "velocity": 65}, {"time": 932, "pitch": 57, "duration": 10, "velocity": 66}, {"time": 932, "pitch": 60, "duration": 10, "velocity": 73}, {"time": 938, "pitch": 53, "duration": 4, "velocity": 52}, {"time": 944, "pitch": 43, "duration": 4, "velocity": 75}, {"time": 944, "pitch": 59, "duration": 2, "velocity": 63}, {"time": 944, "pitch": 62, "duration": 2, "velocity": 63}, {"time": 950, "pitch": 43, "duration": 3, "velocity": 72}, {"time": 950, "pitch": 59, "duration": 2, "velocity": 59}, {"time": 950, "pitch": 62, "duration": 2, "velocity": 63}, {"time": 956, "pitch": 43, "duration": 3, "velocity": 67}, {"time": 956, "pitch": 59, "duration": 2, "velocity": 64}, {"time": 956, "pitch": 62, "duration": 2, "velocity": 68}, {"time": 962, "pitch": 43, "duration": 3, "velocity": 72}, {"time": 962, "pitch": 59, "duration": 2, "velocity": 62}, {"time": 962, "pitch": 62, "duration": 2, "velocity": 69}, {"time": 968, "pitch": 43, "duration": 4, "velocity": 74}, {"time": 968, "pitch": 59, "duration": 2, "velocity": 58}, {"time": 968, "pitch": 64, "duration": 2, "velocity": 60}, {"time": 974, "pitch": 43, "duration": 2, "velocity": 68}, {"time": 974, "pitch": 59, "duration": 2, "velocity": 59}, {"time": 974, "pitch": 64, "duration": 3, "velocity": 67}, {"time": 980, "pitch": 43, "duration": 3, "velocity": 74}, {"time": 980, "pitch": 59, "duration": 2, "velocity": 73}, {"time": 980, "pitch": 64, "duration": 2, "velocity": 81}, {"time": 986, "pitch": 43, "duration": 4, "velocity": 77}, {"time": 986, "pitch": 59, "duration": 3, "velocity": 65}, {"time": 986, "pitch": 64, "duration": 3, "velocity": 76}, {"time": 992, "pitch": 43, "duration": 18, "velocity": 81}, {"time": 992, "pitch": 59, "duration": 18, "velocity": 87}, {"time": 992, "pitch": 62, "duration": 18, "velocity": 95}, {"time": 992, "pitch": 65, "duration": 18, "velocity": 95}, {"time": 1016, "pitch": 48, "duration": 41, "velocity": 85}, {"time": 1016, "pitch": 64, "duration": 10, "velocity": 90}, {"time": 1016, "pitch": 67, "duration": 10, "velocity": 81}, {"time": 1022, "pitch": 55, "duration": 32, "velocity": 65}, {"time": 1028, "pitch": 64, "duration": 10, "velocity": 75}, {"time": 1028, "pitch": 67, "duration": 10, "velocity": 79}, {"time": 1034, "pitch": 60, "duration": 6, "velocity": 54}, {"time": 1040, "pitch": 64, "duration": 11, "velocity": 71}, {"time": 1040, "pitch": 67, "duration": 11, "velocity": 77}, {"time": 1040, "pitch": 72, "duration": 10, "velocity": 76}, {"time": 1046, "pitch": 60, "duration": 5, "velocity": 58}, {"time": 1052, "pitch": 64, "duration": 5, "velocity": 77}, {"time": 1052, "pitch": 67, "duration": 5, "velocity": 93}, {"time": 1052, "pitch": 72, "duration": 5, "velocity": 83}, {"time": 1064, "pitch": 41, "duration": 34, "velocity": 79}, {"time": 1064, "pitch": 57, "duration": 10, "velocity": 67}, {"time": 1064, "pitch": 60, "duration": 10, "velocity": 73}, {"time": 1064, "pitch": 65, "duration": 10, "velocity": 85}, {"time": 1070, "pitch": 48, "duration": 27, "velocity": 70}, {"time": 1076, "pitch": 57, "duration": 11, "velocity": 72}, {"time": 1076, "pitch": 60, "duration": 11, "velocity": 83}, {"time": 1076, "pitch": 65, "duration": 10, "velocity": 87}, {"time": 1082, "pitch": 53, "duration": 6, "velocity": 51}, {"time": 1088, "pitch": 57, "duration": 7, "velocity": 72}, {"time": 1088, "pitch": 60, "duration": 9, "velocity": 83}, {"time": 1088, "pitch": 65, "duration": 10, "velocity": 86}, {"time": 1100, "pitch": 40, "duration": 7, "velocity": 68}, {"time": 1100, "pitch": 55, "duration": 7, "velocity": 77}, {"time": 1100, "pitch": 59, "duration": 7, "velocity": 86}, {"time": 1112, "pitch": 38, "duration": 42, "velocity": 86}, {"time": 1112, "pitch": 53, "duration": 10, "velocity": 71}, {"time": 1112, "pitch": 57, "duration": 11, "velocity": 75}, {"time": 1112, "pitch": 62, "duration": 11, "velocity": 77}, {"time": 1118, "pitch": 45, "duration": 36, "velocity": 64}, {"time": 1124, "pitch": 53, "duration": 10, "velocity": 70}, {"time": 1124, "pitch": 57, "duration": 10, "velocity": 77}, {"time": 1124, "pitch": 62, "duration": 10, "velocity": 74}, {"time": 1130, "pitch": 50, "duration": 7, "velocity": 59}, {"time": 1136, "pitch": 53, "duration": 11, "velocity": 69}, {"time": 1136, "pitch": 57, "duration": 11, "velocity": 74}, {"time": 1136, "pitch": 62, "duration": 11, "velocity": 70}, {"time": 1142, "pitch": 50, "duration": 6, "velocity": 60}, {"time": 1148, "pitch": 53, "duration": 6, "velocity": 81}, {"time": 1148, "pitch": 57, "duration": 6, "velocity": 87}, {"time": 1148, "pitch": 62, "duration": 6, "velocity": 95}, {"time": 1154, "pitch": 50, "duration": 6, "velocity": 60}, {"time": 1160, "pitch": 43, "duration": 43, "velocity": 63}, {"time": 1160, "pitch": 59, "duration": 10, "velocity": 75}, {"time": 1160, "pitch": 62, "duration": 10, "velocity": 81}, {"time": 1160, "pitch": 67, "duration": 10, "velocity": 83}, {"time": 1166, "pitch": 50, "duration": 35, "velocity": 70}, {"time": 1172, "pitch": 59, "duration": 10, "velocity": 93}, {"time": 1172, "pitch": 62, "duration": 10, "velocity": 93}, {"time": 1172, "pitch": 67, "duration": 10, "velocity": 98}, {"time": 1178, "pitch": 55, "duration": 7, "velocity": 53}, {"time": 1184, "pitch": 59, "duration": 10, "velocity": 85}, {"time": 1184, "pitch": 62, "duration": 10, "velocity": 90}, {"time": 1184, "pitch": 67, "duration": 10, "velocity": 98}, {"time": 1190, "pitch": 55, "duration": 6, "velocity": 58}, {"time": 1196, "pitch": 59, "duration": 6, "velocity": 93}, {"time": 1196, "pitch": 62, "duration": 6, "velocity": 98}, {"time": 1196, "pitch": 67, "duration": 6, "velocity": 104}, {"time": 1208, "pitch": 40, "duration": 43, "velocity": 77}, {"time": 1208, "pitch": 55, "duration": 10, "velocity": 79}, {"time": 1208, "pitch": 59, "duration": 10, "velocity": 85}, {"time": 1208, "pitch": 64, "duration": 10, "velocity": 81}, {"time": 1214, "pitch": 47, "duration": 37, "velocity": 74}, {"time": 1220, "pitch": 55, "duration": 9, "velocity": 87}, {"time": 1220, "pitch": 59, "duration": 10, "velocity": 98}, {"time": 1220, "pitch": 64, "duration": 10, "velocity": 93}, {"time": 1226, "pitch": 52, "duration": 19, "velocity": 56}, {"time": 1232, "pitch": 44, "duration": 19, "velocity": 74}, {"time": 1232, "pitch": 56, "duration": 10, "velocity": 65}, {"time": 1232, "pitch": 59, "duration": 10, "velocity": 83}, {"time": 1232, "pitch": 64, "duration": 10, "velocity": 74}, {"time": 1244, "pitch": 56, "duration": 7, "velocity": 111}, {"time": 1244, "pitch": 59, "duration": 6, "velocity": 104}, {"time": 1244, "pitch": 64, "duration": 6, "velocity": 87}, {"time": 1250, "pitch": 52, "duration": 6, "velocity": 60}, {"time": 1256, "pitch": 45, "duration": 24, "velocity": 63}, {"time": 1256, "pitch": 60, "duration": 10, "velocity": 85}, {"time": 1256, "pitch": 64, "duration": 10, "velocity": 90}, {"time": 1256, "pitch": 69, "duration": 10, "velocity": 77}, {"time": 1262, "pitch": 52, "duration": 18, "velocity": 67}, {"time": 1268, "pitch": 60, "duration": 10, "velocity": 86}, {"time": 1268, "pitch": 64, "duration": 10, "velocity": 98}, {"time": 1268, "pitch": 69, "duration": 10, "velocity": 87}, {"time": 1274, "pitch": 57, "duration": 7, "velocity": 58}, {"time": 1280, "pitch": 43, "duration": 20, "velocity": 85}, {"time": 1280, "pitch": 60, "duration": 9, "velocity": 67}, {"time": 1280, "pitch": 64, "duration": 9, "velocity": 76}, {"time": 1280, "pitch": 69, "duration": 9, "velocity": 76}, {"time": 1292, "pitch": 60, "duration": 8, "velocity": 87}, {"time": 1292, "pitch": 64, "duration": 8, "velocity": 100}, {"time": 1292, "pitch": 69, "duration": 8, "velocity": 93}, {"time": 1304, "pitch": 41, "duration": 18, "velocity": 85}, {"time": 1304, "pitch": 57, "duration": 10, "velocity": 63}, {"time": 1304, "pitch": 60, "duration": 10, "velocity": 71}, {"time": 1304, "pitch": 65, "duration": 10, "velocity": 62}, {"time": 1316, "pitch": 57, "duration": 6, "velocity": 79}, {"time": 1316, "pitch": 60, "duration": 6, "velocity": 90}, {"time": 1316, "pitch": 65, "duration": 6, "velocity": 90}, {"time": 1328, "pitch": 38, "duration": 18, "velocity": 74}, {"time": 1328, "pitch": 54, "duration": 10, "velocity": 81}, {"time": 1328, "pitch": 57, "duration": 10, "velocity": 81}, {"time": 1328, "pitch": 62, "duration": 9, "velocity": 83}, {"time": 1340, "pitch": 54, "duration": 6, "velocity": 90}, {"time": 1340, "pitch": 57, "duration": 6, "velocity": 85}, {"time": 1340, "pitch": 62, "duration": 6, "velocity": 79}, {"time": 1352, "pitch": 43, "duration": 43, "velocity": 74}, {"time": 1352, "pitch": 59, "duration": 9, "velocity": 81}, {"time": 1352, "pitch": 62, "duration": 10, "velocity": 85}, {"time": 1352, "pitch": 67, "duration": 10, "velocity": 87}, {"time": 1358, "pitch": 50, "duration": 37, "velocity": 75}, {"time": 1364, "pitch": 59, "duration": 10, "velocity": 79}, {"time": 1364, "pitch": 62, "duration": 10, "velocity": 87}, {"time": 1364, "pitch": 67, "duration": 10, "velocity": 90}, {"time": 1370, "pitch": 55, "duration": 11, "velocity": 62}, {"time": 1376, "pitch": 59, "duration": 10, "velocity": 79}, {"time": 1376, "pitch": 62, "duration": 10, "velocity": 81}, {"time": 1376, "pitch": 67, "duration": 10, "velocity": 79}, {"time": 1388, "pitch": 55, "duration": 7, "velocity": 70}, {"time": 1388, "pitch": 59, "duration": 8, "velocity": 83}, {"time": 1388, "pitch": 62, "duration": 8, "velocity": 86}, {"time": 1388, "pitch": 67, "duration": 8, "velocity": 86}, {"time": 1400, "pitch": 48, "duration": 41, "velocity": 85}, {"time": 1400, "pitch": 64, "duration": 10, "velocity": 90}, {"time": 1400, "pitch": 67, "duration": 10, "velocity": 81}, {"time": 1406, "pitch": 55, "duration": 32, "velocity": 65}, {"time": 1412, "pitch": 64, "duration": 10, "velocity": 75}, {"time": 1412, "pitch": 67, "duration": 10, "velocity": 79}, {"time": 1418, "pitch": 60, "duration": 6, "velocity": 54}, {"time": 1424, "pitch": 64, "duration": 11, "velocity": 71}, {"time": 1424, "pitch": 67, "duration": 11, "velocity": 77}, {"time": 1424, "pitch": 72, "duration": 10, "velocity": 76}, {"time": 1430, "pitch": 60, "duration": 5, "velocity": 58}, {"time": 1436, "pitch": 64, "duration": 5, "velocity": 77}, {"time": 1436, "pitch": 67, "duration": 5, "velocity": 93}, {"time": 1436, "pitch": 72, "duration": 5, "velocity": 83}, {"time": 1448, "pitch": 41, "duration": 34, "velocity": 79}, {"time": 1448, "pitch": 57, "duration": 10, "velocity": 67}, {"time": 1448, "pitch": 60, "duration": 10, "velocity": 73}, {"time": 1448, "pitch": 65, "duration": 10, "velocity": 85}, {"time": 1454, "pitch": 48, "duration": 27, "velocity": 70}, {"time": 1460, "pitch": 57, "duration": 11, "velocity": 72}, {"time": 1460, "pitch": 60, "duration": 11, "velocity": 83}, {"time": 1460, "pitch": 65, "duration": 10, "velocity": 87}, {"time": 1466, "pitch": 53, "duration": 6, "velocity": 51}, {"time": 1472, "pitch": 57, "duration": 7, "velocity": 72}, {"time": 1472, "pitch": 60, "duration": 9, "velocity": 83}, {"time": 1472, "pitch": 65, "duration": 10, "velocity": 86}, {"time": 1484, "pitch": 40, "duration": 7, "velocity": 68}, {"time": 1484, "pitch": 55, "duration": 7, "velocity": 77}, {"time": 1484, "pitch": 59, "duration": 7, "velocity": 86}, {"time": 1496, "pitch": 38, "duration": 42, "velocity": 86}, {"time": 1496, "pitch": 53, "duration": 10, "velocity": 71}, {"time": 1496, "pitch": 57, "duration": 11, "velocity": 75}, {"time": 1496, "pitch": 62, "duration": 11, "velocity": 77}, {"time": 1502, "pitch": 45, "duration": 36, "velocity": 64}, {"time": 1508, "pitch": 53, "duration": 10, "velocity": 70}, {"time": 1508, "pitch": 57, "duration": 10, "velocity": 77}, {"time": 1508, "pitch": 62, "duration": 10, "velocity": 74}, {"time": 1514, "pitch": 50, "duration": 7, "velocity": 59}, {"time": 1520, "pitch": 53, "duration": 11, "velocity": 69}, {"time": 1520, "pitch": 57, "duration": 11, "velocity": 74}, {"time": 1520, "pitch": 62, "duration": 11, "velocity": 70}, {"time": 1526, "pitch": 50, "duration": 6, "velocity": 60}, {"time": 1532, "pitch": 53, "duration": 6, "velocity": 81}, {"time": 1532, "pitch": 57, "duration": 6, "velocity": 87}, {"time": 1532, "pitch": 62, "duration": 6, "velocity": 95}, {"time": 1538, "pitch": 50, "duration": 6, "velocity": 60}, {"time": 1544, "pitch": 43, "duration": 43, "velocity": 63}, {"time": 1544, "pitch": 59, "duration": 10, "velocity": 75}, {"time": 1544, "pitch": 62, "duration": 10, "velocity": 81}, {"time": 1544, "pitch": 67, "duration": 10, "velocity": 83}, {"time": 1550, "pitch": 50, "duration": 35, "velocity": 70}, {"time": 1556, "pitch": 59, "duration": 10, "velocity": 93}, {"time": 1556, "pitch": 62, "duration": 10, "velocity": 93}, {"time": 1556, "pitch": 67, "duration": 10, "velocity": 98}, {"time": 1562, "pitch": 55, "duration": 7, "velocity": 53}, {"time": 1568, "pitch": 59, "duration": 10, "velocity": 85}, {"time": 1568, "pitch": 62, "duration": 10, "velocity": 90}, {"time": 1568, "pitch": 67, "duration": 10, "velocity": 98}, {"time": 1574, "pitch": 55, "duration": 6, "velocity": 58}, {"time": 1580, "pitch": 59, "duration": 6, "velocity": 93}, {"time": 1580, "pitch": 62, "duration": 6, "velocity": 98}, {"time": 1580, "pitch": 67, "duration": 6, "velocity": 104}, {"time": 1592, "pitch": 40, "duration": 43, "velocity": 77}, {"time": 1592, "pitch": 55, "duration": 10, "velocity": 79}, {"time": 1592, "pitch": 59, "duration": 10, "velocity": 85}, {"time": 1592, "pitch": 64, "duration": 10, "velocity": 81}, {"time": 1598, "pitch": 47, "duration": 37, "velocity": 74}, {"time": 1604, "pitch": 55, "duration": 9, "velocity": 87}, {"time": 1604, "pitch": 59, "duration": 10, "velocity": 98}, {"time": 1604, "pitch": 64, "duration": 10, "velocity": 93}, {"time": 1610, "pitch": 52, "duration": 19, "velocity": 56}, {"time": 1616, "pitch": 44, "duration": 19, "velocity": 74}, {"time": 1616, "pitch": 56, "duration": 10, "velocity": 65}, {"time": 1616, "pitch": 59, "duration": 10, "velocity": 83}, {"time": 1616, "pitch": 64, "duration": 10, "velocity": 74}, {"time": 1628, "pitch": 56, "duration": 7, "velocity": 111}, {"time": 1628, "pitch": 59, "duration": 6, "velocity": 104}, {"time": 1628, "pitch": 64, "duration": 6, "velocity": 87}, {"time": 1634, "pitch": 52, "duration": 6, "velocity": 60}, {"time": 1640, "pitch": 45, "duration": 24, "velocity": 63}, {"time": 1640, "pitch": 60, "duration": 10, "velocity": 85}, {"time": 1640, "pitch": 64, "duration": 10, "velocity": 90}, {"time": 1640, "pitch": 69, "duration": 10, "velocity": 77}, {"time": 1646, "pitch": 52, "duration": 18, "velocity": 67}, {"time": 1652, "pitch": 60, "duration": 10, "velocity": 86}, {"time": 1652, "pitch": 64, "duration": 10, "velocity": 98}, {"time": 1652, "pitch": 69, "duration": 10, "velocity": 87}, {"time": 1658, "pitch": 57, "duration": 7, "velocity": 58}, {"time": 1664, "pitch": 42, "duration": 17, "velocity": 68}, {"time": 1664, "pitch": 48, "duration": 19, "velocity": 93}, {"time": 1664, "pitch": 52, "duration": 19, "velocity": 49}, {"time": 1664, "pitch": 57, "duration": 1, "velocity": 69}, {"time": 1664, "pitch": 60, "duration": 18, "velocity": 81}, {"time": 1688, "pitch": 41, "duration": 18, "velocity": 85}, {"time": 1688, "pitch": 57, "duration": 10, "velocity": 63}, {"time": 1688, "pitch": 60, "duration": 10, "velocity": 71}, {"time": 1688, "pitch": 65, "duration": 10, "velocity": 62}, {"time": 1700, "pitch": 57, "duration": 6, "velocity": 79}, {"time": 1700, "pitch": 60, "duration": 6, "velocity": 90}, {"time": 1700, "pitch": 65, "duration": 6, "velocity": 90}, {"time": 1712, "pitch": 47, "duration": 23, "velocity": 90}, {"time": 1712, "pitch": 59, "duration": 11, "velocity": 72}, {"time": 1712, "pitch": 62, "duration": 11, "velocity": 74}, {"time": 1712, "pitch": 67, "duration": 11, "velocity": 76}, {"time": 1724, "pitch": 59, "duration": 10, "velocity": 69}, {"time": 1724, "pitch": 62, "duration": 10, "velocity": 75}, {"time": 1724, "pitch": 67, "duration": 10, "velocity": 79}, {"time": 1736, "pitch": 48, "duration": 46, "velocity": 87}, {"time": 1736, "pitch": 62, "duration": 10, "velocity": 66}, {"time": 1736, "pitch": 65, "duration": 11, "velocity": 74}, {"time": 1748, "pitch": 62, "duration": 10, "velocity": 72}, {"time": 1748, "pitch": 65, "duration": 10, "velocity": 81}, {"time": 1760, "pitch": 62, "duration": 20, "velocity": 74}, {"time": 1760, "pitch": 64, "duration": 20, "velocity": 74}, {"time": 1784, "pitch": 41, "duration": 19, "velocity": 58}, {"time": 1784, "pitch": 48, "duration": 21, "velocity": 67}, {"time": 1784, "pitch": 56, "duration": 10, "velocity": 65}, {"time": 1784, "pitch": 60, "duration": 10, "velocity": 67}, {"time": 1796, "pitch": 56, "duration": 8, "velocity": 68}, {"time": 1796, "pitch": 60, "duration": 6, "velocity": 72}, {"time": 1808, "pitch": 43, "duration": 24, "velocity": 73}, {"time": 1808, "pitch": 59, "duration": 11, "velocity": 73}, {"time": 1808, "pitch": 62, "duration": 11, "velocity": 73}, {"time": 1808, "pitch": 65, "duration": 24, "velocity": 73}, {"time": 1808, "pitch": 67, "duration": 24, "velocity": 73}, {"time": 1820, "pitch": 59, "duration": 11, "velocity": 66}, {"time": 1820, "pitch": 62, "duration": 11, "velocity": 68}, {"time": 1832, "pitch": 48, "duration": 19, "velocity": 74}, {"time": 1832, "pitch": 64, "duration": 10, "velocity": 65}, {"time": 1832, "pitch": 67, "duration": 11, "velocity": 79}, {"time": 1838, "pitch": 55, "duration": 11, "velocity": 47}, {"time": 1844, "pitch": 64, "duration": 12, "velocity": 65}, {"time": 1844, "pitch": 67, "duration": 12, "velocity": 53}, {"time": 1844, "pitch": 72, "duration": 11, "velocity": 64}, {"time": 1856, "pitch": 41, "duration": 18, "velocity": 73}, {"time": 1862, "pitch": 48, "duration": 17, "velocity": 73}, {"time": 1868, "pitch": 57, "duration": 6, "velocity": 64}, {"time": 1868, "pitch": 60, "duration": 7, "velocity": 64}, {"time": 1868, "pitch": 65, "duration": 6, "velocity": 76}, {"time": 1880, "pitch": 43, "duration": 17, "velocity": 75}, {"time": 1880, "pitch": 59, "duration": 11, "velocity": 70}, {"time": 1880, "pitch": 62, "duration": 11, "velocity": 64}, {"time": 1880, "pitch": 67, "duration": 11, "velocity": 73}, {"time": 1886, "pitch": 50, "duration": 13, "velocity": 61}, {"time": 1892, "pitch": 59, "duration": 7, "velocity": 73}, {"time": 1892, "pitch": 62, "duration": 7, "velocity": 79}, {"time": 1892, "pitch": 67, "duration": 7, "velocity": 86}, {"time": 1898, "pitch": 55, "duration": 7, "velocity": 54}, {"time": 1904, "pitch": 48, "duration": 16, "velocity": 67}, {"time": 1904, "pitch": 64, "duration": 10, "velocity": 70}, {"time": 1904, "pitch": 67, "duration": 11, "velocity": 75}, {"time": 1904, "pitch": 72, "duration": 10, "velocity": 67}, {"time": 1910, "pitch": 55, "duration": 10, "velocity": 65}, {"time": 1916, "pitch": 64, "duration": 9, "velocity": 75}, {"time": 1916, "pitch": 67, "duration": 9, "velocity": 83}, {"time": 1916, "pitch": 72, "duration": 9, "velocity": 76}, {"time": 1928, "pitch": 48, "duration": 17, "velocity": 85}, {"time": 1928, "pitch": 64, "duration": 10, "velocity": 74}, {"time": 1928, "pitch": 67, "duration": 10, "velocity": 79}, {"time": 1934, "pitch": 55, "duration": 7, "velocity": 62}, {"time": 1940, "pitch": 64, "duration": 6, "velocity": 81}, {"time": 1940, "pitch": 67, "duration": 6, "velocity": 75}, {"time": 1952, "pitch": 41, "duration": 19, "velocity": 71}, {"time": 1952, "pitch": 57, "duration": 11, "velocity": 65}, {"time": 1952, "pitch": 60, "duration": 11, "velocity": 76}, {"time": 1958, "pitch": 48, "duration": 17, "velocity": 73}, {"time": 1964, "pitch": 57, "duration": 7, "velocity": 67}, {"time": 1964, "pitch": 60, "duration": 7, "velocity": 74}, {"time": 1970, "pitch": 53, "duration": 4, "velocity": 47}, {"time": 1976, "pitch": 43, "duration": 18, "velocity": 74}, {"time": 1976, "pitch": 59, "duration": 11, "velocity": 71}, {"time": 1976, "pitch": 62, "duration": 11, "velocity": 74}, {"time": 1982, "pitch": 50, "duration": 14, "velocity": 66}, {"time": 1988, "pitch": 59, "duration": 7, "velocity": 70}, {"time": 1988, "pitch": 62, "duration": 7, "velocity": 75}, {"time": 1994, "pitch": 55, "duration": 5, "velocity": 60}, {"time": 2000, "pitch": 48, "duration": 19, "velocity": 98}, {"time": 2000, "pitch": 64, "duration": 11, "velocity": 68}, {"time": 2000, "pitch": 67, "duration": 11, "velocity": 79}, {"time": 2006, "pitch": 55, "duration": 12, "velocity": 64}, {"time": 2012, "pitch": 64, "duration": 6, "velocity": 73}, {"time": 2012, "pitch": 67, "duration": 6, "velocity": 83}, {"time": 2024, "pitch": 41, "duration": 20, "velocity": 65}, {"time": 2024, "pitch": 57, "duration": 11, "velocity": 61}, {"time": 2024, "pitch": 60, "duration": 11, "velocity": 74}, {"time": 2030, "pitch": 48, "duration": 11, "velocity": 74}, {"time": 2036, "pitch": 57, "duration": 6, "velocity": 61}, {"time": 2036, "pitch": 60, "duration": 6, "velocity": 71}, {"time": 2048, "pitch": 40, "duration": 18, "velocity": 74}, {"time": 2048, "pitch": 55, "duration": 10, "velocity": 63}, {"time": 2048, "pitch": 59, "duration": 11, "velocity": 75}, {"time": 2054, "pitch": 47, "duration": 17, "velocity": 63}, {"time": 2060, "pitch": 55, "duration": 7, "velocity": 66}, {"time": 2060, "pitch": 59, "duration": 7, "velocity": 76}, {"time": 2066, "pitch": 52, "duration": 5, "velocity": 47}, {"time": 2072, "pitch": 41, "duration": 12, "velocity": 75}, {"time": 2072, "pitch": 57, "duration": 11, "velocity": 70}, {"time": 2072, "pitch": 60, "duration": 11, "velocity": 74}, {"time": 2078, "pitch": 48, "duration": 6, "velocity": 67}, {"time": 2084, "pitch": 43, "duration": 8, "velocity": 75}, {"time": 2084, "pitch": 59, "duration": 6, "velocity": 69}, {"time": 2084, "pitch": 62, "duration": 6, "velocity": 75}, {"time": 2090, "pitch": 50, "duration": 6, "velocity": 86}, {"time": 2096, "pitch": 48, "duration": 12, "velocity": 64}, {"time": 2096, "pitch": 64, "duration": 10, "velocity": 63}, {"time": 2096, "pitch": 67, "duration": 10, "velocity": 74}, {"time": 2102, "pitch": 55, "duration": 6, "velocity": 64}, {"time": 2108, "pitch": 47, "duration": 10, "velocity": 83}, {"time": 2108, "pitch": 62, "duration": 7, "velocity": 63}, {"time": 2108, "pitch": 67, "duration": 7, "velocity": 71}, {"time": 2120, "pitch": 45, "duration": 19, "velocity": 77}, {"time": 2120, "pitch": 60, "duration": 10, "velocity": 66}, {"time": 2120, "pitch": 64, "duration": 11, "velocity": 81}, {"time": 2126, "pitch": 52, "duration": 11, "velocity": 61}, {"time": 2132, "pitch": 60, "duration": 6, "velocity": 83}, {"time": 2132, "pitch": 64, "duration": 6, "velocity": 86}, {"time": 2144, "pitch": 40, "duration": 20, "velocity": 69}, {"time": 2144, "pitch": 55, "duration": 11, "velocity": 76}, {"time": 2144, "pitch": 59, "duration": 11, "velocity": 77}, {"time": 2150, "pitch": 47, "duration": 18, "velocity": 70}, {"time": 2156, "pitch": 55, "duration": 10, "velocity": 74}, {"time": 2156, "pitch": 59, "duration": 10, "velocity": 79}, {"time": 2162, "pitch": 52, "duration": 5, "velocity": 53}, {"time": 2168, "pitch": 41, "duration": 22, "velocity": 76}, {"time": 2168, "pitch": 57, "duration": 10, "velocity": 58}, {"time": 2168, "pitch": 60, "duration": 11, "velocity": 70}, {"time": 2174, "pitch": 48, "duration": 18, "velocity": 65}, {"time": 2180, "pitch": 57, "duration": 10, "velocity": 66}, {"time": 2180, "pitch": 60, "duration": 10, "velocity": 73}, {"time": 2186, "pitch": 53, "duration": 4, "velocity": 52}, {"time": 2192, "pitch": 43, "duration": 47, "velocity": 76}, {"time": 2192, "pitch": 67, "duration": 10, "velocity": 70}, {"time": 2192, "pitch": 71, "duration": 10, "velocity": 62}, {"time": 2198, "pitch": 50, "duration": 40, "velocity": 87}, {"time": 2204, "pitch": 67, "duration": 10, "velocity": 79}, {"time": 2204, "pitch": 71, "duration": 9, "velocity": 86}, {"time": 2210, "pitch": 55, "duration": 6, "velocity": 53}, {"time": 2216, "pitch": 67, "duration": 10, "velocity": 87}, {"time": 2216, "pitch": 72, "duration": 7, "velocity": 100}, {"time": 2222, "pitch": 55, "duration": 7, "velocity": 56}, {"time": 2228, "pitch": 67, "duration": 10, "velocity": 90}, {"time": 2228, "pitch": 74, "duration": 10, "velocity": 100}, {"time": 2234, "pitch": 55, "duration": 4, "velocity": 60}, {"time": 2240, "pitch": 48, "duration": 44, "velocity": 86}, {"time": 2240, "pitch": 64, "duration": 11, "velocity": 77}, {"time": 2240, "pitch": 67, "duration": 11, "velocity": 85}, {"time": 2246, "pitch": 55, "duration": 37, "velocity": 66}, {"time": 2252, "pitch": 64, "duration": 10, "velocity": 74}, {"time": 2252, "pitch": 67, "duration": 10, "velocity": 85}, {"time": 2258, "pitch": 60, "duration": 8, "velocity": 50}, {"time": 2264, "pitch": 64, "duration": 10, "velocity": 65}, {"time": 2264, "pitch": 67, "duration": 10, "velocity": 81}, {"time": 2270, "pitch": 60, "duration": 7, "velocity": 53}, {"time": 2276, "pitch": 64, "duration": 7, "velocity": 73}, {"time": 2276, "pitch": 67, "duration": 6, "velocity": 76}, {"time": 2282, "pitch": 60, "duration": 2, "velocity": 58}, {"time": 2288, "pitch": 41, "duration": 34, "velocity": 79}, {"time": 2288, "pitch": 57, "duration": 10, "velocity": 67}, {"time": 2288, "pitch": 60, "duration": 10, "velocity": 73}, {"time": 2288, "pitch": 65, "duration": 10, "velocity": 85}, {"time": 2294, "pitch": 48, "duration": 27, "velocity": 70}, {"time": 2300, "pitch": 57, "duration": 11, "velocity": 72}, {"time": 2300, "pitch": 60, "duration": 11, "velocity": 83}, {"time": 2300, "pitch": 65, "duration": 10, "velocity": 87}, {"time": 2306, "pitch": 53, "duration": 6, "velocity": 51}, {"time": 2312, "pitch": 57, "duration": 7, "velocity": 72}, {"time": 2312, "pitch": 60, "duration": 9, "velocity": 83}, {"time": 2312, "pitch": 65, "duration": 10, "velocity": 86}, {"time": 2324, "pitch": 40, "duration": 7, "velocity": 68}, {"time": 2324, "pitch": 55, "duration": 7, "velocity": 77}, {"time": 2324, "pitch": 59, "duration": 7, "velocity": 86}, {"time": 2336, "pitch": 38, "duration": 42, "velocity": 86}, {"time": 2336, "pitch": 53, "duration": 10, "velocity": 71}, {"time": 2336, "pitch": 57, "duration": 11, "velocity": 75}, {"time": 2336, "pitch": 62, "duration": 11, "velocity": 77}, {"time": 2342, "pitch": 45, "duration": 36, "velocity": 64}, {"time": 2348, "pitch": 53, "duration": 10, "velocity": 70}, {"time": 2348, "pitch": 57, "duration": 10, "velocity": 77}, {"time": 2348, "pitch": 62, "duration": 10, "velocity": 74}, {"time": 2354, "pitch": 50, "duration": 7, "velocity": 59}, {"time": 2360, "pitch": 53, "duration": 11, "velocity": 69}, {"time": 2360, "pitch": 57, "duration": 11, "velocity": 74}, {"time": 2360, "pitch": 62, "duration": 11, "velocity": 70}, {"time": 2366, "pitch": 50, "duration": 6, "velocity": 60}, {"time": 2372, "pitch": 53, "duration": 6, "velocity": 81}, {"time": 2372, "pitch": 57, "duration": 6, "velocity": 87}, {"time": 2372, "pitch": 62, "duration": 6, "velocity": 95}, {"time": 2378, "pitch": 50, "duration": 6, "velocity": 60}, {"time": 2384, "pitch": 43, "duration": 43, "velocity": 63}, {"time": 2384, "pitch": 59, "duration": 10, "velocity": 75}, {"time": 2384, "pitch": 62, "duration": 10, "velocity": 81}, {"time": 2384, "pitch": 67, "duration": 10, "velocity": 83}, {"time": 2390, "pitch": 50, "duration": 35, "velocity": 70}, {"time": 2396, "pitch": 59, "duration": 10, "velocity": 93}, {"time": 2396, "pitch": 62, "duration": 10, "velocity": 93}, {"time": 2396, "pitch": 67, "duration": 10, "velocity": 98}, {"time": 2402, "pitch": 55, "duration": 7, "velocity": 53}, {"time": 2408, "pitch": 59, "duration": 10, "velocity": 85}, {"time": 2408, "pitch": 62, "duration": 10, "velocity": 90}, {"time": 2408, "pitch": 67, "duration": 10, "velocity": 98}, {"time": 2414, "pitch": 55, "duration": 6, "velocity": 58}, {"time": 2420, "pitch": 59, "duration": 6, "velocity": 93}, {"time": 2420, "pitch": 62, "duration": 6, "velocity": 98}, {"time": 2420, "pitch": 67, "duration": 6, "velocity": 104}, {"time": 2432, "pitch": 40, "duration": 43, "velocity": 77}, {"time": 2432, "pitch": 55, "duration": 10, "velocity": 79}, {"time": 2432, "pitch": 59, "duration": 10, "velocity": 85}, {"time": 2432, "pitch": 64, "duration": 10, "velocity": 81}, {"time": 2438, "pitch": 47, "duration": 12, "velocity": 74}, {"time": 2444, "pitch": 55, "duration": 9, "velocity": 87}, {"time": 2444, "pitch": 59, "duration": 10, "velocity": 98}, {"time": 2444, "pitch": 64, "duration": 10, "velocity": 93}, {"time": 2450, "pitch": 52, "duration": 19, "velocity": 56}, {"time": 2456, "pitch": 47, "duration": 19, "velocity": 74}, {"time": 2456, "pitch": 55, "duration": 10, "velocity": 65}, {"time": 2456, "pitch": 59, "duration": 10, "velocity": 83}, {"time": 2456, "pitch": 64, "duration": 10, "velocity": 74}, {"time": 2468, "pitch": 55, "duration": 7, "velocity": 69}, {"time": 2468, "pitch": 59, "duration": 6, "velocity": 104}, {"time": 2468, "pitch": 64, "duration": 6, "velocity": 87}, {"time": 2474, "pitch": 52, "duration": 6, "velocity": 60}, {"time": 2480, "pitch": 45, "duration": 24, "velocity": 63}, {"time": 2480, "pitch": 60, "duration": 10, "velocity": 85}, {"time": 2480, "pitch": 64, "duration": 10, "velocity": 90}, {"time": 2480, "pitch": 69, "duration": 10, "velocity": 77}, {"time": 2486, "pitch": 52, "duration": 18, "velocity": 67}, {"time": 2492, "pitch": 60, "duration": 10, "velocity": 86}, {"time": 2492, "pitch": 64, "duration": 10, "velocity": 98}, {"time": 2492, "pitch": 69, "duration": 10, "velocity": 87}, {"time": 2498, "pitch": 57, "duration": 7, "velocity": 58}, {"time": 2504, "pitch": 43, "duration": 20, "velocity": 85}, {"time": 2504, "pitch": 60, "duration": 9, "velocity": 67}, {"time": 2504, "pitch": 64, "duration": 9, "velocity": 76}, {"time": 2504, "pitch": 69, "duration": 9, "velocity": 76}, {"time": 2516, "pitch": 60, "duration": 8, "velocity": 87}, {"time": 2516, "pitch": 64, "duration": 8, "velocity": 100}, {"time": 2516, "pitch": 69, "duration": 8, "velocity": 93}, {"time": 2528, "pitch": 41, "duration": 18, "velocity": 85}, {"time": 2528, "pitch": 57, "duration": 10, "velocity": 63}, {"time": 2528, "pitch": 60, "duration": 10, "velocity": 71}, {"time": 2528, "pitch": 65, "duration": 10, "velocity": 62}, {"time": 2540, "pitch": 57, "duration": 6, "velocity": 79}, {"time": 2540, "pitch": 60, "duration": 6, "velocity": 90}, {"time": 2540, "pitch": 65, "duration": 6, "velocity": 90}, {"time": 2552, "pitch": 38, "duration": 18, "velocity": 74}, {"time": 2552, "pitch": 54, "duration": 10, "velocity": 81}, {"time": 2552, "pitch": 57, "duration": 10, "velocity": 81}, {"time": 2552, "pitch": 62, "duration": 9, "velocity": 83}, {"time": 2564, "pitch": 54, "duration": 6, "velocity": 90}, {"time": 2564, "pitch": 57, "duration": 6, "velocity": 85}, {"time": 2564, "pitch": 62, "duration": 6, "velocity": 79}, {"time": 2576, "pitch": 43, "duration": 43, "velocity": 74}, {"time": 2576, "pitch": 59, "duration": 9, "velocity": 81}, {"time": 2576, "pitch": 62, "duration": 10, "velocity": 85}, {"time": 2576, "pitch": 67, "duration": 10, "velocity": 87}, {"time": 2582, "pitch": 50, "duration": 37, "velocity": 75}, {"time": 2588, "pitch": 59, "duration": 10, "velocity": 79}, {"time": 2588, "pitch": 62, "duration": 10, "velocity": 87}, {"time": 2588, "pitch": 67, "duration": 10, "velocity": 90}, {"time": 2594, "pitch": 55, "duration": 11, "velocity": 62}, {"time": 2600, "pitch": 59, "duration": 10, "velocity": 79}, {"time": 2600, "pitch": 62, "duration": 10, "velocity": 81}, {"time": 2600, "pitch": 67, "duration": 10, "velocity": 79}, {"time": 2612, "pitch": 55, "duration": 7, "velocity": 70}, {"time": 2612, "pitch": 59, "duration": 8, "velocity": 83}, {"time": 2612, "pitch": 62, "duration": 8, "velocity": 86}, {"time": 2612, "pitch": 67, "duration": 8, "velocity": 86}, {"time": 2624, "pitch": 48, "duration": 41, "velocity": 85}, {"time": 2624, "pitch": 64, "duration": 10, "velocity": 90}, {"time": 2624, "pitch": 67, "duration": 10, "velocity": 81}, {"time": 2630, "pitch": 55, "duration": 32, "velocity": 65}, {"time": 2636, "pitch": 64, "duration": 10, "velocity": 75}, {"time": 2636, "pitch": 67, "duration": 10, "velocity": 79}, {"time": 2642, "pitch": 60, "duration": 6, "velocity": 54}, {"time": 2648, "pitch": 64, "duration": 11, "velocity": 71}, {"time": 2648, "pitch": 67, "duration": 11, "velocity": 77}, {"time": 2648, "pitch": 72, "duration": 10, "velocity": 76}, {"time": 2654, "pitch": 60, "duration": 5, "velocity": 58}, {"time": 2660, "pitch": 64, "duration": 5, "velocity": 77}, {"time": 2660, "pitch": 67, "duration": 5, "velocity": 93}, {"time": 2660, "pitch": 72, "duration": 5, "velocity": 83}, {"time": 2672, "pitch": 41, "duration": 34, "velocity": 79}, {"time": 2672, "pitch": 57, "duration": 10, "velocity": 67}, {"time": 2672, "pitch": 60, "duration": 10, "velocity": 73}, {"time": 2672, "pitch": 65, "duration": 10, "velocity": 85}, {"time": 2678, "pitch": 48, "duration": 27, "velocity": 70}, {"time": 2684, "pitch": 57, "duration": 11, "velocity": 72}, {"time": 2684, "pitch": 60, "duration": 11, "velocity": 83}, {"time": 2684, "pitch": 65, "duration": 10, "velocity": 87}, {"time": 2690, "pitch": 53, "duration": 6, "velocity": 51}, {"time": 2696, "pitch": 57, "duration": 7, "velocity": 72}, {"time": 2696, "pitch": 60, "duration": 9, "velocity": 83}, {"time": 2696, "pitch": 65, "duration": 10, "velocity": 86}, {"time": 2708, "pitch": 40, "duration": 7, "velocity": 68}, {"time": 2708, "pitch": 55, "duration": 7, "velocity": 77}, {"time": 2708, "pitch": 59, "duration": 7, "velocity": 86}, {"time": 2720, "pitch": 38, "duration": 42, "velocity": 86}, {"time": 2720, "pitch": 53, "duration": 10, "velocity": 71}, {"time": 2720, "pitch": 57, "duration": 11, "velocity": 75}, {"time": 2720, "pitch": 62, "duration": 11, "velocity": 77}, {"time": 2726, "pitch": 45, "duration": 36, "velocity": 64}, {"time": 2732, "pitch": 53, "duration": 10, "velocity": 70}, {"time": 2732, "pitch": 57, "duration": 10, "velocity": 77}, {"time": 2732, "pitch": 62, "duration": 10, "velocity": 74}, {"time": 2738, "pitch": 50, "duration": 7, "velocity": 59}, {"time": 2744, "pitch": 53, "duration": 11, "velocity": 69}, {"time": 2744, "pitch": 57, "duration": 11, "velocity": 74}, {"time": 2744, "pitch": 62, "duration": 11, "velocity": 70}, {"time": 2750, "pitch": 50, "duration": 6, "velocity": 60}, {"time": 2756, "pitch": 53, "duration": 6, "velocity": 81}, {"time": 2756, "pitch": 57, "duration": 6, "velocity": 87}, {"time": 2756, "pitch": 62, "duration": 6, "velocity": 95}, {"time": 2762, "pitch": 50, "duration": 6, "velocity": 60}, {"time": 2768, "pitch": 43, "duration": 43, "velocity": 63}, {"time": 2768, "pitch": 59, "duration": 10, "velocity": 75}, {"time": 2768, "pitch": 62, "duration": 10, "velocity": 81}, {"time": 2768, "pitch": 67, "duration": 10, "velocity": 83}, {"time": 2774, "pitch": 50, "duration": 35, "velocity": 70}, {"time": 2780, "pitch": 59, "duration": 10, "velocity": 93}, {"time": 2780, "pitch": 62, "duration": 10, "velocity": 93}, {"time": 2780, "pitch": 67, "duration": 10, "velocity": 98}, {"time": 2786, "pitch": 55, "duration": 7, "velocity": 53}, {"time": 2792, "pitch": 59, "duration": 10, "velocity": 85}, {"time": 2792, "pitch": 62, "duration": 10, "velocity": 90}, {"time": 2792, "pitch": 67, "duration": 10, "velocity": 98}, {"time": 2798, "pitch": 55, "duration": 6, "velocity": 58}, {"time": 2804, "pitch": 59, "duration": 6, "velocity": 93}, {"time": 2804, "pitch": 62, "duration": 6, "velocity": 98}, {"time": 2804, "pitch": 67, "duration": 6, "velocity": 104}, {"time": 2816, "pitch": 40, "duration": 43, "velocity": 77}, {"time": 2816, "pitch": 55, "duration": 10, "velocity": 79}, {"time": 2816, "pitch": 59, "duration": 10, "velocity": 85}, {"time": 2816, "pitch": 64, "duration": 10, "velocity": 81}, {"time": 2822, "pitch": 47, "duration": 37, "velocity": 74}, {"time": 2828, "pitch": 55, "duration": 9, "velocity": 87}, {"time": 2828, "pitch": 59, "duration": 10, "velocity": 98}, {"time": 2828, "pitch": 64, "duration": 10, "velocity": 93}, {"time": 2834, "pitch": 52, "duration": 19, "velocity": 56}, {"time": 2840, "pitch": 44, "duration": 19, "velocity": 74}, {"time": 2840, "pitch": 56, "duration": 10, "velocity": 65}, {"time": 2840, "pitch": 59, "duration": 10, "velocity": 83}, {"time": 2840, "pitch": 64, "duration": 10, "velocity": 74}, {"time": 2852, "pitch": 56, "duration": 7, "velocity": 111}, {"time": 2852, "pitch": 59, "duration": 6, "velocity": 104}, {"time": 2852, "pitch": 64, "duration": 6, "velocity": 87}, {"time": 2858, "pitch": 52, "duration": 6, "velocity": 60}, {"time": 2864, "pitch": 45, "duration": 24, "velocity": 63}, {"time": 2864, "pitch": 60, "duration": 10, "velocity": 85}, {"time": 2864, "pitch": 64, "duration": 10, "velocity": 90}, {"time": 2864, "pitch": 69, "duration": 10, "velocity": 77}, {"time": 2870, "pitch": 52, "duration": 18, "velocity": 67}, {"time": 2876, "pitch": 60, "duration": 10, "velocity": 86}, {"time": 2876, "pitch": 64, "duration": 10, "velocity": 98}, {"time": 2876, "pitch": 69, "duration": 10, "velocity": 87}, {"time": 2882, "pitch": 57, "duration": 7, "velocity": 58}, {"time": 2888, "pitch": 42, "duration": 21, "velocity": 68}, {"time": 2888, "pitch": 48, "duration": 20, "velocity": 93}, {"time": 2888, "pitch": 52, "duration": 20, "velocity": 49}, {"time": 2888, "pitch": 57, "duration": 1, "velocity": 69}, {"time": 2888, "pitch": 60, "duration": 19, "velocity": 81}, {"time": 2912, "pitch": 41, "duration": 18, "velocity": 85}, {"time": 2912, "pitch": 57, "duration": 10, "velocity": 63}, {"time": 2912, "pitch": 60, "duration": 10, "velocity": 71}, {"time": 2912, "pitch": 65, "duration": 10, "velocity": 62}, {"time": 2924, "pitch": 57, "duration": 6, "velocity": 79}, {"time": 2924, "pitch": 60, "duration": 6, "velocity": 90}, {"time": 2924, "pitch": 65, "duration": 6, "velocity": 90}, {"time": 2936, "pitch": 47, "duration": 23, "velocity": 90}, {"time": 2936, "pitch": 59, "duration": 11, "velocity": 72}, {"time": 2936, "pitch": 62, "duration": 11, "velocity": 74}, {"time": 2936, "pitch": 67, "duration": 11, "velocity": 76}, {"time": 2948, "pitch": 59, "duration": 10, "velocity": 69}, {"time": 2948, "pitch": 62, "duration": 10, "velocity": 75}, {"time": 2948, "pitch": 67, "duration": 10, "velocity": 79}, {"time": 2960, "pitch": 60, "duration": 4, "velocity": 68}, {"time": 2960, "pitch": 64, "duration": 5, "velocity": 68}, {"time": 2960, "pitch": 67, "duration": 5, "velocity": 68}, {"time": 2960, "pitch": 48, "duration": 23, "velocity": 68}, {"time": 2966, "pitch": 55, "duration": 40, "velocity": 75}, {"time": 2966, "pitch": 60, "duration": 3, "velocity": 75}, {"time": 2966, "pitch": 64, "duration": 4, "velocity": 75}, {"time": 2966, "pitch": 67, "duration": 4, "velocity": 75}, {"time": 2972, "pitch": 64, "duration": 4, "velocity": 82}, {"time": 2972, "pitch": 67, "duration": 4, "velocity": 83}, {"time": 2972, "pitch": 72, "duration": 4, "velocity": 83}, {"time": 2978, "pitch": 60, "duration": 7, "velocity": 92}, {"time": 2978, "pitch": 64, "duration": 2, "velocity": 91}, {"time": 2978, "pitch": 67, "duration": 3, "velocity": 91}, {"time": 2978, "pitch": 72, "duration": 3, "velocity": 91}, {"time": 2984, "pitch": 48, "duration": 3, "velocity": 96}, {"time": 2984, "pitch": 67, "duration": 3, "velocity": 97}, {"time": 2984, "pitch": 72, "duration": 4, "velocity": 98}, {"time": 2984, "pitch": 76, "duration": 3, "velocity": 98}, {"time": 2990, "pitch": 48, "duration": 3, "velocity": 101}, {"time": 2990, "pitch": 60, "duration": 7, "velocity": 107}, {"time": 2990, "pitch": 67, "duration": 2, "velocity": 106}, {"time": 2990, "pitch": 72, "duration": 2, "velocity": 106}, {"time": 2990, "pitch": 76, "duration": 3, "velocity": 106}, {"time": 2996, "pitch": 48, "duration": 3, "velocity": 109}, {"time": 2996, "pitch": 67, "duration": 3, "velocity": 100}, {"time": 2996, "pitch": 72, "duration": 3, "velocity": 112}, {"time": 2996, "pitch": 76, "duration": 3, "velocity": 112}, {"time": 2996, "pitch": 79, "duration": 3, "velocity": 112}, {"time": 3002, "pitch": 48, "duration": 3, "velocity": 113}, {"time": 3002, "pitch": 60, "duration": 3, "velocity": 61}, {"time": 3002, "pitch": 67, "duration": 3, "velocity": 100}, {"time": 3002, "pitch": 72, "duration": 4, "velocity": 119}, {"time": 3002, "pitch": 76, "duration": 4, "velocity": 121}, {"time": 3002, "pitch": 79, "duration": 4, "velocity": 121}, {"time": 3008, "pitch": 41, "duration": 3, "velocity": 97}, {"time": 3008, "pitch": 60, "duration": 22, "velocity": 87}, {"time": 3008, "pitch": 65, "duration": 21, "velocity": 63}, {"time": 3008, "pitch": 68, "duration": 10, "velocity": 70}, {"time": 3008, "pitch": 72, "duration": 9, "velocity": 75}, {"time": 3011, "pitch": 53, "duration": 16, "velocity": 69}, {"time": 3020, "pitch": 68, "duration": 9, "velocity": 98}, {"time": 3020, "pitch": 72, "duration": 8, "velocity": 75}, {"time": 3026, "pitch": 46, "duration": 25, "velocity": 58}, {"time": 3026, "pitch": 62, "duration": 13, "velocity": 70}, {"time": 3026, "pitch": 70, "duration": 13, "velocity": 75}, {"time": 3029, "pitch": 53, "duration": 20, "velocity": 76}, {"time": 3029, "pitch": 58, "duration": 18, "velocity": 62}, {"time": 3044, "pitch": 62, "duration": 8, "velocity": 76}, {"time": 3044, "pitch": 70, "duration": 7, "velocity": 79}, {"time": 3056, "pitch": 36, "duration": 18, "velocity": 97}, {"time": 3059, "pitch": 48, "duration": 41, "velocity": 95}, {"time": 3062, "pitch": 55, "duration": 37, "velocity": 62}, {"time": 3068, "pitch": 64, "duration": 25, "velocity": 75}, {"time": 3068, "pitch": 67, "duration": 21, "velocity": 85}, {"time": 3074, "pitch": 36, "duration": 3, "velocity": 97}, {"time": 3074, "pitch": 60, "duration": 5, "velocity": 57}, {"time": 3077, "pitch": 36, "duration": 3, "velocity": 97}, {"time": 3077, "pitch": 72, "duration": 11, "velocity": 81}, {"time": 3086, "pitch": 60, "duration": 7, "velocity": 59}, {"time": 3089, "pitch": 36, "duration": 3, "velocity": 97}, {"time": 3095, "pitch": 36, "duration": 3, "velocity": 97}, {"time": 3095, "pitch": 67, "duration": 4, "velocity": 67}, {"time": 3098, "pitch": 36, "duration": 3, "velocity": 97}, {"time": 3098, "pitch": 64, "duration": 4, "velocity": 79}, {"time": 3101, "pitch": 48, "duration": 3, "velocity": 97}, {"time": 3104, "pitch": 41, "duration": 24, "velocity": 98}, {"time": 3104, "pitch": 48, "duration": 24, "velocity": 58}, {"time": 3104, "pitch": 60, "duration": 9, "velocity": 81}, {"time": 3107, "pitch": 53, "duration": 3, "velocity": 97}, {"time": 3110, "pitch": 53, "duration": 12, "velocity": 60}, {"time": 3116, "pitch": 60, "duration": 10, "velocity": 77}, {"time": 3128, "pitch": 34, "duration": 3, "velocity": 97}, {"time": 3128, "pitch": 53, "duration": 10, "velocity": 75}, {"time": 3128, "pitch": 58, "duration": 11, "velocity": 59}, {"time": 3128, "pitch": 62, "duration": 10, "velocity": 74}, {"time": 3128, "pitch": 65, "duration": 10, "velocity": 79}, {"time": 3131, "pitch": 46, "duration": 8, "velocity": 59}, {"time": 3140, "pitch": 46, "duration": 9, "velocity": 60}, {"time": 3140, "pitch": 53, "duration": 8, "velocity": 60}, {"time": 3140, "pitch": 58, "duration": 9, "velocity": 52}, {"time": 3140, "pitch": 62, "duration": 9, "velocity": 69}, {"time": 3140, "pitch": 65, "duration": 9, "velocity": 100}, {"time": 3152, "pitch": 36, "duration": 3, "velocity": 97}, {"time": 3152, "pitch": 48, "duration": 6, "velocity": 70}, {"time": 3152, "pitch": 64, "duration": 10, "velocity": 67}, {"time": 3152, "pitch": 67, "duration": 11, "velocity": 74}, {"time": 3158, "pitch": 36, "duration": 3, "velocity": 97}, {"time": 3158, "pitch": 48, "duration": 3, "velocity": 97}, {"time": 3158, "pitch": 55, "duration": 39, "velocity": 67}, {"time": 3164, "pitch": 36, "duration": 3, "velocity": 97}, {"time": 3164, "pitch": 48, "duration": 3, "velocity": 97}, {"time": 3164, "pitch": 64, "duration": 10, "velocity": 74}, {"time": 3164, "pitch": 67, "duration": 11, "velocity": 76}, {"time": 3170, "pitch": 36, "duration": 3, "velocity": 97}, {"time": 3170, "pitch": 48, "duration": 3, "velocity": 97}, {"time": 3170, "pitch": 60, "duration": 6, "velocity": 51}, {"time": 3176, "pitch": 36, "duration": 3, "velocity": 97}, {"time": 3176, "pitch": 48, "duration": 3, "velocity": 97}, {"time": 3176, "pitch": 64, "duration": 8, "velocity": 63}, {"time": 3176, "pitch": 67, "duration": 11, "velocity": 63}, {"time": 3176, "pitch": 72, "duration": 8, "velocity": 76}, {"time": 3182, "pitch": 36, "duration": 3, "velocity": 97}, {"time": 3182, "pitch": 48, "duration": 3, "velocity": 97}, {"time": 3182, "pitch": 60, "duration": 6, "velocity": 64}, {"time": 3188, "pitch": 36, "duration": 3, "velocity": 97}, {"time": 3188, "pitch": 64, "duration": 9, "velocity": 70}, {"time": 3188, "pitch": 67, "duration": 9, "velocity": 79}, {"time": 3191, "pitch": 48, "duration": 3, "velocity": 97}, {"time": 3194, "pitch": 36, "duration": 3, "velocity": 97}, {"time": 3194, "pitch": 60, "duration": 3, "velocity": 60}, {"time": 3197, "pitch": 48, "duration": 3, "velocity": 97}, {"time": 3200, "pitch": 41, "duration": 23, "velocity": 71}, {"time": 3200, "pitch": 48, "duration": 23, "velocity": 104}, {"time": 3200, "pitch": 56, "duration": 11, "velocity": 74}, {"time": 3200, "pitch": 60, "duration": 11, "velocity": 83}, {"time": 3200, "pitch": 65, "duration": 5, "velocity": 14}, {"time": 3203, "pitch": 53, "duration": 8, "velocity": 60}, {"time": 3212, "pitch": 53, "duration": 10, "velocity": 67}, {"time": 3212, "pitch": 56, "duration": 10, "velocity": 77}, {"time": 3212, "pitch": 60, "duration": 10, "velocity": 87}, {"time": 3212, "pitch": 65, "duration": 9, "velocity": 83}, {"time": 3224, "pitch": 46, "duration": 19, "velocity": 47}, {"time": 3224, "pitch": 53, "duration": 11, "velocity": 74}, {"time": 3224, "pitch": 62, "duration": 11, "velocity": 68}, {"time": 3224, "pitch": 65, "duration": 11, "velocity": 87}, {"time": 3227, "pitch": 58, "duration": 7, "velocity": 56}, {"time": 3236, "pitch": 53, "duration": 6, "velocity": 74}, {"time": 3236, "pitch": 58, "duration": 6, "velocity": 74}, {"time": 3236, "pitch": 62, "duration": 8, "velocity": 75}, {"time": 3236, "pitch": 65, "duration": 7, "velocity": 90}, {"time": 3248, "pitch": 43, "duration": 19, "velocity": 58}, {"time": 3248, "pitch": 50, "duration": 20, "velocity": 87}, {"time": 3248, "pitch": 55, "duration": 12, "velocity": 61}, {"time": 3248, "pitch": 58, "duration": 10, "velocity": 62}, {"time": 3248, "pitch": 62, "duration": 10, "velocity": 77}, {"time": 3260, "pitch": 58, "duration": 7, "velocity": 108}, {"time": 3260, "pitch": 62, "duration": 7, "velocity": 86}, {"time": 3266, "pitch": 55, "duration": 5, "velocity": 61}, {"time": 3272, "pitch": 48, "duration": 20, "velocity": 74}, {"time": 3272, "pitch": 63, "duration": 10, "velocity": 73}, {"time": 3272, "pitch": 67, "duration": 11, "velocity": 93}, {"time": 3278, "pitch": 55, "duration": 12, "velocity": 66}, {"time": 3284, "pitch": 63, "duration": 7, "velocity": 104}, {"time": 3284, "pitch": 67, "duration": 6, "velocity": 108}, {"time": 3296, "pitch": 44, "duration": 4, "velocity": 83}, {"time": 3296, "pitch": 56, "duration": 13, "velocity": 83}, {"time": 3296, "pitch": 60, "duration": 9, "velocity": 83}, {"time": 3296, "pitch": 63, "duration": 10, "velocity": 83}, {"time": 3302, "pitch": 44, "duration": 4, "velocity": 83}, {"time": 3302, "pitch": 51, "duration": 16, "velocity": 83}, {"time": 3308, "pitch": 44, "duration": 3, "velocity": 83}, {"time": 3308, "pitch": 60, "duration": 10, "velocity": 83}, {"time": 3308, "pitch": 63, "duration": 10, "velocity": 83}, {"time": 3314, "pitch": 44, "duration": 4, "velocity": 83}, {"time": 3314, "pitch": 56, "duration": 6, "velocity": 80}, {"time": 3320, "pitch": 41, "duration": 4, "velocity": 78}, {"time": 3320, "pitch": 56, "duration": 10, "velocity": 78}, {"time": 3320, "pitch": 60, "duration": 10, "velocity": 78}, {"time": 3326, "pitch": 41, "duration": 4, "velocity": 78}, {"time": 3326, "pitch": 48, "duration": 18, "velocity": 78}, {"time": 3329, "pitch": 53, "duration": 4, "velocity": 78}, {"time": 3332, "pitch": 41, "duration": 4, "velocity": 78}, {"time": 3332, "pitch": 56, "duration": 7, "velocity": 78}, {"time": 3332, "pitch": 60, "duration": 6, "velocity": 78}, {"time": 3338, "pitch": 41, "duration": 4, "velocity": 76}, {"time": 3338, "pitch": 53, "duration": 5, "velocity": 74}, {"time": 3344, "pitch": 43, "duration": 3, "velocity": 74}, {"time": 3344, "pitch": 59, "duration": 10, "velocity": 74}, {"time": 3344, "pitch": 62, "duration": 10, "velocity": 74}, {"time": 3350, "pitch": 43, "duration": 4, "velocity": 74}, {"time": 3350, "pitch": 50, "duration": 42, "velocity": 74}, {"time": 3356, "pitch": 43, "duration": 4, "velocity": 74}, {"time": 3356, "pitch": 59, "duration": 10, "velocity": 74}, {"time": 3356, "pitch": 62, "duration": 10, "velocity": 74}, {"time": 3362, "pitch": 43, "duration": 3, "velocity": 74}, {"time": 3362, "pitch": 55, "duration": 8, "velocity": 74}, {"time": 3368, "pitch": 47, "duration": 3, "velocity": 74}, {"time": 3368, "pitch": 59, "duration": 10, "velocity": 74}, {"time": 3368, "pitch": 62, "duration": 10, "velocity": 74}, {"time": 3368, "pitch": 67, "duration": 9, "velocity": 74}, {"time": 3374, "pitch": 47, "duration": 4, "velocity": 74}, {"time": 3374, "pitch": 55, "duration": 6, "velocity": 76}, {"time": 3380, "pitch": 59, "duration": 9, "velocity": 76}, {"time": 3380, "pitch": 62, "duration": 9, "velocity": 76}, {"time": 3380, "pitch": 67, "duration": 9, "velocity": 76}, {"time": 3380, "pitch": 47, "duration": 3, "velocity": 73}, {"time": 3386, "pitch": 55, "duration": 5, "velocity": 81}, {"time": 3386, "pitch": 47, "duration": 5, "velocity": 81}, {"time": 3392, "pitch": 43, "duration": 4, "velocity": 59}, {"time": 3392, "pitch": 50, "duration": 1, "velocity": 79}, {"time": 3392, "pitch": 55, "duration": 2, "velocity": 54}, {"time": 3392, "pitch": 59, "duration": 2, "velocity": 69}, {"time": 3392, "pitch": 62, "duration": 2, "velocity": 72}, {"time": 3392, "pitch": 67, "duration": 1, "velocity": 71}, {"time": 3398, "pitch": 43, "duration": 2, "velocity": 61}, {"time": 3398, "pitch": 50, "duration": 2, "velocity": 73}, {"time": 3398, "pitch": 55, "duration": 2, "velocity": 56}, {"time": 3398, "pitch": 59, "duration": 1, "velocity": 67}, {"time": 3398, "pitch": 62, "duration": 1, "velocity": 71}, {"time": 3398, "pitch": 67, "duration": 1, "velocity": 68}, {"time": 3404, "pitch": 43, "duration": 2, "velocity": 64}, {"time": 3404, "pitch": 50, "duration": 1, "velocity": 72}, {"time": 3404, "pitch": 59, "duration": 2, "velocity": 68}, {"time": 3404, "pitch": 62, "duration": 1, "velocity": 74}, {"time": 3404, "pitch": 67, "duration": 1, "velocity": 68}, {"time": 3404, "pitch": 71, "duration": 2, "velocity": 58}, {"time": 3410, "pitch": 43, "duration": 2, "velocity": 67}, {"time": 3410, "pitch": 50, "duration": 1, "velocity": 77}, {"time": 3410, "pitch": 59, "duration": 2, "velocity": 63}, {"time": 3410, "pitch": 62, "duration": 1, "velocity": 66}, {"time": 3410, "pitch": 67, "duration": 1, "velocity": 66}, {"time": 3410, "pitch": 71, "duration": 2, "velocity": 67}, {"time": 3416, "pitch": 43, "duration": 2, "velocity": 74}, {"time": 3416, "pitch": 50, "duration": 1, "velocity": 65}, {"time": 3416, "pitch": 59, "duration": 2, "velocity": 60}, {"time": 3416, "pitch": 62, "duration": 2, "velocity": 64}, {"time": 3416, "pitch": 67, "duration": 1, "velocity": 64}, {"time": 3416, "pitch": 71, "duration": 2, "velocity": 67}, {"time": 3416, "pitch": 74, "duration": 3, "velocity": 97}, {"time": 3422, "pitch": 43, "duration": 2, "velocity": 70}, {"time": 3422, "pitch": 50, "duration": 1, "velocity": 76}, {"time": 3422, "pitch": 59, "duration": 2, "velocity": 63}, {"time": 3422, "pitch": 62, "duration": 2, "velocity": 67}, {"time": 3422, "pitch": 67, "duration": 1, "velocity": 65}, {"time": 3422, "pitch": 71, "duration": 2, "velocity": 69}, {"time": 3422, "pitch": 74, "duration": 3, "velocity": 97}, {"time": 3428, "pitch": 43, "duration": 2, "velocity": 79}, {"time": 3428, "pitch": 50, "duration": 1, "velocity": 86}, {"time": 3428, "pitch": 59, "duration": 1, "velocity": 65}, {"time": 3428, "pitch": 62, "duration": 1, "velocity": 69}, {"time": 3428, "pitch": 67, "duration": 1, "velocity": 67}, {"time": 3428, "pitch": 71, "duration": 1, "velocity": 76}, {"time": 3428, "pitch": 74, "duration": 3, "velocity": 97}, {"time": 3428, "pitch": 79, "duration": 3, "velocity": 97}, {"time": 3434, "pitch": 43, "duration": 1, "velocity": 70}, {"time": 3434, "pitch": 50, "duration": 1, "velocity": 85}, {"time": 3434, "pitch": 55, "duration": 1, "velocity": 71}, {"time": 3434, "pitch": 59, "duration": 1, "velocity": 71}, {"time": 3434, "pitch": 62, "duration": 1, "velocity": 79}, {"time": 3434, "pitch": 67, "duration": 1, "velocity": 74}, {"time": 3434, "pitch": 74, "duration": 3, "velocity": 97}, {"time": 3434, "pitch": 79, "duration": 3, "velocity": 97}, {"time": 3437, "pitch": 43, "duration": 1, "velocity": 72}, {"time": 3437, "pitch": 50, "duration": 1, "velocity": 90}, {"time": 3437, "pitch": 55, "duration": 1, "velocity": 64}, {"time": 3437, "pitch": 59, "duration": 1, "velocity": 67}, {"time": 3437, "pitch": 62, "duration": 1, "velocity": 76}, {"time": 3437, "pitch": 67, "duration": 1, "velocity": 76}, {"time": 3440, "pitch": 48, "duration": 2, "velocity": 108}, {"time": 3440, "pitch": 64, "duration": 3, "velocity": 98}, {"time": 3440, "pitch": 67, "duration": 3, "velocity": 90}, {"time": 3440, "pitch": 72, "duration": 3, "velocity": 83}, {"time": 3455, "pitch": 48, "duration": 5, "velocity": 117}, {"time": 3455, "pitch": 64, "duration": 4, "velocity": 104}, {"time": 3461, "pitch": 50, "duration": 4, "velocity": 112}, {"time": 3461, "pitch": 65, "duration": 2, "velocity": 95}, {"time": 3464, "pitch": 52, "duration": 4, "velocity": 108}, {"time": 3464, "pitch": 72, "duration": 4, "velocity": 104}, {"time": 3464, "pitch": 67, "duration": 4, "velocity": 121}, {"time": 3464, "pitch": 71, "duration": 4, "velocity": 108}, {"time": 3488, "pitch": 41, "duration": 30, "velocity": 77}, {"time": 3488, "pitch": 57, "duration": 11, "velocity": 67}, {"time": 3488, "pitch": 60, "duration": 9, "velocity": 68}, {"time": 3488, "pitch": 65, "duration": 11, "velocity": 69}, {"time": 3494, "pitch": 48, "duration": 26, "velocity": 77}, {"time": 3500, "pitch": 57, "duration": 10, "velocity": 83}, {"time": 3500, "pitch": 60, "duration": 10, "velocity": 90}, {"time": 3500, "pitch": 65, "duration": 10, "velocity": 87}, {"time": 3506, "pitch": 53, "duration": 7, "velocity": 59}, {"time": 3512, "pitch": 57, "duration": 6, "velocity": 76}, {"time": 3512, "pitch": 60, "duration": 6, "velocity": 87}, {"time": 3512, "pitch": 65, "duration": 6, "velocity": 87}, {"time": 3524, "pitch": 40, "duration": 8, "velocity": 66}, {"time": 3524, "pitch": 55, "duration": 7, "velocity": 74}, {"time": 3524, "pitch": 60, "duration": 7, "velocity": 85}, {"time": 3536, "pitch": 38, "duration": 42, "velocity": 77}, {"time": 3536, "pitch": 53, "duration": 10, "velocity": 72}, {"time": 3536, "pitch": 57, "duration": 10, "velocity": 69}, {"time": 3536, "pitch": 62, "duration": 10, "velocity": 73}, {"time": 3542, "pitch": 45, "duration": 36, "velocity": 70}, {"time": 3548, "pitch": 53, "duration": 10, "velocity": 86}, {"time": 3548, "pitch": 57, "duration": 10, "velocity": 87}, {"time": 3548, "pitch": 62, "duration": 10, "velocity": 83}, {"time": 3554, "pitch": 50, "duration": 8, "velocity": 59}, {"time": 3560, "pitch": 53, "duration": 10, "velocity": 83}, {"time": 3560, "pitch": 57, "duration": 10, "velocity": 87}, {"time": 3560, "pitch": 62, "duration": 10, "velocity": 90}, {"time": 3566, "pitch": 50, "duration": 5, "velocity": 66}, {"time": 3572, "pitch": 53, "duration": 6, "velocity": 90}, {"time": 3572, "pitch": 57, "duration": 6, "velocity": 93}, {"time": 3572, "pitch": 62, "duration": 6, "velocity": 93}, {"time": 3578, "pitch": 50, "duration": 5, "velocity": 67}, {"time": 3584, "pitch": 43, "duration": 43, "velocity": 48}, {"time": 3584, "pitch": 59, "duration": 10, "velocity": 83}, {"time": 3584, "pitch": 62, "duration": 10, "velocity": 72}, {"time": 3584, "pitch": 67, "duration": 10, "velocity": 76}, {"time": 3590, "pitch": 50, "duration": 36, "velocity": 67}, {"time": 3596, "pitch": 59, "duration": 10, "velocity": 95}, {"time": 3596, "pitch": 62, "duration": 10, "velocity": 93}, {"time": 3596, "pitch": 67, "duration": 10, "velocity": 93}, {"time": 3602, "pitch": 55, "duration": 7, "velocity": 54}, {"time": 3608, "pitch": 59, "duration": 10, "velocity": 90}, {"time": 3608, "pitch": 62, "duration": 10, "velocity": 93}, {"time": 3608, "pitch": 67, "duration": 10, "velocity": 95}, {"time": 3614, "pitch": 55, "duration": 7, "velocity": 59}, {"time": 3620, "pitch": 59, "duration": 6, "velocity": 90}, {"time": 3620, "pitch": 62, "duration": 6, "velocity": 95}, {"time": 3620, "pitch": 67, "duration": 6, "velocity": 98}, {"time": 3632, "pitch": 40, "duration": 42, "velocity": 67}, {"time": 3632, "pitch": 55, "duration": 10, "velocity": 69}, {"time": 3632, "pitch": 59, "duration": 10, "velocity": 71}, {"time": 3632, "pitch": 64, "duration": 10, "velocity": 79}, {"time": 3638, "pitch": 47, "duration": 37, "velocity": 68}, {"time": 3644, "pitch": 55, "duration": 10, "velocity": 77}, {"time": 3644, "pitch": 59, "duration": 10, "velocity": 86}, {"time": 3644, "pitch": 64, "duration": 10, "velocity": 85}, {"time": 3650, "pitch": 52, "duration": 6, "velocity": 58}, {"time": 3656, "pitch": 55, "duration": 10, "velocity": 86}, {"time": 3656, "pitch": 59, "duration": 10, "velocity": 95}, {"time": 3656, "pitch": 64, "duration": 10, "velocity": 93}, {"time": 3662, "pitch": 52, "duration": 5, "velocity": 58}, {"time": 3668, "pitch": 55, "duration": 6, "velocity": 100}, {"time": 3668, "pitch": 59, "duration": 6, "velocity": 104}, {"time": 3668, "pitch": 64, "duration": 6, "velocity": 100}, {"time": 3674, "pitch": 52, "duration": 5, "velocity": 59}, {"time": 3680, "pitch": 45, "duration": 21, "velocity": 75}, {"time": 3680, "pitch": 60, "duration": 10, "velocity": 76}, {"time": 3680, "pitch": 64, "duration": 10, "velocity": 85}, {"time": 3680, "pitch": 69, "duration": 10, "velocity": 83}, {"time": 3686, "pitch": 52, "duration": 18, "velocity": 62}, {"time": 3692, "pitch": 60, "duration": 10, "velocity": 79}, {"time": 3692, "pitch": 64, "duration": 10, "velocity": 90}, {"time": 3692, "pitch": 69, "duration": 10, "velocity": 85}, {"time": 3704, "pitch": 43, "duration": 19, "velocity": 85}, {"time": 3704, "pitch": 60, "duration": 9, "velocity": 69}, {"time": 3704, "pitch": 64, "duration": 10, "velocity": 72}, {"time": 3704, "pitch": 69, "duration": 10, "velocity": 76}, {"time": 3716, "pitch": 60, "duration": 7, "velocity": 86}, {"time": 3716, "pitch": 64, "duration": 7, "velocity": 95}, {"time": 3716, "pitch": 69, "duration": 7, "velocity": 87}, {"time": 3728, "pitch": 41, "duration": 18, "velocity": 83}, {"time": 3728, "pitch": 57, "duration": 10, "velocity": 77}, {"time": 3728, "pitch": 60, "duration": 11, "velocity": 79}, {"time": 3728, "pitch": 65, "duration": 11, "velocity": 87}, {"time": 3734, "pitch": 48, "duration": 10, "velocity": 81}, {"time": 3740, "pitch": 57, "duration": 5, "velocity": 90}, {"time": 3740, "pitch": 60, "duration": 5, "velocity": 90}, {"time": 3740, "pitch": 65, "duration": 5, "velocity": 98}, {"time": 3752, "pitch": 38, "duration": 17, "velocity": 95}, {"time": 3752, "pitch": 54, "duration": 10, "velocity": 95}, {"time": 3752, "pitch": 57, "duration": 10, "velocity": 90}, {"time": 3752, "pitch": 62, "duration": 10, "velocity": 86}, {"time": 3758, "pitch": 42, "duration": 11, "velocity": 72}, {"time": 3764, "pitch": 54, "duration": 6, "velocity": 120}, {"time": 3764, "pitch": 57, "duration": 6, "velocity": 104}, {"time": 3764, "pitch": 62, "duration": 6, "velocity": 98}, {"time": 3776, "pitch": 43, "duration": 42, "velocity": 75}, {"time": 3776, "pitch": 59, "duration": 3, "velocity": 71}, {"time": 3776, "pitch": 62, "duration": 3, "velocity": 74}, {"time": 3776, "pitch": 67, "duration": 3, "velocity": 75}, {"time": 3782, "pitch": 50, "duration": 36, "velocity": 63}, {"time": 3782, "pitch": 55, "duration": 13, "velocity": 58}, {"time": 3782, "pitch": 59, "duration": 3, "velocity": 74}, {"time": 3782, "pitch": 62, "duration": 3, "velocity": 81}, {"time": 3782, "pitch": 67, "duration": 3, "velocity": 81}, {"time": 3788, "pitch": 59, "duration": 2, "velocity": 77}, {"time": 3788, "pitch": 62, "duration": 2, "velocity": 87}, {"time": 3788, "pitch": 67, "duration": 2, "velocity": 90}, {"time": 3794, "pitch": 59, "duration": 3, "velocity": 76}, {"time": 3794, "pitch": 62, "duration": 4, "velocity": 85}, {"time": 3794, "pitch": 67, "duration": 3, "velocity": 86}, {"time": 3800, "pitch": 55, "duration": 12, "velocity": 72}, {"time": 3800, "pitch": 59, "duration": 10, "velocity": 100}, {"time": 3800, "pitch": 62, "duration": 10, "velocity": 100}, {"time": 3800, "pitch": 67, "duration": 10, "velocity": 100}, {"time": 3812, "pitch": 59, "duration": 6, "velocity": 93}, {"time": 3812, "pitch": 62, "duration": 6, "velocity": 95}, {"time": 3812, "pitch": 67, "duration": 6, "velocity": 104}, {"time": 3818, "pitch": 55, "duration": 5, "velocity": 67}, {"time": 3824, "pitch": 48, "duration": 41, "velocity": 69}, {"time": 3824, "pitch": 64, "duration": 10, "velocity": 85}, {"time": 3824, "pitch": 67, "duration": 10, "velocity": 87}, {"time": 3824, "pitch": 72, "duration": 10, "velocity": 76}, {"time": 3830, "pitch": 55, "duration": 33, "velocity": 67}, {"time": 3836, "pitch": 64, "duration": 10, "velocity": 104}, {"time": 3836, "pitch": 67, "duration": 10, "velocity": 104}, {"time": 3836, "pitch": 72, "duration": 10, "velocity": 93}, {"time": 3842, "pitch": 60, "duration": 9, "velocity": 53}, {"time": 3848, "pitch": 64, "duration": 10, "velocity": 90}, {"time": 3848, "pitch": 67, "duration": 10, "velocity": 98}, {"time": 3848, "pitch": 72, "duration": 10, "velocity": 90}, {"time": 3854, "pitch": 60, "duration": 6, "velocity": 60}, {"time": 3860, "pitch": 64, "duration": 5, "velocity": 93}, {"time": 3860, "pitch": 67, "duration": 5, "velocity": 98}, {"time": 3860, "pitch": 72, "duration": 5, "velocity": 90}, {"time": 3872, "pitch": 41, "duration": 35, "velocity": 79}, {"time": 3872, "pitch": 57, "duration": 10, "velocity": 81}, {"time": 3872, "pitch": 60, "duration": 10, "velocity": 90}, {"time": 3872, "pitch": 65, "duration": 10, "velocity": 100}, {"time": 3878, "pitch": 48, "duration": 28, "velocity": 71}, {"time": 3884, "pitch": 57, "duration": 10, "velocity": 83}, {"time": 3884, "pitch": 60, "duration": 10, "velocity": 87}, {"time": 3884, "pitch": 65, "duration": 10, "velocity": 95}, {"time": 3890, "pitch": 53, "duration": 6, "velocity": 59}, {"time": 3896, "pitch": 57, "duration": 9, "velocity": 83}, {"time": 3896, "pitch": 60, "duration": 9, "velocity": 87}, {"time": 3896, "pitch": 65, "duration": 9, "velocity": 98}, {"time": 3908, "pitch": 40, "duration": 7, "velocity": 72}, {"time": 3908, "pitch": 55, "duration": 7, "velocity": 90}, {"time": 3908, "pitch": 59, "duration": 7, "velocity": 90}, {"time": 3908, "pitch": 64, "duration": 5, "velocity": 79}, {"time": 3920, "pitch": 38, "duration": 43, "velocity": 81}, {"time": 3920, "pitch": 53, "duration": 10, "velocity": 87}, {"time": 3920, "pitch": 57, "duration": 11, "velocity": 93}, {"time": 3920, "pitch": 62, "duration": 10, "velocity": 93}, {"time": 3926, "pitch": 45, "duration": 38, "velocity": 65}, {"time": 3932, "pitch": 53, "duration": 10, "velocity": 85}, {"time": 3932, "pitch": 57, "duration": 10, "velocity": 90}, {"time": 3932, "pitch": 62, "duration": 10, "velocity": 95}, {"time": 3938, "pitch": 50, "duration": 7, "velocity": 56}, {"time": 3944, "pitch": 53, "duration": 10, "velocity": 85}, {"time": 3944, "pitch": 57, "duration": 10, "velocity": 90}, {"time": 3944, "pitch": 62, "duration": 10, "velocity": 86}, {"time": 3950, "pitch": 50, "duration": 6, "velocity": 62}, {"time": 3956, "pitch": 53, "duration": 7, "velocity": 93}, {"time": 3956, "pitch": 57, "duration": 7, "velocity": 93}, {"time": 3956, "pitch": 62, "duration": 7, "velocity": 100}, {"time": 3962, "pitch": 50, "duration": 5, "velocity": 59}, {"time": 3968, "pitch": 43, "duration": 43, "velocity": 76}, {"time": 3968, "pitch": 59, "duration": 11, "velocity": 87}, {"time": 3968, "pitch": 62, "duration": 11, "velocity": 93}, {"time": 3968, "pitch": 67, "duration": 11, "velocity": 83}, {"time": 3974, "pitch": 50, "duration": 35, "velocity": 68}, {"time": 3980, "pitch": 59, "duration": 10, "velocity": 87}, {"time": 3980, "pitch": 62, "duration": 10, "velocity": 95}, {"time": 3980, "pitch": 67, "duration": 10, "velocity": 98}, {"time": 3986, "pitch": 55, "duration": 7, "velocity": 58}, {"time": 3992, "pitch": 59, "duration": 10, "velocity": 95}, {"time": 3992, "pitch": 62, "duration": 10, "velocity": 93}, {"time": 3992, "pitch": 67, "duration": 10, "velocity": 95}, {"time": 3998, "pitch": 55, "duration": 6, "velocity": 59}, {"time": 4004, "pitch": 59, "duration": 6, "velocity": 98}, {"time": 4004, "pitch": 62, "duration": 6, "velocity": 93}, {"time": 4004, "pitch": 67, "duration": 6, "velocity": 100}, {"time": 4016, "pitch": 40, "duration": 42, "velocity": 52}, {"time": 4016, "pitch": 44, "duration": 42, "velocity": 65}, {"time": 4016, "pitch": 47, "duration": 42, "velocity": 76}, {"time": 4016, "pitch": 52, "duration": 25, "velocity": 64}, {"time": 4016, "pitch": 56, "duration": 10, "velocity": 73}, {"time": 4016, "pitch": 59, "duration": 10, "velocity": 90}, {"time": 4016, "pitch": 64, "duration": 9, "velocity": 71}, {"time": 4028, "pitch": 56, "duration": 10, "velocity": 100}, {"time": 4028, "pitch": 59, "duration": 10, "velocity": 108}, {"time": 4028, "pitch": 64, "duration": 9, "velocity": 77}, {"time": 4040, "pitch": 56, "duration": 10, "velocity": 98}, {"time": 4040, "pitch": 59, "duration": 10, "velocity": 98}, {"time": 4040, "pitch": 64, "duration": 9, "velocity": 85}, {"time": 4046, "pitch": 52, "duration": 7, "velocity": 58}, {"time": 4052, "pitch": 56, "duration": 6, "velocity": 112}, {"time": 4052, "pitch": 59, "duration": 5, "velocity": 104}, {"time": 4052, "pitch": 64, "duration": 5, "velocity": 83}, {"time": 4058, "pitch": 52, "duration": 6, "velocity": 62}, {"time": 4064, "pitch": 45, "duration": 22, "velocity": 81}, {"time": 4064, "pitch": 60, "duration": 10, "velocity": 76}, {"time": 4064, "pitch": 64, "duration": 11, "velocity": 87}, {"time": 4064, "pitch": 69, "duration": 10, "velocity": 74}, {"time": 4064, "pitch": 69, "duration": 10, "velocity": 83}, {"time": 4064, "pitch": 71, "duration": 3, "velocity": 77}, {"time": 4076, "pitch": 60, "duration": 10, "velocity": 75}, {"time": 4076, "pitch": 64, "duration": 10, "velocity": 86}, {"time": 4076, "pitch": 69, "duration": 9, "velocity": 85}, {"time": 4076, "pitch": 69, "duration": 9, "velocity": 93}, {"time": 4088, "pitch": 42, "duration": 18, "velocity": 58}, {"time": 4088, "pitch": 48, "duration": 17, "velocity": 86}, {"time": 4088, "pitch": 52, "duration": 17, "velocity": 59}, {"time": 4088, "pitch": 57, "duration": 10, "velocity": 64}, {"time": 4088, "pitch": 60, "duration": 10, "velocity": 68}, {"time": 4100, "pitch": 57, "duration": 6, "velocity": 77}, {"time": 4100, "pitch": 60, "duration": 6, "velocity": 85}, {"time": 4112, "pitch": 41, "duration": 20, "velocity": 66}, {"time": 4112, "pitch": 57, "duration": 10, "velocity": 68}, {"time": 4112, "pitch": 60, "duration": 11, "velocity": 73}, {"time": 4112, "pitch": 65, "duration": 10, "velocity": 76}, {"time": 4118, "pitch": 48, "duration": 18, "velocity": 69}, {"time": 4124, "pitch": 57, "duration": 6, "velocity": 83}, {"time": 4124, "pitch": 60, "duration": 6, "velocity": 87}, {"time": 4124, "pitch": 65, "duration": 6, "velocity": 90}, {"time": 4136, "pitch": 43, "duration": 19, "velocity": 71}, {"time": 4136, "pitch": 59, "duration": 11, "velocity": 69}, {"time": 4136, "pitch": 62, "duration": 11, "velocity": 76}, {"time": 4136, "pitch": 67, "duration": 11, "velocity": 81}, {"time": 4142, "pitch": 50, "duration": 13, "velocity": 69}, {"time": 4148, "pitch": 59, "duration": 6, "velocity": 85}, {"time": 4148, "pitch": 62, "duration": 6, "velocity": 87}, {"time": 4148, "pitch": 67, "duration": 6, "velocity": 90}, {"time": 4154, "pitch": 55, "duration": 5, "velocity": 60}, {"time": 4160, "pitch": 48, "duration": 40, "velocity": 86}, {"time": 4160, "pitch": 64, "duration": 10, "velocity": 90}, {"time": 4160, "pitch": 67, "duration": 10, "velocity": 95}, {"time": 4160, "pitch": 72, "duration": 10, "velocity": 85}, {"time": 4166, "pitch": 55, "duration": 32, "velocity": 63}, {"time": 4172, "pitch": 64, "duration": 10, "velocity": 87}, {"time": 4172, "pitch": 67, "duration": 10, "velocity": 95}, {"time": 4172, "pitch": 72, "duration": 10, "velocity": 83}, {"time": 4178, "pitch": 60, "duration": 8, "velocity": 51}, {"time": 4184, "pitch": 64, "duration": 10, "velocity": 83}, {"time": 4184, "pitch": 67, "duration": 10, "velocity": 93}, {"time": 4184, "pitch": 72, "duration": 10, "velocity": 77}, {"time": 4196, "pitch": 64, "duration": 5, "velocity": 72}, {"time": 4196, "pitch": 67, "duration": 5, "velocity": 79}, {"time": 4196, "pitch": 72, "duration": 5, "velocity": 73}, {"time": 4208, "pitch": 41, "duration": 20, "velocity": 69}, {"time": 4208, "pitch": 57, "duration": 19, "velocity": 59}, {"time": 4208, "pitch": 60, "duration": 19, "velocity": 63}, {"time": 4208, "pitch": 65, "duration": 18, "velocity": 65}, {"time": 4217, "pitch": 48, "duration": 12, "velocity": 62}, {"time": 4220, "pitch": 53, "duration": 8, "velocity": 60}, {"time": 4232, "pitch": 43, "duration": 23, "velocity": 75}, {"time": 4232, "pitch": 59, "duration": 23, "velocity": 62}, {"time": 4232, "pitch": 62, "duration": 23, "velocity": 65}, {"time": 4232, "pitch": 67, "duration": 23, "velocity": 67}, {"time": 4255, "pitch": 48, "duration": 24, "velocity": 74}, {"time": 4256, "pitch": 64, "duration": 16, "velocity": 66}, {"time": 4256, "pitch": 67, "duration": 25, "velocity": 73}, {"time": 4262, "pitch": 55, "duration": 16, "velocity": 58}, {"time": 4268, "pitch": 60, "duration": 10, "velocity": 59}, {"time": 4274, "pitch": 64, "duration": 8, "velocity": 58}, {"time": 4281, "pitch": 45, "duration": 18, "velocity": 74}, {"time": 4287, "pitch": 52, "duration": 10, "velocity": 62}, {"time": 4293, "pitch": 60, "duration": 8, "velocity": 67}, {"time": 4293, "pitch": 64, "duration": 7, "velocity": 72}, {"time": 4306, "pitch": 41, "duration": 20, "velocity": 77}, {"time": 4306, "pitch": 57, "duration": 11, "velocity": 65}, {"time": 4306, "pitch": 60, "duration": 11, "velocity": 71}, {"time": 4313, "pitch": 48, "duration": 18, "velocity": 74}, {"time": 4319, "pitch": 57, "duration": 7, "velocity": 74}, {"time": 4319, "pitch": 60, "duration": 7, "velocity": 75}, {"time": 4326, "pitch": 53, "duration": 5, "velocity": 58}, {"time": 4331, "pitch": 59, "duration": 12, "velocity": 71}, {"time": 4331, "pitch": 62, "duration": 12, "velocity": 70}, {"time": 4331, "pitch": 43, "duration": 38, "velocity": 69}, {"time": 4338, "pitch": 50, "duration": 31, "velocity": 68}, {"time": 4345, "pitch": 59, "duration": 25, "velocity": 74}, {"time": 4345, "pitch": 62, "duration": 25, "velocity": 72}, {"time": 4354, "pitch": 55, "duration": 16, "velocity": 59}, {"time": 4379, "pitch": 48, "duration": 61, "velocity": 81}, {"time": 4379, "pitch": 64, "duration": 27, "velocity": 52}, {"time": 4383, "pitch": 55, "duration": 57, "velocity": 60}, {"time": 4387, "pitch": 60, "duration": 6, "velocity": 57}, {"time": 4391, "pitch": 67, "duration": 18, "velocity": 63}, {"time": 4396, "pitch": 60, "duration": 5, "velocity": 60}, {"time": 4400, "pitch": 72, "duration": 7, "velocity": 60}, {"time": 4405, "pitch": 60, "duration": 35, "velocity": 58}, {"time": 4417, "pitch": 79, "duration": 3, "velocity": 59}, {"time": 4420, "pitch": 84, "duration": 13, "velocity": 10}], "annotations": [{"time": 0, "annotation": {"number": 64, "value": 76}, "group": "control_change"}, {"time": 12, "annotation": {"number": 64, "value": 79}, "group": "control_change"}, {"time": 24, "annotation": {"number": 64, "value": 85}, "group": "control_change"}, {"time": 32, "annotation": {"number": 64, "value": 85}, "group": "control_change"}, {"time": 32, "annotation": {"number": 64, "value": 0}, "group": "control_change"}, {"time": 36, "annotation": {"number": 64, "value": 127}, "group": "control_change"}, {"time": 56, "annotation": {"number": 64, "value": 71}, "group": "control_change"}, {"time": 57, "annotation": {"number": 64, "value": 0}, "group": "control_change"}, {"time": 60, "annotation": {"number": 64, "value": 71}, "group": "control_change"}, {"time": 60, "annotation": {"number": 64, "value": 127}, "group": "control_change"}, {"time": 80, "annotation": {"number": 64, "value": 71}, "group": "control_change"}, {"time": 80, "annotation": {"number": 64, "value": 0}, "group": "control_change"}, {"time": 83, "annotation": {"number": 64, "value": 71}, "group": "control_change"}, {"time": 83, "annotation": {"number": 64, "value": 127}, "group": "control_change"}, {"time": 104, "annotation": {"number": 64, "value": 71}, "group": "control_change"}, {"time": 104, "annotation": {"number": 64, "value": 0}, "group": "control_change"}, {"time": 107, "annotation": {"number": 64, "value": 71}, "group": "control_change"}, {"time": 108, "annotation": {"number": 64, "value": 127}, "group": "control_change"}, {"time": 129, "annotation": {"number": 64, "value": 71}, "group": "control_change"}, {"time": 129, "annotation": {"number": 64, "value": 0}, "group": "control_change"}, {"time": 132, "annotation": {"number": 64, "value": 71}, "group": "control_change"}, {"time": 133, "annotation": {"number": 64, "value": 127}, "group": "control_change"}, {"time": 152, "annotation": {"number": 64, "value": 71}, "group": "control_change"}, {"time": 153, "annotation": {"number": 64, "value": 0}, "group": "control_change"}, {"time": 155, "annotation": {"number": 64, "value": 71}, "group": "control_change"}, {"time": 155, "annotation": {"number": 64, "value": 127}, "group": "control_change"}, {"time": 176, "annotation": {"number": 64, "value": 71}, "group": "control_change"}, {"time": 176, "annotation": {"number": 64, "value": 0}, "group": "control_change"}, {"time": 179, "annotation": {"number": 64, "value": 71}, "group": "control_change"}, {"time": 180, "annotation": {"number": 64, "value": 127}, "group": "control_change"}, {"time": 200, "annotation": {"number": 64, "value": 71}, "group": "control_change"}, {"time": 201, "annotation": {"number": 64, "value": 0}, "group": "control_change"}, {"time": 203, "annotation": {"number": 64, "value": 71}, "group": "control_change"}, {"time": 204, "annotation": {"number": 64, "value": 127}, "group": "control_change"}, {"time": 224, "annotation": {"number": 64, "value": 71}, "group": "control_change"}, {"time": 224, "annotation": {"number": 64, "value": 0}, "group": "control_change"}, {"time": 227, "annotation": {"number": 64, "value": 71}, "group": "control_change"}, {"time": 228, "annotation": {"number": 64, "value": 127}, "group": "control_change"}, {"time": 248, "annotation": {"number": 64, "value": 71}, "group": "control_change"}, {"time": 248, "annotation": {"number": 64, "value": 0}, "group": "control_change"}, {"time": 251, "annotation": {"number": 64, "value": 71}, "group": "control_change"}, {"time": 251, "annotation": {"number": 64, "value": 127}, "group": "control_change"}, {"time": 271, "annotation": {"number": 64, "value": 71}, "group": "control_change"}, {"time": 272, "annotation": {"number": 64, "value": 0}, "group": "control_change"}, {"time": 275, "annotation": {"number": 64, "value": 71}, "group": "control_change"}, {"time": 276, "annotation": {"number": 64, "value": 127}, "group": "control_change"}, {"time": 296, "annotation": {"number": 64, "value": 71}, "group": "control_change"}, {"time": 296, "annotation": {"number": 64, "value": 0}, "group": "control_change"}, {"time": 299, "annotation": {"number": 64, "value": 71}, "group": "control_change"}, {"time": 299, "annotation": {"number": 64, "value": 127}, "group": "control_change"}, {"time": 319, "annotation": {"number": 64, "value": 71}, "group": "control_change"}, {"time": 320, "annotation": {"number": 64, "value": 0}, "group": "control_change"}, {"time": 322, "annotation": {"number": 64, "value": 71}, "group": "control_change"}, {"time": 322, "annotation": {"number": 64, "value": 127}, "group": "control_change"}, {"time": 344, "annotation": {"number": 64, "value": 71}, "group": "control_change"}, {"time": 344, "annotation": {"number": 64, "value": 0}, "group": "control_change"}, {"time": 346, "annotation": {"number": 64, "value": 71}, "group": "control_change"}, {"time": 347, "annotation": {"number": 64, "value": 127}, "group": "control_change"}, {"time": 368, "annotation": {"number": 64, "value": 71}, "group": "control_change"}, {"time": 368, "annotation": {"number": 64, "value": 0}, "group": "control_change"}, {"time": 371, "annotation": {"number": 64, "value": 71}, "group": "control_change"}, {"time": 372, "annotation": {"number": 64, "value": 127}, "group": "control_change"}, {"time": 391, "annotation": {"number": 64, "value": 71}, "group": "control_change"}, {"time": 391, "annotation": {"number": 64, "value": 0}, "group": "control_change"}, {"time": 394, "annotation": {"number": 64, "value": 71}, "group": "control_change"}, {"time": 395, "annotation": {"number": 64, "value": 127}, "group": "control_change"}, {"time": 415, "annotation": {"number": 64, "value": 71}, "group": "control_change"}, {"time": 415, "annotation": {"number": 64, "value": 0}, "group": "control_change"}, {"time": 418, "annotation": {"number": 64, "value": 71}, "group": "control_change"}, {"time": 419, "annotation": {"number": 64, "value": 127}, "group": "control_change"}, {"time": 439, "annotation": {"number": 64, "value": 71}, "group": "control_change"}, {"time": 440, "annotation": {"number": 64, "value": 0}, "group": "control_change"}, {"time": 443, "annotation": {"number": 64, "value": 71}, "group": "control_change"}, {"time": 443, "annotation": {"number": 64, "value": 127}, "group": "control_change"}, {"time": 463, "annotation": {"number": 64, "value": 71}, "group": "control_change"}, {"time": 464, "annotation": {"number": 64, "value": 0}, "group": "control_change"}, {"time": 466, "annotation": {"number": 64, "value": 71}, "group": "control_change"}, {"time": 468, "annotation": {"number": 64, "value": 119}, "group": "control_change"}, {"time": 488, "annotation": {"number": 64, "value": 0}, "group": "control_change"}, {"time": 492, "annotation": {"number": 64, "value": 72}, "group": "control_change"}, {"time": 512, "annotation": {"number": 64, "value": 71}, "group": "control_change"}, {"time": 513, "annotation": {"number": 64, "value": 0}, "group": "control_change"}, {"time": 516, "annotation": {"number": 64, "value": 71}, "group": "control_change"}, {"time": 516, "annotation": {"number": 64, "value": 127}, "group": "control_change"}, {"time": 536, "annotation": {"number": 64, "value": 71}, "group": "control_change"}, {"time": 536, "annotation": {"number": 64, "value": 0}, "group": "control_change"}, {"time": 539, "annotation": {"number": 64, "value": 71}, "group": "control_change"}, {"time": 539, "annotation": {"number": 64, "value": 127}, "group": "control_change"}, {"time": 560, "annotation": {"number": 64, "value": 71}, "group": "control_change"}, {"time": 560, "annotation": {"number": 64, "value": 0}, "group": "control_change"}, {"time": 563, "annotation": {"number": 64, "value": 71}, "group": "control_change"}, {"time": 564, "annotation": {"number": 64, "value": 127}, "group": "control_change"}, {"time": 585, "annotation": {"number": 64, "value": 71}, "group": "control_change"}, {"time": 585, "annotation": {"number": 64, "value": 0}, "group": "control_change"}, {"time": 588, "annotation": {"number": 64, "value": 71}, "group": "control_change"}, {"time": 588, "annotation": {"number": 64, "value": 127}, "group": "control_change"}, {"time": 608, "annotation": {"number": 64, "value": 71}, "group": "control_change"}, {"time": 608, "annotation": {"number": 64, "value": 0}, "group": "control_change"}, {"time": 611, "annotation": {"number": 64, "value": 71}, "group": "control_change"}, {"time": 611, "annotation": {"number": 64, "value": 127}, "group": "control_change"}, {"time": 632, "annotation": {"number": 64, "value": 71}, "group": "control_change"}, {"time": 632, "annotation": {"number": 64, "value": 0}, "group": "control_change"}, {"time": 635, "annotation": {"number": 64, "value": 71}, "group": "control_change"}, {"time": 635, "annotation": {"number": 64, "value": 127}, "group": "control_change"}, {"time": 656, "annotation": {"number": 64, "value": 71}, "group": "control_change"}, {"time": 656, "annotation": {"number": 64, "value": 0}, "group": "control_change"}, {"time": 659, "annotation": {"number": 64, "value": 71}, "group": "control_change"}, {"time": 660, "annotation": {"number": 64, "value": 127}, "group": "control_change"}, {"time": 680, "annotation": {"number": 64, "value": 71}, "group": "control_change"}, {"time": 680, "annotation": {"number": 64, "value": 0}, "group": "control_change"}, {"time": 683, "annotation": {"number": 64, "value": 71}, "group": "control_change"}, {"time": 683, "annotation": {"number": 64, "value": 127}, "group": "control_change"}, {"time": 704, "annotation": {"number": 64, "value": 71}, "group": "control_change"}, {"time": 704, "annotation": {"number": 64, "value": 0}, "group": "control_change"}, {"time": 707, "annotation": {"number": 64, "value": 71}, "group": "control_change"}, {"time": 707, "annotation": {"number": 64, "value": 127}, "group": "control_change"}, {"time": 727, "annotation": {"number": 64, "value": 71}, "group": "control_change"}, {"time": 727, "annotation": {"number": 64, "value": 0}, "group": "control_change"}, {"time": 731, "annotation": {"number": 64, "value": 71}, "group": "control_change"}, {"time": 731, "annotation": {"number": 64, "value": 127}, "group": "control_change"}, {"time": 751, "annotation": {"number": 64, "value": 71}, "group": "control_change"}, {"time": 752, "annotation": {"number": 64, "value": 0}, "group": "control_change"}, {"time": 754, "annotation": {"number": 64, "value": 71}, "group": "control_change"}, {"time": 755, "annotation": {"number": 64, "value": 127}, "group": "control_change"}, {"time": 775, "annotation": {"number": 64, "value": 71}, "group": "control_change"}, {"time": 775, "annotation": {"number": 64, "value": 0}, "group": "control_change"}, {"time": 778, "annotation": {"number": 64, "value": 71}, "group": "control_change"}, {"time": 778, "annotation": {"number": 64, "value": 127}, "group": "control_change"}, {"time": 799, "annotation": {"number": 64, "value": 71}, "group": "control_change"}, {"time": 800, "annotation": {"number": 64, "value": 0}, "group": "control_change"}, {"time": 802, "annotation": {"number": 64, "value": 71}, "group": "control_change"}, {"time": 802, "annotation": {"number": 64, "value": 127}, "group": "control_change"}, {"time": 824, "annotation": {"number": 64, "value": 71}, "group": "control_change"}, {"time": 824, "annotation": {"number": 64, "value": 0}, "group": "control_change"}, {"time": 827, "annotation": {"number": 64, "value": 71}, "group": "control_change"}, {"time": 827, "annotation": {"number": 64, "value": 127}, "group": "control_change"}, {"time": 846, "annotation": {"number": 64, "value": 71}, "group": "control_change"}, {"time": 847, "annotation": {"number": 64, "value": 0}, "group": "control_change"}, {"time": 850, "annotation": {"number": 64, "value": 71}, "group": "control_change"}, {"time": 851, "annotation": {"number": 64, "value": 127}, "group": "control_change"}, {"time": 871, "annotation": {"number": 64, "value": 71}, "group": "control_change"}, {"time": 871, "annotation": {"number": 64, "value": 0}, "group": "control_change"}, {"time": 874, "annotation": {"number": 64, "value": 71}, "group": "control_change"}, {"time": 875, "annotation": {"number": 64, "value": 127}, "group": "control_change"}, {"time": 895, "annotation": {"number": 64, "value": 71}, "group": "control_change"}, {"time": 896, "annotation": {"number": 64, "value": 0}, "group": "control_change"}, {"time": 899, "annotation": {"number": 64, "value": 71}, "group": "control_change"}, {"time": 899, "annotation": {"number": 64, "value": 127}, "group": "control_change"}, {"time": 919, "annotation": {"number": 64, "value": 71}, "group": "control_change"}, {"time": 919, "annotation": {"number": 64, "value": 0}, "group": "control_change"}, {"time": 922, "annotation": {"number": 64, "value": 71}, "group": "control_change"}, {"time": 922, "annotation": {"number": 64, "value": 127}, "group": "control_change"}, {"time": 942, "annotation": {"number": 64, "value": 71}, "group": "control_change"}, {"time": 942, "annotation": {"number": 64, "value": 0}, "group": "control_change"}, {"time": 950, "annotation": {"number": 64, "value": 124}, "group": "control_change"}, {"time": 995, "annotation": {"number": 64, "value": 127}, "group": "control_change"}, {"time": 1016, "annotation": {"number": 64, "value": 71}, "group": "control_change"}, {"time": 1016, "annotation": {"number": 64, "value": 0}, "group": "control_change"}, {"time": 1018, "annotation": {"number": 64, "value": 71}, "group": "control_change"}, {"time": 1018, "annotation": {"number": 64, "value": 127}, "group": "control_change"}, {"time": 1064, "annotation": {"number": 64, "value": 71}, "group": "control_change"}, {"time": 1064, "annotation": {"number": 64, "value": 0}, "group": "control_change"}, {"time": 1067, "annotation": {"number": 64, "value": 71}, "group": "control_change"}, {"time": 1067, "annotation": {"number": 64, "value": 127}, "group": "control_change"}, {"time": 1100, "annotation": {"number": 64, "value": 0}, "group": "control_change"}, {"time": 1102, "annotation": {"number": 64, "value": 123}, "group": "control_change"}, {"time": 1112, "annotation": {"number": 64, "value": 71}, "group": "control_change"}, {"time": 1112, "annotation": {"number": 64, "value": 0}, "group": "control_change"}, {"time": 1114, "annotation": {"number": 64, "value": 71}, "group": "control_change"}, {"time": 1115, "annotation": {"number": 64, "value": 127}, "group": "control_change"}, {"time": 1160, "annotation": {"number": 64, "value": 71}, "group": "control_change"}, {"time": 1160, "annotation": {"number": 64, "value": 0}, "group": "control_change"}, {"time": 1163, "annotation": {"number": 64, "value": 71}, "group": "control_change"}, {"time": 1163, "annotation": {"number": 64, "value": 127}, "group": "control_change"}, {"time": 1207, "annotation": {"number": 64, "value": 71}, "group": "control_change"}, {"time": 1208, "annotation": {"number": 64, "value": 0}, "group": "control_change"}, {"time": 1210, "annotation": {"number": 64, "value": 71}, "group": "control_change"}, {"time": 1210, "annotation": {"number": 64, "value": 127}, "group": "control_change"}, {"time": 1231, "annotation": {"number": 64, "value": 71}, "group": "control_change"}, {"time": 1231, "annotation": {"number": 64, "value": 0}, "group": "control_change"}, {"time": 1234, "annotation": {"number": 64, "value": 71}, "group": "control_change"}, {"time": 1234, "annotation": {"number": 64, "value": 127}, "group": "control_change"}, {"time": 1255, "annotation": {"number": 64, "value": 71}, "group": "control_change"}, {"time": 1255, "annotation": {"number": 64, "value": 0}, "group": "control_change"}, {"time": 1258, "annotation": {"number": 64, "value": 71}, "group": "control_change"}, {"time": 1258, "annotation": {"number": 64, "value": 127}, "group": "control_change"}, {"time": 1279, "annotation": {"number": 64, "value": 71}, "group": "control_change"}, {"time": 1279, "annotation": {"number": 64, "value": 0}, "group": "control_change"}, {"time": 1281, "annotation": {"number": 64, "value": 71}, "group": "control_change"}, {"time": 1282, "annotation": {"number": 64, "value": 127}, "group": "control_change"}, {"time": 1303, "annotation": {"number": 64, "value": 71}, "group": "control_change"}, {"time": 1303, "annotation": {"number": 64, "value": 0}, "group": "control_change"}, {"time": 1306, "annotation": {"number": 64, "value": 71}, "group": "control_change"}, {"time": 1306, "annotation": {"number": 64, "value": 127}, "group": "control_change"}, {"time": 1328, "annotation": {"number": 64, "value": 0}, "group": "control_change"}, {"time": 1333, "annotation": {"number": 64, "value": 127}, "group": "control_change"}, {"time": 1352, "annotation": {"number": 64, "value": 71}, "group": "control_change"}, {"time": 1352, "annotation": {"number": 64, "value": 0}, "group": "control_change"}, {"time": 1354, "annotation": {"number": 64, "value": 71}, "group": "control_change"}, {"time": 1354, "annotation": {"number": 64, "value": 127}, "group": "control_change"}, {"time": 1399, "annotation": {"number": 64, "value": 71}, "group": "control_change"}, {"time": 1399, "annotation": {"number": 64, "value": 0}, "group": "control_change"}, {"time": 1402, "annotation": {"number": 64, "value": 71}, "group": "control_change"}, {"time": 1402, "annotation": {"number": 64, "value": 127}, "group": "control_change"}, {"time": 1447, "annotation": {"number": 64, "value": 71}, "group": "control_change"}, {"time": 1447, "annotation": {"number": 64, "value": 0}, "group": "control_change"}, {"time": 1450, "annotation": {"number": 64, "value": 71}, "group": "control_change"}, {"time": 1450, "annotation": {"number": 64, "value": 127}, "group": "control_change"}, {"time": 1484, "annotation": {"number": 64, "value": 0}, "group": "control_change"}, {"time": 1486, "annotation": {"number": 64, "value": 125}, "group": "control_change"}, {"time": 1495, "annotation": {"number": 64, "value": 71}, "group": "control_change"}, {"time": 1495, "annotation": {"number": 64, "value": 0}, "group": "control_change"}, {"time": 1498, "annotation": {"number": 64, "value": 71}, "group": "control_change"}, {"time": 1499, "annotation": {"number": 64, "value": 127}, "group": "control_change"}, {"time": 1542, "annotation": {"number": 64, "value": 71}, "group": "control_change"}, {"time": 1543, "annotation": {"number": 64, "value": 0}, "group": "control_change"}, {"time": 1545, "annotation": {"number": 64, "value": 71}, "group": "control_change"}, {"time": 1545, "annotation": {"number": 64, "value": 127}, "group": "control_change"}, {"time": 1566, "annotation": {"number": 64, "value": 71}, "group": "control_change"}, {"time": 1567, "annotation": {"number": 64, "value": 0}, "group": "control_change"}, {"time": 1569, "annotation": {"number": 64, "value": 71}, "group": "control_change"}, {"time": 1569, "annotation": {"number": 64, "value": 127}, "group": "control_change"}, {"time": 1590, "annotation": {"number": 64, "value": 71}, "group": "control_change"}, {"time": 1591, "annotation": {"number": 64, "value": 0}, "group": "control_change"}, {"time": 1593, "annotation": {"number": 64, "value": 71}, "group": "control_change"}, {"time": 1593, "annotation": {"number": 64, "value": 127}, "group": "control_change"}, {"time": 1614, "annotation": {"number": 64, "value": 71}, "group": "control_change"}, {"time": 1614, "annotation": {"number": 64, "value": 0}, "group": "control_change"}, {"time": 1617, "annotation": {"number": 64, "value": 71}, "group": "control_change"}, {"time": 1617, "annotation": {"number": 64, "value": 127}, "group": "control_change"}, {"time": 1638, "annotation": {"number": 64, "value": 71}, "group": "control_change"}, {"time": 1638, "annotation": {"number": 64, "value": 0}, "group": "control_change"}, {"time": 1641, "annotation": {"number": 64, "value": 71}, "group": "control_change"}, {"time": 1641, "annotation": {"number": 64, "value": 127}, "group": "control_change"}, {"time": 1663, "annotation": {"number": 64, "value": 0}, "group": "control_change"}, {"time": 1669, "annotation": {"number": 64, "value": 127}, "group": "control_change"}, {"time": 1687, "annotation": {"number": 64, "value": 71}, "group": "control_change"}, {"time": 1688, "annotation": {"number": 64, "value": 0}, "group": "control_change"}, {"time": 1690, "annotation": {"number": 64, "value": 71}, "group": "control_change"}, {"time": 1691, "annotation": {"number": 64, "value": 127}, "group": "control_change"}, {"time": 1712, "annotation": {"number": 64, "value": 0}, "group": "control_change"}, {"time": 1716, "annotation": {"number": 64, "value": 126}, "group": "control_change"}, {"time": 1734, "annotation": {"number": 64, "value": 71}, "group": "control_change"}, {"time": 1735, "annotation": {"number": 64, "value": 0}, "group": "control_change"}, {"time": 1738, "annotation": {"number": 64, "value": 71}, "group": "control_change"}, {"time": 1738, "annotation": {"number": 64, "value": 127}, "group": "control_change"}, {"time": 1784, "annotation": {"number": 64, "value": 71}, "group": "control_change"}, {"time": 1784, "annotation": {"number": 64, "value": 0}, "group": "control_change"}, {"time": 1786, "annotation": {"number": 64, "value": 71}, "group": "control_change"}, {"time": 1786, "annotation": {"number": 64, "value": 127}, "group": "control_change"}, {"time": 1808, "annotation": {"number": 64, "value": 71}, "group": "control_change"}, {"time": 1808, "annotation": {"number": 64, "value": 0}, "group": "control_change"}, {"time": 1810, "annotation": {"number": 64, "value": 71}, "group": "control_change"}, {"time": 1811, "annotation": {"number": 64, "value": 127}, "group": "control_change"}, {"time": 1833, "annotation": {"number": 64, "value": 71}, "group": "control_change"}, {"time": 1833, "annotation": {"number": 64, "value": 0}, "group": "control_change"}, {"time": 1835, "annotation": {"number": 64, "value": 71}, "group": "control_change"}, {"time": 1835, "annotation": {"number": 64, "value": 127}, "group": "control_change"}, {"time": 1859, "annotation": {"number": 64, "value": 71}, "group": "control_change"}, {"time": 1860, "annotation": {"number": 64, "value": 0}, "group": "control_change"}, {"time": 1862, "annotation": {"number": 64, "value": 71}, "group": "control_change"}, {"time": 1862, "annotation": {"number": 64, "value": 127}, "group": "control_change"}, {"time": 1880, "annotation": {"number": 64, "value": 71}, "group": "control_change"}, {"time": 1880, "annotation": {"number": 64, "value": 0}, "group": "control_change"}, {"time": 1882, "annotation": {"number": 64, "value": 71}, "group": "control_change"}, {"time": 1882, "annotation": {"number": 64, "value": 127}, "group": "control_change"}, {"time": 1904, "annotation": {"number": 64, "value": 71}, "group": "control_change"}, {"time": 1904, "annotation": {"number": 64, "value": 0}, "group": "control_change"}, {"time": 1907, "annotation": {"number": 64, "value": 71}, "group": "control_change"}, {"time": 1907, "annotation": {"number": 64, "value": 127}, "group": "control_change"}, {"time": 1928, "annotation": {"number": 64, "value": 71}, "group": "control_change"}, {"time": 1929, "annotation": {"number": 64, "value": 0}, "group": "control_change"}, {"time": 1931, "annotation": {"number": 64, "value": 71}, "group": "control_change"}, {"time": 1931, "annotation": {"number": 64, "value": 127}, "group": "control_change"}, {"time": 1952, "annotation": {"number": 64, "value": 71}, "group": "control_change"}, {"time": 1952, "annotation": {"number": 64, "value": 0}, "group": "control_change"}, {"time": 1954, "annotation": {"number": 64, "value": 71}, "group": "control_change"}, {"time": 1954, "annotation": {"number": 64, "value": 127}, "group": "control_change"}, {"time": 1977, "annotation": {"number": 64, "value": 71}, "group": "control_change"}, {"time": 1977, "annotation": {"number": 64, "value": 0}, "group": "control_change"}, {"time": 1979, "annotation": {"number": 64, "value": 71}, "group": "control_change"}, {"time": 1979, "annotation": {"number": 64, "value": 127}, "group": "control_change"}, {"time": 2001, "annotation": {"number": 64, "value": 71}, "group": "control_change"}, {"time": 2001, "annotation": {"number": 64, "value": 0}, "group": "control_change"}, {"time": 2003, "annotation": {"number": 64, "value": 71}, "group": "control_change"}, {"time": 2003, "annotation": {"number": 64, "value": 127}, "group": "control_change"}, {"time": 2024, "annotation": {"number": 64, "value": 71}, "group": "control_change"}, {"time": 2024, "annotation": {"number": 64, "value": 0}, "group": "control_change"}, {"time": 2026, "annotation": {"number": 64, "value": 71}, "group": "control_change"}, {"time": 2026, "annotation": {"number": 64, "value": 127}, "group": "control_change"}, {"time": 2048, "annotation": {"number": 64, "value": 71}, "group": "control_change"}, {"time": 2048, "annotation": {"number": 64, "value": 0}, "group": "control_change"}, {"time": 2050, "annotation": {"number": 64, "value": 71}, "group": "control_change"}, {"time": 2051, "annotation": {"number": 64, "value": 127}, "group": "control_change"}, {"time": 2072, "annotation": {"number": 64, "value": 71}, "group": "control_change"}, {"time": 2072, "annotation": {"number": 64, "value": 0}, "group": "control_change"}, {"time": 2073, "annotation": {"number": 64, "value": 71}, "group": "control_change"}, {"time": 2074, "annotation": {"number": 64, "value": 127}, "group": "control_change"}, {"time": 2084, "annotation": {"number": 64, "value": 71}, "group": "control_change"}, {"time": 2084, "annotation": {"number": 64, "value": 0}, "group": "control_change"}, {"time": 2086, "annotation": {"number": 64, "value": 71}, "group": "control_change"}, {"time": 2086, "annotation": {"number": 64, "value": 127}, "group": "control_change"}, {"time": 2096, "annotation": {"number": 64, "value": 71}, "group": "control_change"}, {"time": 2096, "annotation": {"number": 64, "value": 0}, "group": "control_change"}, {"time": 2098, "annotation": {"number": 64, "value": 71}, "group": "control_change"}, {"time": 2098, "annotation": {"number": 64, "value": 127}, "group": "control_change"}, {"time": 2108, "annotation": {"number": 64, "value": 71}, "group": "control_change"}, {"time": 2108, "annotation": {"number": 64, "value": 0}, "group": "control_change"}, {"time": 2111, "annotation": {"number": 64, "value": 71}, "group": "control_change"}, {"time": 2111, "annotation": {"number": 64, "value": 127}, "group": "control_change"}, {"time": 2120, "annotation": {"number": 64, "value": 71}, "group": "control_change"}, {"time": 2120, "annotation": {"number": 64, "value": 0}, "group": "control_change"}, {"time": 2122, "annotation": {"number": 64, "value": 71}, "group": "control_change"}, {"time": 2122, "annotation": {"number": 64, "value": 127}, "group": "control_change"}, {"time": 2145, "annotation": {"number": 64, "value": 71}, "group": "control_change"}, {"time": 2145, "annotation": {"number": 64, "value": 0}, "group": "control_change"}, {"time": 2148, "annotation": {"number": 64, "value": 71}, "group": "control_change"}, {"time": 2148, "annotation": {"number": 64, "value": 127}, "group": "control_change"}, {"time": 2167, "annotation": {"number": 64, "value": 71}, "group": "control_change"}, {"time": 2167, "annotation": {"number": 64, "value": 0}, "group": "control_change"}, {"time": 2170, "annotation": {"number": 64, "value": 71}, "group": "control_change"}, {"time": 2170, "annotation": {"number": 64, "value": 127}, "group": "control_change"}, {"time": 2193, "annotation": {"number": 64, "value": 71}, "group": "control_change"}, {"time": 2193, "annotation": {"number": 64, "value": 0}, "group": "control_change"}, {"time": 2195, "annotation": {"number": 64, "value": 71}, "group": "control_change"}, {"time": 2195, "annotation": {"number": 64, "value": 127}, "group": "control_change"}, {"time": 2240, "annotation": {"number": 64, "value": 71}, "group": "control_change"}, {"time": 2240, "annotation": {"number": 64, "value": 0}, "group": "control_change"}, {"time": 2242, "annotation": {"number": 64, "value": 71}, "group": "control_change"}, {"time": 2242, "annotation": {"number": 64, "value": 127}, "group": "control_change"}, {"time": 2289, "annotation": {"number": 64, "value": 71}, "group": "control_change"}, {"time": 2289, "annotation": {"number": 64, "value": 0}, "group": "control_change"}, {"time": 2291, "annotation": {"number": 64, "value": 71}, "group": "control_change"}, {"time": 2292, "annotation": {"number": 64, "value": 127}, "group": "control_change"}, {"time": 2323, "annotation": {"number": 64, "value": 71}, "group": "control_change"}, {"time": 2323, "annotation": {"number": 64, "value": 0}, "group": "control_change"}, {"time": 2325, "annotation": {"number": 64, "value": 71}, "group": "control_change"}, {"time": 2325, "annotation": {"number": 64, "value": 127}, "group": "control_change"}, {"time": 2335, "annotation": {"number": 64, "value": 71}, "group": "control_change"}, {"time": 2335, "annotation": {"number": 64, "value": 0}, "group": "control_change"}, {"time": 2337, "annotation": {"number": 64, "value": 71}, "group": "control_change"}, {"time": 2337, "annotation": {"number": 64, "value": 127}, "group": "control_change"}, {"time": 2384, "annotation": {"number": 64, "value": 71}, "group": "control_change"}, {"time": 2384, "annotation": {"number": 64, "value": 0}, "group": "control_change"}, {"time": 2386, "annotation": {"number": 64, "value": 71}, "group": "control_change"}, {"time": 2386, "annotation": {"number": 64, "value": 127}, "group": "control_change"}, {"time": 2432, "annotation": {"number": 64, "value": 71}, "group": "control_change"}, {"time": 2432, "annotation": {"number": 64, "value": 0}, "group": "control_change"}, {"time": 2434, "annotation": {"number": 64, "value": 71}, "group": "control_change"}, {"time": 2434, "annotation": {"number": 64, "value": 127}, "group": "control_change"}, {"time": 2481, "annotation": {"number": 64, "value": 71}, "group": "control_change"}, {"time": 2481, "annotation": {"number": 64, "value": 0}, "group": "control_change"}, {"time": 2483, "annotation": {"number": 64, "value": 71}, "group": "control_change"}, {"time": 2483, "annotation": {"number": 64, "value": 127}, "group": "control_change"}, {"time": 2504, "annotation": {"number": 64, "value": 71}, "group": "control_change"}, {"time": 2505, "annotation": {"number": 64, "value": 0}, "group": "control_change"}, {"time": 2507, "annotation": {"number": 64, "value": 71}, "group": "control_change"}, {"time": 2507, "annotation": {"number": 64, "value": 127}, "group": "control_change"}, {"time": 2528, "annotation": {"number": 64, "value": 71}, "group": "control_change"}, {"time": 2529, "annotation": {"number": 64, "value": 0}, "group": "control_change"}, {"time": 2531, "annotation": {"number": 64, "value": 71}, "group": "control_change"}, {"time": 2531, "annotation": {"number": 64, "value": 127}, "group": "control_change"}, {"time": 2552, "annotation": {"number": 64, "value": 71}, "group": "control_change"}, {"time": 2553, "annotation": {"number": 64, "value": 0}, "group": "control_change"}, {"time": 2555, "annotation": {"number": 64, "value": 71}, "group": "control_change"}, {"time": 2555, "annotation": {"number": 64, "value": 127}, "group": "control_change"}, {"time": 2577, "annotation": {"number": 64, "value": 71}, "group": "control_change"}, {"time": 2577, "annotation": {"number": 64, "value": 0}, "group": "control_change"}, {"time": 2579, "annotation": {"number": 64, "value": 71}, "group": "control_change"}, {"time": 2579, "annotation": {"number": 64, "value": 127}, "group": "control_change"}, {"time": 2624, "annotation": {"number": 64, "value": 71}, "group": "control_change"}, {"time": 2624, "annotation": {"number": 64, "value": 0}, "group": "control_change"}, {"time": 2626, "annotation": {"number": 64, "value": 71}, "group": "control_change"}, {"time": 2626, "annotation": {"number": 64, "value": 127}, "group": "control_change"}, {"time": 2673, "annotation": {"number": 64, "value": 71}, "group": "control_change"}, {"time": 2673, "annotation": {"number": 64, "value": 0}, "group": "control_change"}, {"time": 2675, "annotation": {"number": 64, "value": 71}, "group": "control_change"}, {"time": 2675, "annotation": {"number": 64, "value": 127}, "group": "control_change"}, {"time": 2709, "annotation": {"number": 64, "value": 71}, "group": "control_change"}, {"time": 2709, "annotation": {"number": 64, "value": 0}, "group": "control_change"}, {"time": 2711, "annotation": {"number": 64, "value": 71}, "group": "control_change"}, {"time": 2711, "annotation": {"number": 64, "value": 127}, "group": "control_change"}, {"time": 2719, "annotation": {"number": 64, "value": 71}, "group": "control_change"}, {"time": 2719, "annotation": {"number": 64, "value": 0}, "group": "control_change"}, {"time": 2721, "annotation": {"number": 64, "value": 71}, "group": "control_change"}, {"time": 2721, "annotation": {"number": 64, "value": 127}, "group": "control_change"}, {"time": 2768, "annotation": {"number": 64, "value": 71}, "group": "control_change"}, {"time": 2768, "annotation": {"number": 64, "value": 0}, "group": "control_change"}, {"time": 2770, "annotation": {"number": 64, "value": 71}, "group": "control_change"}, {"time": 2770, "annotation": {"number": 64, "value": 127}, "group": "control_change"}, {"time": 2816, "annotation": {"number": 64, "value": 71}, "group": "control_change"}, {"time": 2816, "annotation": {"number": 64, "value": 0}, "group": "control_change"}, {"time": 2818, "annotation": {"number": 64, "value": 71}, "group": "control_change"}, {"time": 2818, "annotation": {"number": 64, "value": 127}, "group": "control_change"}, {"time": 2864, "annotation": {"number": 64, "value": 71}, "group": "control_change"}, {"time": 2864, "annotation": {"number": 64, "value": 0}, "group": "control_change"}, {"time": 2866, "annotation": {"number": 64, "value": 71}, "group": "control_change"}, {"time": 2867, "annotation": {"number": 64, "value": 127}, "group": "control_change"}, {"time": 2887, "annotation": {"number": 64, "value": 71}, "group": "control_change"}, {"time": 2888, "annotation": {"number": 64, "value": 0}, "group": "control_change"}, {"time": 2890, "annotation": {"number": 64, "value": 71}, "group": "control_change"}, {"time": 2890, "annotation": {"number": 64, "value": 127}, "group": "control_change"}, {"time": 2913, "annotation": {"number": 64, "value": 71}, "group": "control_change"}, {"time": 2914, "annotation": {"number": 64, "value": 0}, "group": "control_change"}, {"time": 2915, "annotation": {"number": 64, "value": 71}, "group": "control_change"}, {"time": 2916, "annotation": {"number": 64, "value": 127}, "group": "control_change"}, {"time": 2936, "annotation": {"number": 64, "value": 71}, "group": "control_change"}, {"time": 2936, "annotation": {"number": 64, "value": 0}, "group": "control_change"}, {"time": 2939, "annotation": {"number": 64, "value": 71}, "group": "control_change"}, {"time": 2939, "annotation": {"number": 64, "value": 127}, "group": "control_change"}, {"time": 2961, "annotation": {"number": 64, "value": 71}, "group": "control_change"}, {"time": 2962, "annotation": {"number": 64, "value": 0}, "group": "control_change"}, {"time": 2963, "annotation": {"number": 64, "value": 71}, "group": "control_change"}, {"time": 2963, "annotation": {"number": 64, "value": 127}, "group": "control_change"}, {"time": 2984, "annotation": {"number": 64, "value": 0}, "group": "control_change"}, {"time": 2985, "annotation": {"number": 64, "value": 118}, "group": "control_change"}, {"time": 3005, "annotation": {"number": 64, "value": 0}, "group": "control_change"}, {"time": 3009, "annotation": {"number": 64, "value": 71}, "group": "control_change"}, {"time": 3009, "annotation": {"number": 64, "value": 127}, "group": "control_change"}, {"time": 3060, "annotation": {"number": 64, "value": 71}, "group": "control_change"}, {"time": 3060, "annotation": {"number": 64, "value": 0}, "group": "control_change"}, {"time": 3062, "annotation": {"number": 64, "value": 71}, "group": "control_change"}, {"time": 3062, "annotation": {"number": 64, "value": 127}, "group": "control_change"}, {"time": 3104, "annotation": {"number": 64, "value": 71}, "group": "control_change"}, {"time": 3104, "annotation": {"number": 64, "value": 0}, "group": "control_change"}, {"time": 3106, "annotation": {"number": 64, "value": 71}, "group": "control_change"}, {"time": 3106, "annotation": {"number": 64, "value": 127}, "group": "control_change"}, {"time": 3130, "annotation": {"number": 64, "value": 71}, "group": "control_change"}, {"time": 3130, "annotation": {"number": 64, "value": 0}, "group": "control_change"}, {"time": 3132, "annotation": {"number": 64, "value": 71}, "group": "control_change"}, {"time": 3132, "annotation": {"number": 64, "value": 127}, "group": "control_change"}, {"time": 3152, "annotation": {"number": 64, "value": 71}, "group": "control_change"}, {"time": 3152, "annotation": {"number": 64, "value": 0}, "group": "control_change"}, {"time": 3155, "annotation": {"number": 64, "value": 71}, "group": "control_change"}, {"time": 3155, "annotation": {"number": 64, "value": 127}, "group": "control_change"}, {"time": 3200, "annotation": {"number": 64, "value": 71}, "group": "control_change"}, {"time": 3201, "annotation": {"number": 64, "value": 0}, "group": "control_change"}, {"time": 3203, "annotation": {"number": 64, "value": 71}, "group": "control_change"}, {"time": 3203, "annotation": {"number": 64, "value": 127}, "group": "control_change"}, {"time": 3225, "annotation": {"number": 64, "value": 71}, "group": "control_change"}, {"time": 3225, "annotation": {"number": 64, "value": 0}, "group": "control_change"}, {"time": 3227, "annotation": {"number": 64, "value": 71}, "group": "control_change"}, {"time": 3227, "annotation": {"number": 64, "value": 127}, "group": "control_change"}, {"time": 3248, "annotation": {"number": 64, "value": 71}, "group": "control_change"}, {"time": 3248, "annotation": {"number": 64, "value": 0}, "group": "control_change"}, {"time": 3250, "annotation": {"number": 64, "value": 71}, "group": "control_change"}, {"time": 3250, "annotation": {"number": 64, "value": 127}, "group": "control_change"}, {"time": 3272, "annotation": {"number": 64, "value": 71}, "group": "control_change"}, {"time": 3273, "annotation": {"number": 64, "value": 0}, "group": "control_change"}, {"time": 3275, "annotation": {"number": 64, "value": 71}, "group": "control_change"}, {"time": 3275, "annotation": {"number": 64, "value": 127}, "group": "control_change"}, {"time": 3297, "annotation": {"number": 64, "value": 71}, "group": "control_change"}, {"time": 3297, "annotation": {"number": 64, "value": 0}, "group": "control_change"}, {"time": 3299, "annotation": {"number": 64, "value": 124}, "group": "control_change"}, {"time": 3318, "annotation": {"number": 64, "value": 0}, "group": "control_change"}, {"time": 3321, "annotation": {"number": 64, "value": 127}, "group": "control_change"}, {"time": 3344, "annotation": {"number": 64, "value": 14}, "group": "control_change"}, {"time": 3346, "annotation": {"number": 64, "value": 121}, "group": "control_change"}, {"time": 3370, "annotation": {"number": 64, "value": 71}, "group": "control_change"}, {"time": 3370, "annotation": {"number": 64, "value": 0}, "group": "control_change"}, {"time": 3373, "annotation": {"number": 64, "value": 71}, "group": "control_change"}, {"time": 3373, "annotation": {"number": 64, "value": 127}, "group": "control_change"}, {"time": 3392, "annotation": {"number": 64, "value": 71}, "group": "control_change"}, {"time": 3393, "annotation": {"number": 64, "value": 0}, "group": "control_change"}, {"time": 3393, "annotation": {"number": 64, "value": 127}, "group": "control_change"}, {"time": 3439, "annotation": {"number": 64, "value": 71}, "group": "control_change"}, {"time": 3440, "annotation": {"number": 64, "value": 0}, "group": "control_change"}, {"time": 3442, "annotation": {"number": 64, "value": 71}, "group": "control_change"}, {"time": 3442, "annotation": {"number": 64, "value": 127}, "group": "control_change"}, {"time": 3452, "annotation": {"number": 64, "value": 0}, "group": "control_change"}, {"time": 3457, "annotation": {"number": 64, "value": 123}, "group": "control_change"}, {"time": 3464, "annotation": {"number": 64, "value": 71}, "group": "control_change"}, {"time": 3464, "annotation": {"number": 64, "value": 0}, "group": "control_change"}, {"time": 3466, "annotation": {"number": 64, "value": 71}, "group": "control_change"}, {"time": 3466, "annotation": {"number": 64, "value": 127}, "group": "control_change"}, {"time": 3487, "annotation": {"number": 64, "value": 71}, "group": "control_change"}, {"time": 3488, "annotation": {"number": 64, "value": 0}, "group": "control_change"}, {"time": 3490, "annotation": {"number": 64, "value": 71}, "group": "control_change"}, {"time": 3490, "annotation": {"number": 64, "value": 127}, "group": "control_change"}, {"time": 3526, "annotation": {"number": 64, "value": 71}, "group": "control_change"}, {"time": 3526, "annotation": {"number": 64, "value": 0}, "group": "control_change"}, {"time": 3527, "annotation": {"number": 64, "value": 71}, "group": "control_change"}, {"time": 3528, "annotation": {"number": 64, "value": 127}, "group": "control_change"}, {"time": 3537, "annotation": {"number": 64, "value": 71}, "group": "control_change"}, {"time": 3537, "annotation": {"number": 64, "value": 0}, "group": "control_change"}, {"time": 3539, "annotation": {"number": 64, "value": 71}, "group": "control_change"}, {"time": 3539, "annotation": {"number": 64, "value": 127}, "group": "control_change"}, {"time": 3584, "annotation": {"number": 64, "value": 71}, "group": "control_change"}, {"time": 3584, "annotation": {"number": 64, "value": 0}, "group": "control_change"}, {"time": 3586, "annotation": {"number": 64, "value": 71}, "group": "control_change"}, {"time": 3586, "annotation": {"number": 64, "value": 127}, "group": "control_change"}, {"time": 3634, "annotation": {"number": 64, "value": 71}, "group": "control_change"}, {"time": 3634, "annotation": {"number": 64, "value": 0}, "group": "control_change"}, {"time": 3636, "annotation": {"number": 64, "value": 71}, "group": "control_change"}, {"time": 3636, "annotation": {"number": 64, "value": 127}, "group": "control_change"}, {"time": 3680, "annotation": {"number": 64, "value": 71}, "group": "control_change"}, {"time": 3681, "annotation": {"number": 64, "value": 0}, "group": "control_change"}, {"time": 3683, "annotation": {"number": 64, "value": 71}, "group": "control_change"}, {"time": 3683, "annotation": {"number": 64, "value": 127}, "group": "control_change"}, {"time": 3704, "annotation": {"number": 64, "value": 71}, "group": "control_change"}, {"time": 3704, "annotation": {"number": 64, "value": 0}, "group": "control_change"}, {"time": 3707, "annotation": {"number": 64, "value": 71}, "group": "control_change"}, {"time": 3707, "annotation": {"number": 64, "value": 127}, "group": "control_change"}, {"time": 3730, "annotation": {"number": 64, "value": 71}, "group": "control_change"}, {"time": 3730, "annotation": {"number": 64, "value": 0}, "group": "control_change"}, {"time": 3732, "annotation": {"number": 64, "value": 71}, "group": "control_change"}, {"time": 3732, "annotation": {"number": 64, "value": 127}, "group": "control_change"}, {"time": 3750, "annotation": {"number": 64, "value": 71}, "group": "control_change"}, {"time": 3751, "annotation": {"number": 64, "value": 0}, "group": "control_change"}, {"time": 3753, "annotation": {"number": 64, "value": 71}, "group": "control_change"}, {"time": 3753, "annotation": {"number": 64, "value": 127}, "group": "control_change"}, {"time": 3777, "annotation": {"number": 64, "value": 71}, "group": "control_change"}, {"time": 3777, "annotation": {"number": 64, "value": 0}, "group": "control_change"}, {"time": 3779, "annotation": {"number": 64, "value": 71}, "group": "control_change"}, {"time": 3779, "annotation": {"number": 64, "value": 127}, "group": "control_change"}, {"time": 3825, "annotation": {"number": 64, "value": 71}, "group": "control_change"}, {"time": 3825, "annotation": {"number": 64, "value": 0}, "group": "control_change"}, {"time": 3827, "annotation": {"number": 64, "value": 71}, "group": "control_change"}, {"time": 3828, "annotation": {"number": 64, "value": 127}, "group": "control_change"}, {"time": 3873, "annotation": {"number": 64, "value": 71}, "group": "control_change"}, {"time": 3873, "annotation": {"number": 64, "value": 0}, "group": "control_change"}, {"time": 3875, "annotation": {"number": 64, "value": 71}, "group": "control_change"}, {"time": 3876, "annotation": {"number": 64, "value": 127}, "group": "control_change"}, {"time": 3910, "annotation": {"number": 64, "value": 71}, "group": "control_change"}, {"time": 3911, "annotation": {"number": 64, "value": 0}, "group": "control_change"}, {"time": 3912, "annotation": {"number": 64, "value": 71}, "group": "control_change"}, {"time": 3912, "annotation": {"number": 64, "value": 127}, "group": "control_change"}, {"time": 3920, "annotation": {"number": 64, "value": 71}, "group": "control_change"}, {"time": 3920, "annotation": {"number": 64, "value": 0}, "group": "control_change"}, {"time": 3922, "annotation": {"number": 64, "value": 71}, "group": "control_change"}, {"time": 3922, "annotation": {"number": 64, "value": 127}, "group": "control_change"}, {"time": 3972, "annotation": {"number": 64, "value": 71}, "group": "control_change"}, {"time": 3972, "annotation": {"number": 64, "value": 0}, "group": "control_change"}, {"time": 3974, "annotation": {"number": 64, "value": 71}, "group": "control_change"}, {"time": 3974, "annotation": {"number": 64, "value": 127}, "group": "control_change"}, {"time": 4018, "annotation": {"number": 64, "value": 71}, "group": "control_change"}, {"time": 4018, "annotation": {"number": 64, "value": 0}, "group": "control_change"}, {"time": 4020, "annotation": {"number": 64, "value": 71}, "group": "control_change"}, {"time": 4020, "annotation": {"number": 64, "value": 127}, "group": "control_change"}, {"time": 4064, "annotation": {"number": 64, "value": 71}, "group": "control_change"}, {"time": 4064, "annotation": {"number": 64, "value": 0}, "group": "control_change"}, {"time": 4067, "annotation": {"number": 64, "value": 71}, "group": "control_change"}, {"time": 4068, "annotation": {"number": 64, "value": 127}, "group": "control_change"}, {"time": 4089, "annotation": {"number": 64, "value": 71}, "group": "control_change"}, {"time": 4090, "annotation": {"number": 64, "value": 0}, "group": "control_change"}, {"time": 4091, "annotation": {"number": 64, "value": 71}, "group": "control_change"}, {"time": 4092, "annotation": {"number": 64, "value": 127}, "group": "control_change"}, {"time": 4113, "annotation": {"number": 64, "value": 71}, "group": "control_change"}, {"time": 4113, "annotation": {"number": 64, "value": 0}, "group": "control_change"}, {"time": 4115, "annotation": {"number": 64, "value": 71}, "group": "control_change"}, {"time": 4115, "annotation": {"number": 64, "value": 127}, "group": "control_change"}, {"time": 4137, "annotation": {"number": 64, "value": 71}, "group": "control_change"}, {"time": 4137, "annotation": {"number": 64, "value": 0}, "group": "control_change"}, {"time": 4140, "annotation": {"number": 64, "value": 71}, "group": "control_change"}, {"time": 4140, "annotation": {"number": 64, "value": 127}, "group": "control_change"}, {"time": 4163, "annotation": {"number": 64, "value": 71}, "group": "control_change"}, {"time": 4163, "annotation": {"number": 64, "value": 0}, "group": "control_change"}, {"time": 4165, "annotation": {"number": 64, "value": 71}, "group": "control_change"}, {"time": 4165, "annotation": {"number": 64, "value": 127}, "group": "control_change"}, {"time": 4209, "annotation": {"number": 64, "value": 71}, "group": "control_change"}, {"time": 4209, "annotation": {"number": 64, "value": 0}, "group": "control_change"}, {"time": 4211, "annotation": {"number": 64, "value": 71}, "group": "control_change"}, {"time": 4211, "annotation": {"number": 64, "value": 127}, "group": "control_change"}, {"time": 4234, "annotation": {"number": 64, "value": 71}, "group": "control_change"}, {"time": 4234, "annotation": {"number": 64, "value": 0}, "group": "control_change"}, {"time": 4236, "annotation": {"number": 64, "value": 71}, "group": "control_change"}, {"time": 4236, "annotation": {"number": 64, "value": 127}, "group": "control_change"}, {"time": 4256, "annotation": {"number": 64, "value": 71}, "group": "control_change"}, {"time": 4257, "annotation": {"number": 64, "value": 0}, "group": "control_change"}, {"time": 4259, "annotation": {"number": 64, "value": 71}, "group": "control_change"}, {"time": 4259, "annotation": {"number": 64, "value": 127}, "group": "control_change"}, {"time": 4282, "annotation": {"number": 64, "value": 71}, "group": "control_change"}, {"time": 4282, "annotation": {"number": 64, "value": 0}, "group": "control_change"}, {"time": 4284, "annotation": {"number": 64, "value": 71}, "group": "control_change"}, {"time": 4284, "annotation": {"number": 64, "value": 127}, "group": "control_change"}, {"time": 4307, "annotation": {"number": 64, "value": 71}, "group": "control_change"}, {"time": 4308, "annotation": {"number": 64, "value": 0}, "group": "control_change"}, {"time": 4309, "annotation": {"number": 64, "value": 71}, "group": "control_change"}, {"time": 4310, "annotation": {"number": 64, "value": 127}, "group": "control_change"}, {"time": 4333, "annotation": {"number": 64, "value": 71}, "group": "control_change"}, {"time": 4333, "annotation": {"number": 64, "value": 0}, "group": "control_change"}, {"time": 4335, "annotation": {"number": 64, "value": 71}, "group": "control_change"}, {"time": 4335, "annotation": {"number": 64, "value": 127}, "group": "control_change"}, {"time": 4381, "annotation": {"number": 64, "value": 71}, "group": "control_change"}, {"time": 4382, "annotation": {"number": 64, "value": 0}, "group": "control_change"}, {"time": 4383, "annotation": {"number": 64, "value": 71}, "group": "control_change"}, {"time": 4384, "annotation": {"number": 64, "value": 127}, "group": "control_change"}, {"time": 4448, "annotation": {"number": 64, "value": 0}, "group": "control_change"}, {"time": 4449, "annotation": {"number": 64, "value": 71}, "group": "control_change"}]}]}