{"metadata": {"schema_version": "0.2", "title": "None", "source_filename": "056.mid", "source_format": "midi"}, "resolution": 12, "tempos": [{"time": 0, "qpm": 85.00004250002125}], "key_signatures": [{"time": 0, "root": 0, "mode": "major"}], "time_signatures": [{"time": 0, "numerator": 4, "denominator": 4}, {"time": 0, "numerator": 1, "denominator": 4}], "tracks": [{"program": 4, "is_drum": false, "name": "MELODY", "notes": [{"time": 458, "pitch": 62, "duration": 3, "velocity": 83}, {"time": 464, "pitch": 62, "duration": 3, "velocity": 76}, {"time": 470, "pitch": 62, "duration": 7, "velocity": 77}, {"time": 476, "pitch": 64, "duration": 6, "velocity": 75}, {"time": 482, "pitch": 71, "duration": 4, "velocity": 85}, {"time": 488, "pitch": 71, "duration": 5, "velocity": 75}, {"time": 494, "pitch": 69, "duration": 3, "velocity": 95}, {"time": 500, "pitch": 69, "duration": 4, "velocity": 93}, {"time": 506, "pitch": 67, "duration": 39, "velocity": 98}, {"time": 554, "pitch": 69, "duration": 9, "velocity": 111}, {"time": 563, "pitch": 69, "duration": 2, "velocity": 64}, {"time": 566, "pitch": 71, "duration": 4, "velocity": 77}, {"time": 572, "pitch": 71, "duration": 5, "velocity": 87}, {"time": 578, "pitch": 69, "duration": 4, "velocity": 87}, {"time": 584, "pitch": 67, "duration": 6, "velocity": 87}, {"time": 590, "pitch": 64, "duration": 5, "velocity": 71}, {"time": 596, "pitch": 67, "duration": 6, "velocity": 93}, {"time": 602, "pitch": 62, "duration": 18, "velocity": 87}, {"time": 650, "pitch": 71, "duration": 5, "velocity": 83}, {"time": 656, "pitch": 74, "duration": 3, "velocity": 74}, {"time": 662, "pitch": 74, "duration": 3, "velocity": 100}, {"time": 668, "pitch": 71, "duration": 3, "velocity": 90}, {"time": 674, "pitch": 74, "duration": 10, "velocity": 104}, {"time": 698, "pitch": 76, "duration": 6, "velocity": 108}, {"time": 707, "pitch": 74, "duration": 3, "velocity": 86}, {"time": 710, "pitch": 71, "duration": 5, "velocity": 87}, {"time": 716, "pitch": 69, "duration": 2, "velocity": 87}, {"time": 722, "pitch": 67, "duration": 20, "velocity": 104}, {"time": 746, "pitch": 69, "duration": 7, "velocity": 90}, {"time": 755, "pitch": 69, "duration": 2, "velocity": 86}, {"time": 758, "pitch": 69, "duration": 4, "velocity": 100}, {"time": 764, "pitch": 67, "duration": 6, "velocity": 83}, {"time": 770, "pitch": 69, "duration": 6, "velocity": 87}, {"time": 776, "pitch": 71, "duration": 6, "velocity": 72}, {"time": 782, "pitch": 67, "duration": 6, "velocity": 83}, {"time": 788, "pitch": 64, "duration": 7, "velocity": 87}, {"time": 794, "pitch": 62, "duration": 33, "velocity": 83}, {"time": 842, "pitch": 62, "duration": 3, "velocity": 83}, {"time": 848, "pitch": 62, "duration": 3, "velocity": 76}, {"time": 854, "pitch": 62, "duration": 7, "velocity": 77}, {"time": 860, "pitch": 64, "duration": 6, "velocity": 75}, {"time": 866, "pitch": 71, "duration": 4, "velocity": 85}, {"time": 872, "pitch": 71, "duration": 5, "velocity": 75}, {"time": 878, "pitch": 71, "duration": 3, "velocity": 95}, {"time": 884, "pitch": 69, "duration": 4, "velocity": 93}, {"time": 890, "pitch": 67, "duration": 39, "velocity": 98}, {"time": 938, "pitch": 69, "duration": 9, "velocity": 111}, {"time": 947, "pitch": 69, "duration": 2, "velocity": 64}, {"time": 950, "pitch": 71, "duration": 4, "velocity": 77}, {"time": 956, "pitch": 71, "duration": 5, "velocity": 87}, {"time": 962, "pitch": 69, "duration": 4, "velocity": 87}, {"time": 968, "pitch": 67, "duration": 6, "velocity": 87}, {"time": 974, "pitch": 64, "duration": 5, "velocity": 71}, {"time": 980, "pitch": 67, "duration": 6, "velocity": 93}, {"time": 986, "pitch": 62, "duration": 18, "velocity": 87}, {"time": 1034, "pitch": 71, "duration": 5, "velocity": 83}, {"time": 1040, "pitch": 74, "duration": 3, "velocity": 74}, {"time": 1046, "pitch": 74, "duration": 3, "velocity": 100}, {"time": 1052, "pitch": 71, "duration": 3, "velocity": 90}, {"time": 1058, "pitch": 74, "duration": 10, "velocity": 104}, {"time": 1082, "pitch": 76, "duration": 6, "velocity": 108}, {"time": 1091, "pitch": 74, "duration": 3, "velocity": 86}, {"time": 1094, "pitch": 71, "duration": 5, "velocity": 87}, {"time": 1100, "pitch": 69, "duration": 2, "velocity": 87}, {"time": 1106, "pitch": 67, "duration": 20, "velocity": 104}, {"time": 1130, "pitch": 69, "duration": 7, "velocity": 90}, {"time": 1139, "pitch": 69, "duration": 2, "velocity": 86}, {"time": 1142, "pitch": 69, "duration": 4, "velocity": 100}, {"time": 1148, "pitch": 67, "duration": 6, "velocity": 83}, {"time": 1154, "pitch": 69, "duration": 6, "velocity": 87}, {"time": 1160, "pitch": 71, "duration": 6, "velocity": 72}, {"time": 1166, "pitch": 76, "duration": 6, "velocity": 79}, {"time": 1172, "pitch": 71, "duration": 5, "velocity": 75}, {"time": 1178, "pitch": 74, "duration": 38, "velocity": 112}, {"time": 1226, "pitch": 74, "duration": 5, "velocity": 83}, {"time": 1235, "pitch": 74, "duration": 1, "velocity": 93}, {"time": 1238, "pitch": 74, "duration": 4, "velocity": 95}, {"time": 1244, "pitch": 71, "duration": 4, "velocity": 86}, {"time": 1250, "pitch": 74, "duration": 4, "velocity": 86}, {"time": 1256, "pitch": 76, "duration": 4, "velocity": 79}, {"time": 1262, "pitch": 79, "duration": 4, "velocity": 87}, {"time": 1268, "pitch": 78, "duration": 3, "velocity": 67}, {"time": 1274, "pitch": 76, "duration": 16, "velocity": 77}, {"time": 1322, "pitch": 76, "duration": 5, "velocity": 108}, {"time": 1328, "pitch": 79, "duration": 5, "velocity": 117}, {"time": 1334, "pitch": 76, "duration": 5, "velocity": 95}, {"time": 1340, "pitch": 74, "duration": 4, "velocity": 100}, {"time": 1346, "pitch": 76, "duration": 7, "velocity": 112}, {"time": 1352, "pitch": 74, "duration": 2, "velocity": 85}, {"time": 1358, "pitch": 74, "duration": 4, "velocity": 93}, {"time": 1364, "pitch": 67, "duration": 4, "velocity": 87}, {"time": 1370, "pitch": 69, "duration": 38, "velocity": 85}, {"time": 1412, "pitch": 67, "duration": 5, "velocity": 111}, {"time": 1418, "pitch": 69, "duration": 4, "velocity": 93}, {"time": 1424, "pitch": 69, "duration": 2, "velocity": 69}, {"time": 1430, "pitch": 69, "duration": 3, "velocity": 100}, {"time": 1436, "pitch": 67, "duration": 3, "velocity": 87}, {"time": 1442, "pitch": 69, "duration": 8, "velocity": 108}, {"time": 1466, "pitch": 76, "duration": 6, "velocity": 111}, {"time": 1475, "pitch": 74, "duration": 3, "velocity": 87}, {"time": 1478, "pitch": 71, "duration": 4, "velocity": 104}, {"time": 1484, "pitch": 69, "duration": 3, "velocity": 93}, {"time": 1490, "pitch": 67, "duration": 18, "velocity": 111}, {"time": 1514, "pitch": 69, "duration": 5, "velocity": 100}, {"time": 1523, "pitch": 69, "duration": 2, "velocity": 100}, {"time": 1526, "pitch": 69, "duration": 2, "velocity": 112}, {"time": 1532, "pitch": 67, "duration": 4, "velocity": 90}, {"time": 1538, "pitch": 69, "duration": 2, "velocity": 87}, {"time": 1544, "pitch": 71, "duration": 2, "velocity": 90}, {"time": 1550, "pitch": 79, "duration": 5, "velocity": 117}, {"time": 1556, "pitch": 71, "duration": 4, "velocity": 95}, {"time": 1562, "pitch": 74, "duration": 41, "velocity": 104}, {"time": 1610, "pitch": 74, "duration": 5, "velocity": 83}, {"time": 1619, "pitch": 74, "duration": 1, "velocity": 93}, {"time": 1622, "pitch": 74, "duration": 4, "velocity": 95}, {"time": 1628, "pitch": 71, "duration": 4, "velocity": 86}, {"time": 1634, "pitch": 74, "duration": 4, "velocity": 86}, {"time": 1640, "pitch": 76, "duration": 4, "velocity": 79}, {"time": 1646, "pitch": 79, "duration": 4, "velocity": 87}, {"time": 1652, "pitch": 78, "duration": 3, "velocity": 67}, {"time": 1658, "pitch": 76, "duration": 24, "velocity": 77}, {"time": 1706, "pitch": 76, "duration": 5, "velocity": 108}, {"time": 1712, "pitch": 79, "duration": 5, "velocity": 117}, {"time": 1718, "pitch": 76, "duration": 5, "velocity": 95}, {"time": 1724, "pitch": 74, "duration": 4, "velocity": 100}, {"time": 1730, "pitch": 74, "duration": 6, "velocity": 98}, {"time": 1736, "pitch": 64, "duration": 6, "velocity": 90}, {"time": 1742, "pitch": 74, "duration": 8, "velocity": 90}, {"time": 1754, "pitch": 69, "duration": 37, "velocity": 87}, {"time": 1796, "pitch": 67, "duration": 5, "velocity": 111}, {"time": 1802, "pitch": 69, "duration": 4, "velocity": 93}, {"time": 1808, "pitch": 69, "duration": 2, "velocity": 69}, {"time": 1814, "pitch": 69, "duration": 3, "velocity": 100}, {"time": 1820, "pitch": 67, "duration": 3, "velocity": 87}, {"time": 1826, "pitch": 69, "duration": 8, "velocity": 108}, {"time": 1838, "pitch": 69, "duration": 7, "velocity": 98}, {"time": 1844, "pitch": 71, "duration": 6, "velocity": 81}, {"time": 1850, "pitch": 74, "duration": 7, "velocity": 108}, {"time": 1856, "pitch": 71, "duration": 3, "velocity": 74}, {"time": 1862, "pitch": 74, "duration": 8, "velocity": 117}, {"time": 1874, "pitch": 71, "duration": 18, "velocity": 112}, {"time": 1898, "pitch": 69, "duration": 6, "velocity": 104}, {"time": 1907, "pitch": 69, "duration": 1, "velocity": 93}, {"time": 1910, "pitch": 69, "duration": 2, "velocity": 111}, {"time": 1916, "pitch": 67, "duration": 3, "velocity": 104}, {"time": 1922, "pitch": 69, "duration": 3, "velocity": 81}, {"time": 1928, "pitch": 71, "duration": 3, "velocity": 81}, {"time": 1934, "pitch": 79, "duration": 6, "velocity": 104}, {"time": 1940, "pitch": 71, "duration": 7, "velocity": 77}, {"time": 1946, "pitch": 74, "duration": 36, "velocity": 74}, {"time": 1988, "pitch": 62, "duration": 4, "velocity": 79}, {"time": 1994, "pitch": 71, "duration": 6, "velocity": 98}, {"time": 2003, "pitch": 69, "duration": 5, "velocity": 104}, {"time": 2012, "pitch": 64, "duration": 3, "velocity": 100}, {"time": 2018, "pitch": 67, "duration": 47, "velocity": 112}, {"time": 2450, "pitch": 62, "duration": 3, "velocity": 83}, {"time": 2456, "pitch": 62, "duration": 3, "velocity": 76}, {"time": 2462, "pitch": 62, "duration": 7, "velocity": 77}, {"time": 2468, "pitch": 64, "duration": 6, "velocity": 75}, {"time": 2474, "pitch": 71, "duration": 4, "velocity": 85}, {"time": 2480, "pitch": 71, "duration": 5, "velocity": 75}, {"time": 2486, "pitch": 71, "duration": 3, "velocity": 95}, {"time": 2492, "pitch": 69, "duration": 4, "velocity": 93}, {"time": 2498, "pitch": 67, "duration": 39, "velocity": 98}, {"time": 2546, "pitch": 69, "duration": 9, "velocity": 111}, {"time": 2555, "pitch": 69, "duration": 2, "velocity": 64}, {"time": 2558, "pitch": 71, "duration": 4, "velocity": 77}, {"time": 2564, "pitch": 71, "duration": 5, "velocity": 87}, {"time": 2570, "pitch": 69, "duration": 4, "velocity": 87}, {"time": 2576, "pitch": 67, "duration": 6, "velocity": 87}, {"time": 2582, "pitch": 64, "duration": 5, "velocity": 71}, {"time": 2588, "pitch": 67, "duration": 6, "velocity": 93}, {"time": 2594, "pitch": 62, "duration": 18, "velocity": 87}, {"time": 2642, "pitch": 71, "duration": 5, "velocity": 83}, {"time": 2648, "pitch": 74, "duration": 3, "velocity": 74}, {"time": 2654, "pitch": 74, "duration": 3, "velocity": 100}, {"time": 2660, "pitch": 71, "duration": 3, "velocity": 90}, {"time": 2666, "pitch": 74, "duration": 10, "velocity": 104}, {"time": 2690, "pitch": 76, "duration": 6, "velocity": 108}, {"time": 2699, "pitch": 74, "duration": 3, "velocity": 86}, {"time": 2702, "pitch": 71, "duration": 5, "velocity": 87}, {"time": 2708, "pitch": 69, "duration": 2, "velocity": 87}, {"time": 2714, "pitch": 67, "duration": 20, "velocity": 104}, {"time": 2738, "pitch": 69, "duration": 7, "velocity": 90}, {"time": 2747, "pitch": 69, "duration": 2, "velocity": 86}, {"time": 2750, "pitch": 69, "duration": 4, "velocity": 100}, {"time": 2756, "pitch": 67, "duration": 6, "velocity": 83}, {"time": 2762, "pitch": 69, "duration": 6, "velocity": 87}, {"time": 2768, "pitch": 71, "duration": 6, "velocity": 72}, {"time": 2774, "pitch": 76, "duration": 6, "velocity": 79}, {"time": 2780, "pitch": 71, "duration": 5, "velocity": 75}, {"time": 2786, "pitch": 74, "duration": 38, "velocity": 112}, {"time": 2834, "pitch": 74, "duration": 5, "velocity": 83}, {"time": 2843, "pitch": 74, "duration": 1, "velocity": 93}, {"time": 2846, "pitch": 74, "duration": 4, "velocity": 95}, {"time": 2852, "pitch": 71, "duration": 4, "velocity": 86}, {"time": 2858, "pitch": 74, "duration": 4, "velocity": 86}, {"time": 2864, "pitch": 76, "duration": 4, "velocity": 79}, {"time": 2870, "pitch": 79, "duration": 4, "velocity": 87}, {"time": 2876, "pitch": 78, "duration": 3, "velocity": 67}, {"time": 2882, "pitch": 76, "duration": 16, "velocity": 77}, {"time": 2930, "pitch": 76, "duration": 5, "velocity": 108}, {"time": 2936, "pitch": 79, "duration": 5, "velocity": 117}, {"time": 2942, "pitch": 76, "duration": 5, "velocity": 95}, {"time": 2948, "pitch": 74, "duration": 4, "velocity": 100}, {"time": 2954, "pitch": 76, "duration": 7, "velocity": 112}, {"time": 2960, "pitch": 74, "duration": 2, "velocity": 85}, {"time": 2966, "pitch": 74, "duration": 4, "velocity": 93}, {"time": 2972, "pitch": 67, "duration": 4, "velocity": 87}, {"time": 2978, "pitch": 69, "duration": 38, "velocity": 85}, {"time": 3020, "pitch": 67, "duration": 5, "velocity": 111}, {"time": 3026, "pitch": 69, "duration": 4, "velocity": 93}, {"time": 3032, "pitch": 69, "duration": 2, "velocity": 69}, {"time": 3038, "pitch": 69, "duration": 3, "velocity": 100}, {"time": 3044, "pitch": 67, "duration": 3, "velocity": 87}, {"time": 3050, "pitch": 69, "duration": 8, "velocity": 108}, {"time": 3074, "pitch": 76, "duration": 6, "velocity": 111}, {"time": 3083, "pitch": 74, "duration": 3, "velocity": 87}, {"time": 3086, "pitch": 71, "duration": 4, "velocity": 104}, {"time": 3092, "pitch": 69, "duration": 3, "velocity": 93}, {"time": 3098, "pitch": 67, "duration": 18, "velocity": 111}, {"time": 3122, "pitch": 69, "duration": 5, "velocity": 100}, {"time": 3131, "pitch": 69, "duration": 2, "velocity": 100}, {"time": 3134, "pitch": 69, "duration": 2, "velocity": 112}, {"time": 3140, "pitch": 67, "duration": 4, "velocity": 90}, {"time": 3146, "pitch": 69, "duration": 2, "velocity": 87}, {"time": 3152, "pitch": 71, "duration": 2, "velocity": 90}, {"time": 3158, "pitch": 79, "duration": 5, "velocity": 117}, {"time": 3164, "pitch": 71, "duration": 4, "velocity": 95}, {"time": 3170, "pitch": 74, "duration": 41, "velocity": 104}, {"time": 3218, "pitch": 74, "duration": 5, "velocity": 83}, {"time": 3227, "pitch": 74, "duration": 1, "velocity": 93}, {"time": 3230, "pitch": 74, "duration": 4, "velocity": 95}, {"time": 3236, "pitch": 71, "duration": 4, "velocity": 86}, {"time": 3242, "pitch": 74, "duration": 4, "velocity": 86}, {"time": 3248, "pitch": 76, "duration": 4, "velocity": 79}, {"time": 3254, "pitch": 79, "duration": 4, "velocity": 87}, {"time": 3260, "pitch": 78, "duration": 3, "velocity": 67}, {"time": 3266, "pitch": 76, "duration": 24, "velocity": 77}, {"time": 3314, "pitch": 76, "duration": 5, "velocity": 108}, {"time": 3320, "pitch": 79, "duration": 5, "velocity": 117}, {"time": 3326, "pitch": 76, "duration": 5, "velocity": 95}, {"time": 3332, "pitch": 74, "duration": 4, "velocity": 100}, {"time": 3338, "pitch": 74, "duration": 6, "velocity": 98}, {"time": 3344, "pitch": 64, "duration": 6, "velocity": 90}, {"time": 3350, "pitch": 74, "duration": 8, "velocity": 90}, {"time": 3362, "pitch": 69, "duration": 37, "velocity": 87}, {"time": 3404, "pitch": 67, "duration": 5, "velocity": 111}, {"time": 3410, "pitch": 69, "duration": 4, "velocity": 93}, {"time": 3416, "pitch": 69, "duration": 2, "velocity": 69}, {"time": 3422, "pitch": 69, "duration": 3, "velocity": 100}, {"time": 3428, "pitch": 67, "duration": 3, "velocity": 87}, {"time": 3434, "pitch": 69, "duration": 8, "velocity": 108}, {"time": 3446, "pitch": 69, "duration": 7, "velocity": 98}, {"time": 3452, "pitch": 71, "duration": 6, "velocity": 81}, {"time": 3458, "pitch": 74, "duration": 7, "velocity": 108}, {"time": 3464, "pitch": 71, "duration": 3, "velocity": 74}, {"time": 3470, "pitch": 74, "duration": 8, "velocity": 117}, {"time": 3482, "pitch": 71, "duration": 18, "velocity": 112}, {"time": 3506, "pitch": 69, "duration": 6, "velocity": 104}, {"time": 3515, "pitch": 69, "duration": 1, "velocity": 93}, {"time": 3518, "pitch": 69, "duration": 2, "velocity": 111}, {"time": 3524, "pitch": 67, "duration": 3, "velocity": 104}, {"time": 3530, "pitch": 69, "duration": 3, "velocity": 81}, {"time": 3536, "pitch": 71, "duration": 3, "velocity": 81}, {"time": 3542, "pitch": 79, "duration": 6, "velocity": 104}, {"time": 3548, "pitch": 71, "duration": 7, "velocity": 77}, {"time": 3554, "pitch": 74, "duration": 36, "velocity": 74}, {"time": 3596, "pitch": 62, "duration": 4, "velocity": 79}, {"time": 3602, "pitch": 71, "duration": 6, "velocity": 98}, {"time": 3611, "pitch": 69, "duration": 5, "velocity": 104}, {"time": 3620, "pitch": 64, "duration": 3, "velocity": 100}, {"time": 3626, "pitch": 67, "duration": 24, "velocity": 112}, {"time": 3650, "pitch": 74, "duration": 5, "velocity": 83}, {"time": 3659, "pitch": 74, "duration": 1, "velocity": 93}, {"time": 3662, "pitch": 74, "duration": 4, "velocity": 95}, {"time": 3668, "pitch": 71, "duration": 4, "velocity": 86}, {"time": 3674, "pitch": 74, "duration": 4, "velocity": 86}, {"time": 3680, "pitch": 76, "duration": 4, "velocity": 79}, {"time": 3686, "pitch": 79, "duration": 4, "velocity": 87}, {"time": 3692, "pitch": 78, "duration": 3, "velocity": 67}, {"time": 3698, "pitch": 76, "duration": 16, "velocity": 77}, {"time": 3746, "pitch": 76, "duration": 5, "velocity": 108}, {"time": 3752, "pitch": 79, "duration": 5, "velocity": 117}, {"time": 3758, "pitch": 76, "duration": 5, "velocity": 95}, {"time": 3764, "pitch": 74, "duration": 4, "velocity": 100}, {"time": 3770, "pitch": 76, "duration": 7, "velocity": 112}, {"time": 3776, "pitch": 74, "duration": 2, "velocity": 85}, {"time": 3782, "pitch": 74, "duration": 4, "velocity": 93}, {"time": 3788, "pitch": 67, "duration": 4, "velocity": 87}, {"time": 3794, "pitch": 69, "duration": 38, "velocity": 85}, {"time": 3836, "pitch": 67, "duration": 5, "velocity": 111}, {"time": 3842, "pitch": 69, "duration": 4, "velocity": 93}, {"time": 3848, "pitch": 69, "duration": 2, "velocity": 69}, {"time": 3854, "pitch": 69, "duration": 3, "velocity": 100}, {"time": 3860, "pitch": 67, "duration": 3, "velocity": 87}, {"time": 3866, "pitch": 69, "duration": 8, "velocity": 108}, {"time": 3890, "pitch": 76, "duration": 6, "velocity": 111}, {"time": 3899, "pitch": 74, "duration": 3, "velocity": 87}, {"time": 3902, "pitch": 71, "duration": 4, "velocity": 104}, {"time": 3908, "pitch": 69, "duration": 3, "velocity": 93}, {"time": 3914, "pitch": 67, "duration": 18, "velocity": 111}, {"time": 3938, "pitch": 69, "duration": 5, "velocity": 100}, {"time": 3947, "pitch": 69, "duration": 2, "velocity": 100}, {"time": 3950, "pitch": 69, "duration": 2, "velocity": 112}, {"time": 3956, "pitch": 67, "duration": 4, "velocity": 90}, {"time": 3962, "pitch": 69, "duration": 2, "velocity": 87}, {"time": 3968, "pitch": 71, "duration": 2, "velocity": 90}, {"time": 3974, "pitch": 79, "duration": 5, "velocity": 117}, {"time": 3980, "pitch": 71, "duration": 4, "velocity": 95}, {"time": 3986, "pitch": 74, "duration": 41, "velocity": 104}, {"time": 4034, "pitch": 74, "duration": 5, "velocity": 83}, {"time": 4043, "pitch": 74, "duration": 1, "velocity": 93}, {"time": 4046, "pitch": 74, "duration": 4, "velocity": 95}, {"time": 4052, "pitch": 71, "duration": 4, "velocity": 86}, {"time": 4058, "pitch": 74, "duration": 4, "velocity": 86}, {"time": 4064, "pitch": 76, "duration": 4, "velocity": 79}, {"time": 4070, "pitch": 79, "duration": 4, "velocity": 87}, {"time": 4076, "pitch": 78, "duration": 3, "velocity": 67}, {"time": 4082, "pitch": 76, "duration": 24, "velocity": 77}, {"time": 4130, "pitch": 76, "duration": 5, "velocity": 108}, {"time": 4136, "pitch": 79, "duration": 5, "velocity": 117}, {"time": 4142, "pitch": 76, "duration": 5, "velocity": 95}, {"time": 4148, "pitch": 74, "duration": 4, "velocity": 100}, {"time": 4154, "pitch": 74, "duration": 6, "velocity": 98}, {"time": 4160, "pitch": 64, "duration": 6, "velocity": 90}, {"time": 4166, "pitch": 74, "duration": 8, "velocity": 90}, {"time": 4178, "pitch": 69, "duration": 37, "velocity": 87}, {"time": 4220, "pitch": 67, "duration": 5, "velocity": 111}, {"time": 4226, "pitch": 69, "duration": 4, "velocity": 93}, {"time": 4232, "pitch": 69, "duration": 2, "velocity": 69}, {"time": 4238, "pitch": 69, "duration": 3, "velocity": 100}, {"time": 4244, "pitch": 67, "duration": 3, "velocity": 87}, {"time": 4250, "pitch": 69, "duration": 8, "velocity": 108}, {"time": 4262, "pitch": 69, "duration": 7, "velocity": 98}, {"time": 4268, "pitch": 71, "duration": 6, "velocity": 81}, {"time": 4274, "pitch": 74, "duration": 7, "velocity": 108}, {"time": 4280, "pitch": 71, "duration": 3, "velocity": 74}, {"time": 4286, "pitch": 74, "duration": 8, "velocity": 117}, {"time": 4298, "pitch": 71, "duration": 18, "velocity": 112}, {"time": 4322, "pitch": 69, "duration": 6, "velocity": 104}, {"time": 4331, "pitch": 69, "duration": 1, "velocity": 93}, {"time": 4334, "pitch": 69, "duration": 2, "velocity": 111}, {"time": 4340, "pitch": 67, "duration": 3, "velocity": 104}, {"time": 4346, "pitch": 69, "duration": 3, "velocity": 81}, {"time": 4352, "pitch": 71, "duration": 3, "velocity": 81}, {"time": 4358, "pitch": 79, "duration": 6, "velocity": 104}, {"time": 4364, "pitch": 71, "duration": 7, "velocity": 77}, {"time": 4370, "pitch": 74, "duration": 36, "velocity": 74}, {"time": 4412, "pitch": 62, "duration": 4, "velocity": 79}, {"time": 4418, "pitch": 71, "duration": 6, "velocity": 98}, {"time": 4427, "pitch": 69, "duration": 5, "velocity": 104}, {"time": 4436, "pitch": 64, "duration": 3, "velocity": 100}, {"time": 4442, "pitch": 67, "duration": 24, "velocity": 112}], "annotations": [{"time": 132, "annotation": {"number": 64, "value": 83}, "group": "control_change"}, {"time": 396, "annotation": {"number": 64, "value": 84}, "group": "control_change"}, {"time": 504, "annotation": {"number": 64, "value": 85}, "group": "control_change"}, {"time": 564, "annotation": {"number": 64, "value": 86}, "group": "control_change"}, {"time": 576, "annotation": {"number": 64, "value": 89}, "group": "control_change"}, {"time": 600, "annotation": {"number": 64, "value": 88}, "group": "control_change"}, {"time": 612, "annotation": {"number": 64, "value": 85}, "group": "control_change"}, {"time": 624, "annotation": {"number": 64, "value": 84}, "group": "control_change"}]}, {"program": 0, "is_drum": false, "name": "PIANO", "notes": [{"time": 74, "pitch": 59, "duration": 6, "velocity": 59}, {"time": 74, "pitch": 67, "duration": 6, "velocity": 63}, {"time": 74, "pitch": 55, "duration": 5, "velocity": 59}, {"time": 74, "pitch": 62, "duration": 6, "velocity": 52}, {"time": 74, "pitch": 43, "duration": 38, "velocity": 56}, {"time": 86, "pitch": 62, "duration": 5, "velocity": 69}, {"time": 86, "pitch": 59, "duration": 5, "velocity": 69}, {"time": 86, "pitch": 67, "duration": 5, "velocity": 73}, {"time": 92, "pitch": 55, "duration": 3, "velocity": 41}, {"time": 95, "pitch": 67, "duration": 4, "velocity": 68}, {"time": 95, "pitch": 59, "duration": 4, "velocity": 67}, {"time": 95, "pitch": 62, "duration": 4, "velocity": 69}, {"time": 101, "pitch": 67, "duration": 3, "velocity": 66}, {"time": 101, "pitch": 59, "duration": 3, "velocity": 63}, {"time": 101, "pitch": 62, "duration": 3, "velocity": 77}, {"time": 104, "pitch": 55, "duration": 6, "velocity": 69}, {"time": 110, "pitch": 67, "duration": 4, "velocity": 74}, {"time": 110, "pitch": 59, "duration": 4, "velocity": 76}, {"time": 110, "pitch": 62, "duration": 5, "velocity": 64}, {"time": 112, "pitch": 55, "duration": 2, "velocity": 40}, {"time": 115, "pitch": 43, "duration": 1, "velocity": 67}, {"time": 121, "pitch": 59, "duration": 7, "velocity": 65}, {"time": 121, "pitch": 64, "duration": 7, "velocity": 63}, {"time": 121, "pitch": 40, "duration": 45, "velocity": 61}, {"time": 122, "pitch": 55, "duration": 6, "velocity": 64}, {"time": 122, "pitch": 52, "duration": 13, "velocity": 55}, {"time": 134, "pitch": 64, "duration": 5, "velocity": 63}, {"time": 134, "pitch": 55, "duration": 5, "velocity": 58}, {"time": 134, "pitch": 59, "duration": 5, "velocity": 64}, {"time": 140, "pitch": 52, "duration": 7, "velocity": 44}, {"time": 142, "pitch": 55, "duration": 3, "velocity": 74}, {"time": 142, "pitch": 59, "duration": 4, "velocity": 72}, {"time": 142, "pitch": 64, "duration": 3, "velocity": 69}, {"time": 148, "pitch": 59, "duration": 3, "velocity": 44}, {"time": 148, "pitch": 64, "duration": 3, "velocity": 58}, {"time": 148, "pitch": 55, "duration": 2, "velocity": 62}, {"time": 151, "pitch": 52, "duration": 6, "velocity": 55}, {"time": 157, "pitch": 62, "duration": 4, "velocity": 67}, {"time": 157, "pitch": 55, "duration": 3, "velocity": 77}, {"time": 157, "pitch": 59, "duration": 3, "velocity": 56}, {"time": 160, "pitch": 52, "duration": 1, "velocity": 61}, {"time": 163, "pitch": 55, "duration": 2, "velocity": 68}, {"time": 163, "pitch": 64, "duration": 2, "velocity": 64}, {"time": 163, "pitch": 59, "duration": 1, "velocity": 59}, {"time": 166, "pitch": 52, "duration": 1, "velocity": 56}, {"time": 169, "pitch": 57, "duration": 7, "velocity": 67}, {"time": 169, "pitch": 64, "duration": 8, "velocity": 68}, {"time": 170, "pitch": 60, "duration": 7, "velocity": 63}, {"time": 170, "pitch": 45, "duration": 39, "velocity": 62}, {"time": 170, "pitch": 52, "duration": 6, "velocity": 53}, {"time": 179, "pitch": 52, "duration": 12, "velocity": 47}, {"time": 181, "pitch": 57, "duration": 5, "velocity": 83}, {"time": 181, "pitch": 60, "duration": 5, "velocity": 84}, {"time": 181, "pitch": 64, "duration": 5, "velocity": 80}, {"time": 190, "pitch": 57, "duration": 7, "velocity": 59}, {"time": 190, "pitch": 60, "duration": 7, "velocity": 62}, {"time": 190, "pitch": 64, "duration": 7, "velocity": 68}, {"time": 196, "pitch": 52, "duration": 3, "velocity": 64}, {"time": 199, "pitch": 57, "duration": 2, "velocity": 64}, {"time": 199, "pitch": 60, "duration": 2, "velocity": 50}, {"time": 199, "pitch": 64, "duration": 2, "velocity": 68}, {"time": 202, "pitch": 52, "duration": 3, "velocity": 58}, {"time": 205, "pitch": 57, "duration": 4, "velocity": 75}, {"time": 205, "pitch": 66, "duration": 4, "velocity": 76}, {"time": 205, "pitch": 60, "duration": 4, "velocity": 72}, {"time": 208, "pitch": 52, "duration": 3, "velocity": 72}, {"time": 211, "pitch": 60, "duration": 1, "velocity": 49}, {"time": 211, "pitch": 57, "duration": 1, "velocity": 62}, {"time": 211, "pitch": 67, "duration": 1, "velocity": 71}, {"time": 217, "pitch": 57, "duration": 6, "velocity": 67}, {"time": 217, "pitch": 66, "duration": 6, "velocity": 66}, {"time": 218, "pitch": 62, "duration": 5, "velocity": 59}, {"time": 218, "pitch": 38, "duration": 38, "velocity": 61}, {"time": 218, "pitch": 50, "duration": 12, "velocity": 53}, {"time": 229, "pitch": 57, "duration": 5, "velocity": 79}, {"time": 229, "pitch": 62, "duration": 5, "velocity": 72}, {"time": 229, "pitch": 67, "duration": 5, "velocity": 78}, {"time": 235, "pitch": 50, "duration": 4, "velocity": 45}, {"time": 238, "pitch": 62, "duration": 3, "velocity": 69}, {"time": 238, "pitch": 57, "duration": 3, "velocity": 77}, {"time": 238, "pitch": 69, "duration": 3, "velocity": 76}, {"time": 244, "pitch": 66, "duration": 4, "velocity": 71}, {"time": 244, "pitch": 57, "duration": 3, "velocity": 72}, {"time": 244, "pitch": 62, "duration": 3, "velocity": 59}, {"time": 247, "pitch": 50, "duration": 6, "velocity": 59}, {"time": 253, "pitch": 64, "duration": 6, "velocity": 76}, {"time": 253, "pitch": 57, "duration": 3, "velocity": 79}, {"time": 256, "pitch": 50, "duration": 3, "velocity": 49}, {"time": 259, "pitch": 38, "duration": 1, "velocity": 61}, {"time": 259, "pitch": 57, "duration": 1, "velocity": 47}, {"time": 259, "pitch": 62, "duration": 1, "velocity": 58}, {"time": 266, "pitch": 57, "duration": 7, "velocity": 71}, {"time": 266, "pitch": 64, "duration": 7, "velocity": 70}, {"time": 266, "pitch": 45, "duration": 24, "velocity": 74}, {"time": 266, "pitch": 60, "duration": 6, "velocity": 67}, {"time": 274, "pitch": 52, "duration": 5, "velocity": 55}, {"time": 278, "pitch": 64, "duration": 5, "velocity": 75}, {"time": 278, "pitch": 57, "duration": 4, "velocity": 75}, {"time": 278, "pitch": 60, "duration": 5, "velocity": 72}, {"time": 284, "pitch": 52, "duration": 1, "velocity": 44}, {"time": 286, "pitch": 57, "duration": 3, "velocity": 72}, {"time": 286, "pitch": 64, "duration": 3, "velocity": 68}, {"time": 287, "pitch": 60, "duration": 2, "velocity": 67}, {"time": 290, "pitch": 66, "duration": 6, "velocity": 62}, {"time": 290, "pitch": 62, "duration": 7, "velocity": 57}, {"time": 290, "pitch": 38, "duration": 16, "velocity": 48}, {"time": 290, "pitch": 57, "duration": 7, "velocity": 48}, {"time": 290, "pitch": 50, "duration": 5, "velocity": 47}, {"time": 299, "pitch": 50, "duration": 3, "velocity": 62}, {"time": 302, "pitch": 66, "duration": 5, "velocity": 83}, {"time": 302, "pitch": 62, "duration": 6, "velocity": 76}, {"time": 303, "pitch": 57, "duration": 4, "velocity": 77}, {"time": 305, "pitch": 50, "duration": 4, "velocity": 71}, {"time": 308, "pitch": 38, "duration": 1, "velocity": 74}, {"time": 313, "pitch": 55, "duration": 7, "velocity": 56}, {"time": 314, "pitch": 59, "duration": 6, "velocity": 56}, {"time": 314, "pitch": 64, "duration": 6, "velocity": 57}, {"time": 314, "pitch": 40, "duration": 37, "velocity": 47}, {"time": 314, "pitch": 52, "duration": 7, "velocity": 51}, {"time": 322, "pitch": 52, "duration": 4, "velocity": 58}, {"time": 325, "pitch": 64, "duration": 6, "velocity": 80}, {"time": 326, "pitch": 55, "duration": 5, "velocity": 79}, {"time": 326, "pitch": 59, "duration": 5, "velocity": 76}, {"time": 331, "pitch": 52, "duration": 8, "velocity": 61}, {"time": 334, "pitch": 64, "duration": 2, "velocity": 76}, {"time": 334, "pitch": 59, "duration": 2, "velocity": 75}, {"time": 334, "pitch": 55, "duration": 2, "velocity": 83}, {"time": 340, "pitch": 55, "duration": 3, "velocity": 81}, {"time": 340, "pitch": 64, "duration": 3, "velocity": 72}, {"time": 340, "pitch": 59, "duration": 3, "velocity": 76}, {"time": 343, "pitch": 52, "duration": 6, "velocity": 68}, {"time": 349, "pitch": 55, "duration": 4, "velocity": 91}, {"time": 349, "pitch": 59, "duration": 4, "velocity": 84}, {"time": 349, "pitch": 64, "duration": 5, "velocity": 80}, {"time": 351, "pitch": 52, "duration": 4, "velocity": 53}, {"time": 355, "pitch": 40, "duration": 1, "velocity": 65}, {"time": 361, "pitch": 60, "duration": 7, "velocity": 63}, {"time": 361, "pitch": 64, "duration": 7, "velocity": 65}, {"time": 361, "pitch": 57, "duration": 7, "velocity": 63}, {"time": 361, "pitch": 45, "duration": 40, "velocity": 54}, {"time": 361, "pitch": 52, "duration": 7, "velocity": 54}, {"time": 370, "pitch": 52, "duration": 18, "velocity": 46}, {"time": 373, "pitch": 60, "duration": 4, "velocity": 81}, {"time": 373, "pitch": 64, "duration": 4, "velocity": 79}, {"time": 373, "pitch": 57, "duration": 4, "velocity": 84}, {"time": 382, "pitch": 57, "duration": 3, "velocity": 72}, {"time": 382, "pitch": 64, "duration": 3, "velocity": 67}, {"time": 382, "pitch": 60, "duration": 3, "velocity": 69}, {"time": 389, "pitch": 57, "duration": 2, "velocity": 75}, {"time": 389, "pitch": 60, "duration": 2, "velocity": 75}, {"time": 389, "pitch": 64, "duration": 2, "velocity": 72}, {"time": 391, "pitch": 52, "duration": 7, "velocity": 80}, {"time": 397, "pitch": 57, "duration": 4, "velocity": 88}, {"time": 397, "pitch": 60, "duration": 4, "velocity": 83}, {"time": 397, "pitch": 64, "duration": 4, "velocity": 84}, {"time": 400, "pitch": 52, "duration": 4, "velocity": 72}, {"time": 403, "pitch": 45, "duration": 1, "velocity": 63}, {"time": 409, "pitch": 66, "duration": 6, "velocity": 80}, {"time": 409, "pitch": 38, "duration": 39, "velocity": 69}, {"time": 409, "pitch": 57, "duration": 6, "velocity": 67}, {"time": 409, "pitch": 62, "duration": 6, "velocity": 69}, {"time": 409, "pitch": 50, "duration": 19, "velocity": 63}, {"time": 419, "pitch": 67, "duration": 2, "velocity": 79}, {"time": 419, "pitch": 57, "duration": 2, "velocity": 74}, {"time": 419, "pitch": 62, "duration": 2, "velocity": 67}, {"time": 427, "pitch": 69, "duration": 5, "velocity": 90}, {"time": 427, "pitch": 57, "duration": 5, "velocity": 85}, {"time": 427, "pitch": 62, "duration": 5, "velocity": 79}, {"time": 437, "pitch": 57, "duration": 3, "velocity": 84}, {"time": 437, "pitch": 66, "duration": 3, "velocity": 84}, {"time": 437, "pitch": 62, "duration": 3, "velocity": 72}, {"time": 439, "pitch": 50, "duration": 7, "velocity": 67}, {"time": 445, "pitch": 57, "duration": 3, "velocity": 84}, {"time": 445, "pitch": 64, "duration": 4, "velocity": 75}, {"time": 448, "pitch": 50, "duration": 5, "velocity": 45}, {"time": 451, "pitch": 57, "duration": 2, "velocity": 53}, {"time": 451, "pitch": 62, "duration": 1, "velocity": 63}, {"time": 458, "pitch": 67, "duration": 6, "velocity": 52}, {"time": 458, "pitch": 59, "duration": 6, "velocity": 47}, {"time": 458, "pitch": 62, "duration": 6, "velocity": 47}, {"time": 458, "pitch": 43, "duration": 38, "velocity": 47}, {"time": 458, "pitch": 55, "duration": 3, "velocity": 42}, {"time": 466, "pitch": 55, "duration": 4, "velocity": 28}, {"time": 470, "pitch": 67, "duration": 6, "velocity": 53}, {"time": 470, "pitch": 59, "duration": 6, "velocity": 44}, {"time": 470, "pitch": 62, "duration": 6, "velocity": 48}, {"time": 476, "pitch": 55, "duration": 2, "velocity": 39}, {"time": 479, "pitch": 59, "duration": 3, "velocity": 53}, {"time": 479, "pitch": 67, "duration": 3, "velocity": 63}, {"time": 479, "pitch": 62, "duration": 3, "velocity": 50}, {"time": 484, "pitch": 59, "duration": 4, "velocity": 43}, {"time": 485, "pitch": 62, "duration": 3, "velocity": 45}, {"time": 485, "pitch": 67, "duration": 3, "velocity": 51}, {"time": 488, "pitch": 55, "duration": 5, "velocity": 47}, {"time": 493, "pitch": 67, "duration": 6, "velocity": 60}, {"time": 493, "pitch": 59, "duration": 4, "velocity": 53}, {"time": 493, "pitch": 62, "duration": 5, "velocity": 54}, {"time": 496, "pitch": 55, "duration": 2, "velocity": 56}, {"time": 499, "pitch": 43, "duration": 1, "velocity": 56}, {"time": 505, "pitch": 55, "duration": 7, "velocity": 50}, {"time": 505, "pitch": 64, "duration": 7, "velocity": 61}, {"time": 506, "pitch": 59, "duration": 6, "velocity": 53}, {"time": 506, "pitch": 40, "duration": 37, "velocity": 42}, {"time": 506, "pitch": 52, "duration": 5, "velocity": 32}, {"time": 513, "pitch": 52, "duration": 2, "velocity": 39}, {"time": 518, "pitch": 59, "duration": 5, "velocity": 58}, {"time": 518, "pitch": 64, "duration": 5, "velocity": 55}, {"time": 518, "pitch": 55, "duration": 5, "velocity": 51}, {"time": 524, "pitch": 52, "duration": 2, "velocity": 34}, {"time": 526, "pitch": 64, "duration": 3, "velocity": 56}, {"time": 527, "pitch": 59, "duration": 2, "velocity": 51}, {"time": 527, "pitch": 55, "duration": 2, "velocity": 44}, {"time": 532, "pitch": 64, "duration": 3, "velocity": 55}, {"time": 532, "pitch": 59, "duration": 3, "velocity": 58}, {"time": 532, "pitch": 55, "duration": 3, "velocity": 53}, {"time": 535, "pitch": 52, "duration": 6, "velocity": 59}, {"time": 541, "pitch": 55, "duration": 4, "velocity": 67}, {"time": 541, "pitch": 59, "duration": 4, "velocity": 65}, {"time": 541, "pitch": 64, "duration": 5, "velocity": 63}, {"time": 544, "pitch": 52, "duration": 2, "velocity": 39}, {"time": 547, "pitch": 40, "duration": 1, "velocity": 58}, {"time": 553, "pitch": 57, "duration": 8, "velocity": 51}, {"time": 553, "pitch": 60, "duration": 8, "velocity": 48}, {"time": 553, "pitch": 64, "duration": 8, "velocity": 55}, {"time": 553, "pitch": 52, "duration": 7, "velocity": 41}, {"time": 553, "pitch": 45, "duration": 40, "velocity": 47}, {"time": 563, "pitch": 52, "duration": 13, "velocity": 44}, {"time": 566, "pitch": 57, "duration": 3, "velocity": 72}, {"time": 566, "pitch": 60, "duration": 3, "velocity": 68}, {"time": 566, "pitch": 64, "duration": 3, "velocity": 71}, {"time": 575, "pitch": 57, "duration": 10, "velocity": 53}, {"time": 575, "pitch": 60, "duration": 11, "velocity": 54}, {"time": 575, "pitch": 64, "duration": 11, "velocity": 55}, {"time": 587, "pitch": 52, "duration": 3, "velocity": 61}, {"time": 590, "pitch": 57, "duration": 4, "velocity": 68}, {"time": 590, "pitch": 60, "duration": 4, "velocity": 64}, {"time": 590, "pitch": 64, "duration": 3, "velocity": 67}, {"time": 593, "pitch": 52, "duration": 2, "velocity": 47}, {"time": 596, "pitch": 45, "duration": 1, "velocity": 51}, {"time": 602, "pitch": 66, "duration": 7, "velocity": 55}, {"time": 602, "pitch": 57, "duration": 7, "velocity": 42}, {"time": 602, "pitch": 38, "duration": 38, "velocity": 43}, {"time": 602, "pitch": 62, "duration": 6, "velocity": 52}, {"time": 602, "pitch": 50, "duration": 6, "velocity": 45}, {"time": 611, "pitch": 50, "duration": 3, "velocity": 58}, {"time": 614, "pitch": 67, "duration": 4, "velocity": 71}, {"time": 614, "pitch": 57, "duration": 4, "velocity": 65}, {"time": 614, "pitch": 62, "duration": 4, "velocity": 59}, {"time": 620, "pitch": 50, "duration": 1, "velocity": 47}, {"time": 623, "pitch": 69, "duration": 3, "velocity": 74}, {"time": 623, "pitch": 62, "duration": 2, "velocity": 57}, {"time": 623, "pitch": 57, "duration": 3, "velocity": 63}, {"time": 628, "pitch": 57, "duration": 4, "velocity": 53}, {"time": 628, "pitch": 66, "duration": 4, "velocity": 60}, {"time": 629, "pitch": 62, "duration": 3, "velocity": 49}, {"time": 632, "pitch": 50, "duration": 6, "velocity": 42}, {"time": 638, "pitch": 67, "duration": 3, "velocity": 66}, {"time": 638, "pitch": 57, "duration": 3, "velocity": 67}, {"time": 638, "pitch": 62, "duration": 3, "velocity": 56}, {"time": 640, "pitch": 50, "duration": 2, "velocity": 47}, {"time": 643, "pitch": 66, "duration": 2, "velocity": 58}, {"time": 644, "pitch": 62, "duration": 1, "velocity": 34}, {"time": 644, "pitch": 57, "duration": 1, "velocity": 59}, {"time": 644, "pitch": 38, "duration": 1, "velocity": 52}, {"time": 650, "pitch": 47, "duration": 41, "velocity": 56}, {"time": 650, "pitch": 59, "duration": 7, "velocity": 63}, {"time": 650, "pitch": 66, "duration": 6, "velocity": 74}, {"time": 650, "pitch": 62, "duration": 6, "velocity": 44}, {"time": 659, "pitch": 54, "duration": 4, "velocity": 45}, {"time": 662, "pitch": 71, "duration": 4, "velocity": 71}, {"time": 662, "pitch": 59, "duration": 4, "velocity": 72}, {"time": 662, "pitch": 62, "duration": 4, "velocity": 59}, {"time": 662, "pitch": 66, "duration": 5, "velocity": 58}, {"time": 668, "pitch": 54, "duration": 4, "velocity": 39}, {"time": 671, "pitch": 69, "duration": 5, "velocity": 62}, {"time": 671, "pitch": 59, "duration": 5, "velocity": 56}, {"time": 671, "pitch": 62, "duration": 5, "velocity": 47}, {"time": 677, "pitch": 59, "duration": 5, "velocity": 68}, {"time": 677, "pitch": 67, "duration": 5, "velocity": 67}, {"time": 677, "pitch": 62, "duration": 5, "velocity": 62}, {"time": 683, "pitch": 54, "duration": 3, "velocity": 62}, {"time": 685, "pitch": 66, "duration": 6, "velocity": 70}, {"time": 685, "pitch": 59, "duration": 4, "velocity": 63}, {"time": 686, "pitch": 62, "duration": 4, "velocity": 54}, {"time": 689, "pitch": 54, "duration": 3, "velocity": 59}, {"time": 691, "pitch": 59, "duration": 2, "velocity": 68}, {"time": 691, "pitch": 67, "duration": 1, "velocity": 63}, {"time": 692, "pitch": 62, "duration": 1, "velocity": 43}, {"time": 698, "pitch": 40, "duration": 40, "velocity": 55}, {"time": 698, "pitch": 55, "duration": 7, "velocity": 56}, {"time": 698, "pitch": 64, "duration": 7, "velocity": 61}, {"time": 698, "pitch": 59, "duration": 7, "velocity": 53}, {"time": 698, "pitch": 52, "duration": 6, "velocity": 52}, {"time": 707, "pitch": 52, "duration": 2, "velocity": 35}, {"time": 710, "pitch": 64, "duration": 5, "velocity": 63}, {"time": 710, "pitch": 55, "duration": 5, "velocity": 67}, {"time": 710, "pitch": 59, "duration": 5, "velocity": 61}, {"time": 716, "pitch": 52, "duration": 2, "velocity": 39}, {"time": 719, "pitch": 55, "duration": 2, "velocity": 52}, {"time": 719, "pitch": 64, "duration": 3, "velocity": 46}, {"time": 719, "pitch": 59, "duration": 3, "velocity": 50}, {"time": 726, "pitch": 55, "duration": 4, "velocity": 59}, {"time": 726, "pitch": 59, "duration": 4, "velocity": 51}, {"time": 726, "pitch": 64, "duration": 5, "velocity": 54}, {"time": 732, "pitch": 52, "duration": 1, "velocity": 55}, {"time": 734, "pitch": 64, "duration": 7, "velocity": 64}, {"time": 734, "pitch": 55, "duration": 6, "velocity": 67}, {"time": 734, "pitch": 59, "duration": 6, "velocity": 61}, {"time": 740, "pitch": 52, "duration": 1, "velocity": 67}, {"time": 746, "pitch": 57, "duration": 7, "velocity": 59}, {"time": 746, "pitch": 60, "duration": 7, "velocity": 61}, {"time": 746, "pitch": 64, "duration": 7, "velocity": 65}, {"time": 746, "pitch": 45, "duration": 39, "velocity": 61}, {"time": 746, "pitch": 52, "duration": 6, "velocity": 62}, {"time": 755, "pitch": 52, "duration": 5, "velocity": 43}, {"time": 758, "pitch": 57, "duration": 3, "velocity": 75}, {"time": 758, "pitch": 60, "duration": 4, "velocity": 74}, {"time": 758, "pitch": 64, "duration": 4, "velocity": 77}, {"time": 764, "pitch": 52, "duration": 12, "velocity": 49}, {"time": 767, "pitch": 57, "duration": 2, "velocity": 68}, {"time": 767, "pitch": 60, "duration": 2, "velocity": 64}, {"time": 767, "pitch": 64, "duration": 3, "velocity": 69}, {"time": 776, "pitch": 60, "duration": 7, "velocity": 67}, {"time": 776, "pitch": 57, "duration": 7, "velocity": 67}, {"time": 776, "pitch": 64, "duration": 7, "velocity": 68}, {"time": 782, "pitch": 52, "duration": 6, "velocity": 67}, {"time": 785, "pitch": 64, "duration": 3, "velocity": 52}, {"time": 785, "pitch": 60, "duration": 3, "velocity": 49}, {"time": 785, "pitch": 57, "duration": 3, "velocity": 47}, {"time": 788, "pitch": 45, "duration": 1, "velocity": 56}, {"time": 794, "pitch": 57, "duration": 6, "velocity": 53}, {"time": 794, "pitch": 66, "duration": 6, "velocity": 63}, {"time": 794, "pitch": 38, "duration": 38, "velocity": 57}, {"time": 794, "pitch": 62, "duration": 6, "velocity": 61}, {"time": 794, "pitch": 50, "duration": 6, "velocity": 50}, {"time": 802, "pitch": 50, "duration": 4, "velocity": 52}, {"time": 805, "pitch": 67, "duration": 6, "velocity": 76}, {"time": 806, "pitch": 57, "duration": 5, "velocity": 76}, {"time": 806, "pitch": 62, "duration": 5, "velocity": 64}, {"time": 812, "pitch": 50, "duration": 2, "velocity": 47}, {"time": 814, "pitch": 69, "duration": 4, "velocity": 68}, {"time": 815, "pitch": 57, "duration": 3, "velocity": 59}, {"time": 815, "pitch": 62, "duration": 3, "velocity": 56}, {"time": 820, "pitch": 66, "duration": 4, "velocity": 67}, {"time": 820, "pitch": 57, "duration": 4, "velocity": 56}, {"time": 820, "pitch": 62, "duration": 4, "velocity": 43}, {"time": 823, "pitch": 50, "duration": 6, "velocity": 61}, {"time": 829, "pitch": 64, "duration": 7, "velocity": 69}, {"time": 829, "pitch": 57, "duration": 3, "velocity": 62}, {"time": 831, "pitch": 50, "duration": 2, "velocity": 46}, {"time": 835, "pitch": 57, "duration": 1, "velocity": 48}, {"time": 835, "pitch": 62, "duration": 2, "velocity": 54}, {"time": 835, "pitch": 38, "duration": 1, "velocity": 61}, {"time": 842, "pitch": 59, "duration": 7, "velocity": 56}, {"time": 842, "pitch": 67, "duration": 7, "velocity": 60}, {"time": 842, "pitch": 62, "duration": 8, "velocity": 55}, {"time": 842, "pitch": 55, "duration": 7, "velocity": 40}, {"time": 842, "pitch": 43, "duration": 38, "velocity": 31}, {"time": 850, "pitch": 55, "duration": 5, "velocity": 51}, {"time": 854, "pitch": 59, "duration": 5, "velocity": 67}, {"time": 854, "pitch": 67, "duration": 6, "velocity": 68}, {"time": 854, "pitch": 62, "duration": 6, "velocity": 63}, {"time": 860, "pitch": 55, "duration": 8, "velocity": 40}, {"time": 863, "pitch": 59, "duration": 2, "velocity": 45}, {"time": 863, "pitch": 67, "duration": 2, "velocity": 53}, {"time": 863, "pitch": 62, "duration": 2, "velocity": 62}, {"time": 868, "pitch": 59, "duration": 3, "velocity": 56}, {"time": 868, "pitch": 67, "duration": 3, "velocity": 54}, {"time": 869, "pitch": 62, "duration": 2, "velocity": 62}, {"time": 871, "pitch": 55, "duration": 6, "velocity": 62}, {"time": 877, "pitch": 59, "duration": 3, "velocity": 68}, {"time": 877, "pitch": 67, "duration": 4, "velocity": 67}, {"time": 877, "pitch": 62, "duration": 4, "velocity": 64}, {"time": 880, "pitch": 55, "duration": 2, "velocity": 56}, {"time": 883, "pitch": 43, "duration": 1, "velocity": 63}, {"time": 889, "pitch": 59, "duration": 6, "velocity": 59}, {"time": 889, "pitch": 64, "duration": 7, "velocity": 63}, {"time": 889, "pitch": 40, "duration": 40, "velocity": 54}, {"time": 889, "pitch": 55, "duration": 6, "velocity": 54}, {"time": 889, "pitch": 52, "duration": 6, "velocity": 41}, {"time": 898, "pitch": 52, "duration": 4, "velocity": 45}, {"time": 901, "pitch": 59, "duration": 5, "velocity": 65}, {"time": 902, "pitch": 64, "duration": 4, "velocity": 67}, {"time": 902, "pitch": 55, "duration": 4, "velocity": 63}, {"time": 907, "pitch": 52, "duration": 3, "velocity": 30}, {"time": 911, "pitch": 64, "duration": 3, "velocity": 59}, {"time": 911, "pitch": 55, "duration": 3, "velocity": 52}, {"time": 911, "pitch": 59, "duration": 3, "velocity": 54}, {"time": 916, "pitch": 59, "duration": 2, "velocity": 44}, {"time": 916, "pitch": 64, "duration": 3, "velocity": 53}, {"time": 916, "pitch": 55, "duration": 2, "velocity": 53}, {"time": 920, "pitch": 62, "duration": 1, "velocity": 59}, {"time": 920, "pitch": 55, "duration": 1, "velocity": 47}, {"time": 926, "pitch": 55, "duration": 5, "velocity": 68}, {"time": 926, "pitch": 64, "duration": 6, "velocity": 65}, {"time": 926, "pitch": 59, "duration": 5, "velocity": 63}, {"time": 929, "pitch": 52, "duration": 3, "velocity": 51}, {"time": 932, "pitch": 40, "duration": 1, "velocity": 56}, {"time": 938, "pitch": 60, "duration": 7, "velocity": 58}, {"time": 938, "pitch": 64, "duration": 7, "velocity": 58}, {"time": 938, "pitch": 45, "duration": 38, "velocity": 58}, {"time": 938, "pitch": 57, "duration": 7, "velocity": 47}, {"time": 938, "pitch": 52, "duration": 6, "velocity": 51}, {"time": 947, "pitch": 52, "duration": 6, "velocity": 42}, {"time": 950, "pitch": 57, "duration": 5, "velocity": 67}, {"time": 950, "pitch": 60, "duration": 6, "velocity": 67}, {"time": 950, "pitch": 64, "duration": 6, "velocity": 63}, {"time": 956, "pitch": 52, "duration": 9, "velocity": 39}, {"time": 959, "pitch": 57, "duration": 2, "velocity": 56}, {"time": 959, "pitch": 60, "duration": 2, "velocity": 65}, {"time": 959, "pitch": 64, "duration": 2, "velocity": 56}, {"time": 965, "pitch": 60, "duration": 3, "velocity": 67}, {"time": 965, "pitch": 57, "duration": 3, "velocity": 63}, {"time": 965, "pitch": 64, "duration": 3, "velocity": 59}, {"time": 968, "pitch": 52, "duration": 5, "velocity": 59}, {"time": 974, "pitch": 57, "duration": 4, "velocity": 74}, {"time": 974, "pitch": 64, "duration": 2, "velocity": 65}, {"time": 974, "pitch": 60, "duration": 3, "velocity": 68}, {"time": 976, "pitch": 52, "duration": 4, "velocity": 53}, {"time": 979, "pitch": 45, "duration": 1, "velocity": 56}, {"time": 986, "pitch": 66, "duration": 5, "velocity": 55}, {"time": 986, "pitch": 57, "duration": 6, "velocity": 45}, {"time": 986, "pitch": 38, "duration": 38, "velocity": 58}, {"time": 986, "pitch": 50, "duration": 5, "velocity": 56}, {"time": 986, "pitch": 62, "duration": 5, "velocity": 54}, {"time": 994, "pitch": 50, "duration": 4, "velocity": 56}, {"time": 998, "pitch": 67, "duration": 4, "velocity": 76}, {"time": 998, "pitch": 57, "duration": 4, "velocity": 71}, {"time": 998, "pitch": 62, "duration": 4, "velocity": 58}, {"time": 1004, "pitch": 50, "duration": 2, "velocity": 46}, {"time": 1007, "pitch": 57, "duration": 4, "velocity": 67}, {"time": 1007, "pitch": 69, "duration": 4, "velocity": 63}, {"time": 1007, "pitch": 62, "duration": 4, "velocity": 55}, {"time": 1012, "pitch": 50, "duration": 3, "velocity": 52}, {"time": 1015, "pitch": 66, "duration": 3, "velocity": 71}, {"time": 1015, "pitch": 57, "duration": 3, "velocity": 63}, {"time": 1015, "pitch": 62, "duration": 2, "velocity": 55}, {"time": 1018, "pitch": 50, "duration": 3, "velocity": 50}, {"time": 1021, "pitch": 64, "duration": 4, "velocity": 71}, {"time": 1021, "pitch": 57, "duration": 3, "velocity": 75}, {"time": 1024, "pitch": 50, "duration": 2, "velocity": 67}, {"time": 1027, "pitch": 62, "duration": 2, "velocity": 67}, {"time": 1027, "pitch": 57, "duration": 1, "velocity": 63}, {"time": 1028, "pitch": 38, "duration": 1, "velocity": 58}, {"time": 1034, "pitch": 66, "duration": 7, "velocity": 61}, {"time": 1034, "pitch": 71, "duration": 7, "velocity": 58}, {"time": 1034, "pitch": 62, "duration": 6, "velocity": 56}, {"time": 1034, "pitch": 47, "duration": 37, "velocity": 58}, {"time": 1042, "pitch": 59, "duration": 12, "velocity": 50}, {"time": 1045, "pitch": 62, "duration": 6, "velocity": 84}, {"time": 1045, "pitch": 71, "duration": 6, "velocity": 83}, {"time": 1046, "pitch": 66, "duration": 5, "velocity": 78}, {"time": 1051, "pitch": 54, "duration": 16, "velocity": 44}, {"time": 1054, "pitch": 62, "duration": 3, "velocity": 61}, {"time": 1054, "pitch": 71, "duration": 3, "velocity": 54}, {"time": 1054, "pitch": 66, "duration": 3, "velocity": 64}, {"time": 1060, "pitch": 62, "duration": 3, "velocity": 79}, {"time": 1060, "pitch": 66, "duration": 3, "velocity": 75}, {"time": 1060, "pitch": 71, "duration": 4, "velocity": 83}, {"time": 1063, "pitch": 59, "duration": 10, "velocity": 75}, {"time": 1069, "pitch": 71, "duration": 3, "velocity": 76}, {"time": 1069, "pitch": 62, "duration": 3, "velocity": 75}, {"time": 1069, "pitch": 66, "duration": 3, "velocity": 73}, {"time": 1072, "pitch": 54, "duration": 3, "velocity": 63}, {"time": 1075, "pitch": 47, "duration": 1, "velocity": 57}, {"time": 1081, "pitch": 40, "duration": 40, "velocity": 54}, {"time": 1081, "pitch": 55, "duration": 7, "velocity": 56}, {"time": 1081, "pitch": 59, "duration": 7, "velocity": 53}, {"time": 1081, "pitch": 64, "duration": 7, "velocity": 56}, {"time": 1081, "pitch": 52, "duration": 7, "velocity": 46}, {"time": 1090, "pitch": 52, "duration": 6, "velocity": 47}, {"time": 1094, "pitch": 55, "duration": 5, "velocity": 69}, {"time": 1094, "pitch": 59, "duration": 5, "velocity": 71}, {"time": 1094, "pitch": 64, "duration": 5, "velocity": 71}, {"time": 1100, "pitch": 52, "duration": 8, "velocity": 41}, {"time": 1103, "pitch": 59, "duration": 1, "velocity": 63}, {"time": 1103, "pitch": 64, "duration": 2, "velocity": 68}, {"time": 1103, "pitch": 55, "duration": 1, "velocity": 68}, {"time": 1106, "pitch": 64, "duration": 6, "velocity": 69}, {"time": 1106, "pitch": 59, "duration": 6, "velocity": 67}, {"time": 1106, "pitch": 55, "duration": 6, "velocity": 59}, {"time": 1112, "pitch": 52, "duration": 6, "velocity": 62}, {"time": 1118, "pitch": 55, "duration": 4, "velocity": 84}, {"time": 1118, "pitch": 59, "duration": 4, "velocity": 75}, {"time": 1118, "pitch": 64, "duration": 5, "velocity": 71}, {"time": 1121, "pitch": 52, "duration": 2, "velocity": 59}, {"time": 1124, "pitch": 40, "duration": 1, "velocity": 68}, {"time": 1130, "pitch": 57, "duration": 8, "velocity": 59}, {"time": 1130, "pitch": 60, "duration": 8, "velocity": 59}, {"time": 1130, "pitch": 64, "duration": 8, "velocity": 58}, {"time": 1130, "pitch": 45, "duration": 39, "velocity": 63}, {"time": 1130, "pitch": 52, "duration": 6, "velocity": 57}, {"time": 1140, "pitch": 52, "duration": 3, "velocity": 59}, {"time": 1143, "pitch": 57, "duration": 5, "velocity": 79}, {"time": 1143, "pitch": 60, "duration": 5, "velocity": 76}, {"time": 1143, "pitch": 64, "duration": 5, "velocity": 77}, {"time": 1148, "pitch": 52, "duration": 9, "velocity": 43}, {"time": 1151, "pitch": 57, "duration": 2, "velocity": 63}, {"time": 1151, "pitch": 64, "duration": 3, "velocity": 69}, {"time": 1151, "pitch": 60, "duration": 2, "velocity": 67}, {"time": 1157, "pitch": 60, "duration": 3, "velocity": 76}, {"time": 1157, "pitch": 64, "duration": 3, "velocity": 68}, {"time": 1157, "pitch": 57, "duration": 3, "velocity": 75}, {"time": 1160, "pitch": 52, "duration": 6, "velocity": 64}, {"time": 1166, "pitch": 64, "duration": 4, "velocity": 76}, {"time": 1166, "pitch": 57, "duration": 6, "velocity": 83}, {"time": 1166, "pitch": 60, "duration": 5, "velocity": 75}, {"time": 1168, "pitch": 52, "duration": 4, "velocity": 59}, {"time": 1172, "pitch": 45, "duration": 1, "velocity": 74}, {"time": 1178, "pitch": 66, "duration": 5, "velocity": 86}, {"time": 1178, "pitch": 57, "duration": 5, "velocity": 79}, {"time": 1178, "pitch": 38, "duration": 38, "velocity": 77}, {"time": 1178, "pitch": 50, "duration": 5, "velocity": 67}, {"time": 1178, "pitch": 62, "duration": 5, "velocity": 69}, {"time": 1187, "pitch": 50, "duration": 4, "velocity": 64}, {"time": 1190, "pitch": 64, "duration": 5, "velocity": 76}, {"time": 1190, "pitch": 57, "duration": 4, "velocity": 77}, {"time": 1196, "pitch": 50, "duration": 4, "velocity": 55}, {"time": 1199, "pitch": 62, "duration": 4, "velocity": 88}, {"time": 1199, "pitch": 57, "duration": 4, "velocity": 85}, {"time": 1204, "pitch": 57, "duration": 4, "velocity": 59}, {"time": 1204, "pitch": 64, "duration": 4, "velocity": 68}, {"time": 1207, "pitch": 50, "duration": 7, "velocity": 63}, {"time": 1213, "pitch": 57, "duration": 3, "velocity": 84}, {"time": 1213, "pitch": 66, "duration": 4, "velocity": 84}, {"time": 1216, "pitch": 50, "duration": 2, "velocity": 50}, {"time": 1219, "pitch": 69, "duration": 2, "velocity": 73}, {"time": 1219, "pitch": 38, "duration": 1, "velocity": 67}, {"time": 1219, "pitch": 57, "duration": 1, "velocity": 61}, {"time": 1220, "pitch": 62, "duration": 1, "velocity": 45}, {"time": 1226, "pitch": 59, "duration": 7, "velocity": 76}, {"time": 1226, "pitch": 67, "duration": 7, "velocity": 71}, {"time": 1226, "pitch": 55, "duration": 6, "velocity": 58}, {"time": 1226, "pitch": 62, "duration": 8, "velocity": 65}, {"time": 1226, "pitch": 43, "duration": 39, "velocity": 63}, {"time": 1235, "pitch": 55, "duration": 4, "velocity": 61}, {"time": 1238, "pitch": 59, "duration": 5, "velocity": 84}, {"time": 1238, "pitch": 62, "duration": 5, "velocity": 79}, {"time": 1238, "pitch": 67, "duration": 5, "velocity": 87}, {"time": 1244, "pitch": 55, "duration": 1, "velocity": 51}, {"time": 1247, "pitch": 59, "duration": 2, "velocity": 64}, {"time": 1247, "pitch": 67, "duration": 2, "velocity": 68}, {"time": 1247, "pitch": 62, "duration": 2, "velocity": 63}, {"time": 1253, "pitch": 62, "duration": 2, "velocity": 72}, {"time": 1253, "pitch": 67, "duration": 2, "velocity": 73}, {"time": 1253, "pitch": 59, "duration": 2, "velocity": 77}, {"time": 1256, "pitch": 55, "duration": 6, "velocity": 58}, {"time": 1261, "pitch": 67, "duration": 7, "velocity": 82}, {"time": 1262, "pitch": 59, "duration": 4, "velocity": 80}, {"time": 1262, "pitch": 62, "duration": 4, "velocity": 75}, {"time": 1264, "pitch": 55, "duration": 3, "velocity": 49}, {"time": 1268, "pitch": 43, "duration": 1, "velocity": 68}, {"time": 1274, "pitch": 55, "duration": 6, "velocity": 63}, {"time": 1274, "pitch": 59, "duration": 6, "velocity": 62}, {"time": 1274, "pitch": 64, "duration": 6, "velocity": 67}, {"time": 1274, "pitch": 40, "duration": 40, "velocity": 63}, {"time": 1274, "pitch": 52, "duration": 5, "velocity": 45}, {"time": 1282, "pitch": 52, "duration": 4, "velocity": 58}, {"time": 1286, "pitch": 55, "duration": 3, "velocity": 79}, {"time": 1286, "pitch": 59, "duration": 4, "velocity": 68}, {"time": 1286, "pitch": 64, "duration": 4, "velocity": 62}, {"time": 1291, "pitch": 55, "duration": 2, "velocity": 41}, {"time": 1292, "pitch": 62, "duration": 1, "velocity": 47}, {"time": 1292, "pitch": 52, "duration": 3, "velocity": 45}, {"time": 1294, "pitch": 55, "duration": 5, "velocity": 55}, {"time": 1294, "pitch": 64, "duration": 5, "velocity": 67}, {"time": 1294, "pitch": 59, "duration": 5, "velocity": 69}, {"time": 1300, "pitch": 52, "duration": 3, "velocity": 63}, {"time": 1303, "pitch": 64, "duration": 4, "velocity": 71}, {"time": 1303, "pitch": 55, "duration": 3, "velocity": 83}, {"time": 1304, "pitch": 59, "duration": 3, "velocity": 65}, {"time": 1306, "pitch": 52, "duration": 4, "velocity": 69}, {"time": 1309, "pitch": 62, "duration": 6, "velocity": 74}, {"time": 1310, "pitch": 55, "duration": 4, "velocity": 80}, {"time": 1310, "pitch": 59, "duration": 4, "velocity": 69}, {"time": 1313, "pitch": 52, "duration": 4, "velocity": 62}, {"time": 1315, "pitch": 55, "duration": 2, "velocity": 64}, {"time": 1316, "pitch": 64, "duration": 2, "velocity": 77}, {"time": 1316, "pitch": 59, "duration": 1, "velocity": 62}, {"time": 1318, "pitch": 40, "duration": 1, "velocity": 72}, {"time": 1322, "pitch": 57, "duration": 8, "velocity": 71}, {"time": 1322, "pitch": 64, "duration": 8, "velocity": 64}, {"time": 1322, "pitch": 60, "duration": 8, "velocity": 62}, {"time": 1322, "pitch": 52, "duration": 7, "velocity": 68}, {"time": 1322, "pitch": 45, "duration": 38, "velocity": 50}, {"time": 1331, "pitch": 52, "duration": 4, "velocity": 65}, {"time": 1334, "pitch": 60, "duration": 4, "velocity": 80}, {"time": 1334, "pitch": 57, "duration": 4, "velocity": 87}, {"time": 1334, "pitch": 64, "duration": 4, "velocity": 77}, {"time": 1339, "pitch": 52, "duration": 10, "velocity": 46}, {"time": 1342, "pitch": 57, "duration": 2, "velocity": 58}, {"time": 1342, "pitch": 64, "duration": 2, "velocity": 55}, {"time": 1342, "pitch": 60, "duration": 1, "velocity": 58}, {"time": 1349, "pitch": 64, "duration": 3, "velocity": 69}, {"time": 1349, "pitch": 60, "duration": 2, "velocity": 72}, {"time": 1349, "pitch": 57, "duration": 3, "velocity": 69}, {"time": 1351, "pitch": 52, "duration": 6, "velocity": 69}, {"time": 1357, "pitch": 64, "duration": 3, "velocity": 76}, {"time": 1357, "pitch": 57, "duration": 5, "velocity": 80}, {"time": 1357, "pitch": 60, "duration": 5, "velocity": 75}, {"time": 1359, "pitch": 52, "duration": 4, "velocity": 51}, {"time": 1363, "pitch": 45, "duration": 1, "velocity": 63}, {"time": 1369, "pitch": 66, "duration": 8, "velocity": 66}, {"time": 1369, "pitch": 57, "duration": 8, "velocity": 53}, {"time": 1370, "pitch": 62, "duration": 6, "velocity": 56}, {"time": 1370, "pitch": 38, "duration": 34, "velocity": 65}, {"time": 1370, "pitch": 50, "duration": 6, "velocity": 56}, {"time": 1378, "pitch": 50, "duration": 4, "velocity": 59}, {"time": 1381, "pitch": 57, "duration": 6, "velocity": 81}, {"time": 1382, "pitch": 67, "duration": 5, "velocity": 74}, {"time": 1382, "pitch": 62, "duration": 5, "velocity": 69}, {"time": 1387, "pitch": 50, "duration": 5, "velocity": 47}, {"time": 1390, "pitch": 69, "duration": 5, "velocity": 80}, {"time": 1391, "pitch": 57, "duration": 4, "velocity": 68}, {"time": 1391, "pitch": 62, "duration": 4, "velocity": 61}, {"time": 1396, "pitch": 50, "duration": 4, "velocity": 75}, {"time": 1399, "pitch": 66, "duration": 4, "velocity": 86}, {"time": 1399, "pitch": 57, "duration": 4, "velocity": 83}, {"time": 1399, "pitch": 62, "duration": 4, "velocity": 72}, {"time": 1402, "pitch": 50, "duration": 7, "velocity": 64}, {"time": 1405, "pitch": 64, "duration": 7, "velocity": 80}, {"time": 1405, "pitch": 57, "duration": 4, "velocity": 72}, {"time": 1405, "pitch": 62, "duration": 1, "velocity": 44}, {"time": 1408, "pitch": 38, "duration": 4, "velocity": 85}, {"time": 1411, "pitch": 62, "duration": 1, "velocity": 72}, {"time": 1411, "pitch": 57, "duration": 2, "velocity": 67}, {"time": 1412, "pitch": 50, "duration": 1, "velocity": 77}, {"time": 1418, "pitch": 57, "duration": 8, "velocity": 59}, {"time": 1418, "pitch": 60, "duration": 8, "velocity": 63}, {"time": 1418, "pitch": 52, "duration": 6, "velocity": 59}, {"time": 1418, "pitch": 64, "duration": 8, "velocity": 63}, {"time": 1418, "pitch": 45, "duration": 20, "velocity": 53}, {"time": 1427, "pitch": 52, "duration": 4, "velocity": 54}, {"time": 1430, "pitch": 57, "duration": 7, "velocity": 71}, {"time": 1430, "pitch": 60, "duration": 7, "velocity": 68}, {"time": 1430, "pitch": 64, "duration": 7, "velocity": 67}, {"time": 1436, "pitch": 52, "duration": 5, "velocity": 58}, {"time": 1442, "pitch": 57, "duration": 7, "velocity": 80}, {"time": 1442, "pitch": 60, "duration": 7, "velocity": 76}, {"time": 1442, "pitch": 64, "duration": 7, "velocity": 81}, {"time": 1451, "pitch": 45, "duration": 6, "velocity": 69}, {"time": 1454, "pitch": 57, "duration": 3, "velocity": 80}, {"time": 1454, "pitch": 60, "duration": 3, "velocity": 81}, {"time": 1454, "pitch": 64, "duration": 3, "velocity": 77}, {"time": 1457, "pitch": 52, "duration": 3, "velocity": 74}, {"time": 1459, "pitch": 45, "duration": 1, "velocity": 59}, {"time": 1466, "pitch": 59, "duration": 7, "velocity": 71}, {"time": 1466, "pitch": 62, "duration": 7, "velocity": 71}, {"time": 1466, "pitch": 66, "duration": 7, "velocity": 71}, {"time": 1466, "pitch": 47, "duration": 15, "velocity": 62}, {"time": 1466, "pitch": 54, "duration": 5, "velocity": 67}, {"time": 1474, "pitch": 54, "duration": 4, "velocity": 72}, {"time": 1477, "pitch": 62, "duration": 4, "velocity": 76}, {"time": 1477, "pitch": 66, "duration": 4, "velocity": 79}, {"time": 1477, "pitch": 59, "duration": 3, "velocity": 79}, {"time": 1480, "pitch": 54, "duration": 3, "velocity": 53}, {"time": 1484, "pitch": 47, "duration": 1, "velocity": 47}, {"time": 1490, "pitch": 59, "duration": 7, "velocity": 64}, {"time": 1490, "pitch": 55, "duration": 7, "velocity": 62}, {"time": 1490, "pitch": 64, "duration": 7, "velocity": 63}, {"time": 1490, "pitch": 40, "duration": 15, "velocity": 57}, {"time": 1490, "pitch": 52, "duration": 5, "velocity": 54}, {"time": 1499, "pitch": 52, "duration": 3, "velocity": 63}, {"time": 1502, "pitch": 64, "duration": 5, "velocity": 79}, {"time": 1502, "pitch": 59, "duration": 4, "velocity": 80}, {"time": 1502, "pitch": 55, "duration": 3, "velocity": 87}, {"time": 1504, "pitch": 52, "duration": 4, "velocity": 61}, {"time": 1508, "pitch": 40, "duration": 1, "velocity": 63}, {"time": 1514, "pitch": 60, "duration": 7, "velocity": 69}, {"time": 1514, "pitch": 64, "duration": 7, "velocity": 69}, {"time": 1514, "pitch": 57, "duration": 6, "velocity": 72}, {"time": 1514, "pitch": 45, "duration": 18, "velocity": 57}, {"time": 1514, "pitch": 52, "duration": 4, "velocity": 61}, {"time": 1522, "pitch": 52, "duration": 5, "velocity": 72}, {"time": 1526, "pitch": 57, "duration": 8, "velocity": 81}, {"time": 1526, "pitch": 60, "duration": 8, "velocity": 80}, {"time": 1526, "pitch": 64, "duration": 8, "velocity": 76}, {"time": 1532, "pitch": 52, "duration": 3, "velocity": 55}, {"time": 1534, "pitch": 45, "duration": 19, "velocity": 44}, {"time": 1540, "pitch": 57, "duration": 4, "velocity": 76}, {"time": 1540, "pitch": 60, "duration": 4, "velocity": 79}, {"time": 1540, "pitch": 64, "duration": 4, "velocity": 71}, {"time": 1544, "pitch": 52, "duration": 6, "velocity": 83}, {"time": 1550, "pitch": 57, "duration": 5, "velocity": 88}, {"time": 1550, "pitch": 60, "duration": 5, "velocity": 87}, {"time": 1550, "pitch": 64, "duration": 5, "velocity": 81}, {"time": 1553, "pitch": 52, "duration": 3, "velocity": 63}, {"time": 1556, "pitch": 45, "duration": 1, "velocity": 50}, {"time": 1562, "pitch": 54, "duration": 4, "velocity": 84}, {"time": 1562, "pitch": 62, "duration": 3, "velocity": 85}, {"time": 1562, "pitch": 38, "duration": 24, "velocity": 72}, {"time": 1562, "pitch": 57, "duration": 4, "velocity": 79}, {"time": 1562, "pitch": 50, "duration": 4, "velocity": 67}, {"time": 1571, "pitch": 54, "duration": 2, "velocity": 76}, {"time": 1571, "pitch": 64, "duration": 2, "velocity": 77}, {"time": 1571, "pitch": 57, "duration": 2, "velocity": 72}, {"time": 1580, "pitch": 66, "duration": 4, "velocity": 80}, {"time": 1580, "pitch": 54, "duration": 4, "velocity": 79}, {"time": 1580, "pitch": 50, "duration": 3, "velocity": 63}, {"time": 1580, "pitch": 57, "duration": 5, "velocity": 67}, {"time": 1588, "pitch": 54, "duration": 3, "velocity": 80}, {"time": 1588, "pitch": 38, "duration": 3, "velocity": 67}, {"time": 1588, "pitch": 50, "duration": 2, "velocity": 81}, {"time": 1589, "pitch": 62, "duration": 3, "velocity": 69}, {"time": 1589, "pitch": 57, "duration": 3, "velocity": 59}, {"time": 1592, "pitch": 50, "duration": 1, "velocity": 71}, {"time": 1592, "pitch": 38, "duration": 2, "velocity": 84}, {"time": 1594, "pitch": 50, "duration": 2, "velocity": 87}, {"time": 1595, "pitch": 38, "duration": 1, "velocity": 85}, {"time": 1595, "pitch": 54, "duration": 1, "velocity": 68}, {"time": 1595, "pitch": 64, "duration": 1, "velocity": 62}, {"time": 1595, "pitch": 57, "duration": 1, "velocity": 47}, {"time": 1598, "pitch": 57, "duration": 2, "velocity": 63}, {"time": 1598, "pitch": 54, "duration": 2, "velocity": 85}, {"time": 1598, "pitch": 50, "duration": 2, "velocity": 91}, {"time": 1598, "pitch": 38, "duration": 1, "velocity": 95}, {"time": 1598, "pitch": 66, "duration": 1, "velocity": 86}, {"time": 1604, "pitch": 66, "duration": 2, "velocity": 101}, {"time": 1604, "pitch": 38, "duration": 1, "velocity": 88}, {"time": 1604, "pitch": 54, "duration": 1, "velocity": 88}, {"time": 1604, "pitch": 57, "duration": 1, "velocity": 59}, {"time": 1604, "pitch": 50, "duration": 1, "velocity": 68}, {"time": 1609, "pitch": 67, "duration": 7, "velocity": 79}, {"time": 1610, "pitch": 59, "duration": 6, "velocity": 72}, {"time": 1610, "pitch": 62, "duration": 6, "velocity": 71}, {"time": 1610, "pitch": 43, "duration": 38, "velocity": 63}, {"time": 1610, "pitch": 55, "duration": 4, "velocity": 59}, {"time": 1619, "pitch": 55, "duration": 4, "velocity": 28}, {"time": 1622, "pitch": 59, "duration": 5, "velocity": 74}, {"time": 1622, "pitch": 62, "duration": 6, "velocity": 74}, {"time": 1622, "pitch": 67, "duration": 5, "velocity": 75}, {"time": 1628, "pitch": 55, "duration": 2, "velocity": 39}, {"time": 1631, "pitch": 59, "duration": 3, "velocity": 71}, {"time": 1631, "pitch": 62, "duration": 3, "velocity": 65}, {"time": 1631, "pitch": 67, "duration": 3, "velocity": 67}, {"time": 1637, "pitch": 59, "duration": 2, "velocity": 67}, {"time": 1637, "pitch": 62, "duration": 2, "velocity": 72}, {"time": 1637, "pitch": 67, "duration": 2, "velocity": 75}, {"time": 1640, "pitch": 55, "duration": 5, "velocity": 61}, {"time": 1646, "pitch": 67, "duration": 7, "velocity": 78}, {"time": 1646, "pitch": 62, "duration": 4, "velocity": 72}, {"time": 1646, "pitch": 59, "duration": 4, "velocity": 69}, {"time": 1648, "pitch": 55, "duration": 2, "velocity": 61}, {"time": 1651, "pitch": 43, "duration": 1, "velocity": 68}, {"time": 1658, "pitch": 59, "duration": 5, "velocity": 62}, {"time": 1658, "pitch": 64, "duration": 6, "velocity": 62}, {"time": 1658, "pitch": 55, "duration": 6, "velocity": 63}, {"time": 1658, "pitch": 40, "duration": 43, "velocity": 63}, {"time": 1658, "pitch": 52, "duration": 13, "velocity": 56}, {"time": 1670, "pitch": 55, "duration": 4, "velocity": 77}, {"time": 1670, "pitch": 64, "duration": 5, "velocity": 72}, {"time": 1670, "pitch": 59, "duration": 5, "velocity": 68}, {"time": 1676, "pitch": 52, "duration": 3, "velocity": 50}, {"time": 1679, "pitch": 64, "duration": 3, "velocity": 74}, {"time": 1679, "pitch": 59, "duration": 3, "velocity": 67}, {"time": 1679, "pitch": 55, "duration": 3, "velocity": 72}, {"time": 1685, "pitch": 59, "duration": 2, "velocity": 51}, {"time": 1685, "pitch": 64, "duration": 2, "velocity": 61}, {"time": 1685, "pitch": 55, "duration": 1, "velocity": 68}, {"time": 1687, "pitch": 52, "duration": 6, "velocity": 63}, {"time": 1693, "pitch": 55, "duration": 3, "velocity": 76}, {"time": 1693, "pitch": 64, "duration": 3, "velocity": 71}, {"time": 1693, "pitch": 59, "duration": 4, "velocity": 63}, {"time": 1696, "pitch": 52, "duration": 3, "velocity": 65}, {"time": 1699, "pitch": 62, "duration": 2, "velocity": 67}, {"time": 1699, "pitch": 55, "duration": 1, "velocity": 67}, {"time": 1699, "pitch": 59, "duration": 2, "velocity": 30}, {"time": 1705, "pitch": 57, "duration": 7, "velocity": 68}, {"time": 1705, "pitch": 60, "duration": 8, "velocity": 67}, {"time": 1705, "pitch": 64, "duration": 8, "velocity": 71}, {"time": 1705, "pitch": 52, "duration": 6, "velocity": 79}, {"time": 1706, "pitch": 45, "duration": 39, "velocity": 71}, {"time": 1714, "pitch": 52, "duration": 13, "velocity": 56}, {"time": 1717, "pitch": 60, "duration": 3, "velocity": 76}, {"time": 1717, "pitch": 64, "duration": 4, "velocity": 72}, {"time": 1717, "pitch": 57, "duration": 3, "velocity": 74}, {"time": 1726, "pitch": 64, "duration": 5, "velocity": 74}, {"time": 1726, "pitch": 60, "duration": 6, "velocity": 71}, {"time": 1726, "pitch": 57, "duration": 5, "velocity": 65}, {"time": 1732, "pitch": 52, "duration": 3, "velocity": 53}, {"time": 1735, "pitch": 62, "duration": 3, "velocity": 68}, {"time": 1736, "pitch": 57, "duration": 2, "velocity": 57}, {"time": 1738, "pitch": 52, "duration": 4, "velocity": 63}, {"time": 1742, "pitch": 64, "duration": 2, "velocity": 75}, {"time": 1742, "pitch": 57, "duration": 2, "velocity": 76}, {"time": 1742, "pitch": 60, "duration": 3, "velocity": 68}, {"time": 1744, "pitch": 52, "duration": 4, "velocity": 51}, {"time": 1747, "pitch": 57, "duration": 2, "velocity": 67}, {"time": 1747, "pitch": 66, "duration": 2, "velocity": 78}, {"time": 1747, "pitch": 45, "duration": 1, "velocity": 47}, {"time": 1753, "pitch": 38, "duration": 40, "velocity": 71}, {"time": 1753, "pitch": 50, "duration": 7, "velocity": 64}, {"time": 1754, "pitch": 57, "duration": 6, "velocity": 72}, {"time": 1754, "pitch": 62, "duration": 6, "velocity": 50}, {"time": 1754, "pitch": 66, "duration": 3, "velocity": 57}, {"time": 1763, "pitch": 57, "duration": 4, "velocity": 85}, {"time": 1763, "pitch": 66, "duration": 4, "velocity": 94}, {"time": 1763, "pitch": 62, "duration": 4, "velocity": 67}, {"time": 1768, "pitch": 50, "duration": 4, "velocity": 59}, {"time": 1772, "pitch": 57, "duration": 3, "velocity": 90}, {"time": 1772, "pitch": 67, "duration": 3, "velocity": 87}, {"time": 1772, "pitch": 62, "duration": 3, "velocity": 72}, {"time": 1781, "pitch": 62, "duration": 5, "velocity": 88}, {"time": 1781, "pitch": 69, "duration": 5, "velocity": 95}, {"time": 1781, "pitch": 57, "duration": 5, "velocity": 90}, {"time": 1787, "pitch": 50, "duration": 3, "velocity": 84}, {"time": 1790, "pitch": 62, "duration": 3, "velocity": 74}, {"time": 1790, "pitch": 66, "duration": 4, "velocity": 84}, {"time": 1790, "pitch": 57, "duration": 3, "velocity": 87}, {"time": 1792, "pitch": 50, "duration": 3, "velocity": 59}, {"time": 1796, "pitch": 64, "duration": 1, "velocity": 67}, {"time": 1796, "pitch": 57, "duration": 1, "velocity": 72}, {"time": 1796, "pitch": 38, "duration": 1, "velocity": 68}, {"time": 1802, "pitch": 64, "duration": 7, "velocity": 63}, {"time": 1802, "pitch": 60, "duration": 7, "velocity": 58}, {"time": 1802, "pitch": 45, "duration": 42, "velocity": 59}, {"time": 1802, "pitch": 57, "duration": 7, "velocity": 59}, {"time": 1802, "pitch": 52, "duration": 6, "velocity": 59}, {"time": 1810, "pitch": 52, "duration": 5, "velocity": 63}, {"time": 1814, "pitch": 57, "duration": 3, "velocity": 87}, {"time": 1814, "pitch": 60, "duration": 3, "velocity": 84}, {"time": 1814, "pitch": 64, "duration": 3, "velocity": 80}, {"time": 1820, "pitch": 64, "duration": 1, "velocity": 54}, {"time": 1821, "pitch": 60, "duration": 1, "velocity": 38}, {"time": 1821, "pitch": 57, "duration": 1, "velocity": 23}, {"time": 1823, "pitch": 64, "duration": 5, "velocity": 65}, {"time": 1823, "pitch": 57, "duration": 5, "velocity": 76}, {"time": 1823, "pitch": 60, "duration": 6, "velocity": 80}, {"time": 1828, "pitch": 52, "duration": 4, "velocity": 81}, {"time": 1831, "pitch": 57, "duration": 5, "velocity": 84}, {"time": 1831, "pitch": 64, "duration": 5, "velocity": 80}, {"time": 1832, "pitch": 60, "duration": 4, "velocity": 88}, {"time": 1837, "pitch": 57, "duration": 6, "velocity": 77}, {"time": 1837, "pitch": 64, "duration": 6, "velocity": 75}, {"time": 1837, "pitch": 60, "duration": 6, "velocity": 77}, {"time": 1843, "pitch": 52, "duration": 1, "velocity": 79}, {"time": 1850, "pitch": 54, "duration": 5, "velocity": 68}, {"time": 1850, "pitch": 66, "duration": 7, "velocity": 79}, {"time": 1850, "pitch": 59, "duration": 7, "velocity": 74}, {"time": 1850, "pitch": 62, "duration": 7, "velocity": 72}, {"time": 1850, "pitch": 47, "duration": 15, "velocity": 59}, {"time": 1859, "pitch": 54, "duration": 3, "velocity": 56}, {"time": 1862, "pitch": 66, "duration": 4, "velocity": 87}, {"time": 1862, "pitch": 59, "duration": 4, "velocity": 85}, {"time": 1862, "pitch": 62, "duration": 4, "velocity": 79}, {"time": 1865, "pitch": 54, "duration": 3, "velocity": 69}, {"time": 1868, "pitch": 47, "duration": 1, "velocity": 45}, {"time": 1874, "pitch": 59, "duration": 6, "velocity": 67}, {"time": 1874, "pitch": 64, "duration": 6, "velocity": 67}, {"time": 1874, "pitch": 55, "duration": 7, "velocity": 67}, {"time": 1874, "pitch": 40, "duration": 16, "velocity": 54}, {"time": 1874, "pitch": 52, "duration": 5, "velocity": 43}, {"time": 1883, "pitch": 52, "duration": 3, "velocity": 67}, {"time": 1886, "pitch": 64, "duration": 4, "velocity": 79}, {"time": 1886, "pitch": 55, "duration": 2, "velocity": 84}, {"time": 1886, "pitch": 59, "duration": 4, "velocity": 79}, {"time": 1888, "pitch": 52, "duration": 6, "velocity": 56}, {"time": 1891, "pitch": 55, "duration": 2, "velocity": 67}, {"time": 1892, "pitch": 62, "duration": 2, "velocity": 63}, {"time": 1892, "pitch": 59, "duration": 1, "velocity": 36}, {"time": 1897, "pitch": 57, "duration": 8, "velocity": 83}, {"time": 1898, "pitch": 60, "duration": 7, "velocity": 68}, {"time": 1898, "pitch": 64, "duration": 7, "velocity": 72}, {"time": 1898, "pitch": 52, "duration": 6, "velocity": 74}, {"time": 1898, "pitch": 45, "duration": 40, "velocity": 59}, {"time": 1907, "pitch": 52, "duration": 13, "velocity": 55}, {"time": 1910, "pitch": 57, "duration": 3, "velocity": 71}, {"time": 1910, "pitch": 60, "duration": 3, "velocity": 76}, {"time": 1910, "pitch": 64, "duration": 3, "velocity": 80}, {"time": 1918, "pitch": 64, "duration": 7, "velocity": 65}, {"time": 1919, "pitch": 60, "duration": 6, "velocity": 63}, {"time": 1919, "pitch": 57, "duration": 6, "velocity": 64}, {"time": 1925, "pitch": 52, "duration": 3, "velocity": 68}, {"time": 1928, "pitch": 64, "duration": 3, "velocity": 77}, {"time": 1928, "pitch": 57, "duration": 3, "velocity": 76}, {"time": 1928, "pitch": 60, "duration": 3, "velocity": 72}, {"time": 1930, "pitch": 52, "duration": 4, "velocity": 77}, {"time": 1934, "pitch": 62, "duration": 2, "velocity": 83}, {"time": 1934, "pitch": 57, "duration": 3, "velocity": 69}, {"time": 1936, "pitch": 52, "duration": 5, "velocity": 76}, {"time": 1939, "pitch": 57, "duration": 2, "velocity": 83}, {"time": 1939, "pitch": 60, "duration": 1, "velocity": 75}, {"time": 1939, "pitch": 64, "duration": 1, "velocity": 75}, {"time": 1942, "pitch": 45, "duration": 1, "velocity": 72}, {"time": 1945, "pitch": 66, "duration": 6, "velocity": 86}, {"time": 1945, "pitch": 57, "duration": 6, "velocity": 84}, {"time": 1946, "pitch": 38, "duration": 38, "velocity": 83}, {"time": 1946, "pitch": 50, "duration": 4, "velocity": 84}, {"time": 1946, "pitch": 62, "duration": 5, "velocity": 72}, {"time": 1954, "pitch": 57, "duration": 3, "velocity": 59}, {"time": 1954, "pitch": 62, "duration": 3, "velocity": 54}, {"time": 1954, "pitch": 67, "duration": 2, "velocity": 74}, {"time": 1954, "pitch": 50, "duration": 17, "velocity": 48}, {"time": 1964, "pitch": 57, "duration": 14, "velocity": 79}, {"time": 1964, "pitch": 62, "duration": 14, "velocity": 75}, {"time": 1964, "pitch": 69, "duration": 13, "velocity": 82}, {"time": 1976, "pitch": 66, "duration": 2, "velocity": 62}, {"time": 1976, "pitch": 50, "duration": 6, "velocity": 56}, {"time": 1982, "pitch": 57, "duration": 2, "velocity": 83}, {"time": 1982, "pitch": 67, "duration": 2, "velocity": 83}, {"time": 1982, "pitch": 62, "duration": 3, "velocity": 72}, {"time": 1985, "pitch": 50, "duration": 5, "velocity": 50}, {"time": 1988, "pitch": 69, "duration": 2, "velocity": 73}, {"time": 1988, "pitch": 57, "duration": 2, "velocity": 63}, {"time": 1988, "pitch": 62, "duration": 2, "velocity": 45}, {"time": 1991, "pitch": 38, "duration": 1, "velocity": 58}, {"time": 1994, "pitch": 57, "duration": 3, "velocity": 59}, {"time": 1994, "pitch": 64, "duration": 3, "velocity": 58}, {"time": 1994, "pitch": 69, "duration": 3, "velocity": 61}, {"time": 1994, "pitch": 60, "duration": 3, "velocity": 55}, {"time": 1994, "pitch": 45, "duration": 2, "velocity": 59}, {"time": 1994, "pitch": 52, "duration": 2, "velocity": 55}, {"time": 2002, "pitch": 66, "duration": 2, "velocity": 63}, {"time": 2002, "pitch": 57, "duration": 2, "velocity": 56}, {"time": 2002, "pitch": 50, "duration": 2, "velocity": 56}, {"time": 2002, "pitch": 62, "duration": 2, "velocity": 53}, {"time": 2002, "pitch": 69, "duration": 2, "velocity": 51}, {"time": 2011, "pitch": 64, "duration": 2, "velocity": 73}, {"time": 2011, "pitch": 60, "duration": 1, "velocity": 56}, {"time": 2011, "pitch": 38, "duration": 1, "velocity": 63}, {"time": 2017, "pitch": 67, "duration": 15, "velocity": 73}, {"time": 2017, "pitch": 55, "duration": 15, "velocity": 71}, {"time": 2017, "pitch": 59, "duration": 14, "velocity": 58}, {"time": 2017, "pitch": 62, "duration": 15, "velocity": 62}, {"time": 2018, "pitch": 43, "duration": 14, "velocity": 74}, {"time": 2030, "pitch": 69, "duration": 3, "velocity": 84}, {"time": 2030, "pitch": 59, "duration": 1, "velocity": 72}, {"time": 2030, "pitch": 62, "duration": 2, "velocity": 72}, {"time": 2039, "pitch": 71, "duration": 1, "velocity": 83}, {"time": 2039, "pitch": 59, "duration": 2, "velocity": 80}, {"time": 2039, "pitch": 62, "duration": 2, "velocity": 72}, {"time": 2045, "pitch": 69, "duration": 5, "velocity": 78}, {"time": 2045, "pitch": 59, "duration": 5, "velocity": 67}, {"time": 2045, "pitch": 62, "duration": 5, "velocity": 65}, {"time": 2051, "pitch": 43, "duration": 6, "velocity": 68}, {"time": 2051, "pitch": 55, "duration": 3, "velocity": 67}, {"time": 2054, "pitch": 62, "duration": 3, "velocity": 76}, {"time": 2054, "pitch": 71, "duration": 2, "velocity": 86}, {"time": 2054, "pitch": 59, "duration": 3, "velocity": 84}, {"time": 2056, "pitch": 55, "duration": 3, "velocity": 69}, {"time": 2059, "pitch": 69, "duration": 2, "velocity": 70}, {"time": 2060, "pitch": 59, "duration": 1, "velocity": 67}, {"time": 2060, "pitch": 62, "duration": 1, "velocity": 54}, {"time": 2060, "pitch": 43, "duration": 1, "velocity": 49}, {"time": 2066, "pitch": 59, "duration": 6, "velocity": 59}, {"time": 2066, "pitch": 67, "duration": 6, "velocity": 63}, {"time": 2066, "pitch": 55, "duration": 5, "velocity": 59}, {"time": 2066, "pitch": 62, "duration": 6, "velocity": 52}, {"time": 2066, "pitch": 43, "duration": 38, "velocity": 56}, {"time": 2078, "pitch": 62, "duration": 5, "velocity": 69}, {"time": 2078, "pitch": 59, "duration": 5, "velocity": 69}, {"time": 2078, "pitch": 67, "duration": 5, "velocity": 73}, {"time": 2084, "pitch": 55, "duration": 3, "velocity": 41}, {"time": 2087, "pitch": 67, "duration": 4, "velocity": 68}, {"time": 2087, "pitch": 59, "duration": 4, "velocity": 67}, {"time": 2087, "pitch": 62, "duration": 4, "velocity": 69}, {"time": 2093, "pitch": 67, "duration": 3, "velocity": 66}, {"time": 2093, "pitch": 59, "duration": 3, "velocity": 63}, {"time": 2093, "pitch": 62, "duration": 3, "velocity": 77}, {"time": 2096, "pitch": 55, "duration": 6, "velocity": 69}, {"time": 2102, "pitch": 67, "duration": 4, "velocity": 74}, {"time": 2102, "pitch": 59, "duration": 4, "velocity": 76}, {"time": 2102, "pitch": 62, "duration": 5, "velocity": 64}, {"time": 2104, "pitch": 55, "duration": 2, "velocity": 40}, {"time": 2107, "pitch": 43, "duration": 1, "velocity": 67}, {"time": 2113, "pitch": 59, "duration": 7, "velocity": 65}, {"time": 2113, "pitch": 64, "duration": 7, "velocity": 63}, {"time": 2113, "pitch": 40, "duration": 45, "velocity": 61}, {"time": 2114, "pitch": 55, "duration": 6, "velocity": 64}, {"time": 2114, "pitch": 52, "duration": 13, "velocity": 55}, {"time": 2126, "pitch": 64, "duration": 5, "velocity": 63}, {"time": 2126, "pitch": 55, "duration": 5, "velocity": 58}, {"time": 2126, "pitch": 59, "duration": 5, "velocity": 64}, {"time": 2132, "pitch": 52, "duration": 7, "velocity": 44}, {"time": 2134, "pitch": 55, "duration": 3, "velocity": 74}, {"time": 2134, "pitch": 59, "duration": 4, "velocity": 72}, {"time": 2134, "pitch": 64, "duration": 3, "velocity": 69}, {"time": 2140, "pitch": 59, "duration": 3, "velocity": 44}, {"time": 2140, "pitch": 64, "duration": 3, "velocity": 58}, {"time": 2140, "pitch": 55, "duration": 2, "velocity": 62}, {"time": 2143, "pitch": 52, "duration": 6, "velocity": 55}, {"time": 2149, "pitch": 62, "duration": 4, "velocity": 67}, {"time": 2149, "pitch": 55, "duration": 3, "velocity": 77}, {"time": 2149, "pitch": 59, "duration": 3, "velocity": 56}, {"time": 2152, "pitch": 52, "duration": 1, "velocity": 61}, {"time": 2155, "pitch": 55, "duration": 2, "velocity": 68}, {"time": 2155, "pitch": 64, "duration": 2, "velocity": 64}, {"time": 2155, "pitch": 59, "duration": 1, "velocity": 59}, {"time": 2158, "pitch": 52, "duration": 1, "velocity": 56}, {"time": 2161, "pitch": 57, "duration": 7, "velocity": 67}, {"time": 2161, "pitch": 64, "duration": 8, "velocity": 68}, {"time": 2162, "pitch": 60, "duration": 7, "velocity": 63}, {"time": 2162, "pitch": 45, "duration": 39, "velocity": 62}, {"time": 2162, "pitch": 52, "duration": 6, "velocity": 53}, {"time": 2171, "pitch": 52, "duration": 12, "velocity": 47}, {"time": 2173, "pitch": 57, "duration": 5, "velocity": 83}, {"time": 2173, "pitch": 60, "duration": 5, "velocity": 84}, {"time": 2173, "pitch": 64, "duration": 5, "velocity": 80}, {"time": 2182, "pitch": 57, "duration": 7, "velocity": 59}, {"time": 2182, "pitch": 60, "duration": 7, "velocity": 62}, {"time": 2182, "pitch": 64, "duration": 7, "velocity": 68}, {"time": 2188, "pitch": 52, "duration": 3, "velocity": 64}, {"time": 2191, "pitch": 57, "duration": 2, "velocity": 64}, {"time": 2191, "pitch": 60, "duration": 2, "velocity": 50}, {"time": 2191, "pitch": 64, "duration": 2, "velocity": 68}, {"time": 2194, "pitch": 52, "duration": 3, "velocity": 58}, {"time": 2197, "pitch": 57, "duration": 4, "velocity": 75}, {"time": 2197, "pitch": 66, "duration": 4, "velocity": 76}, {"time": 2197, "pitch": 60, "duration": 4, "velocity": 72}, {"time": 2200, "pitch": 52, "duration": 3, "velocity": 72}, {"time": 2203, "pitch": 60, "duration": 1, "velocity": 49}, {"time": 2203, "pitch": 57, "duration": 1, "velocity": 62}, {"time": 2203, "pitch": 67, "duration": 1, "velocity": 71}, {"time": 2209, "pitch": 57, "duration": 6, "velocity": 67}, {"time": 2209, "pitch": 66, "duration": 6, "velocity": 66}, {"time": 2210, "pitch": 62, "duration": 5, "velocity": 59}, {"time": 2210, "pitch": 38, "duration": 38, "velocity": 61}, {"time": 2210, "pitch": 50, "duration": 12, "velocity": 53}, {"time": 2221, "pitch": 57, "duration": 5, "velocity": 79}, {"time": 2221, "pitch": 62, "duration": 5, "velocity": 72}, {"time": 2221, "pitch": 67, "duration": 5, "velocity": 78}, {"time": 2227, "pitch": 50, "duration": 4, "velocity": 45}, {"time": 2230, "pitch": 62, "duration": 3, "velocity": 69}, {"time": 2230, "pitch": 57, "duration": 3, "velocity": 77}, {"time": 2230, "pitch": 69, "duration": 3, "velocity": 76}, {"time": 2236, "pitch": 66, "duration": 4, "velocity": 71}, {"time": 2236, "pitch": 57, "duration": 3, "velocity": 72}, {"time": 2236, "pitch": 62, "duration": 3, "velocity": 59}, {"time": 2239, "pitch": 50, "duration": 6, "velocity": 59}, {"time": 2245, "pitch": 64, "duration": 6, "velocity": 76}, {"time": 2245, "pitch": 57, "duration": 3, "velocity": 79}, {"time": 2248, "pitch": 50, "duration": 3, "velocity": 49}, {"time": 2251, "pitch": 38, "duration": 1, "velocity": 61}, {"time": 2251, "pitch": 57, "duration": 1, "velocity": 47}, {"time": 2251, "pitch": 62, "duration": 1, "velocity": 58}, {"time": 2258, "pitch": 64, "duration": 7, "velocity": 53}, {"time": 2258, "pitch": 57, "duration": 7, "velocity": 44}, {"time": 2258, "pitch": 60, "duration": 7, "velocity": 48}, {"time": 2258, "pitch": 45, "duration": 19, "velocity": 50}, {"time": 2258, "pitch": 52, "duration": 6, "velocity": 50}, {"time": 2267, "pitch": 52, "duration": 5, "velocity": 56}, {"time": 2270, "pitch": 64, "duration": 5, "velocity": 74}, {"time": 2270, "pitch": 57, "duration": 5, "velocity": 75}, {"time": 2270, "pitch": 60, "duration": 5, "velocity": 74}, {"time": 2282, "pitch": 66, "duration": 8, "velocity": 70}, {"time": 2282, "pitch": 57, "duration": 8, "velocity": 54}, {"time": 2282, "pitch": 62, "duration": 8, "velocity": 67}, {"time": 2282, "pitch": 50, "duration": 6, "velocity": 56}, {"time": 2282, "pitch": 38, "duration": 15, "velocity": 49}, {"time": 2291, "pitch": 50, "duration": 3, "velocity": 72}, {"time": 2294, "pitch": 66, "duration": 3, "velocity": 83}, {"time": 2294, "pitch": 57, "duration": 3, "velocity": 79}, {"time": 2294, "pitch": 62, "duration": 4, "velocity": 69}, {"time": 2297, "pitch": 50, "duration": 3, "velocity": 67}, {"time": 2300, "pitch": 38, "duration": 1, "velocity": 75}, {"time": 2305, "pitch": 55, "duration": 7, "velocity": 56}, {"time": 2306, "pitch": 59, "duration": 6, "velocity": 56}, {"time": 2306, "pitch": 64, "duration": 6, "velocity": 57}, {"time": 2306, "pitch": 40, "duration": 37, "velocity": 47}, {"time": 2306, "pitch": 52, "duration": 7, "velocity": 51}, {"time": 2314, "pitch": 52, "duration": 4, "velocity": 58}, {"time": 2317, "pitch": 64, "duration": 6, "velocity": 80}, {"time": 2318, "pitch": 55, "duration": 5, "velocity": 79}, {"time": 2318, "pitch": 59, "duration": 5, "velocity": 76}, {"time": 2323, "pitch": 52, "duration": 8, "velocity": 61}, {"time": 2326, "pitch": 64, "duration": 2, "velocity": 76}, {"time": 2326, "pitch": 59, "duration": 2, "velocity": 75}, {"time": 2326, "pitch": 55, "duration": 2, "velocity": 83}, {"time": 2332, "pitch": 55, "duration": 3, "velocity": 81}, {"time": 2332, "pitch": 64, "duration": 3, "velocity": 72}, {"time": 2332, "pitch": 59, "duration": 3, "velocity": 76}, {"time": 2335, "pitch": 52, "duration": 6, "velocity": 68}, {"time": 2341, "pitch": 55, "duration": 4, "velocity": 91}, {"time": 2341, "pitch": 59, "duration": 4, "velocity": 84}, {"time": 2341, "pitch": 64, "duration": 5, "velocity": 80}, {"time": 2343, "pitch": 52, "duration": 4, "velocity": 53}, {"time": 2347, "pitch": 40, "duration": 1, "velocity": 65}, {"time": 2353, "pitch": 60, "duration": 7, "velocity": 63}, {"time": 2353, "pitch": 64, "duration": 7, "velocity": 65}, {"time": 2353, "pitch": 57, "duration": 7, "velocity": 63}, {"time": 2353, "pitch": 45, "duration": 40, "velocity": 54}, {"time": 2353, "pitch": 52, "duration": 7, "velocity": 54}, {"time": 2362, "pitch": 52, "duration": 18, "velocity": 46}, {"time": 2365, "pitch": 60, "duration": 4, "velocity": 81}, {"time": 2365, "pitch": 64, "duration": 4, "velocity": 79}, {"time": 2365, "pitch": 57, "duration": 4, "velocity": 84}, {"time": 2374, "pitch": 57, "duration": 3, "velocity": 72}, {"time": 2374, "pitch": 64, "duration": 3, "velocity": 67}, {"time": 2374, "pitch": 60, "duration": 3, "velocity": 69}, {"time": 2381, "pitch": 57, "duration": 2, "velocity": 75}, {"time": 2381, "pitch": 60, "duration": 2, "velocity": 75}, {"time": 2381, "pitch": 64, "duration": 2, "velocity": 72}, {"time": 2383, "pitch": 52, "duration": 7, "velocity": 80}, {"time": 2389, "pitch": 57, "duration": 4, "velocity": 88}, {"time": 2389, "pitch": 60, "duration": 4, "velocity": 83}, {"time": 2389, "pitch": 64, "duration": 4, "velocity": 84}, {"time": 2392, "pitch": 52, "duration": 4, "velocity": 72}, {"time": 2395, "pitch": 45, "duration": 1, "velocity": 63}, {"time": 2401, "pitch": 66, "duration": 6, "velocity": 80}, {"time": 2401, "pitch": 38, "duration": 39, "velocity": 69}, {"time": 2401, "pitch": 57, "duration": 6, "velocity": 67}, {"time": 2401, "pitch": 62, "duration": 6, "velocity": 69}, {"time": 2401, "pitch": 50, "duration": 19, "velocity": 63}, {"time": 2411, "pitch": 67, "duration": 2, "velocity": 79}, {"time": 2411, "pitch": 57, "duration": 2, "velocity": 74}, {"time": 2411, "pitch": 62, "duration": 2, "velocity": 67}, {"time": 2419, "pitch": 69, "duration": 5, "velocity": 90}, {"time": 2419, "pitch": 57, "duration": 5, "velocity": 85}, {"time": 2419, "pitch": 62, "duration": 5, "velocity": 79}, {"time": 2429, "pitch": 57, "duration": 3, "velocity": 84}, {"time": 2429, "pitch": 66, "duration": 3, "velocity": 84}, {"time": 2429, "pitch": 62, "duration": 3, "velocity": 72}, {"time": 2431, "pitch": 50, "duration": 7, "velocity": 67}, {"time": 2437, "pitch": 57, "duration": 3, "velocity": 84}, {"time": 2437, "pitch": 64, "duration": 4, "velocity": 75}, {"time": 2440, "pitch": 50, "duration": 5, "velocity": 45}, {"time": 2443, "pitch": 57, "duration": 2, "velocity": 53}, {"time": 2443, "pitch": 62, "duration": 1, "velocity": 63}, {"time": 2450, "pitch": 67, "duration": 6, "velocity": 52}, {"time": 2450, "pitch": 59, "duration": 6, "velocity": 47}, {"time": 2450, "pitch": 62, "duration": 6, "velocity": 47}, {"time": 2450, "pitch": 43, "duration": 38, "velocity": 47}, {"time": 2450, "pitch": 55, "duration": 3, "velocity": 42}, {"time": 2458, "pitch": 55, "duration": 4, "velocity": 28}, {"time": 2462, "pitch": 67, "duration": 6, "velocity": 53}, {"time": 2462, "pitch": 59, "duration": 6, "velocity": 44}, {"time": 2462, "pitch": 62, "duration": 6, "velocity": 48}, {"time": 2468, "pitch": 55, "duration": 2, "velocity": 39}, {"time": 2471, "pitch": 59, "duration": 3, "velocity": 53}, {"time": 2471, "pitch": 67, "duration": 3, "velocity": 63}, {"time": 2471, "pitch": 62, "duration": 3, "velocity": 50}, {"time": 2476, "pitch": 59, "duration": 4, "velocity": 43}, {"time": 2477, "pitch": 62, "duration": 3, "velocity": 45}, {"time": 2477, "pitch": 67, "duration": 3, "velocity": 51}, {"time": 2480, "pitch": 55, "duration": 5, "velocity": 47}, {"time": 2485, "pitch": 67, "duration": 6, "velocity": 60}, {"time": 2485, "pitch": 59, "duration": 4, "velocity": 53}, {"time": 2485, "pitch": 62, "duration": 5, "velocity": 54}, {"time": 2488, "pitch": 55, "duration": 2, "velocity": 56}, {"time": 2491, "pitch": 43, "duration": 1, "velocity": 56}, {"time": 2497, "pitch": 55, "duration": 7, "velocity": 50}, {"time": 2497, "pitch": 64, "duration": 7, "velocity": 61}, {"time": 2498, "pitch": 59, "duration": 6, "velocity": 53}, {"time": 2498, "pitch": 40, "duration": 37, "velocity": 42}, {"time": 2498, "pitch": 52, "duration": 5, "velocity": 32}, {"time": 2505, "pitch": 52, "duration": 2, "velocity": 39}, {"time": 2510, "pitch": 59, "duration": 5, "velocity": 58}, {"time": 2510, "pitch": 64, "duration": 5, "velocity": 55}, {"time": 2510, "pitch": 55, "duration": 5, "velocity": 51}, {"time": 2516, "pitch": 52, "duration": 2, "velocity": 34}, {"time": 2518, "pitch": 64, "duration": 3, "velocity": 56}, {"time": 2519, "pitch": 59, "duration": 2, "velocity": 51}, {"time": 2519, "pitch": 55, "duration": 2, "velocity": 44}, {"time": 2524, "pitch": 64, "duration": 3, "velocity": 55}, {"time": 2524, "pitch": 59, "duration": 3, "velocity": 58}, {"time": 2524, "pitch": 55, "duration": 3, "velocity": 53}, {"time": 2527, "pitch": 52, "duration": 6, "velocity": 59}, {"time": 2533, "pitch": 55, "duration": 4, "velocity": 67}, {"time": 2533, "pitch": 59, "duration": 4, "velocity": 65}, {"time": 2533, "pitch": 64, "duration": 5, "velocity": 63}, {"time": 2536, "pitch": 52, "duration": 2, "velocity": 39}, {"time": 2539, "pitch": 40, "duration": 1, "velocity": 58}, {"time": 2545, "pitch": 57, "duration": 8, "velocity": 51}, {"time": 2545, "pitch": 60, "duration": 8, "velocity": 48}, {"time": 2545, "pitch": 64, "duration": 8, "velocity": 55}, {"time": 2545, "pitch": 52, "duration": 7, "velocity": 41}, {"time": 2545, "pitch": 45, "duration": 40, "velocity": 47}, {"time": 2555, "pitch": 52, "duration": 13, "velocity": 44}, {"time": 2558, "pitch": 57, "duration": 3, "velocity": 72}, {"time": 2558, "pitch": 60, "duration": 3, "velocity": 68}, {"time": 2558, "pitch": 64, "duration": 3, "velocity": 71}, {"time": 2567, "pitch": 57, "duration": 10, "velocity": 53}, {"time": 2567, "pitch": 60, "duration": 11, "velocity": 54}, {"time": 2567, "pitch": 64, "duration": 11, "velocity": 55}, {"time": 2579, "pitch": 52, "duration": 3, "velocity": 61}, {"time": 2582, "pitch": 57, "duration": 4, "velocity": 68}, {"time": 2582, "pitch": 60, "duration": 4, "velocity": 64}, {"time": 2582, "pitch": 64, "duration": 3, "velocity": 67}, {"time": 2585, "pitch": 52, "duration": 2, "velocity": 47}, {"time": 2588, "pitch": 45, "duration": 1, "velocity": 51}, {"time": 2594, "pitch": 66, "duration": 7, "velocity": 55}, {"time": 2594, "pitch": 57, "duration": 7, "velocity": 42}, {"time": 2594, "pitch": 38, "duration": 38, "velocity": 43}, {"time": 2594, "pitch": 62, "duration": 6, "velocity": 52}, {"time": 2594, "pitch": 50, "duration": 6, "velocity": 45}, {"time": 2603, "pitch": 50, "duration": 3, "velocity": 58}, {"time": 2606, "pitch": 67, "duration": 4, "velocity": 71}, {"time": 2606, "pitch": 57, "duration": 4, "velocity": 65}, {"time": 2606, "pitch": 62, "duration": 4, "velocity": 59}, {"time": 2612, "pitch": 50, "duration": 1, "velocity": 47}, {"time": 2615, "pitch": 69, "duration": 3, "velocity": 74}, {"time": 2615, "pitch": 62, "duration": 2, "velocity": 57}, {"time": 2615, "pitch": 57, "duration": 3, "velocity": 63}, {"time": 2620, "pitch": 57, "duration": 4, "velocity": 53}, {"time": 2620, "pitch": 66, "duration": 4, "velocity": 60}, {"time": 2621, "pitch": 62, "duration": 3, "velocity": 49}, {"time": 2624, "pitch": 50, "duration": 6, "velocity": 42}, {"time": 2630, "pitch": 67, "duration": 3, "velocity": 66}, {"time": 2630, "pitch": 57, "duration": 3, "velocity": 67}, {"time": 2630, "pitch": 62, "duration": 3, "velocity": 56}, {"time": 2632, "pitch": 50, "duration": 2, "velocity": 47}, {"time": 2635, "pitch": 66, "duration": 2, "velocity": 58}, {"time": 2636, "pitch": 62, "duration": 1, "velocity": 34}, {"time": 2636, "pitch": 57, "duration": 1, "velocity": 59}, {"time": 2636, "pitch": 38, "duration": 1, "velocity": 52}, {"time": 2642, "pitch": 47, "duration": 41, "velocity": 56}, {"time": 2642, "pitch": 59, "duration": 7, "velocity": 63}, {"time": 2642, "pitch": 66, "duration": 6, "velocity": 74}, {"time": 2642, "pitch": 62, "duration": 6, "velocity": 44}, {"time": 2651, "pitch": 54, "duration": 4, "velocity": 45}, {"time": 2654, "pitch": 71, "duration": 4, "velocity": 71}, {"time": 2654, "pitch": 59, "duration": 4, "velocity": 72}, {"time": 2654, "pitch": 62, "duration": 4, "velocity": 59}, {"time": 2654, "pitch": 66, "duration": 5, "velocity": 58}, {"time": 2660, "pitch": 54, "duration": 4, "velocity": 39}, {"time": 2663, "pitch": 69, "duration": 5, "velocity": 62}, {"time": 2663, "pitch": 59, "duration": 5, "velocity": 56}, {"time": 2663, "pitch": 62, "duration": 5, "velocity": 47}, {"time": 2669, "pitch": 59, "duration": 5, "velocity": 68}, {"time": 2669, "pitch": 67, "duration": 5, "velocity": 67}, {"time": 2669, "pitch": 62, "duration": 5, "velocity": 62}, {"time": 2675, "pitch": 54, "duration": 3, "velocity": 62}, {"time": 2677, "pitch": 66, "duration": 6, "velocity": 70}, {"time": 2677, "pitch": 59, "duration": 4, "velocity": 63}, {"time": 2678, "pitch": 62, "duration": 4, "velocity": 54}, {"time": 2681, "pitch": 54, "duration": 3, "velocity": 59}, {"time": 2683, "pitch": 59, "duration": 2, "velocity": 68}, {"time": 2683, "pitch": 67, "duration": 1, "velocity": 63}, {"time": 2684, "pitch": 62, "duration": 1, "velocity": 43}, {"time": 2690, "pitch": 40, "duration": 40, "velocity": 55}, {"time": 2690, "pitch": 55, "duration": 7, "velocity": 56}, {"time": 2690, "pitch": 64, "duration": 7, "velocity": 61}, {"time": 2690, "pitch": 59, "duration": 7, "velocity": 53}, {"time": 2690, "pitch": 52, "duration": 6, "velocity": 52}, {"time": 2699, "pitch": 52, "duration": 2, "velocity": 35}, {"time": 2702, "pitch": 64, "duration": 5, "velocity": 63}, {"time": 2702, "pitch": 55, "duration": 5, "velocity": 67}, {"time": 2702, "pitch": 59, "duration": 5, "velocity": 61}, {"time": 2708, "pitch": 52, "duration": 2, "velocity": 39}, {"time": 2711, "pitch": 55, "duration": 2, "velocity": 52}, {"time": 2711, "pitch": 64, "duration": 3, "velocity": 46}, {"time": 2711, "pitch": 59, "duration": 3, "velocity": 50}, {"time": 2718, "pitch": 55, "duration": 4, "velocity": 59}, {"time": 2718, "pitch": 59, "duration": 4, "velocity": 51}, {"time": 2718, "pitch": 64, "duration": 5, "velocity": 54}, {"time": 2724, "pitch": 52, "duration": 1, "velocity": 55}, {"time": 2726, "pitch": 64, "duration": 7, "velocity": 64}, {"time": 2726, "pitch": 55, "duration": 6, "velocity": 67}, {"time": 2726, "pitch": 59, "duration": 6, "velocity": 61}, {"time": 2732, "pitch": 52, "duration": 1, "velocity": 67}, {"time": 2738, "pitch": 57, "duration": 7, "velocity": 59}, {"time": 2738, "pitch": 60, "duration": 7, "velocity": 61}, {"time": 2738, "pitch": 64, "duration": 7, "velocity": 65}, {"time": 2738, "pitch": 45, "duration": 39, "velocity": 61}, {"time": 2738, "pitch": 52, "duration": 6, "velocity": 62}, {"time": 2747, "pitch": 52, "duration": 5, "velocity": 43}, {"time": 2750, "pitch": 57, "duration": 3, "velocity": 75}, {"time": 2750, "pitch": 60, "duration": 4, "velocity": 74}, {"time": 2750, "pitch": 64, "duration": 4, "velocity": 77}, {"time": 2756, "pitch": 52, "duration": 12, "velocity": 49}, {"time": 2759, "pitch": 57, "duration": 2, "velocity": 68}, {"time": 2759, "pitch": 60, "duration": 2, "velocity": 64}, {"time": 2759, "pitch": 64, "duration": 3, "velocity": 69}, {"time": 2768, "pitch": 60, "duration": 7, "velocity": 67}, {"time": 2768, "pitch": 57, "duration": 7, "velocity": 67}, {"time": 2768, "pitch": 64, "duration": 7, "velocity": 68}, {"time": 2774, "pitch": 52, "duration": 6, "velocity": 67}, {"time": 2777, "pitch": 64, "duration": 3, "velocity": 52}, {"time": 2777, "pitch": 60, "duration": 3, "velocity": 49}, {"time": 2777, "pitch": 57, "duration": 3, "velocity": 47}, {"time": 2780, "pitch": 45, "duration": 1, "velocity": 56}, {"time": 2786, "pitch": 57, "duration": 6, "velocity": 53}, {"time": 2786, "pitch": 66, "duration": 6, "velocity": 63}, {"time": 2786, "pitch": 38, "duration": 38, "velocity": 57}, {"time": 2786, "pitch": 62, "duration": 6, "velocity": 61}, {"time": 2786, "pitch": 50, "duration": 6, "velocity": 50}, {"time": 2794, "pitch": 50, "duration": 4, "velocity": 52}, {"time": 2797, "pitch": 67, "duration": 6, "velocity": 76}, {"time": 2798, "pitch": 57, "duration": 5, "velocity": 76}, {"time": 2798, "pitch": 62, "duration": 5, "velocity": 64}, {"time": 2804, "pitch": 50, "duration": 2, "velocity": 47}, {"time": 2806, "pitch": 69, "duration": 4, "velocity": 68}, {"time": 2807, "pitch": 57, "duration": 3, "velocity": 59}, {"time": 2807, "pitch": 62, "duration": 3, "velocity": 56}, {"time": 2812, "pitch": 66, "duration": 4, "velocity": 67}, {"time": 2812, "pitch": 57, "duration": 4, "velocity": 56}, {"time": 2812, "pitch": 62, "duration": 4, "velocity": 43}, {"time": 2815, "pitch": 50, "duration": 6, "velocity": 61}, {"time": 2821, "pitch": 64, "duration": 7, "velocity": 69}, {"time": 2821, "pitch": 57, "duration": 3, "velocity": 62}, {"time": 2823, "pitch": 50, "duration": 2, "velocity": 46}, {"time": 2827, "pitch": 57, "duration": 1, "velocity": 48}, {"time": 2827, "pitch": 62, "duration": 2, "velocity": 54}, {"time": 2827, "pitch": 38, "duration": 1, "velocity": 61}, {"time": 2834, "pitch": 59, "duration": 7, "velocity": 56}, {"time": 2834, "pitch": 67, "duration": 7, "velocity": 60}, {"time": 2834, "pitch": 62, "duration": 8, "velocity": 55}, {"time": 2834, "pitch": 55, "duration": 7, "velocity": 40}, {"time": 2834, "pitch": 43, "duration": 38, "velocity": 31}, {"time": 2842, "pitch": 55, "duration": 5, "velocity": 51}, {"time": 2846, "pitch": 59, "duration": 5, "velocity": 67}, {"time": 2846, "pitch": 67, "duration": 6, "velocity": 68}, {"time": 2846, "pitch": 62, "duration": 6, "velocity": 63}, {"time": 2852, "pitch": 55, "duration": 8, "velocity": 40}, {"time": 2855, "pitch": 59, "duration": 2, "velocity": 45}, {"time": 2855, "pitch": 67, "duration": 2, "velocity": 53}, {"time": 2855, "pitch": 62, "duration": 2, "velocity": 62}, {"time": 2860, "pitch": 59, "duration": 3, "velocity": 56}, {"time": 2860, "pitch": 67, "duration": 3, "velocity": 54}, {"time": 2861, "pitch": 62, "duration": 2, "velocity": 62}, {"time": 2863, "pitch": 55, "duration": 6, "velocity": 62}, {"time": 2869, "pitch": 59, "duration": 3, "velocity": 68}, {"time": 2869, "pitch": 67, "duration": 4, "velocity": 67}, {"time": 2869, "pitch": 62, "duration": 4, "velocity": 64}, {"time": 2872, "pitch": 55, "duration": 2, "velocity": 56}, {"time": 2875, "pitch": 43, "duration": 1, "velocity": 63}, {"time": 2881, "pitch": 59, "duration": 6, "velocity": 59}, {"time": 2881, "pitch": 64, "duration": 7, "velocity": 63}, {"time": 2881, "pitch": 40, "duration": 40, "velocity": 54}, {"time": 2881, "pitch": 55, "duration": 6, "velocity": 54}, {"time": 2881, "pitch": 52, "duration": 6, "velocity": 41}, {"time": 2890, "pitch": 52, "duration": 4, "velocity": 45}, {"time": 2893, "pitch": 59, "duration": 5, "velocity": 65}, {"time": 2894, "pitch": 64, "duration": 4, "velocity": 67}, {"time": 2894, "pitch": 55, "duration": 4, "velocity": 63}, {"time": 2899, "pitch": 52, "duration": 3, "velocity": 30}, {"time": 2903, "pitch": 64, "duration": 3, "velocity": 59}, {"time": 2903, "pitch": 55, "duration": 3, "velocity": 52}, {"time": 2903, "pitch": 59, "duration": 3, "velocity": 54}, {"time": 2908, "pitch": 59, "duration": 2, "velocity": 44}, {"time": 2908, "pitch": 64, "duration": 3, "velocity": 53}, {"time": 2908, "pitch": 55, "duration": 2, "velocity": 53}, {"time": 2912, "pitch": 62, "duration": 1, "velocity": 59}, {"time": 2912, "pitch": 55, "duration": 1, "velocity": 47}, {"time": 2918, "pitch": 55, "duration": 5, "velocity": 68}, {"time": 2918, "pitch": 64, "duration": 6, "velocity": 65}, {"time": 2918, "pitch": 59, "duration": 5, "velocity": 63}, {"time": 2921, "pitch": 52, "duration": 3, "velocity": 51}, {"time": 2924, "pitch": 40, "duration": 1, "velocity": 56}, {"time": 2930, "pitch": 60, "duration": 7, "velocity": 58}, {"time": 2930, "pitch": 64, "duration": 7, "velocity": 58}, {"time": 2930, "pitch": 45, "duration": 38, "velocity": 58}, {"time": 2930, "pitch": 57, "duration": 7, "velocity": 47}, {"time": 2930, "pitch": 52, "duration": 6, "velocity": 51}, {"time": 2939, "pitch": 52, "duration": 6, "velocity": 42}, {"time": 2942, "pitch": 57, "duration": 5, "velocity": 67}, {"time": 2942, "pitch": 60, "duration": 6, "velocity": 67}, {"time": 2942, "pitch": 64, "duration": 6, "velocity": 63}, {"time": 2948, "pitch": 52, "duration": 9, "velocity": 39}, {"time": 2951, "pitch": 57, "duration": 2, "velocity": 56}, {"time": 2951, "pitch": 60, "duration": 2, "velocity": 65}, {"time": 2951, "pitch": 64, "duration": 2, "velocity": 56}, {"time": 2957, "pitch": 60, "duration": 3, "velocity": 67}, {"time": 2957, "pitch": 57, "duration": 3, "velocity": 63}, {"time": 2957, "pitch": 64, "duration": 3, "velocity": 59}, {"time": 2960, "pitch": 52, "duration": 5, "velocity": 59}, {"time": 2966, "pitch": 57, "duration": 4, "velocity": 74}, {"time": 2966, "pitch": 64, "duration": 2, "velocity": 65}, {"time": 2966, "pitch": 60, "duration": 3, "velocity": 68}, {"time": 2968, "pitch": 52, "duration": 4, "velocity": 53}, {"time": 2971, "pitch": 45, "duration": 1, "velocity": 56}, {"time": 2978, "pitch": 66, "duration": 5, "velocity": 55}, {"time": 2978, "pitch": 57, "duration": 6, "velocity": 45}, {"time": 2978, "pitch": 38, "duration": 38, "velocity": 58}, {"time": 2978, "pitch": 50, "duration": 5, "velocity": 56}, {"time": 2978, "pitch": 62, "duration": 5, "velocity": 54}, {"time": 2986, "pitch": 50, "duration": 4, "velocity": 56}, {"time": 2990, "pitch": 67, "duration": 4, "velocity": 76}, {"time": 2990, "pitch": 57, "duration": 4, "velocity": 71}, {"time": 2990, "pitch": 62, "duration": 4, "velocity": 58}, {"time": 2996, "pitch": 50, "duration": 2, "velocity": 46}, {"time": 2999, "pitch": 57, "duration": 4, "velocity": 67}, {"time": 2999, "pitch": 69, "duration": 4, "velocity": 63}, {"time": 2999, "pitch": 62, "duration": 4, "velocity": 55}, {"time": 3004, "pitch": 50, "duration": 3, "velocity": 52}, {"time": 3007, "pitch": 66, "duration": 3, "velocity": 71}, {"time": 3007, "pitch": 57, "duration": 3, "velocity": 63}, {"time": 3007, "pitch": 62, "duration": 2, "velocity": 55}, {"time": 3010, "pitch": 50, "duration": 3, "velocity": 50}, {"time": 3013, "pitch": 64, "duration": 4, "velocity": 71}, {"time": 3013, "pitch": 57, "duration": 3, "velocity": 75}, {"time": 3016, "pitch": 50, "duration": 2, "velocity": 67}, {"time": 3019, "pitch": 62, "duration": 2, "velocity": 67}, {"time": 3019, "pitch": 57, "duration": 1, "velocity": 63}, {"time": 3020, "pitch": 38, "duration": 1, "velocity": 58}, {"time": 3026, "pitch": 64, "duration": 7, "velocity": 63}, {"time": 3026, "pitch": 60, "duration": 7, "velocity": 61}, {"time": 3026, "pitch": 57, "duration": 6, "velocity": 58}, {"time": 3026, "pitch": 52, "duration": 4, "velocity": 56}, {"time": 3026, "pitch": 45, "duration": 16, "velocity": 52}, {"time": 3035, "pitch": 52, "duration": 3, "velocity": 48}, {"time": 3038, "pitch": 64, "duration": 6, "velocity": 75}, {"time": 3038, "pitch": 60, "duration": 6, "velocity": 75}, {"time": 3038, "pitch": 57, "duration": 6, "velocity": 74}, {"time": 3041, "pitch": 52, "duration": 4, "velocity": 64}, {"time": 3044, "pitch": 45, "duration": 1, "velocity": 51}, {"time": 3050, "pitch": 64, "duration": 7, "velocity": 59}, {"time": 3050, "pitch": 60, "duration": 7, "velocity": 59}, {"time": 3050, "pitch": 57, "duration": 6, "velocity": 59}, {"time": 3059, "pitch": 52, "duration": 3, "velocity": 72}, {"time": 3062, "pitch": 60, "duration": 7, "velocity": 87}, {"time": 3062, "pitch": 64, "duration": 8, "velocity": 81}, {"time": 3062, "pitch": 57, "duration": 6, "velocity": 80}, {"time": 3064, "pitch": 52, "duration": 4, "velocity": 79}, {"time": 3067, "pitch": 45, "duration": 1, "velocity": 69}, {"time": 3073, "pitch": 40, "duration": 40, "velocity": 54}, {"time": 3073, "pitch": 55, "duration": 7, "velocity": 56}, {"time": 3073, "pitch": 59, "duration": 7, "velocity": 53}, {"time": 3073, "pitch": 64, "duration": 7, "velocity": 56}, {"time": 3073, "pitch": 52, "duration": 7, "velocity": 46}, {"time": 3082, "pitch": 52, "duration": 6, "velocity": 47}, {"time": 3086, "pitch": 55, "duration": 5, "velocity": 69}, {"time": 3086, "pitch": 59, "duration": 5, "velocity": 71}, {"time": 3086, "pitch": 64, "duration": 5, "velocity": 71}, {"time": 3092, "pitch": 52, "duration": 8, "velocity": 41}, {"time": 3095, "pitch": 59, "duration": 1, "velocity": 63}, {"time": 3095, "pitch": 64, "duration": 2, "velocity": 68}, {"time": 3095, "pitch": 55, "duration": 1, "velocity": 68}, {"time": 3098, "pitch": 64, "duration": 6, "velocity": 69}, {"time": 3098, "pitch": 59, "duration": 6, "velocity": 67}, {"time": 3098, "pitch": 55, "duration": 6, "velocity": 59}, {"time": 3104, "pitch": 52, "duration": 6, "velocity": 62}, {"time": 3110, "pitch": 55, "duration": 4, "velocity": 84}, {"time": 3110, "pitch": 59, "duration": 4, "velocity": 75}, {"time": 3110, "pitch": 64, "duration": 5, "velocity": 71}, {"time": 3113, "pitch": 52, "duration": 2, "velocity": 59}, {"time": 3116, "pitch": 40, "duration": 1, "velocity": 68}, {"time": 3122, "pitch": 57, "duration": 8, "velocity": 59}, {"time": 3122, "pitch": 60, "duration": 8, "velocity": 59}, {"time": 3122, "pitch": 64, "duration": 8, "velocity": 58}, {"time": 3122, "pitch": 45, "duration": 39, "velocity": 63}, {"time": 3122, "pitch": 52, "duration": 6, "velocity": 57}, {"time": 3132, "pitch": 52, "duration": 3, "velocity": 59}, {"time": 3135, "pitch": 57, "duration": 5, "velocity": 79}, {"time": 3135, "pitch": 60, "duration": 5, "velocity": 76}, {"time": 3135, "pitch": 64, "duration": 5, "velocity": 77}, {"time": 3140, "pitch": 52, "duration": 9, "velocity": 43}, {"time": 3143, "pitch": 57, "duration": 2, "velocity": 63}, {"time": 3143, "pitch": 64, "duration": 3, "velocity": 69}, {"time": 3143, "pitch": 60, "duration": 2, "velocity": 67}, {"time": 3149, "pitch": 60, "duration": 3, "velocity": 76}, {"time": 3149, "pitch": 64, "duration": 3, "velocity": 68}, {"time": 3149, "pitch": 57, "duration": 3, "velocity": 75}, {"time": 3152, "pitch": 52, "duration": 6, "velocity": 64}, {"time": 3158, "pitch": 64, "duration": 4, "velocity": 76}, {"time": 3158, "pitch": 57, "duration": 6, "velocity": 83}, {"time": 3158, "pitch": 60, "duration": 5, "velocity": 75}, {"time": 3160, "pitch": 52, "duration": 4, "velocity": 59}, {"time": 3164, "pitch": 45, "duration": 1, "velocity": 74}, {"time": 3170, "pitch": 66, "duration": 5, "velocity": 86}, {"time": 3170, "pitch": 57, "duration": 5, "velocity": 79}, {"time": 3170, "pitch": 38, "duration": 38, "velocity": 77}, {"time": 3170, "pitch": 50, "duration": 5, "velocity": 67}, {"time": 3170, "pitch": 62, "duration": 5, "velocity": 69}, {"time": 3179, "pitch": 50, "duration": 4, "velocity": 64}, {"time": 3182, "pitch": 64, "duration": 5, "velocity": 76}, {"time": 3182, "pitch": 57, "duration": 4, "velocity": 77}, {"time": 3188, "pitch": 50, "duration": 4, "velocity": 55}, {"time": 3191, "pitch": 62, "duration": 4, "velocity": 88}, {"time": 3191, "pitch": 57, "duration": 4, "velocity": 85}, {"time": 3196, "pitch": 57, "duration": 4, "velocity": 59}, {"time": 3196, "pitch": 64, "duration": 4, "velocity": 68}, {"time": 3199, "pitch": 50, "duration": 7, "velocity": 63}, {"time": 3205, "pitch": 57, "duration": 3, "velocity": 84}, {"time": 3205, "pitch": 66, "duration": 4, "velocity": 84}, {"time": 3208, "pitch": 50, "duration": 2, "velocity": 50}, {"time": 3211, "pitch": 69, "duration": 2, "velocity": 73}, {"time": 3211, "pitch": 38, "duration": 1, "velocity": 67}, {"time": 3211, "pitch": 57, "duration": 1, "velocity": 61}, {"time": 3212, "pitch": 62, "duration": 1, "velocity": 45}, {"time": 3218, "pitch": 59, "duration": 7, "velocity": 76}, {"time": 3218, "pitch": 67, "duration": 7, "velocity": 71}, {"time": 3218, "pitch": 55, "duration": 6, "velocity": 58}, {"time": 3218, "pitch": 62, "duration": 8, "velocity": 65}, {"time": 3218, "pitch": 43, "duration": 39, "velocity": 63}, {"time": 3227, "pitch": 55, "duration": 4, "velocity": 61}, {"time": 3230, "pitch": 59, "duration": 5, "velocity": 84}, {"time": 3230, "pitch": 62, "duration": 5, "velocity": 79}, {"time": 3230, "pitch": 67, "duration": 5, "velocity": 87}, {"time": 3236, "pitch": 55, "duration": 1, "velocity": 51}, {"time": 3239, "pitch": 59, "duration": 2, "velocity": 64}, {"time": 3239, "pitch": 67, "duration": 2, "velocity": 68}, {"time": 3239, "pitch": 62, "duration": 2, "velocity": 63}, {"time": 3245, "pitch": 62, "duration": 2, "velocity": 72}, {"time": 3245, "pitch": 67, "duration": 2, "velocity": 73}, {"time": 3245, "pitch": 59, "duration": 2, "velocity": 77}, {"time": 3248, "pitch": 55, "duration": 6, "velocity": 58}, {"time": 3253, "pitch": 67, "duration": 7, "velocity": 82}, {"time": 3254, "pitch": 59, "duration": 4, "velocity": 80}, {"time": 3254, "pitch": 62, "duration": 4, "velocity": 75}, {"time": 3256, "pitch": 55, "duration": 3, "velocity": 49}, {"time": 3260, "pitch": 43, "duration": 1, "velocity": 68}, {"time": 3266, "pitch": 55, "duration": 6, "velocity": 63}, {"time": 3266, "pitch": 59, "duration": 6, "velocity": 62}, {"time": 3266, "pitch": 64, "duration": 6, "velocity": 67}, {"time": 3266, "pitch": 40, "duration": 40, "velocity": 63}, {"time": 3266, "pitch": 52, "duration": 5, "velocity": 45}, {"time": 3274, "pitch": 52, "duration": 4, "velocity": 58}, {"time": 3278, "pitch": 55, "duration": 3, "velocity": 79}, {"time": 3278, "pitch": 59, "duration": 4, "velocity": 68}, {"time": 3278, "pitch": 64, "duration": 4, "velocity": 62}, {"time": 3283, "pitch": 55, "duration": 2, "velocity": 41}, {"time": 3284, "pitch": 62, "duration": 1, "velocity": 47}, {"time": 3284, "pitch": 52, "duration": 3, "velocity": 45}, {"time": 3286, "pitch": 55, "duration": 5, "velocity": 55}, {"time": 3286, "pitch": 64, "duration": 5, "velocity": 67}, {"time": 3286, "pitch": 59, "duration": 5, "velocity": 69}, {"time": 3292, "pitch": 52, "duration": 3, "velocity": 63}, {"time": 3295, "pitch": 64, "duration": 4, "velocity": 71}, {"time": 3295, "pitch": 55, "duration": 3, "velocity": 83}, {"time": 3296, "pitch": 59, "duration": 3, "velocity": 65}, {"time": 3298, "pitch": 52, "duration": 4, "velocity": 69}, {"time": 3301, "pitch": 62, "duration": 6, "velocity": 74}, {"time": 3302, "pitch": 55, "duration": 4, "velocity": 80}, {"time": 3302, "pitch": 59, "duration": 4, "velocity": 69}, {"time": 3305, "pitch": 52, "duration": 4, "velocity": 62}, {"time": 3307, "pitch": 55, "duration": 2, "velocity": 64}, {"time": 3308, "pitch": 64, "duration": 2, "velocity": 77}, {"time": 3308, "pitch": 59, "duration": 1, "velocity": 62}, {"time": 3310, "pitch": 40, "duration": 1, "velocity": 72}, {"time": 3314, "pitch": 57, "duration": 8, "velocity": 71}, {"time": 3314, "pitch": 64, "duration": 8, "velocity": 64}, {"time": 3314, "pitch": 60, "duration": 8, "velocity": 62}, {"time": 3314, "pitch": 52, "duration": 7, "velocity": 68}, {"time": 3314, "pitch": 45, "duration": 38, "velocity": 50}, {"time": 3323, "pitch": 52, "duration": 4, "velocity": 65}, {"time": 3326, "pitch": 60, "duration": 4, "velocity": 80}, {"time": 3326, "pitch": 57, "duration": 4, "velocity": 87}, {"time": 3326, "pitch": 64, "duration": 4, "velocity": 77}, {"time": 3331, "pitch": 52, "duration": 10, "velocity": 46}, {"time": 3334, "pitch": 57, "duration": 2, "velocity": 58}, {"time": 3334, "pitch": 64, "duration": 2, "velocity": 55}, {"time": 3334, "pitch": 60, "duration": 1, "velocity": 58}, {"time": 3341, "pitch": 64, "duration": 3, "velocity": 69}, {"time": 3341, "pitch": 60, "duration": 2, "velocity": 72}, {"time": 3341, "pitch": 57, "duration": 3, "velocity": 69}, {"time": 3343, "pitch": 52, "duration": 6, "velocity": 69}, {"time": 3349, "pitch": 64, "duration": 3, "velocity": 76}, {"time": 3349, "pitch": 57, "duration": 5, "velocity": 80}, {"time": 3349, "pitch": 60, "duration": 5, "velocity": 75}, {"time": 3351, "pitch": 52, "duration": 4, "velocity": 51}, {"time": 3355, "pitch": 45, "duration": 1, "velocity": 63}, {"time": 3361, "pitch": 66, "duration": 8, "velocity": 66}, {"time": 3361, "pitch": 57, "duration": 8, "velocity": 53}, {"time": 3362, "pitch": 62, "duration": 6, "velocity": 56}, {"time": 3362, "pitch": 38, "duration": 34, "velocity": 65}, {"time": 3362, "pitch": 50, "duration": 6, "velocity": 56}, {"time": 3370, "pitch": 50, "duration": 4, "velocity": 59}, {"time": 3373, "pitch": 57, "duration": 6, "velocity": 81}, {"time": 3374, "pitch": 66, "duration": 5, "velocity": 74}, {"time": 3374, "pitch": 62, "duration": 5, "velocity": 69}, {"time": 3379, "pitch": 50, "duration": 5, "velocity": 47}, {"time": 3382, "pitch": 66, "duration": 5, "velocity": 80}, {"time": 3383, "pitch": 57, "duration": 4, "velocity": 68}, {"time": 3383, "pitch": 62, "duration": 4, "velocity": 61}, {"time": 3388, "pitch": 50, "duration": 4, "velocity": 75}, {"time": 3391, "pitch": 66, "duration": 4, "velocity": 86}, {"time": 3391, "pitch": 57, "duration": 4, "velocity": 83}, {"time": 3391, "pitch": 62, "duration": 4, "velocity": 72}, {"time": 3394, "pitch": 50, "duration": 7, "velocity": 64}, {"time": 3397, "pitch": 64, "duration": 7, "velocity": 80}, {"time": 3397, "pitch": 57, "duration": 4, "velocity": 72}, {"time": 3397, "pitch": 62, "duration": 1, "velocity": 44}, {"time": 3400, "pitch": 38, "duration": 4, "velocity": 85}, {"time": 3403, "pitch": 62, "duration": 1, "velocity": 72}, {"time": 3403, "pitch": 57, "duration": 2, "velocity": 67}, {"time": 3404, "pitch": 50, "duration": 1, "velocity": 77}, {"time": 3410, "pitch": 57, "duration": 8, "velocity": 59}, {"time": 3410, "pitch": 60, "duration": 8, "velocity": 63}, {"time": 3410, "pitch": 52, "duration": 6, "velocity": 59}, {"time": 3410, "pitch": 64, "duration": 8, "velocity": 63}, {"time": 3410, "pitch": 45, "duration": 20, "velocity": 53}, {"time": 3419, "pitch": 52, "duration": 4, "velocity": 54}, {"time": 3422, "pitch": 57, "duration": 7, "velocity": 71}, {"time": 3422, "pitch": 60, "duration": 7, "velocity": 68}, {"time": 3422, "pitch": 64, "duration": 7, "velocity": 67}, {"time": 3428, "pitch": 52, "duration": 5, "velocity": 58}, {"time": 3434, "pitch": 57, "duration": 7, "velocity": 80}, {"time": 3434, "pitch": 60, "duration": 7, "velocity": 76}, {"time": 3434, "pitch": 64, "duration": 7, "velocity": 81}, {"time": 3443, "pitch": 45, "duration": 6, "velocity": 69}, {"time": 3446, "pitch": 57, "duration": 3, "velocity": 80}, {"time": 3446, "pitch": 60, "duration": 3, "velocity": 81}, {"time": 3446, "pitch": 64, "duration": 3, "velocity": 77}, {"time": 3449, "pitch": 52, "duration": 3, "velocity": 74}, {"time": 3451, "pitch": 45, "duration": 1, "velocity": 59}, {"time": 3458, "pitch": 59, "duration": 7, "velocity": 71}, {"time": 3458, "pitch": 62, "duration": 7, "velocity": 71}, {"time": 3458, "pitch": 66, "duration": 7, "velocity": 71}, {"time": 3458, "pitch": 47, "duration": 15, "velocity": 62}, {"time": 3458, "pitch": 54, "duration": 5, "velocity": 67}, {"time": 3466, "pitch": 54, "duration": 4, "velocity": 72}, {"time": 3469, "pitch": 62, "duration": 4, "velocity": 76}, {"time": 3469, "pitch": 66, "duration": 4, "velocity": 79}, {"time": 3469, "pitch": 59, "duration": 3, "velocity": 79}, {"time": 3472, "pitch": 54, "duration": 3, "velocity": 53}, {"time": 3476, "pitch": 47, "duration": 1, "velocity": 47}, {"time": 3482, "pitch": 59, "duration": 7, "velocity": 64}, {"time": 3482, "pitch": 55, "duration": 7, "velocity": 62}, {"time": 3482, "pitch": 64, "duration": 7, "velocity": 63}, {"time": 3482, "pitch": 40, "duration": 15, "velocity": 57}, {"time": 3482, "pitch": 52, "duration": 5, "velocity": 54}, {"time": 3491, "pitch": 52, "duration": 3, "velocity": 63}, {"time": 3494, "pitch": 64, "duration": 5, "velocity": 79}, {"time": 3494, "pitch": 59, "duration": 4, "velocity": 80}, {"time": 3494, "pitch": 55, "duration": 3, "velocity": 87}, {"time": 3496, "pitch": 52, "duration": 4, "velocity": 61}, {"time": 3500, "pitch": 40, "duration": 1, "velocity": 63}, {"time": 3506, "pitch": 60, "duration": 7, "velocity": 69}, {"time": 3506, "pitch": 64, "duration": 7, "velocity": 69}, {"time": 3506, "pitch": 57, "duration": 6, "velocity": 72}, {"time": 3506, "pitch": 45, "duration": 18, "velocity": 57}, {"time": 3506, "pitch": 52, "duration": 4, "velocity": 61}, {"time": 3514, "pitch": 52, "duration": 5, "velocity": 72}, {"time": 3518, "pitch": 57, "duration": 8, "velocity": 81}, {"time": 3518, "pitch": 60, "duration": 8, "velocity": 80}, {"time": 3518, "pitch": 64, "duration": 8, "velocity": 76}, {"time": 3524, "pitch": 52, "duration": 3, "velocity": 55}, {"time": 3526, "pitch": 45, "duration": 19, "velocity": 44}, {"time": 3532, "pitch": 57, "duration": 4, "velocity": 76}, {"time": 3532, "pitch": 60, "duration": 4, "velocity": 79}, {"time": 3532, "pitch": 64, "duration": 4, "velocity": 71}, {"time": 3536, "pitch": 52, "duration": 6, "velocity": 83}, {"time": 3542, "pitch": 57, "duration": 5, "velocity": 88}, {"time": 3542, "pitch": 60, "duration": 5, "velocity": 87}, {"time": 3542, "pitch": 64, "duration": 5, "velocity": 81}, {"time": 3545, "pitch": 52, "duration": 3, "velocity": 63}, {"time": 3548, "pitch": 45, "duration": 1, "velocity": 50}, {"time": 3554, "pitch": 54, "duration": 4, "velocity": 84}, {"time": 3554, "pitch": 62, "duration": 3, "velocity": 85}, {"time": 3554, "pitch": 38, "duration": 24, "velocity": 72}, {"time": 3554, "pitch": 57, "duration": 4, "velocity": 79}, {"time": 3554, "pitch": 50, "duration": 4, "velocity": 67}, {"time": 3563, "pitch": 54, "duration": 2, "velocity": 76}, {"time": 3563, "pitch": 64, "duration": 2, "velocity": 77}, {"time": 3563, "pitch": 57, "duration": 2, "velocity": 72}, {"time": 3572, "pitch": 66, "duration": 4, "velocity": 80}, {"time": 3572, "pitch": 54, "duration": 4, "velocity": 79}, {"time": 3572, "pitch": 50, "duration": 3, "velocity": 63}, {"time": 3572, "pitch": 57, "duration": 5, "velocity": 67}, {"time": 3580, "pitch": 54, "duration": 3, "velocity": 80}, {"time": 3580, "pitch": 38, "duration": 3, "velocity": 67}, {"time": 3580, "pitch": 50, "duration": 2, "velocity": 81}, {"time": 3581, "pitch": 62, "duration": 3, "velocity": 69}, {"time": 3581, "pitch": 57, "duration": 3, "velocity": 59}, {"time": 3584, "pitch": 50, "duration": 1, "velocity": 71}, {"time": 3584, "pitch": 38, "duration": 2, "velocity": 84}, {"time": 3586, "pitch": 50, "duration": 2, "velocity": 87}, {"time": 3587, "pitch": 38, "duration": 1, "velocity": 85}, {"time": 3587, "pitch": 54, "duration": 1, "velocity": 68}, {"time": 3587, "pitch": 64, "duration": 1, "velocity": 62}, {"time": 3587, "pitch": 57, "duration": 1, "velocity": 47}, {"time": 3590, "pitch": 57, "duration": 2, "velocity": 63}, {"time": 3590, "pitch": 54, "duration": 2, "velocity": 85}, {"time": 3590, "pitch": 50, "duration": 2, "velocity": 91}, {"time": 3590, "pitch": 38, "duration": 1, "velocity": 95}, {"time": 3590, "pitch": 66, "duration": 1, "velocity": 86}, {"time": 3596, "pitch": 66, "duration": 2, "velocity": 101}, {"time": 3596, "pitch": 38, "duration": 1, "velocity": 88}, {"time": 3596, "pitch": 54, "duration": 1, "velocity": 88}, {"time": 3596, "pitch": 57, "duration": 1, "velocity": 59}, {"time": 3596, "pitch": 50, "duration": 1, "velocity": 68}, {"time": 3602, "pitch": 60, "duration": 1, "velocity": 59}, {"time": 3602, "pitch": 64, "duration": 2, "velocity": 63}, {"time": 3602, "pitch": 57, "duration": 1, "velocity": 57}, {"time": 3602, "pitch": 52, "duration": 1, "velocity": 68}, {"time": 3602, "pitch": 45, "duration": 2, "velocity": 59}, {"time": 3611, "pitch": 52, "duration": 1, "velocity": 72}, {"time": 3611, "pitch": 60, "duration": 1, "velocity": 67}, {"time": 3611, "pitch": 64, "duration": 1, "velocity": 67}, {"time": 3611, "pitch": 45, "duration": 1, "velocity": 67}, {"time": 3611, "pitch": 57, "duration": 1, "velocity": 58}, {"time": 3619, "pitch": 50, "duration": 2, "velocity": 77}, {"time": 3619, "pitch": 66, "duration": 1, "velocity": 67}, {"time": 3619, "pitch": 57, "duration": 1, "velocity": 59}, {"time": 3619, "pitch": 38, "duration": 1, "velocity": 74}, {"time": 3619, "pitch": 62, "duration": 1, "velocity": 55}, {"time": 3626, "pitch": 59, "duration": 2, "velocity": 67}, {"time": 3626, "pitch": 67, "duration": 2, "velocity": 71}, {"time": 3626, "pitch": 62, "duration": 2, "velocity": 65}, {"time": 3626, "pitch": 55, "duration": 1, "velocity": 75}, {"time": 3626, "pitch": 43, "duration": 1, "velocity": 74}, {"time": 3634, "pitch": 55, "duration": 4, "velocity": 47}, {"time": 3637, "pitch": 62, "duration": 7, "velocity": 67}, {"time": 3637, "pitch": 67, "duration": 7, "velocity": 74}, {"time": 3638, "pitch": 59, "duration": 6, "velocity": 72}, {"time": 3640, "pitch": 55, "duration": 4, "velocity": 47}, {"time": 3643, "pitch": 43, "duration": 1, "velocity": 69}, {"time": 3650, "pitch": 55, "duration": 4, "velocity": 75}, {"time": 3650, "pitch": 62, "duration": 4, "velocity": 67}, {"time": 3650, "pitch": 67, "duration": 4, "velocity": 71}, {"time": 3650, "pitch": 43, "duration": 4, "velocity": 77}, {"time": 3650, "pitch": 59, "duration": 4, "velocity": 68}, {"time": 3658, "pitch": 62, "duration": 2, "velocity": 64}, {"time": 3658, "pitch": 67, "duration": 2, "velocity": 71}, {"time": 3658, "pitch": 55, "duration": 2, "velocity": 88}, {"time": 3658, "pitch": 43, "duration": 3, "velocity": 84}, {"time": 3658, "pitch": 59, "duration": 2, "velocity": 68}, {"time": 3674, "pitch": 59, "duration": 16, "velocity": 84}, {"time": 3674, "pitch": 55, "duration": 17, "velocity": 94}, {"time": 3675, "pitch": 43, "duration": 17, "velocity": 92}, {"time": 3675, "pitch": 62, "duration": 16, "velocity": 75}, {"time": 3675, "pitch": 67, "duration": 16, "velocity": 84}, {"time": 3698, "pitch": 64, "duration": 5, "velocity": 81}, {"time": 3698, "pitch": 55, "duration": 4, "velocity": 84}, {"time": 3698, "pitch": 52, "duration": 5, "velocity": 88}, {"time": 3698, "pitch": 59, "duration": 5, "velocity": 76}, {"time": 3698, "pitch": 40, "duration": 5, "velocity": 89}, {"time": 3706, "pitch": 64, "duration": 2, "velocity": 74}, {"time": 3706, "pitch": 52, "duration": 2, "velocity": 99}, {"time": 3706, "pitch": 40, "duration": 2, "velocity": 93}, {"time": 3706, "pitch": 55, "duration": 1, "velocity": 85}, {"time": 3706, "pitch": 59, "duration": 1, "velocity": 74}, {"time": 3721, "pitch": 55, "duration": 9, "velocity": 90}, {"time": 3721, "pitch": 64, "duration": 9, "velocity": 81}, {"time": 3722, "pitch": 40, "duration": 15, "velocity": 87}, {"time": 3722, "pitch": 52, "duration": 6, "velocity": 85}, {"time": 3722, "pitch": 59, "duration": 8, "velocity": 80}, {"time": 3730, "pitch": 52, "duration": 4, "velocity": 58}, {"time": 3734, "pitch": 59, "duration": 4, "velocity": 81}, {"time": 3734, "pitch": 64, "duration": 4, "velocity": 84}, {"time": 3734, "pitch": 55, "duration": 2, "velocity": 90}, {"time": 3736, "pitch": 52, "duration": 4, "velocity": 63}, {"time": 3739, "pitch": 40, "duration": 1, "velocity": 69}, {"time": 3746, "pitch": 60, "duration": 7, "velocity": 58}, {"time": 3746, "pitch": 64, "duration": 7, "velocity": 58}, {"time": 3746, "pitch": 45, "duration": 38, "velocity": 58}, {"time": 3746, "pitch": 57, "duration": 7, "velocity": 47}, {"time": 3746, "pitch": 52, "duration": 6, "velocity": 51}, {"time": 3755, "pitch": 52, "duration": 6, "velocity": 42}, {"time": 3758, "pitch": 57, "duration": 5, "velocity": 67}, {"time": 3758, "pitch": 60, "duration": 6, "velocity": 67}, {"time": 3758, "pitch": 64, "duration": 6, "velocity": 63}, {"time": 3764, "pitch": 52, "duration": 9, "velocity": 39}, {"time": 3767, "pitch": 57, "duration": 2, "velocity": 56}, {"time": 3767, "pitch": 60, "duration": 2, "velocity": 65}, {"time": 3767, "pitch": 64, "duration": 2, "velocity": 56}, {"time": 3773, "pitch": 60, "duration": 3, "velocity": 67}, {"time": 3773, "pitch": 57, "duration": 3, "velocity": 63}, {"time": 3773, "pitch": 64, "duration": 3, "velocity": 59}, {"time": 3776, "pitch": 52, "duration": 5, "velocity": 59}, {"time": 3782, "pitch": 57, "duration": 4, "velocity": 74}, {"time": 3782, "pitch": 64, "duration": 2, "velocity": 65}, {"time": 3782, "pitch": 60, "duration": 3, "velocity": 68}, {"time": 3784, "pitch": 52, "duration": 4, "velocity": 53}, {"time": 3787, "pitch": 45, "duration": 1, "velocity": 56}, {"time": 3794, "pitch": 66, "duration": 5, "velocity": 55}, {"time": 3794, "pitch": 57, "duration": 6, "velocity": 45}, {"time": 3794, "pitch": 38, "duration": 38, "velocity": 58}, {"time": 3794, "pitch": 50, "duration": 5, "velocity": 56}, {"time": 3794, "pitch": 62, "duration": 5, "velocity": 54}, {"time": 3802, "pitch": 50, "duration": 4, "velocity": 56}, {"time": 3806, "pitch": 67, "duration": 4, "velocity": 76}, {"time": 3806, "pitch": 57, "duration": 4, "velocity": 71}, {"time": 3806, "pitch": 62, "duration": 4, "velocity": 58}, {"time": 3812, "pitch": 50, "duration": 2, "velocity": 46}, {"time": 3815, "pitch": 57, "duration": 4, "velocity": 67}, {"time": 3815, "pitch": 69, "duration": 4, "velocity": 63}, {"time": 3815, "pitch": 62, "duration": 4, "velocity": 55}, {"time": 3820, "pitch": 50, "duration": 3, "velocity": 52}, {"time": 3823, "pitch": 66, "duration": 3, "velocity": 71}, {"time": 3823, "pitch": 57, "duration": 3, "velocity": 63}, {"time": 3823, "pitch": 62, "duration": 2, "velocity": 55}, {"time": 3826, "pitch": 50, "duration": 3, "velocity": 50}, {"time": 3829, "pitch": 64, "duration": 4, "velocity": 71}, {"time": 3829, "pitch": 57, "duration": 3, "velocity": 75}, {"time": 3832, "pitch": 50, "duration": 2, "velocity": 67}, {"time": 3835, "pitch": 62, "duration": 2, "velocity": 67}, {"time": 3835, "pitch": 57, "duration": 1, "velocity": 63}, {"time": 3836, "pitch": 38, "duration": 1, "velocity": 58}, {"time": 3842, "pitch": 64, "duration": 7, "velocity": 63}, {"time": 3842, "pitch": 60, "duration": 7, "velocity": 61}, {"time": 3842, "pitch": 57, "duration": 6, "velocity": 58}, {"time": 3842, "pitch": 52, "duration": 4, "velocity": 56}, {"time": 3842, "pitch": 45, "duration": 16, "velocity": 52}, {"time": 3851, "pitch": 52, "duration": 3, "velocity": 48}, {"time": 3854, "pitch": 64, "duration": 6, "velocity": 75}, {"time": 3854, "pitch": 60, "duration": 6, "velocity": 75}, {"time": 3854, "pitch": 57, "duration": 6, "velocity": 74}, {"time": 3857, "pitch": 52, "duration": 4, "velocity": 64}, {"time": 3860, "pitch": 45, "duration": 1, "velocity": 51}, {"time": 3866, "pitch": 64, "duration": 7, "velocity": 59}, {"time": 3866, "pitch": 60, "duration": 7, "velocity": 59}, {"time": 3866, "pitch": 57, "duration": 6, "velocity": 59}, {"time": 3875, "pitch": 52, "duration": 3, "velocity": 72}, {"time": 3878, "pitch": 60, "duration": 7, "velocity": 87}, {"time": 3878, "pitch": 64, "duration": 8, "velocity": 81}, {"time": 3878, "pitch": 57, "duration": 6, "velocity": 80}, {"time": 3880, "pitch": 52, "duration": 4, "velocity": 79}, {"time": 3883, "pitch": 45, "duration": 1, "velocity": 69}, {"time": 3889, "pitch": 40, "duration": 40, "velocity": 54}, {"time": 3889, "pitch": 55, "duration": 7, "velocity": 56}, {"time": 3889, "pitch": 59, "duration": 7, "velocity": 53}, {"time": 3889, "pitch": 64, "duration": 7, "velocity": 56}, {"time": 3889, "pitch": 52, "duration": 7, "velocity": 46}, {"time": 3898, "pitch": 52, "duration": 6, "velocity": 47}, {"time": 3902, "pitch": 55, "duration": 5, "velocity": 69}, {"time": 3902, "pitch": 59, "duration": 5, "velocity": 71}, {"time": 3902, "pitch": 64, "duration": 5, "velocity": 71}, {"time": 3908, "pitch": 52, "duration": 8, "velocity": 41}, {"time": 3911, "pitch": 59, "duration": 1, "velocity": 63}, {"time": 3911, "pitch": 64, "duration": 2, "velocity": 68}, {"time": 3911, "pitch": 55, "duration": 1, "velocity": 68}, {"time": 3914, "pitch": 64, "duration": 6, "velocity": 69}, {"time": 3914, "pitch": 59, "duration": 6, "velocity": 67}, {"time": 3914, "pitch": 55, "duration": 6, "velocity": 59}, {"time": 3920, "pitch": 52, "duration": 6, "velocity": 62}, {"time": 3926, "pitch": 55, "duration": 4, "velocity": 84}, {"time": 3926, "pitch": 59, "duration": 4, "velocity": 75}, {"time": 3926, "pitch": 64, "duration": 5, "velocity": 71}, {"time": 3929, "pitch": 52, "duration": 2, "velocity": 59}, {"time": 3932, "pitch": 40, "duration": 1, "velocity": 68}, {"time": 3938, "pitch": 57, "duration": 8, "velocity": 59}, {"time": 3938, "pitch": 60, "duration": 8, "velocity": 59}, {"time": 3938, "pitch": 64, "duration": 8, "velocity": 58}, {"time": 3938, "pitch": 45, "duration": 39, "velocity": 63}, {"time": 3938, "pitch": 52, "duration": 6, "velocity": 57}, {"time": 3948, "pitch": 52, "duration": 3, "velocity": 59}, {"time": 3951, "pitch": 57, "duration": 5, "velocity": 79}, {"time": 3951, "pitch": 60, "duration": 5, "velocity": 76}, {"time": 3951, "pitch": 64, "duration": 5, "velocity": 77}, {"time": 3956, "pitch": 52, "duration": 9, "velocity": 43}, {"time": 3959, "pitch": 57, "duration": 2, "velocity": 63}, {"time": 3959, "pitch": 64, "duration": 3, "velocity": 69}, {"time": 3959, "pitch": 60, "duration": 2, "velocity": 67}, {"time": 3965, "pitch": 60, "duration": 3, "velocity": 76}, {"time": 3965, "pitch": 64, "duration": 3, "velocity": 68}, {"time": 3965, "pitch": 57, "duration": 3, "velocity": 75}, {"time": 3968, "pitch": 52, "duration": 6, "velocity": 64}, {"time": 3974, "pitch": 64, "duration": 4, "velocity": 76}, {"time": 3974, "pitch": 57, "duration": 6, "velocity": 83}, {"time": 3974, "pitch": 60, "duration": 5, "velocity": 75}, {"time": 3976, "pitch": 52, "duration": 4, "velocity": 59}, {"time": 3980, "pitch": 45, "duration": 1, "velocity": 74}, {"time": 3986, "pitch": 66, "duration": 5, "velocity": 86}, {"time": 3986, "pitch": 57, "duration": 5, "velocity": 79}, {"time": 3986, "pitch": 38, "duration": 38, "velocity": 77}, {"time": 3986, "pitch": 50, "duration": 5, "velocity": 67}, {"time": 3986, "pitch": 62, "duration": 5, "velocity": 69}, {"time": 3995, "pitch": 50, "duration": 4, "velocity": 64}, {"time": 3998, "pitch": 64, "duration": 5, "velocity": 76}, {"time": 3998, "pitch": 57, "duration": 4, "velocity": 77}, {"time": 4004, "pitch": 50, "duration": 4, "velocity": 55}, {"time": 4007, "pitch": 62, "duration": 4, "velocity": 88}, {"time": 4007, "pitch": 57, "duration": 4, "velocity": 85}, {"time": 4012, "pitch": 57, "duration": 4, "velocity": 59}, {"time": 4012, "pitch": 64, "duration": 4, "velocity": 68}, {"time": 4015, "pitch": 50, "duration": 7, "velocity": 63}, {"time": 4021, "pitch": 57, "duration": 3, "velocity": 84}, {"time": 4021, "pitch": 66, "duration": 4, "velocity": 84}, {"time": 4024, "pitch": 50, "duration": 2, "velocity": 50}, {"time": 4027, "pitch": 69, "duration": 2, "velocity": 73}, {"time": 4027, "pitch": 38, "duration": 1, "velocity": 67}, {"time": 4027, "pitch": 57, "duration": 1, "velocity": 61}, {"time": 4028, "pitch": 62, "duration": 1, "velocity": 45}, {"time": 4034, "pitch": 59, "duration": 7, "velocity": 76}, {"time": 4034, "pitch": 67, "duration": 7, "velocity": 71}, {"time": 4034, "pitch": 55, "duration": 6, "velocity": 58}, {"time": 4034, "pitch": 62, "duration": 8, "velocity": 65}, {"time": 4034, "pitch": 43, "duration": 39, "velocity": 63}, {"time": 4043, "pitch": 55, "duration": 4, "velocity": 61}, {"time": 4046, "pitch": 59, "duration": 5, "velocity": 84}, {"time": 4046, "pitch": 62, "duration": 5, "velocity": 79}, {"time": 4046, "pitch": 67, "duration": 5, "velocity": 87}, {"time": 4052, "pitch": 55, "duration": 1, "velocity": 51}, {"time": 4055, "pitch": 59, "duration": 2, "velocity": 64}, {"time": 4055, "pitch": 67, "duration": 2, "velocity": 68}, {"time": 4055, "pitch": 62, "duration": 2, "velocity": 63}, {"time": 4061, "pitch": 62, "duration": 2, "velocity": 72}, {"time": 4061, "pitch": 67, "duration": 2, "velocity": 73}, {"time": 4061, "pitch": 59, "duration": 2, "velocity": 77}, {"time": 4064, "pitch": 55, "duration": 6, "velocity": 58}, {"time": 4069, "pitch": 67, "duration": 7, "velocity": 82}, {"time": 4070, "pitch": 59, "duration": 4, "velocity": 80}, {"time": 4070, "pitch": 62, "duration": 4, "velocity": 75}, {"time": 4072, "pitch": 55, "duration": 3, "velocity": 49}, {"time": 4076, "pitch": 43, "duration": 1, "velocity": 68}, {"time": 4082, "pitch": 55, "duration": 6, "velocity": 63}, {"time": 4082, "pitch": 59, "duration": 6, "velocity": 62}, {"time": 4082, "pitch": 64, "duration": 6, "velocity": 67}, {"time": 4082, "pitch": 40, "duration": 40, "velocity": 63}, {"time": 4082, "pitch": 52, "duration": 5, "velocity": 45}, {"time": 4090, "pitch": 52, "duration": 4, "velocity": 58}, {"time": 4094, "pitch": 55, "duration": 3, "velocity": 79}, {"time": 4094, "pitch": 59, "duration": 4, "velocity": 68}, {"time": 4094, "pitch": 64, "duration": 4, "velocity": 62}, {"time": 4099, "pitch": 55, "duration": 2, "velocity": 41}, {"time": 4100, "pitch": 62, "duration": 1, "velocity": 47}, {"time": 4100, "pitch": 52, "duration": 3, "velocity": 45}, {"time": 4102, "pitch": 55, "duration": 5, "velocity": 55}, {"time": 4102, "pitch": 64, "duration": 5, "velocity": 67}, {"time": 4102, "pitch": 59, "duration": 5, "velocity": 69}, {"time": 4108, "pitch": 52, "duration": 3, "velocity": 63}, {"time": 4111, "pitch": 64, "duration": 4, "velocity": 71}, {"time": 4111, "pitch": 55, "duration": 3, "velocity": 83}, {"time": 4112, "pitch": 59, "duration": 3, "velocity": 65}, {"time": 4114, "pitch": 52, "duration": 4, "velocity": 69}, {"time": 4117, "pitch": 62, "duration": 6, "velocity": 74}, {"time": 4118, "pitch": 55, "duration": 4, "velocity": 80}, {"time": 4118, "pitch": 59, "duration": 4, "velocity": 69}, {"time": 4121, "pitch": 52, "duration": 4, "velocity": 62}, {"time": 4123, "pitch": 55, "duration": 2, "velocity": 64}, {"time": 4124, "pitch": 64, "duration": 2, "velocity": 77}, {"time": 4124, "pitch": 59, "duration": 1, "velocity": 62}, {"time": 4126, "pitch": 40, "duration": 1, "velocity": 72}, {"time": 4130, "pitch": 57, "duration": 8, "velocity": 71}, {"time": 4130, "pitch": 64, "duration": 8, "velocity": 64}, {"time": 4130, "pitch": 60, "duration": 8, "velocity": 62}, {"time": 4130, "pitch": 52, "duration": 7, "velocity": 68}, {"time": 4130, "pitch": 45, "duration": 38, "velocity": 50}, {"time": 4139, "pitch": 52, "duration": 4, "velocity": 65}, {"time": 4142, "pitch": 60, "duration": 4, "velocity": 80}, {"time": 4142, "pitch": 57, "duration": 4, "velocity": 87}, {"time": 4142, "pitch": 64, "duration": 4, "velocity": 77}, {"time": 4147, "pitch": 52, "duration": 10, "velocity": 46}, {"time": 4150, "pitch": 57, "duration": 2, "velocity": 58}, {"time": 4150, "pitch": 64, "duration": 2, "velocity": 55}, {"time": 4150, "pitch": 60, "duration": 1, "velocity": 58}, {"time": 4157, "pitch": 64, "duration": 3, "velocity": 69}, {"time": 4157, "pitch": 60, "duration": 2, "velocity": 72}, {"time": 4157, "pitch": 57, "duration": 3, "velocity": 69}, {"time": 4159, "pitch": 52, "duration": 6, "velocity": 69}, {"time": 4165, "pitch": 64, "duration": 3, "velocity": 76}, {"time": 4165, "pitch": 57, "duration": 5, "velocity": 80}, {"time": 4165, "pitch": 60, "duration": 5, "velocity": 75}, {"time": 4167, "pitch": 52, "duration": 4, "velocity": 51}, {"time": 4171, "pitch": 45, "duration": 1, "velocity": 63}, {"time": 4177, "pitch": 66, "duration": 8, "velocity": 66}, {"time": 4177, "pitch": 57, "duration": 8, "velocity": 53}, {"time": 4178, "pitch": 62, "duration": 6, "velocity": 56}, {"time": 4178, "pitch": 38, "duration": 34, "velocity": 65}, {"time": 4178, "pitch": 50, "duration": 6, "velocity": 56}, {"time": 4186, "pitch": 50, "duration": 4, "velocity": 59}, {"time": 4189, "pitch": 57, "duration": 6, "velocity": 81}, {"time": 4190, "pitch": 66, "duration": 5, "velocity": 74}, {"time": 4190, "pitch": 62, "duration": 5, "velocity": 69}, {"time": 4195, "pitch": 50, "duration": 5, "velocity": 47}, {"time": 4198, "pitch": 66, "duration": 5, "velocity": 80}, {"time": 4199, "pitch": 57, "duration": 4, "velocity": 68}, {"time": 4199, "pitch": 62, "duration": 4, "velocity": 61}, {"time": 4204, "pitch": 50, "duration": 4, "velocity": 75}, {"time": 4207, "pitch": 66, "duration": 4, "velocity": 86}, {"time": 4207, "pitch": 57, "duration": 4, "velocity": 83}, {"time": 4207, "pitch": 62, "duration": 4, "velocity": 72}, {"time": 4210, "pitch": 50, "duration": 7, "velocity": 64}, {"time": 4213, "pitch": 64, "duration": 7, "velocity": 80}, {"time": 4213, "pitch": 57, "duration": 4, "velocity": 72}, {"time": 4213, "pitch": 62, "duration": 1, "velocity": 44}, {"time": 4216, "pitch": 38, "duration": 4, "velocity": 85}, {"time": 4219, "pitch": 62, "duration": 1, "velocity": 72}, {"time": 4219, "pitch": 57, "duration": 2, "velocity": 67}, {"time": 4220, "pitch": 50, "duration": 1, "velocity": 77}, {"time": 4226, "pitch": 57, "duration": 8, "velocity": 59}, {"time": 4226, "pitch": 60, "duration": 8, "velocity": 63}, {"time": 4226, "pitch": 52, "duration": 6, "velocity": 59}, {"time": 4226, "pitch": 64, "duration": 8, "velocity": 63}, {"time": 4226, "pitch": 45, "duration": 20, "velocity": 53}, {"time": 4235, "pitch": 52, "duration": 4, "velocity": 54}, {"time": 4238, "pitch": 57, "duration": 7, "velocity": 71}, {"time": 4238, "pitch": 60, "duration": 7, "velocity": 68}, {"time": 4238, "pitch": 64, "duration": 7, "velocity": 67}, {"time": 4244, "pitch": 52, "duration": 5, "velocity": 58}, {"time": 4250, "pitch": 57, "duration": 7, "velocity": 80}, {"time": 4250, "pitch": 60, "duration": 7, "velocity": 76}, {"time": 4250, "pitch": 64, "duration": 7, "velocity": 81}, {"time": 4259, "pitch": 45, "duration": 6, "velocity": 69}, {"time": 4262, "pitch": 57, "duration": 3, "velocity": 80}, {"time": 4262, "pitch": 60, "duration": 3, "velocity": 81}, {"time": 4262, "pitch": 64, "duration": 3, "velocity": 77}, {"time": 4265, "pitch": 52, "duration": 3, "velocity": 74}, {"time": 4267, "pitch": 45, "duration": 1, "velocity": 59}, {"time": 4274, "pitch": 59, "duration": 7, "velocity": 71}, {"time": 4274, "pitch": 62, "duration": 7, "velocity": 71}, {"time": 4274, "pitch": 66, "duration": 7, "velocity": 71}, {"time": 4274, "pitch": 47, "duration": 15, "velocity": 62}, {"time": 4274, "pitch": 54, "duration": 5, "velocity": 67}, {"time": 4282, "pitch": 54, "duration": 4, "velocity": 72}, {"time": 4285, "pitch": 62, "duration": 4, "velocity": 76}, {"time": 4285, "pitch": 66, "duration": 4, "velocity": 79}, {"time": 4285, "pitch": 59, "duration": 3, "velocity": 79}, {"time": 4288, "pitch": 54, "duration": 3, "velocity": 53}, {"time": 4292, "pitch": 47, "duration": 1, "velocity": 47}, {"time": 4298, "pitch": 59, "duration": 7, "velocity": 64}, {"time": 4298, "pitch": 55, "duration": 7, "velocity": 62}, {"time": 4298, "pitch": 64, "duration": 7, "velocity": 63}, {"time": 4298, "pitch": 40, "duration": 15, "velocity": 57}, {"time": 4298, "pitch": 52, "duration": 5, "velocity": 54}, {"time": 4307, "pitch": 52, "duration": 3, "velocity": 63}, {"time": 4310, "pitch": 64, "duration": 5, "velocity": 79}, {"time": 4310, "pitch": 59, "duration": 4, "velocity": 80}, {"time": 4310, "pitch": 55, "duration": 3, "velocity": 87}, {"time": 4312, "pitch": 52, "duration": 4, "velocity": 61}, {"time": 4316, "pitch": 40, "duration": 1, "velocity": 63}, {"time": 4322, "pitch": 60, "duration": 7, "velocity": 69}, {"time": 4322, "pitch": 64, "duration": 7, "velocity": 69}, {"time": 4322, "pitch": 57, "duration": 6, "velocity": 72}, {"time": 4322, "pitch": 45, "duration": 18, "velocity": 57}, {"time": 4322, "pitch": 52, "duration": 4, "velocity": 61}, {"time": 4330, "pitch": 52, "duration": 5, "velocity": 72}, {"time": 4334, "pitch": 57, "duration": 8, "velocity": 81}, {"time": 4334, "pitch": 60, "duration": 8, "velocity": 80}, {"time": 4334, "pitch": 64, "duration": 8, "velocity": 76}, {"time": 4340, "pitch": 52, "duration": 3, "velocity": 55}, {"time": 4342, "pitch": 45, "duration": 19, "velocity": 44}, {"time": 4348, "pitch": 57, "duration": 4, "velocity": 76}, {"time": 4348, "pitch": 60, "duration": 4, "velocity": 79}, {"time": 4348, "pitch": 64, "duration": 4, "velocity": 71}, {"time": 4352, "pitch": 52, "duration": 6, "velocity": 83}, {"time": 4358, "pitch": 57, "duration": 5, "velocity": 88}, {"time": 4358, "pitch": 60, "duration": 5, "velocity": 87}, {"time": 4358, "pitch": 64, "duration": 5, "velocity": 81}, {"time": 4361, "pitch": 52, "duration": 3, "velocity": 63}, {"time": 4364, "pitch": 45, "duration": 1, "velocity": 50}, {"time": 4370, "pitch": 54, "duration": 4, "velocity": 84}, {"time": 4370, "pitch": 62, "duration": 3, "velocity": 85}, {"time": 4370, "pitch": 38, "duration": 24, "velocity": 72}, {"time": 4370, "pitch": 57, "duration": 4, "velocity": 79}, {"time": 4370, "pitch": 50, "duration": 4, "velocity": 67}, {"time": 4379, "pitch": 54, "duration": 2, "velocity": 76}, {"time": 4379, "pitch": 64, "duration": 2, "velocity": 77}, {"time": 4379, "pitch": 57, "duration": 2, "velocity": 72}, {"time": 4388, "pitch": 66, "duration": 4, "velocity": 80}, {"time": 4388, "pitch": 54, "duration": 4, "velocity": 79}, {"time": 4388, "pitch": 50, "duration": 3, "velocity": 63}, {"time": 4388, "pitch": 57, "duration": 5, "velocity": 67}, {"time": 4396, "pitch": 54, "duration": 3, "velocity": 80}, {"time": 4396, "pitch": 38, "duration": 3, "velocity": 67}, {"time": 4396, "pitch": 50, "duration": 2, "velocity": 81}, {"time": 4397, "pitch": 62, "duration": 3, "velocity": 69}, {"time": 4397, "pitch": 57, "duration": 3, "velocity": 59}, {"time": 4400, "pitch": 50, "duration": 1, "velocity": 71}, {"time": 4400, "pitch": 38, "duration": 2, "velocity": 84}, {"time": 4402, "pitch": 50, "duration": 2, "velocity": 87}, {"time": 4403, "pitch": 38, "duration": 1, "velocity": 85}, {"time": 4403, "pitch": 54, "duration": 1, "velocity": 68}, {"time": 4403, "pitch": 64, "duration": 1, "velocity": 62}, {"time": 4403, "pitch": 57, "duration": 1, "velocity": 47}, {"time": 4406, "pitch": 57, "duration": 2, "velocity": 63}, {"time": 4406, "pitch": 54, "duration": 2, "velocity": 85}, {"time": 4406, "pitch": 50, "duration": 2, "velocity": 91}, {"time": 4406, "pitch": 38, "duration": 1, "velocity": 95}, {"time": 4406, "pitch": 66, "duration": 1, "velocity": 86}, {"time": 4412, "pitch": 66, "duration": 2, "velocity": 101}, {"time": 4412, "pitch": 38, "duration": 1, "velocity": 88}, {"time": 4412, "pitch": 54, "duration": 1, "velocity": 88}, {"time": 4412, "pitch": 57, "duration": 1, "velocity": 59}, {"time": 4412, "pitch": 50, "duration": 1, "velocity": 68}, {"time": 4417, "pitch": 60, "duration": 5, "velocity": 56}, {"time": 4417, "pitch": 64, "duration": 5, "velocity": 57}, {"time": 4418, "pitch": 57, "duration": 4, "velocity": 58}, {"time": 4418, "pitch": 45, "duration": 14, "velocity": 55}, {"time": 4418, "pitch": 52, "duration": 2, "velocity": 51}, {"time": 4426, "pitch": 60, "duration": 6, "velocity": 65}, {"time": 4426, "pitch": 64, "duration": 6, "velocity": 69}, {"time": 4426, "pitch": 57, "duration": 5, "velocity": 62}, {"time": 4436, "pitch": 66, "duration": 3, "velocity": 71}, {"time": 4436, "pitch": 62, "duration": 2, "velocity": 65}, {"time": 4437, "pitch": 57, "duration": 1, "velocity": 51}, {"time": 4437, "pitch": 38, "duration": 2, "velocity": 59}, {"time": 4437, "pitch": 50, "duration": 2, "velocity": 50}, {"time": 4443, "pitch": 55, "duration": 11, "velocity": 68}, {"time": 4443, "pitch": 62, "duration": 8, "velocity": 61}, {"time": 4443, "pitch": 59, "duration": 7, "velocity": 56}, {"time": 4443, "pitch": 67, "duration": 8, "velocity": 64}, {"time": 4443, "pitch": 43, "duration": 26, "velocity": 51}, {"time": 4454, "pitch": 67, "duration": 3, "velocity": 76}, {"time": 4454, "pitch": 62, "duration": 3, "velocity": 65}, {"time": 4454, "pitch": 59, "duration": 2, "velocity": 68}, {"time": 4460, "pitch": 55, "duration": 2, "velocity": 39}, {"time": 4463, "pitch": 62, "duration": 4, "velocity": 72}, {"time": 4463, "pitch": 67, "duration": 4, "velocity": 71}, {"time": 4463, "pitch": 59, "duration": 3, "velocity": 74}, {"time": 4468, "pitch": 62, "duration": 4, "velocity": 61}, {"time": 4468, "pitch": 67, "duration": 3, "velocity": 62}, {"time": 4468, "pitch": 59, "duration": 3, "velocity": 63}, {"time": 4471, "pitch": 55, "duration": 9, "velocity": 81}, {"time": 4477, "pitch": 59, "duration": 2, "velocity": 75}, {"time": 4477, "pitch": 67, "duration": 3, "velocity": 76}, {"time": 4477, "pitch": 62, "duration": 3, "velocity": 71}, {"time": 4479, "pitch": 43, "duration": 3, "velocity": 79}, {"time": 4483, "pitch": 55, "duration": 1, "velocity": 80}, {"time": 4489, "pitch": 67, "duration": 8, "velocity": 62}, {"time": 4489, "pitch": 62, "duration": 8, "velocity": 59}, {"time": 4489, "pitch": 59, "duration": 7, "velocity": 56}, {"time": 4489, "pitch": 55, "duration": 6, "velocity": 47}, {"time": 4489, "pitch": 43, "duration": 20, "velocity": 54}, {"time": 4502, "pitch": 62, "duration": 6, "velocity": 67}, {"time": 4502, "pitch": 67, "duration": 6, "velocity": 67}, {"time": 4502, "pitch": 59, "duration": 5, "velocity": 67}, {"time": 4508, "pitch": 55, "duration": 1, "velocity": 63}, {"time": 4514, "pitch": 67, "duration": 2, "velocity": 58}, {"time": 4514, "pitch": 43, "duration": 15, "velocity": 53}, {"time": 4514, "pitch": 62, "duration": 2, "velocity": 58}, {"time": 4514, "pitch": 59, "duration": 2, "velocity": 50}, {"time": 4514, "pitch": 55, "duration": 9, "velocity": 48}, {"time": 4520, "pitch": 62, "duration": 12, "velocity": 47}, {"time": 4520, "pitch": 67, "duration": 14, "velocity": 55}, {"time": 4520, "pitch": 59, "duration": 12, "velocity": 49}, {"time": 4532, "pitch": 55, "duration": 1, "velocity": 76}, {"time": 4538, "pitch": 64, "duration": 7, "velocity": 61}, {"time": 4538, "pitch": 59, "duration": 7, "velocity": 53}, {"time": 4538, "pitch": 55, "duration": 7, "velocity": 55}, {"time": 4539, "pitch": 40, "duration": 17, "velocity": 54}, {"time": 4539, "pitch": 52, "duration": 12, "velocity": 47}, {"time": 4550, "pitch": 59, "duration": 4, "velocity": 68}, {"time": 4550, "pitch": 55, "duration": 6, "velocity": 71}, {"time": 4550, "pitch": 64, "duration": 6, "velocity": 69}, {"time": 4555, "pitch": 59, "duration": 2, "velocity": 68}, {"time": 4562, "pitch": 52, "duration": 9, "velocity": 53}, {"time": 4562, "pitch": 40, "duration": 14, "velocity": 56}, {"time": 4562, "pitch": 59, "duration": 2, "velocity": 47}, {"time": 4562, "pitch": 55, "duration": 2, "velocity": 53}, {"time": 4562, "pitch": 64, "duration": 2, "velocity": 50}, {"time": 4567, "pitch": 64, "duration": 12, "velocity": 64}, {"time": 4568, "pitch": 55, "duration": 6, "velocity": 68}, {"time": 4568, "pitch": 59, "duration": 10, "velocity": 69}, {"time": 4580, "pitch": 52, "duration": 1, "velocity": 64}, {"time": 4586, "pitch": 60, "duration": 6, "velocity": 59}, {"time": 4586, "pitch": 64, "duration": 6, "velocity": 61}, {"time": 4586, "pitch": 57, "duration": 6, "velocity": 51}, {"time": 4586, "pitch": 45, "duration": 14, "velocity": 50}, {"time": 4586, "pitch": 52, "duration": 13, "velocity": 57}, {"time": 4598, "pitch": 60, "duration": 7, "velocity": 69}, {"time": 4598, "pitch": 64, "duration": 7, "velocity": 67}, {"time": 4598, "pitch": 57, "duration": 7, "velocity": 56}, {"time": 4604, "pitch": 52, "duration": 1, "velocity": 63}, {"time": 4610, "pitch": 60, "duration": 2, "velocity": 54}, {"time": 4610, "pitch": 64, "duration": 3, "velocity": 59}, {"time": 4610, "pitch": 52, "duration": 11, "velocity": 61}, {"time": 4610, "pitch": 57, "duration": 2, "velocity": 47}, {"time": 4610, "pitch": 45, "duration": 17, "velocity": 53}, {"time": 4616, "pitch": 60, "duration": 10, "velocity": 53}, {"time": 4616, "pitch": 57, "duration": 8, "velocity": 56}, {"time": 4616, "pitch": 64, "duration": 11, "velocity": 54}, {"time": 4628, "pitch": 52, "duration": 1, "velocity": 58}, {"time": 4634, "pitch": 66, "duration": 7, "velocity": 63}, {"time": 4634, "pitch": 57, "duration": 7, "velocity": 54}, {"time": 4634, "pitch": 62, "duration": 7, "velocity": 61}, {"time": 4634, "pitch": 38, "duration": 18, "velocity": 53}, {"time": 4634, "pitch": 50, "duration": 7, "velocity": 43}, {"time": 4646, "pitch": 66, "duration": 6, "velocity": 68}, {"time": 4646, "pitch": 62, "duration": 6, "velocity": 59}, {"time": 4646, "pitch": 57, "duration": 6, "velocity": 56}, {"time": 4652, "pitch": 50, "duration": 1, "velocity": 56}, {"time": 4657, "pitch": 57, "duration": 3, "velocity": 51}, {"time": 4657, "pitch": 66, "duration": 3, "velocity": 54}, {"time": 4658, "pitch": 62, "duration": 1, "velocity": 51}, {"time": 4658, "pitch": 38, "duration": 17, "velocity": 61}, {"time": 4658, "pitch": 50, "duration": 10, "velocity": 57}, {"time": 4663, "pitch": 66, "duration": 12, "velocity": 66}, {"time": 4663, "pitch": 57, "duration": 11, "velocity": 67}, {"time": 4664, "pitch": 62, "duration": 11, "velocity": 63}, {"time": 4675, "pitch": 50, "duration": 1, "velocity": 57}, {"time": 4682, "pitch": 64, "duration": 6, "velocity": 63}, {"time": 4682, "pitch": 60, "duration": 6, "velocity": 59}, {"time": 4682, "pitch": 57, "duration": 6, "velocity": 57}, {"time": 4682, "pitch": 52, "duration": 12, "velocity": 56}, {"time": 4682, "pitch": 45, "duration": 19, "velocity": 47}, {"time": 4694, "pitch": 60, "duration": 5, "velocity": 64}, {"time": 4694, "pitch": 64, "duration": 5, "velocity": 67}, {"time": 4694, "pitch": 57, "duration": 5, "velocity": 63}, {"time": 4700, "pitch": 52, "duration": 1, "velocity": 61}, {"time": 4706, "pitch": 66, "duration": 7, "velocity": 62}, {"time": 4706, "pitch": 62, "duration": 7, "velocity": 59}, {"time": 4706, "pitch": 50, "duration": 13, "velocity": 54}, {"time": 4706, "pitch": 57, "duration": 7, "velocity": 55}, {"time": 4718, "pitch": 66, "duration": 7, "velocity": 76}, {"time": 4718, "pitch": 62, "duration": 6, "velocity": 72}, {"time": 4718, "pitch": 57, "duration": 6, "velocity": 72}, {"time": 4724, "pitch": 50, "duration": 2, "velocity": 59}, {"time": 4730, "pitch": 64, "duration": 7, "velocity": 62}, {"time": 4730, "pitch": 59, "duration": 7, "velocity": 58}, {"time": 4730, "pitch": 55, "duration": 7, "velocity": 61}, {"time": 4730, "pitch": 52, "duration": 6, "velocity": 52}, {"time": 4730, "pitch": 40, "duration": 42, "velocity": 54}, {"time": 4739, "pitch": 52, "duration": 3, "velocity": 43}, {"time": 4742, "pitch": 59, "duration": 6, "velocity": 77}, {"time": 4742, "pitch": 64, "duration": 6, "velocity": 72}, {"time": 4742, "pitch": 55, "duration": 6, "velocity": 72}, {"time": 4748, "pitch": 52, "duration": 6, "velocity": 43}, {"time": 4754, "pitch": 59, "duration": 6, "velocity": 53}, {"time": 4754, "pitch": 64, "duration": 7, "velocity": 44}, {"time": 4754, "pitch": 55, "duration": 7, "velocity": 44}, {"time": 4763, "pitch": 52, "duration": 4, "velocity": 57}, {"time": 4766, "pitch": 59, "duration": 6, "velocity": 76}, {"time": 4766, "pitch": 64, "duration": 6, "velocity": 74}, {"time": 4766, "pitch": 55, "duration": 5, "velocity": 72}, {"time": 4772, "pitch": 52, "duration": 1, "velocity": 67}, {"time": 4778, "pitch": 64, "duration": 7, "velocity": 63}, {"time": 4778, "pitch": 60, "duration": 7, "velocity": 65}, {"time": 4778, "pitch": 57, "duration": 7, "velocity": 59}, {"time": 4778, "pitch": 45, "duration": 18, "velocity": 53}, {"time": 4778, "pitch": 52, "duration": 13, "velocity": 47}, {"time": 4790, "pitch": 60, "duration": 5, "velocity": 76}, {"time": 4790, "pitch": 57, "duration": 5, "velocity": 74}, {"time": 4790, "pitch": 64, "duration": 6, "velocity": 71}, {"time": 4796, "pitch": 52, "duration": 1, "velocity": 69}, {"time": 4802, "pitch": 62, "duration": 8, "velocity": 76}, {"time": 4802, "pitch": 66, "duration": 9, "velocity": 71}, {"time": 4802, "pitch": 69, "duration": 8, "velocity": 74}, {"time": 4802, "pitch": 50, "duration": 18, "velocity": 56}, {"time": 4802, "pitch": 57, "duration": 7, "velocity": 58}, {"time": 4811, "pitch": 57, "duration": 5, "velocity": 64}, {"time": 4814, "pitch": 62, "duration": 6, "velocity": 85}, {"time": 4814, "pitch": 69, "duration": 7, "velocity": 90}, {"time": 4814, "pitch": 66, "duration": 6, "velocity": 80}, {"time": 4820, "pitch": 57, "duration": 1, "velocity": 67}, {"time": 4826, "pitch": 62, "duration": 7, "velocity": 76}, {"time": 4826, "pitch": 67, "duration": 7, "velocity": 80}, {"time": 4826, "pitch": 43, "duration": 40, "velocity": 80}, {"time": 4826, "pitch": 59, "duration": 6, "velocity": 77}, {"time": 4838, "pitch": 67, "duration": 5, "velocity": 68}, {"time": 4838, "pitch": 59, "duration": 5, "velocity": 64}, {"time": 4838, "pitch": 62, "duration": 5, "velocity": 72}, {"time": 4844, "pitch": 55, "duration": 9, "velocity": 47}, {"time": 4850, "pitch": 67, "duration": 6, "velocity": 71}, {"time": 4850, "pitch": 59, "duration": 5, "velocity": 67}, {"time": 4850, "pitch": 62, "duration": 6, "velocity": 76}, {"time": 4858, "pitch": 55, "duration": 4, "velocity": 40}, {"time": 4862, "pitch": 67, "duration": 5, "velocity": 76}, {"time": 4862, "pitch": 59, "duration": 4, "velocity": 72}, {"time": 4862, "pitch": 62, "duration": 6, "velocity": 72}, {"time": 4867, "pitch": 55, "duration": 1, "velocity": 64}, {"time": 4871, "pitch": 71, "duration": 3, "velocity": 59}, {"time": 4871, "pitch": 74, "duration": 3, "velocity": 68}, {"time": 4874, "pitch": 43, "duration": 73, "velocity": 66}, {"time": 4874, "pitch": 50, "duration": 72, "velocity": 90}, {"time": 4874, "pitch": 55, "duration": 72, "velocity": 64}, {"time": 4874, "pitch": 79, "duration": 48, "velocity": 60}], "annotations": [{"time": 75, "annotation": {"number": 64, "value": 71}, "group": "control_change"}, {"time": 76, "annotation": {"number": 64, "value": 127}, "group": "control_change"}, {"time": 122, "annotation": {"number": 64, "value": 71}, "group": "control_change"}, {"time": 122, "annotation": {"number": 64, "value": 0}, "group": "control_change"}, {"time": 126, "annotation": {"number": 64, "value": 71}, "group": "control_change"}, {"time": 127, "annotation": {"number": 64, "value": 127}, "group": "control_change"}, {"time": 170, "annotation": {"number": 64, "value": 71}, "group": "control_change"}, {"time": 171, "annotation": {"number": 64, "value": 0}, "group": "control_change"}, {"time": 176, "annotation": {"number": 64, "value": 71}, "group": "control_change"}, {"time": 176, "annotation": {"number": 64, "value": 127}, "group": "control_change"}, {"time": 217, "annotation": {"number": 64, "value": 71}, "group": "control_change"}, {"time": 218, "annotation": {"number": 64, "value": 0}, "group": "control_change"}, {"time": 222, "annotation": {"number": 64, "value": 71}, "group": "control_change"}, {"time": 223, "annotation": {"number": 64, "value": 127}, "group": "control_change"}, {"time": 266, "annotation": {"number": 64, "value": 71}, "group": "control_change"}, {"time": 267, "annotation": {"number": 64, "value": 0}, "group": "control_change"}, {"time": 271, "annotation": {"number": 64, "value": 71}, "group": "control_change"}, {"time": 272, "annotation": {"number": 64, "value": 127}, "group": "control_change"}, {"time": 290, "annotation": {"number": 64, "value": 0}, "group": "control_change"}, {"time": 292, "annotation": {"number": 64, "value": 127}, "group": "control_change"}, {"time": 301, "annotation": {"number": 64, "value": 71}, "group": "control_change"}, {"time": 302, "annotation": {"number": 64, "value": 127}, "group": "control_change"}, {"time": 314, "annotation": {"number": 64, "value": 71}, "group": "control_change"}, {"time": 314, "annotation": {"number": 64, "value": 0}, "group": "control_change"}, {"time": 315, "annotation": {"number": 64, "value": 0}, "group": "control_change"}, {"time": 318, "annotation": {"number": 64, "value": 71}, "group": "control_change"}, {"time": 319, "annotation": {"number": 64, "value": 127}, "group": "control_change"}, {"time": 361, "annotation": {"number": 64, "value": 71}, "group": "control_change"}, {"time": 362, "annotation": {"number": 64, "value": 0}, "group": "control_change"}, {"time": 366, "annotation": {"number": 64, "value": 71}, "group": "control_change"}, {"time": 367, "annotation": {"number": 64, "value": 127}, "group": "control_change"}, {"time": 409, "annotation": {"number": 64, "value": 71}, "group": "control_change"}, {"time": 410, "annotation": {"number": 64, "value": 0}, "group": "control_change"}, {"time": 413, "annotation": {"number": 64, "value": 71}, "group": "control_change"}, {"time": 414, "annotation": {"number": 64, "value": 127}, "group": "control_change"}, {"time": 458, "annotation": {"number": 64, "value": 71}, "group": "control_change"}, {"time": 458, "annotation": {"number": 64, "value": 0}, "group": "control_change"}, {"time": 460, "annotation": {"number": 64, "value": 71}, "group": "control_change"}, {"time": 460, "annotation": {"number": 64, "value": 127}, "group": "control_change"}, {"time": 505, "annotation": {"number": 64, "value": 71}, "group": "control_change"}, {"time": 506, "annotation": {"number": 64, "value": 0}, "group": "control_change"}, {"time": 510, "annotation": {"number": 64, "value": 71}, "group": "control_change"}, {"time": 511, "annotation": {"number": 64, "value": 127}, "group": "control_change"}, {"time": 553, "annotation": {"number": 64, "value": 71}, "group": "control_change"}, {"time": 554, "annotation": {"number": 64, "value": 0}, "group": "control_change"}, {"time": 559, "annotation": {"number": 64, "value": 71}, "group": "control_change"}, {"time": 560, "annotation": {"number": 64, "value": 127}, "group": "control_change"}, {"time": 602, "annotation": {"number": 64, "value": 71}, "group": "control_change"}, {"time": 603, "annotation": {"number": 64, "value": 0}, "group": "control_change"}, {"time": 606, "annotation": {"number": 64, "value": 71}, "group": "control_change"}, {"time": 607, "annotation": {"number": 64, "value": 127}, "group": "control_change"}, {"time": 650, "annotation": {"number": 64, "value": 71}, "group": "control_change"}, {"time": 651, "annotation": {"number": 64, "value": 0}, "group": "control_change"}, {"time": 655, "annotation": {"number": 64, "value": 71}, "group": "control_change"}, {"time": 656, "annotation": {"number": 64, "value": 127}, "group": "control_change"}, {"time": 698, "annotation": {"number": 64, "value": 71}, "group": "control_change"}, {"time": 698, "annotation": {"number": 64, "value": 0}, "group": "control_change"}, {"time": 702, "annotation": {"number": 64, "value": 71}, "group": "control_change"}, {"time": 703, "annotation": {"number": 64, "value": 127}, "group": "control_change"}, {"time": 746, "annotation": {"number": 64, "value": 71}, "group": "control_change"}, {"time": 747, "annotation": {"number": 64, "value": 0}, "group": "control_change"}, {"time": 750, "annotation": {"number": 64, "value": 71}, "group": "control_change"}, {"time": 751, "annotation": {"number": 64, "value": 127}, "group": "control_change"}, {"time": 794, "annotation": {"number": 64, "value": 71}, "group": "control_change"}, {"time": 795, "annotation": {"number": 64, "value": 0}, "group": "control_change"}, {"time": 798, "annotation": {"number": 64, "value": 71}, "group": "control_change"}, {"time": 799, "annotation": {"number": 64, "value": 127}, "group": "control_change"}, {"time": 842, "annotation": {"number": 64, "value": 71}, "group": "control_change"}, {"time": 843, "annotation": {"number": 64, "value": 0}, "group": "control_change"}, {"time": 847, "annotation": {"number": 64, "value": 71}, "group": "control_change"}, {"time": 848, "annotation": {"number": 64, "value": 127}, "group": "control_change"}, {"time": 889, "annotation": {"number": 64, "value": 71}, "group": "control_change"}, {"time": 890, "annotation": {"number": 64, "value": 0}, "group": "control_change"}, {"time": 893, "annotation": {"number": 64, "value": 71}, "group": "control_change"}, {"time": 894, "annotation": {"number": 64, "value": 127}, "group": "control_change"}, {"time": 938, "annotation": {"number": 64, "value": 71}, "group": "control_change"}, {"time": 939, "annotation": {"number": 64, "value": 0}, "group": "control_change"}, {"time": 943, "annotation": {"number": 64, "value": 71}, "group": "control_change"}, {"time": 944, "annotation": {"number": 64, "value": 127}, "group": "control_change"}, {"time": 986, "annotation": {"number": 64, "value": 71}, "group": "control_change"}, {"time": 986, "annotation": {"number": 64, "value": 0}, "group": "control_change"}, {"time": 989, "annotation": {"number": 64, "value": 71}, "group": "control_change"}, {"time": 990, "annotation": {"number": 64, "value": 127}, "group": "control_change"}, {"time": 1034, "annotation": {"number": 64, "value": 71}, "group": "control_change"}, {"time": 1035, "annotation": {"number": 64, "value": 0}, "group": "control_change"}, {"time": 1038, "annotation": {"number": 64, "value": 71}, "group": "control_change"}, {"time": 1039, "annotation": {"number": 64, "value": 127}, "group": "control_change"}, {"time": 1081, "annotation": {"number": 64, "value": 71}, "group": "control_change"}, {"time": 1082, "annotation": {"number": 64, "value": 0}, "group": "control_change"}, {"time": 1086, "annotation": {"number": 64, "value": 71}, "group": "control_change"}, {"time": 1086, "annotation": {"number": 64, "value": 127}, "group": "control_change"}, {"time": 1130, "annotation": {"number": 64, "value": 71}, "group": "control_change"}, {"time": 1131, "annotation": {"number": 64, "value": 0}, "group": "control_change"}, {"time": 1134, "annotation": {"number": 64, "value": 71}, "group": "control_change"}, {"time": 1135, "annotation": {"number": 64, "value": 127}, "group": "control_change"}, {"time": 1178, "annotation": {"number": 64, "value": 71}, "group": "control_change"}, {"time": 1179, "annotation": {"number": 64, "value": 0}, "group": "control_change"}, {"time": 1181, "annotation": {"number": 64, "value": 71}, "group": "control_change"}, {"time": 1182, "annotation": {"number": 64, "value": 127}, "group": "control_change"}, {"time": 1226, "annotation": {"number": 64, "value": 71}, "group": "control_change"}, {"time": 1226, "annotation": {"number": 64, "value": 0}, "group": "control_change"}, {"time": 1230, "annotation": {"number": 64, "value": 71}, "group": "control_change"}, {"time": 1231, "annotation": {"number": 64, "value": 127}, "group": "control_change"}, {"time": 1274, "annotation": {"number": 64, "value": 71}, "group": "control_change"}, {"time": 1275, "annotation": {"number": 64, "value": 0}, "group": "control_change"}, {"time": 1278, "annotation": {"number": 64, "value": 71}, "group": "control_change"}, {"time": 1279, "annotation": {"number": 64, "value": 127}, "group": "control_change"}, {"time": 1322, "annotation": {"number": 64, "value": 71}, "group": "control_change"}, {"time": 1323, "annotation": {"number": 64, "value": 0}, "group": "control_change"}, {"time": 1327, "annotation": {"number": 64, "value": 71}, "group": "control_change"}, {"time": 1328, "annotation": {"number": 64, "value": 127}, "group": "control_change"}, {"time": 1369, "annotation": {"number": 64, "value": 71}, "group": "control_change"}, {"time": 1371, "annotation": {"number": 64, "value": 0}, "group": "control_change"}, {"time": 1374, "annotation": {"number": 64, "value": 71}, "group": "control_change"}, {"time": 1375, "annotation": {"number": 64, "value": 127}, "group": "control_change"}, {"time": 1418, "annotation": {"number": 64, "value": 71}, "group": "control_change"}, {"time": 1419, "annotation": {"number": 64, "value": 0}, "group": "control_change"}, {"time": 1423, "annotation": {"number": 64, "value": 71}, "group": "control_change"}, {"time": 1424, "annotation": {"number": 64, "value": 127}, "group": "control_change"}, {"time": 1443, "annotation": {"number": 64, "value": 71}, "group": "control_change"}, {"time": 1444, "annotation": {"number": 64, "value": 0}, "group": "control_change"}, {"time": 1444, "annotation": {"number": 64, "value": 71}, "group": "control_change"}, {"time": 1446, "annotation": {"number": 64, "value": 127}, "group": "control_change"}, {"time": 1466, "annotation": {"number": 64, "value": 71}, "group": "control_change"}, {"time": 1467, "annotation": {"number": 64, "value": 0}, "group": "control_change"}, {"time": 1469, "annotation": {"number": 64, "value": 71}, "group": "control_change"}, {"time": 1470, "annotation": {"number": 64, "value": 127}, "group": "control_change"}, {"time": 1490, "annotation": {"number": 64, "value": 71}, "group": "control_change"}, {"time": 1491, "annotation": {"number": 64, "value": 0}, "group": "control_change"}, {"time": 1493, "annotation": {"number": 64, "value": 71}, "group": "control_change"}, {"time": 1494, "annotation": {"number": 64, "value": 127}, "group": "control_change"}, {"time": 1513, "annotation": {"number": 64, "value": 71}, "group": "control_change"}, {"time": 1514, "annotation": {"number": 64, "value": 0}, "group": "control_change"}, {"time": 1517, "annotation": {"number": 64, "value": 71}, "group": "control_change"}, {"time": 1517, "annotation": {"number": 64, "value": 127}, "group": "control_change"}, {"time": 1561, "annotation": {"number": 64, "value": 71}, "group": "control_change"}, {"time": 1562, "annotation": {"number": 64, "value": 0}, "group": "control_change"}, {"time": 1565, "annotation": {"number": 64, "value": 71}, "group": "control_change"}, {"time": 1565, "annotation": {"number": 64, "value": 127}, "group": "control_change"}, {"time": 1610, "annotation": {"number": 64, "value": 71}, "group": "control_change"}, {"time": 1610, "annotation": {"number": 64, "value": 0}, "group": "control_change"}, {"time": 1613, "annotation": {"number": 64, "value": 71}, "group": "control_change"}, {"time": 1613, "annotation": {"number": 64, "value": 127}, "group": "control_change"}, {"time": 1658, "annotation": {"number": 64, "value": 71}, "group": "control_change"}, {"time": 1659, "annotation": {"number": 64, "value": 0}, "group": "control_change"}, {"time": 1662, "annotation": {"number": 64, "value": 71}, "group": "control_change"}, {"time": 1663, "annotation": {"number": 64, "value": 127}, "group": "control_change"}, {"time": 1706, "annotation": {"number": 64, "value": 71}, "group": "control_change"}, {"time": 1706, "annotation": {"number": 64, "value": 0}, "group": "control_change"}, {"time": 1711, "annotation": {"number": 64, "value": 71}, "group": "control_change"}, {"time": 1712, "annotation": {"number": 64, "value": 127}, "group": "control_change"}, {"time": 1754, "annotation": {"number": 64, "value": 71}, "group": "control_change"}, {"time": 1755, "annotation": {"number": 64, "value": 0}, "group": "control_change"}, {"time": 1759, "annotation": {"number": 64, "value": 71}, "group": "control_change"}, {"time": 1760, "annotation": {"number": 64, "value": 127}, "group": "control_change"}, {"time": 1802, "annotation": {"number": 64, "value": 71}, "group": "control_change"}, {"time": 1803, "annotation": {"number": 64, "value": 0}, "group": "control_change"}, {"time": 1807, "annotation": {"number": 64, "value": 71}, "group": "control_change"}, {"time": 1808, "annotation": {"number": 64, "value": 127}, "group": "control_change"}, {"time": 1849, "annotation": {"number": 64, "value": 71}, "group": "control_change"}, {"time": 1850, "annotation": {"number": 64, "value": 0}, "group": "control_change"}, {"time": 1853, "annotation": {"number": 64, "value": 71}, "group": "control_change"}, {"time": 1854, "annotation": {"number": 64, "value": 127}, "group": "control_change"}, {"time": 1874, "annotation": {"number": 64, "value": 71}, "group": "control_change"}, {"time": 1875, "annotation": {"number": 64, "value": 0}, "group": "control_change"}, {"time": 1878, "annotation": {"number": 64, "value": 71}, "group": "control_change"}, {"time": 1879, "annotation": {"number": 64, "value": 127}, "group": "control_change"}, {"time": 1898, "annotation": {"number": 64, "value": 71}, "group": "control_change"}, {"time": 1899, "annotation": {"number": 64, "value": 0}, "group": "control_change"}, {"time": 1903, "annotation": {"number": 64, "value": 71}, "group": "control_change"}, {"time": 1904, "annotation": {"number": 64, "value": 127}, "group": "control_change"}, {"time": 1946, "annotation": {"number": 64, "value": 71}, "group": "control_change"}, {"time": 1946, "annotation": {"number": 64, "value": 0}, "group": "control_change"}, {"time": 1949, "annotation": {"number": 64, "value": 71}, "group": "control_change"}, {"time": 1950, "annotation": {"number": 64, "value": 127}, "group": "control_change"}, {"time": 1994, "annotation": {"number": 64, "value": 71}, "group": "control_change"}, {"time": 1994, "annotation": {"number": 64, "value": 0}, "group": "control_change"}, {"time": 1995, "annotation": {"number": 64, "value": 71}, "group": "control_change"}, {"time": 1996, "annotation": {"number": 64, "value": 127}, "group": "control_change"}, {"time": 2002, "annotation": {"number": 64, "value": 71}, "group": "control_change"}, {"time": 2003, "annotation": {"number": 64, "value": 0}, "group": "control_change"}, {"time": 2011, "annotation": {"number": 64, "value": 71}, "group": "control_change"}, {"time": 2012, "annotation": {"number": 64, "value": 127}, "group": "control_change"}, {"time": 2018, "annotation": {"number": 64, "value": 71}, "group": "control_change"}, {"time": 2018, "annotation": {"number": 64, "value": 0}, "group": "control_change"}, {"time": 2020, "annotation": {"number": 64, "value": 71}, "group": "control_change"}, {"time": 2029, "annotation": {"number": 64, "value": 127}, "group": "control_change"}, {"time": 2064, "annotation": {"number": 64, "value": 0}, "group": "control_change"}, {"time": 2067, "annotation": {"number": 64, "value": 71}, "group": "control_change"}, {"time": 2068, "annotation": {"number": 64, "value": 127}, "group": "control_change"}, {"time": 2114, "annotation": {"number": 64, "value": 71}, "group": "control_change"}, {"time": 2114, "annotation": {"number": 64, "value": 0}, "group": "control_change"}, {"time": 2118, "annotation": {"number": 64, "value": 71}, "group": "control_change"}, {"time": 2119, "annotation": {"number": 64, "value": 127}, "group": "control_change"}, {"time": 2162, "annotation": {"number": 64, "value": 71}, "group": "control_change"}, {"time": 2163, "annotation": {"number": 64, "value": 0}, "group": "control_change"}, {"time": 2168, "annotation": {"number": 64, "value": 71}, "group": "control_change"}, {"time": 2168, "annotation": {"number": 64, "value": 127}, "group": "control_change"}, {"time": 2209, "annotation": {"number": 64, "value": 71}, "group": "control_change"}, {"time": 2210, "annotation": {"number": 64, "value": 0}, "group": "control_change"}, {"time": 2214, "annotation": {"number": 64, "value": 71}, "group": "control_change"}, {"time": 2215, "annotation": {"number": 64, "value": 127}, "group": "control_change"}, {"time": 2258, "annotation": {"number": 64, "value": 71}, "group": "control_change"}, {"time": 2259, "annotation": {"number": 64, "value": 0}, "group": "control_change"}, {"time": 2260, "annotation": {"number": 64, "value": 71}, "group": "control_change"}, {"time": 2261, "annotation": {"number": 64, "value": 127}, "group": "control_change"}, {"time": 2263, "annotation": {"number": 64, "value": 71}, "group": "control_change"}, {"time": 2264, "annotation": {"number": 64, "value": 127}, "group": "control_change"}, {"time": 2282, "annotation": {"number": 64, "value": 71}, "group": "control_change"}, {"time": 2283, "annotation": {"number": 64, "value": 0}, "group": "control_change"}, {"time": 2287, "annotation": {"number": 64, "value": 71}, "group": "control_change"}, {"time": 2288, "annotation": {"number": 64, "value": 127}, "group": "control_change"}, {"time": 2306, "annotation": {"number": 64, "value": 71}, "group": "control_change"}, {"time": 2306, "annotation": {"number": 64, "value": 0}, "group": "control_change"}, {"time": 2307, "annotation": {"number": 64, "value": 0}, "group": "control_change"}, {"time": 2310, "annotation": {"number": 64, "value": 71}, "group": "control_change"}, {"time": 2311, "annotation": {"number": 64, "value": 127}, "group": "control_change"}, {"time": 2353, "annotation": {"number": 64, "value": 71}, "group": "control_change"}, {"time": 2354, "annotation": {"number": 64, "value": 0}, "group": "control_change"}, {"time": 2358, "annotation": {"number": 64, "value": 71}, "group": "control_change"}, {"time": 2359, "annotation": {"number": 64, "value": 127}, "group": "control_change"}, {"time": 2401, "annotation": {"number": 64, "value": 71}, "group": "control_change"}, {"time": 2402, "annotation": {"number": 64, "value": 0}, "group": "control_change"}, {"time": 2405, "annotation": {"number": 64, "value": 71}, "group": "control_change"}, {"time": 2406, "annotation": {"number": 64, "value": 127}, "group": "control_change"}, {"time": 2450, "annotation": {"number": 64, "value": 71}, "group": "control_change"}, {"time": 2450, "annotation": {"number": 64, "value": 0}, "group": "control_change"}, {"time": 2452, "annotation": {"number": 64, "value": 71}, "group": "control_change"}, {"time": 2452, "annotation": {"number": 64, "value": 127}, "group": "control_change"}, {"time": 2497, "annotation": {"number": 64, "value": 71}, "group": "control_change"}, {"time": 2498, "annotation": {"number": 64, "value": 0}, "group": "control_change"}, {"time": 2502, "annotation": {"number": 64, "value": 71}, "group": "control_change"}, {"time": 2503, "annotation": {"number": 64, "value": 127}, "group": "control_change"}, {"time": 2545, "annotation": {"number": 64, "value": 71}, "group": "control_change"}, {"time": 2546, "annotation": {"number": 64, "value": 0}, "group": "control_change"}, {"time": 2551, "annotation": {"number": 64, "value": 71}, "group": "control_change"}, {"time": 2552, "annotation": {"number": 64, "value": 127}, "group": "control_change"}, {"time": 2594, "annotation": {"number": 64, "value": 71}, "group": "control_change"}, {"time": 2595, "annotation": {"number": 64, "value": 0}, "group": "control_change"}, {"time": 2598, "annotation": {"number": 64, "value": 71}, "group": "control_change"}, {"time": 2599, "annotation": {"number": 64, "value": 127}, "group": "control_change"}, {"time": 2642, "annotation": {"number": 64, "value": 71}, "group": "control_change"}, {"time": 2643, "annotation": {"number": 64, "value": 0}, "group": "control_change"}, {"time": 2647, "annotation": {"number": 64, "value": 71}, "group": "control_change"}, {"time": 2648, "annotation": {"number": 64, "value": 127}, "group": "control_change"}, {"time": 2690, "annotation": {"number": 64, "value": 71}, "group": "control_change"}, {"time": 2690, "annotation": {"number": 64, "value": 0}, "group": "control_change"}, {"time": 2694, "annotation": {"number": 64, "value": 71}, "group": "control_change"}, {"time": 2695, "annotation": {"number": 64, "value": 127}, "group": "control_change"}, {"time": 2738, "annotation": {"number": 64, "value": 71}, "group": "control_change"}, {"time": 2739, "annotation": {"number": 64, "value": 0}, "group": "control_change"}, {"time": 2742, "annotation": {"number": 64, "value": 71}, "group": "control_change"}, {"time": 2743, "annotation": {"number": 64, "value": 127}, "group": "control_change"}, {"time": 2786, "annotation": {"number": 64, "value": 71}, "group": "control_change"}, {"time": 2787, "annotation": {"number": 64, "value": 0}, "group": "control_change"}, {"time": 2790, "annotation": {"number": 64, "value": 71}, "group": "control_change"}, {"time": 2791, "annotation": {"number": 64, "value": 127}, "group": "control_change"}, {"time": 2832, "annotation": {"number": 64, "value": 0}, "group": "control_change"}, {"time": 2834, "annotation": {"number": 64, "value": 71}, "group": "control_change"}, {"time": 2835, "annotation": {"number": 64, "value": 0}, "group": "control_change"}, {"time": 2839, "annotation": {"number": 64, "value": 71}, "group": "control_change"}, {"time": 2840, "annotation": {"number": 64, "value": 127}, "group": "control_change"}, {"time": 2881, "annotation": {"number": 64, "value": 71}, "group": "control_change"}, {"time": 2882, "annotation": {"number": 64, "value": 0}, "group": "control_change"}, {"time": 2885, "annotation": {"number": 64, "value": 71}, "group": "control_change"}, {"time": 2886, "annotation": {"number": 64, "value": 127}, "group": "control_change"}, {"time": 2930, "annotation": {"number": 64, "value": 71}, "group": "control_change"}, {"time": 2931, "annotation": {"number": 64, "value": 0}, "group": "control_change"}, {"time": 2935, "annotation": {"number": 64, "value": 71}, "group": "control_change"}, {"time": 2936, "annotation": {"number": 64, "value": 127}, "group": "control_change"}, {"time": 2978, "annotation": {"number": 64, "value": 71}, "group": "control_change"}, {"time": 2978, "annotation": {"number": 64, "value": 0}, "group": "control_change"}, {"time": 2981, "annotation": {"number": 64, "value": 71}, "group": "control_change"}, {"time": 2982, "annotation": {"number": 64, "value": 127}, "group": "control_change"}, {"time": 3026, "annotation": {"number": 64, "value": 71}, "group": "control_change"}, {"time": 3027, "annotation": {"number": 64, "value": 0}, "group": "control_change"}, {"time": 3027, "annotation": {"number": 64, "value": 71}, "group": "control_change"}, {"time": 3028, "annotation": {"number": 64, "value": 127}, "group": "control_change"}, {"time": 3030, "annotation": {"number": 64, "value": 71}, "group": "control_change"}, {"time": 3031, "annotation": {"number": 64, "value": 127}, "group": "control_change"}, {"time": 3073, "annotation": {"number": 64, "value": 71}, "group": "control_change"}, {"time": 3074, "annotation": {"number": 64, "value": 71}, "group": "control_change"}, {"time": 3074, "annotation": {"number": 64, "value": 0}, "group": "control_change"}, {"time": 3078, "annotation": {"number": 64, "value": 71}, "group": "control_change"}, {"time": 3078, "annotation": {"number": 64, "value": 127}, "group": "control_change"}, {"time": 3122, "annotation": {"number": 64, "value": 71}, "group": "control_change"}, {"time": 3123, "annotation": {"number": 64, "value": 0}, "group": "control_change"}, {"time": 3126, "annotation": {"number": 64, "value": 71}, "group": "control_change"}, {"time": 3127, "annotation": {"number": 64, "value": 127}, "group": "control_change"}, {"time": 3170, "annotation": {"number": 64, "value": 71}, "group": "control_change"}, {"time": 3171, "annotation": {"number": 64, "value": 0}, "group": "control_change"}, {"time": 3173, "annotation": {"number": 64, "value": 71}, "group": "control_change"}, {"time": 3174, "annotation": {"number": 64, "value": 127}, "group": "control_change"}, {"time": 3218, "annotation": {"number": 64, "value": 71}, "group": "control_change"}, {"time": 3218, "annotation": {"number": 64, "value": 0}, "group": "control_change"}, {"time": 3222, "annotation": {"number": 64, "value": 71}, "group": "control_change"}, {"time": 3223, "annotation": {"number": 64, "value": 127}, "group": "control_change"}, {"time": 3266, "annotation": {"number": 64, "value": 71}, "group": "control_change"}, {"time": 3267, "annotation": {"number": 64, "value": 0}, "group": "control_change"}, {"time": 3270, "annotation": {"number": 64, "value": 71}, "group": "control_change"}, {"time": 3271, "annotation": {"number": 64, "value": 127}, "group": "control_change"}, {"time": 3314, "annotation": {"number": 64, "value": 71}, "group": "control_change"}, {"time": 3315, "annotation": {"number": 64, "value": 0}, "group": "control_change"}, {"time": 3319, "annotation": {"number": 64, "value": 71}, "group": "control_change"}, {"time": 3320, "annotation": {"number": 64, "value": 127}, "group": "control_change"}, {"time": 3361, "annotation": {"number": 64, "value": 71}, "group": "control_change"}, {"time": 3363, "annotation": {"number": 64, "value": 0}, "group": "control_change"}, {"time": 3366, "annotation": {"number": 64, "value": 71}, "group": "control_change"}, {"time": 3367, "annotation": {"number": 64, "value": 127}, "group": "control_change"}, {"time": 3410, "annotation": {"number": 64, "value": 71}, "group": "control_change"}, {"time": 3411, "annotation": {"number": 64, "value": 0}, "group": "control_change"}, {"time": 3415, "annotation": {"number": 64, "value": 71}, "group": "control_change"}, {"time": 3416, "annotation": {"number": 64, "value": 127}, "group": "control_change"}, {"time": 3435, "annotation": {"number": 64, "value": 71}, "group": "control_change"}, {"time": 3436, "annotation": {"number": 64, "value": 0}, "group": "control_change"}, {"time": 3436, "annotation": {"number": 64, "value": 71}, "group": "control_change"}, {"time": 3438, "annotation": {"number": 64, "value": 127}, "group": "control_change"}, {"time": 3458, "annotation": {"number": 64, "value": 71}, "group": "control_change"}, {"time": 3459, "annotation": {"number": 64, "value": 0}, "group": "control_change"}, {"time": 3461, "annotation": {"number": 64, "value": 71}, "group": "control_change"}, {"time": 3462, "annotation": {"number": 64, "value": 127}, "group": "control_change"}, {"time": 3482, "annotation": {"number": 64, "value": 71}, "group": "control_change"}, {"time": 3483, "annotation": {"number": 64, "value": 0}, "group": "control_change"}, {"time": 3485, "annotation": {"number": 64, "value": 71}, "group": "control_change"}, {"time": 3486, "annotation": {"number": 64, "value": 127}, "group": "control_change"}, {"time": 3505, "annotation": {"number": 64, "value": 71}, "group": "control_change"}, {"time": 3506, "annotation": {"number": 64, "value": 0}, "group": "control_change"}, {"time": 3509, "annotation": {"number": 64, "value": 71}, "group": "control_change"}, {"time": 3509, "annotation": {"number": 64, "value": 127}, "group": "control_change"}, {"time": 3553, "annotation": {"number": 64, "value": 71}, "group": "control_change"}, {"time": 3554, "annotation": {"number": 64, "value": 0}, "group": "control_change"}, {"time": 3557, "annotation": {"number": 64, "value": 71}, "group": "control_change"}, {"time": 3557, "annotation": {"number": 64, "value": 127}, "group": "control_change"}, {"time": 3600, "annotation": {"number": 64, "value": 0}, "group": "control_change"}, {"time": 3603, "annotation": {"number": 64, "value": 71}, "group": "control_change"}, {"time": 3604, "annotation": {"number": 64, "value": 127}, "group": "control_change"}, {"time": 3609, "annotation": {"number": 64, "value": 71}, "group": "control_change"}, {"time": 3611, "annotation": {"number": 64, "value": 0}, "group": "control_change"}, {"time": 3627, "annotation": {"number": 64, "value": 71}, "group": "control_change"}, {"time": 3627, "annotation": {"number": 64, "value": 127}, "group": "control_change"}, {"time": 3629, "annotation": {"number": 64, "value": 127}, "group": "control_change"}, {"time": 3639, "annotation": {"number": 64, "value": 71}, "group": "control_change"}, {"time": 3639, "annotation": {"number": 64, "value": 0}, "group": "control_change"}, {"time": 3650, "annotation": {"number": 64, "value": 71}, "group": "control_change"}, {"time": 3650, "annotation": {"number": 64, "value": 0}, "group": "control_change"}, {"time": 3728, "annotation": {"number": 64, "value": 71}, "group": "control_change"}, {"time": 3729, "annotation": {"number": 64, "value": 127}, "group": "control_change"}, {"time": 3744, "annotation": {"number": 64, "value": 0}, "group": "control_change"}, {"time": 3746, "annotation": {"number": 64, "value": 71}, "group": "control_change"}, {"time": 3747, "annotation": {"number": 64, "value": 0}, "group": "control_change"}, {"time": 3751, "annotation": {"number": 64, "value": 71}, "group": "control_change"}, {"time": 3752, "annotation": {"number": 64, "value": 127}, "group": "control_change"}, {"time": 3794, "annotation": {"number": 64, "value": 71}, "group": "control_change"}, {"time": 3794, "annotation": {"number": 64, "value": 0}, "group": "control_change"}, {"time": 3797, "annotation": {"number": 64, "value": 71}, "group": "control_change"}, {"time": 3798, "annotation": {"number": 64, "value": 127}, "group": "control_change"}, {"time": 3842, "annotation": {"number": 64, "value": 71}, "group": "control_change"}, {"time": 3843, "annotation": {"number": 64, "value": 0}, "group": "control_change"}, {"time": 3843, "annotation": {"number": 64, "value": 71}, "group": "control_change"}, {"time": 3844, "annotation": {"number": 64, "value": 127}, "group": "control_change"}, {"time": 3846, "annotation": {"number": 64, "value": 71}, "group": "control_change"}, {"time": 3847, "annotation": {"number": 64, "value": 127}, "group": "control_change"}, {"time": 3889, "annotation": {"number": 64, "value": 71}, "group": "control_change"}, {"time": 3890, "annotation": {"number": 64, "value": 71}, "group": "control_change"}, {"time": 3890, "annotation": {"number": 64, "value": 0}, "group": "control_change"}, {"time": 3894, "annotation": {"number": 64, "value": 71}, "group": "control_change"}, {"time": 3894, "annotation": {"number": 64, "value": 127}, "group": "control_change"}, {"time": 3938, "annotation": {"number": 64, "value": 71}, "group": "control_change"}, {"time": 3939, "annotation": {"number": 64, "value": 0}, "group": "control_change"}, {"time": 3942, "annotation": {"number": 64, "value": 71}, "group": "control_change"}, {"time": 3943, "annotation": {"number": 64, "value": 127}, "group": "control_change"}, {"time": 3986, "annotation": {"number": 64, "value": 71}, "group": "control_change"}, {"time": 3987, "annotation": {"number": 64, "value": 0}, "group": "control_change"}, {"time": 3989, "annotation": {"number": 64, "value": 71}, "group": "control_change"}, {"time": 3990, "annotation": {"number": 64, "value": 127}, "group": "control_change"}, {"time": 4034, "annotation": {"number": 64, "value": 71}, "group": "control_change"}, {"time": 4034, "annotation": {"number": 64, "value": 0}, "group": "control_change"}, {"time": 4038, "annotation": {"number": 64, "value": 71}, "group": "control_change"}, {"time": 4039, "annotation": {"number": 64, "value": 127}, "group": "control_change"}, {"time": 4082, "annotation": {"number": 64, "value": 71}, "group": "control_change"}, {"time": 4083, "annotation": {"number": 64, "value": 0}, "group": "control_change"}, {"time": 4086, "annotation": {"number": 64, "value": 71}, "group": "control_change"}, {"time": 4087, "annotation": {"number": 64, "value": 127}, "group": "control_change"}, {"time": 4130, "annotation": {"number": 64, "value": 71}, "group": "control_change"}, {"time": 4131, "annotation": {"number": 64, "value": 0}, "group": "control_change"}, {"time": 4135, "annotation": {"number": 64, "value": 71}, "group": "control_change"}, {"time": 4136, "annotation": {"number": 64, "value": 127}, "group": "control_change"}, {"time": 4177, "annotation": {"number": 64, "value": 71}, "group": "control_change"}, {"time": 4179, "annotation": {"number": 64, "value": 0}, "group": "control_change"}, {"time": 4182, "annotation": {"number": 64, "value": 71}, "group": "control_change"}, {"time": 4183, "annotation": {"number": 64, "value": 127}, "group": "control_change"}, {"time": 4226, "annotation": {"number": 64, "value": 71}, "group": "control_change"}, {"time": 4227, "annotation": {"number": 64, "value": 0}, "group": "control_change"}, {"time": 4231, "annotation": {"number": 64, "value": 71}, "group": "control_change"}, {"time": 4232, "annotation": {"number": 64, "value": 127}, "group": "control_change"}, {"time": 4251, "annotation": {"number": 64, "value": 71}, "group": "control_change"}, {"time": 4252, "annotation": {"number": 64, "value": 0}, "group": "control_change"}, {"time": 4252, "annotation": {"number": 64, "value": 71}, "group": "control_change"}, {"time": 4254, "annotation": {"number": 64, "value": 127}, "group": "control_change"}, {"time": 4274, "annotation": {"number": 64, "value": 71}, "group": "control_change"}, {"time": 4275, "annotation": {"number": 64, "value": 0}, "group": "control_change"}, {"time": 4277, "annotation": {"number": 64, "value": 71}, "group": "control_change"}, {"time": 4278, "annotation": {"number": 64, "value": 127}, "group": "control_change"}, {"time": 4298, "annotation": {"number": 64, "value": 71}, "group": "control_change"}, {"time": 4299, "annotation": {"number": 64, "value": 0}, "group": "control_change"}, {"time": 4301, "annotation": {"number": 64, "value": 71}, "group": "control_change"}, {"time": 4302, "annotation": {"number": 64, "value": 127}, "group": "control_change"}, {"time": 4321, "annotation": {"number": 64, "value": 71}, "group": "control_change"}, {"time": 4322, "annotation": {"number": 64, "value": 0}, "group": "control_change"}, {"time": 4325, "annotation": {"number": 64, "value": 71}, "group": "control_change"}, {"time": 4325, "annotation": {"number": 64, "value": 127}, "group": "control_change"}, {"time": 4369, "annotation": {"number": 64, "value": 71}, "group": "control_change"}, {"time": 4370, "annotation": {"number": 64, "value": 0}, "group": "control_change"}, {"time": 4373, "annotation": {"number": 64, "value": 71}, "group": "control_change"}, {"time": 4373, "annotation": {"number": 64, "value": 127}, "group": "control_change"}, {"time": 4416, "annotation": {"number": 64, "value": 0}, "group": "control_change"}, {"time": 4419, "annotation": {"number": 64, "value": 71}, "group": "control_change"}, {"time": 4419, "annotation": {"number": 64, "value": 127}, "group": "control_change"}, {"time": 4436, "annotation": {"number": 64, "value": 71}, "group": "control_change"}, {"time": 4437, "annotation": {"number": 64, "value": 0}, "group": "control_change"}, {"time": 4439, "annotation": {"number": 64, "value": 71}, "group": "control_change"}, {"time": 4439, "annotation": {"number": 64, "value": 127}, "group": "control_change"}, {"time": 4443, "annotation": {"number": 64, "value": 71}, "group": "control_change"}, {"time": 4443, "annotation": {"number": 64, "value": 0}, "group": "control_change"}, {"time": 4448, "annotation": {"number": 64, "value": 71}, "group": "control_change"}, {"time": 4449, "annotation": {"number": 64, "value": 127}, "group": "control_change"}, {"time": 4489, "annotation": {"number": 64, "value": 71}, "group": "control_change"}, {"time": 4490, "annotation": {"number": 64, "value": 0}, "group": "control_change"}, {"time": 4490, "annotation": {"number": 64, "value": 71}, "group": "control_change"}, {"time": 4491, "annotation": {"number": 64, "value": 127}, "group": "control_change"}, {"time": 4538, "annotation": {"number": 64, "value": 71}, "group": "control_change"}, {"time": 4539, "annotation": {"number": 64, "value": 0}, "group": "control_change"}, {"time": 4543, "annotation": {"number": 64, "value": 71}, "group": "control_change"}, {"time": 4543, "annotation": {"number": 64, "value": 127}, "group": "control_change"}, {"time": 4561, "annotation": {"number": 64, "value": 71}, "group": "control_change"}, {"time": 4565, "annotation": {"number": 64, "value": 127}, "group": "control_change"}, {"time": 4572, "annotation": {"number": 64, "value": 71}, "group": "control_change"}, {"time": 4574, "annotation": {"number": 64, "value": 127}, "group": "control_change"}, {"time": 4585, "annotation": {"number": 64, "value": 71}, "group": "control_change"}, {"time": 4587, "annotation": {"number": 64, "value": 0}, "group": "control_change"}, {"time": 4591, "annotation": {"number": 64, "value": 71}, "group": "control_change"}, {"time": 4591, "annotation": {"number": 64, "value": 127}, "group": "control_change"}, {"time": 4609, "annotation": {"number": 64, "value": 71}, "group": "control_change"}, {"time": 4610, "annotation": {"number": 64, "value": 0}, "group": "control_change"}, {"time": 4613, "annotation": {"number": 64, "value": 71}, "group": "control_change"}, {"time": 4613, "annotation": {"number": 64, "value": 127}, "group": "control_change"}, {"time": 4621, "annotation": {"number": 64, "value": 71}, "group": "control_change"}, {"time": 4622, "annotation": {"number": 64, "value": 127}, "group": "control_change"}, {"time": 4634, "annotation": {"number": 64, "value": 71}, "group": "control_change"}, {"time": 4635, "annotation": {"number": 64, "value": 0}, "group": "control_change"}, {"time": 4639, "annotation": {"number": 64, "value": 71}, "group": "control_change"}, {"time": 4639, "annotation": {"number": 64, "value": 127}, "group": "control_change"}, {"time": 4658, "annotation": {"number": 64, "value": 71}, "group": "control_change"}, {"time": 4660, "annotation": {"number": 64, "value": 127}, "group": "control_change"}, {"time": 4680, "annotation": {"number": 64, "value": 0}, "group": "control_change"}, {"time": 4684, "annotation": {"number": 64, "value": 71}, "group": "control_change"}, {"time": 4685, "annotation": {"number": 64, "value": 127}, "group": "control_change"}, {"time": 4706, "annotation": {"number": 64, "value": 71}, "group": "control_change"}, {"time": 4707, "annotation": {"number": 64, "value": 0}, "group": "control_change"}, {"time": 4710, "annotation": {"number": 64, "value": 71}, "group": "control_change"}, {"time": 4711, "annotation": {"number": 64, "value": 127}, "group": "control_change"}, {"time": 4728, "annotation": {"number": 64, "value": 0}, "group": "control_change"}, {"time": 4731, "annotation": {"number": 64, "value": 71}, "group": "control_change"}, {"time": 4732, "annotation": {"number": 64, "value": 127}, "group": "control_change"}, {"time": 4778, "annotation": {"number": 64, "value": 71}, "group": "control_change"}, {"time": 4779, "annotation": {"number": 64, "value": 0}, "group": "control_change"}, {"time": 4783, "annotation": {"number": 64, "value": 71}, "group": "control_change"}, {"time": 4784, "annotation": {"number": 64, "value": 127}, "group": "control_change"}, {"time": 4802, "annotation": {"number": 64, "value": 71}, "group": "control_change"}, {"time": 4803, "annotation": {"number": 64, "value": 0}, "group": "control_change"}, {"time": 4806, "annotation": {"number": 64, "value": 71}, "group": "control_change"}, {"time": 4807, "annotation": {"number": 64, "value": 127}, "group": "control_change"}, {"time": 4826, "annotation": {"number": 64, "value": 71}, "group": "control_change"}, {"time": 4827, "annotation": {"number": 64, "value": 0}, "group": "control_change"}, {"time": 4830, "annotation": {"number": 64, "value": 71}, "group": "control_change"}, {"time": 4830, "annotation": {"number": 64, "value": 127}, "group": "control_change"}, {"time": 4871, "annotation": {"number": 64, "value": 0}, "group": "control_change"}, {"time": 4871, "annotation": {"number": 64, "value": 78}, "group": "control_change"}]}]}