{"metadata": {"schema_version": "0.2", "title": "None", "source_filename": "057.mid", "source_format": "midi"}, "resolution": 12, "tempos": [{"time": 0, "qpm": 75.0}], "time_signatures": [{"time": 0, "numerator": 1, "denominator": 4}], "tracks": [{"program": 4, "is_drum": false, "name": "MELODY", "notes": [{"time": 233, "pitch": 72, "duration": 6, "velocity": 98}, {"time": 242, "pitch": 69, "duration": 4, "velocity": 74}, {"time": 245, "pitch": 72, "duration": 6, "velocity": 81}, {"time": 251, "pitch": 69, "duration": 7, "velocity": 65}, {"time": 257, "pitch": 72, "duration": 8, "velocity": 79}, {"time": 269, "pitch": 72, "duration": 5, "velocity": 75}, {"time": 275, "pitch": 79, "duration": 5, "velocity": 95}, {"time": 281, "pitch": 77, "duration": 8, "velocity": 67}, {"time": 290, "pitch": 69, "duration": 2, "velocity": 59}, {"time": 293, "pitch": 69, "duration": 6, "velocity": 63}, {"time": 299, "pitch": 74, "duration": 5, "velocity": 66}, {"time": 305, "pitch": 72, "duration": 18, "velocity": 61}, {"time": 329, "pitch": 74, "duration": 7, "velocity": 81}, {"time": 338, "pitch": 72, "duration": 2, "velocity": 66}, {"time": 341, "pitch": 74, "duration": 3, "velocity": 93}, {"time": 347, "pitch": 74, "duration": 3, "velocity": 83}, {"time": 353, "pitch": 72, "duration": 5, "velocity": 77}, {"time": 365, "pitch": 65, "duration": 7, "velocity": 85}, {"time": 371, "pitch": 69, "duration": 5, "velocity": 70}, {"time": 377, "pitch": 67, "duration": 7, "velocity": 73}, {"time": 386, "pitch": 65, "duration": 5, "velocity": 71}, {"time": 389, "pitch": 62, "duration": 6, "velocity": 61}, {"time": 395, "pitch": 69, "duration": 6, "velocity": 69}, {"time": 401, "pitch": 67, "duration": 20, "velocity": 63}, {"time": 425, "pitch": 72, "duration": 5, "velocity": 81}, {"time": 434, "pitch": 69, "duration": 2, "velocity": 65}, {"time": 437, "pitch": 72, "duration": 7, "velocity": 59}, {"time": 443, "pitch": 69, "duration": 6, "velocity": 61}, {"time": 449, "pitch": 72, "duration": 7, "velocity": 79}, {"time": 461, "pitch": 72, "duration": 5, "velocity": 72}, {"time": 467, "pitch": 79, "duration": 4, "velocity": 67}, {"time": 473, "pitch": 77, "duration": 6, "velocity": 86}, {"time": 482, "pitch": 79, "duration": 2, "velocity": 81}, {"time": 485, "pitch": 81, "duration": 6, "velocity": 67}, {"time": 491, "pitch": 69, "duration": 7, "velocity": 60}, {"time": 497, "pitch": 72, "duration": 11, "velocity": 63}, {"time": 509, "pitch": 72, "duration": 7, "velocity": 74}, {"time": 515, "pitch": 74, "duration": 5, "velocity": 68}, {"time": 521, "pitch": 77, "duration": 8, "velocity": 79}, {"time": 530, "pitch": 74, "duration": 4, "velocity": 73}, {"time": 533, "pitch": 72, "duration": 5, "velocity": 73}, {"time": 539, "pitch": 74, "duration": 3, "velocity": 63}, {"time": 545, "pitch": 77, "duration": 13, "velocity": 87}, {"time": 557, "pitch": 72, "duration": 8, "velocity": 87}, {"time": 563, "pitch": 74, "duration": 5, "velocity": 69}, {"time": 569, "pitch": 81, "duration": 7, "velocity": 83}, {"time": 578, "pitch": 79, "duration": 2, "velocity": 85}, {"time": 581, "pitch": 77, "duration": 6, "velocity": 68}, {"time": 587, "pitch": 74, "duration": 3, "velocity": 68}, {"time": 593, "pitch": 77, "duration": 20, "velocity": 71}, {"time": 617, "pitch": 72, "duration": 6, "velocity": 98}, {"time": 626, "pitch": 69, "duration": 4, "velocity": 74}, {"time": 629, "pitch": 72, "duration": 6, "velocity": 81}, {"time": 635, "pitch": 69, "duration": 7, "velocity": 65}, {"time": 641, "pitch": 72, "duration": 8, "velocity": 79}, {"time": 653, "pitch": 72, "duration": 5, "velocity": 75}, {"time": 659, "pitch": 79, "duration": 5, "velocity": 95}, {"time": 665, "pitch": 77, "duration": 8, "velocity": 67}, {"time": 674, "pitch": 69, "duration": 2, "velocity": 59}, {"time": 677, "pitch": 69, "duration": 6, "velocity": 63}, {"time": 683, "pitch": 74, "duration": 5, "velocity": 66}, {"time": 689, "pitch": 72, "duration": 18, "velocity": 61}, {"time": 713, "pitch": 74, "duration": 7, "velocity": 81}, {"time": 722, "pitch": 72, "duration": 2, "velocity": 66}, {"time": 725, "pitch": 74, "duration": 3, "velocity": 93}, {"time": 731, "pitch": 74, "duration": 3, "velocity": 83}, {"time": 737, "pitch": 72, "duration": 5, "velocity": 77}, {"time": 749, "pitch": 65, "duration": 7, "velocity": 85}, {"time": 755, "pitch": 69, "duration": 5, "velocity": 70}, {"time": 761, "pitch": 67, "duration": 7, "velocity": 73}, {"time": 770, "pitch": 65, "duration": 5, "velocity": 71}, {"time": 773, "pitch": 62, "duration": 6, "velocity": 61}, {"time": 779, "pitch": 69, "duration": 6, "velocity": 69}, {"time": 785, "pitch": 67, "duration": 20, "velocity": 63}, {"time": 809, "pitch": 72, "duration": 5, "velocity": 81}, {"time": 818, "pitch": 69, "duration": 2, "velocity": 65}, {"time": 821, "pitch": 72, "duration": 7, "velocity": 59}, {"time": 827, "pitch": 69, "duration": 6, "velocity": 61}, {"time": 833, "pitch": 72, "duration": 7, "velocity": 79}, {"time": 845, "pitch": 72, "duration": 5, "velocity": 72}, {"time": 851, "pitch": 79, "duration": 4, "velocity": 67}, {"time": 857, "pitch": 77, "duration": 6, "velocity": 86}, {"time": 866, "pitch": 79, "duration": 2, "velocity": 81}, {"time": 869, "pitch": 81, "duration": 6, "velocity": 67}, {"time": 875, "pitch": 77, "duration": 4, "velocity": 90}, {"time": 881, "pitch": 76, "duration": 9, "velocity": 81}, {"time": 893, "pitch": 77, "duration": 6, "velocity": 77}, {"time": 902, "pitch": 76, "duration": 3, "velocity": 70}, {"time": 905, "pitch": 74, "duration": 6, "velocity": 81}, {"time": 914, "pitch": 72, "duration": 4, "velocity": 62}, {"time": 917, "pitch": 77, "duration": 6, "velocity": 74}, {"time": 923, "pitch": 74, "duration": 6, "velocity": 68}, {"time": 929, "pitch": 72, "duration": 7, "velocity": 74}, {"time": 941, "pitch": 77, "duration": 6, "velocity": 74}, {"time": 947, "pitch": 76, "duration": 5, "velocity": 79}, {"time": 953, "pitch": 74, "duration": 5, "velocity": 74}, {"time": 962, "pitch": 72, "duration": 4, "velocity": 70}, {"time": 965, "pitch": 74, "duration": 4, "velocity": 79}, {"time": 971, "pitch": 77, "duration": 4, "velocity": 86}, {"time": 977, "pitch": 79, "duration": 9, "velocity": 117}, {"time": 989, "pitch": 81, "duration": 4, "velocity": 98}, {"time": 992, "pitch": 79, "duration": 4, "velocity": 81}, {"time": 995, "pitch": 77, "duration": 4, "velocity": 76}, {"time": 998, "pitch": 79, "duration": 2, "velocity": 95}, {"time": 1001, "pitch": 81, "duration": 6, "velocity": 85}, {"time": 1010, "pitch": 79, "duration": 3, "velocity": 85}, {"time": 1013, "pitch": 77, "duration": 3, "velocity": 69}, {"time": 1019, "pitch": 84, "duration": 3, "velocity": 108}, {"time": 1025, "pitch": 79, "duration": 8, "velocity": 98}, {"time": 1037, "pitch": 81, "duration": 3, "velocity": 95}, {"time": 1040, "pitch": 79, "duration": 4, "velocity": 79}, {"time": 1043, "pitch": 77, "duration": 2, "velocity": 61}, {"time": 1046, "pitch": 79, "duration": 3, "velocity": 77}, {"time": 1049, "pitch": 77, "duration": 7, "velocity": 77}, {"time": 1058, "pitch": 76, "duration": 3, "velocity": 76}, {"time": 1061, "pitch": 74, "duration": 4, "velocity": 85}, {"time": 1067, "pitch": 81, "duration": 4, "velocity": 100}, {"time": 1073, "pitch": 76, "duration": 8, "velocity": 93}, {"time": 1085, "pitch": 77, "duration": 6, "velocity": 87}, {"time": 1094, "pitch": 76, "duration": 4, "velocity": 93}, {"time": 1097, "pitch": 74, "duration": 7, "velocity": 87}, {"time": 1106, "pitch": 72, "duration": 2, "velocity": 85}, {"time": 1109, "pitch": 86, "duration": 2, "velocity": 76}, {"time": 1115, "pitch": 86, "duration": 3, "velocity": 93}, {"time": 1121, "pitch": 84, "duration": 10, "velocity": 95}, {"time": 1133, "pitch": 81, "duration": 7, "velocity": 79}, {"time": 1139, "pitch": 84, "duration": 7, "velocity": 74}, {"time": 1145, "pitch": 82, "duration": 6, "velocity": 95}, {"time": 1154, "pitch": 79, "duration": 3, "velocity": 81}, {"time": 1157, "pitch": 77, "duration": 3, "velocity": 90}, {"time": 1163, "pitch": 74, "duration": 4, "velocity": 66}, {"time": 1169, "pitch": 79, "duration": 6, "velocity": 95}, {"time": 1181, "pitch": 81, "duration": 4, "velocity": 98}, {"time": 1184, "pitch": 79, "duration": 4, "velocity": 81}, {"time": 1187, "pitch": 77, "duration": 4, "velocity": 76}, {"time": 1190, "pitch": 79, "duration": 2, "velocity": 95}, {"time": 1193, "pitch": 81, "duration": 6, "velocity": 85}, {"time": 1202, "pitch": 79, "duration": 3, "velocity": 85}, {"time": 1205, "pitch": 77, "duration": 3, "velocity": 69}, {"time": 1211, "pitch": 84, "duration": 3, "velocity": 108}, {"time": 1217, "pitch": 79, "duration": 8, "velocity": 98}, {"time": 1229, "pitch": 81, "duration": 3, "velocity": 95}, {"time": 1232, "pitch": 79, "duration": 4, "velocity": 79}, {"time": 1235, "pitch": 77, "duration": 2, "velocity": 61}, {"time": 1238, "pitch": 79, "duration": 3, "velocity": 77}, {"time": 1241, "pitch": 77, "duration": 7, "velocity": 77}, {"time": 1250, "pitch": 76, "duration": 3, "velocity": 76}, {"time": 1253, "pitch": 74, "duration": 4, "velocity": 85}, {"time": 1259, "pitch": 77, "duration": 6, "velocity": 93}, {"time": 1265, "pitch": 84, "duration": 5, "velocity": 79}, {"time": 1271, "pitch": 81, "duration": 6, "velocity": 93}, {"time": 1277, "pitch": 81, "duration": 7, "velocity": 98}, {"time": 1286, "pitch": 79, "duration": 2, "velocity": 87}, {"time": 1289, "pitch": 77, "duration": 3, "velocity": 95}, {"time": 1295, "pitch": 74, "duration": 5, "velocity": 83}, {"time": 1301, "pitch": 81, "duration": 7, "velocity": 86}, {"time": 1310, "pitch": 79, "duration": 2, "velocity": 79}, {"time": 1313, "pitch": 77, "duration": 4, "velocity": 90}, {"time": 1319, "pitch": 72, "duration": 8, "velocity": 86}, {"time": 1331, "pitch": 74, "duration": 4, "velocity": 72}, {"time": 1334, "pitch": 76, "duration": 2, "velocity": 71}, {"time": 1337, "pitch": 77, "duration": 4, "velocity": 108}, {"time": 1343, "pitch": 74, "duration": 7, "velocity": 76}, {"time": 1349, "pitch": 77, "duration": 5, "velocity": 79}, {"time": 1355, "pitch": 81, "duration": 3, "velocity": 93}, {"time": 1361, "pitch": 84, "duration": 6, "velocity": 100}, {"time": 1370, "pitch": 81, "duration": 3, "velocity": 67}, {"time": 1373, "pitch": 77, "duration": 5, "velocity": 77}, {"time": 1379, "pitch": 74, "duration": 4, "velocity": 66}, {"time": 1385, "pitch": 77, "duration": 47, "velocity": 95}, {"time": 1577, "pitch": 72, "duration": 6, "velocity": 98}, {"time": 1586, "pitch": 69, "duration": 4, "velocity": 74}, {"time": 1589, "pitch": 72, "duration": 6, "velocity": 81}, {"time": 1595, "pitch": 69, "duration": 7, "velocity": 65}, {"time": 1601, "pitch": 72, "duration": 8, "velocity": 79}, {"time": 1613, "pitch": 72, "duration": 5, "velocity": 75}, {"time": 1619, "pitch": 79, "duration": 5, "velocity": 95}, {"time": 1625, "pitch": 77, "duration": 8, "velocity": 67}, {"time": 1634, "pitch": 69, "duration": 2, "velocity": 59}, {"time": 1637, "pitch": 69, "duration": 6, "velocity": 63}, {"time": 1643, "pitch": 74, "duration": 5, "velocity": 66}, {"time": 1649, "pitch": 72, "duration": 18, "velocity": 61}, {"time": 1673, "pitch": 74, "duration": 7, "velocity": 81}, {"time": 1682, "pitch": 72, "duration": 2, "velocity": 66}, {"time": 1685, "pitch": 74, "duration": 3, "velocity": 93}, {"time": 1691, "pitch": 74, "duration": 3, "velocity": 83}, {"time": 1697, "pitch": 72, "duration": 5, "velocity": 77}, {"time": 1709, "pitch": 65, "duration": 7, "velocity": 85}, {"time": 1715, "pitch": 69, "duration": 5, "velocity": 70}, {"time": 1721, "pitch": 67, "duration": 7, "velocity": 73}, {"time": 1730, "pitch": 65, "duration": 5, "velocity": 71}, {"time": 1733, "pitch": 62, "duration": 6, "velocity": 61}, {"time": 1739, "pitch": 69, "duration": 6, "velocity": 69}, {"time": 1745, "pitch": 67, "duration": 20, "velocity": 63}, {"time": 1769, "pitch": 72, "duration": 5, "velocity": 81}, {"time": 1778, "pitch": 69, "duration": 2, "velocity": 65}, {"time": 1781, "pitch": 72, "duration": 7, "velocity": 59}, {"time": 1787, "pitch": 69, "duration": 6, "velocity": 61}, {"time": 1793, "pitch": 72, "duration": 7, "velocity": 79}, {"time": 1805, "pitch": 72, "duration": 5, "velocity": 72}, {"time": 1811, "pitch": 79, "duration": 4, "velocity": 67}, {"time": 1817, "pitch": 77, "duration": 6, "velocity": 86}, {"time": 1826, "pitch": 79, "duration": 2, "velocity": 81}, {"time": 1829, "pitch": 81, "duration": 6, "velocity": 67}, {"time": 1835, "pitch": 77, "duration": 4, "velocity": 90}, {"time": 1841, "pitch": 76, "duration": 9, "velocity": 81}, {"time": 1853, "pitch": 77, "duration": 6, "velocity": 77}, {"time": 1862, "pitch": 76, "duration": 3, "velocity": 70}, {"time": 1865, "pitch": 74, "duration": 6, "velocity": 81}, {"time": 1874, "pitch": 72, "duration": 4, "velocity": 62}, {"time": 1877, "pitch": 77, "duration": 6, "velocity": 74}, {"time": 1883, "pitch": 74, "duration": 6, "velocity": 68}, {"time": 1889, "pitch": 72, "duration": 7, "velocity": 74}, {"time": 1901, "pitch": 77, "duration": 6, "velocity": 74}, {"time": 1907, "pitch": 76, "duration": 5, "velocity": 79}, {"time": 1913, "pitch": 74, "duration": 5, "velocity": 74}, {"time": 1922, "pitch": 72, "duration": 4, "velocity": 70}, {"time": 1925, "pitch": 74, "duration": 4, "velocity": 79}, {"time": 1931, "pitch": 77, "duration": 4, "velocity": 86}, {"time": 1937, "pitch": 79, "duration": 9, "velocity": 117}, {"time": 1949, "pitch": 81, "duration": 4, "velocity": 98}, {"time": 1952, "pitch": 79, "duration": 4, "velocity": 81}, {"time": 1955, "pitch": 77, "duration": 4, "velocity": 76}, {"time": 1958, "pitch": 79, "duration": 2, "velocity": 95}, {"time": 1961, "pitch": 81, "duration": 6, "velocity": 85}, {"time": 1970, "pitch": 79, "duration": 3, "velocity": 85}, {"time": 1973, "pitch": 77, "duration": 3, "velocity": 69}, {"time": 1979, "pitch": 84, "duration": 3, "velocity": 108}, {"time": 1985, "pitch": 79, "duration": 8, "velocity": 98}, {"time": 1997, "pitch": 81, "duration": 3, "velocity": 95}, {"time": 2000, "pitch": 79, "duration": 4, "velocity": 79}, {"time": 2003, "pitch": 77, "duration": 2, "velocity": 61}, {"time": 2006, "pitch": 79, "duration": 3, "velocity": 77}, {"time": 2009, "pitch": 77, "duration": 7, "velocity": 77}, {"time": 2018, "pitch": 76, "duration": 3, "velocity": 76}, {"time": 2021, "pitch": 74, "duration": 4, "velocity": 85}, {"time": 2027, "pitch": 81, "duration": 4, "velocity": 100}, {"time": 2033, "pitch": 76, "duration": 8, "velocity": 93}, {"time": 2045, "pitch": 77, "duration": 6, "velocity": 87}, {"time": 2054, "pitch": 76, "duration": 4, "velocity": 93}, {"time": 2057, "pitch": 74, "duration": 7, "velocity": 87}, {"time": 2066, "pitch": 72, "duration": 2, "velocity": 85}, {"time": 2069, "pitch": 86, "duration": 2, "velocity": 76}, {"time": 2075, "pitch": 86, "duration": 3, "velocity": 93}, {"time": 2081, "pitch": 84, "duration": 10, "velocity": 95}, {"time": 2093, "pitch": 81, "duration": 7, "velocity": 79}, {"time": 2099, "pitch": 84, "duration": 7, "velocity": 74}, {"time": 2105, "pitch": 82, "duration": 6, "velocity": 95}, {"time": 2114, "pitch": 79, "duration": 3, "velocity": 81}, {"time": 2117, "pitch": 77, "duration": 3, "velocity": 90}, {"time": 2123, "pitch": 74, "duration": 4, "velocity": 66}, {"time": 2129, "pitch": 79, "duration": 6, "velocity": 95}, {"time": 2141, "pitch": 81, "duration": 4, "velocity": 98}, {"time": 2144, "pitch": 79, "duration": 4, "velocity": 81}, {"time": 2147, "pitch": 77, "duration": 4, "velocity": 76}, {"time": 2150, "pitch": 79, "duration": 2, "velocity": 95}, {"time": 2153, "pitch": 81, "duration": 6, "velocity": 85}, {"time": 2162, "pitch": 79, "duration": 3, "velocity": 85}, {"time": 2165, "pitch": 77, "duration": 3, "velocity": 69}, {"time": 2171, "pitch": 84, "duration": 3, "velocity": 108}, {"time": 2177, "pitch": 79, "duration": 8, "velocity": 98}, {"time": 2189, "pitch": 81, "duration": 3, "velocity": 95}, {"time": 2192, "pitch": 79, "duration": 4, "velocity": 79}, {"time": 2195, "pitch": 77, "duration": 2, "velocity": 61}, {"time": 2198, "pitch": 79, "duration": 3, "velocity": 77}, {"time": 2201, "pitch": 77, "duration": 7, "velocity": 77}, {"time": 2210, "pitch": 76, "duration": 3, "velocity": 76}, {"time": 2213, "pitch": 74, "duration": 4, "velocity": 85}, {"time": 2219, "pitch": 77, "duration": 6, "velocity": 93}, {"time": 2225, "pitch": 84, "duration": 5, "velocity": 79}, {"time": 2231, "pitch": 81, "duration": 6, "velocity": 93}, {"time": 2237, "pitch": 81, "duration": 7, "velocity": 98}, {"time": 2246, "pitch": 79, "duration": 2, "velocity": 87}, {"time": 2249, "pitch": 77, "duration": 3, "velocity": 95}, {"time": 2255, "pitch": 74, "duration": 5, "velocity": 83}, {"time": 2261, "pitch": 81, "duration": 7, "velocity": 86}, {"time": 2270, "pitch": 79, "duration": 2, "velocity": 79}, {"time": 2273, "pitch": 77, "duration": 4, "velocity": 90}, {"time": 2279, "pitch": 72, "duration": 8, "velocity": 86}, {"time": 2291, "pitch": 74, "duration": 4, "velocity": 72}, {"time": 2294, "pitch": 76, "duration": 2, "velocity": 71}, {"time": 2297, "pitch": 77, "duration": 4, "velocity": 108}, {"time": 2303, "pitch": 74, "duration": 7, "velocity": 76}, {"time": 2309, "pitch": 77, "duration": 5, "velocity": 79}, {"time": 2315, "pitch": 81, "duration": 3, "velocity": 93}, {"time": 2321, "pitch": 84, "duration": 6, "velocity": 100}, {"time": 2330, "pitch": 81, "duration": 3, "velocity": 67}, {"time": 2333, "pitch": 77, "duration": 5, "velocity": 77}, {"time": 2339, "pitch": 74, "duration": 4, "velocity": 66}, {"time": 2345, "pitch": 77, "duration": 47, "velocity": 95}, {"time": 2525, "pitch": 81, "duration": 4, "velocity": 98}, {"time": 2528, "pitch": 79, "duration": 4, "velocity": 81}, {"time": 2531, "pitch": 77, "duration": 4, "velocity": 76}, {"time": 2534, "pitch": 79, "duration": 2, "velocity": 95}, {"time": 2537, "pitch": 81, "duration": 6, "velocity": 85}, {"time": 2546, "pitch": 79, "duration": 3, "velocity": 85}, {"time": 2549, "pitch": 77, "duration": 3, "velocity": 69}, {"time": 2555, "pitch": 84, "duration": 3, "velocity": 108}, {"time": 2561, "pitch": 79, "duration": 8, "velocity": 98}, {"time": 2573, "pitch": 81, "duration": 3, "velocity": 95}, {"time": 2576, "pitch": 79, "duration": 4, "velocity": 79}, {"time": 2579, "pitch": 77, "duration": 2, "velocity": 61}, {"time": 2582, "pitch": 79, "duration": 3, "velocity": 77}, {"time": 2585, "pitch": 77, "duration": 7, "velocity": 77}, {"time": 2594, "pitch": 76, "duration": 3, "velocity": 76}, {"time": 2597, "pitch": 74, "duration": 4, "velocity": 85}, {"time": 2603, "pitch": 81, "duration": 4, "velocity": 100}, {"time": 2609, "pitch": 76, "duration": 8, "velocity": 93}, {"time": 2621, "pitch": 77, "duration": 6, "velocity": 87}, {"time": 2630, "pitch": 76, "duration": 4, "velocity": 93}, {"time": 2633, "pitch": 74, "duration": 7, "velocity": 87}, {"time": 2642, "pitch": 72, "duration": 2, "velocity": 85}, {"time": 2645, "pitch": 86, "duration": 2, "velocity": 76}, {"time": 2651, "pitch": 86, "duration": 3, "velocity": 93}, {"time": 2657, "pitch": 84, "duration": 10, "velocity": 95}, {"time": 2669, "pitch": 81, "duration": 7, "velocity": 79}, {"time": 2675, "pitch": 84, "duration": 7, "velocity": 74}, {"time": 2681, "pitch": 82, "duration": 6, "velocity": 95}, {"time": 2690, "pitch": 79, "duration": 3, "velocity": 81}, {"time": 2693, "pitch": 77, "duration": 3, "velocity": 90}, {"time": 2699, "pitch": 74, "duration": 4, "velocity": 66}, {"time": 2705, "pitch": 79, "duration": 6, "velocity": 95}, {"time": 2717, "pitch": 81, "duration": 4, "velocity": 98}, {"time": 2720, "pitch": 79, "duration": 4, "velocity": 81}, {"time": 2723, "pitch": 77, "duration": 4, "velocity": 76}, {"time": 2726, "pitch": 79, "duration": 2, "velocity": 95}, {"time": 2729, "pitch": 81, "duration": 6, "velocity": 85}, {"time": 2738, "pitch": 79, "duration": 3, "velocity": 85}, {"time": 2741, "pitch": 77, "duration": 3, "velocity": 69}, {"time": 2747, "pitch": 84, "duration": 3, "velocity": 108}, {"time": 2753, "pitch": 79, "duration": 8, "velocity": 98}, {"time": 2765, "pitch": 81, "duration": 3, "velocity": 95}, {"time": 2768, "pitch": 79, "duration": 4, "velocity": 79}, {"time": 2771, "pitch": 77, "duration": 2, "velocity": 61}, {"time": 2774, "pitch": 79, "duration": 3, "velocity": 77}, {"time": 2777, "pitch": 77, "duration": 7, "velocity": 77}, {"time": 2786, "pitch": 76, "duration": 3, "velocity": 76}, {"time": 2789, "pitch": 74, "duration": 4, "velocity": 85}, {"time": 2795, "pitch": 77, "duration": 6, "velocity": 93}, {"time": 2801, "pitch": 84, "duration": 5, "velocity": 79}, {"time": 2807, "pitch": 81, "duration": 6, "velocity": 93}, {"time": 2813, "pitch": 81, "duration": 7, "velocity": 98}, {"time": 2822, "pitch": 79, "duration": 2, "velocity": 87}, {"time": 2825, "pitch": 77, "duration": 3, "velocity": 95}, {"time": 2831, "pitch": 74, "duration": 5, "velocity": 83}, {"time": 2837, "pitch": 81, "duration": 7, "velocity": 86}, {"time": 2846, "pitch": 79, "duration": 2, "velocity": 79}, {"time": 2849, "pitch": 77, "duration": 4, "velocity": 90}, {"time": 2855, "pitch": 72, "duration": 8, "velocity": 86}, {"time": 2867, "pitch": 74, "duration": 4, "velocity": 72}, {"time": 2870, "pitch": 76, "duration": 2, "velocity": 71}, {"time": 2873, "pitch": 77, "duration": 4, "velocity": 108}, {"time": 2879, "pitch": 74, "duration": 7, "velocity": 76}, {"time": 2885, "pitch": 77, "duration": 5, "velocity": 79}, {"time": 2891, "pitch": 81, "duration": 3, "velocity": 93}, {"time": 2897, "pitch": 84, "duration": 6, "velocity": 100}, {"time": 2906, "pitch": 81, "duration": 3, "velocity": 67}, {"time": 2909, "pitch": 77, "duration": 5, "velocity": 77}, {"time": 2915, "pitch": 74, "duration": 4, "velocity": 66}, {"time": 2921, "pitch": 77, "duration": 47, "velocity": 95}, {"time": 2957, "pitch": 82, "duration": 4, "velocity": 98}, {"time": 2960, "pitch": 80, "duration": 4, "velocity": 81}, {"time": 2963, "pitch": 78, "duration": 4, "velocity": 76}, {"time": 2966, "pitch": 80, "duration": 2, "velocity": 95}, {"time": 2969, "pitch": 82, "duration": 6, "velocity": 85}, {"time": 2978, "pitch": 80, "duration": 3, "velocity": 85}, {"time": 2981, "pitch": 78, "duration": 3, "velocity": 69}, {"time": 2987, "pitch": 85, "duration": 3, "velocity": 108}, {"time": 2993, "pitch": 80, "duration": 8, "velocity": 98}, {"time": 3005, "pitch": 82, "duration": 3, "velocity": 95}, {"time": 3008, "pitch": 80, "duration": 4, "velocity": 79}, {"time": 3011, "pitch": 78, "duration": 2, "velocity": 61}, {"time": 3014, "pitch": 80, "duration": 3, "velocity": 77}, {"time": 3017, "pitch": 78, "duration": 7, "velocity": 77}, {"time": 3026, "pitch": 77, "duration": 3, "velocity": 76}, {"time": 3029, "pitch": 75, "duration": 4, "velocity": 85}, {"time": 3035, "pitch": 82, "duration": 4, "velocity": 100}, {"time": 3041, "pitch": 77, "duration": 8, "velocity": 93}, {"time": 3053, "pitch": 78, "duration": 6, "velocity": 87}, {"time": 3062, "pitch": 77, "duration": 4, "velocity": 93}, {"time": 3065, "pitch": 75, "duration": 7, "velocity": 87}, {"time": 3074, "pitch": 73, "duration": 2, "velocity": 85}, {"time": 3077, "pitch": 87, "duration": 2, "velocity": 76}, {"time": 3083, "pitch": 87, "duration": 3, "velocity": 93}, {"time": 3089, "pitch": 85, "duration": 10, "velocity": 95}, {"time": 3101, "pitch": 82, "duration": 7, "velocity": 79}, {"time": 3107, "pitch": 85, "duration": 7, "velocity": 74}, {"time": 3113, "pitch": 83, "duration": 6, "velocity": 95}, {"time": 3122, "pitch": 80, "duration": 3, "velocity": 81}, {"time": 3125, "pitch": 78, "duration": 3, "velocity": 90}, {"time": 3131, "pitch": 75, "duration": 4, "velocity": 66}, {"time": 3137, "pitch": 80, "duration": 6, "velocity": 95}, {"time": 3149, "pitch": 82, "duration": 4, "velocity": 98}, {"time": 3152, "pitch": 80, "duration": 4, "velocity": 81}, {"time": 3155, "pitch": 78, "duration": 4, "velocity": 76}, {"time": 3158, "pitch": 80, "duration": 2, "velocity": 95}, {"time": 3161, "pitch": 82, "duration": 6, "velocity": 85}, {"time": 3170, "pitch": 80, "duration": 3, "velocity": 85}, {"time": 3173, "pitch": 78, "duration": 3, "velocity": 69}, {"time": 3179, "pitch": 85, "duration": 3, "velocity": 108}, {"time": 3185, "pitch": 80, "duration": 8, "velocity": 98}, {"time": 3197, "pitch": 82, "duration": 3, "velocity": 95}, {"time": 3200, "pitch": 80, "duration": 4, "velocity": 79}, {"time": 3203, "pitch": 78, "duration": 2, "velocity": 61}, {"time": 3206, "pitch": 80, "duration": 3, "velocity": 77}, {"time": 3209, "pitch": 78, "duration": 7, "velocity": 77}, {"time": 3218, "pitch": 77, "duration": 3, "velocity": 76}, {"time": 3221, "pitch": 75, "duration": 4, "velocity": 85}, {"time": 3227, "pitch": 78, "duration": 6, "velocity": 93}, {"time": 3233, "pitch": 85, "duration": 5, "velocity": 79}, {"time": 3239, "pitch": 82, "duration": 6, "velocity": 93}, {"time": 3245, "pitch": 82, "duration": 7, "velocity": 98}, {"time": 3254, "pitch": 80, "duration": 2, "velocity": 87}, {"time": 3257, "pitch": 78, "duration": 3, "velocity": 95}, {"time": 3263, "pitch": 75, "duration": 5, "velocity": 83}, {"time": 3269, "pitch": 82, "duration": 7, "velocity": 86}, {"time": 3278, "pitch": 80, "duration": 2, "velocity": 79}, {"time": 3281, "pitch": 78, "duration": 4, "velocity": 90}, {"time": 3287, "pitch": 73, "duration": 8, "velocity": 86}, {"time": 3299, "pitch": 75, "duration": 4, "velocity": 72}, {"time": 3302, "pitch": 77, "duration": 2, "velocity": 71}, {"time": 3305, "pitch": 78, "duration": 4, "velocity": 108}, {"time": 3311, "pitch": 75, "duration": 7, "velocity": 76}, {"time": 3317, "pitch": 78, "duration": 5, "velocity": 79}, {"time": 3323, "pitch": 82, "duration": 3, "velocity": 93}, {"time": 3329, "pitch": 85, "duration": 6, "velocity": 100}, {"time": 3338, "pitch": 82, "duration": 3, "velocity": 67}, {"time": 3341, "pitch": 78, "duration": 5, "velocity": 77}, {"time": 3347, "pitch": 75, "duration": 4, "velocity": 66}, {"time": 3353, "pitch": 78, "duration": 47, "velocity": 95}, {"time": 3395, "pitch": 75, "duration": 4, "velocity": 67}, {"time": 3398, "pitch": 77, "duration": 4, "velocity": 76}, {"time": 3401, "pitch": 78, "duration": 6, "velocity": 93}, {"time": 3407, "pitch": 75, "duration": 8, "velocity": 58}, {"time": 3413, "pitch": 78, "duration": 4, "velocity": 76}, {"time": 3419, "pitch": 82, "duration": 4, "velocity": 112}, {"time": 3428, "pitch": 85, "duration": 8, "velocity": 114}, {"time": 3437, "pitch": 82, "duration": 32, "velocity": 93}, {"time": 3479, "pitch": 78, "duration": 9, "velocity": 60}, {"time": 3491, "pitch": 75, "duration": 7, "velocity": 62}, {"time": 3502, "pitch": 78, "duration": 31, "velocity": 81}]}, {"program": 0, "is_drum": false, "name": "PIANO", "notes": [{"time": 42, "pitch": 65, "duration": 19, "velocity": 56}, {"time": 42, "pitch": 41, "duration": 45, "velocity": 76}, {"time": 42, "pitch": 69, "duration": 19, "velocity": 44}, {"time": 42, "pitch": 60, "duration": 15, "velocity": 48}, {"time": 47, "pitch": 48, "duration": 41, "velocity": 63}, {"time": 53, "pitch": 53, "duration": 34, "velocity": 97}, {"time": 59, "pitch": 60, "duration": 9, "velocity": 64}, {"time": 65, "pitch": 65, "duration": 13, "velocity": 70}, {"time": 65, "pitch": 69, "duration": 13, "velocity": 72}, {"time": 76, "pitch": 60, "duration": 9, "velocity": 75}, {"time": 85, "pitch": 64, "duration": 2, "velocity": 1}, {"time": 89, "pitch": 64, "duration": 15, "velocity": 73}, {"time": 89, "pitch": 60, "duration": 14, "velocity": 81}, {"time": 89, "pitch": 45, "duration": 40, "velocity": 72}, {"time": 100, "pitch": 57, "duration": 14, "velocity": 54}, {"time": 107, "pitch": 60, "duration": 5, "velocity": 58}, {"time": 113, "pitch": 60, "duration": 15, "velocity": 74}, {"time": 113, "pitch": 64, "duration": 18, "velocity": 81}, {"time": 124, "pitch": 57, "duration": 29, "velocity": 73}, {"time": 137, "pitch": 62, "duration": 19, "velocity": 73}, {"time": 137, "pitch": 65, "duration": 19, "velocity": 73}, {"time": 137, "pitch": 38, "duration": 38, "velocity": 71}, {"time": 143, "pitch": 45, "duration": 32, "velocity": 38}, {"time": 149, "pitch": 50, "duration": 16, "velocity": 88}, {"time": 155, "pitch": 57, "duration": 7, "velocity": 60}, {"time": 161, "pitch": 65, "duration": 14, "velocity": 74}, {"time": 161, "pitch": 62, "duration": 15, "velocity": 79}, {"time": 167, "pitch": 50, "duration": 4, "velocity": 53}, {"time": 173, "pitch": 57, "duration": 12, "velocity": 69}, {"time": 184, "pitch": 36, "duration": 47, "velocity": 66}, {"time": 184, "pitch": 60, "duration": 20, "velocity": 65}, {"time": 184, "pitch": 64, "duration": 19, "velocity": 59}, {"time": 191, "pitch": 43, "duration": 40, "velocity": 53}, {"time": 196, "pitch": 48, "duration": 35, "velocity": 76}, {"time": 202, "pitch": 55, "duration": 8, "velocity": 57}, {"time": 209, "pitch": 64, "duration": 23, "velocity": 69}, {"time": 209, "pitch": 60, "duration": 23, "velocity": 69}, {"time": 221, "pitch": 55, "duration": 11, "velocity": 54}, {"time": 233, "pitch": 41, "duration": 19, "velocity": 67}, {"time": 239, "pitch": 48, "duration": 18, "velocity": 77}, {"time": 245, "pitch": 60, "duration": 7, "velocity": 64}, {"time": 251, "pitch": 57, "duration": 16, "velocity": 60}, {"time": 257, "pitch": 40, "duration": 21, "velocity": 73}, {"time": 263, "pitch": 48, "duration": 14, "velocity": 59}, {"time": 269, "pitch": 60, "duration": 12, "velocity": 67}, {"time": 275, "pitch": 55, "duration": 7, "velocity": 59}, {"time": 281, "pitch": 38, "duration": 18, "velocity": 65}, {"time": 287, "pitch": 45, "duration": 13, "velocity": 54}, {"time": 293, "pitch": 53, "duration": 8, "velocity": 65}, {"time": 299, "pitch": 57, "duration": 6, "velocity": 58}, {"time": 305, "pitch": 45, "duration": 21, "velocity": 64}, {"time": 311, "pitch": 52, "duration": 14, "velocity": 57}, {"time": 317, "pitch": 60, "duration": 11, "velocity": 63}, {"time": 329, "pitch": 46, "duration": 19, "velocity": 63}, {"time": 335, "pitch": 53, "duration": 11, "velocity": 56}, {"time": 341, "pitch": 58, "duration": 6, "velocity": 61}, {"time": 347, "pitch": 62, "duration": 7, "velocity": 52}, {"time": 353, "pitch": 45, "duration": 18, "velocity": 74}, {"time": 359, "pitch": 52, "duration": 12, "velocity": 59}, {"time": 365, "pitch": 60, "duration": 12, "velocity": 59}, {"time": 371, "pitch": 64, "duration": 6, "velocity": 60}, {"time": 377, "pitch": 43, "duration": 20, "velocity": 63}, {"time": 383, "pitch": 46, "duration": 13, "velocity": 64}, {"time": 392, "pitch": 58, "duration": 6, "velocity": 57}, {"time": 401, "pitch": 48, "duration": 20, "velocity": 86}, {"time": 407, "pitch": 55, "duration": 13, "velocity": 60}, {"time": 413, "pitch": 60, "duration": 6, "velocity": 60}, {"time": 419, "pitch": 64, "duration": 7, "velocity": 62}, {"time": 425, "pitch": 41, "duration": 19, "velocity": 67}, {"time": 431, "pitch": 48, "duration": 19, "velocity": 54}, {"time": 437, "pitch": 57, "duration": 12, "velocity": 60}, {"time": 443, "pitch": 60, "duration": 7, "velocity": 54}, {"time": 449, "pitch": 40, "duration": 19, "velocity": 50}, {"time": 455, "pitch": 48, "duration": 11, "velocity": 56}, {"time": 461, "pitch": 60, "duration": 8, "velocity": 63}, {"time": 467, "pitch": 55, "duration": 7, "velocity": 62}, {"time": 473, "pitch": 38, "duration": 17, "velocity": 63}, {"time": 479, "pitch": 45, "duration": 12, "velocity": 54}, {"time": 485, "pitch": 53, "duration": 8, "velocity": 61}, {"time": 491, "pitch": 57, "duration": 4, "velocity": 52}, {"time": 497, "pitch": 45, "duration": 15, "velocity": 58}, {"time": 503, "pitch": 52, "duration": 10, "velocity": 63}, {"time": 509, "pitch": 60, "duration": 12, "velocity": 63}, {"time": 515, "pitch": 65, "duration": 6, "velocity": 45}, {"time": 521, "pitch": 46, "duration": 21, "velocity": 65}, {"time": 527, "pitch": 53, "duration": 13, "velocity": 54}, {"time": 533, "pitch": 58, "duration": 8, "velocity": 53}, {"time": 539, "pitch": 62, "duration": 5, "velocity": 58}, {"time": 545, "pitch": 45, "duration": 18, "velocity": 66}, {"time": 551, "pitch": 52, "duration": 11, "velocity": 58}, {"time": 557, "pitch": 60, "duration": 8, "velocity": 63}, {"time": 563, "pitch": 64, "duration": 4, "velocity": 60}, {"time": 569, "pitch": 43, "duration": 13, "velocity": 63}, {"time": 569, "pitch": 58, "duration": 7, "velocity": 61}, {"time": 569, "pitch": 62, "duration": 6, "velocity": 59}, {"time": 581, "pitch": 48, "duration": 7, "velocity": 67}, {"time": 581, "pitch": 64, "duration": 7, "velocity": 61}, {"time": 581, "pitch": 67, "duration": 6, "velocity": 64}, {"time": 593, "pitch": 41, "duration": 21, "velocity": 58}, {"time": 593, "pitch": 57, "duration": 23, "velocity": 60}, {"time": 593, "pitch": 60, "duration": 23, "velocity": 64}, {"time": 599, "pitch": 48, "duration": 18, "velocity": 62}, {"time": 605, "pitch": 53, "duration": 7, "velocity": 49}, {"time": 611, "pitch": 65, "duration": 5, "velocity": 74}, {"time": 617, "pitch": 41, "duration": 21, "velocity": 63}, {"time": 617, "pitch": 57, "duration": 16, "velocity": 61}, {"time": 617, "pitch": 60, "duration": 17, "velocity": 73}, {"time": 623, "pitch": 48, "duration": 16, "velocity": 60}, {"time": 629, "pitch": 53, "duration": 11, "velocity": 48}, {"time": 635, "pitch": 57, "duration": 7, "velocity": 58}, {"time": 641, "pitch": 40, "duration": 19, "velocity": 60}, {"time": 647, "pitch": 55, "duration": 10, "velocity": 48}, {"time": 653, "pitch": 60, "duration": 10, "velocity": 63}, {"time": 659, "pitch": 55, "duration": 6, "velocity": 54}, {"time": 665, "pitch": 50, "duration": 18, "velocity": 47}, {"time": 671, "pitch": 57, "duration": 13, "velocity": 65}, {"time": 677, "pitch": 62, "duration": 6, "velocity": 59}, {"time": 683, "pitch": 65, "duration": 7, "velocity": 67}, {"time": 689, "pitch": 45, "duration": 18, "velocity": 74}, {"time": 695, "pitch": 52, "duration": 11, "velocity": 58}, {"time": 701, "pitch": 60, "duration": 10, "velocity": 59}, {"time": 707, "pitch": 64, "duration": 5, "velocity": 61}, {"time": 713, "pitch": 46, "duration": 18, "velocity": 70}, {"time": 719, "pitch": 53, "duration": 10, "velocity": 57}, {"time": 725, "pitch": 62, "duration": 11, "velocity": 60}, {"time": 732, "pitch": 65, "duration": 5, "velocity": 59}, {"time": 737, "pitch": 41, "duration": 17, "velocity": 74}, {"time": 743, "pitch": 48, "duration": 12, "velocity": 75}, {"time": 749, "pitch": 57, "duration": 12, "velocity": 68}, {"time": 756, "pitch": 65, "duration": 6, "velocity": 59}, {"time": 761, "pitch": 43, "duration": 24, "velocity": 59}, {"time": 767, "pitch": 50, "duration": 16, "velocity": 63}, {"time": 773, "pitch": 58, "duration": 7, "velocity": 66}, {"time": 779, "pitch": 65, "duration": 6, "velocity": 85}, {"time": 785, "pitch": 48, "duration": 23, "velocity": 67}, {"time": 791, "pitch": 55, "duration": 17, "velocity": 71}, {"time": 797, "pitch": 60, "duration": 8, "velocity": 61}, {"time": 803, "pitch": 67, "duration": 7, "velocity": 73}, {"time": 809, "pitch": 41, "duration": 19, "velocity": 73}, {"time": 815, "pitch": 48, "duration": 16, "velocity": 90}, {"time": 815, "pitch": 57, "duration": 7, "velocity": 53}, {"time": 821, "pitch": 60, "duration": 18, "velocity": 66}, {"time": 827, "pitch": 57, "duration": 8, "velocity": 63}, {"time": 833, "pitch": 40, "duration": 19, "velocity": 67}, {"time": 839, "pitch": 55, "duration": 7, "velocity": 59}, {"time": 845, "pitch": 60, "duration": 11, "velocity": 67}, {"time": 851, "pitch": 55, "duration": 7, "velocity": 61}, {"time": 857, "pitch": 38, "duration": 17, "velocity": 61}, {"time": 863, "pitch": 45, "duration": 12, "velocity": 59}, {"time": 869, "pitch": 53, "duration": 7, "velocity": 63}, {"time": 875, "pitch": 57, "duration": 6, "velocity": 67}, {"time": 881, "pitch": 45, "duration": 17, "velocity": 62}, {"time": 887, "pitch": 52, "duration": 12, "velocity": 57}, {"time": 893, "pitch": 60, "duration": 12, "velocity": 63}, {"time": 899, "pitch": 64, "duration": 6, "velocity": 65}, {"time": 905, "pitch": 46, "duration": 19, "velocity": 67}, {"time": 911, "pitch": 58, "duration": 13, "velocity": 62}, {"time": 917, "pitch": 60, "duration": 8, "velocity": 69}, {"time": 923, "pitch": 65, "duration": 5, "velocity": 75}, {"time": 929, "pitch": 45, "duration": 18, "velocity": 74}, {"time": 935, "pitch": 52, "duration": 12, "velocity": 60}, {"time": 941, "pitch": 60, "duration": 7, "velocity": 60}, {"time": 947, "pitch": 64, "duration": 7, "velocity": 65}, {"time": 953, "pitch": 43, "duration": 19, "velocity": 65}, {"time": 953, "pitch": 43, "duration": 19, "velocity": 75}, {"time": 959, "pitch": 50, "duration": 12, "velocity": 83}, {"time": 965, "pitch": 58, "duration": 8, "velocity": 71}, {"time": 971, "pitch": 65, "duration": 7, "velocity": 86}, {"time": 977, "pitch": 48, "duration": 16, "velocity": 67}, {"time": 977, "pitch": 64, "duration": 16, "velocity": 67}, {"time": 983, "pitch": 55, "duration": 9, "velocity": 68}, {"time": 989, "pitch": 67, "duration": 7, "velocity": 81}, {"time": 995, "pitch": 64, "duration": 5, "velocity": 67}, {"time": 1001, "pitch": 41, "duration": 17, "velocity": 74}, {"time": 1007, "pitch": 48, "duration": 10, "velocity": 58}, {"time": 1013, "pitch": 57, "duration": 13, "velocity": 71}, {"time": 1013, "pitch": 60, "duration": 23, "velocity": 71}, {"time": 1025, "pitch": 40, "duration": 18, "velocity": 76}, {"time": 1031, "pitch": 47, "duration": 11, "velocity": 74}, {"time": 1037, "pitch": 55, "duration": 8, "velocity": 68}, {"time": 1037, "pitch": 60, "duration": 7, "velocity": 70}, {"time": 1049, "pitch": 38, "duration": 17, "velocity": 72}, {"time": 1049, "pitch": 53, "duration": 10, "velocity": 60}, {"time": 1049, "pitch": 57, "duration": 11, "velocity": 61}, {"time": 1055, "pitch": 45, "duration": 13, "velocity": 64}, {"time": 1061, "pitch": 53, "duration": 6, "velocity": 66}, {"time": 1061, "pitch": 57, "duration": 6, "velocity": 70}, {"time": 1067, "pitch": 50, "duration": 5, "velocity": 63}, {"time": 1073, "pitch": 45, "duration": 15, "velocity": 58}, {"time": 1073, "pitch": 60, "duration": 11, "velocity": 67}, {"time": 1073, "pitch": 64, "duration": 11, "velocity": 75}, {"time": 1079, "pitch": 52, "duration": 11, "velocity": 71}, {"time": 1085, "pitch": 60, "duration": 6, "velocity": 67}, {"time": 1085, "pitch": 64, "duration": 6, "velocity": 77}, {"time": 1097, "pitch": 46, "duration": 15, "velocity": 10}, {"time": 1097, "pitch": 62, "duration": 10, "velocity": 64}, {"time": 1100, "pitch": 58, "duration": 9, "velocity": 58}, {"time": 1109, "pitch": 62, "duration": 9, "velocity": 67}, {"time": 1109, "pitch": 65, "duration": 8, "velocity": 75}, {"time": 1121, "pitch": 45, "duration": 17, "velocity": 72}, {"time": 1121, "pitch": 60, "duration": 11, "velocity": 60}, {"time": 1121, "pitch": 64, "duration": 11, "velocity": 59}, {"time": 1127, "pitch": 52, "duration": 11, "velocity": 53}, {"time": 1133, "pitch": 60, "duration": 5, "velocity": 65}, {"time": 1133, "pitch": 64, "duration": 5, "velocity": 76}, {"time": 1145, "pitch": 43, "duration": 17, "velocity": 68}, {"time": 1145, "pitch": 58, "duration": 11, "velocity": 64}, {"time": 1145, "pitch": 62, "duration": 11, "velocity": 73}, {"time": 1151, "pitch": 46, "duration": 11, "velocity": 63}, {"time": 1157, "pitch": 58, "duration": 6, "velocity": 67}, {"time": 1157, "pitch": 62, "duration": 5, "velocity": 87}, {"time": 1169, "pitch": 36, "duration": 18, "velocity": 95}, {"time": 1169, "pitch": 52, "duration": 11, "velocity": 64}, {"time": 1169, "pitch": 55, "duration": 11, "velocity": 70}, {"time": 1175, "pitch": 43, "duration": 12, "velocity": 64}, {"time": 1181, "pitch": 52, "duration": 4, "velocity": 65}, {"time": 1181, "pitch": 55, "duration": 5, "velocity": 77}, {"time": 1184, "pitch": 48, "duration": 8, "velocity": 50}, {"time": 1187, "pitch": 52, "duration": 3, "velocity": 65}, {"time": 1187, "pitch": 55, "duration": 3, "velocity": 56}, {"time": 1193, "pitch": 41, "duration": 18, "velocity": 74}, {"time": 1193, "pitch": 57, "duration": 11, "velocity": 67}, {"time": 1193, "pitch": 60, "duration": 11, "velocity": 60}, {"time": 1199, "pitch": 48, "duration": 20, "velocity": 58}, {"time": 1205, "pitch": 57, "duration": 11, "velocity": 65}, {"time": 1205, "pitch": 60, "duration": 11, "velocity": 74}, {"time": 1217, "pitch": 40, "duration": 18, "velocity": 62}, {"time": 1217, "pitch": 55, "duration": 10, "velocity": 64}, {"time": 1217, "pitch": 60, "duration": 10, "velocity": 67}, {"time": 1223, "pitch": 48, "duration": 10, "velocity": 57}, {"time": 1229, "pitch": 55, "duration": 7, "velocity": 76}, {"time": 1229, "pitch": 60, "duration": 6, "velocity": 75}, {"time": 1241, "pitch": 38, "duration": 17, "velocity": 62}, {"time": 1241, "pitch": 53, "duration": 11, "velocity": 61}, {"time": 1241, "pitch": 57, "duration": 11, "velocity": 67}, {"time": 1247, "pitch": 45, "duration": 12, "velocity": 59}, {"time": 1253, "pitch": 53, "duration": 6, "velocity": 64}, {"time": 1253, "pitch": 57, "duration": 6, "velocity": 70}, {"time": 1259, "pitch": 50, "duration": 6, "velocity": 67}, {"time": 1265, "pitch": 45, "duration": 19, "velocity": 65}, {"time": 1265, "pitch": 60, "duration": 11, "velocity": 63}, {"time": 1265, "pitch": 64, "duration": 11, "velocity": 72}, {"time": 1271, "pitch": 52, "duration": 17, "velocity": 63}, {"time": 1277, "pitch": 60, "duration": 11, "velocity": 74}, {"time": 1277, "pitch": 64, "duration": 8, "velocity": 79}, {"time": 1283, "pitch": 57, "duration": 2, "velocity": 32}, {"time": 1289, "pitch": 46, "duration": 18, "velocity": 61}, {"time": 1289, "pitch": 62, "duration": 10, "velocity": 90}, {"time": 1301, "pitch": 62, "duration": 7, "velocity": 63}, {"time": 1301, "pitch": 65, "duration": 7, "velocity": 77}, {"time": 1313, "pitch": 45, "duration": 17, "velocity": 77}, {"time": 1313, "pitch": 60, "duration": 11, "velocity": 68}, {"time": 1313, "pitch": 64, "duration": 11, "velocity": 77}, {"time": 1319, "pitch": 52, "duration": 10, "velocity": 71}, {"time": 1325, "pitch": 60, "duration": 5, "velocity": 74}, {"time": 1325, "pitch": 64, "duration": 5, "velocity": 83}, {"time": 1337, "pitch": 43, "duration": 18, "velocity": 77}, {"time": 1337, "pitch": 58, "duration": 11, "velocity": 73}, {"time": 1337, "pitch": 62, "duration": 10, "velocity": 85}, {"time": 1349, "pitch": 58, "duration": 7, "velocity": 68}, {"time": 1349, "pitch": 62, "duration": 6, "velocity": 83}, {"time": 1361, "pitch": 48, "duration": 19, "velocity": 71}, {"time": 1361, "pitch": 64, "duration": 11, "velocity": 63}, {"time": 1361, "pitch": 67, "duration": 11, "velocity": 70}, {"time": 1367, "pitch": 55, "duration": 13, "velocity": 63}, {"time": 1373, "pitch": 60, "duration": 5, "velocity": 58}, {"time": 1373, "pitch": 64, "duration": 7, "velocity": 69}, {"time": 1373, "pitch": 67, "duration": 7, "velocity": 79}, {"time": 1384, "pitch": 41, "duration": 39, "velocity": 75}, {"time": 1391, "pitch": 48, "duration": 35, "velocity": 47}, {"time": 1397, "pitch": 53, "duration": 23, "velocity": 82}, {"time": 1404, "pitch": 57, "duration": 18, "velocity": 48}, {"time": 1409, "pitch": 65, "duration": 28, "velocity": 67}, {"time": 1421, "pitch": 60, "duration": 13, "velocity": 55}, {"time": 1427, "pitch": 57, "duration": 6, "velocity": 39}, {"time": 1433, "pitch": 47, "duration": 47, "velocity": 63}, {"time": 1440, "pitch": 53, "duration": 39, "velocity": 48}, {"time": 1445, "pitch": 59, "duration": 13, "velocity": 63}, {"time": 1451, "pitch": 62, "duration": 29, "velocity": 62}, {"time": 1457, "pitch": 65, "duration": 23, "velocity": 62}, {"time": 1469, "pitch": 59, "duration": 10, "velocity": 57}, {"time": 1481, "pitch": 46, "duration": 17, "velocity": 100}, {"time": 1481, "pitch": 65, "duration": 13, "velocity": 88}, {"time": 1481, "pitch": 62, "duration": 7, "velocity": 77}, {"time": 1487, "pitch": 58, "duration": 12, "velocity": 86}, {"time": 1492, "pitch": 62, "duration": 13, "velocity": 77}, {"time": 1498, "pitch": 65, "duration": 3, "velocity": 79}, {"time": 1504, "pitch": 48, "duration": 24, "velocity": 88}, {"time": 1504, "pitch": 64, "duration": 14, "velocity": 82}, {"time": 1505, "pitch": 67, "duration": 24, "velocity": 88}, {"time": 1510, "pitch": 55, "duration": 16, "velocity": 55}, {"time": 1516, "pitch": 60, "duration": 12, "velocity": 83}, {"time": 1522, "pitch": 64, "duration": 6, "velocity": 69}, {"time": 1529, "pitch": 53, "duration": 31, "velocity": 75}, {"time": 1529, "pitch": 53, "duration": 31, "velocity": 79}, {"time": 1535, "pitch": 60, "duration": 41, "velocity": 67}, {"time": 1541, "pitch": 65, "duration": 34, "velocity": 59}, {"time": 1547, "pitch": 70, "duration": 5, "velocity": 63}, {"time": 1553, "pitch": 69, "duration": 22, "velocity": 65}, {"time": 1577, "pitch": 41, "duration": 21, "velocity": 63}, {"time": 1577, "pitch": 57, "duration": 16, "velocity": 61}, {"time": 1577, "pitch": 60, "duration": 17, "velocity": 73}, {"time": 1583, "pitch": 48, "duration": 16, "velocity": 60}, {"time": 1589, "pitch": 53, "duration": 11, "velocity": 48}, {"time": 1595, "pitch": 57, "duration": 7, "velocity": 58}, {"time": 1601, "pitch": 40, "duration": 19, "velocity": 60}, {"time": 1607, "pitch": 55, "duration": 10, "velocity": 48}, {"time": 1613, "pitch": 60, "duration": 10, "velocity": 63}, {"time": 1619, "pitch": 55, "duration": 6, "velocity": 54}, {"time": 1625, "pitch": 50, "duration": 18, "velocity": 47}, {"time": 1631, "pitch": 57, "duration": 13, "velocity": 65}, {"time": 1637, "pitch": 62, "duration": 6, "velocity": 59}, {"time": 1643, "pitch": 65, "duration": 7, "velocity": 67}, {"time": 1649, "pitch": 45, "duration": 18, "velocity": 74}, {"time": 1655, "pitch": 52, "duration": 11, "velocity": 58}, {"time": 1661, "pitch": 60, "duration": 10, "velocity": 59}, {"time": 1667, "pitch": 64, "duration": 5, "velocity": 61}, {"time": 1673, "pitch": 46, "duration": 18, "velocity": 70}, {"time": 1679, "pitch": 53, "duration": 10, "velocity": 57}, {"time": 1685, "pitch": 62, "duration": 11, "velocity": 60}, {"time": 1692, "pitch": 65, "duration": 5, "velocity": 59}, {"time": 1697, "pitch": 41, "duration": 17, "velocity": 74}, {"time": 1703, "pitch": 48, "duration": 12, "velocity": 75}, {"time": 1709, "pitch": 57, "duration": 12, "velocity": 68}, {"time": 1716, "pitch": 65, "duration": 6, "velocity": 59}, {"time": 1721, "pitch": 43, "duration": 24, "velocity": 59}, {"time": 1727, "pitch": 50, "duration": 16, "velocity": 63}, {"time": 1733, "pitch": 58, "duration": 7, "velocity": 66}, {"time": 1739, "pitch": 65, "duration": 6, "velocity": 85}, {"time": 1745, "pitch": 48, "duration": 23, "velocity": 67}, {"time": 1751, "pitch": 55, "duration": 17, "velocity": 71}, {"time": 1757, "pitch": 60, "duration": 8, "velocity": 61}, {"time": 1763, "pitch": 67, "duration": 7, "velocity": 73}, {"time": 1769, "pitch": 41, "duration": 19, "velocity": 73}, {"time": 1775, "pitch": 48, "duration": 16, "velocity": 90}, {"time": 1775, "pitch": 57, "duration": 7, "velocity": 53}, {"time": 1781, "pitch": 60, "duration": 18, "velocity": 66}, {"time": 1787, "pitch": 57, "duration": 8, "velocity": 63}, {"time": 1793, "pitch": 40, "duration": 19, "velocity": 67}, {"time": 1799, "pitch": 55, "duration": 7, "velocity": 59}, {"time": 1805, "pitch": 60, "duration": 11, "velocity": 67}, {"time": 1811, "pitch": 55, "duration": 7, "velocity": 61}, {"time": 1817, "pitch": 38, "duration": 17, "velocity": 61}, {"time": 1823, "pitch": 45, "duration": 12, "velocity": 59}, {"time": 1829, "pitch": 53, "duration": 7, "velocity": 63}, {"time": 1835, "pitch": 57, "duration": 6, "velocity": 67}, {"time": 1841, "pitch": 45, "duration": 17, "velocity": 62}, {"time": 1847, "pitch": 52, "duration": 12, "velocity": 57}, {"time": 1853, "pitch": 60, "duration": 12, "velocity": 63}, {"time": 1859, "pitch": 64, "duration": 6, "velocity": 65}, {"time": 1865, "pitch": 46, "duration": 19, "velocity": 67}, {"time": 1871, "pitch": 58, "duration": 13, "velocity": 62}, {"time": 1877, "pitch": 60, "duration": 8, "velocity": 69}, {"time": 1883, "pitch": 65, "duration": 5, "velocity": 75}, {"time": 1889, "pitch": 45, "duration": 18, "velocity": 74}, {"time": 1895, "pitch": 52, "duration": 12, "velocity": 60}, {"time": 1901, "pitch": 60, "duration": 7, "velocity": 60}, {"time": 1907, "pitch": 64, "duration": 7, "velocity": 65}, {"time": 1913, "pitch": 43, "duration": 19, "velocity": 65}, {"time": 1913, "pitch": 43, "duration": 19, "velocity": 75}, {"time": 1919, "pitch": 50, "duration": 12, "velocity": 83}, {"time": 1925, "pitch": 58, "duration": 8, "velocity": 71}, {"time": 1931, "pitch": 65, "duration": 7, "velocity": 86}, {"time": 1937, "pitch": 48, "duration": 16, "velocity": 67}, {"time": 1937, "pitch": 64, "duration": 16, "velocity": 67}, {"time": 1943, "pitch": 55, "duration": 9, "velocity": 68}, {"time": 1949, "pitch": 67, "duration": 7, "velocity": 81}, {"time": 1955, "pitch": 64, "duration": 5, "velocity": 67}, {"time": 1961, "pitch": 41, "duration": 17, "velocity": 74}, {"time": 1967, "pitch": 48, "duration": 10, "velocity": 58}, {"time": 1973, "pitch": 57, "duration": 13, "velocity": 71}, {"time": 1973, "pitch": 60, "duration": 23, "velocity": 71}, {"time": 1985, "pitch": 40, "duration": 18, "velocity": 76}, {"time": 1991, "pitch": 47, "duration": 11, "velocity": 74}, {"time": 1997, "pitch": 55, "duration": 8, "velocity": 68}, {"time": 1997, "pitch": 60, "duration": 7, "velocity": 70}, {"time": 2009, "pitch": 38, "duration": 17, "velocity": 72}, {"time": 2009, "pitch": 53, "duration": 10, "velocity": 60}, {"time": 2009, "pitch": 57, "duration": 11, "velocity": 61}, {"time": 2015, "pitch": 45, "duration": 13, "velocity": 64}, {"time": 2021, "pitch": 53, "duration": 6, "velocity": 66}, {"time": 2021, "pitch": 57, "duration": 6, "velocity": 70}, {"time": 2027, "pitch": 50, "duration": 5, "velocity": 63}, {"time": 2033, "pitch": 45, "duration": 15, "velocity": 58}, {"time": 2033, "pitch": 60, "duration": 11, "velocity": 67}, {"time": 2033, "pitch": 64, "duration": 11, "velocity": 75}, {"time": 2039, "pitch": 52, "duration": 11, "velocity": 71}, {"time": 2045, "pitch": 60, "duration": 6, "velocity": 67}, {"time": 2045, "pitch": 64, "duration": 6, "velocity": 77}, {"time": 2057, "pitch": 46, "duration": 15, "velocity": 10}, {"time": 2057, "pitch": 62, "duration": 10, "velocity": 64}, {"time": 2060, "pitch": 58, "duration": 9, "velocity": 58}, {"time": 2069, "pitch": 62, "duration": 9, "velocity": 67}, {"time": 2069, "pitch": 65, "duration": 8, "velocity": 75}, {"time": 2081, "pitch": 45, "duration": 17, "velocity": 72}, {"time": 2081, "pitch": 60, "duration": 11, "velocity": 60}, {"time": 2081, "pitch": 64, "duration": 11, "velocity": 59}, {"time": 2087, "pitch": 52, "duration": 11, "velocity": 53}, {"time": 2093, "pitch": 60, "duration": 5, "velocity": 65}, {"time": 2093, "pitch": 64, "duration": 5, "velocity": 76}, {"time": 2105, "pitch": 43, "duration": 17, "velocity": 68}, {"time": 2105, "pitch": 58, "duration": 11, "velocity": 64}, {"time": 2105, "pitch": 62, "duration": 11, "velocity": 73}, {"time": 2111, "pitch": 46, "duration": 11, "velocity": 63}, {"time": 2117, "pitch": 58, "duration": 6, "velocity": 67}, {"time": 2117, "pitch": 62, "duration": 5, "velocity": 87}, {"time": 2129, "pitch": 36, "duration": 18, "velocity": 95}, {"time": 2129, "pitch": 52, "duration": 11, "velocity": 64}, {"time": 2129, "pitch": 55, "duration": 11, "velocity": 70}, {"time": 2135, "pitch": 43, "duration": 12, "velocity": 64}, {"time": 2141, "pitch": 52, "duration": 4, "velocity": 65}, {"time": 2141, "pitch": 55, "duration": 5, "velocity": 77}, {"time": 2144, "pitch": 48, "duration": 8, "velocity": 50}, {"time": 2147, "pitch": 52, "duration": 3, "velocity": 65}, {"time": 2147, "pitch": 55, "duration": 3, "velocity": 56}, {"time": 2153, "pitch": 41, "duration": 18, "velocity": 74}, {"time": 2153, "pitch": 57, "duration": 11, "velocity": 67}, {"time": 2153, "pitch": 60, "duration": 11, "velocity": 60}, {"time": 2159, "pitch": 48, "duration": 20, "velocity": 58}, {"time": 2165, "pitch": 57, "duration": 11, "velocity": 65}, {"time": 2165, "pitch": 60, "duration": 11, "velocity": 74}, {"time": 2177, "pitch": 40, "duration": 18, "velocity": 62}, {"time": 2177, "pitch": 55, "duration": 10, "velocity": 64}, {"time": 2177, "pitch": 60, "duration": 10, "velocity": 67}, {"time": 2183, "pitch": 48, "duration": 10, "velocity": 57}, {"time": 2189, "pitch": 55, "duration": 7, "velocity": 76}, {"time": 2189, "pitch": 60, "duration": 6, "velocity": 75}, {"time": 2201, "pitch": 38, "duration": 17, "velocity": 62}, {"time": 2201, "pitch": 53, "duration": 11, "velocity": 61}, {"time": 2201, "pitch": 57, "duration": 11, "velocity": 67}, {"time": 2207, "pitch": 45, "duration": 12, "velocity": 59}, {"time": 2213, "pitch": 53, "duration": 6, "velocity": 64}, {"time": 2213, "pitch": 57, "duration": 6, "velocity": 70}, {"time": 2219, "pitch": 50, "duration": 6, "velocity": 67}, {"time": 2225, "pitch": 45, "duration": 19, "velocity": 65}, {"time": 2225, "pitch": 60, "duration": 11, "velocity": 63}, {"time": 2225, "pitch": 64, "duration": 11, "velocity": 72}, {"time": 2231, "pitch": 52, "duration": 17, "velocity": 63}, {"time": 2237, "pitch": 60, "duration": 11, "velocity": 74}, {"time": 2237, "pitch": 64, "duration": 8, "velocity": 79}, {"time": 2249, "pitch": 46, "duration": 18, "velocity": 61}, {"time": 2249, "pitch": 62, "duration": 10, "velocity": 90}, {"time": 2261, "pitch": 62, "duration": 7, "velocity": 63}, {"time": 2261, "pitch": 65, "duration": 7, "velocity": 77}, {"time": 2273, "pitch": 45, "duration": 17, "velocity": 77}, {"time": 2273, "pitch": 60, "duration": 11, "velocity": 68}, {"time": 2273, "pitch": 64, "duration": 11, "velocity": 77}, {"time": 2279, "pitch": 52, "duration": 10, "velocity": 71}, {"time": 2285, "pitch": 60, "duration": 5, "velocity": 74}, {"time": 2285, "pitch": 64, "duration": 5, "velocity": 83}, {"time": 2297, "pitch": 43, "duration": 18, "velocity": 77}, {"time": 2297, "pitch": 58, "duration": 11, "velocity": 73}, {"time": 2297, "pitch": 62, "duration": 10, "velocity": 85}, {"time": 2309, "pitch": 58, "duration": 7, "velocity": 68}, {"time": 2309, "pitch": 62, "duration": 6, "velocity": 83}, {"time": 2321, "pitch": 48, "duration": 20, "velocity": 71}, {"time": 2321, "pitch": 64, "duration": 11, "velocity": 63}, {"time": 2321, "pitch": 67, "duration": 11, "velocity": 70}, {"time": 2327, "pitch": 55, "duration": 14, "velocity": 63}, {"time": 2333, "pitch": 60, "duration": 5, "velocity": 58}, {"time": 2333, "pitch": 64, "duration": 8, "velocity": 69}, {"time": 2333, "pitch": 67, "duration": 8, "velocity": 79}, {"time": 2345, "pitch": 41, "duration": 18, "velocity": 58}, {"time": 2345, "pitch": 57, "duration": 16, "velocity": 63}, {"time": 2345, "pitch": 60, "duration": 16, "velocity": 71}, {"time": 2351, "pitch": 48, "duration": 33, "velocity": 60}, {"time": 2357, "pitch": 53, "duration": 4, "velocity": 54}, {"time": 2363, "pitch": 57, "duration": 2, "velocity": 60}, {"time": 2363, "pitch": 60, "duration": 5, "velocity": 71}, {"time": 2369, "pitch": 40, "duration": 18, "velocity": 63}, {"time": 2369, "pitch": 55, "duration": 11, "velocity": 65}, {"time": 2369, "pitch": 60, "duration": 11, "velocity": 69}, {"time": 2381, "pitch": 55, "duration": 11, "velocity": 65}, {"time": 2381, "pitch": 60, "duration": 11, "velocity": 65}, {"time": 2393, "pitch": 38, "duration": 20, "velocity": 67}, {"time": 2399, "pitch": 45, "duration": 14, "velocity": 56}, {"time": 2405, "pitch": 53, "duration": 9, "velocity": 61}, {"time": 2405, "pitch": 57, "duration": 8, "velocity": 66}, {"time": 2411, "pitch": 50, "duration": 3, "velocity": 50}, {"time": 2417, "pitch": 45, "duration": 17, "velocity": 79}, {"time": 2423, "pitch": 52, "duration": 12, "velocity": 67}, {"time": 2429, "pitch": 60, "duration": 11, "velocity": 64}, {"time": 2429, "pitch": 64, "duration": 12, "velocity": 74}, {"time": 2441, "pitch": 46, "duration": 14, "velocity": 51}, {"time": 2441, "pitch": 53, "duration": 16, "velocity": 71}, {"time": 2441, "pitch": 58, "duration": 5, "velocity": 52}, {"time": 2441, "pitch": 62, "duration": 9, "velocity": 60}, {"time": 2441, "pitch": 65, "duration": 10, "velocity": 74}, {"time": 2447, "pitch": 58, "duration": 5, "velocity": 67}, {"time": 2453, "pitch": 62, "duration": 6, "velocity": 63}, {"time": 2453, "pitch": 65, "duration": 6, "velocity": 79}, {"time": 2465, "pitch": 45, "duration": 20, "velocity": 67}, {"time": 2465, "pitch": 60, "duration": 10, "velocity": 62}, {"time": 2465, "pitch": 64, "duration": 10, "velocity": 70}, {"time": 2471, "pitch": 52, "duration": 14, "velocity": 59}, {"time": 2477, "pitch": 60, "duration": 5, "velocity": 62}, {"time": 2477, "pitch": 64, "duration": 5, "velocity": 75}, {"time": 2483, "pitch": 57, "duration": 2, "velocity": 50}, {"time": 2489, "pitch": 43, "duration": 17, "velocity": 67}, {"time": 2489, "pitch": 58, "duration": 10, "velocity": 66}, {"time": 2489, "pitch": 62, "duration": 10, "velocity": 81}, {"time": 2495, "pitch": 50, "duration": 13, "velocity": 64}, {"time": 2501, "pitch": 58, "duration": 6, "velocity": 85}, {"time": 2501, "pitch": 62, "duration": 6, "velocity": 95}, {"time": 2507, "pitch": 55, "duration": 6, "velocity": 61}, {"time": 2513, "pitch": 48, "duration": 15, "velocity": 73}, {"time": 2513, "pitch": 64, "duration": 11, "velocity": 72}, {"time": 2513, "pitch": 67, "duration": 11, "velocity": 75}, {"time": 2519, "pitch": 55, "duration": 7, "velocity": 67}, {"time": 2525, "pitch": 64, "duration": 6, "velocity": 68}, {"time": 2525, "pitch": 67, "duration": 6, "velocity": 83}, {"time": 2525, "pitch": 72, "duration": 6, "velocity": 72}, {"time": 2537, "pitch": 41, "duration": 17, "velocity": 64}, {"time": 2537, "pitch": 57, "duration": 18, "velocity": 58}, {"time": 2537, "pitch": 60, "duration": 18, "velocity": 66}, {"time": 2540, "pitch": 48, "duration": 16, "velocity": 79}, {"time": 2558, "pitch": 55, "duration": 18, "velocity": 51}, {"time": 2561, "pitch": 40, "duration": 18, "velocity": 58}, {"time": 2561, "pitch": 60, "duration": 18, "velocity": 59}, {"time": 2564, "pitch": 48, "duration": 14, "velocity": 59}, {"time": 2582, "pitch": 65, "duration": 16, "velocity": 60}, {"time": 2585, "pitch": 50, "duration": 15, "velocity": 74}, {"time": 2585, "pitch": 69, "duration": 14, "velocity": 59}, {"time": 2588, "pitch": 57, "duration": 11, "velocity": 67}, {"time": 2609, "pitch": 45, "duration": 16, "velocity": 65}, {"time": 2609, "pitch": 60, "duration": 18, "velocity": 59}, {"time": 2609, "pitch": 64, "duration": 17, "velocity": 59}, {"time": 2633, "pitch": 46, "duration": 19, "velocity": 64}, {"time": 2639, "pitch": 58, "duration": 11, "velocity": 47}, {"time": 2645, "pitch": 62, "duration": 11, "velocity": 59}, {"time": 2645, "pitch": 65, "duration": 11, "velocity": 67}, {"time": 2657, "pitch": 45, "duration": 18, "velocity": 56}, {"time": 2669, "pitch": 60, "duration": 6, "velocity": 65}, {"time": 2669, "pitch": 64, "duration": 6, "velocity": 74}, {"time": 2681, "pitch": 43, "duration": 17, "velocity": 77}, {"time": 2681, "pitch": 58, "duration": 17, "velocity": 63}, {"time": 2681, "pitch": 62, "duration": 17, "velocity": 86}, {"time": 2690, "pitch": 50, "duration": 7, "velocity": 33}, {"time": 2693, "pitch": 55, "duration": 8, "velocity": 58}, {"time": 2705, "pitch": 48, "duration": 21, "velocity": 77}, {"time": 2705, "pitch": 64, "duration": 11, "velocity": 83}, {"time": 2705, "pitch": 67, "duration": 11, "velocity": 79}, {"time": 2711, "pitch": 55, "duration": 14, "velocity": 62}, {"time": 2717, "pitch": 64, "duration": 10, "velocity": 83}, {"time": 2717, "pitch": 67, "duration": 10, "velocity": 85}, {"time": 2723, "pitch": 60, "duration": 2, "velocity": 61}, {"time": 2729, "pitch": 41, "duration": 18, "velocity": 74}, {"time": 2729, "pitch": 57, "duration": 11, "velocity": 67}, {"time": 2729, "pitch": 60, "duration": 11, "velocity": 60}, {"time": 2735, "pitch": 48, "duration": 20, "velocity": 58}, {"time": 2741, "pitch": 57, "duration": 11, "velocity": 65}, {"time": 2741, "pitch": 60, "duration": 11, "velocity": 74}, {"time": 2753, "pitch": 40, "duration": 18, "velocity": 62}, {"time": 2753, "pitch": 55, "duration": 10, "velocity": 64}, {"time": 2753, "pitch": 60, "duration": 10, "velocity": 67}, {"time": 2759, "pitch": 48, "duration": 10, "velocity": 57}, {"time": 2765, "pitch": 55, "duration": 7, "velocity": 76}, {"time": 2765, "pitch": 60, "duration": 6, "velocity": 75}, {"time": 2777, "pitch": 38, "duration": 17, "velocity": 62}, {"time": 2777, "pitch": 53, "duration": 11, "velocity": 61}, {"time": 2777, "pitch": 57, "duration": 11, "velocity": 67}, {"time": 2783, "pitch": 45, "duration": 12, "velocity": 59}, {"time": 2789, "pitch": 53, "duration": 6, "velocity": 64}, {"time": 2789, "pitch": 57, "duration": 6, "velocity": 70}, {"time": 2795, "pitch": 50, "duration": 6, "velocity": 67}, {"time": 2801, "pitch": 45, "duration": 19, "velocity": 65}, {"time": 2801, "pitch": 60, "duration": 11, "velocity": 63}, {"time": 2801, "pitch": 64, "duration": 11, "velocity": 72}, {"time": 2807, "pitch": 52, "duration": 17, "velocity": 63}, {"time": 2813, "pitch": 60, "duration": 11, "velocity": 74}, {"time": 2813, "pitch": 64, "duration": 8, "velocity": 79}, {"time": 2825, "pitch": 46, "duration": 18, "velocity": 61}, {"time": 2825, "pitch": 62, "duration": 10, "velocity": 90}, {"time": 2837, "pitch": 62, "duration": 7, "velocity": 63}, {"time": 2837, "pitch": 65, "duration": 7, "velocity": 77}, {"time": 2849, "pitch": 45, "duration": 17, "velocity": 77}, {"time": 2849, "pitch": 60, "duration": 11, "velocity": 68}, {"time": 2849, "pitch": 64, "duration": 11, "velocity": 77}, {"time": 2855, "pitch": 52, "duration": 10, "velocity": 71}, {"time": 2861, "pitch": 60, "duration": 5, "velocity": 74}, {"time": 2861, "pitch": 64, "duration": 5, "velocity": 83}, {"time": 2873, "pitch": 43, "duration": 18, "velocity": 77}, {"time": 2873, "pitch": 58, "duration": 11, "velocity": 73}, {"time": 2873, "pitch": 62, "duration": 10, "velocity": 85}, {"time": 2885, "pitch": 58, "duration": 7, "velocity": 68}, {"time": 2885, "pitch": 62, "duration": 6, "velocity": 83}, {"time": 2897, "pitch": 48, "duration": 20, "velocity": 71}, {"time": 2897, "pitch": 64, "duration": 11, "velocity": 63}, {"time": 2897, "pitch": 67, "duration": 11, "velocity": 70}, {"time": 2903, "pitch": 55, "duration": 14, "velocity": 63}, {"time": 2909, "pitch": 60, "duration": 5, "velocity": 58}, {"time": 2909, "pitch": 64, "duration": 8, "velocity": 69}, {"time": 2909, "pitch": 67, "duration": 8, "velocity": 79}, {"time": 2921, "pitch": 41, "duration": 27, "velocity": 65}, {"time": 2921, "pitch": 57, "duration": 11, "velocity": 67}, {"time": 2921, "pitch": 60, "duration": 11, "velocity": 74}, {"time": 2927, "pitch": 48, "duration": 20, "velocity": 65}, {"time": 2933, "pitch": 57, "duration": 11, "velocity": 67}, {"time": 2933, "pitch": 60, "duration": 11, "velocity": 73}, {"time": 2939, "pitch": 53, "duration": 5, "velocity": 49}, {"time": 2945, "pitch": 48, "duration": 2, "velocity": 86}, {"time": 2945, "pitch": 64, "duration": 9, "velocity": 79}, {"time": 2945, "pitch": 67, "duration": 9, "velocity": 83}, {"time": 2957, "pitch": 37, "duration": 13, "velocity": 68}, {"time": 2957, "pitch": 49, "duration": 12, "velocity": 79}, {"time": 2957, "pitch": 56, "duration": 12, "velocity": 85}, {"time": 2957, "pitch": 61, "duration": 12, "velocity": 114}, {"time": 2969, "pitch": 42, "duration": 17, "velocity": 74}, {"time": 2975, "pitch": 49, "duration": 10, "velocity": 58}, {"time": 2981, "pitch": 58, "duration": 13, "velocity": 71}, {"time": 2981, "pitch": 61, "duration": 23, "velocity": 71}, {"time": 2993, "pitch": 41, "duration": 18, "velocity": 76}, {"time": 2999, "pitch": 49, "duration": 10, "velocity": 74}, {"time": 3005, "pitch": 56, "duration": 8, "velocity": 68}, {"time": 3005, "pitch": 61, "duration": 7, "velocity": 70}, {"time": 3017, "pitch": 39, "duration": 17, "velocity": 72}, {"time": 3017, "pitch": 54, "duration": 10, "velocity": 60}, {"time": 3017, "pitch": 58, "duration": 11, "velocity": 61}, {"time": 3023, "pitch": 46, "duration": 13, "velocity": 64}, {"time": 3029, "pitch": 54, "duration": 6, "velocity": 66}, {"time": 3029, "pitch": 58, "duration": 6, "velocity": 70}, {"time": 3035, "pitch": 51, "duration": 5, "velocity": 63}, {"time": 3041, "pitch": 46, "duration": 15, "velocity": 58}, {"time": 3041, "pitch": 61, "duration": 11, "velocity": 67}, {"time": 3041, "pitch": 65, "duration": 11, "velocity": 75}, {"time": 3047, "pitch": 53, "duration": 11, "velocity": 71}, {"time": 3053, "pitch": 61, "duration": 6, "velocity": 67}, {"time": 3053, "pitch": 65, "duration": 6, "velocity": 77}, {"time": 3065, "pitch": 47, "duration": 15, "velocity": 59}, {"time": 3065, "pitch": 63, "duration": 10, "velocity": 64}, {"time": 3068, "pitch": 59, "duration": 9, "velocity": 58}, {"time": 3077, "pitch": 63, "duration": 9, "velocity": 67}, {"time": 3077, "pitch": 66, "duration": 8, "velocity": 75}, {"time": 3089, "pitch": 46, "duration": 17, "velocity": 72}, {"time": 3089, "pitch": 61, "duration": 11, "velocity": 60}, {"time": 3089, "pitch": 65, "duration": 11, "velocity": 59}, {"time": 3095, "pitch": 53, "duration": 11, "velocity": 53}, {"time": 3101, "pitch": 61, "duration": 5, "velocity": 65}, {"time": 3101, "pitch": 65, "duration": 5, "velocity": 76}, {"time": 3113, "pitch": 44, "duration": 17, "velocity": 68}, {"time": 3113, "pitch": 59, "duration": 11, "velocity": 64}, {"time": 3113, "pitch": 63, "duration": 11, "velocity": 73}, {"time": 3119, "pitch": 47, "duration": 11, "velocity": 63}, {"time": 3125, "pitch": 59, "duration": 6, "velocity": 67}, {"time": 3125, "pitch": 63, "duration": 5, "velocity": 87}, {"time": 3137, "pitch": 37, "duration": 18, "velocity": 95}, {"time": 3137, "pitch": 53, "duration": 11, "velocity": 64}, {"time": 3137, "pitch": 56, "duration": 11, "velocity": 70}, {"time": 3143, "pitch": 44, "duration": 12, "velocity": 64}, {"time": 3149, "pitch": 53, "duration": 4, "velocity": 65}, {"time": 3149, "pitch": 56, "duration": 5, "velocity": 77}, {"time": 3152, "pitch": 49, "duration": 8, "velocity": 50}, {"time": 3155, "pitch": 53, "duration": 3, "velocity": 65}, {"time": 3155, "pitch": 56, "duration": 3, "velocity": 56}, {"time": 3161, "pitch": 42, "duration": 18, "velocity": 74}, {"time": 3161, "pitch": 58, "duration": 11, "velocity": 67}, {"time": 3161, "pitch": 61, "duration": 11, "velocity": 60}, {"time": 3167, "pitch": 49, "duration": 20, "velocity": 58}, {"time": 3173, "pitch": 58, "duration": 11, "velocity": 65}, {"time": 3173, "pitch": 61, "duration": 11, "velocity": 74}, {"time": 3185, "pitch": 41, "duration": 18, "velocity": 62}, {"time": 3185, "pitch": 56, "duration": 10, "velocity": 64}, {"time": 3185, "pitch": 61, "duration": 10, "velocity": 67}, {"time": 3191, "pitch": 49, "duration": 10, "velocity": 57}, {"time": 3197, "pitch": 56, "duration": 7, "velocity": 76}, {"time": 3197, "pitch": 61, "duration": 6, "velocity": 75}, {"time": 3209, "pitch": 39, "duration": 17, "velocity": 62}, {"time": 3209, "pitch": 54, "duration": 11, "velocity": 61}, {"time": 3209, "pitch": 58, "duration": 11, "velocity": 67}, {"time": 3215, "pitch": 46, "duration": 12, "velocity": 59}, {"time": 3221, "pitch": 54, "duration": 6, "velocity": 64}, {"time": 3221, "pitch": 58, "duration": 6, "velocity": 70}, {"time": 3227, "pitch": 51, "duration": 6, "velocity": 67}, {"time": 3233, "pitch": 46, "duration": 19, "velocity": 65}, {"time": 3233, "pitch": 61, "duration": 11, "velocity": 63}, {"time": 3233, "pitch": 65, "duration": 11, "velocity": 72}, {"time": 3239, "pitch": 53, "duration": 17, "velocity": 63}, {"time": 3245, "pitch": 61, "duration": 11, "velocity": 74}, {"time": 3245, "pitch": 65, "duration": 8, "velocity": 79}, {"time": 3257, "pitch": 47, "duration": 18, "velocity": 61}, {"time": 3257, "pitch": 63, "duration": 10, "velocity": 90}, {"time": 3269, "pitch": 63, "duration": 7, "velocity": 63}, {"time": 3269, "pitch": 66, "duration": 7, "velocity": 77}, {"time": 3281, "pitch": 46, "duration": 17, "velocity": 77}, {"time": 3281, "pitch": 61, "duration": 11, "velocity": 68}, {"time": 3281, "pitch": 65, "duration": 11, "velocity": 77}, {"time": 3287, "pitch": 53, "duration": 10, "velocity": 71}, {"time": 3293, "pitch": 61, "duration": 5, "velocity": 74}, {"time": 3293, "pitch": 65, "duration": 5, "velocity": 83}, {"time": 3305, "pitch": 44, "duration": 18, "velocity": 77}, {"time": 3305, "pitch": 59, "duration": 11, "velocity": 73}, {"time": 3305, "pitch": 63, "duration": 10, "velocity": 85}, {"time": 3317, "pitch": 59, "duration": 7, "velocity": 68}, {"time": 3317, "pitch": 63, "duration": 6, "velocity": 83}, {"time": 3329, "pitch": 49, "duration": 20, "velocity": 71}, {"time": 3329, "pitch": 65, "duration": 11, "velocity": 63}, {"time": 3329, "pitch": 68, "duration": 11, "velocity": 70}, {"time": 3335, "pitch": 56, "duration": 14, "velocity": 63}, {"time": 3341, "pitch": 61, "duration": 5, "velocity": 58}, {"time": 3341, "pitch": 65, "duration": 8, "velocity": 69}, {"time": 3341, "pitch": 68, "duration": 8, "velocity": 79}, {"time": 3353, "pitch": 42, "duration": 18, "velocity": 58}, {"time": 3353, "pitch": 58, "duration": 16, "velocity": 63}, {"time": 3353, "pitch": 61, "duration": 16, "velocity": 71}, {"time": 3359, "pitch": 49, "duration": 33, "velocity": 60}, {"time": 3365, "pitch": 54, "duration": 4, "velocity": 54}, {"time": 3371, "pitch": 58, "duration": 2, "velocity": 60}, {"time": 3371, "pitch": 61, "duration": 5, "velocity": 71}, {"time": 3377, "pitch": 41, "duration": 18, "velocity": 63}, {"time": 3377, "pitch": 56, "duration": 11, "velocity": 65}, {"time": 3377, "pitch": 61, "duration": 11, "velocity": 69}, {"time": 3389, "pitch": 56, "duration": 11, "velocity": 65}, {"time": 3389, "pitch": 61, "duration": 11, "velocity": 65}, {"time": 3401, "pitch": 44, "duration": 48, "velocity": 77}, {"time": 3401, "pitch": 59, "duration": 11, "velocity": 73}, {"time": 3401, "pitch": 63, "duration": 10, "velocity": 85}, {"time": 3413, "pitch": 59, "duration": 41, "velocity": 68}, {"time": 3413, "pitch": 63, "duration": 36, "velocity": 83}, {"time": 3496, "pitch": 42, "duration": 39, "velocity": 97}, {"time": 3503, "pitch": 54, "duration": 34, "velocity": 56}, {"time": 3509, "pitch": 58, "duration": 20, "velocity": 85}, {"time": 3515, "pitch": 61, "duration": 18, "velocity": 41}, {"time": 3521, "pitch": 66, "duration": 27, "velocity": 73}, {"time": 3532, "pitch": 58, "duration": 28, "velocity": 78}, {"time": 3544, "pitch": 41, "duration": 41, "velocity": 72}, {"time": 3563, "pitch": 58, "duration": 7, "velocity": 75}, {"time": 3569, "pitch": 61, "duration": 14, "velocity": 102}, {"time": 3580, "pitch": 58, "duration": 15, "velocity": 64}, {"time": 3592, "pitch": 39, "duration": 41, "velocity": 93}, {"time": 3598, "pitch": 51, "duration": 33, "velocity": 55}, {"time": 3604, "pitch": 54, "duration": 15, "velocity": 58}, {"time": 3610, "pitch": 58, "duration": 33, "velocity": 53}, {"time": 3617, "pitch": 63, "duration": 26, "velocity": 81}, {"time": 3628, "pitch": 54, "duration": 15, "velocity": 47}, {"time": 3641, "pitch": 37, "duration": 40, "velocity": 93}, {"time": 3646, "pitch": 49, "duration": 41, "velocity": 47}, {"time": 3653, "pitch": 53, "duration": 15, "velocity": 34}, {"time": 3658, "pitch": 56, "duration": 33, "velocity": 50}, {"time": 3665, "pitch": 61, "duration": 27, "velocity": 79}, {"time": 3677, "pitch": 53, "duration": 14, "velocity": 50}, {"time": 3690, "pitch": 42, "duration": 66, "velocity": 81}, {"time": 3698, "pitch": 54, "duration": 56, "velocity": 32}, {"time": 3704, "pitch": 58, "duration": 38, "velocity": 34}], "annotations": [{"time": 2348, "annotation": {"number": 64, "value": 0}, "group": "control_change"}, {"time": 2352, "annotation": {"number": 64, "value": 127}, "group": "control_change"}, {"time": 2478, "annotation": {"number": 64, "value": 127}, "group": "control_change"}, {"time": 2924, "annotation": {"number": 64, "value": 0}, "group": "control_change"}, {"time": 2928, "annotation": {"number": 64, "value": 127}, "group": "control_change"}, {"time": 3356, "annotation": {"number": 64, "value": 0}, "group": "control_change"}, {"time": 3360, "annotation": {"number": 64, "value": 127}, "group": "control_change"}]}]}