{"metadata": {"schema_version": "0.2", "title": "None", "source_filename": "058.mid", "source_format": "midi"}, "resolution": 12, "tempos": [{"time": 0, "qpm": 63.900077319093555}, {"time": 185, "qpm": 64.0}, {"time": 413, "qpm": 63.900077319093555}, {"time": 1517, "qpm": 63.49999259166753}, {"time": 1625, "qpm": 64.0}, {"time": 1661, "qpm": 64.30006697923643}, {"time": 1877, "qpm": 64.0}, {"time": 1985, "qpm": 64.99999458333379}, {"time": 1997, "qpm": 64.49996936251455}, {"time": 2009, "qpm": 64.99999458333379}, {"time": 2045, "qpm": 64.30006697923643}, {"time": 2069, "qpm": 64.49996936251455}, {"time": 2081, "qpm": 64.0}, {"time": 2093, "qpm": 63.49999259166753}, {"time": 2177, "qpm": 64.0}, {"time": 2333, "qpm": 63.49999259166753}, {"time": 2429, "qpm": 64.0}, {"time": 2729, "qpm": 63.49999259166753}, {"time": 2777, "qpm": 64.0}, {"time": 3245, "qpm": 63.49999259166753}], "time_signatures": [{"time": 0, "numerator": 1, "denominator": 4}], "tracks": [{"program": 0, "is_drum": false, "name": "MELODY", "notes": [{"time": 413, "pitch": 73, "duration": 3, "velocity": 77}, {"time": 416, "pitch": 73, "duration": 6, "velocity": 79}, {"time": 422, "pitch": 73, "duration": 3, "velocity": 81}, {"time": 425, "pitch": 73, "duration": 6, "velocity": 90}, {"time": 431, "pitch": 71, "duration": 6, "velocity": 81}, {"time": 437, "pitch": 69, "duration": 18, "velocity": 93}, {"time": 455, "pitch": 76, "duration": 12, "velocity": 86}, {"time": 467, "pitch": 73, "duration": 42, "velocity": 87}, {"time": 509, "pitch": 69, "duration": 3, "velocity": 98}, {"time": 512, "pitch": 69, "duration": 9, "velocity": 95}, {"time": 521, "pitch": 69, "duration": 6, "velocity": 83}, {"time": 527, "pitch": 69, "duration": 3, "velocity": 75}, {"time": 530, "pitch": 71, "duration": 6, "velocity": 87}, {"time": 536, "pitch": 69, "duration": 18, "velocity": 86}, {"time": 554, "pitch": 61, "duration": 3, "velocity": 65}, {"time": 557, "pitch": 64, "duration": 48, "velocity": 85}, {"time": 605, "pitch": 66, "duration": 4, "velocity": 74}, {"time": 608, "pitch": 69, "duration": 9, "velocity": 71}, {"time": 617, "pitch": 69, "duration": 6, "velocity": 77}, {"time": 623, "pitch": 69, "duration": 6, "velocity": 58}, {"time": 629, "pitch": 69, "duration": 18, "velocity": 71}, {"time": 647, "pitch": 69, "duration": 3, "velocity": 65}, {"time": 650, "pitch": 71, "duration": 3, "velocity": 67}, {"time": 653, "pitch": 73, "duration": 18, "velocity": 95}, {"time": 671, "pitch": 71, "duration": 6, "velocity": 87}, {"time": 677, "pitch": 69, "duration": 18, "velocity": 95}, {"time": 695, "pitch": 66, "duration": 3, "velocity": 83}, {"time": 698, "pitch": 69, "duration": 3, "velocity": 68}, {"time": 701, "pitch": 71, "duration": 18, "velocity": 100}, {"time": 719, "pitch": 71, "duration": 3, "velocity": 70}, {"time": 722, "pitch": 71, "duration": 3, "velocity": 81}, {"time": 725, "pitch": 73, "duration": 6, "velocity": 98}, {"time": 731, "pitch": 71, "duration": 15, "velocity": 98}, {"time": 746, "pitch": 69, "duration": 3, "velocity": 75}, {"time": 749, "pitch": 71, "duration": 48, "velocity": 100}, {"time": 797, "pitch": 73, "duration": 3, "velocity": 77}, {"time": 800, "pitch": 73, "duration": 6, "velocity": 79}, {"time": 806, "pitch": 73, "duration": 3, "velocity": 81}, {"time": 809, "pitch": 73, "duration": 6, "velocity": 90}, {"time": 815, "pitch": 71, "duration": 6, "velocity": 81}, {"time": 821, "pitch": 69, "duration": 18, "velocity": 93}, {"time": 839, "pitch": 76, "duration": 12, "velocity": 86}, {"time": 851, "pitch": 73, "duration": 42, "velocity": 87}, {"time": 893, "pitch": 69, "duration": 6, "velocity": 83}, {"time": 899, "pitch": 69, "duration": 6, "velocity": 85}, {"time": 905, "pitch": 69, "duration": 6, "velocity": 83}, {"time": 911, "pitch": 69, "duration": 3, "velocity": 75}, {"time": 914, "pitch": 71, "duration": 6, "velocity": 87}, {"time": 920, "pitch": 69, "duration": 18, "velocity": 86}, {"time": 938, "pitch": 61, "duration": 3, "velocity": 65}, {"time": 941, "pitch": 64, "duration": 48, "velocity": 85}, {"time": 989, "pitch": 66, "duration": 4, "velocity": 74}, {"time": 992, "pitch": 69, "duration": 9, "velocity": 71}, {"time": 1001, "pitch": 69, "duration": 6, "velocity": 77}, {"time": 1007, "pitch": 69, "duration": 6, "velocity": 58}, {"time": 1013, "pitch": 69, "duration": 18, "velocity": 71}, {"time": 1031, "pitch": 69, "duration": 3, "velocity": 65}, {"time": 1034, "pitch": 71, "duration": 3, "velocity": 67}, {"time": 1037, "pitch": 73, "duration": 18, "velocity": 95}, {"time": 1055, "pitch": 71, "duration": 6, "velocity": 87}, {"time": 1061, "pitch": 69, "duration": 18, "velocity": 95}, {"time": 1079, "pitch": 66, "duration": 3, "velocity": 83}, {"time": 1082, "pitch": 69, "duration": 3, "velocity": 68}, {"time": 1085, "pitch": 71, "duration": 6, "velocity": 100}, {"time": 1091, "pitch": 71, "duration": 12, "velocity": 87}, {"time": 1103, "pitch": 71, "duration": 3, "velocity": 70}, {"time": 1106, "pitch": 71, "duration": 3, "velocity": 81}, {"time": 1109, "pitch": 73, "duration": 6, "velocity": 98}, {"time": 1115, "pitch": 71, "duration": 12, "velocity": 98}, {"time": 1127, "pitch": 71, "duration": 6, "velocity": 75}, {"time": 1133, "pitch": 69, "duration": 48, "velocity": 100}, {"time": 1181, "pitch": 78, "duration": 3, "velocity": 114}, {"time": 1184, "pitch": 78, "duration": 6, "velocity": 117}, {"time": 1190, "pitch": 78, "duration": 3, "velocity": 112}, {"time": 1193, "pitch": 78, "duration": 6, "velocity": 120}, {"time": 1199, "pitch": 73, "duration": 3, "velocity": 77}, {"time": 1202, "pitch": 76, "duration": 21, "velocity": 95}, {"time": 1223, "pitch": 73, "duration": 3, "velocity": 95}, {"time": 1226, "pitch": 71, "duration": 3, "velocity": 66}, {"time": 1229, "pitch": 69, "duration": 6, "velocity": 85}, {"time": 1235, "pitch": 69, "duration": 6, "velocity": 86}, {"time": 1241, "pitch": 69, "duration": 3, "velocity": 90}, {"time": 1244, "pitch": 69, "duration": 6, "velocity": 93}, {"time": 1250, "pitch": 71, "duration": 3, "velocity": 85}, {"time": 1253, "pitch": 73, "duration": 24, "velocity": 108}, {"time": 1277, "pitch": 78, "duration": 3, "velocity": 108}, {"time": 1280, "pitch": 78, "duration": 6, "velocity": 104}, {"time": 1286, "pitch": 78, "duration": 3, "velocity": 100}, {"time": 1289, "pitch": 78, "duration": 6, "velocity": 111}, {"time": 1295, "pitch": 80, "duration": 3, "velocity": 117}, {"time": 1298, "pitch": 78, "duration": 3, "velocity": 117}, {"time": 1301, "pitch": 76, "duration": 18, "velocity": 120}, {"time": 1319, "pitch": 73, "duration": 3, "velocity": 98}, {"time": 1322, "pitch": 76, "duration": 3, "velocity": 104}, {"time": 1325, "pitch": 78, "duration": 6, "velocity": 121}, {"time": 1331, "pitch": 78, "duration": 18, "velocity": 117}, {"time": 1349, "pitch": 78, "duration": 6, "velocity": 104}, {"time": 1355, "pitch": 78, "duration": 12, "velocity": 120}, {"time": 1367, "pitch": 73, "duration": 6, "velocity": 112}, {"time": 1373, "pitch": 71, "duration": 48, "velocity": 114}, {"time": 1421, "pitch": 78, "duration": 5, "velocity": 114}, {"time": 1426, "pitch": 78, "duration": 4, "velocity": 117}, {"time": 1430, "pitch": 78, "duration": 3, "velocity": 112}, {"time": 1433, "pitch": 78, "duration": 6, "velocity": 120}, {"time": 1439, "pitch": 73, "duration": 3, "velocity": 77}, {"time": 1442, "pitch": 76, "duration": 21, "velocity": 95}, {"time": 1463, "pitch": 73, "duration": 3, "velocity": 95}, {"time": 1466, "pitch": 71, "duration": 3, "velocity": 66}, {"time": 1469, "pitch": 69, "duration": 6, "velocity": 85}, {"time": 1475, "pitch": 69, "duration": 6, "velocity": 86}, {"time": 1481, "pitch": 69, "duration": 5, "velocity": 90}, {"time": 1486, "pitch": 69, "duration": 4, "velocity": 93}, {"time": 1490, "pitch": 71, "duration": 3, "velocity": 85}, {"time": 1493, "pitch": 73, "duration": 24, "velocity": 108}, {"time": 1517, "pitch": 78, "duration": 5, "velocity": 108}, {"time": 1522, "pitch": 78, "duration": 4, "velocity": 104}, {"time": 1526, "pitch": 78, "duration": 3, "velocity": 100}, {"time": 1529, "pitch": 78, "duration": 6, "velocity": 111}, {"time": 1535, "pitch": 80, "duration": 3, "velocity": 117}, {"time": 1538, "pitch": 78, "duration": 3, "velocity": 117}, {"time": 1541, "pitch": 76, "duration": 18, "velocity": 120}, {"time": 1559, "pitch": 73, "duration": 3, "velocity": 98}, {"time": 1562, "pitch": 76, "duration": 3, "velocity": 104}, {"time": 1565, "pitch": 78, "duration": 6, "velocity": 121}, {"time": 1571, "pitch": 78, "duration": 18, "velocity": 117}, {"time": 1589, "pitch": 78, "duration": 6, "velocity": 104}, {"time": 1595, "pitch": 78, "duration": 12, "velocity": 120}, {"time": 1607, "pitch": 78, "duration": 6, "velocity": 112}, {"time": 1613, "pitch": 76, "duration": 48, "velocity": 114}, {"time": 1661, "pitch": 73, "duration": 3, "velocity": 77}, {"time": 1664, "pitch": 73, "duration": 6, "velocity": 79}, {"time": 1670, "pitch": 73, "duration": 3, "velocity": 81}, {"time": 1673, "pitch": 73, "duration": 6, "velocity": 90}, {"time": 1679, "pitch": 71, "duration": 6, "velocity": 81}, {"time": 1685, "pitch": 69, "duration": 18, "velocity": 93}, {"time": 1703, "pitch": 76, "duration": 12, "velocity": 86}, {"time": 1715, "pitch": 73, "duration": 42, "velocity": 87}, {"time": 1757, "pitch": 69, "duration": 4, "velocity": 83}, {"time": 1761, "pitch": 69, "duration": 8, "velocity": 85}, {"time": 1769, "pitch": 69, "duration": 6, "velocity": 83}, {"time": 1775, "pitch": 69, "duration": 3, "velocity": 75}, {"time": 1778, "pitch": 71, "duration": 6, "velocity": 87}, {"time": 1784, "pitch": 69, "duration": 18, "velocity": 86}, {"time": 1802, "pitch": 61, "duration": 3, "velocity": 65}, {"time": 1805, "pitch": 64, "duration": 48, "velocity": 85}, {"time": 1853, "pitch": 66, "duration": 4, "velocity": 74}, {"time": 1856, "pitch": 69, "duration": 9, "velocity": 71}, {"time": 1865, "pitch": 69, "duration": 6, "velocity": 77}, {"time": 1871, "pitch": 69, "duration": 6, "velocity": 58}, {"time": 1877, "pitch": 69, "duration": 18, "velocity": 71}, {"time": 1895, "pitch": 69, "duration": 3, "velocity": 65}, {"time": 1898, "pitch": 71, "duration": 3, "velocity": 67}, {"time": 1901, "pitch": 73, "duration": 18, "velocity": 95}, {"time": 1919, "pitch": 71, "duration": 6, "velocity": 87}, {"time": 1925, "pitch": 69, "duration": 18, "velocity": 95}, {"time": 1943, "pitch": 66, "duration": 3, "velocity": 83}, {"time": 1946, "pitch": 69, "duration": 3, "velocity": 68}, {"time": 1949, "pitch": 71, "duration": 18, "velocity": 100}, {"time": 1967, "pitch": 71, "duration": 3, "velocity": 70}, {"time": 1970, "pitch": 71, "duration": 3, "velocity": 81}, {"time": 1973, "pitch": 73, "duration": 6, "velocity": 98}, {"time": 1979, "pitch": 71, "duration": 12, "velocity": 98}, {"time": 1991, "pitch": 71, "duration": 6, "velocity": 75}, {"time": 1997, "pitch": 69, "duration": 48, "velocity": 100}, {"time": 2429, "pitch": 78, "duration": 3, "velocity": 114}, {"time": 2432, "pitch": 78, "duration": 6, "velocity": 117}, {"time": 2438, "pitch": 78, "duration": 3, "velocity": 112}, {"time": 2441, "pitch": 78, "duration": 6, "velocity": 120}, {"time": 2447, "pitch": 73, "duration": 3, "velocity": 77}, {"time": 2450, "pitch": 76, "duration": 21, "velocity": 95}, {"time": 2471, "pitch": 73, "duration": 3, "velocity": 95}, {"time": 2474, "pitch": 71, "duration": 3, "velocity": 66}, {"time": 2477, "pitch": 69, "duration": 6, "velocity": 85}, {"time": 2483, "pitch": 69, "duration": 6, "velocity": 86}, {"time": 2489, "pitch": 69, "duration": 3, "velocity": 90}, {"time": 2492, "pitch": 69, "duration": 6, "velocity": 93}, {"time": 2498, "pitch": 71, "duration": 3, "velocity": 85}, {"time": 2501, "pitch": 73, "duration": 24, "velocity": 108}, {"time": 2525, "pitch": 78, "duration": 3, "velocity": 108}, {"time": 2528, "pitch": 78, "duration": 6, "velocity": 104}, {"time": 2534, "pitch": 78, "duration": 3, "velocity": 100}, {"time": 2537, "pitch": 78, "duration": 6, "velocity": 111}, {"time": 2543, "pitch": 80, "duration": 3, "velocity": 117}, {"time": 2546, "pitch": 78, "duration": 3, "velocity": 117}, {"time": 2549, "pitch": 76, "duration": 18, "velocity": 120}, {"time": 2567, "pitch": 73, "duration": 3, "velocity": 98}, {"time": 2570, "pitch": 76, "duration": 3, "velocity": 104}, {"time": 2573, "pitch": 78, "duration": 6, "velocity": 121}, {"time": 2579, "pitch": 78, "duration": 18, "velocity": 117}, {"time": 2597, "pitch": 78, "duration": 6, "velocity": 104}, {"time": 2603, "pitch": 78, "duration": 12, "velocity": 120}, {"time": 2615, "pitch": 73, "duration": 6, "velocity": 112}, {"time": 2621, "pitch": 71, "duration": 48, "velocity": 114}, {"time": 2669, "pitch": 78, "duration": 5, "velocity": 114}, {"time": 2674, "pitch": 78, "duration": 4, "velocity": 117}, {"time": 2678, "pitch": 78, "duration": 3, "velocity": 112}, {"time": 2681, "pitch": 78, "duration": 6, "velocity": 120}, {"time": 2687, "pitch": 73, "duration": 3, "velocity": 77}, {"time": 2690, "pitch": 76, "duration": 21, "velocity": 95}, {"time": 2711, "pitch": 73, "duration": 3, "velocity": 95}, {"time": 2714, "pitch": 71, "duration": 3, "velocity": 66}, {"time": 2717, "pitch": 69, "duration": 6, "velocity": 85}, {"time": 2723, "pitch": 69, "duration": 6, "velocity": 86}, {"time": 2729, "pitch": 69, "duration": 5, "velocity": 90}, {"time": 2734, "pitch": 69, "duration": 4, "velocity": 93}, {"time": 2738, "pitch": 71, "duration": 3, "velocity": 85}, {"time": 2741, "pitch": 73, "duration": 24, "velocity": 108}, {"time": 2765, "pitch": 78, "duration": 5, "velocity": 108}, {"time": 2770, "pitch": 78, "duration": 4, "velocity": 104}, {"time": 2774, "pitch": 78, "duration": 3, "velocity": 100}, {"time": 2777, "pitch": 78, "duration": 6, "velocity": 111}, {"time": 2783, "pitch": 80, "duration": 3, "velocity": 117}, {"time": 2786, "pitch": 78, "duration": 3, "velocity": 117}, {"time": 2789, "pitch": 76, "duration": 18, "velocity": 120}, {"time": 2807, "pitch": 73, "duration": 3, "velocity": 98}, {"time": 2810, "pitch": 76, "duration": 3, "velocity": 104}, {"time": 2813, "pitch": 78, "duration": 6, "velocity": 121}, {"time": 2819, "pitch": 78, "duration": 18, "velocity": 117}, {"time": 2837, "pitch": 78, "duration": 6, "velocity": 104}, {"time": 2843, "pitch": 78, "duration": 12, "velocity": 120}, {"time": 2855, "pitch": 78, "duration": 6, "velocity": 112}, {"time": 2861, "pitch": 76, "duration": 48, "velocity": 114}, {"time": 2909, "pitch": 73, "duration": 3, "velocity": 77}, {"time": 2912, "pitch": 73, "duration": 6, "velocity": 79}, {"time": 2918, "pitch": 73, "duration": 3, "velocity": 81}, {"time": 2921, "pitch": 73, "duration": 6, "velocity": 90}, {"time": 2927, "pitch": 71, "duration": 6, "velocity": 81}, {"time": 2933, "pitch": 69, "duration": 18, "velocity": 93}, {"time": 2951, "pitch": 76, "duration": 12, "velocity": 86}, {"time": 2963, "pitch": 73, "duration": 42, "velocity": 87}, {"time": 3005, "pitch": 69, "duration": 4, "velocity": 83}, {"time": 3009, "pitch": 69, "duration": 8, "velocity": 85}, {"time": 3017, "pitch": 69, "duration": 6, "velocity": 83}, {"time": 3023, "pitch": 69, "duration": 3, "velocity": 75}, {"time": 3026, "pitch": 71, "duration": 6, "velocity": 87}, {"time": 3032, "pitch": 69, "duration": 18, "velocity": 86}, {"time": 3050, "pitch": 61, "duration": 3, "velocity": 65}, {"time": 3053, "pitch": 64, "duration": 48, "velocity": 85}, {"time": 3101, "pitch": 66, "duration": 4, "velocity": 74}, {"time": 3104, "pitch": 69, "duration": 9, "velocity": 71}, {"time": 3113, "pitch": 69, "duration": 6, "velocity": 77}, {"time": 3119, "pitch": 69, "duration": 6, "velocity": 58}, {"time": 3125, "pitch": 69, "duration": 24, "velocity": 71}, {"time": 3149, "pitch": 73, "duration": 18, "velocity": 95}, {"time": 3167, "pitch": 71, "duration": 6, "velocity": 87}, {"time": 3173, "pitch": 69, "duration": 18, "velocity": 95}, {"time": 3191, "pitch": 66, "duration": 3, "velocity": 83}, {"time": 3194, "pitch": 69, "duration": 3, "velocity": 68}, {"time": 3197, "pitch": 71, "duration": 18, "velocity": 100}, {"time": 3215, "pitch": 71, "duration": 3, "velocity": 70}, {"time": 3218, "pitch": 71, "duration": 3, "velocity": 81}, {"time": 3221, "pitch": 73, "duration": 6, "velocity": 98}, {"time": 3227, "pitch": 71, "duration": 12, "velocity": 98}, {"time": 3239, "pitch": 71, "duration": 6, "velocity": 75}, {"time": 3245, "pitch": 69, "duration": 48, "velocity": 100}], "annotations": [{"time": 401, "annotation": {"number": 64, "value": 73}, "group": "control_change"}, {"time": 413, "annotation": {"number": 64, "value": 80}, "group": "control_change"}]}, {"program": 0, "is_drum": false, "name": "PIANO", "notes": [{"time": 29, "pitch": 45, "duration": 42, "velocity": 93}, {"time": 29, "pitch": 61, "duration": 11, "velocity": 85}, {"time": 29, "pitch": 64, "duration": 11, "velocity": 79}, {"time": 35, "pitch": 52, "duration": 36, "velocity": 60}, {"time": 41, "pitch": 61, "duration": 10, "velocity": 85}, {"time": 41, "pitch": 64, "duration": 10, "velocity": 93}, {"time": 47, "pitch": 57, "duration": 8, "velocity": 47}, {"time": 53, "pitch": 61, "duration": 11, "velocity": 71}, {"time": 53, "pitch": 64, "duration": 11, "velocity": 83}, {"time": 59, "pitch": 57, "duration": 5, "velocity": 53}, {"time": 65, "pitch": 61, "duration": 11, "velocity": 90}, {"time": 65, "pitch": 64, "duration": 11, "velocity": 93}, {"time": 77, "pitch": 37, "duration": 43, "velocity": 79}, {"time": 83, "pitch": 44, "duration": 37, "velocity": 65}, {"time": 89, "pitch": 52, "duration": 29, "velocity": 77}, {"time": 89, "pitch": 56, "duration": 23, "velocity": 73}, {"time": 95, "pitch": 49, "duration": 7, "velocity": 59}, {"time": 101, "pitch": 61, "duration": 8, "velocity": 76}, {"time": 107, "pitch": 49, "duration": 9, "velocity": 59}, {"time": 113, "pitch": 61, "duration": 7, "velocity": 60}, {"time": 116, "pitch": 49, "duration": 6, "velocity": 75}, {"time": 119, "pitch": 52, "duration": 5, "velocity": 67}, {"time": 122, "pitch": 57, "duration": 2, "velocity": 51}, {"time": 125, "pitch": 42, "duration": 42, "velocity": 74}, {"time": 128, "pitch": 49, "duration": 40, "velocity": 61}, {"time": 131, "pitch": 54, "duration": 7, "velocity": 59}, {"time": 134, "pitch": 57, "duration": 9, "velocity": 74}, {"time": 137, "pitch": 59, "duration": 6, "velocity": 72}, {"time": 140, "pitch": 54, "duration": 5, "velocity": 71}, {"time": 143, "pitch": 61, "duration": 5, "velocity": 73}, {"time": 146, "pitch": 54, "duration": 4, "velocity": 59}, {"time": 146, "pitch": 57, "duration": 1, "velocity": 51}, {"time": 149, "pitch": 57, "duration": 11, "velocity": 65}, {"time": 149, "pitch": 61, "duration": 11, "velocity": 76}, {"time": 155, "pitch": 54, "duration": 6, "velocity": 55}, {"time": 161, "pitch": 57, "duration": 7, "velocity": 72}, {"time": 161, "pitch": 61, "duration": 6, "velocity": 74}, {"time": 167, "pitch": 54, "duration": 6, "velocity": 51}, {"time": 173, "pitch": 47, "duration": 19, "velocity": 64}, {"time": 173, "pitch": 62, "duration": 12, "velocity": 70}, {"time": 173, "pitch": 66, "duration": 11, "velocity": 71}, {"time": 179, "pitch": 54, "duration": 18, "velocity": 60}, {"time": 185, "pitch": 62, "duration": 11, "velocity": 70}, {"time": 185, "pitch": 66, "duration": 11, "velocity": 74}, {"time": 191, "pitch": 59, "duration": 7, "velocity": 47}, {"time": 197, "pitch": 40, "duration": 19, "velocity": 66}, {"time": 197, "pitch": 56, "duration": 11, "velocity": 66}, {"time": 197, "pitch": 59, "duration": 1, "velocity": 68}, {"time": 203, "pitch": 47, "duration": 14, "velocity": 74}, {"time": 206, "pitch": 52, "duration": 6, "velocity": 73}, {"time": 209, "pitch": 56, "duration": 4, "velocity": 74}, {"time": 212, "pitch": 64, "duration": 6, "velocity": 75}, {"time": 215, "pitch": 52, "duration": 6, "velocity": 67}, {"time": 218, "pitch": 56, "duration": 3, "velocity": 63}, {"time": 221, "pitch": 45, "duration": 42, "velocity": 86}, {"time": 224, "pitch": 52, "duration": 38, "velocity": 61}, {"time": 227, "pitch": 57, "duration": 7, "velocity": 65}, {"time": 233, "pitch": 61, "duration": 10, "velocity": 66}, {"time": 236, "pitch": 57, "duration": 3, "velocity": 54}, {"time": 239, "pitch": 64, "duration": 5, "velocity": 58}, {"time": 245, "pitch": 61, "duration": 11, "velocity": 65}, {"time": 245, "pitch": 64, "duration": 11, "velocity": 79}, {"time": 251, "pitch": 57, "duration": 8, "velocity": 58}, {"time": 257, "pitch": 61, "duration": 7, "velocity": 74}, {"time": 257, "pitch": 64, "duration": 7, "velocity": 100}, {"time": 269, "pitch": 38, "duration": 47, "velocity": 74}, {"time": 269, "pitch": 45, "duration": 47, "velocity": 90}, {"time": 269, "pitch": 53, "duration": 10, "velocity": 67}, {"time": 269, "pitch": 57, "duration": 10, "velocity": 81}, {"time": 281, "pitch": 53, "duration": 10, "velocity": 79}, {"time": 281, "pitch": 57, "duration": 10, "velocity": 76}, {"time": 293, "pitch": 53, "duration": 11, "velocity": 87}, {"time": 293, "pitch": 57, "duration": 10, "velocity": 83}, {"time": 305, "pitch": 53, "duration": 10, "velocity": 93}, {"time": 305, "pitch": 57, "duration": 9, "velocity": 85}, {"time": 317, "pitch": 47, "duration": 37, "velocity": 63}, {"time": 317, "pitch": 54, "duration": 37, "velocity": 62}, {"time": 317, "pitch": 59, "duration": 10, "velocity": 76}, {"time": 317, "pitch": 63, "duration": 10, "velocity": 77}, {"time": 329, "pitch": 59, "duration": 11, "velocity": 83}, {"time": 329, "pitch": 63, "duration": 11, "velocity": 95}, {"time": 341, "pitch": 59, "duration": 10, "velocity": 74}, {"time": 341, "pitch": 63, "duration": 10, "velocity": 90}, {"time": 353, "pitch": 38, "duration": 2, "velocity": 86}, {"time": 353, "pitch": 54, "duration": 1, "velocity": 71}, {"time": 353, "pitch": 57, "duration": 1, "velocity": 73}, {"time": 356, "pitch": 38, "duration": 6, "velocity": 74}, {"time": 356, "pitch": 54, "duration": 6, "velocity": 81}, {"time": 356, "pitch": 57, "duration": 5, "velocity": 85}, {"time": 365, "pitch": 40, "duration": 47, "velocity": 79}, {"time": 365, "pitch": 56, "duration": 18, "velocity": 83}, {"time": 365, "pitch": 59, "duration": 19, "velocity": 74}, {"time": 371, "pitch": 47, "duration": 40, "velocity": 70}, {"time": 377, "pitch": 52, "duration": 13, "velocity": 58}, {"time": 383, "pitch": 56, "duration": 6, "velocity": 61}, {"time": 386, "pitch": 59, "duration": 3, "velocity": 63}, {"time": 389, "pitch": 64, "duration": 8, "velocity": 71}, {"time": 395, "pitch": 59, "duration": 4, "velocity": 70}, {"time": 398, "pitch": 61, "duration": 3, "velocity": 67}, {"time": 401, "pitch": 64, "duration": 3, "velocity": 93}, {"time": 404, "pitch": 61, "duration": 3, "velocity": 66}, {"time": 407, "pitch": 59, "duration": 5, "velocity": 87}, {"time": 413, "pitch": 45, "duration": 39, "velocity": 79}, {"time": 413, "pitch": 61, "duration": 11, "velocity": 66}, {"time": 413, "pitch": 64, "duration": 11, "velocity": 86}, {"time": 419, "pitch": 52, "duration": 33, "velocity": 66}, {"time": 425, "pitch": 61, "duration": 11, "velocity": 79}, {"time": 425, "pitch": 64, "duration": 11, "velocity": 85}, {"time": 431, "pitch": 57, "duration": 7, "velocity": 53}, {"time": 437, "pitch": 61, "duration": 11, "velocity": 59}, {"time": 437, "pitch": 64, "duration": 11, "velocity": 62}, {"time": 437, "pitch": 69, "duration": 10, "velocity": 74}, {"time": 443, "pitch": 57, "duration": 4, "velocity": 51}, {"time": 449, "pitch": 61, "duration": 7, "velocity": 63}, {"time": 449, "pitch": 64, "duration": 7, "velocity": 79}, {"time": 449, "pitch": 69, "duration": 6, "velocity": 70}, {"time": 461, "pitch": 37, "duration": 42, "velocity": 75}, {"time": 461, "pitch": 52, "duration": 11, "velocity": 76}, {"time": 461, "pitch": 56, "duration": 11, "velocity": 74}, {"time": 467, "pitch": 44, "duration": 36, "velocity": 74}, {"time": 473, "pitch": 52, "duration": 10, "velocity": 67}, {"time": 473, "pitch": 56, "duration": 10, "velocity": 77}, {"time": 473, "pitch": 61, "duration": 7, "velocity": 72}, {"time": 479, "pitch": 49, "duration": 7, "velocity": 53}, {"time": 485, "pitch": 52, "duration": 10, "velocity": 63}, {"time": 485, "pitch": 56, "duration": 11, "velocity": 75}, {"time": 485, "pitch": 61, "duration": 10, "velocity": 71}, {"time": 491, "pitch": 49, "duration": 6, "velocity": 55}, {"time": 497, "pitch": 52, "duration": 7, "velocity": 71}, {"time": 497, "pitch": 56, "duration": 6, "velocity": 83}, {"time": 497, "pitch": 61, "duration": 6, "velocity": 70}, {"time": 503, "pitch": 49, "duration": 5, "velocity": 60}, {"time": 509, "pitch": 42, "duration": 43, "velocity": 73}, {"time": 509, "pitch": 57, "duration": 11, "velocity": 61}, {"time": 509, "pitch": 61, "duration": 11, "velocity": 74}, {"time": 509, "pitch": 66, "duration": 11, "velocity": 71}, {"time": 515, "pitch": 49, "duration": 36, "velocity": 34}, {"time": 521, "pitch": 57, "duration": 11, "velocity": 66}, {"time": 521, "pitch": 61, "duration": 11, "velocity": 79}, {"time": 521, "pitch": 66, "duration": 10, "velocity": 71}, {"time": 527, "pitch": 54, "duration": 8, "velocity": 38}, {"time": 533, "pitch": 57, "duration": 11, "velocity": 62}, {"time": 533, "pitch": 61, "duration": 11, "velocity": 75}, {"time": 533, "pitch": 66, "duration": 11, "velocity": 69}, {"time": 539, "pitch": 54, "duration": 7, "velocity": 56}, {"time": 545, "pitch": 57, "duration": 8, "velocity": 64}, {"time": 545, "pitch": 61, "duration": 10, "velocity": 76}, {"time": 545, "pitch": 66, "duration": 3, "velocity": 65}, {"time": 554, "pitch": 57, "duration": 3, "velocity": 59}, {"time": 557, "pitch": 37, "duration": 42, "velocity": 76}, {"time": 560, "pitch": 44, "duration": 40, "velocity": 63}, {"time": 563, "pitch": 49, "duration": 8, "velocity": 60}, {"time": 566, "pitch": 52, "duration": 14, "velocity": 76}, {"time": 569, "pitch": 56, "duration": 11, "velocity": 73}, {"time": 572, "pitch": 61, "duration": 7, "velocity": 31}, {"time": 575, "pitch": 49, "duration": 20, "velocity": 52}, {"time": 581, "pitch": 52, "duration": 11, "velocity": 63}, {"time": 581, "pitch": 56, "duration": 11, "velocity": 69}, {"time": 581, "pitch": 61, "duration": 10, "velocity": 68}, {"time": 593, "pitch": 52, "duration": 7, "velocity": 79}, {"time": 593, "pitch": 56, "duration": 7, "velocity": 81}, {"time": 593, "pitch": 61, "duration": 6, "velocity": 74}, {"time": 599, "pitch": 49, "duration": 4, "velocity": 58}, {"time": 605, "pitch": 38, "duration": 45, "velocity": 73}, {"time": 605, "pitch": 54, "duration": 11, "velocity": 63}, {"time": 605, "pitch": 57, "duration": 11, "velocity": 74}, {"time": 605, "pitch": 62, "duration": 10, "velocity": 39}, {"time": 611, "pitch": 45, "duration": 38, "velocity": 49}, {"time": 617, "pitch": 54, "duration": 10, "velocity": 77}, {"time": 617, "pitch": 57, "duration": 10, "velocity": 79}, {"time": 617, "pitch": 62, "duration": 10, "velocity": 75}, {"time": 623, "pitch": 50, "duration": 10, "velocity": 52}, {"time": 629, "pitch": 54, "duration": 10, "velocity": 68}, {"time": 629, "pitch": 57, "duration": 11, "velocity": 72}, {"time": 629, "pitch": 62, "duration": 10, "velocity": 68}, {"time": 635, "pitch": 50, "duration": 7, "velocity": 56}, {"time": 641, "pitch": 54, "duration": 9, "velocity": 76}, {"time": 641, "pitch": 57, "duration": 9, "velocity": 74}, {"time": 641, "pitch": 62, "duration": 8, "velocity": 73}, {"time": 653, "pitch": 45, "duration": 8, "velocity": 74}, {"time": 653, "pitch": 61, "duration": 6, "velocity": 74}, {"time": 653, "pitch": 64, "duration": 11, "velocity": 76}, {"time": 665, "pitch": 44, "duration": 7, "velocity": 74}, {"time": 665, "pitch": 59, "duration": 9, "velocity": 71}, {"time": 665, "pitch": 64, "duration": 8, "velocity": 85}, {"time": 677, "pitch": 42, "duration": 20, "velocity": 74}, {"time": 677, "pitch": 57, "duration": 13, "velocity": 59}, {"time": 677, "pitch": 61, "duration": 13, "velocity": 72}, {"time": 683, "pitch": 49, "duration": 14, "velocity": 58}, {"time": 689, "pitch": 54, "duration": 8, "velocity": 60}, {"time": 692, "pitch": 57, "duration": 4, "velocity": 69}, {"time": 695, "pitch": 61, "duration": 3, "velocity": 75}, {"time": 701, "pitch": 47, "duration": 43, "velocity": 70}, {"time": 707, "pitch": 54, "duration": 37, "velocity": 67}, {"time": 713, "pitch": 62, "duration": 10, "velocity": 67}, {"time": 713, "pitch": 66, "duration": 10, "velocity": 66}, {"time": 713, "pitch": 71, "duration": 10, "velocity": 68}, {"time": 719, "pitch": 59, "duration": 19, "velocity": 49}, {"time": 725, "pitch": 62, "duration": 11, "velocity": 73}, {"time": 725, "pitch": 66, "duration": 11, "velocity": 74}, {"time": 737, "pitch": 62, "duration": 6, "velocity": 87}, {"time": 737, "pitch": 66, "duration": 6, "velocity": 79}, {"time": 737, "pitch": 71, "duration": 6, "velocity": 73}, {"time": 749, "pitch": 40, "duration": 43, "velocity": 67}, {"time": 749, "pitch": 56, "duration": 11, "velocity": 72}, {"time": 749, "pitch": 59, "duration": 11, "velocity": 69}, {"time": 749, "pitch": 64, "duration": 11, "velocity": 73}, {"time": 755, "pitch": 47, "duration": 38, "velocity": 67}, {"time": 761, "pitch": 56, "duration": 10, "velocity": 70}, {"time": 761, "pitch": 59, "duration": 10, "velocity": 72}, {"time": 761, "pitch": 64, "duration": 7, "velocity": 75}, {"time": 767, "pitch": 52, "duration": 6, "velocity": 58}, {"time": 776, "pitch": 52, "duration": 11, "velocity": 79}, {"time": 779, "pitch": 56, "duration": 7, "velocity": 75}, {"time": 782, "pitch": 59, "duration": 4, "velocity": 65}, {"time": 785, "pitch": 64, "duration": 8, "velocity": 81}, {"time": 788, "pitch": 59, "duration": 5, "velocity": 62}, {"time": 791, "pitch": 52, "duration": 6, "velocity": 72}, {"time": 794, "pitch": 56, "duration": 3, "velocity": 76}, {"time": 797, "pitch": 45, "duration": 40, "velocity": 83}, {"time": 800, "pitch": 52, "duration": 36, "velocity": 59}, {"time": 803, "pitch": 57, "duration": 10, "velocity": 58}, {"time": 809, "pitch": 61, "duration": 11, "velocity": 79}, {"time": 809, "pitch": 64, "duration": 11, "velocity": 73}, {"time": 809, "pitch": 69, "duration": 11, "velocity": 63}, {"time": 815, "pitch": 57, "duration": 7, "velocity": 57}, {"time": 821, "pitch": 61, "duration": 11, "velocity": 62}, {"time": 821, "pitch": 64, "duration": 11, "velocity": 71}, {"time": 821, "pitch": 69, "duration": 11, "velocity": 65}, {"time": 827, "pitch": 57, "duration": 7, "velocity": 54}, {"time": 833, "pitch": 61, "duration": 8, "velocity": 83}, {"time": 833, "pitch": 64, "duration": 8, "velocity": 85}, {"time": 833, "pitch": 69, "duration": 7, "velocity": 74}, {"time": 845, "pitch": 37, "duration": 42, "velocity": 73}, {"time": 845, "pitch": 52, "duration": 10, "velocity": 65}, {"time": 845, "pitch": 56, "duration": 10, "velocity": 55}, {"time": 845, "pitch": 61, "duration": 10, "velocity": 43}, {"time": 851, "pitch": 44, "duration": 37, "velocity": 60}, {"time": 857, "pitch": 52, "duration": 10, "velocity": 63}, {"time": 857, "pitch": 56, "duration": 10, "velocity": 74}, {"time": 857, "pitch": 61, "duration": 7, "velocity": 72}, {"time": 863, "pitch": 49, "duration": 7, "velocity": 51}, {"time": 869, "pitch": 52, "duration": 10, "velocity": 63}, {"time": 869, "pitch": 56, "duration": 11, "velocity": 74}, {"time": 869, "pitch": 61, "duration": 8, "velocity": 69}, {"time": 875, "pitch": 49, "duration": 6, "velocity": 50}, {"time": 881, "pitch": 52, "duration": 7, "velocity": 83}, {"time": 881, "pitch": 56, "duration": 7, "velocity": 83}, {"time": 881, "pitch": 61, "duration": 7, "velocity": 74}, {"time": 887, "pitch": 49, "duration": 6, "velocity": 59}, {"time": 893, "pitch": 42, "duration": 44, "velocity": 61}, {"time": 893, "pitch": 57, "duration": 10, "velocity": 58}, {"time": 893, "pitch": 61, "duration": 10, "velocity": 59}, {"time": 893, "pitch": 66, "duration": 7, "velocity": 60}, {"time": 899, "pitch": 49, "duration": 38, "velocity": 63}, {"time": 905, "pitch": 57, "duration": 11, "velocity": 71}, {"time": 905, "pitch": 61, "duration": 11, "velocity": 83}, {"time": 905, "pitch": 66, "duration": 8, "velocity": 70}, {"time": 911, "pitch": 54, "duration": 7, "velocity": 58}, {"time": 917, "pitch": 57, "duration": 11, "velocity": 72}, {"time": 917, "pitch": 61, "duration": 11, "velocity": 81}, {"time": 917, "pitch": 66, "duration": 10, "velocity": 74}, {"time": 923, "pitch": 54, "duration": 7, "velocity": 58}, {"time": 929, "pitch": 57, "duration": 6, "velocity": 74}, {"time": 929, "pitch": 61, "duration": 6, "velocity": 85}, {"time": 929, "pitch": 66, "duration": 6, "velocity": 77}, {"time": 941, "pitch": 37, "duration": 43, "velocity": 67}, {"time": 941, "pitch": 52, "duration": 11, "velocity": 71}, {"time": 941, "pitch": 56, "duration": 11, "velocity": 14}, {"time": 941, "pitch": 61, "duration": 7, "velocity": 52}, {"time": 947, "pitch": 44, "duration": 42, "velocity": 73}, {"time": 953, "pitch": 52, "duration": 16, "velocity": 65}, {"time": 953, "pitch": 56, "duration": 16, "velocity": 73}, {"time": 953, "pitch": 61, "duration": 6, "velocity": 64}, {"time": 959, "pitch": 49, "duration": 6, "velocity": 59}, {"time": 968, "pitch": 49, "duration": 10, "velocity": 64}, {"time": 971, "pitch": 52, "duration": 6, "velocity": 70}, {"time": 974, "pitch": 56, "duration": 4, "velocity": 71}, {"time": 977, "pitch": 61, "duration": 7, "velocity": 83}, {"time": 980, "pitch": 49, "duration": 7, "velocity": 63}, {"time": 983, "pitch": 52, "duration": 6, "velocity": 75}, {"time": 986, "pitch": 56, "duration": 4, "velocity": 71}, {"time": 989, "pitch": 38, "duration": 42, "velocity": 79}, {"time": 992, "pitch": 45, "duration": 39, "velocity": 61}, {"time": 995, "pitch": 50, "duration": 7, "velocity": 59}, {"time": 1001, "pitch": 54, "duration": 10, "velocity": 61}, {"time": 1001, "pitch": 57, "duration": 10, "velocity": 74}, {"time": 1001, "pitch": 62, "duration": 10, "velocity": 60}, {"time": 1007, "pitch": 50, "duration": 7, "velocity": 56}, {"time": 1013, "pitch": 54, "duration": 11, "velocity": 63}, {"time": 1013, "pitch": 57, "duration": 11, "velocity": 72}, {"time": 1013, "pitch": 62, "duration": 10, "velocity": 69}, {"time": 1019, "pitch": 50, "duration": 14, "velocity": 58}, {"time": 1025, "pitch": 54, "duration": 9, "velocity": 72}, {"time": 1028, "pitch": 57, "duration": 5, "velocity": 61}, {"time": 1031, "pitch": 62, "duration": 3, "velocity": 74}, {"time": 1037, "pitch": 45, "duration": 9, "velocity": 85}, {"time": 1037, "pitch": 61, "duration": 6, "velocity": 72}, {"time": 1037, "pitch": 64, "duration": 11, "velocity": 76}, {"time": 1049, "pitch": 44, "duration": 6, "velocity": 83}, {"time": 1049, "pitch": 59, "duration": 6, "velocity": 74}, {"time": 1049, "pitch": 64, "duration": 6, "velocity": 81}, {"time": 1061, "pitch": 42, "duration": 18, "velocity": 68}, {"time": 1061, "pitch": 57, "duration": 12, "velocity": 70}, {"time": 1061, "pitch": 61, "duration": 12, "velocity": 74}, {"time": 1067, "pitch": 49, "duration": 12, "velocity": 47}, {"time": 1073, "pitch": 57, "duration": 6, "velocity": 67}, {"time": 1073, "pitch": 61, "duration": 6, "velocity": 74}, {"time": 1073, "pitch": 66, "duration": 6, "velocity": 74}, {"time": 1079, "pitch": 54, "duration": 6, "velocity": 62}, {"time": 1085, "pitch": 47, "duration": 24, "velocity": 79}, {"time": 1085, "pitch": 62, "duration": 11, "velocity": 73}, {"time": 1085, "pitch": 66, "duration": 11, "velocity": 67}, {"time": 1085, "pitch": 71, "duration": 6, "velocity": 66}, {"time": 1091, "pitch": 54, "duration": 18, "velocity": 55}, {"time": 1097, "pitch": 62, "duration": 11, "velocity": 79}, {"time": 1097, "pitch": 66, "duration": 11, "velocity": 77}, {"time": 1103, "pitch": 59, "duration": 7, "velocity": 48}, {"time": 1109, "pitch": 40, "duration": 18, "velocity": 71}, {"time": 1109, "pitch": 56, "duration": 10, "velocity": 65}, {"time": 1109, "pitch": 59, "duration": 1, "velocity": 76}, {"time": 1109, "pitch": 64, "duration": 10, "velocity": 74}, {"time": 1115, "pitch": 47, "duration": 13, "velocity": 70}, {"time": 1121, "pitch": 56, "duration": 7, "velocity": 77}, {"time": 1121, "pitch": 59, "duration": 6, "velocity": 86}, {"time": 1121, "pitch": 64, "duration": 6, "velocity": 85}, {"time": 1127, "pitch": 52, "duration": 5, "velocity": 63}, {"time": 1133, "pitch": 45, "duration": 45, "velocity": 87}, {"time": 1133, "pitch": 61, "duration": 11, "velocity": 72}, {"time": 1133, "pitch": 64, "duration": 11, "velocity": 81}, {"time": 1139, "pitch": 52, "duration": 42, "velocity": 63}, {"time": 1145, "pitch": 61, "duration": 10, "velocity": 68}, {"time": 1145, "pitch": 64, "duration": 10, "velocity": 81}, {"time": 1151, "pitch": 57, "duration": 7, "velocity": 57}, {"time": 1157, "pitch": 61, "duration": 6, "velocity": 74}, {"time": 1157, "pitch": 64, "duration": 6, "velocity": 77}, {"time": 1163, "pitch": 57, "duration": 7, "velocity": 63}, {"time": 1169, "pitch": 64, "duration": 9, "velocity": 79}, {"time": 1172, "pitch": 57, "duration": 4, "velocity": 79}, {"time": 1175, "pitch": 76, "duration": 4, "velocity": 112}, {"time": 1181, "pitch": 42, "duration": 21, "velocity": 62}, {"time": 1181, "pitch": 57, "duration": 11, "velocity": 73}, {"time": 1181, "pitch": 61, "duration": 11, "velocity": 76}, {"time": 1181, "pitch": 69, "duration": 10, "velocity": 93}, {"time": 1187, "pitch": 49, "duration": 14, "velocity": 66}, {"time": 1193, "pitch": 57, "duration": 7, "velocity": 76}, {"time": 1193, "pitch": 61, "duration": 7, "velocity": 85}, {"time": 1199, "pitch": 54, "duration": 2, "velocity": 57}, {"time": 1202, "pitch": 57, "duration": 4, "velocity": 58}, {"time": 1202, "pitch": 61, "duration": 3, "velocity": 64}, {"time": 1205, "pitch": 37, "duration": 20, "velocity": 79}, {"time": 1208, "pitch": 44, "duration": 21, "velocity": 58}, {"time": 1211, "pitch": 49, "duration": 6, "velocity": 59}, {"time": 1217, "pitch": 52, "duration": 11, "velocity": 75}, {"time": 1217, "pitch": 56, "duration": 8, "velocity": 76}, {"time": 1223, "pitch": 49, "duration": 6, "velocity": 52}, {"time": 1229, "pitch": 45, "duration": 21, "velocity": 86}, {"time": 1229, "pitch": 61, "duration": 11, "velocity": 85}, {"time": 1229, "pitch": 64, "duration": 11, "velocity": 87}, {"time": 1235, "pitch": 52, "duration": 14, "velocity": 70}, {"time": 1241, "pitch": 61, "duration": 11, "velocity": 85}, {"time": 1241, "pitch": 64, "duration": 10, "velocity": 95}, {"time": 1247, "pitch": 57, "duration": 2, "velocity": 58}, {"time": 1253, "pitch": 37, "duration": 18, "velocity": 81}, {"time": 1259, "pitch": 44, "duration": 13, "velocity": 77}, {"time": 1265, "pitch": 52, "duration": 7, "velocity": 70}, {"time": 1265, "pitch": 56, "duration": 7, "velocity": 73}, {"time": 1271, "pitch": 49, "duration": 5, "velocity": 54}, {"time": 1277, "pitch": 42, "duration": 19, "velocity": 58}, {"time": 1283, "pitch": 49, "duration": 13, "velocity": 67}, {"time": 1289, "pitch": 57, "duration": 7, "velocity": 75}, {"time": 1289, "pitch": 61, "duration": 7, "velocity": 86}, {"time": 1295, "pitch": 54, "duration": 2, "velocity": 61}, {"time": 1298, "pitch": 37, "duration": 20, "velocity": 58}, {"time": 1301, "pitch": 52, "duration": 11, "velocity": 74}, {"time": 1301, "pitch": 56, "duration": 11, "velocity": 67}, {"time": 1307, "pitch": 44, "duration": 17, "velocity": 60}, {"time": 1313, "pitch": 52, "duration": 8, "velocity": 87}, {"time": 1313, "pitch": 56, "duration": 7, "velocity": 83}, {"time": 1319, "pitch": 49, "duration": 6, "velocity": 58}, {"time": 1325, "pitch": 35, "duration": 16, "velocity": 70}, {"time": 1325, "pitch": 50, "duration": 11, "velocity": 75}, {"time": 1325, "pitch": 54, "duration": 11, "velocity": 72}, {"time": 1331, "pitch": 42, "duration": 11, "velocity": 62}, {"time": 1337, "pitch": 50, "duration": 5, "velocity": 63}, {"time": 1337, "pitch": 54, "duration": 5, "velocity": 69}, {"time": 1337, "pitch": 59, "duration": 5, "velocity": 64}, {"time": 1349, "pitch": 38, "duration": 19, "velocity": 74}, {"time": 1349, "pitch": 54, "duration": 11, "velocity": 74}, {"time": 1349, "pitch": 57, "duration": 11, "velocity": 76}, {"time": 1355, "pitch": 45, "duration": 17, "velocity": 49}, {"time": 1361, "pitch": 54, "duration": 7, "velocity": 83}, {"time": 1361, "pitch": 57, "duration": 7, "velocity": 83}, {"time": 1367, "pitch": 50, "duration": 6, "velocity": 59}, {"time": 1373, "pitch": 40, "duration": 43, "velocity": 81}, {"time": 1373, "pitch": 56, "duration": 23, "velocity": 85}, {"time": 1373, "pitch": 59, "duration": 23, "velocity": 86}, {"time": 1379, "pitch": 47, "duration": 37, "velocity": 71}, {"time": 1385, "pitch": 64, "duration": 11, "velocity": 76}, {"time": 1391, "pitch": 52, "duration": 6, "velocity": 58}, {"time": 1400, "pitch": 52, "duration": 5, "velocity": 65}, {"time": 1403, "pitch": 56, "duration": 8, "velocity": 67}, {"time": 1406, "pitch": 59, "duration": 9, "velocity": 62}, {"time": 1409, "pitch": 52, "duration": 8, "velocity": 76}, {"time": 1412, "pitch": 64, "duration": 3, "velocity": 70}, {"time": 1415, "pitch": 56, "duration": 4, "velocity": 83}, {"time": 1418, "pitch": 59, "duration": 2, "velocity": 67}, {"time": 1421, "pitch": 42, "duration": 16, "velocity": 68}, {"time": 1421, "pitch": 57, "duration": 11, "velocity": 74}, {"time": 1421, "pitch": 61, "duration": 11, "velocity": 75}, {"time": 1427, "pitch": 49, "duration": 8, "velocity": 58}, {"time": 1433, "pitch": 57, "duration": 5, "velocity": 76}, {"time": 1433, "pitch": 61, "duration": 5, "velocity": 93}, {"time": 1433, "pitch": 66, "duration": 5, "velocity": 76}, {"time": 1445, "pitch": 37, "duration": 19, "velocity": 69}, {"time": 1445, "pitch": 52, "duration": 11, "velocity": 63}, {"time": 1445, "pitch": 56, "duration": 11, "velocity": 59}, {"time": 1445, "pitch": 61, "duration": 11, "velocity": 67}, {"time": 1451, "pitch": 44, "duration": 10, "velocity": 48}, {"time": 1457, "pitch": 52, "duration": 7, "velocity": 70}, {"time": 1457, "pitch": 56, "duration": 7, "velocity": 81}, {"time": 1457, "pitch": 61, "duration": 6, "velocity": 81}, {"time": 1469, "pitch": 45, "duration": 17, "velocity": 76}, {"time": 1469, "pitch": 61, "duration": 11, "velocity": 74}, {"time": 1469, "pitch": 64, "duration": 11, "velocity": 77}, {"time": 1475, "pitch": 52, "duration": 10, "velocity": 71}, {"time": 1481, "pitch": 61, "duration": 12, "velocity": 85}, {"time": 1481, "pitch": 64, "duration": 6, "velocity": 85}, {"time": 1487, "pitch": 64, "duration": 1, "velocity": 45}, {"time": 1493, "pitch": 37, "duration": 18, "velocity": 76}, {"time": 1496, "pitch": 44, "duration": 16, "velocity": 70}, {"time": 1499, "pitch": 49, "duration": 7, "velocity": 64}, {"time": 1502, "pitch": 52, "duration": 7, "velocity": 86}, {"time": 1505, "pitch": 56, "duration": 5, "velocity": 76}, {"time": 1511, "pitch": 49, "duration": 6, "velocity": 59}, {"time": 1511, "pitch": 52, "duration": 2, "velocity": 68}, {"time": 1511, "pitch": 56, "duration": 1, "velocity": 68}, {"time": 1517, "pitch": 42, "duration": 20, "velocity": 73}, {"time": 1517, "pitch": 57, "duration": 11, "velocity": 85}, {"time": 1517, "pitch": 61, "duration": 11, "velocity": 86}, {"time": 1523, "pitch": 49, "duration": 13, "velocity": 55}, {"time": 1529, "pitch": 57, "duration": 7, "velocity": 83}, {"time": 1529, "pitch": 61, "duration": 6, "velocity": 93}, {"time": 1532, "pitch": 54, "duration": 2, "velocity": 59}, {"time": 1541, "pitch": 37, "duration": 19, "velocity": 59}, {"time": 1541, "pitch": 52, "duration": 11, "velocity": 83}, {"time": 1541, "pitch": 56, "duration": 11, "velocity": 79}, {"time": 1547, "pitch": 44, "duration": 12, "velocity": 60}, {"time": 1553, "pitch": 52, "duration": 6, "velocity": 79}, {"time": 1553, "pitch": 56, "duration": 6, "velocity": 85}, {"time": 1565, "pitch": 35, "duration": 21, "velocity": 79}, {"time": 1565, "pitch": 50, "duration": 11, "velocity": 74}, {"time": 1565, "pitch": 54, "duration": 11, "velocity": 73}, {"time": 1571, "pitch": 42, "duration": 15, "velocity": 60}, {"time": 1577, "pitch": 50, "duration": 7, "velocity": 75}, {"time": 1577, "pitch": 54, "duration": 7, "velocity": 74}, {"time": 1583, "pitch": 47, "duration": 2, "velocity": 13}, {"time": 1586, "pitch": 38, "duration": 19, "velocity": 65}, {"time": 1586, "pitch": 54, "duration": 11, "velocity": 73}, {"time": 1589, "pitch": 57, "duration": 11, "velocity": 70}, {"time": 1595, "pitch": 45, "duration": 17, "velocity": 74}, {"time": 1601, "pitch": 54, "duration": 7, "velocity": 76}, {"time": 1601, "pitch": 57, "duration": 7, "velocity": 76}, {"time": 1607, "pitch": 50, "duration": 5, "velocity": 58}, {"time": 1613, "pitch": 40, "duration": 44, "velocity": 79}, {"time": 1613, "pitch": 56, "duration": 12, "velocity": 85}, {"time": 1613, "pitch": 59, "duration": 12, "velocity": 83}, {"time": 1619, "pitch": 47, "duration": 40, "velocity": 71}, {"time": 1625, "pitch": 52, "duration": 7, "velocity": 64}, {"time": 1631, "pitch": 56, "duration": 28, "velocity": 63}, {"time": 1631, "pitch": 59, "duration": 27, "velocity": 59}, {"time": 1634, "pitch": 52, "duration": 19, "velocity": 59}, {"time": 1637, "pitch": 64, "duration": 11, "velocity": 65}, {"time": 1646, "pitch": 64, "duration": 2, "velocity": 69}, {"time": 1661, "pitch": 45, "duration": 40, "velocity": 75}, {"time": 1661, "pitch": 61, "duration": 11, "velocity": 70}, {"time": 1661, "pitch": 64, "duration": 11, "velocity": 76}, {"time": 1667, "pitch": 52, "duration": 33, "velocity": 58}, {"time": 1673, "pitch": 61, "duration": 10, "velocity": 72}, {"time": 1673, "pitch": 64, "duration": 10, "velocity": 77}, {"time": 1679, "pitch": 57, "duration": 9, "velocity": 33}, {"time": 1682, "pitch": 61, "duration": 1, "velocity": 68}, {"time": 1682, "pitch": 64, "duration": 1, "velocity": 75}, {"time": 1691, "pitch": 57, "duration": 6, "velocity": 46}, {"time": 1697, "pitch": 61, "duration": 6, "velocity": 83}, {"time": 1697, "pitch": 64, "duration": 6, "velocity": 83}, {"time": 1709, "pitch": 37, "duration": 39, "velocity": 52}, {"time": 1709, "pitch": 52, "duration": 8, "velocity": 67}, {"time": 1709, "pitch": 56, "duration": 8, "velocity": 74}, {"time": 1715, "pitch": 44, "duration": 37, "velocity": 59}, {"time": 1721, "pitch": 52, "duration": 10, "velocity": 60}, {"time": 1721, "pitch": 56, "duration": 11, "velocity": 65}, {"time": 1727, "pitch": 49, "duration": 7, "velocity": 48}, {"time": 1733, "pitch": 52, "duration": 10, "velocity": 53}, {"time": 1733, "pitch": 56, "duration": 11, "velocity": 69}, {"time": 1733, "pitch": 61, "duration": 6, "velocity": 74}, {"time": 1739, "pitch": 49, "duration": 6, "velocity": 48}, {"time": 1745, "pitch": 52, "duration": 6, "velocity": 64}, {"time": 1745, "pitch": 56, "duration": 7, "velocity": 76}, {"time": 1745, "pitch": 61, "duration": 6, "velocity": 75}, {"time": 1751, "pitch": 49, "duration": 3, "velocity": 54}, {"time": 1757, "pitch": 42, "duration": 42, "velocity": 67}, {"time": 1757, "pitch": 57, "duration": 11, "velocity": 68}, {"time": 1757, "pitch": 61, "duration": 11, "velocity": 79}, {"time": 1763, "pitch": 49, "duration": 34, "velocity": 62}, {"time": 1769, "pitch": 57, "duration": 11, "velocity": 61}, {"time": 1769, "pitch": 61, "duration": 11, "velocity": 74}, {"time": 1769, "pitch": 66, "duration": 10, "velocity": 66}, {"time": 1775, "pitch": 54, "duration": 7, "velocity": 40}, {"time": 1781, "pitch": 57, "duration": 11, "velocity": 61}, {"time": 1781, "pitch": 61, "duration": 11, "velocity": 77}, {"time": 1781, "pitch": 66, "duration": 11, "velocity": 74}, {"time": 1787, "pitch": 54, "duration": 6, "velocity": 52}, {"time": 1793, "pitch": 57, "duration": 5, "velocity": 67}, {"time": 1793, "pitch": 61, "duration": 7, "velocity": 81}, {"time": 1793, "pitch": 66, "duration": 7, "velocity": 75}, {"time": 1799, "pitch": 57, "duration": 6, "velocity": 69}, {"time": 1805, "pitch": 37, "duration": 41, "velocity": 63}, {"time": 1811, "pitch": 44, "duration": 42, "velocity": 67}, {"time": 1817, "pitch": 52, "duration": 11, "velocity": 67}, {"time": 1817, "pitch": 56, "duration": 11, "velocity": 61}, {"time": 1817, "pitch": 61, "duration": 11, "velocity": 72}, {"time": 1823, "pitch": 49, "duration": 9, "velocity": 49}, {"time": 1829, "pitch": 52, "duration": 11, "velocity": 63}, {"time": 1829, "pitch": 56, "duration": 11, "velocity": 63}, {"time": 1829, "pitch": 61, "duration": 11, "velocity": 67}, {"time": 1835, "pitch": 49, "duration": 8, "velocity": 46}, {"time": 1841, "pitch": 52, "duration": 7, "velocity": 85}, {"time": 1841, "pitch": 56, "duration": 7, "velocity": 90}, {"time": 1841, "pitch": 61, "duration": 7, "velocity": 87}, {"time": 1847, "pitch": 49, "duration": 6, "velocity": 58}, {"time": 1853, "pitch": 38, "duration": 43, "velocity": 76}, {"time": 1853, "pitch": 54, "duration": 10, "velocity": 67}, {"time": 1853, "pitch": 57, "duration": 10, "velocity": 74}, {"time": 1853, "pitch": 62, "duration": 7, "velocity": 77}, {"time": 1859, "pitch": 45, "duration": 37, "velocity": 59}, {"time": 1865, "pitch": 54, "duration": 26, "velocity": 65}, {"time": 1865, "pitch": 57, "duration": 26, "velocity": 72}, {"time": 1871, "pitch": 50, "duration": 6, "velocity": 58}, {"time": 1877, "pitch": 64, "duration": 10, "velocity": 76}, {"time": 1883, "pitch": 50, "duration": 8, "velocity": 58}, {"time": 1889, "pitch": 62, "duration": 11, "velocity": 83}, {"time": 1895, "pitch": 54, "duration": 6, "velocity": 59}, {"time": 1901, "pitch": 45, "duration": 10, "velocity": 86}, {"time": 1901, "pitch": 61, "duration": 9, "velocity": 77}, {"time": 1901, "pitch": 64, "duration": 11, "velocity": 76}, {"time": 1913, "pitch": 44, "duration": 7, "velocity": 83}, {"time": 1913, "pitch": 59, "duration": 7, "velocity": 76}, {"time": 1913, "pitch": 64, "duration": 7, "velocity": 75}, {"time": 1925, "pitch": 42, "duration": 19, "velocity": 74}, {"time": 1925, "pitch": 57, "duration": 11, "velocity": 69}, {"time": 1925, "pitch": 61, "duration": 11, "velocity": 76}, {"time": 1931, "pitch": 49, "duration": 13, "velocity": 62}, {"time": 1937, "pitch": 57, "duration": 7, "velocity": 65}, {"time": 1937, "pitch": 61, "duration": 7, "velocity": 85}, {"time": 1937, "pitch": 66, "duration": 7, "velocity": 72}, {"time": 1943, "pitch": 54, "duration": 6, "velocity": 54}, {"time": 1949, "pitch": 47, "duration": 24, "velocity": 63}, {"time": 1949, "pitch": 62, "duration": 11, "velocity": 83}, {"time": 1949, "pitch": 66, "duration": 11, "velocity": 76}, {"time": 1955, "pitch": 54, "duration": 18, "velocity": 58}, {"time": 1961, "pitch": 62, "duration": 10, "velocity": 66}, {"time": 1961, "pitch": 66, "duration": 11, "velocity": 70}, {"time": 1967, "pitch": 59, "duration": 7, "velocity": 46}, {"time": 1973, "pitch": 40, "duration": 19, "velocity": 71}, {"time": 1973, "pitch": 56, "duration": 11, "velocity": 72}, {"time": 1973, "pitch": 59, "duration": 1, "velocity": 76}, {"time": 1979, "pitch": 47, "duration": 13, "velocity": 60}, {"time": 1985, "pitch": 56, "duration": 7, "velocity": 85}, {"time": 1985, "pitch": 59, "duration": 7, "velocity": 79}, {"time": 1991, "pitch": 52, "duration": 6, "velocity": 60}, {"time": 1997, "pitch": 45, "duration": 34, "velocity": 81}, {"time": 1997, "pitch": 61, "duration": 11, "velocity": 81}, {"time": 1997, "pitch": 64, "duration": 11, "velocity": 74}, {"time": 2003, "pitch": 52, "duration": 25, "velocity": 63}, {"time": 2009, "pitch": 61, "duration": 10, "velocity": 79}, {"time": 2009, "pitch": 64, "duration": 10, "velocity": 81}, {"time": 2015, "pitch": 57, "duration": 10, "velocity": 51}, {"time": 2021, "pitch": 61, "duration": 9, "velocity": 83}, {"time": 2021, "pitch": 64, "duration": 7, "velocity": 87}, {"time": 2033, "pitch": 45, "duration": 10, "velocity": 74}, {"time": 2033, "pitch": 61, "duration": 9, "velocity": 66}, {"time": 2033, "pitch": 64, "duration": 9, "velocity": 67}, {"time": 2033, "pitch": 67, "duration": 9, "velocity": 63}, {"time": 2045, "pitch": 38, "duration": 14, "velocity": 75}, {"time": 2045, "pitch": 54, "duration": 14, "velocity": 62}, {"time": 2045, "pitch": 57, "duration": 13, "velocity": 73}, {"time": 2051, "pitch": 45, "duration": 7, "velocity": 61}, {"time": 2057, "pitch": 50, "duration": 2, "velocity": 60}, {"time": 2063, "pitch": 38, "duration": 31, "velocity": 62}, {"time": 2063, "pitch": 54, "duration": 18, "velocity": 63}, {"time": 2063, "pitch": 57, "duration": 18, "velocity": 68}, {"time": 2072, "pitch": 45, "duration": 21, "velocity": 11}, {"time": 2078, "pitch": 50, "duration": 5, "velocity": 44}, {"time": 2081, "pitch": 54, "duration": 12, "velocity": 76}, {"time": 2081, "pitch": 57, "duration": 11, "velocity": 77}, {"time": 2087, "pitch": 50, "duration": 5, "velocity": 58}, {"time": 2093, "pitch": 38, "duration": 1, "velocity": 58}, {"time": 2093, "pitch": 45, "duration": 44, "velocity": 67}, {"time": 2093, "pitch": 50, "duration": 44, "velocity": 55}, {"time": 2093, "pitch": 53, "duration": 10, "velocity": 62}, {"time": 2093, "pitch": 57, "duration": 9, "velocity": 63}, {"time": 2105, "pitch": 53, "duration": 10, "velocity": 66}, {"time": 2105, "pitch": 57, "duration": 7, "velocity": 72}, {"time": 2117, "pitch": 41, "duration": 20, "velocity": 35}, {"time": 2117, "pitch": 53, "duration": 10, "velocity": 63}, {"time": 2120, "pitch": 57, "duration": 9, "velocity": 13}, {"time": 2129, "pitch": 53, "duration": 8, "velocity": 63}, {"time": 2129, "pitch": 57, "duration": 8, "velocity": 70}, {"time": 2141, "pitch": 45, "duration": 14, "velocity": 49}, {"time": 2141, "pitch": 52, "duration": 14, "velocity": 60}, {"time": 2141, "pitch": 57, "duration": 14, "velocity": 47}, {"time": 2141, "pitch": 61, "duration": 11, "velocity": 62}, {"time": 2141, "pitch": 68, "duration": 11, "velocity": 73}, {"time": 2159, "pitch": 45, "duration": 6, "velocity": 52}, {"time": 2159, "pitch": 52, "duration": 6, "velocity": 64}, {"time": 2159, "pitch": 57, "duration": 6, "velocity": 53}, {"time": 2159, "pitch": 61, "duration": 6, "velocity": 61}, {"time": 2159, "pitch": 68, "duration": 6, "velocity": 72}, {"time": 2165, "pitch": 42, "duration": 24, "velocity": 72}, {"time": 2165, "pitch": 57, "duration": 11, "velocity": 64}, {"time": 2165, "pitch": 61, "duration": 12, "velocity": 74}, {"time": 2171, "pitch": 49, "duration": 18, "velocity": 61}, {"time": 2177, "pitch": 57, "duration": 11, "velocity": 63}, {"time": 2177, "pitch": 61, "duration": 11, "velocity": 66}, {"time": 2177, "pitch": 66, "duration": 11, "velocity": 65}, {"time": 2183, "pitch": 54, "duration": 6, "velocity": 36}, {"time": 2189, "pitch": 47, "duration": 17, "velocity": 74}, {"time": 2189, "pitch": 62, "duration": 10, "velocity": 71}, {"time": 2189, "pitch": 66, "duration": 11, "velocity": 75}, {"time": 2195, "pitch": 54, "duration": 9, "velocity": 61}, {"time": 2201, "pitch": 62, "duration": 8, "velocity": 81}, {"time": 2201, "pitch": 66, "duration": 8, "velocity": 75}, {"time": 2213, "pitch": 40, "duration": 23, "velocity": 76}, {"time": 2213, "pitch": 56, "duration": 11, "velocity": 66}, {"time": 2213, "pitch": 59, "duration": 11, "velocity": 72}, {"time": 2219, "pitch": 47, "duration": 17, "velocity": 67}, {"time": 2225, "pitch": 56, "duration": 11, "velocity": 77}, {"time": 2225, "pitch": 59, "duration": 10, "velocity": 86}, {"time": 2231, "pitch": 52, "duration": 5, "velocity": 53}, {"time": 2237, "pitch": 45, "duration": 13, "velocity": 49}, {"time": 2237, "pitch": 52, "duration": 13, "velocity": 60}, {"time": 2237, "pitch": 57, "duration": 13, "velocity": 50}, {"time": 2237, "pitch": 61, "duration": 12, "velocity": 65}, {"time": 2237, "pitch": 68, "duration": 13, "velocity": 81}, {"time": 2255, "pitch": 45, "duration": 22, "velocity": 63}, {"time": 2255, "pitch": 52, "duration": 22, "velocity": 60}, {"time": 2255, "pitch": 57, "duration": 15, "velocity": 51}, {"time": 2255, "pitch": 61, "duration": 17, "velocity": 61}, {"time": 2255, "pitch": 68, "duration": 17, "velocity": 76}, {"time": 2273, "pitch": 61, "duration": 8, "velocity": 73}, {"time": 2273, "pitch": 68, "duration": 7, "velocity": 83}, {"time": 2285, "pitch": 42, "duration": 46, "velocity": 66}, {"time": 2285, "pitch": 57, "duration": 10, "velocity": 61}, {"time": 2285, "pitch": 61, "duration": 9, "velocity": 83}, {"time": 2291, "pitch": 49, "duration": 39, "velocity": 56}, {"time": 2297, "pitch": 57, "duration": 4, "velocity": 63}, {"time": 2297, "pitch": 61, "duration": 4, "velocity": 64}, {"time": 2303, "pitch": 57, "duration": 17, "velocity": 71}, {"time": 2303, "pitch": 61, "duration": 17, "velocity": 77}, {"time": 2315, "pitch": 54, "duration": 7, "velocity": 13}, {"time": 2321, "pitch": 57, "duration": 9, "velocity": 68}, {"time": 2321, "pitch": 61, "duration": 8, "velocity": 76}, {"time": 2321, "pitch": 69, "duration": 4, "velocity": 76}, {"time": 2324, "pitch": 68, "duration": 3, "velocity": 83}, {"time": 2327, "pitch": 64, "duration": 3, "velocity": 62}, {"time": 2330, "pitch": 61, "duration": 2, "velocity": 83}, {"time": 2333, "pitch": 47, "duration": 24, "velocity": 61}, {"time": 2333, "pitch": 62, "duration": 10, "velocity": 53}, {"time": 2333, "pitch": 66, "duration": 10, "velocity": 60}, {"time": 2342, "pitch": 54, "duration": 15, "velocity": 58}, {"time": 2345, "pitch": 62, "duration": 12, "velocity": 61}, {"time": 2345, "pitch": 66, "duration": 12, "velocity": 64}, {"time": 2351, "pitch": 59, "duration": 6, "velocity": 51}, {"time": 2357, "pitch": 40, "duration": 19, "velocity": 71}, {"time": 2357, "pitch": 56, "duration": 11, "velocity": 72}, {"time": 2357, "pitch": 59, "duration": 11, "velocity": 72}, {"time": 2363, "pitch": 47, "duration": 13, "velocity": 59}, {"time": 2369, "pitch": 56, "duration": 7, "velocity": 77}, {"time": 2369, "pitch": 59, "duration": 7, "velocity": 79}, {"time": 2375, "pitch": 52, "duration": 6, "velocity": 59}, {"time": 2381, "pitch": 45, "duration": 40, "velocity": 74}, {"time": 2381, "pitch": 61, "duration": 23, "velocity": 67}, {"time": 2381, "pitch": 64, "duration": 20, "velocity": 75}, {"time": 2387, "pitch": 52, "duration": 30, "velocity": 77}, {"time": 2393, "pitch": 69, "duration": 8, "velocity": 61}, {"time": 2399, "pitch": 57, "duration": 6, "velocity": 45}, {"time": 2402, "pitch": 64, "duration": 1, "velocity": 11}, {"time": 2405, "pitch": 57, "duration": 6, "velocity": 55}, {"time": 2405, "pitch": 61, "duration": 10, "velocity": 65}, {"time": 2405, "pitch": 64, "duration": 10, "velocity": 83}, {"time": 2405, "pitch": 69, "duration": 9, "velocity": 74}, {"time": 2414, "pitch": 57, "duration": 4, "velocity": 53}, {"time": 2417, "pitch": 61, "duration": 4, "velocity": 90}, {"time": 2417, "pitch": 69, "duration": 4, "velocity": 83}, {"time": 2420, "pitch": 49, "duration": 8, "velocity": 87}, {"time": 2420, "pitch": 64, "duration": 7, "velocity": 117}, {"time": 2420, "pitch": 68, "duration": 7, "velocity": 108}, {"time": 2429, "pitch": 42, "duration": 21, "velocity": 62}, {"time": 2429, "pitch": 57, "duration": 11, "velocity": 73}, {"time": 2429, "pitch": 61, "duration": 11, "velocity": 76}, {"time": 2429, "pitch": 69, "duration": 10, "velocity": 93}, {"time": 2435, "pitch": 49, "duration": 14, "velocity": 66}, {"time": 2441, "pitch": 57, "duration": 7, "velocity": 76}, {"time": 2441, "pitch": 61, "duration": 7, "velocity": 85}, {"time": 2447, "pitch": 54, "duration": 2, "velocity": 57}, {"time": 2450, "pitch": 57, "duration": 4, "velocity": 58}, {"time": 2450, "pitch": 61, "duration": 3, "velocity": 64}, {"time": 2453, "pitch": 37, "duration": 20, "velocity": 79}, {"time": 2456, "pitch": 44, "duration": 21, "velocity": 58}, {"time": 2459, "pitch": 49, "duration": 6, "velocity": 59}, {"time": 2465, "pitch": 52, "duration": 11, "velocity": 75}, {"time": 2465, "pitch": 56, "duration": 8, "velocity": 76}, {"time": 2471, "pitch": 49, "duration": 6, "velocity": 52}, {"time": 2477, "pitch": 45, "duration": 21, "velocity": 86}, {"time": 2477, "pitch": 61, "duration": 11, "velocity": 85}, {"time": 2477, "pitch": 64, "duration": 11, "velocity": 87}, {"time": 2483, "pitch": 52, "duration": 14, "velocity": 70}, {"time": 2489, "pitch": 61, "duration": 11, "velocity": 85}, {"time": 2489, "pitch": 64, "duration": 10, "velocity": 95}, {"time": 2495, "pitch": 57, "duration": 2, "velocity": 58}, {"time": 2501, "pitch": 37, "duration": 18, "velocity": 81}, {"time": 2507, "pitch": 44, "duration": 13, "velocity": 77}, {"time": 2513, "pitch": 52, "duration": 7, "velocity": 70}, {"time": 2513, "pitch": 56, "duration": 7, "velocity": 73}, {"time": 2519, "pitch": 49, "duration": 5, "velocity": 54}, {"time": 2525, "pitch": 42, "duration": 19, "velocity": 58}, {"time": 2531, "pitch": 49, "duration": 13, "velocity": 67}, {"time": 2537, "pitch": 57, "duration": 7, "velocity": 75}, {"time": 2537, "pitch": 61, "duration": 7, "velocity": 86}, {"time": 2543, "pitch": 54, "duration": 2, "velocity": 61}, {"time": 2546, "pitch": 37, "duration": 20, "velocity": 58}, {"time": 2549, "pitch": 52, "duration": 11, "velocity": 74}, {"time": 2549, "pitch": 56, "duration": 11, "velocity": 67}, {"time": 2555, "pitch": 44, "duration": 17, "velocity": 60}, {"time": 2561, "pitch": 52, "duration": 8, "velocity": 87}, {"time": 2561, "pitch": 56, "duration": 7, "velocity": 83}, {"time": 2567, "pitch": 49, "duration": 6, "velocity": 58}, {"time": 2573, "pitch": 35, "duration": 16, "velocity": 70}, {"time": 2573, "pitch": 50, "duration": 11, "velocity": 75}, {"time": 2573, "pitch": 54, "duration": 11, "velocity": 72}, {"time": 2579, "pitch": 42, "duration": 11, "velocity": 62}, {"time": 2585, "pitch": 50, "duration": 5, "velocity": 63}, {"time": 2585, "pitch": 54, "duration": 5, "velocity": 69}, {"time": 2585, "pitch": 59, "duration": 5, "velocity": 64}, {"time": 2597, "pitch": 38, "duration": 19, "velocity": 74}, {"time": 2597, "pitch": 54, "duration": 11, "velocity": 74}, {"time": 2597, "pitch": 57, "duration": 11, "velocity": 76}, {"time": 2603, "pitch": 45, "duration": 17, "velocity": 49}, {"time": 2609, "pitch": 54, "duration": 7, "velocity": 83}, {"time": 2609, "pitch": 57, "duration": 7, "velocity": 83}, {"time": 2615, "pitch": 50, "duration": 6, "velocity": 59}, {"time": 2621, "pitch": 40, "duration": 43, "velocity": 81}, {"time": 2621, "pitch": 56, "duration": 23, "velocity": 85}, {"time": 2621, "pitch": 59, "duration": 23, "velocity": 86}, {"time": 2627, "pitch": 47, "duration": 37, "velocity": 71}, {"time": 2633, "pitch": 64, "duration": 11, "velocity": 76}, {"time": 2639, "pitch": 52, "duration": 6, "velocity": 58}, {"time": 2648, "pitch": 52, "duration": 5, "velocity": 65}, {"time": 2651, "pitch": 56, "duration": 8, "velocity": 67}, {"time": 2654, "pitch": 59, "duration": 9, "velocity": 62}, {"time": 2657, "pitch": 52, "duration": 8, "velocity": 76}, {"time": 2660, "pitch": 64, "duration": 3, "velocity": 70}, {"time": 2663, "pitch": 56, "duration": 4, "velocity": 83}, {"time": 2666, "pitch": 59, "duration": 2, "velocity": 67}, {"time": 2669, "pitch": 42, "duration": 16, "velocity": 68}, {"time": 2669, "pitch": 57, "duration": 11, "velocity": 74}, {"time": 2669, "pitch": 61, "duration": 11, "velocity": 75}, {"time": 2675, "pitch": 49, "duration": 8, "velocity": 58}, {"time": 2681, "pitch": 57, "duration": 5, "velocity": 76}, {"time": 2681, "pitch": 61, "duration": 5, "velocity": 93}, {"time": 2681, "pitch": 66, "duration": 5, "velocity": 76}, {"time": 2693, "pitch": 37, "duration": 19, "velocity": 69}, {"time": 2693, "pitch": 52, "duration": 11, "velocity": 63}, {"time": 2693, "pitch": 56, "duration": 11, "velocity": 59}, {"time": 2693, "pitch": 61, "duration": 11, "velocity": 67}, {"time": 2699, "pitch": 44, "duration": 10, "velocity": 48}, {"time": 2705, "pitch": 52, "duration": 7, "velocity": 70}, {"time": 2705, "pitch": 56, "duration": 7, "velocity": 81}, {"time": 2705, "pitch": 61, "duration": 6, "velocity": 81}, {"time": 2717, "pitch": 45, "duration": 17, "velocity": 76}, {"time": 2717, "pitch": 61, "duration": 11, "velocity": 74}, {"time": 2717, "pitch": 64, "duration": 11, "velocity": 77}, {"time": 2723, "pitch": 52, "duration": 10, "velocity": 71}, {"time": 2729, "pitch": 61, "duration": 12, "velocity": 85}, {"time": 2729, "pitch": 64, "duration": 6, "velocity": 85}, {"time": 2735, "pitch": 64, "duration": 1, "velocity": 45}, {"time": 2741, "pitch": 37, "duration": 18, "velocity": 76}, {"time": 2744, "pitch": 44, "duration": 16, "velocity": 70}, {"time": 2747, "pitch": 49, "duration": 7, "velocity": 64}, {"time": 2750, "pitch": 52, "duration": 7, "velocity": 86}, {"time": 2753, "pitch": 56, "duration": 5, "velocity": 76}, {"time": 2759, "pitch": 49, "duration": 6, "velocity": 59}, {"time": 2759, "pitch": 52, "duration": 2, "velocity": 68}, {"time": 2759, "pitch": 56, "duration": 1, "velocity": 68}, {"time": 2765, "pitch": 42, "duration": 20, "velocity": 73}, {"time": 2765, "pitch": 57, "duration": 11, "velocity": 85}, {"time": 2765, "pitch": 61, "duration": 11, "velocity": 86}, {"time": 2771, "pitch": 49, "duration": 13, "velocity": 55}, {"time": 2777, "pitch": 57, "duration": 7, "velocity": 83}, {"time": 2777, "pitch": 61, "duration": 6, "velocity": 93}, {"time": 2780, "pitch": 54, "duration": 2, "velocity": 59}, {"time": 2789, "pitch": 37, "duration": 19, "velocity": 59}, {"time": 2789, "pitch": 52, "duration": 11, "velocity": 83}, {"time": 2789, "pitch": 56, "duration": 11, "velocity": 79}, {"time": 2795, "pitch": 44, "duration": 12, "velocity": 60}, {"time": 2801, "pitch": 52, "duration": 6, "velocity": 79}, {"time": 2801, "pitch": 56, "duration": 6, "velocity": 85}, {"time": 2813, "pitch": 35, "duration": 21, "velocity": 79}, {"time": 2813, "pitch": 50, "duration": 11, "velocity": 74}, {"time": 2813, "pitch": 54, "duration": 11, "velocity": 73}, {"time": 2819, "pitch": 42, "duration": 15, "velocity": 60}, {"time": 2825, "pitch": 50, "duration": 7, "velocity": 75}, {"time": 2825, "pitch": 54, "duration": 7, "velocity": 74}, {"time": 2831, "pitch": 47, "duration": 2, "velocity": 13}, {"time": 2834, "pitch": 38, "duration": 19, "velocity": 65}, {"time": 2834, "pitch": 54, "duration": 11, "velocity": 73}, {"time": 2837, "pitch": 57, "duration": 11, "velocity": 70}, {"time": 2843, "pitch": 45, "duration": 17, "velocity": 74}, {"time": 2849, "pitch": 54, "duration": 7, "velocity": 76}, {"time": 2849, "pitch": 57, "duration": 7, "velocity": 76}, {"time": 2855, "pitch": 50, "duration": 5, "velocity": 58}, {"time": 2861, "pitch": 40, "duration": 44, "velocity": 79}, {"time": 2861, "pitch": 56, "duration": 12, "velocity": 85}, {"time": 2861, "pitch": 59, "duration": 12, "velocity": 83}, {"time": 2867, "pitch": 47, "duration": 40, "velocity": 71}, {"time": 2873, "pitch": 52, "duration": 7, "velocity": 64}, {"time": 2879, "pitch": 56, "duration": 28, "velocity": 63}, {"time": 2879, "pitch": 59, "duration": 27, "velocity": 59}, {"time": 2882, "pitch": 52, "duration": 19, "velocity": 59}, {"time": 2885, "pitch": 64, "duration": 11, "velocity": 65}, {"time": 2894, "pitch": 64, "duration": 2, "velocity": 69}, {"time": 2909, "pitch": 45, "duration": 40, "velocity": 75}, {"time": 2909, "pitch": 61, "duration": 11, "velocity": 70}, {"time": 2909, "pitch": 64, "duration": 11, "velocity": 76}, {"time": 2915, "pitch": 52, "duration": 33, "velocity": 58}, {"time": 2921, "pitch": 61, "duration": 10, "velocity": 72}, {"time": 2921, "pitch": 64, "duration": 10, "velocity": 77}, {"time": 2927, "pitch": 57, "duration": 9, "velocity": 33}, {"time": 2930, "pitch": 61, "duration": 1, "velocity": 68}, {"time": 2930, "pitch": 64, "duration": 1, "velocity": 75}, {"time": 2939, "pitch": 57, "duration": 6, "velocity": 46}, {"time": 2945, "pitch": 61, "duration": 6, "velocity": 83}, {"time": 2945, "pitch": 64, "duration": 6, "velocity": 83}, {"time": 2957, "pitch": 37, "duration": 39, "velocity": 52}, {"time": 2957, "pitch": 52, "duration": 8, "velocity": 67}, {"time": 2957, "pitch": 56, "duration": 8, "velocity": 74}, {"time": 2963, "pitch": 44, "duration": 37, "velocity": 59}, {"time": 2969, "pitch": 52, "duration": 10, "velocity": 60}, {"time": 2969, "pitch": 56, "duration": 11, "velocity": 65}, {"time": 2975, "pitch": 49, "duration": 7, "velocity": 48}, {"time": 2981, "pitch": 52, "duration": 10, "velocity": 53}, {"time": 2981, "pitch": 56, "duration": 11, "velocity": 69}, {"time": 2981, "pitch": 61, "duration": 6, "velocity": 74}, {"time": 2987, "pitch": 49, "duration": 6, "velocity": 48}, {"time": 2993, "pitch": 52, "duration": 6, "velocity": 64}, {"time": 2993, "pitch": 56, "duration": 7, "velocity": 76}, {"time": 2993, "pitch": 61, "duration": 6, "velocity": 75}, {"time": 2999, "pitch": 49, "duration": 3, "velocity": 54}, {"time": 3005, "pitch": 42, "duration": 42, "velocity": 67}, {"time": 3005, "pitch": 57, "duration": 11, "velocity": 68}, {"time": 3005, "pitch": 61, "duration": 11, "velocity": 79}, {"time": 3011, "pitch": 49, "duration": 34, "velocity": 62}, {"time": 3017, "pitch": 57, "duration": 11, "velocity": 61}, {"time": 3017, "pitch": 61, "duration": 11, "velocity": 74}, {"time": 3017, "pitch": 66, "duration": 10, "velocity": 66}, {"time": 3023, "pitch": 54, "duration": 7, "velocity": 40}, {"time": 3029, "pitch": 57, "duration": 11, "velocity": 61}, {"time": 3029, "pitch": 61, "duration": 11, "velocity": 77}, {"time": 3029, "pitch": 66, "duration": 11, "velocity": 74}, {"time": 3035, "pitch": 54, "duration": 6, "velocity": 52}, {"time": 3041, "pitch": 57, "duration": 5, "velocity": 67}, {"time": 3041, "pitch": 61, "duration": 7, "velocity": 81}, {"time": 3041, "pitch": 66, "duration": 7, "velocity": 75}, {"time": 3047, "pitch": 57, "duration": 6, "velocity": 69}, {"time": 3053, "pitch": 37, "duration": 41, "velocity": 63}, {"time": 3059, "pitch": 44, "duration": 42, "velocity": 67}, {"time": 3065, "pitch": 52, "duration": 11, "velocity": 67}, {"time": 3065, "pitch": 56, "duration": 11, "velocity": 61}, {"time": 3065, "pitch": 61, "duration": 11, "velocity": 72}, {"time": 3071, "pitch": 49, "duration": 9, "velocity": 49}, {"time": 3077, "pitch": 52, "duration": 11, "velocity": 63}, {"time": 3077, "pitch": 56, "duration": 11, "velocity": 63}, {"time": 3077, "pitch": 61, "duration": 11, "velocity": 67}, {"time": 3083, "pitch": 49, "duration": 8, "velocity": 46}, {"time": 3089, "pitch": 52, "duration": 7, "velocity": 85}, {"time": 3089, "pitch": 56, "duration": 7, "velocity": 90}, {"time": 3089, "pitch": 61, "duration": 7, "velocity": 87}, {"time": 3095, "pitch": 49, "duration": 6, "velocity": 58}, {"time": 3101, "pitch": 38, "duration": 43, "velocity": 76}, {"time": 3101, "pitch": 54, "duration": 10, "velocity": 67}, {"time": 3101, "pitch": 57, "duration": 10, "velocity": 74}, {"time": 3101, "pitch": 62, "duration": 7, "velocity": 77}, {"time": 3107, "pitch": 45, "duration": 37, "velocity": 59}, {"time": 3113, "pitch": 54, "duration": 26, "velocity": 65}, {"time": 3113, "pitch": 57, "duration": 26, "velocity": 72}, {"time": 3119, "pitch": 50, "duration": 6, "velocity": 58}, {"time": 3125, "pitch": 64, "duration": 10, "velocity": 76}, {"time": 3131, "pitch": 50, "duration": 8, "velocity": 58}, {"time": 3137, "pitch": 62, "duration": 11, "velocity": 83}, {"time": 3143, "pitch": 54, "duration": 6, "velocity": 59}, {"time": 3149, "pitch": 45, "duration": 10, "velocity": 86}, {"time": 3149, "pitch": 61, "duration": 9, "velocity": 77}, {"time": 3149, "pitch": 64, "duration": 11, "velocity": 76}, {"time": 3161, "pitch": 44, "duration": 7, "velocity": 83}, {"time": 3161, "pitch": 59, "duration": 7, "velocity": 76}, {"time": 3161, "pitch": 64, "duration": 7, "velocity": 75}, {"time": 3173, "pitch": 42, "duration": 19, "velocity": 74}, {"time": 3173, "pitch": 57, "duration": 11, "velocity": 69}, {"time": 3173, "pitch": 61, "duration": 11, "velocity": 76}, {"time": 3179, "pitch": 49, "duration": 13, "velocity": 62}, {"time": 3185, "pitch": 57, "duration": 7, "velocity": 65}, {"time": 3185, "pitch": 61, "duration": 7, "velocity": 85}, {"time": 3185, "pitch": 66, "duration": 7, "velocity": 72}, {"time": 3191, "pitch": 54, "duration": 6, "velocity": 54}, {"time": 3197, "pitch": 47, "duration": 24, "velocity": 63}, {"time": 3197, "pitch": 62, "duration": 11, "velocity": 83}, {"time": 3197, "pitch": 66, "duration": 11, "velocity": 76}, {"time": 3203, "pitch": 54, "duration": 18, "velocity": 58}, {"time": 3209, "pitch": 62, "duration": 10, "velocity": 66}, {"time": 3209, "pitch": 66, "duration": 11, "velocity": 70}, {"time": 3215, "pitch": 59, "duration": 7, "velocity": 46}, {"time": 3221, "pitch": 40, "duration": 19, "velocity": 71}, {"time": 3221, "pitch": 56, "duration": 11, "velocity": 72}, {"time": 3221, "pitch": 59, "duration": 1, "velocity": 76}, {"time": 3227, "pitch": 47, "duration": 13, "velocity": 60}, {"time": 3233, "pitch": 56, "duration": 7, "velocity": 85}, {"time": 3233, "pitch": 59, "duration": 7, "velocity": 79}, {"time": 3239, "pitch": 52, "duration": 6, "velocity": 60}, {"time": 3245, "pitch": 45, "duration": 34, "velocity": 81}, {"time": 3245, "pitch": 61, "duration": 11, "velocity": 81}, {"time": 3245, "pitch": 64, "duration": 11, "velocity": 74}, {"time": 3251, "pitch": 52, "duration": 25, "velocity": 63}, {"time": 3257, "pitch": 61, "duration": 10, "velocity": 79}, {"time": 3257, "pitch": 64, "duration": 10, "velocity": 81}, {"time": 3263, "pitch": 57, "duration": 10, "velocity": 51}, {"time": 3269, "pitch": 61, "duration": 9, "velocity": 83}, {"time": 3269, "pitch": 64, "duration": 7, "velocity": 87}, {"time": 3281, "pitch": 45, "duration": 8, "velocity": 83}, {"time": 3281, "pitch": 57, "duration": 7, "velocity": 62}, {"time": 3281, "pitch": 61, "duration": 7, "velocity": 65}, {"time": 3281, "pitch": 64, "duration": 7, "velocity": 64}, {"time": 3293, "pitch": 49, "duration": 43, "velocity": 58}, {"time": 3293, "pitch": 56, "duration": 42, "velocity": 59}, {"time": 3293, "pitch": 61, "duration": 27, "velocity": 60}, {"time": 3293, "pitch": 64, "duration": 11, "velocity": 62}, {"time": 3293, "pitch": 68, "duration": 11, "velocity": 61}, {"time": 3293, "pitch": 73, "duration": 11, "velocity": 65}, {"time": 3305, "pitch": 64, "duration": 11, "velocity": 62}, {"time": 3305, "pitch": 68, "duration": 11, "velocity": 75}, {"time": 3305, "pitch": 73, "duration": 11, "velocity": 68}, {"time": 3317, "pitch": 64, "duration": 11, "velocity": 66}, {"time": 3317, "pitch": 68, "duration": 11, "velocity": 75}, {"time": 3317, "pitch": 73, "duration": 11, "velocity": 71}, {"time": 3323, "pitch": 61, "duration": 9, "velocity": 55}, {"time": 3329, "pitch": 64, "duration": 12, "velocity": 67}, {"time": 3329, "pitch": 68, "duration": 12, "velocity": 81}, {"time": 3329, "pitch": 73, "duration": 12, "velocity": 70}, {"time": 3341, "pitch": 38, "duration": 19, "velocity": 73}, {"time": 3341, "pitch": 54, "duration": 11, "velocity": 62}, {"time": 3341, "pitch": 57, "duration": 11, "velocity": 63}, {"time": 3341, "pitch": 62, "duration": 11, "velocity": 74}, {"time": 3347, "pitch": 45, "duration": 18, "velocity": 75}, {"time": 3353, "pitch": 54, "duration": 7, "velocity": 65}, {"time": 3353, "pitch": 57, "duration": 7, "velocity": 73}, {"time": 3353, "pitch": 62, "duration": 7, "velocity": 74}, {"time": 3359, "pitch": 50, "duration": 5, "velocity": 47}, {"time": 3365, "pitch": 40, "duration": 36, "velocity": 70}, {"time": 3365, "pitch": 56, "duration": 36, "velocity": 61}, {"time": 3365, "pitch": 59, "duration": 36, "velocity": 71}, {"time": 3365, "pitch": 64, "duration": 36, "velocity": 74}, {"time": 3371, "pitch": 47, "duration": 29, "velocity": 59}, {"time": 3380, "pitch": 52, "duration": 21, "velocity": 55}, {"time": 3401, "pitch": 45, "duration": 59, "velocity": 85}, {"time": 3404, "pitch": 61, "duration": 58, "velocity": 60}, {"time": 3404, "pitch": 64, "duration": 58, "velocity": 63}, {"time": 3404, "pitch": 69, "duration": 58, "velocity": 60}, {"time": 3410, "pitch": 52, "duration": 52, "velocity": 50}, {"time": 3416, "pitch": 57, "duration": 44, "velocity": 42}], "annotations": [{"time": 29, "annotation": {"number": 64, "value": 74}, "group": "control_change"}, {"time": 41, "annotation": {"number": 64, "value": 75}, "group": "control_change"}]}]}