{"metadata": {"schema_version": "0.2", "title": "None", "source_filename": "059.mid", "source_format": "midi"}, "resolution": 12, "tempos": [{"time": 0, "qpm": 61.55001400262819}, {"time": 48, "qpm": 60.99997255001235}, {"time": 108, "qpm": 61.49998462500384}, {"time": 168, "qpm": 61.99999586666694}, {"time": 216, "qpm": 62.99999685000016}, {"time": 228, "qpm": 60.0}, {"time": 240, "qpm": 64.99999458333379}, {"time": 276, "qpm": 64.0}, {"time": 300, "qpm": 62.99999685000016}, {"time": 492, "qpm": 61.99999586666694}, {"time": 528, "qpm": 60.0}, {"time": 540, "qpm": 65.99999340000066}, {"time": 552, "qpm": 62.99999685000016}, {"time": 576, "qpm": 64.0}, {"time": 588, "qpm": 62.99999685000016}, {"time": 744, "qpm": 62.5}, {"time": 804, "qpm": 62.99999685000016}, {"time": 840, "qpm": 61.99999586666694}, {"time": 852, "qpm": 62.99999685000016}, {"time": 888, "qpm": 64.0}, {"time": 900, "qpm": 63.49999259166753}, {"time": 924, "qpm": 64.0}, {"time": 972, "qpm": 63.49999259166753}, {"time": 1008, "qpm": 62.99999685000016}, {"time": 1560, "qpm": 61.99999586666694}, {"time": 1584, "qpm": 62.99999685000016}, {"time": 1596, "qpm": 60.0}, {"time": 1608, "qpm": 64.99999458333379}, {"time": 1644, "qpm": 64.0}, {"time": 1656, "qpm": 62.99999685000016}, {"time": 1692, "qpm": 61.99999586666694}, {"time": 1764, "qpm": 62.99999685000016}, {"time": 1860, "qpm": 61.99999586666694}, {"time": 1884, "qpm": 62.99999685000016}, {"time": 1908, "qpm": 65.99999340000066}, {"time": 1920, "qpm": 62.99999685000016}, {"time": 1944, "qpm": 64.0}, {"time": 1956, "qpm": 62.99999685000016}, {"time": 2112, "qpm": 62.5}, {"time": 2172, "qpm": 62.99999685000016}, {"time": 2208, "qpm": 61.99999586666694}, {"time": 2220, "qpm": 62.99999685000016}, {"time": 2256, "qpm": 64.0}, {"time": 2268, "qpm": 63.49999259166753}, {"time": 2292, "qpm": 64.0}, {"time": 2328, "qpm": 62.99999685000016}, {"time": 2340, "qpm": 61.99999586666694}, {"time": 2376, "qpm": 62.99999685000016}, {"time": 2856, "qpm": 61.99999586666694}, {"time": 2904, "qpm": 62.99999685000016}, {"time": 2976, "qpm": 60.0}], "key_signatures": [{"time": 0, "root": 0, "mode": "major"}], "time_signatures": [{"time": 0, "numerator": 4, "denominator": 4}, {"time": 0, "numerator": 1, "denominator": 4}], "tracks": [{"program": 0, "is_drum": false, "name": "MELODY", "notes": [{"time": 195, "pitch": 71, "duration": 3, "velocity": 114}, {"time": 198, "pitch": 73, "duration": 2, "velocity": 114}, {"time": 201, "pitch": 74, "duration": 6, "velocity": 114}, {"time": 207, "pitch": 73, "duration": 3, "velocity": 114}, {"time": 210, "pitch": 74, "duration": 6, "velocity": 114}, {"time": 216, "pitch": 73, "duration": 4, "velocity": 114}, {"time": 222, "pitch": 74, "duration": 1, "velocity": 114}, {"time": 225, "pitch": 73, "duration": 3, "velocity": 114}, {"time": 231, "pitch": 74, "duration": 1, "velocity": 114}, {"time": 234, "pitch": 74, "duration": 4, "velocity": 114}, {"time": 243, "pitch": 69, "duration": 5, "velocity": 114}, {"time": 249, "pitch": 71, "duration": 22, "velocity": 114}, {"time": 291, "pitch": 71, "duration": 3, "velocity": 112}, {"time": 294, "pitch": 73, "duration": 2, "velocity": 112}, {"time": 297, "pitch": 74, "duration": 4, "velocity": 112}, {"time": 303, "pitch": 73, "duration": 2, "velocity": 112}, {"time": 306, "pitch": 74, "duration": 2, "velocity": 112}, {"time": 312, "pitch": 73, "duration": 2, "velocity": 112}, {"time": 318, "pitch": 74, "duration": 3, "velocity": 111}, {"time": 324, "pitch": 73, "duration": 2, "velocity": 111}, {"time": 330, "pitch": 73, "duration": 4, "velocity": 111}, {"time": 336, "pitch": 74, "duration": 4, "velocity": 111}, {"time": 342, "pitch": 76, "duration": 9, "velocity": 111}, {"time": 354, "pitch": 71, "duration": 33, "velocity": 111}, {"time": 387, "pitch": 74, "duration": 3, "velocity": 111}, {"time": 390, "pitch": 76, "duration": 3, "velocity": 111}, {"time": 393, "pitch": 78, "duration": 6, "velocity": 111}, {"time": 402, "pitch": 78, "duration": 1, "velocity": 111}, {"time": 405, "pitch": 78, "duration": 4, "velocity": 111}, {"time": 411, "pitch": 81, "duration": 2, "velocity": 111}, {"time": 417, "pitch": 78, "duration": 4, "velocity": 111}, {"time": 420, "pitch": 76, "duration": 10, "velocity": 111}, {"time": 435, "pitch": 76, "duration": 4, "velocity": 110}, {"time": 438, "pitch": 74, "duration": 4, "velocity": 110}, {"time": 441, "pitch": 76, "duration": 6, "velocity": 110}, {"time": 450, "pitch": 76, "duration": 1, "velocity": 110}, {"time": 453, "pitch": 76, "duration": 5, "velocity": 110}, {"time": 459, "pitch": 78, "duration": 3, "velocity": 109}, {"time": 465, "pitch": 71, "duration": 3, "velocity": 109}, {"time": 468, "pitch": 74, "duration": 15, "velocity": 109}, {"time": 483, "pitch": 71, "duration": 3, "velocity": 109}, {"time": 486, "pitch": 73, "duration": 2, "velocity": 109}, {"time": 489, "pitch": 74, "duration": 5, "velocity": 109}, {"time": 498, "pitch": 73, "duration": 3, "velocity": 108}, {"time": 501, "pitch": 74, "duration": 4, "velocity": 108}, {"time": 504, "pitch": 74, "duration": 1, "velocity": 108}, {"time": 510, "pitch": 74, "duration": 1, "velocity": 107}, {"time": 513, "pitch": 74, "duration": 4, "velocity": 107}, {"time": 516, "pitch": 73, "duration": 3, "velocity": 107}, {"time": 525, "pitch": 73, "duration": 1, "velocity": 107}, {"time": 528, "pitch": 73, "duration": 3, "velocity": 107}, {"time": 537, "pitch": 76, "duration": 4, "velocity": 107}, {"time": 540, "pitch": 71, "duration": 17, "velocity": 107}, {"time": 579, "pitch": 71, "duration": 3, "velocity": 107}, {"time": 582, "pitch": 73, "duration": 3, "velocity": 107}, {"time": 585, "pitch": 74, "duration": 4, "velocity": 107}, {"time": 591, "pitch": 73, "duration": 3, "velocity": 107}, {"time": 594, "pitch": 74, "duration": 9, "velocity": 107}, {"time": 600, "pitch": 73, "duration": 2, "velocity": 107}, {"time": 606, "pitch": 74, "duration": 3, "velocity": 107}, {"time": 612, "pitch": 73, "duration": 2, "velocity": 107}, {"time": 618, "pitch": 74, "duration": 2, "velocity": 107}, {"time": 624, "pitch": 73, "duration": 2, "velocity": 107}, {"time": 633, "pitch": 69, "duration": 9, "velocity": 106}, {"time": 642, "pitch": 71, "duration": 28, "velocity": 106}, {"time": 675, "pitch": 71, "duration": 2, "velocity": 106}, {"time": 678, "pitch": 73, "duration": 1, "velocity": 106}, {"time": 681, "pitch": 74, "duration": 3, "velocity": 106}, {"time": 687, "pitch": 73, "duration": 2, "velocity": 106}, {"time": 690, "pitch": 74, "duration": 2, "velocity": 106}, {"time": 696, "pitch": 73, "duration": 2, "velocity": 106}, {"time": 705, "pitch": 74, "duration": 5, "velocity": 106}, {"time": 711, "pitch": 73, "duration": 2, "velocity": 106}, {"time": 717, "pitch": 73, "duration": 3, "velocity": 106}, {"time": 720, "pitch": 74, "duration": 3, "velocity": 106}, {"time": 726, "pitch": 78, "duration": 7, "velocity": 106}, {"time": 735, "pitch": 76, "duration": 9, "velocity": 106}, {"time": 771, "pitch": 74, "duration": 2, "velocity": 106}, {"time": 774, "pitch": 76, "duration": 4, "velocity": 106}, {"time": 777, "pitch": 78, "duration": 5, "velocity": 106}, {"time": 786, "pitch": 78, "duration": 2, "velocity": 106}, {"time": 789, "pitch": 78, "duration": 3, "velocity": 106}, {"time": 792, "pitch": 81, "duration": 2, "velocity": 106}, {"time": 798, "pitch": 78, "duration": 3, "velocity": 106}, {"time": 804, "pitch": 76, "duration": 11, "velocity": 106}, {"time": 819, "pitch": 76, "duration": 2, "velocity": 106}, {"time": 822, "pitch": 74, "duration": 3, "velocity": 106}, {"time": 825, "pitch": 76, "duration": 6, "velocity": 106}, {"time": 834, "pitch": 76, "duration": 1, "velocity": 106}, {"time": 837, "pitch": 76, "duration": 2, "velocity": 106}, {"time": 840, "pitch": 81, "duration": 2, "velocity": 106}, {"time": 846, "pitch": 78, "duration": 4, "velocity": 106}, {"time": 852, "pitch": 74, "duration": 10, "velocity": 106}, {"time": 867, "pitch": 71, "duration": 2, "velocity": 106}, {"time": 870, "pitch": 73, "duration": 1, "velocity": 106}, {"time": 873, "pitch": 74, "duration": 2, "velocity": 106}, {"time": 879, "pitch": 73, "duration": 2, "velocity": 106}, {"time": 882, "pitch": 74, "duration": 2, "velocity": 106}, {"time": 888, "pitch": 73, "duration": 2, "velocity": 106}, {"time": 894, "pitch": 74, "duration": 3, "velocity": 106}, {"time": 900, "pitch": 73, "duration": 7, "velocity": 106}, {"time": 906, "pitch": 73, "duration": 1, "velocity": 106}, {"time": 912, "pitch": 74, "duration": 3, "velocity": 106}, {"time": 918, "pitch": 76, "duration": 5, "velocity": 106}, {"time": 924, "pitch": 71, "duration": 1, "velocity": 106}, {"time": 927, "pitch": 71, "duration": 24, "velocity": 106}, {"time": 981, "pitch": 81, "duration": 6, "velocity": 109}, {"time": 987, "pitch": 83, "duration": 2, "velocity": 109}, {"time": 990, "pitch": 78, "duration": 5, "velocity": 109}, {"time": 996, "pitch": 76, "duration": 12, "velocity": 109}, {"time": 1029, "pitch": 83, "duration": 4, "velocity": 110}, {"time": 1035, "pitch": 81, "duration": 1, "velocity": 110}, {"time": 1038, "pitch": 78, "duration": 13, "velocity": 110}, {"time": 1059, "pitch": 78, "duration": 2, "velocity": 111}, {"time": 1062, "pitch": 76, "duration": 2, "velocity": 111}, {"time": 1065, "pitch": 74, "duration": 4, "velocity": 112}, {"time": 1071, "pitch": 71, "duration": 2, "velocity": 112}, {"time": 1074, "pitch": 74, "duration": 3, "velocity": 112}, {"time": 1080, "pitch": 71, "duration": 5, "velocity": 112}, {"time": 1086, "pitch": 74, "duration": 4, "velocity": 112}, {"time": 1092, "pitch": 71, "duration": 2, "velocity": 112}, {"time": 1098, "pitch": 74, "duration": 2, "velocity": 112}, {"time": 1104, "pitch": 76, "duration": 2, "velocity": 112}, {"time": 1110, "pitch": 78, "duration": 19, "velocity": 112}, {"time": 1173, "pitch": 81, "duration": 7, "velocity": 114}, {"time": 1179, "pitch": 83, "duration": 2, "velocity": 114}, {"time": 1182, "pitch": 78, "duration": 4, "velocity": 114}, {"time": 1188, "pitch": 76, "duration": 8, "velocity": 114}, {"time": 1221, "pitch": 83, "duration": 4, "velocity": 114}, {"time": 1227, "pitch": 81, "duration": 1, "velocity": 114}, {"time": 1230, "pitch": 78, "duration": 9, "velocity": 114}, {"time": 1251, "pitch": 78, "duration": 3, "velocity": 114}, {"time": 1254, "pitch": 76, "duration": 1, "velocity": 114}, {"time": 1257, "pitch": 74, "duration": 3, "velocity": 114}, {"time": 1263, "pitch": 71, "duration": 3, "velocity": 114}, {"time": 1266, "pitch": 74, "duration": 3, "velocity": 114}, {"time": 1272, "pitch": 71, "duration": 4, "velocity": 114}, {"time": 1278, "pitch": 74, "duration": 3, "velocity": 114}, {"time": 1284, "pitch": 76, "duration": 3, "velocity": 114}, {"time": 1290, "pitch": 78, "duration": 4, "velocity": 114}, {"time": 1296, "pitch": 81, "duration": 4, "velocity": 114}, {"time": 1305, "pitch": 78, "duration": 8, "velocity": 114}, {"time": 1314, "pitch": 71, "duration": 18, "velocity": 114}, {"time": 1563, "pitch": 71, "duration": 3, "velocity": 107}, {"time": 1566, "pitch": 73, "duration": 2, "velocity": 107}, {"time": 1569, "pitch": 74, "duration": 6, "velocity": 107}, {"time": 1575, "pitch": 73, "duration": 3, "velocity": 107}, {"time": 1578, "pitch": 74, "duration": 6, "velocity": 107}, {"time": 1584, "pitch": 73, "duration": 4, "velocity": 106}, {"time": 1590, "pitch": 74, "duration": 1, "velocity": 106}, {"time": 1593, "pitch": 73, "duration": 3, "velocity": 106}, {"time": 1602, "pitch": 74, "duration": 1, "velocity": 105}, {"time": 1605, "pitch": 74, "duration": 4, "velocity": 105}, {"time": 1611, "pitch": 69, "duration": 5, "velocity": 105}, {"time": 1617, "pitch": 71, "duration": 22, "velocity": 105}, {"time": 1659, "pitch": 71, "duration": 3, "velocity": 104}, {"time": 1662, "pitch": 73, "duration": 2, "velocity": 104}, {"time": 1665, "pitch": 74, "duration": 4, "velocity": 104}, {"time": 1671, "pitch": 73, "duration": 2, "velocity": 104}, {"time": 1674, "pitch": 74, "duration": 2, "velocity": 104}, {"time": 1680, "pitch": 73, "duration": 2, "velocity": 104}, {"time": 1686, "pitch": 74, "duration": 3, "velocity": 104}, {"time": 1692, "pitch": 73, "duration": 2, "velocity": 104}, {"time": 1698, "pitch": 73, "duration": 4, "velocity": 104}, {"time": 1704, "pitch": 74, "duration": 4, "velocity": 104}, {"time": 1710, "pitch": 76, "duration": 9, "velocity": 104}, {"time": 1722, "pitch": 71, "duration": 33, "velocity": 104}, {"time": 1755, "pitch": 74, "duration": 3, "velocity": 102}, {"time": 1758, "pitch": 76, "duration": 3, "velocity": 102}, {"time": 1761, "pitch": 78, "duration": 5, "velocity": 102}, {"time": 1770, "pitch": 78, "duration": 2, "velocity": 102}, {"time": 1773, "pitch": 78, "duration": 3, "velocity": 102}, {"time": 1776, "pitch": 81, "duration": 2, "velocity": 102}, {"time": 1782, "pitch": 78, "duration": 3, "velocity": 102}, {"time": 1788, "pitch": 76, "duration": 11, "velocity": 102}, {"time": 1803, "pitch": 76, "duration": 2, "velocity": 102}, {"time": 1806, "pitch": 74, "duration": 3, "velocity": 102}, {"time": 1809, "pitch": 76, "duration": 6, "velocity": 102}, {"time": 1818, "pitch": 76, "duration": 1, "velocity": 102}, {"time": 1821, "pitch": 76, "duration": 2, "velocity": 102}, {"time": 1824, "pitch": 81, "duration": 2, "velocity": 102}, {"time": 1830, "pitch": 78, "duration": 4, "velocity": 102}, {"time": 1836, "pitch": 74, "duration": 10, "velocity": 102}, {"time": 1851, "pitch": 71, "duration": 2, "velocity": 102}, {"time": 1854, "pitch": 73, "duration": 1, "velocity": 102}, {"time": 1857, "pitch": 74, "duration": 2, "velocity": 102}, {"time": 1863, "pitch": 73, "duration": 2, "velocity": 102}, {"time": 1866, "pitch": 74, "duration": 2, "velocity": 102}, {"time": 1872, "pitch": 73, "duration": 2, "velocity": 102}, {"time": 1878, "pitch": 74, "duration": 3, "velocity": 102}, {"time": 1884, "pitch": 73, "duration": 7, "velocity": 102}, {"time": 1890, "pitch": 73, "duration": 1, "velocity": 102}, {"time": 1896, "pitch": 74, "duration": 3, "velocity": 102}, {"time": 1902, "pitch": 76, "duration": 5, "velocity": 102}, {"time": 1911, "pitch": 71, "duration": 24, "velocity": 102}, {"time": 1965, "pitch": 81, "duration": 6, "velocity": 103}, {"time": 1971, "pitch": 83, "duration": 2, "velocity": 103}, {"time": 1974, "pitch": 78, "duration": 5, "velocity": 103}, {"time": 1980, "pitch": 76, "duration": 12, "velocity": 103}, {"time": 2013, "pitch": 83, "duration": 4, "velocity": 103}, {"time": 2019, "pitch": 81, "duration": 1, "velocity": 103}, {"time": 2022, "pitch": 78, "duration": 13, "velocity": 103}, {"time": 2043, "pitch": 78, "duration": 2, "velocity": 103}, {"time": 2046, "pitch": 76, "duration": 2, "velocity": 104}, {"time": 2049, "pitch": 74, "duration": 4, "velocity": 104}, {"time": 2055, "pitch": 71, "duration": 2, "velocity": 104}, {"time": 2058, "pitch": 74, "duration": 3, "velocity": 104}, {"time": 2064, "pitch": 71, "duration": 5, "velocity": 104}, {"time": 2070, "pitch": 74, "duration": 4, "velocity": 105}, {"time": 2076, "pitch": 71, "duration": 2, "velocity": 105}, {"time": 2082, "pitch": 74, "duration": 2, "velocity": 105}, {"time": 2088, "pitch": 76, "duration": 2, "velocity": 105}, {"time": 2094, "pitch": 78, "duration": 19, "velocity": 105}, {"time": 2157, "pitch": 81, "duration": 4, "velocity": 105}, {"time": 2163, "pitch": 83, "duration": 2, "velocity": 105}, {"time": 2166, "pitch": 78, "duration": 4, "velocity": 105}, {"time": 2172, "pitch": 76, "duration": 8, "velocity": 105}, {"time": 2205, "pitch": 83, "duration": 4, "velocity": 105}, {"time": 2211, "pitch": 81, "duration": 1, "velocity": 105}, {"time": 2214, "pitch": 78, "duration": 9, "velocity": 105}, {"time": 2235, "pitch": 78, "duration": 3, "velocity": 105}, {"time": 2238, "pitch": 76, "duration": 1, "velocity": 105}, {"time": 2241, "pitch": 74, "duration": 3, "velocity": 105}, {"time": 2247, "pitch": 71, "duration": 3, "velocity": 105}, {"time": 2250, "pitch": 74, "duration": 3, "velocity": 105}, {"time": 2256, "pitch": 71, "duration": 4, "velocity": 105}, {"time": 2262, "pitch": 74, "duration": 3, "velocity": 105}, {"time": 2268, "pitch": 76, "duration": 3, "velocity": 105}, {"time": 2274, "pitch": 78, "duration": 4, "velocity": 105}, {"time": 2280, "pitch": 81, "duration": 4, "velocity": 105}, {"time": 2289, "pitch": 78, "duration": 8, "velocity": 105}, {"time": 2298, "pitch": 71, "duration": 18, "velocity": 105}, {"time": 2343, "pitch": 83, "duration": 1, "velocity": 105}, {"time": 2346, "pitch": 83, "duration": 1, "velocity": 105}, {"time": 2349, "pitch": 83, "duration": 3, "velocity": 105}, {"time": 2355, "pitch": 81, "duration": 1, "velocity": 105}, {"time": 2358, "pitch": 81, "duration": 1, "velocity": 105}, {"time": 2361, "pitch": 81, "duration": 1, "velocity": 105}, {"time": 2370, "pitch": 81, "duration": 1, "velocity": 105}, {"time": 2373, "pitch": 81, "duration": 3, "velocity": 105}, {"time": 2379, "pitch": 83, "duration": 3, "velocity": 105}, {"time": 2385, "pitch": 81, "duration": 3, "velocity": 105}, {"time": 2391, "pitch": 76, "duration": 3, "velocity": 105}, {"time": 2394, "pitch": 78, "duration": 15, "velocity": 105}, {"time": 2439, "pitch": 83, "duration": 1, "velocity": 105}, {"time": 2442, "pitch": 83, "duration": 1, "velocity": 105}, {"time": 2445, "pitch": 83, "duration": 1, "velocity": 105}, {"time": 2448, "pitch": 85, "duration": 4, "velocity": 105}, {"time": 2454, "pitch": 83, "duration": 1, "velocity": 105}, {"time": 2457, "pitch": 81, "duration": 2, "velocity": 105}, {"time": 2460, "pitch": 81, "duration": 1, "velocity": 105}, {"time": 2463, "pitch": 81, "duration": 1, "velocity": 105}, {"time": 2469, "pitch": 81, "duration": 1, "velocity": 105}, {"time": 2472, "pitch": 81, "duration": 1, "velocity": 105}, {"time": 2478, "pitch": 78, "duration": 3, "velocity": 105}, {"time": 2484, "pitch": 83, "duration": 13, "velocity": 105}, {"time": 2514, "pitch": 86, "duration": 1, "velocity": 105}, {"time": 2517, "pitch": 86, "duration": 2, "velocity": 105}, {"time": 2520, "pitch": 85, "duration": 2, "velocity": 105}, {"time": 2523, "pitch": 83, "duration": 7, "velocity": 105}, {"time": 2541, "pitch": 81, "duration": 6, "velocity": 105}, {"time": 2547, "pitch": 83, "duration": 2, "velocity": 105}, {"time": 2550, "pitch": 78, "duration": 5, "velocity": 105}, {"time": 2556, "pitch": 76, "duration": 12, "velocity": 106}, {"time": 2589, "pitch": 83, "duration": 4, "velocity": 108}, {"time": 2595, "pitch": 81, "duration": 1, "velocity": 108}, {"time": 2598, "pitch": 78, "duration": 13, "velocity": 108}, {"time": 2619, "pitch": 78, "duration": 2, "velocity": 108}, {"time": 2622, "pitch": 76, "duration": 2, "velocity": 108}, {"time": 2625, "pitch": 74, "duration": 4, "velocity": 108}, {"time": 2631, "pitch": 71, "duration": 2, "velocity": 108}, {"time": 2634, "pitch": 74, "duration": 3, "velocity": 108}, {"time": 2640, "pitch": 71, "duration": 5, "velocity": 108}, {"time": 2646, "pitch": 74, "duration": 4, "velocity": 108}, {"time": 2652, "pitch": 71, "duration": 2, "velocity": 109}, {"time": 2658, "pitch": 74, "duration": 2, "velocity": 109}, {"time": 2664, "pitch": 76, "duration": 2, "velocity": 109}, {"time": 2670, "pitch": 78, "duration": 19, "velocity": 109}, {"time": 2733, "pitch": 81, "duration": 4, "velocity": 110}, {"time": 2739, "pitch": 83, "duration": 2, "velocity": 110}, {"time": 2742, "pitch": 78, "duration": 4, "velocity": 110}, {"time": 2748, "pitch": 76, "duration": 8, "velocity": 110}, {"time": 2781, "pitch": 86, "duration": 4, "velocity": 112}, {"time": 2787, "pitch": 85, "duration": 1, "velocity": 112}, {"time": 2790, "pitch": 83, "duration": 10, "velocity": 112}, {"time": 2811, "pitch": 83, "duration": 2, "velocity": 112}, {"time": 2814, "pitch": 85, "duration": 1, "velocity": 112}, {"time": 2817, "pitch": 86, "duration": 3, "velocity": 112}, {"time": 2823, "pitch": 85, "duration": 2, "velocity": 112}, {"time": 2826, "pitch": 86, "duration": 3, "velocity": 112}, {"time": 2832, "pitch": 85, "duration": 3, "velocity": 112}, {"time": 2838, "pitch": 83, "duration": 3, "velocity": 112}, {"time": 2844, "pitch": 81, "duration": 7, "velocity": 112}, {"time": 2853, "pitch": 81, "duration": 1, "velocity": 112}, {"time": 2859, "pitch": 81, "duration": 9, "velocity": 112}, {"time": 2871, "pitch": 78, "duration": 5, "velocity": 112}, {"time": 2877, "pitch": 83, "duration": 58, "velocity": 113}], "annotations": [{"time": 105, "annotation": {"number": 64, "value": 64}, "group": "control_change"}, {"time": 129, "annotation": {"number": 64, "value": 65}, "group": "control_change"}, {"time": 153, "annotation": {"number": 64, "value": 68}, "group": "control_change"}, {"time": 177, "annotation": {"number": 64, "value": 72}, "group": "control_change"}, {"time": 189, "annotation": {"number": 64, "value": 73}, "group": "control_change"}, {"time": 213, "annotation": {"number": 64, "value": 76}, "group": "control_change"}, {"time": 249, "annotation": {"number": 64, "value": 79}, "group": "control_change"}, {"time": 261, "annotation": {"number": 64, "value": 80}, "group": "control_change"}, {"time": 273, "annotation": {"number": 64, "value": 83}, "group": "control_change"}, {"time": 309, "annotation": {"number": 64, "value": 85}, "group": "control_change"}, {"time": 321, "annotation": {"number": 64, "value": 86}, "group": "control_change"}, {"time": 333, "annotation": {"number": 64, "value": 88}, "group": "control_change"}, {"time": 345, "annotation": {"number": 64, "value": 89}, "group": "control_change"}, {"time": 357, "annotation": {"number": 64, "value": 90}, "group": "control_change"}, {"time": 381, "annotation": {"number": 64, "value": 91}, "group": "control_change"}, {"time": 393, "annotation": {"number": 64, "value": 92}, "group": "control_change"}, {"time": 453, "annotation": {"number": 64, "value": 94}, "group": "control_change"}, {"time": 525, "annotation": {"number": 64, "value": 92}, "group": "control_change"}, {"time": 561, "annotation": {"number": 64, "value": 91}, "group": "control_change"}, {"time": 573, "annotation": {"number": 64, "value": 90}, "group": "control_change"}, {"time": 597, "annotation": {"number": 64, "value": 89}, "group": "control_change"}, {"time": 633, "annotation": {"number": 64, "value": 88}, "group": "control_change"}, {"time": 645, "annotation": {"number": 64, "value": 86}, "group": "control_change"}, {"time": 753, "annotation": {"number": 64, "value": 87}, "group": "control_change"}, {"time": 861, "annotation": {"number": 64, "value": 88}, "group": "control_change"}, {"time": 873, "annotation": {"number": 64, "value": 89}, "group": "control_change"}, {"time": 885, "annotation": {"number": 64, "value": 90}, "group": "control_change"}, {"time": 909, "annotation": {"number": 64, "value": 91}, "group": "control_change"}, {"time": 933, "annotation": {"number": 64, "value": 92}, "group": "control_change"}, {"time": 1029, "annotation": {"number": 64, "value": 91}, "group": "control_change"}, {"time": 1125, "annotation": {"number": 64, "value": 90}, "group": "control_change"}, {"time": 1173, "annotation": {"number": 64, "value": 89}, "group": "control_change"}, {"time": 1185, "annotation": {"number": 64, "value": 88}, "group": "control_change"}, {"time": 1245, "annotation": {"number": 64, "value": 86}, "group": "control_change"}, {"time": 1317, "annotation": {"number": 64, "value": 85}, "group": "control_change"}, {"time": 1389, "annotation": {"number": 64, "value": 84}, "group": "control_change"}, {"time": 1413, "annotation": {"number": 64, "value": 83}, "group": "control_change"}, {"time": 1485, "annotation": {"number": 64, "value": 80}, "group": "control_change"}, {"time": 1521, "annotation": {"number": 64, "value": 79}, "group": "control_change"}, {"time": 1545, "annotation": {"number": 64, "value": 78}, "group": "control_change"}, {"time": 1617, "annotation": {"number": 64, "value": 76}, "group": "control_change"}, {"time": 1629, "annotation": {"number": 64, "value": 76}, "group": "control_change"}, {"time": 1713, "annotation": {"number": 64, "value": 77}, "group": "control_change"}, {"time": 1797, "annotation": {"number": 64, "value": 78}, "group": "control_change"}, {"time": 1833, "annotation": {"number": 64, "value": 79}, "group": "control_change"}, {"time": 1881, "annotation": {"number": 64, "value": 80}, "group": "control_change"}, {"time": 1905, "annotation": {"number": 64, "value": 81}, "group": "control_change"}, {"time": 1977, "annotation": {"number": 64, "value": 82}, "group": "control_change"}, {"time": 2001, "annotation": {"number": 64, "value": 83}, "group": "control_change"}, {"time": 2025, "annotation": {"number": 64, "value": 78}, "group": "control_change"}, {"time": 2061, "annotation": {"number": 64, "value": 76}, "group": "control_change"}, {"time": 2121, "annotation": {"number": 64, "value": 75}, "group": "control_change"}, {"time": 2181, "annotation": {"number": 64, "value": 74}, "group": "control_change"}, {"time": 2205, "annotation": {"number": 64, "value": 73}, "group": "control_change"}, {"time": 2253, "annotation": {"number": 64, "value": 72}, "group": "control_change"}, {"time": 2325, "annotation": {"number": 64, "value": 73}, "group": "control_change"}, {"time": 2373, "annotation": {"number": 64, "value": 74}, "group": "control_change"}, {"time": 2433, "annotation": {"number": 64, "value": 75}, "group": "control_change"}, {"time": 2781, "annotation": {"number": 64, "value": 74}, "group": "control_change"}, {"time": 2853, "annotation": {"number": 64, "value": 73}, "group": "control_change"}, {"time": 2877, "annotation": {"number": 64, "value": 72}, "group": "control_change"}, {"time": 2949, "annotation": {"number": 64, "value": 70}, "group": "control_change"}, {"time": 2985, "annotation": {"number": 64, "value": 70}, "group": "control_change"}, {"time": 3111, "annotation": {"number": 64, "value": 71}, "group": "control_change"}]}, {"program": 0, "is_drum": false, "name": "PIANO", "notes": [{"time": 9, "pitch": 47, "duration": 14, "velocity": 56}, {"time": 9, "pitch": 59, "duration": 8, "velocity": 64}, {"time": 9, "pitch": 62, "duration": 7, "velocity": 69}, {"time": 9, "pitch": 66, "duration": 7, "velocity": 58}, {"time": 21, "pitch": 62, "duration": 7, "velocity": 63}, {"time": 21, "pitch": 66, "duration": 7, "velocity": 49}, {"time": 27, "pitch": 59, "duration": 6, "velocity": 47}, {"time": 33, "pitch": 45, "duration": 14, "velocity": 56}, {"time": 33, "pitch": 61, "duration": 11, "velocity": 66}, {"time": 33, "pitch": 64, "duration": 7, "velocity": 64}, {"time": 39, "pitch": 52, "duration": 6, "velocity": 39}, {"time": 45, "pitch": 57, "duration": 8, "velocity": 60}, {"time": 45, "pitch": 61, "duration": 6, "velocity": 63}, {"time": 45, "pitch": 64, "duration": 6, "velocity": 69}, {"time": 57, "pitch": 43, "duration": 12, "velocity": 66}, {"time": 57, "pitch": 59, "duration": 7, "velocity": 78}, {"time": 57, "pitch": 62, "duration": 10, "velocity": 74}, {"time": 63, "pitch": 50, "duration": 5, "velocity": 50}, {"time": 69, "pitch": 55, "duration": 2, "velocity": 69}, {"time": 69, "pitch": 59, "duration": 2, "velocity": 76}, {"time": 69, "pitch": 62, "duration": 2, "velocity": 72}, {"time": 81, "pitch": 42, "duration": 17, "velocity": 68}, {"time": 81, "pitch": 54, "duration": 13, "velocity": 53}, {"time": 81, "pitch": 58, "duration": 7, "velocity": 86}, {"time": 81, "pitch": 61, "duration": 10, "velocity": 77}, {"time": 93, "pitch": 58, "duration": 6, "velocity": 112}, {"time": 93, "pitch": 61, "duration": 6, "velocity": 107}, {"time": 93, "pitch": 66, "duration": 5, "velocity": 95}, {"time": 105, "pitch": 43, "duration": 13, "velocity": 89}, {"time": 105, "pitch": 62, "duration": 7, "velocity": 99}, {"time": 105, "pitch": 67, "duration": 7, "velocity": 99}, {"time": 105, "pitch": 71, "duration": 7, "velocity": 92}, {"time": 111, "pitch": 50, "duration": 7, "velocity": 67}, {"time": 117, "pitch": 67, "duration": 6, "velocity": 107}, {"time": 117, "pitch": 71, "duration": 6, "velocity": 102}, {"time": 123, "pitch": 62, "duration": 1, "velocity": 81}, {"time": 129, "pitch": 45, "duration": 17, "velocity": 81}, {"time": 129, "pitch": 57, "duration": 2, "velocity": 100}, {"time": 129, "pitch": 61, "duration": 2, "velocity": 117}, {"time": 129, "pitch": 64, "duration": 3, "velocity": 93}, {"time": 135, "pitch": 52, "duration": 7, "velocity": 66}, {"time": 138, "pitch": 61, "duration": 9, "velocity": 96}, {"time": 138, "pitch": 64, "duration": 9, "velocity": 93}, {"time": 144, "pitch": 52, "duration": 2, "velocity": 54}, {"time": 147, "pitch": 57, "duration": 1, "velocity": 78}, {"time": 153, "pitch": 43, "duration": 19, "velocity": 75}, {"time": 153, "pitch": 59, "duration": 1, "velocity": 93}, {"time": 153, "pitch": 62, "duration": 1, "velocity": 92}, {"time": 156, "pitch": 50, "duration": 21, "velocity": 52}, {"time": 159, "pitch": 55, "duration": 6, "velocity": 75}, {"time": 162, "pitch": 62, "duration": 8, "velocity": 89}, {"time": 162, "pitch": 67, "duration": 7, "velocity": 93}, {"time": 162, "pitch": 71, "duration": 7, "velocity": 81}, {"time": 177, "pitch": 47, "duration": 12, "velocity": 66}, {"time": 189, "pitch": 45, "duration": 12, "velocity": 67}, {"time": 189, "pitch": 57, "duration": 12, "velocity": 68}, {"time": 189, "pitch": 61, "duration": 12, "velocity": 56}, {"time": 201, "pitch": 47, "duration": 17, "velocity": 74}, {"time": 201, "pitch": 62, "duration": 7, "velocity": 75}, {"time": 201, "pitch": 66, "duration": 19, "velocity": 88}, {"time": 207, "pitch": 54, "duration": 10, "velocity": 39}, {"time": 210, "pitch": 61, "duration": 14, "velocity": 102}, {"time": 225, "pitch": 45, "duration": 14, "velocity": 73}, {"time": 225, "pitch": 57, "duration": 10, "velocity": 70}, {"time": 225, "pitch": 61, "duration": 8, "velocity": 63}, {"time": 225, "pitch": 64, "duration": 7, "velocity": 69}, {"time": 231, "pitch": 52, "duration": 6, "velocity": 42}, {"time": 234, "pitch": 64, "duration": 8, "velocity": 78}, {"time": 249, "pitch": 43, "duration": 35, "velocity": 72}, {"time": 252, "pitch": 50, "duration": 27, "velocity": 60}, {"time": 255, "pitch": 55, "duration": 27, "velocity": 63}, {"time": 258, "pitch": 59, "duration": 12, "velocity": 56}, {"time": 285, "pitch": 45, "duration": 6, "velocity": 66}, {"time": 285, "pitch": 52, "duration": 8, "velocity": 89}, {"time": 285, "pitch": 57, "duration": 7, "velocity": 89}, {"time": 285, "pitch": 61, "duration": 7, "velocity": 92}, {"time": 297, "pitch": 47, "duration": 15, "velocity": 65}, {"time": 300, "pitch": 54, "duration": 11, "velocity": 77}, {"time": 303, "pitch": 59, "duration": 4, "velocity": 69}, {"time": 306, "pitch": 62, "duration": 16, "velocity": 72}, {"time": 306, "pitch": 66, "duration": 16, "velocity": 90}, {"time": 321, "pitch": 45, "duration": 11, "velocity": 72}, {"time": 324, "pitch": 52, "duration": 7, "velocity": 56}, {"time": 327, "pitch": 57, "duration": 4, "velocity": 69}, {"time": 330, "pitch": 61, "duration": 15, "velocity": 74}, {"time": 330, "pitch": 64, "duration": 15, "velocity": 79}, {"time": 345, "pitch": 43, "duration": 31, "velocity": 64}, {"time": 348, "pitch": 50, "duration": 29, "velocity": 58}, {"time": 351, "pitch": 55, "duration": 19, "velocity": 61}, {"time": 354, "pitch": 59, "duration": 18, "velocity": 82}, {"time": 372, "pitch": 55, "duration": 6, "velocity": 47}, {"time": 375, "pitch": 59, "duration": 6, "velocity": 63}, {"time": 378, "pitch": 62, "duration": 4, "velocity": 78}, {"time": 381, "pitch": 45, "duration": 6, "velocity": 78}, {"time": 381, "pitch": 57, "duration": 11, "velocity": 78}, {"time": 393, "pitch": 38, "duration": 10, "velocity": 69}, {"time": 396, "pitch": 45, "duration": 7, "velocity": 63}, {"time": 399, "pitch": 50, "duration": 12, "velocity": 86}, {"time": 402, "pitch": 57, "duration": 10, "velocity": 93}, {"time": 411, "pitch": 54, "duration": 1, "velocity": 50}, {"time": 417, "pitch": 40, "duration": 11, "velocity": 64}, {"time": 417, "pitch": 52, "duration": 2, "velocity": 64}, {"time": 417, "pitch": 55, "duration": 3, "velocity": 68}, {"time": 417, "pitch": 59, "duration": 3, "velocity": 59}, {"time": 420, "pitch": 47, "duration": 7, "velocity": 47}, {"time": 423, "pitch": 52, "duration": 8, "velocity": 74}, {"time": 426, "pitch": 55, "duration": 6, "velocity": 73}, {"time": 426, "pitch": 59, "duration": 6, "velocity": 83}, {"time": 441, "pitch": 43, "duration": 11, "velocity": 72}, {"time": 441, "pitch": 59, "duration": 4, "velocity": 68}, {"time": 441, "pitch": 62, "duration": 5, "velocity": 71}, {"time": 444, "pitch": 50, "duration": 7, "velocity": 69}, {"time": 447, "pitch": 55, "duration": 3, "velocity": 78}, {"time": 450, "pitch": 59, "duration": 8, "velocity": 72}, {"time": 450, "pitch": 62, "duration": 8, "velocity": 74}, {"time": 465, "pitch": 35, "duration": 12, "velocity": 58}, {"time": 465, "pitch": 50, "duration": 4, "velocity": 63}, {"time": 465, "pitch": 54, "duration": 5, "velocity": 68}, {"time": 468, "pitch": 42, "duration": 8, "velocity": 64}, {"time": 471, "pitch": 50, "duration": 4, "velocity": 64}, {"time": 474, "pitch": 54, "duration": 9, "velocity": 81}, {"time": 474, "pitch": 59, "duration": 10, "velocity": 86}, {"time": 483, "pitch": 50, "duration": 1, "velocity": 85}, {"time": 489, "pitch": 43, "duration": 17, "velocity": 72}, {"time": 489, "pitch": 55, "duration": 8, "velocity": 82}, {"time": 489, "pitch": 59, "duration": 8, "velocity": 72}, {"time": 489, "pitch": 62, "duration": 7, "velocity": 71}, {"time": 495, "pitch": 50, "duration": 11, "velocity": 49}, {"time": 498, "pitch": 59, "duration": 9, "velocity": 88}, {"time": 498, "pitch": 62, "duration": 10, "velocity": 78}, {"time": 507, "pitch": 55, "duration": 1, "velocity": 63}, {"time": 513, "pitch": 45, "duration": 15, "velocity": 57}, {"time": 513, "pitch": 52, "duration": 5, "velocity": 73}, {"time": 513, "pitch": 57, "duration": 7, "velocity": 75}, {"time": 513, "pitch": 61, "duration": 7, "velocity": 61}, {"time": 522, "pitch": 57, "duration": 9, "velocity": 82}, {"time": 531, "pitch": 52, "duration": 1, "velocity": 63}, {"time": 537, "pitch": 35, "duration": 23, "velocity": 63}, {"time": 540, "pitch": 42, "duration": 22, "velocity": 52}, {"time": 543, "pitch": 47, "duration": 7, "velocity": 57}, {"time": 546, "pitch": 54, "duration": 9, "velocity": 107}, {"time": 552, "pitch": 47, "duration": 2, "velocity": 53}, {"time": 555, "pitch": 50, "duration": 16, "velocity": 77}, {"time": 558, "pitch": 54, "duration": 13, "velocity": 50}, {"time": 561, "pitch": 35, "duration": 18, "velocity": 59}, {"time": 561, "pitch": 47, "duration": 9, "velocity": 68}, {"time": 573, "pitch": 50, "duration": 6, "velocity": 95}, {"time": 573, "pitch": 54, "duration": 6, "velocity": 102}, {"time": 585, "pitch": 47, "duration": 18, "velocity": 75}, {"time": 585, "pitch": 59, "duration": 7, "velocity": 81}, {"time": 585, "pitch": 62, "duration": 7, "velocity": 82}, {"time": 585, "pitch": 66, "duration": 7, "velocity": 74}, {"time": 591, "pitch": 54, "duration": 7, "velocity": 71}, {"time": 594, "pitch": 59, "duration": 7, "velocity": 90}, {"time": 594, "pitch": 62, "duration": 9, "velocity": 99}, {"time": 600, "pitch": 54, "duration": 2, "velocity": 58}, {"time": 603, "pitch": 59, "duration": 4, "velocity": 89}, {"time": 609, "pitch": 45, "duration": 13, "velocity": 69}, {"time": 609, "pitch": 57, "duration": 8, "velocity": 96}, {"time": 609, "pitch": 61, "duration": 8, "velocity": 76}, {"time": 609, "pitch": 64, "duration": 7, "velocity": 72}, {"time": 615, "pitch": 52, "duration": 6, "velocity": 64}, {"time": 618, "pitch": 57, "duration": 1, "velocity": 36}, {"time": 618, "pitch": 64, "duration": 10, "velocity": 92}, {"time": 633, "pitch": 43, "duration": 29, "velocity": 73}, {"time": 636, "pitch": 50, "duration": 20, "velocity": 61}, {"time": 639, "pitch": 55, "duration": 17, "velocity": 58}, {"time": 642, "pitch": 62, "duration": 17, "velocity": 93}, {"time": 654, "pitch": 59, "duration": 5, "velocity": 57}, {"time": 657, "pitch": 50, "duration": 5, "velocity": 72}, {"time": 660, "pitch": 55, "duration": 3, "velocity": 72}, {"time": 663, "pitch": 62, "duration": 6, "velocity": 97}, {"time": 666, "pitch": 55, "duration": 3, "velocity": 90}, {"time": 669, "pitch": 45, "duration": 7, "velocity": 69}, {"time": 669, "pitch": 57, "duration": 11, "velocity": 102}, {"time": 681, "pitch": 47, "duration": 15, "velocity": 92}, {"time": 684, "pitch": 54, "duration": 12, "velocity": 82}, {"time": 687, "pitch": 59, "duration": 10, "velocity": 74}, {"time": 690, "pitch": 66, "duration": 15, "velocity": 107}, {"time": 699, "pitch": 62, "duration": 7, "velocity": 63}, {"time": 705, "pitch": 45, "duration": 10, "velocity": 71}, {"time": 708, "pitch": 52, "duration": 6, "velocity": 65}, {"time": 711, "pitch": 57, "duration": 10, "velocity": 74}, {"time": 714, "pitch": 64, "duration": 10, "velocity": 95}, {"time": 729, "pitch": 43, "duration": 32, "velocity": 81}, {"time": 732, "pitch": 50, "duration": 10, "velocity": 52}, {"time": 735, "pitch": 55, "duration": 5, "velocity": 85}, {"time": 738, "pitch": 59, "duration": 14, "velocity": 96}, {"time": 747, "pitch": 50, "duration": 5, "velocity": 24}, {"time": 753, "pitch": 62, "duration": 6, "velocity": 92}, {"time": 756, "pitch": 50, "duration": 9, "velocity": 40}, {"time": 759, "pitch": 55, "duration": 3, "velocity": 90}, {"time": 762, "pitch": 62, "duration": 4, "velocity": 96}, {"time": 765, "pitch": 45, "duration": 6, "velocity": 70}, {"time": 765, "pitch": 57, "duration": 8, "velocity": 102}, {"time": 777, "pitch": 38, "duration": 15, "velocity": 72}, {"time": 777, "pitch": 57, "duration": 7, "velocity": 86}, {"time": 777, "pitch": 62, "duration": 7, "velocity": 96}, {"time": 777, "pitch": 66, "duration": 7, "velocity": 92}, {"time": 780, "pitch": 45, "duration": 12, "velocity": 49}, {"time": 783, "pitch": 50, "duration": 6, "velocity": 86}, {"time": 786, "pitch": 62, "duration": 7, "velocity": 96}, {"time": 786, "pitch": 66, "duration": 7, "velocity": 97}, {"time": 801, "pitch": 40, "duration": 16, "velocity": 72}, {"time": 801, "pitch": 52, "duration": 2, "velocity": 76}, {"time": 801, "pitch": 55, "duration": 3, "velocity": 74}, {"time": 801, "pitch": 59, "duration": 3, "velocity": 76}, {"time": 804, "pitch": 47, "duration": 9, "velocity": 50}, {"time": 807, "pitch": 52, "duration": 3, "velocity": 86}, {"time": 810, "pitch": 55, "duration": 7, "velocity": 95}, {"time": 810, "pitch": 59, "duration": 7, "velocity": 92}, {"time": 816, "pitch": 47, "duration": 2, "velocity": 63}, {"time": 819, "pitch": 55, "duration": 5, "velocity": 93}, {"time": 822, "pitch": 57, "duration": 4, "velocity": 81}, {"time": 825, "pitch": 43, "duration": 14, "velocity": 72}, {"time": 825, "pitch": 59, "duration": 6, "velocity": 93}, {"time": 831, "pitch": 50, "duration": 7, "velocity": 63}, {"time": 834, "pitch": 59, "duration": 9, "velocity": 90}, {"time": 834, "pitch": 62, "duration": 9, "velocity": 86}, {"time": 843, "pitch": 55, "duration": 1, "velocity": 69}, {"time": 849, "pitch": 47, "duration": 18, "velocity": 76}, {"time": 849, "pitch": 62, "duration": 5, "velocity": 81}, {"time": 849, "pitch": 66, "duration": 6, "velocity": 73}, {"time": 852, "pitch": 54, "duration": 10, "velocity": 92}, {"time": 852, "pitch": 59, "duration": 6, "velocity": 86}, {"time": 858, "pitch": 66, "duration": 10, "velocity": 112}, {"time": 864, "pitch": 54, "duration": 2, "velocity": 76}, {"time": 867, "pitch": 62, "duration": 1, "velocity": 97}, {"time": 873, "pitch": 43, "duration": 18, "velocity": 79}, {"time": 873, "pitch": 55, "duration": 7, "velocity": 85}, {"time": 873, "pitch": 59, "duration": 10, "velocity": 85}, {"time": 873, "pitch": 62, "duration": 10, "velocity": 89}, {"time": 879, "pitch": 50, "duration": 8, "velocity": 63}, {"time": 885, "pitch": 59, "duration": 8, "velocity": 96}, {"time": 885, "pitch": 62, "duration": 6, "velocity": 96}, {"time": 888, "pitch": 50, "duration": 3, "velocity": 63}, {"time": 891, "pitch": 55, "duration": 4, "velocity": 78}, {"time": 897, "pitch": 45, "duration": 14, "velocity": 71}, {"time": 897, "pitch": 57, "duration": 10, "velocity": 92}, {"time": 897, "pitch": 61, "duration": 7, "velocity": 96}, {"time": 897, "pitch": 64, "duration": 7, "velocity": 88}, {"time": 909, "pitch": 61, "duration": 6, "velocity": 107}, {"time": 909, "pitch": 64, "duration": 6, "velocity": 89}, {"time": 915, "pitch": 57, "duration": 2, "velocity": 86}, {"time": 921, "pitch": 47, "duration": 29, "velocity": 89}, {"time": 921, "pitch": 59, "duration": 7, "velocity": 92}, {"time": 921, "pitch": 62, "duration": 6, "velocity": 96}, {"time": 921, "pitch": 66, "duration": 7, "velocity": 107}, {"time": 927, "pitch": 54, "duration": 7, "velocity": 96}, {"time": 930, "pitch": 62, "duration": 7, "velocity": 117}, {"time": 930, "pitch": 66, "duration": 7, "velocity": 122}, {"time": 936, "pitch": 54, "duration": 8, "velocity": 95}, {"time": 939, "pitch": 59, "duration": 2, "velocity": 85}, {"time": 942, "pitch": 62, "duration": 6, "velocity": 112}, {"time": 942, "pitch": 66, "duration": 6, "velocity": 127}, {"time": 948, "pitch": 54, "duration": 2, "velocity": 102}, {"time": 951, "pitch": 62, "duration": 2, "velocity": 127}, {"time": 951, "pitch": 66, "duration": 3, "velocity": 127}, {"time": 954, "pitch": 59, "duration": 1, "velocity": 99}, {"time": 957, "pitch": 45, "duration": 9, "velocity": 112}, {"time": 957, "pitch": 57, "duration": 10, "velocity": 127}, {"time": 957, "pitch": 61, "duration": 8, "velocity": 127}, {"time": 957, "pitch": 64, "duration": 8, "velocity": 102}, {"time": 969, "pitch": 50, "duration": 14, "velocity": 99}, {"time": 969, "pitch": 57, "duration": 7, "velocity": 122}, {"time": 969, "pitch": 62, "duration": 7, "velocity": 122}, {"time": 969, "pitch": 66, "duration": 7, "velocity": 117}, {"time": 981, "pitch": 62, "duration": 7, "velocity": 127}, {"time": 981, "pitch": 66, "duration": 6, "velocity": 127}, {"time": 987, "pitch": 57, "duration": 1, "velocity": 96}, {"time": 993, "pitch": 40, "duration": 16, "velocity": 86}, {"time": 993, "pitch": 59, "duration": 9, "velocity": 102}, {"time": 993, "pitch": 64, "duration": 10, "velocity": 117}, {"time": 993, "pitch": 68, "duration": 10, "velocity": 122}, {"time": 999, "pitch": 47, "duration": 8, "velocity": 58}, {"time": 1005, "pitch": 64, "duration": 6, "velocity": 127}, {"time": 1005, "pitch": 68, "duration": 6, "velocity": 127}, {"time": 1008, "pitch": 47, "duration": 1, "velocity": 85}, {"time": 1011, "pitch": 59, "duration": 1, "velocity": 107}, {"time": 1017, "pitch": 43, "duration": 15, "velocity": 81}, {"time": 1017, "pitch": 55, "duration": 7, "velocity": 112}, {"time": 1017, "pitch": 59, "duration": 7, "velocity": 107}, {"time": 1017, "pitch": 62, "duration": 9, "velocity": 102}, {"time": 1023, "pitch": 50, "duration": 7, "velocity": 57}, {"time": 1029, "pitch": 59, "duration": 6, "velocity": 127}, {"time": 1029, "pitch": 62, "duration": 6, "velocity": 127}, {"time": 1035, "pitch": 55, "duration": 1, "velocity": 100}, {"time": 1041, "pitch": 47, "duration": 16, "velocity": 97}, {"time": 1041, "pitch": 59, "duration": 7, "velocity": 107}, {"time": 1041, "pitch": 62, "duration": 7, "velocity": 127}, {"time": 1041, "pitch": 66, "duration": 7, "velocity": 122}, {"time": 1047, "pitch": 54, "duration": 7, "velocity": 97}, {"time": 1053, "pitch": 62, "duration": 6, "velocity": 127}, {"time": 1053, "pitch": 66, "duration": 6, "velocity": 127}, {"time": 1056, "pitch": 54, "duration": 1, "velocity": 107}, {"time": 1059, "pitch": 57, "duration": 4, "velocity": 117}, {"time": 1065, "pitch": 43, "duration": 17, "velocity": 83}, {"time": 1065, "pitch": 55, "duration": 7, "velocity": 117}, {"time": 1065, "pitch": 59, "duration": 7, "velocity": 97}, {"time": 1065, "pitch": 62, "duration": 7, "velocity": 100}, {"time": 1071, "pitch": 50, "duration": 7, "velocity": 60}, {"time": 1077, "pitch": 59, "duration": 6, "velocity": 127}, {"time": 1077, "pitch": 62, "duration": 6, "velocity": 117}, {"time": 1080, "pitch": 50, "duration": 2, "velocity": 85}, {"time": 1083, "pitch": 55, "duration": 1, "velocity": 100}, {"time": 1089, "pitch": 45, "duration": 16, "velocity": 88}, {"time": 1089, "pitch": 57, "duration": 8, "velocity": 117}, {"time": 1089, "pitch": 61, "duration": 9, "velocity": 127}, {"time": 1089, "pitch": 64, "duration": 8, "velocity": 100}, {"time": 1095, "pitch": 52, "duration": 7, "velocity": 75}, {"time": 1101, "pitch": 61, "duration": 6, "velocity": 127}, {"time": 1101, "pitch": 64, "duration": 6, "velocity": 122}, {"time": 1104, "pitch": 52, "duration": 1, "velocity": 45}, {"time": 1107, "pitch": 57, "duration": 2, "velocity": 112}, {"time": 1113, "pitch": 38, "duration": 16, "velocity": 100}, {"time": 1113, "pitch": 57, "duration": 9, "velocity": 122}, {"time": 1113, "pitch": 62, "duration": 9, "velocity": 127}, {"time": 1113, "pitch": 66, "duration": 9, "velocity": 127}, {"time": 1119, "pitch": 50, "duration": 7, "velocity": 68}, {"time": 1125, "pitch": 62, "duration": 5, "velocity": 127}, {"time": 1125, "pitch": 66, "duration": 7, "velocity": 127}, {"time": 1128, "pitch": 50, "duration": 2, "velocity": 95}, {"time": 1131, "pitch": 57, "duration": 2, "velocity": 100}, {"time": 1137, "pitch": 42, "duration": 17, "velocity": 122}, {"time": 1137, "pitch": 58, "duration": 8, "velocity": 127}, {"time": 1137, "pitch": 61, "duration": 8, "velocity": 127}, {"time": 1143, "pitch": 54, "duration": 7, "velocity": 100}, {"time": 1149, "pitch": 58, "duration": 4, "velocity": 127}, {"time": 1149, "pitch": 61, "duration": 4, "velocity": 127}, {"time": 1152, "pitch": 54, "duration": 2, "velocity": 112}, {"time": 1155, "pitch": 58, "duration": 1, "velocity": 127}, {"time": 1155, "pitch": 61, "duration": 1, "velocity": 127}, {"time": 1161, "pitch": 43, "duration": 16, "velocity": 97}, {"time": 1161, "pitch": 55, "duration": 6, "velocity": 122}, {"time": 1161, "pitch": 59, "duration": 7, "velocity": 102}, {"time": 1161, "pitch": 62, "duration": 7, "velocity": 102}, {"time": 1167, "pitch": 50, "duration": 6, "velocity": 69}, {"time": 1170, "pitch": 62, "duration": 1, "velocity": 33}, {"time": 1173, "pitch": 59, "duration": 6, "velocity": 127}, {"time": 1173, "pitch": 61, "duration": 1, "velocity": 95}, {"time": 1173, "pitch": 62, "duration": 6, "velocity": 122}, {"time": 1176, "pitch": 50, "duration": 2, "velocity": 89}, {"time": 1179, "pitch": 55, "duration": 1, "velocity": 99}, {"time": 1185, "pitch": 45, "duration": 17, "velocity": 86}, {"time": 1185, "pitch": 57, "duration": 7, "velocity": 127}, {"time": 1185, "pitch": 61, "duration": 7, "velocity": 127}, {"time": 1185, "pitch": 64, "duration": 7, "velocity": 112}, {"time": 1191, "pitch": 52, "duration": 7, "velocity": 95}, {"time": 1197, "pitch": 61, "duration": 6, "velocity": 127}, {"time": 1197, "pitch": 64, "duration": 6, "velocity": 122}, {"time": 1200, "pitch": 52, "duration": 1, "velocity": 95}, {"time": 1203, "pitch": 57, "duration": 1, "velocity": 112}, {"time": 1209, "pitch": 40, "duration": 16, "velocity": 95}, {"time": 1209, "pitch": 59, "duration": 8, "velocity": 122}, {"time": 1209, "pitch": 64, "duration": 9, "velocity": 117}, {"time": 1209, "pitch": 67, "duration": 9, "velocity": 107}, {"time": 1215, "pitch": 47, "duration": 10, "velocity": 48}, {"time": 1221, "pitch": 64, "duration": 6, "velocity": 127}, {"time": 1221, "pitch": 67, "duration": 6, "velocity": 127}, {"time": 1224, "pitch": 52, "duration": 2, "velocity": 89}, {"time": 1227, "pitch": 59, "duration": 3, "velocity": 122}, {"time": 1233, "pitch": 47, "duration": 17, "velocity": 83}, {"time": 1233, "pitch": 59, "duration": 7, "velocity": 102}, {"time": 1233, "pitch": 62, "duration": 7, "velocity": 102}, {"time": 1233, "pitch": 66, "duration": 8, "velocity": 112}, {"time": 1239, "pitch": 54, "duration": 8, "velocity": 92}, {"time": 1245, "pitch": 62, "duration": 5, "velocity": 127}, {"time": 1245, "pitch": 66, "duration": 6, "velocity": 127}, {"time": 1248, "pitch": 54, "duration": 2, "velocity": 107}, {"time": 1251, "pitch": 57, "duration": 5, "velocity": 127}, {"time": 1257, "pitch": 43, "duration": 18, "velocity": 83}, {"time": 1257, "pitch": 59, "duration": 10, "velocity": 122}, {"time": 1257, "pitch": 62, "duration": 10, "velocity": 112}, {"time": 1263, "pitch": 50, "duration": 7, "velocity": 93}, {"time": 1269, "pitch": 59, "duration": 7, "velocity": 127}, {"time": 1269, "pitch": 62, "duration": 6, "velocity": 117}, {"time": 1272, "pitch": 50, "duration": 3, "velocity": 83}, {"time": 1275, "pitch": 55, "duration": 2, "velocity": 96}, {"time": 1281, "pitch": 45, "duration": 13, "velocity": 82}, {"time": 1281, "pitch": 57, "duration": 10, "velocity": 127}, {"time": 1281, "pitch": 61, "duration": 10, "velocity": 127}, {"time": 1281, "pitch": 64, "duration": 9, "velocity": 112}, {"time": 1293, "pitch": 61, "duration": 5, "velocity": 127}, {"time": 1293, "pitch": 64, "duration": 5, "velocity": 100}, {"time": 1305, "pitch": 47, "duration": 43, "velocity": 85}, {"time": 1305, "pitch": 59, "duration": 8, "velocity": 107}, {"time": 1305, "pitch": 62, "duration": 8, "velocity": 127}, {"time": 1305, "pitch": 66, "duration": 8, "velocity": 122}, {"time": 1311, "pitch": 54, "duration": 9, "velocity": 38}, {"time": 1317, "pitch": 59, "duration": 7, "velocity": 88}, {"time": 1317, "pitch": 62, "duration": 6, "velocity": 107}, {"time": 1317, "pitch": 66, "duration": 7, "velocity": 99}, {"time": 1323, "pitch": 54, "duration": 10, "velocity": 45}, {"time": 1329, "pitch": 59, "duration": 7, "velocity": 56}, {"time": 1329, "pitch": 62, "duration": 7, "velocity": 65}, {"time": 1329, "pitch": 66, "duration": 7, "velocity": 56}, {"time": 1335, "pitch": 54, "duration": 11, "velocity": 45}, {"time": 1341, "pitch": 62, "duration": 7, "velocity": 112}, {"time": 1341, "pitch": 66, "duration": 7, "velocity": 122}, {"time": 1347, "pitch": 59, "duration": 3, "velocity": 73}, {"time": 1353, "pitch": 45, "duration": 38, "velocity": 72}, {"time": 1353, "pitch": 57, "duration": 10, "velocity": 93}, {"time": 1353, "pitch": 61, "duration": 10, "velocity": 107}, {"time": 1353, "pitch": 64, "duration": 9, "velocity": 89}, {"time": 1365, "pitch": 57, "duration": 9, "velocity": 86}, {"time": 1365, "pitch": 61, "duration": 10, "velocity": 96}, {"time": 1365, "pitch": 64, "duration": 9, "velocity": 82}, {"time": 1377, "pitch": 57, "duration": 9, "velocity": 85}, {"time": 1377, "pitch": 61, "duration": 10, "velocity": 100}, {"time": 1377, "pitch": 64, "duration": 10, "velocity": 82}, {"time": 1389, "pitch": 61, "duration": 6, "velocity": 117}, {"time": 1389, "pitch": 64, "duration": 6, "velocity": 93}, {"time": 1392, "pitch": 45, "duration": 1, "velocity": 33}, {"time": 1395, "pitch": 57, "duration": 3, "velocity": 85}, {"time": 1401, "pitch": 43, "duration": 14, "velocity": 75}, {"time": 1401, "pitch": 55, "duration": 8, "velocity": 93}, {"time": 1401, "pitch": 59, "duration": 10, "velocity": 85}, {"time": 1401, "pitch": 62, "duration": 7, "velocity": 82}, {"time": 1407, "pitch": 50, "duration": 8, "velocity": 56}, {"time": 1413, "pitch": 59, "duration": 10, "velocity": 99}, {"time": 1413, "pitch": 62, "duration": 7, "velocity": 96}, {"time": 1425, "pitch": 42, "duration": 40, "velocity": 78}, {"time": 1425, "pitch": 54, "duration": 38, "velocity": 77}, {"time": 1425, "pitch": 57, "duration": 43, "velocity": 79}, {"time": 1425, "pitch": 61, "duration": 42, "velocity": 95}, {"time": 1449, "pitch": 66, "duration": 17, "velocity": 36}, {"time": 1473, "pitch": 43, "duration": 14, "velocity": 77}, {"time": 1473, "pitch": 55, "duration": 7, "velocity": 93}, {"time": 1473, "pitch": 59, "duration": 7, "velocity": 93}, {"time": 1473, "pitch": 62, "duration": 7, "velocity": 93}, {"time": 1479, "pitch": 50, "duration": 8, "velocity": 58}, {"time": 1485, "pitch": 55, "duration": 6, "velocity": 97}, {"time": 1485, "pitch": 59, "duration": 6, "velocity": 100}, {"time": 1485, "pitch": 62, "duration": 5, "velocity": 97}, {"time": 1497, "pitch": 45, "duration": 15, "velocity": 83}, {"time": 1497, "pitch": 57, "duration": 8, "velocity": 102}, {"time": 1497, "pitch": 61, "duration": 8, "velocity": 112}, {"time": 1497, "pitch": 64, "duration": 7, "velocity": 95}, {"time": 1503, "pitch": 52, "duration": 8, "velocity": 52}, {"time": 1509, "pitch": 61, "duration": 6, "velocity": 127}, {"time": 1509, "pitch": 64, "duration": 6, "velocity": 97}, {"time": 1521, "pitch": 43, "duration": 27, "velocity": 90}, {"time": 1521, "pitch": 55, "duration": 11, "velocity": 97}, {"time": 1521, "pitch": 59, "duration": 10, "velocity": 97}, {"time": 1521, "pitch": 62, "duration": 10, "velocity": 95}, {"time": 1521, "pitch": 66, "duration": 11, "velocity": 89}, {"time": 1533, "pitch": 55, "duration": 8, "velocity": 45}, {"time": 1533, "pitch": 59, "duration": 7, "velocity": 54}, {"time": 1533, "pitch": 62, "duration": 8, "velocity": 44}, {"time": 1533, "pitch": 66, "duration": 8, "velocity": 38}, {"time": 1545, "pitch": 55, "duration": 3, "velocity": 40}, {"time": 1545, "pitch": 59, "duration": 3, "velocity": 53}, {"time": 1545, "pitch": 62, "duration": 3, "velocity": 40}, {"time": 1545, "pitch": 66, "duration": 3, "velocity": 35}, {"time": 1557, "pitch": 45, "duration": 11, "velocity": 54}, {"time": 1557, "pitch": 57, "duration": 11, "velocity": 54}, {"time": 1557, "pitch": 61, "duration": 7, "velocity": 54}, {"time": 1557, "pitch": 64, "duration": 8, "velocity": 54}, {"time": 1569, "pitch": 47, "duration": 17, "velocity": 74}, {"time": 1569, "pitch": 62, "duration": 7, "velocity": 75}, {"time": 1569, "pitch": 66, "duration": 19, "velocity": 88}, {"time": 1575, "pitch": 54, "duration": 10, "velocity": 39}, {"time": 1578, "pitch": 61, "duration": 14, "velocity": 102}, {"time": 1593, "pitch": 45, "duration": 14, "velocity": 73}, {"time": 1593, "pitch": 57, "duration": 10, "velocity": 70}, {"time": 1593, "pitch": 61, "duration": 8, "velocity": 63}, {"time": 1593, "pitch": 64, "duration": 7, "velocity": 69}, {"time": 1599, "pitch": 52, "duration": 6, "velocity": 42}, {"time": 1602, "pitch": 64, "duration": 8, "velocity": 78}, {"time": 1617, "pitch": 43, "duration": 35, "velocity": 72}, {"time": 1620, "pitch": 50, "duration": 27, "velocity": 60}, {"time": 1623, "pitch": 55, "duration": 27, "velocity": 63}, {"time": 1626, "pitch": 59, "duration": 12, "velocity": 56}, {"time": 1653, "pitch": 45, "duration": 6, "velocity": 66}, {"time": 1653, "pitch": 52, "duration": 8, "velocity": 89}, {"time": 1653, "pitch": 57, "duration": 7, "velocity": 89}, {"time": 1653, "pitch": 61, "duration": 7, "velocity": 92}, {"time": 1665, "pitch": 47, "duration": 15, "velocity": 65}, {"time": 1668, "pitch": 54, "duration": 11, "velocity": 77}, {"time": 1671, "pitch": 59, "duration": 4, "velocity": 69}, {"time": 1674, "pitch": 62, "duration": 16, "velocity": 72}, {"time": 1674, "pitch": 66, "duration": 16, "velocity": 90}, {"time": 1689, "pitch": 45, "duration": 11, "velocity": 72}, {"time": 1692, "pitch": 52, "duration": 7, "velocity": 56}, {"time": 1695, "pitch": 57, "duration": 4, "velocity": 69}, {"time": 1698, "pitch": 61, "duration": 15, "velocity": 74}, {"time": 1698, "pitch": 64, "duration": 15, "velocity": 79}, {"time": 1713, "pitch": 43, "duration": 31, "velocity": 64}, {"time": 1716, "pitch": 50, "duration": 29, "velocity": 58}, {"time": 1719, "pitch": 55, "duration": 19, "velocity": 61}, {"time": 1722, "pitch": 59, "duration": 18, "velocity": 82}, {"time": 1740, "pitch": 55, "duration": 6, "velocity": 47}, {"time": 1743, "pitch": 59, "duration": 6, "velocity": 63}, {"time": 1746, "pitch": 62, "duration": 4, "velocity": 78}, {"time": 1749, "pitch": 45, "duration": 6, "velocity": 78}, {"time": 1749, "pitch": 57, "duration": 11, "velocity": 78}, {"time": 1761, "pitch": 38, "duration": 10, "velocity": 69}, {"time": 1764, "pitch": 45, "duration": 7, "velocity": 63}, {"time": 1767, "pitch": 50, "duration": 12, "velocity": 86}, {"time": 1770, "pitch": 57, "duration": 10, "velocity": 93}, {"time": 1779, "pitch": 54, "duration": 1, "velocity": 50}, {"time": 1785, "pitch": 40, "duration": 11, "velocity": 64}, {"time": 1785, "pitch": 52, "duration": 2, "velocity": 64}, {"time": 1785, "pitch": 55, "duration": 3, "velocity": 68}, {"time": 1785, "pitch": 59, "duration": 3, "velocity": 59}, {"time": 1788, "pitch": 47, "duration": 7, "velocity": 47}, {"time": 1791, "pitch": 52, "duration": 8, "velocity": 74}, {"time": 1794, "pitch": 55, "duration": 6, "velocity": 73}, {"time": 1794, "pitch": 59, "duration": 6, "velocity": 83}, {"time": 1809, "pitch": 43, "duration": 11, "velocity": 72}, {"time": 1809, "pitch": 59, "duration": 4, "velocity": 68}, {"time": 1809, "pitch": 62, "duration": 5, "velocity": 71}, {"time": 1812, "pitch": 50, "duration": 7, "velocity": 69}, {"time": 1815, "pitch": 55, "duration": 3, "velocity": 78}, {"time": 1818, "pitch": 59, "duration": 8, "velocity": 72}, {"time": 1818, "pitch": 62, "duration": 8, "velocity": 74}, {"time": 1833, "pitch": 35, "duration": 12, "velocity": 58}, {"time": 1833, "pitch": 50, "duration": 4, "velocity": 63}, {"time": 1833, "pitch": 54, "duration": 5, "velocity": 68}, {"time": 1836, "pitch": 42, "duration": 8, "velocity": 64}, {"time": 1839, "pitch": 50, "duration": 4, "velocity": 64}, {"time": 1842, "pitch": 54, "duration": 9, "velocity": 81}, {"time": 1842, "pitch": 59, "duration": 10, "velocity": 86}, {"time": 1851, "pitch": 50, "duration": 1, "velocity": 85}, {"time": 1857, "pitch": 43, "duration": 17, "velocity": 72}, {"time": 1857, "pitch": 55, "duration": 8, "velocity": 82}, {"time": 1857, "pitch": 59, "duration": 8, "velocity": 72}, {"time": 1857, "pitch": 62, "duration": 7, "velocity": 71}, {"time": 1863, "pitch": 50, "duration": 11, "velocity": 49}, {"time": 1866, "pitch": 59, "duration": 9, "velocity": 88}, {"time": 1866, "pitch": 62, "duration": 10, "velocity": 78}, {"time": 1875, "pitch": 55, "duration": 1, "velocity": 63}, {"time": 1881, "pitch": 45, "duration": 15, "velocity": 57}, {"time": 1881, "pitch": 52, "duration": 5, "velocity": 73}, {"time": 1881, "pitch": 57, "duration": 7, "velocity": 75}, {"time": 1881, "pitch": 61, "duration": 7, "velocity": 61}, {"time": 1890, "pitch": 57, "duration": 9, "velocity": 82}, {"time": 1899, "pitch": 52, "duration": 1, "velocity": 63}, {"time": 1905, "pitch": 47, "duration": 29, "velocity": 89}, {"time": 1905, "pitch": 59, "duration": 7, "velocity": 92}, {"time": 1905, "pitch": 62, "duration": 6, "velocity": 96}, {"time": 1905, "pitch": 66, "duration": 7, "velocity": 107}, {"time": 1911, "pitch": 54, "duration": 7, "velocity": 96}, {"time": 1914, "pitch": 62, "duration": 7, "velocity": 117}, {"time": 1914, "pitch": 66, "duration": 7, "velocity": 122}, {"time": 1920, "pitch": 54, "duration": 8, "velocity": 95}, {"time": 1923, "pitch": 59, "duration": 2, "velocity": 85}, {"time": 1926, "pitch": 62, "duration": 6, "velocity": 112}, {"time": 1926, "pitch": 66, "duration": 6, "velocity": 127}, {"time": 1932, "pitch": 54, "duration": 2, "velocity": 102}, {"time": 1935, "pitch": 62, "duration": 2, "velocity": 127}, {"time": 1935, "pitch": 66, "duration": 3, "velocity": 127}, {"time": 1938, "pitch": 59, "duration": 1, "velocity": 99}, {"time": 1941, "pitch": 45, "duration": 9, "velocity": 112}, {"time": 1941, "pitch": 57, "duration": 10, "velocity": 127}, {"time": 1941, "pitch": 61, "duration": 8, "velocity": 127}, {"time": 1941, "pitch": 64, "duration": 8, "velocity": 102}, {"time": 1953, "pitch": 50, "duration": 14, "velocity": 99}, {"time": 1953, "pitch": 57, "duration": 7, "velocity": 122}, {"time": 1953, "pitch": 62, "duration": 7, "velocity": 122}, {"time": 1953, "pitch": 66, "duration": 7, "velocity": 117}, {"time": 1965, "pitch": 62, "duration": 7, "velocity": 127}, {"time": 1965, "pitch": 66, "duration": 6, "velocity": 127}, {"time": 1971, "pitch": 57, "duration": 1, "velocity": 96}, {"time": 1977, "pitch": 40, "duration": 16, "velocity": 86}, {"time": 1977, "pitch": 59, "duration": 9, "velocity": 102}, {"time": 1977, "pitch": 64, "duration": 10, "velocity": 117}, {"time": 1977, "pitch": 68, "duration": 10, "velocity": 122}, {"time": 1983, "pitch": 47, "duration": 8, "velocity": 58}, {"time": 1989, "pitch": 64, "duration": 6, "velocity": 127}, {"time": 1989, "pitch": 68, "duration": 6, "velocity": 127}, {"time": 1992, "pitch": 47, "duration": 1, "velocity": 85}, {"time": 1995, "pitch": 59, "duration": 1, "velocity": 107}, {"time": 2001, "pitch": 43, "duration": 15, "velocity": 81}, {"time": 2001, "pitch": 55, "duration": 7, "velocity": 112}, {"time": 2001, "pitch": 59, "duration": 7, "velocity": 107}, {"time": 2001, "pitch": 62, "duration": 9, "velocity": 102}, {"time": 2007, "pitch": 50, "duration": 7, "velocity": 57}, {"time": 2013, "pitch": 59, "duration": 6, "velocity": 127}, {"time": 2013, "pitch": 61, "duration": 1, "velocity": 90}, {"time": 2013, "pitch": 62, "duration": 6, "velocity": 127}, {"time": 2019, "pitch": 55, "duration": 1, "velocity": 100}, {"time": 2025, "pitch": 47, "duration": 16, "velocity": 97}, {"time": 2025, "pitch": 59, "duration": 7, "velocity": 107}, {"time": 2025, "pitch": 62, "duration": 7, "velocity": 127}, {"time": 2025, "pitch": 66, "duration": 7, "velocity": 122}, {"time": 2031, "pitch": 54, "duration": 7, "velocity": 97}, {"time": 2037, "pitch": 62, "duration": 6, "velocity": 127}, {"time": 2037, "pitch": 66, "duration": 6, "velocity": 127}, {"time": 2040, "pitch": 54, "duration": 1, "velocity": 107}, {"time": 2043, "pitch": 57, "duration": 4, "velocity": 117}, {"time": 2049, "pitch": 43, "duration": 17, "velocity": 83}, {"time": 2049, "pitch": 55, "duration": 7, "velocity": 117}, {"time": 2049, "pitch": 59, "duration": 7, "velocity": 97}, {"time": 2049, "pitch": 62, "duration": 7, "velocity": 100}, {"time": 2055, "pitch": 50, "duration": 7, "velocity": 60}, {"time": 2061, "pitch": 59, "duration": 6, "velocity": 127}, {"time": 2061, "pitch": 62, "duration": 6, "velocity": 117}, {"time": 2064, "pitch": 50, "duration": 2, "velocity": 85}, {"time": 2067, "pitch": 55, "duration": 1, "velocity": 100}, {"time": 2073, "pitch": 45, "duration": 16, "velocity": 88}, {"time": 2073, "pitch": 57, "duration": 8, "velocity": 117}, {"time": 2073, "pitch": 61, "duration": 9, "velocity": 127}, {"time": 2073, "pitch": 64, "duration": 8, "velocity": 100}, {"time": 2079, "pitch": 52, "duration": 7, "velocity": 75}, {"time": 2085, "pitch": 61, "duration": 6, "velocity": 127}, {"time": 2085, "pitch": 64, "duration": 6, "velocity": 122}, {"time": 2088, "pitch": 52, "duration": 1, "velocity": 45}, {"time": 2091, "pitch": 57, "duration": 2, "velocity": 112}, {"time": 2097, "pitch": 38, "duration": 16, "velocity": 100}, {"time": 2097, "pitch": 57, "duration": 9, "velocity": 122}, {"time": 2097, "pitch": 62, "duration": 9, "velocity": 127}, {"time": 2097, "pitch": 66, "duration": 9, "velocity": 127}, {"time": 2103, "pitch": 50, "duration": 7, "velocity": 68}, {"time": 2109, "pitch": 62, "duration": 5, "velocity": 127}, {"time": 2109, "pitch": 66, "duration": 7, "velocity": 127}, {"time": 2112, "pitch": 50, "duration": 2, "velocity": 95}, {"time": 2115, "pitch": 57, "duration": 2, "velocity": 100}, {"time": 2121, "pitch": 42, "duration": 17, "velocity": 122}, {"time": 2121, "pitch": 58, "duration": 8, "velocity": 127}, {"time": 2121, "pitch": 61, "duration": 8, "velocity": 127}, {"time": 2127, "pitch": 54, "duration": 7, "velocity": 100}, {"time": 2133, "pitch": 58, "duration": 4, "velocity": 127}, {"time": 2133, "pitch": 61, "duration": 4, "velocity": 127}, {"time": 2136, "pitch": 54, "duration": 2, "velocity": 112}, {"time": 2139, "pitch": 58, "duration": 1, "velocity": 127}, {"time": 2139, "pitch": 61, "duration": 1, "velocity": 127}, {"time": 2145, "pitch": 43, "duration": 16, "velocity": 97}, {"time": 2145, "pitch": 55, "duration": 6, "velocity": 122}, {"time": 2145, "pitch": 59, "duration": 7, "velocity": 102}, {"time": 2145, "pitch": 62, "duration": 7, "velocity": 102}, {"time": 2151, "pitch": 50, "duration": 6, "velocity": 69}, {"time": 2154, "pitch": 62, "duration": 1, "velocity": 33}, {"time": 2157, "pitch": 59, "duration": 6, "velocity": 127}, {"time": 2157, "pitch": 61, "duration": 1, "velocity": 95}, {"time": 2157, "pitch": 62, "duration": 6, "velocity": 122}, {"time": 2160, "pitch": 50, "duration": 2, "velocity": 89}, {"time": 2163, "pitch": 55, "duration": 1, "velocity": 99}, {"time": 2169, "pitch": 45, "duration": 17, "velocity": 86}, {"time": 2169, "pitch": 57, "duration": 7, "velocity": 127}, {"time": 2169, "pitch": 61, "duration": 7, "velocity": 127}, {"time": 2169, "pitch": 64, "duration": 7, "velocity": 112}, {"time": 2175, "pitch": 52, "duration": 7, "velocity": 95}, {"time": 2181, "pitch": 61, "duration": 6, "velocity": 127}, {"time": 2181, "pitch": 64, "duration": 6, "velocity": 122}, {"time": 2184, "pitch": 52, "duration": 1, "velocity": 95}, {"time": 2187, "pitch": 57, "duration": 1, "velocity": 112}, {"time": 2193, "pitch": 40, "duration": 16, "velocity": 95}, {"time": 2193, "pitch": 59, "duration": 8, "velocity": 122}, {"time": 2193, "pitch": 64, "duration": 9, "velocity": 117}, {"time": 2193, "pitch": 67, "duration": 9, "velocity": 107}, {"time": 2199, "pitch": 47, "duration": 10, "velocity": 48}, {"time": 2205, "pitch": 64, "duration": 6, "velocity": 127}, {"time": 2205, "pitch": 67, "duration": 6, "velocity": 127}, {"time": 2208, "pitch": 52, "duration": 2, "velocity": 89}, {"time": 2211, "pitch": 59, "duration": 3, "velocity": 122}, {"time": 2217, "pitch": 47, "duration": 17, "velocity": 83}, {"time": 2217, "pitch": 59, "duration": 7, "velocity": 102}, {"time": 2217, "pitch": 62, "duration": 7, "velocity": 102}, {"time": 2217, "pitch": 66, "duration": 8, "velocity": 112}, {"time": 2223, "pitch": 54, "duration": 8, "velocity": 92}, {"time": 2229, "pitch": 62, "duration": 5, "velocity": 127}, {"time": 2229, "pitch": 66, "duration": 6, "velocity": 127}, {"time": 2232, "pitch": 54, "duration": 2, "velocity": 107}, {"time": 2235, "pitch": 57, "duration": 5, "velocity": 127}, {"time": 2241, "pitch": 43, "duration": 18, "velocity": 83}, {"time": 2241, "pitch": 59, "duration": 10, "velocity": 122}, {"time": 2241, "pitch": 62, "duration": 10, "velocity": 112}, {"time": 2247, "pitch": 50, "duration": 7, "velocity": 93}, {"time": 2253, "pitch": 59, "duration": 7, "velocity": 127}, {"time": 2253, "pitch": 62, "duration": 6, "velocity": 117}, {"time": 2256, "pitch": 50, "duration": 3, "velocity": 83}, {"time": 2259, "pitch": 55, "duration": 2, "velocity": 96}, {"time": 2265, "pitch": 45, "duration": 13, "velocity": 82}, {"time": 2265, "pitch": 57, "duration": 10, "velocity": 127}, {"time": 2265, "pitch": 61, "duration": 10, "velocity": 127}, {"time": 2265, "pitch": 64, "duration": 9, "velocity": 112}, {"time": 2277, "pitch": 61, "duration": 5, "velocity": 127}, {"time": 2277, "pitch": 64, "duration": 5, "velocity": 100}, {"time": 2289, "pitch": 47, "duration": 7, "velocity": 127}, {"time": 2289, "pitch": 59, "duration": 7, "velocity": 127}, {"time": 2289, "pitch": 62, "duration": 6, "velocity": 127}, {"time": 2289, "pitch": 66, "duration": 6, "velocity": 127}, {"time": 2298, "pitch": 49, "duration": 8, "velocity": 127}, {"time": 2298, "pitch": 61, "duration": 7, "velocity": 127}, {"time": 2298, "pitch": 64, "duration": 7, "velocity": 117}, {"time": 2307, "pitch": 50, "duration": 12, "velocity": 127}, {"time": 2307, "pitch": 57, "duration": 11, "velocity": 127}, {"time": 2307, "pitch": 62, "duration": 11, "velocity": 127}, {"time": 2307, "pitch": 66, "duration": 12, "velocity": 127}, {"time": 2316, "pitch": 40, "duration": 7, "velocity": 90}, {"time": 2316, "pitch": 52, "duration": 7, "velocity": 117}, {"time": 2316, "pitch": 59, "duration": 7, "velocity": 127}, {"time": 2316, "pitch": 64, "duration": 7, "velocity": 127}, {"time": 2316, "pitch": 67, "duration": 7, "velocity": 117}, {"time": 2325, "pitch": 42, "duration": 5, "velocity": 117}, {"time": 2325, "pitch": 54, "duration": 5, "velocity": 102}, {"time": 2325, "pitch": 58, "duration": 6, "velocity": 127}, {"time": 2325, "pitch": 61, "duration": 5, "velocity": 127}, {"time": 2325, "pitch": 66, "duration": 6, "velocity": 127}, {"time": 2331, "pitch": 45, "duration": 5, "velocity": 127}, {"time": 2331, "pitch": 57, "duration": 4, "velocity": 122}, {"time": 2331, "pitch": 61, "duration": 5, "velocity": 127}, {"time": 2331, "pitch": 64, "duration": 4, "velocity": 117}, {"time": 2337, "pitch": 43, "duration": 19, "velocity": 88}, {"time": 2337, "pitch": 50, "duration": 19, "velocity": 112}, {"time": 2337, "pitch": 55, "duration": 16, "velocity": 107}, {"time": 2337, "pitch": 62, "duration": 9, "velocity": 117}, {"time": 2337, "pitch": 67, "duration": 9, "velocity": 107}, {"time": 2337, "pitch": 71, "duration": 9, "velocity": 99}, {"time": 2349, "pitch": 62, "duration": 7, "velocity": 127}, {"time": 2349, "pitch": 67, "duration": 9, "velocity": 127}, {"time": 2349, "pitch": 71, "duration": 7, "velocity": 122}, {"time": 2355, "pitch": 55, "duration": 2, "velocity": 95}, {"time": 2361, "pitch": 45, "duration": 19, "velocity": 78}, {"time": 2361, "pitch": 52, "duration": 15, "velocity": 95}, {"time": 2361, "pitch": 57, "duration": 13, "velocity": 102}, {"time": 2361, "pitch": 64, "duration": 9, "velocity": 122}, {"time": 2361, "pitch": 69, "duration": 9, "velocity": 127}, {"time": 2361, "pitch": 73, "duration": 9, "velocity": 127}, {"time": 2373, "pitch": 64, "duration": 7, "velocity": 112}, {"time": 2373, "pitch": 69, "duration": 6, "velocity": 127}, {"time": 2373, "pitch": 73, "duration": 6, "velocity": 127}, {"time": 2379, "pitch": 52, "duration": 5, "velocity": 102}, {"time": 2385, "pitch": 47, "duration": 30, "velocity": 86}, {"time": 2385, "pitch": 59, "duration": 7, "velocity": 117}, {"time": 2385, "pitch": 62, "duration": 7, "velocity": 127}, {"time": 2385, "pitch": 66, "duration": 7, "velocity": 117}, {"time": 2391, "pitch": 54, "duration": 10, "velocity": 81}, {"time": 2397, "pitch": 59, "duration": 7, "velocity": 127}, {"time": 2397, "pitch": 62, "duration": 7, "velocity": 127}, {"time": 2397, "pitch": 66, "duration": 7, "velocity": 127}, {"time": 2403, "pitch": 54, "duration": 7, "velocity": 107}, {"time": 2406, "pitch": 59, "duration": 1, "velocity": 89}, {"time": 2406, "pitch": 62, "duration": 1, "velocity": 96}, {"time": 2406, "pitch": 66, "duration": 1, "velocity": 96}, {"time": 2409, "pitch": 59, "duration": 4, "velocity": 117}, {"time": 2409, "pitch": 62, "duration": 5, "velocity": 127}, {"time": 2409, "pitch": 66, "duration": 7, "velocity": 127}, {"time": 2412, "pitch": 54, "duration": 2, "velocity": 127}, {"time": 2415, "pitch": 59, "duration": 3, "velocity": 127}, {"time": 2418, "pitch": 61, "duration": 1, "velocity": 34}, {"time": 2421, "pitch": 45, "duration": 7, "velocity": 122}, {"time": 2421, "pitch": 57, "duration": 7, "velocity": 127}, {"time": 2421, "pitch": 61, "duration": 7, "velocity": 127}, {"time": 2421, "pitch": 64, "duration": 6, "velocity": 117}, {"time": 2433, "pitch": 43, "duration": 21, "velocity": 75}, {"time": 2433, "pitch": 50, "duration": 24, "velocity": 86}, {"time": 2433, "pitch": 55, "duration": 16, "velocity": 107}, {"time": 2433, "pitch": 59, "duration": 8, "velocity": 127}, {"time": 2433, "pitch": 62, "duration": 10, "velocity": 127}, {"time": 2433, "pitch": 67, "duration": 10, "velocity": 112}, {"time": 2445, "pitch": 59, "duration": 7, "velocity": 122}, {"time": 2445, "pitch": 62, "duration": 6, "velocity": 127}, {"time": 2445, "pitch": 67, "duration": 6, "velocity": 122}, {"time": 2451, "pitch": 55, "duration": 2, "velocity": 92}, {"time": 2457, "pitch": 45, "duration": 21, "velocity": 107}, {"time": 2457, "pitch": 57, "duration": 8, "velocity": 127}, {"time": 2457, "pitch": 61, "duration": 8, "velocity": 127}, {"time": 2457, "pitch": 64, "duration": 7, "velocity": 102}, {"time": 2463, "pitch": 52, "duration": 10, "velocity": 70}, {"time": 2469, "pitch": 57, "duration": 7, "velocity": 117}, {"time": 2469, "pitch": 61, "duration": 6, "velocity": 127}, {"time": 2469, "pitch": 64, "duration": 6, "velocity": 107}, {"time": 2475, "pitch": 52, "duration": 5, "velocity": 95}, {"time": 2481, "pitch": 47, "duration": 35, "velocity": 107}, {"time": 2481, "pitch": 59, "duration": 1, "velocity": 107}, {"time": 2481, "pitch": 62, "duration": 1, "velocity": 127}, {"time": 2481, "pitch": 66, "duration": 1, "velocity": 127}, {"time": 2487, "pitch": 54, "duration": 8, "velocity": 66}, {"time": 2490, "pitch": 71, "duration": 1, "velocity": 86}, {"time": 2490, "pitch": 74, "duration": 1, "velocity": 96}, {"time": 2490, "pitch": 78, "duration": 1, "velocity": 96}, {"time": 2493, "pitch": 59, "duration": 4, "velocity": 122}, {"time": 2493, "pitch": 71, "duration": 1, "velocity": 117}, {"time": 2493, "pitch": 74, "duration": 1, "velocity": 127}, {"time": 2493, "pitch": 78, "duration": 1, "velocity": 112}, {"time": 2499, "pitch": 54, "duration": 5, "velocity": 112}, {"time": 2502, "pitch": 59, "duration": 3, "velocity": 99}, {"time": 2502, "pitch": 62, "duration": 3, "velocity": 127}, {"time": 2502, "pitch": 66, "duration": 3, "velocity": 122}, {"time": 2505, "pitch": 54, "duration": 4, "velocity": 78}, {"time": 2508, "pitch": 59, "duration": 4, "velocity": 117}, {"time": 2508, "pitch": 62, "duration": 4, "velocity": 127}, {"time": 2508, "pitch": 66, "duration": 4, "velocity": 127}, {"time": 2511, "pitch": 54, "duration": 5, "velocity": 99}, {"time": 2514, "pitch": 59, "duration": 1, "velocity": 102}, {"time": 2514, "pitch": 62, "duration": 1, "velocity": 127}, {"time": 2514, "pitch": 66, "duration": 1, "velocity": 117}, {"time": 2517, "pitch": 47, "duration": 4, "velocity": 107}, {"time": 2517, "pitch": 59, "duration": 4, "velocity": 122}, {"time": 2517, "pitch": 62, "duration": 4, "velocity": 127}, {"time": 2517, "pitch": 66, "duration": 1, "velocity": 127}, {"time": 2523, "pitch": 45, "duration": 6, "velocity": 127}, {"time": 2523, "pitch": 57, "duration": 5, "velocity": 117}, {"time": 2523, "pitch": 61, "duration": 5, "velocity": 127}, {"time": 2523, "pitch": 64, "duration": 5, "velocity": 117}, {"time": 2529, "pitch": 43, "duration": 23, "velocity": 93}, {"time": 2529, "pitch": 55, "duration": 8, "velocity": 127}, {"time": 2529, "pitch": 59, "duration": 8, "velocity": 127}, {"time": 2529, "pitch": 62, "duration": 10, "velocity": 127}, {"time": 2535, "pitch": 50, "duration": 8, "velocity": 75}, {"time": 2541, "pitch": 55, "duration": 8, "velocity": 122}, {"time": 2541, "pitch": 59, "duration": 10, "velocity": 127}, {"time": 2541, "pitch": 62, "duration": 7, "velocity": 122}, {"time": 2547, "pitch": 50, "duration": 6, "velocity": 93}, {"time": 2553, "pitch": 45, "duration": 22, "velocity": 102}, {"time": 2553, "pitch": 57, "duration": 9, "velocity": 127}, {"time": 2553, "pitch": 61, "duration": 9, "velocity": 127}, {"time": 2553, "pitch": 64, "duration": 8, "velocity": 107}, {"time": 2559, "pitch": 52, "duration": 10, "velocity": 56}, {"time": 2565, "pitch": 57, "duration": 8, "velocity": 127}, {"time": 2565, "pitch": 61, "duration": 7, "velocity": 127}, {"time": 2565, "pitch": 64, "duration": 7, "velocity": 127}, {"time": 2571, "pitch": 52, "duration": 5, "velocity": 90}, {"time": 2577, "pitch": 40, "duration": 18, "velocity": 88}, {"time": 2577, "pitch": 52, "duration": 14, "velocity": 107}, {"time": 2577, "pitch": 59, "duration": 10, "velocity": 122}, {"time": 2577, "pitch": 64, "duration": 10, "velocity": 117}, {"time": 2577, "pitch": 67, "duration": 10, "velocity": 112}, {"time": 2589, "pitch": 59, "duration": 7, "velocity": 127}, {"time": 2589, "pitch": 64, "duration": 7, "velocity": 127}, {"time": 2589, "pitch": 67, "duration": 6, "velocity": 127}, {"time": 2595, "pitch": 47, "duration": 1, "velocity": 67}, {"time": 2601, "pitch": 47, "duration": 15, "velocity": 96}, {"time": 2601, "pitch": 59, "duration": 7, "velocity": 112}, {"time": 2601, "pitch": 62, "duration": 7, "velocity": 122}, {"time": 2601, "pitch": 66, "duration": 7, "velocity": 117}, {"time": 2607, "pitch": 54, "duration": 7, "velocity": 99}, {"time": 2613, "pitch": 62, "duration": 6, "velocity": 127}, {"time": 2613, "pitch": 66, "duration": 6, "velocity": 127}, {"time": 2619, "pitch": 45, "duration": 6, "velocity": 107}, {"time": 2619, "pitch": 57, "duration": 5, "velocity": 112}, {"time": 2625, "pitch": 43, "duration": 22, "velocity": 89}, {"time": 2625, "pitch": 55, "duration": 8, "velocity": 127}, {"time": 2625, "pitch": 59, "duration": 10, "velocity": 117}, {"time": 2625, "pitch": 62, "duration": 9, "velocity": 102}, {"time": 2631, "pitch": 50, "duration": 8, "velocity": 50}, {"time": 2637, "pitch": 55, "duration": 7, "velocity": 122}, {"time": 2637, "pitch": 59, "duration": 8, "velocity": 127}, {"time": 2637, "pitch": 62, "duration": 6, "velocity": 117}, {"time": 2643, "pitch": 50, "duration": 6, "velocity": 86}, {"time": 2649, "pitch": 45, "duration": 23, "velocity": 97}, {"time": 2649, "pitch": 57, "duration": 9, "velocity": 112}, {"time": 2649, "pitch": 61, "duration": 10, "velocity": 127}, {"time": 2649, "pitch": 64, "duration": 8, "velocity": 102}, {"time": 2655, "pitch": 52, "duration": 9, "velocity": 52}, {"time": 2661, "pitch": 57, "duration": 10, "velocity": 127}, {"time": 2661, "pitch": 61, "duration": 7, "velocity": 127}, {"time": 2661, "pitch": 64, "duration": 7, "velocity": 117}, {"time": 2667, "pitch": 52, "duration": 5, "velocity": 78}, {"time": 2673, "pitch": 50, "duration": 13, "velocity": 127}, {"time": 2673, "pitch": 57, "duration": 10, "velocity": 127}, {"time": 2673, "pitch": 62, "duration": 10, "velocity": 127}, {"time": 2673, "pitch": 66, "duration": 10, "velocity": 127}, {"time": 2685, "pitch": 57, "duration": 4, "velocity": 117}, {"time": 2685, "pitch": 62, "duration": 6, "velocity": 127}, {"time": 2685, "pitch": 66, "duration": 6, "velocity": 127}, {"time": 2688, "pitch": 50, "duration": 1, "velocity": 112}, {"time": 2691, "pitch": 57, "duration": 2, "velocity": 100}, {"time": 2697, "pitch": 42, "duration": 17, "velocity": 127}, {"time": 2697, "pitch": 54, "duration": 13, "velocity": 117}, {"time": 2697, "pitch": 58, "duration": 10, "velocity": 127}, {"time": 2697, "pitch": 61, "duration": 10, "velocity": 127}, {"time": 2709, "pitch": 58, "duration": 6, "velocity": 127}, {"time": 2709, "pitch": 61, "duration": 6, "velocity": 127}, {"time": 2712, "pitch": 54, "duration": 2, "velocity": 122}, {"time": 2715, "pitch": 57, "duration": 4, "velocity": 127}, {"time": 2721, "pitch": 43, "duration": 22, "velocity": 97}, {"time": 2721, "pitch": 55, "duration": 8, "velocity": 127}, {"time": 2721, "pitch": 59, "duration": 7, "velocity": 107}, {"time": 2721, "pitch": 62, "duration": 8, "velocity": 112}, {"time": 2727, "pitch": 50, "duration": 8, "velocity": 61}, {"time": 2733, "pitch": 55, "duration": 8, "velocity": 127}, {"time": 2733, "pitch": 59, "duration": 8, "velocity": 127}, {"time": 2733, "pitch": 62, "duration": 7, "velocity": 122}, {"time": 2739, "pitch": 50, "duration": 7, "velocity": 92}, {"time": 2745, "pitch": 45, "duration": 16, "velocity": 99}, {"time": 2745, "pitch": 57, "duration": 8, "velocity": 117}, {"time": 2745, "pitch": 61, "duration": 10, "velocity": 127}, {"time": 2745, "pitch": 64, "duration": 8, "velocity": 112}, {"time": 2751, "pitch": 52, "duration": 6, "velocity": 54}, {"time": 2757, "pitch": 57, "duration": 5, "velocity": 112}, {"time": 2757, "pitch": 61, "duration": 7, "velocity": 127}, {"time": 2757, "pitch": 64, "duration": 7, "velocity": 122}, {"time": 2760, "pitch": 52, "duration": 1, "velocity": 83}, {"time": 2769, "pitch": 40, "duration": 18, "velocity": 97}, {"time": 2769, "pitch": 59, "duration": 8, "velocity": 122}, {"time": 2769, "pitch": 64, "duration": 10, "velocity": 112}, {"time": 2769, "pitch": 67, "duration": 10, "velocity": 107}, {"time": 2775, "pitch": 47, "duration": 8, "velocity": 60}, {"time": 2781, "pitch": 59, "duration": 8, "velocity": 112}, {"time": 2781, "pitch": 64, "duration": 7, "velocity": 127}, {"time": 2781, "pitch": 67, "duration": 6, "velocity": 117}, {"time": 2787, "pitch": 47, "duration": 1, "velocity": 71}, {"time": 2793, "pitch": 47, "duration": 13, "velocity": 82}, {"time": 2793, "pitch": 59, "duration": 8, "velocity": 122}, {"time": 2793, "pitch": 62, "duration": 7, "velocity": 127}, {"time": 2793, "pitch": 66, "duration": 8, "velocity": 127}, {"time": 2799, "pitch": 54, "duration": 7, "velocity": 93}, {"time": 2805, "pitch": 62, "duration": 6, "velocity": 127}, {"time": 2805, "pitch": 66, "duration": 6, "velocity": 127}, {"time": 2811, "pitch": 45, "duration": 6, "velocity": 117}, {"time": 2817, "pitch": 43, "duration": 21, "velocity": 89}, {"time": 2817, "pitch": 55, "duration": 8, "velocity": 122}, {"time": 2817, "pitch": 59, "duration": 8, "velocity": 112}, {"time": 2817, "pitch": 62, "duration": 8, "velocity": 107}, {"time": 2823, "pitch": 50, "duration": 7, "velocity": 59}, {"time": 2829, "pitch": 55, "duration": 4, "velocity": 107}, {"time": 2829, "pitch": 59, "duration": 8, "velocity": 127}, {"time": 2829, "pitch": 62, "duration": 7, "velocity": 117}, {"time": 2832, "pitch": 50, "duration": 9, "velocity": 95}, {"time": 2835, "pitch": 55, "duration": 4, "velocity": 92}, {"time": 2841, "pitch": 45, "duration": 25, "velocity": 99}, {"time": 2841, "pitch": 57, "duration": 25, "velocity": 122}, {"time": 2841, "pitch": 61, "duration": 25, "velocity": 127}, {"time": 2841, "pitch": 64, "duration": 25, "velocity": 112}, {"time": 2865, "pitch": 47, "duration": 24, "velocity": 77}, {"time": 2868, "pitch": 54, "duration": 9, "velocity": 88}, {"time": 2870, "pitch": 59, "duration": 5, "velocity": 66}, {"time": 2873, "pitch": 66, "duration": 21, "velocity": 99}, {"time": 2879, "pitch": 54, "duration": 12, "velocity": 43}, {"time": 2882, "pitch": 59, "duration": 4, "velocity": 61}, {"time": 2885, "pitch": 62, "duration": 8, "velocity": 69}, {"time": 2891, "pitch": 47, "duration": 15, "velocity": 69}, {"time": 2894, "pitch": 59, "duration": 3, "velocity": 55}, {"time": 2897, "pitch": 61, "duration": 16, "velocity": 100}, {"time": 2903, "pitch": 54, "duration": 3, "velocity": 47}, {"time": 2906, "pitch": 59, "duration": 5, "velocity": 65}, {"time": 2909, "pitch": 62, "duration": 3, "velocity": 52}, {"time": 2912, "pitch": 45, "duration": 42, "velocity": 71}, {"time": 2915, "pitch": 59, "duration": 7, "velocity": 52}, {"time": 2918, "pitch": 61, "duration": 4, "velocity": 54}, {"time": 2921, "pitch": 66, "duration": 9, "velocity": 92}, {"time": 2927, "pitch": 59, "duration": 6, "velocity": 37}, {"time": 2930, "pitch": 61, "duration": 4, "velocity": 61}, {"time": 2933, "pitch": 62, "duration": 7, "velocity": 72}, {"time": 2939, "pitch": 59, "duration": 7, "velocity": 37}, {"time": 2942, "pitch": 61, "duration": 3, "velocity": 35}, {"time": 2945, "pitch": 64, "duration": 7, "velocity": 76}, {"time": 2948, "pitch": 59, "duration": 6, "velocity": 45}, {"time": 2951, "pitch": 61, "duration": 5, "velocity": 56}, {"time": 2954, "pitch": 62, "duration": 6, "velocity": 54}, {"time": 2957, "pitch": 59, "duration": 3, "velocity": 52}, {"time": 2960, "pitch": 43, "duration": 49, "velocity": 72}, {"time": 2963, "pitch": 50, "duration": 9, "velocity": 47}, {"time": 2966, "pitch": 55, "duration": 6, "velocity": 55}, {"time": 2969, "pitch": 62, "duration": 42, "velocity": 89}, {"time": 2975, "pitch": 50, "duration": 8, "velocity": 42}, {"time": 2978, "pitch": 55, "duration": 32, "velocity": 50}, {"time": 2981, "pitch": 59, "duration": 30, "velocity": 56}, {"time": 2985, "pitch": 50, "duration": 22, "velocity": 44}, {"time": 3032, "pitch": 35, "duration": 92, "velocity": 83}, {"time": 3037, "pitch": 42, "duration": 87, "velocity": 45}, {"time": 3040, "pitch": 47, "duration": 84, "velocity": 65}, {"time": 3043, "pitch": 49, "duration": 2, "velocity": 50}, {"time": 3045, "pitch": 50, "duration": 4, "velocity": 52}, {"time": 3048, "pitch": 54, "duration": 3, "velocity": 43}, {"time": 3051, "pitch": 59, "duration": 1, "velocity": 41}, {"time": 3054, "pitch": 61, "duration": 2, "velocity": 63}, {"time": 3058, "pitch": 62, "duration": 5, "velocity": 66}, {"time": 3062, "pitch": 66, "duration": 4, "velocity": 65}, {"time": 3066, "pitch": 71, "duration": 1, "velocity": 65}, {"time": 3070, "pitch": 74, "duration": 5, "velocity": 65}, {"time": 3075, "pitch": 78, "duration": 5, "velocity": 57}, {"time": 3080, "pitch": 83, "duration": 1, "velocity": 61}, {"time": 3087, "pitch": 86, "duration": 1, "velocity": 66}, {"time": 3093, "pitch": 90, "duration": 1, "velocity": 52}, {"time": 3104, "pitch": 95, "duration": 20, "velocity": 35}, {"time": 3104, "pitch": 98, "duration": 20, "velocity": 51}, {"time": 3105, "pitch": 102, "duration": 19, "velocity": 55}], "annotations": [{"time": 9, "annotation": {"number": 64, "value": 127}, "group": "control_change"}, {"time": 80, "annotation": {"number": 64, "value": 0}, "group": "control_change"}, {"time": 81, "annotation": {"number": 64, "value": 127}, "group": "control_change"}, {"time": 104, "annotation": {"number": 64, "value": 0}, "group": "control_change"}, {"time": 105, "annotation": {"number": 64, "value": 127}, "group": "control_change"}, {"time": 128, "annotation": {"number": 64, "value": 0}, "group": "control_change"}, {"time": 129, "annotation": {"number": 64, "value": 127}, "group": "control_change"}, {"time": 151, "annotation": {"number": 64, "value": 0}, "group": "control_change"}, {"time": 153, "annotation": {"number": 64, "value": 127}, "group": "control_change"}, {"time": 175, "annotation": {"number": 64, "value": 0}, "group": "control_change"}, {"time": 178, "annotation": {"number": 64, "value": 127}, "group": "control_change"}, {"time": 199, "annotation": {"number": 64, "value": 0}, "group": "control_change"}, {"time": 202, "annotation": {"number": 64, "value": 127}, "group": "control_change"}, {"time": 224, "annotation": {"number": 64, "value": 0}, "group": "control_change"}, {"time": 226, "annotation": {"number": 64, "value": 127}, "group": "control_change"}, {"time": 246, "annotation": {"number": 64, "value": 0}, "group": "control_change"}, {"time": 248, "annotation": {"number": 64, "value": 127}, "group": "control_change"}, {"time": 285, "annotation": {"number": 64, "value": 0}, "group": "control_change"}, {"time": 289, "annotation": {"number": 64, "value": 127}, "group": "control_change"}, {"time": 295, "annotation": {"number": 64, "value": 0}, "group": "control_change"}, {"time": 297, "annotation": {"number": 64, "value": 127}, "group": "control_change"}, {"time": 319, "annotation": {"number": 64, "value": 0}, "group": "control_change"}, {"time": 321, "annotation": {"number": 64, "value": 127}, "group": "control_change"}, {"time": 343, "annotation": {"number": 64, "value": 0}, "group": "control_change"}, {"time": 345, "annotation": {"number": 64, "value": 127}, "group": "control_change"}, {"time": 380, "annotation": {"number": 64, "value": 0}, "group": "control_change"}, {"time": 383, "annotation": {"number": 64, "value": 127}, "group": "control_change"}, {"time": 391, "annotation": {"number": 64, "value": 0}, "group": "control_change"}, {"time": 393, "annotation": {"number": 64, "value": 127}, "group": "control_change"}, {"time": 416, "annotation": {"number": 64, "value": 0}, "group": "control_change"}, {"time": 417, "annotation": {"number": 64, "value": 127}, "group": "control_change"}, {"time": 439, "annotation": {"number": 64, "value": 0}, "group": "control_change"}, {"time": 441, "annotation": {"number": 64, "value": 127}, "group": "control_change"}, {"time": 463, "annotation": {"number": 64, "value": 0}, "group": "control_change"}, {"time": 465, "annotation": {"number": 64, "value": 127}, "group": "control_change"}, {"time": 487, "annotation": {"number": 64, "value": 0}, "group": "control_change"}, {"time": 490, "annotation": {"number": 64, "value": 127}, "group": "control_change"}, {"time": 511, "annotation": {"number": 64, "value": 0}, "group": "control_change"}, {"time": 513, "annotation": {"number": 64, "value": 127}, "group": "control_change"}, {"time": 535, "annotation": {"number": 64, "value": 0}, "group": "control_change"}, {"time": 537, "annotation": {"number": 64, "value": 127}, "group": "control_change"}, {"time": 560, "annotation": {"number": 64, "value": 0}, "group": "control_change"}, {"time": 562, "annotation": {"number": 64, "value": 127}, "group": "control_change"}, {"time": 584, "annotation": {"number": 64, "value": 0}, "group": "control_change"}, {"time": 585, "annotation": {"number": 64, "value": 127}, "group": "control_change"}, {"time": 607, "annotation": {"number": 64, "value": 0}, "group": "control_change"}, {"time": 609, "annotation": {"number": 64, "value": 127}, "group": "control_change"}, {"time": 631, "annotation": {"number": 64, "value": 0}, "group": "control_change"}, {"time": 633, "annotation": {"number": 64, "value": 127}, "group": "control_change"}, {"time": 668, "annotation": {"number": 64, "value": 0}, "group": "control_change"}, {"time": 671, "annotation": {"number": 64, "value": 127}, "group": "control_change"}, {"time": 679, "annotation": {"number": 64, "value": 0}, "group": "control_change"}, {"time": 681, "annotation": {"number": 64, "value": 127}, "group": "control_change"}, {"time": 702, "annotation": {"number": 64, "value": 0}, "group": "control_change"}, {"time": 705, "annotation": {"number": 64, "value": 127}, "group": "control_change"}, {"time": 727, "annotation": {"number": 64, "value": 0}, "group": "control_change"}, {"time": 729, "annotation": {"number": 64, "value": 127}, "group": "control_change"}, {"time": 764, "annotation": {"number": 64, "value": 0}, "group": "control_change"}, {"time": 768, "annotation": {"number": 64, "value": 127}, "group": "control_change"}, {"time": 775, "annotation": {"number": 64, "value": 0}, "group": "control_change"}, {"time": 777, "annotation": {"number": 64, "value": 127}, "group": "control_change"}, {"time": 798, "annotation": {"number": 64, "value": 0}, "group": "control_change"}, {"time": 801, "annotation": {"number": 64, "value": 127}, "group": "control_change"}, {"time": 822, "annotation": {"number": 64, "value": 0}, "group": "control_change"}, {"time": 824, "annotation": {"number": 64, "value": 127}, "group": "control_change"}, {"time": 847, "annotation": {"number": 64, "value": 0}, "group": "control_change"}, {"time": 849, "annotation": {"number": 64, "value": 127}, "group": "control_change"}, {"time": 871, "annotation": {"number": 64, "value": 0}, "group": "control_change"}, {"time": 873, "annotation": {"number": 64, "value": 127}, "group": "control_change"}, {"time": 894, "annotation": {"number": 64, "value": 0}, "group": "control_change"}, {"time": 897, "annotation": {"number": 64, "value": 127}, "group": "control_change"}, {"time": 919, "annotation": {"number": 64, "value": 0}, "group": "control_change"}, {"time": 921, "annotation": {"number": 64, "value": 127}, "group": "control_change"}, {"time": 955, "annotation": {"number": 64, "value": 0}, "group": "control_change"}, {"time": 968, "annotation": {"number": 64, "value": 127}, "group": "control_change"}, {"time": 992, "annotation": {"number": 64, "value": 0}, "group": "control_change"}, {"time": 994, "annotation": {"number": 64, "value": 127}, "group": "control_change"}, {"time": 1016, "annotation": {"number": 64, "value": 0}, "group": "control_change"}, {"time": 1018, "annotation": {"number": 64, "value": 127}, "group": "control_change"}, {"time": 1040, "annotation": {"number": 64, "value": 0}, "group": "control_change"}, {"time": 1042, "annotation": {"number": 64, "value": 127}, "group": "control_change"}, {"time": 1063, "annotation": {"number": 64, "value": 0}, "group": "control_change"}, {"time": 1066, "annotation": {"number": 64, "value": 127}, "group": "control_change"}, {"time": 1087, "annotation": {"number": 64, "value": 0}, "group": "control_change"}, {"time": 1089, "annotation": {"number": 64, "value": 127}, "group": "control_change"}, {"time": 1111, "annotation": {"number": 64, "value": 0}, "group": "control_change"}, {"time": 1113, "annotation": {"number": 64, "value": 127}, "group": "control_change"}, {"time": 1135, "annotation": {"number": 64, "value": 0}, "group": "control_change"}, {"time": 1137, "annotation": {"number": 64, "value": 127}, "group": "control_change"}, {"time": 1159, "annotation": {"number": 64, "value": 0}, "group": "control_change"}, {"time": 1162, "annotation": {"number": 64, "value": 127}, "group": "control_change"}, {"time": 1183, "annotation": {"number": 64, "value": 0}, "group": "control_change"}, {"time": 1185, "annotation": {"number": 64, "value": 127}, "group": "control_change"}, {"time": 1208, "annotation": {"number": 64, "value": 0}, "group": "control_change"}, {"time": 1210, "annotation": {"number": 64, "value": 127}, "group": "control_change"}, {"time": 1231, "annotation": {"number": 64, "value": 0}, "group": "control_change"}, {"time": 1234, "annotation": {"number": 64, "value": 127}, "group": "control_change"}, {"time": 1255, "annotation": {"number": 64, "value": 0}, "group": "control_change"}, {"time": 1258, "annotation": {"number": 64, "value": 127}, "group": "control_change"}, {"time": 1280, "annotation": {"number": 64, "value": 0}, "group": "control_change"}, {"time": 1282, "annotation": {"number": 64, "value": 127}, "group": "control_change"}, {"time": 1303, "annotation": {"number": 64, "value": 0}, "group": "control_change"}, {"time": 1306, "annotation": {"number": 64, "value": 127}, "group": "control_change"}, {"time": 1351, "annotation": {"number": 64, "value": 0}, "group": "control_change"}, {"time": 1353, "annotation": {"number": 64, "value": 127}, "group": "control_change"}, {"time": 1400, "annotation": {"number": 64, "value": 0}, "group": "control_change"}, {"time": 1402, "annotation": {"number": 64, "value": 127}, "group": "control_change"}, {"time": 1423, "annotation": {"number": 64, "value": 0}, "group": "control_change"}, {"time": 1425, "annotation": {"number": 64, "value": 127}, "group": "control_change"}, {"time": 1471, "annotation": {"number": 64, "value": 0}, "group": "control_change"}, {"time": 1474, "annotation": {"number": 64, "value": 127}, "group": "control_change"}, {"time": 1496, "annotation": {"number": 64, "value": 0}, "group": "control_change"}, {"time": 1498, "annotation": {"number": 64, "value": 127}, "group": "control_change"}, {"time": 1519, "annotation": {"number": 64, "value": 0}, "group": "control_change"}, {"time": 1521, "annotation": {"number": 64, "value": 127}, "group": "control_change"}, {"time": 1558, "annotation": {"number": 64, "value": 0}, "group": "control_change"}, {"time": 1564, "annotation": {"number": 64, "value": 127}, "group": "control_change"}, {"time": 1570, "annotation": {"number": 64, "value": 127}, "group": "control_change"}, {"time": 1592, "annotation": {"number": 64, "value": 0}, "group": "control_change"}, {"time": 1594, "annotation": {"number": 64, "value": 127}, "group": "control_change"}, {"time": 1614, "annotation": {"number": 64, "value": 0}, "group": "control_change"}, {"time": 1616, "annotation": {"number": 64, "value": 127}, "group": "control_change"}, {"time": 1653, "annotation": {"number": 64, "value": 0}, "group": "control_change"}, {"time": 1657, "annotation": {"number": 64, "value": 127}, "group": "control_change"}, {"time": 1663, "annotation": {"number": 64, "value": 0}, "group": "control_change"}, {"time": 1665, "annotation": {"number": 64, "value": 127}, "group": "control_change"}, {"time": 1687, "annotation": {"number": 64, "value": 0}, "group": "control_change"}, {"time": 1689, "annotation": {"number": 64, "value": 127}, "group": "control_change"}, {"time": 1711, "annotation": {"number": 64, "value": 0}, "group": "control_change"}, {"time": 1713, "annotation": {"number": 64, "value": 127}, "group": "control_change"}, {"time": 1748, "annotation": {"number": 64, "value": 0}, "group": "control_change"}, {"time": 1751, "annotation": {"number": 64, "value": 127}, "group": "control_change"}, {"time": 1759, "annotation": {"number": 64, "value": 0}, "group": "control_change"}, {"time": 1761, "annotation": {"number": 64, "value": 127}, "group": "control_change"}, {"time": 1784, "annotation": {"number": 64, "value": 0}, "group": "control_change"}, {"time": 1785, "annotation": {"number": 64, "value": 127}, "group": "control_change"}, {"time": 1807, "annotation": {"number": 64, "value": 0}, "group": "control_change"}, {"time": 1809, "annotation": {"number": 64, "value": 127}, "group": "control_change"}, {"time": 1831, "annotation": {"number": 64, "value": 0}, "group": "control_change"}, {"time": 1833, "annotation": {"number": 64, "value": 127}, "group": "control_change"}, {"time": 1855, "annotation": {"number": 64, "value": 0}, "group": "control_change"}, {"time": 1858, "annotation": {"number": 64, "value": 127}, "group": "control_change"}, {"time": 1879, "annotation": {"number": 64, "value": 0}, "group": "control_change"}, {"time": 1881, "annotation": {"number": 64, "value": 127}, "group": "control_change"}, {"time": 1903, "annotation": {"number": 64, "value": 0}, "group": "control_change"}, {"time": 1905, "annotation": {"number": 64, "value": 127}, "group": "control_change"}, {"time": 1939, "annotation": {"number": 64, "value": 0}, "group": "control_change"}, {"time": 1952, "annotation": {"number": 64, "value": 127}, "group": "control_change"}, {"time": 1976, "annotation": {"number": 64, "value": 0}, "group": "control_change"}, {"time": 1978, "annotation": {"number": 64, "value": 127}, "group": "control_change"}, {"time": 2000, "annotation": {"number": 64, "value": 0}, "group": "control_change"}, {"time": 2002, "annotation": {"number": 64, "value": 127}, "group": "control_change"}, {"time": 2024, "annotation": {"number": 64, "value": 0}, "group": "control_change"}, {"time": 2026, "annotation": {"number": 64, "value": 127}, "group": "control_change"}, {"time": 2047, "annotation": {"number": 64, "value": 0}, "group": "control_change"}, {"time": 2050, "annotation": {"number": 64, "value": 127}, "group": "control_change"}, {"time": 2071, "annotation": {"number": 64, "value": 0}, "group": "control_change"}, {"time": 2073, "annotation": {"number": 64, "value": 127}, "group": "control_change"}, {"time": 2095, "annotation": {"number": 64, "value": 0}, "group": "control_change"}, {"time": 2097, "annotation": {"number": 64, "value": 127}, "group": "control_change"}, {"time": 2119, "annotation": {"number": 64, "value": 0}, "group": "control_change"}, {"time": 2121, "annotation": {"number": 64, "value": 127}, "group": "control_change"}, {"time": 2143, "annotation": {"number": 64, "value": 0}, "group": "control_change"}, {"time": 2146, "annotation": {"number": 64, "value": 127}, "group": "control_change"}, {"time": 2167, "annotation": {"number": 64, "value": 0}, "group": "control_change"}, {"time": 2169, "annotation": {"number": 64, "value": 127}, "group": "control_change"}, {"time": 2192, "annotation": {"number": 64, "value": 0}, "group": "control_change"}, {"time": 2194, "annotation": {"number": 64, "value": 127}, "group": "control_change"}, {"time": 2215, "annotation": {"number": 64, "value": 0}, "group": "control_change"}, {"time": 2218, "annotation": {"number": 64, "value": 127}, "group": "control_change"}, {"time": 2239, "annotation": {"number": 64, "value": 0}, "group": "control_change"}, {"time": 2242, "annotation": {"number": 64, "value": 127}, "group": "control_change"}, {"time": 2264, "annotation": {"number": 64, "value": 0}, "group": "control_change"}, {"time": 2266, "annotation": {"number": 64, "value": 127}, "group": "control_change"}, {"time": 2287, "annotation": {"number": 64, "value": 0}, "group": "control_change"}, {"time": 2337, "annotation": {"number": 64, "value": 127}, "group": "control_change"}, {"time": 2359, "annotation": {"number": 64, "value": 0}, "group": "control_change"}, {"time": 2361, "annotation": {"number": 64, "value": 127}, "group": "control_change"}, {"time": 2383, "annotation": {"number": 64, "value": 0}, "group": "control_change"}, {"time": 2385, "annotation": {"number": 64, "value": 127}, "group": "control_change"}, {"time": 2421, "annotation": {"number": 64, "value": 0}, "group": "control_change"}, {"time": 2425, "annotation": {"number": 64, "value": 127}, "group": "control_change"}, {"time": 2431, "annotation": {"number": 64, "value": 0}, "group": "control_change"}, {"time": 2434, "annotation": {"number": 64, "value": 127}, "group": "control_change"}, {"time": 2455, "annotation": {"number": 64, "value": 0}, "group": "control_change"}, {"time": 2457, "annotation": {"number": 64, "value": 127}, "group": "control_change"}, {"time": 2478, "annotation": {"number": 64, "value": 0}, "group": "control_change"}, {"time": 2481, "annotation": {"number": 64, "value": 127}, "group": "control_change"}, {"time": 2515, "annotation": {"number": 64, "value": 0}, "group": "control_change"}, {"time": 2517, "annotation": {"number": 64, "value": 127}, "group": "control_change"}, {"time": 2521, "annotation": {"number": 64, "value": 0}, "group": "control_change"}, {"time": 2528, "annotation": {"number": 64, "value": 127}, "group": "control_change"}, {"time": 2551, "annotation": {"number": 64, "value": 0}, "group": "control_change"}, {"time": 2553, "annotation": {"number": 64, "value": 127}, "group": "control_change"}, {"time": 2575, "annotation": {"number": 64, "value": 0}, "group": "control_change"}, {"time": 2577, "annotation": {"number": 64, "value": 127}, "group": "control_change"}, {"time": 2600, "annotation": {"number": 64, "value": 0}, "group": "control_change"}, {"time": 2602, "annotation": {"number": 64, "value": 127}, "group": "control_change"}, {"time": 2621, "annotation": {"number": 64, "value": 0}, "group": "control_change"}, {"time": 2625, "annotation": {"number": 64, "value": 127}, "group": "control_change"}, {"time": 2646, "annotation": {"number": 64, "value": 0}, "group": "control_change"}, {"time": 2649, "annotation": {"number": 64, "value": 127}, "group": "control_change"}, {"time": 2671, "annotation": {"number": 64, "value": 0}, "group": "control_change"}, {"time": 2674, "annotation": {"number": 64, "value": 127}, "group": "control_change"}, {"time": 2695, "annotation": {"number": 64, "value": 0}, "group": "control_change"}, {"time": 2697, "annotation": {"number": 64, "value": 127}, "group": "control_change"}, {"time": 2719, "annotation": {"number": 64, "value": 0}, "group": "control_change"}, {"time": 2722, "annotation": {"number": 64, "value": 127}, "group": "control_change"}, {"time": 2743, "annotation": {"number": 64, "value": 0}, "group": "control_change"}, {"time": 2745, "annotation": {"number": 64, "value": 127}, "group": "control_change"}, {"time": 2768, "annotation": {"number": 64, "value": 0}, "group": "control_change"}, {"time": 2770, "annotation": {"number": 64, "value": 127}, "group": "control_change"}, {"time": 2792, "annotation": {"number": 64, "value": 0}, "group": "control_change"}, {"time": 2793, "annotation": {"number": 64, "value": 127}, "group": "control_change"}, {"time": 2812, "annotation": {"number": 64, "value": 0}, "group": "control_change"}, {"time": 2817, "annotation": {"number": 64, "value": 127}, "group": "control_change"}, {"time": 2839, "annotation": {"number": 64, "value": 0}, "group": "control_change"}, {"time": 2854, "annotation": {"number": 64, "value": 127}, "group": "control_change"}, {"time": 2860, "annotation": {"number": 64, "value": 127}, "group": "control_change"}, {"time": 2863, "annotation": {"number": 64, "value": 0}, "group": "control_change"}, {"time": 2864, "annotation": {"number": 64, "value": 0}, "group": "control_change"}, {"time": 2866, "annotation": {"number": 64, "value": 127}, "group": "control_change"}, {"time": 2910, "annotation": {"number": 64, "value": 0}, "group": "control_change"}, {"time": 2913, "annotation": {"number": 64, "value": 127}, "group": "control_change"}, {"time": 2958, "annotation": {"number": 64, "value": 0}, "group": "control_change"}, {"time": 2960, "annotation": {"number": 64, "value": 127}, "group": "control_change"}, {"time": 3032, "annotation": {"number": 64, "value": 0}, "group": "control_change"}, {"time": 3036, "annotation": {"number": 64, "value": 127}, "group": "control_change"}, {"time": 3120, "annotation": {"number": 64, "value": 0}, "group": "control_change"}]}]}