{"metadata": {"schema_version": "0.2", "title": "None", "source_filename": "060.mid", "source_format": "midi"}, "resolution": 12, "tempos": [{"time": 0, "qpm": 64.0}], "time_signatures": [{"time": 0, "numerator": 1, "denominator": 4}], "tracks": [{"program": 0, "is_drum": false, "name": "MELODY", "notes": [{"time": 290, "pitch": 83, "duration": 6, "velocity": 99}, {"time": 296, "pitch": 80, "duration": 6, "velocity": 112}, {"time": 302, "pitch": 76, "duration": 6, "velocity": 117}, {"time": 308, "pitch": 73, "duration": 6, "velocity": 89}, {"time": 314, "pitch": 76, "duration": 6, "velocity": 127}, {"time": 320, "pitch": 71, "duration": 10, "velocity": 85}, {"time": 338, "pitch": 73, "duration": 6, "velocity": 117}, {"time": 344, "pitch": 76, "duration": 5, "velocity": 99}, {"time": 350, "pitch": 76, "duration": 4, "velocity": 96}, {"time": 356, "pitch": 68, "duration": 5, "velocity": 127}, {"time": 362, "pitch": 71, "duration": 18, "velocity": 107}, {"time": 386, "pitch": 83, "duration": 6, "velocity": 99}, {"time": 392, "pitch": 80, "duration": 6, "velocity": 112}, {"time": 398, "pitch": 76, "duration": 6, "velocity": 117}, {"time": 404, "pitch": 73, "duration": 6, "velocity": 89}, {"time": 410, "pitch": 76, "duration": 6, "velocity": 127}, {"time": 416, "pitch": 71, "duration": 10, "velocity": 85}, {"time": 434, "pitch": 73, "duration": 5, "velocity": 122}, {"time": 440, "pitch": 76, "duration": 5, "velocity": 100}, {"time": 446, "pitch": 71, "duration": 5, "velocity": 112}, {"time": 452, "pitch": 83, "duration": 5, "velocity": 107}, {"time": 458, "pitch": 83, "duration": 6, "velocity": 117}, {"time": 464, "pitch": 78, "duration": 12, "velocity": 122}, {"time": 482, "pitch": 80, "duration": 10, "velocity": 127}, {"time": 494, "pitch": 80, "duration": 6, "velocity": 127}, {"time": 506, "pitch": 83, "duration": 5, "velocity": 117}, {"time": 512, "pitch": 73, "duration": 5, "velocity": 102}, {"time": 518, "pitch": 76, "duration": 10, "velocity": 117}, {"time": 530, "pitch": 80, "duration": 2, "velocity": 127}, {"time": 533, "pitch": 80, "duration": 2, "velocity": 122}, {"time": 536, "pitch": 80, "duration": 2, "velocity": 122}, {"time": 539, "pitch": 80, "duration": 2, "velocity": 117}, {"time": 542, "pitch": 80, "duration": 3, "velocity": 127}, {"time": 548, "pitch": 80, "duration": 4, "velocity": 127}, {"time": 554, "pitch": 83, "duration": 4, "velocity": 107}, {"time": 560, "pitch": 73, "duration": 6, "velocity": 112}, {"time": 566, "pitch": 76, "duration": 9, "velocity": 122}, {"time": 578, "pitch": 78, "duration": 5, "velocity": 122}, {"time": 584, "pitch": 78, "duration": 4, "velocity": 112}, {"time": 590, "pitch": 78, "duration": 5, "velocity": 117}, {"time": 596, "pitch": 83, "duration": 4, "velocity": 117}, {"time": 602, "pitch": 83, "duration": 20, "velocity": 127}, {"time": 626, "pitch": 85, "duration": 7, "velocity": 127}, {"time": 635, "pitch": 85, "duration": 2, "velocity": 122}, {"time": 638, "pitch": 85, "duration": 4, "velocity": 127}, {"time": 644, "pitch": 83, "duration": 4, "velocity": 102}, {"time": 650, "pitch": 85, "duration": 4, "velocity": 127}, {"time": 656, "pitch": 80, "duration": 3, "velocity": 127}, {"time": 659, "pitch": 83, "duration": 3, "velocity": 102}, {"time": 662, "pitch": 80, "duration": 6, "velocity": 127}, {"time": 668, "pitch": 78, "duration": 4, "velocity": 127}, {"time": 674, "pitch": 78, "duration": 4, "velocity": 122}, {"time": 680, "pitch": 78, "duration": 4, "velocity": 112}, {"time": 683, "pitch": 76, "duration": 3, "velocity": 85}, {"time": 686, "pitch": 73, "duration": 10, "velocity": 112}, {"time": 698, "pitch": 71, "duration": 7, "velocity": 102}, {"time": 710, "pitch": 71, "duration": 2, "velocity": 112}, {"time": 713, "pitch": 71, "duration": 3, "velocity": 95}, {"time": 716, "pitch": 73, "duration": 4, "velocity": 117}, {"time": 719, "pitch": 75, "duration": 3, "velocity": 112}, {"time": 722, "pitch": 71, "duration": 19, "velocity": 112}, {"time": 770, "pitch": 80, "duration": 7, "velocity": 127}, {"time": 779, "pitch": 80, "duration": 2, "velocity": 117}, {"time": 782, "pitch": 80, "duration": 4, "velocity": 117}, {"time": 788, "pitch": 80, "duration": 2, "velocity": 122}, {"time": 791, "pitch": 80, "duration": 2, "velocity": 112}, {"time": 794, "pitch": 83, "duration": 4, "velocity": 112}, {"time": 800, "pitch": 73, "duration": 5, "velocity": 127}, {"time": 806, "pitch": 76, "duration": 5, "velocity": 127}, {"time": 812, "pitch": 76, "duration": 2, "velocity": 127}, {"time": 818, "pitch": 80, "duration": 6, "velocity": 127}, {"time": 827, "pitch": 80, "duration": 2, "velocity": 127}, {"time": 830, "pitch": 80, "duration": 4, "velocity": 127}, {"time": 836, "pitch": 80, "duration": 1, "velocity": 127}, {"time": 839, "pitch": 80, "duration": 1, "velocity": 117}, {"time": 842, "pitch": 83, "duration": 4, "velocity": 107}, {"time": 848, "pitch": 73, "duration": 6, "velocity": 107}, {"time": 854, "pitch": 71, "duration": 6, "velocity": 112}, {"time": 866, "pitch": 83, "duration": 6, "velocity": 127}, {"time": 875, "pitch": 83, "duration": 2, "velocity": 102}, {"time": 878, "pitch": 83, "duration": 4, "velocity": 112}, {"time": 884, "pitch": 83, "duration": 2, "velocity": 117}, {"time": 887, "pitch": 83, "duration": 2, "velocity": 102}, {"time": 890, "pitch": 85, "duration": 3, "velocity": 122}, {"time": 896, "pitch": 80, "duration": 5, "velocity": 127}, {"time": 902, "pitch": 78, "duration": 6, "velocity": 127}, {"time": 914, "pitch": 83, "duration": 7, "velocity": 122}, {"time": 923, "pitch": 83, "duration": 2, "velocity": 127}, {"time": 926, "pitch": 83, "duration": 4, "velocity": 102}, {"time": 932, "pitch": 83, "duration": 2, "velocity": 107}, {"time": 935, "pitch": 83, "duration": 2, "velocity": 97}, {"time": 938, "pitch": 85, "duration": 4, "velocity": 122}, {"time": 944, "pitch": 80, "duration": 4, "velocity": 127}, {"time": 950, "pitch": 78, "duration": 6, "velocity": 127}, {"time": 968, "pitch": 78, "duration": 5, "velocity": 117}, {"time": 974, "pitch": 78, "duration": 4, "velocity": 127}, {"time": 980, "pitch": 76, "duration": 5, "velocity": 102}, {"time": 986, "pitch": 78, "duration": 4, "velocity": 127}, {"time": 998, "pitch": 83, "duration": 6, "velocity": 122}, {"time": 1004, "pitch": 80, "duration": 6, "velocity": 117}, {"time": 1010, "pitch": 83, "duration": 46, "velocity": 122}, {"time": 1064, "pitch": 85, "duration": 5, "velocity": 127}, {"time": 1070, "pitch": 83, "duration": 4, "velocity": 127}, {"time": 1076, "pitch": 85, "duration": 4, "velocity": 122}, {"time": 1082, "pitch": 80, "duration": 5, "velocity": 127}, {"time": 1091, "pitch": 83, "duration": 3, "velocity": 102}, {"time": 1094, "pitch": 80, "duration": 6, "velocity": 122}, {"time": 1100, "pitch": 78, "duration": 4, "velocity": 122}, {"time": 1106, "pitch": 78, "duration": 5, "velocity": 127}, {"time": 1112, "pitch": 76, "duration": 3, "velocity": 117}, {"time": 1115, "pitch": 75, "duration": 3, "velocity": 95}, {"time": 1118, "pitch": 73, "duration": 5, "velocity": 122}, {"time": 1124, "pitch": 73, "duration": 5, "velocity": 127}, {"time": 1130, "pitch": 71, "duration": 13, "velocity": 127}, {"time": 1142, "pitch": 83, "duration": 6, "velocity": 127}, {"time": 1148, "pitch": 85, "duration": 8, "velocity": 127}, {"time": 1154, "pitch": 83, "duration": 36, "velocity": 127}, {"time": 1346, "pitch": 83, "duration": 6, "velocity": 99}, {"time": 1352, "pitch": 80, "duration": 6, "velocity": 112}, {"time": 1358, "pitch": 76, "duration": 6, "velocity": 117}, {"time": 1364, "pitch": 73, "duration": 6, "velocity": 89}, {"time": 1370, "pitch": 76, "duration": 6, "velocity": 127}, {"time": 1376, "pitch": 71, "duration": 10, "velocity": 85}, {"time": 1394, "pitch": 73, "duration": 6, "velocity": 117}, {"time": 1400, "pitch": 76, "duration": 5, "velocity": 99}, {"time": 1406, "pitch": 76, "duration": 4, "velocity": 96}, {"time": 1412, "pitch": 68, "duration": 5, "velocity": 127}, {"time": 1418, "pitch": 71, "duration": 18, "velocity": 107}, {"time": 1442, "pitch": 83, "duration": 6, "velocity": 99}, {"time": 1448, "pitch": 80, "duration": 6, "velocity": 112}, {"time": 1454, "pitch": 76, "duration": 6, "velocity": 117}, {"time": 1460, "pitch": 73, "duration": 6, "velocity": 89}, {"time": 1466, "pitch": 76, "duration": 6, "velocity": 127}, {"time": 1472, "pitch": 71, "duration": 10, "velocity": 85}, {"time": 1490, "pitch": 73, "duration": 5, "velocity": 122}, {"time": 1496, "pitch": 76, "duration": 5, "velocity": 100}, {"time": 1502, "pitch": 71, "duration": 5, "velocity": 112}, {"time": 1508, "pitch": 83, "duration": 5, "velocity": 107}, {"time": 1514, "pitch": 83, "duration": 6, "velocity": 117}, {"time": 1520, "pitch": 78, "duration": 12, "velocity": 122}, {"time": 1538, "pitch": 80, "duration": 10, "velocity": 127}, {"time": 1550, "pitch": 80, "duration": 6, "velocity": 127}, {"time": 1562, "pitch": 83, "duration": 5, "velocity": 117}, {"time": 1568, "pitch": 73, "duration": 5, "velocity": 102}, {"time": 1574, "pitch": 76, "duration": 10, "velocity": 117}, {"time": 1586, "pitch": 80, "duration": 2, "velocity": 127}, {"time": 1589, "pitch": 80, "duration": 2, "velocity": 122}, {"time": 1592, "pitch": 80, "duration": 2, "velocity": 122}, {"time": 1595, "pitch": 80, "duration": 2, "velocity": 117}, {"time": 1598, "pitch": 80, "duration": 3, "velocity": 127}, {"time": 1604, "pitch": 80, "duration": 4, "velocity": 127}, {"time": 1610, "pitch": 83, "duration": 4, "velocity": 107}, {"time": 1616, "pitch": 73, "duration": 6, "velocity": 112}, {"time": 1622, "pitch": 76, "duration": 9, "velocity": 122}, {"time": 1634, "pitch": 78, "duration": 5, "velocity": 122}, {"time": 1640, "pitch": 78, "duration": 4, "velocity": 112}, {"time": 1646, "pitch": 78, "duration": 5, "velocity": 117}, {"time": 1652, "pitch": 83, "duration": 4, "velocity": 117}, {"time": 1658, "pitch": 83, "duration": 20, "velocity": 127}, {"time": 1682, "pitch": 85, "duration": 7, "velocity": 127}, {"time": 1691, "pitch": 85, "duration": 2, "velocity": 122}, {"time": 1694, "pitch": 85, "duration": 4, "velocity": 127}, {"time": 1700, "pitch": 83, "duration": 4, "velocity": 102}, {"time": 1706, "pitch": 85, "duration": 4, "velocity": 127}, {"time": 1712, "pitch": 80, "duration": 3, "velocity": 127}, {"time": 1715, "pitch": 83, "duration": 3, "velocity": 102}, {"time": 1718, "pitch": 80, "duration": 6, "velocity": 127}, {"time": 1724, "pitch": 78, "duration": 4, "velocity": 127}, {"time": 1730, "pitch": 78, "duration": 4, "velocity": 122}, {"time": 1736, "pitch": 78, "duration": 4, "velocity": 112}, {"time": 1739, "pitch": 76, "duration": 3, "velocity": 85}, {"time": 1742, "pitch": 73, "duration": 10, "velocity": 112}, {"time": 1754, "pitch": 71, "duration": 7, "velocity": 102}, {"time": 1766, "pitch": 71, "duration": 2, "velocity": 112}, {"time": 1769, "pitch": 71, "duration": 3, "velocity": 95}, {"time": 1772, "pitch": 73, "duration": 4, "velocity": 117}, {"time": 1775, "pitch": 75, "duration": 3, "velocity": 112}, {"time": 1778, "pitch": 71, "duration": 19, "velocity": 112}, {"time": 1826, "pitch": 80, "duration": 7, "velocity": 127}, {"time": 1835, "pitch": 80, "duration": 2, "velocity": 117}, {"time": 1838, "pitch": 80, "duration": 4, "velocity": 117}, {"time": 1844, "pitch": 80, "duration": 2, "velocity": 122}, {"time": 1847, "pitch": 80, "duration": 2, "velocity": 112}, {"time": 1850, "pitch": 83, "duration": 4, "velocity": 112}, {"time": 1856, "pitch": 73, "duration": 5, "velocity": 127}, {"time": 1862, "pitch": 76, "duration": 5, "velocity": 127}, {"time": 1868, "pitch": 76, "duration": 2, "velocity": 127}, {"time": 1874, "pitch": 80, "duration": 6, "velocity": 127}, {"time": 1883, "pitch": 80, "duration": 2, "velocity": 127}, {"time": 1886, "pitch": 80, "duration": 4, "velocity": 127}, {"time": 1892, "pitch": 80, "duration": 1, "velocity": 127}, {"time": 1895, "pitch": 80, "duration": 1, "velocity": 117}, {"time": 1898, "pitch": 83, "duration": 4, "velocity": 107}, {"time": 1904, "pitch": 73, "duration": 6, "velocity": 107}, {"time": 1910, "pitch": 71, "duration": 6, "velocity": 112}, {"time": 1922, "pitch": 83, "duration": 6, "velocity": 127}, {"time": 1931, "pitch": 83, "duration": 2, "velocity": 102}, {"time": 1934, "pitch": 83, "duration": 4, "velocity": 112}, {"time": 1940, "pitch": 83, "duration": 2, "velocity": 117}, {"time": 1943, "pitch": 83, "duration": 2, "velocity": 102}, {"time": 1946, "pitch": 85, "duration": 3, "velocity": 122}, {"time": 1952, "pitch": 80, "duration": 5, "velocity": 127}, {"time": 1958, "pitch": 78, "duration": 6, "velocity": 127}, {"time": 1970, "pitch": 83, "duration": 7, "velocity": 122}, {"time": 1979, "pitch": 83, "duration": 2, "velocity": 127}, {"time": 1982, "pitch": 83, "duration": 4, "velocity": 102}, {"time": 1988, "pitch": 83, "duration": 2, "velocity": 107}, {"time": 1991, "pitch": 83, "duration": 2, "velocity": 97}, {"time": 1994, "pitch": 85, "duration": 4, "velocity": 122}, {"time": 2000, "pitch": 80, "duration": 4, "velocity": 127}, {"time": 2006, "pitch": 78, "duration": 6, "velocity": 127}, {"time": 2024, "pitch": 78, "duration": 5, "velocity": 117}, {"time": 2030, "pitch": 78, "duration": 4, "velocity": 127}, {"time": 2036, "pitch": 76, "duration": 5, "velocity": 102}, {"time": 2042, "pitch": 78, "duration": 4, "velocity": 127}, {"time": 2054, "pitch": 83, "duration": 6, "velocity": 122}, {"time": 2060, "pitch": 80, "duration": 6, "velocity": 117}, {"time": 2066, "pitch": 83, "duration": 46, "velocity": 122}, {"time": 2120, "pitch": 85, "duration": 5, "velocity": 127}, {"time": 2126, "pitch": 83, "duration": 4, "velocity": 127}, {"time": 2132, "pitch": 85, "duration": 4, "velocity": 122}, {"time": 2138, "pitch": 80, "duration": 5, "velocity": 127}, {"time": 2147, "pitch": 83, "duration": 3, "velocity": 102}, {"time": 2150, "pitch": 80, "duration": 6, "velocity": 122}, {"time": 2156, "pitch": 78, "duration": 4, "velocity": 122}, {"time": 2162, "pitch": 78, "duration": 5, "velocity": 127}, {"time": 2168, "pitch": 76, "duration": 3, "velocity": 117}, {"time": 2171, "pitch": 75, "duration": 3, "velocity": 95}, {"time": 2174, "pitch": 73, "duration": 5, "velocity": 122}, {"time": 2180, "pitch": 73, "duration": 5, "velocity": 127}, {"time": 2186, "pitch": 71, "duration": 13, "velocity": 127}, {"time": 2198, "pitch": 83, "duration": 12, "velocity": 127}, {"time": 2210, "pitch": 85, "duration": 39, "velocity": 127}, {"time": 2258, "pitch": 83, "duration": 49, "velocity": 127}], "annotations": [{"time": 281, "annotation": {"number": 64, "value": 127}, "group": "control_change"}, {"time": 308, "annotation": {"number": 64, "value": 0}, "group": "control_change"}, {"time": 404, "annotation": {"number": 64, "value": 0}, "group": "control_change"}, {"time": 1337, "annotation": {"number": 64, "value": 127}, "group": "control_change"}, {"time": 1364, "annotation": {"number": 64, "value": 0}, "group": "control_change"}, {"time": 1460, "annotation": {"number": 64, "value": 0}, "group": "control_change"}]}, {"program": 0, "is_drum": false, "name": "PIANO", "notes": [{"time": 2, "pitch": 35, "duration": 50, "velocity": 66}, {"time": 2, "pitch": 47, "duration": 50, "velocity": 76}, {"time": 2, "pitch": 51, "duration": 50, "velocity": 74}, {"time": 2, "pitch": 54, "duration": 50, "velocity": 73}, {"time": 50, "pitch": 37, "duration": 2, "velocity": 117}, {"time": 50, "pitch": 49, "duration": 2, "velocity": 127}, {"time": 53, "pitch": 35, "duration": 45, "velocity": 102}, {"time": 53, "pitch": 47, "duration": 45, "velocity": 90}, {"time": 53, "pitch": 51, "duration": 45, "velocity": 112}, {"time": 53, "pitch": 54, "duration": 45, "velocity": 93}, {"time": 98, "pitch": 37, "duration": 45, "velocity": 100}, {"time": 98, "pitch": 49, "duration": 45, "velocity": 99}, {"time": 98, "pitch": 56, "duration": 44, "velocity": 97}, {"time": 146, "pitch": 40, "duration": 4, "velocity": 77}, {"time": 146, "pitch": 52, "duration": 4, "velocity": 97}, {"time": 149, "pitch": 42, "duration": 63, "velocity": 112}, {"time": 149, "pitch": 54, "duration": 62, "velocity": 100}, {"time": 149, "pitch": 61, "duration": 63, "velocity": 92}, {"time": 242, "pitch": 35, "duration": 43, "velocity": 54}, {"time": 242, "pitch": 47, "duration": 46, "velocity": 81}, {"time": 242, "pitch": 59, "duration": 46, "velocity": 72}, {"time": 242, "pitch": 66, "duration": 44, "velocity": 69}, {"time": 290, "pitch": 40, "duration": 16, "velocity": 68}, {"time": 290, "pitch": 59, "duration": 11, "velocity": 88}, {"time": 290, "pitch": 64, "duration": 10, "velocity": 93}, {"time": 290, "pitch": 68, "duration": 10, "velocity": 93}, {"time": 302, "pitch": 59, "duration": 10, "velocity": 89}, {"time": 302, "pitch": 64, "duration": 8, "velocity": 100}, {"time": 302, "pitch": 68, "duration": 9, "velocity": 100}, {"time": 314, "pitch": 52, "duration": 14, "velocity": 60}, {"time": 314, "pitch": 59, "duration": 10, "velocity": 86}, {"time": 314, "pitch": 64, "duration": 6, "velocity": 95}, {"time": 314, "pitch": 68, "duration": 7, "velocity": 92}, {"time": 326, "pitch": 59, "duration": 1, "velocity": 59}, {"time": 326, "pitch": 64, "duration": 7, "velocity": 100}, {"time": 326, "pitch": 68, "duration": 8, "velocity": 107}, {"time": 332, "pitch": 52, "duration": 1, "velocity": 56}, {"time": 338, "pitch": 37, "duration": 1, "velocity": 100}, {"time": 338, "pitch": 61, "duration": 10, "velocity": 89}, {"time": 338, "pitch": 64, "duration": 6, "velocity": 88}, {"time": 338, "pitch": 68, "duration": 8, "velocity": 99}, {"time": 344, "pitch": 49, "duration": 13, "velocity": 31}, {"time": 350, "pitch": 52, "duration": 6, "velocity": 34}, {"time": 350, "pitch": 56, "duration": 2, "velocity": 45}, {"time": 350, "pitch": 61, "duration": 7, "velocity": 96}, {"time": 350, "pitch": 64, "duration": 5, "velocity": 95}, {"time": 350, "pitch": 68, "duration": 6, "velocity": 100}, {"time": 356, "pitch": 56, "duration": 2, "velocity": 73}, {"time": 362, "pitch": 47, "duration": 14, "velocity": 69}, {"time": 362, "pitch": 59, "duration": 8, "velocity": 81}, {"time": 362, "pitch": 63, "duration": 7, "velocity": 73}, {"time": 362, "pitch": 66, "duration": 8, "velocity": 75}, {"time": 368, "pitch": 54, "duration": 7, "velocity": 66}, {"time": 374, "pitch": 63, "duration": 7, "velocity": 127}, {"time": 374, "pitch": 66, "duration": 7, "velocity": 112}, {"time": 380, "pitch": 59, "duration": 5, "velocity": 78}, {"time": 386, "pitch": 40, "duration": 23, "velocity": 75}, {"time": 386, "pitch": 59, "duration": 5, "velocity": 62}, {"time": 386, "pitch": 64, "duration": 4, "velocity": 89}, {"time": 386, "pitch": 68, "duration": 4, "velocity": 93}, {"time": 392, "pitch": 47, "duration": 10, "velocity": 62}, {"time": 398, "pitch": 52, "duration": 6, "velocity": 85}, {"time": 398, "pitch": 56, "duration": 6, "velocity": 107}, {"time": 398, "pitch": 59, "duration": 6, "velocity": 92}, {"time": 404, "pitch": 47, "duration": 6, "velocity": 39}, {"time": 410, "pitch": 40, "duration": 12, "velocity": 58}, {"time": 410, "pitch": 59, "duration": 7, "velocity": 88}, {"time": 410, "pitch": 64, "duration": 7, "velocity": 88}, {"time": 410, "pitch": 68, "duration": 7, "velocity": 96}, {"time": 416, "pitch": 47, "duration": 5, "velocity": 51}, {"time": 419, "pitch": 68, "duration": 1, "velocity": 31}, {"time": 422, "pitch": 59, "duration": 6, "velocity": 90}, {"time": 422, "pitch": 64, "duration": 5, "velocity": 100}, {"time": 422, "pitch": 68, "duration": 6, "velocity": 99}, {"time": 428, "pitch": 39, "duration": 7, "velocity": 83}, {"time": 434, "pitch": 37, "duration": 12, "velocity": 92}, {"time": 434, "pitch": 61, "duration": 8, "velocity": 97}, {"time": 434, "pitch": 64, "duration": 7, "velocity": 95}, {"time": 434, "pitch": 68, "duration": 7, "velocity": 93}, {"time": 440, "pitch": 49, "duration": 8, "velocity": 52}, {"time": 446, "pitch": 61, "duration": 6, "velocity": 96}, {"time": 446, "pitch": 64, "duration": 5, "velocity": 90}, {"time": 446, "pitch": 68, "duration": 6, "velocity": 102}, {"time": 458, "pitch": 47, "duration": 17, "velocity": 73}, {"time": 458, "pitch": 59, "duration": 8, "velocity": 95}, {"time": 458, "pitch": 63, "duration": 8, "velocity": 112}, {"time": 458, "pitch": 66, "duration": 7, "velocity": 99}, {"time": 464, "pitch": 54, "duration": 8, "velocity": 82}, {"time": 470, "pitch": 63, "duration": 6, "velocity": 127}, {"time": 470, "pitch": 66, "duration": 6, "velocity": 127}, {"time": 473, "pitch": 54, "duration": 2, "velocity": 92}, {"time": 476, "pitch": 59, "duration": 1, "velocity": 93}, {"time": 482, "pitch": 49, "duration": 19, "velocity": 102}, {"time": 482, "pitch": 61, "duration": 10, "velocity": 112}, {"time": 482, "pitch": 64, "duration": 10, "velocity": 97}, {"time": 482, "pitch": 68, "duration": 10, "velocity": 99}, {"time": 494, "pitch": 61, "duration": 8, "velocity": 112}, {"time": 494, "pitch": 64, "duration": 7, "velocity": 100}, {"time": 494, "pitch": 68, "duration": 8, "velocity": 117}, {"time": 506, "pitch": 49, "duration": 10, "velocity": 67}, {"time": 506, "pitch": 61, "duration": 11, "velocity": 86}, {"time": 506, "pitch": 64, "duration": 10, "velocity": 73}, {"time": 506, "pitch": 68, "duration": 10, "velocity": 83}, {"time": 518, "pitch": 61, "duration": 7, "velocity": 93}, {"time": 518, "pitch": 64, "duration": 5, "velocity": 89}, {"time": 518, "pitch": 68, "duration": 6, "velocity": 102}, {"time": 524, "pitch": 49, "duration": 6, "velocity": 65}, {"time": 530, "pitch": 44, "duration": 14, "velocity": 56}, {"time": 530, "pitch": 56, "duration": 10, "velocity": 89}, {"time": 530, "pitch": 59, "duration": 7, "velocity": 77}, {"time": 530, "pitch": 63, "duration": 10, "velocity": 85}, {"time": 542, "pitch": 56, "duration": 6, "velocity": 97}, {"time": 542, "pitch": 59, "duration": 6, "velocity": 95}, {"time": 542, "pitch": 63, "duration": 7, "velocity": 99}, {"time": 548, "pitch": 44, "duration": 5, "velocity": 59}, {"time": 554, "pitch": 49, "duration": 15, "velocity": 96}, {"time": 554, "pitch": 61, "duration": 8, "velocity": 97}, {"time": 554, "pitch": 64, "duration": 7, "velocity": 82}, {"time": 554, "pitch": 68, "duration": 7, "velocity": 92}, {"time": 563, "pitch": 61, "duration": 1, "velocity": 19}, {"time": 563, "pitch": 68, "duration": 1, "velocity": 19}, {"time": 566, "pitch": 61, "duration": 6, "velocity": 97}, {"time": 566, "pitch": 64, "duration": 4, "velocity": 99}, {"time": 566, "pitch": 68, "duration": 5, "velocity": 102}, {"time": 572, "pitch": 49, "duration": 6, "velocity": 90}, {"time": 578, "pitch": 42, "duration": 16, "velocity": 85}, {"time": 578, "pitch": 54, "duration": 10, "velocity": 99}, {"time": 578, "pitch": 58, "duration": 10, "velocity": 102}, {"time": 578, "pitch": 61, "duration": 10, "velocity": 97}, {"time": 590, "pitch": 54, "duration": 4, "velocity": 95}, {"time": 590, "pitch": 58, "duration": 5, "velocity": 122}, {"time": 590, "pitch": 61, "duration": 5, "velocity": 102}, {"time": 596, "pitch": 42, "duration": 6, "velocity": 62}, {"time": 602, "pitch": 47, "duration": 16, "velocity": 79}, {"time": 602, "pitch": 59, "duration": 9, "velocity": 92}, {"time": 602, "pitch": 63, "duration": 10, "velocity": 112}, {"time": 602, "pitch": 66, "duration": 10, "velocity": 100}, {"time": 614, "pitch": 59, "duration": 8, "velocity": 99}, {"time": 614, "pitch": 63, "duration": 7, "velocity": 127}, {"time": 614, "pitch": 66, "duration": 7, "velocity": 127}, {"time": 620, "pitch": 47, "duration": 5, "velocity": 102}, {"time": 626, "pitch": 45, "duration": 15, "velocity": 102}, {"time": 626, "pitch": 57, "duration": 18, "velocity": 122}, {"time": 626, "pitch": 61, "duration": 17, "velocity": 127}, {"time": 626, "pitch": 64, "duration": 16, "velocity": 99}, {"time": 650, "pitch": 42, "duration": 21, "velocity": 89}, {"time": 650, "pitch": 54, "duration": 21, "velocity": 102}, {"time": 650, "pitch": 57, "duration": 20, "velocity": 102}, {"time": 650, "pitch": 61, "duration": 21, "velocity": 112}, {"time": 674, "pitch": 42, "duration": 4, "velocity": 89}, {"time": 674, "pitch": 54, "duration": 4, "velocity": 97}, {"time": 674, "pitch": 58, "duration": 4, "velocity": 122}, {"time": 674, "pitch": 61, "duration": 4, "velocity": 102}, {"time": 686, "pitch": 37, "duration": 4, "velocity": 95}, {"time": 686, "pitch": 49, "duration": 4, "velocity": 99}, {"time": 686, "pitch": 52, "duration": 4, "velocity": 99}, {"time": 686, "pitch": 56, "duration": 5, "velocity": 107}, {"time": 698, "pitch": 47, "duration": 19, "velocity": 74}, {"time": 698, "pitch": 59, "duration": 22, "velocity": 107}, {"time": 698, "pitch": 63, "duration": 22, "velocity": 127}, {"time": 698, "pitch": 66, "duration": 22, "velocity": 112}, {"time": 722, "pitch": 47, "duration": 24, "velocity": 63}, {"time": 722, "pitch": 54, "duration": 5, "velocity": 90}, {"time": 722, "pitch": 59, "duration": 5, "velocity": 92}, {"time": 722, "pitch": 63, "duration": 5, "velocity": 127}, {"time": 722, "pitch": 66, "duration": 5, "velocity": 107}, {"time": 728, "pitch": 54, "duration": 4, "velocity": 66}, {"time": 728, "pitch": 59, "duration": 5, "velocity": 86}, {"time": 728, "pitch": 63, "duration": 5, "velocity": 107}, {"time": 728, "pitch": 66, "duration": 5, "velocity": 99}, {"time": 734, "pitch": 54, "duration": 4, "velocity": 95}, {"time": 734, "pitch": 59, "duration": 4, "velocity": 93}, {"time": 734, "pitch": 63, "duration": 5, "velocity": 107}, {"time": 734, "pitch": 66, "duration": 4, "velocity": 100}, {"time": 740, "pitch": 54, "duration": 4, "velocity": 99}, {"time": 740, "pitch": 59, "duration": 5, "velocity": 100}, {"time": 740, "pitch": 63, "duration": 5, "velocity": 127}, {"time": 740, "pitch": 66, "duration": 5, "velocity": 127}, {"time": 746, "pitch": 47, "duration": 3, "velocity": 96}, {"time": 746, "pitch": 59, "duration": 2, "velocity": 77}, {"time": 746, "pitch": 63, "duration": 2, "velocity": 122}, {"time": 746, "pitch": 66, "duration": 3, "velocity": 93}, {"time": 752, "pitch": 45, "duration": 2, "velocity": 102}, {"time": 752, "pitch": 57, "duration": 1, "velocity": 96}, {"time": 752, "pitch": 61, "duration": 1, "velocity": 102}, {"time": 752, "pitch": 64, "duration": 1, "velocity": 82}, {"time": 755, "pitch": 47, "duration": 3, "velocity": 112}, {"time": 755, "pitch": 59, "duration": 3, "velocity": 89}, {"time": 755, "pitch": 63, "duration": 3, "velocity": 122}, {"time": 755, "pitch": 66, "duration": 3, "velocity": 112}, {"time": 761, "pitch": 47, "duration": 2, "velocity": 107}, {"time": 761, "pitch": 59, "duration": 2, "velocity": 74}, {"time": 761, "pitch": 63, "duration": 2, "velocity": 88}, {"time": 761, "pitch": 66, "duration": 2, "velocity": 77}, {"time": 764, "pitch": 47, "duration": 2, "velocity": 97}, {"time": 764, "pitch": 59, "duration": 2, "velocity": 74}, {"time": 764, "pitch": 63, "duration": 2, "velocity": 95}, {"time": 764, "pitch": 66, "duration": 2, "velocity": 78}, {"time": 767, "pitch": 47, "duration": 2, "velocity": 112}, {"time": 767, "pitch": 59, "duration": 1, "velocity": 90}, {"time": 767, "pitch": 63, "duration": 1, "velocity": 122}, {"time": 767, "pitch": 66, "duration": 1, "velocity": 99}, {"time": 770, "pitch": 49, "duration": 23, "velocity": 117}, {"time": 776, "pitch": 61, "duration": 8, "velocity": 112}, {"time": 776, "pitch": 64, "duration": 7, "velocity": 100}, {"time": 776, "pitch": 68, "duration": 8, "velocity": 112}, {"time": 779, "pitch": 52, "duration": 13, "velocity": 32}, {"time": 782, "pitch": 56, "duration": 11, "velocity": 86}, {"time": 785, "pitch": 61, "duration": 5, "velocity": 112}, {"time": 785, "pitch": 64, "duration": 5, "velocity": 102}, {"time": 785, "pitch": 68, "duration": 5, "velocity": 112}, {"time": 791, "pitch": 61, "duration": 5, "velocity": 102}, {"time": 791, "pitch": 64, "duration": 4, "velocity": 93}, {"time": 791, "pitch": 68, "duration": 4, "velocity": 107}, {"time": 794, "pitch": 49, "duration": 8, "velocity": 117}, {"time": 794, "pitch": 56, "duration": 8, "velocity": 59}, {"time": 800, "pitch": 61, "duration": 7, "velocity": 112}, {"time": 800, "pitch": 64, "duration": 7, "velocity": 100}, {"time": 800, "pitch": 68, "duration": 7, "velocity": 117}, {"time": 803, "pitch": 49, "duration": 2, "velocity": 81}, {"time": 803, "pitch": 56, "duration": 1, "velocity": 52}, {"time": 806, "pitch": 49, "duration": 8, "velocity": 99}, {"time": 806, "pitch": 56, "duration": 9, "velocity": 92}, {"time": 809, "pitch": 61, "duration": 5, "velocity": 112}, {"time": 809, "pitch": 64, "duration": 5, "velocity": 100}, {"time": 809, "pitch": 68, "duration": 5, "velocity": 107}, {"time": 815, "pitch": 61, "duration": 4, "velocity": 107}, {"time": 815, "pitch": 64, "duration": 3, "velocity": 99}, {"time": 815, "pitch": 68, "duration": 4, "velocity": 100}, {"time": 818, "pitch": 49, "duration": 22, "velocity": 100}, {"time": 818, "pitch": 56, "duration": 7, "velocity": 82}, {"time": 824, "pitch": 61, "duration": 2, "velocity": 107}, {"time": 824, "pitch": 64, "duration": 3, "velocity": 97}, {"time": 824, "pitch": 68, "duration": 7, "velocity": 99}, {"time": 827, "pitch": 61, "duration": 4, "velocity": 57}, {"time": 830, "pitch": 56, "duration": 10, "velocity": 82}, {"time": 833, "pitch": 61, "duration": 5, "velocity": 107}, {"time": 833, "pitch": 64, "duration": 4, "velocity": 95}, {"time": 833, "pitch": 68, "duration": 4, "velocity": 100}, {"time": 839, "pitch": 61, "duration": 4, "velocity": 102}, {"time": 839, "pitch": 64, "duration": 4, "velocity": 86}, {"time": 839, "pitch": 68, "duration": 4, "velocity": 93}, {"time": 842, "pitch": 49, "duration": 12, "velocity": 93}, {"time": 842, "pitch": 56, "duration": 10, "velocity": 88}, {"time": 848, "pitch": 64, "duration": 5, "velocity": 99}, {"time": 848, "pitch": 68, "duration": 7, "velocity": 117}, {"time": 851, "pitch": 61, "duration": 4, "velocity": 73}, {"time": 854, "pitch": 49, "duration": 5, "velocity": 59}, {"time": 854, "pitch": 56, "duration": 4, "velocity": 92}, {"time": 857, "pitch": 61, "duration": 5, "velocity": 117}, {"time": 857, "pitch": 64, "duration": 4, "velocity": 102}, {"time": 857, "pitch": 68, "duration": 5, "velocity": 122}, {"time": 863, "pitch": 61, "duration": 3, "velocity": 107}, {"time": 863, "pitch": 64, "duration": 2, "velocity": 96}, {"time": 863, "pitch": 68, "duration": 2, "velocity": 100}, {"time": 866, "pitch": 47, "duration": 23, "velocity": 76}, {"time": 872, "pitch": 59, "duration": 7, "velocity": 99}, {"time": 872, "pitch": 63, "duration": 7, "velocity": 127}, {"time": 872, "pitch": 66, "duration": 6, "velocity": 122}, {"time": 875, "pitch": 54, "duration": 2, "velocity": 74}, {"time": 878, "pitch": 54, "duration": 13, "velocity": 93}, {"time": 881, "pitch": 59, "duration": 5, "velocity": 96}, {"time": 881, "pitch": 63, "duration": 5, "velocity": 117}, {"time": 881, "pitch": 66, "duration": 5, "velocity": 107}, {"time": 887, "pitch": 59, "duration": 4, "velocity": 73}, {"time": 887, "pitch": 63, "duration": 4, "velocity": 102}, {"time": 887, "pitch": 66, "duration": 4, "velocity": 92}, {"time": 890, "pitch": 47, "duration": 23, "velocity": 67}, {"time": 896, "pitch": 59, "duration": 7, "velocity": 93}, {"time": 896, "pitch": 63, "duration": 7, "velocity": 122}, {"time": 896, "pitch": 66, "duration": 6, "velocity": 112}, {"time": 899, "pitch": 54, "duration": 15, "velocity": 58}, {"time": 905, "pitch": 59, "duration": 4, "velocity": 92}, {"time": 905, "pitch": 63, "duration": 4, "velocity": 117}, {"time": 905, "pitch": 66, "duration": 4, "velocity": 96}, {"time": 911, "pitch": 59, "duration": 5, "velocity": 86}, {"time": 911, "pitch": 63, "duration": 4, "velocity": 122}, {"time": 911, "pitch": 66, "duration": 4, "velocity": 99}, {"time": 914, "pitch": 47, "duration": 23, "velocity": 66}, {"time": 920, "pitch": 59, "duration": 7, "velocity": 100}, {"time": 920, "pitch": 63, "duration": 7, "velocity": 127}, {"time": 920, "pitch": 66, "duration": 7, "velocity": 112}, {"time": 923, "pitch": 54, "duration": 2, "velocity": 50}, {"time": 926, "pitch": 54, "duration": 12, "velocity": 63}, {"time": 929, "pitch": 59, "duration": 4, "velocity": 90}, {"time": 929, "pitch": 63, "duration": 5, "velocity": 112}, {"time": 929, "pitch": 66, "duration": 5, "velocity": 93}, {"time": 935, "pitch": 59, "duration": 6, "velocity": 82}, {"time": 935, "pitch": 63, "duration": 5, "velocity": 107}, {"time": 935, "pitch": 66, "duration": 5, "velocity": 92}, {"time": 938, "pitch": 47, "duration": 17, "velocity": 61}, {"time": 944, "pitch": 59, "duration": 7, "velocity": 95}, {"time": 944, "pitch": 63, "duration": 7, "velocity": 127}, {"time": 944, "pitch": 66, "duration": 7, "velocity": 127}, {"time": 950, "pitch": 54, "duration": 4, "velocity": 77}, {"time": 953, "pitch": 59, "duration": 9, "velocity": 85}, {"time": 953, "pitch": 63, "duration": 3, "velocity": 122}, {"time": 953, "pitch": 66, "duration": 4, "velocity": 112}, {"time": 962, "pitch": 42, "duration": 23, "velocity": 76}, {"time": 962, "pitch": 54, "duration": 12, "velocity": 95}, {"time": 962, "pitch": 57, "duration": 11, "velocity": 102}, {"time": 962, "pitch": 61, "duration": 11, "velocity": 97}, {"time": 974, "pitch": 54, "duration": 11, "velocity": 79}, {"time": 974, "pitch": 57, "duration": 9, "velocity": 86}, {"time": 974, "pitch": 61, "duration": 9, "velocity": 76}, {"time": 986, "pitch": 42, "duration": 14, "velocity": 95}, {"time": 986, "pitch": 54, "duration": 11, "velocity": 93}, {"time": 986, "pitch": 58, "duration": 11, "velocity": 117}, {"time": 986, "pitch": 61, "duration": 11, "velocity": 112}, {"time": 998, "pitch": 54, "duration": 2, "velocity": 88}, {"time": 998, "pitch": 58, "duration": 2, "velocity": 107}, {"time": 998, "pitch": 61, "duration": 2, "velocity": 97}, {"time": 1010, "pitch": 47, "duration": 22, "velocity": 71}, {"time": 1010, "pitch": 59, "duration": 9, "velocity": 102}, {"time": 1010, "pitch": 63, "duration": 10, "velocity": 127}, {"time": 1010, "pitch": 66, "duration": 8, "velocity": 122}, {"time": 1016, "pitch": 54, "duration": 10, "velocity": 50}, {"time": 1022, "pitch": 59, "duration": 11, "velocity": 100}, {"time": 1022, "pitch": 63, "duration": 11, "velocity": 127}, {"time": 1022, "pitch": 66, "duration": 10, "velocity": 122}, {"time": 1028, "pitch": 54, "duration": 5, "velocity": 37}, {"time": 1034, "pitch": 47, "duration": 17, "velocity": 67}, {"time": 1034, "pitch": 54, "duration": 10, "velocity": 96}, {"time": 1034, "pitch": 59, "duration": 4, "velocity": 81}, {"time": 1034, "pitch": 63, "duration": 4, "velocity": 92}, {"time": 1034, "pitch": 66, "duration": 4, "velocity": 86}, {"time": 1040, "pitch": 59, "duration": 2, "velocity": 62}, {"time": 1040, "pitch": 63, "duration": 2, "velocity": 54}, {"time": 1040, "pitch": 66, "duration": 2, "velocity": 56}, {"time": 1043, "pitch": 59, "duration": 2, "velocity": 69}, {"time": 1043, "pitch": 63, "duration": 2, "velocity": 75}, {"time": 1043, "pitch": 66, "duration": 2, "velocity": 58}, {"time": 1046, "pitch": 54, "duration": 3, "velocity": 90}, {"time": 1046, "pitch": 59, "duration": 2, "velocity": 86}, {"time": 1046, "pitch": 63, "duration": 2, "velocity": 122}, {"time": 1046, "pitch": 66, "duration": 2, "velocity": 99}, {"time": 1049, "pitch": 59, "duration": 2, "velocity": 92}, {"time": 1049, "pitch": 63, "duration": 1, "velocity": 117}, {"time": 1049, "pitch": 66, "duration": 2, "velocity": 96}, {"time": 1052, "pitch": 59, "duration": 1, "velocity": 90}, {"time": 1052, "pitch": 63, "duration": 1, "velocity": 122}, {"time": 1052, "pitch": 66, "duration": 2, "velocity": 100}, {"time": 1055, "pitch": 59, "duration": 2, "velocity": 93}, {"time": 1058, "pitch": 45, "duration": 23, "velocity": 76}, {"time": 1058, "pitch": 57, "duration": 18, "velocity": 122}, {"time": 1058, "pitch": 61, "duration": 20, "velocity": 127}, {"time": 1058, "pitch": 64, "duration": 20, "velocity": 102}, {"time": 1082, "pitch": 49, "duration": 12, "velocity": 102}, {"time": 1082, "pitch": 56, "duration": 9, "velocity": 107}, {"time": 1082, "pitch": 61, "duration": 7, "velocity": 100}, {"time": 1082, "pitch": 64, "duration": 7, "velocity": 92}, {"time": 1094, "pitch": 52, "duration": 4, "velocity": 102}, {"time": 1094, "pitch": 59, "duration": 6, "velocity": 95}, {"time": 1094, "pitch": 64, "duration": 5, "velocity": 107}, {"time": 1094, "pitch": 68, "duration": 6, "velocity": 107}, {"time": 1106, "pitch": 42, "duration": 11, "velocity": 97}, {"time": 1106, "pitch": 54, "duration": 10, "velocity": 97}, {"time": 1106, "pitch": 58, "duration": 10, "velocity": 107}, {"time": 1106, "pitch": 61, "duration": 11, "velocity": 97}, {"time": 1118, "pitch": 42, "duration": 4, "velocity": 95}, {"time": 1118, "pitch": 54, "duration": 5, "velocity": 100}, {"time": 1118, "pitch": 58, "duration": 5, "velocity": 112}, {"time": 1118, "pitch": 61, "duration": 5, "velocity": 96}, {"time": 1130, "pitch": 47, "duration": 11, "velocity": 90}, {"time": 1130, "pitch": 59, "duration": 10, "velocity": 102}, {"time": 1130, "pitch": 63, "duration": 10, "velocity": 127}, {"time": 1130, "pitch": 66, "duration": 10, "velocity": 117}, {"time": 1142, "pitch": 42, "duration": 9, "velocity": 107}, {"time": 1142, "pitch": 54, "duration": 9, "velocity": 102}, {"time": 1142, "pitch": 58, "duration": 9, "velocity": 117}, {"time": 1142, "pitch": 61, "duration": 9, "velocity": 100}, {"time": 1160, "pitch": 47, "duration": 2, "velocity": 96}, {"time": 1160, "pitch": 59, "duration": 2, "velocity": 93}, {"time": 1160, "pitch": 63, "duration": 2, "velocity": 127}, {"time": 1160, "pitch": 66, "duration": 2, "velocity": 102}, {"time": 1169, "pitch": 47, "duration": 11, "velocity": 93}, {"time": 1169, "pitch": 59, "duration": 10, "velocity": 112}, {"time": 1169, "pitch": 63, "duration": 11, "velocity": 127}, {"time": 1169, "pitch": 66, "duration": 11, "velocity": 117}, {"time": 1181, "pitch": 47, "duration": 2, "velocity": 74}, {"time": 1181, "pitch": 59, "duration": 1, "velocity": 76}, {"time": 1181, "pitch": 63, "duration": 1, "velocity": 95}, {"time": 1181, "pitch": 66, "duration": 1, "velocity": 77}, {"time": 1184, "pitch": 47, "duration": 2, "velocity": 72}, {"time": 1184, "pitch": 59, "duration": 2, "velocity": 67}, {"time": 1184, "pitch": 63, "duration": 2, "velocity": 85}, {"time": 1184, "pitch": 66, "duration": 2, "velocity": 71}, {"time": 1187, "pitch": 47, "duration": 2, "velocity": 86}, {"time": 1187, "pitch": 59, "duration": 2, "velocity": 83}, {"time": 1187, "pitch": 63, "duration": 2, "velocity": 102}, {"time": 1187, "pitch": 66, "duration": 2, "velocity": 90}, {"time": 1190, "pitch": 47, "duration": 2, "velocity": 90}, {"time": 1190, "pitch": 59, "duration": 2, "velocity": 89}, {"time": 1190, "pitch": 63, "duration": 2, "velocity": 107}, {"time": 1190, "pitch": 66, "duration": 2, "velocity": 96}, {"time": 1193, "pitch": 47, "duration": 2, "velocity": 92}, {"time": 1193, "pitch": 59, "duration": 1, "velocity": 93}, {"time": 1193, "pitch": 63, "duration": 1, "velocity": 117}, {"time": 1193, "pitch": 66, "duration": 1, "velocity": 99}, {"time": 1196, "pitch": 47, "duration": 2, "velocity": 92}, {"time": 1196, "pitch": 59, "duration": 2, "velocity": 97}, {"time": 1196, "pitch": 63, "duration": 1, "velocity": 127}, {"time": 1196, "pitch": 66, "duration": 1, "velocity": 99}, {"time": 1199, "pitch": 47, "duration": 2, "velocity": 95}, {"time": 1199, "pitch": 59, "duration": 2, "velocity": 99}, {"time": 1199, "pitch": 63, "duration": 1, "velocity": 102}, {"time": 1202, "pitch": 45, "duration": 24, "velocity": 107}, {"time": 1202, "pitch": 57, "duration": 24, "velocity": 122}, {"time": 1202, "pitch": 61, "duration": 24, "velocity": 127}, {"time": 1202, "pitch": 64, "duration": 24, "velocity": 100}, {"time": 1226, "pitch": 52, "duration": 12, "velocity": 90}, {"time": 1226, "pitch": 59, "duration": 12, "velocity": 93}, {"time": 1226, "pitch": 64, "duration": 12, "velocity": 97}, {"time": 1226, "pitch": 68, "duration": 12, "velocity": 99}, {"time": 1238, "pitch": 51, "duration": 12, "velocity": 78}, {"time": 1238, "pitch": 63, "duration": 9, "velocity": 117}, {"time": 1250, "pitch": 49, "duration": 4, "velocity": 89}, {"time": 1250, "pitch": 61, "duration": 6, "velocity": 102}, {"time": 1250, "pitch": 64, "duration": 5, "velocity": 99}, {"time": 1250, "pitch": 68, "duration": 4, "velocity": 100}, {"time": 1262, "pitch": 42, "duration": 4, "velocity": 99}, {"time": 1262, "pitch": 54, "duration": 5, "velocity": 107}, {"time": 1262, "pitch": 61, "duration": 5, "velocity": 100}, {"time": 1274, "pitch": 47, "duration": 5, "velocity": 81}, {"time": 1274, "pitch": 59, "duration": 6, "velocity": 95}, {"time": 1274, "pitch": 63, "duration": 5, "velocity": 127}, {"time": 1274, "pitch": 66, "duration": 5, "velocity": 112}, {"time": 1286, "pitch": 42, "duration": 4, "velocity": 99}, {"time": 1286, "pitch": 54, "duration": 5, "velocity": 102}, {"time": 1286, "pitch": 58, "duration": 5, "velocity": 117}, {"time": 1286, "pitch": 61, "duration": 5, "velocity": 100}, {"time": 1298, "pitch": 47, "duration": 23, "velocity": 70}, {"time": 1298, "pitch": 54, "duration": 20, "velocity": 93}, {"time": 1298, "pitch": 59, "duration": 11, "velocity": 112}, {"time": 1298, "pitch": 63, "duration": 12, "velocity": 122}, {"time": 1298, "pitch": 66, "duration": 11, "velocity": 107}, {"time": 1310, "pitch": 59, "duration": 10, "velocity": 71}, {"time": 1310, "pitch": 63, "duration": 10, "velocity": 85}, {"time": 1310, "pitch": 66, "duration": 10, "velocity": 79}, {"time": 1322, "pitch": 47, "duration": 24, "velocity": 73}, {"time": 1322, "pitch": 54, "duration": 23, "velocity": 99}, {"time": 1322, "pitch": 59, "duration": 11, "velocity": 95}, {"time": 1322, "pitch": 63, "duration": 11, "velocity": 102}, {"time": 1322, "pitch": 66, "duration": 11, "velocity": 99}, {"time": 1334, "pitch": 63, "duration": 12, "velocity": 127}, {"time": 1334, "pitch": 66, "duration": 12, "velocity": 127}, {"time": 1340, "pitch": 59, "duration": 6, "velocity": 96}, {"time": 1346, "pitch": 40, "duration": 16, "velocity": 68}, {"time": 1346, "pitch": 59, "duration": 11, "velocity": 88}, {"time": 1346, "pitch": 64, "duration": 10, "velocity": 93}, {"time": 1346, "pitch": 68, "duration": 10, "velocity": 93}, {"time": 1358, "pitch": 59, "duration": 10, "velocity": 89}, {"time": 1358, "pitch": 64, "duration": 8, "velocity": 100}, {"time": 1358, "pitch": 68, "duration": 9, "velocity": 100}, {"time": 1370, "pitch": 52, "duration": 14, "velocity": 60}, {"time": 1370, "pitch": 59, "duration": 10, "velocity": 86}, {"time": 1370, "pitch": 64, "duration": 6, "velocity": 95}, {"time": 1370, "pitch": 68, "duration": 7, "velocity": 92}, {"time": 1382, "pitch": 59, "duration": 1, "velocity": 59}, {"time": 1382, "pitch": 64, "duration": 7, "velocity": 100}, {"time": 1382, "pitch": 68, "duration": 8, "velocity": 107}, {"time": 1388, "pitch": 52, "duration": 1, "velocity": 56}, {"time": 1394, "pitch": 37, "duration": 1, "velocity": 100}, {"time": 1394, "pitch": 61, "duration": 10, "velocity": 89}, {"time": 1394, "pitch": 64, "duration": 6, "velocity": 88}, {"time": 1394, "pitch": 68, "duration": 8, "velocity": 99}, {"time": 1400, "pitch": 49, "duration": 13, "velocity": 31}, {"time": 1406, "pitch": 52, "duration": 6, "velocity": 34}, {"time": 1406, "pitch": 56, "duration": 2, "velocity": 45}, {"time": 1406, "pitch": 61, "duration": 7, "velocity": 96}, {"time": 1406, "pitch": 64, "duration": 5, "velocity": 95}, {"time": 1406, "pitch": 68, "duration": 6, "velocity": 100}, {"time": 1412, "pitch": 56, "duration": 2, "velocity": 73}, {"time": 1418, "pitch": 47, "duration": 14, "velocity": 69}, {"time": 1418, "pitch": 59, "duration": 8, "velocity": 81}, {"time": 1418, "pitch": 63, "duration": 7, "velocity": 73}, {"time": 1418, "pitch": 66, "duration": 8, "velocity": 75}, {"time": 1424, "pitch": 54, "duration": 7, "velocity": 66}, {"time": 1430, "pitch": 63, "duration": 7, "velocity": 127}, {"time": 1430, "pitch": 66, "duration": 7, "velocity": 112}, {"time": 1436, "pitch": 59, "duration": 5, "velocity": 78}, {"time": 1442, "pitch": 40, "duration": 23, "velocity": 75}, {"time": 1442, "pitch": 59, "duration": 5, "velocity": 62}, {"time": 1442, "pitch": 64, "duration": 4, "velocity": 89}, {"time": 1442, "pitch": 68, "duration": 4, "velocity": 93}, {"time": 1448, "pitch": 47, "duration": 10, "velocity": 62}, {"time": 1454, "pitch": 52, "duration": 6, "velocity": 85}, {"time": 1454, "pitch": 56, "duration": 6, "velocity": 107}, {"time": 1454, "pitch": 59, "duration": 6, "velocity": 92}, {"time": 1460, "pitch": 47, "duration": 6, "velocity": 39}, {"time": 1466, "pitch": 40, "duration": 12, "velocity": 58}, {"time": 1466, "pitch": 59, "duration": 7, "velocity": 88}, {"time": 1466, "pitch": 64, "duration": 7, "velocity": 88}, {"time": 1466, "pitch": 68, "duration": 7, "velocity": 96}, {"time": 1472, "pitch": 47, "duration": 5, "velocity": 51}, {"time": 1475, "pitch": 68, "duration": 1, "velocity": 31}, {"time": 1478, "pitch": 59, "duration": 6, "velocity": 90}, {"time": 1478, "pitch": 64, "duration": 5, "velocity": 100}, {"time": 1478, "pitch": 68, "duration": 6, "velocity": 99}, {"time": 1484, "pitch": 39, "duration": 7, "velocity": 83}, {"time": 1490, "pitch": 37, "duration": 12, "velocity": 92}, {"time": 1490, "pitch": 61, "duration": 8, "velocity": 97}, {"time": 1490, "pitch": 64, "duration": 7, "velocity": 95}, {"time": 1490, "pitch": 68, "duration": 7, "velocity": 93}, {"time": 1496, "pitch": 49, "duration": 8, "velocity": 52}, {"time": 1502, "pitch": 61, "duration": 6, "velocity": 96}, {"time": 1502, "pitch": 64, "duration": 5, "velocity": 90}, {"time": 1502, "pitch": 68, "duration": 6, "velocity": 102}, {"time": 1514, "pitch": 47, "duration": 17, "velocity": 73}, {"time": 1514, "pitch": 59, "duration": 8, "velocity": 95}, {"time": 1514, "pitch": 63, "duration": 8, "velocity": 112}, {"time": 1514, "pitch": 66, "duration": 7, "velocity": 99}, {"time": 1520, "pitch": 54, "duration": 8, "velocity": 82}, {"time": 1526, "pitch": 63, "duration": 6, "velocity": 127}, {"time": 1526, "pitch": 66, "duration": 6, "velocity": 127}, {"time": 1529, "pitch": 54, "duration": 2, "velocity": 92}, {"time": 1532, "pitch": 59, "duration": 1, "velocity": 93}, {"time": 1538, "pitch": 49, "duration": 19, "velocity": 102}, {"time": 1538, "pitch": 61, "duration": 10, "velocity": 112}, {"time": 1538, "pitch": 64, "duration": 10, "velocity": 97}, {"time": 1538, "pitch": 68, "duration": 10, "velocity": 99}, {"time": 1550, "pitch": 61, "duration": 8, "velocity": 112}, {"time": 1550, "pitch": 64, "duration": 7, "velocity": 100}, {"time": 1550, "pitch": 68, "duration": 8, "velocity": 117}, {"time": 1562, "pitch": 49, "duration": 10, "velocity": 67}, {"time": 1562, "pitch": 61, "duration": 11, "velocity": 86}, {"time": 1562, "pitch": 64, "duration": 10, "velocity": 73}, {"time": 1562, "pitch": 68, "duration": 10, "velocity": 83}, {"time": 1574, "pitch": 61, "duration": 7, "velocity": 93}, {"time": 1574, "pitch": 64, "duration": 5, "velocity": 89}, {"time": 1574, "pitch": 68, "duration": 6, "velocity": 102}, {"time": 1580, "pitch": 49, "duration": 6, "velocity": 65}, {"time": 1586, "pitch": 44, "duration": 14, "velocity": 56}, {"time": 1586, "pitch": 56, "duration": 10, "velocity": 89}, {"time": 1586, "pitch": 59, "duration": 7, "velocity": 77}, {"time": 1586, "pitch": 63, "duration": 10, "velocity": 85}, {"time": 1598, "pitch": 56, "duration": 6, "velocity": 97}, {"time": 1598, "pitch": 59, "duration": 6, "velocity": 95}, {"time": 1598, "pitch": 63, "duration": 7, "velocity": 99}, {"time": 1604, "pitch": 44, "duration": 5, "velocity": 59}, {"time": 1610, "pitch": 49, "duration": 15, "velocity": 96}, {"time": 1610, "pitch": 61, "duration": 8, "velocity": 97}, {"time": 1610, "pitch": 64, "duration": 7, "velocity": 82}, {"time": 1610, "pitch": 68, "duration": 7, "velocity": 92}, {"time": 1619, "pitch": 61, "duration": 1, "velocity": 19}, {"time": 1619, "pitch": 68, "duration": 1, "velocity": 19}, {"time": 1622, "pitch": 61, "duration": 6, "velocity": 97}, {"time": 1622, "pitch": 64, "duration": 4, "velocity": 99}, {"time": 1622, "pitch": 68, "duration": 5, "velocity": 102}, {"time": 1628, "pitch": 49, "duration": 6, "velocity": 90}, {"time": 1634, "pitch": 42, "duration": 16, "velocity": 85}, {"time": 1634, "pitch": 54, "duration": 10, "velocity": 99}, {"time": 1634, "pitch": 58, "duration": 10, "velocity": 102}, {"time": 1634, "pitch": 61, "duration": 10, "velocity": 97}, {"time": 1646, "pitch": 54, "duration": 4, "velocity": 95}, {"time": 1646, "pitch": 58, "duration": 5, "velocity": 122}, {"time": 1646, "pitch": 61, "duration": 5, "velocity": 102}, {"time": 1652, "pitch": 42, "duration": 6, "velocity": 62}, {"time": 1658, "pitch": 47, "duration": 16, "velocity": 79}, {"time": 1658, "pitch": 59, "duration": 9, "velocity": 92}, {"time": 1658, "pitch": 63, "duration": 10, "velocity": 112}, {"time": 1658, "pitch": 66, "duration": 10, "velocity": 100}, {"time": 1670, "pitch": 59, "duration": 8, "velocity": 99}, {"time": 1670, "pitch": 63, "duration": 7, "velocity": 127}, {"time": 1670, "pitch": 66, "duration": 7, "velocity": 127}, {"time": 1676, "pitch": 47, "duration": 5, "velocity": 102}, {"time": 1682, "pitch": 45, "duration": 15, "velocity": 102}, {"time": 1682, "pitch": 57, "duration": 18, "velocity": 122}, {"time": 1682, "pitch": 61, "duration": 17, "velocity": 127}, {"time": 1682, "pitch": 64, "duration": 16, "velocity": 99}, {"time": 1706, "pitch": 42, "duration": 21, "velocity": 89}, {"time": 1706, "pitch": 54, "duration": 21, "velocity": 102}, {"time": 1706, "pitch": 57, "duration": 20, "velocity": 102}, {"time": 1706, "pitch": 61, "duration": 21, "velocity": 112}, {"time": 1730, "pitch": 42, "duration": 4, "velocity": 89}, {"time": 1730, "pitch": 54, "duration": 4, "velocity": 97}, {"time": 1730, "pitch": 58, "duration": 4, "velocity": 122}, {"time": 1730, "pitch": 61, "duration": 4, "velocity": 102}, {"time": 1742, "pitch": 37, "duration": 4, "velocity": 95}, {"time": 1742, "pitch": 49, "duration": 4, "velocity": 99}, {"time": 1742, "pitch": 52, "duration": 4, "velocity": 99}, {"time": 1742, "pitch": 56, "duration": 5, "velocity": 107}, {"time": 1754, "pitch": 47, "duration": 19, "velocity": 74}, {"time": 1754, "pitch": 59, "duration": 22, "velocity": 107}, {"time": 1754, "pitch": 63, "duration": 22, "velocity": 127}, {"time": 1754, "pitch": 66, "duration": 22, "velocity": 112}, {"time": 1778, "pitch": 47, "duration": 24, "velocity": 63}, {"time": 1778, "pitch": 54, "duration": 5, "velocity": 90}, {"time": 1778, "pitch": 59, "duration": 5, "velocity": 92}, {"time": 1778, "pitch": 63, "duration": 5, "velocity": 127}, {"time": 1778, "pitch": 66, "duration": 5, "velocity": 107}, {"time": 1784, "pitch": 54, "duration": 4, "velocity": 66}, {"time": 1784, "pitch": 59, "duration": 5, "velocity": 86}, {"time": 1784, "pitch": 63, "duration": 5, "velocity": 107}, {"time": 1784, "pitch": 66, "duration": 5, "velocity": 99}, {"time": 1790, "pitch": 54, "duration": 4, "velocity": 95}, {"time": 1790, "pitch": 59, "duration": 4, "velocity": 93}, {"time": 1790, "pitch": 63, "duration": 5, "velocity": 107}, {"time": 1790, "pitch": 66, "duration": 4, "velocity": 100}, {"time": 1796, "pitch": 54, "duration": 4, "velocity": 99}, {"time": 1796, "pitch": 59, "duration": 5, "velocity": 100}, {"time": 1796, "pitch": 63, "duration": 5, "velocity": 127}, {"time": 1796, "pitch": 66, "duration": 5, "velocity": 127}, {"time": 1802, "pitch": 47, "duration": 3, "velocity": 96}, {"time": 1802, "pitch": 59, "duration": 2, "velocity": 77}, {"time": 1802, "pitch": 63, "duration": 2, "velocity": 122}, {"time": 1802, "pitch": 66, "duration": 3, "velocity": 93}, {"time": 1808, "pitch": 45, "duration": 2, "velocity": 102}, {"time": 1808, "pitch": 57, "duration": 1, "velocity": 96}, {"time": 1808, "pitch": 61, "duration": 1, "velocity": 102}, {"time": 1808, "pitch": 64, "duration": 1, "velocity": 82}, {"time": 1811, "pitch": 47, "duration": 3, "velocity": 112}, {"time": 1811, "pitch": 59, "duration": 3, "velocity": 89}, {"time": 1811, "pitch": 63, "duration": 3, "velocity": 122}, {"time": 1811, "pitch": 66, "duration": 3, "velocity": 112}, {"time": 1817, "pitch": 47, "duration": 2, "velocity": 107}, {"time": 1817, "pitch": 59, "duration": 2, "velocity": 74}, {"time": 1817, "pitch": 63, "duration": 2, "velocity": 88}, {"time": 1817, "pitch": 66, "duration": 2, "velocity": 77}, {"time": 1820, "pitch": 47, "duration": 2, "velocity": 97}, {"time": 1820, "pitch": 59, "duration": 2, "velocity": 74}, {"time": 1820, "pitch": 63, "duration": 2, "velocity": 95}, {"time": 1820, "pitch": 66, "duration": 2, "velocity": 78}, {"time": 1823, "pitch": 47, "duration": 2, "velocity": 112}, {"time": 1823, "pitch": 59, "duration": 1, "velocity": 90}, {"time": 1823, "pitch": 63, "duration": 1, "velocity": 122}, {"time": 1823, "pitch": 66, "duration": 1, "velocity": 99}, {"time": 1826, "pitch": 49, "duration": 23, "velocity": 117}, {"time": 1832, "pitch": 61, "duration": 8, "velocity": 112}, {"time": 1832, "pitch": 64, "duration": 7, "velocity": 100}, {"time": 1832, "pitch": 68, "duration": 8, "velocity": 112}, {"time": 1835, "pitch": 52, "duration": 13, "velocity": 32}, {"time": 1838, "pitch": 56, "duration": 11, "velocity": 86}, {"time": 1841, "pitch": 61, "duration": 5, "velocity": 112}, {"time": 1841, "pitch": 64, "duration": 5, "velocity": 102}, {"time": 1841, "pitch": 68, "duration": 5, "velocity": 112}, {"time": 1847, "pitch": 61, "duration": 5, "velocity": 102}, {"time": 1847, "pitch": 64, "duration": 4, "velocity": 93}, {"time": 1847, "pitch": 68, "duration": 4, "velocity": 107}, {"time": 1850, "pitch": 49, "duration": 8, "velocity": 117}, {"time": 1850, "pitch": 56, "duration": 8, "velocity": 59}, {"time": 1856, "pitch": 61, "duration": 7, "velocity": 112}, {"time": 1856, "pitch": 64, "duration": 7, "velocity": 100}, {"time": 1856, "pitch": 68, "duration": 7, "velocity": 117}, {"time": 1859, "pitch": 49, "duration": 2, "velocity": 81}, {"time": 1859, "pitch": 56, "duration": 1, "velocity": 52}, {"time": 1862, "pitch": 49, "duration": 8, "velocity": 99}, {"time": 1862, "pitch": 56, "duration": 9, "velocity": 92}, {"time": 1865, "pitch": 61, "duration": 5, "velocity": 112}, {"time": 1865, "pitch": 64, "duration": 5, "velocity": 100}, {"time": 1865, "pitch": 68, "duration": 5, "velocity": 107}, {"time": 1871, "pitch": 61, "duration": 4, "velocity": 107}, {"time": 1871, "pitch": 64, "duration": 3, "velocity": 99}, {"time": 1871, "pitch": 68, "duration": 4, "velocity": 100}, {"time": 1874, "pitch": 49, "duration": 22, "velocity": 100}, {"time": 1874, "pitch": 56, "duration": 7, "velocity": 82}, {"time": 1880, "pitch": 61, "duration": 2, "velocity": 107}, {"time": 1880, "pitch": 64, "duration": 3, "velocity": 97}, {"time": 1880, "pitch": 68, "duration": 7, "velocity": 99}, {"time": 1883, "pitch": 61, "duration": 4, "velocity": 57}, {"time": 1886, "pitch": 56, "duration": 10, "velocity": 82}, {"time": 1889, "pitch": 61, "duration": 5, "velocity": 107}, {"time": 1889, "pitch": 64, "duration": 4, "velocity": 95}, {"time": 1889, "pitch": 68, "duration": 4, "velocity": 100}, {"time": 1895, "pitch": 61, "duration": 4, "velocity": 102}, {"time": 1895, "pitch": 64, "duration": 4, "velocity": 86}, {"time": 1895, "pitch": 68, "duration": 4, "velocity": 93}, {"time": 1898, "pitch": 49, "duration": 12, "velocity": 93}, {"time": 1898, "pitch": 56, "duration": 10, "velocity": 88}, {"time": 1904, "pitch": 64, "duration": 5, "velocity": 99}, {"time": 1904, "pitch": 68, "duration": 7, "velocity": 117}, {"time": 1907, "pitch": 61, "duration": 4, "velocity": 73}, {"time": 1910, "pitch": 49, "duration": 5, "velocity": 59}, {"time": 1910, "pitch": 56, "duration": 4, "velocity": 92}, {"time": 1913, "pitch": 61, "duration": 5, "velocity": 117}, {"time": 1913, "pitch": 64, "duration": 4, "velocity": 102}, {"time": 1913, "pitch": 68, "duration": 5, "velocity": 122}, {"time": 1919, "pitch": 61, "duration": 3, "velocity": 107}, {"time": 1919, "pitch": 64, "duration": 2, "velocity": 96}, {"time": 1919, "pitch": 68, "duration": 2, "velocity": 100}, {"time": 1922, "pitch": 47, "duration": 23, "velocity": 76}, {"time": 1928, "pitch": 59, "duration": 7, "velocity": 99}, {"time": 1928, "pitch": 63, "duration": 7, "velocity": 127}, {"time": 1928, "pitch": 66, "duration": 6, "velocity": 122}, {"time": 1931, "pitch": 54, "duration": 2, "velocity": 74}, {"time": 1934, "pitch": 54, "duration": 13, "velocity": 93}, {"time": 1937, "pitch": 59, "duration": 5, "velocity": 96}, {"time": 1937, "pitch": 63, "duration": 5, "velocity": 117}, {"time": 1937, "pitch": 66, "duration": 5, "velocity": 107}, {"time": 1943, "pitch": 59, "duration": 4, "velocity": 73}, {"time": 1943, "pitch": 63, "duration": 4, "velocity": 102}, {"time": 1943, "pitch": 66, "duration": 4, "velocity": 92}, {"time": 1946, "pitch": 47, "duration": 23, "velocity": 67}, {"time": 1952, "pitch": 59, "duration": 7, "velocity": 93}, {"time": 1952, "pitch": 63, "duration": 7, "velocity": 122}, {"time": 1952, "pitch": 66, "duration": 6, "velocity": 112}, {"time": 1955, "pitch": 54, "duration": 15, "velocity": 58}, {"time": 1961, "pitch": 59, "duration": 4, "velocity": 92}, {"time": 1961, "pitch": 63, "duration": 4, "velocity": 117}, {"time": 1961, "pitch": 66, "duration": 4, "velocity": 96}, {"time": 1967, "pitch": 59, "duration": 5, "velocity": 86}, {"time": 1967, "pitch": 63, "duration": 4, "velocity": 122}, {"time": 1967, "pitch": 66, "duration": 4, "velocity": 99}, {"time": 1970, "pitch": 47, "duration": 23, "velocity": 66}, {"time": 1976, "pitch": 59, "duration": 7, "velocity": 100}, {"time": 1976, "pitch": 63, "duration": 7, "velocity": 127}, {"time": 1976, "pitch": 66, "duration": 7, "velocity": 112}, {"time": 1979, "pitch": 54, "duration": 2, "velocity": 50}, {"time": 1982, "pitch": 54, "duration": 12, "velocity": 63}, {"time": 1985, "pitch": 59, "duration": 4, "velocity": 90}, {"time": 1985, "pitch": 63, "duration": 5, "velocity": 112}, {"time": 1985, "pitch": 66, "duration": 5, "velocity": 93}, {"time": 1991, "pitch": 59, "duration": 6, "velocity": 82}, {"time": 1991, "pitch": 63, "duration": 5, "velocity": 107}, {"time": 1991, "pitch": 66, "duration": 5, "velocity": 92}, {"time": 1994, "pitch": 47, "duration": 17, "velocity": 61}, {"time": 2000, "pitch": 59, "duration": 7, "velocity": 95}, {"time": 2000, "pitch": 63, "duration": 7, "velocity": 127}, {"time": 2000, "pitch": 66, "duration": 7, "velocity": 127}, {"time": 2006, "pitch": 54, "duration": 4, "velocity": 77}, {"time": 2009, "pitch": 59, "duration": 9, "velocity": 85}, {"time": 2009, "pitch": 63, "duration": 3, "velocity": 122}, {"time": 2009, "pitch": 66, "duration": 4, "velocity": 112}, {"time": 2018, "pitch": 42, "duration": 23, "velocity": 76}, {"time": 2018, "pitch": 54, "duration": 12, "velocity": 95}, {"time": 2018, "pitch": 57, "duration": 11, "velocity": 102}, {"time": 2018, "pitch": 61, "duration": 11, "velocity": 97}, {"time": 2030, "pitch": 54, "duration": 11, "velocity": 79}, {"time": 2030, "pitch": 57, "duration": 9, "velocity": 86}, {"time": 2030, "pitch": 61, "duration": 9, "velocity": 76}, {"time": 2042, "pitch": 42, "duration": 14, "velocity": 95}, {"time": 2042, "pitch": 54, "duration": 11, "velocity": 93}, {"time": 2042, "pitch": 58, "duration": 11, "velocity": 117}, {"time": 2042, "pitch": 61, "duration": 11, "velocity": 112}, {"time": 2054, "pitch": 54, "duration": 2, "velocity": 88}, {"time": 2054, "pitch": 58, "duration": 2, "velocity": 107}, {"time": 2054, "pitch": 61, "duration": 2, "velocity": 97}, {"time": 2066, "pitch": 47, "duration": 22, "velocity": 71}, {"time": 2066, "pitch": 59, "duration": 9, "velocity": 102}, {"time": 2066, "pitch": 63, "duration": 10, "velocity": 127}, {"time": 2066, "pitch": 66, "duration": 8, "velocity": 122}, {"time": 2072, "pitch": 54, "duration": 10, "velocity": 50}, {"time": 2078, "pitch": 59, "duration": 11, "velocity": 100}, {"time": 2078, "pitch": 63, "duration": 11, "velocity": 127}, {"time": 2078, "pitch": 66, "duration": 10, "velocity": 122}, {"time": 2084, "pitch": 54, "duration": 5, "velocity": 37}, {"time": 2090, "pitch": 47, "duration": 17, "velocity": 67}, {"time": 2090, "pitch": 54, "duration": 10, "velocity": 96}, {"time": 2090, "pitch": 59, "duration": 4, "velocity": 81}, {"time": 2090, "pitch": 63, "duration": 4, "velocity": 92}, {"time": 2090, "pitch": 66, "duration": 4, "velocity": 86}, {"time": 2096, "pitch": 59, "duration": 2, "velocity": 62}, {"time": 2096, "pitch": 63, "duration": 2, "velocity": 54}, {"time": 2096, "pitch": 66, "duration": 2, "velocity": 56}, {"time": 2099, "pitch": 59, "duration": 2, "velocity": 69}, {"time": 2099, "pitch": 63, "duration": 2, "velocity": 75}, {"time": 2099, "pitch": 66, "duration": 2, "velocity": 58}, {"time": 2102, "pitch": 54, "duration": 3, "velocity": 90}, {"time": 2102, "pitch": 59, "duration": 2, "velocity": 86}, {"time": 2102, "pitch": 63, "duration": 2, "velocity": 122}, {"time": 2102, "pitch": 66, "duration": 2, "velocity": 99}, {"time": 2105, "pitch": 59, "duration": 2, "velocity": 92}, {"time": 2105, "pitch": 63, "duration": 1, "velocity": 117}, {"time": 2105, "pitch": 66, "duration": 2, "velocity": 96}, {"time": 2108, "pitch": 59, "duration": 1, "velocity": 90}, {"time": 2108, "pitch": 63, "duration": 1, "velocity": 122}, {"time": 2108, "pitch": 66, "duration": 2, "velocity": 100}, {"time": 2111, "pitch": 59, "duration": 2, "velocity": 93}, {"time": 2114, "pitch": 45, "duration": 23, "velocity": 76}, {"time": 2114, "pitch": 57, "duration": 18, "velocity": 122}, {"time": 2114, "pitch": 61, "duration": 20, "velocity": 127}, {"time": 2114, "pitch": 64, "duration": 20, "velocity": 102}, {"time": 2138, "pitch": 49, "duration": 12, "velocity": 102}, {"time": 2138, "pitch": 56, "duration": 9, "velocity": 107}, {"time": 2138, "pitch": 61, "duration": 7, "velocity": 100}, {"time": 2138, "pitch": 64, "duration": 7, "velocity": 92}, {"time": 2150, "pitch": 52, "duration": 4, "velocity": 102}, {"time": 2150, "pitch": 59, "duration": 6, "velocity": 95}, {"time": 2150, "pitch": 64, "duration": 5, "velocity": 107}, {"time": 2150, "pitch": 68, "duration": 6, "velocity": 107}, {"time": 2162, "pitch": 42, "duration": 11, "velocity": 97}, {"time": 2162, "pitch": 54, "duration": 10, "velocity": 97}, {"time": 2162, "pitch": 58, "duration": 10, "velocity": 107}, {"time": 2162, "pitch": 61, "duration": 11, "velocity": 97}, {"time": 2174, "pitch": 42, "duration": 4, "velocity": 95}, {"time": 2174, "pitch": 54, "duration": 5, "velocity": 100}, {"time": 2174, "pitch": 58, "duration": 5, "velocity": 112}, {"time": 2174, "pitch": 61, "duration": 5, "velocity": 96}, {"time": 2186, "pitch": 47, "duration": 11, "velocity": 90}, {"time": 2186, "pitch": 59, "duration": 10, "velocity": 102}, {"time": 2186, "pitch": 63, "duration": 10, "velocity": 127}, {"time": 2186, "pitch": 66, "duration": 10, "velocity": 117}, {"time": 2198, "pitch": 42, "duration": 9, "velocity": 107}, {"time": 2198, "pitch": 54, "duration": 9, "velocity": 102}, {"time": 2198, "pitch": 58, "duration": 9, "velocity": 117}, {"time": 2198, "pitch": 61, "duration": 9, "velocity": 100}, {"time": 2210, "pitch": 42, "duration": 34, "velocity": 71}, {"time": 2210, "pitch": 49, "duration": 35, "velocity": 107}, {"time": 2210, "pitch": 54, "duration": 35, "velocity": 102}, {"time": 2210, "pitch": 61, "duration": 35, "velocity": 112}, {"time": 2210, "pitch": 66, "duration": 34, "velocity": 127}, {"time": 2210, "pitch": 70, "duration": 35, "velocity": 117}, {"time": 2258, "pitch": 47, "duration": 22, "velocity": 90}, {"time": 2258, "pitch": 54, "duration": 22, "velocity": 117}, {"time": 2258, "pitch": 59, "duration": 22, "velocity": 96}, {"time": 2258, "pitch": 63, "duration": 22, "velocity": 127}, {"time": 2258, "pitch": 66, "duration": 22, "velocity": 112}, {"time": 2282, "pitch": 47, "duration": 2, "velocity": 63}, {"time": 2282, "pitch": 54, "duration": 2, "velocity": 90}, {"time": 2282, "pitch": 59, "duration": 2, "velocity": 66}, {"time": 2282, "pitch": 63, "duration": 2, "velocity": 42}, {"time": 2282, "pitch": 66, "duration": 2, "velocity": 52}, {"time": 2285, "pitch": 47, "duration": 1, "velocity": 59}, {"time": 2285, "pitch": 54, "duration": 2, "velocity": 95}, {"time": 2285, "pitch": 59, "duration": 2, "velocity": 63}, {"time": 2285, "pitch": 63, "duration": 2, "velocity": 74}, {"time": 2285, "pitch": 66, "duration": 2, "velocity": 69}, {"time": 2288, "pitch": 47, "duration": 1, "velocity": 67}, {"time": 2288, "pitch": 54, "duration": 2, "velocity": 100}, {"time": 2288, "pitch": 59, "duration": 2, "velocity": 86}, {"time": 2288, "pitch": 63, "duration": 2, "velocity": 97}, {"time": 2288, "pitch": 66, "duration": 2, "velocity": 93}, {"time": 2291, "pitch": 47, "duration": 1, "velocity": 69}, {"time": 2291, "pitch": 54, "duration": 1, "velocity": 117}, {"time": 2291, "pitch": 59, "duration": 1, "velocity": 89}, {"time": 2291, "pitch": 63, "duration": 1, "velocity": 112}, {"time": 2291, "pitch": 66, "duration": 1, "velocity": 95}, {"time": 2294, "pitch": 47, "duration": 2, "velocity": 97}, {"time": 2294, "pitch": 54, "duration": 2, "velocity": 127}, {"time": 2294, "pitch": 59, "duration": 2, "velocity": 112}, {"time": 2294, "pitch": 63, "duration": 2, "velocity": 127}, {"time": 2294, "pitch": 66, "duration": 2, "velocity": 127}, {"time": 2303, "pitch": 47, "duration": 19, "velocity": 93}, {"time": 2303, "pitch": 54, "duration": 18, "velocity": 122}, {"time": 2303, "pitch": 59, "duration": 19, "velocity": 122}, {"time": 2303, "pitch": 63, "duration": 19, "velocity": 127}, {"time": 2303, "pitch": 66, "duration": 19, "velocity": 127}], "annotations": [{"time": 299, "annotation": {"number": 64, "value": 127}, "group": "control_change"}, {"time": 361, "annotation": {"number": 64, "value": 0}, "group": "control_change"}, {"time": 362, "annotation": {"number": 64, "value": 127}, "group": "control_change"}, {"time": 432, "annotation": {"number": 64, "value": 0}, "group": "control_change"}, {"time": 435, "annotation": {"number": 64, "value": 127}, "group": "control_change"}, {"time": 456, "annotation": {"number": 64, "value": 0}, "group": "control_change"}, {"time": 458, "annotation": {"number": 64, "value": 127}, "group": "control_change"}, {"time": 480, "annotation": {"number": 64, "value": 0}, "group": "control_change"}, {"time": 483, "annotation": {"number": 64, "value": 127}, "group": "control_change"}, {"time": 504, "annotation": {"number": 64, "value": 0}, "group": "control_change"}, {"time": 506, "annotation": {"number": 64, "value": 127}, "group": "control_change"}, {"time": 528, "annotation": {"number": 64, "value": 0}, "group": "control_change"}, {"time": 531, "annotation": {"number": 64, "value": 127}, "group": "control_change"}, {"time": 552, "annotation": {"number": 64, "value": 0}, "group": "control_change"}, {"time": 554, "annotation": {"number": 64, "value": 127}, "group": "control_change"}, {"time": 575, "annotation": {"number": 64, "value": 0}, "group": "control_change"}, {"time": 579, "annotation": {"number": 64, "value": 127}, "group": "control_change"}, {"time": 600, "annotation": {"number": 64, "value": 0}, "group": "control_change"}, {"time": 603, "annotation": {"number": 64, "value": 127}, "group": "control_change"}, {"time": 623, "annotation": {"number": 64, "value": 0}, "group": "control_change"}, {"time": 627, "annotation": {"number": 64, "value": 127}, "group": "control_change"}, {"time": 648, "annotation": {"number": 64, "value": 0}, "group": "control_change"}, {"time": 662, "annotation": {"number": 64, "value": 127}, "group": "control_change"}, {"time": 670, "annotation": {"number": 64, "value": 0}, "group": "control_change"}, {"time": 674, "annotation": {"number": 64, "value": 127}, "group": "control_change"}, {"time": 685, "annotation": {"number": 64, "value": 0}, "group": "control_change"}, {"time": 688, "annotation": {"number": 64, "value": 127}, "group": "control_change"}, {"time": 696, "annotation": {"number": 64, "value": 0}, "group": "control_change"}, {"time": 700, "annotation": {"number": 64, "value": 127}, "group": "control_change"}, {"time": 718, "annotation": {"number": 64, "value": 0}, "group": "control_change"}, {"time": 722, "annotation": {"number": 64, "value": 127}, "group": "control_change"}, {"time": 742, "annotation": {"number": 64, "value": 0}, "group": "control_change"}, {"time": 770, "annotation": {"number": 64, "value": 127}, "group": "control_change"}, {"time": 775, "annotation": {"number": 64, "value": 0}, "group": "control_change"}, {"time": 777, "annotation": {"number": 64, "value": 127}, "group": "control_change"}, {"time": 792, "annotation": {"number": 64, "value": 0}, "group": "control_change"}, {"time": 794, "annotation": {"number": 64, "value": 127}, "group": "control_change"}, {"time": 799, "annotation": {"number": 64, "value": 0}, "group": "control_change"}, {"time": 801, "annotation": {"number": 64, "value": 127}, "group": "control_change"}, {"time": 815, "annotation": {"number": 64, "value": 0}, "group": "control_change"}, {"time": 818, "annotation": {"number": 64, "value": 127}, "group": "control_change"}, {"time": 840, "annotation": {"number": 64, "value": 0}, "group": "control_change"}, {"time": 842, "annotation": {"number": 64, "value": 127}, "group": "control_change"}, {"time": 864, "annotation": {"number": 64, "value": 0}, "group": "control_change"}, {"time": 866, "annotation": {"number": 64, "value": 127}, "group": "control_change"}, {"time": 881, "annotation": {"number": 64, "value": 0}, "group": "control_change"}, {"time": 890, "annotation": {"number": 64, "value": 127}, "group": "control_change"}, {"time": 912, "annotation": {"number": 64, "value": 0}, "group": "control_change"}, {"time": 914, "annotation": {"number": 64, "value": 127}, "group": "control_change"}, {"time": 914, "annotation": {"number": 64, "value": 0}, "group": "control_change"}, {"time": 915, "annotation": {"number": 64, "value": 127}, "group": "control_change"}, {"time": 935, "annotation": {"number": 64, "value": 0}, "group": "control_change"}, {"time": 938, "annotation": {"number": 64, "value": 127}, "group": "control_change"}, {"time": 960, "annotation": {"number": 64, "value": 0}, "group": "control_change"}, {"time": 962, "annotation": {"number": 64, "value": 127}, "group": "control_change"}, {"time": 963, "annotation": {"number": 64, "value": 127}, "group": "control_change"}, {"time": 983, "annotation": {"number": 64, "value": 0}, "group": "control_change"}, {"time": 986, "annotation": {"number": 64, "value": 127}, "group": "control_change"}, {"time": 1008, "annotation": {"number": 64, "value": 0}, "group": "control_change"}, {"time": 1011, "annotation": {"number": 64, "value": 127}, "group": "control_change"}, {"time": 1056, "annotation": {"number": 64, "value": 0}, "group": "control_change"}, {"time": 1094, "annotation": {"number": 64, "value": 127}, "group": "control_change"}, {"time": 1103, "annotation": {"number": 64, "value": 0}, "group": "control_change"}, {"time": 1107, "annotation": {"number": 64, "value": 127}, "group": "control_change"}, {"time": 1115, "annotation": {"number": 64, "value": 0}, "group": "control_change"}, {"time": 1118, "annotation": {"number": 64, "value": 127}, "group": "control_change"}, {"time": 1127, "annotation": {"number": 64, "value": 0}, "group": "control_change"}, {"time": 1181, "annotation": {"number": 64, "value": 127}, "group": "control_change"}, {"time": 1181, "annotation": {"number": 64, "value": 0}, "group": "control_change"}, {"time": 1187, "annotation": {"number": 64, "value": 127}, "group": "control_change"}, {"time": 1190, "annotation": {"number": 64, "value": 0}, "group": "control_change"}, {"time": 1224, "annotation": {"number": 64, "value": 127}, "group": "control_change"}, {"time": 1237, "annotation": {"number": 64, "value": 0}, "group": "control_change"}, {"time": 1238, "annotation": {"number": 64, "value": 127}, "group": "control_change"}, {"time": 1248, "annotation": {"number": 64, "value": 0}, "group": "control_change"}, {"time": 1250, "annotation": {"number": 64, "value": 127}, "group": "control_change"}, {"time": 1261, "annotation": {"number": 64, "value": 0}, "group": "control_change"}, {"time": 1262, "annotation": {"number": 64, "value": 127}, "group": "control_change"}, {"time": 1272, "annotation": {"number": 64, "value": 0}, "group": "control_change"}, {"time": 1275, "annotation": {"number": 64, "value": 127}, "group": "control_change"}, {"time": 1284, "annotation": {"number": 64, "value": 0}, "group": "control_change"}, {"time": 1287, "annotation": {"number": 64, "value": 127}, "group": "control_change"}, {"time": 1296, "annotation": {"number": 64, "value": 0}, "group": "control_change"}, {"time": 1299, "annotation": {"number": 64, "value": 127}, "group": "control_change"}, {"time": 1319, "annotation": {"number": 64, "value": 0}, "group": "control_change"}, {"time": 1355, "annotation": {"number": 64, "value": 127}, "group": "control_change"}, {"time": 1417, "annotation": {"number": 64, "value": 0}, "group": "control_change"}, {"time": 1418, "annotation": {"number": 64, "value": 127}, "group": "control_change"}, {"time": 1488, "annotation": {"number": 64, "value": 0}, "group": "control_change"}, {"time": 1491, "annotation": {"number": 64, "value": 127}, "group": "control_change"}, {"time": 1512, "annotation": {"number": 64, "value": 0}, "group": "control_change"}, {"time": 1514, "annotation": {"number": 64, "value": 127}, "group": "control_change"}, {"time": 1536, "annotation": {"number": 64, "value": 0}, "group": "control_change"}, {"time": 1539, "annotation": {"number": 64, "value": 127}, "group": "control_change"}, {"time": 1560, "annotation": {"number": 64, "value": 0}, "group": "control_change"}, {"time": 1562, "annotation": {"number": 64, "value": 127}, "group": "control_change"}, {"time": 1584, "annotation": {"number": 64, "value": 0}, "group": "control_change"}, {"time": 1587, "annotation": {"number": 64, "value": 127}, "group": "control_change"}, {"time": 1608, "annotation": {"number": 64, "value": 0}, "group": "control_change"}, {"time": 1610, "annotation": {"number": 64, "value": 127}, "group": "control_change"}, {"time": 1631, "annotation": {"number": 64, "value": 0}, "group": "control_change"}, {"time": 1635, "annotation": {"number": 64, "value": 127}, "group": "control_change"}, {"time": 1656, "annotation": {"number": 64, "value": 0}, "group": "control_change"}, {"time": 1659, "annotation": {"number": 64, "value": 127}, "group": "control_change"}, {"time": 1679, "annotation": {"number": 64, "value": 0}, "group": "control_change"}, {"time": 1683, "annotation": {"number": 64, "value": 127}, "group": "control_change"}, {"time": 1704, "annotation": {"number": 64, "value": 0}, "group": "control_change"}, {"time": 1718, "annotation": {"number": 64, "value": 127}, "group": "control_change"}, {"time": 1726, "annotation": {"number": 64, "value": 0}, "group": "control_change"}, {"time": 1730, "annotation": {"number": 64, "value": 127}, "group": "control_change"}, {"time": 1741, "annotation": {"number": 64, "value": 0}, "group": "control_change"}, {"time": 1744, "annotation": {"number": 64, "value": 127}, "group": "control_change"}, {"time": 1752, "annotation": {"number": 64, "value": 0}, "group": "control_change"}, {"time": 1756, "annotation": {"number": 64, "value": 127}, "group": "control_change"}, {"time": 1774, "annotation": {"number": 64, "value": 0}, "group": "control_change"}, {"time": 1778, "annotation": {"number": 64, "value": 127}, "group": "control_change"}, {"time": 1798, "annotation": {"number": 64, "value": 0}, "group": "control_change"}, {"time": 1826, "annotation": {"number": 64, "value": 127}, "group": "control_change"}, {"time": 1831, "annotation": {"number": 64, "value": 0}, "group": "control_change"}, {"time": 1833, "annotation": {"number": 64, "value": 127}, "group": "control_change"}, {"time": 1848, "annotation": {"number": 64, "value": 0}, "group": "control_change"}, {"time": 1850, "annotation": {"number": 64, "value": 127}, "group": "control_change"}, {"time": 1855, "annotation": {"number": 64, "value": 0}, "group": "control_change"}, {"time": 1857, "annotation": {"number": 64, "value": 127}, "group": "control_change"}, {"time": 1871, "annotation": {"number": 64, "value": 0}, "group": "control_change"}, {"time": 1874, "annotation": {"number": 64, "value": 127}, "group": "control_change"}, {"time": 1896, "annotation": {"number": 64, "value": 0}, "group": "control_change"}, {"time": 1898, "annotation": {"number": 64, "value": 127}, "group": "control_change"}, {"time": 1920, "annotation": {"number": 64, "value": 0}, "group": "control_change"}, {"time": 1922, "annotation": {"number": 64, "value": 127}, "group": "control_change"}, {"time": 1937, "annotation": {"number": 64, "value": 0}, "group": "control_change"}, {"time": 1946, "annotation": {"number": 64, "value": 127}, "group": "control_change"}, {"time": 1968, "annotation": {"number": 64, "value": 0}, "group": "control_change"}, {"time": 1970, "annotation": {"number": 64, "value": 127}, "group": "control_change"}, {"time": 1970, "annotation": {"number": 64, "value": 0}, "group": "control_change"}, {"time": 1971, "annotation": {"number": 64, "value": 127}, "group": "control_change"}, {"time": 1991, "annotation": {"number": 64, "value": 0}, "group": "control_change"}, {"time": 1994, "annotation": {"number": 64, "value": 127}, "group": "control_change"}, {"time": 2016, "annotation": {"number": 64, "value": 0}, "group": "control_change"}, {"time": 2018, "annotation": {"number": 64, "value": 127}, "group": "control_change"}, {"time": 2019, "annotation": {"number": 64, "value": 127}, "group": "control_change"}, {"time": 2039, "annotation": {"number": 64, "value": 0}, "group": "control_change"}, {"time": 2042, "annotation": {"number": 64, "value": 127}, "group": "control_change"}, {"time": 2064, "annotation": {"number": 64, "value": 0}, "group": "control_change"}, {"time": 2067, "annotation": {"number": 64, "value": 127}, "group": "control_change"}, {"time": 2112, "annotation": {"number": 64, "value": 0}, "group": "control_change"}, {"time": 2150, "annotation": {"number": 64, "value": 127}, "group": "control_change"}, {"time": 2159, "annotation": {"number": 64, "value": 0}, "group": "control_change"}, {"time": 2163, "annotation": {"number": 64, "value": 127}, "group": "control_change"}, {"time": 2171, "annotation": {"number": 64, "value": 0}, "group": "control_change"}, {"time": 2174, "annotation": {"number": 64, "value": 127}, "group": "control_change"}, {"time": 2183, "annotation": {"number": 64, "value": 0}, "group": "control_change"}, {"time": 2241, "annotation": {"number": 64, "value": 127}, "group": "control_change"}, {"time": 2256, "annotation": {"number": 64, "value": 0}, "group": "control_change"}, {"time": 2259, "annotation": {"number": 64, "value": 127}, "group": "control_change"}, {"time": 2276, "annotation": {"number": 64, "value": 0}, "group": "control_change"}]}]}