{"metadata": {"schema_version": "0.2", "title": "None", "source_filename": "061.mid", "source_format": "midi"}, "resolution": 12, "tempos": [{"time": 0, "qpm": 85.00004250002125}], "time_signatures": [{"time": 0, "numerator": 1, "denominator": 4}], "tracks": [{"program": 0, "is_drum": false, "name": "MELODY", "notes": [{"time": 508, "pitch": 75, "duration": 4, "velocity": 127}, {"time": 514, "pitch": 75, "duration": 4, "velocity": 112}, {"time": 520, "pitch": 75, "duration": 10, "velocity": 117}, {"time": 526, "pitch": 75, "duration": 4, "velocity": 100}, {"time": 532, "pitch": 75, "duration": 4, "velocity": 97}, {"time": 538, "pitch": 75, "duration": 5, "velocity": 97}, {"time": 544, "pitch": 73, "duration": 11, "velocity": 100}, {"time": 562, "pitch": 71, "duration": 12, "velocity": 102}, {"time": 604, "pitch": 73, "duration": 2, "velocity": 102}, {"time": 610, "pitch": 73, "duration": 2, "velocity": 90}, {"time": 616, "pitch": 73, "duration": 2, "velocity": 88}, {"time": 622, "pitch": 73, "duration": 3, "velocity": 107}, {"time": 634, "pitch": 78, "duration": 3, "velocity": 107}, {"time": 640, "pitch": 78, "duration": 5, "velocity": 107}, {"time": 652, "pitch": 76, "duration": 3, "velocity": 99}, {"time": 664, "pitch": 75, "duration": 4, "velocity": 117}, {"time": 670, "pitch": 73, "duration": 5, "velocity": 127}, {"time": 700, "pitch": 76, "duration": 2, "velocity": 112}, {"time": 706, "pitch": 75, "duration": 2, "velocity": 100}, {"time": 712, "pitch": 76, "duration": 2, "velocity": 117}, {"time": 730, "pitch": 80, "duration": 3, "velocity": 127}, {"time": 736, "pitch": 80, "duration": 4, "velocity": 122}, {"time": 745, "pitch": 78, "duration": 2, "velocity": 122}, {"time": 754, "pitch": 76, "duration": 4, "velocity": 102}, {"time": 784, "pitch": 73, "duration": 8, "velocity": 102}, {"time": 793, "pitch": 75, "duration": 51, "velocity": 117}, {"time": 892, "pitch": 76, "duration": 3, "velocity": 93}, {"time": 898, "pitch": 76, "duration": 2, "velocity": 102}, {"time": 904, "pitch": 76, "duration": 3, "velocity": 112}, {"time": 910, "pitch": 76, "duration": 3, "velocity": 100}, {"time": 916, "pitch": 76, "duration": 3, "velocity": 102}, {"time": 922, "pitch": 78, "duration": 2, "velocity": 107}, {"time": 928, "pitch": 80, "duration": 7, "velocity": 127}, {"time": 940, "pitch": 80, "duration": 2, "velocity": 127}, {"time": 946, "pitch": 80, "duration": 3, "velocity": 122}, {"time": 958, "pitch": 82, "duration": 4, "velocity": 127}, {"time": 976, "pitch": 83, "duration": 7, "velocity": 127}, {"time": 988, "pitch": 82, "duration": 4, "velocity": 127}, {"time": 994, "pitch": 80, "duration": 6, "velocity": 127}, {"time": 1006, "pitch": 82, "duration": 8, "velocity": 127}, {"time": 1018, "pitch": 75, "duration": 18, "velocity": 127}, {"time": 1084, "pitch": 76, "duration": 3, "velocity": 102}, {"time": 1090, "pitch": 76, "duration": 2, "velocity": 112}, {"time": 1096, "pitch": 76, "duration": 2, "velocity": 112}, {"time": 1102, "pitch": 76, "duration": 3, "velocity": 122}, {"time": 1108, "pitch": 76, "duration": 3, "velocity": 122}, {"time": 1114, "pitch": 78, "duration": 5, "velocity": 127}, {"time": 1120, "pitch": 80, "duration": 5, "velocity": 122}, {"time": 1132, "pitch": 80, "duration": 4, "velocity": 127}, {"time": 1138, "pitch": 83, "duration": 9, "velocity": 97}, {"time": 1150, "pitch": 80, "duration": 7, "velocity": 127}, {"time": 1180, "pitch": 82, "duration": 3, "velocity": 127}, {"time": 1186, "pitch": 82, "duration": 2, "velocity": 112}, {"time": 1192, "pitch": 82, "duration": 8, "velocity": 122}, {"time": 1204, "pitch": 80, "duration": 5, "velocity": 122}, {"time": 1210, "pitch": 82, "duration": 15, "velocity": 122}, {"time": 1264, "pitch": 80, "duration": 3, "velocity": 122}, {"time": 1270, "pitch": 80, "duration": 4, "velocity": 117}, {"time": 1276, "pitch": 82, "duration": 4, "velocity": 117}, {"time": 1282, "pitch": 87, "duration": 4, "velocity": 127}, {"time": 1288, "pitch": 82, "duration": 4, "velocity": 127}, {"time": 1294, "pitch": 80, "duration": 4, "velocity": 112}, {"time": 1300, "pitch": 82, "duration": 3, "velocity": 127}, {"time": 1306, "pitch": 87, "duration": 6, "velocity": 127}, {"time": 1318, "pitch": 82, "duration": 11, "velocity": 127}, {"time": 1348, "pitch": 80, "duration": 4, "velocity": 127}, {"time": 1354, "pitch": 78, "duration": 6, "velocity": 122}, {"time": 1360, "pitch": 80, "duration": 3, "velocity": 127}, {"time": 1366, "pitch": 80, "duration": 4, "velocity": 127}, {"time": 1372, "pitch": 80, "duration": 3, "velocity": 127}, {"time": 1378, "pitch": 78, "duration": 3, "velocity": 127}, {"time": 1384, "pitch": 80, "duration": 4, "velocity": 127}, {"time": 1390, "pitch": 78, "duration": 4, "velocity": 117}, {"time": 1396, "pitch": 71, "duration": 4, "velocity": 112}, {"time": 1402, "pitch": 73, "duration": 12, "velocity": 122}, {"time": 1414, "pitch": 75, "duration": 20, "velocity": 127}, {"time": 1450, "pitch": 75, "duration": 3, "velocity": 127}, {"time": 1456, "pitch": 76, "duration": 3, "velocity": 107}, {"time": 1462, "pitch": 75, "duration": 3, "velocity": 117}, {"time": 1468, "pitch": 76, "duration": 3, "velocity": 117}, {"time": 1474, "pitch": 75, "duration": 2, "velocity": 127}, {"time": 1480, "pitch": 76, "duration": 2, "velocity": 112}, {"time": 1486, "pitch": 75, "duration": 4, "velocity": 117}, {"time": 1492, "pitch": 76, "duration": 3, "velocity": 112}, {"time": 1498, "pitch": 87, "duration": 9, "velocity": 127}, {"time": 1510, "pitch": 82, "duration": 20, "velocity": 127}, {"time": 1546, "pitch": 82, "duration": 3, "velocity": 102}, {"time": 1552, "pitch": 83, "duration": 3, "velocity": 102}, {"time": 1558, "pitch": 83, "duration": 2, "velocity": 100}, {"time": 1564, "pitch": 83, "duration": 2, "velocity": 107}, {"time": 1570, "pitch": 83, "duration": 2, "velocity": 97}, {"time": 1576, "pitch": 83, "duration": 3, "velocity": 117}, {"time": 1585, "pitch": 82, "duration": 5, "velocity": 127}, {"time": 1594, "pitch": 80, "duration": 4, "velocity": 127}, {"time": 1600, "pitch": 83, "duration": 8, "velocity": 112}, {"time": 1609, "pitch": 82, "duration": 27, "velocity": 112}, {"time": 1648, "pitch": 80, "duration": 3, "velocity": 122}, {"time": 1654, "pitch": 80, "duration": 4, "velocity": 117}, {"time": 1660, "pitch": 82, "duration": 4, "velocity": 117}, {"time": 1666, "pitch": 87, "duration": 4, "velocity": 127}, {"time": 1672, "pitch": 82, "duration": 4, "velocity": 127}, {"time": 1678, "pitch": 80, "duration": 4, "velocity": 112}, {"time": 1684, "pitch": 82, "duration": 3, "velocity": 127}, {"time": 1690, "pitch": 87, "duration": 6, "velocity": 127}, {"time": 1702, "pitch": 82, "duration": 11, "velocity": 127}, {"time": 1732, "pitch": 80, "duration": 4, "velocity": 127}, {"time": 1738, "pitch": 78, "duration": 6, "velocity": 122}, {"time": 1744, "pitch": 80, "duration": 3, "velocity": 127}, {"time": 1750, "pitch": 80, "duration": 4, "velocity": 127}, {"time": 1756, "pitch": 80, "duration": 3, "velocity": 127}, {"time": 1762, "pitch": 78, "duration": 3, "velocity": 127}, {"time": 1768, "pitch": 80, "duration": 4, "velocity": 127}, {"time": 1774, "pitch": 78, "duration": 4, "velocity": 117}, {"time": 1780, "pitch": 71, "duration": 4, "velocity": 112}, {"time": 1786, "pitch": 73, "duration": 8, "velocity": 122}, {"time": 1792, "pitch": 75, "duration": 20, "velocity": 127}, {"time": 1834, "pitch": 75, "duration": 3, "velocity": 127}, {"time": 1840, "pitch": 76, "duration": 3, "velocity": 107}, {"time": 1846, "pitch": 75, "duration": 3, "velocity": 117}, {"time": 1852, "pitch": 76, "duration": 3, "velocity": 117}, {"time": 1858, "pitch": 75, "duration": 2, "velocity": 127}, {"time": 1864, "pitch": 76, "duration": 2, "velocity": 112}, {"time": 1870, "pitch": 75, "duration": 4, "velocity": 117}, {"time": 1876, "pitch": 76, "duration": 3, "velocity": 112}, {"time": 1882, "pitch": 87, "duration": 9, "velocity": 127}, {"time": 1894, "pitch": 82, "duration": 20, "velocity": 127}, {"time": 1924, "pitch": 82, "duration": 4, "velocity": 127}, {"time": 1930, "pitch": 83, "duration": 5, "velocity": 102}, {"time": 1936, "pitch": 85, "duration": 3, "velocity": 127}, {"time": 1942, "pitch": 88, "duration": 4, "velocity": 127}, {"time": 1948, "pitch": 87, "duration": 5, "velocity": 127}, {"time": 1954, "pitch": 85, "duration": 5, "velocity": 127}, {"time": 1960, "pitch": 83, "duration": 8, "velocity": 127}, {"time": 1972, "pitch": 82, "duration": 4, "velocity": 117}, {"time": 1978, "pitch": 83, "duration": 7, "velocity": 100}, {"time": 1990, "pitch": 80, "duration": 40, "velocity": 117}, {"time": 2380, "pitch": 75, "duration": 4, "velocity": 127}, {"time": 2386, "pitch": 75, "duration": 4, "velocity": 112}, {"time": 2392, "pitch": 75, "duration": 10, "velocity": 117}, {"time": 2398, "pitch": 75, "duration": 4, "velocity": 100}, {"time": 2404, "pitch": 75, "duration": 4, "velocity": 97}, {"time": 2410, "pitch": 75, "duration": 5, "velocity": 97}, {"time": 2416, "pitch": 73, "duration": 11, "velocity": 100}, {"time": 2434, "pitch": 71, "duration": 12, "velocity": 102}, {"time": 2476, "pitch": 73, "duration": 2, "velocity": 102}, {"time": 2482, "pitch": 73, "duration": 2, "velocity": 90}, {"time": 2488, "pitch": 73, "duration": 2, "velocity": 88}, {"time": 2494, "pitch": 73, "duration": 3, "velocity": 107}, {"time": 2506, "pitch": 78, "duration": 3, "velocity": 107}, {"time": 2512, "pitch": 78, "duration": 5, "velocity": 107}, {"time": 2524, "pitch": 76, "duration": 3, "velocity": 99}, {"time": 2536, "pitch": 75, "duration": 4, "velocity": 117}, {"time": 2542, "pitch": 73, "duration": 5, "velocity": 127}, {"time": 2572, "pitch": 76, "duration": 2, "velocity": 112}, {"time": 2578, "pitch": 75, "duration": 2, "velocity": 100}, {"time": 2584, "pitch": 76, "duration": 2, "velocity": 117}, {"time": 2602, "pitch": 80, "duration": 3, "velocity": 127}, {"time": 2608, "pitch": 80, "duration": 4, "velocity": 122}, {"time": 2617, "pitch": 78, "duration": 2, "velocity": 122}, {"time": 2626, "pitch": 76, "duration": 4, "velocity": 102}, {"time": 2656, "pitch": 73, "duration": 8, "velocity": 102}, {"time": 2665, "pitch": 75, "duration": 51, "velocity": 117}, {"time": 2764, "pitch": 76, "duration": 3, "velocity": 93}, {"time": 2770, "pitch": 76, "duration": 2, "velocity": 102}, {"time": 2776, "pitch": 76, "duration": 3, "velocity": 112}, {"time": 2782, "pitch": 76, "duration": 3, "velocity": 100}, {"time": 2788, "pitch": 76, "duration": 3, "velocity": 102}, {"time": 2794, "pitch": 78, "duration": 2, "velocity": 107}, {"time": 2800, "pitch": 80, "duration": 7, "velocity": 127}, {"time": 2812, "pitch": 80, "duration": 2, "velocity": 127}, {"time": 2818, "pitch": 80, "duration": 3, "velocity": 122}, {"time": 2830, "pitch": 82, "duration": 4, "velocity": 127}, {"time": 2848, "pitch": 83, "duration": 7, "velocity": 127}, {"time": 2860, "pitch": 82, "duration": 4, "velocity": 127}, {"time": 2866, "pitch": 80, "duration": 6, "velocity": 127}, {"time": 2878, "pitch": 82, "duration": 8, "velocity": 127}, {"time": 2890, "pitch": 75, "duration": 18, "velocity": 127}, {"time": 2956, "pitch": 76, "duration": 3, "velocity": 102}, {"time": 2962, "pitch": 76, "duration": 2, "velocity": 112}, {"time": 2968, "pitch": 76, "duration": 2, "velocity": 112}, {"time": 2974, "pitch": 76, "duration": 3, "velocity": 122}, {"time": 2980, "pitch": 76, "duration": 3, "velocity": 122}, {"time": 2986, "pitch": 78, "duration": 5, "velocity": 127}, {"time": 2992, "pitch": 80, "duration": 5, "velocity": 122}, {"time": 3004, "pitch": 80, "duration": 4, "velocity": 127}, {"time": 3010, "pitch": 83, "duration": 9, "velocity": 97}, {"time": 3022, "pitch": 80, "duration": 7, "velocity": 127}, {"time": 3052, "pitch": 82, "duration": 3, "velocity": 127}, {"time": 3058, "pitch": 82, "duration": 2, "velocity": 112}, {"time": 3064, "pitch": 82, "duration": 8, "velocity": 122}, {"time": 3076, "pitch": 80, "duration": 5, "velocity": 122}, {"time": 3082, "pitch": 82, "duration": 15, "velocity": 122}, {"time": 3136, "pitch": 80, "duration": 3, "velocity": 122}, {"time": 3142, "pitch": 80, "duration": 4, "velocity": 117}, {"time": 3148, "pitch": 82, "duration": 4, "velocity": 117}, {"time": 3154, "pitch": 87, "duration": 4, "velocity": 127}, {"time": 3160, "pitch": 82, "duration": 4, "velocity": 127}, {"time": 3166, "pitch": 80, "duration": 4, "velocity": 112}, {"time": 3172, "pitch": 82, "duration": 3, "velocity": 127}, {"time": 3178, "pitch": 87, "duration": 6, "velocity": 127}, {"time": 3190, "pitch": 82, "duration": 11, "velocity": 127}, {"time": 3220, "pitch": 80, "duration": 4, "velocity": 127}, {"time": 3226, "pitch": 78, "duration": 6, "velocity": 122}, {"time": 3232, "pitch": 80, "duration": 3, "velocity": 127}, {"time": 3238, "pitch": 80, "duration": 4, "velocity": 127}, {"time": 3244, "pitch": 80, "duration": 3, "velocity": 127}, {"time": 3250, "pitch": 78, "duration": 3, "velocity": 127}, {"time": 3256, "pitch": 80, "duration": 4, "velocity": 127}, {"time": 3262, "pitch": 78, "duration": 4, "velocity": 117}, {"time": 3268, "pitch": 71, "duration": 4, "velocity": 112}, {"time": 3274, "pitch": 73, "duration": 12, "velocity": 122}, {"time": 3286, "pitch": 75, "duration": 20, "velocity": 127}, {"time": 3322, "pitch": 75, "duration": 3, "velocity": 127}, {"time": 3328, "pitch": 76, "duration": 3, "velocity": 107}, {"time": 3334, "pitch": 75, "duration": 3, "velocity": 117}, {"time": 3340, "pitch": 76, "duration": 3, "velocity": 117}, {"time": 3346, "pitch": 75, "duration": 2, "velocity": 127}, {"time": 3352, "pitch": 76, "duration": 2, "velocity": 112}, {"time": 3358, "pitch": 75, "duration": 4, "velocity": 117}, {"time": 3364, "pitch": 76, "duration": 3, "velocity": 112}, {"time": 3370, "pitch": 87, "duration": 9, "velocity": 127}, {"time": 3382, "pitch": 82, "duration": 20, "velocity": 127}, {"time": 3418, "pitch": 82, "duration": 3, "velocity": 102}, {"time": 3424, "pitch": 83, "duration": 3, "velocity": 102}, {"time": 3430, "pitch": 83, "duration": 2, "velocity": 100}, {"time": 3436, "pitch": 83, "duration": 2, "velocity": 107}, {"time": 3442, "pitch": 83, "duration": 2, "velocity": 97}, {"time": 3448, "pitch": 83, "duration": 3, "velocity": 117}, {"time": 3457, "pitch": 82, "duration": 5, "velocity": 127}, {"time": 3466, "pitch": 80, "duration": 4, "velocity": 127}, {"time": 3472, "pitch": 83, "duration": 8, "velocity": 112}, {"time": 3481, "pitch": 82, "duration": 27, "velocity": 112}, {"time": 3520, "pitch": 80, "duration": 3, "velocity": 122}, {"time": 3526, "pitch": 80, "duration": 4, "velocity": 117}, {"time": 3532, "pitch": 82, "duration": 4, "velocity": 117}, {"time": 3538, "pitch": 87, "duration": 4, "velocity": 127}, {"time": 3544, "pitch": 82, "duration": 4, "velocity": 127}, {"time": 3550, "pitch": 80, "duration": 4, "velocity": 112}, {"time": 3556, "pitch": 82, "duration": 3, "velocity": 127}, {"time": 3562, "pitch": 87, "duration": 6, "velocity": 127}, {"time": 3574, "pitch": 82, "duration": 11, "velocity": 127}, {"time": 3604, "pitch": 80, "duration": 4, "velocity": 127}, {"time": 3610, "pitch": 78, "duration": 6, "velocity": 122}, {"time": 3616, "pitch": 80, "duration": 3, "velocity": 127}, {"time": 3622, "pitch": 80, "duration": 4, "velocity": 127}, {"time": 3628, "pitch": 80, "duration": 3, "velocity": 127}, {"time": 3634, "pitch": 78, "duration": 3, "velocity": 127}, {"time": 3640, "pitch": 80, "duration": 4, "velocity": 127}, {"time": 3646, "pitch": 78, "duration": 4, "velocity": 117}, {"time": 3652, "pitch": 71, "duration": 4, "velocity": 112}, {"time": 3658, "pitch": 73, "duration": 8, "velocity": 122}, {"time": 3664, "pitch": 75, "duration": 20, "velocity": 127}, {"time": 3706, "pitch": 75, "duration": 3, "velocity": 127}, {"time": 3712, "pitch": 76, "duration": 3, "velocity": 107}, {"time": 3718, "pitch": 75, "duration": 3, "velocity": 117}, {"time": 3724, "pitch": 76, "duration": 3, "velocity": 117}, {"time": 3730, "pitch": 75, "duration": 2, "velocity": 127}, {"time": 3736, "pitch": 76, "duration": 2, "velocity": 112}, {"time": 3742, "pitch": 75, "duration": 4, "velocity": 117}, {"time": 3748, "pitch": 76, "duration": 3, "velocity": 112}, {"time": 3754, "pitch": 87, "duration": 9, "velocity": 127}, {"time": 3766, "pitch": 82, "duration": 20, "velocity": 127}, {"time": 3796, "pitch": 82, "duration": 4, "velocity": 127}, {"time": 3802, "pitch": 83, "duration": 5, "velocity": 102}, {"time": 3808, "pitch": 85, "duration": 3, "velocity": 127}, {"time": 3814, "pitch": 88, "duration": 4, "velocity": 127}, {"time": 3820, "pitch": 87, "duration": 5, "velocity": 127}, {"time": 3826, "pitch": 85, "duration": 5, "velocity": 127}, {"time": 3832, "pitch": 83, "duration": 8, "velocity": 127}, {"time": 3844, "pitch": 82, "duration": 4, "velocity": 117}, {"time": 3850, "pitch": 83, "duration": 7, "velocity": 100}, {"time": 3862, "pitch": 80, "duration": 40, "velocity": 117}, {"time": 3952, "pitch": 80, "duration": 3, "velocity": 122}, {"time": 3958, "pitch": 80, "duration": 4, "velocity": 117}, {"time": 3964, "pitch": 82, "duration": 4, "velocity": 117}, {"time": 3970, "pitch": 87, "duration": 4, "velocity": 127}, {"time": 3976, "pitch": 82, "duration": 4, "velocity": 127}, {"time": 3982, "pitch": 80, "duration": 4, "velocity": 112}, {"time": 3988, "pitch": 82, "duration": 3, "velocity": 127}, {"time": 3994, "pitch": 87, "duration": 6, "velocity": 127}, {"time": 4006, "pitch": 82, "duration": 11, "velocity": 127}, {"time": 4036, "pitch": 80, "duration": 4, "velocity": 127}, {"time": 4042, "pitch": 78, "duration": 6, "velocity": 122}, {"time": 4048, "pitch": 80, "duration": 3, "velocity": 127}, {"time": 4054, "pitch": 80, "duration": 4, "velocity": 127}, {"time": 4060, "pitch": 80, "duration": 3, "velocity": 127}, {"time": 4066, "pitch": 78, "duration": 3, "velocity": 127}, {"time": 4072, "pitch": 80, "duration": 4, "velocity": 127}, {"time": 4078, "pitch": 78, "duration": 4, "velocity": 117}, {"time": 4084, "pitch": 71, "duration": 4, "velocity": 112}, {"time": 4090, "pitch": 73, "duration": 8, "velocity": 122}, {"time": 4096, "pitch": 75, "duration": 20, "velocity": 127}, {"time": 4138, "pitch": 75, "duration": 3, "velocity": 127}, {"time": 4144, "pitch": 76, "duration": 3, "velocity": 107}, {"time": 4150, "pitch": 75, "duration": 3, "velocity": 117}, {"time": 4156, "pitch": 76, "duration": 3, "velocity": 117}, {"time": 4162, "pitch": 75, "duration": 2, "velocity": 127}, {"time": 4168, "pitch": 76, "duration": 2, "velocity": 112}, {"time": 4174, "pitch": 75, "duration": 4, "velocity": 117}, {"time": 4180, "pitch": 76, "duration": 3, "velocity": 112}, {"time": 4186, "pitch": 87, "duration": 9, "velocity": 127}, {"time": 4198, "pitch": 82, "duration": 20, "velocity": 127}, {"time": 4228, "pitch": 82, "duration": 4, "velocity": 127}, {"time": 4234, "pitch": 83, "duration": 5, "velocity": 102}, {"time": 4240, "pitch": 85, "duration": 3, "velocity": 127}, {"time": 4246, "pitch": 88, "duration": 4, "velocity": 127}, {"time": 4252, "pitch": 87, "duration": 5, "velocity": 127}, {"time": 4258, "pitch": 85, "duration": 5, "velocity": 127}, {"time": 4264, "pitch": 83, "duration": 8, "velocity": 127}, {"time": 4276, "pitch": 82, "duration": 4, "velocity": 117}, {"time": 4282, "pitch": 83, "duration": 7, "velocity": 100}, {"time": 4294, "pitch": 80, "duration": 40, "velocity": 117}], "annotations": [{"time": 340, "annotation": {"number": 64, "value": 62}, "group": "control_change"}, {"time": 448, "annotation": {"number": 64, "value": 63}, "group": "control_change"}, {"time": 508, "annotation": {"number": 64, "value": 64}, "group": "control_change"}, {"time": 532, "annotation": {"number": 64, "value": 65}, "group": "control_change"}, {"time": 640, "annotation": {"number": 64, "value": 66}, "group": "control_change"}, {"time": 748, "annotation": {"number": 64, "value": 67}, "group": "control_change"}, {"time": 772, "annotation": {"number": 64, "value": 68}, "group": "control_change"}, {"time": 844, "annotation": {"number": 64, "value": 69}, "group": "control_change"}, {"time": 904, "annotation": {"number": 64, "value": 70}, "group": "control_change"}, {"time": 976, "annotation": {"number": 64, "value": 71}, "group": "control_change"}, {"time": 1000, "annotation": {"number": 64, "value": 72}, "group": "control_change"}, {"time": 1480, "annotation": {"number": 64, "value": 73}, "group": "control_change"}, {"time": 1864, "annotation": {"number": 64, "value": 72}, "group": "control_change"}, {"time": 1924, "annotation": {"number": 64, "value": 70}, "group": "control_change"}, {"time": 1972, "annotation": {"number": 64, "value": 69}, "group": "control_change"}, {"time": 2020, "annotation": {"number": 64, "value": 68}, "group": "control_change"}, {"time": 2248, "annotation": {"number": 64, "value": 69}, "group": "control_change"}, {"time": 2296, "annotation": {"number": 64, "value": 70}, "group": "control_change"}, {"time": 2368, "annotation": {"number": 64, "value": 72}, "group": "control_change"}, {"time": 2380, "annotation": {"number": 64, "value": 73}, "group": "control_change"}, {"time": 2440, "annotation": {"number": 64, "value": 74}, "group": "control_change"}, {"time": 2536, "annotation": {"number": 64, "value": 75}, "group": "control_change"}, {"time": 2560, "annotation": {"number": 64, "value": 76}, "group": "control_change"}, {"time": 2584, "annotation": {"number": 64, "value": 78}, "group": "control_change"}, {"time": 2620, "annotation": {"number": 64, "value": 79}, "group": "control_change"}, {"time": 2716, "annotation": {"number": 64, "value": 80}, "group": "control_change"}, {"time": 3064, "annotation": {"number": 64, "value": 79}, "group": "control_change"}, {"time": 3196, "annotation": {"number": 64, "value": 78}, "group": "control_change"}, {"time": 3268, "annotation": {"number": 64, "value": 76}, "group": "control_change"}, {"time": 3388, "annotation": {"number": 64, "value": 75}, "group": "control_change"}, {"time": 3424, "annotation": {"number": 64, "value": 74}, "group": "control_change"}, {"time": 3460, "annotation": {"number": 64, "value": 75}, "group": "control_change"}, {"time": 3580, "annotation": {"number": 64, "value": 75}, "group": "control_change"}, {"time": 3868, "annotation": {"number": 64, "value": 76}, "group": "control_change"}, {"time": 3940, "annotation": {"number": 64, "value": 77}, "group": "control_change"}, {"time": 3952, "annotation": {"number": 64, "value": 78}, "group": "control_change"}, {"time": 4024, "annotation": {"number": 64, "value": 79}, "group": "control_change"}, {"time": 4108, "annotation": {"number": 64, "value": 80}, "group": "control_change"}, {"time": 4228, "annotation": {"number": 64, "value": 81}, "group": "control_change"}]}, {"program": 0, "is_drum": false, "name": "BRIDGE", "notes": [{"time": 16, "pitch": 85, "duration": 18, "velocity": 127}, {"time": 34, "pitch": 83, "duration": 21, "velocity": 117}, {"time": 58, "pitch": 75, "duration": 5, "velocity": 122}, {"time": 64, "pitch": 82, "duration": 18, "velocity": 127}, {"time": 82, "pitch": 80, "duration": 27, "velocity": 127}, {"time": 112, "pitch": 85, "duration": 18, "velocity": 122}, {"time": 130, "pitch": 83, "duration": 18, "velocity": 112}, {"time": 154, "pitch": 75, "duration": 4, "velocity": 99}, {"time": 160, "pitch": 82, "duration": 15, "velocity": 127}, {"time": 178, "pitch": 83, "duration": 18, "velocity": 117}, {"time": 196, "pitch": 75, "duration": 6, "velocity": 107}, {"time": 202, "pitch": 78, "duration": 7, "velocity": 117}, {"time": 208, "pitch": 76, "duration": 29, "velocity": 117}, {"time": 244, "pitch": 75, "duration": 6, "velocity": 117}, {"time": 250, "pitch": 80, "duration": 5, "velocity": 102}, {"time": 256, "pitch": 88, "duration": 24, "velocity": 107}, {"time": 292, "pitch": 82, "duration": 11, "velocity": 127}, {"time": 304, "pitch": 83, "duration": 54, "velocity": 127}, {"time": 376, "pitch": 82, "duration": 5, "velocity": 127}, {"time": 382, "pitch": 83, "duration": 5, "velocity": 96}, {"time": 388, "pitch": 82, "duration": 5, "velocity": 127}, {"time": 394, "pitch": 78, "duration": 5, "velocity": 112}, {"time": 400, "pitch": 80, "duration": 84, "velocity": 127}, {"time": 874, "pitch": 73, "duration": 2, "velocity": 117}, {"time": 877, "pitch": 75, "duration": 3, "velocity": 96}, {"time": 880, "pitch": 76, "duration": 48, "velocity": 100}, {"time": 1048, "pitch": 71, "duration": 8, "velocity": 107}, {"time": 1057, "pitch": 73, "duration": 8, "velocity": 122}, {"time": 1066, "pitch": 71, "duration": 6, "velocity": 100}, {"time": 1072, "pitch": 64, "duration": 42, "velocity": 100}, {"time": 1246, "pitch": 67, "duration": 4, "velocity": 102}, {"time": 1246, "pitch": 79, "duration": 3, "velocity": 100}, {"time": 1246, "pitch": 91, "duration": 2, "velocity": 97}, {"time": 1252, "pitch": 68, "duration": 6, "velocity": 117}, {"time": 1252, "pitch": 80, "duration": 3, "velocity": 127}, {"time": 1252, "pitch": 92, "duration": 3, "velocity": 107}, {"time": 1258, "pitch": 70, "duration": 4, "velocity": 122}, {"time": 1258, "pitch": 82, "duration": 4, "velocity": 122}, {"time": 1258, "pitch": 94, "duration": 4, "velocity": 102}, {"time": 1261, "pitch": 71, "duration": 51, "velocity": 127}, {"time": 1264, "pitch": 83, "duration": 52, "velocity": 112}, {"time": 1264, "pitch": 95, "duration": 51, "velocity": 112}, {"time": 1323, "pitch": 75, "duration": 12, "velocity": 112}, {"time": 1323, "pitch": 63, "duration": 12, "velocity": 112}, {"time": 1335, "pitch": 66, "duration": 12, "velocity": 112}, {"time": 1335, "pitch": 78, "duration": 12, "velocity": 112}, {"time": 1347, "pitch": 82, "duration": 12, "velocity": 112}, {"time": 1347, "pitch": 70, "duration": 12, "velocity": 111}, {"time": 1359, "pitch": 68, "duration": 29, "velocity": 112}, {"time": 1359, "pitch": 80, "duration": 29, "velocity": 108}, {"time": 1623, "pitch": 75, "duration": 4, "velocity": 122}, {"time": 1629, "pitch": 79, "duration": 10, "velocity": 127}, {"time": 1641, "pitch": 80, "duration": 4, "velocity": 127}, {"time": 1644, "pitch": 82, "duration": 3, "velocity": 127}, {"time": 1647, "pitch": 83, "duration": 30, "velocity": 127}, {"time": 1993, "pitch": 63, "duration": 5, "velocity": 71}, {"time": 1996, "pitch": 68, "duration": 2, "velocity": 97}, {"time": 1999, "pitch": 70, "duration": 3, "velocity": 100}, {"time": 2002, "pitch": 71, "duration": 6, "velocity": 89}, {"time": 2008, "pitch": 63, "duration": 9, "velocity": 112}, {"time": 2017, "pitch": 63, "duration": 1, "velocity": 97}, {"time": 2020, "pitch": 68, "duration": 3, "velocity": 90}, {"time": 2023, "pitch": 70, "duration": 3, "velocity": 100}, {"time": 2026, "pitch": 71, "duration": 5, "velocity": 96}, {"time": 2032, "pitch": 63, "duration": 7, "velocity": 112}, {"time": 2041, "pitch": 63, "duration": 2, "velocity": 95}, {"time": 2044, "pitch": 68, "duration": 3, "velocity": 99}, {"time": 2045, "pitch": 70, "duration": 4, "velocity": 77}, {"time": 2048, "pitch": 71, "duration": 6, "velocity": 82}, {"time": 2056, "pitch": 63, "duration": 9, "velocity": 112}, {"time": 2065, "pitch": 63, "duration": 1, "velocity": 99}, {"time": 2068, "pitch": 68, "duration": 2, "velocity": 127}, {"time": 2068, "pitch": 75, "duration": 4, "velocity": 127}, {"time": 2071, "pitch": 70, "duration": 3, "velocity": 122}, {"time": 2071, "pitch": 73, "duration": 2, "velocity": 74}, {"time": 2072, "pitch": 71, "duration": 5, "velocity": 122}, {"time": 2077, "pitch": 75, "duration": 3, "velocity": 127}, {"time": 2078, "pitch": 63, "duration": 2, "velocity": 86}, {"time": 2080, "pitch": 73, "duration": 49, "velocity": 127}, {"time": 2164, "pitch": 73, "duration": 11, "velocity": 127}, {"time": 2176, "pitch": 71, "duration": 68, "velocity": 127}, {"time": 2260, "pitch": 73, "duration": 6, "velocity": 127}, {"time": 2266, "pitch": 71, "duration": 5, "velocity": 117}, {"time": 2272, "pitch": 70, "duration": 90, "velocity": 127}, {"time": 2746, "pitch": 73, "duration": 2, "velocity": 117}, {"time": 2749, "pitch": 75, "duration": 3, "velocity": 96}, {"time": 2752, "pitch": 76, "duration": 48, "velocity": 100}, {"time": 2920, "pitch": 71, "duration": 8, "velocity": 107}, {"time": 2929, "pitch": 73, "duration": 8, "velocity": 122}, {"time": 2938, "pitch": 71, "duration": 6, "velocity": 100}, {"time": 2944, "pitch": 64, "duration": 42, "velocity": 100}, {"time": 3118, "pitch": 67, "duration": 4, "velocity": 102}, {"time": 3118, "pitch": 79, "duration": 3, "velocity": 100}, {"time": 3118, "pitch": 91, "duration": 2, "velocity": 97}, {"time": 3124, "pitch": 68, "duration": 6, "velocity": 117}, {"time": 3124, "pitch": 80, "duration": 3, "velocity": 127}, {"time": 3124, "pitch": 92, "duration": 3, "velocity": 107}, {"time": 3130, "pitch": 70, "duration": 4, "velocity": 122}, {"time": 3130, "pitch": 82, "duration": 4, "velocity": 122}, {"time": 3130, "pitch": 94, "duration": 4, "velocity": 102}, {"time": 3133, "pitch": 71, "duration": 51, "velocity": 127}, {"time": 3136, "pitch": 83, "duration": 52, "velocity": 112}, {"time": 3136, "pitch": 95, "duration": 51, "velocity": 112}, {"time": 3491, "pitch": 75, "duration": 4, "velocity": 98}, {"time": 3496, "pitch": 79, "duration": 10, "velocity": 127}, {"time": 3508, "pitch": 80, "duration": 10, "velocity": 127}, {"time": 3520, "pitch": 82, "duration": 15, "velocity": 127}, {"time": 3864, "pitch": 63, "duration": 3, "velocity": 93}, {"time": 3867, "pitch": 68, "duration": 3, "velocity": 95}, {"time": 3869, "pitch": 70, "duration": 4, "velocity": 89}, {"time": 3872, "pitch": 71, "duration": 15, "velocity": 99}, {"time": 3888, "pitch": 63, "duration": 3, "velocity": 95}, {"time": 3890, "pitch": 68, "duration": 4, "velocity": 112}, {"time": 3893, "pitch": 70, "duration": 3, "velocity": 92}, {"time": 3896, "pitch": 71, "duration": 22, "velocity": 122}, {"time": 3927, "pitch": 75, "duration": 9, "velocity": 122}, {"time": 3927, "pitch": 63, "duration": 8, "velocity": 127}, {"time": 3936, "pitch": 80, "duration": 8, "velocity": 127}, {"time": 3936, "pitch": 68, "duration": 8, "velocity": 122}, {"time": 3945, "pitch": 82, "duration": 5, "velocity": 122}, {"time": 3945, "pitch": 70, "duration": 5, "velocity": 127}, {"time": 3952, "pitch": 83, "duration": 42, "velocity": 122}, {"time": 3952, "pitch": 71, "duration": 41, "velocity": 127}, {"time": 3952, "pitch": 82, "duration": 1, "velocity": 62}, {"time": 4294, "pitch": 63, "duration": 23, "velocity": 71}, {"time": 4300, "pitch": 70, "duration": 5, "velocity": 73}, {"time": 4306, "pitch": 71, "duration": 15, "velocity": 70}, {"time": 4318, "pitch": 63, "duration": 7, "velocity": 89}, {"time": 4324, "pitch": 70, "duration": 6, "velocity": 81}, {"time": 4330, "pitch": 71, "duration": 16, "velocity": 96}, {"time": 4342, "pitch": 63, "duration": 8, "velocity": 55}, {"time": 4348, "pitch": 70, "duration": 7, "velocity": 83}, {"time": 4354, "pitch": 71, "duration": 15, "velocity": 81}, {"time": 4366, "pitch": 63, "duration": 11, "velocity": 65}, {"time": 4372, "pitch": 70, "duration": 7, "velocity": 69}, {"time": 4381, "pitch": 71, "duration": 92, "velocity": 90}], "annotations": [{"time": 16, "annotation": {"number": 64, "value": 96}, "group": "control_change"}, {"time": 28, "annotation": {"number": 64, "value": 90}, "group": "control_change"}, {"time": 40, "annotation": {"number": 64, "value": 88}, "group": "control_change"}, {"time": 52, "annotation": {"number": 64, "value": 85}, "group": "control_change"}, {"time": 64, "annotation": {"number": 64, "value": 84}, "group": "control_change"}, {"time": 76, "annotation": {"number": 64, "value": 81}, "group": "control_change"}, {"time": 88, "annotation": {"number": 64, "value": 79}, "group": "control_change"}, {"time": 136, "annotation": {"number": 64, "value": 80}, "group": "control_change"}, {"time": 148, "annotation": {"number": 64, "value": 83}, "group": "control_change"}, {"time": 160, "annotation": {"number": 64, "value": 85}, "group": "control_change"}, {"time": 172, "annotation": {"number": 64, "value": 86}, "group": "control_change"}, {"time": 184, "annotation": {"number": 64, "value": 88}, "group": "control_change"}, {"time": 196, "annotation": {"number": 64, "value": 89}, "group": "control_change"}, {"time": 208, "annotation": {"number": 64, "value": 91}, "group": "control_change"}, {"time": 220, "annotation": {"number": 64, "value": 94}, "group": "control_change"}, {"time": 232, "annotation": {"number": 64, "value": 95}, "group": "control_change"}, {"time": 244, "annotation": {"number": 64, "value": 97}, "group": "control_change"}, {"time": 292, "annotation": {"number": 64, "value": 96}, "group": "control_change"}, {"time": 304, "annotation": {"number": 64, "value": 95}, "group": "control_change"}, {"time": 316, "annotation": {"number": 64, "value": 94}, "group": "control_change"}, {"time": 328, "annotation": {"number": 64, "value": 92}, "group": "control_change"}, {"time": 340, "annotation": {"number": 64, "value": 91}, "group": "control_change"}, {"time": 352, "annotation": {"number": 64, "value": 92}, "group": "control_change"}, {"time": 364, "annotation": {"number": 64, "value": 94}, "group": "control_change"}, {"time": 412, "annotation": {"number": 64, "value": 95}, "group": "control_change"}, {"time": 424, "annotation": {"number": 64, "value": 96}, "group": "control_change"}, {"time": 436, "annotation": {"number": 64, "value": 99}, "group": "control_change"}, {"time": 448, "annotation": {"number": 64, "value": 104}, "group": "control_change"}, {"time": 460, "annotation": {"number": 64, "value": 105}, "group": "control_change"}, {"time": 1993, "annotation": {"number": 64, "value": 127}, "group": "control_change"}, {"time": 1996, "annotation": {"number": 64, "value": 80}, "group": "control_change"}, {"time": 2008, "annotation": {"number": 64, "value": 78}, "group": "control_change"}, {"time": 2020, "annotation": {"number": 64, "value": 74}, "group": "control_change"}, {"time": 2032, "annotation": {"number": 64, "value": 69}, "group": "control_change"}, {"time": 2044, "annotation": {"number": 64, "value": 65}, "group": "control_change"}, {"time": 2056, "annotation": {"number": 64, "value": 64}, "group": "control_change"}, {"time": 2068, "annotation": {"number": 64, "value": 63}, "group": "control_change"}, {"time": 2104, "annotation": {"number": 64, "value": 64}, "group": "control_change"}, {"time": 2116, "annotation": {"number": 64, "value": 67}, "group": "control_change"}, {"time": 2128, "annotation": {"number": 64, "value": 70}, "group": "control_change"}, {"time": 2140, "annotation": {"number": 64, "value": 78}, "group": "control_change"}, {"time": 2152, "annotation": {"number": 64, "value": 79}, "group": "control_change"}, {"time": 2164, "annotation": {"number": 64, "value": 81}, "group": "control_change"}, {"time": 2176, "annotation": {"number": 64, "value": 86}, "group": "control_change"}, {"time": 2188, "annotation": {"number": 64, "value": 91}, "group": "control_change"}, {"time": 2200, "annotation": {"number": 64, "value": 94}, "group": "control_change"}, {"time": 2212, "annotation": {"number": 64, "value": 95}, "group": "control_change"}, {"time": 2248, "annotation": {"number": 64, "value": 94}, "group": "control_change"}, {"time": 2260, "annotation": {"number": 64, "value": 92}, "group": "control_change"}, {"time": 2272, "annotation": {"number": 64, "value": 91}, "group": "control_change"}, {"time": 2284, "annotation": {"number": 64, "value": 90}, "group": "control_change"}, {"time": 2296, "annotation": {"number": 64, "value": 88}, "group": "control_change"}, {"time": 2308, "annotation": {"number": 64, "value": 86}, "group": "control_change"}, {"time": 2332, "annotation": {"number": 64, "value": 88}, "group": "control_change"}, {"time": 2344, "annotation": {"number": 64, "value": 90}, "group": "control_change"}, {"time": 2356, "annotation": {"number": 64, "value": 95}, "group": "control_change"}, {"time": 2368, "annotation": {"number": 64, "value": 99}, "group": "control_change"}, {"time": 2380, "annotation": {"number": 64, "value": 100}, "group": "control_change"}, {"time": 2392, "annotation": {"number": 64, "value": 101}, "group": "control_change"}, {"time": 2428, "annotation": {"number": 64, "value": 100}, "group": "control_change"}, {"time": 2440, "annotation": {"number": 64, "value": 96}, "group": "control_change"}, {"time": 2452, "annotation": {"number": 64, "value": 90}, "group": "control_change"}, {"time": 4276, "annotation": {"number": 64, "value": 74}, "group": "control_change"}, {"time": 4288, "annotation": {"number": 64, "value": 79}, "group": "control_change"}, {"time": 4300, "annotation": {"number": 64, "value": 88}, "group": "control_change"}, {"time": 4312, "annotation": {"number": 64, "value": 94}, "group": "control_change"}, {"time": 4324, "annotation": {"number": 64, "value": 100}, "group": "control_change"}, {"time": 4336, "annotation": {"number": 64, "value": 99}, "group": "control_change"}, {"time": 4348, "annotation": {"number": 64, "value": 97}, "group": "control_change"}, {"time": 4360, "annotation": {"number": 64, "value": 94}, "group": "control_change"}, {"time": 4372, "annotation": {"number": 64, "value": 90}, "group": "control_change"}, {"time": 4384, "annotation": {"number": 64, "value": 86}, "group": "control_change"}, {"time": 4396, "annotation": {"number": 64, "value": 84}, "group": "control_change"}, {"time": 4408, "annotation": {"number": 64, "value": 81}, "group": "control_change"}, {"time": 4420, "annotation": {"number": 64, "value": 80}, "group": "control_change"}, {"time": 4432, "annotation": {"number": 64, "value": 78}, "group": "control_change"}, {"time": 4444, "annotation": {"number": 64, "value": 75}, "group": "control_change"}, {"time": 4456, "annotation": {"number": 64, "value": 73}, "group": "control_change"}, {"time": 4468, "annotation": {"number": 64, "value": 70}, "group": "control_change"}, {"time": 4516, "annotation": {"number": 64, "value": 72}, "group": "control_change"}, {"time": 4528, "annotation": {"number": 64, "value": 73}, "group": "control_change"}, {"time": 4540, "annotation": {"number": 64, "value": 74}, "group": "control_change"}]}, {"program": 0, "is_drum": false, "name": "PIANO", "notes": [{"time": 16, "pitch": 44, "duration": 50, "velocity": 71}, {"time": 22, "pitch": 51, "duration": 22, "velocity": 86}, {"time": 28, "pitch": 58, "duration": 6, "velocity": 67}, {"time": 34, "pitch": 59, "duration": 15, "velocity": 70}, {"time": 46, "pitch": 51, "duration": 15, "velocity": 71}, {"time": 52, "pitch": 58, "duration": 6, "velocity": 75}, {"time": 58, "pitch": 59, "duration": 9, "velocity": 76}, {"time": 64, "pitch": 44, "duration": 2, "velocity": 71}, {"time": 70, "pitch": 51, "duration": 22, "velocity": 86}, {"time": 76, "pitch": 58, "duration": 6, "velocity": 67}, {"time": 82, "pitch": 59, "duration": 15, "velocity": 70}, {"time": 94, "pitch": 51, "duration": 15, "velocity": 71}, {"time": 100, "pitch": 58, "duration": 6, "velocity": 75}, {"time": 106, "pitch": 59, "duration": 9, "velocity": 76}, {"time": 112, "pitch": 44, "duration": 2, "velocity": 71}, {"time": 118, "pitch": 51, "duration": 22, "velocity": 86}, {"time": 124, "pitch": 58, "duration": 6, "velocity": 67}, {"time": 130, "pitch": 59, "duration": 15, "velocity": 70}, {"time": 142, "pitch": 51, "duration": 15, "velocity": 71}, {"time": 148, "pitch": 58, "duration": 6, "velocity": 75}, {"time": 154, "pitch": 59, "duration": 9, "velocity": 76}, {"time": 160, "pitch": 44, "duration": 2, "velocity": 71}, {"time": 166, "pitch": 51, "duration": 22, "velocity": 86}, {"time": 172, "pitch": 58, "duration": 6, "velocity": 67}, {"time": 178, "pitch": 59, "duration": 15, "velocity": 70}, {"time": 190, "pitch": 51, "duration": 15, "velocity": 71}, {"time": 196, "pitch": 58, "duration": 6, "velocity": 75}, {"time": 202, "pitch": 59, "duration": 9, "velocity": 76}, {"time": 208, "pitch": 49, "duration": 38, "velocity": 96}, {"time": 214, "pitch": 52, "duration": 31, "velocity": 67}, {"time": 220, "pitch": 56, "duration": 14, "velocity": 69}, {"time": 226, "pitch": 61, "duration": 8, "velocity": 85}, {"time": 232, "pitch": 68, "duration": 10, "velocity": 127}, {"time": 238, "pitch": 56, "duration": 8, "velocity": 60}, {"time": 244, "pitch": 61, "duration": 1, "velocity": 31}, {"time": 244, "pitch": 64, "duration": 13, "velocity": 63}, {"time": 244, "pitch": 68, "duration": 13, "velocity": 31}, {"time": 250, "pitch": 61, "duration": 8, "velocity": 67}, {"time": 256, "pitch": 49, "duration": 34, "velocity": 74}, {"time": 262, "pitch": 52, "duration": 27, "velocity": 39}, {"time": 265, "pitch": 56, "duration": 13, "velocity": 61}, {"time": 274, "pitch": 61, "duration": 4, "velocity": 72}, {"time": 274, "pitch": 64, "duration": 2, "velocity": 19}, {"time": 274, "pitch": 68, "duration": 4, "velocity": 56}, {"time": 280, "pitch": 64, "duration": 12, "velocity": 99}, {"time": 280, "pitch": 68, "duration": 24, "velocity": 112}, {"time": 286, "pitch": 56, "duration": 3, "velocity": 71}, {"time": 292, "pitch": 61, "duration": 13, "velocity": 89}, {"time": 298, "pitch": 64, "duration": 6, "velocity": 63}, {"time": 304, "pitch": 44, "duration": 46, "velocity": 89}, {"time": 310, "pitch": 56, "duration": 21, "velocity": 74}, {"time": 316, "pitch": 59, "duration": 21, "velocity": 85}, {"time": 322, "pitch": 63, "duration": 8, "velocity": 92}, {"time": 328, "pitch": 68, "duration": 13, "velocity": 102}, {"time": 334, "pitch": 56, "duration": 16, "velocity": 71}, {"time": 340, "pitch": 63, "duration": 8, "velocity": 112}, {"time": 346, "pitch": 59, "duration": 6, "velocity": 82}, {"time": 352, "pitch": 44, "duration": 34, "velocity": 90}, {"time": 358, "pitch": 56, "duration": 10, "velocity": 72}, {"time": 364, "pitch": 51, "duration": 15, "velocity": 51}, {"time": 370, "pitch": 56, "duration": 10, "velocity": 74}, {"time": 376, "pitch": 63, "duration": 18, "velocity": 117}, {"time": 382, "pitch": 51, "duration": 3, "velocity": 69}, {"time": 388, "pitch": 56, "duration": 7, "velocity": 102}, {"time": 394, "pitch": 42, "duration": 7, "velocity": 82}, {"time": 400, "pitch": 40, "duration": 40, "velocity": 77}, {"time": 406, "pitch": 47, "duration": 20, "velocity": 62}, {"time": 412, "pitch": 52, "duration": 14, "velocity": 96}, {"time": 418, "pitch": 56, "duration": 6, "velocity": 82}, {"time": 424, "pitch": 59, "duration": 21, "velocity": 102}, {"time": 430, "pitch": 47, "duration": 15, "velocity": 58}, {"time": 436, "pitch": 56, "duration": 9, "velocity": 99}, {"time": 445, "pitch": 40, "duration": 29, "velocity": 53}, {"time": 448, "pitch": 47, "duration": 25, "velocity": 88}, {"time": 448, "pitch": 52, "duration": 25, "velocity": 66}, {"time": 448, "pitch": 56, "duration": 26, "velocity": 86}, {"time": 448, "pitch": 59, "duration": 27, "velocity": 79}, {"time": 496, "pitch": 44, "duration": 35, "velocity": 56}, {"time": 496, "pitch": 56, "duration": 3, "velocity": 57}, {"time": 496, "pitch": 59, "duration": 21, "velocity": 65}, {"time": 496, "pitch": 63, "duration": 17, "velocity": 64}, {"time": 508, "pitch": 56, "duration": 10, "velocity": 28}, {"time": 520, "pitch": 59, "duration": 14, "velocity": 77}, {"time": 520, "pitch": 63, "duration": 13, "velocity": 92}, {"time": 523, "pitch": 47, "duration": 7, "velocity": 22}, {"time": 526, "pitch": 51, "duration": 17, "velocity": 41}, {"time": 532, "pitch": 56, "duration": 15, "velocity": 64}, {"time": 538, "pitch": 63, "duration": 13, "velocity": 69}, {"time": 544, "pitch": 44, "duration": 43, "velocity": 73}, {"time": 550, "pitch": 51, "duration": 19, "velocity": 36}, {"time": 556, "pitch": 56, "duration": 10, "velocity": 69}, {"time": 562, "pitch": 63, "duration": 32, "velocity": 90}, {"time": 574, "pitch": 51, "duration": 17, "velocity": 41}, {"time": 580, "pitch": 61, "duration": 14, "velocity": 48}, {"time": 592, "pitch": 42, "duration": 36, "velocity": 96}, {"time": 598, "pitch": 54, "duration": 13, "velocity": 73}, {"time": 604, "pitch": 58, "duration": 6, "velocity": 73}, {"time": 610, "pitch": 61, "duration": 34, "velocity": 93}, {"time": 622, "pitch": 46, "duration": 9, "velocity": 35}, {"time": 628, "pitch": 58, "duration": 19, "velocity": 63}, {"time": 634, "pitch": 54, "duration": 10, "velocity": 73}, {"time": 637, "pitch": 42, "duration": 11, "velocity": 78}, {"time": 646, "pitch": 49, "duration": 4, "velocity": 46}, {"time": 652, "pitch": 54, "duration": 18, "velocity": 69}, {"time": 658, "pitch": 61, "duration": 28, "velocity": 100}, {"time": 670, "pitch": 58, "duration": 6, "velocity": 75}, {"time": 676, "pitch": 54, "duration": 11, "velocity": 75}, {"time": 682, "pitch": 58, "duration": 4, "velocity": 58}, {"time": 685, "pitch": 37, "duration": 2, "velocity": 32}, {"time": 688, "pitch": 37, "duration": 45, "velocity": 83}, {"time": 694, "pitch": 49, "duration": 17, "velocity": 82}, {"time": 700, "pitch": 52, "duration": 25, "velocity": 61}, {"time": 706, "pitch": 61, "duration": 41, "velocity": 107}, {"time": 718, "pitch": 49, "duration": 18, "velocity": 61}, {"time": 724, "pitch": 56, "duration": 22, "velocity": 92}, {"time": 730, "pitch": 52, "duration": 15, "velocity": 56}, {"time": 736, "pitch": 37, "duration": 34, "velocity": 88}, {"time": 742, "pitch": 49, "duration": 20, "velocity": 64}, {"time": 748, "pitch": 52, "duration": 26, "velocity": 56}, {"time": 754, "pitch": 61, "duration": 27, "velocity": 112}, {"time": 763, "pitch": 49, "duration": 6, "velocity": 62}, {"time": 772, "pitch": 56, "duration": 11, "velocity": 112}, {"time": 778, "pitch": 52, "duration": 6, "velocity": 51}, {"time": 784, "pitch": 39, "duration": 45, "velocity": 99}, {"time": 790, "pitch": 46, "duration": 21, "velocity": 63}, {"time": 796, "pitch": 51, "duration": 62, "velocity": 82}, {"time": 802, "pitch": 58, "duration": 21, "velocity": 93}, {"time": 814, "pitch": 46, "duration": 18, "velocity": 68}, {"time": 820, "pitch": 56, "duration": 10, "velocity": 102}, {"time": 826, "pitch": 58, "duration": 26, "velocity": 35}, {"time": 832, "pitch": 39, "duration": 32, "velocity": 73}, {"time": 832, "pitch": 55, "duration": 22, "velocity": 72}, {"time": 856, "pitch": 58, "duration": 13, "velocity": 88}, {"time": 862, "pitch": 46, "duration": 2, "velocity": 66}, {"time": 868, "pitch": 51, "duration": 2, "velocity": 95}, {"time": 880, "pitch": 37, "duration": 46, "velocity": 97}, {"time": 880, "pitch": 52, "duration": 8, "velocity": 75}, {"time": 880, "pitch": 56, "duration": 11, "velocity": 74}, {"time": 886, "pitch": 49, "duration": 20, "velocity": 85}, {"time": 892, "pitch": 52, "duration": 20, "velocity": 75}, {"time": 898, "pitch": 61, "duration": 42, "velocity": 117}, {"time": 910, "pitch": 49, "duration": 20, "velocity": 58}, {"time": 916, "pitch": 56, "duration": 24, "velocity": 100}, {"time": 922, "pitch": 52, "duration": 14, "velocity": 78}, {"time": 928, "pitch": 37, "duration": 33, "velocity": 93}, {"time": 934, "pitch": 49, "duration": 20, "velocity": 83}, {"time": 940, "pitch": 52, "duration": 20, "velocity": 59}, {"time": 946, "pitch": 61, "duration": 30, "velocity": 112}, {"time": 958, "pitch": 49, "duration": 7, "velocity": 71}, {"time": 964, "pitch": 56, "duration": 12, "velocity": 117}, {"time": 970, "pitch": 52, "duration": 6, "velocity": 64}, {"time": 976, "pitch": 44, "duration": 42, "velocity": 96}, {"time": 982, "pitch": 47, "duration": 32, "velocity": 56}, {"time": 988, "pitch": 51, "duration": 11, "velocity": 75}, {"time": 994, "pitch": 59, "duration": 12, "velocity": 97}, {"time": 994, "pitch": 63, "duration": 16, "velocity": 112}, {"time": 1006, "pitch": 51, "duration": 20, "velocity": 62}, {"time": 1012, "pitch": 56, "duration": 17, "velocity": 90}, {"time": 1012, "pitch": 63, "duration": 1, "velocity": 22}, {"time": 1018, "pitch": 47, "duration": 5, "velocity": 20}, {"time": 1018, "pitch": 59, "duration": 14, "velocity": 32}, {"time": 1018, "pitch": 63, "duration": 19, "velocity": 34}, {"time": 1024, "pitch": 44, "duration": 36, "velocity": 62}, {"time": 1030, "pitch": 47, "duration": 30, "velocity": 43}, {"time": 1036, "pitch": 51, "duration": 11, "velocity": 92}, {"time": 1042, "pitch": 59, "duration": 18, "velocity": 71}, {"time": 1042, "pitch": 63, "duration": 29, "velocity": 95}, {"time": 1054, "pitch": 51, "duration": 5, "velocity": 72}, {"time": 1060, "pitch": 56, "duration": 12, "velocity": 102}, {"time": 1066, "pitch": 59, "duration": 5, "velocity": 59}, {"time": 1072, "pitch": 37, "duration": 46, "velocity": 93}, {"time": 1078, "pitch": 49, "duration": 20, "velocity": 58}, {"time": 1084, "pitch": 52, "duration": 26, "velocity": 72}, {"time": 1090, "pitch": 61, "duration": 41, "velocity": 97}, {"time": 1102, "pitch": 49, "duration": 20, "velocity": 76}, {"time": 1108, "pitch": 56, "duration": 22, "velocity": 112}, {"time": 1114, "pitch": 52, "duration": 12, "velocity": 81}, {"time": 1120, "pitch": 37, "duration": 37, "velocity": 89}, {"time": 1126, "pitch": 49, "duration": 32, "velocity": 83}, {"time": 1132, "pitch": 52, "duration": 25, "velocity": 92}, {"time": 1138, "pitch": 61, "duration": 29, "velocity": 97}, {"time": 1150, "pitch": 44, "duration": 7, "velocity": 51}, {"time": 1156, "pitch": 56, "duration": 10, "velocity": 122}, {"time": 1162, "pitch": 52, "duration": 7, "velocity": 75}, {"time": 1168, "pitch": 39, "duration": 45, "velocity": 82}, {"time": 1174, "pitch": 51, "duration": 17, "velocity": 51}, {"time": 1180, "pitch": 55, "duration": 5, "velocity": 33}, {"time": 1186, "pitch": 58, "duration": 17, "velocity": 95}, {"time": 1198, "pitch": 46, "duration": 16, "velocity": 32}, {"time": 1204, "pitch": 55, "duration": 26, "velocity": 53}, {"time": 1204, "pitch": 58, "duration": 27, "velocity": 63}, {"time": 1216, "pitch": 39, "duration": 37, "velocity": 89}, {"time": 1222, "pitch": 43, "duration": 24, "velocity": 33}, {"time": 1228, "pitch": 46, "duration": 15, "velocity": 79}, {"time": 1234, "pitch": 51, "duration": 4, "velocity": 82}, {"time": 1240, "pitch": 51, "duration": 5, "velocity": 100}, {"time": 1240, "pitch": 55, "duration": 8, "velocity": 107}, {"time": 1240, "pitch": 58, "duration": 7, "velocity": 112}, {"time": 1246, "pitch": 46, "duration": 8, "velocity": 96}, {"time": 1252, "pitch": 55, "duration": 1, "velocity": 122}, {"time": 1252, "pitch": 58, "duration": 2, "velocity": 112}, {"time": 1264, "pitch": 44, "duration": 34, "velocity": 100}, {"time": 1264, "pitch": 56, "duration": 15, "velocity": 112}, {"time": 1264, "pitch": 59, "duration": 17, "velocity": 107}, {"time": 1264, "pitch": 63, "duration": 18, "velocity": 122}, {"time": 1282, "pitch": 56, "duration": 7, "velocity": 88}, {"time": 1288, "pitch": 59, "duration": 12, "velocity": 102}, {"time": 1288, "pitch": 63, "duration": 13, "velocity": 127}, {"time": 1294, "pitch": 51, "duration": 3, "velocity": 89}, {"time": 1300, "pitch": 56, "duration": 12, "velocity": 107}, {"time": 1312, "pitch": 42, "duration": 26, "velocity": 93}, {"time": 1312, "pitch": 58, "duration": 6, "velocity": 107}, {"time": 1312, "pitch": 61, "duration": 5, "velocity": 96}, {"time": 1318, "pitch": 54, "duration": 10, "velocity": 93}, {"time": 1324, "pitch": 58, "duration": 7, "velocity": 86}, {"time": 1330, "pitch": 61, "duration": 19, "velocity": 112}, {"time": 1342, "pitch": 42, "duration": 7, "velocity": 69}, {"time": 1348, "pitch": 58, "duration": 5, "velocity": 127}, {"time": 1354, "pitch": 54, "duration": 1, "velocity": 79}, {"time": 1360, "pitch": 40, "duration": 34, "velocity": 69}, {"time": 1360, "pitch": 52, "duration": 7, "velocity": 92}, {"time": 1360, "pitch": 56, "duration": 11, "velocity": 93}, {"time": 1360, "pitch": 59, "duration": 10, "velocity": 83}, {"time": 1366, "pitch": 47, "duration": 18, "velocity": 60}, {"time": 1372, "pitch": 52, "duration": 8, "velocity": 69}, {"time": 1378, "pitch": 56, "duration": 14, "velocity": 112}, {"time": 1378, "pitch": 59, "duration": 15, "velocity": 96}, {"time": 1390, "pitch": 47, "duration": 5, "velocity": 70}, {"time": 1396, "pitch": 56, "duration": 1, "velocity": 102}, {"time": 1396, "pitch": 59, "duration": 1, "velocity": 95}, {"time": 1408, "pitch": 47, "duration": 31, "velocity": 60}, {"time": 1408, "pitch": 59, "duration": 14, "velocity": 90}, {"time": 1408, "pitch": 63, "duration": 16, "velocity": 112}, {"time": 1408, "pitch": 66, "duration": 16, "velocity": 102}, {"time": 1414, "pitch": 51, "duration": 25, "velocity": 39}, {"time": 1420, "pitch": 54, "duration": 13, "velocity": 83}, {"time": 1426, "pitch": 59, "duration": 4, "velocity": 72}, {"time": 1426, "pitch": 63, "duration": 4, "velocity": 63}, {"time": 1426, "pitch": 66, "duration": 4, "velocity": 63}, {"time": 1432, "pitch": 63, "duration": 12, "velocity": 127}, {"time": 1432, "pitch": 66, "duration": 12, "velocity": 127}, {"time": 1438, "pitch": 54, "duration": 2, "velocity": 95}, {"time": 1444, "pitch": 59, "duration": 1, "velocity": 107}, {"time": 1456, "pitch": 37, "duration": 35, "velocity": 100}, {"time": 1456, "pitch": 61, "duration": 5, "velocity": 112}, {"time": 1456, "pitch": 64, "duration": 4, "velocity": 96}, {"time": 1456, "pitch": 68, "duration": 5, "velocity": 107}, {"time": 1459, "pitch": 49, "duration": 22, "velocity": 100}, {"time": 1468, "pitch": 52, "duration": 10, "velocity": 39}, {"time": 1474, "pitch": 56, "duration": 4, "velocity": 67}, {"time": 1474, "pitch": 61, "duration": 4, "velocity": 86}, {"time": 1480, "pitch": 52, "duration": 7, "velocity": 107}, {"time": 1480, "pitch": 56, "duration": 10, "velocity": 127}, {"time": 1480, "pitch": 61, "duration": 13, "velocity": 122}, {"time": 1486, "pitch": 49, "duration": 5, "velocity": 99}, {"time": 1492, "pitch": 52, "duration": 1, "velocity": 102}, {"time": 1504, "pitch": 42, "duration": 35, "velocity": 112}, {"time": 1504, "pitch": 54, "duration": 2, "velocity": 107}, {"time": 1504, "pitch": 58, "duration": 2, "velocity": 117}, {"time": 1504, "pitch": 61, "duration": 3, "velocity": 107}, {"time": 1516, "pitch": 54, "duration": 14, "velocity": 74}, {"time": 1522, "pitch": 61, "duration": 2, "velocity": 60}, {"time": 1528, "pitch": 61, "duration": 10, "velocity": 122}, {"time": 1528, "pitch": 66, "duration": 9, "velocity": 127}, {"time": 1534, "pitch": 54, "duration": 4, "velocity": 85}, {"time": 1540, "pitch": 61, "duration": 1, "velocity": 117}, {"time": 1552, "pitch": 40, "duration": 33, "velocity": 76}, {"time": 1552, "pitch": 52, "duration": 6, "velocity": 100}, {"time": 1552, "pitch": 56, "duration": 7, "velocity": 112}, {"time": 1552, "pitch": 59, "duration": 14, "velocity": 93}, {"time": 1558, "pitch": 47, "duration": 10, "velocity": 92}, {"time": 1564, "pitch": 52, "duration": 13, "velocity": 85}, {"time": 1570, "pitch": 47, "duration": 8, "velocity": 76}, {"time": 1576, "pitch": 56, "duration": 12, "velocity": 127}, {"time": 1576, "pitch": 59, "duration": 12, "velocity": 107}, {"time": 1582, "pitch": 47, "duration": 2, "velocity": 83}, {"time": 1588, "pitch": 52, "duration": 1, "velocity": 96}, {"time": 1600, "pitch": 39, "duration": 37, "velocity": 112}, {"time": 1600, "pitch": 55, "duration": 7, "velocity": 93}, {"time": 1600, "pitch": 58, "duration": 9, "velocity": 127}, {"time": 1606, "pitch": 51, "duration": 20, "velocity": 97}, {"time": 1612, "pitch": 55, "duration": 2, "velocity": 58}, {"time": 1615, "pitch": 58, "duration": 3, "velocity": 99}, {"time": 1618, "pitch": 55, "duration": 3, "velocity": 81}, {"time": 1618, "pitch": 63, "duration": 4, "velocity": 86}, {"time": 1624, "pitch": 55, "duration": 6, "velocity": 100}, {"time": 1624, "pitch": 58, "duration": 9, "velocity": 127}, {"time": 1624, "pitch": 63, "duration": 10, "velocity": 112}, {"time": 1630, "pitch": 51, "duration": 7, "velocity": 97}, {"time": 1636, "pitch": 58, "duration": 3, "velocity": 122}, {"time": 1636, "pitch": 63, "duration": 6, "velocity": 112}, {"time": 1642, "pitch": 55, "duration": 1, "velocity": 99}, {"time": 1648, "pitch": 44, "duration": 37, "velocity": 102}, {"time": 1648, "pitch": 56, "duration": 1, "velocity": 122}, {"time": 1648, "pitch": 59, "duration": 14, "velocity": 107}, {"time": 1648, "pitch": 63, "duration": 14, "velocity": 127}, {"time": 1660, "pitch": 56, "duration": 5, "velocity": 55}, {"time": 1666, "pitch": 51, "duration": 8, "velocity": 50}, {"time": 1672, "pitch": 59, "duration": 12, "velocity": 112}, {"time": 1672, "pitch": 63, "duration": 13, "velocity": 127}, {"time": 1678, "pitch": 51, "duration": 8, "velocity": 90}, {"time": 1684, "pitch": 56, "duration": 8, "velocity": 102}, {"time": 1696, "pitch": 42, "duration": 33, "velocity": 92}, {"time": 1696, "pitch": 58, "duration": 14, "velocity": 107}, {"time": 1696, "pitch": 61, "duration": 10, "velocity": 102}, {"time": 1708, "pitch": 49, "duration": 14, "velocity": 62}, {"time": 1714, "pitch": 54, "duration": 5, "velocity": 76}, {"time": 1720, "pitch": 58, "duration": 10, "velocity": 112}, {"time": 1720, "pitch": 61, "duration": 12, "velocity": 127}, {"time": 1726, "pitch": 49, "duration": 3, "velocity": 81}, {"time": 1732, "pitch": 54, "duration": 2, "velocity": 112}, {"time": 1744, "pitch": 40, "duration": 34, "velocity": 74}, {"time": 1744, "pitch": 52, "duration": 4, "velocity": 99}, {"time": 1744, "pitch": 56, "duration": 4, "velocity": 100}, {"time": 1744, "pitch": 59, "duration": 4, "velocity": 93}, {"time": 1750, "pitch": 47, "duration": 29, "velocity": 56}, {"time": 1756, "pitch": 52, "duration": 15, "velocity": 89}, {"time": 1762, "pitch": 59, "duration": 5, "velocity": 72}, {"time": 1768, "pitch": 59, "duration": 1, "velocity": 52}, {"time": 1768, "pitch": 64, "duration": 13, "velocity": 97}, {"time": 1768, "pitch": 68, "duration": 13, "velocity": 117}, {"time": 1774, "pitch": 52, "duration": 4, "velocity": 89}, {"time": 1780, "pitch": 59, "duration": 10, "velocity": 90}, {"time": 1792, "pitch": 35, "duration": 1, "velocity": 69}, {"time": 1792, "pitch": 59, "duration": 17, "velocity": 93}, {"time": 1792, "pitch": 63, "duration": 19, "velocity": 117}, {"time": 1792, "pitch": 66, "duration": 18, "velocity": 117}, {"time": 1798, "pitch": 47, "duration": 24, "velocity": 54}, {"time": 1804, "pitch": 51, "duration": 21, "velocity": 93}, {"time": 1810, "pitch": 54, "duration": 8, "velocity": 99}, {"time": 1816, "pitch": 63, "duration": 12, "velocity": 127}, {"time": 1816, "pitch": 66, "duration": 12, "velocity": 102}, {"time": 1822, "pitch": 54, "duration": 3, "velocity": 63}, {"time": 1828, "pitch": 59, "duration": 1, "velocity": 100}, {"time": 1840, "pitch": 37, "duration": 37, "velocity": 96}, {"time": 1840, "pitch": 61, "duration": 3, "velocity": 102}, {"time": 1840, "pitch": 64, "duration": 2, "velocity": 89}, {"time": 1840, "pitch": 68, "duration": 3, "velocity": 100}, {"time": 1843, "pitch": 49, "duration": 10, "velocity": 90}, {"time": 1852, "pitch": 52, "duration": 14, "velocity": 70}, {"time": 1858, "pitch": 49, "duration": 10, "velocity": 90}, {"time": 1864, "pitch": 56, "duration": 12, "velocity": 122}, {"time": 1864, "pitch": 61, "duration": 13, "velocity": 122}, {"time": 1870, "pitch": 49, "duration": 7, "velocity": 77}, {"time": 1876, "pitch": 52, "duration": 1, "velocity": 90}, {"time": 1888, "pitch": 42, "duration": 31, "velocity": 93}, {"time": 1888, "pitch": 54, "duration": 14, "velocity": 97}, {"time": 1888, "pitch": 58, "duration": 16, "velocity": 102}, {"time": 1888, "pitch": 61, "duration": 19, "velocity": 96}, {"time": 1900, "pitch": 49, "duration": 14, "velocity": 72}, {"time": 1906, "pitch": 54, "duration": 5, "velocity": 59}, {"time": 1912, "pitch": 58, "duration": 11, "velocity": 127}, {"time": 1912, "pitch": 61, "duration": 12, "velocity": 117}, {"time": 1918, "pitch": 49, "duration": 1, "velocity": 96}, {"time": 1924, "pitch": 54, "duration": 1, "velocity": 112}, {"time": 1936, "pitch": 40, "duration": 21, "velocity": 77}, {"time": 1936, "pitch": 52, "duration": 7, "velocity": 92}, {"time": 1936, "pitch": 56, "duration": 13, "velocity": 99}, {"time": 1936, "pitch": 59, "duration": 14, "velocity": 93}, {"time": 1942, "pitch": 47, "duration": 15, "velocity": 76}, {"time": 1948, "pitch": 52, "duration": 8, "velocity": 59}, {"time": 1960, "pitch": 39, "duration": 14, "velocity": 117}, {"time": 1966, "pitch": 51, "duration": 9, "velocity": 92}, {"time": 1972, "pitch": 55, "duration": 3, "velocity": 72}, {"time": 1972, "pitch": 58, "duration": 4, "velocity": 69}, {"time": 1984, "pitch": 44, "duration": 37, "velocity": 107}, {"time": 1990, "pitch": 47, "duration": 29, "velocity": 50}, {"time": 1996, "pitch": 51, "duration": 14, "velocity": 57}, {"time": 2002, "pitch": 56, "duration": 8, "velocity": 66}, {"time": 2008, "pitch": 63, "duration": 14, "velocity": 112}, {"time": 2014, "pitch": 51, "duration": 6, "velocity": 45}, {"time": 2020, "pitch": 59, "duration": 8, "velocity": 53}, {"time": 2026, "pitch": 63, "duration": 16, "velocity": 59}, {"time": 2032, "pitch": 32, "duration": 30, "velocity": 92}, {"time": 2038, "pitch": 44, "duration": 20, "velocity": 59}, {"time": 2044, "pitch": 56, "duration": 13, "velocity": 34}, {"time": 2050, "pitch": 59, "duration": 5, "velocity": 41}, {"time": 2056, "pitch": 63, "duration": 12, "velocity": 117}, {"time": 2062, "pitch": 44, "duration": 1, "velocity": 82}, {"time": 2068, "pitch": 59, "duration": 1, "velocity": 49}, {"time": 2080, "pitch": 42, "duration": 39, "velocity": 97}, {"time": 2080, "pitch": 54, "duration": 13, "velocity": 102}, {"time": 2080, "pitch": 58, "duration": 15, "velocity": 107}, {"time": 2080, "pitch": 61, "duration": 14, "velocity": 100}, {"time": 2086, "pitch": 46, "duration": 40, "velocity": 47}, {"time": 2089, "pitch": 61, "duration": 5, "velocity": 78}, {"time": 2092, "pitch": 49, "duration": 14, "velocity": 62}, {"time": 2092, "pitch": 66, "duration": 3, "velocity": 96}, {"time": 2095, "pitch": 68, "duration": 4, "velocity": 90}, {"time": 2098, "pitch": 54, "duration": 10, "velocity": 41}, {"time": 2098, "pitch": 70, "duration": 15, "velocity": 96}, {"time": 2104, "pitch": 58, "duration": 13, "velocity": 107}, {"time": 2104, "pitch": 61, "duration": 12, "velocity": 117}, {"time": 2110, "pitch": 49, "duration": 7, "velocity": 36}, {"time": 2113, "pitch": 61, "duration": 3, "velocity": 59}, {"time": 2116, "pitch": 54, "duration": 8, "velocity": 95}, {"time": 2116, "pitch": 66, "duration": 4, "velocity": 90}, {"time": 2119, "pitch": 68, "duration": 3, "velocity": 92}, {"time": 2122, "pitch": 70, "duration": 6, "velocity": 102}, {"time": 2128, "pitch": 42, "duration": 39, "velocity": 60}, {"time": 2128, "pitch": 54, "duration": 13, "velocity": 89}, {"time": 2128, "pitch": 58, "duration": 17, "velocity": 93}, {"time": 2128, "pitch": 61, "duration": 8, "velocity": 86}, {"time": 2128, "pitch": 61, "duration": 8, "velocity": 99}, {"time": 2134, "pitch": 46, "duration": 33, "velocity": 44}, {"time": 2137, "pitch": 61, "duration": 4, "velocity": 97}, {"time": 2140, "pitch": 49, "duration": 15, "velocity": 42}, {"time": 2140, "pitch": 66, "duration": 3, "velocity": 78}, {"time": 2143, "pitch": 54, "duration": 4, "velocity": 39}, {"time": 2143, "pitch": 68, "duration": 4, "velocity": 100}, {"time": 2146, "pitch": 70, "duration": 6, "velocity": 107}, {"time": 2152, "pitch": 54, "duration": 6, "velocity": 92}, {"time": 2152, "pitch": 58, "duration": 6, "velocity": 95}, {"time": 2152, "pitch": 61, "duration": 6, "velocity": 88}, {"time": 2152, "pitch": 61, "duration": 6, "velocity": 97}, {"time": 2158, "pitch": 49, "duration": 8, "velocity": 50}, {"time": 2161, "pitch": 58, "duration": 1, "velocity": 34}, {"time": 2161, "pitch": 61, "duration": 4, "velocity": 83}, {"time": 2164, "pitch": 58, "duration": 2, "velocity": 107}, {"time": 2164, "pitch": 61, "duration": 1, "velocity": 117}, {"time": 2164, "pitch": 66, "duration": 3, "velocity": 77}, {"time": 2167, "pitch": 68, "duration": 3, "velocity": 97}, {"time": 2170, "pitch": 70, "duration": 5, "velocity": 96}, {"time": 2176, "pitch": 37, "duration": 45, "velocity": 90}, {"time": 2176, "pitch": 52, "duration": 9, "velocity": 92}, {"time": 2176, "pitch": 56, "duration": 13, "velocity": 127}, {"time": 2182, "pitch": 49, "duration": 15, "velocity": 79}, {"time": 2185, "pitch": 63, "duration": 5, "velocity": 73}, {"time": 2188, "pitch": 52, "duration": 18, "velocity": 52}, {"time": 2188, "pitch": 64, "duration": 5, "velocity": 83}, {"time": 2191, "pitch": 68, "duration": 3, "velocity": 93}, {"time": 2194, "pitch": 56, "duration": 14, "velocity": 95}, {"time": 2194, "pitch": 61, "duration": 14, "velocity": 97}, {"time": 2194, "pitch": 71, "duration": 15, "velocity": 92}, {"time": 2206, "pitch": 49, "duration": 18, "velocity": 54}, {"time": 2209, "pitch": 63, "duration": 4, "velocity": 89}, {"time": 2212, "pitch": 61, "duration": 25, "velocity": 122}, {"time": 2212, "pitch": 64, "duration": 4, "velocity": 88}, {"time": 2215, "pitch": 68, "duration": 2, "velocity": 86}, {"time": 2218, "pitch": 56, "duration": 19, "velocity": 86}, {"time": 2218, "pitch": 71, "duration": 11, "velocity": 96}, {"time": 2221, "pitch": 37, "duration": 1, "velocity": 74}, {"time": 2224, "pitch": 63, "duration": 8, "velocity": 37}, {"time": 2230, "pitch": 49, "duration": 26, "velocity": 93}, {"time": 2233, "pitch": 64, "duration": 5, "velocity": 65}, {"time": 2236, "pitch": 52, "duration": 17, "velocity": 72}, {"time": 2236, "pitch": 68, "duration": 6, "velocity": 96}, {"time": 2242, "pitch": 56, "duration": 17, "velocity": 97}, {"time": 2242, "pitch": 61, "duration": 18, "velocity": 102}, {"time": 2242, "pitch": 71, "duration": 14, "velocity": 92}, {"time": 2257, "pitch": 63, "duration": 3, "velocity": 93}, {"time": 2260, "pitch": 64, "duration": 4, "velocity": 88}, {"time": 2263, "pitch": 68, "duration": 2, "velocity": 88}, {"time": 2266, "pitch": 71, "duration": 4, "velocity": 95}, {"time": 2272, "pitch": 39, "duration": 38, "velocity": 99}, {"time": 2272, "pitch": 51, "duration": 12, "velocity": 102}, {"time": 2272, "pitch": 55, "duration": 13, "velocity": 112}, {"time": 2272, "pitch": 58, "duration": 14, "velocity": 102}, {"time": 2284, "pitch": 46, "duration": 15, "velocity": 71}, {"time": 2290, "pitch": 51, "duration": 13, "velocity": 97}, {"time": 2290, "pitch": 55, "duration": 1, "velocity": 79}, {"time": 2290, "pitch": 58, "duration": 14, "velocity": 100}, {"time": 2293, "pitch": 55, "duration": 8, "velocity": 25}, {"time": 2302, "pitch": 46, "duration": 10, "velocity": 48}, {"time": 2308, "pitch": 51, "duration": 10, "velocity": 89}, {"time": 2320, "pitch": 39, "duration": 37, "velocity": 63}, {"time": 2320, "pitch": 46, "duration": 36, "velocity": 81}, {"time": 2320, "pitch": 51, "duration": 37, "velocity": 86}, {"time": 2320, "pitch": 55, "duration": 36, "velocity": 89}, {"time": 2320, "pitch": 58, "duration": 38, "velocity": 92}, {"time": 2368, "pitch": 44, "duration": 35, "velocity": 56}, {"time": 2368, "pitch": 56, "duration": 3, "velocity": 57}, {"time": 2368, "pitch": 59, "duration": 21, "velocity": 65}, {"time": 2368, "pitch": 63, "duration": 17, "velocity": 64}, {"time": 2380, "pitch": 56, "duration": 10, "velocity": 28}, {"time": 2392, "pitch": 59, "duration": 14, "velocity": 77}, {"time": 2392, "pitch": 63, "duration": 13, "velocity": 92}, {"time": 2395, "pitch": 47, "duration": 7, "velocity": 22}, {"time": 2398, "pitch": 51, "duration": 17, "velocity": 41}, {"time": 2404, "pitch": 56, "duration": 15, "velocity": 64}, {"time": 2410, "pitch": 63, "duration": 13, "velocity": 69}, {"time": 2416, "pitch": 44, "duration": 43, "velocity": 73}, {"time": 2422, "pitch": 51, "duration": 19, "velocity": 36}, {"time": 2428, "pitch": 56, "duration": 10, "velocity": 69}, {"time": 2434, "pitch": 63, "duration": 32, "velocity": 90}, {"time": 2446, "pitch": 51, "duration": 17, "velocity": 41}, {"time": 2452, "pitch": 61, "duration": 14, "velocity": 48}, {"time": 2464, "pitch": 42, "duration": 36, "velocity": 96}, {"time": 2470, "pitch": 54, "duration": 13, "velocity": 73}, {"time": 2476, "pitch": 58, "duration": 6, "velocity": 73}, {"time": 2482, "pitch": 61, "duration": 34, "velocity": 93}, {"time": 2494, "pitch": 46, "duration": 9, "velocity": 35}, {"time": 2500, "pitch": 58, "duration": 19, "velocity": 63}, {"time": 2506, "pitch": 54, "duration": 10, "velocity": 73}, {"time": 2509, "pitch": 42, "duration": 11, "velocity": 78}, {"time": 2518, "pitch": 49, "duration": 4, "velocity": 46}, {"time": 2524, "pitch": 54, "duration": 18, "velocity": 69}, {"time": 2530, "pitch": 61, "duration": 28, "velocity": 100}, {"time": 2542, "pitch": 58, "duration": 6, "velocity": 75}, {"time": 2548, "pitch": 54, "duration": 11, "velocity": 75}, {"time": 2554, "pitch": 58, "duration": 4, "velocity": 58}, {"time": 2557, "pitch": 37, "duration": 2, "velocity": 32}, {"time": 2560, "pitch": 37, "duration": 45, "velocity": 83}, {"time": 2566, "pitch": 49, "duration": 17, "velocity": 82}, {"time": 2572, "pitch": 52, "duration": 25, "velocity": 61}, {"time": 2578, "pitch": 61, "duration": 41, "velocity": 107}, {"time": 2590, "pitch": 49, "duration": 18, "velocity": 61}, {"time": 2596, "pitch": 56, "duration": 22, "velocity": 92}, {"time": 2602, "pitch": 52, "duration": 15, "velocity": 56}, {"time": 2608, "pitch": 37, "duration": 34, "velocity": 88}, {"time": 2614, "pitch": 49, "duration": 20, "velocity": 64}, {"time": 2620, "pitch": 52, "duration": 26, "velocity": 56}, {"time": 2626, "pitch": 61, "duration": 27, "velocity": 112}, {"time": 2635, "pitch": 49, "duration": 6, "velocity": 62}, {"time": 2644, "pitch": 56, "duration": 11, "velocity": 112}, {"time": 2650, "pitch": 52, "duration": 6, "velocity": 51}, {"time": 2656, "pitch": 39, "duration": 45, "velocity": 99}, {"time": 2662, "pitch": 46, "duration": 21, "velocity": 63}, {"time": 2668, "pitch": 51, "duration": 62, "velocity": 82}, {"time": 2674, "pitch": 58, "duration": 21, "velocity": 93}, {"time": 2686, "pitch": 46, "duration": 18, "velocity": 68}, {"time": 2692, "pitch": 56, "duration": 10, "velocity": 102}, {"time": 2698, "pitch": 58, "duration": 26, "velocity": 35}, {"time": 2704, "pitch": 39, "duration": 32, "velocity": 73}, {"time": 2704, "pitch": 55, "duration": 22, "velocity": 72}, {"time": 2728, "pitch": 58, "duration": 13, "velocity": 88}, {"time": 2734, "pitch": 46, "duration": 2, "velocity": 66}, {"time": 2740, "pitch": 51, "duration": 2, "velocity": 95}, {"time": 2752, "pitch": 37, "duration": 46, "velocity": 97}, {"time": 2752, "pitch": 52, "duration": 8, "velocity": 75}, {"time": 2752, "pitch": 56, "duration": 11, "velocity": 74}, {"time": 2758, "pitch": 49, "duration": 20, "velocity": 85}, {"time": 2764, "pitch": 52, "duration": 20, "velocity": 75}, {"time": 2770, "pitch": 61, "duration": 42, "velocity": 117}, {"time": 2782, "pitch": 49, "duration": 20, "velocity": 58}, {"time": 2788, "pitch": 56, "duration": 24, "velocity": 100}, {"time": 2794, "pitch": 52, "duration": 14, "velocity": 78}, {"time": 2800, "pitch": 37, "duration": 33, "velocity": 93}, {"time": 2806, "pitch": 49, "duration": 20, "velocity": 83}, {"time": 2812, "pitch": 52, "duration": 20, "velocity": 59}, {"time": 2818, "pitch": 61, "duration": 30, "velocity": 112}, {"time": 2830, "pitch": 49, "duration": 7, "velocity": 71}, {"time": 2836, "pitch": 56, "duration": 12, "velocity": 117}, {"time": 2842, "pitch": 52, "duration": 6, "velocity": 64}, {"time": 2848, "pitch": 44, "duration": 42, "velocity": 96}, {"time": 2854, "pitch": 47, "duration": 32, "velocity": 56}, {"time": 2860, "pitch": 51, "duration": 11, "velocity": 75}, {"time": 2866, "pitch": 59, "duration": 12, "velocity": 97}, {"time": 2866, "pitch": 63, "duration": 16, "velocity": 112}, {"time": 2878, "pitch": 51, "duration": 20, "velocity": 62}, {"time": 2884, "pitch": 56, "duration": 17, "velocity": 90}, {"time": 2884, "pitch": 63, "duration": 1, "velocity": 22}, {"time": 2890, "pitch": 47, "duration": 5, "velocity": 20}, {"time": 2890, "pitch": 59, "duration": 14, "velocity": 32}, {"time": 2890, "pitch": 63, "duration": 19, "velocity": 34}, {"time": 2896, "pitch": 44, "duration": 36, "velocity": 62}, {"time": 2902, "pitch": 47, "duration": 30, "velocity": 43}, {"time": 2908, "pitch": 51, "duration": 11, "velocity": 92}, {"time": 2914, "pitch": 59, "duration": 18, "velocity": 71}, {"time": 2914, "pitch": 63, "duration": 29, "velocity": 95}, {"time": 2926, "pitch": 51, "duration": 5, "velocity": 72}, {"time": 2932, "pitch": 56, "duration": 12, "velocity": 102}, {"time": 2938, "pitch": 59, "duration": 5, "velocity": 59}, {"time": 2944, "pitch": 37, "duration": 46, "velocity": 93}, {"time": 2950, "pitch": 49, "duration": 20, "velocity": 58}, {"time": 2956, "pitch": 52, "duration": 26, "velocity": 72}, {"time": 2962, "pitch": 61, "duration": 41, "velocity": 97}, {"time": 2974, "pitch": 49, "duration": 20, "velocity": 76}, {"time": 2980, "pitch": 56, "duration": 22, "velocity": 112}, {"time": 2986, "pitch": 52, "duration": 12, "velocity": 81}, {"time": 2992, "pitch": 37, "duration": 37, "velocity": 89}, {"time": 2998, "pitch": 49, "duration": 32, "velocity": 83}, {"time": 3004, "pitch": 52, "duration": 25, "velocity": 92}, {"time": 3010, "pitch": 61, "duration": 29, "velocity": 97}, {"time": 3022, "pitch": 44, "duration": 7, "velocity": 51}, {"time": 3028, "pitch": 56, "duration": 10, "velocity": 122}, {"time": 3034, "pitch": 52, "duration": 7, "velocity": 75}, {"time": 3040, "pitch": 39, "duration": 45, "velocity": 82}, {"time": 3046, "pitch": 51, "duration": 17, "velocity": 51}, {"time": 3052, "pitch": 55, "duration": 5, "velocity": 33}, {"time": 3058, "pitch": 58, "duration": 17, "velocity": 95}, {"time": 3070, "pitch": 46, "duration": 16, "velocity": 32}, {"time": 3076, "pitch": 55, "duration": 26, "velocity": 53}, {"time": 3076, "pitch": 58, "duration": 27, "velocity": 63}, {"time": 3088, "pitch": 39, "duration": 37, "velocity": 89}, {"time": 3094, "pitch": 43, "duration": 24, "velocity": 33}, {"time": 3100, "pitch": 46, "duration": 15, "velocity": 79}, {"time": 3106, "pitch": 51, "duration": 4, "velocity": 82}, {"time": 3112, "pitch": 51, "duration": 5, "velocity": 100}, {"time": 3112, "pitch": 55, "duration": 8, "velocity": 107}, {"time": 3112, "pitch": 58, "duration": 7, "velocity": 112}, {"time": 3118, "pitch": 46, "duration": 8, "velocity": 96}, {"time": 3124, "pitch": 55, "duration": 1, "velocity": 122}, {"time": 3124, "pitch": 58, "duration": 2, "velocity": 112}, {"time": 3136, "pitch": 44, "duration": 34, "velocity": 100}, {"time": 3136, "pitch": 56, "duration": 15, "velocity": 112}, {"time": 3136, "pitch": 59, "duration": 17, "velocity": 107}, {"time": 3136, "pitch": 63, "duration": 18, "velocity": 122}, {"time": 3154, "pitch": 56, "duration": 7, "velocity": 88}, {"time": 3160, "pitch": 59, "duration": 12, "velocity": 102}, {"time": 3160, "pitch": 63, "duration": 13, "velocity": 127}, {"time": 3166, "pitch": 51, "duration": 3, "velocity": 89}, {"time": 3172, "pitch": 56, "duration": 12, "velocity": 107}, {"time": 3184, "pitch": 42, "duration": 26, "velocity": 93}, {"time": 3184, "pitch": 58, "duration": 6, "velocity": 107}, {"time": 3184, "pitch": 61, "duration": 5, "velocity": 96}, {"time": 3190, "pitch": 54, "duration": 10, "velocity": 93}, {"time": 3196, "pitch": 58, "duration": 7, "velocity": 86}, {"time": 3202, "pitch": 61, "duration": 19, "velocity": 112}, {"time": 3214, "pitch": 42, "duration": 7, "velocity": 69}, {"time": 3220, "pitch": 58, "duration": 5, "velocity": 127}, {"time": 3226, "pitch": 54, "duration": 1, "velocity": 79}, {"time": 3232, "pitch": 40, "duration": 34, "velocity": 69}, {"time": 3232, "pitch": 52, "duration": 7, "velocity": 92}, {"time": 3232, "pitch": 56, "duration": 11, "velocity": 93}, {"time": 3232, "pitch": 59, "duration": 10, "velocity": 83}, {"time": 3238, "pitch": 47, "duration": 18, "velocity": 60}, {"time": 3244, "pitch": 52, "duration": 8, "velocity": 69}, {"time": 3250, "pitch": 56, "duration": 14, "velocity": 112}, {"time": 3250, "pitch": 59, "duration": 15, "velocity": 96}, {"time": 3262, "pitch": 47, "duration": 5, "velocity": 70}, {"time": 3268, "pitch": 56, "duration": 1, "velocity": 102}, {"time": 3268, "pitch": 59, "duration": 1, "velocity": 95}, {"time": 3280, "pitch": 47, "duration": 31, "velocity": 60}, {"time": 3280, "pitch": 59, "duration": 14, "velocity": 90}, {"time": 3280, "pitch": 63, "duration": 16, "velocity": 112}, {"time": 3280, "pitch": 66, "duration": 16, "velocity": 102}, {"time": 3286, "pitch": 51, "duration": 25, "velocity": 39}, {"time": 3292, "pitch": 54, "duration": 13, "velocity": 83}, {"time": 3298, "pitch": 59, "duration": 4, "velocity": 72}, {"time": 3298, "pitch": 63, "duration": 4, "velocity": 63}, {"time": 3298, "pitch": 66, "duration": 4, "velocity": 63}, {"time": 3304, "pitch": 63, "duration": 12, "velocity": 127}, {"time": 3304, "pitch": 66, "duration": 12, "velocity": 127}, {"time": 3310, "pitch": 54, "duration": 2, "velocity": 95}, {"time": 3316, "pitch": 59, "duration": 1, "velocity": 107}, {"time": 3328, "pitch": 37, "duration": 35, "velocity": 100}, {"time": 3328, "pitch": 61, "duration": 5, "velocity": 112}, {"time": 3328, "pitch": 64, "duration": 4, "velocity": 96}, {"time": 3328, "pitch": 68, "duration": 5, "velocity": 107}, {"time": 3331, "pitch": 49, "duration": 22, "velocity": 100}, {"time": 3340, "pitch": 52, "duration": 10, "velocity": 39}, {"time": 3346, "pitch": 56, "duration": 4, "velocity": 67}, {"time": 3346, "pitch": 61, "duration": 4, "velocity": 86}, {"time": 3352, "pitch": 52, "duration": 7, "velocity": 107}, {"time": 3352, "pitch": 56, "duration": 10, "velocity": 127}, {"time": 3352, "pitch": 61, "duration": 13, "velocity": 122}, {"time": 3358, "pitch": 49, "duration": 5, "velocity": 99}, {"time": 3364, "pitch": 52, "duration": 1, "velocity": 102}, {"time": 3376, "pitch": 42, "duration": 35, "velocity": 112}, {"time": 3376, "pitch": 54, "duration": 2, "velocity": 107}, {"time": 3376, "pitch": 58, "duration": 2, "velocity": 117}, {"time": 3376, "pitch": 61, "duration": 3, "velocity": 107}, {"time": 3388, "pitch": 54, "duration": 14, "velocity": 74}, {"time": 3394, "pitch": 61, "duration": 2, "velocity": 60}, {"time": 3400, "pitch": 61, "duration": 10, "velocity": 122}, {"time": 3400, "pitch": 66, "duration": 9, "velocity": 127}, {"time": 3406, "pitch": 54, "duration": 4, "velocity": 85}, {"time": 3412, "pitch": 61, "duration": 1, "velocity": 117}, {"time": 3424, "pitch": 40, "duration": 33, "velocity": 76}, {"time": 3424, "pitch": 52, "duration": 6, "velocity": 100}, {"time": 3424, "pitch": 56, "duration": 7, "velocity": 112}, {"time": 3424, "pitch": 59, "duration": 14, "velocity": 93}, {"time": 3430, "pitch": 47, "duration": 10, "velocity": 92}, {"time": 3436, "pitch": 52, "duration": 13, "velocity": 85}, {"time": 3442, "pitch": 47, "duration": 8, "velocity": 76}, {"time": 3448, "pitch": 56, "duration": 12, "velocity": 127}, {"time": 3448, "pitch": 59, "duration": 12, "velocity": 107}, {"time": 3454, "pitch": 47, "duration": 2, "velocity": 83}, {"time": 3460, "pitch": 52, "duration": 1, "velocity": 96}, {"time": 3472, "pitch": 39, "duration": 37, "velocity": 112}, {"time": 3472, "pitch": 55, "duration": 7, "velocity": 93}, {"time": 3472, "pitch": 58, "duration": 9, "velocity": 127}, {"time": 3478, "pitch": 51, "duration": 20, "velocity": 97}, {"time": 3484, "pitch": 55, "duration": 2, "velocity": 58}, {"time": 3487, "pitch": 58, "duration": 3, "velocity": 99}, {"time": 3490, "pitch": 55, "duration": 3, "velocity": 81}, {"time": 3490, "pitch": 63, "duration": 4, "velocity": 86}, {"time": 3496, "pitch": 55, "duration": 6, "velocity": 100}, {"time": 3496, "pitch": 58, "duration": 9, "velocity": 127}, {"time": 3496, "pitch": 63, "duration": 10, "velocity": 112}, {"time": 3502, "pitch": 51, "duration": 7, "velocity": 97}, {"time": 3508, "pitch": 58, "duration": 3, "velocity": 122}, {"time": 3508, "pitch": 63, "duration": 6, "velocity": 112}, {"time": 3514, "pitch": 55, "duration": 1, "velocity": 99}, {"time": 3520, "pitch": 44, "duration": 37, "velocity": 102}, {"time": 3520, "pitch": 56, "duration": 1, "velocity": 122}, {"time": 3520, "pitch": 59, "duration": 14, "velocity": 107}, {"time": 3520, "pitch": 63, "duration": 14, "velocity": 127}, {"time": 3532, "pitch": 56, "duration": 5, "velocity": 55}, {"time": 3538, "pitch": 51, "duration": 8, "velocity": 50}, {"time": 3544, "pitch": 59, "duration": 12, "velocity": 112}, {"time": 3544, "pitch": 63, "duration": 13, "velocity": 127}, {"time": 3550, "pitch": 51, "duration": 8, "velocity": 90}, {"time": 3556, "pitch": 56, "duration": 8, "velocity": 102}, {"time": 3568, "pitch": 42, "duration": 33, "velocity": 92}, {"time": 3568, "pitch": 58, "duration": 14, "velocity": 107}, {"time": 3568, "pitch": 61, "duration": 10, "velocity": 102}, {"time": 3580, "pitch": 49, "duration": 14, "velocity": 62}, {"time": 3586, "pitch": 54, "duration": 5, "velocity": 76}, {"time": 3592, "pitch": 58, "duration": 10, "velocity": 112}, {"time": 3592, "pitch": 61, "duration": 12, "velocity": 127}, {"time": 3598, "pitch": 49, "duration": 3, "velocity": 81}, {"time": 3604, "pitch": 54, "duration": 2, "velocity": 112}, {"time": 3616, "pitch": 40, "duration": 34, "velocity": 74}, {"time": 3616, "pitch": 52, "duration": 4, "velocity": 99}, {"time": 3616, "pitch": 56, "duration": 4, "velocity": 100}, {"time": 3616, "pitch": 59, "duration": 4, "velocity": 93}, {"time": 3622, "pitch": 47, "duration": 29, "velocity": 56}, {"time": 3628, "pitch": 52, "duration": 15, "velocity": 89}, {"time": 3634, "pitch": 59, "duration": 5, "velocity": 72}, {"time": 3640, "pitch": 59, "duration": 1, "velocity": 52}, {"time": 3640, "pitch": 64, "duration": 13, "velocity": 97}, {"time": 3640, "pitch": 68, "duration": 13, "velocity": 117}, {"time": 3646, "pitch": 52, "duration": 4, "velocity": 89}, {"time": 3652, "pitch": 59, "duration": 10, "velocity": 90}, {"time": 3664, "pitch": 35, "duration": 1, "velocity": 69}, {"time": 3664, "pitch": 59, "duration": 17, "velocity": 93}, {"time": 3664, "pitch": 63, "duration": 19, "velocity": 117}, {"time": 3664, "pitch": 66, "duration": 18, "velocity": 117}, {"time": 3670, "pitch": 47, "duration": 24, "velocity": 54}, {"time": 3676, "pitch": 51, "duration": 21, "velocity": 93}, {"time": 3682, "pitch": 54, "duration": 8, "velocity": 99}, {"time": 3688, "pitch": 63, "duration": 12, "velocity": 127}, {"time": 3688, "pitch": 66, "duration": 12, "velocity": 102}, {"time": 3694, "pitch": 54, "duration": 3, "velocity": 63}, {"time": 3700, "pitch": 59, "duration": 1, "velocity": 100}, {"time": 3712, "pitch": 37, "duration": 37, "velocity": 96}, {"time": 3712, "pitch": 61, "duration": 3, "velocity": 102}, {"time": 3712, "pitch": 64, "duration": 2, "velocity": 89}, {"time": 3712, "pitch": 68, "duration": 3, "velocity": 100}, {"time": 3715, "pitch": 49, "duration": 10, "velocity": 90}, {"time": 3724, "pitch": 52, "duration": 14, "velocity": 70}, {"time": 3730, "pitch": 49, "duration": 10, "velocity": 90}, {"time": 3736, "pitch": 56, "duration": 12, "velocity": 122}, {"time": 3736, "pitch": 61, "duration": 13, "velocity": 122}, {"time": 3742, "pitch": 49, "duration": 7, "velocity": 77}, {"time": 3748, "pitch": 52, "duration": 1, "velocity": 90}, {"time": 3760, "pitch": 42, "duration": 31, "velocity": 93}, {"time": 3760, "pitch": 54, "duration": 14, "velocity": 97}, {"time": 3760, "pitch": 58, "duration": 16, "velocity": 102}, {"time": 3760, "pitch": 61, "duration": 19, "velocity": 96}, {"time": 3772, "pitch": 49, "duration": 14, "velocity": 72}, {"time": 3778, "pitch": 54, "duration": 5, "velocity": 59}, {"time": 3784, "pitch": 58, "duration": 11, "velocity": 127}, {"time": 3784, "pitch": 61, "duration": 12, "velocity": 117}, {"time": 3790, "pitch": 49, "duration": 1, "velocity": 96}, {"time": 3796, "pitch": 54, "duration": 1, "velocity": 112}, {"time": 3808, "pitch": 40, "duration": 21, "velocity": 77}, {"time": 3808, "pitch": 52, "duration": 7, "velocity": 92}, {"time": 3808, "pitch": 56, "duration": 13, "velocity": 99}, {"time": 3808, "pitch": 59, "duration": 14, "velocity": 93}, {"time": 3814, "pitch": 47, "duration": 15, "velocity": 76}, {"time": 3820, "pitch": 52, "duration": 8, "velocity": 59}, {"time": 3832, "pitch": 39, "duration": 14, "velocity": 117}, {"time": 3838, "pitch": 51, "duration": 9, "velocity": 92}, {"time": 3844, "pitch": 55, "duration": 3, "velocity": 72}, {"time": 3844, "pitch": 58, "duration": 4, "velocity": 69}, {"time": 3856, "pitch": 44, "duration": 37, "velocity": 107}, {"time": 3862, "pitch": 47, "duration": 29, "velocity": 50}, {"time": 3868, "pitch": 51, "duration": 14, "velocity": 57}, {"time": 3874, "pitch": 56, "duration": 8, "velocity": 66}, {"time": 3880, "pitch": 63, "duration": 14, "velocity": 112}, {"time": 3886, "pitch": 51, "duration": 6, "velocity": 45}, {"time": 3892, "pitch": 59, "duration": 8, "velocity": 53}, {"time": 3898, "pitch": 63, "duration": 6, "velocity": 59}, {"time": 3904, "pitch": 39, "duration": 15, "velocity": 117}, {"time": 3904, "pitch": 51, "duration": 9, "velocity": 99}, {"time": 3904, "pitch": 55, "duration": 1, "velocity": 112}, {"time": 3904, "pitch": 58, "duration": 9, "velocity": 112}, {"time": 3907, "pitch": 55, "duration": 3, "velocity": 31}, {"time": 3916, "pitch": 51, "duration": 9, "velocity": 107}, {"time": 3916, "pitch": 55, "duration": 7, "velocity": 112}, {"time": 3916, "pitch": 58, "duration": 8, "velocity": 117}, {"time": 3922, "pitch": 39, "duration": 8, "velocity": 97}, {"time": 3928, "pitch": 51, "duration": 5, "velocity": 102}, {"time": 3928, "pitch": 55, "duration": 5, "velocity": 107}, {"time": 3928, "pitch": 58, "duration": 5, "velocity": 117}, {"time": 3934, "pitch": 39, "duration": 17, "velocity": 100}, {"time": 3934, "pitch": 51, "duration": 3, "velocity": 99}, {"time": 3934, "pitch": 55, "duration": 3, "velocity": 92}, {"time": 3934, "pitch": 58, "duration": 3, "velocity": 77}, {"time": 3940, "pitch": 51, "duration": 3, "velocity": 99}, {"time": 3940, "pitch": 55, "duration": 3, "velocity": 122}, {"time": 3940, "pitch": 58, "duration": 3, "velocity": 100}, {"time": 3946, "pitch": 51, "duration": 5, "velocity": 112}, {"time": 3946, "pitch": 55, "duration": 5, "velocity": 127}, {"time": 3946, "pitch": 58, "duration": 5, "velocity": 127}, {"time": 3952, "pitch": 44, "duration": 37, "velocity": 102}, {"time": 3952, "pitch": 56, "duration": 1, "velocity": 122}, {"time": 3952, "pitch": 59, "duration": 14, "velocity": 107}, {"time": 3952, "pitch": 63, "duration": 14, "velocity": 127}, {"time": 3964, "pitch": 56, "duration": 5, "velocity": 55}, {"time": 3970, "pitch": 51, "duration": 8, "velocity": 50}, {"time": 3976, "pitch": 59, "duration": 12, "velocity": 112}, {"time": 3976, "pitch": 63, "duration": 13, "velocity": 127}, {"time": 3982, "pitch": 51, "duration": 8, "velocity": 90}, {"time": 3988, "pitch": 56, "duration": 8, "velocity": 102}, {"time": 4000, "pitch": 42, "duration": 33, "velocity": 92}, {"time": 4000, "pitch": 58, "duration": 14, "velocity": 107}, {"time": 4000, "pitch": 61, "duration": 10, "velocity": 102}, {"time": 4012, "pitch": 49, "duration": 14, "velocity": 62}, {"time": 4018, "pitch": 54, "duration": 5, "velocity": 76}, {"time": 4024, "pitch": 58, "duration": 10, "velocity": 112}, {"time": 4024, "pitch": 61, "duration": 12, "velocity": 127}, {"time": 4030, "pitch": 49, "duration": 3, "velocity": 81}, {"time": 4036, "pitch": 54, "duration": 2, "velocity": 112}, {"time": 4048, "pitch": 40, "duration": 34, "velocity": 74}, {"time": 4048, "pitch": 52, "duration": 4, "velocity": 99}, {"time": 4048, "pitch": 56, "duration": 4, "velocity": 100}, {"time": 4048, "pitch": 59, "duration": 4, "velocity": 93}, {"time": 4054, "pitch": 47, "duration": 29, "velocity": 56}, {"time": 4060, "pitch": 52, "duration": 15, "velocity": 89}, {"time": 4066, "pitch": 59, "duration": 5, "velocity": 72}, {"time": 4072, "pitch": 59, "duration": 1, "velocity": 52}, {"time": 4072, "pitch": 64, "duration": 13, "velocity": 97}, {"time": 4072, "pitch": 68, "duration": 13, "velocity": 117}, {"time": 4078, "pitch": 52, "duration": 4, "velocity": 89}, {"time": 4084, "pitch": 59, "duration": 10, "velocity": 90}, {"time": 4096, "pitch": 35, "duration": 1, "velocity": 69}, {"time": 4096, "pitch": 59, "duration": 17, "velocity": 93}, {"time": 4096, "pitch": 63, "duration": 19, "velocity": 117}, {"time": 4096, "pitch": 66, "duration": 18, "velocity": 117}, {"time": 4102, "pitch": 47, "duration": 24, "velocity": 54}, {"time": 4108, "pitch": 51, "duration": 21, "velocity": 93}, {"time": 4114, "pitch": 54, "duration": 8, "velocity": 99}, {"time": 4120, "pitch": 63, "duration": 12, "velocity": 127}, {"time": 4120, "pitch": 66, "duration": 12, "velocity": 102}, {"time": 4126, "pitch": 54, "duration": 3, "velocity": 63}, {"time": 4132, "pitch": 59, "duration": 1, "velocity": 100}, {"time": 4144, "pitch": 37, "duration": 37, "velocity": 96}, {"time": 4144, "pitch": 61, "duration": 3, "velocity": 102}, {"time": 4144, "pitch": 64, "duration": 2, "velocity": 89}, {"time": 4144, "pitch": 68, "duration": 3, "velocity": 100}, {"time": 4147, "pitch": 49, "duration": 10, "velocity": 90}, {"time": 4156, "pitch": 52, "duration": 14, "velocity": 70}, {"time": 4162, "pitch": 49, "duration": 10, "velocity": 90}, {"time": 4168, "pitch": 56, "duration": 12, "velocity": 122}, {"time": 4168, "pitch": 61, "duration": 13, "velocity": 122}, {"time": 4174, "pitch": 49, "duration": 7, "velocity": 77}, {"time": 4180, "pitch": 52, "duration": 1, "velocity": 90}, {"time": 4192, "pitch": 42, "duration": 31, "velocity": 93}, {"time": 4192, "pitch": 54, "duration": 14, "velocity": 97}, {"time": 4192, "pitch": 58, "duration": 16, "velocity": 102}, {"time": 4192, "pitch": 61, "duration": 19, "velocity": 96}, {"time": 4204, "pitch": 49, "duration": 14, "velocity": 72}, {"time": 4210, "pitch": 54, "duration": 5, "velocity": 59}, {"time": 4216, "pitch": 58, "duration": 11, "velocity": 127}, {"time": 4216, "pitch": 61, "duration": 12, "velocity": 117}, {"time": 4222, "pitch": 49, "duration": 1, "velocity": 96}, {"time": 4228, "pitch": 54, "duration": 1, "velocity": 112}, {"time": 4240, "pitch": 40, "duration": 21, "velocity": 77}, {"time": 4240, "pitch": 52, "duration": 7, "velocity": 92}, {"time": 4240, "pitch": 56, "duration": 13, "velocity": 99}, {"time": 4240, "pitch": 59, "duration": 14, "velocity": 93}, {"time": 4246, "pitch": 47, "duration": 15, "velocity": 76}, {"time": 4252, "pitch": 52, "duration": 8, "velocity": 59}, {"time": 4264, "pitch": 39, "duration": 14, "velocity": 117}, {"time": 4270, "pitch": 51, "duration": 9, "velocity": 92}, {"time": 4276, "pitch": 55, "duration": 3, "velocity": 72}, {"time": 4276, "pitch": 58, "duration": 4, "velocity": 69}, {"time": 4288, "pitch": 44, "duration": 37, "velocity": 107}, {"time": 4294, "pitch": 47, "duration": 29, "velocity": 50}, {"time": 4300, "pitch": 51, "duration": 14, "velocity": 57}, {"time": 4306, "pitch": 56, "duration": 8, "velocity": 66}, {"time": 4312, "pitch": 63, "duration": 14, "velocity": 112}, {"time": 4318, "pitch": 51, "duration": 6, "velocity": 45}, {"time": 4324, "pitch": 59, "duration": 8, "velocity": 53}, {"time": 4330, "pitch": 63, "duration": 6, "velocity": 59}, {"time": 4336, "pitch": 44, "duration": 48, "velocity": 83}, {"time": 4342, "pitch": 56, "duration": 48, "velocity": 55}, {"time": 4348, "pitch": 70, "duration": 6, "velocity": 82}, {"time": 4354, "pitch": 71, "duration": 6, "velocity": 72}, {"time": 4366, "pitch": 63, "duration": 6, "velocity": 42}, {"time": 4372, "pitch": 70, "duration": 7, "velocity": 62}, {"time": 4378, "pitch": 71, "duration": 100, "velocity": 71}, {"time": 4387, "pitch": 44, "duration": 89, "velocity": 95}], "annotations": [{"time": 10, "annotation": {"number": 64, "value": 127}, "group": "control_change"}, {"time": 26, "annotation": {"number": 64, "value": 0}, "group": "control_change"}, {"time": 35, "annotation": {"number": 64, "value": 127}, "group": "control_change"}, {"time": 45, "annotation": {"number": 64, "value": 0}, "group": "control_change"}, {"time": 50, "annotation": {"number": 64, "value": 127}, "group": "control_change"}, {"time": 55, "annotation": {"number": 64, "value": 0}, "group": "control_change"}, {"time": 64, "annotation": {"number": 64, "value": 127}, "group": "control_change"}, {"time": 74, "annotation": {"number": 64, "value": 0}, "group": "control_change"}, {"time": 83, "annotation": {"number": 64, "value": 127}, "group": "control_change"}, {"time": 93, "annotation": {"number": 64, "value": 0}, "group": "control_change"}, {"time": 98, "annotation": {"number": 64, "value": 127}, "group": "control_change"}, {"time": 103, "annotation": {"number": 64, "value": 0}, "group": "control_change"}, {"time": 110, "annotation": {"number": 64, "value": 127}, "group": "control_change"}, {"time": 120, "annotation": {"number": 64, "value": 0}, "group": "control_change"}, {"time": 131, "annotation": {"number": 64, "value": 127}, "group": "control_change"}, {"time": 141, "annotation": {"number": 64, "value": 0}, "group": "control_change"}, {"time": 146, "annotation": {"number": 64, "value": 127}, "group": "control_change"}, {"time": 151, "annotation": {"number": 64, "value": 0}, "group": "control_change"}, {"time": 154, "annotation": {"number": 64, "value": 127}, "group": "control_change"}, {"time": 173, "annotation": {"number": 64, "value": 0}, "group": "control_change"}, {"time": 179, "annotation": {"number": 64, "value": 127}, "group": "control_change"}, {"time": 189, "annotation": {"number": 64, "value": 0}, "group": "control_change"}, {"time": 194, "annotation": {"number": 64, "value": 127}, "group": "control_change"}, {"time": 199, "annotation": {"number": 64, "value": 0}, "group": "control_change"}, {"time": 212, "annotation": {"number": 64, "value": 127}, "group": "control_change"}, {"time": 253, "annotation": {"number": 64, "value": 0}, "group": "control_change"}, {"time": 254, "annotation": {"number": 64, "value": 127}, "group": "control_change"}, {"time": 398, "annotation": {"number": 64, "value": 0}, "group": "control_change"}, {"time": 401, "annotation": {"number": 64, "value": 127}, "group": "control_change"}, {"time": 446, "annotation": {"number": 64, "value": 0}, "group": "control_change"}, {"time": 448, "annotation": {"number": 64, "value": 127}, "group": "control_change"}, {"time": 494, "annotation": {"number": 64, "value": 127}, "group": "control_change"}, {"time": 782, "annotation": {"number": 64, "value": 0}, "group": "control_change"}, {"time": 783, "annotation": {"number": 64, "value": 127}, "group": "control_change"}, {"time": 829, "annotation": {"number": 64, "value": 0}, "group": "control_change"}, {"time": 831, "annotation": {"number": 64, "value": 127}, "group": "control_change"}, {"time": 876, "annotation": {"number": 64, "value": 0}, "group": "control_change"}, {"time": 879, "annotation": {"number": 64, "value": 127}, "group": "control_change"}, {"time": 972, "annotation": {"number": 64, "value": 0}, "group": "control_change"}, {"time": 974, "annotation": {"number": 64, "value": 127}, "group": "control_change"}, {"time": 1021, "annotation": {"number": 64, "value": 0}, "group": "control_change"}, {"time": 1023, "annotation": {"number": 64, "value": 127}, "group": "control_change"}, {"time": 1068, "annotation": {"number": 64, "value": 0}, "group": "control_change"}, {"time": 1070, "annotation": {"number": 64, "value": 127}, "group": "control_change"}, {"time": 1117, "annotation": {"number": 64, "value": 0}, "group": "control_change"}, {"time": 1119, "annotation": {"number": 64, "value": 127}, "group": "control_change"}, {"time": 1164, "annotation": {"number": 64, "value": 0}, "group": "control_change"}, {"time": 1167, "annotation": {"number": 64, "value": 127}, "group": "control_change"}, {"time": 1213, "annotation": {"number": 64, "value": 0}, "group": "control_change"}, {"time": 1216, "annotation": {"number": 64, "value": 127}, "group": "control_change"}, {"time": 1261, "annotation": {"number": 64, "value": 0}, "group": "control_change"}, {"time": 1264, "annotation": {"number": 64, "value": 127}, "group": "control_change"}, {"time": 1310, "annotation": {"number": 64, "value": 0}, "group": "control_change"}, {"time": 1312, "annotation": {"number": 64, "value": 127}, "group": "control_change"}, {"time": 1357, "annotation": {"number": 64, "value": 0}, "group": "control_change"}, {"time": 1359, "annotation": {"number": 64, "value": 127}, "group": "control_change"}, {"time": 1405, "annotation": {"number": 64, "value": 0}, "group": "control_change"}, {"time": 1408, "annotation": {"number": 64, "value": 127}, "group": "control_change"}, {"time": 1500, "annotation": {"number": 64, "value": 0}, "group": "control_change"}, {"time": 1502, "annotation": {"number": 64, "value": 127}, "group": "control_change"}, {"time": 1549, "annotation": {"number": 64, "value": 0}, "group": "control_change"}, {"time": 1551, "annotation": {"number": 64, "value": 127}, "group": "control_change"}, {"time": 1596, "annotation": {"number": 64, "value": 0}, "group": "control_change"}, {"time": 1599, "annotation": {"number": 64, "value": 127}, "group": "control_change"}, {"time": 1645, "annotation": {"number": 64, "value": 0}, "group": "control_change"}, {"time": 1648, "annotation": {"number": 64, "value": 127}, "group": "control_change"}, {"time": 1693, "annotation": {"number": 64, "value": 0}, "group": "control_change"}, {"time": 1695, "annotation": {"number": 64, "value": 127}, "group": "control_change"}, {"time": 1741, "annotation": {"number": 64, "value": 0}, "group": "control_change"}, {"time": 1743, "annotation": {"number": 64, "value": 127}, "group": "control_change"}, {"time": 1788, "annotation": {"number": 64, "value": 0}, "group": "control_change"}, {"time": 1790, "annotation": {"number": 64, "value": 127}, "group": "control_change"}, {"time": 1835, "annotation": {"number": 64, "value": 0}, "group": "control_change"}, {"time": 1837, "annotation": {"number": 64, "value": 127}, "group": "control_change"}, {"time": 1885, "annotation": {"number": 64, "value": 0}, "group": "control_change"}, {"time": 1887, "annotation": {"number": 64, "value": 127}, "group": "control_change"}, {"time": 1932, "annotation": {"number": 64, "value": 0}, "group": "control_change"}, {"time": 1935, "annotation": {"number": 64, "value": 127}, "group": "control_change"}, {"time": 1958, "annotation": {"number": 64, "value": 0}, "group": "control_change"}, {"time": 1965, "annotation": {"number": 64, "value": 127}, "group": "control_change"}, {"time": 1981, "annotation": {"number": 64, "value": 0}, "group": "control_change"}, {"time": 1983, "annotation": {"number": 64, "value": 127}, "group": "control_change"}, {"time": 2029, "annotation": {"number": 64, "value": 0}, "group": "control_change"}, {"time": 2031, "annotation": {"number": 64, "value": 127}, "group": "control_change"}, {"time": 2077, "annotation": {"number": 64, "value": 0}, "group": "control_change"}, {"time": 2079, "annotation": {"number": 64, "value": 127}, "group": "control_change"}, {"time": 2124, "annotation": {"number": 64, "value": 0}, "group": "control_change"}, {"time": 2126, "annotation": {"number": 64, "value": 127}, "group": "control_change"}, {"time": 2174, "annotation": {"number": 64, "value": 0}, "group": "control_change"}, {"time": 2176, "annotation": {"number": 64, "value": 127}, "group": "control_change"}, {"time": 2220, "annotation": {"number": 64, "value": 0}, "group": "control_change"}, {"time": 2222, "annotation": {"number": 64, "value": 127}, "group": "control_change"}, {"time": 2268, "annotation": {"number": 64, "value": 0}, "group": "control_change"}, {"time": 2271, "annotation": {"number": 64, "value": 127}, "group": "control_change"}, {"time": 2318, "annotation": {"number": 64, "value": 0}, "group": "control_change"}, {"time": 2321, "annotation": {"number": 64, "value": 127}, "group": "control_change"}, {"time": 2367, "annotation": {"number": 64, "value": 0}, "group": "control_change"}, {"time": 2654, "annotation": {"number": 64, "value": 0}, "group": "control_change"}, {"time": 2655, "annotation": {"number": 64, "value": 127}, "group": "control_change"}, {"time": 2701, "annotation": {"number": 64, "value": 0}, "group": "control_change"}, {"time": 2703, "annotation": {"number": 64, "value": 127}, "group": "control_change"}, {"time": 2748, "annotation": {"number": 64, "value": 0}, "group": "control_change"}, {"time": 2751, "annotation": {"number": 64, "value": 127}, "group": "control_change"}, {"time": 2844, "annotation": {"number": 64, "value": 0}, "group": "control_change"}, {"time": 2846, "annotation": {"number": 64, "value": 127}, "group": "control_change"}, {"time": 2893, "annotation": {"number": 64, "value": 0}, "group": "control_change"}, {"time": 2895, "annotation": {"number": 64, "value": 127}, "group": "control_change"}, {"time": 2940, "annotation": {"number": 64, "value": 0}, "group": "control_change"}, {"time": 2942, "annotation": {"number": 64, "value": 127}, "group": "control_change"}, {"time": 2989, "annotation": {"number": 64, "value": 0}, "group": "control_change"}, {"time": 2991, "annotation": {"number": 64, "value": 127}, "group": "control_change"}, {"time": 3036, "annotation": {"number": 64, "value": 0}, "group": "control_change"}, {"time": 3039, "annotation": {"number": 64, "value": 127}, "group": "control_change"}, {"time": 3085, "annotation": {"number": 64, "value": 0}, "group": "control_change"}, {"time": 3088, "annotation": {"number": 64, "value": 127}, "group": "control_change"}, {"time": 3133, "annotation": {"number": 64, "value": 0}, "group": "control_change"}, {"time": 3136, "annotation": {"number": 64, "value": 127}, "group": "control_change"}, {"time": 3182, "annotation": {"number": 64, "value": 0}, "group": "control_change"}, {"time": 3184, "annotation": {"number": 64, "value": 127}, "group": "control_change"}, {"time": 3229, "annotation": {"number": 64, "value": 0}, "group": "control_change"}, {"time": 3231, "annotation": {"number": 64, "value": 127}, "group": "control_change"}, {"time": 3277, "annotation": {"number": 64, "value": 0}, "group": "control_change"}, {"time": 3280, "annotation": {"number": 64, "value": 127}, "group": "control_change"}, {"time": 3372, "annotation": {"number": 64, "value": 0}, "group": "control_change"}, {"time": 3374, "annotation": {"number": 64, "value": 127}, "group": "control_change"}, {"time": 3421, "annotation": {"number": 64, "value": 0}, "group": "control_change"}, {"time": 3423, "annotation": {"number": 64, "value": 127}, "group": "control_change"}, {"time": 3468, "annotation": {"number": 64, "value": 0}, "group": "control_change"}, {"time": 3471, "annotation": {"number": 64, "value": 127}, "group": "control_change"}, {"time": 3517, "annotation": {"number": 64, "value": 0}, "group": "control_change"}, {"time": 3520, "annotation": {"number": 64, "value": 127}, "group": "control_change"}, {"time": 3565, "annotation": {"number": 64, "value": 0}, "group": "control_change"}, {"time": 3567, "annotation": {"number": 64, "value": 127}, "group": "control_change"}, {"time": 3613, "annotation": {"number": 64, "value": 0}, "group": "control_change"}, {"time": 3615, "annotation": {"number": 64, "value": 127}, "group": "control_change"}, {"time": 3660, "annotation": {"number": 64, "value": 0}, "group": "control_change"}, {"time": 3662, "annotation": {"number": 64, "value": 127}, "group": "control_change"}, {"time": 3707, "annotation": {"number": 64, "value": 0}, "group": "control_change"}, {"time": 3709, "annotation": {"number": 64, "value": 127}, "group": "control_change"}, {"time": 3757, "annotation": {"number": 64, "value": 0}, "group": "control_change"}, {"time": 3759, "annotation": {"number": 64, "value": 127}, "group": "control_change"}, {"time": 3804, "annotation": {"number": 64, "value": 0}, "group": "control_change"}, {"time": 3807, "annotation": {"number": 64, "value": 127}, "group": "control_change"}, {"time": 3830, "annotation": {"number": 64, "value": 0}, "group": "control_change"}, {"time": 3837, "annotation": {"number": 64, "value": 127}, "group": "control_change"}, {"time": 3853, "annotation": {"number": 64, "value": 0}, "group": "control_change"}, {"time": 3855, "annotation": {"number": 64, "value": 127}, "group": "control_change"}, {"time": 3901, "annotation": {"number": 64, "value": 0}, "group": "control_change"}, {"time": 3903, "annotation": {"number": 64, "value": 127}, "group": "control_change"}, {"time": 3916, "annotation": {"number": 64, "value": 127}, "group": "control_change"}, {"time": 3949, "annotation": {"number": 64, "value": 0}, "group": "control_change"}, {"time": 3997, "annotation": {"number": 64, "value": 0}, "group": "control_change"}, {"time": 3999, "annotation": {"number": 64, "value": 127}, "group": "control_change"}, {"time": 4045, "annotation": {"number": 64, "value": 0}, "group": "control_change"}, {"time": 4047, "annotation": {"number": 64, "value": 127}, "group": "control_change"}, {"time": 4092, "annotation": {"number": 64, "value": 0}, "group": "control_change"}, {"time": 4094, "annotation": {"number": 64, "value": 127}, "group": "control_change"}, {"time": 4139, "annotation": {"number": 64, "value": 0}, "group": "control_change"}, {"time": 4141, "annotation": {"number": 64, "value": 127}, "group": "control_change"}, {"time": 4189, "annotation": {"number": 64, "value": 0}, "group": "control_change"}, {"time": 4191, "annotation": {"number": 64, "value": 127}, "group": "control_change"}, {"time": 4236, "annotation": {"number": 64, "value": 0}, "group": "control_change"}, {"time": 4239, "annotation": {"number": 64, "value": 127}, "group": "control_change"}, {"time": 4262, "annotation": {"number": 64, "value": 0}, "group": "control_change"}, {"time": 4269, "annotation": {"number": 64, "value": 127}, "group": "control_change"}, {"time": 4285, "annotation": {"number": 64, "value": 0}, "group": "control_change"}, {"time": 4287, "annotation": {"number": 64, "value": 127}, "group": "control_change"}, {"time": 4292, "annotation": {"number": 64, "value": 0}, "group": "control_change"}, {"time": 4333, "annotation": {"number": 64, "value": 0}, "group": "control_change"}, {"time": 4335, "annotation": {"number": 64, "value": 127}, "group": "control_change"}, {"time": 4336, "annotation": {"number": 64, "value": 127}, "group": "control_change"}, {"time": 4466, "annotation": {"number": 64, "value": 0}, "group": "control_change"}, {"time": 4471, "annotation": {"number": 64, "value": 127}, "group": "control_change"}, {"time": 4492, "annotation": {"number": 64, "value": 0}, "group": "control_change"}]}]}