{"metadata": {"schema_version": "0.2", "title": "None", "source_filename": "062.mid", "source_format": "midi"}, "resolution": 12, "tempos": [{"time": 0, "qpm": 148.000148000148}], "key_signatures": [{"time": 0, "root": 0, "mode": "major"}], "time_signatures": [{"time": 0, "numerator": 4, "denominator": 4}, {"time": 0, "numerator": 1, "denominator": 4}], "tracks": [{"program": 4, "is_drum": false, "name": "MELODY", "notes": [{"time": 615, "pitch": 72, "duration": 24, "velocity": 83}, {"time": 639, "pitch": 79, "duration": 12, "velocity": 83}, {"time": 651, "pitch": 79, "duration": 24, "velocity": 83}, {"time": 675, "pitch": 75, "duration": 12, "velocity": 83}, {"time": 687, "pitch": 77, "duration": 24, "velocity": 83}, {"time": 711, "pitch": 82, "duration": 12, "velocity": 82}, {"time": 723, "pitch": 79, "duration": 24, "velocity": 82}, {"time": 747, "pitch": 72, "duration": 6, "velocity": 81}, {"time": 753, "pitch": 74, "duration": 6, "velocity": 81}, {"time": 759, "pitch": 75, "duration": 12, "velocity": 81}, {"time": 771, "pitch": 72, "duration": 12, "velocity": 81}, {"time": 783, "pitch": 75, "duration": 12, "velocity": 81}, {"time": 795, "pitch": 77, "duration": 24, "velocity": 81}, {"time": 819, "pitch": 70, "duration": 12, "velocity": 81}, {"time": 831, "pitch": 77, "duration": 24, "velocity": 81}, {"time": 855, "pitch": 79, "duration": 12, "velocity": 81}, {"time": 867, "pitch": 79, "duration": 36, "velocity": 81}, {"time": 903, "pitch": 72, "duration": 24, "velocity": 81}, {"time": 927, "pitch": 79, "duration": 12, "velocity": 80}, {"time": 939, "pitch": 79, "duration": 24, "velocity": 80}, {"time": 963, "pitch": 84, "duration": 12, "velocity": 80}, {"time": 975, "pitch": 82, "duration": 24, "velocity": 80}, {"time": 999, "pitch": 84, "duration": 12, "velocity": 80}, {"time": 1011, "pitch": 77, "duration": 24, "velocity": 80}, {"time": 1035, "pitch": 72, "duration": 6, "velocity": 80}, {"time": 1041, "pitch": 74, "duration": 6, "velocity": 80}, {"time": 1047, "pitch": 75, "duration": 12, "velocity": 80}, {"time": 1059, "pitch": 74, "duration": 12, "velocity": 80}, {"time": 1071, "pitch": 75, "duration": 12, "velocity": 80}, {"time": 1083, "pitch": 77, "duration": 24, "velocity": 80}, {"time": 1107, "pitch": 70, "duration": 12, "velocity": 80}, {"time": 1119, "pitch": 72, "duration": 72, "velocity": 80}, {"time": 1191, "pitch": 72, "duration": 24, "velocity": 80}, {"time": 1215, "pitch": 79, "duration": 12, "velocity": 80}, {"time": 1227, "pitch": 79, "duration": 24, "velocity": 80}, {"time": 1251, "pitch": 75, "duration": 12, "velocity": 80}, {"time": 1263, "pitch": 77, "duration": 24, "velocity": 80}, {"time": 1287, "pitch": 82, "duration": 12, "velocity": 80}, {"time": 1299, "pitch": 79, "duration": 24, "velocity": 80}, {"time": 1323, "pitch": 72, "duration": 6, "velocity": 80}, {"time": 1329, "pitch": 74, "duration": 6, "velocity": 80}, {"time": 1335, "pitch": 75, "duration": 14, "velocity": 80}, {"time": 1347, "pitch": 72, "duration": 12, "velocity": 80}, {"time": 1359, "pitch": 75, "duration": 12, "velocity": 80}, {"time": 1371, "pitch": 77, "duration": 24, "velocity": 80}, {"time": 1395, "pitch": 70, "duration": 12, "velocity": 80}, {"time": 1407, "pitch": 77, "duration": 24, "velocity": 80}, {"time": 1431, "pitch": 79, "duration": 12, "velocity": 80}, {"time": 1443, "pitch": 79, "duration": 36, "velocity": 80}, {"time": 1479, "pitch": 72, "duration": 24, "velocity": 80}, {"time": 1503, "pitch": 79, "duration": 12, "velocity": 80}, {"time": 1515, "pitch": 79, "duration": 24, "velocity": 80}, {"time": 1539, "pitch": 84, "duration": 12, "velocity": 80}, {"time": 1551, "pitch": 82, "duration": 24, "velocity": 80}, {"time": 1575, "pitch": 84, "duration": 12, "velocity": 80}, {"time": 1587, "pitch": 77, "duration": 24, "velocity": 80}, {"time": 1611, "pitch": 72, "duration": 6, "velocity": 80}, {"time": 1617, "pitch": 74, "duration": 6, "velocity": 80}, {"time": 1623, "pitch": 75, "duration": 13, "velocity": 80}, {"time": 1635, "pitch": 74, "duration": 12, "velocity": 80}, {"time": 1647, "pitch": 75, "duration": 12, "velocity": 80}, {"time": 1659, "pitch": 79, "duration": 12, "velocity": 80}, {"time": 1671, "pitch": 77, "duration": 12, "velocity": 80}, {"time": 1683, "pitch": 70, "duration": 12, "velocity": 80}, {"time": 1695, "pitch": 72, "duration": 72, "velocity": 80}, {"time": 1767, "pitch": 75, "duration": 13, "velocity": 80}, {"time": 1779, "pitch": 72, "duration": 13, "velocity": 80}, {"time": 1791, "pitch": 75, "duration": 12, "velocity": 80}, {"time": 1803, "pitch": 77, "duration": 12, "velocity": 80}, {"time": 1815, "pitch": 70, "duration": 12, "velocity": 79}, {"time": 1827, "pitch": 77, "duration": 12, "velocity": 79}, {"time": 1839, "pitch": 82, "duration": 12, "velocity": 79}, {"time": 1851, "pitch": 79, "duration": 12, "velocity": 79}, {"time": 1863, "pitch": 77, "duration": 12, "velocity": 79}, {"time": 1875, "pitch": 79, "duration": 36, "velocity": 79}, {"time": 1911, "pitch": 75, "duration": 12, "velocity": 79}, {"time": 1923, "pitch": 72, "duration": 12, "velocity": 79}, {"time": 1935, "pitch": 75, "duration": 12, "velocity": 79}, {"time": 1947, "pitch": 77, "duration": 12, "velocity": 79}, {"time": 1959, "pitch": 70, "duration": 12, "velocity": 79}, {"time": 1971, "pitch": 82, "duration": 12, "velocity": 79}, {"time": 1983, "pitch": 79, "duration": 72, "velocity": 79}, {"time": 2055, "pitch": 75, "duration": 12, "velocity": 79}, {"time": 2067, "pitch": 72, "duration": 13, "velocity": 79}, {"time": 2079, "pitch": 75, "duration": 12, "velocity": 79}, {"time": 2091, "pitch": 77, "duration": 13, "velocity": 79}, {"time": 2103, "pitch": 70, "duration": 13, "velocity": 79}, {"time": 2115, "pitch": 75, "duration": 12, "velocity": 79}, {"time": 2127, "pitch": 82, "duration": 12, "velocity": 79}, {"time": 2139, "pitch": 79, "duration": 12, "velocity": 79}, {"time": 2151, "pitch": 77, "duration": 12, "velocity": 80}, {"time": 2163, "pitch": 84, "duration": 12, "velocity": 80}, {"time": 2175, "pitch": 82, "duration": 12, "velocity": 80}, {"time": 2187, "pitch": 77, "duration": 12, "velocity": 80}, {"time": 2199, "pitch": 79, "duration": 24, "velocity": 81}, {"time": 2223, "pitch": 75, "duration": 6, "velocity": 81}, {"time": 2229, "pitch": 77, "duration": 6, "velocity": 81}, {"time": 2235, "pitch": 79, "duration": 18, "velocity": 81}, {"time": 2253, "pitch": 75, "duration": 6, "velocity": 81}, {"time": 2259, "pitch": 77, "duration": 6, "velocity": 81}, {"time": 2265, "pitch": 82, "duration": 6, "velocity": 81}, {"time": 2271, "pitch": 79, "duration": 48, "velocity": 81}, {"time": 2319, "pitch": 75, "duration": 12, "velocity": 82}, {"time": 2331, "pitch": 77, "duration": 12, "velocity": 82}, {"time": 2343, "pitch": 79, "duration": 12, "velocity": 82}, {"time": 2355, "pitch": 77, "duration": 13, "velocity": 82}, {"time": 2367, "pitch": 82, "duration": 12, "velocity": 82}, {"time": 2379, "pitch": 79, "duration": 24, "velocity": 82}, {"time": 2403, "pitch": 77, "duration": 12, "velocity": 82}, {"time": 2415, "pitch": 79, "duration": 12, "velocity": 82}, {"time": 2427, "pitch": 77, "duration": 12, "velocity": 82}, {"time": 2439, "pitch": 84, "duration": 12, "velocity": 82}, {"time": 2451, "pitch": 79, "duration": 24, "velocity": 82}, {"time": 2475, "pitch": 77, "duration": 12, "velocity": 82}, {"time": 2487, "pitch": 79, "duration": 12, "velocity": 82}, {"time": 2499, "pitch": 77, "duration": 12, "velocity": 82}, {"time": 2511, "pitch": 87, "duration": 12, "velocity": 82}, {"time": 2523, "pitch": 86, "duration": 18, "velocity": 83}, {"time": 2541, "pitch": 82, "duration": 12, "velocity": 83}, {"time": 2553, "pitch": 77, "duration": 6, "velocity": 83}, {"time": 2559, "pitch": 79, "duration": 48, "velocity": 83}, {"time": 2607, "pitch": 75, "duration": 12, "velocity": 83}, {"time": 2619, "pitch": 77, "duration": 12, "velocity": 83}, {"time": 2631, "pitch": 79, "duration": 12, "velocity": 83}, {"time": 2643, "pitch": 77, "duration": 12, "velocity": 83}, {"time": 2655, "pitch": 82, "duration": 12, "velocity": 83}, {"time": 2667, "pitch": 79, "duration": 24, "velocity": 83}, {"time": 2691, "pitch": 77, "duration": 12, "velocity": 83}, {"time": 2703, "pitch": 79, "duration": 12, "velocity": 83}, {"time": 2715, "pitch": 77, "duration": 12, "velocity": 83}, {"time": 2727, "pitch": 84, "duration": 12, "velocity": 83}, {"time": 2739, "pitch": 79, "duration": 36, "velocity": 83}, {"time": 2775, "pitch": 79, "duration": 12, "velocity": 83}, {"time": 2787, "pitch": 77, "duration": 12, "velocity": 83}, {"time": 2799, "pitch": 87, "duration": 12, "velocity": 83}, {"time": 2811, "pitch": 86, "duration": 18, "velocity": 83}, {"time": 2829, "pitch": 87, "duration": 6, "velocity": 83}, {"time": 2835, "pitch": 86, "duration": 6, "velocity": 83}, {"time": 2841, "pitch": 82, "duration": 6, "velocity": 83}, {"time": 2847, "pitch": 84, "duration": 69, "velocity": 83}, {"time": 3495, "pitch": 72, "duration": 24, "velocity": 84}, {"time": 3519, "pitch": 79, "duration": 12, "velocity": 84}, {"time": 3531, "pitch": 79, "duration": 24, "velocity": 84}, {"time": 3555, "pitch": 75, "duration": 12, "velocity": 84}, {"time": 3567, "pitch": 77, "duration": 24, "velocity": 84}, {"time": 3591, "pitch": 82, "duration": 12, "velocity": 85}, {"time": 3603, "pitch": 79, "duration": 24, "velocity": 85}, {"time": 3627, "pitch": 72, "duration": 6, "velocity": 85}, {"time": 3633, "pitch": 74, "duration": 6, "velocity": 86}, {"time": 3639, "pitch": 75, "duration": 12, "velocity": 86}, {"time": 3651, "pitch": 72, "duration": 12, "velocity": 86}, {"time": 3663, "pitch": 75, "duration": 12, "velocity": 87}, {"time": 3675, "pitch": 77, "duration": 24, "velocity": 87}, {"time": 3699, "pitch": 70, "duration": 12, "velocity": 87}, {"time": 3711, "pitch": 77, "duration": 24, "velocity": 87}, {"time": 3735, "pitch": 79, "duration": 12, "velocity": 87}, {"time": 3747, "pitch": 79, "duration": 36, "velocity": 87}, {"time": 3783, "pitch": 72, "duration": 24, "velocity": 87}, {"time": 3807, "pitch": 79, "duration": 12, "velocity": 87}, {"time": 3819, "pitch": 79, "duration": 24, "velocity": 87}, {"time": 3843, "pitch": 84, "duration": 12, "velocity": 87}, {"time": 3855, "pitch": 82, "duration": 24, "velocity": 87}, {"time": 3879, "pitch": 84, "duration": 12, "velocity": 87}, {"time": 3891, "pitch": 77, "duration": 24, "velocity": 87}, {"time": 3915, "pitch": 72, "duration": 6, "velocity": 87}, {"time": 3921, "pitch": 74, "duration": 6, "velocity": 87}, {"time": 3927, "pitch": 75, "duration": 12, "velocity": 87}, {"time": 3939, "pitch": 74, "duration": 12, "velocity": 87}, {"time": 3951, "pitch": 75, "duration": 12, "velocity": 87}, {"time": 3963, "pitch": 77, "duration": 24, "velocity": 87}, {"time": 3987, "pitch": 70, "duration": 12, "velocity": 87}, {"time": 3999, "pitch": 72, "duration": 72, "velocity": 87}, {"time": 4071, "pitch": 72, "duration": 24, "velocity": 86}, {"time": 4095, "pitch": 79, "duration": 12, "velocity": 86}, {"time": 4107, "pitch": 79, "duration": 24, "velocity": 86}, {"time": 4131, "pitch": 75, "duration": 12, "velocity": 86}, {"time": 4143, "pitch": 77, "duration": 24, "velocity": 86}, {"time": 4167, "pitch": 82, "duration": 12, "velocity": 86}, {"time": 4179, "pitch": 79, "duration": 24, "velocity": 86}, {"time": 4203, "pitch": 72, "duration": 6, "velocity": 86}, {"time": 4209, "pitch": 74, "duration": 6, "velocity": 86}, {"time": 4215, "pitch": 75, "duration": 14, "velocity": 86}, {"time": 4227, "pitch": 72, "duration": 12, "velocity": 86}, {"time": 4239, "pitch": 75, "duration": 12, "velocity": 86}, {"time": 4251, "pitch": 77, "duration": 24, "velocity": 86}, {"time": 4275, "pitch": 70, "duration": 12, "velocity": 86}, {"time": 4287, "pitch": 77, "duration": 24, "velocity": 86}, {"time": 4311, "pitch": 79, "duration": 12, "velocity": 86}, {"time": 4323, "pitch": 79, "duration": 36, "velocity": 86}, {"time": 4359, "pitch": 72, "duration": 24, "velocity": 86}, {"time": 4383, "pitch": 79, "duration": 12, "velocity": 86}, {"time": 4395, "pitch": 79, "duration": 24, "velocity": 86}, {"time": 4419, "pitch": 84, "duration": 12, "velocity": 86}, {"time": 4431, "pitch": 82, "duration": 24, "velocity": 86}, {"time": 4455, "pitch": 84, "duration": 12, "velocity": 86}, {"time": 4467, "pitch": 77, "duration": 24, "velocity": 86}, {"time": 4491, "pitch": 72, "duration": 6, "velocity": 86}, {"time": 4497, "pitch": 74, "duration": 6, "velocity": 86}, {"time": 4503, "pitch": 75, "duration": 13, "velocity": 86}, {"time": 4515, "pitch": 74, "duration": 12, "velocity": 86}, {"time": 4527, "pitch": 75, "duration": 12, "velocity": 86}, {"time": 4539, "pitch": 79, "duration": 12, "velocity": 86}, {"time": 4551, "pitch": 77, "duration": 12, "velocity": 86}, {"time": 4563, "pitch": 70, "duration": 12, "velocity": 86}, {"time": 4575, "pitch": 72, "duration": 72, "velocity": 86}, {"time": 4647, "pitch": 75, "duration": 13, "velocity": 85}, {"time": 4659, "pitch": 72, "duration": 13, "velocity": 85}, {"time": 4671, "pitch": 75, "duration": 12, "velocity": 85}, {"time": 4683, "pitch": 77, "duration": 12, "velocity": 85}, {"time": 4695, "pitch": 70, "duration": 12, "velocity": 85}, {"time": 4707, "pitch": 77, "duration": 12, "velocity": 85}, {"time": 4719, "pitch": 82, "duration": 12, "velocity": 85}, {"time": 4731, "pitch": 79, "duration": 12, "velocity": 85}, {"time": 4743, "pitch": 77, "duration": 12, "velocity": 85}, {"time": 4755, "pitch": 79, "duration": 36, "velocity": 85}, {"time": 4791, "pitch": 75, "duration": 12, "velocity": 85}, {"time": 4803, "pitch": 72, "duration": 12, "velocity": 85}, {"time": 4815, "pitch": 75, "duration": 12, "velocity": 85}, {"time": 4827, "pitch": 77, "duration": 12, "velocity": 85}, {"time": 4839, "pitch": 70, "duration": 12, "velocity": 85}, {"time": 4851, "pitch": 82, "duration": 12, "velocity": 85}, {"time": 4863, "pitch": 79, "duration": 72, "velocity": 85}, {"time": 4935, "pitch": 75, "duration": 12, "velocity": 85}, {"time": 4947, "pitch": 72, "duration": 13, "velocity": 85}, {"time": 4959, "pitch": 75, "duration": 12, "velocity": 85}, {"time": 4971, "pitch": 77, "duration": 13, "velocity": 85}, {"time": 4983, "pitch": 70, "duration": 13, "velocity": 85}, {"time": 4995, "pitch": 75, "duration": 12, "velocity": 85}, {"time": 5007, "pitch": 82, "duration": 12, "velocity": 85}, {"time": 5019, "pitch": 79, "duration": 12, "velocity": 85}, {"time": 5031, "pitch": 77, "duration": 12, "velocity": 85}, {"time": 5043, "pitch": 84, "duration": 12, "velocity": 85}, {"time": 5055, "pitch": 82, "duration": 12, "velocity": 85}, {"time": 5067, "pitch": 77, "duration": 12, "velocity": 85}, {"time": 5079, "pitch": 79, "duration": 24, "velocity": 85}, {"time": 5103, "pitch": 75, "duration": 6, "velocity": 85}, {"time": 5109, "pitch": 77, "duration": 6, "velocity": 85}, {"time": 5115, "pitch": 79, "duration": 18, "velocity": 85}, {"time": 5133, "pitch": 75, "duration": 6, "velocity": 85}, {"time": 5139, "pitch": 77, "duration": 6, "velocity": 85}, {"time": 5145, "pitch": 82, "duration": 6, "velocity": 85}, {"time": 5151, "pitch": 79, "duration": 48, "velocity": 85}, {"time": 5199, "pitch": 75, "duration": 12, "velocity": 85}, {"time": 5211, "pitch": 77, "duration": 12, "velocity": 85}, {"time": 5223, "pitch": 79, "duration": 12, "velocity": 85}, {"time": 5235, "pitch": 77, "duration": 13, "velocity": 85}, {"time": 5247, "pitch": 82, "duration": 12, "velocity": 86}, {"time": 5259, "pitch": 79, "duration": 24, "velocity": 86}, {"time": 5283, "pitch": 77, "duration": 12, "velocity": 86}, {"time": 5295, "pitch": 79, "duration": 12, "velocity": 86}, {"time": 5307, "pitch": 77, "duration": 12, "velocity": 86}, {"time": 5319, "pitch": 84, "duration": 12, "velocity": 86}, {"time": 5331, "pitch": 79, "duration": 24, "velocity": 86}, {"time": 5355, "pitch": 77, "duration": 12, "velocity": 86}, {"time": 5367, "pitch": 79, "duration": 12, "velocity": 87}, {"time": 5379, "pitch": 77, "duration": 12, "velocity": 87}, {"time": 5391, "pitch": 87, "duration": 12, "velocity": 87}, {"time": 5403, "pitch": 86, "duration": 18, "velocity": 87}, {"time": 5421, "pitch": 82, "duration": 12, "velocity": 87}, {"time": 5433, "pitch": 77, "duration": 6, "velocity": 87}, {"time": 5439, "pitch": 79, "duration": 48, "velocity": 87}, {"time": 5487, "pitch": 75, "duration": 12, "velocity": 87}, {"time": 5499, "pitch": 77, "duration": 12, "velocity": 87}, {"time": 5511, "pitch": 79, "duration": 12, "velocity": 87}, {"time": 5523, "pitch": 77, "duration": 12, "velocity": 87}, {"time": 5535, "pitch": 82, "duration": 12, "velocity": 87}, {"time": 5547, "pitch": 79, "duration": 24, "velocity": 87}, {"time": 5571, "pitch": 77, "duration": 12, "velocity": 87}, {"time": 5583, "pitch": 79, "duration": 12, "velocity": 87}, {"time": 5595, "pitch": 77, "duration": 12, "velocity": 87}, {"time": 5607, "pitch": 84, "duration": 12, "velocity": 87}, {"time": 5619, "pitch": 79, "duration": 36, "velocity": 87}, {"time": 5655, "pitch": 79, "duration": 12, "velocity": 88}, {"time": 5667, "pitch": 77, "duration": 12, "velocity": 88}, {"time": 5679, "pitch": 87, "duration": 12, "velocity": 88}, {"time": 5691, "pitch": 86, "duration": 18, "velocity": 88}, {"time": 5709, "pitch": 87, "duration": 6, "velocity": 89}, {"time": 5715, "pitch": 86, "duration": 6, "velocity": 89}, {"time": 5721, "pitch": 82, "duration": 6, "velocity": 89}, {"time": 5727, "pitch": 84, "duration": 48, "velocity": 89}, {"time": 6351, "pitch": 75, "duration": 12, "velocity": 89}, {"time": 6363, "pitch": 77, "duration": 12, "velocity": 89}, {"time": 6375, "pitch": 79, "duration": 12, "velocity": 89}, {"time": 6387, "pitch": 77, "duration": 13, "velocity": 89}, {"time": 6399, "pitch": 82, "duration": 12, "velocity": 89}, {"time": 6411, "pitch": 79, "duration": 24, "velocity": 89}, {"time": 6435, "pitch": 77, "duration": 12, "velocity": 89}, {"time": 6447, "pitch": 79, "duration": 12, "velocity": 89}, {"time": 6459, "pitch": 77, "duration": 12, "velocity": 89}, {"time": 6471, "pitch": 84, "duration": 12, "velocity": 89}, {"time": 6483, "pitch": 79, "duration": 24, "velocity": 89}, {"time": 6507, "pitch": 77, "duration": 12, "velocity": 89}, {"time": 6519, "pitch": 79, "duration": 12, "velocity": 89}, {"time": 6531, "pitch": 77, "duration": 12, "velocity": 89}, {"time": 6543, "pitch": 87, "duration": 12, "velocity": 89}, {"time": 6555, "pitch": 86, "duration": 18, "velocity": 89}, {"time": 6573, "pitch": 82, "duration": 12, "velocity": 89}, {"time": 6585, "pitch": 77, "duration": 6, "velocity": 89}, {"time": 6591, "pitch": 79, "duration": 48, "velocity": 89}, {"time": 6639, "pitch": 75, "duration": 12, "velocity": 89}, {"time": 6651, "pitch": 77, "duration": 12, "velocity": 89}, {"time": 6663, "pitch": 79, "duration": 12, "velocity": 89}, {"time": 6675, "pitch": 77, "duration": 12, "velocity": 89}, {"time": 6687, "pitch": 82, "duration": 12, "velocity": 89}, {"time": 6699, "pitch": 79, "duration": 24, "velocity": 89}, {"time": 6723, "pitch": 77, "duration": 12, "velocity": 89}, {"time": 6735, "pitch": 79, "duration": 12, "velocity": 89}, {"time": 6747, "pitch": 77, "duration": 12, "velocity": 89}, {"time": 6759, "pitch": 84, "duration": 12, "velocity": 89}, {"time": 6771, "pitch": 79, "duration": 36, "velocity": 89}, {"time": 6807, "pitch": 79, "duration": 12, "velocity": 89}, {"time": 6819, "pitch": 77, "duration": 12, "velocity": 89}, {"time": 6831, "pitch": 87, "duration": 12, "velocity": 89}, {"time": 6843, "pitch": 86, "duration": 18, "velocity": 89}, {"time": 6861, "pitch": 87, "duration": 6, "velocity": 89}, {"time": 6867, "pitch": 86, "duration": 6, "velocity": 89}, {"time": 6873, "pitch": 82, "duration": 6, "velocity": 89}, {"time": 6879, "pitch": 84, "duration": 69, "velocity": 89}], "annotations": [{"time": 459, "annotation": {"number": 64, "value": 79}, "group": "control_change"}, {"time": 591, "annotation": {"number": 64, "value": 80}, "group": "control_change"}, {"time": 759, "annotation": {"number": 64, "value": 79}, "group": "control_change"}]}, {"program": 0, "is_drum": false, "name": "PIANO", "notes": [{"time": 27, "pitch": 75, "duration": 8, "velocity": 82}, {"time": 33, "pitch": 77, "duration": 3, "velocity": 82}, {"time": 39, "pitch": 56, "duration": 31, "velocity": 85}, {"time": 39, "pitch": 79, "duration": 10, "velocity": 85}, {"time": 51, "pitch": 65, "duration": 8, "velocity": 85}, {"time": 51, "pitch": 77, "duration": 10, "velocity": 85}, {"time": 57, "pitch": 70, "duration": 12, "velocity": 85}, {"time": 63, "pitch": 82, "duration": 10, "velocity": 85}, {"time": 75, "pitch": 58, "duration": 33, "velocity": 85}, {"time": 75, "pitch": 77, "duration": 13, "velocity": 85}, {"time": 87, "pitch": 65, "duration": 7, "velocity": 85}, {"time": 93, "pitch": 70, "duration": 17, "velocity": 85}, {"time": 99, "pitch": 75, "duration": 9, "velocity": 85}, {"time": 111, "pitch": 60, "duration": 48, "velocity": 85}, {"time": 111, "pitch": 74, "duration": 10, "velocity": 85}, {"time": 123, "pitch": 65, "duration": 7, "velocity": 85}, {"time": 129, "pitch": 70, "duration": 14, "velocity": 85}, {"time": 129, "pitch": 75, "duration": 4, "velocity": 85}, {"time": 135, "pitch": 74, "duration": 4, "velocity": 85}, {"time": 147, "pitch": 70, "duration": 12, "velocity": 88}, {"time": 147, "pitch": 72, "duration": 20, "velocity": 88}, {"time": 159, "pitch": 63, "duration": 6, "velocity": 88}, {"time": 165, "pitch": 70, "duration": 5, "velocity": 88}, {"time": 171, "pitch": 75, "duration": 5, "velocity": 88}, {"time": 177, "pitch": 77, "duration": 4, "velocity": 88}, {"time": 183, "pitch": 56, "duration": 32, "velocity": 88}, {"time": 183, "pitch": 79, "duration": 7, "velocity": 88}, {"time": 195, "pitch": 63, "duration": 7, "velocity": 88}, {"time": 195, "pitch": 77, "duration": 12, "velocity": 88}, {"time": 201, "pitch": 70, "duration": 20, "velocity": 88}, {"time": 207, "pitch": 82, "duration": 11, "velocity": 88}, {"time": 219, "pitch": 58, "duration": 32, "velocity": 89}, {"time": 219, "pitch": 79, "duration": 11, "velocity": 89}, {"time": 231, "pitch": 63, "duration": 6, "velocity": 89}, {"time": 237, "pitch": 70, "duration": 17, "velocity": 89}, {"time": 237, "pitch": 87, "duration": 6, "velocity": 89}, {"time": 249, "pitch": 86, "duration": 4, "velocity": 89}, {"time": 255, "pitch": 60, "duration": 50, "velocity": 89}, {"time": 255, "pitch": 79, "duration": 16, "velocity": 89}, {"time": 267, "pitch": 63, "duration": 7, "velocity": 89}, {"time": 273, "pitch": 70, "duration": 6, "velocity": 89}, {"time": 279, "pitch": 74, "duration": 6, "velocity": 89}, {"time": 285, "pitch": 75, "duration": 3, "velocity": 89}, {"time": 291, "pitch": 70, "duration": 10, "velocity": 89}, {"time": 291, "pitch": 77, "duration": 12, "velocity": 89}, {"time": 303, "pitch": 67, "duration": 12, "velocity": 89}, {"time": 303, "pitch": 79, "duration": 7, "velocity": 89}, {"time": 315, "pitch": 63, "duration": 12, "velocity": 89}, {"time": 315, "pitch": 82, "duration": 6, "velocity": 89}, {"time": 327, "pitch": 56, "duration": 34, "velocity": 89}, {"time": 327, "pitch": 79, "duration": 8, "velocity": 89}, {"time": 339, "pitch": 63, "duration": 7, "velocity": 89}, {"time": 339, "pitch": 77, "duration": 8, "velocity": 89}, {"time": 345, "pitch": 70, "duration": 19, "velocity": 88}, {"time": 351, "pitch": 82, "duration": 6, "velocity": 88}, {"time": 363, "pitch": 58, "duration": 32, "velocity": 88}, {"time": 363, "pitch": 79, "duration": 7, "velocity": 88}, {"time": 375, "pitch": 63, "duration": 7, "velocity": 88}, {"time": 381, "pitch": 70, "duration": 18, "velocity": 88}, {"time": 381, "pitch": 77, "duration": 4, "velocity": 88}, {"time": 393, "pitch": 75, "duration": 3, "velocity": 88}, {"time": 399, "pitch": 60, "duration": 58, "velocity": 88}, {"time": 399, "pitch": 74, "duration": 12, "velocity": 88}, {"time": 411, "pitch": 63, "duration": 6, "velocity": 87}, {"time": 417, "pitch": 70, "duration": 13, "velocity": 87}, {"time": 417, "pitch": 75, "duration": 3, "velocity": 87}, {"time": 423, "pitch": 74, "duration": 4, "velocity": 87}, {"time": 435, "pitch": 70, "duration": 14, "velocity": 87}, {"time": 435, "pitch": 72, "duration": 17, "velocity": 87}, {"time": 447, "pitch": 67, "duration": 10, "velocity": 86}, {"time": 459, "pitch": 63, "duration": 10, "velocity": 86}, {"time": 459, "pitch": 72, "duration": 5, "velocity": 86}, {"time": 465, "pitch": 74, "duration": 3, "velocity": 86}, {"time": 471, "pitch": 53, "duration": 34, "velocity": 86}, {"time": 471, "pitch": 75, "duration": 6, "velocity": 86}, {"time": 483, "pitch": 63, "duration": 7, "velocity": 86}, {"time": 483, "pitch": 77, "duration": 6, "velocity": 86}, {"time": 489, "pitch": 68, "duration": 19, "velocity": 86}, {"time": 495, "pitch": 79, "duration": 7, "velocity": 86}, {"time": 507, "pitch": 55, "duration": 29, "velocity": 86}, {"time": 507, "pitch": 77, "duration": 8, "velocity": 86}, {"time": 519, "pitch": 65, "duration": 7, "velocity": 86}, {"time": 525, "pitch": 70, "duration": 9, "velocity": 85}, {"time": 525, "pitch": 74, "duration": 5, "velocity": 85}, {"time": 537, "pitch": 70, "duration": 3, "velocity": 85}, {"time": 543, "pitch": 48, "duration": 67, "velocity": 85}, {"time": 543, "pitch": 72, "duration": 24, "velocity": 85}, {"time": 549, "pitch": 55, "duration": 38, "velocity": 85}, {"time": 555, "pitch": 60, "duration": 24, "velocity": 85}, {"time": 561, "pitch": 62, "duration": 8, "velocity": 85}, {"time": 567, "pitch": 63, "duration": 6, "velocity": 85}, {"time": 573, "pitch": 65, "duration": 3, "velocity": 85}, {"time": 579, "pitch": 72, "duration": 43, "velocity": 85}, {"time": 615, "pitch": 48, "duration": 64, "velocity": 85}, {"time": 621, "pitch": 55, "duration": 57, "velocity": 85}, {"time": 627, "pitch": 60, "duration": 26, "velocity": 85}, {"time": 633, "pitch": 63, "duration": 10, "velocity": 85}, {"time": 639, "pitch": 65, "duration": 10, "velocity": 85}, {"time": 651, "pitch": 67, "duration": 25, "velocity": 85}, {"time": 663, "pitch": 60, "duration": 9, "velocity": 85}, {"time": 675, "pitch": 63, "duration": 7, "velocity": 85}, {"time": 681, "pitch": 67, "duration": 8, "velocity": 85}, {"time": 687, "pitch": 46, "duration": 31, "velocity": 85}, {"time": 693, "pitch": 53, "duration": 30, "velocity": 85}, {"time": 699, "pitch": 58, "duration": 15, "velocity": 85}, {"time": 705, "pitch": 62, "duration": 8, "velocity": 85}, {"time": 711, "pitch": 65, "duration": 10, "velocity": 85}, {"time": 717, "pitch": 62, "duration": 6, "velocity": 85}, {"time": 723, "pitch": 48, "duration": 30, "velocity": 85}, {"time": 729, "pitch": 55, "duration": 21, "velocity": 85}, {"time": 735, "pitch": 60, "duration": 13, "velocity": 85}, {"time": 741, "pitch": 63, "duration": 9, "velocity": 85}, {"time": 747, "pitch": 67, "duration": 6, "velocity": 85}, {"time": 753, "pitch": 63, "duration": 7, "velocity": 85}, {"time": 759, "pitch": 44, "duration": 29, "velocity": 85}, {"time": 765, "pitch": 51, "duration": 29, "velocity": 85}, {"time": 771, "pitch": 56, "duration": 12, "velocity": 85}, {"time": 777, "pitch": 60, "duration": 7, "velocity": 85}, {"time": 783, "pitch": 63, "duration": 11, "velocity": 85}, {"time": 789, "pitch": 60, "duration": 6, "velocity": 85}, {"time": 795, "pitch": 46, "duration": 24, "velocity": 85}, {"time": 801, "pitch": 53, "duration": 20, "velocity": 85}, {"time": 807, "pitch": 58, "duration": 21, "velocity": 85}, {"time": 813, "pitch": 62, "duration": 8, "velocity": 85}, {"time": 819, "pitch": 65, "duration": 10, "velocity": 85}, {"time": 831, "pitch": 51, "duration": 28, "velocity": 85}, {"time": 837, "pitch": 58, "duration": 37, "velocity": 85}, {"time": 843, "pitch": 63, "duration": 26, "velocity": 85}, {"time": 849, "pitch": 67, "duration": 24, "velocity": 85}, {"time": 855, "pitch": 70, "duration": 13, "velocity": 85}, {"time": 867, "pitch": 43, "duration": 27, "velocity": 85}, {"time": 867, "pitch": 75, "duration": 15, "velocity": 85}, {"time": 873, "pitch": 50, "duration": 26, "velocity": 85}, {"time": 879, "pitch": 55, "duration": 20, "velocity": 85}, {"time": 891, "pitch": 59, "duration": 11, "velocity": 85}, {"time": 897, "pitch": 62, "duration": 6, "velocity": 85}, {"time": 903, "pitch": 48, "duration": 36, "velocity": 85}, {"time": 909, "pitch": 55, "duration": 54, "velocity": 85}, {"time": 915, "pitch": 60, "duration": 13, "velocity": 85}, {"time": 921, "pitch": 63, "duration": 37, "velocity": 85}, {"time": 927, "pitch": 67, "duration": 13, "velocity": 85}, {"time": 932, "pitch": 72, "duration": 28, "velocity": 84}, {"time": 933, "pitch": 60, "duration": 12, "velocity": 84}, {"time": 939, "pitch": 48, "duration": 36, "velocity": 84}, {"time": 951, "pitch": 60, "duration": 11, "velocity": 84}, {"time": 957, "pitch": 67, "duration": 8, "velocity": 84}, {"time": 963, "pitch": 63, "duration": 11, "velocity": 84}, {"time": 972, "pitch": 67, "duration": 2, "velocity": 84}, {"time": 975, "pitch": 53, "duration": 28, "velocity": 84}, {"time": 981, "pitch": 60, "duration": 19, "velocity": 84}, {"time": 987, "pitch": 65, "duration": 11, "velocity": 84}, {"time": 993, "pitch": 67, "duration": 9, "velocity": 84}, {"time": 999, "pitch": 68, "duration": 8, "velocity": 84}, {"time": 1011, "pitch": 53, "duration": 35, "velocity": 84}, {"time": 1017, "pitch": 60, "duration": 29, "velocity": 84}, {"time": 1023, "pitch": 65, "duration": 21, "velocity": 84}, {"time": 1029, "pitch": 67, "duration": 9, "velocity": 84}, {"time": 1035, "pitch": 68, "duration": 7, "velocity": 84}, {"time": 1041, "pitch": 70, "duration": 7, "velocity": 84}, {"time": 1047, "pitch": 44, "duration": 29, "velocity": 84}, {"time": 1053, "pitch": 51, "duration": 28, "velocity": 84}, {"time": 1059, "pitch": 56, "duration": 15, "velocity": 84}, {"time": 1065, "pitch": 58, "duration": 8, "velocity": 84}, {"time": 1071, "pitch": 60, "duration": 7, "velocity": 84}, {"time": 1083, "pitch": 46, "duration": 28, "velocity": 84}, {"time": 1083, "pitch": 60, "duration": 10, "velocity": 84}, {"time": 1083, "pitch": 63, "duration": 9, "velocity": 84}, {"time": 1095, "pitch": 62, "duration": 23, "velocity": 84}, {"time": 1095, "pitch": 65, "duration": 22, "velocity": 84}, {"time": 1107, "pitch": 53, "duration": 10, "velocity": 84}, {"time": 1119, "pitch": 48, "duration": 21, "velocity": 84}, {"time": 1125, "pitch": 55, "duration": 22, "velocity": 84}, {"time": 1131, "pitch": 60, "duration": 23, "velocity": 84}, {"time": 1137, "pitch": 63, "duration": 9, "velocity": 84}, {"time": 1143, "pitch": 67, "duration": 10, "velocity": 84}, {"time": 1155, "pitch": 48, "duration": 28, "velocity": 84}, {"time": 1155, "pitch": 55, "duration": 38, "velocity": 84}, {"time": 1155, "pitch": 67, "duration": 35, "velocity": 76}, {"time": 1155, "pitch": 72, "duration": 34, "velocity": 75}, {"time": 1179, "pitch": 79, "duration": 5, "velocity": 72}, {"time": 1179, "pitch": 84, "duration": 5, "velocity": 44}, {"time": 1191, "pitch": 48, "duration": 64, "velocity": 84}, {"time": 1197, "pitch": 55, "duration": 57, "velocity": 84}, {"time": 1203, "pitch": 60, "duration": 19, "velocity": 84}, {"time": 1209, "pitch": 63, "duration": 13, "velocity": 84}, {"time": 1215, "pitch": 67, "duration": 10, "velocity": 84}, {"time": 1227, "pitch": 60, "duration": 5, "velocity": 84}, {"time": 1227, "pitch": 63, "duration": 20, "velocity": 84}, {"time": 1239, "pitch": 60, "duration": 8, "velocity": 84}, {"time": 1245, "pitch": 67, "duration": 7, "velocity": 84}, {"time": 1251, "pitch": 63, "duration": 13, "velocity": 84}, {"time": 1263, "pitch": 46, "duration": 69, "velocity": 84}, {"time": 1263, "pitch": 62, "duration": 15, "velocity": 84}, {"time": 1263, "pitch": 65, "duration": 19, "velocity": 84}, {"time": 1269, "pitch": 53, "duration": 60, "velocity": 84}, {"time": 1275, "pitch": 58, "duration": 16, "velocity": 84}, {"time": 1281, "pitch": 62, "duration": 9, "velocity": 84}, {"time": 1287, "pitch": 65, "duration": 13, "velocity": 84}, {"time": 1293, "pitch": 62, "duration": 8, "velocity": 84}, {"time": 1299, "pitch": 58, "duration": 19, "velocity": 84}, {"time": 1311, "pitch": 62, "duration": 8, "velocity": 84}, {"time": 1317, "pitch": 50, "duration": 13, "velocity": 84}, {"time": 1323, "pitch": 65, "duration": 7, "velocity": 84}, {"time": 1329, "pitch": 62, "duration": 6, "velocity": 84}, {"time": 1335, "pitch": 44, "duration": 30, "velocity": 84}, {"time": 1335, "pitch": 60, "duration": 12, "velocity": 84}, {"time": 1341, "pitch": 51, "duration": 29, "velocity": 83}, {"time": 1347, "pitch": 56, "duration": 18, "velocity": 83}, {"time": 1353, "pitch": 60, "duration": 10, "velocity": 83}, {"time": 1359, "pitch": 63, "duration": 12, "velocity": 83}, {"time": 1365, "pitch": 60, "duration": 6, "velocity": 83}, {"time": 1371, "pitch": 46, "duration": 31, "velocity": 83}, {"time": 1377, "pitch": 53, "duration": 29, "velocity": 83}, {"time": 1383, "pitch": 58, "duration": 16, "velocity": 83}, {"time": 1389, "pitch": 62, "duration": 5, "velocity": 83}, {"time": 1395, "pitch": 65, "duration": 11, "velocity": 83}, {"time": 1401, "pitch": 62, "duration": 7, "velocity": 83}, {"time": 1407, "pitch": 51, "duration": 28, "velocity": 83}, {"time": 1413, "pitch": 58, "duration": 18, "velocity": 83}, {"time": 1419, "pitch": 63, "duration": 9, "velocity": 83}, {"time": 1425, "pitch": 67, "duration": 7, "velocity": 83}, {"time": 1431, "pitch": 70, "duration": 6, "velocity": 83}, {"time": 1437, "pitch": 67, "duration": 5, "velocity": 83}, {"time": 1443, "pitch": 43, "duration": 37, "velocity": 83}, {"time": 1449, "pitch": 50, "duration": 26, "velocity": 83}, {"time": 1455, "pitch": 55, "duration": 16, "velocity": 83}, {"time": 1461, "pitch": 59, "duration": 13, "velocity": 83}, {"time": 1467, "pitch": 62, "duration": 11, "velocity": 83}, {"time": 1473, "pitch": 47, "duration": 6, "velocity": 83}, {"time": 1479, "pitch": 48, "duration": 61, "velocity": 83}, {"time": 1479, "pitch": 63, "duration": 14, "velocity": 83}, {"time": 1485, "pitch": 55, "duration": 52, "velocity": 83}, {"time": 1491, "pitch": 60, "duration": 10, "velocity": 83}, {"time": 1497, "pitch": 63, "duration": 11, "velocity": 83}, {"time": 1503, "pitch": 67, "duration": 8, "velocity": 83}, {"time": 1509, "pitch": 60, "duration": 10, "velocity": 83}, {"time": 1515, "pitch": 63, "duration": 21, "velocity": 83}, {"time": 1515, "pitch": 67, "duration": 22, "velocity": 83}, {"time": 1521, "pitch": 60, "duration": 11, "velocity": 83}, {"time": 1539, "pitch": 63, "duration": 4, "velocity": 83}, {"time": 1539, "pitch": 67, "duration": 3, "velocity": 83}, {"time": 1551, "pitch": 41, "duration": 61, "velocity": 83}, {"time": 1557, "pitch": 48, "duration": 58, "velocity": 83}, {"time": 1563, "pitch": 53, "duration": 9, "velocity": 83}, {"time": 1569, "pitch": 45, "duration": 44, "velocity": 83}, {"time": 1575, "pitch": 57, "duration": 8, "velocity": 83}, {"time": 1581, "pitch": 53, "duration": 10, "velocity": 83}, {"time": 1587, "pitch": 57, "duration": 20, "velocity": 83}, {"time": 1587, "pitch": 60, "duration": 14, "velocity": 83}, {"time": 1599, "pitch": 53, "duration": 18, "velocity": 83}, {"time": 1611, "pitch": 57, "duration": 8, "velocity": 83}, {"time": 1611, "pitch": 60, "duration": 6, "velocity": 83}, {"time": 1623, "pitch": 44, "duration": 27, "velocity": 83}, {"time": 1623, "pitch": 60, "duration": 21, "velocity": 83}, {"time": 1623, "pitch": 63, "duration": 21, "velocity": 83}, {"time": 1629, "pitch": 51, "duration": 29, "velocity": 83}, {"time": 1635, "pitch": 56, "duration": 8, "velocity": 83}, {"time": 1647, "pitch": 56, "duration": 10, "velocity": 83}, {"time": 1647, "pitch": 60, "duration": 6, "velocity": 83}, {"time": 1647, "pitch": 63, "duration": 1, "velocity": 83}, {"time": 1659, "pitch": 46, "duration": 29, "velocity": 83}, {"time": 1659, "pitch": 62, "duration": 21, "velocity": 83}, {"time": 1659, "pitch": 65, "duration": 21, "velocity": 83}, {"time": 1665, "pitch": 53, "duration": 30, "velocity": 83}, {"time": 1671, "pitch": 58, "duration": 23, "velocity": 83}, {"time": 1683, "pitch": 62, "duration": 7, "velocity": 83}, {"time": 1683, "pitch": 65, "duration": 7, "velocity": 83}, {"time": 1695, "pitch": 48, "duration": 66, "velocity": 83}, {"time": 1701, "pitch": 55, "duration": 59, "velocity": 83}, {"time": 1707, "pitch": 60, "duration": 14, "velocity": 83}, {"time": 1713, "pitch": 63, "duration": 10, "velocity": 83}, {"time": 1719, "pitch": 67, "duration": 33, "velocity": 83}, {"time": 1725, "pitch": 60, "duration": 10, "velocity": 83}, {"time": 1731, "pitch": 63, "duration": 20, "velocity": 83}, {"time": 1731, "pitch": 72, "duration": 21, "velocity": 83}, {"time": 1743, "pitch": 60, "duration": 11, "velocity": 84}, {"time": 1755, "pitch": 63, "duration": 10, "velocity": 84}, {"time": 1755, "pitch": 67, "duration": 10, "velocity": 84}, {"time": 1755, "pitch": 72, "duration": 9, "velocity": 84}, {"time": 1767, "pitch": 44, "duration": 30, "velocity": 84}, {"time": 1773, "pitch": 51, "duration": 30, "velocity": 84}, {"time": 1779, "pitch": 56, "duration": 19, "velocity": 84}, {"time": 1791, "pitch": 60, "duration": 3, "velocity": 84}, {"time": 1791, "pitch": 63, "duration": 3, "velocity": 84}, {"time": 1791, "pitch": 68, "duration": 3, "velocity": 84}, {"time": 1803, "pitch": 46, "duration": 27, "velocity": 84}, {"time": 1803, "pitch": 62, "duration": 22, "velocity": 84}, {"time": 1803, "pitch": 65, "duration": 22, "velocity": 84}, {"time": 1809, "pitch": 53, "duration": 21, "velocity": 84}, {"time": 1820, "pitch": 58, "duration": 10, "velocity": 84}, {"time": 1827, "pitch": 62, "duration": 4, "velocity": 84}, {"time": 1827, "pitch": 65, "duration": 4, "velocity": 84}, {"time": 1839, "pitch": 51, "duration": 27, "velocity": 84}, {"time": 1839, "pitch": 67, "duration": 22, "velocity": 84}, {"time": 1839, "pitch": 70, "duration": 22, "velocity": 84}, {"time": 1851, "pitch": 58, "duration": 13, "velocity": 84}, {"time": 1863, "pitch": 67, "duration": 12, "velocity": 84}, {"time": 1863, "pitch": 70, "duration": 12, "velocity": 84}, {"time": 1875, "pitch": 48, "duration": 27, "velocity": 84}, {"time": 1881, "pitch": 55, "duration": 19, "velocity": 84}, {"time": 1887, "pitch": 60, "duration": 9, "velocity": 84}, {"time": 1893, "pitch": 63, "duration": 3, "velocity": 85}, {"time": 1899, "pitch": 63, "duration": 4, "velocity": 85}, {"time": 1899, "pitch": 67, "duration": 4, "velocity": 85}, {"time": 1911, "pitch": 44, "duration": 28, "velocity": 85}, {"time": 1911, "pitch": 60, "duration": 22, "velocity": 85}, {"time": 1911, "pitch": 63, "duration": 21, "velocity": 85}, {"time": 1917, "pitch": 51, "duration": 29, "velocity": 85}, {"time": 1923, "pitch": 56, "duration": 16, "velocity": 85}, {"time": 1935, "pitch": 60, "duration": 3, "velocity": 85}, {"time": 1935, "pitch": 63, "duration": 3, "velocity": 85}, {"time": 1947, "pitch": 46, "duration": 27, "velocity": 85}, {"time": 1947, "pitch": 62, "duration": 22, "velocity": 85}, {"time": 1947, "pitch": 65, "duration": 23, "velocity": 85}, {"time": 1953, "pitch": 53, "duration": 20, "velocity": 85}, {"time": 1959, "pitch": 58, "duration": 22, "velocity": 85}, {"time": 1971, "pitch": 62, "duration": 11, "velocity": 85}, {"time": 1971, "pitch": 65, "duration": 11, "velocity": 85}, {"time": 1971, "pitch": 70, "duration": 11, "velocity": 85}, {"time": 1983, "pitch": 43, "duration": 61, "velocity": 85}, {"time": 1983, "pitch": 60, "duration": 22, "velocity": 85}, {"time": 1995, "pitch": 50, "duration": 52, "velocity": 85}, {"time": 1995, "pitch": 55, "duration": 12, "velocity": 85}, {"time": 2001, "pitch": 47, "duration": 46, "velocity": 85}, {"time": 2007, "pitch": 60, "duration": 9, "velocity": 85}, {"time": 2019, "pitch": 55, "duration": 4, "velocity": 85}, {"time": 2019, "pitch": 59, "duration": 21, "velocity": 85}, {"time": 2031, "pitch": 55, "duration": 13, "velocity": 85}, {"time": 2043, "pitch": 59, "duration": 9, "velocity": 85}, {"time": 2055, "pitch": 44, "duration": 30, "velocity": 85}, {"time": 2055, "pitch": 60, "duration": 19, "velocity": 85}, {"time": 2055, "pitch": 63, "duration": 19, "velocity": 85}, {"time": 2055, "pitch": 68, "duration": 19, "velocity": 85}, {"time": 2067, "pitch": 51, "duration": 24, "velocity": 85}, {"time": 2067, "pitch": 56, "duration": 13, "velocity": 85}, {"time": 2079, "pitch": 60, "duration": 7, "velocity": 85}, {"time": 2079, "pitch": 63, "duration": 3, "velocity": 85}, {"time": 2079, "pitch": 68, "duration": 2, "velocity": 85}, {"time": 2085, "pitch": 56, "duration": 5, "velocity": 85}, {"time": 2085, "pitch": 63, "duration": 2, "velocity": 85}, {"time": 2091, "pitch": 46, "duration": 26, "velocity": 85}, {"time": 2091, "pitch": 62, "duration": 21, "velocity": 85}, {"time": 2091, "pitch": 65, "duration": 22, "velocity": 85}, {"time": 2091, "pitch": 70, "duration": 21, "velocity": 85}, {"time": 2103, "pitch": 53, "duration": 15, "velocity": 85}, {"time": 2109, "pitch": 58, "duration": 16, "velocity": 85}, {"time": 2115, "pitch": 62, "duration": 6, "velocity": 85}, {"time": 2115, "pitch": 65, "duration": 6, "velocity": 85}, {"time": 2115, "pitch": 70, "duration": 6, "velocity": 85}, {"time": 2127, "pitch": 51, "duration": 27, "velocity": 85}, {"time": 2127, "pitch": 67, "duration": 16, "velocity": 85}, {"time": 2127, "pitch": 70, "duration": 2, "velocity": 85}, {"time": 2133, "pitch": 58, "duration": 18, "velocity": 85}, {"time": 2139, "pitch": 63, "duration": 8, "velocity": 85}, {"time": 2145, "pitch": 67, "duration": 3, "velocity": 85}, {"time": 2151, "pitch": 67, "duration": 10, "velocity": 85}, {"time": 2163, "pitch": 48, "duration": 24, "velocity": 85}, {"time": 2169, "pitch": 55, "duration": 18, "velocity": 85}, {"time": 2175, "pitch": 60, "duration": 9, "velocity": 85}, {"time": 2187, "pitch": 63, "duration": 10, "velocity": 85}, {"time": 2187, "pitch": 67, "duration": 9, "velocity": 85}, {"time": 2187, "pitch": 72, "duration": 9, "velocity": 85}, {"time": 2193, "pitch": 46, "duration": 4, "velocity": 85}, {"time": 2199, "pitch": 44, "duration": 30, "velocity": 85}, {"time": 2204, "pitch": 51, "duration": 30, "velocity": 85}, {"time": 2211, "pitch": 56, "duration": 12, "velocity": 85}, {"time": 2223, "pitch": 60, "duration": 7, "velocity": 85}, {"time": 2223, "pitch": 63, "duration": 7, "velocity": 85}, {"time": 2223, "pitch": 67, "duration": 3, "velocity": 85}, {"time": 2223, "pitch": 68, "duration": 6, "velocity": 85}, {"time": 2229, "pitch": 56, "duration": 4, "velocity": 85}, {"time": 2235, "pitch": 46, "duration": 26, "velocity": 85}, {"time": 2235, "pitch": 62, "duration": 21, "velocity": 85}, {"time": 2235, "pitch": 65, "duration": 20, "velocity": 85}, {"time": 2235, "pitch": 70, "duration": 19, "velocity": 85}, {"time": 2241, "pitch": 53, "duration": 30, "velocity": 85}, {"time": 2247, "pitch": 58, "duration": 7, "velocity": 85}, {"time": 2253, "pitch": 50, "duration": 12, "velocity": 85}, {"time": 2259, "pitch": 58, "duration": 11, "velocity": 85}, {"time": 2259, "pitch": 62, "duration": 4, "velocity": 85}, {"time": 2259, "pitch": 65, "duration": 3, "velocity": 85}, {"time": 2259, "pitch": 70, "duration": 3, "velocity": 85}, {"time": 2271, "pitch": 48, "duration": 30, "velocity": 85}, {"time": 2271, "pitch": 63, "duration": 21, "velocity": 85}, {"time": 2271, "pitch": 67, "duration": 16, "velocity": 85}, {"time": 2271, "pitch": 72, "duration": 20, "velocity": 85}, {"time": 2283, "pitch": 55, "duration": 20, "velocity": 85}, {"time": 2289, "pitch": 60, "duration": 9, "velocity": 85}, {"time": 2289, "pitch": 67, "duration": 3, "velocity": 85}, {"time": 2295, "pitch": 63, "duration": 8, "velocity": 85}, {"time": 2295, "pitch": 67, "duration": 7, "velocity": 85}, {"time": 2295, "pitch": 72, "duration": 7, "velocity": 85}, {"time": 2301, "pitch": 60, "duration": 3, "velocity": 85}, {"time": 2307, "pitch": 48, "duration": 12, "velocity": 85}, {"time": 2307, "pitch": 63, "duration": 16, "velocity": 85}, {"time": 2307, "pitch": 67, "duration": 15, "velocity": 85}, {"time": 2307, "pitch": 72, "duration": 15, "velocity": 85}, {"time": 2343, "pitch": 44, "duration": 24, "velocity": 85}, {"time": 2343, "pitch": 60, "duration": 21, "velocity": 85}, {"time": 2343, "pitch": 63, "duration": 22, "velocity": 85}, {"time": 2343, "pitch": 68, "duration": 22, "velocity": 85}, {"time": 2349, "pitch": 51, "duration": 31, "velocity": 85}, {"time": 2355, "pitch": 56, "duration": 6, "velocity": 85}, {"time": 2361, "pitch": 48, "duration": 17, "velocity": 85}, {"time": 2367, "pitch": 56, "duration": 11, "velocity": 85}, {"time": 2367, "pitch": 60, "duration": 2, "velocity": 85}, {"time": 2367, "pitch": 63, "duration": 2, "velocity": 85}, {"time": 2367, "pitch": 68, "duration": 2, "velocity": 85}, {"time": 2373, "pitch": 62, "duration": 1, "velocity": 85}, {"time": 2379, "pitch": 46, "duration": 29, "velocity": 85}, {"time": 2379, "pitch": 62, "duration": 21, "velocity": 85}, {"time": 2379, "pitch": 65, "duration": 22, "velocity": 85}, {"time": 2379, "pitch": 70, "duration": 21, "velocity": 85}, {"time": 2385, "pitch": 53, "duration": 21, "velocity": 85}, {"time": 2391, "pitch": 58, "duration": 6, "velocity": 85}, {"time": 2397, "pitch": 50, "duration": 10, "velocity": 85}, {"time": 2403, "pitch": 58, "duration": 4, "velocity": 85}, {"time": 2403, "pitch": 62, "duration": 3, "velocity": 85}, {"time": 2403, "pitch": 65, "duration": 2, "velocity": 85}, {"time": 2403, "pitch": 70, "duration": 2, "velocity": 85}, {"time": 2415, "pitch": 43, "duration": 23, "velocity": 85}, {"time": 2415, "pitch": 58, "duration": 19, "velocity": 85}, {"time": 2415, "pitch": 62, "duration": 20, "velocity": 85}, {"time": 2415, "pitch": 67, "duration": 20, "velocity": 85}, {"time": 2421, "pitch": 50, "duration": 20, "velocity": 85}, {"time": 2427, "pitch": 55, "duration": 6, "velocity": 85}, {"time": 2433, "pitch": 46, "duration": 7, "velocity": 85}, {"time": 2438, "pitch": 55, "duration": 10, "velocity": 85}, {"time": 2439, "pitch": 58, "duration": 2, "velocity": 85}, {"time": 2439, "pitch": 62, "duration": 2, "velocity": 85}, {"time": 2439, "pitch": 67, "duration": 2, "velocity": 85}, {"time": 2451, "pitch": 48, "duration": 22, "velocity": 85}, {"time": 2451, "pitch": 63, "duration": 16, "velocity": 85}, {"time": 2451, "pitch": 67, "duration": 16, "velocity": 85}, {"time": 2451, "pitch": 72, "duration": 16, "velocity": 85}, {"time": 2454, "pitch": 55, "duration": 16, "velocity": 85}, {"time": 2463, "pitch": 60, "duration": 8, "velocity": 85}, {"time": 2469, "pitch": 63, "duration": 3, "velocity": 85}, {"time": 2469, "pitch": 67, "duration": 2, "velocity": 85}, {"time": 2469, "pitch": 72, "duration": 2, "velocity": 85}, {"time": 2475, "pitch": 46, "duration": 7, "velocity": 85}, {"time": 2475, "pitch": 62, "duration": 7, "velocity": 85}, {"time": 2475, "pitch": 65, "duration": 7, "velocity": 85}, {"time": 2475, "pitch": 70, "duration": 7, "velocity": 85}, {"time": 2487, "pitch": 44, "duration": 30, "velocity": 85}, {"time": 2487, "pitch": 60, "duration": 21, "velocity": 85}, {"time": 2487, "pitch": 63, "duration": 21, "velocity": 85}, {"time": 2487, "pitch": 68, "duration": 20, "velocity": 85}, {"time": 2493, "pitch": 51, "duration": 30, "velocity": 85}, {"time": 2499, "pitch": 56, "duration": 23, "velocity": 85}, {"time": 2505, "pitch": 48, "duration": 18, "velocity": 85}, {"time": 2511, "pitch": 60, "duration": 4, "velocity": 85}, {"time": 2511, "pitch": 63, "duration": 3, "velocity": 85}, {"time": 2511, "pitch": 68, "duration": 3, "velocity": 85}, {"time": 2523, "pitch": 46, "duration": 27, "velocity": 85}, {"time": 2523, "pitch": 62, "duration": 21, "velocity": 85}, {"time": 2523, "pitch": 65, "duration": 21, "velocity": 85}, {"time": 2523, "pitch": 70, "duration": 21, "velocity": 85}, {"time": 2529, "pitch": 53, "duration": 25, "velocity": 85}, {"time": 2535, "pitch": 58, "duration": 24, "velocity": 85}, {"time": 2540, "pitch": 50, "duration": 6, "velocity": 85}, {"time": 2547, "pitch": 62, "duration": 10, "velocity": 85}, {"time": 2547, "pitch": 65, "duration": 9, "velocity": 85}, {"time": 2547, "pitch": 70, "duration": 10, "velocity": 85}, {"time": 2559, "pitch": 51, "duration": 26, "velocity": 85}, {"time": 2565, "pitch": 58, "duration": 19, "velocity": 85}, {"time": 2571, "pitch": 63, "duration": 11, "velocity": 85}, {"time": 2577, "pitch": 67, "duration": 15, "velocity": 85}, {"time": 2583, "pitch": 70, "duration": 8, "velocity": 85}, {"time": 2595, "pitch": 43, "duration": 25, "velocity": 85}, {"time": 2601, "pitch": 50, "duration": 27, "velocity": 85}, {"time": 2607, "pitch": 47, "duration": 14, "velocity": 85}, {"time": 2612, "pitch": 55, "duration": 17, "velocity": 85}, {"time": 2619, "pitch": 59, "duration": 9, "velocity": 85}, {"time": 2631, "pitch": 44, "duration": 31, "velocity": 85}, {"time": 2636, "pitch": 51, "duration": 33, "velocity": 85}, {"time": 2643, "pitch": 56, "duration": 17, "velocity": 85}, {"time": 2648, "pitch": 48, "duration": 15, "velocity": 85}, {"time": 2655, "pitch": 60, "duration": 8, "velocity": 85}, {"time": 2655, "pitch": 63, "duration": 8, "velocity": 85}, {"time": 2664, "pitch": 56, "duration": 3, "velocity": 85}, {"time": 2667, "pitch": 46, "duration": 28, "velocity": 85}, {"time": 2667, "pitch": 62, "duration": 21, "velocity": 85}, {"time": 2667, "pitch": 65, "duration": 21, "velocity": 85}, {"time": 2673, "pitch": 53, "duration": 25, "velocity": 85}, {"time": 2679, "pitch": 58, "duration": 7, "velocity": 85}, {"time": 2685, "pitch": 50, "duration": 15, "velocity": 85}, {"time": 2691, "pitch": 58, "duration": 8, "velocity": 85}, {"time": 2691, "pitch": 62, "duration": 10, "velocity": 85}, {"time": 2691, "pitch": 65, "duration": 10, "velocity": 85}, {"time": 2691, "pitch": 70, "duration": 12, "velocity": 85}, {"time": 2703, "pitch": 43, "duration": 24, "velocity": 85}, {"time": 2709, "pitch": 50, "duration": 19, "velocity": 85}, {"time": 2715, "pitch": 55, "duration": 9, "velocity": 85}, {"time": 2721, "pitch": 46, "duration": 7, "velocity": 85}, {"time": 2727, "pitch": 58, "duration": 10, "velocity": 85}, {"time": 2727, "pitch": 62, "duration": 10, "velocity": 85}, {"time": 2727, "pitch": 67, "duration": 10, "velocity": 85}, {"time": 2730, "pitch": 55, "duration": 7, "velocity": 85}, {"time": 2739, "pitch": 48, "duration": 28, "velocity": 85}, {"time": 2745, "pitch": 55, "duration": 19, "velocity": 85}, {"time": 2751, "pitch": 60, "duration": 12, "velocity": 85}, {"time": 2757, "pitch": 51, "duration": 8, "velocity": 85}, {"time": 2763, "pitch": 63, "duration": 4, "velocity": 85}, {"time": 2763, "pitch": 67, "duration": 4, "velocity": 85}, {"time": 2763, "pitch": 72, "duration": 4, "velocity": 85}, {"time": 2775, "pitch": 44, "duration": 27, "velocity": 85}, {"time": 2775, "pitch": 60, "duration": 18, "velocity": 85}, {"time": 2775, "pitch": 63, "duration": 19, "velocity": 85}, {"time": 2775, "pitch": 68, "duration": 19, "velocity": 85}, {"time": 2781, "pitch": 51, "duration": 28, "velocity": 85}, {"time": 2787, "pitch": 56, "duration": 8, "velocity": 85}, {"time": 2793, "pitch": 48, "duration": 15, "velocity": 85}, {"time": 2799, "pitch": 56, "duration": 9, "velocity": 85}, {"time": 2799, "pitch": 60, "duration": 3, "velocity": 85}, {"time": 2799, "pitch": 63, "duration": 2, "velocity": 85}, {"time": 2799, "pitch": 68, "duration": 2, "velocity": 85}, {"time": 2811, "pitch": 46, "duration": 26, "velocity": 85}, {"time": 2811, "pitch": 62, "duration": 22, "velocity": 85}, {"time": 2811, "pitch": 65, "duration": 23, "velocity": 85}, {"time": 2811, "pitch": 70, "duration": 23, "velocity": 85}, {"time": 2814, "pitch": 53, "duration": 31, "velocity": 85}, {"time": 2823, "pitch": 58, "duration": 7, "velocity": 85}, {"time": 2829, "pitch": 50, "duration": 16, "velocity": 85}, {"time": 2835, "pitch": 58, "duration": 10, "velocity": 85}, {"time": 2835, "pitch": 62, "duration": 6, "velocity": 85}, {"time": 2835, "pitch": 65, "duration": 6, "velocity": 85}, {"time": 2835, "pitch": 70, "duration": 6, "velocity": 85}, {"time": 2847, "pitch": 48, "duration": 60, "velocity": 85}, {"time": 2847, "pitch": 63, "duration": 27, "velocity": 85}, {"time": 2847, "pitch": 67, "duration": 29, "velocity": 85}, {"time": 2847, "pitch": 72, "duration": 31, "velocity": 85}, {"time": 2853, "pitch": 55, "duration": 36, "velocity": 85}, {"time": 2859, "pitch": 60, "duration": 7, "velocity": 85}, {"time": 2864, "pitch": 51, "duration": 25, "velocity": 85}, {"time": 2871, "pitch": 60, "duration": 14, "velocity": 85}, {"time": 2877, "pitch": 63, "duration": 7, "velocity": 85}, {"time": 2883, "pitch": 67, "duration": 4, "velocity": 85}, {"time": 2883, "pitch": 72, "duration": 26, "velocity": 85}, {"time": 2919, "pitch": 44, "duration": 30, "velocity": 85}, {"time": 2919, "pitch": 60, "duration": 21, "velocity": 85}, {"time": 2919, "pitch": 63, "duration": 22, "velocity": 85}, {"time": 2919, "pitch": 68, "duration": 22, "velocity": 85}, {"time": 2925, "pitch": 51, "duration": 30, "velocity": 85}, {"time": 2931, "pitch": 56, "duration": 8, "velocity": 85}, {"time": 2937, "pitch": 48, "duration": 20, "velocity": 85}, {"time": 2943, "pitch": 56, "duration": 10, "velocity": 85}, {"time": 2943, "pitch": 60, "duration": 7, "velocity": 85}, {"time": 2943, "pitch": 63, "duration": 8, "velocity": 85}, {"time": 2943, "pitch": 68, "duration": 7, "velocity": 85}, {"time": 2955, "pitch": 46, "duration": 29, "velocity": 85}, {"time": 2955, "pitch": 62, "duration": 22, "velocity": 85}, {"time": 2955, "pitch": 65, "duration": 22, "velocity": 85}, {"time": 2955, "pitch": 70, "duration": 22, "velocity": 85}, {"time": 2961, "pitch": 53, "duration": 21, "velocity": 85}, {"time": 2967, "pitch": 58, "duration": 7, "velocity": 85}, {"time": 2973, "pitch": 50, "duration": 11, "velocity": 85}, {"time": 2979, "pitch": 62, "duration": 7, "velocity": 85}, {"time": 2979, "pitch": 65, "duration": 5, "velocity": 85}, {"time": 2979, "pitch": 70, "duration": 5, "velocity": 85}, {"time": 2991, "pitch": 43, "duration": 24, "velocity": 85}, {"time": 2991, "pitch": 58, "duration": 21, "velocity": 85}, {"time": 2991, "pitch": 62, "duration": 1, "velocity": 85}, {"time": 2997, "pitch": 50, "duration": 21, "velocity": 85}, {"time": 3003, "pitch": 55, "duration": 22, "velocity": 85}, {"time": 3009, "pitch": 46, "duration": 8, "velocity": 85}, {"time": 3015, "pitch": 58, "duration": 4, "velocity": 85}, {"time": 3015, "pitch": 62, "duration": 4, "velocity": 85}, {"time": 3015, "pitch": 67, "duration": 4, "velocity": 85}, {"time": 3027, "pitch": 48, "duration": 22, "velocity": 85}, {"time": 3027, "pitch": 63, "duration": 16, "velocity": 85}, {"time": 3027, "pitch": 67, "duration": 15, "velocity": 85}, {"time": 3027, "pitch": 72, "duration": 15, "velocity": 85}, {"time": 3033, "pitch": 55, "duration": 15, "velocity": 85}, {"time": 3039, "pitch": 60, "duration": 7, "velocity": 85}, {"time": 3045, "pitch": 63, "duration": 3, "velocity": 85}, {"time": 3045, "pitch": 67, "duration": 3, "velocity": 85}, {"time": 3045, "pitch": 72, "duration": 3, "velocity": 85}, {"time": 3051, "pitch": 46, "duration": 7, "velocity": 85}, {"time": 3051, "pitch": 62, "duration": 5, "velocity": 85}, {"time": 3051, "pitch": 65, "duration": 6, "velocity": 85}, {"time": 3051, "pitch": 70, "duration": 6, "velocity": 85}, {"time": 3057, "pitch": 48, "duration": 2, "velocity": 85}, {"time": 3063, "pitch": 44, "duration": 27, "velocity": 85}, {"time": 3063, "pitch": 60, "duration": 22, "velocity": 85}, {"time": 3063, "pitch": 63, "duration": 22, "velocity": 85}, {"time": 3063, "pitch": 68, "duration": 22, "velocity": 85}, {"time": 3069, "pitch": 51, "duration": 31, "velocity": 85}, {"time": 3075, "pitch": 56, "duration": 8, "velocity": 85}, {"time": 3080, "pitch": 48, "duration": 18, "velocity": 85}, {"time": 3087, "pitch": 56, "duration": 12, "velocity": 85}, {"time": 3087, "pitch": 60, "duration": 7, "velocity": 85}, {"time": 3087, "pitch": 63, "duration": 4, "velocity": 85}, {"time": 3087, "pitch": 68, "duration": 3, "velocity": 85}, {"time": 3093, "pitch": 63, "duration": 1, "velocity": 85}, {"time": 3099, "pitch": 46, "duration": 25, "velocity": 85}, {"time": 3099, "pitch": 62, "duration": 22, "velocity": 85}, {"time": 3099, "pitch": 65, "duration": 22, "velocity": 85}, {"time": 3099, "pitch": 70, "duration": 22, "velocity": 85}, {"time": 3105, "pitch": 53, "duration": 23, "velocity": 85}, {"time": 3111, "pitch": 58, "duration": 6, "velocity": 85}, {"time": 3117, "pitch": 50, "duration": 7, "velocity": 85}, {"time": 3123, "pitch": 58, "duration": 12, "velocity": 85}, {"time": 3123, "pitch": 62, "duration": 8, "velocity": 85}, {"time": 3123, "pitch": 65, "duration": 8, "velocity": 85}, {"time": 3123, "pitch": 70, "duration": 9, "velocity": 85}, {"time": 3135, "pitch": 51, "duration": 36, "velocity": 85}, {"time": 3141, "pitch": 58, "duration": 30, "velocity": 85}, {"time": 3147, "pitch": 63, "duration": 11, "velocity": 85}, {"time": 3153, "pitch": 67, "duration": 19, "velocity": 85}, {"time": 3159, "pitch": 70, "duration": 9, "velocity": 85}, {"time": 3165, "pitch": 63, "duration": 8, "velocity": 85}, {"time": 3171, "pitch": 43, "duration": 30, "velocity": 85}, {"time": 3171, "pitch": 72, "duration": 8, "velocity": 85}, {"time": 3177, "pitch": 50, "duration": 29, "velocity": 85}, {"time": 3183, "pitch": 55, "duration": 23, "velocity": 85}, {"time": 3189, "pitch": 47, "duration": 17, "velocity": 85}, {"time": 3201, "pitch": 62, "duration": 7, "velocity": 85}, {"time": 3207, "pitch": 44, "duration": 31, "velocity": 85}, {"time": 3213, "pitch": 51, "duration": 31, "velocity": 85}, {"time": 3219, "pitch": 56, "duration": 14, "velocity": 85}, {"time": 3225, "pitch": 48, "duration": 16, "velocity": 85}, {"time": 3231, "pitch": 60, "duration": 8, "velocity": 85}, {"time": 3231, "pitch": 63, "duration": 8, "velocity": 85}, {"time": 3231, "pitch": 68, "duration": 8, "velocity": 85}, {"time": 3237, "pitch": 56, "duration": 7, "velocity": 85}, {"time": 3243, "pitch": 46, "duration": 31, "velocity": 85}, {"time": 3243, "pitch": 62, "duration": 22, "velocity": 85}, {"time": 3243, "pitch": 65, "duration": 22, "velocity": 85}, {"time": 3243, "pitch": 70, "duration": 21, "velocity": 85}, {"time": 3249, "pitch": 53, "duration": 22, "velocity": 85}, {"time": 3255, "pitch": 58, "duration": 8, "velocity": 85}, {"time": 3261, "pitch": 50, "duration": 13, "velocity": 85}, {"time": 3267, "pitch": 58, "duration": 4, "velocity": 85}, {"time": 3267, "pitch": 62, "duration": 13, "velocity": 85}, {"time": 3267, "pitch": 65, "duration": 2, "velocity": 85}, {"time": 3267, "pitch": 70, "duration": 3, "velocity": 85}, {"time": 3273, "pitch": 65, "duration": 6, "velocity": 85}, {"time": 3273, "pitch": 70, "duration": 6, "velocity": 85}, {"time": 3279, "pitch": 43, "duration": 25, "velocity": 85}, {"time": 3285, "pitch": 50, "duration": 22, "velocity": 85}, {"time": 3291, "pitch": 55, "duration": 24, "velocity": 85}, {"time": 3297, "pitch": 46, "duration": 9, "velocity": 85}, {"time": 3303, "pitch": 58, "duration": 10, "velocity": 85}, {"time": 3303, "pitch": 62, "duration": 10, "velocity": 85}, {"time": 3303, "pitch": 67, "duration": 9, "velocity": 85}, {"time": 3315, "pitch": 48, "duration": 22, "velocity": 85}, {"time": 3321, "pitch": 55, "duration": 16, "velocity": 85}, {"time": 3327, "pitch": 60, "duration": 8, "velocity": 85}, {"time": 3333, "pitch": 63, "duration": 3, "velocity": 85}, {"time": 3333, "pitch": 67, "duration": 3, "velocity": 85}, {"time": 3333, "pitch": 72, "duration": 3, "velocity": 85}, {"time": 3339, "pitch": 46, "duration": 8, "velocity": 85}, {"time": 3339, "pitch": 62, "duration": 7, "velocity": 85}, {"time": 3339, "pitch": 65, "duration": 6, "velocity": 85}, {"time": 3339, "pitch": 70, "duration": 6, "velocity": 85}, {"time": 3351, "pitch": 44, "duration": 31, "velocity": 85}, {"time": 3351, "pitch": 60, "duration": 19, "velocity": 85}, {"time": 3351, "pitch": 63, "duration": 20, "velocity": 85}, {"time": 3351, "pitch": 68, "duration": 19, "velocity": 85}, {"time": 3357, "pitch": 51, "duration": 31, "velocity": 85}, {"time": 3363, "pitch": 56, "duration": 10, "velocity": 85}, {"time": 3369, "pitch": 48, "duration": 19, "velocity": 85}, {"time": 3375, "pitch": 60, "duration": 7, "velocity": 85}, {"time": 3375, "pitch": 63, "duration": 8, "velocity": 85}, {"time": 3375, "pitch": 68, "duration": 8, "velocity": 85}, {"time": 3378, "pitch": 56, "duration": 9, "velocity": 85}, {"time": 3387, "pitch": 46, "duration": 31, "velocity": 85}, {"time": 3387, "pitch": 62, "duration": 19, "velocity": 85}, {"time": 3387, "pitch": 65, "duration": 19, "velocity": 85}, {"time": 3387, "pitch": 70, "duration": 19, "velocity": 85}, {"time": 3393, "pitch": 53, "duration": 30, "velocity": 85}, {"time": 3399, "pitch": 58, "duration": 14, "velocity": 86}, {"time": 3404, "pitch": 50, "duration": 16, "velocity": 86}, {"time": 3411, "pitch": 62, "duration": 7, "velocity": 86}, {"time": 3411, "pitch": 65, "duration": 7, "velocity": 86}, {"time": 3411, "pitch": 70, "duration": 7, "velocity": 86}, {"time": 3417, "pitch": 58, "duration": 7, "velocity": 86}, {"time": 3423, "pitch": 48, "duration": 72, "velocity": 86}, {"time": 3423, "pitch": 63, "duration": 26, "velocity": 86}, {"time": 3423, "pitch": 67, "duration": 28, "velocity": 86}, {"time": 3423, "pitch": 72, "duration": 30, "velocity": 86}, {"time": 3429, "pitch": 55, "duration": 65, "velocity": 86}, {"time": 3435, "pitch": 60, "duration": 6, "velocity": 86}, {"time": 3441, "pitch": 51, "duration": 55, "velocity": 86}, {"time": 3447, "pitch": 60, "duration": 16, "velocity": 86}, {"time": 3453, "pitch": 63, "duration": 7, "velocity": 86}, {"time": 3456, "pitch": 67, "duration": 5, "velocity": 86}, {"time": 3459, "pitch": 72, "duration": 15, "velocity": 86}, {"time": 3471, "pitch": 60, "duration": 23, "velocity": 86}, {"time": 3495, "pitch": 48, "duration": 1, "velocity": 87}, {"time": 3501, "pitch": 55, "duration": 57, "velocity": 87}, {"time": 3507, "pitch": 60, "duration": 26, "velocity": 87}, {"time": 3513, "pitch": 63, "duration": 10, "velocity": 87}, {"time": 3519, "pitch": 65, "duration": 10, "velocity": 87}, {"time": 3531, "pitch": 67, "duration": 25, "velocity": 87}, {"time": 3543, "pitch": 60, "duration": 9, "velocity": 87}, {"time": 3555, "pitch": 63, "duration": 7, "velocity": 87}, {"time": 3561, "pitch": 67, "duration": 8, "velocity": 87}, {"time": 3567, "pitch": 46, "duration": 31, "velocity": 87}, {"time": 3573, "pitch": 53, "duration": 30, "velocity": 87}, {"time": 3579, "pitch": 58, "duration": 15, "velocity": 87}, {"time": 3585, "pitch": 62, "duration": 8, "velocity": 87}, {"time": 3591, "pitch": 65, "duration": 10, "velocity": 87}, {"time": 3597, "pitch": 62, "duration": 6, "velocity": 87}, {"time": 3603, "pitch": 48, "duration": 30, "velocity": 87}, {"time": 3609, "pitch": 55, "duration": 21, "velocity": 87}, {"time": 3615, "pitch": 60, "duration": 13, "velocity": 87}, {"time": 3621, "pitch": 63, "duration": 9, "velocity": 87}, {"time": 3627, "pitch": 67, "duration": 6, "velocity": 87}, {"time": 3633, "pitch": 63, "duration": 7, "velocity": 87}, {"time": 3639, "pitch": 44, "duration": 29, "velocity": 87}, {"time": 3645, "pitch": 51, "duration": 29, "velocity": 87}, {"time": 3651, "pitch": 56, "duration": 12, "velocity": 87}, {"time": 3657, "pitch": 60, "duration": 7, "velocity": 87}, {"time": 3663, "pitch": 63, "duration": 11, "velocity": 87}, {"time": 3669, "pitch": 60, "duration": 6, "velocity": 87}, {"time": 3675, "pitch": 46, "duration": 24, "velocity": 87}, {"time": 3681, "pitch": 53, "duration": 20, "velocity": 87}, {"time": 3687, "pitch": 58, "duration": 21, "velocity": 87}, {"time": 3693, "pitch": 62, "duration": 8, "velocity": 87}, {"time": 3699, "pitch": 65, "duration": 10, "velocity": 87}, {"time": 3711, "pitch": 51, "duration": 28, "velocity": 87}, {"time": 3717, "pitch": 58, "duration": 37, "velocity": 87}, {"time": 3723, "pitch": 63, "duration": 26, "velocity": 87}, {"time": 3729, "pitch": 67, "duration": 24, "velocity": 87}, {"time": 3735, "pitch": 70, "duration": 13, "velocity": 87}, {"time": 3747, "pitch": 43, "duration": 27, "velocity": 87}, {"time": 3747, "pitch": 75, "duration": 15, "velocity": 87}, {"time": 3753, "pitch": 50, "duration": 26, "velocity": 87}, {"time": 3759, "pitch": 55, "duration": 20, "velocity": 87}, {"time": 3771, "pitch": 59, "duration": 11, "velocity": 87}, {"time": 3777, "pitch": 62, "duration": 6, "velocity": 87}, {"time": 3783, "pitch": 48, "duration": 36, "velocity": 87}, {"time": 3789, "pitch": 55, "duration": 54, "velocity": 87}, {"time": 3795, "pitch": 60, "duration": 13, "velocity": 87}, {"time": 3801, "pitch": 63, "duration": 37, "velocity": 87}, {"time": 3807, "pitch": 67, "duration": 13, "velocity": 87}, {"time": 3812, "pitch": 72, "duration": 28, "velocity": 87}, {"time": 3813, "pitch": 60, "duration": 12, "velocity": 87}, {"time": 3819, "pitch": 48, "duration": 36, "velocity": 87}, {"time": 3831, "pitch": 60, "duration": 11, "velocity": 87}, {"time": 3837, "pitch": 67, "duration": 8, "velocity": 87}, {"time": 3843, "pitch": 63, "duration": 11, "velocity": 87}, {"time": 3852, "pitch": 67, "duration": 2, "velocity": 87}, {"time": 3855, "pitch": 53, "duration": 28, "velocity": 87}, {"time": 3861, "pitch": 60, "duration": 19, "velocity": 87}, {"time": 3867, "pitch": 65, "duration": 11, "velocity": 87}, {"time": 3873, "pitch": 67, "duration": 9, "velocity": 87}, {"time": 3879, "pitch": 68, "duration": 8, "velocity": 87}, {"time": 3891, "pitch": 53, "duration": 35, "velocity": 87}, {"time": 3897, "pitch": 60, "duration": 29, "velocity": 87}, {"time": 3903, "pitch": 65, "duration": 21, "velocity": 87}, {"time": 3909, "pitch": 67, "duration": 9, "velocity": 87}, {"time": 3915, "pitch": 68, "duration": 7, "velocity": 87}, {"time": 3921, "pitch": 70, "duration": 7, "velocity": 87}, {"time": 3927, "pitch": 44, "duration": 29, "velocity": 87}, {"time": 3933, "pitch": 51, "duration": 28, "velocity": 87}, {"time": 3939, "pitch": 56, "duration": 15, "velocity": 87}, {"time": 3945, "pitch": 58, "duration": 8, "velocity": 87}, {"time": 3951, "pitch": 60, "duration": 7, "velocity": 87}, {"time": 3963, "pitch": 46, "duration": 28, "velocity": 87}, {"time": 3963, "pitch": 60, "duration": 10, "velocity": 87}, {"time": 3963, "pitch": 63, "duration": 9, "velocity": 87}, {"time": 3975, "pitch": 62, "duration": 23, "velocity": 87}, {"time": 3975, "pitch": 65, "duration": 22, "velocity": 87}, {"time": 3987, "pitch": 53, "duration": 10, "velocity": 87}, {"time": 3999, "pitch": 48, "duration": 21, "velocity": 87}, {"time": 4005, "pitch": 55, "duration": 33, "velocity": 87}, {"time": 4011, "pitch": 60, "duration": 23, "velocity": 87}, {"time": 4017, "pitch": 63, "duration": 9, "velocity": 87}, {"time": 4023, "pitch": 67, "duration": 10, "velocity": 87}, {"time": 4035, "pitch": 48, "duration": 39, "velocity": 87}, {"time": 4035, "pitch": 55, "duration": 3, "velocity": 87}, {"time": 4035, "pitch": 64, "duration": 29, "velocity": 87}, {"time": 4071, "pitch": 48, "duration": 3, "velocity": 87}, {"time": 4077, "pitch": 55, "duration": 57, "velocity": 87}, {"time": 4083, "pitch": 60, "duration": 19, "velocity": 88}, {"time": 4089, "pitch": 63, "duration": 13, "velocity": 88}, {"time": 4095, "pitch": 67, "duration": 10, "velocity": 88}, {"time": 4107, "pitch": 60, "duration": 5, "velocity": 88}, {"time": 4107, "pitch": 63, "duration": 20, "velocity": 88}, {"time": 4119, "pitch": 60, "duration": 8, "velocity": 88}, {"time": 4125, "pitch": 67, "duration": 7, "velocity": 88}, {"time": 4131, "pitch": 63, "duration": 13, "velocity": 88}, {"time": 4143, "pitch": 46, "duration": 69, "velocity": 88}, {"time": 4143, "pitch": 62, "duration": 15, "velocity": 88}, {"time": 4143, "pitch": 65, "duration": 19, "velocity": 88}, {"time": 4149, "pitch": 53, "duration": 60, "velocity": 88}, {"time": 4155, "pitch": 58, "duration": 16, "velocity": 88}, {"time": 4161, "pitch": 62, "duration": 9, "velocity": 88}, {"time": 4167, "pitch": 65, "duration": 13, "velocity": 88}, {"time": 4173, "pitch": 62, "duration": 8, "velocity": 88}, {"time": 4179, "pitch": 58, "duration": 19, "velocity": 88}, {"time": 4191, "pitch": 62, "duration": 8, "velocity": 88}, {"time": 4197, "pitch": 50, "duration": 13, "velocity": 88}, {"time": 4203, "pitch": 65, "duration": 7, "velocity": 88}, {"time": 4209, "pitch": 62, "duration": 6, "velocity": 88}, {"time": 4215, "pitch": 44, "duration": 30, "velocity": 88}, {"time": 4215, "pitch": 60, "duration": 12, "velocity": 88}, {"time": 4221, "pitch": 51, "duration": 29, "velocity": 88}, {"time": 4227, "pitch": 56, "duration": 18, "velocity": 88}, {"time": 4233, "pitch": 60, "duration": 10, "velocity": 88}, {"time": 4239, "pitch": 63, "duration": 12, "velocity": 88}, {"time": 4245, "pitch": 60, "duration": 6, "velocity": 88}, {"time": 4251, "pitch": 46, "duration": 31, "velocity": 88}, {"time": 4257, "pitch": 53, "duration": 29, "velocity": 89}, {"time": 4263, "pitch": 58, "duration": 16, "velocity": 89}, {"time": 4269, "pitch": 62, "duration": 5, "velocity": 89}, {"time": 4275, "pitch": 65, "duration": 11, "velocity": 89}, {"time": 4281, "pitch": 62, "duration": 7, "velocity": 89}, {"time": 4287, "pitch": 51, "duration": 28, "velocity": 89}, {"time": 4293, "pitch": 58, "duration": 18, "velocity": 89}, {"time": 4299, "pitch": 63, "duration": 9, "velocity": 89}, {"time": 4305, "pitch": 67, "duration": 7, "velocity": 89}, {"time": 4311, "pitch": 70, "duration": 6, "velocity": 89}, {"time": 4317, "pitch": 67, "duration": 5, "velocity": 89}, {"time": 4323, "pitch": 43, "duration": 37, "velocity": 89}, {"time": 4329, "pitch": 50, "duration": 26, "velocity": 90}, {"time": 4335, "pitch": 55, "duration": 16, "velocity": 90}, {"time": 4341, "pitch": 59, "duration": 13, "velocity": 90}, {"time": 4347, "pitch": 62, "duration": 11, "velocity": 90}, {"time": 4353, "pitch": 47, "duration": 6, "velocity": 90}, {"time": 4359, "pitch": 48, "duration": 61, "velocity": 90}, {"time": 4359, "pitch": 63, "duration": 14, "velocity": 90}, {"time": 4365, "pitch": 55, "duration": 52, "velocity": 90}, {"time": 4371, "pitch": 60, "duration": 10, "velocity": 90}, {"time": 4377, "pitch": 63, "duration": 11, "velocity": 90}, {"time": 4383, "pitch": 67, "duration": 8, "velocity": 90}, {"time": 4389, "pitch": 60, "duration": 10, "velocity": 90}, {"time": 4395, "pitch": 63, "duration": 21, "velocity": 90}, {"time": 4395, "pitch": 67, "duration": 22, "velocity": 90}, {"time": 4401, "pitch": 60, "duration": 11, "velocity": 90}, {"time": 4419, "pitch": 63, "duration": 4, "velocity": 90}, {"time": 4419, "pitch": 67, "duration": 3, "velocity": 90}, {"time": 4431, "pitch": 41, "duration": 61, "velocity": 90}, {"time": 4437, "pitch": 48, "duration": 58, "velocity": 90}, {"time": 4443, "pitch": 53, "duration": 9, "velocity": 90}, {"time": 4449, "pitch": 45, "duration": 44, "velocity": 90}, {"time": 4455, "pitch": 57, "duration": 8, "velocity": 90}, {"time": 4461, "pitch": 53, "duration": 10, "velocity": 90}, {"time": 4467, "pitch": 57, "duration": 20, "velocity": 90}, {"time": 4467, "pitch": 60, "duration": 14, "velocity": 90}, {"time": 4479, "pitch": 53, "duration": 18, "velocity": 90}, {"time": 4491, "pitch": 57, "duration": 8, "velocity": 90}, {"time": 4491, "pitch": 60, "duration": 6, "velocity": 90}, {"time": 4503, "pitch": 44, "duration": 27, "velocity": 90}, {"time": 4503, "pitch": 60, "duration": 21, "velocity": 90}, {"time": 4503, "pitch": 63, "duration": 21, "velocity": 90}, {"time": 4509, "pitch": 51, "duration": 29, "velocity": 90}, {"time": 4515, "pitch": 56, "duration": 8, "velocity": 90}, {"time": 4527, "pitch": 56, "duration": 10, "velocity": 90}, {"time": 4527, "pitch": 60, "duration": 6, "velocity": 90}, {"time": 4527, "pitch": 63, "duration": 1, "velocity": 90}, {"time": 4539, "pitch": 46, "duration": 29, "velocity": 90}, {"time": 4539, "pitch": 62, "duration": 21, "velocity": 90}, {"time": 4539, "pitch": 65, "duration": 21, "velocity": 90}, {"time": 4545, "pitch": 53, "duration": 30, "velocity": 91}, {"time": 4551, "pitch": 58, "duration": 23, "velocity": 91}, {"time": 4563, "pitch": 62, "duration": 7, "velocity": 91}, {"time": 4563, "pitch": 65, "duration": 7, "velocity": 91}, {"time": 4575, "pitch": 48, "duration": 66, "velocity": 91}, {"time": 4581, "pitch": 55, "duration": 59, "velocity": 91}, {"time": 4587, "pitch": 60, "duration": 14, "velocity": 91}, {"time": 4593, "pitch": 63, "duration": 10, "velocity": 91}, {"time": 4599, "pitch": 67, "duration": 33, "velocity": 91}, {"time": 4605, "pitch": 60, "duration": 10, "velocity": 91}, {"time": 4611, "pitch": 63, "duration": 20, "velocity": 91}, {"time": 4611, "pitch": 72, "duration": 21, "velocity": 91}, {"time": 4623, "pitch": 60, "duration": 11, "velocity": 91}, {"time": 4635, "pitch": 63, "duration": 10, "velocity": 91}, {"time": 4635, "pitch": 67, "duration": 10, "velocity": 91}, {"time": 4635, "pitch": 72, "duration": 9, "velocity": 91}, {"time": 4647, "pitch": 44, "duration": 30, "velocity": 91}, {"time": 4653, "pitch": 51, "duration": 30, "velocity": 91}, {"time": 4659, "pitch": 56, "duration": 19, "velocity": 91}, {"time": 4671, "pitch": 60, "duration": 3, "velocity": 91}, {"time": 4671, "pitch": 63, "duration": 3, "velocity": 91}, {"time": 4671, "pitch": 68, "duration": 3, "velocity": 91}, {"time": 4683, "pitch": 46, "duration": 27, "velocity": 91}, {"time": 4683, "pitch": 62, "duration": 22, "velocity": 91}, {"time": 4683, "pitch": 65, "duration": 22, "velocity": 91}, {"time": 4689, "pitch": 53, "duration": 21, "velocity": 91}, {"time": 4700, "pitch": 58, "duration": 10, "velocity": 91}, {"time": 4707, "pitch": 62, "duration": 4, "velocity": 91}, {"time": 4707, "pitch": 65, "duration": 4, "velocity": 91}, {"time": 4719, "pitch": 51, "duration": 27, "velocity": 91}, {"time": 4719, "pitch": 67, "duration": 22, "velocity": 91}, {"time": 4719, "pitch": 70, "duration": 22, "velocity": 91}, {"time": 4731, "pitch": 58, "duration": 13, "velocity": 91}, {"time": 4743, "pitch": 67, "duration": 12, "velocity": 91}, {"time": 4743, "pitch": 70, "duration": 12, "velocity": 91}, {"time": 4755, "pitch": 48, "duration": 27, "velocity": 91}, {"time": 4761, "pitch": 55, "duration": 19, "velocity": 91}, {"time": 4767, "pitch": 60, "duration": 9, "velocity": 91}, {"time": 4773, "pitch": 63, "duration": 3, "velocity": 91}, {"time": 4779, "pitch": 63, "duration": 4, "velocity": 91}, {"time": 4779, "pitch": 67, "duration": 4, "velocity": 91}, {"time": 4791, "pitch": 44, "duration": 28, "velocity": 91}, {"time": 4791, "pitch": 60, "duration": 22, "velocity": 91}, {"time": 4791, "pitch": 63, "duration": 21, "velocity": 91}, {"time": 4797, "pitch": 51, "duration": 29, "velocity": 91}, {"time": 4803, "pitch": 56, "duration": 16, "velocity": 91}, {"time": 4815, "pitch": 60, "duration": 3, "velocity": 91}, {"time": 4815, "pitch": 63, "duration": 3, "velocity": 91}, {"time": 4827, "pitch": 46, "duration": 27, "velocity": 91}, {"time": 4827, "pitch": 62, "duration": 22, "velocity": 91}, {"time": 4827, "pitch": 65, "duration": 23, "velocity": 91}, {"time": 4833, "pitch": 53, "duration": 20, "velocity": 91}, {"time": 4839, "pitch": 58, "duration": 22, "velocity": 91}, {"time": 4851, "pitch": 62, "duration": 11, "velocity": 91}, {"time": 4851, "pitch": 65, "duration": 11, "velocity": 91}, {"time": 4851, "pitch": 70, "duration": 11, "velocity": 91}, {"time": 4863, "pitch": 43, "duration": 61, "velocity": 91}, {"time": 4863, "pitch": 60, "duration": 22, "velocity": 91}, {"time": 4875, "pitch": 50, "duration": 52, "velocity": 91}, {"time": 4875, "pitch": 55, "duration": 12, "velocity": 91}, {"time": 4881, "pitch": 47, "duration": 46, "velocity": 91}, {"time": 4887, "pitch": 60, "duration": 9, "velocity": 91}, {"time": 4899, "pitch": 55, "duration": 4, "velocity": 91}, {"time": 4899, "pitch": 59, "duration": 21, "velocity": 91}, {"time": 4911, "pitch": 55, "duration": 13, "velocity": 91}, {"time": 4923, "pitch": 59, "duration": 9, "velocity": 90}, {"time": 4935, "pitch": 44, "duration": 30, "velocity": 90}, {"time": 4935, "pitch": 60, "duration": 19, "velocity": 90}, {"time": 4935, "pitch": 63, "duration": 19, "velocity": 90}, {"time": 4935, "pitch": 68, "duration": 19, "velocity": 90}, {"time": 4947, "pitch": 51, "duration": 24, "velocity": 90}, {"time": 4947, "pitch": 56, "duration": 13, "velocity": 90}, {"time": 4959, "pitch": 60, "duration": 7, "velocity": 90}, {"time": 4959, "pitch": 63, "duration": 3, "velocity": 90}, {"time": 4959, "pitch": 68, "duration": 2, "velocity": 90}, {"time": 4965, "pitch": 56, "duration": 5, "velocity": 90}, {"time": 4965, "pitch": 63, "duration": 2, "velocity": 90}, {"time": 4971, "pitch": 46, "duration": 26, "velocity": 90}, {"time": 4971, "pitch": 62, "duration": 21, "velocity": 90}, {"time": 4971, "pitch": 65, "duration": 22, "velocity": 90}, {"time": 4971, "pitch": 70, "duration": 21, "velocity": 90}, {"time": 4983, "pitch": 53, "duration": 15, "velocity": 90}, {"time": 4989, "pitch": 58, "duration": 16, "velocity": 90}, {"time": 4995, "pitch": 62, "duration": 6, "velocity": 90}, {"time": 4995, "pitch": 65, "duration": 6, "velocity": 90}, {"time": 4995, "pitch": 70, "duration": 6, "velocity": 90}, {"time": 5007, "pitch": 51, "duration": 27, "velocity": 90}, {"time": 5007, "pitch": 67, "duration": 16, "velocity": 90}, {"time": 5007, "pitch": 70, "duration": 2, "velocity": 90}, {"time": 5013, "pitch": 58, "duration": 18, "velocity": 90}, {"time": 5019, "pitch": 63, "duration": 8, "velocity": 90}, {"time": 5025, "pitch": 67, "duration": 3, "velocity": 89}, {"time": 5031, "pitch": 67, "duration": 10, "velocity": 89}, {"time": 5043, "pitch": 48, "duration": 24, "velocity": 89}, {"time": 5049, "pitch": 55, "duration": 18, "velocity": 89}, {"time": 5055, "pitch": 60, "duration": 9, "velocity": 89}, {"time": 5067, "pitch": 63, "duration": 10, "velocity": 89}, {"time": 5067, "pitch": 67, "duration": 9, "velocity": 89}, {"time": 5067, "pitch": 72, "duration": 9, "velocity": 89}, {"time": 5073, "pitch": 46, "duration": 4, "velocity": 89}, {"time": 5079, "pitch": 44, "duration": 30, "velocity": 89}, {"time": 5084, "pitch": 51, "duration": 30, "velocity": 89}, {"time": 5091, "pitch": 56, "duration": 12, "velocity": 89}, {"time": 5103, "pitch": 60, "duration": 7, "velocity": 89}, {"time": 5103, "pitch": 63, "duration": 7, "velocity": 89}, {"time": 5103, "pitch": 67, "duration": 3, "velocity": 89}, {"time": 5103, "pitch": 68, "duration": 6, "velocity": 89}, {"time": 5109, "pitch": 56, "duration": 4, "velocity": 89}, {"time": 5115, "pitch": 46, "duration": 26, "velocity": 89}, {"time": 5115, "pitch": 62, "duration": 21, "velocity": 89}, {"time": 5115, "pitch": 65, "duration": 20, "velocity": 89}, {"time": 5115, "pitch": 70, "duration": 19, "velocity": 89}, {"time": 5121, "pitch": 53, "duration": 30, "velocity": 89}, {"time": 5127, "pitch": 58, "duration": 7, "velocity": 89}, {"time": 5133, "pitch": 50, "duration": 12, "velocity": 89}, {"time": 5139, "pitch": 58, "duration": 11, "velocity": 89}, {"time": 5139, "pitch": 62, "duration": 4, "velocity": 89}, {"time": 5139, "pitch": 65, "duration": 3, "velocity": 89}, {"time": 5139, "pitch": 70, "duration": 3, "velocity": 89}, {"time": 5151, "pitch": 48, "duration": 30, "velocity": 89}, {"time": 5151, "pitch": 63, "duration": 21, "velocity": 89}, {"time": 5151, "pitch": 67, "duration": 16, "velocity": 89}, {"time": 5151, "pitch": 72, "duration": 20, "velocity": 89}, {"time": 5163, "pitch": 55, "duration": 20, "velocity": 89}, {"time": 5169, "pitch": 60, "duration": 9, "velocity": 88}, {"time": 5169, "pitch": 67, "duration": 3, "velocity": 88}, {"time": 5175, "pitch": 63, "duration": 8, "velocity": 88}, {"time": 5175, "pitch": 67, "duration": 7, "velocity": 88}, {"time": 5175, "pitch": 72, "duration": 7, "velocity": 88}, {"time": 5181, "pitch": 60, "duration": 3, "velocity": 88}, {"time": 5187, "pitch": 48, "duration": 12, "velocity": 88}, {"time": 5187, "pitch": 63, "duration": 16, "velocity": 88}, {"time": 5187, "pitch": 67, "duration": 15, "velocity": 88}, {"time": 5187, "pitch": 72, "duration": 15, "velocity": 88}, {"time": 5223, "pitch": 44, "duration": 24, "velocity": 88}, {"time": 5223, "pitch": 60, "duration": 21, "velocity": 88}, {"time": 5223, "pitch": 63, "duration": 22, "velocity": 88}, {"time": 5223, "pitch": 68, "duration": 22, "velocity": 88}, {"time": 5229, "pitch": 51, "duration": 31, "velocity": 88}, {"time": 5235, "pitch": 56, "duration": 6, "velocity": 88}, {"time": 5241, "pitch": 48, "duration": 17, "velocity": 88}, {"time": 5247, "pitch": 56, "duration": 11, "velocity": 88}, {"time": 5247, "pitch": 60, "duration": 2, "velocity": 88}, {"time": 5247, "pitch": 63, "duration": 2, "velocity": 88}, {"time": 5247, "pitch": 68, "duration": 2, "velocity": 88}, {"time": 5253, "pitch": 62, "duration": 1, "velocity": 88}, {"time": 5259, "pitch": 46, "duration": 29, "velocity": 88}, {"time": 5259, "pitch": 62, "duration": 21, "velocity": 88}, {"time": 5259, "pitch": 65, "duration": 22, "velocity": 88}, {"time": 5259, "pitch": 70, "duration": 21, "velocity": 88}, {"time": 5265, "pitch": 53, "duration": 21, "velocity": 88}, {"time": 5271, "pitch": 58, "duration": 6, "velocity": 88}, {"time": 5277, "pitch": 50, "duration": 10, "velocity": 88}, {"time": 5283, "pitch": 58, "duration": 4, "velocity": 88}, {"time": 5283, "pitch": 62, "duration": 3, "velocity": 88}, {"time": 5283, "pitch": 65, "duration": 2, "velocity": 88}, {"time": 5283, "pitch": 70, "duration": 2, "velocity": 88}, {"time": 5295, "pitch": 43, "duration": 23, "velocity": 88}, {"time": 5295, "pitch": 58, "duration": 19, "velocity": 88}, {"time": 5295, "pitch": 62, "duration": 20, "velocity": 88}, {"time": 5295, "pitch": 67, "duration": 20, "velocity": 88}, {"time": 5301, "pitch": 50, "duration": 20, "velocity": 88}, {"time": 5307, "pitch": 55, "duration": 6, "velocity": 88}, {"time": 5313, "pitch": 46, "duration": 7, "velocity": 88}, {"time": 5318, "pitch": 55, "duration": 10, "velocity": 88}, {"time": 5319, "pitch": 58, "duration": 2, "velocity": 88}, {"time": 5319, "pitch": 62, "duration": 2, "velocity": 88}, {"time": 5319, "pitch": 67, "duration": 2, "velocity": 88}, {"time": 5331, "pitch": 48, "duration": 22, "velocity": 88}, {"time": 5331, "pitch": 63, "duration": 16, "velocity": 88}, {"time": 5331, "pitch": 67, "duration": 16, "velocity": 88}, {"time": 5331, "pitch": 72, "duration": 16, "velocity": 88}, {"time": 5334, "pitch": 55, "duration": 16, "velocity": 88}, {"time": 5343, "pitch": 60, "duration": 8, "velocity": 88}, {"time": 5349, "pitch": 63, "duration": 3, "velocity": 88}, {"time": 5349, "pitch": 67, "duration": 2, "velocity": 88}, {"time": 5349, "pitch": 72, "duration": 2, "velocity": 88}, {"time": 5355, "pitch": 46, "duration": 7, "velocity": 88}, {"time": 5355, "pitch": 62, "duration": 7, "velocity": 88}, {"time": 5355, "pitch": 65, "duration": 7, "velocity": 88}, {"time": 5355, "pitch": 70, "duration": 7, "velocity": 88}, {"time": 5367, "pitch": 44, "duration": 30, "velocity": 88}, {"time": 5367, "pitch": 60, "duration": 21, "velocity": 88}, {"time": 5367, "pitch": 63, "duration": 21, "velocity": 88}, {"time": 5367, "pitch": 68, "duration": 20, "velocity": 88}, {"time": 5373, "pitch": 51, "duration": 30, "velocity": 88}, {"time": 5379, "pitch": 56, "duration": 23, "velocity": 88}, {"time": 5385, "pitch": 48, "duration": 18, "velocity": 88}, {"time": 5391, "pitch": 60, "duration": 4, "velocity": 88}, {"time": 5391, "pitch": 63, "duration": 3, "velocity": 88}, {"time": 5391, "pitch": 68, "duration": 3, "velocity": 88}, {"time": 5403, "pitch": 46, "duration": 27, "velocity": 88}, {"time": 5403, "pitch": 62, "duration": 21, "velocity": 88}, {"time": 5403, "pitch": 65, "duration": 21, "velocity": 88}, {"time": 5403, "pitch": 70, "duration": 21, "velocity": 88}, {"time": 5409, "pitch": 53, "duration": 25, "velocity": 88}, {"time": 5415, "pitch": 58, "duration": 24, "velocity": 88}, {"time": 5420, "pitch": 50, "duration": 6, "velocity": 88}, {"time": 5427, "pitch": 62, "duration": 10, "velocity": 88}, {"time": 5427, "pitch": 65, "duration": 9, "velocity": 88}, {"time": 5427, "pitch": 70, "duration": 10, "velocity": 88}, {"time": 5439, "pitch": 51, "duration": 26, "velocity": 88}, {"time": 5445, "pitch": 58, "duration": 19, "velocity": 88}, {"time": 5451, "pitch": 63, "duration": 11, "velocity": 88}, {"time": 5457, "pitch": 67, "duration": 15, "velocity": 88}, {"time": 5463, "pitch": 70, "duration": 8, "velocity": 88}, {"time": 5475, "pitch": 43, "duration": 25, "velocity": 88}, {"time": 5481, "pitch": 50, "duration": 27, "velocity": 88}, {"time": 5487, "pitch": 47, "duration": 14, "velocity": 88}, {"time": 5492, "pitch": 55, "duration": 17, "velocity": 88}, {"time": 5499, "pitch": 59, "duration": 9, "velocity": 88}, {"time": 5511, "pitch": 44, "duration": 31, "velocity": 88}, {"time": 5516, "pitch": 51, "duration": 33, "velocity": 88}, {"time": 5523, "pitch": 56, "duration": 17, "velocity": 88}, {"time": 5528, "pitch": 48, "duration": 15, "velocity": 88}, {"time": 5535, "pitch": 60, "duration": 8, "velocity": 88}, {"time": 5535, "pitch": 63, "duration": 8, "velocity": 88}, {"time": 5544, "pitch": 56, "duration": 3, "velocity": 88}, {"time": 5547, "pitch": 46, "duration": 28, "velocity": 88}, {"time": 5547, "pitch": 62, "duration": 21, "velocity": 88}, {"time": 5547, "pitch": 65, "duration": 21, "velocity": 88}, {"time": 5553, "pitch": 53, "duration": 25, "velocity": 88}, {"time": 5559, "pitch": 58, "duration": 7, "velocity": 88}, {"time": 5565, "pitch": 50, "duration": 15, "velocity": 88}, {"time": 5571, "pitch": 58, "duration": 8, "velocity": 88}, {"time": 5571, "pitch": 62, "duration": 10, "velocity": 88}, {"time": 5571, "pitch": 65, "duration": 10, "velocity": 88}, {"time": 5571, "pitch": 70, "duration": 12, "velocity": 88}, {"time": 5583, "pitch": 43, "duration": 24, "velocity": 88}, {"time": 5589, "pitch": 50, "duration": 19, "velocity": 88}, {"time": 5595, "pitch": 55, "duration": 9, "velocity": 88}, {"time": 5601, "pitch": 46, "duration": 7, "velocity": 88}, {"time": 5607, "pitch": 58, "duration": 10, "velocity": 88}, {"time": 5607, "pitch": 62, "duration": 10, "velocity": 88}, {"time": 5607, "pitch": 67, "duration": 10, "velocity": 88}, {"time": 5610, "pitch": 55, "duration": 7, "velocity": 88}, {"time": 5619, "pitch": 48, "duration": 28, "velocity": 88}, {"time": 5625, "pitch": 55, "duration": 19, "velocity": 88}, {"time": 5631, "pitch": 60, "duration": 12, "velocity": 88}, {"time": 5637, "pitch": 51, "duration": 8, "velocity": 88}, {"time": 5643, "pitch": 63, "duration": 4, "velocity": 88}, {"time": 5643, "pitch": 67, "duration": 4, "velocity": 88}, {"time": 5643, "pitch": 72, "duration": 4, "velocity": 88}, {"time": 5655, "pitch": 44, "duration": 27, "velocity": 88}, {"time": 5655, "pitch": 60, "duration": 18, "velocity": 88}, {"time": 5655, "pitch": 63, "duration": 19, "velocity": 88}, {"time": 5655, "pitch": 68, "duration": 19, "velocity": 88}, {"time": 5661, "pitch": 51, "duration": 28, "velocity": 88}, {"time": 5667, "pitch": 56, "duration": 8, "velocity": 88}, {"time": 5673, "pitch": 48, "duration": 15, "velocity": 88}, {"time": 5679, "pitch": 56, "duration": 9, "velocity": 88}, {"time": 5679, "pitch": 60, "duration": 3, "velocity": 88}, {"time": 5679, "pitch": 63, "duration": 2, "velocity": 88}, {"time": 5679, "pitch": 68, "duration": 2, "velocity": 88}, {"time": 5691, "pitch": 46, "duration": 26, "velocity": 88}, {"time": 5691, "pitch": 62, "duration": 22, "velocity": 88}, {"time": 5691, "pitch": 65, "duration": 23, "velocity": 88}, {"time": 5691, "pitch": 53, "duration": 34, "velocity": 88}, {"time": 5703, "pitch": 58, "duration": 7, "velocity": 88}, {"time": 5709, "pitch": 50, "duration": 16, "velocity": 88}, {"time": 5715, "pitch": 58, "duration": 10, "velocity": 88}, {"time": 5715, "pitch": 62, "duration": 6, "velocity": 88}, {"time": 5715, "pitch": 65, "duration": 6, "velocity": 88}, {"time": 5715, "pitch": 70, "duration": 6, "velocity": 88}, {"time": 5727, "pitch": 48, "duration": 60, "velocity": 88}, {"time": 5727, "pitch": 63, "duration": 27, "velocity": 88}, {"time": 5727, "pitch": 67, "duration": 29, "velocity": 88}, {"time": 5727, "pitch": 72, "duration": 31, "velocity": 88}, {"time": 5733, "pitch": 55, "duration": 36, "velocity": 88}, {"time": 5739, "pitch": 60, "duration": 7, "velocity": 88}, {"time": 5744, "pitch": 51, "duration": 25, "velocity": 88}, {"time": 5751, "pitch": 60, "duration": 14, "velocity": 88}, {"time": 5757, "pitch": 63, "duration": 7, "velocity": 88}, {"time": 5763, "pitch": 67, "duration": 4, "velocity": 88}, {"time": 5763, "pitch": 72, "duration": 26, "velocity": 88}, {"time": 5799, "pitch": 44, "duration": 30, "velocity": 88}, {"time": 5799, "pitch": 60, "duration": 21, "velocity": 88}, {"time": 5799, "pitch": 63, "duration": 22, "velocity": 88}, {"time": 5799, "pitch": 68, "duration": 22, "velocity": 88}, {"time": 5805, "pitch": 51, "duration": 30, "velocity": 88}, {"time": 5811, "pitch": 56, "duration": 8, "velocity": 88}, {"time": 5817, "pitch": 48, "duration": 20, "velocity": 88}, {"time": 5823, "pitch": 56, "duration": 10, "velocity": 88}, {"time": 5823, "pitch": 60, "duration": 7, "velocity": 88}, {"time": 5823, "pitch": 63, "duration": 8, "velocity": 88}, {"time": 5823, "pitch": 68, "duration": 7, "velocity": 88}, {"time": 5835, "pitch": 46, "duration": 29, "velocity": 88}, {"time": 5835, "pitch": 62, "duration": 22, "velocity": 88}, {"time": 5835, "pitch": 65, "duration": 22, "velocity": 88}, {"time": 5835, "pitch": 70, "duration": 22, "velocity": 88}, {"time": 5841, "pitch": 53, "duration": 21, "velocity": 88}, {"time": 5847, "pitch": 58, "duration": 7, "velocity": 88}, {"time": 5853, "pitch": 50, "duration": 11, "velocity": 88}, {"time": 5859, "pitch": 62, "duration": 7, "velocity": 88}, {"time": 5859, "pitch": 65, "duration": 5, "velocity": 88}, {"time": 5859, "pitch": 70, "duration": 5, "velocity": 88}, {"time": 5871, "pitch": 43, "duration": 24, "velocity": 88}, {"time": 5871, "pitch": 58, "duration": 21, "velocity": 88}, {"time": 5871, "pitch": 62, "duration": 1, "velocity": 88}, {"time": 5877, "pitch": 50, "duration": 21, "velocity": 88}, {"time": 5883, "pitch": 55, "duration": 22, "velocity": 88}, {"time": 5889, "pitch": 46, "duration": 8, "velocity": 88}, {"time": 5895, "pitch": 58, "duration": 4, "velocity": 88}, {"time": 5895, "pitch": 62, "duration": 4, "velocity": 88}, {"time": 5895, "pitch": 67, "duration": 4, "velocity": 88}, {"time": 5907, "pitch": 48, "duration": 22, "velocity": 88}, {"time": 5907, "pitch": 63, "duration": 16, "velocity": 88}, {"time": 5907, "pitch": 67, "duration": 15, "velocity": 88}, {"time": 5907, "pitch": 72, "duration": 15, "velocity": 88}, {"time": 5913, "pitch": 55, "duration": 15, "velocity": 88}, {"time": 5919, "pitch": 60, "duration": 7, "velocity": 88}, {"time": 5925, "pitch": 63, "duration": 3, "velocity": 88}, {"time": 5925, "pitch": 67, "duration": 3, "velocity": 88}, {"time": 5925, "pitch": 72, "duration": 3, "velocity": 88}, {"time": 5931, "pitch": 46, "duration": 7, "velocity": 88}, {"time": 5931, "pitch": 62, "duration": 5, "velocity": 88}, {"time": 5931, "pitch": 65, "duration": 6, "velocity": 88}, {"time": 5931, "pitch": 70, "duration": 6, "velocity": 88}, {"time": 5937, "pitch": 48, "duration": 2, "velocity": 88}, {"time": 5943, "pitch": 44, "duration": 27, "velocity": 88}, {"time": 5943, "pitch": 60, "duration": 22, "velocity": 88}, {"time": 5943, "pitch": 63, "duration": 22, "velocity": 88}, {"time": 5943, "pitch": 68, "duration": 22, "velocity": 88}, {"time": 5949, "pitch": 51, "duration": 31, "velocity": 88}, {"time": 5955, "pitch": 56, "duration": 8, "velocity": 88}, {"time": 5960, "pitch": 48, "duration": 18, "velocity": 88}, {"time": 5967, "pitch": 56, "duration": 12, "velocity": 88}, {"time": 5967, "pitch": 60, "duration": 7, "velocity": 88}, {"time": 5967, "pitch": 63, "duration": 4, "velocity": 88}, {"time": 5967, "pitch": 68, "duration": 3, "velocity": 88}, {"time": 5973, "pitch": 63, "duration": 1, "velocity": 88}, {"time": 5979, "pitch": 46, "duration": 25, "velocity": 88}, {"time": 5979, "pitch": 62, "duration": 22, "velocity": 88}, {"time": 5979, "pitch": 65, "duration": 22, "velocity": 88}, {"time": 5979, "pitch": 70, "duration": 22, "velocity": 88}, {"time": 5985, "pitch": 53, "duration": 23, "velocity": 88}, {"time": 5991, "pitch": 58, "duration": 6, "velocity": 88}, {"time": 5997, "pitch": 50, "duration": 7, "velocity": 88}, {"time": 6003, "pitch": 58, "duration": 12, "velocity": 88}, {"time": 6003, "pitch": 62, "duration": 8, "velocity": 88}, {"time": 6003, "pitch": 65, "duration": 8, "velocity": 88}, {"time": 6003, "pitch": 70, "duration": 9, "velocity": 88}, {"time": 6015, "pitch": 51, "duration": 36, "velocity": 88}, {"time": 6021, "pitch": 58, "duration": 30, "velocity": 89}, {"time": 6027, "pitch": 63, "duration": 11, "velocity": 89}, {"time": 6033, "pitch": 67, "duration": 19, "velocity": 89}, {"time": 6039, "pitch": 70, "duration": 9, "velocity": 89}, {"time": 6045, "pitch": 63, "duration": 8, "velocity": 89}, {"time": 6051, "pitch": 43, "duration": 30, "velocity": 89}, {"time": 6051, "pitch": 72, "duration": 8, "velocity": 89}, {"time": 6057, "pitch": 50, "duration": 29, "velocity": 89}, {"time": 6063, "pitch": 55, "duration": 23, "velocity": 89}, {"time": 6069, "pitch": 47, "duration": 17, "velocity": 89}, {"time": 6081, "pitch": 62, "duration": 7, "velocity": 89}, {"time": 6087, "pitch": 44, "duration": 31, "velocity": 89}, {"time": 6093, "pitch": 51, "duration": 31, "velocity": 89}, {"time": 6099, "pitch": 56, "duration": 14, "velocity": 89}, {"time": 6105, "pitch": 48, "duration": 16, "velocity": 89}, {"time": 6111, "pitch": 60, "duration": 8, "velocity": 89}, {"time": 6111, "pitch": 63, "duration": 8, "velocity": 89}, {"time": 6111, "pitch": 68, "duration": 8, "velocity": 89}, {"time": 6117, "pitch": 56, "duration": 7, "velocity": 89}, {"time": 6123, "pitch": 46, "duration": 31, "velocity": 90}, {"time": 6123, "pitch": 62, "duration": 22, "velocity": 90}, {"time": 6123, "pitch": 65, "duration": 22, "velocity": 90}, {"time": 6123, "pitch": 70, "duration": 21, "velocity": 90}, {"time": 6129, "pitch": 53, "duration": 22, "velocity": 90}, {"time": 6135, "pitch": 58, "duration": 8, "velocity": 90}, {"time": 6141, "pitch": 50, "duration": 13, "velocity": 90}, {"time": 6147, "pitch": 58, "duration": 4, "velocity": 90}, {"time": 6147, "pitch": 62, "duration": 13, "velocity": 90}, {"time": 6147, "pitch": 65, "duration": 2, "velocity": 90}, {"time": 6147, "pitch": 70, "duration": 3, "velocity": 90}, {"time": 6153, "pitch": 65, "duration": 6, "velocity": 90}, {"time": 6153, "pitch": 70, "duration": 6, "velocity": 90}, {"time": 6159, "pitch": 43, "duration": 25, "velocity": 90}, {"time": 6165, "pitch": 50, "duration": 22, "velocity": 90}, {"time": 6171, "pitch": 55, "duration": 24, "velocity": 90}, {"time": 6177, "pitch": 46, "duration": 9, "velocity": 91}, {"time": 6183, "pitch": 58, "duration": 10, "velocity": 91}, {"time": 6183, "pitch": 62, "duration": 10, "velocity": 91}, {"time": 6183, "pitch": 67, "duration": 9, "velocity": 91}, {"time": 6195, "pitch": 48, "duration": 22, "velocity": 91}, {"time": 6201, "pitch": 55, "duration": 16, "velocity": 91}, {"time": 6207, "pitch": 60, "duration": 8, "velocity": 91}, {"time": 6213, "pitch": 63, "duration": 3, "velocity": 91}, {"time": 6213, "pitch": 67, "duration": 3, "velocity": 91}, {"time": 6213, "pitch": 72, "duration": 3, "velocity": 91}, {"time": 6219, "pitch": 46, "duration": 8, "velocity": 91}, {"time": 6219, "pitch": 62, "duration": 7, "velocity": 91}, {"time": 6219, "pitch": 65, "duration": 6, "velocity": 91}, {"time": 6219, "pitch": 70, "duration": 6, "velocity": 91}, {"time": 6231, "pitch": 44, "duration": 31, "velocity": 91}, {"time": 6231, "pitch": 60, "duration": 19, "velocity": 91}, {"time": 6231, "pitch": 63, "duration": 20, "velocity": 91}, {"time": 6231, "pitch": 68, "duration": 19, "velocity": 91}, {"time": 6237, "pitch": 51, "duration": 31, "velocity": 91}, {"time": 6243, "pitch": 56, "duration": 10, "velocity": 91}, {"time": 6249, "pitch": 48, "duration": 19, "velocity": 91}, {"time": 6255, "pitch": 60, "duration": 7, "velocity": 91}, {"time": 6255, "pitch": 63, "duration": 8, "velocity": 91}, {"time": 6255, "pitch": 68, "duration": 8, "velocity": 91}, {"time": 6258, "pitch": 56, "duration": 9, "velocity": 91}, {"time": 6267, "pitch": 46, "duration": 31, "velocity": 91}, {"time": 6267, "pitch": 62, "duration": 19, "velocity": 91}, {"time": 6267, "pitch": 65, "duration": 19, "velocity": 91}, {"time": 6267, "pitch": 70, "duration": 19, "velocity": 91}, {"time": 6273, "pitch": 53, "duration": 30, "velocity": 91}, {"time": 6279, "pitch": 58, "duration": 14, "velocity": 91}, {"time": 6284, "pitch": 50, "duration": 16, "velocity": 91}, {"time": 6291, "pitch": 62, "duration": 7, "velocity": 91}, {"time": 6291, "pitch": 65, "duration": 7, "velocity": 91}, {"time": 6291, "pitch": 70, "duration": 7, "velocity": 91}, {"time": 6297, "pitch": 58, "duration": 7, "velocity": 91}, {"time": 6303, "pitch": 48, "duration": 72, "velocity": 91}, {"time": 6303, "pitch": 63, "duration": 26, "velocity": 91}, {"time": 6303, "pitch": 67, "duration": 28, "velocity": 91}, {"time": 6303, "pitch": 72, "duration": 30, "velocity": 91}, {"time": 6309, "pitch": 55, "duration": 65, "velocity": 91}, {"time": 6315, "pitch": 60, "duration": 6, "velocity": 91}, {"time": 6321, "pitch": 51, "duration": 55, "velocity": 92}, {"time": 6327, "pitch": 60, "duration": 16, "velocity": 92}, {"time": 6333, "pitch": 63, "duration": 7, "velocity": 92}, {"time": 6336, "pitch": 67, "duration": 5, "velocity": 92}, {"time": 6339, "pitch": 72, "duration": 15, "velocity": 92}, {"time": 6351, "pitch": 60, "duration": 23, "velocity": 92}, {"time": 6375, "pitch": 44, "duration": 24, "velocity": 92}, {"time": 6375, "pitch": 60, "duration": 21, "velocity": 92}, {"time": 6375, "pitch": 63, "duration": 22, "velocity": 92}, {"time": 6375, "pitch": 68, "duration": 22, "velocity": 92}, {"time": 6381, "pitch": 51, "duration": 31, "velocity": 92}, {"time": 6387, "pitch": 56, "duration": 6, "velocity": 92}, {"time": 6393, "pitch": 48, "duration": 17, "velocity": 92}, {"time": 6399, "pitch": 56, "duration": 11, "velocity": 92}, {"time": 6399, "pitch": 60, "duration": 2, "velocity": 92}, {"time": 6399, "pitch": 63, "duration": 2, "velocity": 92}, {"time": 6399, "pitch": 68, "duration": 2, "velocity": 92}, {"time": 6405, "pitch": 62, "duration": 1, "velocity": 92}, {"time": 6411, "pitch": 46, "duration": 29, "velocity": 92}, {"time": 6411, "pitch": 62, "duration": 21, "velocity": 92}, {"time": 6411, "pitch": 65, "duration": 22, "velocity": 92}, {"time": 6411, "pitch": 70, "duration": 21, "velocity": 92}, {"time": 6417, "pitch": 53, "duration": 21, "velocity": 92}, {"time": 6423, "pitch": 58, "duration": 6, "velocity": 92}, {"time": 6429, "pitch": 50, "duration": 10, "velocity": 92}, {"time": 6435, "pitch": 58, "duration": 4, "velocity": 92}, {"time": 6435, "pitch": 62, "duration": 3, "velocity": 92}, {"time": 6435, "pitch": 65, "duration": 2, "velocity": 92}, {"time": 6435, "pitch": 70, "duration": 2, "velocity": 92}, {"time": 6447, "pitch": 43, "duration": 23, "velocity": 92}, {"time": 6447, "pitch": 58, "duration": 19, "velocity": 92}, {"time": 6447, "pitch": 62, "duration": 20, "velocity": 92}, {"time": 6447, "pitch": 67, "duration": 20, "velocity": 92}, {"time": 6453, "pitch": 50, "duration": 20, "velocity": 92}, {"time": 6459, "pitch": 55, "duration": 6, "velocity": 92}, {"time": 6465, "pitch": 46, "duration": 7, "velocity": 92}, {"time": 6470, "pitch": 55, "duration": 10, "velocity": 92}, {"time": 6471, "pitch": 58, "duration": 2, "velocity": 92}, {"time": 6471, "pitch": 62, "duration": 2, "velocity": 92}, {"time": 6471, "pitch": 67, "duration": 2, "velocity": 92}, {"time": 6483, "pitch": 48, "duration": 22, "velocity": 92}, {"time": 6483, "pitch": 63, "duration": 16, "velocity": 92}, {"time": 6483, "pitch": 67, "duration": 16, "velocity": 92}, {"time": 6483, "pitch": 72, "duration": 16, "velocity": 92}, {"time": 6483, "pitch": 55, "duration": 19, "velocity": 92}, {"time": 6495, "pitch": 60, "duration": 8, "velocity": 92}, {"time": 6501, "pitch": 63, "duration": 3, "velocity": 92}, {"time": 6501, "pitch": 67, "duration": 2, "velocity": 92}, {"time": 6501, "pitch": 72, "duration": 2, "velocity": 92}, {"time": 6507, "pitch": 46, "duration": 7, "velocity": 92}, {"time": 6507, "pitch": 62, "duration": 7, "velocity": 92}, {"time": 6507, "pitch": 65, "duration": 7, "velocity": 92}, {"time": 6507, "pitch": 70, "duration": 7, "velocity": 92}, {"time": 6519, "pitch": 44, "duration": 30, "velocity": 92}, {"time": 6519, "pitch": 60, "duration": 21, "velocity": 92}, {"time": 6519, "pitch": 63, "duration": 21, "velocity": 92}, {"time": 6519, "pitch": 68, "duration": 20, "velocity": 92}, {"time": 6525, "pitch": 51, "duration": 30, "velocity": 92}, {"time": 6531, "pitch": 56, "duration": 23, "velocity": 92}, {"time": 6537, "pitch": 48, "duration": 18, "velocity": 92}, {"time": 6543, "pitch": 60, "duration": 4, "velocity": 92}, {"time": 6543, "pitch": 63, "duration": 3, "velocity": 92}, {"time": 6543, "pitch": 68, "duration": 3, "velocity": 92}, {"time": 6555, "pitch": 46, "duration": 27, "velocity": 92}, {"time": 6555, "pitch": 62, "duration": 21, "velocity": 92}, {"time": 6555, "pitch": 65, "duration": 21, "velocity": 92}, {"time": 6555, "pitch": 70, "duration": 21, "velocity": 92}, {"time": 6561, "pitch": 53, "duration": 25, "velocity": 92}, {"time": 6567, "pitch": 58, "duration": 24, "velocity": 92}, {"time": 6572, "pitch": 50, "duration": 6, "velocity": 92}, {"time": 6579, "pitch": 62, "duration": 10, "velocity": 92}, {"time": 6579, "pitch": 65, "duration": 9, "velocity": 92}, {"time": 6579, "pitch": 70, "duration": 10, "velocity": 92}, {"time": 6591, "pitch": 51, "duration": 26, "velocity": 92}, {"time": 6597, "pitch": 58, "duration": 19, "velocity": 92}, {"time": 6603, "pitch": 63, "duration": 11, "velocity": 92}, {"time": 6609, "pitch": 67, "duration": 15, "velocity": 92}, {"time": 6615, "pitch": 70, "duration": 8, "velocity": 92}, {"time": 6627, "pitch": 43, "duration": 25, "velocity": 92}, {"time": 6633, "pitch": 50, "duration": 27, "velocity": 92}, {"time": 6639, "pitch": 47, "duration": 14, "velocity": 92}, {"time": 6644, "pitch": 55, "duration": 17, "velocity": 92}, {"time": 6651, "pitch": 59, "duration": 9, "velocity": 92}, {"time": 6663, "pitch": 44, "duration": 31, "velocity": 92}, {"time": 6668, "pitch": 51, "duration": 33, "velocity": 92}, {"time": 6675, "pitch": 56, "duration": 17, "velocity": 92}, {"time": 6680, "pitch": 48, "duration": 15, "velocity": 92}, {"time": 6687, "pitch": 60, "duration": 8, "velocity": 92}, {"time": 6687, "pitch": 63, "duration": 8, "velocity": 92}, {"time": 6696, "pitch": 56, "duration": 3, "velocity": 92}, {"time": 6699, "pitch": 46, "duration": 28, "velocity": 92}, {"time": 6699, "pitch": 62, "duration": 21, "velocity": 92}, {"time": 6699, "pitch": 65, "duration": 21, "velocity": 92}, {"time": 6705, "pitch": 53, "duration": 25, "velocity": 92}, {"time": 6711, "pitch": 58, "duration": 7, "velocity": 92}, {"time": 6717, "pitch": 50, "duration": 15, "velocity": 92}, {"time": 6723, "pitch": 58, "duration": 8, "velocity": 92}, {"time": 6723, "pitch": 62, "duration": 10, "velocity": 92}, {"time": 6723, "pitch": 65, "duration": 10, "velocity": 92}, {"time": 6723, "pitch": 70, "duration": 12, "velocity": 92}, {"time": 6735, "pitch": 43, "duration": 24, "velocity": 92}, {"time": 6741, "pitch": 50, "duration": 19, "velocity": 92}, {"time": 6747, "pitch": 55, "duration": 9, "velocity": 92}, {"time": 6753, "pitch": 46, "duration": 7, "velocity": 92}, {"time": 6759, "pitch": 58, "duration": 10, "velocity": 92}, {"time": 6759, "pitch": 62, "duration": 10, "velocity": 92}, {"time": 6759, "pitch": 67, "duration": 10, "velocity": 92}, {"time": 6762, "pitch": 55, "duration": 7, "velocity": 92}, {"time": 6771, "pitch": 48, "duration": 28, "velocity": 92}, {"time": 6777, "pitch": 55, "duration": 19, "velocity": 92}, {"time": 6783, "pitch": 60, "duration": 12, "velocity": 92}, {"time": 6789, "pitch": 51, "duration": 8, "velocity": 92}, {"time": 6795, "pitch": 63, "duration": 4, "velocity": 92}, {"time": 6795, "pitch": 67, "duration": 4, "velocity": 92}, {"time": 6795, "pitch": 72, "duration": 4, "velocity": 92}, {"time": 6807, "pitch": 44, "duration": 27, "velocity": 92}, {"time": 6807, "pitch": 60, "duration": 18, "velocity": 92}, {"time": 6807, "pitch": 63, "duration": 19, "velocity": 92}, {"time": 6807, "pitch": 68, "duration": 19, "velocity": 92}, {"time": 6813, "pitch": 51, "duration": 28, "velocity": 92}, {"time": 6819, "pitch": 56, "duration": 8, "velocity": 92}, {"time": 6825, "pitch": 48, "duration": 15, "velocity": 92}, {"time": 6831, "pitch": 56, "duration": 9, "velocity": 92}, {"time": 6831, "pitch": 60, "duration": 3, "velocity": 92}, {"time": 6831, "pitch": 63, "duration": 2, "velocity": 92}, {"time": 6831, "pitch": 68, "duration": 2, "velocity": 92}, {"time": 6843, "pitch": 46, "duration": 26, "velocity": 92}, {"time": 6843, "pitch": 62, "duration": 22, "velocity": 92}, {"time": 6843, "pitch": 65, "duration": 23, "velocity": 92}, {"time": 6843, "pitch": 70, "duration": 23, "velocity": 92}, {"time": 6844, "pitch": 53, "duration": 33, "velocity": 92}, {"time": 6855, "pitch": 58, "duration": 7, "velocity": 92}, {"time": 6861, "pitch": 50, "duration": 16, "velocity": 92}, {"time": 6867, "pitch": 58, "duration": 10, "velocity": 92}, {"time": 6867, "pitch": 62, "duration": 6, "velocity": 92}, {"time": 6867, "pitch": 65, "duration": 6, "velocity": 92}, {"time": 6867, "pitch": 70, "duration": 6, "velocity": 92}, {"time": 6879, "pitch": 48, "duration": 60, "velocity": 92}, {"time": 6879, "pitch": 63, "duration": 27, "velocity": 92}, {"time": 6879, "pitch": 67, "duration": 29, "velocity": 92}, {"time": 6879, "pitch": 72, "duration": 31, "velocity": 92}, {"time": 6879, "pitch": 55, "duration": 42, "velocity": 92}, {"time": 6891, "pitch": 60, "duration": 7, "velocity": 92}, {"time": 6896, "pitch": 51, "duration": 25, "velocity": 92}, {"time": 6903, "pitch": 60, "duration": 14, "velocity": 92}, {"time": 6909, "pitch": 63, "duration": 7, "velocity": 92}, {"time": 6915, "pitch": 67, "duration": 4, "velocity": 92}, {"time": 6915, "pitch": 72, "duration": 26, "velocity": 92}, {"time": 6939, "pitch": 75, "duration": 8, "velocity": 92}, {"time": 6945, "pitch": 77, "duration": 3, "velocity": 92}, {"time": 6951, "pitch": 56, "duration": 31, "velocity": 92}, {"time": 6951, "pitch": 79, "duration": 10, "velocity": 92}, {"time": 6963, "pitch": 65, "duration": 8, "velocity": 92}, {"time": 6963, "pitch": 77, "duration": 10, "velocity": 92}, {"time": 6969, "pitch": 70, "duration": 12, "velocity": 92}, {"time": 6975, "pitch": 82, "duration": 10, "velocity": 92}, {"time": 6987, "pitch": 58, "duration": 33, "velocity": 92}, {"time": 6987, "pitch": 77, "duration": 13, "velocity": 92}, {"time": 6999, "pitch": 65, "duration": 7, "velocity": 92}, {"time": 7005, "pitch": 70, "duration": 17, "velocity": 92}, {"time": 7011, "pitch": 75, "duration": 9, "velocity": 92}, {"time": 7023, "pitch": 60, "duration": 48, "velocity": 92}, {"time": 7023, "pitch": 74, "duration": 10, "velocity": 92}, {"time": 7035, "pitch": 65, "duration": 7, "velocity": 92}, {"time": 7041, "pitch": 70, "duration": 14, "velocity": 92}, {"time": 7041, "pitch": 75, "duration": 4, "velocity": 92}, {"time": 7047, "pitch": 74, "duration": 4, "velocity": 92}, {"time": 7059, "pitch": 70, "duration": 12, "velocity": 92}, {"time": 7059, "pitch": 72, "duration": 20, "velocity": 92}, {"time": 7071, "pitch": 63, "duration": 6, "velocity": 92}, {"time": 7077, "pitch": 70, "duration": 5, "velocity": 92}, {"time": 7083, "pitch": 75, "duration": 5, "velocity": 92}, {"time": 7089, "pitch": 77, "duration": 4, "velocity": 92}, {"time": 7095, "pitch": 56, "duration": 32, "velocity": 92}, {"time": 7095, "pitch": 79, "duration": 7, "velocity": 92}, {"time": 7107, "pitch": 63, "duration": 7, "velocity": 92}, {"time": 7107, "pitch": 77, "duration": 12, "velocity": 92}, {"time": 7113, "pitch": 70, "duration": 20, "velocity": 92}, {"time": 7119, "pitch": 82, "duration": 11, "velocity": 92}, {"time": 7131, "pitch": 58, "duration": 32, "velocity": 92}, {"time": 7131, "pitch": 79, "duration": 11, "velocity": 92}, {"time": 7143, "pitch": 63, "duration": 6, "velocity": 93}, {"time": 7149, "pitch": 70, "duration": 17, "velocity": 93}, {"time": 7149, "pitch": 87, "duration": 6, "velocity": 93}, {"time": 7161, "pitch": 86, "duration": 4, "velocity": 93}, {"time": 7167, "pitch": 60, "duration": 50, "velocity": 93}, {"time": 7167, "pitch": 79, "duration": 16, "velocity": 93}, {"time": 7179, "pitch": 63, "duration": 7, "velocity": 93}, {"time": 7185, "pitch": 70, "duration": 6, "velocity": 93}, {"time": 7191, "pitch": 74, "duration": 6, "velocity": 93}, {"time": 7197, "pitch": 75, "duration": 3, "velocity": 93}, {"time": 7203, "pitch": 70, "duration": 10, "velocity": 93}, {"time": 7203, "pitch": 77, "duration": 12, "velocity": 93}, {"time": 7215, "pitch": 67, "duration": 12, "velocity": 93}, {"time": 7215, "pitch": 79, "duration": 7, "velocity": 93}, {"time": 7227, "pitch": 63, "duration": 12, "velocity": 93}, {"time": 7227, "pitch": 82, "duration": 6, "velocity": 93}, {"time": 7239, "pitch": 56, "duration": 34, "velocity": 93}, {"time": 7239, "pitch": 79, "duration": 8, "velocity": 93}, {"time": 7251, "pitch": 63, "duration": 7, "velocity": 93}, {"time": 7251, "pitch": 77, "duration": 8, "velocity": 93}, {"time": 7257, "pitch": 70, "duration": 19, "velocity": 93}, {"time": 7263, "pitch": 82, "duration": 6, "velocity": 93}, {"time": 7275, "pitch": 58, "duration": 32, "velocity": 93}, {"time": 7275, "pitch": 79, "duration": 7, "velocity": 93}, {"time": 7287, "pitch": 63, "duration": 7, "velocity": 93}, {"time": 7293, "pitch": 70, "duration": 18, "velocity": 94}, {"time": 7293, "pitch": 77, "duration": 4, "velocity": 94}, {"time": 7305, "pitch": 75, "duration": 3, "velocity": 94}, {"time": 7311, "pitch": 60, "duration": 58, "velocity": 94}, {"time": 7311, "pitch": 74, "duration": 12, "velocity": 94}, {"time": 7323, "pitch": 63, "duration": 6, "velocity": 94}, {"time": 7329, "pitch": 70, "duration": 13, "velocity": 95}, {"time": 7329, "pitch": 75, "duration": 3, "velocity": 95}, {"time": 7335, "pitch": 74, "duration": 4, "velocity": 95}, {"time": 7347, "pitch": 70, "duration": 14, "velocity": 95}, {"time": 7347, "pitch": 72, "duration": 17, "velocity": 95}, {"time": 7359, "pitch": 67, "duration": 10, "velocity": 95}, {"time": 7371, "pitch": 63, "duration": 10, "velocity": 95}, {"time": 7371, "pitch": 72, "duration": 5, "velocity": 95}, {"time": 7377, "pitch": 74, "duration": 3, "velocity": 95}, {"time": 7383, "pitch": 53, "duration": 34, "velocity": 95}, {"time": 7383, "pitch": 75, "duration": 6, "velocity": 95}, {"time": 7395, "pitch": 63, "duration": 7, "velocity": 95}, {"time": 7395, "pitch": 77, "duration": 6, "velocity": 95}, {"time": 7401, "pitch": 68, "duration": 19, "velocity": 95}, {"time": 7407, "pitch": 79, "duration": 7, "velocity": 95}, {"time": 7419, "pitch": 55, "duration": 29, "velocity": 95}, {"time": 7419, "pitch": 77, "duration": 8, "velocity": 95}, {"time": 7431, "pitch": 65, "duration": 7, "velocity": 95}, {"time": 7437, "pitch": 70, "duration": 9, "velocity": 96}, {"time": 7437, "pitch": 74, "duration": 5, "velocity": 96}, {"time": 7449, "pitch": 70, "duration": 3, "velocity": 96}, {"time": 7455, "pitch": 48, "duration": 67, "velocity": 96}, {"time": 7455, "pitch": 72, "duration": 24, "velocity": 96}, {"time": 7461, "pitch": 55, "duration": 38, "velocity": 96}, {"time": 7467, "pitch": 60, "duration": 24, "velocity": 96}, {"time": 7473, "pitch": 62, "duration": 8, "velocity": 96}, {"time": 7479, "pitch": 63, "duration": 6, "velocity": 96}, {"time": 7485, "pitch": 65, "duration": 3, "velocity": 96}, {"time": 7491, "pitch": 72, "duration": 43, "velocity": 96}], "annotations": [{"time": 27, "annotation": {"number": 64, "value": 80}, "group": "control_change"}, {"time": 39, "annotation": {"number": 64, "value": 81}, "group": "control_change"}]}]}