{"metadata": {"schema_version": "0.2", "title": "None", "source_filename": "063.mid", "source_format": "midi"}, "resolution": 12, "tempos": [{"time": 0, "qpm": 72.00002880001152}], "key_signatures": [{"time": 0, "root": 0, "mode": "major"}], "time_signatures": [{"time": 0, "numerator": 4, "denominator": 4}, {"time": 0, "numerator": 1, "denominator": 4}], "tracks": [{"program": 0, "is_drum": false, "name": "MELODY", "notes": [{"time": 522, "pitch": 62, "duration": 3, "velocity": 88}, {"time": 525, "pitch": 72, "duration": 4, "velocity": 102}, {"time": 531, "pitch": 72, "duration": 4, "velocity": 100}, {"time": 537, "pitch": 72, "duration": 3, "velocity": 112}, {"time": 543, "pitch": 72, "duration": 3, "velocity": 93}, {"time": 549, "pitch": 72, "duration": 4, "velocity": 112}, {"time": 555, "pitch": 71, "duration": 2, "velocity": 93}, {"time": 558, "pitch": 71, "duration": 4, "velocity": 95}, {"time": 573, "pitch": 72, "duration": 4, "velocity": 107}, {"time": 579, "pitch": 72, "duration": 4, "velocity": 100}, {"time": 585, "pitch": 72, "duration": 5, "velocity": 97}, {"time": 591, "pitch": 74, "duration": 4, "velocity": 117}, {"time": 597, "pitch": 71, "duration": 5, "velocity": 82}, {"time": 603, "pitch": 69, "duration": 5, "velocity": 102}, {"time": 609, "pitch": 67, "duration": 5, "velocity": 95}, {"time": 615, "pitch": 66, "duration": 3, "velocity": 92}, {"time": 621, "pitch": 66, "duration": 3, "velocity": 102}, {"time": 624, "pitch": 67, "duration": 16, "velocity": 93}, {"time": 714, "pitch": 64, "duration": 3, "velocity": 90}, {"time": 717, "pitch": 74, "duration": 5, "velocity": 95}, {"time": 723, "pitch": 74, "duration": 4, "velocity": 96}, {"time": 729, "pitch": 74, "duration": 4, "velocity": 107}, {"time": 735, "pitch": 74, "duration": 3, "velocity": 95}, {"time": 741, "pitch": 74, "duration": 4, "velocity": 99}, {"time": 747, "pitch": 72, "duration": 1, "velocity": 89}, {"time": 750, "pitch": 72, "duration": 11, "velocity": 96}, {"time": 765, "pitch": 74, "duration": 4, "velocity": 100}, {"time": 771, "pitch": 74, "duration": 4, "velocity": 99}, {"time": 777, "pitch": 74, "duration": 3, "velocity": 99}, {"time": 783, "pitch": 74, "duration": 3, "velocity": 102}, {"time": 789, "pitch": 74, "duration": 4, "velocity": 112}, {"time": 795, "pitch": 72, "duration": 1, "velocity": 82}, {"time": 798, "pitch": 72, "duration": 8, "velocity": 97}, {"time": 807, "pitch": 71, "duration": 2, "velocity": 102}, {"time": 810, "pitch": 71, "duration": 5, "velocity": 96}, {"time": 816, "pitch": 69, "duration": 2, "velocity": 82}, {"time": 819, "pitch": 69, "duration": 20, "velocity": 100}, {"time": 906, "pitch": 62, "duration": 3, "velocity": 78}, {"time": 909, "pitch": 72, "duration": 5, "velocity": 93}, {"time": 915, "pitch": 72, "duration": 4, "velocity": 95}, {"time": 921, "pitch": 72, "duration": 4, "velocity": 107}, {"time": 927, "pitch": 72, "duration": 3, "velocity": 90}, {"time": 933, "pitch": 72, "duration": 5, "velocity": 112}, {"time": 939, "pitch": 71, "duration": 1, "velocity": 76}, {"time": 942, "pitch": 71, "duration": 9, "velocity": 99}, {"time": 957, "pitch": 72, "duration": 4, "velocity": 112}, {"time": 963, "pitch": 72, "duration": 4, "velocity": 100}, {"time": 969, "pitch": 72, "duration": 4, "velocity": 107}, {"time": 975, "pitch": 74, "duration": 4, "velocity": 97}, {"time": 981, "pitch": 71, "duration": 4, "velocity": 107}, {"time": 987, "pitch": 69, "duration": 2, "velocity": 86}, {"time": 993, "pitch": 67, "duration": 5, "velocity": 92}, {"time": 999, "pitch": 66, "duration": 1, "velocity": 90}, {"time": 1002, "pitch": 66, "duration": 6, "velocity": 81}, {"time": 1008, "pitch": 67, "duration": 28, "velocity": 82}, {"time": 1083, "pitch": 64, "duration": 6, "velocity": 95}, {"time": 1089, "pitch": 67, "duration": 5, "velocity": 97}, {"time": 1095, "pitch": 74, "duration": 10, "velocity": 99}, {"time": 1107, "pitch": 76, "duration": 8, "velocity": 102}, {"time": 1119, "pitch": 67, "duration": 16, "velocity": 95}, {"time": 1149, "pitch": 74, "duration": 4, "velocity": 107}, {"time": 1155, "pitch": 74, "duration": 4, "velocity": 112}, {"time": 1161, "pitch": 74, "duration": 3, "velocity": 127}, {"time": 1167, "pitch": 74, "duration": 1, "velocity": 107}, {"time": 1170, "pitch": 74, "duration": 5, "velocity": 122}, {"time": 1179, "pitch": 72, "duration": 4, "velocity": 112}, {"time": 1185, "pitch": 72, "duration": 4, "velocity": 112}, {"time": 1191, "pitch": 71, "duration": 2, "velocity": 93}, {"time": 1194, "pitch": 71, "duration": 7, "velocity": 107}, {"time": 1200, "pitch": 69, "duration": 40, "velocity": 73}, {"time": 1263, "pitch": 67, "duration": 4, "velocity": 99}, {"time": 1269, "pitch": 79, "duration": 4, "velocity": 107}, {"time": 1275, "pitch": 78, "duration": 5, "velocity": 122}, {"time": 1281, "pitch": 79, "duration": 4, "velocity": 96}, {"time": 1287, "pitch": 79, "duration": 9, "velocity": 117}, {"time": 1299, "pitch": 74, "duration": 8, "velocity": 107}, {"time": 1305, "pitch": 74, "duration": 2, "velocity": 117}, {"time": 1311, "pitch": 74, "duration": 4, "velocity": 122}, {"time": 1317, "pitch": 74, "duration": 4, "velocity": 122}, {"time": 1323, "pitch": 72, "duration": 3, "velocity": 89}, {"time": 1329, "pitch": 72, "duration": 4, "velocity": 112}, {"time": 1335, "pitch": 72, "duration": 4, "velocity": 107}, {"time": 1347, "pitch": 71, "duration": 7, "velocity": 112}, {"time": 1359, "pitch": 67, "duration": 4, "velocity": 97}, {"time": 1365, "pitch": 79, "duration": 3, "velocity": 117}, {"time": 1371, "pitch": 78, "duration": 6, "velocity": 122}, {"time": 1377, "pitch": 79, "duration": 3, "velocity": 96}, {"time": 1383, "pitch": 79, "duration": 6, "velocity": 100}, {"time": 1395, "pitch": 74, "duration": 3, "velocity": 102}, {"time": 1401, "pitch": 74, "duration": 3, "velocity": 112}, {"time": 1407, "pitch": 74, "duration": 3, "velocity": 127}, {"time": 1413, "pitch": 74, "duration": 3, "velocity": 107}, {"time": 1419, "pitch": 72, "duration": 2, "velocity": 93}, {"time": 1425, "pitch": 72, "duration": 3, "velocity": 93}, {"time": 1431, "pitch": 72, "duration": 7, "velocity": 107}, {"time": 1443, "pitch": 71, "duration": 5, "velocity": 117}, {"time": 1455, "pitch": 67, "duration": 6, "velocity": 92}, {"time": 1461, "pitch": 79, "duration": 6, "velocity": 99}, {"time": 1467, "pitch": 78, "duration": 5, "velocity": 107}, {"time": 1473, "pitch": 79, "duration": 2, "velocity": 127}, {"time": 1479, "pitch": 78, "duration": 11, "velocity": 122}, {"time": 1491, "pitch": 76, "duration": 6, "velocity": 107}, {"time": 1503, "pitch": 67, "duration": 4, "velocity": 99}, {"time": 1509, "pitch": 78, "duration": 5, "velocity": 117}, {"time": 1515, "pitch": 76, "duration": 5, "velocity": 86}, {"time": 1521, "pitch": 78, "duration": 3, "velocity": 127}, {"time": 1527, "pitch": 76, "duration": 11, "velocity": 127}, {"time": 1539, "pitch": 74, "duration": 9, "velocity": 122}, {"time": 1551, "pitch": 67, "duration": 5, "velocity": 99}, {"time": 1557, "pitch": 76, "duration": 4, "velocity": 102}, {"time": 1563, "pitch": 74, "duration": 5, "velocity": 117}, {"time": 1569, "pitch": 76, "duration": 5, "velocity": 107}, {"time": 1575, "pitch": 74, "duration": 12, "velocity": 112}, {"time": 1587, "pitch": 72, "duration": 6, "velocity": 112}, {"time": 1593, "pitch": 72, "duration": 4, "velocity": 112}, {"time": 1599, "pitch": 71, "duration": 5, "velocity": 117}, {"time": 1605, "pitch": 72, "duration": 4, "velocity": 122}, {"time": 1611, "pitch": 74, "duration": 5, "velocity": 122}, {"time": 1617, "pitch": 76, "duration": 3, "velocity": 117}, {"time": 1623, "pitch": 76, "duration": 12, "velocity": 112}, {"time": 1635, "pitch": 74, "duration": 10, "velocity": 102}, {"time": 1647, "pitch": 67, "duration": 3, "velocity": 96}, {"time": 1653, "pitch": 79, "duration": 5, "velocity": 102}, {"time": 1659, "pitch": 78, "duration": 5, "velocity": 112}, {"time": 1665, "pitch": 79, "duration": 5, "velocity": 107}, {"time": 1671, "pitch": 79, "duration": 6, "velocity": 127}, {"time": 1683, "pitch": 74, "duration": 3, "velocity": 107}, {"time": 1689, "pitch": 74, "duration": 4, "velocity": 127}, {"time": 1695, "pitch": 74, "duration": 5, "velocity": 122}, {"time": 1701, "pitch": 74, "duration": 5, "velocity": 127}, {"time": 1707, "pitch": 72, "duration": 4, "velocity": 102}, {"time": 1713, "pitch": 72, "duration": 4, "velocity": 117}, {"time": 1719, "pitch": 72, "duration": 4, "velocity": 117}, {"time": 1731, "pitch": 71, "duration": 6, "velocity": 99}, {"time": 1743, "pitch": 67, "duration": 4, "velocity": 100}, {"time": 1749, "pitch": 79, "duration": 5, "velocity": 112}, {"time": 1755, "pitch": 78, "duration": 6, "velocity": 107}, {"time": 1761, "pitch": 79, "duration": 4, "velocity": 96}, {"time": 1767, "pitch": 79, "duration": 6, "velocity": 117}, {"time": 1773, "pitch": 74, "duration": 4, "velocity": 127}, {"time": 1779, "pitch": 74, "duration": 4, "velocity": 117}, {"time": 1785, "pitch": 74, "duration": 4, "velocity": 122}, {"time": 1791, "pitch": 74, "duration": 4, "velocity": 122}, {"time": 1797, "pitch": 74, "duration": 5, "velocity": 112}, {"time": 1809, "pitch": 81, "duration": 3, "velocity": 99}, {"time": 1815, "pitch": 81, "duration": 8, "velocity": 127}, {"time": 1827, "pitch": 79, "duration": 3, "velocity": 127}, {"time": 1839, "pitch": 67, "duration": 4, "velocity": 100}, {"time": 1845, "pitch": 79, "duration": 5, "velocity": 102}, {"time": 1851, "pitch": 78, "duration": 7, "velocity": 107}, {"time": 1857, "pitch": 79, "duration": 4, "velocity": 96}, {"time": 1863, "pitch": 79, "duration": 8, "velocity": 100}, {"time": 1875, "pitch": 76, "duration": 8, "velocity": 90}, {"time": 1887, "pitch": 67, "duration": 4, "velocity": 99}, {"time": 1893, "pitch": 78, "duration": 5, "velocity": 112}, {"time": 1899, "pitch": 76, "duration": 6, "velocity": 102}, {"time": 1905, "pitch": 78, "duration": 6, "velocity": 122}, {"time": 1911, "pitch": 76, "duration": 5, "velocity": 127}, {"time": 1923, "pitch": 74, "duration": 5, "velocity": 102}, {"time": 1935, "pitch": 67, "duration": 4, "velocity": 95}, {"time": 1941, "pitch": 76, "duration": 5, "velocity": 112}, {"time": 1947, "pitch": 74, "duration": 5, "velocity": 100}, {"time": 1953, "pitch": 76, "duration": 4, "velocity": 107}, {"time": 1959, "pitch": 74, "duration": 6, "velocity": 127}, {"time": 1971, "pitch": 72, "duration": 4, "velocity": 127}, {"time": 1977, "pitch": 72, "duration": 6, "velocity": 102}, {"time": 1983, "pitch": 71, "duration": 5, "velocity": 93}, {"time": 1989, "pitch": 72, "duration": 5, "velocity": 107}, {"time": 1995, "pitch": 74, "duration": 6, "velocity": 112}, {"time": 2001, "pitch": 76, "duration": 3, "velocity": 112}, {"time": 2008, "pitch": 76, "duration": 5, "velocity": 117}, {"time": 2013, "pitch": 74, "duration": 15, "velocity": 117}, {"time": 2031, "pitch": 71, "duration": 4, "velocity": 112}, {"time": 2037, "pitch": 71, "duration": 7, "velocity": 112}, {"time": 2049, "pitch": 62, "duration": 6, "velocity": 109}, {"time": 2055, "pitch": 69, "duration": 13, "velocity": 112}, {"time": 2067, "pitch": 67, "duration": 38, "velocity": 99}, {"time": 2442, "pitch": 62, "duration": 3, "velocity": 88}, {"time": 2445, "pitch": 72, "duration": 4, "velocity": 102}, {"time": 2451, "pitch": 72, "duration": 4, "velocity": 100}, {"time": 2457, "pitch": 72, "duration": 3, "velocity": 112}, {"time": 2463, "pitch": 72, "duration": 3, "velocity": 93}, {"time": 2469, "pitch": 72, "duration": 4, "velocity": 112}, {"time": 2475, "pitch": 71, "duration": 2, "velocity": 93}, {"time": 2478, "pitch": 71, "duration": 4, "velocity": 95}, {"time": 2493, "pitch": 72, "duration": 4, "velocity": 107}, {"time": 2499, "pitch": 72, "duration": 4, "velocity": 100}, {"time": 2505, "pitch": 72, "duration": 5, "velocity": 97}, {"time": 2511, "pitch": 74, "duration": 4, "velocity": 117}, {"time": 2517, "pitch": 71, "duration": 5, "velocity": 82}, {"time": 2523, "pitch": 69, "duration": 5, "velocity": 102}, {"time": 2529, "pitch": 67, "duration": 5, "velocity": 95}, {"time": 2535, "pitch": 66, "duration": 3, "velocity": 92}, {"time": 2541, "pitch": 66, "duration": 3, "velocity": 102}, {"time": 2544, "pitch": 67, "duration": 16, "velocity": 93}, {"time": 2634, "pitch": 64, "duration": 3, "velocity": 90}, {"time": 2637, "pitch": 74, "duration": 5, "velocity": 95}, {"time": 2643, "pitch": 74, "duration": 4, "velocity": 96}, {"time": 2649, "pitch": 74, "duration": 4, "velocity": 107}, {"time": 2655, "pitch": 74, "duration": 3, "velocity": 95}, {"time": 2661, "pitch": 74, "duration": 4, "velocity": 99}, {"time": 2667, "pitch": 72, "duration": 1, "velocity": 89}, {"time": 2670, "pitch": 72, "duration": 11, "velocity": 96}, {"time": 2685, "pitch": 74, "duration": 4, "velocity": 100}, {"time": 2691, "pitch": 74, "duration": 4, "velocity": 99}, {"time": 2697, "pitch": 74, "duration": 3, "velocity": 99}, {"time": 2703, "pitch": 74, "duration": 3, "velocity": 102}, {"time": 2709, "pitch": 74, "duration": 4, "velocity": 112}, {"time": 2715, "pitch": 72, "duration": 1, "velocity": 82}, {"time": 2718, "pitch": 72, "duration": 8, "velocity": 97}, {"time": 2727, "pitch": 71, "duration": 2, "velocity": 102}, {"time": 2730, "pitch": 71, "duration": 5, "velocity": 96}, {"time": 2736, "pitch": 69, "duration": 2, "velocity": 82}, {"time": 2739, "pitch": 69, "duration": 20, "velocity": 100}, {"time": 2826, "pitch": 62, "duration": 3, "velocity": 78}, {"time": 2829, "pitch": 72, "duration": 5, "velocity": 93}, {"time": 2835, "pitch": 72, "duration": 4, "velocity": 95}, {"time": 2841, "pitch": 72, "duration": 4, "velocity": 107}, {"time": 2847, "pitch": 72, "duration": 3, "velocity": 90}, {"time": 2853, "pitch": 72, "duration": 5, "velocity": 112}, {"time": 2859, "pitch": 71, "duration": 1, "velocity": 76}, {"time": 2862, "pitch": 71, "duration": 9, "velocity": 99}, {"time": 2877, "pitch": 72, "duration": 4, "velocity": 112}, {"time": 2883, "pitch": 72, "duration": 4, "velocity": 100}, {"time": 2889, "pitch": 72, "duration": 4, "velocity": 107}, {"time": 2895, "pitch": 74, "duration": 4, "velocity": 97}, {"time": 2901, "pitch": 71, "duration": 4, "velocity": 107}, {"time": 2907, "pitch": 69, "duration": 2, "velocity": 86}, {"time": 2913, "pitch": 67, "duration": 5, "velocity": 92}, {"time": 2919, "pitch": 66, "duration": 1, "velocity": 90}, {"time": 2922, "pitch": 66, "duration": 6, "velocity": 81}, {"time": 2928, "pitch": 67, "duration": 28, "velocity": 82}, {"time": 2967, "pitch": 79, "duration": 23, "velocity": 127}, {"time": 3003, "pitch": 64, "duration": 6, "velocity": 95}, {"time": 3009, "pitch": 67, "duration": 5, "velocity": 97}, {"time": 3015, "pitch": 74, "duration": 10, "velocity": 99}, {"time": 3027, "pitch": 76, "duration": 8, "velocity": 102}, {"time": 3039, "pitch": 67, "duration": 16, "velocity": 95}, {"time": 3069, "pitch": 74, "duration": 4, "velocity": 107}, {"time": 3075, "pitch": 74, "duration": 4, "velocity": 112}, {"time": 3081, "pitch": 74, "duration": 3, "velocity": 127}, {"time": 3087, "pitch": 74, "duration": 1, "velocity": 107}, {"time": 3090, "pitch": 74, "duration": 5, "velocity": 122}, {"time": 3099, "pitch": 72, "duration": 4, "velocity": 112}, {"time": 3105, "pitch": 72, "duration": 4, "velocity": 112}, {"time": 3111, "pitch": 71, "duration": 2, "velocity": 93}, {"time": 3114, "pitch": 71, "duration": 7, "velocity": 107}, {"time": 3120, "pitch": 69, "duration": 40, "velocity": 73}, {"time": 3183, "pitch": 67, "duration": 4, "velocity": 99}, {"time": 3189, "pitch": 79, "duration": 4, "velocity": 107}, {"time": 3195, "pitch": 78, "duration": 5, "velocity": 122}, {"time": 3201, "pitch": 79, "duration": 4, "velocity": 96}, {"time": 3207, "pitch": 79, "duration": 9, "velocity": 117}, {"time": 3219, "pitch": 74, "duration": 8, "velocity": 107}, {"time": 3225, "pitch": 74, "duration": 2, "velocity": 117}, {"time": 3231, "pitch": 74, "duration": 4, "velocity": 122}, {"time": 3237, "pitch": 74, "duration": 4, "velocity": 122}, {"time": 3243, "pitch": 72, "duration": 3, "velocity": 89}, {"time": 3249, "pitch": 72, "duration": 4, "velocity": 112}, {"time": 3255, "pitch": 72, "duration": 4, "velocity": 107}, {"time": 3267, "pitch": 71, "duration": 7, "velocity": 112}, {"time": 3279, "pitch": 67, "duration": 4, "velocity": 97}, {"time": 3285, "pitch": 79, "duration": 3, "velocity": 117}, {"time": 3291, "pitch": 78, "duration": 6, "velocity": 122}, {"time": 3297, "pitch": 79, "duration": 3, "velocity": 96}, {"time": 3303, "pitch": 79, "duration": 6, "velocity": 100}, {"time": 3315, "pitch": 74, "duration": 3, "velocity": 102}, {"time": 3321, "pitch": 74, "duration": 3, "velocity": 112}, {"time": 3327, "pitch": 74, "duration": 3, "velocity": 127}, {"time": 3333, "pitch": 74, "duration": 3, "velocity": 107}, {"time": 3339, "pitch": 72, "duration": 2, "velocity": 93}, {"time": 3345, "pitch": 72, "duration": 3, "velocity": 93}, {"time": 3351, "pitch": 72, "duration": 7, "velocity": 107}, {"time": 3363, "pitch": 71, "duration": 5, "velocity": 117}, {"time": 3375, "pitch": 67, "duration": 6, "velocity": 92}, {"time": 3381, "pitch": 79, "duration": 6, "velocity": 99}, {"time": 3387, "pitch": 78, "duration": 5, "velocity": 107}, {"time": 3393, "pitch": 79, "duration": 2, "velocity": 127}, {"time": 3399, "pitch": 78, "duration": 11, "velocity": 122}, {"time": 3411, "pitch": 76, "duration": 6, "velocity": 107}, {"time": 3423, "pitch": 67, "duration": 4, "velocity": 99}, {"time": 3429, "pitch": 78, "duration": 5, "velocity": 117}, {"time": 3435, "pitch": 76, "duration": 5, "velocity": 86}, {"time": 3441, "pitch": 78, "duration": 3, "velocity": 127}, {"time": 3447, "pitch": 76, "duration": 11, "velocity": 127}, {"time": 3459, "pitch": 74, "duration": 9, "velocity": 122}, {"time": 3471, "pitch": 67, "duration": 5, "velocity": 99}, {"time": 3477, "pitch": 76, "duration": 4, "velocity": 102}, {"time": 3483, "pitch": 74, "duration": 5, "velocity": 117}, {"time": 3489, "pitch": 76, "duration": 5, "velocity": 107}, {"time": 3495, "pitch": 74, "duration": 12, "velocity": 112}, {"time": 3507, "pitch": 72, "duration": 6, "velocity": 112}, {"time": 3513, "pitch": 72, "duration": 4, "velocity": 112}, {"time": 3519, "pitch": 71, "duration": 5, "velocity": 117}, {"time": 3525, "pitch": 72, "duration": 4, "velocity": 122}, {"time": 3531, "pitch": 74, "duration": 5, "velocity": 122}, {"time": 3537, "pitch": 76, "duration": 3, "velocity": 117}, {"time": 3543, "pitch": 76, "duration": 12, "velocity": 112}, {"time": 3555, "pitch": 74, "duration": 10, "velocity": 102}, {"time": 3567, "pitch": 67, "duration": 3, "velocity": 96}, {"time": 3573, "pitch": 79, "duration": 5, "velocity": 102}, {"time": 3579, "pitch": 78, "duration": 5, "velocity": 112}, {"time": 3585, "pitch": 79, "duration": 5, "velocity": 107}, {"time": 3591, "pitch": 79, "duration": 6, "velocity": 127}, {"time": 3603, "pitch": 74, "duration": 3, "velocity": 107}, {"time": 3609, "pitch": 74, "duration": 4, "velocity": 127}, {"time": 3615, "pitch": 74, "duration": 5, "velocity": 122}, {"time": 3621, "pitch": 74, "duration": 5, "velocity": 127}, {"time": 3627, "pitch": 72, "duration": 4, "velocity": 102}, {"time": 3633, "pitch": 72, "duration": 4, "velocity": 117}, {"time": 3639, "pitch": 72, "duration": 4, "velocity": 117}, {"time": 3651, "pitch": 71, "duration": 6, "velocity": 99}, {"time": 3663, "pitch": 67, "duration": 4, "velocity": 100}, {"time": 3669, "pitch": 79, "duration": 5, "velocity": 112}, {"time": 3675, "pitch": 78, "duration": 6, "velocity": 107}, {"time": 3681, "pitch": 79, "duration": 4, "velocity": 96}, {"time": 3687, "pitch": 79, "duration": 6, "velocity": 117}, {"time": 3699, "pitch": 74, "duration": 4, "velocity": 117}, {"time": 3705, "pitch": 74, "duration": 4, "velocity": 122}, {"time": 3711, "pitch": 74, "duration": 4, "velocity": 122}, {"time": 3717, "pitch": 74, "duration": 5, "velocity": 112}, {"time": 3729, "pitch": 81, "duration": 3, "velocity": 99}, {"time": 3735, "pitch": 81, "duration": 8, "velocity": 127}, {"time": 3747, "pitch": 79, "duration": 3, "velocity": 127}, {"time": 3759, "pitch": 67, "duration": 4, "velocity": 100}, {"time": 3765, "pitch": 79, "duration": 5, "velocity": 102}, {"time": 3771, "pitch": 78, "duration": 7, "velocity": 107}, {"time": 3777, "pitch": 79, "duration": 4, "velocity": 96}, {"time": 3783, "pitch": 79, "duration": 8, "velocity": 100}, {"time": 3795, "pitch": 76, "duration": 8, "velocity": 90}, {"time": 3807, "pitch": 67, "duration": 4, "velocity": 99}, {"time": 3813, "pitch": 78, "duration": 5, "velocity": 112}, {"time": 3819, "pitch": 76, "duration": 6, "velocity": 102}, {"time": 3825, "pitch": 78, "duration": 6, "velocity": 122}, {"time": 3831, "pitch": 76, "duration": 5, "velocity": 127}, {"time": 3843, "pitch": 74, "duration": 5, "velocity": 102}, {"time": 3855, "pitch": 67, "duration": 4, "velocity": 95}, {"time": 3861, "pitch": 76, "duration": 5, "velocity": 112}, {"time": 3867, "pitch": 74, "duration": 5, "velocity": 100}, {"time": 3873, "pitch": 76, "duration": 4, "velocity": 107}, {"time": 3879, "pitch": 74, "duration": 6, "velocity": 127}, {"time": 3891, "pitch": 72, "duration": 4, "velocity": 127}, {"time": 3897, "pitch": 72, "duration": 6, "velocity": 102}, {"time": 3903, "pitch": 71, "duration": 5, "velocity": 93}, {"time": 3909, "pitch": 72, "duration": 5, "velocity": 107}, {"time": 3915, "pitch": 74, "duration": 6, "velocity": 112}, {"time": 3921, "pitch": 76, "duration": 3, "velocity": 112}, {"time": 3927, "pitch": 74, "duration": 18, "velocity": 117}, {"time": 3951, "pitch": 84, "duration": 4, "velocity": 127}, {"time": 3957, "pitch": 84, "duration": 8, "velocity": 122}, {"time": 3969, "pitch": 74, "duration": 5, "velocity": 100}, {"time": 3975, "pitch": 81, "duration": 10, "velocity": 127}, {"time": 3987, "pitch": 79, "duration": 41, "velocity": 127}], "annotations": [{"time": 321, "annotation": {"number": 64, "value": 80}, "group": "control_change"}, {"time": 381, "annotation": {"number": 64, "value": 79}, "group": "control_change"}, {"time": 405, "annotation": {"number": 64, "value": 78}, "group": "control_change"}, {"time": 555, "annotation": {"number": 64, "value": 77}, "group": "control_change"}, {"time": 705, "annotation": {"number": 64, "value": 76}, "group": "control_change"}, {"time": 765, "annotation": {"number": 64, "value": 75}, "group": "control_change"}, {"time": 1245, "annotation": {"number": 64, "value": 74}, "group": "control_change"}, {"time": 1377, "annotation": {"number": 64, "value": 73}, "group": "control_change"}, {"time": 1425, "annotation": {"number": 64, "value": 72}, "group": "control_change"}, {"time": 1461, "annotation": {"number": 64, "value": 71}, "group": "control_change"}, {"time": 1497, "annotation": {"number": 64, "value": 70}, "group": "control_change"}, {"time": 1545, "annotation": {"number": 64, "value": 69}, "group": "control_change"}, {"time": 1725, "annotation": {"number": 64, "value": 68}, "group": "control_change"}, {"time": 1929, "annotation": {"number": 64, "value": 69}, "group": "control_change"}, {"time": 2001, "annotation": {"number": 64, "value": 70}, "group": "control_change"}, {"time": 2025, "annotation": {"number": 64, "value": 71}, "group": "control_change"}, {"time": 2049, "annotation": {"number": 64, "value": 72}, "group": "control_change"}, {"time": 2121, "annotation": {"number": 64, "value": 75}, "group": "control_change"}, {"time": 2277, "annotation": {"number": 64, "value": 74}, "group": "control_change"}, {"time": 2337, "annotation": {"number": 64, "value": 73}, "group": "control_change"}, {"time": 2457, "annotation": {"number": 64, "value": 72}, "group": "control_change"}, {"time": 2565, "annotation": {"number": 64, "value": 73}, "group": "control_change"}, {"time": 2601, "annotation": {"number": 64, "value": 74}, "group": "control_change"}, {"time": 2649, "annotation": {"number": 64, "value": 75}, "group": "control_change"}, {"time": 2733, "annotation": {"number": 64, "value": 76}, "group": "control_change"}, {"time": 2745, "annotation": {"number": 64, "value": 77}, "group": "control_change"}, {"time": 2757, "annotation": {"number": 64, "value": 78}, "group": "control_change"}, {"time": 2841, "annotation": {"number": 64, "value": 79}, "group": "control_change"}, {"time": 2925, "annotation": {"number": 64, "value": 80}, "group": "control_change"}, {"time": 2949, "annotation": {"number": 64, "value": 81}, "group": "control_change"}, {"time": 2991, "annotation": {"number": 64, "value": 82}, "group": "control_change"}, {"time": 3033, "annotation": {"number": 64, "value": 83}, "group": "control_change"}, {"time": 3183, "annotation": {"number": 64, "value": 82}, "group": "control_change"}, {"time": 3333, "annotation": {"number": 64, "value": 81}, "group": "control_change"}, {"time": 3393, "annotation": {"number": 64, "value": 80}, "group": "control_change"}, {"time": 3465, "annotation": {"number": 64, "value": 79}, "group": "control_change"}, {"time": 3789, "annotation": {"number": 64, "value": 81}, "group": "control_change"}, {"time": 3867, "annotation": {"number": 64, "value": 82}, "group": "control_change"}, {"time": 3945, "annotation": {"number": 64, "value": 83}, "group": "control_change"}, {"time": 4053, "annotation": {"number": 64, "value": 84}, "group": "control_change"}, {"time": 4617, "annotation": {"number": 64, "value": 84}, "group": "control_change"}]}, {"program": 0, "is_drum": false, "name": "BRIDGE", "notes": [{"time": 1, "pitch": 50, "duration": 333, "velocity": 59}, {"time": 1, "pitch": 43, "duration": 333, "velocity": 63}, {"time": 1, "pitch": 55, "duration": 333, "velocity": 66}, {"time": 339, "pitch": 55, "duration": 5, "velocity": 88}, {"time": 345, "pitch": 55, "duration": 5, "velocity": 89}, {"time": 351, "pitch": 55, "duration": 6, "velocity": 86}, {"time": 363, "pitch": 54, "duration": 5, "velocity": 88}, {"time": 369, "pitch": 54, "duration": 5, "velocity": 69}, {"time": 375, "pitch": 54, "duration": 11, "velocity": 69}, {"time": 387, "pitch": 55, "duration": 6, "velocity": 77}, {"time": 393, "pitch": 55, "duration": 4, "velocity": 78}, {"time": 399, "pitch": 55, "duration": 7, "velocity": 79}, {"time": 411, "pitch": 57, "duration": 5, "velocity": 97}, {"time": 417, "pitch": 57, "duration": 4, "velocity": 72}, {"time": 423, "pitch": 57, "duration": 12, "velocity": 82}, {"time": 435, "pitch": 55, "duration": 5, "velocity": 78}, {"time": 441, "pitch": 55, "duration": 5, "velocity": 86}, {"time": 447, "pitch": 55, "duration": 9, "velocity": 81}, {"time": 459, "pitch": 54, "duration": 5, "velocity": 97}, {"time": 465, "pitch": 54, "duration": 5, "velocity": 72}, {"time": 471, "pitch": 54, "duration": 10, "velocity": 89}, {"time": 483, "pitch": 55, "duration": 4, "velocity": 92}, {"time": 489, "pitch": 55, "duration": 4, "velocity": 83}, {"time": 495, "pitch": 55, "duration": 11, "velocity": 81}, {"time": 507, "pitch": 57, "duration": 5, "velocity": 79}, {"time": 513, "pitch": 57, "duration": 4, "velocity": 89}, {"time": 519, "pitch": 57, "duration": 7, "velocity": 95}, {"time": 531, "pitch": 55, "duration": 5, "velocity": 88}, {"time": 537, "pitch": 55, "duration": 5, "velocity": 89}, {"time": 543, "pitch": 55, "duration": 6, "velocity": 86}, {"time": 555, "pitch": 54, "duration": 5, "velocity": 88}, {"time": 561, "pitch": 54, "duration": 5, "velocity": 69}, {"time": 567, "pitch": 54, "duration": 11, "velocity": 69}, {"time": 579, "pitch": 55, "duration": 6, "velocity": 77}, {"time": 585, "pitch": 55, "duration": 4, "velocity": 78}, {"time": 591, "pitch": 55, "duration": 7, "velocity": 79}, {"time": 603, "pitch": 57, "duration": 5, "velocity": 97}, {"time": 609, "pitch": 57, "duration": 4, "velocity": 72}, {"time": 615, "pitch": 57, "duration": 12, "velocity": 82}, {"time": 627, "pitch": 55, "duration": 5, "velocity": 78}, {"time": 633, "pitch": 55, "duration": 5, "velocity": 86}, {"time": 639, "pitch": 55, "duration": 9, "velocity": 81}, {"time": 651, "pitch": 54, "duration": 5, "velocity": 97}, {"time": 657, "pitch": 54, "duration": 5, "velocity": 72}, {"time": 663, "pitch": 54, "duration": 10, "velocity": 89}, {"time": 675, "pitch": 55, "duration": 4, "velocity": 92}, {"time": 681, "pitch": 55, "duration": 4, "velocity": 83}, {"time": 687, "pitch": 55, "duration": 11, "velocity": 81}, {"time": 699, "pitch": 57, "duration": 5, "velocity": 79}, {"time": 705, "pitch": 57, "duration": 4, "velocity": 89}, {"time": 711, "pitch": 57, "duration": 6, "velocity": 95}, {"time": 723, "pitch": 55, "duration": 5, "velocity": 88}, {"time": 729, "pitch": 55, "duration": 5, "velocity": 89}, {"time": 735, "pitch": 55, "duration": 6, "velocity": 86}, {"time": 747, "pitch": 54, "duration": 5, "velocity": 88}, {"time": 753, "pitch": 54, "duration": 5, "velocity": 69}, {"time": 759, "pitch": 54, "duration": 11, "velocity": 69}, {"time": 771, "pitch": 55, "duration": 6, "velocity": 77}, {"time": 777, "pitch": 55, "duration": 4, "velocity": 78}, {"time": 783, "pitch": 55, "duration": 7, "velocity": 79}, {"time": 795, "pitch": 57, "duration": 5, "velocity": 97}, {"time": 801, "pitch": 57, "duration": 4, "velocity": 72}, {"time": 807, "pitch": 57, "duration": 12, "velocity": 82}, {"time": 819, "pitch": 55, "duration": 5, "velocity": 78}, {"time": 825, "pitch": 55, "duration": 5, "velocity": 86}, {"time": 831, "pitch": 55, "duration": 9, "velocity": 81}, {"time": 843, "pitch": 54, "duration": 5, "velocity": 97}, {"time": 849, "pitch": 54, "duration": 5, "velocity": 72}, {"time": 855, "pitch": 54, "duration": 10, "velocity": 89}, {"time": 867, "pitch": 55, "duration": 4, "velocity": 92}, {"time": 873, "pitch": 55, "duration": 4, "velocity": 83}, {"time": 879, "pitch": 55, "duration": 11, "velocity": 81}, {"time": 891, "pitch": 57, "duration": 5, "velocity": 79}, {"time": 897, "pitch": 57, "duration": 4, "velocity": 89}, {"time": 903, "pitch": 57, "duration": 6, "velocity": 95}, {"time": 915, "pitch": 55, "duration": 5, "velocity": 88}, {"time": 921, "pitch": 55, "duration": 5, "velocity": 89}, {"time": 927, "pitch": 55, "duration": 6, "velocity": 86}, {"time": 939, "pitch": 54, "duration": 5, "velocity": 88}, {"time": 945, "pitch": 54, "duration": 5, "velocity": 69}, {"time": 951, "pitch": 54, "duration": 11, "velocity": 69}, {"time": 963, "pitch": 55, "duration": 6, "velocity": 77}, {"time": 969, "pitch": 55, "duration": 4, "velocity": 78}, {"time": 975, "pitch": 55, "duration": 7, "velocity": 79}, {"time": 987, "pitch": 57, "duration": 5, "velocity": 97}, {"time": 993, "pitch": 57, "duration": 4, "velocity": 72}, {"time": 999, "pitch": 57, "duration": 12, "velocity": 82}, {"time": 1011, "pitch": 55, "duration": 5, "velocity": 78}, {"time": 1017, "pitch": 55, "duration": 5, "velocity": 86}, {"time": 1023, "pitch": 55, "duration": 9, "velocity": 81}, {"time": 1035, "pitch": 54, "duration": 5, "velocity": 97}, {"time": 1041, "pitch": 54, "duration": 5, "velocity": 72}, {"time": 1047, "pitch": 54, "duration": 10, "velocity": 89}, {"time": 1059, "pitch": 55, "duration": 4, "velocity": 92}, {"time": 1065, "pitch": 55, "duration": 4, "velocity": 83}, {"time": 1071, "pitch": 55, "duration": 11, "velocity": 81}, {"time": 1083, "pitch": 57, "duration": 5, "velocity": 79}, {"time": 1089, "pitch": 57, "duration": 4, "velocity": 89}, {"time": 1095, "pitch": 57, "duration": 6, "velocity": 95}, {"time": 1107, "pitch": 55, "duration": 5, "velocity": 88}, {"time": 1113, "pitch": 55, "duration": 5, "velocity": 89}, {"time": 1119, "pitch": 55, "duration": 6, "velocity": 86}, {"time": 1131, "pitch": 54, "duration": 5, "velocity": 88}, {"time": 1137, "pitch": 54, "duration": 5, "velocity": 69}, {"time": 1143, "pitch": 54, "duration": 11, "velocity": 69}, {"time": 1155, "pitch": 55, "duration": 6, "velocity": 77}, {"time": 1161, "pitch": 55, "duration": 4, "velocity": 78}, {"time": 1167, "pitch": 55, "duration": 7, "velocity": 79}, {"time": 1179, "pitch": 57, "duration": 5, "velocity": 97}, {"time": 1185, "pitch": 57, "duration": 4, "velocity": 72}, {"time": 1191, "pitch": 57, "duration": 12, "velocity": 82}, {"time": 1203, "pitch": 55, "duration": 5, "velocity": 78}, {"time": 1209, "pitch": 55, "duration": 5, "velocity": 86}, {"time": 1215, "pitch": 55, "duration": 9, "velocity": 81}, {"time": 1227, "pitch": 54, "duration": 5, "velocity": 97}, {"time": 1233, "pitch": 54, "duration": 5, "velocity": 72}, {"time": 1239, "pitch": 54, "duration": 10, "velocity": 89}, {"time": 1251, "pitch": 55, "duration": 5, "velocity": 59}, {"time": 1251, "pitch": 59, "duration": 5, "velocity": 66}, {"time": 1251, "pitch": 64, "duration": 5, "velocity": 69}, {"time": 1257, "pitch": 55, "duration": 5, "velocity": 69}, {"time": 1257, "pitch": 59, "duration": 5, "velocity": 67}, {"time": 1257, "pitch": 64, "duration": 5, "velocity": 62}, {"time": 1263, "pitch": 55, "duration": 23, "velocity": 72}, {"time": 1263, "pitch": 59, "duration": 23, "velocity": 74}, {"time": 1263, "pitch": 64, "duration": 23, "velocity": 69}, {"time": 2061, "pitch": 67, "duration": 6, "velocity": 102}, {"time": 2061, "pitch": 79, "duration": 6, "velocity": 102}, {"time": 2067, "pitch": 74, "duration": 6, "velocity": 99}, {"time": 2067, "pitch": 86, "duration": 6, "velocity": 99}, {"time": 2073, "pitch": 67, "duration": 6, "velocity": 96}, {"time": 2073, "pitch": 79, "duration": 6, "velocity": 96}, {"time": 2079, "pitch": 72, "duration": 10, "velocity": 100}, {"time": 2079, "pitch": 84, "duration": 10, "velocity": 100}, {"time": 2091, "pitch": 71, "duration": 14, "velocity": 117}, {"time": 2091, "pitch": 83, "duration": 14, "velocity": 117}, {"time": 2109, "pitch": 67, "duration": 5, "velocity": 95}, {"time": 2109, "pitch": 79, "duration": 5, "velocity": 95}, {"time": 2115, "pitch": 74, "duration": 6, "velocity": 99}, {"time": 2115, "pitch": 86, "duration": 6, "velocity": 99}, {"time": 2121, "pitch": 67, "duration": 5, "velocity": 93}, {"time": 2121, "pitch": 79, "duration": 5, "velocity": 93}, {"time": 2127, "pitch": 72, "duration": 13, "velocity": 107}, {"time": 2127, "pitch": 84, "duration": 13, "velocity": 107}, {"time": 2139, "pitch": 71, "duration": 14, "velocity": 117}, {"time": 2139, "pitch": 83, "duration": 14, "velocity": 117}, {"time": 2157, "pitch": 67, "duration": 6, "velocity": 100}, {"time": 2157, "pitch": 79, "duration": 6, "velocity": 100}, {"time": 2163, "pitch": 74, "duration": 6, "velocity": 96}, {"time": 2163, "pitch": 86, "duration": 6, "velocity": 96}, {"time": 2169, "pitch": 67, "duration": 7, "velocity": 85}, {"time": 2169, "pitch": 79, "duration": 7, "velocity": 85}, {"time": 2175, "pitch": 72, "duration": 12, "velocity": 99}, {"time": 2175, "pitch": 84, "duration": 12, "velocity": 99}, {"time": 2187, "pitch": 71, "duration": 14, "velocity": 100}, {"time": 2187, "pitch": 83, "duration": 14, "velocity": 100}, {"time": 2205, "pitch": 67, "duration": 6, "velocity": 102}, {"time": 2205, "pitch": 79, "duration": 6, "velocity": 102}, {"time": 2211, "pitch": 74, "duration": 6, "velocity": 97}, {"time": 2211, "pitch": 86, "duration": 6, "velocity": 97}, {"time": 2217, "pitch": 67, "duration": 6, "velocity": 89}, {"time": 2217, "pitch": 79, "duration": 6, "velocity": 89}, {"time": 2223, "pitch": 72, "duration": 12, "velocity": 100}, {"time": 2223, "pitch": 84, "duration": 12, "velocity": 100}, {"time": 2235, "pitch": 71, "duration": 17, "velocity": 127}, {"time": 2235, "pitch": 83, "duration": 17, "velocity": 127}, {"time": 2253, "pitch": 67, "duration": 6, "velocity": 102}, {"time": 2253, "pitch": 79, "duration": 6, "velocity": 102}, {"time": 2259, "pitch": 74, "duration": 6, "velocity": 99}, {"time": 2259, "pitch": 86, "duration": 6, "velocity": 99}, {"time": 2265, "pitch": 67, "duration": 6, "velocity": 96}, {"time": 2265, "pitch": 79, "duration": 6, "velocity": 96}, {"time": 2271, "pitch": 72, "duration": 10, "velocity": 100}, {"time": 2271, "pitch": 84, "duration": 10, "velocity": 100}, {"time": 2283, "pitch": 71, "duration": 14, "velocity": 117}, {"time": 2283, "pitch": 83, "duration": 14, "velocity": 117}, {"time": 2301, "pitch": 67, "duration": 5, "velocity": 95}, {"time": 2301, "pitch": 79, "duration": 5, "velocity": 95}, {"time": 2307, "pitch": 74, "duration": 6, "velocity": 99}, {"time": 2307, "pitch": 86, "duration": 6, "velocity": 99}, {"time": 2313, "pitch": 67, "duration": 5, "velocity": 93}, {"time": 2313, "pitch": 79, "duration": 5, "velocity": 93}, {"time": 2319, "pitch": 72, "duration": 13, "velocity": 107}, {"time": 2319, "pitch": 84, "duration": 13, "velocity": 107}, {"time": 2331, "pitch": 71, "duration": 14, "velocity": 117}, {"time": 2331, "pitch": 83, "duration": 14, "velocity": 117}, {"time": 2349, "pitch": 67, "duration": 6, "velocity": 100}, {"time": 2349, "pitch": 79, "duration": 6, "velocity": 100}, {"time": 2355, "pitch": 74, "duration": 6, "velocity": 96}, {"time": 2355, "pitch": 86, "duration": 6, "velocity": 96}, {"time": 2361, "pitch": 67, "duration": 7, "velocity": 99}, {"time": 2361, "pitch": 79, "duration": 7, "velocity": 99}, {"time": 2367, "pitch": 71, "duration": 12, "velocity": 127}, {"time": 2367, "pitch": 83, "duration": 12, "velocity": 127}, {"time": 2379, "pitch": 69, "duration": 13, "velocity": 107}, {"time": 2379, "pitch": 81, "duration": 13, "velocity": 107}, {"time": 2397, "pitch": 67, "duration": 6, "velocity": 97}, {"time": 2397, "pitch": 79, "duration": 6, "velocity": 97}, {"time": 2403, "pitch": 74, "duration": 7, "velocity": 102}, {"time": 2403, "pitch": 86, "duration": 7, "velocity": 102}, {"time": 2409, "pitch": 67, "duration": 5, "velocity": 90}, {"time": 2409, "pitch": 79, "duration": 5, "velocity": 90}, {"time": 2415, "pitch": 67, "duration": 12, "velocity": 102}, {"time": 2415, "pitch": 79, "duration": 12, "velocity": 102}, {"time": 2427, "pitch": 66, "duration": 18, "velocity": 127}, {"time": 2427, "pitch": 78, "duration": 18, "velocity": 127}, {"time": 2451, "pitch": 55, "duration": 5, "velocity": 88}, {"time": 2457, "pitch": 55, "duration": 5, "velocity": 89}, {"time": 2463, "pitch": 55, "duration": 6, "velocity": 86}, {"time": 2475, "pitch": 54, "duration": 5, "velocity": 88}, {"time": 2481, "pitch": 54, "duration": 5, "velocity": 69}, {"time": 2487, "pitch": 54, "duration": 11, "velocity": 69}, {"time": 2499, "pitch": 55, "duration": 6, "velocity": 77}, {"time": 2505, "pitch": 55, "duration": 4, "velocity": 78}, {"time": 2511, "pitch": 55, "duration": 7, "velocity": 79}, {"time": 2523, "pitch": 57, "duration": 5, "velocity": 97}, {"time": 2529, "pitch": 57, "duration": 4, "velocity": 72}, {"time": 2535, "pitch": 57, "duration": 12, "velocity": 82}, {"time": 2547, "pitch": 55, "duration": 5, "velocity": 78}, {"time": 2553, "pitch": 55, "duration": 5, "velocity": 86}, {"time": 2559, "pitch": 55, "duration": 9, "velocity": 81}, {"time": 2571, "pitch": 54, "duration": 5, "velocity": 97}, {"time": 2577, "pitch": 54, "duration": 5, "velocity": 72}, {"time": 2583, "pitch": 54, "duration": 10, "velocity": 89}, {"time": 2595, "pitch": 55, "duration": 4, "velocity": 92}, {"time": 2601, "pitch": 55, "duration": 4, "velocity": 83}, {"time": 2607, "pitch": 55, "duration": 11, "velocity": 81}, {"time": 2619, "pitch": 57, "duration": 5, "velocity": 79}, {"time": 2625, "pitch": 57, "duration": 4, "velocity": 89}, {"time": 2631, "pitch": 57, "duration": 6, "velocity": 95}, {"time": 2643, "pitch": 55, "duration": 5, "velocity": 88}, {"time": 2649, "pitch": 55, "duration": 5, "velocity": 89}, {"time": 2655, "pitch": 55, "duration": 6, "velocity": 86}, {"time": 2667, "pitch": 54, "duration": 5, "velocity": 88}, {"time": 2673, "pitch": 54, "duration": 5, "velocity": 69}, {"time": 2679, "pitch": 54, "duration": 11, "velocity": 69}, {"time": 2691, "pitch": 55, "duration": 6, "velocity": 77}, {"time": 2697, "pitch": 55, "duration": 4, "velocity": 78}, {"time": 2703, "pitch": 55, "duration": 7, "velocity": 79}, {"time": 2715, "pitch": 57, "duration": 5, "velocity": 97}, {"time": 2721, "pitch": 57, "duration": 4, "velocity": 72}, {"time": 2727, "pitch": 57, "duration": 12, "velocity": 82}, {"time": 2739, "pitch": 55, "duration": 5, "velocity": 78}, {"time": 2745, "pitch": 55, "duration": 5, "velocity": 86}, {"time": 2751, "pitch": 55, "duration": 9, "velocity": 81}, {"time": 2763, "pitch": 54, "duration": 5, "velocity": 97}, {"time": 2769, "pitch": 54, "duration": 5, "velocity": 72}, {"time": 2775, "pitch": 54, "duration": 10, "velocity": 89}, {"time": 2787, "pitch": 55, "duration": 4, "velocity": 92}, {"time": 2793, "pitch": 55, "duration": 4, "velocity": 83}, {"time": 2799, "pitch": 55, "duration": 11, "velocity": 81}, {"time": 2811, "pitch": 57, "duration": 5, "velocity": 79}, {"time": 2817, "pitch": 57, "duration": 4, "velocity": 89}, {"time": 2823, "pitch": 57, "duration": 6, "velocity": 95}, {"time": 2835, "pitch": 67, "duration": 5, "velocity": 107}, {"time": 2841, "pitch": 74, "duration": 6, "velocity": 122}, {"time": 2847, "pitch": 67, "duration": 3, "velocity": 83}, {"time": 2850, "pitch": 72, "duration": 10, "velocity": 112}, {"time": 2859, "pitch": 71, "duration": 16, "velocity": 93}, {"time": 2883, "pitch": 67, "duration": 5, "velocity": 96}, {"time": 2889, "pitch": 74, "duration": 6, "velocity": 107}, {"time": 2895, "pitch": 67, "duration": 3, "velocity": 76}, {"time": 2898, "pitch": 72, "duration": 10, "velocity": 96}, {"time": 2907, "pitch": 71, "duration": 18, "velocity": 97}, {"time": 2931, "pitch": 67, "duration": 5, "velocity": 99}, {"time": 2937, "pitch": 74, "duration": 7, "velocity": 102}, {"time": 2943, "pitch": 67, "duration": 2, "velocity": 92}, {"time": 2946, "pitch": 72, "duration": 9, "velocity": 99}, {"time": 2955, "pitch": 71, "duration": 17, "velocity": 99}, {"time": 2979, "pitch": 67, "duration": 6, "velocity": 96}, {"time": 2985, "pitch": 74, "duration": 6, "velocity": 112}, {"time": 2991, "pitch": 67, "duration": 2, "velocity": 79}, {"time": 2994, "pitch": 72, "duration": 9, "velocity": 107}, {"time": 3003, "pitch": 71, "duration": 19, "velocity": 107}, {"time": 3027, "pitch": 67, "duration": 5, "velocity": 100}, {"time": 3033, "pitch": 74, "duration": 6, "velocity": 102}, {"time": 3039, "pitch": 67, "duration": 3, "velocity": 92}, {"time": 3042, "pitch": 72, "duration": 9, "velocity": 122}, {"time": 3051, "pitch": 71, "duration": 18, "velocity": 102}, {"time": 3075, "pitch": 67, "duration": 5, "velocity": 102}, {"time": 3081, "pitch": 74, "duration": 7, "velocity": 107}, {"time": 3087, "pitch": 67, "duration": 3, "velocity": 88}, {"time": 3090, "pitch": 72, "duration": 9, "velocity": 97}, {"time": 3099, "pitch": 71, "duration": 21, "velocity": 102}, {"time": 3123, "pitch": 67, "duration": 6, "velocity": 100}, {"time": 3129, "pitch": 74, "duration": 6, "velocity": 107}, {"time": 3135, "pitch": 67, "duration": 3, "velocity": 88}, {"time": 3138, "pitch": 71, "duration": 13, "velocity": 107}, {"time": 3147, "pitch": 69, "duration": 19, "velocity": 107}, {"time": 3171, "pitch": 67, "duration": 5, "velocity": 102}, {"time": 3177, "pitch": 74, "duration": 7, "velocity": 117}, {"time": 3183, "pitch": 67, "duration": 3, "velocity": 82}, {"time": 3186, "pitch": 71, "duration": 9, "velocity": 102}, {"time": 3195, "pitch": 69, "duration": 18, "velocity": 117}, {"time": 3981, "pitch": 67, "duration": 6, "velocity": 102}, {"time": 3981, "pitch": 79, "duration": 6, "velocity": 102}, {"time": 3987, "pitch": 74, "duration": 6, "velocity": 99}, {"time": 3987, "pitch": 86, "duration": 6, "velocity": 99}, {"time": 3993, "pitch": 67, "duration": 6, "velocity": 96}, {"time": 3993, "pitch": 79, "duration": 6, "velocity": 96}, {"time": 3999, "pitch": 72, "duration": 10, "velocity": 100}, {"time": 3999, "pitch": 84, "duration": 10, "velocity": 100}, {"time": 4011, "pitch": 71, "duration": 14, "velocity": 117}, {"time": 4011, "pitch": 83, "duration": 14, "velocity": 117}, {"time": 4029, "pitch": 67, "duration": 5, "velocity": 95}, {"time": 4029, "pitch": 79, "duration": 5, "velocity": 95}, {"time": 4035, "pitch": 74, "duration": 6, "velocity": 99}, {"time": 4035, "pitch": 86, "duration": 6, "velocity": 99}, {"time": 4041, "pitch": 67, "duration": 5, "velocity": 93}, {"time": 4041, "pitch": 79, "duration": 5, "velocity": 93}, {"time": 4047, "pitch": 72, "duration": 13, "velocity": 107}, {"time": 4047, "pitch": 84, "duration": 13, "velocity": 107}, {"time": 4059, "pitch": 71, "duration": 14, "velocity": 117}, {"time": 4059, "pitch": 83, "duration": 14, "velocity": 117}, {"time": 4077, "pitch": 67, "duration": 6, "velocity": 100}, {"time": 4077, "pitch": 79, "duration": 6, "velocity": 100}, {"time": 4083, "pitch": 74, "duration": 6, "velocity": 96}, {"time": 4083, "pitch": 86, "duration": 6, "velocity": 96}, {"time": 4089, "pitch": 67, "duration": 7, "velocity": 85}, {"time": 4089, "pitch": 79, "duration": 7, "velocity": 85}, {"time": 4095, "pitch": 72, "duration": 12, "velocity": 99}, {"time": 4095, "pitch": 84, "duration": 12, "velocity": 99}, {"time": 4107, "pitch": 71, "duration": 14, "velocity": 100}, {"time": 4107, "pitch": 83, "duration": 14, "velocity": 100}, {"time": 4125, "pitch": 67, "duration": 6, "velocity": 102}, {"time": 4125, "pitch": 79, "duration": 6, "velocity": 102}, {"time": 4131, "pitch": 74, "duration": 6, "velocity": 97}, {"time": 4131, "pitch": 86, "duration": 6, "velocity": 97}, {"time": 4137, "pitch": 67, "duration": 6, "velocity": 89}, {"time": 4137, "pitch": 79, "duration": 6, "velocity": 89}, {"time": 4143, "pitch": 72, "duration": 12, "velocity": 100}, {"time": 4143, "pitch": 84, "duration": 12, "velocity": 100}, {"time": 4155, "pitch": 71, "duration": 17, "velocity": 127}, {"time": 4155, "pitch": 83, "duration": 17, "velocity": 127}, {"time": 4173, "pitch": 67, "duration": 6, "velocity": 102}, {"time": 4173, "pitch": 79, "duration": 6, "velocity": 102}, {"time": 4179, "pitch": 74, "duration": 6, "velocity": 99}, {"time": 4179, "pitch": 86, "duration": 6, "velocity": 99}, {"time": 4185, "pitch": 67, "duration": 6, "velocity": 96}, {"time": 4185, "pitch": 79, "duration": 6, "velocity": 96}, {"time": 4191, "pitch": 72, "duration": 10, "velocity": 100}, {"time": 4191, "pitch": 84, "duration": 10, "velocity": 100}, {"time": 4203, "pitch": 71, "duration": 14, "velocity": 117}, {"time": 4203, "pitch": 83, "duration": 14, "velocity": 117}, {"time": 4221, "pitch": 67, "duration": 5, "velocity": 95}, {"time": 4221, "pitch": 79, "duration": 5, "velocity": 95}, {"time": 4227, "pitch": 74, "duration": 6, "velocity": 99}, {"time": 4227, "pitch": 86, "duration": 6, "velocity": 99}, {"time": 4233, "pitch": 67, "duration": 5, "velocity": 93}, {"time": 4233, "pitch": 79, "duration": 5, "velocity": 93}, {"time": 4239, "pitch": 72, "duration": 13, "velocity": 107}, {"time": 4239, "pitch": 84, "duration": 13, "velocity": 107}, {"time": 4251, "pitch": 71, "duration": 14, "velocity": 117}, {"time": 4251, "pitch": 83, "duration": 14, "velocity": 117}, {"time": 4269, "pitch": 67, "duration": 6, "velocity": 100}, {"time": 4269, "pitch": 79, "duration": 6, "velocity": 100}, {"time": 4275, "pitch": 74, "duration": 6, "velocity": 96}, {"time": 4275, "pitch": 86, "duration": 6, "velocity": 96}, {"time": 4281, "pitch": 67, "duration": 7, "velocity": 99}, {"time": 4281, "pitch": 79, "duration": 7, "velocity": 99}, {"time": 4287, "pitch": 71, "duration": 12, "velocity": 127}, {"time": 4287, "pitch": 83, "duration": 12, "velocity": 127}, {"time": 4299, "pitch": 69, "duration": 13, "velocity": 107}, {"time": 4299, "pitch": 81, "duration": 13, "velocity": 107}, {"time": 4317, "pitch": 67, "duration": 6, "velocity": 97}, {"time": 4317, "pitch": 79, "duration": 6, "velocity": 97}, {"time": 4323, "pitch": 74, "duration": 7, "velocity": 102}, {"time": 4323, "pitch": 86, "duration": 7, "velocity": 102}, {"time": 4329, "pitch": 67, "duration": 5, "velocity": 90}, {"time": 4329, "pitch": 79, "duration": 5, "velocity": 90}, {"time": 4335, "pitch": 67, "duration": 12, "velocity": 102}, {"time": 4335, "pitch": 79, "duration": 12, "velocity": 102}, {"time": 4347, "pitch": 66, "duration": 18, "velocity": 127}, {"time": 4347, "pitch": 78, "duration": 18, "velocity": 127}, {"time": 4365, "pitch": 50, "duration": 5, "velocity": 68}, {"time": 4365, "pitch": 55, "duration": 5, "velocity": 88}, {"time": 4371, "pitch": 50, "duration": 5, "velocity": 56}, {"time": 4371, "pitch": 55, "duration": 5, "velocity": 89}, {"time": 4377, "pitch": 50, "duration": 9, "velocity": 62}, {"time": 4377, "pitch": 55, "duration": 6, "velocity": 86}, {"time": 4389, "pitch": 50, "duration": 5, "velocity": 52}, {"time": 4389, "pitch": 57, "duration": 4, "velocity": 63}, {"time": 4395, "pitch": 50, "duration": 5, "velocity": 53}, {"time": 4395, "pitch": 57, "duration": 4, "velocity": 67}, {"time": 4401, "pitch": 50, "duration": 9, "velocity": 65}, {"time": 4401, "pitch": 57, "duration": 9, "velocity": 70}, {"time": 4413, "pitch": 50, "duration": 4, "velocity": 59}, {"time": 4413, "pitch": 59, "duration": 5, "velocity": 64}, {"time": 4419, "pitch": 50, "duration": 4, "velocity": 56}, {"time": 4419, "pitch": 59, "duration": 5, "velocity": 69}, {"time": 4425, "pitch": 50, "duration": 8, "velocity": 63}, {"time": 4425, "pitch": 59, "duration": 7, "velocity": 67}, {"time": 4437, "pitch": 50, "duration": 4, "velocity": 42}, {"time": 4437, "pitch": 54, "duration": 4, "velocity": 59}, {"time": 4443, "pitch": 50, "duration": 4, "velocity": 51}, {"time": 4443, "pitch": 54, "duration": 5, "velocity": 63}, {"time": 4449, "pitch": 50, "duration": 8, "velocity": 65}, {"time": 4449, "pitch": 54, "duration": 8, "velocity": 73}, {"time": 4461, "pitch": 50, "duration": 5, "velocity": 52}, {"time": 4461, "pitch": 55, "duration": 5, "velocity": 59}, {"time": 4467, "pitch": 50, "duration": 4, "velocity": 55}, {"time": 4467, "pitch": 55, "duration": 5, "velocity": 56}, {"time": 4473, "pitch": 50, "duration": 7, "velocity": 60}, {"time": 4473, "pitch": 55, "duration": 9, "velocity": 66}, {"time": 4485, "pitch": 50, "duration": 5, "velocity": 52}, {"time": 4485, "pitch": 57, "duration": 4, "velocity": 58}, {"time": 4491, "pitch": 50, "duration": 5, "velocity": 47}, {"time": 4491, "pitch": 57, "duration": 5, "velocity": 59}, {"time": 4497, "pitch": 50, "duration": 7, "velocity": 59}, {"time": 4497, "pitch": 57, "duration": 8, "velocity": 69}, {"time": 4503, "pitch": 50, "duration": 1, "velocity": 43}, {"time": 4509, "pitch": 59, "duration": 5, "velocity": 60}, {"time": 4515, "pitch": 59, "duration": 5, "velocity": 65}, {"time": 4521, "pitch": 59, "duration": 57, "velocity": 64}], "annotations": [{"time": 321, "annotation": {"number": 64, "value": 127}, "group": "control_change"}, {"time": 321, "annotation": {"number": 64, "value": 99}, "group": "control_change"}, {"time": 333, "annotation": {"number": 64, "value": 78}, "group": "control_change"}, {"time": 381, "annotation": {"number": 64, "value": 79}, "group": "control_change"}, {"time": 669, "annotation": {"number": 64, "value": 80}, "group": "control_change"}, {"time": 1221, "annotation": {"number": 64, "value": 81}, "group": "control_change"}, {"time": 1413, "annotation": {"number": 64, "value": 80}, "group": "control_change"}, {"time": 1980, "annotation": {"number": 64, "value": 78}, "group": "control_change"}, {"time": 1989, "annotation": {"number": 64, "value": 79}, "group": "control_change"}, {"time": 1994, "annotation": {"number": 64, "value": 80}, "group": "control_change"}, {"time": 1999, "annotation": {"number": 64, "value": 81}, "group": "control_change"}, {"time": 2004, "annotation": {"number": 64, "value": 82}, "group": "control_change"}, {"time": 2010, "annotation": {"number": 64, "value": 83}, "group": "control_change"}, {"time": 2015, "annotation": {"number": 64, "value": 84}, "group": "control_change"}, {"time": 2020, "annotation": {"number": 64, "value": 85}, "group": "control_change"}, {"time": 2025, "annotation": {"number": 64, "value": 86}, "group": "control_change"}, {"time": 2028, "annotation": {"number": 64, "value": 87}, "group": "control_change"}, {"time": 2034, "annotation": {"number": 64, "value": 88}, "group": "control_change"}, {"time": 2037, "annotation": {"number": 64, "value": 89}, "group": "control_change"}, {"time": 2046, "annotation": {"number": 64, "value": 90}, "group": "control_change"}, {"time": 2055, "annotation": {"number": 64, "value": 91}, "group": "control_change"}, {"time": 2070, "annotation": {"number": 64, "value": 92}, "group": "control_change"}, {"time": 2091, "annotation": {"number": 64, "value": 93}, "group": "control_change"}, {"time": 2115, "annotation": {"number": 64, "value": 94}, "group": "control_change"}, {"time": 2130, "annotation": {"number": 64, "value": 95}, "group": "control_change"}, {"time": 2148, "annotation": {"number": 64, "value": 96}, "group": "control_change"}, {"time": 2169, "annotation": {"number": 64, "value": 97}, "group": "control_change"}, {"time": 2208, "annotation": {"number": 64, "value": 98}, "group": "control_change"}, {"time": 2250, "annotation": {"number": 64, "value": 99}, "group": "control_change"}, {"time": 2307, "annotation": {"number": 64, "value": 98}, "group": "control_change"}, {"time": 2394, "annotation": {"number": 64, "value": 97}, "group": "control_change"}, {"time": 2466, "annotation": {"number": 64, "value": 96}, "group": "control_change"}, {"time": 2499, "annotation": {"number": 64, "value": 95}, "group": "control_change"}, {"time": 2535, "annotation": {"number": 64, "value": 94}, "group": "control_change"}, {"time": 2634, "annotation": {"number": 64, "value": 93}, "group": "control_change"}, {"time": 2661, "annotation": {"number": 64, "value": 92}, "group": "control_change"}, {"time": 2673, "annotation": {"number": 64, "value": 91}, "group": "control_change"}, {"time": 2679, "annotation": {"number": 64, "value": 90}, "group": "control_change"}, {"time": 2682, "annotation": {"number": 64, "value": 89}, "group": "control_change"}, {"time": 2688, "annotation": {"number": 64, "value": 88}, "group": "control_change"}, {"time": 2691, "annotation": {"number": 64, "value": 87}, "group": "control_change"}, {"time": 2697, "annotation": {"number": 64, "value": 86}, "group": "control_change"}, {"time": 2703, "annotation": {"number": 64, "value": 85}, "group": "control_change"}, {"time": 2706, "annotation": {"number": 64, "value": 84}, "group": "control_change"}, {"time": 2709, "annotation": {"number": 64, "value": 83}, "group": "control_change"}, {"time": 2715, "annotation": {"number": 64, "value": 82}, "group": "control_change"}, {"time": 2718, "annotation": {"number": 64, "value": 81}, "group": "control_change"}, {"time": 2721, "annotation": {"number": 64, "value": 80}, "group": "control_change"}, {"time": 2727, "annotation": {"number": 64, "value": 79}, "group": "control_change"}, {"time": 2730, "annotation": {"number": 64, "value": 78}, "group": "control_change"}, {"time": 2733, "annotation": {"number": 64, "value": 77}, "group": "control_change"}, {"time": 3249, "annotation": {"number": 64, "value": 88}, "group": "control_change"}, {"time": 3264, "annotation": {"number": 64, "value": 89}, "group": "control_change"}, {"time": 3288, "annotation": {"number": 64, "value": 88}, "group": "control_change"}, {"time": 3303, "annotation": {"number": 64, "value": 87}, "group": "control_change"}, {"time": 3453, "annotation": {"number": 64, "value": 82}, "group": "control_change"}, {"time": 3927, "annotation": {"number": 64, "value": 84}, "group": "control_change"}, {"time": 3936, "annotation": {"number": 64, "value": 85}, "group": "control_change"}, {"time": 3940, "annotation": {"number": 64, "value": 86}, "group": "control_change"}, {"time": 3944, "annotation": {"number": 64, "value": 87}, "group": "control_change"}, {"time": 3948, "annotation": {"number": 64, "value": 88}, "group": "control_change"}, {"time": 3951, "annotation": {"number": 64, "value": 89}, "group": "control_change"}, {"time": 3954, "annotation": {"number": 64, "value": 90}, "group": "control_change"}, {"time": 3957, "annotation": {"number": 64, "value": 91}, "group": "control_change"}, {"time": 3960, "annotation": {"number": 64, "value": 92}, "group": "control_change"}, {"time": 3963, "annotation": {"number": 64, "value": 93}, "group": "control_change"}, {"time": 3966, "annotation": {"number": 64, "value": 94}, "group": "control_change"}, {"time": 3969, "annotation": {"number": 64, "value": 95}, "group": "control_change"}, {"time": 3972, "annotation": {"number": 64, "value": 96}, "group": "control_change"}, {"time": 3978, "annotation": {"number": 64, "value": 97}, "group": "control_change"}, {"time": 3984, "annotation": {"number": 64, "value": 98}, "group": "control_change"}, {"time": 3993, "annotation": {"number": 64, "value": 99}, "group": "control_change"}, {"time": 3999, "annotation": {"number": 64, "value": 100}, "group": "control_change"}, {"time": 4008, "annotation": {"number": 64, "value": 101}, "group": "control_change"}, {"time": 4023, "annotation": {"number": 64, "value": 102}, "group": "control_change"}, {"time": 4116, "annotation": {"number": 64, "value": 101}, "group": "control_change"}, {"time": 4206, "annotation": {"number": 64, "value": 102}, "group": "control_change"}, {"time": 4341, "annotation": {"number": 64, "value": 91}, "group": "control_change"}, {"time": 4353, "annotation": {"number": 64, "value": 93}, "group": "control_change"}, {"time": 4365, "annotation": {"number": 64, "value": 98}, "group": "control_change"}, {"time": 4377, "annotation": {"number": 64, "value": 101}, "group": "control_change"}, {"time": 4401, "annotation": {"number": 64, "value": 100}, "group": "control_change"}, {"time": 4473, "annotation": {"number": 64, "value": 99}, "group": "control_change"}, {"time": 4545, "annotation": {"number": 64, "value": 100}, "group": "control_change"}, {"time": 4557, "annotation": {"number": 64, "value": 101}, "group": "control_change"}, {"time": 4569, "annotation": {"number": 64, "value": 102}, "group": "control_change"}, {"time": 4629, "annotation": {"number": 64, "value": 101}, "group": "control_change"}]}, {"program": 0, "is_drum": false, "name": "PIANO", "notes": [{"time": 333, "pitch": 43, "duration": 22, "velocity": 74}, {"time": 333, "pitch": 50, "duration": 22, "velocity": 71}, {"time": 357, "pitch": 43, "duration": 22, "velocity": 60}, {"time": 357, "pitch": 50, "duration": 22, "velocity": 59}, {"time": 381, "pitch": 43, "duration": 22, "velocity": 66}, {"time": 381, "pitch": 50, "duration": 22, "velocity": 72}, {"time": 405, "pitch": 43, "duration": 24, "velocity": 65}, {"time": 405, "pitch": 50, "duration": 23, "velocity": 67}, {"time": 429, "pitch": 43, "duration": 22, "velocity": 74}, {"time": 429, "pitch": 50, "duration": 22, "velocity": 71}, {"time": 453, "pitch": 43, "duration": 22, "velocity": 60}, {"time": 453, "pitch": 50, "duration": 22, "velocity": 59}, {"time": 477, "pitch": 43, "duration": 22, "velocity": 66}, {"time": 477, "pitch": 50, "duration": 22, "velocity": 72}, {"time": 501, "pitch": 43, "duration": 24, "velocity": 65}, {"time": 501, "pitch": 50, "duration": 23, "velocity": 67}, {"time": 525, "pitch": 43, "duration": 22, "velocity": 74}, {"time": 525, "pitch": 50, "duration": 22, "velocity": 71}, {"time": 549, "pitch": 43, "duration": 22, "velocity": 60}, {"time": 549, "pitch": 50, "duration": 22, "velocity": 59}, {"time": 573, "pitch": 43, "duration": 22, "velocity": 66}, {"time": 573, "pitch": 50, "duration": 22, "velocity": 72}, {"time": 597, "pitch": 43, "duration": 24, "velocity": 65}, {"time": 597, "pitch": 50, "duration": 23, "velocity": 67}, {"time": 621, "pitch": 40, "duration": 22, "velocity": 66}, {"time": 621, "pitch": 47, "duration": 23, "velocity": 71}, {"time": 621, "pitch": 52, "duration": 23, "velocity": 65}, {"time": 645, "pitch": 40, "duration": 22, "velocity": 59}, {"time": 645, "pitch": 47, "duration": 22, "velocity": 59}, {"time": 645, "pitch": 52, "duration": 22, "velocity": 62}, {"time": 669, "pitch": 40, "duration": 22, "velocity": 66}, {"time": 669, "pitch": 47, "duration": 23, "velocity": 71}, {"time": 669, "pitch": 52, "duration": 23, "velocity": 65}, {"time": 693, "pitch": 40, "duration": 22, "velocity": 59}, {"time": 693, "pitch": 47, "duration": 22, "velocity": 59}, {"time": 693, "pitch": 52, "duration": 22, "velocity": 62}, {"time": 717, "pitch": 36, "duration": 22, "velocity": 57}, {"time": 717, "pitch": 43, "duration": 22, "velocity": 66}, {"time": 717, "pitch": 48, "duration": 22, "velocity": 76}, {"time": 717, "pitch": 55, "duration": 23, "velocity": 58}, {"time": 717, "pitch": 60, "duration": 23, "velocity": 71}, {"time": 741, "pitch": 36, "duration": 21, "velocity": 53}, {"time": 741, "pitch": 43, "duration": 21, "velocity": 53}, {"time": 741, "pitch": 48, "duration": 22, "velocity": 58}, {"time": 741, "pitch": 55, "duration": 22, "velocity": 50}, {"time": 741, "pitch": 60, "duration": 22, "velocity": 58}, {"time": 765, "pitch": 36, "duration": 23, "velocity": 48}, {"time": 765, "pitch": 43, "duration": 23, "velocity": 58}, {"time": 765, "pitch": 48, "duration": 23, "velocity": 63}, {"time": 765, "pitch": 55, "duration": 23, "velocity": 57}, {"time": 765, "pitch": 60, "duration": 23, "velocity": 63}, {"time": 789, "pitch": 36, "duration": 15, "velocity": 45}, {"time": 789, "pitch": 43, "duration": 15, "velocity": 52}, {"time": 789, "pitch": 48, "duration": 15, "velocity": 53}, {"time": 789, "pitch": 55, "duration": 14, "velocity": 58}, {"time": 789, "pitch": 60, "duration": 13, "velocity": 66}, {"time": 813, "pitch": 38, "duration": 19, "velocity": 50}, {"time": 813, "pitch": 45, "duration": 20, "velocity": 61}, {"time": 813, "pitch": 50, "duration": 21, "velocity": 59}, {"time": 813, "pitch": 54, "duration": 21, "velocity": 56}, {"time": 813, "pitch": 57, "duration": 21, "velocity": 57}, {"time": 837, "pitch": 38, "duration": 18, "velocity": 42}, {"time": 837, "pitch": 45, "duration": 19, "velocity": 47}, {"time": 837, "pitch": 50, "duration": 21, "velocity": 51}, {"time": 837, "pitch": 54, "duration": 21, "velocity": 53}, {"time": 837, "pitch": 57, "duration": 21, "velocity": 52}, {"time": 861, "pitch": 38, "duration": 14, "velocity": 39}, {"time": 861, "pitch": 45, "duration": 13, "velocity": 46}, {"time": 861, "pitch": 50, "duration": 21, "velocity": 51}, {"time": 861, "pitch": 54, "duration": 21, "velocity": 59}, {"time": 861, "pitch": 57, "duration": 21, "velocity": 53}, {"time": 885, "pitch": 38, "duration": 8, "velocity": 40}, {"time": 885, "pitch": 45, "duration": 7, "velocity": 47}, {"time": 885, "pitch": 50, "duration": 13, "velocity": 61}, {"time": 885, "pitch": 54, "duration": 10, "velocity": 55}, {"time": 885, "pitch": 57, "duration": 10, "velocity": 60}, {"time": 909, "pitch": 43, "duration": 23, "velocity": 62}, {"time": 909, "pitch": 50, "duration": 22, "velocity": 66}, {"time": 909, "pitch": 55, "duration": 20, "velocity": 66}, {"time": 909, "pitch": 59, "duration": 18, "velocity": 63}, {"time": 933, "pitch": 43, "duration": 22, "velocity": 55}, {"time": 933, "pitch": 50, "duration": 22, "velocity": 72}, {"time": 933, "pitch": 55, "duration": 23, "velocity": 66}, {"time": 957, "pitch": 43, "duration": 22, "velocity": 60}, {"time": 957, "pitch": 50, "duration": 22, "velocity": 67}, {"time": 957, "pitch": 55, "duration": 22, "velocity": 69}, {"time": 981, "pitch": 43, "duration": 22, "velocity": 63}, {"time": 981, "pitch": 50, "duration": 22, "velocity": 69}, {"time": 981, "pitch": 55, "duration": 19, "velocity": 67}, {"time": 1005, "pitch": 40, "duration": 21, "velocity": 63}, {"time": 1005, "pitch": 52, "duration": 20, "velocity": 72}, {"time": 1005, "pitch": 55, "duration": 21, "velocity": 56}, {"time": 1005, "pitch": 59, "duration": 21, "velocity": 69}, {"time": 1029, "pitch": 40, "duration": 22, "velocity": 45}, {"time": 1029, "pitch": 47, "duration": 23, "velocity": 54}, {"time": 1029, "pitch": 52, "duration": 22, "velocity": 51}, {"time": 1029, "pitch": 55, "duration": 22, "velocity": 52}, {"time": 1029, "pitch": 59, "duration": 22, "velocity": 55}, {"time": 1053, "pitch": 40, "duration": 20, "velocity": 55}, {"time": 1053, "pitch": 47, "duration": 21, "velocity": 53}, {"time": 1053, "pitch": 52, "duration": 21, "velocity": 45}, {"time": 1053, "pitch": 55, "duration": 21, "velocity": 50}, {"time": 1053, "pitch": 59, "duration": 21, "velocity": 52}, {"time": 1077, "pitch": 40, "duration": 13, "velocity": 57}, {"time": 1077, "pitch": 47, "duration": 12, "velocity": 60}, {"time": 1077, "pitch": 52, "duration": 14, "velocity": 47}, {"time": 1077, "pitch": 55, "duration": 13, "velocity": 51}, {"time": 1077, "pitch": 59, "duration": 13, "velocity": 55}, {"time": 1101, "pitch": 36, "duration": 22, "velocity": 56}, {"time": 1101, "pitch": 43, "duration": 23, "velocity": 58}, {"time": 1101, "pitch": 48, "duration": 22, "velocity": 60}, {"time": 1101, "pitch": 52, "duration": 23, "velocity": 63}, {"time": 1101, "pitch": 55, "duration": 23, "velocity": 64}, {"time": 1125, "pitch": 36, "duration": 21, "velocity": 56}, {"time": 1125, "pitch": 43, "duration": 22, "velocity": 53}, {"time": 1125, "pitch": 48, "duration": 21, "velocity": 72}, {"time": 1125, "pitch": 52, "duration": 22, "velocity": 66}, {"time": 1125, "pitch": 55, "duration": 22, "velocity": 66}, {"time": 1149, "pitch": 36, "duration": 21, "velocity": 61}, {"time": 1149, "pitch": 43, "duration": 21, "velocity": 52}, {"time": 1149, "pitch": 48, "duration": 22, "velocity": 55}, {"time": 1149, "pitch": 52, "duration": 22, "velocity": 53}, {"time": 1149, "pitch": 55, "duration": 22, "velocity": 59}, {"time": 1173, "pitch": 36, "duration": 23, "velocity": 53}, {"time": 1173, "pitch": 43, "duration": 23, "velocity": 56}, {"time": 1173, "pitch": 48, "duration": 21, "velocity": 65}, {"time": 1173, "pitch": 52, "duration": 22, "velocity": 57}, {"time": 1173, "pitch": 55, "duration": 20, "velocity": 61}, {"time": 1197, "pitch": 38, "duration": 21, "velocity": 66}, {"time": 1197, "pitch": 50, "duration": 21, "velocity": 70}, {"time": 1197, "pitch": 54, "duration": 21, "velocity": 58}, {"time": 1197, "pitch": 57, "duration": 21, "velocity": 64}, {"time": 1221, "pitch": 38, "duration": 22, "velocity": 50}, {"time": 1221, "pitch": 45, "duration": 23, "velocity": 56}, {"time": 1221, "pitch": 50, "duration": 22, "velocity": 61}, {"time": 1221, "pitch": 54, "duration": 23, "velocity": 69}, {"time": 1221, "pitch": 57, "duration": 22, "velocity": 63}, {"time": 1245, "pitch": 38, "duration": 22, "velocity": 62}, {"time": 1245, "pitch": 45, "duration": 22, "velocity": 67}, {"time": 1245, "pitch": 50, "duration": 21, "velocity": 69}, {"time": 1245, "pitch": 54, "duration": 21, "velocity": 89}, {"time": 1245, "pitch": 57, "duration": 21, "velocity": 74}, {"time": 1269, "pitch": 38, "duration": 20, "velocity": 63}, {"time": 1269, "pitch": 50, "duration": 21, "velocity": 73}, {"time": 1269, "pitch": 54, "duration": 20, "velocity": 67}, {"time": 1269, "pitch": 57, "duration": 20, "velocity": 68}, {"time": 1293, "pitch": 43, "duration": 21, "velocity": 78}, {"time": 1293, "pitch": 55, "duration": 5, "velocity": 81}, {"time": 1293, "pitch": 59, "duration": 5, "velocity": 74}, {"time": 1293, "pitch": 62, "duration": 5, "velocity": 70}, {"time": 1299, "pitch": 55, "duration": 4, "velocity": 61}, {"time": 1299, "pitch": 59, "duration": 5, "velocity": 65}, {"time": 1299, "pitch": 62, "duration": 4, "velocity": 59}, {"time": 1305, "pitch": 50, "duration": 10, "velocity": 53}, {"time": 1305, "pitch": 55, "duration": 4, "velocity": 92}, {"time": 1305, "pitch": 59, "duration": 5, "velocity": 92}, {"time": 1305, "pitch": 62, "duration": 4, "velocity": 90}, {"time": 1311, "pitch": 55, "duration": 4, "velocity": 67}, {"time": 1311, "pitch": 59, "duration": 5, "velocity": 71}, {"time": 1311, "pitch": 62, "duration": 4, "velocity": 63}, {"time": 1317, "pitch": 43, "duration": 22, "velocity": 66}, {"time": 1317, "pitch": 55, "duration": 5, "velocity": 89}, {"time": 1317, "pitch": 59, "duration": 5, "velocity": 86}, {"time": 1317, "pitch": 62, "duration": 5, "velocity": 90}, {"time": 1323, "pitch": 55, "duration": 5, "velocity": 69}, {"time": 1323, "pitch": 59, "duration": 5, "velocity": 71}, {"time": 1323, "pitch": 62, "duration": 5, "velocity": 68}, {"time": 1329, "pitch": 55, "duration": 4, "velocity": 93}, {"time": 1329, "pitch": 59, "duration": 4, "velocity": 99}, {"time": 1329, "pitch": 62, "duration": 4, "velocity": 96}, {"time": 1335, "pitch": 55, "duration": 4, "velocity": 83}, {"time": 1335, "pitch": 59, "duration": 4, "velocity": 85}, {"time": 1335, "pitch": 62, "duration": 4, "velocity": 79}, {"time": 1341, "pitch": 43, "duration": 22, "velocity": 72}, {"time": 1341, "pitch": 55, "duration": 5, "velocity": 89}, {"time": 1341, "pitch": 59, "duration": 5, "velocity": 88}, {"time": 1341, "pitch": 62, "duration": 5, "velocity": 90}, {"time": 1347, "pitch": 55, "duration": 4, "velocity": 64}, {"time": 1347, "pitch": 59, "duration": 4, "velocity": 69}, {"time": 1347, "pitch": 62, "duration": 4, "velocity": 66}, {"time": 1353, "pitch": 50, "duration": 11, "velocity": 44}, {"time": 1353, "pitch": 55, "duration": 4, "velocity": 97}, {"time": 1353, "pitch": 59, "duration": 5, "velocity": 96}, {"time": 1353, "pitch": 62, "duration": 5, "velocity": 95}, {"time": 1359, "pitch": 55, "duration": 4, "velocity": 77}, {"time": 1359, "pitch": 59, "duration": 4, "velocity": 85}, {"time": 1359, "pitch": 62, "duration": 4, "velocity": 72}, {"time": 1365, "pitch": 43, "duration": 14, "velocity": 67}, {"time": 1365, "pitch": 55, "duration": 5, "velocity": 93}, {"time": 1365, "pitch": 59, "duration": 5, "velocity": 100}, {"time": 1365, "pitch": 62, "duration": 5, "velocity": 90}, {"time": 1371, "pitch": 55, "duration": 4, "velocity": 71}, {"time": 1371, "pitch": 59, "duration": 5, "velocity": 74}, {"time": 1371, "pitch": 62, "duration": 5, "velocity": 72}, {"time": 1377, "pitch": 50, "duration": 1, "velocity": 67}, {"time": 1377, "pitch": 59, "duration": 7, "velocity": 107}, {"time": 1377, "pitch": 62, "duration": 7, "velocity": 100}, {"time": 1383, "pitch": 55, "duration": 5, "velocity": 107}, {"time": 1389, "pitch": 40, "duration": 46, "velocity": 75}, {"time": 1389, "pitch": 52, "duration": 5, "velocity": 99}, {"time": 1389, "pitch": 55, "duration": 5, "velocity": 90}, {"time": 1389, "pitch": 59, "duration": 1, "velocity": 36}, {"time": 1389, "pitch": 59, "duration": 1, "velocity": 92}, {"time": 1395, "pitch": 52, "duration": 2, "velocity": 59}, {"time": 1395, "pitch": 55, "duration": 5, "velocity": 63}, {"time": 1395, "pitch": 59, "duration": 4, "velocity": 63}, {"time": 1401, "pitch": 47, "duration": 37, "velocity": 63}, {"time": 1401, "pitch": 52, "duration": 1, "velocity": 112}, {"time": 1401, "pitch": 55, "duration": 1, "velocity": 97}, {"time": 1401, "pitch": 59, "duration": 1, "velocity": 102}, {"time": 1407, "pitch": 55, "duration": 2, "velocity": 74}, {"time": 1407, "pitch": 59, "duration": 2, "velocity": 76}, {"time": 1413, "pitch": 52, "duration": 8, "velocity": 67}, {"time": 1413, "pitch": 55, "duration": 5, "velocity": 90}, {"time": 1413, "pitch": 59, "duration": 5, "velocity": 89}, {"time": 1413, "pitch": 64, "duration": 5, "velocity": 86}, {"time": 1419, "pitch": 55, "duration": 4, "velocity": 64}, {"time": 1419, "pitch": 59, "duration": 5, "velocity": 59}, {"time": 1419, "pitch": 64, "duration": 5, "velocity": 62}, {"time": 1425, "pitch": 52, "duration": 7, "velocity": 65}, {"time": 1425, "pitch": 59, "duration": 5, "velocity": 100}, {"time": 1425, "pitch": 64, "duration": 5, "velocity": 100}, {"time": 1431, "pitch": 55, "duration": 5, "velocity": 76}, {"time": 1431, "pitch": 59, "duration": 5, "velocity": 72}, {"time": 1431, "pitch": 64, "duration": 4, "velocity": 66}, {"time": 1437, "pitch": 40, "duration": 33, "velocity": 83}, {"time": 1437, "pitch": 55, "duration": 5, "velocity": 88}, {"time": 1437, "pitch": 59, "duration": 5, "velocity": 88}, {"time": 1437, "pitch": 64, "duration": 5, "velocity": 79}, {"time": 1443, "pitch": 47, "duration": 26, "velocity": 63}, {"time": 1443, "pitch": 55, "duration": 4, "velocity": 59}, {"time": 1443, "pitch": 59, "duration": 4, "velocity": 66}, {"time": 1443, "pitch": 64, "duration": 4, "velocity": 66}, {"time": 1449, "pitch": 52, "duration": 8, "velocity": 90}, {"time": 1449, "pitch": 55, "duration": 3, "velocity": 97}, {"time": 1449, "pitch": 59, "duration": 4, "velocity": 96}, {"time": 1449, "pitch": 64, "duration": 4, "velocity": 90}, {"time": 1455, "pitch": 55, "duration": 4, "velocity": 85}, {"time": 1455, "pitch": 59, "duration": 1, "velocity": 49}, {"time": 1455, "pitch": 64, "duration": 1, "velocity": 34}, {"time": 1461, "pitch": 52, "duration": 5, "velocity": 76}, {"time": 1461, "pitch": 59, "duration": 8, "velocity": 95}, {"time": 1461, "pitch": 62, "duration": 2, "velocity": 72}, {"time": 1461, "pitch": 64, "duration": 10, "velocity": 69}, {"time": 1467, "pitch": 55, "duration": 6, "velocity": 72}, {"time": 1473, "pitch": 59, "duration": 10, "velocity": 97}, {"time": 1473, "pitch": 64, "duration": 6, "velocity": 95}, {"time": 1479, "pitch": 55, "duration": 4, "velocity": 70}, {"time": 1485, "pitch": 36, "duration": 22, "velocity": 65}, {"time": 1485, "pitch": 43, "duration": 2, "velocity": 65}, {"time": 1485, "pitch": 48, "duration": 38, "velocity": 92}, {"time": 1485, "pitch": 55, "duration": 10, "velocity": 95}, {"time": 1485, "pitch": 60, "duration": 4, "velocity": 96}, {"time": 1485, "pitch": 64, "duration": 4, "velocity": 93}, {"time": 1491, "pitch": 60, "duration": 4, "velocity": 71}, {"time": 1491, "pitch": 64, "duration": 4, "velocity": 66}, {"time": 1497, "pitch": 43, "duration": 13, "velocity": 53}, {"time": 1497, "pitch": 55, "duration": 5, "velocity": 97}, {"time": 1497, "pitch": 60, "duration": 5, "velocity": 96}, {"time": 1497, "pitch": 64, "duration": 5, "velocity": 90}, {"time": 1503, "pitch": 55, "duration": 4, "velocity": 61}, {"time": 1503, "pitch": 60, "duration": 5, "velocity": 77}, {"time": 1503, "pitch": 64, "duration": 4, "velocity": 71}, {"time": 1509, "pitch": 36, "duration": 16, "velocity": 59}, {"time": 1509, "pitch": 55, "duration": 4, "velocity": 97}, {"time": 1509, "pitch": 60, "duration": 5, "velocity": 100}, {"time": 1509, "pitch": 64, "duration": 5, "velocity": 93}, {"time": 1515, "pitch": 55, "duration": 5, "velocity": 73}, {"time": 1515, "pitch": 60, "duration": 5, "velocity": 63}, {"time": 1515, "pitch": 64, "duration": 5, "velocity": 58}, {"time": 1521, "pitch": 43, "duration": 5, "velocity": 51}, {"time": 1521, "pitch": 55, "duration": 5, "velocity": 89}, {"time": 1521, "pitch": 60, "duration": 4, "velocity": 112}, {"time": 1521, "pitch": 64, "duration": 4, "velocity": 97}, {"time": 1527, "pitch": 55, "duration": 2, "velocity": 79}, {"time": 1527, "pitch": 60, "duration": 1, "velocity": 88}, {"time": 1527, "pitch": 64, "duration": 1, "velocity": 69}, {"time": 1533, "pitch": 35, "duration": 17, "velocity": 74}, {"time": 1533, "pitch": 59, "duration": 4, "velocity": 96}, {"time": 1533, "pitch": 62, "duration": 4, "velocity": 102}, {"time": 1533, "pitch": 66, "duration": 5, "velocity": 100}, {"time": 1539, "pitch": 42, "duration": 6, "velocity": 29}, {"time": 1539, "pitch": 59, "duration": 4, "velocity": 72}, {"time": 1539, "pitch": 62, "duration": 4, "velocity": 81}, {"time": 1539, "pitch": 66, "duration": 4, "velocity": 66}, {"time": 1545, "pitch": 47, "duration": 11, "velocity": 66}, {"time": 1545, "pitch": 59, "duration": 2, "velocity": 82}, {"time": 1545, "pitch": 62, "duration": 5, "velocity": 112}, {"time": 1545, "pitch": 66, "duration": 5, "velocity": 100}, {"time": 1551, "pitch": 59, "duration": 1, "velocity": 96}, {"time": 1557, "pitch": 40, "duration": 13, "velocity": 76}, {"time": 1557, "pitch": 52, "duration": 5, "velocity": 89}, {"time": 1557, "pitch": 56, "duration": 6, "velocity": 88}, {"time": 1557, "pitch": 59, "duration": 5, "velocity": 83}, {"time": 1563, "pitch": 52, "duration": 4, "velocity": 83}, {"time": 1563, "pitch": 56, "duration": 5, "velocity": 85}, {"time": 1563, "pitch": 59, "duration": 5, "velocity": 74}, {"time": 1569, "pitch": 52, "duration": 1, "velocity": 62}, {"time": 1569, "pitch": 56, "duration": 4, "velocity": 117}, {"time": 1569, "pitch": 59, "duration": 4, "velocity": 92}, {"time": 1575, "pitch": 56, "duration": 4, "velocity": 92}, {"time": 1575, "pitch": 59, "duration": 2, "velocity": 78}, {"time": 1581, "pitch": 33, "duration": 41, "velocity": 81}, {"time": 1581, "pitch": 52, "duration": 4, "velocity": 100}, {"time": 1581, "pitch": 57, "duration": 5, "velocity": 96}, {"time": 1581, "pitch": 60, "duration": 5, "velocity": 97}, {"time": 1587, "pitch": 52, "duration": 4, "velocity": 81}, {"time": 1587, "pitch": 57, "duration": 4, "velocity": 72}, {"time": 1587, "pitch": 60, "duration": 4, "velocity": 66}, {"time": 1593, "pitch": 45, "duration": 34, "velocity": 65}, {"time": 1593, "pitch": 52, "duration": 4, "velocity": 96}, {"time": 1593, "pitch": 57, "duration": 7, "velocity": 100}, {"time": 1593, "pitch": 60, "duration": 7, "velocity": 99}, {"time": 1599, "pitch": 52, "duration": 4, "velocity": 78}, {"time": 1605, "pitch": 40, "duration": 17, "velocity": 25}, {"time": 1605, "pitch": 52, "duration": 5, "velocity": 100}, {"time": 1605, "pitch": 57, "duration": 10, "velocity": 97}, {"time": 1605, "pitch": 60, "duration": 10, "velocity": 92}, {"time": 1611, "pitch": 52, "duration": 4, "velocity": 73}, {"time": 1617, "pitch": 52, "duration": 2, "velocity": 67}, {"time": 1617, "pitch": 57, "duration": 6, "velocity": 100}, {"time": 1617, "pitch": 60, "duration": 6, "velocity": 97}, {"time": 1623, "pitch": 52, "duration": 2, "velocity": 92}, {"time": 1629, "pitch": 38, "duration": 21, "velocity": 97}, {"time": 1629, "pitch": 50, "duration": 4, "velocity": 100}, {"time": 1629, "pitch": 54, "duration": 5, "velocity": 100}, {"time": 1629, "pitch": 57, "duration": 5, "velocity": 90}, {"time": 1635, "pitch": 50, "duration": 4, "velocity": 83}, {"time": 1635, "pitch": 54, "duration": 4, "velocity": 89}, {"time": 1635, "pitch": 57, "duration": 4, "velocity": 72}, {"time": 1641, "pitch": 45, "duration": 11, "velocity": 65}, {"time": 1641, "pitch": 50, "duration": 4, "velocity": 96}, {"time": 1641, "pitch": 54, "duration": 5, "velocity": 122}, {"time": 1641, "pitch": 57, "duration": 5, "velocity": 96}, {"time": 1647, "pitch": 50, "duration": 3, "velocity": 86}, {"time": 1647, "pitch": 54, "duration": 4, "velocity": 99}, {"time": 1647, "pitch": 57, "duration": 4, "velocity": 82}, {"time": 1653, "pitch": 38, "duration": 17, "velocity": 88}, {"time": 1653, "pitch": 50, "duration": 2, "velocity": 93}, {"time": 1653, "pitch": 54, "duration": 2, "velocity": 100}, {"time": 1653, "pitch": 57, "duration": 2, "velocity": 93}, {"time": 1659, "pitch": 45, "duration": 5, "velocity": 68}, {"time": 1659, "pitch": 54, "duration": 1, "velocity": 96}, {"time": 1659, "pitch": 57, "duration": 1, "velocity": 73}, {"time": 1665, "pitch": 45, "duration": 5, "velocity": 89}, {"time": 1665, "pitch": 57, "duration": 4, "velocity": 92}, {"time": 1665, "pitch": 62, "duration": 4, "velocity": 99}, {"time": 1665, "pitch": 66, "duration": 1, "velocity": 57}, {"time": 1665, "pitch": 66, "duration": 1, "velocity": 96}, {"time": 1671, "pitch": 57, "duration": 3, "velocity": 100}, {"time": 1671, "pitch": 62, "duration": 1, "velocity": 97}, {"time": 1671, "pitch": 66, "duration": 1, "velocity": 63}, {"time": 1677, "pitch": 43, "duration": 22, "velocity": 77}, {"time": 1677, "pitch": 55, "duration": 5, "velocity": 99}, {"time": 1677, "pitch": 59, "duration": 5, "velocity": 97}, {"time": 1677, "pitch": 62, "duration": 5, "velocity": 97}, {"time": 1683, "pitch": 55, "duration": 4, "velocity": 85}, {"time": 1683, "pitch": 59, "duration": 4, "velocity": 89}, {"time": 1683, "pitch": 62, "duration": 4, "velocity": 88}, {"time": 1689, "pitch": 50, "duration": 12, "velocity": 63}, {"time": 1689, "pitch": 55, "duration": 5, "velocity": 92}, {"time": 1689, "pitch": 59, "duration": 5, "velocity": 93}, {"time": 1689, "pitch": 62, "duration": 4, "velocity": 96}, {"time": 1695, "pitch": 55, "duration": 4, "velocity": 63}, {"time": 1695, "pitch": 59, "duration": 4, "velocity": 83}, {"time": 1695, "pitch": 62, "duration": 4, "velocity": 85}, {"time": 1701, "pitch": 43, "duration": 22, "velocity": 72}, {"time": 1701, "pitch": 55, "duration": 4, "velocity": 78}, {"time": 1701, "pitch": 59, "duration": 4, "velocity": 86}, {"time": 1701, "pitch": 62, "duration": 4, "velocity": 92}, {"time": 1707, "pitch": 55, "duration": 4, "velocity": 79}, {"time": 1707, "pitch": 59, "duration": 4, "velocity": 83}, {"time": 1707, "pitch": 62, "duration": 4, "velocity": 82}, {"time": 1713, "pitch": 50, "duration": 12, "velocity": 56}, {"time": 1713, "pitch": 55, "duration": 1, "velocity": 61}, {"time": 1713, "pitch": 59, "duration": 4, "velocity": 99}, {"time": 1713, "pitch": 62, "duration": 4, "velocity": 97}, {"time": 1719, "pitch": 55, "duration": 4, "velocity": 90}, {"time": 1719, "pitch": 59, "duration": 4, "velocity": 93}, {"time": 1719, "pitch": 62, "duration": 4, "velocity": 82}, {"time": 1725, "pitch": 43, "duration": 19, "velocity": 66}, {"time": 1725, "pitch": 55, "duration": 4, "velocity": 81}, {"time": 1725, "pitch": 59, "duration": 4, "velocity": 92}, {"time": 1725, "pitch": 62, "duration": 4, "velocity": 90}, {"time": 1731, "pitch": 55, "duration": 4, "velocity": 77}, {"time": 1731, "pitch": 59, "duration": 4, "velocity": 85}, {"time": 1731, "pitch": 62, "duration": 4, "velocity": 81}, {"time": 1737, "pitch": 50, "duration": 12, "velocity": 63}, {"time": 1737, "pitch": 55, "duration": 4, "velocity": 90}, {"time": 1737, "pitch": 59, "duration": 4, "velocity": 93}, {"time": 1737, "pitch": 62, "duration": 4, "velocity": 93}, {"time": 1743, "pitch": 55, "duration": 4, "velocity": 78}, {"time": 1743, "pitch": 59, "duration": 4, "velocity": 86}, {"time": 1743, "pitch": 62, "duration": 4, "velocity": 86}, {"time": 1749, "pitch": 43, "duration": 13, "velocity": 77}, {"time": 1749, "pitch": 55, "duration": 4, "velocity": 86}, {"time": 1749, "pitch": 59, "duration": 4, "velocity": 89}, {"time": 1749, "pitch": 62, "duration": 4, "velocity": 90}, {"time": 1755, "pitch": 55, "duration": 4, "velocity": 81}, {"time": 1755, "pitch": 59, "duration": 4, "velocity": 83}, {"time": 1755, "pitch": 62, "duration": 4, "velocity": 82}, {"time": 1761, "pitch": 50, "duration": 1, "velocity": 82}, {"time": 1761, "pitch": 55, "duration": 4, "velocity": 88}, {"time": 1761, "pitch": 59, "duration": 4, "velocity": 96}, {"time": 1761, "pitch": 62, "duration": 4, "velocity": 95}, {"time": 1767, "pitch": 55, "duration": 2, "velocity": 93}, {"time": 1767, "pitch": 59, "duration": 1, "velocity": 93}, {"time": 1767, "pitch": 62, "duration": 1, "velocity": 89}, {"time": 1773, "pitch": 40, "duration": 19, "velocity": 83}, {"time": 1773, "pitch": 52, "duration": 4, "velocity": 93}, {"time": 1773, "pitch": 55, "duration": 4, "velocity": 85}, {"time": 1773, "pitch": 59, "duration": 4, "velocity": 88}, {"time": 1779, "pitch": 52, "duration": 4, "velocity": 85}, {"time": 1779, "pitch": 55, "duration": 4, "velocity": 82}, {"time": 1779, "pitch": 59, "duration": 4, "velocity": 78}, {"time": 1785, "pitch": 47, "duration": 12, "velocity": 69}, {"time": 1785, "pitch": 52, "duration": 2, "velocity": 88}, {"time": 1785, "pitch": 55, "duration": 3, "velocity": 89}, {"time": 1785, "pitch": 59, "duration": 3, "velocity": 85}, {"time": 1791, "pitch": 52, "duration": 4, "velocity": 75}, {"time": 1791, "pitch": 55, "duration": 4, "velocity": 82}, {"time": 1791, "pitch": 59, "duration": 4, "velocity": 76}, {"time": 1797, "pitch": 40, "duration": 19, "velocity": 82}, {"time": 1797, "pitch": 52, "duration": 4, "velocity": 83}, {"time": 1797, "pitch": 55, "duration": 5, "velocity": 85}, {"time": 1797, "pitch": 59, "duration": 4, "velocity": 83}, {"time": 1803, "pitch": 52, "duration": 4, "velocity": 75}, {"time": 1803, "pitch": 55, "duration": 4, "velocity": 74}, {"time": 1803, "pitch": 59, "duration": 4, "velocity": 67}, {"time": 1809, "pitch": 47, "duration": 12, "velocity": 79}, {"time": 1809, "pitch": 52, "duration": 4, "velocity": 90}, {"time": 1809, "pitch": 55, "duration": 4, "velocity": 88}, {"time": 1809, "pitch": 59, "duration": 4, "velocity": 79}, {"time": 1815, "pitch": 52, "duration": 4, "velocity": 83}, {"time": 1815, "pitch": 55, "duration": 4, "velocity": 77}, {"time": 1815, "pitch": 59, "duration": 4, "velocity": 77}, {"time": 1821, "pitch": 40, "duration": 18, "velocity": 69}, {"time": 1821, "pitch": 52, "duration": 4, "velocity": 89}, {"time": 1821, "pitch": 55, "duration": 5, "velocity": 85}, {"time": 1821, "pitch": 59, "duration": 4, "velocity": 82}, {"time": 1827, "pitch": 52, "duration": 4, "velocity": 74}, {"time": 1827, "pitch": 55, "duration": 4, "velocity": 74}, {"time": 1827, "pitch": 59, "duration": 4, "velocity": 65}, {"time": 1833, "pitch": 47, "duration": 12, "velocity": 54}, {"time": 1833, "pitch": 52, "duration": 4, "velocity": 95}, {"time": 1833, "pitch": 55, "duration": 4, "velocity": 89}, {"time": 1833, "pitch": 59, "duration": 3, "velocity": 78}, {"time": 1839, "pitch": 52, "duration": 4, "velocity": 78}, {"time": 1839, "pitch": 55, "duration": 4, "velocity": 82}, {"time": 1839, "pitch": 59, "duration": 4, "velocity": 79}, {"time": 1845, "pitch": 40, "duration": 13, "velocity": 63}, {"time": 1845, "pitch": 52, "duration": 4, "velocity": 89}, {"time": 1845, "pitch": 55, "duration": 4, "velocity": 85}, {"time": 1845, "pitch": 59, "duration": 4, "velocity": 85}, {"time": 1851, "pitch": 52, "duration": 4, "velocity": 74}, {"time": 1851, "pitch": 55, "duration": 5, "velocity": 76}, {"time": 1851, "pitch": 59, "duration": 4, "velocity": 67}, {"time": 1857, "pitch": 47, "duration": 1, "velocity": 65}, {"time": 1857, "pitch": 52, "duration": 5, "velocity": 77}, {"time": 1857, "pitch": 55, "duration": 4, "velocity": 82}, {"time": 1857, "pitch": 59, "duration": 4, "velocity": 85}, {"time": 1863, "pitch": 52, "duration": 1, "velocity": 42}, {"time": 1863, "pitch": 55, "duration": 1, "velocity": 74}, {"time": 1863, "pitch": 59, "duration": 1, "velocity": 63}, {"time": 1869, "pitch": 36, "duration": 21, "velocity": 76}, {"time": 1869, "pitch": 55, "duration": 4, "velocity": 92}, {"time": 1869, "pitch": 60, "duration": 5, "velocity": 88}, {"time": 1869, "pitch": 64, "duration": 4, "velocity": 82}, {"time": 1875, "pitch": 43, "duration": 18, "velocity": 52}, {"time": 1875, "pitch": 55, "duration": 4, "velocity": 77}, {"time": 1875, "pitch": 60, "duration": 4, "velocity": 85}, {"time": 1875, "pitch": 64, "duration": 4, "velocity": 77}, {"time": 1881, "pitch": 48, "duration": 9, "velocity": 79}, {"time": 1881, "pitch": 55, "duration": 4, "velocity": 95}, {"time": 1881, "pitch": 60, "duration": 4, "velocity": 100}, {"time": 1881, "pitch": 64, "duration": 3, "velocity": 90}, {"time": 1887, "pitch": 55, "duration": 3, "velocity": 63}, {"time": 1887, "pitch": 60, "duration": 4, "velocity": 63}, {"time": 1887, "pitch": 64, "duration": 4, "velocity": 59}, {"time": 1893, "pitch": 36, "duration": 22, "velocity": 75}, {"time": 1893, "pitch": 55, "duration": 4, "velocity": 81}, {"time": 1893, "pitch": 60, "duration": 4, "velocity": 89}, {"time": 1893, "pitch": 64, "duration": 4, "velocity": 79}, {"time": 1899, "pitch": 43, "duration": 18, "velocity": 35}, {"time": 1899, "pitch": 55, "duration": 4, "velocity": 67}, {"time": 1899, "pitch": 60, "duration": 4, "velocity": 88}, {"time": 1899, "pitch": 64, "duration": 4, "velocity": 72}, {"time": 1905, "pitch": 48, "duration": 10, "velocity": 67}, {"time": 1905, "pitch": 55, "duration": 4, "velocity": 83}, {"time": 1905, "pitch": 60, "duration": 4, "velocity": 95}, {"time": 1905, "pitch": 64, "duration": 4, "velocity": 92}, {"time": 1911, "pitch": 55, "duration": 4, "velocity": 74}, {"time": 1911, "pitch": 60, "duration": 4, "velocity": 77}, {"time": 1911, "pitch": 64, "duration": 4, "velocity": 71}, {"time": 1917, "pitch": 35, "duration": 18, "velocity": 72}, {"time": 1917, "pitch": 59, "duration": 4, "velocity": 78}, {"time": 1917, "pitch": 62, "duration": 4, "velocity": 97}, {"time": 1917, "pitch": 66, "duration": 4, "velocity": 96}, {"time": 1923, "pitch": 42, "duration": 13, "velocity": 71}, {"time": 1923, "pitch": 59, "duration": 4, "velocity": 83}, {"time": 1923, "pitch": 62, "duration": 4, "velocity": 97}, {"time": 1923, "pitch": 66, "duration": 4, "velocity": 99}, {"time": 1929, "pitch": 47, "duration": 12, "velocity": 82}, {"time": 1929, "pitch": 59, "duration": 4, "velocity": 93}, {"time": 1929, "pitch": 62, "duration": 4, "velocity": 102}, {"time": 1929, "pitch": 66, "duration": 4, "velocity": 117}, {"time": 1935, "pitch": 59, "duration": 2, "velocity": 90}, {"time": 1935, "pitch": 62, "duration": 1, "velocity": 102}, {"time": 1935, "pitch": 66, "duration": 1, "velocity": 96}, {"time": 1941, "pitch": 40, "duration": 14, "velocity": 73}, {"time": 1941, "pitch": 52, "duration": 5, "velocity": 107}, {"time": 1941, "pitch": 56, "duration": 5, "velocity": 112}, {"time": 1941, "pitch": 59, "duration": 5, "velocity": 99}, {"time": 1947, "pitch": 52, "duration": 4, "velocity": 77}, {"time": 1947, "pitch": 56, "duration": 4, "velocity": 95}, {"time": 1947, "pitch": 59, "duration": 4, "velocity": 83}, {"time": 1953, "pitch": 47, "duration": 3, "velocity": 59}, {"time": 1953, "pitch": 52, "duration": 4, "velocity": 90}, {"time": 1953, "pitch": 56, "duration": 4, "velocity": 102}, {"time": 1953, "pitch": 59, "duration": 4, "velocity": 92}, {"time": 1959, "pitch": 52, "duration": 1, "velocity": 64}, {"time": 1959, "pitch": 56, "duration": 1, "velocity": 97}, {"time": 1959, "pitch": 59, "duration": 1, "velocity": 78}, {"time": 1965, "pitch": 45, "duration": 18, "velocity": 72}, {"time": 1965, "pitch": 57, "duration": 4, "velocity": 93}, {"time": 1965, "pitch": 60, "duration": 4, "velocity": 92}, {"time": 1965, "pitch": 64, "duration": 4, "velocity": 90}, {"time": 1971, "pitch": 57, "duration": 3, "velocity": 82}, {"time": 1971, "pitch": 60, "duration": 3, "velocity": 85}, {"time": 1971, "pitch": 64, "duration": 4, "velocity": 76}, {"time": 1977, "pitch": 52, "duration": 12, "velocity": 69}, {"time": 1977, "pitch": 57, "duration": 3, "velocity": 96}, {"time": 1977, "pitch": 60, "duration": 4, "velocity": 96}, {"time": 1977, "pitch": 64, "duration": 4, "velocity": 86}, {"time": 1983, "pitch": 57, "duration": 4, "velocity": 89}, {"time": 1983, "pitch": 60, "duration": 4, "velocity": 88}, {"time": 1983, "pitch": 64, "duration": 4, "velocity": 82}, {"time": 1989, "pitch": 45, "duration": 16, "velocity": 66}, {"time": 1989, "pitch": 57, "duration": 4, "velocity": 89}, {"time": 1989, "pitch": 60, "duration": 4, "velocity": 96}, {"time": 1989, "pitch": 64, "duration": 4, "velocity": 85}, {"time": 1995, "pitch": 57, "duration": 4, "velocity": 82}, {"time": 1995, "pitch": 60, "duration": 4, "velocity": 93}, {"time": 1995, "pitch": 64, "duration": 4, "velocity": 83}, {"time": 2001, "pitch": 52, "duration": 3, "velocity": 44}, {"time": 2001, "pitch": 57, "duration": 4, "velocity": 92}, {"time": 2001, "pitch": 60, "duration": 4, "velocity": 89}, {"time": 2001, "pitch": 64, "duration": 4, "velocity": 78}, {"time": 2007, "pitch": 57, "duration": 2, "velocity": 93}, {"time": 2007, "pitch": 60, "duration": 2, "velocity": 96}, {"time": 2007, "pitch": 64, "duration": 2, "velocity": 92}, {"time": 2013, "pitch": 38, "duration": 22, "velocity": 77}, {"time": 2013, "pitch": 57, "duration": 4, "velocity": 97}, {"time": 2013, "pitch": 62, "duration": 4, "velocity": 96}, {"time": 2013, "pitch": 66, "duration": 4, "velocity": 95}, {"time": 2019, "pitch": 45, "duration": 8, "velocity": 45}, {"time": 2019, "pitch": 57, "duration": 4, "velocity": 88}, {"time": 2019, "pitch": 62, "duration": 4, "velocity": 96}, {"time": 2019, "pitch": 66, "duration": 4, "velocity": 95}, {"time": 2025, "pitch": 50, "duration": 26, "velocity": 57}, {"time": 2025, "pitch": 57, "duration": 4, "velocity": 88}, {"time": 2025, "pitch": 62, "duration": 4, "velocity": 99}, {"time": 2025, "pitch": 66, "duration": 4, "velocity": 102}, {"time": 2031, "pitch": 45, "duration": 6, "velocity": 57}, {"time": 2031, "pitch": 57, "duration": 4, "velocity": 85}, {"time": 2031, "pitch": 62, "duration": 4, "velocity": 97}, {"time": 2031, "pitch": 66, "duration": 4, "velocity": 97}, {"time": 2037, "pitch": 38, "duration": 15, "velocity": 59}, {"time": 2037, "pitch": 57, "duration": 11, "velocity": 88}, {"time": 2037, "pitch": 62, "duration": 11, "velocity": 99}, {"time": 2037, "pitch": 66, "duration": 11, "velocity": 100}, {"time": 2049, "pitch": 45, "duration": 4, "velocity": 64}, {"time": 2049, "pitch": 57, "duration": 9, "velocity": 88}, {"time": 2049, "pitch": 62, "duration": 6, "velocity": 95}, {"time": 2049, "pitch": 66, "duration": 6, "velocity": 100}, {"time": 2061, "pitch": 43, "duration": 16, "velocity": 73}, {"time": 2061, "pitch": 55, "duration": 5, "velocity": 97}, {"time": 2061, "pitch": 59, "duration": 5, "velocity": 95}, {"time": 2061, "pitch": 62, "duration": 5, "velocity": 93}, {"time": 2067, "pitch": 55, "duration": 4, "velocity": 75}, {"time": 2067, "pitch": 59, "duration": 4, "velocity": 78}, {"time": 2067, "pitch": 62, "duration": 4, "velocity": 72}, {"time": 2073, "pitch": 50, "duration": 12, "velocity": 42}, {"time": 2073, "pitch": 55, "duration": 4, "velocity": 95}, {"time": 2073, "pitch": 59, "duration": 4, "velocity": 96}, {"time": 2073, "pitch": 62, "duration": 4, "velocity": 96}, {"time": 2079, "pitch": 55, "duration": 4, "velocity": 61}, {"time": 2079, "pitch": 59, "duration": 4, "velocity": 68}, {"time": 2079, "pitch": 62, "duration": 4, "velocity": 69}, {"time": 2085, "pitch": 43, "duration": 17, "velocity": 64}, {"time": 2085, "pitch": 55, "duration": 5, "velocity": 92}, {"time": 2085, "pitch": 59, "duration": 5, "velocity": 85}, {"time": 2085, "pitch": 62, "duration": 5, "velocity": 85}, {"time": 2091, "pitch": 55, "duration": 4, "velocity": 72}, {"time": 2091, "pitch": 59, "duration": 4, "velocity": 77}, {"time": 2091, "pitch": 62, "duration": 4, "velocity": 72}, {"time": 2097, "pitch": 50, "duration": 12, "velocity": 93}, {"time": 2097, "pitch": 55, "duration": 4, "velocity": 95}, {"time": 2097, "pitch": 59, "duration": 4, "velocity": 95}, {"time": 2097, "pitch": 62, "duration": 4, "velocity": 90}, {"time": 2103, "pitch": 55, "duration": 4, "velocity": 83}, {"time": 2103, "pitch": 59, "duration": 4, "velocity": 82}, {"time": 2103, "pitch": 62, "duration": 4, "velocity": 72}, {"time": 2109, "pitch": 43, "duration": 17, "velocity": 69}, {"time": 2109, "pitch": 55, "duration": 4, "velocity": 92}, {"time": 2109, "pitch": 59, "duration": 4, "velocity": 93}, {"time": 2109, "pitch": 62, "duration": 4, "velocity": 86}, {"time": 2115, "pitch": 55, "duration": 4, "velocity": 73}, {"time": 2115, "pitch": 59, "duration": 4, "velocity": 78}, {"time": 2115, "pitch": 62, "duration": 4, "velocity": 71}, {"time": 2121, "pitch": 50, "duration": 13, "velocity": 68}, {"time": 2121, "pitch": 55, "duration": 4, "velocity": 86}, {"time": 2121, "pitch": 59, "duration": 4, "velocity": 90}, {"time": 2121, "pitch": 62, "duration": 4, "velocity": 83}, {"time": 2127, "pitch": 55, "duration": 4, "velocity": 69}, {"time": 2127, "pitch": 59, "duration": 5, "velocity": 68}, {"time": 2127, "pitch": 62, "duration": 4, "velocity": 66}, {"time": 2133, "pitch": 43, "duration": 13, "velocity": 58}, {"time": 2133, "pitch": 55, "duration": 4, "velocity": 81}, {"time": 2133, "pitch": 59, "duration": 5, "velocity": 83}, {"time": 2133, "pitch": 62, "duration": 4, "velocity": 81}, {"time": 2139, "pitch": 55, "duration": 4, "velocity": 66}, {"time": 2139, "pitch": 59, "duration": 4, "velocity": 64}, {"time": 2139, "pitch": 62, "duration": 4, "velocity": 61}, {"time": 2145, "pitch": 50, "duration": 2, "velocity": 67}, {"time": 2145, "pitch": 55, "duration": 4, "velocity": 90}, {"time": 2145, "pitch": 59, "duration": 4, "velocity": 92}, {"time": 2145, "pitch": 62, "duration": 4, "velocity": 70}, {"time": 2151, "pitch": 55, "duration": 4, "velocity": 85}, {"time": 2151, "pitch": 59, "duration": 2, "velocity": 79}, {"time": 2151, "pitch": 62, "duration": 1, "velocity": 73}, {"time": 2157, "pitch": 40, "duration": 22, "velocity": 77}, {"time": 2157, "pitch": 55, "duration": 4, "velocity": 89}, {"time": 2157, "pitch": 59, "duration": 4, "velocity": 85}, {"time": 2157, "pitch": 64, "duration": 4, "velocity": 88}, {"time": 2163, "pitch": 47, "duration": 18, "velocity": 39}, {"time": 2163, "pitch": 55, "duration": 3, "velocity": 78}, {"time": 2163, "pitch": 59, "duration": 3, "velocity": 78}, {"time": 2163, "pitch": 64, "duration": 3, "velocity": 74}, {"time": 2169, "pitch": 52, "duration": 12, "velocity": 78}, {"time": 2169, "pitch": 55, "duration": 3, "velocity": 95}, {"time": 2169, "pitch": 59, "duration": 4, "velocity": 97}, {"time": 2169, "pitch": 64, "duration": 3, "velocity": 95}, {"time": 2175, "pitch": 55, "duration": 4, "velocity": 85}, {"time": 2175, "pitch": 59, "duration": 4, "velocity": 73}, {"time": 2175, "pitch": 64, "duration": 4, "velocity": 75}, {"time": 2181, "pitch": 40, "duration": 22, "velocity": 64}, {"time": 2181, "pitch": 55, "duration": 4, "velocity": 73}, {"time": 2181, "pitch": 59, "duration": 4, "velocity": 77}, {"time": 2181, "pitch": 64, "duration": 4, "velocity": 78}, {"time": 2187, "pitch": 47, "duration": 18, "velocity": 45}, {"time": 2187, "pitch": 55, "duration": 4, "velocity": 78}, {"time": 2187, "pitch": 59, "duration": 4, "velocity": 78}, {"time": 2187, "pitch": 64, "duration": 4, "velocity": 75}, {"time": 2193, "pitch": 52, "duration": 6, "velocity": 75}, {"time": 2193, "pitch": 55, "duration": 4, "velocity": 86}, {"time": 2193, "pitch": 59, "duration": 4, "velocity": 93}, {"time": 2193, "pitch": 64, "duration": 4, "velocity": 89}, {"time": 2199, "pitch": 55, "duration": 4, "velocity": 82}, {"time": 2199, "pitch": 59, "duration": 4, "velocity": 78}, {"time": 2199, "pitch": 64, "duration": 4, "velocity": 79}, {"time": 2205, "pitch": 40, "duration": 22, "velocity": 82}, {"time": 2205, "pitch": 55, "duration": 4, "velocity": 92}, {"time": 2205, "pitch": 59, "duration": 4, "velocity": 85}, {"time": 2205, "pitch": 64, "duration": 4, "velocity": 89}, {"time": 2211, "pitch": 47, "duration": 10, "velocity": 42}, {"time": 2211, "pitch": 55, "duration": 4, "velocity": 71}, {"time": 2211, "pitch": 59, "duration": 4, "velocity": 79}, {"time": 2211, "pitch": 64, "duration": 4, "velocity": 72}, {"time": 2217, "pitch": 52, "duration": 7, "velocity": 75}, {"time": 2217, "pitch": 55, "duration": 4, "velocity": 92}, {"time": 2217, "pitch": 59, "duration": 4, "velocity": 92}, {"time": 2217, "pitch": 64, "duration": 4, "velocity": 89}, {"time": 2223, "pitch": 47, "duration": 7, "velocity": 63}, {"time": 2223, "pitch": 55, "duration": 5, "velocity": 72}, {"time": 2223, "pitch": 59, "duration": 5, "velocity": 77}, {"time": 2223, "pitch": 64, "duration": 5, "velocity": 74}, {"time": 2229, "pitch": 40, "duration": 14, "velocity": 85}, {"time": 2229, "pitch": 55, "duration": 4, "velocity": 86}, {"time": 2229, "pitch": 59, "duration": 4, "velocity": 86}, {"time": 2229, "pitch": 64, "duration": 4, "velocity": 85}, {"time": 2235, "pitch": 47, "duration": 8, "velocity": 63}, {"time": 2235, "pitch": 55, "duration": 4, "velocity": 75}, {"time": 2235, "pitch": 59, "duration": 4, "velocity": 79}, {"time": 2235, "pitch": 64, "duration": 4, "velocity": 75}, {"time": 2241, "pitch": 52, "duration": 2, "velocity": 77}, {"time": 2241, "pitch": 59, "duration": 6, "velocity": 97}, {"time": 2241, "pitch": 64, "duration": 6, "velocity": 96}, {"time": 2247, "pitch": 55, "duration": 5, "velocity": 100}, {"time": 2253, "pitch": 36, "duration": 22, "velocity": 71}, {"time": 2253, "pitch": 52, "duration": 2, "velocity": 95}, {"time": 2253, "pitch": 55, "duration": 5, "velocity": 82}, {"time": 2253, "pitch": 59, "duration": 5, "velocity": 88}, {"time": 2259, "pitch": 43, "duration": 10, "velocity": 55}, {"time": 2259, "pitch": 52, "duration": 4, "velocity": 89}, {"time": 2259, "pitch": 55, "duration": 4, "velocity": 68}, {"time": 2259, "pitch": 59, "duration": 4, "velocity": 67}, {"time": 2265, "pitch": 48, "duration": 7, "velocity": 85}, {"time": 2265, "pitch": 52, "duration": 5, "velocity": 95}, {"time": 2265, "pitch": 55, "duration": 5, "velocity": 86}, {"time": 2271, "pitch": 43, "duration": 7, "velocity": 53}, {"time": 2271, "pitch": 52, "duration": 4, "velocity": 77}, {"time": 2271, "pitch": 55, "duration": 5, "velocity": 77}, {"time": 2277, "pitch": 36, "duration": 21, "velocity": 83}, {"time": 2277, "pitch": 52, "duration": 5, "velocity": 89}, {"time": 2277, "pitch": 55, "duration": 5, "velocity": 73}, {"time": 2277, "pitch": 60, "duration": 5, "velocity": 76}, {"time": 2283, "pitch": 43, "duration": 10, "velocity": 66}, {"time": 2283, "pitch": 52, "duration": 4, "velocity": 69}, {"time": 2283, "pitch": 55, "duration": 4, "velocity": 73}, {"time": 2283, "pitch": 60, "duration": 4, "velocity": 72}, {"time": 2289, "pitch": 48, "duration": 7, "velocity": 70}, {"time": 2289, "pitch": 52, "duration": 5, "velocity": 88}, {"time": 2289, "pitch": 55, "duration": 5, "velocity": 88}, {"time": 2289, "pitch": 60, "duration": 4, "velocity": 83}, {"time": 2295, "pitch": 43, "duration": 7, "velocity": 64}, {"time": 2295, "pitch": 52, "duration": 4, "velocity": 63}, {"time": 2295, "pitch": 55, "duration": 4, "velocity": 69}, {"time": 2295, "pitch": 60, "duration": 4, "velocity": 75}, {"time": 2301, "pitch": 36, "duration": 20, "velocity": 76}, {"time": 2301, "pitch": 52, "duration": 4, "velocity": 90}, {"time": 2301, "pitch": 55, "duration": 5, "velocity": 78}, {"time": 2301, "pitch": 60, "duration": 5, "velocity": 77}, {"time": 2307, "pitch": 43, "duration": 19, "velocity": 47}, {"time": 2307, "pitch": 52, "duration": 4, "velocity": 70}, {"time": 2307, "pitch": 55, "duration": 4, "velocity": 65}, {"time": 2307, "pitch": 60, "duration": 4, "velocity": 66}, {"time": 2313, "pitch": 48, "duration": 6, "velocity": 85}, {"time": 2313, "pitch": 52, "duration": 4, "velocity": 90}, {"time": 2313, "pitch": 55, "duration": 4, "velocity": 88}, {"time": 2313, "pitch": 60, "duration": 4, "velocity": 90}, {"time": 2319, "pitch": 52, "duration": 4, "velocity": 69}, {"time": 2319, "pitch": 55, "duration": 5, "velocity": 78}, {"time": 2319, "pitch": 60, "duration": 4, "velocity": 77}, {"time": 2325, "pitch": 36, "duration": 19, "velocity": 66}, {"time": 2325, "pitch": 52, "duration": 5, "velocity": 85}, {"time": 2325, "pitch": 55, "duration": 5, "velocity": 89}, {"time": 2325, "pitch": 60, "duration": 5, "velocity": 88}, {"time": 2331, "pitch": 43, "duration": 8, "velocity": 56}, {"time": 2331, "pitch": 52, "duration": 4, "velocity": 66}, {"time": 2331, "pitch": 55, "duration": 4, "velocity": 69}, {"time": 2331, "pitch": 60, "duration": 4, "velocity": 69}, {"time": 2337, "pitch": 48, "duration": 6, "velocity": 75}, {"time": 2337, "pitch": 52, "duration": 5, "velocity": 88}, {"time": 2337, "pitch": 55, "duration": 6, "velocity": 93}, {"time": 2337, "pitch": 60, "duration": 6, "velocity": 93}, {"time": 2343, "pitch": 43, "duration": 7, "velocity": 85}, {"time": 2349, "pitch": 38, "duration": 21, "velocity": 81}, {"time": 2349, "pitch": 57, "duration": 5, "velocity": 93}, {"time": 2349, "pitch": 62, "duration": 5, "velocity": 89}, {"time": 2349, "pitch": 66, "duration": 5, "velocity": 89}, {"time": 2355, "pitch": 45, "duration": 10, "velocity": 66}, {"time": 2355, "pitch": 57, "duration": 4, "velocity": 66}, {"time": 2355, "pitch": 62, "duration": 5, "velocity": 85}, {"time": 2355, "pitch": 66, "duration": 4, "velocity": 77}, {"time": 2361, "pitch": 50, "duration": 8, "velocity": 92}, {"time": 2361, "pitch": 57, "duration": 5, "velocity": 95}, {"time": 2361, "pitch": 62, "duration": 5, "velocity": 97}, {"time": 2361, "pitch": 66, "duration": 5, "velocity": 99}, {"time": 2367, "pitch": 45, "duration": 8, "velocity": 66}, {"time": 2367, "pitch": 57, "duration": 4, "velocity": 78}, {"time": 2367, "pitch": 62, "duration": 5, "velocity": 81}, {"time": 2367, "pitch": 66, "duration": 4, "velocity": 77}, {"time": 2373, "pitch": 38, "duration": 21, "velocity": 81}, {"time": 2373, "pitch": 57, "duration": 4, "velocity": 86}, {"time": 2373, "pitch": 62, "duration": 4, "velocity": 100}, {"time": 2373, "pitch": 66, "duration": 4, "velocity": 100}, {"time": 2379, "pitch": 45, "duration": 9, "velocity": 76}, {"time": 2379, "pitch": 57, "duration": 4, "velocity": 76}, {"time": 2379, "pitch": 62, "duration": 4, "velocity": 82}, {"time": 2379, "pitch": 66, "duration": 4, "velocity": 79}, {"time": 2385, "pitch": 50, "duration": 7, "velocity": 85}, {"time": 2385, "pitch": 57, "duration": 4, "velocity": 83}, {"time": 2385, "pitch": 62, "duration": 4, "velocity": 90}, {"time": 2385, "pitch": 66, "duration": 4, "velocity": 93}, {"time": 2391, "pitch": 45, "duration": 7, "velocity": 58}, {"time": 2391, "pitch": 57, "duration": 4, "velocity": 82}, {"time": 2391, "pitch": 62, "duration": 4, "velocity": 95}, {"time": 2391, "pitch": 66, "duration": 4, "velocity": 92}, {"time": 2397, "pitch": 38, "duration": 21, "velocity": 74}, {"time": 2397, "pitch": 57, "duration": 5, "velocity": 96}, {"time": 2397, "pitch": 62, "duration": 5, "velocity": 99}, {"time": 2397, "pitch": 66, "duration": 5, "velocity": 100}, {"time": 2403, "pitch": 45, "duration": 9, "velocity": 55}, {"time": 2403, "pitch": 57, "duration": 4, "velocity": 69}, {"time": 2403, "pitch": 62, "duration": 4, "velocity": 69}, {"time": 2403, "pitch": 66, "duration": 4, "velocity": 73}, {"time": 2409, "pitch": 50, "duration": 36, "velocity": 79}, {"time": 2409, "pitch": 57, "duration": 4, "velocity": 92}, {"time": 2409, "pitch": 62, "duration": 4, "velocity": 90}, {"time": 2409, "pitch": 66, "duration": 4, "velocity": 97}, {"time": 2415, "pitch": 45, "duration": 7, "velocity": 62}, {"time": 2415, "pitch": 57, "duration": 4, "velocity": 83}, {"time": 2415, "pitch": 62, "duration": 4, "velocity": 90}, {"time": 2415, "pitch": 66, "duration": 5, "velocity": 90}, {"time": 2421, "pitch": 38, "duration": 25, "velocity": 79}, {"time": 2421, "pitch": 57, "duration": 4, "velocity": 99}, {"time": 2421, "pitch": 62, "duration": 11, "velocity": 100}, {"time": 2421, "pitch": 66, "duration": 4, "velocity": 107}, {"time": 2427, "pitch": 57, "duration": 6, "velocity": 38}, {"time": 2427, "pitch": 66, "duration": 6, "velocity": 42}, {"time": 2433, "pitch": 45, "duration": 12, "velocity": 50}, {"time": 2433, "pitch": 57, "duration": 1, "velocity": 90}, {"time": 2433, "pitch": 62, "duration": 12, "velocity": 90}, {"time": 2433, "pitch": 66, "duration": 12, "velocity": 96}, {"time": 2445, "pitch": 43, "duration": 22, "velocity": 74}, {"time": 2445, "pitch": 50, "duration": 1, "velocity": 71}, {"time": 2469, "pitch": 43, "duration": 22, "velocity": 60}, {"time": 2469, "pitch": 50, "duration": 22, "velocity": 59}, {"time": 2493, "pitch": 43, "duration": 22, "velocity": 66}, {"time": 2493, "pitch": 50, "duration": 22, "velocity": 72}, {"time": 2517, "pitch": 43, "duration": 24, "velocity": 65}, {"time": 2517, "pitch": 50, "duration": 23, "velocity": 67}, {"time": 2541, "pitch": 40, "duration": 22, "velocity": 66}, {"time": 2541, "pitch": 47, "duration": 23, "velocity": 71}, {"time": 2541, "pitch": 52, "duration": 23, "velocity": 65}, {"time": 2565, "pitch": 40, "duration": 22, "velocity": 59}, {"time": 2565, "pitch": 47, "duration": 22, "velocity": 59}, {"time": 2565, "pitch": 52, "duration": 22, "velocity": 62}, {"time": 2589, "pitch": 40, "duration": 22, "velocity": 66}, {"time": 2589, "pitch": 47, "duration": 23, "velocity": 71}, {"time": 2589, "pitch": 52, "duration": 23, "velocity": 65}, {"time": 2613, "pitch": 40, "duration": 22, "velocity": 59}, {"time": 2613, "pitch": 47, "duration": 22, "velocity": 59}, {"time": 2613, "pitch": 52, "duration": 22, "velocity": 62}, {"time": 2637, "pitch": 36, "duration": 22, "velocity": 57}, {"time": 2637, "pitch": 43, "duration": 22, "velocity": 66}, {"time": 2637, "pitch": 48, "duration": 22, "velocity": 76}, {"time": 2637, "pitch": 55, "duration": 23, "velocity": 58}, {"time": 2637, "pitch": 60, "duration": 23, "velocity": 71}, {"time": 2661, "pitch": 36, "duration": 21, "velocity": 53}, {"time": 2661, "pitch": 43, "duration": 21, "velocity": 53}, {"time": 2661, "pitch": 48, "duration": 22, "velocity": 58}, {"time": 2661, "pitch": 55, "duration": 22, "velocity": 50}, {"time": 2661, "pitch": 60, "duration": 22, "velocity": 58}, {"time": 2685, "pitch": 36, "duration": 23, "velocity": 48}, {"time": 2685, "pitch": 43, "duration": 23, "velocity": 58}, {"time": 2685, "pitch": 48, "duration": 23, "velocity": 63}, {"time": 2685, "pitch": 55, "duration": 23, "velocity": 57}, {"time": 2685, "pitch": 60, "duration": 23, "velocity": 63}, {"time": 2709, "pitch": 36, "duration": 15, "velocity": 45}, {"time": 2709, "pitch": 43, "duration": 15, "velocity": 52}, {"time": 2709, "pitch": 48, "duration": 15, "velocity": 53}, {"time": 2709, "pitch": 55, "duration": 14, "velocity": 58}, {"time": 2709, "pitch": 60, "duration": 13, "velocity": 66}, {"time": 2733, "pitch": 38, "duration": 19, "velocity": 50}, {"time": 2733, "pitch": 45, "duration": 20, "velocity": 61}, {"time": 2733, "pitch": 50, "duration": 21, "velocity": 59}, {"time": 2733, "pitch": 54, "duration": 21, "velocity": 56}, {"time": 2733, "pitch": 57, "duration": 21, "velocity": 57}, {"time": 2757, "pitch": 38, "duration": 18, "velocity": 42}, {"time": 2757, "pitch": 45, "duration": 19, "velocity": 47}, {"time": 2757, "pitch": 50, "duration": 21, "velocity": 51}, {"time": 2757, "pitch": 54, "duration": 21, "velocity": 53}, {"time": 2757, "pitch": 57, "duration": 21, "velocity": 52}, {"time": 2781, "pitch": 38, "duration": 14, "velocity": 39}, {"time": 2781, "pitch": 45, "duration": 13, "velocity": 46}, {"time": 2781, "pitch": 50, "duration": 21, "velocity": 51}, {"time": 2781, "pitch": 54, "duration": 21, "velocity": 59}, {"time": 2781, "pitch": 57, "duration": 21, "velocity": 53}, {"time": 2805, "pitch": 38, "duration": 8, "velocity": 40}, {"time": 2805, "pitch": 45, "duration": 7, "velocity": 47}, {"time": 2805, "pitch": 50, "duration": 13, "velocity": 61}, {"time": 2805, "pitch": 54, "duration": 10, "velocity": 55}, {"time": 2805, "pitch": 57, "duration": 10, "velocity": 60}, {"time": 2829, "pitch": 43, "duration": 23, "velocity": 62}, {"time": 2829, "pitch": 50, "duration": 22, "velocity": 66}, {"time": 2829, "pitch": 55, "duration": 20, "velocity": 66}, {"time": 2829, "pitch": 59, "duration": 18, "velocity": 63}, {"time": 2853, "pitch": 43, "duration": 22, "velocity": 55}, {"time": 2853, "pitch": 50, "duration": 22, "velocity": 72}, {"time": 2853, "pitch": 55, "duration": 23, "velocity": 66}, {"time": 2877, "pitch": 43, "duration": 22, "velocity": 60}, {"time": 2877, "pitch": 50, "duration": 22, "velocity": 67}, {"time": 2877, "pitch": 55, "duration": 22, "velocity": 69}, {"time": 2901, "pitch": 43, "duration": 22, "velocity": 63}, {"time": 2901, "pitch": 50, "duration": 22, "velocity": 69}, {"time": 2901, "pitch": 55, "duration": 19, "velocity": 67}, {"time": 2925, "pitch": 40, "duration": 21, "velocity": 63}, {"time": 2925, "pitch": 52, "duration": 20, "velocity": 72}, {"time": 2925, "pitch": 55, "duration": 21, "velocity": 56}, {"time": 2925, "pitch": 59, "duration": 21, "velocity": 69}, {"time": 2949, "pitch": 40, "duration": 22, "velocity": 45}, {"time": 2949, "pitch": 47, "duration": 23, "velocity": 54}, {"time": 2949, "pitch": 52, "duration": 22, "velocity": 51}, {"time": 2949, "pitch": 55, "duration": 22, "velocity": 52}, {"time": 2949, "pitch": 59, "duration": 22, "velocity": 55}, {"time": 2973, "pitch": 40, "duration": 20, "velocity": 55}, {"time": 2973, "pitch": 47, "duration": 21, "velocity": 53}, {"time": 2973, "pitch": 52, "duration": 21, "velocity": 45}, {"time": 2973, "pitch": 55, "duration": 21, "velocity": 50}, {"time": 2973, "pitch": 59, "duration": 21, "velocity": 52}, {"time": 2997, "pitch": 40, "duration": 13, "velocity": 57}, {"time": 2997, "pitch": 47, "duration": 12, "velocity": 60}, {"time": 2997, "pitch": 52, "duration": 14, "velocity": 47}, {"time": 2997, "pitch": 55, "duration": 13, "velocity": 51}, {"time": 2997, "pitch": 59, "duration": 13, "velocity": 55}, {"time": 3021, "pitch": 36, "duration": 22, "velocity": 56}, {"time": 3021, "pitch": 43, "duration": 23, "velocity": 58}, {"time": 3021, "pitch": 48, "duration": 22, "velocity": 60}, {"time": 3021, "pitch": 52, "duration": 23, "velocity": 63}, {"time": 3021, "pitch": 55, "duration": 23, "velocity": 64}, {"time": 3045, "pitch": 36, "duration": 21, "velocity": 56}, {"time": 3045, "pitch": 43, "duration": 22, "velocity": 53}, {"time": 3045, "pitch": 48, "duration": 21, "velocity": 72}, {"time": 3045, "pitch": 52, "duration": 22, "velocity": 66}, {"time": 3045, "pitch": 55, "duration": 22, "velocity": 66}, {"time": 3069, "pitch": 36, "duration": 21, "velocity": 61}, {"time": 3069, "pitch": 43, "duration": 21, "velocity": 52}, {"time": 3069, "pitch": 48, "duration": 22, "velocity": 55}, {"time": 3069, "pitch": 52, "duration": 22, "velocity": 53}, {"time": 3069, "pitch": 55, "duration": 22, "velocity": 59}, {"time": 3093, "pitch": 36, "duration": 23, "velocity": 53}, {"time": 3093, "pitch": 43, "duration": 23, "velocity": 56}, {"time": 3093, "pitch": 48, "duration": 21, "velocity": 65}, {"time": 3093, "pitch": 52, "duration": 22, "velocity": 57}, {"time": 3093, "pitch": 55, "duration": 20, "velocity": 61}, {"time": 3117, "pitch": 38, "duration": 21, "velocity": 66}, {"time": 3117, "pitch": 50, "duration": 21, "velocity": 70}, {"time": 3117, "pitch": 54, "duration": 21, "velocity": 58}, {"time": 3117, "pitch": 57, "duration": 21, "velocity": 64}, {"time": 3141, "pitch": 38, "duration": 22, "velocity": 50}, {"time": 3141, "pitch": 45, "duration": 23, "velocity": 56}, {"time": 3141, "pitch": 50, "duration": 22, "velocity": 61}, {"time": 3141, "pitch": 54, "duration": 23, "velocity": 69}, {"time": 3141, "pitch": 57, "duration": 22, "velocity": 63}, {"time": 3165, "pitch": 38, "duration": 22, "velocity": 62}, {"time": 3165, "pitch": 45, "duration": 22, "velocity": 67}, {"time": 3165, "pitch": 50, "duration": 21, "velocity": 69}, {"time": 3165, "pitch": 54, "duration": 21, "velocity": 89}, {"time": 3165, "pitch": 57, "duration": 21, "velocity": 74}, {"time": 3189, "pitch": 38, "duration": 20, "velocity": 63}, {"time": 3189, "pitch": 50, "duration": 21, "velocity": 73}, {"time": 3189, "pitch": 54, "duration": 20, "velocity": 67}, {"time": 3189, "pitch": 57, "duration": 20, "velocity": 68}, {"time": 3213, "pitch": 43, "duration": 21, "velocity": 78}, {"time": 3213, "pitch": 55, "duration": 5, "velocity": 81}, {"time": 3213, "pitch": 59, "duration": 5, "velocity": 74}, {"time": 3213, "pitch": 62, "duration": 5, "velocity": 70}, {"time": 3219, "pitch": 55, "duration": 4, "velocity": 61}, {"time": 3219, "pitch": 59, "duration": 5, "velocity": 65}, {"time": 3219, "pitch": 62, "duration": 4, "velocity": 59}, {"time": 3225, "pitch": 50, "duration": 10, "velocity": 53}, {"time": 3225, "pitch": 55, "duration": 4, "velocity": 92}, {"time": 3225, "pitch": 59, "duration": 5, "velocity": 92}, {"time": 3225, "pitch": 62, "duration": 4, "velocity": 90}, {"time": 3231, "pitch": 55, "duration": 4, "velocity": 67}, {"time": 3231, "pitch": 59, "duration": 5, "velocity": 71}, {"time": 3231, "pitch": 62, "duration": 4, "velocity": 63}, {"time": 3237, "pitch": 43, "duration": 22, "velocity": 66}, {"time": 3237, "pitch": 55, "duration": 5, "velocity": 89}, {"time": 3237, "pitch": 59, "duration": 5, "velocity": 86}, {"time": 3237, "pitch": 62, "duration": 5, "velocity": 90}, {"time": 3243, "pitch": 55, "duration": 5, "velocity": 69}, {"time": 3243, "pitch": 59, "duration": 5, "velocity": 71}, {"time": 3243, "pitch": 62, "duration": 5, "velocity": 68}, {"time": 3249, "pitch": 55, "duration": 4, "velocity": 93}, {"time": 3249, "pitch": 59, "duration": 4, "velocity": 99}, {"time": 3249, "pitch": 62, "duration": 4, "velocity": 96}, {"time": 3255, "pitch": 55, "duration": 4, "velocity": 83}, {"time": 3255, "pitch": 59, "duration": 4, "velocity": 85}, {"time": 3255, "pitch": 62, "duration": 4, "velocity": 79}, {"time": 3261, "pitch": 43, "duration": 22, "velocity": 72}, {"time": 3261, "pitch": 55, "duration": 5, "velocity": 89}, {"time": 3261, "pitch": 59, "duration": 5, "velocity": 88}, {"time": 3261, "pitch": 62, "duration": 5, "velocity": 90}, {"time": 3267, "pitch": 55, "duration": 4, "velocity": 64}, {"time": 3267, "pitch": 59, "duration": 4, "velocity": 69}, {"time": 3267, "pitch": 62, "duration": 4, "velocity": 66}, {"time": 3273, "pitch": 50, "duration": 11, "velocity": 44}, {"time": 3273, "pitch": 55, "duration": 4, "velocity": 97}, {"time": 3273, "pitch": 59, "duration": 5, "velocity": 96}, {"time": 3273, "pitch": 62, "duration": 5, "velocity": 95}, {"time": 3279, "pitch": 55, "duration": 4, "velocity": 77}, {"time": 3279, "pitch": 59, "duration": 4, "velocity": 85}, {"time": 3279, "pitch": 62, "duration": 4, "velocity": 72}, {"time": 3285, "pitch": 43, "duration": 14, "velocity": 67}, {"time": 3285, "pitch": 55, "duration": 5, "velocity": 93}, {"time": 3285, "pitch": 59, "duration": 5, "velocity": 100}, {"time": 3285, "pitch": 62, "duration": 5, "velocity": 90}, {"time": 3291, "pitch": 55, "duration": 4, "velocity": 71}, {"time": 3291, "pitch": 59, "duration": 5, "velocity": 74}, {"time": 3291, "pitch": 62, "duration": 5, "velocity": 72}, {"time": 3297, "pitch": 50, "duration": 1, "velocity": 67}, {"time": 3297, "pitch": 59, "duration": 7, "velocity": 107}, {"time": 3297, "pitch": 62, "duration": 7, "velocity": 100}, {"time": 3303, "pitch": 55, "duration": 5, "velocity": 107}, {"time": 3309, "pitch": 40, "duration": 46, "velocity": 75}, {"time": 3309, "pitch": 52, "duration": 5, "velocity": 99}, {"time": 3309, "pitch": 55, "duration": 5, "velocity": 90}, {"time": 3309, "pitch": 59, "duration": 1, "velocity": 36}, {"time": 3309, "pitch": 59, "duration": 1, "velocity": 92}, {"time": 3315, "pitch": 52, "duration": 2, "velocity": 59}, {"time": 3315, "pitch": 55, "duration": 5, "velocity": 63}, {"time": 3315, "pitch": 59, "duration": 4, "velocity": 63}, {"time": 3321, "pitch": 47, "duration": 37, "velocity": 63}, {"time": 3321, "pitch": 52, "duration": 1, "velocity": 112}, {"time": 3321, "pitch": 55, "duration": 1, "velocity": 97}, {"time": 3321, "pitch": 59, "duration": 1, "velocity": 102}, {"time": 3327, "pitch": 55, "duration": 2, "velocity": 74}, {"time": 3327, "pitch": 59, "duration": 2, "velocity": 76}, {"time": 3333, "pitch": 52, "duration": 8, "velocity": 67}, {"time": 3333, "pitch": 55, "duration": 5, "velocity": 90}, {"time": 3333, "pitch": 59, "duration": 5, "velocity": 89}, {"time": 3333, "pitch": 64, "duration": 5, "velocity": 86}, {"time": 3339, "pitch": 55, "duration": 4, "velocity": 64}, {"time": 3339, "pitch": 59, "duration": 5, "velocity": 59}, {"time": 3339, "pitch": 64, "duration": 5, "velocity": 62}, {"time": 3345, "pitch": 52, "duration": 7, "velocity": 65}, {"time": 3345, "pitch": 59, "duration": 5, "velocity": 100}, {"time": 3345, "pitch": 64, "duration": 5, "velocity": 100}, {"time": 3351, "pitch": 55, "duration": 5, "velocity": 76}, {"time": 3351, "pitch": 59, "duration": 5, "velocity": 72}, {"time": 3351, "pitch": 64, "duration": 4, "velocity": 66}, {"time": 3357, "pitch": 40, "duration": 33, "velocity": 83}, {"time": 3357, "pitch": 55, "duration": 5, "velocity": 88}, {"time": 3357, "pitch": 59, "duration": 5, "velocity": 88}, {"time": 3357, "pitch": 64, "duration": 5, "velocity": 79}, {"time": 3363, "pitch": 47, "duration": 26, "velocity": 63}, {"time": 3363, "pitch": 55, "duration": 4, "velocity": 59}, {"time": 3363, "pitch": 59, "duration": 4, "velocity": 66}, {"time": 3363, "pitch": 64, "duration": 4, "velocity": 66}, {"time": 3369, "pitch": 52, "duration": 8, "velocity": 90}, {"time": 3369, "pitch": 55, "duration": 3, "velocity": 97}, {"time": 3369, "pitch": 59, "duration": 4, "velocity": 96}, {"time": 3369, "pitch": 64, "duration": 4, "velocity": 90}, {"time": 3375, "pitch": 55, "duration": 4, "velocity": 85}, {"time": 3375, "pitch": 59, "duration": 1, "velocity": 49}, {"time": 3375, "pitch": 64, "duration": 1, "velocity": 34}, {"time": 3381, "pitch": 52, "duration": 5, "velocity": 76}, {"time": 3381, "pitch": 59, "duration": 8, "velocity": 95}, {"time": 3381, "pitch": 62, "duration": 2, "velocity": 72}, {"time": 3381, "pitch": 64, "duration": 10, "velocity": 69}, {"time": 3387, "pitch": 55, "duration": 6, "velocity": 72}, {"time": 3393, "pitch": 59, "duration": 10, "velocity": 97}, {"time": 3393, "pitch": 64, "duration": 6, "velocity": 95}, {"time": 3399, "pitch": 55, "duration": 4, "velocity": 70}, {"time": 3405, "pitch": 36, "duration": 22, "velocity": 65}, {"time": 3405, "pitch": 43, "duration": 2, "velocity": 65}, {"time": 3405, "pitch": 48, "duration": 38, "velocity": 92}, {"time": 3405, "pitch": 55, "duration": 10, "velocity": 95}, {"time": 3405, "pitch": 60, "duration": 4, "velocity": 96}, {"time": 3405, "pitch": 64, "duration": 4, "velocity": 93}, {"time": 3411, "pitch": 60, "duration": 4, "velocity": 71}, {"time": 3411, "pitch": 64, "duration": 4, "velocity": 66}, {"time": 3417, "pitch": 43, "duration": 13, "velocity": 53}, {"time": 3417, "pitch": 55, "duration": 5, "velocity": 97}, {"time": 3417, "pitch": 60, "duration": 5, "velocity": 96}, {"time": 3417, "pitch": 64, "duration": 5, "velocity": 90}, {"time": 3423, "pitch": 55, "duration": 4, "velocity": 61}, {"time": 3423, "pitch": 60, "duration": 5, "velocity": 77}, {"time": 3423, "pitch": 64, "duration": 4, "velocity": 71}, {"time": 3429, "pitch": 36, "duration": 16, "velocity": 59}, {"time": 3429, "pitch": 55, "duration": 4, "velocity": 97}, {"time": 3429, "pitch": 60, "duration": 5, "velocity": 100}, {"time": 3429, "pitch": 64, "duration": 5, "velocity": 93}, {"time": 3435, "pitch": 55, "duration": 5, "velocity": 73}, {"time": 3435, "pitch": 60, "duration": 5, "velocity": 63}, {"time": 3435, "pitch": 64, "duration": 5, "velocity": 58}, {"time": 3441, "pitch": 43, "duration": 5, "velocity": 51}, {"time": 3441, "pitch": 55, "duration": 5, "velocity": 89}, {"time": 3441, "pitch": 60, "duration": 4, "velocity": 112}, {"time": 3441, "pitch": 64, "duration": 4, "velocity": 97}, {"time": 3447, "pitch": 55, "duration": 2, "velocity": 79}, {"time": 3447, "pitch": 60, "duration": 1, "velocity": 88}, {"time": 3447, "pitch": 64, "duration": 1, "velocity": 69}, {"time": 3453, "pitch": 35, "duration": 17, "velocity": 74}, {"time": 3453, "pitch": 59, "duration": 4, "velocity": 96}, {"time": 3453, "pitch": 62, "duration": 4, "velocity": 102}, {"time": 3453, "pitch": 66, "duration": 5, "velocity": 100}, {"time": 3459, "pitch": 42, "duration": 6, "velocity": 29}, {"time": 3459, "pitch": 59, "duration": 4, "velocity": 72}, {"time": 3459, "pitch": 62, "duration": 4, "velocity": 81}, {"time": 3459, "pitch": 66, "duration": 4, "velocity": 66}, {"time": 3465, "pitch": 47, "duration": 11, "velocity": 66}, {"time": 3465, "pitch": 59, "duration": 2, "velocity": 82}, {"time": 3465, "pitch": 62, "duration": 5, "velocity": 112}, {"time": 3465, "pitch": 66, "duration": 5, "velocity": 100}, {"time": 3471, "pitch": 59, "duration": 1, "velocity": 96}, {"time": 3477, "pitch": 40, "duration": 13, "velocity": 76}, {"time": 3477, "pitch": 52, "duration": 5, "velocity": 89}, {"time": 3477, "pitch": 56, "duration": 6, "velocity": 88}, {"time": 3477, "pitch": 59, "duration": 5, "velocity": 83}, {"time": 3483, "pitch": 52, "duration": 4, "velocity": 83}, {"time": 3483, "pitch": 56, "duration": 5, "velocity": 85}, {"time": 3483, "pitch": 59, "duration": 5, "velocity": 74}, {"time": 3489, "pitch": 52, "duration": 1, "velocity": 62}, {"time": 3489, "pitch": 56, "duration": 4, "velocity": 117}, {"time": 3489, "pitch": 59, "duration": 4, "velocity": 92}, {"time": 3495, "pitch": 56, "duration": 4, "velocity": 92}, {"time": 3495, "pitch": 59, "duration": 2, "velocity": 78}, {"time": 3501, "pitch": 33, "duration": 41, "velocity": 81}, {"time": 3501, "pitch": 52, "duration": 4, "velocity": 100}, {"time": 3501, "pitch": 57, "duration": 5, "velocity": 96}, {"time": 3501, "pitch": 60, "duration": 5, "velocity": 97}, {"time": 3507, "pitch": 52, "duration": 4, "velocity": 81}, {"time": 3507, "pitch": 57, "duration": 4, "velocity": 72}, {"time": 3507, "pitch": 60, "duration": 4, "velocity": 66}, {"time": 3513, "pitch": 45, "duration": 34, "velocity": 65}, {"time": 3513, "pitch": 52, "duration": 4, "velocity": 96}, {"time": 3513, "pitch": 57, "duration": 7, "velocity": 100}, {"time": 3513, "pitch": 60, "duration": 7, "velocity": 99}, {"time": 3519, "pitch": 52, "duration": 4, "velocity": 78}, {"time": 3525, "pitch": 40, "duration": 17, "velocity": 25}, {"time": 3525, "pitch": 52, "duration": 5, "velocity": 100}, {"time": 3525, "pitch": 57, "duration": 10, "velocity": 97}, {"time": 3525, "pitch": 60, "duration": 10, "velocity": 92}, {"time": 3525, "pitch": 61, "duration": 1, "velocity": 76}, {"time": 3531, "pitch": 52, "duration": 4, "velocity": 73}, {"time": 3537, "pitch": 52, "duration": 2, "velocity": 67}, {"time": 3537, "pitch": 57, "duration": 6, "velocity": 100}, {"time": 3537, "pitch": 60, "duration": 6, "velocity": 97}, {"time": 3543, "pitch": 52, "duration": 2, "velocity": 92}, {"time": 3549, "pitch": 38, "duration": 21, "velocity": 97}, {"time": 3549, "pitch": 50, "duration": 4, "velocity": 100}, {"time": 3549, "pitch": 54, "duration": 5, "velocity": 100}, {"time": 3549, "pitch": 57, "duration": 5, "velocity": 90}, {"time": 3555, "pitch": 50, "duration": 4, "velocity": 83}, {"time": 3555, "pitch": 54, "duration": 4, "velocity": 89}, {"time": 3555, "pitch": 57, "duration": 4, "velocity": 72}, {"time": 3561, "pitch": 45, "duration": 11, "velocity": 65}, {"time": 3561, "pitch": 50, "duration": 4, "velocity": 96}, {"time": 3561, "pitch": 54, "duration": 5, "velocity": 122}, {"time": 3561, "pitch": 57, "duration": 5, "velocity": 96}, {"time": 3567, "pitch": 50, "duration": 3, "velocity": 86}, {"time": 3567, "pitch": 54, "duration": 4, "velocity": 99}, {"time": 3567, "pitch": 57, "duration": 4, "velocity": 82}, {"time": 3573, "pitch": 38, "duration": 17, "velocity": 88}, {"time": 3573, "pitch": 50, "duration": 2, "velocity": 93}, {"time": 3573, "pitch": 54, "duration": 2, "velocity": 100}, {"time": 3573, "pitch": 57, "duration": 2, "velocity": 93}, {"time": 3579, "pitch": 45, "duration": 5, "velocity": 68}, {"time": 3579, "pitch": 54, "duration": 1, "velocity": 96}, {"time": 3579, "pitch": 57, "duration": 1, "velocity": 73}, {"time": 3585, "pitch": 45, "duration": 5, "velocity": 89}, {"time": 3585, "pitch": 57, "duration": 4, "velocity": 92}, {"time": 3585, "pitch": 62, "duration": 4, "velocity": 99}, {"time": 3585, "pitch": 66, "duration": 1, "velocity": 57}, {"time": 3585, "pitch": 66, "duration": 1, "velocity": 96}, {"time": 3591, "pitch": 57, "duration": 3, "velocity": 100}, {"time": 3591, "pitch": 62, "duration": 1, "velocity": 97}, {"time": 3591, "pitch": 66, "duration": 1, "velocity": 63}, {"time": 3597, "pitch": 43, "duration": 22, "velocity": 77}, {"time": 3597, "pitch": 55, "duration": 5, "velocity": 99}, {"time": 3597, "pitch": 59, "duration": 5, "velocity": 97}, {"time": 3597, "pitch": 62, "duration": 5, "velocity": 97}, {"time": 3603, "pitch": 55, "duration": 4, "velocity": 85}, {"time": 3603, "pitch": 59, "duration": 4, "velocity": 89}, {"time": 3603, "pitch": 62, "duration": 4, "velocity": 88}, {"time": 3609, "pitch": 50, "duration": 12, "velocity": 63}, {"time": 3609, "pitch": 55, "duration": 5, "velocity": 92}, {"time": 3609, "pitch": 59, "duration": 5, "velocity": 93}, {"time": 3609, "pitch": 62, "duration": 4, "velocity": 96}, {"time": 3615, "pitch": 55, "duration": 4, "velocity": 63}, {"time": 3615, "pitch": 59, "duration": 4, "velocity": 83}, {"time": 3615, "pitch": 62, "duration": 4, "velocity": 85}, {"time": 3621, "pitch": 43, "duration": 22, "velocity": 72}, {"time": 3621, "pitch": 55, "duration": 4, "velocity": 78}, {"time": 3621, "pitch": 59, "duration": 4, "velocity": 86}, {"time": 3621, "pitch": 62, "duration": 4, "velocity": 92}, {"time": 3627, "pitch": 55, "duration": 4, "velocity": 79}, {"time": 3627, "pitch": 59, "duration": 4, "velocity": 83}, {"time": 3627, "pitch": 62, "duration": 4, "velocity": 82}, {"time": 3633, "pitch": 50, "duration": 12, "velocity": 56}, {"time": 3633, "pitch": 55, "duration": 1, "velocity": 61}, {"time": 3633, "pitch": 59, "duration": 4, "velocity": 99}, {"time": 3633, "pitch": 62, "duration": 4, "velocity": 97}, {"time": 3639, "pitch": 55, "duration": 4, "velocity": 90}, {"time": 3639, "pitch": 59, "duration": 4, "velocity": 93}, {"time": 3639, "pitch": 62, "duration": 4, "velocity": 82}, {"time": 3645, "pitch": 43, "duration": 19, "velocity": 66}, {"time": 3645, "pitch": 55, "duration": 4, "velocity": 81}, {"time": 3645, "pitch": 59, "duration": 4, "velocity": 92}, {"time": 3645, "pitch": 62, "duration": 4, "velocity": 90}, {"time": 3651, "pitch": 55, "duration": 4, "velocity": 77}, {"time": 3651, "pitch": 59, "duration": 4, "velocity": 85}, {"time": 3651, "pitch": 62, "duration": 4, "velocity": 81}, {"time": 3657, "pitch": 50, "duration": 12, "velocity": 63}, {"time": 3657, "pitch": 55, "duration": 4, "velocity": 90}, {"time": 3657, "pitch": 59, "duration": 4, "velocity": 93}, {"time": 3657, "pitch": 62, "duration": 4, "velocity": 93}, {"time": 3663, "pitch": 55, "duration": 4, "velocity": 78}, {"time": 3663, "pitch": 59, "duration": 4, "velocity": 86}, {"time": 3663, "pitch": 62, "duration": 4, "velocity": 86}, {"time": 3669, "pitch": 43, "duration": 13, "velocity": 77}, {"time": 3669, "pitch": 55, "duration": 4, "velocity": 86}, {"time": 3669, "pitch": 59, "duration": 4, "velocity": 89}, {"time": 3669, "pitch": 62, "duration": 4, "velocity": 90}, {"time": 3675, "pitch": 55, "duration": 4, "velocity": 81}, {"time": 3675, "pitch": 59, "duration": 4, "velocity": 83}, {"time": 3675, "pitch": 62, "duration": 4, "velocity": 82}, {"time": 3681, "pitch": 50, "duration": 1, "velocity": 82}, {"time": 3681, "pitch": 55, "duration": 4, "velocity": 88}, {"time": 3681, "pitch": 59, "duration": 4, "velocity": 96}, {"time": 3681, "pitch": 62, "duration": 4, "velocity": 95}, {"time": 3687, "pitch": 55, "duration": 2, "velocity": 93}, {"time": 3687, "pitch": 59, "duration": 1, "velocity": 93}, {"time": 3687, "pitch": 62, "duration": 1, "velocity": 89}, {"time": 3693, "pitch": 40, "duration": 19, "velocity": 83}, {"time": 3693, "pitch": 52, "duration": 4, "velocity": 93}, {"time": 3693, "pitch": 55, "duration": 4, "velocity": 85}, {"time": 3693, "pitch": 59, "duration": 4, "velocity": 88}, {"time": 3699, "pitch": 52, "duration": 4, "velocity": 85}, {"time": 3699, "pitch": 55, "duration": 4, "velocity": 82}, {"time": 3699, "pitch": 59, "duration": 4, "velocity": 78}, {"time": 3705, "pitch": 47, "duration": 12, "velocity": 69}, {"time": 3705, "pitch": 52, "duration": 2, "velocity": 88}, {"time": 3705, "pitch": 55, "duration": 3, "velocity": 89}, {"time": 3705, "pitch": 59, "duration": 3, "velocity": 85}, {"time": 3711, "pitch": 52, "duration": 4, "velocity": 75}, {"time": 3711, "pitch": 55, "duration": 4, "velocity": 82}, {"time": 3711, "pitch": 59, "duration": 4, "velocity": 76}, {"time": 3717, "pitch": 40, "duration": 19, "velocity": 82}, {"time": 3717, "pitch": 52, "duration": 4, "velocity": 83}, {"time": 3717, "pitch": 55, "duration": 5, "velocity": 85}, {"time": 3717, "pitch": 59, "duration": 4, "velocity": 83}, {"time": 3723, "pitch": 52, "duration": 4, "velocity": 75}, {"time": 3723, "pitch": 55, "duration": 4, "velocity": 74}, {"time": 3723, "pitch": 59, "duration": 4, "velocity": 67}, {"time": 3729, "pitch": 47, "duration": 12, "velocity": 79}, {"time": 3729, "pitch": 52, "duration": 4, "velocity": 90}, {"time": 3729, "pitch": 55, "duration": 4, "velocity": 88}, {"time": 3729, "pitch": 59, "duration": 4, "velocity": 79}, {"time": 3735, "pitch": 52, "duration": 4, "velocity": 83}, {"time": 3735, "pitch": 55, "duration": 4, "velocity": 77}, {"time": 3735, "pitch": 59, "duration": 4, "velocity": 77}, {"time": 3741, "pitch": 40, "duration": 18, "velocity": 69}, {"time": 3741, "pitch": 52, "duration": 4, "velocity": 89}, {"time": 3741, "pitch": 55, "duration": 5, "velocity": 85}, {"time": 3741, "pitch": 59, "duration": 4, "velocity": 82}, {"time": 3747, "pitch": 52, "duration": 4, "velocity": 74}, {"time": 3747, "pitch": 55, "duration": 4, "velocity": 74}, {"time": 3747, "pitch": 59, "duration": 4, "velocity": 65}, {"time": 3753, "pitch": 47, "duration": 12, "velocity": 54}, {"time": 3753, "pitch": 52, "duration": 4, "velocity": 95}, {"time": 3753, "pitch": 55, "duration": 4, "velocity": 89}, {"time": 3753, "pitch": 59, "duration": 3, "velocity": 78}, {"time": 3759, "pitch": 52, "duration": 4, "velocity": 78}, {"time": 3759, "pitch": 55, "duration": 4, "velocity": 82}, {"time": 3759, "pitch": 59, "duration": 4, "velocity": 79}, {"time": 3765, "pitch": 40, "duration": 13, "velocity": 63}, {"time": 3765, "pitch": 52, "duration": 4, "velocity": 89}, {"time": 3765, "pitch": 55, "duration": 4, "velocity": 85}, {"time": 3765, "pitch": 59, "duration": 4, "velocity": 85}, {"time": 3771, "pitch": 52, "duration": 4, "velocity": 74}, {"time": 3771, "pitch": 55, "duration": 5, "velocity": 76}, {"time": 3771, "pitch": 59, "duration": 4, "velocity": 67}, {"time": 3777, "pitch": 47, "duration": 1, "velocity": 65}, {"time": 3777, "pitch": 52, "duration": 5, "velocity": 77}, {"time": 3777, "pitch": 55, "duration": 4, "velocity": 82}, {"time": 3777, "pitch": 59, "duration": 4, "velocity": 85}, {"time": 3783, "pitch": 52, "duration": 1, "velocity": 42}, {"time": 3783, "pitch": 55, "duration": 1, "velocity": 74}, {"time": 3783, "pitch": 59, "duration": 1, "velocity": 63}, {"time": 3789, "pitch": 36, "duration": 21, "velocity": 76}, {"time": 3789, "pitch": 55, "duration": 4, "velocity": 92}, {"time": 3789, "pitch": 60, "duration": 5, "velocity": 88}, {"time": 3789, "pitch": 64, "duration": 4, "velocity": 82}, {"time": 3795, "pitch": 43, "duration": 18, "velocity": 52}, {"time": 3795, "pitch": 55, "duration": 4, "velocity": 77}, {"time": 3795, "pitch": 60, "duration": 4, "velocity": 85}, {"time": 3795, "pitch": 64, "duration": 4, "velocity": 77}, {"time": 3801, "pitch": 48, "duration": 9, "velocity": 79}, {"time": 3801, "pitch": 55, "duration": 4, "velocity": 95}, {"time": 3801, "pitch": 60, "duration": 4, "velocity": 100}, {"time": 3801, "pitch": 64, "duration": 3, "velocity": 90}, {"time": 3807, "pitch": 55, "duration": 3, "velocity": 63}, {"time": 3807, "pitch": 60, "duration": 4, "velocity": 63}, {"time": 3807, "pitch": 64, "duration": 4, "velocity": 59}, {"time": 3813, "pitch": 36, "duration": 22, "velocity": 75}, {"time": 3813, "pitch": 55, "duration": 4, "velocity": 81}, {"time": 3813, "pitch": 60, "duration": 4, "velocity": 89}, {"time": 3813, "pitch": 64, "duration": 4, "velocity": 79}, {"time": 3819, "pitch": 43, "duration": 18, "velocity": 35}, {"time": 3819, "pitch": 55, "duration": 4, "velocity": 67}, {"time": 3819, "pitch": 60, "duration": 4, "velocity": 88}, {"time": 3819, "pitch": 64, "duration": 4, "velocity": 72}, {"time": 3825, "pitch": 48, "duration": 10, "velocity": 67}, {"time": 3825, "pitch": 55, "duration": 4, "velocity": 83}, {"time": 3825, "pitch": 60, "duration": 4, "velocity": 95}, {"time": 3825, "pitch": 64, "duration": 4, "velocity": 92}, {"time": 3831, "pitch": 55, "duration": 4, "velocity": 74}, {"time": 3831, "pitch": 60, "duration": 4, "velocity": 77}, {"time": 3831, "pitch": 64, "duration": 4, "velocity": 71}, {"time": 3837, "pitch": 35, "duration": 18, "velocity": 72}, {"time": 3837, "pitch": 59, "duration": 4, "velocity": 78}, {"time": 3837, "pitch": 62, "duration": 4, "velocity": 97}, {"time": 3837, "pitch": 66, "duration": 4, "velocity": 96}, {"time": 3843, "pitch": 42, "duration": 13, "velocity": 71}, {"time": 3843, "pitch": 59, "duration": 4, "velocity": 83}, {"time": 3843, "pitch": 62, "duration": 4, "velocity": 97}, {"time": 3843, "pitch": 66, "duration": 4, "velocity": 99}, {"time": 3849, "pitch": 47, "duration": 12, "velocity": 82}, {"time": 3849, "pitch": 59, "duration": 4, "velocity": 93}, {"time": 3849, "pitch": 62, "duration": 4, "velocity": 102}, {"time": 3849, "pitch": 66, "duration": 4, "velocity": 117}, {"time": 3855, "pitch": 59, "duration": 2, "velocity": 90}, {"time": 3855, "pitch": 62, "duration": 1, "velocity": 102}, {"time": 3855, "pitch": 66, "duration": 1, "velocity": 96}, {"time": 3861, "pitch": 40, "duration": 14, "velocity": 73}, {"time": 3861, "pitch": 52, "duration": 5, "velocity": 107}, {"time": 3861, "pitch": 56, "duration": 5, "velocity": 112}, {"time": 3861, "pitch": 59, "duration": 5, "velocity": 99}, {"time": 3867, "pitch": 52, "duration": 4, "velocity": 77}, {"time": 3867, "pitch": 56, "duration": 4, "velocity": 95}, {"time": 3867, "pitch": 59, "duration": 4, "velocity": 83}, {"time": 3873, "pitch": 47, "duration": 3, "velocity": 59}, {"time": 3873, "pitch": 52, "duration": 4, "velocity": 90}, {"time": 3873, "pitch": 56, "duration": 4, "velocity": 102}, {"time": 3873, "pitch": 59, "duration": 4, "velocity": 92}, {"time": 3879, "pitch": 52, "duration": 1, "velocity": 64}, {"time": 3879, "pitch": 56, "duration": 1, "velocity": 97}, {"time": 3879, "pitch": 59, "duration": 1, "velocity": 78}, {"time": 3885, "pitch": 45, "duration": 18, "velocity": 72}, {"time": 3885, "pitch": 57, "duration": 4, "velocity": 93}, {"time": 3885, "pitch": 60, "duration": 4, "velocity": 92}, {"time": 3885, "pitch": 64, "duration": 4, "velocity": 90}, {"time": 3891, "pitch": 57, "duration": 3, "velocity": 82}, {"time": 3891, "pitch": 60, "duration": 3, "velocity": 85}, {"time": 3891, "pitch": 64, "duration": 4, "velocity": 76}, {"time": 3897, "pitch": 52, "duration": 12, "velocity": 69}, {"time": 3897, "pitch": 57, "duration": 3, "velocity": 96}, {"time": 3897, "pitch": 60, "duration": 4, "velocity": 96}, {"time": 3897, "pitch": 64, "duration": 4, "velocity": 86}, {"time": 3903, "pitch": 57, "duration": 4, "velocity": 89}, {"time": 3903, "pitch": 60, "duration": 4, "velocity": 88}, {"time": 3903, "pitch": 64, "duration": 4, "velocity": 82}, {"time": 3909, "pitch": 45, "duration": 16, "velocity": 66}, {"time": 3909, "pitch": 57, "duration": 4, "velocity": 89}, {"time": 3909, "pitch": 60, "duration": 4, "velocity": 96}, {"time": 3909, "pitch": 64, "duration": 4, "velocity": 85}, {"time": 3915, "pitch": 57, "duration": 4, "velocity": 82}, {"time": 3915, "pitch": 60, "duration": 4, "velocity": 93}, {"time": 3915, "pitch": 64, "duration": 4, "velocity": 83}, {"time": 3921, "pitch": 52, "duration": 3, "velocity": 44}, {"time": 3921, "pitch": 57, "duration": 4, "velocity": 92}, {"time": 3921, "pitch": 60, "duration": 4, "velocity": 89}, {"time": 3921, "pitch": 64, "duration": 4, "velocity": 78}, {"time": 3927, "pitch": 57, "duration": 2, "velocity": 93}, {"time": 3927, "pitch": 60, "duration": 2, "velocity": 96}, {"time": 3927, "pitch": 64, "duration": 2, "velocity": 92}, {"time": 3933, "pitch": 38, "duration": 22, "velocity": 77}, {"time": 3933, "pitch": 57, "duration": 4, "velocity": 97}, {"time": 3933, "pitch": 62, "duration": 4, "velocity": 96}, {"time": 3933, "pitch": 66, "duration": 4, "velocity": 95}, {"time": 3939, "pitch": 45, "duration": 8, "velocity": 45}, {"time": 3939, "pitch": 57, "duration": 4, "velocity": 88}, {"time": 3939, "pitch": 62, "duration": 4, "velocity": 96}, {"time": 3939, "pitch": 66, "duration": 4, "velocity": 95}, {"time": 3945, "pitch": 50, "duration": 26, "velocity": 57}, {"time": 3945, "pitch": 57, "duration": 4, "velocity": 88}, {"time": 3945, "pitch": 62, "duration": 4, "velocity": 99}, {"time": 3945, "pitch": 66, "duration": 4, "velocity": 102}, {"time": 3951, "pitch": 45, "duration": 6, "velocity": 57}, {"time": 3951, "pitch": 57, "duration": 4, "velocity": 85}, {"time": 3951, "pitch": 62, "duration": 4, "velocity": 97}, {"time": 3951, "pitch": 66, "duration": 4, "velocity": 97}, {"time": 3957, "pitch": 38, "duration": 15, "velocity": 59}, {"time": 3957, "pitch": 57, "duration": 11, "velocity": 88}, {"time": 3957, "pitch": 62, "duration": 11, "velocity": 99}, {"time": 3957, "pitch": 66, "duration": 11, "velocity": 100}, {"time": 3969, "pitch": 45, "duration": 4, "velocity": 64}, {"time": 3969, "pitch": 57, "duration": 9, "velocity": 88}, {"time": 3969, "pitch": 62, "duration": 6, "velocity": 95}, {"time": 3969, "pitch": 66, "duration": 6, "velocity": 100}, {"time": 3981, "pitch": 43, "duration": 16, "velocity": 73}, {"time": 3981, "pitch": 55, "duration": 5, "velocity": 97}, {"time": 3981, "pitch": 59, "duration": 5, "velocity": 95}, {"time": 3981, "pitch": 62, "duration": 5, "velocity": 93}, {"time": 3987, "pitch": 55, "duration": 4, "velocity": 75}, {"time": 3987, "pitch": 59, "duration": 4, "velocity": 78}, {"time": 3987, "pitch": 62, "duration": 4, "velocity": 72}, {"time": 3993, "pitch": 50, "duration": 12, "velocity": 42}, {"time": 3993, "pitch": 55, "duration": 4, "velocity": 95}, {"time": 3993, "pitch": 59, "duration": 4, "velocity": 96}, {"time": 3993, "pitch": 62, "duration": 4, "velocity": 96}, {"time": 3999, "pitch": 55, "duration": 4, "velocity": 61}, {"time": 3999, "pitch": 59, "duration": 4, "velocity": 68}, {"time": 3999, "pitch": 62, "duration": 4, "velocity": 69}, {"time": 4005, "pitch": 43, "duration": 17, "velocity": 64}, {"time": 4005, "pitch": 55, "duration": 5, "velocity": 92}, {"time": 4005, "pitch": 59, "duration": 5, "velocity": 85}, {"time": 4005, "pitch": 62, "duration": 5, "velocity": 85}, {"time": 4011, "pitch": 55, "duration": 4, "velocity": 72}, {"time": 4011, "pitch": 59, "duration": 4, "velocity": 77}, {"time": 4011, "pitch": 62, "duration": 4, "velocity": 72}, {"time": 4017, "pitch": 50, "duration": 12, "velocity": 93}, {"time": 4017, "pitch": 55, "duration": 4, "velocity": 95}, {"time": 4017, "pitch": 59, "duration": 4, "velocity": 95}, {"time": 4017, "pitch": 62, "duration": 4, "velocity": 90}, {"time": 4023, "pitch": 55, "duration": 4, "velocity": 83}, {"time": 4023, "pitch": 59, "duration": 4, "velocity": 82}, {"time": 4023, "pitch": 62, "duration": 4, "velocity": 72}, {"time": 4029, "pitch": 43, "duration": 17, "velocity": 69}, {"time": 4029, "pitch": 55, "duration": 4, "velocity": 92}, {"time": 4029, "pitch": 59, "duration": 4, "velocity": 93}, {"time": 4029, "pitch": 62, "duration": 4, "velocity": 86}, {"time": 4035, "pitch": 55, "duration": 4, "velocity": 73}, {"time": 4035, "pitch": 59, "duration": 4, "velocity": 78}, {"time": 4035, "pitch": 62, "duration": 4, "velocity": 71}, {"time": 4041, "pitch": 50, "duration": 13, "velocity": 68}, {"time": 4041, "pitch": 55, "duration": 4, "velocity": 86}, {"time": 4041, "pitch": 59, "duration": 4, "velocity": 90}, {"time": 4041, "pitch": 62, "duration": 4, "velocity": 83}, {"time": 4047, "pitch": 55, "duration": 4, "velocity": 69}, {"time": 4047, "pitch": 59, "duration": 5, "velocity": 68}, {"time": 4047, "pitch": 62, "duration": 4, "velocity": 66}, {"time": 4053, "pitch": 43, "duration": 13, "velocity": 58}, {"time": 4053, "pitch": 55, "duration": 4, "velocity": 81}, {"time": 4053, "pitch": 59, "duration": 5, "velocity": 83}, {"time": 4053, "pitch": 62, "duration": 4, "velocity": 81}, {"time": 4059, "pitch": 55, "duration": 4, "velocity": 66}, {"time": 4059, "pitch": 59, "duration": 4, "velocity": 64}, {"time": 4059, "pitch": 62, "duration": 4, "velocity": 61}, {"time": 4065, "pitch": 50, "duration": 2, "velocity": 67}, {"time": 4065, "pitch": 55, "duration": 4, "velocity": 90}, {"time": 4065, "pitch": 59, "duration": 4, "velocity": 92}, {"time": 4065, "pitch": 62, "duration": 4, "velocity": 70}, {"time": 4071, "pitch": 55, "duration": 4, "velocity": 85}, {"time": 4071, "pitch": 59, "duration": 2, "velocity": 79}, {"time": 4071, "pitch": 62, "duration": 1, "velocity": 73}, {"time": 4077, "pitch": 40, "duration": 22, "velocity": 77}, {"time": 4077, "pitch": 55, "duration": 4, "velocity": 89}, {"time": 4077, "pitch": 59, "duration": 4, "velocity": 85}, {"time": 4077, "pitch": 64, "duration": 4, "velocity": 88}, {"time": 4083, "pitch": 47, "duration": 18, "velocity": 39}, {"time": 4083, "pitch": 55, "duration": 3, "velocity": 78}, {"time": 4083, "pitch": 59, "duration": 3, "velocity": 78}, {"time": 4083, "pitch": 64, "duration": 3, "velocity": 74}, {"time": 4089, "pitch": 52, "duration": 12, "velocity": 78}, {"time": 4089, "pitch": 55, "duration": 3, "velocity": 95}, {"time": 4089, "pitch": 59, "duration": 4, "velocity": 97}, {"time": 4089, "pitch": 64, "duration": 3, "velocity": 95}, {"time": 4095, "pitch": 55, "duration": 4, "velocity": 85}, {"time": 4095, "pitch": 59, "duration": 4, "velocity": 73}, {"time": 4095, "pitch": 64, "duration": 4, "velocity": 75}, {"time": 4101, "pitch": 40, "duration": 22, "velocity": 64}, {"time": 4101, "pitch": 55, "duration": 4, "velocity": 73}, {"time": 4101, "pitch": 59, "duration": 4, "velocity": 77}, {"time": 4101, "pitch": 64, "duration": 4, "velocity": 78}, {"time": 4107, "pitch": 47, "duration": 18, "velocity": 45}, {"time": 4107, "pitch": 55, "duration": 4, "velocity": 78}, {"time": 4107, "pitch": 59, "duration": 4, "velocity": 78}, {"time": 4107, "pitch": 64, "duration": 4, "velocity": 75}, {"time": 4113, "pitch": 52, "duration": 6, "velocity": 75}, {"time": 4113, "pitch": 55, "duration": 4, "velocity": 86}, {"time": 4113, "pitch": 59, "duration": 4, "velocity": 93}, {"time": 4113, "pitch": 64, "duration": 4, "velocity": 89}, {"time": 4119, "pitch": 55, "duration": 4, "velocity": 82}, {"time": 4119, "pitch": 59, "duration": 4, "velocity": 78}, {"time": 4119, "pitch": 64, "duration": 4, "velocity": 79}, {"time": 4125, "pitch": 40, "duration": 22, "velocity": 82}, {"time": 4125, "pitch": 55, "duration": 4, "velocity": 92}, {"time": 4125, "pitch": 59, "duration": 4, "velocity": 85}, {"time": 4125, "pitch": 64, "duration": 4, "velocity": 89}, {"time": 4131, "pitch": 47, "duration": 10, "velocity": 42}, {"time": 4131, "pitch": 55, "duration": 4, "velocity": 71}, {"time": 4131, "pitch": 59, "duration": 4, "velocity": 79}, {"time": 4131, "pitch": 64, "duration": 4, "velocity": 72}, {"time": 4137, "pitch": 52, "duration": 7, "velocity": 75}, {"time": 4137, "pitch": 55, "duration": 4, "velocity": 92}, {"time": 4137, "pitch": 59, "duration": 4, "velocity": 92}, {"time": 4137, "pitch": 64, "duration": 4, "velocity": 89}, {"time": 4143, "pitch": 47, "duration": 7, "velocity": 63}, {"time": 4143, "pitch": 55, "duration": 5, "velocity": 72}, {"time": 4143, "pitch": 59, "duration": 5, "velocity": 77}, {"time": 4143, "pitch": 64, "duration": 5, "velocity": 74}, {"time": 4149, "pitch": 40, "duration": 14, "velocity": 85}, {"time": 4149, "pitch": 55, "duration": 4, "velocity": 86}, {"time": 4149, "pitch": 59, "duration": 4, "velocity": 86}, {"time": 4149, "pitch": 64, "duration": 4, "velocity": 85}, {"time": 4155, "pitch": 47, "duration": 8, "velocity": 63}, {"time": 4155, "pitch": 55, "duration": 4, "velocity": 75}, {"time": 4155, "pitch": 59, "duration": 4, "velocity": 79}, {"time": 4155, "pitch": 64, "duration": 4, "velocity": 75}, {"time": 4161, "pitch": 52, "duration": 2, "velocity": 77}, {"time": 4161, "pitch": 59, "duration": 6, "velocity": 97}, {"time": 4161, "pitch": 64, "duration": 6, "velocity": 96}, {"time": 4167, "pitch": 55, "duration": 5, "velocity": 100}, {"time": 4173, "pitch": 36, "duration": 22, "velocity": 71}, {"time": 4173, "pitch": 52, "duration": 2, "velocity": 95}, {"time": 4173, "pitch": 55, "duration": 5, "velocity": 82}, {"time": 4173, "pitch": 59, "duration": 5, "velocity": 88}, {"time": 4179, "pitch": 43, "duration": 10, "velocity": 55}, {"time": 4179, "pitch": 52, "duration": 4, "velocity": 89}, {"time": 4179, "pitch": 55, "duration": 4, "velocity": 68}, {"time": 4179, "pitch": 59, "duration": 4, "velocity": 67}, {"time": 4185, "pitch": 48, "duration": 7, "velocity": 85}, {"time": 4185, "pitch": 52, "duration": 5, "velocity": 95}, {"time": 4185, "pitch": 55, "duration": 5, "velocity": 86}, {"time": 4191, "pitch": 43, "duration": 7, "velocity": 53}, {"time": 4191, "pitch": 52, "duration": 4, "velocity": 77}, {"time": 4191, "pitch": 55, "duration": 5, "velocity": 77}, {"time": 4197, "pitch": 36, "duration": 21, "velocity": 83}, {"time": 4197, "pitch": 52, "duration": 5, "velocity": 89}, {"time": 4197, "pitch": 55, "duration": 5, "velocity": 73}, {"time": 4197, "pitch": 60, "duration": 5, "velocity": 76}, {"time": 4203, "pitch": 43, "duration": 10, "velocity": 66}, {"time": 4203, "pitch": 52, "duration": 4, "velocity": 69}, {"time": 4203, "pitch": 55, "duration": 4, "velocity": 73}, {"time": 4203, "pitch": 60, "duration": 4, "velocity": 72}, {"time": 4209, "pitch": 48, "duration": 7, "velocity": 70}, {"time": 4209, "pitch": 52, "duration": 5, "velocity": 88}, {"time": 4209, "pitch": 55, "duration": 5, "velocity": 88}, {"time": 4209, "pitch": 60, "duration": 4, "velocity": 83}, {"time": 4215, "pitch": 43, "duration": 7, "velocity": 64}, {"time": 4215, "pitch": 52, "duration": 4, "velocity": 63}, {"time": 4215, "pitch": 55, "duration": 4, "velocity": 69}, {"time": 4215, "pitch": 60, "duration": 4, "velocity": 75}, {"time": 4221, "pitch": 36, "duration": 20, "velocity": 76}, {"time": 4221, "pitch": 52, "duration": 4, "velocity": 90}, {"time": 4221, "pitch": 55, "duration": 5, "velocity": 78}, {"time": 4221, "pitch": 60, "duration": 5, "velocity": 77}, {"time": 4227, "pitch": 43, "duration": 19, "velocity": 47}, {"time": 4227, "pitch": 52, "duration": 4, "velocity": 70}, {"time": 4227, "pitch": 55, "duration": 4, "velocity": 65}, {"time": 4227, "pitch": 60, "duration": 4, "velocity": 66}, {"time": 4233, "pitch": 48, "duration": 6, "velocity": 85}, {"time": 4233, "pitch": 52, "duration": 4, "velocity": 90}, {"time": 4233, "pitch": 55, "duration": 4, "velocity": 88}, {"time": 4233, "pitch": 60, "duration": 4, "velocity": 90}, {"time": 4239, "pitch": 52, "duration": 4, "velocity": 69}, {"time": 4239, "pitch": 55, "duration": 5, "velocity": 78}, {"time": 4239, "pitch": 60, "duration": 4, "velocity": 77}, {"time": 4245, "pitch": 36, "duration": 19, "velocity": 66}, {"time": 4245, "pitch": 52, "duration": 5, "velocity": 85}, {"time": 4245, "pitch": 55, "duration": 5, "velocity": 89}, {"time": 4245, "pitch": 60, "duration": 5, "velocity": 88}, {"time": 4251, "pitch": 43, "duration": 8, "velocity": 56}, {"time": 4251, "pitch": 52, "duration": 4, "velocity": 66}, {"time": 4251, "pitch": 55, "duration": 4, "velocity": 69}, {"time": 4251, "pitch": 60, "duration": 4, "velocity": 69}, {"time": 4257, "pitch": 48, "duration": 6, "velocity": 75}, {"time": 4257, "pitch": 52, "duration": 5, "velocity": 88}, {"time": 4257, "pitch": 55, "duration": 6, "velocity": 93}, {"time": 4257, "pitch": 60, "duration": 6, "velocity": 93}, {"time": 4263, "pitch": 43, "duration": 7, "velocity": 85}, {"time": 4269, "pitch": 38, "duration": 21, "velocity": 81}, {"time": 4269, "pitch": 57, "duration": 5, "velocity": 93}, {"time": 4269, "pitch": 62, "duration": 5, "velocity": 89}, {"time": 4269, "pitch": 66, "duration": 5, "velocity": 89}, {"time": 4275, "pitch": 45, "duration": 10, "velocity": 66}, {"time": 4275, "pitch": 57, "duration": 4, "velocity": 66}, {"time": 4275, "pitch": 62, "duration": 5, "velocity": 85}, {"time": 4275, "pitch": 66, "duration": 4, "velocity": 77}, {"time": 4281, "pitch": 50, "duration": 8, "velocity": 92}, {"time": 4281, "pitch": 57, "duration": 5, "velocity": 95}, {"time": 4281, "pitch": 62, "duration": 5, "velocity": 97}, {"time": 4281, "pitch": 66, "duration": 5, "velocity": 99}, {"time": 4287, "pitch": 45, "duration": 8, "velocity": 66}, {"time": 4287, "pitch": 57, "duration": 4, "velocity": 78}, {"time": 4287, "pitch": 62, "duration": 5, "velocity": 81}, {"time": 4287, "pitch": 66, "duration": 4, "velocity": 77}, {"time": 4293, "pitch": 38, "duration": 21, "velocity": 81}, {"time": 4293, "pitch": 57, "duration": 4, "velocity": 86}, {"time": 4293, "pitch": 62, "duration": 4, "velocity": 100}, {"time": 4293, "pitch": 66, "duration": 4, "velocity": 100}, {"time": 4299, "pitch": 45, "duration": 9, "velocity": 76}, {"time": 4299, "pitch": 57, "duration": 4, "velocity": 76}, {"time": 4299, "pitch": 62, "duration": 4, "velocity": 82}, {"time": 4299, "pitch": 66, "duration": 4, "velocity": 79}, {"time": 4305, "pitch": 50, "duration": 7, "velocity": 85}, {"time": 4305, "pitch": 57, "duration": 4, "velocity": 83}, {"time": 4305, "pitch": 62, "duration": 4, "velocity": 90}, {"time": 4305, "pitch": 66, "duration": 4, "velocity": 93}, {"time": 4311, "pitch": 45, "duration": 7, "velocity": 58}, {"time": 4311, "pitch": 57, "duration": 4, "velocity": 82}, {"time": 4311, "pitch": 62, "duration": 4, "velocity": 95}, {"time": 4311, "pitch": 66, "duration": 4, "velocity": 92}, {"time": 4317, "pitch": 38, "duration": 21, "velocity": 74}, {"time": 4317, "pitch": 57, "duration": 5, "velocity": 96}, {"time": 4317, "pitch": 62, "duration": 5, "velocity": 99}, {"time": 4317, "pitch": 66, "duration": 5, "velocity": 100}, {"time": 4323, "pitch": 45, "duration": 9, "velocity": 55}, {"time": 4323, "pitch": 57, "duration": 4, "velocity": 69}, {"time": 4323, "pitch": 62, "duration": 4, "velocity": 69}, {"time": 4323, "pitch": 66, "duration": 4, "velocity": 73}, {"time": 4329, "pitch": 50, "duration": 12, "velocity": 79}, {"time": 4329, "pitch": 57, "duration": 4, "velocity": 92}, {"time": 4329, "pitch": 62, "duration": 4, "velocity": 90}, {"time": 4329, "pitch": 66, "duration": 4, "velocity": 97}, {"time": 4335, "pitch": 45, "duration": 6, "velocity": 62}, {"time": 4335, "pitch": 57, "duration": 4, "velocity": 83}, {"time": 4335, "pitch": 62, "duration": 4, "velocity": 90}, {"time": 4335, "pitch": 66, "duration": 5, "velocity": 90}, {"time": 4341, "pitch": 38, "duration": 15, "velocity": 85}, {"time": 4341, "pitch": 50, "duration": 14, "velocity": 92}, {"time": 4341, "pitch": 54, "duration": 14, "velocity": 93}, {"time": 4341, "pitch": 57, "duration": 14, "velocity": 85}, {"time": 4365, "pitch": 43, "duration": 23, "velocity": 64}, {"time": 4365, "pitch": 50, "duration": 23, "velocity": 74}, {"time": 4365, "pitch": 55, "duration": 23, "velocity": 69}, {"time": 4389, "pitch": 43, "duration": 15, "velocity": 51}, {"time": 4389, "pitch": 50, "duration": 15, "velocity": 55}, {"time": 4389, "pitch": 55, "duration": 16, "velocity": 53}, {"time": 4413, "pitch": 43, "duration": 15, "velocity": 48}, {"time": 4413, "pitch": 50, "duration": 15, "velocity": 53}, {"time": 4413, "pitch": 55, "duration": 15, "velocity": 58}, {"time": 4437, "pitch": 43, "duration": 13, "velocity": 52}, {"time": 4437, "pitch": 50, "duration": 16, "velocity": 56}, {"time": 4437, "pitch": 55, "duration": 16, "velocity": 63}, {"time": 4461, "pitch": 43, "duration": 21, "velocity": 47}, {"time": 4461, "pitch": 50, "duration": 23, "velocity": 48}, {"time": 4461, "pitch": 55, "duration": 22, "velocity": 58}, {"time": 4485, "pitch": 43, "duration": 17, "velocity": 52}, {"time": 4485, "pitch": 50, "duration": 18, "velocity": 59}, {"time": 4485, "pitch": 55, "duration": 18, "velocity": 59}, {"time": 4509, "pitch": 43, "duration": 82, "velocity": 54}, {"time": 4509, "pitch": 50, "duration": 82, "velocity": 56}, {"time": 4509, "pitch": 55, "duration": 83, "velocity": 63}], "annotations": [{"time": 798, "annotation": {"number": 64, "value": 127}, "group": "control_change"}, {"time": 811, "annotation": {"number": 64, "value": 0}, "group": "control_change"}, {"time": 824, "annotation": {"number": 64, "value": 127}, "group": "control_change"}, {"time": 834, "annotation": {"number": 64, "value": 0}, "group": "control_change"}, {"time": 848, "annotation": {"number": 64, "value": 127}, "group": "control_change"}, {"time": 858, "annotation": {"number": 64, "value": 0}, "group": "control_change"}, {"time": 866, "annotation": {"number": 64, "value": 127}, "group": "control_change"}, {"time": 882, "annotation": {"number": 64, "value": 0}, "group": "control_change"}, {"time": 889, "annotation": {"number": 64, "value": 127}, "group": "control_change"}, {"time": 908, "annotation": {"number": 64, "value": 0}, "group": "control_change"}, {"time": 919, "annotation": {"number": 64, "value": 127}, "group": "control_change"}, {"time": 932, "annotation": {"number": 64, "value": 0}, "group": "control_change"}, {"time": 936, "annotation": {"number": 64, "value": 127}, "group": "control_change"}, {"time": 955, "annotation": {"number": 64, "value": 0}, "group": "control_change"}, {"time": 959, "annotation": {"number": 64, "value": 127}, "group": "control_change"}, {"time": 979, "annotation": {"number": 64, "value": 0}, "group": "control_change"}, {"time": 982, "annotation": {"number": 64, "value": 127}, "group": "control_change"}, {"time": 1004, "annotation": {"number": 64, "value": 0}, "group": "control_change"}, {"time": 1010, "annotation": {"number": 64, "value": 127}, "group": "control_change"}, {"time": 1027, "annotation": {"number": 64, "value": 0}, "group": "control_change"}, {"time": 1030, "annotation": {"number": 64, "value": 127}, "group": "control_change"}, {"time": 1051, "annotation": {"number": 64, "value": 0}, "group": "control_change"}, {"time": 1054, "annotation": {"number": 64, "value": 127}, "group": "control_change"}, {"time": 1076, "annotation": {"number": 64, "value": 0}, "group": "control_change"}, {"time": 1078, "annotation": {"number": 64, "value": 127}, "group": "control_change"}, {"time": 1099, "annotation": {"number": 64, "value": 0}, "group": "control_change"}, {"time": 1104, "annotation": {"number": 64, "value": 127}, "group": "control_change"}, {"time": 1123, "annotation": {"number": 64, "value": 0}, "group": "control_change"}, {"time": 1126, "annotation": {"number": 64, "value": 127}, "group": "control_change"}, {"time": 1145, "annotation": {"number": 64, "value": 0}, "group": "control_change"}, {"time": 1150, "annotation": {"number": 64, "value": 127}, "group": "control_change"}, {"time": 1170, "annotation": {"number": 64, "value": 0}, "group": "control_change"}, {"time": 1174, "annotation": {"number": 64, "value": 127}, "group": "control_change"}, {"time": 1195, "annotation": {"number": 64, "value": 0}, "group": "control_change"}, {"time": 1200, "annotation": {"number": 64, "value": 127}, "group": "control_change"}, {"time": 1217, "annotation": {"number": 64, "value": 0}, "group": "control_change"}, {"time": 1221, "annotation": {"number": 64, "value": 127}, "group": "control_change"}, {"time": 1242, "annotation": {"number": 64, "value": 0}, "group": "control_change"}, {"time": 1293, "annotation": {"number": 64, "value": 127}, "group": "control_change"}, {"time": 1315, "annotation": {"number": 64, "value": 0}, "group": "control_change"}, {"time": 1316, "annotation": {"number": 64, "value": 127}, "group": "control_change"}, {"time": 1387, "annotation": {"number": 64, "value": 0}, "group": "control_change"}, {"time": 1389, "annotation": {"number": 64, "value": 127}, "group": "control_change"}, {"time": 1435, "annotation": {"number": 64, "value": 0}, "group": "control_change"}, {"time": 1437, "annotation": {"number": 64, "value": 127}, "group": "control_change"}, {"time": 1482, "annotation": {"number": 64, "value": 0}, "group": "control_change"}, {"time": 1485, "annotation": {"number": 64, "value": 127}, "group": "control_change"}, {"time": 1531, "annotation": {"number": 64, "value": 0}, "group": "control_change"}, {"time": 1533, "annotation": {"number": 64, "value": 127}, "group": "control_change"}, {"time": 1554, "annotation": {"number": 64, "value": 0}, "group": "control_change"}, {"time": 1557, "annotation": {"number": 64, "value": 127}, "group": "control_change"}, {"time": 1579, "annotation": {"number": 64, "value": 0}, "group": "control_change"}, {"time": 1581, "annotation": {"number": 64, "value": 127}, "group": "control_change"}, {"time": 1626, "annotation": {"number": 64, "value": 0}, "group": "control_change"}, {"time": 1629, "annotation": {"number": 64, "value": 127}, "group": "control_change"}, {"time": 1675, "annotation": {"number": 64, "value": 0}, "group": "control_change"}, {"time": 1678, "annotation": {"number": 64, "value": 127}, "group": "control_change"}, {"time": 1699, "annotation": {"number": 64, "value": 0}, "group": "control_change"}, {"time": 1702, "annotation": {"number": 64, "value": 127}, "group": "control_change"}, {"time": 1722, "annotation": {"number": 64, "value": 0}, "group": "control_change"}, {"time": 1725, "annotation": {"number": 64, "value": 127}, "group": "control_change"}, {"time": 1770, "annotation": {"number": 64, "value": 0}, "group": "control_change"}, {"time": 1773, "annotation": {"number": 64, "value": 127}, "group": "control_change"}, {"time": 1795, "annotation": {"number": 64, "value": 0}, "group": "control_change"}, {"time": 1795, "annotation": {"number": 64, "value": 127}, "group": "control_change"}, {"time": 1818, "annotation": {"number": 64, "value": 0}, "group": "control_change"}, {"time": 1821, "annotation": {"number": 64, "value": 127}, "group": "control_change"}, {"time": 1867, "annotation": {"number": 64, "value": 0}, "group": "control_change"}, {"time": 1869, "annotation": {"number": 64, "value": 127}, "group": "control_change"}, {"time": 1915, "annotation": {"number": 64, "value": 0}, "group": "control_change"}, {"time": 1917, "annotation": {"number": 64, "value": 127}, "group": "control_change"}, {"time": 1918, "annotation": {"number": 64, "value": 127}, "group": "control_change"}, {"time": 1940, "annotation": {"number": 64, "value": 0}, "group": "control_change"}, {"time": 1941, "annotation": {"number": 64, "value": 127}, "group": "control_change"}, {"time": 1964, "annotation": {"number": 64, "value": 0}, "group": "control_change"}, {"time": 1966, "annotation": {"number": 64, "value": 127}, "group": "control_change"}, {"time": 1986, "annotation": {"number": 64, "value": 0}, "group": "control_change"}, {"time": 1988, "annotation": {"number": 64, "value": 127}, "group": "control_change"}, {"time": 2010, "annotation": {"number": 64, "value": 0}, "group": "control_change"}, {"time": 2013, "annotation": {"number": 64, "value": 127}, "group": "control_change"}, {"time": 2034, "annotation": {"number": 64, "value": 0}, "group": "control_change"}, {"time": 2038, "annotation": {"number": 64, "value": 127}, "group": "control_change"}, {"time": 2057, "annotation": {"number": 64, "value": 0}, "group": "control_change"}, {"time": 2062, "annotation": {"number": 64, "value": 127}, "group": "control_change"}, {"time": 2082, "annotation": {"number": 64, "value": 0}, "group": "control_change"}, {"time": 2085, "annotation": {"number": 64, "value": 127}, "group": "control_change"}, {"time": 2106, "annotation": {"number": 64, "value": 0}, "group": "control_change"}, {"time": 2109, "annotation": {"number": 64, "value": 127}, "group": "control_change"}, {"time": 2131, "annotation": {"number": 64, "value": 0}, "group": "control_change"}, {"time": 2133, "annotation": {"number": 64, "value": 127}, "group": "control_change"}, {"time": 2154, "annotation": {"number": 64, "value": 0}, "group": "control_change"}, {"time": 2157, "annotation": {"number": 64, "value": 127}, "group": "control_change"}, {"time": 2165, "annotation": {"number": 64, "value": 0}, "group": "control_change"}, {"time": 2169, "annotation": {"number": 64, "value": 127}, "group": "control_change"}, {"time": 2179, "annotation": {"number": 64, "value": 0}, "group": "control_change"}, {"time": 2180, "annotation": {"number": 64, "value": 127}, "group": "control_change"}, {"time": 2202, "annotation": {"number": 64, "value": 0}, "group": "control_change"}, {"time": 2205, "annotation": {"number": 64, "value": 127}, "group": "control_change"}, {"time": 2250, "annotation": {"number": 64, "value": 0}, "group": "control_change"}, {"time": 2253, "annotation": {"number": 64, "value": 127}, "group": "control_change"}, {"time": 2262, "annotation": {"number": 64, "value": 0}, "group": "control_change"}, {"time": 2265, "annotation": {"number": 64, "value": 127}, "group": "control_change"}, {"time": 2274, "annotation": {"number": 64, "value": 0}, "group": "control_change"}, {"time": 2277, "annotation": {"number": 64, "value": 127}, "group": "control_change"}, {"time": 2297, "annotation": {"number": 64, "value": 0}, "group": "control_change"}, {"time": 2301, "annotation": {"number": 64, "value": 127}, "group": "control_change"}, {"time": 2322, "annotation": {"number": 64, "value": 0}, "group": "control_change"}, {"time": 2325, "annotation": {"number": 64, "value": 127}, "group": "control_change"}, {"time": 2345, "annotation": {"number": 64, "value": 0}, "group": "control_change"}, {"time": 2349, "annotation": {"number": 64, "value": 127}, "group": "control_change"}, {"time": 2369, "annotation": {"number": 64, "value": 0}, "group": "control_change"}, {"time": 2373, "annotation": {"number": 64, "value": 127}, "group": "control_change"}, {"time": 2394, "annotation": {"number": 64, "value": 0}, "group": "control_change"}, {"time": 2397, "annotation": {"number": 64, "value": 127}, "group": "control_change"}, {"time": 2418, "annotation": {"number": 64, "value": 0}, "group": "control_change"}, {"time": 2422, "annotation": {"number": 64, "value": 127}, "group": "control_change"}, {"time": 2435, "annotation": {"number": 64, "value": 0}, "group": "control_change"}, {"time": 2718, "annotation": {"number": 64, "value": 127}, "group": "control_change"}, {"time": 2731, "annotation": {"number": 64, "value": 0}, "group": "control_change"}, {"time": 2744, "annotation": {"number": 64, "value": 127}, "group": "control_change"}, {"time": 2754, "annotation": {"number": 64, "value": 0}, "group": "control_change"}, {"time": 2768, "annotation": {"number": 64, "value": 127}, "group": "control_change"}, {"time": 2778, "annotation": {"number": 64, "value": 0}, "group": "control_change"}, {"time": 2786, "annotation": {"number": 64, "value": 127}, "group": "control_change"}, {"time": 2802, "annotation": {"number": 64, "value": 0}, "group": "control_change"}, {"time": 2809, "annotation": {"number": 64, "value": 127}, "group": "control_change"}, {"time": 2828, "annotation": {"number": 64, "value": 0}, "group": "control_change"}, {"time": 2839, "annotation": {"number": 64, "value": 127}, "group": "control_change"}, {"time": 2852, "annotation": {"number": 64, "value": 0}, "group": "control_change"}, {"time": 2856, "annotation": {"number": 64, "value": 127}, "group": "control_change"}, {"time": 2875, "annotation": {"number": 64, "value": 0}, "group": "control_change"}, {"time": 2879, "annotation": {"number": 64, "value": 127}, "group": "control_change"}, {"time": 2899, "annotation": {"number": 64, "value": 0}, "group": "control_change"}, {"time": 2902, "annotation": {"number": 64, "value": 127}, "group": "control_change"}, {"time": 2924, "annotation": {"number": 64, "value": 0}, "group": "control_change"}, {"time": 2930, "annotation": {"number": 64, "value": 127}, "group": "control_change"}, {"time": 2947, "annotation": {"number": 64, "value": 0}, "group": "control_change"}, {"time": 2950, "annotation": {"number": 64, "value": 127}, "group": "control_change"}, {"time": 2971, "annotation": {"number": 64, "value": 0}, "group": "control_change"}, {"time": 2974, "annotation": {"number": 64, "value": 127}, "group": "control_change"}, {"time": 2996, "annotation": {"number": 64, "value": 0}, "group": "control_change"}, {"time": 2998, "annotation": {"number": 64, "value": 127}, "group": "control_change"}, {"time": 3019, "annotation": {"number": 64, "value": 0}, "group": "control_change"}, {"time": 3024, "annotation": {"number": 64, "value": 127}, "group": "control_change"}, {"time": 3043, "annotation": {"number": 64, "value": 0}, "group": "control_change"}, {"time": 3046, "annotation": {"number": 64, "value": 127}, "group": "control_change"}, {"time": 3065, "annotation": {"number": 64, "value": 0}, "group": "control_change"}, {"time": 3070, "annotation": {"number": 64, "value": 127}, "group": "control_change"}, {"time": 3090, "annotation": {"number": 64, "value": 0}, "group": "control_change"}, {"time": 3094, "annotation": {"number": 64, "value": 127}, "group": "control_change"}, {"time": 3115, "annotation": {"number": 64, "value": 0}, "group": "control_change"}, {"time": 3120, "annotation": {"number": 64, "value": 127}, "group": "control_change"}, {"time": 3137, "annotation": {"number": 64, "value": 0}, "group": "control_change"}, {"time": 3141, "annotation": {"number": 64, "value": 127}, "group": "control_change"}, {"time": 3162, "annotation": {"number": 64, "value": 0}, "group": "control_change"}, {"time": 3213, "annotation": {"number": 64, "value": 127}, "group": "control_change"}, {"time": 3235, "annotation": {"number": 64, "value": 0}, "group": "control_change"}, {"time": 3236, "annotation": {"number": 64, "value": 127}, "group": "control_change"}, {"time": 3307, "annotation": {"number": 64, "value": 0}, "group": "control_change"}, {"time": 3309, "annotation": {"number": 64, "value": 127}, "group": "control_change"}, {"time": 3355, "annotation": {"number": 64, "value": 0}, "group": "control_change"}, {"time": 3357, "annotation": {"number": 64, "value": 127}, "group": "control_change"}, {"time": 3402, "annotation": {"number": 64, "value": 0}, "group": "control_change"}, {"time": 3405, "annotation": {"number": 64, "value": 127}, "group": "control_change"}, {"time": 3451, "annotation": {"number": 64, "value": 0}, "group": "control_change"}, {"time": 3453, "annotation": {"number": 64, "value": 127}, "group": "control_change"}, {"time": 3474, "annotation": {"number": 64, "value": 0}, "group": "control_change"}, {"time": 3477, "annotation": {"number": 64, "value": 127}, "group": "control_change"}, {"time": 3499, "annotation": {"number": 64, "value": 0}, "group": "control_change"}, {"time": 3501, "annotation": {"number": 64, "value": 127}, "group": "control_change"}, {"time": 3546, "annotation": {"number": 64, "value": 0}, "group": "control_change"}, {"time": 3549, "annotation": {"number": 64, "value": 127}, "group": "control_change"}, {"time": 3595, "annotation": {"number": 64, "value": 0}, "group": "control_change"}, {"time": 3598, "annotation": {"number": 64, "value": 127}, "group": "control_change"}, {"time": 3619, "annotation": {"number": 64, "value": 0}, "group": "control_change"}, {"time": 3622, "annotation": {"number": 64, "value": 127}, "group": "control_change"}, {"time": 3642, "annotation": {"number": 64, "value": 0}, "group": "control_change"}, {"time": 3645, "annotation": {"number": 64, "value": 127}, "group": "control_change"}, {"time": 3690, "annotation": {"number": 64, "value": 0}, "group": "control_change"}, {"time": 3693, "annotation": {"number": 64, "value": 127}, "group": "control_change"}, {"time": 3715, "annotation": {"number": 64, "value": 0}, "group": "control_change"}, {"time": 3715, "annotation": {"number": 64, "value": 127}, "group": "control_change"}, {"time": 3738, "annotation": {"number": 64, "value": 0}, "group": "control_change"}, {"time": 3741, "annotation": {"number": 64, "value": 127}, "group": "control_change"}, {"time": 3787, "annotation": {"number": 64, "value": 0}, "group": "control_change"}, {"time": 3789, "annotation": {"number": 64, "value": 127}, "group": "control_change"}, {"time": 3835, "annotation": {"number": 64, "value": 0}, "group": "control_change"}, {"time": 3837, "annotation": {"number": 64, "value": 127}, "group": "control_change"}, {"time": 3838, "annotation": {"number": 64, "value": 127}, "group": "control_change"}, {"time": 3860, "annotation": {"number": 64, "value": 0}, "group": "control_change"}, {"time": 3861, "annotation": {"number": 64, "value": 127}, "group": "control_change"}, {"time": 3884, "annotation": {"number": 64, "value": 0}, "group": "control_change"}, {"time": 3886, "annotation": {"number": 64, "value": 127}, "group": "control_change"}, {"time": 3906, "annotation": {"number": 64, "value": 0}, "group": "control_change"}, {"time": 3908, "annotation": {"number": 64, "value": 127}, "group": "control_change"}, {"time": 3930, "annotation": {"number": 64, "value": 0}, "group": "control_change"}, {"time": 3933, "annotation": {"number": 64, "value": 127}, "group": "control_change"}, {"time": 3954, "annotation": {"number": 64, "value": 0}, "group": "control_change"}, {"time": 3958, "annotation": {"number": 64, "value": 127}, "group": "control_change"}, {"time": 3977, "annotation": {"number": 64, "value": 0}, "group": "control_change"}, {"time": 3982, "annotation": {"number": 64, "value": 127}, "group": "control_change"}, {"time": 4002, "annotation": {"number": 64, "value": 0}, "group": "control_change"}, {"time": 4005, "annotation": {"number": 64, "value": 127}, "group": "control_change"}, {"time": 4026, "annotation": {"number": 64, "value": 0}, "group": "control_change"}, {"time": 4029, "annotation": {"number": 64, "value": 127}, "group": "control_change"}, {"time": 4051, "annotation": {"number": 64, "value": 0}, "group": "control_change"}, {"time": 4053, "annotation": {"number": 64, "value": 127}, "group": "control_change"}, {"time": 4074, "annotation": {"number": 64, "value": 0}, "group": "control_change"}, {"time": 4077, "annotation": {"number": 64, "value": 127}, "group": "control_change"}, {"time": 4085, "annotation": {"number": 64, "value": 0}, "group": "control_change"}, {"time": 4089, "annotation": {"number": 64, "value": 127}, "group": "control_change"}, {"time": 4099, "annotation": {"number": 64, "value": 0}, "group": "control_change"}, {"time": 4100, "annotation": {"number": 64, "value": 127}, "group": "control_change"}, {"time": 4122, "annotation": {"number": 64, "value": 0}, "group": "control_change"}, {"time": 4125, "annotation": {"number": 64, "value": 127}, "group": "control_change"}, {"time": 4170, "annotation": {"number": 64, "value": 0}, "group": "control_change"}, {"time": 4173, "annotation": {"number": 64, "value": 127}, "group": "control_change"}, {"time": 4182, "annotation": {"number": 64, "value": 0}, "group": "control_change"}, {"time": 4185, "annotation": {"number": 64, "value": 127}, "group": "control_change"}, {"time": 4194, "annotation": {"number": 64, "value": 0}, "group": "control_change"}, {"time": 4197, "annotation": {"number": 64, "value": 127}, "group": "control_change"}, {"time": 4217, "annotation": {"number": 64, "value": 0}, "group": "control_change"}, {"time": 4221, "annotation": {"number": 64, "value": 127}, "group": "control_change"}, {"time": 4242, "annotation": {"number": 64, "value": 0}, "group": "control_change"}, {"time": 4245, "annotation": {"number": 64, "value": 127}, "group": "control_change"}, {"time": 4265, "annotation": {"number": 64, "value": 0}, "group": "control_change"}, {"time": 4269, "annotation": {"number": 64, "value": 127}, "group": "control_change"}, {"time": 4289, "annotation": {"number": 64, "value": 0}, "group": "control_change"}, {"time": 4293, "annotation": {"number": 64, "value": 127}, "group": "control_change"}, {"time": 4314, "annotation": {"number": 64, "value": 0}, "group": "control_change"}, {"time": 4317, "annotation": {"number": 64, "value": 127}, "group": "control_change"}, {"time": 4338, "annotation": {"number": 64, "value": 0}, "group": "control_change"}, {"time": 4342, "annotation": {"number": 64, "value": 127}, "group": "control_change"}, {"time": 4363, "annotation": {"number": 64, "value": 0}, "group": "control_change"}, {"time": 4374, "annotation": {"number": 64, "value": 127}, "group": "control_change"}, {"time": 4387, "annotation": {"number": 64, "value": 0}, "group": "control_change"}, {"time": 4389, "annotation": {"number": 64, "value": 127}, "group": "control_change"}, {"time": 4411, "annotation": {"number": 64, "value": 0}, "group": "control_change"}, {"time": 4420, "annotation": {"number": 64, "value": 127}, "group": "control_change"}, {"time": 4437, "annotation": {"number": 64, "value": 0}, "group": "control_change"}, {"time": 4445, "annotation": {"number": 64, "value": 127}, "group": "control_change"}, {"time": 4460, "annotation": {"number": 64, "value": 0}, "group": "control_change"}, {"time": 4473, "annotation": {"number": 64, "value": 127}, "group": "control_change"}, {"time": 4485, "annotation": {"number": 64, "value": 0}, "group": "control_change"}, {"time": 4498, "annotation": {"number": 64, "value": 127}, "group": "control_change"}, {"time": 4507, "annotation": {"number": 64, "value": 0}, "group": "control_change"}, {"time": 4515, "annotation": {"number": 64, "value": 127}, "group": "control_change"}, {"time": 4583, "annotation": {"number": 64, "value": 0}, "group": "control_change"}, {"time": 4588, "annotation": {"number": 64, "value": 127}, "group": "control_change"}, {"time": 4600, "annotation": {"number": 64, "value": 0}, "group": "control_change"}, {"time": 4601, "annotation": {"number": 64, "value": 127}, "group": "control_change"}, {"time": 4603, "annotation": {"number": 64, "value": 0}, "group": "control_change"}, {"time": 4604, "annotation": {"number": 64, "value": 127}, "group": "control_change"}, {"time": 4605, "annotation": {"number": 64, "value": 0}, "group": "control_change"}, {"time": 4606, "annotation": {"number": 64, "value": 127}, "group": "control_change"}, {"time": 4609, "annotation": {"number": 64, "value": 0}, "group": "control_change"}]}]}