{"metadata": {"schema_version": "0.2", "title": "None", "source_filename": "064.mid", "source_format": "midi"}, "resolution": 12, "tempos": [{"time": 0, "qpm": 60.0}, {"time": 648, "qpm": 62.99999685000016}], "key_signatures": [{"time": 0, "root": 0, "mode": "major"}], "time_signatures": [{"time": 0, "numerator": 4, "denominator": 4}, {"time": 0, "numerator": 1, "denominator": 4}], "tracks": [{"program": 4, "is_drum": false, "name": "MELODY", "notes": [{"time": 225, "pitch": 77, "duration": 11, "velocity": 127}, {"time": 237, "pitch": 77, "duration": 7, "velocity": 112}, {"time": 246, "pitch": 75, "duration": 3, "velocity": 117}, {"time": 249, "pitch": 70, "duration": 17, "velocity": 112}, {"time": 273, "pitch": 75, "duration": 10, "velocity": 127}, {"time": 285, "pitch": 75, "duration": 6, "velocity": 127}, {"time": 291, "pitch": 72, "duration": 6, "velocity": 102}, {"time": 297, "pitch": 77, "duration": 16, "velocity": 112}, {"time": 321, "pitch": 77, "duration": 8, "velocity": 122}, {"time": 333, "pitch": 77, "duration": 6, "velocity": 127}, {"time": 339, "pitch": 75, "duration": 5, "velocity": 112}, {"time": 345, "pitch": 70, "duration": 20, "velocity": 122}, {"time": 369, "pitch": 68, "duration": 7, "velocity": 127}, {"time": 375, "pitch": 75, "duration": 6, "velocity": 112}, {"time": 381, "pitch": 72, "duration": 7, "velocity": 117}, {"time": 387, "pitch": 68, "duration": 6, "velocity": 93}, {"time": 393, "pitch": 65, "duration": 34, "velocity": 100}, {"time": 417, "pitch": 65, "duration": 10, "velocity": 107}, {"time": 426, "pitch": 70, "duration": 8, "velocity": 127}, {"time": 435, "pitch": 70, "duration": 5, "velocity": 122}, {"time": 441, "pitch": 72, "duration": 7, "velocity": 112}, {"time": 447, "pitch": 75, "duration": 4, "velocity": 100}, {"time": 450, "pitch": 72, "duration": 10, "velocity": 102}, {"time": 465, "pitch": 77, "duration": 7, "velocity": 127}, {"time": 474, "pitch": 75, "duration": 3, "velocity": 122}, {"time": 477, "pitch": 72, "duration": 6, "velocity": 107}, {"time": 483, "pitch": 77, "duration": 5, "velocity": 117}, {"time": 489, "pitch": 75, "duration": 10, "velocity": 127}, {"time": 513, "pitch": 72, "duration": 7, "velocity": 122}, {"time": 522, "pitch": 72, "duration": 2, "velocity": 102}, {"time": 525, "pitch": 72, "duration": 4, "velocity": 112}, {"time": 532, "pitch": 72, "duration": 2, "velocity": 107}, {"time": 534, "pitch": 75, "duration": 4, "velocity": 122}, {"time": 537, "pitch": 77, "duration": 4, "velocity": 95}, {"time": 543, "pitch": 70, "duration": 5, "velocity": 117}, {"time": 549, "pitch": 68, "duration": 8, "velocity": 127}, {"time": 561, "pitch": 70, "duration": 6, "velocity": 127}, {"time": 567, "pitch": 68, "duration": 3, "velocity": 112}, {"time": 570, "pitch": 70, "duration": 4, "velocity": 112}, {"time": 573, "pitch": 68, "duration": 4, "velocity": 95}, {"time": 579, "pitch": 63, "duration": 5, "velocity": 117}, {"time": 585, "pitch": 65, "duration": 14, "velocity": 102}, {"time": 603, "pitch": 79, "duration": 3, "velocity": 127}, {"time": 606, "pitch": 77, "duration": 2, "velocity": 112}, {"time": 609, "pitch": 77, "duration": 38, "velocity": 127}, {"time": 657, "pitch": 77, "duration": 8, "velocity": 127}, {"time": 666, "pitch": 77, "duration": 8, "velocity": 122}, {"time": 675, "pitch": 75, "duration": 5, "velocity": 127}, {"time": 681, "pitch": 70, "duration": 18, "velocity": 127}, {"time": 705, "pitch": 75, "duration": 8, "velocity": 127}, {"time": 714, "pitch": 75, "duration": 8, "velocity": 127}, {"time": 723, "pitch": 72, "duration": 3, "velocity": 117}, {"time": 726, "pitch": 75, "duration": 3, "velocity": 112}, {"time": 729, "pitch": 77, "duration": 8, "velocity": 117}, {"time": 753, "pitch": 77, "duration": 7, "velocity": 127}, {"time": 762, "pitch": 77, "duration": 9, "velocity": 102}, {"time": 771, "pitch": 75, "duration": 6, "velocity": 127}, {"time": 777, "pitch": 70, "duration": 18, "velocity": 127}, {"time": 801, "pitch": 68, "duration": 6, "velocity": 127}, {"time": 807, "pitch": 75, "duration": 5, "velocity": 112}, {"time": 813, "pitch": 72, "duration": 6, "velocity": 117}, {"time": 819, "pitch": 68, "duration": 6, "velocity": 107}, {"time": 825, "pitch": 65, "duration": 18, "velocity": 102}, {"time": 849, "pitch": 65, "duration": 10, "velocity": 117}, {"time": 858, "pitch": 70, "duration": 8, "velocity": 127}, {"time": 867, "pitch": 68, "duration": 4, "velocity": 127}, {"time": 870, "pitch": 70, "duration": 3, "velocity": 107}, {"time": 873, "pitch": 70, "duration": 1, "velocity": 61}, {"time": 873, "pitch": 72, "duration": 4, "velocity": 107}, {"time": 879, "pitch": 75, "duration": 5, "velocity": 127}, {"time": 885, "pitch": 72, "duration": 9, "velocity": 117}, {"time": 897, "pitch": 77, "duration": 7, "velocity": 127}, {"time": 906, "pitch": 77, "duration": 3, "velocity": 102}, {"time": 909, "pitch": 72, "duration": 7, "velocity": 122}, {"time": 915, "pitch": 77, "duration": 6, "velocity": 107}, {"time": 921, "pitch": 75, "duration": 15, "velocity": 127}, {"time": 945, "pitch": 72, "duration": 7, "velocity": 117}, {"time": 954, "pitch": 72, "duration": 2, "velocity": 100}, {"time": 957, "pitch": 72, "duration": 6, "velocity": 107}, {"time": 963, "pitch": 75, "duration": 5, "velocity": 127}, {"time": 969, "pitch": 77, "duration": 6, "velocity": 127}, {"time": 975, "pitch": 70, "duration": 6, "velocity": 127}, {"time": 981, "pitch": 68, "duration": 9, "velocity": 127}, {"time": 993, "pitch": 70, "duration": 6, "velocity": 127}, {"time": 999, "pitch": 68, "duration": 3, "velocity": 127}, {"time": 1002, "pitch": 70, "duration": 4, "velocity": 117}, {"time": 1005, "pitch": 68, "duration": 4, "velocity": 127}, {"time": 1011, "pitch": 63, "duration": 5, "velocity": 127}, {"time": 1017, "pitch": 65, "duration": 16, "velocity": 127}, {"time": 1041, "pitch": 74, "duration": 2, "velocity": 127}, {"time": 1044, "pitch": 74, "duration": 2, "velocity": 93}, {"time": 1047, "pitch": 74, "duration": 2, "velocity": 72}, {"time": 1050, "pitch": 74, "duration": 1, "velocity": 89}, {"time": 1053, "pitch": 74, "duration": 4, "velocity": 122}, {"time": 1059, "pitch": 70, "duration": 6, "velocity": 117}, {"time": 1065, "pitch": 72, "duration": 15, "velocity": 117}, {"time": 1089, "pitch": 77, "duration": 2, "velocity": 127}, {"time": 1092, "pitch": 77, "duration": 2, "velocity": 93}, {"time": 1095, "pitch": 77, "duration": 2, "velocity": 117}, {"time": 1098, "pitch": 77, "duration": 2, "velocity": 102}, {"time": 1101, "pitch": 77, "duration": 3, "velocity": 122}, {"time": 1107, "pitch": 74, "duration": 4, "velocity": 127}, {"time": 1113, "pitch": 75, "duration": 3, "velocity": 127}, {"time": 1116, "pitch": 74, "duration": 3, "velocity": 95}, {"time": 1119, "pitch": 72, "duration": 8, "velocity": 102}, {"time": 1137, "pitch": 75, "duration": 7, "velocity": 127}, {"time": 1146, "pitch": 75, "duration": 2, "velocity": 117}, {"time": 1149, "pitch": 75, "duration": 5, "velocity": 127}, {"time": 1155, "pitch": 74, "duration": 6, "velocity": 127}, {"time": 1161, "pitch": 72, "duration": 6, "velocity": 127}, {"time": 1167, "pitch": 74, "duration": 7, "velocity": 99}, {"time": 1173, "pitch": 70, "duration": 8, "velocity": 112}, {"time": 1185, "pitch": 67, "duration": 3, "velocity": 127}, {"time": 1188, "pitch": 70, "duration": 4, "velocity": 100}, {"time": 1191, "pitch": 67, "duration": 4, "velocity": 99}, {"time": 1194, "pitch": 70, "duration": 3, "velocity": 100}, {"time": 1197, "pitch": 67, "duration": 4, "velocity": 107}, {"time": 1203, "pitch": 63, "duration": 5, "velocity": 122}, {"time": 1209, "pitch": 65, "duration": 17, "velocity": 117}, {"time": 1233, "pitch": 79, "duration": 2, "velocity": 127}, {"time": 1236, "pitch": 79, "duration": 2, "velocity": 102}, {"time": 1239, "pitch": 79, "duration": 2, "velocity": 107}, {"time": 1242, "pitch": 79, "duration": 1, "velocity": 92}, {"time": 1245, "pitch": 79, "duration": 5, "velocity": 112}, {"time": 1251, "pitch": 75, "duration": 3, "velocity": 112}, {"time": 1254, "pitch": 77, "duration": 14, "velocity": 127}, {"time": 1281, "pitch": 77, "duration": 2, "velocity": 117}, {"time": 1284, "pitch": 77, "duration": 2, "velocity": 93}, {"time": 1287, "pitch": 77, "duration": 2, "velocity": 107}, {"time": 1290, "pitch": 77, "duration": 2, "velocity": 96}, {"time": 1293, "pitch": 77, "duration": 4, "velocity": 99}, {"time": 1299, "pitch": 72, "duration": 3, "velocity": 100}, {"time": 1302, "pitch": 70, "duration": 16, "velocity": 122}, {"time": 1329, "pitch": 80, "duration": 8, "velocity": 127}, {"time": 1338, "pitch": 80, "duration": 2, "velocity": 97}, {"time": 1341, "pitch": 80, "duration": 6, "velocity": 127}, {"time": 1347, "pitch": 79, "duration": 5, "velocity": 127}, {"time": 1353, "pitch": 77, "duration": 4, "velocity": 127}, {"time": 1359, "pitch": 75, "duration": 6, "velocity": 127}, {"time": 1365, "pitch": 72, "duration": 8, "velocity": 107}, {"time": 1371, "pitch": 70, "duration": 3, "velocity": 127}, {"time": 1377, "pitch": 67, "duration": 5, "velocity": 107}, {"time": 1383, "pitch": 75, "duration": 1, "velocity": 127}, {"time": 1386, "pitch": 75, "duration": 3, "velocity": 117}, {"time": 1389, "pitch": 72, "duration": 4, "velocity": 127}, {"time": 1395, "pitch": 70, "duration": 5, "velocity": 127}, {"time": 1401, "pitch": 67, "duration": 4, "velocity": 107}, {"time": 1404, "pitch": 70, "duration": 3, "velocity": 95}, {"time": 1407, "pitch": 65, "duration": 11, "velocity": 100}, {"time": 1425, "pitch": 79, "duration": 2, "velocity": 122}, {"time": 1428, "pitch": 79, "duration": 2, "velocity": 95}, {"time": 1431, "pitch": 79, "duration": 2, "velocity": 96}, {"time": 1434, "pitch": 79, "duration": 1, "velocity": 92}, {"time": 1437, "pitch": 79, "duration": 4, "velocity": 122}, {"time": 1443, "pitch": 75, "duration": 3, "velocity": 122}, {"time": 1446, "pitch": 77, "duration": 6, "velocity": 112}, {"time": 1473, "pitch": 77, "duration": 2, "velocity": 122}, {"time": 1476, "pitch": 77, "duration": 1, "velocity": 96}, {"time": 1479, "pitch": 77, "duration": 2, "velocity": 99}, {"time": 1482, "pitch": 77, "duration": 1, "velocity": 102}, {"time": 1485, "pitch": 77, "duration": 3, "velocity": 117}, {"time": 1491, "pitch": 72, "duration": 3, "velocity": 122}, {"time": 1494, "pitch": 70, "duration": 7, "velocity": 122}, {"time": 1521, "pitch": 80, "duration": 7, "velocity": 127}, {"time": 1530, "pitch": 80, "duration": 2, "velocity": 117}, {"time": 1533, "pitch": 80, "duration": 3, "velocity": 127}, {"time": 1539, "pitch": 79, "duration": 6, "velocity": 127}, {"time": 1545, "pitch": 77, "duration": 6, "velocity": 112}, {"time": 1551, "pitch": 77, "duration": 3, "velocity": 95}, {"time": 1554, "pitch": 75, "duration": 3, "velocity": 102}, {"time": 1557, "pitch": 72, "duration": 7, "velocity": 107}, {"time": 1563, "pitch": 70, "duration": 3, "velocity": 122}, {"time": 1569, "pitch": 67, "duration": 6, "velocity": 96}, {"time": 1575, "pitch": 75, "duration": 7, "velocity": 127}, {"time": 1581, "pitch": 72, "duration": 7, "velocity": 117}, {"time": 1587, "pitch": 70, "duration": 6, "velocity": 93}, {"time": 1593, "pitch": 65, "duration": 18, "velocity": 102}, {"time": 1611, "pitch": 75, "duration": 6, "velocity": 127}, {"time": 1617, "pitch": 77, "duration": 48, "velocity": 127}, {"time": 1905, "pitch": 79, "duration": 2, "velocity": 127}, {"time": 1908, "pitch": 79, "duration": 2, "velocity": 102}, {"time": 1911, "pitch": 79, "duration": 2, "velocity": 107}, {"time": 1914, "pitch": 79, "duration": 1, "velocity": 92}, {"time": 1917, "pitch": 79, "duration": 5, "velocity": 112}, {"time": 1923, "pitch": 75, "duration": 3, "velocity": 112}, {"time": 1926, "pitch": 77, "duration": 14, "velocity": 127}, {"time": 1953, "pitch": 77, "duration": 2, "velocity": 117}, {"time": 1956, "pitch": 77, "duration": 2, "velocity": 93}, {"time": 1959, "pitch": 77, "duration": 2, "velocity": 107}, {"time": 1962, "pitch": 77, "duration": 2, "velocity": 96}, {"time": 1965, "pitch": 77, "duration": 4, "velocity": 99}, {"time": 1971, "pitch": 72, "duration": 3, "velocity": 100}, {"time": 1974, "pitch": 70, "duration": 16, "velocity": 122}, {"time": 2001, "pitch": 80, "duration": 8, "velocity": 127}, {"time": 2010, "pitch": 80, "duration": 2, "velocity": 97}, {"time": 2013, "pitch": 80, "duration": 6, "velocity": 127}, {"time": 2019, "pitch": 79, "duration": 5, "velocity": 127}, {"time": 2025, "pitch": 77, "duration": 4, "velocity": 127}, {"time": 2031, "pitch": 75, "duration": 6, "velocity": 127}, {"time": 2037, "pitch": 72, "duration": 8, "velocity": 107}, {"time": 2043, "pitch": 70, "duration": 3, "velocity": 127}, {"time": 2049, "pitch": 67, "duration": 5, "velocity": 107}, {"time": 2055, "pitch": 75, "duration": 1, "velocity": 127}, {"time": 2058, "pitch": 75, "duration": 3, "velocity": 117}, {"time": 2061, "pitch": 72, "duration": 4, "velocity": 127}, {"time": 2067, "pitch": 70, "duration": 5, "velocity": 127}, {"time": 2073, "pitch": 67, "duration": 4, "velocity": 107}, {"time": 2076, "pitch": 70, "duration": 3, "velocity": 95}, {"time": 2079, "pitch": 65, "duration": 11, "velocity": 100}, {"time": 2097, "pitch": 79, "duration": 2, "velocity": 122}, {"time": 2100, "pitch": 79, "duration": 2, "velocity": 95}, {"time": 2103, "pitch": 79, "duration": 2, "velocity": 96}, {"time": 2106, "pitch": 79, "duration": 1, "velocity": 92}, {"time": 2109, "pitch": 79, "duration": 4, "velocity": 122}, {"time": 2115, "pitch": 75, "duration": 3, "velocity": 122}, {"time": 2118, "pitch": 77, "duration": 6, "velocity": 112}, {"time": 2145, "pitch": 77, "duration": 2, "velocity": 122}, {"time": 2148, "pitch": 77, "duration": 1, "velocity": 96}, {"time": 2151, "pitch": 77, "duration": 2, "velocity": 99}, {"time": 2154, "pitch": 77, "duration": 1, "velocity": 102}, {"time": 2157, "pitch": 77, "duration": 3, "velocity": 117}, {"time": 2163, "pitch": 72, "duration": 3, "velocity": 122}, {"time": 2166, "pitch": 70, "duration": 7, "velocity": 122}, {"time": 2193, "pitch": 80, "duration": 7, "velocity": 127}, {"time": 2202, "pitch": 80, "duration": 2, "velocity": 117}, {"time": 2205, "pitch": 80, "duration": 3, "velocity": 127}, {"time": 2211, "pitch": 79, "duration": 6, "velocity": 127}, {"time": 2217, "pitch": 77, "duration": 6, "velocity": 112}, {"time": 2223, "pitch": 77, "duration": 3, "velocity": 95}, {"time": 2226, "pitch": 75, "duration": 3, "velocity": 102}, {"time": 2229, "pitch": 72, "duration": 7, "velocity": 107}, {"time": 2235, "pitch": 70, "duration": 3, "velocity": 122}, {"time": 2241, "pitch": 67, "duration": 6, "velocity": 96}, {"time": 2247, "pitch": 75, "duration": 7, "velocity": 127}, {"time": 2253, "pitch": 72, "duration": 7, "velocity": 117}, {"time": 2259, "pitch": 70, "duration": 6, "velocity": 93}, {"time": 2265, "pitch": 65, "duration": 18, "velocity": 102}, {"time": 2283, "pitch": 75, "duration": 6, "velocity": 127}, {"time": 2289, "pitch": 77, "duration": 144, "velocity": 127}], "annotations": [{"time": 129, "annotation": {"number": 64, "value": 4}, "group": "control_change"}, {"time": 141, "annotation": {"number": 64, "value": 9}, "group": "control_change"}, {"time": 153, "annotation": {"number": 64, "value": 9}, "group": "control_change"}, {"time": 165, "annotation": {"number": 64, "value": 17}, "group": "control_change"}, {"time": 177, "annotation": {"number": 64, "value": 32}, "group": "control_change"}, {"time": 189, "annotation": {"number": 64, "value": 44}, "group": "control_change"}, {"time": 201, "annotation": {"number": 64, "value": 55}, "group": "control_change"}, {"time": 213, "annotation": {"number": 64, "value": 60}, "group": "control_change"}, {"time": 225, "annotation": {"number": 64, "value": 65}, "group": "control_change"}, {"time": 237, "annotation": {"number": 64, "value": 69}, "group": "control_change"}, {"time": 249, "annotation": {"number": 64, "value": 73}, "group": "control_change"}, {"time": 261, "annotation": {"number": 64, "value": 76}, "group": "control_change"}, {"time": 273, "annotation": {"number": 64, "value": 78}, "group": "control_change"}, {"time": 285, "annotation": {"number": 64, "value": 79}, "group": "control_change"}, {"time": 345, "annotation": {"number": 64, "value": 80}, "group": "control_change"}, {"time": 393, "annotation": {"number": 64, "value": 79}, "group": "control_change"}, {"time": 417, "annotation": {"number": 64, "value": 80}, "group": "control_change"}, {"time": 453, "annotation": {"number": 64, "value": 81}, "group": "control_change"}, {"time": 465, "annotation": {"number": 64, "value": 83}, "group": "control_change"}, {"time": 477, "annotation": {"number": 64, "value": 84}, "group": "control_change"}, {"time": 489, "annotation": {"number": 64, "value": 86}, "group": "control_change"}, {"time": 501, "annotation": {"number": 64, "value": 88}, "group": "control_change"}, {"time": 513, "annotation": {"number": 64, "value": 89}, "group": "control_change"}, {"time": 525, "annotation": {"number": 64, "value": 90}, "group": "control_change"}, {"time": 585, "annotation": {"number": 64, "value": 89}, "group": "control_change"}, {"time": 597, "annotation": {"number": 64, "value": 88}, "group": "control_change"}, {"time": 609, "annotation": {"number": 64, "value": 86}, "group": "control_change"}, {"time": 621, "annotation": {"number": 64, "value": 85}, "group": "control_change"}, {"time": 633, "annotation": {"number": 64, "value": 83}, "group": "control_change"}, {"time": 645, "annotation": {"number": 64, "value": 80}, "group": "control_change"}, {"time": 657, "annotation": {"number": 64, "value": 79}, "group": "control_change"}, {"time": 669, "annotation": {"number": 64, "value": 78}, "group": "control_change"}, {"time": 681, "annotation": {"number": 64, "value": 75}, "group": "control_change"}, {"time": 705, "annotation": {"number": 64, "value": 74}, "group": "control_change"}, {"time": 729, "annotation": {"number": 64, "value": 73}, "group": "control_change"}, {"time": 741, "annotation": {"number": 64, "value": 72}, "group": "control_change"}, {"time": 777, "annotation": {"number": 64, "value": 73}, "group": "control_change"}, {"time": 789, "annotation": {"number": 64, "value": 74}, "group": "control_change"}, {"time": 801, "annotation": {"number": 64, "value": 75}, "group": "control_change"}, {"time": 813, "annotation": {"number": 64, "value": 76}, "group": "control_change"}, {"time": 825, "annotation": {"number": 64, "value": 78}, "group": "control_change"}, {"time": 849, "annotation": {"number": 64, "value": 79}, "group": "control_change"}, {"time": 861, "annotation": {"number": 64, "value": 80}, "group": "control_change"}, {"time": 933, "annotation": {"number": 64, "value": 79}, "group": "control_change"}, {"time": 981, "annotation": {"number": 64, "value": 78}, "group": "control_change"}, {"time": 1053, "annotation": {"number": 64, "value": 79}, "group": "control_change"}, {"time": 1173, "annotation": {"number": 64, "value": 80}, "group": "control_change"}, {"time": 1185, "annotation": {"number": 64, "value": 81}, "group": "control_change"}, {"time": 1293, "annotation": {"number": 64, "value": 80}, "group": "control_change"}, {"time": 1317, "annotation": {"number": 64, "value": 79}, "group": "control_change"}, {"time": 1353, "annotation": {"number": 64, "value": 78}, "group": "control_change"}, {"time": 1401, "annotation": {"number": 64, "value": 76}, "group": "control_change"}, {"time": 1449, "annotation": {"number": 64, "value": 75}, "group": "control_change"}, {"time": 1461, "annotation": {"number": 64, "value": 74}, "group": "control_change"}, {"time": 1497, "annotation": {"number": 64, "value": 75}, "group": "control_change"}, {"time": 1521, "annotation": {"number": 64, "value": 43}, "group": "control_change"}, {"time": 1533, "annotation": {"number": 64, "value": 75}, "group": "control_change"}, {"time": 1569, "annotation": {"number": 64, "value": 76}, "group": "control_change"}, {"time": 1641, "annotation": {"number": 64, "value": 77}, "group": "control_change"}, {"time": 1689, "annotation": {"number": 64, "value": 78}, "group": "control_change"}, {"time": 1701, "annotation": {"number": 64, "value": 79}, "group": "control_change"}, {"time": 1713, "annotation": {"number": 64, "value": 80}, "group": "control_change"}, {"time": 1725, "annotation": {"number": 64, "value": 81}, "group": "control_change"}, {"time": 1749, "annotation": {"number": 64, "value": 84}, "group": "control_change"}, {"time": 1761, "annotation": {"number": 64, "value": 85}, "group": "control_change"}, {"time": 1773, "annotation": {"number": 64, "value": 86}, "group": "control_change"}, {"time": 1785, "annotation": {"number": 64, "value": 79}, "group": "control_change"}, {"time": 1833, "annotation": {"number": 64, "value": 78}, "group": "control_change"}, {"time": 1917, "annotation": {"number": 64, "value": 79}, "group": "control_change"}, {"time": 1965, "annotation": {"number": 64, "value": 80}, "group": "control_change"}, {"time": 1977, "annotation": {"number": 64, "value": 81}, "group": "control_change"}, {"time": 2025, "annotation": {"number": 64, "value": 83}, "group": "control_change"}, {"time": 2049, "annotation": {"number": 64, "value": 84}, "group": "control_change"}, {"time": 2073, "annotation": {"number": 64, "value": 85}, "group": "control_change"}, {"time": 2085, "annotation": {"number": 64, "value": 86}, "group": "control_change"}, {"time": 2097, "annotation": {"number": 64, "value": 88}, "group": "control_change"}, {"time": 2121, "annotation": {"number": 64, "value": 89}, "group": "control_change"}, {"time": 2157, "annotation": {"number": 64, "value": 90}, "group": "control_change"}, {"time": 2229, "annotation": {"number": 64, "value": 89}, "group": "control_change"}, {"time": 2241, "annotation": {"number": 64, "value": 88}, "group": "control_change"}, {"time": 2265, "annotation": {"number": 64, "value": 95}, "group": "control_change"}, {"time": 2277, "annotation": {"number": 64, "value": 94}, "group": "control_change"}, {"time": 2289, "annotation": {"number": 64, "value": 91}, "group": "control_change"}, {"time": 2313, "annotation": {"number": 64, "value": 90}, "group": "control_change"}, {"time": 2325, "annotation": {"number": 64, "value": 88}, "group": "control_change"}, {"time": 2337, "annotation": {"number": 64, "value": 86}, "group": "control_change"}, {"time": 2361, "annotation": {"number": 64, "value": 85}, "group": "control_change"}, {"time": 2373, "annotation": {"number": 64, "value": 84}, "group": "control_change"}, {"time": 2385, "annotation": {"number": 64, "value": 83}, "group": "control_change"}, {"time": 2397, "annotation": {"number": 64, "value": 81}, "group": "control_change"}]}, {"program": 0, "is_drum": false, "name": "PIANO", "notes": [{"time": 33, "pitch": 41, "duration": 4, "velocity": 97}, {"time": 33, "pitch": 53, "duration": 5, "velocity": 100}, {"time": 33, "pitch": 60, "duration": 5, "velocity": 97}, {"time": 48, "pitch": 41, "duration": 4, "velocity": 112}, {"time": 48, "pitch": 53, "duration": 4, "velocity": 112}, {"time": 48, "pitch": 60, "duration": 4, "velocity": 117}, {"time": 48, "pitch": 60, "duration": 4, "velocity": 122}, {"time": 69, "pitch": 36, "duration": 3, "velocity": 107}, {"time": 69, "pitch": 48, "duration": 4, "velocity": 112}, {"time": 72, "pitch": 39, "duration": 4, "velocity": 127}, {"time": 72, "pitch": 51, "duration": 4, "velocity": 122}, {"time": 78, "pitch": 41, "duration": 4, "velocity": 127}, {"time": 78, "pitch": 53, "duration": 4, "velocity": 112}, {"time": 87, "pitch": 41, "duration": 5, "velocity": 100}, {"time": 87, "pitch": 53, "duration": 4, "velocity": 95}, {"time": 87, "pitch": 60, "duration": 4, "velocity": 97}, {"time": 111, "pitch": 34, "duration": 3, "velocity": 112}, {"time": 111, "pitch": 46, "duration": 3, "velocity": 112}, {"time": 117, "pitch": 34, "duration": 3, "velocity": 92}, {"time": 117, "pitch": 46, "duration": 3, "velocity": 89}, {"time": 123, "pitch": 34, "duration": 3, "velocity": 97}, {"time": 123, "pitch": 46, "duration": 3, "velocity": 97}, {"time": 129, "pitch": 24, "duration": 4, "velocity": 121}, {"time": 132, "pitch": 29, "duration": 3, "velocity": 75}, {"time": 135, "pitch": 35, "duration": 2, "velocity": 95}, {"time": 138, "pitch": 33, "duration": 3, "velocity": 83}, {"time": 141, "pitch": 38, "duration": 3, "velocity": 87}, {"time": 144, "pitch": 35, "duration": 3, "velocity": 87}, {"time": 147, "pitch": 40, "duration": 3, "velocity": 100}, {"time": 150, "pitch": 39, "duration": 3, "velocity": 90}, {"time": 153, "pitch": 44, "duration": 3, "velocity": 100}, {"time": 156, "pitch": 41, "duration": 2, "velocity": 87}, {"time": 159, "pitch": 47, "duration": 3, "velocity": 108}, {"time": 162, "pitch": 44, "duration": 3, "velocity": 108}, {"time": 165, "pitch": 50, "duration": 3, "velocity": 108}, {"time": 168, "pitch": 47, "duration": 3, "velocity": 87}, {"time": 171, "pitch": 50, "duration": 3, "velocity": 93}, {"time": 174, "pitch": 47, "duration": 2, "velocity": 93}, {"time": 177, "pitch": 52, "duration": 10, "velocity": 114}, {"time": 225, "pitch": 41, "duration": 18, "velocity": 90}, {"time": 228, "pitch": 53, "duration": 11, "velocity": 69}, {"time": 231, "pitch": 60, "duration": 13, "velocity": 57}, {"time": 234, "pitch": 68, "duration": 16, "velocity": 117}, {"time": 240, "pitch": 53, "duration": 3, "velocity": 42}, {"time": 243, "pitch": 65, "duration": 6, "velocity": 95}, {"time": 246, "pitch": 60, "duration": 3, "velocity": 69}, {"time": 249, "pitch": 46, "duration": 19, "velocity": 92}, {"time": 252, "pitch": 58, "duration": 9, "velocity": 58}, {"time": 255, "pitch": 62, "duration": 4, "velocity": 82}, {"time": 258, "pitch": 65, "duration": 15, "velocity": 96}, {"time": 264, "pitch": 58, "duration": 3, "velocity": 36}, {"time": 267, "pitch": 62, "duration": 6, "velocity": 83}, {"time": 273, "pitch": 48, "duration": 8, "velocity": 75}, {"time": 276, "pitch": 55, "duration": 5, "velocity": 63}, {"time": 279, "pitch": 60, "duration": 13, "velocity": 88}, {"time": 282, "pitch": 67, "duration": 15, "velocity": 97}, {"time": 291, "pitch": 63, "duration": 7, "velocity": 96}, {"time": 294, "pitch": 60, "duration": 4, "velocity": 57}, {"time": 297, "pitch": 41, "duration": 21, "velocity": 72}, {"time": 300, "pitch": 48, "duration": 10, "velocity": 60}, {"time": 303, "pitch": 53, "duration": 5, "velocity": 60}, {"time": 306, "pitch": 60, "duration": 16, "velocity": 99}, {"time": 309, "pitch": 56, "duration": 13, "velocity": 38}, {"time": 312, "pitch": 48, "duration": 10, "velocity": 53}, {"time": 315, "pitch": 55, "duration": 7, "velocity": 64}, {"time": 321, "pitch": 41, "duration": 18, "velocity": 93}, {"time": 324, "pitch": 48, "duration": 8, "velocity": 61}, {"time": 327, "pitch": 53, "duration": 11, "velocity": 85}, {"time": 330, "pitch": 60, "duration": 15, "velocity": 100}, {"time": 336, "pitch": 48, "duration": 4, "velocity": 52}, {"time": 339, "pitch": 56, "duration": 5, "velocity": 92}, {"time": 345, "pitch": 46, "duration": 17, "velocity": 85}, {"time": 348, "pitch": 58, "duration": 9, "velocity": 85}, {"time": 351, "pitch": 62, "duration": 4, "velocity": 88}, {"time": 354, "pitch": 65, "duration": 12, "velocity": 100}, {"time": 360, "pitch": 58, "duration": 3, "velocity": 52}, {"time": 363, "pitch": 62, "duration": 7, "velocity": 82}, {"time": 369, "pitch": 48, "duration": 19, "velocity": 70}, {"time": 372, "pitch": 55, "duration": 11, "velocity": 58}, {"time": 375, "pitch": 60, "duration": 11, "velocity": 82}, {"time": 378, "pitch": 67, "duration": 15, "velocity": 99}, {"time": 384, "pitch": 55, "duration": 3, "velocity": 56}, {"time": 387, "pitch": 63, "duration": 7, "velocity": 90}, {"time": 393, "pitch": 41, "duration": 25, "velocity": 77}, {"time": 396, "pitch": 48, "duration": 9, "velocity": 54}, {"time": 399, "pitch": 53, "duration": 10, "velocity": 72}, {"time": 402, "pitch": 60, "duration": 15, "velocity": 117}, {"time": 408, "pitch": 48, "duration": 7, "velocity": 58}, {"time": 411, "pitch": 56, "duration": 7, "velocity": 100}, {"time": 414, "pitch": 53, "duration": 4, "velocity": 79}, {"time": 417, "pitch": 46, "duration": 22, "velocity": 117}, {"time": 420, "pitch": 58, "duration": 9, "velocity": 58}, {"time": 423, "pitch": 62, "duration": 4, "velocity": 82}, {"time": 426, "pitch": 65, "duration": 10, "velocity": 97}, {"time": 432, "pitch": 58, "duration": 10, "velocity": 39}, {"time": 435, "pitch": 62, "duration": 9, "velocity": 81}, {"time": 438, "pitch": 65, "duration": 9, "velocity": 78}, {"time": 441, "pitch": 46, "duration": 17, "velocity": 58}, {"time": 444, "pitch": 58, "duration": 9, "velocity": 69}, {"time": 447, "pitch": 62, "duration": 4, "velocity": 78}, {"time": 450, "pitch": 65, "duration": 15, "velocity": 100}, {"time": 459, "pitch": 62, "duration": 7, "velocity": 79}, {"time": 465, "pitch": 41, "duration": 23, "velocity": 77}, {"time": 468, "pitch": 48, "duration": 9, "velocity": 58}, {"time": 471, "pitch": 53, "duration": 11, "velocity": 73}, {"time": 474, "pitch": 60, "duration": 21, "velocity": 117}, {"time": 480, "pitch": 48, "duration": 10, "velocity": 35}, {"time": 483, "pitch": 56, "duration": 13, "velocity": 59}, {"time": 486, "pitch": 53, "duration": 7, "velocity": 50}, {"time": 489, "pitch": 41, "duration": 17, "velocity": 72}, {"time": 492, "pitch": 48, "duration": 10, "velocity": 43}, {"time": 495, "pitch": 53, "duration": 9, "velocity": 71}, {"time": 498, "pitch": 60, "duration": 15, "velocity": 107}, {"time": 504, "pitch": 48, "duration": 3, "velocity": 59}, {"time": 507, "pitch": 53, "duration": 6, "velocity": 85}, {"time": 513, "pitch": 44, "duration": 23, "velocity": 96}, {"time": 516, "pitch": 56, "duration": 10, "velocity": 88}, {"time": 519, "pitch": 60, "duration": 13, "velocity": 85}, {"time": 522, "pitch": 68, "duration": 22, "velocity": 112}, {"time": 528, "pitch": 56, "duration": 10, "velocity": 48}, {"time": 531, "pitch": 63, "duration": 13, "velocity": 86}, {"time": 534, "pitch": 60, "duration": 7, "velocity": 66}, {"time": 537, "pitch": 44, "duration": 17, "velocity": 60}, {"time": 540, "pitch": 56, "duration": 10, "velocity": 92}, {"time": 543, "pitch": 60, "duration": 10, "velocity": 66}, {"time": 546, "pitch": 68, "duration": 14, "velocity": 122}, {"time": 552, "pitch": 56, "duration": 3, "velocity": 56}, {"time": 555, "pitch": 63, "duration": 6, "velocity": 96}, {"time": 561, "pitch": 46, "duration": 23, "velocity": 99}, {"time": 564, "pitch": 50, "duration": 21, "velocity": 64}, {"time": 567, "pitch": 53, "duration": 6, "velocity": 74}, {"time": 570, "pitch": 65, "duration": 10, "velocity": 102}, {"time": 576, "pitch": 53, "duration": 22, "velocity": 44}, {"time": 579, "pitch": 58, "duration": 5, "velocity": 93}, {"time": 585, "pitch": 46, "duration": 21, "velocity": 96}, {"time": 585, "pitch": 58, "duration": 11, "velocity": 77}, {"time": 585, "pitch": 62, "duration": 11, "velocity": 85}, {"time": 585, "pitch": 65, "duration": 11, "velocity": 90}, {"time": 597, "pitch": 58, "duration": 1, "velocity": 102}, {"time": 597, "pitch": 62, "duration": 12, "velocity": 112}, {"time": 597, "pitch": 65, "duration": 12, "velocity": 102}, {"time": 600, "pitch": 53, "duration": 5, "velocity": 59}, {"time": 603, "pitch": 58, "duration": 6, "velocity": 96}, {"time": 609, "pitch": 41, "duration": 23, "velocity": 92}, {"time": 612, "pitch": 48, "duration": 11, "velocity": 69}, {"time": 615, "pitch": 53, "duration": 4, "velocity": 86}, {"time": 618, "pitch": 56, "duration": 10, "velocity": 95}, {"time": 618, "pitch": 60, "duration": 15, "velocity": 99}, {"time": 624, "pitch": 48, "duration": 9, "velocity": 56}, {"time": 627, "pitch": 53, "duration": 6, "velocity": 70}, {"time": 630, "pitch": 56, "duration": 4, "velocity": 74}, {"time": 633, "pitch": 41, "duration": 24, "velocity": 82}, {"time": 636, "pitch": 48, "duration": 21, "velocity": 52}, {"time": 639, "pitch": 53, "duration": 6, "velocity": 76}, {"time": 642, "pitch": 60, "duration": 7, "velocity": 97}, {"time": 642, "pitch": 65, "duration": 8, "velocity": 102}, {"time": 642, "pitch": 68, "duration": 8, "velocity": 117}, {"time": 648, "pitch": 53, "duration": 4, "velocity": 58}, {"time": 651, "pitch": 65, "duration": 6, "velocity": 97}, {"time": 651, "pitch": 68, "duration": 6, "velocity": 112}, {"time": 654, "pitch": 60, "duration": 4, "velocity": 69}, {"time": 657, "pitch": 46, "duration": 18, "velocity": 112}, {"time": 657, "pitch": 53, "duration": 11, "velocity": 100}, {"time": 657, "pitch": 58, "duration": 11, "velocity": 122}, {"time": 657, "pitch": 62, "duration": 11, "velocity": 117}, {"time": 669, "pitch": 53, "duration": 11, "velocity": 88}, {"time": 669, "pitch": 58, "duration": 11, "velocity": 117}, {"time": 669, "pitch": 62, "duration": 11, "velocity": 102}, {"time": 675, "pitch": 46, "duration": 22, "velocity": 59}, {"time": 681, "pitch": 53, "duration": 10, "velocity": 63}, {"time": 681, "pitch": 58, "duration": 10, "velocity": 68}, {"time": 681, "pitch": 62, "duration": 10, "velocity": 67}, {"time": 693, "pitch": 53, "duration": 9, "velocity": 89}, {"time": 693, "pitch": 58, "duration": 6, "velocity": 127}, {"time": 693, "pitch": 62, "duration": 6, "velocity": 102}, {"time": 699, "pitch": 46, "duration": 6, "velocity": 78}, {"time": 705, "pitch": 48, "duration": 17, "velocity": 72}, {"time": 705, "pitch": 55, "duration": 10, "velocity": 99}, {"time": 705, "pitch": 60, "duration": 10, "velocity": 102}, {"time": 705, "pitch": 63, "duration": 10, "velocity": 112}, {"time": 717, "pitch": 55, "duration": 9, "velocity": 85}, {"time": 717, "pitch": 60, "duration": 7, "velocity": 100}, {"time": 717, "pitch": 63, "duration": 6, "velocity": 112}, {"time": 723, "pitch": 48, "duration": 6, "velocity": 57}, {"time": 729, "pitch": 46, "duration": 13, "velocity": 97}, {"time": 729, "pitch": 58, "duration": 11, "velocity": 127}, {"time": 729, "pitch": 62, "duration": 11, "velocity": 97}, {"time": 729, "pitch": 65, "duration": 7, "velocity": 93}, {"time": 741, "pitch": 58, "duration": 8, "velocity": 127}, {"time": 741, "pitch": 62, "duration": 7, "velocity": 107}, {"time": 744, "pitch": 46, "duration": 2, "velocity": 107}, {"time": 753, "pitch": 41, "duration": 18, "velocity": 73}, {"time": 753, "pitch": 53, "duration": 7, "velocity": 97}, {"time": 753, "pitch": 56, "duration": 8, "velocity": 100}, {"time": 753, "pitch": 60, "duration": 11, "velocity": 90}, {"time": 759, "pitch": 48, "duration": 8, "velocity": 45}, {"time": 765, "pitch": 56, "duration": 6, "velocity": 107}, {"time": 765, "pitch": 60, "duration": 7, "velocity": 90}, {"time": 777, "pitch": 46, "duration": 14, "velocity": 92}, {"time": 777, "pitch": 53, "duration": 11, "velocity": 93}, {"time": 777, "pitch": 58, "duration": 11, "velocity": 102}, {"time": 777, "pitch": 62, "duration": 11, "velocity": 88}, {"time": 789, "pitch": 53, "duration": 2, "velocity": 64}, {"time": 789, "pitch": 58, "duration": 5, "velocity": 112}, {"time": 789, "pitch": 62, "duration": 5, "velocity": 96}, {"time": 801, "pitch": 51, "duration": 17, "velocity": 96}, {"time": 801, "pitch": 55, "duration": 10, "velocity": 95}, {"time": 801, "pitch": 58, "duration": 11, "velocity": 112}, {"time": 801, "pitch": 63, "duration": 11, "velocity": 97}, {"time": 813, "pitch": 58, "duration": 7, "velocity": 100}, {"time": 813, "pitch": 63, "duration": 8, "velocity": 100}, {"time": 819, "pitch": 55, "duration": 5, "velocity": 75}, {"time": 825, "pitch": 41, "duration": 18, "velocity": 78}, {"time": 825, "pitch": 53, "duration": 11, "velocity": 99}, {"time": 825, "pitch": 60, "duration": 11, "velocity": 95}, {"time": 831, "pitch": 48, "duration": 7, "velocity": 40}, {"time": 837, "pitch": 53, "duration": 4, "velocity": 93}, {"time": 837, "pitch": 56, "duration": 7, "velocity": 112}, {"time": 837, "pitch": 60, "duration": 7, "velocity": 90}, {"time": 840, "pitch": 48, "duration": 4, "velocity": 69}, {"time": 843, "pitch": 53, "duration": 4, "velocity": 88}, {"time": 849, "pitch": 46, "duration": 15, "velocity": 58}, {"time": 849, "pitch": 53, "duration": 11, "velocity": 97}, {"time": 849, "pitch": 58, "duration": 12, "velocity": 100}, {"time": 849, "pitch": 62, "duration": 11, "velocity": 93}, {"time": 861, "pitch": 58, "duration": 6, "velocity": 97}, {"time": 861, "pitch": 62, "duration": 6, "velocity": 92}, {"time": 873, "pitch": 44, "duration": 15, "velocity": 85}, {"time": 873, "pitch": 56, "duration": 11, "velocity": 96}, {"time": 873, "pitch": 60, "duration": 10, "velocity": 107}, {"time": 873, "pitch": 63, "duration": 11, "velocity": 99}, {"time": 885, "pitch": 56, "duration": 2, "velocity": 61}, {"time": 885, "pitch": 60, "duration": 8, "velocity": 83}, {"time": 885, "pitch": 63, "duration": 11, "velocity": 77}, {"time": 897, "pitch": 44, "duration": 15, "velocity": 83}, {"time": 897, "pitch": 56, "duration": 7, "velocity": 100}, {"time": 897, "pitch": 60, "duration": 7, "velocity": 117}, {"time": 897, "pitch": 63, "duration": 11, "velocity": 99}, {"time": 909, "pitch": 56, "duration": 6, "velocity": 90}, {"time": 909, "pitch": 60, "duration": 6, "velocity": 96}, {"time": 909, "pitch": 63, "duration": 8, "velocity": 83}, {"time": 921, "pitch": 48, "duration": 15, "velocity": 68}, {"time": 921, "pitch": 55, "duration": 10, "velocity": 96}, {"time": 921, "pitch": 60, "duration": 10, "velocity": 97}, {"time": 921, "pitch": 63, "duration": 10, "velocity": 102}, {"time": 933, "pitch": 60, "duration": 7, "velocity": 107}, {"time": 933, "pitch": 63, "duration": 7, "velocity": 127}, {"time": 939, "pitch": 48, "duration": 7, "velocity": 90}, {"time": 945, "pitch": 41, "duration": 14, "velocity": 74}, {"time": 945, "pitch": 53, "duration": 11, "velocity": 90}, {"time": 945, "pitch": 56, "duration": 11, "velocity": 99}, {"time": 945, "pitch": 60, "duration": 10, "velocity": 89}, {"time": 951, "pitch": 48, "duration": 8, "velocity": 45}, {"time": 957, "pitch": 56, "duration": 4, "velocity": 99}, {"time": 957, "pitch": 60, "duration": 5, "velocity": 92}, {"time": 969, "pitch": 44, "duration": 16, "velocity": 97}, {"time": 969, "pitch": 56, "duration": 9, "velocity": 95}, {"time": 969, "pitch": 60, "duration": 7, "velocity": 117}, {"time": 969, "pitch": 63, "duration": 8, "velocity": 99}, {"time": 981, "pitch": 56, "duration": 6, "velocity": 97}, {"time": 981, "pitch": 60, "duration": 6, "velocity": 127}, {"time": 981, "pitch": 63, "duration": 6, "velocity": 102}, {"time": 987, "pitch": 44, "duration": 5, "velocity": 89}, {"time": 993, "pitch": 43, "duration": 15, "velocity": 73}, {"time": 993, "pitch": 55, "duration": 11, "velocity": 100}, {"time": 993, "pitch": 58, "duration": 11, "velocity": 127}, {"time": 993, "pitch": 62, "duration": 11, "velocity": 99}, {"time": 1005, "pitch": 55, "duration": 10, "velocity": 89}, {"time": 1005, "pitch": 58, "duration": 8, "velocity": 107}, {"time": 1005, "pitch": 62, "duration": 10, "velocity": 92}, {"time": 1017, "pitch": 46, "duration": 15, "velocity": 97}, {"time": 1017, "pitch": 58, "duration": 10, "velocity": 127}, {"time": 1017, "pitch": 62, "duration": 11, "velocity": 97}, {"time": 1017, "pitch": 65, "duration": 9, "velocity": 96}, {"time": 1029, "pitch": 58, "duration": 7, "velocity": 127}, {"time": 1029, "pitch": 62, "duration": 8, "velocity": 100}, {"time": 1029, "pitch": 65, "duration": 6, "velocity": 90}, {"time": 1035, "pitch": 46, "duration": 2, "velocity": 117}, {"time": 1041, "pitch": 43, "duration": 11, "velocity": 70}, {"time": 1041, "pitch": 55, "duration": 11, "velocity": 69}, {"time": 1041, "pitch": 58, "duration": 11, "velocity": 78}, {"time": 1041, "pitch": 62, "duration": 11, "velocity": 74}, {"time": 1053, "pitch": 43, "duration": 4, "velocity": 66}, {"time": 1053, "pitch": 55, "duration": 11, "velocity": 72}, {"time": 1053, "pitch": 58, "duration": 9, "velocity": 92}, {"time": 1053, "pitch": 62, "duration": 8, "velocity": 77}, {"time": 1065, "pitch": 48, "duration": 14, "velocity": 57}, {"time": 1065, "pitch": 55, "duration": 10, "velocity": 65}, {"time": 1065, "pitch": 60, "duration": 11, "velocity": 78}, {"time": 1065, "pitch": 63, "duration": 11, "velocity": 88}, {"time": 1077, "pitch": 60, "duration": 7, "velocity": 79}, {"time": 1077, "pitch": 63, "duration": 6, "velocity": 76}, {"time": 1089, "pitch": 46, "duration": 16, "velocity": 54}, {"time": 1089, "pitch": 58, "duration": 10, "velocity": 96}, {"time": 1089, "pitch": 62, "duration": 8, "velocity": 88}, {"time": 1089, "pitch": 65, "duration": 7, "velocity": 82}, {"time": 1101, "pitch": 58, "duration": 11, "velocity": 112}, {"time": 1101, "pitch": 62, "duration": 11, "velocity": 90}, {"time": 1101, "pitch": 65, "duration": 10, "velocity": 90}, {"time": 1113, "pitch": 48, "duration": 20, "velocity": 83}, {"time": 1113, "pitch": 55, "duration": 10, "velocity": 88}, {"time": 1113, "pitch": 60, "duration": 10, "velocity": 97}, {"time": 1113, "pitch": 63, "duration": 10, "velocity": 93}, {"time": 1125, "pitch": 60, "duration": 12, "velocity": 100}, {"time": 1125, "pitch": 63, "duration": 12, "velocity": 112}, {"time": 1131, "pitch": 55, "duration": 6, "velocity": 95}, {"time": 1137, "pitch": 44, "duration": 15, "velocity": 72}, {"time": 1137, "pitch": 56, "duration": 11, "velocity": 95}, {"time": 1137, "pitch": 60, "duration": 11, "velocity": 102}, {"time": 1137, "pitch": 63, "duration": 11, "velocity": 100}, {"time": 1149, "pitch": 56, "duration": 8, "velocity": 95}, {"time": 1149, "pitch": 60, "duration": 6, "velocity": 107}, {"time": 1149, "pitch": 63, "duration": 7, "velocity": 95}, {"time": 1155, "pitch": 44, "duration": 6, "velocity": 52}, {"time": 1161, "pitch": 42, "duration": 15, "velocity": 95}, {"time": 1161, "pitch": 54, "duration": 10, "velocity": 107}, {"time": 1161, "pitch": 58, "duration": 11, "velocity": 117}, {"time": 1161, "pitch": 61, "duration": 11, "velocity": 99}, {"time": 1173, "pitch": 54, "duration": 2, "velocity": 96}, {"time": 1173, "pitch": 58, "duration": 2, "velocity": 117}, {"time": 1173, "pitch": 61, "duration": 2, "velocity": 100}, {"time": 1179, "pitch": 50, "duration": 6, "velocity": 100}, {"time": 1185, "pitch": 51, "duration": 14, "velocity": 83}, {"time": 1185, "pitch": 55, "duration": 8, "velocity": 92}, {"time": 1185, "pitch": 58, "duration": 10, "velocity": 112}, {"time": 1185, "pitch": 63, "duration": 10, "velocity": 102}, {"time": 1197, "pitch": 58, "duration": 5, "velocity": 112}, {"time": 1197, "pitch": 63, "duration": 6, "velocity": 112}, {"time": 1209, "pitch": 41, "duration": 23, "velocity": 77}, {"time": 1209, "pitch": 53, "duration": 10, "velocity": 102}, {"time": 1209, "pitch": 60, "duration": 11, "velocity": 100}, {"time": 1215, "pitch": 48, "duration": 14, "velocity": 40}, {"time": 1221, "pitch": 53, "duration": 11, "velocity": 93}, {"time": 1221, "pitch": 56, "duration": 4, "velocity": 86}, {"time": 1221, "pitch": 60, "duration": 11, "velocity": 95}, {"time": 1233, "pitch": 51, "duration": 13, "velocity": 127}, {"time": 1233, "pitch": 55, "duration": 10, "velocity": 122}, {"time": 1233, "pitch": 58, "duration": 10, "velocity": 127}, {"time": 1233, "pitch": 63, "duration": 11, "velocity": 127}, {"time": 1245, "pitch": 55, "duration": 10, "velocity": 107}, {"time": 1245, "pitch": 58, "duration": 6, "velocity": 127}, {"time": 1245, "pitch": 63, "duration": 5, "velocity": 127}, {"time": 1251, "pitch": 51, "duration": 6, "velocity": 117}, {"time": 1257, "pitch": 46, "duration": 22, "velocity": 127}, {"time": 1257, "pitch": 58, "duration": 9, "velocity": 127}, {"time": 1257, "pitch": 62, "duration": 9, "velocity": 102}, {"time": 1257, "pitch": 65, "duration": 8, "velocity": 96}, {"time": 1263, "pitch": 50, "duration": 17, "velocity": 38}, {"time": 1263, "pitch": 53, "duration": 6, "velocity": 47}, {"time": 1269, "pitch": 58, "duration": 8, "velocity": 127}, {"time": 1269, "pitch": 62, "duration": 8, "velocity": 112}, {"time": 1269, "pitch": 65, "duration": 7, "velocity": 107}, {"time": 1275, "pitch": 53, "duration": 6, "velocity": 66}, {"time": 1281, "pitch": 46, "duration": 17, "velocity": 107}, {"time": 1281, "pitch": 58, "duration": 8, "velocity": 127}, {"time": 1281, "pitch": 62, "duration": 10, "velocity": 117}, {"time": 1281, "pitch": 65, "duration": 7, "velocity": 99}, {"time": 1293, "pitch": 58, "duration": 8, "velocity": 127}, {"time": 1293, "pitch": 62, "duration": 5, "velocity": 112}, {"time": 1293, "pitch": 65, "duration": 5, "velocity": 96}, {"time": 1299, "pitch": 46, "duration": 6, "velocity": 70}, {"time": 1305, "pitch": 51, "duration": 17, "velocity": 107}, {"time": 1305, "pitch": 55, "duration": 10, "velocity": 96}, {"time": 1305, "pitch": 58, "duration": 10, "velocity": 127}, {"time": 1305, "pitch": 63, "duration": 9, "velocity": 117}, {"time": 1317, "pitch": 58, "duration": 6, "velocity": 127}, {"time": 1317, "pitch": 63, "duration": 6, "velocity": 127}, {"time": 1323, "pitch": 51, "duration": 6, "velocity": 96}, {"time": 1329, "pitch": 44, "duration": 16, "velocity": 95}, {"time": 1329, "pitch": 56, "duration": 10, "velocity": 102}, {"time": 1329, "pitch": 60, "duration": 10, "velocity": 112}, {"time": 1329, "pitch": 63, "duration": 10, "velocity": 117}, {"time": 1341, "pitch": 56, "duration": 7, "velocity": 107}, {"time": 1341, "pitch": 60, "duration": 9, "velocity": 127}, {"time": 1341, "pitch": 63, "duration": 11, "velocity": 122}, {"time": 1347, "pitch": 44, "duration": 7, "velocity": 88}, {"time": 1353, "pitch": 45, "duration": 15, "velocity": 72}, {"time": 1353, "pitch": 57, "duration": 10, "velocity": 95}, {"time": 1353, "pitch": 60, "duration": 10, "velocity": 112}, {"time": 1353, "pitch": 63, "duration": 10, "velocity": 117}, {"time": 1365, "pitch": 57, "duration": 8, "velocity": 96}, {"time": 1365, "pitch": 60, "duration": 7, "velocity": 127}, {"time": 1365, "pitch": 63, "duration": 7, "velocity": 117}, {"time": 1371, "pitch": 45, "duration": 5, "velocity": 68}, {"time": 1377, "pitch": 46, "duration": 19, "velocity": 99}, {"time": 1377, "pitch": 58, "duration": 10, "velocity": 112}, {"time": 1377, "pitch": 62, "duration": 10, "velocity": 100}, {"time": 1377, "pitch": 65, "duration": 10, "velocity": 86}, {"time": 1389, "pitch": 58, "duration": 7, "velocity": 122}, {"time": 1389, "pitch": 62, "duration": 7, "velocity": 97}, {"time": 1389, "pitch": 65, "duration": 7, "velocity": 93}, {"time": 1401, "pitch": 46, "duration": 24, "velocity": 90}, {"time": 1401, "pitch": 53, "duration": 11, "velocity": 86}, {"time": 1401, "pitch": 58, "duration": 11, "velocity": 93}, {"time": 1401, "pitch": 62, "duration": 11, "velocity": 89}, {"time": 1401, "pitch": 65, "duration": 10, "velocity": 83}, {"time": 1413, "pitch": 58, "duration": 12, "velocity": 117}, {"time": 1413, "pitch": 62, "duration": 12, "velocity": 97}, {"time": 1413, "pitch": 65, "duration": 12, "velocity": 86}, {"time": 1419, "pitch": 53, "duration": 7, "velocity": 99}, {"time": 1425, "pitch": 51, "duration": 13, "velocity": 127}, {"time": 1425, "pitch": 55, "duration": 10, "velocity": 122}, {"time": 1425, "pitch": 58, "duration": 10, "velocity": 127}, {"time": 1425, "pitch": 63, "duration": 11, "velocity": 127}, {"time": 1437, "pitch": 55, "duration": 10, "velocity": 107}, {"time": 1437, "pitch": 58, "duration": 6, "velocity": 127}, {"time": 1437, "pitch": 63, "duration": 5, "velocity": 127}, {"time": 1443, "pitch": 51, "duration": 6, "velocity": 117}, {"time": 1449, "pitch": 46, "duration": 22, "velocity": 127}, {"time": 1449, "pitch": 58, "duration": 9, "velocity": 127}, {"time": 1449, "pitch": 62, "duration": 9, "velocity": 102}, {"time": 1449, "pitch": 65, "duration": 8, "velocity": 96}, {"time": 1455, "pitch": 50, "duration": 17, "velocity": 38}, {"time": 1455, "pitch": 53, "duration": 6, "velocity": 47}, {"time": 1461, "pitch": 58, "duration": 8, "velocity": 127}, {"time": 1461, "pitch": 62, "duration": 8, "velocity": 112}, {"time": 1461, "pitch": 65, "duration": 7, "velocity": 107}, {"time": 1467, "pitch": 53, "duration": 6, "velocity": 66}, {"time": 1473, "pitch": 46, "duration": 17, "velocity": 107}, {"time": 1473, "pitch": 58, "duration": 8, "velocity": 127}, {"time": 1473, "pitch": 62, "duration": 10, "velocity": 117}, {"time": 1473, "pitch": 65, "duration": 7, "velocity": 99}, {"time": 1485, "pitch": 58, "duration": 8, "velocity": 127}, {"time": 1485, "pitch": 62, "duration": 5, "velocity": 112}, {"time": 1485, "pitch": 65, "duration": 5, "velocity": 96}, {"time": 1491, "pitch": 46, "duration": 6, "velocity": 70}, {"time": 1497, "pitch": 51, "duration": 17, "velocity": 107}, {"time": 1497, "pitch": 55, "duration": 10, "velocity": 96}, {"time": 1497, "pitch": 58, "duration": 10, "velocity": 127}, {"time": 1497, "pitch": 63, "duration": 9, "velocity": 117}, {"time": 1509, "pitch": 58, "duration": 6, "velocity": 127}, {"time": 1509, "pitch": 63, "duration": 6, "velocity": 127}, {"time": 1515, "pitch": 51, "duration": 6, "velocity": 96}, {"time": 1521, "pitch": 44, "duration": 16, "velocity": 95}, {"time": 1521, "pitch": 56, "duration": 10, "velocity": 102}, {"time": 1521, "pitch": 60, "duration": 10, "velocity": 112}, {"time": 1521, "pitch": 63, "duration": 10, "velocity": 117}, {"time": 1533, "pitch": 56, "duration": 7, "velocity": 107}, {"time": 1533, "pitch": 60, "duration": 9, "velocity": 127}, {"time": 1533, "pitch": 63, "duration": 11, "velocity": 122}, {"time": 1539, "pitch": 44, "duration": 7, "velocity": 88}, {"time": 1545, "pitch": 45, "duration": 15, "velocity": 72}, {"time": 1545, "pitch": 57, "duration": 10, "velocity": 95}, {"time": 1545, "pitch": 60, "duration": 10, "velocity": 112}, {"time": 1545, "pitch": 63, "duration": 10, "velocity": 117}, {"time": 1557, "pitch": 57, "duration": 8, "velocity": 96}, {"time": 1557, "pitch": 60, "duration": 7, "velocity": 127}, {"time": 1557, "pitch": 63, "duration": 7, "velocity": 117}, {"time": 1563, "pitch": 45, "duration": 5, "velocity": 68}, {"time": 1569, "pitch": 46, "duration": 19, "velocity": 99}, {"time": 1569, "pitch": 58, "duration": 10, "velocity": 112}, {"time": 1569, "pitch": 62, "duration": 10, "velocity": 100}, {"time": 1569, "pitch": 65, "duration": 10, "velocity": 86}, {"time": 1581, "pitch": 58, "duration": 7, "velocity": 122}, {"time": 1581, "pitch": 62, "duration": 7, "velocity": 97}, {"time": 1581, "pitch": 65, "duration": 7, "velocity": 93}, {"time": 1593, "pitch": 46, "duration": 16, "velocity": 75}, {"time": 1593, "pitch": 58, "duration": 10, "velocity": 127}, {"time": 1593, "pitch": 62, "duration": 11, "velocity": 96}, {"time": 1593, "pitch": 65, "duration": 10, "velocity": 92}, {"time": 1605, "pitch": 58, "duration": 7, "velocity": 117}, {"time": 1605, "pitch": 62, "duration": 7, "velocity": 93}, {"time": 1605, "pitch": 65, "duration": 6, "velocity": 86}, {"time": 1617, "pitch": 41, "duration": 23, "velocity": 69}, {"time": 1617, "pitch": 53, "duration": 11, "velocity": 107}, {"time": 1617, "pitch": 56, "duration": 11, "velocity": 112}, {"time": 1617, "pitch": 60, "duration": 11, "velocity": 100}, {"time": 1623, "pitch": 48, "duration": 9, "velocity": 45}, {"time": 1629, "pitch": 56, "duration": 8, "velocity": 122}, {"time": 1629, "pitch": 60, "duration": 11, "velocity": 97}, {"time": 1635, "pitch": 48, "duration": 7, "velocity": 32}, {"time": 1641, "pitch": 41, "duration": 25, "velocity": 73}, {"time": 1641, "pitch": 53, "duration": 1, "velocity": 93}, {"time": 1641, "pitch": 56, "duration": 1, "velocity": 112}, {"time": 1641, "pitch": 60, "duration": 1, "velocity": 97}, {"time": 1647, "pitch": 48, "duration": 18, "velocity": 50}, {"time": 1650, "pitch": 60, "duration": 2, "velocity": 88}, {"time": 1650, "pitch": 65, "duration": 2, "velocity": 89}, {"time": 1650, "pitch": 68, "duration": 2, "velocity": 90}, {"time": 1653, "pitch": 60, "duration": 5, "velocity": 102}, {"time": 1653, "pitch": 65, "duration": 5, "velocity": 127}, {"time": 1653, "pitch": 68, "duration": 5, "velocity": 127}, {"time": 1659, "pitch": 60, "duration": 6, "velocity": 99}, {"time": 1659, "pitch": 65, "duration": 6, "velocity": 102}, {"time": 1659, "pitch": 68, "duration": 6, "velocity": 112}, {"time": 1665, "pitch": 41, "duration": 1, "velocity": 90}, {"time": 1665, "pitch": 53, "duration": 11, "velocity": 95}, {"time": 1665, "pitch": 56, "duration": 11, "velocity": 112}, {"time": 1665, "pitch": 60, "duration": 11, "velocity": 97}, {"time": 1677, "pitch": 53, "duration": 11, "velocity": 93}, {"time": 1677, "pitch": 56, "duration": 11, "velocity": 107}, {"time": 1677, "pitch": 60, "duration": 11, "velocity": 89}, {"time": 1689, "pitch": 41, "duration": 14, "velocity": 65}, {"time": 1689, "pitch": 53, "duration": 14, "velocity": 72}, {"time": 1689, "pitch": 56, "duration": 14, "velocity": 88}, {"time": 1689, "pitch": 60, "duration": 14, "velocity": 82}, {"time": 1719, "pitch": 41, "duration": 3, "velocity": 67}, {"time": 1719, "pitch": 53, "duration": 3, "velocity": 75}, {"time": 1719, "pitch": 60, "duration": 3, "velocity": 83}, {"time": 1725, "pitch": 41, "duration": 4, "velocity": 69}, {"time": 1725, "pitch": 53, "duration": 3, "velocity": 73}, {"time": 1725, "pitch": 60, "duration": 4, "velocity": 78}, {"time": 1731, "pitch": 41, "duration": 3, "velocity": 89}, {"time": 1731, "pitch": 53, "duration": 3, "velocity": 83}, {"time": 1731, "pitch": 60, "duration": 3, "velocity": 90}, {"time": 1740, "pitch": 41, "duration": 2, "velocity": 100}, {"time": 1740, "pitch": 53, "duration": 1, "velocity": 66}, {"time": 1740, "pitch": 57, "duration": 1, "velocity": 82}, {"time": 1743, "pitch": 41, "duration": 2, "velocity": 73}, {"time": 1743, "pitch": 53, "duration": 1, "velocity": 63}, {"time": 1743, "pitch": 57, "duration": 1, "velocity": 81}, {"time": 1746, "pitch": 41, "duration": 2, "velocity": 63}, {"time": 1746, "pitch": 53, "duration": 1, "velocity": 67}, {"time": 1746, "pitch": 57, "duration": 1, "velocity": 77}, {"time": 1749, "pitch": 41, "duration": 1, "velocity": 71}, {"time": 1749, "pitch": 53, "duration": 1, "velocity": 79}, {"time": 1749, "pitch": 57, "duration": 1, "velocity": 88}, {"time": 1752, "pitch": 41, "duration": 2, "velocity": 102}, {"time": 1752, "pitch": 53, "duration": 1, "velocity": 76}, {"time": 1752, "pitch": 57, "duration": 1, "velocity": 89}, {"time": 1755, "pitch": 41, "duration": 1, "velocity": 81}, {"time": 1755, "pitch": 53, "duration": 1, "velocity": 79}, {"time": 1755, "pitch": 57, "duration": 1, "velocity": 92}, {"time": 1758, "pitch": 41, "duration": 1, "velocity": 95}, {"time": 1758, "pitch": 53, "duration": 1, "velocity": 86}, {"time": 1758, "pitch": 57, "duration": 1, "velocity": 97}, {"time": 1761, "pitch": 44, "duration": 22, "velocity": 102}, {"time": 1761, "pitch": 56, "duration": 20, "velocity": 117}, {"time": 1761, "pitch": 60, "duration": 20, "velocity": 93}, {"time": 1761, "pitch": 63, "duration": 21, "velocity": 92}, {"time": 1785, "pitch": 44, "duration": 11, "velocity": 99}, {"time": 1785, "pitch": 56, "duration": 11, "velocity": 102}, {"time": 1785, "pitch": 60, "duration": 11, "velocity": 95}, {"time": 1785, "pitch": 63, "duration": 11, "velocity": 92}, {"time": 1797, "pitch": 41, "duration": 9, "velocity": 81}, {"time": 1797, "pitch": 53, "duration": 9, "velocity": 81}, {"time": 1797, "pitch": 60, "duration": 9, "velocity": 90}, {"time": 1809, "pitch": 44, "duration": 3, "velocity": 72}, {"time": 1809, "pitch": 56, "duration": 2, "velocity": 76}, {"time": 1809, "pitch": 60, "duration": 2, "velocity": 68}, {"time": 1809, "pitch": 63, "duration": 2, "velocity": 63}, {"time": 1815, "pitch": 44, "duration": 3, "velocity": 53}, {"time": 1815, "pitch": 56, "duration": 2, "velocity": 52}, {"time": 1815, "pitch": 60, "duration": 2, "velocity": 53}, {"time": 1815, "pitch": 63, "duration": 2, "velocity": 58}, {"time": 1821, "pitch": 44, "duration": 3, "velocity": 93}, {"time": 1821, "pitch": 56, "duration": 2, "velocity": 72}, {"time": 1821, "pitch": 60, "duration": 3, "velocity": 68}, {"time": 1821, "pitch": 63, "duration": 2, "velocity": 66}, {"time": 1827, "pitch": 44, "duration": 2, "velocity": 117}, {"time": 1827, "pitch": 56, "duration": 2, "velocity": 100}, {"time": 1827, "pitch": 60, "duration": 2, "velocity": 99}, {"time": 1827, "pitch": 63, "duration": 2, "velocity": 100}, {"time": 1836, "pitch": 44, "duration": 2, "velocity": 122}, {"time": 1836, "pitch": 56, "duration": 2, "velocity": 76}, {"time": 1836, "pitch": 60, "duration": 1, "velocity": 63}, {"time": 1836, "pitch": 63, "duration": 2, "velocity": 72}, {"time": 1839, "pitch": 43, "duration": 1, "velocity": 55}, {"time": 1839, "pitch": 44, "duration": 1, "velocity": 66}, {"time": 1839, "pitch": 56, "duration": 1, "velocity": 89}, {"time": 1839, "pitch": 60, "duration": 1, "velocity": 82}, {"time": 1839, "pitch": 63, "duration": 1, "velocity": 77}, {"time": 1842, "pitch": 44, "duration": 1, "velocity": 99}, {"time": 1842, "pitch": 56, "duration": 1, "velocity": 99}, {"time": 1842, "pitch": 60, "duration": 1, "velocity": 89}, {"time": 1842, "pitch": 63, "duration": 1, "velocity": 83}, {"time": 1845, "pitch": 44, "duration": 2, "velocity": 95}, {"time": 1845, "pitch": 56, "duration": 1, "velocity": 69}, {"time": 1845, "pitch": 60, "duration": 1, "velocity": 58}, {"time": 1845, "pitch": 63, "duration": 1, "velocity": 54}, {"time": 1848, "pitch": 44, "duration": 2, "velocity": 97}, {"time": 1848, "pitch": 56, "duration": 1, "velocity": 72}, {"time": 1848, "pitch": 60, "duration": 2, "velocity": 60}, {"time": 1848, "pitch": 63, "duration": 1, "velocity": 50}, {"time": 1851, "pitch": 44, "duration": 2, "velocity": 107}, {"time": 1851, "pitch": 56, "duration": 1, "velocity": 85}, {"time": 1851, "pitch": 60, "duration": 1, "velocity": 71}, {"time": 1851, "pitch": 63, "duration": 1, "velocity": 71}, {"time": 1854, "pitch": 44, "duration": 1, "velocity": 127}, {"time": 1854, "pitch": 56, "duration": 1, "velocity": 107}, {"time": 1854, "pitch": 60, "duration": 2, "velocity": 92}, {"time": 1857, "pitch": 46, "duration": 7, "velocity": 127}, {"time": 1857, "pitch": 53, "duration": 7, "velocity": 96}, {"time": 1857, "pitch": 58, "duration": 7, "velocity": 107}, {"time": 1857, "pitch": 62, "duration": 7, "velocity": 92}, {"time": 1857, "pitch": 65, "duration": 7, "velocity": 75}, {"time": 1866, "pitch": 46, "duration": 6, "velocity": 127}, {"time": 1866, "pitch": 53, "duration": 6, "velocity": 97}, {"time": 1866, "pitch": 58, "duration": 6, "velocity": 100}, {"time": 1866, "pitch": 62, "duration": 6, "velocity": 92}, {"time": 1866, "pitch": 65, "duration": 5, "velocity": 76}, {"time": 1872, "pitch": 46, "duration": 1, "velocity": 127}, {"time": 1872, "pitch": 53, "duration": 32, "velocity": 95}, {"time": 1872, "pitch": 58, "duration": 32, "velocity": 107}, {"time": 1872, "pitch": 62, "duration": 32, "velocity": 93}, {"time": 1872, "pitch": 65, "duration": 32, "velocity": 85}, {"time": 1905, "pitch": 51, "duration": 13, "velocity": 127}, {"time": 1905, "pitch": 55, "duration": 10, "velocity": 122}, {"time": 1905, "pitch": 58, "duration": 10, "velocity": 127}, {"time": 1905, "pitch": 63, "duration": 11, "velocity": 127}, {"time": 1917, "pitch": 55, "duration": 10, "velocity": 107}, {"time": 1917, "pitch": 58, "duration": 6, "velocity": 127}, {"time": 1917, "pitch": 63, "duration": 5, "velocity": 127}, {"time": 1923, "pitch": 51, "duration": 6, "velocity": 117}, {"time": 1929, "pitch": 46, "duration": 22, "velocity": 127}, {"time": 1929, "pitch": 58, "duration": 9, "velocity": 127}, {"time": 1929, "pitch": 62, "duration": 9, "velocity": 102}, {"time": 1929, "pitch": 65, "duration": 8, "velocity": 96}, {"time": 1935, "pitch": 50, "duration": 17, "velocity": 38}, {"time": 1935, "pitch": 53, "duration": 6, "velocity": 47}, {"time": 1941, "pitch": 58, "duration": 8, "velocity": 127}, {"time": 1941, "pitch": 62, "duration": 8, "velocity": 112}, {"time": 1941, "pitch": 65, "duration": 7, "velocity": 107}, {"time": 1947, "pitch": 53, "duration": 6, "velocity": 66}, {"time": 1953, "pitch": 46, "duration": 17, "velocity": 107}, {"time": 1953, "pitch": 58, "duration": 8, "velocity": 127}, {"time": 1953, "pitch": 62, "duration": 10, "velocity": 117}, {"time": 1953, "pitch": 65, "duration": 7, "velocity": 99}, {"time": 1965, "pitch": 58, "duration": 8, "velocity": 127}, {"time": 1965, "pitch": 62, "duration": 5, "velocity": 112}, {"time": 1965, "pitch": 65, "duration": 5, "velocity": 96}, {"time": 1971, "pitch": 46, "duration": 6, "velocity": 70}, {"time": 1977, "pitch": 51, "duration": 17, "velocity": 107}, {"time": 1977, "pitch": 55, "duration": 10, "velocity": 96}, {"time": 1977, "pitch": 58, "duration": 10, "velocity": 127}, {"time": 1977, "pitch": 63, "duration": 9, "velocity": 117}, {"time": 1989, "pitch": 58, "duration": 6, "velocity": 127}, {"time": 1989, "pitch": 63, "duration": 6, "velocity": 127}, {"time": 1995, "pitch": 51, "duration": 6, "velocity": 96}, {"time": 2001, "pitch": 44, "duration": 16, "velocity": 95}, {"time": 2001, "pitch": 56, "duration": 10, "velocity": 102}, {"time": 2001, "pitch": 60, "duration": 10, "velocity": 112}, {"time": 2001, "pitch": 63, "duration": 10, "velocity": 117}, {"time": 2013, "pitch": 56, "duration": 7, "velocity": 107}, {"time": 2013, "pitch": 60, "duration": 9, "velocity": 127}, {"time": 2013, "pitch": 63, "duration": 11, "velocity": 122}, {"time": 2019, "pitch": 44, "duration": 7, "velocity": 88}, {"time": 2025, "pitch": 45, "duration": 15, "velocity": 72}, {"time": 2025, "pitch": 57, "duration": 10, "velocity": 95}, {"time": 2025, "pitch": 60, "duration": 10, "velocity": 112}, {"time": 2025, "pitch": 63, "duration": 10, "velocity": 117}, {"time": 2037, "pitch": 57, "duration": 8, "velocity": 96}, {"time": 2037, "pitch": 60, "duration": 7, "velocity": 127}, {"time": 2037, "pitch": 63, "duration": 7, "velocity": 117}, {"time": 2043, "pitch": 45, "duration": 5, "velocity": 68}, {"time": 2049, "pitch": 46, "duration": 19, "velocity": 99}, {"time": 2049, "pitch": 58, "duration": 10, "velocity": 112}, {"time": 2049, "pitch": 62, "duration": 10, "velocity": 100}, {"time": 2049, "pitch": 65, "duration": 10, "velocity": 86}, {"time": 2061, "pitch": 58, "duration": 7, "velocity": 122}, {"time": 2061, "pitch": 62, "duration": 7, "velocity": 97}, {"time": 2061, "pitch": 65, "duration": 7, "velocity": 93}, {"time": 2073, "pitch": 46, "duration": 24, "velocity": 90}, {"time": 2073, "pitch": 53, "duration": 11, "velocity": 86}, {"time": 2073, "pitch": 58, "duration": 11, "velocity": 93}, {"time": 2073, "pitch": 62, "duration": 11, "velocity": 89}, {"time": 2073, "pitch": 65, "duration": 10, "velocity": 83}, {"time": 2085, "pitch": 58, "duration": 12, "velocity": 117}, {"time": 2085, "pitch": 62, "duration": 12, "velocity": 97}, {"time": 2085, "pitch": 65, "duration": 12, "velocity": 86}, {"time": 2091, "pitch": 53, "duration": 7, "velocity": 99}, {"time": 2097, "pitch": 51, "duration": 13, "velocity": 127}, {"time": 2097, "pitch": 55, "duration": 10, "velocity": 122}, {"time": 2097, "pitch": 58, "duration": 10, "velocity": 127}, {"time": 2097, "pitch": 63, "duration": 11, "velocity": 127}, {"time": 2109, "pitch": 55, "duration": 10, "velocity": 107}, {"time": 2109, "pitch": 58, "duration": 6, "velocity": 127}, {"time": 2109, "pitch": 63, "duration": 5, "velocity": 127}, {"time": 2115, "pitch": 51, "duration": 6, "velocity": 117}, {"time": 2121, "pitch": 46, "duration": 22, "velocity": 127}, {"time": 2121, "pitch": 58, "duration": 9, "velocity": 127}, {"time": 2121, "pitch": 62, "duration": 9, "velocity": 102}, {"time": 2121, "pitch": 65, "duration": 8, "velocity": 96}, {"time": 2127, "pitch": 50, "duration": 17, "velocity": 38}, {"time": 2127, "pitch": 53, "duration": 6, "velocity": 47}, {"time": 2133, "pitch": 58, "duration": 8, "velocity": 127}, {"time": 2133, "pitch": 62, "duration": 8, "velocity": 112}, {"time": 2133, "pitch": 65, "duration": 7, "velocity": 107}, {"time": 2139, "pitch": 53, "duration": 6, "velocity": 66}, {"time": 2145, "pitch": 46, "duration": 17, "velocity": 107}, {"time": 2145, "pitch": 58, "duration": 8, "velocity": 127}, {"time": 2145, "pitch": 62, "duration": 10, "velocity": 117}, {"time": 2145, "pitch": 65, "duration": 7, "velocity": 99}, {"time": 2157, "pitch": 58, "duration": 8, "velocity": 127}, {"time": 2157, "pitch": 62, "duration": 5, "velocity": 112}, {"time": 2157, "pitch": 65, "duration": 5, "velocity": 96}, {"time": 2163, "pitch": 46, "duration": 6, "velocity": 70}, {"time": 2169, "pitch": 51, "duration": 17, "velocity": 107}, {"time": 2169, "pitch": 55, "duration": 10, "velocity": 96}, {"time": 2169, "pitch": 58, "duration": 10, "velocity": 127}, {"time": 2169, "pitch": 63, "duration": 9, "velocity": 117}, {"time": 2181, "pitch": 58, "duration": 6, "velocity": 127}, {"time": 2181, "pitch": 63, "duration": 6, "velocity": 127}, {"time": 2187, "pitch": 51, "duration": 6, "velocity": 96}, {"time": 2193, "pitch": 44, "duration": 16, "velocity": 95}, {"time": 2193, "pitch": 56, "duration": 10, "velocity": 102}, {"time": 2193, "pitch": 60, "duration": 10, "velocity": 112}, {"time": 2193, "pitch": 63, "duration": 10, "velocity": 117}, {"time": 2205, "pitch": 56, "duration": 7, "velocity": 107}, {"time": 2205, "pitch": 60, "duration": 9, "velocity": 127}, {"time": 2205, "pitch": 63, "duration": 11, "velocity": 122}, {"time": 2211, "pitch": 44, "duration": 7, "velocity": 88}, {"time": 2217, "pitch": 45, "duration": 15, "velocity": 72}, {"time": 2217, "pitch": 57, "duration": 10, "velocity": 95}, {"time": 2217, "pitch": 60, "duration": 10, "velocity": 112}, {"time": 2217, "pitch": 63, "duration": 10, "velocity": 117}, {"time": 2229, "pitch": 57, "duration": 8, "velocity": 96}, {"time": 2229, "pitch": 60, "duration": 7, "velocity": 127}, {"time": 2229, "pitch": 63, "duration": 7, "velocity": 117}, {"time": 2235, "pitch": 45, "duration": 5, "velocity": 68}, {"time": 2241, "pitch": 46, "duration": 19, "velocity": 99}, {"time": 2241, "pitch": 58, "duration": 10, "velocity": 112}, {"time": 2241, "pitch": 62, "duration": 10, "velocity": 100}, {"time": 2241, "pitch": 65, "duration": 10, "velocity": 86}, {"time": 2253, "pitch": 58, "duration": 7, "velocity": 122}, {"time": 2253, "pitch": 62, "duration": 7, "velocity": 97}, {"time": 2253, "pitch": 65, "duration": 7, "velocity": 93}, {"time": 2265, "pitch": 46, "duration": 16, "velocity": 75}, {"time": 2265, "pitch": 58, "duration": 10, "velocity": 127}, {"time": 2265, "pitch": 62, "duration": 11, "velocity": 96}, {"time": 2265, "pitch": 65, "duration": 10, "velocity": 92}, {"time": 2277, "pitch": 58, "duration": 7, "velocity": 117}, {"time": 2277, "pitch": 62, "duration": 7, "velocity": 93}, {"time": 2277, "pitch": 65, "duration": 6, "velocity": 86}, {"time": 2289, "pitch": 41, "duration": 23, "velocity": 69}, {"time": 2289, "pitch": 53, "duration": 11, "velocity": 107}, {"time": 2289, "pitch": 56, "duration": 11, "velocity": 112}, {"time": 2289, "pitch": 60, "duration": 11, "velocity": 100}, {"time": 2295, "pitch": 48, "duration": 9, "velocity": 45}, {"time": 2301, "pitch": 56, "duration": 8, "velocity": 122}, {"time": 2301, "pitch": 60, "duration": 11, "velocity": 97}, {"time": 2307, "pitch": 48, "duration": 7, "velocity": 32}, {"time": 2313, "pitch": 41, "duration": 24, "velocity": 73}, {"time": 2313, "pitch": 53, "duration": 1, "velocity": 93}, {"time": 2313, "pitch": 56, "duration": 1, "velocity": 112}, {"time": 2313, "pitch": 60, "duration": 1, "velocity": 97}, {"time": 2319, "pitch": 48, "duration": 18, "velocity": 50}, {"time": 2322, "pitch": 60, "duration": 2, "velocity": 88}, {"time": 2322, "pitch": 65, "duration": 2, "velocity": 89}, {"time": 2322, "pitch": 68, "duration": 2, "velocity": 90}, {"time": 2325, "pitch": 60, "duration": 5, "velocity": 102}, {"time": 2325, "pitch": 65, "duration": 5, "velocity": 127}, {"time": 2325, "pitch": 68, "duration": 5, "velocity": 127}, {"time": 2331, "pitch": 60, "duration": 6, "velocity": 99}, {"time": 2331, "pitch": 65, "duration": 6, "velocity": 102}, {"time": 2331, "pitch": 68, "duration": 6, "velocity": 112}, {"time": 2337, "pitch": 53, "duration": 13, "velocity": 97}, {"time": 2337, "pitch": 60, "duration": 10, "velocity": 96}, {"time": 2337, "pitch": 65, "duration": 10, "velocity": 99}, {"time": 2337, "pitch": 68, "duration": 10, "velocity": 107}, {"time": 2349, "pitch": 60, "duration": 11, "velocity": 96}, {"time": 2349, "pitch": 65, "duration": 11, "velocity": 97}, {"time": 2349, "pitch": 68, "duration": 11, "velocity": 107}, {"time": 2361, "pitch": 41, "duration": 17, "velocity": 66}, {"time": 2361, "pitch": 60, "duration": 2, "velocity": 93}, {"time": 2361, "pitch": 65, "duration": 2, "velocity": 95}, {"time": 2361, "pitch": 68, "duration": 2, "velocity": 107}, {"time": 2364, "pitch": 60, "duration": 8, "velocity": 89}, {"time": 2364, "pitch": 65, "duration": 8, "velocity": 97}, {"time": 2364, "pitch": 68, "duration": 8, "velocity": 102}, {"time": 2370, "pitch": 53, "duration": 5, "velocity": 59}, {"time": 2373, "pitch": 65, "duration": 6, "velocity": 127}, {"time": 2373, "pitch": 68, "duration": 6, "velocity": 127}, {"time": 2376, "pitch": 53, "duration": 1, "velocity": 72}, {"time": 2379, "pitch": 60, "duration": 1, "velocity": 100}, {"time": 2385, "pitch": 29, "duration": 70, "velocity": 74}, {"time": 2385, "pitch": 53, "duration": 71, "velocity": 112}, {"time": 2385, "pitch": 56, "duration": 71, "velocity": 112}, {"time": 2385, "pitch": 60, "duration": 71, "velocity": 97}], "annotations": [{"time": 225, "annotation": {"number": 64, "value": 127}, "group": "control_change"}, {"time": 249, "annotation": {"number": 64, "value": 0}, "group": "control_change"}, {"time": 250, "annotation": {"number": 64, "value": 127}, "group": "control_change"}, {"time": 272, "annotation": {"number": 64, "value": 0}, "group": "control_change"}, {"time": 274, "annotation": {"number": 64, "value": 127}, "group": "control_change"}, {"time": 296, "annotation": {"number": 64, "value": 0}, "group": "control_change"}, {"time": 298, "annotation": {"number": 64, "value": 127}, "group": "control_change"}, {"time": 319, "annotation": {"number": 64, "value": 0}, "group": "control_change"}, {"time": 322, "annotation": {"number": 64, "value": 127}, "group": "control_change"}, {"time": 343, "annotation": {"number": 64, "value": 0}, "group": "control_change"}, {"time": 345, "annotation": {"number": 64, "value": 127}, "group": "control_change"}, {"time": 368, "annotation": {"number": 64, "value": 0}, "group": "control_change"}, {"time": 370, "annotation": {"number": 64, "value": 127}, "group": "control_change"}, {"time": 392, "annotation": {"number": 64, "value": 0}, "group": "control_change"}, {"time": 394, "annotation": {"number": 64, "value": 127}, "group": "control_change"}, {"time": 416, "annotation": {"number": 64, "value": 0}, "group": "control_change"}, {"time": 417, "annotation": {"number": 64, "value": 127}, "group": "control_change"}, {"time": 439, "annotation": {"number": 64, "value": 0}, "group": "control_change"}, {"time": 442, "annotation": {"number": 64, "value": 127}, "group": "control_change"}, {"time": 463, "annotation": {"number": 64, "value": 0}, "group": "control_change"}, {"time": 466, "annotation": {"number": 64, "value": 127}, "group": "control_change"}, {"time": 488, "annotation": {"number": 64, "value": 0}, "group": "control_change"}, {"time": 490, "annotation": {"number": 64, "value": 127}, "group": "control_change"}, {"time": 512, "annotation": {"number": 64, "value": 0}, "group": "control_change"}, {"time": 514, "annotation": {"number": 64, "value": 127}, "group": "control_change"}, {"time": 535, "annotation": {"number": 64, "value": 0}, "group": "control_change"}, {"time": 538, "annotation": {"number": 64, "value": 127}, "group": "control_change"}, {"time": 560, "annotation": {"number": 64, "value": 0}, "group": "control_change"}, {"time": 562, "annotation": {"number": 64, "value": 127}, "group": "control_change"}, {"time": 584, "annotation": {"number": 64, "value": 0}, "group": "control_change"}, {"time": 586, "annotation": {"number": 64, "value": 127}, "group": "control_change"}, {"time": 607, "annotation": {"number": 64, "value": 0}, "group": "control_change"}, {"time": 609, "annotation": {"number": 64, "value": 127}, "group": "control_change"}, {"time": 631, "annotation": {"number": 64, "value": 0}, "group": "control_change"}, {"time": 633, "annotation": {"number": 64, "value": 127}, "group": "control_change"}, {"time": 656, "annotation": {"number": 64, "value": 0}, "group": "control_change"}, {"time": 661, "annotation": {"number": 64, "value": 127}, "group": "control_change"}, {"time": 703, "annotation": {"number": 64, "value": 0}, "group": "control_change"}, {"time": 705, "annotation": {"number": 64, "value": 127}, "group": "control_change"}, {"time": 727, "annotation": {"number": 64, "value": 0}, "group": "control_change"}, {"time": 729, "annotation": {"number": 64, "value": 127}, "group": "control_change"}, {"time": 752, "annotation": {"number": 64, "value": 0}, "group": "control_change"}, {"time": 753, "annotation": {"number": 64, "value": 127}, "group": "control_change"}, {"time": 777, "annotation": {"number": 64, "value": 0}, "group": "control_change"}, {"time": 779, "annotation": {"number": 64, "value": 127}, "group": "control_change"}, {"time": 799, "annotation": {"number": 64, "value": 0}, "group": "control_change"}, {"time": 801, "annotation": {"number": 64, "value": 127}, "group": "control_change"}, {"time": 824, "annotation": {"number": 64, "value": 0}, "group": "control_change"}, {"time": 826, "annotation": {"number": 64, "value": 127}, "group": "control_change"}, {"time": 847, "annotation": {"number": 64, "value": 0}, "group": "control_change"}, {"time": 850, "annotation": {"number": 64, "value": 127}, "group": "control_change"}, {"time": 872, "annotation": {"number": 64, "value": 0}, "group": "control_change"}, {"time": 874, "annotation": {"number": 64, "value": 127}, "group": "control_change"}, {"time": 895, "annotation": {"number": 64, "value": 0}, "group": "control_change"}, {"time": 897, "annotation": {"number": 64, "value": 127}, "group": "control_change"}, {"time": 920, "annotation": {"number": 64, "value": 0}, "group": "control_change"}, {"time": 922, "annotation": {"number": 64, "value": 127}, "group": "control_change"}, {"time": 943, "annotation": {"number": 64, "value": 0}, "group": "control_change"}, {"time": 946, "annotation": {"number": 64, "value": 127}, "group": "control_change"}, {"time": 967, "annotation": {"number": 64, "value": 0}, "group": "control_change"}, {"time": 969, "annotation": {"number": 64, "value": 127}, "group": "control_change"}, {"time": 991, "annotation": {"number": 64, "value": 0}, "group": "control_change"}, {"time": 993, "annotation": {"number": 64, "value": 127}, "group": "control_change"}, {"time": 1015, "annotation": {"number": 64, "value": 0}, "group": "control_change"}, {"time": 1017, "annotation": {"number": 64, "value": 127}, "group": "control_change"}, {"time": 1039, "annotation": {"number": 64, "value": 0}, "group": "control_change"}, {"time": 1041, "annotation": {"number": 64, "value": 127}, "group": "control_change"}, {"time": 1046, "annotation": {"number": 64, "value": 127}, "group": "control_change"}, {"time": 1062, "annotation": {"number": 64, "value": 0}, "group": "control_change"}, {"time": 1065, "annotation": {"number": 64, "value": 127}, "group": "control_change"}, {"time": 1087, "annotation": {"number": 64, "value": 0}, "group": "control_change"}, {"time": 1089, "annotation": {"number": 64, "value": 127}, "group": "control_change"}, {"time": 1100, "annotation": {"number": 64, "value": 127}, "group": "control_change"}, {"time": 1113, "annotation": {"number": 64, "value": 0}, "group": "control_change"}, {"time": 1115, "annotation": {"number": 64, "value": 127}, "group": "control_change"}, {"time": 1134, "annotation": {"number": 64, "value": 0}, "group": "control_change"}, {"time": 1138, "annotation": {"number": 64, "value": 127}, "group": "control_change"}, {"time": 1159, "annotation": {"number": 64, "value": 0}, "group": "control_change"}, {"time": 1161, "annotation": {"number": 64, "value": 127}, "group": "control_change"}, {"time": 1183, "annotation": {"number": 64, "value": 0}, "group": "control_change"}, {"time": 1186, "annotation": {"number": 64, "value": 127}, "group": "control_change"}, {"time": 1208, "annotation": {"number": 64, "value": 0}, "group": "control_change"}, {"time": 1210, "annotation": {"number": 64, "value": 127}, "group": "control_change"}, {"time": 1230, "annotation": {"number": 64, "value": 0}, "group": "control_change"}, {"time": 1255, "annotation": {"number": 64, "value": 0}, "group": "control_change"}, {"time": 1258, "annotation": {"number": 64, "value": 127}, "group": "control_change"}, {"time": 1279, "annotation": {"number": 64, "value": 0}, "group": "control_change"}, {"time": 1282, "annotation": {"number": 64, "value": 127}, "group": "control_change"}, {"time": 1303, "annotation": {"number": 64, "value": 0}, "group": "control_change"}, {"time": 1305, "annotation": {"number": 64, "value": 127}, "group": "control_change"}, {"time": 1327, "annotation": {"number": 64, "value": 0}, "group": "control_change"}, {"time": 1329, "annotation": {"number": 64, "value": 127}, "group": "control_change"}, {"time": 1350, "annotation": {"number": 64, "value": 0}, "group": "control_change"}, {"time": 1353, "annotation": {"number": 64, "value": 127}, "group": "control_change"}, {"time": 1375, "annotation": {"number": 64, "value": 0}, "group": "control_change"}, {"time": 1377, "annotation": {"number": 64, "value": 127}, "group": "control_change"}, {"time": 1400, "annotation": {"number": 64, "value": 0}, "group": "control_change"}, {"time": 1401, "annotation": {"number": 64, "value": 127}, "group": "control_change"}, {"time": 1424, "annotation": {"number": 64, "value": 0}, "group": "control_change"}, {"time": 1447, "annotation": {"number": 64, "value": 0}, "group": "control_change"}, {"time": 1450, "annotation": {"number": 64, "value": 127}, "group": "control_change"}, {"time": 1471, "annotation": {"number": 64, "value": 0}, "group": "control_change"}, {"time": 1474, "annotation": {"number": 64, "value": 127}, "group": "control_change"}, {"time": 1495, "annotation": {"number": 64, "value": 0}, "group": "control_change"}, {"time": 1497, "annotation": {"number": 64, "value": 127}, "group": "control_change"}, {"time": 1519, "annotation": {"number": 64, "value": 0}, "group": "control_change"}, {"time": 1521, "annotation": {"number": 64, "value": 127}, "group": "control_change"}, {"time": 1542, "annotation": {"number": 64, "value": 0}, "group": "control_change"}, {"time": 1545, "annotation": {"number": 64, "value": 127}, "group": "control_change"}, {"time": 1567, "annotation": {"number": 64, "value": 0}, "group": "control_change"}, {"time": 1569, "annotation": {"number": 64, "value": 127}, "group": "control_change"}, {"time": 1592, "annotation": {"number": 64, "value": 0}, "group": "control_change"}, {"time": 1595, "annotation": {"number": 64, "value": 127}, "group": "control_change"}, {"time": 1616, "annotation": {"number": 64, "value": 0}, "group": "control_change"}, {"time": 1617, "annotation": {"number": 64, "value": 127}, "group": "control_change"}, {"time": 1665, "annotation": {"number": 64, "value": 0}, "group": "control_change"}, {"time": 1927, "annotation": {"number": 64, "value": 0}, "group": "control_change"}, {"time": 1930, "annotation": {"number": 64, "value": 127}, "group": "control_change"}, {"time": 1951, "annotation": {"number": 64, "value": 0}, "group": "control_change"}, {"time": 1954, "annotation": {"number": 64, "value": 127}, "group": "control_change"}, {"time": 1975, "annotation": {"number": 64, "value": 0}, "group": "control_change"}, {"time": 1977, "annotation": {"number": 64, "value": 127}, "group": "control_change"}, {"time": 1999, "annotation": {"number": 64, "value": 0}, "group": "control_change"}, {"time": 2001, "annotation": {"number": 64, "value": 127}, "group": "control_change"}, {"time": 2022, "annotation": {"number": 64, "value": 0}, "group": "control_change"}, {"time": 2025, "annotation": {"number": 64, "value": 127}, "group": "control_change"}, {"time": 2047, "annotation": {"number": 64, "value": 0}, "group": "control_change"}, {"time": 2049, "annotation": {"number": 64, "value": 127}, "group": "control_change"}, {"time": 2072, "annotation": {"number": 64, "value": 0}, "group": "control_change"}, {"time": 2073, "annotation": {"number": 64, "value": 127}, "group": "control_change"}, {"time": 2096, "annotation": {"number": 64, "value": 0}, "group": "control_change"}, {"time": 2119, "annotation": {"number": 64, "value": 0}, "group": "control_change"}, {"time": 2122, "annotation": {"number": 64, "value": 127}, "group": "control_change"}, {"time": 2143, "annotation": {"number": 64, "value": 0}, "group": "control_change"}, {"time": 2146, "annotation": {"number": 64, "value": 127}, "group": "control_change"}, {"time": 2167, "annotation": {"number": 64, "value": 0}, "group": "control_change"}, {"time": 2169, "annotation": {"number": 64, "value": 127}, "group": "control_change"}, {"time": 2191, "annotation": {"number": 64, "value": 0}, "group": "control_change"}, {"time": 2193, "annotation": {"number": 64, "value": 127}, "group": "control_change"}, {"time": 2214, "annotation": {"number": 64, "value": 0}, "group": "control_change"}, {"time": 2217, "annotation": {"number": 64, "value": 127}, "group": "control_change"}, {"time": 2239, "annotation": {"number": 64, "value": 0}, "group": "control_change"}, {"time": 2241, "annotation": {"number": 64, "value": 127}, "group": "control_change"}, {"time": 2264, "annotation": {"number": 64, "value": 0}, "group": "control_change"}, {"time": 2267, "annotation": {"number": 64, "value": 127}, "group": "control_change"}, {"time": 2288, "annotation": {"number": 64, "value": 0}, "group": "control_change"}, {"time": 2289, "annotation": {"number": 64, "value": 127}, "group": "control_change"}, {"time": 2337, "annotation": {"number": 64, "value": 0}, "group": "control_change"}, {"time": 2338, "annotation": {"number": 64, "value": 127}, "group": "control_change"}, {"time": 2385, "annotation": {"number": 64, "value": 0}, "group": "control_change"}, {"time": 2388, "annotation": {"number": 64, "value": 127}, "group": "control_change"}]}]}