{"metadata": {"schema_version": "0.2", "title": "None", "source_filename": "065.mid", "source_format": "midi"}, "resolution": 12, "tempos": [{"time": 0, "qpm": 92.00012880018032}], "time_signatures": [{"time": 0, "numerator": 1, "denominator": 4}], "tracks": [{"program": 0, "is_drum": false, "name": "MELODY", "notes": [{"time": 488, "pitch": 64, "duration": 6, "velocity": 85}, {"time": 494, "pitch": 69, "duration": 6, "velocity": 87}, {"time": 500, "pitch": 67, "duration": 54, "velocity": 100}, {"time": 554, "pitch": 64, "duration": 6, "velocity": 83}, {"time": 560, "pitch": 64, "duration": 6, "velocity": 81}, {"time": 566, "pitch": 67, "duration": 6, "velocity": 74}, {"time": 572, "pitch": 72, "duration": 6, "velocity": 76}, {"time": 578, "pitch": 71, "duration": 6, "velocity": 75}, {"time": 584, "pitch": 69, "duration": 6, "velocity": 65}, {"time": 590, "pitch": 67, "duration": 6, "velocity": 74}, {"time": 596, "pitch": 69, "duration": 12, "velocity": 81}, {"time": 608, "pitch": 67, "duration": 6, "velocity": 90}, {"time": 614, "pitch": 69, "duration": 18, "velocity": 98}, {"time": 632, "pitch": 67, "duration": 6, "velocity": 93}, {"time": 638, "pitch": 64, "duration": 42, "velocity": 77}, {"time": 680, "pitch": 64, "duration": 6, "velocity": 90}, {"time": 686, "pitch": 69, "duration": 6, "velocity": 98}, {"time": 692, "pitch": 67, "duration": 54, "velocity": 98}, {"time": 746, "pitch": 64, "duration": 6, "velocity": 83}, {"time": 752, "pitch": 64, "duration": 6, "velocity": 95}, {"time": 758, "pitch": 67, "duration": 6, "velocity": 90}, {"time": 764, "pitch": 72, "duration": 6, "velocity": 85}, {"time": 770, "pitch": 71, "duration": 6, "velocity": 86}, {"time": 776, "pitch": 69, "duration": 6, "velocity": 87}, {"time": 782, "pitch": 67, "duration": 6, "velocity": 90}, {"time": 788, "pitch": 69, "duration": 12, "velocity": 98}, {"time": 800, "pitch": 67, "duration": 6, "velocity": 100}, {"time": 806, "pitch": 69, "duration": 18, "velocity": 108}, {"time": 824, "pitch": 67, "duration": 6, "velocity": 111}, {"time": 830, "pitch": 72, "duration": 6, "velocity": 71}, {"time": 836, "pitch": 72, "duration": 6, "velocity": 108}, {"time": 842, "pitch": 69, "duration": 30, "velocity": 83}, {"time": 872, "pitch": 74, "duration": 6, "velocity": 114}, {"time": 878, "pitch": 72, "duration": 6, "velocity": 81}, {"time": 884, "pitch": 74, "duration": 6, "velocity": 111}, {"time": 890, "pitch": 74, "duration": 30, "velocity": 112}, {"time": 920, "pitch": 74, "duration": 6, "velocity": 104}, {"time": 926, "pitch": 72, "duration": 6, "velocity": 85}, {"time": 932, "pitch": 74, "duration": 6, "velocity": 112}, {"time": 938, "pitch": 74, "duration": 30, "velocity": 112}, {"time": 968, "pitch": 69, "duration": 6, "velocity": 85}, {"time": 974, "pitch": 71, "duration": 6, "velocity": 76}, {"time": 980, "pitch": 72, "duration": 6, "velocity": 81}, {"time": 986, "pitch": 72, "duration": 12, "velocity": 87}, {"time": 998, "pitch": 72, "duration": 6, "velocity": 86}, {"time": 1004, "pitch": 74, "duration": 7, "velocity": 95}, {"time": 1010, "pitch": 72, "duration": 12, "velocity": 81}, {"time": 1022, "pitch": 69, "duration": 6, "velocity": 75}, {"time": 1028, "pitch": 71, "duration": 36, "velocity": 100}, {"time": 1064, "pitch": 74, "duration": 6, "velocity": 108}, {"time": 1070, "pitch": 72, "duration": 6, "velocity": 83}, {"time": 1076, "pitch": 74, "duration": 6, "velocity": 111}, {"time": 1082, "pitch": 74, "duration": 24, "velocity": 108}, {"time": 1106, "pitch": 69, "duration": 6, "velocity": 77}, {"time": 1112, "pitch": 72, "duration": 6, "velocity": 74}, {"time": 1118, "pitch": 74, "duration": 6, "velocity": 85}, {"time": 1124, "pitch": 76, "duration": 6, "velocity": 83}, {"time": 1130, "pitch": 74, "duration": 30, "velocity": 108}, {"time": 1160, "pitch": 72, "duration": 6, "velocity": 86}, {"time": 1166, "pitch": 74, "duration": 6, "velocity": 77}, {"time": 1172, "pitch": 76, "duration": 6, "velocity": 95}, {"time": 1178, "pitch": 76, "duration": 6, "velocity": 81}, {"time": 1184, "pitch": 76, "duration": 6, "velocity": 95}, {"time": 1190, "pitch": 76, "duration": 6, "velocity": 85}, {"time": 1196, "pitch": 79, "duration": 12, "velocity": 104}, {"time": 1208, "pitch": 74, "duration": 6, "velocity": 95}, {"time": 1214, "pitch": 76, "duration": 18, "velocity": 114}, {"time": 1232, "pitch": 64, "duration": 6, "velocity": 95}, {"time": 1238, "pitch": 67, "duration": 6, "velocity": 76}, {"time": 1244, "pitch": 72, "duration": 6, "velocity": 104}, {"time": 1250, "pitch": 71, "duration": 6, "velocity": 83}, {"time": 1256, "pitch": 69, "duration": 6, "velocity": 77}, {"time": 1262, "pitch": 67, "duration": 6, "velocity": 86}, {"time": 1268, "pitch": 69, "duration": 60, "velocity": 104}, {"time": 1328, "pitch": 64, "duration": 6, "velocity": 95}, {"time": 1334, "pitch": 67, "duration": 6, "velocity": 93}, {"time": 1340, "pitch": 72, "duration": 6, "velocity": 93}, {"time": 1346, "pitch": 71, "duration": 6, "velocity": 98}, {"time": 1352, "pitch": 69, "duration": 6, "velocity": 93}, {"time": 1358, "pitch": 67, "duration": 6, "velocity": 83}, {"time": 1364, "pitch": 64, "duration": 60, "velocity": 95}, {"time": 1424, "pitch": 64, "duration": 6, "velocity": 86}, {"time": 1430, "pitch": 67, "duration": 6, "velocity": 81}, {"time": 1436, "pitch": 72, "duration": 6, "velocity": 95}, {"time": 1442, "pitch": 71, "duration": 6, "velocity": 85}, {"time": 1448, "pitch": 69, "duration": 6, "velocity": 81}, {"time": 1454, "pitch": 67, "duration": 6, "velocity": 79}, {"time": 1460, "pitch": 69, "duration": 60, "velocity": 104}, {"time": 1520, "pitch": 64, "duration": 6, "velocity": 79}, {"time": 1526, "pitch": 67, "duration": 6, "velocity": 74}, {"time": 1532, "pitch": 72, "duration": 7, "velocity": 98}, {"time": 1538, "pitch": 71, "duration": 7, "velocity": 79}, {"time": 1544, "pitch": 69, "duration": 7, "velocity": 79}, {"time": 1550, "pitch": 71, "duration": 7, "velocity": 79}, {"time": 1556, "pitch": 69, "duration": 72, "velocity": 77}, {"time": 1628, "pitch": 69, "duration": 12, "velocity": 95}, {"time": 1640, "pitch": 72, "duration": 12, "velocity": 81}, {"time": 1652, "pitch": 74, "duration": 72, "velocity": 111}, {"time": 1724, "pitch": 76, "duration": 12, "velocity": 104}, {"time": 1736, "pitch": 76, "duration": 12, "velocity": 112}, {"time": 1748, "pitch": 69, "duration": 72, "velocity": 98}, {"time": 1820, "pitch": 69, "duration": 12, "velocity": 104}, {"time": 1832, "pitch": 72, "duration": 12, "velocity": 104}, {"time": 1844, "pitch": 74, "duration": 72, "velocity": 111}, {"time": 1916, "pitch": 76, "duration": 12, "velocity": 104}, {"time": 1928, "pitch": 76, "duration": 12, "velocity": 112}, {"time": 1940, "pitch": 69, "duration": 64, "velocity": 111}, {"time": 1940, "pitch": 71, "duration": 64, "velocity": 100}, {"time": 2408, "pitch": 74, "duration": 6, "velocity": 114}, {"time": 2414, "pitch": 72, "duration": 6, "velocity": 81}, {"time": 2420, "pitch": 74, "duration": 6, "velocity": 111}, {"time": 2426, "pitch": 74, "duration": 30, "velocity": 112}, {"time": 2456, "pitch": 74, "duration": 6, "velocity": 104}, {"time": 2462, "pitch": 72, "duration": 6, "velocity": 85}, {"time": 2468, "pitch": 74, "duration": 6, "velocity": 112}, {"time": 2474, "pitch": 74, "duration": 30, "velocity": 112}, {"time": 2504, "pitch": 69, "duration": 6, "velocity": 85}, {"time": 2510, "pitch": 71, "duration": 6, "velocity": 76}, {"time": 2516, "pitch": 72, "duration": 6, "velocity": 81}, {"time": 2522, "pitch": 72, "duration": 12, "velocity": 87}, {"time": 2534, "pitch": 72, "duration": 6, "velocity": 86}, {"time": 2540, "pitch": 74, "duration": 7, "velocity": 95}, {"time": 2546, "pitch": 72, "duration": 12, "velocity": 81}, {"time": 2558, "pitch": 69, "duration": 6, "velocity": 75}, {"time": 2564, "pitch": 71, "duration": 36, "velocity": 100}, {"time": 2600, "pitch": 74, "duration": 6, "velocity": 108}, {"time": 2606, "pitch": 72, "duration": 6, "velocity": 83}, {"time": 2612, "pitch": 74, "duration": 6, "velocity": 111}, {"time": 2618, "pitch": 74, "duration": 24, "velocity": 108}, {"time": 2642, "pitch": 69, "duration": 6, "velocity": 77}, {"time": 2648, "pitch": 72, "duration": 6, "velocity": 74}, {"time": 2654, "pitch": 74, "duration": 6, "velocity": 85}, {"time": 2660, "pitch": 76, "duration": 6, "velocity": 83}, {"time": 2666, "pitch": 74, "duration": 30, "velocity": 108}, {"time": 2696, "pitch": 72, "duration": 6, "velocity": 86}, {"time": 2702, "pitch": 74, "duration": 6, "velocity": 77}, {"time": 2708, "pitch": 76, "duration": 6, "velocity": 95}, {"time": 2714, "pitch": 76, "duration": 6, "velocity": 81}, {"time": 2720, "pitch": 76, "duration": 6, "velocity": 95}, {"time": 2726, "pitch": 76, "duration": 6, "velocity": 85}, {"time": 2732, "pitch": 79, "duration": 12, "velocity": 104}, {"time": 2744, "pitch": 74, "duration": 6, "velocity": 95}, {"time": 2750, "pitch": 76, "duration": 18, "velocity": 114}, {"time": 2768, "pitch": 64, "duration": 6, "velocity": 95}, {"time": 2774, "pitch": 67, "duration": 6, "velocity": 76}, {"time": 2780, "pitch": 72, "duration": 6, "velocity": 104}, {"time": 2786, "pitch": 71, "duration": 6, "velocity": 83}, {"time": 2792, "pitch": 69, "duration": 6, "velocity": 77}, {"time": 2798, "pitch": 67, "duration": 6, "velocity": 86}, {"time": 2804, "pitch": 69, "duration": 60, "velocity": 104}, {"time": 2864, "pitch": 64, "duration": 6, "velocity": 95}, {"time": 2870, "pitch": 67, "duration": 6, "velocity": 93}, {"time": 2876, "pitch": 72, "duration": 6, "velocity": 93}, {"time": 2882, "pitch": 71, "duration": 6, "velocity": 98}, {"time": 2888, "pitch": 69, "duration": 6, "velocity": 93}, {"time": 2894, "pitch": 67, "duration": 6, "velocity": 83}, {"time": 2900, "pitch": 64, "duration": 60, "velocity": 95}, {"time": 2960, "pitch": 64, "duration": 6, "velocity": 86}, {"time": 2966, "pitch": 67, "duration": 6, "velocity": 81}, {"time": 2972, "pitch": 72, "duration": 6, "velocity": 95}, {"time": 2978, "pitch": 71, "duration": 6, "velocity": 85}, {"time": 2984, "pitch": 69, "duration": 6, "velocity": 81}, {"time": 2990, "pitch": 67, "duration": 6, "velocity": 79}, {"time": 2996, "pitch": 69, "duration": 60, "velocity": 104}, {"time": 3056, "pitch": 64, "duration": 6, "velocity": 79}, {"time": 3062, "pitch": 67, "duration": 6, "velocity": 74}, {"time": 3068, "pitch": 72, "duration": 7, "velocity": 98}, {"time": 3074, "pitch": 71, "duration": 7, "velocity": 79}, {"time": 3080, "pitch": 69, "duration": 7, "velocity": 79}, {"time": 3086, "pitch": 71, "duration": 7, "velocity": 79}, {"time": 3092, "pitch": 69, "duration": 72, "velocity": 77}, {"time": 3164, "pitch": 69, "duration": 12, "velocity": 95}, {"time": 3176, "pitch": 72, "duration": 12, "velocity": 81}, {"time": 3188, "pitch": 74, "duration": 72, "velocity": 111}, {"time": 3260, "pitch": 76, "duration": 12, "velocity": 104}, {"time": 3272, "pitch": 76, "duration": 12, "velocity": 112}, {"time": 3284, "pitch": 69, "duration": 72, "velocity": 98}, {"time": 3356, "pitch": 69, "duration": 12, "velocity": 104}, {"time": 3368, "pitch": 72, "duration": 12, "velocity": 104}, {"time": 3380, "pitch": 74, "duration": 72, "velocity": 111}, {"time": 3452, "pitch": 76, "duration": 12, "velocity": 104}, {"time": 3464, "pitch": 76, "duration": 16, "velocity": 112}, {"time": 4328, "pitch": 74, "duration": 6, "velocity": 114}, {"time": 4334, "pitch": 72, "duration": 6, "velocity": 81}, {"time": 4340, "pitch": 74, "duration": 6, "velocity": 111}, {"time": 4346, "pitch": 74, "duration": 42, "velocity": 112}, {"time": 4388, "pitch": 74, "duration": 8, "velocity": 108}, {"time": 4394, "pitch": 72, "duration": 6, "velocity": 74}, {"time": 4400, "pitch": 74, "duration": 6, "velocity": 95}, {"time": 4406, "pitch": 69, "duration": 30, "velocity": 100}, {"time": 4436, "pitch": 72, "duration": 12, "velocity": 90}, {"time": 4448, "pitch": 69, "duration": 12, "velocity": 93}, {"time": 4460, "pitch": 72, "duration": 6, "velocity": 100}, {"time": 4466, "pitch": 72, "duration": 6, "velocity": 104}, {"time": 4472, "pitch": 69, "duration": 9, "velocity": 87}, {"time": 4481, "pitch": 69, "duration": 33, "velocity": 100}, {"time": 4514, "pitch": 74, "duration": 6, "velocity": 95}, {"time": 4520, "pitch": 74, "duration": 6, "velocity": 112}, {"time": 4526, "pitch": 72, "duration": 6, "velocity": 86}, {"time": 4532, "pitch": 74, "duration": 6, "velocity": 112}, {"time": 4538, "pitch": 74, "duration": 6, "velocity": 112}, {"time": 4544, "pitch": 72, "duration": 6, "velocity": 95}, {"time": 4550, "pitch": 74, "duration": 30, "velocity": 112}, {"time": 4580, "pitch": 74, "duration": 6, "velocity": 108}, {"time": 4586, "pitch": 74, "duration": 6, "velocity": 98}, {"time": 4592, "pitch": 72, "duration": 6, "velocity": 87}, {"time": 4598, "pitch": 74, "duration": 18, "velocity": 112}, {"time": 4616, "pitch": 72, "duration": 6, "velocity": 86}, {"time": 4622, "pitch": 74, "duration": 6, "velocity": 77}, {"time": 4628, "pitch": 76, "duration": 6, "velocity": 95}, {"time": 4634, "pitch": 76, "duration": 6, "velocity": 81}, {"time": 4640, "pitch": 76, "duration": 6, "velocity": 95}, {"time": 4646, "pitch": 76, "duration": 6, "velocity": 85}, {"time": 4652, "pitch": 79, "duration": 12, "velocity": 104}, {"time": 4664, "pitch": 74, "duration": 6, "velocity": 95}, {"time": 4670, "pitch": 76, "duration": 66, "velocity": 114}, {"time": 4736, "pitch": 64, "duration": 6, "velocity": 95}, {"time": 4742, "pitch": 67, "duration": 6, "velocity": 76}, {"time": 4748, "pitch": 72, "duration": 6, "velocity": 104}, {"time": 4754, "pitch": 71, "duration": 6, "velocity": 83}, {"time": 4760, "pitch": 69, "duration": 6, "velocity": 77}, {"time": 4766, "pitch": 67, "duration": 6, "velocity": 86}, {"time": 4772, "pitch": 69, "duration": 60, "velocity": 104}, {"time": 4832, "pitch": 64, "duration": 6, "velocity": 95}, {"time": 4838, "pitch": 67, "duration": 6, "velocity": 93}, {"time": 4844, "pitch": 72, "duration": 6, "velocity": 93}, {"time": 4850, "pitch": 71, "duration": 6, "velocity": 98}, {"time": 4856, "pitch": 69, "duration": 6, "velocity": 93}, {"time": 4862, "pitch": 67, "duration": 6, "velocity": 83}, {"time": 4868, "pitch": 64, "duration": 60, "velocity": 95}, {"time": 4928, "pitch": 64, "duration": 6, "velocity": 86}, {"time": 4934, "pitch": 67, "duration": 6, "velocity": 81}, {"time": 4940, "pitch": 72, "duration": 6, "velocity": 95}, {"time": 4946, "pitch": 71, "duration": 6, "velocity": 85}, {"time": 4952, "pitch": 69, "duration": 6, "velocity": 81}, {"time": 4958, "pitch": 67, "duration": 6, "velocity": 79}, {"time": 4964, "pitch": 69, "duration": 60, "velocity": 104}, {"time": 5024, "pitch": 64, "duration": 6, "velocity": 79}, {"time": 5030, "pitch": 67, "duration": 6, "velocity": 74}, {"time": 5036, "pitch": 72, "duration": 7, "velocity": 98}, {"time": 5042, "pitch": 71, "duration": 7, "velocity": 79}, {"time": 5048, "pitch": 69, "duration": 7, "velocity": 79}, {"time": 5054, "pitch": 71, "duration": 7, "velocity": 79}, {"time": 5060, "pitch": 69, "duration": 60, "velocity": 77}, {"time": 5120, "pitch": 64, "duration": 6, "velocity": 95}, {"time": 5126, "pitch": 67, "duration": 6, "velocity": 76}, {"time": 5132, "pitch": 72, "duration": 6, "velocity": 104}, {"time": 5138, "pitch": 71, "duration": 6, "velocity": 83}, {"time": 5144, "pitch": 69, "duration": 6, "velocity": 77}, {"time": 5150, "pitch": 67, "duration": 6, "velocity": 86}, {"time": 5156, "pitch": 69, "duration": 60, "velocity": 104}, {"time": 5216, "pitch": 64, "duration": 6, "velocity": 95}, {"time": 5222, "pitch": 67, "duration": 6, "velocity": 93}, {"time": 5228, "pitch": 72, "duration": 6, "velocity": 93}, {"time": 5234, "pitch": 71, "duration": 6, "velocity": 98}, {"time": 5240, "pitch": 69, "duration": 6, "velocity": 93}, {"time": 5246, "pitch": 67, "duration": 6, "velocity": 83}, {"time": 5252, "pitch": 64, "duration": 60, "velocity": 95}, {"time": 5312, "pitch": 64, "duration": 6, "velocity": 86}, {"time": 5318, "pitch": 67, "duration": 6, "velocity": 81}, {"time": 5324, "pitch": 72, "duration": 6, "velocity": 95}, {"time": 5330, "pitch": 71, "duration": 6, "velocity": 85}, {"time": 5336, "pitch": 69, "duration": 6, "velocity": 81}, {"time": 5342, "pitch": 67, "duration": 6, "velocity": 79}, {"time": 5348, "pitch": 69, "duration": 60, "velocity": 104}, {"time": 5408, "pitch": 64, "duration": 6, "velocity": 79}, {"time": 5414, "pitch": 67, "duration": 6, "velocity": 74}, {"time": 5420, "pitch": 72, "duration": 7, "velocity": 98}, {"time": 5426, "pitch": 71, "duration": 7, "velocity": 79}, {"time": 5432, "pitch": 69, "duration": 7, "velocity": 79}, {"time": 5438, "pitch": 71, "duration": 7, "velocity": 79}, {"time": 5444, "pitch": 69, "duration": 60, "velocity": 77}, {"time": 5504, "pitch": 64, "duration": 6, "velocity": 79}, {"time": 5510, "pitch": 67, "duration": 6, "velocity": 68}, {"time": 5516, "pitch": 72, "duration": 7, "velocity": 73}, {"time": 5522, "pitch": 71, "duration": 7, "velocity": 79}, {"time": 5528, "pitch": 69, "duration": 7, "velocity": 64}, {"time": 5534, "pitch": 67, "duration": 7, "velocity": 74}, {"time": 5540, "pitch": 69, "duration": 60, "velocity": 83}, {"time": 5600, "pitch": 64, "duration": 10, "velocity": 70}, {"time": 5609, "pitch": 67, "duration": 10, "velocity": 67}, {"time": 5618, "pitch": 72, "duration": 11, "velocity": 87}, {"time": 5627, "pitch": 71, "duration": 12, "velocity": 75}, {"time": 5639, "pitch": 69, "duration": 13, "velocity": 98}, {"time": 5651, "pitch": 67, "duration": 15, "velocity": 76}, {"time": 5663, "pitch": 69, "duration": 133, "velocity": 75}]}, {"program": 0, "is_drum": false, "name": "PIANO", "notes": [{"time": 116, "pitch": 45, "duration": 84, "velocity": 59}, {"time": 116, "pitch": 52, "duration": 48, "velocity": 74}, {"time": 116, "pitch": 57, "duration": 60, "velocity": 60}, {"time": 116, "pitch": 67, "duration": 11, "velocity": 79}, {"time": 116, "pitch": 72, "duration": 10, "velocity": 90}, {"time": 128, "pitch": 71, "duration": 6, "velocity": 86}, {"time": 134, "pitch": 72, "duration": 4, "velocity": 77}, {"time": 140, "pitch": 74, "duration": 4, "velocity": 93}, {"time": 146, "pitch": 69, "duration": 7, "velocity": 73}, {"time": 152, "pitch": 64, "duration": 6, "velocity": 72}, {"time": 158, "pitch": 72, "duration": 16, "velocity": 75}, {"time": 170, "pitch": 52, "duration": 8, "velocity": 63}, {"time": 176, "pitch": 55, "duration": 6, "velocity": 70}, {"time": 182, "pitch": 60, "duration": 27, "velocity": 75}, {"time": 194, "pitch": 67, "duration": 10, "velocity": 65}, {"time": 194, "pitch": 72, "duration": 10, "velocity": 68}, {"time": 212, "pitch": 48, "duration": 80, "velocity": 74}, {"time": 212, "pitch": 55, "duration": 77, "velocity": 70}, {"time": 212, "pitch": 72, "duration": 11, "velocity": 98}, {"time": 224, "pitch": 71, "duration": 3, "velocity": 83}, {"time": 230, "pitch": 72, "duration": 2, "velocity": 59}, {"time": 236, "pitch": 74, "duration": 6, "velocity": 90}, {"time": 242, "pitch": 69, "duration": 6, "velocity": 68}, {"time": 248, "pitch": 64, "duration": 8, "velocity": 79}, {"time": 254, "pitch": 79, "duration": 18, "velocity": 117}, {"time": 266, "pitch": 62, "duration": 23, "velocity": 64}, {"time": 278, "pitch": 64, "duration": 25, "velocity": 67}, {"time": 308, "pitch": 45, "duration": 84, "velocity": 59}, {"time": 308, "pitch": 52, "duration": 48, "velocity": 74}, {"time": 308, "pitch": 57, "duration": 60, "velocity": 60}, {"time": 308, "pitch": 67, "duration": 11, "velocity": 79}, {"time": 308, "pitch": 72, "duration": 10, "velocity": 90}, {"time": 320, "pitch": 71, "duration": 6, "velocity": 86}, {"time": 326, "pitch": 72, "duration": 4, "velocity": 77}, {"time": 332, "pitch": 74, "duration": 4, "velocity": 93}, {"time": 338, "pitch": 69, "duration": 7, "velocity": 73}, {"time": 344, "pitch": 64, "duration": 6, "velocity": 72}, {"time": 350, "pitch": 72, "duration": 16, "velocity": 75}, {"time": 362, "pitch": 52, "duration": 8, "velocity": 63}, {"time": 368, "pitch": 55, "duration": 6, "velocity": 70}, {"time": 374, "pitch": 60, "duration": 27, "velocity": 75}, {"time": 386, "pitch": 67, "duration": 10, "velocity": 65}, {"time": 386, "pitch": 72, "duration": 10, "velocity": 68}, {"time": 404, "pitch": 45, "duration": 80, "velocity": 74}, {"time": 404, "pitch": 55, "duration": 77, "velocity": 70}, {"time": 404, "pitch": 72, "duration": 11, "velocity": 98}, {"time": 416, "pitch": 71, "duration": 3, "velocity": 83}, {"time": 422, "pitch": 72, "duration": 2, "velocity": 59}, {"time": 428, "pitch": 74, "duration": 6, "velocity": 90}, {"time": 434, "pitch": 69, "duration": 6, "velocity": 68}, {"time": 440, "pitch": 64, "duration": 8, "velocity": 79}, {"time": 446, "pitch": 79, "duration": 18, "velocity": 117}, {"time": 458, "pitch": 62, "duration": 23, "velocity": 64}, {"time": 470, "pitch": 64, "duration": 18, "velocity": 67}, {"time": 500, "pitch": 48, "duration": 13, "velocity": 93}, {"time": 506, "pitch": 60, "duration": 1, "velocity": 62}, {"time": 506, "pitch": 64, "duration": 2, "velocity": 83}, {"time": 506, "pitch": 67, "duration": 1, "velocity": 76}, {"time": 518, "pitch": 43, "duration": 3, "velocity": 76}, {"time": 518, "pitch": 60, "duration": 1, "velocity": 67}, {"time": 518, "pitch": 64, "duration": 2, "velocity": 74}, {"time": 518, "pitch": 67, "duration": 2, "velocity": 74}, {"time": 524, "pitch": 43, "duration": 13, "velocity": 81}, {"time": 530, "pitch": 60, "duration": 2, "velocity": 68}, {"time": 530, "pitch": 64, "duration": 2, "velocity": 79}, {"time": 530, "pitch": 67, "duration": 2, "velocity": 75}, {"time": 542, "pitch": 43, "duration": 2, "velocity": 77}, {"time": 542, "pitch": 60, "duration": 2, "velocity": 72}, {"time": 542, "pitch": 64, "duration": 2, "velocity": 85}, {"time": 542, "pitch": 67, "duration": 2, "velocity": 83}, {"time": 548, "pitch": 48, "duration": 13, "velocity": 98}, {"time": 554, "pitch": 60, "duration": 2, "velocity": 67}, {"time": 554, "pitch": 64, "duration": 2, "velocity": 77}, {"time": 554, "pitch": 67, "duration": 2, "velocity": 85}, {"time": 566, "pitch": 43, "duration": 2, "velocity": 87}, {"time": 566, "pitch": 60, "duration": 2, "velocity": 69}, {"time": 566, "pitch": 64, "duration": 2, "velocity": 79}, {"time": 566, "pitch": 67, "duration": 2, "velocity": 86}, {"time": 578, "pitch": 43, "duration": 4, "velocity": 75}, {"time": 578, "pitch": 60, "duration": 2, "velocity": 70}, {"time": 578, "pitch": 64, "duration": 2, "velocity": 74}, {"time": 578, "pitch": 67, "duration": 2, "velocity": 76}, {"time": 584, "pitch": 48, "duration": 7, "velocity": 112}, {"time": 590, "pitch": 47, "duration": 3, "velocity": 77}, {"time": 590, "pitch": 60, "duration": 2, "velocity": 69}, {"time": 590, "pitch": 64, "duration": 2, "velocity": 76}, {"time": 590, "pitch": 67, "duration": 2, "velocity": 83}, {"time": 596, "pitch": 45, "duration": 12, "velocity": 77}, {"time": 602, "pitch": 64, "duration": 2, "velocity": 67}, {"time": 602, "pitch": 67, "duration": 1, "velocity": 63}, {"time": 602, "pitch": 69, "duration": 1, "velocity": 56}, {"time": 602, "pitch": 72, "duration": 2, "velocity": 67}, {"time": 614, "pitch": 40, "duration": 2, "velocity": 75}, {"time": 614, "pitch": 64, "duration": 2, "velocity": 73}, {"time": 614, "pitch": 69, "duration": 2, "velocity": 73}, {"time": 614, "pitch": 72, "duration": 2, "velocity": 71}, {"time": 620, "pitch": 40, "duration": 12, "velocity": 79}, {"time": 626, "pitch": 64, "duration": 2, "velocity": 72}, {"time": 626, "pitch": 69, "duration": 2, "velocity": 73}, {"time": 626, "pitch": 72, "duration": 1, "velocity": 60}, {"time": 638, "pitch": 40, "duration": 3, "velocity": 76}, {"time": 638, "pitch": 64, "duration": 2, "velocity": 74}, {"time": 638, "pitch": 69, "duration": 2, "velocity": 76}, {"time": 638, "pitch": 72, "duration": 2, "velocity": 81}, {"time": 644, "pitch": 45, "duration": 15, "velocity": 77}, {"time": 650, "pitch": 64, "duration": 2, "velocity": 77}, {"time": 650, "pitch": 69, "duration": 2, "velocity": 76}, {"time": 650, "pitch": 72, "duration": 1, "velocity": 81}, {"time": 662, "pitch": 40, "duration": 2, "velocity": 77}, {"time": 662, "pitch": 64, "duration": 2, "velocity": 74}, {"time": 662, "pitch": 69, "duration": 2, "velocity": 76}, {"time": 662, "pitch": 72, "duration": 2, "velocity": 75}, {"time": 668, "pitch": 40, "duration": 12, "velocity": 77}, {"time": 674, "pitch": 64, "duration": 2, "velocity": 81}, {"time": 674, "pitch": 69, "duration": 2, "velocity": 81}, {"time": 674, "pitch": 72, "duration": 2, "velocity": 83}, {"time": 680, "pitch": 45, "duration": 7, "velocity": 77}, {"time": 686, "pitch": 52, "duration": 3, "velocity": 68}, {"time": 686, "pitch": 64, "duration": 2, "velocity": 83}, {"time": 686, "pitch": 69, "duration": 2, "velocity": 83}, {"time": 686, "pitch": 72, "duration": 2, "velocity": 83}, {"time": 692, "pitch": 48, "duration": 13, "velocity": 74}, {"time": 698, "pitch": 60, "duration": 2, "velocity": 71}, {"time": 698, "pitch": 64, "duration": 2, "velocity": 86}, {"time": 698, "pitch": 67, "duration": 2, "velocity": 87}, {"time": 710, "pitch": 43, "duration": 2, "velocity": 81}, {"time": 710, "pitch": 60, "duration": 2, "velocity": 66}, {"time": 710, "pitch": 64, "duration": 2, "velocity": 81}, {"time": 710, "pitch": 67, "duration": 2, "velocity": 95}, {"time": 716, "pitch": 43, "duration": 13, "velocity": 76}, {"time": 722, "pitch": 60, "duration": 2, "velocity": 74}, {"time": 722, "pitch": 64, "duration": 2, "velocity": 87}, {"time": 722, "pitch": 67, "duration": 1, "velocity": 95}, {"time": 734, "pitch": 43, "duration": 3, "velocity": 76}, {"time": 734, "pitch": 60, "duration": 2, "velocity": 74}, {"time": 734, "pitch": 64, "duration": 2, "velocity": 83}, {"time": 734, "pitch": 67, "duration": 2, "velocity": 95}, {"time": 740, "pitch": 48, "duration": 14, "velocity": 98}, {"time": 746, "pitch": 60, "duration": 2, "velocity": 71}, {"time": 746, "pitch": 64, "duration": 2, "velocity": 85}, {"time": 746, "pitch": 67, "duration": 2, "velocity": 95}, {"time": 758, "pitch": 43, "duration": 2, "velocity": 79}, {"time": 758, "pitch": 60, "duration": 2, "velocity": 81}, {"time": 758, "pitch": 64, "duration": 2, "velocity": 85}, {"time": 758, "pitch": 67, "duration": 1, "velocity": 93}, {"time": 764, "pitch": 43, "duration": 9, "velocity": 85}, {"time": 770, "pitch": 60, "duration": 2, "velocity": 81}, {"time": 770, "pitch": 64, "duration": 2, "velocity": 87}, {"time": 770, "pitch": 67, "duration": 1, "velocity": 95}, {"time": 776, "pitch": 48, "duration": 4, "velocity": 98}, {"time": 782, "pitch": 50, "duration": 4, "velocity": 77}, {"time": 782, "pitch": 60, "duration": 2, "velocity": 74}, {"time": 782, "pitch": 64, "duration": 2, "velocity": 86}, {"time": 782, "pitch": 67, "duration": 2, "velocity": 95}, {"time": 788, "pitch": 45, "duration": 13, "velocity": 95}, {"time": 794, "pitch": 69, "duration": 2, "velocity": 69}, {"time": 794, "pitch": 72, "duration": 2, "velocity": 74}, {"time": 794, "pitch": 76, "duration": 2, "velocity": 68}, {"time": 800, "pitch": 69, "duration": 1, "velocity": 51}, {"time": 806, "pitch": 40, "duration": 2, "velocity": 60}, {"time": 806, "pitch": 69, "duration": 2, "velocity": 74}, {"time": 806, "pitch": 72, "duration": 2, "velocity": 75}, {"time": 806, "pitch": 76, "duration": 2, "velocity": 83}, {"time": 812, "pitch": 40, "duration": 10, "velocity": 86}, {"time": 818, "pitch": 69, "duration": 2, "velocity": 72}, {"time": 818, "pitch": 72, "duration": 2, "velocity": 79}, {"time": 818, "pitch": 76, "duration": 2, "velocity": 74}, {"time": 830, "pitch": 52, "duration": 2, "velocity": 86}, {"time": 830, "pitch": 69, "duration": 2, "velocity": 81}, {"time": 830, "pitch": 72, "duration": 2, "velocity": 85}, {"time": 830, "pitch": 76, "duration": 2, "velocity": 90}, {"time": 836, "pitch": 57, "duration": 17, "velocity": 93}, {"time": 842, "pitch": 69, "duration": 4, "velocity": 83}, {"time": 842, "pitch": 72, "duration": 3, "velocity": 81}, {"time": 842, "pitch": 76, "duration": 3, "velocity": 87}, {"time": 854, "pitch": 57, "duration": 2, "velocity": 79}, {"time": 854, "pitch": 69, "duration": 10, "velocity": 81}, {"time": 854, "pitch": 72, "duration": 9, "velocity": 79}, {"time": 854, "pitch": 76, "duration": 9, "velocity": 87}, {"time": 866, "pitch": 57, "duration": 6, "velocity": 87}, {"time": 866, "pitch": 69, "duration": 2, "velocity": 86}, {"time": 866, "pitch": 72, "duration": 2, "velocity": 86}, {"time": 866, "pitch": 76, "duration": 1, "velocity": 90}, {"time": 872, "pitch": 55, "duration": 3, "velocity": 65}, {"time": 878, "pitch": 53, "duration": 2, "velocity": 79}, {"time": 878, "pitch": 69, "duration": 2, "velocity": 86}, {"time": 878, "pitch": 72, "duration": 2, "velocity": 86}, {"time": 878, "pitch": 76, "duration": 2, "velocity": 76}, {"time": 884, "pitch": 50, "duration": 13, "velocity": 93}, {"time": 890, "pitch": 62, "duration": 2, "velocity": 79}, {"time": 890, "pitch": 65, "duration": 2, "velocity": 85}, {"time": 890, "pitch": 69, "duration": 2, "velocity": 85}, {"time": 902, "pitch": 45, "duration": 2, "velocity": 95}, {"time": 902, "pitch": 62, "duration": 2, "velocity": 75}, {"time": 902, "pitch": 65, "duration": 2, "velocity": 85}, {"time": 902, "pitch": 69, "duration": 1, "velocity": 79}, {"time": 908, "pitch": 45, "duration": 14, "velocity": 76}, {"time": 914, "pitch": 62, "duration": 2, "velocity": 79}, {"time": 914, "pitch": 65, "duration": 2, "velocity": 86}, {"time": 914, "pitch": 69, "duration": 1, "velocity": 85}, {"time": 926, "pitch": 45, "duration": 4, "velocity": 69}, {"time": 926, "pitch": 62, "duration": 2, "velocity": 79}, {"time": 926, "pitch": 65, "duration": 2, "velocity": 90}, {"time": 926, "pitch": 69, "duration": 2, "velocity": 87}, {"time": 932, "pitch": 50, "duration": 14, "velocity": 100}, {"time": 938, "pitch": 62, "duration": 2, "velocity": 81}, {"time": 938, "pitch": 65, "duration": 2, "velocity": 85}, {"time": 938, "pitch": 69, "duration": 1, "velocity": 93}, {"time": 950, "pitch": 45, "duration": 3, "velocity": 74}, {"time": 950, "pitch": 62, "duration": 2, "velocity": 79}, {"time": 950, "pitch": 65, "duration": 2, "velocity": 95}, {"time": 950, "pitch": 69, "duration": 2, "velocity": 95}, {"time": 956, "pitch": 45, "duration": 13, "velocity": 79}, {"time": 962, "pitch": 62, "duration": 2, "velocity": 74}, {"time": 962, "pitch": 65, "duration": 2, "velocity": 86}, {"time": 962, "pitch": 69, "duration": 2, "velocity": 87}, {"time": 968, "pitch": 50, "duration": 8, "velocity": 90}, {"time": 974, "pitch": 62, "duration": 2, "velocity": 79}, {"time": 974, "pitch": 65, "duration": 2, "velocity": 90}, {"time": 974, "pitch": 69, "duration": 2, "velocity": 90}, {"time": 980, "pitch": 57, "duration": 14, "velocity": 85}, {"time": 986, "pitch": 64, "duration": 2, "velocity": 73}, {"time": 986, "pitch": 69, "duration": 2, "velocity": 73}, {"time": 986, "pitch": 72, "duration": 2, "velocity": 74}, {"time": 998, "pitch": 52, "duration": 2, "velocity": 90}, {"time": 998, "pitch": 64, "duration": 2, "velocity": 81}, {"time": 998, "pitch": 69, "duration": 2, "velocity": 77}, {"time": 998, "pitch": 72, "duration": 1, "velocity": 86}, {"time": 1004, "pitch": 52, "duration": 13, "velocity": 83}, {"time": 1010, "pitch": 64, "duration": 2, "velocity": 79}, {"time": 1010, "pitch": 69, "duration": 2, "velocity": 75}, {"time": 1010, "pitch": 72, "duration": 1, "velocity": 69}, {"time": 1022, "pitch": 52, "duration": 3, "velocity": 77}, {"time": 1022, "pitch": 64, "duration": 2, "velocity": 83}, {"time": 1022, "pitch": 69, "duration": 2, "velocity": 77}, {"time": 1022, "pitch": 72, "duration": 1, "velocity": 79}, {"time": 1028, "pitch": 52, "duration": 16, "velocity": 86}, {"time": 1028, "pitch": 64, "duration": 38, "velocity": 83}, {"time": 1028, "pitch": 68, "duration": 37, "velocity": 75}, {"time": 1028, "pitch": 71, "duration": 37, "velocity": 81}, {"time": 1046, "pitch": 47, "duration": 2, "velocity": 73}, {"time": 1052, "pitch": 47, "duration": 7, "velocity": 87}, {"time": 1058, "pitch": 52, "duration": 14, "velocity": 87}, {"time": 1076, "pitch": 50, "duration": 13, "velocity": 93}, {"time": 1082, "pitch": 62, "duration": 2, "velocity": 72}, {"time": 1082, "pitch": 65, "duration": 2, "velocity": 85}, {"time": 1082, "pitch": 69, "duration": 2, "velocity": 74}, {"time": 1094, "pitch": 45, "duration": 2, "velocity": 68}, {"time": 1094, "pitch": 62, "duration": 2, "velocity": 81}, {"time": 1094, "pitch": 65, "duration": 2, "velocity": 90}, {"time": 1094, "pitch": 69, "duration": 2, "velocity": 85}, {"time": 1100, "pitch": 45, "duration": 15, "velocity": 81}, {"time": 1100, "pitch": 65, "duration": 1, "velocity": 58}, {"time": 1106, "pitch": 62, "duration": 2, "velocity": 75}, {"time": 1106, "pitch": 65, "duration": 2, "velocity": 87}, {"time": 1106, "pitch": 69, "duration": 2, "velocity": 86}, {"time": 1118, "pitch": 45, "duration": 3, "velocity": 68}, {"time": 1118, "pitch": 62, "duration": 2, "velocity": 77}, {"time": 1118, "pitch": 65, "duration": 2, "velocity": 87}, {"time": 1118, "pitch": 69, "duration": 2, "velocity": 86}, {"time": 1124, "pitch": 50, "duration": 14, "velocity": 108}, {"time": 1130, "pitch": 62, "duration": 2, "velocity": 79}, {"time": 1130, "pitch": 65, "duration": 2, "velocity": 90}, {"time": 1130, "pitch": 69, "duration": 1, "velocity": 86}, {"time": 1142, "pitch": 45, "duration": 2, "velocity": 93}, {"time": 1142, "pitch": 62, "duration": 2, "velocity": 76}, {"time": 1142, "pitch": 65, "duration": 2, "velocity": 90}, {"time": 1142, "pitch": 69, "duration": 2, "velocity": 90}, {"time": 1148, "pitch": 45, "duration": 11, "velocity": 81}, {"time": 1154, "pitch": 62, "duration": 2, "velocity": 73}, {"time": 1154, "pitch": 65, "duration": 2, "velocity": 81}, {"time": 1154, "pitch": 69, "duration": 2, "velocity": 87}, {"time": 1160, "pitch": 50, "duration": 8, "velocity": 117}, {"time": 1166, "pitch": 62, "duration": 2, "velocity": 73}, {"time": 1166, "pitch": 65, "duration": 2, "velocity": 87}, {"time": 1166, "pitch": 69, "duration": 2, "velocity": 86}, {"time": 1172, "pitch": 52, "duration": 2, "velocity": 95}, {"time": 1172, "pitch": 64, "duration": 2, "velocity": 67}, {"time": 1172, "pitch": 68, "duration": 2, "velocity": 71}, {"time": 1172, "pitch": 71, "duration": 2, "velocity": 79}, {"time": 1178, "pitch": 52, "duration": 2, "velocity": 98}, {"time": 1178, "pitch": 64, "duration": 2, "velocity": 74}, {"time": 1178, "pitch": 68, "duration": 2, "velocity": 77}, {"time": 1178, "pitch": 71, "duration": 2, "velocity": 86}, {"time": 1184, "pitch": 52, "duration": 2, "velocity": 95}, {"time": 1184, "pitch": 64, "duration": 2, "velocity": 72}, {"time": 1184, "pitch": 68, "duration": 2, "velocity": 77}, {"time": 1184, "pitch": 71, "duration": 2, "velocity": 83}, {"time": 1190, "pitch": 52, "duration": 2, "velocity": 100}, {"time": 1190, "pitch": 64, "duration": 2, "velocity": 68}, {"time": 1190, "pitch": 68, "duration": 2, "velocity": 76}, {"time": 1190, "pitch": 71, "duration": 2, "velocity": 83}, {"time": 1196, "pitch": 52, "duration": 2, "velocity": 98}, {"time": 1196, "pitch": 64, "duration": 2, "velocity": 68}, {"time": 1196, "pitch": 68, "duration": 2, "velocity": 76}, {"time": 1196, "pitch": 71, "duration": 2, "velocity": 85}, {"time": 1202, "pitch": 52, "duration": 2, "velocity": 104}, {"time": 1202, "pitch": 64, "duration": 2, "velocity": 69}, {"time": 1202, "pitch": 68, "duration": 2, "velocity": 77}, {"time": 1202, "pitch": 71, "duration": 2, "velocity": 83}, {"time": 1208, "pitch": 52, "duration": 2, "velocity": 104}, {"time": 1208, "pitch": 64, "duration": 2, "velocity": 71}, {"time": 1208, "pitch": 68, "duration": 2, "velocity": 76}, {"time": 1208, "pitch": 71, "duration": 2, "velocity": 85}, {"time": 1214, "pitch": 52, "duration": 2, "velocity": 104}, {"time": 1214, "pitch": 64, "duration": 2, "velocity": 69}, {"time": 1214, "pitch": 68, "duration": 2, "velocity": 75}, {"time": 1214, "pitch": 71, "duration": 2, "velocity": 85}, {"time": 1220, "pitch": 52, "duration": 44, "velocity": 114}, {"time": 1220, "pitch": 64, "duration": 34, "velocity": 93}, {"time": 1220, "pitch": 68, "duration": 34, "velocity": 98}, {"time": 1220, "pitch": 71, "duration": 34, "velocity": 104}, {"time": 1256, "pitch": 64, "duration": 8, "velocity": 72}, {"time": 1256, "pitch": 68, "duration": 9, "velocity": 69}, {"time": 1256, "pitch": 71, "duration": 9, "velocity": 69}, {"time": 1268, "pitch": 45, "duration": 13, "velocity": 69}, {"time": 1268, "pitch": 57, "duration": 13, "velocity": 69}, {"time": 1274, "pitch": 69, "duration": 2, "velocity": 79}, {"time": 1274, "pitch": 72, "duration": 2, "velocity": 86}, {"time": 1274, "pitch": 76, "duration": 1, "velocity": 81}, {"time": 1286, "pitch": 40, "duration": 3, "velocity": 85}, {"time": 1286, "pitch": 52, "duration": 3, "velocity": 85}, {"time": 1286, "pitch": 69, "duration": 2, "velocity": 74}, {"time": 1286, "pitch": 72, "duration": 2, "velocity": 79}, {"time": 1286, "pitch": 76, "duration": 2, "velocity": 76}, {"time": 1292, "pitch": 40, "duration": 13, "velocity": 83}, {"time": 1292, "pitch": 52, "duration": 13, "velocity": 83}, {"time": 1298, "pitch": 69, "duration": 2, "velocity": 81}, {"time": 1298, "pitch": 72, "duration": 2, "velocity": 85}, {"time": 1298, "pitch": 76, "duration": 2, "velocity": 81}, {"time": 1310, "pitch": 40, "duration": 3, "velocity": 81}, {"time": 1310, "pitch": 52, "duration": 3, "velocity": 81}, {"time": 1310, "pitch": 69, "duration": 6, "velocity": 87}, {"time": 1310, "pitch": 72, "duration": 6, "velocity": 87}, {"time": 1310, "pitch": 76, "duration": 6, "velocity": 83}, {"time": 1316, "pitch": 45, "duration": 15, "velocity": 98}, {"time": 1316, "pitch": 57, "duration": 15, "velocity": 98}, {"time": 1322, "pitch": 69, "duration": 2, "velocity": 83}, {"time": 1322, "pitch": 72, "duration": 2, "velocity": 81}, {"time": 1322, "pitch": 76, "duration": 1, "velocity": 77}, {"time": 1334, "pitch": 40, "duration": 2, "velocity": 86}, {"time": 1334, "pitch": 52, "duration": 2, "velocity": 86}, {"time": 1334, "pitch": 69, "duration": 2, "velocity": 86}, {"time": 1334, "pitch": 72, "duration": 2, "velocity": 90}, {"time": 1334, "pitch": 76, "duration": 2, "velocity": 93}, {"time": 1340, "pitch": 40, "duration": 12, "velocity": 85}, {"time": 1340, "pitch": 52, "duration": 12, "velocity": 85}, {"time": 1346, "pitch": 69, "duration": 2, "velocity": 90}, {"time": 1346, "pitch": 72, "duration": 2, "velocity": 93}, {"time": 1346, "pitch": 76, "duration": 2, "velocity": 90}, {"time": 1352, "pitch": 45, "duration": 7, "velocity": 90}, {"time": 1352, "pitch": 57, "duration": 7, "velocity": 90}, {"time": 1358, "pitch": 40, "duration": 3, "velocity": 72}, {"time": 1358, "pitch": 52, "duration": 3, "velocity": 72}, {"time": 1358, "pitch": 69, "duration": 2, "velocity": 85}, {"time": 1358, "pitch": 72, "duration": 2, "velocity": 86}, {"time": 1358, "pitch": 76, "duration": 2, "velocity": 87}, {"time": 1364, "pitch": 48, "duration": 14, "velocity": 111}, {"time": 1370, "pitch": 60, "duration": 2, "velocity": 83}, {"time": 1370, "pitch": 64, "duration": 2, "velocity": 90}, {"time": 1370, "pitch": 67, "duration": 1, "velocity": 100}, {"time": 1382, "pitch": 43, "duration": 3, "velocity": 85}, {"time": 1382, "pitch": 60, "duration": 2, "velocity": 81}, {"time": 1382, "pitch": 64, "duration": 2, "velocity": 98}, {"time": 1382, "pitch": 67, "duration": 2, "velocity": 98}, {"time": 1388, "pitch": 43, "duration": 13, "velocity": 85}, {"time": 1394, "pitch": 60, "duration": 2, "velocity": 69}, {"time": 1394, "pitch": 64, "duration": 2, "velocity": 93}, {"time": 1394, "pitch": 67, "duration": 1, "velocity": 93}, {"time": 1406, "pitch": 43, "duration": 4, "velocity": 83}, {"time": 1406, "pitch": 60, "duration": 3, "velocity": 85}, {"time": 1406, "pitch": 64, "duration": 3, "velocity": 95}, {"time": 1406, "pitch": 67, "duration": 3, "velocity": 98}, {"time": 1412, "pitch": 48, "duration": 16, "velocity": 108}, {"time": 1418, "pitch": 60, "duration": 2, "velocity": 72}, {"time": 1418, "pitch": 64, "duration": 2, "velocity": 85}, {"time": 1418, "pitch": 67, "duration": 2, "velocity": 86}, {"time": 1430, "pitch": 43, "duration": 3, "velocity": 93}, {"time": 1430, "pitch": 60, "duration": 2, "velocity": 93}, {"time": 1430, "pitch": 64, "duration": 2, "velocity": 108}, {"time": 1430, "pitch": 67, "duration": 2, "velocity": 104}, {"time": 1436, "pitch": 43, "duration": 12, "velocity": 81}, {"time": 1442, "pitch": 60, "duration": 2, "velocity": 87}, {"time": 1442, "pitch": 64, "duration": 2, "velocity": 98}, {"time": 1442, "pitch": 67, "duration": 2, "velocity": 100}, {"time": 1448, "pitch": 48, "duration": 14, "velocity": 95}, {"time": 1454, "pitch": 60, "duration": 2, "velocity": 85}, {"time": 1454, "pitch": 64, "duration": 2, "velocity": 98}, {"time": 1454, "pitch": 67, "duration": 2, "velocity": 100}, {"time": 1460, "pitch": 45, "duration": 13, "velocity": 98}, {"time": 1466, "pitch": 64, "duration": 2, "velocity": 74}, {"time": 1466, "pitch": 69, "duration": 2, "velocity": 74}, {"time": 1466, "pitch": 72, "duration": 2, "velocity": 77}, {"time": 1478, "pitch": 40, "duration": 3, "velocity": 95}, {"time": 1478, "pitch": 64, "duration": 2, "velocity": 87}, {"time": 1478, "pitch": 69, "duration": 2, "velocity": 87}, {"time": 1478, "pitch": 72, "duration": 2, "velocity": 85}, {"time": 1484, "pitch": 40, "duration": 14, "velocity": 95}, {"time": 1490, "pitch": 64, "duration": 2, "velocity": 90}, {"time": 1490, "pitch": 69, "duration": 2, "velocity": 83}, {"time": 1490, "pitch": 72, "duration": 2, "velocity": 90}, {"time": 1502, "pitch": 40, "duration": 3, "velocity": 90}, {"time": 1502, "pitch": 64, "duration": 6, "velocity": 87}, {"time": 1502, "pitch": 69, "duration": 6, "velocity": 85}, {"time": 1502, "pitch": 72, "duration": 6, "velocity": 95}, {"time": 1508, "pitch": 45, "duration": 14, "velocity": 95}, {"time": 1514, "pitch": 64, "duration": 2, "velocity": 81}, {"time": 1514, "pitch": 69, "duration": 2, "velocity": 79}, {"time": 1514, "pitch": 72, "duration": 2, "velocity": 90}, {"time": 1526, "pitch": 40, "duration": 2, "velocity": 83}, {"time": 1526, "pitch": 64, "duration": 2, "velocity": 83}, {"time": 1526, "pitch": 69, "duration": 2, "velocity": 81}, {"time": 1526, "pitch": 72, "duration": 2, "velocity": 83}, {"time": 1532, "pitch": 40, "duration": 14, "velocity": 86}, {"time": 1538, "pitch": 64, "duration": 2, "velocity": 93}, {"time": 1538, "pitch": 69, "duration": 2, "velocity": 87}, {"time": 1538, "pitch": 72, "duration": 2, "velocity": 93}, {"time": 1550, "pitch": 40, "duration": 3, "velocity": 79}, {"time": 1550, "pitch": 64, "duration": 3, "velocity": 98}, {"time": 1550, "pitch": 69, "duration": 2, "velocity": 87}, {"time": 1550, "pitch": 72, "duration": 2, "velocity": 87}, {"time": 1556, "pitch": 45, "duration": 14, "velocity": 98}, {"time": 1562, "pitch": 64, "duration": 2, "velocity": 83}, {"time": 1562, "pitch": 69, "duration": 2, "velocity": 83}, {"time": 1562, "pitch": 72, "duration": 2, "velocity": 86}, {"time": 1574, "pitch": 40, "duration": 3, "velocity": 76}, {"time": 1574, "pitch": 64, "duration": 2, "velocity": 77}, {"time": 1574, "pitch": 69, "duration": 2, "velocity": 81}, {"time": 1574, "pitch": 72, "duration": 2, "velocity": 86}, {"time": 1580, "pitch": 40, "duration": 13, "velocity": 83}, {"time": 1586, "pitch": 64, "duration": 2, "velocity": 90}, {"time": 1586, "pitch": 69, "duration": 2, "velocity": 85}, {"time": 1586, "pitch": 72, "duration": 2, "velocity": 85}, {"time": 1598, "pitch": 40, "duration": 3, "velocity": 86}, {"time": 1598, "pitch": 64, "duration": 2, "velocity": 95}, {"time": 1598, "pitch": 69, "duration": 2, "velocity": 87}, {"time": 1598, "pitch": 72, "duration": 2, "velocity": 93}, {"time": 1604, "pitch": 45, "duration": 14, "velocity": 98}, {"time": 1604, "pitch": 64, "duration": 14, "velocity": 90}, {"time": 1604, "pitch": 69, "duration": 14, "velocity": 83}, {"time": 1604, "pitch": 72, "duration": 14, "velocity": 87}, {"time": 1622, "pitch": 40, "duration": 3, "velocity": 72}, {"time": 1622, "pitch": 64, "duration": 9, "velocity": 83}, {"time": 1622, "pitch": 69, "duration": 9, "velocity": 77}, {"time": 1622, "pitch": 72, "duration": 9, "velocity": 85}, {"time": 1628, "pitch": 40, "duration": 11, "velocity": 81}, {"time": 1634, "pitch": 64, "duration": 2, "velocity": 83}, {"time": 1634, "pitch": 69, "duration": 2, "velocity": 79}, {"time": 1634, "pitch": 72, "duration": 2, "velocity": 83}, {"time": 1640, "pitch": 45, "duration": 11, "velocity": 87}, {"time": 1646, "pitch": 64, "duration": 2, "velocity": 86}, {"time": 1646, "pitch": 69, "duration": 2, "velocity": 67}, {"time": 1646, "pitch": 72, "duration": 2, "velocity": 98}, {"time": 1652, "pitch": 38, "duration": 14, "velocity": 77}, {"time": 1658, "pitch": 62, "duration": 2, "velocity": 85}, {"time": 1658, "pitch": 65, "duration": 2, "velocity": 98}, {"time": 1658, "pitch": 69, "duration": 1, "velocity": 90}, {"time": 1670, "pitch": 45, "duration": 3, "velocity": 79}, {"time": 1670, "pitch": 62, "duration": 2, "velocity": 86}, {"time": 1670, "pitch": 65, "duration": 2, "velocity": 98}, {"time": 1670, "pitch": 69, "duration": 1, "velocity": 98}, {"time": 1676, "pitch": 45, "duration": 14, "velocity": 90}, {"time": 1682, "pitch": 62, "duration": 2, "velocity": 77}, {"time": 1682, "pitch": 65, "duration": 2, "velocity": 95}, {"time": 1682, "pitch": 69, "duration": 1, "velocity": 95}, {"time": 1694, "pitch": 45, "duration": 3, "velocity": 75}, {"time": 1694, "pitch": 62, "duration": 2, "velocity": 83}, {"time": 1694, "pitch": 65, "duration": 2, "velocity": 90}, {"time": 1694, "pitch": 69, "duration": 2, "velocity": 90}, {"time": 1700, "pitch": 50, "duration": 14, "velocity": 114}, {"time": 1706, "pitch": 62, "duration": 2, "velocity": 77}, {"time": 1706, "pitch": 65, "duration": 2, "velocity": 87}, {"time": 1706, "pitch": 69, "duration": 2, "velocity": 93}, {"time": 1718, "pitch": 45, "duration": 3, "velocity": 85}, {"time": 1718, "pitch": 62, "duration": 2, "velocity": 87}, {"time": 1718, "pitch": 65, "duration": 2, "velocity": 95}, {"time": 1718, "pitch": 69, "duration": 2, "velocity": 93}, {"time": 1724, "pitch": 45, "duration": 12, "velocity": 67}, {"time": 1730, "pitch": 62, "duration": 2, "velocity": 85}, {"time": 1730, "pitch": 65, "duration": 2, "velocity": 104}, {"time": 1730, "pitch": 69, "duration": 2, "velocity": 100}, {"time": 1736, "pitch": 50, "duration": 13, "velocity": 90}, {"time": 1742, "pitch": 62, "duration": 2, "velocity": 79}, {"time": 1742, "pitch": 65, "duration": 2, "velocity": 93}, {"time": 1742, "pitch": 69, "duration": 2, "velocity": 93}, {"time": 1748, "pitch": 45, "duration": 14, "velocity": 87}, {"time": 1754, "pitch": 64, "duration": 2, "velocity": 76}, {"time": 1754, "pitch": 69, "duration": 2, "velocity": 81}, {"time": 1754, "pitch": 72, "duration": 2, "velocity": 87}, {"time": 1766, "pitch": 40, "duration": 3, "velocity": 77}, {"time": 1766, "pitch": 64, "duration": 2, "velocity": 81}, {"time": 1766, "pitch": 69, "duration": 2, "velocity": 76}, {"time": 1766, "pitch": 72, "duration": 2, "velocity": 83}, {"time": 1772, "pitch": 40, "duration": 14, "velocity": 79}, {"time": 1778, "pitch": 64, "duration": 2, "velocity": 86}, {"time": 1778, "pitch": 69, "duration": 2, "velocity": 81}, {"time": 1778, "pitch": 72, "duration": 2, "velocity": 90}, {"time": 1790, "pitch": 45, "duration": 2, "velocity": 81}, {"time": 1790, "pitch": 64, "duration": 7, "velocity": 90}, {"time": 1790, "pitch": 69, "duration": 7, "velocity": 86}, {"time": 1790, "pitch": 72, "duration": 7, "velocity": 95}, {"time": 1796, "pitch": 45, "duration": 13, "velocity": 93}, {"time": 1802, "pitch": 64, "duration": 2, "velocity": 86}, {"time": 1802, "pitch": 69, "duration": 2, "velocity": 85}, {"time": 1802, "pitch": 72, "duration": 2, "velocity": 95}, {"time": 1814, "pitch": 40, "duration": 2, "velocity": 73}, {"time": 1814, "pitch": 64, "duration": 8, "velocity": 95}, {"time": 1814, "pitch": 69, "duration": 9, "velocity": 93}, {"time": 1814, "pitch": 72, "duration": 8, "velocity": 108}, {"time": 1820, "pitch": 40, "duration": 10, "velocity": 81}, {"time": 1826, "pitch": 64, "duration": 2, "velocity": 100}, {"time": 1826, "pitch": 69, "duration": 2, "velocity": 87}, {"time": 1826, "pitch": 72, "duration": 2, "velocity": 98}, {"time": 1832, "pitch": 45, "duration": 7, "velocity": 95}, {"time": 1838, "pitch": 40, "duration": 7, "velocity": 61}, {"time": 1838, "pitch": 64, "duration": 4, "velocity": 93}, {"time": 1838, "pitch": 69, "duration": 4, "velocity": 83}, {"time": 1838, "pitch": 72, "duration": 4, "velocity": 90}, {"time": 1844, "pitch": 50, "duration": 14, "velocity": 100}, {"time": 1850, "pitch": 62, "duration": 3, "velocity": 79}, {"time": 1850, "pitch": 65, "duration": 3, "velocity": 98}, {"time": 1850, "pitch": 69, "duration": 3, "velocity": 87}, {"time": 1862, "pitch": 45, "duration": 3, "velocity": 81}, {"time": 1862, "pitch": 62, "duration": 10, "velocity": 83}, {"time": 1862, "pitch": 65, "duration": 10, "velocity": 98}, {"time": 1862, "pitch": 69, "duration": 10, "velocity": 93}, {"time": 1868, "pitch": 45, "duration": 13, "velocity": 77}, {"time": 1874, "pitch": 60, "duration": 2, "velocity": 81}, {"time": 1886, "pitch": 45, "duration": 3, "velocity": 73}, {"time": 1886, "pitch": 62, "duration": 7, "velocity": 86}, {"time": 1886, "pitch": 65, "duration": 7, "velocity": 104}, {"time": 1886, "pitch": 69, "duration": 7, "velocity": 86}, {"time": 1892, "pitch": 50, "duration": 15, "velocity": 108}, {"time": 1898, "pitch": 62, "duration": 2, "velocity": 85}, {"time": 1898, "pitch": 65, "duration": 2, "velocity": 98}, {"time": 1898, "pitch": 69, "duration": 2, "velocity": 93}, {"time": 1910, "pitch": 45, "duration": 3, "velocity": 74}, {"time": 1910, "pitch": 62, "duration": 2, "velocity": 85}, {"time": 1910, "pitch": 65, "duration": 2, "velocity": 95}, {"time": 1910, "pitch": 69, "duration": 2, "velocity": 87}, {"time": 1916, "pitch": 45, "duration": 10, "velocity": 85}, {"time": 1922, "pitch": 62, "duration": 2, "velocity": 93}, {"time": 1922, "pitch": 65, "duration": 2, "velocity": 104}, {"time": 1922, "pitch": 69, "duration": 2, "velocity": 100}, {"time": 1928, "pitch": 50, "duration": 12, "velocity": 93}, {"time": 1934, "pitch": 62, "duration": 2, "velocity": 95}, {"time": 1934, "pitch": 65, "duration": 2, "velocity": 100}, {"time": 1934, "pitch": 69, "duration": 2, "velocity": 98}, {"time": 1940, "pitch": 45, "duration": 14, "velocity": 81}, {"time": 1946, "pitch": 64, "duration": 2, "velocity": 81}, {"time": 1946, "pitch": 69, "duration": 2, "velocity": 86}, {"time": 1946, "pitch": 72, "duration": 2, "velocity": 95}, {"time": 1952, "pitch": 64, "duration": 1, "velocity": 48}, {"time": 1952, "pitch": 69, "duration": 1, "velocity": 53}, {"time": 1952, "pitch": 72, "duration": 1, "velocity": 45}, {"time": 1958, "pitch": 52, "duration": 3, "velocity": 79}, {"time": 1958, "pitch": 64, "duration": 2, "velocity": 85}, {"time": 1958, "pitch": 69, "duration": 2, "velocity": 85}, {"time": 1958, "pitch": 72, "duration": 2, "velocity": 95}, {"time": 1964, "pitch": 52, "duration": 14, "velocity": 83}, {"time": 1970, "pitch": 64, "duration": 2, "velocity": 90}, {"time": 1970, "pitch": 69, "duration": 2, "velocity": 85}, {"time": 1970, "pitch": 72, "duration": 2, "velocity": 95}, {"time": 1982, "pitch": 52, "duration": 3, "velocity": 77}, {"time": 1982, "pitch": 64, "duration": 2, "velocity": 75}, {"time": 1982, "pitch": 69, "duration": 2, "velocity": 79}, {"time": 1982, "pitch": 72, "duration": 2, "velocity": 87}, {"time": 1988, "pitch": 57, "duration": 47, "velocity": 104}, {"time": 1988, "pitch": 64, "duration": 45, "velocity": 100}, {"time": 1988, "pitch": 69, "duration": 45, "velocity": 87}, {"time": 1988, "pitch": 72, "duration": 45, "velocity": 104}, {"time": 2036, "pitch": 45, "duration": 84, "velocity": 59}, {"time": 2036, "pitch": 52, "duration": 48, "velocity": 74}, {"time": 2036, "pitch": 57, "duration": 60, "velocity": 60}, {"time": 2036, "pitch": 67, "duration": 11, "velocity": 79}, {"time": 2036, "pitch": 72, "duration": 10, "velocity": 90}, {"time": 2048, "pitch": 71, "duration": 6, "velocity": 86}, {"time": 2054, "pitch": 72, "duration": 4, "velocity": 77}, {"time": 2060, "pitch": 74, "duration": 4, "velocity": 93}, {"time": 2066, "pitch": 69, "duration": 7, "velocity": 73}, {"time": 2072, "pitch": 64, "duration": 6, "velocity": 72}, {"time": 2078, "pitch": 72, "duration": 16, "velocity": 75}, {"time": 2090, "pitch": 52, "duration": 8, "velocity": 63}, {"time": 2096, "pitch": 55, "duration": 6, "velocity": 70}, {"time": 2102, "pitch": 60, "duration": 27, "velocity": 75}, {"time": 2114, "pitch": 67, "duration": 10, "velocity": 65}, {"time": 2114, "pitch": 72, "duration": 10, "velocity": 68}, {"time": 2132, "pitch": 48, "duration": 80, "velocity": 74}, {"time": 2132, "pitch": 55, "duration": 77, "velocity": 70}, {"time": 2132, "pitch": 72, "duration": 11, "velocity": 98}, {"time": 2144, "pitch": 71, "duration": 3, "velocity": 83}, {"time": 2150, "pitch": 72, "duration": 2, "velocity": 59}, {"time": 2156, "pitch": 74, "duration": 6, "velocity": 90}, {"time": 2162, "pitch": 69, "duration": 6, "velocity": 68}, {"time": 2168, "pitch": 64, "duration": 8, "velocity": 79}, {"time": 2174, "pitch": 79, "duration": 18, "velocity": 117}, {"time": 2186, "pitch": 62, "duration": 23, "velocity": 64}, {"time": 2198, "pitch": 64, "duration": 25, "velocity": 67}, {"time": 2228, "pitch": 45, "duration": 84, "velocity": 59}, {"time": 2228, "pitch": 52, "duration": 48, "velocity": 74}, {"time": 2228, "pitch": 57, "duration": 60, "velocity": 60}, {"time": 2228, "pitch": 67, "duration": 11, "velocity": 79}, {"time": 2228, "pitch": 72, "duration": 10, "velocity": 90}, {"time": 2240, "pitch": 71, "duration": 6, "velocity": 86}, {"time": 2246, "pitch": 72, "duration": 4, "velocity": 77}, {"time": 2252, "pitch": 74, "duration": 4, "velocity": 93}, {"time": 2258, "pitch": 69, "duration": 7, "velocity": 73}, {"time": 2264, "pitch": 64, "duration": 6, "velocity": 72}, {"time": 2270, "pitch": 72, "duration": 16, "velocity": 75}, {"time": 2282, "pitch": 52, "duration": 8, "velocity": 63}, {"time": 2288, "pitch": 55, "duration": 6, "velocity": 70}, {"time": 2294, "pitch": 60, "duration": 27, "velocity": 75}, {"time": 2306, "pitch": 67, "duration": 10, "velocity": 65}, {"time": 2306, "pitch": 72, "duration": 10, "velocity": 68}, {"time": 2324, "pitch": 45, "duration": 80, "velocity": 74}, {"time": 2324, "pitch": 55, "duration": 77, "velocity": 70}, {"time": 2324, "pitch": 72, "duration": 11, "velocity": 98}, {"time": 2336, "pitch": 71, "duration": 3, "velocity": 83}, {"time": 2342, "pitch": 72, "duration": 2, "velocity": 59}, {"time": 2348, "pitch": 74, "duration": 6, "velocity": 90}, {"time": 2354, "pitch": 69, "duration": 6, "velocity": 68}, {"time": 2360, "pitch": 64, "duration": 8, "velocity": 79}, {"time": 2366, "pitch": 79, "duration": 18, "velocity": 117}, {"time": 2378, "pitch": 62, "duration": 23, "velocity": 64}, {"time": 2390, "pitch": 64, "duration": 18, "velocity": 67}, {"time": 2408, "pitch": 55, "duration": 3, "velocity": 65}, {"time": 2414, "pitch": 53, "duration": 2, "velocity": 79}, {"time": 2414, "pitch": 69, "duration": 2, "velocity": 86}, {"time": 2414, "pitch": 72, "duration": 2, "velocity": 86}, {"time": 2414, "pitch": 76, "duration": 2, "velocity": 76}, {"time": 2420, "pitch": 50, "duration": 13, "velocity": 93}, {"time": 2426, "pitch": 62, "duration": 2, "velocity": 79}, {"time": 2426, "pitch": 65, "duration": 2, "velocity": 85}, {"time": 2426, "pitch": 69, "duration": 2, "velocity": 85}, {"time": 2438, "pitch": 45, "duration": 2, "velocity": 95}, {"time": 2438, "pitch": 62, "duration": 2, "velocity": 75}, {"time": 2438, "pitch": 65, "duration": 2, "velocity": 85}, {"time": 2438, "pitch": 69, "duration": 1, "velocity": 79}, {"time": 2444, "pitch": 45, "duration": 14, "velocity": 76}, {"time": 2450, "pitch": 62, "duration": 2, "velocity": 79}, {"time": 2450, "pitch": 65, "duration": 2, "velocity": 86}, {"time": 2450, "pitch": 69, "duration": 1, "velocity": 85}, {"time": 2462, "pitch": 45, "duration": 4, "velocity": 69}, {"time": 2462, "pitch": 62, "duration": 2, "velocity": 79}, {"time": 2462, "pitch": 65, "duration": 2, "velocity": 90}, {"time": 2462, "pitch": 69, "duration": 2, "velocity": 87}, {"time": 2468, "pitch": 50, "duration": 14, "velocity": 100}, {"time": 2474, "pitch": 62, "duration": 2, "velocity": 81}, {"time": 2474, "pitch": 65, "duration": 2, "velocity": 85}, {"time": 2474, "pitch": 69, "duration": 1, "velocity": 93}, {"time": 2486, "pitch": 45, "duration": 3, "velocity": 74}, {"time": 2486, "pitch": 62, "duration": 2, "velocity": 79}, {"time": 2486, "pitch": 65, "duration": 2, "velocity": 95}, {"time": 2486, "pitch": 69, "duration": 2, "velocity": 95}, {"time": 2492, "pitch": 45, "duration": 13, "velocity": 79}, {"time": 2498, "pitch": 62, "duration": 2, "velocity": 74}, {"time": 2498, "pitch": 65, "duration": 2, "velocity": 86}, {"time": 2498, "pitch": 69, "duration": 2, "velocity": 87}, {"time": 2504, "pitch": 50, "duration": 8, "velocity": 90}, {"time": 2510, "pitch": 62, "duration": 2, "velocity": 79}, {"time": 2510, "pitch": 65, "duration": 2, "velocity": 90}, {"time": 2510, "pitch": 69, "duration": 2, "velocity": 90}, {"time": 2516, "pitch": 45, "duration": 14, "velocity": 85}, {"time": 2522, "pitch": 64, "duration": 2, "velocity": 73}, {"time": 2522, "pitch": 69, "duration": 2, "velocity": 73}, {"time": 2522, "pitch": 72, "duration": 2, "velocity": 74}, {"time": 2534, "pitch": 52, "duration": 2, "velocity": 90}, {"time": 2534, "pitch": 64, "duration": 2, "velocity": 81}, {"time": 2534, "pitch": 69, "duration": 2, "velocity": 77}, {"time": 2534, "pitch": 72, "duration": 1, "velocity": 86}, {"time": 2540, "pitch": 52, "duration": 13, "velocity": 83}, {"time": 2546, "pitch": 64, "duration": 2, "velocity": 79}, {"time": 2546, "pitch": 69, "duration": 2, "velocity": 75}, {"time": 2546, "pitch": 72, "duration": 1, "velocity": 69}, {"time": 2558, "pitch": 52, "duration": 3, "velocity": 77}, {"time": 2558, "pitch": 64, "duration": 2, "velocity": 83}, {"time": 2558, "pitch": 69, "duration": 2, "velocity": 77}, {"time": 2558, "pitch": 72, "duration": 1, "velocity": 79}, {"time": 2564, "pitch": 52, "duration": 16, "velocity": 86}, {"time": 2564, "pitch": 64, "duration": 38, "velocity": 83}, {"time": 2564, "pitch": 68, "duration": 37, "velocity": 75}, {"time": 2564, "pitch": 71, "duration": 37, "velocity": 81}, {"time": 2582, "pitch": 47, "duration": 2, "velocity": 73}, {"time": 2588, "pitch": 47, "duration": 7, "velocity": 87}, {"time": 2594, "pitch": 52, "duration": 14, "velocity": 87}, {"time": 2612, "pitch": 50, "duration": 13, "velocity": 93}, {"time": 2618, "pitch": 62, "duration": 2, "velocity": 72}, {"time": 2618, "pitch": 65, "duration": 2, "velocity": 85}, {"time": 2618, "pitch": 69, "duration": 2, "velocity": 74}, {"time": 2630, "pitch": 45, "duration": 2, "velocity": 68}, {"time": 2630, "pitch": 62, "duration": 2, "velocity": 81}, {"time": 2630, "pitch": 65, "duration": 2, "velocity": 90}, {"time": 2630, "pitch": 69, "duration": 2, "velocity": 85}, {"time": 2636, "pitch": 45, "duration": 15, "velocity": 81}, {"time": 2636, "pitch": 65, "duration": 1, "velocity": 58}, {"time": 2642, "pitch": 62, "duration": 2, "velocity": 75}, {"time": 2642, "pitch": 65, "duration": 2, "velocity": 87}, {"time": 2642, "pitch": 69, "duration": 2, "velocity": 86}, {"time": 2654, "pitch": 45, "duration": 3, "velocity": 68}, {"time": 2654, "pitch": 62, "duration": 2, "velocity": 77}, {"time": 2654, "pitch": 65, "duration": 2, "velocity": 87}, {"time": 2654, "pitch": 69, "duration": 2, "velocity": 86}, {"time": 2660, "pitch": 50, "duration": 14, "velocity": 108}, {"time": 2666, "pitch": 62, "duration": 2, "velocity": 79}, {"time": 2666, "pitch": 65, "duration": 2, "velocity": 90}, {"time": 2666, "pitch": 69, "duration": 1, "velocity": 86}, {"time": 2678, "pitch": 45, "duration": 2, "velocity": 93}, {"time": 2678, "pitch": 62, "duration": 2, "velocity": 76}, {"time": 2678, "pitch": 65, "duration": 2, "velocity": 90}, {"time": 2678, "pitch": 69, "duration": 2, "velocity": 90}, {"time": 2684, "pitch": 45, "duration": 11, "velocity": 81}, {"time": 2690, "pitch": 62, "duration": 2, "velocity": 73}, {"time": 2690, "pitch": 65, "duration": 2, "velocity": 81}, {"time": 2690, "pitch": 69, "duration": 2, "velocity": 87}, {"time": 2696, "pitch": 50, "duration": 8, "velocity": 117}, {"time": 2702, "pitch": 62, "duration": 2, "velocity": 73}, {"time": 2702, "pitch": 65, "duration": 2, "velocity": 87}, {"time": 2702, "pitch": 69, "duration": 2, "velocity": 86}, {"time": 2708, "pitch": 52, "duration": 2, "velocity": 95}, {"time": 2708, "pitch": 64, "duration": 2, "velocity": 67}, {"time": 2708, "pitch": 68, "duration": 2, "velocity": 71}, {"time": 2708, "pitch": 71, "duration": 2, "velocity": 79}, {"time": 2714, "pitch": 52, "duration": 2, "velocity": 98}, {"time": 2714, "pitch": 64, "duration": 2, "velocity": 74}, {"time": 2714, "pitch": 68, "duration": 2, "velocity": 77}, {"time": 2714, "pitch": 71, "duration": 2, "velocity": 86}, {"time": 2720, "pitch": 52, "duration": 2, "velocity": 95}, {"time": 2720, "pitch": 64, "duration": 2, "velocity": 72}, {"time": 2720, "pitch": 68, "duration": 2, "velocity": 77}, {"time": 2720, "pitch": 71, "duration": 2, "velocity": 83}, {"time": 2726, "pitch": 52, "duration": 2, "velocity": 100}, {"time": 2726, "pitch": 64, "duration": 2, "velocity": 68}, {"time": 2726, "pitch": 68, "duration": 2, "velocity": 76}, {"time": 2726, "pitch": 71, "duration": 2, "velocity": 83}, {"time": 2732, "pitch": 52, "duration": 2, "velocity": 98}, {"time": 2732, "pitch": 64, "duration": 2, "velocity": 68}, {"time": 2732, "pitch": 68, "duration": 2, "velocity": 76}, {"time": 2732, "pitch": 71, "duration": 2, "velocity": 85}, {"time": 2738, "pitch": 52, "duration": 2, "velocity": 104}, {"time": 2738, "pitch": 64, "duration": 2, "velocity": 69}, {"time": 2738, "pitch": 68, "duration": 2, "velocity": 77}, {"time": 2738, "pitch": 71, "duration": 2, "velocity": 83}, {"time": 2744, "pitch": 52, "duration": 2, "velocity": 104}, {"time": 2744, "pitch": 64, "duration": 2, "velocity": 71}, {"time": 2744, "pitch": 68, "duration": 2, "velocity": 76}, {"time": 2744, "pitch": 71, "duration": 2, "velocity": 85}, {"time": 2750, "pitch": 52, "duration": 2, "velocity": 104}, {"time": 2750, "pitch": 64, "duration": 2, "velocity": 69}, {"time": 2750, "pitch": 68, "duration": 2, "velocity": 75}, {"time": 2750, "pitch": 71, "duration": 2, "velocity": 85}, {"time": 2756, "pitch": 52, "duration": 44, "velocity": 114}, {"time": 2756, "pitch": 64, "duration": 34, "velocity": 93}, {"time": 2756, "pitch": 68, "duration": 34, "velocity": 98}, {"time": 2756, "pitch": 71, "duration": 34, "velocity": 104}, {"time": 2792, "pitch": 64, "duration": 8, "velocity": 72}, {"time": 2792, "pitch": 68, "duration": 9, "velocity": 69}, {"time": 2792, "pitch": 71, "duration": 9, "velocity": 69}, {"time": 2804, "pitch": 45, "duration": 13, "velocity": 69}, {"time": 2804, "pitch": 57, "duration": 13, "velocity": 69}, {"time": 2810, "pitch": 69, "duration": 2, "velocity": 79}, {"time": 2810, "pitch": 72, "duration": 2, "velocity": 86}, {"time": 2810, "pitch": 76, "duration": 1, "velocity": 81}, {"time": 2822, "pitch": 40, "duration": 3, "velocity": 85}, {"time": 2822, "pitch": 52, "duration": 3, "velocity": 85}, {"time": 2822, "pitch": 69, "duration": 2, "velocity": 74}, {"time": 2822, "pitch": 72, "duration": 2, "velocity": 79}, {"time": 2822, "pitch": 76, "duration": 2, "velocity": 76}, {"time": 2828, "pitch": 40, "duration": 13, "velocity": 83}, {"time": 2828, "pitch": 52, "duration": 13, "velocity": 83}, {"time": 2834, "pitch": 69, "duration": 2, "velocity": 81}, {"time": 2834, "pitch": 72, "duration": 2, "velocity": 85}, {"time": 2834, "pitch": 76, "duration": 2, "velocity": 81}, {"time": 2846, "pitch": 40, "duration": 3, "velocity": 81}, {"time": 2846, "pitch": 52, "duration": 3, "velocity": 81}, {"time": 2846, "pitch": 69, "duration": 6, "velocity": 87}, {"time": 2846, "pitch": 72, "duration": 6, "velocity": 87}, {"time": 2846, "pitch": 76, "duration": 6, "velocity": 83}, {"time": 2852, "pitch": 45, "duration": 15, "velocity": 85}, {"time": 2852, "pitch": 57, "duration": 15, "velocity": 98}, {"time": 2858, "pitch": 69, "duration": 2, "velocity": 83}, {"time": 2858, "pitch": 72, "duration": 2, "velocity": 81}, {"time": 2858, "pitch": 76, "duration": 1, "velocity": 77}, {"time": 2870, "pitch": 40, "duration": 2, "velocity": 86}, {"time": 2870, "pitch": 52, "duration": 2, "velocity": 86}, {"time": 2870, "pitch": 69, "duration": 2, "velocity": 86}, {"time": 2870, "pitch": 72, "duration": 2, "velocity": 90}, {"time": 2870, "pitch": 76, "duration": 2, "velocity": 93}, {"time": 2876, "pitch": 40, "duration": 12, "velocity": 85}, {"time": 2876, "pitch": 52, "duration": 12, "velocity": 85}, {"time": 2882, "pitch": 69, "duration": 2, "velocity": 90}, {"time": 2882, "pitch": 72, "duration": 2, "velocity": 93}, {"time": 2882, "pitch": 76, "duration": 2, "velocity": 90}, {"time": 2888, "pitch": 45, "duration": 7, "velocity": 83}, {"time": 2888, "pitch": 57, "duration": 7, "velocity": 90}, {"time": 2894, "pitch": 40, "duration": 3, "velocity": 72}, {"time": 2894, "pitch": 52, "duration": 3, "velocity": 72}, {"time": 2894, "pitch": 69, "duration": 2, "velocity": 85}, {"time": 2894, "pitch": 72, "duration": 2, "velocity": 86}, {"time": 2894, "pitch": 76, "duration": 2, "velocity": 87}, {"time": 2900, "pitch": 48, "duration": 14, "velocity": 78}, {"time": 2906, "pitch": 60, "duration": 2, "velocity": 83}, {"time": 2906, "pitch": 64, "duration": 2, "velocity": 90}, {"time": 2906, "pitch": 67, "duration": 1, "velocity": 100}, {"time": 2918, "pitch": 43, "duration": 3, "velocity": 85}, {"time": 2918, "pitch": 60, "duration": 2, "velocity": 81}, {"time": 2918, "pitch": 64, "duration": 2, "velocity": 98}, {"time": 2918, "pitch": 67, "duration": 2, "velocity": 98}, {"time": 2924, "pitch": 43, "duration": 13, "velocity": 85}, {"time": 2930, "pitch": 60, "duration": 2, "velocity": 69}, {"time": 2930, "pitch": 64, "duration": 2, "velocity": 93}, {"time": 2930, "pitch": 67, "duration": 1, "velocity": 93}, {"time": 2942, "pitch": 43, "duration": 4, "velocity": 83}, {"time": 2942, "pitch": 60, "duration": 3, "velocity": 85}, {"time": 2942, "pitch": 64, "duration": 3, "velocity": 95}, {"time": 2942, "pitch": 67, "duration": 3, "velocity": 98}, {"time": 2948, "pitch": 48, "duration": 16, "velocity": 81}, {"time": 2954, "pitch": 60, "duration": 2, "velocity": 72}, {"time": 2954, "pitch": 64, "duration": 2, "velocity": 85}, {"time": 2954, "pitch": 67, "duration": 2, "velocity": 86}, {"time": 2966, "pitch": 43, "duration": 3, "velocity": 93}, {"time": 2966, "pitch": 60, "duration": 2, "velocity": 93}, {"time": 2966, "pitch": 64, "duration": 2, "velocity": 108}, {"time": 2966, "pitch": 67, "duration": 2, "velocity": 104}, {"time": 2972, "pitch": 43, "duration": 12, "velocity": 81}, {"time": 2978, "pitch": 60, "duration": 2, "velocity": 87}, {"time": 2978, "pitch": 64, "duration": 2, "velocity": 98}, {"time": 2978, "pitch": 67, "duration": 2, "velocity": 100}, {"time": 2984, "pitch": 48, "duration": 14, "velocity": 95}, {"time": 2990, "pitch": 60, "duration": 2, "velocity": 85}, {"time": 2990, "pitch": 64, "duration": 2, "velocity": 98}, {"time": 2990, "pitch": 67, "duration": 2, "velocity": 100}, {"time": 2996, "pitch": 57, "duration": 13, "velocity": 98}, {"time": 3002, "pitch": 64, "duration": 2, "velocity": 74}, {"time": 3002, "pitch": 69, "duration": 2, "velocity": 74}, {"time": 3002, "pitch": 72, "duration": 2, "velocity": 77}, {"time": 3014, "pitch": 52, "duration": 3, "velocity": 95}, {"time": 3014, "pitch": 64, "duration": 2, "velocity": 87}, {"time": 3014, "pitch": 69, "duration": 2, "velocity": 87}, {"time": 3014, "pitch": 72, "duration": 2, "velocity": 85}, {"time": 3020, "pitch": 52, "duration": 14, "velocity": 95}, {"time": 3026, "pitch": 64, "duration": 2, "velocity": 90}, {"time": 3026, "pitch": 69, "duration": 2, "velocity": 83}, {"time": 3026, "pitch": 72, "duration": 2, "velocity": 90}, {"time": 3038, "pitch": 52, "duration": 3, "velocity": 90}, {"time": 3038, "pitch": 64, "duration": 6, "velocity": 87}, {"time": 3038, "pitch": 69, "duration": 6, "velocity": 85}, {"time": 3038, "pitch": 72, "duration": 6, "velocity": 95}, {"time": 3044, "pitch": 57, "duration": 14, "velocity": 95}, {"time": 3050, "pitch": 64, "duration": 2, "velocity": 81}, {"time": 3050, "pitch": 69, "duration": 2, "velocity": 79}, {"time": 3050, "pitch": 72, "duration": 2, "velocity": 90}, {"time": 3062, "pitch": 52, "duration": 2, "velocity": 83}, {"time": 3062, "pitch": 64, "duration": 2, "velocity": 83}, {"time": 3062, "pitch": 69, "duration": 2, "velocity": 81}, {"time": 3062, "pitch": 72, "duration": 2, "velocity": 83}, {"time": 3068, "pitch": 52, "duration": 14, "velocity": 86}, {"time": 3074, "pitch": 64, "duration": 2, "velocity": 93}, {"time": 3074, "pitch": 69, "duration": 2, "velocity": 87}, {"time": 3074, "pitch": 72, "duration": 2, "velocity": 93}, {"time": 3086, "pitch": 52, "duration": 3, "velocity": 79}, {"time": 3086, "pitch": 64, "duration": 3, "velocity": 98}, {"time": 3086, "pitch": 69, "duration": 2, "velocity": 87}, {"time": 3086, "pitch": 72, "duration": 2, "velocity": 87}, {"time": 3092, "pitch": 57, "duration": 14, "velocity": 98}, {"time": 3098, "pitch": 64, "duration": 2, "velocity": 83}, {"time": 3098, "pitch": 69, "duration": 2, "velocity": 83}, {"time": 3098, "pitch": 72, "duration": 2, "velocity": 86}, {"time": 3110, "pitch": 52, "duration": 3, "velocity": 76}, {"time": 3110, "pitch": 64, "duration": 2, "velocity": 77}, {"time": 3110, "pitch": 69, "duration": 2, "velocity": 81}, {"time": 3110, "pitch": 72, "duration": 2, "velocity": 86}, {"time": 3116, "pitch": 52, "duration": 13, "velocity": 83}, {"time": 3122, "pitch": 64, "duration": 2, "velocity": 90}, {"time": 3122, "pitch": 69, "duration": 2, "velocity": 85}, {"time": 3122, "pitch": 72, "duration": 2, "velocity": 85}, {"time": 3134, "pitch": 52, "duration": 3, "velocity": 86}, {"time": 3134, "pitch": 64, "duration": 2, "velocity": 95}, {"time": 3134, "pitch": 69, "duration": 2, "velocity": 87}, {"time": 3134, "pitch": 72, "duration": 2, "velocity": 93}, {"time": 3140, "pitch": 57, "duration": 14, "velocity": 98}, {"time": 3140, "pitch": 64, "duration": 14, "velocity": 90}, {"time": 3140, "pitch": 69, "duration": 14, "velocity": 83}, {"time": 3140, "pitch": 72, "duration": 14, "velocity": 87}, {"time": 3158, "pitch": 52, "duration": 3, "velocity": 72}, {"time": 3158, "pitch": 64, "duration": 9, "velocity": 83}, {"time": 3158, "pitch": 69, "duration": 9, "velocity": 77}, {"time": 3158, "pitch": 72, "duration": 9, "velocity": 85}, {"time": 3164, "pitch": 52, "duration": 11, "velocity": 81}, {"time": 3170, "pitch": 64, "duration": 2, "velocity": 83}, {"time": 3170, "pitch": 69, "duration": 2, "velocity": 79}, {"time": 3170, "pitch": 72, "duration": 2, "velocity": 83}, {"time": 3176, "pitch": 57, "duration": 11, "velocity": 87}, {"time": 3182, "pitch": 64, "duration": 2, "velocity": 86}, {"time": 3182, "pitch": 69, "duration": 2, "velocity": 67}, {"time": 3182, "pitch": 72, "duration": 2, "velocity": 98}, {"time": 3188, "pitch": 50, "duration": 14, "velocity": 77}, {"time": 3194, "pitch": 62, "duration": 2, "velocity": 85}, {"time": 3194, "pitch": 65, "duration": 2, "velocity": 98}, {"time": 3194, "pitch": 69, "duration": 1, "velocity": 90}, {"time": 3206, "pitch": 45, "duration": 3, "velocity": 79}, {"time": 3206, "pitch": 62, "duration": 2, "velocity": 86}, {"time": 3206, "pitch": 65, "duration": 2, "velocity": 98}, {"time": 3206, "pitch": 69, "duration": 1, "velocity": 98}, {"time": 3212, "pitch": 45, "duration": 14, "velocity": 90}, {"time": 3218, "pitch": 62, "duration": 2, "velocity": 77}, {"time": 3218, "pitch": 65, "duration": 2, "velocity": 95}, {"time": 3218, "pitch": 69, "duration": 1, "velocity": 95}, {"time": 3230, "pitch": 45, "duration": 3, "velocity": 75}, {"time": 3230, "pitch": 62, "duration": 2, "velocity": 83}, {"time": 3230, "pitch": 65, "duration": 2, "velocity": 90}, {"time": 3230, "pitch": 69, "duration": 2, "velocity": 90}, {"time": 3236, "pitch": 50, "duration": 14, "velocity": 85}, {"time": 3242, "pitch": 62, "duration": 2, "velocity": 77}, {"time": 3242, "pitch": 65, "duration": 2, "velocity": 87}, {"time": 3242, "pitch": 69, "duration": 2, "velocity": 93}, {"time": 3254, "pitch": 45, "duration": 3, "velocity": 79}, {"time": 3254, "pitch": 62, "duration": 2, "velocity": 87}, {"time": 3254, "pitch": 65, "duration": 2, "velocity": 95}, {"time": 3254, "pitch": 69, "duration": 2, "velocity": 93}, {"time": 3260, "pitch": 45, "duration": 12, "velocity": 74}, {"time": 3266, "pitch": 62, "duration": 2, "velocity": 85}, {"time": 3266, "pitch": 65, "duration": 2, "velocity": 104}, {"time": 3266, "pitch": 69, "duration": 2, "velocity": 100}, {"time": 3272, "pitch": 50, "duration": 13, "velocity": 90}, {"time": 3278, "pitch": 62, "duration": 2, "velocity": 79}, {"time": 3278, "pitch": 65, "duration": 2, "velocity": 93}, {"time": 3278, "pitch": 69, "duration": 2, "velocity": 93}, {"time": 3284, "pitch": 57, "duration": 14, "velocity": 87}, {"time": 3290, "pitch": 64, "duration": 2, "velocity": 76}, {"time": 3290, "pitch": 69, "duration": 2, "velocity": 81}, {"time": 3290, "pitch": 72, "duration": 2, "velocity": 87}, {"time": 3302, "pitch": 52, "duration": 3, "velocity": 77}, {"time": 3302, "pitch": 64, "duration": 2, "velocity": 81}, {"time": 3302, "pitch": 69, "duration": 2, "velocity": 76}, {"time": 3302, "pitch": 72, "duration": 2, "velocity": 83}, {"time": 3308, "pitch": 52, "duration": 14, "velocity": 79}, {"time": 3314, "pitch": 64, "duration": 2, "velocity": 86}, {"time": 3314, "pitch": 69, "duration": 2, "velocity": 81}, {"time": 3314, "pitch": 72, "duration": 2, "velocity": 90}, {"time": 3326, "pitch": 57, "duration": 2, "velocity": 81}, {"time": 3326, "pitch": 64, "duration": 7, "velocity": 90}, {"time": 3326, "pitch": 69, "duration": 7, "velocity": 86}, {"time": 3326, "pitch": 72, "duration": 7, "velocity": 95}, {"time": 3332, "pitch": 57, "duration": 13, "velocity": 93}, {"time": 3338, "pitch": 64, "duration": 2, "velocity": 86}, {"time": 3338, "pitch": 69, "duration": 2, "velocity": 85}, {"time": 3338, "pitch": 72, "duration": 2, "velocity": 95}, {"time": 3350, "pitch": 52, "duration": 2, "velocity": 86}, {"time": 3350, "pitch": 64, "duration": 8, "velocity": 95}, {"time": 3350, "pitch": 69, "duration": 9, "velocity": 93}, {"time": 3350, "pitch": 72, "duration": 8, "velocity": 108}, {"time": 3356, "pitch": 52, "duration": 10, "velocity": 86}, {"time": 3362, "pitch": 64, "duration": 2, "velocity": 100}, {"time": 3362, "pitch": 69, "duration": 2, "velocity": 87}, {"time": 3362, "pitch": 72, "duration": 2, "velocity": 98}, {"time": 3368, "pitch": 57, "duration": 7, "velocity": 89}, {"time": 3374, "pitch": 52, "duration": 7, "velocity": 85}, {"time": 3374, "pitch": 64, "duration": 4, "velocity": 93}, {"time": 3374, "pitch": 69, "duration": 4, "velocity": 83}, {"time": 3374, "pitch": 72, "duration": 4, "velocity": 90}, {"time": 3380, "pitch": 50, "duration": 14, "velocity": 84}, {"time": 3386, "pitch": 62, "duration": 3, "velocity": 79}, {"time": 3386, "pitch": 65, "duration": 3, "velocity": 98}, {"time": 3386, "pitch": 69, "duration": 3, "velocity": 87}, {"time": 3398, "pitch": 45, "duration": 3, "velocity": 81}, {"time": 3398, "pitch": 62, "duration": 10, "velocity": 83}, {"time": 3398, "pitch": 65, "duration": 10, "velocity": 98}, {"time": 3398, "pitch": 69, "duration": 10, "velocity": 93}, {"time": 3404, "pitch": 45, "duration": 13, "velocity": 77}, {"time": 3410, "pitch": 60, "duration": 2, "velocity": 81}, {"time": 3422, "pitch": 45, "duration": 3, "velocity": 73}, {"time": 3422, "pitch": 62, "duration": 7, "velocity": 86}, {"time": 3422, "pitch": 65, "duration": 7, "velocity": 104}, {"time": 3422, "pitch": 69, "duration": 7, "velocity": 86}, {"time": 3428, "pitch": 50, "duration": 15, "velocity": 95}, {"time": 3434, "pitch": 62, "duration": 2, "velocity": 85}, {"time": 3434, "pitch": 65, "duration": 2, "velocity": 98}, {"time": 3434, "pitch": 69, "duration": 2, "velocity": 93}, {"time": 3446, "pitch": 45, "duration": 3, "velocity": 74}, {"time": 3446, "pitch": 62, "duration": 2, "velocity": 85}, {"time": 3446, "pitch": 65, "duration": 2, "velocity": 95}, {"time": 3446, "pitch": 69, "duration": 2, "velocity": 87}, {"time": 3452, "pitch": 45, "duration": 10, "velocity": 85}, {"time": 3458, "pitch": 62, "duration": 2, "velocity": 93}, {"time": 3458, "pitch": 65, "duration": 2, "velocity": 104}, {"time": 3458, "pitch": 69, "duration": 2, "velocity": 100}, {"time": 3464, "pitch": 50, "duration": 12, "velocity": 84}, {"time": 3470, "pitch": 62, "duration": 2, "velocity": 95}, {"time": 3470, "pitch": 65, "duration": 2, "velocity": 100}, {"time": 3470, "pitch": 69, "duration": 2, "velocity": 98}, {"time": 3476, "pitch": 47, "duration": 3, "velocity": 79}, {"time": 3476, "pitch": 64, "duration": 3, "velocity": 60}, {"time": 3476, "pitch": 68, "duration": 3, "velocity": 67}, {"time": 3476, "pitch": 71, "duration": 2, "velocity": 65}, {"time": 3482, "pitch": 47, "duration": 2, "velocity": 79}, {"time": 3482, "pitch": 64, "duration": 2, "velocity": 59}, {"time": 3482, "pitch": 68, "duration": 2, "velocity": 69}, {"time": 3482, "pitch": 71, "duration": 2, "velocity": 70}, {"time": 3488, "pitch": 47, "duration": 3, "velocity": 79}, {"time": 3488, "pitch": 64, "duration": 1, "velocity": 61}, {"time": 3488, "pitch": 68, "duration": 2, "velocity": 74}, {"time": 3488, "pitch": 71, "duration": 1, "velocity": 74}, {"time": 3494, "pitch": 47, "duration": 2, "velocity": 83}, {"time": 3494, "pitch": 64, "duration": 2, "velocity": 60}, {"time": 3494, "pitch": 68, "duration": 2, "velocity": 74}, {"time": 3494, "pitch": 71, "duration": 2, "velocity": 74}, {"time": 3500, "pitch": 47, "duration": 2, "velocity": 85}, {"time": 3500, "pitch": 64, "duration": 1, "velocity": 61}, {"time": 3500, "pitch": 68, "duration": 2, "velocity": 74}, {"time": 3500, "pitch": 71, "duration": 2, "velocity": 77}, {"time": 3506, "pitch": 47, "duration": 2, "velocity": 86}, {"time": 3506, "pitch": 64, "duration": 1, "velocity": 61}, {"time": 3506, "pitch": 68, "duration": 2, "velocity": 73}, {"time": 3506, "pitch": 71, "duration": 2, "velocity": 76}, {"time": 3512, "pitch": 47, "duration": 2, "velocity": 86}, {"time": 3512, "pitch": 64, "duration": 1, "velocity": 64}, {"time": 3512, "pitch": 68, "duration": 2, "velocity": 74}, {"time": 3512, "pitch": 71, "duration": 1, "velocity": 81}, {"time": 3518, "pitch": 47, "duration": 2, "velocity": 98}, {"time": 3518, "pitch": 64, "duration": 2, "velocity": 65}, {"time": 3518, "pitch": 68, "duration": 2, "velocity": 74}, {"time": 3518, "pitch": 71, "duration": 2, "velocity": 79}, {"time": 3524, "pitch": 47, "duration": 46, "velocity": 88}, {"time": 3524, "pitch": 64, "duration": 46, "velocity": 88}, {"time": 3524, "pitch": 68, "duration": 46, "velocity": 88}, {"time": 3524, "pitch": 71, "duration": 46, "velocity": 88}, {"time": 3572, "pitch": 45, "duration": 80, "velocity": 74}, {"time": 3572, "pitch": 60, "duration": 10, "velocity": 65}, {"time": 3572, "pitch": 64, "duration": 10, "velocity": 81}, {"time": 3572, "pitch": 69, "duration": 10, "velocity": 74}, {"time": 3578, "pitch": 52, "duration": 72, "velocity": 63}, {"time": 3584, "pitch": 60, "duration": 21, "velocity": 82}, {"time": 3584, "pitch": 64, "duration": 21, "velocity": 82}, {"time": 3584, "pitch": 69, "duration": 21, "velocity": 82}, {"time": 3590, "pitch": 57, "duration": 7, "velocity": 76}, {"time": 3602, "pitch": 57, "duration": 7, "velocity": 59}, {"time": 3608, "pitch": 60, "duration": 10, "velocity": 86}, {"time": 3608, "pitch": 64, "duration": 10, "velocity": 86}, {"time": 3608, "pitch": 69, "duration": 10, "velocity": 86}, {"time": 3620, "pitch": 48, "duration": 31, "velocity": 63}, {"time": 3620, "pitch": 60, "duration": 8, "velocity": 84}, {"time": 3620, "pitch": 64, "duration": 9, "velocity": 84}, {"time": 3620, "pitch": 69, "duration": 9, "velocity": 84}, {"time": 3626, "pitch": 57, "duration": 7, "velocity": 58}, {"time": 3632, "pitch": 60, "duration": 11, "velocity": 90}, {"time": 3632, "pitch": 64, "duration": 11, "velocity": 90}, {"time": 3632, "pitch": 69, "duration": 11, "velocity": 86}, {"time": 3638, "pitch": 57, "duration": 7, "velocity": 59}, {"time": 3644, "pitch": 60, "duration": 6, "velocity": 86}, {"time": 3644, "pitch": 64, "duration": 6, "velocity": 90}, {"time": 3644, "pitch": 69, "duration": 6, "velocity": 87}, {"time": 3656, "pitch": 43, "duration": 10, "velocity": 77}, {"time": 3656, "pitch": 59, "duration": 8, "velocity": 84}, {"time": 3656, "pitch": 62, "duration": 8, "velocity": 84}, {"time": 3656, "pitch": 67, "duration": 8, "velocity": 84}, {"time": 3668, "pitch": 41, "duration": 89, "velocity": 84}, {"time": 3668, "pitch": 57, "duration": 11, "velocity": 88}, {"time": 3668, "pitch": 60, "duration": 11, "velocity": 88}, {"time": 3668, "pitch": 65, "duration": 11, "velocity": 88}, {"time": 3674, "pitch": 48, "duration": 80, "velocity": 84}, {"time": 3680, "pitch": 57, "duration": 20, "velocity": 81}, {"time": 3680, "pitch": 60, "duration": 20, "velocity": 81}, {"time": 3680, "pitch": 65, "duration": 19, "velocity": 81}, {"time": 3689, "pitch": 53, "duration": 6, "velocity": 58}, {"time": 3698, "pitch": 53, "duration": 9, "velocity": 61}, {"time": 3704, "pitch": 57, "duration": 10, "velocity": 82}, {"time": 3704, "pitch": 60, "duration": 10, "velocity": 82}, {"time": 3704, "pitch": 65, "duration": 10, "velocity": 82}, {"time": 3710, "pitch": 53, "duration": 21, "velocity": 60}, {"time": 3716, "pitch": 57, "duration": 11, "velocity": 78}, {"time": 3716, "pitch": 60, "duration": 10, "velocity": 78}, {"time": 3716, "pitch": 65, "duration": 10, "velocity": 78}, {"time": 3728, "pitch": 57, "duration": 10, "velocity": 88}, {"time": 3728, "pitch": 60, "duration": 11, "velocity": 88}, {"time": 3728, "pitch": 65, "duration": 10, "velocity": 88}, {"time": 3737, "pitch": 53, "duration": 9, "velocity": 57}, {"time": 3740, "pitch": 57, "duration": 11, "velocity": 68}, {"time": 3740, "pitch": 60, "duration": 11, "velocity": 79}, {"time": 3740, "pitch": 65, "duration": 10, "velocity": 85}, {"time": 3746, "pitch": 53, "duration": 6, "velocity": 60}, {"time": 3752, "pitch": 57, "duration": 3, "velocity": 90}, {"time": 3752, "pitch": 60, "duration": 3, "velocity": 90}, {"time": 3752, "pitch": 65, "duration": 3, "velocity": 104}, {"time": 3758, "pitch": 40, "duration": 4, "velocity": 62}, {"time": 3758, "pitch": 55, "duration": 4, "velocity": 87}, {"time": 3764, "pitch": 38, "duration": 42, "velocity": 73}, {"time": 3764, "pitch": 53, "duration": 10, "velocity": 86}, {"time": 3764, "pitch": 57, "duration": 10, "velocity": 81}, {"time": 3764, "pitch": 62, "duration": 10, "velocity": 74}, {"time": 3770, "pitch": 45, "duration": 42, "velocity": 64}, {"time": 3776, "pitch": 53, "duration": 11, "velocity": 76}, {"time": 3776, "pitch": 57, "duration": 11, "velocity": 83}, {"time": 3776, "pitch": 62, "duration": 10, "velocity": 79}, {"time": 3782, "pitch": 50, "duration": 9, "velocity": 54}, {"time": 3788, "pitch": 53, "duration": 10, "velocity": 72}, {"time": 3788, "pitch": 57, "duration": 10, "velocity": 77}, {"time": 3788, "pitch": 62, "duration": 10, "velocity": 79}, {"time": 3794, "pitch": 50, "duration": 7, "velocity": 61}, {"time": 3800, "pitch": 53, "duration": 7, "velocity": 90}, {"time": 3800, "pitch": 57, "duration": 8, "velocity": 87}, {"time": 3800, "pitch": 62, "duration": 8, "velocity": 87}, {"time": 3806, "pitch": 50, "duration": 6, "velocity": 59}, {"time": 3812, "pitch": 40, "duration": 42, "velocity": 67}, {"time": 3812, "pitch": 56, "duration": 10, "velocity": 71}, {"time": 3812, "pitch": 59, "duration": 9, "velocity": 72}, {"time": 3812, "pitch": 64, "duration": 8, "velocity": 61}, {"time": 3818, "pitch": 47, "duration": 39, "velocity": 69}, {"time": 3824, "pitch": 44, "duration": 32, "velocity": 11}, {"time": 3824, "pitch": 56, "duration": 9, "velocity": 85}, {"time": 3824, "pitch": 59, "duration": 8, "velocity": 85}, {"time": 3824, "pitch": 64, "duration": 7, "velocity": 75}, {"time": 3830, "pitch": 52, "duration": 7, "velocity": 80}, {"time": 3836, "pitch": 56, "duration": 11, "velocity": 80}, {"time": 3836, "pitch": 59, "duration": 10, "velocity": 80}, {"time": 3836, "pitch": 64, "duration": 2, "velocity": 67}, {"time": 3842, "pitch": 52, "duration": 7, "velocity": 80}, {"time": 3848, "pitch": 56, "duration": 7, "velocity": 80}, {"time": 3848, "pitch": 59, "duration": 7, "velocity": 80}, {"time": 3848, "pitch": 64, "duration": 6, "velocity": 72}, {"time": 3854, "pitch": 52, "duration": 7, "velocity": 87}, {"time": 3860, "pitch": 45, "duration": 43, "velocity": 67}, {"time": 3860, "pitch": 60, "duration": 9, "velocity": 69}, {"time": 3860, "pitch": 64, "duration": 10, "velocity": 76}, {"time": 3860, "pitch": 69, "duration": 9, "velocity": 59}, {"time": 3866, "pitch": 52, "duration": 36, "velocity": 65}, {"time": 3872, "pitch": 60, "duration": 11, "velocity": 88}, {"time": 3872, "pitch": 64, "duration": 11, "velocity": 88}, {"time": 3872, "pitch": 69, "duration": 11, "velocity": 88}, {"time": 3878, "pitch": 57, "duration": 8, "velocity": 60}, {"time": 3884, "pitch": 60, "duration": 11, "velocity": 89}, {"time": 3884, "pitch": 64, "duration": 11, "velocity": 89}, {"time": 3884, "pitch": 69, "duration": 11, "velocity": 89}, {"time": 3890, "pitch": 57, "duration": 9, "velocity": 60}, {"time": 3896, "pitch": 60, "duration": 10, "velocity": 85}, {"time": 3896, "pitch": 64, "duration": 6, "velocity": 85}, {"time": 3896, "pitch": 69, "duration": 6, "velocity": 85}, {"time": 3908, "pitch": 45, "duration": 47, "velocity": 90}, {"time": 3908, "pitch": 60, "duration": 10, "velocity": 85}, {"time": 3908, "pitch": 64, "duration": 10, "velocity": 93}, {"time": 3908, "pitch": 69, "duration": 10, "velocity": 95}, {"time": 3914, "pitch": 52, "duration": 43, "velocity": 63}, {"time": 3920, "pitch": 60, "duration": 10, "velocity": 85}, {"time": 3920, "pitch": 64, "duration": 10, "velocity": 90}, {"time": 3920, "pitch": 69, "duration": 10, "velocity": 90}, {"time": 3926, "pitch": 57, "duration": 7, "velocity": 61}, {"time": 3932, "pitch": 60, "duration": 11, "velocity": 84}, {"time": 3932, "pitch": 64, "duration": 11, "velocity": 84}, {"time": 3932, "pitch": 69, "duration": 11, "velocity": 84}, {"time": 3938, "pitch": 57, "duration": 10, "velocity": 55}, {"time": 3944, "pitch": 60, "duration": 11, "velocity": 84}, {"time": 3944, "pitch": 64, "duration": 10, "velocity": 84}, {"time": 3944, "pitch": 69, "duration": 10, "velocity": 84}, {"time": 3956, "pitch": 45, "duration": 41, "velocity": 83}, {"time": 3956, "pitch": 60, "duration": 11, "velocity": 76}, {"time": 3956, "pitch": 64, "duration": 11, "velocity": 85}, {"time": 3956, "pitch": 69, "duration": 11, "velocity": 85}, {"time": 3963, "pitch": 52, "duration": 36, "velocity": 68}, {"time": 3968, "pitch": 60, "duration": 10, "velocity": 76}, {"time": 3968, "pitch": 64, "duration": 10, "velocity": 87}, {"time": 3968, "pitch": 69, "duration": 10, "velocity": 85}, {"time": 3977, "pitch": 57, "duration": 8, "velocity": 54}, {"time": 3980, "pitch": 60, "duration": 11, "velocity": 69}, {"time": 3980, "pitch": 64, "duration": 11, "velocity": 83}, {"time": 3980, "pitch": 69, "duration": 11, "velocity": 83}, {"time": 3986, "pitch": 57, "duration": 7, "velocity": 59}, {"time": 3992, "pitch": 60, "duration": 6, "velocity": 72}, {"time": 3992, "pitch": 64, "duration": 6, "velocity": 93}, {"time": 3992, "pitch": 69, "duration": 6, "velocity": 87}, {"time": 4004, "pitch": 45, "duration": 22, "velocity": 74}, {"time": 4004, "pitch": 60, "duration": 10, "velocity": 64}, {"time": 4004, "pitch": 64, "duration": 11, "velocity": 54}, {"time": 4004, "pitch": 69, "duration": 10, "velocity": 72}, {"time": 4010, "pitch": 52, "duration": 14, "velocity": 63}, {"time": 4016, "pitch": 60, "duration": 7, "velocity": 98}, {"time": 4016, "pitch": 64, "duration": 6, "velocity": 98}, {"time": 4016, "pitch": 69, "duration": 6, "velocity": 98}, {"time": 4028, "pitch": 43, "duration": 23, "velocity": 74}, {"time": 4028, "pitch": 59, "duration": 11, "velocity": 79}, {"time": 4028, "pitch": 62, "duration": 11, "velocity": 79}, {"time": 4028, "pitch": 67, "duration": 11, "velocity": 86}, {"time": 4034, "pitch": 50, "duration": 14, "velocity": 73}, {"time": 4040, "pitch": 59, "duration": 6, "velocity": 94}, {"time": 4040, "pitch": 62, "duration": 6, "velocity": 94}, {"time": 4040, "pitch": 67, "duration": 6, "velocity": 94}, {"time": 4046, "pitch": 55, "duration": 3, "velocity": 63}, {"time": 4052, "pitch": 41, "duration": 44, "velocity": 95}, {"time": 4052, "pitch": 57, "duration": 11, "velocity": 83}, {"time": 4052, "pitch": 60, "duration": 11, "velocity": 87}, {"time": 4052, "pitch": 65, "duration": 11, "velocity": 95}, {"time": 4058, "pitch": 48, "duration": 38, "velocity": 77}, {"time": 4064, "pitch": 57, "duration": 10, "velocity": 81}, {"time": 4064, "pitch": 60, "duration": 11, "velocity": 86}, {"time": 4064, "pitch": 65, "duration": 10, "velocity": 95}, {"time": 4070, "pitch": 53, "duration": 8, "velocity": 60}, {"time": 4076, "pitch": 57, "duration": 10, "velocity": 74}, {"time": 4076, "pitch": 60, "duration": 10, "velocity": 83}, {"time": 4076, "pitch": 65, "duration": 10, "velocity": 87}, {"time": 4082, "pitch": 53, "duration": 9, "velocity": 91}, {"time": 4088, "pitch": 57, "duration": 9, "velocity": 90}, {"time": 4088, "pitch": 60, "duration": 8, "velocity": 90}, {"time": 4088, "pitch": 65, "duration": 7, "velocity": 90}, {"time": 4094, "pitch": 53, "duration": 4, "velocity": 99}, {"time": 4100, "pitch": 41, "duration": 24, "velocity": 90}, {"time": 4100, "pitch": 57, "duration": 10, "velocity": 76}, {"time": 4100, "pitch": 60, "duration": 10, "velocity": 86}, {"time": 4100, "pitch": 65, "duration": 10, "velocity": 95}, {"time": 4106, "pitch": 48, "duration": 21, "velocity": 67}, {"time": 4112, "pitch": 57, "duration": 10, "velocity": 85}, {"time": 4112, "pitch": 60, "duration": 10, "velocity": 86}, {"time": 4112, "pitch": 65, "duration": 10, "velocity": 98}, {"time": 4118, "pitch": 53, "duration": 9, "velocity": 50}, {"time": 4124, "pitch": 57, "duration": 6, "velocity": 86}, {"time": 4124, "pitch": 60, "duration": 6, "velocity": 86}, {"time": 4124, "pitch": 65, "duration": 3, "velocity": 95}, {"time": 4130, "pitch": 40, "duration": 4, "velocity": 90}, {"time": 4130, "pitch": 56, "duration": 3, "velocity": 95}, {"time": 4130, "pitch": 59, "duration": 3, "velocity": 83}, {"time": 4130, "pitch": 64, "duration": 2, "velocity": 74}, {"time": 4142, "pitch": 38, "duration": 50, "velocity": 76}, {"time": 4142, "pitch": 53, "duration": 16, "velocity": 90}, {"time": 4142, "pitch": 57, "duration": 16, "velocity": 81}, {"time": 4154, "pitch": 45, "duration": 42, "velocity": 58}, {"time": 4160, "pitch": 53, "duration": 11, "velocity": 77}, {"time": 4160, "pitch": 57, "duration": 11, "velocity": 85}, {"time": 4160, "pitch": 62, "duration": 11, "velocity": 83}, {"time": 4166, "pitch": 50, "duration": 9, "velocity": 61}, {"time": 4172, "pitch": 53, "duration": 10, "velocity": 72}, {"time": 4172, "pitch": 57, "duration": 10, "velocity": 83}, {"time": 4172, "pitch": 62, "duration": 10, "velocity": 73}, {"time": 4178, "pitch": 50, "duration": 7, "velocity": 60}, {"time": 4184, "pitch": 53, "duration": 7, "velocity": 84}, {"time": 4184, "pitch": 57, "duration": 7, "velocity": 84}, {"time": 4184, "pitch": 62, "duration": 7, "velocity": 84}, {"time": 4190, "pitch": 50, "duration": 5, "velocity": 84}, {"time": 4196, "pitch": 40, "duration": 42, "velocity": 84}, {"time": 4196, "pitch": 56, "duration": 9, "velocity": 84}, {"time": 4196, "pitch": 59, "duration": 9, "velocity": 84}, {"time": 4196, "pitch": 64, "duration": 8, "velocity": 84}, {"time": 4202, "pitch": 47, "duration": 38, "velocity": 88}, {"time": 4208, "pitch": 52, "duration": 5, "velocity": 89}, {"time": 4208, "pitch": 56, "duration": 11, "velocity": 89}, {"time": 4208, "pitch": 59, "duration": 11, "velocity": 89}, {"time": 4208, "pitch": 64, "duration": 8, "velocity": 89}, {"time": 4217, "pitch": 52, "duration": 9, "velocity": 89}, {"time": 4220, "pitch": 56, "duration": 10, "velocity": 88}, {"time": 4220, "pitch": 59, "duration": 10, "velocity": 88}, {"time": 4220, "pitch": 64, "duration": 8, "velocity": 88}, {"time": 4229, "pitch": 52, "duration": 7, "velocity": 86}, {"time": 4232, "pitch": 56, "duration": 7, "velocity": 90}, {"time": 4232, "pitch": 59, "duration": 6, "velocity": 90}, {"time": 4232, "pitch": 64, "duration": 6, "velocity": 90}, {"time": 4238, "pitch": 52, "duration": 7, "velocity": 59}, {"time": 4244, "pitch": 45, "duration": 94, "velocity": 68}, {"time": 4244, "pitch": 60, "duration": 11, "velocity": 68}, {"time": 4244, "pitch": 64, "duration": 11, "velocity": 81}, {"time": 4244, "pitch": 69, "duration": 11, "velocity": 74}, {"time": 4256, "pitch": 60, "duration": 11, "velocity": 83}, {"time": 4256, "pitch": 64, "duration": 11, "velocity": 90}, {"time": 4256, "pitch": 69, "duration": 11, "velocity": 86}, {"time": 4262, "pitch": 57, "duration": 7, "velocity": 59}, {"time": 4268, "pitch": 60, "duration": 8, "velocity": 76}, {"time": 4268, "pitch": 64, "duration": 11, "velocity": 87}, {"time": 4268, "pitch": 69, "duration": 10, "velocity": 87}, {"time": 4274, "pitch": 57, "duration": 8, "velocity": 62}, {"time": 4280, "pitch": 64, "duration": 7, "velocity": 62}, {"time": 4283, "pitch": 60, "duration": 20, "velocity": 63}, {"time": 4283, "pitch": 69, "duration": 6, "velocity": 62}, {"time": 4286, "pitch": 57, "duration": 7, "velocity": 71}, {"time": 4292, "pitch": 64, "duration": 11, "velocity": 72}, {"time": 4292, "pitch": 69, "duration": 10, "velocity": 64}, {"time": 4298, "pitch": 57, "duration": 9, "velocity": 63}, {"time": 4304, "pitch": 60, "duration": 12, "velocity": 77}, {"time": 4304, "pitch": 64, "duration": 12, "velocity": 81}, {"time": 4304, "pitch": 69, "duration": 12, "velocity": 77}, {"time": 4310, "pitch": 57, "duration": 8, "velocity": 59}, {"time": 4316, "pitch": 60, "duration": 11, "velocity": 84}, {"time": 4316, "pitch": 64, "duration": 11, "velocity": 84}, {"time": 4316, "pitch": 69, "duration": 11, "velocity": 87}, {"time": 4334, "pitch": 76, "duration": 2, "velocity": 76}, {"time": 4340, "pitch": 50, "duration": 12, "velocity": 74}, {"time": 4346, "pitch": 62, "duration": 2, "velocity": 74}, {"time": 4346, "pitch": 65, "duration": 2, "velocity": 83}, {"time": 4346, "pitch": 69, "duration": 1, "velocity": 79}, {"time": 4358, "pitch": 45, "duration": 3, "velocity": 67}, {"time": 4358, "pitch": 62, "duration": 2, "velocity": 75}, {"time": 4358, "pitch": 65, "duration": 2, "velocity": 86}, {"time": 4358, "pitch": 69, "duration": 2, "velocity": 83}, {"time": 4364, "pitch": 45, "duration": 11, "velocity": 79}, {"time": 4370, "pitch": 62, "duration": 2, "velocity": 83}, {"time": 4370, "pitch": 65, "duration": 2, "velocity": 86}, {"time": 4370, "pitch": 69, "duration": 2, "velocity": 83}, {"time": 4376, "pitch": 50, "duration": 8, "velocity": 90}, {"time": 4382, "pitch": 62, "duration": 2, "velocity": 81}, {"time": 4382, "pitch": 65, "duration": 2, "velocity": 85}, {"time": 4382, "pitch": 69, "duration": 2, "velocity": 83}, {"time": 4388, "pitch": 45, "duration": 7, "velocity": 75}, {"time": 4394, "pitch": 64, "duration": 1, "velocity": 67}, {"time": 4394, "pitch": 69, "duration": 2, "velocity": 73}, {"time": 4394, "pitch": 72, "duration": 2, "velocity": 75}, {"time": 4406, "pitch": 40, "duration": 2, "velocity": 86}, {"time": 4406, "pitch": 64, "duration": 2, "velocity": 76}, {"time": 4406, "pitch": 69, "duration": 2, "velocity": 75}, {"time": 4406, "pitch": 72, "duration": 2, "velocity": 81}, {"time": 4412, "pitch": 40, "duration": 9, "velocity": 81}, {"time": 4418, "pitch": 64, "duration": 2, "velocity": 83}, {"time": 4418, "pitch": 69, "duration": 2, "velocity": 76}, {"time": 4418, "pitch": 72, "duration": 2, "velocity": 79}, {"time": 4424, "pitch": 45, "duration": 9, "velocity": 98}, {"time": 4430, "pitch": 64, "duration": 2, "velocity": 67}, {"time": 4430, "pitch": 69, "duration": 2, "velocity": 69}, {"time": 4430, "pitch": 72, "duration": 2, "velocity": 65}, {"time": 4436, "pitch": 41, "duration": 11, "velocity": 96}, {"time": 4442, "pitch": 65, "duration": 2, "velocity": 81}, {"time": 4442, "pitch": 69, "duration": 2, "velocity": 75}, {"time": 4442, "pitch": 72, "duration": 1, "velocity": 79}, {"time": 4454, "pitch": 36, "duration": 2, "velocity": 89}, {"time": 4454, "pitch": 65, "duration": 2, "velocity": 86}, {"time": 4454, "pitch": 69, "duration": 2, "velocity": 83}, {"time": 4454, "pitch": 72, "duration": 1, "velocity": 83}, {"time": 4460, "pitch": 36, "duration": 8, "velocity": 89}, {"time": 4466, "pitch": 65, "duration": 2, "velocity": 79}, {"time": 4466, "pitch": 69, "duration": 2, "velocity": 76}, {"time": 4466, "pitch": 72, "duration": 1, "velocity": 76}, {"time": 4472, "pitch": 41, "duration": 7, "velocity": 85}, {"time": 4478, "pitch": 65, "duration": 2, "velocity": 76}, {"time": 4478, "pitch": 69, "duration": 2, "velocity": 75}, {"time": 4478, "pitch": 72, "duration": 2, "velocity": 76}, {"time": 4484, "pitch": 45, "duration": 13, "velocity": 93}, {"time": 4490, "pitch": 64, "duration": 2, "velocity": 81}, {"time": 4490, "pitch": 69, "duration": 2, "velocity": 77}, {"time": 4490, "pitch": 72, "duration": 1, "velocity": 77}, {"time": 4502, "pitch": 40, "duration": 2, "velocity": 87}, {"time": 4502, "pitch": 64, "duration": 2, "velocity": 77}, {"time": 4502, "pitch": 69, "duration": 2, "velocity": 79}, {"time": 4502, "pitch": 72, "duration": 1, "velocity": 83}, {"time": 4508, "pitch": 40, "duration": 7, "velocity": 86}, {"time": 4514, "pitch": 64, "duration": 2, "velocity": 87}, {"time": 4514, "pitch": 69, "duration": 2, "velocity": 85}, {"time": 4514, "pitch": 72, "duration": 1, "velocity": 87}, {"time": 4520, "pitch": 45, "duration": 5, "velocity": 79}, {"time": 4526, "pitch": 64, "duration": 2, "velocity": 86}, {"time": 4526, "pitch": 69, "duration": 2, "velocity": 79}, {"time": 4526, "pitch": 72, "duration": 2, "velocity": 73}, {"time": 4532, "pitch": 50, "duration": 13, "velocity": 98}, {"time": 4538, "pitch": 62, "duration": 2, "velocity": 74}, {"time": 4538, "pitch": 65, "duration": 2, "velocity": 85}, {"time": 4538, "pitch": 69, "duration": 2, "velocity": 79}, {"time": 4550, "pitch": 45, "duration": 2, "velocity": 85}, {"time": 4550, "pitch": 62, "duration": 2, "velocity": 74}, {"time": 4550, "pitch": 65, "duration": 2, "velocity": 85}, {"time": 4550, "pitch": 69, "duration": 2, "velocity": 87}, {"time": 4556, "pitch": 45, "duration": 9, "velocity": 85}, {"time": 4562, "pitch": 62, "duration": 2, "velocity": 73}, {"time": 4562, "pitch": 65, "duration": 2, "velocity": 83}, {"time": 4562, "pitch": 69, "duration": 2, "velocity": 83}, {"time": 4574, "pitch": 45, "duration": 2, "velocity": 72}, {"time": 4574, "pitch": 62, "duration": 2, "velocity": 71}, {"time": 4574, "pitch": 65, "duration": 2, "velocity": 86}, {"time": 4574, "pitch": 69, "duration": 1, "velocity": 74}, {"time": 4580, "pitch": 50, "duration": 12, "velocity": 79}, {"time": 4586, "pitch": 62, "duration": 2, "velocity": 74}, {"time": 4586, "pitch": 65, "duration": 2, "velocity": 77}, {"time": 4586, "pitch": 69, "duration": 2, "velocity": 86}, {"time": 4598, "pitch": 50, "duration": 2, "velocity": 73}, {"time": 4598, "pitch": 62, "duration": 2, "velocity": 59}, {"time": 4598, "pitch": 65, "duration": 2, "velocity": 72}, {"time": 4598, "pitch": 69, "duration": 1, "velocity": 63}, {"time": 4604, "pitch": 50, "duration": 9, "velocity": 85}, {"time": 4610, "pitch": 62, "duration": 2, "velocity": 76}, {"time": 4610, "pitch": 65, "duration": 2, "velocity": 90}, {"time": 4610, "pitch": 69, "duration": 1, "velocity": 87}, {"time": 4616, "pitch": 50, "duration": 7, "velocity": 93}, {"time": 4628, "pitch": 52, "duration": 2, "velocity": 95}, {"time": 4628, "pitch": 64, "duration": 2, "velocity": 67}, {"time": 4628, "pitch": 68, "duration": 2, "velocity": 71}, {"time": 4628, "pitch": 71, "duration": 2, "velocity": 79}, {"time": 4634, "pitch": 52, "duration": 2, "velocity": 98}, {"time": 4634, "pitch": 64, "duration": 2, "velocity": 74}, {"time": 4634, "pitch": 68, "duration": 2, "velocity": 77}, {"time": 4634, "pitch": 71, "duration": 2, "velocity": 86}, {"time": 4640, "pitch": 52, "duration": 2, "velocity": 95}, {"time": 4640, "pitch": 64, "duration": 2, "velocity": 72}, {"time": 4640, "pitch": 68, "duration": 2, "velocity": 77}, {"time": 4640, "pitch": 71, "duration": 2, "velocity": 83}, {"time": 4646, "pitch": 52, "duration": 2, "velocity": 100}, {"time": 4646, "pitch": 64, "duration": 2, "velocity": 68}, {"time": 4646, "pitch": 68, "duration": 2, "velocity": 76}, {"time": 4646, "pitch": 71, "duration": 2, "velocity": 83}, {"time": 4652, "pitch": 52, "duration": 2, "velocity": 98}, {"time": 4652, "pitch": 64, "duration": 2, "velocity": 68}, {"time": 4652, "pitch": 68, "duration": 2, "velocity": 76}, {"time": 4652, "pitch": 71, "duration": 2, "velocity": 85}, {"time": 4658, "pitch": 52, "duration": 2, "velocity": 104}, {"time": 4658, "pitch": 64, "duration": 2, "velocity": 69}, {"time": 4658, "pitch": 68, "duration": 2, "velocity": 77}, {"time": 4658, "pitch": 71, "duration": 2, "velocity": 83}, {"time": 4664, "pitch": 52, "duration": 2, "velocity": 104}, {"time": 4664, "pitch": 64, "duration": 2, "velocity": 71}, {"time": 4664, "pitch": 68, "duration": 2, "velocity": 76}, {"time": 4664, "pitch": 71, "duration": 2, "velocity": 85}, {"time": 4670, "pitch": 52, "duration": 2, "velocity": 104}, {"time": 4670, "pitch": 64, "duration": 2, "velocity": 69}, {"time": 4670, "pitch": 68, "duration": 2, "velocity": 75}, {"time": 4670, "pitch": 71, "duration": 2, "velocity": 85}, {"time": 4676, "pitch": 52, "duration": 44, "velocity": 89}, {"time": 4676, "pitch": 64, "duration": 34, "velocity": 93}, {"time": 4676, "pitch": 68, "duration": 34, "velocity": 98}, {"time": 4676, "pitch": 71, "duration": 34, "velocity": 104}, {"time": 4760, "pitch": 64, "duration": 8, "velocity": 72}, {"time": 4760, "pitch": 68, "duration": 9, "velocity": 69}, {"time": 4760, "pitch": 71, "duration": 9, "velocity": 69}, {"time": 4772, "pitch": 45, "duration": 13, "velocity": 69}, {"time": 4772, "pitch": 57, "duration": 13, "velocity": 69}, {"time": 4778, "pitch": 69, "duration": 2, "velocity": 79}, {"time": 4778, "pitch": 72, "duration": 2, "velocity": 86}, {"time": 4778, "pitch": 76, "duration": 1, "velocity": 81}, {"time": 4790, "pitch": 40, "duration": 3, "velocity": 85}, {"time": 4790, "pitch": 52, "duration": 3, "velocity": 85}, {"time": 4790, "pitch": 69, "duration": 2, "velocity": 74}, {"time": 4790, "pitch": 72, "duration": 2, "velocity": 79}, {"time": 4790, "pitch": 76, "duration": 2, "velocity": 76}, {"time": 4796, "pitch": 40, "duration": 13, "velocity": 83}, {"time": 4796, "pitch": 52, "duration": 13, "velocity": 83}, {"time": 4802, "pitch": 69, "duration": 2, "velocity": 81}, {"time": 4802, "pitch": 72, "duration": 2, "velocity": 85}, {"time": 4802, "pitch": 76, "duration": 2, "velocity": 81}, {"time": 4814, "pitch": 40, "duration": 3, "velocity": 81}, {"time": 4814, "pitch": 52, "duration": 3, "velocity": 81}, {"time": 4814, "pitch": 69, "duration": 6, "velocity": 87}, {"time": 4814, "pitch": 72, "duration": 6, "velocity": 87}, {"time": 4814, "pitch": 76, "duration": 6, "velocity": 83}, {"time": 4820, "pitch": 45, "duration": 15, "velocity": 89}, {"time": 4820, "pitch": 57, "duration": 15, "velocity": 89}, {"time": 4826, "pitch": 69, "duration": 2, "velocity": 83}, {"time": 4826, "pitch": 72, "duration": 2, "velocity": 81}, {"time": 4826, "pitch": 76, "duration": 1, "velocity": 77}, {"time": 4838, "pitch": 40, "duration": 2, "velocity": 86}, {"time": 4838, "pitch": 52, "duration": 2, "velocity": 86}, {"time": 4838, "pitch": 69, "duration": 2, "velocity": 86}, {"time": 4838, "pitch": 72, "duration": 2, "velocity": 90}, {"time": 4838, "pitch": 76, "duration": 2, "velocity": 93}, {"time": 4844, "pitch": 40, "duration": 12, "velocity": 85}, {"time": 4844, "pitch": 52, "duration": 12, "velocity": 85}, {"time": 4850, "pitch": 69, "duration": 2, "velocity": 90}, {"time": 4850, "pitch": 72, "duration": 2, "velocity": 93}, {"time": 4850, "pitch": 76, "duration": 2, "velocity": 90}, {"time": 4856, "pitch": 45, "duration": 7, "velocity": 90}, {"time": 4856, "pitch": 57, "duration": 7, "velocity": 90}, {"time": 4862, "pitch": 40, "duration": 3, "velocity": 72}, {"time": 4862, "pitch": 52, "duration": 3, "velocity": 72}, {"time": 4862, "pitch": 69, "duration": 2, "velocity": 85}, {"time": 4862, "pitch": 72, "duration": 2, "velocity": 86}, {"time": 4862, "pitch": 76, "duration": 2, "velocity": 87}, {"time": 4868, "pitch": 48, "duration": 14, "velocity": 95}, {"time": 4874, "pitch": 60, "duration": 2, "velocity": 83}, {"time": 4874, "pitch": 64, "duration": 2, "velocity": 90}, {"time": 4874, "pitch": 67, "duration": 1, "velocity": 100}, {"time": 4886, "pitch": 43, "duration": 3, "velocity": 85}, {"time": 4886, "pitch": 60, "duration": 2, "velocity": 81}, {"time": 4886, "pitch": 64, "duration": 2, "velocity": 98}, {"time": 4886, "pitch": 67, "duration": 2, "velocity": 98}, {"time": 4892, "pitch": 43, "duration": 13, "velocity": 85}, {"time": 4898, "pitch": 60, "duration": 2, "velocity": 69}, {"time": 4898, "pitch": 64, "duration": 2, "velocity": 93}, {"time": 4898, "pitch": 67, "duration": 1, "velocity": 93}, {"time": 4910, "pitch": 43, "duration": 4, "velocity": 83}, {"time": 4910, "pitch": 60, "duration": 3, "velocity": 85}, {"time": 4910, "pitch": 64, "duration": 3, "velocity": 95}, {"time": 4910, "pitch": 67, "duration": 3, "velocity": 98}, {"time": 4916, "pitch": 48, "duration": 16, "velocity": 90}, {"time": 4922, "pitch": 60, "duration": 2, "velocity": 72}, {"time": 4922, "pitch": 64, "duration": 2, "velocity": 85}, {"time": 4922, "pitch": 67, "duration": 2, "velocity": 86}, {"time": 4934, "pitch": 43, "duration": 3, "velocity": 93}, {"time": 4934, "pitch": 60, "duration": 2, "velocity": 93}, {"time": 4934, "pitch": 64, "duration": 2, "velocity": 108}, {"time": 4934, "pitch": 67, "duration": 2, "velocity": 104}, {"time": 4940, "pitch": 43, "duration": 12, "velocity": 81}, {"time": 4946, "pitch": 60, "duration": 2, "velocity": 87}, {"time": 4946, "pitch": 64, "duration": 2, "velocity": 98}, {"time": 4946, "pitch": 67, "duration": 2, "velocity": 100}, {"time": 4952, "pitch": 48, "duration": 14, "velocity": 95}, {"time": 4958, "pitch": 60, "duration": 2, "velocity": 85}, {"time": 4958, "pitch": 64, "duration": 2, "velocity": 98}, {"time": 4958, "pitch": 67, "duration": 2, "velocity": 100}, {"time": 4964, "pitch": 45, "duration": 13, "velocity": 98}, {"time": 4970, "pitch": 64, "duration": 2, "velocity": 74}, {"time": 4970, "pitch": 69, "duration": 2, "velocity": 74}, {"time": 4970, "pitch": 72, "duration": 2, "velocity": 77}, {"time": 4982, "pitch": 40, "duration": 3, "velocity": 95}, {"time": 4982, "pitch": 64, "duration": 2, "velocity": 87}, {"time": 4982, "pitch": 69, "duration": 2, "velocity": 87}, {"time": 4982, "pitch": 72, "duration": 2, "velocity": 85}, {"time": 4988, "pitch": 40, "duration": 14, "velocity": 95}, {"time": 4994, "pitch": 64, "duration": 2, "velocity": 90}, {"time": 4994, "pitch": 69, "duration": 2, "velocity": 83}, {"time": 4994, "pitch": 72, "duration": 2, "velocity": 90}, {"time": 5006, "pitch": 40, "duration": 3, "velocity": 90}, {"time": 5006, "pitch": 64, "duration": 6, "velocity": 87}, {"time": 5006, "pitch": 69, "duration": 6, "velocity": 85}, {"time": 5006, "pitch": 72, "duration": 6, "velocity": 95}, {"time": 5012, "pitch": 45, "duration": 14, "velocity": 95}, {"time": 5018, "pitch": 64, "duration": 2, "velocity": 81}, {"time": 5018, "pitch": 69, "duration": 2, "velocity": 79}, {"time": 5018, "pitch": 72, "duration": 2, "velocity": 90}, {"time": 5030, "pitch": 40, "duration": 2, "velocity": 83}, {"time": 5030, "pitch": 64, "duration": 2, "velocity": 83}, {"time": 5030, "pitch": 69, "duration": 2, "velocity": 81}, {"time": 5030, "pitch": 72, "duration": 2, "velocity": 83}, {"time": 5036, "pitch": 40, "duration": 14, "velocity": 86}, {"time": 5042, "pitch": 64, "duration": 2, "velocity": 93}, {"time": 5042, "pitch": 69, "duration": 2, "velocity": 87}, {"time": 5042, "pitch": 72, "duration": 2, "velocity": 93}, {"time": 5054, "pitch": 40, "duration": 3, "velocity": 79}, {"time": 5054, "pitch": 64, "duration": 3, "velocity": 98}, {"time": 5054, "pitch": 69, "duration": 2, "velocity": 87}, {"time": 5054, "pitch": 72, "duration": 2, "velocity": 87}, {"time": 5060, "pitch": 45, "duration": 14, "velocity": 98}, {"time": 5066, "pitch": 64, "duration": 2, "velocity": 83}, {"time": 5066, "pitch": 69, "duration": 2, "velocity": 83}, {"time": 5066, "pitch": 72, "duration": 2, "velocity": 86}, {"time": 5078, "pitch": 40, "duration": 3, "velocity": 76}, {"time": 5078, "pitch": 60, "duration": 2, "velocity": 64}, {"time": 5078, "pitch": 64, "duration": 2, "velocity": 75}, {"time": 5078, "pitch": 64, "duration": 2, "velocity": 77}, {"time": 5078, "pitch": 69, "duration": 2, "velocity": 72}, {"time": 5078, "pitch": 69, "duration": 2, "velocity": 81}, {"time": 5078, "pitch": 72, "duration": 2, "velocity": 86}, {"time": 5090, "pitch": 60, "duration": 2, "velocity": 75}, {"time": 5090, "pitch": 64, "duration": 2, "velocity": 86}, {"time": 5090, "pitch": 69, "duration": 2, "velocity": 75}, {"time": 5096, "pitch": 45, "duration": 8, "velocity": 74}, {"time": 5102, "pitch": 60, "duration": 1, "velocity": 63}, {"time": 5102, "pitch": 64, "duration": 2, "velocity": 85}, {"time": 5102, "pitch": 69, "duration": 2, "velocity": 74}, {"time": 5108, "pitch": 60, "duration": 1, "velocity": 47}, {"time": 5108, "pitch": 64, "duration": 2, "velocity": 63}, {"time": 5108, "pitch": 69, "duration": 2, "velocity": 62}, {"time": 5114, "pitch": 60, "duration": 2, "velocity": 74}, {"time": 5114, "pitch": 64, "duration": 2, "velocity": 90}, {"time": 5114, "pitch": 69, "duration": 2, "velocity": 77}, {"time": 5120, "pitch": 45, "duration": 7, "velocity": 86}, {"time": 5126, "pitch": 60, "duration": 2, "velocity": 64}, {"time": 5126, "pitch": 64, "duration": 2, "velocity": 86}, {"time": 5126, "pitch": 69, "duration": 2, "velocity": 74}, {"time": 5138, "pitch": 60, "duration": 5, "velocity": 75}, {"time": 5138, "pitch": 64, "duration": 5, "velocity": 90}, {"time": 5138, "pitch": 69, "duration": 5, "velocity": 85}, {"time": 5144, "pitch": 45, "duration": 6, "velocity": 90}, {"time": 5150, "pitch": 60, "duration": 1, "velocity": 61}, {"time": 5150, "pitch": 64, "duration": 2, "velocity": 90}, {"time": 5150, "pitch": 69, "duration": 1, "velocity": 85}, {"time": 5156, "pitch": 45, "duration": 13, "velocity": 69}, {"time": 5156, "pitch": 57, "duration": 13, "velocity": 69}, {"time": 5162, "pitch": 69, "duration": 2, "velocity": 79}, {"time": 5162, "pitch": 72, "duration": 2, "velocity": 86}, {"time": 5162, "pitch": 76, "duration": 1, "velocity": 81}, {"time": 5174, "pitch": 40, "duration": 3, "velocity": 85}, {"time": 5174, "pitch": 52, "duration": 3, "velocity": 85}, {"time": 5174, "pitch": 69, "duration": 2, "velocity": 74}, {"time": 5174, "pitch": 72, "duration": 2, "velocity": 79}, {"time": 5174, "pitch": 76, "duration": 2, "velocity": 76}, {"time": 5180, "pitch": 40, "duration": 13, "velocity": 83}, {"time": 5180, "pitch": 52, "duration": 13, "velocity": 83}, {"time": 5186, "pitch": 69, "duration": 2, "velocity": 81}, {"time": 5186, "pitch": 72, "duration": 2, "velocity": 85}, {"time": 5186, "pitch": 76, "duration": 2, "velocity": 81}, {"time": 5198, "pitch": 40, "duration": 3, "velocity": 81}, {"time": 5198, "pitch": 52, "duration": 3, "velocity": 81}, {"time": 5198, "pitch": 69, "duration": 6, "velocity": 87}, {"time": 5198, "pitch": 72, "duration": 6, "velocity": 87}, {"time": 5198, "pitch": 76, "duration": 6, "velocity": 83}, {"time": 5204, "pitch": 45, "duration": 15, "velocity": 98}, {"time": 5204, "pitch": 57, "duration": 15, "velocity": 98}, {"time": 5210, "pitch": 69, "duration": 2, "velocity": 83}, {"time": 5210, "pitch": 72, "duration": 2, "velocity": 81}, {"time": 5210, "pitch": 76, "duration": 1, "velocity": 77}, {"time": 5222, "pitch": 40, "duration": 2, "velocity": 86}, {"time": 5222, "pitch": 52, "duration": 2, "velocity": 86}, {"time": 5222, "pitch": 69, "duration": 2, "velocity": 86}, {"time": 5222, "pitch": 72, "duration": 2, "velocity": 90}, {"time": 5222, "pitch": 76, "duration": 2, "velocity": 93}, {"time": 5228, "pitch": 40, "duration": 12, "velocity": 85}, {"time": 5228, "pitch": 52, "duration": 12, "velocity": 85}, {"time": 5234, "pitch": 69, "duration": 2, "velocity": 90}, {"time": 5234, "pitch": 72, "duration": 2, "velocity": 93}, {"time": 5234, "pitch": 76, "duration": 2, "velocity": 90}, {"time": 5240, "pitch": 45, "duration": 7, "velocity": 90}, {"time": 5240, "pitch": 57, "duration": 7, "velocity": 90}, {"time": 5246, "pitch": 40, "duration": 3, "velocity": 72}, {"time": 5246, "pitch": 52, "duration": 3, "velocity": 72}, {"time": 5246, "pitch": 69, "duration": 2, "velocity": 85}, {"time": 5246, "pitch": 72, "duration": 2, "velocity": 86}, {"time": 5246, "pitch": 76, "duration": 2, "velocity": 87}, {"time": 5252, "pitch": 48, "duration": 14, "velocity": 80}, {"time": 5258, "pitch": 60, "duration": 2, "velocity": 83}, {"time": 5258, "pitch": 64, "duration": 2, "velocity": 90}, {"time": 5258, "pitch": 67, "duration": 1, "velocity": 100}, {"time": 5270, "pitch": 43, "duration": 3, "velocity": 85}, {"time": 5270, "pitch": 60, "duration": 2, "velocity": 81}, {"time": 5270, "pitch": 64, "duration": 2, "velocity": 98}, {"time": 5270, "pitch": 67, "duration": 2, "velocity": 98}, {"time": 5276, "pitch": 43, "duration": 13, "velocity": 85}, {"time": 5282, "pitch": 60, "duration": 2, "velocity": 69}, {"time": 5282, "pitch": 64, "duration": 2, "velocity": 93}, {"time": 5282, "pitch": 67, "duration": 1, "velocity": 93}, {"time": 5294, "pitch": 43, "duration": 4, "velocity": 83}, {"time": 5294, "pitch": 60, "duration": 3, "velocity": 85}, {"time": 5294, "pitch": 64, "duration": 3, "velocity": 95}, {"time": 5294, "pitch": 67, "duration": 3, "velocity": 98}, {"time": 5300, "pitch": 48, "duration": 16, "velocity": 91}, {"time": 5306, "pitch": 60, "duration": 2, "velocity": 72}, {"time": 5306, "pitch": 64, "duration": 2, "velocity": 85}, {"time": 5306, "pitch": 67, "duration": 2, "velocity": 86}, {"time": 5318, "pitch": 43, "duration": 3, "velocity": 93}, {"time": 5318, "pitch": 60, "duration": 2, "velocity": 93}, {"time": 5318, "pitch": 64, "duration": 2, "velocity": 108}, {"time": 5318, "pitch": 67, "duration": 2, "velocity": 104}, {"time": 5324, "pitch": 43, "duration": 12, "velocity": 81}, {"time": 5330, "pitch": 60, "duration": 2, "velocity": 87}, {"time": 5330, "pitch": 64, "duration": 2, "velocity": 98}, {"time": 5330, "pitch": 67, "duration": 2, "velocity": 100}, {"time": 5336, "pitch": 48, "duration": 14, "velocity": 95}, {"time": 5342, "pitch": 60, "duration": 2, "velocity": 85}, {"time": 5342, "pitch": 64, "duration": 2, "velocity": 98}, {"time": 5342, "pitch": 67, "duration": 2, "velocity": 100}, {"time": 5348, "pitch": 57, "duration": 13, "velocity": 98}, {"time": 5354, "pitch": 64, "duration": 2, "velocity": 74}, {"time": 5354, "pitch": 69, "duration": 2, "velocity": 74}, {"time": 5354, "pitch": 72, "duration": 2, "velocity": 77}, {"time": 5366, "pitch": 52, "duration": 3, "velocity": 95}, {"time": 5366, "pitch": 64, "duration": 2, "velocity": 87}, {"time": 5366, "pitch": 69, "duration": 2, "velocity": 87}, {"time": 5366, "pitch": 72, "duration": 2, "velocity": 85}, {"time": 5372, "pitch": 52, "duration": 14, "velocity": 95}, {"time": 5378, "pitch": 64, "duration": 2, "velocity": 90}, {"time": 5378, "pitch": 69, "duration": 2, "velocity": 83}, {"time": 5378, "pitch": 72, "duration": 2, "velocity": 90}, {"time": 5390, "pitch": 52, "duration": 3, "velocity": 90}, {"time": 5390, "pitch": 64, "duration": 6, "velocity": 87}, {"time": 5390, "pitch": 69, "duration": 6, "velocity": 85}, {"time": 5390, "pitch": 72, "duration": 6, "velocity": 95}, {"time": 5396, "pitch": 57, "duration": 14, "velocity": 95}, {"time": 5402, "pitch": 64, "duration": 2, "velocity": 81}, {"time": 5402, "pitch": 69, "duration": 2, "velocity": 79}, {"time": 5402, "pitch": 72, "duration": 2, "velocity": 90}, {"time": 5414, "pitch": 52, "duration": 2, "velocity": 83}, {"time": 5414, "pitch": 64, "duration": 2, "velocity": 83}, {"time": 5414, "pitch": 69, "duration": 2, "velocity": 81}, {"time": 5414, "pitch": 72, "duration": 2, "velocity": 83}, {"time": 5420, "pitch": 52, "duration": 14, "velocity": 86}, {"time": 5426, "pitch": 64, "duration": 2, "velocity": 93}, {"time": 5426, "pitch": 69, "duration": 2, "velocity": 87}, {"time": 5426, "pitch": 72, "duration": 2, "velocity": 93}, {"time": 5438, "pitch": 52, "duration": 3, "velocity": 79}, {"time": 5438, "pitch": 64, "duration": 3, "velocity": 98}, {"time": 5438, "pitch": 69, "duration": 2, "velocity": 87}, {"time": 5438, "pitch": 72, "duration": 2, "velocity": 87}, {"time": 5444, "pitch": 57, "duration": 14, "velocity": 98}, {"time": 5450, "pitch": 64, "duration": 2, "velocity": 83}, {"time": 5450, "pitch": 69, "duration": 2, "velocity": 83}, {"time": 5450, "pitch": 72, "duration": 2, "velocity": 86}, {"time": 5462, "pitch": 52, "duration": 3, "velocity": 76}, {"time": 5462, "pitch": 64, "duration": 2, "velocity": 77}, {"time": 5462, "pitch": 69, "duration": 2, "velocity": 81}, {"time": 5462, "pitch": 72, "duration": 2, "velocity": 86}, {"time": 5468, "pitch": 45, "duration": 8, "velocity": 61}, {"time": 5474, "pitch": 64, "duration": 2, "velocity": 69}, {"time": 5474, "pitch": 69, "duration": 2, "velocity": 71}, {"time": 5474, "pitch": 72, "duration": 1, "velocity": 70}, {"time": 5486, "pitch": 64, "duration": 7, "velocity": 72}, {"time": 5486, "pitch": 69, "duration": 6, "velocity": 65}, {"time": 5486, "pitch": 72, "duration": 6, "velocity": 72}, {"time": 5492, "pitch": 45, "duration": 10, "velocity": 81}, {"time": 5498, "pitch": 64, "duration": 2, "velocity": 64}, {"time": 5498, "pitch": 69, "duration": 2, "velocity": 70}, {"time": 5498, "pitch": 72, "duration": 1, "velocity": 67}, {"time": 5510, "pitch": 64, "duration": 7, "velocity": 75}, {"time": 5510, "pitch": 69, "duration": 6, "velocity": 76}, {"time": 5510, "pitch": 72, "duration": 7, "velocity": 81}, {"time": 5516, "pitch": 45, "duration": 8, "velocity": 74}, {"time": 5522, "pitch": 64, "duration": 2, "velocity": 76}, {"time": 5522, "pitch": 69, "duration": 2, "velocity": 83}, {"time": 5522, "pitch": 72, "duration": 2, "velocity": 86}, {"time": 5534, "pitch": 64, "duration": 6, "velocity": 71}, {"time": 5534, "pitch": 69, "duration": 6, "velocity": 74}, {"time": 5534, "pitch": 72, "duration": 6, "velocity": 77}, {"time": 5540, "pitch": 45, "duration": 12, "velocity": 85}, {"time": 5552, "pitch": 64, "duration": 2, "velocity": 75}, {"time": 5552, "pitch": 69, "duration": 2, "velocity": 75}, {"time": 5552, "pitch": 72, "duration": 2, "velocity": 81}, {"time": 5570, "pitch": 64, "duration": 2, "velocity": 69}, {"time": 5570, "pitch": 69, "duration": 2, "velocity": 68}, {"time": 5570, "pitch": 72, "duration": 1, "velocity": 69}, {"time": 5582, "pitch": 45, "duration": 58, "velocity": 56}, {"time": 5582, "pitch": 64, "duration": 57, "velocity": 64}, {"time": 5582, "pitch": 69, "duration": 57, "velocity": 65}, {"time": 5582, "pitch": 72, "duration": 56, "velocity": 69}, {"time": 5642, "pitch": 43, "duration": 21, "velocity": 65}, {"time": 5645, "pitch": 62, "duration": 9, "velocity": 52}, {"time": 5663, "pitch": 45, "duration": 90, "velocity": 72}, {"time": 5663, "pitch": 64, "duration": 91, "velocity": 52}, {"time": 5666, "pitch": 69, "duration": 90, "velocity": 61}, {"time": 5669, "pitch": 72, "duration": 87, "velocity": 47}, {"time": 5761, "pitch": 57, "duration": 52, "velocity": 51}, {"time": 5762, "pitch": 60, "duration": 51, "velocity": 64}, {"time": 5762, "pitch": 45, "duration": 52, "velocity": 59}, {"time": 5772, "pitch": 64, "duration": 20, "velocity": 54}, {"time": 5781, "pitch": 67, "duration": 11, "velocity": 63}, {"time": 5790, "pitch": 72, "duration": 33, "velocity": 53}], "annotations": [{"time": 84, "annotation": {"number": 64, "value": 76}, "group": "control_change"}, {"time": 96, "annotation": {"number": 64, "value": 78}, "group": "control_change"}, {"time": 480, "annotation": {"number": 64, "value": 20}, "group": "control_change"}, {"time": 492, "annotation": {"number": 64, "value": 21}, "group": "control_change"}, {"time": 2028, "annotation": {"number": 64, "value": 75}, "group": "control_change"}, {"time": 2040, "annotation": {"number": 64, "value": 78}, "group": "control_change"}, {"time": 2412, "annotation": {"number": 64, "value": 26}, "group": "control_change"}, {"time": 2424, "annotation": {"number": 64, "value": 27}, "group": "control_change"}, {"time": 3576, "annotation": {"number": 64, "value": 63}, "group": "control_change"}, {"time": 3588, "annotation": {"number": 64, "value": 68}, "group": "control_change"}, {"time": 4332, "annotation": {"number": 64, "value": 20}, "group": "control_change"}, {"time": 4344, "annotation": {"number": 64, "value": 22}, "group": "control_change"}, {"time": 5580, "annotation": {"number": 64, "value": 78}, "group": "control_change"}, {"time": 5592, "annotation": {"number": 64, "value": 79}, "group": "control_change"}]}]}