{"metadata": {"schema_version": "0.2", "title": "None", "source_filename": "066.mid", "source_format": "midi"}, "resolution": 12, "tempos": [{"time": 0, "qpm": 110.00011000011}], "time_signatures": [{"time": 0, "numerator": 1, "denominator": 4}], "tracks": [{"program": 0, "is_drum": false, "name": "MELODY", "notes": [{"time": 454, "pitch": 61, "duration": 4, "velocity": 81}, {"time": 463, "pitch": 61, "duration": 7, "velocity": 85}, {"time": 472, "pitch": 63, "duration": 4, "velocity": 85}, {"time": 478, "pitch": 65, "duration": 7, "velocity": 85}, {"time": 490, "pitch": 68, "duration": 10, "velocity": 85}, {"time": 502, "pitch": 70, "duration": 6, "velocity": 85}, {"time": 511, "pitch": 68, "duration": 9, "velocity": 84}, {"time": 520, "pitch": 65, "duration": 5, "velocity": 84}, {"time": 526, "pitch": 68, "duration": 14, "velocity": 84}, {"time": 538, "pitch": 65, "duration": 5, "velocity": 84}, {"time": 544, "pitch": 63, "duration": 7, "velocity": 84}, {"time": 550, "pitch": 61, "duration": 8, "velocity": 84}, {"time": 562, "pitch": 61, "duration": 5, "velocity": 84}, {"time": 568, "pitch": 63, "duration": 4, "velocity": 84}, {"time": 574, "pitch": 65, "duration": 7, "velocity": 84}, {"time": 586, "pitch": 70, "duration": 5, "velocity": 84}, {"time": 592, "pitch": 65, "duration": 5, "velocity": 83}, {"time": 598, "pitch": 68, "duration": 25, "velocity": 83}, {"time": 640, "pitch": 65, "duration": 4, "velocity": 82}, {"time": 643, "pitch": 68, "duration": 3, "velocity": 82}, {"time": 646, "pitch": 70, "duration": 6, "velocity": 82}, {"time": 655, "pitch": 70, "duration": 3, "velocity": 82}, {"time": 664, "pitch": 70, "duration": 3, "velocity": 82}, {"time": 670, "pitch": 65, "duration": 8, "velocity": 82}, {"time": 676, "pitch": 70, "duration": 10, "velocity": 82}, {"time": 688, "pitch": 65, "duration": 6, "velocity": 82}, {"time": 694, "pitch": 68, "duration": 7, "velocity": 82}, {"time": 703, "pitch": 68, "duration": 5, "velocity": 82}, {"time": 712, "pitch": 63, "duration": 4, "velocity": 82}, {"time": 718, "pitch": 61, "duration": 13, "velocity": 82}, {"time": 730, "pitch": 58, "duration": 5, "velocity": 82}, {"time": 736, "pitch": 65, "duration": 3, "velocity": 82}, {"time": 742, "pitch": 65, "duration": 3, "velocity": 82}, {"time": 748, "pitch": 63, "duration": 2, "velocity": 82}, {"time": 754, "pitch": 63, "duration": 5, "velocity": 82}, {"time": 760, "pitch": 58, "duration": 6, "velocity": 82}, {"time": 766, "pitch": 65, "duration": 3, "velocity": 82}, {"time": 772, "pitch": 63, "duration": 8, "velocity": 82}, {"time": 778, "pitch": 65, "duration": 2, "velocity": 82}, {"time": 784, "pitch": 65, "duration": 3, "velocity": 82}, {"time": 796, "pitch": 63, "duration": 20, "velocity": 82}, {"time": 838, "pitch": 61, "duration": 6, "velocity": 82}, {"time": 847, "pitch": 61, "duration": 10, "velocity": 82}, {"time": 856, "pitch": 63, "duration": 8, "velocity": 82}, {"time": 862, "pitch": 65, "duration": 12, "velocity": 82}, {"time": 874, "pitch": 68, "duration": 8, "velocity": 82}, {"time": 886, "pitch": 70, "duration": 6, "velocity": 82}, {"time": 895, "pitch": 68, "duration": 7, "velocity": 82}, {"time": 904, "pitch": 65, "duration": 4, "velocity": 82}, {"time": 910, "pitch": 68, "duration": 12, "velocity": 82}, {"time": 922, "pitch": 65, "duration": 7, "velocity": 82}, {"time": 928, "pitch": 63, "duration": 7, "velocity": 82}, {"time": 934, "pitch": 61, "duration": 6, "velocity": 82}, {"time": 943, "pitch": 61, "duration": 9, "velocity": 82}, {"time": 952, "pitch": 63, "duration": 7, "velocity": 82}, {"time": 958, "pitch": 65, "duration": 6, "velocity": 82}, {"time": 964, "pitch": 70, "duration": 8, "velocity": 82}, {"time": 976, "pitch": 65, "duration": 4, "velocity": 82}, {"time": 982, "pitch": 68, "duration": 27, "velocity": 82}, {"time": 1024, "pitch": 65, "duration": 6, "velocity": 82}, {"time": 1030, "pitch": 73, "duration": 7, "velocity": 83}, {"time": 1039, "pitch": 73, "duration": 6, "velocity": 83}, {"time": 1048, "pitch": 70, "duration": 6, "velocity": 83}, {"time": 1054, "pitch": 73, "duration": 2, "velocity": 83}, {"time": 1060, "pitch": 75, "duration": 5, "velocity": 83}, {"time": 1066, "pitch": 65, "duration": 4, "velocity": 83}, {"time": 1072, "pitch": 70, "duration": 3, "velocity": 83}, {"time": 1078, "pitch": 68, "duration": 6, "velocity": 83}, {"time": 1087, "pitch": 68, "duration": 5, "velocity": 83}, {"time": 1096, "pitch": 65, "duration": 5, "velocity": 83}, {"time": 1102, "pitch": 73, "duration": 12, "velocity": 83}, {"time": 1120, "pitch": 73, "duration": 2, "velocity": 83}, {"time": 1126, "pitch": 73, "duration": 3, "velocity": 84}, {"time": 1132, "pitch": 70, "duration": 3, "velocity": 84}, {"time": 1138, "pitch": 70, "duration": 3, "velocity": 84}, {"time": 1144, "pitch": 68, "duration": 3, "velocity": 84}, {"time": 1150, "pitch": 73, "duration": 3, "velocity": 84}, {"time": 1156, "pitch": 70, "duration": 2, "velocity": 84}, {"time": 1162, "pitch": 70, "duration": 3, "velocity": 84}, {"time": 1168, "pitch": 73, "duration": 2, "velocity": 84}, {"time": 1174, "pitch": 75, "duration": 24, "velocity": 84}, {"time": 1198, "pitch": 68, "duration": 6, "velocity": 84}, {"time": 1204, "pitch": 70, "duration": 3, "velocity": 84}, {"time": 1210, "pitch": 73, "duration": 2, "velocity": 84}, {"time": 1216, "pitch": 75, "duration": 2, "velocity": 84}, {"time": 1222, "pitch": 77, "duration": 6, "velocity": 85}, {"time": 1231, "pitch": 77, "duration": 5, "velocity": 85}, {"time": 1240, "pitch": 77, "duration": 3, "velocity": 85}, {"time": 1246, "pitch": 75, "duration": 7, "velocity": 85}, {"time": 1258, "pitch": 73, "duration": 7, "velocity": 86}, {"time": 1270, "pitch": 75, "duration": 6, "velocity": 86}, {"time": 1276, "pitch": 77, "duration": 7, "velocity": 86}, {"time": 1288, "pitch": 68, "duration": 13, "velocity": 86}, {"time": 1300, "pitch": 68, "duration": 1, "velocity": 86}, {"time": 1306, "pitch": 68, "duration": 5, "velocity": 86}, {"time": 1312, "pitch": 70, "duration": 4, "velocity": 86}, {"time": 1318, "pitch": 73, "duration": 4, "velocity": 86}, {"time": 1324, "pitch": 73, "duration": 5, "velocity": 86}, {"time": 1336, "pitch": 73, "duration": 2, "velocity": 86}, {"time": 1342, "pitch": 73, "duration": 8, "velocity": 86}, {"time": 1354, "pitch": 68, "duration": 3, "velocity": 86}, {"time": 1360, "pitch": 65, "duration": 3, "velocity": 86}, {"time": 1366, "pitch": 68, "duration": 28, "velocity": 86}, {"time": 1408, "pitch": 68, "duration": 5, "velocity": 86}, {"time": 1414, "pitch": 70, "duration": 5, "velocity": 86}, {"time": 1423, "pitch": 70, "duration": 3, "velocity": 86}, {"time": 1432, "pitch": 70, "duration": 3, "velocity": 87}, {"time": 1438, "pitch": 73, "duration": 9, "velocity": 87}, {"time": 1450, "pitch": 70, "duration": 4, "velocity": 87}, {"time": 1456, "pitch": 73, "duration": 2, "velocity": 87}, {"time": 1462, "pitch": 75, "duration": 3, "velocity": 87}, {"time": 1468, "pitch": 73, "duration": 2, "velocity": 87}, {"time": 1474, "pitch": 73, "duration": 4, "velocity": 87}, {"time": 1480, "pitch": 68, "duration": 4, "velocity": 87}, {"time": 1486, "pitch": 77, "duration": 20, "velocity": 87}, {"time": 1510, "pitch": 78, "duration": 4, "velocity": 87}, {"time": 1516, "pitch": 77, "duration": 3, "velocity": 87}, {"time": 1522, "pitch": 78, "duration": 3, "velocity": 87}, {"time": 1528, "pitch": 77, "duration": 5, "velocity": 87}, {"time": 1534, "pitch": 73, "duration": 4, "velocity": 87}, {"time": 1540, "pitch": 70, "duration": 6, "velocity": 87}, {"time": 1552, "pitch": 77, "duration": 3, "velocity": 87}, {"time": 1558, "pitch": 75, "duration": 8, "velocity": 87}, {"time": 1582, "pitch": 68, "duration": 7, "velocity": 87}, {"time": 1588, "pitch": 70, "duration": 4, "velocity": 87}, {"time": 1594, "pitch": 73, "duration": 2, "velocity": 87}, {"time": 1600, "pitch": 75, "duration": 3, "velocity": 87}, {"time": 1606, "pitch": 77, "duration": 6, "velocity": 87}, {"time": 1615, "pitch": 77, "duration": 6, "velocity": 87}, {"time": 1624, "pitch": 77, "duration": 3, "velocity": 87}, {"time": 1630, "pitch": 75, "duration": 8, "velocity": 87}, {"time": 1642, "pitch": 73, "duration": 7, "velocity": 87}, {"time": 1654, "pitch": 75, "duration": 3, "velocity": 87}, {"time": 1660, "pitch": 77, "duration": 6, "velocity": 87}, {"time": 1672, "pitch": 68, "duration": 8, "velocity": 87}, {"time": 1684, "pitch": 68, "duration": 3, "velocity": 87}, {"time": 1690, "pitch": 68, "duration": 7, "velocity": 87}, {"time": 1696, "pitch": 70, "duration": 3, "velocity": 87}, {"time": 1702, "pitch": 73, "duration": 4, "velocity": 87}, {"time": 1711, "pitch": 73, "duration": 6, "velocity": 87}, {"time": 1720, "pitch": 73, "duration": 5, "velocity": 87}, {"time": 1726, "pitch": 75, "duration": 9, "velocity": 87}, {"time": 1735, "pitch": 73, "duration": 9, "velocity": 87}, {"time": 1744, "pitch": 75, "duration": 3, "velocity": 87}, {"time": 1750, "pitch": 80, "duration": 19, "velocity": 87}, {"time": 1768, "pitch": 73, "duration": 4, "velocity": 87}, {"time": 1774, "pitch": 82, "duration": 4, "velocity": 87}, {"time": 1780, "pitch": 80, "duration": 6, "velocity": 87}, {"time": 1786, "pitch": 77, "duration": 6, "velocity": 87}, {"time": 1792, "pitch": 80, "duration": 6, "velocity": 87}, {"time": 1798, "pitch": 73, "duration": 12, "velocity": 87}, {"time": 1816, "pitch": 73, "duration": 3, "velocity": 87}, {"time": 1822, "pitch": 75, "duration": 3, "velocity": 87}, {"time": 1828, "pitch": 73, "duration": 2, "velocity": 87}, {"time": 1834, "pitch": 73, "duration": 4, "velocity": 87}, {"time": 1840, "pitch": 70, "duration": 3, "velocity": 87}, {"time": 1846, "pitch": 77, "duration": 11, "velocity": 87}, {"time": 1864, "pitch": 73, "duration": 3, "velocity": 87}, {"time": 1870, "pitch": 80, "duration": 10, "velocity": 87}, {"time": 1888, "pitch": 77, "duration": 3, "velocity": 87}, {"time": 1894, "pitch": 75, "duration": 13, "velocity": 87}, {"time": 1912, "pitch": 70, "duration": 4, "velocity": 87}, {"time": 1918, "pitch": 73, "duration": 8, "velocity": 87}, {"time": 1930, "pitch": 77, "duration": 9, "velocity": 87}, {"time": 1942, "pitch": 75, "duration": 24, "velocity": 87}, {"time": 1966, "pitch": 73, "duration": 6, "velocity": 87}, {"time": 1975, "pitch": 70, "duration": 6, "velocity": 87}, {"time": 1984, "pitch": 68, "duration": 3, "velocity": 87}, {"time": 1990, "pitch": 73, "duration": 72, "velocity": 87}, {"time": 2374, "pitch": 61, "duration": 6, "velocity": 87}, {"time": 2383, "pitch": 61, "duration": 10, "velocity": 87}, {"time": 2392, "pitch": 63, "duration": 8, "velocity": 87}, {"time": 2398, "pitch": 65, "duration": 12, "velocity": 87}, {"time": 2410, "pitch": 68, "duration": 8, "velocity": 87}, {"time": 2422, "pitch": 70, "duration": 6, "velocity": 87}, {"time": 2431, "pitch": 68, "duration": 7, "velocity": 87}, {"time": 2440, "pitch": 65, "duration": 4, "velocity": 81}, {"time": 2446, "pitch": 68, "duration": 12, "velocity": 81}, {"time": 2458, "pitch": 65, "duration": 7, "velocity": 82}, {"time": 2464, "pitch": 63, "duration": 7, "velocity": 83}, {"time": 2470, "pitch": 61, "duration": 6, "velocity": 83}, {"time": 2479, "pitch": 61, "duration": 9, "velocity": 83}, {"time": 2488, "pitch": 63, "duration": 7, "velocity": 83}, {"time": 2494, "pitch": 65, "duration": 6, "velocity": 83}, {"time": 2500, "pitch": 70, "duration": 8, "velocity": 83}, {"time": 2512, "pitch": 65, "duration": 4, "velocity": 83}, {"time": 2518, "pitch": 68, "duration": 27, "velocity": 83}, {"time": 2560, "pitch": 65, "duration": 6, "velocity": 83}, {"time": 2566, "pitch": 73, "duration": 7, "velocity": 84}, {"time": 2575, "pitch": 73, "duration": 6, "velocity": 84}, {"time": 2584, "pitch": 70, "duration": 6, "velocity": 84}, {"time": 2590, "pitch": 73, "duration": 2, "velocity": 84}, {"time": 2596, "pitch": 75, "duration": 5, "velocity": 84}, {"time": 2602, "pitch": 65, "duration": 4, "velocity": 84}, {"time": 2608, "pitch": 70, "duration": 3, "velocity": 85}, {"time": 2614, "pitch": 68, "duration": 6, "velocity": 85}, {"time": 2623, "pitch": 68, "duration": 5, "velocity": 86}, {"time": 2632, "pitch": 65, "duration": 5, "velocity": 86}, {"time": 2638, "pitch": 73, "duration": 12, "velocity": 86}, {"time": 2656, "pitch": 73, "duration": 2, "velocity": 86}, {"time": 2662, "pitch": 73, "duration": 3, "velocity": 86}, {"time": 2668, "pitch": 70, "duration": 3, "velocity": 86}, {"time": 2674, "pitch": 70, "duration": 3, "velocity": 86}, {"time": 2680, "pitch": 68, "duration": 3, "velocity": 86}, {"time": 2686, "pitch": 73, "duration": 3, "velocity": 86}, {"time": 2692, "pitch": 70, "duration": 2, "velocity": 86}, {"time": 2698, "pitch": 70, "duration": 3, "velocity": 86}, {"time": 2704, "pitch": 73, "duration": 2, "velocity": 86}, {"time": 2710, "pitch": 75, "duration": 24, "velocity": 86}, {"time": 2734, "pitch": 68, "duration": 6, "velocity": 87}, {"time": 2740, "pitch": 70, "duration": 3, "velocity": 87}, {"time": 2746, "pitch": 73, "duration": 2, "velocity": 87}, {"time": 2752, "pitch": 75, "duration": 2, "velocity": 87}, {"time": 2758, "pitch": 77, "duration": 6, "velocity": 87}, {"time": 2767, "pitch": 77, "duration": 5, "velocity": 87}, {"time": 2776, "pitch": 77, "duration": 3, "velocity": 88}, {"time": 2782, "pitch": 75, "duration": 7, "velocity": 88}, {"time": 2794, "pitch": 73, "duration": 7, "velocity": 88}, {"time": 2806, "pitch": 75, "duration": 6, "velocity": 88}, {"time": 2812, "pitch": 77, "duration": 7, "velocity": 88}, {"time": 2824, "pitch": 68, "duration": 13, "velocity": 88}, {"time": 2836, "pitch": 68, "duration": 1, "velocity": 88}, {"time": 2842, "pitch": 68, "duration": 5, "velocity": 88}, {"time": 2848, "pitch": 70, "duration": 4, "velocity": 88}, {"time": 2854, "pitch": 73, "duration": 4, "velocity": 88}, {"time": 2860, "pitch": 73, "duration": 5, "velocity": 88}, {"time": 2872, "pitch": 73, "duration": 2, "velocity": 88}, {"time": 2878, "pitch": 73, "duration": 8, "velocity": 88}, {"time": 2890, "pitch": 68, "duration": 3, "velocity": 88}, {"time": 2896, "pitch": 65, "duration": 3, "velocity": 88}, {"time": 2902, "pitch": 68, "duration": 28, "velocity": 88}, {"time": 2944, "pitch": 68, "duration": 5, "velocity": 88}, {"time": 2950, "pitch": 70, "duration": 5, "velocity": 88}, {"time": 2959, "pitch": 70, "duration": 3, "velocity": 88}, {"time": 2968, "pitch": 70, "duration": 3, "velocity": 88}, {"time": 2974, "pitch": 73, "duration": 9, "velocity": 88}, {"time": 2986, "pitch": 70, "duration": 4, "velocity": 88}, {"time": 2992, "pitch": 73, "duration": 2, "velocity": 88}, {"time": 2998, "pitch": 75, "duration": 3, "velocity": 88}, {"time": 3004, "pitch": 73, "duration": 2, "velocity": 88}, {"time": 3010, "pitch": 73, "duration": 4, "velocity": 88}, {"time": 3016, "pitch": 68, "duration": 4, "velocity": 88}, {"time": 3022, "pitch": 77, "duration": 20, "velocity": 88}, {"time": 3046, "pitch": 78, "duration": 4, "velocity": 88}, {"time": 3052, "pitch": 77, "duration": 3, "velocity": 88}, {"time": 3058, "pitch": 78, "duration": 3, "velocity": 88}, {"time": 3064, "pitch": 77, "duration": 5, "velocity": 87}, {"time": 3070, "pitch": 73, "duration": 4, "velocity": 87}, {"time": 3076, "pitch": 70, "duration": 6, "velocity": 87}, {"time": 3088, "pitch": 77, "duration": 3, "velocity": 87}, {"time": 3094, "pitch": 75, "duration": 8, "velocity": 87}, {"time": 3118, "pitch": 68, "duration": 7, "velocity": 87}, {"time": 3124, "pitch": 70, "duration": 4, "velocity": 87}, {"time": 3130, "pitch": 73, "duration": 2, "velocity": 87}, {"time": 3136, "pitch": 75, "duration": 3, "velocity": 87}, {"time": 3142, "pitch": 77, "duration": 6, "velocity": 87}, {"time": 3151, "pitch": 77, "duration": 6, "velocity": 87}, {"time": 3160, "pitch": 77, "duration": 3, "velocity": 87}, {"time": 3166, "pitch": 75, "duration": 8, "velocity": 87}, {"time": 3178, "pitch": 73, "duration": 7, "velocity": 87}, {"time": 3190, "pitch": 75, "duration": 3, "velocity": 87}, {"time": 3196, "pitch": 77, "duration": 6, "velocity": 87}, {"time": 3208, "pitch": 68, "duration": 8, "velocity": 87}, {"time": 3220, "pitch": 68, "duration": 3, "velocity": 87}, {"time": 3226, "pitch": 68, "duration": 7, "velocity": 87}, {"time": 3232, "pitch": 70, "duration": 3, "velocity": 87}, {"time": 3238, "pitch": 73, "duration": 4, "velocity": 87}, {"time": 3247, "pitch": 73, "duration": 6, "velocity": 87}, {"time": 3256, "pitch": 73, "duration": 5, "velocity": 87}, {"time": 3262, "pitch": 75, "duration": 9, "velocity": 87}, {"time": 3271, "pitch": 73, "duration": 9, "velocity": 87}, {"time": 3280, "pitch": 75, "duration": 3, "velocity": 87}, {"time": 3286, "pitch": 80, "duration": 19, "velocity": 87}, {"time": 3304, "pitch": 73, "duration": 4, "velocity": 87}, {"time": 3310, "pitch": 82, "duration": 4, "velocity": 87}, {"time": 3316, "pitch": 80, "duration": 6, "velocity": 87}, {"time": 3322, "pitch": 77, "duration": 6, "velocity": 87}, {"time": 3328, "pitch": 80, "duration": 6, "velocity": 87}, {"time": 3334, "pitch": 73, "duration": 12, "velocity": 87}, {"time": 3352, "pitch": 73, "duration": 3, "velocity": 87}, {"time": 3358, "pitch": 75, "duration": 3, "velocity": 87}, {"time": 3364, "pitch": 73, "duration": 2, "velocity": 87}, {"time": 3370, "pitch": 73, "duration": 4, "velocity": 87}, {"time": 3376, "pitch": 70, "duration": 3, "velocity": 87}, {"time": 3382, "pitch": 77, "duration": 11, "velocity": 87}, {"time": 3400, "pitch": 73, "duration": 3, "velocity": 87}, {"time": 3406, "pitch": 80, "duration": 10, "velocity": 87}, {"time": 3424, "pitch": 77, "duration": 3, "velocity": 87}, {"time": 3430, "pitch": 75, "duration": 13, "velocity": 87}, {"time": 3448, "pitch": 70, "duration": 4, "velocity": 87}, {"time": 3454, "pitch": 73, "duration": 8, "velocity": 87}, {"time": 3466, "pitch": 77, "duration": 9, "velocity": 87}, {"time": 3478, "pitch": 75, "duration": 24, "velocity": 87}, {"time": 3502, "pitch": 73, "duration": 6, "velocity": 87}, {"time": 3511, "pitch": 70, "duration": 6, "velocity": 87}, {"time": 3520, "pitch": 68, "duration": 3, "velocity": 87}, {"time": 3526, "pitch": 73, "duration": 36, "velocity": 87}, {"time": 3934, "pitch": 68, "duration": 6, "velocity": 89}, {"time": 3940, "pitch": 70, "duration": 3, "velocity": 89}, {"time": 3946, "pitch": 73, "duration": 2, "velocity": 89}, {"time": 3952, "pitch": 75, "duration": 2, "velocity": 89}, {"time": 3958, "pitch": 77, "duration": 6, "velocity": 89}, {"time": 3967, "pitch": 77, "duration": 5, "velocity": 89}, {"time": 3976, "pitch": 77, "duration": 3, "velocity": 89}, {"time": 3982, "pitch": 75, "duration": 7, "velocity": 89}, {"time": 3994, "pitch": 73, "duration": 7, "velocity": 90}, {"time": 4006, "pitch": 75, "duration": 6, "velocity": 90}, {"time": 4012, "pitch": 77, "duration": 7, "velocity": 90}, {"time": 4024, "pitch": 68, "duration": 13, "velocity": 90}, {"time": 4036, "pitch": 68, "duration": 1, "velocity": 90}, {"time": 4042, "pitch": 68, "duration": 5, "velocity": 90}, {"time": 4048, "pitch": 70, "duration": 4, "velocity": 90}, {"time": 4054, "pitch": 73, "duration": 4, "velocity": 90}, {"time": 4060, "pitch": 73, "duration": 5, "velocity": 90}, {"time": 4072, "pitch": 73, "duration": 2, "velocity": 90}, {"time": 4078, "pitch": 73, "duration": 8, "velocity": 90}, {"time": 4090, "pitch": 68, "duration": 3, "velocity": 90}, {"time": 4096, "pitch": 65, "duration": 3, "velocity": 91}, {"time": 4102, "pitch": 68, "duration": 28, "velocity": 91}, {"time": 4144, "pitch": 68, "duration": 5, "velocity": 91}, {"time": 4150, "pitch": 70, "duration": 5, "velocity": 91}, {"time": 4159, "pitch": 70, "duration": 3, "velocity": 91}, {"time": 4168, "pitch": 70, "duration": 3, "velocity": 91}, {"time": 4174, "pitch": 73, "duration": 9, "velocity": 91}, {"time": 4186, "pitch": 70, "duration": 4, "velocity": 91}, {"time": 4192, "pitch": 73, "duration": 2, "velocity": 91}, {"time": 4198, "pitch": 75, "duration": 3, "velocity": 92}, {"time": 4204, "pitch": 73, "duration": 2, "velocity": 92}, {"time": 4210, "pitch": 73, "duration": 4, "velocity": 92}, {"time": 4216, "pitch": 68, "duration": 4, "velocity": 92}, {"time": 4222, "pitch": 77, "duration": 20, "velocity": 92}, {"time": 4246, "pitch": 78, "duration": 4, "velocity": 92}, {"time": 4252, "pitch": 77, "duration": 3, "velocity": 92}, {"time": 4258, "pitch": 78, "duration": 3, "velocity": 92}, {"time": 4264, "pitch": 77, "duration": 5, "velocity": 92}, {"time": 4270, "pitch": 73, "duration": 4, "velocity": 92}, {"time": 4276, "pitch": 70, "duration": 6, "velocity": 92}, {"time": 4288, "pitch": 77, "duration": 3, "velocity": 92}, {"time": 4294, "pitch": 75, "duration": 8, "velocity": 92}, {"time": 4318, "pitch": 68, "duration": 7, "velocity": 92}, {"time": 4324, "pitch": 70, "duration": 4, "velocity": 92}, {"time": 4330, "pitch": 73, "duration": 2, "velocity": 92}, {"time": 4336, "pitch": 75, "duration": 3, "velocity": 92}, {"time": 4342, "pitch": 77, "duration": 6, "velocity": 92}, {"time": 4351, "pitch": 77, "duration": 6, "velocity": 92}, {"time": 4360, "pitch": 77, "duration": 3, "velocity": 92}, {"time": 4366, "pitch": 75, "duration": 8, "velocity": 92}, {"time": 4378, "pitch": 73, "duration": 7, "velocity": 92}, {"time": 4390, "pitch": 75, "duration": 3, "velocity": 93}, {"time": 4396, "pitch": 77, "duration": 6, "velocity": 93}, {"time": 4408, "pitch": 68, "duration": 8, "velocity": 93}, {"time": 4420, "pitch": 68, "duration": 3, "velocity": 93}, {"time": 4426, "pitch": 68, "duration": 7, "velocity": 93}, {"time": 4432, "pitch": 70, "duration": 3, "velocity": 93}, {"time": 4438, "pitch": 73, "duration": 4, "velocity": 93}, {"time": 4447, "pitch": 73, "duration": 6, "velocity": 93}, {"time": 4456, "pitch": 73, "duration": 5, "velocity": 93}, {"time": 4462, "pitch": 75, "duration": 9, "velocity": 93}, {"time": 4471, "pitch": 73, "duration": 9, "velocity": 93}, {"time": 4480, "pitch": 75, "duration": 3, "velocity": 93}, {"time": 4486, "pitch": 80, "duration": 19, "velocity": 93}, {"time": 4504, "pitch": 73, "duration": 4, "velocity": 93}, {"time": 4510, "pitch": 82, "duration": 4, "velocity": 93}, {"time": 4516, "pitch": 80, "duration": 6, "velocity": 93}, {"time": 4522, "pitch": 77, "duration": 6, "velocity": 93}, {"time": 4528, "pitch": 80, "duration": 6, "velocity": 93}, {"time": 4534, "pitch": 73, "duration": 12, "velocity": 93}, {"time": 4552, "pitch": 73, "duration": 3, "velocity": 93}, {"time": 4558, "pitch": 75, "duration": 3, "velocity": 93}, {"time": 4564, "pitch": 73, "duration": 2, "velocity": 93}, {"time": 4570, "pitch": 73, "duration": 4, "velocity": 93}, {"time": 4576, "pitch": 70, "duration": 3, "velocity": 93}, {"time": 4582, "pitch": 77, "duration": 11, "velocity": 94}, {"time": 4600, "pitch": 73, "duration": 3, "velocity": 94}, {"time": 4606, "pitch": 80, "duration": 10, "velocity": 94}, {"time": 4624, "pitch": 77, "duration": 3, "velocity": 94}, {"time": 4630, "pitch": 75, "duration": 13, "velocity": 94}, {"time": 4648, "pitch": 70, "duration": 4, "velocity": 94}, {"time": 4654, "pitch": 73, "duration": 8, "velocity": 95}, {"time": 4666, "pitch": 77, "duration": 9, "velocity": 95}, {"time": 4678, "pitch": 75, "duration": 24, "velocity": 96}, {"time": 4702, "pitch": 73, "duration": 6, "velocity": 96}, {"time": 4711, "pitch": 70, "duration": 6, "velocity": 96}, {"time": 4720, "pitch": 68, "duration": 3, "velocity": 96}, {"time": 4726, "pitch": 73, "duration": 36, "velocity": 96}], "annotations": [{"time": 276, "annotation": {"number": 64, "value": 77}, "group": "control_change"}, {"time": 732, "annotation": {"number": 64, "value": 78}, "group": "control_change"}]}, {"program": 0, "is_drum": false, "name": "BRIDGE", "notes": [{"time": 58, "pitch": 73, "duration": 7, "velocity": 89}, {"time": 64, "pitch": 75, "duration": 3, "velocity": 89}, {"time": 70, "pitch": 77, "duration": 20, "velocity": 89}, {"time": 94, "pitch": 75, "duration": 20, "velocity": 89}, {"time": 118, "pitch": 73, "duration": 39, "velocity": 89}, {"time": 166, "pitch": 73, "duration": 21, "velocity": 88}, {"time": 190, "pitch": 72, "duration": 21, "velocity": 87}, {"time": 214, "pitch": 70, "duration": 31, "velocity": 87}, {"time": 262, "pitch": 77, "duration": 20, "velocity": 85}, {"time": 286, "pitch": 75, "duration": 21, "velocity": 85}, {"time": 310, "pitch": 73, "duration": 41, "velocity": 84}, {"time": 358, "pitch": 73, "duration": 20, "velocity": 83}, {"time": 382, "pitch": 72, "duration": 21, "velocity": 83}, {"time": 406, "pitch": 68, "duration": 52, "velocity": 83}, {"time": 1978, "pitch": 73, "duration": 7, "velocity": 85}, {"time": 1984, "pitch": 75, "duration": 3, "velocity": 59}, {"time": 1990, "pitch": 77, "duration": 20, "velocity": 100}, {"time": 2014, "pitch": 75, "duration": 20, "velocity": 93}, {"time": 2038, "pitch": 73, "duration": 39, "velocity": 104}, {"time": 2086, "pitch": 73, "duration": 21, "velocity": 84}, {"time": 2110, "pitch": 72, "duration": 21, "velocity": 84}, {"time": 2134, "pitch": 70, "duration": 31, "velocity": 84}, {"time": 2182, "pitch": 77, "duration": 20, "velocity": 84}, {"time": 2206, "pitch": 75, "duration": 21, "velocity": 84}, {"time": 2230, "pitch": 73, "duration": 41, "velocity": 82}, {"time": 2278, "pitch": 73, "duration": 20, "velocity": 80}, {"time": 2302, "pitch": 72, "duration": 21, "velocity": 80}, {"time": 2326, "pitch": 68, "duration": 52, "velocity": 79}, {"time": 3538, "pitch": 70, "duration": 9, "velocity": 84}, {"time": 3550, "pitch": 72, "duration": 9, "velocity": 84}, {"time": 3562, "pitch": 73, "duration": 8, "velocity": 84}, {"time": 3574, "pitch": 75, "duration": 15, "velocity": 84}, {"time": 3592, "pitch": 72, "duration": 3, "velocity": 84}, {"time": 3595, "pitch": 70, "duration": 3, "velocity": 84}, {"time": 3598, "pitch": 68, "duration": 10, "velocity": 84}, {"time": 3616, "pitch": 65, "duration": 5, "velocity": 84}, {"time": 3622, "pitch": 73, "duration": 16, "velocity": 84}, {"time": 3640, "pitch": 72, "duration": 2, "velocity": 84}, {"time": 3643, "pitch": 70, "duration": 3, "velocity": 84}, {"time": 3646, "pitch": 72, "duration": 17, "velocity": 84}, {"time": 3664, "pitch": 65, "duration": 5, "velocity": 84}, {"time": 3670, "pitch": 70, "duration": 16, "velocity": 84}, {"time": 3688, "pitch": 72, "duration": 3, "velocity": 84}, {"time": 3694, "pitch": 73, "duration": 7, "velocity": 84}, {"time": 3700, "pitch": 72, "duration": 7, "velocity": 84}, {"time": 3706, "pitch": 70, "duration": 7, "velocity": 84}, {"time": 3712, "pitch": 68, "duration": 8, "velocity": 84}, {"time": 3724, "pitch": 58, "duration": 3, "velocity": 84}, {"time": 3727, "pitch": 61, "duration": 3, "velocity": 84}, {"time": 3730, "pitch": 58, "duration": 3, "velocity": 84}, {"time": 3733, "pitch": 61, "duration": 4, "velocity": 84}, {"time": 3736, "pitch": 65, "duration": 4, "velocity": 84}, {"time": 3739, "pitch": 68, "duration": 4, "velocity": 84}, {"time": 3742, "pitch": 70, "duration": 17, "velocity": 84}, {"time": 3766, "pitch": 58, "duration": 3, "velocity": 84}, {"time": 3769, "pitch": 61, "duration": 3, "velocity": 84}, {"time": 3772, "pitch": 58, "duration": 3, "velocity": 84}, {"time": 3775, "pitch": 61, "duration": 4, "velocity": 84}, {"time": 3778, "pitch": 65, "duration": 4, "velocity": 84}, {"time": 3781, "pitch": 68, "duration": 4, "velocity": 84}, {"time": 3784, "pitch": 70, "duration": 17, "velocity": 84}, {"time": 3820, "pitch": 68, "duration": 3, "velocity": 84}, {"time": 3823, "pitch": 72, "duration": 3, "velocity": 84}, {"time": 3826, "pitch": 75, "duration": 3, "velocity": 84}, {"time": 3832, "pitch": 68, "duration": 3, "velocity": 84}, {"time": 3838, "pitch": 70, "duration": 4, "velocity": 84}, {"time": 3844, "pitch": 68, "duration": 3, "velocity": 84}, {"time": 3847, "pitch": 70, "duration": 3, "velocity": 84}, {"time": 3850, "pitch": 72, "duration": 2, "velocity": 84}, {"time": 3853, "pitch": 73, "duration": 4, "velocity": 84}, {"time": 3856, "pitch": 77, "duration": 2, "velocity": 84}, {"time": 3859, "pitch": 78, "duration": 3, "velocity": 84}, {"time": 3862, "pitch": 80, "duration": 2, "velocity": 84}, {"time": 3934, "pitch": 68, "duration": 3, "velocity": 84}, {"time": 3940, "pitch": 70, "duration": 4, "velocity": 84}, {"time": 3946, "pitch": 68, "duration": 3, "velocity": 84}, {"time": 3949, "pitch": 70, "duration": 2, "velocity": 84}, {"time": 3952, "pitch": 73, "duration": 3, "velocity": 84}, {"time": 3952, "pitch": 75, "duration": 4, "velocity": 84}, {"time": 3955, "pitch": 77, "duration": 3, "velocity": 84}, {"time": 3955, "pitch": 78, "duration": 2, "velocity": 84}, {"time": 3958, "pitch": 80, "duration": 40, "velocity": 84}, {"time": 4000, "pitch": 73, "duration": 3, "velocity": 84}, {"time": 4006, "pitch": 75, "duration": 12, "velocity": 84}, {"time": 4018, "pitch": 73, "duration": 6, "velocity": 84}, {"time": 4024, "pitch": 72, "duration": 10, "velocity": 84}, {"time": 4042, "pitch": 68, "duration": 9, "velocity": 84}, {"time": 4054, "pitch": 70, "duration": 32, "velocity": 84}, {"time": 4090, "pitch": 70, "duration": 10, "velocity": 84}, {"time": 4102, "pitch": 68, "duration": 24, "velocity": 84}, {"time": 4138, "pitch": 68, "duration": 9, "velocity": 84}, {"time": 4150, "pitch": 66, "duration": 57, "velocity": 84}, {"time": 4714, "pitch": 73, "duration": 7, "velocity": 93}, {"time": 4720, "pitch": 75, "duration": 3, "velocity": 93}, {"time": 4726, "pitch": 77, "duration": 20, "velocity": 93}, {"time": 4750, "pitch": 75, "duration": 20, "velocity": 93}, {"time": 4774, "pitch": 73, "duration": 39, "velocity": 93}, {"time": 4822, "pitch": 73, "duration": 21, "velocity": 93}, {"time": 4846, "pitch": 72, "duration": 21, "velocity": 93}, {"time": 4870, "pitch": 70, "duration": 31, "velocity": 93}, {"time": 4918, "pitch": 77, "duration": 20, "velocity": 94}, {"time": 4942, "pitch": 75, "duration": 21, "velocity": 94}, {"time": 4966, "pitch": 73, "duration": 41, "velocity": 95}, {"time": 5014, "pitch": 73, "duration": 20, "velocity": 95}, {"time": 5038, "pitch": 72, "duration": 21, "velocity": 95}, {"time": 5062, "pitch": 68, "duration": 52, "velocity": 95}], "annotations": [{"time": 84, "annotation": {"number": 64, "value": 75}, "group": "control_change"}, {"time": 132, "annotation": {"number": 64, "value": 76}, "group": "control_change"}, {"time": 144, "annotation": {"number": 64, "value": 78}, "group": "control_change"}, {"time": 192, "annotation": {"number": 64, "value": 79}, "group": "control_change"}, {"time": 216, "annotation": {"number": 64, "value": 80}, "group": "control_change"}]}, {"program": 0, "is_drum": false, "name": "PIANO", "notes": [{"time": 70, "pitch": 42, "duration": 22, "velocity": 86}, {"time": 76, "pitch": 49, "duration": 17, "velocity": 74}, {"time": 76, "pitch": 65, "duration": 3, "velocity": 65}, {"time": 82, "pitch": 58, "duration": 6, "velocity": 71}, {"time": 82, "pitch": 70, "duration": 4, "velocity": 93}, {"time": 88, "pitch": 54, "duration": 6, "velocity": 70}, {"time": 88, "pitch": 65, "duration": 3, "velocity": 87}, {"time": 94, "pitch": 44, "duration": 16, "velocity": 70}, {"time": 100, "pitch": 51, "duration": 11, "velocity": 71}, {"time": 100, "pitch": 63, "duration": 3, "velocity": 64}, {"time": 106, "pitch": 60, "duration": 6, "velocity": 70}, {"time": 106, "pitch": 68, "duration": 3, "velocity": 98}, {"time": 112, "pitch": 54, "duration": 6, "velocity": 60}, {"time": 112, "pitch": 63, "duration": 4, "velocity": 90}, {"time": 118, "pitch": 46, "duration": 43, "velocity": 76}, {"time": 124, "pitch": 53, "duration": 21, "velocity": 52}, {"time": 124, "pitch": 65, "duration": 3, "velocity": 63}, {"time": 130, "pitch": 61, "duration": 7, "velocity": 72}, {"time": 130, "pitch": 73, "duration": 3, "velocity": 81}, {"time": 136, "pitch": 58, "duration": 14, "velocity": 76}, {"time": 136, "pitch": 65, "duration": 3, "velocity": 100}, {"time": 142, "pitch": 72, "duration": 5, "velocity": 79}, {"time": 148, "pitch": 65, "duration": 5, "velocity": 65}, {"time": 154, "pitch": 53, "duration": 7, "velocity": 58}, {"time": 154, "pitch": 70, "duration": 5, "velocity": 65}, {"time": 160, "pitch": 61, "duration": 7, "velocity": 65}, {"time": 160, "pitch": 68, "duration": 5, "velocity": 70}, {"time": 166, "pitch": 42, "duration": 20, "velocity": 64}, {"time": 172, "pitch": 49, "duration": 17, "velocity": 47}, {"time": 172, "pitch": 65, "duration": 4, "velocity": 64}, {"time": 178, "pitch": 58, "duration": 7, "velocity": 67}, {"time": 178, "pitch": 70, "duration": 7, "velocity": 83}, {"time": 184, "pitch": 54, "duration": 7, "velocity": 87}, {"time": 184, "pitch": 65, "duration": 3, "velocity": 87}, {"time": 190, "pitch": 44, "duration": 20, "velocity": 87}, {"time": 196, "pitch": 51, "duration": 15, "velocity": 87}, {"time": 196, "pitch": 63, "duration": 3, "velocity": 87}, {"time": 202, "pitch": 60, "duration": 6, "velocity": 87}, {"time": 202, "pitch": 68, "duration": 4, "velocity": 87}, {"time": 208, "pitch": 56, "duration": 7, "velocity": 87}, {"time": 208, "pitch": 63, "duration": 3, "velocity": 87}, {"time": 214, "pitch": 46, "duration": 43, "velocity": 87}, {"time": 220, "pitch": 53, "duration": 13, "velocity": 87}, {"time": 220, "pitch": 65, "duration": 4, "velocity": 87}, {"time": 226, "pitch": 61, "duration": 6, "velocity": 88}, {"time": 226, "pitch": 72, "duration": 2, "velocity": 88}, {"time": 232, "pitch": 58, "duration": 13, "velocity": 88}, {"time": 232, "pitch": 73, "duration": 3, "velocity": 88}, {"time": 238, "pitch": 53, "duration": 19, "velocity": 88}, {"time": 238, "pitch": 72, "duration": 3, "velocity": 88}, {"time": 244, "pitch": 61, "duration": 13, "velocity": 88}, {"time": 244, "pitch": 70, "duration": 3, "velocity": 88}, {"time": 250, "pitch": 68, "duration": 3, "velocity": 88}, {"time": 256, "pitch": 58, "duration": 7, "velocity": 88}, {"time": 256, "pitch": 70, "duration": 7, "velocity": 88}, {"time": 262, "pitch": 42, "duration": 20, "velocity": 88}, {"time": 268, "pitch": 49, "duration": 14, "velocity": 88}, {"time": 268, "pitch": 65, "duration": 3, "velocity": 88}, {"time": 274, "pitch": 58, "duration": 7, "velocity": 88}, {"time": 274, "pitch": 70, "duration": 4, "velocity": 88}, {"time": 280, "pitch": 54, "duration": 7, "velocity": 88}, {"time": 280, "pitch": 65, "duration": 3, "velocity": 88}, {"time": 286, "pitch": 44, "duration": 19, "velocity": 89}, {"time": 292, "pitch": 51, "duration": 15, "velocity": 89}, {"time": 292, "pitch": 63, "duration": 3, "velocity": 89}, {"time": 298, "pitch": 60, "duration": 6, "velocity": 89}, {"time": 298, "pitch": 68, "duration": 5, "velocity": 89}, {"time": 304, "pitch": 56, "duration": 7, "velocity": 89}, {"time": 304, "pitch": 63, "duration": 2, "velocity": 89}, {"time": 310, "pitch": 46, "duration": 42, "velocity": 89}, {"time": 316, "pitch": 53, "duration": 15, "velocity": 89}, {"time": 316, "pitch": 63, "duration": 4, "velocity": 89}, {"time": 322, "pitch": 61, "duration": 6, "velocity": 89}, {"time": 322, "pitch": 70, "duration": 2, "velocity": 89}, {"time": 328, "pitch": 58, "duration": 17, "velocity": 89}, {"time": 328, "pitch": 73, "duration": 2, "velocity": 89}, {"time": 334, "pitch": 72, "duration": 3, "velocity": 90}, {"time": 340, "pitch": 53, "duration": 11, "velocity": 90}, {"time": 340, "pitch": 70, "duration": 3, "velocity": 90}, {"time": 346, "pitch": 61, "duration": 5, "velocity": 90}, {"time": 346, "pitch": 68, "duration": 3, "velocity": 90}, {"time": 352, "pitch": 58, "duration": 5, "velocity": 90}, {"time": 352, "pitch": 65, "duration": 3, "velocity": 90}, {"time": 358, "pitch": 42, "duration": 20, "velocity": 90}, {"time": 364, "pitch": 49, "duration": 16, "velocity": 90}, {"time": 364, "pitch": 65, "duration": 3, "velocity": 90}, {"time": 370, "pitch": 58, "duration": 7, "velocity": 90}, {"time": 370, "pitch": 70, "duration": 5, "velocity": 90}, {"time": 376, "pitch": 54, "duration": 7, "velocity": 90}, {"time": 376, "pitch": 65, "duration": 3, "velocity": 90}, {"time": 382, "pitch": 44, "duration": 20, "velocity": 90}, {"time": 388, "pitch": 51, "duration": 14, "velocity": 90}, {"time": 388, "pitch": 63, "duration": 3, "velocity": 90}, {"time": 394, "pitch": 60, "duration": 6, "velocity": 90}, {"time": 394, "pitch": 68, "duration": 4, "velocity": 90}, {"time": 400, "pitch": 56, "duration": 6, "velocity": 90}, {"time": 400, "pitch": 63, "duration": 3, "velocity": 90}, {"time": 406, "pitch": 49, "duration": 43, "velocity": 90}, {"time": 412, "pitch": 56, "duration": 38, "velocity": 90}, {"time": 412, "pitch": 63, "duration": 3, "velocity": 90}, {"time": 418, "pitch": 66, "duration": 4, "velocity": 90}, {"time": 418, "pitch": 70, "duration": 3, "velocity": 90}, {"time": 424, "pitch": 65, "duration": 6, "velocity": 90}, {"time": 424, "pitch": 68, "duration": 7, "velocity": 90}, {"time": 436, "pitch": 63, "duration": 11, "velocity": 90}, {"time": 436, "pitch": 66, "duration": 12, "velocity": 90}, {"time": 448, "pitch": 65, "duration": 18, "velocity": 90}, {"time": 454, "pitch": 49, "duration": 43, "velocity": 90}, {"time": 460, "pitch": 56, "duration": 42, "velocity": 90}, {"time": 466, "pitch": 61, "duration": 12, "velocity": 90}, {"time": 472, "pitch": 65, "duration": 20, "velocity": 90}, {"time": 484, "pitch": 61, "duration": 8, "velocity": 90}, {"time": 490, "pitch": 68, "duration": 29, "velocity": 90}, {"time": 496, "pitch": 65, "duration": 7, "velocity": 90}, {"time": 502, "pitch": 48, "duration": 37, "velocity": 90}, {"time": 508, "pitch": 56, "duration": 29, "velocity": 90}, {"time": 520, "pitch": 63, "duration": 8, "velocity": 90}, {"time": 526, "pitch": 68, "duration": 13, "velocity": 90}, {"time": 538, "pitch": 65, "duration": 7, "velocity": 90}, {"time": 544, "pitch": 61, "duration": 18, "velocity": 90}, {"time": 544, "pitch": 68, "duration": 6, "velocity": 90}, {"time": 550, "pitch": 46, "duration": 37, "velocity": 90}, {"time": 556, "pitch": 53, "duration": 28, "velocity": 90}, {"time": 562, "pitch": 58, "duration": 16, "velocity": 90}, {"time": 568, "pitch": 61, "duration": 14, "velocity": 90}, {"time": 580, "pitch": 65, "duration": 8, "velocity": 90}, {"time": 586, "pitch": 61, "duration": 12, "velocity": 90}, {"time": 592, "pitch": 65, "duration": 6, "velocity": 90}, {"time": 598, "pitch": 41, "duration": 40, "velocity": 90}, {"time": 610, "pitch": 48, "duration": 33, "velocity": 90}, {"time": 616, "pitch": 53, "duration": 15, "velocity": 90}, {"time": 628, "pitch": 56, "duration": 10, "velocity": 90}, {"time": 634, "pitch": 60, "duration": 6, "velocity": 90}, {"time": 640, "pitch": 56, "duration": 7, "velocity": 90}, {"time": 646, "pitch": 42, "duration": 41, "velocity": 90}, {"time": 652, "pitch": 49, "duration": 33, "velocity": 90}, {"time": 658, "pitch": 54, "duration": 12, "velocity": 90}, {"time": 664, "pitch": 58, "duration": 20, "velocity": 90}, {"time": 676, "pitch": 54, "duration": 7, "velocity": 89}, {"time": 682, "pitch": 61, "duration": 6, "velocity": 89}, {"time": 688, "pitch": 58, "duration": 7, "velocity": 89}, {"time": 694, "pitch": 41, "duration": 17, "velocity": 89}, {"time": 700, "pitch": 48, "duration": 12, "velocity": 89}, {"time": 706, "pitch": 53, "duration": 11, "velocity": 89}, {"time": 712, "pitch": 56, "duration": 6, "velocity": 89}, {"time": 715, "pitch": 60, "duration": 3, "velocity": 89}, {"time": 718, "pitch": 46, "duration": 19, "velocity": 89}, {"time": 724, "pitch": 53, "duration": 14, "velocity": 89}, {"time": 730, "pitch": 58, "duration": 9, "velocity": 89}, {"time": 736, "pitch": 61, "duration": 6, "velocity": 89}, {"time": 742, "pitch": 51, "duration": 30, "velocity": 89}, {"time": 748, "pitch": 58, "duration": 23, "velocity": 89}, {"time": 754, "pitch": 63, "duration": 11, "velocity": 89}, {"time": 760, "pitch": 65, "duration": 10, "velocity": 89}, {"time": 766, "pitch": 66, "duration": 7, "velocity": 89}, {"time": 772, "pitch": 68, "duration": 7, "velocity": 89}, {"time": 778, "pitch": 66, "duration": 6, "velocity": 89}, {"time": 781, "pitch": 65, "duration": 4, "velocity": 89}, {"time": 790, "pitch": 44, "duration": 39, "velocity": 89}, {"time": 796, "pitch": 51, "duration": 31, "velocity": 89}, {"time": 802, "pitch": 56, "duration": 14, "velocity": 89}, {"time": 808, "pitch": 58, "duration": 8, "velocity": 89}, {"time": 814, "pitch": 60, "duration": 12, "velocity": 89}, {"time": 820, "pitch": 56, "duration": 6, "velocity": 89}, {"time": 826, "pitch": 61, "duration": 7, "velocity": 89}, {"time": 832, "pitch": 60, "duration": 7, "velocity": 89}, {"time": 838, "pitch": 37, "duration": 43, "velocity": 89}, {"time": 844, "pitch": 44, "duration": 40, "velocity": 89}, {"time": 850, "pitch": 49, "duration": 11, "velocity": 89}, {"time": 856, "pitch": 53, "duration": 19, "velocity": 89}, {"time": 868, "pitch": 49, "duration": 16, "velocity": 89}, {"time": 874, "pitch": 56, "duration": 6, "velocity": 89}, {"time": 880, "pitch": 53, "duration": 7, "velocity": 89}, {"time": 886, "pitch": 41, "duration": 37, "velocity": 89}, {"time": 892, "pitch": 48, "duration": 31, "velocity": 89}, {"time": 898, "pitch": 53, "duration": 15, "velocity": 89}, {"time": 904, "pitch": 56, "duration": 20, "velocity": 89}, {"time": 916, "pitch": 53, "duration": 17, "velocity": 89}, {"time": 922, "pitch": 60, "duration": 6, "velocity": 89}, {"time": 928, "pitch": 56, "duration": 7, "velocity": 89}, {"time": 934, "pitch": 46, "duration": 39, "velocity": 89}, {"time": 940, "pitch": 53, "duration": 31, "velocity": 89}, {"time": 946, "pitch": 58, "duration": 12, "velocity": 89}, {"time": 952, "pitch": 61, "duration": 17, "velocity": 89}, {"time": 964, "pitch": 58, "duration": 6, "velocity": 89}, {"time": 970, "pitch": 65, "duration": 7, "velocity": 89}, {"time": 976, "pitch": 61, "duration": 7, "velocity": 89}, {"time": 982, "pitch": 41, "duration": 45, "velocity": 89}, {"time": 988, "pitch": 48, "duration": 42, "velocity": 89}, {"time": 994, "pitch": 53, "duration": 15, "velocity": 89}, {"time": 1000, "pitch": 56, "duration": 20, "velocity": 89}, {"time": 1006, "pitch": 60, "duration": 17, "velocity": 89}, {"time": 1012, "pitch": 53, "duration": 14, "velocity": 89}, {"time": 1024, "pitch": 56, "duration": 2, "velocity": 89}, {"time": 1024, "pitch": 60, "duration": 2, "velocity": 89}, {"time": 1030, "pitch": 42, "duration": 43, "velocity": 89}, {"time": 1030, "pitch": 58, "duration": 19, "velocity": 89}, {"time": 1036, "pitch": 49, "duration": 36, "velocity": 89}, {"time": 1042, "pitch": 54, "duration": 10, "velocity": 89}, {"time": 1048, "pitch": 61, "duration": 17, "velocity": 89}, {"time": 1060, "pitch": 54, "duration": 10, "velocity": 89}, {"time": 1066, "pitch": 58, "duration": 7, "velocity": 89}, {"time": 1072, "pitch": 61, "duration": 7, "velocity": 89}, {"time": 1078, "pitch": 41, "duration": 14, "velocity": 89}, {"time": 1078, "pitch": 56, "duration": 14, "velocity": 89}, {"time": 1078, "pitch": 60, "duration": 14, "velocity": 89}, {"time": 1084, "pitch": 48, "duration": 9, "velocity": 89}, {"time": 1090, "pitch": 53, "duration": 12, "velocity": 89}, {"time": 1096, "pitch": 56, "duration": 7, "velocity": 89}, {"time": 1102, "pitch": 46, "duration": 26, "velocity": 89}, {"time": 1108, "pitch": 53, "duration": 18, "velocity": 89}, {"time": 1114, "pitch": 58, "duration": 12, "velocity": 89}, {"time": 1120, "pitch": 60, "duration": 3, "velocity": 89}, {"time": 1126, "pitch": 39, "duration": 41, "velocity": 89}, {"time": 1126, "pitch": 61, "duration": 12, "velocity": 89}, {"time": 1132, "pitch": 46, "duration": 36, "velocity": 89}, {"time": 1138, "pitch": 51, "duration": 9, "velocity": 89}, {"time": 1138, "pitch": 58, "duration": 16, "velocity": 89}, {"time": 1144, "pitch": 54, "duration": 19, "velocity": 89}, {"time": 1156, "pitch": 51, "duration": 17, "velocity": 89}, {"time": 1162, "pitch": 63, "duration": 7, "velocity": 89}, {"time": 1168, "pitch": 54, "duration": 7, "velocity": 89}, {"time": 1174, "pitch": 44, "duration": 43, "velocity": 89}, {"time": 1180, "pitch": 51, "duration": 38, "velocity": 89}, {"time": 1186, "pitch": 56, "duration": 10, "velocity": 89}, {"time": 1192, "pitch": 60, "duration": 20, "velocity": 89}, {"time": 1204, "pitch": 56, "duration": 9, "velocity": 89}, {"time": 1210, "pitch": 63, "duration": 7, "velocity": 89}, {"time": 1216, "pitch": 60, "duration": 7, "velocity": 89}, {"time": 1222, "pitch": 37, "duration": 37, "velocity": 99}, {"time": 1222, "pitch": 65, "duration": 4, "velocity": 96}, {"time": 1222, "pitch": 68, "duration": 14, "velocity": 100}, {"time": 1225, "pitch": 65, "duration": 1, "velocity": 28}, {"time": 1228, "pitch": 44, "duration": 32, "velocity": 34}, {"time": 1231, "pitch": 49, "duration": 14, "velocity": 54}, {"time": 1237, "pitch": 61, "duration": 5, "velocity": 73}, {"time": 1246, "pitch": 65, "duration": 13, "velocity": 99}, {"time": 1246, "pitch": 68, "duration": 14, "velocity": 102}, {"time": 1252, "pitch": 49, "duration": 15, "velocity": 86}, {"time": 1258, "pitch": 61, "duration": 15, "velocity": 97}, {"time": 1264, "pitch": 65, "duration": 19, "velocity": 71}, {"time": 1264, "pitch": 68, "duration": 19, "velocity": 100}, {"time": 1267, "pitch": 36, "duration": 29, "velocity": 63}, {"time": 1279, "pitch": 60, "duration": 9, "velocity": 69}, {"time": 1288, "pitch": 65, "duration": 4, "velocity": 63}, {"time": 1288, "pitch": 68, "duration": 4, "velocity": 63}, {"time": 1294, "pitch": 65, "duration": 15, "velocity": 117}, {"time": 1294, "pitch": 68, "duration": 14, "velocity": 117}, {"time": 1300, "pitch": 36, "duration": 3, "velocity": 73}, {"time": 1306, "pitch": 60, "duration": 12, "velocity": 99}, {"time": 1309, "pitch": 65, "duration": 6, "velocity": 70}, {"time": 1312, "pitch": 68, "duration": 7, "velocity": 97}, {"time": 1318, "pitch": 46, "duration": 39, "velocity": 112}, {"time": 1321, "pitch": 58, "duration": 22, "velocity": 85}, {"time": 1330, "pitch": 61, "duration": 10, "velocity": 81}, {"time": 1336, "pitch": 65, "duration": 4, "velocity": 69}, {"time": 1336, "pitch": 70, "duration": 4, "velocity": 66}, {"time": 1342, "pitch": 65, "duration": 10, "velocity": 99}, {"time": 1342, "pitch": 70, "duration": 10, "velocity": 102}, {"time": 1348, "pitch": 58, "duration": 7, "velocity": 92}, {"time": 1354, "pitch": 61, "duration": 12, "velocity": 107}, {"time": 1354, "pitch": 70, "duration": 1, "velocity": 45}, {"time": 1360, "pitch": 65, "duration": 6, "velocity": 71}, {"time": 1360, "pitch": 70, "duration": 7, "velocity": 97}, {"time": 1366, "pitch": 44, "duration": 35, "velocity": 102}, {"time": 1372, "pitch": 56, "duration": 22, "velocity": 82}, {"time": 1378, "pitch": 60, "duration": 11, "velocity": 70}, {"time": 1384, "pitch": 63, "duration": 5, "velocity": 74}, {"time": 1384, "pitch": 68, "duration": 4, "velocity": 81}, {"time": 1390, "pitch": 63, "duration": 13, "velocity": 107}, {"time": 1390, "pitch": 68, "duration": 24, "velocity": 107}, {"time": 1396, "pitch": 56, "duration": 3, "velocity": 100}, {"time": 1402, "pitch": 60, "duration": 12, "velocity": 96}, {"time": 1408, "pitch": 63, "duration": 6, "velocity": 122}, {"time": 1414, "pitch": 42, "duration": 34, "velocity": 89}, {"time": 1420, "pitch": 54, "duration": 22, "velocity": 74}, {"time": 1423, "pitch": 58, "duration": 9, "velocity": 64}, {"time": 1432, "pitch": 61, "duration": 3, "velocity": 75}, {"time": 1432, "pitch": 66, "duration": 4, "velocity": 69}, {"time": 1438, "pitch": 61, "duration": 10, "velocity": 100}, {"time": 1438, "pitch": 66, "duration": 10, "velocity": 89}, {"time": 1444, "pitch": 54, "duration": 4, "velocity": 75}, {"time": 1450, "pitch": 58, "duration": 8, "velocity": 92}, {"time": 1456, "pitch": 61, "duration": 5, "velocity": 82}, {"time": 1456, "pitch": 66, "duration": 5, "velocity": 72}, {"time": 1462, "pitch": 37, "duration": 38, "velocity": 95}, {"time": 1468, "pitch": 49, "duration": 22, "velocity": 81}, {"time": 1474, "pitch": 56, "duration": 11, "velocity": 61}, {"time": 1480, "pitch": 61, "duration": 5, "velocity": 69}, {"time": 1480, "pitch": 65, "duration": 4, "velocity": 58}, {"time": 1486, "pitch": 56, "duration": 7, "velocity": 83}, {"time": 1486, "pitch": 61, "duration": 9, "velocity": 72}, {"time": 1486, "pitch": 65, "duration": 14, "velocity": 72}, {"time": 1492, "pitch": 49, "duration": 11, "velocity": 92}, {"time": 1498, "pitch": 56, "duration": 11, "velocity": 97}, {"time": 1504, "pitch": 61, "duration": 5, "velocity": 52}, {"time": 1504, "pitch": 65, "duration": 5, "velocity": 42}, {"time": 1510, "pitch": 39, "duration": 34, "velocity": 97}, {"time": 1516, "pitch": 51, "duration": 21, "velocity": 79}, {"time": 1522, "pitch": 54, "duration": 9, "velocity": 61}, {"time": 1528, "pitch": 58, "duration": 4, "velocity": 85}, {"time": 1528, "pitch": 63, "duration": 4, "velocity": 89}, {"time": 1534, "pitch": 58, "duration": 12, "velocity": 112}, {"time": 1534, "pitch": 63, "duration": 13, "velocity": 99}, {"time": 1540, "pitch": 51, "duration": 7, "velocity": 88}, {"time": 1543, "pitch": 54, "duration": 8, "velocity": 95}, {"time": 1552, "pitch": 58, "duration": 5, "velocity": 82}, {"time": 1552, "pitch": 63, "duration": 6, "velocity": 88}, {"time": 1558, "pitch": 44, "duration": 50, "velocity": 97}, {"time": 1564, "pitch": 56, "duration": 20, "velocity": 92}, {"time": 1570, "pitch": 60, "duration": 10, "velocity": 78}, {"time": 1576, "pitch": 63, "duration": 4, "velocity": 85}, {"time": 1576, "pitch": 68, "duration": 4, "velocity": 96}, {"time": 1582, "pitch": 63, "duration": 12, "velocity": 127}, {"time": 1582, "pitch": 68, "duration": 12, "velocity": 107}, {"time": 1588, "pitch": 56, "duration": 19, "velocity": 100}, {"time": 1594, "pitch": 60, "duration": 14, "velocity": 99}, {"time": 1600, "pitch": 63, "duration": 7, "velocity": 79}, {"time": 1600, "pitch": 68, "duration": 8, "velocity": 100}, {"time": 1606, "pitch": 37, "duration": 37, "velocity": 99}, {"time": 1606, "pitch": 65, "duration": 4, "velocity": 96}, {"time": 1606, "pitch": 68, "duration": 2, "velocity": 100}, {"time": 1609, "pitch": 65, "duration": 1, "velocity": 28}, {"time": 1612, "pitch": 44, "duration": 32, "velocity": 34}, {"time": 1615, "pitch": 49, "duration": 14, "velocity": 54}, {"time": 1621, "pitch": 61, "duration": 5, "velocity": 73}, {"time": 1630, "pitch": 65, "duration": 13, "velocity": 99}, {"time": 1630, "pitch": 68, "duration": 14, "velocity": 102}, {"time": 1636, "pitch": 49, "duration": 15, "velocity": 86}, {"time": 1642, "pitch": 61, "duration": 15, "velocity": 97}, {"time": 1648, "pitch": 65, "duration": 19, "velocity": 71}, {"time": 1648, "pitch": 68, "duration": 19, "velocity": 100}, {"time": 1654, "pitch": 36, "duration": 29, "velocity": 63}, {"time": 1663, "pitch": 60, "duration": 9, "velocity": 69}, {"time": 1672, "pitch": 65, "duration": 4, "velocity": 63}, {"time": 1672, "pitch": 68, "duration": 4, "velocity": 63}, {"time": 1678, "pitch": 65, "duration": 15, "velocity": 117}, {"time": 1678, "pitch": 68, "duration": 14, "velocity": 117}, {"time": 1684, "pitch": 36, "duration": 3, "velocity": 73}, {"time": 1690, "pitch": 60, "duration": 12, "velocity": 99}, {"time": 1693, "pitch": 65, "duration": 6, "velocity": 70}, {"time": 1696, "pitch": 68, "duration": 7, "velocity": 97}, {"time": 1702, "pitch": 46, "duration": 39, "velocity": 112}, {"time": 1705, "pitch": 58, "duration": 22, "velocity": 85}, {"time": 1714, "pitch": 61, "duration": 10, "velocity": 81}, {"time": 1720, "pitch": 65, "duration": 4, "velocity": 69}, {"time": 1720, "pitch": 70, "duration": 4, "velocity": 66}, {"time": 1726, "pitch": 65, "duration": 10, "velocity": 99}, {"time": 1726, "pitch": 70, "duration": 10, "velocity": 102}, {"time": 1732, "pitch": 58, "duration": 7, "velocity": 92}, {"time": 1738, "pitch": 61, "duration": 12, "velocity": 107}, {"time": 1738, "pitch": 70, "duration": 1, "velocity": 45}, {"time": 1744, "pitch": 65, "duration": 6, "velocity": 71}, {"time": 1744, "pitch": 70, "duration": 7, "velocity": 97}, {"time": 1750, "pitch": 44, "duration": 35, "velocity": 102}, {"time": 1756, "pitch": 56, "duration": 22, "velocity": 82}, {"time": 1762, "pitch": 60, "duration": 11, "velocity": 70}, {"time": 1768, "pitch": 63, "duration": 5, "velocity": 74}, {"time": 1768, "pitch": 68, "duration": 4, "velocity": 81}, {"time": 1774, "pitch": 63, "duration": 13, "velocity": 107}, {"time": 1774, "pitch": 68, "duration": 24, "velocity": 107}, {"time": 1780, "pitch": 56, "duration": 3, "velocity": 100}, {"time": 1786, "pitch": 60, "duration": 12, "velocity": 96}, {"time": 1792, "pitch": 63, "duration": 6, "velocity": 122}, {"time": 1798, "pitch": 42, "duration": 34, "velocity": 89}, {"time": 1804, "pitch": 54, "duration": 22, "velocity": 74}, {"time": 1807, "pitch": 58, "duration": 9, "velocity": 64}, {"time": 1816, "pitch": 61, "duration": 3, "velocity": 75}, {"time": 1816, "pitch": 66, "duration": 4, "velocity": 69}, {"time": 1822, "pitch": 61, "duration": 10, "velocity": 100}, {"time": 1822, "pitch": 66, "duration": 10, "velocity": 89}, {"time": 1828, "pitch": 54, "duration": 4, "velocity": 75}, {"time": 1834, "pitch": 58, "duration": 8, "velocity": 92}, {"time": 1840, "pitch": 61, "duration": 5, "velocity": 82}, {"time": 1840, "pitch": 66, "duration": 5, "velocity": 72}, {"time": 1846, "pitch": 37, "duration": 38, "velocity": 95}, {"time": 1852, "pitch": 49, "duration": 22, "velocity": 81}, {"time": 1858, "pitch": 56, "duration": 11, "velocity": 61}, {"time": 1864, "pitch": 61, "duration": 5, "velocity": 69}, {"time": 1864, "pitch": 65, "duration": 4, "velocity": 58}, {"time": 1870, "pitch": 56, "duration": 7, "velocity": 83}, {"time": 1870, "pitch": 61, "duration": 9, "velocity": 72}, {"time": 1870, "pitch": 65, "duration": 14, "velocity": 72}, {"time": 1876, "pitch": 49, "duration": 11, "velocity": 92}, {"time": 1882, "pitch": 56, "duration": 11, "velocity": 97}, {"time": 1888, "pitch": 61, "duration": 5, "velocity": 52}, {"time": 1888, "pitch": 65, "duration": 5, "velocity": 42}, {"time": 1894, "pitch": 39, "duration": 34, "velocity": 97}, {"time": 1900, "pitch": 51, "duration": 21, "velocity": 79}, {"time": 1906, "pitch": 54, "duration": 9, "velocity": 61}, {"time": 1912, "pitch": 58, "duration": 4, "velocity": 85}, {"time": 1912, "pitch": 63, "duration": 4, "velocity": 89}, {"time": 1918, "pitch": 58, "duration": 12, "velocity": 112}, {"time": 1918, "pitch": 63, "duration": 13, "velocity": 99}, {"time": 1924, "pitch": 51, "duration": 7, "velocity": 88}, {"time": 1927, "pitch": 54, "duration": 8, "velocity": 95}, {"time": 1936, "pitch": 58, "duration": 5, "velocity": 82}, {"time": 1936, "pitch": 63, "duration": 6, "velocity": 88}, {"time": 1942, "pitch": 44, "duration": 50, "velocity": 97}, {"time": 1948, "pitch": 56, "duration": 20, "velocity": 92}, {"time": 1954, "pitch": 60, "duration": 10, "velocity": 78}, {"time": 1960, "pitch": 63, "duration": 4, "velocity": 85}, {"time": 1960, "pitch": 68, "duration": 4, "velocity": 96}, {"time": 1966, "pitch": 63, "duration": 12, "velocity": 127}, {"time": 1966, "pitch": 68, "duration": 12, "velocity": 107}, {"time": 1972, "pitch": 56, "duration": 19, "velocity": 100}, {"time": 1978, "pitch": 60, "duration": 14, "velocity": 99}, {"time": 1984, "pitch": 63, "duration": 7, "velocity": 79}, {"time": 1984, "pitch": 68, "duration": 8, "velocity": 100}, {"time": 1990, "pitch": 42, "duration": 22, "velocity": 89}, {"time": 1996, "pitch": 49, "duration": 17, "velocity": 89}, {"time": 1996, "pitch": 65, "duration": 3, "velocity": 89}, {"time": 2002, "pitch": 58, "duration": 6, "velocity": 89}, {"time": 2002, "pitch": 70, "duration": 4, "velocity": 89}, {"time": 2008, "pitch": 54, "duration": 6, "velocity": 89}, {"time": 2008, "pitch": 65, "duration": 3, "velocity": 89}, {"time": 2014, "pitch": 44, "duration": 16, "velocity": 89}, {"time": 2020, "pitch": 51, "duration": 11, "velocity": 89}, {"time": 2020, "pitch": 63, "duration": 3, "velocity": 89}, {"time": 2026, "pitch": 60, "duration": 6, "velocity": 89}, {"time": 2026, "pitch": 68, "duration": 3, "velocity": 89}, {"time": 2032, "pitch": 54, "duration": 6, "velocity": 89}, {"time": 2032, "pitch": 63, "duration": 4, "velocity": 89}, {"time": 2038, "pitch": 46, "duration": 43, "velocity": 89}, {"time": 2044, "pitch": 53, "duration": 21, "velocity": 89}, {"time": 2044, "pitch": 65, "duration": 3, "velocity": 89}, {"time": 2050, "pitch": 61, "duration": 7, "velocity": 89}, {"time": 2050, "pitch": 73, "duration": 3, "velocity": 89}, {"time": 2056, "pitch": 58, "duration": 14, "velocity": 89}, {"time": 2056, "pitch": 65, "duration": 3, "velocity": 89}, {"time": 2062, "pitch": 72, "duration": 5, "velocity": 89}, {"time": 2068, "pitch": 65, "duration": 5, "velocity": 89}, {"time": 2074, "pitch": 53, "duration": 7, "velocity": 89}, {"time": 2074, "pitch": 70, "duration": 5, "velocity": 89}, {"time": 2080, "pitch": 61, "duration": 7, "velocity": 89}, {"time": 2080, "pitch": 68, "duration": 5, "velocity": 89}, {"time": 2086, "pitch": 42, "duration": 20, "velocity": 89}, {"time": 2092, "pitch": 49, "duration": 17, "velocity": 89}, {"time": 2092, "pitch": 65, "duration": 4, "velocity": 89}, {"time": 2098, "pitch": 58, "duration": 7, "velocity": 89}, {"time": 2098, "pitch": 70, "duration": 7, "velocity": 89}, {"time": 2104, "pitch": 54, "duration": 7, "velocity": 89}, {"time": 2104, "pitch": 65, "duration": 3, "velocity": 89}, {"time": 2110, "pitch": 44, "duration": 20, "velocity": 89}, {"time": 2116, "pitch": 51, "duration": 15, "velocity": 89}, {"time": 2116, "pitch": 63, "duration": 3, "velocity": 89}, {"time": 2122, "pitch": 60, "duration": 6, "velocity": 89}, {"time": 2122, "pitch": 68, "duration": 4, "velocity": 89}, {"time": 2128, "pitch": 56, "duration": 7, "velocity": 89}, {"time": 2128, "pitch": 63, "duration": 3, "velocity": 89}, {"time": 2134, "pitch": 46, "duration": 43, "velocity": 89}, {"time": 2140, "pitch": 53, "duration": 13, "velocity": 89}, {"time": 2140, "pitch": 65, "duration": 4, "velocity": 89}, {"time": 2146, "pitch": 61, "duration": 6, "velocity": 89}, {"time": 2146, "pitch": 72, "duration": 2, "velocity": 89}, {"time": 2152, "pitch": 58, "duration": 13, "velocity": 89}, {"time": 2152, "pitch": 73, "duration": 3, "velocity": 89}, {"time": 2158, "pitch": 53, "duration": 19, "velocity": 89}, {"time": 2158, "pitch": 72, "duration": 3, "velocity": 89}, {"time": 2164, "pitch": 61, "duration": 13, "velocity": 89}, {"time": 2164, "pitch": 70, "duration": 3, "velocity": 89}, {"time": 2170, "pitch": 68, "duration": 3, "velocity": 89}, {"time": 2176, "pitch": 58, "duration": 7, "velocity": 89}, {"time": 2176, "pitch": 70, "duration": 7, "velocity": 89}, {"time": 2182, "pitch": 42, "duration": 20, "velocity": 89}, {"time": 2188, "pitch": 49, "duration": 14, "velocity": 89}, {"time": 2188, "pitch": 65, "duration": 3, "velocity": 89}, {"time": 2194, "pitch": 58, "duration": 7, "velocity": 89}, {"time": 2194, "pitch": 70, "duration": 4, "velocity": 89}, {"time": 2200, "pitch": 54, "duration": 7, "velocity": 89}, {"time": 2200, "pitch": 65, "duration": 3, "velocity": 89}, {"time": 2206, "pitch": 44, "duration": 19, "velocity": 89}, {"time": 2212, "pitch": 51, "duration": 15, "velocity": 89}, {"time": 2212, "pitch": 63, "duration": 3, "velocity": 89}, {"time": 2218, "pitch": 60, "duration": 6, "velocity": 89}, {"time": 2218, "pitch": 68, "duration": 5, "velocity": 89}, {"time": 2224, "pitch": 56, "duration": 7, "velocity": 89}, {"time": 2224, "pitch": 63, "duration": 2, "velocity": 89}, {"time": 2230, "pitch": 46, "duration": 42, "velocity": 89}, {"time": 2236, "pitch": 53, "duration": 15, "velocity": 89}, {"time": 2236, "pitch": 63, "duration": 4, "velocity": 89}, {"time": 2242, "pitch": 61, "duration": 6, "velocity": 89}, {"time": 2242, "pitch": 70, "duration": 2, "velocity": 89}, {"time": 2248, "pitch": 58, "duration": 17, "velocity": 89}, {"time": 2248, "pitch": 73, "duration": 2, "velocity": 89}, {"time": 2254, "pitch": 72, "duration": 3, "velocity": 89}, {"time": 2260, "pitch": 53, "duration": 11, "velocity": 89}, {"time": 2260, "pitch": 70, "duration": 3, "velocity": 89}, {"time": 2266, "pitch": 61, "duration": 5, "velocity": 89}, {"time": 2266, "pitch": 68, "duration": 3, "velocity": 89}, {"time": 2272, "pitch": 58, "duration": 5, "velocity": 89}, {"time": 2272, "pitch": 65, "duration": 3, "velocity": 89}, {"time": 2278, "pitch": 42, "duration": 20, "velocity": 89}, {"time": 2284, "pitch": 49, "duration": 16, "velocity": 89}, {"time": 2284, "pitch": 65, "duration": 3, "velocity": 89}, {"time": 2290, "pitch": 58, "duration": 7, "velocity": 89}, {"time": 2290, "pitch": 70, "duration": 5, "velocity": 89}, {"time": 2296, "pitch": 54, "duration": 7, "velocity": 89}, {"time": 2296, "pitch": 65, "duration": 3, "velocity": 89}, {"time": 2302, "pitch": 44, "duration": 20, "velocity": 89}, {"time": 2308, "pitch": 51, "duration": 14, "velocity": 89}, {"time": 2308, "pitch": 63, "duration": 3, "velocity": 89}, {"time": 2314, "pitch": 60, "duration": 6, "velocity": 89}, {"time": 2314, "pitch": 68, "duration": 4, "velocity": 89}, {"time": 2320, "pitch": 56, "duration": 6, "velocity": 89}, {"time": 2320, "pitch": 63, "duration": 3, "velocity": 89}, {"time": 2326, "pitch": 49, "duration": 42, "velocity": 89}, {"time": 2332, "pitch": 56, "duration": 39, "velocity": 89}, {"time": 2332, "pitch": 63, "duration": 3, "velocity": 89}, {"time": 2338, "pitch": 66, "duration": 4, "velocity": 89}, {"time": 2338, "pitch": 70, "duration": 3, "velocity": 89}, {"time": 2344, "pitch": 65, "duration": 6, "velocity": 89}, {"time": 2344, "pitch": 68, "duration": 7, "velocity": 89}, {"time": 2356, "pitch": 63, "duration": 11, "velocity": 89}, {"time": 2356, "pitch": 66, "duration": 12, "velocity": 89}, {"time": 2368, "pitch": 65, "duration": 18, "velocity": 89}, {"time": 2374, "pitch": 37, "duration": 43, "velocity": 89}, {"time": 2380, "pitch": 44, "duration": 40, "velocity": 89}, {"time": 2386, "pitch": 49, "duration": 11, "velocity": 89}, {"time": 2392, "pitch": 53, "duration": 19, "velocity": 89}, {"time": 2404, "pitch": 49, "duration": 16, "velocity": 89}, {"time": 2410, "pitch": 56, "duration": 6, "velocity": 89}, {"time": 2416, "pitch": 53, "duration": 7, "velocity": 89}, {"time": 2422, "pitch": 41, "duration": 37, "velocity": 89}, {"time": 2428, "pitch": 48, "duration": 31, "velocity": 89}, {"time": 2434, "pitch": 53, "duration": 15, "velocity": 89}, {"time": 2440, "pitch": 56, "duration": 20, "velocity": 89}, {"time": 2452, "pitch": 53, "duration": 17, "velocity": 89}, {"time": 2458, "pitch": 60, "duration": 6, "velocity": 90}, {"time": 2464, "pitch": 56, "duration": 7, "velocity": 90}, {"time": 2470, "pitch": 46, "duration": 39, "velocity": 90}, {"time": 2476, "pitch": 53, "duration": 31, "velocity": 90}, {"time": 2482, "pitch": 58, "duration": 12, "velocity": 90}, {"time": 2488, "pitch": 61, "duration": 17, "velocity": 90}, {"time": 2500, "pitch": 58, "duration": 6, "velocity": 90}, {"time": 2506, "pitch": 65, "duration": 7, "velocity": 90}, {"time": 2512, "pitch": 61, "duration": 7, "velocity": 90}, {"time": 2518, "pitch": 41, "duration": 45, "velocity": 90}, {"time": 2524, "pitch": 48, "duration": 42, "velocity": 90}, {"time": 2530, "pitch": 53, "duration": 15, "velocity": 90}, {"time": 2536, "pitch": 56, "duration": 20, "velocity": 90}, {"time": 2542, "pitch": 60, "duration": 17, "velocity": 90}, {"time": 2548, "pitch": 53, "duration": 14, "velocity": 90}, {"time": 2560, "pitch": 56, "duration": 2, "velocity": 90}, {"time": 2560, "pitch": 60, "duration": 2, "velocity": 90}, {"time": 2566, "pitch": 42, "duration": 43, "velocity": 90}, {"time": 2566, "pitch": 58, "duration": 19, "velocity": 90}, {"time": 2572, "pitch": 49, "duration": 36, "velocity": 90}, {"time": 2578, "pitch": 54, "duration": 10, "velocity": 90}, {"time": 2584, "pitch": 61, "duration": 17, "velocity": 90}, {"time": 2596, "pitch": 54, "duration": 10, "velocity": 90}, {"time": 2602, "pitch": 58, "duration": 7, "velocity": 90}, {"time": 2608, "pitch": 61, "duration": 7, "velocity": 90}, {"time": 2614, "pitch": 41, "duration": 14, "velocity": 90}, {"time": 2614, "pitch": 56, "duration": 14, "velocity": 90}, {"time": 2614, "pitch": 60, "duration": 14, "velocity": 90}, {"time": 2620, "pitch": 48, "duration": 9, "velocity": 90}, {"time": 2626, "pitch": 53, "duration": 12, "velocity": 90}, {"time": 2632, "pitch": 56, "duration": 7, "velocity": 90}, {"time": 2638, "pitch": 46, "duration": 26, "velocity": 90}, {"time": 2644, "pitch": 53, "duration": 18, "velocity": 90}, {"time": 2650, "pitch": 58, "duration": 12, "velocity": 90}, {"time": 2656, "pitch": 60, "duration": 3, "velocity": 90}, {"time": 2662, "pitch": 39, "duration": 48, "velocity": 90}, {"time": 2662, "pitch": 61, "duration": 12, "velocity": 90}, {"time": 2668, "pitch": 46, "duration": 36, "velocity": 90}, {"time": 2674, "pitch": 51, "duration": 9, "velocity": 90}, {"time": 2674, "pitch": 58, "duration": 16, "velocity": 90}, {"time": 2680, "pitch": 54, "duration": 19, "velocity": 90}, {"time": 2692, "pitch": 51, "duration": 17, "velocity": 90}, {"time": 2698, "pitch": 63, "duration": 7, "velocity": 91}, {"time": 2704, "pitch": 54, "duration": 7, "velocity": 91}, {"time": 2710, "pitch": 44, "duration": 43, "velocity": 91}, {"time": 2716, "pitch": 51, "duration": 38, "velocity": 91}, {"time": 2722, "pitch": 56, "duration": 10, "velocity": 91}, {"time": 2728, "pitch": 60, "duration": 20, "velocity": 91}, {"time": 2740, "pitch": 56, "duration": 9, "velocity": 91}, {"time": 2746, "pitch": 63, "duration": 7, "velocity": 91}, {"time": 2752, "pitch": 60, "duration": 7, "velocity": 91}, {"time": 2758, "pitch": 37, "duration": 37, "velocity": 99}, {"time": 2758, "pitch": 65, "duration": 4, "velocity": 96}, {"time": 2758, "pitch": 68, "duration": 14, "velocity": 100}, {"time": 2761, "pitch": 65, "duration": 1, "velocity": 28}, {"time": 2764, "pitch": 44, "duration": 32, "velocity": 34}, {"time": 2767, "pitch": 49, "duration": 14, "velocity": 54}, {"time": 2773, "pitch": 61, "duration": 5, "velocity": 73}, {"time": 2782, "pitch": 65, "duration": 13, "velocity": 99}, {"time": 2782, "pitch": 68, "duration": 14, "velocity": 102}, {"time": 2788, "pitch": 49, "duration": 15, "velocity": 86}, {"time": 2794, "pitch": 61, "duration": 15, "velocity": 97}, {"time": 2800, "pitch": 65, "duration": 19, "velocity": 71}, {"time": 2800, "pitch": 68, "duration": 19, "velocity": 100}, {"time": 2803, "pitch": 36, "duration": 29, "velocity": 63}, {"time": 2815, "pitch": 60, "duration": 9, "velocity": 69}, {"time": 2824, "pitch": 65, "duration": 4, "velocity": 63}, {"time": 2824, "pitch": 68, "duration": 4, "velocity": 63}, {"time": 2830, "pitch": 65, "duration": 15, "velocity": 117}, {"time": 2830, "pitch": 68, "duration": 14, "velocity": 117}, {"time": 2836, "pitch": 36, "duration": 3, "velocity": 73}, {"time": 2842, "pitch": 60, "duration": 12, "velocity": 99}, {"time": 2845, "pitch": 65, "duration": 6, "velocity": 70}, {"time": 2848, "pitch": 68, "duration": 7, "velocity": 97}, {"time": 2854, "pitch": 46, "duration": 39, "velocity": 112}, {"time": 2857, "pitch": 58, "duration": 22, "velocity": 85}, {"time": 2866, "pitch": 61, "duration": 10, "velocity": 81}, {"time": 2872, "pitch": 65, "duration": 4, "velocity": 69}, {"time": 2872, "pitch": 70, "duration": 4, "velocity": 66}, {"time": 2878, "pitch": 65, "duration": 10, "velocity": 99}, {"time": 2878, "pitch": 70, "duration": 10, "velocity": 102}, {"time": 2884, "pitch": 58, "duration": 7, "velocity": 92}, {"time": 2890, "pitch": 61, "duration": 12, "velocity": 107}, {"time": 2890, "pitch": 70, "duration": 1, "velocity": 45}, {"time": 2896, "pitch": 65, "duration": 6, "velocity": 71}, {"time": 2896, "pitch": 70, "duration": 7, "velocity": 97}, {"time": 2902, "pitch": 44, "duration": 35, "velocity": 102}, {"time": 2908, "pitch": 56, "duration": 22, "velocity": 82}, {"time": 2914, "pitch": 60, "duration": 11, "velocity": 70}, {"time": 2920, "pitch": 63, "duration": 5, "velocity": 74}, {"time": 2920, "pitch": 68, "duration": 4, "velocity": 81}, {"time": 2926, "pitch": 63, "duration": 13, "velocity": 107}, {"time": 2926, "pitch": 68, "duration": 24, "velocity": 107}, {"time": 2932, "pitch": 56, "duration": 3, "velocity": 100}, {"time": 2938, "pitch": 60, "duration": 12, "velocity": 96}, {"time": 2944, "pitch": 63, "duration": 6, "velocity": 122}, {"time": 2950, "pitch": 42, "duration": 34, "velocity": 89}, {"time": 2956, "pitch": 54, "duration": 22, "velocity": 74}, {"time": 2959, "pitch": 58, "duration": 9, "velocity": 64}, {"time": 2968, "pitch": 61, "duration": 3, "velocity": 75}, {"time": 2968, "pitch": 66, "duration": 4, "velocity": 69}, {"time": 2974, "pitch": 61, "duration": 10, "velocity": 100}, {"time": 2974, "pitch": 66, "duration": 10, "velocity": 89}, {"time": 2980, "pitch": 54, "duration": 4, "velocity": 75}, {"time": 2986, "pitch": 58, "duration": 8, "velocity": 92}, {"time": 2992, "pitch": 61, "duration": 5, "velocity": 82}, {"time": 2992, "pitch": 66, "duration": 5, "velocity": 72}, {"time": 2998, "pitch": 37, "duration": 38, "velocity": 95}, {"time": 3004, "pitch": 49, "duration": 22, "velocity": 81}, {"time": 3010, "pitch": 56, "duration": 11, "velocity": 61}, {"time": 3016, "pitch": 61, "duration": 5, "velocity": 69}, {"time": 3016, "pitch": 65, "duration": 4, "velocity": 58}, {"time": 3022, "pitch": 56, "duration": 7, "velocity": 83}, {"time": 3022, "pitch": 61, "duration": 9, "velocity": 72}, {"time": 3022, "pitch": 65, "duration": 14, "velocity": 72}, {"time": 3028, "pitch": 49, "duration": 11, "velocity": 92}, {"time": 3034, "pitch": 56, "duration": 11, "velocity": 97}, {"time": 3040, "pitch": 61, "duration": 5, "velocity": 52}, {"time": 3040, "pitch": 65, "duration": 5, "velocity": 42}, {"time": 3046, "pitch": 39, "duration": 34, "velocity": 97}, {"time": 3052, "pitch": 51, "duration": 21, "velocity": 79}, {"time": 3058, "pitch": 54, "duration": 9, "velocity": 61}, {"time": 3064, "pitch": 58, "duration": 4, "velocity": 85}, {"time": 3064, "pitch": 63, "duration": 4, "velocity": 89}, {"time": 3070, "pitch": 58, "duration": 12, "velocity": 112}, {"time": 3070, "pitch": 63, "duration": 13, "velocity": 99}, {"time": 3076, "pitch": 51, "duration": 7, "velocity": 88}, {"time": 3079, "pitch": 54, "duration": 8, "velocity": 95}, {"time": 3088, "pitch": 58, "duration": 5, "velocity": 82}, {"time": 3088, "pitch": 63, "duration": 6, "velocity": 88}, {"time": 3094, "pitch": 44, "duration": 48, "velocity": 97}, {"time": 3100, "pitch": 56, "duration": 20, "velocity": 92}, {"time": 3106, "pitch": 60, "duration": 10, "velocity": 78}, {"time": 3112, "pitch": 63, "duration": 4, "velocity": 85}, {"time": 3112, "pitch": 68, "duration": 4, "velocity": 96}, {"time": 3118, "pitch": 63, "duration": 12, "velocity": 127}, {"time": 3118, "pitch": 68, "duration": 12, "velocity": 107}, {"time": 3124, "pitch": 56, "duration": 18, "velocity": 100}, {"time": 3130, "pitch": 60, "duration": 12, "velocity": 99}, {"time": 3136, "pitch": 63, "duration": 6, "velocity": 79}, {"time": 3136, "pitch": 68, "duration": 6, "velocity": 100}, {"time": 3142, "pitch": 37, "duration": 37, "velocity": 99}, {"time": 3142, "pitch": 65, "duration": 4, "velocity": 96}, {"time": 3142, "pitch": 68, "duration": 14, "velocity": 100}, {"time": 3145, "pitch": 65, "duration": 1, "velocity": 28}, {"time": 3148, "pitch": 44, "duration": 32, "velocity": 34}, {"time": 3151, "pitch": 49, "duration": 14, "velocity": 54}, {"time": 3157, "pitch": 61, "duration": 5, "velocity": 73}, {"time": 3166, "pitch": 65, "duration": 13, "velocity": 99}, {"time": 3166, "pitch": 68, "duration": 14, "velocity": 102}, {"time": 3172, "pitch": 49, "duration": 15, "velocity": 86}, {"time": 3178, "pitch": 61, "duration": 15, "velocity": 97}, {"time": 3184, "pitch": 65, "duration": 19, "velocity": 71}, {"time": 3184, "pitch": 68, "duration": 19, "velocity": 100}, {"time": 3187, "pitch": 36, "duration": 29, "velocity": 63}, {"time": 3199, "pitch": 60, "duration": 9, "velocity": 69}, {"time": 3208, "pitch": 65, "duration": 4, "velocity": 63}, {"time": 3208, "pitch": 68, "duration": 4, "velocity": 63}, {"time": 3214, "pitch": 65, "duration": 15, "velocity": 117}, {"time": 3214, "pitch": 68, "duration": 14, "velocity": 117}, {"time": 3220, "pitch": 36, "duration": 3, "velocity": 73}, {"time": 3226, "pitch": 60, "duration": 12, "velocity": 99}, {"time": 3229, "pitch": 65, "duration": 6, "velocity": 70}, {"time": 3232, "pitch": 68, "duration": 7, "velocity": 97}, {"time": 3238, "pitch": 46, "duration": 39, "velocity": 112}, {"time": 3241, "pitch": 58, "duration": 22, "velocity": 85}, {"time": 3250, "pitch": 61, "duration": 10, "velocity": 81}, {"time": 3256, "pitch": 65, "duration": 4, "velocity": 69}, {"time": 3256, "pitch": 70, "duration": 4, "velocity": 66}, {"time": 3262, "pitch": 65, "duration": 10, "velocity": 99}, {"time": 3262, "pitch": 70, "duration": 10, "velocity": 102}, {"time": 3268, "pitch": 58, "duration": 7, "velocity": 92}, {"time": 3274, "pitch": 61, "duration": 12, "velocity": 107}, {"time": 3274, "pitch": 70, "duration": 1, "velocity": 45}, {"time": 3280, "pitch": 65, "duration": 6, "velocity": 71}, {"time": 3280, "pitch": 70, "duration": 7, "velocity": 97}, {"time": 3286, "pitch": 44, "duration": 35, "velocity": 102}, {"time": 3292, "pitch": 56, "duration": 22, "velocity": 82}, {"time": 3298, "pitch": 60, "duration": 11, "velocity": 70}, {"time": 3304, "pitch": 63, "duration": 5, "velocity": 74}, {"time": 3304, "pitch": 68, "duration": 4, "velocity": 81}, {"time": 3310, "pitch": 63, "duration": 13, "velocity": 107}, {"time": 3310, "pitch": 68, "duration": 24, "velocity": 107}, {"time": 3316, "pitch": 56, "duration": 3, "velocity": 100}, {"time": 3322, "pitch": 60, "duration": 12, "velocity": 96}, {"time": 3328, "pitch": 63, "duration": 6, "velocity": 122}, {"time": 3334, "pitch": 42, "duration": 34, "velocity": 89}, {"time": 3340, "pitch": 54, "duration": 22, "velocity": 74}, {"time": 3343, "pitch": 58, "duration": 9, "velocity": 64}, {"time": 3352, "pitch": 61, "duration": 3, "velocity": 75}, {"time": 3352, "pitch": 66, "duration": 4, "velocity": 69}, {"time": 3358, "pitch": 61, "duration": 10, "velocity": 100}, {"time": 3358, "pitch": 66, "duration": 10, "velocity": 89}, {"time": 3364, "pitch": 54, "duration": 4, "velocity": 75}, {"time": 3370, "pitch": 58, "duration": 8, "velocity": 92}, {"time": 3376, "pitch": 61, "duration": 5, "velocity": 82}, {"time": 3376, "pitch": 66, "duration": 5, "velocity": 72}, {"time": 3382, "pitch": 37, "duration": 38, "velocity": 95}, {"time": 3388, "pitch": 49, "duration": 22, "velocity": 81}, {"time": 3394, "pitch": 56, "duration": 11, "velocity": 61}, {"time": 3400, "pitch": 61, "duration": 5, "velocity": 69}, {"time": 3400, "pitch": 65, "duration": 4, "velocity": 58}, {"time": 3406, "pitch": 56, "duration": 7, "velocity": 83}, {"time": 3406, "pitch": 61, "duration": 9, "velocity": 72}, {"time": 3406, "pitch": 65, "duration": 14, "velocity": 72}, {"time": 3412, "pitch": 49, "duration": 11, "velocity": 92}, {"time": 3418, "pitch": 56, "duration": 11, "velocity": 97}, {"time": 3424, "pitch": 61, "duration": 5, "velocity": 52}, {"time": 3424, "pitch": 65, "duration": 5, "velocity": 42}, {"time": 3430, "pitch": 39, "duration": 34, "velocity": 97}, {"time": 3436, "pitch": 51, "duration": 21, "velocity": 79}, {"time": 3442, "pitch": 54, "duration": 9, "velocity": 61}, {"time": 3448, "pitch": 58, "duration": 4, "velocity": 85}, {"time": 3448, "pitch": 63, "duration": 4, "velocity": 89}, {"time": 3454, "pitch": 58, "duration": 12, "velocity": 112}, {"time": 3454, "pitch": 63, "duration": 13, "velocity": 99}, {"time": 3460, "pitch": 51, "duration": 7, "velocity": 88}, {"time": 3463, "pitch": 54, "duration": 8, "velocity": 95}, {"time": 3472, "pitch": 58, "duration": 5, "velocity": 82}, {"time": 3472, "pitch": 63, "duration": 6, "velocity": 88}, {"time": 3478, "pitch": 44, "duration": 48, "velocity": 97}, {"time": 3484, "pitch": 56, "duration": 20, "velocity": 92}, {"time": 3490, "pitch": 60, "duration": 10, "velocity": 78}, {"time": 3496, "pitch": 63, "duration": 4, "velocity": 85}, {"time": 3496, "pitch": 68, "duration": 4, "velocity": 96}, {"time": 3502, "pitch": 63, "duration": 12, "velocity": 127}, {"time": 3502, "pitch": 68, "duration": 12, "velocity": 107}, {"time": 3508, "pitch": 56, "duration": 18, "velocity": 100}, {"time": 3514, "pitch": 60, "duration": 12, "velocity": 99}, {"time": 3520, "pitch": 63, "duration": 6, "velocity": 79}, {"time": 3520, "pitch": 68, "duration": 6, "velocity": 100}, {"time": 3526, "pitch": 42, "duration": 38, "velocity": 90}, {"time": 3526, "pitch": 49, "duration": 48, "velocity": 90}, {"time": 3526, "pitch": 54, "duration": 4, "velocity": 90}, {"time": 3526, "pitch": 58, "duration": 21, "velocity": 90}, {"time": 3526, "pitch": 61, "duration": 22, "velocity": 90}, {"time": 3526, "pitch": 66, "duration": 21, "velocity": 90}, {"time": 3535, "pitch": 54, "duration": 16, "velocity": 90}, {"time": 3550, "pitch": 58, "duration": 15, "velocity": 90}, {"time": 3550, "pitch": 61, "duration": 15, "velocity": 90}, {"time": 3550, "pitch": 66, "duration": 15, "velocity": 90}, {"time": 3562, "pitch": 54, "duration": 10, "velocity": 90}, {"time": 3574, "pitch": 44, "duration": 43, "velocity": 90}, {"time": 3574, "pitch": 60, "duration": 23, "velocity": 90}, {"time": 3574, "pitch": 63, "duration": 23, "velocity": 90}, {"time": 3574, "pitch": 68, "duration": 23, "velocity": 90}, {"time": 3580, "pitch": 51, "duration": 34, "velocity": 90}, {"time": 3586, "pitch": 56, "duration": 14, "velocity": 90}, {"time": 3598, "pitch": 60, "duration": 15, "velocity": 90}, {"time": 3598, "pitch": 63, "duration": 15, "velocity": 90}, {"time": 3598, "pitch": 68, "duration": 15, "velocity": 90}, {"time": 3610, "pitch": 56, "duration": 4, "velocity": 90}, {"time": 3616, "pitch": 60, "duration": 7, "velocity": 89}, {"time": 3616, "pitch": 63, "duration": 6, "velocity": 89}, {"time": 3616, "pitch": 68, "duration": 6, "velocity": 89}, {"time": 3622, "pitch": 42, "duration": 19, "velocity": 89}, {"time": 3622, "pitch": 58, "duration": 16, "velocity": 89}, {"time": 3622, "pitch": 61, "duration": 17, "velocity": 89}, {"time": 3622, "pitch": 66, "duration": 17, "velocity": 89}, {"time": 3628, "pitch": 49, "duration": 17, "velocity": 89}, {"time": 3634, "pitch": 54, "duration": 5, "velocity": 89}, {"time": 3646, "pitch": 41, "duration": 20, "velocity": 89}, {"time": 3646, "pitch": 56, "duration": 16, "velocity": 89}, {"time": 3646, "pitch": 60, "duration": 16, "velocity": 89}, {"time": 3670, "pitch": 39, "duration": 15, "velocity": 89}, {"time": 3670, "pitch": 54, "duration": 15, "velocity": 89}, {"time": 3670, "pitch": 58, "duration": 16, "velocity": 89}, {"time": 3676, "pitch": 46, "duration": 9, "velocity": 89}, {"time": 3682, "pitch": 51, "duration": 11, "velocity": 89}, {"time": 3688, "pitch": 54, "duration": 6, "velocity": 89}, {"time": 3688, "pitch": 58, "duration": 6, "velocity": 89}, {"time": 3688, "pitch": 63, "duration": 6, "velocity": 89}, {"time": 3694, "pitch": 44, "duration": 23, "velocity": 89}, {"time": 3700, "pitch": 51, "duration": 17, "velocity": 89}, {"time": 3706, "pitch": 56, "duration": 8, "velocity": 89}, {"time": 3712, "pitch": 60, "duration": 7, "velocity": 89}, {"time": 3712, "pitch": 63, "duration": 6, "velocity": 89}, {"time": 3712, "pitch": 68, "duration": 7, "velocity": 89}, {"time": 3718, "pitch": 42, "duration": 44, "velocity": 89}, {"time": 3718, "pitch": 58, "duration": 21, "velocity": 89}, {"time": 3718, "pitch": 61, "duration": 22, "velocity": 89}, {"time": 3718, "pitch": 66, "duration": 21, "velocity": 89}, {"time": 3721, "pitch": 49, "duration": 39, "velocity": 88}, {"time": 3730, "pitch": 54, "duration": 14, "velocity": 88}, {"time": 3742, "pitch": 58, "duration": 15, "velocity": 88}, {"time": 3742, "pitch": 61, "duration": 15, "velocity": 88}, {"time": 3742, "pitch": 66, "duration": 15, "velocity": 88}, {"time": 3754, "pitch": 54, "duration": 5, "velocity": 88}, {"time": 3766, "pitch": 42, "duration": 48, "velocity": 88}, {"time": 3766, "pitch": 58, "duration": 15, "velocity": 88}, {"time": 3766, "pitch": 61, "duration": 15, "velocity": 88}, {"time": 3766, "pitch": 66, "duration": 15, "velocity": 88}, {"time": 3769, "pitch": 49, "duration": 45, "velocity": 88}, {"time": 3778, "pitch": 54, "duration": 15, "velocity": 88}, {"time": 3784, "pitch": 46, "duration": 30, "velocity": 88}, {"time": 3784, "pitch": 58, "duration": 3, "velocity": 88}, {"time": 3784, "pitch": 61, "duration": 3, "velocity": 88}, {"time": 3784, "pitch": 66, "duration": 3, "velocity": 88}, {"time": 3790, "pitch": 58, "duration": 13, "velocity": 88}, {"time": 3790, "pitch": 61, "duration": 13, "velocity": 88}, {"time": 3790, "pitch": 66, "duration": 13, "velocity": 88}, {"time": 3799, "pitch": 54, "duration": 13, "velocity": 88}, {"time": 3808, "pitch": 58, "duration": 3, "velocity": 88}, {"time": 3808, "pitch": 61, "duration": 2, "velocity": 88}, {"time": 3808, "pitch": 66, "duration": 2, "velocity": 88}, {"time": 3814, "pitch": 44, "duration": 44, "velocity": 88}, {"time": 3814, "pitch": 60, "duration": 17, "velocity": 88}, {"time": 3814, "pitch": 63, "duration": 17, "velocity": 88}, {"time": 3814, "pitch": 68, "duration": 17, "velocity": 88}, {"time": 3820, "pitch": 51, "duration": 41, "velocity": 88}, {"time": 3826, "pitch": 56, "duration": 14, "velocity": 88}, {"time": 3829, "pitch": 48, "duration": 31, "velocity": 88}, {"time": 3835, "pitch": 60, "duration": 2, "velocity": 88}, {"time": 3835, "pitch": 63, "duration": 1, "velocity": 88}, {"time": 3835, "pitch": 68, "duration": 1, "velocity": 88}, {"time": 3838, "pitch": 60, "duration": 16, "velocity": 88}, {"time": 3838, "pitch": 63, "duration": 17, "velocity": 88}, {"time": 3838, "pitch": 68, "duration": 17, "velocity": 88}, {"time": 3844, "pitch": 56, "duration": 5, "velocity": 88}, {"time": 3850, "pitch": 56, "duration": 8, "velocity": 88}, {"time": 3856, "pitch": 60, "duration": 4, "velocity": 88}, {"time": 3862, "pitch": 44, "duration": 49, "velocity": 88}, {"time": 3862, "pitch": 60, "duration": 49, "velocity": 88}, {"time": 3862, "pitch": 63, "duration": 49, "velocity": 88}, {"time": 3862, "pitch": 68, "duration": 49, "velocity": 88}, {"time": 3868, "pitch": 51, "duration": 42, "velocity": 88}, {"time": 3940, "pitch": 56, "duration": 9, "velocity": 87}, {"time": 3946, "pitch": 63, "duration": 7, "velocity": 87}, {"time": 3952, "pitch": 60, "duration": 7, "velocity": 87}, {"time": 3958, "pitch": 37, "duration": 37, "velocity": 99}, {"time": 3958, "pitch": 65, "duration": 4, "velocity": 96}, {"time": 3958, "pitch": 68, "duration": 14, "velocity": 100}, {"time": 3961, "pitch": 65, "duration": 1, "velocity": 28}, {"time": 3964, "pitch": 44, "duration": 32, "velocity": 34}, {"time": 3967, "pitch": 49, "duration": 14, "velocity": 54}, {"time": 3973, "pitch": 61, "duration": 5, "velocity": 73}, {"time": 3982, "pitch": 65, "duration": 13, "velocity": 99}, {"time": 3982, "pitch": 68, "duration": 14, "velocity": 102}, {"time": 3988, "pitch": 49, "duration": 15, "velocity": 86}, {"time": 3994, "pitch": 61, "duration": 15, "velocity": 97}, {"time": 4000, "pitch": 65, "duration": 19, "velocity": 71}, {"time": 4000, "pitch": 68, "duration": 19, "velocity": 100}, {"time": 4003, "pitch": 36, "duration": 29, "velocity": 63}, {"time": 4015, "pitch": 60, "duration": 9, "velocity": 69}, {"time": 4024, "pitch": 65, "duration": 4, "velocity": 63}, {"time": 4024, "pitch": 68, "duration": 4, "velocity": 63}, {"time": 4030, "pitch": 65, "duration": 15, "velocity": 117}, {"time": 4030, "pitch": 68, "duration": 14, "velocity": 117}, {"time": 4036, "pitch": 36, "duration": 3, "velocity": 73}, {"time": 4042, "pitch": 60, "duration": 12, "velocity": 99}, {"time": 4045, "pitch": 65, "duration": 6, "velocity": 70}, {"time": 4048, "pitch": 68, "duration": 7, "velocity": 97}, {"time": 4054, "pitch": 46, "duration": 39, "velocity": 112}, {"time": 4057, "pitch": 58, "duration": 22, "velocity": 85}, {"time": 4066, "pitch": 61, "duration": 10, "velocity": 81}, {"time": 4072, "pitch": 65, "duration": 4, "velocity": 69}, {"time": 4072, "pitch": 70, "duration": 4, "velocity": 66}, {"time": 4078, "pitch": 65, "duration": 10, "velocity": 99}, {"time": 4078, "pitch": 70, "duration": 10, "velocity": 102}, {"time": 4084, "pitch": 58, "duration": 7, "velocity": 92}, {"time": 4090, "pitch": 61, "duration": 12, "velocity": 107}, {"time": 4090, "pitch": 70, "duration": 1, "velocity": 45}, {"time": 4096, "pitch": 65, "duration": 6, "velocity": 71}, {"time": 4096, "pitch": 70, "duration": 7, "velocity": 97}, {"time": 4102, "pitch": 44, "duration": 35, "velocity": 102}, {"time": 4108, "pitch": 56, "duration": 22, "velocity": 82}, {"time": 4114, "pitch": 60, "duration": 11, "velocity": 70}, {"time": 4120, "pitch": 63, "duration": 5, "velocity": 74}, {"time": 4120, "pitch": 68, "duration": 4, "velocity": 81}, {"time": 4126, "pitch": 63, "duration": 13, "velocity": 107}, {"time": 4126, "pitch": 68, "duration": 24, "velocity": 107}, {"time": 4132, "pitch": 56, "duration": 3, "velocity": 100}, {"time": 4138, "pitch": 60, "duration": 12, "velocity": 96}, {"time": 4144, "pitch": 63, "duration": 6, "velocity": 122}, {"time": 4150, "pitch": 42, "duration": 34, "velocity": 89}, {"time": 4156, "pitch": 54, "duration": 22, "velocity": 74}, {"time": 4159, "pitch": 58, "duration": 9, "velocity": 64}, {"time": 4168, "pitch": 61, "duration": 3, "velocity": 75}, {"time": 4168, "pitch": 66, "duration": 4, "velocity": 69}, {"time": 4174, "pitch": 61, "duration": 10, "velocity": 100}, {"time": 4174, "pitch": 66, "duration": 10, "velocity": 89}, {"time": 4180, "pitch": 54, "duration": 4, "velocity": 75}, {"time": 4186, "pitch": 58, "duration": 8, "velocity": 92}, {"time": 4192, "pitch": 61, "duration": 5, "velocity": 82}, {"time": 4192, "pitch": 66, "duration": 5, "velocity": 72}, {"time": 4198, "pitch": 37, "duration": 38, "velocity": 95}, {"time": 4204, "pitch": 49, "duration": 22, "velocity": 81}, {"time": 4210, "pitch": 56, "duration": 11, "velocity": 61}, {"time": 4216, "pitch": 61, "duration": 5, "velocity": 69}, {"time": 4216, "pitch": 65, "duration": 4, "velocity": 58}, {"time": 4222, "pitch": 56, "duration": 7, "velocity": 83}, {"time": 4222, "pitch": 61, "duration": 9, "velocity": 72}, {"time": 4222, "pitch": 65, "duration": 14, "velocity": 72}, {"time": 4228, "pitch": 49, "duration": 11, "velocity": 92}, {"time": 4234, "pitch": 56, "duration": 11, "velocity": 97}, {"time": 4240, "pitch": 61, "duration": 5, "velocity": 52}, {"time": 4240, "pitch": 65, "duration": 5, "velocity": 42}, {"time": 4246, "pitch": 39, "duration": 34, "velocity": 97}, {"time": 4252, "pitch": 51, "duration": 21, "velocity": 79}, {"time": 4258, "pitch": 54, "duration": 9, "velocity": 61}, {"time": 4264, "pitch": 58, "duration": 4, "velocity": 85}, {"time": 4264, "pitch": 63, "duration": 4, "velocity": 89}, {"time": 4270, "pitch": 58, "duration": 12, "velocity": 112}, {"time": 4270, "pitch": 63, "duration": 13, "velocity": 99}, {"time": 4276, "pitch": 51, "duration": 7, "velocity": 88}, {"time": 4279, "pitch": 54, "duration": 8, "velocity": 95}, {"time": 4288, "pitch": 58, "duration": 5, "velocity": 82}, {"time": 4288, "pitch": 63, "duration": 6, "velocity": 88}, {"time": 4294, "pitch": 44, "duration": 50, "velocity": 97}, {"time": 4300, "pitch": 56, "duration": 20, "velocity": 92}, {"time": 4306, "pitch": 60, "duration": 10, "velocity": 78}, {"time": 4312, "pitch": 63, "duration": 4, "velocity": 85}, {"time": 4312, "pitch": 68, "duration": 4, "velocity": 96}, {"time": 4318, "pitch": 63, "duration": 12, "velocity": 127}, {"time": 4318, "pitch": 68, "duration": 12, "velocity": 107}, {"time": 4324, "pitch": 56, "duration": 19, "velocity": 100}, {"time": 4330, "pitch": 60, "duration": 14, "velocity": 99}, {"time": 4336, "pitch": 63, "duration": 7, "velocity": 79}, {"time": 4336, "pitch": 68, "duration": 8, "velocity": 100}, {"time": 4342, "pitch": 37, "duration": 37, "velocity": 99}, {"time": 4342, "pitch": 65, "duration": 4, "velocity": 96}, {"time": 4342, "pitch": 68, "duration": 2, "velocity": 100}, {"time": 4345, "pitch": 65, "duration": 1, "velocity": 28}, {"time": 4348, "pitch": 44, "duration": 32, "velocity": 34}, {"time": 4351, "pitch": 49, "duration": 14, "velocity": 54}, {"time": 4357, "pitch": 61, "duration": 5, "velocity": 73}, {"time": 4366, "pitch": 65, "duration": 13, "velocity": 99}, {"time": 4366, "pitch": 68, "duration": 14, "velocity": 102}, {"time": 4372, "pitch": 49, "duration": 15, "velocity": 86}, {"time": 4378, "pitch": 61, "duration": 15, "velocity": 97}, {"time": 4384, "pitch": 65, "duration": 19, "velocity": 71}, {"time": 4384, "pitch": 68, "duration": 19, "velocity": 100}, {"time": 4387, "pitch": 36, "duration": 29, "velocity": 63}, {"time": 4399, "pitch": 60, "duration": 9, "velocity": 69}, {"time": 4408, "pitch": 65, "duration": 4, "velocity": 63}, {"time": 4408, "pitch": 68, "duration": 4, "velocity": 63}, {"time": 4414, "pitch": 65, "duration": 15, "velocity": 117}, {"time": 4414, "pitch": 68, "duration": 14, "velocity": 117}, {"time": 4420, "pitch": 36, "duration": 3, "velocity": 73}, {"time": 4426, "pitch": 60, "duration": 12, "velocity": 99}, {"time": 4429, "pitch": 65, "duration": 6, "velocity": 70}, {"time": 4432, "pitch": 68, "duration": 7, "velocity": 97}, {"time": 4438, "pitch": 46, "duration": 39, "velocity": 112}, {"time": 4441, "pitch": 58, "duration": 22, "velocity": 85}, {"time": 4450, "pitch": 61, "duration": 10, "velocity": 81}, {"time": 4456, "pitch": 65, "duration": 4, "velocity": 69}, {"time": 4456, "pitch": 70, "duration": 4, "velocity": 66}, {"time": 4462, "pitch": 65, "duration": 10, "velocity": 99}, {"time": 4462, "pitch": 70, "duration": 10, "velocity": 102}, {"time": 4468, "pitch": 58, "duration": 7, "velocity": 92}, {"time": 4474, "pitch": 61, "duration": 12, "velocity": 107}, {"time": 4474, "pitch": 70, "duration": 1, "velocity": 45}, {"time": 4480, "pitch": 65, "duration": 6, "velocity": 71}, {"time": 4480, "pitch": 70, "duration": 7, "velocity": 97}, {"time": 4486, "pitch": 44, "duration": 35, "velocity": 102}, {"time": 4492, "pitch": 56, "duration": 22, "velocity": 82}, {"time": 4498, "pitch": 60, "duration": 11, "velocity": 70}, {"time": 4504, "pitch": 63, "duration": 5, "velocity": 74}, {"time": 4504, "pitch": 68, "duration": 4, "velocity": 81}, {"time": 4510, "pitch": 63, "duration": 13, "velocity": 107}, {"time": 4510, "pitch": 68, "duration": 24, "velocity": 107}, {"time": 4516, "pitch": 56, "duration": 3, "velocity": 100}, {"time": 4522, "pitch": 60, "duration": 12, "velocity": 96}, {"time": 4528, "pitch": 63, "duration": 6, "velocity": 122}, {"time": 4534, "pitch": 42, "duration": 34, "velocity": 89}, {"time": 4540, "pitch": 54, "duration": 22, "velocity": 74}, {"time": 4543, "pitch": 58, "duration": 9, "velocity": 64}, {"time": 4552, "pitch": 61, "duration": 3, "velocity": 75}, {"time": 4552, "pitch": 66, "duration": 4, "velocity": 69}, {"time": 4558, "pitch": 61, "duration": 10, "velocity": 100}, {"time": 4558, "pitch": 66, "duration": 10, "velocity": 89}, {"time": 4564, "pitch": 54, "duration": 4, "velocity": 75}, {"time": 4570, "pitch": 58, "duration": 8, "velocity": 92}, {"time": 4576, "pitch": 61, "duration": 5, "velocity": 82}, {"time": 4576, "pitch": 66, "duration": 5, "velocity": 72}, {"time": 4582, "pitch": 37, "duration": 38, "velocity": 95}, {"time": 4588, "pitch": 49, "duration": 22, "velocity": 81}, {"time": 4594, "pitch": 56, "duration": 11, "velocity": 61}, {"time": 4600, "pitch": 61, "duration": 5, "velocity": 69}, {"time": 4600, "pitch": 65, "duration": 4, "velocity": 58}, {"time": 4606, "pitch": 56, "duration": 7, "velocity": 83}, {"time": 4606, "pitch": 61, "duration": 9, "velocity": 72}, {"time": 4606, "pitch": 65, "duration": 14, "velocity": 72}, {"time": 4612, "pitch": 49, "duration": 11, "velocity": 92}, {"time": 4618, "pitch": 56, "duration": 11, "velocity": 97}, {"time": 4624, "pitch": 61, "duration": 5, "velocity": 52}, {"time": 4624, "pitch": 65, "duration": 5, "velocity": 42}, {"time": 4630, "pitch": 39, "duration": 34, "velocity": 97}, {"time": 4636, "pitch": 51, "duration": 21, "velocity": 79}, {"time": 4642, "pitch": 54, "duration": 9, "velocity": 61}, {"time": 4648, "pitch": 58, "duration": 4, "velocity": 85}, {"time": 4648, "pitch": 63, "duration": 4, "velocity": 89}, {"time": 4654, "pitch": 58, "duration": 12, "velocity": 112}, {"time": 4654, "pitch": 63, "duration": 13, "velocity": 99}, {"time": 4660, "pitch": 51, "duration": 7, "velocity": 88}, {"time": 4663, "pitch": 54, "duration": 8, "velocity": 95}, {"time": 4672, "pitch": 58, "duration": 5, "velocity": 82}, {"time": 4672, "pitch": 63, "duration": 6, "velocity": 88}, {"time": 4678, "pitch": 44, "duration": 50, "velocity": 97}, {"time": 4684, "pitch": 56, "duration": 20, "velocity": 92}, {"time": 4690, "pitch": 60, "duration": 10, "velocity": 78}, {"time": 4696, "pitch": 63, "duration": 4, "velocity": 85}, {"time": 4696, "pitch": 68, "duration": 4, "velocity": 96}, {"time": 4702, "pitch": 63, "duration": 12, "velocity": 127}, {"time": 4702, "pitch": 68, "duration": 12, "velocity": 107}, {"time": 4708, "pitch": 56, "duration": 19, "velocity": 100}, {"time": 4714, "pitch": 60, "duration": 14, "velocity": 99}, {"time": 4720, "pitch": 63, "duration": 7, "velocity": 79}, {"time": 4720, "pitch": 68, "duration": 8, "velocity": 100}, {"time": 4726, "pitch": 42, "duration": 22, "velocity": 89}, {"time": 4732, "pitch": 49, "duration": 17, "velocity": 89}, {"time": 4732, "pitch": 65, "duration": 3, "velocity": 89}, {"time": 4738, "pitch": 58, "duration": 6, "velocity": 89}, {"time": 4738, "pitch": 70, "duration": 4, "velocity": 89}, {"time": 4744, "pitch": 54, "duration": 6, "velocity": 89}, {"time": 4744, "pitch": 65, "duration": 3, "velocity": 89}, {"time": 4750, "pitch": 44, "duration": 16, "velocity": 89}, {"time": 4756, "pitch": 51, "duration": 11, "velocity": 89}, {"time": 4756, "pitch": 63, "duration": 3, "velocity": 89}, {"time": 4762, "pitch": 60, "duration": 6, "velocity": 89}, {"time": 4762, "pitch": 68, "duration": 3, "velocity": 89}, {"time": 4768, "pitch": 54, "duration": 6, "velocity": 89}, {"time": 4768, "pitch": 63, "duration": 4, "velocity": 89}, {"time": 4774, "pitch": 46, "duration": 43, "velocity": 89}, {"time": 4780, "pitch": 53, "duration": 21, "velocity": 89}, {"time": 4780, "pitch": 65, "duration": 3, "velocity": 89}, {"time": 4786, "pitch": 61, "duration": 7, "velocity": 89}, {"time": 4786, "pitch": 73, "duration": 3, "velocity": 89}, {"time": 4792, "pitch": 58, "duration": 14, "velocity": 89}, {"time": 4792, "pitch": 65, "duration": 3, "velocity": 89}, {"time": 4798, "pitch": 72, "duration": 5, "velocity": 89}, {"time": 4804, "pitch": 65, "duration": 5, "velocity": 89}, {"time": 4810, "pitch": 53, "duration": 7, "velocity": 89}, {"time": 4810, "pitch": 70, "duration": 5, "velocity": 89}, {"time": 4816, "pitch": 61, "duration": 7, "velocity": 89}, {"time": 4816, "pitch": 68, "duration": 5, "velocity": 89}, {"time": 4822, "pitch": 42, "duration": 20, "velocity": 89}, {"time": 4828, "pitch": 49, "duration": 17, "velocity": 89}, {"time": 4828, "pitch": 65, "duration": 4, "velocity": 89}, {"time": 4834, "pitch": 58, "duration": 7, "velocity": 89}, {"time": 4834, "pitch": 70, "duration": 7, "velocity": 89}, {"time": 4840, "pitch": 54, "duration": 7, "velocity": 89}, {"time": 4840, "pitch": 65, "duration": 3, "velocity": 89}, {"time": 4846, "pitch": 44, "duration": 20, "velocity": 89}, {"time": 4852, "pitch": 51, "duration": 15, "velocity": 89}, {"time": 4852, "pitch": 63, "duration": 3, "velocity": 89}, {"time": 4858, "pitch": 60, "duration": 6, "velocity": 89}, {"time": 4858, "pitch": 68, "duration": 4, "velocity": 89}, {"time": 4864, "pitch": 56, "duration": 7, "velocity": 89}, {"time": 4864, "pitch": 63, "duration": 3, "velocity": 89}, {"time": 4870, "pitch": 46, "duration": 43, "velocity": 89}, {"time": 4876, "pitch": 53, "duration": 13, "velocity": 89}, {"time": 4876, "pitch": 65, "duration": 4, "velocity": 89}, {"time": 4882, "pitch": 61, "duration": 6, "velocity": 89}, {"time": 4882, "pitch": 72, "duration": 2, "velocity": 89}, {"time": 4888, "pitch": 58, "duration": 13, "velocity": 89}, {"time": 4888, "pitch": 73, "duration": 3, "velocity": 89}, {"time": 4894, "pitch": 53, "duration": 19, "velocity": 90}, {"time": 4894, "pitch": 72, "duration": 3, "velocity": 90}, {"time": 4900, "pitch": 61, "duration": 13, "velocity": 90}, {"time": 4900, "pitch": 70, "duration": 3, "velocity": 90}, {"time": 4906, "pitch": 68, "duration": 3, "velocity": 90}, {"time": 4912, "pitch": 58, "duration": 7, "velocity": 90}, {"time": 4912, "pitch": 70, "duration": 7, "velocity": 90}, {"time": 4918, "pitch": 42, "duration": 20, "velocity": 90}, {"time": 4924, "pitch": 49, "duration": 14, "velocity": 90}, {"time": 4924, "pitch": 65, "duration": 3, "velocity": 90}, {"time": 4930, "pitch": 58, "duration": 7, "velocity": 90}, {"time": 4930, "pitch": 70, "duration": 4, "velocity": 90}, {"time": 4936, "pitch": 54, "duration": 7, "velocity": 90}, {"time": 4936, "pitch": 65, "duration": 3, "velocity": 90}, {"time": 4942, "pitch": 44, "duration": 19, "velocity": 90}, {"time": 4948, "pitch": 51, "duration": 15, "velocity": 90}, {"time": 4948, "pitch": 63, "duration": 3, "velocity": 90}, {"time": 4954, "pitch": 60, "duration": 6, "velocity": 90}, {"time": 4954, "pitch": 68, "duration": 5, "velocity": 90}, {"time": 4960, "pitch": 56, "duration": 7, "velocity": 90}, {"time": 4960, "pitch": 63, "duration": 2, "velocity": 90}, {"time": 4966, "pitch": 46, "duration": 42, "velocity": 90}, {"time": 4972, "pitch": 53, "duration": 15, "velocity": 90}, {"time": 4972, "pitch": 63, "duration": 4, "velocity": 90}, {"time": 4978, "pitch": 61, "duration": 6, "velocity": 90}, {"time": 4978, "pitch": 70, "duration": 2, "velocity": 90}, {"time": 4984, "pitch": 58, "duration": 17, "velocity": 90}, {"time": 4984, "pitch": 73, "duration": 2, "velocity": 90}, {"time": 4990, "pitch": 72, "duration": 3, "velocity": 90}, {"time": 4996, "pitch": 53, "duration": 11, "velocity": 90}, {"time": 4996, "pitch": 70, "duration": 3, "velocity": 90}, {"time": 5002, "pitch": 61, "duration": 5, "velocity": 90}, {"time": 5002, "pitch": 68, "duration": 3, "velocity": 90}, {"time": 5008, "pitch": 58, "duration": 5, "velocity": 90}, {"time": 5008, "pitch": 65, "duration": 3, "velocity": 90}, {"time": 5014, "pitch": 42, "duration": 20, "velocity": 90}, {"time": 5020, "pitch": 49, "duration": 16, "velocity": 90}, {"time": 5020, "pitch": 65, "duration": 3, "velocity": 90}, {"time": 5026, "pitch": 58, "duration": 7, "velocity": 91}, {"time": 5026, "pitch": 70, "duration": 5, "velocity": 91}, {"time": 5032, "pitch": 54, "duration": 7, "velocity": 91}, {"time": 5032, "pitch": 65, "duration": 3, "velocity": 91}, {"time": 5038, "pitch": 44, "duration": 20, "velocity": 91}, {"time": 5044, "pitch": 51, "duration": 14, "velocity": 91}, {"time": 5044, "pitch": 63, "duration": 3, "velocity": 91}, {"time": 5050, "pitch": 60, "duration": 6, "velocity": 91}, {"time": 5050, "pitch": 68, "duration": 4, "velocity": 91}, {"time": 5056, "pitch": 56, "duration": 6, "velocity": 91}, {"time": 5056, "pitch": 63, "duration": 3, "velocity": 91}, {"time": 5062, "pitch": 49, "duration": 42, "velocity": 91}, {"time": 5068, "pitch": 56, "duration": 42, "velocity": 91}, {"time": 5068, "pitch": 63, "duration": 3, "velocity": 91}, {"time": 5074, "pitch": 66, "duration": 4, "velocity": 91}, {"time": 5074, "pitch": 70, "duration": 3, "velocity": 91}, {"time": 5080, "pitch": 65, "duration": 6, "velocity": 91}, {"time": 5080, "pitch": 68, "duration": 7, "velocity": 91}, {"time": 5092, "pitch": 63, "duration": 11, "velocity": 65}, {"time": 5092, "pitch": 66, "duration": 12, "velocity": 87}, {"time": 5104, "pitch": 65, "duration": 18, "velocity": 83}, {"time": 5110, "pitch": 49, "duration": 43, "velocity": 90}, {"time": 5116, "pitch": 56, "duration": 42, "velocity": 63}, {"time": 5122, "pitch": 61, "duration": 12, "velocity": 52}, {"time": 5128, "pitch": 65, "duration": 20, "velocity": 69}, {"time": 5140, "pitch": 61, "duration": 8, "velocity": 59}, {"time": 5146, "pitch": 68, "duration": 12, "velocity": 73}, {"time": 5152, "pitch": 65, "duration": 5, "velocity": 52}, {"time": 5155, "pitch": 68, "duration": 3, "velocity": 71}, {"time": 5158, "pitch": 73, "duration": 44, "velocity": 57}], "annotations": [{"time": 12, "annotation": {"number": 64, "value": 55}, "group": "control_change"}, {"time": 48, "annotation": {"number": 64, "value": 58}, "group": "control_change"}, {"time": 84, "annotation": {"number": 64, "value": 59}, "group": "control_change"}, {"time": 96, "annotation": {"number": 64, "value": 60}, "group": "control_change"}, {"time": 120, "annotation": {"number": 64, "value": 62}, "group": "control_change"}, {"time": 168, "annotation": {"number": 64, "value": 60}, "group": "control_change"}, {"time": 192, "annotation": {"number": 64, "value": 60}, "group": "control_change"}, {"time": 228, "annotation": {"number": 64, "value": 59}, "group": "control_change"}, {"time": 240, "annotation": {"number": 64, "value": 58}, "group": "control_change"}, {"time": 276, "annotation": {"number": 64, "value": 57}, "group": "control_change"}, {"time": 432, "annotation": {"number": 64, "value": 58}, "group": "control_change"}, {"time": 540, "annotation": {"number": 64, "value": 59}, "group": "control_change"}, {"time": 804, "annotation": {"number": 64, "value": 60}, "group": "control_change"}, {"time": 828, "annotation": {"number": 64, "value": 62}, "group": "control_change"}, {"time": 864, "annotation": {"number": 64, "value": 63}, "group": "control_change"}, {"time": 876, "annotation": {"number": 64, "value": 64}, "group": "control_change"}, {"time": 888, "annotation": {"number": 64, "value": 65}, "group": "control_change"}, {"time": 936, "annotation": {"number": 64, "value": 64}, "group": "control_change"}, {"time": 1221, "annotation": {"number": 64, "value": 127}, "group": "control_change"}, {"time": 1267, "annotation": {"number": 64, "value": 0}, "group": "control_change"}, {"time": 1269, "annotation": {"number": 64, "value": 127}, "group": "control_change"}, {"time": 1315, "annotation": {"number": 64, "value": 0}, "group": "control_change"}, {"time": 1317, "annotation": {"number": 64, "value": 127}, "group": "control_change"}, {"time": 1363, "annotation": {"number": 64, "value": 0}, "group": "control_change"}, {"time": 1366, "annotation": {"number": 64, "value": 127}, "group": "control_change"}, {"time": 1411, "annotation": {"number": 64, "value": 0}, "group": "control_change"}, {"time": 1413, "annotation": {"number": 64, "value": 127}, "group": "control_change"}, {"time": 1415, "annotation": {"number": 64, "value": 127}, "group": "control_change"}, {"time": 1458, "annotation": {"number": 64, "value": 0}, "group": "control_change"}, {"time": 1462, "annotation": {"number": 64, "value": 127}, "group": "control_change"}, {"time": 1505, "annotation": {"number": 64, "value": 0}, "group": "control_change"}, {"time": 1510, "annotation": {"number": 64, "value": 127}, "group": "control_change"}, {"time": 1554, "annotation": {"number": 64, "value": 0}, "group": "control_change"}, {"time": 1558, "annotation": {"number": 64, "value": 127}, "group": "control_change"}, {"time": 1602, "annotation": {"number": 64, "value": 0}, "group": "control_change"}, {"time": 1651, "annotation": {"number": 64, "value": 0}, "group": "control_change"}, {"time": 1653, "annotation": {"number": 64, "value": 127}, "group": "control_change"}, {"time": 1699, "annotation": {"number": 64, "value": 0}, "group": "control_change"}, {"time": 1701, "annotation": {"number": 64, "value": 127}, "group": "control_change"}, {"time": 1747, "annotation": {"number": 64, "value": 0}, "group": "control_change"}, {"time": 1750, "annotation": {"number": 64, "value": 127}, "group": "control_change"}, {"time": 1795, "annotation": {"number": 64, "value": 0}, "group": "control_change"}, {"time": 1797, "annotation": {"number": 64, "value": 127}, "group": "control_change"}, {"time": 1799, "annotation": {"number": 64, "value": 127}, "group": "control_change"}, {"time": 1842, "annotation": {"number": 64, "value": 0}, "group": "control_change"}, {"time": 1846, "annotation": {"number": 64, "value": 127}, "group": "control_change"}, {"time": 1889, "annotation": {"number": 64, "value": 0}, "group": "control_change"}, {"time": 1894, "annotation": {"number": 64, "value": 127}, "group": "control_change"}, {"time": 1938, "annotation": {"number": 64, "value": 0}, "group": "control_change"}, {"time": 1942, "annotation": {"number": 64, "value": 127}, "group": "control_change"}, {"time": 1986, "annotation": {"number": 64, "value": 0}, "group": "control_change"}, {"time": 2803, "annotation": {"number": 64, "value": 0}, "group": "control_change"}, {"time": 2805, "annotation": {"number": 64, "value": 127}, "group": "control_change"}, {"time": 2851, "annotation": {"number": 64, "value": 0}, "group": "control_change"}, {"time": 2853, "annotation": {"number": 64, "value": 127}, "group": "control_change"}, {"time": 2899, "annotation": {"number": 64, "value": 0}, "group": "control_change"}, {"time": 2902, "annotation": {"number": 64, "value": 127}, "group": "control_change"}, {"time": 2947, "annotation": {"number": 64, "value": 0}, "group": "control_change"}, {"time": 2949, "annotation": {"number": 64, "value": 127}, "group": "control_change"}, {"time": 2951, "annotation": {"number": 64, "value": 127}, "group": "control_change"}, {"time": 2994, "annotation": {"number": 64, "value": 0}, "group": "control_change"}, {"time": 2998, "annotation": {"number": 64, "value": 127}, "group": "control_change"}, {"time": 3041, "annotation": {"number": 64, "value": 0}, "group": "control_change"}, {"time": 3046, "annotation": {"number": 64, "value": 127}, "group": "control_change"}, {"time": 3090, "annotation": {"number": 64, "value": 0}, "group": "control_change"}, {"time": 3094, "annotation": {"number": 64, "value": 127}, "group": "control_change"}, {"time": 3138, "annotation": {"number": 64, "value": 0}, "group": "control_change"}, {"time": 3187, "annotation": {"number": 64, "value": 0}, "group": "control_change"}, {"time": 3189, "annotation": {"number": 64, "value": 127}, "group": "control_change"}, {"time": 3235, "annotation": {"number": 64, "value": 0}, "group": "control_change"}, {"time": 3237, "annotation": {"number": 64, "value": 127}, "group": "control_change"}, {"time": 3283, "annotation": {"number": 64, "value": 0}, "group": "control_change"}, {"time": 3286, "annotation": {"number": 64, "value": 127}, "group": "control_change"}, {"time": 3331, "annotation": {"number": 64, "value": 0}, "group": "control_change"}, {"time": 3333, "annotation": {"number": 64, "value": 127}, "group": "control_change"}, {"time": 3335, "annotation": {"number": 64, "value": 127}, "group": "control_change"}, {"time": 3378, "annotation": {"number": 64, "value": 0}, "group": "control_change"}, {"time": 3382, "annotation": {"number": 64, "value": 127}, "group": "control_change"}, {"time": 3425, "annotation": {"number": 64, "value": 0}, "group": "control_change"}, {"time": 3430, "annotation": {"number": 64, "value": 127}, "group": "control_change"}, {"time": 3474, "annotation": {"number": 64, "value": 0}, "group": "control_change"}, {"time": 3478, "annotation": {"number": 64, "value": 127}, "group": "control_change"}, {"time": 3522, "annotation": {"number": 64, "value": 0}, "group": "control_change"}, {"time": 4003, "annotation": {"number": 64, "value": 0}, "group": "control_change"}, {"time": 4005, "annotation": {"number": 64, "value": 127}, "group": "control_change"}, {"time": 4051, "annotation": {"number": 64, "value": 0}, "group": "control_change"}, {"time": 4053, "annotation": {"number": 64, "value": 127}, "group": "control_change"}, {"time": 4099, "annotation": {"number": 64, "value": 0}, "group": "control_change"}, {"time": 4102, "annotation": {"number": 64, "value": 127}, "group": "control_change"}, {"time": 4147, "annotation": {"number": 64, "value": 0}, "group": "control_change"}, {"time": 4149, "annotation": {"number": 64, "value": 127}, "group": "control_change"}, {"time": 4151, "annotation": {"number": 64, "value": 127}, "group": "control_change"}, {"time": 4194, "annotation": {"number": 64, "value": 0}, "group": "control_change"}, {"time": 4198, "annotation": {"number": 64, "value": 127}, "group": "control_change"}, {"time": 4241, "annotation": {"number": 64, "value": 0}, "group": "control_change"}, {"time": 4246, "annotation": {"number": 64, "value": 127}, "group": "control_change"}, {"time": 4290, "annotation": {"number": 64, "value": 0}, "group": "control_change"}, {"time": 4294, "annotation": {"number": 64, "value": 127}, "group": "control_change"}, {"time": 4338, "annotation": {"number": 64, "value": 0}, "group": "control_change"}, {"time": 4387, "annotation": {"number": 64, "value": 0}, "group": "control_change"}, {"time": 4389, "annotation": {"number": 64, "value": 127}, "group": "control_change"}, {"time": 4435, "annotation": {"number": 64, "value": 0}, "group": "control_change"}, {"time": 4437, "annotation": {"number": 64, "value": 127}, "group": "control_change"}, {"time": 4483, "annotation": {"number": 64, "value": 0}, "group": "control_change"}, {"time": 4486, "annotation": {"number": 64, "value": 127}, "group": "control_change"}, {"time": 4531, "annotation": {"number": 64, "value": 0}, "group": "control_change"}, {"time": 4533, "annotation": {"number": 64, "value": 127}, "group": "control_change"}, {"time": 4535, "annotation": {"number": 64, "value": 127}, "group": "control_change"}, {"time": 4578, "annotation": {"number": 64, "value": 0}, "group": "control_change"}, {"time": 4582, "annotation": {"number": 64, "value": 127}, "group": "control_change"}, {"time": 4625, "annotation": {"number": 64, "value": 0}, "group": "control_change"}, {"time": 4630, "annotation": {"number": 64, "value": 127}, "group": "control_change"}, {"time": 4674, "annotation": {"number": 64, "value": 0}, "group": "control_change"}, {"time": 4678, "annotation": {"number": 64, "value": 127}, "group": "control_change"}, {"time": 4722, "annotation": {"number": 64, "value": 0}, "group": "control_change"}]}]}