{"metadata": {"schema_version": "0.2", "title": "None", "source_filename": "067.mid", "source_format": "midi"}, "resolution": 12, "tempos": [{"time": 0, "qpm": 67.00010385016097}], "time_signatures": [{"time": 0, "numerator": 1, "denominator": 4}], "tracks": [{"program": 0, "is_drum": false, "name": "MELODY", "notes": [{"time": 243, "pitch": 63, "duration": 6, "velocity": 79}, {"time": 249, "pitch": 63, "duration": 6, "velocity": 77}, {"time": 255, "pitch": 63, "duration": 6, "velocity": 74}, {"time": 261, "pitch": 63, "duration": 7, "velocity": 75}, {"time": 267, "pitch": 66, "duration": 6, "velocity": 67}, {"time": 273, "pitch": 66, "duration": 6, "velocity": 77}, {"time": 279, "pitch": 59, "duration": 6, "velocity": 74}, {"time": 285, "pitch": 63, "duration": 3, "velocity": 77}, {"time": 288, "pitch": 61, "duration": 9, "velocity": 69}, {"time": 297, "pitch": 61, "duration": 5, "velocity": 85}, {"time": 300, "pitch": 59, "duration": 6, "velocity": 68}, {"time": 306, "pitch": 61, "duration": 33, "velocity": 74}, {"time": 339, "pitch": 63, "duration": 6, "velocity": 90}, {"time": 345, "pitch": 63, "duration": 6, "velocity": 83}, {"time": 351, "pitch": 63, "duration": 6, "velocity": 81}, {"time": 357, "pitch": 63, "duration": 6, "velocity": 100}, {"time": 363, "pitch": 66, "duration": 6, "velocity": 67}, {"time": 369, "pitch": 66, "duration": 6, "velocity": 81}, {"time": 375, "pitch": 59, "duration": 6, "velocity": 70}, {"time": 381, "pitch": 63, "duration": 4, "velocity": 74}, {"time": 384, "pitch": 61, "duration": 9, "velocity": 65}, {"time": 393, "pitch": 61, "duration": 4, "velocity": 67}, {"time": 396, "pitch": 59, "duration": 9, "velocity": 65}, {"time": 405, "pitch": 61, "duration": 16, "velocity": 66}, {"time": 417, "pitch": 59, "duration": 7, "velocity": 73}, {"time": 423, "pitch": 61, "duration": 7, "velocity": 65}, {"time": 429, "pitch": 63, "duration": 6, "velocity": 100}, {"time": 435, "pitch": 68, "duration": 6, "velocity": 73}, {"time": 441, "pitch": 68, "duration": 6, "velocity": 73}, {"time": 447, "pitch": 71, "duration": 6, "velocity": 93}, {"time": 453, "pitch": 70, "duration": 15, "velocity": 93}, {"time": 468, "pitch": 68, "duration": 6, "velocity": 76}, {"time": 474, "pitch": 66, "duration": 3, "velocity": 68}, {"time": 477, "pitch": 68, "duration": 6, "velocity": 86}, {"time": 480, "pitch": 66, "duration": 9, "velocity": 64}, {"time": 489, "pitch": 66, "duration": 4, "velocity": 85}, {"time": 492, "pitch": 64, "duration": 6, "velocity": 73}, {"time": 498, "pitch": 66, "duration": 16, "velocity": 76}, {"time": 514, "pitch": 63, "duration": 4, "velocity": 87}, {"time": 518, "pitch": 61, "duration": 4, "velocity": 64}, {"time": 522, "pitch": 59, "duration": 3, "velocity": 67}, {"time": 525, "pitch": 61, "duration": 36, "velocity": 75}, {"time": 561, "pitch": 63, "duration": 3, "velocity": 74}, {"time": 564, "pitch": 66, "duration": 9, "velocity": 83}, {"time": 573, "pitch": 61, "duration": 54, "velocity": 81}, {"time": 627, "pitch": 63, "duration": 6, "velocity": 79}, {"time": 633, "pitch": 63, "duration": 6, "velocity": 77}, {"time": 639, "pitch": 63, "duration": 6, "velocity": 74}, {"time": 645, "pitch": 63, "duration": 7, "velocity": 75}, {"time": 651, "pitch": 66, "duration": 6, "velocity": 67}, {"time": 657, "pitch": 66, "duration": 6, "velocity": 77}, {"time": 663, "pitch": 59, "duration": 6, "velocity": 74}, {"time": 669, "pitch": 63, "duration": 3, "velocity": 77}, {"time": 672, "pitch": 61, "duration": 9, "velocity": 69}, {"time": 681, "pitch": 61, "duration": 5, "velocity": 85}, {"time": 684, "pitch": 59, "duration": 6, "velocity": 68}, {"time": 690, "pitch": 61, "duration": 33, "velocity": 74}, {"time": 723, "pitch": 63, "duration": 6, "velocity": 90}, {"time": 729, "pitch": 63, "duration": 6, "velocity": 83}, {"time": 735, "pitch": 63, "duration": 6, "velocity": 81}, {"time": 741, "pitch": 63, "duration": 6, "velocity": 100}, {"time": 747, "pitch": 66, "duration": 6, "velocity": 67}, {"time": 753, "pitch": 66, "duration": 6, "velocity": 81}, {"time": 759, "pitch": 59, "duration": 6, "velocity": 70}, {"time": 765, "pitch": 63, "duration": 4, "velocity": 74}, {"time": 768, "pitch": 61, "duration": 9, "velocity": 65}, {"time": 777, "pitch": 61, "duration": 4, "velocity": 67}, {"time": 780, "pitch": 59, "duration": 9, "velocity": 65}, {"time": 789, "pitch": 61, "duration": 16, "velocity": 66}, {"time": 801, "pitch": 59, "duration": 7, "velocity": 73}, {"time": 807, "pitch": 61, "duration": 7, "velocity": 65}, {"time": 813, "pitch": 63, "duration": 6, "velocity": 100}, {"time": 819, "pitch": 68, "duration": 6, "velocity": 73}, {"time": 825, "pitch": 68, "duration": 6, "velocity": 73}, {"time": 831, "pitch": 71, "duration": 6, "velocity": 93}, {"time": 837, "pitch": 70, "duration": 15, "velocity": 93}, {"time": 852, "pitch": 68, "duration": 6, "velocity": 76}, {"time": 858, "pitch": 66, "duration": 3, "velocity": 68}, {"time": 861, "pitch": 68, "duration": 6, "velocity": 86}, {"time": 864, "pitch": 66, "duration": 9, "velocity": 64}, {"time": 873, "pitch": 66, "duration": 4, "velocity": 85}, {"time": 876, "pitch": 64, "duration": 6, "velocity": 73}, {"time": 882, "pitch": 66, "duration": 16, "velocity": 76}, {"time": 898, "pitch": 63, "duration": 4, "velocity": 87}, {"time": 902, "pitch": 61, "duration": 4, "velocity": 64}, {"time": 906, "pitch": 59, "duration": 3, "velocity": 67}, {"time": 909, "pitch": 61, "duration": 33, "velocity": 75}, {"time": 939, "pitch": 59, "duration": 7, "velocity": 64}, {"time": 945, "pitch": 63, "duration": 6, "velocity": 68}, {"time": 951, "pitch": 66, "duration": 6, "velocity": 79}, {"time": 957, "pitch": 66, "duration": 13, "velocity": 112}, {"time": 969, "pitch": 68, "duration": 12, "velocity": 75}, {"time": 981, "pitch": 70, "duration": 15, "velocity": 95}, {"time": 993, "pitch": 71, "duration": 3, "velocity": 100}, {"time": 996, "pitch": 75, "duration": 9, "velocity": 100}, {"time": 1005, "pitch": 75, "duration": 3, "velocity": 90}, {"time": 1008, "pitch": 76, "duration": 9, "velocity": 100}, {"time": 1017, "pitch": 76, "duration": 6, "velocity": 111}, {"time": 1023, "pitch": 75, "duration": 3, "velocity": 71}, {"time": 1026, "pitch": 76, "duration": 9, "velocity": 108}, {"time": 1035, "pitch": 76, "duration": 6, "velocity": 98}, {"time": 1041, "pitch": 75, "duration": 6, "velocity": 87}, {"time": 1047, "pitch": 73, "duration": 6, "velocity": 83}, {"time": 1053, "pitch": 73, "duration": 3, "velocity": 85}, {"time": 1056, "pitch": 75, "duration": 9, "velocity": 83}, {"time": 1065, "pitch": 75, "duration": 6, "velocity": 86}, {"time": 1071, "pitch": 73, "duration": 3, "velocity": 76}, {"time": 1074, "pitch": 75, "duration": 7, "velocity": 86}, {"time": 1080, "pitch": 75, "duration": 1, "velocity": 60}, {"time": 1086, "pitch": 73, "duration": 6, "velocity": 95}, {"time": 1092, "pitch": 71, "duration": 18, "velocity": 74}, {"time": 1110, "pitch": 71, "duration": 3, "velocity": 77}, {"time": 1113, "pitch": 71, "duration": 4, "velocity": 83}, {"time": 1116, "pitch": 68, "duration": 6, "velocity": 71}, {"time": 1122, "pitch": 68, "duration": 9, "velocity": 74}, {"time": 1131, "pitch": 71, "duration": 6, "velocity": 87}, {"time": 1137, "pitch": 71, "duration": 6, "velocity": 98}, {"time": 1143, "pitch": 70, "duration": 12, "velocity": 95}, {"time": 1155, "pitch": 66, "duration": 30, "velocity": 86}, {"time": 1185, "pitch": 71, "duration": 4, "velocity": 85}, {"time": 1188, "pitch": 75, "duration": 9, "velocity": 86}, {"time": 1197, "pitch": 75, "duration": 3, "velocity": 85}, {"time": 1200, "pitch": 76, "duration": 9, "velocity": 81}, {"time": 1209, "pitch": 76, "duration": 6, "velocity": 111}, {"time": 1215, "pitch": 75, "duration": 3, "velocity": 79}, {"time": 1218, "pitch": 76, "duration": 9, "velocity": 95}, {"time": 1227, "pitch": 76, "duration": 6, "velocity": 98}, {"time": 1233, "pitch": 75, "duration": 6, "velocity": 81}, {"time": 1239, "pitch": 73, "duration": 6, "velocity": 86}, {"time": 1245, "pitch": 73, "duration": 3, "velocity": 90}, {"time": 1248, "pitch": 75, "duration": 9, "velocity": 98}, {"time": 1257, "pitch": 75, "duration": 6, "velocity": 98}, {"time": 1263, "pitch": 73, "duration": 3, "velocity": 83}, {"time": 1266, "pitch": 75, "duration": 6, "velocity": 98}, {"time": 1272, "pitch": 75, "duration": 6, "velocity": 108}, {"time": 1278, "pitch": 73, "duration": 6, "velocity": 79}, {"time": 1284, "pitch": 71, "duration": 18, "velocity": 93}, {"time": 1302, "pitch": 75, "duration": 6, "velocity": 76}, {"time": 1308, "pitch": 73, "duration": 6, "velocity": 90}, {"time": 1314, "pitch": 73, "duration": 9, "velocity": 93}, {"time": 1323, "pitch": 71, "duration": 6, "velocity": 76}, {"time": 1329, "pitch": 73, "duration": 4, "velocity": 100}, {"time": 1332, "pitch": 71, "duration": 9, "velocity": 93}, {"time": 1341, "pitch": 68, "duration": 30, "velocity": 93}, {"time": 1491, "pitch": 63, "duration": 6, "velocity": 79}, {"time": 1497, "pitch": 63, "duration": 6, "velocity": 77}, {"time": 1503, "pitch": 63, "duration": 6, "velocity": 74}, {"time": 1509, "pitch": 63, "duration": 7, "velocity": 75}, {"time": 1515, "pitch": 66, "duration": 6, "velocity": 67}, {"time": 1521, "pitch": 66, "duration": 6, "velocity": 77}, {"time": 1527, "pitch": 59, "duration": 6, "velocity": 74}, {"time": 1533, "pitch": 63, "duration": 3, "velocity": 77}, {"time": 1536, "pitch": 61, "duration": 9, "velocity": 69}, {"time": 1545, "pitch": 61, "duration": 5, "velocity": 85}, {"time": 1548, "pitch": 59, "duration": 6, "velocity": 68}, {"time": 1554, "pitch": 61, "duration": 33, "velocity": 74}, {"time": 1587, "pitch": 63, "duration": 6, "velocity": 90}, {"time": 1593, "pitch": 63, "duration": 6, "velocity": 83}, {"time": 1599, "pitch": 63, "duration": 6, "velocity": 81}, {"time": 1605, "pitch": 63, "duration": 6, "velocity": 100}, {"time": 1611, "pitch": 66, "duration": 6, "velocity": 67}, {"time": 1617, "pitch": 66, "duration": 6, "velocity": 81}, {"time": 1623, "pitch": 59, "duration": 6, "velocity": 70}, {"time": 1629, "pitch": 63, "duration": 4, "velocity": 74}, {"time": 1632, "pitch": 61, "duration": 9, "velocity": 65}, {"time": 1641, "pitch": 61, "duration": 4, "velocity": 67}, {"time": 1644, "pitch": 59, "duration": 9, "velocity": 65}, {"time": 1653, "pitch": 61, "duration": 16, "velocity": 66}, {"time": 1665, "pitch": 59, "duration": 7, "velocity": 73}, {"time": 1671, "pitch": 61, "duration": 7, "velocity": 65}, {"time": 1677, "pitch": 63, "duration": 6, "velocity": 100}, {"time": 1683, "pitch": 68, "duration": 6, "velocity": 73}, {"time": 1689, "pitch": 68, "duration": 6, "velocity": 73}, {"time": 1695, "pitch": 71, "duration": 6, "velocity": 93}, {"time": 1701, "pitch": 70, "duration": 15, "velocity": 93}, {"time": 1716, "pitch": 68, "duration": 6, "velocity": 76}, {"time": 1722, "pitch": 66, "duration": 3, "velocity": 68}, {"time": 1725, "pitch": 68, "duration": 6, "velocity": 86}, {"time": 1728, "pitch": 66, "duration": 9, "velocity": 64}, {"time": 1737, "pitch": 66, "duration": 4, "velocity": 85}, {"time": 1740, "pitch": 64, "duration": 6, "velocity": 73}, {"time": 1746, "pitch": 66, "duration": 16, "velocity": 76}, {"time": 1762, "pitch": 63, "duration": 4, "velocity": 87}, {"time": 1766, "pitch": 61, "duration": 4, "velocity": 64}, {"time": 1770, "pitch": 59, "duration": 3, "velocity": 67}, {"time": 1773, "pitch": 61, "duration": 33, "velocity": 75}, {"time": 1803, "pitch": 59, "duration": 7, "velocity": 64}, {"time": 1809, "pitch": 63, "duration": 6, "velocity": 68}, {"time": 1815, "pitch": 66, "duration": 6, "velocity": 79}, {"time": 1821, "pitch": 66, "duration": 13, "velocity": 112}, {"time": 1833, "pitch": 68, "duration": 12, "velocity": 75}, {"time": 1845, "pitch": 70, "duration": 15, "velocity": 95}, {"time": 1857, "pitch": 71, "duration": 3, "velocity": 100}, {"time": 1860, "pitch": 75, "duration": 9, "velocity": 100}, {"time": 1869, "pitch": 75, "duration": 3, "velocity": 90}, {"time": 1872, "pitch": 76, "duration": 9, "velocity": 100}, {"time": 1881, "pitch": 76, "duration": 6, "velocity": 111}, {"time": 1887, "pitch": 75, "duration": 3, "velocity": 71}, {"time": 1890, "pitch": 76, "duration": 9, "velocity": 108}, {"time": 1899, "pitch": 76, "duration": 6, "velocity": 98}, {"time": 1905, "pitch": 75, "duration": 6, "velocity": 87}, {"time": 1911, "pitch": 73, "duration": 6, "velocity": 83}, {"time": 1917, "pitch": 73, "duration": 3, "velocity": 85}, {"time": 1920, "pitch": 75, "duration": 9, "velocity": 83}, {"time": 1929, "pitch": 75, "duration": 6, "velocity": 86}, {"time": 1935, "pitch": 73, "duration": 3, "velocity": 76}, {"time": 1938, "pitch": 75, "duration": 7, "velocity": 86}, {"time": 1944, "pitch": 75, "duration": 1, "velocity": 60}, {"time": 1950, "pitch": 73, "duration": 6, "velocity": 95}, {"time": 1956, "pitch": 71, "duration": 18, "velocity": 74}, {"time": 1974, "pitch": 71, "duration": 3, "velocity": 77}, {"time": 1977, "pitch": 71, "duration": 4, "velocity": 83}, {"time": 1980, "pitch": 68, "duration": 6, "velocity": 71}, {"time": 1986, "pitch": 68, "duration": 9, "velocity": 74}, {"time": 1995, "pitch": 71, "duration": 6, "velocity": 87}, {"time": 2001, "pitch": 71, "duration": 6, "velocity": 98}, {"time": 2007, "pitch": 70, "duration": 12, "velocity": 95}, {"time": 2019, "pitch": 66, "duration": 30, "velocity": 86}, {"time": 2049, "pitch": 71, "duration": 4, "velocity": 85}, {"time": 2052, "pitch": 75, "duration": 9, "velocity": 86}, {"time": 2061, "pitch": 75, "duration": 3, "velocity": 85}, {"time": 2064, "pitch": 76, "duration": 9, "velocity": 81}, {"time": 2073, "pitch": 76, "duration": 6, "velocity": 111}, {"time": 2079, "pitch": 75, "duration": 3, "velocity": 79}, {"time": 2082, "pitch": 76, "duration": 9, "velocity": 95}, {"time": 2091, "pitch": 76, "duration": 6, "velocity": 98}, {"time": 2097, "pitch": 75, "duration": 6, "velocity": 81}, {"time": 2103, "pitch": 73, "duration": 6, "velocity": 86}, {"time": 2109, "pitch": 73, "duration": 3, "velocity": 90}, {"time": 2112, "pitch": 75, "duration": 9, "velocity": 98}, {"time": 2121, "pitch": 75, "duration": 6, "velocity": 98}, {"time": 2127, "pitch": 73, "duration": 3, "velocity": 83}, {"time": 2130, "pitch": 75, "duration": 6, "velocity": 98}, {"time": 2136, "pitch": 75, "duration": 6, "velocity": 108}, {"time": 2142, "pitch": 73, "duration": 6, "velocity": 79}, {"time": 2148, "pitch": 71, "duration": 18, "velocity": 93}, {"time": 2166, "pitch": 75, "duration": 6, "velocity": 76}, {"time": 2172, "pitch": 73, "duration": 6, "velocity": 90}, {"time": 2178, "pitch": 73, "duration": 9, "velocity": 93}, {"time": 2187, "pitch": 71, "duration": 6, "velocity": 76}, {"time": 2193, "pitch": 73, "duration": 4, "velocity": 100}, {"time": 2196, "pitch": 71, "duration": 9, "velocity": 93}, {"time": 2205, "pitch": 68, "duration": 68, "velocity": 93}, {"time": 2625, "pitch": 71, "duration": 4, "velocity": 98}, {"time": 2628, "pitch": 75, "duration": 9, "velocity": 83}, {"time": 2637, "pitch": 75, "duration": 4, "velocity": 86}, {"time": 2640, "pitch": 76, "duration": 9, "velocity": 108}, {"time": 2649, "pitch": 76, "duration": 6, "velocity": 98}, {"time": 2655, "pitch": 75, "duration": 3, "velocity": 63}, {"time": 2658, "pitch": 76, "duration": 7, "velocity": 79}, {"time": 2664, "pitch": 76, "duration": 1, "velocity": 81}, {"time": 2673, "pitch": 75, "duration": 6, "velocity": 81}, {"time": 2679, "pitch": 73, "duration": 6, "velocity": 93}, {"time": 2685, "pitch": 73, "duration": 3, "velocity": 86}, {"time": 2688, "pitch": 75, "duration": 6, "velocity": 76}, {"time": 2694, "pitch": 75, "duration": 1, "velocity": 72}, {"time": 2703, "pitch": 73, "duration": 3, "velocity": 85}, {"time": 2706, "pitch": 75, "duration": 6, "velocity": 86}, {"time": 2712, "pitch": 75, "duration": 6, "velocity": 90}, {"time": 2718, "pitch": 73, "duration": 6, "velocity": 95}, {"time": 2724, "pitch": 71, "duration": 18, "velocity": 86}, {"time": 2742, "pitch": 71, "duration": 3, "velocity": 77}, {"time": 2745, "pitch": 71, "duration": 4, "velocity": 73}, {"time": 2748, "pitch": 68, "duration": 6, "velocity": 70}, {"time": 2754, "pitch": 68, "duration": 6, "velocity": 74}, {"time": 2760, "pitch": 71, "duration": 6, "velocity": 81}, {"time": 2766, "pitch": 71, "duration": 6, "velocity": 75}, {"time": 2772, "pitch": 70, "duration": 9, "velocity": 93}, {"time": 2781, "pitch": 66, "duration": 36, "velocity": 76}, {"time": 2817, "pitch": 71, "duration": 4, "velocity": 98}, {"time": 2820, "pitch": 75, "duration": 9, "velocity": 83}, {"time": 2829, "pitch": 75, "duration": 4, "velocity": 86}, {"time": 2832, "pitch": 76, "duration": 9, "velocity": 108}, {"time": 2841, "pitch": 76, "duration": 6, "velocity": 98}, {"time": 2847, "pitch": 75, "duration": 3, "velocity": 63}, {"time": 2850, "pitch": 76, "duration": 7, "velocity": 79}, {"time": 2857, "pitch": 78, "duration": 8, "velocity": 81}, {"time": 2865, "pitch": 75, "duration": 6, "velocity": 81}, {"time": 2871, "pitch": 73, "duration": 6, "velocity": 93}, {"time": 2877, "pitch": 73, "duration": 3, "velocity": 86}, {"time": 2880, "pitch": 75, "duration": 6, "velocity": 76}, {"time": 2886, "pitch": 75, "duration": 1, "velocity": 72}, {"time": 2895, "pitch": 73, "duration": 3, "velocity": 85}, {"time": 2898, "pitch": 75, "duration": 6, "velocity": 86}, {"time": 2904, "pitch": 75, "duration": 6, "velocity": 90}, {"time": 2910, "pitch": 73, "duration": 6, "velocity": 95}, {"time": 2916, "pitch": 71, "duration": 15, "velocity": 86}, {"time": 2931, "pitch": 75, "duration": 6, "velocity": 98}, {"time": 2937, "pitch": 75, "duration": 4, "velocity": 98}, {"time": 2940, "pitch": 73, "duration": 6, "velocity": 71}, {"time": 2946, "pitch": 73, "duration": 9, "velocity": 93}, {"time": 2955, "pitch": 71, "duration": 6, "velocity": 79}, {"time": 2961, "pitch": 73, "duration": 3, "velocity": 83}, {"time": 2964, "pitch": 71, "duration": 9, "velocity": 87}, {"time": 2973, "pitch": 68, "duration": 36, "velocity": 98}, {"time": 3009, "pitch": 71, "duration": 4, "velocity": 98}, {"time": 3012, "pitch": 75, "duration": 9, "velocity": 83}, {"time": 3021, "pitch": 75, "duration": 4, "velocity": 86}, {"time": 3024, "pitch": 76, "duration": 9, "velocity": 108}, {"time": 3033, "pitch": 76, "duration": 6, "velocity": 98}, {"time": 3039, "pitch": 75, "duration": 3, "velocity": 63}, {"time": 3042, "pitch": 76, "duration": 6, "velocity": 79}, {"time": 3048, "pitch": 76, "duration": 9, "velocity": 81}, {"time": 3057, "pitch": 75, "duration": 6, "velocity": 81}, {"time": 3063, "pitch": 73, "duration": 6, "velocity": 93}, {"time": 3069, "pitch": 73, "duration": 3, "velocity": 86}, {"time": 3072, "pitch": 75, "duration": 6, "velocity": 76}, {"time": 3078, "pitch": 75, "duration": 9, "velocity": 72}, {"time": 3087, "pitch": 73, "duration": 3, "velocity": 85}, {"time": 3090, "pitch": 75, "duration": 6, "velocity": 86}, {"time": 3096, "pitch": 75, "duration": 6, "velocity": 90}, {"time": 3102, "pitch": 73, "duration": 6, "velocity": 95}, {"time": 3108, "pitch": 71, "duration": 18, "velocity": 86}, {"time": 3126, "pitch": 71, "duration": 3, "velocity": 77}, {"time": 3129, "pitch": 71, "duration": 4, "velocity": 73}, {"time": 3132, "pitch": 68, "duration": 6, "velocity": 70}, {"time": 3138, "pitch": 68, "duration": 6, "velocity": 74}, {"time": 3144, "pitch": 70, "duration": 6, "velocity": 81}, {"time": 3150, "pitch": 71, "duration": 6, "velocity": 75}, {"time": 3156, "pitch": 70, "duration": 9, "velocity": 93}, {"time": 3165, "pitch": 66, "duration": 36, "velocity": 76}, {"time": 3201, "pitch": 71, "duration": 4, "velocity": 98}, {"time": 3204, "pitch": 75, "duration": 9, "velocity": 83}, {"time": 3213, "pitch": 75, "duration": 4, "velocity": 86}, {"time": 3216, "pitch": 76, "duration": 9, "velocity": 108}, {"time": 3225, "pitch": 76, "duration": 6, "velocity": 98}, {"time": 3231, "pitch": 75, "duration": 3, "velocity": 63}, {"time": 3234, "pitch": 76, "duration": 7, "velocity": 79}, {"time": 3241, "pitch": 78, "duration": 8, "velocity": 81}, {"time": 3249, "pitch": 75, "duration": 6, "velocity": 81}, {"time": 3255, "pitch": 73, "duration": 6, "velocity": 93}, {"time": 3261, "pitch": 73, "duration": 3, "velocity": 86}, {"time": 3264, "pitch": 75, "duration": 6, "velocity": 76}, {"time": 3270, "pitch": 75, "duration": 1, "velocity": 72}, {"time": 3279, "pitch": 73, "duration": 3, "velocity": 85}, {"time": 3282, "pitch": 75, "duration": 6, "velocity": 86}, {"time": 3288, "pitch": 75, "duration": 6, "velocity": 90}, {"time": 3294, "pitch": 73, "duration": 6, "velocity": 95}, {"time": 3300, "pitch": 71, "duration": 15, "velocity": 86}, {"time": 3315, "pitch": 75, "duration": 6, "velocity": 98}, {"time": 3321, "pitch": 75, "duration": 4, "velocity": 98}, {"time": 3324, "pitch": 73, "duration": 6, "velocity": 71}, {"time": 3330, "pitch": 73, "duration": 7, "velocity": 93}, {"time": 3336, "pitch": 71, "duration": 6, "velocity": 79}, {"time": 3342, "pitch": 71, "duration": 3, "velocity": 73}, {"time": 3345, "pitch": 73, "duration": 3, "velocity": 104}, {"time": 3348, "pitch": 71, "duration": 6, "velocity": 98}, {"time": 3354, "pitch": 68, "duration": 65, "velocity": 104}], "annotations": [{"time": 225, "annotation": {"number": 64, "value": 81}, "group": "control_change"}]}, {"program": 0, "is_drum": false, "name": "BRIDGE", "notes": [{"time": 117, "pitch": 70, "duration": 72, "velocity": 59}, {"time": 117, "pitch": 82, "duration": 73, "velocity": 68}, {"time": 531, "pitch": 68, "duration": 8, "velocity": 66}, {"time": 537, "pitch": 76, "duration": 7, "velocity": 68}, {"time": 543, "pitch": 73, "duration": 19, "velocity": 65}, {"time": 585, "pitch": 66, "duration": 6, "velocity": 58}, {"time": 585, "pitch": 70, "duration": 6, "velocity": 58}, {"time": 585, "pitch": 75, "duration": 6, "velocity": 58}, {"time": 597, "pitch": 78, "duration": 17, "velocity": 66}, {"time": 597, "pitch": 82, "duration": 18, "velocity": 68}, {"time": 597, "pitch": 85, "duration": 18, "velocity": 63}, {"time": 675, "pitch": 68, "duration": 7, "velocity": 58}, {"time": 681, "pitch": 76, "duration": 6, "velocity": 74}, {"time": 687, "pitch": 73, "duration": 18, "velocity": 70}, {"time": 705, "pitch": 70, "duration": 13, "velocity": 86}, {"time": 717, "pitch": 71, "duration": 18, "velocity": 74}, {"time": 915, "pitch": 56, "duration": 14, "velocity": 60}, {"time": 921, "pitch": 61, "duration": 7, "velocity": 70}, {"time": 927, "pitch": 68, "duration": 28, "velocity": 76}, {"time": 1335, "pitch": 63, "duration": 8, "velocity": 74}, {"time": 1341, "pitch": 68, "duration": 23, "velocity": 67}, {"time": 1347, "pitch": 72, "duration": 15, "velocity": 51}, {"time": 1365, "pitch": 68, "duration": 17, "velocity": 69}, {"time": 1389, "pitch": 35, "duration": 49, "velocity": 90}, {"time": 1389, "pitch": 59, "duration": 16, "velocity": 63}, {"time": 1392, "pitch": 47, "duration": 3, "velocity": 49}, {"time": 1395, "pitch": 51, "duration": 3, "velocity": 62}, {"time": 1395, "pitch": 63, "duration": 7, "velocity": 61}, {"time": 1398, "pitch": 47, "duration": 4, "velocity": 58}, {"time": 1401, "pitch": 51, "duration": 3, "velocity": 64}, {"time": 1401, "pitch": 71, "duration": 35, "velocity": 63}, {"time": 1404, "pitch": 47, "duration": 4, "velocity": 60}, {"time": 1407, "pitch": 51, "duration": 3, "velocity": 63}, {"time": 1410, "pitch": 47, "duration": 4, "velocity": 59}, {"time": 1413, "pitch": 51, "duration": 4, "velocity": 62}, {"time": 1416, "pitch": 47, "duration": 4, "velocity": 59}, {"time": 1419, "pitch": 51, "duration": 3, "velocity": 61}, {"time": 1422, "pitch": 47, "duration": 4, "velocity": 60}, {"time": 1425, "pitch": 51, "duration": 3, "velocity": 65}, {"time": 1428, "pitch": 47, "duration": 4, "velocity": 59}, {"time": 1431, "pitch": 51, "duration": 4, "velocity": 67}, {"time": 1434, "pitch": 47, "duration": 4, "velocity": 66}, {"time": 1437, "pitch": 37, "duration": 48, "velocity": 95}, {"time": 1437, "pitch": 61, "duration": 8, "velocity": 65}, {"time": 1440, "pitch": 49, "duration": 4, "velocity": 52}, {"time": 1443, "pitch": 52, "duration": 4, "velocity": 67}, {"time": 1443, "pitch": 64, "duration": 7, "velocity": 71}, {"time": 1446, "pitch": 49, "duration": 4, "velocity": 59}, {"time": 1449, "pitch": 52, "duration": 3, "velocity": 68}, {"time": 1449, "pitch": 71, "duration": 35, "velocity": 63}, {"time": 1452, "pitch": 49, "duration": 4, "velocity": 57}, {"time": 1455, "pitch": 52, "duration": 4, "velocity": 67}, {"time": 1458, "pitch": 49, "duration": 4, "velocity": 61}, {"time": 1461, "pitch": 52, "duration": 4, "velocity": 60}, {"time": 1464, "pitch": 49, "duration": 4, "velocity": 51}, {"time": 1467, "pitch": 52, "duration": 4, "velocity": 64}, {"time": 1470, "pitch": 49, "duration": 4, "velocity": 60}, {"time": 1473, "pitch": 52, "duration": 4, "velocity": 69}, {"time": 1476, "pitch": 49, "duration": 3, "velocity": 60}, {"time": 1479, "pitch": 52, "duration": 4, "velocity": 67}, {"time": 1482, "pitch": 49, "duration": 2, "velocity": 73}, {"time": 1539, "pitch": 68, "duration": 7, "velocity": 58}, {"time": 1545, "pitch": 76, "duration": 6, "velocity": 74}, {"time": 1551, "pitch": 73, "duration": 18, "velocity": 70}, {"time": 1569, "pitch": 70, "duration": 13, "velocity": 86}, {"time": 1581, "pitch": 71, "duration": 18, "velocity": 74}, {"time": 1779, "pitch": 56, "duration": 14, "velocity": 60}, {"time": 1785, "pitch": 61, "duration": 7, "velocity": 70}, {"time": 1791, "pitch": 68, "duration": 28, "velocity": 76}, {"time": 2199, "pitch": 63, "duration": 8, "velocity": 74}, {"time": 2205, "pitch": 68, "duration": 23, "velocity": 67}, {"time": 2211, "pitch": 72, "duration": 15, "velocity": 51}, {"time": 2229, "pitch": 68, "duration": 17, "velocity": 69}, {"time": 2253, "pitch": 70, "duration": 8, "velocity": 117}, {"time": 2253, "pitch": 82, "duration": 8, "velocity": 117}, {"time": 2262, "pitch": 68, "duration": 7, "velocity": 98}, {"time": 2262, "pitch": 80, "duration": 7, "velocity": 98}, {"time": 2271, "pitch": 70, "duration": 9, "velocity": 117}, {"time": 2271, "pitch": 82, "duration": 9, "velocity": 117}, {"time": 2280, "pitch": 68, "duration": 8, "velocity": 93}, {"time": 2280, "pitch": 80, "duration": 8, "velocity": 93}, {"time": 2289, "pitch": 70, "duration": 4, "velocity": 114}, {"time": 2289, "pitch": 82, "duration": 4, "velocity": 114}, {"time": 2295, "pitch": 71, "duration": 4, "velocity": 90}, {"time": 2295, "pitch": 83, "duration": 4, "velocity": 90}, {"time": 2301, "pitch": 70, "duration": 8, "velocity": 111}, {"time": 2301, "pitch": 82, "duration": 8, "velocity": 111}, {"time": 2310, "pitch": 68, "duration": 8, "velocity": 86}, {"time": 2310, "pitch": 80, "duration": 8, "velocity": 86}, {"time": 2319, "pitch": 75, "duration": 18, "velocity": 112}, {"time": 2319, "pitch": 87, "duration": 18, "velocity": 112}, {"time": 2349, "pitch": 70, "duration": 8, "velocity": 114}, {"time": 2349, "pitch": 82, "duration": 8, "velocity": 114}, {"time": 2358, "pitch": 68, "duration": 8, "velocity": 77}, {"time": 2358, "pitch": 80, "duration": 8, "velocity": 77}, {"time": 2367, "pitch": 70, "duration": 9, "velocity": 114}, {"time": 2367, "pitch": 82, "duration": 9, "velocity": 114}, {"time": 2376, "pitch": 68, "duration": 7, "velocity": 93}, {"time": 2376, "pitch": 80, "duration": 7, "velocity": 93}, {"time": 2385, "pitch": 70, "duration": 4, "velocity": 108}, {"time": 2385, "pitch": 82, "duration": 4, "velocity": 108}, {"time": 2391, "pitch": 71, "duration": 4, "velocity": 86}, {"time": 2391, "pitch": 83, "duration": 4, "velocity": 86}, {"time": 2397, "pitch": 75, "duration": 12, "velocity": 111}, {"time": 2397, "pitch": 87, "duration": 12, "velocity": 111}, {"time": 2406, "pitch": 70, "duration": 8, "velocity": 100}, {"time": 2406, "pitch": 82, "duration": 8, "velocity": 100}, {"time": 2415, "pitch": 68, "duration": 10, "velocity": 95}, {"time": 2415, "pitch": 80, "duration": 10, "velocity": 95}, {"time": 2424, "pitch": 63, "duration": 8, "velocity": 77}, {"time": 2424, "pitch": 75, "duration": 8, "velocity": 77}, {"time": 2445, "pitch": 73, "duration": 8, "velocity": 114}, {"time": 2445, "pitch": 85, "duration": 8, "velocity": 114}, {"time": 2454, "pitch": 71, "duration": 8, "velocity": 85}, {"time": 2454, "pitch": 83, "duration": 8, "velocity": 85}, {"time": 2463, "pitch": 73, "duration": 8, "velocity": 114}, {"time": 2463, "pitch": 85, "duration": 8, "velocity": 114}, {"time": 2472, "pitch": 71, "duration": 8, "velocity": 98}, {"time": 2472, "pitch": 83, "duration": 8, "velocity": 98}, {"time": 2481, "pitch": 73, "duration": 5, "velocity": 111}, {"time": 2481, "pitch": 85, "duration": 5, "velocity": 111}, {"time": 2487, "pitch": 74, "duration": 5, "velocity": 90}, {"time": 2487, "pitch": 86, "duration": 5, "velocity": 90}, {"time": 2493, "pitch": 73, "duration": 9, "velocity": 108}, {"time": 2493, "pitch": 85, "duration": 9, "velocity": 108}, {"time": 2502, "pitch": 68, "duration": 6, "velocity": 75}, {"time": 2502, "pitch": 80, "duration": 6, "velocity": 75}, {"time": 2508, "pitch": 66, "duration": 2, "velocity": 79}, {"time": 2508, "pitch": 78, "duration": 2, "velocity": 79}, {"time": 2511, "pitch": 65, "duration": 18, "velocity": 79}, {"time": 2511, "pitch": 77, "duration": 18, "velocity": 79}, {"time": 2529, "pitch": 65, "duration": 4, "velocity": 95}, {"time": 2529, "pitch": 77, "duration": 4, "velocity": 95}, {"time": 2535, "pitch": 66, "duration": 3, "velocity": 93}, {"time": 2535, "pitch": 78, "duration": 3, "velocity": 93}, {"time": 2538, "pitch": 68, "duration": 2, "velocity": 75}, {"time": 2538, "pitch": 80, "duration": 2, "velocity": 75}, {"time": 2541, "pitch": 69, "duration": 17, "velocity": 111}, {"time": 2541, "pitch": 81, "duration": 17, "velocity": 111}, {"time": 2550, "pitch": 68, "duration": 7, "velocity": 87}, {"time": 2550, "pitch": 80, "duration": 7, "velocity": 87}, {"time": 2559, "pitch": 66, "duration": 11, "velocity": 87}, {"time": 2559, "pitch": 78, "duration": 11, "velocity": 87}, {"time": 2565, "pitch": 65, "duration": 7, "velocity": 93}, {"time": 2565, "pitch": 77, "duration": 7, "velocity": 93}, {"time": 2574, "pitch": 66, "duration": 8, "velocity": 81}, {"time": 2574, "pitch": 78, "duration": 8, "velocity": 81}, {"time": 2583, "pitch": 68, "duration": 4, "velocity": 90}, {"time": 2583, "pitch": 80, "duration": 4, "velocity": 90}, {"time": 2589, "pitch": 71, "duration": 12, "velocity": 114}, {"time": 2589, "pitch": 83, "duration": 12, "velocity": 114}, {"time": 2601, "pitch": 74, "duration": 10, "velocity": 111}, {"time": 2601, "pitch": 86, "duration": 10, "velocity": 111}, {"time": 2613, "pitch": 76, "duration": 21, "velocity": 108}, {"time": 2613, "pitch": 88, "duration": 21, "velocity": 108}, {"time": 2661, "pitch": 64, "duration": 10, "velocity": 69}, {"time": 2661, "pitch": 68, "duration": 10, "velocity": 76}, {"time": 2673, "pitch": 64, "duration": 11, "velocity": 64}, {"time": 2673, "pitch": 68, "duration": 11, "velocity": 83}, {"time": 2973, "pitch": 80, "duration": 11, "velocity": 73}, {"time": 2985, "pitch": 82, "duration": 10, "velocity": 103}, {"time": 2997, "pitch": 83, "duration": 10, "velocity": 104}, {"time": 3009, "pitch": 88, "duration": 12, "velocity": 97}, {"time": 3021, "pitch": 71, "duration": 24, "velocity": 79}, {"time": 3045, "pitch": 66, "duration": 13, "velocity": 79}, {"time": 3057, "pitch": 73, "duration": 13, "velocity": 104}, {"time": 3069, "pitch": 71, "duration": 17, "velocity": 74}, {"time": 3087, "pitch": 82, "duration": 5, "velocity": 98}, {"time": 3093, "pitch": 82, "duration": 10, "velocity": 114}, {"time": 3105, "pitch": 80, "duration": 8, "velocity": 83}, {"time": 3111, "pitch": 78, "duration": 6, "velocity": 81}, {"time": 3117, "pitch": 75, "duration": 16, "velocity": 76}, {"time": 3141, "pitch": 73, "duration": 25, "velocity": 100}, {"time": 3165, "pitch": 75, "duration": 19, "velocity": 100}, {"time": 3183, "pitch": 75, "duration": 1, "velocity": 69}, {"time": 3189, "pitch": 83, "duration": 12, "velocity": 86}, {"time": 3201, "pitch": 87, "duration": 11, "velocity": 104}, {"time": 3213, "pitch": 88, "duration": 30, "velocity": 82}, {"time": 3291, "pitch": 82, "duration": 8, "velocity": 70}, {"time": 3297, "pitch": 78, "duration": 7, "velocity": 74}, {"time": 3303, "pitch": 75, "duration": 7, "velocity": 72}, {"time": 3309, "pitch": 73, "duration": 17, "velocity": 79}, {"time": 3333, "pitch": 75, "duration": 24, "velocity": 76}, {"time": 3501, "pitch": 59, "duration": 46, "velocity": 74}, {"time": 3508, "pitch": 66, "duration": 11, "velocity": 69}, {"time": 3513, "pitch": 75, "duration": 6, "velocity": 77}, {"time": 3519, "pitch": 71, "duration": 31, "velocity": 63}, {"time": 3549, "pitch": 61, "duration": 45, "velocity": 66}, {"time": 3555, "pitch": 68, "duration": 9, "velocity": 63}, {"time": 3561, "pitch": 75, "duration": 7, "velocity": 95}, {"time": 3568, "pitch": 76, "duration": 26, "velocity": 65}, {"time": 3597, "pitch": 59, "duration": 50, "velocity": 63}, {"time": 3603, "pitch": 66, "duration": 14, "velocity": 63}, {"time": 3609, "pitch": 75, "duration": 6, "velocity": 81}, {"time": 3615, "pitch": 71, "duration": 31, "velocity": 74}, {"time": 3645, "pitch": 59, "duration": 2, "velocity": 63}, {"time": 3651, "pitch": 66, "duration": 42, "velocity": 45}, {"time": 3657, "pitch": 73, "duration": 6, "velocity": 83}, {"time": 3663, "pitch": 71, "duration": 30, "velocity": 63}], "annotations": [{"time": 117, "annotation": {"number": 64, "value": 73}, "group": "control_change"}, {"time": 129, "annotation": {"number": 64, "value": 74}, "group": "control_change"}, {"time": 165, "annotation": {"number": 64, "value": 75}, "group": "control_change"}, {"time": 189, "annotation": {"number": 64, "value": 76}, "group": "control_change"}, {"time": 201, "annotation": {"number": 64, "value": 78}, "group": "control_change"}, {"time": 225, "annotation": {"number": 64, "value": 79}, "group": "control_change"}]}, {"program": 0, "is_drum": false, "name": "PIANO", "notes": [{"time": 45, "pitch": 35, "duration": 50, "velocity": 75}, {"time": 45, "pitch": 51, "duration": 4, "velocity": 67}, {"time": 48, "pitch": 47, "duration": 3, "velocity": 60}, {"time": 51, "pitch": 51, "duration": 4, "velocity": 61}, {"time": 54, "pitch": 47, "duration": 3, "velocity": 57}, {"time": 57, "pitch": 51, "duration": 4, "velocity": 68}, {"time": 60, "pitch": 47, "duration": 4, "velocity": 58}, {"time": 63, "pitch": 51, "duration": 4, "velocity": 60}, {"time": 66, "pitch": 47, "duration": 3, "velocity": 59}, {"time": 69, "pitch": 51, "duration": 4, "velocity": 64}, {"time": 72, "pitch": 47, "duration": 4, "velocity": 58}, {"time": 75, "pitch": 51, "duration": 4, "velocity": 60}, {"time": 78, "pitch": 47, "duration": 4, "velocity": 52}, {"time": 81, "pitch": 51, "duration": 4, "velocity": 67}, {"time": 84, "pitch": 47, "duration": 4, "velocity": 62}, {"time": 87, "pitch": 51, "duration": 4, "velocity": 68}, {"time": 90, "pitch": 47, "duration": 3, "velocity": 67}, {"time": 93, "pitch": 37, "duration": 48, "velocity": 90}, {"time": 93, "pitch": 52, "duration": 4, "velocity": 75}, {"time": 96, "pitch": 49, "duration": 3, "velocity": 47}, {"time": 99, "pitch": 52, "duration": 4, "velocity": 67}, {"time": 102, "pitch": 49, "duration": 4, "velocity": 59}, {"time": 105, "pitch": 52, "duration": 4, "velocity": 69}, {"time": 108, "pitch": 49, "duration": 4, "velocity": 61}, {"time": 111, "pitch": 52, "duration": 4, "velocity": 66}, {"time": 114, "pitch": 49, "duration": 4, "velocity": 60}, {"time": 117, "pitch": 52, "duration": 4, "velocity": 66}, {"time": 120, "pitch": 49, "duration": 4, "velocity": 63}, {"time": 123, "pitch": 52, "duration": 4, "velocity": 66}, {"time": 126, "pitch": 49, "duration": 4, "velocity": 64}, {"time": 129, "pitch": 52, "duration": 4, "velocity": 74}, {"time": 132, "pitch": 49, "duration": 4, "velocity": 71}, {"time": 135, "pitch": 52, "duration": 4, "velocity": 71}, {"time": 138, "pitch": 49, "duration": 2, "velocity": 63}, {"time": 141, "pitch": 35, "duration": 49, "velocity": 95}, {"time": 141, "pitch": 51, "duration": 4, "velocity": 79}, {"time": 144, "pitch": 47, "duration": 4, "velocity": 66}, {"time": 147, "pitch": 51, "duration": 3, "velocity": 67}, {"time": 150, "pitch": 47, "duration": 3, "velocity": 59}, {"time": 153, "pitch": 51, "duration": 4, "velocity": 64}, {"time": 156, "pitch": 47, "duration": 4, "velocity": 63}, {"time": 159, "pitch": 51, "duration": 3, "velocity": 65}, {"time": 162, "pitch": 47, "duration": 3, "velocity": 61}, {"time": 165, "pitch": 51, "duration": 3, "velocity": 69}, {"time": 168, "pitch": 47, "duration": 4, "velocity": 63}, {"time": 171, "pitch": 51, "duration": 3, "velocity": 62}, {"time": 174, "pitch": 47, "duration": 4, "velocity": 63}, {"time": 177, "pitch": 51, "duration": 3, "velocity": 65}, {"time": 180, "pitch": 47, "duration": 4, "velocity": 70}, {"time": 183, "pitch": 51, "duration": 3, "velocity": 64}, {"time": 186, "pitch": 47, "duration": 3, "velocity": 74}, {"time": 189, "pitch": 37, "duration": 47, "velocity": 87}, {"time": 189, "pitch": 52, "duration": 3, "velocity": 76}, {"time": 192, "pitch": 49, "duration": 4, "velocity": 72}, {"time": 195, "pitch": 52, "duration": 4, "velocity": 73}, {"time": 198, "pitch": 49, "duration": 4, "velocity": 69}, {"time": 201, "pitch": 52, "duration": 3, "velocity": 67}, {"time": 204, "pitch": 49, "duration": 4, "velocity": 66}, {"time": 207, "pitch": 52, "duration": 3, "velocity": 65}, {"time": 210, "pitch": 49, "duration": 4, "velocity": 62}, {"time": 213, "pitch": 52, "duration": 3, "velocity": 84}, {"time": 216, "pitch": 49, "duration": 4, "velocity": 83}, {"time": 219, "pitch": 52, "duration": 3, "velocity": 83}, {"time": 222, "pitch": 49, "duration": 4, "velocity": 83}, {"time": 225, "pitch": 52, "duration": 4, "velocity": 83}, {"time": 228, "pitch": 49, "duration": 4, "velocity": 83}, {"time": 231, "pitch": 52, "duration": 3, "velocity": 83}, {"time": 237, "pitch": 35, "duration": 43, "velocity": 74}, {"time": 243, "pitch": 42, "duration": 43, "velocity": 63}, {"time": 249, "pitch": 51, "duration": 23, "velocity": 65}, {"time": 255, "pitch": 47, "duration": 9, "velocity": 51}, {"time": 261, "pitch": 54, "duration": 13, "velocity": 74}, {"time": 267, "pitch": 47, "duration": 8, "velocity": 58}, {"time": 273, "pitch": 51, "duration": 8, "velocity": 68}, {"time": 279, "pitch": 47, "duration": 6, "velocity": 54}, {"time": 279, "pitch": 54, "duration": 6, "velocity": 64}, {"time": 285, "pitch": 37, "duration": 45, "velocity": 81}, {"time": 285, "pitch": 52, "duration": 11, "velocity": 74}, {"time": 291, "pitch": 44, "duration": 40, "velocity": 62}, {"time": 297, "pitch": 52, "duration": 12, "velocity": 64}, {"time": 297, "pitch": 56, "duration": 8, "velocity": 74}, {"time": 303, "pitch": 49, "duration": 9, "velocity": 53}, {"time": 306, "pitch": 56, "duration": 2, "velocity": 45}, {"time": 309, "pitch": 52, "duration": 11, "velocity": 74}, {"time": 309, "pitch": 56, "duration": 11, "velocity": 77}, {"time": 315, "pitch": 49, "duration": 9, "velocity": 57}, {"time": 321, "pitch": 52, "duration": 6, "velocity": 73}, {"time": 321, "pitch": 56, "duration": 7, "velocity": 76}, {"time": 327, "pitch": 52, "duration": 3, "velocity": 72}, {"time": 333, "pitch": 35, "duration": 44, "velocity": 93}, {"time": 333, "pitch": 51, "duration": 11, "velocity": 64}, {"time": 333, "pitch": 54, "duration": 11, "velocity": 72}, {"time": 339, "pitch": 42, "duration": 43, "velocity": 63}, {"time": 345, "pitch": 51, "duration": 11, "velocity": 63}, {"time": 345, "pitch": 54, "duration": 23, "velocity": 71}, {"time": 351, "pitch": 47, "duration": 7, "velocity": 59}, {"time": 357, "pitch": 51, "duration": 11, "velocity": 56}, {"time": 357, "pitch": 59, "duration": 11, "velocity": 73}, {"time": 363, "pitch": 47, "duration": 7, "velocity": 56}, {"time": 369, "pitch": 51, "duration": 14, "velocity": 83}, {"time": 369, "pitch": 54, "duration": 1, "velocity": 63}, {"time": 372, "pitch": 47, "duration": 7, "velocity": 74}, {"time": 375, "pitch": 54, "duration": 8, "velocity": 70}, {"time": 378, "pitch": 59, "duration": 4, "velocity": 57}, {"time": 381, "pitch": 37, "duration": 46, "velocity": 87}, {"time": 387, "pitch": 44, "duration": 39, "velocity": 62}, {"time": 393, "pitch": 52, "duration": 36, "velocity": 70}, {"time": 399, "pitch": 49, "duration": 12, "velocity": 58}, {"time": 405, "pitch": 59, "duration": 18, "velocity": 77}, {"time": 417, "pitch": 49, "duration": 7, "velocity": 56}, {"time": 429, "pitch": 32, "duration": 18, "velocity": 43}, {"time": 435, "pitch": 39, "duration": 13, "velocity": 66}, {"time": 441, "pitch": 44, "duration": 8, "velocity": 58}, {"time": 444, "pitch": 47, "duration": 8, "velocity": 63}, {"time": 447, "pitch": 51, "duration": 6, "velocity": 63}, {"time": 453, "pitch": 39, "duration": 21, "velocity": 68}, {"time": 456, "pitch": 46, "duration": 21, "velocity": 60}, {"time": 459, "pitch": 51, "duration": 6, "velocity": 63}, {"time": 462, "pitch": 54, "duration": 11, "velocity": 74}, {"time": 468, "pitch": 51, "duration": 4, "velocity": 79}, {"time": 471, "pitch": 58, "duration": 4, "velocity": 60}, {"time": 474, "pitch": 54, "duration": 4, "velocity": 67}, {"time": 477, "pitch": 40, "duration": 20, "velocity": 72}, {"time": 480, "pitch": 47, "duration": 16, "velocity": 60}, {"time": 483, "pitch": 52, "duration": 5, "velocity": 59}, {"time": 486, "pitch": 56, "duration": 10, "velocity": 76}, {"time": 492, "pitch": 52, "duration": 3, "velocity": 56}, {"time": 495, "pitch": 59, "duration": 4, "velocity": 65}, {"time": 498, "pitch": 56, "duration": 4, "velocity": 70}, {"time": 501, "pitch": 35, "duration": 22, "velocity": 87}, {"time": 504, "pitch": 42, "duration": 22, "velocity": 66}, {"time": 507, "pitch": 47, "duration": 7, "velocity": 59}, {"time": 510, "pitch": 51, "duration": 4, "velocity": 59}, {"time": 513, "pitch": 54, "duration": 9, "velocity": 79}, {"time": 519, "pitch": 47, "duration": 5, "velocity": 56}, {"time": 522, "pitch": 51, "duration": 3, "velocity": 62}, {"time": 525, "pitch": 37, "duration": 47, "velocity": 85}, {"time": 525, "pitch": 52, "duration": 23, "velocity": 55}, {"time": 531, "pitch": 44, "duration": 40, "velocity": 59}, {"time": 537, "pitch": 56, "duration": 11, "velocity": 76}, {"time": 543, "pitch": 49, "duration": 7, "velocity": 47}, {"time": 549, "pitch": 52, "duration": 12, "velocity": 64}, {"time": 549, "pitch": 56, "duration": 12, "velocity": 63}, {"time": 555, "pitch": 49, "duration": 7, "velocity": 54}, {"time": 561, "pitch": 52, "duration": 11, "velocity": 63}, {"time": 561, "pitch": 56, "duration": 11, "velocity": 60}, {"time": 561, "pitch": 61, "duration": 11, "velocity": 79}, {"time": 567, "pitch": 49, "duration": 5, "velocity": 55}, {"time": 573, "pitch": 54, "duration": 49, "velocity": 83}, {"time": 573, "pitch": 61, "duration": 49, "velocity": 83}, {"time": 573, "pitch": 42, "duration": 49, "velocity": 83}, {"time": 574, "pitch": 66, "duration": 48, "velocity": 83}, {"time": 621, "pitch": 35, "duration": 42, "velocity": 45}, {"time": 624, "pitch": 42, "duration": 45, "velocity": 64}, {"time": 627, "pitch": 47, "duration": 7, "velocity": 52}, {"time": 633, "pitch": 51, "duration": 11, "velocity": 67}, {"time": 636, "pitch": 47, "duration": 7, "velocity": 54}, {"time": 639, "pitch": 54, "duration": 17, "velocity": 67}, {"time": 645, "pitch": 51, "duration": 11, "velocity": 63}, {"time": 651, "pitch": 47, "duration": 7, "velocity": 52}, {"time": 657, "pitch": 51, "duration": 7, "velocity": 66}, {"time": 657, "pitch": 54, "duration": 8, "velocity": 77}, {"time": 663, "pitch": 47, "duration": 6, "velocity": 47}, {"time": 669, "pitch": 37, "duration": 42, "velocity": 85}, {"time": 669, "pitch": 52, "duration": 24, "velocity": 73}, {"time": 675, "pitch": 44, "duration": 36, "velocity": 59}, {"time": 681, "pitch": 56, "duration": 11, "velocity": 73}, {"time": 687, "pitch": 49, "duration": 8, "velocity": 39}, {"time": 693, "pitch": 52, "duration": 11, "velocity": 68}, {"time": 693, "pitch": 56, "duration": 11, "velocity": 74}, {"time": 699, "pitch": 49, "duration": 8, "velocity": 53}, {"time": 705, "pitch": 52, "duration": 5, "velocity": 65}, {"time": 705, "pitch": 56, "duration": 7, "velocity": 72}, {"time": 711, "pitch": 52, "duration": 3, "velocity": 79}, {"time": 717, "pitch": 35, "duration": 42, "velocity": 87}, {"time": 717, "pitch": 51, "duration": 11, "velocity": 69}, {"time": 717, "pitch": 54, "duration": 11, "velocity": 77}, {"time": 723, "pitch": 42, "duration": 38, "velocity": 59}, {"time": 729, "pitch": 51, "duration": 11, "velocity": 67}, {"time": 729, "pitch": 54, "duration": 12, "velocity": 63}, {"time": 735, "pitch": 47, "duration": 8, "velocity": 56}, {"time": 741, "pitch": 51, "duration": 11, "velocity": 64}, {"time": 741, "pitch": 54, "duration": 11, "velocity": 65}, {"time": 741, "pitch": 59, "duration": 11, "velocity": 71}, {"time": 747, "pitch": 47, "duration": 7, "velocity": 59}, {"time": 753, "pitch": 51, "duration": 7, "velocity": 65}, {"time": 753, "pitch": 54, "duration": 7, "velocity": 74}, {"time": 753, "pitch": 59, "duration": 7, "velocity": 69}, {"time": 759, "pitch": 47, "duration": 6, "velocity": 59}, {"time": 762, "pitch": 52, "duration": 2, "velocity": 11}, {"time": 765, "pitch": 37, "duration": 42, "velocity": 81}, {"time": 765, "pitch": 52, "duration": 11, "velocity": 65}, {"time": 765, "pitch": 56, "duration": 11, "velocity": 64}, {"time": 765, "pitch": 61, "duration": 11, "velocity": 63}, {"time": 771, "pitch": 44, "duration": 38, "velocity": 59}, {"time": 777, "pitch": 52, "duration": 11, "velocity": 63}, {"time": 777, "pitch": 56, "duration": 11, "velocity": 71}, {"time": 783, "pitch": 49, "duration": 10, "velocity": 46}, {"time": 789, "pitch": 52, "duration": 15, "velocity": 81}, {"time": 795, "pitch": 56, "duration": 13, "velocity": 65}, {"time": 801, "pitch": 49, "duration": 7, "velocity": 65}, {"time": 807, "pitch": 52, "duration": 6, "velocity": 81}, {"time": 810, "pitch": 56, "duration": 4, "velocity": 67}, {"time": 813, "pitch": 44, "duration": 21, "velocity": 69}, {"time": 816, "pitch": 51, "duration": 16, "velocity": 67}, {"time": 819, "pitch": 56, "duration": 5, "velocity": 60}, {"time": 822, "pitch": 59, "duration": 10, "velocity": 79}, {"time": 825, "pitch": 56, "duration": 6, "velocity": 71}, {"time": 831, "pitch": 63, "duration": 4, "velocity": 68}, {"time": 834, "pitch": 59, "duration": 4, "velocity": 75}, {"time": 837, "pitch": 39, "duration": 21, "velocity": 76}, {"time": 840, "pitch": 46, "duration": 21, "velocity": 59}, {"time": 843, "pitch": 51, "duration": 7, "velocity": 63}, {"time": 846, "pitch": 54, "duration": 10, "velocity": 93}, {"time": 852, "pitch": 51, "duration": 7, "velocity": 74}, {"time": 855, "pitch": 58, "duration": 6, "velocity": 75}, {"time": 861, "pitch": 40, "duration": 21, "velocity": 74}, {"time": 861, "pitch": 56, "duration": 11, "velocity": 79}, {"time": 864, "pitch": 47, "duration": 17, "velocity": 67}, {"time": 867, "pitch": 52, "duration": 7, "velocity": 59}, {"time": 870, "pitch": 59, "duration": 10, "velocity": 69}, {"time": 876, "pitch": 52, "duration": 4, "velocity": 81}, {"time": 879, "pitch": 56, "duration": 6, "velocity": 74}, {"time": 882, "pitch": 59, "duration": 4, "velocity": 68}, {"time": 885, "pitch": 35, "duration": 22, "velocity": 85}, {"time": 888, "pitch": 42, "duration": 21, "velocity": 66}, {"time": 891, "pitch": 47, "duration": 7, "velocity": 64}, {"time": 894, "pitch": 49, "duration": 4, "velocity": 70}, {"time": 897, "pitch": 51, "duration": 5, "velocity": 74}, {"time": 900, "pitch": 47, "duration": 8, "velocity": 74}, {"time": 906, "pitch": 51, "duration": 4, "velocity": 73}, {"time": 909, "pitch": 37, "duration": 44, "velocity": 87}, {"time": 915, "pitch": 44, "duration": 41, "velocity": 61}, {"time": 927, "pitch": 49, "duration": 10, "velocity": 59}, {"time": 939, "pitch": 49, "duration": 9, "velocity": 58}, {"time": 948, "pitch": 52, "duration": 3, "velocity": 83}, {"time": 948, "pitch": 49, "duration": 4, "velocity": 74}, {"time": 951, "pitch": 56, "duration": 4, "velocity": 83}, {"time": 951, "pitch": 56, "duration": 4, "velocity": 67}, {"time": 954, "pitch": 52, "duration": 3, "velocity": 83}, {"time": 957, "pitch": 30, "duration": 37, "velocity": 83}, {"time": 957, "pitch": 46, "duration": 12, "velocity": 83}, {"time": 957, "pitch": 49, "duration": 12, "velocity": 83}, {"time": 957, "pitch": 54, "duration": 12, "velocity": 83}, {"time": 957, "pitch": 58, "duration": 11, "velocity": 83}, {"time": 957, "pitch": 61, "duration": 11, "velocity": 83}, {"time": 957, "pitch": 66, "duration": 11, "velocity": 83}, {"time": 963, "pitch": 37, "duration": 30, "velocity": 83}, {"time": 969, "pitch": 46, "duration": 11, "velocity": 83}, {"time": 969, "pitch": 49, "duration": 12, "velocity": 83}, {"time": 969, "pitch": 54, "duration": 11, "velocity": 83}, {"time": 969, "pitch": 58, "duration": 11, "velocity": 83}, {"time": 969, "pitch": 61, "duration": 11, "velocity": 83}, {"time": 969, "pitch": 66, "duration": 11, "velocity": 83}, {"time": 981, "pitch": 46, "duration": 12, "velocity": 83}, {"time": 981, "pitch": 49, "duration": 12, "velocity": 83}, {"time": 981, "pitch": 54, "duration": 12, "velocity": 83}, {"time": 981, "pitch": 58, "duration": 11, "velocity": 83}, {"time": 981, "pitch": 61, "duration": 11, "velocity": 83}, {"time": 981, "pitch": 66, "duration": 11, "velocity": 83}, {"time": 993, "pitch": 42, "duration": 2, "velocity": 83}, {"time": 993, "pitch": 58, "duration": 2, "velocity": 83}, {"time": 993, "pitch": 61, "duration": 2, "velocity": 83}, {"time": 993, "pitch": 66, "duration": 1, "velocity": 83}, {"time": 996, "pitch": 42, "duration": 3, "velocity": 83}, {"time": 996, "pitch": 58, "duration": 3, "velocity": 83}, {"time": 996, "pitch": 61, "duration": 3, "velocity": 83}, {"time": 996, "pitch": 66, "duration": 3, "velocity": 83}, {"time": 1005, "pitch": 49, "duration": 25, "velocity": 83}, {"time": 1005, "pitch": 64, "duration": 11, "velocity": 83}, {"time": 1005, "pitch": 68, "duration": 12, "velocity": 83}, {"time": 1005, "pitch": 73, "duration": 11, "velocity": 83}, {"time": 1011, "pitch": 56, "duration": 18, "velocity": 83}, {"time": 1017, "pitch": 64, "duration": 12, "velocity": 83}, {"time": 1017, "pitch": 68, "duration": 12, "velocity": 83}, {"time": 1017, "pitch": 73, "duration": 12, "velocity": 83}, {"time": 1029, "pitch": 42, "duration": 18, "velocity": 83}, {"time": 1029, "pitch": 58, "duration": 11, "velocity": 83}, {"time": 1029, "pitch": 61, "duration": 11, "velocity": 83}, {"time": 1029, "pitch": 66, "duration": 11, "velocity": 83}, {"time": 1035, "pitch": 49, "duration": 13, "velocity": 84}, {"time": 1041, "pitch": 58, "duration": 6, "velocity": 84}, {"time": 1041, "pitch": 61, "duration": 6, "velocity": 84}, {"time": 1041, "pitch": 66, "duration": 7, "velocity": 84}, {"time": 1053, "pitch": 47, "duration": 10, "velocity": 84}, {"time": 1053, "pitch": 63, "duration": 11, "velocity": 84}, {"time": 1053, "pitch": 66, "duration": 11, "velocity": 84}, {"time": 1053, "pitch": 71, "duration": 9, "velocity": 84}, {"time": 1059, "pitch": 54, "duration": 6, "velocity": 84}, {"time": 1065, "pitch": 46, "duration": 7, "velocity": 84}, {"time": 1065, "pitch": 61, "duration": 7, "velocity": 84}, {"time": 1077, "pitch": 44, "duration": 21, "velocity": 84}, {"time": 1077, "pitch": 59, "duration": 12, "velocity": 84}, {"time": 1077, "pitch": 63, "duration": 12, "velocity": 84}, {"time": 1077, "pitch": 68, "duration": 12, "velocity": 84}, {"time": 1083, "pitch": 51, "duration": 14, "velocity": 84}, {"time": 1089, "pitch": 59, "duration": 11, "velocity": 84}, {"time": 1089, "pitch": 63, "duration": 10, "velocity": 84}, {"time": 1089, "pitch": 68, "duration": 10, "velocity": 84}, {"time": 1101, "pitch": 40, "duration": 23, "velocity": 84}, {"time": 1101, "pitch": 56, "duration": 11, "velocity": 84}, {"time": 1101, "pitch": 59, "duration": 11, "velocity": 84}, {"time": 1101, "pitch": 64, "duration": 11, "velocity": 84}, {"time": 1107, "pitch": 47, "duration": 18, "velocity": 84}, {"time": 1113, "pitch": 56, "duration": 10, "velocity": 84}, {"time": 1113, "pitch": 59, "duration": 10, "velocity": 84}, {"time": 1113, "pitch": 64, "duration": 10, "velocity": 84}, {"time": 1119, "pitch": 52, "duration": 5, "velocity": 84}, {"time": 1125, "pitch": 42, "duration": 18, "velocity": 84}, {"time": 1125, "pitch": 58, "duration": 11, "velocity": 84}, {"time": 1125, "pitch": 61, "duration": 11, "velocity": 84}, {"time": 1125, "pitch": 66, "duration": 11, "velocity": 84}, {"time": 1131, "pitch": 49, "duration": 13, "velocity": 84}, {"time": 1137, "pitch": 58, "duration": 7, "velocity": 84}, {"time": 1137, "pitch": 61, "duration": 7, "velocity": 84}, {"time": 1137, "pitch": 66, "duration": 7, "velocity": 84}, {"time": 1143, "pitch": 54, "duration": 6, "velocity": 84}, {"time": 1149, "pitch": 47, "duration": 41, "velocity": 84}, {"time": 1149, "pitch": 63, "duration": 11, "velocity": 84}, {"time": 1149, "pitch": 66, "duration": 11, "velocity": 84}, {"time": 1149, "pitch": 71, "duration": 11, "velocity": 84}, {"time": 1155, "pitch": 54, "duration": 32, "velocity": 84}, {"time": 1161, "pitch": 63, "duration": 12, "velocity": 84}, {"time": 1161, "pitch": 66, "duration": 11, "velocity": 84}, {"time": 1161, "pitch": 71, "duration": 11, "velocity": 84}, {"time": 1167, "pitch": 59, "duration": 10, "velocity": 84}, {"time": 1173, "pitch": 63, "duration": 11, "velocity": 84}, {"time": 1173, "pitch": 66, "duration": 12, "velocity": 84}, {"time": 1173, "pitch": 71, "duration": 11, "velocity": 84}, {"time": 1179, "pitch": 51, "duration": 10, "velocity": 84}, {"time": 1179, "pitch": 59, "duration": 6, "velocity": 84}, {"time": 1185, "pitch": 63, "duration": 6, "velocity": 84}, {"time": 1185, "pitch": 66, "duration": 6, "velocity": 84}, {"time": 1185, "pitch": 71, "duration": 6, "velocity": 84}, {"time": 1197, "pitch": 49, "duration": 18, "velocity": 84}, {"time": 1197, "pitch": 64, "duration": 12, "velocity": 84}, {"time": 1197, "pitch": 68, "duration": 12, "velocity": 84}, {"time": 1197, "pitch": 73, "duration": 12, "velocity": 84}, {"time": 1203, "pitch": 56, "duration": 10, "velocity": 84}, {"time": 1209, "pitch": 64, "duration": 6, "velocity": 84}, {"time": 1209, "pitch": 68, "duration": 6, "velocity": 84}, {"time": 1209, "pitch": 73, "duration": 6, "velocity": 84}, {"time": 1218, "pitch": 58, "duration": 2, "velocity": 84}, {"time": 1221, "pitch": 42, "duration": 19, "velocity": 84}, {"time": 1221, "pitch": 58, "duration": 11, "velocity": 84}, {"time": 1221, "pitch": 61, "duration": 11, "velocity": 84}, {"time": 1221, "pitch": 66, "duration": 11, "velocity": 84}, {"time": 1227, "pitch": 49, "duration": 13, "velocity": 84}, {"time": 1233, "pitch": 58, "duration": 7, "velocity": 84}, {"time": 1233, "pitch": 61, "duration": 7, "velocity": 84}, {"time": 1233, "pitch": 66, "duration": 7, "velocity": 84}, {"time": 1239, "pitch": 54, "duration": 7, "velocity": 84}, {"time": 1245, "pitch": 47, "duration": 10, "velocity": 84}, {"time": 1245, "pitch": 63, "duration": 8, "velocity": 84}, {"time": 1245, "pitch": 66, "duration": 19, "velocity": 84}, {"time": 1245, "pitch": 71, "duration": 19, "velocity": 84}, {"time": 1254, "pitch": 49, "duration": 3, "velocity": 84}, {"time": 1257, "pitch": 46, "duration": 7, "velocity": 84}, {"time": 1257, "pitch": 61, "duration": 8, "velocity": 84}, {"time": 1269, "pitch": 44, "duration": 19, "velocity": 84}, {"time": 1269, "pitch": 59, "duration": 12, "velocity": 84}, {"time": 1269, "pitch": 63, "duration": 12, "velocity": 84}, {"time": 1269, "pitch": 68, "duration": 11, "velocity": 84}, {"time": 1275, "pitch": 51, "duration": 13, "velocity": 84}, {"time": 1281, "pitch": 59, "duration": 6, "velocity": 84}, {"time": 1281, "pitch": 63, "duration": 6, "velocity": 84}, {"time": 1281, "pitch": 68, "duration": 6, "velocity": 84}, {"time": 1293, "pitch": 39, "duration": 42, "velocity": 84}, {"time": 1293, "pitch": 55, "duration": 10, "velocity": 84}, {"time": 1299, "pitch": 46, "duration": 37, "velocity": 84}, {"time": 1305, "pitch": 55, "duration": 11, "velocity": 84}, {"time": 1305, "pitch": 58, "duration": 11, "velocity": 84}, {"time": 1305, "pitch": 63, "duration": 11, "velocity": 84}, {"time": 1308, "pitch": 43, "duration": 28, "velocity": 84}, {"time": 1311, "pitch": 51, "duration": 9, "velocity": 84}, {"time": 1317, "pitch": 55, "duration": 11, "velocity": 84}, {"time": 1317, "pitch": 58, "duration": 11, "velocity": 84}, {"time": 1317, "pitch": 63, "duration": 7, "velocity": 84}, {"time": 1323, "pitch": 51, "duration": 7, "velocity": 84}, {"time": 1329, "pitch": 55, "duration": 7, "velocity": 84}, {"time": 1329, "pitch": 58, "duration": 6, "velocity": 84}, {"time": 1329, "pitch": 63, "duration": 6, "velocity": 84}, {"time": 1335, "pitch": 51, "duration": 6, "velocity": 84}, {"time": 1341, "pitch": 44, "duration": 44, "velocity": 84}, {"time": 1341, "pitch": 60, "duration": 7, "velocity": 84}, {"time": 1341, "pitch": 63, "duration": 8, "velocity": 84}, {"time": 1341, "pitch": 68, "duration": 8, "velocity": 84}, {"time": 1347, "pitch": 51, "duration": 39, "velocity": 84}, {"time": 1353, "pitch": 60, "duration": 10, "velocity": 84}, {"time": 1353, "pitch": 63, "duration": 10, "velocity": 84}, {"time": 1353, "pitch": 68, "duration": 10, "velocity": 84}, {"time": 1359, "pitch": 56, "duration": 14, "velocity": 84}, {"time": 1365, "pitch": 48, "duration": 20, "velocity": 84}, {"time": 1365, "pitch": 60, "duration": 11, "velocity": 84}, {"time": 1365, "pitch": 63, "duration": 11, "velocity": 84}, {"time": 1365, "pitch": 68, "duration": 11, "velocity": 84}, {"time": 1377, "pitch": 60, "duration": 11, "velocity": 84}, {"time": 1377, "pitch": 63, "duration": 11, "velocity": 84}, {"time": 1377, "pitch": 68, "duration": 9, "velocity": 84}, {"time": 1383, "pitch": 56, "duration": 7, "velocity": 84}, {"time": 1389, "pitch": 35, "duration": 49, "velocity": 84}, {"time": 1392, "pitch": 47, "duration": 3, "velocity": 84}, {"time": 1395, "pitch": 51, "duration": 3, "velocity": 84}, {"time": 1398, "pitch": 47, "duration": 4, "velocity": 84}, {"time": 1401, "pitch": 51, "duration": 3, "velocity": 84}, {"time": 1404, "pitch": 47, "duration": 4, "velocity": 84}, {"time": 1407, "pitch": 51, "duration": 3, "velocity": 84}, {"time": 1410, "pitch": 47, "duration": 4, "velocity": 84}, {"time": 1413, "pitch": 51, "duration": 4, "velocity": 84}, {"time": 1416, "pitch": 47, "duration": 4, "velocity": 84}, {"time": 1419, "pitch": 51, "duration": 3, "velocity": 84}, {"time": 1422, "pitch": 47, "duration": 4, "velocity": 84}, {"time": 1425, "pitch": 51, "duration": 3, "velocity": 84}, {"time": 1428, "pitch": 47, "duration": 4, "velocity": 84}, {"time": 1431, "pitch": 51, "duration": 4, "velocity": 84}, {"time": 1434, "pitch": 47, "duration": 4, "velocity": 84}, {"time": 1437, "pitch": 37, "duration": 48, "velocity": 84}, {"time": 1440, "pitch": 49, "duration": 4, "velocity": 84}, {"time": 1443, "pitch": 52, "duration": 4, "velocity": 84}, {"time": 1446, "pitch": 49, "duration": 4, "velocity": 84}, {"time": 1449, "pitch": 52, "duration": 3, "velocity": 84}, {"time": 1452, "pitch": 49, "duration": 4, "velocity": 84}, {"time": 1455, "pitch": 52, "duration": 4, "velocity": 84}, {"time": 1458, "pitch": 49, "duration": 4, "velocity": 84}, {"time": 1461, "pitch": 52, "duration": 4, "velocity": 84}, {"time": 1464, "pitch": 49, "duration": 4, "velocity": 84}, {"time": 1467, "pitch": 52, "duration": 4, "velocity": 84}, {"time": 1470, "pitch": 49, "duration": 4, "velocity": 84}, {"time": 1473, "pitch": 52, "duration": 4, "velocity": 84}, {"time": 1476, "pitch": 49, "duration": 3, "velocity": 84}, {"time": 1479, "pitch": 52, "duration": 4, "velocity": 84}, {"time": 1482, "pitch": 49, "duration": 2, "velocity": 84}, {"time": 1485, "pitch": 35, "duration": 49, "velocity": 84}, {"time": 1485, "pitch": 51, "duration": 3, "velocity": 84}, {"time": 1488, "pitch": 47, "duration": 4, "velocity": 84}, {"time": 1491, "pitch": 51, "duration": 3, "velocity": 84}, {"time": 1494, "pitch": 47, "duration": 3, "velocity": 84}, {"time": 1497, "pitch": 51, "duration": 4, "velocity": 84}, {"time": 1500, "pitch": 47, "duration": 4, "velocity": 84}, {"time": 1503, "pitch": 51, "duration": 4, "velocity": 84}, {"time": 1506, "pitch": 47, "duration": 4, "velocity": 84}, {"time": 1509, "pitch": 51, "duration": 4, "velocity": 84}, {"time": 1512, "pitch": 47, "duration": 4, "velocity": 84}, {"time": 1515, "pitch": 51, "duration": 4, "velocity": 85}, {"time": 1518, "pitch": 47, "duration": 4, "velocity": 85}, {"time": 1521, "pitch": 51, "duration": 4, "velocity": 85}, {"time": 1524, "pitch": 47, "duration": 4, "velocity": 85}, {"time": 1527, "pitch": 51, "duration": 4, "velocity": 85}, {"time": 1530, "pitch": 47, "duration": 3, "velocity": 85}, {"time": 1533, "pitch": 37, "duration": 50, "velocity": 85}, {"time": 1533, "pitch": 52, "duration": 3, "velocity": 85}, {"time": 1536, "pitch": 49, "duration": 4, "velocity": 85}, {"time": 1539, "pitch": 52, "duration": 4, "velocity": 85}, {"time": 1542, "pitch": 49, "duration": 4, "velocity": 85}, {"time": 1545, "pitch": 52, "duration": 4, "velocity": 85}, {"time": 1548, "pitch": 49, "duration": 3, "velocity": 85}, {"time": 1551, "pitch": 52, "duration": 4, "velocity": 85}, {"time": 1554, "pitch": 49, "duration": 4, "velocity": 85}, {"time": 1557, "pitch": 52, "duration": 4, "velocity": 85}, {"time": 1560, "pitch": 49, "duration": 4, "velocity": 85}, {"time": 1563, "pitch": 52, "duration": 4, "velocity": 85}, {"time": 1566, "pitch": 49, "duration": 4, "velocity": 85}, {"time": 1569, "pitch": 52, "duration": 4, "velocity": 85}, {"time": 1572, "pitch": 49, "duration": 4, "velocity": 85}, {"time": 1575, "pitch": 52, "duration": 4, "velocity": 85}, {"time": 1578, "pitch": 49, "duration": 2, "velocity": 85}, {"time": 1581, "pitch": 51, "duration": 4, "velocity": 85}, {"time": 1581, "pitch": 35, "duration": 42, "velocity": 60}, {"time": 1584, "pitch": 42, "duration": 46, "velocity": 61}, {"time": 1587, "pitch": 47, "duration": 7, "velocity": 59}, {"time": 1590, "pitch": 51, "duration": 11, "velocity": 61}, {"time": 1593, "pitch": 54, "duration": 11, "velocity": 61}, {"time": 1596, "pitch": 47, "duration": 10, "velocity": 57}, {"time": 1602, "pitch": 51, "duration": 14, "velocity": 66}, {"time": 1605, "pitch": 59, "duration": 11, "velocity": 72}, {"time": 1611, "pitch": 47, "duration": 7, "velocity": 58}, {"time": 1617, "pitch": 51, "duration": 7, "velocity": 71}, {"time": 1617, "pitch": 54, "duration": 7, "velocity": 73}, {"time": 1617, "pitch": 59, "duration": 8, "velocity": 71}, {"time": 1623, "pitch": 47, "duration": 6, "velocity": 58}, {"time": 1629, "pitch": 37, "duration": 43, "velocity": 90}, {"time": 1629, "pitch": 52, "duration": 6, "velocity": 53}, {"time": 1632, "pitch": 44, "duration": 40, "velocity": 63}, {"time": 1635, "pitch": 49, "duration": 7, "velocity": 64}, {"time": 1638, "pitch": 52, "duration": 14, "velocity": 81}, {"time": 1641, "pitch": 56, "duration": 12, "velocity": 65}, {"time": 1644, "pitch": 49, "duration": 11, "velocity": 64}, {"time": 1653, "pitch": 52, "duration": 11, "velocity": 54}, {"time": 1653, "pitch": 56, "duration": 12, "velocity": 44}, {"time": 1653, "pitch": 61, "duration": 11, "velocity": 74}, {"time": 1659, "pitch": 49, "duration": 7, "velocity": 51}, {"time": 1665, "pitch": 52, "duration": 5, "velocity": 72}, {"time": 1665, "pitch": 56, "duration": 7, "velocity": 74}, {"time": 1665, "pitch": 61, "duration": 6, "velocity": 67}, {"time": 1671, "pitch": 52, "duration": 7, "velocity": 74}, {"time": 1674, "pitch": 56, "duration": 4, "velocity": 72}, {"time": 1677, "pitch": 44, "duration": 18, "velocity": 61}, {"time": 1680, "pitch": 51, "duration": 14, "velocity": 64}, {"time": 1683, "pitch": 56, "duration": 9, "velocity": 58}, {"time": 1686, "pitch": 59, "duration": 8, "velocity": 67}, {"time": 1692, "pitch": 63, "duration": 7, "velocity": 64}, {"time": 1698, "pitch": 59, "duration": 4, "velocity": 61}, {"time": 1701, "pitch": 39, "duration": 22, "velocity": 79}, {"time": 1704, "pitch": 46, "duration": 22, "velocity": 61}, {"time": 1707, "pitch": 51, "duration": 7, "velocity": 60}, {"time": 1710, "pitch": 54, "duration": 13, "velocity": 75}, {"time": 1716, "pitch": 51, "duration": 7, "velocity": 65}, {"time": 1722, "pitch": 58, "duration": 4, "velocity": 69}, {"time": 1725, "pitch": 40, "duration": 20, "velocity": 76}, {"time": 1725, "pitch": 56, "duration": 17, "velocity": 75}, {"time": 1728, "pitch": 47, "duration": 17, "velocity": 61}, {"time": 1731, "pitch": 52, "duration": 6, "velocity": 71}, {"time": 1734, "pitch": 59, "duration": 12, "velocity": 81}, {"time": 1740, "pitch": 52, "duration": 3, "velocity": 63}, {"time": 1746, "pitch": 56, "duration": 4, "velocity": 71}, {"time": 1749, "pitch": 35, "duration": 22, "velocity": 93}, {"time": 1752, "pitch": 42, "duration": 22, "velocity": 61}, {"time": 1755, "pitch": 47, "duration": 7, "velocity": 60}, {"time": 1758, "pitch": 51, "duration": 13, "velocity": 75}, {"time": 1764, "pitch": 47, "duration": 9, "velocity": 65}, {"time": 1770, "pitch": 54, "duration": 4, "velocity": 61}, {"time": 1773, "pitch": 37, "duration": 46, "velocity": 83}, {"time": 1773, "pitch": 52, "duration": 19, "velocity": 81}, {"time": 1779, "pitch": 44, "duration": 40, "velocity": 65}, {"time": 1782, "pitch": 56, "duration": 14, "velocity": 74}, {"time": 1788, "pitch": 49, "duration": 11, "velocity": 59}, {"time": 1794, "pitch": 52, "duration": 2, "velocity": 31}, {"time": 1797, "pitch": 52, "duration": 11, "velocity": 72}, {"time": 1797, "pitch": 56, "duration": 11, "velocity": 64}, {"time": 1797, "pitch": 61, "duration": 11, "velocity": 76}, {"time": 1803, "pitch": 49, "duration": 9, "velocity": 58}, {"time": 1809, "pitch": 61, "duration": 10, "velocity": 74}, {"time": 1812, "pitch": 52, "duration": 3, "velocity": 86}, {"time": 1815, "pitch": 56, "duration": 4, "velocity": 86}, {"time": 1815, "pitch": 49, "duration": 4, "velocity": 65}, {"time": 1818, "pitch": 52, "duration": 3, "velocity": 86}, {"time": 1821, "pitch": 30, "duration": 37, "velocity": 86}, {"time": 1821, "pitch": 46, "duration": 12, "velocity": 86}, {"time": 1821, "pitch": 49, "duration": 12, "velocity": 86}, {"time": 1821, "pitch": 54, "duration": 12, "velocity": 86}, {"time": 1821, "pitch": 58, "duration": 11, "velocity": 86}, {"time": 1821, "pitch": 61, "duration": 11, "velocity": 86}, {"time": 1821, "pitch": 66, "duration": 11, "velocity": 86}, {"time": 1827, "pitch": 37, "duration": 30, "velocity": 86}, {"time": 1833, "pitch": 46, "duration": 11, "velocity": 86}, {"time": 1833, "pitch": 49, "duration": 12, "velocity": 86}, {"time": 1833, "pitch": 54, "duration": 11, "velocity": 86}, {"time": 1833, "pitch": 58, "duration": 11, "velocity": 86}, {"time": 1833, "pitch": 61, "duration": 11, "velocity": 86}, {"time": 1833, "pitch": 66, "duration": 11, "velocity": 86}, {"time": 1845, "pitch": 46, "duration": 12, "velocity": 86}, {"time": 1845, "pitch": 49, "duration": 12, "velocity": 86}, {"time": 1845, "pitch": 54, "duration": 12, "velocity": 86}, {"time": 1845, "pitch": 58, "duration": 11, "velocity": 86}, {"time": 1845, "pitch": 61, "duration": 11, "velocity": 86}, {"time": 1845, "pitch": 66, "duration": 11, "velocity": 86}, {"time": 1857, "pitch": 42, "duration": 2, "velocity": 86}, {"time": 1857, "pitch": 58, "duration": 2, "velocity": 86}, {"time": 1857, "pitch": 61, "duration": 2, "velocity": 86}, {"time": 1857, "pitch": 66, "duration": 1, "velocity": 86}, {"time": 1860, "pitch": 42, "duration": 3, "velocity": 86}, {"time": 1860, "pitch": 58, "duration": 3, "velocity": 86}, {"time": 1860, "pitch": 61, "duration": 3, "velocity": 86}, {"time": 1860, "pitch": 66, "duration": 3, "velocity": 86}, {"time": 1869, "pitch": 49, "duration": 25, "velocity": 86}, {"time": 1869, "pitch": 64, "duration": 11, "velocity": 86}, {"time": 1869, "pitch": 68, "duration": 12, "velocity": 86}, {"time": 1869, "pitch": 73, "duration": 11, "velocity": 86}, {"time": 1875, "pitch": 56, "duration": 18, "velocity": 86}, {"time": 1881, "pitch": 64, "duration": 12, "velocity": 86}, {"time": 1881, "pitch": 68, "duration": 12, "velocity": 86}, {"time": 1881, "pitch": 73, "duration": 12, "velocity": 86}, {"time": 1893, "pitch": 42, "duration": 18, "velocity": 86}, {"time": 1893, "pitch": 58, "duration": 11, "velocity": 86}, {"time": 1893, "pitch": 61, "duration": 11, "velocity": 86}, {"time": 1893, "pitch": 66, "duration": 11, "velocity": 86}, {"time": 1899, "pitch": 49, "duration": 13, "velocity": 86}, {"time": 1905, "pitch": 58, "duration": 6, "velocity": 86}, {"time": 1905, "pitch": 61, "duration": 6, "velocity": 86}, {"time": 1905, "pitch": 66, "duration": 7, "velocity": 86}, {"time": 1917, "pitch": 47, "duration": 10, "velocity": 86}, {"time": 1917, "pitch": 63, "duration": 11, "velocity": 86}, {"time": 1917, "pitch": 66, "duration": 11, "velocity": 86}, {"time": 1917, "pitch": 71, "duration": 9, "velocity": 86}, {"time": 1923, "pitch": 54, "duration": 6, "velocity": 86}, {"time": 1929, "pitch": 46, "duration": 7, "velocity": 86}, {"time": 1929, "pitch": 61, "duration": 7, "velocity": 86}, {"time": 1941, "pitch": 44, "duration": 21, "velocity": 86}, {"time": 1941, "pitch": 59, "duration": 12, "velocity": 86}, {"time": 1941, "pitch": 63, "duration": 12, "velocity": 86}, {"time": 1941, "pitch": 68, "duration": 12, "velocity": 86}, {"time": 1947, "pitch": 51, "duration": 14, "velocity": 86}, {"time": 1953, "pitch": 59, "duration": 11, "velocity": 86}, {"time": 1953, "pitch": 63, "duration": 10, "velocity": 86}, {"time": 1953, "pitch": 68, "duration": 10, "velocity": 86}, {"time": 1965, "pitch": 40, "duration": 23, "velocity": 86}, {"time": 1965, "pitch": 56, "duration": 11, "velocity": 86}, {"time": 1965, "pitch": 59, "duration": 11, "velocity": 86}, {"time": 1965, "pitch": 64, "duration": 11, "velocity": 86}, {"time": 1971, "pitch": 47, "duration": 18, "velocity": 86}, {"time": 1977, "pitch": 56, "duration": 10, "velocity": 86}, {"time": 1977, "pitch": 59, "duration": 10, "velocity": 86}, {"time": 1977, "pitch": 64, "duration": 10, "velocity": 86}, {"time": 1983, "pitch": 52, "duration": 5, "velocity": 86}, {"time": 1989, "pitch": 42, "duration": 18, "velocity": 86}, {"time": 1989, "pitch": 58, "duration": 11, "velocity": 86}, {"time": 1989, "pitch": 61, "duration": 11, "velocity": 86}, {"time": 1989, "pitch": 66, "duration": 11, "velocity": 86}, {"time": 1995, "pitch": 49, "duration": 13, "velocity": 86}, {"time": 2001, "pitch": 58, "duration": 7, "velocity": 86}, {"time": 2001, "pitch": 61, "duration": 7, "velocity": 86}, {"time": 2001, "pitch": 66, "duration": 7, "velocity": 86}, {"time": 2007, "pitch": 54, "duration": 6, "velocity": 86}, {"time": 2013, "pitch": 47, "duration": 41, "velocity": 86}, {"time": 2013, "pitch": 63, "duration": 11, "velocity": 86}, {"time": 2013, "pitch": 66, "duration": 11, "velocity": 86}, {"time": 2013, "pitch": 71, "duration": 11, "velocity": 86}, {"time": 2019, "pitch": 54, "duration": 32, "velocity": 86}, {"time": 2025, "pitch": 63, "duration": 12, "velocity": 86}, {"time": 2025, "pitch": 66, "duration": 11, "velocity": 86}, {"time": 2025, "pitch": 71, "duration": 11, "velocity": 86}, {"time": 2031, "pitch": 59, "duration": 10, "velocity": 86}, {"time": 2037, "pitch": 63, "duration": 11, "velocity": 86}, {"time": 2037, "pitch": 66, "duration": 12, "velocity": 86}, {"time": 2037, "pitch": 71, "duration": 11, "velocity": 86}, {"time": 2043, "pitch": 51, "duration": 10, "velocity": 86}, {"time": 2043, "pitch": 59, "duration": 6, "velocity": 86}, {"time": 2049, "pitch": 63, "duration": 6, "velocity": 86}, {"time": 2049, "pitch": 66, "duration": 6, "velocity": 86}, {"time": 2049, "pitch": 71, "duration": 6, "velocity": 86}, {"time": 2061, "pitch": 49, "duration": 18, "velocity": 86}, {"time": 2061, "pitch": 64, "duration": 12, "velocity": 86}, {"time": 2061, "pitch": 68, "duration": 12, "velocity": 86}, {"time": 2061, "pitch": 73, "duration": 12, "velocity": 86}, {"time": 2067, "pitch": 56, "duration": 10, "velocity": 86}, {"time": 2073, "pitch": 64, "duration": 6, "velocity": 86}, {"time": 2073, "pitch": 68, "duration": 6, "velocity": 86}, {"time": 2073, "pitch": 73, "duration": 6, "velocity": 86}, {"time": 2082, "pitch": 58, "duration": 2, "velocity": 86}, {"time": 2085, "pitch": 42, "duration": 19, "velocity": 86}, {"time": 2085, "pitch": 58, "duration": 11, "velocity": 86}, {"time": 2085, "pitch": 61, "duration": 11, "velocity": 86}, {"time": 2085, "pitch": 66, "duration": 11, "velocity": 86}, {"time": 2091, "pitch": 49, "duration": 13, "velocity": 86}, {"time": 2097, "pitch": 58, "duration": 7, "velocity": 86}, {"time": 2097, "pitch": 61, "duration": 7, "velocity": 86}, {"time": 2097, "pitch": 66, "duration": 7, "velocity": 86}, {"time": 2103, "pitch": 54, "duration": 7, "velocity": 86}, {"time": 2109, "pitch": 47, "duration": 10, "velocity": 86}, {"time": 2109, "pitch": 63, "duration": 8, "velocity": 86}, {"time": 2109, "pitch": 66, "duration": 19, "velocity": 86}, {"time": 2109, "pitch": 71, "duration": 19, "velocity": 86}, {"time": 2118, "pitch": 49, "duration": 3, "velocity": 86}, {"time": 2121, "pitch": 46, "duration": 7, "velocity": 86}, {"time": 2121, "pitch": 61, "duration": 8, "velocity": 86}, {"time": 2133, "pitch": 44, "duration": 19, "velocity": 86}, {"time": 2133, "pitch": 59, "duration": 12, "velocity": 86}, {"time": 2133, "pitch": 63, "duration": 12, "velocity": 86}, {"time": 2133, "pitch": 68, "duration": 11, "velocity": 86}, {"time": 2139, "pitch": 51, "duration": 13, "velocity": 86}, {"time": 2145, "pitch": 59, "duration": 6, "velocity": 86}, {"time": 2145, "pitch": 63, "duration": 6, "velocity": 86}, {"time": 2145, "pitch": 68, "duration": 6, "velocity": 86}, {"time": 2157, "pitch": 39, "duration": 42, "velocity": 86}, {"time": 2157, "pitch": 55, "duration": 10, "velocity": 86}, {"time": 2163, "pitch": 46, "duration": 37, "velocity": 86}, {"time": 2169, "pitch": 55, "duration": 11, "velocity": 86}, {"time": 2169, "pitch": 58, "duration": 11, "velocity": 86}, {"time": 2169, "pitch": 63, "duration": 11, "velocity": 86}, {"time": 2172, "pitch": 43, "duration": 28, "velocity": 86}, {"time": 2175, "pitch": 51, "duration": 9, "velocity": 86}, {"time": 2181, "pitch": 55, "duration": 11, "velocity": 86}, {"time": 2181, "pitch": 58, "duration": 11, "velocity": 86}, {"time": 2181, "pitch": 63, "duration": 7, "velocity": 86}, {"time": 2187, "pitch": 51, "duration": 7, "velocity": 86}, {"time": 2193, "pitch": 55, "duration": 7, "velocity": 86}, {"time": 2193, "pitch": 58, "duration": 6, "velocity": 86}, {"time": 2193, "pitch": 63, "duration": 6, "velocity": 86}, {"time": 2199, "pitch": 51, "duration": 6, "velocity": 86}, {"time": 2205, "pitch": 44, "duration": 44, "velocity": 86}, {"time": 2205, "pitch": 60, "duration": 7, "velocity": 86}, {"time": 2205, "pitch": 63, "duration": 8, "velocity": 86}, {"time": 2205, "pitch": 68, "duration": 8, "velocity": 86}, {"time": 2211, "pitch": 51, "duration": 39, "velocity": 86}, {"time": 2217, "pitch": 60, "duration": 10, "velocity": 86}, {"time": 2217, "pitch": 63, "duration": 10, "velocity": 86}, {"time": 2217, "pitch": 68, "duration": 10, "velocity": 86}, {"time": 2223, "pitch": 56, "duration": 14, "velocity": 86}, {"time": 2229, "pitch": 48, "duration": 20, "velocity": 86}, {"time": 2229, "pitch": 60, "duration": 11, "velocity": 86}, {"time": 2229, "pitch": 63, "duration": 11, "velocity": 86}, {"time": 2229, "pitch": 68, "duration": 11, "velocity": 86}, {"time": 2241, "pitch": 60, "duration": 11, "velocity": 86}, {"time": 2241, "pitch": 63, "duration": 11, "velocity": 86}, {"time": 2241, "pitch": 68, "duration": 9, "velocity": 86}, {"time": 2247, "pitch": 56, "duration": 7, "velocity": 86}, {"time": 2253, "pitch": 40, "duration": 44, "velocity": 86}, {"time": 2253, "pitch": 56, "duration": 1, "velocity": 86}, {"time": 2253, "pitch": 59, "duration": 11, "velocity": 86}, {"time": 2253, "pitch": 64, "duration": 11, "velocity": 86}, {"time": 2259, "pitch": 47, "duration": 36, "velocity": 86}, {"time": 2265, "pitch": 56, "duration": 11, "velocity": 86}, {"time": 2265, "pitch": 59, "duration": 11, "velocity": 86}, {"time": 2265, "pitch": 64, "duration": 11, "velocity": 86}, {"time": 2271, "pitch": 52, "duration": 10, "velocity": 86}, {"time": 2277, "pitch": 56, "duration": 11, "velocity": 86}, {"time": 2277, "pitch": 59, "duration": 11, "velocity": 86}, {"time": 2277, "pitch": 64, "duration": 10, "velocity": 86}, {"time": 2283, "pitch": 52, "duration": 7, "velocity": 86}, {"time": 2289, "pitch": 56, "duration": 7, "velocity": 86}, {"time": 2289, "pitch": 59, "duration": 7, "velocity": 86}, {"time": 2289, "pitch": 64, "duration": 7, "velocity": 86}, {"time": 2295, "pitch": 52, "duration": 3, "velocity": 86}, {"time": 2301, "pitch": 39, "duration": 43, "velocity": 86}, {"time": 2301, "pitch": 54, "duration": 11, "velocity": 86}, {"time": 2301, "pitch": 58, "duration": 11, "velocity": 86}, {"time": 2301, "pitch": 63, "duration": 11, "velocity": 86}, {"time": 2307, "pitch": 46, "duration": 42, "velocity": 86}, {"time": 2313, "pitch": 54, "duration": 11, "velocity": 86}, {"time": 2313, "pitch": 58, "duration": 11, "velocity": 86}, {"time": 2313, "pitch": 63, "duration": 11, "velocity": 86}, {"time": 2319, "pitch": 51, "duration": 7, "velocity": 86}, {"time": 2325, "pitch": 54, "duration": 11, "velocity": 86}, {"time": 2325, "pitch": 58, "duration": 11, "velocity": 86}, {"time": 2325, "pitch": 63, "duration": 11, "velocity": 86}, {"time": 2331, "pitch": 51, "duration": 6, "velocity": 86}, {"time": 2337, "pitch": 54, "duration": 7, "velocity": 86}, {"time": 2337, "pitch": 58, "duration": 7, "velocity": 86}, {"time": 2337, "pitch": 63, "duration": 7, "velocity": 86}, {"time": 2343, "pitch": 51, "duration": 6, "velocity": 85}, {"time": 2349, "pitch": 40, "duration": 47, "velocity": 85}, {"time": 2349, "pitch": 56, "duration": 11, "velocity": 85}, {"time": 2349, "pitch": 59, "duration": 11, "velocity": 85}, {"time": 2349, "pitch": 64, "duration": 11, "velocity": 85}, {"time": 2355, "pitch": 47, "duration": 39, "velocity": 85}, {"time": 2361, "pitch": 56, "duration": 11, "velocity": 85}, {"time": 2361, "pitch": 59, "duration": 11, "velocity": 85}, {"time": 2361, "pitch": 64, "duration": 11, "velocity": 85}, {"time": 2367, "pitch": 52, "duration": 9, "velocity": 85}, {"time": 2373, "pitch": 56, "duration": 11, "velocity": 85}, {"time": 2373, "pitch": 59, "duration": 10, "velocity": 85}, {"time": 2373, "pitch": 64, "duration": 10, "velocity": 85}, {"time": 2379, "pitch": 52, "duration": 7, "velocity": 85}, {"time": 2385, "pitch": 56, "duration": 7, "velocity": 85}, {"time": 2385, "pitch": 59, "duration": 7, "velocity": 85}, {"time": 2385, "pitch": 64, "duration": 7, "velocity": 85}, {"time": 2391, "pitch": 52, "duration": 2, "velocity": 85}, {"time": 2397, "pitch": 39, "duration": 48, "velocity": 85}, {"time": 2397, "pitch": 54, "duration": 11, "velocity": 85}, {"time": 2397, "pitch": 58, "duration": 11, "velocity": 85}, {"time": 2397, "pitch": 63, "duration": 11, "velocity": 85}, {"time": 2403, "pitch": 46, "duration": 42, "velocity": 85}, {"time": 2409, "pitch": 54, "duration": 12, "velocity": 85}, {"time": 2409, "pitch": 58, "duration": 12, "velocity": 85}, {"time": 2409, "pitch": 63, "duration": 12, "velocity": 85}, {"time": 2415, "pitch": 51, "duration": 8, "velocity": 85}, {"time": 2421, "pitch": 54, "duration": 10, "velocity": 85}, {"time": 2421, "pitch": 58, "duration": 10, "velocity": 85}, {"time": 2421, "pitch": 63, "duration": 10, "velocity": 85}, {"time": 2427, "pitch": 51, "duration": 20, "velocity": 85}, {"time": 2433, "pitch": 54, "duration": 12, "velocity": 85}, {"time": 2433, "pitch": 58, "duration": 12, "velocity": 85}, {"time": 2433, "pitch": 63, "duration": 12, "velocity": 85}, {"time": 2445, "pitch": 45, "duration": 44, "velocity": 85}, {"time": 2445, "pitch": 57, "duration": 11, "velocity": 85}, {"time": 2445, "pitch": 61, "duration": 11, "velocity": 85}, {"time": 2445, "pitch": 64, "duration": 8, "velocity": 85}, {"time": 2457, "pitch": 57, "duration": 11, "velocity": 85}, {"time": 2457, "pitch": 61, "duration": 11, "velocity": 85}, {"time": 2457, "pitch": 64, "duration": 1, "velocity": 85}, {"time": 2460, "pitch": 64, "duration": 8, "velocity": 85}, {"time": 2469, "pitch": 57, "duration": 11, "velocity": 85}, {"time": 2469, "pitch": 61, "duration": 11, "velocity": 85}, {"time": 2472, "pitch": 64, "duration": 9, "velocity": 85}, {"time": 2481, "pitch": 57, "duration": 7, "velocity": 85}, {"time": 2481, "pitch": 61, "duration": 6, "velocity": 85}, {"time": 2481, "pitch": 64, "duration": 6, "velocity": 85}, {"time": 2493, "pitch": 49, "duration": 48, "velocity": 85}, {"time": 2493, "pitch": 61, "duration": 11, "velocity": 85}, {"time": 2493, "pitch": 65, "duration": 11, "velocity": 85}, {"time": 2493, "pitch": 68, "duration": 11, "velocity": 85}, {"time": 2505, "pitch": 61, "duration": 12, "velocity": 85}, {"time": 2505, "pitch": 65, "duration": 12, "velocity": 85}, {"time": 2505, "pitch": 68, "duration": 12, "velocity": 85}, {"time": 2517, "pitch": 61, "duration": 11, "velocity": 85}, {"time": 2517, "pitch": 65, "duration": 11, "velocity": 85}, {"time": 2517, "pitch": 68, "duration": 11, "velocity": 85}, {"time": 2529, "pitch": 61, "duration": 11, "velocity": 85}, {"time": 2529, "pitch": 65, "duration": 11, "velocity": 85}, {"time": 2529, "pitch": 68, "duration": 11, "velocity": 85}, {"time": 2541, "pitch": 45, "duration": 25, "velocity": 85}, {"time": 2541, "pitch": 57, "duration": 11, "velocity": 85}, {"time": 2541, "pitch": 61, "duration": 11, "velocity": 85}, {"time": 2541, "pitch": 64, "duration": 10, "velocity": 85}, {"time": 2553, "pitch": 57, "duration": 6, "velocity": 85}, {"time": 2553, "pitch": 61, "duration": 6, "velocity": 85}, {"time": 2553, "pitch": 64, "duration": 5, "velocity": 85}, {"time": 2565, "pitch": 49, "duration": 21, "velocity": 85}, {"time": 2565, "pitch": 61, "duration": 11, "velocity": 85}, {"time": 2565, "pitch": 65, "duration": 11, "velocity": 85}, {"time": 2565, "pitch": 68, "duration": 10, "velocity": 85}, {"time": 2577, "pitch": 61, "duration": 6, "velocity": 85}, {"time": 2577, "pitch": 65, "duration": 6, "velocity": 85}, {"time": 2577, "pitch": 68, "duration": 6, "velocity": 85}, {"time": 2589, "pitch": 43, "duration": 11, "velocity": 85}, {"time": 2589, "pitch": 55, "duration": 10, "velocity": 85}, {"time": 2589, "pitch": 59, "duration": 10, "velocity": 85}, {"time": 2589, "pitch": 62, "duration": 10, "velocity": 85}, {"time": 2601, "pitch": 43, "duration": 12, "velocity": 85}, {"time": 2601, "pitch": 55, "duration": 11, "velocity": 85}, {"time": 2601, "pitch": 59, "duration": 11, "velocity": 85}, {"time": 2601, "pitch": 62, "duration": 11, "velocity": 85}, {"time": 2613, "pitch": 43, "duration": 20, "velocity": 85}, {"time": 2613, "pitch": 55, "duration": 12, "velocity": 85}, {"time": 2613, "pitch": 59, "duration": 11, "velocity": 85}, {"time": 2619, "pitch": 62, "duration": 7, "velocity": 84}, {"time": 2625, "pitch": 55, "duration": 7, "velocity": 84}, {"time": 2625, "pitch": 59, "duration": 7, "velocity": 84}, {"time": 2625, "pitch": 62, "duration": 1, "velocity": 84}, {"time": 2637, "pitch": 49, "duration": 20, "velocity": 84}, {"time": 2637, "pitch": 64, "duration": 11, "velocity": 84}, {"time": 2637, "pitch": 68, "duration": 12, "velocity": 84}, {"time": 2649, "pitch": 64, "duration": 12, "velocity": 84}, {"time": 2649, "pitch": 68, "duration": 12, "velocity": 84}, {"time": 2658, "pitch": 46, "duration": 3, "velocity": 83}, {"time": 2661, "pitch": 45, "duration": 25, "velocity": 83}, {"time": 2685, "pitch": 44, "duration": 27, "velocity": 82}, {"time": 2685, "pitch": 59, "duration": 10, "velocity": 82}, {"time": 2685, "pitch": 63, "duration": 10, "velocity": 82}, {"time": 2697, "pitch": 59, "duration": 12, "velocity": 82}, {"time": 2697, "pitch": 63, "duration": 12, "velocity": 82}, {"time": 2709, "pitch": 42, "duration": 26, "velocity": 82}, {"time": 2709, "pitch": 59, "duration": 11, "velocity": 82}, {"time": 2709, "pitch": 63, "duration": 11, "velocity": 82}, {"time": 2721, "pitch": 59, "duration": 11, "velocity": 82}, {"time": 2721, "pitch": 63, "duration": 11, "velocity": 82}, {"time": 2733, "pitch": 41, "duration": 26, "velocity": 82}, {"time": 2733, "pitch": 59, "duration": 12, "velocity": 82}, {"time": 2733, "pitch": 63, "duration": 12, "velocity": 82}, {"time": 2745, "pitch": 59, "duration": 13, "velocity": 82}, {"time": 2745, "pitch": 63, "duration": 13, "velocity": 82}, {"time": 2757, "pitch": 40, "duration": 23, "velocity": 82}, {"time": 2757, "pitch": 56, "duration": 9, "velocity": 82}, {"time": 2757, "pitch": 59, "duration": 1, "velocity": 82}, {"time": 2769, "pitch": 56, "duration": 11, "velocity": 82}, {"time": 2769, "pitch": 59, "duration": 11, "velocity": 82}, {"time": 2781, "pitch": 47, "duration": 36, "velocity": 82}, {"time": 2781, "pitch": 63, "duration": 17, "velocity": 82}, {"time": 2781, "pitch": 66, "duration": 19, "velocity": 82}, {"time": 2787, "pitch": 54, "duration": 30, "velocity": 81}, {"time": 2793, "pitch": 59, "duration": 14, "velocity": 81}, {"time": 2799, "pitch": 63, "duration": 17, "velocity": 81}, {"time": 2802, "pitch": 66, "duration": 13, "velocity": 81}, {"time": 2805, "pitch": 71, "duration": 11, "velocity": 81}, {"time": 2817, "pitch": 44, "duration": 2, "velocity": 81}, {"time": 2817, "pitch": 59, "duration": 2, "velocity": 81}, {"time": 2817, "pitch": 63, "duration": 2, "velocity": 81}, {"time": 2820, "pitch": 44, "duration": 2, "velocity": 81}, {"time": 2820, "pitch": 59, "duration": 2, "velocity": 81}, {"time": 2820, "pitch": 63, "duration": 2, "velocity": 81}, {"time": 2829, "pitch": 49, "duration": 16, "velocity": 81}, {"time": 2829, "pitch": 64, "duration": 11, "velocity": 81}, {"time": 2829, "pitch": 68, "duration": 11, "velocity": 81}, {"time": 2841, "pitch": 64, "duration": 9, "velocity": 81}, {"time": 2841, "pitch": 68, "duration": 9, "velocity": 81}, {"time": 2853, "pitch": 42, "duration": 18, "velocity": 81}, {"time": 2853, "pitch": 58, "duration": 11, "velocity": 81}, {"time": 2853, "pitch": 61, "duration": 11, "velocity": 81}, {"time": 2859, "pitch": 49, "duration": 13, "velocity": 81}, {"time": 2865, "pitch": 58, "duration": 7, "velocity": 81}, {"time": 2865, "pitch": 61, "duration": 7, "velocity": 81}, {"time": 2865, "pitch": 66, "duration": 6, "velocity": 81}, {"time": 2871, "pitch": 54, "duration": 5, "velocity": 81}, {"time": 2877, "pitch": 47, "duration": 9, "velocity": 81}, {"time": 2877, "pitch": 63, "duration": 10, "velocity": 81}, {"time": 2877, "pitch": 66, "duration": 18, "velocity": 81}, {"time": 2889, "pitch": 46, "duration": 6, "velocity": 81}, {"time": 2889, "pitch": 61, "duration": 6, "velocity": 81}, {"time": 2901, "pitch": 44, "duration": 19, "velocity": 81}, {"time": 2901, "pitch": 59, "duration": 11, "velocity": 81}, {"time": 2901, "pitch": 63, "duration": 11, "velocity": 81}, {"time": 2907, "pitch": 51, "duration": 13, "velocity": 81}, {"time": 2913, "pitch": 59, "duration": 7, "velocity": 81}, {"time": 2913, "pitch": 63, "duration": 7, "velocity": 81}, {"time": 2913, "pitch": 68, "duration": 7, "velocity": 81}, {"time": 2925, "pitch": 39, "duration": 18, "velocity": 81}, {"time": 2925, "pitch": 55, "duration": 11, "velocity": 81}, {"time": 2925, "pitch": 58, "duration": 11, "velocity": 81}, {"time": 2925, "pitch": 63, "duration": 5, "velocity": 81}, {"time": 2937, "pitch": 55, "duration": 7, "velocity": 81}, {"time": 2937, "pitch": 58, "duration": 6, "velocity": 81}, {"time": 2943, "pitch": 40, "duration": 8, "velocity": 81}, {"time": 2943, "pitch": 56, "duration": 7, "velocity": 81}, {"time": 2943, "pitch": 59, "duration": 7, "velocity": 81}, {"time": 2943, "pitch": 64, "duration": 7, "velocity": 81}, {"time": 2955, "pitch": 42, "duration": 9, "velocity": 81}, {"time": 2955, "pitch": 58, "duration": 8, "velocity": 81}, {"time": 2955, "pitch": 61, "duration": 8, "velocity": 81}, {"time": 2964, "pitch": 42, "duration": 6, "velocity": 81}, {"time": 2964, "pitch": 55, "duration": 7, "velocity": 81}, {"time": 2964, "pitch": 58, "duration": 7, "velocity": 81}, {"time": 2973, "pitch": 44, "duration": 10, "velocity": 81}, {"time": 2973, "pitch": 59, "duration": 11, "velocity": 81}, {"time": 2973, "pitch": 63, "duration": 11, "velocity": 81}, {"time": 2973, "pitch": 68, "duration": 11, "velocity": 81}, {"time": 2985, "pitch": 42, "duration": 10, "velocity": 81}, {"time": 2985, "pitch": 59, "duration": 11, "velocity": 81}, {"time": 2985, "pitch": 63, "duration": 11, "velocity": 81}, {"time": 2985, "pitch": 68, "duration": 11, "velocity": 81}, {"time": 2997, "pitch": 41, "duration": 12, "velocity": 81}, {"time": 2997, "pitch": 59, "duration": 10, "velocity": 81}, {"time": 2997, "pitch": 63, "duration": 11, "velocity": 81}, {"time": 3009, "pitch": 40, "duration": 7, "velocity": 81}, {"time": 3009, "pitch": 56, "duration": 7, "velocity": 81}, {"time": 3009, "pitch": 59, "duration": 7, "velocity": 81}, {"time": 3009, "pitch": 64, "duration": 7, "velocity": 81}, {"time": 3021, "pitch": 49, "duration": 18, "velocity": 81}, {"time": 3021, "pitch": 64, "duration": 11, "velocity": 81}, {"time": 3021, "pitch": 68, "duration": 11, "velocity": 81}, {"time": 3027, "pitch": 56, "duration": 12, "velocity": 81}, {"time": 3033, "pitch": 61, "duration": 4, "velocity": 81}, {"time": 3033, "pitch": 64, "duration": 7, "velocity": 81}, {"time": 3033, "pitch": 68, "duration": 6, "velocity": 81}, {"time": 3045, "pitch": 42, "duration": 19, "velocity": 81}, {"time": 3045, "pitch": 58, "duration": 11, "velocity": 81}, {"time": 3045, "pitch": 61, "duration": 11, "velocity": 81}, {"time": 3045, "pitch": 66, "duration": 11, "velocity": 81}, {"time": 3051, "pitch": 49, "duration": 13, "velocity": 80}, {"time": 3057, "pitch": 58, "duration": 7, "velocity": 80}, {"time": 3057, "pitch": 61, "duration": 7, "velocity": 80}, {"time": 3057, "pitch": 66, "duration": 7, "velocity": 80}, {"time": 3063, "pitch": 54, "duration": 6, "velocity": 80}, {"time": 3069, "pitch": 47, "duration": 10, "velocity": 80}, {"time": 3069, "pitch": 63, "duration": 8, "velocity": 80}, {"time": 3069, "pitch": 66, "duration": 11, "velocity": 80}, {"time": 3069, "pitch": 71, "duration": 11, "velocity": 80}, {"time": 3081, "pitch": 46, "duration": 6, "velocity": 80}, {"time": 3081, "pitch": 61, "duration": 7, "velocity": 80}, {"time": 3081, "pitch": 66, "duration": 6, "velocity": 80}, {"time": 3081, "pitch": 71, "duration": 1, "velocity": 80}, {"time": 3084, "pitch": 71, "duration": 3, "velocity": 80}, {"time": 3090, "pitch": 59, "duration": 2, "velocity": 80}, {"time": 3090, "pitch": 63, "duration": 2, "velocity": 80}, {"time": 3093, "pitch": 44, "duration": 24, "velocity": 80}, {"time": 3093, "pitch": 59, "duration": 11, "velocity": 80}, {"time": 3093, "pitch": 63, "duration": 11, "velocity": 80}, {"time": 3093, "pitch": 68, "duration": 11, "velocity": 80}, {"time": 3099, "pitch": 51, "duration": 16, "velocity": 80}, {"time": 3105, "pitch": 59, "duration": 9, "velocity": 80}, {"time": 3105, "pitch": 63, "duration": 8, "velocity": 80}, {"time": 3105, "pitch": 68, "duration": 8, "velocity": 80}, {"time": 3111, "pitch": 56, "duration": 3, "velocity": 80}, {"time": 3114, "pitch": 59, "duration": 1, "velocity": 80}, {"time": 3117, "pitch": 40, "duration": 20, "velocity": 80}, {"time": 3117, "pitch": 56, "duration": 11, "velocity": 80}, {"time": 3117, "pitch": 59, "duration": 11, "velocity": 80}, {"time": 3117, "pitch": 64, "duration": 11, "velocity": 80}, {"time": 3123, "pitch": 47, "duration": 14, "velocity": 80}, {"time": 3129, "pitch": 56, "duration": 7, "velocity": 80}, {"time": 3129, "pitch": 59, "duration": 7, "velocity": 80}, {"time": 3129, "pitch": 64, "duration": 7, "velocity": 80}, {"time": 3135, "pitch": 52, "duration": 5, "velocity": 80}, {"time": 3138, "pitch": 47, "duration": 4, "velocity": 80}, {"time": 3138, "pitch": 58, "duration": 1, "velocity": 80}, {"time": 3138, "pitch": 61, "duration": 2, "velocity": 80}, {"time": 3138, "pitch": 66, "duration": 1, "velocity": 80}, {"time": 3141, "pitch": 42, "duration": 18, "velocity": 80}, {"time": 3141, "pitch": 58, "duration": 11, "velocity": 80}, {"time": 3141, "pitch": 61, "duration": 11, "velocity": 80}, {"time": 3141, "pitch": 66, "duration": 11, "velocity": 80}, {"time": 3147, "pitch": 49, "duration": 14, "velocity": 79}, {"time": 3153, "pitch": 58, "duration": 7, "velocity": 79}, {"time": 3153, "pitch": 61, "duration": 7, "velocity": 79}, {"time": 3153, "pitch": 66, "duration": 7, "velocity": 79}, {"time": 3159, "pitch": 54, "duration": 6, "velocity": 79}, {"time": 3165, "pitch": 47, "duration": 45, "velocity": 79}, {"time": 3165, "pitch": 63, "duration": 8, "velocity": 79}, {"time": 3165, "pitch": 66, "duration": 8, "velocity": 79}, {"time": 3171, "pitch": 54, "duration": 37, "velocity": 79}, {"time": 3177, "pitch": 66, "duration": 11, "velocity": 79}, {"time": 3177, "pitch": 70, "duration": 8, "velocity": 79}, {"time": 3183, "pitch": 59, "duration": 7, "velocity": 79}, {"time": 3186, "pitch": 71, "duration": 2, "velocity": 79}, {"time": 3189, "pitch": 66, "duration": 11, "velocity": 79}, {"time": 3189, "pitch": 71, "duration": 7, "velocity": 79}, {"time": 3195, "pitch": 59, "duration": 6, "velocity": 79}, {"time": 3201, "pitch": 66, "duration": 10, "velocity": 79}, {"time": 3201, "pitch": 75, "duration": 9, "velocity": 79}, {"time": 3213, "pitch": 49, "duration": 17, "velocity": 79}, {"time": 3213, "pitch": 64, "duration": 11, "velocity": 79}, {"time": 3213, "pitch": 68, "duration": 11, "velocity": 79}, {"time": 3219, "pitch": 56, "duration": 9, "velocity": 79}, {"time": 3225, "pitch": 64, "duration": 7, "velocity": 79}, {"time": 3225, "pitch": 68, "duration": 7, "velocity": 79}, {"time": 3237, "pitch": 42, "duration": 19, "velocity": 79}, {"time": 3237, "pitch": 58, "duration": 12, "velocity": 79}, {"time": 3237, "pitch": 61, "duration": 12, "velocity": 79}, {"time": 3243, "pitch": 49, "duration": 13, "velocity": 79}, {"time": 3249, "pitch": 58, "duration": 7, "velocity": 79}, {"time": 3249, "pitch": 61, "duration": 7, "velocity": 79}, {"time": 3249, "pitch": 66, "duration": 7, "velocity": 79}, {"time": 3255, "pitch": 54, "duration": 5, "velocity": 79}, {"time": 3261, "pitch": 47, "duration": 8, "velocity": 79}, {"time": 3261, "pitch": 63, "duration": 7, "velocity": 79}, {"time": 3261, "pitch": 66, "duration": 11, "velocity": 79}, {"time": 3273, "pitch": 46, "duration": 6, "velocity": 79}, {"time": 3273, "pitch": 61, "duration": 6, "velocity": 79}, {"time": 3273, "pitch": 66, "duration": 6, "velocity": 79}, {"time": 3285, "pitch": 44, "duration": 21, "velocity": 79}, {"time": 3285, "pitch": 59, "duration": 11, "velocity": 79}, {"time": 3285, "pitch": 63, "duration": 11, "velocity": 79}, {"time": 3285, "pitch": 68, "duration": 11, "velocity": 79}, {"time": 3291, "pitch": 51, "duration": 14, "velocity": 78}, {"time": 3297, "pitch": 59, "duration": 8, "velocity": 78}, {"time": 3297, "pitch": 63, "duration": 7, "velocity": 78}, {"time": 3297, "pitch": 68, "duration": 7, "velocity": 78}, {"time": 3303, "pitch": 56, "duration": 2, "velocity": 78}, {"time": 3309, "pitch": 39, "duration": 43, "velocity": 78}, {"time": 3309, "pitch": 55, "duration": 11, "velocity": 78}, {"time": 3309, "pitch": 58, "duration": 11, "velocity": 78}, {"time": 3315, "pitch": 46, "duration": 37, "velocity": 78}, {"time": 3321, "pitch": 43, "duration": 29, "velocity": 78}, {"time": 3321, "pitch": 55, "duration": 11, "velocity": 78}, {"time": 3321, "pitch": 58, "duration": 8, "velocity": 78}, {"time": 3321, "pitch": 63, "duration": 6, "velocity": 78}, {"time": 3327, "pitch": 51, "duration": 6, "velocity": 78}, {"time": 3330, "pitch": 58, "duration": 2, "velocity": 78}, {"time": 3333, "pitch": 55, "duration": 11, "velocity": 78}, {"time": 3333, "pitch": 58, "duration": 8, "velocity": 78}, {"time": 3333, "pitch": 63, "duration": 5, "velocity": 78}, {"time": 3339, "pitch": 51, "duration": 6, "velocity": 78}, {"time": 3342, "pitch": 58, "duration": 1, "velocity": 78}, {"time": 3345, "pitch": 55, "duration": 6, "velocity": 78}, {"time": 3345, "pitch": 58, "duration": 6, "velocity": 78}, {"time": 3345, "pitch": 63, "duration": 3, "velocity": 78}, {"time": 3351, "pitch": 51, "duration": 5, "velocity": 78}, {"time": 3357, "pitch": 44, "duration": 50, "velocity": 78}, {"time": 3357, "pitch": 60, "duration": 19, "velocity": 78}, {"time": 3357, "pitch": 63, "duration": 19, "velocity": 78}, {"time": 3357, "pitch": 68, "duration": 19, "velocity": 78}, {"time": 3363, "pitch": 51, "duration": 42, "velocity": 78}, {"time": 3369, "pitch": 56, "duration": 37, "velocity": 78}, {"time": 3375, "pitch": 48, "duration": 30, "velocity": 78}, {"time": 3381, "pitch": 60, "duration": 25, "velocity": 78}, {"time": 3381, "pitch": 63, "duration": 24, "velocity": 78}, {"time": 3405, "pitch": 35, "duration": 49, "velocity": 78}, {"time": 3408, "pitch": 47, "duration": 3, "velocity": 78}, {"time": 3411, "pitch": 51, "duration": 3, "velocity": 78}, {"time": 3414, "pitch": 47, "duration": 3, "velocity": 78}, {"time": 3417, "pitch": 51, "duration": 3, "velocity": 78}, {"time": 3420, "pitch": 47, "duration": 3, "velocity": 78}, {"time": 3423, "pitch": 51, "duration": 3, "velocity": 78}, {"time": 3426, "pitch": 47, "duration": 3, "velocity": 78}, {"time": 3429, "pitch": 51, "duration": 3, "velocity": 78}, {"time": 3432, "pitch": 47, "duration": 4, "velocity": 78}, {"time": 3435, "pitch": 51, "duration": 3, "velocity": 78}, {"time": 3438, "pitch": 47, "duration": 4, "velocity": 78}, {"time": 3441, "pitch": 51, "duration": 3, "velocity": 78}, {"time": 3444, "pitch": 47, "duration": 3, "velocity": 78}, {"time": 3447, "pitch": 51, "duration": 4, "velocity": 78}, {"time": 3450, "pitch": 47, "duration": 3, "velocity": 78}, {"time": 3453, "pitch": 37, "duration": 49, "velocity": 78}, {"time": 3456, "pitch": 49, "duration": 3, "velocity": 78}, {"time": 3459, "pitch": 52, "duration": 3, "velocity": 78}, {"time": 3462, "pitch": 49, "duration": 4, "velocity": 78}, {"time": 3465, "pitch": 52, "duration": 3, "velocity": 78}, {"time": 3468, "pitch": 49, "duration": 3, "velocity": 78}, {"time": 3471, "pitch": 52, "duration": 3, "velocity": 78}, {"time": 3474, "pitch": 49, "duration": 3, "velocity": 78}, {"time": 3477, "pitch": 52, "duration": 3, "velocity": 78}, {"time": 3480, "pitch": 49, "duration": 3, "velocity": 78}, {"time": 3483, "pitch": 52, "duration": 4, "velocity": 78}, {"time": 3486, "pitch": 49, "duration": 3, "velocity": 78}, {"time": 3489, "pitch": 52, "duration": 4, "velocity": 78}, {"time": 3492, "pitch": 49, "duration": 3, "velocity": 78}, {"time": 3495, "pitch": 52, "duration": 4, "velocity": 78}, {"time": 3498, "pitch": 49, "duration": 3, "velocity": 78}, {"time": 3501, "pitch": 35, "duration": 49, "velocity": 78}, {"time": 3504, "pitch": 47, "duration": 3, "velocity": 78}, {"time": 3507, "pitch": 51, "duration": 4, "velocity": 78}, {"time": 3510, "pitch": 47, "duration": 4, "velocity": 78}, {"time": 3513, "pitch": 51, "duration": 3, "velocity": 78}, {"time": 3516, "pitch": 47, "duration": 3, "velocity": 78}, {"time": 3519, "pitch": 51, "duration": 3, "velocity": 78}, {"time": 3522, "pitch": 47, "duration": 4, "velocity": 78}, {"time": 3525, "pitch": 51, "duration": 3, "velocity": 78}, {"time": 3528, "pitch": 47, "duration": 4, "velocity": 78}, {"time": 3531, "pitch": 51, "duration": 3, "velocity": 78}, {"time": 3534, "pitch": 47, "duration": 4, "velocity": 78}, {"time": 3537, "pitch": 51, "duration": 3, "velocity": 78}, {"time": 3540, "pitch": 47, "duration": 4, "velocity": 78}, {"time": 3543, "pitch": 51, "duration": 3, "velocity": 78}, {"time": 3546, "pitch": 47, "duration": 3, "velocity": 78}, {"time": 3549, "pitch": 37, "duration": 49, "velocity": 78}, {"time": 3552, "pitch": 49, "duration": 4, "velocity": 78}, {"time": 3555, "pitch": 52, "duration": 3, "velocity": 78}, {"time": 3558, "pitch": 49, "duration": 4, "velocity": 78}, {"time": 3561, "pitch": 52, "duration": 3, "velocity": 78}, {"time": 3564, "pitch": 49, "duration": 4, "velocity": 78}, {"time": 3567, "pitch": 52, "duration": 3, "velocity": 78}, {"time": 3570, "pitch": 49, "duration": 4, "velocity": 78}, {"time": 3573, "pitch": 52, "duration": 4, "velocity": 78}, {"time": 3576, "pitch": 49, "duration": 3, "velocity": 78}, {"time": 3579, "pitch": 52, "duration": 3, "velocity": 78}, {"time": 3582, "pitch": 49, "duration": 3, "velocity": 78}, {"time": 3585, "pitch": 52, "duration": 3, "velocity": 78}, {"time": 3588, "pitch": 49, "duration": 4, "velocity": 78}, {"time": 3591, "pitch": 52, "duration": 3, "velocity": 78}, {"time": 3594, "pitch": 49, "duration": 3, "velocity": 78}, {"time": 3597, "pitch": 35, "duration": 49, "velocity": 78}, {"time": 3600, "pitch": 47, "duration": 3, "velocity": 78}, {"time": 3603, "pitch": 51, "duration": 3, "velocity": 78}, {"time": 3606, "pitch": 47, "duration": 3, "velocity": 78}, {"time": 3609, "pitch": 51, "duration": 3, "velocity": 78}, {"time": 3612, "pitch": 47, "duration": 3, "velocity": 78}, {"time": 3615, "pitch": 51, "duration": 3, "velocity": 78}, {"time": 3618, "pitch": 47, "duration": 3, "velocity": 78}, {"time": 3621, "pitch": 51, "duration": 3, "velocity": 78}, {"time": 3624, "pitch": 47, "duration": 3, "velocity": 78}, {"time": 3627, "pitch": 51, "duration": 2, "velocity": 78}, {"time": 3630, "pitch": 47, "duration": 4, "velocity": 78}, {"time": 3633, "pitch": 51, "duration": 3, "velocity": 78}, {"time": 3636, "pitch": 47, "duration": 4, "velocity": 78}, {"time": 3639, "pitch": 51, "duration": 2, "velocity": 78}, {"time": 3642, "pitch": 47, "duration": 3, "velocity": 78}, {"time": 3645, "pitch": 35, "duration": 1, "velocity": 78}, {"time": 3648, "pitch": 47, "duration": 3, "velocity": 78}, {"time": 3651, "pitch": 51, "duration": 3, "velocity": 78}, {"time": 3654, "pitch": 47, "duration": 3, "velocity": 78}, {"time": 3657, "pitch": 51, "duration": 3, "velocity": 78}, {"time": 3660, "pitch": 47, "duration": 3, "velocity": 78}, {"time": 3663, "pitch": 51, "duration": 3, "velocity": 78}, {"time": 3666, "pitch": 47, "duration": 3, "velocity": 78}, {"time": 3669, "pitch": 51, "duration": 3, "velocity": 79}, {"time": 3672, "pitch": 47, "duration": 4, "velocity": 79}, {"time": 3675, "pitch": 51, "duration": 3, "velocity": 79}, {"time": 3678, "pitch": 47, "duration": 3, "velocity": 79}, {"time": 3681, "pitch": 51, "duration": 3, "velocity": 79}, {"time": 3684, "pitch": 47, "duration": 3, "velocity": 79}, {"time": 3687, "pitch": 51, "duration": 3, "velocity": 79}, {"time": 3690, "pitch": 47, "duration": 3, "velocity": 79}, {"time": 3691, "pitch": 66, "duration": 2, "velocity": 79}, {"time": 3692, "pitch": 63, "duration": 1, "velocity": 79}, {"time": 3693, "pitch": 59, "duration": 1, "velocity": 79}, {"time": 3693, "pitch": 35, "duration": 1, "velocity": 79}, {"time": 3693, "pitch": 51, "duration": 8, "velocity": 79}, {"time": 3693, "pitch": 54, "duration": 3, "velocity": 79}, {"time": 3696, "pitch": 47, "duration": 30, "velocity": 79}], "annotations": [{"time": 201, "annotation": {"number": 64, "value": 30}, "group": "control_change"}, {"time": 225, "annotation": {"number": 64, "value": 32}, "group": "control_change"}, {"time": 285, "annotation": {"number": 64, "value": 33}, "group": "control_change"}, {"time": 297, "annotation": {"number": 64, "value": 35}, "group": "control_change"}]}]}