{"metadata": {"schema_version": "0.2", "title": "None", "source_filename": "068.mid", "source_format": "midi"}, "resolution": 12, "tempos": [{"time": 0, "qpm": 55.99997760000896}, {"time": 276, "qpm": 57.000031350017245}, {"time": 396, "qpm": 56.749985103128914}, {"time": 408, "qpm": 57.000031350017245}, {"time": 420, "qpm": 59.50008032510844}, {"time": 456, "qpm": 60.99997255001235}, {"time": 480, "qpm": 60.0}, {"time": 516, "qpm": 61.99999586666694}, {"time": 528, "qpm": 60.0}, {"time": 840, "qpm": 60.99997255001235}, {"time": 864, "qpm": 60.0}, {"time": 900, "qpm": 61.99999586666694}, {"time": 912, "qpm": 60.0}, {"time": 960, "qpm": 59.00006686674245}, {"time": 1008, "qpm": 60.0}, {"time": 1188, "qpm": 59.00006686674245}, {"time": 1248, "qpm": 60.0}, {"time": 1296, "qpm": 58.00004253336452}, {"time": 1356, "qpm": 60.0}, {"time": 1440, "qpm": 58.50000146250004}, {"time": 1500, "qpm": 59.00006686674245}, {"time": 1740, "qpm": 60.0}, {"time": 1788, "qpm": 58.00004253336452}, {"time": 1811, "qpm": 52.749988790627384}, {"time": 1824, "qpm": 52.50000656250082}, {"time": 1836, "qpm": 60.10000641066735}, {"time": 2220, "qpm": 58.89998390067107}, {"time": 2634, "qpm": 58.69997172618029}], "key_signatures": [{"time": 0, "root": 0, "mode": "major"}], "time_signatures": [{"time": 0, "numerator": 4, "denominator": 4}, {"time": 0, "numerator": 1, "denominator": 4}], "tracks": [{"program": 0, "is_drum": false, "name": "MELODY", "notes": [{"time": 407, "pitch": 67, "duration": 4, "velocity": 83}, {"time": 410, "pitch": 64, "duration": 4, "velocity": 60}, {"time": 413, "pitch": 72, "duration": 3, "velocity": 70}, {"time": 416, "pitch": 71, "duration": 21, "velocity": 81}, {"time": 437, "pitch": 67, "duration": 4, "velocity": 77}, {"time": 440, "pitch": 64, "duration": 63, "velocity": 83}, {"time": 503, "pitch": 67, "duration": 4, "velocity": 72}, {"time": 506, "pitch": 64, "duration": 4, "velocity": 58}, {"time": 509, "pitch": 72, "duration": 3, "velocity": 69}, {"time": 512, "pitch": 71, "duration": 9, "velocity": 64}, {"time": 521, "pitch": 72, "duration": 3, "velocity": 62}, {"time": 524, "pitch": 74, "duration": 9, "velocity": 67}, {"time": 533, "pitch": 67, "duration": 6, "velocity": 58}, {"time": 539, "pitch": 69, "duration": 60, "velocity": 60}, {"time": 599, "pitch": 69, "duration": 5, "velocity": 65}, {"time": 602, "pitch": 72, "duration": 3, "velocity": 63}, {"time": 605, "pitch": 69, "duration": 4, "velocity": 66}, {"time": 608, "pitch": 74, "duration": 36, "velocity": 73}, {"time": 644, "pitch": 76, "duration": 3, "velocity": 63}, {"time": 647, "pitch": 74, "duration": 6, "velocity": 70}, {"time": 653, "pitch": 71, "duration": 6, "velocity": 71}, {"time": 659, "pitch": 74, "duration": 6, "velocity": 69}, {"time": 665, "pitch": 72, "duration": 30, "velocity": 62}, {"time": 695, "pitch": 69, "duration": 3, "velocity": 72}, {"time": 698, "pitch": 69, "duration": 3, "velocity": 66}, {"time": 701, "pitch": 69, "duration": 4, "velocity": 73}, {"time": 704, "pitch": 67, "duration": 9, "velocity": 63}, {"time": 713, "pitch": 67, "duration": 3, "velocity": 69}, {"time": 716, "pitch": 72, "duration": 15, "velocity": 75}, {"time": 731, "pitch": 72, "duration": 9, "velocity": 59}, {"time": 740, "pitch": 69, "duration": 9, "velocity": 69}, {"time": 749, "pitch": 64, "duration": 6, "velocity": 65}, {"time": 755, "pitch": 67, "duration": 36, "velocity": 73}, {"time": 791, "pitch": 67, "duration": 4, "velocity": 83}, {"time": 794, "pitch": 64, "duration": 4, "velocity": 60}, {"time": 797, "pitch": 72, "duration": 3, "velocity": 70}, {"time": 800, "pitch": 71, "duration": 21, "velocity": 81}, {"time": 821, "pitch": 67, "duration": 4, "velocity": 77}, {"time": 824, "pitch": 64, "duration": 63, "velocity": 83}, {"time": 887, "pitch": 67, "duration": 4, "velocity": 72}, {"time": 890, "pitch": 64, "duration": 4, "velocity": 58}, {"time": 893, "pitch": 72, "duration": 3, "velocity": 69}, {"time": 896, "pitch": 71, "duration": 9, "velocity": 64}, {"time": 905, "pitch": 72, "duration": 3, "velocity": 62}, {"time": 908, "pitch": 74, "duration": 9, "velocity": 67}, {"time": 917, "pitch": 67, "duration": 6, "velocity": 58}, {"time": 923, "pitch": 69, "duration": 60, "velocity": 60}, {"time": 983, "pitch": 69, "duration": 5, "velocity": 65}, {"time": 986, "pitch": 72, "duration": 3, "velocity": 63}, {"time": 989, "pitch": 69, "duration": 4, "velocity": 66}, {"time": 992, "pitch": 74, "duration": 36, "velocity": 73}, {"time": 1028, "pitch": 76, "duration": 3, "velocity": 63}, {"time": 1031, "pitch": 74, "duration": 6, "velocity": 70}, {"time": 1037, "pitch": 71, "duration": 6, "velocity": 71}, {"time": 1043, "pitch": 74, "duration": 6, "velocity": 69}, {"time": 1049, "pitch": 72, "duration": 30, "velocity": 62}, {"time": 1079, "pitch": 69, "duration": 3, "velocity": 72}, {"time": 1082, "pitch": 69, "duration": 3, "velocity": 66}, {"time": 1085, "pitch": 69, "duration": 4, "velocity": 73}, {"time": 1088, "pitch": 67, "duration": 9, "velocity": 63}, {"time": 1097, "pitch": 67, "duration": 3, "velocity": 69}, {"time": 1100, "pitch": 72, "duration": 11, "velocity": 75}, {"time": 1109, "pitch": 67, "duration": 6, "velocity": 75}, {"time": 1115, "pitch": 74, "duration": 6, "velocity": 71}, {"time": 1121, "pitch": 76, "duration": 3, "velocity": 67}, {"time": 1124, "pitch": 74, "duration": 45, "velocity": 74}, {"time": 1169, "pitch": 72, "duration": 4, "velocity": 64}, {"time": 1172, "pitch": 74, "duration": 4, "velocity": 63}, {"time": 1175, "pitch": 76, "duration": 3, "velocity": 65}, {"time": 1178, "pitch": 79, "duration": 3, "velocity": 69}, {"time": 1181, "pitch": 79, "duration": 3, "velocity": 74}, {"time": 1184, "pitch": 76, "duration": 3, "velocity": 63}, {"time": 1187, "pitch": 79, "duration": 6, "velocity": 87}, {"time": 1193, "pitch": 72, "duration": 3, "velocity": 63}, {"time": 1196, "pitch": 76, "duration": 9, "velocity": 69}, {"time": 1205, "pitch": 74, "duration": 11, "velocity": 67}, {"time": 1214, "pitch": 69, "duration": 3, "velocity": 64}, {"time": 1217, "pitch": 69, "duration": 3, "velocity": 58}, {"time": 1220, "pitch": 71, "duration": 3, "velocity": 68}, {"time": 1223, "pitch": 72, "duration": 4, "velocity": 67}, {"time": 1226, "pitch": 71, "duration": 3, "velocity": 63}, {"time": 1229, "pitch": 69, "duration": 3, "velocity": 63}, {"time": 1232, "pitch": 72, "duration": 4, "velocity": 61}, {"time": 1235, "pitch": 76, "duration": 3, "velocity": 65}, {"time": 1238, "pitch": 79, "duration": 27, "velocity": 75}, {"time": 1265, "pitch": 69, "duration": 4, "velocity": 64}, {"time": 1268, "pitch": 71, "duration": 4, "velocity": 81}, {"time": 1271, "pitch": 72, "duration": 5, "velocity": 62}, {"time": 1276, "pitch": 74, "duration": 7, "velocity": 76}, {"time": 1283, "pitch": 72, "duration": 6, "velocity": 85}, {"time": 1289, "pitch": 67, "duration": 3, "velocity": 63}, {"time": 1292, "pitch": 76, "duration": 9, "velocity": 74}, {"time": 1301, "pitch": 69, "duration": 4, "velocity": 63}, {"time": 1304, "pitch": 72, "duration": 3, "velocity": 65}, {"time": 1307, "pitch": 74, "duration": 6, "velocity": 85}, {"time": 1313, "pitch": 72, "duration": 3, "velocity": 71}, {"time": 1316, "pitch": 69, "duration": 4, "velocity": 68}, {"time": 1319, "pitch": 72, "duration": 4, "velocity": 63}, {"time": 1322, "pitch": 74, "duration": 3, "velocity": 62}, {"time": 1325, "pitch": 76, "duration": 6, "velocity": 67}, {"time": 1331, "pitch": 74, "duration": 30, "velocity": 73}, {"time": 1361, "pitch": 72, "duration": 4, "velocity": 67}, {"time": 1364, "pitch": 74, "duration": 4, "velocity": 62}, {"time": 1367, "pitch": 76, "duration": 3, "velocity": 65}, {"time": 1370, "pitch": 79, "duration": 3, "velocity": 74}, {"time": 1373, "pitch": 79, "duration": 3, "velocity": 77}, {"time": 1376, "pitch": 76, "duration": 3, "velocity": 61}, {"time": 1379, "pitch": 79, "duration": 7, "velocity": 93}, {"time": 1385, "pitch": 72, "duration": 3, "velocity": 64}, {"time": 1388, "pitch": 76, "duration": 6, "velocity": 74}, {"time": 1394, "pitch": 74, "duration": 12, "velocity": 77}, {"time": 1406, "pitch": 69, "duration": 3, "velocity": 65}, {"time": 1409, "pitch": 69, "duration": 3, "velocity": 63}, {"time": 1412, "pitch": 71, "duration": 3, "velocity": 73}, {"time": 1415, "pitch": 72, "duration": 3, "velocity": 72}, {"time": 1418, "pitch": 71, "duration": 4, "velocity": 60}, {"time": 1421, "pitch": 69, "duration": 3, "velocity": 66}, {"time": 1424, "pitch": 72, "duration": 4, "velocity": 68}, {"time": 1427, "pitch": 76, "duration": 3, "velocity": 67}, {"time": 1430, "pitch": 79, "duration": 27, "velocity": 67}, {"time": 1457, "pitch": 69, "duration": 3, "velocity": 64}, {"time": 1460, "pitch": 71, "duration": 3, "velocity": 66}, {"time": 1463, "pitch": 72, "duration": 6, "velocity": 71}, {"time": 1469, "pitch": 74, "duration": 4, "velocity": 86}, {"time": 1472, "pitch": 72, "duration": 6, "velocity": 63}, {"time": 1478, "pitch": 67, "duration": 6, "velocity": 64}, {"time": 1484, "pitch": 76, "duration": 9, "velocity": 93}, {"time": 1493, "pitch": 69, "duration": 5, "velocity": 74}, {"time": 1496, "pitch": 72, "duration": 3, "velocity": 74}, {"time": 1499, "pitch": 74, "duration": 6, "velocity": 68}, {"time": 1505, "pitch": 72, "duration": 4, "velocity": 70}, {"time": 1508, "pitch": 69, "duration": 4, "velocity": 59}, {"time": 1511, "pitch": 76, "duration": 6, "velocity": 76}, {"time": 1517, "pitch": 69, "duration": 6, "velocity": 58}, {"time": 1523, "pitch": 74, "duration": 6, "velocity": 74}, {"time": 1529, "pitch": 72, "duration": 43, "velocity": 72}, {"time": 1847, "pitch": 67, "duration": 4, "velocity": 83}, {"time": 1850, "pitch": 64, "duration": 4, "velocity": 60}, {"time": 1853, "pitch": 72, "duration": 3, "velocity": 70}, {"time": 1856, "pitch": 71, "duration": 21, "velocity": 81}, {"time": 1877, "pitch": 67, "duration": 4, "velocity": 77}, {"time": 1880, "pitch": 64, "duration": 63, "velocity": 83}, {"time": 1943, "pitch": 67, "duration": 4, "velocity": 72}, {"time": 1946, "pitch": 64, "duration": 4, "velocity": 58}, {"time": 1949, "pitch": 72, "duration": 3, "velocity": 69}, {"time": 1952, "pitch": 71, "duration": 9, "velocity": 64}, {"time": 1961, "pitch": 72, "duration": 3, "velocity": 62}, {"time": 1964, "pitch": 74, "duration": 9, "velocity": 67}, {"time": 1973, "pitch": 67, "duration": 6, "velocity": 58}, {"time": 1979, "pitch": 69, "duration": 60, "velocity": 60}, {"time": 2039, "pitch": 69, "duration": 5, "velocity": 65}, {"time": 2042, "pitch": 72, "duration": 3, "velocity": 63}, {"time": 2045, "pitch": 69, "duration": 4, "velocity": 66}, {"time": 2048, "pitch": 74, "duration": 36, "velocity": 73}, {"time": 2084, "pitch": 76, "duration": 3, "velocity": 63}, {"time": 2087, "pitch": 74, "duration": 6, "velocity": 70}, {"time": 2093, "pitch": 71, "duration": 6, "velocity": 71}, {"time": 2099, "pitch": 74, "duration": 6, "velocity": 69}, {"time": 2105, "pitch": 72, "duration": 30, "velocity": 62}, {"time": 2135, "pitch": 69, "duration": 3, "velocity": 72}, {"time": 2138, "pitch": 69, "duration": 3, "velocity": 66}, {"time": 2141, "pitch": 69, "duration": 4, "velocity": 73}, {"time": 2144, "pitch": 67, "duration": 9, "velocity": 63}, {"time": 2153, "pitch": 67, "duration": 3, "velocity": 69}, {"time": 2156, "pitch": 72, "duration": 11, "velocity": 75}, {"time": 2165, "pitch": 67, "duration": 6, "velocity": 75}, {"time": 2171, "pitch": 74, "duration": 6, "velocity": 71}, {"time": 2177, "pitch": 76, "duration": 3, "velocity": 67}, {"time": 2180, "pitch": 74, "duration": 45, "velocity": 74}, {"time": 2225, "pitch": 72, "duration": 4, "velocity": 64}, {"time": 2228, "pitch": 74, "duration": 4, "velocity": 63}, {"time": 2231, "pitch": 76, "duration": 3, "velocity": 65}, {"time": 2234, "pitch": 79, "duration": 3, "velocity": 69}, {"time": 2237, "pitch": 79, "duration": 3, "velocity": 74}, {"time": 2240, "pitch": 76, "duration": 3, "velocity": 63}, {"time": 2243, "pitch": 79, "duration": 6, "velocity": 87}, {"time": 2249, "pitch": 72, "duration": 3, "velocity": 63}, {"time": 2252, "pitch": 76, "duration": 9, "velocity": 69}, {"time": 2261, "pitch": 74, "duration": 11, "velocity": 67}, {"time": 2270, "pitch": 69, "duration": 3, "velocity": 64}, {"time": 2273, "pitch": 69, "duration": 3, "velocity": 58}, {"time": 2276, "pitch": 71, "duration": 3, "velocity": 68}, {"time": 2279, "pitch": 72, "duration": 4, "velocity": 67}, {"time": 2282, "pitch": 71, "duration": 3, "velocity": 63}, {"time": 2285, "pitch": 69, "duration": 3, "velocity": 63}, {"time": 2288, "pitch": 72, "duration": 4, "velocity": 61}, {"time": 2291, "pitch": 76, "duration": 3, "velocity": 65}, {"time": 2294, "pitch": 79, "duration": 27, "velocity": 75}, {"time": 2321, "pitch": 69, "duration": 4, "velocity": 64}, {"time": 2324, "pitch": 71, "duration": 4, "velocity": 81}, {"time": 2327, "pitch": 72, "duration": 5, "velocity": 62}, {"time": 2332, "pitch": 74, "duration": 7, "velocity": 76}, {"time": 2339, "pitch": 72, "duration": 6, "velocity": 85}, {"time": 2345, "pitch": 67, "duration": 3, "velocity": 63}, {"time": 2348, "pitch": 76, "duration": 9, "velocity": 74}, {"time": 2357, "pitch": 69, "duration": 4, "velocity": 63}, {"time": 2360, "pitch": 72, "duration": 3, "velocity": 65}, {"time": 2363, "pitch": 74, "duration": 6, "velocity": 85}, {"time": 2369, "pitch": 72, "duration": 3, "velocity": 71}, {"time": 2372, "pitch": 69, "duration": 4, "velocity": 68}, {"time": 2375, "pitch": 72, "duration": 4, "velocity": 63}, {"time": 2378, "pitch": 74, "duration": 3, "velocity": 62}, {"time": 2381, "pitch": 76, "duration": 6, "velocity": 67}, {"time": 2387, "pitch": 74, "duration": 30, "velocity": 73}, {"time": 2417, "pitch": 72, "duration": 4, "velocity": 67}, {"time": 2420, "pitch": 74, "duration": 4, "velocity": 62}, {"time": 2423, "pitch": 76, "duration": 3, "velocity": 65}, {"time": 2426, "pitch": 79, "duration": 3, "velocity": 74}, {"time": 2429, "pitch": 79, "duration": 3, "velocity": 77}, {"time": 2432, "pitch": 76, "duration": 3, "velocity": 61}, {"time": 2435, "pitch": 79, "duration": 7, "velocity": 93}, {"time": 2441, "pitch": 74, "duration": 3, "velocity": 64}, {"time": 2444, "pitch": 76, "duration": 6, "velocity": 74}, {"time": 2450, "pitch": 74, "duration": 12, "velocity": 77}, {"time": 2462, "pitch": 69, "duration": 3, "velocity": 65}, {"time": 2465, "pitch": 69, "duration": 3, "velocity": 63}, {"time": 2468, "pitch": 71, "duration": 3, "velocity": 73}, {"time": 2471, "pitch": 72, "duration": 3, "velocity": 72}, {"time": 2474, "pitch": 71, "duration": 4, "velocity": 60}, {"time": 2477, "pitch": 69, "duration": 3, "velocity": 66}, {"time": 2480, "pitch": 72, "duration": 4, "velocity": 68}, {"time": 2483, "pitch": 76, "duration": 3, "velocity": 67}, {"time": 2486, "pitch": 79, "duration": 27, "velocity": 67}, {"time": 2513, "pitch": 69, "duration": 3, "velocity": 64}, {"time": 2516, "pitch": 71, "duration": 3, "velocity": 66}, {"time": 2519, "pitch": 72, "duration": 6, "velocity": 71}, {"time": 2525, "pitch": 74, "duration": 4, "velocity": 86}, {"time": 2528, "pitch": 72, "duration": 6, "velocity": 63}, {"time": 2534, "pitch": 67, "duration": 6, "velocity": 64}, {"time": 2540, "pitch": 76, "duration": 9, "velocity": 93}, {"time": 2549, "pitch": 69, "duration": 5, "velocity": 74}, {"time": 2552, "pitch": 72, "duration": 3, "velocity": 74}, {"time": 2555, "pitch": 74, "duration": 6, "velocity": 68}, {"time": 2561, "pitch": 72, "duration": 4, "velocity": 70}, {"time": 2564, "pitch": 69, "duration": 4, "velocity": 59}, {"time": 2567, "pitch": 76, "duration": 6, "velocity": 76}, {"time": 2573, "pitch": 69, "duration": 6, "velocity": 58}, {"time": 2579, "pitch": 74, "duration": 6, "velocity": 74}, {"time": 2585, "pitch": 72, "duration": 48, "velocity": 72}, {"time": 2633, "pitch": 72, "duration": 4, "velocity": 79}, {"time": 2636, "pitch": 74, "duration": 4, "velocity": 65}, {"time": 2639, "pitch": 76, "duration": 3, "velocity": 87}, {"time": 2642, "pitch": 79, "duration": 3, "velocity": 86}, {"time": 2645, "pitch": 79, "duration": 3, "velocity": 108}, {"time": 2648, "pitch": 76, "duration": 3, "velocity": 65}, {"time": 2651, "pitch": 79, "duration": 6, "velocity": 83}, {"time": 2657, "pitch": 72, "duration": 3, "velocity": 83}, {"time": 2660, "pitch": 76, "duration": 6, "velocity": 83}, {"time": 2666, "pitch": 74, "duration": 12, "velocity": 79}, {"time": 2678, "pitch": 69, "duration": 3, "velocity": 67}, {"time": 2681, "pitch": 69, "duration": 3, "velocity": 68}, {"time": 2684, "pitch": 71, "duration": 3, "velocity": 74}, {"time": 2687, "pitch": 72, "duration": 4, "velocity": 77}, {"time": 2690, "pitch": 71, "duration": 3, "velocity": 60}, {"time": 2693, "pitch": 69, "duration": 3, "velocity": 63}, {"time": 2696, "pitch": 72, "duration": 4, "velocity": 68}, {"time": 2699, "pitch": 76, "duration": 3, "velocity": 65}, {"time": 2702, "pitch": 79, "duration": 27, "velocity": 83}, {"time": 2729, "pitch": 69, "duration": 4, "velocity": 74}, {"time": 2732, "pitch": 71, "duration": 3, "velocity": 74}, {"time": 2735, "pitch": 72, "duration": 6, "velocity": 81}, {"time": 2741, "pitch": 74, "duration": 6, "velocity": 73}, {"time": 2747, "pitch": 72, "duration": 7, "velocity": 77}, {"time": 2753, "pitch": 67, "duration": 3, "velocity": 62}, {"time": 2756, "pitch": 76, "duration": 9, "velocity": 62}, {"time": 2765, "pitch": 69, "duration": 4, "velocity": 74}, {"time": 2768, "pitch": 72, "duration": 3, "velocity": 61}, {"time": 2771, "pitch": 74, "duration": 6, "velocity": 83}, {"time": 2777, "pitch": 72, "duration": 3, "velocity": 65}, {"time": 2780, "pitch": 69, "duration": 4, "velocity": 62}, {"time": 2783, "pitch": 72, "duration": 4, "velocity": 63}, {"time": 2786, "pitch": 74, "duration": 4, "velocity": 68}, {"time": 2789, "pitch": 76, "duration": 6, "velocity": 83}, {"time": 2795, "pitch": 74, "duration": 30, "velocity": 81}, {"time": 2825, "pitch": 72, "duration": 4, "velocity": 93}, {"time": 2828, "pitch": 74, "duration": 4, "velocity": 66}, {"time": 2831, "pitch": 76, "duration": 3, "velocity": 85}, {"time": 2834, "pitch": 79, "duration": 3, "velocity": 90}, {"time": 2837, "pitch": 79, "duration": 3, "velocity": 108}, {"time": 2840, "pitch": 76, "duration": 3, "velocity": 65}, {"time": 2843, "pitch": 79, "duration": 6, "velocity": 121}, {"time": 2849, "pitch": 79, "duration": 3, "velocity": 83}, {"time": 2852, "pitch": 81, "duration": 6, "velocity": 111}, {"time": 2858, "pitch": 79, "duration": 13, "velocity": 104}, {"time": 2870, "pitch": 69, "duration": 3, "velocity": 65}, {"time": 2873, "pitch": 69, "duration": 3, "velocity": 61}, {"time": 2876, "pitch": 71, "duration": 3, "velocity": 73}, {"time": 2879, "pitch": 72, "duration": 3, "velocity": 81}, {"time": 2882, "pitch": 71, "duration": 4, "velocity": 69}, {"time": 2885, "pitch": 69, "duration": 4, "velocity": 72}, {"time": 2888, "pitch": 72, "duration": 3, "velocity": 83}, {"time": 2891, "pitch": 76, "duration": 6, "velocity": 90}, {"time": 2897, "pitch": 79, "duration": 24, "velocity": 104}, {"time": 2921, "pitch": 69, "duration": 4, "velocity": 77}, {"time": 2924, "pitch": 71, "duration": 4, "velocity": 71}, {"time": 2927, "pitch": 72, "duration": 7, "velocity": 83}, {"time": 2933, "pitch": 74, "duration": 6, "velocity": 98}, {"time": 2939, "pitch": 72, "duration": 7, "velocity": 75}, {"time": 2945, "pitch": 67, "duration": 4, "velocity": 76}, {"time": 2948, "pitch": 76, "duration": 11, "velocity": 104}, {"time": 2957, "pitch": 69, "duration": 4, "velocity": 76}, {"time": 2960, "pitch": 72, "duration": 3, "velocity": 60}, {"time": 2963, "pitch": 74, "duration": 7, "velocity": 87}, {"time": 2969, "pitch": 72, "duration": 7, "velocity": 67}, {"time": 2975, "pitch": 69, "duration": 4, "velocity": 63}, {"time": 2978, "pitch": 76, "duration": 33, "velocity": 95}, {"time": 3011, "pitch": 69, "duration": 7, "velocity": 71}, {"time": 3017, "pitch": 74, "duration": 6, "velocity": 93}, {"time": 3023, "pitch": 72, "duration": 61, "velocity": 76}], "annotations": [{"time": 419, "annotation": {"number": 64, "value": 74}, "group": "control_change"}, {"time": 923, "annotation": {"number": 64, "value": 73}, "group": "control_change"}]}, {"program": 0, "is_drum": false, "name": "BRIDGE", "notes": [{"time": 143, "pitch": 81, "duration": 4, "velocity": 86}, {"time": 146, "pitch": 79, "duration": 4, "velocity": 68}, {"time": 149, "pitch": 77, "duration": 4, "velocity": 53}, {"time": 152, "pitch": 76, "duration": 4, "velocity": 56}, {"time": 155, "pitch": 77, "duration": 9, "velocity": 81}, {"time": 191, "pitch": 79, "duration": 3, "velocity": 74}, {"time": 194, "pitch": 77, "duration": 4, "velocity": 67}, {"time": 197, "pitch": 76, "duration": 3, "velocity": 60}, {"time": 200, "pitch": 74, "duration": 4, "velocity": 61}, {"time": 203, "pitch": 76, "duration": 31, "velocity": 71}, {"time": 239, "pitch": 77, "duration": 3, "velocity": 76}, {"time": 242, "pitch": 76, "duration": 4, "velocity": 59}, {"time": 245, "pitch": 74, "duration": 3, "velocity": 64}, {"time": 248, "pitch": 72, "duration": 3, "velocity": 61}, {"time": 251, "pitch": 74, "duration": 36, "velocity": 76}, {"time": 287, "pitch": 71, "duration": 10, "velocity": 79}, {"time": 299, "pitch": 69, "duration": 49, "velocity": 70}, {"time": 839, "pitch": 72, "duration": 4, "velocity": 68}, {"time": 842, "pitch": 64, "duration": 4, "velocity": 60}, {"time": 845, "pitch": 67, "duration": 4, "velocity": 67}, {"time": 848, "pitch": 72, "duration": 7, "velocity": 64}, {"time": 854, "pitch": 64, "duration": 4, "velocity": 58}, {"time": 857, "pitch": 67, "duration": 5, "velocity": 59}, {"time": 860, "pitch": 72, "duration": 4, "velocity": 63}, {"time": 863, "pitch": 74, "duration": 10, "velocity": 67}, {"time": 959, "pitch": 67, "duration": 4, "velocity": 67}, {"time": 962, "pitch": 69, "duration": 3, "velocity": 62}, {"time": 965, "pitch": 72, "duration": 3, "velocity": 60}, {"time": 968, "pitch": 67, "duration": 4, "velocity": 60}, {"time": 971, "pitch": 69, "duration": 19, "velocity": 69}, {"time": 1055, "pitch": 72, "duration": 3, "velocity": 67}, {"time": 1058, "pitch": 71, "duration": 4, "velocity": 61}, {"time": 1061, "pitch": 69, "duration": 3, "velocity": 59}, {"time": 1064, "pitch": 64, "duration": 4, "velocity": 72}, {"time": 1067, "pitch": 65, "duration": 18, "velocity": 90}, {"time": 1340, "pitch": 76, "duration": 8, "velocity": 68}, {"time": 1349, "pitch": 67, "duration": 7, "velocity": 61}, {"time": 1355, "pitch": 72, "duration": 17, "velocity": 63}, {"time": 1565, "pitch": 69, "duration": 4, "velocity": 61}, {"time": 1568, "pitch": 71, "duration": 2, "velocity": 65}, {"time": 1571, "pitch": 72, "duration": 9, "velocity": 70}, {"time": 1580, "pitch": 71, "duration": 9, "velocity": 70}, {"time": 1589, "pitch": 69, "duration": 6, "velocity": 70}, {"time": 1595, "pitch": 71, "duration": 9, "velocity": 86}, {"time": 1604, "pitch": 67, "duration": 11, "velocity": 74}, {"time": 1613, "pitch": 64, "duration": 5, "velocity": 61}, {"time": 1619, "pitch": 69, "duration": 9, "velocity": 73}, {"time": 1628, "pitch": 67, "duration": 8, "velocity": 67}, {"time": 1637, "pitch": 69, "duration": 6, "velocity": 67}, {"time": 1643, "pitch": 64, "duration": 15, "velocity": 75}, {"time": 1661, "pitch": 69, "duration": 4, "velocity": 60}, {"time": 1664, "pitch": 71, "duration": 3, "velocity": 71}, {"time": 1667, "pitch": 72, "duration": 9, "velocity": 69}, {"time": 1676, "pitch": 71, "duration": 9, "velocity": 73}, {"time": 1685, "pitch": 69, "duration": 6, "velocity": 74}, {"time": 1691, "pitch": 71, "duration": 9, "velocity": 74}, {"time": 1700, "pitch": 67, "duration": 8, "velocity": 71}, {"time": 1709, "pitch": 64, "duration": 6, "velocity": 66}, {"time": 1715, "pitch": 76, "duration": 3, "velocity": 81}, {"time": 1718, "pitch": 74, "duration": 4, "velocity": 65}, {"time": 1721, "pitch": 72, "duration": 3, "velocity": 68}, {"time": 1724, "pitch": 71, "duration": 3, "velocity": 60}, {"time": 1727, "pitch": 72, "duration": 4, "velocity": 76}, {"time": 1730, "pitch": 71, "duration": 4, "velocity": 61}, {"time": 1733, "pitch": 69, "duration": 4, "velocity": 72}, {"time": 1736, "pitch": 67, "duration": 4, "velocity": 68}, {"time": 1739, "pitch": 69, "duration": 22, "velocity": 75}, {"time": 1757, "pitch": 72, "duration": 4, "velocity": 75}, {"time": 1760, "pitch": 74, "duration": 3, "velocity": 63}, {"time": 1763, "pitch": 76, "duration": 4, "velocity": 74}, {"time": 1766, "pitch": 74, "duration": 3, "velocity": 62}, {"time": 1769, "pitch": 72, "duration": 5, "velocity": 65}, {"time": 1772, "pitch": 71, "duration": 4, "velocity": 59}, {"time": 1775, "pitch": 72, "duration": 4, "velocity": 87}, {"time": 1778, "pitch": 71, "duration": 4, "velocity": 60}, {"time": 1781, "pitch": 69, "duration": 4, "velocity": 73}, {"time": 1784, "pitch": 67, "duration": 4, "velocity": 67}, {"time": 1787, "pitch": 69, "duration": 24, "velocity": 83}, {"time": 1895, "pitch": 72, "duration": 4, "velocity": 68}, {"time": 1898, "pitch": 64, "duration": 4, "velocity": 60}, {"time": 1901, "pitch": 67, "duration": 4, "velocity": 67}, {"time": 1904, "pitch": 72, "duration": 7, "velocity": 64}, {"time": 1910, "pitch": 64, "duration": 4, "velocity": 58}, {"time": 1913, "pitch": 67, "duration": 5, "velocity": 59}, {"time": 1913, "pitch": 81, "duration": 6, "velocity": 85}, {"time": 1916, "pitch": 72, "duration": 4, "velocity": 63}, {"time": 1919, "pitch": 74, "duration": 10, "velocity": 67}, {"time": 1919, "pitch": 79, "duration": 5, "velocity": 95}, {"time": 1925, "pitch": 76, "duration": 3, "velocity": 74}, {"time": 1928, "pitch": 74, "duration": 1, "velocity": 77}, {"time": 1931, "pitch": 76, "duration": 13, "velocity": 90}, {"time": 2000, "pitch": 64, "duration": 4, "velocity": 74}, {"time": 2000, "pitch": 76, "duration": 4, "velocity": 77}, {"time": 2006, "pitch": 64, "duration": 1, "velocity": 69}, {"time": 2006, "pitch": 76, "duration": 1, "velocity": 65}, {"time": 2012, "pitch": 64, "duration": 1, "velocity": 83}, {"time": 2012, "pitch": 76, "duration": 2, "velocity": 77}, {"time": 2015, "pitch": 67, "duration": 4, "velocity": 67}, {"time": 2018, "pitch": 57, "duration": 1, "velocity": 58}, {"time": 2018, "pitch": 60, "duration": 1, "velocity": 61}, {"time": 2018, "pitch": 69, "duration": 1, "velocity": 63}, {"time": 2021, "pitch": 57, "duration": 4, "velocity": 59}, {"time": 2021, "pitch": 60, "duration": 5, "velocity": 74}, {"time": 2021, "pitch": 69, "duration": 4, "velocity": 72}, {"time": 2021, "pitch": 72, "duration": 3, "velocity": 60}, {"time": 2024, "pitch": 67, "duration": 4, "velocity": 60}, {"time": 2027, "pitch": 69, "duration": 19, "velocity": 69}, {"time": 2063, "pitch": 76, "duration": 4, "velocity": 83}, {"time": 2066, "pitch": 71, "duration": 5, "velocity": 67}, {"time": 2072, "pitch": 76, "duration": 2, "velocity": 73}, {"time": 2075, "pitch": 74, "duration": 12, "velocity": 87}, {"time": 2102, "pitch": 64, "duration": 2, "velocity": 65}, {"time": 2105, "pitch": 67, "duration": 4, "velocity": 77}, {"time": 2108, "pitch": 64, "duration": 3, "velocity": 58}, {"time": 2111, "pitch": 69, "duration": 3, "velocity": 74}, {"time": 2114, "pitch": 67, "duration": 4, "velocity": 74}, {"time": 2117, "pitch": 64, "duration": 2, "velocity": 69}, {"time": 2120, "pitch": 62, "duration": 2, "velocity": 66}, {"time": 2123, "pitch": 60, "duration": 5, "velocity": 69}, {"time": 2198, "pitch": 60, "duration": 3, "velocity": 60}, {"time": 2201, "pitch": 67, "duration": 3, "velocity": 73}, {"time": 2204, "pitch": 64, "duration": 3, "velocity": 66}, {"time": 2207, "pitch": 69, "duration": 4, "velocity": 74}, {"time": 2210, "pitch": 67, "duration": 4, "velocity": 64}, {"time": 2213, "pitch": 64, "duration": 4, "velocity": 59}, {"time": 2216, "pitch": 69, "duration": 3, "velocity": 76}, {"time": 2219, "pitch": 67, "duration": 12, "velocity": 74}, {"time": 2396, "pitch": 64, "duration": 3, "velocity": 86}, {"time": 2399, "pitch": 69, "duration": 4, "velocity": 75}, {"time": 2402, "pitch": 67, "duration": 5, "velocity": 83}, {"time": 2408, "pitch": 69, "duration": 3, "velocity": 74}, {"time": 2411, "pitch": 67, "duration": 24, "velocity": 104}], "annotations": [{"time": 11, "annotation": {"number": 64, "value": 79}, "group": "control_change"}, {"time": 47, "annotation": {"number": 64, "value": 78}, "group": "control_change"}, {"time": 59, "annotation": {"number": 64, "value": 76}, "group": "control_change"}]}, {"program": 0, "is_drum": false, "name": "PIANO", "notes": [{"time": 23, "pitch": 64, "duration": 42, "velocity": 57}, {"time": 23, "pitch": 69, "duration": 15, "velocity": 58}, {"time": 23, "pitch": 72, "duration": 15, "velocity": 58}, {"time": 23, "pitch": 57, "duration": 15, "velocity": 62}, {"time": 44, "pitch": 67, "duration": 20, "velocity": 60}, {"time": 44, "pitch": 71, "duration": 21, "velocity": 60}, {"time": 44, "pitch": 55, "duration": 22, "velocity": 68}, {"time": 65, "pitch": 53, "duration": 83, "velocity": 57}, {"time": 65, "pitch": 60, "duration": 42, "velocity": 57}, {"time": 65, "pitch": 65, "duration": 39, "velocity": 60}, {"time": 65, "pitch": 69, "duration": 39, "velocity": 60}, {"time": 113, "pitch": 62, "duration": 34, "velocity": 73}, {"time": 113, "pitch": 69, "duration": 34, "velocity": 59}, {"time": 113, "pitch": 65, "duration": 34, "velocity": 49}, {"time": 155, "pitch": 50, "duration": 17, "velocity": 70}, {"time": 155, "pitch": 69, "duration": 13, "velocity": 71}, {"time": 161, "pitch": 57, "duration": 10, "velocity": 52}, {"time": 167, "pitch": 65, "duration": 12, "velocity": 61}, {"time": 173, "pitch": 69, "duration": 6, "velocity": 66}, {"time": 179, "pitch": 43, "duration": 18, "velocity": 71}, {"time": 185, "pitch": 50, "duration": 14, "velocity": 60}, {"time": 191, "pitch": 59, "duration": 7, "velocity": 59}, {"time": 194, "pitch": 55, "duration": 9, "velocity": 58}, {"time": 197, "pitch": 62, "duration": 5, "velocity": 65}, {"time": 200, "pitch": 59, "duration": 4, "velocity": 58}, {"time": 203, "pitch": 48, "duration": 18, "velocity": 79}, {"time": 209, "pitch": 55, "duration": 12, "velocity": 65}, {"time": 215, "pitch": 64, "duration": 15, "velocity": 60}, {"time": 221, "pitch": 67, "duration": 7, "velocity": 59}, {"time": 227, "pitch": 41, "duration": 18, "velocity": 58}, {"time": 227, "pitch": 57, "duration": 13, "velocity": 45}, {"time": 227, "pitch": 60, "duration": 11, "velocity": 58}, {"time": 233, "pitch": 48, "duration": 12, "velocity": 74}, {"time": 239, "pitch": 64, "duration": 6, "velocity": 66}, {"time": 242, "pitch": 60, "duration": 4, "velocity": 7}, {"time": 245, "pitch": 57, "duration": 6, "velocity": 64}, {"time": 251, "pitch": 47, "duration": 23, "velocity": 81}, {"time": 257, "pitch": 53, "duration": 17, "velocity": 62}, {"time": 263, "pitch": 57, "duration": 11, "velocity": 63}, {"time": 263, "pitch": 62, "duration": 10, "velocity": 73}, {"time": 275, "pitch": 40, "duration": 18, "velocity": 64}, {"time": 281, "pitch": 44, "duration": 12, "velocity": 61}, {"time": 287, "pitch": 56, "duration": 12, "velocity": 64}, {"time": 293, "pitch": 60, "duration": 5, "velocity": 61}, {"time": 299, "pitch": 45, "duration": 19, "velocity": 66}, {"time": 302, "pitch": 76, "duration": 7, "velocity": 59}, {"time": 305, "pitch": 52, "duration": 13, "velocity": 64}, {"time": 305, "pitch": 81, "duration": 4, "velocity": 62}, {"time": 308, "pitch": 57, "duration": 9, "velocity": 60}, {"time": 308, "pitch": 88, "duration": 6, "velocity": 75}, {"time": 314, "pitch": 76, "duration": 4, "velocity": 58}, {"time": 317, "pitch": 81, "duration": 3, "velocity": 59}, {"time": 320, "pitch": 86, "duration": 6, "velocity": 68}, {"time": 326, "pitch": 76, "duration": 4, "velocity": 60}, {"time": 329, "pitch": 81, "duration": 4, "velocity": 62}, {"time": 332, "pitch": 84, "duration": 7, "velocity": 72}, {"time": 338, "pitch": 76, "duration": 4, "velocity": 63}, {"time": 341, "pitch": 81, "duration": 3, "velocity": 53}, {"time": 344, "pitch": 83, "duration": 6, "velocity": 75}, {"time": 347, "pitch": 57, "duration": 44, "velocity": 59}, {"time": 350, "pitch": 72, "duration": 4, "velocity": 59}, {"time": 352, "pitch": 64, "duration": 38, "velocity": 58}, {"time": 353, "pitch": 76, "duration": 4, "velocity": 64}, {"time": 356, "pitch": 81, "duration": 4, "velocity": 65}, {"time": 359, "pitch": 69, "duration": 21, "velocity": 47}, {"time": 362, "pitch": 72, "duration": 4, "velocity": 58}, {"time": 365, "pitch": 76, "duration": 3, "velocity": 64}, {"time": 368, "pitch": 79, "duration": 6, "velocity": 68}, {"time": 374, "pitch": 67, "duration": 6, "velocity": 64}, {"time": 377, "pitch": 69, "duration": 3, "velocity": 64}, {"time": 380, "pitch": 76, "duration": 7, "velocity": 76}, {"time": 395, "pitch": 60, "duration": 19, "velocity": 85}, {"time": 395, "pitch": 76, "duration": 11, "velocity": 85}, {"time": 395, "pitch": 79, "duration": 8, "velocity": 85}, {"time": 401, "pitch": 67, "duration": 35, "velocity": 56}, {"time": 404, "pitch": 79, "duration": 2, "velocity": 43}, {"time": 407, "pitch": 76, "duration": 6, "velocity": 74}, {"time": 407, "pitch": 79, "duration": 10, "velocity": 83}, {"time": 419, "pitch": 59, "duration": 19, "velocity": 72}, {"time": 419, "pitch": 74, "duration": 11, "velocity": 69}, {"time": 419, "pitch": 79, "duration": 11, "velocity": 77}, {"time": 431, "pitch": 74, "duration": 7, "velocity": 62}, {"time": 431, "pitch": 79, "duration": 7, "velocity": 74}, {"time": 443, "pitch": 57, "duration": 26, "velocity": 66}, {"time": 443, "pitch": 72, "duration": 11, "velocity": 64}, {"time": 443, "pitch": 76, "duration": 11, "velocity": 72}, {"time": 449, "pitch": 64, "duration": 6, "velocity": 62}, {"time": 458, "pitch": 64, "duration": 4, "velocity": 71}, {"time": 461, "pitch": 69, "duration": 3, "velocity": 67}, {"time": 464, "pitch": 72, "duration": 15, "velocity": 83}, {"time": 479, "pitch": 55, "duration": 10, "velocity": 74}, {"time": 479, "pitch": 71, "duration": 8, "velocity": 73}, {"time": 479, "pitch": 74, "duration": 8, "velocity": 81}, {"time": 491, "pitch": 48, "duration": 22, "velocity": 86}, {"time": 491, "pitch": 67, "duration": 11, "velocity": 64}, {"time": 491, "pitch": 76, "duration": 12, "velocity": 76}, {"time": 497, "pitch": 55, "duration": 19, "velocity": 71}, {"time": 503, "pitch": 67, "duration": 10, "velocity": 66}, {"time": 503, "pitch": 76, "duration": 14, "velocity": 75}, {"time": 509, "pitch": 60, "duration": 2, "velocity": 51}, {"time": 515, "pitch": 43, "duration": 21, "velocity": 63}, {"time": 515, "pitch": 67, "duration": 11, "velocity": 61}, {"time": 515, "pitch": 74, "duration": 11, "velocity": 76}, {"time": 521, "pitch": 50, "duration": 18, "velocity": 61}, {"time": 527, "pitch": 67, "duration": 12, "velocity": 74}, {"time": 527, "pitch": 74, "duration": 12, "velocity": 62}, {"time": 533, "pitch": 55, "duration": 5, "velocity": 46}, {"time": 539, "pitch": 53, "duration": 33, "velocity": 72}, {"time": 539, "pitch": 69, "duration": 12, "velocity": 70}, {"time": 545, "pitch": 60, "duration": 21, "velocity": 60}, {"time": 554, "pitch": 65, "duration": 7, "velocity": 67}, {"time": 557, "pitch": 67, "duration": 3, "velocity": 63}, {"time": 560, "pitch": 72, "duration": 22, "velocity": 73}, {"time": 587, "pitch": 53, "duration": 20, "velocity": 75}, {"time": 587, "pitch": 69, "duration": 11, "velocity": 70}, {"time": 587, "pitch": 72, "duration": 11, "velocity": 75}, {"time": 593, "pitch": 60, "duration": 18, "velocity": 63}, {"time": 599, "pitch": 69, "duration": 8, "velocity": 84}, {"time": 599, "pitch": 72, "duration": 8, "velocity": 84}, {"time": 605, "pitch": 65, "duration": 5, "velocity": 76}, {"time": 611, "pitch": 55, "duration": 18, "velocity": 71}, {"time": 611, "pitch": 71, "duration": 11, "velocity": 74}, {"time": 611, "pitch": 74, "duration": 11, "velocity": 74}, {"time": 617, "pitch": 62, "duration": 12, "velocity": 60}, {"time": 623, "pitch": 71, "duration": 7, "velocity": 74}, {"time": 623, "pitch": 74, "duration": 6, "velocity": 77}, {"time": 635, "pitch": 52, "duration": 19, "velocity": 69}, {"time": 635, "pitch": 67, "duration": 11, "velocity": 75}, {"time": 635, "pitch": 71, "duration": 11, "velocity": 73}, {"time": 641, "pitch": 59, "duration": 14, "velocity": 63}, {"time": 647, "pitch": 67, "duration": 12, "velocity": 79}, {"time": 647, "pitch": 71, "duration": 7, "velocity": 79}, {"time": 653, "pitch": 64, "duration": 7, "velocity": 55}, {"time": 659, "pitch": 57, "duration": 24, "velocity": 61}, {"time": 659, "pitch": 74, "duration": 6, "velocity": 70}, {"time": 665, "pitch": 64, "duration": 7, "velocity": 67}, {"time": 665, "pitch": 72, "duration": 15, "velocity": 70}, {"time": 674, "pitch": 60, "duration": 4, "velocity": 61}, {"time": 677, "pitch": 64, "duration": 6, "velocity": 76}, {"time": 683, "pitch": 41, "duration": 19, "velocity": 67}, {"time": 683, "pitch": 60, "duration": 11, "velocity": 67}, {"time": 683, "pitch": 65, "duration": 11, "velocity": 85}, {"time": 689, "pitch": 48, "duration": 17, "velocity": 72}, {"time": 695, "pitch": 60, "duration": 11, "velocity": 63}, {"time": 695, "pitch": 65, "duration": 7, "velocity": 64}, {"time": 701, "pitch": 53, "duration": 5, "velocity": 59}, {"time": 707, "pitch": 36, "duration": 20, "velocity": 82}, {"time": 707, "pitch": 62, "duration": 11, "velocity": 82}, {"time": 707, "pitch": 67, "duration": 11, "velocity": 82}, {"time": 713, "pitch": 43, "duration": 17, "velocity": 60}, {"time": 719, "pitch": 62, "duration": 11, "velocity": 68}, {"time": 719, "pitch": 67, "duration": 11, "velocity": 76}, {"time": 725, "pitch": 48, "duration": 4, "velocity": 60}, {"time": 731, "pitch": 41, "duration": 19, "velocity": 68}, {"time": 731, "pitch": 57, "duration": 11, "velocity": 63}, {"time": 731, "pitch": 60, "duration": 11, "velocity": 70}, {"time": 737, "pitch": 48, "duration": 18, "velocity": 76}, {"time": 743, "pitch": 57, "duration": 7, "velocity": 64}, {"time": 743, "pitch": 60, "duration": 7, "velocity": 69}, {"time": 743, "pitch": 65, "duration": 7, "velocity": 77}, {"time": 749, "pitch": 53, "duration": 6, "velocity": 42}, {"time": 755, "pitch": 43, "duration": 24, "velocity": 69}, {"time": 755, "pitch": 59, "duration": 25, "velocity": 65}, {"time": 755, "pitch": 62, "duration": 19, "velocity": 67}, {"time": 755, "pitch": 67, "duration": 19, "velocity": 74}, {"time": 761, "pitch": 50, "duration": 18, "velocity": 60}, {"time": 767, "pitch": 55, "duration": 13, "velocity": 52}, {"time": 779, "pitch": 48, "duration": 14, "velocity": 77}, {"time": 779, "pitch": 64, "duration": 11, "velocity": 77}, {"time": 779, "pitch": 67, "duration": 11, "velocity": 77}, {"time": 785, "pitch": 55, "duration": 7, "velocity": 58}, {"time": 791, "pitch": 64, "duration": 5, "velocity": 80}, {"time": 791, "pitch": 67, "duration": 5, "velocity": 80}, {"time": 803, "pitch": 43, "duration": 19, "velocity": 74}, {"time": 803, "pitch": 59, "duration": 10, "velocity": 65}, {"time": 803, "pitch": 62, "duration": 11, "velocity": 70}, {"time": 809, "pitch": 50, "duration": 18, "velocity": 69}, {"time": 815, "pitch": 59, "duration": 7, "velocity": 73}, {"time": 815, "pitch": 62, "duration": 7, "velocity": 79}, {"time": 821, "pitch": 55, "duration": 5, "velocity": 55}, {"time": 827, "pitch": 45, "duration": 39, "velocity": 67}, {"time": 827, "pitch": 60, "duration": 11, "velocity": 65}, {"time": 827, "pitch": 64, "duration": 11, "velocity": 73}, {"time": 833, "pitch": 52, "duration": 33, "velocity": 60}, {"time": 839, "pitch": 60, "duration": 10, "velocity": 61}, {"time": 839, "pitch": 64, "duration": 10, "velocity": 76}, {"time": 845, "pitch": 57, "duration": 20, "velocity": 52}, {"time": 851, "pitch": 60, "duration": 10, "velocity": 61}, {"time": 851, "pitch": 64, "duration": 11, "velocity": 70}, {"time": 863, "pitch": 47, "duration": 11, "velocity": 69}, {"time": 863, "pitch": 62, "duration": 7, "velocity": 61}, {"time": 863, "pitch": 67, "duration": 8, "velocity": 71}, {"time": 875, "pitch": 48, "duration": 18, "velocity": 71}, {"time": 875, "pitch": 64, "duration": 10, "velocity": 61}, {"time": 875, "pitch": 67, "duration": 11, "velocity": 76}, {"time": 881, "pitch": 55, "duration": 11, "velocity": 60}, {"time": 887, "pitch": 64, "duration": 7, "velocity": 63}, {"time": 887, "pitch": 67, "duration": 7, "velocity": 74}, {"time": 899, "pitch": 43, "duration": 19, "velocity": 67}, {"time": 899, "pitch": 59, "duration": 10, "velocity": 60}, {"time": 899, "pitch": 62, "duration": 11, "velocity": 67}, {"time": 905, "pitch": 50, "duration": 18, "velocity": 57}, {"time": 911, "pitch": 59, "duration": 7, "velocity": 62}, {"time": 911, "pitch": 62, "duration": 7, "velocity": 68}, {"time": 917, "pitch": 55, "duration": 5, "velocity": 58}, {"time": 923, "pitch": 41, "duration": 39, "velocity": 60}, {"time": 923, "pitch": 57, "duration": 11, "velocity": 51}, {"time": 923, "pitch": 60, "duration": 11, "velocity": 61}, {"time": 929, "pitch": 48, "duration": 23, "velocity": 60}, {"time": 935, "pitch": 57, "duration": 20, "velocity": 57}, {"time": 935, "pitch": 60, "duration": 21, "velocity": 64}, {"time": 941, "pitch": 53, "duration": 10, "velocity": 47}, {"time": 941, "pitch": 65, "duration": 3, "velocity": 63}, {"time": 944, "pitch": 72, "duration": 16, "velocity": 66}, {"time": 971, "pitch": 41, "duration": 18, "velocity": 76}, {"time": 971, "pitch": 57, "duration": 10, "velocity": 60}, {"time": 971, "pitch": 60, "duration": 10, "velocity": 64}, {"time": 977, "pitch": 48, "duration": 17, "velocity": 76}, {"time": 983, "pitch": 57, "duration": 6, "velocity": 67}, {"time": 983, "pitch": 60, "duration": 6, "velocity": 74}, {"time": 989, "pitch": 53, "duration": 6, "velocity": 55}, {"time": 995, "pitch": 43, "duration": 20, "velocity": 67}, {"time": 995, "pitch": 59, "duration": 11, "velocity": 60}, {"time": 995, "pitch": 62, "duration": 11, "velocity": 58}, {"time": 1001, "pitch": 50, "duration": 13, "velocity": 59}, {"time": 1007, "pitch": 59, "duration": 7, "velocity": 71}, {"time": 1007, "pitch": 62, "duration": 7, "velocity": 79}, {"time": 1013, "pitch": 55, "duration": 2, "velocity": 59}, {"time": 1019, "pitch": 40, "duration": 18, "velocity": 68}, {"time": 1019, "pitch": 55, "duration": 11, "velocity": 60}, {"time": 1019, "pitch": 59, "duration": 11, "velocity": 71}, {"time": 1025, "pitch": 47, "duration": 13, "velocity": 75}, {"time": 1031, "pitch": 55, "duration": 7, "velocity": 79}, {"time": 1031, "pitch": 59, "duration": 7, "velocity": 77}, {"time": 1037, "pitch": 52, "duration": 6, "velocity": 59}, {"time": 1043, "pitch": 45, "duration": 20, "velocity": 42}, {"time": 1043, "pitch": 60, "duration": 11, "velocity": 63}, {"time": 1043, "pitch": 64, "duration": 11, "velocity": 76}, {"time": 1049, "pitch": 52, "duration": 11, "velocity": 59}, {"time": 1055, "pitch": 60, "duration": 7, "velocity": 61}, {"time": 1055, "pitch": 64, "duration": 7, "velocity": 71}, {"time": 1067, "pitch": 41, "duration": 20, "velocity": 71}, {"time": 1067, "pitch": 57, "duration": 10, "velocity": 59}, {"time": 1067, "pitch": 60, "duration": 11, "velocity": 65}, {"time": 1073, "pitch": 48, "duration": 17, "velocity": 67}, {"time": 1079, "pitch": 57, "duration": 8, "velocity": 63}, {"time": 1079, "pitch": 60, "duration": 7, "velocity": 73}, {"time": 1085, "pitch": 53, "duration": 5, "velocity": 53}, {"time": 1091, "pitch": 48, "duration": 21, "velocity": 70}, {"time": 1091, "pitch": 64, "duration": 11, "velocity": 63}, {"time": 1091, "pitch": 67, "duration": 11, "velocity": 73}, {"time": 1097, "pitch": 55, "duration": 14, "velocity": 60}, {"time": 1103, "pitch": 64, "duration": 9, "velocity": 60}, {"time": 1103, "pitch": 67, "duration": 9, "velocity": 63}, {"time": 1103, "pitch": 72, "duration": 8, "velocity": 62}, {"time": 1115, "pitch": 43, "duration": 44, "velocity": 59}, {"time": 1115, "pitch": 59, "duration": 11, "velocity": 65}, {"time": 1115, "pitch": 62, "duration": 11, "velocity": 62}, {"time": 1115, "pitch": 67, "duration": 8, "velocity": 74}, {"time": 1121, "pitch": 50, "duration": 37, "velocity": 62}, {"time": 1127, "pitch": 59, "duration": 11, "velocity": 63}, {"time": 1127, "pitch": 62, "duration": 11, "velocity": 71}, {"time": 1127, "pitch": 67, "duration": 10, "velocity": 75}, {"time": 1133, "pitch": 55, "duration": 6, "velocity": 50}, {"time": 1139, "pitch": 59, "duration": 6, "velocity": 60}, {"time": 1139, "pitch": 62, "duration": 6, "velocity": 66}, {"time": 1139, "pitch": 67, "duration": 6, "velocity": 74}, {"time": 1145, "pitch": 55, "duration": 14, "velocity": 56}, {"time": 1151, "pitch": 67, "duration": 5, "velocity": 67}, {"time": 1151, "pitch": 72, "duration": 5, "velocity": 67}, {"time": 1157, "pitch": 67, "duration": 5, "velocity": 67}, {"time": 1157, "pitch": 74, "duration": 4, "velocity": 64}, {"time": 1163, "pitch": 48, "duration": 19, "velocity": 68}, {"time": 1163, "pitch": 64, "duration": 11, "velocity": 61}, {"time": 1163, "pitch": 67, "duration": 8, "velocity": 73}, {"time": 1169, "pitch": 55, "duration": 11, "velocity": 58}, {"time": 1175, "pitch": 64, "duration": 7, "velocity": 63}, {"time": 1175, "pitch": 67, "duration": 7, "velocity": 76}, {"time": 1175, "pitch": 72, "duration": 7, "velocity": 65}, {"time": 1187, "pitch": 43, "duration": 21, "velocity": 73}, {"time": 1187, "pitch": 59, "duration": 11, "velocity": 62}, {"time": 1187, "pitch": 62, "duration": 8, "velocity": 67}, {"time": 1187, "pitch": 67, "duration": 8, "velocity": 71}, {"time": 1193, "pitch": 50, "duration": 18, "velocity": 58}, {"time": 1196, "pitch": 62, "duration": 2, "velocity": 13}, {"time": 1196, "pitch": 67, "duration": 2, "velocity": 11}, {"time": 1199, "pitch": 59, "duration": 7, "velocity": 65}, {"time": 1199, "pitch": 62, "duration": 7, "velocity": 74}, {"time": 1199, "pitch": 67, "duration": 7, "velocity": 74}, {"time": 1205, "pitch": 55, "duration": 5, "velocity": 58}, {"time": 1211, "pitch": 45, "duration": 20, "velocity": 71}, {"time": 1211, "pitch": 60, "duration": 11, "velocity": 55}, {"time": 1211, "pitch": 64, "duration": 10, "velocity": 35}, {"time": 1211, "pitch": 69, "duration": 6, "velocity": 53}, {"time": 1217, "pitch": 52, "duration": 13, "velocity": 61}, {"time": 1220, "pitch": 69, "duration": 1, "velocity": 35}, {"time": 1223, "pitch": 60, "duration": 7, "velocity": 61}, {"time": 1223, "pitch": 64, "duration": 7, "velocity": 79}, {"time": 1223, "pitch": 69, "duration": 6, "velocity": 74}, {"time": 1229, "pitch": 57, "duration": 2, "velocity": 58}, {"time": 1235, "pitch": 40, "duration": 21, "velocity": 44}, {"time": 1235, "pitch": 55, "duration": 7, "velocity": 63}, {"time": 1235, "pitch": 59, "duration": 11, "velocity": 61}, {"time": 1235, "pitch": 64, "duration": 7, "velocity": 63}, {"time": 1241, "pitch": 47, "duration": 10, "velocity": 60}, {"time": 1244, "pitch": 55, "duration": 2, "velocity": 10}, {"time": 1247, "pitch": 55, "duration": 9, "velocity": 65}, {"time": 1247, "pitch": 59, "duration": 10, "velocity": 70}, {"time": 1247, "pitch": 64, "duration": 7, "velocity": 76}, {"time": 1253, "pitch": 47, "duration": 6, "velocity": 63}, {"time": 1259, "pitch": 41, "duration": 18, "velocity": 79}, {"time": 1259, "pitch": 57, "duration": 10, "velocity": 54}, {"time": 1259, "pitch": 60, "duration": 11, "velocity": 48}, {"time": 1265, "pitch": 48, "duration": 12, "velocity": 57}, {"time": 1271, "pitch": 57, "duration": 6, "velocity": 68}, {"time": 1271, "pitch": 60, "duration": 7, "velocity": 79}, {"time": 1271, "pitch": 65, "duration": 6, "velocity": 77}, {"time": 1277, "pitch": 53, "duration": 6, "velocity": 61}, {"time": 1283, "pitch": 48, "duration": 20, "velocity": 59}, {"time": 1283, "pitch": 64, "duration": 10, "velocity": 64}, {"time": 1283, "pitch": 67, "duration": 11, "velocity": 71}, {"time": 1283, "pitch": 72, "duration": 8, "velocity": 65}, {"time": 1289, "pitch": 55, "duration": 17, "velocity": 63}, {"time": 1292, "pitch": 72, "duration": 1, "velocity": 10}, {"time": 1295, "pitch": 64, "duration": 7, "velocity": 69}, {"time": 1295, "pitch": 67, "duration": 7, "velocity": 85}, {"time": 1295, "pitch": 72, "duration": 6, "velocity": 73}, {"time": 1301, "pitch": 60, "duration": 5, "velocity": 59}, {"time": 1304, "pitch": 69, "duration": 1, "velocity": 10}, {"time": 1307, "pitch": 50, "duration": 20, "velocity": 69}, {"time": 1307, "pitch": 65, "duration": 11, "velocity": 65}, {"time": 1307, "pitch": 69, "duration": 8, "velocity": 70}, {"time": 1307, "pitch": 74, "duration": 8, "velocity": 70}, {"time": 1313, "pitch": 57, "duration": 12, "velocity": 59}, {"time": 1316, "pitch": 69, "duration": 2, "velocity": 36}, {"time": 1316, "pitch": 74, "duration": 1, "velocity": 44}, {"time": 1319, "pitch": 65, "duration": 7, "velocity": 77}, {"time": 1319, "pitch": 69, "duration": 7, "velocity": 83}, {"time": 1319, "pitch": 74, "duration": 7, "velocity": 85}, {"time": 1325, "pitch": 62, "duration": 1, "velocity": 58}, {"time": 1331, "pitch": 43, "duration": 18, "velocity": 76}, {"time": 1331, "pitch": 59, "duration": 11, "velocity": 67}, {"time": 1331, "pitch": 62, "duration": 11, "velocity": 65}, {"time": 1331, "pitch": 67, "duration": 11, "velocity": 67}, {"time": 1337, "pitch": 50, "duration": 12, "velocity": 75}, {"time": 1343, "pitch": 59, "duration": 6, "velocity": 67}, {"time": 1343, "pitch": 62, "duration": 6, "velocity": 74}, {"time": 1343, "pitch": 67, "duration": 6, "velocity": 77}, {"time": 1349, "pitch": 55, "duration": 5, "velocity": 54}, {"time": 1355, "pitch": 48, "duration": 22, "velocity": 69}, {"time": 1355, "pitch": 64, "duration": 11, "velocity": 72}, {"time": 1355, "pitch": 67, "duration": 11, "velocity": 86}, {"time": 1355, "pitch": 72, "duration": 11, "velocity": 76}, {"time": 1361, "pitch": 55, "duration": 13, "velocity": 70}, {"time": 1367, "pitch": 64, "duration": 7, "velocity": 73}, {"time": 1367, "pitch": 67, "duration": 7, "velocity": 86}, {"time": 1367, "pitch": 72, "duration": 7, "velocity": 77}, {"time": 1373, "pitch": 60, "duration": 2, "velocity": 64}, {"time": 1379, "pitch": 43, "duration": 20, "velocity": 63}, {"time": 1379, "pitch": 59, "duration": 11, "velocity": 68}, {"time": 1379, "pitch": 62, "duration": 11, "velocity": 68}, {"time": 1379, "pitch": 67, "duration": 11, "velocity": 74}, {"time": 1385, "pitch": 50, "duration": 17, "velocity": 60}, {"time": 1391, "pitch": 59, "duration": 7, "velocity": 71}, {"time": 1391, "pitch": 62, "duration": 7, "velocity": 79}, {"time": 1391, "pitch": 67, "duration": 7, "velocity": 83}, {"time": 1397, "pitch": 55, "duration": 5, "velocity": 58}, {"time": 1403, "pitch": 45, "duration": 21, "velocity": 68}, {"time": 1403, "pitch": 60, "duration": 11, "velocity": 64}, {"time": 1403, "pitch": 64, "duration": 11, "velocity": 74}, {"time": 1403, "pitch": 69, "duration": 10, "velocity": 66}, {"time": 1409, "pitch": 52, "duration": 13, "velocity": 63}, {"time": 1415, "pitch": 60, "duration": 7, "velocity": 72}, {"time": 1415, "pitch": 64, "duration": 7, "velocity": 83}, {"time": 1415, "pitch": 69, "duration": 7, "velocity": 74}, {"time": 1421, "pitch": 57, "duration": 2, "velocity": 59}, {"time": 1427, "pitch": 40, "duration": 19, "velocity": 79}, {"time": 1427, "pitch": 55, "duration": 10, "velocity": 73}, {"time": 1427, "pitch": 59, "duration": 10, "velocity": 74}, {"time": 1427, "pitch": 64, "duration": 10, "velocity": 60}, {"time": 1433, "pitch": 47, "duration": 17, "velocity": 65}, {"time": 1439, "pitch": 55, "duration": 7, "velocity": 77}, {"time": 1439, "pitch": 59, "duration": 7, "velocity": 85}, {"time": 1439, "pitch": 64, "duration": 7, "velocity": 76}, {"time": 1445, "pitch": 52, "duration": 5, "velocity": 57}, {"time": 1451, "pitch": 41, "duration": 19, "velocity": 76}, {"time": 1451, "pitch": 57, "duration": 10, "velocity": 64}, {"time": 1451, "pitch": 60, "duration": 10, "velocity": 74}, {"time": 1451, "pitch": 65, "duration": 8, "velocity": 83}, {"time": 1457, "pitch": 48, "duration": 13, "velocity": 67}, {"time": 1463, "pitch": 57, "duration": 7, "velocity": 71}, {"time": 1463, "pitch": 60, "duration": 7, "velocity": 75}, {"time": 1463, "pitch": 65, "duration": 7, "velocity": 67}, {"time": 1469, "pitch": 53, "duration": 5, "velocity": 60}, {"time": 1475, "pitch": 40, "duration": 21, "velocity": 49}, {"time": 1475, "pitch": 55, "duration": 11, "velocity": 63}, {"time": 1475, "pitch": 59, "duration": 11, "velocity": 55}, {"time": 1475, "pitch": 64, "duration": 7, "velocity": 58}, {"time": 1481, "pitch": 47, "duration": 13, "velocity": 76}, {"time": 1484, "pitch": 64, "duration": 2, "velocity": 35}, {"time": 1487, "pitch": 55, "duration": 7, "velocity": 67}, {"time": 1487, "pitch": 59, "duration": 7, "velocity": 72}, {"time": 1487, "pitch": 64, "duration": 6, "velocity": 74}, {"time": 1493, "pitch": 52, "duration": 2, "velocity": 58}, {"time": 1499, "pitch": 38, "duration": 12, "velocity": 65}, {"time": 1499, "pitch": 53, "duration": 11, "velocity": 65}, {"time": 1499, "pitch": 57, "duration": 11, "velocity": 62}, {"time": 1499, "pitch": 62, "duration": 11, "velocity": 62}, {"time": 1505, "pitch": 45, "duration": 6, "velocity": 57}, {"time": 1511, "pitch": 43, "duration": 7, "velocity": 57}, {"time": 1511, "pitch": 59, "duration": 7, "velocity": 63}, {"time": 1511, "pitch": 62, "duration": 7, "velocity": 59}, {"time": 1511, "pitch": 67, "duration": 7, "velocity": 65}, {"time": 1517, "pitch": 50, "duration": 4, "velocity": 74}, {"time": 1523, "pitch": 48, "duration": 47, "velocity": 71}, {"time": 1523, "pitch": 64, "duration": 10, "velocity": 63}, {"time": 1523, "pitch": 67, "duration": 10, "velocity": 64}, {"time": 1523, "pitch": 72, "duration": 10, "velocity": 58}, {"time": 1529, "pitch": 55, "duration": 41, "velocity": 62}, {"time": 1535, "pitch": 64, "duration": 11, "velocity": 63}, {"time": 1535, "pitch": 67, "duration": 8, "velocity": 66}, {"time": 1535, "pitch": 72, "duration": 7, "velocity": 61}, {"time": 1541, "pitch": 60, "duration": 28, "velocity": 53}, {"time": 1544, "pitch": 67, "duration": 2, "velocity": 39}, {"time": 1547, "pitch": 64, "duration": 11, "velocity": 62}, {"time": 1547, "pitch": 67, "duration": 11, "velocity": 60}, {"time": 1547, "pitch": 72, "duration": 11, "velocity": 67}, {"time": 1559, "pitch": 64, "duration": 11, "velocity": 61}, {"time": 1559, "pitch": 67, "duration": 11, "velocity": 55}, {"time": 1559, "pitch": 72, "duration": 11, "velocity": 59}, {"time": 1571, "pitch": 45, "duration": 17, "velocity": 59}, {"time": 1577, "pitch": 52, "duration": 13, "velocity": 64}, {"time": 1580, "pitch": 64, "duration": 7, "velocity": 65}, {"time": 1586, "pitch": 60, "duration": 9, "velocity": 62}, {"time": 1595, "pitch": 43, "duration": 21, "velocity": 70}, {"time": 1601, "pitch": 50, "duration": 13, "velocity": 71}, {"time": 1604, "pitch": 64, "duration": 15, "velocity": 66}, {"time": 1619, "pitch": 41, "duration": 21, "velocity": 75}, {"time": 1625, "pitch": 48, "duration": 16, "velocity": 65}, {"time": 1628, "pitch": 60, "duration": 10, "velocity": 64}, {"time": 1634, "pitch": 53, "duration": 6, "velocity": 50}, {"time": 1637, "pitch": 57, "duration": 5, "velocity": 60}, {"time": 1643, "pitch": 48, "duration": 19, "velocity": 75}, {"time": 1649, "pitch": 55, "duration": 13, "velocity": 63}, {"time": 1652, "pitch": 60, "duration": 5, "velocity": 51}, {"time": 1655, "pitch": 64, "duration": 8, "velocity": 67}, {"time": 1655, "pitch": 67, "duration": 8, "velocity": 74}, {"time": 1667, "pitch": 45, "duration": 19, "velocity": 64}, {"time": 1670, "pitch": 52, "duration": 15, "velocity": 15}, {"time": 1673, "pitch": 57, "duration": 11, "velocity": 54}, {"time": 1676, "pitch": 64, "duration": 10, "velocity": 67}, {"time": 1685, "pitch": 60, "duration": 1, "velocity": 52}, {"time": 1691, "pitch": 43, "duration": 19, "velocity": 67}, {"time": 1691, "pitch": 59, "duration": 10, "velocity": 59}, {"time": 1691, "pitch": 62, "duration": 11, "velocity": 65}, {"time": 1697, "pitch": 50, "duration": 12, "velocity": 61}, {"time": 1703, "pitch": 59, "duration": 7, "velocity": 60}, {"time": 1703, "pitch": 62, "duration": 7, "velocity": 71}, {"time": 1715, "pitch": 41, "duration": 47, "velocity": 74}, {"time": 1715, "pitch": 57, "duration": 11, "velocity": 62}, {"time": 1715, "pitch": 60, "duration": 11, "velocity": 74}, {"time": 1721, "pitch": 48, "duration": 40, "velocity": 65}, {"time": 1727, "pitch": 57, "duration": 11, "velocity": 63}, {"time": 1727, "pitch": 60, "duration": 11, "velocity": 74}, {"time": 1733, "pitch": 53, "duration": 6, "velocity": 43}, {"time": 1739, "pitch": 57, "duration": 11, "velocity": 66}, {"time": 1739, "pitch": 60, "duration": 11, "velocity": 75}, {"time": 1739, "pitch": 65, "duration": 11, "velocity": 85}, {"time": 1745, "pitch": 53, "duration": 18, "velocity": 58}, {"time": 1751, "pitch": 57, "duration": 11, "velocity": 79}, {"time": 1751, "pitch": 60, "duration": 11, "velocity": 79}, {"time": 1751, "pitch": 65, "duration": 11, "velocity": 79}, {"time": 1763, "pitch": 41, "duration": 72, "velocity": 74}, {"time": 1763, "pitch": 57, "duration": 11, "velocity": 81}, {"time": 1763, "pitch": 60, "duration": 11, "velocity": 86}, {"time": 1763, "pitch": 65, "duration": 11, "velocity": 86}, {"time": 1775, "pitch": 57, "duration": 11, "velocity": 64}, {"time": 1775, "pitch": 60, "duration": 11, "velocity": 77}, {"time": 1775, "pitch": 65, "duration": 11, "velocity": 85}, {"time": 1787, "pitch": 57, "duration": 48, "velocity": 60}, {"time": 1787, "pitch": 60, "duration": 48, "velocity": 71}, {"time": 1787, "pitch": 65, "duration": 48, "velocity": 74}, {"time": 1835, "pitch": 48, "duration": 14, "velocity": 73}, {"time": 1835, "pitch": 64, "duration": 11, "velocity": 73}, {"time": 1835, "pitch": 67, "duration": 11, "velocity": 73}, {"time": 1841, "pitch": 55, "duration": 7, "velocity": 78}, {"time": 1847, "pitch": 64, "duration": 5, "velocity": 79}, {"time": 1847, "pitch": 67, "duration": 5, "velocity": 79}, {"time": 1859, "pitch": 43, "duration": 19, "velocity": 74}, {"time": 1859, "pitch": 59, "duration": 10, "velocity": 65}, {"time": 1859, "pitch": 62, "duration": 11, "velocity": 70}, {"time": 1865, "pitch": 50, "duration": 18, "velocity": 69}, {"time": 1871, "pitch": 59, "duration": 7, "velocity": 73}, {"time": 1871, "pitch": 62, "duration": 7, "velocity": 79}, {"time": 1877, "pitch": 55, "duration": 5, "velocity": 55}, {"time": 1883, "pitch": 45, "duration": 39, "velocity": 67}, {"time": 1883, "pitch": 60, "duration": 11, "velocity": 65}, {"time": 1883, "pitch": 64, "duration": 11, "velocity": 73}, {"time": 1889, "pitch": 52, "duration": 33, "velocity": 60}, {"time": 1895, "pitch": 60, "duration": 10, "velocity": 61}, {"time": 1895, "pitch": 64, "duration": 10, "velocity": 76}, {"time": 1901, "pitch": 57, "duration": 20, "velocity": 52}, {"time": 1907, "pitch": 60, "duration": 10, "velocity": 61}, {"time": 1907, "pitch": 64, "duration": 11, "velocity": 70}, {"time": 1919, "pitch": 47, "duration": 11, "velocity": 69}, {"time": 1919, "pitch": 62, "duration": 7, "velocity": 61}, {"time": 1919, "pitch": 67, "duration": 8, "velocity": 71}, {"time": 1931, "pitch": 48, "duration": 18, "velocity": 71}, {"time": 1931, "pitch": 64, "duration": 10, "velocity": 61}, {"time": 1931, "pitch": 67, "duration": 11, "velocity": 76}, {"time": 1937, "pitch": 55, "duration": 11, "velocity": 60}, {"time": 1943, "pitch": 64, "duration": 7, "velocity": 63}, {"time": 1943, "pitch": 67, "duration": 7, "velocity": 74}, {"time": 1955, "pitch": 43, "duration": 19, "velocity": 67}, {"time": 1955, "pitch": 59, "duration": 10, "velocity": 60}, {"time": 1955, "pitch": 62, "duration": 11, "velocity": 67}, {"time": 1961, "pitch": 50, "duration": 18, "velocity": 57}, {"time": 1967, "pitch": 59, "duration": 7, "velocity": 62}, {"time": 1967, "pitch": 62, "duration": 7, "velocity": 68}, {"time": 1973, "pitch": 55, "duration": 5, "velocity": 58}, {"time": 1979, "pitch": 41, "duration": 39, "velocity": 60}, {"time": 1979, "pitch": 57, "duration": 11, "velocity": 51}, {"time": 1979, "pitch": 60, "duration": 11, "velocity": 61}, {"time": 1985, "pitch": 48, "duration": 23, "velocity": 60}, {"time": 1991, "pitch": 57, "duration": 20, "velocity": 57}, {"time": 1991, "pitch": 60, "duration": 21, "velocity": 64}, {"time": 1997, "pitch": 53, "duration": 10, "velocity": 47}, {"time": 1997, "pitch": 65, "duration": 3, "velocity": 63}, {"time": 2000, "pitch": 72, "duration": 16, "velocity": 66}, {"time": 2027, "pitch": 41, "duration": 18, "velocity": 76}, {"time": 2027, "pitch": 57, "duration": 10, "velocity": 60}, {"time": 2027, "pitch": 60, "duration": 10, "velocity": 64}, {"time": 2033, "pitch": 48, "duration": 17, "velocity": 82}, {"time": 2039, "pitch": 57, "duration": 6, "velocity": 67}, {"time": 2039, "pitch": 60, "duration": 6, "velocity": 74}, {"time": 2045, "pitch": 53, "duration": 6, "velocity": 55}, {"time": 2051, "pitch": 43, "duration": 20, "velocity": 67}, {"time": 2051, "pitch": 59, "duration": 11, "velocity": 60}, {"time": 2051, "pitch": 62, "duration": 11, "velocity": 58}, {"time": 2057, "pitch": 50, "duration": 13, "velocity": 59}, {"time": 2063, "pitch": 59, "duration": 7, "velocity": 71}, {"time": 2063, "pitch": 62, "duration": 7, "velocity": 79}, {"time": 2069, "pitch": 55, "duration": 2, "velocity": 59}, {"time": 2075, "pitch": 40, "duration": 18, "velocity": 68}, {"time": 2075, "pitch": 55, "duration": 11, "velocity": 60}, {"time": 2075, "pitch": 59, "duration": 11, "velocity": 71}, {"time": 2081, "pitch": 47, "duration": 13, "velocity": 83}, {"time": 2087, "pitch": 55, "duration": 7, "velocity": 79}, {"time": 2087, "pitch": 59, "duration": 7, "velocity": 77}, {"time": 2093, "pitch": 52, "duration": 6, "velocity": 59}, {"time": 2099, "pitch": 45, "duration": 20, "velocity": 42}, {"time": 2099, "pitch": 60, "duration": 11, "velocity": 63}, {"time": 2099, "pitch": 64, "duration": 11, "velocity": 76}, {"time": 2105, "pitch": 52, "duration": 11, "velocity": 59}, {"time": 2111, "pitch": 60, "duration": 7, "velocity": 61}, {"time": 2111, "pitch": 64, "duration": 7, "velocity": 71}, {"time": 2123, "pitch": 41, "duration": 20, "velocity": 71}, {"time": 2123, "pitch": 57, "duration": 10, "velocity": 59}, {"time": 2123, "pitch": 60, "duration": 11, "velocity": 65}, {"time": 2129, "pitch": 48, "duration": 17, "velocity": 67}, {"time": 2135, "pitch": 57, "duration": 8, "velocity": 63}, {"time": 2135, "pitch": 60, "duration": 7, "velocity": 73}, {"time": 2141, "pitch": 53, "duration": 5, "velocity": 53}, {"time": 2147, "pitch": 48, "duration": 21, "velocity": 70}, {"time": 2147, "pitch": 64, "duration": 11, "velocity": 63}, {"time": 2147, "pitch": 67, "duration": 11, "velocity": 73}, {"time": 2153, "pitch": 55, "duration": 14, "velocity": 60}, {"time": 2159, "pitch": 64, "duration": 9, "velocity": 60}, {"time": 2159, "pitch": 67, "duration": 9, "velocity": 63}, {"time": 2159, "pitch": 72, "duration": 8, "velocity": 62}, {"time": 2171, "pitch": 43, "duration": 44, "velocity": 59}, {"time": 2171, "pitch": 59, "duration": 11, "velocity": 65}, {"time": 2171, "pitch": 62, "duration": 11, "velocity": 62}, {"time": 2171, "pitch": 67, "duration": 8, "velocity": 74}, {"time": 2177, "pitch": 50, "duration": 37, "velocity": 62}, {"time": 2183, "pitch": 59, "duration": 11, "velocity": 63}, {"time": 2183, "pitch": 62, "duration": 11, "velocity": 71}, {"time": 2183, "pitch": 67, "duration": 10, "velocity": 75}, {"time": 2189, "pitch": 55, "duration": 6, "velocity": 50}, {"time": 2195, "pitch": 59, "duration": 6, "velocity": 60}, {"time": 2195, "pitch": 62, "duration": 6, "velocity": 66}, {"time": 2195, "pitch": 67, "duration": 6, "velocity": 74}, {"time": 2201, "pitch": 55, "duration": 14, "velocity": 56}, {"time": 2207, "pitch": 67, "duration": 5, "velocity": 67}, {"time": 2207, "pitch": 72, "duration": 5, "velocity": 67}, {"time": 2213, "pitch": 67, "duration": 5, "velocity": 67}, {"time": 2213, "pitch": 74, "duration": 4, "velocity": 64}, {"time": 2219, "pitch": 48, "duration": 19, "velocity": 68}, {"time": 2219, "pitch": 64, "duration": 11, "velocity": 61}, {"time": 2219, "pitch": 67, "duration": 8, "velocity": 73}, {"time": 2225, "pitch": 55, "duration": 11, "velocity": 58}, {"time": 2231, "pitch": 64, "duration": 7, "velocity": 63}, {"time": 2231, "pitch": 67, "duration": 7, "velocity": 76}, {"time": 2231, "pitch": 72, "duration": 7, "velocity": 65}, {"time": 2243, "pitch": 43, "duration": 21, "velocity": 73}, {"time": 2243, "pitch": 59, "duration": 11, "velocity": 62}, {"time": 2243, "pitch": 62, "duration": 8, "velocity": 67}, {"time": 2243, "pitch": 67, "duration": 8, "velocity": 71}, {"time": 2249, "pitch": 50, "duration": 18, "velocity": 58}, {"time": 2252, "pitch": 62, "duration": 2, "velocity": 13}, {"time": 2252, "pitch": 67, "duration": 2, "velocity": 11}, {"time": 2255, "pitch": 59, "duration": 7, "velocity": 65}, {"time": 2255, "pitch": 62, "duration": 7, "velocity": 74}, {"time": 2255, "pitch": 67, "duration": 7, "velocity": 74}, {"time": 2261, "pitch": 55, "duration": 5, "velocity": 58}, {"time": 2267, "pitch": 45, "duration": 20, "velocity": 71}, {"time": 2267, "pitch": 60, "duration": 11, "velocity": 55}, {"time": 2267, "pitch": 64, "duration": 10, "velocity": 35}, {"time": 2267, "pitch": 69, "duration": 6, "velocity": 53}, {"time": 2273, "pitch": 52, "duration": 13, "velocity": 61}, {"time": 2276, "pitch": 69, "duration": 1, "velocity": 35}, {"time": 2279, "pitch": 60, "duration": 7, "velocity": 61}, {"time": 2279, "pitch": 64, "duration": 7, "velocity": 79}, {"time": 2279, "pitch": 69, "duration": 6, "velocity": 74}, {"time": 2285, "pitch": 57, "duration": 2, "velocity": 58}, {"time": 2291, "pitch": 40, "duration": 21, "velocity": 44}, {"time": 2291, "pitch": 55, "duration": 7, "velocity": 63}, {"time": 2291, "pitch": 59, "duration": 11, "velocity": 61}, {"time": 2291, "pitch": 64, "duration": 7, "velocity": 63}, {"time": 2297, "pitch": 47, "duration": 10, "velocity": 60}, {"time": 2300, "pitch": 55, "duration": 2, "velocity": 10}, {"time": 2303, "pitch": 55, "duration": 9, "velocity": 65}, {"time": 2303, "pitch": 59, "duration": 10, "velocity": 70}, {"time": 2303, "pitch": 64, "duration": 7, "velocity": 76}, {"time": 2309, "pitch": 47, "duration": 6, "velocity": 63}, {"time": 2315, "pitch": 41, "duration": 18, "velocity": 79}, {"time": 2315, "pitch": 57, "duration": 10, "velocity": 54}, {"time": 2315, "pitch": 60, "duration": 11, "velocity": 48}, {"time": 2321, "pitch": 48, "duration": 12, "velocity": 57}, {"time": 2327, "pitch": 57, "duration": 6, "velocity": 68}, {"time": 2327, "pitch": 60, "duration": 7, "velocity": 79}, {"time": 2327, "pitch": 65, "duration": 6, "velocity": 77}, {"time": 2333, "pitch": 53, "duration": 6, "velocity": 61}, {"time": 2339, "pitch": 48, "duration": 20, "velocity": 59}, {"time": 2339, "pitch": 64, "duration": 10, "velocity": 64}, {"time": 2339, "pitch": 67, "duration": 11, "velocity": 71}, {"time": 2339, "pitch": 72, "duration": 8, "velocity": 65}, {"time": 2345, "pitch": 55, "duration": 17, "velocity": 63}, {"time": 2348, "pitch": 72, "duration": 1, "velocity": 10}, {"time": 2351, "pitch": 64, "duration": 7, "velocity": 69}, {"time": 2351, "pitch": 67, "duration": 7, "velocity": 85}, {"time": 2351, "pitch": 72, "duration": 6, "velocity": 73}, {"time": 2357, "pitch": 60, "duration": 5, "velocity": 59}, {"time": 2360, "pitch": 69, "duration": 1, "velocity": 10}, {"time": 2363, "pitch": 50, "duration": 20, "velocity": 69}, {"time": 2363, "pitch": 65, "duration": 11, "velocity": 65}, {"time": 2363, "pitch": 69, "duration": 8, "velocity": 70}, {"time": 2363, "pitch": 74, "duration": 8, "velocity": 70}, {"time": 2369, "pitch": 57, "duration": 12, "velocity": 59}, {"time": 2372, "pitch": 69, "duration": 2, "velocity": 36}, {"time": 2372, "pitch": 74, "duration": 1, "velocity": 44}, {"time": 2375, "pitch": 65, "duration": 7, "velocity": 77}, {"time": 2375, "pitch": 69, "duration": 7, "velocity": 83}, {"time": 2375, "pitch": 74, "duration": 7, "velocity": 85}, {"time": 2381, "pitch": 62, "duration": 1, "velocity": 58}, {"time": 2387, "pitch": 43, "duration": 18, "velocity": 76}, {"time": 2387, "pitch": 59, "duration": 11, "velocity": 67}, {"time": 2387, "pitch": 62, "duration": 11, "velocity": 65}, {"time": 2387, "pitch": 67, "duration": 11, "velocity": 67}, {"time": 2393, "pitch": 50, "duration": 12, "velocity": 75}, {"time": 2399, "pitch": 59, "duration": 6, "velocity": 67}, {"time": 2399, "pitch": 62, "duration": 6, "velocity": 74}, {"time": 2399, "pitch": 67, "duration": 6, "velocity": 77}, {"time": 2405, "pitch": 55, "duration": 5, "velocity": 54}, {"time": 2411, "pitch": 48, "duration": 22, "velocity": 69}, {"time": 2411, "pitch": 64, "duration": 11, "velocity": 72}, {"time": 2411, "pitch": 67, "duration": 11, "velocity": 86}, {"time": 2411, "pitch": 72, "duration": 11, "velocity": 76}, {"time": 2417, "pitch": 55, "duration": 13, "velocity": 70}, {"time": 2423, "pitch": 64, "duration": 7, "velocity": 73}, {"time": 2423, "pitch": 67, "duration": 7, "velocity": 86}, {"time": 2423, "pitch": 72, "duration": 7, "velocity": 77}, {"time": 2429, "pitch": 60, "duration": 2, "velocity": 64}, {"time": 2435, "pitch": 43, "duration": 20, "velocity": 63}, {"time": 2435, "pitch": 59, "duration": 11, "velocity": 68}, {"time": 2435, "pitch": 62, "duration": 11, "velocity": 68}, {"time": 2435, "pitch": 67, "duration": 11, "velocity": 74}, {"time": 2441, "pitch": 50, "duration": 17, "velocity": 60}, {"time": 2447, "pitch": 59, "duration": 7, "velocity": 71}, {"time": 2447, "pitch": 62, "duration": 7, "velocity": 79}, {"time": 2447, "pitch": 67, "duration": 7, "velocity": 83}, {"time": 2453, "pitch": 55, "duration": 5, "velocity": 58}, {"time": 2459, "pitch": 45, "duration": 21, "velocity": 68}, {"time": 2459, "pitch": 60, "duration": 11, "velocity": 64}, {"time": 2459, "pitch": 64, "duration": 11, "velocity": 74}, {"time": 2459, "pitch": 69, "duration": 10, "velocity": 66}, {"time": 2465, "pitch": 52, "duration": 13, "velocity": 63}, {"time": 2471, "pitch": 60, "duration": 7, "velocity": 72}, {"time": 2471, "pitch": 64, "duration": 7, "velocity": 83}, {"time": 2471, "pitch": 69, "duration": 7, "velocity": 74}, {"time": 2477, "pitch": 57, "duration": 2, "velocity": 59}, {"time": 2483, "pitch": 40, "duration": 19, "velocity": 79}, {"time": 2483, "pitch": 55, "duration": 10, "velocity": 73}, {"time": 2483, "pitch": 59, "duration": 10, "velocity": 74}, {"time": 2483, "pitch": 64, "duration": 10, "velocity": 60}, {"time": 2489, "pitch": 47, "duration": 17, "velocity": 65}, {"time": 2495, "pitch": 55, "duration": 7, "velocity": 77}, {"time": 2495, "pitch": 59, "duration": 7, "velocity": 85}, {"time": 2495, "pitch": 64, "duration": 7, "velocity": 76}, {"time": 2501, "pitch": 52, "duration": 5, "velocity": 57}, {"time": 2507, "pitch": 41, "duration": 19, "velocity": 76}, {"time": 2507, "pitch": 57, "duration": 10, "velocity": 64}, {"time": 2507, "pitch": 60, "duration": 10, "velocity": 74}, {"time": 2507, "pitch": 65, "duration": 8, "velocity": 83}, {"time": 2513, "pitch": 48, "duration": 13, "velocity": 67}, {"time": 2519, "pitch": 57, "duration": 7, "velocity": 71}, {"time": 2519, "pitch": 60, "duration": 7, "velocity": 75}, {"time": 2519, "pitch": 65, "duration": 7, "velocity": 67}, {"time": 2525, "pitch": 53, "duration": 5, "velocity": 60}, {"time": 2531, "pitch": 40, "duration": 21, "velocity": 49}, {"time": 2531, "pitch": 55, "duration": 11, "velocity": 63}, {"time": 2531, "pitch": 59, "duration": 11, "velocity": 55}, {"time": 2531, "pitch": 64, "duration": 7, "velocity": 58}, {"time": 2537, "pitch": 47, "duration": 13, "velocity": 76}, {"time": 2540, "pitch": 64, "duration": 2, "velocity": 35}, {"time": 2543, "pitch": 55, "duration": 7, "velocity": 67}, {"time": 2543, "pitch": 59, "duration": 7, "velocity": 72}, {"time": 2543, "pitch": 64, "duration": 6, "velocity": 74}, {"time": 2549, "pitch": 52, "duration": 2, "velocity": 58}, {"time": 2555, "pitch": 38, "duration": 12, "velocity": 65}, {"time": 2555, "pitch": 53, "duration": 11, "velocity": 65}, {"time": 2555, "pitch": 57, "duration": 11, "velocity": 62}, {"time": 2555, "pitch": 62, "duration": 11, "velocity": 62}, {"time": 2561, "pitch": 45, "duration": 6, "velocity": 57}, {"time": 2567, "pitch": 43, "duration": 7, "velocity": 57}, {"time": 2567, "pitch": 59, "duration": 7, "velocity": 63}, {"time": 2567, "pitch": 62, "duration": 7, "velocity": 59}, {"time": 2567, "pitch": 67, "duration": 7, "velocity": 65}, {"time": 2573, "pitch": 50, "duration": 4, "velocity": 74}, {"time": 2579, "pitch": 48, "duration": 14, "velocity": 68}, {"time": 2579, "pitch": 64, "duration": 11, "velocity": 67}, {"time": 2579, "pitch": 67, "duration": 12, "velocity": 77}, {"time": 2579, "pitch": 72, "duration": 11, "velocity": 74}, {"time": 2585, "pitch": 55, "duration": 7, "velocity": 67}, {"time": 2591, "pitch": 64, "duration": 1, "velocity": 69}, {"time": 2591, "pitch": 67, "duration": 2, "velocity": 67}, {"time": 2591, "pitch": 72, "duration": 1, "velocity": 69}, {"time": 2597, "pitch": 48, "duration": 27, "velocity": 81}, {"time": 2597, "pitch": 64, "duration": 17, "velocity": 74}, {"time": 2597, "pitch": 67, "duration": 17, "velocity": 86}, {"time": 2597, "pitch": 72, "duration": 17, "velocity": 81}, {"time": 2612, "pitch": 55, "duration": 14, "velocity": 70}, {"time": 2615, "pitch": 64, "duration": 10, "velocity": 87}, {"time": 2615, "pitch": 67, "duration": 11, "velocity": 87}, {"time": 2615, "pitch": 72, "duration": 10, "velocity": 87}, {"time": 2627, "pitch": 48, "duration": 4, "velocity": 87}, {"time": 2627, "pitch": 64, "duration": 4, "velocity": 87}, {"time": 2627, "pitch": 67, "duration": 4, "velocity": 87}, {"time": 2627, "pitch": 72, "duration": 4, "velocity": 87}, {"time": 2666, "pitch": 57, "duration": 6, "velocity": 85}, {"time": 2666, "pitch": 40, "duration": 5, "velocity": 85}, {"time": 2666, "pitch": 53, "duration": 5, "velocity": 86}, {"time": 2671, "pitch": 59, "duration": 3, "velocity": 84}, {"time": 2671, "pitch": 44, "duration": 4, "velocity": 84}, {"time": 2671, "pitch": 56, "duration": 3, "velocity": 84}, {"time": 2675, "pitch": 45, "duration": 13, "velocity": 84}, {"time": 2675, "pitch": 57, "duration": 12, "velocity": 84}, {"time": 2675, "pitch": 60, "duration": 12, "velocity": 84}, {"time": 2675, "pitch": 64, "duration": 12, "velocity": 84}, {"time": 2699, "pitch": 40, "duration": 22, "velocity": 61}, {"time": 2699, "pitch": 47, "duration": 24, "velocity": 75}, {"time": 2699, "pitch": 52, "duration": 12, "velocity": 58}, {"time": 2699, "pitch": 55, "duration": 10, "velocity": 69}, {"time": 2699, "pitch": 59, "duration": 10, "velocity": 63}, {"time": 2699, "pitch": 64, "duration": 10, "velocity": 76}, {"time": 2711, "pitch": 55, "duration": 8, "velocity": 76}, {"time": 2711, "pitch": 59, "duration": 8, "velocity": 74}, {"time": 2711, "pitch": 64, "duration": 8, "velocity": 73}, {"time": 2714, "pitch": 52, "duration": 7, "velocity": 60}, {"time": 2720, "pitch": 55, "duration": 1, "velocity": 59}, {"time": 2720, "pitch": 59, "duration": 1, "velocity": 58}, {"time": 2723, "pitch": 41, "duration": 18, "velocity": 77}, {"time": 2723, "pitch": 57, "duration": 10, "velocity": 64}, {"time": 2723, "pitch": 60, "duration": 10, "velocity": 79}, {"time": 2723, "pitch": 65, "duration": 10, "velocity": 79}, {"time": 2729, "pitch": 48, "duration": 12, "velocity": 70}, {"time": 2735, "pitch": 57, "duration": 7, "velocity": 76}, {"time": 2735, "pitch": 60, "duration": 7, "velocity": 86}, {"time": 2735, "pitch": 65, "duration": 7, "velocity": 90}, {"time": 2741, "pitch": 53, "duration": 6, "velocity": 62}, {"time": 2747, "pitch": 48, "duration": 18, "velocity": 63}, {"time": 2747, "pitch": 64, "duration": 11, "velocity": 72}, {"time": 2747, "pitch": 67, "duration": 11, "velocity": 83}, {"time": 2747, "pitch": 72, "duration": 8, "velocity": 77}, {"time": 2753, "pitch": 55, "duration": 17, "velocity": 66}, {"time": 2756, "pitch": 72, "duration": 1, "velocity": 32}, {"time": 2759, "pitch": 64, "duration": 7, "velocity": 85}, {"time": 2759, "pitch": 67, "duration": 7, "velocity": 85}, {"time": 2759, "pitch": 72, "duration": 7, "velocity": 85}, {"time": 2765, "pitch": 60, "duration": 5, "velocity": 55}, {"time": 2768, "pitch": 65, "duration": 2, "velocity": 49}, {"time": 2768, "pitch": 69, "duration": 1, "velocity": 36}, {"time": 2768, "pitch": 74, "duration": 1, "velocity": 36}, {"time": 2771, "pitch": 50, "duration": 21, "velocity": 71}, {"time": 2771, "pitch": 65, "duration": 11, "velocity": 74}, {"time": 2771, "pitch": 69, "duration": 11, "velocity": 81}, {"time": 2771, "pitch": 74, "duration": 8, "velocity": 85}, {"time": 2777, "pitch": 57, "duration": 14, "velocity": 61}, {"time": 2780, "pitch": 74, "duration": 1, "velocity": 11}, {"time": 2783, "pitch": 65, "duration": 7, "velocity": 85}, {"time": 2783, "pitch": 69, "duration": 7, "velocity": 85}, {"time": 2783, "pitch": 74, "duration": 7, "velocity": 85}, {"time": 2789, "pitch": 62, "duration": 2, "velocity": 58}, {"time": 2795, "pitch": 43, "duration": 17, "velocity": 63}, {"time": 2795, "pitch": 59, "duration": 12, "velocity": 65}, {"time": 2795, "pitch": 62, "duration": 9, "velocity": 68}, {"time": 2795, "pitch": 67, "duration": 9, "velocity": 77}, {"time": 2801, "pitch": 50, "duration": 13, "velocity": 69}, {"time": 2804, "pitch": 62, "duration": 2, "velocity": 36}, {"time": 2804, "pitch": 67, "duration": 2, "velocity": 44}, {"time": 2807, "pitch": 59, "duration": 7, "velocity": 79}, {"time": 2807, "pitch": 62, "duration": 7, "velocity": 85}, {"time": 2807, "pitch": 67, "duration": 7, "velocity": 87}, {"time": 2810, "pitch": 55, "duration": 2, "velocity": 60}, {"time": 2813, "pitch": 55, "duration": 6, "velocity": 68}, {"time": 2819, "pitch": 48, "duration": 20, "velocity": 80}, {"time": 2819, "pitch": 64, "duration": 11, "velocity": 80}, {"time": 2819, "pitch": 67, "duration": 11, "velocity": 80}, {"time": 2819, "pitch": 72, "duration": 11, "velocity": 80}, {"time": 2825, "pitch": 55, "duration": 13, "velocity": 63}, {"time": 2831, "pitch": 64, "duration": 6, "velocity": 80}, {"time": 2831, "pitch": 67, "duration": 9, "velocity": 80}, {"time": 2831, "pitch": 72, "duration": 8, "velocity": 80}, {"time": 2834, "pitch": 60, "duration": 3, "velocity": 61}, {"time": 2837, "pitch": 64, "duration": 2, "velocity": 47}, {"time": 2843, "pitch": 43, "duration": 21, "velocity": 77}, {"time": 2843, "pitch": 59, "duration": 2, "velocity": 77}, {"time": 2843, "pitch": 62, "duration": 7, "velocity": 81}, {"time": 2843, "pitch": 67, "duration": 6, "velocity": 65}, {"time": 2849, "pitch": 50, "duration": 17, "velocity": 64}, {"time": 2855, "pitch": 59, "duration": 7, "velocity": 84}, {"time": 2855, "pitch": 62, "duration": 7, "velocity": 84}, {"time": 2855, "pitch": 67, "duration": 7, "velocity": 84}, {"time": 2861, "pitch": 55, "duration": 5, "velocity": 88}, {"time": 2867, "pitch": 45, "duration": 21, "velocity": 76}, {"time": 2867, "pitch": 60, "duration": 11, "velocity": 68}, {"time": 2867, "pitch": 64, "duration": 11, "velocity": 76}, {"time": 2867, "pitch": 69, "duration": 8, "velocity": 73}, {"time": 2873, "pitch": 52, "duration": 13, "velocity": 64}, {"time": 2876, "pitch": 69, "duration": 1, "velocity": 14}, {"time": 2879, "pitch": 60, "duration": 7, "velocity": 82}, {"time": 2879, "pitch": 64, "duration": 7, "velocity": 82}, {"time": 2879, "pitch": 69, "duration": 7, "velocity": 82}, {"time": 2885, "pitch": 57, "duration": 2, "velocity": 82}, {"time": 2891, "pitch": 40, "duration": 22, "velocity": 67}, {"time": 2891, "pitch": 55, "duration": 11, "velocity": 67}, {"time": 2891, "pitch": 59, "duration": 11, "velocity": 75}, {"time": 2891, "pitch": 64, "duration": 7, "velocity": 74}, {"time": 2897, "pitch": 47, "duration": 18, "velocity": 76}, {"time": 2903, "pitch": 55, "duration": 7, "velocity": 86}, {"time": 2903, "pitch": 59, "duration": 7, "velocity": 79}, {"time": 2903, "pitch": 64, "duration": 7, "velocity": 71}, {"time": 2909, "pitch": 52, "duration": 5, "velocity": 60}, {"time": 2912, "pitch": 57, "duration": 2, "velocity": 45}, {"time": 2915, "pitch": 41, "duration": 19, "velocity": 77}, {"time": 2915, "pitch": 57, "duration": 10, "velocity": 71}, {"time": 2915, "pitch": 60, "duration": 11, "velocity": 77}, {"time": 2915, "pitch": 65, "duration": 10, "velocity": 77}, {"time": 2921, "pitch": 48, "duration": 13, "velocity": 76}, {"time": 2927, "pitch": 57, "duration": 7, "velocity": 82}, {"time": 2927, "pitch": 60, "duration": 7, "velocity": 82}, {"time": 2927, "pitch": 65, "duration": 7, "velocity": 82}, {"time": 2933, "pitch": 53, "duration": 7, "velocity": 60}, {"time": 2939, "pitch": 48, "duration": 19, "velocity": 63}, {"time": 2939, "pitch": 64, "duration": 11, "velocity": 68}, {"time": 2939, "pitch": 67, "duration": 11, "velocity": 77}, {"time": 2939, "pitch": 72, "duration": 10, "velocity": 72}, {"time": 2945, "pitch": 55, "duration": 18, "velocity": 64}, {"time": 2951, "pitch": 64, "duration": 7, "velocity": 76}, {"time": 2951, "pitch": 67, "duration": 7, "velocity": 76}, {"time": 2951, "pitch": 72, "duration": 7, "velocity": 76}, {"time": 2957, "pitch": 60, "duration": 5, "velocity": 62}, {"time": 2960, "pitch": 65, "duration": 2, "velocity": 47}, {"time": 2960, "pitch": 69, "duration": 2, "velocity": 15}, {"time": 2963, "pitch": 50, "duration": 6, "velocity": 77}, {"time": 2963, "pitch": 65, "duration": 6, "velocity": 77}, {"time": 2963, "pitch": 69, "duration": 6, "velocity": 77}, {"time": 2963, "pitch": 74, "duration": 6, "velocity": 77}, {"time": 2975, "pitch": 43, "duration": 6, "velocity": 67}, {"time": 2975, "pitch": 59, "duration": 7, "velocity": 67}, {"time": 2975, "pitch": 62, "duration": 7, "velocity": 67}, {"time": 2975, "pitch": 67, "duration": 7, "velocity": 67}, {"time": 2987, "pitch": 41, "duration": 105, "velocity": 60}, {"time": 2987, "pitch": 57, "duration": 104, "velocity": 63}, {"time": 2987, "pitch": 60, "duration": 104, "velocity": 59}, {"time": 2987, "pitch": 65, "duration": 23, "velocity": 65}, {"time": 3007, "pitch": 81, "duration": 3, "velocity": 60}, {"time": 3008, "pitch": 48, "duration": 81, "velocity": 47}, {"time": 3009, "pitch": 83, "duration": 2, "velocity": 68}, {"time": 3011, "pitch": 84, "duration": 5, "velocity": 79}, {"time": 3011, "pitch": 53, "duration": 80, "velocity": 58}, {"time": 3011, "pitch": 65, "duration": 79, "velocity": 74}, {"time": 3015, "pitch": 83, "duration": 4, "velocity": 70}, {"time": 3018, "pitch": 81, "duration": 4, "velocity": 65}, {"time": 3022, "pitch": 83, "duration": 4, "velocity": 73}, {"time": 3026, "pitch": 81, "duration": 4, "velocity": 59}, {"time": 3030, "pitch": 74, "duration": 5, "velocity": 68}, {"time": 3035, "pitch": 76, "duration": 48, "velocity": 84}], "annotations": [{"time": 26, "annotation": {"number": 64, "value": 71}, "group": "control_change"}, {"time": 26, "annotation": {"number": 64, "value": 127}, "group": "control_change"}, {"time": 43, "annotation": {"number": 64, "value": 71}, "group": "control_change"}, {"time": 43, "annotation": {"number": 64, "value": 0}, "group": "control_change"}, {"time": 44, "annotation": {"number": 64, "value": 71}, "group": "control_change"}, {"time": 44, "annotation": {"number": 64, "value": 127}, "group": "control_change"}, {"time": 47, "annotation": {"number": 64, "value": 74}, "group": "control_change"}, {"time": 73, "annotation": {"number": 64, "value": 71}, "group": "control_change"}, {"time": 73, "annotation": {"number": 64, "value": 0}, "group": "control_change"}, {"time": 75, "annotation": {"number": 64, "value": 71}, "group": "control_change"}, {"time": 75, "annotation": {"number": 64, "value": 127}, "group": "control_change"}, {"time": 2663, "annotation": {"number": 64, "value": 12}, "group": "control_change"}, {"time": 2675, "annotation": {"number": 64, "value": 10}, "group": "control_change"}, {"time": 2687, "annotation": {"number": 64, "value": 12}, "group": "control_change"}, {"time": 2699, "annotation": {"number": 64, "value": 74}, "group": "control_change"}, {"time": 2711, "annotation": {"number": 64, "value": 75}, "group": "control_change"}, {"time": 3096, "annotation": {"number": 64, "value": 0}, "group": "control_change"}]}]}