{"metadata": {"schema_version": "0.2", "title": "None", "source_filename": "069.mid", "source_format": "midi"}, "resolution": 12, "tempos": [{"time": 0, "qpm": 123.99999173333389}], "key_signatures": [{"time": 0, "root": 0, "mode": "major"}], "time_signatures": [{"time": 0, "numerator": 4, "denominator": 4}, {"time": 0, "numerator": 1, "denominator": 4}], "tracks": [{"program": 4, "is_drum": false, "name": "MELODY", "notes": [{"time": 441, "pitch": 68, "duration": 6, "velocity": 90}, {"time": 447, "pitch": 68, "duration": 6, "velocity": 86}, {"time": 453, "pitch": 68, "duration": 6, "velocity": 81}, {"time": 459, "pitch": 68, "duration": 6, "velocity": 83}, {"time": 465, "pitch": 75, "duration": 12, "velocity": 95}, {"time": 477, "pitch": 75, "duration": 6, "velocity": 104}, {"time": 483, "pitch": 73, "duration": 12, "velocity": 90}, {"time": 495, "pitch": 73, "duration": 6, "velocity": 86}, {"time": 501, "pitch": 73, "duration": 6, "velocity": 87}, {"time": 507, "pitch": 73, "duration": 6, "velocity": 87}, {"time": 513, "pitch": 78, "duration": 6, "velocity": 114}, {"time": 519, "pitch": 78, "duration": 6, "velocity": 112}, {"time": 525, "pitch": 78, "duration": 12, "velocity": 120}, {"time": 537, "pitch": 73, "duration": 6, "velocity": 93}, {"time": 543, "pitch": 73, "duration": 6, "velocity": 79}, {"time": 549, "pitch": 73, "duration": 6, "velocity": 111}, {"time": 555, "pitch": 73, "duration": 6, "velocity": 95}, {"time": 561, "pitch": 75, "duration": 12, "velocity": 114}, {"time": 573, "pitch": 75, "duration": 6, "velocity": 71}, {"time": 579, "pitch": 72, "duration": 12, "velocity": 93}, {"time": 591, "pitch": 72, "duration": 6, "velocity": 67}, {"time": 597, "pitch": 72, "duration": 6, "velocity": 87}, {"time": 603, "pitch": 73, "duration": 6, "velocity": 95}, {"time": 609, "pitch": 75, "duration": 24, "velocity": 87}, {"time": 633, "pitch": 68, "duration": 6, "velocity": 86}, {"time": 639, "pitch": 68, "duration": 6, "velocity": 68}, {"time": 645, "pitch": 68, "duration": 6, "velocity": 77}, {"time": 651, "pitch": 68, "duration": 6, "velocity": 64}, {"time": 657, "pitch": 75, "duration": 12, "velocity": 95}, {"time": 669, "pitch": 75, "duration": 6, "velocity": 87}, {"time": 675, "pitch": 73, "duration": 12, "velocity": 95}, {"time": 687, "pitch": 73, "duration": 6, "velocity": 85}, {"time": 693, "pitch": 73, "duration": 6, "velocity": 90}, {"time": 699, "pitch": 78, "duration": 12, "velocity": 120}, {"time": 711, "pitch": 78, "duration": 6, "velocity": 117}, {"time": 717, "pitch": 78, "duration": 6, "velocity": 120}, {"time": 723, "pitch": 78, "duration": 6, "velocity": 100}, {"time": 729, "pitch": 73, "duration": 12, "velocity": 95}, {"time": 741, "pitch": 73, "duration": 6, "velocity": 90}, {"time": 747, "pitch": 73, "duration": 6, "velocity": 104}, {"time": 753, "pitch": 75, "duration": 12, "velocity": 72}, {"time": 765, "pitch": 75, "duration": 6, "velocity": 69}, {"time": 771, "pitch": 72, "duration": 12, "velocity": 70}, {"time": 783, "pitch": 72, "duration": 6, "velocity": 76}, {"time": 789, "pitch": 72, "duration": 6, "velocity": 87}, {"time": 795, "pitch": 68, "duration": 6, "velocity": 90}, {"time": 801, "pitch": 68, "duration": 62, "velocity": 95}, {"time": 1017, "pitch": 68, "duration": 6, "velocity": 90}, {"time": 1023, "pitch": 68, "duration": 6, "velocity": 86}, {"time": 1029, "pitch": 68, "duration": 6, "velocity": 81}, {"time": 1035, "pitch": 68, "duration": 6, "velocity": 83}, {"time": 1041, "pitch": 75, "duration": 12, "velocity": 95}, {"time": 1053, "pitch": 75, "duration": 6, "velocity": 104}, {"time": 1059, "pitch": 73, "duration": 12, "velocity": 90}, {"time": 1071, "pitch": 73, "duration": 6, "velocity": 86}, {"time": 1077, "pitch": 73, "duration": 6, "velocity": 87}, {"time": 1083, "pitch": 73, "duration": 6, "velocity": 87}, {"time": 1089, "pitch": 78, "duration": 6, "velocity": 114}, {"time": 1095, "pitch": 78, "duration": 6, "velocity": 112}, {"time": 1101, "pitch": 78, "duration": 12, "velocity": 120}, {"time": 1113, "pitch": 73, "duration": 6, "velocity": 93}, {"time": 1119, "pitch": 73, "duration": 6, "velocity": 79}, {"time": 1125, "pitch": 73, "duration": 6, "velocity": 111}, {"time": 1131, "pitch": 73, "duration": 6, "velocity": 95}, {"time": 1137, "pitch": 75, "duration": 12, "velocity": 114}, {"time": 1149, "pitch": 75, "duration": 6, "velocity": 71}, {"time": 1155, "pitch": 72, "duration": 12, "velocity": 93}, {"time": 1167, "pitch": 72, "duration": 6, "velocity": 67}, {"time": 1173, "pitch": 72, "duration": 6, "velocity": 87}, {"time": 1179, "pitch": 73, "duration": 6, "velocity": 95}, {"time": 1185, "pitch": 75, "duration": 24, "velocity": 87}, {"time": 1209, "pitch": 68, "duration": 6, "velocity": 86}, {"time": 1215, "pitch": 68, "duration": 6, "velocity": 68}, {"time": 1221, "pitch": 68, "duration": 6, "velocity": 77}, {"time": 1227, "pitch": 68, "duration": 6, "velocity": 64}, {"time": 1233, "pitch": 75, "duration": 12, "velocity": 95}, {"time": 1245, "pitch": 75, "duration": 6, "velocity": 87}, {"time": 1251, "pitch": 73, "duration": 12, "velocity": 95}, {"time": 1263, "pitch": 73, "duration": 6, "velocity": 85}, {"time": 1269, "pitch": 73, "duration": 6, "velocity": 90}, {"time": 1275, "pitch": 78, "duration": 12, "velocity": 120}, {"time": 1287, "pitch": 78, "duration": 6, "velocity": 117}, {"time": 1293, "pitch": 78, "duration": 6, "velocity": 120}, {"time": 1299, "pitch": 78, "duration": 6, "velocity": 100}, {"time": 1305, "pitch": 73, "duration": 12, "velocity": 95}, {"time": 1317, "pitch": 73, "duration": 6, "velocity": 90}, {"time": 1323, "pitch": 73, "duration": 6, "velocity": 104}, {"time": 1329, "pitch": 75, "duration": 12, "velocity": 72}, {"time": 1341, "pitch": 75, "duration": 6, "velocity": 69}, {"time": 1347, "pitch": 72, "duration": 12, "velocity": 70}, {"time": 1359, "pitch": 72, "duration": 6, "velocity": 76}, {"time": 1365, "pitch": 72, "duration": 6, "velocity": 87}, {"time": 1371, "pitch": 68, "duration": 6, "velocity": 90}, {"time": 1377, "pitch": 68, "duration": 36, "velocity": 95}, {"time": 1413, "pitch": 71, "duration": 7, "velocity": 90}, {"time": 1419, "pitch": 68, "duration": 6, "velocity": 66}, {"time": 1425, "pitch": 71, "duration": 7, "velocity": 93}, {"time": 1431, "pitch": 68, "duration": 12, "velocity": 75}, {"time": 1443, "pitch": 73, "duration": 12, "velocity": 93}, {"time": 1455, "pitch": 71, "duration": 12, "velocity": 98}, {"time": 1467, "pitch": 68, "duration": 42, "velocity": 95}, {"time": 1509, "pitch": 71, "duration": 8, "velocity": 100}, {"time": 1515, "pitch": 68, "duration": 6, "velocity": 77}, {"time": 1521, "pitch": 71, "duration": 6, "velocity": 100}, {"time": 1527, "pitch": 68, "duration": 12, "velocity": 87}, {"time": 1539, "pitch": 73, "duration": 12, "velocity": 104}, {"time": 1551, "pitch": 71, "duration": 12, "velocity": 108}, {"time": 1563, "pitch": 68, "duration": 30, "velocity": 86}, {"time": 1593, "pitch": 80, "duration": 42, "velocity": 85}, {"time": 1635, "pitch": 80, "duration": 6, "velocity": 111}, {"time": 1641, "pitch": 78, "duration": 39, "velocity": 122}, {"time": 1677, "pitch": 75, "duration": 12, "velocity": 104}, {"time": 1689, "pitch": 73, "duration": 36, "velocity": 98}, {"time": 1725, "pitch": 71, "duration": 6, "velocity": 83}, {"time": 1731, "pitch": 68, "duration": 37, "velocity": 76}, {"time": 1767, "pitch": 80, "duration": 6, "velocity": 85}, {"time": 1773, "pitch": 80, "duration": 6, "velocity": 93}, {"time": 1779, "pitch": 78, "duration": 6, "velocity": 108}, {"time": 1785, "pitch": 80, "duration": 12, "velocity": 100}, {"time": 1797, "pitch": 83, "duration": 18, "velocity": 122}, {"time": 1815, "pitch": 83, "duration": 6, "velocity": 114}, {"time": 1821, "pitch": 83, "duration": 6, "velocity": 95}, {"time": 1827, "pitch": 83, "duration": 6, "velocity": 104}, {"time": 1833, "pitch": 82, "duration": 6, "velocity": 112}, {"time": 1839, "pitch": 78, "duration": 6, "velocity": 95}, {"time": 1845, "pitch": 78, "duration": 18, "velocity": 114}, {"time": 1863, "pitch": 78, "duration": 6, "velocity": 79}, {"time": 1869, "pitch": 78, "duration": 6, "velocity": 81}, {"time": 1875, "pitch": 78, "duration": 6, "velocity": 85}, {"time": 1881, "pitch": 82, "duration": 12, "velocity": 120}, {"time": 1893, "pitch": 82, "duration": 18, "velocity": 121}, {"time": 1911, "pitch": 82, "duration": 6, "velocity": 98}, {"time": 1917, "pitch": 82, "duration": 6, "velocity": 98}, {"time": 1923, "pitch": 83, "duration": 6, "velocity": 104}, {"time": 1929, "pitch": 82, "duration": 12, "velocity": 117}, {"time": 1941, "pitch": 80, "duration": 18, "velocity": 104}, {"time": 1959, "pitch": 80, "duration": 6, "velocity": 85}, {"time": 1965, "pitch": 80, "duration": 6, "velocity": 93}, {"time": 1971, "pitch": 78, "duration": 6, "velocity": 87}, {"time": 1977, "pitch": 80, "duration": 12, "velocity": 112}, {"time": 1989, "pitch": 83, "duration": 18, "velocity": 112}, {"time": 2007, "pitch": 83, "duration": 6, "velocity": 108}, {"time": 2013, "pitch": 83, "duration": 6, "velocity": 104}, {"time": 2019, "pitch": 83, "duration": 6, "velocity": 100}, {"time": 2025, "pitch": 82, "duration": 12, "velocity": 111}, {"time": 2037, "pitch": 85, "duration": 18, "velocity": 114}, {"time": 2055, "pitch": 85, "duration": 6, "velocity": 93}, {"time": 2061, "pitch": 85, "duration": 6, "velocity": 95}, {"time": 2067, "pitch": 85, "duration": 6, "velocity": 100}, {"time": 2073, "pitch": 85, "duration": 12, "velocity": 111}, {"time": 2085, "pitch": 80, "duration": 16, "velocity": 93}, {"time": 2097, "pitch": 80, "duration": 4, "velocity": 79}, {"time": 2109, "pitch": 78, "duration": 6, "velocity": 104}, {"time": 2115, "pitch": 78, "duration": 12, "velocity": 111}, {"time": 2127, "pitch": 75, "duration": 6, "velocity": 66}, {"time": 2133, "pitch": 78, "duration": 6, "velocity": 98}, {"time": 2139, "pitch": 78, "duration": 6, "velocity": 111}, {"time": 2145, "pitch": 80, "duration": 56, "velocity": 108}, {"time": 2361, "pitch": 68, "duration": 6, "velocity": 90}, {"time": 2367, "pitch": 68, "duration": 6, "velocity": 86}, {"time": 2373, "pitch": 68, "duration": 6, "velocity": 81}, {"time": 2379, "pitch": 68, "duration": 6, "velocity": 83}, {"time": 2385, "pitch": 75, "duration": 12, "velocity": 95}, {"time": 2397, "pitch": 75, "duration": 6, "velocity": 104}, {"time": 2403, "pitch": 73, "duration": 12, "velocity": 90}, {"time": 2415, "pitch": 73, "duration": 6, "velocity": 86}, {"time": 2421, "pitch": 73, "duration": 6, "velocity": 87}, {"time": 2427, "pitch": 73, "duration": 6, "velocity": 87}, {"time": 2433, "pitch": 78, "duration": 6, "velocity": 114}, {"time": 2439, "pitch": 78, "duration": 6, "velocity": 112}, {"time": 2445, "pitch": 78, "duration": 12, "velocity": 120}, {"time": 2457, "pitch": 73, "duration": 6, "velocity": 93}, {"time": 2463, "pitch": 73, "duration": 6, "velocity": 79}, {"time": 2469, "pitch": 73, "duration": 6, "velocity": 111}, {"time": 2475, "pitch": 73, "duration": 6, "velocity": 95}, {"time": 2481, "pitch": 75, "duration": 12, "velocity": 114}, {"time": 2493, "pitch": 75, "duration": 6, "velocity": 71}, {"time": 2499, "pitch": 72, "duration": 12, "velocity": 93}, {"time": 2511, "pitch": 72, "duration": 6, "velocity": 67}, {"time": 2517, "pitch": 72, "duration": 6, "velocity": 87}, {"time": 2523, "pitch": 73, "duration": 6, "velocity": 95}, {"time": 2529, "pitch": 75, "duration": 24, "velocity": 87}, {"time": 2553, "pitch": 68, "duration": 6, "velocity": 86}, {"time": 2559, "pitch": 68, "duration": 6, "velocity": 68}, {"time": 2565, "pitch": 68, "duration": 6, "velocity": 77}, {"time": 2571, "pitch": 68, "duration": 6, "velocity": 64}, {"time": 2577, "pitch": 75, "duration": 12, "velocity": 95}, {"time": 2589, "pitch": 75, "duration": 6, "velocity": 87}, {"time": 2595, "pitch": 73, "duration": 12, "velocity": 95}, {"time": 2607, "pitch": 73, "duration": 6, "velocity": 85}, {"time": 2613, "pitch": 73, "duration": 6, "velocity": 90}, {"time": 2619, "pitch": 78, "duration": 12, "velocity": 120}, {"time": 2631, "pitch": 78, "duration": 6, "velocity": 117}, {"time": 2637, "pitch": 78, "duration": 6, "velocity": 120}, {"time": 2643, "pitch": 78, "duration": 6, "velocity": 100}, {"time": 2649, "pitch": 73, "duration": 12, "velocity": 95}, {"time": 2661, "pitch": 73, "duration": 6, "velocity": 90}, {"time": 2667, "pitch": 73, "duration": 6, "velocity": 104}, {"time": 2673, "pitch": 75, "duration": 12, "velocity": 72}, {"time": 2685, "pitch": 75, "duration": 6, "velocity": 69}, {"time": 2691, "pitch": 72, "duration": 12, "velocity": 70}, {"time": 2703, "pitch": 72, "duration": 6, "velocity": 76}, {"time": 2709, "pitch": 72, "duration": 6, "velocity": 87}, {"time": 2715, "pitch": 68, "duration": 6, "velocity": 90}, {"time": 2721, "pitch": 68, "duration": 78, "velocity": 95}, {"time": 2937, "pitch": 80, "duration": 42, "velocity": 85}, {"time": 2979, "pitch": 80, "duration": 6, "velocity": 111}, {"time": 2985, "pitch": 78, "duration": 39, "velocity": 122}, {"time": 3021, "pitch": 75, "duration": 12, "velocity": 104}, {"time": 3033, "pitch": 73, "duration": 36, "velocity": 98}, {"time": 3069, "pitch": 71, "duration": 6, "velocity": 83}, {"time": 3075, "pitch": 68, "duration": 37, "velocity": 76}, {"time": 3111, "pitch": 80, "duration": 6, "velocity": 85}, {"time": 3117, "pitch": 80, "duration": 6, "velocity": 93}, {"time": 3123, "pitch": 78, "duration": 6, "velocity": 108}, {"time": 3129, "pitch": 80, "duration": 12, "velocity": 100}, {"time": 3141, "pitch": 83, "duration": 18, "velocity": 122}, {"time": 3159, "pitch": 83, "duration": 6, "velocity": 114}, {"time": 3165, "pitch": 83, "duration": 6, "velocity": 95}, {"time": 3171, "pitch": 83, "duration": 6, "velocity": 104}, {"time": 3177, "pitch": 82, "duration": 6, "velocity": 112}, {"time": 3183, "pitch": 78, "duration": 6, "velocity": 95}, {"time": 3189, "pitch": 78, "duration": 18, "velocity": 114}, {"time": 3207, "pitch": 78, "duration": 6, "velocity": 79}, {"time": 3213, "pitch": 78, "duration": 6, "velocity": 81}, {"time": 3219, "pitch": 78, "duration": 6, "velocity": 85}, {"time": 3225, "pitch": 82, "duration": 12, "velocity": 120}, {"time": 3237, "pitch": 82, "duration": 18, "velocity": 121}, {"time": 3255, "pitch": 82, "duration": 6, "velocity": 98}, {"time": 3261, "pitch": 82, "duration": 6, "velocity": 98}, {"time": 3267, "pitch": 83, "duration": 6, "velocity": 104}, {"time": 3273, "pitch": 82, "duration": 12, "velocity": 117}, {"time": 3285, "pitch": 80, "duration": 18, "velocity": 104}, {"time": 3303, "pitch": 80, "duration": 6, "velocity": 85}, {"time": 3309, "pitch": 80, "duration": 6, "velocity": 93}, {"time": 3315, "pitch": 78, "duration": 6, "velocity": 87}, {"time": 3321, "pitch": 80, "duration": 12, "velocity": 112}, {"time": 3333, "pitch": 83, "duration": 18, "velocity": 112}, {"time": 3351, "pitch": 83, "duration": 6, "velocity": 108}, {"time": 3357, "pitch": 83, "duration": 6, "velocity": 104}, {"time": 3363, "pitch": 83, "duration": 6, "velocity": 100}, {"time": 3369, "pitch": 82, "duration": 12, "velocity": 111}, {"time": 3381, "pitch": 85, "duration": 18, "velocity": 114}, {"time": 3399, "pitch": 85, "duration": 6, "velocity": 93}, {"time": 3405, "pitch": 85, "duration": 6, "velocity": 95}, {"time": 3411, "pitch": 85, "duration": 6, "velocity": 100}, {"time": 3417, "pitch": 85, "duration": 12, "velocity": 111}, {"time": 3429, "pitch": 80, "duration": 16, "velocity": 93}, {"time": 3441, "pitch": 80, "duration": 4, "velocity": 79}, {"time": 3453, "pitch": 78, "duration": 6, "velocity": 104}, {"time": 3459, "pitch": 78, "duration": 12, "velocity": 111}, {"time": 3471, "pitch": 75, "duration": 6, "velocity": 66}, {"time": 3477, "pitch": 78, "duration": 6, "velocity": 98}, {"time": 3483, "pitch": 78, "duration": 6, "velocity": 111}, {"time": 3489, "pitch": 80, "duration": 9, "velocity": 108}, {"time": 3495, "pitch": 80, "duration": 3, "velocity": 85}, {"time": 3501, "pitch": 80, "duration": 6, "velocity": 93}, {"time": 3507, "pitch": 78, "duration": 6, "velocity": 108}, {"time": 3513, "pitch": 80, "duration": 12, "velocity": 100}, {"time": 3525, "pitch": 83, "duration": 18, "velocity": 122}, {"time": 3543, "pitch": 83, "duration": 6, "velocity": 114}, {"time": 3549, "pitch": 83, "duration": 6, "velocity": 95}, {"time": 3555, "pitch": 83, "duration": 6, "velocity": 104}, {"time": 3561, "pitch": 82, "duration": 6, "velocity": 112}, {"time": 3567, "pitch": 78, "duration": 6, "velocity": 95}, {"time": 3573, "pitch": 78, "duration": 18, "velocity": 114}, {"time": 3591, "pitch": 78, "duration": 6, "velocity": 79}, {"time": 3597, "pitch": 78, "duration": 6, "velocity": 81}, {"time": 3603, "pitch": 78, "duration": 6, "velocity": 85}, {"time": 3609, "pitch": 82, "duration": 12, "velocity": 120}, {"time": 3621, "pitch": 82, "duration": 18, "velocity": 121}, {"time": 3639, "pitch": 82, "duration": 6, "velocity": 98}, {"time": 3645, "pitch": 82, "duration": 6, "velocity": 98}, {"time": 3651, "pitch": 83, "duration": 6, "velocity": 104}, {"time": 3657, "pitch": 82, "duration": 12, "velocity": 117}, {"time": 3669, "pitch": 80, "duration": 18, "velocity": 104}, {"time": 3687, "pitch": 80, "duration": 6, "velocity": 85}, {"time": 3693, "pitch": 80, "duration": 6, "velocity": 93}, {"time": 3699, "pitch": 78, "duration": 6, "velocity": 87}, {"time": 3705, "pitch": 80, "duration": 12, "velocity": 112}, {"time": 3717, "pitch": 83, "duration": 18, "velocity": 112}, {"time": 3735, "pitch": 83, "duration": 6, "velocity": 108}, {"time": 3741, "pitch": 83, "duration": 6, "velocity": 104}, {"time": 3747, "pitch": 83, "duration": 6, "velocity": 100}, {"time": 3753, "pitch": 82, "duration": 12, "velocity": 111}, {"time": 3765, "pitch": 85, "duration": 18, "velocity": 114}, {"time": 3783, "pitch": 85, "duration": 6, "velocity": 93}, {"time": 3789, "pitch": 85, "duration": 6, "velocity": 95}, {"time": 3795, "pitch": 85, "duration": 6, "velocity": 100}, {"time": 3801, "pitch": 85, "duration": 12, "velocity": 111}, {"time": 3813, "pitch": 80, "duration": 16, "velocity": 93}, {"time": 3825, "pitch": 80, "duration": 4, "velocity": 79}, {"time": 3837, "pitch": 78, "duration": 6, "velocity": 104}, {"time": 3843, "pitch": 78, "duration": 12, "velocity": 111}, {"time": 3855, "pitch": 75, "duration": 6, "velocity": 66}, {"time": 3861, "pitch": 78, "duration": 6, "velocity": 98}, {"time": 3867, "pitch": 78, "duration": 6, "velocity": 111}, {"time": 3873, "pitch": 80, "duration": 36, "velocity": 108}, {"time": 3909, "pitch": 80, "duration": 6, "velocity": 90}, {"time": 3915, "pitch": 80, "duration": 6, "velocity": 108}, {"time": 3921, "pitch": 80, "duration": 12, "velocity": 108}, {"time": 3933, "pitch": 75, "duration": 6, "velocity": 68}, {"time": 3939, "pitch": 78, "duration": 23, "velocity": 95}, {"time": 3957, "pitch": 75, "duration": 12, "velocity": 64}, {"time": 3969, "pitch": 73, "duration": 7, "velocity": 73}, {"time": 3975, "pitch": 71, "duration": 12, "velocity": 66}, {"time": 3987, "pitch": 73, "duration": 54, "velocity": 95}, {"time": 4041, "pitch": 68, "duration": 60, "velocity": 70}, {"time": 4101, "pitch": 80, "duration": 6, "velocity": 87}, {"time": 4107, "pitch": 80, "duration": 6, "velocity": 87}, {"time": 4113, "pitch": 80, "duration": 6, "velocity": 95}, {"time": 4119, "pitch": 75, "duration": 12, "velocity": 87}, {"time": 4131, "pitch": 78, "duration": 19, "velocity": 112}, {"time": 4150, "pitch": 75, "duration": 12, "velocity": 100}, {"time": 4162, "pitch": 73, "duration": 7, "velocity": 72}, {"time": 4168, "pitch": 71, "duration": 13, "velocity": 75}, {"time": 4181, "pitch": 73, "duration": 82, "velocity": 86}, {"time": 4263, "pitch": 80, "duration": 6, "velocity": 85}, {"time": 4269, "pitch": 80, "duration": 6, "velocity": 93}, {"time": 4275, "pitch": 78, "duration": 6, "velocity": 108}, {"time": 4281, "pitch": 80, "duration": 12, "velocity": 100}, {"time": 4293, "pitch": 83, "duration": 18, "velocity": 122}, {"time": 4311, "pitch": 83, "duration": 6, "velocity": 114}, {"time": 4317, "pitch": 83, "duration": 6, "velocity": 95}, {"time": 4323, "pitch": 83, "duration": 6, "velocity": 104}, {"time": 4329, "pitch": 82, "duration": 6, "velocity": 112}, {"time": 4335, "pitch": 78, "duration": 6, "velocity": 95}, {"time": 4341, "pitch": 78, "duration": 18, "velocity": 114}, {"time": 4359, "pitch": 78, "duration": 6, "velocity": 79}, {"time": 4365, "pitch": 78, "duration": 6, "velocity": 81}, {"time": 4371, "pitch": 78, "duration": 6, "velocity": 85}, {"time": 4377, "pitch": 82, "duration": 12, "velocity": 120}, {"time": 4389, "pitch": 82, "duration": 18, "velocity": 121}, {"time": 4407, "pitch": 82, "duration": 6, "velocity": 98}, {"time": 4413, "pitch": 82, "duration": 6, "velocity": 98}, {"time": 4419, "pitch": 83, "duration": 6, "velocity": 104}, {"time": 4425, "pitch": 82, "duration": 12, "velocity": 117}, {"time": 4437, "pitch": 80, "duration": 18, "velocity": 104}, {"time": 4455, "pitch": 80, "duration": 6, "velocity": 85}, {"time": 4461, "pitch": 80, "duration": 6, "velocity": 93}, {"time": 4467, "pitch": 78, "duration": 6, "velocity": 87}, {"time": 4473, "pitch": 80, "duration": 12, "velocity": 112}, {"time": 4485, "pitch": 83, "duration": 18, "velocity": 112}, {"time": 4503, "pitch": 83, "duration": 6, "velocity": 108}, {"time": 4509, "pitch": 83, "duration": 6, "velocity": 104}, {"time": 4515, "pitch": 83, "duration": 6, "velocity": 100}, {"time": 4521, "pitch": 82, "duration": 12, "velocity": 111}, {"time": 4533, "pitch": 85, "duration": 18, "velocity": 114}, {"time": 4551, "pitch": 85, "duration": 6, "velocity": 93}, {"time": 4557, "pitch": 85, "duration": 6, "velocity": 95}, {"time": 4563, "pitch": 85, "duration": 6, "velocity": 100}, {"time": 4569, "pitch": 85, "duration": 12, "velocity": 111}, {"time": 4581, "pitch": 80, "duration": 16, "velocity": 93}, {"time": 4593, "pitch": 80, "duration": 4, "velocity": 79}, {"time": 4605, "pitch": 78, "duration": 6, "velocity": 104}, {"time": 4611, "pitch": 78, "duration": 12, "velocity": 111}, {"time": 4623, "pitch": 75, "duration": 6, "velocity": 66}, {"time": 4629, "pitch": 80, "duration": 6, "velocity": 98}, {"time": 4635, "pitch": 80, "duration": 12, "velocity": 111}, {"time": 4647, "pitch": 80, "duration": 6, "velocity": 85}, {"time": 4653, "pitch": 80, "duration": 6, "velocity": 93}, {"time": 4659, "pitch": 78, "duration": 6, "velocity": 108}, {"time": 4665, "pitch": 80, "duration": 12, "velocity": 100}, {"time": 4677, "pitch": 83, "duration": 18, "velocity": 122}, {"time": 4695, "pitch": 83, "duration": 6, "velocity": 85}, {"time": 4701, "pitch": 83, "duration": 6, "velocity": 95}, {"time": 4707, "pitch": 83, "duration": 6, "velocity": 104}, {"time": 4713, "pitch": 82, "duration": 6, "velocity": 112}, {"time": 4719, "pitch": 78, "duration": 6, "velocity": 95}, {"time": 4725, "pitch": 78, "duration": 18, "velocity": 114}, {"time": 4743, "pitch": 78, "duration": 6, "velocity": 79}, {"time": 4749, "pitch": 78, "duration": 6, "velocity": 81}, {"time": 4755, "pitch": 78, "duration": 6, "velocity": 85}, {"time": 4761, "pitch": 82, "duration": 12, "velocity": 120}, {"time": 4773, "pitch": 82, "duration": 18, "velocity": 121}, {"time": 4791, "pitch": 82, "duration": 6, "velocity": 98}, {"time": 4797, "pitch": 82, "duration": 6, "velocity": 98}, {"time": 4803, "pitch": 83, "duration": 6, "velocity": 104}, {"time": 4809, "pitch": 82, "duration": 12, "velocity": 117}, {"time": 4821, "pitch": 80, "duration": 18, "velocity": 104}, {"time": 4839, "pitch": 80, "duration": 6, "velocity": 85}, {"time": 4845, "pitch": 80, "duration": 6, "velocity": 93}, {"time": 4851, "pitch": 78, "duration": 6, "velocity": 87}, {"time": 4857, "pitch": 80, "duration": 12, "velocity": 112}, {"time": 4869, "pitch": 83, "duration": 18, "velocity": 112}, {"time": 4887, "pitch": 83, "duration": 6, "velocity": 108}, {"time": 4893, "pitch": 83, "duration": 6, "velocity": 104}, {"time": 4899, "pitch": 83, "duration": 6, "velocity": 100}, {"time": 4905, "pitch": 82, "duration": 12, "velocity": 111}, {"time": 4917, "pitch": 85, "duration": 18, "velocity": 114}, {"time": 4935, "pitch": 85, "duration": 6, "velocity": 93}, {"time": 4941, "pitch": 85, "duration": 6, "velocity": 95}, {"time": 4947, "pitch": 85, "duration": 6, "velocity": 100}, {"time": 4953, "pitch": 85, "duration": 12, "velocity": 111}, {"time": 4965, "pitch": 80, "duration": 12, "velocity": 93}, {"time": 4977, "pitch": 80, "duration": 12, "velocity": 79}, {"time": 4989, "pitch": 78, "duration": 6, "velocity": 104}, {"time": 4995, "pitch": 78, "duration": 12, "velocity": 111}, {"time": 5007, "pitch": 75, "duration": 6, "velocity": 66}, {"time": 5013, "pitch": 78, "duration": 6, "velocity": 98}, {"time": 5019, "pitch": 80, "duration": 6, "velocity": 111}, {"time": 5025, "pitch": 80, "duration": 15, "velocity": 108}], "annotations": [{"time": 441, "annotation": {"number": 64, "value": 73}, "group": "control_change"}, {"time": 453, "annotation": {"number": 64, "value": 74}, "group": "control_change"}, {"time": 465, "annotation": {"number": 64, "value": 75}, "group": "control_change"}]}, {"program": 0, "is_drum": false, "name": "PIANO", "notes": [{"time": 54, "pitch": 68, "duration": 38, "velocity": 59}, {"time": 55, "pitch": 72, "duration": 37, "velocity": 70}, {"time": 56, "pitch": 56, "duration": 37, "velocity": 62}, {"time": 58, "pitch": 75, "duration": 34, "velocity": 60}, {"time": 102, "pitch": 59, "duration": 51, "velocity": 58}, {"time": 102, "pitch": 63, "duration": 49, "velocity": 70}, {"time": 105, "pitch": 68, "duration": 49, "velocity": 73}, {"time": 105, "pitch": 71, "duration": 41, "velocity": 85}, {"time": 105, "pitch": 75, "duration": 42, "velocity": 86}, {"time": 150, "pitch": 49, "duration": 36, "velocity": 60}, {"time": 150, "pitch": 61, "duration": 36, "velocity": 61}, {"time": 150, "pitch": 65, "duration": 36, "velocity": 64}, {"time": 153, "pitch": 73, "duration": 41, "velocity": 100}, {"time": 153, "pitch": 68, "duration": 1, "velocity": 64}, {"time": 201, "pitch": 56, "duration": 36, "velocity": 63}, {"time": 201, "pitch": 68, "duration": 37, "velocity": 60}, {"time": 201, "pitch": 72, "duration": 37, "velocity": 69}, {"time": 201, "pitch": 75, "duration": 34, "velocity": 46}, {"time": 246, "pitch": 68, "duration": 40, "velocity": 11}, {"time": 246, "pitch": 72, "duration": 36, "velocity": 77}, {"time": 249, "pitch": 75, "duration": 35, "velocity": 62}, {"time": 249, "pitch": 32, "duration": 9, "velocity": 71}, {"time": 249, "pitch": 56, "duration": 36, "velocity": 65}, {"time": 261, "pitch": 44, "duration": 9, "velocity": 62}, {"time": 273, "pitch": 32, "duration": 8, "velocity": 67}, {"time": 285, "pitch": 44, "duration": 10, "velocity": 67}, {"time": 294, "pitch": 59, "duration": 37, "velocity": 61}, {"time": 297, "pitch": 35, "duration": 9, "velocity": 85}, {"time": 297, "pitch": 47, "duration": 37, "velocity": 72}, {"time": 297, "pitch": 63, "duration": 37, "velocity": 68}, {"time": 297, "pitch": 66, "duration": 36, "velocity": 60}, {"time": 309, "pitch": 35, "duration": 10, "velocity": 93}, {"time": 321, "pitch": 35, "duration": 9, "velocity": 90}, {"time": 333, "pitch": 35, "duration": 9, "velocity": 87}, {"time": 342, "pitch": 61, "duration": 39, "velocity": 51}, {"time": 342, "pitch": 65, "duration": 37, "velocity": 65}, {"time": 345, "pitch": 37, "duration": 9, "velocity": 75}, {"time": 345, "pitch": 49, "duration": 37, "velocity": 65}, {"time": 345, "pitch": 68, "duration": 37, "velocity": 51}, {"time": 357, "pitch": 37, "duration": 9, "velocity": 77}, {"time": 369, "pitch": 37, "duration": 9, "velocity": 79}, {"time": 381, "pitch": 37, "duration": 12, "velocity": 77}, {"time": 390, "pitch": 68, "duration": 40, "velocity": 58}, {"time": 390, "pitch": 72, "duration": 38, "velocity": 66}, {"time": 393, "pitch": 32, "duration": 9, "velocity": 65}, {"time": 393, "pitch": 56, "duration": 37, "velocity": 61}, {"time": 393, "pitch": 75, "duration": 35, "velocity": 37}, {"time": 405, "pitch": 44, "duration": 10, "velocity": 58}, {"time": 417, "pitch": 32, "duration": 9, "velocity": 69}, {"time": 429, "pitch": 44, "duration": 9, "velocity": 75}, {"time": 435, "pitch": 68, "duration": 12, "velocity": 58}, {"time": 438, "pitch": 72, "duration": 36, "velocity": 83}, {"time": 440, "pitch": 68, "duration": 7, "velocity": 87}, {"time": 440, "pitch": 32, "duration": 7, "velocity": 75}, {"time": 440, "pitch": 44, "duration": 39, "velocity": 76}, {"time": 440, "pitch": 60, "duration": 22, "velocity": 77}, {"time": 440, "pitch": 63, "duration": 8, "velocity": 72}, {"time": 453, "pitch": 32, "duration": 2, "velocity": 69}, {"time": 465, "pitch": 32, "duration": 2, "velocity": 57}, {"time": 477, "pitch": 68, "duration": 5, "velocity": 94}, {"time": 477, "pitch": 60, "duration": 5, "velocity": 90}, {"time": 477, "pitch": 63, "duration": 5, "velocity": 76}, {"time": 477, "pitch": 32, "duration": 7, "velocity": 69}, {"time": 482, "pitch": 44, "duration": 2, "velocity": 52}, {"time": 489, "pitch": 59, "duration": 9, "velocity": 84}, {"time": 489, "pitch": 71, "duration": 8, "velocity": 74}, {"time": 489, "pitch": 47, "duration": 43, "velocity": 72}, {"time": 489, "pitch": 63, "duration": 9, "velocity": 69}, {"time": 489, "pitch": 66, "duration": 8, "velocity": 74}, {"time": 489, "pitch": 35, "duration": 16, "velocity": 72}, {"time": 502, "pitch": 59, "duration": 2, "velocity": 32}, {"time": 513, "pitch": 35, "duration": 2, "velocity": 53}, {"time": 525, "pitch": 35, "duration": 3, "velocity": 89}, {"time": 525, "pitch": 63, "duration": 4, "velocity": 75}, {"time": 525, "pitch": 66, "duration": 4, "velocity": 73}, {"time": 525, "pitch": 71, "duration": 3, "velocity": 83}, {"time": 525, "pitch": 59, "duration": 3, "velocity": 84}, {"time": 530, "pitch": 35, "duration": 2, "velocity": 59}, {"time": 536, "pitch": 61, "duration": 8, "velocity": 79}, {"time": 536, "pitch": 68, "duration": 9, "velocity": 73}, {"time": 537, "pitch": 49, "duration": 39, "velocity": 68}, {"time": 537, "pitch": 37, "duration": 9, "velocity": 79}, {"time": 537, "pitch": 65, "duration": 8, "velocity": 62}, {"time": 537, "pitch": 51, "duration": 1, "velocity": 75}, {"time": 549, "pitch": 37, "duration": 4, "velocity": 51}, {"time": 561, "pitch": 37, "duration": 5, "velocity": 79}, {"time": 573, "pitch": 61, "duration": 3, "velocity": 88}, {"time": 573, "pitch": 65, "duration": 4, "velocity": 79}, {"time": 573, "pitch": 68, "duration": 3, "velocity": 91}, {"time": 573, "pitch": 37, "duration": 7, "velocity": 77}, {"time": 578, "pitch": 49, "duration": 1, "velocity": 72}, {"time": 585, "pitch": 44, "duration": 7, "velocity": 90}, {"time": 585, "pitch": 32, "duration": 36, "velocity": 90}, {"time": 585, "pitch": 68, "duration": 41, "velocity": 68}, {"time": 585, "pitch": 56, "duration": 42, "velocity": 83}, {"time": 585, "pitch": 60, "duration": 41, "velocity": 58}, {"time": 585, "pitch": 63, "duration": 41, "velocity": 59}, {"time": 597, "pitch": 44, "duration": 3, "velocity": 62}, {"time": 609, "pitch": 44, "duration": 4, "velocity": 74}, {"time": 621, "pitch": 44, "duration": 6, "velocity": 94}, {"time": 626, "pitch": 32, "duration": 1, "velocity": 83}, {"time": 633, "pitch": 44, "duration": 42, "velocity": 90}, {"time": 633, "pitch": 56, "duration": 38, "velocity": 77}, {"time": 633, "pitch": 68, "duration": 39, "velocity": 78}, {"time": 633, "pitch": 32, "duration": 8, "velocity": 92}, {"time": 633, "pitch": 63, "duration": 38, "velocity": 67}, {"time": 633, "pitch": 60, "duration": 37, "velocity": 61}, {"time": 645, "pitch": 32, "duration": 2, "velocity": 50}, {"time": 656, "pitch": 32, "duration": 5, "velocity": 62}, {"time": 669, "pitch": 32, "duration": 3, "velocity": 100}, {"time": 673, "pitch": 32, "duration": 2, "velocity": 95}, {"time": 680, "pitch": 63, "duration": 10, "velocity": 71}, {"time": 681, "pitch": 47, "duration": 27, "velocity": 76}, {"time": 681, "pitch": 59, "duration": 9, "velocity": 71}, {"time": 681, "pitch": 66, "duration": 9, "velocity": 67}, {"time": 681, "pitch": 71, "duration": 30, "velocity": 71}, {"time": 681, "pitch": 35, "duration": 37, "velocity": 72}, {"time": 692, "pitch": 66, "duration": 5, "velocity": 58}, {"time": 692, "pitch": 59, "duration": 7, "velocity": 35}, {"time": 692, "pitch": 63, "duration": 7, "velocity": 65}, {"time": 705, "pitch": 63, "duration": 6, "velocity": 53}, {"time": 705, "pitch": 66, "duration": 5, "velocity": 62}, {"time": 705, "pitch": 59, "duration": 5, "velocity": 63}, {"time": 710, "pitch": 47, "duration": 13, "velocity": 71}, {"time": 717, "pitch": 66, "duration": 5, "velocity": 89}, {"time": 717, "pitch": 59, "duration": 4, "velocity": 99}, {"time": 717, "pitch": 71, "duration": 5, "velocity": 93}, {"time": 717, "pitch": 63, "duration": 5, "velocity": 85}, {"time": 722, "pitch": 35, "duration": 2, "velocity": 67}, {"time": 729, "pitch": 61, "duration": 8, "velocity": 85}, {"time": 729, "pitch": 37, "duration": 43, "velocity": 91}, {"time": 729, "pitch": 49, "duration": 29, "velocity": 99}, {"time": 729, "pitch": 65, "duration": 7, "velocity": 64}, {"time": 729, "pitch": 68, "duration": 7, "velocity": 73}, {"time": 729, "pitch": 73, "duration": 37, "velocity": 71}, {"time": 741, "pitch": 68, "duration": 4, "velocity": 54}, {"time": 741, "pitch": 61, "duration": 5, "velocity": 55}, {"time": 742, "pitch": 65, "duration": 2, "velocity": 44}, {"time": 753, "pitch": 61, "duration": 5, "velocity": 64}, {"time": 754, "pitch": 68, "duration": 4, "velocity": 58}, {"time": 754, "pitch": 65, "duration": 4, "velocity": 51}, {"time": 765, "pitch": 61, "duration": 4, "velocity": 68}, {"time": 765, "pitch": 68, "duration": 3, "velocity": 68}, {"time": 765, "pitch": 65, "duration": 2, "velocity": 58}, {"time": 771, "pitch": 49, "duration": 1, "velocity": 76}, {"time": 777, "pitch": 56, "duration": 8, "velocity": 74}, {"time": 777, "pitch": 44, "duration": 26, "velocity": 74}, {"time": 777, "pitch": 68, "duration": 44, "velocity": 71}, {"time": 777, "pitch": 63, "duration": 6, "velocity": 65}, {"time": 777, "pitch": 60, "duration": 7, "velocity": 54}, {"time": 778, "pitch": 32, "duration": 37, "velocity": 51}, {"time": 789, "pitch": 56, "duration": 5, "velocity": 61}, {"time": 789, "pitch": 63, "duration": 5, "velocity": 61}, {"time": 790, "pitch": 60, "duration": 4, "velocity": 47}, {"time": 801, "pitch": 56, "duration": 5, "velocity": 69}, {"time": 801, "pitch": 63, "duration": 5, "velocity": 67}, {"time": 801, "pitch": 60, "duration": 6, "velocity": 63}, {"time": 807, "pitch": 44, "duration": 13, "velocity": 88}, {"time": 813, "pitch": 56, "duration": 6, "velocity": 97}, {"time": 813, "pitch": 63, "duration": 8, "velocity": 83}, {"time": 813, "pitch": 60, "duration": 7, "velocity": 81}, {"time": 816, "pitch": 32, "duration": 5, "velocity": 91}, {"time": 824, "pitch": 32, "duration": 7, "velocity": 92}, {"time": 824, "pitch": 44, "duration": 39, "velocity": 97}, {"time": 824, "pitch": 56, "duration": 37, "velocity": 95}, {"time": 824, "pitch": 68, "duration": 37, "velocity": 91}, {"time": 825, "pitch": 60, "duration": 21, "velocity": 75}, {"time": 825, "pitch": 63, "duration": 34, "velocity": 79}, {"time": 837, "pitch": 32, "duration": 7, "velocity": 81}, {"time": 849, "pitch": 32, "duration": 8, "velocity": 90}, {"time": 852, "pitch": 60, "duration": 5, "velocity": 1}, {"time": 861, "pitch": 32, "duration": 7, "velocity": 104}, {"time": 866, "pitch": 44, "duration": 2, "velocity": 67}, {"time": 873, "pitch": 66, "duration": 8, "velocity": 84}, {"time": 873, "pitch": 47, "duration": 7, "velocity": 94}, {"time": 873, "pitch": 59, "duration": 19, "velocity": 87}, {"time": 873, "pitch": 63, "duration": 9, "velocity": 80}, {"time": 873, "pitch": 71, "duration": 42, "velocity": 86}, {"time": 873, "pitch": 35, "duration": 37, "velocity": 95}, {"time": 884, "pitch": 66, "duration": 7, "velocity": 44}, {"time": 884, "pitch": 63, "duration": 8, "velocity": 43}, {"time": 885, "pitch": 47, "duration": 5, "velocity": 65}, {"time": 897, "pitch": 59, "duration": 7, "velocity": 69}, {"time": 897, "pitch": 66, "duration": 7, "velocity": 74}, {"time": 897, "pitch": 63, "duration": 7, "velocity": 72}, {"time": 897, "pitch": 47, "duration": 5, "velocity": 65}, {"time": 908, "pitch": 66, "duration": 8, "velocity": 82}, {"time": 908, "pitch": 59, "duration": 7, "velocity": 91}, {"time": 908, "pitch": 63, "duration": 8, "velocity": 84}, {"time": 909, "pitch": 47, "duration": 7, "velocity": 81}, {"time": 914, "pitch": 35, "duration": 1, "velocity": 96}, {"time": 920, "pitch": 49, "duration": 9, "velocity": 100}, {"time": 920, "pitch": 37, "duration": 38, "velocity": 104}, {"time": 921, "pitch": 61, "duration": 10, "velocity": 76}, {"time": 921, "pitch": 65, "duration": 9, "velocity": 56}, {"time": 921, "pitch": 68, "duration": 4, "velocity": 55}, {"time": 922, "pitch": 73, "duration": 35, "velocity": 47}, {"time": 932, "pitch": 61, "duration": 8, "velocity": 30}, {"time": 933, "pitch": 49, "duration": 6, "velocity": 53}, {"time": 933, "pitch": 68, "duration": 6, "velocity": 56}, {"time": 933, "pitch": 65, "duration": 7, "velocity": 37}, {"time": 944, "pitch": 61, "duration": 8, "velocity": 71}, {"time": 945, "pitch": 49, "duration": 5, "velocity": 67}, {"time": 945, "pitch": 68, "duration": 6, "velocity": 64}, {"time": 945, "pitch": 65, "duration": 6, "velocity": 53}, {"time": 956, "pitch": 61, "duration": 4, "velocity": 92}, {"time": 956, "pitch": 65, "duration": 3, "velocity": 74}, {"time": 956, "pitch": 68, "duration": 3, "velocity": 78}, {"time": 956, "pitch": 49, "duration": 7, "velocity": 84}, {"time": 962, "pitch": 37, "duration": 1, "velocity": 72}, {"time": 968, "pitch": 56, "duration": 8, "velocity": 92}, {"time": 968, "pitch": 68, "duration": 43, "velocity": 87}, {"time": 968, "pitch": 32, "duration": 44, "velocity": 84}, {"time": 968, "pitch": 63, "duration": 7, "velocity": 77}, {"time": 968, "pitch": 44, "duration": 7, "velocity": 75}, {"time": 968, "pitch": 60, "duration": 8, "velocity": 67}, {"time": 980, "pitch": 63, "duration": 6, "velocity": 56}, {"time": 980, "pitch": 44, "duration": 5, "velocity": 44}, {"time": 981, "pitch": 56, "duration": 6, "velocity": 59}, {"time": 981, "pitch": 60, "duration": 4, "velocity": 47}, {"time": 992, "pitch": 63, "duration": 6, "velocity": 67}, {"time": 993, "pitch": 56, "duration": 5, "velocity": 71}, {"time": 993, "pitch": 60, "duration": 5, "velocity": 63}, {"time": 993, "pitch": 44, "duration": 2, "velocity": 45}, {"time": 1004, "pitch": 56, "duration": 7, "velocity": 83}, {"time": 1004, "pitch": 63, "duration": 7, "velocity": 69}, {"time": 1004, "pitch": 60, "duration": 7, "velocity": 67}, {"time": 1005, "pitch": 44, "duration": 2, "velocity": 52}, {"time": 1010, "pitch": 44, "duration": 3, "velocity": 95}, {"time": 1016, "pitch": 63, "duration": 7, "velocity": 64}, {"time": 1016, "pitch": 68, "duration": 38, "velocity": 82}, {"time": 1016, "pitch": 56, "duration": 8, "velocity": 76}, {"time": 1017, "pitch": 32, "duration": 42, "velocity": 79}, {"time": 1017, "pitch": 44, "duration": 6, "velocity": 67}, {"time": 1017, "pitch": 60, "duration": 6, "velocity": 59}, {"time": 1028, "pitch": 44, "duration": 4, "velocity": 62}, {"time": 1029, "pitch": 56, "duration": 5, "velocity": 61}, {"time": 1029, "pitch": 63, "duration": 4, "velocity": 59}, {"time": 1029, "pitch": 60, "duration": 2, "velocity": 50}, {"time": 1040, "pitch": 63, "duration": 5, "velocity": 65}, {"time": 1040, "pitch": 56, "duration": 5, "velocity": 68}, {"time": 1040, "pitch": 44, "duration": 3, "velocity": 49}, {"time": 1041, "pitch": 60, "duration": 2, "velocity": 56}, {"time": 1052, "pitch": 56, "duration": 1, "velocity": 80}, {"time": 1052, "pitch": 44, "duration": 2, "velocity": 69}, {"time": 1052, "pitch": 63, "duration": 3, "velocity": 69}, {"time": 1052, "pitch": 60, "duration": 2, "velocity": 67}, {"time": 1058, "pitch": 44, "duration": 1, "velocity": 65}, {"time": 1065, "pitch": 63, "duration": 7, "velocity": 80}, {"time": 1065, "pitch": 66, "duration": 7, "velocity": 78}, {"time": 1065, "pitch": 47, "duration": 7, "velocity": 77}, {"time": 1065, "pitch": 71, "duration": 39, "velocity": 82}, {"time": 1065, "pitch": 59, "duration": 7, "velocity": 81}, {"time": 1065, "pitch": 35, "duration": 39, "velocity": 80}, {"time": 1077, "pitch": 66, "duration": 5, "velocity": 61}, {"time": 1077, "pitch": 63, "duration": 5, "velocity": 64}, {"time": 1077, "pitch": 47, "duration": 4, "velocity": 59}, {"time": 1077, "pitch": 59, "duration": 7, "velocity": 63}, {"time": 1089, "pitch": 63, "duration": 6, "velocity": 72}, {"time": 1089, "pitch": 66, "duration": 6, "velocity": 73}, {"time": 1089, "pitch": 59, "duration": 6, "velocity": 80}, {"time": 1090, "pitch": 47, "duration": 3, "velocity": 69}, {"time": 1101, "pitch": 59, "duration": 3, "velocity": 87}, {"time": 1101, "pitch": 63, "duration": 4, "velocity": 84}, {"time": 1101, "pitch": 66, "duration": 3, "velocity": 80}, {"time": 1102, "pitch": 47, "duration": 6, "velocity": 79}, {"time": 1107, "pitch": 35, "duration": 1, "velocity": 83}, {"time": 1113, "pitch": 37, "duration": 37, "velocity": 88}, {"time": 1113, "pitch": 61, "duration": 8, "velocity": 84}, {"time": 1113, "pitch": 73, "duration": 37, "velocity": 82}, {"time": 1113, "pitch": 49, "duration": 7, "velocity": 84}, {"time": 1113, "pitch": 68, "duration": 7, "velocity": 71}, {"time": 1113, "pitch": 65, "duration": 7, "velocity": 66}, {"time": 1125, "pitch": 49, "duration": 4, "velocity": 65}, {"time": 1125, "pitch": 61, "duration": 5, "velocity": 67}, {"time": 1125, "pitch": 68, "duration": 5, "velocity": 64}, {"time": 1126, "pitch": 65, "duration": 2, "velocity": 56}, {"time": 1137, "pitch": 61, "duration": 5, "velocity": 81}, {"time": 1137, "pitch": 68, "duration": 5, "velocity": 76}, {"time": 1137, "pitch": 49, "duration": 4, "velocity": 69}, {"time": 1137, "pitch": 65, "duration": 5, "velocity": 66}, {"time": 1148, "pitch": 61, "duration": 4, "velocity": 88}, {"time": 1149, "pitch": 68, "duration": 3, "velocity": 82}, {"time": 1149, "pitch": 49, "duration": 6, "velocity": 74}, {"time": 1149, "pitch": 65, "duration": 3, "velocity": 73}, {"time": 1154, "pitch": 37, "duration": 1, "velocity": 84}, {"time": 1160, "pitch": 56, "duration": 8, "velocity": 81}, {"time": 1160, "pitch": 68, "duration": 42, "velocity": 78}, {"time": 1161, "pitch": 32, "duration": 43, "velocity": 84}, {"time": 1161, "pitch": 44, "duration": 7, "velocity": 79}, {"time": 1161, "pitch": 63, "duration": 6, "velocity": 67}, {"time": 1161, "pitch": 60, "duration": 6, "velocity": 62}, {"time": 1173, "pitch": 56, "duration": 4, "velocity": 59}, {"time": 1173, "pitch": 63, "duration": 4, "velocity": 53}, {"time": 1173, "pitch": 44, "duration": 2, "velocity": 65}, {"time": 1174, "pitch": 60, "duration": 3, "velocity": 34}, {"time": 1185, "pitch": 56, "duration": 4, "velocity": 71}, {"time": 1185, "pitch": 44, "duration": 2, "velocity": 63}, {"time": 1185, "pitch": 63, "duration": 4, "velocity": 62}, {"time": 1185, "pitch": 60, "duration": 2, "velocity": 54}, {"time": 1196, "pitch": 56, "duration": 5, "velocity": 88}, {"time": 1197, "pitch": 60, "duration": 5, "velocity": 75}, {"time": 1197, "pitch": 63, "duration": 6, "velocity": 76}, {"time": 1202, "pitch": 44, "duration": 3, "velocity": 88}, {"time": 1208, "pitch": 32, "duration": 40, "velocity": 91}, {"time": 1208, "pitch": 68, "duration": 39, "velocity": 83}, {"time": 1208, "pitch": 44, "duration": 9, "velocity": 83}, {"time": 1208, "pitch": 56, "duration": 8, "velocity": 84}, {"time": 1209, "pitch": 60, "duration": 7, "velocity": 63}, {"time": 1209, "pitch": 63, "duration": 7, "velocity": 65}, {"time": 1220, "pitch": 63, "duration": 3, "velocity": 69}, {"time": 1220, "pitch": 56, "duration": 3, "velocity": 77}, {"time": 1221, "pitch": 44, "duration": 2, "velocity": 63}, {"time": 1221, "pitch": 60, "duration": 2, "velocity": 49}, {"time": 1232, "pitch": 44, "duration": 2, "velocity": 63}, {"time": 1232, "pitch": 56, "duration": 2, "velocity": 75}, {"time": 1232, "pitch": 63, "duration": 4, "velocity": 67}, {"time": 1233, "pitch": 60, "duration": 1, "velocity": 56}, {"time": 1245, "pitch": 56, "duration": 1, "velocity": 81}, {"time": 1245, "pitch": 44, "duration": 7, "velocity": 79}, {"time": 1245, "pitch": 60, "duration": 1, "velocity": 67}, {"time": 1245, "pitch": 63, "duration": 3, "velocity": 72}, {"time": 1250, "pitch": 32, "duration": 2, "velocity": 77}, {"time": 1257, "pitch": 47, "duration": 8, "velocity": 83}, {"time": 1257, "pitch": 59, "duration": 7, "velocity": 88}, {"time": 1257, "pitch": 66, "duration": 7, "velocity": 78}, {"time": 1257, "pitch": 35, "duration": 39, "velocity": 84}, {"time": 1257, "pitch": 63, "duration": 7, "velocity": 81}, {"time": 1257, "pitch": 71, "duration": 38, "velocity": 82}, {"time": 1269, "pitch": 66, "duration": 5, "velocity": 66}, {"time": 1269, "pitch": 59, "duration": 5, "velocity": 67}, {"time": 1269, "pitch": 47, "duration": 5, "velocity": 67}, {"time": 1269, "pitch": 63, "duration": 5, "velocity": 69}, {"time": 1281, "pitch": 59, "duration": 5, "velocity": 75}, {"time": 1281, "pitch": 63, "duration": 5, "velocity": 72}, {"time": 1281, "pitch": 66, "duration": 5, "velocity": 74}, {"time": 1281, "pitch": 47, "duration": 6, "velocity": 67}, {"time": 1293, "pitch": 47, "duration": 7, "velocity": 80}, {"time": 1293, "pitch": 59, "duration": 2, "velocity": 87}, {"time": 1293, "pitch": 66, "duration": 3, "velocity": 87}, {"time": 1293, "pitch": 63, "duration": 3, "velocity": 87}, {"time": 1299, "pitch": 35, "duration": 1, "velocity": 79}, {"time": 1305, "pitch": 61, "duration": 19, "velocity": 88}, {"time": 1305, "pitch": 73, "duration": 37, "velocity": 86}, {"time": 1305, "pitch": 37, "duration": 8, "velocity": 91}, {"time": 1305, "pitch": 49, "duration": 37, "velocity": 92}, {"time": 1305, "pitch": 68, "duration": 7, "velocity": 73}, {"time": 1306, "pitch": 65, "duration": 6, "velocity": 67}, {"time": 1317, "pitch": 37, "duration": 5, "velocity": 75}, {"time": 1317, "pitch": 68, "duration": 5, "velocity": 62}, {"time": 1318, "pitch": 65, "duration": 4, "velocity": 48}, {"time": 1329, "pitch": 37, "duration": 4, "velocity": 67}, {"time": 1329, "pitch": 68, "duration": 5, "velocity": 70}, {"time": 1329, "pitch": 61, "duration": 6, "velocity": 68}, {"time": 1329, "pitch": 65, "duration": 5, "velocity": 55}, {"time": 1340, "pitch": 37, "duration": 8, "velocity": 81}, {"time": 1341, "pitch": 61, "duration": 3, "velocity": 80}, {"time": 1341, "pitch": 68, "duration": 2, "velocity": 71}, {"time": 1341, "pitch": 65, "duration": 2, "velocity": 62}, {"time": 1346, "pitch": 49, "duration": 2, "velocity": 94}, {"time": 1353, "pitch": 56, "duration": 7, "velocity": 81}, {"time": 1353, "pitch": 68, "duration": 42, "velocity": 80}, {"time": 1353, "pitch": 32, "duration": 33, "velocity": 92}, {"time": 1353, "pitch": 44, "duration": 7, "velocity": 87}, {"time": 1353, "pitch": 63, "duration": 6, "velocity": 67}, {"time": 1353, "pitch": 60, "duration": 6, "velocity": 59}, {"time": 1365, "pitch": 63, "duration": 4, "velocity": 53}, {"time": 1365, "pitch": 44, "duration": 3, "velocity": 63}, {"time": 1365, "pitch": 56, "duration": 4, "velocity": 61}, {"time": 1366, "pitch": 60, "duration": 3, "velocity": 33}, {"time": 1376, "pitch": 44, "duration": 2, "velocity": 68}, {"time": 1377, "pitch": 56, "duration": 5, "velocity": 80}, {"time": 1377, "pitch": 63, "duration": 5, "velocity": 69}, {"time": 1377, "pitch": 60, "duration": 5, "velocity": 65}, {"time": 1382, "pitch": 44, "duration": 8, "velocity": 97}, {"time": 1388, "pitch": 32, "duration": 8, "velocity": 74}, {"time": 1389, "pitch": 56, "duration": 3, "velocity": 80}, {"time": 1389, "pitch": 63, "duration": 7, "velocity": 74}, {"time": 1389, "pitch": 60, "duration": 5, "velocity": 67}, {"time": 1395, "pitch": 44, "duration": 1, "velocity": 97}, {"time": 1401, "pitch": 32, "duration": 37, "velocity": 90}, {"time": 1401, "pitch": 56, "duration": 8, "velocity": 88}, {"time": 1401, "pitch": 68, "duration": 37, "velocity": 86}, {"time": 1401, "pitch": 63, "duration": 7, "velocity": 71}, {"time": 1401, "pitch": 44, "duration": 9, "velocity": 90}, {"time": 1401, "pitch": 60, "duration": 7, "velocity": 68}, {"time": 1413, "pitch": 56, "duration": 4, "velocity": 52}, {"time": 1413, "pitch": 44, "duration": 2, "velocity": 51}, {"time": 1413, "pitch": 63, "duration": 2, "velocity": 58}, {"time": 1414, "pitch": 60, "duration": 2, "velocity": 42}, {"time": 1424, "pitch": 56, "duration": 5, "velocity": 72}, {"time": 1425, "pitch": 63, "duration": 4, "velocity": 59}, {"time": 1425, "pitch": 44, "duration": 1, "velocity": 57}, {"time": 1425, "pitch": 60, "duration": 2, "velocity": 59}, {"time": 1436, "pitch": 56, "duration": 1, "velocity": 81}, {"time": 1436, "pitch": 44, "duration": 7, "velocity": 85}, {"time": 1436, "pitch": 63, "duration": 3, "velocity": 69}, {"time": 1436, "pitch": 60, "duration": 2, "velocity": 65}, {"time": 1442, "pitch": 32, "duration": 1, "velocity": 80}, {"time": 1448, "pitch": 47, "duration": 8, "velocity": 75}, {"time": 1448, "pitch": 63, "duration": 8, "velocity": 83}, {"time": 1448, "pitch": 66, "duration": 8, "velocity": 82}, {"time": 1449, "pitch": 59, "duration": 7, "velocity": 88}, {"time": 1449, "pitch": 35, "duration": 43, "velocity": 77}, {"time": 1449, "pitch": 71, "duration": 42, "velocity": 84}, {"time": 1460, "pitch": 47, "duration": 4, "velocity": 67}, {"time": 1460, "pitch": 59, "duration": 5, "velocity": 67}, {"time": 1460, "pitch": 63, "duration": 5, "velocity": 57}, {"time": 1460, "pitch": 66, "duration": 5, "velocity": 67}, {"time": 1472, "pitch": 59, "duration": 5, "velocity": 79}, {"time": 1472, "pitch": 63, "duration": 5, "velocity": 80}, {"time": 1472, "pitch": 66, "duration": 5, "velocity": 74}, {"time": 1472, "pitch": 47, "duration": 5, "velocity": 69}, {"time": 1484, "pitch": 59, "duration": 6, "velocity": 87}, {"time": 1485, "pitch": 66, "duration": 6, "velocity": 75}, {"time": 1485, "pitch": 63, "duration": 6, "velocity": 79}, {"time": 1490, "pitch": 47, "duration": 1, "velocity": 90}, {"time": 1496, "pitch": 49, "duration": 32, "velocity": 91}, {"time": 1496, "pitch": 61, "duration": 9, "velocity": 92}, {"time": 1496, "pitch": 73, "duration": 39, "velocity": 91}, {"time": 1497, "pitch": 37, "duration": 7, "velocity": 92}, {"time": 1497, "pitch": 65, "duration": 6, "velocity": 68}, {"time": 1497, "pitch": 68, "duration": 5, "velocity": 78}, {"time": 1508, "pitch": 61, "duration": 19, "velocity": 58}, {"time": 1508, "pitch": 37, "duration": 5, "velocity": 72}, {"time": 1509, "pitch": 68, "duration": 4, "velocity": 54}, {"time": 1509, "pitch": 65, "duration": 5, "velocity": 49}, {"time": 1521, "pitch": 37, "duration": 13, "velocity": 69}, {"time": 1521, "pitch": 68, "duration": 5, "velocity": 64}, {"time": 1521, "pitch": 65, "duration": 5, "velocity": 45}, {"time": 1533, "pitch": 49, "duration": 6, "velocity": 92}, {"time": 1533, "pitch": 61, "duration": 4, "velocity": 79}, {"time": 1533, "pitch": 68, "duration": 3, "velocity": 71}, {"time": 1533, "pitch": 65, "duration": 4, "velocity": 58}, {"time": 1538, "pitch": 37, "duration": 1, "velocity": 87}, {"time": 1545, "pitch": 32, "duration": 35, "velocity": 102}, {"time": 1545, "pitch": 44, "duration": 7, "velocity": 97}, {"time": 1545, "pitch": 56, "duration": 7, "velocity": 85}, {"time": 1545, "pitch": 63, "duration": 7, "velocity": 71}, {"time": 1545, "pitch": 68, "duration": 30, "velocity": 70}, {"time": 1545, "pitch": 60, "duration": 7, "velocity": 65}, {"time": 1557, "pitch": 44, "duration": 13, "velocity": 69}, {"time": 1557, "pitch": 56, "duration": 3, "velocity": 63}, {"time": 1557, "pitch": 63, "duration": 4, "velocity": 62}, {"time": 1558, "pitch": 60, "duration": 2, "velocity": 49}, {"time": 1569, "pitch": 56, "duration": 6, "velocity": 72}, {"time": 1569, "pitch": 63, "duration": 6, "velocity": 67}, {"time": 1569, "pitch": 60, "duration": 6, "velocity": 59}, {"time": 1575, "pitch": 44, "duration": 7, "velocity": 100}, {"time": 1581, "pitch": 56, "duration": 7, "velocity": 95}, {"time": 1581, "pitch": 68, "duration": 8, "velocity": 92}, {"time": 1581, "pitch": 63, "duration": 8, "velocity": 76}, {"time": 1581, "pitch": 60, "duration": 7, "velocity": 69}, {"time": 1583, "pitch": 32, "duration": 3, "velocity": 79}, {"time": 1586, "pitch": 44, "duration": 3, "velocity": 95}, {"time": 1588, "pitch": 32, "duration": 1, "velocity": 77}, {"time": 1593, "pitch": 56, "duration": 9, "velocity": 102}, {"time": 1593, "pitch": 68, "duration": 43, "velocity": 94}, {"time": 1593, "pitch": 44, "duration": 9, "velocity": 104}, {"time": 1593, "pitch": 32, "duration": 43, "velocity": 102}, {"time": 1593, "pitch": 60, "duration": 8, "velocity": 79}, {"time": 1593, "pitch": 63, "duration": 8, "velocity": 88}, {"time": 1641, "pitch": 59, "duration": 45, "velocity": 74}, {"time": 1641, "pitch": 71, "duration": 38, "velocity": 66}, {"time": 1641, "pitch": 75, "duration": 38, "velocity": 83}, {"time": 1641, "pitch": 78, "duration": 39, "velocity": 86}, {"time": 1689, "pitch": 61, "duration": 36, "velocity": 65}, {"time": 1689, "pitch": 73, "duration": 35, "velocity": 76}, {"time": 1689, "pitch": 77, "duration": 36, "velocity": 75}, {"time": 1689, "pitch": 80, "duration": 35, "velocity": 71}, {"time": 1737, "pitch": 44, "duration": 3, "velocity": 77}, {"time": 1737, "pitch": 56, "duration": 2, "velocity": 60}, {"time": 1737, "pitch": 60, "duration": 2, "velocity": 87}, {"time": 1737, "pitch": 63, "duration": 2, "velocity": 63}, {"time": 1743, "pitch": 44, "duration": 3, "velocity": 73}, {"time": 1743, "pitch": 56, "duration": 2, "velocity": 61}, {"time": 1743, "pitch": 60, "duration": 2, "velocity": 98}, {"time": 1743, "pitch": 63, "duration": 1, "velocity": 69}, {"time": 1749, "pitch": 44, "duration": 3, "velocity": 81}, {"time": 1749, "pitch": 56, "duration": 2, "velocity": 65}, {"time": 1749, "pitch": 60, "duration": 2, "velocity": 104}, {"time": 1749, "pitch": 63, "duration": 1, "velocity": 69}, {"time": 1755, "pitch": 44, "duration": 3, "velocity": 77}, {"time": 1755, "pitch": 56, "duration": 2, "velocity": 67}, {"time": 1755, "pitch": 60, "duration": 2, "velocity": 108}, {"time": 1755, "pitch": 63, "duration": 1, "velocity": 72}, {"time": 1761, "pitch": 44, "duration": 3, "velocity": 81}, {"time": 1761, "pitch": 56, "duration": 2, "velocity": 67}, {"time": 1761, "pitch": 60, "duration": 2, "velocity": 108}, {"time": 1761, "pitch": 63, "duration": 1, "velocity": 74}, {"time": 1767, "pitch": 44, "duration": 3, "velocity": 87}, {"time": 1767, "pitch": 56, "duration": 2, "velocity": 65}, {"time": 1767, "pitch": 60, "duration": 2, "velocity": 108}, {"time": 1767, "pitch": 63, "duration": 1, "velocity": 71}, {"time": 1773, "pitch": 44, "duration": 3, "velocity": 90}, {"time": 1773, "pitch": 56, "duration": 2, "velocity": 68}, {"time": 1773, "pitch": 60, "duration": 2, "velocity": 111}, {"time": 1773, "pitch": 63, "duration": 2, "velocity": 77}, {"time": 1779, "pitch": 44, "duration": 3, "velocity": 93}, {"time": 1779, "pitch": 56, "duration": 2, "velocity": 83}, {"time": 1779, "pitch": 60, "duration": 2, "velocity": 114}, {"time": 1779, "pitch": 63, "duration": 2, "velocity": 90}, {"time": 1785, "pitch": 56, "duration": 8, "velocity": 84}, {"time": 1785, "pitch": 59, "duration": 8, "velocity": 90}, {"time": 1785, "pitch": 63, "duration": 8, "velocity": 85}, {"time": 1785, "pitch": 68, "duration": 7, "velocity": 89}, {"time": 1785, "pitch": 44, "duration": 8, "velocity": 76}, {"time": 1797, "pitch": 68, "duration": 6, "velocity": 83}, {"time": 1797, "pitch": 59, "duration": 7, "velocity": 79}, {"time": 1798, "pitch": 63, "duration": 6, "velocity": 83}, {"time": 1798, "pitch": 30, "duration": 2, "velocity": 53}, {"time": 1799, "pitch": 44, "duration": 5, "velocity": 35}, {"time": 1799, "pitch": 32, "duration": 4, "velocity": 50}, {"time": 1809, "pitch": 32, "duration": 12, "velocity": 79}, {"time": 1809, "pitch": 44, "duration": 3, "velocity": 72}, {"time": 1809, "pitch": 59, "duration": 6, "velocity": 84}, {"time": 1809, "pitch": 63, "duration": 7, "velocity": 71}, {"time": 1809, "pitch": 68, "duration": 6, "velocity": 83}, {"time": 1815, "pitch": 44, "duration": 9, "velocity": 90}, {"time": 1821, "pitch": 63, "duration": 5, "velocity": 87}, {"time": 1821, "pitch": 68, "duration": 3, "velocity": 99}, {"time": 1821, "pitch": 59, "duration": 4, "velocity": 95}, {"time": 1824, "pitch": 32, "duration": 5, "velocity": 76}, {"time": 1827, "pitch": 44, "duration": 2, "velocity": 75}, {"time": 1833, "pitch": 30, "duration": 35, "velocity": 88}, {"time": 1833, "pitch": 58, "duration": 7, "velocity": 79}, {"time": 1833, "pitch": 66, "duration": 7, "velocity": 80}, {"time": 1833, "pitch": 42, "duration": 15, "velocity": 88}, {"time": 1833, "pitch": 61, "duration": 7, "velocity": 71}, {"time": 1845, "pitch": 58, "duration": 6, "velocity": 92}, {"time": 1845, "pitch": 61, "duration": 6, "velocity": 80}, {"time": 1845, "pitch": 66, "duration": 6, "velocity": 86}, {"time": 1851, "pitch": 42, "duration": 8, "velocity": 69}, {"time": 1857, "pitch": 58, "duration": 6, "velocity": 87}, {"time": 1857, "pitch": 61, "duration": 6, "velocity": 81}, {"time": 1857, "pitch": 66, "duration": 6, "velocity": 83}, {"time": 1863, "pitch": 42, "duration": 9, "velocity": 97}, {"time": 1869, "pitch": 66, "duration": 3, "velocity": 92}, {"time": 1869, "pitch": 58, "duration": 3, "velocity": 97}, {"time": 1869, "pitch": 61, "duration": 2, "velocity": 81}, {"time": 1871, "pitch": 30, "duration": 5, "velocity": 83}, {"time": 1874, "pitch": 42, "duration": 1, "velocity": 74}, {"time": 1880, "pitch": 49, "duration": 26, "velocity": 90}, {"time": 1880, "pitch": 37, "duration": 37, "velocity": 88}, {"time": 1880, "pitch": 56, "duration": 8, "velocity": 87}, {"time": 1881, "pitch": 61, "duration": 7, "velocity": 76}, {"time": 1881, "pitch": 65, "duration": 7, "velocity": 78}, {"time": 1893, "pitch": 65, "duration": 6, "velocity": 79}, {"time": 1893, "pitch": 56, "duration": 5, "velocity": 90}, {"time": 1893, "pitch": 61, "duration": 5, "velocity": 75}, {"time": 1905, "pitch": 56, "duration": 6, "velocity": 102}, {"time": 1905, "pitch": 61, "duration": 7, "velocity": 84}, {"time": 1905, "pitch": 65, "duration": 7, "velocity": 83}, {"time": 1910, "pitch": 49, "duration": 10, "velocity": 99}, {"time": 1917, "pitch": 65, "duration": 6, "velocity": 86}, {"time": 1917, "pitch": 56, "duration": 5, "velocity": 102}, {"time": 1917, "pitch": 61, "duration": 5, "velocity": 85}, {"time": 1919, "pitch": 37, "duration": 4, "velocity": 69}, {"time": 1922, "pitch": 49, "duration": 3, "velocity": 61}, {"time": 1929, "pitch": 32, "duration": 38, "velocity": 76}, {"time": 1929, "pitch": 56, "duration": 7, "velocity": 85}, {"time": 1929, "pitch": 63, "duration": 7, "velocity": 77}, {"time": 1929, "pitch": 59, "duration": 7, "velocity": 74}, {"time": 1929, "pitch": 44, "duration": 6, "velocity": 68}, {"time": 1937, "pitch": 44, "duration": 17, "velocity": 77}, {"time": 1941, "pitch": 63, "duration": 6, "velocity": 75}, {"time": 1941, "pitch": 56, "duration": 5, "velocity": 88}, {"time": 1941, "pitch": 59, "duration": 6, "velocity": 77}, {"time": 1953, "pitch": 56, "duration": 5, "velocity": 85}, {"time": 1953, "pitch": 63, "duration": 5, "velocity": 77}, {"time": 1953, "pitch": 59, "duration": 6, "velocity": 76}, {"time": 1958, "pitch": 44, "duration": 7, "velocity": 99}, {"time": 1965, "pitch": 56, "duration": 5, "velocity": 92}, {"time": 1965, "pitch": 59, "duration": 5, "velocity": 83}, {"time": 1965, "pitch": 63, "duration": 5, "velocity": 85}, {"time": 1967, "pitch": 44, "duration": 4, "velocity": 69}, {"time": 1970, "pitch": 32, "duration": 2, "velocity": 75}, {"time": 1976, "pitch": 44, "duration": 14, "velocity": 84}, {"time": 1976, "pitch": 32, "duration": 39, "velocity": 94}, {"time": 1976, "pitch": 56, "duration": 7, "velocity": 90}, {"time": 1976, "pitch": 59, "duration": 7, "velocity": 77}, {"time": 1976, "pitch": 63, "duration": 7, "velocity": 87}, {"time": 1989, "pitch": 56, "duration": 6, "velocity": 84}, {"time": 1989, "pitch": 63, "duration": 6, "velocity": 76}, {"time": 1989, "pitch": 59, "duration": 7, "velocity": 71}, {"time": 1995, "pitch": 44, "duration": 8, "velocity": 95}, {"time": 2001, "pitch": 56, "duration": 6, "velocity": 88}, {"time": 2001, "pitch": 63, "duration": 6, "velocity": 84}, {"time": 2001, "pitch": 59, "duration": 6, "velocity": 81}, {"time": 2007, "pitch": 44, "duration": 6, "velocity": 90}, {"time": 2013, "pitch": 63, "duration": 5, "velocity": 80}, {"time": 2013, "pitch": 56, "duration": 5, "velocity": 92}, {"time": 2013, "pitch": 59, "duration": 5, "velocity": 79}, {"time": 2015, "pitch": 44, "duration": 5, "velocity": 72}, {"time": 2018, "pitch": 32, "duration": 3, "velocity": 84}, {"time": 2025, "pitch": 30, "duration": 7, "velocity": 92}, {"time": 2025, "pitch": 42, "duration": 9, "velocity": 94}, {"time": 2025, "pitch": 58, "duration": 7, "velocity": 87}, {"time": 2025, "pitch": 61, "duration": 7, "velocity": 83}, {"time": 2025, "pitch": 66, "duration": 6, "velocity": 92}, {"time": 2036, "pitch": 42, "duration": 16, "velocity": 47}, {"time": 2037, "pitch": 30, "duration": 6, "velocity": 77}, {"time": 2037, "pitch": 61, "duration": 6, "velocity": 67}, {"time": 2037, "pitch": 66, "duration": 6, "velocity": 82}, {"time": 2037, "pitch": 58, "duration": 6, "velocity": 72}, {"time": 2049, "pitch": 30, "duration": 11, "velocity": 88}, {"time": 2049, "pitch": 66, "duration": 6, "velocity": 91}, {"time": 2049, "pitch": 58, "duration": 7, "velocity": 88}, {"time": 2049, "pitch": 61, "duration": 7, "velocity": 79}, {"time": 2055, "pitch": 42, "duration": 8, "velocity": 72}, {"time": 2060, "pitch": 66, "duration": 8, "velocity": 99}, {"time": 2061, "pitch": 58, "duration": 6, "velocity": 94}, {"time": 2061, "pitch": 61, "duration": 6, "velocity": 81}, {"time": 2063, "pitch": 30, "duration": 5, "velocity": 80}, {"time": 2066, "pitch": 42, "duration": 1, "velocity": 74}, {"time": 2073, "pitch": 49, "duration": 8, "velocity": 106}, {"time": 2074, "pitch": 37, "duration": 37, "velocity": 97}, {"time": 2074, "pitch": 68, "duration": 6, "velocity": 87}, {"time": 2074, "pitch": 56, "duration": 7, "velocity": 72}, {"time": 2074, "pitch": 63, "duration": 2, "velocity": 46}, {"time": 2085, "pitch": 56, "duration": 7, "velocity": 94}, {"time": 2085, "pitch": 68, "duration": 6, "velocity": 80}, {"time": 2085, "pitch": 49, "duration": 4, "velocity": 83}, {"time": 2085, "pitch": 61, "duration": 6, "velocity": 72}, {"time": 2085, "pitch": 65, "duration": 6, "velocity": 71}, {"time": 2097, "pitch": 56, "duration": 6, "velocity": 91}, {"time": 2097, "pitch": 61, "duration": 6, "velocity": 74}, {"time": 2097, "pitch": 65, "duration": 6, "velocity": 76}, {"time": 2097, "pitch": 68, "duration": 5, "velocity": 74}, {"time": 2103, "pitch": 49, "duration": 7, "velocity": 102}, {"time": 2109, "pitch": 56, "duration": 5, "velocity": 100}, {"time": 2109, "pitch": 65, "duration": 5, "velocity": 78}, {"time": 2109, "pitch": 61, "duration": 5, "velocity": 74}, {"time": 2109, "pitch": 68, "duration": 4, "velocity": 86}, {"time": 2111, "pitch": 49, "duration": 5, "velocity": 79}, {"time": 2115, "pitch": 37, "duration": 1, "velocity": 83}, {"time": 2121, "pitch": 32, "duration": 40, "velocity": 94}, {"time": 2121, "pitch": 68, "duration": 7, "velocity": 87}, {"time": 2122, "pitch": 44, "duration": 7, "velocity": 85}, {"time": 2122, "pitch": 56, "duration": 6, "velocity": 85}, {"time": 2122, "pitch": 63, "duration": 6, "velocity": 72}, {"time": 2122, "pitch": 59, "duration": 6, "velocity": 71}, {"time": 2133, "pitch": 56, "duration": 6, "velocity": 83}, {"time": 2133, "pitch": 59, "duration": 6, "velocity": 59}, {"time": 2133, "pitch": 68, "duration": 6, "velocity": 76}, {"time": 2133, "pitch": 44, "duration": 6, "velocity": 91}, {"time": 2133, "pitch": 63, "duration": 6, "velocity": 59}, {"time": 2145, "pitch": 68, "duration": 5, "velocity": 86}, {"time": 2145, "pitch": 56, "duration": 5, "velocity": 88}, {"time": 2145, "pitch": 63, "duration": 5, "velocity": 67}, {"time": 2145, "pitch": 44, "duration": 2, "velocity": 77}, {"time": 2145, "pitch": 59, "duration": 5, "velocity": 67}, {"time": 2150, "pitch": 44, "duration": 7, "velocity": 94}, {"time": 2157, "pitch": 56, "duration": 6, "velocity": 104}, {"time": 2157, "pitch": 63, "duration": 6, "velocity": 80}, {"time": 2157, "pitch": 68, "duration": 5, "velocity": 97}, {"time": 2157, "pitch": 59, "duration": 6, "velocity": 76}, {"time": 2160, "pitch": 44, "duration": 4, "velocity": 75}, {"time": 2163, "pitch": 32, "duration": 2, "velocity": 83}, {"time": 2169, "pitch": 44, "duration": 45, "velocity": 83}, {"time": 2169, "pitch": 68, "duration": 5, "velocity": 76}, {"time": 2175, "pitch": 73, "duration": 7, "velocity": 87}, {"time": 2181, "pitch": 72, "duration": 6, "velocity": 85}, {"time": 2184, "pitch": 68, "duration": 4, "velocity": 75}, {"time": 2193, "pitch": 73, "duration": 4, "velocity": 95}, {"time": 2199, "pitch": 68, "duration": 17, "velocity": 98}, {"time": 2217, "pitch": 47, "duration": 48, "velocity": 100}, {"time": 2223, "pitch": 73, "duration": 7, "velocity": 83}, {"time": 2229, "pitch": 68, "duration": 8, "velocity": 61}, {"time": 2235, "pitch": 63, "duration": 5, "velocity": 60}, {"time": 2241, "pitch": 75, "duration": 8, "velocity": 64}, {"time": 2247, "pitch": 63, "duration": 13, "velocity": 83}, {"time": 2247, "pitch": 68, "duration": 12, "velocity": 63}, {"time": 2259, "pitch": 73, "duration": 6, "velocity": 76}, {"time": 2265, "pitch": 49, "duration": 44, "velocity": 90}, {"time": 2271, "pitch": 73, "duration": 8, "velocity": 76}, {"time": 2277, "pitch": 68, "duration": 8, "velocity": 74}, {"time": 2283, "pitch": 63, "duration": 4, "velocity": 74}, {"time": 2289, "pitch": 73, "duration": 4, "velocity": 85}, {"time": 2289, "pitch": 78, "duration": 7, "velocity": 86}, {"time": 2295, "pitch": 68, "duration": 7, "velocity": 79}, {"time": 2295, "pitch": 71, "duration": 9, "velocity": 69}, {"time": 2295, "pitch": 87, "duration": 5, "velocity": 64}, {"time": 2298, "pitch": 85, "duration": 5, "velocity": 75}, {"time": 2301, "pitch": 84, "duration": 3, "velocity": 104}, {"time": 2304, "pitch": 75, "duration": 6, "velocity": 74}, {"time": 2307, "pitch": 73, "duration": 5, "velocity": 72}, {"time": 2310, "pitch": 87, "duration": 5, "velocity": 64}, {"time": 2310, "pitch": 72, "duration": 4, "velocity": 63}, {"time": 2313, "pitch": 85, "duration": 5, "velocity": 75}, {"time": 2313, "pitch": 44, "duration": 34, "velocity": 95}, {"time": 2313, "pitch": 68, "duration": 4, "velocity": 79}, {"time": 2316, "pitch": 84, "duration": 2, "velocity": 104}, {"time": 2319, "pitch": 75, "duration": 5, "velocity": 74}, {"time": 2322, "pitch": 73, "duration": 5, "velocity": 72}, {"time": 2325, "pitch": 72, "duration": 4, "velocity": 63}, {"time": 2328, "pitch": 68, "duration": 3, "velocity": 79}, {"time": 2332, "pitch": 75, "duration": 4, "velocity": 64}, {"time": 2335, "pitch": 73, "duration": 5, "velocity": 75}, {"time": 2338, "pitch": 72, "duration": 2, "velocity": 104}, {"time": 2341, "pitch": 63, "duration": 5, "velocity": 74}, {"time": 2344, "pitch": 61, "duration": 4, "velocity": 72}, {"time": 2347, "pitch": 60, "duration": 3, "velocity": 63}, {"time": 2349, "pitch": 44, "duration": 9, "velocity": 90}, {"time": 2350, "pitch": 56, "duration": 3, "velocity": 79}, {"time": 2360, "pitch": 32, "duration": 5, "velocity": 63}, {"time": 2360, "pitch": 56, "duration": 9, "velocity": 68}, {"time": 2360, "pitch": 68, "duration": 33, "velocity": 68}, {"time": 2360, "pitch": 44, "duration": 44, "velocity": 55}, {"time": 2360, "pitch": 63, "duration": 6, "velocity": 63}, {"time": 2361, "pitch": 60, "duration": 5, "velocity": 50}, {"time": 2372, "pitch": 56, "duration": 6, "velocity": 39}, {"time": 2372, "pitch": 63, "duration": 4, "velocity": 38}, {"time": 2372, "pitch": 32, "duration": 3, "velocity": 47}, {"time": 2373, "pitch": 60, "duration": 3, "velocity": 30}, {"time": 2384, "pitch": 56, "duration": 5, "velocity": 51}, {"time": 2384, "pitch": 63, "duration": 5, "velocity": 55}, {"time": 2385, "pitch": 32, "duration": 6, "velocity": 50}, {"time": 2385, "pitch": 60, "duration": 3, "velocity": 41}, {"time": 2397, "pitch": 68, "duration": 6, "velocity": 70}, {"time": 2397, "pitch": 56, "duration": 4, "velocity": 87}, {"time": 2397, "pitch": 63, "duration": 5, "velocity": 72}, {"time": 2397, "pitch": 60, "duration": 4, "velocity": 71}, {"time": 2402, "pitch": 32, "duration": 2, "velocity": 67}, {"time": 2409, "pitch": 47, "duration": 37, "velocity": 69}, {"time": 2409, "pitch": 66, "duration": 6, "velocity": 68}, {"time": 2409, "pitch": 35, "duration": 9, "velocity": 71}, {"time": 2409, "pitch": 59, "duration": 7, "velocity": 80}, {"time": 2409, "pitch": 63, "duration": 7, "velocity": 59}, {"time": 2409, "pitch": 71, "duration": 38, "velocity": 75}, {"time": 2421, "pitch": 66, "duration": 4, "velocity": 57}, {"time": 2421, "pitch": 63, "duration": 5, "velocity": 47}, {"time": 2421, "pitch": 35, "duration": 4, "velocity": 45}, {"time": 2421, "pitch": 59, "duration": 5, "velocity": 34}, {"time": 2433, "pitch": 63, "duration": 6, "velocity": 58}, {"time": 2433, "pitch": 35, "duration": 4, "velocity": 54}, {"time": 2433, "pitch": 66, "duration": 5, "velocity": 55}, {"time": 2433, "pitch": 59, "duration": 6, "velocity": 61}, {"time": 2445, "pitch": 35, "duration": 7, "velocity": 83}, {"time": 2445, "pitch": 59, "duration": 3, "velocity": 76}, {"time": 2445, "pitch": 63, "duration": 4, "velocity": 68}, {"time": 2445, "pitch": 66, "duration": 4, "velocity": 74}, {"time": 2451, "pitch": 47, "duration": 2, "velocity": 91}, {"time": 2457, "pitch": 61, "duration": 7, "velocity": 81}, {"time": 2457, "pitch": 49, "duration": 26, "velocity": 90}, {"time": 2457, "pitch": 73, "duration": 28, "velocity": 79}, {"time": 2457, "pitch": 37, "duration": 10, "velocity": 88}, {"time": 2457, "pitch": 65, "duration": 7, "velocity": 62}, {"time": 2457, "pitch": 68, "duration": 7, "velocity": 70}, {"time": 2469, "pitch": 37, "duration": 3, "velocity": 45}, {"time": 2469, "pitch": 61, "duration": 5, "velocity": 53}, {"time": 2469, "pitch": 68, "duration": 4, "velocity": 49}, {"time": 2470, "pitch": 65, "duration": 2, "velocity": 38}, {"time": 2480, "pitch": 37, "duration": 13, "velocity": 63}, {"time": 2480, "pitch": 61, "duration": 5, "velocity": 56}, {"time": 2481, "pitch": 68, "duration": 4, "velocity": 62}, {"time": 2481, "pitch": 65, "duration": 3, "velocity": 47}, {"time": 2487, "pitch": 49, "duration": 12, "velocity": 75}, {"time": 2492, "pitch": 73, "duration": 4, "velocity": 95}, {"time": 2493, "pitch": 61, "duration": 3, "velocity": 88}, {"time": 2493, "pitch": 68, "duration": 3, "velocity": 73}, {"time": 2493, "pitch": 65, "duration": 3, "velocity": 61}, {"time": 2498, "pitch": 37, "duration": 2, "velocity": 67}, {"time": 2505, "pitch": 68, "duration": 41, "velocity": 84}, {"time": 2505, "pitch": 56, "duration": 6, "velocity": 84}, {"time": 2505, "pitch": 32, "duration": 8, "velocity": 69}, {"time": 2505, "pitch": 44, "duration": 36, "velocity": 61}, {"time": 2505, "pitch": 63, "duration": 5, "velocity": 69}, {"time": 2505, "pitch": 60, "duration": 6, "velocity": 59}, {"time": 2517, "pitch": 32, "duration": 2, "velocity": 36}, {"time": 2517, "pitch": 63, "duration": 3, "velocity": 50}, {"time": 2517, "pitch": 56, "duration": 5, "velocity": 38}, {"time": 2518, "pitch": 60, "duration": 2, "velocity": 34}, {"time": 2528, "pitch": 32, "duration": 12, "velocity": 56}, {"time": 2529, "pitch": 63, "duration": 3, "velocity": 52}, {"time": 2529, "pitch": 56, "duration": 3, "velocity": 53}, {"time": 2529, "pitch": 60, "duration": 2, "velocity": 45}, {"time": 2535, "pitch": 32, "duration": 5, "velocity": 79}, {"time": 2540, "pitch": 63, "duration": 7, "velocity": 67}, {"time": 2540, "pitch": 56, "duration": 6, "velocity": 68}, {"time": 2540, "pitch": 60, "duration": 7, "velocity": 62}, {"time": 2541, "pitch": 44, "duration": 1, "velocity": 81}, {"time": 2544, "pitch": 32, "duration": 1, "velocity": 80}, {"time": 2546, "pitch": 44, "duration": 2, "velocity": 92}, {"time": 2546, "pitch": 44, "duration": 2, "velocity": 68}, {"time": 2552, "pitch": 68, "duration": 30, "velocity": 83}, {"time": 2552, "pitch": 32, "duration": 32, "velocity": 87}, {"time": 2552, "pitch": 44, "duration": 8, "velocity": 75}, {"time": 2552, "pitch": 63, "duration": 6, "velocity": 59}, {"time": 2552, "pitch": 56, "duration": 7, "velocity": 74}, {"time": 2553, "pitch": 60, "duration": 5, "velocity": 61}, {"time": 2564, "pitch": 56, "duration": 4, "velocity": 62}, {"time": 2564, "pitch": 63, "duration": 4, "velocity": 53}, {"time": 2564, "pitch": 44, "duration": 3, "velocity": 62}, {"time": 2565, "pitch": 60, "duration": 2, "velocity": 39}, {"time": 2576, "pitch": 56, "duration": 7, "velocity": 61}, {"time": 2576, "pitch": 63, "duration": 7, "velocity": 58}, {"time": 2576, "pitch": 44, "duration": 2, "velocity": 50}, {"time": 2577, "pitch": 60, "duration": 6, "velocity": 47}, {"time": 2582, "pitch": 44, "duration": 13, "velocity": 68}, {"time": 2588, "pitch": 68, "duration": 5, "velocity": 91}, {"time": 2588, "pitch": 56, "duration": 3, "velocity": 88}, {"time": 2588, "pitch": 63, "duration": 4, "velocity": 67}, {"time": 2588, "pitch": 60, "duration": 4, "velocity": 68}, {"time": 2593, "pitch": 32, "duration": 2, "velocity": 76}, {"time": 2600, "pitch": 47, "duration": 28, "velocity": 79}, {"time": 2600, "pitch": 66, "duration": 7, "velocity": 80}, {"time": 2600, "pitch": 59, "duration": 7, "velocity": 84}, {"time": 2600, "pitch": 63, "duration": 8, "velocity": 76}, {"time": 2600, "pitch": 71, "duration": 32, "velocity": 82}, {"time": 2601, "pitch": 35, "duration": 31, "velocity": 79}, {"time": 2613, "pitch": 59, "duration": 5, "velocity": 65}, {"time": 2613, "pitch": 63, "duration": 5, "velocity": 57}, {"time": 2613, "pitch": 66, "duration": 5, "velocity": 63}, {"time": 2625, "pitch": 66, "duration": 7, "velocity": 75}, {"time": 2625, "pitch": 59, "duration": 7, "velocity": 72}, {"time": 2625, "pitch": 63, "duration": 7, "velocity": 72}, {"time": 2631, "pitch": 47, "duration": 7, "velocity": 85}, {"time": 2637, "pitch": 59, "duration": 3, "velocity": 97}, {"time": 2637, "pitch": 63, "duration": 4, "velocity": 83}, {"time": 2637, "pitch": 66, "duration": 4, "velocity": 83}, {"time": 2637, "pitch": 71, "duration": 4, "velocity": 93}, {"time": 2637, "pitch": 35, "duration": 6, "velocity": 88}, {"time": 2642, "pitch": 47, "duration": 2, "velocity": 59}, {"time": 2649, "pitch": 73, "duration": 28, "velocity": 87}, {"time": 2649, "pitch": 37, "duration": 5, "velocity": 79}, {"time": 2649, "pitch": 49, "duration": 26, "velocity": 72}, {"time": 2649, "pitch": 61, "duration": 18, "velocity": 83}, {"time": 2649, "pitch": 68, "duration": 5, "velocity": 76}, {"time": 2649, "pitch": 65, "duration": 5, "velocity": 66}, {"time": 2661, "pitch": 68, "duration": 3, "velocity": 41}, {"time": 2661, "pitch": 37, "duration": 3, "velocity": 41}, {"time": 2662, "pitch": 65, "duration": 2, "velocity": 18}, {"time": 2673, "pitch": 37, "duration": 13, "velocity": 68}, {"time": 2673, "pitch": 61, "duration": 4, "velocity": 46}, {"time": 2673, "pitch": 68, "duration": 4, "velocity": 55}, {"time": 2674, "pitch": 65, "duration": 2, "velocity": 43}, {"time": 2679, "pitch": 49, "duration": 11, "velocity": 88}, {"time": 2685, "pitch": 73, "duration": 3, "velocity": 99}, {"time": 2685, "pitch": 61, "duration": 4, "velocity": 97}, {"time": 2685, "pitch": 68, "duration": 4, "velocity": 86}, {"time": 2685, "pitch": 65, "duration": 4, "velocity": 70}, {"time": 2689, "pitch": 37, "duration": 1, "velocity": 61}, {"time": 2697, "pitch": 68, "duration": 27, "velocity": 79}, {"time": 2697, "pitch": 56, "duration": 6, "velocity": 81}, {"time": 2697, "pitch": 32, "duration": 33, "velocity": 79}, {"time": 2697, "pitch": 63, "duration": 5, "velocity": 67}, {"time": 2697, "pitch": 44, "duration": 7, "velocity": 68}, {"time": 2697, "pitch": 60, "duration": 6, "velocity": 61}, {"time": 2709, "pitch": 44, "duration": 12, "velocity": 49}, {"time": 2709, "pitch": 56, "duration": 3, "velocity": 51}, {"time": 2709, "pitch": 63, "duration": 4, "velocity": 51}, {"time": 2709, "pitch": 60, "duration": 2, "velocity": 45}, {"time": 2721, "pitch": 56, "duration": 4, "velocity": 64}, {"time": 2721, "pitch": 63, "duration": 5, "velocity": 65}, {"time": 2721, "pitch": 60, "duration": 5, "velocity": 59}, {"time": 2726, "pitch": 44, "duration": 8, "velocity": 106}, {"time": 2732, "pitch": 56, "duration": 9, "velocity": 97}, {"time": 2732, "pitch": 68, "duration": 9, "velocity": 89}, {"time": 2733, "pitch": 60, "duration": 8, "velocity": 65}, {"time": 2733, "pitch": 63, "duration": 9, "velocity": 71}, {"time": 2734, "pitch": 32, "duration": 4, "velocity": 102}, {"time": 2737, "pitch": 44, "duration": 3, "velocity": 83}, {"time": 2744, "pitch": 56, "duration": 10, "velocity": 79}, {"time": 2744, "pitch": 68, "duration": 30, "velocity": 71}, {"time": 2744, "pitch": 32, "duration": 9, "velocity": 63}, {"time": 2744, "pitch": 44, "duration": 38, "velocity": 59}, {"time": 2744, "pitch": 63, "duration": 8, "velocity": 62}, {"time": 2745, "pitch": 60, "duration": 8, "velocity": 51}, {"time": 2755, "pitch": 32, "duration": 7, "velocity": 40}, {"time": 2756, "pitch": 56, "duration": 6, "velocity": 35}, {"time": 2756, "pitch": 60, "duration": 5, "velocity": 40}, {"time": 2756, "pitch": 63, "duration": 4, "velocity": 52}, {"time": 2768, "pitch": 32, "duration": 4, "velocity": 63}, {"time": 2768, "pitch": 56, "duration": 7, "velocity": 59}, {"time": 2769, "pitch": 63, "duration": 6, "velocity": 58}, {"time": 2769, "pitch": 60, "duration": 6, "velocity": 50}, {"time": 2774, "pitch": 32, "duration": 1, "velocity": 65}, {"time": 2780, "pitch": 32, "duration": 8, "velocity": 80}, {"time": 2780, "pitch": 68, "duration": 5, "velocity": 95}, {"time": 2780, "pitch": 56, "duration": 3, "velocity": 87}, {"time": 2781, "pitch": 60, "duration": 2, "velocity": 67}, {"time": 2781, "pitch": 63, "duration": 3, "velocity": 74}, {"time": 2786, "pitch": 44, "duration": 1, "velocity": 85}, {"time": 2793, "pitch": 66, "duration": 7, "velocity": 67}, {"time": 2793, "pitch": 59, "duration": 7, "velocity": 77}, {"time": 2793, "pitch": 47, "duration": 27, "velocity": 87}, {"time": 2793, "pitch": 63, "duration": 7, "velocity": 72}, {"time": 2793, "pitch": 71, "duration": 31, "velocity": 80}, {"time": 2793, "pitch": 35, "duration": 7, "velocity": 81}, {"time": 2805, "pitch": 66, "duration": 4, "velocity": 53}, {"time": 2805, "pitch": 35, "duration": 4, "velocity": 58}, {"time": 2805, "pitch": 63, "duration": 4, "velocity": 61}, {"time": 2805, "pitch": 59, "duration": 5, "velocity": 56}, {"time": 2816, "pitch": 66, "duration": 7, "velocity": 68}, {"time": 2816, "pitch": 35, "duration": 6, "velocity": 67}, {"time": 2816, "pitch": 59, "duration": 7, "velocity": 65}, {"time": 2816, "pitch": 63, "duration": 7, "velocity": 68}, {"time": 2822, "pitch": 47, "duration": 8, "velocity": 91}, {"time": 2828, "pitch": 35, "duration": 4, "velocity": 91}, {"time": 2828, "pitch": 59, "duration": 3, "velocity": 94}, {"time": 2828, "pitch": 63, "duration": 4, "velocity": 79}, {"time": 2828, "pitch": 71, "duration": 4, "velocity": 90}, {"time": 2829, "pitch": 66, "duration": 3, "velocity": 84}, {"time": 2831, "pitch": 47, "duration": 5, "velocity": 95}, {"time": 2834, "pitch": 35, "duration": 2, "velocity": 81}, {"time": 2840, "pitch": 73, "duration": 39, "velocity": 89}, {"time": 2840, "pitch": 49, "duration": 27, "velocity": 85}, {"time": 2840, "pitch": 61, "duration": 7, "velocity": 83}, {"time": 2840, "pitch": 37, "duration": 7, "velocity": 87}, {"time": 2841, "pitch": 65, "duration": 6, "velocity": 66}, {"time": 2841, "pitch": 68, "duration": 5, "velocity": 71}, {"time": 2852, "pitch": 37, "duration": 5, "velocity": 56}, {"time": 2852, "pitch": 61, "duration": 6, "velocity": 56}, {"time": 2852, "pitch": 65, "duration": 5, "velocity": 52}, {"time": 2853, "pitch": 68, "duration": 4, "velocity": 66}, {"time": 2864, "pitch": 37, "duration": 12, "velocity": 67}, {"time": 2864, "pitch": 61, "duration": 6, "velocity": 74}, {"time": 2865, "pitch": 65, "duration": 5, "velocity": 66}, {"time": 2865, "pitch": 68, "duration": 5, "velocity": 71}, {"time": 2870, "pitch": 49, "duration": 11, "velocity": 77}, {"time": 2876, "pitch": 61, "duration": 4, "velocity": 94}, {"time": 2876, "pitch": 65, "duration": 4, "velocity": 75}, {"time": 2877, "pitch": 68, "duration": 2, "velocity": 82}, {"time": 2879, "pitch": 37, "duration": 3, "velocity": 74}, {"time": 2888, "pitch": 32, "duration": 32, "velocity": 75}, {"time": 2888, "pitch": 68, "duration": 32, "velocity": 83}, {"time": 2888, "pitch": 56, "duration": 7, "velocity": 80}, {"time": 2889, "pitch": 44, "duration": 7, "velocity": 63}, {"time": 2889, "pitch": 63, "duration": 5, "velocity": 68}, {"time": 2889, "pitch": 60, "duration": 6, "velocity": 59}, {"time": 2900, "pitch": 44, "duration": 5, "velocity": 63}, {"time": 2900, "pitch": 56, "duration": 5, "velocity": 63}, {"time": 2901, "pitch": 63, "duration": 4, "velocity": 58}, {"time": 2901, "pitch": 60, "duration": 5, "velocity": 46}, {"time": 2913, "pitch": 56, "duration": 5, "velocity": 79}, {"time": 2913, "pitch": 63, "duration": 5, "velocity": 71}, {"time": 2913, "pitch": 60, "duration": 6, "velocity": 65}, {"time": 2918, "pitch": 44, "duration": 8, "velocity": 92}, {"time": 2924, "pitch": 32, "duration": 8, "velocity": 88}, {"time": 2924, "pitch": 68, "duration": 9, "velocity": 82}, {"time": 2924, "pitch": 56, "duration": 8, "velocity": 84}, {"time": 2924, "pitch": 63, "duration": 9, "velocity": 72}, {"time": 2924, "pitch": 60, "duration": 8, "velocity": 69}, {"time": 2931, "pitch": 44, "duration": 1, "velocity": 90}, {"time": 2937, "pitch": 44, "duration": 3, "velocity": 98}, {"time": 2937, "pitch": 56, "duration": 46, "velocity": 75}, {"time": 2937, "pitch": 60, "duration": 46, "velocity": 108}, {"time": 2937, "pitch": 63, "duration": 45, "velocity": 77}, {"time": 2943, "pitch": 44, "duration": 3, "velocity": 75}, {"time": 2949, "pitch": 44, "duration": 3, "velocity": 69}, {"time": 2955, "pitch": 44, "duration": 3, "velocity": 72}, {"time": 2961, "pitch": 44, "duration": 3, "velocity": 69}, {"time": 2967, "pitch": 44, "duration": 2, "velocity": 74}, {"time": 2973, "pitch": 44, "duration": 2, "velocity": 72}, {"time": 2979, "pitch": 44, "duration": 4, "velocity": 83}, {"time": 2985, "pitch": 47, "duration": 3, "velocity": 93}, {"time": 2985, "pitch": 59, "duration": 38, "velocity": 74}, {"time": 2985, "pitch": 63, "duration": 38, "velocity": 85}, {"time": 2985, "pitch": 66, "duration": 38, "velocity": 77}, {"time": 2991, "pitch": 47, "duration": 3, "velocity": 100}, {"time": 2997, "pitch": 47, "duration": 3, "velocity": 95}, {"time": 3003, "pitch": 47, "duration": 3, "velocity": 95}, {"time": 3009, "pitch": 47, "duration": 2, "velocity": 95}, {"time": 3015, "pitch": 47, "duration": 3, "velocity": 100}, {"time": 3021, "pitch": 47, "duration": 2, "velocity": 104}, {"time": 3027, "pitch": 47, "duration": 2, "velocity": 98}, {"time": 3033, "pitch": 49, "duration": 2, "velocity": 83}, {"time": 3033, "pitch": 61, "duration": 40, "velocity": 79}, {"time": 3033, "pitch": 65, "duration": 40, "velocity": 81}, {"time": 3033, "pitch": 68, "duration": 40, "velocity": 75}, {"time": 3039, "pitch": 49, "duration": 3, "velocity": 75}, {"time": 3045, "pitch": 49, "duration": 3, "velocity": 79}, {"time": 3051, "pitch": 49, "duration": 2, "velocity": 81}, {"time": 3057, "pitch": 49, "duration": 3, "velocity": 86}, {"time": 3063, "pitch": 49, "duration": 2, "velocity": 90}, {"time": 3069, "pitch": 49, "duration": 2, "velocity": 87}, {"time": 3075, "pitch": 49, "duration": 3, "velocity": 87}, {"time": 3081, "pitch": 44, "duration": 3, "velocity": 74}, {"time": 3081, "pitch": 56, "duration": 44, "velocity": 75}, {"time": 3081, "pitch": 60, "duration": 45, "velocity": 108}, {"time": 3081, "pitch": 63, "duration": 45, "velocity": 93}, {"time": 3087, "pitch": 44, "duration": 3, "velocity": 83}, {"time": 3093, "pitch": 44, "duration": 3, "velocity": 95}, {"time": 3099, "pitch": 44, "duration": 3, "velocity": 93}, {"time": 3105, "pitch": 44, "duration": 3, "velocity": 100}, {"time": 3111, "pitch": 44, "duration": 2, "velocity": 95}, {"time": 3117, "pitch": 44, "duration": 3, "velocity": 111}, {"time": 3123, "pitch": 44, "duration": 2, "velocity": 100}, {"time": 3128, "pitch": 32, "duration": 6, "velocity": 63}, {"time": 3128, "pitch": 56, "duration": 9, "velocity": 68}, {"time": 3128, "pitch": 68, "duration": 34, "velocity": 68}, {"time": 3129, "pitch": 44, "duration": 43, "velocity": 55}, {"time": 3129, "pitch": 63, "duration": 6, "velocity": 63}, {"time": 3129, "pitch": 60, "duration": 5, "velocity": 50}, {"time": 3140, "pitch": 56, "duration": 6, "velocity": 39}, {"time": 3140, "pitch": 63, "duration": 4, "velocity": 38}, {"time": 3141, "pitch": 32, "duration": 2, "velocity": 47}, {"time": 3142, "pitch": 60, "duration": 2, "velocity": 30}, {"time": 3153, "pitch": 56, "duration": 4, "velocity": 51}, {"time": 3153, "pitch": 63, "duration": 5, "velocity": 55}, {"time": 3153, "pitch": 32, "duration": 6, "velocity": 50}, {"time": 3154, "pitch": 60, "duration": 2, "velocity": 41}, {"time": 3165, "pitch": 68, "duration": 7, "velocity": 70}, {"time": 3165, "pitch": 56, "duration": 4, "velocity": 87}, {"time": 3165, "pitch": 63, "duration": 6, "velocity": 72}, {"time": 3166, "pitch": 60, "duration": 4, "velocity": 71}, {"time": 3171, "pitch": 32, "duration": 1, "velocity": 67}, {"time": 3178, "pitch": 47, "duration": 37, "velocity": 69}, {"time": 3178, "pitch": 66, "duration": 6, "velocity": 68}, {"time": 3178, "pitch": 35, "duration": 8, "velocity": 71}, {"time": 3178, "pitch": 59, "duration": 6, "velocity": 80}, {"time": 3178, "pitch": 63, "duration": 7, "velocity": 59}, {"time": 3178, "pitch": 71, "duration": 37, "velocity": 75}, {"time": 3189, "pitch": 66, "duration": 4, "velocity": 57}, {"time": 3190, "pitch": 63, "duration": 5, "velocity": 47}, {"time": 3190, "pitch": 35, "duration": 3, "velocity": 45}, {"time": 3190, "pitch": 59, "duration": 5, "velocity": 34}, {"time": 3202, "pitch": 63, "duration": 5, "velocity": 58}, {"time": 3202, "pitch": 35, "duration": 3, "velocity": 54}, {"time": 3202, "pitch": 66, "duration": 4, "velocity": 55}, {"time": 3202, "pitch": 59, "duration": 5, "velocity": 61}, {"time": 3213, "pitch": 35, "duration": 7, "velocity": 83}, {"time": 3214, "pitch": 59, "duration": 2, "velocity": 76}, {"time": 3214, "pitch": 63, "duration": 3, "velocity": 68}, {"time": 3214, "pitch": 66, "duration": 4, "velocity": 74}, {"time": 3219, "pitch": 47, "duration": 2, "velocity": 91}, {"time": 3225, "pitch": 61, "duration": 8, "velocity": 81}, {"time": 3225, "pitch": 49, "duration": 26, "velocity": 90}, {"time": 3225, "pitch": 73, "duration": 28, "velocity": 79}, {"time": 3225, "pitch": 37, "duration": 10, "velocity": 88}, {"time": 3226, "pitch": 65, "duration": 6, "velocity": 62}, {"time": 3226, "pitch": 68, "duration": 6, "velocity": 70}, {"time": 3237, "pitch": 37, "duration": 3, "velocity": 45}, {"time": 3237, "pitch": 61, "duration": 5, "velocity": 53}, {"time": 3237, "pitch": 68, "duration": 5, "velocity": 49}, {"time": 3238, "pitch": 65, "duration": 3, "velocity": 38}, {"time": 3249, "pitch": 37, "duration": 13, "velocity": 63}, {"time": 3249, "pitch": 61, "duration": 4, "velocity": 56}, {"time": 3249, "pitch": 68, "duration": 4, "velocity": 62}, {"time": 3250, "pitch": 65, "duration": 3, "velocity": 47}, {"time": 3255, "pitch": 49, "duration": 13, "velocity": 75}, {"time": 3261, "pitch": 73, "duration": 3, "velocity": 95}, {"time": 3261, "pitch": 61, "duration": 4, "velocity": 88}, {"time": 3261, "pitch": 68, "duration": 3, "velocity": 73}, {"time": 3261, "pitch": 65, "duration": 4, "velocity": 61}, {"time": 3267, "pitch": 37, "duration": 1, "velocity": 67}, {"time": 3273, "pitch": 68, "duration": 41, "velocity": 84}, {"time": 3273, "pitch": 56, "duration": 6, "velocity": 84}, {"time": 3273, "pitch": 32, "duration": 8, "velocity": 69}, {"time": 3273, "pitch": 44, "duration": 37, "velocity": 61}, {"time": 3273, "pitch": 63, "duration": 6, "velocity": 69}, {"time": 3274, "pitch": 60, "duration": 5, "velocity": 59}, {"time": 3286, "pitch": 32, "duration": 2, "velocity": 36}, {"time": 3286, "pitch": 63, "duration": 2, "velocity": 50}, {"time": 3286, "pitch": 56, "duration": 4, "velocity": 38}, {"time": 3286, "pitch": 60, "duration": 2, "velocity": 34}, {"time": 3297, "pitch": 32, "duration": 11, "velocity": 56}, {"time": 3297, "pitch": 63, "duration": 4, "velocity": 52}, {"time": 3297, "pitch": 56, "duration": 4, "velocity": 53}, {"time": 3298, "pitch": 60, "duration": 2, "velocity": 45}, {"time": 3303, "pitch": 32, "duration": 5, "velocity": 79}, {"time": 3308, "pitch": 63, "duration": 7, "velocity": 67}, {"time": 3308, "pitch": 56, "duration": 6, "velocity": 68}, {"time": 3309, "pitch": 60, "duration": 6, "velocity": 62}, {"time": 3309, "pitch": 44, "duration": 1, "velocity": 81}, {"time": 3312, "pitch": 32, "duration": 2, "velocity": 80}, {"time": 3314, "pitch": 44, "duration": 2, "velocity": 92}, {"time": 3315, "pitch": 44, "duration": 1, "velocity": 68}, {"time": 3321, "pitch": 68, "duration": 30, "velocity": 83}, {"time": 3321, "pitch": 32, "duration": 32, "velocity": 87}, {"time": 3321, "pitch": 44, "duration": 7, "velocity": 75}, {"time": 3321, "pitch": 63, "duration": 6, "velocity": 59}, {"time": 3321, "pitch": 56, "duration": 6, "velocity": 74}, {"time": 3321, "pitch": 60, "duration": 6, "velocity": 61}, {"time": 3332, "pitch": 56, "duration": 5, "velocity": 62}, {"time": 3332, "pitch": 63, "duration": 5, "velocity": 53}, {"time": 3333, "pitch": 44, "duration": 2, "velocity": 62}, {"time": 3333, "pitch": 60, "duration": 3, "velocity": 39}, {"time": 3345, "pitch": 56, "duration": 6, "velocity": 61}, {"time": 3345, "pitch": 63, "duration": 6, "velocity": 58}, {"time": 3345, "pitch": 44, "duration": 2, "velocity": 50}, {"time": 3345, "pitch": 60, "duration": 6, "velocity": 47}, {"time": 3350, "pitch": 44, "duration": 14, "velocity": 68}, {"time": 3356, "pitch": 68, "duration": 6, "velocity": 91}, {"time": 3357, "pitch": 56, "duration": 3, "velocity": 88}, {"time": 3357, "pitch": 63, "duration": 4, "velocity": 67}, {"time": 3357, "pitch": 60, "duration": 3, "velocity": 68}, {"time": 3362, "pitch": 32, "duration": 1, "velocity": 76}, {"time": 3369, "pitch": 47, "duration": 27, "velocity": 79}, {"time": 3369, "pitch": 66, "duration": 6, "velocity": 80}, {"time": 3369, "pitch": 59, "duration": 7, "velocity": 84}, {"time": 3369, "pitch": 63, "duration": 7, "velocity": 76}, {"time": 3369, "pitch": 71, "duration": 32, "velocity": 82}, {"time": 3369, "pitch": 35, "duration": 31, "velocity": 79}, {"time": 3381, "pitch": 59, "duration": 5, "velocity": 65}, {"time": 3381, "pitch": 63, "duration": 5, "velocity": 57}, {"time": 3381, "pitch": 66, "duration": 5, "velocity": 63}, {"time": 3393, "pitch": 66, "duration": 7, "velocity": 75}, {"time": 3394, "pitch": 59, "duration": 6, "velocity": 72}, {"time": 3394, "pitch": 63, "duration": 7, "velocity": 72}, {"time": 3399, "pitch": 47, "duration": 8, "velocity": 85}, {"time": 3405, "pitch": 59, "duration": 3, "velocity": 97}, {"time": 3405, "pitch": 63, "duration": 4, "velocity": 83}, {"time": 3405, "pitch": 66, "duration": 5, "velocity": 83}, {"time": 3405, "pitch": 71, "duration": 4, "velocity": 93}, {"time": 3406, "pitch": 35, "duration": 6, "velocity": 88}, {"time": 3411, "pitch": 47, "duration": 1, "velocity": 59}, {"time": 3417, "pitch": 73, "duration": 29, "velocity": 87}, {"time": 3417, "pitch": 37, "duration": 6, "velocity": 79}, {"time": 3417, "pitch": 49, "duration": 26, "velocity": 72}, {"time": 3417, "pitch": 61, "duration": 18, "velocity": 83}, {"time": 3417, "pitch": 68, "duration": 5, "velocity": 76}, {"time": 3418, "pitch": 65, "duration": 5, "velocity": 66}, {"time": 3429, "pitch": 68, "duration": 4, "velocity": 41}, {"time": 3429, "pitch": 37, "duration": 4, "velocity": 41}, {"time": 3430, "pitch": 65, "duration": 3, "velocity": 18}, {"time": 3441, "pitch": 37, "duration": 13, "velocity": 68}, {"time": 3441, "pitch": 61, "duration": 4, "velocity": 46}, {"time": 3441, "pitch": 68, "duration": 5, "velocity": 55}, {"time": 3442, "pitch": 65, "duration": 2, "velocity": 43}, {"time": 3447, "pitch": 49, "duration": 12, "velocity": 88}, {"time": 3453, "pitch": 73, "duration": 4, "velocity": 99}, {"time": 3453, "pitch": 61, "duration": 4, "velocity": 97}, {"time": 3453, "pitch": 68, "duration": 4, "velocity": 86}, {"time": 3453, "pitch": 65, "duration": 4, "velocity": 70}, {"time": 3457, "pitch": 37, "duration": 2, "velocity": 61}, {"time": 3465, "pitch": 68, "duration": 28, "velocity": 79}, {"time": 3465, "pitch": 56, "duration": 7, "velocity": 81}, {"time": 3465, "pitch": 32, "duration": 34, "velocity": 79}, {"time": 3466, "pitch": 63, "duration": 5, "velocity": 67}, {"time": 3466, "pitch": 44, "duration": 6, "velocity": 68}, {"time": 3466, "pitch": 60, "duration": 5, "velocity": 61}, {"time": 3477, "pitch": 44, "duration": 12, "velocity": 49}, {"time": 3477, "pitch": 56, "duration": 4, "velocity": 51}, {"time": 3477, "pitch": 63, "duration": 4, "velocity": 51}, {"time": 3478, "pitch": 60, "duration": 2, "velocity": 45}, {"time": 3489, "pitch": 56, "duration": 4, "velocity": 64}, {"time": 3489, "pitch": 63, "duration": 5, "velocity": 65}, {"time": 3489, "pitch": 60, "duration": 5, "velocity": 59}, {"time": 3495, "pitch": 44, "duration": 8, "velocity": 106}, {"time": 3501, "pitch": 56, "duration": 8, "velocity": 97}, {"time": 3501, "pitch": 68, "duration": 9, "velocity": 89}, {"time": 3501, "pitch": 60, "duration": 8, "velocity": 65}, {"time": 3501, "pitch": 63, "duration": 9, "velocity": 71}, {"time": 3503, "pitch": 32, "duration": 3, "velocity": 102}, {"time": 3506, "pitch": 44, "duration": 2, "velocity": 83}, {"time": 3512, "pitch": 56, "duration": 11, "velocity": 79}, {"time": 3513, "pitch": 68, "duration": 30, "velocity": 71}, {"time": 3513, "pitch": 32, "duration": 8, "velocity": 63}, {"time": 3513, "pitch": 44, "duration": 37, "velocity": 59}, {"time": 3513, "pitch": 63, "duration": 7, "velocity": 62}, {"time": 3513, "pitch": 60, "duration": 8, "velocity": 51}, {"time": 3524, "pitch": 32, "duration": 6, "velocity": 40}, {"time": 3524, "pitch": 56, "duration": 6, "velocity": 35}, {"time": 3524, "pitch": 60, "duration": 6, "velocity": 40}, {"time": 3525, "pitch": 63, "duration": 4, "velocity": 52}, {"time": 3537, "pitch": 32, "duration": 3, "velocity": 63}, {"time": 3537, "pitch": 56, "duration": 7, "velocity": 59}, {"time": 3537, "pitch": 63, "duration": 6, "velocity": 58}, {"time": 3537, "pitch": 60, "duration": 7, "velocity": 50}, {"time": 3542, "pitch": 32, "duration": 1, "velocity": 65}, {"time": 3548, "pitch": 32, "duration": 8, "velocity": 80}, {"time": 3549, "pitch": 68, "duration": 4, "velocity": 95}, {"time": 3549, "pitch": 56, "duration": 2, "velocity": 87}, {"time": 3549, "pitch": 60, "duration": 3, "velocity": 67}, {"time": 3549, "pitch": 63, "duration": 3, "velocity": 74}, {"time": 3555, "pitch": 44, "duration": 1, "velocity": 85}, {"time": 3561, "pitch": 66, "duration": 7, "velocity": 67}, {"time": 3561, "pitch": 59, "duration": 7, "velocity": 77}, {"time": 3561, "pitch": 47, "duration": 28, "velocity": 87}, {"time": 3561, "pitch": 63, "duration": 7, "velocity": 72}, {"time": 3561, "pitch": 71, "duration": 31, "velocity": 80}, {"time": 3562, "pitch": 35, "duration": 6, "velocity": 81}, {"time": 3573, "pitch": 66, "duration": 5, "velocity": 53}, {"time": 3573, "pitch": 35, "duration": 5, "velocity": 58}, {"time": 3573, "pitch": 63, "duration": 5, "velocity": 61}, {"time": 3573, "pitch": 59, "duration": 5, "velocity": 56}, {"time": 3585, "pitch": 66, "duration": 6, "velocity": 68}, {"time": 3585, "pitch": 35, "duration": 5, "velocity": 67}, {"time": 3585, "pitch": 59, "duration": 6, "velocity": 65}, {"time": 3585, "pitch": 63, "duration": 7, "velocity": 68}, {"time": 3591, "pitch": 47, "duration": 7, "velocity": 91}, {"time": 3597, "pitch": 35, "duration": 3, "velocity": 91}, {"time": 3597, "pitch": 59, "duration": 2, "velocity": 94}, {"time": 3597, "pitch": 63, "duration": 3, "velocity": 79}, {"time": 3597, "pitch": 71, "duration": 3, "velocity": 90}, {"time": 3597, "pitch": 66, "duration": 3, "velocity": 84}, {"time": 3600, "pitch": 47, "duration": 4, "velocity": 95}, {"time": 3602, "pitch": 35, "duration": 3, "velocity": 81}, {"time": 3609, "pitch": 73, "duration": 38, "velocity": 89}, {"time": 3609, "pitch": 49, "duration": 26, "velocity": 85}, {"time": 3609, "pitch": 61, "duration": 7, "velocity": 83}, {"time": 3609, "pitch": 37, "duration": 7, "velocity": 87}, {"time": 3609, "pitch": 65, "duration": 6, "velocity": 66}, {"time": 3609, "pitch": 68, "duration": 6, "velocity": 71}, {"time": 3621, "pitch": 37, "duration": 4, "velocity": 56}, {"time": 3621, "pitch": 61, "duration": 5, "velocity": 56}, {"time": 3621, "pitch": 65, "duration": 4, "velocity": 52}, {"time": 3621, "pitch": 68, "duration": 4, "velocity": 66}, {"time": 3633, "pitch": 37, "duration": 11, "velocity": 67}, {"time": 3633, "pitch": 61, "duration": 5, "velocity": 74}, {"time": 3633, "pitch": 65, "duration": 5, "velocity": 66}, {"time": 3633, "pitch": 68, "duration": 5, "velocity": 71}, {"time": 3639, "pitch": 49, "duration": 10, "velocity": 77}, {"time": 3645, "pitch": 61, "duration": 3, "velocity": 94}, {"time": 3645, "pitch": 65, "duration": 3, "velocity": 75}, {"time": 3645, "pitch": 68, "duration": 3, "velocity": 82}, {"time": 3648, "pitch": 37, "duration": 3, "velocity": 74}, {"time": 3657, "pitch": 32, "duration": 31, "velocity": 75}, {"time": 3657, "pitch": 68, "duration": 31, "velocity": 83}, {"time": 3657, "pitch": 56, "duration": 6, "velocity": 80}, {"time": 3657, "pitch": 44, "duration": 7, "velocity": 63}, {"time": 3657, "pitch": 63, "duration": 5, "velocity": 68}, {"time": 3657, "pitch": 60, "duration": 6, "velocity": 59}, {"time": 3669, "pitch": 44, "duration": 4, "velocity": 63}, {"time": 3669, "pitch": 56, "duration": 5, "velocity": 63}, {"time": 3669, "pitch": 63, "duration": 5, "velocity": 58}, {"time": 3669, "pitch": 60, "duration": 5, "velocity": 46}, {"time": 3681, "pitch": 56, "duration": 6, "velocity": 79}, {"time": 3681, "pitch": 63, "duration": 6, "velocity": 71}, {"time": 3681, "pitch": 60, "duration": 6, "velocity": 65}, {"time": 3686, "pitch": 44, "duration": 8, "velocity": 92}, {"time": 3693, "pitch": 32, "duration": 7, "velocity": 88}, {"time": 3693, "pitch": 68, "duration": 9, "velocity": 82}, {"time": 3693, "pitch": 56, "duration": 7, "velocity": 84}, {"time": 3693, "pitch": 63, "duration": 8, "velocity": 72}, {"time": 3693, "pitch": 60, "duration": 8, "velocity": 69}, {"time": 3699, "pitch": 44, "duration": 1, "velocity": 90}, {"time": 3705, "pitch": 56, "duration": 7, "velocity": 84}, {"time": 3705, "pitch": 68, "duration": 29, "velocity": 89}, {"time": 3705, "pitch": 44, "duration": 21, "velocity": 76}, {"time": 3705, "pitch": 63, "duration": 6, "velocity": 74}, {"time": 3705, "pitch": 32, "duration": 7, "velocity": 80}, {"time": 3705, "pitch": 59, "duration": 7, "velocity": 71}, {"time": 3717, "pitch": 32, "duration": 3, "velocity": 71}, {"time": 3717, "pitch": 63, "duration": 4, "velocity": 69}, {"time": 3717, "pitch": 56, "duration": 6, "velocity": 59}, {"time": 3717, "pitch": 59, "duration": 5, "velocity": 56}, {"time": 3722, "pitch": 32, "duration": 2, "velocity": 67}, {"time": 3728, "pitch": 44, "duration": 9, "velocity": 62}, {"time": 3728, "pitch": 56, "duration": 6, "velocity": 77}, {"time": 3728, "pitch": 32, "duration": 2, "velocity": 77}, {"time": 3728, "pitch": 63, "duration": 6, "velocity": 69}, {"time": 3728, "pitch": 59, "duration": 6, "velocity": 69}, {"time": 3734, "pitch": 32, "duration": 4, "velocity": 90}, {"time": 3740, "pitch": 32, "duration": 2, "velocity": 37}, {"time": 3740, "pitch": 56, "duration": 5, "velocity": 92}, {"time": 3740, "pitch": 68, "duration": 8, "velocity": 94}, {"time": 3740, "pitch": 63, "duration": 7, "velocity": 75}, {"time": 3741, "pitch": 44, "duration": 6, "velocity": 85}, {"time": 3741, "pitch": 59, "duration": 4, "velocity": 61}, {"time": 3746, "pitch": 32, "duration": 1, "velocity": 92}, {"time": 3753, "pitch": 58, "duration": 7, "velocity": 85}, {"time": 3753, "pitch": 66, "duration": 6, "velocity": 79}, {"time": 3753, "pitch": 30, "duration": 19, "velocity": 85}, {"time": 3753, "pitch": 42, "duration": 9, "velocity": 80}, {"time": 3753, "pitch": 61, "duration": 6, "velocity": 72}, {"time": 3764, "pitch": 42, "duration": 4, "velocity": 62}, {"time": 3764, "pitch": 58, "duration": 8, "velocity": 83}, {"time": 3764, "pitch": 61, "duration": 7, "velocity": 71}, {"time": 3764, "pitch": 66, "duration": 7, "velocity": 86}, {"time": 3770, "pitch": 42, "duration": 2, "velocity": 83}, {"time": 3776, "pitch": 58, "duration": 8, "velocity": 74}, {"time": 3776, "pitch": 61, "duration": 8, "velocity": 63}, {"time": 3776, "pitch": 30, "duration": 5, "velocity": 79}, {"time": 3776, "pitch": 42, "duration": 3, "velocity": 80}, {"time": 3776, "pitch": 66, "duration": 8, "velocity": 70}, {"time": 3782, "pitch": 42, "duration": 4, "velocity": 57}, {"time": 3782, "pitch": 30, "duration": 2, "velocity": 39}, {"time": 3788, "pitch": 30, "duration": 3, "velocity": 90}, {"time": 3788, "pitch": 66, "duration": 4, "velocity": 79}, {"time": 3789, "pitch": 58, "duration": 3, "velocity": 83}, {"time": 3789, "pitch": 61, "duration": 4, "velocity": 80}, {"time": 3791, "pitch": 42, "duration": 4, "velocity": 88}, {"time": 3793, "pitch": 30, "duration": 2, "velocity": 62}, {"time": 3800, "pitch": 49, "duration": 27, "velocity": 88}, {"time": 3800, "pitch": 37, "duration": 9, "velocity": 87}, {"time": 3801, "pitch": 56, "duration": 7, "velocity": 87}, {"time": 3801, "pitch": 65, "duration": 7, "velocity": 73}, {"time": 3801, "pitch": 61, "duration": 2, "velocity": 59}, {"time": 3802, "pitch": 68, "duration": 1, "velocity": 53}, {"time": 3805, "pitch": 61, "duration": 2, "velocity": 21}, {"time": 3806, "pitch": 68, "duration": 1, "velocity": 15}, {"time": 3812, "pitch": 56, "duration": 9, "velocity": 91}, {"time": 3812, "pitch": 37, "duration": 3, "velocity": 68}, {"time": 3812, "pitch": 65, "duration": 8, "velocity": 66}, {"time": 3813, "pitch": 68, "duration": 7, "velocity": 80}, {"time": 3813, "pitch": 61, "duration": 8, "velocity": 68}, {"time": 3818, "pitch": 37, "duration": 2, "velocity": 72}, {"time": 3824, "pitch": 56, "duration": 8, "velocity": 87}, {"time": 3824, "pitch": 68, "duration": 7, "velocity": 84}, {"time": 3824, "pitch": 37, "duration": 6, "velocity": 85}, {"time": 3825, "pitch": 65, "duration": 7, "velocity": 71}, {"time": 3825, "pitch": 61, "duration": 7, "velocity": 67}, {"time": 3830, "pitch": 49, "duration": 7, "velocity": 48}, {"time": 3836, "pitch": 37, "duration": 3, "velocity": 92}, {"time": 3836, "pitch": 56, "duration": 4, "velocity": 90}, {"time": 3836, "pitch": 61, "duration": 5, "velocity": 74}, {"time": 3836, "pitch": 65, "duration": 3, "velocity": 64}, {"time": 3837, "pitch": 68, "duration": 1, "velocity": 83}, {"time": 3839, "pitch": 49, "duration": 4, "velocity": 72}, {"time": 3841, "pitch": 37, "duration": 2, "velocity": 51}, {"time": 3848, "pitch": 32, "duration": 6, "velocity": 91}, {"time": 3848, "pitch": 68, "duration": 20, "velocity": 79}, {"time": 3848, "pitch": 44, "duration": 31, "velocity": 80}, {"time": 3848, "pitch": 56, "duration": 7, "velocity": 88}, {"time": 3848, "pitch": 59, "duration": 6, "velocity": 67}, {"time": 3848, "pitch": 63, "duration": 6, "velocity": 71}, {"time": 3855, "pitch": 32, "duration": 3, "velocity": 99}, {"time": 3861, "pitch": 56, "duration": 7, "velocity": 90}, {"time": 3861, "pitch": 32, "duration": 2, "velocity": 97}, {"time": 3861, "pitch": 63, "duration": 6, "velocity": 76}, {"time": 3861, "pitch": 59, "duration": 7, "velocity": 68}, {"time": 3867, "pitch": 32, "duration": 1, "velocity": 75}, {"time": 3872, "pitch": 32, "duration": 2, "velocity": 84}, {"time": 3872, "pitch": 56, "duration": 7, "velocity": 88}, {"time": 3872, "pitch": 68, "duration": 7, "velocity": 82}, {"time": 3872, "pitch": 63, "duration": 7, "velocity": 72}, {"time": 3872, "pitch": 59, "duration": 7, "velocity": 71}, {"time": 3878, "pitch": 32, "duration": 7, "velocity": 79}, {"time": 3884, "pitch": 44, "duration": 4, "velocity": 87}, {"time": 3885, "pitch": 56, "duration": 6, "velocity": 85}, {"time": 3885, "pitch": 68, "duration": 6, "velocity": 82}, {"time": 3885, "pitch": 59, "duration": 2, "velocity": 64}, {"time": 3885, "pitch": 63, "duration": 6, "velocity": 67}, {"time": 3887, "pitch": 32, "duration": 5, "velocity": 75}, {"time": 3888, "pitch": 59, "duration": 3, "velocity": 16}, {"time": 3890, "pitch": 44, "duration": 2, "velocity": 77}, {"time": 3897, "pitch": 68, "duration": 48, "velocity": 68}, {"time": 3897, "pitch": 44, "duration": 48, "velocity": 59}, {"time": 3897, "pitch": 63, "duration": 48, "velocity": 67}, {"time": 3897, "pitch": 56, "duration": 47, "velocity": 56}, {"time": 3897, "pitch": 32, "duration": 30, "velocity": 102}, {"time": 3897, "pitch": 60, "duration": 47, "velocity": 56}, {"time": 3945, "pitch": 40, "duration": 38, "velocity": 81}, {"time": 3957, "pitch": 47, "duration": 33, "velocity": 75}, {"time": 3969, "pitch": 56, "duration": 14, "velocity": 68}, {"time": 3969, "pitch": 59, "duration": 14, "velocity": 75}, {"time": 3969, "pitch": 63, "duration": 14, "velocity": 75}, {"time": 3993, "pitch": 49, "duration": 87, "velocity": 81}, {"time": 3993, "pitch": 65, "duration": 21, "velocity": 67}, {"time": 3993, "pitch": 68, "duration": 21, "velocity": 83}, {"time": 3993, "pitch": 71, "duration": 21, "velocity": 71}, {"time": 4017, "pitch": 65, "duration": 23, "velocity": 74}, {"time": 4017, "pitch": 68, "duration": 23, "velocity": 75}, {"time": 4017, "pitch": 71, "duration": 22, "velocity": 66}, {"time": 4041, "pitch": 65, "duration": 36, "velocity": 68}, {"time": 4041, "pitch": 68, "duration": 39, "velocity": 76}, {"time": 4041, "pitch": 71, "duration": 37, "velocity": 69}, {"time": 4089, "pitch": 44, "duration": 47, "velocity": 77}, {"time": 4089, "pitch": 56, "duration": 22, "velocity": 76}, {"time": 4089, "pitch": 60, "duration": 22, "velocity": 100}, {"time": 4089, "pitch": 63, "duration": 23, "velocity": 83}, {"time": 4113, "pitch": 56, "duration": 13, "velocity": 73}, {"time": 4113, "pitch": 60, "duration": 13, "velocity": 98}, {"time": 4113, "pitch": 63, "duration": 13, "velocity": 76}, {"time": 4137, "pitch": 40, "duration": 41, "velocity": 71}, {"time": 4137, "pitch": 52, "duration": 21, "velocity": 79}, {"time": 4137, "pitch": 56, "duration": 22, "velocity": 79}, {"time": 4137, "pitch": 59, "duration": 21, "velocity": 77}, {"time": 4161, "pitch": 52, "duration": 11, "velocity": 72}, {"time": 4161, "pitch": 56, "duration": 11, "velocity": 73}, {"time": 4161, "pitch": 59, "duration": 11, "velocity": 74}, {"time": 4185, "pitch": 61, "duration": 95, "velocity": 65}, {"time": 4185, "pitch": 65, "duration": 96, "velocity": 70}, {"time": 4185, "pitch": 68, "duration": 95, "velocity": 67}, {"time": 4186, "pitch": 44, "duration": 95, "velocity": 94}, {"time": 4186, "pitch": 32, "duration": 1, "velocity": 44}, {"time": 4190, "pitch": 32, "duration": 2, "velocity": 34}, {"time": 4196, "pitch": 32, "duration": 1, "velocity": 62}, {"time": 4202, "pitch": 32, "duration": 1, "velocity": 83}, {"time": 4208, "pitch": 32, "duration": 2, "velocity": 85}, {"time": 4209, "pitch": 32, "duration": 1, "velocity": 75}, {"time": 4215, "pitch": 32, "duration": 2, "velocity": 81}, {"time": 4221, "pitch": 32, "duration": 2, "velocity": 81}, {"time": 4227, "pitch": 32, "duration": 2, "velocity": 86}, {"time": 4233, "pitch": 32, "duration": 2, "velocity": 81}, {"time": 4239, "pitch": 32, "duration": 2, "velocity": 87}, {"time": 4245, "pitch": 32, "duration": 2, "velocity": 81}, {"time": 4251, "pitch": 32, "duration": 3, "velocity": 83}, {"time": 4257, "pitch": 32, "duration": 2, "velocity": 85}, {"time": 4263, "pitch": 32, "duration": 2, "velocity": 86}, {"time": 4269, "pitch": 32, "duration": 2, "velocity": 98}, {"time": 4275, "pitch": 32, "duration": 3, "velocity": 104}, {"time": 4281, "pitch": 32, "duration": 2, "velocity": 77}, {"time": 4281, "pitch": 44, "duration": 38, "velocity": 83}, {"time": 4281, "pitch": 56, "duration": 3, "velocity": 88}, {"time": 4281, "pitch": 59, "duration": 3, "velocity": 67}, {"time": 4281, "pitch": 63, "duration": 4, "velocity": 71}, {"time": 4281, "pitch": 68, "duration": 33, "velocity": 84}, {"time": 4287, "pitch": 32, "duration": 2, "velocity": 45}, {"time": 4287, "pitch": 56, "duration": 2, "velocity": 36}, {"time": 4287, "pitch": 59, "duration": 2, "velocity": 38}, {"time": 4287, "pitch": 63, "duration": 1, "velocity": 55}, {"time": 4293, "pitch": 32, "duration": 2, "velocity": 47}, {"time": 4293, "pitch": 59, "duration": 2, "velocity": 27}, {"time": 4293, "pitch": 63, "duration": 2, "velocity": 43}, {"time": 4299, "pitch": 32, "duration": 2, "velocity": 38}, {"time": 4299, "pitch": 56, "duration": 2, "velocity": 35}, {"time": 4299, "pitch": 59, "duration": 2, "velocity": 29}, {"time": 4299, "pitch": 63, "duration": 2, "velocity": 14}, {"time": 4305, "pitch": 32, "duration": 2, "velocity": 46}, {"time": 4305, "pitch": 56, "duration": 2, "velocity": 38}, {"time": 4305, "pitch": 59, "duration": 2, "velocity": 36}, {"time": 4305, "pitch": 63, "duration": 2, "velocity": 28}, {"time": 4311, "pitch": 32, "duration": 2, "velocity": 49}, {"time": 4311, "pitch": 56, "duration": 2, "velocity": 35}, {"time": 4311, "pitch": 59, "duration": 2, "velocity": 34}, {"time": 4311, "pitch": 63, "duration": 2, "velocity": 30}, {"time": 4317, "pitch": 32, "duration": 7, "velocity": 74}, {"time": 4317, "pitch": 56, "duration": 5, "velocity": 83}, {"time": 4317, "pitch": 59, "duration": 6, "velocity": 67}, {"time": 4317, "pitch": 63, "duration": 7, "velocity": 71}, {"time": 4317, "pitch": 68, "duration": 7, "velocity": 53}, {"time": 4323, "pitch": 44, "duration": 2, "velocity": 72}, {"time": 4329, "pitch": 30, "duration": 3, "velocity": 92}, {"time": 4329, "pitch": 42, "duration": 3, "velocity": 92}, {"time": 4329, "pitch": 58, "duration": 4, "velocity": 91}, {"time": 4329, "pitch": 61, "duration": 8, "velocity": 81}, {"time": 4329, "pitch": 66, "duration": 10, "velocity": 95}, {"time": 4335, "pitch": 30, "duration": 2, "velocity": 63}, {"time": 4335, "pitch": 42, "duration": 3, "velocity": 55}, {"time": 4335, "pitch": 58, "duration": 2, "velocity": 44}, {"time": 4341, "pitch": 30, "duration": 1, "velocity": 50}, {"time": 4341, "pitch": 42, "duration": 10, "velocity": 53}, {"time": 4341, "pitch": 58, "duration": 1, "velocity": 63}, {"time": 4341, "pitch": 61, "duration": 2, "velocity": 30}, {"time": 4341, "pitch": 66, "duration": 3, "velocity": 43}, {"time": 4347, "pitch": 30, "duration": 2, "velocity": 38}, {"time": 4347, "pitch": 58, "duration": 1, "velocity": 44}, {"time": 4347, "pitch": 61, "duration": 2, "velocity": 30}, {"time": 4347, "pitch": 66, "duration": 2, "velocity": 30}, {"time": 4353, "pitch": 30, "duration": 1, "velocity": 58}, {"time": 4353, "pitch": 42, "duration": 15, "velocity": 32}, {"time": 4353, "pitch": 58, "duration": 1, "velocity": 53}, {"time": 4353, "pitch": 61, "duration": 2, "velocity": 41}, {"time": 4353, "pitch": 66, "duration": 1, "velocity": 57}, {"time": 4359, "pitch": 30, "duration": 2, "velocity": 58}, {"time": 4359, "pitch": 58, "duration": 1, "velocity": 67}, {"time": 4359, "pitch": 61, "duration": 2, "velocity": 50}, {"time": 4359, "pitch": 66, "duration": 1, "velocity": 58}, {"time": 4365, "pitch": 30, "duration": 3, "velocity": 77}, {"time": 4365, "pitch": 58, "duration": 3, "velocity": 99}, {"time": 4365, "pitch": 61, "duration": 3, "velocity": 87}, {"time": 4365, "pitch": 66, "duration": 3, "velocity": 91}, {"time": 4371, "pitch": 30, "duration": 1, "velocity": 61}, {"time": 4371, "pitch": 42, "duration": 1, "velocity": 53}, {"time": 4371, "pitch": 58, "duration": 1, "velocity": 59}, {"time": 4371, "pitch": 61, "duration": 2, "velocity": 47}, {"time": 4371, "pitch": 66, "duration": 1, "velocity": 46}, {"time": 4377, "pitch": 40, "duration": 7, "velocity": 100}, {"time": 4377, "pitch": 52, "duration": 40, "velocity": 108}, {"time": 4377, "pitch": 56, "duration": 4, "velocity": 100}, {"time": 4377, "pitch": 59, "duration": 3, "velocity": 88}, {"time": 4377, "pitch": 64, "duration": 4, "velocity": 94}, {"time": 4383, "pitch": 56, "duration": 2, "velocity": 62}, {"time": 4383, "pitch": 59, "duration": 1, "velocity": 64}, {"time": 4383, "pitch": 64, "duration": 2, "velocity": 71}, {"time": 4389, "pitch": 40, "duration": 2, "velocity": 67}, {"time": 4389, "pitch": 56, "duration": 1, "velocity": 59}, {"time": 4389, "pitch": 59, "duration": 2, "velocity": 53}, {"time": 4389, "pitch": 64, "duration": 2, "velocity": 54}, {"time": 4395, "pitch": 40, "duration": 1, "velocity": 63}, {"time": 4395, "pitch": 56, "duration": 2, "velocity": 51}, {"time": 4395, "pitch": 59, "duration": 2, "velocity": 38}, {"time": 4395, "pitch": 64, "duration": 2, "velocity": 39}, {"time": 4401, "pitch": 40, "duration": 2, "velocity": 62}, {"time": 4401, "pitch": 56, "duration": 2, "velocity": 59}, {"time": 4401, "pitch": 59, "duration": 2, "velocity": 43}, {"time": 4401, "pitch": 64, "duration": 2, "velocity": 57}, {"time": 4407, "pitch": 40, "duration": 2, "velocity": 56}, {"time": 4407, "pitch": 56, "duration": 2, "velocity": 53}, {"time": 4407, "pitch": 59, "duration": 1, "velocity": 44}, {"time": 4407, "pitch": 64, "duration": 2, "velocity": 47}, {"time": 4413, "pitch": 40, "duration": 3, "velocity": 77}, {"time": 4413, "pitch": 56, "duration": 3, "velocity": 85}, {"time": 4413, "pitch": 59, "duration": 3, "velocity": 75}, {"time": 4413, "pitch": 64, "duration": 3, "velocity": 79}, {"time": 4419, "pitch": 40, "duration": 2, "velocity": 53}, {"time": 4419, "pitch": 52, "duration": 2, "velocity": 38}, {"time": 4419, "pitch": 56, "duration": 2, "velocity": 48}, {"time": 4419, "pitch": 59, "duration": 2, "velocity": 53}, {"time": 4419, "pitch": 64, "duration": 3, "velocity": 53}, {"time": 4425, "pitch": 39, "duration": 7, "velocity": 91}, {"time": 4425, "pitch": 51, "duration": 9, "velocity": 95}, {"time": 4425, "pitch": 56, "duration": 2, "velocity": 95}, {"time": 4425, "pitch": 59, "duration": 3, "velocity": 84}, {"time": 4425, "pitch": 63, "duration": 4, "velocity": 91}, {"time": 4431, "pitch": 56, "duration": 1, "velocity": 45}, {"time": 4431, "pitch": 59, "duration": 1, "velocity": 51}, {"time": 4431, "pitch": 63, "duration": 1, "velocity": 62}, {"time": 4437, "pitch": 39, "duration": 2, "velocity": 54}, {"time": 4437, "pitch": 51, "duration": 28, "velocity": 59}, {"time": 4437, "pitch": 56, "duration": 2, "velocity": 63}, {"time": 4437, "pitch": 59, "duration": 1, "velocity": 47}, {"time": 4437, "pitch": 63, "duration": 2, "velocity": 50}, {"time": 4443, "pitch": 39, "duration": 1, "velocity": 61}, {"time": 4443, "pitch": 56, "duration": 1, "velocity": 68}, {"time": 4443, "pitch": 59, "duration": 2, "velocity": 35}, {"time": 4443, "pitch": 63, "duration": 1, "velocity": 45}, {"time": 4449, "pitch": 39, "duration": 1, "velocity": 72}, {"time": 4449, "pitch": 56, "duration": 2, "velocity": 74}, {"time": 4449, "pitch": 59, "duration": 1, "velocity": 51}, {"time": 4449, "pitch": 63, "duration": 2, "velocity": 68}, {"time": 4455, "pitch": 39, "duration": 3, "velocity": 80}, {"time": 4455, "pitch": 56, "duration": 2, "velocity": 67}, {"time": 4455, "pitch": 59, "duration": 1, "velocity": 61}, {"time": 4455, "pitch": 63, "duration": 1, "velocity": 59}, {"time": 4461, "pitch": 39, "duration": 3, "velocity": 88}, {"time": 4461, "pitch": 56, "duration": 3, "velocity": 94}, {"time": 4461, "pitch": 59, "duration": 2, "velocity": 79}, {"time": 4461, "pitch": 63, "duration": 3, "velocity": 85}, {"time": 4467, "pitch": 39, "duration": 1, "velocity": 61}, {"time": 4467, "pitch": 51, "duration": 1, "velocity": 79}, {"time": 4467, "pitch": 56, "duration": 1, "velocity": 63}, {"time": 4467, "pitch": 59, "duration": 1, "velocity": 55}, {"time": 4467, "pitch": 63, "duration": 2, "velocity": 47}, {"time": 4473, "pitch": 32, "duration": 2, "velocity": 77}, {"time": 4473, "pitch": 44, "duration": 38, "velocity": 83}, {"time": 4473, "pitch": 56, "duration": 3, "velocity": 88}, {"time": 4473, "pitch": 59, "duration": 3, "velocity": 67}, {"time": 4473, "pitch": 63, "duration": 4, "velocity": 71}, {"time": 4473, "pitch": 68, "duration": 33, "velocity": 84}, {"time": 4479, "pitch": 32, "duration": 2, "velocity": 45}, {"time": 4479, "pitch": 56, "duration": 2, "velocity": 36}, {"time": 4479, "pitch": 59, "duration": 2, "velocity": 38}, {"time": 4479, "pitch": 63, "duration": 1, "velocity": 55}, {"time": 4485, "pitch": 32, "duration": 2, "velocity": 47}, {"time": 4485, "pitch": 59, "duration": 2, "velocity": 27}, {"time": 4485, "pitch": 63, "duration": 2, "velocity": 43}, {"time": 4491, "pitch": 32, "duration": 2, "velocity": 38}, {"time": 4491, "pitch": 56, "duration": 2, "velocity": 35}, {"time": 4491, "pitch": 59, "duration": 2, "velocity": 29}, {"time": 4491, "pitch": 63, "duration": 2, "velocity": 14}, {"time": 4497, "pitch": 32, "duration": 2, "velocity": 46}, {"time": 4497, "pitch": 56, "duration": 2, "velocity": 38}, {"time": 4497, "pitch": 59, "duration": 2, "velocity": 36}, {"time": 4497, "pitch": 63, "duration": 2, "velocity": 28}, {"time": 4503, "pitch": 32, "duration": 2, "velocity": 49}, {"time": 4503, "pitch": 56, "duration": 2, "velocity": 35}, {"time": 4503, "pitch": 59, "duration": 2, "velocity": 34}, {"time": 4503, "pitch": 63, "duration": 2, "velocity": 30}, {"time": 4509, "pitch": 32, "duration": 7, "velocity": 74}, {"time": 4509, "pitch": 56, "duration": 5, "velocity": 83}, {"time": 4509, "pitch": 59, "duration": 6, "velocity": 67}, {"time": 4509, "pitch": 63, "duration": 7, "velocity": 71}, {"time": 4509, "pitch": 68, "duration": 7, "velocity": 53}, {"time": 4515, "pitch": 44, "duration": 2, "velocity": 72}, {"time": 4521, "pitch": 30, "duration": 3, "velocity": 92}, {"time": 4521, "pitch": 42, "duration": 3, "velocity": 92}, {"time": 4521, "pitch": 58, "duration": 4, "velocity": 91}, {"time": 4521, "pitch": 61, "duration": 8, "velocity": 81}, {"time": 4521, "pitch": 66, "duration": 10, "velocity": 95}, {"time": 4527, "pitch": 30, "duration": 2, "velocity": 63}, {"time": 4527, "pitch": 42, "duration": 3, "velocity": 55}, {"time": 4527, "pitch": 58, "duration": 2, "velocity": 44}, {"time": 4533, "pitch": 30, "duration": 1, "velocity": 50}, {"time": 4533, "pitch": 42, "duration": 10, "velocity": 53}, {"time": 4533, "pitch": 58, "duration": 1, "velocity": 63}, {"time": 4533, "pitch": 61, "duration": 2, "velocity": 30}, {"time": 4533, "pitch": 66, "duration": 3, "velocity": 43}, {"time": 4539, "pitch": 30, "duration": 2, "velocity": 38}, {"time": 4539, "pitch": 58, "duration": 1, "velocity": 44}, {"time": 4539, "pitch": 61, "duration": 2, "velocity": 30}, {"time": 4539, "pitch": 66, "duration": 2, "velocity": 30}, {"time": 4545, "pitch": 30, "duration": 1, "velocity": 58}, {"time": 4545, "pitch": 42, "duration": 15, "velocity": 32}, {"time": 4545, "pitch": 58, "duration": 1, "velocity": 53}, {"time": 4545, "pitch": 61, "duration": 2, "velocity": 41}, {"time": 4545, "pitch": 66, "duration": 1, "velocity": 57}, {"time": 4551, "pitch": 30, "duration": 2, "velocity": 58}, {"time": 4551, "pitch": 58, "duration": 1, "velocity": 67}, {"time": 4551, "pitch": 61, "duration": 2, "velocity": 50}, {"time": 4551, "pitch": 66, "duration": 1, "velocity": 58}, {"time": 4557, "pitch": 30, "duration": 3, "velocity": 77}, {"time": 4557, "pitch": 58, "duration": 3, "velocity": 99}, {"time": 4557, "pitch": 61, "duration": 3, "velocity": 87}, {"time": 4557, "pitch": 66, "duration": 3, "velocity": 91}, {"time": 4563, "pitch": 30, "duration": 1, "velocity": 61}, {"time": 4563, "pitch": 42, "duration": 1, "velocity": 53}, {"time": 4563, "pitch": 58, "duration": 1, "velocity": 59}, {"time": 4563, "pitch": 61, "duration": 2, "velocity": 47}, {"time": 4563, "pitch": 66, "duration": 1, "velocity": 46}, {"time": 4569, "pitch": 40, "duration": 7, "velocity": 100}, {"time": 4569, "pitch": 52, "duration": 40, "velocity": 108}, {"time": 4569, "pitch": 56, "duration": 4, "velocity": 100}, {"time": 4569, "pitch": 59, "duration": 3, "velocity": 88}, {"time": 4569, "pitch": 64, "duration": 4, "velocity": 94}, {"time": 4575, "pitch": 56, "duration": 2, "velocity": 62}, {"time": 4575, "pitch": 59, "duration": 1, "velocity": 64}, {"time": 4575, "pitch": 64, "duration": 2, "velocity": 71}, {"time": 4581, "pitch": 40, "duration": 2, "velocity": 67}, {"time": 4581, "pitch": 56, "duration": 1, "velocity": 59}, {"time": 4581, "pitch": 59, "duration": 2, "velocity": 53}, {"time": 4581, "pitch": 64, "duration": 2, "velocity": 54}, {"time": 4587, "pitch": 40, "duration": 1, "velocity": 63}, {"time": 4587, "pitch": 56, "duration": 2, "velocity": 51}, {"time": 4587, "pitch": 59, "duration": 2, "velocity": 38}, {"time": 4587, "pitch": 64, "duration": 2, "velocity": 39}, {"time": 4593, "pitch": 40, "duration": 2, "velocity": 62}, {"time": 4593, "pitch": 56, "duration": 2, "velocity": 59}, {"time": 4593, "pitch": 59, "duration": 2, "velocity": 43}, {"time": 4593, "pitch": 64, "duration": 2, "velocity": 57}, {"time": 4599, "pitch": 40, "duration": 2, "velocity": 56}, {"time": 4599, "pitch": 56, "duration": 2, "velocity": 53}, {"time": 4599, "pitch": 59, "duration": 1, "velocity": 44}, {"time": 4599, "pitch": 64, "duration": 2, "velocity": 47}, {"time": 4605, "pitch": 40, "duration": 3, "velocity": 77}, {"time": 4605, "pitch": 56, "duration": 3, "velocity": 85}, {"time": 4605, "pitch": 59, "duration": 3, "velocity": 75}, {"time": 4605, "pitch": 64, "duration": 3, "velocity": 79}, {"time": 4611, "pitch": 40, "duration": 2, "velocity": 53}, {"time": 4611, "pitch": 52, "duration": 2, "velocity": 38}, {"time": 4611, "pitch": 56, "duration": 2, "velocity": 48}, {"time": 4611, "pitch": 59, "duration": 2, "velocity": 53}, {"time": 4611, "pitch": 64, "duration": 3, "velocity": 53}, {"time": 4617, "pitch": 39, "duration": 7, "velocity": 91}, {"time": 4617, "pitch": 51, "duration": 9, "velocity": 95}, {"time": 4617, "pitch": 56, "duration": 2, "velocity": 95}, {"time": 4617, "pitch": 59, "duration": 3, "velocity": 84}, {"time": 4617, "pitch": 63, "duration": 4, "velocity": 91}, {"time": 4647, "pitch": 39, "duration": 3, "velocity": 80}, {"time": 4647, "pitch": 51, "duration": 11, "velocity": 59}, {"time": 4647, "pitch": 56, "duration": 2, "velocity": 67}, {"time": 4647, "pitch": 60, "duration": 1, "velocity": 61}, {"time": 4647, "pitch": 63, "duration": 1, "velocity": 59}, {"time": 4653, "pitch": 39, "duration": 3, "velocity": 88}, {"time": 4653, "pitch": 56, "duration": 3, "velocity": 94}, {"time": 4653, "pitch": 60, "duration": 2, "velocity": 79}, {"time": 4653, "pitch": 63, "duration": 3, "velocity": 85}, {"time": 4659, "pitch": 39, "duration": 1, "velocity": 61}, {"time": 4659, "pitch": 51, "duration": 1, "velocity": 79}, {"time": 4659, "pitch": 56, "duration": 1, "velocity": 63}, {"time": 4659, "pitch": 60, "duration": 1, "velocity": 55}, {"time": 4659, "pitch": 63, "duration": 2, "velocity": 47}, {"time": 4665, "pitch": 32, "duration": 2, "velocity": 90}, {"time": 4665, "pitch": 44, "duration": 3, "velocity": 90}, {"time": 4665, "pitch": 56, "duration": 3, "velocity": 95}, {"time": 4665, "pitch": 60, "duration": 1, "velocity": 69}, {"time": 4665, "pitch": 63, "duration": 2, "velocity": 79}, {"time": 4665, "pitch": 68, "duration": 32, "velocity": 87}, {"time": 4671, "pitch": 32, "duration": 2, "velocity": 47}, {"time": 4671, "pitch": 44, "duration": 5, "velocity": 59}, {"time": 4671, "pitch": 56, "duration": 2, "velocity": 47}, {"time": 4671, "pitch": 60, "duration": 2, "velocity": 30}, {"time": 4671, "pitch": 63, "duration": 2, "velocity": 34}, {"time": 4677, "pitch": 32, "duration": 1, "velocity": 59}, {"time": 4677, "pitch": 44, "duration": 21, "velocity": 38}, {"time": 4677, "pitch": 56, "duration": 2, "velocity": 45}, {"time": 4677, "pitch": 60, "duration": 2, "velocity": 14}, {"time": 4683, "pitch": 32, "duration": 1, "velocity": 58}, {"time": 4683, "pitch": 56, "duration": 2, "velocity": 44}, {"time": 4683, "pitch": 60, "duration": 2, "velocity": 25}, {"time": 4683, "pitch": 63, "duration": 2, "velocity": 22}, {"time": 4689, "pitch": 32, "duration": 2, "velocity": 54}, {"time": 4689, "pitch": 56, "duration": 2, "velocity": 38}, {"time": 4695, "pitch": 32, "duration": 1, "velocity": 69}, {"time": 4695, "pitch": 56, "duration": 2, "velocity": 39}, {"time": 4695, "pitch": 60, "duration": 2, "velocity": 30}, {"time": 4695, "pitch": 63, "duration": 1, "velocity": 26}, {"time": 4701, "pitch": 32, "duration": 3, "velocity": 87}, {"time": 4701, "pitch": 44, "duration": 4, "velocity": 87}, {"time": 4701, "pitch": 56, "duration": 5, "velocity": 102}, {"time": 4701, "pitch": 60, "duration": 5, "velocity": 65}, {"time": 4701, "pitch": 63, "duration": 6, "velocity": 56}, {"time": 4701, "pitch": 68, "duration": 7, "velocity": 101}, {"time": 4707, "pitch": 32, "duration": 2, "velocity": 55}, {"time": 4707, "pitch": 44, "duration": 3, "velocity": 39}, {"time": 4713, "pitch": 30, "duration": 2, "velocity": 98}, {"time": 4713, "pitch": 42, "duration": 37, "velocity": 97}, {"time": 4713, "pitch": 58, "duration": 3, "velocity": 97}, {"time": 4713, "pitch": 61, "duration": 4, "velocity": 87}, {"time": 4713, "pitch": 66, "duration": 3, "velocity": 82}, {"time": 4713, "pitch": 70, "duration": 32, "velocity": 99}, {"time": 4719, "pitch": 30, "duration": 2, "velocity": 72}, {"time": 4719, "pitch": 58, "duration": 2, "velocity": 59}, {"time": 4719, "pitch": 61, "duration": 1, "velocity": 69}, {"time": 4719, "pitch": 66, "duration": 2, "velocity": 30}, {"time": 4725, "pitch": 30, "duration": 2, "velocity": 71}, {"time": 4725, "pitch": 58, "duration": 1, "velocity": 61}, {"time": 4725, "pitch": 61, "duration": 1, "velocity": 61}, {"time": 4725, "pitch": 66, "duration": 1, "velocity": 50}, {"time": 4731, "pitch": 30, "duration": 1, "velocity": 59}, {"time": 4731, "pitch": 58, "duration": 2, "velocity": 50}, {"time": 4731, "pitch": 61, "duration": 1, "velocity": 55}, {"time": 4731, "pitch": 66, "duration": 2, "velocity": 33}, {"time": 4737, "pitch": 30, "duration": 2, "velocity": 74}, {"time": 4737, "pitch": 58, "duration": 1, "velocity": 61}, {"time": 4737, "pitch": 61, "duration": 1, "velocity": 59}, {"time": 4737, "pitch": 66, "duration": 2, "velocity": 41}, {"time": 4743, "pitch": 30, "duration": 2, "velocity": 87}, {"time": 4743, "pitch": 58, "duration": 1, "velocity": 65}, {"time": 4743, "pitch": 61, "duration": 1, "velocity": 68}, {"time": 4743, "pitch": 66, "duration": 1, "velocity": 55}, {"time": 4749, "pitch": 30, "duration": 7, "velocity": 92}, {"time": 4749, "pitch": 58, "duration": 4, "velocity": 102}, {"time": 4749, "pitch": 61, "duration": 5, "velocity": 94}, {"time": 4749, "pitch": 66, "duration": 5, "velocity": 94}, {"time": 4749, "pitch": 70, "duration": 5, "velocity": 96}, {"time": 4755, "pitch": 42, "duration": 2, "velocity": 92}, {"time": 4761, "pitch": 37, "duration": 3, "velocity": 88}, {"time": 4761, "pitch": 49, "duration": 27, "velocity": 94}, {"time": 4761, "pitch": 61, "duration": 3, "velocity": 94}, {"time": 4761, "pitch": 65, "duration": 2, "velocity": 68}, {"time": 4761, "pitch": 68, "duration": 3, "velocity": 75}, {"time": 4761, "pitch": 73, "duration": 32, "velocity": 95}, {"time": 4767, "pitch": 37, "duration": 2, "velocity": 69}, {"time": 4767, "pitch": 61, "duration": 2, "velocity": 50}, {"time": 4767, "pitch": 65, "duration": 2, "velocity": 36}, {"time": 4767, "pitch": 68, "duration": 1, "velocity": 50}, {"time": 4773, "pitch": 37, "duration": 1, "velocity": 68}, {"time": 4773, "pitch": 61, "duration": 2, "velocity": 67}, {"time": 4773, "pitch": 65, "duration": 1, "velocity": 24}, {"time": 4773, "pitch": 68, "duration": 2, "velocity": 54}, {"time": 4779, "pitch": 37, "duration": 2, "velocity": 67}, {"time": 4779, "pitch": 61, "duration": 1, "velocity": 61}, {"time": 4779, "pitch": 65, "duration": 2, "velocity": 28}, {"time": 4779, "pitch": 68, "duration": 1, "velocity": 56}, {"time": 4785, "pitch": 37, "duration": 4, "velocity": 79}, {"time": 4785, "pitch": 61, "duration": 1, "velocity": 65}, {"time": 4785, "pitch": 68, "duration": 1, "velocity": 43}, {"time": 4791, "pitch": 37, "duration": 3, "velocity": 64}, {"time": 4791, "pitch": 49, "duration": 2, "velocity": 49}, {"time": 4791, "pitch": 61, "duration": 1, "velocity": 69}, {"time": 4791, "pitch": 65, "duration": 2, "velocity": 29}, {"time": 4791, "pitch": 68, "duration": 2, "velocity": 32}, {"time": 4797, "pitch": 37, "duration": 7, "velocity": 95}, {"time": 4797, "pitch": 49, "duration": 2, "velocity": 87}, {"time": 4797, "pitch": 61, "duration": 5, "velocity": 99}, {"time": 4797, "pitch": 65, "duration": 4, "velocity": 74}, {"time": 4797, "pitch": 68, "duration": 5, "velocity": 75}, {"time": 4797, "pitch": 73, "duration": 4, "velocity": 103}, {"time": 4803, "pitch": 49, "duration": 2, "velocity": 74}, {"time": 4809, "pitch": 32, "duration": 4, "velocity": 95}, {"time": 4809, "pitch": 44, "duration": 31, "velocity": 97}, {"time": 4809, "pitch": 56, "duration": 3, "velocity": 97}, {"time": 4809, "pitch": 60, "duration": 2, "velocity": 68}, {"time": 4809, "pitch": 63, "duration": 2, "velocity": 72}, {"time": 4809, "pitch": 68, "duration": 31, "velocity": 95}, {"time": 4815, "pitch": 32, "duration": 1, "velocity": 77}, {"time": 4815, "pitch": 56, "duration": 2, "velocity": 55}, {"time": 4815, "pitch": 60, "duration": 2, "velocity": 37}, {"time": 4815, "pitch": 63, "duration": 2, "velocity": 41}, {"time": 4821, "pitch": 32, "duration": 2, "velocity": 69}, {"time": 4821, "pitch": 56, "duration": 1, "velocity": 63}, {"time": 4821, "pitch": 63, "duration": 2, "velocity": 43}, {"time": 4827, "pitch": 32, "duration": 2, "velocity": 51}, {"time": 4827, "pitch": 56, "duration": 1, "velocity": 50}, {"time": 4827, "pitch": 60, "duration": 1, "velocity": 16}, {"time": 4833, "pitch": 32, "duration": 3, "velocity": 75}, {"time": 4833, "pitch": 56, "duration": 1, "velocity": 57}, {"time": 4833, "pitch": 60, "duration": 1, "velocity": 27}, {"time": 4833, "pitch": 63, "duration": 2, "velocity": 39}, {"time": 4836, "pitch": 32, "duration": 1, "velocity": 59}, {"time": 4836, "pitch": 56, "duration": 1, "velocity": 64}, {"time": 4836, "pitch": 60, "duration": 2, "velocity": 41}, {"time": 4836, "pitch": 63, "duration": 2, "velocity": 24}, {"time": 4842, "pitch": 32, "duration": 3, "velocity": 91}, {"time": 4842, "pitch": 56, "duration": 7, "velocity": 92}, {"time": 4842, "pitch": 60, "duration": 7, "velocity": 72}, {"time": 4842, "pitch": 63, "duration": 8, "velocity": 83}, {"time": 4842, "pitch": 68, "duration": 9, "velocity": 92}, {"time": 4845, "pitch": 44, "duration": 5, "velocity": 97}, {"time": 4848, "pitch": 32, "duration": 2, "velocity": 85}, {"time": 4857, "pitch": 32, "duration": 4, "velocity": 91}, {"time": 4857, "pitch": 44, "duration": 37, "velocity": 91}, {"time": 4857, "pitch": 56, "duration": 3, "velocity": 94}, {"time": 4857, "pitch": 60, "duration": 4, "velocity": 74}, {"time": 4857, "pitch": 63, "duration": 3, "velocity": 77}, {"time": 4857, "pitch": 68, "duration": 32, "velocity": 92}, {"time": 4863, "pitch": 32, "duration": 1, "velocity": 54}, {"time": 4863, "pitch": 56, "duration": 2, "velocity": 49}, {"time": 4863, "pitch": 63, "duration": 2, "velocity": 47}, {"time": 4869, "pitch": 32, "duration": 2, "velocity": 69}, {"time": 4869, "pitch": 56, "duration": 2, "velocity": 58}, {"time": 4869, "pitch": 63, "duration": 1, "velocity": 56}, {"time": 4875, "pitch": 32, "duration": 2, "velocity": 67}, {"time": 4875, "pitch": 56, "duration": 1, "velocity": 54}, {"time": 4875, "pitch": 60, "duration": 2, "velocity": 35}, {"time": 4875, "pitch": 63, "duration": 1, "velocity": 50}, {"time": 4881, "pitch": 32, "duration": 2, "velocity": 68}, {"time": 4881, "pitch": 56, "duration": 1, "velocity": 58}, {"time": 4881, "pitch": 60, "duration": 2, "velocity": 35}, {"time": 4881, "pitch": 63, "duration": 1, "velocity": 62}, {"time": 4887, "pitch": 32, "duration": 2, "velocity": 71}, {"time": 4887, "pitch": 56, "duration": 1, "velocity": 57}, {"time": 4887, "pitch": 60, "duration": 2, "velocity": 39}, {"time": 4887, "pitch": 63, "duration": 1, "velocity": 52}, {"time": 4893, "pitch": 32, "duration": 7, "velocity": 85}, {"time": 4893, "pitch": 56, "duration": 3, "velocity": 100}, {"time": 4893, "pitch": 60, "duration": 2, "velocity": 72}, {"time": 4893, "pitch": 63, "duration": 4, "velocity": 72}, {"time": 4893, "pitch": 68, "duration": 5, "velocity": 95}, {"time": 4899, "pitch": 44, "duration": 1, "velocity": 90}, {"time": 4905, "pitch": 30, "duration": 2, "velocity": 96}, {"time": 4905, "pitch": 42, "duration": 39, "velocity": 94}, {"time": 4905, "pitch": 58, "duration": 3, "velocity": 100}, {"time": 4905, "pitch": 61, "duration": 3, "velocity": 91}, {"time": 4905, "pitch": 66, "duration": 3, "velocity": 87}, {"time": 4905, "pitch": 70, "duration": 43, "velocity": 95}, {"time": 4911, "pitch": 30, "duration": 2, "velocity": 67}, {"time": 4911, "pitch": 58, "duration": 2, "velocity": 55}, {"time": 4911, "pitch": 61, "duration": 2, "velocity": 52}, {"time": 4911, "pitch": 66, "duration": 3, "velocity": 48}, {"time": 4917, "pitch": 30, "duration": 1, "velocity": 72}, {"time": 4917, "pitch": 58, "duration": 2, "velocity": 63}, {"time": 4917, "pitch": 61, "duration": 1, "velocity": 63}, {"time": 4917, "pitch": 66, "duration": 2, "velocity": 58}, {"time": 4923, "pitch": 30, "duration": 2, "velocity": 72}, {"time": 4923, "pitch": 58, "duration": 1, "velocity": 67}, {"time": 4923, "pitch": 61, "duration": 1, "velocity": 61}, {"time": 4923, "pitch": 66, "duration": 1, "velocity": 60}, {"time": 4929, "pitch": 30, "duration": 2, "velocity": 69}, {"time": 4929, "pitch": 58, "duration": 2, "velocity": 65}, {"time": 4929, "pitch": 61, "duration": 2, "velocity": 63}, {"time": 4929, "pitch": 66, "duration": 2, "velocity": 60}, {"time": 4935, "pitch": 30, "duration": 2, "velocity": 72}, {"time": 4935, "pitch": 58, "duration": 2, "velocity": 63}, {"time": 4935, "pitch": 61, "duration": 1, "velocity": 65}, {"time": 4935, "pitch": 66, "duration": 1, "velocity": 64}, {"time": 4941, "pitch": 30, "duration": 7, "velocity": 91}, {"time": 4941, "pitch": 58, "duration": 3, "velocity": 99}, {"time": 4941, "pitch": 61, "duration": 4, "velocity": 90}, {"time": 4941, "pitch": 66, "duration": 4, "velocity": 87}, {"time": 4947, "pitch": 42, "duration": 2, "velocity": 85}, {"time": 4947, "pitch": 58, "duration": 1, "velocity": 63}, {"time": 4947, "pitch": 61, "duration": 2, "velocity": 63}, {"time": 4947, "pitch": 66, "duration": 2, "velocity": 66}, {"time": 4953, "pitch": 37, "duration": 3, "velocity": 95}, {"time": 4953, "pitch": 49, "duration": 31, "velocity": 104}, {"time": 4953, "pitch": 61, "duration": 3, "velocity": 97}, {"time": 4953, "pitch": 65, "duration": 3, "velocity": 64}, {"time": 4953, "pitch": 68, "duration": 3, "velocity": 71}, {"time": 4953, "pitch": 73, "duration": 39, "velocity": 91}, {"time": 4959, "pitch": 37, "duration": 2, "velocity": 56}, {"time": 4959, "pitch": 61, "duration": 2, "velocity": 64}, {"time": 4959, "pitch": 65, "duration": 2, "velocity": 49}, {"time": 4959, "pitch": 68, "duration": 1, "velocity": 57}, {"time": 4965, "pitch": 37, "duration": 2, "velocity": 68}, {"time": 4965, "pitch": 61, "duration": 2, "velocity": 56}, {"time": 4965, "pitch": 65, "duration": 1, "velocity": 23}, {"time": 4965, "pitch": 68, "duration": 2, "velocity": 52}, {"time": 4971, "pitch": 37, "duration": 2, "velocity": 72}, {"time": 4971, "pitch": 61, "duration": 1, "velocity": 69}, {"time": 4971, "pitch": 65, "duration": 2, "velocity": 28}, {"time": 4971, "pitch": 68, "duration": 1, "velocity": 56}, {"time": 4977, "pitch": 37, "duration": 2, "velocity": 68}, {"time": 4977, "pitch": 61, "duration": 2, "velocity": 72}, {"time": 4977, "pitch": 65, "duration": 2, "velocity": 38}, {"time": 4977, "pitch": 68, "duration": 2, "velocity": 55}, {"time": 4983, "pitch": 37, "duration": 8, "velocity": 69}, {"time": 4983, "pitch": 61, "duration": 1, "velocity": 72}, {"time": 4983, "pitch": 65, "duration": 2, "velocity": 26}, {"time": 4983, "pitch": 68, "duration": 1, "velocity": 53}, {"time": 4989, "pitch": 49, "duration": 8, "velocity": 94}, {"time": 4989, "pitch": 61, "duration": 5, "velocity": 92}, {"time": 4989, "pitch": 65, "duration": 4, "velocity": 66}, {"time": 4989, "pitch": 68, "duration": 4, "velocity": 73}, {"time": 4992, "pitch": 37, "duration": 5, "velocity": 72}, {"time": 5001, "pitch": 32, "duration": 7, "velocity": 94}, {"time": 5001, "pitch": 44, "duration": 26, "velocity": 91}, {"time": 5001, "pitch": 56, "duration": 4, "velocity": 100}, {"time": 5001, "pitch": 60, "duration": 3, "velocity": 65}, {"time": 5001, "pitch": 63, "duration": 4, "velocity": 77}, {"time": 5001, "pitch": 68, "duration": 31, "velocity": 94}, {"time": 5007, "pitch": 56, "duration": 2, "velocity": 40}, {"time": 5007, "pitch": 63, "duration": 1, "velocity": 48}, {"time": 5013, "pitch": 32, "duration": 3, "velocity": 72}, {"time": 5013, "pitch": 56, "duration": 1, "velocity": 65}, {"time": 5013, "pitch": 60, "duration": 1, "velocity": 22}, {"time": 5013, "pitch": 63, "duration": 1, "velocity": 51}, {"time": 5019, "pitch": 32, "duration": 2, "velocity": 53}, {"time": 5019, "pitch": 56, "duration": 1, "velocity": 56}, {"time": 5019, "pitch": 63, "duration": 2, "velocity": 28}, {"time": 5025, "pitch": 32, "duration": 8, "velocity": 83}, {"time": 5025, "pitch": 56, "duration": 1, "velocity": 74}, {"time": 5025, "pitch": 60, "duration": 2, "velocity": 36}, {"time": 5025, "pitch": 63, "duration": 2, "velocity": 26}, {"time": 5031, "pitch": 44, "duration": 7, "velocity": 100}, {"time": 5031, "pitch": 56, "duration": 1, "velocity": 76}, {"time": 5031, "pitch": 60, "duration": 2, "velocity": 25}, {"time": 5037, "pitch": 32, "duration": 3, "velocity": 97}, {"time": 5037, "pitch": 56, "duration": 7, "velocity": 95}, {"time": 5037, "pitch": 60, "duration": 7, "velocity": 64}, {"time": 5037, "pitch": 63, "duration": 7, "velocity": 75}, {"time": 5037, "pitch": 68, "duration": 7, "velocity": 91}, {"time": 5040, "pitch": 44, "duration": 5, "velocity": 94}, {"time": 5043, "pitch": 32, "duration": 2, "velocity": 80}, {"time": 5049, "pitch": 32, "duration": 1, "velocity": 85}, {"time": 5049, "pitch": 44, "duration": 1, "velocity": 87}, {"time": 5049, "pitch": 56, "duration": 8, "velocity": 99}, {"time": 5049, "pitch": 60, "duration": 7, "velocity": 72}, {"time": 5049, "pitch": 63, "duration": 7, "velocity": 79}, {"time": 5049, "pitch": 68, "duration": 7, "velocity": 99}, {"time": 5055, "pitch": 32, "duration": 2, "velocity": 50}, {"time": 5055, "pitch": 44, "duration": 1, "velocity": 59}, {"time": 5061, "pitch": 32, "duration": 2, "velocity": 45}, {"time": 5061, "pitch": 44, "duration": 1, "velocity": 44}, {"time": 5061, "pitch": 56, "duration": 7, "velocity": 85}, {"time": 5061, "pitch": 60, "duration": 7, "velocity": 59}, {"time": 5061, "pitch": 63, "duration": 7, "velocity": 75}, {"time": 5061, "pitch": 68, "duration": 7, "velocity": 79}, {"time": 5067, "pitch": 32, "duration": 1, "velocity": 59}, {"time": 5067, "pitch": 44, "duration": 1, "velocity": 53}, {"time": 5073, "pitch": 32, "duration": 1, "velocity": 67}, {"time": 5073, "pitch": 44, "duration": 1, "velocity": 72}, {"time": 5073, "pitch": 56, "duration": 7, "velocity": 88}, {"time": 5073, "pitch": 60, "duration": 6, "velocity": 71}, {"time": 5073, "pitch": 63, "duration": 6, "velocity": 69}, {"time": 5073, "pitch": 68, "duration": 6, "velocity": 79}, {"time": 5079, "pitch": 32, "duration": 1, "velocity": 84}, {"time": 5079, "pitch": 44, "duration": 1, "velocity": 84}, {"time": 5085, "pitch": 32, "duration": 1, "velocity": 87}, {"time": 5085, "pitch": 44, "duration": 1, "velocity": 87}, {"time": 5085, "pitch": 56, "duration": 4, "velocity": 104}, {"time": 5085, "pitch": 60, "duration": 1, "velocity": 79}, {"time": 5085, "pitch": 63, "duration": 5, "velocity": 88}, {"time": 5085, "pitch": 68, "duration": 6, "velocity": 105}, {"time": 5091, "pitch": 32, "duration": 2, "velocity": 91}, {"time": 5091, "pitch": 44, "duration": 1, "velocity": 87}, {"time": 5097, "pitch": 30, "duration": 3, "velocity": 88}, {"time": 5097, "pitch": 42, "duration": 2, "velocity": 81}, {"time": 5097, "pitch": 58, "duration": 7, "velocity": 108}, {"time": 5097, "pitch": 61, "duration": 7, "velocity": 92}, {"time": 5097, "pitch": 66, "duration": 7, "velocity": 95}, {"time": 5103, "pitch": 30, "duration": 3, "velocity": 67}, {"time": 5103, "pitch": 42, "duration": 1, "velocity": 69}, {"time": 5109, "pitch": 30, "duration": 1, "velocity": 69}, {"time": 5109, "pitch": 42, "duration": 1, "velocity": 64}, {"time": 5109, "pitch": 58, "duration": 1, "velocity": 84}, {"time": 5109, "pitch": 61, "duration": 1, "velocity": 71}, {"time": 5109, "pitch": 66, "duration": 6, "velocity": 74}, {"time": 5115, "pitch": 30, "duration": 1, "velocity": 63}, {"time": 5115, "pitch": 42, "duration": 1, "velocity": 71}, {"time": 5115, "pitch": 58, "duration": 2, "velocity": 12}, {"time": 5115, "pitch": 61, "duration": 2, "velocity": 25}, {"time": 5121, "pitch": 30, "duration": 2, "velocity": 77}, {"time": 5121, "pitch": 42, "duration": 1, "velocity": 80}, {"time": 5121, "pitch": 58, "duration": 7, "velocity": 90}, {"time": 5121, "pitch": 61, "duration": 7, "velocity": 77}, {"time": 5121, "pitch": 66, "duration": 7, "velocity": 84}, {"time": 5127, "pitch": 30, "duration": 3, "velocity": 94}, {"time": 5127, "pitch": 42, "duration": 3, "velocity": 92}, {"time": 5133, "pitch": 30, "duration": 2, "velocity": 81}, {"time": 5133, "pitch": 42, "duration": 2, "velocity": 92}, {"time": 5133, "pitch": 58, "duration": 3, "velocity": 104}, {"time": 5133, "pitch": 61, "duration": 3, "velocity": 85}, {"time": 5133, "pitch": 66, "duration": 4, "velocity": 92}, {"time": 5139, "pitch": 30, "duration": 2, "velocity": 72}, {"time": 5139, "pitch": 42, "duration": 2, "velocity": 83}, {"time": 5145, "pitch": 37, "duration": 1, "velocity": 97}, {"time": 5145, "pitch": 49, "duration": 2, "velocity": 100}, {"time": 5145, "pitch": 56, "duration": 7, "velocity": 102}, {"time": 5145, "pitch": 61, "duration": 7, "velocity": 81}, {"time": 5145, "pitch": 65, "duration": 7, "velocity": 76}, {"time": 5145, "pitch": 68, "duration": 7, "velocity": 95}, {"time": 5151, "pitch": 37, "duration": 1, "velocity": 72}, {"time": 5151, "pitch": 49, "duration": 2, "velocity": 72}, {"time": 5157, "pitch": 37, "duration": 1, "velocity": 75}, {"time": 5157, "pitch": 49, "duration": 1, "velocity": 80}, {"time": 5157, "pitch": 56, "duration": 7, "velocity": 88}, {"time": 5157, "pitch": 61, "duration": 7, "velocity": 75}, {"time": 5157, "pitch": 65, "duration": 7, "velocity": 53}, {"time": 5157, "pitch": 68, "duration": 6, "velocity": 73}, {"time": 5163, "pitch": 37, "duration": 1, "velocity": 79}, {"time": 5163, "pitch": 49, "duration": 1, "velocity": 76}, {"time": 5169, "pitch": 37, "duration": 1, "velocity": 77}, {"time": 5169, "pitch": 49, "duration": 1, "velocity": 84}, {"time": 5169, "pitch": 56, "duration": 8, "velocity": 95}, {"time": 5169, "pitch": 61, "duration": 8, "velocity": 71}, {"time": 5169, "pitch": 65, "duration": 8, "velocity": 68}, {"time": 5169, "pitch": 68, "duration": 7, "velocity": 83}, {"time": 5175, "pitch": 37, "duration": 1, "velocity": 74}, {"time": 5175, "pitch": 49, "duration": 2, "velocity": 90}, {"time": 5181, "pitch": 37, "duration": 3, "velocity": 88}, {"time": 5181, "pitch": 56, "duration": 7, "velocity": 104}, {"time": 5181, "pitch": 61, "duration": 6, "velocity": 83}, {"time": 5181, "pitch": 65, "duration": 6, "velocity": 78}, {"time": 5181, "pitch": 68, "duration": 6, "velocity": 94}, {"time": 5184, "pitch": 49, "duration": 4, "velocity": 91}, {"time": 5187, "pitch": 37, "duration": 1, "velocity": 77}, {"time": 5193, "pitch": 32, "duration": 3, "velocity": 85}, {"time": 5193, "pitch": 44, "duration": 3, "velocity": 84}, {"time": 5193, "pitch": 56, "duration": 8, "velocity": 92}, {"time": 5193, "pitch": 60, "duration": 7, "velocity": 67}, {"time": 5193, "pitch": 63, "duration": 7, "velocity": 79}, {"time": 5193, "pitch": 68, "duration": 7, "velocity": 92}, {"time": 5199, "pitch": 32, "duration": 2, "velocity": 83}, {"time": 5199, "pitch": 44, "duration": 1, "velocity": 71}, {"time": 5205, "pitch": 32, "duration": 1, "velocity": 80}, {"time": 5205, "pitch": 44, "duration": 1, "velocity": 77}, {"time": 5205, "pitch": 56, "duration": 6, "velocity": 88}, {"time": 5205, "pitch": 60, "duration": 5, "velocity": 59}, {"time": 5205, "pitch": 63, "duration": 6, "velocity": 75}, {"time": 5205, "pitch": 68, "duration": 6, "velocity": 83}, {"time": 5211, "pitch": 32, "duration": 1, "velocity": 76}, {"time": 5211, "pitch": 44, "duration": 1, "velocity": 72}, {"time": 5217, "pitch": 32, "duration": 1, "velocity": 83}, {"time": 5217, "pitch": 44, "duration": 2, "velocity": 80}, {"time": 5217, "pitch": 56, "duration": 9, "velocity": 90}, {"time": 5217, "pitch": 60, "duration": 2, "velocity": 59}, {"time": 5217, "pitch": 63, "duration": 8, "velocity": 65}, {"time": 5217, "pitch": 68, "duration": 8, "velocity": 83}, {"time": 5220, "pitch": 60, "duration": 4, "velocity": 16}, {"time": 5223, "pitch": 32, "duration": 2, "velocity": 94}, {"time": 5223, "pitch": 44, "duration": 2, "velocity": 88}, {"time": 5229, "pitch": 32, "duration": 2, "velocity": 100}, {"time": 5229, "pitch": 56, "duration": 8, "velocity": 99}, {"time": 5229, "pitch": 60, "duration": 7, "velocity": 72}, {"time": 5229, "pitch": 63, "duration": 8, "velocity": 71}, {"time": 5229, "pitch": 68, "duration": 7, "velocity": 105}, {"time": 5232, "pitch": 44, "duration": 5, "velocity": 94}, {"time": 5235, "pitch": 32, "duration": 2, "velocity": 108}, {"time": 5241, "pitch": 32, "duration": 3, "velocity": 94}, {"time": 5241, "pitch": 44, "duration": 3, "velocity": 88}, {"time": 5241, "pitch": 56, "duration": 7, "velocity": 99}, {"time": 5241, "pitch": 60, "duration": 6, "velocity": 79}, {"time": 5241, "pitch": 63, "duration": 7, "velocity": 80}, {"time": 5241, "pitch": 68, "duration": 6, "velocity": 92}, {"time": 5247, "pitch": 32, "duration": 2, "velocity": 68}, {"time": 5247, "pitch": 44, "duration": 2, "velocity": 74}, {"time": 5253, "pitch": 32, "duration": 2, "velocity": 75}, {"time": 5253, "pitch": 44, "duration": 2, "velocity": 65}, {"time": 5253, "pitch": 56, "duration": 7, "velocity": 88}, {"time": 5253, "pitch": 60, "duration": 6, "velocity": 56}, {"time": 5253, "pitch": 63, "duration": 6, "velocity": 68}, {"time": 5253, "pitch": 68, "duration": 6, "velocity": 75}, {"time": 5259, "pitch": 32, "duration": 1, "velocity": 71}, {"time": 5259, "pitch": 44, "duration": 1, "velocity": 79}, {"time": 5265, "pitch": 32, "duration": 2, "velocity": 77}, {"time": 5265, "pitch": 44, "duration": 1, "velocity": 72}, {"time": 5265, "pitch": 56, "duration": 7, "velocity": 92}, {"time": 5265, "pitch": 60, "duration": 7, "velocity": 67}, {"time": 5265, "pitch": 63, "duration": 7, "velocity": 76}, {"time": 5265, "pitch": 68, "duration": 7, "velocity": 86}, {"time": 5271, "pitch": 32, "duration": 2, "velocity": 84}, {"time": 5271, "pitch": 44, "duration": 2, "velocity": 84}, {"time": 5277, "pitch": 32, "duration": 2, "velocity": 95}, {"time": 5277, "pitch": 44, "duration": 1, "velocity": 88}, {"time": 5277, "pitch": 56, "duration": 6, "velocity": 102}, {"time": 5277, "pitch": 60, "duration": 5, "velocity": 77}, {"time": 5277, "pitch": 63, "duration": 6, "velocity": 84}, {"time": 5277, "pitch": 68, "duration": 8, "velocity": 95}, {"time": 5283, "pitch": 32, "duration": 2, "velocity": 95}, {"time": 5283, "pitch": 44, "duration": 1, "velocity": 102}, {"time": 5289, "pitch": 30, "duration": 3, "velocity": 97}, {"time": 5289, "pitch": 42, "duration": 2, "velocity": 99}, {"time": 5289, "pitch": 58, "duration": 7, "velocity": 88}, {"time": 5289, "pitch": 61, "duration": 7, "velocity": 76}, {"time": 5289, "pitch": 66, "duration": 7, "velocity": 83}, {"time": 5295, "pitch": 30, "duration": 2, "velocity": 59}, {"time": 5295, "pitch": 42, "duration": 1, "velocity": 79}, {"time": 5301, "pitch": 30, "duration": 1, "velocity": 80}, {"time": 5301, "pitch": 42, "duration": 1, "velocity": 68}, {"time": 5301, "pitch": 58, "duration": 7, "velocity": 80}, {"time": 5301, "pitch": 61, "duration": 7, "velocity": 69}, {"time": 5301, "pitch": 66, "duration": 7, "velocity": 78}, {"time": 5307, "pitch": 30, "duration": 2, "velocity": 75}, {"time": 5307, "pitch": 42, "duration": 1, "velocity": 80}, {"time": 5313, "pitch": 30, "duration": 1, "velocity": 81}, {"time": 5313, "pitch": 42, "duration": 1, "velocity": 77}, {"time": 5313, "pitch": 58, "duration": 7, "velocity": 84}, {"time": 5313, "pitch": 61, "duration": 7, "velocity": 67}, {"time": 5313, "pitch": 66, "duration": 7, "velocity": 76}, {"time": 5319, "pitch": 30, "duration": 1, "velocity": 81}, {"time": 5319, "pitch": 42, "duration": 1, "velocity": 81}, {"time": 5325, "pitch": 30, "duration": 3, "velocity": 94}, {"time": 5325, "pitch": 58, "duration": 5, "velocity": 87}, {"time": 5325, "pitch": 61, "duration": 5, "velocity": 74}, {"time": 5325, "pitch": 66, "duration": 5, "velocity": 87}, {"time": 5328, "pitch": 42, "duration": 5, "velocity": 92}, {"time": 5331, "pitch": 30, "duration": 1, "velocity": 94}, {"time": 5337, "pitch": 37, "duration": 7, "velocity": 92}, {"time": 5337, "pitch": 49, "duration": 7, "velocity": 102}, {"time": 5337, "pitch": 56, "duration": 6, "velocity": 95}, {"time": 5337, "pitch": 61, "duration": 7, "velocity": 75}, {"time": 5337, "pitch": 65, "duration": 6, "velocity": 78}, {"time": 5337, "pitch": 68, "duration": 6, "velocity": 84}, {"time": 5349, "pitch": 37, "duration": 1, "velocity": 63}, {"time": 5349, "pitch": 49, "duration": 1, "velocity": 75}, {"time": 5349, "pitch": 56, "duration": 7, "velocity": 84}, {"time": 5349, "pitch": 61, "duration": 7, "velocity": 64}, {"time": 5349, "pitch": 65, "duration": 7, "velocity": 66}, {"time": 5349, "pitch": 68, "duration": 6, "velocity": 71}, {"time": 5355, "pitch": 37, "duration": 1, "velocity": 56}, {"time": 5355, "pitch": 49, "duration": 1, "velocity": 68}, {"time": 5361, "pitch": 37, "duration": 1, "velocity": 71}, {"time": 5361, "pitch": 49, "duration": 1, "velocity": 69}, {"time": 5361, "pitch": 56, "duration": 7, "velocity": 77}, {"time": 5361, "pitch": 61, "duration": 7, "velocity": 55}, {"time": 5361, "pitch": 65, "duration": 7, "velocity": 55}, {"time": 5361, "pitch": 68, "duration": 7, "velocity": 71}, {"time": 5367, "pitch": 37, "duration": 1, "velocity": 79}, {"time": 5367, "pitch": 49, "duration": 1, "velocity": 79}, {"time": 5373, "pitch": 37, "duration": 1, "velocity": 84}, {"time": 5373, "pitch": 49, "duration": 1, "velocity": 88}, {"time": 5373, "pitch": 56, "duration": 6, "velocity": 102}, {"time": 5373, "pitch": 61, "duration": 6, "velocity": 80}, {"time": 5373, "pitch": 65, "duration": 6, "velocity": 74}, {"time": 5373, "pitch": 68, "duration": 6, "velocity": 92}, {"time": 5379, "pitch": 37, "duration": 1, "velocity": 94}, {"time": 5379, "pitch": 49, "duration": 1, "velocity": 90}, {"time": 5385, "pitch": 32, "duration": 3, "velocity": 92}, {"time": 5385, "pitch": 44, "duration": 2, "velocity": 92}, {"time": 5385, "pitch": 56, "duration": 7, "velocity": 94}, {"time": 5385, "pitch": 60, "duration": 5, "velocity": 75}, {"time": 5385, "pitch": 63, "duration": 6, "velocity": 75}, {"time": 5385, "pitch": 68, "duration": 7, "velocity": 92}, {"time": 5391, "pitch": 32, "duration": 1, "velocity": 75}, {"time": 5391, "pitch": 44, "duration": 1, "velocity": 72}, {"time": 5397, "pitch": 32, "duration": 1, "velocity": 76}, {"time": 5397, "pitch": 44, "duration": 1, "velocity": 75}, {"time": 5397, "pitch": 56, "duration": 6, "velocity": 80}, {"time": 5397, "pitch": 60, "duration": 5, "velocity": 56}, {"time": 5397, "pitch": 63, "duration": 6, "velocity": 58}, {"time": 5397, "pitch": 68, "duration": 5, "velocity": 66}, {"time": 5403, "pitch": 32, "duration": 2, "velocity": 84}, {"time": 5403, "pitch": 44, "duration": 2, "velocity": 83}, {"time": 5409, "pitch": 32, "duration": 2, "velocity": 83}, {"time": 5409, "pitch": 44, "duration": 1, "velocity": 77}, {"time": 5409, "pitch": 56, "duration": 3, "velocity": 100}, {"time": 5409, "pitch": 60, "duration": 2, "velocity": 72}, {"time": 5409, "pitch": 63, "duration": 4, "velocity": 69}, {"time": 5409, "pitch": 68, "duration": 3, "velocity": 83}, {"time": 5415, "pitch": 32, "duration": 1, "velocity": 92}, {"time": 5415, "pitch": 44, "duration": 1, "velocity": 85}, {"time": 5421, "pitch": 32, "duration": 2, "velocity": 90}, {"time": 5421, "pitch": 56, "duration": 7, "velocity": 106}, {"time": 5421, "pitch": 60, "duration": 6, "velocity": 76}, {"time": 5421, "pitch": 63, "duration": 6, "velocity": 81}, {"time": 5421, "pitch": 68, "duration": 6, "velocity": 99}, {"time": 5424, "pitch": 44, "duration": 4, "velocity": 95}, {"time": 5427, "pitch": 32, "duration": 1, "velocity": 102}, {"time": 5433, "pitch": 32, "duration": 49, "velocity": 102}, {"time": 5433, "pitch": 44, "duration": 49, "velocity": 95}, {"time": 5433, "pitch": 56, "duration": 49, "velocity": 104}, {"time": 5433, "pitch": 60, "duration": 49, "velocity": 85}, {"time": 5433, "pitch": 63, "duration": 49, "velocity": 88}, {"time": 5433, "pitch": 68, "duration": 49, "velocity": 99}], "annotations": [{"time": 442, "annotation": {"number": 64, "value": 71}, "group": "control_change"}, {"time": 442, "annotation": {"number": 64, "value": 127}, "group": "control_change"}, {"time": 489, "annotation": {"number": 64, "value": 71}, "group": "control_change"}, {"time": 490, "annotation": {"number": 64, "value": 0}, "group": "control_change"}, {"time": 496, "annotation": {"number": 64, "value": 71}, "group": "control_change"}, {"time": 497, "annotation": {"number": 64, "value": 127}, "group": "control_change"}, {"time": 537, "annotation": {"number": 64, "value": 71}, "group": "control_change"}, {"time": 538, "annotation": {"number": 64, "value": 0}, "group": "control_change"}, {"time": 543, "annotation": {"number": 64, "value": 71}, "group": "control_change"}, {"time": 544, "annotation": {"number": 64, "value": 127}, "group": "control_change"}, {"time": 585, "annotation": {"number": 64, "value": 71}, "group": "control_change"}, {"time": 586, "annotation": {"number": 64, "value": 0}, "group": "control_change"}, {"time": 591, "annotation": {"number": 64, "value": 71}, "group": "control_change"}, {"time": 593, "annotation": {"number": 64, "value": 127}, "group": "control_change"}, {"time": 594, "annotation": {"number": 64, "value": 71}, "group": "control_change"}, {"time": 597, "annotation": {"number": 64, "value": 127}, "group": "control_change"}, {"time": 632, "annotation": {"number": 64, "value": 71}, "group": "control_change"}, {"time": 633, "annotation": {"number": 64, "value": 0}, "group": "control_change"}, {"time": 640, "annotation": {"number": 64, "value": 71}, "group": "control_change"}, {"time": 641, "annotation": {"number": 64, "value": 127}, "group": "control_change"}, {"time": 680, "annotation": {"number": 64, "value": 71}, "group": "control_change"}, {"time": 681, "annotation": {"number": 64, "value": 0}, "group": "control_change"}, {"time": 685, "annotation": {"number": 64, "value": 71}, "group": "control_change"}, {"time": 686, "annotation": {"number": 64, "value": 127}, "group": "control_change"}, {"time": 688, "annotation": {"number": 64, "value": 71}, "group": "control_change"}, {"time": 690, "annotation": {"number": 64, "value": 127}, "group": "control_change"}, {"time": 729, "annotation": {"number": 64, "value": 71}, "group": "control_change"}, {"time": 730, "annotation": {"number": 64, "value": 71}, "group": "control_change"}, {"time": 730, "annotation": {"number": 64, "value": 0}, "group": "control_change"}, {"time": 735, "annotation": {"number": 64, "value": 71}, "group": "control_change"}, {"time": 736, "annotation": {"number": 64, "value": 71}, "group": "control_change"}, {"time": 737, "annotation": {"number": 64, "value": 127}, "group": "control_change"}, {"time": 738, "annotation": {"number": 64, "value": 127}, "group": "control_change"}, {"time": 740, "annotation": {"number": 64, "value": 71}, "group": "control_change"}, {"time": 743, "annotation": {"number": 64, "value": 0}, "group": "control_change"}, {"time": 744, "annotation": {"number": 64, "value": 71}, "group": "control_change"}, {"time": 746, "annotation": {"number": 64, "value": 127}, "group": "control_change"}, {"time": 776, "annotation": {"number": 64, "value": 71}, "group": "control_change"}, {"time": 777, "annotation": {"number": 64, "value": 71}, "group": "control_change"}, {"time": 778, "annotation": {"number": 64, "value": 0}, "group": "control_change"}, {"time": 784, "annotation": {"number": 64, "value": 71}, "group": "control_change"}, {"time": 786, "annotation": {"number": 64, "value": 127}, "group": "control_change"}, {"time": 788, "annotation": {"number": 64, "value": 71}, "group": "control_change"}, {"time": 790, "annotation": {"number": 64, "value": 127}, "group": "control_change"}, {"time": 822, "annotation": {"number": 64, "value": 0}, "group": "control_change"}, {"time": 823, "annotation": {"number": 64, "value": 71}, "group": "control_change"}, {"time": 824, "annotation": {"number": 64, "value": 0}, "group": "control_change"}, {"time": 825, "annotation": {"number": 64, "value": 71}, "group": "control_change"}, {"time": 825, "annotation": {"number": 64, "value": 0}, "group": "control_change"}, {"time": 829, "annotation": {"number": 64, "value": 71}, "group": "control_change"}, {"time": 836, "annotation": {"number": 64, "value": 127}, "group": "control_change"}, {"time": 838, "annotation": {"number": 64, "value": 71}, "group": "control_change"}, {"time": 844, "annotation": {"number": 64, "value": 127}, "group": "control_change"}, {"time": 870, "annotation": {"number": 64, "value": 71}, "group": "control_change"}, {"time": 872, "annotation": {"number": 64, "value": 0}, "group": "control_change"}, {"time": 879, "annotation": {"number": 64, "value": 71}, "group": "control_change"}, {"time": 883, "annotation": {"number": 64, "value": 127}, "group": "control_change"}, {"time": 910, "annotation": {"number": 64, "value": 71}, "group": "control_change"}, {"time": 911, "annotation": {"number": 64, "value": 127}, "group": "control_change"}, {"time": 920, "annotation": {"number": 64, "value": 71}, "group": "control_change"}, {"time": 921, "annotation": {"number": 64, "value": 0}, "group": "control_change"}, {"time": 926, "annotation": {"number": 64, "value": 71}, "group": "control_change"}, {"time": 927, "annotation": {"number": 64, "value": 127}, "group": "control_change"}, {"time": 935, "annotation": {"number": 64, "value": 71}, "group": "control_change"}, {"time": 935, "annotation": {"number": 64, "value": 127}, "group": "control_change"}, {"time": 966, "annotation": {"number": 64, "value": 71}, "group": "control_change"}, {"time": 968, "annotation": {"number": 64, "value": 0}, "group": "control_change"}, {"time": 973, "annotation": {"number": 64, "value": 71}, "group": "control_change"}, {"time": 975, "annotation": {"number": 64, "value": 127}, "group": "control_change"}, {"time": 1014, "annotation": {"number": 64, "value": 71}, "group": "control_change"}, {"time": 1016, "annotation": {"number": 64, "value": 0}, "group": "control_change"}, {"time": 1022, "annotation": {"number": 64, "value": 71}, "group": "control_change"}, {"time": 1024, "annotation": {"number": 64, "value": 127}, "group": "control_change"}, {"time": 1063, "annotation": {"number": 64, "value": 71}, "group": "control_change"}, {"time": 1065, "annotation": {"number": 64, "value": 0}, "group": "control_change"}, {"time": 1070, "annotation": {"number": 64, "value": 71}, "group": "control_change"}, {"time": 1072, "annotation": {"number": 64, "value": 127}, "group": "control_change"}, {"time": 1102, "annotation": {"number": 64, "value": 71}, "group": "control_change"}, {"time": 1103, "annotation": {"number": 64, "value": 127}, "group": "control_change"}, {"time": 1112, "annotation": {"number": 64, "value": 71}, "group": "control_change"}, {"time": 1113, "annotation": {"number": 64, "value": 0}, "group": "control_change"}, {"time": 1119, "annotation": {"number": 64, "value": 71}, "group": "control_change"}, {"time": 1125, "annotation": {"number": 64, "value": 127}, "group": "control_change"}, {"time": 1149, "annotation": {"number": 64, "value": 71}, "group": "control_change"}, {"time": 1150, "annotation": {"number": 64, "value": 127}, "group": "control_change"}, {"time": 1158, "annotation": {"number": 64, "value": 71}, "group": "control_change"}, {"time": 1160, "annotation": {"number": 64, "value": 0}, "group": "control_change"}, {"time": 1167, "annotation": {"number": 64, "value": 71}, "group": "control_change"}, {"time": 1169, "annotation": {"number": 64, "value": 127}, "group": "control_change"}, {"time": 1206, "annotation": {"number": 64, "value": 71}, "group": "control_change"}, {"time": 1208, "annotation": {"number": 64, "value": 0}, "group": "control_change"}, {"time": 1215, "annotation": {"number": 64, "value": 71}, "group": "control_change"}, {"time": 1217, "annotation": {"number": 64, "value": 127}, "group": "control_change"}, {"time": 1218, "annotation": {"number": 64, "value": 71}, "group": "control_change"}, {"time": 1221, "annotation": {"number": 64, "value": 127}, "group": "control_change"}, {"time": 1239, "annotation": {"number": 64, "value": 71}, "group": "control_change"}, {"time": 1240, "annotation": {"number": 64, "value": 127}, "group": "control_change"}, {"time": 1255, "annotation": {"number": 64, "value": 71}, "group": "control_change"}, {"time": 1257, "annotation": {"number": 64, "value": 0}, "group": "control_change"}, {"time": 1263, "annotation": {"number": 64, "value": 71}, "group": "control_change"}, {"time": 1264, "annotation": {"number": 64, "value": 127}, "group": "control_change"}, {"time": 1303, "annotation": {"number": 64, "value": 71}, "group": "control_change"}, {"time": 1305, "annotation": {"number": 64, "value": 0}, "group": "control_change"}, {"time": 1311, "annotation": {"number": 64, "value": 71}, "group": "control_change"}, {"time": 1312, "annotation": {"number": 64, "value": 127}, "group": "control_change"}, {"time": 1352, "annotation": {"number": 64, "value": 71}, "group": "control_change"}, {"time": 1353, "annotation": {"number": 64, "value": 0}, "group": "control_change"}, {"time": 1359, "annotation": {"number": 64, "value": 71}, "group": "control_change"}, {"time": 1361, "annotation": {"number": 64, "value": 127}, "group": "control_change"}, {"time": 1400, "annotation": {"number": 64, "value": 0}, "group": "control_change"}, {"time": 1401, "annotation": {"number": 64, "value": 71}, "group": "control_change"}, {"time": 1401, "annotation": {"number": 64, "value": 0}, "group": "control_change"}, {"time": 1407, "annotation": {"number": 64, "value": 71}, "group": "control_change"}, {"time": 1409, "annotation": {"number": 64, "value": 127}, "group": "control_change"}, {"time": 1437, "annotation": {"number": 64, "value": 71}, "group": "control_change"}, {"time": 1438, "annotation": {"number": 64, "value": 127}, "group": "control_change"}, {"time": 1447, "annotation": {"number": 64, "value": 71}, "group": "control_change"}, {"time": 1449, "annotation": {"number": 64, "value": 0}, "group": "control_change"}, {"time": 1454, "annotation": {"number": 64, "value": 71}, "group": "control_change"}, {"time": 1455, "annotation": {"number": 64, "value": 127}, "group": "control_change"}, {"time": 1496, "annotation": {"number": 64, "value": 71}, "group": "control_change"}, {"time": 1497, "annotation": {"number": 64, "value": 0}, "group": "control_change"}, {"time": 1502, "annotation": {"number": 64, "value": 71}, "group": "control_change"}, {"time": 1504, "annotation": {"number": 64, "value": 127}, "group": "control_change"}, {"time": 1544, "annotation": {"number": 64, "value": 71}, "group": "control_change"}, {"time": 1545, "annotation": {"number": 64, "value": 0}, "group": "control_change"}, {"time": 1551, "annotation": {"number": 64, "value": 71}, "group": "control_change"}, {"time": 1553, "annotation": {"number": 64, "value": 127}, "group": "control_change"}, {"time": 1593, "annotation": {"number": 64, "value": 71}, "group": "control_change"}, {"time": 1594, "annotation": {"number": 64, "value": 0}, "group": "control_change"}, {"time": 1601, "annotation": {"number": 64, "value": 71}, "group": "control_change"}, {"time": 1602, "annotation": {"number": 64, "value": 127}, "group": "control_change"}, {"time": 1638, "annotation": {"number": 64, "value": 0}, "group": "control_change"}, {"time": 1790, "annotation": {"number": 64, "value": 71}, "group": "control_change"}, {"time": 1791, "annotation": {"number": 64, "value": 127}, "group": "control_change"}, {"time": 1809, "annotation": {"number": 64, "value": 71}, "group": "control_change"}, {"time": 1811, "annotation": {"number": 64, "value": 127}, "group": "control_change"}, {"time": 1811, "annotation": {"number": 64, "value": 71}, "group": "control_change"}, {"time": 1814, "annotation": {"number": 64, "value": 127}, "group": "control_change"}, {"time": 1824, "annotation": {"number": 64, "value": 71}, "group": "control_change"}, {"time": 1826, "annotation": {"number": 64, "value": 127}, "group": "control_change"}, {"time": 1832, "annotation": {"number": 64, "value": 71}, "group": "control_change"}, {"time": 1834, "annotation": {"number": 64, "value": 0}, "group": "control_change"}, {"time": 1839, "annotation": {"number": 64, "value": 71}, "group": "control_change"}, {"time": 1841, "annotation": {"number": 64, "value": 127}, "group": "control_change"}, {"time": 1880, "annotation": {"number": 64, "value": 71}, "group": "control_change"}, {"time": 1881, "annotation": {"number": 64, "value": 0}, "group": "control_change"}, {"time": 1886, "annotation": {"number": 64, "value": 71}, "group": "control_change"}, {"time": 1888, "annotation": {"number": 64, "value": 127}, "group": "control_change"}, {"time": 1928, "annotation": {"number": 64, "value": 71}, "group": "control_change"}, {"time": 1929, "annotation": {"number": 64, "value": 0}, "group": "control_change"}, {"time": 1935, "annotation": {"number": 64, "value": 71}, "group": "control_change"}, {"time": 1936, "annotation": {"number": 64, "value": 127}, "group": "control_change"}, {"time": 1975, "annotation": {"number": 64, "value": 71}, "group": "control_change"}, {"time": 1976, "annotation": {"number": 64, "value": 0}, "group": "control_change"}, {"time": 1981, "annotation": {"number": 64, "value": 71}, "group": "control_change"}, {"time": 1982, "annotation": {"number": 64, "value": 127}, "group": "control_change"}, {"time": 2024, "annotation": {"number": 64, "value": 71}, "group": "control_change"}, {"time": 2025, "annotation": {"number": 64, "value": 0}, "group": "control_change"}, {"time": 2029, "annotation": {"number": 64, "value": 71}, "group": "control_change"}, {"time": 2030, "annotation": {"number": 64, "value": 127}, "group": "control_change"}, {"time": 2074, "annotation": {"number": 64, "value": 71}, "group": "control_change"}, {"time": 2074, "annotation": {"number": 64, "value": 0}, "group": "control_change"}, {"time": 2078, "annotation": {"number": 64, "value": 71}, "group": "control_change"}, {"time": 2079, "annotation": {"number": 64, "value": 127}, "group": "control_change"}, {"time": 2121, "annotation": {"number": 64, "value": 71}, "group": "control_change"}, {"time": 2122, "annotation": {"number": 64, "value": 0}, "group": "control_change"}, {"time": 2127, "annotation": {"number": 64, "value": 71}, "group": "control_change"}, {"time": 2128, "annotation": {"number": 64, "value": 127}, "group": "control_change"}, {"time": 2166, "annotation": {"number": 64, "value": 0}, "group": "control_change"}, {"time": 2361, "annotation": {"number": 64, "value": 71}, "group": "control_change"}, {"time": 2362, "annotation": {"number": 64, "value": 127}, "group": "control_change"}, {"time": 2408, "annotation": {"number": 64, "value": 71}, "group": "control_change"}, {"time": 2410, "annotation": {"number": 64, "value": 0}, "group": "control_change"}, {"time": 2414, "annotation": {"number": 64, "value": 71}, "group": "control_change"}, {"time": 2416, "annotation": {"number": 64, "value": 127}, "group": "control_change"}, {"time": 2457, "annotation": {"number": 64, "value": 71}, "group": "control_change"}, {"time": 2458, "annotation": {"number": 64, "value": 0}, "group": "control_change"}, {"time": 2462, "annotation": {"number": 64, "value": 71}, "group": "control_change"}, {"time": 2463, "annotation": {"number": 64, "value": 127}, "group": "control_change"}, {"time": 2504, "annotation": {"number": 64, "value": 71}, "group": "control_change"}, {"time": 2505, "annotation": {"number": 64, "value": 0}, "group": "control_change"}, {"time": 2510, "annotation": {"number": 64, "value": 71}, "group": "control_change"}, {"time": 2511, "annotation": {"number": 64, "value": 127}, "group": "control_change"}, {"time": 2552, "annotation": {"number": 64, "value": 71}, "group": "control_change"}, {"time": 2553, "annotation": {"number": 64, "value": 0}, "group": "control_change"}, {"time": 2557, "annotation": {"number": 64, "value": 71}, "group": "control_change"}, {"time": 2559, "annotation": {"number": 64, "value": 127}, "group": "control_change"}, {"time": 2600, "annotation": {"number": 64, "value": 71}, "group": "control_change"}, {"time": 2601, "annotation": {"number": 64, "value": 0}, "group": "control_change"}, {"time": 2606, "annotation": {"number": 64, "value": 71}, "group": "control_change"}, {"time": 2607, "annotation": {"number": 64, "value": 127}, "group": "control_change"}, {"time": 2649, "annotation": {"number": 64, "value": 71}, "group": "control_change"}, {"time": 2650, "annotation": {"number": 64, "value": 0}, "group": "control_change"}, {"time": 2653, "annotation": {"number": 64, "value": 71}, "group": "control_change"}, {"time": 2654, "annotation": {"number": 64, "value": 127}, "group": "control_change"}, {"time": 2697, "annotation": {"number": 64, "value": 71}, "group": "control_change"}, {"time": 2698, "annotation": {"number": 64, "value": 0}, "group": "control_change"}, {"time": 2702, "annotation": {"number": 64, "value": 71}, "group": "control_change"}, {"time": 2704, "annotation": {"number": 64, "value": 127}, "group": "control_change"}, {"time": 2745, "annotation": {"number": 64, "value": 71}, "group": "control_change"}, {"time": 2745, "annotation": {"number": 64, "value": 0}, "group": "control_change"}, {"time": 2755, "annotation": {"number": 64, "value": 71}, "group": "control_change"}, {"time": 2756, "annotation": {"number": 64, "value": 127}, "group": "control_change"}, {"time": 2792, "annotation": {"number": 64, "value": 71}, "group": "control_change"}, {"time": 2793, "annotation": {"number": 64, "value": 0}, "group": "control_change"}, {"time": 2798, "annotation": {"number": 64, "value": 71}, "group": "control_change"}, {"time": 2799, "annotation": {"number": 64, "value": 127}, "group": "control_change"}, {"time": 2841, "annotation": {"number": 64, "value": 71}, "group": "control_change"}, {"time": 2841, "annotation": {"number": 64, "value": 0}, "group": "control_change"}, {"time": 2846, "annotation": {"number": 64, "value": 71}, "group": "control_change"}, {"time": 2846, "annotation": {"number": 64, "value": 127}, "group": "control_change"}, {"time": 2889, "annotation": {"number": 64, "value": 71}, "group": "control_change"}, {"time": 2889, "annotation": {"number": 64, "value": 0}, "group": "control_change"}, {"time": 2894, "annotation": {"number": 64, "value": 71}, "group": "control_change"}, {"time": 2894, "annotation": {"number": 64, "value": 127}, "group": "control_change"}, {"time": 2936, "annotation": {"number": 64, "value": 71}, "group": "control_change"}, {"time": 2937, "annotation": {"number": 64, "value": 0}, "group": "control_change"}, {"time": 3130, "annotation": {"number": 64, "value": 71}, "group": "control_change"}, {"time": 3130, "annotation": {"number": 64, "value": 127}, "group": "control_change"}, {"time": 3177, "annotation": {"number": 64, "value": 71}, "group": "control_change"}, {"time": 3178, "annotation": {"number": 64, "value": 0}, "group": "control_change"}, {"time": 3183, "annotation": {"number": 64, "value": 71}, "group": "control_change"}, {"time": 3184, "annotation": {"number": 64, "value": 127}, "group": "control_change"}, {"time": 3225, "annotation": {"number": 64, "value": 71}, "group": "control_change"}, {"time": 3226, "annotation": {"number": 64, "value": 0}, "group": "control_change"}, {"time": 3230, "annotation": {"number": 64, "value": 71}, "group": "control_change"}, {"time": 3232, "annotation": {"number": 64, "value": 127}, "group": "control_change"}, {"time": 3273, "annotation": {"number": 64, "value": 71}, "group": "control_change"}, {"time": 3274, "annotation": {"number": 64, "value": 0}, "group": "control_change"}, {"time": 3278, "annotation": {"number": 64, "value": 71}, "group": "control_change"}, {"time": 3280, "annotation": {"number": 64, "value": 127}, "group": "control_change"}, {"time": 3320, "annotation": {"number": 64, "value": 71}, "group": "control_change"}, {"time": 3322, "annotation": {"number": 64, "value": 0}, "group": "control_change"}, {"time": 3326, "annotation": {"number": 64, "value": 71}, "group": "control_change"}, {"time": 3327, "annotation": {"number": 64, "value": 127}, "group": "control_change"}, {"time": 3368, "annotation": {"number": 64, "value": 71}, "group": "control_change"}, {"time": 3370, "annotation": {"number": 64, "value": 0}, "group": "control_change"}, {"time": 3374, "annotation": {"number": 64, "value": 71}, "group": "control_change"}, {"time": 3376, "annotation": {"number": 64, "value": 127}, "group": "control_change"}, {"time": 3417, "annotation": {"number": 64, "value": 71}, "group": "control_change"}, {"time": 3418, "annotation": {"number": 64, "value": 0}, "group": "control_change"}, {"time": 3422, "annotation": {"number": 64, "value": 71}, "group": "control_change"}, {"time": 3423, "annotation": {"number": 64, "value": 127}, "group": "control_change"}, {"time": 3465, "annotation": {"number": 64, "value": 71}, "group": "control_change"}, {"time": 3466, "annotation": {"number": 64, "value": 0}, "group": "control_change"}, {"time": 3471, "annotation": {"number": 64, "value": 71}, "group": "control_change"}, {"time": 3472, "annotation": {"number": 64, "value": 127}, "group": "control_change"}, {"time": 3514, "annotation": {"number": 64, "value": 71}, "group": "control_change"}, {"time": 3514, "annotation": {"number": 64, "value": 0}, "group": "control_change"}, {"time": 3523, "annotation": {"number": 64, "value": 71}, "group": "control_change"}, {"time": 3524, "annotation": {"number": 64, "value": 127}, "group": "control_change"}, {"time": 3561, "annotation": {"number": 64, "value": 71}, "group": "control_change"}, {"time": 3561, "annotation": {"number": 64, "value": 0}, "group": "control_change"}, {"time": 3567, "annotation": {"number": 64, "value": 71}, "group": "control_change"}, {"time": 3567, "annotation": {"number": 64, "value": 127}, "group": "control_change"}, {"time": 3609, "annotation": {"number": 64, "value": 71}, "group": "control_change"}, {"time": 3609, "annotation": {"number": 64, "value": 0}, "group": "control_change"}, {"time": 3614, "annotation": {"number": 64, "value": 71}, "group": "control_change"}, {"time": 3615, "annotation": {"number": 64, "value": 127}, "group": "control_change"}, {"time": 3657, "annotation": {"number": 64, "value": 71}, "group": "control_change"}, {"time": 3658, "annotation": {"number": 64, "value": 0}, "group": "control_change"}, {"time": 3662, "annotation": {"number": 64, "value": 71}, "group": "control_change"}, {"time": 3663, "annotation": {"number": 64, "value": 127}, "group": "control_change"}, {"time": 3705, "annotation": {"number": 64, "value": 71}, "group": "control_change"}, {"time": 3705, "annotation": {"number": 64, "value": 0}, "group": "control_change"}, {"time": 3707, "annotation": {"number": 64, "value": 71}, "group": "control_change"}, {"time": 3707, "annotation": {"number": 64, "value": 127}, "group": "control_change"}, {"time": 3752, "annotation": {"number": 64, "value": 71}, "group": "control_change"}, {"time": 3753, "annotation": {"number": 64, "value": 0}, "group": "control_change"}, {"time": 3757, "annotation": {"number": 64, "value": 71}, "group": "control_change"}, {"time": 3758, "annotation": {"number": 64, "value": 127}, "group": "control_change"}, {"time": 3801, "annotation": {"number": 64, "value": 71}, "group": "control_change"}, {"time": 3802, "annotation": {"number": 64, "value": 0}, "group": "control_change"}, {"time": 3806, "annotation": {"number": 64, "value": 71}, "group": "control_change"}, {"time": 3807, "annotation": {"number": 64, "value": 127}, "group": "control_change"}, {"time": 3847, "annotation": {"number": 64, "value": 71}, "group": "control_change"}, {"time": 3848, "annotation": {"number": 64, "value": 0}, "group": "control_change"}, {"time": 3852, "annotation": {"number": 64, "value": 71}, "group": "control_change"}, {"time": 3853, "annotation": {"number": 64, "value": 127}, "group": "control_change"}, {"time": 3897, "annotation": {"number": 64, "value": 71}, "group": "control_change"}, {"time": 3897, "annotation": {"number": 64, "value": 0}, "group": "control_change"}, {"time": 3922, "annotation": {"number": 64, "value": 71}, "group": "control_change"}, {"time": 3922, "annotation": {"number": 64, "value": 127}, "group": "control_change"}, {"time": 3943, "annotation": {"number": 64, "value": 71}, "group": "control_change"}, {"time": 3944, "annotation": {"number": 64, "value": 0}, "group": "control_change"}, {"time": 4282, "annotation": {"number": 64, "value": 71}, "group": "control_change"}, {"time": 4282, "annotation": {"number": 64, "value": 127}, "group": "control_change"}, {"time": 4328, "annotation": {"number": 64, "value": 71}, "group": "control_change"}, {"time": 4329, "annotation": {"number": 64, "value": 0}, "group": "control_change"}, {"time": 4333, "annotation": {"number": 64, "value": 71}, "group": "control_change"}, {"time": 4333, "annotation": {"number": 64, "value": 127}, "group": "control_change"}, {"time": 4377, "annotation": {"number": 64, "value": 71}, "group": "control_change"}, {"time": 4377, "annotation": {"number": 64, "value": 0}, "group": "control_change"}, {"time": 4381, "annotation": {"number": 64, "value": 71}, "group": "control_change"}, {"time": 4381, "annotation": {"number": 64, "value": 127}, "group": "control_change"}, {"time": 4424, "annotation": {"number": 64, "value": 71}, "group": "control_change"}, {"time": 4425, "annotation": {"number": 64, "value": 0}, "group": "control_change"}, {"time": 4428, "annotation": {"number": 64, "value": 71}, "group": "control_change"}, {"time": 4429, "annotation": {"number": 64, "value": 127}, "group": "control_change"}, {"time": 4472, "annotation": {"number": 64, "value": 71}, "group": "control_change"}, {"time": 4472, "annotation": {"number": 64, "value": 0}, "group": "control_change"}, {"time": 4476, "annotation": {"number": 64, "value": 71}, "group": "control_change"}, {"time": 4476, "annotation": {"number": 64, "value": 127}, "group": "control_change"}, {"time": 4480, "annotation": {"number": 64, "value": 71}, "group": "control_change"}, {"time": 4481, "annotation": {"number": 64, "value": 127}, "group": "control_change"}, {"time": 4519, "annotation": {"number": 64, "value": 71}, "group": "control_change"}, {"time": 4520, "annotation": {"number": 64, "value": 0}, "group": "control_change"}, {"time": 4523, "annotation": {"number": 64, "value": 71}, "group": "control_change"}, {"time": 4524, "annotation": {"number": 64, "value": 127}, "group": "control_change"}, {"time": 4528, "annotation": {"number": 64, "value": 71}, "group": "control_change"}, {"time": 4529, "annotation": {"number": 64, "value": 127}, "group": "control_change"}, {"time": 4569, "annotation": {"number": 64, "value": 71}, "group": "control_change"}, {"time": 4569, "annotation": {"number": 64, "value": 0}, "group": "control_change"}, {"time": 4573, "annotation": {"number": 64, "value": 71}, "group": "control_change"}, {"time": 4573, "annotation": {"number": 64, "value": 127}, "group": "control_change"}, {"time": 4574, "annotation": {"number": 64, "value": 71}, "group": "control_change"}, {"time": 4577, "annotation": {"number": 64, "value": 0}, "group": "control_change"}, {"time": 4666, "annotation": {"number": 64, "value": 71}, "group": "control_change"}, {"time": 4666, "annotation": {"number": 64, "value": 127}, "group": "control_change"}, {"time": 4713, "annotation": {"number": 64, "value": 71}, "group": "control_change"}, {"time": 4713, "annotation": {"number": 64, "value": 0}, "group": "control_change"}, {"time": 4717, "annotation": {"number": 64, "value": 71}, "group": "control_change"}, {"time": 4718, "annotation": {"number": 64, "value": 127}, "group": "control_change"}, {"time": 4760, "annotation": {"number": 64, "value": 71}, "group": "control_change"}, {"time": 4761, "annotation": {"number": 64, "value": 0}, "group": "control_change"}, {"time": 4764, "annotation": {"number": 64, "value": 71}, "group": "control_change"}, {"time": 4765, "annotation": {"number": 64, "value": 127}, "group": "control_change"}, {"time": 4807, "annotation": {"number": 64, "value": 71}, "group": "control_change"}, {"time": 4808, "annotation": {"number": 64, "value": 0}, "group": "control_change"}, {"time": 4812, "annotation": {"number": 64, "value": 71}, "group": "control_change"}, {"time": 4813, "annotation": {"number": 64, "value": 127}, "group": "control_change"}, {"time": 4856, "annotation": {"number": 64, "value": 71}, "group": "control_change"}, {"time": 4857, "annotation": {"number": 64, "value": 0}, "group": "control_change"}, {"time": 4860, "annotation": {"number": 64, "value": 71}, "group": "control_change"}, {"time": 4861, "annotation": {"number": 64, "value": 127}, "group": "control_change"}, {"time": 4903, "annotation": {"number": 64, "value": 71}, "group": "control_change"}, {"time": 4904, "annotation": {"number": 64, "value": 0}, "group": "control_change"}, {"time": 4908, "annotation": {"number": 64, "value": 71}, "group": "control_change"}, {"time": 4909, "annotation": {"number": 64, "value": 127}, "group": "control_change"}, {"time": 4952, "annotation": {"number": 64, "value": 71}, "group": "control_change"}, {"time": 4953, "annotation": {"number": 64, "value": 0}, "group": "control_change"}, {"time": 4956, "annotation": {"number": 64, "value": 71}, "group": "control_change"}, {"time": 4957, "annotation": {"number": 64, "value": 127}, "group": "control_change"}, {"time": 5001, "annotation": {"number": 64, "value": 71}, "group": "control_change"}, {"time": 5002, "annotation": {"number": 64, "value": 0}, "group": "control_change"}, {"time": 5005, "annotation": {"number": 64, "value": 71}, "group": "control_change"}, {"time": 5006, "annotation": {"number": 64, "value": 127}, "group": "control_change"}, {"time": 5048, "annotation": {"number": 64, "value": 71}, "group": "control_change"}, {"time": 5049, "annotation": {"number": 64, "value": 0}, "group": "control_change"}, {"time": 5050, "annotation": {"number": 64, "value": 71}, "group": "control_change"}, {"time": 5050, "annotation": {"number": 64, "value": 127}, "group": "control_change"}, {"time": 5096, "annotation": {"number": 64, "value": 71}, "group": "control_change"}, {"time": 5097, "annotation": {"number": 64, "value": 0}, "group": "control_change"}, {"time": 5101, "annotation": {"number": 64, "value": 71}, "group": "control_change"}, {"time": 5101, "annotation": {"number": 64, "value": 127}, "group": "control_change"}, {"time": 5144, "annotation": {"number": 64, "value": 71}, "group": "control_change"}, {"time": 5145, "annotation": {"number": 64, "value": 0}, "group": "control_change"}, {"time": 5148, "annotation": {"number": 64, "value": 71}, "group": "control_change"}, {"time": 5149, "annotation": {"number": 64, "value": 127}, "group": "control_change"}, {"time": 5192, "annotation": {"number": 64, "value": 71}, "group": "control_change"}, {"time": 5192, "annotation": {"number": 64, "value": 0}, "group": "control_change"}, {"time": 5197, "annotation": {"number": 64, "value": 71}, "group": "control_change"}, {"time": 5197, "annotation": {"number": 64, "value": 127}, "group": "control_change"}, {"time": 5228, "annotation": {"number": 64, "value": 71}, "group": "control_change"}, {"time": 5230, "annotation": {"number": 64, "value": 127}, "group": "control_change"}, {"time": 5241, "annotation": {"number": 64, "value": 71}, "group": "control_change"}, {"time": 5241, "annotation": {"number": 64, "value": 0}, "group": "control_change"}, {"time": 5245, "annotation": {"number": 64, "value": 71}, "group": "control_change"}, {"time": 5245, "annotation": {"number": 64, "value": 127}, "group": "control_change"}, {"time": 5287, "annotation": {"number": 64, "value": 71}, "group": "control_change"}, {"time": 5288, "annotation": {"number": 64, "value": 0}, "group": "control_change"}, {"time": 5292, "annotation": {"number": 64, "value": 71}, "group": "control_change"}, {"time": 5292, "annotation": {"number": 64, "value": 127}, "group": "control_change"}, {"time": 5336, "annotation": {"number": 64, "value": 71}, "group": "control_change"}, {"time": 5337, "annotation": {"number": 64, "value": 0}, "group": "control_change"}, {"time": 5340, "annotation": {"number": 64, "value": 71}, "group": "control_change"}, {"time": 5341, "annotation": {"number": 64, "value": 127}, "group": "control_change"}, {"time": 5384, "annotation": {"number": 64, "value": 71}, "group": "control_change"}, {"time": 5385, "annotation": {"number": 64, "value": 0}, "group": "control_change"}, {"time": 5388, "annotation": {"number": 64, "value": 71}, "group": "control_change"}, {"time": 5389, "annotation": {"number": 64, "value": 127}, "group": "control_change"}, {"time": 5432, "annotation": {"number": 64, "value": 71}, "group": "control_change"}, {"time": 5433, "annotation": {"number": 64, "value": 0}, "group": "control_change"}]}]}