{"metadata": {"schema_version": "0.2", "title": "None", "source_filename": "070.mid", "source_format": "midi"}, "resolution": 12, "tempos": [{"time": 0, "qpm": 61.99999586666694}], "key_signatures": [{"time": 0, "root": 0, "mode": "major"}], "time_signatures": [{"time": 0, "numerator": 4, "denominator": 4}, {"time": 0, "numerator": 1, "denominator": 4}], "tracks": [{"program": 0, "is_drum": false, "name": "MELODY", "notes": [{"time": 252, "pitch": 68, "duration": 3, "velocity": 84}, {"time": 255, "pitch": 70, "duration": 3, "velocity": 73}, {"time": 258, "pitch": 70, "duration": 3, "velocity": 73}, {"time": 261, "pitch": 68, "duration": 3, "velocity": 65}, {"time": 264, "pitch": 70, "duration": 3, "velocity": 74}, {"time": 267, "pitch": 70, "duration": 6, "velocity": 84}, {"time": 273, "pitch": 61, "duration": 3, "velocity": 60}, {"time": 276, "pitch": 63, "duration": 3, "velocity": 60}, {"time": 279, "pitch": 65, "duration": 3, "velocity": 64}, {"time": 282, "pitch": 65, "duration": 3, "velocity": 61}, {"time": 285, "pitch": 65, "duration": 12, "velocity": 69}, {"time": 297, "pitch": 68, "duration": 6, "velocity": 94}, {"time": 303, "pitch": 70, "duration": 3, "velocity": 78}, {"time": 306, "pitch": 70, "duration": 3, "velocity": 70}, {"time": 309, "pitch": 68, "duration": 3, "velocity": 73}, {"time": 312, "pitch": 73, "duration": 3, "velocity": 89}, {"time": 315, "pitch": 70, "duration": 6, "velocity": 84}, {"time": 321, "pitch": 61, "duration": 3, "velocity": 63}, {"time": 324, "pitch": 63, "duration": 3, "velocity": 66}, {"time": 327, "pitch": 65, "duration": 3, "velocity": 68}, {"time": 330, "pitch": 68, "duration": 3, "velocity": 73}, {"time": 333, "pitch": 65, "duration": 12, "velocity": 75}, {"time": 345, "pitch": 68, "duration": 3, "velocity": 70}, {"time": 348, "pitch": 68, "duration": 3, "velocity": 84}, {"time": 351, "pitch": 70, "duration": 3, "velocity": 84}, {"time": 354, "pitch": 70, "duration": 3, "velocity": 84}, {"time": 357, "pitch": 68, "duration": 3, "velocity": 84}, {"time": 360, "pitch": 70, "duration": 3, "velocity": 84}, {"time": 363, "pitch": 70, "duration": 6, "velocity": 84}, {"time": 369, "pitch": 61, "duration": 3, "velocity": 84}, {"time": 372, "pitch": 63, "duration": 3, "velocity": 84}, {"time": 375, "pitch": 65, "duration": 3, "velocity": 84}, {"time": 378, "pitch": 65, "duration": 3, "velocity": 84}, {"time": 381, "pitch": 65, "duration": 9, "velocity": 84}, {"time": 390, "pitch": 68, "duration": 12, "velocity": 84}, {"time": 402, "pitch": 61, "duration": 6, "velocity": 84}, {"time": 408, "pitch": 63, "duration": 36, "velocity": 84}, {"time": 444, "pitch": 68, "duration": 3, "velocity": 84}, {"time": 447, "pitch": 70, "duration": 3, "velocity": 84}, {"time": 450, "pitch": 70, "duration": 3, "velocity": 84}, {"time": 453, "pitch": 68, "duration": 3, "velocity": 84}, {"time": 456, "pitch": 70, "duration": 3, "velocity": 84}, {"time": 459, "pitch": 70, "duration": 6, "velocity": 84}, {"time": 465, "pitch": 61, "duration": 3, "velocity": 84}, {"time": 468, "pitch": 63, "duration": 3, "velocity": 85}, {"time": 471, "pitch": 65, "duration": 3, "velocity": 85}, {"time": 474, "pitch": 65, "duration": 3, "velocity": 85}, {"time": 477, "pitch": 65, "duration": 12, "velocity": 85}, {"time": 489, "pitch": 68, "duration": 6, "velocity": 85}, {"time": 495, "pitch": 70, "duration": 3, "velocity": 85}, {"time": 498, "pitch": 70, "duration": 3, "velocity": 85}, {"time": 501, "pitch": 68, "duration": 3, "velocity": 85}, {"time": 504, "pitch": 73, "duration": 3, "velocity": 85}, {"time": 507, "pitch": 70, "duration": 6, "velocity": 85}, {"time": 513, "pitch": 61, "duration": 3, "velocity": 85}, {"time": 516, "pitch": 63, "duration": 3, "velocity": 85}, {"time": 519, "pitch": 65, "duration": 3, "velocity": 85}, {"time": 522, "pitch": 68, "duration": 3, "velocity": 85}, {"time": 525, "pitch": 65, "duration": 12, "velocity": 85}, {"time": 537, "pitch": 68, "duration": 3, "velocity": 88}, {"time": 540, "pitch": 68, "duration": 3, "velocity": 89}, {"time": 543, "pitch": 70, "duration": 3, "velocity": 89}, {"time": 546, "pitch": 70, "duration": 3, "velocity": 90}, {"time": 549, "pitch": 68, "duration": 3, "velocity": 90}, {"time": 552, "pitch": 70, "duration": 3, "velocity": 92}, {"time": 555, "pitch": 70, "duration": 6, "velocity": 90}, {"time": 561, "pitch": 61, "duration": 3, "velocity": 92}, {"time": 564, "pitch": 63, "duration": 3, "velocity": 93}, {"time": 567, "pitch": 65, "duration": 3, "velocity": 93}, {"time": 570, "pitch": 65, "duration": 3, "velocity": 95}, {"time": 573, "pitch": 65, "duration": 7, "velocity": 92}, {"time": 580, "pitch": 68, "duration": 8, "velocity": 95}, {"time": 588, "pitch": 68, "duration": 3, "velocity": 95}, {"time": 591, "pitch": 66, "duration": 3, "velocity": 96}, {"time": 594, "pitch": 66, "duration": 3, "velocity": 97}, {"time": 597, "pitch": 65, "duration": 3, "velocity": 95}, {"time": 600, "pitch": 66, "duration": 3, "velocity": 96}, {"time": 603, "pitch": 65, "duration": 3, "velocity": 97}, {"time": 606, "pitch": 66, "duration": 9, "velocity": 99}, {"time": 615, "pitch": 68, "duration": 3, "velocity": 97}, {"time": 618, "pitch": 66, "duration": 3, "velocity": 98}, {"time": 621, "pitch": 65, "duration": 4, "velocity": 98}, {"time": 624, "pitch": 66, "duration": 3, "velocity": 99}, {"time": 627, "pitch": 65, "duration": 3, "velocity": 99}, {"time": 630, "pitch": 63, "duration": 3, "velocity": 100}, {"time": 633, "pitch": 61, "duration": 3, "velocity": 99}, {"time": 636, "pitch": 65, "duration": 6, "velocity": 99}, {"time": 642, "pitch": 65, "duration": 6, "velocity": 100}, {"time": 648, "pitch": 65, "duration": 6, "velocity": 101}, {"time": 654, "pitch": 65, "duration": 6, "velocity": 101}, {"time": 660, "pitch": 65, "duration": 18, "velocity": 101}, {"time": 678, "pitch": 73, "duration": 3, "velocity": 102}, {"time": 681, "pitch": 75, "duration": 3, "velocity": 102}, {"time": 684, "pitch": 77, "duration": 3, "velocity": 101}, {"time": 687, "pitch": 75, "duration": 3, "velocity": 101}, {"time": 690, "pitch": 77, "duration": 3, "velocity": 100}, {"time": 693, "pitch": 75, "duration": 3, "velocity": 102}, {"time": 696, "pitch": 77, "duration": 3, "velocity": 101}, {"time": 699, "pitch": 80, "duration": 3, "velocity": 100}, {"time": 702, "pitch": 77, "duration": 9, "velocity": 100}, {"time": 711, "pitch": 75, "duration": 3, "velocity": 102}, {"time": 714, "pitch": 80, "duration": 3, "velocity": 101}, {"time": 717, "pitch": 77, "duration": 9, "velocity": 101}, {"time": 726, "pitch": 73, "duration": 3, "velocity": 100}, {"time": 729, "pitch": 75, "duration": 3, "velocity": 100}, {"time": 732, "pitch": 75, "duration": 6, "velocity": 100}, {"time": 738, "pitch": 75, "duration": 6, "velocity": 102}, {"time": 744, "pitch": 75, "duration": 6, "velocity": 102}, {"time": 750, "pitch": 73, "duration": 3, "velocity": 101}, {"time": 753, "pitch": 75, "duration": 18, "velocity": 101}, {"time": 771, "pitch": 70, "duration": 3, "velocity": 100}, {"time": 774, "pitch": 70, "duration": 3, "velocity": 100}, {"time": 777, "pitch": 72, "duration": 3, "velocity": 100}, {"time": 780, "pitch": 73, "duration": 3, "velocity": 100}, {"time": 783, "pitch": 72, "duration": 3, "velocity": 102}, {"time": 786, "pitch": 73, "duration": 3, "velocity": 102}, {"time": 789, "pitch": 72, "duration": 3, "velocity": 101}, {"time": 792, "pitch": 73, "duration": 3, "velocity": 101}, {"time": 795, "pitch": 80, "duration": 3, "velocity": 101}, {"time": 798, "pitch": 75, "duration": 12, "velocity": 100}, {"time": 810, "pitch": 73, "duration": 3, "velocity": 100}, {"time": 813, "pitch": 72, "duration": 6, "velocity": 100}, {"time": 819, "pitch": 70, "duration": 9, "velocity": 100}, {"time": 828, "pitch": 70, "duration": 3, "velocity": 100}, {"time": 831, "pitch": 68, "duration": 3, "velocity": 100}, {"time": 834, "pitch": 70, "duration": 3, "velocity": 100}, {"time": 837, "pitch": 68, "duration": 3, "velocity": 100}, {"time": 840, "pitch": 70, "duration": 3, "velocity": 100}, {"time": 843, "pitch": 73, "duration": 6, "velocity": 100}, {"time": 849, "pitch": 77, "duration": 15, "velocity": 100}, {"time": 864, "pitch": 73, "duration": 3, "velocity": 100}, {"time": 870, "pitch": 75, "duration": 3, "velocity": 100}, {"time": 876, "pitch": 77, "duration": 3, "velocity": 100}, {"time": 879, "pitch": 75, "duration": 3, "velocity": 100}, {"time": 882, "pitch": 77, "duration": 3, "velocity": 100}, {"time": 885, "pitch": 75, "duration": 3, "velocity": 100}, {"time": 888, "pitch": 77, "duration": 3, "velocity": 100}, {"time": 891, "pitch": 80, "duration": 3, "velocity": 100}, {"time": 894, "pitch": 77, "duration": 9, "velocity": 100}, {"time": 903, "pitch": 75, "duration": 3, "velocity": 100}, {"time": 906, "pitch": 80, "duration": 3, "velocity": 100}, {"time": 909, "pitch": 77, "duration": 9, "velocity": 100}, {"time": 918, "pitch": 73, "duration": 3, "velocity": 100}, {"time": 921, "pitch": 75, "duration": 3, "velocity": 100}, {"time": 924, "pitch": 75, "duration": 6, "velocity": 100}, {"time": 930, "pitch": 75, "duration": 6, "velocity": 100}, {"time": 936, "pitch": 75, "duration": 6, "velocity": 100}, {"time": 942, "pitch": 73, "duration": 3, "velocity": 100}, {"time": 945, "pitch": 75, "duration": 18, "velocity": 100}, {"time": 963, "pitch": 70, "duration": 3, "velocity": 100}, {"time": 966, "pitch": 70, "duration": 3, "velocity": 100}, {"time": 969, "pitch": 72, "duration": 3, "velocity": 100}, {"time": 972, "pitch": 73, "duration": 3, "velocity": 99}, {"time": 975, "pitch": 72, "duration": 3, "velocity": 99}, {"time": 978, "pitch": 73, "duration": 3, "velocity": 99}, {"time": 981, "pitch": 72, "duration": 3, "velocity": 99}, {"time": 984, "pitch": 73, "duration": 3, "velocity": 99}, {"time": 987, "pitch": 80, "duration": 3, "velocity": 99}, {"time": 990, "pitch": 75, "duration": 18, "velocity": 99}, {"time": 1008, "pitch": 73, "duration": 12, "velocity": 89}, {"time": 1020, "pitch": 72, "duration": 6, "velocity": 89}, {"time": 1026, "pitch": 70, "duration": 28, "velocity": 73}, {"time": 1212, "pitch": 68, "duration": 3, "velocity": 84}, {"time": 1215, "pitch": 70, "duration": 3, "velocity": 73}, {"time": 1218, "pitch": 70, "duration": 3, "velocity": 73}, {"time": 1221, "pitch": 68, "duration": 3, "velocity": 65}, {"time": 1224, "pitch": 70, "duration": 3, "velocity": 74}, {"time": 1227, "pitch": 70, "duration": 6, "velocity": 84}, {"time": 1233, "pitch": 61, "duration": 3, "velocity": 60}, {"time": 1236, "pitch": 63, "duration": 3, "velocity": 60}, {"time": 1239, "pitch": 65, "duration": 3, "velocity": 64}, {"time": 1242, "pitch": 65, "duration": 3, "velocity": 61}, {"time": 1245, "pitch": 65, "duration": 12, "velocity": 69}, {"time": 1257, "pitch": 68, "duration": 6, "velocity": 94}, {"time": 1263, "pitch": 70, "duration": 3, "velocity": 78}, {"time": 1266, "pitch": 70, "duration": 3, "velocity": 70}, {"time": 1269, "pitch": 68, "duration": 3, "velocity": 73}, {"time": 1272, "pitch": 73, "duration": 3, "velocity": 89}, {"time": 1275, "pitch": 70, "duration": 6, "velocity": 84}, {"time": 1281, "pitch": 61, "duration": 3, "velocity": 63}, {"time": 1284, "pitch": 63, "duration": 3, "velocity": 66}, {"time": 1287, "pitch": 65, "duration": 3, "velocity": 68}, {"time": 1290, "pitch": 68, "duration": 3, "velocity": 73}, {"time": 1293, "pitch": 65, "duration": 12, "velocity": 75}, {"time": 1305, "pitch": 68, "duration": 3, "velocity": 70}, {"time": 1308, "pitch": 68, "duration": 3, "velocity": 75}, {"time": 1311, "pitch": 70, "duration": 3, "velocity": 63}, {"time": 1314, "pitch": 70, "duration": 3, "velocity": 75}, {"time": 1317, "pitch": 68, "duration": 3, "velocity": 72}, {"time": 1320, "pitch": 70, "duration": 3, "velocity": 92}, {"time": 1323, "pitch": 70, "duration": 6, "velocity": 92}, {"time": 1329, "pitch": 61, "duration": 3, "velocity": 69}, {"time": 1332, "pitch": 63, "duration": 3, "velocity": 67}, {"time": 1335, "pitch": 65, "duration": 3, "velocity": 67}, {"time": 1338, "pitch": 65, "duration": 3, "velocity": 74}, {"time": 1341, "pitch": 65, "duration": 9, "velocity": 76}, {"time": 1350, "pitch": 68, "duration": 12, "velocity": 71}, {"time": 1362, "pitch": 61, "duration": 6, "velocity": 64}, {"time": 1368, "pitch": 63, "duration": 36, "velocity": 75}, {"time": 1404, "pitch": 68, "duration": 3, "velocity": 84}, {"time": 1407, "pitch": 70, "duration": 3, "velocity": 73}, {"time": 1410, "pitch": 70, "duration": 3, "velocity": 73}, {"time": 1413, "pitch": 68, "duration": 3, "velocity": 65}, {"time": 1416, "pitch": 70, "duration": 3, "velocity": 74}, {"time": 1419, "pitch": 70, "duration": 6, "velocity": 84}, {"time": 1425, "pitch": 61, "duration": 3, "velocity": 60}, {"time": 1428, "pitch": 63, "duration": 3, "velocity": 60}, {"time": 1431, "pitch": 65, "duration": 3, "velocity": 64}, {"time": 1434, "pitch": 65, "duration": 3, "velocity": 61}, {"time": 1437, "pitch": 65, "duration": 12, "velocity": 69}, {"time": 1449, "pitch": 68, "duration": 6, "velocity": 94}, {"time": 1455, "pitch": 70, "duration": 3, "velocity": 78}, {"time": 1458, "pitch": 70, "duration": 3, "velocity": 70}, {"time": 1461, "pitch": 68, "duration": 3, "velocity": 73}, {"time": 1464, "pitch": 73, "duration": 3, "velocity": 89}, {"time": 1467, "pitch": 70, "duration": 6, "velocity": 84}, {"time": 1473, "pitch": 61, "duration": 3, "velocity": 63}, {"time": 1476, "pitch": 63, "duration": 3, "velocity": 66}, {"time": 1479, "pitch": 65, "duration": 3, "velocity": 68}, {"time": 1482, "pitch": 68, "duration": 3, "velocity": 73}, {"time": 1485, "pitch": 65, "duration": 12, "velocity": 75}, {"time": 1497, "pitch": 68, "duration": 3, "velocity": 70}, {"time": 1500, "pitch": 68, "duration": 3, "velocity": 75}, {"time": 1503, "pitch": 70, "duration": 3, "velocity": 63}, {"time": 1506, "pitch": 70, "duration": 3, "velocity": 75}, {"time": 1509, "pitch": 68, "duration": 3, "velocity": 72}, {"time": 1512, "pitch": 70, "duration": 3, "velocity": 92}, {"time": 1515, "pitch": 70, "duration": 6, "velocity": 92}, {"time": 1521, "pitch": 61, "duration": 3, "velocity": 69}, {"time": 1524, "pitch": 63, "duration": 3, "velocity": 67}, {"time": 1527, "pitch": 65, "duration": 3, "velocity": 67}, {"time": 1530, "pitch": 65, "duration": 3, "velocity": 74}, {"time": 1533, "pitch": 65, "duration": 7, "velocity": 76}, {"time": 1540, "pitch": 68, "duration": 8, "velocity": 71}, {"time": 1548, "pitch": 68, "duration": 3, "velocity": 94}, {"time": 1551, "pitch": 66, "duration": 3, "velocity": 68}, {"time": 1554, "pitch": 66, "duration": 3, "velocity": 75}, {"time": 1557, "pitch": 65, "duration": 3, "velocity": 60}, {"time": 1560, "pitch": 66, "duration": 3, "velocity": 90}, {"time": 1563, "pitch": 65, "duration": 3, "velocity": 90}, {"time": 1566, "pitch": 66, "duration": 9, "velocity": 90}, {"time": 1575, "pitch": 68, "duration": 3, "velocity": 90}, {"time": 1578, "pitch": 66, "duration": 3, "velocity": 90}, {"time": 1581, "pitch": 65, "duration": 4, "velocity": 90}, {"time": 1584, "pitch": 66, "duration": 3, "velocity": 91}, {"time": 1587, "pitch": 65, "duration": 3, "velocity": 91}, {"time": 1590, "pitch": 63, "duration": 3, "velocity": 92}, {"time": 1593, "pitch": 61, "duration": 3, "velocity": 92}, {"time": 1596, "pitch": 65, "duration": 6, "velocity": 92}, {"time": 1602, "pitch": 65, "duration": 6, "velocity": 92}, {"time": 1608, "pitch": 65, "duration": 6, "velocity": 94}, {"time": 1614, "pitch": 65, "duration": 6, "velocity": 94}, {"time": 1620, "pitch": 65, "duration": 18, "velocity": 94}, {"time": 1638, "pitch": 73, "duration": 3, "velocity": 95}, {"time": 1641, "pitch": 75, "duration": 3, "velocity": 94}, {"time": 1644, "pitch": 77, "duration": 3, "velocity": 94}, {"time": 1647, "pitch": 75, "duration": 3, "velocity": 95}, {"time": 1650, "pitch": 77, "duration": 3, "velocity": 95}, {"time": 1653, "pitch": 75, "duration": 3, "velocity": 95}, {"time": 1656, "pitch": 77, "duration": 3, "velocity": 96}, {"time": 1659, "pitch": 80, "duration": 3, "velocity": 95}, {"time": 1662, "pitch": 77, "duration": 9, "velocity": 95}, {"time": 1671, "pitch": 75, "duration": 3, "velocity": 96}, {"time": 1674, "pitch": 80, "duration": 3, "velocity": 97}, {"time": 1677, "pitch": 77, "duration": 9, "velocity": 97}, {"time": 1686, "pitch": 73, "duration": 3, "velocity": 97}, {"time": 1689, "pitch": 75, "duration": 3, "velocity": 97}, {"time": 1692, "pitch": 75, "duration": 6, "velocity": 98}, {"time": 1698, "pitch": 75, "duration": 6, "velocity": 98}, {"time": 1704, "pitch": 75, "duration": 6, "velocity": 99}, {"time": 1710, "pitch": 73, "duration": 3, "velocity": 100}, {"time": 1713, "pitch": 75, "duration": 18, "velocity": 100}, {"time": 1731, "pitch": 70, "duration": 3, "velocity": 101}, {"time": 1734, "pitch": 70, "duration": 3, "velocity": 101}, {"time": 1737, "pitch": 72, "duration": 3, "velocity": 101}, {"time": 1740, "pitch": 73, "duration": 3, "velocity": 101}, {"time": 1743, "pitch": 72, "duration": 3, "velocity": 101}, {"time": 1746, "pitch": 73, "duration": 3, "velocity": 101}, {"time": 1749, "pitch": 72, "duration": 3, "velocity": 101}, {"time": 1752, "pitch": 73, "duration": 3, "velocity": 101}, {"time": 1755, "pitch": 80, "duration": 3, "velocity": 101}, {"time": 1758, "pitch": 75, "duration": 12, "velocity": 101}, {"time": 1770, "pitch": 73, "duration": 3, "velocity": 102}, {"time": 1773, "pitch": 72, "duration": 6, "velocity": 102}, {"time": 1779, "pitch": 70, "duration": 9, "velocity": 103}, {"time": 1788, "pitch": 70, "duration": 3, "velocity": 105}, {"time": 1791, "pitch": 68, "duration": 3, "velocity": 105}, {"time": 1794, "pitch": 70, "duration": 3, "velocity": 105}, {"time": 1797, "pitch": 68, "duration": 3, "velocity": 105}, {"time": 1800, "pitch": 70, "duration": 3, "velocity": 106}, {"time": 1803, "pitch": 73, "duration": 6, "velocity": 106}, {"time": 1809, "pitch": 77, "duration": 15, "velocity": 106}, {"time": 1824, "pitch": 73, "duration": 6, "velocity": 107}, {"time": 1830, "pitch": 75, "duration": 4, "velocity": 107}, {"time": 1836, "pitch": 77, "duration": 3, "velocity": 107}, {"time": 1839, "pitch": 75, "duration": 3, "velocity": 107}, {"time": 1842, "pitch": 77, "duration": 3, "velocity": 107}, {"time": 1845, "pitch": 75, "duration": 3, "velocity": 107}, {"time": 1848, "pitch": 77, "duration": 3, "velocity": 107}, {"time": 1851, "pitch": 80, "duration": 3, "velocity": 107}, {"time": 1854, "pitch": 77, "duration": 9, "velocity": 107}, {"time": 1863, "pitch": 75, "duration": 3, "velocity": 107}, {"time": 1866, "pitch": 80, "duration": 3, "velocity": 107}, {"time": 1869, "pitch": 77, "duration": 9, "velocity": 107}, {"time": 1878, "pitch": 73, "duration": 3, "velocity": 107}, {"time": 1881, "pitch": 75, "duration": 3, "velocity": 107}, {"time": 1884, "pitch": 75, "duration": 6, "velocity": 107}, {"time": 1890, "pitch": 75, "duration": 6, "velocity": 107}, {"time": 1896, "pitch": 75, "duration": 6, "velocity": 107}, {"time": 1902, "pitch": 73, "duration": 3, "velocity": 103}, {"time": 1905, "pitch": 75, "duration": 18, "velocity": 106}, {"time": 1923, "pitch": 70, "duration": 3, "velocity": 103}, {"time": 1926, "pitch": 70, "duration": 3, "velocity": 103}, {"time": 1929, "pitch": 72, "duration": 3, "velocity": 106}, {"time": 1932, "pitch": 73, "duration": 3, "velocity": 106}, {"time": 1935, "pitch": 72, "duration": 3, "velocity": 105}, {"time": 1938, "pitch": 73, "duration": 3, "velocity": 105}, {"time": 1941, "pitch": 72, "duration": 3, "velocity": 104}, {"time": 1944, "pitch": 73, "duration": 3, "velocity": 104}, {"time": 1947, "pitch": 80, "duration": 3, "velocity": 103}, {"time": 1950, "pitch": 75, "duration": 18, "velocity": 103}, {"time": 1968, "pitch": 70, "duration": 4, "velocity": 103}, {"time": 1971, "pitch": 73, "duration": 9, "velocity": 103}, {"time": 1980, "pitch": 77, "duration": 26, "velocity": 103}, {"time": 2256, "pitch": 73, "duration": 5, "velocity": 101}, {"time": 2261, "pitch": 75, "duration": 7, "velocity": 101}, {"time": 2268, "pitch": 77, "duration": 3, "velocity": 102}, {"time": 2271, "pitch": 75, "duration": 3, "velocity": 102}, {"time": 2274, "pitch": 77, "duration": 3, "velocity": 102}, {"time": 2277, "pitch": 75, "duration": 3, "velocity": 102}, {"time": 2280, "pitch": 77, "duration": 3, "velocity": 102}, {"time": 2283, "pitch": 80, "duration": 3, "velocity": 102}, {"time": 2286, "pitch": 77, "duration": 9, "velocity": 102}, {"time": 2295, "pitch": 75, "duration": 3, "velocity": 102}, {"time": 2298, "pitch": 80, "duration": 3, "velocity": 102}, {"time": 2301, "pitch": 77, "duration": 9, "velocity": 102}, {"time": 2310, "pitch": 73, "duration": 3, "velocity": 102}, {"time": 2313, "pitch": 75, "duration": 3, "velocity": 102}, {"time": 2316, "pitch": 75, "duration": 6, "velocity": 102}, {"time": 2322, "pitch": 75, "duration": 6, "velocity": 102}, {"time": 2328, "pitch": 75, "duration": 6, "velocity": 102}, {"time": 2334, "pitch": 73, "duration": 3, "velocity": 102}, {"time": 2337, "pitch": 75, "duration": 18, "velocity": 102}, {"time": 2355, "pitch": 70, "duration": 3, "velocity": 102}, {"time": 2358, "pitch": 70, "duration": 3, "velocity": 102}, {"time": 2361, "pitch": 72, "duration": 3, "velocity": 102}, {"time": 2364, "pitch": 73, "duration": 3, "velocity": 102}, {"time": 2367, "pitch": 72, "duration": 3, "velocity": 102}, {"time": 2370, "pitch": 73, "duration": 3, "velocity": 102}, {"time": 2373, "pitch": 72, "duration": 3, "velocity": 102}, {"time": 2376, "pitch": 73, "duration": 3, "velocity": 102}, {"time": 2379, "pitch": 80, "duration": 3, "velocity": 102}, {"time": 2382, "pitch": 75, "duration": 12, "velocity": 102}, {"time": 2394, "pitch": 73, "duration": 3, "velocity": 101}, {"time": 2397, "pitch": 72, "duration": 6, "velocity": 100}, {"time": 2403, "pitch": 70, "duration": 9, "velocity": 100}, {"time": 2412, "pitch": 70, "duration": 3, "velocity": 100}, {"time": 2415, "pitch": 68, "duration": 3, "velocity": 100}, {"time": 2418, "pitch": 70, "duration": 3, "velocity": 100}, {"time": 2421, "pitch": 68, "duration": 3, "velocity": 100}, {"time": 2424, "pitch": 70, "duration": 3, "velocity": 100}, {"time": 2427, "pitch": 73, "duration": 6, "velocity": 100}, {"time": 2433, "pitch": 77, "duration": 15, "velocity": 100}, {"time": 2448, "pitch": 73, "duration": 6, "velocity": 100}, {"time": 2454, "pitch": 75, "duration": 6, "velocity": 100}, {"time": 2460, "pitch": 77, "duration": 3, "velocity": 100}, {"time": 2463, "pitch": 75, "duration": 3, "velocity": 100}, {"time": 2466, "pitch": 77, "duration": 3, "velocity": 100}, {"time": 2469, "pitch": 75, "duration": 3, "velocity": 100}, {"time": 2472, "pitch": 77, "duration": 3, "velocity": 100}, {"time": 2475, "pitch": 80, "duration": 3, "velocity": 100}, {"time": 2478, "pitch": 77, "duration": 9, "velocity": 100}, {"time": 2487, "pitch": 75, "duration": 3, "velocity": 100}, {"time": 2490, "pitch": 80, "duration": 3, "velocity": 100}, {"time": 2493, "pitch": 77, "duration": 9, "velocity": 100}, {"time": 2502, "pitch": 73, "duration": 3, "velocity": 100}, {"time": 2505, "pitch": 75, "duration": 3, "velocity": 100}, {"time": 2508, "pitch": 75, "duration": 6, "velocity": 100}, {"time": 2514, "pitch": 75, "duration": 6, "velocity": 100}, {"time": 2520, "pitch": 75, "duration": 6, "velocity": 100}, {"time": 2526, "pitch": 73, "duration": 3, "velocity": 99}, {"time": 2529, "pitch": 75, "duration": 18, "velocity": 99}, {"time": 2547, "pitch": 70, "duration": 3, "velocity": 99}, {"time": 2550, "pitch": 70, "duration": 3, "velocity": 99}, {"time": 2553, "pitch": 72, "duration": 3, "velocity": 99}, {"time": 2556, "pitch": 73, "duration": 3, "velocity": 99}, {"time": 2559, "pitch": 72, "duration": 3, "velocity": 99}, {"time": 2562, "pitch": 73, "duration": 3, "velocity": 99}, {"time": 2565, "pitch": 72, "duration": 3, "velocity": 99}, {"time": 2568, "pitch": 73, "duration": 3, "velocity": 99}, {"time": 2571, "pitch": 80, "duration": 3, "velocity": 99}, {"time": 2574, "pitch": 75, "duration": 18, "velocity": 99}, {"time": 2592, "pitch": 73, "duration": 12, "velocity": 99}, {"time": 2604, "pitch": 72, "duration": 12, "velocity": 99}, {"time": 2616, "pitch": 70, "duration": 36, "velocity": 99}], "annotations": [{"time": 60, "annotation": {"number": 64, "value": 73}, "group": "control_change"}, {"time": 72, "annotation": {"number": 64, "value": 72}, "group": "control_change"}]}, {"program": 0, "is_drum": false, "name": "PIANO", "notes": [{"time": 12, "pitch": 42, "duration": 14, "velocity": 58}, {"time": 12, "pitch": 58, "duration": 8, "velocity": 51}, {"time": 12, "pitch": 61, "duration": 8, "velocity": 64}, {"time": 12, "pitch": 65, "duration": 3, "velocity": 104}, {"time": 15, "pitch": 49, "duration": 11, "velocity": 74}, {"time": 15, "pitch": 63, "duration": 2, "velocity": 58}, {"time": 18, "pitch": 54, "duration": 6, "velocity": 61}, {"time": 18, "pitch": 65, "duration": 3, "velocity": 68}, {"time": 21, "pitch": 63, "duration": 2, "velocity": 61}, {"time": 24, "pitch": 58, "duration": 1, "velocity": 58}, {"time": 24, "pitch": 61, "duration": 1, "velocity": 68}, {"time": 24, "pitch": 65, "duration": 1, "velocity": 69}, {"time": 27, "pitch": 68, "duration": 1, "velocity": 65}, {"time": 30, "pitch": 41, "duration": 24, "velocity": 50}, {"time": 30, "pitch": 56, "duration": 23, "velocity": 59}, {"time": 30, "pitch": 60, "duration": 7, "velocity": 63}, {"time": 30, "pitch": 60, "duration": 7, "velocity": 85}, {"time": 60, "pitch": 42, "duration": 15, "velocity": 71}, {"time": 60, "pitch": 58, "duration": 8, "velocity": 60}, {"time": 60, "pitch": 61, "duration": 3, "velocity": 87}, {"time": 63, "pitch": 60, "duration": 2, "velocity": 58}, {"time": 66, "pitch": 49, "duration": 8, "velocity": 81}, {"time": 66, "pitch": 61, "duration": 3, "velocity": 72}, {"time": 69, "pitch": 60, "duration": 2, "velocity": 59}, {"time": 72, "pitch": 58, "duration": 4, "velocity": 61}, {"time": 72, "pitch": 61, "duration": 1, "velocity": 73}, {"time": 75, "pitch": 63, "duration": 1, "velocity": 86}, {"time": 78, "pitch": 49, "duration": 25, "velocity": 85}, {"time": 78, "pitch": 60, "duration": 18, "velocity": 64}, {"time": 78, "pitch": 65, "duration": 18, "velocity": 67}, {"time": 78, "pitch": 65, "duration": 18, "velocity": 87}, {"time": 96, "pitch": 61, "duration": 7, "velocity": 59}, {"time": 96, "pitch": 65, "duration": 1, "velocity": 61}, {"time": 108, "pitch": 42, "duration": 14, "velocity": 74}, {"time": 108, "pitch": 58, "duration": 7, "velocity": 60}, {"time": 108, "pitch": 61, "duration": 7, "velocity": 72}, {"time": 108, "pitch": 65, "duration": 3, "velocity": 90}, {"time": 111, "pitch": 49, "duration": 11, "velocity": 70}, {"time": 111, "pitch": 63, "duration": 2, "velocity": 64}, {"time": 114, "pitch": 54, "duration": 6, "velocity": 58}, {"time": 114, "pitch": 65, "duration": 3, "velocity": 71}, {"time": 117, "pitch": 63, "duration": 2, "velocity": 65}, {"time": 120, "pitch": 58, "duration": 2, "velocity": 59}, {"time": 120, "pitch": 61, "duration": 2, "velocity": 65}, {"time": 120, "pitch": 65, "duration": 3, "velocity": 70}, {"time": 123, "pitch": 68, "duration": 3, "velocity": 70}, {"time": 126, "pitch": 41, "duration": 24, "velocity": 58}, {"time": 126, "pitch": 56, "duration": 24, "velocity": 61}, {"time": 126, "pitch": 60, "duration": 24, "velocity": 63}, {"time": 126, "pitch": 60, "duration": 24, "velocity": 87}, {"time": 156, "pitch": 42, "duration": 14, "velocity": 73}, {"time": 156, "pitch": 58, "duration": 10, "velocity": 60}, {"time": 156, "pitch": 61, "duration": 3, "velocity": 74}, {"time": 159, "pitch": 49, "duration": 13, "velocity": 66}, {"time": 159, "pitch": 60, "duration": 2, "velocity": 60}, {"time": 162, "pitch": 54, "duration": 8, "velocity": 52}, {"time": 162, "pitch": 61, "duration": 3, "velocity": 72}, {"time": 165, "pitch": 60, "duration": 2, "velocity": 61}, {"time": 168, "pitch": 58, "duration": 2, "velocity": 57}, {"time": 168, "pitch": 61, "duration": 2, "velocity": 66}, {"time": 168, "pitch": 61, "duration": 2, "velocity": 76}, {"time": 174, "pitch": 49, "duration": 16, "velocity": 75}, {"time": 174, "pitch": 56, "duration": 29, "velocity": 93}, {"time": 174, "pitch": 60, "duration": 20, "velocity": 71}, {"time": 174, "pitch": 65, "duration": 16, "velocity": 70}, {"time": 202, "pitch": 73, "duration": 50, "velocity": 54}, {"time": 203, "pitch": 80, "duration": 49, "velocity": 66}, {"time": 203, "pitch": 61, "duration": 49, "velocity": 73}, {"time": 204, "pitch": 84, "duration": 48, "velocity": 51}, {"time": 252, "pitch": 42, "duration": 24, "velocity": 73}, {"time": 252, "pitch": 58, "duration": 9, "velocity": 67}, {"time": 252, "pitch": 61, "duration": 1, "velocity": 74}, {"time": 252, "pitch": 66, "duration": 10, "velocity": 73}, {"time": 264, "pitch": 58, "duration": 6, "velocity": 70}, {"time": 264, "pitch": 61, "duration": 7, "velocity": 74}, {"time": 264, "pitch": 66, "duration": 10, "velocity": 76}, {"time": 276, "pitch": 49, "duration": 23, "velocity": 70}, {"time": 276, "pitch": 60, "duration": 10, "velocity": 71}, {"time": 276, "pitch": 65, "duration": 10, "velocity": 74}, {"time": 288, "pitch": 63, "duration": 3, "velocity": 86}, {"time": 291, "pitch": 60, "duration": 3, "velocity": 64}, {"time": 294, "pitch": 56, "duration": 4, "velocity": 74}, {"time": 300, "pitch": 42, "duration": 24, "velocity": 72}, {"time": 300, "pitch": 58, "duration": 9, "velocity": 59}, {"time": 300, "pitch": 61, "duration": 10, "velocity": 65}, {"time": 300, "pitch": 66, "duration": 10, "velocity": 66}, {"time": 312, "pitch": 58, "duration": 8, "velocity": 68}, {"time": 312, "pitch": 61, "duration": 10, "velocity": 69}, {"time": 312, "pitch": 66, "duration": 11, "velocity": 74}, {"time": 324, "pitch": 49, "duration": 19, "velocity": 62}, {"time": 324, "pitch": 60, "duration": 8, "velocity": 63}, {"time": 324, "pitch": 65, "duration": 10, "velocity": 68}, {"time": 333, "pitch": 61, "duration": 2, "velocity": 63}, {"time": 336, "pitch": 60, "duration": 7, "velocity": 65}, {"time": 336, "pitch": 68, "duration": 3, "velocity": 75}, {"time": 339, "pitch": 70, "duration": 6, "velocity": 86}, {"time": 348, "pitch": 42, "duration": 24, "velocity": 69}, {"time": 348, "pitch": 58, "duration": 9, "velocity": 67}, {"time": 348, "pitch": 61, "duration": 9, "velocity": 72}, {"time": 360, "pitch": 58, "duration": 7, "velocity": 60}, {"time": 360, "pitch": 61, "duration": 7, "velocity": 65}, {"time": 372, "pitch": 49, "duration": 24, "velocity": 71}, {"time": 372, "pitch": 60, "duration": 10, "velocity": 62}, {"time": 372, "pitch": 63, "duration": 10, "velocity": 60}, {"time": 372, "pitch": 68, "duration": 10, "velocity": 64}, {"time": 384, "pitch": 63, "duration": 3, "velocity": 74}, {"time": 384, "pitch": 68, "duration": 9, "velocity": 76}, {"time": 387, "pitch": 60, "duration": 3, "velocity": 63}, {"time": 390, "pitch": 56, "duration": 4, "velocity": 72}, {"time": 396, "pitch": 42, "duration": 20, "velocity": 65}, {"time": 396, "pitch": 58, "duration": 10, "velocity": 64}, {"time": 396, "pitch": 61, "duration": 11, "velocity": 68}, {"time": 396, "pitch": 66, "duration": 10, "velocity": 72}, {"time": 402, "pitch": 49, "duration": 18, "velocity": 65}, {"time": 408, "pitch": 58, "duration": 9, "velocity": 63}, {"time": 408, "pitch": 61, "duration": 10, "velocity": 74}, {"time": 408, "pitch": 66, "duration": 9, "velocity": 75}, {"time": 417, "pitch": 63, "duration": 26, "velocity": 60}, {"time": 418, "pitch": 65, "duration": 1, "velocity": 62}, {"time": 420, "pitch": 42, "duration": 23, "velocity": 76}, {"time": 420, "pitch": 54, "duration": 20, "velocity": 62}, {"time": 420, "pitch": 66, "duration": 23, "velocity": 85}, {"time": 444, "pitch": 42, "duration": 23, "velocity": 74}, {"time": 444, "pitch": 58, "duration": 10, "velocity": 59}, {"time": 444, "pitch": 61, "duration": 10, "velocity": 69}, {"time": 444, "pitch": 66, "duration": 10, "velocity": 67}, {"time": 456, "pitch": 58, "duration": 6, "velocity": 72}, {"time": 456, "pitch": 61, "duration": 6, "velocity": 74}, {"time": 456, "pitch": 66, "duration": 6, "velocity": 77}, {"time": 468, "pitch": 49, "duration": 20, "velocity": 74}, {"time": 468, "pitch": 60, "duration": 10, "velocity": 69}, {"time": 468, "pitch": 65, "duration": 10, "velocity": 72}, {"time": 480, "pitch": 60, "duration": 6, "velocity": 76}, {"time": 480, "pitch": 72, "duration": 4, "velocity": 93}, {"time": 483, "pitch": 68, "duration": 3, "velocity": 72}, {"time": 486, "pitch": 63, "duration": 4, "velocity": 65}, {"time": 492, "pitch": 42, "duration": 24, "velocity": 76}, {"time": 492, "pitch": 58, "duration": 10, "velocity": 63}, {"time": 492, "pitch": 61, "duration": 10, "velocity": 68}, {"time": 492, "pitch": 66, "duration": 10, "velocity": 59}, {"time": 504, "pitch": 58, "duration": 7, "velocity": 74}, {"time": 504, "pitch": 61, "duration": 9, "velocity": 74}, {"time": 504, "pitch": 66, "duration": 11, "velocity": 85}, {"time": 516, "pitch": 49, "duration": 22, "velocity": 74}, {"time": 516, "pitch": 60, "duration": 10, "velocity": 71}, {"time": 516, "pitch": 65, "duration": 10, "velocity": 76}, {"time": 528, "pitch": 60, "duration": 5, "velocity": 71}, {"time": 528, "pitch": 73, "duration": 3, "velocity": 76}, {"time": 531, "pitch": 72, "duration": 3, "velocity": 62}, {"time": 534, "pitch": 65, "duration": 5, "velocity": 60}, {"time": 540, "pitch": 42, "duration": 24, "velocity": 65}, {"time": 540, "pitch": 58, "duration": 11, "velocity": 64}, {"time": 540, "pitch": 61, "duration": 11, "velocity": 68}, {"time": 540, "pitch": 66, "duration": 10, "velocity": 73}, {"time": 552, "pitch": 58, "duration": 6, "velocity": 72}, {"time": 552, "pitch": 61, "duration": 7, "velocity": 76}, {"time": 552, "pitch": 66, "duration": 10, "velocity": 83}, {"time": 564, "pitch": 49, "duration": 22, "velocity": 73}, {"time": 564, "pitch": 60, "duration": 10, "velocity": 77}, {"time": 564, "pitch": 65, "duration": 10, "velocity": 75}, {"time": 576, "pitch": 60, "duration": 9, "velocity": 73}, {"time": 576, "pitch": 73, "duration": 3, "velocity": 85}, {"time": 579, "pitch": 72, "duration": 3, "velocity": 60}, {"time": 582, "pitch": 70, "duration": 4, "velocity": 62}, {"time": 588, "pitch": 42, "duration": 22, "velocity": 72}, {"time": 588, "pitch": 58, "duration": 10, "velocity": 61}, {"time": 588, "pitch": 61, "duration": 10, "velocity": 67}, {"time": 594, "pitch": 49, "duration": 16, "velocity": 54}, {"time": 600, "pitch": 58, "duration": 10, "velocity": 66}, {"time": 600, "pitch": 61, "duration": 10, "velocity": 73}, {"time": 600, "pitch": 66, "duration": 9, "velocity": 72}, {"time": 606, "pitch": 54, "duration": 4, "velocity": 55}, {"time": 612, "pitch": 42, "duration": 17, "velocity": 77}, {"time": 612, "pitch": 58, "duration": 10, "velocity": 63}, {"time": 612, "pitch": 61, "duration": 11, "velocity": 70}, {"time": 612, "pitch": 66, "duration": 10, "velocity": 56}, {"time": 618, "pitch": 49, "duration": 12, "velocity": 75}, {"time": 624, "pitch": 58, "duration": 6, "velocity": 75}, {"time": 624, "pitch": 61, "duration": 6, "velocity": 81}, {"time": 624, "pitch": 66, "duration": 7, "velocity": 87}, {"time": 636, "pitch": 41, "duration": 16, "velocity": 77}, {"time": 636, "pitch": 57, "duration": 4, "velocity": 71}, {"time": 636, "pitch": 60, "duration": 4, "velocity": 86}, {"time": 636, "pitch": 65, "duration": 4, "velocity": 75}, {"time": 642, "pitch": 48, "duration": 10, "velocity": 59}, {"time": 642, "pitch": 53, "duration": 9, "velocity": 51}, {"time": 642, "pitch": 57, "duration": 4, "velocity": 81}, {"time": 642, "pitch": 60, "duration": 4, "velocity": 81}, {"time": 642, "pitch": 65, "duration": 3, "velocity": 68}, {"time": 648, "pitch": 45, "duration": 4, "velocity": 2}, {"time": 648, "pitch": 57, "duration": 3, "velocity": 90}, {"time": 648, "pitch": 60, "duration": 3, "velocity": 93}, {"time": 648, "pitch": 65, "duration": 2, "velocity": 74}, {"time": 654, "pitch": 41, "duration": 4, "velocity": 63}, {"time": 654, "pitch": 45, "duration": 4, "velocity": 62}, {"time": 654, "pitch": 48, "duration": 4, "velocity": 69}, {"time": 654, "pitch": 53, "duration": 4, "velocity": 63}, {"time": 654, "pitch": 57, "duration": 4, "velocity": 74}, {"time": 654, "pitch": 60, "duration": 3, "velocity": 81}, {"time": 660, "pitch": 41, "duration": 2, "velocity": 88}, {"time": 660, "pitch": 45, "duration": 2, "velocity": 88}, {"time": 660, "pitch": 48, "duration": 2, "velocity": 88}, {"time": 660, "pitch": 53, "duration": 2, "velocity": 88}, {"time": 660, "pitch": 57, "duration": 3, "velocity": 88}, {"time": 660, "pitch": 60, "duration": 2, "velocity": 88}, {"time": 660, "pitch": 65, "duration": 2, "velocity": 88}, {"time": 684, "pitch": 42, "duration": 42, "velocity": 60}, {"time": 684, "pitch": 49, "duration": 43, "velocity": 76}, {"time": 684, "pitch": 54, "duration": 40, "velocity": 58}, {"time": 684, "pitch": 58, "duration": 9, "velocity": 70}, {"time": 684, "pitch": 61, "duration": 9, "velocity": 75}, {"time": 684, "pitch": 66, "duration": 9, "velocity": 81}, {"time": 696, "pitch": 58, "duration": 10, "velocity": 76}, {"time": 696, "pitch": 61, "duration": 11, "velocity": 85}, {"time": 696, "pitch": 66, "duration": 10, "velocity": 87}, {"time": 708, "pitch": 58, "duration": 10, "velocity": 73}, {"time": 708, "pitch": 61, "duration": 10, "velocity": 83}, {"time": 708, "pitch": 66, "duration": 10, "velocity": 85}, {"time": 720, "pitch": 58, "duration": 7, "velocity": 74}, {"time": 720, "pitch": 61, "duration": 7, "velocity": 81}, {"time": 720, "pitch": 66, "duration": 7, "velocity": 86}, {"time": 732, "pitch": 41, "duration": 42, "velocity": 59}, {"time": 732, "pitch": 48, "duration": 42, "velocity": 68}, {"time": 732, "pitch": 53, "duration": 40, "velocity": 59}, {"time": 732, "pitch": 56, "duration": 10, "velocity": 61}, {"time": 732, "pitch": 63, "duration": 10, "velocity": 69}, {"time": 735, "pitch": 60, "duration": 8, "velocity": 11}, {"time": 744, "pitch": 56, "duration": 10, "velocity": 76}, {"time": 744, "pitch": 60, "duration": 10, "velocity": 79}, {"time": 744, "pitch": 63, "duration": 10, "velocity": 74}, {"time": 756, "pitch": 56, "duration": 10, "velocity": 67}, {"time": 756, "pitch": 60, "duration": 10, "velocity": 69}, {"time": 756, "pitch": 63, "duration": 10, "velocity": 71}, {"time": 768, "pitch": 56, "duration": 6, "velocity": 77}, {"time": 768, "pitch": 60, "duration": 5, "velocity": 75}, {"time": 768, "pitch": 63, "duration": 5, "velocity": 76}, {"time": 780, "pitch": 39, "duration": 18, "velocity": 65}, {"time": 780, "pitch": 54, "duration": 11, "velocity": 74}, {"time": 780, "pitch": 58, "duration": 11, "velocity": 61}, {"time": 786, "pitch": 46, "duration": 13, "velocity": 72}, {"time": 792, "pitch": 54, "duration": 6, "velocity": 67}, {"time": 792, "pitch": 58, "duration": 6, "velocity": 71}, {"time": 792, "pitch": 63, "duration": 6, "velocity": 76}, {"time": 798, "pitch": 51, "duration": 5, "velocity": 55}, {"time": 804, "pitch": 41, "duration": 18, "velocity": 60}, {"time": 804, "pitch": 56, "duration": 11, "velocity": 60}, {"time": 804, "pitch": 60, "duration": 11, "velocity": 57}, {"time": 804, "pitch": 65, "duration": 11, "velocity": 67}, {"time": 810, "pitch": 48, "duration": 12, "velocity": 75}, {"time": 816, "pitch": 56, "duration": 6, "velocity": 74}, {"time": 816, "pitch": 60, "duration": 6, "velocity": 77}, {"time": 816, "pitch": 65, "duration": 6, "velocity": 74}, {"time": 822, "pitch": 53, "duration": 6, "velocity": 60}, {"time": 828, "pitch": 46, "duration": 37, "velocity": 52}, {"time": 828, "pitch": 53, "duration": 39, "velocity": 72}, {"time": 828, "pitch": 58, "duration": 36, "velocity": 57}, {"time": 828, "pitch": 62, "duration": 9, "velocity": 85}, {"time": 828, "pitch": 65, "duration": 7, "velocity": 81}, {"time": 828, "pitch": 70, "duration": 7, "velocity": 72}, {"time": 837, "pitch": 50, "duration": 13, "velocity": 37}, {"time": 840, "pitch": 62, "duration": 10, "velocity": 83}, {"time": 840, "pitch": 65, "duration": 11, "velocity": 77}, {"time": 840, "pitch": 70, "duration": 10, "velocity": 67}, {"time": 852, "pitch": 62, "duration": 10, "velocity": 77}, {"time": 852, "pitch": 65, "duration": 10, "velocity": 75}, {"time": 852, "pitch": 70, "duration": 10, "velocity": 64}, {"time": 864, "pitch": 62, "duration": 5, "velocity": 95}, {"time": 864, "pitch": 65, "duration": 5, "velocity": 95}, {"time": 864, "pitch": 70, "duration": 4, "velocity": 95}, {"time": 870, "pitch": 44, "duration": 2, "velocity": 87}, {"time": 876, "pitch": 42, "duration": 44, "velocity": 79}, {"time": 876, "pitch": 58, "duration": 10, "velocity": 66}, {"time": 876, "pitch": 61, "duration": 10, "velocity": 65}, {"time": 876, "pitch": 66, "duration": 9, "velocity": 60}, {"time": 882, "pitch": 49, "duration": 37, "velocity": 79}, {"time": 888, "pitch": 58, "duration": 10, "velocity": 83}, {"time": 888, "pitch": 61, "duration": 10, "velocity": 86}, {"time": 888, "pitch": 66, "duration": 10, "velocity": 86}, {"time": 894, "pitch": 54, "duration": 10, "velocity": 54}, {"time": 900, "pitch": 58, "duration": 10, "velocity": 66}, {"time": 900, "pitch": 61, "duration": 11, "velocity": 73}, {"time": 900, "pitch": 66, "duration": 10, "velocity": 73}, {"time": 906, "pitch": 54, "duration": 8, "velocity": 54}, {"time": 912, "pitch": 58, "duration": 6, "velocity": 68}, {"time": 912, "pitch": 61, "duration": 6, "velocity": 76}, {"time": 912, "pitch": 66, "duration": 6, "velocity": 83}, {"time": 918, "pitch": 54, "duration": 2, "velocity": 59}, {"time": 924, "pitch": 41, "duration": 42, "velocity": 71}, {"time": 924, "pitch": 56, "duration": 11, "velocity": 69}, {"time": 924, "pitch": 60, "duration": 11, "velocity": 74}, {"time": 924, "pitch": 65, "duration": 11, "velocity": 75}, {"time": 930, "pitch": 48, "duration": 35, "velocity": 73}, {"time": 936, "pitch": 56, "duration": 10, "velocity": 75}, {"time": 936, "pitch": 60, "duration": 10, "velocity": 79}, {"time": 936, "pitch": 65, "duration": 10, "velocity": 76}, {"time": 942, "pitch": 53, "duration": 11, "velocity": 56}, {"time": 948, "pitch": 56, "duration": 10, "velocity": 74}, {"time": 948, "pitch": 60, "duration": 10, "velocity": 79}, {"time": 948, "pitch": 65, "duration": 10, "velocity": 81}, {"time": 954, "pitch": 53, "duration": 10, "velocity": 54}, {"time": 960, "pitch": 56, "duration": 5, "velocity": 72}, {"time": 960, "pitch": 60, "duration": 5, "velocity": 75}, {"time": 960, "pitch": 65, "duration": 4, "velocity": 72}, {"time": 969, "pitch": 54, "duration": 1, "velocity": 34}, {"time": 969, "pitch": 58, "duration": 1, "velocity": 10}, {"time": 972, "pitch": 39, "duration": 18, "velocity": 67}, {"time": 972, "pitch": 54, "duration": 10, "velocity": 69}, {"time": 972, "pitch": 58, "duration": 11, "velocity": 74}, {"time": 972, "pitch": 63, "duration": 11, "velocity": 73}, {"time": 978, "pitch": 46, "duration": 13, "velocity": 66}, {"time": 984, "pitch": 54, "duration": 6, "velocity": 85}, {"time": 984, "pitch": 58, "duration": 6, "velocity": 79}, {"time": 984, "pitch": 63, "duration": 6, "velocity": 77}, {"time": 990, "pitch": 51, "duration": 4, "velocity": 58}, {"time": 996, "pitch": 41, "duration": 24, "velocity": 51}, {"time": 996, "pitch": 45, "duration": 24, "velocity": 71}, {"time": 996, "pitch": 48, "duration": 24, "velocity": 74}, {"time": 996, "pitch": 53, "duration": 24, "velocity": 63}, {"time": 996, "pitch": 57, "duration": 24, "velocity": 68}, {"time": 996, "pitch": 60, "duration": 23, "velocity": 75}, {"time": 996, "pitch": 65, "duration": 22, "velocity": 63}, {"time": 1020, "pitch": 42, "duration": 13, "velocity": 73}, {"time": 1020, "pitch": 53, "duration": 1, "velocity": 66}, {"time": 1020, "pitch": 58, "duration": 13, "velocity": 73}, {"time": 1020, "pitch": 65, "duration": 3, "velocity": 73}, {"time": 1023, "pitch": 63, "duration": 2, "velocity": 64}, {"time": 1026, "pitch": 65, "duration": 3, "velocity": 68}, {"time": 1029, "pitch": 63, "duration": 2, "velocity": 63}, {"time": 1032, "pitch": 65, "duration": 3, "velocity": 66}, {"time": 1035, "pitch": 68, "duration": 3, "velocity": 67}, {"time": 1038, "pitch": 49, "duration": 23, "velocity": 69}, {"time": 1038, "pitch": 53, "duration": 23, "velocity": 62}, {"time": 1038, "pitch": 56, "duration": 23, "velocity": 67}, {"time": 1038, "pitch": 60, "duration": 23, "velocity": 61}, {"time": 1038, "pitch": 65, "duration": 24, "velocity": 72}, {"time": 1068, "pitch": 42, "duration": 14, "velocity": 72}, {"time": 1068, "pitch": 49, "duration": 14, "velocity": 90}, {"time": 1068, "pitch": 53, "duration": 14, "velocity": 65}, {"time": 1068, "pitch": 61, "duration": 3, "velocity": 79}, {"time": 1071, "pitch": 60, "duration": 3, "velocity": 63}, {"time": 1074, "pitch": 61, "duration": 3, "velocity": 66}, {"time": 1077, "pitch": 60, "duration": 2, "velocity": 63}, {"time": 1080, "pitch": 61, "duration": 2, "velocity": 72}, {"time": 1083, "pitch": 63, "duration": 3, "velocity": 74}, {"time": 1086, "pitch": 37, "duration": 23, "velocity": 66}, {"time": 1086, "pitch": 48, "duration": 22, "velocity": 62}, {"time": 1086, "pitch": 53, "duration": 20, "velocity": 68}, {"time": 1086, "pitch": 56, "duration": 25, "velocity": 67}, {"time": 1116, "pitch": 42, "duration": 16, "velocity": 73}, {"time": 1116, "pitch": 49, "duration": 15, "velocity": 87}, {"time": 1116, "pitch": 53, "duration": 15, "velocity": 64}, {"time": 1116, "pitch": 65, "duration": 3, "velocity": 90}, {"time": 1119, "pitch": 63, "duration": 2, "velocity": 64}, {"time": 1122, "pitch": 65, "duration": 2, "velocity": 67}, {"time": 1125, "pitch": 63, "duration": 2, "velocity": 67}, {"time": 1128, "pitch": 65, "duration": 2, "velocity": 74}, {"time": 1131, "pitch": 68, "duration": 2, "velocity": 85}, {"time": 1134, "pitch": 49, "duration": 26, "velocity": 70}, {"time": 1134, "pitch": 53, "duration": 26, "velocity": 67}, {"time": 1134, "pitch": 60, "duration": 15, "velocity": 60}, {"time": 1134, "pitch": 65, "duration": 25, "velocity": 68}, {"time": 1155, "pitch": 60, "duration": 7, "velocity": 70}, {"time": 1164, "pitch": 42, "duration": 16, "velocity": 58}, {"time": 1164, "pitch": 49, "duration": 16, "velocity": 64}, {"time": 1164, "pitch": 53, "duration": 16, "velocity": 59}, {"time": 1164, "pitch": 61, "duration": 3, "velocity": 79}, {"time": 1167, "pitch": 60, "duration": 3, "velocity": 63}, {"time": 1170, "pitch": 61, "duration": 3, "velocity": 74}, {"time": 1173, "pitch": 60, "duration": 3, "velocity": 63}, {"time": 1176, "pitch": 61, "duration": 3, "velocity": 81}, {"time": 1182, "pitch": 49, "duration": 25, "velocity": 59}, {"time": 1182, "pitch": 53, "duration": 25, "velocity": 67}, {"time": 1182, "pitch": 56, "duration": 25, "velocity": 60}, {"time": 1182, "pitch": 60, "duration": 28, "velocity": 71}, {"time": 1212, "pitch": 42, "duration": 24, "velocity": 73}, {"time": 1212, "pitch": 58, "duration": 9, "velocity": 67}, {"time": 1212, "pitch": 61, "duration": 10, "velocity": 74}, {"time": 1212, "pitch": 66, "duration": 10, "velocity": 73}, {"time": 1224, "pitch": 58, "duration": 6, "velocity": 70}, {"time": 1224, "pitch": 61, "duration": 7, "velocity": 74}, {"time": 1224, "pitch": 66, "duration": 10, "velocity": 76}, {"time": 1236, "pitch": 49, "duration": 23, "velocity": 70}, {"time": 1236, "pitch": 60, "duration": 10, "velocity": 71}, {"time": 1236, "pitch": 65, "duration": 10, "velocity": 74}, {"time": 1248, "pitch": 63, "duration": 3, "velocity": 86}, {"time": 1251, "pitch": 60, "duration": 3, "velocity": 64}, {"time": 1254, "pitch": 56, "duration": 4, "velocity": 74}, {"time": 1260, "pitch": 42, "duration": 24, "velocity": 72}, {"time": 1260, "pitch": 58, "duration": 9, "velocity": 59}, {"time": 1260, "pitch": 61, "duration": 10, "velocity": 65}, {"time": 1260, "pitch": 66, "duration": 10, "velocity": 66}, {"time": 1272, "pitch": 58, "duration": 8, "velocity": 68}, {"time": 1272, "pitch": 61, "duration": 10, "velocity": 69}, {"time": 1272, "pitch": 66, "duration": 11, "velocity": 74}, {"time": 1284, "pitch": 49, "duration": 19, "velocity": 62}, {"time": 1284, "pitch": 60, "duration": 8, "velocity": 63}, {"time": 1284, "pitch": 65, "duration": 10, "velocity": 68}, {"time": 1293, "pitch": 61, "duration": 2, "velocity": 63}, {"time": 1296, "pitch": 60, "duration": 7, "velocity": 65}, {"time": 1296, "pitch": 68, "duration": 3, "velocity": 75}, {"time": 1299, "pitch": 70, "duration": 6, "velocity": 86}, {"time": 1308, "pitch": 42, "duration": 24, "velocity": 69}, {"time": 1308, "pitch": 58, "duration": 9, "velocity": 67}, {"time": 1308, "pitch": 61, "duration": 9, "velocity": 72}, {"time": 1320, "pitch": 58, "duration": 7, "velocity": 60}, {"time": 1320, "pitch": 61, "duration": 7, "velocity": 65}, {"time": 1332, "pitch": 49, "duration": 24, "velocity": 71}, {"time": 1332, "pitch": 60, "duration": 10, "velocity": 62}, {"time": 1332, "pitch": 63, "duration": 10, "velocity": 60}, {"time": 1332, "pitch": 68, "duration": 10, "velocity": 64}, {"time": 1344, "pitch": 63, "duration": 3, "velocity": 74}, {"time": 1344, "pitch": 68, "duration": 9, "velocity": 76}, {"time": 1347, "pitch": 60, "duration": 3, "velocity": 63}, {"time": 1350, "pitch": 56, "duration": 4, "velocity": 72}, {"time": 1356, "pitch": 42, "duration": 20, "velocity": 65}, {"time": 1356, "pitch": 58, "duration": 10, "velocity": 64}, {"time": 1356, "pitch": 61, "duration": 11, "velocity": 68}, {"time": 1356, "pitch": 66, "duration": 10, "velocity": 72}, {"time": 1362, "pitch": 49, "duration": 18, "velocity": 65}, {"time": 1368, "pitch": 58, "duration": 9, "velocity": 63}, {"time": 1368, "pitch": 61, "duration": 10, "velocity": 74}, {"time": 1368, "pitch": 66, "duration": 9, "velocity": 75}, {"time": 1377, "pitch": 63, "duration": 26, "velocity": 60}, {"time": 1378, "pitch": 65, "duration": 1, "velocity": 62}, {"time": 1380, "pitch": 42, "duration": 23, "velocity": 76}, {"time": 1380, "pitch": 54, "duration": 20, "velocity": 62}, {"time": 1380, "pitch": 66, "duration": 23, "velocity": 85}, {"time": 1404, "pitch": 42, "duration": 23, "velocity": 74}, {"time": 1404, "pitch": 58, "duration": 10, "velocity": 59}, {"time": 1404, "pitch": 61, "duration": 10, "velocity": 69}, {"time": 1404, "pitch": 66, "duration": 10, "velocity": 67}, {"time": 1416, "pitch": 58, "duration": 6, "velocity": 72}, {"time": 1416, "pitch": 61, "duration": 6, "velocity": 74}, {"time": 1416, "pitch": 66, "duration": 6, "velocity": 77}, {"time": 1428, "pitch": 49, "duration": 20, "velocity": 74}, {"time": 1428, "pitch": 60, "duration": 10, "velocity": 69}, {"time": 1428, "pitch": 65, "duration": 10, "velocity": 72}, {"time": 1440, "pitch": 60, "duration": 6, "velocity": 76}, {"time": 1440, "pitch": 72, "duration": 4, "velocity": 93}, {"time": 1443, "pitch": 68, "duration": 3, "velocity": 72}, {"time": 1446, "pitch": 63, "duration": 4, "velocity": 65}, {"time": 1452, "pitch": 42, "duration": 24, "velocity": 76}, {"time": 1452, "pitch": 58, "duration": 10, "velocity": 63}, {"time": 1452, "pitch": 61, "duration": 10, "velocity": 68}, {"time": 1452, "pitch": 66, "duration": 10, "velocity": 59}, {"time": 1464, "pitch": 58, "duration": 7, "velocity": 74}, {"time": 1464, "pitch": 61, "duration": 9, "velocity": 74}, {"time": 1464, "pitch": 66, "duration": 11, "velocity": 85}, {"time": 1476, "pitch": 49, "duration": 22, "velocity": 74}, {"time": 1476, "pitch": 60, "duration": 10, "velocity": 71}, {"time": 1476, "pitch": 65, "duration": 10, "velocity": 76}, {"time": 1488, "pitch": 60, "duration": 5, "velocity": 71}, {"time": 1488, "pitch": 73, "duration": 3, "velocity": 76}, {"time": 1491, "pitch": 72, "duration": 3, "velocity": 62}, {"time": 1494, "pitch": 65, "duration": 5, "velocity": 60}, {"time": 1500, "pitch": 42, "duration": 24, "velocity": 65}, {"time": 1500, "pitch": 58, "duration": 11, "velocity": 64}, {"time": 1500, "pitch": 61, "duration": 11, "velocity": 68}, {"time": 1500, "pitch": 66, "duration": 10, "velocity": 73}, {"time": 1512, "pitch": 58, "duration": 6, "velocity": 72}, {"time": 1512, "pitch": 61, "duration": 7, "velocity": 76}, {"time": 1512, "pitch": 66, "duration": 10, "velocity": 83}, {"time": 1524, "pitch": 49, "duration": 22, "velocity": 73}, {"time": 1524, "pitch": 60, "duration": 10, "velocity": 77}, {"time": 1524, "pitch": 65, "duration": 10, "velocity": 75}, {"time": 1536, "pitch": 60, "duration": 9, "velocity": 73}, {"time": 1536, "pitch": 73, "duration": 3, "velocity": 85}, {"time": 1539, "pitch": 72, "duration": 3, "velocity": 60}, {"time": 1542, "pitch": 70, "duration": 4, "velocity": 62}, {"time": 1548, "pitch": 42, "duration": 22, "velocity": 72}, {"time": 1548, "pitch": 58, "duration": 10, "velocity": 61}, {"time": 1548, "pitch": 61, "duration": 10, "velocity": 67}, {"time": 1554, "pitch": 49, "duration": 16, "velocity": 54}, {"time": 1560, "pitch": 58, "duration": 10, "velocity": 66}, {"time": 1560, "pitch": 61, "duration": 10, "velocity": 73}, {"time": 1560, "pitch": 66, "duration": 9, "velocity": 72}, {"time": 1566, "pitch": 54, "duration": 4, "velocity": 55}, {"time": 1572, "pitch": 42, "duration": 17, "velocity": 77}, {"time": 1572, "pitch": 58, "duration": 10, "velocity": 63}, {"time": 1572, "pitch": 61, "duration": 11, "velocity": 70}, {"time": 1572, "pitch": 66, "duration": 10, "velocity": 56}, {"time": 1578, "pitch": 49, "duration": 12, "velocity": 75}, {"time": 1584, "pitch": 58, "duration": 6, "velocity": 75}, {"time": 1584, "pitch": 61, "duration": 6, "velocity": 81}, {"time": 1584, "pitch": 66, "duration": 7, "velocity": 87}, {"time": 1596, "pitch": 41, "duration": 16, "velocity": 77}, {"time": 1596, "pitch": 57, "duration": 4, "velocity": 71}, {"time": 1596, "pitch": 60, "duration": 4, "velocity": 86}, {"time": 1596, "pitch": 65, "duration": 4, "velocity": 75}, {"time": 1602, "pitch": 48, "duration": 10, "velocity": 59}, {"time": 1602, "pitch": 53, "duration": 9, "velocity": 51}, {"time": 1602, "pitch": 57, "duration": 4, "velocity": 81}, {"time": 1602, "pitch": 60, "duration": 4, "velocity": 81}, {"time": 1602, "pitch": 65, "duration": 3, "velocity": 68}, {"time": 1608, "pitch": 45, "duration": 4, "velocity": 2}, {"time": 1608, "pitch": 57, "duration": 3, "velocity": 90}, {"time": 1608, "pitch": 60, "duration": 3, "velocity": 93}, {"time": 1608, "pitch": 65, "duration": 2, "velocity": 74}, {"time": 1614, "pitch": 41, "duration": 4, "velocity": 63}, {"time": 1614, "pitch": 45, "duration": 4, "velocity": 62}, {"time": 1614, "pitch": 48, "duration": 4, "velocity": 69}, {"time": 1614, "pitch": 53, "duration": 4, "velocity": 63}, {"time": 1614, "pitch": 57, "duration": 4, "velocity": 74}, {"time": 1614, "pitch": 60, "duration": 3, "velocity": 81}, {"time": 1620, "pitch": 41, "duration": 2, "velocity": 96}, {"time": 1620, "pitch": 45, "duration": 2, "velocity": 96}, {"time": 1620, "pitch": 48, "duration": 2, "velocity": 96}, {"time": 1620, "pitch": 53, "duration": 2, "velocity": 96}, {"time": 1620, "pitch": 57, "duration": 3, "velocity": 96}, {"time": 1620, "pitch": 60, "duration": 2, "velocity": 96}, {"time": 1620, "pitch": 65, "duration": 2, "velocity": 96}, {"time": 1632, "pitch": 54, "duration": 10, "velocity": 75}, {"time": 1632, "pitch": 58, "duration": 10, "velocity": 72}, {"time": 1632, "pitch": 63, "duration": 10, "velocity": 77}, {"time": 1632, "pitch": 65, "duration": 10, "velocity": 70}, {"time": 1644, "pitch": 42, "duration": 42, "velocity": 60}, {"time": 1644, "pitch": 49, "duration": 43, "velocity": 76}, {"time": 1644, "pitch": 54, "duration": 40, "velocity": 58}, {"time": 1644, "pitch": 58, "duration": 9, "velocity": 70}, {"time": 1644, "pitch": 61, "duration": 9, "velocity": 75}, {"time": 1644, "pitch": 66, "duration": 9, "velocity": 81}, {"time": 1656, "pitch": 58, "duration": 10, "velocity": 76}, {"time": 1656, "pitch": 61, "duration": 11, "velocity": 85}, {"time": 1656, "pitch": 66, "duration": 10, "velocity": 87}, {"time": 1668, "pitch": 58, "duration": 10, "velocity": 73}, {"time": 1668, "pitch": 61, "duration": 10, "velocity": 83}, {"time": 1668, "pitch": 66, "duration": 10, "velocity": 85}, {"time": 1680, "pitch": 58, "duration": 7, "velocity": 74}, {"time": 1680, "pitch": 61, "duration": 7, "velocity": 81}, {"time": 1680, "pitch": 66, "duration": 7, "velocity": 86}, {"time": 1692, "pitch": 41, "duration": 42, "velocity": 59}, {"time": 1692, "pitch": 48, "duration": 42, "velocity": 68}, {"time": 1692, "pitch": 53, "duration": 40, "velocity": 59}, {"time": 1692, "pitch": 56, "duration": 10, "velocity": 61}, {"time": 1692, "pitch": 63, "duration": 10, "velocity": 69}, {"time": 1695, "pitch": 60, "duration": 8, "velocity": 11}, {"time": 1704, "pitch": 56, "duration": 10, "velocity": 76}, {"time": 1704, "pitch": 60, "duration": 10, "velocity": 79}, {"time": 1704, "pitch": 63, "duration": 10, "velocity": 74}, {"time": 1716, "pitch": 56, "duration": 10, "velocity": 67}, {"time": 1716, "pitch": 60, "duration": 10, "velocity": 69}, {"time": 1716, "pitch": 63, "duration": 10, "velocity": 71}, {"time": 1728, "pitch": 56, "duration": 6, "velocity": 77}, {"time": 1728, "pitch": 60, "duration": 5, "velocity": 75}, {"time": 1728, "pitch": 63, "duration": 5, "velocity": 76}, {"time": 1740, "pitch": 39, "duration": 18, "velocity": 65}, {"time": 1740, "pitch": 54, "duration": 11, "velocity": 74}, {"time": 1740, "pitch": 58, "duration": 11, "velocity": 61}, {"time": 1746, "pitch": 46, "duration": 13, "velocity": 72}, {"time": 1752, "pitch": 54, "duration": 6, "velocity": 67}, {"time": 1752, "pitch": 58, "duration": 6, "velocity": 71}, {"time": 1752, "pitch": 63, "duration": 6, "velocity": 76}, {"time": 1758, "pitch": 51, "duration": 5, "velocity": 55}, {"time": 1764, "pitch": 41, "duration": 18, "velocity": 60}, {"time": 1764, "pitch": 56, "duration": 11, "velocity": 60}, {"time": 1764, "pitch": 60, "duration": 11, "velocity": 57}, {"time": 1764, "pitch": 65, "duration": 11, "velocity": 67}, {"time": 1770, "pitch": 48, "duration": 12, "velocity": 75}, {"time": 1776, "pitch": 56, "duration": 6, "velocity": 74}, {"time": 1776, "pitch": 60, "duration": 6, "velocity": 77}, {"time": 1776, "pitch": 65, "duration": 6, "velocity": 74}, {"time": 1782, "pitch": 53, "duration": 6, "velocity": 60}, {"time": 1788, "pitch": 46, "duration": 37, "velocity": 52}, {"time": 1788, "pitch": 53, "duration": 39, "velocity": 72}, {"time": 1788, "pitch": 58, "duration": 36, "velocity": 57}, {"time": 1788, "pitch": 62, "duration": 9, "velocity": 85}, {"time": 1788, "pitch": 65, "duration": 7, "velocity": 81}, {"time": 1788, "pitch": 70, "duration": 7, "velocity": 72}, {"time": 1797, "pitch": 50, "duration": 13, "velocity": 37}, {"time": 1800, "pitch": 62, "duration": 10, "velocity": 83}, {"time": 1800, "pitch": 65, "duration": 11, "velocity": 77}, {"time": 1800, "pitch": 70, "duration": 10, "velocity": 67}, {"time": 1812, "pitch": 62, "duration": 10, "velocity": 77}, {"time": 1812, "pitch": 65, "duration": 10, "velocity": 75}, {"time": 1812, "pitch": 70, "duration": 10, "velocity": 64}, {"time": 1824, "pitch": 62, "duration": 5, "velocity": 54}, {"time": 1824, "pitch": 65, "duration": 5, "velocity": 54}, {"time": 1824, "pitch": 70, "duration": 4, "velocity": 54}, {"time": 1830, "pitch": 44, "duration": 2, "velocity": 87}, {"time": 1836, "pitch": 42, "duration": 44, "velocity": 79}, {"time": 1836, "pitch": 58, "duration": 10, "velocity": 66}, {"time": 1836, "pitch": 61, "duration": 10, "velocity": 65}, {"time": 1836, "pitch": 66, "duration": 9, "velocity": 60}, {"time": 1842, "pitch": 49, "duration": 37, "velocity": 79}, {"time": 1848, "pitch": 58, "duration": 10, "velocity": 83}, {"time": 1848, "pitch": 61, "duration": 10, "velocity": 86}, {"time": 1848, "pitch": 66, "duration": 10, "velocity": 86}, {"time": 1854, "pitch": 54, "duration": 10, "velocity": 54}, {"time": 1860, "pitch": 58, "duration": 10, "velocity": 66}, {"time": 1860, "pitch": 61, "duration": 11, "velocity": 73}, {"time": 1860, "pitch": 66, "duration": 10, "velocity": 73}, {"time": 1866, "pitch": 54, "duration": 8, "velocity": 54}, {"time": 1872, "pitch": 58, "duration": 6, "velocity": 68}, {"time": 1872, "pitch": 61, "duration": 6, "velocity": 76}, {"time": 1872, "pitch": 66, "duration": 6, "velocity": 83}, {"time": 1878, "pitch": 54, "duration": 2, "velocity": 59}, {"time": 1884, "pitch": 41, "duration": 42, "velocity": 71}, {"time": 1884, "pitch": 56, "duration": 11, "velocity": 69}, {"time": 1884, "pitch": 60, "duration": 11, "velocity": 74}, {"time": 1884, "pitch": 65, "duration": 11, "velocity": 75}, {"time": 1890, "pitch": 48, "duration": 35, "velocity": 73}, {"time": 1896, "pitch": 56, "duration": 10, "velocity": 75}, {"time": 1896, "pitch": 60, "duration": 10, "velocity": 79}, {"time": 1896, "pitch": 65, "duration": 10, "velocity": 76}, {"time": 1902, "pitch": 53, "duration": 11, "velocity": 56}, {"time": 1908, "pitch": 56, "duration": 10, "velocity": 74}, {"time": 1908, "pitch": 60, "duration": 10, "velocity": 79}, {"time": 1908, "pitch": 65, "duration": 10, "velocity": 81}, {"time": 1914, "pitch": 53, "duration": 10, "velocity": 54}, {"time": 1920, "pitch": 56, "duration": 5, "velocity": 72}, {"time": 1920, "pitch": 60, "duration": 5, "velocity": 75}, {"time": 1920, "pitch": 65, "duration": 4, "velocity": 72}, {"time": 1929, "pitch": 54, "duration": 1, "velocity": 34}, {"time": 1929, "pitch": 58, "duration": 1, "velocity": 10}, {"time": 1932, "pitch": 39, "duration": 18, "velocity": 67}, {"time": 1932, "pitch": 54, "duration": 10, "velocity": 69}, {"time": 1932, "pitch": 58, "duration": 11, "velocity": 74}, {"time": 1932, "pitch": 63, "duration": 11, "velocity": 73}, {"time": 1938, "pitch": 46, "duration": 13, "velocity": 66}, {"time": 1944, "pitch": 54, "duration": 6, "velocity": 85}, {"time": 1944, "pitch": 58, "duration": 6, "velocity": 79}, {"time": 1944, "pitch": 63, "duration": 6, "velocity": 77}, {"time": 1950, "pitch": 51, "duration": 4, "velocity": 58}, {"time": 1956, "pitch": 41, "duration": 24, "velocity": 51}, {"time": 1956, "pitch": 45, "duration": 24, "velocity": 71}, {"time": 1956, "pitch": 48, "duration": 24, "velocity": 74}, {"time": 1956, "pitch": 53, "duration": 24, "velocity": 63}, {"time": 1956, "pitch": 57, "duration": 24, "velocity": 68}, {"time": 1956, "pitch": 60, "duration": 23, "velocity": 75}, {"time": 1956, "pitch": 65, "duration": 22, "velocity": 63}, {"time": 1980, "pitch": 42, "duration": 24, "velocity": 60}, {"time": 1980, "pitch": 49, "duration": 24, "velocity": 87}, {"time": 1980, "pitch": 54, "duration": 24, "velocity": 61}, {"time": 1980, "pitch": 58, "duration": 10, "velocity": 70}, {"time": 1980, "pitch": 61, "duration": 10, "velocity": 77}, {"time": 1980, "pitch": 65, "duration": 10, "velocity": 68}, {"time": 1992, "pitch": 58, "duration": 11, "velocity": 74}, {"time": 1992, "pitch": 61, "duration": 11, "velocity": 81}, {"time": 1992, "pitch": 65, "duration": 11, "velocity": 93}, {"time": 2004, "pitch": 49, "duration": 24, "velocity": 67}, {"time": 2004, "pitch": 56, "duration": 21, "velocity": 63}, {"time": 2004, "pitch": 60, "duration": 24, "velocity": 56}, {"time": 2004, "pitch": 65, "duration": 11, "velocity": 76}, {"time": 2004, "pitch": 72, "duration": 11, "velocity": 86}, {"time": 2016, "pitch": 65, "duration": 10, "velocity": 75}, {"time": 2016, "pitch": 72, "duration": 12, "velocity": 85}, {"time": 2028, "pitch": 42, "duration": 23, "velocity": 62}, {"time": 2028, "pitch": 49, "duration": 23, "velocity": 72}, {"time": 2028, "pitch": 53, "duration": 22, "velocity": 58}, {"time": 2028, "pitch": 58, "duration": 11, "velocity": 66}, {"time": 2028, "pitch": 61, "duration": 11, "velocity": 71}, {"time": 2028, "pitch": 65, "duration": 11, "velocity": 67}, {"time": 2040, "pitch": 58, "duration": 10, "velocity": 73}, {"time": 2040, "pitch": 61, "duration": 10, "velocity": 77}, {"time": 2040, "pitch": 65, "duration": 10, "velocity": 86}, {"time": 2052, "pitch": 49, "duration": 24, "velocity": 76}, {"time": 2052, "pitch": 56, "duration": 24, "velocity": 74}, {"time": 2052, "pitch": 61, "duration": 10, "velocity": 68}, {"time": 2052, "pitch": 68, "duration": 10, "velocity": 83}, {"time": 2052, "pitch": 72, "duration": 10, "velocity": 70}, {"time": 2064, "pitch": 61, "duration": 12, "velocity": 73}, {"time": 2064, "pitch": 68, "duration": 11, "velocity": 83}, {"time": 2064, "pitch": 72, "duration": 12, "velocity": 87}, {"time": 2076, "pitch": 42, "duration": 17, "velocity": 43}, {"time": 2076, "pitch": 49, "duration": 1, "velocity": 72}, {"time": 2076, "pitch": 54, "duration": 19, "velocity": 63}, {"time": 2076, "pitch": 58, "duration": 11, "velocity": 68}, {"time": 2076, "pitch": 61, "duration": 11, "velocity": 73}, {"time": 2076, "pitch": 65, "duration": 11, "velocity": 74}, {"time": 2088, "pitch": 58, "duration": 6, "velocity": 74}, {"time": 2088, "pitch": 61, "duration": 6, "velocity": 77}, {"time": 2088, "pitch": 65, "duration": 5, "velocity": 77}, {"time": 2100, "pitch": 49, "duration": 19, "velocity": 68}, {"time": 2100, "pitch": 56, "duration": 11, "velocity": 66}, {"time": 2100, "pitch": 60, "duration": 11, "velocity": 59}, {"time": 2100, "pitch": 65, "duration": 11, "velocity": 70}, {"time": 2100, "pitch": 72, "duration": 11, "velocity": 81}, {"time": 2112, "pitch": 56, "duration": 6, "velocity": 63}, {"time": 2112, "pitch": 60, "duration": 5, "velocity": 59}, {"time": 2112, "pitch": 65, "duration": 7, "velocity": 77}, {"time": 2112, "pitch": 72, "duration": 6, "velocity": 85}, {"time": 2124, "pitch": 42, "duration": 47, "velocity": 59}, {"time": 2124, "pitch": 49, "duration": 46, "velocity": 83}, {"time": 2124, "pitch": 54, "duration": 46, "velocity": 59}, {"time": 2124, "pitch": 58, "duration": 10, "velocity": 65}, {"time": 2124, "pitch": 61, "duration": 10, "velocity": 70}, {"time": 2124, "pitch": 66, "duration": 11, "velocity": 74}, {"time": 2136, "pitch": 58, "duration": 10, "velocity": 76}, {"time": 2136, "pitch": 61, "duration": 10, "velocity": 79}, {"time": 2136, "pitch": 66, "duration": 10, "velocity": 86}, {"time": 2148, "pitch": 58, "duration": 10, "velocity": 67}, {"time": 2148, "pitch": 61, "duration": 10, "velocity": 74}, {"time": 2148, "pitch": 66, "duration": 10, "velocity": 83}, {"time": 2160, "pitch": 58, "duration": 10, "velocity": 86}, {"time": 2160, "pitch": 61, "duration": 10, "velocity": 86}, {"time": 2160, "pitch": 66, "duration": 10, "velocity": 86}, {"time": 2172, "pitch": 41, "duration": 84, "velocity": 45}, {"time": 2172, "pitch": 45, "duration": 84, "velocity": 58}, {"time": 2172, "pitch": 48, "duration": 84, "velocity": 59}, {"time": 2172, "pitch": 53, "duration": 84, "velocity": 52}, {"time": 2172, "pitch": 60, "duration": 1, "velocity": 49}, {"time": 2175, "pitch": 57, "duration": 1, "velocity": 52}, {"time": 2175, "pitch": 60, "duration": 1, "velocity": 56}, {"time": 2178, "pitch": 57, "duration": 1, "velocity": 63}, {"time": 2178, "pitch": 60, "duration": 1, "velocity": 73}, {"time": 2181, "pitch": 57, "duration": 1, "velocity": 58}, {"time": 2181, "pitch": 60, "duration": 1, "velocity": 61}, {"time": 2184, "pitch": 57, "duration": 1, "velocity": 66}, {"time": 2184, "pitch": 60, "duration": 1, "velocity": 68}, {"time": 2187, "pitch": 57, "duration": 1, "velocity": 64}, {"time": 2187, "pitch": 60, "duration": 1, "velocity": 72}, {"time": 2190, "pitch": 57, "duration": 1, "velocity": 60}, {"time": 2190, "pitch": 60, "duration": 1, "velocity": 73}, {"time": 2193, "pitch": 57, "duration": 1, "velocity": 66}, {"time": 2193, "pitch": 60, "duration": 1, "velocity": 73}, {"time": 2196, "pitch": 57, "duration": 1, "velocity": 73}, {"time": 2196, "pitch": 60, "duration": 1, "velocity": 81}, {"time": 2199, "pitch": 57, "duration": 1, "velocity": 72}, {"time": 2199, "pitch": 60, "duration": 1, "velocity": 75}, {"time": 2202, "pitch": 57, "duration": 1, "velocity": 63}, {"time": 2202, "pitch": 60, "duration": 1, "velocity": 72}, {"time": 2205, "pitch": 57, "duration": 1, "velocity": 77}, {"time": 2205, "pitch": 60, "duration": 1, "velocity": 85}, {"time": 2208, "pitch": 57, "duration": 1, "velocity": 70}, {"time": 2208, "pitch": 60, "duration": 1, "velocity": 75}, {"time": 2211, "pitch": 57, "duration": 1, "velocity": 74}, {"time": 2211, "pitch": 60, "duration": 1, "velocity": 81}, {"time": 2214, "pitch": 57, "duration": 1, "velocity": 71}, {"time": 2214, "pitch": 60, "duration": 1, "velocity": 79}, {"time": 2217, "pitch": 57, "duration": 1, "velocity": 67}, {"time": 2217, "pitch": 60, "duration": 1, "velocity": 77}, {"time": 2220, "pitch": 57, "duration": 1, "velocity": 72}, {"time": 2220, "pitch": 60, "duration": 1, "velocity": 86}, {"time": 2223, "pitch": 57, "duration": 1, "velocity": 77}, {"time": 2223, "pitch": 60, "duration": 1, "velocity": 83}, {"time": 2226, "pitch": 57, "duration": 1, "velocity": 65}, {"time": 2226, "pitch": 60, "duration": 1, "velocity": 70}, {"time": 2229, "pitch": 57, "duration": 1, "velocity": 69}, {"time": 2229, "pitch": 60, "duration": 1, "velocity": 79}, {"time": 2232, "pitch": 57, "duration": 1, "velocity": 87}, {"time": 2232, "pitch": 60, "duration": 1, "velocity": 87}, {"time": 2235, "pitch": 57, "duration": 1, "velocity": 79}, {"time": 2235, "pitch": 60, "duration": 1, "velocity": 87}, {"time": 2238, "pitch": 57, "duration": 1, "velocity": 100}, {"time": 2238, "pitch": 60, "duration": 1, "velocity": 100}, {"time": 2238, "pitch": 65, "duration": 1, "velocity": 87}, {"time": 2241, "pitch": 57, "duration": 1, "velocity": 93}, {"time": 2241, "pitch": 60, "duration": 1, "velocity": 100}, {"time": 2241, "pitch": 65, "duration": 1, "velocity": 100}, {"time": 2244, "pitch": 57, "duration": 1, "velocity": 98}, {"time": 2244, "pitch": 60, "duration": 1, "velocity": 108}, {"time": 2244, "pitch": 65, "duration": 1, "velocity": 108}, {"time": 2247, "pitch": 57, "duration": 1, "velocity": 100}, {"time": 2247, "pitch": 60, "duration": 1, "velocity": 108}, {"time": 2247, "pitch": 65, "duration": 1, "velocity": 111}, {"time": 2250, "pitch": 57, "duration": 1, "velocity": 95}, {"time": 2250, "pitch": 60, "duration": 1, "velocity": 104}, {"time": 2250, "pitch": 65, "duration": 1, "velocity": 108}, {"time": 2253, "pitch": 57, "duration": 1, "velocity": 87}, {"time": 2253, "pitch": 60, "duration": 1, "velocity": 100}, {"time": 2253, "pitch": 65, "duration": 1, "velocity": 90}, {"time": 2256, "pitch": 46, "duration": 4, "velocity": 95}, {"time": 2256, "pitch": 61, "duration": 3, "velocity": 74}, {"time": 2256, "pitch": 65, "duration": 3, "velocity": 77}, {"time": 2256, "pitch": 70, "duration": 3, "velocity": 76}, {"time": 2262, "pitch": 44, "duration": 4, "velocity": 83}, {"time": 2262, "pitch": 60, "duration": 4, "velocity": 71}, {"time": 2262, "pitch": 63, "duration": 4, "velocity": 77}, {"time": 2262, "pitch": 68, "duration": 3, "velocity": 87}, {"time": 2268, "pitch": 42, "duration": 11, "velocity": 59}, {"time": 2268, "pitch": 42, "duration": 11, "velocity": 87}, {"time": 2268, "pitch": 49, "duration": 13, "velocity": 85}, {"time": 2268, "pitch": 54, "duration": 14, "velocity": 61}, {"time": 2268, "pitch": 58, "duration": 10, "velocity": 71}, {"time": 2268, "pitch": 58, "duration": 10, "velocity": 77}, {"time": 2268, "pitch": 61, "duration": 10, "velocity": 75}, {"time": 2268, "pitch": 61, "duration": 10, "velocity": 93}, {"time": 2268, "pitch": 65, "duration": 13, "velocity": 76}, {"time": 2286, "pitch": 42, "duration": 25, "velocity": 63}, {"time": 2286, "pitch": 49, "duration": 25, "velocity": 83}, {"time": 2286, "pitch": 54, "duration": 23, "velocity": 60}, {"time": 2286, "pitch": 58, "duration": 17, "velocity": 81}, {"time": 2286, "pitch": 61, "duration": 17, "velocity": 83}, {"time": 2286, "pitch": 65, "duration": 17, "velocity": 95}, {"time": 2304, "pitch": 58, "duration": 6, "velocity": 77}, {"time": 2304, "pitch": 61, "duration": 6, "velocity": 77}, {"time": 2304, "pitch": 65, "duration": 6, "velocity": 90}, {"time": 2316, "pitch": 41, "duration": 13, "velocity": 70}, {"time": 2316, "pitch": 48, "duration": 13, "velocity": 86}, {"time": 2316, "pitch": 53, "duration": 12, "velocity": 66}, {"time": 2316, "pitch": 56, "duration": 13, "velocity": 64}, {"time": 2316, "pitch": 60, "duration": 13, "velocity": 71}, {"time": 2316, "pitch": 65, "duration": 13, "velocity": 73}, {"time": 2334, "pitch": 41, "duration": 26, "velocity": 79}, {"time": 2334, "pitch": 48, "duration": 25, "velocity": 81}, {"time": 2334, "pitch": 53, "duration": 13, "velocity": 58}, {"time": 2334, "pitch": 56, "duration": 16, "velocity": 87}, {"time": 2334, "pitch": 60, "duration": 16, "velocity": 83}, {"time": 2334, "pitch": 65, "duration": 16, "velocity": 85}, {"time": 2349, "pitch": 53, "duration": 4, "velocity": 58}, {"time": 2352, "pitch": 56, "duration": 7, "velocity": 67}, {"time": 2352, "pitch": 60, "duration": 6, "velocity": 66}, {"time": 2352, "pitch": 65, "duration": 7, "velocity": 75}, {"time": 2358, "pitch": 53, "duration": 2, "velocity": 65}, {"time": 2364, "pitch": 39, "duration": 12, "velocity": 85}, {"time": 2364, "pitch": 54, "duration": 11, "velocity": 71}, {"time": 2364, "pitch": 58, "duration": 11, "velocity": 74}, {"time": 2364, "pitch": 63, "duration": 11, "velocity": 74}, {"time": 2370, "pitch": 46, "duration": 7, "velocity": 70}, {"time": 2376, "pitch": 51, "duration": 2, "velocity": 66}, {"time": 2382, "pitch": 44, "duration": 24, "velocity": 86}, {"time": 2382, "pitch": 60, "duration": 17, "velocity": 75}, {"time": 2382, "pitch": 63, "duration": 17, "velocity": 77}, {"time": 2382, "pitch": 68, "duration": 17, "velocity": 85}, {"time": 2391, "pitch": 51, "duration": 16, "velocity": 50}, {"time": 2391, "pitch": 56, "duration": 8, "velocity": 60}, {"time": 2400, "pitch": 60, "duration": 7, "velocity": 73}, {"time": 2400, "pitch": 63, "duration": 7, "velocity": 83}, {"time": 2400, "pitch": 68, "duration": 7, "velocity": 98}, {"time": 2406, "pitch": 56, "duration": 5, "velocity": 64}, {"time": 2412, "pitch": 46, "duration": 41, "velocity": 61}, {"time": 2412, "pitch": 50, "duration": 40, "velocity": 68}, {"time": 2412, "pitch": 53, "duration": 40, "velocity": 74}, {"time": 2412, "pitch": 58, "duration": 12, "velocity": 60}, {"time": 2412, "pitch": 62, "duration": 10, "velocity": 85}, {"time": 2412, "pitch": 65, "duration": 10, "velocity": 85}, {"time": 2412, "pitch": 70, "duration": 10, "velocity": 79}, {"time": 2412, "pitch": 73, "duration": 7, "velocity": 70}, {"time": 2424, "pitch": 62, "duration": 4, "velocity": 79}, {"time": 2424, "pitch": 65, "duration": 4, "velocity": 79}, {"time": 2424, "pitch": 70, "duration": 3, "velocity": 79}, {"time": 2427, "pitch": 58, "duration": 9, "velocity": 84}, {"time": 2430, "pitch": 62, "duration": 16, "velocity": 85}, {"time": 2430, "pitch": 65, "duration": 16, "velocity": 85}, {"time": 2430, "pitch": 70, "duration": 16, "velocity": 85}, {"time": 2439, "pitch": 58, "duration": 3, "velocity": 64}, {"time": 2445, "pitch": 58, "duration": 4, "velocity": 92}, {"time": 2448, "pitch": 62, "duration": 5, "velocity": 94}, {"time": 2448, "pitch": 65, "duration": 4, "velocity": 94}, {"time": 2448, "pitch": 70, "duration": 4, "velocity": 94}, {"time": 2460, "pitch": 42, "duration": 15, "velocity": 85}, {"time": 2460, "pitch": 58, "duration": 11, "velocity": 81}, {"time": 2460, "pitch": 61, "duration": 11, "velocity": 81}, {"time": 2460, "pitch": 66, "duration": 11, "velocity": 90}, {"time": 2463, "pitch": 49, "duration": 11, "velocity": 63}, {"time": 2466, "pitch": 54, "duration": 7, "velocity": 61}, {"time": 2472, "pitch": 58, "duration": 1, "velocity": 63}, {"time": 2472, "pitch": 61, "duration": 1, "velocity": 64}, {"time": 2472, "pitch": 66, "duration": 1, "velocity": 72}, {"time": 2475, "pitch": 42, "duration": 1, "velocity": 79}, {"time": 2478, "pitch": 49, "duration": 26, "velocity": 94}, {"time": 2478, "pitch": 58, "duration": 17, "velocity": 94}, {"time": 2478, "pitch": 61, "duration": 17, "velocity": 94}, {"time": 2478, "pitch": 66, "duration": 17, "velocity": 94}, {"time": 2481, "pitch": 54, "duration": 4, "velocity": 12}, {"time": 2487, "pitch": 54, "duration": 3, "velocity": 46}, {"time": 2493, "pitch": 54, "duration": 4, "velocity": 66}, {"time": 2496, "pitch": 58, "duration": 7, "velocity": 76}, {"time": 2496, "pitch": 61, "duration": 7, "velocity": 81}, {"time": 2496, "pitch": 66, "duration": 6, "velocity": 98}, {"time": 2499, "pitch": 54, "duration": 3, "velocity": 60}, {"time": 2508, "pitch": 41, "duration": 15, "velocity": 86}, {"time": 2508, "pitch": 56, "duration": 13, "velocity": 72}, {"time": 2508, "pitch": 60, "duration": 13, "velocity": 73}, {"time": 2508, "pitch": 65, "duration": 13, "velocity": 77}, {"time": 2514, "pitch": 48, "duration": 9, "velocity": 77}, {"time": 2517, "pitch": 53, "duration": 5, "velocity": 51}, {"time": 2523, "pitch": 56, "duration": 1, "velocity": 56}, {"time": 2526, "pitch": 41, "duration": 26, "velocity": 79}, {"time": 2526, "pitch": 56, "duration": 16, "velocity": 74}, {"time": 2526, "pitch": 60, "duration": 16, "velocity": 77}, {"time": 2526, "pitch": 65, "duration": 16, "velocity": 85}, {"time": 2535, "pitch": 48, "duration": 15, "velocity": 86}, {"time": 2541, "pitch": 53, "duration": 4, "velocity": 61}, {"time": 2544, "pitch": 56, "duration": 7, "velocity": 77}, {"time": 2544, "pitch": 60, "duration": 7, "velocity": 77}, {"time": 2544, "pitch": 65, "duration": 7, "velocity": 90}, {"time": 2550, "pitch": 53, "duration": 1, "velocity": 62}, {"time": 2556, "pitch": 39, "duration": 12, "velocity": 86}, {"time": 2556, "pitch": 54, "duration": 13, "velocity": 72}, {"time": 2556, "pitch": 58, "duration": 13, "velocity": 75}, {"time": 2556, "pitch": 63, "duration": 13, "velocity": 73}, {"time": 2562, "pitch": 46, "duration": 6, "velocity": 74}, {"time": 2565, "pitch": 51, "duration": 3, "velocity": 61}, {"time": 2574, "pitch": 41, "duration": 31, "velocity": 70}, {"time": 2574, "pitch": 57, "duration": 17, "velocity": 71}, {"time": 2574, "pitch": 60, "duration": 16, "velocity": 75}, {"time": 2574, "pitch": 65, "duration": 14, "velocity": 71}, {"time": 2583, "pitch": 48, "duration": 21, "velocity": 13}, {"time": 2589, "pitch": 53, "duration": 7, "velocity": 48}, {"time": 2592, "pitch": 57, "duration": 10, "velocity": 73}, {"time": 2592, "pitch": 60, "duration": 9, "velocity": 76}, {"time": 2628, "pitch": 42, "duration": 15, "velocity": 63}, {"time": 2628, "pitch": 65, "duration": 3, "velocity": 62}, {"time": 2631, "pitch": 63, "duration": 2, "velocity": 56}, {"time": 2634, "pitch": 49, "duration": 10, "velocity": 53}, {"time": 2634, "pitch": 65, "duration": 3, "velocity": 65}, {"time": 2637, "pitch": 63, "duration": 2, "velocity": 59}, {"time": 2640, "pitch": 53, "duration": 5, "velocity": 59}, {"time": 2640, "pitch": 65, "duration": 4, "velocity": 64}, {"time": 2646, "pitch": 49, "duration": 27, "velocity": 60}, {"time": 2646, "pitch": 53, "duration": 27, "velocity": 61}, {"time": 2646, "pitch": 60, "duration": 25, "velocity": 48}, {"time": 2646, "pitch": 60, "duration": 25, "velocity": 58}, {"time": 2676, "pitch": 54, "duration": 13, "velocity": 57}, {"time": 2676, "pitch": 58, "duration": 13, "velocity": 59}, {"time": 2676, "pitch": 65, "duration": 13, "velocity": 50}, {"time": 2676, "pitch": 70, "duration": 3, "velocity": 67}, {"time": 2679, "pitch": 68, "duration": 2, "velocity": 54}, {"time": 2682, "pitch": 70, "duration": 3, "velocity": 60}, {"time": 2685, "pitch": 68, "duration": 2, "velocity": 53}, {"time": 2688, "pitch": 70, "duration": 3, "velocity": 59}, {"time": 2691, "pitch": 68, "duration": 1, "velocity": 59}, {"time": 2694, "pitch": 49, "duration": 20, "velocity": 65}, {"time": 2694, "pitch": 53, "duration": 19, "velocity": 58}, {"time": 2694, "pitch": 60, "duration": 19, "velocity": 47}, {"time": 2694, "pitch": 68, "duration": 25, "velocity": 55}, {"time": 2715, "pitch": 63, "duration": 3, "velocity": 62}, {"time": 2718, "pitch": 56, "duration": 5, "velocity": 60}, {"time": 2724, "pitch": 42, "duration": 15, "velocity": 65}, {"time": 2724, "pitch": 65, "duration": 3, "velocity": 71}, {"time": 2727, "pitch": 49, "duration": 12, "velocity": 67}, {"time": 2727, "pitch": 63, "duration": 2, "velocity": 59}, {"time": 2730, "pitch": 53, "duration": 8, "velocity": 37}, {"time": 2730, "pitch": 65, "duration": 3, "velocity": 63}, {"time": 2733, "pitch": 63, "duration": 3, "velocity": 60}, {"time": 2736, "pitch": 65, "duration": 1, "velocity": 65}, {"time": 2742, "pitch": 49, "duration": 19, "velocity": 59}, {"time": 2742, "pitch": 53, "duration": 19, "velocity": 53}, {"time": 2742, "pitch": 60, "duration": 19, "velocity": 41}, {"time": 2763, "pitch": 60, "duration": 2, "velocity": 53}, {"time": 2766, "pitch": 49, "duration": 6, "velocity": 63}, {"time": 2772, "pitch": 61, "duration": 8, "velocity": 54}, {"time": 2778, "pitch": 49, "duration": 8, "velocity": 52}, {"time": 2787, "pitch": 54, "duration": 3, "velocity": 35}, {"time": 2790, "pitch": 61, "duration": 20, "velocity": 67}, {"time": 2796, "pitch": 66, "duration": 15, "velocity": 61}, {"time": 2808, "pitch": 63, "duration": 6, "velocity": 48}, {"time": 2814, "pitch": 57, "duration": 5, "velocity": 52}, {"time": 2817, "pitch": 63, "duration": 48, "velocity": 69}, {"time": 2843, "pitch": 41, "duration": 3, "velocity": 43}, {"time": 2847, "pitch": 41, "duration": 2, "velocity": 47}, {"time": 2851, "pitch": 41, "duration": 1, "velocity": 12}, {"time": 2852, "pitch": 41, "duration": 2, "velocity": 55}, {"time": 2855, "pitch": 41, "duration": 1, "velocity": 55}, {"time": 2856, "pitch": 41, "duration": 1, "velocity": 50}, {"time": 2861, "pitch": 41, "duration": 1, "velocity": 35}, {"time": 2863, "pitch": 41, "duration": 1, "velocity": 74}, {"time": 2864, "pitch": 41, "duration": 2, "velocity": 52}, {"time": 2867, "pitch": 41, "duration": 1, "velocity": 61}, {"time": 2868, "pitch": 41, "duration": 2, "velocity": 55}, {"time": 2871, "pitch": 41, "duration": 2, "velocity": 60}, {"time": 2873, "pitch": 41, "duration": 1, "velocity": 61}, {"time": 2874, "pitch": 41, "duration": 1, "velocity": 53}, {"time": 2876, "pitch": 41, "duration": 1, "velocity": 59}, {"time": 2879, "pitch": 41, "duration": 1, "velocity": 71}, {"time": 2881, "pitch": 41, "duration": 1, "velocity": 69}, {"time": 2882, "pitch": 41, "duration": 1, "velocity": 58}, {"time": 2884, "pitch": 41, "duration": 1, "velocity": 85}, {"time": 2886, "pitch": 41, "duration": 1, "velocity": 75}, {"time": 2887, "pitch": 41, "duration": 1, "velocity": 77}, {"time": 2889, "pitch": 41, "duration": 1, "velocity": 75}, {"time": 2890, "pitch": 41, "duration": 1, "velocity": 67}, {"time": 2892, "pitch": 41, "duration": 1, "velocity": 71}, {"time": 2894, "pitch": 41, "duration": 1, "velocity": 67}, {"time": 2895, "pitch": 41, "duration": 1, "velocity": 75}, {"time": 2897, "pitch": 41, "duration": 1, "velocity": 66}, {"time": 2898, "pitch": 41, "duration": 1, "velocity": 69}, {"time": 2900, "pitch": 41, "duration": 1, "velocity": 70}, {"time": 2902, "pitch": 41, "duration": 1, "velocity": 69}, {"time": 2904, "pitch": 41, "duration": 1, "velocity": 62}, {"time": 2905, "pitch": 41, "duration": 1, "velocity": 65}, {"time": 2907, "pitch": 41, "duration": 1, "velocity": 70}, {"time": 2909, "pitch": 41, "duration": 1, "velocity": 65}, {"time": 2911, "pitch": 41, "duration": 1, "velocity": 58}, {"time": 2912, "pitch": 41, "duration": 1, "velocity": 61}, {"time": 2916, "pitch": 41, "duration": 1, "velocity": 54}, {"time": 2917, "pitch": 41, "duration": 1, "velocity": 53}, {"time": 2919, "pitch": 41, "duration": 1, "velocity": 56}, {"time": 2921, "pitch": 41, "duration": 1, "velocity": 50}, {"time": 2923, "pitch": 41, "duration": 1, "velocity": 53}, {"time": 2925, "pitch": 41, "duration": 2, "velocity": 59}, {"time": 2928, "pitch": 41, "duration": 1, "velocity": 52}, {"time": 2931, "pitch": 41, "duration": 1, "velocity": 58}, {"time": 2933, "pitch": 41, "duration": 2, "velocity": 55}, {"time": 2938, "pitch": 41, "duration": 6, "velocity": 39}, {"time": 2943, "pitch": 68, "duration": 60, "velocity": 47}, {"time": 2946, "pitch": 37, "duration": 58, "velocity": 76}, {"time": 2946, "pitch": 65, "duration": 57, "velocity": 72}, {"time": 2949, "pitch": 61, "duration": 55, "velocity": 60}], "annotations": [{"time": 12, "annotation": {"number": 64, "value": 74}, "group": "control_change"}, {"time": 24, "annotation": {"number": 64, "value": 81}, "group": "control_change"}, {"time": 1296, "annotation": {"number": 64, "value": 72}, "group": "control_change"}, {"time": 1308, "annotation": {"number": 64, "value": 64}, "group": "control_change"}]}]}