{"metadata": {"schema_version": "0.2", "title": "None", "source_filename": "071.mid", "source_format": "midi"}, "resolution": 12, "tempos": [{"time": 0, "qpm": 69.00009660013524}, {"time": 228, "qpm": 67.00002903334591}, {"time": 288, "qpm": 69.00009660013524}, {"time": 444, "qpm": 68.0000725334107}, {"time": 588, "qpm": 65.99999340000066}, {"time": 600, "qpm": 67.00002903334591}, {"time": 684, "qpm": 64.99999458333379}, {"time": 708, "qpm": 67.00002903334591}, {"time": 888, "qpm": 69.00009660013524}, {"time": 924, "qpm": 65.99999340000066}, {"time": 972, "qpm": 68.0000725334107}, {"time": 1032, "qpm": 65.99999340000066}, {"time": 1068, "qpm": 68.0000725334107}, {"time": 1080, "qpm": 65.99999340000066}, {"time": 1140, "qpm": 68.0000725334107}, {"time": 1188, "qpm": 65.99999340000066}, {"time": 1212, "qpm": 68.0000725334107}, {"time": 1248, "qpm": 67.00002903334591}, {"time": 1392, "qpm": 65.99999340000066}, {"time": 1416, "qpm": 64.99999458333379}, {"time": 1428, "qpm": 65.99999340000066}, {"time": 1488, "qpm": 67.00002903334591}, {"time": 1668, "qpm": 68.0000725334107}, {"time": 1752, "qpm": 69.00009660013524}, {"time": 1812, "qpm": 69.99998833333528}, {"time": 1836, "qpm": 71.00003550001774}, {"time": 1872, "qpm": 69.99998833333528}, {"time": 1884, "qpm": 68.0000725334107}, {"time": 1980, "qpm": 69.99998833333528}, {"time": 2028, "qpm": 68.0000725334107}, {"time": 2100, "qpm": 69.99998833333528}, {"time": 2172, "qpm": 68.0000725334107}, {"time": 2220, "qpm": 69.00009660013524}, {"time": 2244, "qpm": 71.00003550001774}, {"time": 2268, "qpm": 69.00009660013524}, {"time": 2292, "qpm": 68.0000725334107}, {"time": 2400, "qpm": 71.00003550001774}, {"time": 2448, "qpm": 69.99998833333528}, {"time": 3084, "qpm": 61.99999586666694}, {"time": 3108, "qpm": 69.00009660013524}, {"time": 3276, "qpm": 71.00003550001774}, {"time": 3300, "qpm": 72.00002880001152}], "key_signatures": [{"time": 0, "root": 0, "mode": "major"}], "time_signatures": [{"time": 0, "numerator": 4, "denominator": 4}, {"time": 0, "numerator": 1, "denominator": 4}], "tracks": [{"program": 0, "is_drum": false, "name": "MELODY", "notes": [{"time": 207, "pitch": 62, "duration": 6, "velocity": 90}, {"time": 213, "pitch": 71, "duration": 16, "velocity": 90}, {"time": 231, "pitch": 71, "duration": 6, "velocity": 90}, {"time": 237, "pitch": 72, "duration": 6, "velocity": 90}, {"time": 243, "pitch": 71, "duration": 6, "velocity": 90}, {"time": 249, "pitch": 69, "duration": 6, "velocity": 90}, {"time": 255, "pitch": 67, "duration": 4, "velocity": 90}, {"time": 258, "pitch": 69, "duration": 14, "velocity": 90}, {"time": 273, "pitch": 69, "duration": 3, "velocity": 90}, {"time": 276, "pitch": 67, "duration": 4, "velocity": 90}, {"time": 279, "pitch": 71, "duration": 16, "velocity": 90}, {"time": 297, "pitch": 69, "duration": 5, "velocity": 90}, {"time": 303, "pitch": 71, "duration": 2, "velocity": 90}, {"time": 306, "pitch": 72, "duration": 16, "velocity": 90}, {"time": 333, "pitch": 72, "duration": 5, "velocity": 90}, {"time": 339, "pitch": 71, "duration": 3, "velocity": 90}, {"time": 342, "pitch": 69, "duration": 9, "velocity": 90}, {"time": 351, "pitch": 67, "duration": 3, "velocity": 90}, {"time": 354, "pitch": 67, "duration": 14, "velocity": 90}, {"time": 369, "pitch": 69, "duration": 4, "velocity": 90}, {"time": 375, "pitch": 69, "duration": 16, "velocity": 90}, {"time": 393, "pitch": 71, "duration": 5, "velocity": 90}, {"time": 399, "pitch": 72, "duration": 2, "velocity": 90}, {"time": 402, "pitch": 74, "duration": 20, "velocity": 90}, {"time": 423, "pitch": 74, "duration": 3, "velocity": 90}, {"time": 429, "pitch": 74, "duration": 6, "velocity": 90}, {"time": 435, "pitch": 72, "duration": 5, "velocity": 90}, {"time": 441, "pitch": 71, "duration": 7, "velocity": 90}, {"time": 447, "pitch": 69, "duration": 3, "velocity": 90}, {"time": 450, "pitch": 67, "duration": 3, "velocity": 90}, {"time": 453, "pitch": 69, "duration": 8, "velocity": 90}, {"time": 459, "pitch": 71, "duration": 5, "velocity": 90}, {"time": 465, "pitch": 72, "duration": 6, "velocity": 90}, {"time": 471, "pitch": 71, "duration": 13, "velocity": 90}, {"time": 489, "pitch": 69, "duration": 6, "velocity": 90}, {"time": 495, "pitch": 71, "duration": 3, "velocity": 90}, {"time": 498, "pitch": 74, "duration": 7, "velocity": 90}, {"time": 507, "pitch": 72, "duration": 14, "velocity": 90}, {"time": 525, "pitch": 72, "duration": 6, "velocity": 90}, {"time": 531, "pitch": 71, "duration": 6, "velocity": 90}, {"time": 537, "pitch": 69, "duration": 6, "velocity": 90}, {"time": 543, "pitch": 67, "duration": 3, "velocity": 90}, {"time": 546, "pitch": 64, "duration": 3, "velocity": 90}, {"time": 549, "pitch": 67, "duration": 6, "velocity": 90}, {"time": 555, "pitch": 69, "duration": 3, "velocity": 90}, {"time": 558, "pitch": 67, "duration": 2, "velocity": 90}, {"time": 561, "pitch": 67, "duration": 6, "velocity": 90}, {"time": 567, "pitch": 69, "duration": 19, "velocity": 90}, {"time": 591, "pitch": 62, "duration": 6, "velocity": 90}, {"time": 597, "pitch": 71, "duration": 16, "velocity": 90}, {"time": 615, "pitch": 71, "duration": 6, "velocity": 90}, {"time": 621, "pitch": 72, "duration": 6, "velocity": 90}, {"time": 627, "pitch": 71, "duration": 6, "velocity": 90}, {"time": 633, "pitch": 69, "duration": 6, "velocity": 90}, {"time": 639, "pitch": 67, "duration": 6, "velocity": 90}, {"time": 645, "pitch": 69, "duration": 10, "velocity": 90}, {"time": 657, "pitch": 69, "duration": 3, "velocity": 90}, {"time": 660, "pitch": 67, "duration": 4, "velocity": 90}, {"time": 663, "pitch": 71, "duration": 16, "velocity": 90}, {"time": 681, "pitch": 69, "duration": 5, "velocity": 90}, {"time": 687, "pitch": 71, "duration": 2, "velocity": 90}, {"time": 690, "pitch": 72, "duration": 16, "velocity": 90}, {"time": 717, "pitch": 72, "duration": 5, "velocity": 90}, {"time": 723, "pitch": 71, "duration": 6, "velocity": 90}, {"time": 729, "pitch": 69, "duration": 5, "velocity": 90}, {"time": 735, "pitch": 67, "duration": 3, "velocity": 90}, {"time": 738, "pitch": 67, "duration": 14, "velocity": 90}, {"time": 753, "pitch": 69, "duration": 4, "velocity": 90}, {"time": 759, "pitch": 69, "duration": 16, "velocity": 90}, {"time": 777, "pitch": 71, "duration": 5, "velocity": 90}, {"time": 783, "pitch": 72, "duration": 6, "velocity": 90}, {"time": 789, "pitch": 74, "duration": 16, "velocity": 90}, {"time": 807, "pitch": 74, "duration": 3, "velocity": 90}, {"time": 813, "pitch": 74, "duration": 6, "velocity": 90}, {"time": 819, "pitch": 72, "duration": 5, "velocity": 90}, {"time": 825, "pitch": 71, "duration": 7, "velocity": 90}, {"time": 831, "pitch": 69, "duration": 3, "velocity": 90}, {"time": 834, "pitch": 68, "duration": 3, "velocity": 90}, {"time": 837, "pitch": 69, "duration": 8, "velocity": 90}, {"time": 843, "pitch": 71, "duration": 5, "velocity": 90}, {"time": 849, "pitch": 72, "duration": 4, "velocity": 90}, {"time": 852, "pitch": 69, "duration": 4, "velocity": 90}, {"time": 855, "pitch": 71, "duration": 12, "velocity": 90}, {"time": 873, "pitch": 69, "duration": 6, "velocity": 90}, {"time": 879, "pitch": 71, "duration": 3, "velocity": 90}, {"time": 885, "pitch": 72, "duration": 6, "velocity": 90}, {"time": 891, "pitch": 71, "duration": 6, "velocity": 90}, {"time": 897, "pitch": 67, "duration": 6, "velocity": 90}, {"time": 903, "pitch": 67, "duration": 3, "velocity": 90}, {"time": 906, "pitch": 64, "duration": 3, "velocity": 90}, {"time": 909, "pitch": 67, "duration": 6, "velocity": 90}, {"time": 915, "pitch": 69, "duration": 5, "velocity": 90}, {"time": 921, "pitch": 71, "duration": 5, "velocity": 90}, {"time": 927, "pitch": 67, "duration": 32, "velocity": 90}, {"time": 1017, "pitch": 71, "duration": 5, "velocity": 90}, {"time": 1023, "pitch": 72, "duration": 5, "velocity": 90}, {"time": 1029, "pitch": 74, "duration": 13, "velocity": 90}, {"time": 1041, "pitch": 72, "duration": 6, "velocity": 90}, {"time": 1047, "pitch": 71, "duration": 4, "velocity": 90}, {"time": 1053, "pitch": 71, "duration": 8, "velocity": 90}, {"time": 1065, "pitch": 71, "duration": 5, "velocity": 90}, {"time": 1071, "pitch": 69, "duration": 5, "velocity": 90}, {"time": 1077, "pitch": 67, "duration": 5, "velocity": 90}, {"time": 1083, "pitch": 69, "duration": 5, "velocity": 90}, {"time": 1089, "pitch": 71, "duration": 6, "velocity": 90}, {"time": 1095, "pitch": 78, "duration": 6, "velocity": 90}, {"time": 1101, "pitch": 74, "duration": 13, "velocity": 90}, {"time": 1125, "pitch": 76, "duration": 9, "velocity": 90}, {"time": 1137, "pitch": 74, "duration": 5, "velocity": 90}, {"time": 1143, "pitch": 72, "duration": 6, "velocity": 90}, {"time": 1149, "pitch": 74, "duration": 10, "velocity": 90}, {"time": 1161, "pitch": 72, "duration": 5, "velocity": 90}, {"time": 1167, "pitch": 71, "duration": 5, "velocity": 90}, {"time": 1173, "pitch": 72, "duration": 5, "velocity": 90}, {"time": 1179, "pitch": 71, "duration": 5, "velocity": 90}, {"time": 1185, "pitch": 67, "duration": 5, "velocity": 90}, {"time": 1191, "pitch": 71, "duration": 4, "velocity": 90}, {"time": 1194, "pitch": 71, "duration": 1, "velocity": 90}, {"time": 1200, "pitch": 69, "duration": 9, "velocity": 90}, {"time": 1221, "pitch": 67, "duration": 9, "velocity": 90}, {"time": 1233, "pitch": 69, "duration": 6, "velocity": 90}, {"time": 1239, "pitch": 71, "duration": 5, "velocity": 90}, {"time": 1245, "pitch": 78, "duration": 13, "velocity": 90}, {"time": 1257, "pitch": 79, "duration": 5, "velocity": 90}, {"time": 1263, "pitch": 78, "duration": 6, "velocity": 90}, {"time": 1269, "pitch": 76, "duration": 5, "velocity": 90}, {"time": 1275, "pitch": 74, "duration": 6, "velocity": 90}, {"time": 1281, "pitch": 71, "duration": 6, "velocity": 90}, {"time": 1287, "pitch": 67, "duration": 15, "velocity": 90}, {"time": 1329, "pitch": 72, "duration": 5, "velocity": 90}, {"time": 1335, "pitch": 72, "duration": 5, "velocity": 90}, {"time": 1341, "pitch": 71, "duration": 5, "velocity": 90}, {"time": 1347, "pitch": 67, "duration": 5, "velocity": 90}, {"time": 1353, "pitch": 71, "duration": 5, "velocity": 90}, {"time": 1359, "pitch": 69, "duration": 36, "velocity": 90}, {"time": 1401, "pitch": 71, "duration": 5, "velocity": 90}, {"time": 1407, "pitch": 72, "duration": 5, "velocity": 90}, {"time": 1413, "pitch": 74, "duration": 13, "velocity": 90}, {"time": 1425, "pitch": 72, "duration": 6, "velocity": 90}, {"time": 1431, "pitch": 71, "duration": 4, "velocity": 90}, {"time": 1437, "pitch": 71, "duration": 8, "velocity": 90}, {"time": 1449, "pitch": 71, "duration": 5, "velocity": 90}, {"time": 1455, "pitch": 69, "duration": 5, "velocity": 90}, {"time": 1461, "pitch": 67, "duration": 5, "velocity": 90}, {"time": 1467, "pitch": 69, "duration": 5, "velocity": 90}, {"time": 1473, "pitch": 71, "duration": 6, "velocity": 90}, {"time": 1479, "pitch": 74, "duration": 6, "velocity": 90}, {"time": 1485, "pitch": 74, "duration": 13, "velocity": 90}, {"time": 1506, "pitch": 67, "duration": 3, "velocity": 90}, {"time": 1509, "pitch": 76, "duration": 9, "velocity": 90}, {"time": 1521, "pitch": 74, "duration": 5, "velocity": 90}, {"time": 1527, "pitch": 72, "duration": 6, "velocity": 90}, {"time": 1533, "pitch": 74, "duration": 10, "velocity": 90}, {"time": 1545, "pitch": 72, "duration": 5, "velocity": 90}, {"time": 1551, "pitch": 71, "duration": 5, "velocity": 90}, {"time": 1557, "pitch": 72, "duration": 5, "velocity": 90}, {"time": 1563, "pitch": 71, "duration": 5, "velocity": 90}, {"time": 1566, "pitch": 67, "duration": 5, "velocity": 90}, {"time": 1572, "pitch": 71, "duration": 4, "velocity": 90}, {"time": 1578, "pitch": 71, "duration": 7, "velocity": 90}, {"time": 1584, "pitch": 69, "duration": 19, "velocity": 90}, {"time": 1605, "pitch": 67, "duration": 9, "velocity": 90}, {"time": 1617, "pitch": 69, "duration": 6, "velocity": 90}, {"time": 1623, "pitch": 71, "duration": 5, "velocity": 90}, {"time": 1629, "pitch": 78, "duration": 13, "velocity": 90}, {"time": 1641, "pitch": 79, "duration": 5, "velocity": 90}, {"time": 1647, "pitch": 78, "duration": 6, "velocity": 90}, {"time": 1653, "pitch": 76, "duration": 5, "velocity": 90}, {"time": 1659, "pitch": 74, "duration": 6, "velocity": 90}, {"time": 1665, "pitch": 71, "duration": 6, "velocity": 90}, {"time": 1671, "pitch": 67, "duration": 37, "velocity": 90}, {"time": 1713, "pitch": 72, "duration": 4, "velocity": 90}, {"time": 1719, "pitch": 72, "duration": 4, "velocity": 90}, {"time": 1725, "pitch": 71, "duration": 4, "velocity": 90}, {"time": 1731, "pitch": 72, "duration": 3, "velocity": 90}, {"time": 1737, "pitch": 71, "duration": 4, "velocity": 90}, {"time": 1743, "pitch": 74, "duration": 45, "velocity": 90}, {"time": 1983, "pitch": 62, "duration": 6, "velocity": 90}, {"time": 1989, "pitch": 71, "duration": 16, "velocity": 90}, {"time": 2007, "pitch": 71, "duration": 6, "velocity": 90}, {"time": 2013, "pitch": 72, "duration": 6, "velocity": 90}, {"time": 2019, "pitch": 71, "duration": 6, "velocity": 90}, {"time": 2025, "pitch": 69, "duration": 6, "velocity": 90}, {"time": 2031, "pitch": 67, "duration": 6, "velocity": 90}, {"time": 2037, "pitch": 69, "duration": 10, "velocity": 90}, {"time": 2049, "pitch": 69, "duration": 3, "velocity": 90}, {"time": 2052, "pitch": 67, "duration": 4, "velocity": 90}, {"time": 2055, "pitch": 71, "duration": 16, "velocity": 90}, {"time": 2073, "pitch": 69, "duration": 5, "velocity": 90}, {"time": 2079, "pitch": 71, "duration": 2, "velocity": 90}, {"time": 2082, "pitch": 72, "duration": 16, "velocity": 90}, {"time": 2109, "pitch": 72, "duration": 5, "velocity": 90}, {"time": 2115, "pitch": 71, "duration": 6, "velocity": 90}, {"time": 2121, "pitch": 69, "duration": 5, "velocity": 90}, {"time": 2127, "pitch": 67, "duration": 3, "velocity": 90}, {"time": 2130, "pitch": 67, "duration": 14, "velocity": 90}, {"time": 2145, "pitch": 69, "duration": 4, "velocity": 90}, {"time": 2151, "pitch": 69, "duration": 16, "velocity": 90}, {"time": 2169, "pitch": 71, "duration": 5, "velocity": 90}, {"time": 2175, "pitch": 72, "duration": 6, "velocity": 90}, {"time": 2181, "pitch": 74, "duration": 16, "velocity": 90}, {"time": 2199, "pitch": 74, "duration": 3, "velocity": 90}, {"time": 2205, "pitch": 74, "duration": 6, "velocity": 90}, {"time": 2211, "pitch": 72, "duration": 5, "velocity": 90}, {"time": 2217, "pitch": 71, "duration": 7, "velocity": 90}, {"time": 2223, "pitch": 69, "duration": 3, "velocity": 90}, {"time": 2226, "pitch": 67, "duration": 3, "velocity": 90}, {"time": 2229, "pitch": 69, "duration": 8, "velocity": 90}, {"time": 2235, "pitch": 71, "duration": 5, "velocity": 90}, {"time": 2241, "pitch": 72, "duration": 4, "velocity": 90}, {"time": 2244, "pitch": 71, "duration": 3, "velocity": 90}, {"time": 2247, "pitch": 71, "duration": 12, "velocity": 90}, {"time": 2265, "pitch": 69, "duration": 6, "velocity": 90}, {"time": 2271, "pitch": 71, "duration": 3, "velocity": 90}, {"time": 2277, "pitch": 72, "duration": 6, "velocity": 90}, {"time": 2283, "pitch": 71, "duration": 6, "velocity": 90}, {"time": 2289, "pitch": 67, "duration": 6, "velocity": 90}, {"time": 2295, "pitch": 67, "duration": 3, "velocity": 90}, {"time": 2298, "pitch": 64, "duration": 3, "velocity": 90}, {"time": 2301, "pitch": 67, "duration": 6, "velocity": 90}, {"time": 2307, "pitch": 69, "duration": 5, "velocity": 90}, {"time": 2313, "pitch": 71, "duration": 5, "velocity": 90}, {"time": 2319, "pitch": 67, "duration": 32, "velocity": 90}, {"time": 2409, "pitch": 71, "duration": 5, "velocity": 90}, {"time": 2415, "pitch": 72, "duration": 5, "velocity": 90}, {"time": 2421, "pitch": 74, "duration": 13, "velocity": 90}, {"time": 2433, "pitch": 72, "duration": 6, "velocity": 90}, {"time": 2439, "pitch": 71, "duration": 4, "velocity": 90}, {"time": 2445, "pitch": 71, "duration": 8, "velocity": 90}, {"time": 2457, "pitch": 71, "duration": 5, "velocity": 90}, {"time": 2463, "pitch": 69, "duration": 5, "velocity": 90}, {"time": 2469, "pitch": 67, "duration": 5, "velocity": 90}, {"time": 2475, "pitch": 69, "duration": 5, "velocity": 90}, {"time": 2481, "pitch": 71, "duration": 6, "velocity": 90}, {"time": 2487, "pitch": 78, "duration": 6, "velocity": 90}, {"time": 2493, "pitch": 74, "duration": 13, "velocity": 90}, {"time": 2517, "pitch": 76, "duration": 9, "velocity": 90}, {"time": 2529, "pitch": 74, "duration": 5, "velocity": 90}, {"time": 2535, "pitch": 72, "duration": 6, "velocity": 90}, {"time": 2541, "pitch": 74, "duration": 10, "velocity": 90}, {"time": 2553, "pitch": 72, "duration": 5, "velocity": 90}, {"time": 2559, "pitch": 71, "duration": 5, "velocity": 90}, {"time": 2565, "pitch": 72, "duration": 5, "velocity": 90}, {"time": 2571, "pitch": 71, "duration": 5, "velocity": 90}, {"time": 2577, "pitch": 67, "duration": 5, "velocity": 90}, {"time": 2583, "pitch": 71, "duration": 4, "velocity": 90}, {"time": 2586, "pitch": 71, "duration": 1, "velocity": 90}, {"time": 2592, "pitch": 69, "duration": 9, "velocity": 90}, {"time": 2613, "pitch": 67, "duration": 9, "velocity": 90}, {"time": 2625, "pitch": 69, "duration": 6, "velocity": 90}, {"time": 2631, "pitch": 71, "duration": 5, "velocity": 90}, {"time": 2637, "pitch": 78, "duration": 13, "velocity": 90}, {"time": 2649, "pitch": 79, "duration": 5, "velocity": 90}, {"time": 2655, "pitch": 78, "duration": 6, "velocity": 90}, {"time": 2661, "pitch": 76, "duration": 5, "velocity": 90}, {"time": 2667, "pitch": 74, "duration": 6, "velocity": 90}, {"time": 2673, "pitch": 71, "duration": 6, "velocity": 90}, {"time": 2679, "pitch": 67, "duration": 15, "velocity": 90}, {"time": 2721, "pitch": 72, "duration": 5, "velocity": 90}, {"time": 2727, "pitch": 72, "duration": 5, "velocity": 90}, {"time": 2733, "pitch": 71, "duration": 5, "velocity": 90}, {"time": 2739, "pitch": 67, "duration": 5, "velocity": 90}, {"time": 2745, "pitch": 71, "duration": 5, "velocity": 90}, {"time": 2751, "pitch": 69, "duration": 36, "velocity": 90}, {"time": 2793, "pitch": 71, "duration": 5, "velocity": 90}, {"time": 2799, "pitch": 72, "duration": 5, "velocity": 90}, {"time": 2805, "pitch": 74, "duration": 13, "velocity": 90}, {"time": 2817, "pitch": 72, "duration": 6, "velocity": 90}, {"time": 2823, "pitch": 71, "duration": 4, "velocity": 90}, {"time": 2829, "pitch": 71, "duration": 8, "velocity": 90}, {"time": 2841, "pitch": 71, "duration": 5, "velocity": 90}, {"time": 2847, "pitch": 69, "duration": 5, "velocity": 90}, {"time": 2853, "pitch": 67, "duration": 5, "velocity": 90}, {"time": 2859, "pitch": 69, "duration": 5, "velocity": 90}, {"time": 2865, "pitch": 71, "duration": 6, "velocity": 90}, {"time": 2871, "pitch": 78, "duration": 6, "velocity": 90}, {"time": 2877, "pitch": 74, "duration": 13, "velocity": 90}, {"time": 2898, "pitch": 67, "duration": 3, "velocity": 90}, {"time": 2901, "pitch": 76, "duration": 9, "velocity": 90}, {"time": 2913, "pitch": 74, "duration": 5, "velocity": 90}, {"time": 2919, "pitch": 72, "duration": 6, "velocity": 90}, {"time": 2925, "pitch": 74, "duration": 10, "velocity": 90}, {"time": 2937, "pitch": 72, "duration": 5, "velocity": 90}, {"time": 2943, "pitch": 71, "duration": 5, "velocity": 90}, {"time": 2949, "pitch": 72, "duration": 5, "velocity": 90}, {"time": 2955, "pitch": 71, "duration": 5, "velocity": 90}, {"time": 2958, "pitch": 83, "duration": 5, "velocity": 90}, {"time": 2966, "pitch": 84, "duration": 4, "velocity": 90}, {"time": 2971, "pitch": 83, "duration": 7, "velocity": 90}, {"time": 2976, "pitch": 81, "duration": 18, "velocity": 90}, {"time": 2997, "pitch": 67, "duration": 9, "velocity": 90}, {"time": 3009, "pitch": 69, "duration": 6, "velocity": 90}, {"time": 3015, "pitch": 71, "duration": 5, "velocity": 90}, {"time": 3021, "pitch": 78, "duration": 13, "velocity": 90}, {"time": 3033, "pitch": 79, "duration": 5, "velocity": 90}, {"time": 3039, "pitch": 78, "duration": 6, "velocity": 90}, {"time": 3045, "pitch": 76, "duration": 5, "velocity": 90}, {"time": 3051, "pitch": 74, "duration": 6, "velocity": 90}, {"time": 3057, "pitch": 71, "duration": 6, "velocity": 90}, {"time": 3063, "pitch": 67, "duration": 37, "velocity": 90}, {"time": 3141, "pitch": 72, "duration": 5, "velocity": 90}, {"time": 3147, "pitch": 72, "duration": 5, "velocity": 90}, {"time": 3153, "pitch": 71, "duration": 5, "velocity": 90}, {"time": 3159, "pitch": 72, "duration": 5, "velocity": 90}, {"time": 3165, "pitch": 71, "duration": 6, "velocity": 90}, {"time": 3170, "pitch": 74, "duration": 7, "velocity": 90}, {"time": 3177, "pitch": 76, "duration": 4, "velocity": 90}, {"time": 3182, "pitch": 79, "duration": 17, "velocity": 90}, {"time": 3201, "pitch": 71, "duration": 5, "velocity": 90}, {"time": 3207, "pitch": 71, "duration": 6, "velocity": 90}, {"time": 3213, "pitch": 64, "duration": 6, "velocity": 90}, {"time": 3219, "pitch": 67, "duration": 67, "velocity": 90}]}, {"program": 0, "is_drum": false, "name": "PIANO", "notes": [{"time": 8, "pitch": 43, "duration": 10, "velocity": 90}, {"time": 8, "pitch": 50, "duration": 10, "velocity": 98}, {"time": 21, "pitch": 43, "duration": 14, "velocity": 98}, {"time": 21, "pitch": 50, "duration": 13, "velocity": 93}, {"time": 35, "pitch": 52, "duration": 19, "velocity": 68}, {"time": 36, "pitch": 48, "duration": 18, "velocity": 84}, {"time": 55, "pitch": 54, "duration": 6, "velocity": 98}, {"time": 55, "pitch": 50, "duration": 7, "velocity": 98}, {"time": 63, "pitch": 50, "duration": 13, "velocity": 98}, {"time": 63, "pitch": 47, "duration": 13, "velocity": 98}, {"time": 63, "pitch": 43, "duration": 13, "velocity": 98}, {"time": 76, "pitch": 47, "duration": 5, "velocity": 98}, {"time": 76, "pitch": 50, "duration": 5, "velocity": 98}, {"time": 76, "pitch": 43, "duration": 1, "velocity": 98}, {"time": 81, "pitch": 48, "duration": 33, "velocity": 98}, {"time": 81, "pitch": 52, "duration": 34, "velocity": 98}, {"time": 115, "pitch": 43, "duration": 10, "velocity": 98}, {"time": 115, "pitch": 50, "duration": 11, "velocity": 98}, {"time": 128, "pitch": 43, "duration": 6, "velocity": 98}, {"time": 128, "pitch": 50, "duration": 6, "velocity": 98}, {"time": 134, "pitch": 52, "duration": 15, "velocity": 98}, {"time": 134, "pitch": 48, "duration": 15, "velocity": 91}, {"time": 146, "pitch": 55, "duration": 10, "velocity": 98}, {"time": 146, "pitch": 48, "duration": 3, "velocity": 98}, {"time": 155, "pitch": 57, "duration": 8, "velocity": 98}, {"time": 155, "pitch": 54, "duration": 8, "velocity": 98}, {"time": 155, "pitch": 50, "duration": 8, "velocity": 98}, {"time": 165, "pitch": 38, "duration": 10, "velocity": 87}, {"time": 165, "pitch": 50, "duration": 10, "velocity": 98}, {"time": 165, "pitch": 62, "duration": 6, "velocity": 98}, {"time": 165, "pitch": 67, "duration": 9, "velocity": 98}, {"time": 165, "pitch": 69, "duration": 8, "velocity": 98}, {"time": 177, "pitch": 38, "duration": 39, "velocity": 87}, {"time": 177, "pitch": 50, "duration": 39, "velocity": 98}, {"time": 177, "pitch": 66, "duration": 36, "velocity": 98}, {"time": 177, "pitch": 69, "duration": 37, "velocity": 98}, {"time": 189, "pitch": 26, "duration": 25, "velocity": 98}, {"time": 213, "pitch": 43, "duration": 28, "velocity": 98}, {"time": 213, "pitch": 59, "duration": 10, "velocity": 98}, {"time": 213, "pitch": 62, "duration": 10, "velocity": 98}, {"time": 219, "pitch": 50, "duration": 9, "velocity": 78}, {"time": 225, "pitch": 59, "duration": 10, "velocity": 98}, {"time": 225, "pitch": 62, "duration": 6, "velocity": 98}, {"time": 231, "pitch": 50, "duration": 8, "velocity": 88}, {"time": 237, "pitch": 59, "duration": 7, "velocity": 98}, {"time": 237, "pitch": 62, "duration": 7, "velocity": 98}, {"time": 243, "pitch": 43, "duration": 6, "velocity": 98}, {"time": 249, "pitch": 59, "duration": 12, "velocity": 98}, {"time": 249, "pitch": 62, "duration": 12, "velocity": 98}, {"time": 255, "pitch": 42, "duration": 5, "velocity": 98}, {"time": 261, "pitch": 40, "duration": 40, "velocity": 98}, {"time": 267, "pitch": 47, "duration": 33, "velocity": 65}, {"time": 273, "pitch": 55, "duration": 2, "velocity": 98}, {"time": 273, "pitch": 59, "duration": 3, "velocity": 98}, {"time": 279, "pitch": 52, "duration": 8, "velocity": 59}, {"time": 285, "pitch": 59, "duration": 8, "velocity": 98}, {"time": 285, "pitch": 64, "duration": 8, "velocity": 98}, {"time": 285, "pitch": 67, "duration": 8, "velocity": 98}, {"time": 291, "pitch": 52, "duration": 5, "velocity": 71}, {"time": 297, "pitch": 64, "duration": 6, "velocity": 98}, {"time": 297, "pitch": 67, "duration": 6, "velocity": 98}, {"time": 303, "pitch": 59, "duration": 6, "velocity": 96}, {"time": 309, "pitch": 45, "duration": 44, "velocity": 98}, {"time": 309, "pitch": 60, "duration": 2, "velocity": 98}, {"time": 309, "pitch": 64, "duration": 2, "velocity": 98}, {"time": 315, "pitch": 52, "duration": 37, "velocity": 65}, {"time": 321, "pitch": 64, "duration": 8, "velocity": 96}, {"time": 321, "pitch": 69, "duration": 8, "velocity": 98}, {"time": 321, "pitch": 72, "duration": 7, "velocity": 98}, {"time": 327, "pitch": 57, "duration": 8, "velocity": 84}, {"time": 333, "pitch": 64, "duration": 8, "velocity": 98}, {"time": 333, "pitch": 69, "duration": 10, "velocity": 98}, {"time": 333, "pitch": 72, "duration": 8, "velocity": 98}, {"time": 339, "pitch": 57, "duration": 9, "velocity": 60}, {"time": 345, "pitch": 69, "duration": 6, "velocity": 98}, {"time": 345, "pitch": 72, "duration": 6, "velocity": 98}, {"time": 351, "pitch": 57, "duration": 6, "velocity": 90}, {"time": 357, "pitch": 50, "duration": 17, "velocity": 95}, {"time": 357, "pitch": 62, "duration": 8, "velocity": 98}, {"time": 357, "pitch": 66, "duration": 9, "velocity": 98}, {"time": 357, "pitch": 69, "duration": 9, "velocity": 98}, {"time": 363, "pitch": 57, "duration": 8, "velocity": 64}, {"time": 369, "pitch": 62, "duration": 4, "velocity": 96}, {"time": 369, "pitch": 66, "duration": 8, "velocity": 98}, {"time": 369, "pitch": 69, "duration": 8, "velocity": 98}, {"time": 375, "pitch": 62, "duration": 5, "velocity": 98}, {"time": 381, "pitch": 38, "duration": 11, "velocity": 87}, {"time": 381, "pitch": 57, "duration": 10, "velocity": 98}, {"time": 381, "pitch": 62, "duration": 10, "velocity": 98}, {"time": 381, "pitch": 66, "duration": 10, "velocity": 98}, {"time": 393, "pitch": 36, "duration": 12, "velocity": 98}, {"time": 393, "pitch": 62, "duration": 11, "velocity": 98}, {"time": 393, "pitch": 66, "duration": 11, "velocity": 98}, {"time": 405, "pitch": 35, "duration": 38, "velocity": 94}, {"time": 405, "pitch": 59, "duration": 8, "velocity": 98}, {"time": 405, "pitch": 62, "duration": 8, "velocity": 98}, {"time": 405, "pitch": 66, "duration": 7, "velocity": 98}, {"time": 411, "pitch": 47, "duration": 19, "velocity": 55}, {"time": 417, "pitch": 59, "duration": 8, "velocity": 98}, {"time": 417, "pitch": 62, "duration": 7, "velocity": 98}, {"time": 417, "pitch": 66, "duration": 7, "velocity": 98}, {"time": 423, "pitch": 42, "duration": 20, "velocity": 61}, {"time": 429, "pitch": 59, "duration": 8, "velocity": 98}, {"time": 429, "pitch": 62, "duration": 9, "velocity": 98}, {"time": 429, "pitch": 66, "duration": 8, "velocity": 98}, {"time": 435, "pitch": 47, "duration": 7, "velocity": 65}, {"time": 441, "pitch": 62, "duration": 9, "velocity": 98}, {"time": 441, "pitch": 66, "duration": 6, "velocity": 98}, {"time": 447, "pitch": 59, "duration": 6, "velocity": 90}, {"time": 453, "pitch": 40, "duration": 29, "velocity": 98}, {"time": 453, "pitch": 59, "duration": 5, "velocity": 98}, {"time": 453, "pitch": 64, "duration": 6, "velocity": 98}, {"time": 453, "pitch": 68, "duration": 6, "velocity": 98}, {"time": 459, "pitch": 47, "duration": 6, "velocity": 82}, {"time": 465, "pitch": 52, "duration": 11, "velocity": 98}, {"time": 465, "pitch": 56, "duration": 11, "velocity": 98}, {"time": 465, "pitch": 59, "duration": 11, "velocity": 98}, {"time": 477, "pitch": 52, "duration": 13, "velocity": 98}, {"time": 477, "pitch": 56, "duration": 13, "velocity": 98}, {"time": 477, "pitch": 59, "duration": 12, "velocity": 98}, {"time": 483, "pitch": 40, "duration": 6, "velocity": 98}, {"time": 489, "pitch": 42, "duration": 6, "velocity": 98}, {"time": 495, "pitch": 44, "duration": 6, "velocity": 98}, {"time": 501, "pitch": 45, "duration": 17, "velocity": 98}, {"time": 501, "pitch": 57, "duration": 10, "velocity": 98}, {"time": 501, "pitch": 60, "duration": 11, "velocity": 98}, {"time": 501, "pitch": 64, "duration": 11, "velocity": 98}, {"time": 513, "pitch": 57, "duration": 10, "velocity": 98}, {"time": 513, "pitch": 60, "duration": 10, "velocity": 98}, {"time": 513, "pitch": 64, "duration": 10, "velocity": 98}, {"time": 525, "pitch": 45, "duration": 14, "velocity": 68}, {"time": 525, "pitch": 57, "duration": 7, "velocity": 98}, {"time": 525, "pitch": 60, "duration": 10, "velocity": 98}, {"time": 525, "pitch": 64, "duration": 10, "velocity": 98}, {"time": 531, "pitch": 52, "duration": 7, "velocity": 83}, {"time": 537, "pitch": 60, "duration": 9, "velocity": 98}, {"time": 537, "pitch": 64, "duration": 7, "velocity": 98}, {"time": 543, "pitch": 57, "duration": 5, "velocity": 94}, {"time": 546, "pitch": 66, "duration": 1, "velocity": 57}, {"time": 549, "pitch": 38, "duration": 2, "velocity": 93}, {"time": 549, "pitch": 57, "duration": 5, "velocity": 98}, {"time": 549, "pitch": 62, "duration": 6, "velocity": 98}, {"time": 549, "pitch": 66, "duration": 6, "velocity": 98}, {"time": 555, "pitch": 50, "duration": 35, "velocity": 73}, {"time": 561, "pitch": 62, "duration": 8, "velocity": 98}, {"time": 561, "pitch": 66, "duration": 8, "velocity": 98}, {"time": 561, "pitch": 69, "duration": 8, "velocity": 98}, {"time": 567, "pitch": 57, "duration": 9, "velocity": 55}, {"time": 573, "pitch": 62, "duration": 8, "velocity": 98}, {"time": 573, "pitch": 66, "duration": 7, "velocity": 98}, {"time": 573, "pitch": 69, "duration": 8, "velocity": 92}, {"time": 579, "pitch": 57, "duration": 7, "velocity": 69}, {"time": 585, "pitch": 64, "duration": 13, "velocity": 98}, {"time": 585, "pitch": 66, "duration": 13, "velocity": 98}, {"time": 585, "pitch": 69, "duration": 13, "velocity": 98}, {"time": 588, "pitch": 57, "duration": 2, "velocity": 93}, {"time": 591, "pitch": 62, "duration": 7, "velocity": 98}, {"time": 597, "pitch": 43, "duration": 28, "velocity": 98}, {"time": 597, "pitch": 59, "duration": 10, "velocity": 98}, {"time": 597, "pitch": 62, "duration": 1, "velocity": 98}, {"time": 603, "pitch": 50, "duration": 9, "velocity": 78}, {"time": 609, "pitch": 59, "duration": 10, "velocity": 98}, {"time": 609, "pitch": 62, "duration": 6, "velocity": 98}, {"time": 615, "pitch": 50, "duration": 8, "velocity": 88}, {"time": 621, "pitch": 59, "duration": 7, "velocity": 98}, {"time": 621, "pitch": 62, "duration": 7, "velocity": 98}, {"time": 627, "pitch": 43, "duration": 6, "velocity": 98}, {"time": 633, "pitch": 59, "duration": 12, "velocity": 98}, {"time": 633, "pitch": 62, "duration": 12, "velocity": 98}, {"time": 639, "pitch": 42, "duration": 5, "velocity": 98}, {"time": 645, "pitch": 40, "duration": 40, "velocity": 98}, {"time": 651, "pitch": 47, "duration": 33, "velocity": 65}, {"time": 657, "pitch": 55, "duration": 2, "velocity": 98}, {"time": 657, "pitch": 59, "duration": 3, "velocity": 98}, {"time": 663, "pitch": 52, "duration": 8, "velocity": 59}, {"time": 669, "pitch": 59, "duration": 8, "velocity": 98}, {"time": 669, "pitch": 64, "duration": 8, "velocity": 98}, {"time": 669, "pitch": 67, "duration": 8, "velocity": 98}, {"time": 675, "pitch": 52, "duration": 5, "velocity": 71}, {"time": 681, "pitch": 64, "duration": 6, "velocity": 98}, {"time": 681, "pitch": 67, "duration": 6, "velocity": 98}, {"time": 687, "pitch": 59, "duration": 6, "velocity": 96}, {"time": 693, "pitch": 45, "duration": 44, "velocity": 98}, {"time": 693, "pitch": 60, "duration": 2, "velocity": 98}, {"time": 693, "pitch": 64, "duration": 2, "velocity": 98}, {"time": 699, "pitch": 52, "duration": 37, "velocity": 65}, {"time": 705, "pitch": 64, "duration": 8, "velocity": 96}, {"time": 705, "pitch": 69, "duration": 8, "velocity": 98}, {"time": 705, "pitch": 72, "duration": 7, "velocity": 98}, {"time": 711, "pitch": 57, "duration": 8, "velocity": 84}, {"time": 717, "pitch": 64, "duration": 8, "velocity": 98}, {"time": 717, "pitch": 69, "duration": 10, "velocity": 98}, {"time": 717, "pitch": 72, "duration": 8, "velocity": 98}, {"time": 723, "pitch": 57, "duration": 9, "velocity": 60}, {"time": 729, "pitch": 69, "duration": 6, "velocity": 98}, {"time": 729, "pitch": 72, "duration": 6, "velocity": 98}, {"time": 735, "pitch": 57, "duration": 6, "velocity": 90}, {"time": 741, "pitch": 50, "duration": 17, "velocity": 95}, {"time": 741, "pitch": 62, "duration": 8, "velocity": 98}, {"time": 741, "pitch": 66, "duration": 9, "velocity": 98}, {"time": 741, "pitch": 69, "duration": 9, "velocity": 98}, {"time": 747, "pitch": 57, "duration": 8, "velocity": 64}, {"time": 753, "pitch": 62, "duration": 4, "velocity": 96}, {"time": 753, "pitch": 66, "duration": 8, "velocity": 98}, {"time": 753, "pitch": 69, "duration": 8, "velocity": 98}, {"time": 759, "pitch": 62, "duration": 5, "velocity": 98}, {"time": 765, "pitch": 38, "duration": 11, "velocity": 87}, {"time": 765, "pitch": 57, "duration": 10, "velocity": 98}, {"time": 765, "pitch": 62, "duration": 10, "velocity": 98}, {"time": 765, "pitch": 66, "duration": 10, "velocity": 98}, {"time": 777, "pitch": 36, "duration": 12, "velocity": 98}, {"time": 777, "pitch": 62, "duration": 11, "velocity": 98}, {"time": 777, "pitch": 66, "duration": 11, "velocity": 98}, {"time": 789, "pitch": 35, "duration": 38, "velocity": 94}, {"time": 789, "pitch": 59, "duration": 8, "velocity": 98}, {"time": 789, "pitch": 62, "duration": 8, "velocity": 98}, {"time": 789, "pitch": 66, "duration": 7, "velocity": 98}, {"time": 795, "pitch": 47, "duration": 19, "velocity": 55}, {"time": 801, "pitch": 59, "duration": 8, "velocity": 98}, {"time": 801, "pitch": 62, "duration": 7, "velocity": 98}, {"time": 801, "pitch": 66, "duration": 7, "velocity": 98}, {"time": 807, "pitch": 42, "duration": 20, "velocity": 61}, {"time": 813, "pitch": 59, "duration": 8, "velocity": 98}, {"time": 813, "pitch": 62, "duration": 9, "velocity": 98}, {"time": 813, "pitch": 66, "duration": 8, "velocity": 98}, {"time": 819, "pitch": 47, "duration": 7, "velocity": 65}, {"time": 825, "pitch": 62, "duration": 9, "velocity": 98}, {"time": 825, "pitch": 66, "duration": 6, "velocity": 98}, {"time": 831, "pitch": 59, "duration": 6, "velocity": 90}, {"time": 837, "pitch": 40, "duration": 29, "velocity": 98}, {"time": 837, "pitch": 59, "duration": 7, "velocity": 98}, {"time": 837, "pitch": 64, "duration": 7, "velocity": 98}, {"time": 837, "pitch": 69, "duration": 7, "velocity": 98}, {"time": 843, "pitch": 47, "duration": 9, "velocity": 82}, {"time": 849, "pitch": 52, "duration": 11, "velocity": 98}, {"time": 849, "pitch": 56, "duration": 11, "velocity": 98}, {"time": 849, "pitch": 59, "duration": 11, "velocity": 98}, {"time": 861, "pitch": 52, "duration": 13, "velocity": 98}, {"time": 861, "pitch": 56, "duration": 13, "velocity": 98}, {"time": 861, "pitch": 59, "duration": 12, "velocity": 98}, {"time": 867, "pitch": 40, "duration": 6, "velocity": 98}, {"time": 873, "pitch": 42, "duration": 6, "velocity": 98}, {"time": 879, "pitch": 44, "duration": 6, "velocity": 98}, {"time": 885, "pitch": 45, "duration": 18, "velocity": 98}, {"time": 885, "pitch": 57, "duration": 8, "velocity": 98}, {"time": 885, "pitch": 60, "duration": 8, "velocity": 98}, {"time": 885, "pitch": 64, "duration": 10, "velocity": 98}, {"time": 891, "pitch": 52, "duration": 9, "velocity": 87}, {"time": 897, "pitch": 60, "duration": 11, "velocity": 98}, {"time": 897, "pitch": 64, "duration": 7, "velocity": 98}, {"time": 900, "pitch": 52, "duration": 2, "velocity": 62}, {"time": 903, "pitch": 57, "duration": 5, "velocity": 87}, {"time": 909, "pitch": 38, "duration": 14, "velocity": 87}, {"time": 909, "pitch": 57, "duration": 8, "velocity": 98}, {"time": 909, "pitch": 62, "duration": 11, "velocity": 98}, {"time": 909, "pitch": 66, "duration": 11, "velocity": 98}, {"time": 915, "pitch": 50, "duration": 7, "velocity": 57}, {"time": 921, "pitch": 62, "duration": 7, "velocity": 98}, {"time": 921, "pitch": 66, "duration": 6, "velocity": 98}, {"time": 927, "pitch": 57, "duration": 4, "velocity": 74}, {"time": 933, "pitch": 43, "duration": 41, "velocity": 95}, {"time": 933, "pitch": 59, "duration": 2, "velocity": 98}, {"time": 933, "pitch": 62, "duration": 2, "velocity": 98}, {"time": 939, "pitch": 50, "duration": 32, "velocity": 76}, {"time": 945, "pitch": 62, "duration": 9, "velocity": 98}, {"time": 945, "pitch": 67, "duration": 9, "velocity": 98}, {"time": 945, "pitch": 71, "duration": 9, "velocity": 98}, {"time": 951, "pitch": 55, "duration": 9, "velocity": 80}, {"time": 957, "pitch": 62, "duration": 8, "velocity": 82}, {"time": 957, "pitch": 67, "duration": 10, "velocity": 89}, {"time": 957, "pitch": 71, "duration": 10, "velocity": 85}, {"time": 963, "pitch": 55, "duration": 7, "velocity": 68}, {"time": 969, "pitch": 67, "duration": 6, "velocity": 98}, {"time": 969, "pitch": 71, "duration": 6, "velocity": 98}, {"time": 972, "pitch": 50, "duration": 2, "velocity": 98}, {"time": 975, "pitch": 62, "duration": 3, "velocity": 98}, {"time": 981, "pitch": 38, "duration": 40, "velocity": 98}, {"time": 981, "pitch": 62, "duration": 4, "velocity": 98}, {"time": 981, "pitch": 66, "duration": 4, "velocity": 98}, {"time": 981, "pitch": 69, "duration": 4, "velocity": 98}, {"time": 987, "pitch": 50, "duration": 9, "velocity": 98}, {"time": 987, "pitch": 62, "duration": 3, "velocity": 96}, {"time": 987, "pitch": 66, "duration": 2, "velocity": 98}, {"time": 987, "pitch": 69, "duration": 2, "velocity": 84}, {"time": 993, "pitch": 57, "duration": 3, "velocity": 98}, {"time": 993, "pitch": 62, "duration": 2, "velocity": 98}, {"time": 993, "pitch": 66, "duration": 4, "velocity": 98}, {"time": 999, "pitch": 50, "duration": 5, "velocity": 75}, {"time": 999, "pitch": 57, "duration": 2, "velocity": 95}, {"time": 999, "pitch": 62, "duration": 2, "velocity": 98}, {"time": 999, "pitch": 66, "duration": 2, "velocity": 98}, {"time": 1005, "pitch": 50, "duration": 7, "velocity": 98}, {"time": 1005, "pitch": 57, "duration": 4, "velocity": 98}, {"time": 1005, "pitch": 62, "duration": 5, "velocity": 98}, {"time": 1005, "pitch": 66, "duration": 5, "velocity": 98}, {"time": 1011, "pitch": 62, "duration": 1, "velocity": 97}, {"time": 1011, "pitch": 66, "duration": 2, "velocity": 98}, {"time": 1014, "pitch": 50, "duration": 3, "velocity": 93}, {"time": 1017, "pitch": 62, "duration": 5, "velocity": 98}, {"time": 1017, "pitch": 66, "duration": 6, "velocity": 98}, {"time": 1020, "pitch": 50, "duration": 2, "velocity": 98}, {"time": 1023, "pitch": 57, "duration": 1, "velocity": 98}, {"time": 1029, "pitch": 43, "duration": 16, "velocity": 98}, {"time": 1029, "pitch": 55, "duration": 2, "velocity": 98}, {"time": 1029, "pitch": 59, "duration": 2, "velocity": 98}, {"time": 1029, "pitch": 62, "duration": 2, "velocity": 98}, {"time": 1035, "pitch": 50, "duration": 9, "velocity": 71}, {"time": 1041, "pitch": 67, "duration": 5, "velocity": 98}, {"time": 1041, "pitch": 71, "duration": 6, "velocity": 98}, {"time": 1044, "pitch": 55, "duration": 2, "velocity": 98}, {"time": 1047, "pitch": 62, "duration": 1, "velocity": 98}, {"time": 1053, "pitch": 47, "duration": 14, "velocity": 95}, {"time": 1053, "pitch": 59, "duration": 1, "velocity": 98}, {"time": 1053, "pitch": 63, "duration": 1, "velocity": 98}, {"time": 1053, "pitch": 66, "duration": 1, "velocity": 98}, {"time": 1059, "pitch": 54, "duration": 8, "velocity": 60}, {"time": 1062, "pitch": 71, "duration": 2, "velocity": 92}, {"time": 1062, "pitch": 75, "duration": 2, "velocity": 98}, {"time": 1062, "pitch": 78, "duration": 1, "velocity": 98}, {"time": 1065, "pitch": 59, "duration": 1, "velocity": 98}, {"time": 1065, "pitch": 71, "duration": 1, "velocity": 98}, {"time": 1065, "pitch": 75, "duration": 5, "velocity": 98}, {"time": 1065, "pitch": 78, "duration": 4, "velocity": 98}, {"time": 1077, "pitch": 40, "duration": 1, "velocity": 98}, {"time": 1077, "pitch": 64, "duration": 7, "velocity": 98}, {"time": 1077, "pitch": 67, "duration": 7, "velocity": 98}, {"time": 1077, "pitch": 71, "duration": 7, "velocity": 98}, {"time": 1083, "pitch": 52, "duration": 7, "velocity": 77}, {"time": 1089, "pitch": 67, "duration": 6, "velocity": 98}, {"time": 1089, "pitch": 70, "duration": 1, "velocity": 98}, {"time": 1089, "pitch": 71, "duration": 6, "velocity": 98}, {"time": 1092, "pitch": 52, "duration": 1, "velocity": 98}, {"time": 1095, "pitch": 64, "duration": 1, "velocity": 98}, {"time": 1101, "pitch": 50, "duration": 13, "velocity": 98}, {"time": 1101, "pitch": 62, "duration": 1, "velocity": 98}, {"time": 1101, "pitch": 66, "duration": 1, "velocity": 98}, {"time": 1101, "pitch": 69, "duration": 1, "velocity": 98}, {"time": 1107, "pitch": 57, "duration": 5, "velocity": 72}, {"time": 1110, "pitch": 69, "duration": 2, "velocity": 98}, {"time": 1110, "pitch": 74, "duration": 2, "velocity": 98}, {"time": 1110, "pitch": 78, "duration": 2, "velocity": 98}, {"time": 1113, "pitch": 57, "duration": 1, "velocity": 98}, {"time": 1113, "pitch": 74, "duration": 7, "velocity": 98}, {"time": 1113, "pitch": 78, "duration": 6, "velocity": 98}, {"time": 1119, "pitch": 69, "duration": 7, "velocity": 98}, {"time": 1125, "pitch": 36, "duration": 1, "velocity": 93}, {"time": 1125, "pitch": 72, "duration": 1, "velocity": 98}, {"time": 1125, "pitch": 75, "duration": 1, "velocity": 98}, {"time": 1125, "pitch": 76, "duration": 1, "velocity": 98}, {"time": 1134, "pitch": 67, "duration": 2, "velocity": 54}, {"time": 1137, "pitch": 64, "duration": 6, "velocity": 98}, {"time": 1137, "pitch": 67, "duration": 7, "velocity": 98}, {"time": 1143, "pitch": 48, "duration": 6, "velocity": 97}, {"time": 1149, "pitch": 47, "duration": 19, "velocity": 98}, {"time": 1149, "pitch": 59, "duration": 10, "velocity": 98}, {"time": 1149, "pitch": 62, "duration": 11, "velocity": 98}, {"time": 1149, "pitch": 66, "duration": 11, "velocity": 98}, {"time": 1158, "pitch": 54, "duration": 3, "velocity": 62}, {"time": 1161, "pitch": 62, "duration": 7, "velocity": 98}, {"time": 1161, "pitch": 66, "duration": 7, "velocity": 98}, {"time": 1167, "pitch": 54, "duration": 1, "velocity": 80}, {"time": 1167, "pitch": 59, "duration": 3, "velocity": 98}, {"time": 1173, "pitch": 45, "duration": 17, "velocity": 98}, {"time": 1173, "pitch": 57, "duration": 1, "velocity": 98}, {"time": 1173, "pitch": 60, "duration": 1, "velocity": 98}, {"time": 1173, "pitch": 64, "duration": 1, "velocity": 98}, {"time": 1176, "pitch": 52, "duration": 13, "velocity": 90}, {"time": 1179, "pitch": 57, "duration": 8, "velocity": 98}, {"time": 1182, "pitch": 64, "duration": 4, "velocity": 98}, {"time": 1182, "pitch": 69, "duration": 1, "velocity": 78}, {"time": 1185, "pitch": 69, "duration": 6, "velocity": 98}, {"time": 1185, "pitch": 72, "duration": 6, "velocity": 98}, {"time": 1188, "pitch": 57, "duration": 2, "velocity": 98}, {"time": 1191, "pitch": 64, "duration": 1, "velocity": 98}, {"time": 1194, "pitch": 69, "duration": 2, "velocity": 67}, {"time": 1197, "pitch": 38, "duration": 9, "velocity": 98}, {"time": 1197, "pitch": 62, "duration": 5, "velocity": 98}, {"time": 1197, "pitch": 66, "duration": 7, "velocity": 98}, {"time": 1200, "pitch": 50, "duration": 8, "velocity": 98}, {"time": 1203, "pitch": 57, "duration": 4, "velocity": 98}, {"time": 1206, "pitch": 66, "duration": 4, "velocity": 98}, {"time": 1209, "pitch": 39, "duration": 7, "velocity": 98}, {"time": 1209, "pitch": 63, "duration": 11, "velocity": 98}, {"time": 1218, "pitch": 64, "duration": 1, "velocity": 48}, {"time": 1221, "pitch": 40, "duration": 17, "velocity": 98}, {"time": 1221, "pitch": 59, "duration": 4, "velocity": 98}, {"time": 1221, "pitch": 64, "duration": 8, "velocity": 98}, {"time": 1221, "pitch": 67, "duration": 10, "velocity": 98}, {"time": 1224, "pitch": 47, "duration": 14, "velocity": 98}, {"time": 1227, "pitch": 52, "duration": 7, "velocity": 98}, {"time": 1230, "pitch": 59, "duration": 3, "velocity": 98}, {"time": 1230, "pitch": 64, "duration": 1, "velocity": 47}, {"time": 1233, "pitch": 64, "duration": 6, "velocity": 98}, {"time": 1233, "pitch": 67, "duration": 6, "velocity": 98}, {"time": 1236, "pitch": 52, "duration": 2, "velocity": 98}, {"time": 1239, "pitch": 59, "duration": 6, "velocity": 98}, {"time": 1245, "pitch": 39, "duration": 17, "velocity": 98}, {"time": 1245, "pitch": 63, "duration": 10, "velocity": 98}, {"time": 1245, "pitch": 66, "duration": 10, "velocity": 98}, {"time": 1245, "pitch": 69, "duration": 7, "velocity": 98}, {"time": 1251, "pitch": 51, "duration": 7, "velocity": 98}, {"time": 1257, "pitch": 63, "duration": 5, "velocity": 98}, {"time": 1257, "pitch": 66, "duration": 7, "velocity": 98}, {"time": 1257, "pitch": 69, "duration": 7, "velocity": 98}, {"time": 1260, "pitch": 51, "duration": 2, "velocity": 98}, {"time": 1263, "pitch": 63, "duration": 2, "velocity": 98}, {"time": 1269, "pitch": 50, "duration": 15, "velocity": 98}, {"time": 1269, "pitch": 62, "duration": 8, "velocity": 98}, {"time": 1269, "pitch": 66, "duration": 7, "velocity": 98}, {"time": 1275, "pitch": 57, "duration": 10, "velocity": 98}, {"time": 1281, "pitch": 62, "duration": 2, "velocity": 98}, {"time": 1281, "pitch": 66, "duration": 2, "velocity": 98}, {"time": 1287, "pitch": 49, "duration": 20, "velocity": 98}, {"time": 1287, "pitch": 61, "duration": 15, "velocity": 98}, {"time": 1287, "pitch": 64, "duration": 15, "velocity": 98}, {"time": 1287, "pitch": 67, "duration": 15, "velocity": 98}, {"time": 1305, "pitch": 61, "duration": 6, "velocity": 98}, {"time": 1305, "pitch": 64, "duration": 8, "velocity": 98}, {"time": 1305, "pitch": 67, "duration": 7, "velocity": 98}, {"time": 1308, "pitch": 49, "duration": 1, "velocity": 98}, {"time": 1311, "pitch": 61, "duration": 2, "velocity": 93}, {"time": 1317, "pitch": 36, "duration": 39, "velocity": 98}, {"time": 1317, "pitch": 55, "duration": 8, "velocity": 98}, {"time": 1317, "pitch": 60, "duration": 8, "velocity": 98}, {"time": 1317, "pitch": 64, "duration": 10, "velocity": 98}, {"time": 1323, "pitch": 48, "duration": 9, "velocity": 98}, {"time": 1329, "pitch": 55, "duration": 10, "velocity": 98}, {"time": 1329, "pitch": 60, "duration": 11, "velocity": 98}, {"time": 1329, "pitch": 64, "duration": 11, "velocity": 98}, {"time": 1335, "pitch": 48, "duration": 10, "velocity": 60}, {"time": 1341, "pitch": 55, "duration": 8, "velocity": 98}, {"time": 1341, "pitch": 60, "duration": 10, "velocity": 98}, {"time": 1341, "pitch": 64, "duration": 10, "velocity": 98}, {"time": 1347, "pitch": 48, "duration": 8, "velocity": 66}, {"time": 1353, "pitch": 60, "duration": 8, "velocity": 98}, {"time": 1353, "pitch": 64, "duration": 7, "velocity": 98}, {"time": 1359, "pitch": 55, "duration": 3, "velocity": 98}, {"time": 1365, "pitch": 38, "duration": 1, "velocity": 98}, {"time": 1365, "pitch": 57, "duration": 5, "velocity": 98}, {"time": 1365, "pitch": 62, "duration": 5, "velocity": 98}, {"time": 1365, "pitch": 66, "duration": 6, "velocity": 98}, {"time": 1371, "pitch": 50, "duration": 18, "velocity": 98}, {"time": 1374, "pitch": 62, "duration": 2, "velocity": 92}, {"time": 1374, "pitch": 66, "duration": 2, "velocity": 98}, {"time": 1374, "pitch": 69, "duration": 2, "velocity": 98}, {"time": 1377, "pitch": 57, "duration": 9, "velocity": 98}, {"time": 1377, "pitch": 62, "duration": 4, "velocity": 98}, {"time": 1377, "pitch": 66, "duration": 4, "velocity": 98}, {"time": 1377, "pitch": 69, "duration": 4, "velocity": 98}, {"time": 1383, "pitch": 54, "duration": 6, "velocity": 98}, {"time": 1386, "pitch": 66, "duration": 2, "velocity": 98}, {"time": 1386, "pitch": 78, "duration": 1, "velocity": 98}, {"time": 1389, "pitch": 50, "duration": 20, "velocity": 75}, {"time": 1389, "pitch": 57, "duration": 9, "velocity": 98}, {"time": 1389, "pitch": 66, "duration": 1, "velocity": 98}, {"time": 1389, "pitch": 78, "duration": 1, "velocity": 98}, {"time": 1395, "pitch": 54, "duration": 7, "velocity": 98}, {"time": 1395, "pitch": 69, "duration": 4, "velocity": 98}, {"time": 1395, "pitch": 81, "duration": 4, "velocity": 98}, {"time": 1401, "pitch": 57, "duration": 7, "velocity": 98}, {"time": 1401, "pitch": 71, "duration": 4, "velocity": 98}, {"time": 1401, "pitch": 83, "duration": 3, "velocity": 98}, {"time": 1407, "pitch": 54, "duration": 1, "velocity": 98}, {"time": 1407, "pitch": 69, "duration": 2, "velocity": 98}, {"time": 1407, "pitch": 81, "duration": 2, "velocity": 98}, {"time": 1413, "pitch": 43, "duration": 16, "velocity": 98}, {"time": 1413, "pitch": 55, "duration": 2, "velocity": 98}, {"time": 1413, "pitch": 59, "duration": 2, "velocity": 98}, {"time": 1413, "pitch": 62, "duration": 2, "velocity": 98}, {"time": 1419, "pitch": 50, "duration": 9, "velocity": 71}, {"time": 1425, "pitch": 67, "duration": 5, "velocity": 98}, {"time": 1425, "pitch": 71, "duration": 6, "velocity": 98}, {"time": 1428, "pitch": 55, "duration": 2, "velocity": 98}, {"time": 1431, "pitch": 62, "duration": 1, "velocity": 98}, {"time": 1437, "pitch": 47, "duration": 14, "velocity": 95}, {"time": 1437, "pitch": 59, "duration": 1, "velocity": 98}, {"time": 1437, "pitch": 63, "duration": 1, "velocity": 98}, {"time": 1437, "pitch": 66, "duration": 1, "velocity": 98}, {"time": 1443, "pitch": 54, "duration": 8, "velocity": 60}, {"time": 1446, "pitch": 71, "duration": 2, "velocity": 92}, {"time": 1446, "pitch": 75, "duration": 2, "velocity": 98}, {"time": 1446, "pitch": 78, "duration": 1, "velocity": 98}, {"time": 1449, "pitch": 59, "duration": 1, "velocity": 98}, {"time": 1449, "pitch": 71, "duration": 1, "velocity": 98}, {"time": 1449, "pitch": 75, "duration": 5, "velocity": 98}, {"time": 1449, "pitch": 78, "duration": 4, "velocity": 98}, {"time": 1461, "pitch": 40, "duration": 1, "velocity": 98}, {"time": 1461, "pitch": 64, "duration": 7, "velocity": 98}, {"time": 1461, "pitch": 67, "duration": 7, "velocity": 98}, {"time": 1461, "pitch": 71, "duration": 7, "velocity": 98}, {"time": 1467, "pitch": 52, "duration": 7, "velocity": 77}, {"time": 1473, "pitch": 67, "duration": 6, "velocity": 98}, {"time": 1473, "pitch": 71, "duration": 6, "velocity": 98}, {"time": 1476, "pitch": 52, "duration": 1, "velocity": 98}, {"time": 1479, "pitch": 64, "duration": 1, "velocity": 98}, {"time": 1485, "pitch": 50, "duration": 13, "velocity": 98}, {"time": 1485, "pitch": 62, "duration": 1, "velocity": 98}, {"time": 1485, "pitch": 66, "duration": 1, "velocity": 98}, {"time": 1485, "pitch": 69, "duration": 1, "velocity": 98}, {"time": 1491, "pitch": 57, "duration": 5, "velocity": 72}, {"time": 1494, "pitch": 69, "duration": 2, "velocity": 98}, {"time": 1494, "pitch": 74, "duration": 2, "velocity": 98}, {"time": 1494, "pitch": 78, "duration": 2, "velocity": 98}, {"time": 1497, "pitch": 57, "duration": 1, "velocity": 98}, {"time": 1497, "pitch": 74, "duration": 7, "velocity": 98}, {"time": 1497, "pitch": 78, "duration": 6, "velocity": 98}, {"time": 1503, "pitch": 69, "duration": 7, "velocity": 98}, {"time": 1509, "pitch": 36, "duration": 1, "velocity": 93}, {"time": 1509, "pitch": 72, "duration": 1, "velocity": 98}, {"time": 1509, "pitch": 75, "duration": 1, "velocity": 98}, {"time": 1509, "pitch": 76, "duration": 1, "velocity": 98}, {"time": 1518, "pitch": 67, "duration": 2, "velocity": 54}, {"time": 1521, "pitch": 64, "duration": 6, "velocity": 98}, {"time": 1521, "pitch": 67, "duration": 7, "velocity": 98}, {"time": 1527, "pitch": 48, "duration": 6, "velocity": 97}, {"time": 1533, "pitch": 47, "duration": 19, "velocity": 98}, {"time": 1533, "pitch": 59, "duration": 10, "velocity": 98}, {"time": 1533, "pitch": 62, "duration": 11, "velocity": 98}, {"time": 1533, "pitch": 66, "duration": 11, "velocity": 98}, {"time": 1542, "pitch": 54, "duration": 3, "velocity": 62}, {"time": 1545, "pitch": 62, "duration": 7, "velocity": 98}, {"time": 1545, "pitch": 66, "duration": 7, "velocity": 98}, {"time": 1551, "pitch": 54, "duration": 1, "velocity": 80}, {"time": 1551, "pitch": 59, "duration": 3, "velocity": 98}, {"time": 1557, "pitch": 45, "duration": 17, "velocity": 98}, {"time": 1557, "pitch": 57, "duration": 1, "velocity": 98}, {"time": 1557, "pitch": 60, "duration": 1, "velocity": 98}, {"time": 1557, "pitch": 64, "duration": 1, "velocity": 98}, {"time": 1560, "pitch": 52, "duration": 13, "velocity": 90}, {"time": 1563, "pitch": 57, "duration": 8, "velocity": 98}, {"time": 1566, "pitch": 64, "duration": 4, "velocity": 98}, {"time": 1566, "pitch": 69, "duration": 1, "velocity": 78}, {"time": 1569, "pitch": 69, "duration": 6, "velocity": 98}, {"time": 1569, "pitch": 72, "duration": 6, "velocity": 98}, {"time": 1572, "pitch": 57, "duration": 2, "velocity": 98}, {"time": 1575, "pitch": 64, "duration": 1, "velocity": 98}, {"time": 1578, "pitch": 69, "duration": 2, "velocity": 67}, {"time": 1581, "pitch": 38, "duration": 9, "velocity": 98}, {"time": 1581, "pitch": 62, "duration": 5, "velocity": 98}, {"time": 1581, "pitch": 66, "duration": 7, "velocity": 98}, {"time": 1584, "pitch": 50, "duration": 8, "velocity": 98}, {"time": 1587, "pitch": 57, "duration": 4, "velocity": 98}, {"time": 1590, "pitch": 66, "duration": 4, "velocity": 98}, {"time": 1593, "pitch": 39, "duration": 7, "velocity": 98}, {"time": 1593, "pitch": 63, "duration": 11, "velocity": 98}, {"time": 1605, "pitch": 40, "duration": 17, "velocity": 98}, {"time": 1605, "pitch": 59, "duration": 4, "velocity": 98}, {"time": 1605, "pitch": 64, "duration": 8, "velocity": 98}, {"time": 1605, "pitch": 67, "duration": 10, "velocity": 98}, {"time": 1608, "pitch": 47, "duration": 14, "velocity": 98}, {"time": 1611, "pitch": 52, "duration": 7, "velocity": 98}, {"time": 1614, "pitch": 59, "duration": 3, "velocity": 98}, {"time": 1614, "pitch": 64, "duration": 1, "velocity": 47}, {"time": 1617, "pitch": 64, "duration": 6, "velocity": 98}, {"time": 1617, "pitch": 67, "duration": 6, "velocity": 98}, {"time": 1620, "pitch": 52, "duration": 2, "velocity": 98}, {"time": 1623, "pitch": 59, "duration": 6, "velocity": 98}, {"time": 1629, "pitch": 39, "duration": 17, "velocity": 98}, {"time": 1629, "pitch": 63, "duration": 10, "velocity": 98}, {"time": 1629, "pitch": 66, "duration": 10, "velocity": 98}, {"time": 1629, "pitch": 69, "duration": 7, "velocity": 98}, {"time": 1635, "pitch": 51, "duration": 7, "velocity": 98}, {"time": 1641, "pitch": 63, "duration": 5, "velocity": 98}, {"time": 1641, "pitch": 66, "duration": 7, "velocity": 98}, {"time": 1641, "pitch": 69, "duration": 7, "velocity": 98}, {"time": 1644, "pitch": 51, "duration": 2, "velocity": 98}, {"time": 1647, "pitch": 63, "duration": 2, "velocity": 98}, {"time": 1653, "pitch": 50, "duration": 15, "velocity": 98}, {"time": 1653, "pitch": 62, "duration": 8, "velocity": 98}, {"time": 1653, "pitch": 66, "duration": 7, "velocity": 98}, {"time": 1659, "pitch": 57, "duration": 10, "velocity": 98}, {"time": 1665, "pitch": 62, "duration": 2, "velocity": 98}, {"time": 1665, "pitch": 66, "duration": 2, "velocity": 98}, {"time": 1671, "pitch": 49, "duration": 20, "velocity": 98}, {"time": 1671, "pitch": 61, "duration": 15, "velocity": 98}, {"time": 1671, "pitch": 64, "duration": 15, "velocity": 98}, {"time": 1671, "pitch": 67, "duration": 15, "velocity": 98}, {"time": 1689, "pitch": 61, "duration": 6, "velocity": 98}, {"time": 1689, "pitch": 64, "duration": 8, "velocity": 98}, {"time": 1689, "pitch": 67, "duration": 7, "velocity": 98}, {"time": 1692, "pitch": 49, "duration": 1, "velocity": 98}, {"time": 1695, "pitch": 61, "duration": 2, "velocity": 93}, {"time": 1701, "pitch": 33, "duration": 36, "velocity": 98}, {"time": 1701, "pitch": 57, "duration": 9, "velocity": 98}, {"time": 1701, "pitch": 60, "duration": 10, "velocity": 98}, {"time": 1701, "pitch": 64, "duration": 10, "velocity": 98}, {"time": 1707, "pitch": 45, "duration": 9, "velocity": 72}, {"time": 1713, "pitch": 57, "duration": 9, "velocity": 98}, {"time": 1713, "pitch": 60, "duration": 10, "velocity": 98}, {"time": 1713, "pitch": 64, "duration": 10, "velocity": 98}, {"time": 1719, "pitch": 45, "duration": 9, "velocity": 68}, {"time": 1725, "pitch": 57, "duration": 8, "velocity": 98}, {"time": 1725, "pitch": 60, "duration": 8, "velocity": 98}, {"time": 1725, "pitch": 64, "duration": 8, "velocity": 98}, {"time": 1731, "pitch": 45, "duration": 8, "velocity": 93}, {"time": 1737, "pitch": 57, "duration": 2, "velocity": 98}, {"time": 1737, "pitch": 60, "duration": 7, "velocity": 98}, {"time": 1737, "pitch": 64, "duration": 9, "velocity": 98}, {"time": 1743, "pitch": 57, "duration": 4, "velocity": 98}, {"time": 1749, "pitch": 38, "duration": 41, "velocity": 98}, {"time": 1749, "pitch": 57, "duration": 4, "velocity": 98}, {"time": 1749, "pitch": 62, "duration": 4, "velocity": 98}, {"time": 1749, "pitch": 66, "duration": 5, "velocity": 98}, {"time": 1755, "pitch": 50, "duration": 8, "velocity": 98}, {"time": 1758, "pitch": 62, "duration": 1, "velocity": 98}, {"time": 1758, "pitch": 66, "duration": 1, "velocity": 98}, {"time": 1758, "pitch": 69, "duration": 1, "velocity": 94}, {"time": 1761, "pitch": 62, "duration": 7, "velocity": 98}, {"time": 1761, "pitch": 66, "duration": 7, "velocity": 98}, {"time": 1761, "pitch": 69, "duration": 7, "velocity": 98}, {"time": 1767, "pitch": 50, "duration": 6, "velocity": 98}, {"time": 1770, "pitch": 62, "duration": 1, "velocity": 98}, {"time": 1770, "pitch": 66, "duration": 2, "velocity": 98}, {"time": 1770, "pitch": 69, "duration": 1, "velocity": 98}, {"time": 1773, "pitch": 66, "duration": 5, "velocity": 98}, {"time": 1773, "pitch": 69, "duration": 5, "velocity": 98}, {"time": 1776, "pitch": 50, "duration": 10, "velocity": 98}, {"time": 1779, "pitch": 62, "duration": 5, "velocity": 98}, {"time": 1782, "pitch": 66, "duration": 2, "velocity": 98}, {"time": 1782, "pitch": 69, "duration": 2, "velocity": 98}, {"time": 1785, "pitch": 66, "duration": 5, "velocity": 98}, {"time": 1785, "pitch": 69, "duration": 8, "velocity": 98}, {"time": 1788, "pitch": 50, "duration": 2, "velocity": 98}, {"time": 1791, "pitch": 62, "duration": 4, "velocity": 98}, {"time": 1794, "pitch": 66, "duration": 2, "velocity": 98}, {"time": 1797, "pitch": 43, "duration": 13, "velocity": 98}, {"time": 1797, "pitch": 62, "duration": 10, "velocity": 98}, {"time": 1797, "pitch": 67, "duration": 11, "velocity": 98}, {"time": 1797, "pitch": 71, "duration": 10, "velocity": 98}, {"time": 1803, "pitch": 50, "duration": 7, "velocity": 98}, {"time": 1809, "pitch": 62, "duration": 3, "velocity": 98}, {"time": 1809, "pitch": 67, "duration": 2, "velocity": 98}, {"time": 1809, "pitch": 71, "duration": 1, "velocity": 98}, {"time": 1815, "pitch": 48, "duration": 22, "velocity": 98}, {"time": 1815, "pitch": 60, "duration": 14, "velocity": 98}, {"time": 1815, "pitch": 64, "duration": 14, "velocity": 98}, {"time": 1815, "pitch": 67, "duration": 14, "velocity": 98}, {"time": 1827, "pitch": 55, "duration": 8, "velocity": 98}, {"time": 1833, "pitch": 64, "duration": 6, "velocity": 98}, {"time": 1833, "pitch": 67, "duration": 7, "velocity": 98}, {"time": 1836, "pitch": 55, "duration": 2, "velocity": 98}, {"time": 1839, "pitch": 60, "duration": 2, "velocity": 98}, {"time": 1845, "pitch": 43, "duration": 11, "velocity": 98}, {"time": 1845, "pitch": 62, "duration": 10, "velocity": 98}, {"time": 1845, "pitch": 67, "duration": 10, "velocity": 98}, {"time": 1845, "pitch": 71, "duration": 10, "velocity": 98}, {"time": 1851, "pitch": 50, "duration": 6, "velocity": 98}, {"time": 1857, "pitch": 62, "duration": 3, "velocity": 98}, {"time": 1857, "pitch": 67, "duration": 2, "velocity": 98}, {"time": 1857, "pitch": 71, "duration": 1, "velocity": 98}, {"time": 1863, "pitch": 48, "duration": 24, "velocity": 98}, {"time": 1863, "pitch": 60, "duration": 13, "velocity": 98}, {"time": 1863, "pitch": 64, "duration": 14, "velocity": 98}, {"time": 1863, "pitch": 67, "duration": 14, "velocity": 98}, {"time": 1875, "pitch": 55, "duration": 8, "velocity": 86}, {"time": 1881, "pitch": 64, "duration": 6, "velocity": 98}, {"time": 1881, "pitch": 67, "duration": 6, "velocity": 98}, {"time": 1884, "pitch": 55, "duration": 2, "velocity": 98}, {"time": 1887, "pitch": 62, "duration": 5, "velocity": 98}, {"time": 1893, "pitch": 43, "duration": 11, "velocity": 98}, {"time": 1893, "pitch": 62, "duration": 9, "velocity": 98}, {"time": 1893, "pitch": 67, "duration": 9, "velocity": 98}, {"time": 1893, "pitch": 71, "duration": 9, "velocity": 98}, {"time": 1899, "pitch": 50, "duration": 6, "velocity": 98}, {"time": 1905, "pitch": 62, "duration": 2, "velocity": 98}, {"time": 1905, "pitch": 67, "duration": 1, "velocity": 98}, {"time": 1905, "pitch": 71, "duration": 1, "velocity": 98}, {"time": 1911, "pitch": 48, "duration": 22, "velocity": 94}, {"time": 1911, "pitch": 60, "duration": 13, "velocity": 98}, {"time": 1911, "pitch": 64, "duration": 14, "velocity": 98}, {"time": 1911, "pitch": 67, "duration": 14, "velocity": 98}, {"time": 1923, "pitch": 55, "duration": 7, "velocity": 87}, {"time": 1929, "pitch": 60, "duration": 2, "velocity": 98}, {"time": 1929, "pitch": 64, "duration": 6, "velocity": 98}, {"time": 1929, "pitch": 67, "duration": 6, "velocity": 98}, {"time": 1932, "pitch": 55, "duration": 2, "velocity": 92}, {"time": 1935, "pitch": 60, "duration": 2, "velocity": 98}, {"time": 1941, "pitch": 38, "duration": 40, "velocity": 98}, {"time": 1941, "pitch": 57, "duration": 10, "velocity": 98}, {"time": 1941, "pitch": 62, "duration": 11, "velocity": 98}, {"time": 1941, "pitch": 66, "duration": 9, "velocity": 98}, {"time": 1947, "pitch": 50, "duration": 10, "velocity": 98}, {"time": 1953, "pitch": 62, "duration": 9, "velocity": 98}, {"time": 1953, "pitch": 66, "duration": 9, "velocity": 98}, {"time": 1959, "pitch": 50, "duration": 19, "velocity": 76}, {"time": 1965, "pitch": 57, "duration": 10, "velocity": 95}, {"time": 1965, "pitch": 62, "duration": 11, "velocity": 98}, {"time": 1965, "pitch": 66, "duration": 11, "velocity": 98}, {"time": 1977, "pitch": 62, "duration": 13, "velocity": 89}, {"time": 1977, "pitch": 66, "duration": 13, "velocity": 76}, {"time": 1989, "pitch": 43, "duration": 28, "velocity": 98}, {"time": 1989, "pitch": 59, "duration": 10, "velocity": 98}, {"time": 1989, "pitch": 62, "duration": 1, "velocity": 98}, {"time": 1995, "pitch": 50, "duration": 9, "velocity": 78}, {"time": 2001, "pitch": 59, "duration": 10, "velocity": 98}, {"time": 2001, "pitch": 62, "duration": 6, "velocity": 98}, {"time": 2007, "pitch": 50, "duration": 8, "velocity": 88}, {"time": 2013, "pitch": 59, "duration": 7, "velocity": 98}, {"time": 2013, "pitch": 62, "duration": 7, "velocity": 98}, {"time": 2019, "pitch": 43, "duration": 6, "velocity": 98}, {"time": 2025, "pitch": 59, "duration": 12, "velocity": 98}, {"time": 2025, "pitch": 62, "duration": 12, "velocity": 98}, {"time": 2031, "pitch": 42, "duration": 5, "velocity": 98}, {"time": 2037, "pitch": 40, "duration": 40, "velocity": 98}, {"time": 2043, "pitch": 47, "duration": 33, "velocity": 65}, {"time": 2049, "pitch": 55, "duration": 2, "velocity": 98}, {"time": 2049, "pitch": 59, "duration": 3, "velocity": 98}, {"time": 2055, "pitch": 52, "duration": 8, "velocity": 59}, {"time": 2061, "pitch": 59, "duration": 8, "velocity": 98}, {"time": 2061, "pitch": 64, "duration": 8, "velocity": 98}, {"time": 2061, "pitch": 67, "duration": 8, "velocity": 98}, {"time": 2067, "pitch": 52, "duration": 5, "velocity": 71}, {"time": 2073, "pitch": 64, "duration": 6, "velocity": 98}, {"time": 2073, "pitch": 67, "duration": 6, "velocity": 98}, {"time": 2079, "pitch": 59, "duration": 6, "velocity": 96}, {"time": 2085, "pitch": 45, "duration": 44, "velocity": 98}, {"time": 2085, "pitch": 60, "duration": 2, "velocity": 98}, {"time": 2085, "pitch": 64, "duration": 2, "velocity": 98}, {"time": 2091, "pitch": 52, "duration": 37, "velocity": 65}, {"time": 2097, "pitch": 64, "duration": 8, "velocity": 96}, {"time": 2097, "pitch": 69, "duration": 8, "velocity": 98}, {"time": 2097, "pitch": 72, "duration": 7, "velocity": 98}, {"time": 2103, "pitch": 57, "duration": 8, "velocity": 84}, {"time": 2109, "pitch": 64, "duration": 8, "velocity": 98}, {"time": 2109, "pitch": 69, "duration": 10, "velocity": 98}, {"time": 2109, "pitch": 72, "duration": 8, "velocity": 98}, {"time": 2115, "pitch": 57, "duration": 9, "velocity": 60}, {"time": 2121, "pitch": 69, "duration": 6, "velocity": 98}, {"time": 2121, "pitch": 72, "duration": 6, "velocity": 98}, {"time": 2127, "pitch": 57, "duration": 6, "velocity": 90}, {"time": 2133, "pitch": 50, "duration": 17, "velocity": 95}, {"time": 2133, "pitch": 62, "duration": 8, "velocity": 98}, {"time": 2133, "pitch": 66, "duration": 9, "velocity": 98}, {"time": 2133, "pitch": 69, "duration": 9, "velocity": 98}, {"time": 2139, "pitch": 57, "duration": 8, "velocity": 64}, {"time": 2145, "pitch": 62, "duration": 4, "velocity": 96}, {"time": 2145, "pitch": 66, "duration": 8, "velocity": 98}, {"time": 2145, "pitch": 69, "duration": 8, "velocity": 98}, {"time": 2151, "pitch": 62, "duration": 5, "velocity": 98}, {"time": 2157, "pitch": 38, "duration": 11, "velocity": 87}, {"time": 2157, "pitch": 57, "duration": 10, "velocity": 98}, {"time": 2157, "pitch": 62, "duration": 10, "velocity": 98}, {"time": 2157, "pitch": 66, "duration": 10, "velocity": 98}, {"time": 2169, "pitch": 36, "duration": 12, "velocity": 98}, {"time": 2169, "pitch": 62, "duration": 11, "velocity": 98}, {"time": 2169, "pitch": 66, "duration": 11, "velocity": 98}, {"time": 2181, "pitch": 35, "duration": 38, "velocity": 94}, {"time": 2181, "pitch": 59, "duration": 8, "velocity": 98}, {"time": 2181, "pitch": 62, "duration": 8, "velocity": 98}, {"time": 2181, "pitch": 66, "duration": 7, "velocity": 98}, {"time": 2187, "pitch": 47, "duration": 19, "velocity": 55}, {"time": 2193, "pitch": 59, "duration": 8, "velocity": 98}, {"time": 2193, "pitch": 62, "duration": 7, "velocity": 98}, {"time": 2193, "pitch": 66, "duration": 7, "velocity": 98}, {"time": 2199, "pitch": 42, "duration": 20, "velocity": 61}, {"time": 2205, "pitch": 59, "duration": 8, "velocity": 98}, {"time": 2205, "pitch": 62, "duration": 9, "velocity": 98}, {"time": 2205, "pitch": 66, "duration": 8, "velocity": 98}, {"time": 2211, "pitch": 47, "duration": 7, "velocity": 65}, {"time": 2217, "pitch": 62, "duration": 9, "velocity": 98}, {"time": 2217, "pitch": 66, "duration": 6, "velocity": 98}, {"time": 2223, "pitch": 59, "duration": 6, "velocity": 90}, {"time": 2229, "pitch": 40, "duration": 29, "velocity": 98}, {"time": 2229, "pitch": 59, "duration": 2, "velocity": 98}, {"time": 2229, "pitch": 64, "duration": 2, "velocity": 98}, {"time": 2229, "pitch": 69, "duration": 2, "velocity": 98}, {"time": 2235, "pitch": 47, "duration": 9, "velocity": 82}, {"time": 2241, "pitch": 52, "duration": 11, "velocity": 98}, {"time": 2241, "pitch": 56, "duration": 11, "velocity": 98}, {"time": 2241, "pitch": 59, "duration": 11, "velocity": 98}, {"time": 2253, "pitch": 52, "duration": 13, "velocity": 98}, {"time": 2253, "pitch": 56, "duration": 13, "velocity": 98}, {"time": 2253, "pitch": 59, "duration": 12, "velocity": 98}, {"time": 2259, "pitch": 40, "duration": 6, "velocity": 98}, {"time": 2265, "pitch": 42, "duration": 6, "velocity": 98}, {"time": 2271, "pitch": 44, "duration": 6, "velocity": 98}, {"time": 2277, "pitch": 45, "duration": 18, "velocity": 98}, {"time": 2277, "pitch": 57, "duration": 8, "velocity": 98}, {"time": 2277, "pitch": 60, "duration": 8, "velocity": 98}, {"time": 2277, "pitch": 64, "duration": 10, "velocity": 98}, {"time": 2283, "pitch": 52, "duration": 9, "velocity": 87}, {"time": 2289, "pitch": 60, "duration": 11, "velocity": 98}, {"time": 2289, "pitch": 64, "duration": 7, "velocity": 98}, {"time": 2292, "pitch": 52, "duration": 2, "velocity": 62}, {"time": 2295, "pitch": 57, "duration": 5, "velocity": 87}, {"time": 2301, "pitch": 38, "duration": 14, "velocity": 87}, {"time": 2301, "pitch": 57, "duration": 8, "velocity": 98}, {"time": 2301, "pitch": 62, "duration": 11, "velocity": 98}, {"time": 2301, "pitch": 66, "duration": 11, "velocity": 98}, {"time": 2307, "pitch": 50, "duration": 7, "velocity": 57}, {"time": 2313, "pitch": 62, "duration": 7, "velocity": 98}, {"time": 2313, "pitch": 66, "duration": 6, "velocity": 98}, {"time": 2319, "pitch": 57, "duration": 4, "velocity": 74}, {"time": 2325, "pitch": 43, "duration": 41, "velocity": 95}, {"time": 2325, "pitch": 59, "duration": 2, "velocity": 98}, {"time": 2325, "pitch": 62, "duration": 2, "velocity": 98}, {"time": 2331, "pitch": 50, "duration": 32, "velocity": 76}, {"time": 2337, "pitch": 62, "duration": 9, "velocity": 98}, {"time": 2337, "pitch": 67, "duration": 9, "velocity": 98}, {"time": 2337, "pitch": 71, "duration": 9, "velocity": 98}, {"time": 2343, "pitch": 55, "duration": 9, "velocity": 80}, {"time": 2349, "pitch": 62, "duration": 8, "velocity": 82}, {"time": 2349, "pitch": 67, "duration": 10, "velocity": 89}, {"time": 2349, "pitch": 71, "duration": 10, "velocity": 85}, {"time": 2355, "pitch": 55, "duration": 7, "velocity": 68}, {"time": 2361, "pitch": 67, "duration": 6, "velocity": 98}, {"time": 2361, "pitch": 71, "duration": 6, "velocity": 98}, {"time": 2364, "pitch": 50, "duration": 2, "velocity": 98}, {"time": 2367, "pitch": 62, "duration": 3, "velocity": 98}, {"time": 2373, "pitch": 38, "duration": 40, "velocity": 98}, {"time": 2373, "pitch": 62, "duration": 4, "velocity": 98}, {"time": 2373, "pitch": 66, "duration": 4, "velocity": 98}, {"time": 2373, "pitch": 69, "duration": 4, "velocity": 98}, {"time": 2379, "pitch": 50, "duration": 9, "velocity": 98}, {"time": 2379, "pitch": 62, "duration": 3, "velocity": 96}, {"time": 2379, "pitch": 66, "duration": 2, "velocity": 98}, {"time": 2379, "pitch": 69, "duration": 2, "velocity": 84}, {"time": 2385, "pitch": 57, "duration": 3, "velocity": 98}, {"time": 2385, "pitch": 62, "duration": 2, "velocity": 98}, {"time": 2385, "pitch": 66, "duration": 4, "velocity": 98}, {"time": 2391, "pitch": 50, "duration": 5, "velocity": 75}, {"time": 2391, "pitch": 57, "duration": 2, "velocity": 95}, {"time": 2391, "pitch": 62, "duration": 2, "velocity": 98}, {"time": 2391, "pitch": 66, "duration": 2, "velocity": 98}, {"time": 2397, "pitch": 50, "duration": 7, "velocity": 98}, {"time": 2397, "pitch": 57, "duration": 4, "velocity": 98}, {"time": 2397, "pitch": 62, "duration": 5, "velocity": 98}, {"time": 2397, "pitch": 66, "duration": 5, "velocity": 98}, {"time": 2403, "pitch": 62, "duration": 1, "velocity": 97}, {"time": 2403, "pitch": 66, "duration": 2, "velocity": 98}, {"time": 2406, "pitch": 50, "duration": 3, "velocity": 93}, {"time": 2409, "pitch": 62, "duration": 5, "velocity": 98}, {"time": 2409, "pitch": 66, "duration": 6, "velocity": 98}, {"time": 2412, "pitch": 50, "duration": 2, "velocity": 98}, {"time": 2415, "pitch": 57, "duration": 1, "velocity": 98}, {"time": 2421, "pitch": 43, "duration": 16, "velocity": 98}, {"time": 2421, "pitch": 55, "duration": 2, "velocity": 98}, {"time": 2421, "pitch": 59, "duration": 2, "velocity": 98}, {"time": 2421, "pitch": 62, "duration": 2, "velocity": 98}, {"time": 2427, "pitch": 50, "duration": 9, "velocity": 71}, {"time": 2433, "pitch": 67, "duration": 5, "velocity": 98}, {"time": 2433, "pitch": 71, "duration": 6, "velocity": 98}, {"time": 2436, "pitch": 55, "duration": 2, "velocity": 98}, {"time": 2439, "pitch": 62, "duration": 1, "velocity": 98}, {"time": 2445, "pitch": 47, "duration": 14, "velocity": 95}, {"time": 2445, "pitch": 59, "duration": 1, "velocity": 98}, {"time": 2445, "pitch": 63, "duration": 1, "velocity": 98}, {"time": 2445, "pitch": 66, "duration": 1, "velocity": 98}, {"time": 2451, "pitch": 54, "duration": 8, "velocity": 60}, {"time": 2454, "pitch": 71, "duration": 2, "velocity": 92}, {"time": 2454, "pitch": 75, "duration": 2, "velocity": 98}, {"time": 2454, "pitch": 78, "duration": 1, "velocity": 98}, {"time": 2457, "pitch": 59, "duration": 1, "velocity": 98}, {"time": 2457, "pitch": 71, "duration": 1, "velocity": 98}, {"time": 2457, "pitch": 75, "duration": 5, "velocity": 98}, {"time": 2457, "pitch": 78, "duration": 4, "velocity": 98}, {"time": 2469, "pitch": 40, "duration": 1, "velocity": 98}, {"time": 2469, "pitch": 64, "duration": 7, "velocity": 98}, {"time": 2469, "pitch": 67, "duration": 7, "velocity": 98}, {"time": 2469, "pitch": 71, "duration": 7, "velocity": 98}, {"time": 2475, "pitch": 52, "duration": 7, "velocity": 77}, {"time": 2481, "pitch": 67, "duration": 6, "velocity": 98}, {"time": 2481, "pitch": 71, "duration": 6, "velocity": 98}, {"time": 2484, "pitch": 52, "duration": 1, "velocity": 98}, {"time": 2487, "pitch": 64, "duration": 1, "velocity": 98}, {"time": 2493, "pitch": 50, "duration": 13, "velocity": 98}, {"time": 2493, "pitch": 62, "duration": 1, "velocity": 98}, {"time": 2493, "pitch": 66, "duration": 1, "velocity": 98}, {"time": 2493, "pitch": 69, "duration": 1, "velocity": 98}, {"time": 2499, "pitch": 57, "duration": 5, "velocity": 72}, {"time": 2502, "pitch": 69, "duration": 2, "velocity": 98}, {"time": 2502, "pitch": 74, "duration": 2, "velocity": 98}, {"time": 2502, "pitch": 78, "duration": 2, "velocity": 98}, {"time": 2505, "pitch": 57, "duration": 1, "velocity": 98}, {"time": 2505, "pitch": 74, "duration": 7, "velocity": 98}, {"time": 2505, "pitch": 78, "duration": 6, "velocity": 98}, {"time": 2511, "pitch": 69, "duration": 7, "velocity": 98}, {"time": 2517, "pitch": 36, "duration": 1, "velocity": 93}, {"time": 2517, "pitch": 72, "duration": 1, "velocity": 98}, {"time": 2517, "pitch": 75, "duration": 1, "velocity": 98}, {"time": 2517, "pitch": 76, "duration": 1, "velocity": 98}, {"time": 2526, "pitch": 67, "duration": 2, "velocity": 54}, {"time": 2529, "pitch": 64, "duration": 6, "velocity": 98}, {"time": 2529, "pitch": 67, "duration": 7, "velocity": 98}, {"time": 2535, "pitch": 48, "duration": 6, "velocity": 97}, {"time": 2541, "pitch": 47, "duration": 19, "velocity": 98}, {"time": 2541, "pitch": 59, "duration": 10, "velocity": 98}, {"time": 2541, "pitch": 62, "duration": 11, "velocity": 98}, {"time": 2541, "pitch": 66, "duration": 11, "velocity": 98}, {"time": 2550, "pitch": 54, "duration": 3, "velocity": 62}, {"time": 2553, "pitch": 62, "duration": 7, "velocity": 98}, {"time": 2553, "pitch": 66, "duration": 7, "velocity": 98}, {"time": 2559, "pitch": 54, "duration": 1, "velocity": 80}, {"time": 2559, "pitch": 59, "duration": 3, "velocity": 98}, {"time": 2565, "pitch": 45, "duration": 17, "velocity": 98}, {"time": 2565, "pitch": 57, "duration": 1, "velocity": 98}, {"time": 2565, "pitch": 60, "duration": 1, "velocity": 98}, {"time": 2565, "pitch": 64, "duration": 1, "velocity": 98}, {"time": 2568, "pitch": 52, "duration": 13, "velocity": 90}, {"time": 2571, "pitch": 57, "duration": 8, "velocity": 98}, {"time": 2574, "pitch": 64, "duration": 4, "velocity": 98}, {"time": 2574, "pitch": 69, "duration": 1, "velocity": 78}, {"time": 2577, "pitch": 69, "duration": 6, "velocity": 98}, {"time": 2577, "pitch": 72, "duration": 6, "velocity": 98}, {"time": 2580, "pitch": 57, "duration": 2, "velocity": 98}, {"time": 2583, "pitch": 64, "duration": 1, "velocity": 98}, {"time": 2586, "pitch": 69, "duration": 2, "velocity": 67}, {"time": 2589, "pitch": 38, "duration": 9, "velocity": 98}, {"time": 2589, "pitch": 62, "duration": 5, "velocity": 98}, {"time": 2589, "pitch": 66, "duration": 7, "velocity": 98}, {"time": 2592, "pitch": 50, "duration": 8, "velocity": 98}, {"time": 2595, "pitch": 57, "duration": 4, "velocity": 98}, {"time": 2598, "pitch": 66, "duration": 4, "velocity": 98}, {"time": 2601, "pitch": 39, "duration": 7, "velocity": 98}, {"time": 2601, "pitch": 63, "duration": 11, "velocity": 98}, {"time": 2613, "pitch": 40, "duration": 17, "velocity": 98}, {"time": 2613, "pitch": 59, "duration": 4, "velocity": 98}, {"time": 2613, "pitch": 64, "duration": 8, "velocity": 98}, {"time": 2613, "pitch": 67, "duration": 10, "velocity": 98}, {"time": 2616, "pitch": 47, "duration": 14, "velocity": 98}, {"time": 2619, "pitch": 52, "duration": 7, "velocity": 98}, {"time": 2622, "pitch": 59, "duration": 3, "velocity": 98}, {"time": 2622, "pitch": 64, "duration": 1, "velocity": 47}, {"time": 2625, "pitch": 64, "duration": 6, "velocity": 98}, {"time": 2625, "pitch": 67, "duration": 6, "velocity": 98}, {"time": 2628, "pitch": 52, "duration": 2, "velocity": 98}, {"time": 2631, "pitch": 59, "duration": 6, "velocity": 98}, {"time": 2637, "pitch": 39, "duration": 17, "velocity": 98}, {"time": 2637, "pitch": 63, "duration": 10, "velocity": 98}, {"time": 2637, "pitch": 66, "duration": 10, "velocity": 98}, {"time": 2637, "pitch": 69, "duration": 7, "velocity": 98}, {"time": 2643, "pitch": 51, "duration": 7, "velocity": 98}, {"time": 2649, "pitch": 63, "duration": 5, "velocity": 98}, {"time": 2649, "pitch": 66, "duration": 7, "velocity": 98}, {"time": 2649, "pitch": 69, "duration": 7, "velocity": 98}, {"time": 2652, "pitch": 51, "duration": 2, "velocity": 98}, {"time": 2655, "pitch": 63, "duration": 2, "velocity": 98}, {"time": 2661, "pitch": 50, "duration": 15, "velocity": 98}, {"time": 2661, "pitch": 62, "duration": 8, "velocity": 98}, {"time": 2661, "pitch": 66, "duration": 7, "velocity": 98}, {"time": 2667, "pitch": 57, "duration": 10, "velocity": 98}, {"time": 2673, "pitch": 62, "duration": 2, "velocity": 98}, {"time": 2673, "pitch": 66, "duration": 2, "velocity": 98}, {"time": 2679, "pitch": 49, "duration": 20, "velocity": 98}, {"time": 2679, "pitch": 61, "duration": 15, "velocity": 98}, {"time": 2679, "pitch": 64, "duration": 15, "velocity": 98}, {"time": 2679, "pitch": 67, "duration": 15, "velocity": 98}, {"time": 2697, "pitch": 61, "duration": 6, "velocity": 98}, {"time": 2697, "pitch": 64, "duration": 8, "velocity": 98}, {"time": 2697, "pitch": 67, "duration": 7, "velocity": 98}, {"time": 2700, "pitch": 49, "duration": 1, "velocity": 98}, {"time": 2703, "pitch": 61, "duration": 2, "velocity": 93}, {"time": 2709, "pitch": 36, "duration": 39, "velocity": 98}, {"time": 2709, "pitch": 55, "duration": 8, "velocity": 98}, {"time": 2709, "pitch": 60, "duration": 8, "velocity": 98}, {"time": 2709, "pitch": 64, "duration": 10, "velocity": 98}, {"time": 2715, "pitch": 48, "duration": 9, "velocity": 98}, {"time": 2721, "pitch": 55, "duration": 10, "velocity": 98}, {"time": 2721, "pitch": 60, "duration": 11, "velocity": 98}, {"time": 2721, "pitch": 64, "duration": 11, "velocity": 98}, {"time": 2727, "pitch": 48, "duration": 10, "velocity": 60}, {"time": 2733, "pitch": 55, "duration": 8, "velocity": 98}, {"time": 2733, "pitch": 60, "duration": 10, "velocity": 98}, {"time": 2733, "pitch": 64, "duration": 10, "velocity": 98}, {"time": 2739, "pitch": 48, "duration": 8, "velocity": 66}, {"time": 2745, "pitch": 60, "duration": 8, "velocity": 98}, {"time": 2745, "pitch": 64, "duration": 7, "velocity": 98}, {"time": 2751, "pitch": 55, "duration": 3, "velocity": 98}, {"time": 2757, "pitch": 38, "duration": 1, "velocity": 98}, {"time": 2757, "pitch": 57, "duration": 5, "velocity": 98}, {"time": 2757, "pitch": 62, "duration": 5, "velocity": 98}, {"time": 2757, "pitch": 66, "duration": 6, "velocity": 98}, {"time": 2763, "pitch": 50, "duration": 18, "velocity": 98}, {"time": 2766, "pitch": 62, "duration": 2, "velocity": 92}, {"time": 2766, "pitch": 66, "duration": 2, "velocity": 98}, {"time": 2766, "pitch": 69, "duration": 2, "velocity": 98}, {"time": 2769, "pitch": 57, "duration": 9, "velocity": 98}, {"time": 2769, "pitch": 62, "duration": 4, "velocity": 98}, {"time": 2769, "pitch": 66, "duration": 4, "velocity": 98}, {"time": 2769, "pitch": 69, "duration": 4, "velocity": 98}, {"time": 2775, "pitch": 54, "duration": 6, "velocity": 98}, {"time": 2778, "pitch": 66, "duration": 2, "velocity": 98}, {"time": 2778, "pitch": 78, "duration": 1, "velocity": 98}, {"time": 2781, "pitch": 50, "duration": 20, "velocity": 75}, {"time": 2781, "pitch": 57, "duration": 9, "velocity": 98}, {"time": 2781, "pitch": 66, "duration": 1, "velocity": 98}, {"time": 2781, "pitch": 78, "duration": 1, "velocity": 98}, {"time": 2787, "pitch": 54, "duration": 7, "velocity": 98}, {"time": 2787, "pitch": 69, "duration": 4, "velocity": 98}, {"time": 2787, "pitch": 81, "duration": 4, "velocity": 98}, {"time": 2793, "pitch": 57, "duration": 7, "velocity": 98}, {"time": 2793, "pitch": 71, "duration": 4, "velocity": 98}, {"time": 2793, "pitch": 83, "duration": 3, "velocity": 98}, {"time": 2799, "pitch": 54, "duration": 1, "velocity": 98}, {"time": 2799, "pitch": 69, "duration": 2, "velocity": 98}, {"time": 2799, "pitch": 81, "duration": 2, "velocity": 98}, {"time": 2805, "pitch": 43, "duration": 16, "velocity": 98}, {"time": 2805, "pitch": 55, "duration": 2, "velocity": 98}, {"time": 2805, "pitch": 59, "duration": 2, "velocity": 98}, {"time": 2805, "pitch": 62, "duration": 2, "velocity": 98}, {"time": 2811, "pitch": 50, "duration": 9, "velocity": 71}, {"time": 2817, "pitch": 67, "duration": 5, "velocity": 98}, {"time": 2817, "pitch": 71, "duration": 6, "velocity": 98}, {"time": 2820, "pitch": 55, "duration": 2, "velocity": 98}, {"time": 2823, "pitch": 62, "duration": 1, "velocity": 98}, {"time": 2829, "pitch": 47, "duration": 14, "velocity": 95}, {"time": 2829, "pitch": 59, "duration": 1, "velocity": 98}, {"time": 2829, "pitch": 63, "duration": 1, "velocity": 98}, {"time": 2829, "pitch": 66, "duration": 1, "velocity": 98}, {"time": 2835, "pitch": 54, "duration": 8, "velocity": 60}, {"time": 2838, "pitch": 71, "duration": 2, "velocity": 92}, {"time": 2838, "pitch": 75, "duration": 2, "velocity": 98}, {"time": 2838, "pitch": 78, "duration": 1, "velocity": 98}, {"time": 2841, "pitch": 59, "duration": 1, "velocity": 98}, {"time": 2841, "pitch": 71, "duration": 1, "velocity": 98}, {"time": 2841, "pitch": 75, "duration": 5, "velocity": 98}, {"time": 2841, "pitch": 78, "duration": 4, "velocity": 98}, {"time": 2853, "pitch": 40, "duration": 1, "velocity": 98}, {"time": 2853, "pitch": 64, "duration": 7, "velocity": 98}, {"time": 2853, "pitch": 67, "duration": 7, "velocity": 98}, {"time": 2853, "pitch": 71, "duration": 7, "velocity": 98}, {"time": 2859, "pitch": 52, "duration": 7, "velocity": 77}, {"time": 2865, "pitch": 67, "duration": 6, "velocity": 98}, {"time": 2865, "pitch": 71, "duration": 6, "velocity": 98}, {"time": 2868, "pitch": 52, "duration": 1, "velocity": 98}, {"time": 2871, "pitch": 64, "duration": 1, "velocity": 98}, {"time": 2877, "pitch": 50, "duration": 13, "velocity": 98}, {"time": 2877, "pitch": 62, "duration": 1, "velocity": 98}, {"time": 2877, "pitch": 66, "duration": 1, "velocity": 98}, {"time": 2877, "pitch": 69, "duration": 1, "velocity": 98}, {"time": 2883, "pitch": 57, "duration": 5, "velocity": 72}, {"time": 2886, "pitch": 69, "duration": 2, "velocity": 98}, {"time": 2886, "pitch": 74, "duration": 2, "velocity": 98}, {"time": 2886, "pitch": 78, "duration": 2, "velocity": 98}, {"time": 2889, "pitch": 57, "duration": 1, "velocity": 98}, {"time": 2889, "pitch": 74, "duration": 7, "velocity": 98}, {"time": 2889, "pitch": 78, "duration": 6, "velocity": 98}, {"time": 2895, "pitch": 69, "duration": 7, "velocity": 98}, {"time": 2901, "pitch": 36, "duration": 1, "velocity": 93}, {"time": 2901, "pitch": 72, "duration": 1, "velocity": 98}, {"time": 2901, "pitch": 76, "duration": 1, "velocity": 98}, {"time": 2910, "pitch": 67, "duration": 2, "velocity": 54}, {"time": 2913, "pitch": 64, "duration": 6, "velocity": 98}, {"time": 2913, "pitch": 67, "duration": 7, "velocity": 98}, {"time": 2919, "pitch": 48, "duration": 6, "velocity": 97}, {"time": 2925, "pitch": 47, "duration": 19, "velocity": 98}, {"time": 2925, "pitch": 59, "duration": 10, "velocity": 98}, {"time": 2925, "pitch": 62, "duration": 11, "velocity": 98}, {"time": 2925, "pitch": 66, "duration": 11, "velocity": 98}, {"time": 2934, "pitch": 54, "duration": 3, "velocity": 62}, {"time": 2937, "pitch": 62, "duration": 7, "velocity": 98}, {"time": 2937, "pitch": 66, "duration": 7, "velocity": 98}, {"time": 2943, "pitch": 54, "duration": 1, "velocity": 80}, {"time": 2943, "pitch": 59, "duration": 3, "velocity": 98}, {"time": 2949, "pitch": 45, "duration": 17, "velocity": 98}, {"time": 2949, "pitch": 57, "duration": 1, "velocity": 98}, {"time": 2949, "pitch": 60, "duration": 1, "velocity": 98}, {"time": 2949, "pitch": 64, "duration": 1, "velocity": 98}, {"time": 2952, "pitch": 52, "duration": 13, "velocity": 90}, {"time": 2955, "pitch": 57, "duration": 8, "velocity": 98}, {"time": 2958, "pitch": 64, "duration": 4, "velocity": 98}, {"time": 2958, "pitch": 69, "duration": 1, "velocity": 78}, {"time": 2961, "pitch": 69, "duration": 6, "velocity": 98}, {"time": 2961, "pitch": 72, "duration": 6, "velocity": 98}, {"time": 2964, "pitch": 57, "duration": 2, "velocity": 98}, {"time": 2967, "pitch": 64, "duration": 1, "velocity": 98}, {"time": 2970, "pitch": 69, "duration": 2, "velocity": 67}, {"time": 2973, "pitch": 38, "duration": 9, "velocity": 98}, {"time": 2973, "pitch": 62, "duration": 5, "velocity": 98}, {"time": 2973, "pitch": 66, "duration": 7, "velocity": 98}, {"time": 2976, "pitch": 50, "duration": 8, "velocity": 98}, {"time": 2979, "pitch": 57, "duration": 4, "velocity": 98}, {"time": 2982, "pitch": 66, "duration": 4, "velocity": 98}, {"time": 2985, "pitch": 39, "duration": 7, "velocity": 98}, {"time": 2985, "pitch": 63, "duration": 11, "velocity": 98}, {"time": 2997, "pitch": 40, "duration": 17, "velocity": 98}, {"time": 2997, "pitch": 59, "duration": 4, "velocity": 98}, {"time": 2997, "pitch": 64, "duration": 8, "velocity": 98}, {"time": 2997, "pitch": 67, "duration": 10, "velocity": 98}, {"time": 3000, "pitch": 47, "duration": 14, "velocity": 98}, {"time": 3003, "pitch": 52, "duration": 7, "velocity": 98}, {"time": 3006, "pitch": 59, "duration": 3, "velocity": 98}, {"time": 3006, "pitch": 64, "duration": 1, "velocity": 47}, {"time": 3009, "pitch": 64, "duration": 6, "velocity": 98}, {"time": 3009, "pitch": 67, "duration": 6, "velocity": 98}, {"time": 3012, "pitch": 52, "duration": 2, "velocity": 98}, {"time": 3015, "pitch": 59, "duration": 6, "velocity": 98}, {"time": 3021, "pitch": 39, "duration": 17, "velocity": 98}, {"time": 3021, "pitch": 63, "duration": 10, "velocity": 98}, {"time": 3021, "pitch": 66, "duration": 10, "velocity": 98}, {"time": 3021, "pitch": 69, "duration": 7, "velocity": 98}, {"time": 3027, "pitch": 51, "duration": 7, "velocity": 98}, {"time": 3033, "pitch": 63, "duration": 5, "velocity": 98}, {"time": 3033, "pitch": 66, "duration": 7, "velocity": 98}, {"time": 3033, "pitch": 69, "duration": 7, "velocity": 98}, {"time": 3036, "pitch": 51, "duration": 2, "velocity": 98}, {"time": 3039, "pitch": 63, "duration": 2, "velocity": 98}, {"time": 3045, "pitch": 50, "duration": 15, "velocity": 98}, {"time": 3045, "pitch": 62, "duration": 8, "velocity": 98}, {"time": 3045, "pitch": 66, "duration": 7, "velocity": 98}, {"time": 3051, "pitch": 57, "duration": 10, "velocity": 98}, {"time": 3057, "pitch": 62, "duration": 2, "velocity": 98}, {"time": 3057, "pitch": 66, "duration": 2, "velocity": 98}, {"time": 3063, "pitch": 49, "duration": 43, "velocity": 98}, {"time": 3063, "pitch": 61, "duration": 39, "velocity": 98}, {"time": 3063, "pitch": 64, "duration": 39, "velocity": 98}, {"time": 3063, "pitch": 67, "duration": 39, "velocity": 98}, {"time": 3105, "pitch": 59, "duration": 13, "velocity": 98}, {"time": 3117, "pitch": 64, "duration": 14, "velocity": 98}, {"time": 3127, "pitch": 64, "duration": 4, "velocity": 80}, {"time": 3127, "pitch": 69, "duration": 16, "velocity": 98}, {"time": 3129, "pitch": 72, "duration": 18, "velocity": 98}, {"time": 3130, "pitch": 45, "duration": 36, "velocity": 97}, {"time": 3135, "pitch": 52, "duration": 31, "velocity": 68}, {"time": 3141, "pitch": 57, "duration": 15, "velocity": 98}, {"time": 3147, "pitch": 69, "duration": 12, "velocity": 98}, {"time": 3153, "pitch": 72, "duration": 10, "velocity": 98}, {"time": 3159, "pitch": 57, "duration": 6, "velocity": 85}, {"time": 3165, "pitch": 69, "duration": 6, "velocity": 98}, {"time": 3165, "pitch": 72, "duration": 6, "velocity": 98}, {"time": 3171, "pitch": 64, "duration": 3, "velocity": 63}, {"time": 3171, "pitch": 62, "duration": 2, "velocity": 73}, {"time": 3177, "pitch": 50, "duration": 44, "velocity": 95}, {"time": 3177, "pitch": 66, "duration": 11, "velocity": 98}, {"time": 3177, "pitch": 69, "duration": 11, "velocity": 98}, {"time": 3183, "pitch": 57, "duration": 9, "velocity": 84}, {"time": 3189, "pitch": 62, "duration": 7, "velocity": 98}, {"time": 3189, "pitch": 66, "duration": 7, "velocity": 98}, {"time": 3189, "pitch": 69, "duration": 7, "velocity": 98}, {"time": 3195, "pitch": 57, "duration": 8, "velocity": 98}, {"time": 3198, "pitch": 62, "duration": 2, "velocity": 75}, {"time": 3198, "pitch": 66, "duration": 1, "velocity": 98}, {"time": 3198, "pitch": 69, "duration": 1, "velocity": 80}, {"time": 3201, "pitch": 62, "duration": 4, "velocity": 98}, {"time": 3201, "pitch": 66, "duration": 4, "velocity": 98}, {"time": 3201, "pitch": 69, "duration": 4, "velocity": 98}, {"time": 3207, "pitch": 57, "duration": 7, "velocity": 98}, {"time": 3207, "pitch": 62, "duration": 4, "velocity": 98}, {"time": 3207, "pitch": 66, "duration": 4, "velocity": 98}, {"time": 3207, "pitch": 69, "duration": 4, "velocity": 98}, {"time": 3213, "pitch": 62, "duration": 2, "velocity": 98}, {"time": 3213, "pitch": 66, "duration": 3, "velocity": 98}, {"time": 3213, "pitch": 69, "duration": 3, "velocity": 98}, {"time": 3216, "pitch": 57, "duration": 4, "velocity": 98}, {"time": 3219, "pitch": 62, "duration": 6, "velocity": 98}, {"time": 3219, "pitch": 66, "duration": 6, "velocity": 98}, {"time": 3219, "pitch": 69, "duration": 6, "velocity": 98}, {"time": 3225, "pitch": 43, "duration": 12, "velocity": 98}, {"time": 3225, "pitch": 55, "duration": 7, "velocity": 98}, {"time": 3225, "pitch": 59, "duration": 7, "velocity": 98}, {"time": 3225, "pitch": 62, "duration": 8, "velocity": 98}, {"time": 3231, "pitch": 50, "duration": 7, "velocity": 98}, {"time": 3234, "pitch": 59, "duration": 2, "velocity": 52}, {"time": 3234, "pitch": 62, "duration": 2, "velocity": 47}, {"time": 3237, "pitch": 55, "duration": 1, "velocity": 98}, {"time": 3237, "pitch": 59, "duration": 1, "velocity": 98}, {"time": 3237, "pitch": 62, "duration": 1, "velocity": 98}, {"time": 3243, "pitch": 48, "duration": 22, "velocity": 98}, {"time": 3243, "pitch": 60, "duration": 14, "velocity": 98}, {"time": 3243, "pitch": 64, "duration": 16, "velocity": 98}, {"time": 3243, "pitch": 67, "duration": 16, "velocity": 98}, {"time": 3255, "pitch": 55, "duration": 7, "velocity": 82}, {"time": 3261, "pitch": 64, "duration": 6, "velocity": 98}, {"time": 3261, "pitch": 67, "duration": 6, "velocity": 98}, {"time": 3264, "pitch": 55, "duration": 2, "velocity": 98}, {"time": 3267, "pitch": 60, "duration": 1, "velocity": 98}, {"time": 3273, "pitch": 43, "duration": 12, "velocity": 98}, {"time": 3273, "pitch": 55, "duration": 7, "velocity": 98}, {"time": 3273, "pitch": 59, "duration": 11, "velocity": 98}, {"time": 3273, "pitch": 62, "duration": 11, "velocity": 98}, {"time": 3279, "pitch": 50, "duration": 6, "velocity": 77}, {"time": 3285, "pitch": 59, "duration": 1, "velocity": 98}, {"time": 3285, "pitch": 62, "duration": 1, "velocity": 98}, {"time": 3291, "pitch": 48, "duration": 22, "velocity": 98}, {"time": 3291, "pitch": 60, "duration": 13, "velocity": 98}, {"time": 3291, "pitch": 64, "duration": 16, "velocity": 98}, {"time": 3291, "pitch": 67, "duration": 15, "velocity": 98}, {"time": 3303, "pitch": 55, "duration": 7, "velocity": 86}, {"time": 3309, "pitch": 64, "duration": 6, "velocity": 98}, {"time": 3309, "pitch": 67, "duration": 6, "velocity": 98}, {"time": 3312, "pitch": 55, "duration": 2, "velocity": 98}, {"time": 3315, "pitch": 60, "duration": 1, "velocity": 98}, {"time": 3321, "pitch": 43, "duration": 12, "velocity": 96}, {"time": 3321, "pitch": 55, "duration": 10, "velocity": 98}, {"time": 3321, "pitch": 59, "duration": 10, "velocity": 98}, {"time": 3321, "pitch": 62, "duration": 11, "velocity": 98}, {"time": 3327, "pitch": 50, "duration": 6, "velocity": 71}, {"time": 3333, "pitch": 59, "duration": 1, "velocity": 98}, {"time": 3333, "pitch": 62, "duration": 1, "velocity": 98}, {"time": 3339, "pitch": 48, "duration": 30, "velocity": 98}, {"time": 3339, "pitch": 60, "duration": 13, "velocity": 98}, {"time": 3339, "pitch": 64, "duration": 16, "velocity": 98}, {"time": 3339, "pitch": 67, "duration": 15, "velocity": 98}, {"time": 3351, "pitch": 55, "duration": 9, "velocity": 98}, {"time": 3352, "pitch": 62, "duration": 5, "velocity": 98}, {"time": 3359, "pitch": 62, "duration": 13, "velocity": 98}, {"time": 3366, "pitch": 55, "duration": 5, "velocity": 98}, {"time": 3371, "pitch": 57, "duration": 15, "velocity": 98}, {"time": 3378, "pitch": 55, "duration": 17, "velocity": 98}, {"time": 3378, "pitch": 59, "duration": 20, "velocity": 98}, {"time": 3378, "pitch": 62, "duration": 20, "velocity": 98}, {"time": 3378, "pitch": 31, "duration": 2, "velocity": 88}, {"time": 3392, "pitch": 43, "duration": 53, "velocity": 82}, {"time": 3396, "pitch": 50, "duration": 47, "velocity": 80}, {"time": 3400, "pitch": 55, "duration": 43, "velocity": 98}, {"time": 3405, "pitch": 57, "duration": 4, "velocity": 98}, {"time": 3409, "pitch": 59, "duration": 4, "velocity": 94}, {"time": 3412, "pitch": 62, "duration": 2, "velocity": 98}, {"time": 3418, "pitch": 67, "duration": 25, "velocity": 97}, {"time": 3426, "pitch": 74, "duration": 17, "velocity": 91}, {"time": 3426, "pitch": 71, "duration": 17, "velocity": 88}, {"time": 3426, "pitch": 69, "duration": 17, "velocity": 88}], "annotations": [{"time": 213, "annotation": {"number": 64, "value": 127}, "group": "control_change"}, {"time": 259, "annotation": {"number": 64, "value": 0}, "group": "control_change"}, {"time": 261, "annotation": {"number": 64, "value": 127}, "group": "control_change"}, {"time": 307, "annotation": {"number": 64, "value": 0}, "group": "control_change"}, {"time": 308, "annotation": {"number": 64, "value": 127}, "group": "control_change"}, {"time": 355, "annotation": {"number": 64, "value": 0}, "group": "control_change"}, {"time": 357, "annotation": {"number": 64, "value": 127}, "group": "control_change"}, {"time": 376, "annotation": {"number": 64, "value": 127}, "group": "control_change"}, {"time": 380, "annotation": {"number": 64, "value": 0}, "group": "control_change"}, {"time": 381, "annotation": {"number": 64, "value": 127}, "group": "control_change"}, {"time": 381, "annotation": {"number": 64, "value": 0}, "group": "control_change"}, {"time": 406, "annotation": {"number": 64, "value": 127}, "group": "control_change"}, {"time": 451, "annotation": {"number": 64, "value": 0}, "group": "control_change"}, {"time": 453, "annotation": {"number": 64, "value": 127}, "group": "control_change"}, {"time": 488, "annotation": {"number": 64, "value": 0}, "group": "control_change"}, {"time": 490, "annotation": {"number": 64, "value": 127}, "group": "control_change"}, {"time": 492, "annotation": {"number": 64, "value": 0}, "group": "control_change"}, {"time": 501, "annotation": {"number": 64, "value": 127}, "group": "control_change"}, {"time": 546, "annotation": {"number": 64, "value": 0}, "group": "control_change"}, {"time": 549, "annotation": {"number": 64, "value": 127}, "group": "control_change"}, {"time": 596, "annotation": {"number": 64, "value": 0}, "group": "control_change"}, {"time": 643, "annotation": {"number": 64, "value": 0}, "group": "control_change"}, {"time": 645, "annotation": {"number": 64, "value": 127}, "group": "control_change"}, {"time": 691, "annotation": {"number": 64, "value": 0}, "group": "control_change"}, {"time": 692, "annotation": {"number": 64, "value": 127}, "group": "control_change"}, {"time": 739, "annotation": {"number": 64, "value": 0}, "group": "control_change"}, {"time": 741, "annotation": {"number": 64, "value": 127}, "group": "control_change"}, {"time": 760, "annotation": {"number": 64, "value": 127}, "group": "control_change"}, {"time": 764, "annotation": {"number": 64, "value": 0}, "group": "control_change"}, {"time": 765, "annotation": {"number": 64, "value": 127}, "group": "control_change"}, {"time": 765, "annotation": {"number": 64, "value": 0}, "group": "control_change"}, {"time": 790, "annotation": {"number": 64, "value": 127}, "group": "control_change"}, {"time": 835, "annotation": {"number": 64, "value": 0}, "group": "control_change"}, {"time": 837, "annotation": {"number": 64, "value": 127}, "group": "control_change"}, {"time": 872, "annotation": {"number": 64, "value": 0}, "group": "control_change"}, {"time": 874, "annotation": {"number": 64, "value": 127}, "group": "control_change"}, {"time": 876, "annotation": {"number": 64, "value": 0}, "group": "control_change"}, {"time": 885, "annotation": {"number": 64, "value": 127}, "group": "control_change"}, {"time": 886, "annotation": {"number": 64, "value": 127}, "group": "control_change"}, {"time": 906, "annotation": {"number": 64, "value": 0}, "group": "control_change"}, {"time": 909, "annotation": {"number": 64, "value": 127}, "group": "control_change"}, {"time": 931, "annotation": {"number": 64, "value": 0}, "group": "control_change"}, {"time": 932, "annotation": {"number": 64, "value": 127}, "group": "control_change"}, {"time": 978, "annotation": {"number": 64, "value": 0}, "group": "control_change"}, {"time": 981, "annotation": {"number": 64, "value": 127}, "group": "control_change"}, {"time": 1027, "annotation": {"number": 64, "value": 0}, "group": "control_change"}, {"time": 1029, "annotation": {"number": 64, "value": 127}, "group": "control_change"}, {"time": 1075, "annotation": {"number": 64, "value": 0}, "group": "control_change"}, {"time": 1077, "annotation": {"number": 64, "value": 127}, "group": "control_change"}, {"time": 1099, "annotation": {"number": 64, "value": 0}, "group": "control_change"}, {"time": 1100, "annotation": {"number": 64, "value": 127}, "group": "control_change"}, {"time": 1147, "annotation": {"number": 64, "value": 0}, "group": "control_change"}, {"time": 1149, "annotation": {"number": 64, "value": 127}, "group": "control_change"}, {"time": 1171, "annotation": {"number": 64, "value": 0}, "group": "control_change"}, {"time": 1173, "annotation": {"number": 64, "value": 127}, "group": "control_change"}, {"time": 1197, "annotation": {"number": 64, "value": 127}, "group": "control_change"}, {"time": 1209, "annotation": {"number": 64, "value": 0}, "group": "control_change"}, {"time": 1212, "annotation": {"number": 64, "value": 127}, "group": "control_change"}, {"time": 1219, "annotation": {"number": 64, "value": 0}, "group": "control_change"}, {"time": 1222, "annotation": {"number": 64, "value": 127}, "group": "control_change"}, {"time": 1244, "annotation": {"number": 64, "value": 0}, "group": "control_change"}, {"time": 1245, "annotation": {"number": 64, "value": 127}, "group": "control_change"}, {"time": 1267, "annotation": {"number": 64, "value": 0}, "group": "control_change"}, {"time": 1269, "annotation": {"number": 64, "value": 127}, "group": "control_change"}, {"time": 1280, "annotation": {"number": 64, "value": 0}, "group": "control_change"}, {"time": 1281, "annotation": {"number": 64, "value": 127}, "group": "control_change"}, {"time": 1285, "annotation": {"number": 64, "value": 0}, "group": "control_change"}, {"time": 1292, "annotation": {"number": 64, "value": 127}, "group": "control_change"}, {"time": 1316, "annotation": {"number": 64, "value": 0}, "group": "control_change"}, {"time": 1318, "annotation": {"number": 64, "value": 127}, "group": "control_change"}, {"time": 1340, "annotation": {"number": 64, "value": 0}, "group": "control_change"}, {"time": 1341, "annotation": {"number": 64, "value": 127}, "group": "control_change"}, {"time": 1363, "annotation": {"number": 64, "value": 0}, "group": "control_change"}, {"time": 1365, "annotation": {"number": 64, "value": 127}, "group": "control_change"}, {"time": 1413, "annotation": {"number": 64, "value": 127}, "group": "control_change"}, {"time": 1418, "annotation": {"number": 64, "value": 0}, "group": "control_change"}, {"time": 1459, "annotation": {"number": 64, "value": 0}, "group": "control_change"}, {"time": 1461, "annotation": {"number": 64, "value": 127}, "group": "control_change"}, {"time": 1483, "annotation": {"number": 64, "value": 0}, "group": "control_change"}, {"time": 1484, "annotation": {"number": 64, "value": 127}, "group": "control_change"}, {"time": 1531, "annotation": {"number": 64, "value": 0}, "group": "control_change"}, {"time": 1533, "annotation": {"number": 64, "value": 127}, "group": "control_change"}, {"time": 1555, "annotation": {"number": 64, "value": 0}, "group": "control_change"}, {"time": 1557, "annotation": {"number": 64, "value": 127}, "group": "control_change"}, {"time": 1581, "annotation": {"number": 64, "value": 127}, "group": "control_change"}, {"time": 1593, "annotation": {"number": 64, "value": 0}, "group": "control_change"}, {"time": 1596, "annotation": {"number": 64, "value": 127}, "group": "control_change"}, {"time": 1603, "annotation": {"number": 64, "value": 0}, "group": "control_change"}, {"time": 1606, "annotation": {"number": 64, "value": 127}, "group": "control_change"}, {"time": 1628, "annotation": {"number": 64, "value": 0}, "group": "control_change"}, {"time": 1629, "annotation": {"number": 64, "value": 127}, "group": "control_change"}, {"time": 1651, "annotation": {"number": 64, "value": 0}, "group": "control_change"}, {"time": 1653, "annotation": {"number": 64, "value": 127}, "group": "control_change"}, {"time": 1664, "annotation": {"number": 64, "value": 0}, "group": "control_change"}, {"time": 1665, "annotation": {"number": 64, "value": 127}, "group": "control_change"}, {"time": 1669, "annotation": {"number": 64, "value": 0}, "group": "control_change"}, {"time": 1676, "annotation": {"number": 64, "value": 127}, "group": "control_change"}, {"time": 1700, "annotation": {"number": 64, "value": 0}, "group": "control_change"}, {"time": 1701, "annotation": {"number": 64, "value": 127}, "group": "control_change"}, {"time": 1724, "annotation": {"number": 64, "value": 0}, "group": "control_change"}, {"time": 1725, "annotation": {"number": 64, "value": 127}, "group": "control_change"}, {"time": 1747, "annotation": {"number": 64, "value": 0}, "group": "control_change"}, {"time": 1748, "annotation": {"number": 64, "value": 127}, "group": "control_change"}, {"time": 1796, "annotation": {"number": 64, "value": 0}, "group": "control_change"}, {"time": 1798, "annotation": {"number": 64, "value": 127}, "group": "control_change"}, {"time": 1809, "annotation": {"number": 64, "value": 0}, "group": "control_change"}, {"time": 1810, "annotation": {"number": 64, "value": 127}, "group": "control_change"}, {"time": 1817, "annotation": {"number": 64, "value": 0}, "group": "control_change"}, {"time": 1820, "annotation": {"number": 64, "value": 127}, "group": "control_change"}, {"time": 1844, "annotation": {"number": 64, "value": 0}, "group": "control_change"}, {"time": 1845, "annotation": {"number": 64, "value": 127}, "group": "control_change"}, {"time": 1865, "annotation": {"number": 64, "value": 0}, "group": "control_change"}, {"time": 1868, "annotation": {"number": 64, "value": 127}, "group": "control_change"}, {"time": 1892, "annotation": {"number": 64, "value": 0}, "group": "control_change"}, {"time": 1894, "annotation": {"number": 64, "value": 127}, "group": "control_change"}, {"time": 1904, "annotation": {"number": 64, "value": 0}, "group": "control_change"}, {"time": 1905, "annotation": {"number": 64, "value": 127}, "group": "control_change"}, {"time": 1912, "annotation": {"number": 64, "value": 0}, "group": "control_change"}, {"time": 1917, "annotation": {"number": 64, "value": 127}, "group": "control_change"}, {"time": 1939, "annotation": {"number": 64, "value": 0}, "group": "control_change"}, {"time": 1941, "annotation": {"number": 64, "value": 127}, "group": "control_change"}, {"time": 1988, "annotation": {"number": 64, "value": 0}, "group": "control_change"}, {"time": 2035, "annotation": {"number": 64, "value": 0}, "group": "control_change"}, {"time": 2037, "annotation": {"number": 64, "value": 127}, "group": "control_change"}, {"time": 2083, "annotation": {"number": 64, "value": 0}, "group": "control_change"}, {"time": 2084, "annotation": {"number": 64, "value": 127}, "group": "control_change"}, {"time": 2131, "annotation": {"number": 64, "value": 0}, "group": "control_change"}, {"time": 2133, "annotation": {"number": 64, "value": 127}, "group": "control_change"}, {"time": 2152, "annotation": {"number": 64, "value": 127}, "group": "control_change"}, {"time": 2156, "annotation": {"number": 64, "value": 0}, "group": "control_change"}, {"time": 2157, "annotation": {"number": 64, "value": 127}, "group": "control_change"}, {"time": 2157, "annotation": {"number": 64, "value": 0}, "group": "control_change"}, {"time": 2182, "annotation": {"number": 64, "value": 127}, "group": "control_change"}, {"time": 2227, "annotation": {"number": 64, "value": 0}, "group": "control_change"}, {"time": 2229, "annotation": {"number": 64, "value": 127}, "group": "control_change"}, {"time": 2264, "annotation": {"number": 64, "value": 0}, "group": "control_change"}, {"time": 2266, "annotation": {"number": 64, "value": 127}, "group": "control_change"}, {"time": 2268, "annotation": {"number": 64, "value": 0}, "group": "control_change"}, {"time": 2277, "annotation": {"number": 64, "value": 127}, "group": "control_change"}, {"time": 2278, "annotation": {"number": 64, "value": 127}, "group": "control_change"}, {"time": 2298, "annotation": {"number": 64, "value": 0}, "group": "control_change"}, {"time": 2301, "annotation": {"number": 64, "value": 127}, "group": "control_change"}, {"time": 2323, "annotation": {"number": 64, "value": 0}, "group": "control_change"}, {"time": 2324, "annotation": {"number": 64, "value": 127}, "group": "control_change"}, {"time": 2370, "annotation": {"number": 64, "value": 0}, "group": "control_change"}, {"time": 2373, "annotation": {"number": 64, "value": 127}, "group": "control_change"}, {"time": 2419, "annotation": {"number": 64, "value": 0}, "group": "control_change"}, {"time": 2421, "annotation": {"number": 64, "value": 127}, "group": "control_change"}, {"time": 2467, "annotation": {"number": 64, "value": 0}, "group": "control_change"}, {"time": 2469, "annotation": {"number": 64, "value": 127}, "group": "control_change"}, {"time": 2491, "annotation": {"number": 64, "value": 0}, "group": "control_change"}, {"time": 2492, "annotation": {"number": 64, "value": 127}, "group": "control_change"}, {"time": 2539, "annotation": {"number": 64, "value": 0}, "group": "control_change"}, {"time": 2541, "annotation": {"number": 64, "value": 127}, "group": "control_change"}, {"time": 2563, "annotation": {"number": 64, "value": 0}, "group": "control_change"}, {"time": 2565, "annotation": {"number": 64, "value": 127}, "group": "control_change"}, {"time": 2589, "annotation": {"number": 64, "value": 127}, "group": "control_change"}, {"time": 2601, "annotation": {"number": 64, "value": 0}, "group": "control_change"}, {"time": 2604, "annotation": {"number": 64, "value": 127}, "group": "control_change"}, {"time": 2611, "annotation": {"number": 64, "value": 0}, "group": "control_change"}, {"time": 2614, "annotation": {"number": 64, "value": 127}, "group": "control_change"}, {"time": 2636, "annotation": {"number": 64, "value": 0}, "group": "control_change"}, {"time": 2637, "annotation": {"number": 64, "value": 127}, "group": "control_change"}, {"time": 2659, "annotation": {"number": 64, "value": 0}, "group": "control_change"}, {"time": 2661, "annotation": {"number": 64, "value": 127}, "group": "control_change"}, {"time": 2672, "annotation": {"number": 64, "value": 0}, "group": "control_change"}, {"time": 2673, "annotation": {"number": 64, "value": 127}, "group": "control_change"}, {"time": 2677, "annotation": {"number": 64, "value": 0}, "group": "control_change"}, {"time": 2684, "annotation": {"number": 64, "value": 127}, "group": "control_change"}, {"time": 2708, "annotation": {"number": 64, "value": 0}, "group": "control_change"}, {"time": 2710, "annotation": {"number": 64, "value": 127}, "group": "control_change"}, {"time": 2732, "annotation": {"number": 64, "value": 0}, "group": "control_change"}, {"time": 2733, "annotation": {"number": 64, "value": 127}, "group": "control_change"}, {"time": 2755, "annotation": {"number": 64, "value": 0}, "group": "control_change"}, {"time": 2757, "annotation": {"number": 64, "value": 127}, "group": "control_change"}, {"time": 2805, "annotation": {"number": 64, "value": 127}, "group": "control_change"}, {"time": 2810, "annotation": {"number": 64, "value": 0}, "group": "control_change"}, {"time": 2851, "annotation": {"number": 64, "value": 0}, "group": "control_change"}, {"time": 2853, "annotation": {"number": 64, "value": 127}, "group": "control_change"}, {"time": 2875, "annotation": {"number": 64, "value": 0}, "group": "control_change"}, {"time": 2876, "annotation": {"number": 64, "value": 127}, "group": "control_change"}, {"time": 2923, "annotation": {"number": 64, "value": 0}, "group": "control_change"}, {"time": 2925, "annotation": {"number": 64, "value": 127}, "group": "control_change"}, {"time": 2947, "annotation": {"number": 64, "value": 0}, "group": "control_change"}, {"time": 2949, "annotation": {"number": 64, "value": 127}, "group": "control_change"}, {"time": 2973, "annotation": {"number": 64, "value": 127}, "group": "control_change"}, {"time": 2985, "annotation": {"number": 64, "value": 0}, "group": "control_change"}, {"time": 2988, "annotation": {"number": 64, "value": 127}, "group": "control_change"}, {"time": 2995, "annotation": {"number": 64, "value": 0}, "group": "control_change"}, {"time": 2998, "annotation": {"number": 64, "value": 127}, "group": "control_change"}, {"time": 3020, "annotation": {"number": 64, "value": 0}, "group": "control_change"}, {"time": 3021, "annotation": {"number": 64, "value": 127}, "group": "control_change"}, {"time": 3043, "annotation": {"number": 64, "value": 0}, "group": "control_change"}, {"time": 3045, "annotation": {"number": 64, "value": 127}, "group": "control_change"}, {"time": 3056, "annotation": {"number": 64, "value": 0}, "group": "control_change"}, {"time": 3057, "annotation": {"number": 64, "value": 127}, "group": "control_change"}, {"time": 3061, "annotation": {"number": 64, "value": 0}, "group": "control_change"}, {"time": 3068, "annotation": {"number": 64, "value": 127}, "group": "control_change"}, {"time": 3129, "annotation": {"number": 64, "value": 127}, "group": "control_change"}, {"time": 3175, "annotation": {"number": 64, "value": 0}, "group": "control_change"}, {"time": 3177, "annotation": {"number": 64, "value": 127}, "group": "control_change"}, {"time": 3227, "annotation": {"number": 64, "value": 127}, "group": "control_change"}, {"time": 3229, "annotation": {"number": 64, "value": 0}, "group": "control_change"}, {"time": 3243, "annotation": {"number": 64, "value": 0}, "group": "control_change"}, {"time": 3247, "annotation": {"number": 64, "value": 127}, "group": "control_change"}, {"time": 3270, "annotation": {"number": 64, "value": 0}, "group": "control_change"}, {"time": 3273, "annotation": {"number": 64, "value": 127}, "group": "control_change"}, {"time": 3290, "annotation": {"number": 64, "value": 0}, "group": "control_change"}, {"time": 3296, "annotation": {"number": 64, "value": 127}, "group": "control_change"}, {"time": 3319, "annotation": {"number": 64, "value": 0}, "group": "control_change"}, {"time": 3322, "annotation": {"number": 64, "value": 127}, "group": "control_change"}, {"time": 3338, "annotation": {"number": 64, "value": 0}, "group": "control_change"}, {"time": 3345, "annotation": {"number": 64, "value": 127}, "group": "control_change"}, {"time": 3372, "annotation": {"number": 64, "value": 0}, "group": "control_change"}, {"time": 3379, "annotation": {"number": 64, "value": 127}, "group": "control_change"}, {"time": 3492, "annotation": {"number": 64, "value": 127}, "group": "control_change"}, {"time": 3495, "annotation": {"number": 64, "value": 0}, "group": "control_change"}, {"time": 3497, "annotation": {"number": 64, "value": 127}, "group": "control_change"}]}]}