{"metadata": {"schema_version": "0.2", "title": "None", "source_filename": "072.mid", "source_format": "midi"}, "resolution": 12, "tempos": [{"time": 0, "qpm": 78.9999657666815}, {"time": 1572, "qpm": 80.99997165000993}, {"time": 1632, "qpm": 78.9999657666815}, {"time": 1656, "qpm": 78.000078000078}, {"time": 1680, "qpm": 78.9999657666815}, {"time": 2580, "qpm": 80.0}, {"time": 2664, "qpm": 72.99998296667064}, {"time": 2688, "qpm": 78.9999657666815}, {"time": 2760, "qpm": 80.0}, {"time": 2916, "qpm": 78.9999657666815}], "key_signatures": [{"time": 0, "root": 0, "mode": "major"}], "time_signatures": [{"time": 0, "numerator": 4, "denominator": 4}, {"time": 0, "numerator": 1, "denominator": 4}], "tracks": [{"program": 4, "is_drum": false, "name": "MELODY", "notes": [{"time": 266, "pitch": 57, "duration": 7, "velocity": 68}, {"time": 272, "pitch": 59, "duration": 6, "velocity": 64}, {"time": 278, "pitch": 62, "duration": 8, "velocity": 64}, {"time": 290, "pitch": 62, "duration": 16, "velocity": 74}, {"time": 314, "pitch": 66, "duration": 4, "velocity": 86}, {"time": 318, "pitch": 64, "duration": 2, "velocity": 79}, {"time": 322, "pitch": 62, "duration": 10, "velocity": 81}, {"time": 332, "pitch": 57, "duration": 24, "velocity": 86}, {"time": 362, "pitch": 62, "duration": 7, "velocity": 69}, {"time": 368, "pitch": 64, "duration": 5, "velocity": 67}, {"time": 374, "pitch": 66, "duration": 8, "velocity": 76}, {"time": 386, "pitch": 66, "duration": 20, "velocity": 90}, {"time": 404, "pitch": 69, "duration": 3, "velocity": 70}, {"time": 410, "pitch": 66, "duration": 7, "velocity": 59}, {"time": 416, "pitch": 62, "duration": 6, "velocity": 60}, {"time": 422, "pitch": 64, "duration": 26, "velocity": 72}, {"time": 452, "pitch": 69, "duration": 2, "velocity": 71}, {"time": 458, "pitch": 69, "duration": 3, "velocity": 79}, {"time": 467, "pitch": 69, "duration": 2, "velocity": 76}, {"time": 470, "pitch": 69, "duration": 25, "velocity": 79}, {"time": 500, "pitch": 57, "duration": 6, "velocity": 60}, {"time": 506, "pitch": 62, "duration": 7, "velocity": 65}, {"time": 512, "pitch": 61, "duration": 7, "velocity": 77}, {"time": 518, "pitch": 59, "duration": 22, "velocity": 62}, {"time": 560, "pitch": 57, "duration": 3, "velocity": 68}, {"time": 563, "pitch": 62, "duration": 3, "velocity": 60}, {"time": 566, "pitch": 66, "duration": 2, "velocity": 67}, {"time": 572, "pitch": 62, "duration": 6, "velocity": 60}, {"time": 578, "pitch": 69, "duration": 4, "velocity": 75}, {"time": 581, "pitch": 66, "duration": 2, "velocity": 81}, {"time": 587, "pitch": 71, "duration": 7, "velocity": 95}, {"time": 596, "pitch": 69, "duration": 7, "velocity": 70}, {"time": 602, "pitch": 62, "duration": 4, "velocity": 69}, {"time": 608, "pitch": 66, "duration": 3, "velocity": 74}, {"time": 614, "pitch": 64, "duration": 36, "velocity": 75}, {"time": 651, "pitch": 57, "duration": 7, "velocity": 68}, {"time": 657, "pitch": 59, "duration": 5, "velocity": 64}, {"time": 663, "pitch": 62, "duration": 7, "velocity": 64}, {"time": 675, "pitch": 62, "duration": 15, "velocity": 74}, {"time": 698, "pitch": 66, "duration": 6, "velocity": 76}, {"time": 703, "pitch": 64, "duration": 6, "velocity": 67}, {"time": 709, "pitch": 62, "duration": 8, "velocity": 77}, {"time": 716, "pitch": 57, "duration": 18, "velocity": 72}, {"time": 747, "pitch": 62, "duration": 6, "velocity": 69}, {"time": 753, "pitch": 64, "duration": 4, "velocity": 67}, {"time": 759, "pitch": 66, "duration": 8, "velocity": 76}, {"time": 771, "pitch": 66, "duration": 20, "velocity": 90}, {"time": 789, "pitch": 69, "duration": 3, "velocity": 70}, {"time": 795, "pitch": 66, "duration": 7, "velocity": 59}, {"time": 801, "pitch": 62, "duration": 6, "velocity": 60}, {"time": 807, "pitch": 64, "duration": 26, "velocity": 72}, {"time": 837, "pitch": 69, "duration": 2, "velocity": 71}, {"time": 843, "pitch": 69, "duration": 2, "velocity": 79}, {"time": 852, "pitch": 69, "duration": 1, "velocity": 76}, {"time": 855, "pitch": 69, "duration": 25, "velocity": 79}, {"time": 885, "pitch": 57, "duration": 5, "velocity": 60}, {"time": 891, "pitch": 62, "duration": 7, "velocity": 65}, {"time": 897, "pitch": 61, "duration": 6, "velocity": 77}, {"time": 903, "pitch": 59, "duration": 22, "velocity": 62}, {"time": 945, "pitch": 57, "duration": 3, "velocity": 68}, {"time": 948, "pitch": 62, "duration": 2, "velocity": 60}, {"time": 951, "pitch": 66, "duration": 2, "velocity": 67}, {"time": 957, "pitch": 62, "duration": 5, "velocity": 60}, {"time": 963, "pitch": 69, "duration": 3, "velocity": 75}, {"time": 966, "pitch": 66, "duration": 2, "velocity": 81}, {"time": 972, "pitch": 71, "duration": 7, "velocity": 95}, {"time": 981, "pitch": 69, "duration": 6, "velocity": 70}, {"time": 986, "pitch": 64, "duration": 7, "velocity": 84}, {"time": 992, "pitch": 66, "duration": 5, "velocity": 84}, {"time": 998, "pitch": 62, "duration": 36, "velocity": 84}, {"time": 1040, "pitch": 62, "duration": 3, "velocity": 84}, {"time": 1046, "pitch": 67, "duration": 16, "velocity": 84}, {"time": 1064, "pitch": 71, "duration": 4, "velocity": 84}, {"time": 1070, "pitch": 74, "duration": 8, "velocity": 84}, {"time": 1082, "pitch": 73, "duration": 3, "velocity": 84}, {"time": 1085, "pitch": 71, "duration": 6, "velocity": 84}, {"time": 1094, "pitch": 69, "duration": 18, "velocity": 84}, {"time": 1112, "pitch": 74, "duration": 3, "velocity": 84}, {"time": 1118, "pitch": 66, "duration": 13, "velocity": 84}, {"time": 1130, "pitch": 62, "duration": 4, "velocity": 84}, {"time": 1134, "pitch": 66, "duration": 2, "velocity": 84}, {"time": 1138, "pitch": 71, "duration": 2, "velocity": 84}, {"time": 1143, "pitch": 69, "duration": 5, "velocity": 84}, {"time": 1148, "pitch": 69, "duration": 5, "velocity": 84}, {"time": 1154, "pitch": 61, "duration": 3, "velocity": 84}, {"time": 1158, "pitch": 64, "duration": 3, "velocity": 84}, {"time": 1163, "pitch": 71, "duration": 2, "velocity": 84}, {"time": 1166, "pitch": 69, "duration": 5, "velocity": 84}, {"time": 1172, "pitch": 69, "duration": 4, "velocity": 84}, {"time": 1178, "pitch": 67, "duration": 5, "velocity": 84}, {"time": 1182, "pitch": 64, "duration": 5, "velocity": 84}, {"time": 1187, "pitch": 71, "duration": 2, "velocity": 86}, {"time": 1191, "pitch": 69, "duration": 21, "velocity": 86}, {"time": 1232, "pitch": 62, "duration": 3, "velocity": 89}, {"time": 1238, "pitch": 67, "duration": 16, "velocity": 90}, {"time": 1256, "pitch": 71, "duration": 4, "velocity": 94}, {"time": 1262, "pitch": 74, "duration": 8, "velocity": 94}, {"time": 1274, "pitch": 73, "duration": 3, "velocity": 94}, {"time": 1277, "pitch": 71, "duration": 6, "velocity": 94}, {"time": 1286, "pitch": 69, "duration": 18, "velocity": 94}, {"time": 1304, "pitch": 74, "duration": 3, "velocity": 93}, {"time": 1310, "pitch": 66, "duration": 13, "velocity": 93}, {"time": 1322, "pitch": 62, "duration": 4, "velocity": 91}, {"time": 1326, "pitch": 66, "duration": 2, "velocity": 89}, {"time": 1330, "pitch": 71, "duration": 2, "velocity": 90}, {"time": 1335, "pitch": 69, "duration": 5, "velocity": 87}, {"time": 1340, "pitch": 69, "duration": 5, "velocity": 89}, {"time": 1346, "pitch": 61, "duration": 3, "velocity": 87}, {"time": 1350, "pitch": 64, "duration": 3, "velocity": 85}, {"time": 1355, "pitch": 71, "duration": 2, "velocity": 85}, {"time": 1358, "pitch": 69, "duration": 5, "velocity": 87}, {"time": 1364, "pitch": 69, "duration": 4, "velocity": 83}, {"time": 1370, "pitch": 64, "duration": 4, "velocity": 83}, {"time": 1374, "pitch": 66, "duration": 4, "velocity": 81}, {"time": 1377, "pitch": 64, "duration": 5, "velocity": 82}, {"time": 1382, "pitch": 62, "duration": 23, "velocity": 80}, {"time": 1419, "pitch": 57, "duration": 7, "velocity": 68}, {"time": 1425, "pitch": 59, "duration": 5, "velocity": 64}, {"time": 1431, "pitch": 62, "duration": 7, "velocity": 64}, {"time": 1443, "pitch": 62, "duration": 15, "velocity": 74}, {"time": 1464, "pitch": 66, "duration": 6, "velocity": 70}, {"time": 1469, "pitch": 64, "duration": 5, "velocity": 63}, {"time": 1474, "pitch": 62, "duration": 10, "velocity": 55}, {"time": 1483, "pitch": 57, "duration": 19, "velocity": 65}, {"time": 1515, "pitch": 62, "duration": 6, "velocity": 69}, {"time": 1521, "pitch": 64, "duration": 4, "velocity": 67}, {"time": 1527, "pitch": 66, "duration": 8, "velocity": 76}, {"time": 1539, "pitch": 66, "duration": 18, "velocity": 90}, {"time": 1557, "pitch": 69, "duration": 3, "velocity": 70}, {"time": 1560, "pitch": 66, "duration": 5, "velocity": 84}, {"time": 1564, "pitch": 64, "duration": 4, "velocity": 74}, {"time": 1567, "pitch": 62, "duration": 6, "velocity": 67}, {"time": 1574, "pitch": 64, "duration": 6, "velocity": 90}, {"time": 1581, "pitch": 64, "duration": 14, "velocity": 94}, {"time": 1605, "pitch": 69, "duration": 2, "velocity": 71}, {"time": 1611, "pitch": 69, "duration": 2, "velocity": 79}, {"time": 1620, "pitch": 69, "duration": 1, "velocity": 76}, {"time": 1623, "pitch": 69, "duration": 25, "velocity": 79}, {"time": 1653, "pitch": 57, "duration": 5, "velocity": 60}, {"time": 1659, "pitch": 62, "duration": 7, "velocity": 75}, {"time": 1665, "pitch": 61, "duration": 6, "velocity": 75}, {"time": 1671, "pitch": 59, "duration": 22, "velocity": 75}, {"time": 1713, "pitch": 57, "duration": 3, "velocity": 75}, {"time": 1716, "pitch": 62, "duration": 2, "velocity": 75}, {"time": 1719, "pitch": 66, "duration": 2, "velocity": 75}, {"time": 1725, "pitch": 62, "duration": 5, "velocity": 75}, {"time": 1731, "pitch": 69, "duration": 3, "velocity": 75}, {"time": 1734, "pitch": 66, "duration": 2, "velocity": 75}, {"time": 1740, "pitch": 71, "duration": 7, "velocity": 75}, {"time": 1749, "pitch": 69, "duration": 6, "velocity": 75}, {"time": 1754, "pitch": 64, "duration": 7, "velocity": 75}, {"time": 1760, "pitch": 66, "duration": 5, "velocity": 75}, {"time": 1766, "pitch": 62, "duration": 36, "velocity": 76}, {"time": 1808, "pitch": 62, "duration": 3, "velocity": 80}, {"time": 1814, "pitch": 67, "duration": 16, "velocity": 80}, {"time": 1832, "pitch": 71, "duration": 4, "velocity": 80}, {"time": 1838, "pitch": 74, "duration": 8, "velocity": 80}, {"time": 1850, "pitch": 73, "duration": 3, "velocity": 80}, {"time": 1853, "pitch": 71, "duration": 6, "velocity": 80}, {"time": 1862, "pitch": 69, "duration": 18, "velocity": 80}, {"time": 1880, "pitch": 74, "duration": 3, "velocity": 79}, {"time": 1886, "pitch": 66, "duration": 13, "velocity": 79}, {"time": 1898, "pitch": 62, "duration": 4, "velocity": 79}, {"time": 1902, "pitch": 66, "duration": 2, "velocity": 79}, {"time": 1906, "pitch": 71, "duration": 2, "velocity": 78}, {"time": 1911, "pitch": 69, "duration": 5, "velocity": 78}, {"time": 1916, "pitch": 69, "duration": 5, "velocity": 78}, {"time": 1922, "pitch": 61, "duration": 3, "velocity": 78}, {"time": 1926, "pitch": 64, "duration": 3, "velocity": 78}, {"time": 1931, "pitch": 71, "duration": 2, "velocity": 78}, {"time": 1934, "pitch": 69, "duration": 5, "velocity": 78}, {"time": 1940, "pitch": 69, "duration": 4, "velocity": 78}, {"time": 1946, "pitch": 67, "duration": 5, "velocity": 78}, {"time": 1950, "pitch": 64, "duration": 5, "velocity": 78}, {"time": 1955, "pitch": 71, "duration": 2, "velocity": 78}, {"time": 1959, "pitch": 69, "duration": 21, "velocity": 78}, {"time": 2000, "pitch": 62, "duration": 3, "velocity": 81}, {"time": 2006, "pitch": 67, "duration": 16, "velocity": 81}, {"time": 2024, "pitch": 71, "duration": 4, "velocity": 84}, {"time": 2030, "pitch": 74, "duration": 8, "velocity": 84}, {"time": 2042, "pitch": 73, "duration": 3, "velocity": 86}, {"time": 2045, "pitch": 71, "duration": 6, "velocity": 86}, {"time": 2054, "pitch": 69, "duration": 18, "velocity": 86}, {"time": 2072, "pitch": 74, "duration": 3, "velocity": 86}, {"time": 2078, "pitch": 66, "duration": 13, "velocity": 86}, {"time": 2090, "pitch": 62, "duration": 4, "velocity": 86}, {"time": 2094, "pitch": 66, "duration": 2, "velocity": 86}, {"time": 2098, "pitch": 71, "duration": 2, "velocity": 86}, {"time": 2103, "pitch": 69, "duration": 5, "velocity": 86}, {"time": 2108, "pitch": 69, "duration": 5, "velocity": 86}, {"time": 2114, "pitch": 61, "duration": 3, "velocity": 86}, {"time": 2118, "pitch": 64, "duration": 3, "velocity": 86}, {"time": 2123, "pitch": 71, "duration": 2, "velocity": 86}, {"time": 2126, "pitch": 69, "duration": 12, "velocity": 86}, {"time": 2138, "pitch": 64, "duration": 4, "velocity": 86}, {"time": 2142, "pitch": 66, "duration": 4, "velocity": 86}, {"time": 2145, "pitch": 64, "duration": 5, "velocity": 86}, {"time": 2150, "pitch": 62, "duration": 23, "velocity": 86}, {"time": 2186, "pitch": 57, "duration": 7, "velocity": 68}, {"time": 2192, "pitch": 59, "duration": 6, "velocity": 64}, {"time": 2198, "pitch": 62, "duration": 8, "velocity": 64}, {"time": 2210, "pitch": 62, "duration": 16, "velocity": 74}, {"time": 2234, "pitch": 66, "duration": 6, "velocity": 84}, {"time": 2239, "pitch": 64, "duration": 4, "velocity": 80}, {"time": 2243, "pitch": 62, "duration": 7, "velocity": 76}, {"time": 2250, "pitch": 57, "duration": 21, "velocity": 53}, {"time": 2282, "pitch": 62, "duration": 7, "velocity": 69}, {"time": 2288, "pitch": 64, "duration": 5, "velocity": 67}, {"time": 2294, "pitch": 66, "duration": 8, "velocity": 76}, {"time": 2306, "pitch": 66, "duration": 18, "velocity": 90}, {"time": 2323, "pitch": 69, "duration": 7, "velocity": 83}, {"time": 2330, "pitch": 66, "duration": 3, "velocity": 80}, {"time": 2333, "pitch": 64, "duration": 4, "velocity": 67}, {"time": 2336, "pitch": 62, "duration": 7, "velocity": 59}, {"time": 2342, "pitch": 64, "duration": 6, "velocity": 74}, {"time": 2349, "pitch": 64, "duration": 17, "velocity": 97}, {"time": 2372, "pitch": 69, "duration": 2, "velocity": 71}, {"time": 2378, "pitch": 69, "duration": 3, "velocity": 79}, {"time": 2387, "pitch": 69, "duration": 2, "velocity": 76}, {"time": 2390, "pitch": 69, "duration": 25, "velocity": 79}, {"time": 2420, "pitch": 57, "duration": 6, "velocity": 60}, {"time": 2426, "pitch": 62, "duration": 7, "velocity": 65}, {"time": 2432, "pitch": 61, "duration": 7, "velocity": 77}, {"time": 2438, "pitch": 59, "duration": 22, "velocity": 62}, {"time": 2480, "pitch": 57, "duration": 3, "velocity": 68}, {"time": 2483, "pitch": 62, "duration": 3, "velocity": 60}, {"time": 2486, "pitch": 66, "duration": 2, "velocity": 67}, {"time": 2492, "pitch": 62, "duration": 6, "velocity": 60}, {"time": 2498, "pitch": 69, "duration": 4, "velocity": 75}, {"time": 2501, "pitch": 66, "duration": 2, "velocity": 81}, {"time": 2507, "pitch": 71, "duration": 7, "velocity": 95}, {"time": 2516, "pitch": 69, "duration": 7, "velocity": 70}, {"time": 2522, "pitch": 64, "duration": 4, "velocity": 69}, {"time": 2528, "pitch": 66, "duration": 9, "velocity": 74}, {"time": 2540, "pitch": 62, "duration": 30, "velocity": 75}, {"time": 2816, "pitch": 62, "duration": 3, "velocity": 92}, {"time": 2822, "pitch": 67, "duration": 16, "velocity": 92}, {"time": 2840, "pitch": 71, "duration": 4, "velocity": 92}, {"time": 2846, "pitch": 74, "duration": 8, "velocity": 92}, {"time": 2858, "pitch": 73, "duration": 3, "velocity": 92}, {"time": 2861, "pitch": 71, "duration": 6, "velocity": 92}, {"time": 2870, "pitch": 69, "duration": 18, "velocity": 92}, {"time": 2888, "pitch": 74, "duration": 3, "velocity": 93}, {"time": 2894, "pitch": 66, "duration": 13, "velocity": 93}, {"time": 2906, "pitch": 62, "duration": 4, "velocity": 93}, {"time": 2910, "pitch": 66, "duration": 2, "velocity": 93}, {"time": 2914, "pitch": 71, "duration": 2, "velocity": 93}, {"time": 2919, "pitch": 69, "duration": 5, "velocity": 94}, {"time": 2924, "pitch": 69, "duration": 5, "velocity": 95}, {"time": 2930, "pitch": 61, "duration": 3, "velocity": 95}, {"time": 2934, "pitch": 64, "duration": 3, "velocity": 95}, {"time": 2939, "pitch": 71, "duration": 2, "velocity": 96}, {"time": 2942, "pitch": 69, "duration": 5, "velocity": 97}, {"time": 2948, "pitch": 69, "duration": 4, "velocity": 98}, {"time": 2954, "pitch": 67, "duration": 5, "velocity": 98}, {"time": 2958, "pitch": 64, "duration": 5, "velocity": 98}, {"time": 2963, "pitch": 71, "duration": 2, "velocity": 98}, {"time": 2967, "pitch": 69, "duration": 21, "velocity": 99}, {"time": 3008, "pitch": 62, "duration": 3, "velocity": 100}, {"time": 3014, "pitch": 67, "duration": 16, "velocity": 100}, {"time": 3032, "pitch": 71, "duration": 4, "velocity": 99}, {"time": 3038, "pitch": 74, "duration": 8, "velocity": 99}, {"time": 3050, "pitch": 73, "duration": 3, "velocity": 97}, {"time": 3053, "pitch": 71, "duration": 6, "velocity": 97}, {"time": 3062, "pitch": 69, "duration": 18, "velocity": 96}, {"time": 3080, "pitch": 74, "duration": 3, "velocity": 94}, {"time": 3086, "pitch": 66, "duration": 13, "velocity": 92}, {"time": 3098, "pitch": 62, "duration": 4, "velocity": 91}, {"time": 3102, "pitch": 66, "duration": 2, "velocity": 91}, {"time": 3106, "pitch": 71, "duration": 2, "velocity": 91}, {"time": 3111, "pitch": 69, "duration": 5, "velocity": 91}, {"time": 3116, "pitch": 69, "duration": 5, "velocity": 91}, {"time": 3122, "pitch": 61, "duration": 3, "velocity": 91}, {"time": 3126, "pitch": 64, "duration": 3, "velocity": 91}, {"time": 3131, "pitch": 71, "duration": 2, "velocity": 91}, {"time": 3134, "pitch": 69, "duration": 12, "velocity": 91}, {"time": 3146, "pitch": 64, "duration": 4, "velocity": 91}, {"time": 3150, "pitch": 66, "duration": 4, "velocity": 91}, {"time": 3153, "pitch": 64, "duration": 5, "velocity": 91}, {"time": 3158, "pitch": 62, "duration": 23, "velocity": 91}, {"time": 3200, "pitch": 62, "duration": 3, "velocity": 91}, {"time": 3206, "pitch": 67, "duration": 16, "velocity": 91}, {"time": 3224, "pitch": 71, "duration": 4, "velocity": 76}, {"time": 3230, "pitch": 74, "duration": 8, "velocity": 81}, {"time": 3242, "pitch": 73, "duration": 3, "velocity": 100}, {"time": 3245, "pitch": 71, "duration": 6, "velocity": 67}, {"time": 3254, "pitch": 69, "duration": 18, "velocity": 83}, {"time": 3272, "pitch": 74, "duration": 3, "velocity": 77}, {"time": 3278, "pitch": 66, "duration": 13, "velocity": 95}, {"time": 3290, "pitch": 62, "duration": 4, "velocity": 98}, {"time": 3294, "pitch": 66, "duration": 2, "velocity": 67}, {"time": 3298, "pitch": 71, "duration": 2, "velocity": 86}, {"time": 3303, "pitch": 69, "duration": 5, "velocity": 100}, {"time": 3308, "pitch": 69, "duration": 5, "velocity": 71}, {"time": 3314, "pitch": 61, "duration": 3, "velocity": 76}, {"time": 3318, "pitch": 64, "duration": 2, "velocity": 62}, {"time": 3323, "pitch": 71, "duration": 2, "velocity": 85}, {"time": 3326, "pitch": 69, "duration": 5, "velocity": 90}, {"time": 3332, "pitch": 69, "duration": 4, "velocity": 85}, {"time": 3338, "pitch": 67, "duration": 5, "velocity": 95}, {"time": 3342, "pitch": 64, "duration": 5, "velocity": 71}, {"time": 3347, "pitch": 71, "duration": 2, "velocity": 72}, {"time": 3351, "pitch": 69, "duration": 21, "velocity": 108}, {"time": 3392, "pitch": 62, "duration": 3, "velocity": 88}, {"time": 3398, "pitch": 67, "duration": 16, "velocity": 88}, {"time": 3416, "pitch": 71, "duration": 4, "velocity": 76}, {"time": 3422, "pitch": 74, "duration": 8, "velocity": 81}, {"time": 3434, "pitch": 73, "duration": 3, "velocity": 100}, {"time": 3437, "pitch": 71, "duration": 6, "velocity": 67}, {"time": 3446, "pitch": 69, "duration": 18, "velocity": 83}, {"time": 3464, "pitch": 74, "duration": 3, "velocity": 77}, {"time": 3470, "pitch": 66, "duration": 13, "velocity": 95}, {"time": 3482, "pitch": 62, "duration": 4, "velocity": 98}, {"time": 3486, "pitch": 66, "duration": 2, "velocity": 67}, {"time": 3490, "pitch": 71, "duration": 2, "velocity": 86}, {"time": 3495, "pitch": 69, "duration": 5, "velocity": 100}, {"time": 3500, "pitch": 69, "duration": 5, "velocity": 71}, {"time": 3506, "pitch": 61, "duration": 3, "velocity": 76}, {"time": 3510, "pitch": 64, "duration": 3, "velocity": 62}, {"time": 3515, "pitch": 71, "duration": 2, "velocity": 85}, {"time": 3518, "pitch": 69, "duration": 12, "velocity": 90}, {"time": 3530, "pitch": 64, "duration": 4, "velocity": 66}, {"time": 3534, "pitch": 66, "duration": 4, "velocity": 63}, {"time": 3537, "pitch": 64, "duration": 5, "velocity": 64}, {"time": 3542, "pitch": 62, "duration": 23, "velocity": 60}, {"time": 3578, "pitch": 62, "duration": 4, "velocity": 74}, {"time": 3583, "pitch": 66, "duration": 2, "velocity": 63}, {"time": 3587, "pitch": 71, "duration": 2, "velocity": 81}, {"time": 3591, "pitch": 69, "duration": 4, "velocity": 86}, {"time": 3597, "pitch": 69, "duration": 3, "velocity": 72}, {"time": 3602, "pitch": 61, "duration": 5, "velocity": 90}, {"time": 3607, "pitch": 64, "duration": 3, "velocity": 71}, {"time": 3611, "pitch": 71, "duration": 3, "velocity": 87}, {"time": 3616, "pitch": 69, "duration": 27, "velocity": 93}, {"time": 3650, "pitch": 64, "duration": 7, "velocity": 65}, {"time": 3658, "pitch": 66, "duration": 13, "velocity": 92}, {"time": 3670, "pitch": 64, "duration": 12, "velocity": 92}, {"time": 3685, "pitch": 62, "duration": 37, "velocity": 77}], "annotations": [{"time": 722, "annotation": {"number": 64, "value": 78}, "group": "control_change"}, {"time": 746, "annotation": {"number": 64, "value": 79}, "group": "control_change"}, {"time": 770, "annotation": {"number": 64, "value": 81}, "group": "control_change"}, {"time": 806, "annotation": {"number": 64, "value": 84}, "group": "control_change"}, {"time": 830, "annotation": {"number": 64, "value": 88}, "group": "control_change"}, {"time": 854, "annotation": {"number": 64, "value": 90}, "group": "control_change"}, {"time": 866, "annotation": {"number": 64, "value": 91}, "group": "control_change"}, {"time": 3732, "annotation": {"number": 64, "value": 0}, "group": "control_change"}]}, {"program": 0, "is_drum": false, "name": "PIANO", "notes": [{"time": 36, "pitch": 62, "duration": 90, "velocity": 54}, {"time": 37, "pitch": 66, "duration": 89, "velocity": 64}, {"time": 38, "pitch": 50, "duration": 88, "velocity": 58}, {"time": 39, "pitch": 69, "duration": 87, "velocity": 56}, {"time": 133, "pitch": 57, "duration": 49, "velocity": 11}, {"time": 133, "pitch": 61, "duration": 49, "velocity": 81}, {"time": 134, "pitch": 64, "duration": 48, "velocity": 64}, {"time": 134, "pitch": 45, "duration": 48, "velocity": 74}, {"time": 180, "pitch": 62, "duration": 45, "velocity": 58}, {"time": 181, "pitch": 66, "duration": 44, "velocity": 61}, {"time": 182, "pitch": 50, "duration": 44, "velocity": 79}, {"time": 183, "pitch": 69, "duration": 42, "velocity": 57}, {"time": 228, "pitch": 62, "duration": 54, "velocity": 58}, {"time": 229, "pitch": 66, "duration": 53, "velocity": 71}, {"time": 230, "pitch": 50, "duration": 53, "velocity": 70}, {"time": 230, "pitch": 69, "duration": 52, "velocity": 59}, {"time": 278, "pitch": 50, "duration": 5, "velocity": 58}, {"time": 278, "pitch": 62, "duration": 4, "velocity": 46}, {"time": 278, "pitch": 66, "duration": 4, "velocity": 53}, {"time": 284, "pitch": 57, "duration": 6, "velocity": 65}, {"time": 290, "pitch": 62, "duration": 10, "velocity": 62}, {"time": 296, "pitch": 57, "duration": 9, "velocity": 56}, {"time": 302, "pitch": 66, "duration": 11, "velocity": 67}, {"time": 308, "pitch": 57, "duration": 6, "velocity": 63}, {"time": 311, "pitch": 62, "duration": 9, "velocity": 64}, {"time": 317, "pitch": 57, "duration": 3, "velocity": 59}, {"time": 326, "pitch": 50, "duration": 41, "velocity": 66}, {"time": 332, "pitch": 57, "duration": 9, "velocity": 58}, {"time": 338, "pitch": 62, "duration": 6, "velocity": 60}, {"time": 344, "pitch": 57, "duration": 8, "velocity": 63}, {"time": 350, "pitch": 66, "duration": 12, "velocity": 64}, {"time": 356, "pitch": 57, "duration": 10, "velocity": 60}, {"time": 362, "pitch": 62, "duration": 12, "velocity": 61}, {"time": 368, "pitch": 57, "duration": 5, "velocity": 66}, {"time": 374, "pitch": 50, "duration": 43, "velocity": 61}, {"time": 380, "pitch": 57, "duration": 7, "velocity": 46}, {"time": 386, "pitch": 62, "duration": 9, "velocity": 61}, {"time": 392, "pitch": 57, "duration": 8, "velocity": 58}, {"time": 398, "pitch": 66, "duration": 12, "velocity": 63}, {"time": 404, "pitch": 57, "duration": 8, "velocity": 59}, {"time": 410, "pitch": 62, "duration": 6, "velocity": 61}, {"time": 415, "pitch": 57, "duration": 7, "velocity": 59}, {"time": 422, "pitch": 45, "duration": 47, "velocity": 58}, {"time": 422, "pitch": 57, "duration": 11, "velocity": 59}, {"time": 422, "pitch": 61, "duration": 14, "velocity": 69}, {"time": 428, "pitch": 49, "duration": 41, "velocity": 67}, {"time": 434, "pitch": 52, "duration": 14, "velocity": 59}, {"time": 440, "pitch": 57, "duration": 7, "velocity": 72}, {"time": 446, "pitch": 61, "duration": 16, "velocity": 72}, {"time": 452, "pitch": 52, "duration": 6, "velocity": 63}, {"time": 458, "pitch": 57, "duration": 8, "velocity": 59}, {"time": 464, "pitch": 52, "duration": 4, "velocity": 58}, {"time": 470, "pitch": 50, "duration": 42, "velocity": 64}, {"time": 470, "pitch": 62, "duration": 5, "velocity": 56}, {"time": 470, "pitch": 66, "duration": 7, "velocity": 64}, {"time": 476, "pitch": 57, "duration": 6, "velocity": 55}, {"time": 482, "pitch": 62, "duration": 9, "velocity": 56}, {"time": 488, "pitch": 57, "duration": 7, "velocity": 59}, {"time": 494, "pitch": 66, "duration": 11, "velocity": 76}, {"time": 500, "pitch": 57, "duration": 10, "velocity": 58}, {"time": 506, "pitch": 62, "duration": 4, "velocity": 58}, {"time": 512, "pitch": 57, "duration": 6, "velocity": 58}, {"time": 518, "pitch": 43, "duration": 41, "velocity": 75}, {"time": 524, "pitch": 50, "duration": 36, "velocity": 66}, {"time": 524, "pitch": 55, "duration": 7, "velocity": 67}, {"time": 530, "pitch": 62, "duration": 9, "velocity": 62}, {"time": 536, "pitch": 55, "duration": 21, "velocity": 64}, {"time": 542, "pitch": 62, "duration": 20, "velocity": 62}, {"time": 542, "pitch": 67, "duration": 14, "velocity": 81}, {"time": 548, "pitch": 71, "duration": 4, "velocity": 75}, {"time": 554, "pitch": 67, "duration": 2, "velocity": 61}, {"time": 566, "pitch": 50, "duration": 43, "velocity": 61}, {"time": 572, "pitch": 57, "duration": 7, "velocity": 46}, {"time": 578, "pitch": 62, "duration": 9, "velocity": 61}, {"time": 584, "pitch": 57, "duration": 8, "velocity": 58}, {"time": 590, "pitch": 66, "duration": 12, "velocity": 63}, {"time": 596, "pitch": 57, "duration": 8, "velocity": 59}, {"time": 602, "pitch": 62, "duration": 6, "velocity": 61}, {"time": 607, "pitch": 57, "duration": 7, "velocity": 59}, {"time": 614, "pitch": 45, "duration": 47, "velocity": 58}, {"time": 614, "pitch": 57, "duration": 11, "velocity": 59}, {"time": 614, "pitch": 61, "duration": 14, "velocity": 69}, {"time": 620, "pitch": 49, "duration": 41, "velocity": 67}, {"time": 626, "pitch": 52, "duration": 14, "velocity": 59}, {"time": 632, "pitch": 57, "duration": 7, "velocity": 72}, {"time": 638, "pitch": 61, "duration": 16, "velocity": 72}, {"time": 644, "pitch": 52, "duration": 6, "velocity": 63}, {"time": 644, "pitch": 64, "duration": 5, "velocity": 60}, {"time": 644, "pitch": 73, "duration": 5, "velocity": 77}, {"time": 650, "pitch": 57, "duration": 5, "velocity": 67}, {"time": 650, "pitch": 61, "duration": 4, "velocity": 90}, {"time": 650, "pitch": 64, "duration": 5, "velocity": 75}, {"time": 650, "pitch": 69, "duration": 6, "velocity": 71}, {"time": 662, "pitch": 50, "duration": 24, "velocity": 61}, {"time": 662, "pitch": 57, "duration": 6, "velocity": 79}, {"time": 662, "pitch": 62, "duration": 6, "velocity": 79}, {"time": 668, "pitch": 57, "duration": 7, "velocity": 46}, {"time": 674, "pitch": 62, "duration": 9, "velocity": 61}, {"time": 680, "pitch": 50, "duration": 6, "velocity": 70}, {"time": 680, "pitch": 57, "duration": 8, "velocity": 58}, {"time": 686, "pitch": 50, "duration": 19, "velocity": 73}, {"time": 686, "pitch": 66, "duration": 12, "velocity": 63}, {"time": 692, "pitch": 57, "duration": 6, "velocity": 59}, {"time": 698, "pitch": 57, "duration": 12, "velocity": 59}, {"time": 698, "pitch": 62, "duration": 6, "velocity": 61}, {"time": 710, "pitch": 57, "duration": 6, "velocity": 79}, {"time": 710, "pitch": 62, "duration": 6, "velocity": 79}, {"time": 716, "pitch": 57, "duration": 7, "velocity": 46}, {"time": 722, "pitch": 62, "duration": 9, "velocity": 61}, {"time": 728, "pitch": 57, "duration": 8, "velocity": 58}, {"time": 734, "pitch": 66, "duration": 12, "velocity": 63}, {"time": 740, "pitch": 57, "duration": 8, "velocity": 59}, {"time": 746, "pitch": 57, "duration": 2, "velocity": 59}, {"time": 746, "pitch": 62, "duration": 6, "velocity": 61}, {"time": 758, "pitch": 57, "duration": 6, "velocity": 79}, {"time": 758, "pitch": 62, "duration": 6, "velocity": 79}, {"time": 764, "pitch": 57, "duration": 7, "velocity": 46}, {"time": 770, "pitch": 62, "duration": 9, "velocity": 61}, {"time": 776, "pitch": 57, "duration": 8, "velocity": 58}, {"time": 782, "pitch": 66, "duration": 12, "velocity": 63}, {"time": 788, "pitch": 57, "duration": 8, "velocity": 59}, {"time": 794, "pitch": 57, "duration": 2, "velocity": 59}, {"time": 794, "pitch": 62, "duration": 6, "velocity": 61}, {"time": 806, "pitch": 45, "duration": 18, "velocity": 58}, {"time": 806, "pitch": 57, "duration": 11, "velocity": 59}, {"time": 806, "pitch": 61, "duration": 14, "velocity": 69}, {"time": 812, "pitch": 49, "duration": 41, "velocity": 67}, {"time": 818, "pitch": 52, "duration": 14, "velocity": 59}, {"time": 824, "pitch": 45, "duration": 6, "velocity": 79}, {"time": 824, "pitch": 57, "duration": 7, "velocity": 72}, {"time": 830, "pitch": 45, "duration": 24, "velocity": 79}, {"time": 830, "pitch": 61, "duration": 23, "velocity": 72}, {"time": 836, "pitch": 52, "duration": 6, "velocity": 63}, {"time": 836, "pitch": 64, "duration": 5, "velocity": 60}, {"time": 842, "pitch": 57, "duration": 12, "velocity": 67}, {"time": 842, "pitch": 61, "duration": 11, "velocity": 74}, {"time": 842, "pitch": 64, "duration": 12, "velocity": 75}, {"time": 842, "pitch": 69, "duration": 13, "velocity": 71}, {"time": 854, "pitch": 50, "duration": 18, "velocity": 79}, {"time": 854, "pitch": 57, "duration": 6, "velocity": 79}, {"time": 854, "pitch": 62, "duration": 6, "velocity": 79}, {"time": 860, "pitch": 57, "duration": 7, "velocity": 46}, {"time": 866, "pitch": 62, "duration": 9, "velocity": 61}, {"time": 872, "pitch": 50, "duration": 6, "velocity": 79}, {"time": 872, "pitch": 57, "duration": 8, "velocity": 58}, {"time": 878, "pitch": 50, "duration": 24, "velocity": 79}, {"time": 878, "pitch": 66, "duration": 12, "velocity": 63}, {"time": 884, "pitch": 57, "duration": 8, "velocity": 59}, {"time": 884, "pitch": 74, "duration": 3, "velocity": 75}, {"time": 890, "pitch": 57, "duration": 2, "velocity": 73}, {"time": 890, "pitch": 62, "duration": 6, "velocity": 73}, {"time": 890, "pitch": 74, "duration": 7, "velocity": 72}, {"time": 902, "pitch": 43, "duration": 18, "velocity": 74}, {"time": 902, "pitch": 43, "duration": 18, "velocity": 75}, {"time": 902, "pitch": 50, "duration": 6, "velocity": 79}, {"time": 902, "pitch": 55, "duration": 6, "velocity": 79}, {"time": 908, "pitch": 50, "duration": 1, "velocity": 66}, {"time": 908, "pitch": 55, "duration": 1, "velocity": 67}, {"time": 914, "pitch": 62, "duration": 9, "velocity": 62}, {"time": 920, "pitch": 55, "duration": 20, "velocity": 64}, {"time": 926, "pitch": 62, "duration": 12, "velocity": 62}, {"time": 926, "pitch": 67, "duration": 14, "velocity": 81}, {"time": 932, "pitch": 71, "duration": 4, "velocity": 75}, {"time": 938, "pitch": 67, "duration": 2, "velocity": 61}, {"time": 938, "pitch": 62, "duration": 12, "velocity": 79}, {"time": 950, "pitch": 50, "duration": 18, "velocity": 79}, {"time": 950, "pitch": 57, "duration": 6, "velocity": 79}, {"time": 950, "pitch": 62, "duration": 6, "velocity": 79}, {"time": 956, "pitch": 57, "duration": 7, "velocity": 46}, {"time": 962, "pitch": 62, "duration": 9, "velocity": 61}, {"time": 968, "pitch": 50, "duration": 6, "velocity": 79}, {"time": 974, "pitch": 45, "duration": 18, "velocity": 58}, {"time": 974, "pitch": 57, "duration": 11, "velocity": 59}, {"time": 974, "pitch": 61, "duration": 14, "velocity": 69}, {"time": 980, "pitch": 49, "duration": 18, "velocity": 67}, {"time": 986, "pitch": 52, "duration": 14, "velocity": 59}, {"time": 992, "pitch": 45, "duration": 6, "velocity": 79}, {"time": 992, "pitch": 57, "duration": 7, "velocity": 72}, {"time": 998, "pitch": 50, "duration": 18, "velocity": 79}, {"time": 998, "pitch": 57, "duration": 1, "velocity": 79}, {"time": 998, "pitch": 62, "duration": 6, "velocity": 79}, {"time": 1004, "pitch": 69, "duration": 6, "velocity": 79}, {"time": 1010, "pitch": 62, "duration": 9, "velocity": 61}, {"time": 1016, "pitch": 50, "duration": 6, "velocity": 79}, {"time": 1016, "pitch": 57, "duration": 8, "velocity": 58}, {"time": 1022, "pitch": 50, "duration": 24, "velocity": 79}, {"time": 1022, "pitch": 66, "duration": 6, "velocity": 63}, {"time": 1028, "pitch": 57, "duration": 8, "velocity": 59}, {"time": 1028, "pitch": 62, "duration": 6, "velocity": 73}, {"time": 1034, "pitch": 57, "duration": 2, "velocity": 73}, {"time": 1034, "pitch": 69, "duration": 6, "velocity": 79}, {"time": 1040, "pitch": 62, "duration": 6, "velocity": 79}, {"time": 1046, "pitch": 43, "duration": 18, "velocity": 76}, {"time": 1052, "pitch": 50, "duration": 38, "velocity": 62}, {"time": 1058, "pitch": 55, "duration": 7, "velocity": 53}, {"time": 1058, "pitch": 59, "duration": 7, "velocity": 63}, {"time": 1058, "pitch": 62, "duration": 7, "velocity": 69}, {"time": 1058, "pitch": 67, "duration": 7, "velocity": 76}, {"time": 1064, "pitch": 43, "duration": 6, "velocity": 79}, {"time": 1070, "pitch": 43, "duration": 24, "velocity": 79}, {"time": 1082, "pitch": 59, "duration": 9, "velocity": 65}, {"time": 1082, "pitch": 62, "duration": 8, "velocity": 74}, {"time": 1082, "pitch": 67, "duration": 8, "velocity": 85}, {"time": 1088, "pitch": 55, "duration": 4, "velocity": 58}, {"time": 1094, "pitch": 50, "duration": 18, "velocity": 81}, {"time": 1100, "pitch": 54, "duration": 34, "velocity": 50}, {"time": 1106, "pitch": 57, "duration": 27, "velocity": 59}, {"time": 1106, "pitch": 62, "duration": 9, "velocity": 65}, {"time": 1106, "pitch": 66, "duration": 8, "velocity": 58}, {"time": 1106, "pitch": 69, "duration": 7, "velocity": 69}, {"time": 1112, "pitch": 50, "duration": 6, "velocity": 79}, {"time": 1118, "pitch": 50, "duration": 24, "velocity": 79}, {"time": 1130, "pitch": 62, "duration": 8, "velocity": 79}, {"time": 1130, "pitch": 66, "duration": 9, "velocity": 91}, {"time": 1130, "pitch": 69, "duration": 8, "velocity": 85}, {"time": 1136, "pitch": 57, "duration": 6, "velocity": 79}, {"time": 1142, "pitch": 45, "duration": 18, "velocity": 79}, {"time": 1148, "pitch": 49, "duration": 36, "velocity": 71}, {"time": 1154, "pitch": 61, "duration": 10, "velocity": 82}, {"time": 1154, "pitch": 64, "duration": 10, "velocity": 82}, {"time": 1154, "pitch": 52, "duration": 30, "velocity": 58}, {"time": 1154, "pitch": 69, "duration": 10, "velocity": 48}, {"time": 1160, "pitch": 45, "duration": 6, "velocity": 79}, {"time": 1160, "pitch": 57, "duration": 7, "velocity": 58}, {"time": 1166, "pitch": 45, "duration": 24, "velocity": 79}, {"time": 1178, "pitch": 61, "duration": 6, "velocity": 96}, {"time": 1178, "pitch": 64, "duration": 6, "velocity": 96}, {"time": 1178, "pitch": 69, "duration": 6, "velocity": 96}, {"time": 1184, "pitch": 57, "duration": 5, "velocity": 53}, {"time": 1190, "pitch": 50, "duration": 18, "velocity": 86}, {"time": 1196, "pitch": 54, "duration": 32, "velocity": 58}, {"time": 1202, "pitch": 57, "duration": 25, "velocity": 57}, {"time": 1202, "pitch": 62, "duration": 7, "velocity": 85}, {"time": 1202, "pitch": 66, "duration": 10, "velocity": 81}, {"time": 1202, "pitch": 69, "duration": 8, "velocity": 71}, {"time": 1208, "pitch": 50, "duration": 6, "velocity": 79}, {"time": 1214, "pitch": 50, "duration": 21, "velocity": 79}, {"time": 1226, "pitch": 62, "duration": 3, "velocity": 79}, {"time": 1226, "pitch": 66, "duration": 4, "velocity": 74}, {"time": 1226, "pitch": 69, "duration": 3, "velocity": 69}, {"time": 1232, "pitch": 62, "duration": 5, "velocity": 46}, {"time": 1238, "pitch": 43, "duration": 18, "velocity": 76}, {"time": 1244, "pitch": 50, "duration": 38, "velocity": 62}, {"time": 1250, "pitch": 55, "duration": 7, "velocity": 53}, {"time": 1250, "pitch": 59, "duration": 7, "velocity": 63}, {"time": 1250, "pitch": 62, "duration": 7, "velocity": 69}, {"time": 1250, "pitch": 67, "duration": 7, "velocity": 76}, {"time": 1256, "pitch": 43, "duration": 6, "velocity": 79}, {"time": 1262, "pitch": 43, "duration": 24, "velocity": 79}, {"time": 1274, "pitch": 59, "duration": 9, "velocity": 65}, {"time": 1274, "pitch": 62, "duration": 8, "velocity": 74}, {"time": 1274, "pitch": 67, "duration": 8, "velocity": 85}, {"time": 1280, "pitch": 55, "duration": 4, "velocity": 58}, {"time": 1286, "pitch": 50, "duration": 18, "velocity": 86}, {"time": 1286, "pitch": 74, "duration": 9, "velocity": 74}, {"time": 1292, "pitch": 54, "duration": 32, "velocity": 58}, {"time": 1298, "pitch": 57, "duration": 25, "velocity": 57}, {"time": 1298, "pitch": 62, "duration": 7, "velocity": 85}, {"time": 1298, "pitch": 66, "duration": 10, "velocity": 81}, {"time": 1298, "pitch": 69, "duration": 8, "velocity": 71}, {"time": 1298, "pitch": 74, "duration": 9, "velocity": 63}, {"time": 1304, "pitch": 50, "duration": 6, "velocity": 79}, {"time": 1310, "pitch": 50, "duration": 21, "velocity": 79}, {"time": 1310, "pitch": 74, "duration": 10, "velocity": 65}, {"time": 1322, "pitch": 62, "duration": 3, "velocity": 79}, {"time": 1322, "pitch": 66, "duration": 4, "velocity": 74}, {"time": 1322, "pitch": 69, "duration": 3, "velocity": 69}, {"time": 1322, "pitch": 74, "duration": 5, "velocity": 74}, {"time": 1334, "pitch": 45, "duration": 18, "velocity": 79}, {"time": 1340, "pitch": 49, "duration": 36, "velocity": 71}, {"time": 1346, "pitch": 61, "duration": 10, "velocity": 82}, {"time": 1346, "pitch": 64, "duration": 10, "velocity": 82}, {"time": 1346, "pitch": 52, "duration": 30, "velocity": 58}, {"time": 1346, "pitch": 69, "duration": 10, "velocity": 48}, {"time": 1352, "pitch": 45, "duration": 6, "velocity": 79}, {"time": 1352, "pitch": 57, "duration": 7, "velocity": 58}, {"time": 1358, "pitch": 45, "duration": 24, "velocity": 79}, {"time": 1370, "pitch": 61, "duration": 6, "velocity": 96}, {"time": 1370, "pitch": 64, "duration": 6, "velocity": 96}, {"time": 1370, "pitch": 69, "duration": 6, "velocity": 96}, {"time": 1376, "pitch": 57, "duration": 5, "velocity": 53}, {"time": 1382, "pitch": 50, "duration": 18, "velocity": 83}, {"time": 1388, "pitch": 54, "duration": 37, "velocity": 62}, {"time": 1394, "pitch": 57, "duration": 29, "velocity": 58}, {"time": 1394, "pitch": 66, "duration": 10, "velocity": 81}, {"time": 1394, "pitch": 69, "duration": 7, "velocity": 83}, {"time": 1394, "pitch": 74, "duration": 7, "velocity": 74}, {"time": 1400, "pitch": 50, "duration": 6, "velocity": 79}, {"time": 1400, "pitch": 62, "duration": 30, "velocity": 54}, {"time": 1406, "pitch": 50, "duration": 21, "velocity": 79}, {"time": 1406, "pitch": 66, "duration": 21, "velocity": 63}, {"time": 1406, "pitch": 69, "duration": 21, "velocity": 73}, {"time": 1406, "pitch": 74, "duration": 19, "velocity": 71}, {"time": 1418, "pitch": 57, "duration": 5, "velocity": 67}, {"time": 1430, "pitch": 50, "duration": 24, "velocity": 61}, {"time": 1430, "pitch": 57, "duration": 6, "velocity": 79}, {"time": 1430, "pitch": 62, "duration": 1, "velocity": 79}, {"time": 1436, "pitch": 57, "duration": 7, "velocity": 46}, {"time": 1442, "pitch": 62, "duration": 9, "velocity": 61}, {"time": 1448, "pitch": 50, "duration": 6, "velocity": 70}, {"time": 1448, "pitch": 57, "duration": 8, "velocity": 58}, {"time": 1454, "pitch": 50, "duration": 19, "velocity": 73}, {"time": 1454, "pitch": 66, "duration": 12, "velocity": 63}, {"time": 1460, "pitch": 57, "duration": 6, "velocity": 59}, {"time": 1466, "pitch": 57, "duration": 12, "velocity": 59}, {"time": 1466, "pitch": 62, "duration": 6, "velocity": 61}, {"time": 1478, "pitch": 57, "duration": 6, "velocity": 79}, {"time": 1478, "pitch": 62, "duration": 6, "velocity": 79}, {"time": 1484, "pitch": 57, "duration": 7, "velocity": 46}, {"time": 1490, "pitch": 62, "duration": 9, "velocity": 61}, {"time": 1496, "pitch": 57, "duration": 8, "velocity": 58}, {"time": 1502, "pitch": 66, "duration": 12, "velocity": 63}, {"time": 1508, "pitch": 57, "duration": 8, "velocity": 59}, {"time": 1514, "pitch": 57, "duration": 2, "velocity": 59}, {"time": 1514, "pitch": 62, "duration": 6, "velocity": 61}, {"time": 1526, "pitch": 57, "duration": 6, "velocity": 79}, {"time": 1526, "pitch": 62, "duration": 6, "velocity": 79}, {"time": 1532, "pitch": 57, "duration": 7, "velocity": 46}, {"time": 1538, "pitch": 62, "duration": 9, "velocity": 61}, {"time": 1544, "pitch": 57, "duration": 8, "velocity": 58}, {"time": 1550, "pitch": 66, "duration": 12, "velocity": 63}, {"time": 1556, "pitch": 57, "duration": 8, "velocity": 59}, {"time": 1562, "pitch": 57, "duration": 2, "velocity": 59}, {"time": 1562, "pitch": 62, "duration": 6, "velocity": 61}, {"time": 1574, "pitch": 45, "duration": 18, "velocity": 58}, {"time": 1574, "pitch": 57, "duration": 11, "velocity": 59}, {"time": 1574, "pitch": 61, "duration": 14, "velocity": 69}, {"time": 1580, "pitch": 49, "duration": 41, "velocity": 67}, {"time": 1586, "pitch": 52, "duration": 14, "velocity": 59}, {"time": 1592, "pitch": 45, "duration": 6, "velocity": 79}, {"time": 1592, "pitch": 57, "duration": 7, "velocity": 72}, {"time": 1598, "pitch": 45, "duration": 24, "velocity": 79}, {"time": 1598, "pitch": 61, "duration": 23, "velocity": 72}, {"time": 1604, "pitch": 52, "duration": 6, "velocity": 63}, {"time": 1604, "pitch": 64, "duration": 5, "velocity": 60}, {"time": 1610, "pitch": 57, "duration": 12, "velocity": 67}, {"time": 1610, "pitch": 61, "duration": 11, "velocity": 74}, {"time": 1610, "pitch": 64, "duration": 12, "velocity": 75}, {"time": 1610, "pitch": 69, "duration": 13, "velocity": 71}, {"time": 1622, "pitch": 50, "duration": 18, "velocity": 79}, {"time": 1622, "pitch": 57, "duration": 6, "velocity": 79}, {"time": 1622, "pitch": 62, "duration": 6, "velocity": 79}, {"time": 1628, "pitch": 57, "duration": 7, "velocity": 46}, {"time": 1634, "pitch": 62, "duration": 9, "velocity": 61}, {"time": 1640, "pitch": 50, "duration": 6, "velocity": 79}, {"time": 1640, "pitch": 57, "duration": 8, "velocity": 58}, {"time": 1646, "pitch": 50, "duration": 24, "velocity": 79}, {"time": 1646, "pitch": 66, "duration": 12, "velocity": 63}, {"time": 1652, "pitch": 57, "duration": 8, "velocity": 59}, {"time": 1652, "pitch": 74, "duration": 3, "velocity": 75}, {"time": 1658, "pitch": 57, "duration": 2, "velocity": 73}, {"time": 1658, "pitch": 62, "duration": 6, "velocity": 73}, {"time": 1658, "pitch": 74, "duration": 7, "velocity": 72}, {"time": 1670, "pitch": 43, "duration": 18, "velocity": 74}, {"time": 1670, "pitch": 43, "duration": 18, "velocity": 75}, {"time": 1670, "pitch": 50, "duration": 6, "velocity": 79}, {"time": 1670, "pitch": 55, "duration": 6, "velocity": 79}, {"time": 1676, "pitch": 50, "duration": 1, "velocity": 66}, {"time": 1676, "pitch": 55, "duration": 1, "velocity": 67}, {"time": 1682, "pitch": 62, "duration": 9, "velocity": 62}, {"time": 1688, "pitch": 55, "duration": 20, "velocity": 64}, {"time": 1694, "pitch": 62, "duration": 12, "velocity": 62}, {"time": 1694, "pitch": 67, "duration": 14, "velocity": 81}, {"time": 1700, "pitch": 71, "duration": 4, "velocity": 75}, {"time": 1706, "pitch": 67, "duration": 2, "velocity": 61}, {"time": 1706, "pitch": 62, "duration": 12, "velocity": 79}, {"time": 1718, "pitch": 50, "duration": 18, "velocity": 79}, {"time": 1718, "pitch": 57, "duration": 6, "velocity": 79}, {"time": 1718, "pitch": 62, "duration": 6, "velocity": 79}, {"time": 1724, "pitch": 57, "duration": 7, "velocity": 46}, {"time": 1730, "pitch": 62, "duration": 9, "velocity": 61}, {"time": 1736, "pitch": 50, "duration": 6, "velocity": 79}, {"time": 1742, "pitch": 45, "duration": 18, "velocity": 58}, {"time": 1742, "pitch": 57, "duration": 11, "velocity": 59}, {"time": 1742, "pitch": 61, "duration": 14, "velocity": 69}, {"time": 1748, "pitch": 49, "duration": 18, "velocity": 67}, {"time": 1754, "pitch": 52, "duration": 14, "velocity": 59}, {"time": 1760, "pitch": 45, "duration": 6, "velocity": 79}, {"time": 1760, "pitch": 57, "duration": 7, "velocity": 72}, {"time": 1766, "pitch": 50, "duration": 18, "velocity": 79}, {"time": 1766, "pitch": 57, "duration": 1, "velocity": 79}, {"time": 1766, "pitch": 62, "duration": 6, "velocity": 79}, {"time": 1772, "pitch": 69, "duration": 6, "velocity": 79}, {"time": 1778, "pitch": 62, "duration": 9, "velocity": 61}, {"time": 1784, "pitch": 50, "duration": 6, "velocity": 79}, {"time": 1784, "pitch": 57, "duration": 8, "velocity": 58}, {"time": 1790, "pitch": 50, "duration": 24, "velocity": 79}, {"time": 1790, "pitch": 66, "duration": 6, "velocity": 63}, {"time": 1796, "pitch": 57, "duration": 8, "velocity": 59}, {"time": 1796, "pitch": 62, "duration": 6, "velocity": 73}, {"time": 1802, "pitch": 57, "duration": 2, "velocity": 73}, {"time": 1802, "pitch": 69, "duration": 6, "velocity": 79}, {"time": 1808, "pitch": 62, "duration": 6, "velocity": 79}, {"time": 1814, "pitch": 43, "duration": 18, "velocity": 76}, {"time": 1820, "pitch": 50, "duration": 38, "velocity": 62}, {"time": 1826, "pitch": 55, "duration": 7, "velocity": 53}, {"time": 1826, "pitch": 59, "duration": 7, "velocity": 63}, {"time": 1826, "pitch": 62, "duration": 7, "velocity": 69}, {"time": 1826, "pitch": 67, "duration": 7, "velocity": 76}, {"time": 1832, "pitch": 43, "duration": 6, "velocity": 79}, {"time": 1838, "pitch": 43, "duration": 24, "velocity": 79}, {"time": 1850, "pitch": 59, "duration": 9, "velocity": 65}, {"time": 1850, "pitch": 62, "duration": 8, "velocity": 74}, {"time": 1850, "pitch": 67, "duration": 8, "velocity": 85}, {"time": 1856, "pitch": 55, "duration": 4, "velocity": 58}, {"time": 1862, "pitch": 50, "duration": 18, "velocity": 81}, {"time": 1868, "pitch": 54, "duration": 34, "velocity": 50}, {"time": 1874, "pitch": 57, "duration": 27, "velocity": 59}, {"time": 1874, "pitch": 62, "duration": 9, "velocity": 65}, {"time": 1874, "pitch": 66, "duration": 8, "velocity": 58}, {"time": 1874, "pitch": 69, "duration": 7, "velocity": 69}, {"time": 1880, "pitch": 50, "duration": 6, "velocity": 79}, {"time": 1886, "pitch": 50, "duration": 24, "velocity": 79}, {"time": 1898, "pitch": 62, "duration": 8, "velocity": 79}, {"time": 1898, "pitch": 66, "duration": 9, "velocity": 91}, {"time": 1898, "pitch": 69, "duration": 8, "velocity": 85}, {"time": 1904, "pitch": 57, "duration": 6, "velocity": 79}, {"time": 1910, "pitch": 45, "duration": 18, "velocity": 79}, {"time": 1916, "pitch": 49, "duration": 36, "velocity": 71}, {"time": 1922, "pitch": 61, "duration": 10, "velocity": 82}, {"time": 1922, "pitch": 64, "duration": 10, "velocity": 82}, {"time": 1922, "pitch": 52, "duration": 30, "velocity": 58}, {"time": 1922, "pitch": 69, "duration": 10, "velocity": 48}, {"time": 1928, "pitch": 45, "duration": 6, "velocity": 79}, {"time": 1928, "pitch": 57, "duration": 7, "velocity": 58}, {"time": 1934, "pitch": 45, "duration": 24, "velocity": 79}, {"time": 1946, "pitch": 61, "duration": 6, "velocity": 96}, {"time": 1946, "pitch": 64, "duration": 6, "velocity": 96}, {"time": 1946, "pitch": 69, "duration": 6, "velocity": 96}, {"time": 1952, "pitch": 57, "duration": 5, "velocity": 53}, {"time": 1958, "pitch": 50, "duration": 18, "velocity": 86}, {"time": 1964, "pitch": 54, "duration": 32, "velocity": 58}, {"time": 1970, "pitch": 57, "duration": 25, "velocity": 57}, {"time": 1970, "pitch": 62, "duration": 7, "velocity": 85}, {"time": 1970, "pitch": 66, "duration": 10, "velocity": 81}, {"time": 1970, "pitch": 69, "duration": 8, "velocity": 71}, {"time": 1976, "pitch": 50, "duration": 6, "velocity": 79}, {"time": 1982, "pitch": 50, "duration": 21, "velocity": 79}, {"time": 1994, "pitch": 62, "duration": 3, "velocity": 79}, {"time": 1994, "pitch": 66, "duration": 4, "velocity": 74}, {"time": 1994, "pitch": 69, "duration": 3, "velocity": 69}, {"time": 2000, "pitch": 62, "duration": 5, "velocity": 46}, {"time": 2006, "pitch": 43, "duration": 18, "velocity": 76}, {"time": 2012, "pitch": 50, "duration": 38, "velocity": 62}, {"time": 2018, "pitch": 55, "duration": 7, "velocity": 53}, {"time": 2018, "pitch": 59, "duration": 7, "velocity": 63}, {"time": 2018, "pitch": 62, "duration": 7, "velocity": 69}, {"time": 2018, "pitch": 67, "duration": 7, "velocity": 76}, {"time": 2024, "pitch": 43, "duration": 6, "velocity": 79}, {"time": 2030, "pitch": 43, "duration": 24, "velocity": 79}, {"time": 2042, "pitch": 59, "duration": 9, "velocity": 65}, {"time": 2042, "pitch": 62, "duration": 8, "velocity": 74}, {"time": 2042, "pitch": 67, "duration": 8, "velocity": 85}, {"time": 2048, "pitch": 55, "duration": 4, "velocity": 58}, {"time": 2054, "pitch": 50, "duration": 18, "velocity": 86}, {"time": 2054, "pitch": 74, "duration": 9, "velocity": 74}, {"time": 2060, "pitch": 54, "duration": 32, "velocity": 58}, {"time": 2066, "pitch": 57, "duration": 25, "velocity": 57}, {"time": 2066, "pitch": 62, "duration": 7, "velocity": 85}, {"time": 2066, "pitch": 66, "duration": 10, "velocity": 81}, {"time": 2066, "pitch": 69, "duration": 8, "velocity": 71}, {"time": 2066, "pitch": 74, "duration": 9, "velocity": 63}, {"time": 2072, "pitch": 50, "duration": 6, "velocity": 79}, {"time": 2078, "pitch": 50, "duration": 21, "velocity": 79}, {"time": 2078, "pitch": 74, "duration": 10, "velocity": 65}, {"time": 2090, "pitch": 62, "duration": 3, "velocity": 79}, {"time": 2090, "pitch": 66, "duration": 4, "velocity": 74}, {"time": 2090, "pitch": 69, "duration": 3, "velocity": 69}, {"time": 2090, "pitch": 74, "duration": 5, "velocity": 74}, {"time": 2102, "pitch": 45, "duration": 18, "velocity": 79}, {"time": 2108, "pitch": 49, "duration": 36, "velocity": 71}, {"time": 2114, "pitch": 61, "duration": 10, "velocity": 82}, {"time": 2114, "pitch": 64, "duration": 10, "velocity": 82}, {"time": 2114, "pitch": 52, "duration": 30, "velocity": 58}, {"time": 2114, "pitch": 69, "duration": 10, "velocity": 48}, {"time": 2120, "pitch": 45, "duration": 6, "velocity": 79}, {"time": 2120, "pitch": 57, "duration": 7, "velocity": 58}, {"time": 2126, "pitch": 45, "duration": 24, "velocity": 79}, {"time": 2138, "pitch": 61, "duration": 6, "velocity": 96}, {"time": 2138, "pitch": 64, "duration": 6, "velocity": 96}, {"time": 2138, "pitch": 69, "duration": 6, "velocity": 96}, {"time": 2144, "pitch": 57, "duration": 5, "velocity": 53}, {"time": 2150, "pitch": 50, "duration": 18, "velocity": 83}, {"time": 2156, "pitch": 54, "duration": 37, "velocity": 62}, {"time": 2162, "pitch": 57, "duration": 29, "velocity": 58}, {"time": 2162, "pitch": 66, "duration": 10, "velocity": 81}, {"time": 2162, "pitch": 69, "duration": 7, "velocity": 83}, {"time": 2162, "pitch": 74, "duration": 7, "velocity": 74}, {"time": 2168, "pitch": 50, "duration": 6, "velocity": 79}, {"time": 2168, "pitch": 62, "duration": 30, "velocity": 54}, {"time": 2174, "pitch": 50, "duration": 21, "velocity": 79}, {"time": 2174, "pitch": 66, "duration": 21, "velocity": 63}, {"time": 2174, "pitch": 69, "duration": 21, "velocity": 73}, {"time": 2174, "pitch": 74, "duration": 19, "velocity": 71}, {"time": 2186, "pitch": 57, "duration": 5, "velocity": 67}, {"time": 2198, "pitch": 50, "duration": 18, "velocity": 58}, {"time": 2198, "pitch": 66, "duration": 11, "velocity": 53}, {"time": 2204, "pitch": 57, "duration": 6, "velocity": 65}, {"time": 2210, "pitch": 62, "duration": 10, "velocity": 62}, {"time": 2216, "pitch": 50, "duration": 6, "velocity": 68}, {"time": 2216, "pitch": 57, "duration": 9, "velocity": 68}, {"time": 2222, "pitch": 50, "duration": 21, "velocity": 68}, {"time": 2222, "pitch": 66, "duration": 11, "velocity": 68}, {"time": 2228, "pitch": 57, "duration": 6, "velocity": 68}, {"time": 2231, "pitch": 62, "duration": 9, "velocity": 64}, {"time": 2237, "pitch": 57, "duration": 3, "velocity": 59}, {"time": 2246, "pitch": 50, "duration": 18, "velocity": 66}, {"time": 2252, "pitch": 57, "duration": 9, "velocity": 58}, {"time": 2258, "pitch": 62, "duration": 6, "velocity": 60}, {"time": 2264, "pitch": 50, "duration": 6, "velocity": 62}, {"time": 2264, "pitch": 57, "duration": 8, "velocity": 63}, {"time": 2270, "pitch": 50, "duration": 21, "velocity": 62}, {"time": 2270, "pitch": 66, "duration": 12, "velocity": 64}, {"time": 2276, "pitch": 57, "duration": 10, "velocity": 60}, {"time": 2282, "pitch": 62, "duration": 12, "velocity": 61}, {"time": 2294, "pitch": 50, "duration": 18, "velocity": 61}, {"time": 2300, "pitch": 57, "duration": 7, "velocity": 46}, {"time": 2306, "pitch": 62, "duration": 9, "velocity": 61}, {"time": 2312, "pitch": 50, "duration": 3, "velocity": 62}, {"time": 2312, "pitch": 57, "duration": 8, "velocity": 58}, {"time": 2318, "pitch": 50, "duration": 21, "velocity": 62}, {"time": 2318, "pitch": 66, "duration": 12, "velocity": 63}, {"time": 2324, "pitch": 57, "duration": 12, "velocity": 59}, {"time": 2330, "pitch": 62, "duration": 6, "velocity": 61}, {"time": 2336, "pitch": 66, "duration": 6, "velocity": 59}, {"time": 2342, "pitch": 45, "duration": 18, "velocity": 58}, {"time": 2342, "pitch": 57, "duration": 11, "velocity": 59}, {"time": 2342, "pitch": 61, "duration": 14, "velocity": 69}, {"time": 2348, "pitch": 49, "duration": 41, "velocity": 67}, {"time": 2354, "pitch": 52, "duration": 14, "velocity": 59}, {"time": 2360, "pitch": 45, "duration": 3, "velocity": 62}, {"time": 2360, "pitch": 57, "duration": 7, "velocity": 56}, {"time": 2366, "pitch": 45, "duration": 21, "velocity": 62}, {"time": 2366, "pitch": 61, "duration": 16, "velocity": 68}, {"time": 2372, "pitch": 52, "duration": 6, "velocity": 69}, {"time": 2378, "pitch": 57, "duration": 8, "velocity": 68}, {"time": 2384, "pitch": 52, "duration": 4, "velocity": 58}, {"time": 2390, "pitch": 50, "duration": 18, "velocity": 64}, {"time": 2390, "pitch": 62, "duration": 5, "velocity": 56}, {"time": 2390, "pitch": 66, "duration": 7, "velocity": 64}, {"time": 2396, "pitch": 57, "duration": 6, "velocity": 55}, {"time": 2402, "pitch": 62, "duration": 9, "velocity": 56}, {"time": 2408, "pitch": 50, "duration": 3, "velocity": 62}, {"time": 2408, "pitch": 57, "duration": 7, "velocity": 59}, {"time": 2414, "pitch": 50, "duration": 21, "velocity": 62}, {"time": 2414, "pitch": 66, "duration": 11, "velocity": 76}, {"time": 2420, "pitch": 57, "duration": 10, "velocity": 58}, {"time": 2426, "pitch": 62, "duration": 4, "velocity": 58}, {"time": 2432, "pitch": 66, "duration": 6, "velocity": 58}, {"time": 2438, "pitch": 43, "duration": 18, "velocity": 75}, {"time": 2444, "pitch": 50, "duration": 36, "velocity": 66}, {"time": 2444, "pitch": 55, "duration": 7, "velocity": 67}, {"time": 2450, "pitch": 62, "duration": 9, "velocity": 62}, {"time": 2456, "pitch": 43, "duration": 3, "velocity": 62}, {"time": 2456, "pitch": 55, "duration": 21, "velocity": 64}, {"time": 2462, "pitch": 43, "duration": 21, "velocity": 62}, {"time": 2462, "pitch": 62, "duration": 20, "velocity": 62}, {"time": 2462, "pitch": 67, "duration": 14, "velocity": 81}, {"time": 2468, "pitch": 71, "duration": 4, "velocity": 75}, {"time": 2474, "pitch": 67, "duration": 2, "velocity": 61}, {"time": 2486, "pitch": 50, "duration": 18, "velocity": 60}, {"time": 2486, "pitch": 62, "duration": 9, "velocity": 54}, {"time": 2486, "pitch": 66, "duration": 10, "velocity": 62}, {"time": 2486, "pitch": 69, "duration": 10, "velocity": 63}, {"time": 2498, "pitch": 62, "duration": 9, "velocity": 52}, {"time": 2498, "pitch": 66, "duration": 9, "velocity": 58}, {"time": 2498, "pitch": 69, "duration": 8, "velocity": 55}, {"time": 2504, "pitch": 50, "duration": 3, "velocity": 62}, {"time": 2510, "pitch": 45, "duration": 18, "velocity": 74}, {"time": 2516, "pitch": 57, "duration": 4, "velocity": 51}, {"time": 2516, "pitch": 61, "duration": 4, "velocity": 50}, {"time": 2516, "pitch": 64, "duration": 4, "velocity": 46}, {"time": 2522, "pitch": 57, "duration": 10, "velocity": 62}, {"time": 2522, "pitch": 61, "duration": 10, "velocity": 77}, {"time": 2522, "pitch": 64, "duration": 10, "velocity": 60}, {"time": 2528, "pitch": 45, "duration": 6, "velocity": 62}, {"time": 2534, "pitch": 50, "duration": 18, "velocity": 64}, {"time": 2534, "pitch": 62, "duration": 5, "velocity": 56}, {"time": 2534, "pitch": 66, "duration": 7, "velocity": 64}, {"time": 2546, "pitch": 62, "duration": 9, "velocity": 56}, {"time": 2552, "pitch": 50, "duration": 3, "velocity": 62}, {"time": 2552, "pitch": 57, "duration": 7, "velocity": 59}, {"time": 2558, "pitch": 50, "duration": 21, "velocity": 62}, {"time": 2558, "pitch": 66, "duration": 11, "velocity": 76}, {"time": 2564, "pitch": 57, "duration": 10, "velocity": 58}, {"time": 2570, "pitch": 62, "duration": 4, "velocity": 58}, {"time": 2576, "pitch": 66, "duration": 6, "velocity": 58}, {"time": 2582, "pitch": 50, "duration": 6, "velocity": 86}, {"time": 2582, "pitch": 66, "duration": 5, "velocity": 76}, {"time": 2582, "pitch": 69, "duration": 5, "velocity": 83}, {"time": 2582, "pitch": 74, "duration": 5, "velocity": 77}, {"time": 2591, "pitch": 48, "duration": 7, "velocity": 87}, {"time": 2591, "pitch": 64, "duration": 7, "velocity": 79}, {"time": 2591, "pitch": 67, "duration": 6, "velocity": 87}, {"time": 2591, "pitch": 72, "duration": 6, "velocity": 74}, {"time": 2600, "pitch": 47, "duration": 18, "velocity": 83}, {"time": 2600, "pitch": 62, "duration": 18, "velocity": 65}, {"time": 2600, "pitch": 66, "duration": 18, "velocity": 64}, {"time": 2600, "pitch": 71, "duration": 18, "velocity": 69}, {"time": 2624, "pitch": 43, "duration": 3, "velocity": 71}, {"time": 2624, "pitch": 55, "duration": 3, "velocity": 85}, {"time": 2627, "pitch": 45, "duration": 1, "velocity": 68}, {"time": 2627, "pitch": 57, "duration": 2, "velocity": 76}, {"time": 2630, "pitch": 46, "duration": 5, "velocity": 73}, {"time": 2630, "pitch": 58, "duration": 5, "velocity": 95}, {"time": 2630, "pitch": 62, "duration": 6, "velocity": 98}, {"time": 2639, "pitch": 45, "duration": 5, "velocity": 81}, {"time": 2639, "pitch": 57, "duration": 5, "velocity": 85}, {"time": 2639, "pitch": 60, "duration": 7, "velocity": 90}, {"time": 2648, "pitch": 43, "duration": 28, "velocity": 76}, {"time": 2648, "pitch": 55, "duration": 28, "velocity": 90}, {"time": 2648, "pitch": 58, "duration": 30, "velocity": 93}, {"time": 2678, "pitch": 46, "duration": 5, "velocity": 91}, {"time": 2678, "pitch": 58, "duration": 5, "velocity": 91}, {"time": 2678, "pitch": 70, "duration": 5, "velocity": 91}, {"time": 2687, "pitch": 45, "duration": 6, "velocity": 90}, {"time": 2687, "pitch": 57, "duration": 6, "velocity": 90}, {"time": 2687, "pitch": 69, "duration": 6, "velocity": 90}, {"time": 2696, "pitch": 43, "duration": 7, "velocity": 89}, {"time": 2696, "pitch": 55, "duration": 7, "velocity": 89}, {"time": 2696, "pitch": 67, "duration": 7, "velocity": 89}, {"time": 2705, "pitch": 41, "duration": 6, "velocity": 88}, {"time": 2705, "pitch": 53, "duration": 6, "velocity": 88}, {"time": 2705, "pitch": 65, "duration": 6, "velocity": 88}, {"time": 2714, "pitch": 40, "duration": 37, "velocity": 87}, {"time": 2714, "pitch": 52, "duration": 24, "velocity": 87}, {"time": 2714, "pitch": 64, "duration": 24, "velocity": 87}, {"time": 2738, "pitch": 50, "duration": 6, "velocity": 87}, {"time": 2738, "pitch": 62, "duration": 10, "velocity": 87}, {"time": 2744, "pitch": 52, "duration": 5, "velocity": 68}, {"time": 2744, "pitch": 64, "duration": 5, "velocity": 75}, {"time": 2750, "pitch": 45, "duration": 66, "velocity": 74}, {"time": 2750, "pitch": 57, "duration": 66, "velocity": 67}, {"time": 2750, "pitch": 61, "duration": 66, "velocity": 90}, {"time": 2750, "pitch": 64, "duration": 66, "velocity": 74}, {"time": 2750, "pitch": 69, "duration": 60, "velocity": 67}, {"time": 2810, "pitch": 69, "duration": 6, "velocity": 77}, {"time": 2810, "pitch": 74, "duration": 6, "velocity": 87}, {"time": 2822, "pitch": 43, "duration": 18, "velocity": 76}, {"time": 2828, "pitch": 50, "duration": 38, "velocity": 62}, {"time": 2834, "pitch": 55, "duration": 7, "velocity": 53}, {"time": 2834, "pitch": 59, "duration": 7, "velocity": 63}, {"time": 2834, "pitch": 62, "duration": 7, "velocity": 69}, {"time": 2834, "pitch": 67, "duration": 7, "velocity": 76}, {"time": 2840, "pitch": 43, "duration": 6, "velocity": 79}, {"time": 2846, "pitch": 43, "duration": 24, "velocity": 79}, {"time": 2858, "pitch": 59, "duration": 9, "velocity": 65}, {"time": 2858, "pitch": 62, "duration": 8, "velocity": 74}, {"time": 2858, "pitch": 67, "duration": 8, "velocity": 85}, {"time": 2864, "pitch": 55, "duration": 4, "velocity": 58}, {"time": 2870, "pitch": 50, "duration": 18, "velocity": 81}, {"time": 2876, "pitch": 54, "duration": 34, "velocity": 50}, {"time": 2882, "pitch": 57, "duration": 27, "velocity": 59}, {"time": 2882, "pitch": 62, "duration": 9, "velocity": 65}, {"time": 2882, "pitch": 66, "duration": 8, "velocity": 58}, {"time": 2882, "pitch": 69, "duration": 7, "velocity": 69}, {"time": 2888, "pitch": 50, "duration": 6, "velocity": 79}, {"time": 2894, "pitch": 50, "duration": 24, "velocity": 79}, {"time": 2906, "pitch": 62, "duration": 8, "velocity": 79}, {"time": 2906, "pitch": 66, "duration": 9, "velocity": 91}, {"time": 2906, "pitch": 69, "duration": 8, "velocity": 85}, {"time": 2912, "pitch": 57, "duration": 6, "velocity": 79}, {"time": 2918, "pitch": 45, "duration": 18, "velocity": 79}, {"time": 2924, "pitch": 49, "duration": 36, "velocity": 71}, {"time": 2930, "pitch": 61, "duration": 10, "velocity": 82}, {"time": 2930, "pitch": 64, "duration": 10, "velocity": 82}, {"time": 2930, "pitch": 52, "duration": 30, "velocity": 58}, {"time": 2930, "pitch": 69, "duration": 10, "velocity": 48}, {"time": 2936, "pitch": 45, "duration": 6, "velocity": 79}, {"time": 2936, "pitch": 57, "duration": 7, "velocity": 58}, {"time": 2942, "pitch": 45, "duration": 24, "velocity": 79}, {"time": 2954, "pitch": 61, "duration": 6, "velocity": 96}, {"time": 2954, "pitch": 64, "duration": 6, "velocity": 96}, {"time": 2954, "pitch": 69, "duration": 6, "velocity": 96}, {"time": 2960, "pitch": 57, "duration": 5, "velocity": 53}, {"time": 2966, "pitch": 50, "duration": 18, "velocity": 86}, {"time": 2972, "pitch": 54, "duration": 32, "velocity": 58}, {"time": 2978, "pitch": 57, "duration": 25, "velocity": 57}, {"time": 2978, "pitch": 62, "duration": 7, "velocity": 85}, {"time": 2978, "pitch": 66, "duration": 10, "velocity": 81}, {"time": 2978, "pitch": 69, "duration": 8, "velocity": 71}, {"time": 2984, "pitch": 50, "duration": 6, "velocity": 79}, {"time": 2990, "pitch": 50, "duration": 21, "velocity": 79}, {"time": 3002, "pitch": 62, "duration": 3, "velocity": 79}, {"time": 3002, "pitch": 66, "duration": 4, "velocity": 74}, {"time": 3002, "pitch": 69, "duration": 3, "velocity": 69}, {"time": 3008, "pitch": 62, "duration": 5, "velocity": 46}, {"time": 3014, "pitch": 43, "duration": 18, "velocity": 76}, {"time": 3020, "pitch": 50, "duration": 38, "velocity": 62}, {"time": 3026, "pitch": 55, "duration": 7, "velocity": 53}, {"time": 3026, "pitch": 59, "duration": 7, "velocity": 63}, {"time": 3026, "pitch": 62, "duration": 7, "velocity": 69}, {"time": 3026, "pitch": 67, "duration": 7, "velocity": 76}, {"time": 3032, "pitch": 43, "duration": 6, "velocity": 79}, {"time": 3038, "pitch": 43, "duration": 24, "velocity": 79}, {"time": 3050, "pitch": 59, "duration": 9, "velocity": 65}, {"time": 3050, "pitch": 62, "duration": 8, "velocity": 74}, {"time": 3050, "pitch": 67, "duration": 8, "velocity": 85}, {"time": 3056, "pitch": 55, "duration": 4, "velocity": 58}, {"time": 3062, "pitch": 50, "duration": 18, "velocity": 86}, {"time": 3062, "pitch": 74, "duration": 9, "velocity": 74}, {"time": 3068, "pitch": 54, "duration": 32, "velocity": 58}, {"time": 3074, "pitch": 57, "duration": 25, "velocity": 57}, {"time": 3074, "pitch": 62, "duration": 7, "velocity": 85}, {"time": 3074, "pitch": 66, "duration": 10, "velocity": 81}, {"time": 3074, "pitch": 69, "duration": 8, "velocity": 71}, {"time": 3074, "pitch": 74, "duration": 9, "velocity": 63}, {"time": 3080, "pitch": 50, "duration": 6, "velocity": 79}, {"time": 3086, "pitch": 50, "duration": 21, "velocity": 79}, {"time": 3086, "pitch": 74, "duration": 10, "velocity": 65}, {"time": 3098, "pitch": 62, "duration": 3, "velocity": 79}, {"time": 3098, "pitch": 66, "duration": 4, "velocity": 74}, {"time": 3098, "pitch": 69, "duration": 3, "velocity": 69}, {"time": 3098, "pitch": 74, "duration": 5, "velocity": 74}, {"time": 3110, "pitch": 45, "duration": 18, "velocity": 79}, {"time": 3116, "pitch": 49, "duration": 36, "velocity": 71}, {"time": 3122, "pitch": 61, "duration": 10, "velocity": 82}, {"time": 3122, "pitch": 64, "duration": 10, "velocity": 82}, {"time": 3122, "pitch": 52, "duration": 30, "velocity": 58}, {"time": 3122, "pitch": 69, "duration": 10, "velocity": 48}, {"time": 3128, "pitch": 45, "duration": 6, "velocity": 79}, {"time": 3128, "pitch": 57, "duration": 7, "velocity": 58}, {"time": 3134, "pitch": 45, "duration": 24, "velocity": 79}, {"time": 3146, "pitch": 61, "duration": 6, "velocity": 96}, {"time": 3146, "pitch": 64, "duration": 6, "velocity": 96}, {"time": 3146, "pitch": 69, "duration": 6, "velocity": 96}, {"time": 3152, "pitch": 57, "duration": 5, "velocity": 53}, {"time": 3158, "pitch": 50, "duration": 18, "velocity": 83}, {"time": 3164, "pitch": 54, "duration": 37, "velocity": 62}, {"time": 3170, "pitch": 57, "duration": 29, "velocity": 58}, {"time": 3170, "pitch": 66, "duration": 10, "velocity": 81}, {"time": 3170, "pitch": 69, "duration": 7, "velocity": 83}, {"time": 3170, "pitch": 74, "duration": 7, "velocity": 74}, {"time": 3176, "pitch": 50, "duration": 6, "velocity": 79}, {"time": 3176, "pitch": 62, "duration": 30, "velocity": 54}, {"time": 3182, "pitch": 50, "duration": 21, "velocity": 79}, {"time": 3182, "pitch": 66, "duration": 21, "velocity": 63}, {"time": 3182, "pitch": 69, "duration": 21, "velocity": 73}, {"time": 3182, "pitch": 74, "duration": 19, "velocity": 71}, {"time": 3194, "pitch": 57, "duration": 5, "velocity": 67}, {"time": 3206, "pitch": 43, "duration": 18, "velocity": 76}, {"time": 3212, "pitch": 50, "duration": 38, "velocity": 62}, {"time": 3218, "pitch": 55, "duration": 7, "velocity": 53}, {"time": 3218, "pitch": 59, "duration": 7, "velocity": 63}, {"time": 3218, "pitch": 62, "duration": 7, "velocity": 69}, {"time": 3218, "pitch": 67, "duration": 7, "velocity": 76}, {"time": 3224, "pitch": 43, "duration": 6, "velocity": 79}, {"time": 3230, "pitch": 43, "duration": 24, "velocity": 79}, {"time": 3242, "pitch": 59, "duration": 9, "velocity": 65}, {"time": 3242, "pitch": 62, "duration": 8, "velocity": 74}, {"time": 3242, "pitch": 67, "duration": 8, "velocity": 85}, {"time": 3248, "pitch": 55, "duration": 4, "velocity": 58}, {"time": 3254, "pitch": 50, "duration": 18, "velocity": 81}, {"time": 3260, "pitch": 54, "duration": 34, "velocity": 50}, {"time": 3266, "pitch": 57, "duration": 27, "velocity": 59}, {"time": 3266, "pitch": 62, "duration": 9, "velocity": 65}, {"time": 3266, "pitch": 66, "duration": 8, "velocity": 58}, {"time": 3266, "pitch": 69, "duration": 7, "velocity": 69}, {"time": 3272, "pitch": 50, "duration": 6, "velocity": 79}, {"time": 3278, "pitch": 50, "duration": 24, "velocity": 79}, {"time": 3290, "pitch": 62, "duration": 8, "velocity": 79}, {"time": 3290, "pitch": 66, "duration": 9, "velocity": 91}, {"time": 3290, "pitch": 69, "duration": 8, "velocity": 85}, {"time": 3296, "pitch": 57, "duration": 6, "velocity": 79}, {"time": 3302, "pitch": 45, "duration": 18, "velocity": 79}, {"time": 3308, "pitch": 49, "duration": 36, "velocity": 71}, {"time": 3314, "pitch": 61, "duration": 10, "velocity": 82}, {"time": 3314, "pitch": 64, "duration": 10, "velocity": 82}, {"time": 3314, "pitch": 52, "duration": 30, "velocity": 58}, {"time": 3314, "pitch": 69, "duration": 10, "velocity": 48}, {"time": 3320, "pitch": 45, "duration": 6, "velocity": 79}, {"time": 3320, "pitch": 57, "duration": 7, "velocity": 58}, {"time": 3326, "pitch": 45, "duration": 24, "velocity": 79}, {"time": 3338, "pitch": 61, "duration": 6, "velocity": 96}, {"time": 3338, "pitch": 64, "duration": 6, "velocity": 96}, {"time": 3338, "pitch": 69, "duration": 6, "velocity": 96}, {"time": 3344, "pitch": 57, "duration": 5, "velocity": 53}, {"time": 3350, "pitch": 50, "duration": 18, "velocity": 86}, {"time": 3356, "pitch": 54, "duration": 32, "velocity": 58}, {"time": 3362, "pitch": 57, "duration": 25, "velocity": 57}, {"time": 3362, "pitch": 62, "duration": 7, "velocity": 85}, {"time": 3362, "pitch": 66, "duration": 10, "velocity": 81}, {"time": 3362, "pitch": 69, "duration": 8, "velocity": 71}, {"time": 3368, "pitch": 50, "duration": 6, "velocity": 79}, {"time": 3374, "pitch": 50, "duration": 21, "velocity": 79}, {"time": 3386, "pitch": 62, "duration": 3, "velocity": 79}, {"time": 3386, "pitch": 66, "duration": 4, "velocity": 74}, {"time": 3386, "pitch": 69, "duration": 3, "velocity": 69}, {"time": 3392, "pitch": 62, "duration": 5, "velocity": 46}, {"time": 3398, "pitch": 43, "duration": 18, "velocity": 76}, {"time": 3404, "pitch": 50, "duration": 38, "velocity": 62}, {"time": 3410, "pitch": 55, "duration": 7, "velocity": 53}, {"time": 3410, "pitch": 59, "duration": 7, "velocity": 63}, {"time": 3410, "pitch": 62, "duration": 7, "velocity": 69}, {"time": 3410, "pitch": 67, "duration": 7, "velocity": 76}, {"time": 3416, "pitch": 43, "duration": 6, "velocity": 79}, {"time": 3422, "pitch": 43, "duration": 24, "velocity": 79}, {"time": 3434, "pitch": 59, "duration": 9, "velocity": 65}, {"time": 3434, "pitch": 62, "duration": 8, "velocity": 74}, {"time": 3434, "pitch": 67, "duration": 8, "velocity": 85}, {"time": 3440, "pitch": 55, "duration": 4, "velocity": 58}, {"time": 3446, "pitch": 50, "duration": 18, "velocity": 86}, {"time": 3446, "pitch": 74, "duration": 9, "velocity": 74}, {"time": 3452, "pitch": 54, "duration": 32, "velocity": 58}, {"time": 3458, "pitch": 57, "duration": 25, "velocity": 57}, {"time": 3458, "pitch": 62, "duration": 7, "velocity": 85}, {"time": 3458, "pitch": 66, "duration": 10, "velocity": 81}, {"time": 3458, "pitch": 69, "duration": 8, "velocity": 71}, {"time": 3458, "pitch": 74, "duration": 9, "velocity": 63}, {"time": 3464, "pitch": 50, "duration": 6, "velocity": 79}, {"time": 3470, "pitch": 50, "duration": 21, "velocity": 79}, {"time": 3470, "pitch": 74, "duration": 10, "velocity": 65}, {"time": 3482, "pitch": 62, "duration": 3, "velocity": 79}, {"time": 3482, "pitch": 66, "duration": 4, "velocity": 74}, {"time": 3482, "pitch": 69, "duration": 3, "velocity": 69}, {"time": 3482, "pitch": 74, "duration": 5, "velocity": 74}, {"time": 3494, "pitch": 45, "duration": 18, "velocity": 79}, {"time": 3500, "pitch": 49, "duration": 36, "velocity": 71}, {"time": 3506, "pitch": 61, "duration": 10, "velocity": 82}, {"time": 3506, "pitch": 64, "duration": 10, "velocity": 82}, {"time": 3506, "pitch": 52, "duration": 30, "velocity": 58}, {"time": 3506, "pitch": 69, "duration": 10, "velocity": 48}, {"time": 3512, "pitch": 45, "duration": 6, "velocity": 79}, {"time": 3512, "pitch": 57, "duration": 7, "velocity": 58}, {"time": 3518, "pitch": 45, "duration": 24, "velocity": 79}, {"time": 3530, "pitch": 61, "duration": 6, "velocity": 96}, {"time": 3530, "pitch": 64, "duration": 6, "velocity": 96}, {"time": 3530, "pitch": 69, "duration": 6, "velocity": 96}, {"time": 3536, "pitch": 57, "duration": 5, "velocity": 53}, {"time": 3542, "pitch": 50, "duration": 18, "velocity": 83}, {"time": 3548, "pitch": 54, "duration": 37, "velocity": 62}, {"time": 3554, "pitch": 57, "duration": 29, "velocity": 58}, {"time": 3554, "pitch": 66, "duration": 10, "velocity": 81}, {"time": 3554, "pitch": 69, "duration": 7, "velocity": 83}, {"time": 3554, "pitch": 74, "duration": 7, "velocity": 74}, {"time": 3560, "pitch": 50, "duration": 6, "velocity": 79}, {"time": 3560, "pitch": 62, "duration": 30, "velocity": 54}, {"time": 3566, "pitch": 50, "duration": 21, "velocity": 79}, {"time": 3566, "pitch": 66, "duration": 21, "velocity": 63}, {"time": 3566, "pitch": 69, "duration": 21, "velocity": 73}, {"time": 3566, "pitch": 74, "duration": 19, "velocity": 71}, {"time": 3578, "pitch": 57, "duration": 5, "velocity": 67}, {"time": 3590, "pitch": 45, "duration": 19, "velocity": 63}, {"time": 3590, "pitch": 52, "duration": 20, "velocity": 63}, {"time": 3590, "pitch": 57, "duration": 19, "velocity": 63}, {"time": 3590, "pitch": 61, "duration": 18, "velocity": 85}, {"time": 3590, "pitch": 64, "duration": 18, "velocity": 65}, {"time": 3614, "pitch": 45, "duration": 63, "velocity": 81}, {"time": 3614, "pitch": 52, "duration": 63, "velocity": 81}, {"time": 3614, "pitch": 57, "duration": 63, "velocity": 81}, {"time": 3614, "pitch": 61, "duration": 62, "velocity": 81}, {"time": 3614, "pitch": 64, "duration": 63, "velocity": 81}, {"time": 3683, "pitch": 69, "duration": 10, "velocity": 62}, {"time": 3683, "pitch": 74, "duration": 7, "velocity": 63}, {"time": 3686, "pitch": 50, "duration": 138, "velocity": 65}, {"time": 3689, "pitch": 57, "duration": 133, "velocity": 60}, {"time": 3689, "pitch": 62, "duration": 3, "velocity": 62}, {"time": 3695, "pitch": 69, "duration": 10, "velocity": 66}, {"time": 3695, "pitch": 74, "duration": 7, "velocity": 63}, {"time": 3701, "pitch": 62, "duration": 3, "velocity": 62}, {"time": 3707, "pitch": 69, "duration": 10, "velocity": 79}, {"time": 3707, "pitch": 74, "duration": 10, "velocity": 73}, {"time": 3713, "pitch": 62, "duration": 3, "velocity": 62}, {"time": 3713, "pitch": 66, "duration": 12, "velocity": 58}, {"time": 3719, "pitch": 69, "duration": 11, "velocity": 86}, {"time": 3719, "pitch": 74, "duration": 2, "velocity": 74}, {"time": 3721, "pitch": 74, "duration": 2, "velocity": 62}, {"time": 3723, "pitch": 74, "duration": 2, "velocity": 62}, {"time": 3725, "pitch": 62, "duration": 10, "velocity": 59}, {"time": 3725, "pitch": 66, "duration": 92, "velocity": 64}, {"time": 3725, "pitch": 74, "duration": 2, "velocity": 62}, {"time": 3727, "pitch": 74, "duration": 2, "velocity": 62}, {"time": 3729, "pitch": 74, "duration": 2, "velocity": 62}, {"time": 3731, "pitch": 69, "duration": 11, "velocity": 86}, {"time": 3731, "pitch": 74, "duration": 11, "velocity": 83}, {"time": 3737, "pitch": 62, "duration": 3, "velocity": 62}, {"time": 3743, "pitch": 69, "duration": 11, "velocity": 71}, {"time": 3743, "pitch": 74, "duration": 10, "velocity": 71}, {"time": 3749, "pitch": 62, "duration": 12, "velocity": 72}, {"time": 3755, "pitch": 69, "duration": 68, "velocity": 68}, {"time": 3755, "pitch": 74, "duration": 3, "velocity": 62}, {"time": 3761, "pitch": 62, "duration": 3, "velocity": 63}, {"time": 3767, "pitch": 74, "duration": 6, "velocity": 62}, {"time": 3773, "pitch": 62, "duration": 47, "velocity": 61}, {"time": 3779, "pitch": 74, "duration": 44, "velocity": 62}], "annotations": [{"time": 50, "annotation": {"number": 64, "value": 57}, "group": "control_change"}, {"time": 62, "annotation": {"number": 64, "value": 59}, "group": "control_change"}, {"time": 98, "annotation": {"number": 64, "value": 60}, "group": "control_change"}, {"time": 110, "annotation": {"number": 64, "value": 63}, "group": "control_change"}, {"time": 122, "annotation": {"number": 64, "value": 64}, "group": "control_change"}]}]}