{"metadata": {"schema_version": "0.2", "title": "None", "source_filename": "073.mid", "source_format": "midi"}, "resolution": 12, "tempos": [{"time": 0, "qpm": 78.00017940041262}], "time_signatures": [{"time": 0, "numerator": 1, "denominator": 4}], "tracks": [{"program": 0, "is_drum": false, "name": "MELODY", "notes": [{"time": 110, "pitch": 62, "duration": 9, "velocity": 78}, {"time": 119, "pitch": 62, "duration": 9, "velocity": 92}, {"time": 128, "pitch": 60, "duration": 6, "velocity": 100}, {"time": 134, "pitch": 57, "duration": 9, "velocity": 87}, {"time": 143, "pitch": 60, "duration": 9, "velocity": 92}, {"time": 152, "pitch": 62, "duration": 6, "velocity": 84}, {"time": 158, "pitch": 64, "duration": 6, "velocity": 92}, {"time": 164, "pitch": 65, "duration": 3, "velocity": 87}, {"time": 167, "pitch": 64, "duration": 6, "velocity": 84}, {"time": 173, "pitch": 60, "duration": 6, "velocity": 73}, {"time": 179, "pitch": 57, "duration": 27, "velocity": 84}, {"time": 206, "pitch": 62, "duration": 9, "velocity": 89}, {"time": 215, "pitch": 62, "duration": 9, "velocity": 97}, {"time": 224, "pitch": 60, "duration": 6, "velocity": 97}, {"time": 230, "pitch": 57, "duration": 9, "velocity": 89}, {"time": 239, "pitch": 60, "duration": 9, "velocity": 97}, {"time": 248, "pitch": 62, "duration": 6, "velocity": 94}, {"time": 254, "pitch": 64, "duration": 6, "velocity": 92}, {"time": 260, "pitch": 65, "duration": 3, "velocity": 94}, {"time": 263, "pitch": 64, "duration": 6, "velocity": 94}, {"time": 269, "pitch": 60, "duration": 6, "velocity": 73}, {"time": 275, "pitch": 62, "duration": 27, "velocity": 84}, {"time": 302, "pitch": 62, "duration": 9, "velocity": 82}, {"time": 311, "pitch": 62, "duration": 9, "velocity": 87}, {"time": 320, "pitch": 60, "duration": 6, "velocity": 84}, {"time": 326, "pitch": 64, "duration": 9, "velocity": 94}, {"time": 335, "pitch": 64, "duration": 9, "velocity": 94}, {"time": 344, "pitch": 65, "duration": 6, "velocity": 92}, {"time": 350, "pitch": 64, "duration": 6, "velocity": 89}, {"time": 356, "pitch": 65, "duration": 6, "velocity": 92}, {"time": 362, "pitch": 67, "duration": 6, "velocity": 105}, {"time": 368, "pitch": 65, "duration": 3, "velocity": 100}, {"time": 371, "pitch": 69, "duration": 15, "velocity": 102}, {"time": 386, "pitch": 67, "duration": 6, "velocity": 100}, {"time": 392, "pitch": 69, "duration": 6, "velocity": 100}, {"time": 398, "pitch": 67, "duration": 9, "velocity": 94}, {"time": 407, "pitch": 62, "duration": 15, "velocity": 94}, {"time": 422, "pitch": 64, "duration": 9, "velocity": 87}, {"time": 431, "pitch": 60, "duration": 9, "velocity": 100}, {"time": 440, "pitch": 64, "duration": 6, "velocity": 80}, {"time": 446, "pitch": 62, "duration": 48, "velocity": 97}, {"time": 878, "pitch": 62, "duration": 9, "velocity": 78}, {"time": 887, "pitch": 62, "duration": 9, "velocity": 92}, {"time": 896, "pitch": 60, "duration": 6, "velocity": 100}, {"time": 902, "pitch": 57, "duration": 9, "velocity": 87}, {"time": 911, "pitch": 60, "duration": 9, "velocity": 92}, {"time": 920, "pitch": 62, "duration": 6, "velocity": 84}, {"time": 926, "pitch": 64, "duration": 6, "velocity": 92}, {"time": 932, "pitch": 65, "duration": 3, "velocity": 87}, {"time": 935, "pitch": 64, "duration": 6, "velocity": 84}, {"time": 941, "pitch": 60, "duration": 6, "velocity": 73}, {"time": 947, "pitch": 57, "duration": 27, "velocity": 84}, {"time": 974, "pitch": 62, "duration": 9, "velocity": 89}, {"time": 983, "pitch": 62, "duration": 9, "velocity": 97}, {"time": 992, "pitch": 60, "duration": 6, "velocity": 97}, {"time": 998, "pitch": 57, "duration": 9, "velocity": 89}, {"time": 1007, "pitch": 60, "duration": 9, "velocity": 97}, {"time": 1016, "pitch": 62, "duration": 6, "velocity": 94}, {"time": 1022, "pitch": 64, "duration": 6, "velocity": 92}, {"time": 1028, "pitch": 65, "duration": 3, "velocity": 94}, {"time": 1031, "pitch": 64, "duration": 6, "velocity": 94}, {"time": 1037, "pitch": 60, "duration": 6, "velocity": 73}, {"time": 1043, "pitch": 62, "duration": 27, "velocity": 84}, {"time": 1070, "pitch": 62, "duration": 9, "velocity": 82}, {"time": 1079, "pitch": 62, "duration": 9, "velocity": 87}, {"time": 1088, "pitch": 60, "duration": 6, "velocity": 84}, {"time": 1094, "pitch": 64, "duration": 9, "velocity": 94}, {"time": 1103, "pitch": 64, "duration": 9, "velocity": 94}, {"time": 1112, "pitch": 65, "duration": 6, "velocity": 92}, {"time": 1118, "pitch": 64, "duration": 6, "velocity": 89}, {"time": 1124, "pitch": 65, "duration": 6, "velocity": 92}, {"time": 1130, "pitch": 67, "duration": 6, "velocity": 105}, {"time": 1136, "pitch": 65, "duration": 3, "velocity": 100}, {"time": 1139, "pitch": 69, "duration": 15, "velocity": 102}, {"time": 1154, "pitch": 67, "duration": 6, "velocity": 100}, {"time": 1160, "pitch": 65, "duration": 6, "velocity": 100}, {"time": 1166, "pitch": 62, "duration": 12, "velocity": 94}, {"time": 1178, "pitch": 69, "duration": 12, "velocity": 94}, {"time": 1190, "pitch": 64, "duration": 12, "velocity": 87}, {"time": 1208, "pitch": 60, "duration": 6, "velocity": 100}, {"time": 1214, "pitch": 62, "duration": 48, "velocity": 97}, {"time": 1262, "pitch": 67, "duration": 4, "velocity": 105}, {"time": 1268, "pitch": 65, "duration": 1, "velocity": 100}, {"time": 1271, "pitch": 62, "duration": 4, "velocity": 92}, {"time": 1277, "pitch": 65, "duration": 6, "velocity": 97}, {"time": 1283, "pitch": 67, "duration": 7, "velocity": 100}, {"time": 1292, "pitch": 65, "duration": 1, "velocity": 100}, {"time": 1295, "pitch": 62, "duration": 5, "velocity": 82}, {"time": 1301, "pitch": 65, "duration": 5, "velocity": 94}, {"time": 1310, "pitch": 67, "duration": 4, "velocity": 100}, {"time": 1316, "pitch": 69, "duration": 1, "velocity": 100}, {"time": 1319, "pitch": 67, "duration": 4, "velocity": 111}, {"time": 1328, "pitch": 65, "duration": 6, "velocity": 108}, {"time": 1334, "pitch": 62, "duration": 6, "velocity": 105}, {"time": 1358, "pitch": 67, "duration": 4, "velocity": 105}, {"time": 1364, "pitch": 65, "duration": 1, "velocity": 105}, {"time": 1367, "pitch": 62, "duration": 4, "velocity": 97}, {"time": 1373, "pitch": 65, "duration": 6, "velocity": 92}, {"time": 1382, "pitch": 64, "duration": 5, "velocity": 100}, {"time": 1388, "pitch": 60, "duration": 1, "velocity": 97}, {"time": 1391, "pitch": 60, "duration": 4, "velocity": 92}, {"time": 1397, "pitch": 62, "duration": 6, "velocity": 84}, {"time": 1406, "pitch": 57, "duration": 13, "velocity": 97}, {"time": 1436, "pitch": 55, "duration": 4, "velocity": 87}, {"time": 1442, "pitch": 57, "duration": 4, "velocity": 108}, {"time": 1448, "pitch": 60, "duration": 3, "velocity": 102}, {"time": 1454, "pitch": 67, "duration": 4, "velocity": 111}, {"time": 1460, "pitch": 65, "duration": 2, "velocity": 100}, {"time": 1463, "pitch": 62, "duration": 5, "velocity": 80}, {"time": 1469, "pitch": 65, "duration": 4, "velocity": 102}, {"time": 1475, "pitch": 67, "duration": 5, "velocity": 105}, {"time": 1481, "pitch": 65, "duration": 2, "velocity": 108}, {"time": 1487, "pitch": 62, "duration": 4, "velocity": 102}, {"time": 1493, "pitch": 65, "duration": 5, "velocity": 105}, {"time": 1502, "pitch": 67, "duration": 3, "velocity": 102}, {"time": 1508, "pitch": 65, "duration": 1, "velocity": 92}, {"time": 1511, "pitch": 67, "duration": 3, "velocity": 102}, {"time": 1517, "pitch": 72, "duration": 4, "velocity": 97}, {"time": 1523, "pitch": 69, "duration": 10, "velocity": 105}, {"time": 1538, "pitch": 67, "duration": 4, "velocity": 84}, {"time": 1544, "pitch": 65, "duration": 4, "velocity": 97}, {"time": 1550, "pitch": 62, "duration": 9, "velocity": 105}, {"time": 1562, "pitch": 69, "duration": 9, "velocity": 105}, {"time": 1574, "pitch": 64, "duration": 15, "velocity": 102}, {"time": 1592, "pitch": 65, "duration": 4, "velocity": 108}, {"time": 1598, "pitch": 67, "duration": 15, "velocity": 84}, {"time": 1613, "pitch": 65, "duration": 1, "velocity": 100}, {"time": 1616, "pitch": 67, "duration": 1, "velocity": 102}, {"time": 1619, "pitch": 69, "duration": 3, "velocity": 102}, {"time": 1628, "pitch": 57, "duration": 4, "velocity": 102}, {"time": 1634, "pitch": 72, "duration": 2, "velocity": 97}, {"time": 1640, "pitch": 69, "duration": 2, "velocity": 100}, {"time": 1646, "pitch": 67, "duration": 5, "velocity": 108}, {"time": 1652, "pitch": 65, "duration": 1, "velocity": 100}, {"time": 1655, "pitch": 67, "duration": 5, "velocity": 100}, {"time": 1667, "pitch": 65, "duration": 1, "velocity": 94}, {"time": 1670, "pitch": 67, "duration": 4, "velocity": 105}, {"time": 1676, "pitch": 65, "duration": 1, "velocity": 97}, {"time": 1679, "pitch": 62, "duration": 4, "velocity": 100}, {"time": 1685, "pitch": 65, "duration": 6, "velocity": 105}, {"time": 1694, "pitch": 67, "duration": 12, "velocity": 108}, {"time": 1709, "pitch": 65, "duration": 1, "velocity": 102}, {"time": 1712, "pitch": 67, "duration": 1, "velocity": 100}, {"time": 1715, "pitch": 69, "duration": 4, "velocity": 100}, {"time": 1724, "pitch": 57, "duration": 3, "velocity": 105}, {"time": 1730, "pitch": 72, "duration": 4, "velocity": 102}, {"time": 1736, "pitch": 69, "duration": 3, "velocity": 102}, {"time": 1742, "pitch": 67, "duration": 4, "velocity": 105}, {"time": 1748, "pitch": 65, "duration": 1, "velocity": 92}, {"time": 1751, "pitch": 67, "duration": 5, "velocity": 102}, {"time": 1766, "pitch": 67, "duration": 4, "velocity": 111}, {"time": 1772, "pitch": 65, "duration": 1, "velocity": 102}, {"time": 1775, "pitch": 72, "duration": 4, "velocity": 108}, {"time": 1781, "pitch": 74, "duration": 7, "velocity": 108}, {"time": 1790, "pitch": 69, "duration": 23, "velocity": 105}, {"time": 1820, "pitch": 57, "duration": 4, "velocity": 105}, {"time": 1826, "pitch": 72, "duration": 3, "velocity": 111}, {"time": 1832, "pitch": 69, "duration": 3, "velocity": 102}, {"time": 1838, "pitch": 67, "duration": 3, "velocity": 105}, {"time": 1844, "pitch": 65, "duration": 1, "velocity": 76}, {"time": 1847, "pitch": 67, "duration": 12, "velocity": 102}, {"time": 1862, "pitch": 67, "duration": 4, "velocity": 105}, {"time": 1868, "pitch": 65, "duration": 2, "velocity": 94}, {"time": 1871, "pitch": 62, "duration": 4, "velocity": 108}, {"time": 1877, "pitch": 65, "duration": 5, "velocity": 102}, {"time": 1886, "pitch": 72, "duration": 3, "velocity": 102}, {"time": 1892, "pitch": 69, "duration": 3, "velocity": 100}, {"time": 1898, "pitch": 67, "duration": 4, "velocity": 105}, {"time": 1904, "pitch": 69, "duration": 1, "velocity": 92}, {"time": 1907, "pitch": 67, "duration": 5, "velocity": 94}, {"time": 1916, "pitch": 65, "duration": 6, "velocity": 108}, {"time": 1922, "pitch": 62, "duration": 3, "velocity": 102}, {"time": 1928, "pitch": 60, "duration": 3, "velocity": 97}, {"time": 1934, "pitch": 62, "duration": 10, "velocity": 94}, {"time": 1946, "pitch": 62, "duration": 4, "velocity": 89}, {"time": 1952, "pitch": 65, "duration": 4, "velocity": 97}, {"time": 1958, "pitch": 67, "duration": 4, "velocity": 97}, {"time": 1964, "pitch": 65, "duration": 4, "velocity": 97}, {"time": 1970, "pitch": 62, "duration": 4, "velocity": 105}, {"time": 1976, "pitch": 60, "duration": 3, "velocity": 84}, {"time": 1979, "pitch": 62, "duration": 24, "velocity": 100}, {"time": 2414, "pitch": 62, "duration": 9, "velocity": 78}, {"time": 2423, "pitch": 62, "duration": 9, "velocity": 92}, {"time": 2432, "pitch": 60, "duration": 6, "velocity": 100}, {"time": 2438, "pitch": 57, "duration": 9, "velocity": 87}, {"time": 2447, "pitch": 60, "duration": 9, "velocity": 92}, {"time": 2456, "pitch": 62, "duration": 6, "velocity": 84}, {"time": 2462, "pitch": 64, "duration": 6, "velocity": 92}, {"time": 2468, "pitch": 65, "duration": 3, "velocity": 87}, {"time": 2471, "pitch": 64, "duration": 6, "velocity": 84}, {"time": 2477, "pitch": 60, "duration": 6, "velocity": 73}, {"time": 2483, "pitch": 57, "duration": 27, "velocity": 84}, {"time": 2510, "pitch": 62, "duration": 9, "velocity": 89}, {"time": 2519, "pitch": 62, "duration": 9, "velocity": 97}, {"time": 2528, "pitch": 60, "duration": 6, "velocity": 97}, {"time": 2534, "pitch": 57, "duration": 9, "velocity": 89}, {"time": 2543, "pitch": 60, "duration": 9, "velocity": 97}, {"time": 2552, "pitch": 62, "duration": 6, "velocity": 94}, {"time": 2558, "pitch": 64, "duration": 6, "velocity": 92}, {"time": 2564, "pitch": 65, "duration": 3, "velocity": 94}, {"time": 2567, "pitch": 64, "duration": 6, "velocity": 94}, {"time": 2573, "pitch": 60, "duration": 6, "velocity": 73}, {"time": 2579, "pitch": 62, "duration": 27, "velocity": 84}, {"time": 2606, "pitch": 62, "duration": 9, "velocity": 82}, {"time": 2615, "pitch": 62, "duration": 9, "velocity": 87}, {"time": 2624, "pitch": 60, "duration": 6, "velocity": 84}, {"time": 2630, "pitch": 64, "duration": 9, "velocity": 94}, {"time": 2639, "pitch": 64, "duration": 9, "velocity": 94}, {"time": 2648, "pitch": 65, "duration": 6, "velocity": 92}, {"time": 2654, "pitch": 64, "duration": 6, "velocity": 89}, {"time": 2660, "pitch": 65, "duration": 6, "velocity": 92}, {"time": 2666, "pitch": 67, "duration": 6, "velocity": 105}, {"time": 2672, "pitch": 65, "duration": 3, "velocity": 100}, {"time": 2675, "pitch": 69, "duration": 15, "velocity": 102}, {"time": 2690, "pitch": 67, "duration": 6, "velocity": 100}, {"time": 2696, "pitch": 65, "duration": 6, "velocity": 100}, {"time": 2702, "pitch": 62, "duration": 12, "velocity": 94}, {"time": 2714, "pitch": 69, "duration": 12, "velocity": 94}, {"time": 2726, "pitch": 64, "duration": 12, "velocity": 87}, {"time": 2744, "pitch": 60, "duration": 6, "velocity": 100}, {"time": 2750, "pitch": 62, "duration": 48, "velocity": 97}, {"time": 2798, "pitch": 67, "duration": 4, "velocity": 105}, {"time": 2804, "pitch": 65, "duration": 1, "velocity": 100}, {"time": 2807, "pitch": 62, "duration": 4, "velocity": 92}, {"time": 2813, "pitch": 65, "duration": 6, "velocity": 97}, {"time": 2819, "pitch": 67, "duration": 7, "velocity": 100}, {"time": 2828, "pitch": 65, "duration": 1, "velocity": 100}, {"time": 2831, "pitch": 62, "duration": 5, "velocity": 82}, {"time": 2837, "pitch": 65, "duration": 5, "velocity": 94}, {"time": 2846, "pitch": 67, "duration": 4, "velocity": 100}, {"time": 2852, "pitch": 69, "duration": 1, "velocity": 100}, {"time": 2855, "pitch": 67, "duration": 4, "velocity": 111}, {"time": 2864, "pitch": 65, "duration": 6, "velocity": 108}, {"time": 2870, "pitch": 62, "duration": 6, "velocity": 105}, {"time": 2894, "pitch": 67, "duration": 4, "velocity": 105}, {"time": 2900, "pitch": 65, "duration": 1, "velocity": 105}, {"time": 2903, "pitch": 62, "duration": 4, "velocity": 97}, {"time": 2909, "pitch": 65, "duration": 6, "velocity": 92}, {"time": 2918, "pitch": 64, "duration": 5, "velocity": 100}, {"time": 2924, "pitch": 60, "duration": 1, "velocity": 97}, {"time": 2927, "pitch": 60, "duration": 4, "velocity": 92}, {"time": 2933, "pitch": 62, "duration": 6, "velocity": 84}, {"time": 2942, "pitch": 57, "duration": 13, "velocity": 97}, {"time": 2972, "pitch": 55, "duration": 4, "velocity": 87}, {"time": 2978, "pitch": 57, "duration": 4, "velocity": 108}, {"time": 2984, "pitch": 60, "duration": 3, "velocity": 102}, {"time": 2990, "pitch": 67, "duration": 4, "velocity": 111}, {"time": 2996, "pitch": 65, "duration": 2, "velocity": 100}, {"time": 2999, "pitch": 62, "duration": 5, "velocity": 80}, {"time": 3005, "pitch": 65, "duration": 4, "velocity": 102}, {"time": 3011, "pitch": 67, "duration": 5, "velocity": 105}, {"time": 3017, "pitch": 65, "duration": 2, "velocity": 108}, {"time": 3023, "pitch": 62, "duration": 4, "velocity": 102}, {"time": 3029, "pitch": 65, "duration": 5, "velocity": 105}, {"time": 3038, "pitch": 67, "duration": 3, "velocity": 102}, {"time": 3044, "pitch": 65, "duration": 1, "velocity": 92}, {"time": 3047, "pitch": 67, "duration": 3, "velocity": 102}, {"time": 3053, "pitch": 72, "duration": 4, "velocity": 97}, {"time": 3059, "pitch": 69, "duration": 10, "velocity": 105}, {"time": 3074, "pitch": 67, "duration": 4, "velocity": 84}, {"time": 3080, "pitch": 65, "duration": 4, "velocity": 97}, {"time": 3086, "pitch": 62, "duration": 9, "velocity": 105}, {"time": 3098, "pitch": 69, "duration": 9, "velocity": 105}, {"time": 3110, "pitch": 64, "duration": 15, "velocity": 102}, {"time": 3128, "pitch": 65, "duration": 4, "velocity": 108}, {"time": 3134, "pitch": 67, "duration": 15, "velocity": 84}, {"time": 3149, "pitch": 65, "duration": 1, "velocity": 100}, {"time": 3152, "pitch": 67, "duration": 1, "velocity": 102}, {"time": 3155, "pitch": 69, "duration": 3, "velocity": 102}, {"time": 3164, "pitch": 57, "duration": 4, "velocity": 102}, {"time": 3170, "pitch": 72, "duration": 2, "velocity": 97}, {"time": 3176, "pitch": 69, "duration": 2, "velocity": 100}, {"time": 3182, "pitch": 67, "duration": 5, "velocity": 108}, {"time": 3188, "pitch": 65, "duration": 1, "velocity": 100}, {"time": 3191, "pitch": 67, "duration": 5, "velocity": 100}, {"time": 3203, "pitch": 65, "duration": 1, "velocity": 94}, {"time": 3206, "pitch": 67, "duration": 4, "velocity": 105}, {"time": 3212, "pitch": 65, "duration": 1, "velocity": 97}, {"time": 3215, "pitch": 62, "duration": 4, "velocity": 100}, {"time": 3221, "pitch": 65, "duration": 6, "velocity": 105}, {"time": 3230, "pitch": 67, "duration": 12, "velocity": 108}, {"time": 3245, "pitch": 65, "duration": 1, "velocity": 102}, {"time": 3248, "pitch": 67, "duration": 1, "velocity": 100}, {"time": 3251, "pitch": 69, "duration": 4, "velocity": 100}, {"time": 3260, "pitch": 57, "duration": 3, "velocity": 105}, {"time": 3266, "pitch": 72, "duration": 4, "velocity": 102}, {"time": 3272, "pitch": 69, "duration": 3, "velocity": 102}, {"time": 3278, "pitch": 67, "duration": 4, "velocity": 105}, {"time": 3284, "pitch": 65, "duration": 1, "velocity": 92}, {"time": 3287, "pitch": 67, "duration": 5, "velocity": 102}, {"time": 3302, "pitch": 67, "duration": 4, "velocity": 111}, {"time": 3308, "pitch": 65, "duration": 1, "velocity": 102}, {"time": 3311, "pitch": 72, "duration": 4, "velocity": 108}, {"time": 3317, "pitch": 74, "duration": 7, "velocity": 108}, {"time": 3326, "pitch": 69, "duration": 23, "velocity": 105}, {"time": 3356, "pitch": 57, "duration": 4, "velocity": 105}, {"time": 3362, "pitch": 72, "duration": 3, "velocity": 111}, {"time": 3368, "pitch": 69, "duration": 3, "velocity": 102}, {"time": 3374, "pitch": 67, "duration": 3, "velocity": 105}, {"time": 3380, "pitch": 65, "duration": 1, "velocity": 76}, {"time": 3383, "pitch": 67, "duration": 12, "velocity": 102}, {"time": 3398, "pitch": 67, "duration": 4, "velocity": 105}, {"time": 3404, "pitch": 65, "duration": 2, "velocity": 94}, {"time": 3407, "pitch": 62, "duration": 4, "velocity": 108}, {"time": 3413, "pitch": 65, "duration": 5, "velocity": 102}, {"time": 3422, "pitch": 72, "duration": 3, "velocity": 102}, {"time": 3428, "pitch": 69, "duration": 3, "velocity": 100}, {"time": 3434, "pitch": 67, "duration": 4, "velocity": 105}, {"time": 3440, "pitch": 69, "duration": 1, "velocity": 92}, {"time": 3443, "pitch": 67, "duration": 5, "velocity": 94}, {"time": 3452, "pitch": 65, "duration": 6, "velocity": 108}, {"time": 3458, "pitch": 62, "duration": 3, "velocity": 102}, {"time": 3464, "pitch": 60, "duration": 3, "velocity": 97}, {"time": 3470, "pitch": 62, "duration": 10, "velocity": 94}, {"time": 3482, "pitch": 62, "duration": 4, "velocity": 89}, {"time": 3488, "pitch": 65, "duration": 4, "velocity": 97}, {"time": 3494, "pitch": 67, "duration": 4, "velocity": 97}, {"time": 3500, "pitch": 65, "duration": 4, "velocity": 97}, {"time": 3506, "pitch": 62, "duration": 4, "velocity": 105}, {"time": 3512, "pitch": 60, "duration": 3, "velocity": 84}, {"time": 3515, "pitch": 62, "duration": 24, "velocity": 100}, {"time": 3548, "pitch": 57, "duration": 4, "velocity": 102}, {"time": 3554, "pitch": 72, "duration": 2, "velocity": 97}, {"time": 3560, "pitch": 69, "duration": 2, "velocity": 100}, {"time": 3566, "pitch": 67, "duration": 5, "velocity": 108}, {"time": 3572, "pitch": 65, "duration": 1, "velocity": 100}, {"time": 3575, "pitch": 67, "duration": 5, "velocity": 100}, {"time": 3587, "pitch": 65, "duration": 1, "velocity": 94}, {"time": 3590, "pitch": 67, "duration": 4, "velocity": 105}, {"time": 3596, "pitch": 65, "duration": 1, "velocity": 97}, {"time": 3599, "pitch": 62, "duration": 4, "velocity": 100}, {"time": 3605, "pitch": 65, "duration": 6, "velocity": 105}, {"time": 3614, "pitch": 67, "duration": 12, "velocity": 108}, {"time": 3629, "pitch": 65, "duration": 1, "velocity": 102}, {"time": 3632, "pitch": 67, "duration": 1, "velocity": 100}, {"time": 3635, "pitch": 69, "duration": 4, "velocity": 100}, {"time": 3644, "pitch": 57, "duration": 3, "velocity": 105}, {"time": 3650, "pitch": 72, "duration": 4, "velocity": 102}, {"time": 3656, "pitch": 69, "duration": 3, "velocity": 102}, {"time": 3662, "pitch": 67, "duration": 4, "velocity": 105}, {"time": 3668, "pitch": 65, "duration": 1, "velocity": 92}, {"time": 3671, "pitch": 67, "duration": 5, "velocity": 102}, {"time": 3686, "pitch": 67, "duration": 4, "velocity": 111}, {"time": 3692, "pitch": 65, "duration": 1, "velocity": 102}, {"time": 3695, "pitch": 72, "duration": 4, "velocity": 108}, {"time": 3701, "pitch": 74, "duration": 7, "velocity": 108}, {"time": 3710, "pitch": 69, "duration": 23, "velocity": 105}, {"time": 3740, "pitch": 57, "duration": 4, "velocity": 105}, {"time": 3746, "pitch": 72, "duration": 3, "velocity": 111}, {"time": 3752, "pitch": 69, "duration": 3, "velocity": 102}, {"time": 3758, "pitch": 67, "duration": 3, "velocity": 105}, {"time": 3764, "pitch": 65, "duration": 1, "velocity": 76}, {"time": 3767, "pitch": 67, "duration": 12, "velocity": 102}, {"time": 3782, "pitch": 67, "duration": 4, "velocity": 105}, {"time": 3788, "pitch": 65, "duration": 2, "velocity": 94}, {"time": 3791, "pitch": 62, "duration": 4, "velocity": 108}, {"time": 3806, "pitch": 72, "duration": 3, "velocity": 102}, {"time": 3812, "pitch": 69, "duration": 3, "velocity": 100}, {"time": 3818, "pitch": 67, "duration": 4, "velocity": 105}, {"time": 3824, "pitch": 69, "duration": 1, "velocity": 92}, {"time": 3827, "pitch": 67, "duration": 5, "velocity": 94}, {"time": 3836, "pitch": 65, "duration": 6, "velocity": 108}, {"time": 3842, "pitch": 62, "duration": 3, "velocity": 102}, {"time": 3848, "pitch": 60, "duration": 3, "velocity": 97}, {"time": 3854, "pitch": 62, "duration": 10, "velocity": 94}, {"time": 3866, "pitch": 62, "duration": 4, "velocity": 89}, {"time": 3872, "pitch": 65, "duration": 4, "velocity": 97}, {"time": 3878, "pitch": 67, "duration": 4, "velocity": 97}, {"time": 3884, "pitch": 65, "duration": 4, "velocity": 97}, {"time": 3890, "pitch": 62, "duration": 4, "velocity": 105}, {"time": 3896, "pitch": 60, "duration": 3, "velocity": 84}, {"time": 3899, "pitch": 62, "duration": 24, "velocity": 100}, {"time": 3938, "pitch": 72, "duration": 4, "velocity": 90}, {"time": 3944, "pitch": 69, "duration": 3, "velocity": 95}, {"time": 3950, "pitch": 67, "duration": 4, "velocity": 93}, {"time": 3956, "pitch": 65, "duration": 1, "velocity": 93}, {"time": 3959, "pitch": 67, "duration": 6, "velocity": 93}, {"time": 3974, "pitch": 67, "duration": 4, "velocity": 90}, {"time": 3980, "pitch": 65, "duration": 2, "velocity": 80}, {"time": 3983, "pitch": 62, "duration": 4, "velocity": 93}, {"time": 3989, "pitch": 65, "duration": 5, "velocity": 93}, {"time": 3998, "pitch": 72, "duration": 3, "velocity": 90}, {"time": 4004, "pitch": 69, "duration": 6, "velocity": 87}, {"time": 4010, "pitch": 67, "duration": 6, "velocity": 80}, {"time": 4016, "pitch": 69, "duration": 3, "velocity": 83}, {"time": 4019, "pitch": 67, "duration": 4, "velocity": 83}, {"time": 4028, "pitch": 65, "duration": 5, "velocity": 83}, {"time": 4034, "pitch": 62, "duration": 4, "velocity": 87}, {"time": 4040, "pitch": 60, "duration": 4, "velocity": 87}, {"time": 4046, "pitch": 62, "duration": 8, "velocity": 85}, {"time": 4058, "pitch": 62, "duration": 3, "velocity": 83}, {"time": 4064, "pitch": 65, "duration": 3, "velocity": 90}, {"time": 4070, "pitch": 67, "duration": 4, "velocity": 87}, {"time": 4076, "pitch": 65, "duration": 3, "velocity": 87}, {"time": 4082, "pitch": 62, "duration": 3, "velocity": 93}, {"time": 4088, "pitch": 60, "duration": 2, "velocity": 80}, {"time": 4091, "pitch": 62, "duration": 29, "velocity": 87}]}, {"program": 0, "is_drum": false, "name": "PIANO", "notes": [{"time": 14, "pitch": 46, "duration": 19, "velocity": 43}, {"time": 20, "pitch": 53, "duration": 16, "velocity": 34}, {"time": 26, "pitch": 58, "duration": 8, "velocity": 42}, {"time": 38, "pitch": 48, "duration": 20, "velocity": 67}, {"time": 44, "pitch": 55, "duration": 19, "velocity": 69}, {"time": 50, "pitch": 60, "duration": 6, "velocity": 82}, {"time": 56, "pitch": 64, "duration": 18, "velocity": 84}, {"time": 62, "pitch": 50, "duration": 41, "velocity": 92}, {"time": 68, "pitch": 57, "duration": 8, "velocity": 51}, {"time": 74, "pitch": 62, "duration": 34, "velocity": 73}, {"time": 80, "pitch": 57, "duration": 25, "velocity": 57}, {"time": 86, "pitch": 69, "duration": 21, "velocity": 76}, {"time": 110, "pitch": 46, "duration": 18, "velocity": 56}, {"time": 113, "pitch": 53, "duration": 11, "velocity": 59}, {"time": 116, "pitch": 58, "duration": 4, "velocity": 59}, {"time": 119, "pitch": 65, "duration": 9, "velocity": 80}, {"time": 125, "pitch": 53, "duration": 6, "velocity": 71}, {"time": 128, "pitch": 58, "duration": 3, "velocity": 63}, {"time": 131, "pitch": 65, "duration": 5, "velocity": 93}, {"time": 134, "pitch": 48, "duration": 18, "velocity": 69}, {"time": 137, "pitch": 55, "duration": 19, "velocity": 68}, {"time": 140, "pitch": 60, "duration": 3, "velocity": 69}, {"time": 143, "pitch": 64, "duration": 17, "velocity": 80}, {"time": 158, "pitch": 50, "duration": 21, "velocity": 80}, {"time": 161, "pitch": 57, "duration": 9, "velocity": 68}, {"time": 164, "pitch": 62, "duration": 4, "velocity": 68}, {"time": 167, "pitch": 69, "duration": 9, "velocity": 85}, {"time": 173, "pitch": 57, "duration": 7, "velocity": 66}, {"time": 176, "pitch": 62, "duration": 3, "velocity": 67}, {"time": 179, "pitch": 65, "duration": 8, "velocity": 69}, {"time": 182, "pitch": 50, "duration": 17, "velocity": 64}, {"time": 185, "pitch": 57, "duration": 14, "velocity": 68}, {"time": 188, "pitch": 62, "duration": 2, "velocity": 59}, {"time": 191, "pitch": 64, "duration": 4, "velocity": 71}, {"time": 197, "pitch": 65, "duration": 5, "velocity": 80}, {"time": 206, "pitch": 46, "duration": 20, "velocity": 68}, {"time": 209, "pitch": 53, "duration": 12, "velocity": 69}, {"time": 212, "pitch": 58, "duration": 6, "velocity": 60}, {"time": 215, "pitch": 65, "duration": 13, "velocity": 87}, {"time": 224, "pitch": 53, "duration": 3, "velocity": 64}, {"time": 227, "pitch": 58, "duration": 3, "velocity": 50}, {"time": 230, "pitch": 48, "duration": 20, "velocity": 80}, {"time": 233, "pitch": 55, "duration": 12, "velocity": 67}, {"time": 236, "pitch": 60, "duration": 2, "velocity": 69}, {"time": 239, "pitch": 64, "duration": 13, "velocity": 80}, {"time": 248, "pitch": 55, "duration": 4, "velocity": 65}, {"time": 251, "pitch": 60, "duration": 3, "velocity": 67}, {"time": 254, "pitch": 50, "duration": 22, "velocity": 72}, {"time": 257, "pitch": 57, "duration": 13, "velocity": 70}, {"time": 260, "pitch": 62, "duration": 3, "velocity": 69}, {"time": 263, "pitch": 65, "duration": 14, "velocity": 68}, {"time": 269, "pitch": 62, "duration": 7, "velocity": 65}, {"time": 275, "pitch": 69, "duration": 11, "velocity": 87}, {"time": 278, "pitch": 50, "duration": 23, "velocity": 80}, {"time": 281, "pitch": 57, "duration": 9, "velocity": 71}, {"time": 284, "pitch": 62, "duration": 4, "velocity": 69}, {"time": 287, "pitch": 65, "duration": 12, "velocity": 70}, {"time": 293, "pitch": 57, "duration": 8, "velocity": 71}, {"time": 296, "pitch": 62, "duration": 3, "velocity": 67}, {"time": 299, "pitch": 69, "duration": 2, "velocity": 58}, {"time": 302, "pitch": 46, "duration": 18, "velocity": 56}, {"time": 305, "pitch": 53, "duration": 11, "velocity": 59}, {"time": 308, "pitch": 58, "duration": 4, "velocity": 59}, {"time": 311, "pitch": 65, "duration": 9, "velocity": 80}, {"time": 317, "pitch": 53, "duration": 6, "velocity": 71}, {"time": 320, "pitch": 58, "duration": 3, "velocity": 63}, {"time": 323, "pitch": 65, "duration": 5, "velocity": 93}, {"time": 326, "pitch": 48, "duration": 18, "velocity": 69}, {"time": 329, "pitch": 55, "duration": 19, "velocity": 68}, {"time": 332, "pitch": 60, "duration": 3, "velocity": 69}, {"time": 335, "pitch": 64, "duration": 17, "velocity": 80}, {"time": 350, "pitch": 50, "duration": 21, "velocity": 80}, {"time": 353, "pitch": 57, "duration": 9, "velocity": 68}, {"time": 356, "pitch": 62, "duration": 4, "velocity": 68}, {"time": 359, "pitch": 69, "duration": 9, "velocity": 85}, {"time": 365, "pitch": 57, "duration": 7, "velocity": 66}, {"time": 368, "pitch": 62, "duration": 3, "velocity": 67}, {"time": 371, "pitch": 65, "duration": 8, "velocity": 69}, {"time": 374, "pitch": 50, "duration": 17, "velocity": 64}, {"time": 377, "pitch": 57, "duration": 14, "velocity": 68}, {"time": 380, "pitch": 62, "duration": 2, "velocity": 59}, {"time": 383, "pitch": 64, "duration": 4, "velocity": 71}, {"time": 389, "pitch": 65, "duration": 5, "velocity": 80}, {"time": 398, "pitch": 46, "duration": 20, "velocity": 68}, {"time": 401, "pitch": 53, "duration": 12, "velocity": 69}, {"time": 404, "pitch": 58, "duration": 6, "velocity": 60}, {"time": 407, "pitch": 65, "duration": 13, "velocity": 87}, {"time": 416, "pitch": 53, "duration": 3, "velocity": 64}, {"time": 419, "pitch": 58, "duration": 3, "velocity": 50}, {"time": 422, "pitch": 48, "duration": 20, "velocity": 80}, {"time": 425, "pitch": 55, "duration": 12, "velocity": 67}, {"time": 428, "pitch": 60, "duration": 2, "velocity": 69}, {"time": 431, "pitch": 64, "duration": 13, "velocity": 80}, {"time": 440, "pitch": 55, "duration": 4, "velocity": 65}, {"time": 443, "pitch": 60, "duration": 3, "velocity": 67}, {"time": 446, "pitch": 50, "duration": 22, "velocity": 72}, {"time": 449, "pitch": 57, "duration": 13, "velocity": 70}, {"time": 452, "pitch": 62, "duration": 3, "velocity": 69}, {"time": 455, "pitch": 65, "duration": 14, "velocity": 68}, {"time": 461, "pitch": 62, "duration": 7, "velocity": 65}, {"time": 467, "pitch": 69, "duration": 11, "velocity": 87}, {"time": 470, "pitch": 50, "duration": 23, "velocity": 80}, {"time": 473, "pitch": 57, "duration": 9, "velocity": 71}, {"time": 476, "pitch": 62, "duration": 4, "velocity": 69}, {"time": 479, "pitch": 65, "duration": 12, "velocity": 70}, {"time": 485, "pitch": 57, "duration": 8, "velocity": 71}, {"time": 488, "pitch": 62, "duration": 3, "velocity": 67}, {"time": 491, "pitch": 69, "duration": 2, "velocity": 58}, {"time": 494, "pitch": 46, "duration": 19, "velocity": 87}, {"time": 494, "pitch": 58, "duration": 2, "velocity": 80}, {"time": 494, "pitch": 65, "duration": 5, "velocity": 90}, {"time": 497, "pitch": 53, "duration": 9, "velocity": 50}, {"time": 500, "pitch": 58, "duration": 1, "velocity": 105}, {"time": 503, "pitch": 58, "duration": 9, "velocity": 93}, {"time": 503, "pitch": 65, "duration": 13, "velocity": 103}, {"time": 512, "pitch": 53, "duration": 3, "velocity": 102}, {"time": 515, "pitch": 58, "duration": 1, "velocity": 102}, {"time": 518, "pitch": 48, "duration": 20, "velocity": 93}, {"time": 518, "pitch": 60, "duration": 5, "velocity": 87}, {"time": 518, "pitch": 64, "duration": 5, "velocity": 102}, {"time": 524, "pitch": 55, "duration": 4, "velocity": 69}, {"time": 527, "pitch": 60, "duration": 4, "velocity": 110}, {"time": 530, "pitch": 55, "duration": 3, "velocity": 74}, {"time": 533, "pitch": 60, "duration": 3, "velocity": 105}, {"time": 533, "pitch": 64, "duration": 3, "velocity": 112}, {"time": 536, "pitch": 55, "duration": 3, "velocity": 69}, {"time": 539, "pitch": 60, "duration": 1, "velocity": 95}, {"time": 542, "pitch": 50, "duration": 22, "velocity": 87}, {"time": 542, "pitch": 62, "duration": 5, "velocity": 93}, {"time": 542, "pitch": 65, "duration": 6, "velocity": 90}, {"time": 548, "pitch": 57, "duration": 10, "velocity": 74}, {"time": 551, "pitch": 62, "duration": 4, "velocity": 105}, {"time": 557, "pitch": 62, "duration": 2, "velocity": 102}, {"time": 557, "pitch": 69, "duration": 2, "velocity": 103}, {"time": 560, "pitch": 57, "duration": 4, "velocity": 68}, {"time": 563, "pitch": 62, "duration": 1, "velocity": 90}, {"time": 566, "pitch": 50, "duration": 17, "velocity": 87}, {"time": 566, "pitch": 62, "duration": 3, "velocity": 102}, {"time": 566, "pitch": 65, "duration": 3, "velocity": 93}, {"time": 569, "pitch": 57, "duration": 7, "velocity": 87}, {"time": 572, "pitch": 62, "duration": 1, "velocity": 105}, {"time": 575, "pitch": 62, "duration": 3, "velocity": 105}, {"time": 575, "pitch": 65, "duration": 4, "velocity": 103}, {"time": 578, "pitch": 57, "duration": 5, "velocity": 83}, {"time": 581, "pitch": 62, "duration": 2, "velocity": 102}, {"time": 584, "pitch": 65, "duration": 2, "velocity": 95}, {"time": 587, "pitch": 62, "duration": 3, "velocity": 95}, {"time": 590, "pitch": 46, "duration": 19, "velocity": 93}, {"time": 593, "pitch": 53, "duration": 11, "velocity": 74}, {"time": 596, "pitch": 58, "duration": 1, "velocity": 93}, {"time": 599, "pitch": 58, "duration": 8, "velocity": 102}, {"time": 599, "pitch": 65, "duration": 13, "velocity": 93}, {"time": 608, "pitch": 53, "duration": 4, "velocity": 93}, {"time": 611, "pitch": 58, "duration": 1, "velocity": 103}, {"time": 614, "pitch": 48, "duration": 21, "velocity": 93}, {"time": 614, "pitch": 60, "duration": 4, "velocity": 80}, {"time": 614, "pitch": 64, "duration": 5, "velocity": 102}, {"time": 617, "pitch": 55, "duration": 7, "velocity": 80}, {"time": 620, "pitch": 60, "duration": 1, "velocity": 93}, {"time": 623, "pitch": 60, "duration": 9, "velocity": 103}, {"time": 623, "pitch": 64, "duration": 9, "velocity": 102}, {"time": 632, "pitch": 55, "duration": 4, "velocity": 80}, {"time": 635, "pitch": 60, "duration": 2, "velocity": 95}, {"time": 638, "pitch": 50, "duration": 21, "velocity": 93}, {"time": 641, "pitch": 57, "duration": 12, "velocity": 70}, {"time": 644, "pitch": 62, "duration": 4, "velocity": 87}, {"time": 647, "pitch": 65, "duration": 13, "velocity": 93}, {"time": 656, "pitch": 57, "duration": 3, "velocity": 80}, {"time": 659, "pitch": 62, "duration": 5, "velocity": 93}, {"time": 662, "pitch": 50, "duration": 25, "velocity": 95}, {"time": 665, "pitch": 57, "duration": 7, "velocity": 83}, {"time": 668, "pitch": 62, "duration": 1, "velocity": 102}, {"time": 671, "pitch": 62, "duration": 3, "velocity": 102}, {"time": 671, "pitch": 65, "duration": 3, "velocity": 95}, {"time": 671, "pitch": 69, "duration": 3, "velocity": 103}, {"time": 674, "pitch": 57, "duration": 12, "velocity": 93}, {"time": 677, "pitch": 62, "duration": 2, "velocity": 105}, {"time": 680, "pitch": 62, "duration": 5, "velocity": 93}, {"time": 680, "pitch": 65, "duration": 5, "velocity": 102}, {"time": 680, "pitch": 69, "duration": 5, "velocity": 103}, {"time": 686, "pitch": 46, "duration": 19, "velocity": 87}, {"time": 686, "pitch": 58, "duration": 2, "velocity": 80}, {"time": 686, "pitch": 65, "duration": 5, "velocity": 90}, {"time": 689, "pitch": 53, "duration": 9, "velocity": 50}, {"time": 692, "pitch": 58, "duration": 1, "velocity": 105}, {"time": 695, "pitch": 58, "duration": 9, "velocity": 93}, {"time": 695, "pitch": 65, "duration": 13, "velocity": 103}, {"time": 704, "pitch": 53, "duration": 3, "velocity": 102}, {"time": 707, "pitch": 58, "duration": 1, "velocity": 102}, {"time": 710, "pitch": 48, "duration": 20, "velocity": 93}, {"time": 710, "pitch": 60, "duration": 5, "velocity": 87}, {"time": 710, "pitch": 64, "duration": 5, "velocity": 102}, {"time": 716, "pitch": 55, "duration": 4, "velocity": 69}, {"time": 719, "pitch": 60, "duration": 4, "velocity": 110}, {"time": 722, "pitch": 55, "duration": 3, "velocity": 74}, {"time": 725, "pitch": 60, "duration": 3, "velocity": 105}, {"time": 725, "pitch": 64, "duration": 3, "velocity": 112}, {"time": 728, "pitch": 55, "duration": 3, "velocity": 69}, {"time": 731, "pitch": 60, "duration": 1, "velocity": 95}, {"time": 734, "pitch": 50, "duration": 22, "velocity": 87}, {"time": 734, "pitch": 62, "duration": 5, "velocity": 93}, {"time": 734, "pitch": 65, "duration": 6, "velocity": 90}, {"time": 740, "pitch": 57, "duration": 10, "velocity": 74}, {"time": 743, "pitch": 62, "duration": 4, "velocity": 105}, {"time": 749, "pitch": 62, "duration": 2, "velocity": 102}, {"time": 749, "pitch": 69, "duration": 2, "velocity": 103}, {"time": 752, "pitch": 57, "duration": 4, "velocity": 68}, {"time": 755, "pitch": 62, "duration": 1, "velocity": 90}, {"time": 758, "pitch": 50, "duration": 17, "velocity": 87}, {"time": 758, "pitch": 62, "duration": 3, "velocity": 102}, {"time": 758, "pitch": 65, "duration": 3, "velocity": 93}, {"time": 761, "pitch": 57, "duration": 7, "velocity": 87}, {"time": 764, "pitch": 62, "duration": 1, "velocity": 105}, {"time": 767, "pitch": 62, "duration": 3, "velocity": 105}, {"time": 767, "pitch": 65, "duration": 4, "velocity": 103}, {"time": 770, "pitch": 57, "duration": 5, "velocity": 83}, {"time": 773, "pitch": 62, "duration": 2, "velocity": 102}, {"time": 776, "pitch": 65, "duration": 2, "velocity": 95}, {"time": 779, "pitch": 62, "duration": 3, "velocity": 95}, {"time": 782, "pitch": 46, "duration": 19, "velocity": 93}, {"time": 785, "pitch": 53, "duration": 11, "velocity": 74}, {"time": 788, "pitch": 58, "duration": 1, "velocity": 93}, {"time": 791, "pitch": 58, "duration": 8, "velocity": 102}, {"time": 791, "pitch": 65, "duration": 13, "velocity": 93}, {"time": 800, "pitch": 53, "duration": 4, "velocity": 93}, {"time": 803, "pitch": 58, "duration": 1, "velocity": 103}, {"time": 806, "pitch": 48, "duration": 21, "velocity": 93}, {"time": 806, "pitch": 60, "duration": 4, "velocity": 80}, {"time": 806, "pitch": 64, "duration": 5, "velocity": 102}, {"time": 809, "pitch": 55, "duration": 7, "velocity": 80}, {"time": 812, "pitch": 60, "duration": 1, "velocity": 93}, {"time": 815, "pitch": 60, "duration": 9, "velocity": 103}, {"time": 815, "pitch": 64, "duration": 9, "velocity": 102}, {"time": 824, "pitch": 55, "duration": 4, "velocity": 80}, {"time": 827, "pitch": 60, "duration": 2, "velocity": 95}, {"time": 830, "pitch": 50, "duration": 21, "velocity": 93}, {"time": 833, "pitch": 57, "duration": 12, "velocity": 70}, {"time": 836, "pitch": 62, "duration": 4, "velocity": 87}, {"time": 839, "pitch": 65, "duration": 13, "velocity": 93}, {"time": 848, "pitch": 57, "duration": 3, "velocity": 80}, {"time": 851, "pitch": 62, "duration": 5, "velocity": 93}, {"time": 854, "pitch": 50, "duration": 25, "velocity": 95}, {"time": 857, "pitch": 57, "duration": 7, "velocity": 83}, {"time": 860, "pitch": 62, "duration": 1, "velocity": 102}, {"time": 863, "pitch": 62, "duration": 3, "velocity": 102}, {"time": 863, "pitch": 65, "duration": 3, "velocity": 95}, {"time": 863, "pitch": 69, "duration": 3, "velocity": 103}, {"time": 866, "pitch": 57, "duration": 12, "velocity": 93}, {"time": 869, "pitch": 62, "duration": 2, "velocity": 105}, {"time": 872, "pitch": 62, "duration": 5, "velocity": 93}, {"time": 872, "pitch": 65, "duration": 5, "velocity": 102}, {"time": 872, "pitch": 69, "duration": 5, "velocity": 103}, {"time": 878, "pitch": 46, "duration": 18, "velocity": 56}, {"time": 881, "pitch": 53, "duration": 11, "velocity": 59}, {"time": 884, "pitch": 58, "duration": 4, "velocity": 59}, {"time": 887, "pitch": 65, "duration": 9, "velocity": 80}, {"time": 893, "pitch": 53, "duration": 6, "velocity": 71}, {"time": 896, "pitch": 58, "duration": 3, "velocity": 63}, {"time": 899, "pitch": 65, "duration": 5, "velocity": 93}, {"time": 902, "pitch": 48, "duration": 18, "velocity": 69}, {"time": 905, "pitch": 55, "duration": 19, "velocity": 68}, {"time": 908, "pitch": 60, "duration": 3, "velocity": 69}, {"time": 911, "pitch": 64, "duration": 17, "velocity": 80}, {"time": 926, "pitch": 50, "duration": 21, "velocity": 80}, {"time": 929, "pitch": 57, "duration": 9, "velocity": 68}, {"time": 932, "pitch": 62, "duration": 4, "velocity": 68}, {"time": 935, "pitch": 69, "duration": 9, "velocity": 85}, {"time": 941, "pitch": 57, "duration": 7, "velocity": 66}, {"time": 944, "pitch": 62, "duration": 3, "velocity": 67}, {"time": 947, "pitch": 65, "duration": 8, "velocity": 69}, {"time": 950, "pitch": 50, "duration": 17, "velocity": 64}, {"time": 953, "pitch": 57, "duration": 14, "velocity": 68}, {"time": 956, "pitch": 62, "duration": 2, "velocity": 59}, {"time": 959, "pitch": 64, "duration": 4, "velocity": 71}, {"time": 965, "pitch": 65, "duration": 5, "velocity": 80}, {"time": 974, "pitch": 46, "duration": 20, "velocity": 68}, {"time": 977, "pitch": 53, "duration": 12, "velocity": 69}, {"time": 980, "pitch": 58, "duration": 6, "velocity": 60}, {"time": 983, "pitch": 65, "duration": 13, "velocity": 87}, {"time": 992, "pitch": 53, "duration": 3, "velocity": 64}, {"time": 995, "pitch": 58, "duration": 3, "velocity": 50}, {"time": 998, "pitch": 48, "duration": 20, "velocity": 80}, {"time": 1001, "pitch": 55, "duration": 12, "velocity": 67}, {"time": 1004, "pitch": 60, "duration": 2, "velocity": 69}, {"time": 1007, "pitch": 64, "duration": 13, "velocity": 80}, {"time": 1016, "pitch": 55, "duration": 4, "velocity": 65}, {"time": 1019, "pitch": 60, "duration": 3, "velocity": 67}, {"time": 1022, "pitch": 50, "duration": 22, "velocity": 72}, {"time": 1025, "pitch": 57, "duration": 13, "velocity": 70}, {"time": 1028, "pitch": 62, "duration": 3, "velocity": 69}, {"time": 1031, "pitch": 65, "duration": 14, "velocity": 68}, {"time": 1037, "pitch": 62, "duration": 7, "velocity": 65}, {"time": 1043, "pitch": 69, "duration": 11, "velocity": 87}, {"time": 1046, "pitch": 50, "duration": 23, "velocity": 80}, {"time": 1049, "pitch": 57, "duration": 9, "velocity": 71}, {"time": 1052, "pitch": 62, "duration": 4, "velocity": 69}, {"time": 1055, "pitch": 65, "duration": 12, "velocity": 70}, {"time": 1061, "pitch": 57, "duration": 8, "velocity": 71}, {"time": 1064, "pitch": 62, "duration": 3, "velocity": 67}, {"time": 1067, "pitch": 69, "duration": 2, "velocity": 58}, {"time": 1070, "pitch": 46, "duration": 18, "velocity": 56}, {"time": 1073, "pitch": 53, "duration": 11, "velocity": 59}, {"time": 1076, "pitch": 58, "duration": 4, "velocity": 59}, {"time": 1079, "pitch": 65, "duration": 9, "velocity": 80}, {"time": 1085, "pitch": 53, "duration": 6, "velocity": 71}, {"time": 1088, "pitch": 58, "duration": 3, "velocity": 63}, {"time": 1091, "pitch": 65, "duration": 5, "velocity": 93}, {"time": 1094, "pitch": 48, "duration": 18, "velocity": 69}, {"time": 1097, "pitch": 55, "duration": 19, "velocity": 68}, {"time": 1100, "pitch": 60, "duration": 3, "velocity": 69}, {"time": 1103, "pitch": 64, "duration": 17, "velocity": 80}, {"time": 1118, "pitch": 50, "duration": 21, "velocity": 80}, {"time": 1121, "pitch": 57, "duration": 9, "velocity": 68}, {"time": 1124, "pitch": 62, "duration": 4, "velocity": 68}, {"time": 1127, "pitch": 69, "duration": 9, "velocity": 85}, {"time": 1133, "pitch": 57, "duration": 7, "velocity": 66}, {"time": 1136, "pitch": 62, "duration": 3, "velocity": 67}, {"time": 1139, "pitch": 65, "duration": 8, "velocity": 69}, {"time": 1142, "pitch": 50, "duration": 17, "velocity": 64}, {"time": 1145, "pitch": 57, "duration": 14, "velocity": 68}, {"time": 1148, "pitch": 62, "duration": 2, "velocity": 59}, {"time": 1151, "pitch": 64, "duration": 4, "velocity": 71}, {"time": 1157, "pitch": 65, "duration": 5, "velocity": 80}, {"time": 1166, "pitch": 46, "duration": 20, "velocity": 68}, {"time": 1169, "pitch": 53, "duration": 12, "velocity": 69}, {"time": 1172, "pitch": 58, "duration": 6, "velocity": 60}, {"time": 1175, "pitch": 65, "duration": 13, "velocity": 87}, {"time": 1184, "pitch": 53, "duration": 3, "velocity": 64}, {"time": 1187, "pitch": 58, "duration": 3, "velocity": 50}, {"time": 1190, "pitch": 48, "duration": 20, "velocity": 80}, {"time": 1193, "pitch": 55, "duration": 12, "velocity": 67}, {"time": 1196, "pitch": 60, "duration": 2, "velocity": 69}, {"time": 1199, "pitch": 64, "duration": 13, "velocity": 80}, {"time": 1208, "pitch": 55, "duration": 4, "velocity": 65}, {"time": 1211, "pitch": 60, "duration": 3, "velocity": 67}, {"time": 1214, "pitch": 50, "duration": 22, "velocity": 72}, {"time": 1217, "pitch": 57, "duration": 13, "velocity": 70}, {"time": 1220, "pitch": 62, "duration": 3, "velocity": 69}, {"time": 1223, "pitch": 65, "duration": 14, "velocity": 68}, {"time": 1229, "pitch": 62, "duration": 7, "velocity": 65}, {"time": 1235, "pitch": 69, "duration": 11, "velocity": 87}, {"time": 1238, "pitch": 50, "duration": 23, "velocity": 80}, {"time": 1241, "pitch": 57, "duration": 9, "velocity": 71}, {"time": 1244, "pitch": 62, "duration": 4, "velocity": 69}, {"time": 1247, "pitch": 65, "duration": 12, "velocity": 70}, {"time": 1253, "pitch": 57, "duration": 8, "velocity": 71}, {"time": 1256, "pitch": 62, "duration": 3, "velocity": 67}, {"time": 1259, "pitch": 69, "duration": 2, "velocity": 58}, {"time": 1262, "pitch": 46, "duration": 22, "velocity": 80}, {"time": 1262, "pitch": 58, "duration": 6, "velocity": 68}, {"time": 1262, "pitch": 65, "duration": 9, "velocity": 87}, {"time": 1268, "pitch": 53, "duration": 16, "velocity": 80}, {"time": 1271, "pitch": 58, "duration": 4, "velocity": 93}, {"time": 1277, "pitch": 65, "duration": 11, "velocity": 102}, {"time": 1283, "pitch": 58, "duration": 3, "velocity": 102}, {"time": 1286, "pitch": 48, "duration": 23, "velocity": 93}, {"time": 1289, "pitch": 55, "duration": 13, "velocity": 68}, {"time": 1292, "pitch": 60, "duration": 1, "velocity": 83}, {"time": 1295, "pitch": 60, "duration": 4, "velocity": 93}, {"time": 1295, "pitch": 64, "duration": 4, "velocity": 95}, {"time": 1301, "pitch": 60, "duration": 4, "velocity": 102}, {"time": 1304, "pitch": 55, "duration": 5, "velocity": 80}, {"time": 1307, "pitch": 60, "duration": 2, "velocity": 93}, {"time": 1310, "pitch": 45, "duration": 18, "velocity": 87}, {"time": 1310, "pitch": 57, "duration": 6, "velocity": 83}, {"time": 1310, "pitch": 64, "duration": 11, "velocity": 87}, {"time": 1316, "pitch": 52, "duration": 12, "velocity": 69}, {"time": 1319, "pitch": 57, "duration": 4, "velocity": 83}, {"time": 1325, "pitch": 60, "duration": 2, "velocity": 103}, {"time": 1328, "pitch": 57, "duration": 4, "velocity": 95}, {"time": 1331, "pitch": 60, "duration": 3, "velocity": 87}, {"time": 1334, "pitch": 50, "duration": 20, "velocity": 80}, {"time": 1334, "pitch": 62, "duration": 6, "velocity": 95}, {"time": 1340, "pitch": 57, "duration": 5, "velocity": 87}, {"time": 1343, "pitch": 62, "duration": 4, "velocity": 83}, {"time": 1346, "pitch": 57, "duration": 3, "velocity": 61}, {"time": 1349, "pitch": 62, "duration": 3, "velocity": 93}, {"time": 1349, "pitch": 65, "duration": 4, "velocity": 90}, {"time": 1352, "pitch": 57, "duration": 3, "velocity": 68}, {"time": 1355, "pitch": 62, "duration": 3, "velocity": 93}, {"time": 1358, "pitch": 46, "duration": 19, "velocity": 65}, {"time": 1361, "pitch": 53, "duration": 12, "velocity": 34}, {"time": 1367, "pitch": 58, "duration": 5, "velocity": 93}, {"time": 1373, "pitch": 62, "duration": 6, "velocity": 93}, {"time": 1376, "pitch": 53, "duration": 3, "velocity": 74}, {"time": 1379, "pitch": 58, "duration": 2, "velocity": 87}, {"time": 1382, "pitch": 48, "duration": 23, "velocity": 93}, {"time": 1385, "pitch": 55, "duration": 12, "velocity": 71}, {"time": 1388, "pitch": 60, "duration": 4, "velocity": 87}, {"time": 1391, "pitch": 64, "duration": 3, "velocity": 103}, {"time": 1397, "pitch": 60, "duration": 3, "velocity": 85}, {"time": 1397, "pitch": 67, "duration": 8, "velocity": 83}, {"time": 1400, "pitch": 55, "duration": 5, "velocity": 71}, {"time": 1403, "pitch": 60, "duration": 2, "velocity": 102}, {"time": 1406, "pitch": 40, "duration": 19, "velocity": 70}, {"time": 1406, "pitch": 52, "duration": 20, "velocity": 85}, {"time": 1406, "pitch": 64, "duration": 3, "velocity": 95}, {"time": 1406, "pitch": 67, "duration": 6, "velocity": 93}, {"time": 1412, "pitch": 64, "duration": 2, "velocity": 87}, {"time": 1415, "pitch": 67, "duration": 4, "velocity": 105}, {"time": 1421, "pitch": 69, "duration": 3, "velocity": 93}, {"time": 1424, "pitch": 64, "duration": 3, "velocity": 87}, {"time": 1427, "pitch": 67, "duration": 3, "velocity": 83}, {"time": 1430, "pitch": 45, "duration": 25, "velocity": 93}, {"time": 1430, "pitch": 69, "duration": 8, "velocity": 87}, {"time": 1433, "pitch": 52, "duration": 10, "velocity": 74}, {"time": 1436, "pitch": 57, "duration": 4, "velocity": 102}, {"time": 1439, "pitch": 64, "duration": 9, "velocity": 102}, {"time": 1439, "pitch": 69, "duration": 1, "velocity": 36}, {"time": 1445, "pitch": 52, "duration": 9, "velocity": 93}, {"time": 1448, "pitch": 57, "duration": 4, "velocity": 95}, {"time": 1451, "pitch": 64, "duration": 2, "velocity": 93}, {"time": 1454, "pitch": 46, "duration": 20, "velocity": 74}, {"time": 1454, "pitch": 58, "duration": 6, "velocity": 72}, {"time": 1454, "pitch": 62, "duration": 10, "velocity": 93}, {"time": 1460, "pitch": 53, "duration": 15, "velocity": 69}, {"time": 1463, "pitch": 58, "duration": 6, "velocity": 103}, {"time": 1469, "pitch": 65, "duration": 7, "velocity": 85}, {"time": 1475, "pitch": 58, "duration": 2, "velocity": 87}, {"time": 1478, "pitch": 48, "duration": 21, "velocity": 87}, {"time": 1481, "pitch": 55, "duration": 17, "velocity": 63}, {"time": 1484, "pitch": 60, "duration": 4, "velocity": 74}, {"time": 1487, "pitch": 64, "duration": 5, "velocity": 105}, {"time": 1493, "pitch": 67, "duration": 7, "velocity": 95}, {"time": 1496, "pitch": 60, "duration": 5, "velocity": 80}, {"time": 1502, "pitch": 45, "duration": 21, "velocity": 93}, {"time": 1502, "pitch": 57, "duration": 6, "velocity": 93}, {"time": 1502, "pitch": 64, "duration": 12, "velocity": 80}, {"time": 1508, "pitch": 52, "duration": 16, "velocity": 74}, {"time": 1511, "pitch": 57, "duration": 6, "velocity": 102}, {"time": 1517, "pitch": 60, "duration": 3, "velocity": 95}, {"time": 1520, "pitch": 57, "duration": 4, "velocity": 93}, {"time": 1523, "pitch": 60, "duration": 6, "velocity": 83}, {"time": 1526, "pitch": 43, "duration": 22, "velocity": 93}, {"time": 1529, "pitch": 50, "duration": 17, "velocity": 69}, {"time": 1532, "pitch": 55, "duration": 4, "velocity": 102}, {"time": 1535, "pitch": 59, "duration": 2, "velocity": 103}, {"time": 1541, "pitch": 55, "duration": 2, "velocity": 87}, {"time": 1541, "pitch": 62, "duration": 7, "velocity": 90}, {"time": 1544, "pitch": 55, "duration": 5, "velocity": 69}, {"time": 1550, "pitch": 43, "duration": 22, "velocity": 95}, {"time": 1550, "pitch": 55, "duration": 5, "velocity": 85}, {"time": 1550, "pitch": 58, "duration": 7, "velocity": 72}, {"time": 1556, "pitch": 50, "duration": 16, "velocity": 71}, {"time": 1559, "pitch": 55, "duration": 4, "velocity": 105}, {"time": 1565, "pitch": 55, "duration": 2, "velocity": 90}, {"time": 1565, "pitch": 62, "duration": 7, "velocity": 87}, {"time": 1574, "pitch": 48, "duration": 23, "velocity": 87}, {"time": 1574, "pitch": 60, "duration": 6, "velocity": 87}, {"time": 1574, "pitch": 64, "duration": 9, "velocity": 93}, {"time": 1580, "pitch": 55, "duration": 10, "velocity": 93}, {"time": 1583, "pitch": 60, "duration": 3, "velocity": 105}, {"time": 1589, "pitch": 60, "duration": 3, "velocity": 93}, {"time": 1589, "pitch": 67, "duration": 7, "velocity": 87}, {"time": 1592, "pitch": 55, "duration": 5, "velocity": 87}, {"time": 1595, "pitch": 60, "duration": 2, "velocity": 102}, {"time": 1598, "pitch": 39, "duration": 11, "velocity": 102}, {"time": 1598, "pitch": 63, "duration": 6, "velocity": 83}, {"time": 1598, "pitch": 70, "duration": 9, "velocity": 74}, {"time": 1604, "pitch": 46, "duration": 6, "velocity": 68}, {"time": 1607, "pitch": 63, "duration": 6, "velocity": 105}, {"time": 1616, "pitch": 63, "duration": 6, "velocity": 95}, {"time": 1622, "pitch": 45, "duration": 23, "velocity": 85}, {"time": 1625, "pitch": 52, "duration": 12, "velocity": 68}, {"time": 1628, "pitch": 57, "duration": 4, "velocity": 93}, {"time": 1631, "pitch": 61, "duration": 3, "velocity": 105}, {"time": 1637, "pitch": 57, "duration": 3, "velocity": 102}, {"time": 1637, "pitch": 64, "duration": 3, "velocity": 103}, {"time": 1640, "pitch": 52, "duration": 5, "velocity": 87}, {"time": 1643, "pitch": 57, "duration": 1, "velocity": 105}, {"time": 1646, "pitch": 46, "duration": 16, "velocity": 71}, {"time": 1646, "pitch": 58, "duration": 6, "velocity": 71}, {"time": 1646, "pitch": 62, "duration": 9, "velocity": 80}, {"time": 1652, "pitch": 53, "duration": 11, "velocity": 74}, {"time": 1655, "pitch": 58, "duration": 6, "velocity": 103}, {"time": 1661, "pitch": 65, "duration": 4, "velocity": 93}, {"time": 1664, "pitch": 58, "duration": 3, "velocity": 93}, {"time": 1667, "pitch": 65, "duration": 4, "velocity": 93}, {"time": 1670, "pitch": 48, "duration": 20, "velocity": 87}, {"time": 1673, "pitch": 55, "duration": 12, "velocity": 80}, {"time": 1676, "pitch": 60, "duration": 4, "velocity": 80}, {"time": 1685, "pitch": 60, "duration": 3, "velocity": 83}, {"time": 1688, "pitch": 55, "duration": 2, "velocity": 68}, {"time": 1694, "pitch": 45, "duration": 21, "velocity": 95}, {"time": 1694, "pitch": 57, "duration": 6, "velocity": 87}, {"time": 1694, "pitch": 60, "duration": 7, "velocity": 90}, {"time": 1700, "pitch": 52, "duration": 15, "velocity": 61}, {"time": 1703, "pitch": 57, "duration": 1, "velocity": 103}, {"time": 1709, "pitch": 57, "duration": 2, "velocity": 102}, {"time": 1712, "pitch": 60, "duration": 2, "velocity": 74}, {"time": 1715, "pitch": 57, "duration": 2, "velocity": 102}, {"time": 1718, "pitch": 50, "duration": 20, "velocity": 80}, {"time": 1718, "pitch": 65, "duration": 4, "velocity": 83}, {"time": 1721, "pitch": 57, "duration": 3, "velocity": 95}, {"time": 1724, "pitch": 62, "duration": 3, "velocity": 93}, {"time": 1727, "pitch": 65, "duration": 4, "velocity": 110}, {"time": 1736, "pitch": 62, "duration": 3, "velocity": 103}, {"time": 1739, "pitch": 57, "duration": 5, "velocity": 102}, {"time": 1742, "pitch": 43, "duration": 22, "velocity": 90}, {"time": 1745, "pitch": 50, "duration": 19, "velocity": 72}, {"time": 1748, "pitch": 55, "duration": 3, "velocity": 102}, {"time": 1751, "pitch": 62, "duration": 4, "velocity": 102}, {"time": 1757, "pitch": 58, "duration": 2, "velocity": 102}, {"time": 1763, "pitch": 55, "duration": 1, "velocity": 102}, {"time": 1766, "pitch": 48, "duration": 16, "velocity": 102}, {"time": 1766, "pitch": 55, "duration": 3, "velocity": 95}, {"time": 1766, "pitch": 60, "duration": 6, "velocity": 93}, {"time": 1772, "pitch": 55, "duration": 1, "velocity": 93}, {"time": 1775, "pitch": 55, "duration": 4, "velocity": 80}, {"time": 1775, "pitch": 64, "duration": 6, "velocity": 95}, {"time": 1781, "pitch": 55, "duration": 1, "velocity": 85}, {"time": 1781, "pitch": 60, "duration": 2, "velocity": 85}, {"time": 1790, "pitch": 41, "duration": 21, "velocity": 87}, {"time": 1790, "pitch": 60, "duration": 6, "velocity": 93}, {"time": 1790, "pitch": 65, "duration": 9, "velocity": 87}, {"time": 1796, "pitch": 48, "duration": 16, "velocity": 61}, {"time": 1799, "pitch": 60, "duration": 3, "velocity": 105}, {"time": 1805, "pitch": 60, "duration": 2, "velocity": 103}, {"time": 1805, "pitch": 69, "duration": 4, "velocity": 93}, {"time": 1808, "pitch": 65, "duration": 3, "velocity": 68}, {"time": 1811, "pitch": 60, "duration": 3, "velocity": 105}, {"time": 1814, "pitch": 43, "duration": 9, "velocity": 102}, {"time": 1817, "pitch": 50, "duration": 7, "velocity": 68}, {"time": 1823, "pitch": 58, "duration": 3, "velocity": 93}, {"time": 1826, "pitch": 45, "duration": 10, "velocity": 93}, {"time": 1829, "pitch": 52, "duration": 7, "velocity": 68}, {"time": 1832, "pitch": 57, "duration": 4, "velocity": 85}, {"time": 1835, "pitch": 61, "duration": 2, "velocity": 87}, {"time": 1838, "pitch": 46, "duration": 17, "velocity": 93}, {"time": 1844, "pitch": 53, "duration": 12, "velocity": 83}, {"time": 1847, "pitch": 58, "duration": 3, "velocity": 95}, {"time": 1853, "pitch": 58, "duration": 2, "velocity": 87}, {"time": 1853, "pitch": 62, "duration": 3, "velocity": 93}, {"time": 1862, "pitch": 48, "duration": 16, "velocity": 85}, {"time": 1862, "pitch": 60, "duration": 5, "velocity": 85}, {"time": 1862, "pitch": 64, "duration": 9, "velocity": 93}, {"time": 1868, "pitch": 55, "duration": 9, "velocity": 68}, {"time": 1877, "pitch": 60, "duration": 3, "velocity": 87}, {"time": 1886, "pitch": 45, "duration": 21, "velocity": 87}, {"time": 1886, "pitch": 57, "duration": 6, "velocity": 83}, {"time": 1886, "pitch": 60, "duration": 9, "velocity": 80}, {"time": 1892, "pitch": 52, "duration": 16, "velocity": 61}, {"time": 1895, "pitch": 57, "duration": 3, "velocity": 102}, {"time": 1901, "pitch": 57, "duration": 3, "velocity": 80}, {"time": 1901, "pitch": 64, "duration": 3, "velocity": 103}, {"time": 1904, "pitch": 60, "duration": 3, "velocity": 83}, {"time": 1907, "pitch": 57, "duration": 3, "velocity": 95}, {"time": 1910, "pitch": 43, "duration": 20, "velocity": 93}, {"time": 1910, "pitch": 55, "duration": 4, "velocity": 80}, {"time": 1910, "pitch": 62, "duration": 7, "velocity": 80}, {"time": 1913, "pitch": 50, "duration": 13, "velocity": 72}, {"time": 1916, "pitch": 55, "duration": 3, "velocity": 105}, {"time": 1919, "pitch": 59, "duration": 3, "velocity": 95}, {"time": 1925, "pitch": 55, "duration": 3, "velocity": 95}, {"time": 1925, "pitch": 62, "duration": 4, "velocity": 93}, {"time": 1931, "pitch": 55, "duration": 3, "velocity": 105}, {"time": 1934, "pitch": 46, "duration": 19, "velocity": 102}, {"time": 1937, "pitch": 53, "duration": 13, "velocity": 70}, {"time": 1940, "pitch": 58, "duration": 4, "velocity": 67}, {"time": 1943, "pitch": 62, "duration": 12, "velocity": 80}, {"time": 1952, "pitch": 53, "duration": 3, "velocity": 93}, {"time": 1955, "pitch": 58, "duration": 2, "velocity": 93}, {"time": 1958, "pitch": 48, "duration": 16, "velocity": 93}, {"time": 1961, "pitch": 55, "duration": 7, "velocity": 74}, {"time": 1964, "pitch": 60, "duration": 2, "velocity": 93}, {"time": 1967, "pitch": 64, "duration": 3, "velocity": 103}, {"time": 1970, "pitch": 55, "duration": 3, "velocity": 65}, {"time": 1973, "pitch": 60, "duration": 1, "velocity": 93}, {"time": 1973, "pitch": 64, "duration": 3, "velocity": 105}, {"time": 1976, "pitch": 60, "duration": 2, "velocity": 72}, {"time": 1982, "pitch": 38, "duration": 15, "velocity": 87}, {"time": 1982, "pitch": 62, "duration": 6, "velocity": 85}, {"time": 1982, "pitch": 65, "duration": 9, "velocity": 95}, {"time": 1988, "pitch": 45, "duration": 10, "velocity": 59}, {"time": 1991, "pitch": 62, "duration": 2, "velocity": 93}, {"time": 1997, "pitch": 62, "duration": 2, "velocity": 80}, {"time": 1997, "pitch": 69, "duration": 2, "velocity": 95}, {"time": 2006, "pitch": 50, "duration": 23, "velocity": 87}, {"time": 2006, "pitch": 62, "duration": 6, "velocity": 80}, {"time": 2006, "pitch": 65, "duration": 8, "velocity": 87}, {"time": 2012, "pitch": 57, "duration": 9, "velocity": 67}, {"time": 2015, "pitch": 62, "duration": 3, "velocity": 95}, {"time": 2021, "pitch": 62, "duration": 3, "velocity": 102}, {"time": 2021, "pitch": 65, "duration": 4, "velocity": 102}, {"time": 2024, "pitch": 57, "duration": 6, "velocity": 74}, {"time": 2027, "pitch": 62, "duration": 2, "velocity": 102}, {"time": 2030, "pitch": 46, "duration": 19, "velocity": 87}, {"time": 2030, "pitch": 58, "duration": 2, "velocity": 80}, {"time": 2030, "pitch": 65, "duration": 5, "velocity": 90}, {"time": 2033, "pitch": 53, "duration": 9, "velocity": 50}, {"time": 2036, "pitch": 58, "duration": 1, "velocity": 105}, {"time": 2039, "pitch": 58, "duration": 9, "velocity": 93}, {"time": 2039, "pitch": 65, "duration": 13, "velocity": 103}, {"time": 2048, "pitch": 53, "duration": 3, "velocity": 102}, {"time": 2051, "pitch": 58, "duration": 1, "velocity": 102}, {"time": 2054, "pitch": 48, "duration": 20, "velocity": 93}, {"time": 2054, "pitch": 60, "duration": 5, "velocity": 87}, {"time": 2054, "pitch": 64, "duration": 5, "velocity": 102}, {"time": 2060, "pitch": 55, "duration": 4, "velocity": 69}, {"time": 2063, "pitch": 60, "duration": 4, "velocity": 110}, {"time": 2066, "pitch": 55, "duration": 3, "velocity": 74}, {"time": 2069, "pitch": 60, "duration": 3, "velocity": 105}, {"time": 2069, "pitch": 64, "duration": 3, "velocity": 112}, {"time": 2072, "pitch": 55, "duration": 3, "velocity": 69}, {"time": 2075, "pitch": 60, "duration": 1, "velocity": 95}, {"time": 2078, "pitch": 50, "duration": 22, "velocity": 87}, {"time": 2078, "pitch": 62, "duration": 5, "velocity": 93}, {"time": 2078, "pitch": 65, "duration": 6, "velocity": 90}, {"time": 2084, "pitch": 57, "duration": 10, "velocity": 74}, {"time": 2087, "pitch": 62, "duration": 4, "velocity": 105}, {"time": 2093, "pitch": 62, "duration": 2, "velocity": 102}, {"time": 2093, "pitch": 69, "duration": 2, "velocity": 103}, {"time": 2096, "pitch": 57, "duration": 4, "velocity": 68}, {"time": 2099, "pitch": 62, "duration": 1, "velocity": 90}, {"time": 2102, "pitch": 50, "duration": 17, "velocity": 87}, {"time": 2102, "pitch": 62, "duration": 3, "velocity": 102}, {"time": 2102, "pitch": 65, "duration": 3, "velocity": 93}, {"time": 2105, "pitch": 57, "duration": 7, "velocity": 87}, {"time": 2108, "pitch": 62, "duration": 1, "velocity": 105}, {"time": 2111, "pitch": 62, "duration": 3, "velocity": 105}, {"time": 2111, "pitch": 65, "duration": 4, "velocity": 103}, {"time": 2114, "pitch": 57, "duration": 5, "velocity": 83}, {"time": 2117, "pitch": 62, "duration": 2, "velocity": 102}, {"time": 2120, "pitch": 65, "duration": 2, "velocity": 95}, {"time": 2123, "pitch": 62, "duration": 3, "velocity": 95}, {"time": 2126, "pitch": 46, "duration": 19, "velocity": 93}, {"time": 2129, "pitch": 53, "duration": 11, "velocity": 74}, {"time": 2132, "pitch": 58, "duration": 1, "velocity": 93}, {"time": 2135, "pitch": 58, "duration": 8, "velocity": 102}, {"time": 2135, "pitch": 65, "duration": 13, "velocity": 93}, {"time": 2144, "pitch": 53, "duration": 4, "velocity": 93}, {"time": 2147, "pitch": 58, "duration": 1, "velocity": 103}, {"time": 2150, "pitch": 48, "duration": 21, "velocity": 93}, {"time": 2150, "pitch": 60, "duration": 4, "velocity": 80}, {"time": 2150, "pitch": 64, "duration": 5, "velocity": 102}, {"time": 2153, "pitch": 55, "duration": 7, "velocity": 80}, {"time": 2156, "pitch": 60, "duration": 1, "velocity": 93}, {"time": 2159, "pitch": 60, "duration": 9, "velocity": 103}, {"time": 2159, "pitch": 64, "duration": 9, "velocity": 102}, {"time": 2168, "pitch": 55, "duration": 4, "velocity": 80}, {"time": 2171, "pitch": 60, "duration": 2, "velocity": 95}, {"time": 2174, "pitch": 50, "duration": 21, "velocity": 93}, {"time": 2177, "pitch": 57, "duration": 12, "velocity": 70}, {"time": 2180, "pitch": 62, "duration": 4, "velocity": 87}, {"time": 2183, "pitch": 65, "duration": 13, "velocity": 93}, {"time": 2192, "pitch": 57, "duration": 3, "velocity": 80}, {"time": 2195, "pitch": 62, "duration": 5, "velocity": 93}, {"time": 2198, "pitch": 50, "duration": 25, "velocity": 95}, {"time": 2201, "pitch": 57, "duration": 7, "velocity": 83}, {"time": 2204, "pitch": 62, "duration": 1, "velocity": 102}, {"time": 2207, "pitch": 62, "duration": 3, "velocity": 102}, {"time": 2207, "pitch": 65, "duration": 3, "velocity": 95}, {"time": 2207, "pitch": 69, "duration": 3, "velocity": 103}, {"time": 2210, "pitch": 57, "duration": 12, "velocity": 93}, {"time": 2213, "pitch": 62, "duration": 2, "velocity": 105}, {"time": 2216, "pitch": 62, "duration": 5, "velocity": 93}, {"time": 2216, "pitch": 65, "duration": 5, "velocity": 102}, {"time": 2216, "pitch": 69, "duration": 5, "velocity": 103}, {"time": 2222, "pitch": 46, "duration": 19, "velocity": 87}, {"time": 2222, "pitch": 58, "duration": 2, "velocity": 80}, {"time": 2222, "pitch": 65, "duration": 5, "velocity": 90}, {"time": 2225, "pitch": 53, "duration": 9, "velocity": 50}, {"time": 2228, "pitch": 58, "duration": 1, "velocity": 105}, {"time": 2231, "pitch": 58, "duration": 9, "velocity": 93}, {"time": 2231, "pitch": 65, "duration": 13, "velocity": 103}, {"time": 2240, "pitch": 53, "duration": 3, "velocity": 102}, {"time": 2243, "pitch": 58, "duration": 1, "velocity": 102}, {"time": 2246, "pitch": 48, "duration": 20, "velocity": 93}, {"time": 2246, "pitch": 60, "duration": 5, "velocity": 87}, {"time": 2246, "pitch": 64, "duration": 5, "velocity": 102}, {"time": 2252, "pitch": 55, "duration": 4, "velocity": 69}, {"time": 2255, "pitch": 60, "duration": 4, "velocity": 110}, {"time": 2258, "pitch": 55, "duration": 3, "velocity": 74}, {"time": 2261, "pitch": 60, "duration": 3, "velocity": 105}, {"time": 2261, "pitch": 64, "duration": 3, "velocity": 112}, {"time": 2264, "pitch": 55, "duration": 3, "velocity": 69}, {"time": 2267, "pitch": 60, "duration": 1, "velocity": 95}, {"time": 2270, "pitch": 50, "duration": 22, "velocity": 87}, {"time": 2270, "pitch": 62, "duration": 5, "velocity": 93}, {"time": 2270, "pitch": 65, "duration": 6, "velocity": 90}, {"time": 2276, "pitch": 57, "duration": 10, "velocity": 74}, {"time": 2279, "pitch": 62, "duration": 4, "velocity": 105}, {"time": 2285, "pitch": 62, "duration": 2, "velocity": 102}, {"time": 2285, "pitch": 69, "duration": 2, "velocity": 103}, {"time": 2288, "pitch": 57, "duration": 4, "velocity": 68}, {"time": 2291, "pitch": 62, "duration": 1, "velocity": 90}, {"time": 2294, "pitch": 50, "duration": 17, "velocity": 87}, {"time": 2294, "pitch": 62, "duration": 3, "velocity": 102}, {"time": 2294, "pitch": 65, "duration": 3, "velocity": 93}, {"time": 2297, "pitch": 57, "duration": 7, "velocity": 87}, {"time": 2300, "pitch": 62, "duration": 1, "velocity": 105}, {"time": 2303, "pitch": 62, "duration": 3, "velocity": 105}, {"time": 2303, "pitch": 65, "duration": 4, "velocity": 103}, {"time": 2306, "pitch": 57, "duration": 5, "velocity": 83}, {"time": 2309, "pitch": 62, "duration": 2, "velocity": 102}, {"time": 2312, "pitch": 65, "duration": 2, "velocity": 95}, {"time": 2315, "pitch": 62, "duration": 3, "velocity": 95}, {"time": 2318, "pitch": 46, "duration": 19, "velocity": 93}, {"time": 2321, "pitch": 53, "duration": 11, "velocity": 74}, {"time": 2324, "pitch": 58, "duration": 1, "velocity": 93}, {"time": 2327, "pitch": 58, "duration": 8, "velocity": 102}, {"time": 2327, "pitch": 65, "duration": 13, "velocity": 93}, {"time": 2336, "pitch": 53, "duration": 4, "velocity": 93}, {"time": 2339, "pitch": 58, "duration": 1, "velocity": 103}, {"time": 2342, "pitch": 48, "duration": 21, "velocity": 93}, {"time": 2342, "pitch": 60, "duration": 4, "velocity": 80}, {"time": 2342, "pitch": 64, "duration": 5, "velocity": 102}, {"time": 2345, "pitch": 55, "duration": 7, "velocity": 80}, {"time": 2348, "pitch": 60, "duration": 1, "velocity": 93}, {"time": 2351, "pitch": 60, "duration": 9, "velocity": 103}, {"time": 2351, "pitch": 64, "duration": 9, "velocity": 102}, {"time": 2360, "pitch": 55, "duration": 4, "velocity": 80}, {"time": 2363, "pitch": 60, "duration": 2, "velocity": 95}, {"time": 2366, "pitch": 50, "duration": 21, "velocity": 93}, {"time": 2369, "pitch": 57, "duration": 12, "velocity": 70}, {"time": 2372, "pitch": 62, "duration": 4, "velocity": 87}, {"time": 2375, "pitch": 65, "duration": 13, "velocity": 93}, {"time": 2384, "pitch": 57, "duration": 3, "velocity": 80}, {"time": 2387, "pitch": 62, "duration": 5, "velocity": 93}, {"time": 2390, "pitch": 50, "duration": 25, "velocity": 95}, {"time": 2393, "pitch": 57, "duration": 7, "velocity": 83}, {"time": 2396, "pitch": 62, "duration": 1, "velocity": 102}, {"time": 2399, "pitch": 62, "duration": 3, "velocity": 102}, {"time": 2399, "pitch": 65, "duration": 3, "velocity": 95}, {"time": 2399, "pitch": 69, "duration": 3, "velocity": 103}, {"time": 2402, "pitch": 57, "duration": 12, "velocity": 93}, {"time": 2405, "pitch": 62, "duration": 2, "velocity": 105}, {"time": 2408, "pitch": 62, "duration": 5, "velocity": 93}, {"time": 2408, "pitch": 65, "duration": 5, "velocity": 102}, {"time": 2408, "pitch": 69, "duration": 5, "velocity": 103}, {"time": 2414, "pitch": 46, "duration": 18, "velocity": 56}, {"time": 2417, "pitch": 53, "duration": 11, "velocity": 59}, {"time": 2420, "pitch": 58, "duration": 4, "velocity": 59}, {"time": 2423, "pitch": 65, "duration": 9, "velocity": 80}, {"time": 2429, "pitch": 53, "duration": 6, "velocity": 71}, {"time": 2432, "pitch": 58, "duration": 3, "velocity": 63}, {"time": 2435, "pitch": 65, "duration": 5, "velocity": 93}, {"time": 2438, "pitch": 48, "duration": 18, "velocity": 69}, {"time": 2441, "pitch": 55, "duration": 19, "velocity": 68}, {"time": 2444, "pitch": 60, "duration": 3, "velocity": 69}, {"time": 2447, "pitch": 64, "duration": 17, "velocity": 80}, {"time": 2462, "pitch": 50, "duration": 21, "velocity": 80}, {"time": 2465, "pitch": 57, "duration": 9, "velocity": 68}, {"time": 2468, "pitch": 62, "duration": 4, "velocity": 68}, {"time": 2471, "pitch": 69, "duration": 9, "velocity": 85}, {"time": 2477, "pitch": 57, "duration": 7, "velocity": 66}, {"time": 2480, "pitch": 62, "duration": 3, "velocity": 67}, {"time": 2483, "pitch": 65, "duration": 8, "velocity": 69}, {"time": 2486, "pitch": 50, "duration": 17, "velocity": 64}, {"time": 2489, "pitch": 57, "duration": 14, "velocity": 68}, {"time": 2492, "pitch": 62, "duration": 2, "velocity": 59}, {"time": 2495, "pitch": 64, "duration": 4, "velocity": 71}, {"time": 2501, "pitch": 65, "duration": 5, "velocity": 80}, {"time": 2510, "pitch": 46, "duration": 20, "velocity": 68}, {"time": 2513, "pitch": 53, "duration": 12, "velocity": 69}, {"time": 2516, "pitch": 58, "duration": 6, "velocity": 60}, {"time": 2519, "pitch": 65, "duration": 13, "velocity": 87}, {"time": 2528, "pitch": 53, "duration": 3, "velocity": 64}, {"time": 2531, "pitch": 58, "duration": 3, "velocity": 50}, {"time": 2534, "pitch": 48, "duration": 20, "velocity": 80}, {"time": 2537, "pitch": 55, "duration": 12, "velocity": 67}, {"time": 2540, "pitch": 60, "duration": 2, "velocity": 69}, {"time": 2543, "pitch": 64, "duration": 13, "velocity": 80}, {"time": 2552, "pitch": 55, "duration": 4, "velocity": 65}, {"time": 2555, "pitch": 60, "duration": 3, "velocity": 67}, {"time": 2558, "pitch": 50, "duration": 22, "velocity": 72}, {"time": 2561, "pitch": 57, "duration": 13, "velocity": 70}, {"time": 2564, "pitch": 62, "duration": 3, "velocity": 69}, {"time": 2567, "pitch": 65, "duration": 14, "velocity": 68}, {"time": 2579, "pitch": 69, "duration": 11, "velocity": 87}, {"time": 2582, "pitch": 50, "duration": 23, "velocity": 80}, {"time": 2585, "pitch": 57, "duration": 9, "velocity": 71}, {"time": 2588, "pitch": 62, "duration": 4, "velocity": 69}, {"time": 2591, "pitch": 65, "duration": 12, "velocity": 70}, {"time": 2597, "pitch": 57, "duration": 8, "velocity": 71}, {"time": 2600, "pitch": 62, "duration": 3, "velocity": 67}, {"time": 2603, "pitch": 69, "duration": 2, "velocity": 58}, {"time": 2606, "pitch": 46, "duration": 18, "velocity": 56}, {"time": 2609, "pitch": 53, "duration": 11, "velocity": 59}, {"time": 2612, "pitch": 58, "duration": 4, "velocity": 59}, {"time": 2615, "pitch": 65, "duration": 9, "velocity": 80}, {"time": 2621, "pitch": 53, "duration": 6, "velocity": 71}, {"time": 2624, "pitch": 58, "duration": 3, "velocity": 63}, {"time": 2627, "pitch": 65, "duration": 5, "velocity": 93}, {"time": 2630, "pitch": 48, "duration": 18, "velocity": 69}, {"time": 2633, "pitch": 55, "duration": 19, "velocity": 68}, {"time": 2636, "pitch": 60, "duration": 3, "velocity": 69}, {"time": 2639, "pitch": 64, "duration": 17, "velocity": 80}, {"time": 2654, "pitch": 50, "duration": 21, "velocity": 80}, {"time": 2657, "pitch": 57, "duration": 9, "velocity": 68}, {"time": 2660, "pitch": 62, "duration": 4, "velocity": 68}, {"time": 2663, "pitch": 69, "duration": 9, "velocity": 85}, {"time": 2669, "pitch": 57, "duration": 7, "velocity": 66}, {"time": 2672, "pitch": 62, "duration": 3, "velocity": 67}, {"time": 2675, "pitch": 65, "duration": 8, "velocity": 69}, {"time": 2678, "pitch": 50, "duration": 17, "velocity": 64}, {"time": 2681, "pitch": 57, "duration": 14, "velocity": 68}, {"time": 2684, "pitch": 62, "duration": 2, "velocity": 59}, {"time": 2687, "pitch": 64, "duration": 4, "velocity": 71}, {"time": 2693, "pitch": 65, "duration": 5, "velocity": 80}, {"time": 2702, "pitch": 46, "duration": 20, "velocity": 68}, {"time": 2705, "pitch": 53, "duration": 12, "velocity": 69}, {"time": 2708, "pitch": 58, "duration": 6, "velocity": 60}, {"time": 2711, "pitch": 65, "duration": 13, "velocity": 87}, {"time": 2720, "pitch": 53, "duration": 3, "velocity": 64}, {"time": 2723, "pitch": 58, "duration": 3, "velocity": 50}, {"time": 2726, "pitch": 48, "duration": 20, "velocity": 80}, {"time": 2729, "pitch": 55, "duration": 12, "velocity": 67}, {"time": 2732, "pitch": 60, "duration": 2, "velocity": 69}, {"time": 2735, "pitch": 64, "duration": 13, "velocity": 80}, {"time": 2744, "pitch": 55, "duration": 4, "velocity": 65}, {"time": 2747, "pitch": 60, "duration": 3, "velocity": 67}, {"time": 2750, "pitch": 50, "duration": 22, "velocity": 72}, {"time": 2753, "pitch": 57, "duration": 13, "velocity": 70}, {"time": 2756, "pitch": 62, "duration": 3, "velocity": 69}, {"time": 2759, "pitch": 65, "duration": 14, "velocity": 68}, {"time": 2765, "pitch": 62, "duration": 7, "velocity": 65}, {"time": 2771, "pitch": 69, "duration": 11, "velocity": 87}, {"time": 2774, "pitch": 50, "duration": 23, "velocity": 80}, {"time": 2777, "pitch": 57, "duration": 9, "velocity": 71}, {"time": 2780, "pitch": 62, "duration": 4, "velocity": 69}, {"time": 2783, "pitch": 65, "duration": 12, "velocity": 70}, {"time": 2789, "pitch": 57, "duration": 8, "velocity": 71}, {"time": 2792, "pitch": 62, "duration": 3, "velocity": 67}, {"time": 2795, "pitch": 69, "duration": 2, "velocity": 58}, {"time": 2798, "pitch": 46, "duration": 22, "velocity": 80}, {"time": 2798, "pitch": 58, "duration": 6, "velocity": 68}, {"time": 2798, "pitch": 65, "duration": 9, "velocity": 87}, {"time": 2804, "pitch": 53, "duration": 16, "velocity": 80}, {"time": 2807, "pitch": 58, "duration": 4, "velocity": 93}, {"time": 2813, "pitch": 65, "duration": 11, "velocity": 102}, {"time": 2819, "pitch": 58, "duration": 3, "velocity": 102}, {"time": 2822, "pitch": 48, "duration": 23, "velocity": 93}, {"time": 2825, "pitch": 55, "duration": 13, "velocity": 68}, {"time": 2828, "pitch": 60, "duration": 1, "velocity": 83}, {"time": 2837, "pitch": 60, "duration": 4, "velocity": 102}, {"time": 2840, "pitch": 55, "duration": 5, "velocity": 80}, {"time": 2843, "pitch": 60, "duration": 2, "velocity": 93}, {"time": 2846, "pitch": 45, "duration": 18, "velocity": 87}, {"time": 2846, "pitch": 57, "duration": 6, "velocity": 83}, {"time": 2846, "pitch": 64, "duration": 11, "velocity": 87}, {"time": 2852, "pitch": 52, "duration": 12, "velocity": 69}, {"time": 2855, "pitch": 57, "duration": 4, "velocity": 83}, {"time": 2861, "pitch": 60, "duration": 2, "velocity": 103}, {"time": 2864, "pitch": 57, "duration": 4, "velocity": 95}, {"time": 2867, "pitch": 60, "duration": 3, "velocity": 87}, {"time": 2870, "pitch": 50, "duration": 20, "velocity": 80}, {"time": 2870, "pitch": 62, "duration": 6, "velocity": 95}, {"time": 2876, "pitch": 57, "duration": 5, "velocity": 87}, {"time": 2879, "pitch": 62, "duration": 4, "velocity": 83}, {"time": 2882, "pitch": 57, "duration": 3, "velocity": 61}, {"time": 2885, "pitch": 62, "duration": 3, "velocity": 93}, {"time": 2885, "pitch": 65, "duration": 4, "velocity": 90}, {"time": 2888, "pitch": 57, "duration": 3, "velocity": 68}, {"time": 2891, "pitch": 62, "duration": 3, "velocity": 93}, {"time": 2894, "pitch": 46, "duration": 19, "velocity": 65}, {"time": 2897, "pitch": 53, "duration": 12, "velocity": 34}, {"time": 2903, "pitch": 58, "duration": 5, "velocity": 93}, {"time": 2909, "pitch": 62, "duration": 6, "velocity": 93}, {"time": 2912, "pitch": 53, "duration": 3, "velocity": 74}, {"time": 2915, "pitch": 58, "duration": 2, "velocity": 87}, {"time": 2918, "pitch": 48, "duration": 23, "velocity": 93}, {"time": 2921, "pitch": 55, "duration": 12, "velocity": 71}, {"time": 2924, "pitch": 60, "duration": 4, "velocity": 87}, {"time": 2927, "pitch": 64, "duration": 3, "velocity": 103}, {"time": 2933, "pitch": 67, "duration": 8, "velocity": 83}, {"time": 2936, "pitch": 55, "duration": 5, "velocity": 71}, {"time": 2939, "pitch": 60, "duration": 2, "velocity": 102}, {"time": 2942, "pitch": 40, "duration": 19, "velocity": 70}, {"time": 2942, "pitch": 52, "duration": 20, "velocity": 85}, {"time": 2942, "pitch": 64, "duration": 3, "velocity": 95}, {"time": 2942, "pitch": 67, "duration": 6, "velocity": 93}, {"time": 2948, "pitch": 64, "duration": 2, "velocity": 87}, {"time": 2951, "pitch": 67, "duration": 4, "velocity": 105}, {"time": 2957, "pitch": 69, "duration": 3, "velocity": 93}, {"time": 2960, "pitch": 64, "duration": 3, "velocity": 87}, {"time": 2963, "pitch": 67, "duration": 3, "velocity": 83}, {"time": 2966, "pitch": 45, "duration": 25, "velocity": 93}, {"time": 2966, "pitch": 69, "duration": 8, "velocity": 87}, {"time": 2969, "pitch": 52, "duration": 10, "velocity": 74}, {"time": 2975, "pitch": 64, "duration": 9, "velocity": 102}, {"time": 2975, "pitch": 69, "duration": 1, "velocity": 36}, {"time": 2981, "pitch": 52, "duration": 9, "velocity": 93}, {"time": 2984, "pitch": 57, "duration": 4, "velocity": 95}, {"time": 2987, "pitch": 64, "duration": 2, "velocity": 93}, {"time": 2990, "pitch": 46, "duration": 20, "velocity": 74}, {"time": 2990, "pitch": 58, "duration": 6, "velocity": 72}, {"time": 2990, "pitch": 62, "duration": 10, "velocity": 93}, {"time": 2996, "pitch": 53, "duration": 15, "velocity": 69}, {"time": 2999, "pitch": 58, "duration": 6, "velocity": 103}, {"time": 3005, "pitch": 65, "duration": 7, "velocity": 85}, {"time": 3011, "pitch": 58, "duration": 2, "velocity": 87}, {"time": 3014, "pitch": 48, "duration": 21, "velocity": 87}, {"time": 3017, "pitch": 55, "duration": 17, "velocity": 63}, {"time": 3020, "pitch": 60, "duration": 4, "velocity": 74}, {"time": 3032, "pitch": 60, "duration": 5, "velocity": 80}, {"time": 3038, "pitch": 45, "duration": 21, "velocity": 93}, {"time": 3038, "pitch": 57, "duration": 6, "velocity": 93}, {"time": 3038, "pitch": 64, "duration": 12, "velocity": 80}, {"time": 3044, "pitch": 52, "duration": 16, "velocity": 74}, {"time": 3047, "pitch": 57, "duration": 6, "velocity": 102}, {"time": 3053, "pitch": 60, "duration": 3, "velocity": 95}, {"time": 3056, "pitch": 57, "duration": 4, "velocity": 93}, {"time": 3059, "pitch": 60, "duration": 6, "velocity": 83}, {"time": 3062, "pitch": 43, "duration": 22, "velocity": 93}, {"time": 3065, "pitch": 50, "duration": 17, "velocity": 69}, {"time": 3068, "pitch": 55, "duration": 4, "velocity": 102}, {"time": 3071, "pitch": 59, "duration": 2, "velocity": 103}, {"time": 3077, "pitch": 55, "duration": 2, "velocity": 87}, {"time": 3077, "pitch": 62, "duration": 7, "velocity": 90}, {"time": 3080, "pitch": 55, "duration": 5, "velocity": 69}, {"time": 3086, "pitch": 43, "duration": 22, "velocity": 95}, {"time": 3086, "pitch": 55, "duration": 5, "velocity": 85}, {"time": 3086, "pitch": 58, "duration": 7, "velocity": 72}, {"time": 3092, "pitch": 50, "duration": 16, "velocity": 71}, {"time": 3095, "pitch": 55, "duration": 4, "velocity": 105}, {"time": 3101, "pitch": 55, "duration": 2, "velocity": 90}, {"time": 3101, "pitch": 62, "duration": 7, "velocity": 87}, {"time": 3110, "pitch": 48, "duration": 23, "velocity": 87}, {"time": 3110, "pitch": 60, "duration": 6, "velocity": 87}, {"time": 3110, "pitch": 64, "duration": 9, "velocity": 93}, {"time": 3116, "pitch": 55, "duration": 10, "velocity": 93}, {"time": 3119, "pitch": 60, "duration": 3, "velocity": 105}, {"time": 3125, "pitch": 60, "duration": 3, "velocity": 93}, {"time": 3125, "pitch": 67, "duration": 7, "velocity": 87}, {"time": 3128, "pitch": 55, "duration": 5, "velocity": 87}, {"time": 3131, "pitch": 60, "duration": 2, "velocity": 102}, {"time": 3134, "pitch": 39, "duration": 11, "velocity": 102}, {"time": 3134, "pitch": 63, "duration": 6, "velocity": 83}, {"time": 3134, "pitch": 70, "duration": 9, "velocity": 74}, {"time": 3140, "pitch": 46, "duration": 6, "velocity": 68}, {"time": 3143, "pitch": 63, "duration": 6, "velocity": 105}, {"time": 3152, "pitch": 63, "duration": 6, "velocity": 95}, {"time": 3158, "pitch": 45, "duration": 23, "velocity": 85}, {"time": 3161, "pitch": 52, "duration": 12, "velocity": 68}, {"time": 3164, "pitch": 57, "duration": 4, "velocity": 93}, {"time": 3167, "pitch": 61, "duration": 3, "velocity": 105}, {"time": 3173, "pitch": 57, "duration": 3, "velocity": 102}, {"time": 3173, "pitch": 64, "duration": 3, "velocity": 103}, {"time": 3176, "pitch": 52, "duration": 5, "velocity": 87}, {"time": 3179, "pitch": 57, "duration": 1, "velocity": 105}, {"time": 3182, "pitch": 46, "duration": 16, "velocity": 71}, {"time": 3182, "pitch": 58, "duration": 6, "velocity": 71}, {"time": 3182, "pitch": 62, "duration": 9, "velocity": 80}, {"time": 3188, "pitch": 53, "duration": 11, "velocity": 74}, {"time": 3191, "pitch": 58, "duration": 6, "velocity": 103}, {"time": 3197, "pitch": 65, "duration": 4, "velocity": 93}, {"time": 3200, "pitch": 58, "duration": 3, "velocity": 93}, {"time": 3203, "pitch": 65, "duration": 4, "velocity": 93}, {"time": 3206, "pitch": 48, "duration": 20, "velocity": 87}, {"time": 3209, "pitch": 55, "duration": 12, "velocity": 80}, {"time": 3212, "pitch": 60, "duration": 4, "velocity": 80}, {"time": 3221, "pitch": 60, "duration": 3, "velocity": 83}, {"time": 3224, "pitch": 55, "duration": 2, "velocity": 68}, {"time": 3230, "pitch": 45, "duration": 21, "velocity": 95}, {"time": 3230, "pitch": 57, "duration": 6, "velocity": 87}, {"time": 3230, "pitch": 60, "duration": 7, "velocity": 90}, {"time": 3236, "pitch": 52, "duration": 15, "velocity": 61}, {"time": 3239, "pitch": 57, "duration": 1, "velocity": 103}, {"time": 3245, "pitch": 57, "duration": 2, "velocity": 102}, {"time": 3248, "pitch": 60, "duration": 2, "velocity": 74}, {"time": 3251, "pitch": 57, "duration": 2, "velocity": 102}, {"time": 3254, "pitch": 50, "duration": 20, "velocity": 80}, {"time": 3254, "pitch": 65, "duration": 4, "velocity": 83}, {"time": 3257, "pitch": 57, "duration": 3, "velocity": 95}, {"time": 3260, "pitch": 62, "duration": 3, "velocity": 93}, {"time": 3263, "pitch": 65, "duration": 4, "velocity": 110}, {"time": 3272, "pitch": 62, "duration": 3, "velocity": 103}, {"time": 3275, "pitch": 57, "duration": 5, "velocity": 102}, {"time": 3278, "pitch": 43, "duration": 22, "velocity": 90}, {"time": 3281, "pitch": 50, "duration": 19, "velocity": 72}, {"time": 3284, "pitch": 55, "duration": 3, "velocity": 102}, {"time": 3287, "pitch": 62, "duration": 4, "velocity": 102}, {"time": 3293, "pitch": 58, "duration": 2, "velocity": 102}, {"time": 3299, "pitch": 55, "duration": 1, "velocity": 102}, {"time": 3302, "pitch": 48, "duration": 16, "velocity": 102}, {"time": 3302, "pitch": 55, "duration": 3, "velocity": 95}, {"time": 3302, "pitch": 60, "duration": 6, "velocity": 93}, {"time": 3308, "pitch": 55, "duration": 1, "velocity": 93}, {"time": 3311, "pitch": 55, "duration": 4, "velocity": 80}, {"time": 3311, "pitch": 64, "duration": 6, "velocity": 95}, {"time": 3317, "pitch": 55, "duration": 1, "velocity": 85}, {"time": 3317, "pitch": 60, "duration": 2, "velocity": 85}, {"time": 3326, "pitch": 41, "duration": 21, "velocity": 87}, {"time": 3326, "pitch": 60, "duration": 6, "velocity": 93}, {"time": 3326, "pitch": 65, "duration": 9, "velocity": 87}, {"time": 3332, "pitch": 48, "duration": 16, "velocity": 61}, {"time": 3335, "pitch": 60, "duration": 3, "velocity": 105}, {"time": 3341, "pitch": 60, "duration": 2, "velocity": 103}, {"time": 3341, "pitch": 69, "duration": 4, "velocity": 93}, {"time": 3344, "pitch": 65, "duration": 3, "velocity": 68}, {"time": 3347, "pitch": 60, "duration": 3, "velocity": 105}, {"time": 3350, "pitch": 43, "duration": 9, "velocity": 102}, {"time": 3353, "pitch": 50, "duration": 7, "velocity": 68}, {"time": 3359, "pitch": 58, "duration": 3, "velocity": 93}, {"time": 3362, "pitch": 45, "duration": 10, "velocity": 93}, {"time": 3365, "pitch": 52, "duration": 7, "velocity": 68}, {"time": 3368, "pitch": 57, "duration": 4, "velocity": 85}, {"time": 3371, "pitch": 61, "duration": 2, "velocity": 87}, {"time": 3374, "pitch": 46, "duration": 17, "velocity": 93}, {"time": 3380, "pitch": 53, "duration": 12, "velocity": 83}, {"time": 3383, "pitch": 58, "duration": 3, "velocity": 95}, {"time": 3389, "pitch": 58, "duration": 2, "velocity": 87}, {"time": 3389, "pitch": 62, "duration": 3, "velocity": 93}, {"time": 3398, "pitch": 48, "duration": 16, "velocity": 85}, {"time": 3398, "pitch": 60, "duration": 5, "velocity": 85}, {"time": 3398, "pitch": 64, "duration": 9, "velocity": 93}, {"time": 3404, "pitch": 55, "duration": 9, "velocity": 68}, {"time": 3413, "pitch": 60, "duration": 3, "velocity": 87}, {"time": 3422, "pitch": 45, "duration": 21, "velocity": 87}, {"time": 3422, "pitch": 57, "duration": 6, "velocity": 83}, {"time": 3422, "pitch": 60, "duration": 9, "velocity": 80}, {"time": 3428, "pitch": 52, "duration": 16, "velocity": 61}, {"time": 3431, "pitch": 57, "duration": 3, "velocity": 102}, {"time": 3437, "pitch": 57, "duration": 3, "velocity": 80}, {"time": 3437, "pitch": 64, "duration": 3, "velocity": 103}, {"time": 3440, "pitch": 60, "duration": 3, "velocity": 83}, {"time": 3443, "pitch": 57, "duration": 3, "velocity": 95}, {"time": 3446, "pitch": 43, "duration": 20, "velocity": 93}, {"time": 3446, "pitch": 55, "duration": 4, "velocity": 80}, {"time": 3446, "pitch": 62, "duration": 7, "velocity": 80}, {"time": 3449, "pitch": 50, "duration": 13, "velocity": 72}, {"time": 3452, "pitch": 55, "duration": 3, "velocity": 105}, {"time": 3455, "pitch": 59, "duration": 3, "velocity": 95}, {"time": 3461, "pitch": 55, "duration": 3, "velocity": 95}, {"time": 3461, "pitch": 62, "duration": 4, "velocity": 93}, {"time": 3467, "pitch": 55, "duration": 3, "velocity": 105}, {"time": 3470, "pitch": 46, "duration": 19, "velocity": 102}, {"time": 3473, "pitch": 53, "duration": 13, "velocity": 70}, {"time": 3476, "pitch": 58, "duration": 4, "velocity": 67}, {"time": 3479, "pitch": 62, "duration": 12, "velocity": 80}, {"time": 3488, "pitch": 53, "duration": 3, "velocity": 93}, {"time": 3491, "pitch": 58, "duration": 2, "velocity": 93}, {"time": 3494, "pitch": 48, "duration": 16, "velocity": 93}, {"time": 3497, "pitch": 55, "duration": 7, "velocity": 74}, {"time": 3500, "pitch": 60, "duration": 2, "velocity": 93}, {"time": 3503, "pitch": 64, "duration": 3, "velocity": 103}, {"time": 3506, "pitch": 55, "duration": 3, "velocity": 65}, {"time": 3509, "pitch": 60, "duration": 1, "velocity": 93}, {"time": 3509, "pitch": 64, "duration": 3, "velocity": 105}, {"time": 3512, "pitch": 60, "duration": 2, "velocity": 72}, {"time": 3518, "pitch": 38, "duration": 15, "velocity": 87}, {"time": 3518, "pitch": 62, "duration": 6, "velocity": 85}, {"time": 3518, "pitch": 65, "duration": 9, "velocity": 95}, {"time": 3524, "pitch": 45, "duration": 10, "velocity": 59}, {"time": 3527, "pitch": 62, "duration": 2, "velocity": 93}, {"time": 3533, "pitch": 62, "duration": 2, "velocity": 80}, {"time": 3533, "pitch": 69, "duration": 2, "velocity": 95}, {"time": 3542, "pitch": 50, "duration": 23, "velocity": 87}, {"time": 3542, "pitch": 62, "duration": 6, "velocity": 80}, {"time": 3542, "pitch": 65, "duration": 8, "velocity": 87}, {"time": 3548, "pitch": 57, "duration": 9, "velocity": 67}, {"time": 3551, "pitch": 62, "duration": 3, "velocity": 95}, {"time": 3557, "pitch": 62, "duration": 3, "velocity": 102}, {"time": 3557, "pitch": 65, "duration": 4, "velocity": 102}, {"time": 3560, "pitch": 57, "duration": 6, "velocity": 74}, {"time": 3563, "pitch": 62, "duration": 2, "velocity": 102}, {"time": 3566, "pitch": 46, "duration": 15, "velocity": 63}, {"time": 3566, "pitch": 62, "duration": 9, "velocity": 80}, {"time": 3572, "pitch": 53, "duration": 10, "velocity": 59}, {"time": 3575, "pitch": 58, "duration": 6, "velocity": 83}, {"time": 3581, "pitch": 65, "duration": 3, "velocity": 87}, {"time": 3590, "pitch": 48, "duration": 21, "velocity": 74}, {"time": 3590, "pitch": 60, "duration": 22, "velocity": 68}, {"time": 3590, "pitch": 64, "duration": 29, "velocity": 69}, {"time": 3614, "pitch": 45, "duration": 19, "velocity": 74}, {"time": 3617, "pitch": 52, "duration": 15, "velocity": 68}, {"time": 3620, "pitch": 57, "duration": 7, "velocity": 67}, {"time": 3623, "pitch": 60, "duration": 6, "velocity": 85}, {"time": 3632, "pitch": 57, "duration": 2, "velocity": 68}, {"time": 3638, "pitch": 50, "duration": 16, "velocity": 72}, {"time": 3638, "pitch": 65, "duration": 9, "velocity": 87}, {"time": 3644, "pitch": 57, "duration": 4, "velocity": 71}, {"time": 3647, "pitch": 64, "duration": 8, "velocity": 87}, {"time": 3653, "pitch": 57, "duration": 5, "velocity": 65}, {"time": 3656, "pitch": 62, "duration": 14, "velocity": 72}, {"time": 3662, "pitch": 43, "duration": 21, "velocity": 87}, {"time": 3668, "pitch": 50, "duration": 14, "velocity": 61}, {"time": 3671, "pitch": 55, "duration": 7, "velocity": 74}, {"time": 3677, "pitch": 58, "duration": 3, "velocity": 93}, {"time": 3680, "pitch": 62, "duration": 4, "velocity": 70}, {"time": 3686, "pitch": 48, "duration": 24, "velocity": 71}, {"time": 3686, "pitch": 55, "duration": 4, "velocity": 74}, {"time": 3686, "pitch": 60, "duration": 7, "velocity": 68}, {"time": 3692, "pitch": 55, "duration": 3, "velocity": 68}, {"time": 3695, "pitch": 64, "duration": 6, "velocity": 95}, {"time": 3701, "pitch": 60, "duration": 6, "velocity": 87}, {"time": 3704, "pitch": 55, "duration": 5, "velocity": 85}, {"time": 3710, "pitch": 41, "duration": 21, "velocity": 87}, {"time": 3710, "pitch": 60, "duration": 6, "velocity": 93}, {"time": 3710, "pitch": 65, "duration": 9, "velocity": 87}, {"time": 3716, "pitch": 48, "duration": 16, "velocity": 61}, {"time": 3719, "pitch": 60, "duration": 3, "velocity": 105}, {"time": 3725, "pitch": 60, "duration": 2, "velocity": 103}, {"time": 3725, "pitch": 69, "duration": 4, "velocity": 93}, {"time": 3728, "pitch": 65, "duration": 3, "velocity": 68}, {"time": 3731, "pitch": 60, "duration": 3, "velocity": 105}, {"time": 3734, "pitch": 43, "duration": 9, "velocity": 102}, {"time": 3737, "pitch": 50, "duration": 7, "velocity": 68}, {"time": 3743, "pitch": 58, "duration": 3, "velocity": 93}, {"time": 3746, "pitch": 45, "duration": 10, "velocity": 93}, {"time": 3749, "pitch": 52, "duration": 7, "velocity": 68}, {"time": 3752, "pitch": 57, "duration": 4, "velocity": 85}, {"time": 3755, "pitch": 61, "duration": 2, "velocity": 87}, {"time": 3758, "pitch": 46, "duration": 17, "velocity": 93}, {"time": 3764, "pitch": 53, "duration": 12, "velocity": 83}, {"time": 3767, "pitch": 58, "duration": 3, "velocity": 95}, {"time": 3773, "pitch": 58, "duration": 2, "velocity": 87}, {"time": 3773, "pitch": 62, "duration": 3, "velocity": 93}, {"time": 3782, "pitch": 48, "duration": 16, "velocity": 85}, {"time": 3782, "pitch": 60, "duration": 5, "velocity": 85}, {"time": 3782, "pitch": 64, "duration": 9, "velocity": 93}, {"time": 3788, "pitch": 55, "duration": 9, "velocity": 68}, {"time": 3797, "pitch": 64, "duration": 3, "velocity": 93}, {"time": 3806, "pitch": 45, "duration": 21, "velocity": 87}, {"time": 3806, "pitch": 57, "duration": 6, "velocity": 83}, {"time": 3806, "pitch": 60, "duration": 9, "velocity": 80}, {"time": 3812, "pitch": 52, "duration": 16, "velocity": 61}, {"time": 3815, "pitch": 57, "duration": 3, "velocity": 102}, {"time": 3821, "pitch": 57, "duration": 3, "velocity": 80}, {"time": 3821, "pitch": 64, "duration": 3, "velocity": 103}, {"time": 3824, "pitch": 60, "duration": 3, "velocity": 83}, {"time": 3827, "pitch": 57, "duration": 3, "velocity": 95}, {"time": 3830, "pitch": 43, "duration": 20, "velocity": 93}, {"time": 3830, "pitch": 55, "duration": 4, "velocity": 80}, {"time": 3830, "pitch": 62, "duration": 7, "velocity": 80}, {"time": 3833, "pitch": 50, "duration": 13, "velocity": 72}, {"time": 3836, "pitch": 55, "duration": 3, "velocity": 105}, {"time": 3839, "pitch": 59, "duration": 3, "velocity": 95}, {"time": 3845, "pitch": 55, "duration": 3, "velocity": 95}, {"time": 3845, "pitch": 62, "duration": 4, "velocity": 93}, {"time": 3851, "pitch": 55, "duration": 3, "velocity": 105}, {"time": 3854, "pitch": 46, "duration": 19, "velocity": 102}, {"time": 3857, "pitch": 53, "duration": 13, "velocity": 70}, {"time": 3860, "pitch": 58, "duration": 4, "velocity": 67}, {"time": 3863, "pitch": 62, "duration": 12, "velocity": 80}, {"time": 3872, "pitch": 53, "duration": 3, "velocity": 93}, {"time": 3875, "pitch": 58, "duration": 2, "velocity": 93}, {"time": 3878, "pitch": 48, "duration": 16, "velocity": 93}, {"time": 3881, "pitch": 55, "duration": 7, "velocity": 74}, {"time": 3884, "pitch": 60, "duration": 2, "velocity": 93}, {"time": 3887, "pitch": 64, "duration": 3, "velocity": 103}, {"time": 3890, "pitch": 55, "duration": 3, "velocity": 65}, {"time": 3893, "pitch": 60, "duration": 1, "velocity": 93}, {"time": 3893, "pitch": 64, "duration": 3, "velocity": 105}, {"time": 3896, "pitch": 60, "duration": 2, "velocity": 72}, {"time": 3902, "pitch": 38, "duration": 15, "velocity": 87}, {"time": 3902, "pitch": 62, "duration": 6, "velocity": 85}, {"time": 3902, "pitch": 65, "duration": 9, "velocity": 95}, {"time": 3908, "pitch": 45, "duration": 10, "velocity": 59}, {"time": 3911, "pitch": 62, "duration": 2, "velocity": 93}, {"time": 3917, "pitch": 62, "duration": 2, "velocity": 80}, {"time": 3917, "pitch": 69, "duration": 2, "velocity": 95}, {"time": 3926, "pitch": 50, "duration": 23, "velocity": 87}, {"time": 3926, "pitch": 62, "duration": 6, "velocity": 80}, {"time": 3926, "pitch": 65, "duration": 8, "velocity": 87}, {"time": 3932, "pitch": 57, "duration": 9, "velocity": 67}, {"time": 3935, "pitch": 62, "duration": 3, "velocity": 95}, {"time": 3941, "pitch": 62, "duration": 3, "velocity": 102}, {"time": 3941, "pitch": 65, "duration": 4, "velocity": 102}, {"time": 3944, "pitch": 57, "duration": 6, "velocity": 74}, {"time": 3947, "pitch": 62, "duration": 2, "velocity": 102}, {"time": 3950, "pitch": 46, "duration": 16, "velocity": 67}, {"time": 3956, "pitch": 53, "duration": 10, "velocity": 74}, {"time": 3959, "pitch": 58, "duration": 6, "velocity": 72}, {"time": 3965, "pitch": 62, "duration": 2, "velocity": 70}, {"time": 3974, "pitch": 48, "duration": 18, "velocity": 74}, {"time": 3974, "pitch": 64, "duration": 8, "velocity": 69}, {"time": 3980, "pitch": 55, "duration": 11, "velocity": 68}, {"time": 3998, "pitch": 45, "duration": 18, "velocity": 83}, {"time": 4001, "pitch": 52, "duration": 15, "velocity": 68}, {"time": 4004, "pitch": 57, "duration": 3, "velocity": 71}, {"time": 4007, "pitch": 60, "duration": 6, "velocity": 90}, {"time": 4013, "pitch": 64, "duration": 4, "velocity": 103}, {"time": 4016, "pitch": 57, "duration": 3, "velocity": 69}, {"time": 4022, "pitch": 50, "duration": 19, "velocity": 80}, {"time": 4028, "pitch": 57, "duration": 12, "velocity": 68}, {"time": 4031, "pitch": 62, "duration": 6, "velocity": 74}, {"time": 4037, "pitch": 65, "duration": 8, "velocity": 83}, {"time": 4046, "pitch": 46, "duration": 16, "velocity": 80}, {"time": 4049, "pitch": 53, "duration": 10, "velocity": 53}, {"time": 4052, "pitch": 58, "duration": 3, "velocity": 64}, {"time": 4055, "pitch": 62, "duration": 9, "velocity": 90}, {"time": 4061, "pitch": 53, "duration": 5, "velocity": 70}, {"time": 4064, "pitch": 58, "duration": 3, "velocity": 63}, {"time": 4070, "pitch": 48, "duration": 16, "velocity": 74}, {"time": 4070, "pitch": 60, "duration": 7, "velocity": 66}, {"time": 4070, "pitch": 64, "duration": 10, "velocity": 71}, {"time": 4076, "pitch": 55, "duration": 9, "velocity": 70}, {"time": 4088, "pitch": 48, "duration": 1, "velocity": 18}, {"time": 4088, "pitch": 55, "duration": 4, "velocity": 85}, {"time": 4094, "pitch": 50, "duration": 21, "velocity": 90}, {"time": 4100, "pitch": 57, "duration": 17, "velocity": 68}, {"time": 4103, "pitch": 62, "duration": 6, "velocity": 87}, {"time": 4109, "pitch": 69, "duration": 34, "velocity": 87}, {"time": 4112, "pitch": 65, "duration": 31, "velocity": 66}, {"time": 4118, "pitch": 50, "duration": 25, "velocity": 74}, {"time": 4118, "pitch": 62, "duration": 23, "velocity": 1}, {"time": 4118, "pitch": 74, "duration": 25, "velocity": 64}], "annotations": [{"time": 110, "annotation": {"number": 64, "value": 127}, "group": "control_change"}, {"time": 132, "annotation": {"number": 64, "value": 0}, "group": "control_change"}, {"time": 136, "annotation": {"number": 64, "value": 127}, "group": "control_change"}, {"time": 158, "annotation": {"number": 64, "value": 0}, "group": "control_change"}, {"time": 161, "annotation": {"number": 64, "value": 127}, "group": "control_change"}, {"time": 182, "annotation": {"number": 64, "value": 0}, "group": "control_change"}, {"time": 186, "annotation": {"number": 64, "value": 127}, "group": "control_change"}, {"time": 207, "annotation": {"number": 64, "value": 0}, "group": "control_change"}, {"time": 209, "annotation": {"number": 64, "value": 127}, "group": "control_change"}, {"time": 230, "annotation": {"number": 64, "value": 0}, "group": "control_change"}, {"time": 233, "annotation": {"number": 64, "value": 127}, "group": "control_change"}, {"time": 253, "annotation": {"number": 64, "value": 0}, "group": "control_change"}, {"time": 256, "annotation": {"number": 64, "value": 127}, "group": "control_change"}, {"time": 278, "annotation": {"number": 64, "value": 0}, "group": "control_change"}, {"time": 286, "annotation": {"number": 64, "value": 127}, "group": "control_change"}, {"time": 298, "annotation": {"number": 64, "value": 0}, "group": "control_change"}, {"time": 302, "annotation": {"number": 64, "value": 127}, "group": "control_change"}, {"time": 324, "annotation": {"number": 64, "value": 0}, "group": "control_change"}, {"time": 328, "annotation": {"number": 64, "value": 127}, "group": "control_change"}, {"time": 350, "annotation": {"number": 64, "value": 0}, "group": "control_change"}, {"time": 353, "annotation": {"number": 64, "value": 127}, "group": "control_change"}, {"time": 374, "annotation": {"number": 64, "value": 0}, "group": "control_change"}, {"time": 378, "annotation": {"number": 64, "value": 127}, "group": "control_change"}, {"time": 399, "annotation": {"number": 64, "value": 0}, "group": "control_change"}, {"time": 401, "annotation": {"number": 64, "value": 127}, "group": "control_change"}, {"time": 422, "annotation": {"number": 64, "value": 0}, "group": "control_change"}, {"time": 425, "annotation": {"number": 64, "value": 127}, "group": "control_change"}, {"time": 445, "annotation": {"number": 64, "value": 0}, "group": "control_change"}, {"time": 448, "annotation": {"number": 64, "value": 127}, "group": "control_change"}, {"time": 470, "annotation": {"number": 64, "value": 0}, "group": "control_change"}, {"time": 478, "annotation": {"number": 64, "value": 127}, "group": "control_change"}, {"time": 490, "annotation": {"number": 64, "value": 0}, "group": "control_change"}, {"time": 494, "annotation": {"number": 64, "value": 127}, "group": "control_change"}, {"time": 516, "annotation": {"number": 64, "value": 0}, "group": "control_change"}, {"time": 519, "annotation": {"number": 64, "value": 127}, "group": "control_change"}, {"time": 540, "annotation": {"number": 64, "value": 0}, "group": "control_change"}, {"time": 543, "annotation": {"number": 64, "value": 127}, "group": "control_change"}, {"time": 565, "annotation": {"number": 64, "value": 0}, "group": "control_change"}, {"time": 567, "annotation": {"number": 64, "value": 127}, "group": "control_change"}, {"time": 589, "annotation": {"number": 64, "value": 0}, "group": "control_change"}, {"time": 591, "annotation": {"number": 64, "value": 127}, "group": "control_change"}, {"time": 612, "annotation": {"number": 64, "value": 0}, "group": "control_change"}, {"time": 616, "annotation": {"number": 64, "value": 127}, "group": "control_change"}, {"time": 636, "annotation": {"number": 64, "value": 0}, "group": "control_change"}, {"time": 640, "annotation": {"number": 64, "value": 127}, "group": "control_change"}, {"time": 660, "annotation": {"number": 64, "value": 0}, "group": "control_change"}, {"time": 662, "annotation": {"number": 64, "value": 127}, "group": "control_change"}, {"time": 686, "annotation": {"number": 64, "value": 127}, "group": "control_change"}, {"time": 708, "annotation": {"number": 64, "value": 0}, "group": "control_change"}, {"time": 711, "annotation": {"number": 64, "value": 127}, "group": "control_change"}, {"time": 732, "annotation": {"number": 64, "value": 0}, "group": "control_change"}, {"time": 735, "annotation": {"number": 64, "value": 127}, "group": "control_change"}, {"time": 757, "annotation": {"number": 64, "value": 0}, "group": "control_change"}, {"time": 759, "annotation": {"number": 64, "value": 127}, "group": "control_change"}, {"time": 781, "annotation": {"number": 64, "value": 0}, "group": "control_change"}, {"time": 783, "annotation": {"number": 64, "value": 127}, "group": "control_change"}, {"time": 804, "annotation": {"number": 64, "value": 0}, "group": "control_change"}, {"time": 808, "annotation": {"number": 64, "value": 127}, "group": "control_change"}, {"time": 828, "annotation": {"number": 64, "value": 0}, "group": "control_change"}, {"time": 832, "annotation": {"number": 64, "value": 127}, "group": "control_change"}, {"time": 852, "annotation": {"number": 64, "value": 0}, "group": "control_change"}, {"time": 854, "annotation": {"number": 64, "value": 127}, "group": "control_change"}, {"time": 878, "annotation": {"number": 64, "value": 127}, "group": "control_change"}, {"time": 900, "annotation": {"number": 64, "value": 0}, "group": "control_change"}, {"time": 904, "annotation": {"number": 64, "value": 127}, "group": "control_change"}, {"time": 926, "annotation": {"number": 64, "value": 0}, "group": "control_change"}, {"time": 929, "annotation": {"number": 64, "value": 127}, "group": "control_change"}, {"time": 950, "annotation": {"number": 64, "value": 0}, "group": "control_change"}, {"time": 954, "annotation": {"number": 64, "value": 127}, "group": "control_change"}, {"time": 975, "annotation": {"number": 64, "value": 0}, "group": "control_change"}, {"time": 977, "annotation": {"number": 64, "value": 127}, "group": "control_change"}, {"time": 998, "annotation": {"number": 64, "value": 0}, "group": "control_change"}, {"time": 1001, "annotation": {"number": 64, "value": 127}, "group": "control_change"}, {"time": 1021, "annotation": {"number": 64, "value": 0}, "group": "control_change"}, {"time": 1024, "annotation": {"number": 64, "value": 127}, "group": "control_change"}, {"time": 1046, "annotation": {"number": 64, "value": 0}, "group": "control_change"}, {"time": 1054, "annotation": {"number": 64, "value": 127}, "group": "control_change"}, {"time": 1066, "annotation": {"number": 64, "value": 0}, "group": "control_change"}, {"time": 1070, "annotation": {"number": 64, "value": 127}, "group": "control_change"}, {"time": 1092, "annotation": {"number": 64, "value": 0}, "group": "control_change"}, {"time": 1096, "annotation": {"number": 64, "value": 127}, "group": "control_change"}, {"time": 1118, "annotation": {"number": 64, "value": 0}, "group": "control_change"}, {"time": 1121, "annotation": {"number": 64, "value": 127}, "group": "control_change"}, {"time": 1142, "annotation": {"number": 64, "value": 0}, "group": "control_change"}, {"time": 1146, "annotation": {"number": 64, "value": 127}, "group": "control_change"}, {"time": 1167, "annotation": {"number": 64, "value": 0}, "group": "control_change"}, {"time": 1169, "annotation": {"number": 64, "value": 127}, "group": "control_change"}, {"time": 1190, "annotation": {"number": 64, "value": 0}, "group": "control_change"}, {"time": 1193, "annotation": {"number": 64, "value": 127}, "group": "control_change"}, {"time": 1213, "annotation": {"number": 64, "value": 0}, "group": "control_change"}, {"time": 1216, "annotation": {"number": 64, "value": 127}, "group": "control_change"}, {"time": 1238, "annotation": {"number": 64, "value": 0}, "group": "control_change"}, {"time": 1246, "annotation": {"number": 64, "value": 127}, "group": "control_change"}, {"time": 1258, "annotation": {"number": 64, "value": 0}, "group": "control_change"}, {"time": 1262, "annotation": {"number": 64, "value": 127}, "group": "control_change"}, {"time": 1284, "annotation": {"number": 64, "value": 0}, "group": "control_change"}, {"time": 1288, "annotation": {"number": 64, "value": 127}, "group": "control_change"}, {"time": 1308, "annotation": {"number": 64, "value": 0}, "group": "control_change"}, {"time": 1316, "annotation": {"number": 64, "value": 127}, "group": "control_change"}, {"time": 1333, "annotation": {"number": 64, "value": 0}, "group": "control_change"}, {"time": 1339, "annotation": {"number": 64, "value": 127}, "group": "control_change"}, {"time": 1358, "annotation": {"number": 64, "value": 0}, "group": "control_change"}, {"time": 1364, "annotation": {"number": 64, "value": 127}, "group": "control_change"}, {"time": 1381, "annotation": {"number": 64, "value": 0}, "group": "control_change"}, {"time": 1385, "annotation": {"number": 64, "value": 127}, "group": "control_change"}, {"time": 1403, "annotation": {"number": 64, "value": 0}, "group": "control_change"}, {"time": 1406, "annotation": {"number": 64, "value": 127}, "group": "control_change"}, {"time": 1429, "annotation": {"number": 64, "value": 0}, "group": "control_change"}, {"time": 1434, "annotation": {"number": 64, "value": 127}, "group": "control_change"}, {"time": 1449, "annotation": {"number": 64, "value": 0}, "group": "control_change"}, {"time": 1459, "annotation": {"number": 64, "value": 127}, "group": "control_change"}, {"time": 1476, "annotation": {"number": 64, "value": 0}, "group": "control_change"}, {"time": 1482, "annotation": {"number": 64, "value": 127}, "group": "control_change"}, {"time": 1508, "annotation": {"number": 64, "value": 127}, "group": "control_change"}, {"time": 1524, "annotation": {"number": 64, "value": 0}, "group": "control_change"}, {"time": 1529, "annotation": {"number": 64, "value": 127}, "group": "control_change"}, {"time": 1549, "annotation": {"number": 64, "value": 0}, "group": "control_change"}, {"time": 1555, "annotation": {"number": 64, "value": 127}, "group": "control_change"}, {"time": 1576, "annotation": {"number": 64, "value": 127}, "group": "control_change"}, {"time": 1595, "annotation": {"number": 64, "value": 0}, "group": "control_change"}, {"time": 1599, "annotation": {"number": 64, "value": 127}, "group": "control_change"}, {"time": 1620, "annotation": {"number": 64, "value": 0}, "group": "control_change"}, {"time": 1625, "annotation": {"number": 64, "value": 127}, "group": "control_change"}, {"time": 1644, "annotation": {"number": 64, "value": 0}, "group": "control_change"}, {"time": 1650, "annotation": {"number": 64, "value": 127}, "group": "control_change"}, {"time": 1669, "annotation": {"number": 64, "value": 0}, "group": "control_change"}, {"time": 1674, "annotation": {"number": 64, "value": 127}, "group": "control_change"}, {"time": 1694, "annotation": {"number": 64, "value": 0}, "group": "control_change"}, {"time": 1699, "annotation": {"number": 64, "value": 127}, "group": "control_change"}, {"time": 1717, "annotation": {"number": 64, "value": 0}, "group": "control_change"}, {"time": 1721, "annotation": {"number": 64, "value": 127}, "group": "control_change"}, {"time": 1741, "annotation": {"number": 64, "value": 0}, "group": "control_change"}, {"time": 1745, "annotation": {"number": 64, "value": 127}, "group": "control_change"}, {"time": 1765, "annotation": {"number": 64, "value": 0}, "group": "control_change"}, {"time": 1769, "annotation": {"number": 64, "value": 127}, "group": "control_change"}, {"time": 1791, "annotation": {"number": 64, "value": 0}, "group": "control_change"}, {"time": 1795, "annotation": {"number": 64, "value": 127}, "group": "control_change"}, {"time": 1813, "annotation": {"number": 64, "value": 0}, "group": "control_change"}, {"time": 1816, "annotation": {"number": 64, "value": 127}, "group": "control_change"}, {"time": 1825, "annotation": {"number": 64, "value": 0}, "group": "control_change"}, {"time": 1827, "annotation": {"number": 64, "value": 127}, "group": "control_change"}, {"time": 1837, "annotation": {"number": 64, "value": 0}, "group": "control_change"}, {"time": 1843, "annotation": {"number": 64, "value": 127}, "group": "control_change"}, {"time": 1862, "annotation": {"number": 64, "value": 0}, "group": "control_change"}, {"time": 1868, "annotation": {"number": 64, "value": 127}, "group": "control_change"}, {"time": 1886, "annotation": {"number": 64, "value": 0}, "group": "control_change"}, {"time": 1891, "annotation": {"number": 64, "value": 127}, "group": "control_change"}, {"time": 1909, "annotation": {"number": 64, "value": 0}, "group": "control_change"}, {"time": 1914, "annotation": {"number": 64, "value": 127}, "group": "control_change"}, {"time": 1933, "annotation": {"number": 64, "value": 0}, "group": "control_change"}, {"time": 1937, "annotation": {"number": 64, "value": 127}, "group": "control_change"}, {"time": 1957, "annotation": {"number": 64, "value": 0}, "group": "control_change"}, {"time": 1961, "annotation": {"number": 64, "value": 127}, "group": "control_change"}, {"time": 1982, "annotation": {"number": 64, "value": 0}, "group": "control_change"}, {"time": 1987, "annotation": {"number": 64, "value": 127}, "group": "control_change"}, {"time": 2006, "annotation": {"number": 64, "value": 0}, "group": "control_change"}, {"time": 2012, "annotation": {"number": 64, "value": 127}, "group": "control_change"}, {"time": 2028, "annotation": {"number": 64, "value": 0}, "group": "control_change"}, {"time": 2030, "annotation": {"number": 64, "value": 127}, "group": "control_change"}, {"time": 2052, "annotation": {"number": 64, "value": 0}, "group": "control_change"}, {"time": 2055, "annotation": {"number": 64, "value": 127}, "group": "control_change"}, {"time": 2076, "annotation": {"number": 64, "value": 0}, "group": "control_change"}, {"time": 2079, "annotation": {"number": 64, "value": 127}, "group": "control_change"}, {"time": 2101, "annotation": {"number": 64, "value": 0}, "group": "control_change"}, {"time": 2103, "annotation": {"number": 64, "value": 127}, "group": "control_change"}, {"time": 2125, "annotation": {"number": 64, "value": 0}, "group": "control_change"}, {"time": 2127, "annotation": {"number": 64, "value": 127}, "group": "control_change"}, {"time": 2148, "annotation": {"number": 64, "value": 0}, "group": "control_change"}, {"time": 2152, "annotation": {"number": 64, "value": 127}, "group": "control_change"}, {"time": 2172, "annotation": {"number": 64, "value": 0}, "group": "control_change"}, {"time": 2176, "annotation": {"number": 64, "value": 127}, "group": "control_change"}, {"time": 2196, "annotation": {"number": 64, "value": 0}, "group": "control_change"}, {"time": 2198, "annotation": {"number": 64, "value": 127}, "group": "control_change"}, {"time": 2222, "annotation": {"number": 64, "value": 127}, "group": "control_change"}, {"time": 2244, "annotation": {"number": 64, "value": 0}, "group": "control_change"}, {"time": 2247, "annotation": {"number": 64, "value": 127}, "group": "control_change"}, {"time": 2268, "annotation": {"number": 64, "value": 0}, "group": "control_change"}, {"time": 2271, "annotation": {"number": 64, "value": 127}, "group": "control_change"}, {"time": 2293, "annotation": {"number": 64, "value": 0}, "group": "control_change"}, {"time": 2295, "annotation": {"number": 64, "value": 127}, "group": "control_change"}, {"time": 2317, "annotation": {"number": 64, "value": 0}, "group": "control_change"}, {"time": 2319, "annotation": {"number": 64, "value": 127}, "group": "control_change"}, {"time": 2340, "annotation": {"number": 64, "value": 0}, "group": "control_change"}, {"time": 2344, "annotation": {"number": 64, "value": 127}, "group": "control_change"}, {"time": 2364, "annotation": {"number": 64, "value": 0}, "group": "control_change"}, {"time": 2368, "annotation": {"number": 64, "value": 127}, "group": "control_change"}, {"time": 2388, "annotation": {"number": 64, "value": 0}, "group": "control_change"}, {"time": 2390, "annotation": {"number": 64, "value": 127}, "group": "control_change"}, {"time": 2414, "annotation": {"number": 64, "value": 127}, "group": "control_change"}, {"time": 2436, "annotation": {"number": 64, "value": 0}, "group": "control_change"}, {"time": 2440, "annotation": {"number": 64, "value": 127}, "group": "control_change"}, {"time": 2462, "annotation": {"number": 64, "value": 0}, "group": "control_change"}, {"time": 2465, "annotation": {"number": 64, "value": 127}, "group": "control_change"}, {"time": 2486, "annotation": {"number": 64, "value": 0}, "group": "control_change"}, {"time": 2490, "annotation": {"number": 64, "value": 127}, "group": "control_change"}, {"time": 2511, "annotation": {"number": 64, "value": 0}, "group": "control_change"}, {"time": 2513, "annotation": {"number": 64, "value": 127}, "group": "control_change"}, {"time": 2534, "annotation": {"number": 64, "value": 0}, "group": "control_change"}, {"time": 2537, "annotation": {"number": 64, "value": 127}, "group": "control_change"}, {"time": 2557, "annotation": {"number": 64, "value": 0}, "group": "control_change"}, {"time": 2560, "annotation": {"number": 64, "value": 127}, "group": "control_change"}, {"time": 2582, "annotation": {"number": 64, "value": 0}, "group": "control_change"}, {"time": 2590, "annotation": {"number": 64, "value": 127}, "group": "control_change"}, {"time": 2602, "annotation": {"number": 64, "value": 0}, "group": "control_change"}, {"time": 2606, "annotation": {"number": 64, "value": 127}, "group": "control_change"}, {"time": 2628, "annotation": {"number": 64, "value": 0}, "group": "control_change"}, {"time": 2632, "annotation": {"number": 64, "value": 127}, "group": "control_change"}, {"time": 2654, "annotation": {"number": 64, "value": 0}, "group": "control_change"}, {"time": 2657, "annotation": {"number": 64, "value": 127}, "group": "control_change"}, {"time": 2678, "annotation": {"number": 64, "value": 0}, "group": "control_change"}, {"time": 2682, "annotation": {"number": 64, "value": 127}, "group": "control_change"}, {"time": 2703, "annotation": {"number": 64, "value": 0}, "group": "control_change"}, {"time": 2705, "annotation": {"number": 64, "value": 127}, "group": "control_change"}, {"time": 2726, "annotation": {"number": 64, "value": 0}, "group": "control_change"}, {"time": 2729, "annotation": {"number": 64, "value": 127}, "group": "control_change"}, {"time": 2749, "annotation": {"number": 64, "value": 0}, "group": "control_change"}, {"time": 2752, "annotation": {"number": 64, "value": 127}, "group": "control_change"}, {"time": 2774, "annotation": {"number": 64, "value": 0}, "group": "control_change"}, {"time": 2782, "annotation": {"number": 64, "value": 127}, "group": "control_change"}, {"time": 2794, "annotation": {"number": 64, "value": 0}, "group": "control_change"}, {"time": 2798, "annotation": {"number": 64, "value": 127}, "group": "control_change"}, {"time": 2820, "annotation": {"number": 64, "value": 0}, "group": "control_change"}, {"time": 2824, "annotation": {"number": 64, "value": 127}, "group": "control_change"}, {"time": 2844, "annotation": {"number": 64, "value": 0}, "group": "control_change"}, {"time": 2852, "annotation": {"number": 64, "value": 127}, "group": "control_change"}, {"time": 2869, "annotation": {"number": 64, "value": 0}, "group": "control_change"}, {"time": 2875, "annotation": {"number": 64, "value": 127}, "group": "control_change"}, {"time": 2894, "annotation": {"number": 64, "value": 0}, "group": "control_change"}, {"time": 2900, "annotation": {"number": 64, "value": 127}, "group": "control_change"}, {"time": 2917, "annotation": {"number": 64, "value": 0}, "group": "control_change"}, {"time": 2921, "annotation": {"number": 64, "value": 127}, "group": "control_change"}, {"time": 2939, "annotation": {"number": 64, "value": 0}, "group": "control_change"}, {"time": 2942, "annotation": {"number": 64, "value": 127}, "group": "control_change"}, {"time": 2965, "annotation": {"number": 64, "value": 0}, "group": "control_change"}, {"time": 2970, "annotation": {"number": 64, "value": 127}, "group": "control_change"}, {"time": 2985, "annotation": {"number": 64, "value": 0}, "group": "control_change"}, {"time": 2995, "annotation": {"number": 64, "value": 127}, "group": "control_change"}, {"time": 3012, "annotation": {"number": 64, "value": 0}, "group": "control_change"}, {"time": 3018, "annotation": {"number": 64, "value": 127}, "group": "control_change"}, {"time": 3044, "annotation": {"number": 64, "value": 127}, "group": "control_change"}, {"time": 3060, "annotation": {"number": 64, "value": 0}, "group": "control_change"}, {"time": 3065, "annotation": {"number": 64, "value": 127}, "group": "control_change"}, {"time": 3085, "annotation": {"number": 64, "value": 0}, "group": "control_change"}, {"time": 3091, "annotation": {"number": 64, "value": 127}, "group": "control_change"}, {"time": 3112, "annotation": {"number": 64, "value": 127}, "group": "control_change"}, {"time": 3131, "annotation": {"number": 64, "value": 0}, "group": "control_change"}, {"time": 3135, "annotation": {"number": 64, "value": 127}, "group": "control_change"}, {"time": 3156, "annotation": {"number": 64, "value": 0}, "group": "control_change"}, {"time": 3161, "annotation": {"number": 64, "value": 127}, "group": "control_change"}, {"time": 3180, "annotation": {"number": 64, "value": 0}, "group": "control_change"}, {"time": 3186, "annotation": {"number": 64, "value": 127}, "group": "control_change"}, {"time": 3205, "annotation": {"number": 64, "value": 0}, "group": "control_change"}, {"time": 3210, "annotation": {"number": 64, "value": 127}, "group": "control_change"}, {"time": 3230, "annotation": {"number": 64, "value": 0}, "group": "control_change"}, {"time": 3235, "annotation": {"number": 64, "value": 127}, "group": "control_change"}, {"time": 3253, "annotation": {"number": 64, "value": 0}, "group": "control_change"}, {"time": 3257, "annotation": {"number": 64, "value": 127}, "group": "control_change"}, {"time": 3277, "annotation": {"number": 64, "value": 0}, "group": "control_change"}, {"time": 3281, "annotation": {"number": 64, "value": 127}, "group": "control_change"}, {"time": 3301, "annotation": {"number": 64, "value": 0}, "group": "control_change"}, {"time": 3305, "annotation": {"number": 64, "value": 127}, "group": "control_change"}, {"time": 3327, "annotation": {"number": 64, "value": 0}, "group": "control_change"}, {"time": 3331, "annotation": {"number": 64, "value": 127}, "group": "control_change"}, {"time": 3349, "annotation": {"number": 64, "value": 0}, "group": "control_change"}, {"time": 3352, "annotation": {"number": 64, "value": 127}, "group": "control_change"}, {"time": 3361, "annotation": {"number": 64, "value": 0}, "group": "control_change"}, {"time": 3363, "annotation": {"number": 64, "value": 127}, "group": "control_change"}, {"time": 3373, "annotation": {"number": 64, "value": 0}, "group": "control_change"}, {"time": 3379, "annotation": {"number": 64, "value": 127}, "group": "control_change"}, {"time": 3398, "annotation": {"number": 64, "value": 0}, "group": "control_change"}, {"time": 3404, "annotation": {"number": 64, "value": 127}, "group": "control_change"}, {"time": 3422, "annotation": {"number": 64, "value": 0}, "group": "control_change"}, {"time": 3427, "annotation": {"number": 64, "value": 127}, "group": "control_change"}, {"time": 3445, "annotation": {"number": 64, "value": 0}, "group": "control_change"}, {"time": 3450, "annotation": {"number": 64, "value": 127}, "group": "control_change"}, {"time": 3469, "annotation": {"number": 64, "value": 0}, "group": "control_change"}, {"time": 3473, "annotation": {"number": 64, "value": 127}, "group": "control_change"}, {"time": 3493, "annotation": {"number": 64, "value": 0}, "group": "control_change"}, {"time": 3497, "annotation": {"number": 64, "value": 127}, "group": "control_change"}, {"time": 3518, "annotation": {"number": 64, "value": 0}, "group": "control_change"}, {"time": 3523, "annotation": {"number": 64, "value": 127}, "group": "control_change"}, {"time": 3542, "annotation": {"number": 64, "value": 0}, "group": "control_change"}, {"time": 3548, "annotation": {"number": 64, "value": 127}, "group": "control_change"}, {"time": 3564, "annotation": {"number": 64, "value": 0}, "group": "control_change"}, {"time": 3567, "annotation": {"number": 64, "value": 127}, "group": "control_change"}, {"time": 3593, "annotation": {"number": 64, "value": 0}, "group": "control_change"}, {"time": 3603, "annotation": {"number": 64, "value": 127}, "group": "control_change"}, {"time": 3614, "annotation": {"number": 64, "value": 0}, "group": "control_change"}, {"time": 3618, "annotation": {"number": 64, "value": 127}, "group": "control_change"}, {"time": 3637, "annotation": {"number": 64, "value": 0}, "group": "control_change"}, {"time": 3643, "annotation": {"number": 64, "value": 127}, "group": "control_change"}, {"time": 3662, "annotation": {"number": 64, "value": 0}, "group": "control_change"}, {"time": 3668, "annotation": {"number": 64, "value": 127}, "group": "control_change"}, {"time": 3686, "annotation": {"number": 64, "value": 0}, "group": "control_change"}, {"time": 3691, "annotation": {"number": 64, "value": 127}, "group": "control_change"}, {"time": 3705, "annotation": {"number": 64, "value": 0}, "group": "control_change"}, {"time": 3711, "annotation": {"number": 64, "value": 0}, "group": "control_change"}, {"time": 3715, "annotation": {"number": 64, "value": 127}, "group": "control_change"}, {"time": 3733, "annotation": {"number": 64, "value": 0}, "group": "control_change"}, {"time": 3736, "annotation": {"number": 64, "value": 127}, "group": "control_change"}, {"time": 3745, "annotation": {"number": 64, "value": 0}, "group": "control_change"}, {"time": 3747, "annotation": {"number": 64, "value": 127}, "group": "control_change"}, {"time": 3757, "annotation": {"number": 64, "value": 0}, "group": "control_change"}, {"time": 3763, "annotation": {"number": 64, "value": 127}, "group": "control_change"}, {"time": 3782, "annotation": {"number": 64, "value": 0}, "group": "control_change"}, {"time": 3788, "annotation": {"number": 64, "value": 127}, "group": "control_change"}, {"time": 3806, "annotation": {"number": 64, "value": 0}, "group": "control_change"}, {"time": 3811, "annotation": {"number": 64, "value": 127}, "group": "control_change"}, {"time": 3829, "annotation": {"number": 64, "value": 0}, "group": "control_change"}, {"time": 3834, "annotation": {"number": 64, "value": 127}, "group": "control_change"}, {"time": 3853, "annotation": {"number": 64, "value": 0}, "group": "control_change"}, {"time": 3857, "annotation": {"number": 64, "value": 127}, "group": "control_change"}, {"time": 3877, "annotation": {"number": 64, "value": 0}, "group": "control_change"}, {"time": 3881, "annotation": {"number": 64, "value": 127}, "group": "control_change"}, {"time": 3902, "annotation": {"number": 64, "value": 0}, "group": "control_change"}, {"time": 3907, "annotation": {"number": 64, "value": 127}, "group": "control_change"}, {"time": 3926, "annotation": {"number": 64, "value": 0}, "group": "control_change"}, {"time": 3932, "annotation": {"number": 64, "value": 127}, "group": "control_change"}, {"time": 3948, "annotation": {"number": 64, "value": 0}, "group": "control_change"}, {"time": 3957, "annotation": {"number": 64, "value": 127}, "group": "control_change"}, {"time": 3974, "annotation": {"number": 64, "value": 0}, "group": "control_change"}, {"time": 3980, "annotation": {"number": 64, "value": 127}, "group": "control_change"}, {"time": 3997, "annotation": {"number": 64, "value": 0}, "group": "control_change"}, {"time": 4002, "annotation": {"number": 64, "value": 127}, "group": "control_change"}, {"time": 4023, "annotation": {"number": 64, "value": 0}, "group": "control_change"}, {"time": 4028, "annotation": {"number": 64, "value": 127}, "group": "control_change"}, {"time": 4046, "annotation": {"number": 64, "value": 0}, "group": "control_change"}, {"time": 4049, "annotation": {"number": 64, "value": 127}, "group": "control_change"}, {"time": 4072, "annotation": {"number": 64, "value": 0}, "group": "control_change"}, {"time": 4075, "annotation": {"number": 64, "value": 127}, "group": "control_change"}, {"time": 4093, "annotation": {"number": 64, "value": 0}, "group": "control_change"}, {"time": 4097, "annotation": {"number": 64, "value": 127}, "group": "control_change"}, {"time": 4118, "annotation": {"number": 64, "value": 0}, "group": "control_change"}]}]}