{"metadata": {"schema_version": "0.2", "title": "None", "source_filename": "074.mid", "source_format": "midi"}, "resolution": 12, "tempos": [{"time": 0, "qpm": 73.00007178340392}], "time_signatures": [{"time": 0, "numerator": 1, "denominator": 4}], "tracks": [{"program": 0, "is_drum": false, "name": "MELODY", "notes": [{"time": 210, "pitch": 69, "duration": 6, "velocity": 112}, {"time": 216, "pitch": 67, "duration": 6, "velocity": 75}, {"time": 222, "pitch": 69, "duration": 4, "velocity": 90}, {"time": 228, "pitch": 71, "duration": 8, "velocity": 86}, {"time": 240, "pitch": 69, "duration": 6, "velocity": 98}, {"time": 246, "pitch": 67, "duration": 5, "velocity": 65}, {"time": 252, "pitch": 69, "duration": 4, "velocity": 77}, {"time": 258, "pitch": 67, "duration": 3, "velocity": 70}, {"time": 264, "pitch": 67, "duration": 5, "velocity": 74}, {"time": 270, "pitch": 64, "duration": 5, "velocity": 76}, {"time": 276, "pitch": 69, "duration": 18, "velocity": 87}, {"time": 306, "pitch": 69, "duration": 4, "velocity": 72}, {"time": 312, "pitch": 67, "duration": 3, "velocity": 87}, {"time": 318, "pitch": 69, "duration": 3, "velocity": 98}, {"time": 324, "pitch": 71, "duration": 8, "velocity": 85}, {"time": 336, "pitch": 69, "duration": 4, "velocity": 95}, {"time": 342, "pitch": 67, "duration": 4, "velocity": 79}, {"time": 348, "pitch": 69, "duration": 4, "velocity": 77}, {"time": 354, "pitch": 67, "duration": 2, "velocity": 73}, {"time": 360, "pitch": 67, "duration": 5, "velocity": 87}, {"time": 366, "pitch": 64, "duration": 6, "velocity": 81}, {"time": 372, "pitch": 62, "duration": 4, "velocity": 83}, {"time": 402, "pitch": 74, "duration": 3, "velocity": 86}, {"time": 408, "pitch": 74, "duration": 2, "velocity": 112}, {"time": 414, "pitch": 74, "duration": 3, "velocity": 114}, {"time": 420, "pitch": 71, "duration": 3, "velocity": 87}, {"time": 426, "pitch": 71, "duration": 3, "velocity": 83}, {"time": 432, "pitch": 71, "duration": 2, "velocity": 86}, {"time": 438, "pitch": 72, "duration": 3, "velocity": 83}, {"time": 444, "pitch": 74, "duration": 8, "velocity": 112}, {"time": 456, "pitch": 72, "duration": 2, "velocity": 100}, {"time": 462, "pitch": 72, "duration": 31, "velocity": 100}, {"time": 498, "pitch": 69, "duration": 2, "velocity": 87}, {"time": 504, "pitch": 69, "duration": 3, "velocity": 76}, {"time": 510, "pitch": 71, "duration": 3, "velocity": 86}, {"time": 516, "pitch": 69, "duration": 5, "velocity": 85}, {"time": 522, "pitch": 67, "duration": 2, "velocity": 74}, {"time": 528, "pitch": 64, "duration": 3, "velocity": 66}, {"time": 534, "pitch": 67, "duration": 3, "velocity": 81}, {"time": 540, "pitch": 76, "duration": 4, "velocity": 117}, {"time": 546, "pitch": 76, "duration": 4, "velocity": 112}, {"time": 552, "pitch": 76, "duration": 4, "velocity": 120}, {"time": 558, "pitch": 74, "duration": 2, "velocity": 93}, {"time": 564, "pitch": 74, "duration": 23, "velocity": 112}, {"time": 594, "pitch": 69, "duration": 6, "velocity": 112}, {"time": 600, "pitch": 67, "duration": 6, "velocity": 75}, {"time": 606, "pitch": 69, "duration": 4, "velocity": 90}, {"time": 612, "pitch": 71, "duration": 8, "velocity": 86}, {"time": 624, "pitch": 69, "duration": 6, "velocity": 98}, {"time": 630, "pitch": 67, "duration": 5, "velocity": 65}, {"time": 636, "pitch": 69, "duration": 4, "velocity": 77}, {"time": 642, "pitch": 67, "duration": 3, "velocity": 70}, {"time": 648, "pitch": 67, "duration": 5, "velocity": 74}, {"time": 654, "pitch": 64, "duration": 5, "velocity": 76}, {"time": 660, "pitch": 69, "duration": 18, "velocity": 87}, {"time": 690, "pitch": 69, "duration": 4, "velocity": 72}, {"time": 696, "pitch": 67, "duration": 3, "velocity": 87}, {"time": 702, "pitch": 69, "duration": 3, "velocity": 98}, {"time": 708, "pitch": 71, "duration": 8, "velocity": 85}, {"time": 720, "pitch": 69, "duration": 4, "velocity": 95}, {"time": 726, "pitch": 67, "duration": 4, "velocity": 79}, {"time": 732, "pitch": 71, "duration": 4, "velocity": 77}, {"time": 738, "pitch": 72, "duration": 2, "velocity": 83}, {"time": 744, "pitch": 74, "duration": 3, "velocity": 104}, {"time": 750, "pitch": 71, "duration": 3, "velocity": 83}, {"time": 756, "pitch": 74, "duration": 7, "velocity": 117}, {"time": 786, "pitch": 74, "duration": 3, "velocity": 86}, {"time": 792, "pitch": 74, "duration": 2, "velocity": 112}, {"time": 798, "pitch": 74, "duration": 3, "velocity": 114}, {"time": 804, "pitch": 76, "duration": 9, "velocity": 112}, {"time": 816, "pitch": 71, "duration": 6, "velocity": 86}, {"time": 822, "pitch": 72, "duration": 5, "velocity": 90}, {"time": 828, "pitch": 74, "duration": 5, "velocity": 111}, {"time": 840, "pitch": 72, "duration": 2, "velocity": 95}, {"time": 846, "pitch": 72, "duration": 31, "velocity": 104}, {"time": 882, "pitch": 69, "duration": 2, "velocity": 86}, {"time": 888, "pitch": 69, "duration": 2, "velocity": 86}, {"time": 894, "pitch": 67, "duration": 3, "velocity": 75}, {"time": 900, "pitch": 71, "duration": 7, "velocity": 104}, {"time": 906, "pitch": 69, "duration": 4, "velocity": 76}, {"time": 912, "pitch": 67, "duration": 6, "velocity": 72}, {"time": 918, "pitch": 64, "duration": 7, "velocity": 65}, {"time": 924, "pitch": 69, "duration": 2, "velocity": 77}, {"time": 930, "pitch": 67, "duration": 1, "velocity": 75}, {"time": 936, "pitch": 69, "duration": 2, "velocity": 76}, {"time": 942, "pitch": 67, "duration": 67, "velocity": 66}, {"time": 1026, "pitch": 74, "duration": 3, "velocity": 112}, {"time": 1032, "pitch": 74, "duration": 2, "velocity": 108}, {"time": 1038, "pitch": 74, "duration": 2, "velocity": 95}, {"time": 1044, "pitch": 76, "duration": 5, "velocity": 111}, {"time": 1053, "pitch": 78, "duration": 1, "velocity": 90}, {"time": 1056, "pitch": 76, "duration": 2, "velocity": 100}, {"time": 1062, "pitch": 74, "duration": 3, "velocity": 104}, {"time": 1068, "pitch": 71, "duration": 4, "velocity": 93}, {"time": 1074, "pitch": 71, "duration": 2, "velocity": 85}, {"time": 1080, "pitch": 71, "duration": 2, "velocity": 90}, {"time": 1086, "pitch": 69, "duration": 3, "velocity": 79}, {"time": 1092, "pitch": 69, "duration": 23, "velocity": 87}, {"time": 1122, "pitch": 74, "duration": 2, "velocity": 120}, {"time": 1128, "pitch": 74, "duration": 2, "velocity": 114}, {"time": 1134, "pitch": 74, "duration": 2, "velocity": 112}, {"time": 1140, "pitch": 71, "duration": 5, "velocity": 100}, {"time": 1146, "pitch": 69, "duration": 2, "velocity": 83}, {"time": 1152, "pitch": 69, "duration": 3, "velocity": 95}, {"time": 1158, "pitch": 67, "duration": 3, "velocity": 86}, {"time": 1164, "pitch": 69, "duration": 4, "velocity": 100}, {"time": 1170, "pitch": 67, "duration": 2, "velocity": 69}, {"time": 1176, "pitch": 69, "duration": 3, "velocity": 79}, {"time": 1182, "pitch": 71, "duration": 3, "velocity": 81}, {"time": 1188, "pitch": 71, "duration": 24, "velocity": 95}, {"time": 1218, "pitch": 66, "duration": 4, "velocity": 95}, {"time": 1224, "pitch": 67, "duration": 2, "velocity": 85}, {"time": 1230, "pitch": 69, "duration": 2, "velocity": 90}, {"time": 1236, "pitch": 71, "duration": 6, "velocity": 93}, {"time": 1242, "pitch": 69, "duration": 3, "velocity": 81}, {"time": 1248, "pitch": 71, "duration": 3, "velocity": 83}, {"time": 1254, "pitch": 74, "duration": 4, "velocity": 75}, {"time": 1260, "pitch": 71, "duration": 6, "velocity": 77}, {"time": 1266, "pitch": 69, "duration": 3, "velocity": 76}, {"time": 1272, "pitch": 67, "duration": 4, "velocity": 71}, {"time": 1278, "pitch": 69, "duration": 5, "velocity": 76}, {"time": 1284, "pitch": 64, "duration": 7, "velocity": 64}, {"time": 1314, "pitch": 67, "duration": 2, "velocity": 100}, {"time": 1320, "pitch": 67, "duration": 3, "velocity": 90}, {"time": 1326, "pitch": 69, "duration": 4, "velocity": 87}, {"time": 1332, "pitch": 71, "duration": 4, "velocity": 111}, {"time": 1338, "pitch": 69, "duration": 2, "velocity": 77}, {"time": 1344, "pitch": 71, "duration": 3, "velocity": 98}, {"time": 1350, "pitch": 74, "duration": 4, "velocity": 111}, {"time": 1356, "pitch": 76, "duration": 4, "velocity": 86}, {"time": 1362, "pitch": 74, "duration": 3, "velocity": 86}, {"time": 1368, "pitch": 74, "duration": 5, "velocity": 104}, {"time": 1374, "pitch": 71, "duration": 3, "velocity": 83}, {"time": 1380, "pitch": 71, "duration": 2, "velocity": 104}, {"time": 1386, "pitch": 71, "duration": 3, "velocity": 100}, {"time": 1392, "pitch": 71, "duration": 2, "velocity": 111}, {"time": 1398, "pitch": 69, "duration": 7, "velocity": 95}, {"time": 1410, "pitch": 74, "duration": 3, "velocity": 112}, {"time": 1416, "pitch": 74, "duration": 2, "velocity": 108}, {"time": 1422, "pitch": 74, "duration": 2, "velocity": 95}, {"time": 1428, "pitch": 76, "duration": 5, "velocity": 111}, {"time": 1437, "pitch": 78, "duration": 1, "velocity": 90}, {"time": 1440, "pitch": 76, "duration": 2, "velocity": 100}, {"time": 1446, "pitch": 74, "duration": 3, "velocity": 104}, {"time": 1452, "pitch": 71, "duration": 4, "velocity": 93}, {"time": 1458, "pitch": 71, "duration": 2, "velocity": 85}, {"time": 1464, "pitch": 71, "duration": 2, "velocity": 90}, {"time": 1470, "pitch": 69, "duration": 3, "velocity": 79}, {"time": 1476, "pitch": 69, "duration": 23, "velocity": 87}, {"time": 1506, "pitch": 74, "duration": 2, "velocity": 120}, {"time": 1512, "pitch": 74, "duration": 2, "velocity": 114}, {"time": 1518, "pitch": 74, "duration": 2, "velocity": 112}, {"time": 1524, "pitch": 71, "duration": 5, "velocity": 100}, {"time": 1530, "pitch": 69, "duration": 2, "velocity": 83}, {"time": 1536, "pitch": 69, "duration": 3, "velocity": 95}, {"time": 1542, "pitch": 67, "duration": 3, "velocity": 86}, {"time": 1548, "pitch": 69, "duration": 4, "velocity": 100}, {"time": 1554, "pitch": 67, "duration": 2, "velocity": 69}, {"time": 1560, "pitch": 69, "duration": 3, "velocity": 79}, {"time": 1566, "pitch": 71, "duration": 3, "velocity": 81}, {"time": 1572, "pitch": 71, "duration": 24, "velocity": 95}, {"time": 1602, "pitch": 66, "duration": 4, "velocity": 95}, {"time": 1608, "pitch": 67, "duration": 2, "velocity": 85}, {"time": 1614, "pitch": 69, "duration": 2, "velocity": 90}, {"time": 1620, "pitch": 71, "duration": 6, "velocity": 93}, {"time": 1626, "pitch": 69, "duration": 3, "velocity": 81}, {"time": 1632, "pitch": 71, "duration": 3, "velocity": 83}, {"time": 1638, "pitch": 74, "duration": 4, "velocity": 75}, {"time": 1644, "pitch": 76, "duration": 4, "velocity": 98}, {"time": 1650, "pitch": 74, "duration": 3, "velocity": 83}, {"time": 1656, "pitch": 74, "duration": 3, "velocity": 111}, {"time": 1662, "pitch": 71, "duration": 3, "velocity": 77}, {"time": 1668, "pitch": 74, "duration": 24, "velocity": 104}, {"time": 1698, "pitch": 76, "duration": 3, "velocity": 87}, {"time": 1704, "pitch": 76, "duration": 3, "velocity": 90}, {"time": 1710, "pitch": 74, "duration": 3, "velocity": 111}, {"time": 1716, "pitch": 71, "duration": 5, "velocity": 85}, {"time": 1725, "pitch": 74, "duration": 2, "velocity": 108}, {"time": 1728, "pitch": 71, "duration": 3, "velocity": 86}, {"time": 1734, "pitch": 69, "duration": 7, "velocity": 93}, {"time": 1746, "pitch": 69, "duration": 2, "velocity": 104}, {"time": 1752, "pitch": 69, "duration": 3, "velocity": 104}, {"time": 1758, "pitch": 67, "duration": 2, "velocity": 81}, {"time": 1764, "pitch": 71, "duration": 3, "velocity": 93}, {"time": 1770, "pitch": 69, "duration": 3, "velocity": 104}, {"time": 1776, "pitch": 67, "duration": 3, "velocity": 86}, {"time": 1782, "pitch": 64, "duration": 3, "velocity": 79}, {"time": 1788, "pitch": 67, "duration": 53, "velocity": 93}, {"time": 2178, "pitch": 71, "duration": 2, "velocity": 95}, {"time": 2184, "pitch": 71, "duration": 2, "velocity": 95}, {"time": 2190, "pitch": 71, "duration": 2, "velocity": 93}, {"time": 2196, "pitch": 71, "duration": 8, "velocity": 86}, {"time": 2208, "pitch": 69, "duration": 6, "velocity": 98}, {"time": 2214, "pitch": 67, "duration": 5, "velocity": 65}, {"time": 2220, "pitch": 69, "duration": 4, "velocity": 77}, {"time": 2226, "pitch": 71, "duration": 6, "velocity": 100}, {"time": 2232, "pitch": 69, "duration": 5, "velocity": 74}, {"time": 2238, "pitch": 67, "duration": 5, "velocity": 76}, {"time": 2244, "pitch": 69, "duration": 18, "velocity": 87}, {"time": 2274, "pitch": 69, "duration": 4, "velocity": 72}, {"time": 2280, "pitch": 67, "duration": 3, "velocity": 87}, {"time": 2286, "pitch": 69, "duration": 3, "velocity": 98}, {"time": 2292, "pitch": 71, "duration": 8, "velocity": 85}, {"time": 2304, "pitch": 67, "duration": 4, "velocity": 79}, {"time": 2310, "pitch": 69, "duration": 4, "velocity": 95}, {"time": 2316, "pitch": 71, "duration": 4, "velocity": 77}, {"time": 2322, "pitch": 72, "duration": 2, "velocity": 83}, {"time": 2328, "pitch": 74, "duration": 3, "velocity": 104}, {"time": 2334, "pitch": 71, "duration": 3, "velocity": 83}, {"time": 2340, "pitch": 74, "duration": 7, "velocity": 117}, {"time": 2370, "pitch": 74, "duration": 3, "velocity": 86}, {"time": 2376, "pitch": 74, "duration": 2, "velocity": 112}, {"time": 2382, "pitch": 74, "duration": 3, "velocity": 114}, {"time": 2388, "pitch": 76, "duration": 9, "velocity": 112}, {"time": 2400, "pitch": 71, "duration": 6, "velocity": 86}, {"time": 2406, "pitch": 72, "duration": 5, "velocity": 90}, {"time": 2412, "pitch": 74, "duration": 5, "velocity": 111}, {"time": 2424, "pitch": 76, "duration": 2, "velocity": 95}, {"time": 2430, "pitch": 72, "duration": 31, "velocity": 104}, {"time": 2466, "pitch": 69, "duration": 2, "velocity": 86}, {"time": 2472, "pitch": 69, "duration": 2, "velocity": 86}, {"time": 2478, "pitch": 67, "duration": 3, "velocity": 75}, {"time": 2484, "pitch": 71, "duration": 7, "velocity": 104}, {"time": 2490, "pitch": 69, "duration": 4, "velocity": 76}, {"time": 2496, "pitch": 67, "duration": 6, "velocity": 72}, {"time": 2502, "pitch": 64, "duration": 7, "velocity": 65}, {"time": 2508, "pitch": 69, "duration": 2, "velocity": 77}, {"time": 2514, "pitch": 67, "duration": 1, "velocity": 75}, {"time": 2520, "pitch": 69, "duration": 2, "velocity": 76}, {"time": 2526, "pitch": 67, "duration": 67, "velocity": 66}, {"time": 2610, "pitch": 74, "duration": 3, "velocity": 112}, {"time": 2616, "pitch": 74, "duration": 2, "velocity": 108}, {"time": 2622, "pitch": 74, "duration": 2, "velocity": 95}, {"time": 2628, "pitch": 76, "duration": 5, "velocity": 111}, {"time": 2637, "pitch": 78, "duration": 1, "velocity": 90}, {"time": 2640, "pitch": 76, "duration": 2, "velocity": 100}, {"time": 2646, "pitch": 74, "duration": 3, "velocity": 104}, {"time": 2652, "pitch": 71, "duration": 4, "velocity": 93}, {"time": 2658, "pitch": 71, "duration": 2, "velocity": 85}, {"time": 2664, "pitch": 71, "duration": 2, "velocity": 90}, {"time": 2670, "pitch": 69, "duration": 3, "velocity": 79}, {"time": 2676, "pitch": 69, "duration": 23, "velocity": 87}, {"time": 2706, "pitch": 74, "duration": 2, "velocity": 120}, {"time": 2712, "pitch": 74, "duration": 2, "velocity": 114}, {"time": 2718, "pitch": 74, "duration": 2, "velocity": 112}, {"time": 2724, "pitch": 71, "duration": 5, "velocity": 100}, {"time": 2730, "pitch": 69, "duration": 2, "velocity": 83}, {"time": 2736, "pitch": 69, "duration": 3, "velocity": 95}, {"time": 2742, "pitch": 67, "duration": 3, "velocity": 86}, {"time": 2748, "pitch": 69, "duration": 4, "velocity": 100}, {"time": 2754, "pitch": 67, "duration": 2, "velocity": 69}, {"time": 2760, "pitch": 69, "duration": 3, "velocity": 79}, {"time": 2766, "pitch": 71, "duration": 3, "velocity": 81}, {"time": 2772, "pitch": 71, "duration": 24, "velocity": 95}, {"time": 2802, "pitch": 66, "duration": 4, "velocity": 95}, {"time": 2808, "pitch": 67, "duration": 2, "velocity": 85}, {"time": 2814, "pitch": 69, "duration": 2, "velocity": 90}, {"time": 2820, "pitch": 71, "duration": 6, "velocity": 93}, {"time": 2826, "pitch": 69, "duration": 3, "velocity": 81}, {"time": 2832, "pitch": 71, "duration": 3, "velocity": 83}, {"time": 2838, "pitch": 74, "duration": 4, "velocity": 75}, {"time": 2844, "pitch": 71, "duration": 6, "velocity": 77}, {"time": 2850, "pitch": 69, "duration": 3, "velocity": 76}, {"time": 2856, "pitch": 67, "duration": 4, "velocity": 71}, {"time": 2862, "pitch": 69, "duration": 5, "velocity": 76}, {"time": 2868, "pitch": 64, "duration": 7, "velocity": 64}, {"time": 2898, "pitch": 67, "duration": 2, "velocity": 100}, {"time": 2904, "pitch": 67, "duration": 3, "velocity": 90}, {"time": 2910, "pitch": 69, "duration": 4, "velocity": 87}, {"time": 2916, "pitch": 71, "duration": 4, "velocity": 111}, {"time": 2922, "pitch": 69, "duration": 2, "velocity": 77}, {"time": 2928, "pitch": 71, "duration": 3, "velocity": 98}, {"time": 2934, "pitch": 74, "duration": 4, "velocity": 111}, {"time": 2940, "pitch": 76, "duration": 4, "velocity": 86}, {"time": 2946, "pitch": 74, "duration": 3, "velocity": 86}, {"time": 2952, "pitch": 74, "duration": 5, "velocity": 104}, {"time": 2958, "pitch": 71, "duration": 3, "velocity": 83}, {"time": 2964, "pitch": 71, "duration": 2, "velocity": 104}, {"time": 2970, "pitch": 71, "duration": 3, "velocity": 100}, {"time": 2976, "pitch": 71, "duration": 2, "velocity": 111}, {"time": 2982, "pitch": 69, "duration": 7, "velocity": 95}, {"time": 2994, "pitch": 74, "duration": 3, "velocity": 112}, {"time": 3000, "pitch": 74, "duration": 2, "velocity": 108}, {"time": 3006, "pitch": 74, "duration": 2, "velocity": 95}, {"time": 3012, "pitch": 76, "duration": 5, "velocity": 111}, {"time": 3021, "pitch": 78, "duration": 1, "velocity": 90}, {"time": 3024, "pitch": 76, "duration": 2, "velocity": 100}, {"time": 3030, "pitch": 74, "duration": 3, "velocity": 104}, {"time": 3036, "pitch": 71, "duration": 4, "velocity": 93}, {"time": 3042, "pitch": 71, "duration": 2, "velocity": 85}, {"time": 3048, "pitch": 71, "duration": 2, "velocity": 90}, {"time": 3054, "pitch": 69, "duration": 3, "velocity": 79}, {"time": 3060, "pitch": 69, "duration": 23, "velocity": 87}, {"time": 3090, "pitch": 74, "duration": 2, "velocity": 120}, {"time": 3096, "pitch": 74, "duration": 2, "velocity": 114}, {"time": 3102, "pitch": 74, "duration": 2, "velocity": 112}, {"time": 3108, "pitch": 71, "duration": 5, "velocity": 100}, {"time": 3114, "pitch": 69, "duration": 2, "velocity": 83}, {"time": 3120, "pitch": 69, "duration": 3, "velocity": 95}, {"time": 3126, "pitch": 67, "duration": 3, "velocity": 86}, {"time": 3132, "pitch": 69, "duration": 4, "velocity": 100}, {"time": 3138, "pitch": 67, "duration": 2, "velocity": 69}, {"time": 3144, "pitch": 69, "duration": 3, "velocity": 79}, {"time": 3150, "pitch": 71, "duration": 3, "velocity": 81}, {"time": 3156, "pitch": 71, "duration": 24, "velocity": 95}, {"time": 3186, "pitch": 66, "duration": 4, "velocity": 95}, {"time": 3192, "pitch": 67, "duration": 2, "velocity": 85}, {"time": 3198, "pitch": 69, "duration": 2, "velocity": 90}, {"time": 3204, "pitch": 71, "duration": 6, "velocity": 93}, {"time": 3210, "pitch": 69, "duration": 3, "velocity": 81}, {"time": 3216, "pitch": 71, "duration": 3, "velocity": 83}, {"time": 3222, "pitch": 74, "duration": 4, "velocity": 75}, {"time": 3228, "pitch": 76, "duration": 4, "velocity": 98}, {"time": 3234, "pitch": 74, "duration": 3, "velocity": 83}, {"time": 3240, "pitch": 74, "duration": 3, "velocity": 111}, {"time": 3246, "pitch": 71, "duration": 3, "velocity": 77}, {"time": 3252, "pitch": 74, "duration": 24, "velocity": 104}, {"time": 3282, "pitch": 76, "duration": 3, "velocity": 87}, {"time": 3288, "pitch": 76, "duration": 3, "velocity": 90}, {"time": 3294, "pitch": 74, "duration": 3, "velocity": 111}, {"time": 3300, "pitch": 71, "duration": 5, "velocity": 85}, {"time": 3309, "pitch": 74, "duration": 2, "velocity": 108}, {"time": 3312, "pitch": 71, "duration": 3, "velocity": 86}, {"time": 3318, "pitch": 69, "duration": 7, "velocity": 93}, {"time": 3330, "pitch": 69, "duration": 2, "velocity": 104}, {"time": 3336, "pitch": 69, "duration": 3, "velocity": 104}, {"time": 3342, "pitch": 67, "duration": 2, "velocity": 81}, {"time": 3348, "pitch": 71, "duration": 3, "velocity": 93}, {"time": 3354, "pitch": 69, "duration": 3, "velocity": 104}, {"time": 3360, "pitch": 67, "duration": 3, "velocity": 86}, {"time": 3366, "pitch": 64, "duration": 3, "velocity": 79}, {"time": 3378, "pitch": 75, "duration": 3, "velocity": 112}, {"time": 3384, "pitch": 75, "duration": 2, "velocity": 108}, {"time": 3390, "pitch": 75, "duration": 2, "velocity": 95}, {"time": 3396, "pitch": 77, "duration": 5, "velocity": 111}, {"time": 3405, "pitch": 79, "duration": 1, "velocity": 90}, {"time": 3408, "pitch": 77, "duration": 2, "velocity": 100}, {"time": 3414, "pitch": 75, "duration": 3, "velocity": 104}, {"time": 3420, "pitch": 72, "duration": 4, "velocity": 93}, {"time": 3426, "pitch": 72, "duration": 2, "velocity": 85}, {"time": 3432, "pitch": 72, "duration": 2, "velocity": 90}, {"time": 3438, "pitch": 70, "duration": 3, "velocity": 79}, {"time": 3444, "pitch": 70, "duration": 23, "velocity": 87}, {"time": 3474, "pitch": 75, "duration": 2, "velocity": 120}, {"time": 3480, "pitch": 75, "duration": 2, "velocity": 114}, {"time": 3486, "pitch": 75, "duration": 2, "velocity": 112}, {"time": 3492, "pitch": 72, "duration": 5, "velocity": 100}, {"time": 3498, "pitch": 70, "duration": 2, "velocity": 83}, {"time": 3504, "pitch": 70, "duration": 3, "velocity": 95}, {"time": 3510, "pitch": 68, "duration": 3, "velocity": 86}, {"time": 3516, "pitch": 70, "duration": 4, "velocity": 100}, {"time": 3522, "pitch": 68, "duration": 2, "velocity": 69}, {"time": 3528, "pitch": 70, "duration": 3, "velocity": 79}, {"time": 3534, "pitch": 72, "duration": 3, "velocity": 81}, {"time": 3540, "pitch": 72, "duration": 24, "velocity": 95}, {"time": 3570, "pitch": 67, "duration": 4, "velocity": 95}, {"time": 3576, "pitch": 68, "duration": 2, "velocity": 85}, {"time": 3582, "pitch": 70, "duration": 2, "velocity": 90}, {"time": 3588, "pitch": 72, "duration": 6, "velocity": 93}, {"time": 3594, "pitch": 70, "duration": 3, "velocity": 81}, {"time": 3600, "pitch": 72, "duration": 3, "velocity": 83}, {"time": 3606, "pitch": 75, "duration": 4, "velocity": 75}, {"time": 3612, "pitch": 72, "duration": 6, "velocity": 77}, {"time": 3618, "pitch": 70, "duration": 3, "velocity": 76}, {"time": 3624, "pitch": 68, "duration": 4, "velocity": 71}, {"time": 3630, "pitch": 70, "duration": 5, "velocity": 76}, {"time": 3636, "pitch": 65, "duration": 7, "velocity": 64}, {"time": 3666, "pitch": 68, "duration": 2, "velocity": 100}, {"time": 3672, "pitch": 68, "duration": 3, "velocity": 90}, {"time": 3678, "pitch": 70, "duration": 4, "velocity": 87}, {"time": 3684, "pitch": 72, "duration": 4, "velocity": 111}, {"time": 3690, "pitch": 70, "duration": 2, "velocity": 77}, {"time": 3696, "pitch": 72, "duration": 3, "velocity": 98}, {"time": 3702, "pitch": 75, "duration": 4, "velocity": 111}, {"time": 3708, "pitch": 77, "duration": 4, "velocity": 86}, {"time": 3714, "pitch": 75, "duration": 3, "velocity": 86}, {"time": 3720, "pitch": 75, "duration": 5, "velocity": 104}, {"time": 3726, "pitch": 72, "duration": 3, "velocity": 83}, {"time": 3732, "pitch": 72, "duration": 2, "velocity": 104}, {"time": 3738, "pitch": 72, "duration": 3, "velocity": 100}, {"time": 3744, "pitch": 72, "duration": 2, "velocity": 111}, {"time": 3750, "pitch": 70, "duration": 7, "velocity": 95}, {"time": 3762, "pitch": 75, "duration": 3, "velocity": 112}, {"time": 3768, "pitch": 75, "duration": 2, "velocity": 108}, {"time": 3774, "pitch": 75, "duration": 2, "velocity": 95}, {"time": 3780, "pitch": 77, "duration": 5, "velocity": 111}, {"time": 3789, "pitch": 79, "duration": 1, "velocity": 90}, {"time": 3792, "pitch": 77, "duration": 2, "velocity": 100}, {"time": 3798, "pitch": 75, "duration": 3, "velocity": 104}, {"time": 3804, "pitch": 72, "duration": 4, "velocity": 93}, {"time": 3810, "pitch": 72, "duration": 2, "velocity": 85}, {"time": 3816, "pitch": 72, "duration": 2, "velocity": 90}, {"time": 3822, "pitch": 70, "duration": 3, "velocity": 79}, {"time": 3828, "pitch": 70, "duration": 23, "velocity": 87}, {"time": 3858, "pitch": 75, "duration": 2, "velocity": 120}, {"time": 3864, "pitch": 75, "duration": 2, "velocity": 114}, {"time": 3870, "pitch": 75, "duration": 2, "velocity": 112}, {"time": 3876, "pitch": 72, "duration": 5, "velocity": 100}, {"time": 3882, "pitch": 70, "duration": 2, "velocity": 83}, {"time": 3888, "pitch": 70, "duration": 3, "velocity": 95}, {"time": 3894, "pitch": 68, "duration": 3, "velocity": 86}, {"time": 3900, "pitch": 70, "duration": 4, "velocity": 100}, {"time": 3906, "pitch": 68, "duration": 2, "velocity": 69}, {"time": 3912, "pitch": 70, "duration": 3, "velocity": 79}, {"time": 3918, "pitch": 72, "duration": 3, "velocity": 81}, {"time": 3924, "pitch": 72, "duration": 24, "velocity": 95}, {"time": 3954, "pitch": 67, "duration": 4, "velocity": 95}, {"time": 3960, "pitch": 68, "duration": 2, "velocity": 85}, {"time": 3966, "pitch": 70, "duration": 2, "velocity": 90}, {"time": 3972, "pitch": 72, "duration": 6, "velocity": 93}, {"time": 3978, "pitch": 70, "duration": 3, "velocity": 81}, {"time": 3984, "pitch": 72, "duration": 3, "velocity": 83}, {"time": 3990, "pitch": 75, "duration": 4, "velocity": 75}, {"time": 3996, "pitch": 77, "duration": 4, "velocity": 98}, {"time": 4002, "pitch": 75, "duration": 3, "velocity": 83}, {"time": 4008, "pitch": 75, "duration": 3, "velocity": 111}, {"time": 4014, "pitch": 72, "duration": 3, "velocity": 77}, {"time": 4020, "pitch": 75, "duration": 24, "velocity": 104}, {"time": 4050, "pitch": 77, "duration": 3, "velocity": 87}, {"time": 4056, "pitch": 77, "duration": 3, "velocity": 90}, {"time": 4062, "pitch": 75, "duration": 3, "velocity": 111}, {"time": 4068, "pitch": 72, "duration": 5, "velocity": 85}, {"time": 4077, "pitch": 75, "duration": 2, "velocity": 108}, {"time": 4080, "pitch": 72, "duration": 3, "velocity": 86}, {"time": 4086, "pitch": 70, "duration": 7, "velocity": 93}, {"time": 4098, "pitch": 70, "duration": 2, "velocity": 104}, {"time": 4104, "pitch": 70, "duration": 3, "velocity": 104}, {"time": 4110, "pitch": 68, "duration": 2, "velocity": 81}, {"time": 4116, "pitch": 72, "duration": 3, "velocity": 93}, {"time": 4122, "pitch": 70, "duration": 3, "velocity": 104}, {"time": 4128, "pitch": 68, "duration": 3, "velocity": 86}, {"time": 4134, "pitch": 65, "duration": 3, "velocity": 79}, {"time": 4140, "pitch": 68, "duration": 53, "velocity": 93}], "annotations": [{"time": 204, "annotation": {"number": 64, "value": 73}, "group": "control_change"}, {"time": 216, "annotation": {"number": 64, "value": 81}, "group": "control_change"}]}, {"program": 0, "is_drum": false, "name": "PIANO", "notes": [{"time": 12, "pitch": 43, "duration": 45, "velocity": 77}, {"time": 12, "pitch": 62, "duration": 3, "velocity": 74}, {"time": 15, "pitch": 69, "duration": 2, "velocity": 73}, {"time": 18, "pitch": 50, "duration": 7, "velocity": 60}, {"time": 18, "pitch": 71, "duration": 3, "velocity": 61}, {"time": 21, "pitch": 55, "duration": 27, "velocity": 35}, {"time": 21, "pitch": 64, "duration": 3, "velocity": 59}, {"time": 24, "pitch": 69, "duration": 3, "velocity": 59}, {"time": 27, "pitch": 71, "duration": 3, "velocity": 67}, {"time": 30, "pitch": 62, "duration": 3, "velocity": 59}, {"time": 33, "pitch": 69, "duration": 2, "velocity": 64}, {"time": 36, "pitch": 71, "duration": 3, "velocity": 65}, {"time": 39, "pitch": 64, "duration": 4, "velocity": 64}, {"time": 42, "pitch": 69, "duration": 3, "velocity": 69}, {"time": 45, "pitch": 71, "duration": 9, "velocity": 70}, {"time": 60, "pitch": 43, "duration": 44, "velocity": 87}, {"time": 63, "pitch": 69, "duration": 2, "velocity": 81}, {"time": 66, "pitch": 50, "duration": 5, "velocity": 68}, {"time": 66, "pitch": 71, "duration": 2, "velocity": 64}, {"time": 69, "pitch": 64, "duration": 3, "velocity": 62}, {"time": 72, "pitch": 55, "duration": 5, "velocity": 59}, {"time": 72, "pitch": 69, "duration": 2, "velocity": 74}, {"time": 75, "pitch": 71, "duration": 2, "velocity": 68}, {"time": 78, "pitch": 50, "duration": 18, "velocity": 63}, {"time": 78, "pitch": 62, "duration": 2, "velocity": 55}, {"time": 81, "pitch": 69, "duration": 2, "velocity": 69}, {"time": 84, "pitch": 64, "duration": 4, "velocity": 70}, {"time": 84, "pitch": 71, "duration": 2, "velocity": 66}, {"time": 90, "pitch": 69, "duration": 3, "velocity": 63}, {"time": 93, "pitch": 71, "duration": 6, "velocity": 72}, {"time": 96, "pitch": 66, "duration": 5, "velocity": 69}, {"time": 99, "pitch": 69, "duration": 2, "velocity": 64}, {"time": 102, "pitch": 71, "duration": 4, "velocity": 65}, {"time": 105, "pitch": 69, "duration": 3, "velocity": 70}, {"time": 108, "pitch": 43, "duration": 44, "velocity": 95}, {"time": 108, "pitch": 62, "duration": 3, "velocity": 79}, {"time": 111, "pitch": 69, "duration": 3, "velocity": 72}, {"time": 114, "pitch": 50, "duration": 6, "velocity": 65}, {"time": 114, "pitch": 71, "duration": 3, "velocity": 71}, {"time": 117, "pitch": 64, "duration": 3, "velocity": 71}, {"time": 120, "pitch": 55, "duration": 4, "velocity": 56}, {"time": 120, "pitch": 69, "duration": 2, "velocity": 68}, {"time": 123, "pitch": 71, "duration": 4, "velocity": 72}, {"time": 126, "pitch": 50, "duration": 23, "velocity": 59}, {"time": 126, "pitch": 62, "duration": 3, "velocity": 63}, {"time": 129, "pitch": 69, "duration": 3, "velocity": 71}, {"time": 132, "pitch": 71, "duration": 3, "velocity": 70}, {"time": 135, "pitch": 64, "duration": 4, "velocity": 74}, {"time": 138, "pitch": 69, "duration": 3, "velocity": 62}, {"time": 141, "pitch": 71, "duration": 11, "velocity": 71}, {"time": 144, "pitch": 62, "duration": 8, "velocity": 65}, {"time": 156, "pitch": 43, "duration": 46, "velocity": 85}, {"time": 156, "pitch": 62, "duration": 2, "velocity": 73}, {"time": 159, "pitch": 69, "duration": 3, "velocity": 74}, {"time": 162, "pitch": 50, "duration": 6, "velocity": 63}, {"time": 162, "pitch": 71, "duration": 2, "velocity": 63}, {"time": 165, "pitch": 64, "duration": 4, "velocity": 60}, {"time": 168, "pitch": 55, "duration": 6, "velocity": 52}, {"time": 168, "pitch": 69, "duration": 2, "velocity": 60}, {"time": 171, "pitch": 71, "duration": 2, "velocity": 64}, {"time": 174, "pitch": 50, "duration": 11, "velocity": 59}, {"time": 174, "pitch": 64, "duration": 3, "velocity": 61}, {"time": 177, "pitch": 69, "duration": 2, "velocity": 60}, {"time": 180, "pitch": 71, "duration": 2, "velocity": 60}, {"time": 183, "pitch": 64, "duration": 3, "velocity": 60}, {"time": 186, "pitch": 69, "duration": 3, "velocity": 60}, {"time": 189, "pitch": 71, "duration": 9, "velocity": 62}, {"time": 192, "pitch": 66, "duration": 13, "velocity": 75}, {"time": 204, "pitch": 43, "duration": 17, "velocity": 74}, {"time": 210, "pitch": 50, "duration": 16, "velocity": 42}, {"time": 216, "pitch": 55, "duration": 12, "velocity": 54}, {"time": 228, "pitch": 47, "duration": 14, "velocity": 61}, {"time": 234, "pitch": 54, "duration": 14, "velocity": 37}, {"time": 240, "pitch": 59, "duration": 11, "velocity": 60}, {"time": 252, "pitch": 48, "duration": 20, "velocity": 77}, {"time": 258, "pitch": 55, "duration": 14, "velocity": 59}, {"time": 264, "pitch": 60, "duration": 9, "velocity": 58}, {"time": 288, "pitch": 47, "duration": 8, "velocity": 72}, {"time": 288, "pitch": 59, "duration": 8, "velocity": 60}, {"time": 300, "pitch": 45, "duration": 22, "velocity": 77}, {"time": 306, "pitch": 52, "duration": 20, "velocity": 60}, {"time": 312, "pitch": 57, "duration": 14, "velocity": 61}, {"time": 324, "pitch": 50, "duration": 21, "velocity": 71}, {"time": 330, "pitch": 62, "duration": 11, "velocity": 64}, {"time": 336, "pitch": 57, "duration": 7, "velocity": 60}, {"time": 348, "pitch": 43, "duration": 22, "velocity": 90}, {"time": 354, "pitch": 50, "duration": 18, "velocity": 62}, {"time": 360, "pitch": 55, "duration": 11, "velocity": 54}, {"time": 372, "pitch": 43, "duration": 23, "velocity": 72}, {"time": 378, "pitch": 50, "duration": 17, "velocity": 63}, {"time": 384, "pitch": 55, "duration": 10, "velocity": 53}, {"time": 396, "pitch": 41, "duration": 23, "velocity": 72}, {"time": 402, "pitch": 45, "duration": 16, "velocity": 71}, {"time": 408, "pitch": 50, "duration": 11, "velocity": 53}, {"time": 420, "pitch": 40, "duration": 21, "velocity": 59}, {"time": 426, "pitch": 47, "duration": 16, "velocity": 58}, {"time": 432, "pitch": 52, "duration": 10, "velocity": 60}, {"time": 444, "pitch": 45, "duration": 16, "velocity": 74}, {"time": 450, "pitch": 52, "duration": 9, "velocity": 60}, {"time": 456, "pitch": 57, "duration": 7, "velocity": 59}, {"time": 462, "pitch": 52, "duration": 6, "velocity": 73}, {"time": 468, "pitch": 45, "duration": 13, "velocity": 60}, {"time": 474, "pitch": 52, "duration": 9, "velocity": 65}, {"time": 480, "pitch": 57, "duration": 6, "velocity": 63}, {"time": 486, "pitch": 47, "duration": 6, "velocity": 72}, {"time": 492, "pitch": 48, "duration": 20, "velocity": 83}, {"time": 498, "pitch": 55, "duration": 18, "velocity": 51}, {"time": 504, "pitch": 60, "duration": 9, "velocity": 60}, {"time": 516, "pitch": 48, "duration": 22, "velocity": 74}, {"time": 522, "pitch": 55, "duration": 11, "velocity": 63}, {"time": 528, "pitch": 60, "duration": 7, "velocity": 60}, {"time": 534, "pitch": 55, "duration": 2, "velocity": 69}, {"time": 540, "pitch": 50, "duration": 43, "velocity": 67}, {"time": 546, "pitch": 54, "duration": 37, "velocity": 61}, {"time": 552, "pitch": 57, "duration": 30, "velocity": 59}, {"time": 558, "pitch": 62, "duration": 13, "velocity": 60}, {"time": 576, "pitch": 62, "duration": 5, "velocity": 60}, {"time": 588, "pitch": 43, "duration": 24, "velocity": 73}, {"time": 588, "pitch": 59, "duration": 15, "velocity": 65}, {"time": 594, "pitch": 50, "duration": 18, "velocity": 59}, {"time": 600, "pitch": 55, "duration": 11, "velocity": 59}, {"time": 606, "pitch": 59, "duration": 6, "velocity": 62}, {"time": 612, "pitch": 47, "duration": 25, "velocity": 70}, {"time": 618, "pitch": 62, "duration": 4, "velocity": 52}, {"time": 624, "pitch": 60, "duration": 4, "velocity": 57}, {"time": 630, "pitch": 62, "duration": 4, "velocity": 53}, {"time": 636, "pitch": 48, "duration": 33, "velocity": 86}, {"time": 636, "pitch": 62, "duration": 8, "velocity": 71}, {"time": 645, "pitch": 55, "duration": 18, "velocity": 64}, {"time": 651, "pitch": 60, "duration": 10, "velocity": 59}, {"time": 654, "pitch": 64, "duration": 4, "velocity": 59}, {"time": 654, "pitch": 67, "duration": 4, "velocity": 60}, {"time": 660, "pitch": 64, "duration": 7, "velocity": 71}, {"time": 672, "pitch": 47, "duration": 8, "velocity": 76}, {"time": 672, "pitch": 62, "duration": 7, "velocity": 90}, {"time": 684, "pitch": 45, "duration": 18, "velocity": 71}, {"time": 684, "pitch": 60, "duration": 10, "velocity": 77}, {"time": 690, "pitch": 52, "duration": 11, "velocity": 62}, {"time": 696, "pitch": 60, "duration": 6, "velocity": 75}, {"time": 696, "pitch": 64, "duration": 5, "velocity": 70}, {"time": 708, "pitch": 38, "duration": 17, "velocity": 67}, {"time": 708, "pitch": 52, "duration": 6, "velocity": 71}, {"time": 708, "pitch": 55, "duration": 6, "velocity": 72}, {"time": 714, "pitch": 45, "duration": 11, "velocity": 64}, {"time": 720, "pitch": 54, "duration": 6, "velocity": 64}, {"time": 720, "pitch": 57, "duration": 6, "velocity": 77}, {"time": 726, "pitch": 50, "duration": 6, "velocity": 67}, {"time": 732, "pitch": 43, "duration": 43, "velocity": 81}, {"time": 732, "pitch": 59, "duration": 16, "velocity": 71}, {"time": 732, "pitch": 62, "duration": 16, "velocity": 74}, {"time": 738, "pitch": 50, "duration": 35, "velocity": 63}, {"time": 744, "pitch": 55, "duration": 5, "velocity": 54}, {"time": 750, "pitch": 59, "duration": 16, "velocity": 58}, {"time": 753, "pitch": 62, "duration": 13, "velocity": 43}, {"time": 756, "pitch": 67, "duration": 10, "velocity": 68}, {"time": 762, "pitch": 55, "duration": 7, "velocity": 54}, {"time": 768, "pitch": 59, "duration": 7, "velocity": 65}, {"time": 768, "pitch": 62, "duration": 6, "velocity": 83}, {"time": 768, "pitch": 67, "duration": 6, "velocity": 74}, {"time": 780, "pitch": 41, "duration": 23, "velocity": 53}, {"time": 780, "pitch": 45, "duration": 22, "velocity": 60}, {"time": 780, "pitch": 50, "duration": 20, "velocity": 43}, {"time": 780, "pitch": 53, "duration": 10, "velocity": 50}, {"time": 780, "pitch": 57, "duration": 10, "velocity": 73}, {"time": 792, "pitch": 53, "duration": 10, "velocity": 65}, {"time": 792, "pitch": 57, "duration": 10, "velocity": 90}, {"time": 804, "pitch": 40, "duration": 18, "velocity": 67}, {"time": 804, "pitch": 56, "duration": 10, "velocity": 86}, {"time": 804, "pitch": 59, "duration": 10, "velocity": 85}, {"time": 810, "pitch": 47, "duration": 13, "velocity": 56}, {"time": 816, "pitch": 56, "duration": 6, "velocity": 79}, {"time": 816, "pitch": 59, "duration": 5, "velocity": 79}, {"time": 822, "pitch": 52, "duration": 5, "velocity": 58}, {"time": 828, "pitch": 45, "duration": 39, "velocity": 65}, {"time": 828, "pitch": 60, "duration": 10, "velocity": 74}, {"time": 828, "pitch": 64, "duration": 11, "velocity": 70}, {"time": 834, "pitch": 52, "duration": 38, "velocity": 59}, {"time": 840, "pitch": 60, "duration": 11, "velocity": 65}, {"time": 840, "pitch": 64, "duration": 11, "velocity": 71}, {"time": 846, "pitch": 57, "duration": 11, "velocity": 49}, {"time": 852, "pitch": 60, "duration": 11, "velocity": 74}, {"time": 852, "pitch": 64, "duration": 11, "velocity": 74}, {"time": 858, "pitch": 57, "duration": 5, "velocity": 66}, {"time": 864, "pitch": 60, "duration": 12, "velocity": 79}, {"time": 864, "pitch": 64, "duration": 11, "velocity": 79}, {"time": 870, "pitch": 45, "duration": 3, "velocity": 79}, {"time": 873, "pitch": 47, "duration": 1, "velocity": 74}, {"time": 876, "pitch": 36, "duration": 24, "velocity": 54}, {"time": 876, "pitch": 51, "duration": 11, "velocity": 71}, {"time": 876, "pitch": 55, "duration": 10, "velocity": 72}, {"time": 888, "pitch": 51, "duration": 11, "velocity": 74}, {"time": 888, "pitch": 55, "duration": 10, "velocity": 68}, {"time": 900, "pitch": 38, "duration": 18, "velocity": 74}, {"time": 900, "pitch": 54, "duration": 10, "velocity": 73}, {"time": 900, "pitch": 57, "duration": 10, "velocity": 79}, {"time": 906, "pitch": 45, "duration": 12, "velocity": 67}, {"time": 912, "pitch": 54, "duration": 6, "velocity": 65}, {"time": 912, "pitch": 57, "duration": 6, "velocity": 72}, {"time": 918, "pitch": 50, "duration": 6, "velocity": 54}, {"time": 924, "pitch": 43, "duration": 46, "velocity": 86}, {"time": 924, "pitch": 59, "duration": 11, "velocity": 83}, {"time": 930, "pitch": 50, "duration": 41, "velocity": 63}, {"time": 933, "pitch": 62, "duration": 1, "velocity": 56}, {"time": 936, "pitch": 59, "duration": 10, "velocity": 74}, {"time": 936, "pitch": 62, "duration": 10, "velocity": 74}, {"time": 942, "pitch": 55, "duration": 9, "velocity": 56}, {"time": 948, "pitch": 59, "duration": 10, "velocity": 72}, {"time": 948, "pitch": 62, "duration": 10, "velocity": 81}, {"time": 954, "pitch": 55, "duration": 7, "velocity": 56}, {"time": 960, "pitch": 59, "duration": 10, "velocity": 75}, {"time": 960, "pitch": 62, "duration": 10, "velocity": 83}, {"time": 966, "pitch": 55, "duration": 4, "velocity": 54}, {"time": 972, "pitch": 43, "duration": 43, "velocity": 81}, {"time": 972, "pitch": 59, "duration": 11, "velocity": 81}, {"time": 972, "pitch": 62, "duration": 11, "velocity": 81}, {"time": 978, "pitch": 50, "duration": 37, "velocity": 69}, {"time": 984, "pitch": 59, "duration": 10, "velocity": 73}, {"time": 984, "pitch": 62, "duration": 11, "velocity": 83}, {"time": 990, "pitch": 55, "duration": 18, "velocity": 59}, {"time": 996, "pitch": 59, "duration": 10, "velocity": 72}, {"time": 996, "pitch": 62, "duration": 10, "velocity": 81}, {"time": 1008, "pitch": 59, "duration": 7, "velocity": 77}, {"time": 1008, "pitch": 62, "duration": 7, "velocity": 81}, {"time": 1014, "pitch": 55, "duration": 2, "velocity": 59}, {"time": 1020, "pitch": 43, "duration": 18, "velocity": 73}, {"time": 1020, "pitch": 59, "duration": 10, "velocity": 85}, {"time": 1020, "pitch": 62, "duration": 10, "velocity": 81}, {"time": 1026, "pitch": 50, "duration": 13, "velocity": 67}, {"time": 1032, "pitch": 59, "duration": 7, "velocity": 85}, {"time": 1032, "pitch": 62, "duration": 6, "velocity": 86}, {"time": 1038, "pitch": 55, "duration": 5, "velocity": 54}, {"time": 1044, "pitch": 47, "duration": 19, "velocity": 77}, {"time": 1044, "pitch": 62, "duration": 11, "velocity": 79}, {"time": 1044, "pitch": 66, "duration": 11, "velocity": 77}, {"time": 1050, "pitch": 54, "duration": 17, "velocity": 71}, {"time": 1056, "pitch": 62, "duration": 6, "velocity": 83}, {"time": 1056, "pitch": 66, "duration": 6, "velocity": 85}, {"time": 1062, "pitch": 59, "duration": 5, "velocity": 58}, {"time": 1068, "pitch": 48, "duration": 34, "velocity": 75}, {"time": 1068, "pitch": 64, "duration": 11, "velocity": 72}, {"time": 1068, "pitch": 67, "duration": 11, "velocity": 72}, {"time": 1074, "pitch": 55, "duration": 27, "velocity": 61}, {"time": 1080, "pitch": 64, "duration": 10, "velocity": 72}, {"time": 1080, "pitch": 67, "duration": 10, "velocity": 79}, {"time": 1086, "pitch": 60, "duration": 8, "velocity": 59}, {"time": 1092, "pitch": 64, "duration": 10, "velocity": 73}, {"time": 1092, "pitch": 67, "duration": 10, "velocity": 74}, {"time": 1098, "pitch": 60, "duration": 3, "velocity": 53}, {"time": 1104, "pitch": 47, "duration": 8, "velocity": 76}, {"time": 1104, "pitch": 62, "duration": 7, "velocity": 83}, {"time": 1104, "pitch": 66, "duration": 7, "velocity": 98}, {"time": 1116, "pitch": 45, "duration": 18, "velocity": 79}, {"time": 1116, "pitch": 60, "duration": 10, "velocity": 85}, {"time": 1116, "pitch": 64, "duration": 11, "velocity": 76}, {"time": 1122, "pitch": 52, "duration": 11, "velocity": 52}, {"time": 1128, "pitch": 60, "duration": 6, "velocity": 85}, {"time": 1128, "pitch": 64, "duration": 5, "velocity": 83}, {"time": 1140, "pitch": 38, "duration": 17, "velocity": 73}, {"time": 1140, "pitch": 52, "duration": 5, "velocity": 59}, {"time": 1140, "pitch": 57, "duration": 6, "velocity": 79}, {"time": 1146, "pitch": 45, "duration": 12, "velocity": 71}, {"time": 1149, "pitch": 54, "duration": 1, "velocity": 10}, {"time": 1149, "pitch": 57, "duration": 3, "velocity": 48}, {"time": 1152, "pitch": 54, "duration": 6, "velocity": 76}, {"time": 1152, "pitch": 57, "duration": 5, "velocity": 85}, {"time": 1158, "pitch": 50, "duration": 5, "velocity": 60}, {"time": 1164, "pitch": 43, "duration": 45, "velocity": 86}, {"time": 1164, "pitch": 59, "duration": 10, "velocity": 85}, {"time": 1164, "pitch": 62, "duration": 10, "velocity": 86}, {"time": 1170, "pitch": 50, "duration": 37, "velocity": 63}, {"time": 1176, "pitch": 59, "duration": 10, "velocity": 76}, {"time": 1176, "pitch": 62, "duration": 11, "velocity": 87}, {"time": 1182, "pitch": 55, "duration": 5, "velocity": 52}, {"time": 1188, "pitch": 59, "duration": 10, "velocity": 73}, {"time": 1188, "pitch": 62, "duration": 10, "velocity": 81}, {"time": 1194, "pitch": 55, "duration": 6, "velocity": 58}, {"time": 1200, "pitch": 59, "duration": 10, "velocity": 74}, {"time": 1200, "pitch": 62, "duration": 10, "velocity": 85}, {"time": 1206, "pitch": 55, "duration": 1, "velocity": 58}, {"time": 1212, "pitch": 41, "duration": 19, "velocity": 65}, {"time": 1212, "pitch": 45, "duration": 18, "velocity": 75}, {"time": 1212, "pitch": 50, "duration": 20, "velocity": 59}, {"time": 1212, "pitch": 53, "duration": 10, "velocity": 64}, {"time": 1212, "pitch": 57, "duration": 10, "velocity": 79}, {"time": 1212, "pitch": 62, "duration": 2, "velocity": 65}, {"time": 1224, "pitch": 53, "duration": 6, "velocity": 87}, {"time": 1224, "pitch": 57, "duration": 6, "velocity": 90}, {"time": 1236, "pitch": 40, "duration": 18, "velocity": 67}, {"time": 1236, "pitch": 56, "duration": 10, "velocity": 97}, {"time": 1236, "pitch": 59, "duration": 10, "velocity": 97}, {"time": 1242, "pitch": 47, "duration": 12, "velocity": 61}, {"time": 1248, "pitch": 56, "duration": 6, "velocity": 96}, {"time": 1248, "pitch": 59, "duration": 6, "velocity": 96}, {"time": 1254, "pitch": 52, "duration": 5, "velocity": 58}, {"time": 1260, "pitch": 45, "duration": 48, "velocity": 69}, {"time": 1260, "pitch": 60, "duration": 10, "velocity": 67}, {"time": 1260, "pitch": 64, "duration": 10, "velocity": 73}, {"time": 1266, "pitch": 52, "duration": 23, "velocity": 60}, {"time": 1272, "pitch": 60, "duration": 10, "velocity": 74}, {"time": 1272, "pitch": 64, "duration": 10, "velocity": 74}, {"time": 1278, "pitch": 57, "duration": 8, "velocity": 53}, {"time": 1284, "pitch": 60, "duration": 9, "velocity": 75}, {"time": 1284, "pitch": 64, "duration": 8, "velocity": 74}, {"time": 1290, "pitch": 52, "duration": 14, "velocity": 54}, {"time": 1296, "pitch": 60, "duration": 8, "velocity": 81}, {"time": 1296, "pitch": 64, "duration": 8, "velocity": 71}, {"time": 1308, "pitch": 36, "duration": 42, "velocity": 64}, {"time": 1308, "pitch": 52, "duration": 10, "velocity": 64}, {"time": 1308, "pitch": 55, "duration": 10, "velocity": 68}, {"time": 1308, "pitch": 60, "duration": 10, "velocity": 74}, {"time": 1314, "pitch": 43, "duration": 39, "velocity": 73}, {"time": 1320, "pitch": 52, "duration": 11, "velocity": 65}, {"time": 1320, "pitch": 55, "duration": 11, "velocity": 74}, {"time": 1320, "pitch": 60, "duration": 10, "velocity": 72}, {"time": 1326, "pitch": 48, "duration": 8, "velocity": 53}, {"time": 1332, "pitch": 52, "duration": 9, "velocity": 65}, {"time": 1332, "pitch": 55, "duration": 9, "velocity": 75}, {"time": 1332, "pitch": 60, "duration": 9, "velocity": 90}, {"time": 1338, "pitch": 48, "duration": 6, "velocity": 59}, {"time": 1344, "pitch": 52, "duration": 7, "velocity": 85}, {"time": 1344, "pitch": 55, "duration": 6, "velocity": 85}, {"time": 1344, "pitch": 60, "duration": 6, "velocity": 85}, {"time": 1350, "pitch": 48, "duration": 4, "velocity": 61}, {"time": 1356, "pitch": 38, "duration": 48, "velocity": 75}, {"time": 1356, "pitch": 54, "duration": 11, "velocity": 68}, {"time": 1356, "pitch": 57, "duration": 11, "velocity": 86}, {"time": 1356, "pitch": 62, "duration": 11, "velocity": 93}, {"time": 1362, "pitch": 45, "duration": 42, "velocity": 79}, {"time": 1368, "pitch": 54, "duration": 10, "velocity": 72}, {"time": 1368, "pitch": 57, "duration": 10, "velocity": 83}, {"time": 1368, "pitch": 62, "duration": 7, "velocity": 87}, {"time": 1374, "pitch": 50, "duration": 6, "velocity": 63}, {"time": 1377, "pitch": 62, "duration": 1, "velocity": 48}, {"time": 1380, "pitch": 54, "duration": 3, "velocity": 67}, {"time": 1380, "pitch": 57, "duration": 4, "velocity": 75}, {"time": 1380, "pitch": 62, "duration": 4, "velocity": 87}, {"time": 1386, "pitch": 50, "duration": 5, "velocity": 62}, {"time": 1392, "pitch": 62, "duration": 10, "velocity": 86}, {"time": 1392, "pitch": 66, "duration": 7, "velocity": 87}, {"time": 1398, "pitch": 50, "duration": 5, "velocity": 66}, {"time": 1404, "pitch": 43, "duration": 18, "velocity": 83}, {"time": 1404, "pitch": 59, "duration": 10, "velocity": 81}, {"time": 1404, "pitch": 62, "duration": 10, "velocity": 83}, {"time": 1410, "pitch": 50, "duration": 17, "velocity": 63}, {"time": 1416, "pitch": 59, "duration": 8, "velocity": 85}, {"time": 1416, "pitch": 62, "duration": 10, "velocity": 86}, {"time": 1422, "pitch": 55, "duration": 6, "velocity": 51}, {"time": 1428, "pitch": 47, "duration": 20, "velocity": 72}, {"time": 1428, "pitch": 60, "duration": 4, "velocity": 73}, {"time": 1428, "pitch": 62, "duration": 4, "velocity": 68}, {"time": 1428, "pitch": 66, "duration": 10, "velocity": 75}, {"time": 1434, "pitch": 54, "duration": 17, "velocity": 70}, {"time": 1437, "pitch": 62, "duration": 1, "velocity": 51}, {"time": 1440, "pitch": 62, "duration": 8, "velocity": 85}, {"time": 1440, "pitch": 66, "duration": 6, "velocity": 90}, {"time": 1446, "pitch": 59, "duration": 5, "velocity": 57}, {"time": 1449, "pitch": 67, "duration": 1, "velocity": 53}, {"time": 1452, "pitch": 48, "duration": 20, "velocity": 83}, {"time": 1452, "pitch": 64, "duration": 11, "velocity": 74}, {"time": 1452, "pitch": 67, "duration": 11, "velocity": 74}, {"time": 1458, "pitch": 55, "duration": 13, "velocity": 70}, {"time": 1464, "pitch": 64, "duration": 13, "velocity": 74}, {"time": 1464, "pitch": 67, "duration": 13, "velocity": 83}, {"time": 1470, "pitch": 60, "duration": 1, "velocity": 60}, {"time": 1476, "pitch": 48, "duration": 10, "velocity": 74}, {"time": 1476, "pitch": 64, "duration": 1, "velocity": 76}, {"time": 1476, "pitch": 67, "duration": 1, "velocity": 69}, {"time": 1488, "pitch": 47, "duration": 8, "velocity": 76}, {"time": 1488, "pitch": 62, "duration": 7, "velocity": 90}, {"time": 1488, "pitch": 66, "duration": 7, "velocity": 86}, {"time": 1497, "pitch": 64, "duration": 1, "velocity": 53}, {"time": 1500, "pitch": 45, "duration": 19, "velocity": 81}, {"time": 1500, "pitch": 60, "duration": 10, "velocity": 75}, {"time": 1500, "pitch": 64, "duration": 10, "velocity": 77}, {"time": 1506, "pitch": 52, "duration": 12, "velocity": 67}, {"time": 1509, "pitch": 69, "duration": 1, "velocity": 11}, {"time": 1512, "pitch": 60, "duration": 6, "velocity": 74}, {"time": 1512, "pitch": 64, "duration": 6, "velocity": 83}, {"time": 1512, "pitch": 69, "duration": 5, "velocity": 63}, {"time": 1518, "pitch": 57, "duration": 1, "velocity": 36}, {"time": 1524, "pitch": 38, "duration": 18, "velocity": 67}, {"time": 1524, "pitch": 54, "duration": 10, "velocity": 65}, {"time": 1524, "pitch": 57, "duration": 11, "velocity": 66}, {"time": 1524, "pitch": 62, "duration": 11, "velocity": 72}, {"time": 1530, "pitch": 45, "duration": 11, "velocity": 76}, {"time": 1536, "pitch": 54, "duration": 6, "velocity": 74}, {"time": 1536, "pitch": 57, "duration": 6, "velocity": 86}, {"time": 1536, "pitch": 62, "duration": 6, "velocity": 87}, {"time": 1542, "pitch": 50, "duration": 5, "velocity": 60}, {"time": 1548, "pitch": 43, "duration": 43, "velocity": 83}, {"time": 1548, "pitch": 59, "duration": 10, "velocity": 83}, {"time": 1548, "pitch": 62, "duration": 10, "velocity": 83}, {"time": 1548, "pitch": 67, "duration": 10, "velocity": 83}, {"time": 1554, "pitch": 50, "duration": 36, "velocity": 69}, {"time": 1560, "pitch": 59, "duration": 10, "velocity": 77}, {"time": 1560, "pitch": 62, "duration": 10, "velocity": 90}, {"time": 1560, "pitch": 67, "duration": 10, "velocity": 76}, {"time": 1566, "pitch": 55, "duration": 7, "velocity": 53}, {"time": 1572, "pitch": 59, "duration": 10, "velocity": 75}, {"time": 1572, "pitch": 62, "duration": 10, "velocity": 85}, {"time": 1572, "pitch": 67, "duration": 10, "velocity": 77}, {"time": 1578, "pitch": 55, "duration": 7, "velocity": 57}, {"time": 1584, "pitch": 59, "duration": 5, "velocity": 83}, {"time": 1584, "pitch": 62, "duration": 5, "velocity": 87}, {"time": 1584, "pitch": 67, "duration": 5, "velocity": 83}, {"time": 1596, "pitch": 41, "duration": 16, "velocity": 64}, {"time": 1596, "pitch": 45, "duration": 17, "velocity": 76}, {"time": 1596, "pitch": 50, "duration": 19, "velocity": 59}, {"time": 1596, "pitch": 53, "duration": 10, "velocity": 73}, {"time": 1596, "pitch": 57, "duration": 10, "velocity": 85}, {"time": 1608, "pitch": 53, "duration": 4, "velocity": 77}, {"time": 1608, "pitch": 57, "duration": 4, "velocity": 85}, {"time": 1620, "pitch": 40, "duration": 17, "velocity": 94}, {"time": 1620, "pitch": 56, "duration": 10, "velocity": 94}, {"time": 1620, "pitch": 59, "duration": 10, "velocity": 94}, {"time": 1632, "pitch": 56, "duration": 5, "velocity": 93}, {"time": 1632, "pitch": 59, "duration": 4, "velocity": 93}, {"time": 1644, "pitch": 45, "duration": 21, "velocity": 83}, {"time": 1644, "pitch": 60, "duration": 11, "velocity": 76}, {"time": 1644, "pitch": 64, "duration": 11, "velocity": 74}, {"time": 1650, "pitch": 52, "duration": 39, "velocity": 62}, {"time": 1656, "pitch": 60, "duration": 11, "velocity": 81}, {"time": 1656, "pitch": 64, "duration": 11, "velocity": 76}, {"time": 1662, "pitch": 57, "duration": 3, "velocity": 58}, {"time": 1668, "pitch": 43, "duration": 23, "velocity": 86}, {"time": 1668, "pitch": 60, "duration": 11, "velocity": 85}, {"time": 1668, "pitch": 64, "duration": 11, "velocity": 86}, {"time": 1680, "pitch": 60, "duration": 10, "velocity": 90}, {"time": 1680, "pitch": 64, "duration": 10, "velocity": 85}, {"time": 1692, "pitch": 36, "duration": 44, "velocity": 67}, {"time": 1692, "pitch": 52, "duration": 11, "velocity": 66}, {"time": 1692, "pitch": 55, "duration": 11, "velocity": 74}, {"time": 1692, "pitch": 60, "duration": 10, "velocity": 52}, {"time": 1698, "pitch": 43, "duration": 41, "velocity": 69}, {"time": 1704, "pitch": 52, "duration": 10, "velocity": 71}, {"time": 1704, "pitch": 55, "duration": 10, "velocity": 83}, {"time": 1704, "pitch": 60, "duration": 10, "velocity": 90}, {"time": 1710, "pitch": 48, "duration": 8, "velocity": 59}, {"time": 1716, "pitch": 52, "duration": 10, "velocity": 76}, {"time": 1716, "pitch": 55, "duration": 10, "velocity": 85}, {"time": 1716, "pitch": 60, "duration": 10, "velocity": 87}, {"time": 1722, "pitch": 48, "duration": 8, "velocity": 52}, {"time": 1728, "pitch": 52, "duration": 7, "velocity": 74}, {"time": 1728, "pitch": 55, "duration": 7, "velocity": 85}, {"time": 1728, "pitch": 60, "duration": 7, "velocity": 95}, {"time": 1734, "pitch": 48, "duration": 5, "velocity": 59}, {"time": 1740, "pitch": 38, "duration": 41, "velocity": 76}, {"time": 1740, "pitch": 54, "duration": 10, "velocity": 62}, {"time": 1740, "pitch": 57, "duration": 10, "velocity": 77}, {"time": 1740, "pitch": 62, "duration": 10, "velocity": 83}, {"time": 1746, "pitch": 45, "duration": 36, "velocity": 67}, {"time": 1752, "pitch": 54, "duration": 10, "velocity": 67}, {"time": 1752, "pitch": 57, "duration": 10, "velocity": 83}, {"time": 1752, "pitch": 62, "duration": 10, "velocity": 95}, {"time": 1758, "pitch": 50, "duration": 8, "velocity": 54}, {"time": 1764, "pitch": 54, "duration": 9, "velocity": 72}, {"time": 1764, "pitch": 57, "duration": 9, "velocity": 86}, {"time": 1764, "pitch": 62, "duration": 9, "velocity": 98}, {"time": 1770, "pitch": 50, "duration": 6, "velocity": 58}, {"time": 1776, "pitch": 54, "duration": 6, "velocity": 93}, {"time": 1776, "pitch": 57, "duration": 6, "velocity": 93}, {"time": 1776, "pitch": 62, "duration": 6, "velocity": 93}, {"time": 1782, "pitch": 50, "duration": 5, "velocity": 60}, {"time": 1788, "pitch": 43, "duration": 19, "velocity": 87}, {"time": 1788, "pitch": 59, "duration": 10, "velocity": 81}, {"time": 1788, "pitch": 62, "duration": 10, "velocity": 87}, {"time": 1788, "pitch": 83, "duration": 3, "velocity": 58}, {"time": 1791, "pitch": 81, "duration": 3, "velocity": 62}, {"time": 1794, "pitch": 50, "duration": 36, "velocity": 65}, {"time": 1794, "pitch": 83, "duration": 3, "velocity": 66}, {"time": 1797, "pitch": 81, "duration": 3, "velocity": 66}, {"time": 1800, "pitch": 59, "duration": 7, "velocity": 83}, {"time": 1800, "pitch": 62, "duration": 7, "velocity": 87}, {"time": 1800, "pitch": 86, "duration": 2, "velocity": 66}, {"time": 1803, "pitch": 81, "duration": 2, "velocity": 65}, {"time": 1806, "pitch": 55, "duration": 3, "velocity": 56}, {"time": 1806, "pitch": 83, "duration": 2, "velocity": 65}, {"time": 1809, "pitch": 62, "duration": 1, "velocity": 51}, {"time": 1809, "pitch": 81, "duration": 3, "velocity": 65}, {"time": 1812, "pitch": 42, "duration": 18, "velocity": 59}, {"time": 1812, "pitch": 57, "duration": 10, "velocity": 72}, {"time": 1812, "pitch": 62, "duration": 11, "velocity": 85}, {"time": 1812, "pitch": 83, "duration": 3, "velocity": 64}, {"time": 1815, "pitch": 81, "duration": 2, "velocity": 62}, {"time": 1818, "pitch": 54, "duration": 3, "velocity": 57}, {"time": 1818, "pitch": 83, "duration": 3, "velocity": 60}, {"time": 1821, "pitch": 81, "duration": 3, "velocity": 59}, {"time": 1824, "pitch": 57, "duration": 6, "velocity": 76}, {"time": 1824, "pitch": 62, "duration": 6, "velocity": 93}, {"time": 1824, "pitch": 86, "duration": 5, "velocity": 59}, {"time": 1827, "pitch": 81, "duration": 2, "velocity": 59}, {"time": 1830, "pitch": 83, "duration": 3, "velocity": 59}, {"time": 1836, "pitch": 40, "duration": 22, "velocity": 76}, {"time": 1836, "pitch": 55, "duration": 11, "velocity": 67}, {"time": 1836, "pitch": 59, "duration": 11, "velocity": 74}, {"time": 1836, "pitch": 83, "duration": 3, "velocity": 59}, {"time": 1839, "pitch": 81, "duration": 3, "velocity": 61}, {"time": 1842, "pitch": 47, "duration": 18, "velocity": 61}, {"time": 1842, "pitch": 83, "duration": 3, "velocity": 62}, {"time": 1845, "pitch": 81, "duration": 3, "velocity": 62}, {"time": 1848, "pitch": 55, "duration": 10, "velocity": 69}, {"time": 1848, "pitch": 59, "duration": 10, "velocity": 68}, {"time": 1848, "pitch": 64, "duration": 10, "velocity": 72}, {"time": 1848, "pitch": 86, "duration": 3, "velocity": 62}, {"time": 1851, "pitch": 81, "duration": 2, "velocity": 60}, {"time": 1854, "pitch": 52, "duration": 7, "velocity": 58}, {"time": 1854, "pitch": 83, "duration": 3, "velocity": 59}, {"time": 1857, "pitch": 81, "duration": 3, "velocity": 57}, {"time": 1860, "pitch": 38, "duration": 21, "velocity": 62}, {"time": 1860, "pitch": 54, "duration": 10, "velocity": 60}, {"time": 1860, "pitch": 57, "duration": 10, "velocity": 66}, {"time": 1860, "pitch": 62, "duration": 10, "velocity": 73}, {"time": 1860, "pitch": 83, "duration": 3, "velocity": 55}, {"time": 1863, "pitch": 81, "duration": 2, "velocity": 54}, {"time": 1866, "pitch": 45, "duration": 15, "velocity": 60}, {"time": 1866, "pitch": 83, "duration": 3, "velocity": 54}, {"time": 1869, "pitch": 81, "duration": 3, "velocity": 57}, {"time": 1872, "pitch": 54, "duration": 7, "velocity": 68}, {"time": 1872, "pitch": 57, "duration": 6, "velocity": 81}, {"time": 1872, "pitch": 62, "duration": 6, "velocity": 85}, {"time": 1872, "pitch": 86, "duration": 3, "velocity": 59}, {"time": 1875, "pitch": 81, "duration": 3, "velocity": 62}, {"time": 1878, "pitch": 50, "duration": 2, "velocity": 59}, {"time": 1878, "pitch": 83, "duration": 3, "velocity": 62}, {"time": 1884, "pitch": 36, "duration": 19, "velocity": 69}, {"time": 1884, "pitch": 52, "duration": 10, "velocity": 64}, {"time": 1884, "pitch": 55, "duration": 10, "velocity": 74}, {"time": 1884, "pitch": 60, "duration": 7, "velocity": 77}, {"time": 1884, "pitch": 83, "duration": 3, "velocity": 62}, {"time": 1887, "pitch": 81, "duration": 2, "velocity": 62}, {"time": 1890, "pitch": 43, "duration": 17, "velocity": 75}, {"time": 1890, "pitch": 83, "duration": 3, "velocity": 62}, {"time": 1893, "pitch": 60, "duration": 1, "velocity": 39}, {"time": 1893, "pitch": 81, "duration": 3, "velocity": 64}, {"time": 1896, "pitch": 52, "duration": 6, "velocity": 75}, {"time": 1896, "pitch": 55, "duration": 6, "velocity": 85}, {"time": 1896, "pitch": 60, "duration": 6, "velocity": 85}, {"time": 1896, "pitch": 86, "duration": 2, "velocity": 64}, {"time": 1899, "pitch": 81, "duration": 3, "velocity": 64}, {"time": 1902, "pitch": 48, "duration": 4, "velocity": 65}, {"time": 1902, "pitch": 83, "duration": 3, "velocity": 64}, {"time": 1905, "pitch": 81, "duration": 3, "velocity": 64}, {"time": 1908, "pitch": 38, "duration": 18, "velocity": 74}, {"time": 1908, "pitch": 54, "duration": 11, "velocity": 65}, {"time": 1908, "pitch": 57, "duration": 11, "velocity": 74}, {"time": 1908, "pitch": 62, "duration": 10, "velocity": 83}, {"time": 1908, "pitch": 83, "duration": 3, "velocity": 63}, {"time": 1911, "pitch": 81, "duration": 3, "velocity": 60}, {"time": 1914, "pitch": 45, "duration": 12, "velocity": 74}, {"time": 1914, "pitch": 83, "duration": 3, "velocity": 59}, {"time": 1917, "pitch": 81, "duration": 4, "velocity": 58}, {"time": 1920, "pitch": 54, "duration": 5, "velocity": 74}, {"time": 1920, "pitch": 57, "duration": 5, "velocity": 86}, {"time": 1920, "pitch": 62, "duration": 5, "velocity": 87}, {"time": 1920, "pitch": 86, "duration": 2, "velocity": 57}, {"time": 1923, "pitch": 81, "duration": 2, "velocity": 55}, {"time": 1926, "pitch": 50, "duration": 5, "velocity": 61}, {"time": 1926, "pitch": 83, "duration": 2, "velocity": 55}, {"time": 1929, "pitch": 81, "duration": 2, "velocity": 56}, {"time": 1932, "pitch": 43, "duration": 43, "velocity": 85}, {"time": 1932, "pitch": 59, "duration": 10, "velocity": 71}, {"time": 1932, "pitch": 62, "duration": 10, "velocity": 86}, {"time": 1932, "pitch": 67, "duration": 10, "velocity": 83}, {"time": 1932, "pitch": 83, "duration": 3, "velocity": 57}, {"time": 1935, "pitch": 81, "duration": 2, "velocity": 64}, {"time": 1938, "pitch": 50, "duration": 35, "velocity": 63}, {"time": 1938, "pitch": 83, "duration": 3, "velocity": 64}, {"time": 1941, "pitch": 81, "duration": 3, "velocity": 60}, {"time": 1944, "pitch": 59, "duration": 10, "velocity": 63}, {"time": 1944, "pitch": 62, "duration": 10, "velocity": 77}, {"time": 1944, "pitch": 67, "duration": 6, "velocity": 73}, {"time": 1944, "pitch": 86, "duration": 2, "velocity": 67}, {"time": 1947, "pitch": 81, "duration": 3, "velocity": 67}, {"time": 1950, "pitch": 55, "duration": 7, "velocity": 52}, {"time": 1950, "pitch": 83, "duration": 3, "velocity": 67}, {"time": 1953, "pitch": 81, "duration": 3, "velocity": 68}, {"time": 1956, "pitch": 60, "duration": 9, "velocity": 86}, {"time": 1956, "pitch": 62, "duration": 10, "velocity": 83}, {"time": 1956, "pitch": 83, "duration": 3, "velocity": 70}, {"time": 1959, "pitch": 81, "duration": 2, "velocity": 71}, {"time": 1962, "pitch": 55, "duration": 5, "velocity": 58}, {"time": 1962, "pitch": 83, "duration": 3, "velocity": 73}, {"time": 1965, "pitch": 81, "duration": 3, "velocity": 73}, {"time": 1968, "pitch": 59, "duration": 9, "velocity": 79}, {"time": 1968, "pitch": 62, "duration": 7, "velocity": 75}, {"time": 1968, "pitch": 67, "duration": 6, "velocity": 61}, {"time": 1968, "pitch": 86, "duration": 3, "velocity": 73}, {"time": 1971, "pitch": 81, "duration": 3, "velocity": 73}, {"time": 1974, "pitch": 83, "duration": 3, "velocity": 73}, {"time": 1980, "pitch": 42, "duration": 23, "velocity": 90}, {"time": 1980, "pitch": 57, "duration": 1, "velocity": 58}, {"time": 1980, "pitch": 83, "duration": 3, "velocity": 72}, {"time": 1983, "pitch": 81, "duration": 2, "velocity": 70}, {"time": 1986, "pitch": 57, "duration": 7, "velocity": 63}, {"time": 1986, "pitch": 83, "duration": 3, "velocity": 69}, {"time": 1989, "pitch": 81, "duration": 3, "velocity": 68}, {"time": 1992, "pitch": 60, "duration": 7, "velocity": 76}, {"time": 1992, "pitch": 86, "duration": 2, "velocity": 68}, {"time": 1995, "pitch": 81, "duration": 2, "velocity": 68}, {"time": 1998, "pitch": 57, "duration": 7, "velocity": 62}, {"time": 1998, "pitch": 83, "duration": 3, "velocity": 67}, {"time": 2001, "pitch": 81, "duration": 3, "velocity": 67}, {"time": 2004, "pitch": 47, "duration": 19, "velocity": 77}, {"time": 2004, "pitch": 63, "duration": 10, "velocity": 68}, {"time": 2004, "pitch": 66, "duration": 6, "velocity": 62}, {"time": 2004, "pitch": 83, "duration": 3, "velocity": 65}, {"time": 2007, "pitch": 81, "duration": 2, "velocity": 65}, {"time": 2010, "pitch": 51, "duration": 12, "velocity": 67}, {"time": 2010, "pitch": 83, "duration": 3, "velocity": 65}, {"time": 2013, "pitch": 81, "duration": 3, "velocity": 63}, {"time": 2016, "pitch": 54, "duration": 6, "velocity": 61}, {"time": 2016, "pitch": 86, "duration": 2, "velocity": 59}, {"time": 2019, "pitch": 81, "duration": 3, "velocity": 58}, {"time": 2022, "pitch": 63, "duration": 5, "velocity": 70}, {"time": 2022, "pitch": 83, "duration": 3, "velocity": 57}, {"time": 2025, "pitch": 81, "duration": 3, "velocity": 57}, {"time": 2028, "pitch": 40, "duration": 24, "velocity": 71}, {"time": 2028, "pitch": 83, "duration": 3, "velocity": 57}, {"time": 2031, "pitch": 81, "duration": 2, "velocity": 57}, {"time": 2034, "pitch": 47, "duration": 18, "velocity": 60}, {"time": 2034, "pitch": 83, "duration": 3, "velocity": 57}, {"time": 2037, "pitch": 81, "duration": 3, "velocity": 57}, {"time": 2040, "pitch": 55, "duration": 13, "velocity": 66}, {"time": 2040, "pitch": 86, "duration": 3, "velocity": 57}, {"time": 2043, "pitch": 81, "duration": 3, "velocity": 57}, {"time": 2046, "pitch": 83, "duration": 2, "velocity": 59}, {"time": 2049, "pitch": 86, "duration": 3, "velocity": 59}, {"time": 2052, "pitch": 38, "duration": 18, "velocity": 71}, {"time": 2052, "pitch": 54, "duration": 11, "velocity": 65}, {"time": 2052, "pitch": 83, "duration": 3, "velocity": 59}, {"time": 2055, "pitch": 81, "duration": 3, "velocity": 59}, {"time": 2058, "pitch": 45, "duration": 9, "velocity": 74}, {"time": 2058, "pitch": 79, "duration": 3, "velocity": 59}, {"time": 2061, "pitch": 81, "duration": 3, "velocity": 59}, {"time": 2064, "pitch": 54, "duration": 5, "velocity": 57}, {"time": 2064, "pitch": 57, "duration": 5, "velocity": 67}, {"time": 2064, "pitch": 86, "duration": 4, "velocity": 59}, {"time": 2067, "pitch": 83, "duration": 3, "velocity": 61}, {"time": 2070, "pitch": 81, "duration": 2, "velocity": 62}, {"time": 2076, "pitch": 36, "duration": 18, "velocity": 69}, {"time": 2076, "pitch": 52, "duration": 10, "velocity": 64}, {"time": 2076, "pitch": 55, "duration": 10, "velocity": 69}, {"time": 2076, "pitch": 86, "duration": 2, "velocity": 64}, {"time": 2079, "pitch": 81, "duration": 3, "velocity": 67}, {"time": 2082, "pitch": 43, "duration": 17, "velocity": 76}, {"time": 2082, "pitch": 83, "duration": 2, "velocity": 69}, {"time": 2085, "pitch": 81, "duration": 3, "velocity": 72}, {"time": 2088, "pitch": 52, "duration": 6, "velocity": 65}, {"time": 2088, "pitch": 55, "duration": 6, "velocity": 67}, {"time": 2088, "pitch": 86, "duration": 2, "velocity": 73}, {"time": 2091, "pitch": 81, "duration": 2, "velocity": 75}, {"time": 2094, "pitch": 48, "duration": 6, "velocity": 41}, {"time": 2094, "pitch": 83, "duration": 2, "velocity": 75}, {"time": 2097, "pitch": 81, "duration": 3, "velocity": 77}, {"time": 2100, "pitch": 38, "duration": 18, "velocity": 64}, {"time": 2100, "pitch": 54, "duration": 11, "velocity": 66}, {"time": 2100, "pitch": 86, "duration": 2, "velocity": 77}, {"time": 2103, "pitch": 81, "duration": 3, "velocity": 77}, {"time": 2106, "pitch": 45, "duration": 12, "velocity": 68}, {"time": 2106, "pitch": 83, "duration": 3, "velocity": 77}, {"time": 2109, "pitch": 81, "duration": 3, "velocity": 78}, {"time": 2112, "pitch": 54, "duration": 8, "velocity": 58}, {"time": 2112, "pitch": 86, "duration": 2, "velocity": 74}, {"time": 2115, "pitch": 81, "duration": 3, "velocity": 69}, {"time": 2118, "pitch": 50, "duration": 6, "velocity": 58}, {"time": 2118, "pitch": 83, "duration": 2, "velocity": 67}, {"time": 2121, "pitch": 81, "duration": 2, "velocity": 65}, {"time": 2124, "pitch": 43, "duration": 33, "velocity": 68}, {"time": 2124, "pitch": 59, "duration": 17, "velocity": 74}, {"time": 2124, "pitch": 83, "duration": 3, "velocity": 64}, {"time": 2127, "pitch": 81, "duration": 3, "velocity": 63}, {"time": 2130, "pitch": 50, "duration": 26, "velocity": 65}, {"time": 2130, "pitch": 83, "duration": 2, "velocity": 63}, {"time": 2133, "pitch": 81, "duration": 3, "velocity": 62}, {"time": 2136, "pitch": 55, "duration": 9, "velocity": 48}, {"time": 2136, "pitch": 86, "duration": 2, "velocity": 62}, {"time": 2139, "pitch": 81, "duration": 3, "velocity": 63}, {"time": 2142, "pitch": 57, "duration": 6, "velocity": 65}, {"time": 2142, "pitch": 83, "duration": 2, "velocity": 63}, {"time": 2145, "pitch": 81, "duration": 3, "velocity": 64}, {"time": 2148, "pitch": 59, "duration": 9, "velocity": 77}, {"time": 2148, "pitch": 86, "duration": 3, "velocity": 64}, {"time": 2160, "pitch": 50, "duration": 10, "velocity": 66}, {"time": 2160, "pitch": 66, "duration": 9, "velocity": 62}, {"time": 2160, "pitch": 69, "duration": 9, "velocity": 71}, {"time": 2172, "pitch": 43, "duration": 24, "velocity": 73}, {"time": 2172, "pitch": 59, "duration": 15, "velocity": 65}, {"time": 2178, "pitch": 50, "duration": 18, "velocity": 59}, {"time": 2184, "pitch": 55, "duration": 11, "velocity": 59}, {"time": 2190, "pitch": 59, "duration": 6, "velocity": 62}, {"time": 2196, "pitch": 47, "duration": 25, "velocity": 70}, {"time": 2202, "pitch": 62, "duration": 4, "velocity": 52}, {"time": 2208, "pitch": 60, "duration": 4, "velocity": 57}, {"time": 2214, "pitch": 62, "duration": 4, "velocity": 53}, {"time": 2220, "pitch": 48, "duration": 33, "velocity": 86}, {"time": 2220, "pitch": 62, "duration": 8, "velocity": 71}, {"time": 2229, "pitch": 55, "duration": 18, "velocity": 64}, {"time": 2235, "pitch": 60, "duration": 10, "velocity": 59}, {"time": 2238, "pitch": 64, "duration": 4, "velocity": 59}, {"time": 2238, "pitch": 67, "duration": 4, "velocity": 60}, {"time": 2244, "pitch": 64, "duration": 7, "velocity": 71}, {"time": 2256, "pitch": 47, "duration": 8, "velocity": 76}, {"time": 2256, "pitch": 62, "duration": 7, "velocity": 90}, {"time": 2268, "pitch": 45, "duration": 18, "velocity": 71}, {"time": 2268, "pitch": 60, "duration": 10, "velocity": 77}, {"time": 2274, "pitch": 52, "duration": 11, "velocity": 62}, {"time": 2280, "pitch": 60, "duration": 6, "velocity": 75}, {"time": 2280, "pitch": 64, "duration": 5, "velocity": 70}, {"time": 2292, "pitch": 38, "duration": 17, "velocity": 67}, {"time": 2292, "pitch": 52, "duration": 6, "velocity": 71}, {"time": 2292, "pitch": 55, "duration": 6, "velocity": 72}, {"time": 2298, "pitch": 45, "duration": 11, "velocity": 64}, {"time": 2304, "pitch": 54, "duration": 6, "velocity": 64}, {"time": 2304, "pitch": 57, "duration": 6, "velocity": 77}, {"time": 2310, "pitch": 50, "duration": 6, "velocity": 67}, {"time": 2316, "pitch": 43, "duration": 43, "velocity": 81}, {"time": 2316, "pitch": 59, "duration": 16, "velocity": 71}, {"time": 2316, "pitch": 62, "duration": 16, "velocity": 74}, {"time": 2322, "pitch": 50, "duration": 35, "velocity": 63}, {"time": 2328, "pitch": 55, "duration": 5, "velocity": 54}, {"time": 2334, "pitch": 59, "duration": 16, "velocity": 58}, {"time": 2337, "pitch": 62, "duration": 13, "velocity": 43}, {"time": 2340, "pitch": 67, "duration": 10, "velocity": 68}, {"time": 2346, "pitch": 55, "duration": 7, "velocity": 54}, {"time": 2352, "pitch": 59, "duration": 7, "velocity": 65}, {"time": 2352, "pitch": 62, "duration": 6, "velocity": 83}, {"time": 2352, "pitch": 67, "duration": 6, "velocity": 74}, {"time": 2364, "pitch": 41, "duration": 23, "velocity": 53}, {"time": 2364, "pitch": 45, "duration": 22, "velocity": 60}, {"time": 2364, "pitch": 50, "duration": 20, "velocity": 43}, {"time": 2364, "pitch": 53, "duration": 10, "velocity": 50}, {"time": 2364, "pitch": 57, "duration": 10, "velocity": 73}, {"time": 2376, "pitch": 53, "duration": 10, "velocity": 65}, {"time": 2376, "pitch": 57, "duration": 10, "velocity": 90}, {"time": 2388, "pitch": 40, "duration": 18, "velocity": 67}, {"time": 2388, "pitch": 56, "duration": 10, "velocity": 86}, {"time": 2388, "pitch": 59, "duration": 10, "velocity": 85}, {"time": 2394, "pitch": 47, "duration": 13, "velocity": 56}, {"time": 2400, "pitch": 56, "duration": 6, "velocity": 79}, {"time": 2400, "pitch": 59, "duration": 5, "velocity": 79}, {"time": 2406, "pitch": 52, "duration": 5, "velocity": 58}, {"time": 2412, "pitch": 45, "duration": 39, "velocity": 65}, {"time": 2412, "pitch": 60, "duration": 10, "velocity": 74}, {"time": 2412, "pitch": 64, "duration": 11, "velocity": 70}, {"time": 2418, "pitch": 52, "duration": 38, "velocity": 59}, {"time": 2424, "pitch": 60, "duration": 11, "velocity": 65}, {"time": 2424, "pitch": 64, "duration": 11, "velocity": 71}, {"time": 2430, "pitch": 57, "duration": 11, "velocity": 49}, {"time": 2436, "pitch": 60, "duration": 11, "velocity": 74}, {"time": 2436, "pitch": 64, "duration": 11, "velocity": 74}, {"time": 2442, "pitch": 57, "duration": 5, "velocity": 66}, {"time": 2448, "pitch": 60, "duration": 12, "velocity": 79}, {"time": 2448, "pitch": 64, "duration": 11, "velocity": 79}, {"time": 2454, "pitch": 45, "duration": 3, "velocity": 79}, {"time": 2457, "pitch": 47, "duration": 1, "velocity": 74}, {"time": 2460, "pitch": 36, "duration": 24, "velocity": 54}, {"time": 2460, "pitch": 51, "duration": 11, "velocity": 71}, {"time": 2460, "pitch": 55, "duration": 10, "velocity": 72}, {"time": 2472, "pitch": 51, "duration": 11, "velocity": 74}, {"time": 2472, "pitch": 55, "duration": 10, "velocity": 68}, {"time": 2484, "pitch": 38, "duration": 18, "velocity": 74}, {"time": 2484, "pitch": 54, "duration": 10, "velocity": 73}, {"time": 2484, "pitch": 57, "duration": 10, "velocity": 79}, {"time": 2490, "pitch": 45, "duration": 12, "velocity": 67}, {"time": 2496, "pitch": 54, "duration": 6, "velocity": 65}, {"time": 2496, "pitch": 57, "duration": 6, "velocity": 72}, {"time": 2502, "pitch": 50, "duration": 6, "velocity": 54}, {"time": 2508, "pitch": 43, "duration": 46, "velocity": 86}, {"time": 2508, "pitch": 59, "duration": 11, "velocity": 83}, {"time": 2514, "pitch": 50, "duration": 41, "velocity": 63}, {"time": 2517, "pitch": 62, "duration": 1, "velocity": 56}, {"time": 2520, "pitch": 59, "duration": 10, "velocity": 74}, {"time": 2520, "pitch": 62, "duration": 10, "velocity": 74}, {"time": 2526, "pitch": 55, "duration": 9, "velocity": 56}, {"time": 2532, "pitch": 59, "duration": 10, "velocity": 72}, {"time": 2532, "pitch": 62, "duration": 10, "velocity": 81}, {"time": 2538, "pitch": 55, "duration": 7, "velocity": 56}, {"time": 2544, "pitch": 59, "duration": 10, "velocity": 75}, {"time": 2544, "pitch": 62, "duration": 10, "velocity": 83}, {"time": 2550, "pitch": 55, "duration": 4, "velocity": 54}, {"time": 2556, "pitch": 43, "duration": 43, "velocity": 81}, {"time": 2556, "pitch": 59, "duration": 11, "velocity": 81}, {"time": 2556, "pitch": 62, "duration": 11, "velocity": 81}, {"time": 2562, "pitch": 50, "duration": 37, "velocity": 69}, {"time": 2568, "pitch": 59, "duration": 10, "velocity": 73}, {"time": 2568, "pitch": 62, "duration": 11, "velocity": 83}, {"time": 2574, "pitch": 55, "duration": 18, "velocity": 59}, {"time": 2580, "pitch": 59, "duration": 10, "velocity": 72}, {"time": 2580, "pitch": 62, "duration": 10, "velocity": 81}, {"time": 2592, "pitch": 59, "duration": 7, "velocity": 77}, {"time": 2592, "pitch": 62, "duration": 7, "velocity": 81}, {"time": 2598, "pitch": 55, "duration": 2, "velocity": 59}, {"time": 2604, "pitch": 43, "duration": 18, "velocity": 73}, {"time": 2604, "pitch": 59, "duration": 10, "velocity": 85}, {"time": 2604, "pitch": 62, "duration": 10, "velocity": 81}, {"time": 2610, "pitch": 50, "duration": 13, "velocity": 67}, {"time": 2616, "pitch": 59, "duration": 7, "velocity": 85}, {"time": 2616, "pitch": 62, "duration": 6, "velocity": 86}, {"time": 2622, "pitch": 55, "duration": 5, "velocity": 54}, {"time": 2628, "pitch": 47, "duration": 19, "velocity": 77}, {"time": 2628, "pitch": 62, "duration": 11, "velocity": 79}, {"time": 2628, "pitch": 66, "duration": 11, "velocity": 77}, {"time": 2634, "pitch": 54, "duration": 17, "velocity": 71}, {"time": 2640, "pitch": 62, "duration": 6, "velocity": 83}, {"time": 2640, "pitch": 66, "duration": 6, "velocity": 85}, {"time": 2646, "pitch": 59, "duration": 5, "velocity": 58}, {"time": 2652, "pitch": 48, "duration": 34, "velocity": 75}, {"time": 2652, "pitch": 64, "duration": 11, "velocity": 72}, {"time": 2652, "pitch": 67, "duration": 11, "velocity": 72}, {"time": 2658, "pitch": 55, "duration": 27, "velocity": 61}, {"time": 2664, "pitch": 64, "duration": 10, "velocity": 72}, {"time": 2664, "pitch": 67, "duration": 10, "velocity": 79}, {"time": 2670, "pitch": 60, "duration": 8, "velocity": 59}, {"time": 2676, "pitch": 64, "duration": 10, "velocity": 73}, {"time": 2676, "pitch": 67, "duration": 10, "velocity": 74}, {"time": 2682, "pitch": 60, "duration": 3, "velocity": 53}, {"time": 2688, "pitch": 47, "duration": 8, "velocity": 76}, {"time": 2688, "pitch": 62, "duration": 7, "velocity": 83}, {"time": 2688, "pitch": 66, "duration": 7, "velocity": 98}, {"time": 2700, "pitch": 45, "duration": 18, "velocity": 79}, {"time": 2700, "pitch": 60, "duration": 10, "velocity": 85}, {"time": 2700, "pitch": 64, "duration": 11, "velocity": 76}, {"time": 2706, "pitch": 52, "duration": 11, "velocity": 52}, {"time": 2712, "pitch": 60, "duration": 6, "velocity": 85}, {"time": 2712, "pitch": 64, "duration": 5, "velocity": 83}, {"time": 2724, "pitch": 38, "duration": 17, "velocity": 73}, {"time": 2724, "pitch": 52, "duration": 5, "velocity": 59}, {"time": 2724, "pitch": 57, "duration": 6, "velocity": 79}, {"time": 2730, "pitch": 45, "duration": 12, "velocity": 71}, {"time": 2733, "pitch": 54, "duration": 1, "velocity": 10}, {"time": 2733, "pitch": 57, "duration": 3, "velocity": 48}, {"time": 2736, "pitch": 54, "duration": 6, "velocity": 76}, {"time": 2736, "pitch": 57, "duration": 5, "velocity": 85}, {"time": 2742, "pitch": 50, "duration": 5, "velocity": 60}, {"time": 2748, "pitch": 43, "duration": 45, "velocity": 86}, {"time": 2748, "pitch": 59, "duration": 10, "velocity": 85}, {"time": 2748, "pitch": 62, "duration": 10, "velocity": 86}, {"time": 2754, "pitch": 50, "duration": 37, "velocity": 63}, {"time": 2760, "pitch": 59, "duration": 10, "velocity": 76}, {"time": 2760, "pitch": 62, "duration": 11, "velocity": 87}, {"time": 2766, "pitch": 55, "duration": 5, "velocity": 52}, {"time": 2772, "pitch": 59, "duration": 10, "velocity": 73}, {"time": 2772, "pitch": 62, "duration": 10, "velocity": 81}, {"time": 2778, "pitch": 55, "duration": 6, "velocity": 58}, {"time": 2784, "pitch": 59, "duration": 10, "velocity": 74}, {"time": 2784, "pitch": 62, "duration": 10, "velocity": 85}, {"time": 2790, "pitch": 55, "duration": 1, "velocity": 58}, {"time": 2796, "pitch": 41, "duration": 19, "velocity": 65}, {"time": 2796, "pitch": 45, "duration": 18, "velocity": 75}, {"time": 2796, "pitch": 50, "duration": 20, "velocity": 59}, {"time": 2796, "pitch": 53, "duration": 10, "velocity": 64}, {"time": 2796, "pitch": 57, "duration": 10, "velocity": 79}, {"time": 2796, "pitch": 62, "duration": 2, "velocity": 65}, {"time": 2808, "pitch": 53, "duration": 6, "velocity": 87}, {"time": 2808, "pitch": 57, "duration": 6, "velocity": 90}, {"time": 2820, "pitch": 40, "duration": 18, "velocity": 67}, {"time": 2820, "pitch": 56, "duration": 10, "velocity": 97}, {"time": 2820, "pitch": 59, "duration": 10, "velocity": 97}, {"time": 2826, "pitch": 47, "duration": 12, "velocity": 61}, {"time": 2832, "pitch": 56, "duration": 6, "velocity": 96}, {"time": 2832, "pitch": 59, "duration": 6, "velocity": 96}, {"time": 2838, "pitch": 52, "duration": 5, "velocity": 58}, {"time": 2844, "pitch": 45, "duration": 48, "velocity": 69}, {"time": 2844, "pitch": 60, "duration": 10, "velocity": 67}, {"time": 2844, "pitch": 64, "duration": 10, "velocity": 73}, {"time": 2850, "pitch": 52, "duration": 23, "velocity": 60}, {"time": 2856, "pitch": 60, "duration": 10, "velocity": 74}, {"time": 2856, "pitch": 64, "duration": 10, "velocity": 74}, {"time": 2862, "pitch": 57, "duration": 8, "velocity": 53}, {"time": 2868, "pitch": 60, "duration": 9, "velocity": 75}, {"time": 2868, "pitch": 64, "duration": 8, "velocity": 74}, {"time": 2874, "pitch": 52, "duration": 14, "velocity": 54}, {"time": 2880, "pitch": 60, "duration": 8, "velocity": 81}, {"time": 2880, "pitch": 64, "duration": 8, "velocity": 71}, {"time": 2892, "pitch": 36, "duration": 42, "velocity": 64}, {"time": 2892, "pitch": 52, "duration": 10, "velocity": 64}, {"time": 2892, "pitch": 55, "duration": 10, "velocity": 68}, {"time": 2892, "pitch": 60, "duration": 10, "velocity": 74}, {"time": 2898, "pitch": 43, "duration": 39, "velocity": 73}, {"time": 2904, "pitch": 52, "duration": 11, "velocity": 65}, {"time": 2904, "pitch": 55, "duration": 11, "velocity": 74}, {"time": 2904, "pitch": 60, "duration": 10, "velocity": 72}, {"time": 2910, "pitch": 48, "duration": 8, "velocity": 53}, {"time": 2916, "pitch": 52, "duration": 9, "velocity": 65}, {"time": 2916, "pitch": 55, "duration": 9, "velocity": 75}, {"time": 2916, "pitch": 60, "duration": 9, "velocity": 90}, {"time": 2922, "pitch": 48, "duration": 6, "velocity": 59}, {"time": 2928, "pitch": 52, "duration": 7, "velocity": 85}, {"time": 2928, "pitch": 55, "duration": 6, "velocity": 85}, {"time": 2928, "pitch": 60, "duration": 6, "velocity": 85}, {"time": 2934, "pitch": 48, "duration": 4, "velocity": 61}, {"time": 2940, "pitch": 38, "duration": 48, "velocity": 75}, {"time": 2940, "pitch": 54, "duration": 11, "velocity": 68}, {"time": 2940, "pitch": 57, "duration": 11, "velocity": 86}, {"time": 2940, "pitch": 62, "duration": 11, "velocity": 93}, {"time": 2946, "pitch": 45, "duration": 42, "velocity": 79}, {"time": 2952, "pitch": 54, "duration": 10, "velocity": 72}, {"time": 2952, "pitch": 57, "duration": 10, "velocity": 83}, {"time": 2952, "pitch": 62, "duration": 7, "velocity": 87}, {"time": 2958, "pitch": 50, "duration": 6, "velocity": 63}, {"time": 2961, "pitch": 62, "duration": 1, "velocity": 48}, {"time": 2964, "pitch": 54, "duration": 3, "velocity": 67}, {"time": 2964, "pitch": 57, "duration": 4, "velocity": 75}, {"time": 2964, "pitch": 62, "duration": 4, "velocity": 87}, {"time": 2970, "pitch": 50, "duration": 5, "velocity": 62}, {"time": 2976, "pitch": 62, "duration": 10, "velocity": 86}, {"time": 2976, "pitch": 66, "duration": 7, "velocity": 87}, {"time": 2982, "pitch": 50, "duration": 5, "velocity": 66}, {"time": 2988, "pitch": 43, "duration": 18, "velocity": 83}, {"time": 2988, "pitch": 59, "duration": 10, "velocity": 81}, {"time": 2988, "pitch": 62, "duration": 10, "velocity": 83}, {"time": 2994, "pitch": 50, "duration": 17, "velocity": 63}, {"time": 3000, "pitch": 59, "duration": 8, "velocity": 85}, {"time": 3000, "pitch": 62, "duration": 10, "velocity": 86}, {"time": 3006, "pitch": 55, "duration": 6, "velocity": 51}, {"time": 3012, "pitch": 47, "duration": 20, "velocity": 72}, {"time": 3012, "pitch": 60, "duration": 4, "velocity": 73}, {"time": 3012, "pitch": 62, "duration": 4, "velocity": 68}, {"time": 3012, "pitch": 66, "duration": 10, "velocity": 75}, {"time": 3018, "pitch": 54, "duration": 17, "velocity": 70}, {"time": 3021, "pitch": 62, "duration": 1, "velocity": 51}, {"time": 3024, "pitch": 62, "duration": 8, "velocity": 85}, {"time": 3024, "pitch": 66, "duration": 6, "velocity": 90}, {"time": 3030, "pitch": 59, "duration": 5, "velocity": 57}, {"time": 3033, "pitch": 67, "duration": 1, "velocity": 53}, {"time": 3036, "pitch": 48, "duration": 20, "velocity": 83}, {"time": 3036, "pitch": 64, "duration": 11, "velocity": 74}, {"time": 3036, "pitch": 67, "duration": 11, "velocity": 74}, {"time": 3042, "pitch": 55, "duration": 13, "velocity": 70}, {"time": 3048, "pitch": 64, "duration": 13, "velocity": 74}, {"time": 3048, "pitch": 67, "duration": 13, "velocity": 83}, {"time": 3054, "pitch": 60, "duration": 1, "velocity": 60}, {"time": 3060, "pitch": 48, "duration": 10, "velocity": 74}, {"time": 3060, "pitch": 64, "duration": 1, "velocity": 76}, {"time": 3060, "pitch": 67, "duration": 1, "velocity": 69}, {"time": 3072, "pitch": 47, "duration": 8, "velocity": 76}, {"time": 3072, "pitch": 62, "duration": 7, "velocity": 90}, {"time": 3072, "pitch": 66, "duration": 7, "velocity": 86}, {"time": 3081, "pitch": 64, "duration": 1, "velocity": 53}, {"time": 3084, "pitch": 45, "duration": 19, "velocity": 81}, {"time": 3084, "pitch": 60, "duration": 10, "velocity": 75}, {"time": 3084, "pitch": 64, "duration": 10, "velocity": 77}, {"time": 3090, "pitch": 52, "duration": 12, "velocity": 67}, {"time": 3093, "pitch": 69, "duration": 1, "velocity": 11}, {"time": 3096, "pitch": 60, "duration": 6, "velocity": 74}, {"time": 3096, "pitch": 64, "duration": 6, "velocity": 83}, {"time": 3096, "pitch": 69, "duration": 5, "velocity": 63}, {"time": 3102, "pitch": 57, "duration": 1, "velocity": 36}, {"time": 3108, "pitch": 38, "duration": 18, "velocity": 67}, {"time": 3108, "pitch": 54, "duration": 10, "velocity": 65}, {"time": 3108, "pitch": 57, "duration": 11, "velocity": 66}, {"time": 3108, "pitch": 62, "duration": 11, "velocity": 72}, {"time": 3114, "pitch": 45, "duration": 11, "velocity": 76}, {"time": 3120, "pitch": 54, "duration": 6, "velocity": 74}, {"time": 3120, "pitch": 57, "duration": 6, "velocity": 86}, {"time": 3120, "pitch": 62, "duration": 6, "velocity": 87}, {"time": 3126, "pitch": 50, "duration": 5, "velocity": 60}, {"time": 3132, "pitch": 43, "duration": 43, "velocity": 83}, {"time": 3132, "pitch": 59, "duration": 10, "velocity": 83}, {"time": 3132, "pitch": 62, "duration": 10, "velocity": 83}, {"time": 3132, "pitch": 67, "duration": 10, "velocity": 83}, {"time": 3138, "pitch": 50, "duration": 36, "velocity": 69}, {"time": 3144, "pitch": 59, "duration": 10, "velocity": 77}, {"time": 3144, "pitch": 62, "duration": 10, "velocity": 90}, {"time": 3144, "pitch": 67, "duration": 10, "velocity": 76}, {"time": 3150, "pitch": 55, "duration": 7, "velocity": 53}, {"time": 3156, "pitch": 59, "duration": 10, "velocity": 75}, {"time": 3156, "pitch": 62, "duration": 10, "velocity": 85}, {"time": 3156, "pitch": 67, "duration": 10, "velocity": 77}, {"time": 3162, "pitch": 55, "duration": 7, "velocity": 57}, {"time": 3168, "pitch": 59, "duration": 5, "velocity": 83}, {"time": 3168, "pitch": 62, "duration": 5, "velocity": 87}, {"time": 3168, "pitch": 67, "duration": 5, "velocity": 83}, {"time": 3180, "pitch": 41, "duration": 16, "velocity": 64}, {"time": 3180, "pitch": 45, "duration": 17, "velocity": 76}, {"time": 3180, "pitch": 50, "duration": 19, "velocity": 59}, {"time": 3180, "pitch": 53, "duration": 10, "velocity": 73}, {"time": 3180, "pitch": 57, "duration": 10, "velocity": 85}, {"time": 3192, "pitch": 53, "duration": 4, "velocity": 77}, {"time": 3192, "pitch": 57, "duration": 4, "velocity": 85}, {"time": 3204, "pitch": 40, "duration": 17, "velocity": 94}, {"time": 3204, "pitch": 56, "duration": 10, "velocity": 94}, {"time": 3204, "pitch": 59, "duration": 10, "velocity": 94}, {"time": 3216, "pitch": 56, "duration": 5, "velocity": 93}, {"time": 3216, "pitch": 59, "duration": 4, "velocity": 93}, {"time": 3228, "pitch": 45, "duration": 21, "velocity": 83}, {"time": 3228, "pitch": 60, "duration": 11, "velocity": 76}, {"time": 3228, "pitch": 64, "duration": 11, "velocity": 74}, {"time": 3234, "pitch": 52, "duration": 39, "velocity": 62}, {"time": 3240, "pitch": 60, "duration": 11, "velocity": 81}, {"time": 3240, "pitch": 64, "duration": 11, "velocity": 76}, {"time": 3246, "pitch": 57, "duration": 3, "velocity": 58}, {"time": 3252, "pitch": 43, "duration": 23, "velocity": 86}, {"time": 3252, "pitch": 60, "duration": 11, "velocity": 85}, {"time": 3252, "pitch": 64, "duration": 11, "velocity": 86}, {"time": 3264, "pitch": 60, "duration": 10, "velocity": 90}, {"time": 3264, "pitch": 64, "duration": 10, "velocity": 85}, {"time": 3276, "pitch": 36, "duration": 44, "velocity": 67}, {"time": 3276, "pitch": 52, "duration": 11, "velocity": 66}, {"time": 3276, "pitch": 55, "duration": 11, "velocity": 74}, {"time": 3276, "pitch": 60, "duration": 10, "velocity": 52}, {"time": 3282, "pitch": 43, "duration": 41, "velocity": 69}, {"time": 3288, "pitch": 52, "duration": 10, "velocity": 71}, {"time": 3288, "pitch": 55, "duration": 10, "velocity": 83}, {"time": 3288, "pitch": 60, "duration": 10, "velocity": 90}, {"time": 3294, "pitch": 48, "duration": 8, "velocity": 59}, {"time": 3300, "pitch": 52, "duration": 10, "velocity": 76}, {"time": 3300, "pitch": 55, "duration": 10, "velocity": 85}, {"time": 3300, "pitch": 60, "duration": 10, "velocity": 87}, {"time": 3306, "pitch": 48, "duration": 8, "velocity": 52}, {"time": 3312, "pitch": 52, "duration": 7, "velocity": 74}, {"time": 3312, "pitch": 55, "duration": 7, "velocity": 85}, {"time": 3312, "pitch": 60, "duration": 7, "velocity": 95}, {"time": 3318, "pitch": 48, "duration": 5, "velocity": 59}, {"time": 3324, "pitch": 38, "duration": 41, "velocity": 76}, {"time": 3324, "pitch": 54, "duration": 10, "velocity": 62}, {"time": 3324, "pitch": 57, "duration": 10, "velocity": 77}, {"time": 3324, "pitch": 62, "duration": 10, "velocity": 83}, {"time": 3330, "pitch": 45, "duration": 36, "velocity": 67}, {"time": 3336, "pitch": 54, "duration": 10, "velocity": 67}, {"time": 3336, "pitch": 57, "duration": 10, "velocity": 83}, {"time": 3336, "pitch": 62, "duration": 10, "velocity": 95}, {"time": 3342, "pitch": 50, "duration": 8, "velocity": 54}, {"time": 3348, "pitch": 54, "duration": 9, "velocity": 72}, {"time": 3348, "pitch": 57, "duration": 9, "velocity": 86}, {"time": 3348, "pitch": 62, "duration": 9, "velocity": 98}, {"time": 3354, "pitch": 50, "duration": 6, "velocity": 58}, {"time": 3360, "pitch": 54, "duration": 6, "velocity": 93}, {"time": 3360, "pitch": 57, "duration": 6, "velocity": 93}, {"time": 3360, "pitch": 62, "duration": 6, "velocity": 93}, {"time": 3372, "pitch": 44, "duration": 18, "velocity": 73}, {"time": 3372, "pitch": 60, "duration": 10, "velocity": 85}, {"time": 3372, "pitch": 63, "duration": 10, "velocity": 81}, {"time": 3378, "pitch": 51, "duration": 13, "velocity": 67}, {"time": 3384, "pitch": 60, "duration": 7, "velocity": 85}, {"time": 3384, "pitch": 63, "duration": 6, "velocity": 86}, {"time": 3390, "pitch": 56, "duration": 5, "velocity": 54}, {"time": 3396, "pitch": 48, "duration": 19, "velocity": 77}, {"time": 3396, "pitch": 63, "duration": 11, "velocity": 79}, {"time": 3396, "pitch": 67, "duration": 11, "velocity": 77}, {"time": 3402, "pitch": 55, "duration": 17, "velocity": 71}, {"time": 3408, "pitch": 63, "duration": 6, "velocity": 83}, {"time": 3408, "pitch": 67, "duration": 6, "velocity": 85}, {"time": 3414, "pitch": 60, "duration": 5, "velocity": 58}, {"time": 3420, "pitch": 49, "duration": 34, "velocity": 75}, {"time": 3420, "pitch": 65, "duration": 11, "velocity": 72}, {"time": 3420, "pitch": 68, "duration": 11, "velocity": 72}, {"time": 3426, "pitch": 56, "duration": 27, "velocity": 61}, {"time": 3432, "pitch": 65, "duration": 10, "velocity": 72}, {"time": 3432, "pitch": 68, "duration": 10, "velocity": 79}, {"time": 3438, "pitch": 61, "duration": 8, "velocity": 59}, {"time": 3444, "pitch": 65, "duration": 10, "velocity": 73}, {"time": 3444, "pitch": 68, "duration": 10, "velocity": 74}, {"time": 3450, "pitch": 61, "duration": 3, "velocity": 53}, {"time": 3456, "pitch": 48, "duration": 8, "velocity": 76}, {"time": 3456, "pitch": 63, "duration": 7, "velocity": 83}, {"time": 3456, "pitch": 67, "duration": 7, "velocity": 98}, {"time": 3468, "pitch": 46, "duration": 18, "velocity": 79}, {"time": 3468, "pitch": 61, "duration": 10, "velocity": 85}, {"time": 3468, "pitch": 65, "duration": 11, "velocity": 76}, {"time": 3474, "pitch": 53, "duration": 11, "velocity": 52}, {"time": 3480, "pitch": 61, "duration": 6, "velocity": 85}, {"time": 3480, "pitch": 65, "duration": 5, "velocity": 83}, {"time": 3492, "pitch": 39, "duration": 17, "velocity": 73}, {"time": 3492, "pitch": 53, "duration": 5, "velocity": 59}, {"time": 3492, "pitch": 58, "duration": 6, "velocity": 79}, {"time": 3498, "pitch": 46, "duration": 12, "velocity": 71}, {"time": 3501, "pitch": 55, "duration": 1, "velocity": 10}, {"time": 3501, "pitch": 58, "duration": 3, "velocity": 48}, {"time": 3504, "pitch": 55, "duration": 6, "velocity": 76}, {"time": 3504, "pitch": 58, "duration": 5, "velocity": 85}, {"time": 3510, "pitch": 51, "duration": 5, "velocity": 60}, {"time": 3516, "pitch": 44, "duration": 45, "velocity": 86}, {"time": 3516, "pitch": 60, "duration": 10, "velocity": 85}, {"time": 3516, "pitch": 63, "duration": 10, "velocity": 86}, {"time": 3522, "pitch": 51, "duration": 37, "velocity": 63}, {"time": 3528, "pitch": 60, "duration": 10, "velocity": 76}, {"time": 3528, "pitch": 63, "duration": 11, "velocity": 87}, {"time": 3534, "pitch": 56, "duration": 5, "velocity": 52}, {"time": 3540, "pitch": 60, "duration": 10, "velocity": 73}, {"time": 3540, "pitch": 63, "duration": 10, "velocity": 81}, {"time": 3546, "pitch": 56, "duration": 6, "velocity": 58}, {"time": 3552, "pitch": 60, "duration": 10, "velocity": 74}, {"time": 3552, "pitch": 63, "duration": 10, "velocity": 85}, {"time": 3558, "pitch": 56, "duration": 1, "velocity": 58}, {"time": 3564, "pitch": 42, "duration": 19, "velocity": 65}, {"time": 3564, "pitch": 46, "duration": 18, "velocity": 75}, {"time": 3564, "pitch": 51, "duration": 20, "velocity": 59}, {"time": 3564, "pitch": 54, "duration": 10, "velocity": 64}, {"time": 3564, "pitch": 58, "duration": 10, "velocity": 79}, {"time": 3564, "pitch": 63, "duration": 2, "velocity": 65}, {"time": 3576, "pitch": 54, "duration": 6, "velocity": 87}, {"time": 3576, "pitch": 58, "duration": 6, "velocity": 90}, {"time": 3588, "pitch": 41, "duration": 18, "velocity": 67}, {"time": 3588, "pitch": 57, "duration": 10, "velocity": 97}, {"time": 3588, "pitch": 60, "duration": 10, "velocity": 97}, {"time": 3594, "pitch": 48, "duration": 12, "velocity": 61}, {"time": 3600, "pitch": 57, "duration": 6, "velocity": 96}, {"time": 3600, "pitch": 60, "duration": 6, "velocity": 96}, {"time": 3606, "pitch": 53, "duration": 5, "velocity": 58}, {"time": 3612, "pitch": 46, "duration": 48, "velocity": 69}, {"time": 3612, "pitch": 61, "duration": 10, "velocity": 67}, {"time": 3612, "pitch": 65, "duration": 10, "velocity": 73}, {"time": 3618, "pitch": 53, "duration": 23, "velocity": 60}, {"time": 3624, "pitch": 61, "duration": 10, "velocity": 74}, {"time": 3624, "pitch": 65, "duration": 10, "velocity": 74}, {"time": 3630, "pitch": 58, "duration": 8, "velocity": 53}, {"time": 3636, "pitch": 61, "duration": 9, "velocity": 75}, {"time": 3636, "pitch": 65, "duration": 8, "velocity": 74}, {"time": 3642, "pitch": 53, "duration": 14, "velocity": 54}, {"time": 3648, "pitch": 61, "duration": 8, "velocity": 81}, {"time": 3648, "pitch": 65, "duration": 8, "velocity": 71}, {"time": 3660, "pitch": 37, "duration": 42, "velocity": 64}, {"time": 3660, "pitch": 53, "duration": 10, "velocity": 64}, {"time": 3660, "pitch": 56, "duration": 10, "velocity": 68}, {"time": 3660, "pitch": 61, "duration": 10, "velocity": 74}, {"time": 3666, "pitch": 44, "duration": 39, "velocity": 73}, {"time": 3672, "pitch": 53, "duration": 11, "velocity": 65}, {"time": 3672, "pitch": 56, "duration": 11, "velocity": 74}, {"time": 3672, "pitch": 61, "duration": 10, "velocity": 72}, {"time": 3678, "pitch": 49, "duration": 8, "velocity": 53}, {"time": 3684, "pitch": 53, "duration": 9, "velocity": 65}, {"time": 3684, "pitch": 56, "duration": 9, "velocity": 75}, {"time": 3684, "pitch": 61, "duration": 9, "velocity": 90}, {"time": 3690, "pitch": 49, "duration": 6, "velocity": 59}, {"time": 3696, "pitch": 53, "duration": 7, "velocity": 85}, {"time": 3696, "pitch": 56, "duration": 6, "velocity": 85}, {"time": 3696, "pitch": 61, "duration": 6, "velocity": 85}, {"time": 3702, "pitch": 49, "duration": 4, "velocity": 61}, {"time": 3708, "pitch": 39, "duration": 48, "velocity": 75}, {"time": 3708, "pitch": 55, "duration": 11, "velocity": 68}, {"time": 3708, "pitch": 58, "duration": 11, "velocity": 86}, {"time": 3708, "pitch": 63, "duration": 11, "velocity": 93}, {"time": 3714, "pitch": 46, "duration": 42, "velocity": 79}, {"time": 3720, "pitch": 55, "duration": 10, "velocity": 72}, {"time": 3720, "pitch": 58, "duration": 10, "velocity": 83}, {"time": 3720, "pitch": 63, "duration": 7, "velocity": 87}, {"time": 3726, "pitch": 51, "duration": 6, "velocity": 63}, {"time": 3729, "pitch": 63, "duration": 1, "velocity": 48}, {"time": 3732, "pitch": 55, "duration": 3, "velocity": 67}, {"time": 3732, "pitch": 58, "duration": 4, "velocity": 75}, {"time": 3732, "pitch": 63, "duration": 4, "velocity": 87}, {"time": 3738, "pitch": 51, "duration": 5, "velocity": 62}, {"time": 3744, "pitch": 63, "duration": 10, "velocity": 86}, {"time": 3744, "pitch": 67, "duration": 7, "velocity": 87}, {"time": 3750, "pitch": 51, "duration": 5, "velocity": 66}, {"time": 3756, "pitch": 44, "duration": 18, "velocity": 83}, {"time": 3756, "pitch": 60, "duration": 10, "velocity": 81}, {"time": 3756, "pitch": 63, "duration": 10, "velocity": 83}, {"time": 3762, "pitch": 51, "duration": 17, "velocity": 63}, {"time": 3768, "pitch": 60, "duration": 8, "velocity": 85}, {"time": 3768, "pitch": 63, "duration": 10, "velocity": 86}, {"time": 3774, "pitch": 56, "duration": 6, "velocity": 51}, {"time": 3780, "pitch": 48, "duration": 20, "velocity": 72}, {"time": 3780, "pitch": 61, "duration": 4, "velocity": 73}, {"time": 3780, "pitch": 63, "duration": 4, "velocity": 68}, {"time": 3780, "pitch": 67, "duration": 10, "velocity": 75}, {"time": 3786, "pitch": 55, "duration": 17, "velocity": 70}, {"time": 3789, "pitch": 63, "duration": 1, "velocity": 51}, {"time": 3792, "pitch": 63, "duration": 8, "velocity": 85}, {"time": 3792, "pitch": 67, "duration": 6, "velocity": 90}, {"time": 3798, "pitch": 60, "duration": 5, "velocity": 57}, {"time": 3801, "pitch": 68, "duration": 1, "velocity": 53}, {"time": 3804, "pitch": 49, "duration": 20, "velocity": 83}, {"time": 3804, "pitch": 65, "duration": 11, "velocity": 74}, {"time": 3804, "pitch": 68, "duration": 11, "velocity": 74}, {"time": 3810, "pitch": 56, "duration": 13, "velocity": 70}, {"time": 3816, "pitch": 65, "duration": 13, "velocity": 74}, {"time": 3816, "pitch": 68, "duration": 13, "velocity": 83}, {"time": 3822, "pitch": 61, "duration": 1, "velocity": 60}, {"time": 3828, "pitch": 49, "duration": 10, "velocity": 74}, {"time": 3828, "pitch": 65, "duration": 1, "velocity": 76}, {"time": 3828, "pitch": 68, "duration": 1, "velocity": 69}, {"time": 3840, "pitch": 48, "duration": 8, "velocity": 76}, {"time": 3840, "pitch": 63, "duration": 7, "velocity": 90}, {"time": 3840, "pitch": 67, "duration": 7, "velocity": 86}, {"time": 3849, "pitch": 65, "duration": 1, "velocity": 53}, {"time": 3852, "pitch": 46, "duration": 19, "velocity": 81}, {"time": 3852, "pitch": 61, "duration": 10, "velocity": 75}, {"time": 3852, "pitch": 65, "duration": 10, "velocity": 77}, {"time": 3858, "pitch": 53, "duration": 12, "velocity": 67}, {"time": 3861, "pitch": 70, "duration": 1, "velocity": 11}, {"time": 3864, "pitch": 61, "duration": 6, "velocity": 74}, {"time": 3864, "pitch": 65, "duration": 6, "velocity": 83}, {"time": 3864, "pitch": 70, "duration": 5, "velocity": 63}, {"time": 3870, "pitch": 58, "duration": 1, "velocity": 36}, {"time": 3876, "pitch": 39, "duration": 18, "velocity": 67}, {"time": 3876, "pitch": 55, "duration": 10, "velocity": 65}, {"time": 3876, "pitch": 58, "duration": 11, "velocity": 66}, {"time": 3876, "pitch": 63, "duration": 11, "velocity": 72}, {"time": 3882, "pitch": 46, "duration": 11, "velocity": 76}, {"time": 3888, "pitch": 55, "duration": 6, "velocity": 74}, {"time": 3888, "pitch": 58, "duration": 6, "velocity": 86}, {"time": 3888, "pitch": 63, "duration": 6, "velocity": 87}, {"time": 3894, "pitch": 51, "duration": 5, "velocity": 60}, {"time": 3900, "pitch": 44, "duration": 43, "velocity": 83}, {"time": 3900, "pitch": 60, "duration": 10, "velocity": 83}, {"time": 3900, "pitch": 63, "duration": 10, "velocity": 83}, {"time": 3900, "pitch": 68, "duration": 10, "velocity": 83}, {"time": 3906, "pitch": 51, "duration": 36, "velocity": 69}, {"time": 3912, "pitch": 60, "duration": 10, "velocity": 77}, {"time": 3912, "pitch": 63, "duration": 10, "velocity": 90}, {"time": 3912, "pitch": 68, "duration": 10, "velocity": 76}, {"time": 3918, "pitch": 56, "duration": 7, "velocity": 53}, {"time": 3924, "pitch": 60, "duration": 10, "velocity": 75}, {"time": 3924, "pitch": 63, "duration": 10, "velocity": 85}, {"time": 3924, "pitch": 68, "duration": 10, "velocity": 77}, {"time": 3930, "pitch": 56, "duration": 7, "velocity": 57}, {"time": 3936, "pitch": 60, "duration": 5, "velocity": 83}, {"time": 3936, "pitch": 63, "duration": 5, "velocity": 87}, {"time": 3936, "pitch": 68, "duration": 5, "velocity": 83}, {"time": 3948, "pitch": 42, "duration": 16, "velocity": 64}, {"time": 3948, "pitch": 46, "duration": 17, "velocity": 76}, {"time": 3948, "pitch": 51, "duration": 19, "velocity": 59}, {"time": 3948, "pitch": 54, "duration": 10, "velocity": 73}, {"time": 3948, "pitch": 58, "duration": 10, "velocity": 85}, {"time": 3960, "pitch": 54, "duration": 4, "velocity": 77}, {"time": 3960, "pitch": 58, "duration": 4, "velocity": 85}, {"time": 3972, "pitch": 41, "duration": 17, "velocity": 94}, {"time": 3972, "pitch": 57, "duration": 10, "velocity": 94}, {"time": 3972, "pitch": 60, "duration": 10, "velocity": 94}, {"time": 3984, "pitch": 57, "duration": 5, "velocity": 93}, {"time": 3984, "pitch": 60, "duration": 4, "velocity": 93}, {"time": 3996, "pitch": 46, "duration": 21, "velocity": 83}, {"time": 3996, "pitch": 61, "duration": 11, "velocity": 76}, {"time": 3996, "pitch": 65, "duration": 11, "velocity": 74}, {"time": 4002, "pitch": 53, "duration": 39, "velocity": 62}, {"time": 4008, "pitch": 61, "duration": 11, "velocity": 81}, {"time": 4008, "pitch": 65, "duration": 11, "velocity": 76}, {"time": 4014, "pitch": 58, "duration": 3, "velocity": 58}, {"time": 4020, "pitch": 44, "duration": 23, "velocity": 86}, {"time": 4020, "pitch": 61, "duration": 11, "velocity": 85}, {"time": 4020, "pitch": 65, "duration": 11, "velocity": 86}, {"time": 4032, "pitch": 61, "duration": 10, "velocity": 90}, {"time": 4032, "pitch": 65, "duration": 10, "velocity": 85}, {"time": 4044, "pitch": 37, "duration": 44, "velocity": 67}, {"time": 4044, "pitch": 53, "duration": 11, "velocity": 66}, {"time": 4044, "pitch": 56, "duration": 11, "velocity": 74}, {"time": 4044, "pitch": 61, "duration": 10, "velocity": 52}, {"time": 4050, "pitch": 44, "duration": 41, "velocity": 69}, {"time": 4056, "pitch": 53, "duration": 10, "velocity": 71}, {"time": 4056, "pitch": 56, "duration": 10, "velocity": 83}, {"time": 4056, "pitch": 61, "duration": 10, "velocity": 90}, {"time": 4062, "pitch": 49, "duration": 8, "velocity": 59}, {"time": 4068, "pitch": 53, "duration": 10, "velocity": 76}, {"time": 4068, "pitch": 56, "duration": 10, "velocity": 85}, {"time": 4068, "pitch": 61, "duration": 10, "velocity": 87}, {"time": 4074, "pitch": 49, "duration": 8, "velocity": 52}, {"time": 4080, "pitch": 53, "duration": 7, "velocity": 74}, {"time": 4080, "pitch": 56, "duration": 7, "velocity": 85}, {"time": 4080, "pitch": 61, "duration": 7, "velocity": 95}, {"time": 4086, "pitch": 49, "duration": 5, "velocity": 59}, {"time": 4092, "pitch": 39, "duration": 41, "velocity": 76}, {"time": 4092, "pitch": 55, "duration": 10, "velocity": 62}, {"time": 4092, "pitch": 58, "duration": 10, "velocity": 77}, {"time": 4092, "pitch": 63, "duration": 10, "velocity": 83}, {"time": 4098, "pitch": 46, "duration": 36, "velocity": 67}, {"time": 4104, "pitch": 55, "duration": 10, "velocity": 67}, {"time": 4104, "pitch": 58, "duration": 10, "velocity": 83}, {"time": 4104, "pitch": 63, "duration": 10, "velocity": 95}, {"time": 4110, "pitch": 51, "duration": 8, "velocity": 54}, {"time": 4116, "pitch": 55, "duration": 9, "velocity": 72}, {"time": 4116, "pitch": 58, "duration": 9, "velocity": 86}, {"time": 4116, "pitch": 63, "duration": 9, "velocity": 98}, {"time": 4122, "pitch": 51, "duration": 6, "velocity": 58}, {"time": 4128, "pitch": 55, "duration": 6, "velocity": 93}, {"time": 4128, "pitch": 58, "duration": 6, "velocity": 93}, {"time": 4128, "pitch": 63, "duration": 6, "velocity": 93}, {"time": 4134, "pitch": 51, "duration": 5, "velocity": 60}, {"time": 4140, "pitch": 44, "duration": 19, "velocity": 87}, {"time": 4140, "pitch": 60, "duration": 10, "velocity": 81}, {"time": 4140, "pitch": 63, "duration": 10, "velocity": 87}, {"time": 4140, "pitch": 84, "duration": 3, "velocity": 74}, {"time": 4143, "pitch": 82, "duration": 3, "velocity": 67}, {"time": 4146, "pitch": 51, "duration": 36, "velocity": 65}, {"time": 4146, "pitch": 84, "duration": 3, "velocity": 70}, {"time": 4149, "pitch": 82, "duration": 3, "velocity": 67}, {"time": 4152, "pitch": 60, "duration": 7, "velocity": 83}, {"time": 4152, "pitch": 63, "duration": 7, "velocity": 87}, {"time": 4152, "pitch": 87, "duration": 2, "velocity": 98}, {"time": 4155, "pitch": 82, "duration": 2, "velocity": 72}, {"time": 4158, "pitch": 56, "duration": 3, "velocity": 56}, {"time": 4158, "pitch": 84, "duration": 2, "velocity": 67}, {"time": 4161, "pitch": 63, "duration": 1, "velocity": 51}, {"time": 4161, "pitch": 82, "duration": 3, "velocity": 67}, {"time": 4164, "pitch": 43, "duration": 18, "velocity": 59}, {"time": 4164, "pitch": 58, "duration": 10, "velocity": 72}, {"time": 4164, "pitch": 63, "duration": 11, "velocity": 85}, {"time": 4164, "pitch": 84, "duration": 3, "velocity": 63}, {"time": 4167, "pitch": 82, "duration": 2, "velocity": 60}, {"time": 4170, "pitch": 55, "duration": 3, "velocity": 57}, {"time": 4170, "pitch": 84, "duration": 3, "velocity": 60}, {"time": 4173, "pitch": 82, "duration": 3, "velocity": 67}, {"time": 4176, "pitch": 58, "duration": 6, "velocity": 76}, {"time": 4176, "pitch": 63, "duration": 6, "velocity": 93}, {"time": 4176, "pitch": 87, "duration": 5, "velocity": 93}, {"time": 4179, "pitch": 82, "duration": 2, "velocity": 73}, {"time": 4182, "pitch": 84, "duration": 3, "velocity": 81}, {"time": 4188, "pitch": 41, "duration": 22, "velocity": 76}, {"time": 4188, "pitch": 56, "duration": 11, "velocity": 67}, {"time": 4188, "pitch": 60, "duration": 11, "velocity": 74}, {"time": 4188, "pitch": 84, "duration": 3, "velocity": 75}, {"time": 4191, "pitch": 82, "duration": 3, "velocity": 67}, {"time": 4194, "pitch": 48, "duration": 18, "velocity": 61}, {"time": 4194, "pitch": 84, "duration": 3, "velocity": 63}, {"time": 4197, "pitch": 82, "duration": 3, "velocity": 67}, {"time": 4200, "pitch": 56, "duration": 10, "velocity": 69}, {"time": 4200, "pitch": 60, "duration": 10, "velocity": 68}, {"time": 4200, "pitch": 65, "duration": 10, "velocity": 72}, {"time": 4200, "pitch": 87, "duration": 3, "velocity": 77}, {"time": 4203, "pitch": 82, "duration": 2, "velocity": 67}, {"time": 4206, "pitch": 53, "duration": 7, "velocity": 58}, {"time": 4206, "pitch": 84, "duration": 3, "velocity": 65}, {"time": 4209, "pitch": 82, "duration": 3, "velocity": 67}, {"time": 4212, "pitch": 39, "duration": 21, "velocity": 62}, {"time": 4212, "pitch": 55, "duration": 10, "velocity": 60}, {"time": 4212, "pitch": 58, "duration": 10, "velocity": 66}, {"time": 4212, "pitch": 63, "duration": 10, "velocity": 73}, {"time": 4212, "pitch": 84, "duration": 3, "velocity": 68}, {"time": 4215, "pitch": 82, "duration": 2, "velocity": 61}, {"time": 4218, "pitch": 46, "duration": 15, "velocity": 60}, {"time": 4218, "pitch": 84, "duration": 3, "velocity": 72}, {"time": 4221, "pitch": 82, "duration": 3, "velocity": 66}, {"time": 4224, "pitch": 55, "duration": 7, "velocity": 68}, {"time": 4224, "pitch": 58, "duration": 6, "velocity": 81}, {"time": 4224, "pitch": 63, "duration": 6, "velocity": 85}, {"time": 4224, "pitch": 87, "duration": 3, "velocity": 87}, {"time": 4227, "pitch": 82, "duration": 3, "velocity": 67}, {"time": 4230, "pitch": 51, "duration": 2, "velocity": 59}, {"time": 4230, "pitch": 84, "duration": 3, "velocity": 69}, {"time": 4236, "pitch": 37, "duration": 19, "velocity": 69}, {"time": 4236, "pitch": 53, "duration": 10, "velocity": 64}, {"time": 4236, "pitch": 56, "duration": 10, "velocity": 74}, {"time": 4236, "pitch": 61, "duration": 7, "velocity": 77}, {"time": 4236, "pitch": 84, "duration": 3, "velocity": 68}, {"time": 4239, "pitch": 82, "duration": 2, "velocity": 64}, {"time": 4242, "pitch": 44, "duration": 17, "velocity": 75}, {"time": 4242, "pitch": 84, "duration": 3, "velocity": 77}, {"time": 4245, "pitch": 61, "duration": 1, "velocity": 39}, {"time": 4245, "pitch": 82, "duration": 3, "velocity": 65}, {"time": 4248, "pitch": 53, "duration": 6, "velocity": 75}, {"time": 4248, "pitch": 56, "duration": 6, "velocity": 85}, {"time": 4248, "pitch": 61, "duration": 6, "velocity": 85}, {"time": 4248, "pitch": 87, "duration": 2, "velocity": 79}, {"time": 4251, "pitch": 82, "duration": 3, "velocity": 70}, {"time": 4254, "pitch": 49, "duration": 4, "velocity": 65}, {"time": 4254, "pitch": 84, "duration": 3, "velocity": 65}, {"time": 4257, "pitch": 82, "duration": 3, "velocity": 64}, {"time": 4260, "pitch": 39, "duration": 18, "velocity": 74}, {"time": 4260, "pitch": 55, "duration": 11, "velocity": 65}, {"time": 4260, "pitch": 58, "duration": 11, "velocity": 74}, {"time": 4260, "pitch": 63, "duration": 10, "velocity": 83}, {"time": 4260, "pitch": 84, "duration": 3, "velocity": 69}, {"time": 4263, "pitch": 82, "duration": 3, "velocity": 70}, {"time": 4266, "pitch": 46, "duration": 12, "velocity": 74}, {"time": 4266, "pitch": 84, "duration": 3, "velocity": 61}, {"time": 4269, "pitch": 82, "duration": 4, "velocity": 73}, {"time": 4272, "pitch": 55, "duration": 5, "velocity": 74}, {"time": 4272, "pitch": 58, "duration": 5, "velocity": 86}, {"time": 4272, "pitch": 63, "duration": 5, "velocity": 87}, {"time": 4272, "pitch": 87, "duration": 2, "velocity": 73}, {"time": 4275, "pitch": 82, "duration": 2, "velocity": 71}, {"time": 4278, "pitch": 51, "duration": 5, "velocity": 61}, {"time": 4278, "pitch": 84, "duration": 2, "velocity": 68}, {"time": 4281, "pitch": 82, "duration": 2, "velocity": 69}, {"time": 4284, "pitch": 44, "duration": 43, "velocity": 85}, {"time": 4284, "pitch": 60, "duration": 10, "velocity": 71}, {"time": 4284, "pitch": 63, "duration": 10, "velocity": 86}, {"time": 4284, "pitch": 68, "duration": 10, "velocity": 83}, {"time": 4284, "pitch": 84, "duration": 3, "velocity": 69}, {"time": 4287, "pitch": 82, "duration": 2, "velocity": 64}, {"time": 4290, "pitch": 51, "duration": 35, "velocity": 63}, {"time": 4290, "pitch": 84, "duration": 3, "velocity": 64}, {"time": 4293, "pitch": 82, "duration": 3, "velocity": 60}, {"time": 4296, "pitch": 60, "duration": 10, "velocity": 63}, {"time": 4296, "pitch": 63, "duration": 10, "velocity": 77}, {"time": 4296, "pitch": 68, "duration": 6, "velocity": 73}, {"time": 4296, "pitch": 87, "duration": 2, "velocity": 74}, {"time": 4299, "pitch": 82, "duration": 3, "velocity": 69}, {"time": 4302, "pitch": 56, "duration": 7, "velocity": 52}, {"time": 4302, "pitch": 84, "duration": 3, "velocity": 65}, {"time": 4305, "pitch": 82, "duration": 3, "velocity": 73}, {"time": 4308, "pitch": 61, "duration": 9, "velocity": 86}, {"time": 4308, "pitch": 63, "duration": 10, "velocity": 83}, {"time": 4308, "pitch": 84, "duration": 3, "velocity": 71}, {"time": 4311, "pitch": 82, "duration": 2, "velocity": 67}, {"time": 4314, "pitch": 56, "duration": 5, "velocity": 58}, {"time": 4314, "pitch": 84, "duration": 3, "velocity": 74}, {"time": 4317, "pitch": 82, "duration": 3, "velocity": 68}, {"time": 4320, "pitch": 60, "duration": 9, "velocity": 79}, {"time": 4320, "pitch": 63, "duration": 7, "velocity": 75}, {"time": 4320, "pitch": 68, "duration": 6, "velocity": 61}, {"time": 4320, "pitch": 87, "duration": 3, "velocity": 83}, {"time": 4323, "pitch": 82, "duration": 3, "velocity": 74}, {"time": 4326, "pitch": 84, "duration": 3, "velocity": 81}, {"time": 4332, "pitch": 43, "duration": 23, "velocity": 90}, {"time": 4332, "pitch": 58, "duration": 1, "velocity": 58}, {"time": 4332, "pitch": 84, "duration": 3, "velocity": 70}, {"time": 4335, "pitch": 82, "duration": 2, "velocity": 68}, {"time": 4338, "pitch": 58, "duration": 7, "velocity": 63}, {"time": 4338, "pitch": 84, "duration": 3, "velocity": 66}, {"time": 4341, "pitch": 82, "duration": 3, "velocity": 68}, {"time": 4344, "pitch": 61, "duration": 7, "velocity": 76}, {"time": 4344, "pitch": 87, "duration": 2, "velocity": 74}, {"time": 4347, "pitch": 82, "duration": 2, "velocity": 62}, {"time": 4350, "pitch": 58, "duration": 7, "velocity": 62}, {"time": 4350, "pitch": 84, "duration": 3, "velocity": 67}, {"time": 4353, "pitch": 82, "duration": 3, "velocity": 63}, {"time": 4356, "pitch": 48, "duration": 19, "velocity": 77}, {"time": 4356, "pitch": 64, "duration": 10, "velocity": 68}, {"time": 4356, "pitch": 67, "duration": 6, "velocity": 62}, {"time": 4356, "pitch": 84, "duration": 3, "velocity": 61}, {"time": 4359, "pitch": 82, "duration": 2, "velocity": 63}, {"time": 4362, "pitch": 52, "duration": 12, "velocity": 67}, {"time": 4362, "pitch": 84, "duration": 3, "velocity": 67}, {"time": 4365, "pitch": 82, "duration": 3, "velocity": 65}, {"time": 4368, "pitch": 55, "duration": 6, "velocity": 61}, {"time": 4368, "pitch": 87, "duration": 2, "velocity": 68}, {"time": 4371, "pitch": 82, "duration": 3, "velocity": 64}, {"time": 4374, "pitch": 64, "duration": 5, "velocity": 70}, {"time": 4374, "pitch": 84, "duration": 3, "velocity": 69}, {"time": 4377, "pitch": 82, "duration": 3, "velocity": 63}, {"time": 4380, "pitch": 41, "duration": 24, "velocity": 71}, {"time": 4380, "pitch": 84, "duration": 3, "velocity": 68}, {"time": 4383, "pitch": 82, "duration": 2, "velocity": 67}, {"time": 4386, "pitch": 48, "duration": 18, "velocity": 60}, {"time": 4386, "pitch": 84, "duration": 3, "velocity": 72}, {"time": 4389, "pitch": 82, "duration": 3, "velocity": 62}, {"time": 4392, "pitch": 56, "duration": 13, "velocity": 66}, {"time": 4392, "pitch": 87, "duration": 3, "velocity": 77}, {"time": 4395, "pitch": 82, "duration": 3, "velocity": 68}, {"time": 4398, "pitch": 84, "duration": 2, "velocity": 74}, {"time": 4401, "pitch": 87, "duration": 3, "velocity": 85}, {"time": 4404, "pitch": 39, "duration": 18, "velocity": 71}, {"time": 4404, "pitch": 55, "duration": 11, "velocity": 65}, {"time": 4404, "pitch": 84, "duration": 3, "velocity": 64}, {"time": 4407, "pitch": 82, "duration": 3, "velocity": 71}, {"time": 4410, "pitch": 46, "duration": 9, "velocity": 74}, {"time": 4410, "pitch": 80, "duration": 3, "velocity": 65}, {"time": 4413, "pitch": 82, "duration": 3, "velocity": 67}, {"time": 4416, "pitch": 55, "duration": 5, "velocity": 57}, {"time": 4416, "pitch": 58, "duration": 5, "velocity": 67}, {"time": 4416, "pitch": 87, "duration": 4, "velocity": 79}, {"time": 4419, "pitch": 84, "duration": 3, "velocity": 59}, {"time": 4422, "pitch": 82, "duration": 2, "velocity": 71}, {"time": 4428, "pitch": 37, "duration": 18, "velocity": 69}, {"time": 4428, "pitch": 53, "duration": 10, "velocity": 64}, {"time": 4428, "pitch": 56, "duration": 10, "velocity": 69}, {"time": 4428, "pitch": 87, "duration": 2, "velocity": 79}, {"time": 4431, "pitch": 82, "duration": 3, "velocity": 62}, {"time": 4434, "pitch": 44, "duration": 17, "velocity": 76}, {"time": 4434, "pitch": 84, "duration": 2, "velocity": 63}, {"time": 4437, "pitch": 82, "duration": 3, "velocity": 60}, {"time": 4440, "pitch": 53, "duration": 6, "velocity": 65}, {"time": 4440, "pitch": 56, "duration": 6, "velocity": 67}, {"time": 4440, "pitch": 87, "duration": 2, "velocity": 81}, {"time": 4443, "pitch": 82, "duration": 2, "velocity": 65}, {"time": 4446, "pitch": 49, "duration": 6, "velocity": 41}, {"time": 4446, "pitch": 84, "duration": 2, "velocity": 61}, {"time": 4449, "pitch": 82, "duration": 3, "velocity": 63}, {"time": 4452, "pitch": 39, "duration": 18, "velocity": 64}, {"time": 4452, "pitch": 55, "duration": 11, "velocity": 66}, {"time": 4452, "pitch": 87, "duration": 2, "velocity": 76}, {"time": 4455, "pitch": 82, "duration": 3, "velocity": 68}, {"time": 4458, "pitch": 46, "duration": 12, "velocity": 68}, {"time": 4458, "pitch": 84, "duration": 3, "velocity": 63}, {"time": 4461, "pitch": 82, "duration": 3, "velocity": 64}, {"time": 4464, "pitch": 55, "duration": 8, "velocity": 58}, {"time": 4464, "pitch": 87, "duration": 2, "velocity": 74}, {"time": 4467, "pitch": 82, "duration": 3, "velocity": 70}, {"time": 4470, "pitch": 51, "duration": 6, "velocity": 58}, {"time": 4470, "pitch": 84, "duration": 2, "velocity": 63}, {"time": 4473, "pitch": 82, "duration": 2, "velocity": 59}, {"time": 4476, "pitch": 44, "duration": 33, "velocity": 68}, {"time": 4476, "pitch": 60, "duration": 17, "velocity": 74}, {"time": 4476, "pitch": 84, "duration": 3, "velocity": 71}, {"time": 4479, "pitch": 82, "duration": 3, "velocity": 67}, {"time": 4482, "pitch": 51, "duration": 26, "velocity": 65}, {"time": 4482, "pitch": 84, "duration": 2, "velocity": 69}, {"time": 4485, "pitch": 82, "duration": 3, "velocity": 70}, {"time": 4488, "pitch": 56, "duration": 9, "velocity": 48}, {"time": 4488, "pitch": 87, "duration": 2, "velocity": 93}, {"time": 4491, "pitch": 82, "duration": 3, "velocity": 74}, {"time": 4494, "pitch": 58, "duration": 6, "velocity": 65}, {"time": 4494, "pitch": 84, "duration": 2, "velocity": 65}, {"time": 4497, "pitch": 82, "duration": 3, "velocity": 64}, {"time": 4500, "pitch": 60, "duration": 9, "velocity": 77}, {"time": 4500, "pitch": 87, "duration": 3, "velocity": 81}], "annotations": [{"time": 12, "annotation": {"number": 64, "value": 73}, "group": "control_change"}, {"time": 24, "annotation": {"number": 64, "value": 78}, "group": "control_change"}]}]}