{"metadata": {"schema_version": "0.2", "title": "None", "source_filename": "075.mid", "source_format": "midi"}, "resolution": 12, "tempos": [{"time": 0, "qpm": 58.00004253336452}], "time_signatures": [{"time": 0, "numerator": 1, "denominator": 4}], "tracks": [{"program": 0, "is_drum": false, "name": "MELODY", "notes": [{"time": 278, "pitch": 65, "duration": 3, "velocity": 92}, {"time": 281, "pitch": 70, "duration": 1, "velocity": 92}, {"time": 284, "pitch": 70, "duration": 1, "velocity": 92}, {"time": 287, "pitch": 70, "duration": 1, "velocity": 92}, {"time": 290, "pitch": 70, "duration": 2, "velocity": 92}, {"time": 293, "pitch": 70, "duration": 3, "velocity": 92}, {"time": 299, "pitch": 65, "duration": 2, "velocity": 92}, {"time": 302, "pitch": 74, "duration": 3, "velocity": 92}, {"time": 307, "pitch": 72, "duration": 5, "velocity": 92}, {"time": 332, "pitch": 74, "duration": 2, "velocity": 92}, {"time": 335, "pitch": 72, "duration": 1, "velocity": 92}, {"time": 338, "pitch": 70, "duration": 2, "velocity": 92}, {"time": 342, "pitch": 70, "duration": 1, "velocity": 92}, {"time": 347, "pitch": 62, "duration": 2, "velocity": 92}, {"time": 350, "pitch": 65, "duration": 6, "velocity": 92}, {"time": 368, "pitch": 74, "duration": 1, "velocity": 93}, {"time": 371, "pitch": 74, "duration": 1, "velocity": 93}, {"time": 374, "pitch": 74, "duration": 2, "velocity": 94}, {"time": 377, "pitch": 67, "duration": 12, "velocity": 94}, {"time": 389, "pitch": 74, "duration": 5, "velocity": 94}, {"time": 398, "pitch": 72, "duration": 2, "velocity": 95}, {"time": 401, "pitch": 70, "duration": 8, "velocity": 95}, {"time": 413, "pitch": 67, "duration": 3, "velocity": 95}, {"time": 416, "pitch": 70, "duration": 3, "velocity": 95}, {"time": 419, "pitch": 67, "duration": 2, "velocity": 95}, {"time": 422, "pitch": 74, "duration": 4, "velocity": 95}, {"time": 425, "pitch": 67, "duration": 7, "velocity": 95}, {"time": 434, "pitch": 70, "duration": 2, "velocity": 95}, {"time": 437, "pitch": 74, "duration": 5, "velocity": 95}, {"time": 446, "pitch": 72, "duration": 16, "velocity": 95}, {"time": 467, "pitch": 65, "duration": 1, "velocity": 96}, {"time": 470, "pitch": 65, "duration": 2, "velocity": 96}, {"time": 473, "pitch": 70, "duration": 1, "velocity": 96}, {"time": 476, "pitch": 70, "duration": 1, "velocity": 96}, {"time": 479, "pitch": 70, "duration": 1, "velocity": 96}, {"time": 482, "pitch": 70, "duration": 2, "velocity": 96}, {"time": 485, "pitch": 70, "duration": 3, "velocity": 96}, {"time": 491, "pitch": 67, "duration": 2, "velocity": 96}, {"time": 494, "pitch": 74, "duration": 2, "velocity": 96}, {"time": 497, "pitch": 72, "duration": 10, "velocity": 96}, {"time": 524, "pitch": 79, "duration": 2, "velocity": 97}, {"time": 527, "pitch": 77, "duration": 1, "velocity": 97}, {"time": 530, "pitch": 77, "duration": 2, "velocity": 97}, {"time": 533, "pitch": 70, "duration": 4, "velocity": 97}, {"time": 539, "pitch": 77, "duration": 2, "velocity": 97}, {"time": 545, "pitch": 74, "duration": 11, "velocity": 97}, {"time": 563, "pitch": 74, "duration": 2, "velocity": 97}, {"time": 566, "pitch": 79, "duration": 1, "velocity": 97}, {"time": 569, "pitch": 79, "duration": 1, "velocity": 97}, {"time": 572, "pitch": 77, "duration": 1, "velocity": 97}, {"time": 575, "pitch": 79, "duration": 5, "velocity": 97}, {"time": 584, "pitch": 79, "duration": 2, "velocity": 98}, {"time": 587, "pitch": 77, "duration": 1, "velocity": 98}, {"time": 590, "pitch": 77, "duration": 1, "velocity": 99}, {"time": 593, "pitch": 70, "duration": 3, "velocity": 99}, {"time": 599, "pitch": 74, "duration": 7, "velocity": 99}, {"time": 608, "pitch": 74, "duration": 1, "velocity": 99}, {"time": 610, "pitch": 77, "duration": 2, "velocity": 99}, {"time": 614, "pitch": 79, "duration": 2, "velocity": 99}, {"time": 618, "pitch": 79, "duration": 2, "velocity": 99}, {"time": 623, "pitch": 79, "duration": 1, "velocity": 99}, {"time": 626, "pitch": 79, "duration": 2, "velocity": 99}, {"time": 630, "pitch": 79, "duration": 3, "velocity": 99}, {"time": 635, "pitch": 79, "duration": 5, "velocity": 99}, {"time": 641, "pitch": 77, "duration": 22, "velocity": 100}, {"time": 674, "pitch": 74, "duration": 4, "velocity": 101}, {"time": 680, "pitch": 79, "duration": 3, "velocity": 101}, {"time": 686, "pitch": 79, "duration": 2, "velocity": 101}, {"time": 689, "pitch": 77, "duration": 2, "velocity": 101}, {"time": 695, "pitch": 74, "duration": 1, "velocity": 101}, {"time": 698, "pitch": 77, "duration": 6, "velocity": 101}, {"time": 707, "pitch": 74, "duration": 2, "velocity": 101}, {"time": 710, "pitch": 79, "duration": 2, "velocity": 101}, {"time": 713, "pitch": 77, "duration": 2, "velocity": 101}, {"time": 719, "pitch": 74, "duration": 2, "velocity": 101}, {"time": 722, "pitch": 77, "duration": 4, "velocity": 101}, {"time": 728, "pitch": 77, "duration": 2, "velocity": 101}, {"time": 731, "pitch": 82, "duration": 1, "velocity": 101}, {"time": 734, "pitch": 82, "duration": 1, "velocity": 101}, {"time": 737, "pitch": 79, "duration": 3, "velocity": 101}, {"time": 746, "pitch": 79, "duration": 3, "velocity": 101}, {"time": 752, "pitch": 77, "duration": 2, "velocity": 101}, {"time": 755, "pitch": 70, "duration": 3, "velocity": 101}, {"time": 758, "pitch": 74, "duration": 15, "velocity": 101}, {"time": 776, "pitch": 77, "duration": 1, "velocity": 100}, {"time": 778, "pitch": 82, "duration": 2, "velocity": 100}, {"time": 782, "pitch": 82, "duration": 2, "velocity": 100}, {"time": 786, "pitch": 79, "duration": 2, "velocity": 100}, {"time": 791, "pitch": 79, "duration": 1, "velocity": 100}, {"time": 794, "pitch": 79, "duration": 2, "velocity": 100}, {"time": 798, "pitch": 79, "duration": 2, "velocity": 100}, {"time": 802, "pitch": 79, "duration": 2, "velocity": 100}, {"time": 806, "pitch": 79, "duration": 2, "velocity": 100}, {"time": 811, "pitch": 77, "duration": 1, "velocity": 100}, {"time": 815, "pitch": 74, "duration": 1, "velocity": 100}, {"time": 818, "pitch": 77, "duration": 2, "velocity": 100}, {"time": 821, "pitch": 70, "duration": 1, "velocity": 100}, {"time": 824, "pitch": 70, "duration": 2, "velocity": 100}, {"time": 827, "pitch": 74, "duration": 1, "velocity": 100}, {"time": 830, "pitch": 74, "duration": 2, "velocity": 100}, {"time": 833, "pitch": 72, "duration": 2, "velocity": 100}, {"time": 839, "pitch": 72, "duration": 1, "velocity": 100}, {"time": 842, "pitch": 72, "duration": 3, "velocity": 100}, {"time": 845, "pitch": 70, "duration": 3, "velocity": 100}, {"time": 851, "pitch": 67, "duration": 1, "velocity": 100}, {"time": 854, "pitch": 72, "duration": 7, "velocity": 100}, {"time": 872, "pitch": 74, "duration": 2, "velocity": 99}, {"time": 875, "pitch": 79, "duration": 1, "velocity": 99}, {"time": 878, "pitch": 79, "duration": 3, "velocity": 99}, {"time": 884, "pitch": 77, "duration": 2, "velocity": 98}, {"time": 887, "pitch": 74, "duration": 1, "velocity": 98}, {"time": 890, "pitch": 77, "duration": 5, "velocity": 98}, {"time": 899, "pitch": 74, "duration": 1, "velocity": 99}, {"time": 902, "pitch": 79, "duration": 2, "velocity": 99}, {"time": 905, "pitch": 77, "duration": 2, "velocity": 98}, {"time": 911, "pitch": 74, "duration": 2, "velocity": 98}, {"time": 914, "pitch": 77, "duration": 3, "velocity": 98}, {"time": 920, "pitch": 77, "duration": 1, "velocity": 98}, {"time": 923, "pitch": 82, "duration": 1, "velocity": 98}, {"time": 926, "pitch": 82, "duration": 2, "velocity": 98}, {"time": 929, "pitch": 79, "duration": 2, "velocity": 98}, {"time": 935, "pitch": 77, "duration": 1, "velocity": 98}, {"time": 938, "pitch": 77, "duration": 2, "velocity": 98}, {"time": 944, "pitch": 70, "duration": 4, "velocity": 98}, {"time": 950, "pitch": 77, "duration": 4, "velocity": 97}, {"time": 956, "pitch": 74, "duration": 7, "velocity": 97}, {"time": 967, "pitch": 77, "duration": 2, "velocity": 97}, {"time": 970, "pitch": 82, "duration": 2, "velocity": 96}, {"time": 974, "pitch": 82, "duration": 2, "velocity": 96}, {"time": 978, "pitch": 79, "duration": 2, "velocity": 98}, {"time": 982, "pitch": 79, "duration": 2, "velocity": 97}, {"time": 986, "pitch": 79, "duration": 1, "velocity": 97}, {"time": 990, "pitch": 79, "duration": 3, "velocity": 96}, {"time": 995, "pitch": 79, "duration": 1, "velocity": 96}, {"time": 998, "pitch": 79, "duration": 2, "velocity": 98}, {"time": 1002, "pitch": 77, "duration": 2, "velocity": 98}, {"time": 1007, "pitch": 74, "duration": 1, "velocity": 97}, {"time": 1010, "pitch": 77, "duration": 2, "velocity": 97}, {"time": 1013, "pitch": 70, "duration": 1, "velocity": 97}, {"time": 1016, "pitch": 70, "duration": 1, "velocity": 96}, {"time": 1019, "pitch": 74, "duration": 1, "velocity": 96}, {"time": 1022, "pitch": 74, "duration": 3, "velocity": 96}, {"time": 1025, "pitch": 72, "duration": 4, "velocity": 96}, {"time": 1031, "pitch": 70, "duration": 3, "velocity": 96}, {"time": 1037, "pitch": 67, "duration": 6, "velocity": 96}, {"time": 1046, "pitch": 74, "duration": 3, "velocity": 96}, {"time": 1052, "pitch": 72, "duration": 4, "velocity": 96}, {"time": 1058, "pitch": 74, "duration": 2, "velocity": 96}, {"time": 1061, "pitch": 72, "duration": 3, "velocity": 96}, {"time": 1067, "pitch": 67, "duration": 2, "velocity": 96}, {"time": 1073, "pitch": 70, "duration": 44, "velocity": 96}, {"time": 1502, "pitch": 65, "duration": 3, "velocity": 92}, {"time": 1505, "pitch": 70, "duration": 1, "velocity": 92}, {"time": 1508, "pitch": 70, "duration": 1, "velocity": 92}, {"time": 1511, "pitch": 70, "duration": 1, "velocity": 92}, {"time": 1514, "pitch": 70, "duration": 2, "velocity": 92}, {"time": 1517, "pitch": 70, "duration": 3, "velocity": 92}, {"time": 1523, "pitch": 65, "duration": 2, "velocity": 92}, {"time": 1526, "pitch": 74, "duration": 3, "velocity": 92}, {"time": 1531, "pitch": 72, "duration": 5, "velocity": 92}, {"time": 1556, "pitch": 74, "duration": 2, "velocity": 92}, {"time": 1559, "pitch": 72, "duration": 1, "velocity": 92}, {"time": 1562, "pitch": 70, "duration": 2, "velocity": 92}, {"time": 1566, "pitch": 70, "duration": 1, "velocity": 92}, {"time": 1571, "pitch": 62, "duration": 2, "velocity": 92}, {"time": 1574, "pitch": 65, "duration": 6, "velocity": 92}, {"time": 1592, "pitch": 74, "duration": 1, "velocity": 92}, {"time": 1595, "pitch": 74, "duration": 1, "velocity": 92}, {"time": 1598, "pitch": 74, "duration": 2, "velocity": 92}, {"time": 1601, "pitch": 67, "duration": 12, "velocity": 91}, {"time": 1613, "pitch": 74, "duration": 5, "velocity": 91}, {"time": 1622, "pitch": 72, "duration": 2, "velocity": 91}, {"time": 1625, "pitch": 70, "duration": 8, "velocity": 91}, {"time": 1637, "pitch": 67, "duration": 3, "velocity": 91}, {"time": 1640, "pitch": 70, "duration": 3, "velocity": 91}, {"time": 1643, "pitch": 67, "duration": 2, "velocity": 91}, {"time": 1646, "pitch": 74, "duration": 4, "velocity": 91}, {"time": 1649, "pitch": 67, "duration": 7, "velocity": 90}, {"time": 1658, "pitch": 70, "duration": 2, "velocity": 90}, {"time": 1661, "pitch": 74, "duration": 5, "velocity": 90}, {"time": 1670, "pitch": 72, "duration": 16, "velocity": 90}, {"time": 1691, "pitch": 65, "duration": 1, "velocity": 90}, {"time": 1694, "pitch": 65, "duration": 2, "velocity": 88}, {"time": 1697, "pitch": 70, "duration": 1, "velocity": 88}, {"time": 1700, "pitch": 70, "duration": 1, "velocity": 88}, {"time": 1703, "pitch": 70, "duration": 1, "velocity": 88}, {"time": 1706, "pitch": 70, "duration": 2, "velocity": 88}, {"time": 1709, "pitch": 70, "duration": 3, "velocity": 88}, {"time": 1715, "pitch": 67, "duration": 2, "velocity": 88}, {"time": 1718, "pitch": 74, "duration": 2, "velocity": 88}, {"time": 1721, "pitch": 72, "duration": 10, "velocity": 88}, {"time": 1748, "pitch": 79, "duration": 2, "velocity": 89}, {"time": 1751, "pitch": 77, "duration": 1, "velocity": 89}, {"time": 1754, "pitch": 77, "duration": 2, "velocity": 89}, {"time": 1757, "pitch": 70, "duration": 4, "velocity": 89}, {"time": 1763, "pitch": 77, "duration": 2, "velocity": 89}, {"time": 1769, "pitch": 74, "duration": 11, "velocity": 89}, {"time": 1787, "pitch": 74, "duration": 2, "velocity": 89}, {"time": 1790, "pitch": 79, "duration": 1, "velocity": 90}, {"time": 1793, "pitch": 79, "duration": 1, "velocity": 90}, {"time": 1796, "pitch": 77, "duration": 1, "velocity": 90}, {"time": 1799, "pitch": 79, "duration": 5, "velocity": 90}, {"time": 1808, "pitch": 79, "duration": 2, "velocity": 90}, {"time": 1811, "pitch": 77, "duration": 1, "velocity": 90}, {"time": 1814, "pitch": 77, "duration": 1, "velocity": 90}, {"time": 1817, "pitch": 70, "duration": 3, "velocity": 90}, {"time": 1823, "pitch": 74, "duration": 7, "velocity": 90}, {"time": 1832, "pitch": 74, "duration": 1, "velocity": 90}, {"time": 1834, "pitch": 77, "duration": 2, "velocity": 90}, {"time": 1838, "pitch": 79, "duration": 2, "velocity": 91}, {"time": 1842, "pitch": 79, "duration": 2, "velocity": 91}, {"time": 1847, "pitch": 79, "duration": 1, "velocity": 91}, {"time": 1850, "pitch": 79, "duration": 2, "velocity": 91}, {"time": 1854, "pitch": 79, "duration": 3, "velocity": 91}, {"time": 1859, "pitch": 79, "duration": 4, "velocity": 91}, {"time": 1866, "pitch": 77, "duration": 25, "velocity": 91}, {"time": 1898, "pitch": 74, "duration": 4, "velocity": 91}, {"time": 1904, "pitch": 79, "duration": 3, "velocity": 91}, {"time": 1910, "pitch": 79, "duration": 2, "velocity": 91}, {"time": 1913, "pitch": 77, "duration": 2, "velocity": 91}, {"time": 1919, "pitch": 74, "duration": 1, "velocity": 91}, {"time": 1922, "pitch": 77, "duration": 6, "velocity": 91}, {"time": 1931, "pitch": 74, "duration": 2, "velocity": 91}, {"time": 1934, "pitch": 79, "duration": 2, "velocity": 91}, {"time": 1937, "pitch": 77, "duration": 2, "velocity": 91}, {"time": 1943, "pitch": 74, "duration": 2, "velocity": 91}, {"time": 1946, "pitch": 77, "duration": 4, "velocity": 91}, {"time": 1952, "pitch": 77, "duration": 2, "velocity": 91}, {"time": 1955, "pitch": 82, "duration": 1, "velocity": 91}, {"time": 1958, "pitch": 82, "duration": 1, "velocity": 92}, {"time": 1961, "pitch": 79, "duration": 3, "velocity": 92}, {"time": 1970, "pitch": 79, "duration": 3, "velocity": 92}, {"time": 1976, "pitch": 77, "duration": 2, "velocity": 92}, {"time": 1979, "pitch": 70, "duration": 3, "velocity": 92}, {"time": 1982, "pitch": 74, "duration": 15, "velocity": 93}, {"time": 2000, "pitch": 77, "duration": 1, "velocity": 92}, {"time": 2002, "pitch": 82, "duration": 2, "velocity": 93}, {"time": 2006, "pitch": 82, "duration": 2, "velocity": 93}, {"time": 2010, "pitch": 79, "duration": 2, "velocity": 93}, {"time": 2015, "pitch": 79, "duration": 1, "velocity": 93}, {"time": 2018, "pitch": 79, "duration": 2, "velocity": 94}, {"time": 2022, "pitch": 79, "duration": 2, "velocity": 94}, {"time": 2026, "pitch": 79, "duration": 2, "velocity": 94}, {"time": 2030, "pitch": 79, "duration": 2, "velocity": 94}, {"time": 2035, "pitch": 77, "duration": 1, "velocity": 94}, {"time": 2039, "pitch": 74, "duration": 1, "velocity": 94}, {"time": 2042, "pitch": 77, "duration": 2, "velocity": 94}, {"time": 2045, "pitch": 70, "duration": 1, "velocity": 94}, {"time": 2048, "pitch": 70, "duration": 2, "velocity": 94}, {"time": 2051, "pitch": 74, "duration": 1, "velocity": 94}, {"time": 2054, "pitch": 74, "duration": 2, "velocity": 94}, {"time": 2057, "pitch": 72, "duration": 2, "velocity": 94}, {"time": 2063, "pitch": 72, "duration": 1, "velocity": 94}, {"time": 2066, "pitch": 72, "duration": 3, "velocity": 94}, {"time": 2069, "pitch": 70, "duration": 3, "velocity": 94}, {"time": 2075, "pitch": 67, "duration": 1, "velocity": 94}, {"time": 2078, "pitch": 72, "duration": 7, "velocity": 94}, {"time": 2096, "pitch": 74, "duration": 2, "velocity": 94}, {"time": 2099, "pitch": 79, "duration": 1, "velocity": 94}, {"time": 2102, "pitch": 79, "duration": 3, "velocity": 94}, {"time": 2108, "pitch": 77, "duration": 2, "velocity": 94}, {"time": 2111, "pitch": 74, "duration": 1, "velocity": 94}, {"time": 2114, "pitch": 77, "duration": 5, "velocity": 94}, {"time": 2123, "pitch": 74, "duration": 1, "velocity": 94}, {"time": 2126, "pitch": 79, "duration": 2, "velocity": 94}, {"time": 2129, "pitch": 77, "duration": 2, "velocity": 94}, {"time": 2135, "pitch": 74, "duration": 2, "velocity": 94}, {"time": 2138, "pitch": 77, "duration": 3, "velocity": 94}, {"time": 2144, "pitch": 77, "duration": 1, "velocity": 94}, {"time": 2147, "pitch": 82, "duration": 1, "velocity": 94}, {"time": 2150, "pitch": 82, "duration": 2, "velocity": 94}, {"time": 2153, "pitch": 79, "duration": 2, "velocity": 94}, {"time": 2159, "pitch": 77, "duration": 1, "velocity": 94}, {"time": 2162, "pitch": 77, "duration": 2, "velocity": 94}, {"time": 2168, "pitch": 70, "duration": 4, "velocity": 94}, {"time": 2174, "pitch": 77, "duration": 4, "velocity": 94}, {"time": 2180, "pitch": 74, "duration": 7, "velocity": 94}, {"time": 2191, "pitch": 77, "duration": 2, "velocity": 94}, {"time": 2194, "pitch": 82, "duration": 2, "velocity": 94}, {"time": 2198, "pitch": 82, "duration": 2, "velocity": 94}, {"time": 2202, "pitch": 79, "duration": 2, "velocity": 95}, {"time": 2206, "pitch": 79, "duration": 2, "velocity": 95}, {"time": 2210, "pitch": 79, "duration": 1, "velocity": 95}, {"time": 2214, "pitch": 79, "duration": 3, "velocity": 95}, {"time": 2219, "pitch": 79, "duration": 1, "velocity": 95}, {"time": 2222, "pitch": 79, "duration": 2, "velocity": 95}, {"time": 2226, "pitch": 77, "duration": 2, "velocity": 95}, {"time": 2231, "pitch": 74, "duration": 1, "velocity": 95}, {"time": 2234, "pitch": 77, "duration": 2, "velocity": 95}, {"time": 2237, "pitch": 70, "duration": 1, "velocity": 95}, {"time": 2240, "pitch": 70, "duration": 1, "velocity": 95}, {"time": 2243, "pitch": 74, "duration": 1, "velocity": 95}, {"time": 2246, "pitch": 74, "duration": 3, "velocity": 96}, {"time": 2249, "pitch": 72, "duration": 4, "velocity": 96}, {"time": 2255, "pitch": 70, "duration": 3, "velocity": 96}, {"time": 2261, "pitch": 67, "duration": 6, "velocity": 96}, {"time": 2270, "pitch": 74, "duration": 3, "velocity": 96}, {"time": 2276, "pitch": 72, "duration": 4, "velocity": 96}, {"time": 2282, "pitch": 74, "duration": 2, "velocity": 96}, {"time": 2285, "pitch": 72, "duration": 3, "velocity": 96}, {"time": 2291, "pitch": 67, "duration": 2, "velocity": 96}, {"time": 2297, "pitch": 70, "duration": 33, "velocity": 96}, {"time": 2330, "pitch": 74, "duration": 4, "velocity": 97}, {"time": 2336, "pitch": 79, "duration": 3, "velocity": 97}, {"time": 2342, "pitch": 79, "duration": 2, "velocity": 97}, {"time": 2345, "pitch": 77, "duration": 2, "velocity": 97}, {"time": 2351, "pitch": 74, "duration": 1, "velocity": 97}, {"time": 2354, "pitch": 77, "duration": 6, "velocity": 98}, {"time": 2363, "pitch": 74, "duration": 2, "velocity": 97}, {"time": 2366, "pitch": 79, "duration": 2, "velocity": 98}, {"time": 2369, "pitch": 77, "duration": 2, "velocity": 98}, {"time": 2375, "pitch": 74, "duration": 2, "velocity": 98}, {"time": 2378, "pitch": 77, "duration": 4, "velocity": 99}, {"time": 2384, "pitch": 77, "duration": 2, "velocity": 99}, {"time": 2387, "pitch": 82, "duration": 1, "velocity": 99}, {"time": 2390, "pitch": 82, "duration": 1, "velocity": 99}, {"time": 2393, "pitch": 79, "duration": 3, "velocity": 99}, {"time": 2402, "pitch": 79, "duration": 3, "velocity": 99}, {"time": 2408, "pitch": 77, "duration": 2, "velocity": 99}, {"time": 2411, "pitch": 70, "duration": 3, "velocity": 99}, {"time": 2414, "pitch": 74, "duration": 15, "velocity": 99}, {"time": 2432, "pitch": 77, "duration": 1, "velocity": 97}, {"time": 2434, "pitch": 82, "duration": 2, "velocity": 96}, {"time": 2438, "pitch": 82, "duration": 2, "velocity": 96}, {"time": 2442, "pitch": 79, "duration": 2, "velocity": 98}, {"time": 2447, "pitch": 79, "duration": 1, "velocity": 97}, {"time": 2450, "pitch": 79, "duration": 2, "velocity": 97}, {"time": 2454, "pitch": 79, "duration": 2, "velocity": 96}, {"time": 2458, "pitch": 79, "duration": 2, "velocity": 96}, {"time": 2462, "pitch": 79, "duration": 2, "velocity": 96}, {"time": 2467, "pitch": 77, "duration": 1, "velocity": 98}, {"time": 2471, "pitch": 74, "duration": 1, "velocity": 97}, {"time": 2474, "pitch": 77, "duration": 2, "velocity": 97}, {"time": 2477, "pitch": 70, "duration": 1, "velocity": 97}, {"time": 2480, "pitch": 70, "duration": 2, "velocity": 96}, {"time": 2483, "pitch": 74, "duration": 1, "velocity": 96}, {"time": 2486, "pitch": 74, "duration": 2, "velocity": 96}, {"time": 2489, "pitch": 72, "duration": 2, "velocity": 96}, {"time": 2495, "pitch": 72, "duration": 1, "velocity": 96}, {"time": 2498, "pitch": 72, "duration": 3, "velocity": 96}, {"time": 2501, "pitch": 70, "duration": 3, "velocity": 96}, {"time": 2507, "pitch": 67, "duration": 1, "velocity": 96}, {"time": 2510, "pitch": 72, "duration": 7, "velocity": 96}, {"time": 2528, "pitch": 74, "duration": 2, "velocity": 95}, {"time": 2531, "pitch": 79, "duration": 1, "velocity": 95}, {"time": 2534, "pitch": 79, "duration": 3, "velocity": 95}, {"time": 2540, "pitch": 77, "duration": 2, "velocity": 95}, {"time": 2543, "pitch": 74, "duration": 1, "velocity": 95}, {"time": 2546, "pitch": 77, "duration": 5, "velocity": 95}, {"time": 2555, "pitch": 74, "duration": 1, "velocity": 95}, {"time": 2558, "pitch": 79, "duration": 2, "velocity": 95}, {"time": 2561, "pitch": 77, "duration": 2, "velocity": 95}, {"time": 2567, "pitch": 74, "duration": 2, "velocity": 95}, {"time": 2570, "pitch": 77, "duration": 3, "velocity": 95}, {"time": 2576, "pitch": 77, "duration": 1, "velocity": 95}, {"time": 2579, "pitch": 82, "duration": 1, "velocity": 95}, {"time": 2582, "pitch": 82, "duration": 2, "velocity": 95}, {"time": 2585, "pitch": 79, "duration": 2, "velocity": 95}, {"time": 2591, "pitch": 77, "duration": 1, "velocity": 95}, {"time": 2594, "pitch": 77, "duration": 2, "velocity": 95}, {"time": 2600, "pitch": 70, "duration": 4, "velocity": 95}, {"time": 2606, "pitch": 77, "duration": 4, "velocity": 95}, {"time": 2612, "pitch": 74, "duration": 7, "velocity": 95}, {"time": 2623, "pitch": 77, "duration": 2, "velocity": 95}, {"time": 2626, "pitch": 82, "duration": 2, "velocity": 95}, {"time": 2630, "pitch": 82, "duration": 2, "velocity": 95}, {"time": 2634, "pitch": 79, "duration": 2, "velocity": 95}, {"time": 2638, "pitch": 79, "duration": 2, "velocity": 95}, {"time": 2642, "pitch": 79, "duration": 1, "velocity": 95}, {"time": 2646, "pitch": 79, "duration": 3, "velocity": 95}, {"time": 2651, "pitch": 79, "duration": 1, "velocity": 95}, {"time": 2654, "pitch": 79, "duration": 2, "velocity": 95}, {"time": 2658, "pitch": 77, "duration": 2, "velocity": 95}, {"time": 2663, "pitch": 74, "duration": 1, "velocity": 95}, {"time": 2666, "pitch": 77, "duration": 2, "velocity": 95}, {"time": 2669, "pitch": 70, "duration": 1, "velocity": 95}, {"time": 2672, "pitch": 70, "duration": 1, "velocity": 95}, {"time": 2675, "pitch": 74, "duration": 1, "velocity": 95}, {"time": 2678, "pitch": 74, "duration": 3, "velocity": 95}, {"time": 2681, "pitch": 72, "duration": 4, "velocity": 95}, {"time": 2687, "pitch": 70, "duration": 3, "velocity": 95}, {"time": 2693, "pitch": 67, "duration": 6, "velocity": 95}, {"time": 2702, "pitch": 74, "duration": 3, "velocity": 95}, {"time": 2708, "pitch": 72, "duration": 4, "velocity": 95}, {"time": 2714, "pitch": 74, "duration": 2, "velocity": 95}, {"time": 2717, "pitch": 72, "duration": 3, "velocity": 95}, {"time": 2723, "pitch": 67, "duration": 2, "velocity": 95}, {"time": 2729, "pitch": 70, "duration": 33, "velocity": 95}, {"time": 2762, "pitch": 65, "duration": 5, "velocity": 95}, {"time": 2767, "pitch": 70, "duration": 5, "velocity": 95}, {"time": 2774, "pitch": 70, "duration": 3, "velocity": 95}, {"time": 2778, "pitch": 67, "duration": 3, "velocity": 95}, {"time": 2783, "pitch": 67, "duration": 1, "velocity": 95}, {"time": 2786, "pitch": 67, "duration": 3, "velocity": 95}, {"time": 2790, "pitch": 67, "duration": 3, "velocity": 95}, {"time": 2794, "pitch": 67, "duration": 2, "velocity": 95}, {"time": 2798, "pitch": 67, "duration": 3, "velocity": 95}, {"time": 2801, "pitch": 65, "duration": 3, "velocity": 95}, {"time": 2806, "pitch": 62, "duration": 2, "velocity": 95}, {"time": 2810, "pitch": 65, "duration": 3, "velocity": 95}, {"time": 2813, "pitch": 58, "duration": 1, "velocity": 95}, {"time": 2816, "pitch": 58, "duration": 2, "velocity": 95}, {"time": 2819, "pitch": 62, "duration": 1, "velocity": 95}, {"time": 2822, "pitch": 62, "duration": 3, "velocity": 95}, {"time": 2828, "pitch": 60, "duration": 3, "velocity": 95}, {"time": 2831, "pitch": 58, "duration": 3, "velocity": 95}, {"time": 2837, "pitch": 55, "duration": 8, "velocity": 95}, {"time": 2846, "pitch": 62, "duration": 3, "velocity": 95}, {"time": 2852, "pitch": 60, "duration": 6, "velocity": 95}, {"time": 2858, "pitch": 62, "duration": 4, "velocity": 95}, {"time": 2864, "pitch": 60, "duration": 14, "velocity": 95}, {"time": 2882, "pitch": 55, "duration": 8, "velocity": 95}, {"time": 2894, "pitch": 58, "duration": 28, "velocity": 95}], "annotations": [{"time": 242, "annotation": {"number": 64, "value": 75}, "group": "control_change"}, {"time": 266, "annotation": {"number": 64, "value": 78}, "group": "control_change"}, {"time": 278, "annotation": {"number": 64, "value": 80}, "group": "control_change"}, {"time": 290, "annotation": {"number": 64, "value": 81}, "group": "control_change"}, {"time": 302, "annotation": {"number": 64, "value": 85}, "group": "control_change"}, {"time": 314, "annotation": {"number": 64, "value": 86}, "group": "control_change"}]}, {"program": 0, "is_drum": false, "name": "BRIDGE", "notes": [{"time": 101, "pitch": 70, "duration": 4, "velocity": 100}, {"time": 104, "pitch": 74, "duration": 3, "velocity": 100}, {"time": 107, "pitch": 77, "duration": 2, "velocity": 100}, {"time": 110, "pitch": 79, "duration": 9, "velocity": 100}, {"time": 122, "pitch": 70, "duration": 2, "velocity": 100}, {"time": 125, "pitch": 74, "duration": 2, "velocity": 100}, {"time": 128, "pitch": 79, "duration": 1, "velocity": 100}, {"time": 131, "pitch": 82, "duration": 2, "velocity": 100}, {"time": 134, "pitch": 77, "duration": 8, "velocity": 100}, {"time": 146, "pitch": 65, "duration": 3, "velocity": 100}, {"time": 149, "pitch": 70, "duration": 4, "velocity": 100}, {"time": 152, "pitch": 74, "duration": 3, "velocity": 100}, {"time": 155, "pitch": 77, "duration": 2, "velocity": 100}, {"time": 158, "pitch": 75, "duration": 8, "velocity": 100}, {"time": 166, "pitch": 77, "duration": 3, "velocity": 100}, {"time": 168, "pitch": 79, "duration": 2, "velocity": 100}, {"time": 170, "pitch": 80, "duration": 1, "velocity": 100}, {"time": 173, "pitch": 79, "duration": 2, "velocity": 100}, {"time": 178, "pitch": 78, "duration": 1, "velocity": 100}, {"time": 182, "pitch": 77, "duration": 24, "velocity": 100}, {"time": 1112, "pitch": 70, "duration": 2, "velocity": 103}, {"time": 1113, "pitch": 72, "duration": 2, "velocity": 103}, {"time": 1115, "pitch": 74, "duration": 1, "velocity": 103}, {"time": 1116, "pitch": 77, "duration": 1, "velocity": 103}, {"time": 1118, "pitch": 79, "duration": 10, "velocity": 104}, {"time": 1133, "pitch": 70, "duration": 2, "velocity": 104}, {"time": 1136, "pitch": 75, "duration": 2, "velocity": 104}, {"time": 1139, "pitch": 79, "duration": 2, "velocity": 104}, {"time": 1142, "pitch": 77, "duration": 12, "velocity": 104}, {"time": 1157, "pitch": 70, "duration": 2, "velocity": 104}, {"time": 1160, "pitch": 74, "duration": 1, "velocity": 105}, {"time": 1163, "pitch": 77, "duration": 1, "velocity": 105}, {"time": 1166, "pitch": 75, "duration": 5, "velocity": 105}, {"time": 1175, "pitch": 74, "duration": 7, "velocity": 105}, {"time": 1184, "pitch": 72, "duration": 6, "velocity": 105}, {"time": 1190, "pitch": 70, "duration": 8, "velocity": 105}, {"time": 1199, "pitch": 69, "duration": 8, "velocity": 105}, {"time": 1208, "pitch": 65, "duration": 5, "velocity": 105}, {"time": 1214, "pitch": 79, "duration": 15, "velocity": 105}, {"time": 1229, "pitch": 70, "duration": 2, "velocity": 105}, {"time": 1232, "pitch": 75, "duration": 1, "velocity": 105}, {"time": 1235, "pitch": 79, "duration": 1, "velocity": 105}, {"time": 1238, "pitch": 77, "duration": 16, "velocity": 105}, {"time": 1253, "pitch": 65, "duration": 2, "velocity": 105}, {"time": 1256, "pitch": 70, "duration": 2, "velocity": 105}, {"time": 1259, "pitch": 77, "duration": 2, "velocity": 105}, {"time": 1262, "pitch": 75, "duration": 8, "velocity": 105}, {"time": 1271, "pitch": 74, "duration": 9, "velocity": 105}, {"time": 1280, "pitch": 70, "duration": 3, "velocity": 105}, {"time": 1283, "pitch": 79, "duration": 2, "velocity": 105}, {"time": 1286, "pitch": 81, "duration": 4, "velocity": 105}, {"time": 1292, "pitch": 79, "duration": 2, "velocity": 105}, {"time": 1295, "pitch": 77, "duration": 4, "velocity": 105}, {"time": 1304, "pitch": 70, "duration": 2, "velocity": 105}, {"time": 1305, "pitch": 72, "duration": 2, "velocity": 105}, {"time": 1307, "pitch": 74, "duration": 2, "velocity": 105}, {"time": 1308, "pitch": 77, "duration": 1, "velocity": 105}, {"time": 1310, "pitch": 79, "duration": 4, "velocity": 105}, {"time": 1316, "pitch": 74, "duration": 2, "velocity": 105}, {"time": 1319, "pitch": 77, "duration": 10, "velocity": 105}, {"time": 1328, "pitch": 74, "duration": 3, "velocity": 105}, {"time": 1331, "pitch": 77, "duration": 1, "velocity": 105}, {"time": 1334, "pitch": 79, "duration": 1, "velocity": 105}, {"time": 1337, "pitch": 77, "duration": 1, "velocity": 105}, {"time": 1340, "pitch": 74, "duration": 1, "velocity": 105}, {"time": 1343, "pitch": 77, "duration": 7, "velocity": 105}, {"time": 1352, "pitch": 77, "duration": 1, "velocity": 105}, {"time": 1353, "pitch": 79, "duration": 2, "velocity": 105}, {"time": 1355, "pitch": 82, "duration": 1, "velocity": 105}, {"time": 1356, "pitch": 84, "duration": 2, "velocity": 105}, {"time": 1358, "pitch": 86, "duration": 5, "velocity": 105}, {"time": 1364, "pitch": 84, "duration": 2, "velocity": 105}, {"time": 1367, "pitch": 82, "duration": 7, "velocity": 105}, {"time": 1376, "pitch": 81, "duration": 1, "velocity": 105}, {"time": 1379, "pitch": 82, "duration": 1, "velocity": 105}, {"time": 1382, "pitch": 81, "duration": 4, "velocity": 105}, {"time": 1388, "pitch": 79, "duration": 1, "velocity": 105}, {"time": 1391, "pitch": 77, "duration": 9, "velocity": 105}, {"time": 1403, "pitch": 74, "duration": 2, "velocity": 105}, {"time": 1406, "pitch": 82, "duration": 4, "velocity": 105}, {"time": 1412, "pitch": 79, "duration": 1, "velocity": 105}, {"time": 1415, "pitch": 79, "duration": 8, "velocity": 105}, {"time": 1424, "pitch": 74, "duration": 2, "velocity": 105}, {"time": 1427, "pitch": 79, "duration": 1, "velocity": 105}, {"time": 1430, "pitch": 79, "duration": 3, "velocity": 105}, {"time": 1436, "pitch": 77, "duration": 1, "velocity": 105}, {"time": 1439, "pitch": 77, "duration": 7, "velocity": 105}, {"time": 1445, "pitch": 65, "duration": 3, "velocity": 105}, {"time": 1448, "pitch": 70, "duration": 1, "velocity": 105}, {"time": 1451, "pitch": 74, "duration": 1, "velocity": 105}, {"time": 1454, "pitch": 74, "duration": 4, "velocity": 105}, {"time": 1460, "pitch": 72, "duration": 1, "velocity": 105}, {"time": 1463, "pitch": 72, "duration": 8, "velocity": 105}, {"time": 1472, "pitch": 79, "duration": 1, "velocity": 105}, {"time": 1475, "pitch": 77, "duration": 27, "velocity": 105}, {"time": 1679, "pitch": 65, "duration": 2, "velocity": 105}, {"time": 1682, "pitch": 67, "duration": 1, "velocity": 105}, {"time": 1682, "pitch": 69, "duration": 3, "velocity": 105}, {"time": 1685, "pitch": 67, "duration": 3, "velocity": 105}, {"time": 1688, "pitch": 65, "duration": 4, "velocity": 105}, {"time": 2321, "pitch": 87, "duration": 2, "velocity": 94}, {"time": 2324, "pitch": 91, "duration": 1, "velocity": 94}, {"time": 2327, "pitch": 94, "duration": 3, "velocity": 94}, {"time": 2333, "pitch": 93, "duration": 4, "velocity": 94}, {"time": 2384, "pitch": 82, "duration": 1, "velocity": 95}, {"time": 2387, "pitch": 82, "duration": 1, "velocity": 95}, {"time": 2390, "pitch": 82, "duration": 4, "velocity": 95}, {"time": 2396, "pitch": 79, "duration": 12, "velocity": 95}, {"time": 2408, "pitch": 74, "duration": 3, "velocity": 95}, {"time": 2411, "pitch": 82, "duration": 2, "velocity": 95}, {"time": 2414, "pitch": 81, "duration": 4, "velocity": 95}, {"time": 2420, "pitch": 79, "duration": 2, "velocity": 96}, {"time": 2423, "pitch": 77, "duration": 8, "velocity": 96}, {"time": 2516, "pitch": 82, "duration": 3, "velocity": 96}, {"time": 2519, "pitch": 81, "duration": 3, "velocity": 96}, {"time": 2522, "pitch": 79, "duration": 3, "velocity": 96}, {"time": 2525, "pitch": 77, "duration": 7, "velocity": 96}, {"time": 2882, "pitch": 86, "duration": 9, "velocity": 94}, {"time": 2882, "pitch": 91, "duration": 9, "velocity": 94}, {"time": 2894, "pitch": 79, "duration": 23, "velocity": 94}, {"time": 2894, "pitch": 91, "duration": 22, "velocity": 94}, {"time": 2918, "pitch": 77, "duration": 21, "velocity": 94}, {"time": 2918, "pitch": 89, "duration": 21, "velocity": 94}, {"time": 2942, "pitch": 79, "duration": 6, "velocity": 93}, {"time": 2942, "pitch": 91, "duration": 6, "velocity": 93}, {"time": 2951, "pitch": 77, "duration": 7, "velocity": 92}, {"time": 2951, "pitch": 89, "duration": 6, "velocity": 92}, {"time": 2960, "pitch": 75, "duration": 4, "velocity": 92}, {"time": 2960, "pitch": 87, "duration": 4, "velocity": 92}, {"time": 2966, "pitch": 72, "duration": 48, "velocity": 92}, {"time": 2966, "pitch": 84, "duration": 48, "velocity": 92}], "annotations": [{"time": 50, "annotation": {"number": 64, "value": 75}, "group": "control_change"}, {"time": 86, "annotation": {"number": 64, "value": 74}, "group": "control_change"}, {"time": 98, "annotation": {"number": 64, "value": 72}, "group": "control_change"}, {"time": 110, "annotation": {"number": 64, "value": 80}, "group": "control_change"}, {"time": 158, "annotation": {"number": 64, "value": 81}, "group": "control_change"}, {"time": 170, "annotation": {"number": 64, "value": 74}, "group": "control_change"}, {"time": 194, "annotation": {"number": 64, "value": 75}, "group": "control_change"}, {"time": 230, "annotation": {"number": 64, "value": 76}, "group": "control_change"}, {"time": 1082, "annotation": {"number": 64, "value": 73}, "group": "control_change"}, {"time": 1094, "annotation": {"number": 64, "value": 75}, "group": "control_change"}, {"time": 1106, "annotation": {"number": 64, "value": 83}, "group": "control_change"}]}, {"program": 0, "is_drum": false, "name": "PIANO", "notes": [{"time": 11, "pitch": 74, "duration": 2, "velocity": 55}, {"time": 12, "pitch": 77, "duration": 1, "velocity": 61}, {"time": 13, "pitch": 81, "duration": 1, "velocity": 56}, {"time": 14, "pitch": 58, "duration": 23, "velocity": 84}, {"time": 14, "pitch": 82, "duration": 15, "velocity": 77}, {"time": 20, "pitch": 65, "duration": 20, "velocity": 63}, {"time": 26, "pitch": 70, "duration": 8, "velocity": 46}, {"time": 29, "pitch": 74, "duration": 2, "velocity": 63}, {"time": 32, "pitch": 77, "duration": 2, "velocity": 72}, {"time": 34, "pitch": 82, "duration": 3, "velocity": 65}, {"time": 37, "pitch": 81, "duration": 17, "velocity": 96}, {"time": 38, "pitch": 57, "duration": 24, "velocity": 53}, {"time": 44, "pitch": 65, "duration": 18, "velocity": 51}, {"time": 50, "pitch": 70, "duration": 12, "velocity": 50}, {"time": 59, "pitch": 75, "duration": 3, "velocity": 62}, {"time": 60, "pitch": 77, "duration": 2, "velocity": 74}, {"time": 62, "pitch": 51, "duration": 22, "velocity": 61}, {"time": 62, "pitch": 82, "duration": 10, "velocity": 75}, {"time": 68, "pitch": 58, "duration": 17, "velocity": 62}, {"time": 74, "pitch": 63, "duration": 9, "velocity": 46}, {"time": 77, "pitch": 70, "duration": 3, "velocity": 57}, {"time": 80, "pitch": 75, "duration": 2, "velocity": 63}, {"time": 83, "pitch": 79, "duration": 2, "velocity": 71}, {"time": 86, "pitch": 53, "duration": 25, "velocity": 56}, {"time": 86, "pitch": 77, "duration": 19, "velocity": 96}, {"time": 92, "pitch": 60, "duration": 19, "velocity": 61}, {"time": 98, "pitch": 65, "duration": 13, "velocity": 50}, {"time": 110, "pitch": 39, "duration": 21, "velocity": 65}, {"time": 110, "pitch": 55, "duration": 10, "velocity": 59}, {"time": 110, "pitch": 58, "duration": 10, "velocity": 68}, {"time": 110, "pitch": 63, "duration": 10, "velocity": 75}, {"time": 116, "pitch": 46, "duration": 17, "velocity": 47}, {"time": 122, "pitch": 55, "duration": 7, "velocity": 62}, {"time": 122, "pitch": 58, "duration": 8, "velocity": 69}, {"time": 122, "pitch": 63, "duration": 7, "velocity": 65}, {"time": 128, "pitch": 51, "duration": 2, "velocity": 45}, {"time": 134, "pitch": 38, "duration": 19, "velocity": 62}, {"time": 134, "pitch": 53, "duration": 11, "velocity": 67}, {"time": 134, "pitch": 57, "duration": 11, "velocity": 68}, {"time": 140, "pitch": 45, "duration": 12, "velocity": 58}, {"time": 146, "pitch": 53, "duration": 7, "velocity": 64}, {"time": 146, "pitch": 57, "duration": 6, "velocity": 62}, {"time": 146, "pitch": 62, "duration": 6, "velocity": 70}, {"time": 158, "pitch": 36, "duration": 12, "velocity": 71}, {"time": 158, "pitch": 51, "duration": 8, "velocity": 67}, {"time": 158, "pitch": 55, "duration": 9, "velocity": 72}, {"time": 164, "pitch": 43, "duration": 6, "velocity": 60}, {"time": 167, "pitch": 53, "duration": 2, "velocity": 73}, {"time": 168, "pitch": 55, "duration": 1, "velocity": 74}, {"time": 170, "pitch": 56, "duration": 2, "velocity": 85}, {"time": 170, "pitch": 44, "duration": 2, "velocity": 61}, {"time": 174, "pitch": 55, "duration": 2, "velocity": 59}, {"time": 174, "pitch": 43, "duration": 2, "velocity": 61}, {"time": 178, "pitch": 42, "duration": 2, "velocity": 65}, {"time": 178, "pitch": 54, "duration": 2, "velocity": 91}, {"time": 182, "pitch": 41, "duration": 49, "velocity": 79}, {"time": 182, "pitch": 57, "duration": 11, "velocity": 60}, {"time": 182, "pitch": 60, "duration": 12, "velocity": 66}, {"time": 182, "pitch": 65, "duration": 11, "velocity": 74}, {"time": 188, "pitch": 48, "duration": 42, "velocity": 68}, {"time": 194, "pitch": 57, "duration": 9, "velocity": 59}, {"time": 194, "pitch": 60, "duration": 6, "velocity": 62}, {"time": 194, "pitch": 65, "duration": 6, "velocity": 66}, {"time": 200, "pitch": 53, "duration": 22, "velocity": 50}, {"time": 203, "pitch": 60, "duration": 1, "velocity": 13}, {"time": 206, "pitch": 57, "duration": 11, "velocity": 65}, {"time": 206, "pitch": 60, "duration": 11, "velocity": 81}, {"time": 206, "pitch": 65, "duration": 11, "velocity": 84}, {"time": 218, "pitch": 57, "duration": 11, "velocity": 71}, {"time": 218, "pitch": 60, "duration": 10, "velocity": 77}, {"time": 218, "pitch": 65, "duration": 11, "velocity": 85}, {"time": 224, "pitch": 53, "duration": 5, "velocity": 64}, {"time": 230, "pitch": 41, "duration": 1, "velocity": 57}, {"time": 230, "pitch": 57, "duration": 23, "velocity": 37}, {"time": 230, "pitch": 60, "duration": 22, "velocity": 52}, {"time": 230, "pitch": 65, "duration": 21, "velocity": 72}, {"time": 236, "pitch": 48, "duration": 42, "velocity": 61}, {"time": 242, "pitch": 53, "duration": 35, "velocity": 51}, {"time": 254, "pitch": 57, "duration": 24, "velocity": 29}, {"time": 254, "pitch": 60, "duration": 24, "velocity": 52}, {"time": 254, "pitch": 65, "duration": 23, "velocity": 64}, {"time": 278, "pitch": 46, "duration": 20, "velocity": 75}, {"time": 278, "pitch": 62, "duration": 9, "velocity": 61}, {"time": 278, "pitch": 65, "duration": 9, "velocity": 73}, {"time": 284, "pitch": 53, "duration": 13, "velocity": 57}, {"time": 290, "pitch": 62, "duration": 10, "velocity": 74}, {"time": 290, "pitch": 65, "duration": 10, "velocity": 81}, {"time": 302, "pitch": 41, "duration": 19, "velocity": 67}, {"time": 302, "pitch": 57, "duration": 10, "velocity": 65}, {"time": 302, "pitch": 60, "duration": 10, "velocity": 72}, {"time": 308, "pitch": 48, "duration": 18, "velocity": 59}, {"time": 314, "pitch": 57, "duration": 7, "velocity": 62}, {"time": 314, "pitch": 60, "duration": 7, "velocity": 69}, {"time": 320, "pitch": 53, "duration": 5, "velocity": 47}, {"time": 326, "pitch": 39, "duration": 18, "velocity": 67}, {"time": 326, "pitch": 55, "duration": 10, "velocity": 61}, {"time": 326, "pitch": 58, "duration": 11, "velocity": 67}, {"time": 326, "pitch": 62, "duration": 10, "velocity": 66}, {"time": 332, "pitch": 46, "duration": 11, "velocity": 57}, {"time": 338, "pitch": 55, "duration": 6, "velocity": 77}, {"time": 338, "pitch": 58, "duration": 6, "velocity": 77}, {"time": 338, "pitch": 62, "duration": 6, "velocity": 88}, {"time": 344, "pitch": 51, "duration": 5, "velocity": 57}, {"time": 350, "pitch": 46, "duration": 23, "velocity": 57}, {"time": 350, "pitch": 62, "duration": 11, "velocity": 69}, {"time": 350, "pitch": 65, "duration": 11, "velocity": 75}, {"time": 356, "pitch": 53, "duration": 14, "velocity": 50}, {"time": 362, "pitch": 62, "duration": 10, "velocity": 66}, {"time": 362, "pitch": 65, "duration": 10, "velocity": 61}, {"time": 362, "pitch": 70, "duration": 10, "velocity": 56}, {"time": 374, "pitch": 39, "duration": 24, "velocity": 69}, {"time": 374, "pitch": 55, "duration": 10, "velocity": 57}, {"time": 374, "pitch": 58, "duration": 11, "velocity": 48}, {"time": 374, "pitch": 63, "duration": 10, "velocity": 58}, {"time": 380, "pitch": 46, "duration": 18, "velocity": 68}, {"time": 386, "pitch": 55, "duration": 11, "velocity": 60}, {"time": 386, "pitch": 58, "duration": 11, "velocity": 68}, {"time": 386, "pitch": 63, "duration": 10, "velocity": 73}, {"time": 392, "pitch": 51, "duration": 5, "velocity": 54}, {"time": 398, "pitch": 38, "duration": 19, "velocity": 63}, {"time": 398, "pitch": 53, "duration": 10, "velocity": 60}, {"time": 398, "pitch": 57, "duration": 10, "velocity": 57}, {"time": 398, "pitch": 62, "duration": 10, "velocity": 66}, {"time": 404, "pitch": 45, "duration": 11, "velocity": 59}, {"time": 410, "pitch": 53, "duration": 7, "velocity": 62}, {"time": 410, "pitch": 57, "duration": 7, "velocity": 71}, {"time": 410, "pitch": 62, "duration": 6, "velocity": 72}, {"time": 419, "pitch": 55, "duration": 1, "velocity": 8}, {"time": 422, "pitch": 36, "duration": 17, "velocity": 72}, {"time": 422, "pitch": 51, "duration": 11, "velocity": 65}, {"time": 422, "pitch": 55, "duration": 11, "velocity": 72}, {"time": 422, "pitch": 60, "duration": 11, "velocity": 67}, {"time": 428, "pitch": 43, "duration": 12, "velocity": 64}, {"time": 434, "pitch": 51, "duration": 6, "velocity": 72}, {"time": 434, "pitch": 55, "duration": 6, "velocity": 75}, {"time": 434, "pitch": 60, "duration": 6, "velocity": 74}, {"time": 440, "pitch": 48, "duration": 6, "velocity": 56}, {"time": 446, "pitch": 41, "duration": 25, "velocity": 63}, {"time": 446, "pitch": 57, "duration": 11, "velocity": 60}, {"time": 446, "pitch": 60, "duration": 11, "velocity": 63}, {"time": 446, "pitch": 65, "duration": 11, "velocity": 73}, {"time": 452, "pitch": 48, "duration": 18, "velocity": 61}, {"time": 458, "pitch": 57, "duration": 9, "velocity": 63}, {"time": 458, "pitch": 60, "duration": 9, "velocity": 73}, {"time": 458, "pitch": 65, "duration": 9, "velocity": 81}, {"time": 464, "pitch": 53, "duration": 6, "velocity": 52}, {"time": 470, "pitch": 46, "duration": 22, "velocity": 81}, {"time": 470, "pitch": 62, "duration": 10, "velocity": 74}, {"time": 470, "pitch": 65, "duration": 11, "velocity": 84}, {"time": 470, "pitch": 70, "duration": 10, "velocity": 69}, {"time": 476, "pitch": 53, "duration": 16, "velocity": 62}, {"time": 482, "pitch": 62, "duration": 10, "velocity": 67}, {"time": 482, "pitch": 65, "duration": 10, "velocity": 85}, {"time": 482, "pitch": 70, "duration": 10, "velocity": 75}, {"time": 494, "pitch": 41, "duration": 22, "velocity": 71}, {"time": 494, "pitch": 57, "duration": 11, "velocity": 62}, {"time": 494, "pitch": 60, "duration": 11, "velocity": 59}, {"time": 494, "pitch": 65, "duration": 11, "velocity": 70}, {"time": 500, "pitch": 48, "duration": 17, "velocity": 60}, {"time": 506, "pitch": 57, "duration": 7, "velocity": 67}, {"time": 506, "pitch": 60, "duration": 7, "velocity": 77}, {"time": 506, "pitch": 65, "duration": 6, "velocity": 84}, {"time": 512, "pitch": 53, "duration": 2, "velocity": 57}, {"time": 518, "pitch": 39, "duration": 18, "velocity": 85}, {"time": 518, "pitch": 55, "duration": 11, "velocity": 62}, {"time": 518, "pitch": 58, "duration": 11, "velocity": 72}, {"time": 518, "pitch": 63, "duration": 11, "velocity": 77}, {"time": 524, "pitch": 46, "duration": 12, "velocity": 72}, {"time": 530, "pitch": 55, "duration": 6, "velocity": 77}, {"time": 530, "pitch": 58, "duration": 6, "velocity": 77}, {"time": 530, "pitch": 63, "duration": 6, "velocity": 83}, {"time": 536, "pitch": 51, "duration": 6, "velocity": 92}, {"time": 542, "pitch": 46, "duration": 23, "velocity": 94}, {"time": 542, "pitch": 62, "duration": 11, "velocity": 94}, {"time": 542, "pitch": 65, "duration": 11, "velocity": 94}, {"time": 542, "pitch": 70, "duration": 11, "velocity": 94}, {"time": 548, "pitch": 53, "duration": 15, "velocity": 93}, {"time": 554, "pitch": 62, "duration": 10, "velocity": 92}, {"time": 554, "pitch": 65, "duration": 10, "velocity": 92}, {"time": 554, "pitch": 70, "duration": 10, "velocity": 92}, {"time": 560, "pitch": 58, "duration": 2, "velocity": 91}, {"time": 566, "pitch": 39, "duration": 21, "velocity": 90}, {"time": 566, "pitch": 55, "duration": 11, "velocity": 90}, {"time": 566, "pitch": 58, "duration": 11, "velocity": 90}, {"time": 566, "pitch": 63, "duration": 10, "velocity": 90}, {"time": 572, "pitch": 46, "duration": 14, "velocity": 91}, {"time": 578, "pitch": 55, "duration": 7, "velocity": 90}, {"time": 578, "pitch": 58, "duration": 7, "velocity": 90}, {"time": 578, "pitch": 63, "duration": 7, "velocity": 90}, {"time": 584, "pitch": 51, "duration": 2, "velocity": 90}, {"time": 587, "pitch": 53, "duration": 1, "velocity": 90}, {"time": 590, "pitch": 38, "duration": 18, "velocity": 90}, {"time": 590, "pitch": 53, "duration": 11, "velocity": 90}, {"time": 590, "pitch": 57, "duration": 11, "velocity": 90}, {"time": 590, "pitch": 62, "duration": 11, "velocity": 90}, {"time": 596, "pitch": 45, "duration": 12, "velocity": 90}, {"time": 602, "pitch": 53, "duration": 6, "velocity": 90}, {"time": 602, "pitch": 57, "duration": 6, "velocity": 90}, {"time": 602, "pitch": 62, "duration": 6, "velocity": 90}, {"time": 608, "pitch": 50, "duration": 5, "velocity": 90}, {"time": 614, "pitch": 48, "duration": 20, "velocity": 90}, {"time": 614, "pitch": 63, "duration": 11, "velocity": 90}, {"time": 614, "pitch": 67, "duration": 11, "velocity": 90}, {"time": 620, "pitch": 55, "duration": 13, "velocity": 90}, {"time": 626, "pitch": 63, "duration": 6, "velocity": 90}, {"time": 626, "pitch": 67, "duration": 6, "velocity": 90}, {"time": 632, "pitch": 60, "duration": 1, "velocity": 91}, {"time": 641, "pitch": 41, "duration": 19, "velocity": 90}, {"time": 641, "pitch": 57, "duration": 19, "velocity": 90}, {"time": 641, "pitch": 60, "duration": 19, "velocity": 90}, {"time": 641, "pitch": 65, "duration": 19, "velocity": 90}, {"time": 662, "pitch": 41, "duration": 1, "velocity": 94}, {"time": 662, "pitch": 57, "duration": 1, "velocity": 94}, {"time": 662, "pitch": 60, "duration": 1, "velocity": 94}, {"time": 662, "pitch": 65, "duration": 1, "velocity": 94}, {"time": 665, "pitch": 41, "duration": 9, "velocity": 91}, {"time": 665, "pitch": 57, "duration": 9, "velocity": 91}, {"time": 665, "pitch": 60, "duration": 9, "velocity": 91}, {"time": 665, "pitch": 65, "duration": 9, "velocity": 91}, {"time": 674, "pitch": 38, "duration": 6, "velocity": 95}, {"time": 674, "pitch": 50, "duration": 6, "velocity": 95}, {"time": 680, "pitch": 43, "duration": 4, "velocity": 93}, {"time": 680, "pitch": 55, "duration": 3, "velocity": 93}, {"time": 680, "pitch": 67, "duration": 4, "velocity": 93}, {"time": 686, "pitch": 46, "duration": 17, "velocity": 127}, {"time": 686, "pitch": 65, "duration": 4, "velocity": 127}, {"time": 686, "pitch": 70, "duration": 7, "velocity": 127}, {"time": 686, "pitch": 74, "duration": 7, "velocity": 107}, {"time": 689, "pitch": 58, "duration": 10, "velocity": 122}, {"time": 692, "pitch": 65, "duration": 4, "velocity": 86}, {"time": 695, "pitch": 70, "duration": 1, "velocity": 95}, {"time": 695, "pitch": 74, "duration": 1, "velocity": 88}, {"time": 698, "pitch": 65, "duration": 3, "velocity": 122}, {"time": 698, "pitch": 70, "duration": 4, "velocity": 127}, {"time": 698, "pitch": 74, "duration": 4, "velocity": 127}, {"time": 701, "pitch": 58, "duration": 1, "velocity": 102}, {"time": 704, "pitch": 70, "duration": 2, "velocity": 127}, {"time": 704, "pitch": 74, "duration": 3, "velocity": 127}, {"time": 707, "pitch": 65, "duration": 2, "velocity": 90}, {"time": 710, "pitch": 41, "duration": 17, "velocity": 92}, {"time": 710, "pitch": 65, "duration": 2, "velocity": 117}, {"time": 710, "pitch": 69, "duration": 2, "velocity": 127}, {"time": 710, "pitch": 72, "duration": 2, "velocity": 117}, {"time": 713, "pitch": 48, "duration": 15, "velocity": 81}, {"time": 716, "pitch": 53, "duration": 7, "velocity": 89}, {"time": 719, "pitch": 60, "duration": 1, "velocity": 100}, {"time": 719, "pitch": 65, "duration": 1, "velocity": 100}, {"time": 719, "pitch": 69, "duration": 1, "velocity": 99}, {"time": 722, "pitch": 60, "duration": 4, "velocity": 127}, {"time": 722, "pitch": 65, "duration": 4, "velocity": 127}, {"time": 722, "pitch": 69, "duration": 4, "velocity": 127}, {"time": 725, "pitch": 53, "duration": 3, "velocity": 112}, {"time": 728, "pitch": 60, "duration": 1, "velocity": 96}, {"time": 728, "pitch": 65, "duration": 4, "velocity": 122}, {"time": 728, "pitch": 69, "duration": 2, "velocity": 107}, {"time": 734, "pitch": 43, "duration": 18, "velocity": 96}, {"time": 734, "pitch": 62, "duration": 8, "velocity": 112}, {"time": 734, "pitch": 67, "duration": 8, "velocity": 112}, {"time": 734, "pitch": 70, "duration": 8, "velocity": 127}, {"time": 737, "pitch": 50, "duration": 14, "velocity": 73}, {"time": 740, "pitch": 55, "duration": 7, "velocity": 90}, {"time": 743, "pitch": 62, "duration": 1, "velocity": 88}, {"time": 743, "pitch": 67, "duration": 1, "velocity": 95}, {"time": 743, "pitch": 70, "duration": 1, "velocity": 97}, {"time": 746, "pitch": 62, "duration": 4, "velocity": 127}, {"time": 746, "pitch": 67, "duration": 7, "velocity": 127}, {"time": 746, "pitch": 70, "duration": 7, "velocity": 127}, {"time": 749, "pitch": 55, "duration": 2, "velocity": 97}, {"time": 752, "pitch": 62, "duration": 4, "velocity": 117}, {"time": 755, "pitch": 65, "duration": 1, "velocity": 83}, {"time": 758, "pitch": 38, "duration": 16, "velocity": 89}, {"time": 758, "pitch": 62, "duration": 7, "velocity": 117}, {"time": 758, "pitch": 65, "duration": 7, "velocity": 122}, {"time": 758, "pitch": 68, "duration": 1, "velocity": 86}, {"time": 758, "pitch": 69, "duration": 7, "velocity": 107}, {"time": 761, "pitch": 45, "duration": 13, "velocity": 76}, {"time": 764, "pitch": 50, "duration": 7, "velocity": 99}, {"time": 767, "pitch": 62, "duration": 2, "velocity": 100}, {"time": 767, "pitch": 65, "duration": 2, "velocity": 100}, {"time": 767, "pitch": 69, "duration": 2, "velocity": 97}, {"time": 770, "pitch": 62, "duration": 4, "velocity": 127}, {"time": 770, "pitch": 65, "duration": 6, "velocity": 127}, {"time": 770, "pitch": 69, "duration": 6, "velocity": 122}, {"time": 773, "pitch": 50, "duration": 1, "velocity": 99}, {"time": 776, "pitch": 62, "duration": 2, "velocity": 117}, {"time": 782, "pitch": 39, "duration": 16, "velocity": 96}, {"time": 782, "pitch": 63, "duration": 8, "velocity": 127}, {"time": 782, "pitch": 67, "duration": 8, "velocity": 102}, {"time": 782, "pitch": 70, "duration": 7, "velocity": 99}, {"time": 785, "pitch": 46, "duration": 13, "velocity": 37}, {"time": 788, "pitch": 51, "duration": 7, "velocity": 96}, {"time": 791, "pitch": 63, "duration": 1, "velocity": 97}, {"time": 791, "pitch": 67, "duration": 1, "velocity": 79}, {"time": 791, "pitch": 70, "duration": 1, "velocity": 83}, {"time": 794, "pitch": 63, "duration": 4, "velocity": 127}, {"time": 794, "pitch": 67, "duration": 6, "velocity": 122}, {"time": 794, "pitch": 70, "duration": 6, "velocity": 127}, {"time": 797, "pitch": 51, "duration": 2, "velocity": 96}, {"time": 800, "pitch": 63, "duration": 1, "velocity": 112}, {"time": 806, "pitch": 46, "duration": 18, "velocity": 127}, {"time": 806, "pitch": 62, "duration": 7, "velocity": 117}, {"time": 806, "pitch": 65, "duration": 8, "velocity": 100}, {"time": 806, "pitch": 70, "duration": 7, "velocity": 112}, {"time": 812, "pitch": 58, "duration": 11, "velocity": 112}, {"time": 815, "pitch": 62, "duration": 3, "velocity": 107}, {"time": 818, "pitch": 65, "duration": 5, "velocity": 102}, {"time": 818, "pitch": 70, "duration": 5, "velocity": 122}, {"time": 824, "pitch": 65, "duration": 1, "velocity": 112}, {"time": 824, "pitch": 70, "duration": 1, "velocity": 117}, {"time": 830, "pitch": 36, "duration": 17, "velocity": 95}, {"time": 830, "pitch": 55, "duration": 8, "velocity": 112}, {"time": 830, "pitch": 60, "duration": 7, "velocity": 122}, {"time": 830, "pitch": 63, "duration": 7, "velocity": 117}, {"time": 833, "pitch": 43, "duration": 15, "velocity": 77}, {"time": 836, "pitch": 48, "duration": 7, "velocity": 100}, {"time": 839, "pitch": 55, "duration": 1, "velocity": 89}, {"time": 839, "pitch": 60, "duration": 1, "velocity": 97}, {"time": 839, "pitch": 63, "duration": 1, "velocity": 97}, {"time": 842, "pitch": 55, "duration": 4, "velocity": 107}, {"time": 842, "pitch": 60, "duration": 5, "velocity": 127}, {"time": 842, "pitch": 63, "duration": 5, "velocity": 127}, {"time": 845, "pitch": 48, "duration": 3, "velocity": 102}, {"time": 848, "pitch": 55, "duration": 1, "velocity": 99}, {"time": 848, "pitch": 60, "duration": 2, "velocity": 127}, {"time": 848, "pitch": 63, "duration": 2, "velocity": 127}, {"time": 854, "pitch": 41, "duration": 16, "velocity": 93}, {"time": 854, "pitch": 60, "duration": 7, "velocity": 122}, {"time": 854, "pitch": 65, "duration": 5, "velocity": 102}, {"time": 854, "pitch": 69, "duration": 7, "velocity": 107}, {"time": 857, "pitch": 48, "duration": 13, "velocity": 95}, {"time": 860, "pitch": 53, "duration": 7, "velocity": 112}, {"time": 863, "pitch": 65, "duration": 2, "velocity": 99}, {"time": 863, "pitch": 69, "duration": 2, "velocity": 100}, {"time": 866, "pitch": 65, "duration": 6, "velocity": 122}, {"time": 866, "pitch": 69, "duration": 6, "velocity": 127}, {"time": 869, "pitch": 53, "duration": 2, "velocity": 112}, {"time": 872, "pitch": 60, "duration": 1, "velocity": 117}, {"time": 878, "pitch": 46, "duration": 17, "velocity": 122}, {"time": 878, "pitch": 65, "duration": 4, "velocity": 102}, {"time": 878, "pitch": 70, "duration": 7, "velocity": 127}, {"time": 878, "pitch": 74, "duration": 5, "velocity": 99}, {"time": 881, "pitch": 58, "duration": 9, "velocity": 127}, {"time": 884, "pitch": 65, "duration": 6, "velocity": 99}, {"time": 887, "pitch": 70, "duration": 1, "velocity": 63}, {"time": 887, "pitch": 70, "duration": 1, "velocity": 127}, {"time": 887, "pitch": 74, "duration": 1, "velocity": 79}, {"time": 887, "pitch": 74, "duration": 1, "velocity": 107}, {"time": 890, "pitch": 65, "duration": 4, "velocity": 127}, {"time": 890, "pitch": 70, "duration": 4, "velocity": 112}, {"time": 890, "pitch": 74, "duration": 4, "velocity": 122}, {"time": 893, "pitch": 58, "duration": 2, "velocity": 117}, {"time": 896, "pitch": 65, "duration": 1, "velocity": 59}, {"time": 896, "pitch": 70, "duration": 1, "velocity": 127}, {"time": 896, "pitch": 74, "duration": 1, "velocity": 100}, {"time": 902, "pitch": 41, "duration": 19, "velocity": 95}, {"time": 902, "pitch": 65, "duration": 6, "velocity": 112}, {"time": 902, "pitch": 69, "duration": 7, "velocity": 117}, {"time": 902, "pitch": 72, "duration": 7, "velocity": 107}, {"time": 905, "pitch": 48, "duration": 19, "velocity": 88}, {"time": 908, "pitch": 53, "duration": 7, "velocity": 117}, {"time": 911, "pitch": 65, "duration": 1, "velocity": 96}, {"time": 911, "pitch": 69, "duration": 1, "velocity": 107}, {"time": 911, "pitch": 72, "duration": 1, "velocity": 95}, {"time": 914, "pitch": 65, "duration": 1, "velocity": 107}, {"time": 914, "pitch": 69, "duration": 1, "velocity": 122}, {"time": 914, "pitch": 72, "duration": 1, "velocity": 112}, {"time": 917, "pitch": 53, "duration": 3, "velocity": 72}, {"time": 920, "pitch": 65, "duration": 1, "velocity": 112}, {"time": 920, "pitch": 69, "duration": 1, "velocity": 127}, {"time": 920, "pitch": 72, "duration": 1, "velocity": 117}, {"time": 926, "pitch": 43, "duration": 16, "velocity": 78}, {"time": 926, "pitch": 67, "duration": 1, "velocity": 97}, {"time": 926, "pitch": 70, "duration": 1, "velocity": 127}, {"time": 926, "pitch": 74, "duration": 1, "velocity": 112}, {"time": 929, "pitch": 50, "duration": 11, "velocity": 89}, {"time": 932, "pitch": 55, "duration": 6, "velocity": 100}, {"time": 935, "pitch": 62, "duration": 1, "velocity": 89}, {"time": 935, "pitch": 67, "duration": 1, "velocity": 97}, {"time": 935, "pitch": 70, "duration": 1, "velocity": 99}, {"time": 938, "pitch": 62, "duration": 4, "velocity": 107}, {"time": 938, "pitch": 67, "duration": 4, "velocity": 122}, {"time": 938, "pitch": 70, "duration": 4, "velocity": 127}, {"time": 941, "pitch": 50, "duration": 1, "velocity": 100}, {"time": 944, "pitch": 67, "duration": 3, "velocity": 127}, {"time": 944, "pitch": 70, "duration": 1, "velocity": 127}, {"time": 947, "pitch": 62, "duration": 2, "velocity": 69}, {"time": 950, "pitch": 38, "duration": 16, "velocity": 83}, {"time": 950, "pitch": 62, "duration": 7, "velocity": 112}, {"time": 950, "pitch": 65, "duration": 7, "velocity": 117}, {"time": 950, "pitch": 69, "duration": 7, "velocity": 102}, {"time": 953, "pitch": 45, "duration": 14, "velocity": 73}, {"time": 956, "pitch": 50, "duration": 7, "velocity": 93}, {"time": 959, "pitch": 62, "duration": 1, "velocity": 97}, {"time": 959, "pitch": 65, "duration": 1, "velocity": 93}, {"time": 959, "pitch": 69, "duration": 1, "velocity": 83}, {"time": 962, "pitch": 62, "duration": 4, "velocity": 122}, {"time": 962, "pitch": 65, "duration": 6, "velocity": 127}, {"time": 962, "pitch": 69, "duration": 6, "velocity": 127}, {"time": 965, "pitch": 50, "duration": 2, "velocity": 100}, {"time": 968, "pitch": 62, "duration": 1, "velocity": 117}, {"time": 974, "pitch": 39, "duration": 18, "velocity": 112}, {"time": 974, "pitch": 63, "duration": 7, "velocity": 127}, {"time": 974, "pitch": 67, "duration": 7, "velocity": 127}, {"time": 974, "pitch": 70, "duration": 7, "velocity": 127}, {"time": 980, "pitch": 51, "duration": 8, "velocity": 122}, {"time": 983, "pitch": 63, "duration": 1, "velocity": 70}, {"time": 983, "pitch": 67, "duration": 1, "velocity": 59}, {"time": 983, "pitch": 70, "duration": 1, "velocity": 35}, {"time": 986, "pitch": 63, "duration": 5, "velocity": 127}, {"time": 986, "pitch": 67, "duration": 6, "velocity": 127}, {"time": 986, "pitch": 70, "duration": 6, "velocity": 127}, {"time": 992, "pitch": 51, "duration": 2, "velocity": 122}, {"time": 998, "pitch": 46, "duration": 17, "velocity": 127}, {"time": 998, "pitch": 65, "duration": 7, "velocity": 107}, {"time": 998, "pitch": 70, "duration": 7, "velocity": 127}, {"time": 998, "pitch": 74, "duration": 7, "velocity": 107}, {"time": 1004, "pitch": 58, "duration": 7, "velocity": 112}, {"time": 1007, "pitch": 65, "duration": 1, "velocity": 89}, {"time": 1007, "pitch": 70, "duration": 1, "velocity": 112}, {"time": 1007, "pitch": 74, "duration": 1, "velocity": 93}, {"time": 1010, "pitch": 70, "duration": 6, "velocity": 127}, {"time": 1010, "pitch": 74, "duration": 6, "velocity": 127}, {"time": 1013, "pitch": 58, "duration": 2, "velocity": 122}, {"time": 1016, "pitch": 65, "duration": 1, "velocity": 100}, {"time": 1022, "pitch": 36, "duration": 15, "velocity": 97}, {"time": 1022, "pitch": 60, "duration": 7, "velocity": 112}, {"time": 1022, "pitch": 63, "duration": 7, "velocity": 127}, {"time": 1022, "pitch": 67, "duration": 7, "velocity": 100}, {"time": 1025, "pitch": 43, "duration": 13, "velocity": 74}, {"time": 1028, "pitch": 48, "duration": 7, "velocity": 88}, {"time": 1031, "pitch": 60, "duration": 1, "velocity": 69}, {"time": 1031, "pitch": 63, "duration": 1, "velocity": 93}, {"time": 1031, "pitch": 67, "duration": 1, "velocity": 78}, {"time": 1034, "pitch": 60, "duration": 4, "velocity": 102}, {"time": 1034, "pitch": 63, "duration": 6, "velocity": 127}, {"time": 1034, "pitch": 67, "duration": 9, "velocity": 100}, {"time": 1037, "pitch": 48, "duration": 2, "velocity": 102}, {"time": 1040, "pitch": 60, "duration": 4, "velocity": 112}, {"time": 1043, "pitch": 63, "duration": 1, "velocity": 107}, {"time": 1046, "pitch": 41, "duration": 24, "velocity": 100}, {"time": 1046, "pitch": 60, "duration": 16, "velocity": 112}, {"time": 1046, "pitch": 65, "duration": 17, "velocity": 117}, {"time": 1046, "pitch": 69, "duration": 16, "velocity": 107}, {"time": 1058, "pitch": 53, "duration": 12, "velocity": 92}, {"time": 1064, "pitch": 60, "duration": 6, "velocity": 100}, {"time": 1064, "pitch": 65, "duration": 6, "velocity": 99}, {"time": 1064, "pitch": 69, "duration": 6, "velocity": 96}, {"time": 1070, "pitch": 46, "duration": 34, "velocity": 70}, {"time": 1070, "pitch": 62, "duration": 34, "velocity": 48}, {"time": 1070, "pitch": 65, "duration": 1, "velocity": 68}, {"time": 1070, "pitch": 70, "duration": 33, "velocity": 65}, {"time": 1106, "pitch": 41, "duration": 8, "velocity": 84}, {"time": 1106, "pitch": 57, "duration": 7, "velocity": 81}, {"time": 1106, "pitch": 60, "duration": 7, "velocity": 84}, {"time": 1106, "pitch": 65, "duration": 7, "velocity": 88}, {"time": 1118, "pitch": 39, "duration": 17, "velocity": 83}, {"time": 1118, "pitch": 55, "duration": 10, "velocity": 75}, {"time": 1118, "pitch": 58, "duration": 10, "velocity": 83}, {"time": 1118, "pitch": 63, "duration": 10, "velocity": 91}, {"time": 1124, "pitch": 46, "duration": 11, "velocity": 84}, {"time": 1127, "pitch": 51, "duration": 4, "velocity": 62}, {"time": 1130, "pitch": 55, "duration": 5, "velocity": 84}, {"time": 1130, "pitch": 58, "duration": 5, "velocity": 84}, {"time": 1130, "pitch": 63, "duration": 5, "velocity": 93}, {"time": 1133, "pitch": 51, "duration": 7, "velocity": 60}, {"time": 1139, "pitch": 65, "duration": 1, "velocity": 45}, {"time": 1139, "pitch": 70, "duration": 1, "velocity": 53}, {"time": 1142, "pitch": 46, "duration": 24, "velocity": 83}, {"time": 1142, "pitch": 62, "duration": 11, "velocity": 93}, {"time": 1142, "pitch": 65, "duration": 11, "velocity": 102}, {"time": 1142, "pitch": 70, "duration": 11, "velocity": 84}, {"time": 1145, "pitch": 53, "duration": 21, "velocity": 70}, {"time": 1148, "pitch": 58, "duration": 7, "velocity": 61}, {"time": 1151, "pitch": 50, "duration": 12, "velocity": 37}, {"time": 1154, "pitch": 62, "duration": 6, "velocity": 96}, {"time": 1154, "pitch": 65, "duration": 7, "velocity": 102}, {"time": 1154, "pitch": 70, "duration": 6, "velocity": 85}, {"time": 1157, "pitch": 58, "duration": 2, "velocity": 60}, {"time": 1160, "pitch": 58, "duration": 2, "velocity": 62}, {"time": 1163, "pitch": 58, "duration": 2, "velocity": 48}, {"time": 1163, "pitch": 62, "duration": 1, "velocity": 75}, {"time": 1163, "pitch": 65, "duration": 1, "velocity": 74}, {"time": 1163, "pitch": 70, "duration": 1, "velocity": 67}, {"time": 1166, "pitch": 48, "duration": 21, "velocity": 96}, {"time": 1166, "pitch": 63, "duration": 10, "velocity": 96}, {"time": 1166, "pitch": 67, "duration": 10, "velocity": 91}, {"time": 1166, "pitch": 72, "duration": 10, "velocity": 85}, {"time": 1169, "pitch": 55, "duration": 18, "velocity": 58}, {"time": 1172, "pitch": 60, "duration": 14, "velocity": 61}, {"time": 1175, "pitch": 51, "duration": 12, "velocity": 61}, {"time": 1178, "pitch": 63, "duration": 9, "velocity": 106}, {"time": 1178, "pitch": 67, "duration": 9, "velocity": 93}, {"time": 1178, "pitch": 72, "duration": 9, "velocity": 93}, {"time": 1190, "pitch": 41, "duration": 18, "velocity": 58}, {"time": 1190, "pitch": 48, "duration": 18, "velocity": 81}, {"time": 1190, "pitch": 57, "duration": 10, "velocity": 77}, {"time": 1190, "pitch": 60, "duration": 10, "velocity": 88}, {"time": 1190, "pitch": 65, "duration": 10, "velocity": 88}, {"time": 1196, "pitch": 53, "duration": 5, "velocity": 48}, {"time": 1199, "pitch": 45, "duration": 11, "velocity": 68}, {"time": 1202, "pitch": 57, "duration": 5, "velocity": 85}, {"time": 1202, "pitch": 60, "duration": 5, "velocity": 91}, {"time": 1202, "pitch": 65, "duration": 5, "velocity": 102}, {"time": 1205, "pitch": 53, "duration": 4, "velocity": 63}, {"time": 1208, "pitch": 57, "duration": 2, "velocity": 75}, {"time": 1208, "pitch": 60, "duration": 1, "velocity": 84}, {"time": 1208, "pitch": 65, "duration": 1, "velocity": 93}, {"time": 1214, "pitch": 39, "duration": 20, "velocity": 85}, {"time": 1214, "pitch": 55, "duration": 9, "velocity": 70}, {"time": 1214, "pitch": 58, "duration": 10, "velocity": 85}, {"time": 1214, "pitch": 63, "duration": 10, "velocity": 96}, {"time": 1217, "pitch": 46, "duration": 18, "velocity": 83}, {"time": 1220, "pitch": 51, "duration": 6, "velocity": 62}, {"time": 1223, "pitch": 43, "duration": 11, "velocity": 59}, {"time": 1226, "pitch": 55, "duration": 5, "velocity": 84}, {"time": 1226, "pitch": 58, "duration": 5, "velocity": 91}, {"time": 1226, "pitch": 63, "duration": 5, "velocity": 102}, {"time": 1229, "pitch": 51, "duration": 9, "velocity": 72}, {"time": 1232, "pitch": 55, "duration": 2, "velocity": 74}, {"time": 1232, "pitch": 58, "duration": 2, "velocity": 74}, {"time": 1232, "pitch": 63, "duration": 2, "velocity": 79}, {"time": 1238, "pitch": 46, "duration": 21, "velocity": 93}, {"time": 1238, "pitch": 62, "duration": 10, "velocity": 88}, {"time": 1238, "pitch": 65, "duration": 10, "velocity": 93}, {"time": 1238, "pitch": 70, "duration": 10, "velocity": 77}, {"time": 1241, "pitch": 53, "duration": 21, "velocity": 72}, {"time": 1244, "pitch": 58, "duration": 7, "velocity": 61}, {"time": 1247, "pitch": 50, "duration": 11, "velocity": 58}, {"time": 1250, "pitch": 62, "duration": 5, "velocity": 96}, {"time": 1250, "pitch": 65, "duration": 5, "velocity": 98}, {"time": 1250, "pitch": 70, "duration": 5, "velocity": 88}, {"time": 1253, "pitch": 58, "duration": 9, "velocity": 61}, {"time": 1256, "pitch": 62, "duration": 1, "velocity": 57}, {"time": 1256, "pitch": 65, "duration": 1, "velocity": 58}, {"time": 1256, "pitch": 70, "duration": 1, "velocity": 57}, {"time": 1259, "pitch": 62, "duration": 1, "velocity": 64}, {"time": 1259, "pitch": 65, "duration": 1, "velocity": 75}, {"time": 1259, "pitch": 70, "duration": 1, "velocity": 70}, {"time": 1262, "pitch": 48, "duration": 19, "velocity": 83}, {"time": 1262, "pitch": 63, "duration": 10, "velocity": 84}, {"time": 1262, "pitch": 67, "duration": 10, "velocity": 84}, {"time": 1262, "pitch": 72, "duration": 10, "velocity": 85}, {"time": 1265, "pitch": 55, "duration": 16, "velocity": 61}, {"time": 1268, "pitch": 60, "duration": 7, "velocity": 60}, {"time": 1271, "pitch": 51, "duration": 9, "velocity": 56}, {"time": 1274, "pitch": 63, "duration": 5, "velocity": 106}, {"time": 1274, "pitch": 67, "duration": 5, "velocity": 93}, {"time": 1274, "pitch": 72, "duration": 5, "velocity": 93}, {"time": 1277, "pitch": 60, "duration": 3, "velocity": 56}, {"time": 1280, "pitch": 63, "duration": 1, "velocity": 75}, {"time": 1280, "pitch": 67, "duration": 1, "velocity": 75}, {"time": 1280, "pitch": 72, "duration": 1, "velocity": 83}, {"time": 1286, "pitch": 41, "duration": 22, "velocity": 81}, {"time": 1286, "pitch": 57, "duration": 10, "velocity": 77}, {"time": 1286, "pitch": 60, "duration": 10, "velocity": 88}, {"time": 1286, "pitch": 65, "duration": 10, "velocity": 93}, {"time": 1289, "pitch": 48, "duration": 18, "velocity": 79}, {"time": 1292, "pitch": 53, "duration": 7, "velocity": 61}, {"time": 1295, "pitch": 45, "duration": 12, "velocity": 63}, {"time": 1298, "pitch": 57, "duration": 5, "velocity": 88}, {"time": 1298, "pitch": 60, "duration": 5, "velocity": 93}, {"time": 1298, "pitch": 65, "duration": 5, "velocity": 102}, {"time": 1301, "pitch": 53, "duration": 4, "velocity": 58}, {"time": 1304, "pitch": 57, "duration": 2, "velocity": 64}, {"time": 1304, "pitch": 60, "duration": 2, "velocity": 65}, {"time": 1304, "pitch": 65, "duration": 2, "velocity": 72}, {"time": 1310, "pitch": 46, "duration": 20, "velocity": 91}, {"time": 1310, "pitch": 62, "duration": 10, "velocity": 74}, {"time": 1310, "pitch": 65, "duration": 10, "velocity": 85}, {"time": 1310, "pitch": 70, "duration": 10, "velocity": 77}, {"time": 1313, "pitch": 53, "duration": 17, "velocity": 68}, {"time": 1316, "pitch": 58, "duration": 7, "velocity": 59}, {"time": 1322, "pitch": 62, "duration": 7, "velocity": 96}, {"time": 1322, "pitch": 65, "duration": 7, "velocity": 98}, {"time": 1322, "pitch": 70, "duration": 7, "velocity": 88}, {"time": 1325, "pitch": 58, "duration": 3, "velocity": 47}, {"time": 1334, "pitch": 41, "duration": 22, "velocity": 79}, {"time": 1334, "pitch": 57, "duration": 10, "velocity": 67}, {"time": 1334, "pitch": 60, "duration": 10, "velocity": 79}, {"time": 1334, "pitch": 65, "duration": 10, "velocity": 88}, {"time": 1337, "pitch": 48, "duration": 21, "velocity": 88}, {"time": 1340, "pitch": 53, "duration": 6, "velocity": 65}, {"time": 1343, "pitch": 45, "duration": 13, "velocity": 61}, {"time": 1346, "pitch": 57, "duration": 9, "velocity": 79}, {"time": 1346, "pitch": 60, "duration": 9, "velocity": 93}, {"time": 1346, "pitch": 65, "duration": 9, "velocity": 96}, {"time": 1349, "pitch": 53, "duration": 2, "velocity": 58}, {"time": 1352, "pitch": 53, "duration": 5, "velocity": 72}, {"time": 1358, "pitch": 43, "duration": 18, "velocity": 77}, {"time": 1358, "pitch": 58, "duration": 10, "velocity": 81}, {"time": 1358, "pitch": 62, "duration": 10, "velocity": 93}, {"time": 1358, "pitch": 67, "duration": 10, "velocity": 88}, {"time": 1364, "pitch": 50, "duration": 11, "velocity": 73}, {"time": 1367, "pitch": 55, "duration": 7, "velocity": 12}, {"time": 1370, "pitch": 58, "duration": 6, "velocity": 83}, {"time": 1370, "pitch": 62, "duration": 6, "velocity": 91}, {"time": 1370, "pitch": 67, "duration": 6, "velocity": 93}, {"time": 1382, "pitch": 38, "duration": 20, "velocity": 77}, {"time": 1382, "pitch": 53, "duration": 11, "velocity": 75}, {"time": 1382, "pitch": 57, "duration": 11, "velocity": 79}, {"time": 1382, "pitch": 62, "duration": 8, "velocity": 84}, {"time": 1388, "pitch": 45, "duration": 18, "velocity": 75}, {"time": 1391, "pitch": 62, "duration": 1, "velocity": 38}, {"time": 1394, "pitch": 53, "duration": 7, "velocity": 84}, {"time": 1394, "pitch": 57, "duration": 7, "velocity": 91}, {"time": 1394, "pitch": 62, "duration": 7, "velocity": 96}, {"time": 1400, "pitch": 50, "duration": 5, "velocity": 60}, {"time": 1403, "pitch": 55, "duration": 1, "velocity": 47}, {"time": 1406, "pitch": 39, "duration": 18, "velocity": 74}, {"time": 1406, "pitch": 55, "duration": 10, "velocity": 73}, {"time": 1406, "pitch": 58, "duration": 10, "velocity": 85}, {"time": 1406, "pitch": 63, "duration": 10, "velocity": 88}, {"time": 1409, "pitch": 46, "duration": 15, "velocity": 72}, {"time": 1412, "pitch": 51, "duration": 7, "velocity": 61}, {"time": 1418, "pitch": 55, "duration": 7, "velocity": 81}, {"time": 1418, "pitch": 58, "duration": 7, "velocity": 81}, {"time": 1418, "pitch": 63, "duration": 7, "velocity": 81}, {"time": 1424, "pitch": 51, "duration": 5, "velocity": 59}, {"time": 1427, "pitch": 62, "duration": 1, "velocity": 46}, {"time": 1430, "pitch": 46, "duration": 20, "velocity": 79}, {"time": 1430, "pitch": 62, "duration": 10, "velocity": 79}, {"time": 1430, "pitch": 65, "duration": 10, "velocity": 79}, {"time": 1430, "pitch": 70, "duration": 10, "velocity": 79}, {"time": 1433, "pitch": 53, "duration": 22, "velocity": 60}, {"time": 1436, "pitch": 58, "duration": 6, "velocity": 48}, {"time": 1439, "pitch": 50, "duration": 14, "velocity": 53}, {"time": 1442, "pitch": 62, "duration": 8, "velocity": 77}, {"time": 1442, "pitch": 65, "duration": 8, "velocity": 77}, {"time": 1442, "pitch": 70, "duration": 8, "velocity": 77}, {"time": 1448, "pitch": 58, "duration": 5, "velocity": 59}, {"time": 1451, "pitch": 63, "duration": 1, "velocity": 42}, {"time": 1454, "pitch": 48, "duration": 14, "velocity": 91}, {"time": 1454, "pitch": 63, "duration": 10, "velocity": 74}, {"time": 1454, "pitch": 67, "duration": 10, "velocity": 77}, {"time": 1454, "pitch": 72, "duration": 10, "velocity": 81}, {"time": 1457, "pitch": 55, "duration": 9, "velocity": 30}, {"time": 1460, "pitch": 60, "duration": 7, "velocity": 61}, {"time": 1466, "pitch": 63, "duration": 2, "velocity": 88}, {"time": 1466, "pitch": 67, "duration": 2, "velocity": 88}, {"time": 1466, "pitch": 72, "duration": 2, "velocity": 88}, {"time": 1472, "pitch": 41, "duration": 1, "velocity": 77}, {"time": 1472, "pitch": 57, "duration": 1, "velocity": 63}, {"time": 1472, "pitch": 60, "duration": 1, "velocity": 77}, {"time": 1472, "pitch": 65, "duration": 1, "velocity": 75}, {"time": 1475, "pitch": 41, "duration": 27, "velocity": 83}, {"time": 1475, "pitch": 57, "duration": 27, "velocity": 83}, {"time": 1475, "pitch": 60, "duration": 27, "velocity": 83}, {"time": 1475, "pitch": 65, "duration": 27, "velocity": 83}, {"time": 1484, "pitch": 48, "duration": 17, "velocity": 67}, {"time": 1502, "pitch": 46, "duration": 16, "velocity": 75}, {"time": 1502, "pitch": 62, "duration": 9, "velocity": 61}, {"time": 1502, "pitch": 65, "duration": 9, "velocity": 73}, {"time": 1508, "pitch": 53, "duration": 10, "velocity": 57}, {"time": 1514, "pitch": 62, "duration": 6, "velocity": 74}, {"time": 1514, "pitch": 65, "duration": 6, "velocity": 81}, {"time": 1526, "pitch": 41, "duration": 19, "velocity": 67}, {"time": 1526, "pitch": 57, "duration": 10, "velocity": 65}, {"time": 1526, "pitch": 60, "duration": 10, "velocity": 72}, {"time": 1532, "pitch": 48, "duration": 18, "velocity": 59}, {"time": 1532, "pitch": 65, "duration": 3, "velocity": 69}, {"time": 1535, "pitch": 67, "duration": 2, "velocity": 63}, {"time": 1538, "pitch": 57, "duration": 7, "velocity": 62}, {"time": 1538, "pitch": 60, "duration": 7, "velocity": 69}, {"time": 1538, "pitch": 69, "duration": 3, "velocity": 79}, {"time": 1541, "pitch": 67, "duration": 3, "velocity": 61}, {"time": 1544, "pitch": 53, "duration": 5, "velocity": 47}, {"time": 1544, "pitch": 62, "duration": 6, "velocity": 68}, {"time": 1550, "pitch": 39, "duration": 18, "velocity": 67}, {"time": 1550, "pitch": 55, "duration": 10, "velocity": 61}, {"time": 1550, "pitch": 58, "duration": 11, "velocity": 67}, {"time": 1550, "pitch": 62, "duration": 10, "velocity": 66}, {"time": 1556, "pitch": 46, "duration": 11, "velocity": 57}, {"time": 1562, "pitch": 55, "duration": 6, "velocity": 77}, {"time": 1562, "pitch": 58, "duration": 6, "velocity": 77}, {"time": 1562, "pitch": 62, "duration": 6, "velocity": 88}, {"time": 1568, "pitch": 51, "duration": 5, "velocity": 57}, {"time": 1574, "pitch": 46, "duration": 19, "velocity": 57}, {"time": 1574, "pitch": 62, "duration": 11, "velocity": 69}, {"time": 1574, "pitch": 65, "duration": 11, "velocity": 75}, {"time": 1580, "pitch": 53, "duration": 10, "velocity": 50}, {"time": 1586, "pitch": 62, "duration": 6, "velocity": 66}, {"time": 1586, "pitch": 65, "duration": 7, "velocity": 61}, {"time": 1586, "pitch": 70, "duration": 6, "velocity": 56}, {"time": 1598, "pitch": 39, "duration": 24, "velocity": 69}, {"time": 1598, "pitch": 55, "duration": 10, "velocity": 57}, {"time": 1598, "pitch": 58, "duration": 11, "velocity": 48}, {"time": 1598, "pitch": 63, "duration": 10, "velocity": 58}, {"time": 1604, "pitch": 46, "duration": 18, "velocity": 68}, {"time": 1610, "pitch": 55, "duration": 11, "velocity": 60}, {"time": 1610, "pitch": 58, "duration": 11, "velocity": 68}, {"time": 1610, "pitch": 63, "duration": 10, "velocity": 73}, {"time": 1616, "pitch": 51, "duration": 5, "velocity": 54}, {"time": 1622, "pitch": 38, "duration": 19, "velocity": 63}, {"time": 1622, "pitch": 53, "duration": 10, "velocity": 60}, {"time": 1622, "pitch": 57, "duration": 10, "velocity": 57}, {"time": 1622, "pitch": 62, "duration": 10, "velocity": 66}, {"time": 1628, "pitch": 45, "duration": 11, "velocity": 59}, {"time": 1634, "pitch": 53, "duration": 7, "velocity": 62}, {"time": 1634, "pitch": 57, "duration": 7, "velocity": 71}, {"time": 1634, "pitch": 62, "duration": 6, "velocity": 72}, {"time": 1643, "pitch": 55, "duration": 1, "velocity": 26}, {"time": 1646, "pitch": 36, "duration": 17, "velocity": 72}, {"time": 1646, "pitch": 51, "duration": 11, "velocity": 65}, {"time": 1646, "pitch": 55, "duration": 11, "velocity": 72}, {"time": 1646, "pitch": 60, "duration": 11, "velocity": 67}, {"time": 1652, "pitch": 43, "duration": 12, "velocity": 64}, {"time": 1658, "pitch": 51, "duration": 6, "velocity": 72}, {"time": 1658, "pitch": 55, "duration": 6, "velocity": 75}, {"time": 1658, "pitch": 60, "duration": 6, "velocity": 74}, {"time": 1664, "pitch": 48, "duration": 6, "velocity": 56}, {"time": 1670, "pitch": 41, "duration": 25, "velocity": 63}, {"time": 1670, "pitch": 57, "duration": 11, "velocity": 60}, {"time": 1670, "pitch": 60, "duration": 11, "velocity": 63}, {"time": 1670, "pitch": 65, "duration": 11, "velocity": 73}, {"time": 1676, "pitch": 48, "duration": 18, "velocity": 61}, {"time": 1682, "pitch": 57, "duration": 9, "velocity": 63}, {"time": 1682, "pitch": 60, "duration": 9, "velocity": 73}, {"time": 1682, "pitch": 65, "duration": 9, "velocity": 81}, {"time": 1688, "pitch": 53, "duration": 6, "velocity": 52}, {"time": 1694, "pitch": 46, "duration": 18, "velocity": 81}, {"time": 1694, "pitch": 62, "duration": 10, "velocity": 74}, {"time": 1694, "pitch": 65, "duration": 11, "velocity": 84}, {"time": 1694, "pitch": 70, "duration": 10, "velocity": 69}, {"time": 1700, "pitch": 53, "duration": 11, "velocity": 62}, {"time": 1706, "pitch": 62, "duration": 5, "velocity": 79}, {"time": 1706, "pitch": 65, "duration": 5, "velocity": 79}, {"time": 1706, "pitch": 70, "duration": 5, "velocity": 79}, {"time": 1718, "pitch": 41, "duration": 22, "velocity": 71}, {"time": 1718, "pitch": 57, "duration": 11, "velocity": 62}, {"time": 1718, "pitch": 60, "duration": 11, "velocity": 59}, {"time": 1718, "pitch": 65, "duration": 11, "velocity": 70}, {"time": 1724, "pitch": 48, "duration": 17, "velocity": 60}, {"time": 1730, "pitch": 57, "duration": 7, "velocity": 67}, {"time": 1730, "pitch": 60, "duration": 7, "velocity": 77}, {"time": 1730, "pitch": 65, "duration": 6, "velocity": 84}, {"time": 1736, "pitch": 53, "duration": 2, "velocity": 57}, {"time": 1742, "pitch": 39, "duration": 18, "velocity": 85}, {"time": 1742, "pitch": 55, "duration": 11, "velocity": 62}, {"time": 1742, "pitch": 58, "duration": 11, "velocity": 72}, {"time": 1742, "pitch": 63, "duration": 11, "velocity": 77}, {"time": 1748, "pitch": 46, "duration": 12, "velocity": 72}, {"time": 1754, "pitch": 55, "duration": 6, "velocity": 77}, {"time": 1754, "pitch": 58, "duration": 6, "velocity": 77}, {"time": 1754, "pitch": 63, "duration": 6, "velocity": 83}, {"time": 1760, "pitch": 51, "duration": 6, "velocity": 58}, {"time": 1766, "pitch": 46, "duration": 21, "velocity": 29}, {"time": 1766, "pitch": 62, "duration": 11, "velocity": 85}, {"time": 1766, "pitch": 65, "duration": 11, "velocity": 83}, {"time": 1766, "pitch": 70, "duration": 11, "velocity": 72}, {"time": 1772, "pitch": 53, "duration": 13, "velocity": 65}, {"time": 1778, "pitch": 62, "duration": 7, "velocity": 72}, {"time": 1778, "pitch": 65, "duration": 6, "velocity": 88}, {"time": 1778, "pitch": 70, "duration": 6, "velocity": 75}, {"time": 1784, "pitch": 58, "duration": 2, "velocity": 56}, {"time": 1790, "pitch": 39, "duration": 21, "velocity": 83}, {"time": 1790, "pitch": 55, "duration": 11, "velocity": 61}, {"time": 1790, "pitch": 58, "duration": 11, "velocity": 57}, {"time": 1790, "pitch": 63, "duration": 10, "velocity": 69}, {"time": 1796, "pitch": 46, "duration": 14, "velocity": 74}, {"time": 1802, "pitch": 55, "duration": 7, "velocity": 79}, {"time": 1802, "pitch": 58, "duration": 7, "velocity": 77}, {"time": 1802, "pitch": 63, "duration": 7, "velocity": 85}, {"time": 1808, "pitch": 51, "duration": 2, "velocity": 50}, {"time": 1811, "pitch": 53, "duration": 1, "velocity": 43}, {"time": 1814, "pitch": 38, "duration": 18, "velocity": 76}, {"time": 1814, "pitch": 53, "duration": 11, "velocity": 76}, {"time": 1814, "pitch": 57, "duration": 11, "velocity": 76}, {"time": 1814, "pitch": 62, "duration": 11, "velocity": 76}, {"time": 1820, "pitch": 45, "duration": 12, "velocity": 74}, {"time": 1826, "pitch": 53, "duration": 6, "velocity": 81}, {"time": 1826, "pitch": 57, "duration": 6, "velocity": 79}, {"time": 1826, "pitch": 62, "duration": 6, "velocity": 83}, {"time": 1832, "pitch": 50, "duration": 5, "velocity": 58}, {"time": 1838, "pitch": 48, "duration": 20, "velocity": 84}, {"time": 1838, "pitch": 63, "duration": 11, "velocity": 84}, {"time": 1838, "pitch": 67, "duration": 11, "velocity": 74}, {"time": 1844, "pitch": 55, "duration": 13, "velocity": 66}, {"time": 1850, "pitch": 63, "duration": 6, "velocity": 77}, {"time": 1850, "pitch": 67, "duration": 6, "velocity": 74}, {"time": 1856, "pitch": 60, "duration": 1, "velocity": 52}, {"time": 1865, "pitch": 41, "duration": 19, "velocity": 88}, {"time": 1865, "pitch": 57, "duration": 19, "velocity": 88}, {"time": 1865, "pitch": 60, "duration": 19, "velocity": 88}, {"time": 1865, "pitch": 65, "duration": 19, "velocity": 88}, {"time": 1886, "pitch": 41, "duration": 1, "velocity": 87}, {"time": 1886, "pitch": 57, "duration": 1, "velocity": 87}, {"time": 1886, "pitch": 60, "duration": 1, "velocity": 87}, {"time": 1886, "pitch": 65, "duration": 1, "velocity": 87}, {"time": 1889, "pitch": 41, "duration": 9, "velocity": 99}, {"time": 1889, "pitch": 57, "duration": 9, "velocity": 99}, {"time": 1889, "pitch": 60, "duration": 9, "velocity": 99}, {"time": 1889, "pitch": 65, "duration": 9, "velocity": 99}, {"time": 1898, "pitch": 38, "duration": 6, "velocity": 85}, {"time": 1898, "pitch": 50, "duration": 6, "velocity": 85}, {"time": 1904, "pitch": 43, "duration": 4, "velocity": 84}, {"time": 1904, "pitch": 55, "duration": 3, "velocity": 84}, {"time": 1904, "pitch": 67, "duration": 4, "velocity": 84}, {"time": 1910, "pitch": 46, "duration": 17, "velocity": 127}, {"time": 1910, "pitch": 65, "duration": 4, "velocity": 127}, {"time": 1910, "pitch": 70, "duration": 7, "velocity": 127}, {"time": 1910, "pitch": 74, "duration": 7, "velocity": 107}, {"time": 1913, "pitch": 58, "duration": 10, "velocity": 122}, {"time": 1916, "pitch": 65, "duration": 4, "velocity": 86}, {"time": 1919, "pitch": 70, "duration": 1, "velocity": 95}, {"time": 1919, "pitch": 74, "duration": 1, "velocity": 88}, {"time": 1922, "pitch": 65, "duration": 3, "velocity": 122}, {"time": 1922, "pitch": 70, "duration": 4, "velocity": 127}, {"time": 1922, "pitch": 74, "duration": 4, "velocity": 127}, {"time": 1925, "pitch": 58, "duration": 1, "velocity": 102}, {"time": 1928, "pitch": 70, "duration": 2, "velocity": 127}, {"time": 1928, "pitch": 74, "duration": 3, "velocity": 127}, {"time": 1931, "pitch": 65, "duration": 2, "velocity": 90}, {"time": 1934, "pitch": 41, "duration": 17, "velocity": 92}, {"time": 1934, "pitch": 65, "duration": 2, "velocity": 117}, {"time": 1934, "pitch": 69, "duration": 2, "velocity": 127}, {"time": 1934, "pitch": 72, "duration": 2, "velocity": 117}, {"time": 1937, "pitch": 48, "duration": 15, "velocity": 81}, {"time": 1940, "pitch": 53, "duration": 7, "velocity": 89}, {"time": 1943, "pitch": 60, "duration": 1, "velocity": 100}, {"time": 1943, "pitch": 65, "duration": 1, "velocity": 100}, {"time": 1943, "pitch": 69, "duration": 1, "velocity": 99}, {"time": 1946, "pitch": 60, "duration": 4, "velocity": 127}, {"time": 1946, "pitch": 65, "duration": 4, "velocity": 127}, {"time": 1946, "pitch": 69, "duration": 4, "velocity": 127}, {"time": 1949, "pitch": 53, "duration": 3, "velocity": 112}, {"time": 1952, "pitch": 60, "duration": 1, "velocity": 96}, {"time": 1952, "pitch": 65, "duration": 4, "velocity": 122}, {"time": 1952, "pitch": 69, "duration": 2, "velocity": 107}, {"time": 1958, "pitch": 43, "duration": 18, "velocity": 96}, {"time": 1958, "pitch": 62, "duration": 8, "velocity": 112}, {"time": 1958, "pitch": 67, "duration": 8, "velocity": 112}, {"time": 1958, "pitch": 70, "duration": 8, "velocity": 127}, {"time": 1961, "pitch": 50, "duration": 14, "velocity": 73}, {"time": 1964, "pitch": 55, "duration": 7, "velocity": 90}, {"time": 1967, "pitch": 62, "duration": 1, "velocity": 88}, {"time": 1967, "pitch": 67, "duration": 1, "velocity": 95}, {"time": 1967, "pitch": 70, "duration": 1, "velocity": 97}, {"time": 1970, "pitch": 62, "duration": 4, "velocity": 127}, {"time": 1970, "pitch": 67, "duration": 7, "velocity": 127}, {"time": 1970, "pitch": 70, "duration": 7, "velocity": 127}, {"time": 1973, "pitch": 55, "duration": 2, "velocity": 97}, {"time": 1976, "pitch": 62, "duration": 4, "velocity": 117}, {"time": 1979, "pitch": 65, "duration": 1, "velocity": 83}, {"time": 1982, "pitch": 38, "duration": 16, "velocity": 89}, {"time": 1982, "pitch": 62, "duration": 7, "velocity": 117}, {"time": 1982, "pitch": 65, "duration": 7, "velocity": 122}, {"time": 1982, "pitch": 68, "duration": 1, "velocity": 86}, {"time": 1982, "pitch": 69, "duration": 7, "velocity": 107}, {"time": 1985, "pitch": 45, "duration": 13, "velocity": 76}, {"time": 1988, "pitch": 50, "duration": 7, "velocity": 99}, {"time": 1991, "pitch": 62, "duration": 2, "velocity": 100}, {"time": 1991, "pitch": 65, "duration": 2, "velocity": 100}, {"time": 1991, "pitch": 69, "duration": 2, "velocity": 97}, {"time": 1994, "pitch": 62, "duration": 4, "velocity": 127}, {"time": 1994, "pitch": 65, "duration": 6, "velocity": 127}, {"time": 1994, "pitch": 69, "duration": 6, "velocity": 122}, {"time": 1997, "pitch": 50, "duration": 1, "velocity": 99}, {"time": 2000, "pitch": 62, "duration": 2, "velocity": 117}, {"time": 2006, "pitch": 39, "duration": 16, "velocity": 96}, {"time": 2006, "pitch": 63, "duration": 8, "velocity": 127}, {"time": 2006, "pitch": 67, "duration": 8, "velocity": 102}, {"time": 2006, "pitch": 70, "duration": 7, "velocity": 99}, {"time": 2009, "pitch": 46, "duration": 13, "velocity": 37}, {"time": 2012, "pitch": 51, "duration": 7, "velocity": 96}, {"time": 2015, "pitch": 63, "duration": 1, "velocity": 97}, {"time": 2015, "pitch": 67, "duration": 1, "velocity": 79}, {"time": 2015, "pitch": 70, "duration": 1, "velocity": 83}, {"time": 2018, "pitch": 63, "duration": 4, "velocity": 127}, {"time": 2018, "pitch": 67, "duration": 6, "velocity": 122}, {"time": 2018, "pitch": 70, "duration": 6, "velocity": 127}, {"time": 2021, "pitch": 51, "duration": 2, "velocity": 96}, {"time": 2024, "pitch": 63, "duration": 1, "velocity": 112}, {"time": 2030, "pitch": 46, "duration": 18, "velocity": 127}, {"time": 2030, "pitch": 62, "duration": 7, "velocity": 117}, {"time": 2030, "pitch": 65, "duration": 8, "velocity": 100}, {"time": 2030, "pitch": 70, "duration": 7, "velocity": 112}, {"time": 2036, "pitch": 58, "duration": 11, "velocity": 112}, {"time": 2039, "pitch": 62, "duration": 3, "velocity": 107}, {"time": 2042, "pitch": 65, "duration": 5, "velocity": 102}, {"time": 2042, "pitch": 70, "duration": 5, "velocity": 122}, {"time": 2048, "pitch": 65, "duration": 1, "velocity": 112}, {"time": 2048, "pitch": 70, "duration": 1, "velocity": 117}, {"time": 2054, "pitch": 36, "duration": 17, "velocity": 95}, {"time": 2054, "pitch": 55, "duration": 8, "velocity": 112}, {"time": 2054, "pitch": 60, "duration": 7, "velocity": 122}, {"time": 2054, "pitch": 63, "duration": 7, "velocity": 117}, {"time": 2057, "pitch": 43, "duration": 15, "velocity": 77}, {"time": 2060, "pitch": 48, "duration": 7, "velocity": 100}, {"time": 2063, "pitch": 55, "duration": 1, "velocity": 89}, {"time": 2063, "pitch": 60, "duration": 1, "velocity": 97}, {"time": 2063, "pitch": 63, "duration": 1, "velocity": 97}, {"time": 2066, "pitch": 55, "duration": 4, "velocity": 107}, {"time": 2066, "pitch": 60, "duration": 5, "velocity": 127}, {"time": 2066, "pitch": 63, "duration": 5, "velocity": 127}, {"time": 2069, "pitch": 48, "duration": 3, "velocity": 102}, {"time": 2072, "pitch": 55, "duration": 1, "velocity": 99}, {"time": 2072, "pitch": 60, "duration": 2, "velocity": 127}, {"time": 2072, "pitch": 63, "duration": 2, "velocity": 127}, {"time": 2078, "pitch": 41, "duration": 16, "velocity": 93}, {"time": 2078, "pitch": 60, "duration": 7, "velocity": 122}, {"time": 2078, "pitch": 65, "duration": 5, "velocity": 102}, {"time": 2078, "pitch": 69, "duration": 7, "velocity": 107}, {"time": 2081, "pitch": 48, "duration": 13, "velocity": 95}, {"time": 2084, "pitch": 53, "duration": 7, "velocity": 112}, {"time": 2087, "pitch": 65, "duration": 2, "velocity": 99}, {"time": 2087, "pitch": 69, "duration": 2, "velocity": 100}, {"time": 2090, "pitch": 65, "duration": 6, "velocity": 122}, {"time": 2090, "pitch": 69, "duration": 6, "velocity": 127}, {"time": 2093, "pitch": 53, "duration": 2, "velocity": 112}, {"time": 2096, "pitch": 60, "duration": 1, "velocity": 117}, {"time": 2102, "pitch": 46, "duration": 17, "velocity": 122}, {"time": 2102, "pitch": 65, "duration": 4, "velocity": 102}, {"time": 2102, "pitch": 70, "duration": 7, "velocity": 127}, {"time": 2102, "pitch": 74, "duration": 5, "velocity": 99}, {"time": 2105, "pitch": 58, "duration": 9, "velocity": 127}, {"time": 2108, "pitch": 65, "duration": 6, "velocity": 99}, {"time": 2111, "pitch": 70, "duration": 1, "velocity": 63}, {"time": 2111, "pitch": 70, "duration": 1, "velocity": 127}, {"time": 2111, "pitch": 74, "duration": 1, "velocity": 79}, {"time": 2111, "pitch": 74, "duration": 1, "velocity": 107}, {"time": 2114, "pitch": 65, "duration": 4, "velocity": 127}, {"time": 2114, "pitch": 70, "duration": 4, "velocity": 112}, {"time": 2114, "pitch": 74, "duration": 4, "velocity": 122}, {"time": 2117, "pitch": 58, "duration": 2, "velocity": 117}, {"time": 2120, "pitch": 65, "duration": 1, "velocity": 59}, {"time": 2120, "pitch": 70, "duration": 1, "velocity": 127}, {"time": 2120, "pitch": 74, "duration": 1, "velocity": 100}, {"time": 2126, "pitch": 41, "duration": 19, "velocity": 95}, {"time": 2126, "pitch": 65, "duration": 6, "velocity": 112}, {"time": 2126, "pitch": 69, "duration": 7, "velocity": 117}, {"time": 2126, "pitch": 72, "duration": 7, "velocity": 107}, {"time": 2129, "pitch": 48, "duration": 19, "velocity": 88}, {"time": 2132, "pitch": 53, "duration": 7, "velocity": 117}, {"time": 2135, "pitch": 65, "duration": 1, "velocity": 96}, {"time": 2135, "pitch": 69, "duration": 1, "velocity": 107}, {"time": 2135, "pitch": 72, "duration": 1, "velocity": 95}, {"time": 2138, "pitch": 65, "duration": 1, "velocity": 107}, {"time": 2138, "pitch": 69, "duration": 1, "velocity": 122}, {"time": 2138, "pitch": 72, "duration": 1, "velocity": 112}, {"time": 2141, "pitch": 53, "duration": 3, "velocity": 72}, {"time": 2144, "pitch": 65, "duration": 1, "velocity": 112}, {"time": 2144, "pitch": 69, "duration": 1, "velocity": 127}, {"time": 2144, "pitch": 72, "duration": 1, "velocity": 117}, {"time": 2150, "pitch": 43, "duration": 16, "velocity": 78}, {"time": 2150, "pitch": 67, "duration": 1, "velocity": 97}, {"time": 2150, "pitch": 70, "duration": 1, "velocity": 127}, {"time": 2150, "pitch": 74, "duration": 1, "velocity": 112}, {"time": 2153, "pitch": 50, "duration": 11, "velocity": 89}, {"time": 2156, "pitch": 55, "duration": 6, "velocity": 100}, {"time": 2159, "pitch": 62, "duration": 1, "velocity": 89}, {"time": 2159, "pitch": 67, "duration": 1, "velocity": 97}, {"time": 2159, "pitch": 70, "duration": 1, "velocity": 99}, {"time": 2162, "pitch": 62, "duration": 4, "velocity": 107}, {"time": 2162, "pitch": 67, "duration": 4, "velocity": 122}, {"time": 2162, "pitch": 70, "duration": 4, "velocity": 127}, {"time": 2165, "pitch": 50, "duration": 1, "velocity": 100}, {"time": 2168, "pitch": 67, "duration": 3, "velocity": 127}, {"time": 2168, "pitch": 70, "duration": 1, "velocity": 127}, {"time": 2171, "pitch": 62, "duration": 2, "velocity": 69}, {"time": 2174, "pitch": 38, "duration": 16, "velocity": 83}, {"time": 2174, "pitch": 62, "duration": 7, "velocity": 112}, {"time": 2174, "pitch": 65, "duration": 7, "velocity": 117}, {"time": 2174, "pitch": 69, "duration": 7, "velocity": 102}, {"time": 2177, "pitch": 45, "duration": 14, "velocity": 73}, {"time": 2180, "pitch": 50, "duration": 7, "velocity": 93}, {"time": 2183, "pitch": 62, "duration": 1, "velocity": 97}, {"time": 2183, "pitch": 65, "duration": 1, "velocity": 93}, {"time": 2183, "pitch": 69, "duration": 1, "velocity": 83}, {"time": 2186, "pitch": 62, "duration": 4, "velocity": 122}, {"time": 2186, "pitch": 65, "duration": 6, "velocity": 127}, {"time": 2186, "pitch": 69, "duration": 6, "velocity": 127}, {"time": 2189, "pitch": 50, "duration": 2, "velocity": 100}, {"time": 2192, "pitch": 62, "duration": 1, "velocity": 117}, {"time": 2198, "pitch": 39, "duration": 18, "velocity": 112}, {"time": 2198, "pitch": 63, "duration": 7, "velocity": 127}, {"time": 2198, "pitch": 67, "duration": 7, "velocity": 127}, {"time": 2198, "pitch": 70, "duration": 7, "velocity": 127}, {"time": 2204, "pitch": 51, "duration": 8, "velocity": 122}, {"time": 2207, "pitch": 63, "duration": 1, "velocity": 70}, {"time": 2207, "pitch": 67, "duration": 1, "velocity": 59}, {"time": 2207, "pitch": 70, "duration": 1, "velocity": 35}, {"time": 2210, "pitch": 63, "duration": 5, "velocity": 127}, {"time": 2210, "pitch": 67, "duration": 6, "velocity": 127}, {"time": 2210, "pitch": 70, "duration": 6, "velocity": 127}, {"time": 2216, "pitch": 51, "duration": 2, "velocity": 122}, {"time": 2222, "pitch": 46, "duration": 17, "velocity": 127}, {"time": 2222, "pitch": 65, "duration": 7, "velocity": 107}, {"time": 2222, "pitch": 70, "duration": 7, "velocity": 127}, {"time": 2222, "pitch": 74, "duration": 7, "velocity": 107}, {"time": 2228, "pitch": 58, "duration": 7, "velocity": 112}, {"time": 2231, "pitch": 65, "duration": 1, "velocity": 89}, {"time": 2231, "pitch": 70, "duration": 1, "velocity": 112}, {"time": 2231, "pitch": 74, "duration": 1, "velocity": 93}, {"time": 2234, "pitch": 70, "duration": 6, "velocity": 127}, {"time": 2234, "pitch": 74, "duration": 6, "velocity": 127}, {"time": 2237, "pitch": 58, "duration": 2, "velocity": 122}, {"time": 2240, "pitch": 65, "duration": 1, "velocity": 100}, {"time": 2246, "pitch": 36, "duration": 15, "velocity": 97}, {"time": 2246, "pitch": 60, "duration": 7, "velocity": 112}, {"time": 2246, "pitch": 63, "duration": 7, "velocity": 127}, {"time": 2246, "pitch": 67, "duration": 7, "velocity": 100}, {"time": 2249, "pitch": 43, "duration": 13, "velocity": 74}, {"time": 2252, "pitch": 48, "duration": 7, "velocity": 88}, {"time": 2255, "pitch": 60, "duration": 1, "velocity": 69}, {"time": 2255, "pitch": 63, "duration": 1, "velocity": 93}, {"time": 2255, "pitch": 67, "duration": 1, "velocity": 78}, {"time": 2258, "pitch": 60, "duration": 4, "velocity": 102}, {"time": 2258, "pitch": 63, "duration": 6, "velocity": 127}, {"time": 2258, "pitch": 67, "duration": 9, "velocity": 100}, {"time": 2261, "pitch": 48, "duration": 2, "velocity": 102}, {"time": 2264, "pitch": 60, "duration": 4, "velocity": 112}, {"time": 2267, "pitch": 63, "duration": 1, "velocity": 107}, {"time": 2270, "pitch": 41, "duration": 24, "velocity": 100}, {"time": 2270, "pitch": 60, "duration": 16, "velocity": 112}, {"time": 2270, "pitch": 65, "duration": 17, "velocity": 117}, {"time": 2270, "pitch": 69, "duration": 16, "velocity": 107}, {"time": 2282, "pitch": 53, "duration": 12, "velocity": 92}, {"time": 2288, "pitch": 60, "duration": 6, "velocity": 100}, {"time": 2288, "pitch": 65, "duration": 6, "velocity": 99}, {"time": 2288, "pitch": 69, "duration": 6, "velocity": 96}, {"time": 2294, "pitch": 46, "duration": 22, "velocity": 70}, {"time": 2294, "pitch": 62, "duration": 21, "velocity": 48}, {"time": 2294, "pitch": 65, "duration": 25, "velocity": 68}, {"time": 2294, "pitch": 70, "duration": 24, "velocity": 65}, {"time": 2321, "pitch": 41, "duration": 1, "velocity": 97}, {"time": 2321, "pitch": 53, "duration": 1, "velocity": 97}, {"time": 2321, "pitch": 63, "duration": 1, "velocity": 97}, {"time": 2324, "pitch": 41, "duration": 1, "velocity": 96}, {"time": 2324, "pitch": 53, "duration": 1, "velocity": 96}, {"time": 2324, "pitch": 67, "duration": 1, "velocity": 96}, {"time": 2327, "pitch": 41, "duration": 1, "velocity": 95}, {"time": 2327, "pitch": 53, "duration": 1, "velocity": 95}, {"time": 2327, "pitch": 70, "duration": 2, "velocity": 95}, {"time": 2333, "pitch": 41, "duration": 2, "velocity": 94}, {"time": 2333, "pitch": 53, "duration": 2, "velocity": 94}, {"time": 2333, "pitch": 65, "duration": 5, "velocity": 94}, {"time": 2342, "pitch": 46, "duration": 6, "velocity": 94}, {"time": 2342, "pitch": 62, "duration": 6, "velocity": 94}, {"time": 2342, "pitch": 65, "duration": 6, "velocity": 94}, {"time": 2342, "pitch": 70, "duration": 6, "velocity": 94}, {"time": 2366, "pitch": 41, "duration": 2, "velocity": 94}, {"time": 2366, "pitch": 60, "duration": 3, "velocity": 94}, {"time": 2366, "pitch": 57, "duration": 3, "velocity": 94}, {"time": 2366, "pitch": 65, "duration": 3, "velocity": 94}, {"time": 2370, "pitch": 41, "duration": 2, "velocity": 93}, {"time": 2370, "pitch": 57, "duration": 3, "velocity": 93}, {"time": 2370, "pitch": 60, "duration": 2, "velocity": 93}, {"time": 2370, "pitch": 65, "duration": 2, "velocity": 93}, {"time": 2374, "pitch": 41, "duration": 2, "velocity": 92}, {"time": 2374, "pitch": 57, "duration": 2, "velocity": 92}, {"time": 2374, "pitch": 65, "duration": 2, "velocity": 92}, {"time": 2374, "pitch": 60, "duration": 2, "velocity": 92}, {"time": 2378, "pitch": 41, "duration": 2, "velocity": 92}, {"time": 2378, "pitch": 57, "duration": 2, "velocity": 92}, {"time": 2378, "pitch": 65, "duration": 2, "velocity": 92}, {"time": 2378, "pitch": 60, "duration": 2, "velocity": 92}, {"time": 2390, "pitch": 43, "duration": 17, "velocity": 99}, {"time": 2390, "pitch": 62, "duration": 7, "velocity": 122}, {"time": 2390, "pitch": 67, "duration": 7, "velocity": 127}, {"time": 2390, "pitch": 70, "duration": 7, "velocity": 127}, {"time": 2393, "pitch": 50, "duration": 10, "velocity": 90}, {"time": 2396, "pitch": 55, "duration": 6, "velocity": 107}, {"time": 2399, "pitch": 62, "duration": 1, "velocity": 95}, {"time": 2399, "pitch": 67, "duration": 1, "velocity": 95}, {"time": 2399, "pitch": 70, "duration": 1, "velocity": 97}, {"time": 2402, "pitch": 62, "duration": 4, "velocity": 127}, {"time": 2402, "pitch": 67, "duration": 4, "velocity": 127}, {"time": 2402, "pitch": 70, "duration": 5, "velocity": 127}, {"time": 2405, "pitch": 50, "duration": 2, "velocity": 90}, {"time": 2408, "pitch": 67, "duration": 4, "velocity": 127}, {"time": 2408, "pitch": 70, "duration": 3, "velocity": 127}, {"time": 2411, "pitch": 62, "duration": 2, "velocity": 93}, {"time": 2414, "pitch": 38, "duration": 15, "velocity": 92}, {"time": 2414, "pitch": 62, "duration": 7, "velocity": 127}, {"time": 2414, "pitch": 65, "duration": 7, "velocity": 117}, {"time": 2414, "pitch": 69, "duration": 7, "velocity": 112}, {"time": 2417, "pitch": 45, "duration": 13, "velocity": 81}, {"time": 2420, "pitch": 50, "duration": 7, "velocity": 100}, {"time": 2423, "pitch": 62, "duration": 1, "velocity": 96}, {"time": 2423, "pitch": 65, "duration": 1, "velocity": 102}, {"time": 2423, "pitch": 69, "duration": 1, "velocity": 99}, {"time": 2426, "pitch": 62, "duration": 1, "velocity": 107}, {"time": 2426, "pitch": 65, "duration": 5, "velocity": 127}, {"time": 2426, "pitch": 69, "duration": 6, "velocity": 127}, {"time": 2429, "pitch": 50, "duration": 2, "velocity": 122}, {"time": 2432, "pitch": 62, "duration": 1, "velocity": 117}, {"time": 2438, "pitch": 39, "duration": 17, "velocity": 100}, {"time": 2438, "pitch": 63, "duration": 7, "velocity": 127}, {"time": 2438, "pitch": 67, "duration": 7, "velocity": 127}, {"time": 2438, "pitch": 70, "duration": 7, "velocity": 127}, {"time": 2441, "pitch": 46, "duration": 13, "velocity": 54}, {"time": 2444, "pitch": 51, "duration": 7, "velocity": 107}, {"time": 2447, "pitch": 63, "duration": 1, "velocity": 96}, {"time": 2447, "pitch": 67, "duration": 1, "velocity": 100}, {"time": 2447, "pitch": 70, "duration": 1, "velocity": 95}, {"time": 2450, "pitch": 63, "duration": 5, "velocity": 127}, {"time": 2450, "pitch": 67, "duration": 4, "velocity": 127}, {"time": 2450, "pitch": 70, "duration": 6, "velocity": 127}, {"time": 2453, "pitch": 51, "duration": 3, "velocity": 112}, {"time": 2456, "pitch": 67, "duration": 1, "velocity": 99}, {"time": 2462, "pitch": 46, "duration": 16, "velocity": 117}, {"time": 2462, "pitch": 65, "duration": 7, "velocity": 117}, {"time": 2462, "pitch": 70, "duration": 7, "velocity": 127}, {"time": 2462, "pitch": 74, "duration": 7, "velocity": 102}, {"time": 2468, "pitch": 58, "duration": 7, "velocity": 112}, {"time": 2471, "pitch": 65, "duration": 1, "velocity": 79}, {"time": 2471, "pitch": 70, "duration": 1, "velocity": 82}, {"time": 2471, "pitch": 74, "duration": 1, "velocity": 63}, {"time": 2474, "pitch": 65, "duration": 1, "velocity": 107}, {"time": 2474, "pitch": 70, "duration": 6, "velocity": 127}, {"time": 2474, "pitch": 74, "duration": 6, "velocity": 127}, {"time": 2477, "pitch": 58, "duration": 1, "velocity": 122}, {"time": 2480, "pitch": 65, "duration": 1, "velocity": 127}, {"time": 2486, "pitch": 36, "duration": 16, "velocity": 96}, {"time": 2486, "pitch": 60, "duration": 7, "velocity": 127}, {"time": 2486, "pitch": 63, "duration": 7, "velocity": 127}, {"time": 2486, "pitch": 67, "duration": 8, "velocity": 127}, {"time": 2492, "pitch": 43, "duration": 11, "velocity": 60}, {"time": 2495, "pitch": 48, "duration": 2, "velocity": 34}, {"time": 2495, "pitch": 60, "duration": 1, "velocity": 77}, {"time": 2495, "pitch": 63, "duration": 1, "velocity": 96}, {"time": 2495, "pitch": 67, "duration": 1, "velocity": 74}, {"time": 2498, "pitch": 60, "duration": 3, "velocity": 122}, {"time": 2498, "pitch": 63, "duration": 5, "velocity": 127}, {"time": 2498, "pitch": 67, "duration": 8, "velocity": 102}, {"time": 2501, "pitch": 48, "duration": 3, "velocity": 112}, {"time": 2504, "pitch": 60, "duration": 2, "velocity": 112}, {"time": 2507, "pitch": 60, "duration": 1, "velocity": 53}, {"time": 2507, "pitch": 63, "duration": 1, "velocity": 122}, {"time": 2510, "pitch": 41, "duration": 17, "velocity": 96}, {"time": 2510, "pitch": 60, "duration": 7, "velocity": 117}, {"time": 2510, "pitch": 65, "duration": 7, "velocity": 117}, {"time": 2510, "pitch": 69, "duration": 7, "velocity": 117}, {"time": 2513, "pitch": 48, "duration": 14, "velocity": 96}, {"time": 2516, "pitch": 53, "duration": 8, "velocity": 117}, {"time": 2519, "pitch": 60, "duration": 1, "velocity": 97}, {"time": 2519, "pitch": 65, "duration": 1, "velocity": 100}, {"time": 2519, "pitch": 69, "duration": 1, "velocity": 97}, {"time": 2522, "pitch": 60, "duration": 5, "velocity": 127}, {"time": 2522, "pitch": 65, "duration": 4, "velocity": 127}, {"time": 2522, "pitch": 69, "duration": 4, "velocity": 122}, {"time": 2525, "pitch": 53, "duration": 3, "velocity": 117}, {"time": 2528, "pitch": 60, "duration": 1, "velocity": 43}, {"time": 2528, "pitch": 65, "duration": 1, "velocity": 127}, {"time": 2528, "pitch": 69, "duration": 1, "velocity": 117}, {"time": 2534, "pitch": 46, "duration": 16, "velocity": 127}, {"time": 2534, "pitch": 65, "duration": 4, "velocity": 107}, {"time": 2534, "pitch": 70, "duration": 7, "velocity": 122}, {"time": 2534, "pitch": 74, "duration": 7, "velocity": 97}, {"time": 2537, "pitch": 58, "duration": 10, "velocity": 100}, {"time": 2540, "pitch": 65, "duration": 4, "velocity": 74}, {"time": 2543, "pitch": 70, "duration": 1, "velocity": 85}, {"time": 2543, "pitch": 74, "duration": 1, "velocity": 75}, {"time": 2546, "pitch": 65, "duration": 3, "velocity": 112}, {"time": 2546, "pitch": 70, "duration": 6, "velocity": 127}, {"time": 2546, "pitch": 74, "duration": 6, "velocity": 102}, {"time": 2549, "pitch": 53, "duration": 1, "velocity": 42}, {"time": 2549, "pitch": 58, "duration": 2, "velocity": 122}, {"time": 2552, "pitch": 65, "duration": 1, "velocity": 112}, {"time": 2558, "pitch": 41, "duration": 18, "velocity": 82}, {"time": 2558, "pitch": 65, "duration": 1, "velocity": 107}, {"time": 2558, "pitch": 69, "duration": 1, "velocity": 112}, {"time": 2558, "pitch": 72, "duration": 1, "velocity": 102}, {"time": 2561, "pitch": 48, "duration": 15, "velocity": 73}, {"time": 2564, "pitch": 53, "duration": 8, "velocity": 95}, {"time": 2567, "pitch": 60, "duration": 1, "velocity": 68}, {"time": 2567, "pitch": 65, "duration": 1, "velocity": 66}, {"time": 2567, "pitch": 69, "duration": 1, "velocity": 56}, {"time": 2570, "pitch": 60, "duration": 4, "velocity": 117}, {"time": 2570, "pitch": 65, "duration": 6, "velocity": 122}, {"time": 2570, "pitch": 69, "duration": 6, "velocity": 107}, {"time": 2573, "pitch": 53, "duration": 3, "velocity": 107}, {"time": 2576, "pitch": 60, "duration": 1, "velocity": 127}, {"time": 2582, "pitch": 43, "duration": 20, "velocity": 95}, {"time": 2582, "pitch": 62, "duration": 7, "velocity": 127}, {"time": 2582, "pitch": 67, "duration": 8, "velocity": 127}, {"time": 2582, "pitch": 70, "duration": 8, "velocity": 127}, {"time": 2585, "pitch": 50, "duration": 16, "velocity": 88}, {"time": 2588, "pitch": 55, "duration": 8, "velocity": 107}, {"time": 2591, "pitch": 62, "duration": 2, "velocity": 93}, {"time": 2591, "pitch": 67, "duration": 2, "velocity": 90}, {"time": 2591, "pitch": 70, "duration": 1, "velocity": 95}, {"time": 2594, "pitch": 62, "duration": 5, "velocity": 117}, {"time": 2594, "pitch": 67, "duration": 5, "velocity": 127}, {"time": 2594, "pitch": 70, "duration": 5, "velocity": 127}, {"time": 2597, "pitch": 55, "duration": 3, "velocity": 107}, {"time": 2600, "pitch": 62, "duration": 4, "velocity": 92}, {"time": 2600, "pitch": 67, "duration": 3, "velocity": 117}, {"time": 2600, "pitch": 70, "duration": 2, "velocity": 127}, {"time": 2603, "pitch": 65, "duration": 1, "velocity": 48}, {"time": 2606, "pitch": 38, "duration": 16, "velocity": 96}, {"time": 2606, "pitch": 62, "duration": 7, "velocity": 117}, {"time": 2606, "pitch": 65, "duration": 7, "velocity": 117}, {"time": 2606, "pitch": 69, "duration": 8, "velocity": 112}, {"time": 2609, "pitch": 45, "duration": 13, "velocity": 60}, {"time": 2612, "pitch": 50, "duration": 7, "velocity": 99}, {"time": 2615, "pitch": 65, "duration": 2, "velocity": 92}, {"time": 2615, "pitch": 69, "duration": 2, "velocity": 89}, {"time": 2618, "pitch": 65, "duration": 6, "velocity": 127}, {"time": 2618, "pitch": 69, "duration": 6, "velocity": 127}, {"time": 2621, "pitch": 50, "duration": 2, "velocity": 112}, {"time": 2624, "pitch": 62, "duration": 1, "velocity": 127}, {"time": 2630, "pitch": 39, "duration": 16, "velocity": 117}, {"time": 2630, "pitch": 63, "duration": 8, "velocity": 127}, {"time": 2630, "pitch": 67, "duration": 7, "velocity": 127}, {"time": 2630, "pitch": 70, "duration": 8, "velocity": 122}, {"time": 2636, "pitch": 51, "duration": 7, "velocity": 59}, {"time": 2639, "pitch": 63, "duration": 1, "velocity": 95}, {"time": 2639, "pitch": 67, "duration": 1, "velocity": 90}, {"time": 2639, "pitch": 70, "duration": 1, "velocity": 85}, {"time": 2642, "pitch": 63, "duration": 3, "velocity": 127}, {"time": 2642, "pitch": 67, "duration": 4, "velocity": 127}, {"time": 2642, "pitch": 70, "duration": 6, "velocity": 127}, {"time": 2645, "pitch": 51, "duration": 2, "velocity": 100}, {"time": 2648, "pitch": 63, "duration": 1, "velocity": 127}, {"time": 2654, "pitch": 46, "duration": 17, "velocity": 122}, {"time": 2654, "pitch": 65, "duration": 7, "velocity": 102}, {"time": 2654, "pitch": 70, "duration": 7, "velocity": 127}, {"time": 2654, "pitch": 74, "duration": 7, "velocity": 99}, {"time": 2660, "pitch": 58, "duration": 7, "velocity": 102}, {"time": 2663, "pitch": 65, "duration": 1, "velocity": 70}, {"time": 2663, "pitch": 70, "duration": 1, "velocity": 112}, {"time": 2663, "pitch": 74, "duration": 1, "velocity": 93}, {"time": 2666, "pitch": 65, "duration": 3, "velocity": 117}, {"time": 2666, "pitch": 70, "duration": 5, "velocity": 127}, {"time": 2666, "pitch": 74, "duration": 5, "velocity": 127}, {"time": 2669, "pitch": 58, "duration": 2, "velocity": 112}, {"time": 2672, "pitch": 65, "duration": 1, "velocity": 127}, {"time": 2678, "pitch": 36, "duration": 17, "velocity": 88}, {"time": 2678, "pitch": 60, "duration": 8, "velocity": 112}, {"time": 2678, "pitch": 63, "duration": 8, "velocity": 127}, {"time": 2678, "pitch": 67, "duration": 8, "velocity": 107}, {"time": 2681, "pitch": 43, "duration": 14, "velocity": 83}, {"time": 2684, "pitch": 48, "duration": 7, "velocity": 102}, {"time": 2687, "pitch": 60, "duration": 1, "velocity": 88}, {"time": 2687, "pitch": 63, "duration": 1, "velocity": 102}, {"time": 2687, "pitch": 67, "duration": 1, "velocity": 82}, {"time": 2690, "pitch": 60, "duration": 3, "velocity": 107}, {"time": 2690, "pitch": 63, "duration": 6, "velocity": 127}, {"time": 2690, "pitch": 67, "duration": 8, "velocity": 117}, {"time": 2693, "pitch": 48, "duration": 4, "velocity": 102}, {"time": 2696, "pitch": 60, "duration": 4, "velocity": 112}, {"time": 2699, "pitch": 63, "duration": 1, "velocity": 117}, {"time": 2702, "pitch": 41, "duration": 16, "velocity": 92}, {"time": 2702, "pitch": 60, "duration": 8, "velocity": 112}, {"time": 2702, "pitch": 65, "duration": 5, "velocity": 112}, {"time": 2702, "pitch": 69, "duration": 8, "velocity": 100}, {"time": 2705, "pitch": 48, "duration": 14, "velocity": 85}, {"time": 2708, "pitch": 53, "duration": 7, "velocity": 100}, {"time": 2711, "pitch": 60, "duration": 1, "velocity": 66}, {"time": 2711, "pitch": 65, "duration": 1, "velocity": 70}, {"time": 2711, "pitch": 69, "duration": 1, "velocity": 57}, {"time": 2714, "pitch": 60, "duration": 6, "velocity": 127}, {"time": 2714, "pitch": 65, "duration": 4, "velocity": 127}, {"time": 2714, "pitch": 69, "duration": 7, "velocity": 107}, {"time": 2717, "pitch": 53, "duration": 3, "velocity": 107}, {"time": 2720, "pitch": 65, "duration": 1, "velocity": 102}, {"time": 2726, "pitch": 46, "duration": 22, "velocity": 112}, {"time": 2726, "pitch": 65, "duration": 10, "velocity": 112}, {"time": 2726, "pitch": 70, "duration": 10, "velocity": 127}, {"time": 2726, "pitch": 74, "duration": 8, "velocity": 100}, {"time": 2732, "pitch": 58, "duration": 7, "velocity": 89}, {"time": 2738, "pitch": 65, "duration": 1, "velocity": 74}, {"time": 2738, "pitch": 70, "duration": 7, "velocity": 127}, {"time": 2738, "pitch": 74, "duration": 8, "velocity": 102}, {"time": 2741, "pitch": 58, "duration": 8, "velocity": 99}, {"time": 2744, "pitch": 65, "duration": 6, "velocity": 97}, {"time": 2750, "pitch": 46, "duration": 4, "velocity": 102}, {"time": 2753, "pitch": 58, "duration": 4, "velocity": 72}, {"time": 2753, "pitch": 70, "duration": 4, "velocity": 72}, {"time": 2756, "pitch": 57, "duration": 3, "velocity": 65}, {"time": 2756, "pitch": 69, "duration": 3, "velocity": 65}, {"time": 2759, "pitch": 53, "duration": 3, "velocity": 62}, {"time": 2759, "pitch": 65, "duration": 3, "velocity": 62}, {"time": 2762, "pitch": 46, "duration": 3, "velocity": 75}, {"time": 2762, "pitch": 58, "duration": 3, "velocity": 75}, {"time": 2765, "pitch": 45, "duration": 1, "velocity": 93}, {"time": 2765, "pitch": 57, "duration": 1, "velocity": 93}, {"time": 2768, "pitch": 41, "duration": 1, "velocity": 79}, {"time": 2768, "pitch": 53, "duration": 1, "velocity": 79}, {"time": 2770, "pitch": 38, "duration": 3, "velocity": 93}, {"time": 2770, "pitch": 50, "duration": 3, "velocity": 93}, {"time": 2774, "pitch": 39, "duration": 18, "velocity": 83}, {"time": 2774, "pitch": 46, "duration": 18, "velocity": 72}, {"time": 2774, "pitch": 55, "duration": 18, "velocity": 84}, {"time": 2774, "pitch": 58, "duration": 18, "velocity": 91}, {"time": 2774, "pitch": 63, "duration": 18, "velocity": 91}, {"time": 2777, "pitch": 51, "duration": 17, "velocity": 91}, {"time": 2798, "pitch": 46, "duration": 19, "velocity": 89}, {"time": 2798, "pitch": 62, "duration": 20, "velocity": 89}, {"time": 2798, "pitch": 65, "duration": 19, "velocity": 89}, {"time": 2798, "pitch": 70, "duration": 19, "velocity": 89}, {"time": 2804, "pitch": 53, "duration": 17, "velocity": 87}, {"time": 2804, "pitch": 58, "duration": 13, "velocity": 87}, {"time": 2819, "pitch": 63, "duration": 1, "velocity": 85}, {"time": 2819, "pitch": 67, "duration": 1, "velocity": 85}, {"time": 2822, "pitch": 48, "duration": 20, "velocity": 85}, {"time": 2822, "pitch": 63, "duration": 18, "velocity": 85}, {"time": 2822, "pitch": 67, "duration": 18, "velocity": 85}, {"time": 2822, "pitch": 72, "duration": 17, "velocity": 85}, {"time": 2828, "pitch": 55, "duration": 12, "velocity": 84}, {"time": 2834, "pitch": 60, "duration": 6, "velocity": 83}, {"time": 2840, "pitch": 63, "duration": 2, "velocity": 83}, {"time": 2840, "pitch": 67, "duration": 1, "velocity": 83}, {"time": 2840, "pitch": 72, "duration": 1, "velocity": 83}, {"time": 2846, "pitch": 41, "duration": 47, "velocity": 81}, {"time": 2846, "pitch": 57, "duration": 11, "velocity": 81}, {"time": 2846, "pitch": 60, "duration": 11, "velocity": 81}, {"time": 2846, "pitch": 65, "duration": 11, "velocity": 81}, {"time": 2852, "pitch": 48, "duration": 41, "velocity": 80}, {"time": 2858, "pitch": 57, "duration": 35, "velocity": 79}, {"time": 2858, "pitch": 60, "duration": 34, "velocity": 79}, {"time": 2858, "pitch": 65, "duration": 34, "velocity": 79}, {"time": 2893, "pitch": 67, "duration": 18, "velocity": 60}, {"time": 2894, "pitch": 70, "duration": 17, "velocity": 66}, {"time": 2894, "pitch": 75, "duration": 17, "velocity": 62}, {"time": 2894, "pitch": 63, "duration": 18, "velocity": 74}, {"time": 2917, "pitch": 65, "duration": 7, "velocity": 58}, {"time": 2917, "pitch": 70, "duration": 8, "velocity": 69}, {"time": 2918, "pitch": 58, "duration": 8, "velocity": 71}, {"time": 2918, "pitch": 74, "duration": 8, "velocity": 77}, {"time": 2930, "pitch": 65, "duration": 4, "velocity": 84}, {"time": 2933, "pitch": 70, "duration": 3, "velocity": 63}, {"time": 2936, "pitch": 72, "duration": 3, "velocity": 66}, {"time": 2939, "pitch": 74, "duration": 3, "velocity": 67}, {"time": 2942, "pitch": 39, "duration": 9, "velocity": 72}, {"time": 2942, "pitch": 51, "duration": 8, "velocity": 69}, {"time": 2942, "pitch": 72, "duration": 6, "velocity": 84}, {"time": 2951, "pitch": 38, "duration": 10, "velocity": 75}, {"time": 2951, "pitch": 50, "duration": 9, "velocity": 66}, {"time": 2951, "pitch": 69, "duration": 6, "velocity": 91}, {"time": 2960, "pitch": 36, "duration": 5, "velocity": 60}, {"time": 2960, "pitch": 48, "duration": 4, "velocity": 73}, {"time": 2960, "pitch": 67, "duration": 4, "velocity": 93}, {"time": 2966, "pitch": 41, "duration": 44, "velocity": 57}, {"time": 2966, "pitch": 53, "duration": 43, "velocity": 50}, {"time": 2966, "pitch": 57, "duration": 43, "velocity": 64}, {"time": 2966, "pitch": 60, "duration": 43, "velocity": 66}, {"time": 2966, "pitch": 65, "duration": 36, "velocity": 93}, {"time": 3011, "pitch": 62, "duration": 62, "velocity": 38}, {"time": 3011, "pitch": 65, "duration": 62, "velocity": 63}, {"time": 3012, "pitch": 46, "duration": 60, "velocity": 57}, {"time": 3013, "pitch": 69, "duration": 60, "velocity": 12}, {"time": 3014, "pitch": 53, "duration": 59, "velocity": 67}, {"time": 3017, "pitch": 58, "duration": 55, "velocity": 43}, {"time": 3083, "pitch": 89, "duration": 3, "velocity": 50}, {"time": 3086, "pitch": 93, "duration": 18, "velocity": 60}], "annotations": [{"time": 14, "annotation": {"number": 64, "value": 70}, "group": "control_change"}, {"time": 26, "annotation": {"number": 64, "value": 72}, "group": "control_change"}, {"time": 662, "annotation": {"number": 64, "value": 15}, "group": "control_change"}, {"time": 674, "annotation": {"number": 64, "value": 65}, "group": "control_change"}, {"time": 686, "annotation": {"number": 64, "value": 127}, "group": "control_change"}, {"time": 709, "annotation": {"number": 64, "value": 0}, "group": "control_change"}, {"time": 710, "annotation": {"number": 64, "value": 127}, "group": "control_change"}, {"time": 732, "annotation": {"number": 64, "value": 0}, "group": "control_change"}, {"time": 733, "annotation": {"number": 64, "value": 127}, "group": "control_change"}, {"time": 756, "annotation": {"number": 64, "value": 0}, "group": "control_change"}, {"time": 758, "annotation": {"number": 64, "value": 127}, "group": "control_change"}, {"time": 780, "annotation": {"number": 64, "value": 0}, "group": "control_change"}, {"time": 782, "annotation": {"number": 64, "value": 127}, "group": "control_change"}, {"time": 804, "annotation": {"number": 64, "value": 0}, "group": "control_change"}, {"time": 806, "annotation": {"number": 64, "value": 127}, "group": "control_change"}, {"time": 828, "annotation": {"number": 64, "value": 0}, "group": "control_change"}, {"time": 830, "annotation": {"number": 64, "value": 127}, "group": "control_change"}, {"time": 853, "annotation": {"number": 64, "value": 0}, "group": "control_change"}, {"time": 854, "annotation": {"number": 64, "value": 127}, "group": "control_change"}, {"time": 876, "annotation": {"number": 64, "value": 0}, "group": "control_change"}, {"time": 878, "annotation": {"number": 64, "value": 127}, "group": "control_change"}, {"time": 900, "annotation": {"number": 64, "value": 0}, "group": "control_change"}, {"time": 902, "annotation": {"number": 64, "value": 127}, "group": "control_change"}, {"time": 923, "annotation": {"number": 64, "value": 0}, "group": "control_change"}, {"time": 925, "annotation": {"number": 64, "value": 127}, "group": "control_change"}, {"time": 948, "annotation": {"number": 64, "value": 0}, "group": "control_change"}, {"time": 950, "annotation": {"number": 64, "value": 127}, "group": "control_change"}, {"time": 961, "annotation": {"number": 64, "value": 0}, "group": "control_change"}, {"time": 962, "annotation": {"number": 64, "value": 127}, "group": "control_change"}, {"time": 972, "annotation": {"number": 64, "value": 0}, "group": "control_change"}, {"time": 974, "annotation": {"number": 64, "value": 127}, "group": "control_change"}, {"time": 996, "annotation": {"number": 64, "value": 0}, "group": "control_change"}, {"time": 998, "annotation": {"number": 64, "value": 127}, "group": "control_change"}, {"time": 1020, "annotation": {"number": 64, "value": 0}, "group": "control_change"}, {"time": 1023, "annotation": {"number": 64, "value": 127}, "group": "control_change"}, {"time": 1045, "annotation": {"number": 64, "value": 0}, "group": "control_change"}, {"time": 1910, "annotation": {"number": 64, "value": 127}, "group": "control_change"}, {"time": 1933, "annotation": {"number": 64, "value": 0}, "group": "control_change"}, {"time": 1934, "annotation": {"number": 64, "value": 127}, "group": "control_change"}, {"time": 1956, "annotation": {"number": 64, "value": 0}, "group": "control_change"}, {"time": 1957, "annotation": {"number": 64, "value": 127}, "group": "control_change"}, {"time": 1980, "annotation": {"number": 64, "value": 0}, "group": "control_change"}, {"time": 1982, "annotation": {"number": 64, "value": 127}, "group": "control_change"}, {"time": 2004, "annotation": {"number": 64, "value": 0}, "group": "control_change"}, {"time": 2006, "annotation": {"number": 64, "value": 127}, "group": "control_change"}, {"time": 2028, "annotation": {"number": 64, "value": 0}, "group": "control_change"}, {"time": 2030, "annotation": {"number": 64, "value": 127}, "group": "control_change"}, {"time": 2052, "annotation": {"number": 64, "value": 0}, "group": "control_change"}, {"time": 2054, "annotation": {"number": 64, "value": 127}, "group": "control_change"}, {"time": 2077, "annotation": {"number": 64, "value": 0}, "group": "control_change"}, {"time": 2078, "annotation": {"number": 64, "value": 127}, "group": "control_change"}, {"time": 2100, "annotation": {"number": 64, "value": 0}, "group": "control_change"}, {"time": 2102, "annotation": {"number": 64, "value": 127}, "group": "control_change"}, {"time": 2124, "annotation": {"number": 64, "value": 0}, "group": "control_change"}, {"time": 2126, "annotation": {"number": 64, "value": 127}, "group": "control_change"}, {"time": 2147, "annotation": {"number": 64, "value": 0}, "group": "control_change"}, {"time": 2149, "annotation": {"number": 64, "value": 127}, "group": "control_change"}, {"time": 2172, "annotation": {"number": 64, "value": 0}, "group": "control_change"}, {"time": 2174, "annotation": {"number": 64, "value": 127}, "group": "control_change"}, {"time": 2185, "annotation": {"number": 64, "value": 0}, "group": "control_change"}, {"time": 2186, "annotation": {"number": 64, "value": 127}, "group": "control_change"}, {"time": 2196, "annotation": {"number": 64, "value": 0}, "group": "control_change"}, {"time": 2198, "annotation": {"number": 64, "value": 127}, "group": "control_change"}, {"time": 2220, "annotation": {"number": 64, "value": 0}, "group": "control_change"}, {"time": 2222, "annotation": {"number": 64, "value": 127}, "group": "control_change"}, {"time": 2244, "annotation": {"number": 64, "value": 0}, "group": "control_change"}, {"time": 2247, "annotation": {"number": 64, "value": 127}, "group": "control_change"}, {"time": 2269, "annotation": {"number": 64, "value": 0}, "group": "control_change"}, {"time": 2318, "annotation": {"number": 64, "value": 12}, "group": "control_change"}, {"time": 2330, "annotation": {"number": 64, "value": 14}, "group": "control_change"}, {"time": 2342, "annotation": {"number": 64, "value": 16}, "group": "control_change"}, {"time": 2354, "annotation": {"number": 64, "value": 17}, "group": "control_change"}, {"time": 2366, "annotation": {"number": 64, "value": 20}, "group": "control_change"}, {"time": 2378, "annotation": {"number": 64, "value": 21}, "group": "control_change"}, {"time": 2390, "annotation": {"number": 64, "value": 127}, "group": "control_change"}, {"time": 2412, "annotation": {"number": 64, "value": 0}, "group": "control_change"}, {"time": 2413, "annotation": {"number": 64, "value": 127}, "group": "control_change"}, {"time": 2436, "annotation": {"number": 64, "value": 0}, "group": "control_change"}, {"time": 2437, "annotation": {"number": 64, "value": 127}, "group": "control_change"}, {"time": 2460, "annotation": {"number": 64, "value": 0}, "group": "control_change"}, {"time": 2462, "annotation": {"number": 64, "value": 127}, "group": "control_change"}, {"time": 2484, "annotation": {"number": 64, "value": 0}, "group": "control_change"}, {"time": 2486, "annotation": {"number": 64, "value": 127}, "group": "control_change"}, {"time": 2508, "annotation": {"number": 64, "value": 0}, "group": "control_change"}, {"time": 2510, "annotation": {"number": 64, "value": 127}, "group": "control_change"}, {"time": 2532, "annotation": {"number": 64, "value": 0}, "group": "control_change"}, {"time": 2534, "annotation": {"number": 64, "value": 127}, "group": "control_change"}, {"time": 2556, "annotation": {"number": 64, "value": 0}, "group": "control_change"}, {"time": 2557, "annotation": {"number": 64, "value": 127}, "group": "control_change"}, {"time": 2580, "annotation": {"number": 64, "value": 0}, "group": "control_change"}, {"time": 2582, "annotation": {"number": 64, "value": 127}, "group": "control_change"}, {"time": 2604, "annotation": {"number": 64, "value": 0}, "group": "control_change"}, {"time": 2606, "annotation": {"number": 64, "value": 127}, "group": "control_change"}, {"time": 2628, "annotation": {"number": 64, "value": 0}, "group": "control_change"}, {"time": 2630, "annotation": {"number": 64, "value": 127}, "group": "control_change"}, {"time": 2652, "annotation": {"number": 64, "value": 0}, "group": "control_change"}, {"time": 2654, "annotation": {"number": 64, "value": 127}, "group": "control_change"}, {"time": 2676, "annotation": {"number": 64, "value": 0}, "group": "control_change"}, {"time": 2678, "annotation": {"number": 64, "value": 127}, "group": "control_change"}, {"time": 2699, "annotation": {"number": 64, "value": 0}, "group": "control_change"}, {"time": 2702, "annotation": {"number": 64, "value": 127}, "group": "control_change"}, {"time": 2724, "annotation": {"number": 64, "value": 0}, "group": "control_change"}, {"time": 2726, "annotation": {"number": 64, "value": 127}, "group": "control_change"}, {"time": 2749, "annotation": {"number": 64, "value": 0}, "group": "control_change"}]}]}