{"metadata": {"schema_version": "0.2", "title": "None", "source_filename": "076.mid", "source_format": "midi"}, "resolution": 12, "tempos": [{"time": 0, "qpm": 96.0}], "time_signatures": [{"time": 0, "numerator": 1, "denominator": 4}], "tracks": [{"program": 4, "is_drum": false, "name": "MELODY", "notes": [{"time": 623, "pitch": 71, "duration": 5, "velocity": 108}, {"time": 629, "pitch": 69, "duration": 3, "velocity": 63}, {"time": 635, "pitch": 71, "duration": 27, "velocity": 95}, {"time": 665, "pitch": 69, "duration": 3, "velocity": 70}, {"time": 671, "pitch": 71, "duration": 3, "velocity": 93}, {"time": 677, "pitch": 69, "duration": 3, "velocity": 67}, {"time": 683, "pitch": 67, "duration": 29, "velocity": 86}, {"time": 719, "pitch": 64, "duration": 6, "velocity": 85}, {"time": 725, "pitch": 67, "duration": 7, "velocity": 71}, {"time": 731, "pitch": 69, "duration": 13, "velocity": 74}, {"time": 743, "pitch": 71, "duration": 9, "velocity": 111}, {"time": 755, "pitch": 69, "duration": 6, "velocity": 86}, {"time": 761, "pitch": 67, "duration": 3, "velocity": 83}, {"time": 767, "pitch": 64, "duration": 5, "velocity": 73}, {"time": 773, "pitch": 67, "duration": 4, "velocity": 76}, {"time": 779, "pitch": 62, "duration": 12, "velocity": 76}, {"time": 815, "pitch": 71, "duration": 6, "velocity": 100}, {"time": 821, "pitch": 69, "duration": 4, "velocity": 73}, {"time": 827, "pitch": 71, "duration": 26, "velocity": 98}, {"time": 857, "pitch": 69, "duration": 3, "velocity": 79}, {"time": 863, "pitch": 71, "duration": 3, "velocity": 93}, {"time": 869, "pitch": 69, "duration": 3, "velocity": 75}, {"time": 875, "pitch": 67, "duration": 31, "velocity": 81}, {"time": 911, "pitch": 64, "duration": 6, "velocity": 86}, {"time": 917, "pitch": 67, "duration": 8, "velocity": 69}, {"time": 923, "pitch": 69, "duration": 12, "velocity": 67}, {"time": 935, "pitch": 71, "duration": 10, "velocity": 98}, {"time": 947, "pitch": 69, "duration": 6, "velocity": 76}, {"time": 953, "pitch": 67, "duration": 4, "velocity": 90}, {"time": 959, "pitch": 64, "duration": 4, "velocity": 69}, {"time": 965, "pitch": 67, "duration": 5, "velocity": 68}, {"time": 971, "pitch": 69, "duration": 21, "velocity": 74}, {"time": 1007, "pitch": 71, "duration": 5, "velocity": 108}, {"time": 1013, "pitch": 69, "duration": 3, "velocity": 63}, {"time": 1019, "pitch": 71, "duration": 27, "velocity": 95}, {"time": 1049, "pitch": 69, "duration": 3, "velocity": 70}, {"time": 1055, "pitch": 71, "duration": 3, "velocity": 93}, {"time": 1061, "pitch": 69, "duration": 3, "velocity": 67}, {"time": 1067, "pitch": 67, "duration": 29, "velocity": 86}, {"time": 1103, "pitch": 64, "duration": 6, "velocity": 85}, {"time": 1109, "pitch": 67, "duration": 6, "velocity": 71}, {"time": 1115, "pitch": 69, "duration": 13, "velocity": 74}, {"time": 1127, "pitch": 71, "duration": 9, "velocity": 111}, {"time": 1139, "pitch": 69, "duration": 6, "velocity": 86}, {"time": 1145, "pitch": 67, "duration": 3, "velocity": 83}, {"time": 1151, "pitch": 64, "duration": 5, "velocity": 73}, {"time": 1157, "pitch": 67, "duration": 4, "velocity": 76}, {"time": 1163, "pitch": 62, "duration": 12, "velocity": 76}, {"time": 1199, "pitch": 71, "duration": 6, "velocity": 100}, {"time": 1205, "pitch": 74, "duration": 4, "velocity": 73}, {"time": 1211, "pitch": 74, "duration": 26, "velocity": 98}, {"time": 1241, "pitch": 74, "duration": 2, "velocity": 127}, {"time": 1247, "pitch": 76, "duration": 3, "velocity": 127}, {"time": 1253, "pitch": 74, "duration": 2, "velocity": 122}, {"time": 1259, "pitch": 71, "duration": 2, "velocity": 122}, {"time": 1262, "pitch": 69, "duration": 3, "velocity": 90}, {"time": 1265, "pitch": 71, "duration": 21, "velocity": 102}, {"time": 1295, "pitch": 69, "duration": 3, "velocity": 79}, {"time": 1301, "pitch": 69, "duration": 3, "velocity": 79}, {"time": 1307, "pitch": 69, "duration": 9, "velocity": 100}, {"time": 1319, "pitch": 71, "duration": 8, "velocity": 100}, {"time": 1331, "pitch": 69, "duration": 7, "velocity": 104}, {"time": 1337, "pitch": 67, "duration": 7, "velocity": 79}, {"time": 1343, "pitch": 64, "duration": 8, "velocity": 74}, {"time": 1349, "pitch": 67, "duration": 4, "velocity": 85}, {"time": 1361, "pitch": 67, "duration": 47, "velocity": 98}, {"time": 1433, "pitch": 74, "duration": 3, "velocity": 76}, {"time": 1439, "pitch": 74, "duration": 3, "velocity": 83}, {"time": 1445, "pitch": 76, "duration": 3, "velocity": 83}, {"time": 1451, "pitch": 79, "duration": 4, "velocity": 112}, {"time": 1457, "pitch": 78, "duration": 2, "velocity": 111}, {"time": 1463, "pitch": 78, "duration": 3, "velocity": 98}, {"time": 1469, "pitch": 76, "duration": 3, "velocity": 86}, {"time": 1475, "pitch": 71, "duration": 6, "velocity": 74}, {"time": 1487, "pitch": 69, "duration": 3, "velocity": 80}, {"time": 1496, "pitch": 71, "duration": 6, "velocity": 86}, {"time": 1506, "pitch": 71, "duration": 11, "velocity": 86}, {"time": 1529, "pitch": 71, "duration": 3, "velocity": 87}, {"time": 1535, "pitch": 71, "duration": 3, "velocity": 81}, {"time": 1541, "pitch": 74, "duration": 3, "velocity": 76}, {"time": 1547, "pitch": 76, "duration": 11, "velocity": 108}, {"time": 1559, "pitch": 76, "duration": 13, "velocity": 87}, {"time": 1577, "pitch": 64, "duration": 5, "velocity": 67}, {"time": 1583, "pitch": 71, "duration": 6, "velocity": 90}, {"time": 1589, "pitch": 69, "duration": 38, "velocity": 75}, {"time": 1631, "pitch": 71, "duration": 4, "velocity": 87}, {"time": 1637, "pitch": 74, "duration": 3, "velocity": 85}, {"time": 1643, "pitch": 74, "duration": 3, "velocity": 98}, {"time": 1649, "pitch": 71, "duration": 3, "velocity": 98}, {"time": 1655, "pitch": 74, "duration": 17, "velocity": 108}, {"time": 1673, "pitch": 79, "duration": 10, "velocity": 108}, {"time": 1685, "pitch": 78, "duration": 5, "velocity": 95}, {"time": 1691, "pitch": 76, "duration": 3, "velocity": 79}, {"time": 1697, "pitch": 78, "duration": 6, "velocity": 81}, {"time": 1703, "pitch": 71, "duration": 18, "velocity": 93}, {"time": 1721, "pitch": 76, "duration": 3, "velocity": 77}, {"time": 1727, "pitch": 76, "duration": 3, "velocity": 77}, {"time": 1733, "pitch": 78, "duration": 3, "velocity": 95}, {"time": 1739, "pitch": 76, "duration": 8, "velocity": 79}, {"time": 1745, "pitch": 74, "duration": 6, "velocity": 74}, {"time": 1751, "pitch": 71, "duration": 5, "velocity": 73}, {"time": 1757, "pitch": 69, "duration": 10, "velocity": 86}, {"time": 1769, "pitch": 69, "duration": 7, "velocity": 77}, {"time": 1781, "pitch": 71, "duration": 3, "velocity": 79}, {"time": 1787, "pitch": 74, "duration": 24, "velocity": 93}, {"time": 1817, "pitch": 74, "duration": 3, "velocity": 76}, {"time": 1823, "pitch": 74, "duration": 3, "velocity": 83}, {"time": 1829, "pitch": 76, "duration": 3, "velocity": 83}, {"time": 1835, "pitch": 79, "duration": 4, "velocity": 112}, {"time": 1841, "pitch": 78, "duration": 2, "velocity": 111}, {"time": 1847, "pitch": 78, "duration": 3, "velocity": 98}, {"time": 1853, "pitch": 76, "duration": 3, "velocity": 86}, {"time": 1859, "pitch": 71, "duration": 6, "velocity": 74}, {"time": 1877, "pitch": 71, "duration": 33, "velocity": 93}, {"time": 1913, "pitch": 71, "duration": 3, "velocity": 87}, {"time": 1919, "pitch": 71, "duration": 3, "velocity": 81}, {"time": 1925, "pitch": 74, "duration": 3, "velocity": 76}, {"time": 1931, "pitch": 76, "duration": 11, "velocity": 108}, {"time": 1943, "pitch": 76, "duration": 13, "velocity": 87}, {"time": 1961, "pitch": 64, "duration": 5, "velocity": 67}, {"time": 1967, "pitch": 71, "duration": 9, "velocity": 90}, {"time": 1979, "pitch": 69, "duration": 32, "velocity": 75}, {"time": 2015, "pitch": 71, "duration": 4, "velocity": 87}, {"time": 2021, "pitch": 74, "duration": 3, "velocity": 85}, {"time": 2027, "pitch": 74, "duration": 3, "velocity": 98}, {"time": 2033, "pitch": 71, "duration": 3, "velocity": 98}, {"time": 2039, "pitch": 74, "duration": 17, "velocity": 108}, {"time": 2057, "pitch": 79, "duration": 10, "velocity": 108}, {"time": 2069, "pitch": 78, "duration": 5, "velocity": 95}, {"time": 2075, "pitch": 76, "duration": 3, "velocity": 79}, {"time": 2081, "pitch": 78, "duration": 6, "velocity": 81}, {"time": 2087, "pitch": 71, "duration": 18, "velocity": 93}, {"time": 2105, "pitch": 76, "duration": 3, "velocity": 77}, {"time": 2111, "pitch": 76, "duration": 3, "velocity": 77}, {"time": 2117, "pitch": 78, "duration": 3, "velocity": 95}, {"time": 2123, "pitch": 76, "duration": 8, "velocity": 79}, {"time": 2129, "pitch": 74, "duration": 6, "velocity": 74}, {"time": 2135, "pitch": 71, "duration": 5, "velocity": 73}, {"time": 2141, "pitch": 69, "duration": 10, "velocity": 86}, {"time": 2153, "pitch": 62, "duration": 7, "velocity": 75}, {"time": 2165, "pitch": 64, "duration": 3, "velocity": 74}, {"time": 2171, "pitch": 67, "duration": 50, "velocity": 87}, {"time": 2639, "pitch": 71, "duration": 5, "velocity": 108}, {"time": 2645, "pitch": 69, "duration": 3, "velocity": 63}, {"time": 2651, "pitch": 71, "duration": 27, "velocity": 95}, {"time": 2681, "pitch": 69, "duration": 3, "velocity": 70}, {"time": 2687, "pitch": 71, "duration": 3, "velocity": 93}, {"time": 2693, "pitch": 69, "duration": 3, "velocity": 67}, {"time": 2699, "pitch": 67, "duration": 29, "velocity": 86}, {"time": 2735, "pitch": 64, "duration": 6, "velocity": 85}, {"time": 2741, "pitch": 67, "duration": 7, "velocity": 71}, {"time": 2747, "pitch": 69, "duration": 13, "velocity": 74}, {"time": 2759, "pitch": 71, "duration": 9, "velocity": 111}, {"time": 2771, "pitch": 69, "duration": 6, "velocity": 86}, {"time": 2777, "pitch": 67, "duration": 3, "velocity": 83}, {"time": 2783, "pitch": 64, "duration": 5, "velocity": 73}, {"time": 2789, "pitch": 67, "duration": 4, "velocity": 76}, {"time": 2795, "pitch": 62, "duration": 12, "velocity": 76}, {"time": 2831, "pitch": 71, "duration": 6, "velocity": 100}, {"time": 2837, "pitch": 69, "duration": 4, "velocity": 73}, {"time": 2843, "pitch": 71, "duration": 26, "velocity": 98}, {"time": 2873, "pitch": 69, "duration": 3, "velocity": 79}, {"time": 2879, "pitch": 71, "duration": 3, "velocity": 93}, {"time": 2885, "pitch": 69, "duration": 3, "velocity": 75}, {"time": 2891, "pitch": 67, "duration": 31, "velocity": 81}, {"time": 2927, "pitch": 64, "duration": 6, "velocity": 86}, {"time": 2933, "pitch": 67, "duration": 8, "velocity": 69}, {"time": 2939, "pitch": 69, "duration": 12, "velocity": 67}, {"time": 2951, "pitch": 71, "duration": 10, "velocity": 98}, {"time": 2963, "pitch": 69, "duration": 6, "velocity": 76}, {"time": 2969, "pitch": 67, "duration": 4, "velocity": 90}, {"time": 2975, "pitch": 64, "duration": 4, "velocity": 69}, {"time": 2981, "pitch": 67, "duration": 5, "velocity": 68}, {"time": 2987, "pitch": 69, "duration": 21, "velocity": 74}, {"time": 3023, "pitch": 71, "duration": 5, "velocity": 108}, {"time": 3029, "pitch": 69, "duration": 3, "velocity": 63}, {"time": 3035, "pitch": 71, "duration": 27, "velocity": 95}, {"time": 3065, "pitch": 69, "duration": 3, "velocity": 70}, {"time": 3071, "pitch": 71, "duration": 3, "velocity": 93}, {"time": 3077, "pitch": 69, "duration": 3, "velocity": 67}, {"time": 3083, "pitch": 67, "duration": 29, "velocity": 86}, {"time": 3119, "pitch": 64, "duration": 6, "velocity": 85}, {"time": 3125, "pitch": 67, "duration": 7, "velocity": 71}, {"time": 3131, "pitch": 69, "duration": 13, "velocity": 74}, {"time": 3143, "pitch": 71, "duration": 9, "velocity": 111}, {"time": 3155, "pitch": 69, "duration": 6, "velocity": 86}, {"time": 3161, "pitch": 67, "duration": 3, "velocity": 83}, {"time": 3167, "pitch": 64, "duration": 5, "velocity": 73}, {"time": 3173, "pitch": 67, "duration": 4, "velocity": 76}, {"time": 3179, "pitch": 62, "duration": 12, "velocity": 76}, {"time": 3215, "pitch": 71, "duration": 3, "velocity": 127}, {"time": 3221, "pitch": 74, "duration": 2, "velocity": 100}, {"time": 3227, "pitch": 74, "duration": 4, "velocity": 127}, {"time": 3257, "pitch": 74, "duration": 2, "velocity": 117}, {"time": 3263, "pitch": 76, "duration": 3, "velocity": 117}, {"time": 3269, "pitch": 74, "duration": 2, "velocity": 102}, {"time": 3275, "pitch": 71, "duration": 2, "velocity": 117}, {"time": 3278, "pitch": 69, "duration": 3, "velocity": 89}, {"time": 3281, "pitch": 71, "duration": 17, "velocity": 100}, {"time": 3311, "pitch": 69, "duration": 3, "velocity": 79}, {"time": 3317, "pitch": 69, "duration": 3, "velocity": 79}, {"time": 3323, "pitch": 69, "duration": 9, "velocity": 100}, {"time": 3335, "pitch": 71, "duration": 8, "velocity": 100}, {"time": 3347, "pitch": 69, "duration": 7, "velocity": 104}, {"time": 3353, "pitch": 67, "duration": 7, "velocity": 79}, {"time": 3359, "pitch": 64, "duration": 8, "velocity": 74}, {"time": 3365, "pitch": 67, "duration": 4, "velocity": 85}, {"time": 3371, "pitch": 67, "duration": 53, "velocity": 98}, {"time": 3449, "pitch": 74, "duration": 3, "velocity": 76}, {"time": 3455, "pitch": 74, "duration": 3, "velocity": 83}, {"time": 3461, "pitch": 76, "duration": 3, "velocity": 83}, {"time": 3467, "pitch": 79, "duration": 4, "velocity": 112}, {"time": 3473, "pitch": 78, "duration": 2, "velocity": 111}, {"time": 3479, "pitch": 78, "duration": 3, "velocity": 98}, {"time": 3485, "pitch": 76, "duration": 3, "velocity": 86}, {"time": 3491, "pitch": 71, "duration": 6, "velocity": 74}, {"time": 3503, "pitch": 69, "duration": 3, "velocity": 66}, {"time": 3509, "pitch": 71, "duration": 33, "velocity": 93}, {"time": 3545, "pitch": 71, "duration": 3, "velocity": 87}, {"time": 3551, "pitch": 71, "duration": 3, "velocity": 81}, {"time": 3557, "pitch": 74, "duration": 3, "velocity": 76}, {"time": 3563, "pitch": 76, "duration": 11, "velocity": 108}, {"time": 3575, "pitch": 76, "duration": 13, "velocity": 87}, {"time": 3593, "pitch": 64, "duration": 5, "velocity": 67}, {"time": 3599, "pitch": 71, "duration": 6, "velocity": 90}, {"time": 3605, "pitch": 69, "duration": 38, "velocity": 75}, {"time": 3647, "pitch": 71, "duration": 4, "velocity": 87}, {"time": 3653, "pitch": 74, "duration": 3, "velocity": 85}, {"time": 3659, "pitch": 74, "duration": 3, "velocity": 98}, {"time": 3665, "pitch": 71, "duration": 3, "velocity": 98}, {"time": 3671, "pitch": 74, "duration": 17, "velocity": 108}, {"time": 3689, "pitch": 79, "duration": 10, "velocity": 108}, {"time": 3701, "pitch": 78, "duration": 5, "velocity": 95}, {"time": 3707, "pitch": 76, "duration": 3, "velocity": 79}, {"time": 3713, "pitch": 78, "duration": 6, "velocity": 81}, {"time": 3719, "pitch": 71, "duration": 18, "velocity": 93}, {"time": 3737, "pitch": 76, "duration": 3, "velocity": 77}, {"time": 3743, "pitch": 76, "duration": 3, "velocity": 77}, {"time": 3749, "pitch": 78, "duration": 3, "velocity": 95}, {"time": 3755, "pitch": 76, "duration": 8, "velocity": 79}, {"time": 3761, "pitch": 74, "duration": 6, "velocity": 74}, {"time": 3767, "pitch": 71, "duration": 5, "velocity": 73}, {"time": 3773, "pitch": 69, "duration": 10, "velocity": 86}, {"time": 3785, "pitch": 69, "duration": 7, "velocity": 77}, {"time": 3797, "pitch": 71, "duration": 3, "velocity": 79}, {"time": 3803, "pitch": 74, "duration": 24, "velocity": 93}, {"time": 3833, "pitch": 74, "duration": 3, "velocity": 76}, {"time": 3839, "pitch": 74, "duration": 3, "velocity": 83}, {"time": 3845, "pitch": 76, "duration": 3, "velocity": 83}, {"time": 3851, "pitch": 79, "duration": 4, "velocity": 112}, {"time": 3857, "pitch": 78, "duration": 2, "velocity": 111}, {"time": 3863, "pitch": 78, "duration": 3, "velocity": 98}, {"time": 3869, "pitch": 76, "duration": 3, "velocity": 86}, {"time": 3875, "pitch": 71, "duration": 6, "velocity": 74}, {"time": 3887, "pitch": 69, "duration": 3, "velocity": 66}, {"time": 3893, "pitch": 71, "duration": 33, "velocity": 93}, {"time": 3929, "pitch": 71, "duration": 3, "velocity": 87}, {"time": 3935, "pitch": 71, "duration": 3, "velocity": 81}, {"time": 3941, "pitch": 74, "duration": 3, "velocity": 76}, {"time": 3947, "pitch": 76, "duration": 11, "velocity": 108}, {"time": 3959, "pitch": 76, "duration": 13, "velocity": 87}, {"time": 3977, "pitch": 64, "duration": 5, "velocity": 67}, {"time": 3983, "pitch": 71, "duration": 9, "velocity": 90}, {"time": 3995, "pitch": 69, "duration": 32, "velocity": 75}, {"time": 4031, "pitch": 71, "duration": 4, "velocity": 87}, {"time": 4037, "pitch": 74, "duration": 3, "velocity": 85}, {"time": 4043, "pitch": 74, "duration": 3, "velocity": 98}, {"time": 4049, "pitch": 71, "duration": 3, "velocity": 98}, {"time": 4055, "pitch": 74, "duration": 17, "velocity": 108}, {"time": 4073, "pitch": 79, "duration": 10, "velocity": 108}, {"time": 4085, "pitch": 78, "duration": 5, "velocity": 95}, {"time": 4091, "pitch": 76, "duration": 3, "velocity": 79}, {"time": 4097, "pitch": 78, "duration": 6, "velocity": 81}, {"time": 4103, "pitch": 71, "duration": 18, "velocity": 93}, {"time": 4121, "pitch": 76, "duration": 3, "velocity": 77}, {"time": 4127, "pitch": 76, "duration": 3, "velocity": 77}, {"time": 4133, "pitch": 78, "duration": 3, "velocity": 95}, {"time": 4139, "pitch": 76, "duration": 8, "velocity": 79}, {"time": 4145, "pitch": 74, "duration": 6, "velocity": 74}, {"time": 4151, "pitch": 71, "duration": 5, "velocity": 73}, {"time": 4157, "pitch": 69, "duration": 10, "velocity": 86}, {"time": 4169, "pitch": 62, "duration": 7, "velocity": 75}, {"time": 4181, "pitch": 64, "duration": 3, "velocity": 74}, {"time": 4187, "pitch": 67, "duration": 48, "velocity": 87}, {"time": 4217, "pitch": 74, "duration": 3, "velocity": 76}, {"time": 4223, "pitch": 74, "duration": 3, "velocity": 83}, {"time": 4229, "pitch": 76, "duration": 3, "velocity": 83}, {"time": 4235, "pitch": 79, "duration": 4, "velocity": 112}, {"time": 4241, "pitch": 78, "duration": 2, "velocity": 111}, {"time": 4247, "pitch": 78, "duration": 3, "velocity": 98}, {"time": 4253, "pitch": 76, "duration": 3, "velocity": 86}, {"time": 4259, "pitch": 71, "duration": 6, "velocity": 74}, {"time": 4271, "pitch": 69, "duration": 3, "velocity": 66}, {"time": 4277, "pitch": 71, "duration": 33, "velocity": 93}, {"time": 4313, "pitch": 71, "duration": 3, "velocity": 87}, {"time": 4319, "pitch": 71, "duration": 3, "velocity": 81}, {"time": 4325, "pitch": 74, "duration": 3, "velocity": 76}, {"time": 4331, "pitch": 76, "duration": 11, "velocity": 108}, {"time": 4343, "pitch": 76, "duration": 13, "velocity": 87}, {"time": 4361, "pitch": 64, "duration": 5, "velocity": 67}, {"time": 4367, "pitch": 71, "duration": 9, "velocity": 90}, {"time": 4379, "pitch": 69, "duration": 32, "velocity": 75}, {"time": 4415, "pitch": 71, "duration": 4, "velocity": 87}, {"time": 4421, "pitch": 74, "duration": 3, "velocity": 85}, {"time": 4427, "pitch": 74, "duration": 3, "velocity": 98}, {"time": 4433, "pitch": 71, "duration": 3, "velocity": 98}, {"time": 4439, "pitch": 74, "duration": 17, "velocity": 108}, {"time": 4457, "pitch": 79, "duration": 10, "velocity": 108}, {"time": 4469, "pitch": 78, "duration": 5, "velocity": 95}, {"time": 4475, "pitch": 76, "duration": 3, "velocity": 79}, {"time": 4481, "pitch": 78, "duration": 6, "velocity": 81}, {"time": 4487, "pitch": 71, "duration": 18, "velocity": 93}, {"time": 4505, "pitch": 76, "duration": 3, "velocity": 77}, {"time": 4511, "pitch": 76, "duration": 3, "velocity": 77}, {"time": 4517, "pitch": 78, "duration": 3, "velocity": 95}, {"time": 4523, "pitch": 76, "duration": 8, "velocity": 79}, {"time": 4529, "pitch": 74, "duration": 6, "velocity": 74}, {"time": 4535, "pitch": 71, "duration": 5, "velocity": 73}, {"time": 4541, "pitch": 69, "duration": 10, "velocity": 86}, {"time": 4553, "pitch": 62, "duration": 7, "velocity": 75}, {"time": 4565, "pitch": 64, "duration": 3, "velocity": 74}, {"time": 4571, "pitch": 67, "duration": 48, "velocity": 87}, {"time": 4607, "pitch": 71, "duration": 4, "velocity": 95}, {"time": 4613, "pitch": 74, "duration": 3, "velocity": 83}, {"time": 4619, "pitch": 74, "duration": 4, "velocity": 87}, {"time": 4625, "pitch": 71, "duration": 4, "velocity": 100}, {"time": 4631, "pitch": 74, "duration": 14, "velocity": 86}, {"time": 4649, "pitch": 79, "duration": 11, "velocity": 86}, {"time": 4661, "pitch": 78, "duration": 6, "velocity": 69}, {"time": 4667, "pitch": 76, "duration": 6, "velocity": 60}, {"time": 4673, "pitch": 78, "duration": 6, "velocity": 74}, {"time": 4679, "pitch": 71, "duration": 14, "velocity": 83}, {"time": 4697, "pitch": 76, "duration": 3, "velocity": 76}, {"time": 4703, "pitch": 76, "duration": 3, "velocity": 75}, {"time": 4709, "pitch": 78, "duration": 4, "velocity": 87}, {"time": 4715, "pitch": 76, "duration": 7, "velocity": 72}, {"time": 4721, "pitch": 74, "duration": 5, "velocity": 77}, {"time": 4727, "pitch": 71, "duration": 7, "velocity": 98}, {"time": 4733, "pitch": 69, "duration": 32, "velocity": 63}, {"time": 4772, "pitch": 62, "duration": 22, "velocity": 73}, {"time": 4799, "pitch": 64, "duration": 7, "velocity": 72}, {"time": 4811, "pitch": 67, "duration": 30, "velocity": 62}], "annotations": [{"time": 576, "annotation": {"number": 64, "value": 70}, "group": "control_change"}, {"time": 588, "annotation": {"number": 64, "value": 72}, "group": "control_change"}, {"time": 612, "annotation": {"number": 64, "value": 73}, "group": "control_change"}, {"time": 624, "annotation": {"number": 64, "value": 74}, "group": "control_change"}]}, {"program": 0, "is_drum": false, "name": "PIANO", "notes": [{"time": 8, "pitch": 79, "duration": 18, "velocity": 74}, {"time": 8, "pitch": 86, "duration": 18, "velocity": 70}, {"time": 30, "pitch": 79, "duration": 23, "velocity": 64}, {"time": 30, "pitch": 83, "duration": 23, "velocity": 69}, {"time": 60, "pitch": 76, "duration": 15, "velocity": 67}, {"time": 60, "pitch": 79, "duration": 15, "velocity": 74}, {"time": 78, "pitch": 67, "duration": 30, "velocity": 52}, {"time": 78, "pitch": 71, "duration": 30, "velocity": 62}, {"time": 78, "pitch": 74, "duration": 14, "velocity": 68}, {"time": 108, "pitch": 54, "duration": 77, "velocity": 60}, {"time": 108, "pitch": 57, "duration": 76, "velocity": 62}, {"time": 108, "pitch": 62, "duration": 76, "velocity": 51}, {"time": 108, "pitch": 66, "duration": 76, "velocity": 51}, {"time": 108, "pitch": 69, "duration": 76, "velocity": 67}, {"time": 180, "pitch": 50, "duration": 3, "velocity": 54}, {"time": 183, "pitch": 38, "duration": 1, "velocity": 54}, {"time": 186, "pitch": 50, "duration": 3, "velocity": 55}, {"time": 189, "pitch": 38, "duration": 3, "velocity": 57}, {"time": 192, "pitch": 50, "duration": 3, "velocity": 57}, {"time": 198, "pitch": 50, "duration": 2, "velocity": 57}, {"time": 201, "pitch": 38, "duration": 2, "velocity": 57}, {"time": 204, "pitch": 43, "duration": 48, "velocity": 77}, {"time": 210, "pitch": 50, "duration": 32, "velocity": 69}, {"time": 215, "pitch": 59, "duration": 15, "velocity": 69}, {"time": 215, "pitch": 62, "duration": 15, "velocity": 76}, {"time": 215, "pitch": 67, "duration": 15, "velocity": 75}, {"time": 216, "pitch": 55, "duration": 13, "velocity": 58}, {"time": 233, "pitch": 55, "duration": 6, "velocity": 58}, {"time": 239, "pitch": 59, "duration": 9, "velocity": 73}, {"time": 239, "pitch": 62, "duration": 9, "velocity": 79}, {"time": 239, "pitch": 67, "duration": 9, "velocity": 81}, {"time": 251, "pitch": 40, "duration": 43, "velocity": 77}, {"time": 257, "pitch": 47, "duration": 30, "velocity": 72}, {"time": 263, "pitch": 52, "duration": 15, "velocity": 59}, {"time": 263, "pitch": 55, "duration": 15, "velocity": 71}, {"time": 263, "pitch": 59, "duration": 15, "velocity": 74}, {"time": 263, "pitch": 64, "duration": 15, "velocity": 73}, {"time": 281, "pitch": 52, "duration": 15, "velocity": 67}, {"time": 287, "pitch": 55, "duration": 8, "velocity": 65}, {"time": 287, "pitch": 59, "duration": 9, "velocity": 68}, {"time": 287, "pitch": 64, "duration": 9, "velocity": 63}, {"time": 299, "pitch": 48, "duration": 43, "velocity": 85}, {"time": 305, "pitch": 55, "duration": 43, "velocity": 62}, {"time": 311, "pitch": 60, "duration": 26, "velocity": 59}, {"time": 311, "pitch": 64, "duration": 16, "velocity": 77}, {"time": 311, "pitch": 67, "duration": 16, "velocity": 86}, {"time": 311, "pitch": 72, "duration": 16, "velocity": 72}, {"time": 335, "pitch": 64, "duration": 7, "velocity": 85}, {"time": 335, "pitch": 67, "duration": 7, "velocity": 93}, {"time": 335, "pitch": 72, "duration": 7, "velocity": 77}, {"time": 341, "pitch": 60, "duration": 6, "velocity": 58}, {"time": 347, "pitch": 50, "duration": 38, "velocity": 85}, {"time": 347, "pitch": 66, "duration": 15, "velocity": 77}, {"time": 347, "pitch": 69, "duration": 14, "velocity": 69}, {"time": 347, "pitch": 74, "duration": 14, "velocity": 73}, {"time": 353, "pitch": 57, "duration": 31, "velocity": 58}, {"time": 359, "pitch": 62, "duration": 24, "velocity": 56}, {"time": 377, "pitch": 54, "duration": 8, "velocity": 77}, {"time": 383, "pitch": 66, "duration": 8, "velocity": 93}, {"time": 383, "pitch": 69, "duration": 7, "velocity": 79}, {"time": 383, "pitch": 74, "duration": 7, "velocity": 75}, {"time": 395, "pitch": 43, "duration": 42, "velocity": 63}, {"time": 398, "pitch": 50, "duration": 36, "velocity": 63}, {"time": 404, "pitch": 55, "duration": 12, "velocity": 59}, {"time": 407, "pitch": 59, "duration": 16, "velocity": 81}, {"time": 407, "pitch": 62, "duration": 16, "velocity": 90}, {"time": 407, "pitch": 67, "duration": 16, "velocity": 93}, {"time": 425, "pitch": 55, "duration": 9, "velocity": 59}, {"time": 431, "pitch": 59, "duration": 6, "velocity": 79}, {"time": 431, "pitch": 62, "duration": 6, "velocity": 90}, {"time": 431, "pitch": 67, "duration": 6, "velocity": 95}, {"time": 443, "pitch": 40, "duration": 41, "velocity": 73}, {"time": 449, "pitch": 47, "duration": 36, "velocity": 60}, {"time": 455, "pitch": 52, "duration": 13, "velocity": 64}, {"time": 455, "pitch": 55, "duration": 15, "velocity": 79}, {"time": 455, "pitch": 59, "duration": 15, "velocity": 81}, {"time": 455, "pitch": 64, "duration": 15, "velocity": 83}, {"time": 470, "pitch": 52, "duration": 9, "velocity": 60}, {"time": 479, "pitch": 55, "duration": 7, "velocity": 90}, {"time": 479, "pitch": 59, "duration": 7, "velocity": 83}, {"time": 479, "pitch": 64, "duration": 7, "velocity": 77}, {"time": 485, "pitch": 52, "duration": 4, "velocity": 73}, {"time": 491, "pitch": 45, "duration": 49, "velocity": 72}, {"time": 497, "pitch": 52, "duration": 44, "velocity": 58}, {"time": 503, "pitch": 57, "duration": 15, "velocity": 58}, {"time": 503, "pitch": 60, "duration": 16, "velocity": 77}, {"time": 503, "pitch": 64, "duration": 16, "velocity": 90}, {"time": 503, "pitch": 69, "duration": 16, "velocity": 85}, {"time": 521, "pitch": 57, "duration": 18, "velocity": 60}, {"time": 527, "pitch": 60, "duration": 9, "velocity": 83}, {"time": 527, "pitch": 64, "duration": 9, "velocity": 85}, {"time": 527, "pitch": 69, "duration": 9, "velocity": 77}, {"time": 539, "pitch": 50, "duration": 54, "velocity": 83}, {"time": 545, "pitch": 57, "duration": 49, "velocity": 59}, {"time": 551, "pitch": 62, "duration": 35, "velocity": 58}, {"time": 552, "pitch": 66, "duration": 14, "velocity": 98}, {"time": 552, "pitch": 69, "duration": 13, "velocity": 85}, {"time": 552, "pitch": 74, "duration": 12, "velocity": 76}, {"time": 569, "pitch": 54, "duration": 26, "velocity": 74}, {"time": 575, "pitch": 66, "duration": 10, "velocity": 90}, {"time": 575, "pitch": 69, "duration": 10, "velocity": 77}, {"time": 575, "pitch": 74, "duration": 9, "velocity": 75}, {"time": 587, "pitch": 62, "duration": 6, "velocity": 74}, {"time": 587, "pitch": 66, "duration": 7, "velocity": 87}, {"time": 587, "pitch": 69, "duration": 7, "velocity": 85}, {"time": 587, "pitch": 74, "duration": 6, "velocity": 67}, {"time": 635, "pitch": 43, "duration": 42, "velocity": 72}, {"time": 641, "pitch": 50, "duration": 36, "velocity": 71}, {"time": 647, "pitch": 57, "duration": 26, "velocity": 59}, {"time": 653, "pitch": 59, "duration": 16, "velocity": 71}, {"time": 683, "pitch": 40, "duration": 38, "velocity": 75}, {"time": 689, "pitch": 47, "duration": 33, "velocity": 66}, {"time": 695, "pitch": 54, "duration": 13, "velocity": 58}, {"time": 701, "pitch": 55, "duration": 15, "velocity": 74}, {"time": 731, "pitch": 45, "duration": 37, "velocity": 61}, {"time": 737, "pitch": 52, "duration": 33, "velocity": 45}, {"time": 743, "pitch": 60, "duration": 15, "velocity": 54}, {"time": 749, "pitch": 57, "duration": 15, "velocity": 71}, {"time": 779, "pitch": 50, "duration": 48, "velocity": 69}, {"time": 785, "pitch": 57, "duration": 42, "velocity": 57}, {"time": 791, "pitch": 62, "duration": 34, "velocity": 58}, {"time": 797, "pitch": 66, "duration": 15, "velocity": 90}, {"time": 797, "pitch": 69, "duration": 15, "velocity": 73}, {"time": 827, "pitch": 43, "duration": 45, "velocity": 47}, {"time": 833, "pitch": 50, "duration": 37, "velocity": 53}, {"time": 839, "pitch": 57, "duration": 18, "velocity": 51}, {"time": 845, "pitch": 59, "duration": 16, "velocity": 64}, {"time": 875, "pitch": 40, "duration": 42, "velocity": 76}, {"time": 881, "pitch": 47, "duration": 37, "velocity": 63}, {"time": 887, "pitch": 54, "duration": 17, "velocity": 61}, {"time": 893, "pitch": 55, "duration": 16, "velocity": 65}, {"time": 923, "pitch": 45, "duration": 42, "velocity": 72}, {"time": 929, "pitch": 52, "duration": 37, "velocity": 50}, {"time": 935, "pitch": 57, "duration": 11, "velocity": 53}, {"time": 941, "pitch": 60, "duration": 15, "velocity": 72}, {"time": 941, "pitch": 64, "duration": 14, "velocity": 75}, {"time": 941, "pitch": 69, "duration": 14, "velocity": 70}, {"time": 971, "pitch": 50, "duration": 38, "velocity": 74}, {"time": 977, "pitch": 57, "duration": 30, "velocity": 60}, {"time": 983, "pitch": 62, "duration": 12, "velocity": 60}, {"time": 989, "pitch": 66, "duration": 16, "velocity": 76}, {"time": 989, "pitch": 69, "duration": 15, "velocity": 74}, {"time": 998, "pitch": 62, "duration": 6, "velocity": 61}, {"time": 1007, "pitch": 66, "duration": 4, "velocity": 93}, {"time": 1007, "pitch": 69, "duration": 3, "velocity": 74}, {"time": 1019, "pitch": 43, "duration": 41, "velocity": 75}, {"time": 1025, "pitch": 50, "duration": 36, "velocity": 61}, {"time": 1031, "pitch": 55, "duration": 10, "velocity": 60}, {"time": 1037, "pitch": 59, "duration": 15, "velocity": 77}, {"time": 1037, "pitch": 62, "duration": 15, "velocity": 86}, {"time": 1049, "pitch": 55, "duration": 9, "velocity": 66}, {"time": 1055, "pitch": 59, "duration": 8, "velocity": 79}, {"time": 1055, "pitch": 62, "duration": 7, "velocity": 87}, {"time": 1055, "pitch": 67, "duration": 7, "velocity": 90}, {"time": 1067, "pitch": 40, "duration": 43, "velocity": 76}, {"time": 1073, "pitch": 47, "duration": 36, "velocity": 67}, {"time": 1079, "pitch": 52, "duration": 10, "velocity": 63}, {"time": 1085, "pitch": 55, "duration": 16, "velocity": 75}, {"time": 1085, "pitch": 59, "duration": 15, "velocity": 81}, {"time": 1097, "pitch": 52, "duration": 9, "velocity": 60}, {"time": 1103, "pitch": 55, "duration": 8, "velocity": 79}, {"time": 1103, "pitch": 59, "duration": 8, "velocity": 81}, {"time": 1103, "pitch": 64, "duration": 8, "velocity": 72}, {"time": 1109, "pitch": 52, "duration": 6, "velocity": 65}, {"time": 1115, "pitch": 45, "duration": 41, "velocity": 65}, {"time": 1121, "pitch": 52, "duration": 34, "velocity": 67}, {"time": 1127, "pitch": 57, "duration": 9, "velocity": 63}, {"time": 1133, "pitch": 60, "duration": 16, "velocity": 76}, {"time": 1133, "pitch": 64, "duration": 16, "velocity": 86}, {"time": 1145, "pitch": 57, "duration": 8, "velocity": 67}, {"time": 1151, "pitch": 60, "duration": 14, "velocity": 83}, {"time": 1151, "pitch": 64, "duration": 13, "velocity": 87}, {"time": 1151, "pitch": 69, "duration": 13, "velocity": 85}, {"time": 1163, "pitch": 38, "duration": 39, "velocity": 93}, {"time": 1169, "pitch": 45, "duration": 34, "velocity": 59}, {"time": 1175, "pitch": 54, "duration": 9, "velocity": 100}, {"time": 1181, "pitch": 50, "duration": 7, "velocity": 76}, {"time": 1193, "pitch": 50, "duration": 9, "velocity": 81}, {"time": 1199, "pitch": 54, "duration": 11, "velocity": 65}, {"time": 1199, "pitch": 57, "duration": 6, "velocity": 70}, {"time": 1199, "pitch": 62, "duration": 8, "velocity": 63}, {"time": 1211, "pitch": 43, "duration": 45, "velocity": 92}, {"time": 1217, "pitch": 50, "duration": 3, "velocity": 97}, {"time": 1223, "pitch": 62, "duration": 8, "velocity": 90}, {"time": 1223, "pitch": 67, "duration": 7, "velocity": 95}, {"time": 1223, "pitch": 71, "duration": 8, "velocity": 85}, {"time": 1241, "pitch": 55, "duration": 5, "velocity": 90}, {"time": 1247, "pitch": 62, "duration": 7, "velocity": 90}, {"time": 1247, "pitch": 67, "duration": 7, "velocity": 95}, {"time": 1247, "pitch": 71, "duration": 7, "velocity": 85}, {"time": 1259, "pitch": 40, "duration": 38, "velocity": 82}, {"time": 1271, "pitch": 59, "duration": 8, "velocity": 92}, {"time": 1271, "pitch": 64, "duration": 7, "velocity": 89}, {"time": 1271, "pitch": 67, "duration": 7, "velocity": 82}, {"time": 1277, "pitch": 52, "duration": 9, "velocity": 95}, {"time": 1289, "pitch": 52, "duration": 5, "velocity": 95}, {"time": 1295, "pitch": 64, "duration": 10, "velocity": 102}, {"time": 1295, "pitch": 67, "duration": 10, "velocity": 97}, {"time": 1307, "pitch": 36, "duration": 36, "velocity": 92}, {"time": 1313, "pitch": 43, "duration": 7, "velocity": 97}, {"time": 1319, "pitch": 55, "duration": 3, "velocity": 93}, {"time": 1319, "pitch": 60, "duration": 3, "velocity": 97}, {"time": 1319, "pitch": 64, "duration": 4, "velocity": 93}, {"time": 1325, "pitch": 48, "duration": 9, "velocity": 88}, {"time": 1337, "pitch": 48, "duration": 8, "velocity": 88}, {"time": 1343, "pitch": 55, "duration": 6, "velocity": 97}, {"time": 1343, "pitch": 60, "duration": 3, "velocity": 112}, {"time": 1343, "pitch": 64, "duration": 3, "velocity": 97}, {"time": 1355, "pitch": 43, "duration": 40, "velocity": 86}, {"time": 1361, "pitch": 50, "duration": 39, "velocity": 63}, {"time": 1367, "pitch": 55, "duration": 15, "velocity": 100}, {"time": 1367, "pitch": 62, "duration": 5, "velocity": 100}, {"time": 1367, "pitch": 67, "duration": 6, "velocity": 100}, {"time": 1367, "pitch": 71, "duration": 6, "velocity": 100}, {"time": 1385, "pitch": 55, "duration": 7, "velocity": 102}, {"time": 1391, "pitch": 62, "duration": 4, "velocity": 100}, {"time": 1391, "pitch": 67, "duration": 4, "velocity": 117}, {"time": 1391, "pitch": 71, "duration": 9, "velocity": 112}, {"time": 1403, "pitch": 43, "duration": 46, "velocity": 81}, {"time": 1409, "pitch": 50, "duration": 41, "velocity": 34}, {"time": 1415, "pitch": 62, "duration": 4, "velocity": 90}, {"time": 1415, "pitch": 67, "duration": 4, "velocity": 99}, {"time": 1415, "pitch": 71, "duration": 5, "velocity": 93}, {"time": 1421, "pitch": 55, "duration": 8, "velocity": 97}, {"time": 1427, "pitch": 62, "duration": 2, "velocity": 100}, {"time": 1427, "pitch": 67, "duration": 2, "velocity": 100}, {"time": 1427, "pitch": 71, "duration": 3, "velocity": 97}, {"time": 1433, "pitch": 55, "duration": 7, "velocity": 93}, {"time": 1433, "pitch": 67, "duration": 2, "velocity": 96}, {"time": 1433, "pitch": 71, "duration": 3, "velocity": 90}, {"time": 1439, "pitch": 62, "duration": 5, "velocity": 95}, {"time": 1439, "pitch": 67, "duration": 4, "velocity": 95}, {"time": 1439, "pitch": 71, "duration": 5, "velocity": 93}, {"time": 1445, "pitch": 67, "duration": 3, "velocity": 99}, {"time": 1445, "pitch": 71, "duration": 3, "velocity": 99}, {"time": 1451, "pitch": 43, "duration": 37, "velocity": 74}, {"time": 1463, "pitch": 62, "duration": 3, "velocity": 97}, {"time": 1463, "pitch": 67, "duration": 3, "velocity": 96}, {"time": 1463, "pitch": 71, "duration": 3, "velocity": 88}, {"time": 1469, "pitch": 55, "duration": 10, "velocity": 71}, {"time": 1481, "pitch": 55, "duration": 5, "velocity": 88}, {"time": 1487, "pitch": 62, "duration": 3, "velocity": 97}, {"time": 1487, "pitch": 67, "duration": 5, "velocity": 102}, {"time": 1487, "pitch": 71, "duration": 5, "velocity": 99}, {"time": 1493, "pitch": 62, "duration": 2, "velocity": 75}, {"time": 1499, "pitch": 40, "duration": 39, "velocity": 83}, {"time": 1511, "pitch": 59, "duration": 7, "velocity": 93}, {"time": 1511, "pitch": 64, "duration": 7, "velocity": 95}, {"time": 1511, "pitch": 67, "duration": 8, "velocity": 83}, {"time": 1517, "pitch": 52, "duration": 5, "velocity": 97}, {"time": 1529, "pitch": 52, "duration": 11, "velocity": 102}, {"time": 1535, "pitch": 59, "duration": 4, "velocity": 97}, {"time": 1535, "pitch": 64, "duration": 7, "velocity": 112}, {"time": 1535, "pitch": 67, "duration": 7, "velocity": 112}, {"time": 1547, "pitch": 45, "duration": 38, "velocity": 82}, {"time": 1553, "pitch": 52, "duration": 31, "velocity": 72}, {"time": 1559, "pitch": 64, "duration": 6, "velocity": 86}, {"time": 1559, "pitch": 69, "duration": 6, "velocity": 88}, {"time": 1559, "pitch": 72, "duration": 6, "velocity": 81}, {"time": 1565, "pitch": 57, "duration": 9, "velocity": 102}, {"time": 1577, "pitch": 57, "duration": 6, "velocity": 122}, {"time": 1583, "pitch": 64, "duration": 8, "velocity": 76}, {"time": 1583, "pitch": 69, "duration": 5, "velocity": 127}, {"time": 1583, "pitch": 72, "duration": 5, "velocity": 107}, {"time": 1595, "pitch": 38, "duration": 36, "velocity": 88}, {"time": 1601, "pitch": 45, "duration": 30, "velocity": 51}, {"time": 1607, "pitch": 57, "duration": 11, "velocity": 98}, {"time": 1607, "pitch": 62, "duration": 10, "velocity": 98}, {"time": 1607, "pitch": 66, "duration": 10, "velocity": 98}, {"time": 1613, "pitch": 50, "duration": 9, "velocity": 89}, {"time": 1625, "pitch": 50, "duration": 9, "velocity": 99}, {"time": 1631, "pitch": 57, "duration": 7, "velocity": 96}, {"time": 1631, "pitch": 62, "duration": 7, "velocity": 117}, {"time": 1631, "pitch": 66, "duration": 7, "velocity": 127}, {"time": 1643, "pitch": 43, "duration": 39, "velocity": 66}, {"time": 1649, "pitch": 50, "duration": 31, "velocity": 73}, {"time": 1655, "pitch": 62, "duration": 10, "velocity": 86}, {"time": 1655, "pitch": 67, "duration": 9, "velocity": 86}, {"time": 1655, "pitch": 71, "duration": 9, "velocity": 83}, {"time": 1661, "pitch": 55, "duration": 9, "velocity": 92}, {"time": 1673, "pitch": 55, "duration": 6, "velocity": 97}, {"time": 1679, "pitch": 62, "duration": 4, "velocity": 102}, {"time": 1679, "pitch": 67, "duration": 10, "velocity": 122}, {"time": 1679, "pitch": 71, "duration": 10, "velocity": 117}, {"time": 1691, "pitch": 40, "duration": 40, "velocity": 90}, {"time": 1697, "pitch": 47, "duration": 34, "velocity": 65}, {"time": 1703, "pitch": 59, "duration": 11, "velocity": 86}, {"time": 1703, "pitch": 64, "duration": 10, "velocity": 89}, {"time": 1703, "pitch": 67, "duration": 10, "velocity": 81}, {"time": 1709, "pitch": 52, "duration": 10, "velocity": 86}, {"time": 1721, "pitch": 52, "duration": 9, "velocity": 93}, {"time": 1727, "pitch": 59, "duration": 10, "velocity": 82}, {"time": 1727, "pitch": 64, "duration": 8, "velocity": 102}, {"time": 1727, "pitch": 67, "duration": 8, "velocity": 97}, {"time": 1739, "pitch": 45, "duration": 38, "velocity": 95}, {"time": 1745, "pitch": 52, "duration": 8, "velocity": 88}, {"time": 1751, "pitch": 57, "duration": 11, "velocity": 92}, {"time": 1751, "pitch": 60, "duration": 10, "velocity": 93}, {"time": 1751, "pitch": 64, "duration": 11, "velocity": 92}, {"time": 1757, "pitch": 52, "duration": 9, "velocity": 62}, {"time": 1763, "pitch": 57, "duration": 8, "velocity": 78}, {"time": 1769, "pitch": 52, "duration": 7, "velocity": 100}, {"time": 1775, "pitch": 60, "duration": 7, "velocity": 127}, {"time": 1775, "pitch": 64, "duration": 7, "velocity": 107}, {"time": 1781, "pitch": 57, "duration": 6, "velocity": 90}, {"time": 1787, "pitch": 38, "duration": 51, "velocity": 89}, {"time": 1793, "pitch": 45, "duration": 44, "velocity": 33}, {"time": 1799, "pitch": 57, "duration": 17, "velocity": 89}, {"time": 1799, "pitch": 62, "duration": 18, "velocity": 89}, {"time": 1799, "pitch": 66, "duration": 18, "velocity": 102}, {"time": 1805, "pitch": 50, "duration": 33, "velocity": 95}, {"time": 1817, "pitch": 57, "duration": 9, "velocity": 102}, {"time": 1823, "pitch": 62, "duration": 14, "velocity": 127}, {"time": 1823, "pitch": 66, "duration": 14, "velocity": 127}, {"time": 1829, "pitch": 57, "duration": 8, "velocity": 100}, {"time": 1835, "pitch": 43, "duration": 37, "velocity": 93}, {"time": 1841, "pitch": 50, "duration": 31, "velocity": 67}, {"time": 1847, "pitch": 67, "duration": 21, "velocity": 102}, {"time": 1847, "pitch": 71, "duration": 21, "velocity": 107}, {"time": 1853, "pitch": 62, "duration": 16, "velocity": 95}, {"time": 1865, "pitch": 55, "duration": 7, "velocity": 102}, {"time": 1871, "pitch": 67, "duration": 10, "velocity": 122}, {"time": 1871, "pitch": 71, "duration": 10, "velocity": 99}, {"time": 1877, "pitch": 62, "duration": 4, "velocity": 86}, {"time": 1883, "pitch": 40, "duration": 36, "velocity": 81}, {"time": 1895, "pitch": 64, "duration": 16, "velocity": 93}, {"time": 1895, "pitch": 67, "duration": 16, "velocity": 93}, {"time": 1895, "pitch": 71, "duration": 16, "velocity": 88}, {"time": 1901, "pitch": 52, "duration": 9, "velocity": 81}, {"time": 1913, "pitch": 52, "duration": 9, "velocity": 90}, {"time": 1919, "pitch": 64, "duration": 3, "velocity": 97}, {"time": 1919, "pitch": 67, "duration": 3, "velocity": 100}, {"time": 1919, "pitch": 71, "duration": 3, "velocity": 102}, {"time": 1931, "pitch": 45, "duration": 37, "velocity": 90}, {"time": 1937, "pitch": 52, "duration": 13, "velocity": 95}, {"time": 1943, "pitch": 57, "duration": 16, "velocity": 92}, {"time": 1943, "pitch": 60, "duration": 16, "velocity": 99}, {"time": 1943, "pitch": 64, "duration": 16, "velocity": 88}, {"time": 1961, "pitch": 52, "duration": 7, "velocity": 86}, {"time": 1967, "pitch": 57, "duration": 5, "velocity": 77}, {"time": 1967, "pitch": 60, "duration": 8, "velocity": 112}, {"time": 1967, "pitch": 64, "duration": 6, "velocity": 100}, {"time": 1979, "pitch": 38, "duration": 32, "velocity": 92}, {"time": 1985, "pitch": 45, "duration": 31, "velocity": 55}, {"time": 1991, "pitch": 57, "duration": 16, "velocity": 99}, {"time": 1991, "pitch": 62, "duration": 15, "velocity": 99}, {"time": 1991, "pitch": 66, "duration": 15, "velocity": 117}, {"time": 1997, "pitch": 50, "duration": 15, "velocity": 93}, {"time": 2009, "pitch": 50, "duration": 3, "velocity": 81}, {"time": 2012, "pitch": 38, "duration": 3, "velocity": 97}, {"time": 2015, "pitch": 57, "duration": 3, "velocity": 97}, {"time": 2015, "pitch": 62, "duration": 2, "velocity": 107}, {"time": 2015, "pitch": 66, "duration": 2, "velocity": 117}, {"time": 2021, "pitch": 38, "duration": 3, "velocity": 97}, {"time": 2027, "pitch": 43, "duration": 38, "velocity": 90}, {"time": 2033, "pitch": 50, "duration": 32, "velocity": 65}, {"time": 2039, "pitch": 55, "duration": 15, "velocity": 96}, {"time": 2039, "pitch": 62, "duration": 15, "velocity": 97}, {"time": 2039, "pitch": 67, "duration": 16, "velocity": 100}, {"time": 2039, "pitch": 71, "duration": 16, "velocity": 96}, {"time": 2057, "pitch": 55, "duration": 7, "velocity": 107}, {"time": 2063, "pitch": 62, "duration": 3, "velocity": 83}, {"time": 2063, "pitch": 67, "duration": 7, "velocity": 127}, {"time": 2063, "pitch": 71, "duration": 8, "velocity": 127}, {"time": 2075, "pitch": 40, "duration": 40, "velocity": 92}, {"time": 2081, "pitch": 47, "duration": 35, "velocity": 48}, {"time": 2087, "pitch": 52, "duration": 13, "velocity": 97}, {"time": 2087, "pitch": 64, "duration": 14, "velocity": 83}, {"time": 2087, "pitch": 67, "duration": 14, "velocity": 74}, {"time": 2087, "pitch": 71, "duration": 14, "velocity": 70}, {"time": 2105, "pitch": 52, "duration": 10, "velocity": 96}, {"time": 2111, "pitch": 64, "duration": 5, "velocity": 99}, {"time": 2111, "pitch": 67, "duration": 11, "velocity": 117}, {"time": 2111, "pitch": 71, "duration": 11, "velocity": 112}, {"time": 2123, "pitch": 45, "duration": 13, "velocity": 96}, {"time": 2123, "pitch": 60, "duration": 14, "velocity": 96}, {"time": 2123, "pitch": 64, "duration": 19, "velocity": 97}, {"time": 2129, "pitch": 52, "duration": 7, "velocity": 100}, {"time": 2135, "pitch": 57, "duration": 11, "velocity": 117}, {"time": 2141, "pitch": 60, "duration": 5, "velocity": 95}, {"time": 2147, "pitch": 38, "duration": 23, "velocity": 85}, {"time": 2147, "pitch": 57, "duration": 10, "velocity": 88}, {"time": 2147, "pitch": 62, "duration": 10, "velocity": 96}, {"time": 2147, "pitch": 66, "duration": 10, "velocity": 95}, {"time": 2153, "pitch": 45, "duration": 18, "velocity": 92}, {"time": 2159, "pitch": 50, "duration": 12, "velocity": 95}, {"time": 2159, "pitch": 62, "duration": 11, "velocity": 107}, {"time": 2159, "pitch": 66, "duration": 12, "velocity": 122}, {"time": 2165, "pitch": 57, "duration": 5, "velocity": 90}, {"time": 2171, "pitch": 43, "duration": 45, "velocity": 79}, {"time": 2177, "pitch": 50, "duration": 39, "velocity": 82}, {"time": 2183, "pitch": 59, "duration": 3, "velocity": 90}, {"time": 2183, "pitch": 62, "duration": 3, "velocity": 90}, {"time": 2183, "pitch": 67, "duration": 3, "velocity": 90}, {"time": 2189, "pitch": 55, "duration": 9, "velocity": 95}, {"time": 2195, "pitch": 59, "duration": 3, "velocity": 97}, {"time": 2195, "pitch": 62, "duration": 3, "velocity": 97}, {"time": 2201, "pitch": 55, "duration": 6, "velocity": 97}, {"time": 2207, "pitch": 59, "duration": 10, "velocity": 99}, {"time": 2207, "pitch": 62, "duration": 10, "velocity": 99}, {"time": 2207, "pitch": 67, "duration": 9, "velocity": 99}, {"time": 2219, "pitch": 43, "duration": 48, "velocity": 65}, {"time": 2225, "pitch": 50, "duration": 33, "velocity": 69}, {"time": 2231, "pitch": 59, "duration": 15, "velocity": 69}, {"time": 2231, "pitch": 62, "duration": 15, "velocity": 76}, {"time": 2231, "pitch": 67, "duration": 15, "velocity": 75}, {"time": 2237, "pitch": 55, "duration": 8, "velocity": 58}, {"time": 2249, "pitch": 55, "duration": 6, "velocity": 58}, {"time": 2255, "pitch": 59, "duration": 9, "velocity": 73}, {"time": 2255, "pitch": 62, "duration": 9, "velocity": 79}, {"time": 2255, "pitch": 67, "duration": 9, "velocity": 81}, {"time": 2267, "pitch": 40, "duration": 43, "velocity": 77}, {"time": 2273, "pitch": 47, "duration": 30, "velocity": 72}, {"time": 2279, "pitch": 55, "duration": 15, "velocity": 71}, {"time": 2279, "pitch": 59, "duration": 15, "velocity": 74}, {"time": 2279, "pitch": 64, "duration": 15, "velocity": 73}, {"time": 2285, "pitch": 52, "duration": 9, "velocity": 59}, {"time": 2297, "pitch": 52, "duration": 15, "velocity": 67}, {"time": 2303, "pitch": 55, "duration": 8, "velocity": 65}, {"time": 2303, "pitch": 59, "duration": 9, "velocity": 68}, {"time": 2303, "pitch": 64, "duration": 9, "velocity": 63}, {"time": 2315, "pitch": 48, "duration": 43, "velocity": 85}, {"time": 2321, "pitch": 55, "duration": 43, "velocity": 62}, {"time": 2327, "pitch": 64, "duration": 22, "velocity": 77}, {"time": 2327, "pitch": 67, "duration": 22, "velocity": 86}, {"time": 2327, "pitch": 72, "duration": 22, "velocity": 72}, {"time": 2333, "pitch": 60, "duration": 20, "velocity": 59}, {"time": 2351, "pitch": 64, "duration": 7, "velocity": 85}, {"time": 2351, "pitch": 67, "duration": 7, "velocity": 93}, {"time": 2351, "pitch": 72, "duration": 7, "velocity": 77}, {"time": 2357, "pitch": 60, "duration": 6, "velocity": 58}, {"time": 2363, "pitch": 50, "duration": 38, "velocity": 85}, {"time": 2369, "pitch": 57, "duration": 31, "velocity": 58}, {"time": 2375, "pitch": 66, "duration": 15, "velocity": 77}, {"time": 2375, "pitch": 69, "duration": 14, "velocity": 69}, {"time": 2375, "pitch": 74, "duration": 14, "velocity": 73}, {"time": 2381, "pitch": 62, "duration": 18, "velocity": 56}, {"time": 2393, "pitch": 54, "duration": 8, "velocity": 77}, {"time": 2399, "pitch": 66, "duration": 8, "velocity": 93}, {"time": 2399, "pitch": 69, "duration": 7, "velocity": 79}, {"time": 2399, "pitch": 74, "duration": 7, "velocity": 75}, {"time": 2411, "pitch": 43, "duration": 42, "velocity": 63}, {"time": 2417, "pitch": 50, "duration": 33, "velocity": 63}, {"time": 2423, "pitch": 59, "duration": 16, "velocity": 81}, {"time": 2423, "pitch": 62, "duration": 16, "velocity": 90}, {"time": 2423, "pitch": 67, "duration": 16, "velocity": 93}, {"time": 2429, "pitch": 55, "duration": 12, "velocity": 59}, {"time": 2441, "pitch": 55, "duration": 9, "velocity": 59}, {"time": 2447, "pitch": 59, "duration": 6, "velocity": 79}, {"time": 2447, "pitch": 62, "duration": 6, "velocity": 90}, {"time": 2447, "pitch": 67, "duration": 6, "velocity": 95}, {"time": 2459, "pitch": 40, "duration": 41, "velocity": 73}, {"time": 2465, "pitch": 47, "duration": 36, "velocity": 60}, {"time": 2471, "pitch": 55, "duration": 15, "velocity": 79}, {"time": 2471, "pitch": 59, "duration": 15, "velocity": 81}, {"time": 2471, "pitch": 64, "duration": 15, "velocity": 83}, {"time": 2477, "pitch": 52, "duration": 7, "velocity": 64}, {"time": 2489, "pitch": 52, "duration": 6, "velocity": 60}, {"time": 2495, "pitch": 55, "duration": 7, "velocity": 90}, {"time": 2495, "pitch": 59, "duration": 7, "velocity": 83}, {"time": 2495, "pitch": 64, "duration": 7, "velocity": 77}, {"time": 2501, "pitch": 52, "duration": 4, "velocity": 73}, {"time": 2507, "pitch": 45, "duration": 49, "velocity": 72}, {"time": 2513, "pitch": 52, "duration": 44, "velocity": 58}, {"time": 2519, "pitch": 60, "duration": 16, "velocity": 77}, {"time": 2519, "pitch": 64, "duration": 16, "velocity": 90}, {"time": 2519, "pitch": 69, "duration": 16, "velocity": 85}, {"time": 2525, "pitch": 57, "duration": 9, "velocity": 58}, {"time": 2537, "pitch": 57, "duration": 18, "velocity": 60}, {"time": 2543, "pitch": 60, "duration": 9, "velocity": 83}, {"time": 2543, "pitch": 64, "duration": 9, "velocity": 85}, {"time": 2543, "pitch": 69, "duration": 9, "velocity": 77}, {"time": 2555, "pitch": 50, "duration": 54, "velocity": 83}, {"time": 2561, "pitch": 57, "duration": 49, "velocity": 59}, {"time": 2567, "pitch": 66, "duration": 15, "velocity": 98}, {"time": 2567, "pitch": 69, "duration": 14, "velocity": 85}, {"time": 2567, "pitch": 74, "duration": 13, "velocity": 76}, {"time": 2573, "pitch": 62, "duration": 29, "velocity": 58}, {"time": 2585, "pitch": 54, "duration": 26, "velocity": 74}, {"time": 2591, "pitch": 66, "duration": 10, "velocity": 90}, {"time": 2591, "pitch": 69, "duration": 10, "velocity": 77}, {"time": 2591, "pitch": 74, "duration": 9, "velocity": 75}, {"time": 2603, "pitch": 62, "duration": 6, "velocity": 74}, {"time": 2603, "pitch": 66, "duration": 7, "velocity": 87}, {"time": 2603, "pitch": 69, "duration": 7, "velocity": 85}, {"time": 2603, "pitch": 74, "duration": 6, "velocity": 67}, {"time": 2651, "pitch": 43, "duration": 42, "velocity": 72}, {"time": 2651, "pitch": 59, "duration": 12, "velocity": 66}, {"time": 2651, "pitch": 62, "duration": 12, "velocity": 73}, {"time": 2651, "pitch": 67, "duration": 15, "velocity": 73}, {"time": 2657, "pitch": 50, "duration": 36, "velocity": 71}, {"time": 2663, "pitch": 55, "duration": 26, "velocity": 59}, {"time": 2663, "pitch": 59, "duration": 22, "velocity": 71}, {"time": 2663, "pitch": 62, "duration": 23, "velocity": 77}, {"time": 2669, "pitch": 67, "duration": 16, "velocity": 83}, {"time": 2687, "pitch": 59, "duration": 6, "velocity": 70}, {"time": 2687, "pitch": 62, "duration": 6, "velocity": 75}, {"time": 2687, "pitch": 67, "duration": 6, "velocity": 76}, {"time": 2699, "pitch": 40, "duration": 38, "velocity": 75}, {"time": 2699, "pitch": 55, "duration": 15, "velocity": 66}, {"time": 2699, "pitch": 59, "duration": 15, "velocity": 68}, {"time": 2699, "pitch": 64, "duration": 14, "velocity": 71}, {"time": 2705, "pitch": 47, "duration": 33, "velocity": 66}, {"time": 2708, "pitch": 52, "duration": 15, "velocity": 58}, {"time": 2717, "pitch": 55, "duration": 15, "velocity": 74}, {"time": 2717, "pitch": 59, "duration": 15, "velocity": 74}, {"time": 2729, "pitch": 52, "duration": 12, "velocity": 60}, {"time": 2735, "pitch": 55, "duration": 5, "velocity": 74}, {"time": 2735, "pitch": 59, "duration": 6, "velocity": 75}, {"time": 2735, "pitch": 64, "duration": 6, "velocity": 72}, {"time": 2747, "pitch": 45, "duration": 37, "velocity": 61}, {"time": 2747, "pitch": 60, "duration": 14, "velocity": 62}, {"time": 2747, "pitch": 64, "duration": 14, "velocity": 63}, {"time": 2747, "pitch": 69, "duration": 14, "velocity": 64}, {"time": 2753, "pitch": 52, "duration": 33, "velocity": 45}, {"time": 2759, "pitch": 57, "duration": 15, "velocity": 54}, {"time": 2765, "pitch": 60, "duration": 15, "velocity": 71}, {"time": 2765, "pitch": 64, "duration": 15, "velocity": 77}, {"time": 2765, "pitch": 69, "duration": 15, "velocity": 75}, {"time": 2777, "pitch": 57, "duration": 17, "velocity": 58}, {"time": 2783, "pitch": 60, "duration": 5, "velocity": 79}, {"time": 2783, "pitch": 64, "duration": 5, "velocity": 86}, {"time": 2783, "pitch": 69, "duration": 5, "velocity": 77}, {"time": 2795, "pitch": 50, "duration": 48, "velocity": 69}, {"time": 2795, "pitch": 66, "duration": 14, "velocity": 74}, {"time": 2801, "pitch": 57, "duration": 42, "velocity": 57}, {"time": 2804, "pitch": 62, "duration": 36, "velocity": 58}, {"time": 2813, "pitch": 66, "duration": 15, "velocity": 90}, {"time": 2813, "pitch": 69, "duration": 15, "velocity": 73}, {"time": 2825, "pitch": 54, "duration": 18, "velocity": 65}, {"time": 2831, "pitch": 66, "duration": 11, "velocity": 98}, {"time": 2831, "pitch": 69, "duration": 10, "velocity": 76}, {"time": 2843, "pitch": 43, "duration": 45, "velocity": 47}, {"time": 2843, "pitch": 59, "duration": 14, "velocity": 68}, {"time": 2843, "pitch": 62, "duration": 15, "velocity": 81}, {"time": 2843, "pitch": 67, "duration": 14, "velocity": 79}, {"time": 2849, "pitch": 50, "duration": 37, "velocity": 53}, {"time": 2855, "pitch": 55, "duration": 18, "velocity": 51}, {"time": 2861, "pitch": 59, "duration": 16, "velocity": 64}, {"time": 2861, "pitch": 62, "duration": 16, "velocity": 68}, {"time": 2861, "pitch": 67, "duration": 16, "velocity": 75}, {"time": 2873, "pitch": 55, "duration": 8, "velocity": 71}, {"time": 2879, "pitch": 59, "duration": 9, "velocity": 75}, {"time": 2879, "pitch": 62, "duration": 8, "velocity": 86}, {"time": 2879, "pitch": 67, "duration": 8, "velocity": 93}, {"time": 2891, "pitch": 40, "duration": 42, "velocity": 76}, {"time": 2891, "pitch": 55, "duration": 14, "velocity": 65}, {"time": 2891, "pitch": 59, "duration": 14, "velocity": 70}, {"time": 2891, "pitch": 64, "duration": 14, "velocity": 62}, {"time": 2897, "pitch": 47, "duration": 37, "velocity": 63}, {"time": 2900, "pitch": 52, "duration": 17, "velocity": 61}, {"time": 2909, "pitch": 55, "duration": 16, "velocity": 65}, {"time": 2909, "pitch": 59, "duration": 15, "velocity": 67}, {"time": 2909, "pitch": 64, "duration": 15, "velocity": 60}, {"time": 2921, "pitch": 52, "duration": 9, "velocity": 60}, {"time": 2927, "pitch": 55, "duration": 8, "velocity": 74}, {"time": 2927, "pitch": 59, "duration": 7, "velocity": 74}, {"time": 2927, "pitch": 64, "duration": 7, "velocity": 67}, {"time": 2933, "pitch": 52, "duration": 6, "velocity": 55}, {"time": 2939, "pitch": 45, "duration": 42, "velocity": 72}, {"time": 2939, "pitch": 60, "duration": 15, "velocity": 71}, {"time": 2939, "pitch": 64, "duration": 15, "velocity": 81}, {"time": 2939, "pitch": 69, "duration": 15, "velocity": 67}, {"time": 2945, "pitch": 52, "duration": 37, "velocity": 50}, {"time": 2951, "pitch": 57, "duration": 11, "velocity": 53}, {"time": 2957, "pitch": 60, "duration": 15, "velocity": 72}, {"time": 2957, "pitch": 64, "duration": 14, "velocity": 75}, {"time": 2957, "pitch": 69, "duration": 14, "velocity": 70}, {"time": 2969, "pitch": 57, "duration": 7, "velocity": 58}, {"time": 2975, "pitch": 60, "duration": 7, "velocity": 73}, {"time": 2975, "pitch": 64, "duration": 7, "velocity": 71}, {"time": 2975, "pitch": 69, "duration": 7, "velocity": 64}, {"time": 2981, "pitch": 57, "duration": 7, "velocity": 61}, {"time": 2987, "pitch": 50, "duration": 38, "velocity": 74}, {"time": 2987, "pitch": 66, "duration": 14, "velocity": 81}, {"time": 2987, "pitch": 69, "duration": 14, "velocity": 83}, {"time": 2993, "pitch": 57, "duration": 30, "velocity": 60}, {"time": 2999, "pitch": 62, "duration": 12, "velocity": 60}, {"time": 3005, "pitch": 66, "duration": 16, "velocity": 76}, {"time": 3005, "pitch": 69, "duration": 15, "velocity": 74}, {"time": 3014, "pitch": 62, "duration": 6, "velocity": 61}, {"time": 3023, "pitch": 66, "duration": 4, "velocity": 93}, {"time": 3023, "pitch": 69, "duration": 3, "velocity": 74}, {"time": 3035, "pitch": 43, "duration": 41, "velocity": 75}, {"time": 3035, "pitch": 59, "duration": 15, "velocity": 73}, {"time": 3035, "pitch": 62, "duration": 15, "velocity": 79}, {"time": 3035, "pitch": 67, "duration": 15, "velocity": 85}, {"time": 3041, "pitch": 50, "duration": 36, "velocity": 61}, {"time": 3047, "pitch": 55, "duration": 10, "velocity": 60}, {"time": 3053, "pitch": 59, "duration": 15, "velocity": 77}, {"time": 3053, "pitch": 62, "duration": 15, "velocity": 86}, {"time": 3053, "pitch": 67, "duration": 15, "velocity": 90}, {"time": 3065, "pitch": 55, "duration": 9, "velocity": 66}, {"time": 3071, "pitch": 59, "duration": 8, "velocity": 79}, {"time": 3071, "pitch": 62, "duration": 7, "velocity": 87}, {"time": 3071, "pitch": 67, "duration": 7, "velocity": 90}, {"time": 3083, "pitch": 40, "duration": 43, "velocity": 76}, {"time": 3083, "pitch": 55, "duration": 15, "velocity": 72}, {"time": 3083, "pitch": 59, "duration": 15, "velocity": 70}, {"time": 3083, "pitch": 64, "duration": 15, "velocity": 63}, {"time": 3089, "pitch": 47, "duration": 36, "velocity": 67}, {"time": 3095, "pitch": 52, "duration": 10, "velocity": 63}, {"time": 3101, "pitch": 55, "duration": 16, "velocity": 75}, {"time": 3101, "pitch": 59, "duration": 15, "velocity": 81}, {"time": 3101, "pitch": 64, "duration": 15, "velocity": 77}, {"time": 3113, "pitch": 52, "duration": 9, "velocity": 60}, {"time": 3119, "pitch": 55, "duration": 8, "velocity": 79}, {"time": 3119, "pitch": 59, "duration": 8, "velocity": 81}, {"time": 3119, "pitch": 64, "duration": 8, "velocity": 72}, {"time": 3125, "pitch": 52, "duration": 6, "velocity": 65}, {"time": 3131, "pitch": 45, "duration": 41, "velocity": 65}, {"time": 3131, "pitch": 60, "duration": 13, "velocity": 64}, {"time": 3131, "pitch": 64, "duration": 14, "velocity": 62}, {"time": 3137, "pitch": 52, "duration": 34, "velocity": 67}, {"time": 3143, "pitch": 57, "duration": 9, "velocity": 63}, {"time": 3149, "pitch": 60, "duration": 16, "velocity": 76}, {"time": 3149, "pitch": 64, "duration": 16, "velocity": 86}, {"time": 3149, "pitch": 69, "duration": 15, "velocity": 77}, {"time": 3161, "pitch": 57, "duration": 8, "velocity": 67}, {"time": 3167, "pitch": 60, "duration": 14, "velocity": 83}, {"time": 3167, "pitch": 64, "duration": 13, "velocity": 87}, {"time": 3167, "pitch": 69, "duration": 13, "velocity": 85}, {"time": 3179, "pitch": 38, "duration": 39, "velocity": 93}, {"time": 3185, "pitch": 45, "duration": 34, "velocity": 59}, {"time": 3191, "pitch": 54, "duration": 9, "velocity": 100}, {"time": 3197, "pitch": 50, "duration": 14, "velocity": 76}, {"time": 3209, "pitch": 54, "duration": 9, "velocity": 81}, {"time": 3209, "pitch": 57, "duration": 8, "velocity": 63}, {"time": 3227, "pitch": 43, "duration": 45, "velocity": 92}, {"time": 3233, "pitch": 50, "duration": 3, "velocity": 97}, {"time": 3239, "pitch": 62, "duration": 8, "velocity": 90}, {"time": 3239, "pitch": 67, "duration": 7, "velocity": 95}, {"time": 3239, "pitch": 71, "duration": 8, "velocity": 85}, {"time": 3257, "pitch": 55, "duration": 5, "velocity": 90}, {"time": 3263, "pitch": 62, "duration": 7, "velocity": 90}, {"time": 3263, "pitch": 67, "duration": 7, "velocity": 95}, {"time": 3263, "pitch": 71, "duration": 7, "velocity": 85}, {"time": 3275, "pitch": 40, "duration": 38, "velocity": 82}, {"time": 3287, "pitch": 59, "duration": 8, "velocity": 92}, {"time": 3287, "pitch": 64, "duration": 7, "velocity": 89}, {"time": 3287, "pitch": 67, "duration": 7, "velocity": 82}, {"time": 3293, "pitch": 52, "duration": 9, "velocity": 95}, {"time": 3305, "pitch": 52, "duration": 5, "velocity": 95}, {"time": 3311, "pitch": 64, "duration": 10, "velocity": 102}, {"time": 3311, "pitch": 67, "duration": 10, "velocity": 97}, {"time": 3323, "pitch": 36, "duration": 36, "velocity": 92}, {"time": 3329, "pitch": 43, "duration": 7, "velocity": 97}, {"time": 3335, "pitch": 55, "duration": 3, "velocity": 93}, {"time": 3335, "pitch": 60, "duration": 3, "velocity": 97}, {"time": 3335, "pitch": 64, "duration": 4, "velocity": 93}, {"time": 3341, "pitch": 48, "duration": 9, "velocity": 88}, {"time": 3353, "pitch": 48, "duration": 8, "velocity": 88}, {"time": 3359, "pitch": 55, "duration": 6, "velocity": 97}, {"time": 3359, "pitch": 60, "duration": 3, "velocity": 112}, {"time": 3359, "pitch": 64, "duration": 3, "velocity": 97}, {"time": 3371, "pitch": 43, "duration": 40, "velocity": 86}, {"time": 3377, "pitch": 50, "duration": 39, "velocity": 63}, {"time": 3383, "pitch": 55, "duration": 15, "velocity": 100}, {"time": 3383, "pitch": 62, "duration": 5, "velocity": 100}, {"time": 3383, "pitch": 67, "duration": 6, "velocity": 100}, {"time": 3383, "pitch": 71, "duration": 6, "velocity": 100}, {"time": 3401, "pitch": 55, "duration": 7, "velocity": 102}, {"time": 3407, "pitch": 62, "duration": 4, "velocity": 100}, {"time": 3407, "pitch": 67, "duration": 4, "velocity": 117}, {"time": 3407, "pitch": 71, "duration": 9, "velocity": 112}, {"time": 3419, "pitch": 43, "duration": 46, "velocity": 81}, {"time": 3425, "pitch": 50, "duration": 41, "velocity": 34}, {"time": 3431, "pitch": 62, "duration": 4, "velocity": 90}, {"time": 3431, "pitch": 67, "duration": 4, "velocity": 99}, {"time": 3431, "pitch": 71, "duration": 5, "velocity": 93}, {"time": 3437, "pitch": 55, "duration": 8, "velocity": 97}, {"time": 3443, "pitch": 62, "duration": 2, "velocity": 100}, {"time": 3443, "pitch": 67, "duration": 2, "velocity": 100}, {"time": 3443, "pitch": 71, "duration": 3, "velocity": 97}, {"time": 3449, "pitch": 55, "duration": 7, "velocity": 93}, {"time": 3449, "pitch": 67, "duration": 2, "velocity": 96}, {"time": 3449, "pitch": 71, "duration": 3, "velocity": 90}, {"time": 3455, "pitch": 62, "duration": 5, "velocity": 95}, {"time": 3455, "pitch": 67, "duration": 4, "velocity": 95}, {"time": 3455, "pitch": 71, "duration": 5, "velocity": 93}, {"time": 3461, "pitch": 67, "duration": 3, "velocity": 99}, {"time": 3461, "pitch": 71, "duration": 3, "velocity": 99}, {"time": 3467, "pitch": 43, "duration": 37, "velocity": 74}, {"time": 3479, "pitch": 62, "duration": 3, "velocity": 97}, {"time": 3479, "pitch": 67, "duration": 3, "velocity": 96}, {"time": 3479, "pitch": 71, "duration": 3, "velocity": 88}, {"time": 3485, "pitch": 55, "duration": 10, "velocity": 71}, {"time": 3497, "pitch": 55, "duration": 5, "velocity": 88}, {"time": 3503, "pitch": 62, "duration": 3, "velocity": 97}, {"time": 3503, "pitch": 67, "duration": 5, "velocity": 102}, {"time": 3503, "pitch": 71, "duration": 5, "velocity": 99}, {"time": 3509, "pitch": 62, "duration": 2, "velocity": 75}, {"time": 3515, "pitch": 40, "duration": 39, "velocity": 83}, {"time": 3527, "pitch": 59, "duration": 7, "velocity": 93}, {"time": 3527, "pitch": 64, "duration": 7, "velocity": 95}, {"time": 3527, "pitch": 67, "duration": 8, "velocity": 83}, {"time": 3533, "pitch": 52, "duration": 5, "velocity": 97}, {"time": 3545, "pitch": 52, "duration": 11, "velocity": 102}, {"time": 3551, "pitch": 59, "duration": 4, "velocity": 97}, {"time": 3551, "pitch": 64, "duration": 7, "velocity": 112}, {"time": 3551, "pitch": 67, "duration": 7, "velocity": 112}, {"time": 3563, "pitch": 45, "duration": 38, "velocity": 82}, {"time": 3569, "pitch": 52, "duration": 31, "velocity": 72}, {"time": 3575, "pitch": 64, "duration": 6, "velocity": 86}, {"time": 3575, "pitch": 69, "duration": 6, "velocity": 88}, {"time": 3575, "pitch": 72, "duration": 6, "velocity": 81}, {"time": 3581, "pitch": 57, "duration": 9, "velocity": 102}, {"time": 3593, "pitch": 57, "duration": 6, "velocity": 122}, {"time": 3599, "pitch": 64, "duration": 8, "velocity": 76}, {"time": 3599, "pitch": 69, "duration": 5, "velocity": 127}, {"time": 3599, "pitch": 72, "duration": 5, "velocity": 107}, {"time": 3611, "pitch": 38, "duration": 36, "velocity": 88}, {"time": 3617, "pitch": 45, "duration": 30, "velocity": 51}, {"time": 3623, "pitch": 57, "duration": 11, "velocity": 98}, {"time": 3623, "pitch": 62, "duration": 10, "velocity": 98}, {"time": 3623, "pitch": 66, "duration": 10, "velocity": 98}, {"time": 3629, "pitch": 50, "duration": 9, "velocity": 89}, {"time": 3641, "pitch": 50, "duration": 9, "velocity": 99}, {"time": 3647, "pitch": 57, "duration": 7, "velocity": 96}, {"time": 3647, "pitch": 62, "duration": 7, "velocity": 117}, {"time": 3647, "pitch": 66, "duration": 7, "velocity": 127}, {"time": 3659, "pitch": 43, "duration": 39, "velocity": 66}, {"time": 3665, "pitch": 50, "duration": 31, "velocity": 73}, {"time": 3671, "pitch": 62, "duration": 10, "velocity": 86}, {"time": 3671, "pitch": 67, "duration": 9, "velocity": 86}, {"time": 3671, "pitch": 71, "duration": 9, "velocity": 83}, {"time": 3677, "pitch": 55, "duration": 9, "velocity": 92}, {"time": 3689, "pitch": 55, "duration": 6, "velocity": 97}, {"time": 3695, "pitch": 62, "duration": 4, "velocity": 102}, {"time": 3695, "pitch": 67, "duration": 10, "velocity": 122}, {"time": 3695, "pitch": 71, "duration": 10, "velocity": 117}, {"time": 3707, "pitch": 40, "duration": 40, "velocity": 90}, {"time": 3713, "pitch": 47, "duration": 34, "velocity": 65}, {"time": 3719, "pitch": 52, "duration": 11, "velocity": 60}, {"time": 3719, "pitch": 59, "duration": 11, "velocity": 86}, {"time": 3719, "pitch": 64, "duration": 10, "velocity": 89}, {"time": 3719, "pitch": 67, "duration": 10, "velocity": 81}, {"time": 3725, "pitch": 52, "duration": 5, "velocity": 86}, {"time": 3725, "pitch": 55, "duration": 15, "velocity": 79}, {"time": 3725, "pitch": 59, "duration": 5, "velocity": 83}, {"time": 3737, "pitch": 52, "duration": 8, "velocity": 60}, {"time": 3737, "pitch": 52, "duration": 8, "velocity": 93}, {"time": 3743, "pitch": 55, "duration": 8, "velocity": 79}, {"time": 3743, "pitch": 59, "duration": 8, "velocity": 81}, {"time": 3743, "pitch": 59, "duration": 8, "velocity": 82}, {"time": 3743, "pitch": 64, "duration": 7, "velocity": 83}, {"time": 3743, "pitch": 64, "duration": 7, "velocity": 102}, {"time": 3743, "pitch": 67, "duration": 8, "velocity": 97}, {"time": 3749, "pitch": 52, "duration": 6, "velocity": 58}, {"time": 3755, "pitch": 45, "duration": 38, "velocity": 87}, {"time": 3755, "pitch": 45, "duration": 38, "velocity": 95}, {"time": 3761, "pitch": 52, "duration": 8, "velocity": 66}, {"time": 3761, "pitch": 52, "duration": 8, "velocity": 88}, {"time": 3767, "pitch": 57, "duration": 11, "velocity": 92}, {"time": 3767, "pitch": 60, "duration": 10, "velocity": 83}, {"time": 3767, "pitch": 60, "duration": 10, "velocity": 93}, {"time": 3767, "pitch": 64, "duration": 11, "velocity": 92}, {"time": 3767, "pitch": 64, "duration": 11, "velocity": 93}, {"time": 3767, "pitch": 69, "duration": 14, "velocity": 81}, {"time": 3773, "pitch": 52, "duration": 9, "velocity": 62}, {"time": 3773, "pitch": 57, "duration": 5, "velocity": 59}, {"time": 3779, "pitch": 57, "duration": 8, "velocity": 78}, {"time": 3785, "pitch": 52, "duration": 7, "velocity": 100}, {"time": 3785, "pitch": 60, "duration": 9, "velocity": 76}, {"time": 3785, "pitch": 64, "duration": 9, "velocity": 87}, {"time": 3785, "pitch": 69, "duration": 9, "velocity": 83}, {"time": 3791, "pitch": 57, "duration": 12, "velocity": 64}, {"time": 3791, "pitch": 60, "duration": 3, "velocity": 127}, {"time": 3791, "pitch": 64, "duration": 3, "velocity": 107}, {"time": 3797, "pitch": 57, "duration": 6, "velocity": 90}, {"time": 3797, "pitch": 60, "duration": 1, "velocity": 64}, {"time": 3797, "pitch": 64, "duration": 1, "velocity": 67}, {"time": 3803, "pitch": 38, "duration": 51, "velocity": 89}, {"time": 3803, "pitch": 50, "duration": 44, "velocity": 79}, {"time": 3803, "pitch": 62, "duration": 15, "velocity": 68}, {"time": 3803, "pitch": 66, "duration": 15, "velocity": 79}, {"time": 3809, "pitch": 45, "duration": 44, "velocity": 33}, {"time": 3815, "pitch": 54, "duration": 32, "velocity": 59}, {"time": 3815, "pitch": 57, "duration": 17, "velocity": 89}, {"time": 3815, "pitch": 62, "duration": 3, "velocity": 89}, {"time": 3815, "pitch": 66, "duration": 3, "velocity": 102}, {"time": 3821, "pitch": 50, "duration": 26, "velocity": 95}, {"time": 3821, "pitch": 62, "duration": 12, "velocity": 86}, {"time": 3821, "pitch": 67, "duration": 3, "velocity": 87}, {"time": 3821, "pitch": 69, "duration": 15, "velocity": 71}, {"time": 3833, "pitch": 57, "duration": 9, "velocity": 102}, {"time": 3839, "pitch": 62, "duration": 9, "velocity": 104}, {"time": 3839, "pitch": 62, "duration": 9, "velocity": 127}, {"time": 3839, "pitch": 66, "duration": 9, "velocity": 100}, {"time": 3839, "pitch": 66, "duration": 9, "velocity": 127}, {"time": 3839, "pitch": 69, "duration": 9, "velocity": 81}, {"time": 3845, "pitch": 57, "duration": 8, "velocity": 100}, {"time": 3851, "pitch": 43, "duration": 37, "velocity": 76}, {"time": 3851, "pitch": 43, "duration": 37, "velocity": 93}, {"time": 3851, "pitch": 59, "duration": 14, "velocity": 81}, {"time": 3851, "pitch": 62, "duration": 2, "velocity": 86}, {"time": 3851, "pitch": 67, "duration": 13, "velocity": 74}, {"time": 3857, "pitch": 50, "duration": 31, "velocity": 67}, {"time": 3857, "pitch": 50, "duration": 31, "velocity": 76}, {"time": 3863, "pitch": 55, "duration": 10, "velocity": 63}, {"time": 3863, "pitch": 67, "duration": 1, "velocity": 102}, {"time": 3863, "pitch": 71, "duration": 21, "velocity": 107}, {"time": 3869, "pitch": 59, "duration": 16, "velocity": 90}, {"time": 3869, "pitch": 62, "duration": 16, "velocity": 95}, {"time": 3869, "pitch": 67, "duration": 15, "velocity": 98}, {"time": 3881, "pitch": 55, "duration": 7, "velocity": 59}, {"time": 3881, "pitch": 55, "duration": 7, "velocity": 102}, {"time": 3887, "pitch": 59, "duration": 6, "velocity": 77}, {"time": 3887, "pitch": 62, "duration": 6, "velocity": 85}, {"time": 3887, "pitch": 67, "duration": 6, "velocity": 87}, {"time": 3887, "pitch": 67, "duration": 6, "velocity": 122}, {"time": 3887, "pitch": 71, "duration": 10, "velocity": 99}, {"time": 3893, "pitch": 62, "duration": 4, "velocity": 86}, {"time": 3899, "pitch": 40, "duration": 36, "velocity": 77}, {"time": 3899, "pitch": 40, "duration": 36, "velocity": 81}, {"time": 3899, "pitch": 55, "duration": 14, "velocity": 73}, {"time": 3899, "pitch": 59, "duration": 14, "velocity": 74}, {"time": 3899, "pitch": 64, "duration": 14, "velocity": 79}, {"time": 3905, "pitch": 47, "duration": 37, "velocity": 67}, {"time": 3911, "pitch": 52, "duration": 13, "velocity": 63}, {"time": 3911, "pitch": 64, "duration": 2, "velocity": 93}, {"time": 3911, "pitch": 67, "duration": 16, "velocity": 93}, {"time": 3911, "pitch": 71, "duration": 16, "velocity": 88}, {"time": 3917, "pitch": 52, "duration": 7, "velocity": 81}, {"time": 3917, "pitch": 55, "duration": 15, "velocity": 93}, {"time": 3917, "pitch": 59, "duration": 15, "velocity": 95}, {"time": 3917, "pitch": 64, "duration": 10, "velocity": 98}, {"time": 3929, "pitch": 52, "duration": 7, "velocity": 73}, {"time": 3929, "pitch": 52, "duration": 7, "velocity": 90}, {"time": 3935, "pitch": 55, "duration": 7, "velocity": 87}, {"time": 3935, "pitch": 59, "duration": 7, "velocity": 83}, {"time": 3935, "pitch": 64, "duration": 3, "velocity": 81}, {"time": 3935, "pitch": 64, "duration": 3, "velocity": 97}, {"time": 3935, "pitch": 67, "duration": 3, "velocity": 100}, {"time": 3935, "pitch": 71, "duration": 3, "velocity": 102}, {"time": 3941, "pitch": 52, "duration": 6, "velocity": 60}, {"time": 3947, "pitch": 45, "duration": 37, "velocity": 60}, {"time": 3947, "pitch": 45, "duration": 37, "velocity": 90}, {"time": 3947, "pitch": 60, "duration": 15, "velocity": 83}, {"time": 3947, "pitch": 64, "duration": 15, "velocity": 93}, {"time": 3947, "pitch": 69, "duration": 15, "velocity": 77}, {"time": 3953, "pitch": 52, "duration": 13, "velocity": 64}, {"time": 3953, "pitch": 52, "duration": 13, "velocity": 95}, {"time": 3959, "pitch": 57, "duration": 9, "velocity": 62}, {"time": 3959, "pitch": 57, "duration": 9, "velocity": 92}, {"time": 3959, "pitch": 60, "duration": 3, "velocity": 99}, {"time": 3959, "pitch": 64, "duration": 3, "velocity": 88}, {"time": 3965, "pitch": 60, "duration": 10, "velocity": 86}, {"time": 3965, "pitch": 64, "duration": 10, "velocity": 86}, {"time": 3965, "pitch": 69, "duration": 14, "velocity": 76}, {"time": 3977, "pitch": 52, "duration": 7, "velocity": 86}, {"time": 3977, "pitch": 57, "duration": 11, "velocity": 63}, {"time": 3983, "pitch": 57, "duration": 5, "velocity": 77}, {"time": 3983, "pitch": 60, "duration": 8, "velocity": 85}, {"time": 3983, "pitch": 60, "duration": 8, "velocity": 112}, {"time": 3983, "pitch": 64, "duration": 6, "velocity": 86}, {"time": 3983, "pitch": 64, "duration": 6, "velocity": 100}, {"time": 3983, "pitch": 69, "duration": 5, "velocity": 74}, {"time": 3995, "pitch": 38, "duration": 32, "velocity": 92}, {"time": 3995, "pitch": 50, "duration": 33, "velocity": 75}, {"time": 3995, "pitch": 62, "duration": 14, "velocity": 73}, {"time": 3995, "pitch": 66, "duration": 14, "velocity": 81}, {"time": 4001, "pitch": 45, "duration": 31, "velocity": 55}, {"time": 4007, "pitch": 57, "duration": 16, "velocity": 99}, {"time": 4007, "pitch": 62, "duration": 2, "velocity": 99}, {"time": 4007, "pitch": 66, "duration": 2, "velocity": 117}, {"time": 4007, "pitch": 69, "duration": 3, "velocity": 61}, {"time": 4013, "pitch": 50, "duration": 15, "velocity": 93}, {"time": 4013, "pitch": 62, "duration": 9, "velocity": 77}, {"time": 4013, "pitch": 66, "duration": 9, "velocity": 85}, {"time": 4013, "pitch": 69, "duration": 16, "velocity": 76}, {"time": 4025, "pitch": 50, "duration": 3, "velocity": 81}, {"time": 4028, "pitch": 38, "duration": 3, "velocity": 97}, {"time": 4031, "pitch": 57, "duration": 3, "velocity": 97}, {"time": 4031, "pitch": 62, "duration": 2, "velocity": 83}, {"time": 4031, "pitch": 62, "duration": 2, "velocity": 107}, {"time": 4031, "pitch": 66, "duration": 2, "velocity": 108}, {"time": 4031, "pitch": 66, "duration": 2, "velocity": 117}, {"time": 4031, "pitch": 69, "duration": 4, "velocity": 63}, {"time": 4037, "pitch": 38, "duration": 3, "velocity": 97}, {"time": 4043, "pitch": 43, "duration": 38, "velocity": 70}, {"time": 4043, "pitch": 43, "duration": 38, "velocity": 90}, {"time": 4043, "pitch": 59, "duration": 14, "velocity": 64}, {"time": 4043, "pitch": 62, "duration": 15, "velocity": 79}, {"time": 4043, "pitch": 67, "duration": 15, "velocity": 76}, {"time": 4049, "pitch": 50, "duration": 32, "velocity": 64}, {"time": 4049, "pitch": 50, "duration": 32, "velocity": 65}, {"time": 4055, "pitch": 55, "duration": 13, "velocity": 60}, {"time": 4055, "pitch": 55, "duration": 13, "velocity": 96}, {"time": 4055, "pitch": 62, "duration": 3, "velocity": 97}, {"time": 4055, "pitch": 67, "duration": 3, "velocity": 100}, {"time": 4055, "pitch": 71, "duration": 16, "velocity": 96}, {"time": 4061, "pitch": 59, "duration": 15, "velocity": 86}, {"time": 4061, "pitch": 62, "duration": 9, "velocity": 86}, {"time": 4061, "pitch": 67, "duration": 10, "velocity": 90}, {"time": 4073, "pitch": 55, "duration": 7, "velocity": 65}, {"time": 4073, "pitch": 55, "duration": 7, "velocity": 107}, {"time": 4079, "pitch": 59, "duration": 5, "velocity": 81}, {"time": 4079, "pitch": 62, "duration": 3, "velocity": 83}, {"time": 4079, "pitch": 62, "duration": 3, "velocity": 86}, {"time": 4079, "pitch": 67, "duration": 5, "velocity": 93}, {"time": 4079, "pitch": 67, "duration": 5, "velocity": 127}, {"time": 4079, "pitch": 71, "duration": 8, "velocity": 127}, {"time": 4085, "pitch": 55, "duration": 2, "velocity": 54}, {"time": 4091, "pitch": 40, "duration": 37, "velocity": 75}, {"time": 4091, "pitch": 40, "duration": 37, "velocity": 92}, {"time": 4091, "pitch": 55, "duration": 15, "velocity": 67}, {"time": 4091, "pitch": 59, "duration": 15, "velocity": 83}, {"time": 4091, "pitch": 64, "duration": 15, "velocity": 79}, {"time": 4097, "pitch": 47, "duration": 32, "velocity": 48}, {"time": 4097, "pitch": 47, "duration": 32, "velocity": 76}, {"time": 4103, "pitch": 52, "duration": 9, "velocity": 63}, {"time": 4103, "pitch": 52, "duration": 9, "velocity": 97}, {"time": 4103, "pitch": 64, "duration": 3, "velocity": 83}, {"time": 4103, "pitch": 67, "duration": 14, "velocity": 74}, {"time": 4103, "pitch": 71, "duration": 14, "velocity": 70}, {"time": 4109, "pitch": 55, "duration": 15, "velocity": 95}, {"time": 4109, "pitch": 59, "duration": 15, "velocity": 93}, {"time": 4109, "pitch": 64, "duration": 8, "velocity": 79}, {"time": 4121, "pitch": 52, "duration": 10, "velocity": 62}, {"time": 4121, "pitch": 52, "duration": 10, "velocity": 96}, {"time": 4127, "pitch": 55, "duration": 5, "velocity": 81}, {"time": 4127, "pitch": 59, "duration": 5, "velocity": 77}, {"time": 4127, "pitch": 64, "duration": 5, "velocity": 77}, {"time": 4127, "pitch": 64, "duration": 5, "velocity": 99}, {"time": 4127, "pitch": 67, "duration": 11, "velocity": 117}, {"time": 4127, "pitch": 71, "duration": 11, "velocity": 112}, {"time": 4139, "pitch": 45, "duration": 13, "velocity": 70}, {"time": 4139, "pitch": 45, "duration": 13, "velocity": 96}, {"time": 4139, "pitch": 60, "duration": 14, "velocity": 79}, {"time": 4139, "pitch": 60, "duration": 14, "velocity": 96}, {"time": 4139, "pitch": 64, "duration": 18, "velocity": 86}, {"time": 4139, "pitch": 64, "duration": 18, "velocity": 97}, {"time": 4139, "pitch": 69, "duration": 19, "velocity": 75}, {"time": 4145, "pitch": 52, "duration": 7, "velocity": 59}, {"time": 4145, "pitch": 52, "duration": 7, "velocity": 100}, {"time": 4151, "pitch": 57, "duration": 11, "velocity": 71}, {"time": 4151, "pitch": 57, "duration": 11, "velocity": 117}, {"time": 4157, "pitch": 60, "duration": 5, "velocity": 95}, {"time": 4163, "pitch": 38, "duration": 23, "velocity": 85}, {"time": 4163, "pitch": 50, "duration": 20, "velocity": 67}, {"time": 4163, "pitch": 57, "duration": 10, "velocity": 88}, {"time": 4163, "pitch": 62, "duration": 10, "velocity": 96}, {"time": 4163, "pitch": 66, "duration": 10, "velocity": 79}, {"time": 4163, "pitch": 66, "duration": 10, "velocity": 95}, {"time": 4163, "pitch": 69, "duration": 15, "velocity": 76}, {"time": 4169, "pitch": 45, "duration": 18, "velocity": 92}, {"time": 4175, "pitch": 50, "duration": 8, "velocity": 95}, {"time": 4175, "pitch": 62, "duration": 11, "velocity": 107}, {"time": 4175, "pitch": 66, "duration": 3, "velocity": 122}, {"time": 4181, "pitch": 57, "duration": 5, "velocity": 90}, {"time": 4181, "pitch": 66, "duration": 6, "velocity": 63}, {"time": 4181, "pitch": 69, "duration": 7, "velocity": 59}, {"time": 4187, "pitch": 43, "duration": 45, "velocity": 79}, {"time": 4193, "pitch": 50, "duration": 39, "velocity": 62}, {"time": 4199, "pitch": 59, "duration": 3, "velocity": 65}, {"time": 4199, "pitch": 62, "duration": 3, "velocity": 63}, {"time": 4199, "pitch": 67, "duration": 3, "velocity": 69}, {"time": 4205, "pitch": 59, "duration": 15, "velocity": 74}, {"time": 4205, "pitch": 62, "duration": 16, "velocity": 79}, {"time": 4205, "pitch": 67, "duration": 16, "velocity": 81}, {"time": 4217, "pitch": 55, "duration": 12, "velocity": 58}, {"time": 4223, "pitch": 59, "duration": 10, "velocity": 83}, {"time": 4223, "pitch": 62, "duration": 9, "velocity": 87}, {"time": 4223, "pitch": 62, "duration": 9, "velocity": 104}, {"time": 4223, "pitch": 66, "duration": 9, "velocity": 100}, {"time": 4223, "pitch": 67, "duration": 9, "velocity": 81}, {"time": 4223, "pitch": 69, "duration": 9, "velocity": 81}, {"time": 4235, "pitch": 43, "duration": 37, "velocity": 93}, {"time": 4241, "pitch": 50, "duration": 31, "velocity": 67}, {"time": 4247, "pitch": 67, "duration": 21, "velocity": 102}, {"time": 4247, "pitch": 71, "duration": 21, "velocity": 107}, {"time": 4253, "pitch": 62, "duration": 16, "velocity": 95}, {"time": 4265, "pitch": 55, "duration": 7, "velocity": 102}, {"time": 4271, "pitch": 67, "duration": 10, "velocity": 122}, {"time": 4271, "pitch": 71, "duration": 10, "velocity": 99}, {"time": 4277, "pitch": 62, "duration": 4, "velocity": 86}, {"time": 4283, "pitch": 40, "duration": 36, "velocity": 81}, {"time": 4295, "pitch": 64, "duration": 16, "velocity": 93}, {"time": 4295, "pitch": 67, "duration": 16, "velocity": 93}, {"time": 4295, "pitch": 71, "duration": 16, "velocity": 88}, {"time": 4301, "pitch": 52, "duration": 9, "velocity": 81}, {"time": 4313, "pitch": 52, "duration": 9, "velocity": 90}, {"time": 4319, "pitch": 64, "duration": 3, "velocity": 97}, {"time": 4319, "pitch": 67, "duration": 3, "velocity": 100}, {"time": 4319, "pitch": 71, "duration": 3, "velocity": 102}, {"time": 4331, "pitch": 45, "duration": 37, "velocity": 90}, {"time": 4337, "pitch": 52, "duration": 13, "velocity": 95}, {"time": 4343, "pitch": 57, "duration": 16, "velocity": 92}, {"time": 4343, "pitch": 60, "duration": 16, "velocity": 99}, {"time": 4343, "pitch": 64, "duration": 16, "velocity": 88}, {"time": 4361, "pitch": 52, "duration": 7, "velocity": 86}, {"time": 4367, "pitch": 57, "duration": 5, "velocity": 77}, {"time": 4367, "pitch": 60, "duration": 8, "velocity": 112}, {"time": 4367, "pitch": 64, "duration": 6, "velocity": 100}, {"time": 4379, "pitch": 38, "duration": 32, "velocity": 92}, {"time": 4385, "pitch": 45, "duration": 31, "velocity": 55}, {"time": 4391, "pitch": 57, "duration": 16, "velocity": 99}, {"time": 4391, "pitch": 62, "duration": 15, "velocity": 99}, {"time": 4391, "pitch": 66, "duration": 15, "velocity": 117}, {"time": 4397, "pitch": 50, "duration": 15, "velocity": 93}, {"time": 4409, "pitch": 50, "duration": 3, "velocity": 81}, {"time": 4412, "pitch": 38, "duration": 3, "velocity": 97}, {"time": 4415, "pitch": 57, "duration": 3, "velocity": 97}, {"time": 4415, "pitch": 62, "duration": 2, "velocity": 107}, {"time": 4415, "pitch": 66, "duration": 2, "velocity": 117}, {"time": 4421, "pitch": 38, "duration": 3, "velocity": 97}, {"time": 4427, "pitch": 43, "duration": 38, "velocity": 90}, {"time": 4433, "pitch": 50, "duration": 32, "velocity": 65}, {"time": 4439, "pitch": 55, "duration": 15, "velocity": 96}, {"time": 4439, "pitch": 62, "duration": 15, "velocity": 97}, {"time": 4439, "pitch": 67, "duration": 16, "velocity": 100}, {"time": 4439, "pitch": 71, "duration": 16, "velocity": 96}, {"time": 4457, "pitch": 55, "duration": 7, "velocity": 65}, {"time": 4457, "pitch": 55, "duration": 7, "velocity": 107}, {"time": 4463, "pitch": 59, "duration": 5, "velocity": 81}, {"time": 4463, "pitch": 62, "duration": 3, "velocity": 83}, {"time": 4463, "pitch": 62, "duration": 3, "velocity": 86}, {"time": 4463, "pitch": 67, "duration": 5, "velocity": 93}, {"time": 4463, "pitch": 67, "duration": 5, "velocity": 127}, {"time": 4463, "pitch": 71, "duration": 8, "velocity": 127}, {"time": 4469, "pitch": 55, "duration": 2, "velocity": 54}, {"time": 4475, "pitch": 40, "duration": 37, "velocity": 75}, {"time": 4475, "pitch": 40, "duration": 37, "velocity": 92}, {"time": 4475, "pitch": 55, "duration": 15, "velocity": 67}, {"time": 4475, "pitch": 59, "duration": 15, "velocity": 83}, {"time": 4475, "pitch": 64, "duration": 15, "velocity": 79}, {"time": 4481, "pitch": 47, "duration": 32, "velocity": 48}, {"time": 4481, "pitch": 47, "duration": 32, "velocity": 76}, {"time": 4487, "pitch": 52, "duration": 9, "velocity": 63}, {"time": 4487, "pitch": 52, "duration": 9, "velocity": 97}, {"time": 4487, "pitch": 64, "duration": 3, "velocity": 83}, {"time": 4487, "pitch": 67, "duration": 14, "velocity": 74}, {"time": 4487, "pitch": 71, "duration": 14, "velocity": 70}, {"time": 4493, "pitch": 55, "duration": 15, "velocity": 95}, {"time": 4493, "pitch": 59, "duration": 15, "velocity": 93}, {"time": 4493, "pitch": 64, "duration": 8, "velocity": 79}, {"time": 4505, "pitch": 52, "duration": 10, "velocity": 62}, {"time": 4505, "pitch": 52, "duration": 10, "velocity": 96}, {"time": 4511, "pitch": 55, "duration": 5, "velocity": 81}, {"time": 4511, "pitch": 59, "duration": 5, "velocity": 77}, {"time": 4511, "pitch": 64, "duration": 5, "velocity": 77}, {"time": 4511, "pitch": 64, "duration": 5, "velocity": 99}, {"time": 4511, "pitch": 67, "duration": 11, "velocity": 117}, {"time": 4511, "pitch": 71, "duration": 11, "velocity": 112}, {"time": 4523, "pitch": 45, "duration": 13, "velocity": 70}, {"time": 4523, "pitch": 45, "duration": 13, "velocity": 96}, {"time": 4523, "pitch": 60, "duration": 14, "velocity": 79}, {"time": 4523, "pitch": 60, "duration": 14, "velocity": 96}, {"time": 4523, "pitch": 64, "duration": 18, "velocity": 86}, {"time": 4523, "pitch": 64, "duration": 18, "velocity": 97}, {"time": 4523, "pitch": 69, "duration": 19, "velocity": 75}, {"time": 4529, "pitch": 52, "duration": 7, "velocity": 59}, {"time": 4529, "pitch": 52, "duration": 7, "velocity": 100}, {"time": 4535, "pitch": 57, "duration": 11, "velocity": 71}, {"time": 4535, "pitch": 57, "duration": 11, "velocity": 117}, {"time": 4541, "pitch": 60, "duration": 5, "velocity": 95}, {"time": 4547, "pitch": 38, "duration": 23, "velocity": 85}, {"time": 4547, "pitch": 50, "duration": 20, "velocity": 67}, {"time": 4547, "pitch": 57, "duration": 10, "velocity": 88}, {"time": 4547, "pitch": 62, "duration": 10, "velocity": 96}, {"time": 4547, "pitch": 66, "duration": 10, "velocity": 79}, {"time": 4547, "pitch": 66, "duration": 10, "velocity": 95}, {"time": 4547, "pitch": 69, "duration": 15, "velocity": 76}, {"time": 4553, "pitch": 45, "duration": 18, "velocity": 92}, {"time": 4559, "pitch": 50, "duration": 8, "velocity": 95}, {"time": 4559, "pitch": 62, "duration": 11, "velocity": 107}, {"time": 4559, "pitch": 66, "duration": 3, "velocity": 122}, {"time": 4565, "pitch": 57, "duration": 5, "velocity": 90}, {"time": 4565, "pitch": 66, "duration": 6, "velocity": 63}, {"time": 4565, "pitch": 69, "duration": 7, "velocity": 59}, {"time": 4571, "pitch": 43, "duration": 45, "velocity": 79}, {"time": 4577, "pitch": 50, "duration": 39, "velocity": 62}, {"time": 4583, "pitch": 59, "duration": 57, "velocity": 65}, {"time": 4619, "pitch": 43, "duration": 44, "velocity": 74}, {"time": 4619, "pitch": 59, "duration": 21, "velocity": 59}, {"time": 4625, "pitch": 50, "duration": 35, "velocity": 72}, {"time": 4637, "pitch": 62, "duration": 24, "velocity": 79}, {"time": 4661, "pitch": 59, "duration": 8, "velocity": 63}, {"time": 4667, "pitch": 40, "duration": 38, "velocity": 77}, {"time": 4673, "pitch": 47, "duration": 34, "velocity": 69}, {"time": 4679, "pitch": 52, "duration": 31, "velocity": 59}, {"time": 4685, "pitch": 55, "duration": 14, "velocity": 66}, {"time": 4697, "pitch": 59, "duration": 13, "velocity": 65}, {"time": 4709, "pitch": 55, "duration": 6, "velocity": 65}, {"time": 4715, "pitch": 45, "duration": 39, "velocity": 79}, {"time": 4721, "pitch": 52, "duration": 33, "velocity": 61}, {"time": 4727, "pitch": 57, "duration": 27, "velocity": 56}, {"time": 4733, "pitch": 60, "duration": 19, "velocity": 63}, {"time": 4739, "pitch": 50, "duration": 52, "velocity": 62}, {"time": 4739, "pitch": 62, "duration": 52, "velocity": 58}, {"time": 4739, "pitch": 66, "duration": 51, "velocity": 59}, {"time": 4739, "pitch": 69, "duration": 50, "velocity": 58}, {"time": 4799, "pitch": 66, "duration": 8, "velocity": 93}, {"time": 4799, "pitch": 69, "duration": 7, "velocity": 79}, {"time": 4799, "pitch": 74, "duration": 7, "velocity": 75}, {"time": 4811, "pitch": 43, "duration": 42, "velocity": 63}, {"time": 4817, "pitch": 50, "duration": 33, "velocity": 63}, {"time": 4823, "pitch": 59, "duration": 16, "velocity": 81}, {"time": 4823, "pitch": 62, "duration": 16, "velocity": 90}, {"time": 4823, "pitch": 67, "duration": 16, "velocity": 93}, {"time": 4829, "pitch": 55, "duration": 9, "velocity": 59}, {"time": 4841, "pitch": 55, "duration": 9, "velocity": 59}, {"time": 4847, "pitch": 59, "duration": 6, "velocity": 79}, {"time": 4847, "pitch": 62, "duration": 6, "velocity": 90}, {"time": 4847, "pitch": 67, "duration": 6, "velocity": 95}, {"time": 4859, "pitch": 40, "duration": 41, "velocity": 73}, {"time": 4865, "pitch": 47, "duration": 36, "velocity": 60}, {"time": 4871, "pitch": 55, "duration": 15, "velocity": 79}, {"time": 4871, "pitch": 59, "duration": 15, "velocity": 81}, {"time": 4871, "pitch": 64, "duration": 15, "velocity": 83}, {"time": 4877, "pitch": 52, "duration": 13, "velocity": 64}, {"time": 4889, "pitch": 52, "duration": 1, "velocity": 60}, {"time": 4895, "pitch": 55, "duration": 7, "velocity": 90}, {"time": 4895, "pitch": 59, "duration": 7, "velocity": 83}, {"time": 4895, "pitch": 64, "duration": 7, "velocity": 77}, {"time": 4901, "pitch": 52, "duration": 4, "velocity": 73}, {"time": 4907, "pitch": 45, "duration": 49, "velocity": 72}, {"time": 4913, "pitch": 52, "duration": 44, "velocity": 58}, {"time": 4919, "pitch": 60, "duration": 16, "velocity": 77}, {"time": 4919, "pitch": 64, "duration": 16, "velocity": 90}, {"time": 4919, "pitch": 69, "duration": 16, "velocity": 85}, {"time": 4925, "pitch": 57, "duration": 15, "velocity": 58}, {"time": 4937, "pitch": 57, "duration": 3, "velocity": 60}, {"time": 4943, "pitch": 60, "duration": 9, "velocity": 83}, {"time": 4943, "pitch": 64, "duration": 9, "velocity": 85}, {"time": 4943, "pitch": 69, "duration": 9, "velocity": 77}, {"time": 4955, "pitch": 50, "duration": 54, "velocity": 83}, {"time": 4961, "pitch": 57, "duration": 49, "velocity": 59}, {"time": 4967, "pitch": 66, "duration": 15, "velocity": 98}, {"time": 4967, "pitch": 69, "duration": 14, "velocity": 85}, {"time": 4967, "pitch": 74, "duration": 13, "velocity": 76}, {"time": 4973, "pitch": 62, "duration": 29, "velocity": 58}, {"time": 4985, "pitch": 54, "duration": 26, "velocity": 74}, {"time": 4991, "pitch": 66, "duration": 10, "velocity": 90}, {"time": 4991, "pitch": 69, "duration": 10, "velocity": 77}, {"time": 4991, "pitch": 74, "duration": 9, "velocity": 75}, {"time": 5003, "pitch": 62, "duration": 6, "velocity": 74}, {"time": 5003, "pitch": 66, "duration": 7, "velocity": 87}, {"time": 5003, "pitch": 69, "duration": 7, "velocity": 85}, {"time": 5003, "pitch": 74, "duration": 6, "velocity": 67}, {"time": 5048, "pitch": 59, "duration": 42, "velocity": 50}, {"time": 5051, "pitch": 43, "duration": 98, "velocity": 67}, {"time": 5051, "pitch": 62, "duration": 41, "velocity": 62}, {"time": 5051, "pitch": 67, "duration": 41, "velocity": 63}, {"time": 5054, "pitch": 50, "duration": 94, "velocity": 71}, {"time": 5063, "pitch": 55, "duration": 84, "velocity": 59}], "annotations": [{"time": 60, "annotation": {"number": 64, "value": 73}, "group": "control_change"}, {"time": 96, "annotation": {"number": 64, "value": 74}, "group": "control_change"}, {"time": 108, "annotation": {"number": 64, "value": 75}, "group": "control_change"}, {"time": 1211, "annotation": {"number": 64, "value": 127}, "group": "control_change"}, {"time": 1232, "annotation": {"number": 64, "value": 0}, "group": "control_change"}, {"time": 1235, "annotation": {"number": 64, "value": 127}, "group": "control_change"}, {"time": 1255, "annotation": {"number": 64, "value": 0}, "group": "control_change"}, {"time": 1259, "annotation": {"number": 64, "value": 127}, "group": "control_change"}, {"time": 1281, "annotation": {"number": 64, "value": 0}, "group": "control_change"}, {"time": 1284, "annotation": {"number": 64, "value": 127}, "group": "control_change"}, {"time": 1305, "annotation": {"number": 64, "value": 0}, "group": "control_change"}, {"time": 1307, "annotation": {"number": 64, "value": 127}, "group": "control_change"}, {"time": 1330, "annotation": {"number": 64, "value": 0}, "group": "control_change"}, {"time": 1331, "annotation": {"number": 64, "value": 127}, "group": "control_change"}, {"time": 1353, "annotation": {"number": 64, "value": 0}, "group": "control_change"}, {"time": 1355, "annotation": {"number": 64, "value": 127}, "group": "control_change"}, {"time": 1377, "annotation": {"number": 64, "value": 0}, "group": "control_change"}, {"time": 1379, "annotation": {"number": 64, "value": 127}, "group": "control_change"}, {"time": 1397, "annotation": {"number": 64, "value": 0}, "group": "control_change"}, {"time": 1403, "annotation": {"number": 64, "value": 127}, "group": "control_change"}, {"time": 1449, "annotation": {"number": 64, "value": 0}, "group": "control_change"}, {"time": 1451, "annotation": {"number": 64, "value": 127}, "group": "control_change"}, {"time": 1497, "annotation": {"number": 64, "value": 0}, "group": "control_change"}, {"time": 1500, "annotation": {"number": 64, "value": 127}, "group": "control_change"}, {"time": 1531, "annotation": {"number": 64, "value": 0}, "group": "control_change"}, {"time": 1535, "annotation": {"number": 64, "value": 127}, "group": "control_change"}, {"time": 1546, "annotation": {"number": 64, "value": 0}, "group": "control_change"}, {"time": 1547, "annotation": {"number": 64, "value": 127}, "group": "control_change"}, {"time": 1592, "annotation": {"number": 64, "value": 0}, "group": "control_change"}, {"time": 1596, "annotation": {"number": 64, "value": 127}, "group": "control_change"}, {"time": 1630, "annotation": {"number": 64, "value": 0}, "group": "control_change"}, {"time": 1631, "annotation": {"number": 64, "value": 127}, "group": "control_change"}, {"time": 1640, "annotation": {"number": 64, "value": 0}, "group": "control_change"}, {"time": 1643, "annotation": {"number": 64, "value": 127}, "group": "control_change"}, {"time": 1665, "annotation": {"number": 64, "value": 0}, "group": "control_change"}, {"time": 1668, "annotation": {"number": 64, "value": 127}, "group": "control_change"}, {"time": 1687, "annotation": {"number": 64, "value": 0}, "group": "control_change"}, {"time": 1691, "annotation": {"number": 64, "value": 127}, "group": "control_change"}, {"time": 1737, "annotation": {"number": 64, "value": 0}, "group": "control_change"}, {"time": 1741, "annotation": {"number": 64, "value": 127}, "group": "control_change"}, {"time": 1785, "annotation": {"number": 64, "value": 0}, "group": "control_change"}, {"time": 1787, "annotation": {"number": 64, "value": 127}, "group": "control_change"}, {"time": 1808, "annotation": {"number": 64, "value": 0}, "group": "control_change"}, {"time": 1811, "annotation": {"number": 64, "value": 127}, "group": "control_change"}, {"time": 1831, "annotation": {"number": 64, "value": 0}, "group": "control_change"}, {"time": 1836, "annotation": {"number": 64, "value": 127}, "group": "control_change"}, {"time": 1856, "annotation": {"number": 64, "value": 0}, "group": "control_change"}, {"time": 1859, "annotation": {"number": 64, "value": 127}, "group": "control_change"}, {"time": 1881, "annotation": {"number": 64, "value": 0}, "group": "control_change"}, {"time": 1883, "annotation": {"number": 64, "value": 127}, "group": "control_change"}, {"time": 1903, "annotation": {"number": 64, "value": 0}, "group": "control_change"}, {"time": 1905, "annotation": {"number": 64, "value": 127}, "group": "control_change"}, {"time": 1928, "annotation": {"number": 64, "value": 0}, "group": "control_change"}, {"time": 1932, "annotation": {"number": 64, "value": 127}, "group": "control_change"}, {"time": 1949, "annotation": {"number": 64, "value": 0}, "group": "control_change"}, {"time": 1951, "annotation": {"number": 64, "value": 127}, "group": "control_change"}, {"time": 1976, "annotation": {"number": 64, "value": 0}, "group": "control_change"}, {"time": 1980, "annotation": {"number": 64, "value": 127}, "group": "control_change"}, {"time": 2025, "annotation": {"number": 64, "value": 0}, "group": "control_change"}, {"time": 2027, "annotation": {"number": 64, "value": 127}, "group": "control_change"}, {"time": 2070, "annotation": {"number": 64, "value": 0}, "group": "control_change"}, {"time": 2075, "annotation": {"number": 64, "value": 127}, "group": "control_change"}, {"time": 2120, "annotation": {"number": 64, "value": 0}, "group": "control_change"}, {"time": 2124, "annotation": {"number": 64, "value": 127}, "group": "control_change"}, {"time": 2145, "annotation": {"number": 64, "value": 0}, "group": "control_change"}, {"time": 2149, "annotation": {"number": 64, "value": 127}, "group": "control_change"}, {"time": 2167, "annotation": {"number": 64, "value": 0}, "group": "control_change"}, {"time": 3248, "annotation": {"number": 64, "value": 0}, "group": "control_change"}, {"time": 3251, "annotation": {"number": 64, "value": 127}, "group": "control_change"}, {"time": 3271, "annotation": {"number": 64, "value": 0}, "group": "control_change"}, {"time": 3275, "annotation": {"number": 64, "value": 127}, "group": "control_change"}, {"time": 3297, "annotation": {"number": 64, "value": 0}, "group": "control_change"}, {"time": 3300, "annotation": {"number": 64, "value": 127}, "group": "control_change"}, {"time": 3321, "annotation": {"number": 64, "value": 0}, "group": "control_change"}, {"time": 3323, "annotation": {"number": 64, "value": 127}, "group": "control_change"}, {"time": 3346, "annotation": {"number": 64, "value": 0}, "group": "control_change"}, {"time": 3347, "annotation": {"number": 64, "value": 127}, "group": "control_change"}, {"time": 3369, "annotation": {"number": 64, "value": 0}, "group": "control_change"}, {"time": 3371, "annotation": {"number": 64, "value": 127}, "group": "control_change"}, {"time": 3393, "annotation": {"number": 64, "value": 0}, "group": "control_change"}, {"time": 3395, "annotation": {"number": 64, "value": 127}, "group": "control_change"}, {"time": 3413, "annotation": {"number": 64, "value": 0}, "group": "control_change"}, {"time": 3419, "annotation": {"number": 64, "value": 127}, "group": "control_change"}, {"time": 3465, "annotation": {"number": 64, "value": 0}, "group": "control_change"}, {"time": 3467, "annotation": {"number": 64, "value": 127}, "group": "control_change"}, {"time": 3513, "annotation": {"number": 64, "value": 0}, "group": "control_change"}, {"time": 3516, "annotation": {"number": 64, "value": 127}, "group": "control_change"}, {"time": 3547, "annotation": {"number": 64, "value": 0}, "group": "control_change"}, {"time": 3551, "annotation": {"number": 64, "value": 127}, "group": "control_change"}, {"time": 3562, "annotation": {"number": 64, "value": 0}, "group": "control_change"}, {"time": 3563, "annotation": {"number": 64, "value": 127}, "group": "control_change"}, {"time": 3608, "annotation": {"number": 64, "value": 0}, "group": "control_change"}, {"time": 3612, "annotation": {"number": 64, "value": 127}, "group": "control_change"}, {"time": 3646, "annotation": {"number": 64, "value": 0}, "group": "control_change"}, {"time": 3647, "annotation": {"number": 64, "value": 127}, "group": "control_change"}, {"time": 3656, "annotation": {"number": 64, "value": 0}, "group": "control_change"}, {"time": 3659, "annotation": {"number": 64, "value": 127}, "group": "control_change"}, {"time": 3681, "annotation": {"number": 64, "value": 0}, "group": "control_change"}, {"time": 3684, "annotation": {"number": 64, "value": 127}, "group": "control_change"}, {"time": 3703, "annotation": {"number": 64, "value": 0}, "group": "control_change"}, {"time": 3707, "annotation": {"number": 64, "value": 127}, "group": "control_change"}, {"time": 3753, "annotation": {"number": 64, "value": 0}, "group": "control_change"}, {"time": 3757, "annotation": {"number": 64, "value": 127}, "group": "control_change"}, {"time": 3801, "annotation": {"number": 64, "value": 0}, "group": "control_change"}, {"time": 3803, "annotation": {"number": 64, "value": 127}, "group": "control_change"}, {"time": 3824, "annotation": {"number": 64, "value": 0}, "group": "control_change"}, {"time": 3827, "annotation": {"number": 64, "value": 127}, "group": "control_change"}, {"time": 3847, "annotation": {"number": 64, "value": 0}, "group": "control_change"}, {"time": 3852, "annotation": {"number": 64, "value": 127}, "group": "control_change"}, {"time": 3872, "annotation": {"number": 64, "value": 0}, "group": "control_change"}, {"time": 3875, "annotation": {"number": 64, "value": 127}, "group": "control_change"}, {"time": 3897, "annotation": {"number": 64, "value": 0}, "group": "control_change"}, {"time": 3899, "annotation": {"number": 64, "value": 127}, "group": "control_change"}, {"time": 3919, "annotation": {"number": 64, "value": 0}, "group": "control_change"}, {"time": 3921, "annotation": {"number": 64, "value": 127}, "group": "control_change"}, {"time": 3944, "annotation": {"number": 64, "value": 0}, "group": "control_change"}, {"time": 3948, "annotation": {"number": 64, "value": 127}, "group": "control_change"}, {"time": 3965, "annotation": {"number": 64, "value": 0}, "group": "control_change"}, {"time": 3967, "annotation": {"number": 64, "value": 127}, "group": "control_change"}, {"time": 3992, "annotation": {"number": 64, "value": 0}, "group": "control_change"}, {"time": 3996, "annotation": {"number": 64, "value": 127}, "group": "control_change"}, {"time": 4041, "annotation": {"number": 64, "value": 0}, "group": "control_change"}, {"time": 4043, "annotation": {"number": 64, "value": 127}, "group": "control_change"}, {"time": 4086, "annotation": {"number": 64, "value": 0}, "group": "control_change"}, {"time": 4091, "annotation": {"number": 64, "value": 127}, "group": "control_change"}, {"time": 4136, "annotation": {"number": 64, "value": 0}, "group": "control_change"}, {"time": 4140, "annotation": {"number": 64, "value": 127}, "group": "control_change"}, {"time": 4161, "annotation": {"number": 64, "value": 0}, "group": "control_change"}, {"time": 4165, "annotation": {"number": 64, "value": 127}, "group": "control_change"}, {"time": 4183, "annotation": {"number": 64, "value": 0}, "group": "control_change"}, {"time": 4236, "annotation": {"number": 64, "value": 127}, "group": "control_change"}, {"time": 4256, "annotation": {"number": 64, "value": 0}, "group": "control_change"}, {"time": 4259, "annotation": {"number": 64, "value": 127}, "group": "control_change"}, {"time": 4281, "annotation": {"number": 64, "value": 0}, "group": "control_change"}, {"time": 4283, "annotation": {"number": 64, "value": 127}, "group": "control_change"}, {"time": 4303, "annotation": {"number": 64, "value": 0}, "group": "control_change"}, {"time": 4305, "annotation": {"number": 64, "value": 127}, "group": "control_change"}, {"time": 4328, "annotation": {"number": 64, "value": 0}, "group": "control_change"}, {"time": 4332, "annotation": {"number": 64, "value": 127}, "group": "control_change"}, {"time": 4349, "annotation": {"number": 64, "value": 0}, "group": "control_change"}, {"time": 4351, "annotation": {"number": 64, "value": 127}, "group": "control_change"}, {"time": 4376, "annotation": {"number": 64, "value": 0}, "group": "control_change"}, {"time": 4380, "annotation": {"number": 64, "value": 127}, "group": "control_change"}, {"time": 4425, "annotation": {"number": 64, "value": 0}, "group": "control_change"}, {"time": 4427, "annotation": {"number": 64, "value": 127}, "group": "control_change"}, {"time": 4470, "annotation": {"number": 64, "value": 0}, "group": "control_change"}, {"time": 4475, "annotation": {"number": 64, "value": 127}, "group": "control_change"}, {"time": 4520, "annotation": {"number": 64, "value": 0}, "group": "control_change"}, {"time": 4524, "annotation": {"number": 64, "value": 127}, "group": "control_change"}, {"time": 4545, "annotation": {"number": 64, "value": 0}, "group": "control_change"}, {"time": 4549, "annotation": {"number": 64, "value": 127}, "group": "control_change"}, {"time": 4567, "annotation": {"number": 64, "value": 0}, "group": "control_change"}]}]}