{"metadata": {"schema_version": "0.2", "title": "None", "source_filename": "077.mid", "source_format": "midi"}, "resolution": 12, "tempos": [{"time": 0, "qpm": 103.0000480666891}, {"time": 492, "qpm": 103.50002587500647}, {"time": 852, "qpm": 103.0000480666891}, {"time": 864, "qpm": 103.50002587500647}, {"time": 1044, "qpm": 104.00001386666851}, {"time": 1308, "qpm": 103.0000480666891}, {"time": 1548, "qpm": 103.50002587500647}, {"time": 1644, "qpm": 104.00001386666851}, {"time": 1908, "qpm": 103.29991581056862}, {"time": 3036, "qpm": 104.00001386666851}, {"time": 3228, "qpm": 103.0000480666891}, {"time": 3324, "qpm": 103.39996312067981}, {"time": 3948, "qpm": 104.00001386666851}, {"time": 3996, "qpm": 103.20006192003716}, {"time": 4092, "qpm": 104.00001386666851}, {"time": 4476, "qpm": 103.0000480666891}, {"time": 4824, "qpm": 104.00001386666851}], "time_signatures": [{"time": 0, "numerator": 1, "denominator": 4}], "tracks": [{"program": 4, "is_drum": false, "name": "MELODY", "notes": [{"time": 492, "pitch": 70, "duration": 5, "velocity": 127}, {"time": 510, "pitch": 70, "duration": 3, "velocity": 127}, {"time": 516, "pitch": 70, "duration": 5, "velocity": 127}, {"time": 528, "pitch": 68, "duration": 4, "velocity": 127}, {"time": 540, "pitch": 70, "duration": 4, "velocity": 127}, {"time": 552, "pitch": 70, "duration": 4, "velocity": 127}, {"time": 564, "pitch": 70, "duration": 4, "velocity": 127}, {"time": 588, "pitch": 70, "duration": 3, "velocity": 127}, {"time": 600, "pitch": 66, "duration": 2, "velocity": 127}, {"time": 606, "pitch": 63, "duration": 2, "velocity": 127}, {"time": 612, "pitch": 66, "duration": 2, "velocity": 127}, {"time": 624, "pitch": 70, "duration": 3, "velocity": 127}, {"time": 636, "pitch": 70, "duration": 3, "velocity": 127}, {"time": 648, "pitch": 63, "duration": 4, "velocity": 127}, {"time": 660, "pitch": 70, "duration": 3, "velocity": 127}, {"time": 684, "pitch": 70, "duration": 3, "velocity": 127}, {"time": 696, "pitch": 66, "duration": 2, "velocity": 127}, {"time": 702, "pitch": 63, "duration": 2, "velocity": 112}, {"time": 708, "pitch": 66, "duration": 2, "velocity": 127}, {"time": 720, "pitch": 70, "duration": 2, "velocity": 127}, {"time": 726, "pitch": 68, "duration": 2, "velocity": 127}, {"time": 732, "pitch": 61, "duration": 3, "velocity": 127}, {"time": 744, "pitch": 70, "duration": 3, "velocity": 112}, {"time": 756, "pitch": 61, "duration": 5, "velocity": 127}, {"time": 780, "pitch": 70, "duration": 2, "velocity": 127}, {"time": 786, "pitch": 68, "duration": 2, "velocity": 117}, {"time": 792, "pitch": 70, "duration": 2, "velocity": 127}, {"time": 798, "pitch": 68, "duration": 2, "velocity": 127}, {"time": 804, "pitch": 70, "duration": 2, "velocity": 127}, {"time": 816, "pitch": 68, "duration": 3, "velocity": 127}, {"time": 828, "pitch": 70, "duration": 3, "velocity": 127}, {"time": 840, "pitch": 61, "duration": 3, "velocity": 127}, {"time": 852, "pitch": 70, "duration": 4, "velocity": 127}, {"time": 876, "pitch": 73, "duration": 8, "velocity": 127}, {"time": 888, "pitch": 73, "duration": 6, "velocity": 122}, {"time": 894, "pitch": 70, "duration": 6, "velocity": 122}, {"time": 900, "pitch": 73, "duration": 14, "velocity": 122}, {"time": 912, "pitch": 73, "duration": 2, "velocity": 127}, {"time": 918, "pitch": 75, "duration": 6, "velocity": 117}, {"time": 924, "pitch": 78, "duration": 6, "velocity": 117}, {"time": 930, "pitch": 78, "duration": 6, "velocity": 117}, {"time": 936, "pitch": 78, "duration": 6, "velocity": 117}, {"time": 942, "pitch": 75, "duration": 6, "velocity": 127}, {"time": 948, "pitch": 73, "duration": 24, "velocity": 127}, {"time": 972, "pitch": 73, "duration": 6, "velocity": 127}, {"time": 978, "pitch": 78, "duration": 12, "velocity": 122}, {"time": 990, "pitch": 75, "duration": 6, "velocity": 127}, {"time": 996, "pitch": 73, "duration": 12, "velocity": 127}, {"time": 1008, "pitch": 70, "duration": 6, "velocity": 127}, {"time": 1014, "pitch": 68, "duration": 6, "velocity": 97}, {"time": 1020, "pitch": 70, "duration": 6, "velocity": 127}, {"time": 1026, "pitch": 68, "duration": 6, "velocity": 99}, {"time": 1032, "pitch": 73, "duration": 7, "velocity": 117}, {"time": 1038, "pitch": 70, "duration": 6, "velocity": 127}, {"time": 1044, "pitch": 68, "duration": 24, "velocity": 127}, {"time": 1068, "pitch": 73, "duration": 12, "velocity": 127}, {"time": 1080, "pitch": 73, "duration": 6, "velocity": 127}, {"time": 1086, "pitch": 70, "duration": 6, "velocity": 117}, {"time": 1092, "pitch": 73, "duration": 12, "velocity": 117}, {"time": 1104, "pitch": 73, "duration": 6, "velocity": 127}, {"time": 1110, "pitch": 73, "duration": 7, "velocity": 122}, {"time": 1116, "pitch": 68, "duration": 6, "velocity": 117}, {"time": 1122, "pitch": 70, "duration": 6, "velocity": 127}, {"time": 1128, "pitch": 70, "duration": 6, "velocity": 112}, {"time": 1134, "pitch": 68, "duration": 6, "velocity": 99}, {"time": 1140, "pitch": 66, "duration": 24, "velocity": 97}, {"time": 1164, "pitch": 68, "duration": 6, "velocity": 127}, {"time": 1170, "pitch": 68, "duration": 6, "velocity": 122}, {"time": 1176, "pitch": 68, "duration": 6, "velocity": 127}, {"time": 1182, "pitch": 70, "duration": 6, "velocity": 127}, {"time": 1188, "pitch": 73, "duration": 12, "velocity": 127}, {"time": 1200, "pitch": 73, "duration": 6, "velocity": 127}, {"time": 1206, "pitch": 70, "duration": 6, "velocity": 127}, {"time": 1212, "pitch": 68, "duration": 6, "velocity": 127}, {"time": 1218, "pitch": 66, "duration": 6, "velocity": 117}, {"time": 1224, "pitch": 63, "duration": 6, "velocity": 117}, {"time": 1230, "pitch": 66, "duration": 6, "velocity": 127}, {"time": 1236, "pitch": 61, "duration": 24, "velocity": 117}, {"time": 1260, "pitch": 73, "duration": 12, "velocity": 127}, {"time": 1272, "pitch": 73, "duration": 6, "velocity": 127}, {"time": 1278, "pitch": 70, "duration": 6, "velocity": 122}, {"time": 1284, "pitch": 73, "duration": 12, "velocity": 122}, {"time": 1296, "pitch": 73, "duration": 6, "velocity": 127}, {"time": 1302, "pitch": 75, "duration": 6, "velocity": 117}, {"time": 1308, "pitch": 78, "duration": 12, "velocity": 117}, {"time": 1320, "pitch": 78, "duration": 6, "velocity": 117}, {"time": 1326, "pitch": 75, "duration": 6, "velocity": 127}, {"time": 1332, "pitch": 73, "duration": 24, "velocity": 127}, {"time": 1356, "pitch": 73, "duration": 6, "velocity": 127}, {"time": 1362, "pitch": 78, "duration": 12, "velocity": 122}, {"time": 1374, "pitch": 75, "duration": 6, "velocity": 127}, {"time": 1380, "pitch": 73, "duration": 12, "velocity": 127}, {"time": 1392, "pitch": 70, "duration": 6, "velocity": 127}, {"time": 1398, "pitch": 68, "duration": 6, "velocity": 97}, {"time": 1404, "pitch": 70, "duration": 6, "velocity": 127}, {"time": 1410, "pitch": 68, "duration": 6, "velocity": 99}, {"time": 1416, "pitch": 73, "duration": 7, "velocity": 117}, {"time": 1422, "pitch": 70, "duration": 6, "velocity": 127}, {"time": 1428, "pitch": 68, "duration": 24, "velocity": 127}, {"time": 1452, "pitch": 73, "duration": 12, "velocity": 127}, {"time": 1464, "pitch": 73, "duration": 6, "velocity": 127}, {"time": 1470, "pitch": 70, "duration": 6, "velocity": 117}, {"time": 1476, "pitch": 73, "duration": 12, "velocity": 117}, {"time": 1488, "pitch": 73, "duration": 6, "velocity": 127}, {"time": 1494, "pitch": 70, "duration": 6, "velocity": 122}, {"time": 1500, "pitch": 68, "duration": 6, "velocity": 117}, {"time": 1506, "pitch": 70, "duration": 6, "velocity": 127}, {"time": 1512, "pitch": 70, "duration": 6, "velocity": 112}, {"time": 1518, "pitch": 68, "duration": 6, "velocity": 99}, {"time": 1524, "pitch": 66, "duration": 24, "velocity": 97}, {"time": 1548, "pitch": 68, "duration": 6, "velocity": 127}, {"time": 1554, "pitch": 68, "duration": 6, "velocity": 122}, {"time": 1560, "pitch": 68, "duration": 6, "velocity": 127}, {"time": 1566, "pitch": 70, "duration": 6, "velocity": 127}, {"time": 1572, "pitch": 73, "duration": 12, "velocity": 127}, {"time": 1584, "pitch": 73, "duration": 6, "velocity": 127}, {"time": 1590, "pitch": 70, "duration": 6, "velocity": 127}, {"time": 1596, "pitch": 68, "duration": 6, "velocity": 127}, {"time": 1602, "pitch": 66, "duration": 6, "velocity": 117}, {"time": 1608, "pitch": 63, "duration": 6, "velocity": 117}, {"time": 1614, "pitch": 66, "duration": 6, "velocity": 127}, {"time": 1620, "pitch": 61, "duration": 24, "velocity": 117}, {"time": 1644, "pitch": 78, "duration": 12, "velocity": 127}, {"time": 1656, "pitch": 78, "duration": 6, "velocity": 127}, {"time": 1662, "pitch": 75, "duration": 6, "velocity": 127}, {"time": 1668, "pitch": 78, "duration": 12, "velocity": 127}, {"time": 1680, "pitch": 78, "duration": 4, "velocity": 127}, {"time": 1683, "pitch": 75, "duration": 9, "velocity": 122}, {"time": 1692, "pitch": 73, "duration": 12, "velocity": 127}, {"time": 1704, "pitch": 75, "duration": 12, "velocity": 122}, {"time": 1716, "pitch": 73, "duration": 24, "velocity": 127}, {"time": 1740, "pitch": 73, "duration": 6, "velocity": 127}, {"time": 1746, "pitch": 78, "duration": 12, "velocity": 127}, {"time": 1758, "pitch": 75, "duration": 6, "velocity": 122}, {"time": 1764, "pitch": 73, "duration": 6, "velocity": 112}, {"time": 1770, "pitch": 73, "duration": 6, "velocity": 127}, {"time": 1776, "pitch": 70, "duration": 6, "velocity": 127}, {"time": 1782, "pitch": 68, "duration": 6, "velocity": 112}, {"time": 1788, "pitch": 70, "duration": 6, "velocity": 127}, {"time": 1794, "pitch": 68, "duration": 6, "velocity": 97}, {"time": 1800, "pitch": 73, "duration": 6, "velocity": 127}, {"time": 1806, "pitch": 70, "duration": 6, "velocity": 102}, {"time": 1812, "pitch": 68, "duration": 24, "velocity": 117}, {"time": 1836, "pitch": 73, "duration": 12, "velocity": 127}, {"time": 1848, "pitch": 73, "duration": 6, "velocity": 127}, {"time": 1854, "pitch": 70, "duration": 6, "velocity": 127}, {"time": 1860, "pitch": 73, "duration": 12, "velocity": 127}, {"time": 1872, "pitch": 73, "duration": 6, "velocity": 127}, {"time": 1878, "pitch": 73, "duration": 6, "velocity": 127}, {"time": 1884, "pitch": 68, "duration": 6, "velocity": 127}, {"time": 1890, "pitch": 70, "duration": 6, "velocity": 102}, {"time": 1896, "pitch": 70, "duration": 6, "velocity": 127}, {"time": 1902, "pitch": 68, "duration": 6, "velocity": 112}, {"time": 1908, "pitch": 66, "duration": 18, "velocity": 117}, {"time": 1926, "pitch": 63, "duration": 6, "velocity": 100}, {"time": 1932, "pitch": 68, "duration": 6, "velocity": 127}, {"time": 1938, "pitch": 68, "duration": 6, "velocity": 117}, {"time": 1944, "pitch": 68, "duration": 6, "velocity": 127}, {"time": 1950, "pitch": 70, "duration": 6, "velocity": 112}, {"time": 1956, "pitch": 68, "duration": 6, "velocity": 117}, {"time": 1962, "pitch": 66, "duration": 6, "velocity": 117}, {"time": 1968, "pitch": 63, "duration": 6, "velocity": 112}, {"time": 1974, "pitch": 66, "duration": 6, "velocity": 112}, {"time": 1980, "pitch": 66, "duration": 48, "velocity": 127}, {"time": 2412, "pitch": 73, "duration": 12, "velocity": 127}, {"time": 2424, "pitch": 73, "duration": 6, "velocity": 127}, {"time": 2430, "pitch": 70, "duration": 6, "velocity": 122}, {"time": 2436, "pitch": 73, "duration": 12, "velocity": 122}, {"time": 2448, "pitch": 73, "duration": 6, "velocity": 127}, {"time": 2454, "pitch": 75, "duration": 6, "velocity": 117}, {"time": 2460, "pitch": 78, "duration": 12, "velocity": 117}, {"time": 2472, "pitch": 78, "duration": 6, "velocity": 117}, {"time": 2478, "pitch": 75, "duration": 6, "velocity": 127}, {"time": 2484, "pitch": 73, "duration": 24, "velocity": 127}, {"time": 2508, "pitch": 73, "duration": 6, "velocity": 127}, {"time": 2514, "pitch": 73, "duration": 12, "velocity": 122}, {"time": 2526, "pitch": 75, "duration": 6, "velocity": 127}, {"time": 2532, "pitch": 73, "duration": 12, "velocity": 127}, {"time": 2544, "pitch": 70, "duration": 6, "velocity": 127}, {"time": 2550, "pitch": 68, "duration": 6, "velocity": 97}, {"time": 2556, "pitch": 70, "duration": 6, "velocity": 127}, {"time": 2562, "pitch": 68, "duration": 6, "velocity": 99}, {"time": 2568, "pitch": 73, "duration": 7, "velocity": 117}, {"time": 2574, "pitch": 70, "duration": 6, "velocity": 127}, {"time": 2580, "pitch": 68, "duration": 24, "velocity": 127}, {"time": 2604, "pitch": 70, "duration": 12, "velocity": 127}, {"time": 2616, "pitch": 70, "duration": 6, "velocity": 127}, {"time": 2622, "pitch": 68, "duration": 6, "velocity": 96}, {"time": 2628, "pitch": 73, "duration": 12, "velocity": 122}, {"time": 2640, "pitch": 73, "duration": 6, "velocity": 127}, {"time": 2646, "pitch": 73, "duration": 6, "velocity": 127}, {"time": 2652, "pitch": 68, "duration": 6, "velocity": 117}, {"time": 2658, "pitch": 70, "duration": 6, "velocity": 127}, {"time": 2664, "pitch": 70, "duration": 6, "velocity": 112}, {"time": 2670, "pitch": 68, "duration": 6, "velocity": 99}, {"time": 2676, "pitch": 66, "duration": 24, "velocity": 97}, {"time": 2700, "pitch": 68, "duration": 6, "velocity": 127}, {"time": 2706, "pitch": 68, "duration": 6, "velocity": 122}, {"time": 2712, "pitch": 68, "duration": 6, "velocity": 127}, {"time": 2718, "pitch": 70, "duration": 6, "velocity": 127}, {"time": 2724, "pitch": 73, "duration": 12, "velocity": 127}, {"time": 2736, "pitch": 73, "duration": 6, "velocity": 127}, {"time": 2742, "pitch": 70, "duration": 6, "velocity": 127}, {"time": 2748, "pitch": 68, "duration": 6, "velocity": 127}, {"time": 2754, "pitch": 66, "duration": 6, "velocity": 117}, {"time": 2760, "pitch": 63, "duration": 6, "velocity": 117}, {"time": 2766, "pitch": 66, "duration": 6, "velocity": 127}, {"time": 2772, "pitch": 61, "duration": 24, "velocity": 117}, {"time": 2796, "pitch": 78, "duration": 12, "velocity": 127}, {"time": 2808, "pitch": 78, "duration": 6, "velocity": 127}, {"time": 2814, "pitch": 75, "duration": 6, "velocity": 127}, {"time": 2820, "pitch": 78, "duration": 12, "velocity": 127}, {"time": 2832, "pitch": 78, "duration": 4, "velocity": 127}, {"time": 2835, "pitch": 75, "duration": 9, "velocity": 122}, {"time": 2844, "pitch": 73, "duration": 12, "velocity": 127}, {"time": 2856, "pitch": 75, "duration": 12, "velocity": 122}, {"time": 2868, "pitch": 73, "duration": 24, "velocity": 127}, {"time": 2892, "pitch": 73, "duration": 6, "velocity": 127}, {"time": 2898, "pitch": 78, "duration": 12, "velocity": 127}, {"time": 2910, "pitch": 75, "duration": 6, "velocity": 122}, {"time": 2916, "pitch": 80, "duration": 12, "velocity": 127}, {"time": 2928, "pitch": 78, "duration": 6, "velocity": 127}, {"time": 2934, "pitch": 75, "duration": 6, "velocity": 122}, {"time": 2940, "pitch": 73, "duration": 6, "velocity": 127}, {"time": 2946, "pitch": 75, "duration": 6, "velocity": 122}, {"time": 2952, "pitch": 73, "duration": 6, "velocity": 112}, {"time": 2958, "pitch": 70, "duration": 6, "velocity": 122}, {"time": 2964, "pitch": 68, "duration": 24, "velocity": 99}, {"time": 2988, "pitch": 66, "duration": 12, "velocity": 127}, {"time": 3000, "pitch": 66, "duration": 4, "velocity": 127}, {"time": 3003, "pitch": 63, "duration": 9, "velocity": 100}, {"time": 3012, "pitch": 66, "duration": 12, "velocity": 127}, {"time": 3024, "pitch": 66, "duration": 6, "velocity": 127}, {"time": 3030, "pitch": 63, "duration": 6, "velocity": 99}, {"time": 3036, "pitch": 66, "duration": 12, "velocity": 127}, {"time": 3048, "pitch": 68, "duration": 12, "velocity": 127}, {"time": 3060, "pitch": 73, "duration": 24, "velocity": 127}, {"time": 3084, "pitch": 68, "duration": 6, "velocity": 127}, {"time": 3090, "pitch": 68, "duration": 6, "velocity": 117}, {"time": 3096, "pitch": 68, "duration": 6, "velocity": 112}, {"time": 3102, "pitch": 66, "duration": 6, "velocity": 117}, {"time": 3108, "pitch": 68, "duration": 12, "velocity": 127}, {"time": 3120, "pitch": 78, "duration": 6, "velocity": 127}, {"time": 3126, "pitch": 75, "duration": 6, "velocity": 122}, {"time": 3132, "pitch": 73, "duration": 96, "velocity": 127}, {"time": 3228, "pitch": 73, "duration": 12, "velocity": 127}, {"time": 3240, "pitch": 73, "duration": 6, "velocity": 122}, {"time": 3246, "pitch": 70, "duration": 6, "velocity": 122}, {"time": 3252, "pitch": 73, "duration": 14, "velocity": 122}, {"time": 3264, "pitch": 73, "duration": 2, "velocity": 127}, {"time": 3270, "pitch": 75, "duration": 6, "velocity": 117}, {"time": 3276, "pitch": 78, "duration": 6, "velocity": 117}, {"time": 3282, "pitch": 78, "duration": 6, "velocity": 117}, {"time": 3288, "pitch": 78, "duration": 6, "velocity": 117}, {"time": 3294, "pitch": 75, "duration": 6, "velocity": 127}, {"time": 3300, "pitch": 73, "duration": 24, "velocity": 127}, {"time": 3324, "pitch": 73, "duration": 6, "velocity": 127}, {"time": 3330, "pitch": 78, "duration": 12, "velocity": 122}, {"time": 3342, "pitch": 75, "duration": 6, "velocity": 127}, {"time": 3348, "pitch": 73, "duration": 12, "velocity": 127}, {"time": 3360, "pitch": 70, "duration": 6, "velocity": 127}, {"time": 3366, "pitch": 68, "duration": 6, "velocity": 97}, {"time": 3372, "pitch": 70, "duration": 6, "velocity": 127}, {"time": 3378, "pitch": 68, "duration": 6, "velocity": 99}, {"time": 3384, "pitch": 73, "duration": 7, "velocity": 117}, {"time": 3390, "pitch": 70, "duration": 6, "velocity": 127}, {"time": 3396, "pitch": 68, "duration": 24, "velocity": 127}, {"time": 3420, "pitch": 73, "duration": 12, "velocity": 127}, {"time": 3432, "pitch": 73, "duration": 6, "velocity": 127}, {"time": 3438, "pitch": 70, "duration": 6, "velocity": 117}, {"time": 3444, "pitch": 73, "duration": 12, "velocity": 117}, {"time": 3456, "pitch": 73, "duration": 6, "velocity": 127}, {"time": 3462, "pitch": 73, "duration": 7, "velocity": 122}, {"time": 3468, "pitch": 68, "duration": 6, "velocity": 117}, {"time": 3474, "pitch": 70, "duration": 6, "velocity": 127}, {"time": 3480, "pitch": 70, "duration": 6, "velocity": 112}, {"time": 3486, "pitch": 68, "duration": 6, "velocity": 99}, {"time": 3492, "pitch": 66, "duration": 24, "velocity": 97}, {"time": 3516, "pitch": 68, "duration": 6, "velocity": 127}, {"time": 3522, "pitch": 68, "duration": 6, "velocity": 122}, {"time": 3528, "pitch": 68, "duration": 6, "velocity": 127}, {"time": 3534, "pitch": 70, "duration": 6, "velocity": 127}, {"time": 3540, "pitch": 73, "duration": 12, "velocity": 127}, {"time": 3552, "pitch": 73, "duration": 6, "velocity": 127}, {"time": 3558, "pitch": 70, "duration": 6, "velocity": 127}, {"time": 3564, "pitch": 68, "duration": 6, "velocity": 127}, {"time": 3570, "pitch": 66, "duration": 6, "velocity": 117}, {"time": 3576, "pitch": 63, "duration": 6, "velocity": 117}, {"time": 3582, "pitch": 66, "duration": 6, "velocity": 127}, {"time": 3588, "pitch": 61, "duration": 24, "velocity": 117}, {"time": 3612, "pitch": 73, "duration": 12, "velocity": 127}, {"time": 3624, "pitch": 73, "duration": 6, "velocity": 127}, {"time": 3630, "pitch": 70, "duration": 6, "velocity": 122}, {"time": 3636, "pitch": 73, "duration": 12, "velocity": 122}, {"time": 3648, "pitch": 73, "duration": 6, "velocity": 127}, {"time": 3654, "pitch": 75, "duration": 6, "velocity": 117}, {"time": 3660, "pitch": 78, "duration": 12, "velocity": 117}, {"time": 3672, "pitch": 78, "duration": 6, "velocity": 117}, {"time": 3678, "pitch": 75, "duration": 6, "velocity": 127}, {"time": 3684, "pitch": 73, "duration": 24, "velocity": 127}, {"time": 3708, "pitch": 73, "duration": 6, "velocity": 127}, {"time": 3714, "pitch": 78, "duration": 12, "velocity": 122}, {"time": 3726, "pitch": 75, "duration": 6, "velocity": 127}, {"time": 3732, "pitch": 73, "duration": 12, "velocity": 127}, {"time": 3744, "pitch": 70, "duration": 6, "velocity": 127}, {"time": 3750, "pitch": 68, "duration": 6, "velocity": 97}, {"time": 3756, "pitch": 70, "duration": 6, "velocity": 127}, {"time": 3762, "pitch": 68, "duration": 6, "velocity": 99}, {"time": 3768, "pitch": 73, "duration": 7, "velocity": 117}, {"time": 3774, "pitch": 70, "duration": 6, "velocity": 127}, {"time": 3780, "pitch": 68, "duration": 24, "velocity": 127}, {"time": 3804, "pitch": 73, "duration": 12, "velocity": 127}, {"time": 3816, "pitch": 73, "duration": 6, "velocity": 127}, {"time": 3822, "pitch": 70, "duration": 6, "velocity": 117}, {"time": 3828, "pitch": 73, "duration": 12, "velocity": 117}, {"time": 3840, "pitch": 73, "duration": 6, "velocity": 127}, {"time": 3846, "pitch": 70, "duration": 6, "velocity": 122}, {"time": 3852, "pitch": 68, "duration": 6, "velocity": 117}, {"time": 3858, "pitch": 70, "duration": 6, "velocity": 127}, {"time": 3864, "pitch": 70, "duration": 6, "velocity": 112}, {"time": 3870, "pitch": 68, "duration": 6, "velocity": 99}, {"time": 3876, "pitch": 66, "duration": 24, "velocity": 97}, {"time": 3900, "pitch": 68, "duration": 6, "velocity": 127}, {"time": 3906, "pitch": 68, "duration": 6, "velocity": 122}, {"time": 3912, "pitch": 68, "duration": 6, "velocity": 127}, {"time": 3918, "pitch": 70, "duration": 6, "velocity": 127}, {"time": 3924, "pitch": 73, "duration": 12, "velocity": 127}, {"time": 3936, "pitch": 73, "duration": 6, "velocity": 127}, {"time": 3942, "pitch": 70, "duration": 6, "velocity": 127}, {"time": 3948, "pitch": 68, "duration": 6, "velocity": 127}, {"time": 3954, "pitch": 66, "duration": 6, "velocity": 117}, {"time": 3960, "pitch": 63, "duration": 6, "velocity": 117}, {"time": 3966, "pitch": 66, "duration": 6, "velocity": 127}, {"time": 3972, "pitch": 61, "duration": 24, "velocity": 117}, {"time": 3996, "pitch": 78, "duration": 12, "velocity": 127}, {"time": 4008, "pitch": 78, "duration": 6, "velocity": 127}, {"time": 4014, "pitch": 75, "duration": 6, "velocity": 127}, {"time": 4020, "pitch": 78, "duration": 12, "velocity": 127}, {"time": 4032, "pitch": 78, "duration": 4, "velocity": 127}, {"time": 4035, "pitch": 75, "duration": 9, "velocity": 122}, {"time": 4044, "pitch": 73, "duration": 12, "velocity": 127}, {"time": 4056, "pitch": 75, "duration": 12, "velocity": 122}, {"time": 4068, "pitch": 73, "duration": 24, "velocity": 127}, {"time": 4092, "pitch": 73, "duration": 6, "velocity": 127}, {"time": 4098, "pitch": 78, "duration": 12, "velocity": 127}, {"time": 4110, "pitch": 75, "duration": 6, "velocity": 122}, {"time": 4116, "pitch": 73, "duration": 6, "velocity": 112}, {"time": 4122, "pitch": 73, "duration": 6, "velocity": 127}, {"time": 4128, "pitch": 70, "duration": 6, "velocity": 127}, {"time": 4134, "pitch": 68, "duration": 6, "velocity": 112}, {"time": 4140, "pitch": 70, "duration": 6, "velocity": 127}, {"time": 4146, "pitch": 68, "duration": 6, "velocity": 97}, {"time": 4152, "pitch": 73, "duration": 6, "velocity": 127}, {"time": 4158, "pitch": 70, "duration": 6, "velocity": 102}, {"time": 4164, "pitch": 68, "duration": 24, "velocity": 117}, {"time": 4188, "pitch": 73, "duration": 12, "velocity": 127}, {"time": 4200, "pitch": 73, "duration": 6, "velocity": 127}, {"time": 4206, "pitch": 70, "duration": 6, "velocity": 127}, {"time": 4212, "pitch": 73, "duration": 12, "velocity": 127}, {"time": 4224, "pitch": 73, "duration": 6, "velocity": 127}, {"time": 4230, "pitch": 73, "duration": 6, "velocity": 127}, {"time": 4236, "pitch": 68, "duration": 6, "velocity": 127}, {"time": 4242, "pitch": 70, "duration": 6, "velocity": 102}, {"time": 4248, "pitch": 70, "duration": 6, "velocity": 127}, {"time": 4254, "pitch": 68, "duration": 6, "velocity": 112}, {"time": 4260, "pitch": 66, "duration": 18, "velocity": 117}, {"time": 4278, "pitch": 63, "duration": 6, "velocity": 100}, {"time": 4284, "pitch": 68, "duration": 6, "velocity": 127}, {"time": 4290, "pitch": 68, "duration": 6, "velocity": 117}, {"time": 4296, "pitch": 68, "duration": 6, "velocity": 127}, {"time": 4302, "pitch": 70, "duration": 6, "velocity": 112}, {"time": 4308, "pitch": 68, "duration": 6, "velocity": 117}, {"time": 4314, "pitch": 66, "duration": 6, "velocity": 117}, {"time": 4320, "pitch": 63, "duration": 6, "velocity": 112}, {"time": 4326, "pitch": 66, "duration": 6, "velocity": 112}, {"time": 4332, "pitch": 66, "duration": 42, "velocity": 127}, {"time": 4374, "pitch": 63, "duration": 6, "velocity": 100}, {"time": 4380, "pitch": 68, "duration": 6, "velocity": 127}, {"time": 4386, "pitch": 68, "duration": 6, "velocity": 117}, {"time": 4392, "pitch": 68, "duration": 6, "velocity": 127}, {"time": 4398, "pitch": 70, "duration": 6, "velocity": 112}, {"time": 4404, "pitch": 68, "duration": 6, "velocity": 117}, {"time": 4410, "pitch": 66, "duration": 6, "velocity": 117}, {"time": 4416, "pitch": 63, "duration": 6, "velocity": 112}, {"time": 4422, "pitch": 66, "duration": 6, "velocity": 112}, {"time": 4428, "pitch": 66, "duration": 48, "velocity": 127}, {"time": 4476, "pitch": 70, "duration": 18, "velocity": 127}, {"time": 4494, "pitch": 61, "duration": 6, "velocity": 122}, {"time": 4500, "pitch": 70, "duration": 12, "velocity": 127}, {"time": 4512, "pitch": 68, "duration": 12, "velocity": 127}, {"time": 4524, "pitch": 70, "duration": 12, "velocity": 127}, {"time": 4536, "pitch": 68, "duration": 12, "velocity": 127}, {"time": 4548, "pitch": 70, "duration": 24, "velocity": 127}, {"time": 4572, "pitch": 68, "duration": 6, "velocity": 127}, {"time": 4578, "pitch": 70, "duration": 6, "velocity": 117}, {"time": 4584, "pitch": 63, "duration": 6, "velocity": 127}, {"time": 4590, "pitch": 61, "duration": 6, "velocity": 97}, {"time": 4596, "pitch": 68, "duration": 12, "velocity": 127}, {"time": 4608, "pitch": 68, "duration": 12, "velocity": 127}, {"time": 4620, "pitch": 70, "duration": 12, "velocity": 127}, {"time": 4632, "pitch": 68, "duration": 12, "velocity": 127}, {"time": 4644, "pitch": 61, "duration": 24, "velocity": 127}, {"time": 4668, "pitch": 70, "duration": 18, "velocity": 127}, {"time": 4686, "pitch": 68, "duration": 6, "velocity": 127}, {"time": 4692, "pitch": 61, "duration": 12, "velocity": 122}, {"time": 4704, "pitch": 70, "duration": 12, "velocity": 127}, {"time": 4716, "pitch": 68, "duration": 12, "velocity": 127}, {"time": 4728, "pitch": 70, "duration": 12, "velocity": 127}, {"time": 4740, "pitch": 68, "duration": 24, "velocity": 127}, {"time": 4764, "pitch": 61, "duration": 12, "velocity": 127}, {"time": 4776, "pitch": 68, "duration": 12, "velocity": 127}, {"time": 4788, "pitch": 61, "duration": 18, "velocity": 127}, {"time": 4806, "pitch": 68, "duration": 6, "velocity": 127}, {"time": 4812, "pitch": 61, "duration": 6, "velocity": 117}, {"time": 4818, "pitch": 63, "duration": 6, "velocity": 127}, {"time": 4824, "pitch": 68, "duration": 6, "velocity": 127}, {"time": 4830, "pitch": 63, "duration": 6, "velocity": 112}, {"time": 4836, "pitch": 68, "duration": 24, "velocity": 127}, {"time": 4860, "pitch": 70, "duration": 15, "velocity": 127}, {"time": 4875, "pitch": 61, "duration": 9, "velocity": 107}, {"time": 4884, "pitch": 70, "duration": 12, "velocity": 127}, {"time": 4896, "pitch": 68, "duration": 12, "velocity": 127}, {"time": 4908, "pitch": 70, "duration": 12, "velocity": 127}, {"time": 4920, "pitch": 68, "duration": 12, "velocity": 127}, {"time": 4932, "pitch": 61, "duration": 24, "velocity": 127}, {"time": 4956, "pitch": 68, "duration": 6, "velocity": 127}, {"time": 4962, "pitch": 70, "duration": 6, "velocity": 127}, {"time": 4968, "pitch": 61, "duration": 6, "velocity": 122}, {"time": 4974, "pitch": 61, "duration": 6, "velocity": 122}, {"time": 4980, "pitch": 68, "duration": 12, "velocity": 127}, {"time": 4992, "pitch": 68, "duration": 12, "velocity": 127}, {"time": 5004, "pitch": 68, "duration": 12, "velocity": 127}, {"time": 5016, "pitch": 70, "duration": 12, "velocity": 127}, {"time": 5028, "pitch": 61, "duration": 24, "velocity": 127}, {"time": 5052, "pitch": 68, "duration": 18, "velocity": 127}, {"time": 5070, "pitch": 70, "duration": 6, "velocity": 127}, {"time": 5076, "pitch": 61, "duration": 12, "velocity": 122}, {"time": 5088, "pitch": 70, "duration": 12, "velocity": 127}, {"time": 5100, "pitch": 68, "duration": 12, "velocity": 127}, {"time": 5112, "pitch": 70, "duration": 12, "velocity": 127}, {"time": 5124, "pitch": 61, "duration": 24, "velocity": 127}, {"time": 5148, "pitch": 61, "duration": 12, "velocity": 127}, {"time": 5160, "pitch": 68, "duration": 12, "velocity": 112}], "annotations": [{"time": 29, "annotation": {"number": 7, "value": 101}, "group": "control_change"}, {"time": 5057, "annotation": {"number": 7, "value": 101}, "group": "control_change"}, {"time": 5060, "annotation": {"number": 7, "value": 100}, "group": "control_change"}, {"time": 5063, "annotation": {"number": 7, "value": 99}, "group": "control_change"}, {"time": 5066, "annotation": {"number": 7, "value": 98}, "group": "control_change"}, {"time": 5069, "annotation": {"number": 7, "value": 97}, "group": "control_change"}, {"time": 5072, "annotation": {"number": 7, "value": 95}, "group": "control_change"}, {"time": 5075, "annotation": {"number": 7, "value": 94}, "group": "control_change"}, {"time": 5078, "annotation": {"number": 7, "value": 93}, "group": "control_change"}, {"time": 5081, "annotation": {"number": 7, "value": 92}, "group": "control_change"}, {"time": 5084, "annotation": {"number": 7, "value": 91}, "group": "control_change"}, {"time": 5087, "annotation": {"number": 7, "value": 90}, "group": "control_change"}, {"time": 5090, "annotation": {"number": 7, "value": 89}, "group": "control_change"}, {"time": 5093, "annotation": {"number": 7, "value": 88}, "group": "control_change"}, {"time": 5096, "annotation": {"number": 7, "value": 87}, "group": "control_change"}, {"time": 5099, "annotation": {"number": 7, "value": 86}, "group": "control_change"}, {"time": 5102, "annotation": {"number": 7, "value": 84}, "group": "control_change"}, {"time": 5105, "annotation": {"number": 7, "value": 83}, "group": "control_change"}, {"time": 5108, "annotation": {"number": 7, "value": 82}, "group": "control_change"}, {"time": 5111, "annotation": {"number": 7, "value": 81}, "group": "control_change"}, {"time": 5114, "annotation": {"number": 7, "value": 80}, "group": "control_change"}, {"time": 5117, "annotation": {"number": 7, "value": 79}, "group": "control_change"}, {"time": 5120, "annotation": {"number": 7, "value": 78}, "group": "control_change"}, {"time": 5123, "annotation": {"number": 7, "value": 77}, "group": "control_change"}, {"time": 5126, "annotation": {"number": 7, "value": 76}, "group": "control_change"}, {"time": 5129, "annotation": {"number": 7, "value": 75}, "group": "control_change"}, {"time": 5132, "annotation": {"number": 7, "value": 73}, "group": "control_change"}, {"time": 5135, "annotation": {"number": 7, "value": 72}, "group": "control_change"}, {"time": 5138, "annotation": {"number": 7, "value": 71}, "group": "control_change"}, {"time": 5141, "annotation": {"number": 7, "value": 70}, "group": "control_change"}, {"time": 5144, "annotation": {"number": 7, "value": 69}, "group": "control_change"}, {"time": 5147, "annotation": {"number": 7, "value": 68}, "group": "control_change"}, {"time": 5150, "annotation": {"number": 7, "value": 67}, "group": "control_change"}, {"time": 5153, "annotation": {"number": 7, "value": 66}, "group": "control_change"}, {"time": 5156, "annotation": {"number": 7, "value": 65}, "group": "control_change"}, {"time": 5159, "annotation": {"number": 7, "value": 64}, "group": "control_change"}, {"time": 5162, "annotation": {"number": 7, "value": 62}, "group": "control_change"}, {"time": 5165, "annotation": {"number": 7, "value": 61}, "group": "control_change"}, {"time": 5168, "annotation": {"number": 7, "value": 60}, "group": "control_change"}, {"time": 5171, "annotation": {"number": 7, "value": 59}, "group": "control_change"}, {"time": 5174, "annotation": {"number": 7, "value": 58}, "group": "control_change"}, {"time": 5177, "annotation": {"number": 7, "value": 57}, "group": "control_change"}, {"time": 5180, "annotation": {"number": 7, "value": 56}, "group": "control_change"}, {"time": 5183, "annotation": {"number": 7, "value": 55}, "group": "control_change"}, {"time": 5186, "annotation": {"number": 7, "value": 54}, "group": "control_change"}, {"time": 5189, "annotation": {"number": 7, "value": 53}, "group": "control_change"}, {"time": 5192, "annotation": {"number": 7, "value": 51}, "group": "control_change"}, {"time": 5195, "annotation": {"number": 7, "value": 50}, "group": "control_change"}, {"time": 5198, "annotation": {"number": 7, "value": 49}, "group": "control_change"}, {"time": 5201, "annotation": {"number": 7, "value": 48}, "group": "control_change"}, {"time": 5204, "annotation": {"number": 7, "value": 47}, "group": "control_change"}, {"time": 5207, "annotation": {"number": 7, "value": 46}, "group": "control_change"}, {"time": 5210, "annotation": {"number": 7, "value": 45}, "group": "control_change"}, {"time": 5213, "annotation": {"number": 7, "value": 44}, "group": "control_change"}, {"time": 5216, "annotation": {"number": 7, "value": 43}, "group": "control_change"}, {"time": 5219, "annotation": {"number": 7, "value": 41}, "group": "control_change"}, {"time": 5222, "annotation": {"number": 7, "value": 40}, "group": "control_change"}, {"time": 5225, "annotation": {"number": 7, "value": 39}, "group": "control_change"}, {"time": 5228, "annotation": {"number": 7, "value": 38}, "group": "control_change"}, {"time": 5231, "annotation": {"number": 7, "value": 37}, "group": "control_change"}, {"time": 5234, "annotation": {"number": 7, "value": 36}, "group": "control_change"}, {"time": 5237, "annotation": {"number": 7, "value": 35}, "group": "control_change"}, {"time": 5240, "annotation": {"number": 7, "value": 34}, "group": "control_change"}, {"time": 5243, "annotation": {"number": 7, "value": 33}, "group": "control_change"}, {"time": 5246, "annotation": {"number": 7, "value": 32}, "group": "control_change"}, {"time": 5249, "annotation": {"number": 7, "value": 30}, "group": "control_change"}, {"time": 5252, "annotation": {"number": 7, "value": 29}, "group": "control_change"}, {"time": 5255, "annotation": {"number": 7, "value": 28}, "group": "control_change"}, {"time": 5258, "annotation": {"number": 7, "value": 27}, "group": "control_change"}, {"time": 5261, "annotation": {"number": 7, "value": 26}, "group": "control_change"}, {"time": 5264, "annotation": {"number": 7, "value": 25}, "group": "control_change"}, {"time": 5267, "annotation": {"number": 7, "value": 24}, "group": "control_change"}, {"time": 5270, "annotation": {"number": 7, "value": 23}, "group": "control_change"}, {"time": 5273, "annotation": {"number": 7, "value": 22}, "group": "control_change"}, {"time": 5276, "annotation": {"number": 7, "value": 21}, "group": "control_change"}, {"time": 5279, "annotation": {"number": 7, "value": 19}, "group": "control_change"}, {"time": 5282, "annotation": {"number": 7, "value": 18}, "group": "control_change"}, {"time": 5285, "annotation": {"number": 7, "value": 17}, "group": "control_change"}, {"time": 5288, "annotation": {"number": 7, "value": 16}, "group": "control_change"}, {"time": 5291, "annotation": {"number": 7, "value": 15}, "group": "control_change"}, {"time": 5294, "annotation": {"number": 7, "value": 14}, "group": "control_change"}, {"time": 5297, "annotation": {"number": 7, "value": 13}, "group": "control_change"}, {"time": 5300, "annotation": {"number": 7, "value": 12}, "group": "control_change"}, {"time": 5303, "annotation": {"number": 7, "value": 11}, "group": "control_change"}, {"time": 5306, "annotation": {"number": 7, "value": 10}, "group": "control_change"}, {"time": 5309, "annotation": {"number": 7, "value": 8}, "group": "control_change"}, {"time": 5312, "annotation": {"number": 7, "value": 7}, "group": "control_change"}, {"time": 5315, "annotation": {"number": 7, "value": 6}, "group": "control_change"}, {"time": 5318, "annotation": {"number": 7, "value": 5}, "group": "control_change"}, {"time": 5321, "annotation": {"number": 7, "value": 4}, "group": "control_change"}]}, {"program": 0, "is_drum": false, "name": "PIANO", "notes": [{"time": 36, "pitch": 42, "duration": 266, "velocity": 69}, {"time": 36, "pitch": 54, "duration": 266, "velocity": 81}, {"time": 36, "pitch": 61, "duration": 266, "velocity": 79}, {"time": 36, "pitch": 66, "duration": 265, "velocity": 65}, {"time": 300, "pitch": 37, "duration": 83, "velocity": 117}, {"time": 300, "pitch": 49, "duration": 83, "velocity": 72}, {"time": 300, "pitch": 56, "duration": 82, "velocity": 57}, {"time": 384, "pitch": 42, "duration": 5, "velocity": 112}, {"time": 384, "pitch": 54, "duration": 5, "velocity": 112}, {"time": 390, "pitch": 39, "duration": 6, "velocity": 89}, {"time": 390, "pitch": 51, "duration": 5, "velocity": 88}, {"time": 396, "pitch": 37, "duration": 75, "velocity": 99}, {"time": 396, "pitch": 49, "duration": 74, "velocity": 90}, {"time": 396, "pitch": 56, "duration": 74, "velocity": 95}, {"time": 480, "pitch": 42, "duration": 5, "velocity": 102}, {"time": 480, "pitch": 54, "duration": 5, "velocity": 112}, {"time": 486, "pitch": 39, "duration": 7, "velocity": 72}, {"time": 486, "pitch": 51, "duration": 7, "velocity": 96}, {"time": 492, "pitch": 37, "duration": 83, "velocity": 117}, {"time": 492, "pitch": 49, "duration": 83, "velocity": 72}, {"time": 492, "pitch": 56, "duration": 82, "velocity": 57}, {"time": 576, "pitch": 42, "duration": 5, "velocity": 112}, {"time": 576, "pitch": 54, "duration": 5, "velocity": 112}, {"time": 582, "pitch": 39, "duration": 6, "velocity": 89}, {"time": 582, "pitch": 51, "duration": 5, "velocity": 88}, {"time": 588, "pitch": 37, "duration": 82, "velocity": 99}, {"time": 588, "pitch": 49, "duration": 81, "velocity": 90}, {"time": 588, "pitch": 56, "duration": 81, "velocity": 95}, {"time": 672, "pitch": 42, "duration": 5, "velocity": 102}, {"time": 672, "pitch": 54, "duration": 5, "velocity": 112}, {"time": 678, "pitch": 39, "duration": 7, "velocity": 72}, {"time": 678, "pitch": 51, "duration": 7, "velocity": 96}, {"time": 684, "pitch": 37, "duration": 83, "velocity": 117}, {"time": 684, "pitch": 49, "duration": 83, "velocity": 72}, {"time": 684, "pitch": 56, "duration": 82, "velocity": 57}, {"time": 768, "pitch": 42, "duration": 5, "velocity": 112}, {"time": 768, "pitch": 54, "duration": 5, "velocity": 112}, {"time": 774, "pitch": 39, "duration": 6, "velocity": 89}, {"time": 774, "pitch": 51, "duration": 5, "velocity": 88}, {"time": 780, "pitch": 37, "duration": 82, "velocity": 99}, {"time": 780, "pitch": 49, "duration": 81, "velocity": 90}, {"time": 780, "pitch": 56, "duration": 81, "velocity": 95}, {"time": 864, "pitch": 42, "duration": 5, "velocity": 102}, {"time": 864, "pitch": 54, "duration": 5, "velocity": 112}, {"time": 870, "pitch": 39, "duration": 7, "velocity": 72}, {"time": 870, "pitch": 51, "duration": 7, "velocity": 96}, {"time": 876, "pitch": 42, "duration": 46, "velocity": 83}, {"time": 882, "pitch": 54, "duration": 20, "velocity": 77}, {"time": 888, "pitch": 61, "duration": 9, "velocity": 52}, {"time": 894, "pitch": 70, "duration": 27, "velocity": 97}, {"time": 900, "pitch": 61, "duration": 14, "velocity": 50}, {"time": 906, "pitch": 54, "duration": 21, "velocity": 47}, {"time": 912, "pitch": 66, "duration": 14, "velocity": 40}, {"time": 918, "pitch": 61, "duration": 16, "velocity": 63}, {"time": 924, "pitch": 42, "duration": 45, "velocity": 76}, {"time": 930, "pitch": 54, "duration": 20, "velocity": 73}, {"time": 936, "pitch": 61, "duration": 16, "velocity": 70}, {"time": 942, "pitch": 66, "duration": 7, "velocity": 54}, {"time": 948, "pitch": 68, "duration": 29, "velocity": 97}, {"time": 954, "pitch": 54, "duration": 20, "velocity": 86}, {"time": 960, "pitch": 66, "duration": 17, "velocity": 67}, {"time": 966, "pitch": 61, "duration": 12, "velocity": 78}, {"time": 972, "pitch": 42, "duration": 36, "velocity": 78}, {"time": 978, "pitch": 54, "duration": 20, "velocity": 96}, {"time": 984, "pitch": 61, "duration": 9, "velocity": 68}, {"time": 990, "pitch": 70, "duration": 19, "velocity": 95}, {"time": 996, "pitch": 61, "duration": 24, "velocity": 63}, {"time": 1002, "pitch": 54, "duration": 6, "velocity": 68}, {"time": 1008, "pitch": 68, "duration": 8, "velocity": 100}, {"time": 1014, "pitch": 66, "duration": 6, "velocity": 64}, {"time": 1020, "pitch": 37, "duration": 38, "velocity": 72}, {"time": 1026, "pitch": 49, "duration": 21, "velocity": 77}, {"time": 1032, "pitch": 53, "duration": 8, "velocity": 76}, {"time": 1038, "pitch": 56, "duration": 8, "velocity": 66}, {"time": 1044, "pitch": 61, "duration": 24, "velocity": 97}, {"time": 1050, "pitch": 49, "duration": 10, "velocity": 77}, {"time": 1056, "pitch": 53, "duration": 11, "velocity": 69}, {"time": 1068, "pitch": 42, "duration": 36, "velocity": 92}, {"time": 1074, "pitch": 54, "duration": 21, "velocity": 85}, {"time": 1080, "pitch": 61, "duration": 14, "velocity": 92}, {"time": 1086, "pitch": 66, "duration": 14, "velocity": 56}, {"time": 1092, "pitch": 70, "duration": 23, "velocity": 107}, {"time": 1098, "pitch": 54, "duration": 5, "velocity": 82}, {"time": 1104, "pitch": 61, "duration": 14, "velocity": 92}, {"time": 1110, "pitch": 66, "duration": 6, "velocity": 69}, {"time": 1116, "pitch": 39, "duration": 36, "velocity": 79}, {"time": 1122, "pitch": 51, "duration": 20, "velocity": 69}, {"time": 1128, "pitch": 58, "duration": 13, "velocity": 95}, {"time": 1134, "pitch": 63, "duration": 7, "velocity": 55}, {"time": 1140, "pitch": 66, "duration": 24, "velocity": 100}, {"time": 1146, "pitch": 51, "duration": 16, "velocity": 90}, {"time": 1152, "pitch": 63, "duration": 12, "velocity": 74}, {"time": 1158, "pitch": 58, "duration": 5, "velocity": 52}, {"time": 1164, "pitch": 44, "duration": 37, "velocity": 96}, {"time": 1170, "pitch": 56, "duration": 20, "velocity": 89}, {"time": 1176, "pitch": 59, "duration": 13, "velocity": 70}, {"time": 1182, "pitch": 68, "duration": 30, "velocity": 122}, {"time": 1188, "pitch": 63, "duration": 14, "velocity": 40}, {"time": 1194, "pitch": 56, "duration": 5, "velocity": 49}, {"time": 1200, "pitch": 59, "duration": 13, "velocity": 81}, {"time": 1206, "pitch": 63, "duration": 7, "velocity": 86}, {"time": 1212, "pitch": 37, "duration": 49, "velocity": 82}, {"time": 1218, "pitch": 49, "duration": 21, "velocity": 88}, {"time": 1224, "pitch": 53, "duration": 12, "velocity": 56}, {"time": 1230, "pitch": 56, "duration": 7, "velocity": 73}, {"time": 1236, "pitch": 61, "duration": 25, "velocity": 112}, {"time": 1242, "pitch": 49, "duration": 14, "velocity": 92}, {"time": 1248, "pitch": 56, "duration": 12, "velocity": 79}, {"time": 1254, "pitch": 53, "duration": 7, "velocity": 72}, {"time": 1260, "pitch": 42, "duration": 46, "velocity": 83}, {"time": 1266, "pitch": 54, "duration": 20, "velocity": 77}, {"time": 1272, "pitch": 61, "duration": 9, "velocity": 52}, {"time": 1278, "pitch": 70, "duration": 27, "velocity": 97}, {"time": 1284, "pitch": 61, "duration": 14, "velocity": 50}, {"time": 1290, "pitch": 54, "duration": 21, "velocity": 47}, {"time": 1296, "pitch": 66, "duration": 14, "velocity": 40}, {"time": 1302, "pitch": 61, "duration": 16, "velocity": 63}, {"time": 1308, "pitch": 42, "duration": 45, "velocity": 76}, {"time": 1314, "pitch": 54, "duration": 20, "velocity": 73}, {"time": 1320, "pitch": 61, "duration": 16, "velocity": 70}, {"time": 1326, "pitch": 66, "duration": 7, "velocity": 54}, {"time": 1332, "pitch": 68, "duration": 29, "velocity": 97}, {"time": 1338, "pitch": 54, "duration": 20, "velocity": 86}, {"time": 1344, "pitch": 66, "duration": 17, "velocity": 67}, {"time": 1350, "pitch": 61, "duration": 12, "velocity": 78}, {"time": 1356, "pitch": 42, "duration": 36, "velocity": 78}, {"time": 1362, "pitch": 54, "duration": 20, "velocity": 96}, {"time": 1368, "pitch": 61, "duration": 9, "velocity": 68}, {"time": 1374, "pitch": 70, "duration": 19, "velocity": 95}, {"time": 1380, "pitch": 61, "duration": 24, "velocity": 63}, {"time": 1386, "pitch": 54, "duration": 6, "velocity": 68}, {"time": 1392, "pitch": 68, "duration": 8, "velocity": 100}, {"time": 1398, "pitch": 66, "duration": 6, "velocity": 64}, {"time": 1404, "pitch": 37, "duration": 38, "velocity": 72}, {"time": 1410, "pitch": 49, "duration": 21, "velocity": 77}, {"time": 1416, "pitch": 53, "duration": 8, "velocity": 76}, {"time": 1422, "pitch": 56, "duration": 8, "velocity": 66}, {"time": 1428, "pitch": 61, "duration": 24, "velocity": 97}, {"time": 1434, "pitch": 49, "duration": 10, "velocity": 77}, {"time": 1440, "pitch": 53, "duration": 11, "velocity": 69}, {"time": 1452, "pitch": 42, "duration": 36, "velocity": 92}, {"time": 1458, "pitch": 54, "duration": 21, "velocity": 85}, {"time": 1464, "pitch": 61, "duration": 14, "velocity": 92}, {"time": 1470, "pitch": 66, "duration": 14, "velocity": 56}, {"time": 1476, "pitch": 70, "duration": 23, "velocity": 107}, {"time": 1482, "pitch": 54, "duration": 5, "velocity": 82}, {"time": 1488, "pitch": 61, "duration": 14, "velocity": 92}, {"time": 1494, "pitch": 66, "duration": 6, "velocity": 69}, {"time": 1500, "pitch": 39, "duration": 36, "velocity": 79}, {"time": 1506, "pitch": 51, "duration": 20, "velocity": 69}, {"time": 1512, "pitch": 58, "duration": 13, "velocity": 95}, {"time": 1518, "pitch": 63, "duration": 7, "velocity": 55}, {"time": 1524, "pitch": 66, "duration": 24, "velocity": 100}, {"time": 1530, "pitch": 51, "duration": 16, "velocity": 90}, {"time": 1536, "pitch": 63, "duration": 12, "velocity": 74}, {"time": 1542, "pitch": 58, "duration": 5, "velocity": 52}, {"time": 1548, "pitch": 44, "duration": 37, "velocity": 96}, {"time": 1554, "pitch": 56, "duration": 20, "velocity": 89}, {"time": 1560, "pitch": 59, "duration": 13, "velocity": 70}, {"time": 1566, "pitch": 68, "duration": 30, "velocity": 122}, {"time": 1572, "pitch": 63, "duration": 14, "velocity": 40}, {"time": 1578, "pitch": 56, "duration": 5, "velocity": 49}, {"time": 1584, "pitch": 59, "duration": 12, "velocity": 81}, {"time": 1590, "pitch": 63, "duration": 6, "velocity": 86}, {"time": 1596, "pitch": 47, "duration": 12, "velocity": 92}, {"time": 1599, "pitch": 54, "duration": 7, "velocity": 89}, {"time": 1605, "pitch": 59, "duration": 14, "velocity": 89}, {"time": 1611, "pitch": 66, "duration": 7, "velocity": 72}, {"time": 1620, "pitch": 37, "duration": 25, "velocity": 78}, {"time": 1623, "pitch": 49, "duration": 18, "velocity": 97}, {"time": 1632, "pitch": 53, "duration": 12, "velocity": 70}, {"time": 1638, "pitch": 61, "duration": 7, "velocity": 88}, {"time": 1644, "pitch": 42, "duration": 34, "velocity": 83}, {"time": 1650, "pitch": 54, "duration": 16, "velocity": 79}, {"time": 1656, "pitch": 61, "duration": 7, "velocity": 83}, {"time": 1662, "pitch": 66, "duration": 12, "velocity": 90}, {"time": 1662, "pitch": 70, "duration": 12, "velocity": 112}, {"time": 1668, "pitch": 61, "duration": 14, "velocity": 41}, {"time": 1674, "pitch": 54, "duration": 8, "velocity": 63}, {"time": 1680, "pitch": 66, "duration": 11, "velocity": 117}, {"time": 1680, "pitch": 70, "duration": 11, "velocity": 112}, {"time": 1686, "pitch": 61, "duration": 6, "velocity": 69}, {"time": 1692, "pitch": 46, "duration": 39, "velocity": 88}, {"time": 1698, "pitch": 58, "duration": 16, "velocity": 81}, {"time": 1704, "pitch": 61, "duration": 8, "velocity": 89}, {"time": 1710, "pitch": 65, "duration": 12, "velocity": 74}, {"time": 1710, "pitch": 70, "duration": 12, "velocity": 97}, {"time": 1716, "pitch": 61, "duration": 11, "velocity": 56}, {"time": 1722, "pitch": 58, "duration": 7, "velocity": 96}, {"time": 1728, "pitch": 65, "duration": 11, "velocity": 86}, {"time": 1728, "pitch": 70, "duration": 11, "velocity": 117}, {"time": 1734, "pitch": 61, "duration": 6, "velocity": 88}, {"time": 1740, "pitch": 42, "duration": 37, "velocity": 99}, {"time": 1746, "pitch": 54, "duration": 16, "velocity": 82}, {"time": 1752, "pitch": 61, "duration": 5, "velocity": 90}, {"time": 1758, "pitch": 66, "duration": 14, "velocity": 97}, {"time": 1758, "pitch": 70, "duration": 12, "velocity": 107}, {"time": 1770, "pitch": 54, "duration": 6, "velocity": 79}, {"time": 1776, "pitch": 66, "duration": 8, "velocity": 112}, {"time": 1776, "pitch": 70, "duration": 9, "velocity": 102}, {"time": 1782, "pitch": 61, "duration": 7, "velocity": 65}, {"time": 1788, "pitch": 37, "duration": 36, "velocity": 95}, {"time": 1794, "pitch": 61, "duration": 11, "velocity": 69}, {"time": 1794, "pitch": 65, "duration": 10, "velocity": 72}, {"time": 1794, "pitch": 68, "duration": 8, "velocity": 72}, {"time": 1806, "pitch": 49, "duration": 11, "velocity": 67}, {"time": 1812, "pitch": 65, "duration": 8, "velocity": 102}, {"time": 1812, "pitch": 68, "duration": 6, "velocity": 102}, {"time": 1818, "pitch": 49, "duration": 9, "velocity": 96}, {"time": 1824, "pitch": 65, "duration": 13, "velocity": 97}, {"time": 1824, "pitch": 68, "duration": 13, "velocity": 112}, {"time": 1830, "pitch": 61, "duration": 10, "velocity": 79}, {"time": 1836, "pitch": 42, "duration": 36, "velocity": 88}, {"time": 1842, "pitch": 54, "duration": 17, "velocity": 86}, {"time": 1848, "pitch": 61, "duration": 4, "velocity": 74}, {"time": 1854, "pitch": 66, "duration": 13, "velocity": 102}, {"time": 1854, "pitch": 70, "duration": 13, "velocity": 102}, {"time": 1866, "pitch": 54, "duration": 5, "velocity": 40}, {"time": 1872, "pitch": 66, "duration": 4, "velocity": 122}, {"time": 1872, "pitch": 70, "duration": 11, "velocity": 107}, {"time": 1878, "pitch": 61, "duration": 7, "velocity": 93}, {"time": 1878, "pitch": 66, "duration": 5, "velocity": 27}, {"time": 1884, "pitch": 39, "duration": 35, "velocity": 88}, {"time": 1890, "pitch": 51, "duration": 16, "velocity": 76}, {"time": 1896, "pitch": 63, "duration": 5, "velocity": 67}, {"time": 1902, "pitch": 66, "duration": 14, "velocity": 99}, {"time": 1902, "pitch": 70, "duration": 13, "velocity": 96}, {"time": 1914, "pitch": 51, "duration": 7, "velocity": 83}, {"time": 1920, "pitch": 66, "duration": 10, "velocity": 127}, {"time": 1920, "pitch": 70, "duration": 10, "velocity": 107}, {"time": 1926, "pitch": 63, "duration": 5, "velocity": 90}, {"time": 1932, "pitch": 44, "duration": 36, "velocity": 90}, {"time": 1938, "pitch": 56, "duration": 18, "velocity": 79}, {"time": 1944, "pitch": 59, "duration": 4, "velocity": 61}, {"time": 1950, "pitch": 63, "duration": 14, "velocity": 100}, {"time": 1950, "pitch": 68, "duration": 14, "velocity": 112}, {"time": 1956, "pitch": 59, "duration": 7, "velocity": 35}, {"time": 1962, "pitch": 56, "duration": 5, "velocity": 59}, {"time": 1968, "pitch": 63, "duration": 12, "velocity": 112}, {"time": 1968, "pitch": 68, "duration": 12, "velocity": 99}, {"time": 1974, "pitch": 59, "duration": 6, "velocity": 69}, {"time": 1980, "pitch": 42, "duration": 48, "velocity": 79}, {"time": 1986, "pitch": 54, "duration": 18, "velocity": 58}, {"time": 1992, "pitch": 61, "duration": 7, "velocity": 90}, {"time": 1998, "pitch": 66, "duration": 12, "velocity": 85}, {"time": 1998, "pitch": 70, "duration": 11, "velocity": 100}, {"time": 2004, "pitch": 61, "duration": 12, "velocity": 71}, {"time": 2010, "pitch": 54, "duration": 12, "velocity": 85}, {"time": 2016, "pitch": 66, "duration": 12, "velocity": 102}, {"time": 2016, "pitch": 70, "duration": 12, "velocity": 102}, {"time": 2022, "pitch": 61, "duration": 7, "velocity": 100}, {"time": 2028, "pitch": 42, "duration": 1, "velocity": 99}, {"time": 2028, "pitch": 61, "duration": 1, "velocity": 97}, {"time": 2028, "pitch": 66, "duration": 1, "velocity": 88}, {"time": 2028, "pitch": 70, "duration": 1, "velocity": 82}, {"time": 2034, "pitch": 61, "duration": 9, "velocity": 93}, {"time": 2034, "pitch": 66, "duration": 9, "velocity": 79}, {"time": 2034, "pitch": 70, "duration": 8, "velocity": 86}, {"time": 2043, "pitch": 54, "duration": 12, "velocity": 38}, {"time": 2046, "pitch": 61, "duration": 4, "velocity": 66}, {"time": 2046, "pitch": 66, "duration": 4, "velocity": 42}, {"time": 2046, "pitch": 70, "duration": 4, "velocity": 61}, {"time": 2052, "pitch": 61, "duration": 10, "velocity": 97}, {"time": 2052, "pitch": 66, "duration": 8, "velocity": 86}, {"time": 2052, "pitch": 70, "duration": 8, "velocity": 89}, {"time": 2064, "pitch": 66, "duration": 11, "velocity": 102}, {"time": 2064, "pitch": 70, "duration": 9, "velocity": 107}, {"time": 2070, "pitch": 61, "duration": 5, "velocity": 107}, {"time": 2073, "pitch": 54, "duration": 2, "velocity": 8}, {"time": 2076, "pitch": 42, "duration": 45, "velocity": 100}, {"time": 2082, "pitch": 61, "duration": 8, "velocity": 102}, {"time": 2082, "pitch": 66, "duration": 8, "velocity": 107}, {"time": 2082, "pitch": 70, "duration": 7, "velocity": 107}, {"time": 2094, "pitch": 61, "duration": 4, "velocity": 82}, {"time": 2094, "pitch": 66, "duration": 4, "velocity": 78}, {"time": 2094, "pitch": 70, "duration": 4, "velocity": 93}, {"time": 2100, "pitch": 61, "duration": 11, "velocity": 97}, {"time": 2100, "pitch": 66, "duration": 6, "velocity": 102}, {"time": 2100, "pitch": 70, "duration": 5, "velocity": 102}, {"time": 2109, "pitch": 66, "duration": 2, "velocity": 31}, {"time": 2112, "pitch": 66, "duration": 14, "velocity": 117}, {"time": 2112, "pitch": 70, "duration": 14, "velocity": 117}, {"time": 2118, "pitch": 61, "duration": 9, "velocity": 96}, {"time": 2124, "pitch": 42, "duration": 36, "velocity": 99}, {"time": 2130, "pitch": 54, "duration": 21, "velocity": 93}, {"time": 2130, "pitch": 61, "duration": 8, "velocity": 99}, {"time": 2130, "pitch": 66, "duration": 7, "velocity": 81}, {"time": 2130, "pitch": 70, "duration": 6, "velocity": 81}, {"time": 2142, "pitch": 61, "duration": 3, "velocity": 93}, {"time": 2142, "pitch": 66, "duration": 2, "velocity": 82}, {"time": 2142, "pitch": 70, "duration": 3, "velocity": 82}, {"time": 2148, "pitch": 61, "duration": 6, "velocity": 95}, {"time": 2148, "pitch": 66, "duration": 6, "velocity": 117}, {"time": 2148, "pitch": 70, "duration": 6, "velocity": 107}, {"time": 2154, "pitch": 54, "duration": 5, "velocity": 83}, {"time": 2160, "pitch": 66, "duration": 3, "velocity": 127}, {"time": 2160, "pitch": 70, "duration": 4, "velocity": 112}, {"time": 2166, "pitch": 61, "duration": 9, "velocity": 86}, {"time": 2172, "pitch": 37, "duration": 36, "velocity": 100}, {"time": 2178, "pitch": 49, "duration": 20, "velocity": 83}, {"time": 2178, "pitch": 61, "duration": 8, "velocity": 100}, {"time": 2178, "pitch": 65, "duration": 7, "velocity": 93}, {"time": 2178, "pitch": 68, "duration": 6, "velocity": 95}, {"time": 2190, "pitch": 61, "duration": 4, "velocity": 76}, {"time": 2190, "pitch": 65, "duration": 3, "velocity": 77}, {"time": 2190, "pitch": 68, "duration": 3, "velocity": 88}, {"time": 2196, "pitch": 61, "duration": 6, "velocity": 95}, {"time": 2196, "pitch": 65, "duration": 4, "velocity": 99}, {"time": 2196, "pitch": 68, "duration": 6, "velocity": 99}, {"time": 2202, "pitch": 49, "duration": 9, "velocity": 88}, {"time": 2208, "pitch": 65, "duration": 12, "velocity": 97}, {"time": 2208, "pitch": 68, "duration": 12, "velocity": 112}, {"time": 2214, "pitch": 61, "duration": 10, "velocity": 83}, {"time": 2220, "pitch": 42, "duration": 35, "velocity": 88}, {"time": 2226, "pitch": 54, "duration": 19, "velocity": 92}, {"time": 2226, "pitch": 61, "duration": 9, "velocity": 95}, {"time": 2226, "pitch": 66, "duration": 8, "velocity": 107}, {"time": 2226, "pitch": 70, "duration": 6, "velocity": 107}, {"time": 2238, "pitch": 61, "duration": 4, "velocity": 96}, {"time": 2238, "pitch": 66, "duration": 4, "velocity": 97}, {"time": 2238, "pitch": 70, "duration": 3, "velocity": 95}, {"time": 2244, "pitch": 61, "duration": 1, "velocity": 34}, {"time": 2244, "pitch": 66, "duration": 9, "velocity": 122}, {"time": 2244, "pitch": 70, "duration": 8, "velocity": 107}, {"time": 2250, "pitch": 54, "duration": 4, "velocity": 88}, {"time": 2256, "pitch": 61, "duration": 10, "velocity": 117}, {"time": 2268, "pitch": 39, "duration": 34, "velocity": 102}, {"time": 2274, "pitch": 51, "duration": 20, "velocity": 86}, {"time": 2274, "pitch": 58, "duration": 8, "velocity": 99}, {"time": 2274, "pitch": 63, "duration": 7, "velocity": 89}, {"time": 2274, "pitch": 66, "duration": 6, "velocity": 85}, {"time": 2286, "pitch": 58, "duration": 4, "velocity": 86}, {"time": 2286, "pitch": 63, "duration": 4, "velocity": 93}, {"time": 2286, "pitch": 66, "duration": 3, "velocity": 82}, {"time": 2292, "pitch": 63, "duration": 7, "velocity": 102}, {"time": 2292, "pitch": 66, "duration": 6, "velocity": 97}, {"time": 2298, "pitch": 51, "duration": 8, "velocity": 92}, {"time": 2304, "pitch": 58, "duration": 10, "velocity": 100}, {"time": 2310, "pitch": 63, "duration": 5, "velocity": 77}, {"time": 2310, "pitch": 66, "duration": 4, "velocity": 89}, {"time": 2316, "pitch": 37, "duration": 36, "velocity": 97}, {"time": 2322, "pitch": 61, "duration": 9, "velocity": 100}, {"time": 2322, "pitch": 65, "duration": 8, "velocity": 99}, {"time": 2322, "pitch": 68, "duration": 8, "velocity": 100}, {"time": 2334, "pitch": 61, "duration": 3, "velocity": 90}, {"time": 2334, "pitch": 65, "duration": 2, "velocity": 92}, {"time": 2334, "pitch": 68, "duration": 2, "velocity": 89}, {"time": 2340, "pitch": 61, "duration": 6, "velocity": 95}, {"time": 2340, "pitch": 65, "duration": 6, "velocity": 97}, {"time": 2340, "pitch": 68, "duration": 6, "velocity": 93}, {"time": 2346, "pitch": 49, "duration": 9, "velocity": 70}, {"time": 2352, "pitch": 65, "duration": 11, "velocity": 102}, {"time": 2352, "pitch": 68, "duration": 11, "velocity": 107}, {"time": 2358, "pitch": 61, "duration": 10, "velocity": 67}, {"time": 2364, "pitch": 42, "duration": 50, "velocity": 90}, {"time": 2370, "pitch": 54, "duration": 20, "velocity": 39}, {"time": 2370, "pitch": 61, "duration": 9, "velocity": 102}, {"time": 2370, "pitch": 66, "duration": 9, "velocity": 81}, {"time": 2370, "pitch": 70, "duration": 7, "velocity": 81}, {"time": 2382, "pitch": 61, "duration": 6, "velocity": 82}, {"time": 2382, "pitch": 66, "duration": 5, "velocity": 83}, {"time": 2382, "pitch": 70, "duration": 4, "velocity": 92}, {"time": 2388, "pitch": 66, "duration": 25, "velocity": 97}, {"time": 2388, "pitch": 70, "duration": 25, "velocity": 93}, {"time": 2394, "pitch": 54, "duration": 19, "velocity": 88}, {"time": 2400, "pitch": 61, "duration": 14, "velocity": 93}, {"time": 2412, "pitch": 42, "duration": 2, "velocity": 83}, {"time": 2418, "pitch": 54, "duration": 20, "velocity": 77}, {"time": 2424, "pitch": 61, "duration": 9, "velocity": 52}, {"time": 2430, "pitch": 70, "duration": 27, "velocity": 97}, {"time": 2436, "pitch": 61, "duration": 14, "velocity": 50}, {"time": 2442, "pitch": 54, "duration": 21, "velocity": 47}, {"time": 2448, "pitch": 66, "duration": 14, "velocity": 40}, {"time": 2454, "pitch": 61, "duration": 16, "velocity": 63}, {"time": 2460, "pitch": 42, "duration": 45, "velocity": 76}, {"time": 2466, "pitch": 54, "duration": 20, "velocity": 73}, {"time": 2472, "pitch": 61, "duration": 16, "velocity": 70}, {"time": 2478, "pitch": 66, "duration": 7, "velocity": 54}, {"time": 2484, "pitch": 68, "duration": 29, "velocity": 97}, {"time": 2490, "pitch": 54, "duration": 20, "velocity": 86}, {"time": 2496, "pitch": 66, "duration": 17, "velocity": 67}, {"time": 2502, "pitch": 61, "duration": 12, "velocity": 78}, {"time": 2508, "pitch": 42, "duration": 36, "velocity": 78}, {"time": 2514, "pitch": 54, "duration": 20, "velocity": 96}, {"time": 2520, "pitch": 61, "duration": 9, "velocity": 68}, {"time": 2526, "pitch": 70, "duration": 19, "velocity": 95}, {"time": 2532, "pitch": 61, "duration": 24, "velocity": 63}, {"time": 2538, "pitch": 54, "duration": 6, "velocity": 68}, {"time": 2544, "pitch": 68, "duration": 8, "velocity": 100}, {"time": 2550, "pitch": 42, "duration": 7, "velocity": 112}, {"time": 2550, "pitch": 66, "duration": 6, "velocity": 64}, {"time": 2556, "pitch": 37, "duration": 38, "velocity": 72}, {"time": 2562, "pitch": 49, "duration": 21, "velocity": 77}, {"time": 2568, "pitch": 53, "duration": 8, "velocity": 76}, {"time": 2574, "pitch": 56, "duration": 8, "velocity": 66}, {"time": 2580, "pitch": 61, "duration": 24, "velocity": 97}, {"time": 2586, "pitch": 49, "duration": 10, "velocity": 77}, {"time": 2592, "pitch": 53, "duration": 11, "velocity": 69}, {"time": 2598, "pitch": 37, "duration": 6, "velocity": 93}, {"time": 2604, "pitch": 42, "duration": 36, "velocity": 92}, {"time": 2610, "pitch": 54, "duration": 21, "velocity": 85}, {"time": 2616, "pitch": 61, "duration": 14, "velocity": 92}, {"time": 2622, "pitch": 66, "duration": 14, "velocity": 56}, {"time": 2628, "pitch": 70, "duration": 23, "velocity": 107}, {"time": 2634, "pitch": 54, "duration": 5, "velocity": 82}, {"time": 2640, "pitch": 61, "duration": 14, "velocity": 92}, {"time": 2646, "pitch": 42, "duration": 5, "velocity": 99}, {"time": 2646, "pitch": 66, "duration": 6, "velocity": 69}, {"time": 2652, "pitch": 39, "duration": 36, "velocity": 79}, {"time": 2658, "pitch": 51, "duration": 20, "velocity": 69}, {"time": 2664, "pitch": 58, "duration": 13, "velocity": 95}, {"time": 2670, "pitch": 63, "duration": 7, "velocity": 55}, {"time": 2676, "pitch": 66, "duration": 24, "velocity": 100}, {"time": 2682, "pitch": 51, "duration": 16, "velocity": 90}, {"time": 2688, "pitch": 63, "duration": 12, "velocity": 74}, {"time": 2694, "pitch": 39, "duration": 6, "velocity": 99}, {"time": 2694, "pitch": 58, "duration": 5, "velocity": 52}, {"time": 2700, "pitch": 44, "duration": 37, "velocity": 96}, {"time": 2706, "pitch": 56, "duration": 20, "velocity": 89}, {"time": 2712, "pitch": 59, "duration": 13, "velocity": 70}, {"time": 2718, "pitch": 68, "duration": 30, "velocity": 122}, {"time": 2724, "pitch": 63, "duration": 14, "velocity": 40}, {"time": 2730, "pitch": 56, "duration": 5, "velocity": 49}, {"time": 2736, "pitch": 59, "duration": 12, "velocity": 81}, {"time": 2742, "pitch": 44, "duration": 5, "velocity": 117}, {"time": 2742, "pitch": 63, "duration": 6, "velocity": 86}, {"time": 2748, "pitch": 47, "duration": 12, "velocity": 92}, {"time": 2751, "pitch": 54, "duration": 7, "velocity": 89}, {"time": 2757, "pitch": 59, "duration": 14, "velocity": 89}, {"time": 2763, "pitch": 66, "duration": 7, "velocity": 72}, {"time": 2772, "pitch": 37, "duration": 25, "velocity": 78}, {"time": 2775, "pitch": 49, "duration": 18, "velocity": 97}, {"time": 2784, "pitch": 53, "duration": 12, "velocity": 70}, {"time": 2790, "pitch": 61, "duration": 7, "velocity": 88}, {"time": 2796, "pitch": 39, "duration": 40, "velocity": 112}, {"time": 2796, "pitch": 63, "duration": 13, "velocity": 92}, {"time": 2796, "pitch": 66, "duration": 14, "velocity": 117}, {"time": 2796, "pitch": 70, "duration": 9, "velocity": 88}, {"time": 2808, "pitch": 51, "duration": 10, "velocity": 89}, {"time": 2814, "pitch": 63, "duration": 20, "velocity": 82}, {"time": 2814, "pitch": 66, "duration": 20, "velocity": 107}, {"time": 2814, "pitch": 70, "duration": 19, "velocity": 95}, {"time": 2832, "pitch": 51, "duration": 4, "velocity": 72}, {"time": 2838, "pitch": 63, "duration": 4, "velocity": 92}, {"time": 2838, "pitch": 66, "duration": 3, "velocity": 97}, {"time": 2844, "pitch": 37, "duration": 38, "velocity": 96}, {"time": 2844, "pitch": 61, "duration": 14, "velocity": 100}, {"time": 2844, "pitch": 66, "duration": 14, "velocity": 96}, {"time": 2844, "pitch": 68, "duration": 9, "velocity": 96}, {"time": 2856, "pitch": 49, "duration": 14, "velocity": 67}, {"time": 2862, "pitch": 66, "duration": 13, "velocity": 127}, {"time": 2862, "pitch": 68, "duration": 10, "velocity": 122}, {"time": 2868, "pitch": 61, "duration": 7, "velocity": 37}, {"time": 2874, "pitch": 49, "duration": 11, "velocity": 83}, {"time": 2880, "pitch": 66, "duration": 8, "velocity": 127}, {"time": 2880, "pitch": 68, "duration": 7, "velocity": 127}, {"time": 2883, "pitch": 61, "duration": 5, "velocity": 83}, {"time": 2892, "pitch": 47, "duration": 34, "velocity": 68}, {"time": 2892, "pitch": 59, "duration": 14, "velocity": 93}, {"time": 2892, "pitch": 63, "duration": 14, "velocity": 122}, {"time": 2892, "pitch": 66, "duration": 13, "velocity": 107}, {"time": 2901, "pitch": 54, "duration": 16, "velocity": 65}, {"time": 2910, "pitch": 63, "duration": 15, "velocity": 117}, {"time": 2910, "pitch": 66, "duration": 15, "velocity": 99}, {"time": 2922, "pitch": 54, "duration": 5, "velocity": 61}, {"time": 2928, "pitch": 59, "duration": 1, "velocity": 32}, {"time": 2928, "pitch": 63, "duration": 3, "velocity": 112}, {"time": 2928, "pitch": 66, "duration": 2, "velocity": 96}, {"time": 2940, "pitch": 46, "duration": 34, "velocity": 86}, {"time": 2940, "pitch": 58, "duration": 27, "velocity": 74}, {"time": 2940, "pitch": 61, "duration": 16, "velocity": 112}, {"time": 2940, "pitch": 65, "duration": 16, "velocity": 92}, {"time": 2958, "pitch": 61, "duration": 15, "velocity": 102}, {"time": 2958, "pitch": 65, "duration": 16, "velocity": 86}, {"time": 2970, "pitch": 58, "duration": 4, "velocity": 64}, {"time": 2973, "pitch": 61, "duration": 2, "velocity": 117}, {"time": 2976, "pitch": 65, "duration": 2, "velocity": 71}, {"time": 2988, "pitch": 42, "duration": 36, "velocity": 82}, {"time": 2988, "pitch": 61, "duration": 14, "velocity": 95}, {"time": 2988, "pitch": 66, "duration": 14, "velocity": 102}, {"time": 2988, "pitch": 70, "duration": 13, "velocity": 100}, {"time": 2997, "pitch": 54, "duration": 13, "velocity": 57}, {"time": 3006, "pitch": 66, "duration": 13, "velocity": 112}, {"time": 3006, "pitch": 70, "duration": 13, "velocity": 102}, {"time": 3015, "pitch": 54, "duration": 6, "velocity": 71}, {"time": 3021, "pitch": 66, "duration": 10, "velocity": 127}, {"time": 3021, "pitch": 70, "duration": 7, "velocity": 100}, {"time": 3036, "pitch": 39, "duration": 35, "velocity": 86}, {"time": 3036, "pitch": 63, "duration": 15, "velocity": 89}, {"time": 3036, "pitch": 66, "duration": 15, "velocity": 93}, {"time": 3036, "pitch": 70, "duration": 14, "velocity": 89}, {"time": 3048, "pitch": 51, "duration": 14, "velocity": 52}, {"time": 3060, "pitch": 66, "duration": 12, "velocity": 127}, {"time": 3060, "pitch": 70, "duration": 12, "velocity": 127}, {"time": 3066, "pitch": 51, "duration": 7, "velocity": 100}, {"time": 3072, "pitch": 63, "duration": 2, "velocity": 99}, {"time": 3084, "pitch": 44, "duration": 40, "velocity": 86}, {"time": 3084, "pitch": 60, "duration": 15, "velocity": 93}, {"time": 3084, "pitch": 63, "duration": 15, "velocity": 127}, {"time": 3084, "pitch": 68, "duration": 15, "velocity": 90}, {"time": 3093, "pitch": 56, "duration": 15, "velocity": 82}, {"time": 3102, "pitch": 60, "duration": 13, "velocity": 79}, {"time": 3102, "pitch": 63, "duration": 13, "velocity": 99}, {"time": 3102, "pitch": 68, "duration": 13, "velocity": 85}, {"time": 3114, "pitch": 56, "duration": 8, "velocity": 60}, {"time": 3120, "pitch": 63, "duration": 5, "velocity": 127}, {"time": 3120, "pitch": 68, "duration": 5, "velocity": 117}, {"time": 3132, "pitch": 37, "duration": 34, "velocity": 97}, {"time": 3132, "pitch": 61, "duration": 14, "velocity": 99}, {"time": 3132, "pitch": 65, "duration": 12, "velocity": 97}, {"time": 3132, "pitch": 68, "duration": 12, "velocity": 99}, {"time": 3144, "pitch": 49, "duration": 13, "velocity": 85}, {"time": 3150, "pitch": 61, "duration": 14, "velocity": 97}, {"time": 3150, "pitch": 65, "duration": 14, "velocity": 107}, {"time": 3150, "pitch": 68, "duration": 12, "velocity": 107}, {"time": 3162, "pitch": 49, "duration": 4, "velocity": 97}, {"time": 3168, "pitch": 37, "duration": 12, "velocity": 72}, {"time": 3168, "pitch": 49, "duration": 11, "velocity": 90}, {"time": 3168, "pitch": 65, "duration": 11, "velocity": 122}, {"time": 3168, "pitch": 68, "duration": 12, "velocity": 127}, {"time": 3180, "pitch": 37, "duration": 4, "velocity": 66}, {"time": 3180, "pitch": 49, "duration": 4, "velocity": 82}, {"time": 3180, "pitch": 61, "duration": 3, "velocity": 96}, {"time": 3180, "pitch": 65, "duration": 2, "velocity": 97}, {"time": 3180, "pitch": 68, "duration": 3, "velocity": 92}, {"time": 3186, "pitch": 37, "duration": 4, "velocity": 71}, {"time": 3186, "pitch": 49, "duration": 3, "velocity": 71}, {"time": 3186, "pitch": 61, "duration": 3, "velocity": 71}, {"time": 3186, "pitch": 65, "duration": 3, "velocity": 56}, {"time": 3186, "pitch": 68, "duration": 3, "velocity": 61}, {"time": 3192, "pitch": 37, "duration": 4, "velocity": 66}, {"time": 3192, "pitch": 49, "duration": 4, "velocity": 90}, {"time": 3192, "pitch": 61, "duration": 4, "velocity": 93}, {"time": 3192, "pitch": 65, "duration": 3, "velocity": 96}, {"time": 3192, "pitch": 68, "duration": 3, "velocity": 74}, {"time": 3198, "pitch": 37, "duration": 4, "velocity": 73}, {"time": 3198, "pitch": 49, "duration": 4, "velocity": 99}, {"time": 3198, "pitch": 61, "duration": 4, "velocity": 100}, {"time": 3198, "pitch": 65, "duration": 3, "velocity": 95}, {"time": 3198, "pitch": 68, "duration": 4, "velocity": 88}, {"time": 3204, "pitch": 37, "duration": 4, "velocity": 74}, {"time": 3204, "pitch": 49, "duration": 3, "velocity": 102}, {"time": 3204, "pitch": 61, "duration": 3, "velocity": 100}, {"time": 3204, "pitch": 65, "duration": 3, "velocity": 97}, {"time": 3204, "pitch": 68, "duration": 3, "velocity": 96}, {"time": 3210, "pitch": 37, "duration": 4, "velocity": 89}, {"time": 3210, "pitch": 49, "duration": 3, "velocity": 99}, {"time": 3210, "pitch": 61, "duration": 3, "velocity": 117}, {"time": 3210, "pitch": 65, "duration": 3, "velocity": 127}, {"time": 3210, "pitch": 68, "duration": 4, "velocity": 122}, {"time": 3216, "pitch": 37, "duration": 3, "velocity": 90}, {"time": 3216, "pitch": 49, "duration": 3, "velocity": 100}, {"time": 3216, "pitch": 61, "duration": 3, "velocity": 100}, {"time": 3216, "pitch": 65, "duration": 3, "velocity": 100}, {"time": 3216, "pitch": 68, "duration": 3, "velocity": 95}, {"time": 3222, "pitch": 37, "duration": 6, "velocity": 93}, {"time": 3222, "pitch": 49, "duration": 6, "velocity": 90}, {"time": 3222, "pitch": 61, "duration": 6, "velocity": 117}, {"time": 3222, "pitch": 65, "duration": 5, "velocity": 122}, {"time": 3222, "pitch": 66, "duration": 1, "velocity": 72}, {"time": 3222, "pitch": 68, "duration": 5, "velocity": 127}, {"time": 3228, "pitch": 42, "duration": 14, "velocity": 99}, {"time": 3240, "pitch": 61, "duration": 12, "velocity": 107}, {"time": 3240, "pitch": 66, "duration": 12, "velocity": 117}, {"time": 3240, "pitch": 70, "duration": 12, "velocity": 100}, {"time": 3246, "pitch": 42, "duration": 2, "velocity": 90}, {"time": 3246, "pitch": 54, "duration": 2, "velocity": 96}, {"time": 3252, "pitch": 42, "duration": 21, "velocity": 83}, {"time": 3252, "pitch": 54, "duration": 21, "velocity": 95}, {"time": 3264, "pitch": 66, "duration": 10, "velocity": 127}, {"time": 3264, "pitch": 70, "duration": 10, "velocity": 122}, {"time": 3270, "pitch": 61, "duration": 5, "velocity": 76}, {"time": 3276, "pitch": 42, "duration": 14, "velocity": 93}, {"time": 3276, "pitch": 54, "duration": 14, "velocity": 82}, {"time": 3288, "pitch": 61, "duration": 10, "velocity": 102}, {"time": 3288, "pitch": 66, "duration": 10, "velocity": 117}, {"time": 3288, "pitch": 70, "duration": 11, "velocity": 102}, {"time": 3294, "pitch": 42, "duration": 2, "velocity": 76}, {"time": 3294, "pitch": 54, "duration": 2, "velocity": 99}, {"time": 3300, "pitch": 42, "duration": 21, "velocity": 88}, {"time": 3300, "pitch": 54, "duration": 21, "velocity": 100}, {"time": 3306, "pitch": 61, "duration": 9, "velocity": 117}, {"time": 3306, "pitch": 66, "duration": 9, "velocity": 122}, {"time": 3306, "pitch": 70, "duration": 9, "velocity": 107}, {"time": 3318, "pitch": 61, "duration": 6, "velocity": 102}, {"time": 3318, "pitch": 66, "duration": 6, "velocity": 107}, {"time": 3318, "pitch": 70, "duration": 6, "velocity": 96}, {"time": 3324, "pitch": 42, "duration": 14, "velocity": 93}, {"time": 3324, "pitch": 54, "duration": 14, "velocity": 93}, {"time": 3336, "pitch": 61, "duration": 13, "velocity": 100}, {"time": 3336, "pitch": 66, "duration": 12, "velocity": 127}, {"time": 3336, "pitch": 70, "duration": 13, "velocity": 102}, {"time": 3342, "pitch": 42, "duration": 2, "velocity": 71}, {"time": 3342, "pitch": 54, "duration": 2, "velocity": 92}, {"time": 3348, "pitch": 42, "duration": 13, "velocity": 81}, {"time": 3348, "pitch": 54, "duration": 11, "velocity": 93}, {"time": 3354, "pitch": 61, "duration": 9, "velocity": 112}, {"time": 3354, "pitch": 66, "duration": 9, "velocity": 122}, {"time": 3354, "pitch": 70, "duration": 8, "velocity": 107}, {"time": 3366, "pitch": 61, "duration": 6, "velocity": 102}, {"time": 3366, "pitch": 66, "duration": 5, "velocity": 117}, {"time": 3366, "pitch": 70, "duration": 5, "velocity": 100}, {"time": 3372, "pitch": 37, "duration": 14, "velocity": 67}, {"time": 3372, "pitch": 49, "duration": 14, "velocity": 86}, {"time": 3384, "pitch": 61, "duration": 14, "velocity": 107}, {"time": 3384, "pitch": 65, "duration": 13, "velocity": 122}, {"time": 3384, "pitch": 68, "duration": 13, "velocity": 107}, {"time": 3390, "pitch": 37, "duration": 3, "velocity": 69}, {"time": 3390, "pitch": 49, "duration": 2, "velocity": 93}, {"time": 3396, "pitch": 37, "duration": 17, "velocity": 88}, {"time": 3396, "pitch": 49, "duration": 18, "velocity": 97}, {"time": 3402, "pitch": 61, "duration": 9, "velocity": 100}, {"time": 3402, "pitch": 65, "duration": 8, "velocity": 112}, {"time": 3402, "pitch": 68, "duration": 8, "velocity": 112}, {"time": 3414, "pitch": 61, "duration": 4, "velocity": 100}, {"time": 3414, "pitch": 65, "duration": 2, "velocity": 112}, {"time": 3414, "pitch": 68, "duration": 3, "velocity": 96}, {"time": 3420, "pitch": 42, "duration": 2, "velocity": 97}, {"time": 3420, "pitch": 54, "duration": 2, "velocity": 102}, {"time": 3426, "pitch": 42, "duration": 8, "velocity": 95}, {"time": 3426, "pitch": 54, "duration": 8, "velocity": 107}, {"time": 3432, "pitch": 61, "duration": 13, "velocity": 107}, {"time": 3432, "pitch": 66, "duration": 13, "velocity": 127}, {"time": 3432, "pitch": 70, "duration": 12, "velocity": 112}, {"time": 3438, "pitch": 42, "duration": 2, "velocity": 88}, {"time": 3438, "pitch": 54, "duration": 2, "velocity": 96}, {"time": 3444, "pitch": 42, "duration": 13, "velocity": 90}, {"time": 3444, "pitch": 54, "duration": 11, "velocity": 102}, {"time": 3450, "pitch": 61, "duration": 9, "velocity": 107}, {"time": 3450, "pitch": 66, "duration": 8, "velocity": 122}, {"time": 3450, "pitch": 70, "duration": 8, "velocity": 97}, {"time": 3462, "pitch": 61, "duration": 6, "velocity": 102}, {"time": 3462, "pitch": 66, "duration": 5, "velocity": 107}, {"time": 3462, "pitch": 70, "duration": 1, "velocity": 46}, {"time": 3468, "pitch": 39, "duration": 2, "velocity": 96}, {"time": 3468, "pitch": 51, "duration": 2, "velocity": 90}, {"time": 3474, "pitch": 39, "duration": 14, "velocity": 92}, {"time": 3474, "pitch": 51, "duration": 14, "velocity": 90}, {"time": 3480, "pitch": 63, "duration": 15, "velocity": 117}, {"time": 3480, "pitch": 66, "duration": 15, "velocity": 117}, {"time": 3486, "pitch": 58, "duration": 9, "velocity": 63}, {"time": 3492, "pitch": 39, "duration": 2, "velocity": 93}, {"time": 3492, "pitch": 51, "duration": 2, "velocity": 102}, {"time": 3498, "pitch": 39, "duration": 8, "velocity": 89}, {"time": 3498, "pitch": 51, "duration": 10, "velocity": 81}, {"time": 3504, "pitch": 63, "duration": 10, "velocity": 127}, {"time": 3504, "pitch": 66, "duration": 10, "velocity": 107}, {"time": 3510, "pitch": 58, "duration": 5, "velocity": 77}, {"time": 3516, "pitch": 44, "duration": 14, "velocity": 93}, {"time": 3516, "pitch": 56, "duration": 14, "velocity": 73}, {"time": 3528, "pitch": 59, "duration": 13, "velocity": 93}, {"time": 3528, "pitch": 63, "duration": 14, "velocity": 117}, {"time": 3528, "pitch": 68, "duration": 14, "velocity": 97}, {"time": 3534, "pitch": 44, "duration": 2, "velocity": 68}, {"time": 3534, "pitch": 56, "duration": 2, "velocity": 86}, {"time": 3540, "pitch": 44, "duration": 2, "velocity": 90}, {"time": 3540, "pitch": 56, "duration": 2, "velocity": 100}, {"time": 3546, "pitch": 44, "duration": 8, "velocity": 90}, {"time": 3546, "pitch": 56, "duration": 7, "velocity": 99}, {"time": 3552, "pitch": 63, "duration": 10, "velocity": 127}, {"time": 3552, "pitch": 68, "duration": 11, "velocity": 117}, {"time": 3558, "pitch": 59, "duration": 5, "velocity": 79}, {"time": 3564, "pitch": 47, "duration": 18, "velocity": 93}, {"time": 3570, "pitch": 59, "duration": 4, "velocity": 79}, {"time": 3570, "pitch": 63, "duration": 4, "velocity": 95}, {"time": 3570, "pitch": 66, "duration": 4, "velocity": 89}, {"time": 3576, "pitch": 59, "duration": 1, "velocity": 69}, {"time": 3576, "pitch": 63, "duration": 11, "velocity": 122}, {"time": 3576, "pitch": 66, "duration": 11, "velocity": 117}, {"time": 3582, "pitch": 59, "duration": 5, "velocity": 71}, {"time": 3588, "pitch": 49, "duration": 15, "velocity": 75}, {"time": 3594, "pitch": 61, "duration": 4, "velocity": 79}, {"time": 3594, "pitch": 65, "duration": 4, "velocity": 99}, {"time": 3594, "pitch": 68, "duration": 4, "velocity": 88}, {"time": 3600, "pitch": 61, "duration": 13, "velocity": 107}, {"time": 3600, "pitch": 65, "duration": 11, "velocity": 102}, {"time": 3600, "pitch": 68, "duration": 12, "velocity": 96}, {"time": 3612, "pitch": 42, "duration": 14, "velocity": 112}, {"time": 3624, "pitch": 61, "duration": 13, "velocity": 100}, {"time": 3624, "pitch": 66, "duration": 13, "velocity": 117}, {"time": 3624, "pitch": 70, "duration": 13, "velocity": 107}, {"time": 3630, "pitch": 42, "duration": 2, "velocity": 89}, {"time": 3630, "pitch": 54, "duration": 2, "velocity": 86}, {"time": 3636, "pitch": 42, "duration": 21, "velocity": 90}, {"time": 3636, "pitch": 54, "duration": 21, "velocity": 95}, {"time": 3642, "pitch": 61, "duration": 8, "velocity": 99}, {"time": 3642, "pitch": 66, "duration": 8, "velocity": 102}, {"time": 3642, "pitch": 70, "duration": 8, "velocity": 95}, {"time": 3654, "pitch": 61, "duration": 6, "velocity": 107}, {"time": 3654, "pitch": 66, "duration": 6, "velocity": 112}, {"time": 3654, "pitch": 70, "duration": 5, "velocity": 107}, {"time": 3660, "pitch": 42, "duration": 14, "velocity": 83}, {"time": 3660, "pitch": 54, "duration": 14, "velocity": 85}, {"time": 3672, "pitch": 61, "duration": 10, "velocity": 99}, {"time": 3672, "pitch": 66, "duration": 9, "velocity": 112}, {"time": 3672, "pitch": 70, "duration": 9, "velocity": 93}, {"time": 3678, "pitch": 42, "duration": 2, "velocity": 78}, {"time": 3678, "pitch": 54, "duration": 2, "velocity": 88}, {"time": 3684, "pitch": 42, "duration": 21, "velocity": 92}, {"time": 3684, "pitch": 54, "duration": 21, "velocity": 93}, {"time": 3690, "pitch": 61, "duration": 9, "velocity": 112}, {"time": 3690, "pitch": 66, "duration": 9, "velocity": 122}, {"time": 3690, "pitch": 70, "duration": 9, "velocity": 112}, {"time": 3702, "pitch": 61, "duration": 6, "velocity": 112}, {"time": 3702, "pitch": 66, "duration": 6, "velocity": 107}, {"time": 3702, "pitch": 70, "duration": 6, "velocity": 102}, {"time": 3708, "pitch": 42, "duration": 13, "velocity": 97}, {"time": 3708, "pitch": 54, "duration": 13, "velocity": 93}, {"time": 3720, "pitch": 61, "duration": 9, "velocity": 117}, {"time": 3720, "pitch": 66, "duration": 8, "velocity": 127}, {"time": 3720, "pitch": 70, "duration": 8, "velocity": 100}, {"time": 3726, "pitch": 42, "duration": 2, "velocity": 86}, {"time": 3726, "pitch": 54, "duration": 2, "velocity": 93}, {"time": 3732, "pitch": 42, "duration": 11, "velocity": 86}, {"time": 3732, "pitch": 54, "duration": 9, "velocity": 95}, {"time": 3738, "pitch": 61, "duration": 8, "velocity": 112}, {"time": 3738, "pitch": 66, "duration": 8, "velocity": 122}, {"time": 3738, "pitch": 70, "duration": 8, "velocity": 117}, {"time": 3750, "pitch": 61, "duration": 6, "velocity": 97}, {"time": 3750, "pitch": 66, "duration": 5, "velocity": 127}, {"time": 3750, "pitch": 70, "duration": 5, "velocity": 102}, {"time": 3756, "pitch": 37, "duration": 14, "velocity": 81}, {"time": 3756, "pitch": 49, "duration": 14, "velocity": 77}, {"time": 3768, "pitch": 61, "duration": 18, "velocity": 107}, {"time": 3768, "pitch": 65, "duration": 18, "velocity": 117}, {"time": 3768, "pitch": 68, "duration": 18, "velocity": 112}, {"time": 3774, "pitch": 37, "duration": 2, "velocity": 73}, {"time": 3774, "pitch": 49, "duration": 2, "velocity": 79}, {"time": 3780, "pitch": 37, "duration": 2, "velocity": 86}, {"time": 3780, "pitch": 49, "duration": 2, "velocity": 90}, {"time": 3786, "pitch": 37, "duration": 8, "velocity": 88}, {"time": 3786, "pitch": 49, "duration": 10, "velocity": 95}, {"time": 3792, "pitch": 65, "duration": 12, "velocity": 117}, {"time": 3792, "pitch": 68, "duration": 11, "velocity": 112}, {"time": 3798, "pitch": 61, "duration": 6, "velocity": 76}, {"time": 3804, "pitch": 42, "duration": 14, "velocity": 89}, {"time": 3804, "pitch": 54, "duration": 14, "velocity": 88}, {"time": 3816, "pitch": 61, "duration": 13, "velocity": 100}, {"time": 3816, "pitch": 66, "duration": 13, "velocity": 122}, {"time": 3816, "pitch": 70, "duration": 13, "velocity": 100}, {"time": 3822, "pitch": 42, "duration": 2, "velocity": 72}, {"time": 3822, "pitch": 54, "duration": 2, "velocity": 88}, {"time": 3828, "pitch": 42, "duration": 11, "velocity": 82}, {"time": 3828, "pitch": 54, "duration": 9, "velocity": 97}, {"time": 3834, "pitch": 61, "duration": 9, "velocity": 96}, {"time": 3834, "pitch": 66, "duration": 9, "velocity": 102}, {"time": 3834, "pitch": 70, "duration": 9, "velocity": 95}, {"time": 3846, "pitch": 61, "duration": 6, "velocity": 102}, {"time": 3846, "pitch": 66, "duration": 5, "velocity": 112}, {"time": 3846, "pitch": 70, "duration": 4, "velocity": 90}, {"time": 3852, "pitch": 39, "duration": 14, "velocity": 76}, {"time": 3852, "pitch": 51, "duration": 14, "velocity": 73}, {"time": 3864, "pitch": 58, "duration": 13, "velocity": 102}, {"time": 3864, "pitch": 63, "duration": 13, "velocity": 117}, {"time": 3864, "pitch": 66, "duration": 12, "velocity": 102}, {"time": 3870, "pitch": 39, "duration": 2, "velocity": 76}, {"time": 3870, "pitch": 51, "duration": 2, "velocity": 89}, {"time": 3876, "pitch": 39, "duration": 9, "velocity": 83}, {"time": 3876, "pitch": 51, "duration": 11, "velocity": 88}, {"time": 3882, "pitch": 58, "duration": 9, "velocity": 96}, {"time": 3882, "pitch": 63, "duration": 9, "velocity": 112}, {"time": 3882, "pitch": 66, "duration": 9, "velocity": 99}, {"time": 3894, "pitch": 58, "duration": 5, "velocity": 96}, {"time": 3894, "pitch": 63, "duration": 5, "velocity": 100}, {"time": 3894, "pitch": 66, "duration": 4, "velocity": 90}, {"time": 3900, "pitch": 44, "duration": 14, "velocity": 79}, {"time": 3900, "pitch": 56, "duration": 14, "velocity": 96}, {"time": 3912, "pitch": 59, "duration": 9, "velocity": 95}, {"time": 3912, "pitch": 63, "duration": 8, "velocity": 107}, {"time": 3912, "pitch": 68, "duration": 9, "velocity": 99}, {"time": 3918, "pitch": 44, "duration": 2, "velocity": 75}, {"time": 3918, "pitch": 56, "duration": 2, "velocity": 96}, {"time": 3924, "pitch": 44, "duration": 17, "velocity": 82}, {"time": 3924, "pitch": 56, "duration": 15, "velocity": 82}, {"time": 3930, "pitch": 59, "duration": 9, "velocity": 93}, {"time": 3930, "pitch": 63, "duration": 9, "velocity": 117}, {"time": 3930, "pitch": 68, "duration": 9, "velocity": 107}, {"time": 3942, "pitch": 59, "duration": 4, "velocity": 90}, {"time": 3942, "pitch": 63, "duration": 4, "velocity": 112}, {"time": 3942, "pitch": 68, "duration": 4, "velocity": 93}, {"time": 3948, "pitch": 47, "duration": 3, "velocity": 78}, {"time": 3948, "pitch": 59, "duration": 3, "velocity": 90}, {"time": 3948, "pitch": 63, "duration": 3, "velocity": 97}, {"time": 3948, "pitch": 66, "duration": 3, "velocity": 102}, {"time": 3954, "pitch": 47, "duration": 6, "velocity": 88}, {"time": 3954, "pitch": 59, "duration": 9, "velocity": 88}, {"time": 3954, "pitch": 63, "duration": 9, "velocity": 97}, {"time": 3954, "pitch": 66, "duration": 9, "velocity": 97}, {"time": 3966, "pitch": 59, "duration": 4, "velocity": 85}, {"time": 3966, "pitch": 63, "duration": 4, "velocity": 107}, {"time": 3966, "pitch": 66, "duration": 4, "velocity": 99}, {"time": 3972, "pitch": 37, "duration": 12, "velocity": 78}, {"time": 3972, "pitch": 49, "duration": 14, "velocity": 81}, {"time": 3978, "pitch": 61, "duration": 8, "velocity": 93}, {"time": 3978, "pitch": 65, "duration": 8, "velocity": 93}, {"time": 3978, "pitch": 68, "duration": 8, "velocity": 96}, {"time": 3990, "pitch": 61, "duration": 6, "velocity": 93}, {"time": 3990, "pitch": 65, "duration": 5, "velocity": 93}, {"time": 3990, "pitch": 68, "duration": 6, "velocity": 96}, {"time": 3996, "pitch": 42, "duration": 2, "velocity": 86}, {"time": 3996, "pitch": 54, "duration": 2, "velocity": 83}, {"time": 4002, "pitch": 42, "duration": 15, "velocity": 85}, {"time": 4002, "pitch": 54, "duration": 15, "velocity": 93}, {"time": 4008, "pitch": 61, "duration": 4, "velocity": 112}, {"time": 4008, "pitch": 66, "duration": 2, "velocity": 127}, {"time": 4008, "pitch": 70, "duration": 3, "velocity": 117}, {"time": 4014, "pitch": 61, "duration": 9, "velocity": 89}, {"time": 4014, "pitch": 66, "duration": 8, "velocity": 88}, {"time": 4014, "pitch": 70, "duration": 8, "velocity": 89}, {"time": 4020, "pitch": 42, "duration": 13, "velocity": 89}, {"time": 4020, "pitch": 54, "duration": 17, "velocity": 89}, {"time": 4032, "pitch": 66, "duration": 3, "velocity": 127}, {"time": 4032, "pitch": 70, "duration": 5, "velocity": 127}, {"time": 4038, "pitch": 46, "duration": 1, "velocity": 17}, {"time": 4038, "pitch": 61, "duration": 3, "velocity": 107}, {"time": 4044, "pitch": 46, "duration": 3, "velocity": 92}, {"time": 4047, "pitch": 46, "duration": 16, "velocity": 100}, {"time": 4053, "pitch": 58, "duration": 1, "velocity": 100}, {"time": 4053, "pitch": 61, "duration": 17, "velocity": 122}, {"time": 4053, "pitch": 65, "duration": 17, "velocity": 99}, {"time": 4059, "pitch": 58, "duration": 15, "velocity": 43}, {"time": 4068, "pitch": 46, "duration": 3, "velocity": 96}, {"time": 4074, "pitch": 46, "duration": 9, "velocity": 85}, {"time": 4080, "pitch": 61, "duration": 14, "velocity": 127}, {"time": 4080, "pitch": 65, "duration": 11, "velocity": 112}, {"time": 4083, "pitch": 58, "duration": 8, "velocity": 86}, {"time": 4092, "pitch": 42, "duration": 3, "velocity": 88}, {"time": 4092, "pitch": 54, "duration": 1, "velocity": 55}, {"time": 4098, "pitch": 42, "duration": 16, "velocity": 96}, {"time": 4098, "pitch": 54, "duration": 16, "velocity": 97}, {"time": 4101, "pitch": 61, "duration": 16, "velocity": 95}, {"time": 4104, "pitch": 70, "duration": 16, "velocity": 97}, {"time": 4110, "pitch": 66, "duration": 5, "velocity": 25}, {"time": 4116, "pitch": 42, "duration": 2, "velocity": 82}, {"time": 4116, "pitch": 54, "duration": 2, "velocity": 92}, {"time": 4122, "pitch": 42, "duration": 8, "velocity": 96}, {"time": 4122, "pitch": 54, "duration": 6, "velocity": 93}, {"time": 4128, "pitch": 66, "duration": 8, "velocity": 127}, {"time": 4128, "pitch": 70, "duration": 10, "velocity": 122}, {"time": 4131, "pitch": 61, "duration": 6, "velocity": 90}, {"time": 4140, "pitch": 37, "duration": 2, "velocity": 88}, {"time": 4140, "pitch": 49, "duration": 2, "velocity": 83}, {"time": 4143, "pitch": 37, "duration": 17, "velocity": 76}, {"time": 4143, "pitch": 49, "duration": 16, "velocity": 99}, {"time": 4149, "pitch": 61, "duration": 21, "velocity": 99}, {"time": 4149, "pitch": 65, "duration": 17, "velocity": 107}, {"time": 4149, "pitch": 68, "duration": 19, "velocity": 112}, {"time": 4164, "pitch": 37, "duration": 2, "velocity": 89}, {"time": 4164, "pitch": 49, "duration": 2, "velocity": 89}, {"time": 4170, "pitch": 37, "duration": 6, "velocity": 86}, {"time": 4170, "pitch": 49, "duration": 8, "velocity": 90}, {"time": 4176, "pitch": 65, "duration": 12, "velocity": 117}, {"time": 4176, "pitch": 68, "duration": 12, "velocity": 127}, {"time": 4179, "pitch": 61, "duration": 8, "velocity": 85}, {"time": 4188, "pitch": 42, "duration": 2, "velocity": 82}, {"time": 4188, "pitch": 54, "duration": 2, "velocity": 85}, {"time": 4194, "pitch": 42, "duration": 15, "velocity": 86}, {"time": 4194, "pitch": 54, "duration": 15, "velocity": 100}, {"time": 4200, "pitch": 61, "duration": 15, "velocity": 107}, {"time": 4200, "pitch": 66, "duration": 19, "velocity": 127}, {"time": 4200, "pitch": 70, "duration": 19, "velocity": 112}, {"time": 4212, "pitch": 42, "duration": 14, "velocity": 83}, {"time": 4212, "pitch": 54, "duration": 13, "velocity": 86}, {"time": 4224, "pitch": 66, "duration": 10, "velocity": 127}, {"time": 4224, "pitch": 70, "duration": 8, "velocity": 122}, {"time": 4230, "pitch": 39, "duration": 1, "velocity": 31}, {"time": 4230, "pitch": 61, "duration": 6, "velocity": 83}, {"time": 4236, "pitch": 39, "duration": 2, "velocity": 86}, {"time": 4236, "pitch": 51, "duration": 2, "velocity": 90}, {"time": 4242, "pitch": 39, "duration": 10, "velocity": 77}, {"time": 4242, "pitch": 51, "duration": 10, "velocity": 95}, {"time": 4248, "pitch": 58, "duration": 14, "velocity": 96}, {"time": 4248, "pitch": 63, "duration": 14, "velocity": 112}, {"time": 4248, "pitch": 66, "duration": 14, "velocity": 107}, {"time": 4260, "pitch": 39, "duration": 2, "velocity": 78}, {"time": 4260, "pitch": 51, "duration": 2, "velocity": 86}, {"time": 4266, "pitch": 39, "duration": 7, "velocity": 82}, {"time": 4266, "pitch": 51, "duration": 9, "velocity": 99}, {"time": 4272, "pitch": 63, "duration": 10, "velocity": 127}, {"time": 4272, "pitch": 66, "duration": 9, "velocity": 122}, {"time": 4278, "pitch": 58, "duration": 3, "velocity": 82}, {"time": 4284, "pitch": 44, "duration": 3, "velocity": 81}, {"time": 4284, "pitch": 56, "duration": 3, "velocity": 92}, {"time": 4290, "pitch": 44, "duration": 14, "velocity": 77}, {"time": 4290, "pitch": 56, "duration": 15, "velocity": 96}, {"time": 4296, "pitch": 59, "duration": 17, "velocity": 90}, {"time": 4296, "pitch": 63, "duration": 16, "velocity": 117}, {"time": 4296, "pitch": 68, "duration": 17, "velocity": 100}, {"time": 4308, "pitch": 44, "duration": 2, "velocity": 83}, {"time": 4308, "pitch": 56, "duration": 2, "velocity": 83}, {"time": 4314, "pitch": 44, "duration": 7, "velocity": 82}, {"time": 4314, "pitch": 56, "duration": 6, "velocity": 93}, {"time": 4320, "pitch": 63, "duration": 11, "velocity": 127}, {"time": 4320, "pitch": 68, "duration": 11, "velocity": 117}, {"time": 4326, "pitch": 59, "duration": 5, "velocity": 67}, {"time": 4332, "pitch": 42, "duration": 12, "velocity": 92}, {"time": 4332, "pitch": 54, "duration": 12, "velocity": 93}, {"time": 4344, "pitch": 61, "duration": 18, "velocity": 96}, {"time": 4344, "pitch": 66, "duration": 18, "velocity": 107}, {"time": 4344, "pitch": 70, "duration": 17, "velocity": 97}, {"time": 4350, "pitch": 42, "duration": 2, "velocity": 88}, {"time": 4350, "pitch": 54, "duration": 2, "velocity": 93}, {"time": 4356, "pitch": 42, "duration": 2, "velocity": 83}, {"time": 4356, "pitch": 54, "duration": 2, "velocity": 85}, {"time": 4362, "pitch": 42, "duration": 11, "velocity": 88}, {"time": 4362, "pitch": 54, "duration": 11, "velocity": 99}, {"time": 4368, "pitch": 66, "duration": 12, "velocity": 127}, {"time": 4368, "pitch": 70, "duration": 12, "velocity": 127}, {"time": 4374, "pitch": 61, "duration": 7, "velocity": 102}, {"time": 4380, "pitch": 44, "duration": 2, "velocity": 86}, {"time": 4380, "pitch": 56, "duration": 2, "velocity": 76}, {"time": 4386, "pitch": 44, "duration": 16, "velocity": 97}, {"time": 4386, "pitch": 56, "duration": 16, "velocity": 92}, {"time": 4392, "pitch": 59, "duration": 20, "velocity": 86}, {"time": 4392, "pitch": 63, "duration": 20, "velocity": 100}, {"time": 4392, "pitch": 68, "duration": 21, "velocity": 92}, {"time": 4404, "pitch": 44, "duration": 2, "velocity": 89}, {"time": 4404, "pitch": 56, "duration": 2, "velocity": 69}, {"time": 4410, "pitch": 44, "duration": 8, "velocity": 89}, {"time": 4410, "pitch": 56, "duration": 7, "velocity": 85}, {"time": 4416, "pitch": 63, "duration": 13, "velocity": 117}, {"time": 4416, "pitch": 68, "duration": 12, "velocity": 112}, {"time": 4422, "pitch": 59, "duration": 5, "velocity": 72}, {"time": 4428, "pitch": 42, "duration": 14, "velocity": 96}, {"time": 4428, "pitch": 54, "duration": 14, "velocity": 89}, {"time": 4440, "pitch": 61, "duration": 20, "velocity": 92}, {"time": 4440, "pitch": 66, "duration": 20, "velocity": 107}, {"time": 4440, "pitch": 70, "duration": 19, "velocity": 100}, {"time": 4446, "pitch": 42, "duration": 2, "velocity": 71}, {"time": 4446, "pitch": 54, "duration": 2, "velocity": 77}, {"time": 4458, "pitch": 42, "duration": 18, "velocity": 72}, {"time": 4458, "pitch": 54, "duration": 18, "velocity": 77}, {"time": 4464, "pitch": 61, "duration": 2, "velocity": 97}, {"time": 4464, "pitch": 66, "duration": 12, "velocity": 122}, {"time": 4464, "pitch": 70, "duration": 12, "velocity": 102}, {"time": 4470, "pitch": 61, "duration": 6, "velocity": 97}, {"time": 4476, "pitch": 37, "duration": 15, "velocity": 96}, {"time": 4476, "pitch": 49, "duration": 15, "velocity": 86}, {"time": 4476, "pitch": 61, "duration": 15, "velocity": 112}, {"time": 4494, "pitch": 63, "duration": 5, "velocity": 117}, {"time": 4500, "pitch": 37, "duration": 5, "velocity": 79}, {"time": 4500, "pitch": 49, "duration": 6, "velocity": 85}, {"time": 4500, "pitch": 61, "duration": 5, "velocity": 112}, {"time": 4512, "pitch": 37, "duration": 3, "velocity": 81}, {"time": 4512, "pitch": 49, "duration": 3, "velocity": 85}, {"time": 4512, "pitch": 61, "duration": 3, "velocity": 117}, {"time": 4524, "pitch": 37, "duration": 5, "velocity": 95}, {"time": 4524, "pitch": 49, "duration": 5, "velocity": 97}, {"time": 4524, "pitch": 61, "duration": 4, "velocity": 127}, {"time": 4530, "pitch": 63, "duration": 5, "velocity": 122}, {"time": 4536, "pitch": 37, "duration": 4, "velocity": 89}, {"time": 4536, "pitch": 49, "duration": 4, "velocity": 78}, {"time": 4536, "pitch": 66, "duration": 5, "velocity": 127}, {"time": 4542, "pitch": 63, "duration": 6, "velocity": 122}, {"time": 4548, "pitch": 37, "duration": 9, "velocity": 77}, {"time": 4548, "pitch": 49, "duration": 9, "velocity": 73}, {"time": 4548, "pitch": 61, "duration": 14, "velocity": 122}, {"time": 4560, "pitch": 37, "duration": 5, "velocity": 96}, {"time": 4560, "pitch": 49, "duration": 5, "velocity": 95}, {"time": 4572, "pitch": 37, "duration": 15, "velocity": 96}, {"time": 4572, "pitch": 49, "duration": 15, "velocity": 86}, {"time": 4572, "pitch": 61, "duration": 15, "velocity": 112}, {"time": 4590, "pitch": 63, "duration": 5, "velocity": 117}, {"time": 4596, "pitch": 37, "duration": 5, "velocity": 79}, {"time": 4596, "pitch": 49, "duration": 6, "velocity": 85}, {"time": 4596, "pitch": 61, "duration": 5, "velocity": 112}, {"time": 4608, "pitch": 37, "duration": 3, "velocity": 81}, {"time": 4608, "pitch": 49, "duration": 3, "velocity": 85}, {"time": 4608, "pitch": 61, "duration": 3, "velocity": 117}, {"time": 4620, "pitch": 37, "duration": 5, "velocity": 95}, {"time": 4620, "pitch": 49, "duration": 5, "velocity": 97}, {"time": 4620, "pitch": 61, "duration": 4, "velocity": 127}, {"time": 4626, "pitch": 63, "duration": 5, "velocity": 122}, {"time": 4632, "pitch": 37, "duration": 4, "velocity": 89}, {"time": 4632, "pitch": 49, "duration": 4, "velocity": 78}, {"time": 4632, "pitch": 66, "duration": 5, "velocity": 127}, {"time": 4638, "pitch": 63, "duration": 6, "velocity": 122}, {"time": 4644, "pitch": 37, "duration": 9, "velocity": 77}, {"time": 4644, "pitch": 49, "duration": 9, "velocity": 73}, {"time": 4644, "pitch": 61, "duration": 14, "velocity": 122}, {"time": 4656, "pitch": 37, "duration": 5, "velocity": 96}, {"time": 4656, "pitch": 49, "duration": 5, "velocity": 95}, {"time": 4668, "pitch": 37, "duration": 15, "velocity": 96}, {"time": 4668, "pitch": 49, "duration": 15, "velocity": 86}, {"time": 4668, "pitch": 61, "duration": 15, "velocity": 112}, {"time": 4686, "pitch": 63, "duration": 5, "velocity": 117}, {"time": 4692, "pitch": 37, "duration": 5, "velocity": 79}, {"time": 4692, "pitch": 49, "duration": 6, "velocity": 85}, {"time": 4692, "pitch": 61, "duration": 5, "velocity": 112}, {"time": 4704, "pitch": 37, "duration": 3, "velocity": 81}, {"time": 4704, "pitch": 49, "duration": 3, "velocity": 85}, {"time": 4704, "pitch": 61, "duration": 3, "velocity": 117}, {"time": 4716, "pitch": 37, "duration": 5, "velocity": 95}, {"time": 4716, "pitch": 49, "duration": 5, "velocity": 97}, {"time": 4716, "pitch": 61, "duration": 4, "velocity": 127}, {"time": 4722, "pitch": 63, "duration": 5, "velocity": 122}, {"time": 4728, "pitch": 37, "duration": 4, "velocity": 89}, {"time": 4728, "pitch": 49, "duration": 4, "velocity": 78}, {"time": 4728, "pitch": 66, "duration": 5, "velocity": 127}, {"time": 4734, "pitch": 63, "duration": 6, "velocity": 122}, {"time": 4740, "pitch": 37, "duration": 9, "velocity": 77}, {"time": 4740, "pitch": 49, "duration": 9, "velocity": 73}, {"time": 4740, "pitch": 61, "duration": 14, "velocity": 122}, {"time": 4752, "pitch": 37, "duration": 5, "velocity": 96}, {"time": 4752, "pitch": 49, "duration": 5, "velocity": 95}, {"time": 4764, "pitch": 37, "duration": 15, "velocity": 96}, {"time": 4764, "pitch": 49, "duration": 15, "velocity": 86}, {"time": 4764, "pitch": 61, "duration": 15, "velocity": 112}, {"time": 4782, "pitch": 63, "duration": 5, "velocity": 117}, {"time": 4788, "pitch": 37, "duration": 5, "velocity": 79}, {"time": 4788, "pitch": 49, "duration": 6, "velocity": 85}, {"time": 4788, "pitch": 61, "duration": 5, "velocity": 112}, {"time": 4800, "pitch": 37, "duration": 3, "velocity": 81}, {"time": 4800, "pitch": 49, "duration": 3, "velocity": 85}, {"time": 4800, "pitch": 61, "duration": 3, "velocity": 117}, {"time": 4812, "pitch": 37, "duration": 5, "velocity": 95}, {"time": 4812, "pitch": 49, "duration": 5, "velocity": 97}, {"time": 4812, "pitch": 61, "duration": 4, "velocity": 127}, {"time": 4818, "pitch": 63, "duration": 5, "velocity": 122}, {"time": 4824, "pitch": 37, "duration": 4, "velocity": 89}, {"time": 4824, "pitch": 49, "duration": 4, "velocity": 78}, {"time": 4824, "pitch": 66, "duration": 5, "velocity": 127}, {"time": 4830, "pitch": 63, "duration": 6, "velocity": 122}, {"time": 4836, "pitch": 37, "duration": 9, "velocity": 77}, {"time": 4836, "pitch": 49, "duration": 9, "velocity": 73}, {"time": 4836, "pitch": 61, "duration": 14, "velocity": 122}, {"time": 4848, "pitch": 37, "duration": 5, "velocity": 96}, {"time": 4848, "pitch": 49, "duration": 5, "velocity": 95}, {"time": 4860, "pitch": 37, "duration": 15, "velocity": 96}, {"time": 4860, "pitch": 49, "duration": 15, "velocity": 86}, {"time": 4860, "pitch": 61, "duration": 15, "velocity": 112}, {"time": 4878, "pitch": 63, "duration": 5, "velocity": 117}, {"time": 4884, "pitch": 37, "duration": 5, "velocity": 79}, {"time": 4884, "pitch": 49, "duration": 6, "velocity": 85}, {"time": 4884, "pitch": 61, "duration": 5, "velocity": 112}, {"time": 4896, "pitch": 37, "duration": 3, "velocity": 81}, {"time": 4896, "pitch": 49, "duration": 3, "velocity": 85}, {"time": 4896, "pitch": 61, "duration": 3, "velocity": 117}, {"time": 4908, "pitch": 37, "duration": 5, "velocity": 95}, {"time": 4908, "pitch": 49, "duration": 5, "velocity": 97}, {"time": 4908, "pitch": 61, "duration": 4, "velocity": 127}, {"time": 4914, "pitch": 63, "duration": 5, "velocity": 122}, {"time": 4920, "pitch": 37, "duration": 4, "velocity": 89}, {"time": 4920, "pitch": 49, "duration": 4, "velocity": 78}, {"time": 4920, "pitch": 66, "duration": 5, "velocity": 127}, {"time": 4926, "pitch": 63, "duration": 6, "velocity": 122}, {"time": 4932, "pitch": 37, "duration": 9, "velocity": 77}, {"time": 4932, "pitch": 49, "duration": 9, "velocity": 73}, {"time": 4932, "pitch": 61, "duration": 14, "velocity": 122}, {"time": 4944, "pitch": 37, "duration": 5, "velocity": 96}, {"time": 4944, "pitch": 49, "duration": 5, "velocity": 95}, {"time": 4956, "pitch": 37, "duration": 15, "velocity": 96}, {"time": 4956, "pitch": 49, "duration": 15, "velocity": 86}, {"time": 4956, "pitch": 61, "duration": 15, "velocity": 112}, {"time": 4974, "pitch": 63, "duration": 5, "velocity": 117}, {"time": 4980, "pitch": 37, "duration": 5, "velocity": 79}, {"time": 4980, "pitch": 49, "duration": 6, "velocity": 85}, {"time": 4980, "pitch": 61, "duration": 5, "velocity": 112}, {"time": 4992, "pitch": 37, "duration": 3, "velocity": 81}, {"time": 4992, "pitch": 49, "duration": 3, "velocity": 85}, {"time": 4992, "pitch": 61, "duration": 3, "velocity": 117}, {"time": 5004, "pitch": 37, "duration": 5, "velocity": 95}, {"time": 5004, "pitch": 49, "duration": 5, "velocity": 97}, {"time": 5004, "pitch": 61, "duration": 4, "velocity": 127}, {"time": 5010, "pitch": 63, "duration": 5, "velocity": 122}, {"time": 5016, "pitch": 37, "duration": 4, "velocity": 89}, {"time": 5016, "pitch": 49, "duration": 4, "velocity": 78}, {"time": 5016, "pitch": 66, "duration": 5, "velocity": 127}, {"time": 5022, "pitch": 63, "duration": 6, "velocity": 122}, {"time": 5028, "pitch": 37, "duration": 9, "velocity": 77}, {"time": 5028, "pitch": 49, "duration": 9, "velocity": 73}, {"time": 5028, "pitch": 61, "duration": 14, "velocity": 122}, {"time": 5040, "pitch": 37, "duration": 5, "velocity": 96}, {"time": 5040, "pitch": 49, "duration": 5, "velocity": 95}, {"time": 5052, "pitch": 37, "duration": 15, "velocity": 96}, {"time": 5052, "pitch": 49, "duration": 15, "velocity": 86}, {"time": 5052, "pitch": 61, "duration": 15, "velocity": 112}, {"time": 5070, "pitch": 63, "duration": 5, "velocity": 117}, {"time": 5076, "pitch": 37, "duration": 5, "velocity": 79}, {"time": 5076, "pitch": 49, "duration": 6, "velocity": 85}, {"time": 5076, "pitch": 61, "duration": 5, "velocity": 112}, {"time": 5088, "pitch": 37, "duration": 3, "velocity": 81}, {"time": 5088, "pitch": 49, "duration": 3, "velocity": 85}, {"time": 5088, "pitch": 61, "duration": 3, "velocity": 117}, {"time": 5100, "pitch": 37, "duration": 5, "velocity": 95}, {"time": 5100, "pitch": 49, "duration": 5, "velocity": 97}, {"time": 5100, "pitch": 61, "duration": 4, "velocity": 127}, {"time": 5106, "pitch": 63, "duration": 5, "velocity": 122}, {"time": 5112, "pitch": 37, "duration": 4, "velocity": 89}, {"time": 5112, "pitch": 49, "duration": 4, "velocity": 78}, {"time": 5112, "pitch": 66, "duration": 5, "velocity": 127}, {"time": 5118, "pitch": 63, "duration": 6, "velocity": 122}, {"time": 5124, "pitch": 37, "duration": 9, "velocity": 77}, {"time": 5124, "pitch": 49, "duration": 9, "velocity": 73}, {"time": 5124, "pitch": 61, "duration": 14, "velocity": 122}, {"time": 5136, "pitch": 37, "duration": 5, "velocity": 96}, {"time": 5136, "pitch": 49, "duration": 5, "velocity": 95}, {"time": 5148, "pitch": 37, "duration": 15, "velocity": 96}, {"time": 5148, "pitch": 49, "duration": 15, "velocity": 86}, {"time": 5148, "pitch": 61, "duration": 15, "velocity": 112}, {"time": 5166, "pitch": 63, "duration": 5, "velocity": 117}, {"time": 5172, "pitch": 37, "duration": 5, "velocity": 79}, {"time": 5172, "pitch": 49, "duration": 6, "velocity": 85}, {"time": 5172, "pitch": 61, "duration": 5, "velocity": 112}, {"time": 5184, "pitch": 37, "duration": 3, "velocity": 81}, {"time": 5184, "pitch": 49, "duration": 3, "velocity": 85}, {"time": 5184, "pitch": 61, "duration": 3, "velocity": 117}, {"time": 5196, "pitch": 37, "duration": 5, "velocity": 95}, {"time": 5196, "pitch": 49, "duration": 5, "velocity": 97}, {"time": 5196, "pitch": 61, "duration": 4, "velocity": 127}, {"time": 5202, "pitch": 63, "duration": 5, "velocity": 122}, {"time": 5208, "pitch": 37, "duration": 4, "velocity": 89}, {"time": 5208, "pitch": 49, "duration": 4, "velocity": 78}, {"time": 5208, "pitch": 66, "duration": 5, "velocity": 127}, {"time": 5214, "pitch": 63, "duration": 6, "velocity": 122}, {"time": 5220, "pitch": 37, "duration": 9, "velocity": 77}, {"time": 5220, "pitch": 49, "duration": 9, "velocity": 73}, {"time": 5220, "pitch": 61, "duration": 14, "velocity": 122}, {"time": 5232, "pitch": 37, "duration": 5, "velocity": 96}, {"time": 5232, "pitch": 49, "duration": 5, "velocity": 95}], "annotations": [{"time": 29, "annotation": {"number": 7, "value": 101}, "group": "control_change"}, {"time": 318, "annotation": {"number": 64, "value": 127}, "group": "control_change"}, {"time": 353, "annotation": {"number": 64, "value": 0}, "group": "control_change"}, {"time": 510, "annotation": {"number": 64, "value": 127}, "group": "control_change"}, {"time": 545, "annotation": {"number": 64, "value": 0}, "group": "control_change"}, {"time": 702, "annotation": {"number": 64, "value": 127}, "group": "control_change"}, {"time": 737, "annotation": {"number": 64, "value": 0}, "group": "control_change"}, {"time": 882, "annotation": {"number": 64, "value": 127}, "group": "control_change"}, {"time": 921, "annotation": {"number": 64, "value": 0}, "group": "control_change"}, {"time": 925, "annotation": {"number": 64, "value": 127}, "group": "control_change"}, {"time": 970, "annotation": {"number": 64, "value": 0}, "group": "control_change"}, {"time": 975, "annotation": {"number": 64, "value": 127}, "group": "control_change"}, {"time": 1016, "annotation": {"number": 64, "value": 0}, "group": "control_change"}, {"time": 1020, "annotation": {"number": 64, "value": 127}, "group": "control_change"}, {"time": 1065, "annotation": {"number": 64, "value": 0}, "group": "control_change"}, {"time": 1069, "annotation": {"number": 64, "value": 127}, "group": "control_change"}, {"time": 1113, "annotation": {"number": 64, "value": 0}, "group": "control_change"}, {"time": 1117, "annotation": {"number": 64, "value": 127}, "group": "control_change"}, {"time": 1160, "annotation": {"number": 64, "value": 0}, "group": "control_change"}, {"time": 1164, "annotation": {"number": 64, "value": 127}, "group": "control_change"}, {"time": 1207, "annotation": {"number": 64, "value": 0}, "group": "control_change"}, {"time": 1211, "annotation": {"number": 64, "value": 127}, "group": "control_change"}, {"time": 1258, "annotation": {"number": 64, "value": 0}, "group": "control_change"}, {"time": 1266, "annotation": {"number": 64, "value": 127}, "group": "control_change"}, {"time": 1305, "annotation": {"number": 64, "value": 0}, "group": "control_change"}, {"time": 1309, "annotation": {"number": 64, "value": 127}, "group": "control_change"}, {"time": 1354, "annotation": {"number": 64, "value": 0}, "group": "control_change"}, {"time": 1359, "annotation": {"number": 64, "value": 127}, "group": "control_change"}, {"time": 1400, "annotation": {"number": 64, "value": 0}, "group": "control_change"}, {"time": 1404, "annotation": {"number": 64, "value": 127}, "group": "control_change"}, {"time": 1449, "annotation": {"number": 64, "value": 0}, "group": "control_change"}, {"time": 1453, "annotation": {"number": 64, "value": 127}, "group": "control_change"}, {"time": 1497, "annotation": {"number": 64, "value": 0}, "group": "control_change"}, {"time": 1501, "annotation": {"number": 64, "value": 127}, "group": "control_change"}, {"time": 1544, "annotation": {"number": 64, "value": 0}, "group": "control_change"}, {"time": 1548, "annotation": {"number": 64, "value": 127}, "group": "control_change"}, {"time": 1591, "annotation": {"number": 64, "value": 0}, "group": "control_change"}, {"time": 1595, "annotation": {"number": 64, "value": 127}, "group": "control_change"}, {"time": 1596, "annotation": {"number": 64, "value": 127}, "group": "control_change"}, {"time": 1617, "annotation": {"number": 64, "value": 0}, "group": "control_change"}, {"time": 1620, "annotation": {"number": 64, "value": 127}, "group": "control_change"}, {"time": 1642, "annotation": {"number": 64, "value": 0}, "group": "control_change"}, {"time": 1643, "annotation": {"number": 64, "value": 127}, "group": "control_change"}, {"time": 1688, "annotation": {"number": 64, "value": 0}, "group": "control_change"}, {"time": 1692, "annotation": {"number": 64, "value": 127}, "group": "control_change"}, {"time": 1736, "annotation": {"number": 64, "value": 0}, "group": "control_change"}, {"time": 1741, "annotation": {"number": 64, "value": 127}, "group": "control_change"}, {"time": 1785, "annotation": {"number": 64, "value": 0}, "group": "control_change"}, {"time": 1787, "annotation": {"number": 64, "value": 127}, "group": "control_change"}, {"time": 1833, "annotation": {"number": 64, "value": 0}, "group": "control_change"}, {"time": 1837, "annotation": {"number": 64, "value": 127}, "group": "control_change"}, {"time": 1881, "annotation": {"number": 64, "value": 0}, "group": "control_change"}, {"time": 1885, "annotation": {"number": 64, "value": 127}, "group": "control_change"}, {"time": 1930, "annotation": {"number": 64, "value": 0}, "group": "control_change"}, {"time": 1933, "annotation": {"number": 64, "value": 127}, "group": "control_change"}, {"time": 1977, "annotation": {"number": 64, "value": 0}, "group": "control_change"}, {"time": 1982, "annotation": {"number": 64, "value": 127}, "group": "control_change"}, {"time": 2020, "annotation": {"number": 64, "value": 0}, "group": "control_change"}, {"time": 2028, "annotation": {"number": 64, "value": 127}, "group": "control_change"}, {"time": 2040, "annotation": {"number": 64, "value": 0}, "group": "control_change"}, {"time": 2052, "annotation": {"number": 64, "value": 127}, "group": "control_change"}, {"time": 2074, "annotation": {"number": 64, "value": 0}, "group": "control_change"}, {"time": 2077, "annotation": {"number": 64, "value": 127}, "group": "control_change"}, {"time": 2097, "annotation": {"number": 64, "value": 0}, "group": "control_change"}, {"time": 2100, "annotation": {"number": 64, "value": 127}, "group": "control_change"}, {"time": 2118, "annotation": {"number": 64, "value": 0}, "group": "control_change"}, {"time": 2124, "annotation": {"number": 64, "value": 127}, "group": "control_change"}, {"time": 2169, "annotation": {"number": 64, "value": 0}, "group": "control_change"}, {"time": 2172, "annotation": {"number": 64, "value": 127}, "group": "control_change"}, {"time": 2193, "annotation": {"number": 64, "value": 0}, "group": "control_change"}, {"time": 2195, "annotation": {"number": 64, "value": 127}, "group": "control_change"}, {"time": 2218, "annotation": {"number": 64, "value": 0}, "group": "control_change"}, {"time": 2220, "annotation": {"number": 64, "value": 127}, "group": "control_change"}, {"time": 2241, "annotation": {"number": 64, "value": 0}, "group": "control_change"}, {"time": 2243, "annotation": {"number": 64, "value": 127}, "group": "control_change"}, {"time": 2266, "annotation": {"number": 64, "value": 0}, "group": "control_change"}, {"time": 2268, "annotation": {"number": 64, "value": 127}, "group": "control_change"}, {"time": 2289, "annotation": {"number": 64, "value": 0}, "group": "control_change"}, {"time": 2292, "annotation": {"number": 64, "value": 127}, "group": "control_change"}, {"time": 2313, "annotation": {"number": 64, "value": 0}, "group": "control_change"}, {"time": 2315, "annotation": {"number": 64, "value": 127}, "group": "control_change"}, {"time": 2336, "annotation": {"number": 64, "value": 0}, "group": "control_change"}, {"time": 2339, "annotation": {"number": 64, "value": 127}, "group": "control_change"}, {"time": 2361, "annotation": {"number": 64, "value": 0}, "group": "control_change"}, {"time": 2364, "annotation": {"number": 64, "value": 127}, "group": "control_change"}, {"time": 2385, "annotation": {"number": 64, "value": 0}, "group": "control_change"}, {"time": 2388, "annotation": {"number": 64, "value": 127}, "group": "control_change"}, {"time": 2405, "annotation": {"number": 64, "value": 0}, "group": "control_change"}, {"time": 2418, "annotation": {"number": 64, "value": 127}, "group": "control_change"}, {"time": 2457, "annotation": {"number": 64, "value": 0}, "group": "control_change"}, {"time": 2461, "annotation": {"number": 64, "value": 127}, "group": "control_change"}, {"time": 2506, "annotation": {"number": 64, "value": 0}, "group": "control_change"}, {"time": 2511, "annotation": {"number": 64, "value": 127}, "group": "control_change"}, {"time": 2552, "annotation": {"number": 64, "value": 0}, "group": "control_change"}, {"time": 2556, "annotation": {"number": 64, "value": 127}, "group": "control_change"}, {"time": 2601, "annotation": {"number": 64, "value": 0}, "group": "control_change"}, {"time": 2605, "annotation": {"number": 64, "value": 127}, "group": "control_change"}, {"time": 2649, "annotation": {"number": 64, "value": 0}, "group": "control_change"}, {"time": 2653, "annotation": {"number": 64, "value": 127}, "group": "control_change"}, {"time": 2696, "annotation": {"number": 64, "value": 0}, "group": "control_change"}, {"time": 2700, "annotation": {"number": 64, "value": 127}, "group": "control_change"}, {"time": 2743, "annotation": {"number": 64, "value": 0}, "group": "control_change"}, {"time": 2747, "annotation": {"number": 64, "value": 127}, "group": "control_change"}, {"time": 2748, "annotation": {"number": 64, "value": 127}, "group": "control_change"}, {"time": 2769, "annotation": {"number": 64, "value": 0}, "group": "control_change"}, {"time": 2772, "annotation": {"number": 64, "value": 127}, "group": "control_change"}, {"time": 2794, "annotation": {"number": 64, "value": 0}, "group": "control_change"}, {"time": 2796, "annotation": {"number": 64, "value": 127}, "group": "control_change"}, {"time": 2842, "annotation": {"number": 64, "value": 0}, "group": "control_change"}, {"time": 2844, "annotation": {"number": 64, "value": 127}, "group": "control_change"}, {"time": 2887, "annotation": {"number": 64, "value": 0}, "group": "control_change"}, {"time": 2893, "annotation": {"number": 64, "value": 127}, "group": "control_change"}, {"time": 2937, "annotation": {"number": 64, "value": 0}, "group": "control_change"}, {"time": 2940, "annotation": {"number": 64, "value": 127}, "group": "control_change"}, {"time": 2985, "annotation": {"number": 64, "value": 0}, "group": "control_change"}, {"time": 2988, "annotation": {"number": 64, "value": 127}, "group": "control_change"}, {"time": 3033, "annotation": {"number": 64, "value": 0}, "group": "control_change"}, {"time": 3035, "annotation": {"number": 64, "value": 127}, "group": "control_change"}, {"time": 3081, "annotation": {"number": 64, "value": 0}, "group": "control_change"}, {"time": 3084, "annotation": {"number": 64, "value": 127}, "group": "control_change"}, {"time": 3130, "annotation": {"number": 64, "value": 0}, "group": "control_change"}, {"time": 3135, "annotation": {"number": 64, "value": 127}, "group": "control_change"}, {"time": 3171, "annotation": {"number": 64, "value": 0}, "group": "control_change"}, {"time": 3186, "annotation": {"number": 64, "value": 127}, "group": "control_change"}, {"time": 3189, "annotation": {"number": 64, "value": 0}, "group": "control_change"}, {"time": 3240, "annotation": {"number": 64, "value": 127}, "group": "control_change"}, {"time": 3246, "annotation": {"number": 64, "value": 0}, "group": "control_change"}, {"time": 3255, "annotation": {"number": 64, "value": 127}, "group": "control_change"}, {"time": 3272, "annotation": {"number": 64, "value": 0}, "group": "control_change"}, {"time": 3278, "annotation": {"number": 64, "value": 127}, "group": "control_change"}, {"time": 3290, "annotation": {"number": 64, "value": 0}, "group": "control_change"}, {"time": 3294, "annotation": {"number": 64, "value": 127}, "group": "control_change"}, {"time": 3297, "annotation": {"number": 64, "value": 0}, "group": "control_change"}, {"time": 3312, "annotation": {"number": 64, "value": 127}, "group": "control_change"}, {"time": 3321, "annotation": {"number": 64, "value": 0}, "group": "control_change"}, {"time": 3323, "annotation": {"number": 64, "value": 127}, "group": "control_change"}, {"time": 3335, "annotation": {"number": 64, "value": 0}, "group": "control_change"}, {"time": 3350, "annotation": {"number": 64, "value": 127}, "group": "control_change"}, {"time": 3357, "annotation": {"number": 64, "value": 0}, "group": "control_change"}, {"time": 3360, "annotation": {"number": 64, "value": 127}, "group": "control_change"}, {"time": 3369, "annotation": {"number": 64, "value": 0}, "group": "control_change"}, {"time": 3372, "annotation": {"number": 64, "value": 127}, "group": "control_change"}, {"time": 3379, "annotation": {"number": 64, "value": 0}, "group": "control_change"}, {"time": 3420, "annotation": {"number": 64, "value": 127}, "group": "control_change"}, {"time": 3422, "annotation": {"number": 64, "value": 0}, "group": "control_change"}, {"time": 3427, "annotation": {"number": 64, "value": 127}, "group": "control_change"}, {"time": 3430, "annotation": {"number": 64, "value": 0}, "group": "control_change"}, {"time": 3455, "annotation": {"number": 64, "value": 127}, "group": "control_change"}, {"time": 3460, "annotation": {"number": 64, "value": 0}, "group": "control_change"}, {"time": 3468, "annotation": {"number": 64, "value": 127}, "group": "control_change"}, {"time": 3471, "annotation": {"number": 64, "value": 0}, "group": "control_change"}, {"time": 3503, "annotation": {"number": 64, "value": 127}, "group": "control_change"}, {"time": 3513, "annotation": {"number": 64, "value": 0}, "group": "control_change"}, {"time": 3516, "annotation": {"number": 64, "value": 127}, "group": "control_change"}, {"time": 3517, "annotation": {"number": 64, "value": 0}, "group": "control_change"}, {"time": 3519, "annotation": {"number": 64, "value": 127}, "group": "control_change"}, {"time": 3521, "annotation": {"number": 64, "value": 0}, "group": "control_change"}, {"time": 3522, "annotation": {"number": 64, "value": 127}, "group": "control_change"}, {"time": 3523, "annotation": {"number": 64, "value": 0}, "group": "control_change"}, {"time": 3550, "annotation": {"number": 64, "value": 127}, "group": "control_change"}, {"time": 3559, "annotation": {"number": 64, "value": 0}, "group": "control_change"}, {"time": 3567, "annotation": {"number": 64, "value": 127}, "group": "control_change"}, {"time": 3571, "annotation": {"number": 64, "value": 0}, "group": "control_change"}, {"time": 3588, "annotation": {"number": 64, "value": 127}, "group": "control_change"}, {"time": 3607, "annotation": {"number": 64, "value": 0}, "group": "control_change"}, {"time": 3612, "annotation": {"number": 64, "value": 127}, "group": "control_change"}, {"time": 3620, "annotation": {"number": 64, "value": 0}, "group": "control_change"}, {"time": 3647, "annotation": {"number": 64, "value": 127}, "group": "control_change"}, {"time": 3650, "annotation": {"number": 64, "value": 0}, "group": "control_change"}, {"time": 3755, "annotation": {"number": 64, "value": 127}, "group": "control_change"}, {"time": 3767, "annotation": {"number": 64, "value": 0}, "group": "control_change"}, {"time": 3791, "annotation": {"number": 64, "value": 127}, "group": "control_change"}, {"time": 3798, "annotation": {"number": 64, "value": 0}, "group": "control_change"}, {"time": 3803, "annotation": {"number": 64, "value": 127}, "group": "control_change"}, {"time": 3814, "annotation": {"number": 64, "value": 0}, "group": "control_change"}, {"time": 3831, "annotation": {"number": 64, "value": 127}, "group": "control_change"}, {"time": 3832, "annotation": {"number": 64, "value": 0}, "group": "control_change"}, {"time": 3839, "annotation": {"number": 64, "value": 127}, "group": "control_change"}, {"time": 3847, "annotation": {"number": 64, "value": 0}, "group": "control_change"}, {"time": 3851, "annotation": {"number": 64, "value": 127}, "group": "control_change"}, {"time": 3862, "annotation": {"number": 64, "value": 0}, "group": "control_change"}, {"time": 3871, "annotation": {"number": 64, "value": 127}, "group": "control_change"}, {"time": 3872, "annotation": {"number": 64, "value": 0}, "group": "control_change"}, {"time": 3877, "annotation": {"number": 64, "value": 127}, "group": "control_change"}, {"time": 3884, "annotation": {"number": 64, "value": 0}, "group": "control_change"}, {"time": 3887, "annotation": {"number": 64, "value": 127}, "group": "control_change"}, {"time": 3897, "annotation": {"number": 64, "value": 0}, "group": "control_change"}, {"time": 3899, "annotation": {"number": 64, "value": 127}, "group": "control_change"}, {"time": 3909, "annotation": {"number": 64, "value": 0}, "group": "control_change"}, {"time": 3925, "annotation": {"number": 64, "value": 127}, "group": "control_change"}, {"time": 3930, "annotation": {"number": 64, "value": 0}, "group": "control_change"}, {"time": 3937, "annotation": {"number": 64, "value": 127}, "group": "control_change"}, {"time": 3940, "annotation": {"number": 64, "value": 0}, "group": "control_change"}, {"time": 3948, "annotation": {"number": 64, "value": 127}, "group": "control_change"}, {"time": 3965, "annotation": {"number": 64, "value": 0}, "group": "control_change"}, {"time": 3972, "annotation": {"number": 64, "value": 127}, "group": "control_change"}, {"time": 3992, "annotation": {"number": 64, "value": 0}, "group": "control_change"}, {"time": 3996, "annotation": {"number": 64, "value": 127}, "group": "control_change"}, {"time": 3998, "annotation": {"number": 64, "value": 127}, "group": "control_change"}, {"time": 4005, "annotation": {"number": 64, "value": 0}, "group": "control_change"}, {"time": 4021, "annotation": {"number": 64, "value": 127}, "group": "control_change"}, {"time": 4026, "annotation": {"number": 64, "value": 0}, "group": "control_change"}, {"time": 4031, "annotation": {"number": 64, "value": 127}, "group": "control_change"}, {"time": 4039, "annotation": {"number": 64, "value": 0}, "group": "control_change"}, {"time": 4043, "annotation": {"number": 64, "value": 127}, "group": "control_change"}, {"time": 4047, "annotation": {"number": 64, "value": 0}, "group": "control_change"}, {"time": 4053, "annotation": {"number": 64, "value": 127}, "group": "control_change"}, {"time": 4063, "annotation": {"number": 64, "value": 0}, "group": "control_change"}, {"time": 4068, "annotation": {"number": 64, "value": 127}, "group": "control_change"}, {"time": 4074, "annotation": {"number": 64, "value": 0}, "group": "control_change"}, {"time": 4079, "annotation": {"number": 64, "value": 127}, "group": "control_change"}, {"time": 4088, "annotation": {"number": 64, "value": 0}, "group": "control_change"}, {"time": 4091, "annotation": {"number": 64, "value": 127}, "group": "control_change"}, {"time": 4096, "annotation": {"number": 64, "value": 0}, "group": "control_change"}, {"time": 4103, "annotation": {"number": 64, "value": 127}, "group": "control_change"}, {"time": 4112, "annotation": {"number": 64, "value": 0}, "group": "control_change"}, {"time": 4116, "annotation": {"number": 64, "value": 127}, "group": "control_change"}, {"time": 4119, "annotation": {"number": 64, "value": 0}, "group": "control_change"}, {"time": 4126, "annotation": {"number": 64, "value": 127}, "group": "control_change"}, {"time": 4136, "annotation": {"number": 64, "value": 0}, "group": "control_change"}, {"time": 4140, "annotation": {"number": 64, "value": 127}, "group": "control_change"}, {"time": 4140, "annotation": {"number": 64, "value": 0}, "group": "control_change"}, {"time": 4149, "annotation": {"number": 64, "value": 127}, "group": "control_change"}, {"time": 4159, "annotation": {"number": 64, "value": 0}, "group": "control_change"}, {"time": 4163, "annotation": {"number": 64, "value": 127}, "group": "control_change"}, {"time": 4167, "annotation": {"number": 64, "value": 0}, "group": "control_change"}, {"time": 4175, "annotation": {"number": 64, "value": 127}, "group": "control_change"}, {"time": 4183, "annotation": {"number": 64, "value": 0}, "group": "control_change"}, {"time": 4196, "annotation": {"number": 64, "value": 127}, "group": "control_change"}, {"time": 4212, "annotation": {"number": 64, "value": 0}, "group": "control_change"}, {"time": 4212, "annotation": {"number": 64, "value": 127}, "group": "control_change"}, {"time": 4213, "annotation": {"number": 64, "value": 0}, "group": "control_change"}, {"time": 4224, "annotation": {"number": 64, "value": 127}, "group": "control_change"}, {"time": 4231, "annotation": {"number": 64, "value": 0}, "group": "control_change"}, {"time": 4235, "annotation": {"number": 64, "value": 127}, "group": "control_change"}, {"time": 4239, "annotation": {"number": 64, "value": 0}, "group": "control_change"}, {"time": 4248, "annotation": {"number": 64, "value": 127}, "group": "control_change"}, {"time": 4255, "annotation": {"number": 64, "value": 0}, "group": "control_change"}, {"time": 4260, "annotation": {"number": 64, "value": 127}, "group": "control_change"}, {"time": 4263, "annotation": {"number": 64, "value": 0}, "group": "control_change"}, {"time": 4271, "annotation": {"number": 64, "value": 127}, "group": "control_change"}, {"time": 4279, "annotation": {"number": 64, "value": 0}, "group": "control_change"}, {"time": 4284, "annotation": {"number": 64, "value": 127}, "group": "control_change"}, {"time": 4291, "annotation": {"number": 64, "value": 0}, "group": "control_change"}, {"time": 4307, "annotation": {"number": 64, "value": 127}, "group": "control_change"}, {"time": 4313, "annotation": {"number": 64, "value": 0}, "group": "control_change"}, {"time": 4387, "annotation": {"number": 64, "value": 127}, "group": "control_change"}, {"time": 4412, "annotation": {"number": 64, "value": 0}, "group": "control_change"}, {"time": 4416, "annotation": {"number": 64, "value": 127}, "group": "control_change"}, {"time": 4426, "annotation": {"number": 64, "value": 0}, "group": "control_change"}, {"time": 4525, "annotation": {"number": 64, "value": 127}, "group": "control_change"}, {"time": 4528, "annotation": {"number": 64, "value": 0}, "group": "control_change"}, {"time": 4621, "annotation": {"number": 64, "value": 127}, "group": "control_change"}, {"time": 4624, "annotation": {"number": 64, "value": 0}, "group": "control_change"}, {"time": 4717, "annotation": {"number": 64, "value": 127}, "group": "control_change"}, {"time": 4720, "annotation": {"number": 64, "value": 0}, "group": "control_change"}, {"time": 4813, "annotation": {"number": 64, "value": 127}, "group": "control_change"}, {"time": 4816, "annotation": {"number": 64, "value": 0}, "group": "control_change"}, {"time": 4909, "annotation": {"number": 64, "value": 127}, "group": "control_change"}, {"time": 4912, "annotation": {"number": 64, "value": 0}, "group": "control_change"}, {"time": 5005, "annotation": {"number": 64, "value": 127}, "group": "control_change"}, {"time": 5008, "annotation": {"number": 64, "value": 0}, "group": "control_change"}, {"time": 5058, "annotation": {"number": 7, "value": 101}, "group": "control_change"}, {"time": 5061, "annotation": {"number": 7, "value": 100}, "group": "control_change"}, {"time": 5064, "annotation": {"number": 7, "value": 99}, "group": "control_change"}, {"time": 5067, "annotation": {"number": 7, "value": 98}, "group": "control_change"}, {"time": 5070, "annotation": {"number": 7, "value": 96}, "group": "control_change"}, {"time": 5073, "annotation": {"number": 7, "value": 95}, "group": "control_change"}, {"time": 5076, "annotation": {"number": 7, "value": 94}, "group": "control_change"}, {"time": 5079, "annotation": {"number": 7, "value": 93}, "group": "control_change"}, {"time": 5082, "annotation": {"number": 7, "value": 92}, "group": "control_change"}, {"time": 5085, "annotation": {"number": 7, "value": 91}, "group": "control_change"}, {"time": 5088, "annotation": {"number": 7, "value": 89}, "group": "control_change"}, {"time": 5091, "annotation": {"number": 7, "value": 88}, "group": "control_change"}, {"time": 5094, "annotation": {"number": 7, "value": 87}, "group": "control_change"}, {"time": 5097, "annotation": {"number": 7, "value": 86}, "group": "control_change"}, {"time": 5100, "annotation": {"number": 7, "value": 85}, "group": "control_change"}, {"time": 5101, "annotation": {"number": 64, "value": 127}, "group": "control_change"}, {"time": 5103, "annotation": {"number": 7, "value": 84}, "group": "control_change"}, {"time": 5104, "annotation": {"number": 64, "value": 0}, "group": "control_change"}, {"time": 5106, "annotation": {"number": 7, "value": 82}, "group": "control_change"}, {"time": 5109, "annotation": {"number": 7, "value": 81}, "group": "control_change"}, {"time": 5112, "annotation": {"number": 7, "value": 80}, "group": "control_change"}, {"time": 5115, "annotation": {"number": 7, "value": 79}, "group": "control_change"}, {"time": 5118, "annotation": {"number": 7, "value": 78}, "group": "control_change"}, {"time": 5121, "annotation": {"number": 7, "value": 77}, "group": "control_change"}, {"time": 5124, "annotation": {"number": 7, "value": 76}, "group": "control_change"}, {"time": 5127, "annotation": {"number": 7, "value": 74}, "group": "control_change"}, {"time": 5130, "annotation": {"number": 7, "value": 73}, "group": "control_change"}, {"time": 5133, "annotation": {"number": 7, "value": 72}, "group": "control_change"}, {"time": 5136, "annotation": {"number": 7, "value": 71}, "group": "control_change"}, {"time": 5139, "annotation": {"number": 7, "value": 70}, "group": "control_change"}, {"time": 5142, "annotation": {"number": 7, "value": 69}, "group": "control_change"}, {"time": 5145, "annotation": {"number": 7, "value": 67}, "group": "control_change"}, {"time": 5148, "annotation": {"number": 7, "value": 66}, "group": "control_change"}, {"time": 5151, "annotation": {"number": 7, "value": 65}, "group": "control_change"}, {"time": 5154, "annotation": {"number": 7, "value": 64}, "group": "control_change"}, {"time": 5157, "annotation": {"number": 7, "value": 63}, "group": "control_change"}, {"time": 5160, "annotation": {"number": 7, "value": 62}, "group": "control_change"}, {"time": 5163, "annotation": {"number": 7, "value": 60}, "group": "control_change"}, {"time": 5166, "annotation": {"number": 7, "value": 59}, "group": "control_change"}, {"time": 5169, "annotation": {"number": 7, "value": 58}, "group": "control_change"}, {"time": 5172, "annotation": {"number": 7, "value": 57}, "group": "control_change"}, {"time": 5175, "annotation": {"number": 7, "value": 56}, "group": "control_change"}, {"time": 5178, "annotation": {"number": 7, "value": 55}, "group": "control_change"}, {"time": 5181, "annotation": {"number": 7, "value": 54}, "group": "control_change"}, {"time": 5184, "annotation": {"number": 7, "value": 52}, "group": "control_change"}, {"time": 5187, "annotation": {"number": 7, "value": 51}, "group": "control_change"}, {"time": 5190, "annotation": {"number": 7, "value": 50}, "group": "control_change"}, {"time": 5193, "annotation": {"number": 7, "value": 49}, "group": "control_change"}, {"time": 5196, "annotation": {"number": 7, "value": 48}, "group": "control_change"}, {"time": 5197, "annotation": {"number": 64, "value": 127}, "group": "control_change"}, {"time": 5199, "annotation": {"number": 7, "value": 47}, "group": "control_change"}, {"time": 5200, "annotation": {"number": 64, "value": 0}, "group": "control_change"}, {"time": 5202, "annotation": {"number": 7, "value": 45}, "group": "control_change"}, {"time": 5205, "annotation": {"number": 7, "value": 44}, "group": "control_change"}, {"time": 5208, "annotation": {"number": 7, "value": 43}, "group": "control_change"}, {"time": 5211, "annotation": {"number": 7, "value": 42}, "group": "control_change"}, {"time": 5214, "annotation": {"number": 7, "value": 41}, "group": "control_change"}, {"time": 5217, "annotation": {"number": 7, "value": 40}, "group": "control_change"}, {"time": 5220, "annotation": {"number": 7, "value": 38}, "group": "control_change"}, {"time": 5223, "annotation": {"number": 7, "value": 37}, "group": "control_change"}, {"time": 5226, "annotation": {"number": 7, "value": 36}, "group": "control_change"}, {"time": 5229, "annotation": {"number": 7, "value": 35}, "group": "control_change"}, {"time": 5232, "annotation": {"number": 7, "value": 34}, "group": "control_change"}, {"time": 5235, "annotation": {"number": 7, "value": 33}, "group": "control_change"}, {"time": 5238, "annotation": {"number": 7, "value": 32}, "group": "control_change"}, {"time": 5241, "annotation": {"number": 7, "value": 30}, "group": "control_change"}, {"time": 5244, "annotation": {"number": 7, "value": 29}, "group": "control_change"}, {"time": 5247, "annotation": {"number": 7, "value": 28}, "group": "control_change"}, {"time": 5250, "annotation": {"number": 7, "value": 27}, "group": "control_change"}, {"time": 5253, "annotation": {"number": 7, "value": 26}, "group": "control_change"}, {"time": 5256, "annotation": {"number": 7, "value": 25}, "group": "control_change"}, {"time": 5259, "annotation": {"number": 7, "value": 23}, "group": "control_change"}, {"time": 5262, "annotation": {"number": 7, "value": 22}, "group": "control_change"}, {"time": 5265, "annotation": {"number": 7, "value": 21}, "group": "control_change"}, {"time": 5268, "annotation": {"number": 7, "value": 20}, "group": "control_change"}, {"time": 5271, "annotation": {"number": 7, "value": 19}, "group": "control_change"}, {"time": 5274, "annotation": {"number": 7, "value": 18}, "group": "control_change"}, {"time": 5277, "annotation": {"number": 7, "value": 17}, "group": "control_change"}, {"time": 5280, "annotation": {"number": 7, "value": 15}, "group": "control_change"}, {"time": 5283, "annotation": {"number": 7, "value": 14}, "group": "control_change"}, {"time": 5286, "annotation": {"number": 7, "value": 13}, "group": "control_change"}, {"time": 5289, "annotation": {"number": 7, "value": 12}, "group": "control_change"}, {"time": 5292, "annotation": {"number": 7, "value": 11}, "group": "control_change"}, {"time": 5295, "annotation": {"number": 7, "value": 10}, "group": "control_change"}, {"time": 5298, "annotation": {"number": 7, "value": 8}, "group": "control_change"}, {"time": 5301, "annotation": {"number": 7, "value": 7}, "group": "control_change"}, {"time": 5304, "annotation": {"number": 7, "value": 6}, "group": "control_change"}, {"time": 5307, "annotation": {"number": 7, "value": 5}, "group": "control_change"}, {"time": 5310, "annotation": {"number": 7, "value": 4}, "group": "control_change"}, {"time": 5313, "annotation": {"number": 7, "value": 3}, "group": "control_change"}, {"time": 5316, "annotation": {"number": 7, "value": 1}, "group": "control_change"}, {"time": 5319, "annotation": {"number": 7, "value": 0}, "group": "control_change"}, {"time": 5320, "annotation": {"number": 7, "value": 0}, "group": "control_change"}]}]}