{"metadata": {"schema_version": "0.2", "title": "None", "source_filename": "078.mid", "source_format": "midi"}, "resolution": 12, "tempos": [{"time": 0, "qpm": 86.00005160003096}, {"time": 1260, "qpm": 85.00004250002125}, {"time": 1272, "qpm": 82.00014760026568}, {"time": 1284, "qpm": 86.00005160003096}, {"time": 1584, "qpm": 85.00004250002125}, {"time": 1668, "qpm": 86.00005160003096}, {"time": 2496, "qpm": 85.00004250002125}, {"time": 2532, "qpm": 86.00005160003096}, {"time": 2676, "qpm": 85.00004250002125}, {"time": 2724, "qpm": 86.00005160003096}, {"time": 2964, "qpm": 85.00004250002125}, {"time": 3036, "qpm": 86.00005160003096}, {"time": 3108, "qpm": 87.00002175000543}, {"time": 3156, "qpm": 86.00005160003096}, {"time": 3804, "qpm": 87.00002175000543}, {"time": 3912, "qpm": 86.00005160003096}, {"time": 4512, "qpm": 85.00004250002125}], "time_signatures": [{"time": 0, "numerator": 1, "denominator": 4}], "tracks": [{"program": 4, "is_drum": false, "name": "MELODY", "notes": [{"time": 463, "pitch": 76, "duration": 10, "velocity": 127}, {"time": 475, "pitch": 78, "duration": 6, "velocity": 122}, {"time": 481, "pitch": 76, "duration": 5, "velocity": 100}, {"time": 487, "pitch": 74, "duration": 11, "velocity": 112}, {"time": 499, "pitch": 71, "duration": 10, "velocity": 112}, {"time": 505, "pitch": 74, "duration": 6, "velocity": 102}, {"time": 511, "pitch": 76, "duration": 16, "velocity": 107}, {"time": 523, "pitch": 78, "duration": 6, "velocity": 122}, {"time": 529, "pitch": 76, "duration": 6, "velocity": 96}, {"time": 535, "pitch": 74, "duration": 8, "velocity": 100}, {"time": 541, "pitch": 71, "duration": 13, "velocity": 102}, {"time": 559, "pitch": 83, "duration": 6, "velocity": 122}, {"time": 565, "pitch": 86, "duration": 10, "velocity": 122}, {"time": 577, "pitch": 83, "duration": 4, "velocity": 107}, {"time": 583, "pitch": 88, "duration": 5, "velocity": 127}, {"time": 589, "pitch": 86, "duration": 5, "velocity": 107}, {"time": 595, "pitch": 83, "duration": 6, "velocity": 102}, {"time": 601, "pitch": 81, "duration": 5, "velocity": 117}, {"time": 607, "pitch": 83, "duration": 13, "velocity": 127}, {"time": 655, "pitch": 83, "duration": 7, "velocity": 122}, {"time": 661, "pitch": 86, "duration": 2, "velocity": 100}, {"time": 667, "pitch": 86, "duration": 5, "velocity": 127}, {"time": 673, "pitch": 83, "duration": 5, "velocity": 102}, {"time": 679, "pitch": 88, "duration": 16, "velocity": 127}, {"time": 703, "pitch": 81, "duration": 4, "velocity": 127}, {"time": 709, "pitch": 81, "duration": 5, "velocity": 99}, {"time": 715, "pitch": 83, "duration": 5, "velocity": 122}, {"time": 721, "pitch": 81, "duration": 5, "velocity": 100}, {"time": 727, "pitch": 79, "duration": 5, "velocity": 107}, {"time": 751, "pitch": 71, "duration": 4, "velocity": 112}, {"time": 757, "pitch": 74, "duration": 4, "velocity": 100}, {"time": 763, "pitch": 76, "duration": 4, "velocity": 99}, {"time": 769, "pitch": 83, "duration": 5, "velocity": 107}, {"time": 775, "pitch": 81, "duration": 8, "velocity": 127}, {"time": 781, "pitch": 81, "duration": 2, "velocity": 122}, {"time": 784, "pitch": 78, "duration": 6, "velocity": 107}, {"time": 793, "pitch": 76, "duration": 6, "velocity": 92}, {"time": 799, "pitch": 74, "duration": 37, "velocity": 93}, {"time": 847, "pitch": 76, "duration": 4, "velocity": 97}, {"time": 853, "pitch": 76, "duration": 6, "velocity": 88}, {"time": 859, "pitch": 78, "duration": 5, "velocity": 102}, {"time": 865, "pitch": 76, "duration": 6, "velocity": 92}, {"time": 871, "pitch": 74, "duration": 10, "velocity": 95}, {"time": 883, "pitch": 71, "duration": 5, "velocity": 100}, {"time": 889, "pitch": 74, "duration": 5, "velocity": 100}, {"time": 895, "pitch": 76, "duration": 4, "velocity": 100}, {"time": 901, "pitch": 76, "duration": 5, "velocity": 97}, {"time": 907, "pitch": 78, "duration": 5, "velocity": 127}, {"time": 913, "pitch": 76, "duration": 5, "velocity": 112}, {"time": 919, "pitch": 74, "duration": 8, "velocity": 107}, {"time": 925, "pitch": 71, "duration": 14, "velocity": 90}, {"time": 943, "pitch": 83, "duration": 5, "velocity": 102}, {"time": 949, "pitch": 86, "duration": 11, "velocity": 107}, {"time": 961, "pitch": 83, "duration": 6, "velocity": 100}, {"time": 967, "pitch": 88, "duration": 4, "velocity": 117}, {"time": 973, "pitch": 86, "duration": 5, "velocity": 117}, {"time": 979, "pitch": 83, "duration": 5, "velocity": 97}, {"time": 985, "pitch": 81, "duration": 5, "velocity": 100}, {"time": 991, "pitch": 81, "duration": 6, "velocity": 97}, {"time": 997, "pitch": 83, "duration": 36, "velocity": 100}, {"time": 1039, "pitch": 86, "duration": 4, "velocity": 122}, {"time": 1045, "pitch": 86, "duration": 5, "velocity": 122}, {"time": 1051, "pitch": 83, "duration": 5, "velocity": 99}, {"time": 1057, "pitch": 86, "duration": 5, "velocity": 127}, {"time": 1063, "pitch": 88, "duration": 14, "velocity": 122}, {"time": 1075, "pitch": 88, "duration": 2, "velocity": 122}, {"time": 1081, "pitch": 83, "duration": 6, "velocity": 107}, {"time": 1087, "pitch": 81, "duration": 6, "velocity": 97}, {"time": 1093, "pitch": 81, "duration": 6, "velocity": 117}, {"time": 1099, "pitch": 83, "duration": 6, "velocity": 112}, {"time": 1105, "pitch": 81, "duration": 8, "velocity": 96}, {"time": 1111, "pitch": 79, "duration": 13, "velocity": 107}, {"time": 1135, "pitch": 71, "duration": 5, "velocity": 102}, {"time": 1141, "pitch": 74, "duration": 5, "velocity": 92}, {"time": 1147, "pitch": 76, "duration": 4, "velocity": 100}, {"time": 1153, "pitch": 83, "duration": 5, "velocity": 117}, {"time": 1159, "pitch": 81, "duration": 11, "velocity": 127}, {"time": 1171, "pitch": 81, "duration": 5, "velocity": 127}, {"time": 1177, "pitch": 78, "duration": 6, "velocity": 122}, {"time": 1183, "pitch": 76, "duration": 5, "velocity": 112}, {"time": 1189, "pitch": 78, "duration": 6, "velocity": 117}, {"time": 1195, "pitch": 74, "duration": 6, "velocity": 96}, {"time": 1201, "pitch": 71, "duration": 17, "velocity": 96}, {"time": 1219, "pitch": 81, "duration": 5, "velocity": 122}, {"time": 1225, "pitch": 78, "duration": 6, "velocity": 102}, {"time": 1231, "pitch": 76, "duration": 35, "velocity": 117}, {"time": 1267, "pitch": 83, "duration": 5, "velocity": 112}, {"time": 1273, "pitch": 86, "duration": 5, "velocity": 122}, {"time": 1279, "pitch": 88, "duration": 30, "velocity": 127}, {"time": 1315, "pitch": 83, "duration": 5, "velocity": 117}, {"time": 1321, "pitch": 86, "duration": 5, "velocity": 102}, {"time": 1327, "pitch": 88, "duration": 32, "velocity": 122}, {"time": 1363, "pitch": 83, "duration": 5, "velocity": 117}, {"time": 1369, "pitch": 86, "duration": 6, "velocity": 107}, {"time": 1375, "pitch": 88, "duration": 14, "velocity": 112}, {"time": 1387, "pitch": 88, "duration": 2, "velocity": 112}, {"time": 1393, "pitch": 91, "duration": 6, "velocity": 99}, {"time": 1399, "pitch": 88, "duration": 6, "velocity": 112}, {"time": 1411, "pitch": 88, "duration": 6, "velocity": 127}, {"time": 1417, "pitch": 86, "duration": 5, "velocity": 99}, {"time": 1423, "pitch": 83, "duration": 30, "velocity": 102}, {"time": 1459, "pitch": 83, "duration": 5, "velocity": 107}, {"time": 1465, "pitch": 86, "duration": 5, "velocity": 117}, {"time": 1471, "pitch": 88, "duration": 26, "velocity": 112}, {"time": 1507, "pitch": 83, "duration": 5, "velocity": 107}, {"time": 1513, "pitch": 86, "duration": 6, "velocity": 107}, {"time": 1519, "pitch": 88, "duration": 25, "velocity": 117}, {"time": 1555, "pitch": 83, "duration": 5, "velocity": 99}, {"time": 1561, "pitch": 86, "duration": 4, "velocity": 100}, {"time": 1567, "pitch": 88, "duration": 6, "velocity": 127}, {"time": 1576, "pitch": 88, "duration": 1, "velocity": 127}, {"time": 1579, "pitch": 88, "duration": 4, "velocity": 122}, {"time": 1585, "pitch": 86, "duration": 5, "velocity": 122}, {"time": 1591, "pitch": 83, "duration": 8, "velocity": 102}, {"time": 1603, "pitch": 76, "duration": 5, "velocity": 112}, {"time": 1609, "pitch": 79, "duration": 6, "velocity": 107}, {"time": 1615, "pitch": 81, "duration": 31, "velocity": 127}, {"time": 1651, "pitch": 76, "duration": 5, "velocity": 127}, {"time": 1657, "pitch": 79, "duration": 6, "velocity": 102}, {"time": 1663, "pitch": 81, "duration": 13, "velocity": 112}, {"time": 1699, "pitch": 81, "duration": 4, "velocity": 127}, {"time": 1705, "pitch": 81, "duration": 5, "velocity": 122}, {"time": 1711, "pitch": 83, "duration": 5, "velocity": 107}, {"time": 1717, "pitch": 78, "duration": 25, "velocity": 100}, {"time": 1747, "pitch": 71, "duration": 6, "velocity": 107}, {"time": 1753, "pitch": 74, "duration": 6, "velocity": 97}, {"time": 1759, "pitch": 76, "duration": 4, "velocity": 117}, {"time": 1765, "pitch": 76, "duration": 11, "velocity": 107}, {"time": 1777, "pitch": 74, "duration": 6, "velocity": 112}, {"time": 1783, "pitch": 76, "duration": 13, "velocity": 122}, {"time": 1795, "pitch": 76, "duration": 1, "velocity": 117}, {"time": 1801, "pitch": 79, "duration": 6, "velocity": 107}, {"time": 1807, "pitch": 81, "duration": 18, "velocity": 117}, {"time": 1825, "pitch": 83, "duration": 4, "velocity": 122}, {"time": 1831, "pitch": 86, "duration": 5, "velocity": 117}, {"time": 1843, "pitch": 83, "duration": 5, "velocity": 112}, {"time": 1849, "pitch": 86, "duration": 6, "velocity": 107}, {"time": 1855, "pitch": 88, "duration": 15, "velocity": 122}, {"time": 1873, "pitch": 83, "duration": 5, "velocity": 122}, {"time": 1879, "pitch": 81, "duration": 7, "velocity": 127}, {"time": 1891, "pitch": 81, "duration": 5, "velocity": 112}, {"time": 1897, "pitch": 78, "duration": 6, "velocity": 97}, {"time": 1903, "pitch": 76, "duration": 47, "velocity": 112}, {"time": 2335, "pitch": 76, "duration": 10, "velocity": 127}, {"time": 2347, "pitch": 78, "duration": 6, "velocity": 122}, {"time": 2353, "pitch": 76, "duration": 5, "velocity": 100}, {"time": 2359, "pitch": 74, "duration": 11, "velocity": 112}, {"time": 2371, "pitch": 71, "duration": 10, "velocity": 112}, {"time": 2377, "pitch": 74, "duration": 6, "velocity": 102}, {"time": 2383, "pitch": 76, "duration": 16, "velocity": 107}, {"time": 2395, "pitch": 78, "duration": 6, "velocity": 122}, {"time": 2401, "pitch": 76, "duration": 6, "velocity": 96}, {"time": 2407, "pitch": 74, "duration": 8, "velocity": 100}, {"time": 2413, "pitch": 71, "duration": 13, "velocity": 102}, {"time": 2431, "pitch": 83, "duration": 6, "velocity": 122}, {"time": 2437, "pitch": 86, "duration": 10, "velocity": 122}, {"time": 2449, "pitch": 83, "duration": 4, "velocity": 107}, {"time": 2455, "pitch": 88, "duration": 5, "velocity": 127}, {"time": 2461, "pitch": 86, "duration": 5, "velocity": 107}, {"time": 2467, "pitch": 83, "duration": 6, "velocity": 102}, {"time": 2473, "pitch": 81, "duration": 5, "velocity": 117}, {"time": 2479, "pitch": 83, "duration": 13, "velocity": 127}, {"time": 2527, "pitch": 83, "duration": 7, "velocity": 122}, {"time": 2533, "pitch": 86, "duration": 2, "velocity": 100}, {"time": 2539, "pitch": 86, "duration": 5, "velocity": 127}, {"time": 2545, "pitch": 83, "duration": 5, "velocity": 102}, {"time": 2551, "pitch": 88, "duration": 16, "velocity": 127}, {"time": 2575, "pitch": 81, "duration": 4, "velocity": 127}, {"time": 2581, "pitch": 81, "duration": 5, "velocity": 99}, {"time": 2587, "pitch": 83, "duration": 5, "velocity": 122}, {"time": 2593, "pitch": 81, "duration": 5, "velocity": 100}, {"time": 2599, "pitch": 79, "duration": 5, "velocity": 107}, {"time": 2623, "pitch": 71, "duration": 4, "velocity": 112}, {"time": 2629, "pitch": 74, "duration": 4, "velocity": 100}, {"time": 2635, "pitch": 76, "duration": 4, "velocity": 99}, {"time": 2641, "pitch": 83, "duration": 5, "velocity": 107}, {"time": 2647, "pitch": 81, "duration": 8, "velocity": 127}, {"time": 2653, "pitch": 81, "duration": 2, "velocity": 122}, {"time": 2656, "pitch": 78, "duration": 6, "velocity": 107}, {"time": 2665, "pitch": 76, "duration": 6, "velocity": 92}, {"time": 2671, "pitch": 74, "duration": 37, "velocity": 93}, {"time": 2719, "pitch": 76, "duration": 4, "velocity": 97}, {"time": 2725, "pitch": 76, "duration": 6, "velocity": 88}, {"time": 2731, "pitch": 78, "duration": 5, "velocity": 102}, {"time": 2737, "pitch": 76, "duration": 6, "velocity": 92}, {"time": 2743, "pitch": 74, "duration": 10, "velocity": 95}, {"time": 2755, "pitch": 71, "duration": 5, "velocity": 100}, {"time": 2761, "pitch": 74, "duration": 5, "velocity": 100}, {"time": 2767, "pitch": 76, "duration": 4, "velocity": 100}, {"time": 2773, "pitch": 76, "duration": 5, "velocity": 97}, {"time": 2779, "pitch": 78, "duration": 5, "velocity": 127}, {"time": 2785, "pitch": 76, "duration": 5, "velocity": 112}, {"time": 2791, "pitch": 74, "duration": 8, "velocity": 107}, {"time": 2797, "pitch": 71, "duration": 14, "velocity": 90}, {"time": 2815, "pitch": 83, "duration": 5, "velocity": 102}, {"time": 2821, "pitch": 86, "duration": 11, "velocity": 107}, {"time": 2833, "pitch": 83, "duration": 6, "velocity": 100}, {"time": 2839, "pitch": 88, "duration": 4, "velocity": 117}, {"time": 2845, "pitch": 86, "duration": 5, "velocity": 117}, {"time": 2851, "pitch": 83, "duration": 5, "velocity": 97}, {"time": 2857, "pitch": 81, "duration": 5, "velocity": 100}, {"time": 2863, "pitch": 81, "duration": 6, "velocity": 97}, {"time": 2869, "pitch": 83, "duration": 36, "velocity": 100}, {"time": 2911, "pitch": 86, "duration": 4, "velocity": 122}, {"time": 2917, "pitch": 86, "duration": 5, "velocity": 122}, {"time": 2923, "pitch": 83, "duration": 5, "velocity": 99}, {"time": 2929, "pitch": 86, "duration": 5, "velocity": 127}, {"time": 2935, "pitch": 88, "duration": 14, "velocity": 122}, {"time": 2947, "pitch": 88, "duration": 2, "velocity": 122}, {"time": 2953, "pitch": 83, "duration": 6, "velocity": 107}, {"time": 2959, "pitch": 81, "duration": 6, "velocity": 97}, {"time": 2965, "pitch": 81, "duration": 6, "velocity": 117}, {"time": 2971, "pitch": 83, "duration": 6, "velocity": 112}, {"time": 2977, "pitch": 81, "duration": 8, "velocity": 96}, {"time": 2983, "pitch": 79, "duration": 13, "velocity": 107}, {"time": 3007, "pitch": 71, "duration": 5, "velocity": 102}, {"time": 3013, "pitch": 74, "duration": 5, "velocity": 92}, {"time": 3019, "pitch": 76, "duration": 4, "velocity": 100}, {"time": 3025, "pitch": 83, "duration": 5, "velocity": 117}, {"time": 3031, "pitch": 81, "duration": 11, "velocity": 127}, {"time": 3043, "pitch": 81, "duration": 5, "velocity": 127}, {"time": 3049, "pitch": 78, "duration": 6, "velocity": 122}, {"time": 3055, "pitch": 76, "duration": 5, "velocity": 112}, {"time": 3061, "pitch": 78, "duration": 6, "velocity": 117}, {"time": 3067, "pitch": 74, "duration": 6, "velocity": 96}, {"time": 3073, "pitch": 71, "duration": 17, "velocity": 96}, {"time": 3091, "pitch": 81, "duration": 5, "velocity": 122}, {"time": 3097, "pitch": 78, "duration": 6, "velocity": 102}, {"time": 3103, "pitch": 76, "duration": 35, "velocity": 117}, {"time": 3139, "pitch": 83, "duration": 5, "velocity": 112}, {"time": 3145, "pitch": 86, "duration": 5, "velocity": 122}, {"time": 3151, "pitch": 88, "duration": 30, "velocity": 127}, {"time": 3187, "pitch": 83, "duration": 5, "velocity": 117}, {"time": 3193, "pitch": 86, "duration": 5, "velocity": 102}, {"time": 3199, "pitch": 88, "duration": 32, "velocity": 122}, {"time": 3235, "pitch": 83, "duration": 5, "velocity": 117}, {"time": 3241, "pitch": 86, "duration": 6, "velocity": 107}, {"time": 3247, "pitch": 88, "duration": 14, "velocity": 112}, {"time": 3259, "pitch": 88, "duration": 2, "velocity": 112}, {"time": 3265, "pitch": 91, "duration": 6, "velocity": 99}, {"time": 3271, "pitch": 88, "duration": 6, "velocity": 112}, {"time": 3283, "pitch": 88, "duration": 6, "velocity": 127}, {"time": 3289, "pitch": 86, "duration": 5, "velocity": 99}, {"time": 3295, "pitch": 83, "duration": 30, "velocity": 102}, {"time": 3331, "pitch": 83, "duration": 5, "velocity": 107}, {"time": 3337, "pitch": 86, "duration": 5, "velocity": 117}, {"time": 3343, "pitch": 88, "duration": 26, "velocity": 112}, {"time": 3379, "pitch": 83, "duration": 5, "velocity": 107}, {"time": 3385, "pitch": 86, "duration": 6, "velocity": 107}, {"time": 3391, "pitch": 88, "duration": 25, "velocity": 117}, {"time": 3427, "pitch": 83, "duration": 5, "velocity": 99}, {"time": 3433, "pitch": 86, "duration": 4, "velocity": 100}, {"time": 3439, "pitch": 88, "duration": 6, "velocity": 127}, {"time": 3448, "pitch": 88, "duration": 1, "velocity": 127}, {"time": 3451, "pitch": 88, "duration": 4, "velocity": 122}, {"time": 3457, "pitch": 86, "duration": 5, "velocity": 122}, {"time": 3463, "pitch": 83, "duration": 8, "velocity": 102}, {"time": 3475, "pitch": 76, "duration": 5, "velocity": 112}, {"time": 3481, "pitch": 79, "duration": 6, "velocity": 107}, {"time": 3487, "pitch": 81, "duration": 31, "velocity": 127}, {"time": 3523, "pitch": 76, "duration": 5, "velocity": 127}, {"time": 3529, "pitch": 79, "duration": 6, "velocity": 102}, {"time": 3535, "pitch": 81, "duration": 13, "velocity": 112}, {"time": 3571, "pitch": 81, "duration": 4, "velocity": 127}, {"time": 3577, "pitch": 81, "duration": 5, "velocity": 122}, {"time": 3583, "pitch": 83, "duration": 5, "velocity": 107}, {"time": 3589, "pitch": 78, "duration": 25, "velocity": 100}, {"time": 3619, "pitch": 71, "duration": 6, "velocity": 107}, {"time": 3625, "pitch": 74, "duration": 6, "velocity": 97}, {"time": 3631, "pitch": 76, "duration": 4, "velocity": 117}, {"time": 3637, "pitch": 76, "duration": 11, "velocity": 107}, {"time": 3649, "pitch": 74, "duration": 6, "velocity": 112}, {"time": 3655, "pitch": 76, "duration": 13, "velocity": 122}, {"time": 3667, "pitch": 76, "duration": 1, "velocity": 117}, {"time": 3673, "pitch": 79, "duration": 6, "velocity": 107}, {"time": 3679, "pitch": 81, "duration": 18, "velocity": 117}, {"time": 3697, "pitch": 83, "duration": 4, "velocity": 122}, {"time": 3703, "pitch": 86, "duration": 5, "velocity": 117}, {"time": 3715, "pitch": 83, "duration": 5, "velocity": 112}, {"time": 3721, "pitch": 86, "duration": 6, "velocity": 107}, {"time": 3727, "pitch": 88, "duration": 15, "velocity": 122}, {"time": 3745, "pitch": 83, "duration": 5, "velocity": 122}, {"time": 3751, "pitch": 81, "duration": 7, "velocity": 127}, {"time": 3763, "pitch": 81, "duration": 5, "velocity": 112}, {"time": 3769, "pitch": 78, "duration": 6, "velocity": 97}, {"time": 3775, "pitch": 76, "duration": 24, "velocity": 112}, {"time": 3811, "pitch": 83, "duration": 5, "velocity": 112}, {"time": 3817, "pitch": 86, "duration": 5, "velocity": 122}, {"time": 3823, "pitch": 88, "duration": 30, "velocity": 127}, {"time": 3859, "pitch": 83, "duration": 5, "velocity": 117}, {"time": 3865, "pitch": 86, "duration": 5, "velocity": 102}, {"time": 3871, "pitch": 88, "duration": 32, "velocity": 122}, {"time": 3907, "pitch": 83, "duration": 5, "velocity": 117}, {"time": 3913, "pitch": 86, "duration": 6, "velocity": 107}, {"time": 3919, "pitch": 88, "duration": 14, "velocity": 112}, {"time": 3931, "pitch": 88, "duration": 2, "velocity": 112}, {"time": 3937, "pitch": 91, "duration": 6, "velocity": 99}, {"time": 3943, "pitch": 88, "duration": 6, "velocity": 112}, {"time": 3955, "pitch": 88, "duration": 6, "velocity": 127}, {"time": 3961, "pitch": 86, "duration": 5, "velocity": 99}, {"time": 3967, "pitch": 83, "duration": 30, "velocity": 102}, {"time": 4003, "pitch": 83, "duration": 5, "velocity": 107}, {"time": 4009, "pitch": 86, "duration": 5, "velocity": 117}, {"time": 4015, "pitch": 88, "duration": 26, "velocity": 112}, {"time": 4051, "pitch": 83, "duration": 5, "velocity": 107}, {"time": 4057, "pitch": 86, "duration": 6, "velocity": 107}, {"time": 4063, "pitch": 88, "duration": 25, "velocity": 117}, {"time": 4099, "pitch": 83, "duration": 5, "velocity": 99}, {"time": 4105, "pitch": 86, "duration": 4, "velocity": 100}, {"time": 4111, "pitch": 88, "duration": 6, "velocity": 127}, {"time": 4120, "pitch": 88, "duration": 1, "velocity": 127}, {"time": 4123, "pitch": 88, "duration": 4, "velocity": 122}, {"time": 4129, "pitch": 86, "duration": 5, "velocity": 122}, {"time": 4135, "pitch": 83, "duration": 8, "velocity": 102}, {"time": 4147, "pitch": 76, "duration": 5, "velocity": 112}, {"time": 4153, "pitch": 79, "duration": 6, "velocity": 107}, {"time": 4159, "pitch": 81, "duration": 31, "velocity": 127}, {"time": 4195, "pitch": 76, "duration": 5, "velocity": 127}, {"time": 4201, "pitch": 79, "duration": 6, "velocity": 102}, {"time": 4207, "pitch": 81, "duration": 13, "velocity": 112}, {"time": 4243, "pitch": 81, "duration": 4, "velocity": 127}, {"time": 4249, "pitch": 81, "duration": 5, "velocity": 122}, {"time": 4255, "pitch": 83, "duration": 5, "velocity": 107}, {"time": 4261, "pitch": 78, "duration": 25, "velocity": 100}, {"time": 4291, "pitch": 71, "duration": 6, "velocity": 107}, {"time": 4297, "pitch": 74, "duration": 6, "velocity": 97}, {"time": 4303, "pitch": 76, "duration": 4, "velocity": 117}, {"time": 4309, "pitch": 76, "duration": 11, "velocity": 107}, {"time": 4321, "pitch": 74, "duration": 6, "velocity": 112}, {"time": 4327, "pitch": 76, "duration": 13, "velocity": 122}, {"time": 4339, "pitch": 76, "duration": 1, "velocity": 117}, {"time": 4345, "pitch": 79, "duration": 6, "velocity": 107}, {"time": 4351, "pitch": 81, "duration": 18, "velocity": 117}, {"time": 4369, "pitch": 83, "duration": 4, "velocity": 122}, {"time": 4375, "pitch": 86, "duration": 5, "velocity": 117}, {"time": 4387, "pitch": 83, "duration": 5, "velocity": 112}, {"time": 4393, "pitch": 86, "duration": 6, "velocity": 107}, {"time": 4399, "pitch": 88, "duration": 15, "velocity": 122}, {"time": 4417, "pitch": 83, "duration": 5, "velocity": 122}, {"time": 4423, "pitch": 81, "duration": 7, "velocity": 127}, {"time": 4435, "pitch": 81, "duration": 5, "velocity": 112}, {"time": 4441, "pitch": 78, "duration": 6, "velocity": 97}, {"time": 4447, "pitch": 76, "duration": 36, "velocity": 112}, {"time": 4483, "pitch": 86, "duration": 10, "velocity": 127}, {"time": 4495, "pitch": 88, "duration": 73, "velocity": 127}]}, {"program": 0, "is_drum": false, "name": "PIANO", "notes": [{"time": 79, "pitch": 43, "duration": 15, "velocity": 71}, {"time": 79, "pitch": 62, "duration": 13, "velocity": 89}, {"time": 79, "pitch": 67, "duration": 12, "velocity": 89}, {"time": 79, "pitch": 71, "duration": 12, "velocity": 92}, {"time": 91, "pitch": 67, "duration": 1, "velocity": 89}, {"time": 91, "pitch": 71, "duration": 1, "velocity": 85}, {"time": 97, "pitch": 43, "duration": 2, "velocity": 65}, {"time": 103, "pitch": 43, "duration": 17, "velocity": 75}, {"time": 109, "pitch": 62, "duration": 7, "velocity": 36}, {"time": 115, "pitch": 67, "duration": 9, "velocity": 85}, {"time": 115, "pitch": 71, "duration": 15, "velocity": 83}, {"time": 121, "pitch": 62, "duration": 7, "velocity": 66}, {"time": 127, "pitch": 42, "duration": 14, "velocity": 97}, {"time": 139, "pitch": 66, "duration": 17, "velocity": 93}, {"time": 139, "pitch": 71, "duration": 21, "velocity": 82}, {"time": 139, "pitch": 74, "duration": 19, "velocity": 54}, {"time": 145, "pitch": 42, "duration": 2, "velocity": 82}, {"time": 151, "pitch": 42, "duration": 15, "velocity": 67}, {"time": 163, "pitch": 66, "duration": 12, "velocity": 89}, {"time": 163, "pitch": 71, "duration": 13, "velocity": 79}, {"time": 163, "pitch": 74, "duration": 12, "velocity": 76}, {"time": 175, "pitch": 40, "duration": 15, "velocity": 77}, {"time": 187, "pitch": 64, "duration": 13, "velocity": 74}, {"time": 187, "pitch": 67, "duration": 12, "velocity": 79}, {"time": 187, "pitch": 71, "duration": 13, "velocity": 77}, {"time": 193, "pitch": 40, "duration": 3, "velocity": 69}, {"time": 193, "pitch": 52, "duration": 2, "velocity": 49}, {"time": 199, "pitch": 40, "duration": 12, "velocity": 56}, {"time": 199, "pitch": 52, "duration": 17, "velocity": 60}, {"time": 211, "pitch": 64, "duration": 12, "velocity": 86}, {"time": 211, "pitch": 67, "duration": 13, "velocity": 86}, {"time": 217, "pitch": 59, "duration": 8, "velocity": 46}, {"time": 223, "pitch": 45, "duration": 14, "velocity": 74}, {"time": 235, "pitch": 60, "duration": 20, "velocity": 82}, {"time": 235, "pitch": 64, "duration": 20, "velocity": 82}, {"time": 241, "pitch": 45, "duration": 2, "velocity": 66}, {"time": 247, "pitch": 45, "duration": 17, "velocity": 74}, {"time": 259, "pitch": 60, "duration": 5, "velocity": 71}, {"time": 259, "pitch": 64, "duration": 7, "velocity": 72}, {"time": 271, "pitch": 49, "duration": 15, "velocity": 70}, {"time": 271, "pitch": 57, "duration": 34, "velocity": 72}, {"time": 271, "pitch": 61, "duration": 34, "velocity": 67}, {"time": 271, "pitch": 64, "duration": 33, "velocity": 72}, {"time": 289, "pitch": 49, "duration": 3, "velocity": 73}, {"time": 295, "pitch": 49, "duration": 15, "velocity": 86}, {"time": 307, "pitch": 61, "duration": 13, "velocity": 88}, {"time": 307, "pitch": 64, "duration": 11, "velocity": 75}, {"time": 313, "pitch": 57, "duration": 7, "velocity": 59}, {"time": 319, "pitch": 38, "duration": 15, "velocity": 59}, {"time": 331, "pitch": 57, "duration": 20, "velocity": 70}, {"time": 331, "pitch": 62, "duration": 21, "velocity": 78}, {"time": 331, "pitch": 66, "duration": 21, "velocity": 72}, {"time": 337, "pitch": 38, "duration": 2, "velocity": 60}, {"time": 337, "pitch": 50, "duration": 2, "velocity": 68}, {"time": 343, "pitch": 38, "duration": 14, "velocity": 74}, {"time": 343, "pitch": 50, "duration": 15, "velocity": 93}, {"time": 355, "pitch": 62, "duration": 14, "velocity": 75}, {"time": 355, "pitch": 66, "duration": 14, "velocity": 82}, {"time": 367, "pitch": 40, "duration": 14, "velocity": 83}, {"time": 373, "pitch": 47, "duration": 7, "velocity": 38}, {"time": 379, "pitch": 59, "duration": 84, "velocity": 67}, {"time": 379, "pitch": 64, "duration": 57, "velocity": 65}, {"time": 379, "pitch": 67, "duration": 57, "velocity": 66}, {"time": 385, "pitch": 40, "duration": 2, "velocity": 47}, {"time": 385, "pitch": 47, "duration": 2, "velocity": 55}, {"time": 385, "pitch": 52, "duration": 2, "velocity": 69}, {"time": 391, "pitch": 40, "duration": 21, "velocity": 62}, {"time": 391, "pitch": 47, "duration": 24, "velocity": 46}, {"time": 391, "pitch": 52, "duration": 52, "velocity": 56}, {"time": 415, "pitch": 40, "duration": 42, "velocity": 65}, {"time": 433, "pitch": 47, "duration": 30, "velocity": 39}, {"time": 439, "pitch": 67, "duration": 24, "velocity": 85}, {"time": 445, "pitch": 52, "duration": 8, "velocity": 50}, {"time": 463, "pitch": 40, "duration": 14, "velocity": 90}, {"time": 475, "pitch": 59, "duration": 12, "velocity": 58}, {"time": 475, "pitch": 64, "duration": 12, "velocity": 72}, {"time": 475, "pitch": 67, "duration": 12, "velocity": 67}, {"time": 481, "pitch": 40, "duration": 6, "velocity": 72}, {"time": 487, "pitch": 47, "duration": 15, "velocity": 66}, {"time": 499, "pitch": 62, "duration": 16, "velocity": 76}, {"time": 499, "pitch": 66, "duration": 11, "velocity": 93}, {"time": 505, "pitch": 47, "duration": 6, "velocity": 68}, {"time": 511, "pitch": 40, "duration": 14, "velocity": 66}, {"time": 523, "pitch": 59, "duration": 12, "velocity": 71}, {"time": 523, "pitch": 64, "duration": 11, "velocity": 75}, {"time": 523, "pitch": 67, "duration": 11, "velocity": 76}, {"time": 529, "pitch": 40, "duration": 6, "velocity": 49}, {"time": 535, "pitch": 47, "duration": 15, "velocity": 67}, {"time": 541, "pitch": 59, "duration": 7, "velocity": 50}, {"time": 547, "pitch": 62, "duration": 12, "velocity": 72}, {"time": 547, "pitch": 66, "duration": 12, "velocity": 95}, {"time": 553, "pitch": 59, "duration": 7, "velocity": 64}, {"time": 559, "pitch": 43, "duration": 15, "velocity": 71}, {"time": 571, "pitch": 59, "duration": 5, "velocity": 86}, {"time": 571, "pitch": 62, "duration": 5, "velocity": 83}, {"time": 577, "pitch": 43, "duration": 5, "velocity": 78}, {"time": 583, "pitch": 40, "duration": 14, "velocity": 75}, {"time": 589, "pitch": 59, "duration": 4, "velocity": 39}, {"time": 595, "pitch": 64, "duration": 11, "velocity": 81}, {"time": 595, "pitch": 67, "duration": 12, "velocity": 85}, {"time": 601, "pitch": 40, "duration": 6, "velocity": 66}, {"time": 607, "pitch": 47, "duration": 15, "velocity": 69}, {"time": 619, "pitch": 59, "duration": 14, "velocity": 59}, {"time": 619, "pitch": 62, "duration": 14, "velocity": 81}, {"time": 619, "pitch": 66, "duration": 14, "velocity": 78}, {"time": 625, "pitch": 47, "duration": 2, "velocity": 89}, {"time": 631, "pitch": 47, "duration": 15, "velocity": 62}, {"time": 637, "pitch": 62, "duration": 16, "velocity": 76}, {"time": 637, "pitch": 66, "duration": 17, "velocity": 99}, {"time": 643, "pitch": 59, "duration": 11, "velocity": 90}, {"time": 649, "pitch": 45, "duration": 5, "velocity": 75}, {"time": 655, "pitch": 43, "duration": 14, "velocity": 58}, {"time": 667, "pitch": 62, "duration": 11, "velocity": 71}, {"time": 667, "pitch": 67, "duration": 13, "velocity": 76}, {"time": 667, "pitch": 71, "duration": 13, "velocity": 70}, {"time": 673, "pitch": 43, "duration": 5, "velocity": 76}, {"time": 679, "pitch": 40, "duration": 17, "velocity": 74}, {"time": 685, "pitch": 64, "duration": 7, "velocity": 62}, {"time": 691, "pitch": 67, "duration": 12, "velocity": 60}, {"time": 691, "pitch": 71, "duration": 12, "velocity": 76}, {"time": 697, "pitch": 64, "duration": 7, "velocity": 57}, {"time": 703, "pitch": 38, "duration": 15, "velocity": 66}, {"time": 709, "pitch": 50, "duration": 10, "velocity": 44}, {"time": 715, "pitch": 62, "duration": 12, "velocity": 89}, {"time": 715, "pitch": 66, "duration": 12, "velocity": 89}, {"time": 721, "pitch": 57, "duration": 6, "velocity": 66}, {"time": 727, "pitch": 36, "duration": 7, "velocity": 81}, {"time": 727, "pitch": 48, "duration": 17, "velocity": 71}, {"time": 733, "pitch": 55, "duration": 10, "velocity": 38}, {"time": 739, "pitch": 64, "duration": 11, "velocity": 82}, {"time": 739, "pitch": 67, "duration": 11, "velocity": 83}, {"time": 745, "pitch": 36, "duration": 6, "velocity": 82}, {"time": 745, "pitch": 60, "duration": 7, "velocity": 64}, {"time": 751, "pitch": 35, "duration": 10, "velocity": 73}, {"time": 751, "pitch": 47, "duration": 22, "velocity": 72}, {"time": 757, "pitch": 55, "duration": 6, "velocity": 52}, {"time": 763, "pitch": 59, "duration": 12, "velocity": 82}, {"time": 763, "pitch": 62, "duration": 12, "velocity": 90}, {"time": 769, "pitch": 35, "duration": 4, "velocity": 75}, {"time": 769, "pitch": 55, "duration": 6, "velocity": 58}, {"time": 775, "pitch": 33, "duration": 10, "velocity": 76}, {"time": 775, "pitch": 45, "duration": 17, "velocity": 69}, {"time": 781, "pitch": 57, "duration": 7, "velocity": 52}, {"time": 787, "pitch": 61, "duration": 12, "velocity": 83}, {"time": 787, "pitch": 64, "duration": 12, "velocity": 75}, {"time": 793, "pitch": 33, "duration": 4, "velocity": 88}, {"time": 793, "pitch": 57, "duration": 8, "velocity": 55}, {"time": 799, "pitch": 38, "duration": 14, "velocity": 74}, {"time": 799, "pitch": 50, "duration": 14, "velocity": 54}, {"time": 805, "pitch": 57, "duration": 21, "velocity": 44}, {"time": 811, "pitch": 62, "duration": 16, "velocity": 72}, {"time": 811, "pitch": 66, "duration": 15, "velocity": 86}, {"time": 817, "pitch": 38, "duration": 2, "velocity": 65}, {"time": 817, "pitch": 50, "duration": 2, "velocity": 85}, {"time": 823, "pitch": 38, "duration": 21, "velocity": 79}, {"time": 823, "pitch": 50, "duration": 20, "velocity": 81}, {"time": 829, "pitch": 62, "duration": 8, "velocity": 77}, {"time": 829, "pitch": 66, "duration": 8, "velocity": 83}, {"time": 835, "pitch": 57, "duration": 12, "velocity": 85}, {"time": 841, "pitch": 62, "duration": 6, "velocity": 81}, {"time": 841, "pitch": 66, "duration": 6, "velocity": 96}, {"time": 847, "pitch": 40, "duration": 14, "velocity": 90}, {"time": 859, "pitch": 59, "duration": 12, "velocity": 58}, {"time": 859, "pitch": 64, "duration": 12, "velocity": 72}, {"time": 859, "pitch": 67, "duration": 12, "velocity": 67}, {"time": 865, "pitch": 40, "duration": 6, "velocity": 72}, {"time": 871, "pitch": 47, "duration": 15, "velocity": 66}, {"time": 883, "pitch": 62, "duration": 16, "velocity": 76}, {"time": 883, "pitch": 66, "duration": 11, "velocity": 93}, {"time": 889, "pitch": 47, "duration": 6, "velocity": 68}, {"time": 895, "pitch": 40, "duration": 14, "velocity": 66}, {"time": 907, "pitch": 59, "duration": 12, "velocity": 71}, {"time": 907, "pitch": 64, "duration": 11, "velocity": 75}, {"time": 907, "pitch": 67, "duration": 11, "velocity": 76}, {"time": 913, "pitch": 40, "duration": 6, "velocity": 49}, {"time": 919, "pitch": 47, "duration": 15, "velocity": 67}, {"time": 925, "pitch": 59, "duration": 7, "velocity": 50}, {"time": 931, "pitch": 62, "duration": 12, "velocity": 72}, {"time": 931, "pitch": 66, "duration": 12, "velocity": 95}, {"time": 937, "pitch": 59, "duration": 7, "velocity": 64}, {"time": 943, "pitch": 43, "duration": 15, "velocity": 71}, {"time": 955, "pitch": 59, "duration": 5, "velocity": 86}, {"time": 955, "pitch": 62, "duration": 5, "velocity": 83}, {"time": 961, "pitch": 43, "duration": 5, "velocity": 78}, {"time": 967, "pitch": 40, "duration": 14, "velocity": 75}, {"time": 973, "pitch": 59, "duration": 4, "velocity": 39}, {"time": 979, "pitch": 64, "duration": 11, "velocity": 81}, {"time": 979, "pitch": 67, "duration": 12, "velocity": 85}, {"time": 985, "pitch": 40, "duration": 6, "velocity": 66}, {"time": 991, "pitch": 47, "duration": 15, "velocity": 69}, {"time": 1003, "pitch": 59, "duration": 14, "velocity": 59}, {"time": 1003, "pitch": 62, "duration": 14, "velocity": 81}, {"time": 1003, "pitch": 66, "duration": 14, "velocity": 78}, {"time": 1009, "pitch": 47, "duration": 2, "velocity": 89}, {"time": 1015, "pitch": 47, "duration": 15, "velocity": 62}, {"time": 1021, "pitch": 62, "duration": 16, "velocity": 76}, {"time": 1021, "pitch": 66, "duration": 17, "velocity": 99}, {"time": 1027, "pitch": 59, "duration": 11, "velocity": 90}, {"time": 1033, "pitch": 45, "duration": 5, "velocity": 75}, {"time": 1039, "pitch": 43, "duration": 14, "velocity": 58}, {"time": 1051, "pitch": 62, "duration": 11, "velocity": 71}, {"time": 1051, "pitch": 67, "duration": 13, "velocity": 76}, {"time": 1051, "pitch": 71, "duration": 13, "velocity": 70}, {"time": 1057, "pitch": 43, "duration": 5, "velocity": 76}, {"time": 1063, "pitch": 40, "duration": 17, "velocity": 74}, {"time": 1069, "pitch": 64, "duration": 7, "velocity": 62}, {"time": 1075, "pitch": 67, "duration": 12, "velocity": 60}, {"time": 1075, "pitch": 71, "duration": 12, "velocity": 76}, {"time": 1081, "pitch": 64, "duration": 7, "velocity": 57}, {"time": 1087, "pitch": 38, "duration": 15, "velocity": 66}, {"time": 1093, "pitch": 50, "duration": 10, "velocity": 44}, {"time": 1099, "pitch": 62, "duration": 12, "velocity": 89}, {"time": 1099, "pitch": 66, "duration": 12, "velocity": 89}, {"time": 1105, "pitch": 57, "duration": 6, "velocity": 66}, {"time": 1111, "pitch": 36, "duration": 7, "velocity": 81}, {"time": 1111, "pitch": 48, "duration": 17, "velocity": 71}, {"time": 1117, "pitch": 55, "duration": 10, "velocity": 38}, {"time": 1123, "pitch": 64, "duration": 11, "velocity": 82}, {"time": 1123, "pitch": 67, "duration": 11, "velocity": 83}, {"time": 1129, "pitch": 36, "duration": 6, "velocity": 82}, {"time": 1129, "pitch": 60, "duration": 7, "velocity": 64}, {"time": 1135, "pitch": 35, "duration": 10, "velocity": 73}, {"time": 1135, "pitch": 47, "duration": 22, "velocity": 72}, {"time": 1141, "pitch": 55, "duration": 6, "velocity": 52}, {"time": 1147, "pitch": 59, "duration": 12, "velocity": 82}, {"time": 1147, "pitch": 62, "duration": 12, "velocity": 90}, {"time": 1153, "pitch": 35, "duration": 4, "velocity": 75}, {"time": 1153, "pitch": 55, "duration": 6, "velocity": 58}, {"time": 1159, "pitch": 33, "duration": 10, "velocity": 76}, {"time": 1159, "pitch": 45, "duration": 17, "velocity": 69}, {"time": 1165, "pitch": 57, "duration": 7, "velocity": 52}, {"time": 1171, "pitch": 61, "duration": 12, "velocity": 83}, {"time": 1171, "pitch": 64, "duration": 12, "velocity": 75}, {"time": 1177, "pitch": 33, "duration": 4, "velocity": 88}, {"time": 1177, "pitch": 57, "duration": 8, "velocity": 55}, {"time": 1183, "pitch": 35, "duration": 14, "velocity": 68}, {"time": 1183, "pitch": 47, "duration": 14, "velocity": 82}, {"time": 1195, "pitch": 59, "duration": 5, "velocity": 69}, {"time": 1195, "pitch": 62, "duration": 5, "velocity": 83}, {"time": 1195, "pitch": 66, "duration": 6, "velocity": 85}, {"time": 1201, "pitch": 35, "duration": 3, "velocity": 66}, {"time": 1201, "pitch": 47, "duration": 3, "velocity": 81}, {"time": 1207, "pitch": 35, "duration": 16, "velocity": 67}, {"time": 1207, "pitch": 47, "duration": 14, "velocity": 79}, {"time": 1219, "pitch": 62, "duration": 12, "velocity": 86}, {"time": 1219, "pitch": 66, "duration": 8, "velocity": 96}, {"time": 1225, "pitch": 47, "duration": 5, "velocity": 78}, {"time": 1231, "pitch": 40, "duration": 41, "velocity": 66}, {"time": 1231, "pitch": 52, "duration": 40, "velocity": 88}, {"time": 1231, "pitch": 59, "duration": 40, "velocity": 72}, {"time": 1231, "pitch": 64, "duration": 40, "velocity": 73}, {"time": 1231, "pitch": 67, "duration": 40, "velocity": 70}, {"time": 1279, "pitch": 40, "duration": 15, "velocity": 67}, {"time": 1279, "pitch": 52, "duration": 15, "velocity": 82}, {"time": 1291, "pitch": 59, "duration": 15, "velocity": 74}, {"time": 1291, "pitch": 64, "duration": 15, "velocity": 82}, {"time": 1291, "pitch": 67, "duration": 15, "velocity": 81}, {"time": 1297, "pitch": 40, "duration": 2, "velocity": 54}, {"time": 1297, "pitch": 52, "duration": 2, "velocity": 77}, {"time": 1303, "pitch": 40, "duration": 17, "velocity": 71}, {"time": 1303, "pitch": 52, "duration": 17, "velocity": 85}, {"time": 1309, "pitch": 64, "duration": 10, "velocity": 93}, {"time": 1309, "pitch": 67, "duration": 10, "velocity": 93}, {"time": 1321, "pitch": 59, "duration": 6, "velocity": 88}, {"time": 1321, "pitch": 64, "duration": 5, "velocity": 89}, {"time": 1321, "pitch": 67, "duration": 5, "velocity": 73}, {"time": 1324, "pitch": 37, "duration": 1, "velocity": 40}, {"time": 1327, "pitch": 37, "duration": 15, "velocity": 76}, {"time": 1327, "pitch": 49, "duration": 15, "velocity": 70}, {"time": 1339, "pitch": 61, "duration": 14, "velocity": 107}, {"time": 1339, "pitch": 64, "duration": 14, "velocity": 93}, {"time": 1339, "pitch": 67, "duration": 14, "velocity": 89}, {"time": 1345, "pitch": 37, "duration": 3, "velocity": 73}, {"time": 1345, "pitch": 49, "duration": 3, "velocity": 63}, {"time": 1351, "pitch": 37, "duration": 13, "velocity": 86}, {"time": 1351, "pitch": 49, "duration": 11, "velocity": 69}, {"time": 1357, "pitch": 61, "duration": 10, "velocity": 112}, {"time": 1357, "pitch": 64, "duration": 10, "velocity": 96}, {"time": 1357, "pitch": 67, "duration": 9, "velocity": 85}, {"time": 1369, "pitch": 61, "duration": 4, "velocity": 96}, {"time": 1369, "pitch": 64, "duration": 4, "velocity": 66}, {"time": 1369, "pitch": 67, "duration": 5, "velocity": 70}, {"time": 1375, "pitch": 36, "duration": 15, "velocity": 59}, {"time": 1375, "pitch": 48, "duration": 15, "velocity": 96}, {"time": 1375, "pitch": 60, "duration": 10, "velocity": 81}, {"time": 1387, "pitch": 60, "duration": 15, "velocity": 89}, {"time": 1387, "pitch": 64, "duration": 15, "velocity": 90}, {"time": 1387, "pitch": 67, "duration": 16, "velocity": 89}, {"time": 1393, "pitch": 36, "duration": 3, "velocity": 63}, {"time": 1393, "pitch": 48, "duration": 3, "velocity": 63}, {"time": 1399, "pitch": 36, "duration": 15, "velocity": 71}, {"time": 1399, "pitch": 48, "duration": 13, "velocity": 79}, {"time": 1405, "pitch": 60, "duration": 7, "velocity": 68}, {"time": 1411, "pitch": 64, "duration": 9, "velocity": 99}, {"time": 1411, "pitch": 67, "duration": 10, "velocity": 95}, {"time": 1417, "pitch": 60, "duration": 6, "velocity": 69}, {"time": 1423, "pitch": 35, "duration": 14, "velocity": 66}, {"time": 1423, "pitch": 47, "duration": 14, "velocity": 83}, {"time": 1435, "pitch": 59, "duration": 14, "velocity": 81}, {"time": 1435, "pitch": 62, "duration": 14, "velocity": 86}, {"time": 1435, "pitch": 66, "duration": 14, "velocity": 90}, {"time": 1441, "pitch": 35, "duration": 2, "velocity": 57}, {"time": 1441, "pitch": 47, "duration": 2, "velocity": 69}, {"time": 1447, "pitch": 35, "duration": 8, "velocity": 71}, {"time": 1447, "pitch": 47, "duration": 12, "velocity": 83}, {"time": 1453, "pitch": 59, "duration": 10, "velocity": 85}, {"time": 1453, "pitch": 62, "duration": 10, "velocity": 96}, {"time": 1453, "pitch": 66, "duration": 10, "velocity": 107}, {"time": 1465, "pitch": 59, "duration": 5, "velocity": 78}, {"time": 1465, "pitch": 62, "duration": 5, "velocity": 96}, {"time": 1465, "pitch": 66, "duration": 5, "velocity": 99}, {"time": 1471, "pitch": 40, "duration": 14, "velocity": 69}, {"time": 1471, "pitch": 52, "duration": 14, "velocity": 88}, {"time": 1483, "pitch": 59, "duration": 14, "velocity": 86}, {"time": 1483, "pitch": 64, "duration": 14, "velocity": 90}, {"time": 1483, "pitch": 67, "duration": 14, "velocity": 92}, {"time": 1489, "pitch": 40, "duration": 2, "velocity": 63}, {"time": 1489, "pitch": 52, "duration": 2, "velocity": 65}, {"time": 1495, "pitch": 40, "duration": 14, "velocity": 75}, {"time": 1495, "pitch": 52, "duration": 13, "velocity": 86}, {"time": 1501, "pitch": 59, "duration": 10, "velocity": 85}, {"time": 1501, "pitch": 64, "duration": 10, "velocity": 88}, {"time": 1501, "pitch": 67, "duration": 10, "velocity": 83}, {"time": 1513, "pitch": 59, "duration": 6, "velocity": 83}, {"time": 1513, "pitch": 64, "duration": 6, "velocity": 90}, {"time": 1513, "pitch": 67, "duration": 5, "velocity": 85}, {"time": 1519, "pitch": 37, "duration": 14, "velocity": 78}, {"time": 1519, "pitch": 49, "duration": 14, "velocity": 65}, {"time": 1531, "pitch": 61, "duration": 14, "velocity": 102}, {"time": 1531, "pitch": 64, "duration": 14, "velocity": 85}, {"time": 1531, "pitch": 67, "duration": 14, "velocity": 83}, {"time": 1537, "pitch": 37, "duration": 2, "velocity": 70}, {"time": 1537, "pitch": 49, "duration": 2, "velocity": 81}, {"time": 1543, "pitch": 37, "duration": 10, "velocity": 79}, {"time": 1543, "pitch": 49, "duration": 9, "velocity": 81}, {"time": 1549, "pitch": 61, "duration": 10, "velocity": 107}, {"time": 1549, "pitch": 64, "duration": 10, "velocity": 92}, {"time": 1549, "pitch": 67, "duration": 9, "velocity": 89}, {"time": 1561, "pitch": 61, "duration": 4, "velocity": 97}, {"time": 1561, "pitch": 64, "duration": 4, "velocity": 77}, {"time": 1561, "pitch": 67, "duration": 6, "velocity": 71}, {"time": 1567, "pitch": 36, "duration": 14, "velocity": 60}, {"time": 1567, "pitch": 48, "duration": 11, "velocity": 78}, {"time": 1579, "pitch": 64, "duration": 11, "velocity": 97}, {"time": 1579, "pitch": 67, "duration": 12, "velocity": 99}, {"time": 1585, "pitch": 60, "duration": 6, "velocity": 89}, {"time": 1591, "pitch": 35, "duration": 16, "velocity": 63}, {"time": 1591, "pitch": 47, "duration": 13, "velocity": 79}, {"time": 1603, "pitch": 62, "duration": 13, "velocity": 95}, {"time": 1603, "pitch": 66, "duration": 13, "velocity": 107}, {"time": 1609, "pitch": 59, "duration": 7, "velocity": 58}, {"time": 1615, "pitch": 33, "duration": 14, "velocity": 82}, {"time": 1621, "pitch": 45, "duration": 7, "velocity": 75}, {"time": 1627, "pitch": 60, "duration": 18, "velocity": 95}, {"time": 1627, "pitch": 64, "duration": 18, "velocity": 90}, {"time": 1633, "pitch": 57, "duration": 8, "velocity": 51}, {"time": 1639, "pitch": 48, "duration": 14, "velocity": 73}, {"time": 1651, "pitch": 60, "duration": 7, "velocity": 86}, {"time": 1651, "pitch": 64, "duration": 7, "velocity": 82}, {"time": 1663, "pitch": 36, "duration": 39, "velocity": 69}, {"time": 1669, "pitch": 48, "duration": 15, "velocity": 86}, {"time": 1675, "pitch": 60, "duration": 8, "velocity": 100}, {"time": 1681, "pitch": 63, "duration": 4, "velocity": 93}, {"time": 1681, "pitch": 67, "duration": 4, "velocity": 86}, {"time": 1687, "pitch": 48, "duration": 13, "velocity": 72}, {"time": 1687, "pitch": 60, "duration": 11, "velocity": 88}, {"time": 1687, "pitch": 63, "duration": 10, "velocity": 89}, {"time": 1687, "pitch": 67, "duration": 10, "velocity": 73}, {"time": 1699, "pitch": 63, "duration": 9, "velocity": 88}, {"time": 1699, "pitch": 67, "duration": 9, "velocity": 83}, {"time": 1705, "pitch": 60, "duration": 7, "velocity": 56}, {"time": 1711, "pitch": 35, "duration": 14, "velocity": 67}, {"time": 1723, "pitch": 59, "duration": 17, "velocity": 76}, {"time": 1723, "pitch": 62, "duration": 17, "velocity": 88}, {"time": 1723, "pitch": 66, "duration": 20, "velocity": 97}, {"time": 1729, "pitch": 35, "duration": 2, "velocity": 52}, {"time": 1729, "pitch": 47, "duration": 3, "velocity": 48}, {"time": 1735, "pitch": 35, "duration": 13, "velocity": 66}, {"time": 1735, "pitch": 47, "duration": 22, "velocity": 65}, {"time": 1747, "pitch": 62, "duration": 13, "velocity": 89}, {"time": 1747, "pitch": 66, "duration": 6, "velocity": 102}, {"time": 1753, "pitch": 59, "duration": 9, "velocity": 56}, {"time": 1759, "pitch": 40, "duration": 14, "velocity": 78}, {"time": 1765, "pitch": 47, "duration": 9, "velocity": 44}, {"time": 1771, "pitch": 59, "duration": 14, "velocity": 73}, {"time": 1771, "pitch": 64, "duration": 14, "velocity": 81}, {"time": 1771, "pitch": 67, "duration": 14, "velocity": 76}, {"time": 1777, "pitch": 40, "duration": 2, "velocity": 64}, {"time": 1783, "pitch": 40, "duration": 15, "velocity": 72}, {"time": 1783, "pitch": 52, "duration": 13, "velocity": 82}, {"time": 1795, "pitch": 64, "duration": 7, "velocity": 99}, {"time": 1795, "pitch": 67, "duration": 7, "velocity": 96}, {"time": 1801, "pitch": 59, "duration": 4, "velocity": 67}, {"time": 1807, "pitch": 38, "duration": 15, "velocity": 68}, {"time": 1807, "pitch": 50, "duration": 15, "velocity": 86}, {"time": 1807, "pitch": 57, "duration": 10, "velocity": 86}, {"time": 1807, "pitch": 62, "duration": 10, "velocity": 100}, {"time": 1807, "pitch": 66, "duration": 10, "velocity": 107}, {"time": 1819, "pitch": 62, "duration": 14, "velocity": 100}, {"time": 1819, "pitch": 66, "duration": 20, "velocity": 112}, {"time": 1825, "pitch": 38, "duration": 2, "velocity": 59}, {"time": 1825, "pitch": 50, "duration": 2, "velocity": 82}, {"time": 1831, "pitch": 38, "duration": 12, "velocity": 72}, {"time": 1831, "pitch": 50, "duration": 11, "velocity": 92}, {"time": 1837, "pitch": 57, "duration": 7, "velocity": 62}, {"time": 1837, "pitch": 62, "duration": 1, "velocity": 30}, {"time": 1843, "pitch": 62, "duration": 2, "velocity": 100}, {"time": 1843, "pitch": 66, "duration": 2, "velocity": 100}, {"time": 1855, "pitch": 36, "duration": 11, "velocity": 72}, {"time": 1855, "pitch": 48, "duration": 11, "velocity": 79}, {"time": 1855, "pitch": 60, "duration": 12, "velocity": 82}, {"time": 1855, "pitch": 64, "duration": 12, "velocity": 92}, {"time": 1855, "pitch": 67, "duration": 12, "velocity": 72}, {"time": 1855, "pitch": 72, "duration": 12, "velocity": 75}, {"time": 1897, "pitch": 40, "duration": 1, "velocity": 77}, {"time": 1903, "pitch": 40, "duration": 48, "velocity": 58}, {"time": 1903, "pitch": 47, "duration": 48, "velocity": 60}, {"time": 1903, "pitch": 52, "duration": 41, "velocity": 69}, {"time": 1903, "pitch": 59, "duration": 34, "velocity": 79}, {"time": 1903, "pitch": 64, "duration": 34, "velocity": 81}, {"time": 1903, "pitch": 67, "duration": 34, "velocity": 72}, {"time": 1939, "pitch": 64, "duration": 12, "velocity": 88}, {"time": 1939, "pitch": 67, "duration": 12, "velocity": 86}, {"time": 1945, "pitch": 59, "duration": 7, "velocity": 70}, {"time": 1951, "pitch": 43, "duration": 15, "velocity": 71}, {"time": 1951, "pitch": 62, "duration": 13, "velocity": 89}, {"time": 1951, "pitch": 67, "duration": 1, "velocity": 89}, {"time": 1951, "pitch": 71, "duration": 12, "velocity": 92}, {"time": 1963, "pitch": 67, "duration": 1, "velocity": 89}, {"time": 1963, "pitch": 71, "duration": 1, "velocity": 85}, {"time": 1969, "pitch": 43, "duration": 2, "velocity": 65}, {"time": 1975, "pitch": 43, "duration": 17, "velocity": 75}, {"time": 1981, "pitch": 62, "duration": 7, "velocity": 36}, {"time": 1987, "pitch": 67, "duration": 9, "velocity": 85}, {"time": 1987, "pitch": 71, "duration": 15, "velocity": 83}, {"time": 1993, "pitch": 62, "duration": 7, "velocity": 66}, {"time": 1999, "pitch": 42, "duration": 14, "velocity": 97}, {"time": 2011, "pitch": 66, "duration": 17, "velocity": 93}, {"time": 2011, "pitch": 71, "duration": 21, "velocity": 82}, {"time": 2011, "pitch": 74, "duration": 19, "velocity": 54}, {"time": 2017, "pitch": 42, "duration": 2, "velocity": 82}, {"time": 2023, "pitch": 42, "duration": 15, "velocity": 67}, {"time": 2035, "pitch": 66, "duration": 12, "velocity": 89}, {"time": 2035, "pitch": 71, "duration": 13, "velocity": 79}, {"time": 2035, "pitch": 74, "duration": 12, "velocity": 76}, {"time": 2047, "pitch": 40, "duration": 15, "velocity": 77}, {"time": 2059, "pitch": 64, "duration": 13, "velocity": 74}, {"time": 2059, "pitch": 67, "duration": 12, "velocity": 79}, {"time": 2059, "pitch": 71, "duration": 13, "velocity": 77}, {"time": 2065, "pitch": 40, "duration": 3, "velocity": 69}, {"time": 2065, "pitch": 52, "duration": 2, "velocity": 49}, {"time": 2071, "pitch": 40, "duration": 12, "velocity": 56}, {"time": 2071, "pitch": 52, "duration": 17, "velocity": 60}, {"time": 2083, "pitch": 64, "duration": 12, "velocity": 86}, {"time": 2083, "pitch": 67, "duration": 13, "velocity": 86}, {"time": 2089, "pitch": 59, "duration": 8, "velocity": 46}, {"time": 2095, "pitch": 45, "duration": 14, "velocity": 74}, {"time": 2107, "pitch": 60, "duration": 20, "velocity": 82}, {"time": 2107, "pitch": 64, "duration": 20, "velocity": 82}, {"time": 2113, "pitch": 45, "duration": 2, "velocity": 66}, {"time": 2119, "pitch": 45, "duration": 17, "velocity": 74}, {"time": 2131, "pitch": 60, "duration": 5, "velocity": 71}, {"time": 2131, "pitch": 64, "duration": 7, "velocity": 72}, {"time": 2143, "pitch": 49, "duration": 15, "velocity": 70}, {"time": 2143, "pitch": 57, "duration": 34, "velocity": 72}, {"time": 2143, "pitch": 61, "duration": 34, "velocity": 67}, {"time": 2143, "pitch": 64, "duration": 33, "velocity": 72}, {"time": 2161, "pitch": 49, "duration": 3, "velocity": 73}, {"time": 2167, "pitch": 49, "duration": 15, "velocity": 86}, {"time": 2179, "pitch": 61, "duration": 13, "velocity": 88}, {"time": 2179, "pitch": 64, "duration": 11, "velocity": 75}, {"time": 2185, "pitch": 57, "duration": 7, "velocity": 59}, {"time": 2191, "pitch": 38, "duration": 15, "velocity": 59}, {"time": 2203, "pitch": 57, "duration": 20, "velocity": 70}, {"time": 2203, "pitch": 62, "duration": 21, "velocity": 78}, {"time": 2203, "pitch": 66, "duration": 21, "velocity": 72}, {"time": 2209, "pitch": 38, "duration": 2, "velocity": 60}, {"time": 2209, "pitch": 50, "duration": 2, "velocity": 68}, {"time": 2215, "pitch": 38, "duration": 14, "velocity": 74}, {"time": 2215, "pitch": 50, "duration": 15, "velocity": 93}, {"time": 2227, "pitch": 62, "duration": 14, "velocity": 75}, {"time": 2227, "pitch": 66, "duration": 14, "velocity": 82}, {"time": 2239, "pitch": 40, "duration": 14, "velocity": 83}, {"time": 2245, "pitch": 47, "duration": 7, "velocity": 38}, {"time": 2251, "pitch": 59, "duration": 84, "velocity": 67}, {"time": 2251, "pitch": 64, "duration": 57, "velocity": 65}, {"time": 2251, "pitch": 67, "duration": 57, "velocity": 66}, {"time": 2257, "pitch": 40, "duration": 2, "velocity": 47}, {"time": 2257, "pitch": 47, "duration": 2, "velocity": 55}, {"time": 2257, "pitch": 52, "duration": 2, "velocity": 69}, {"time": 2263, "pitch": 40, "duration": 21, "velocity": 62}, {"time": 2263, "pitch": 47, "duration": 24, "velocity": 46}, {"time": 2263, "pitch": 52, "duration": 52, "velocity": 56}, {"time": 2287, "pitch": 40, "duration": 42, "velocity": 65}, {"time": 2305, "pitch": 47, "duration": 30, "velocity": 39}, {"time": 2311, "pitch": 67, "duration": 24, "velocity": 85}, {"time": 2317, "pitch": 52, "duration": 8, "velocity": 50}, {"time": 2335, "pitch": 40, "duration": 14, "velocity": 90}, {"time": 2347, "pitch": 59, "duration": 12, "velocity": 58}, {"time": 2347, "pitch": 64, "duration": 12, "velocity": 72}, {"time": 2347, "pitch": 67, "duration": 12, "velocity": 67}, {"time": 2353, "pitch": 40, "duration": 6, "velocity": 72}, {"time": 2359, "pitch": 47, "duration": 15, "velocity": 66}, {"time": 2371, "pitch": 62, "duration": 16, "velocity": 76}, {"time": 2371, "pitch": 66, "duration": 11, "velocity": 93}, {"time": 2377, "pitch": 47, "duration": 6, "velocity": 68}, {"time": 2383, "pitch": 40, "duration": 14, "velocity": 66}, {"time": 2395, "pitch": 59, "duration": 12, "velocity": 71}, {"time": 2395, "pitch": 64, "duration": 11, "velocity": 75}, {"time": 2395, "pitch": 67, "duration": 11, "velocity": 76}, {"time": 2401, "pitch": 40, "duration": 6, "velocity": 49}, {"time": 2407, "pitch": 47, "duration": 15, "velocity": 67}, {"time": 2413, "pitch": 59, "duration": 7, "velocity": 50}, {"time": 2419, "pitch": 62, "duration": 12, "velocity": 72}, {"time": 2419, "pitch": 66, "duration": 12, "velocity": 95}, {"time": 2425, "pitch": 59, "duration": 7, "velocity": 64}, {"time": 2431, "pitch": 43, "duration": 15, "velocity": 71}, {"time": 2443, "pitch": 59, "duration": 5, "velocity": 86}, {"time": 2443, "pitch": 62, "duration": 5, "velocity": 83}, {"time": 2449, "pitch": 43, "duration": 5, "velocity": 78}, {"time": 2455, "pitch": 40, "duration": 14, "velocity": 75}, {"time": 2461, "pitch": 59, "duration": 4, "velocity": 39}, {"time": 2467, "pitch": 64, "duration": 11, "velocity": 81}, {"time": 2467, "pitch": 67, "duration": 12, "velocity": 85}, {"time": 2473, "pitch": 40, "duration": 6, "velocity": 66}, {"time": 2479, "pitch": 47, "duration": 15, "velocity": 69}, {"time": 2491, "pitch": 59, "duration": 14, "velocity": 59}, {"time": 2491, "pitch": 62, "duration": 14, "velocity": 81}, {"time": 2491, "pitch": 66, "duration": 14, "velocity": 78}, {"time": 2497, "pitch": 47, "duration": 2, "velocity": 89}, {"time": 2503, "pitch": 47, "duration": 15, "velocity": 62}, {"time": 2509, "pitch": 62, "duration": 16, "velocity": 76}, {"time": 2509, "pitch": 66, "duration": 17, "velocity": 99}, {"time": 2515, "pitch": 59, "duration": 11, "velocity": 90}, {"time": 2521, "pitch": 45, "duration": 5, "velocity": 75}, {"time": 2527, "pitch": 43, "duration": 14, "velocity": 58}, {"time": 2539, "pitch": 62, "duration": 11, "velocity": 71}, {"time": 2539, "pitch": 67, "duration": 13, "velocity": 76}, {"time": 2539, "pitch": 71, "duration": 13, "velocity": 70}, {"time": 2545, "pitch": 43, "duration": 5, "velocity": 76}, {"time": 2551, "pitch": 40, "duration": 17, "velocity": 74}, {"time": 2557, "pitch": 64, "duration": 7, "velocity": 62}, {"time": 2563, "pitch": 67, "duration": 12, "velocity": 60}, {"time": 2563, "pitch": 71, "duration": 12, "velocity": 76}, {"time": 2569, "pitch": 64, "duration": 7, "velocity": 57}, {"time": 2575, "pitch": 38, "duration": 15, "velocity": 66}, {"time": 2581, "pitch": 50, "duration": 10, "velocity": 44}, {"time": 2587, "pitch": 62, "duration": 12, "velocity": 89}, {"time": 2587, "pitch": 66, "duration": 12, "velocity": 89}, {"time": 2593, "pitch": 57, "duration": 6, "velocity": 66}, {"time": 2599, "pitch": 36, "duration": 7, "velocity": 81}, {"time": 2599, "pitch": 48, "duration": 17, "velocity": 71}, {"time": 2605, "pitch": 55, "duration": 10, "velocity": 38}, {"time": 2611, "pitch": 64, "duration": 11, "velocity": 82}, {"time": 2611, "pitch": 67, "duration": 11, "velocity": 83}, {"time": 2617, "pitch": 36, "duration": 6, "velocity": 82}, {"time": 2617, "pitch": 60, "duration": 7, "velocity": 64}, {"time": 2623, "pitch": 35, "duration": 10, "velocity": 73}, {"time": 2623, "pitch": 47, "duration": 22, "velocity": 72}, {"time": 2629, "pitch": 55, "duration": 6, "velocity": 52}, {"time": 2635, "pitch": 59, "duration": 12, "velocity": 82}, {"time": 2635, "pitch": 62, "duration": 12, "velocity": 90}, {"time": 2641, "pitch": 35, "duration": 4, "velocity": 75}, {"time": 2641, "pitch": 55, "duration": 6, "velocity": 58}, {"time": 2647, "pitch": 33, "duration": 10, "velocity": 76}, {"time": 2647, "pitch": 45, "duration": 17, "velocity": 69}, {"time": 2653, "pitch": 57, "duration": 7, "velocity": 52}, {"time": 2659, "pitch": 61, "duration": 12, "velocity": 83}, {"time": 2659, "pitch": 64, "duration": 12, "velocity": 75}, {"time": 2665, "pitch": 33, "duration": 4, "velocity": 88}, {"time": 2665, "pitch": 57, "duration": 8, "velocity": 55}, {"time": 2671, "pitch": 38, "duration": 14, "velocity": 74}, {"time": 2671, "pitch": 50, "duration": 14, "velocity": 54}, {"time": 2677, "pitch": 57, "duration": 21, "velocity": 44}, {"time": 2683, "pitch": 62, "duration": 16, "velocity": 72}, {"time": 2683, "pitch": 66, "duration": 15, "velocity": 86}, {"time": 2689, "pitch": 38, "duration": 2, "velocity": 65}, {"time": 2689, "pitch": 50, "duration": 2, "velocity": 85}, {"time": 2695, "pitch": 38, "duration": 21, "velocity": 79}, {"time": 2695, "pitch": 50, "duration": 20, "velocity": 81}, {"time": 2701, "pitch": 62, "duration": 8, "velocity": 77}, {"time": 2701, "pitch": 66, "duration": 8, "velocity": 83}, {"time": 2707, "pitch": 57, "duration": 12, "velocity": 85}, {"time": 2713, "pitch": 62, "duration": 6, "velocity": 81}, {"time": 2713, "pitch": 66, "duration": 6, "velocity": 96}, {"time": 2719, "pitch": 40, "duration": 14, "velocity": 90}, {"time": 2731, "pitch": 59, "duration": 12, "velocity": 58}, {"time": 2731, "pitch": 64, "duration": 12, "velocity": 72}, {"time": 2731, "pitch": 67, "duration": 12, "velocity": 67}, {"time": 2737, "pitch": 40, "duration": 6, "velocity": 72}, {"time": 2743, "pitch": 47, "duration": 15, "velocity": 66}, {"time": 2755, "pitch": 62, "duration": 16, "velocity": 76}, {"time": 2755, "pitch": 66, "duration": 11, "velocity": 93}, {"time": 2761, "pitch": 47, "duration": 6, "velocity": 68}, {"time": 2767, "pitch": 40, "duration": 14, "velocity": 66}, {"time": 2779, "pitch": 59, "duration": 12, "velocity": 71}, {"time": 2779, "pitch": 64, "duration": 11, "velocity": 75}, {"time": 2779, "pitch": 67, "duration": 11, "velocity": 76}, {"time": 2785, "pitch": 40, "duration": 6, "velocity": 49}, {"time": 2791, "pitch": 47, "duration": 15, "velocity": 67}, {"time": 2797, "pitch": 59, "duration": 7, "velocity": 50}, {"time": 2803, "pitch": 62, "duration": 12, "velocity": 72}, {"time": 2803, "pitch": 66, "duration": 12, "velocity": 95}, {"time": 2809, "pitch": 59, "duration": 7, "velocity": 64}, {"time": 2815, "pitch": 43, "duration": 15, "velocity": 71}, {"time": 2827, "pitch": 59, "duration": 5, "velocity": 86}, {"time": 2827, "pitch": 62, "duration": 5, "velocity": 83}, {"time": 2833, "pitch": 43, "duration": 5, "velocity": 78}, {"time": 2839, "pitch": 40, "duration": 14, "velocity": 75}, {"time": 2845, "pitch": 59, "duration": 4, "velocity": 39}, {"time": 2851, "pitch": 64, "duration": 11, "velocity": 81}, {"time": 2851, "pitch": 67, "duration": 12, "velocity": 85}, {"time": 2857, "pitch": 40, "duration": 6, "velocity": 66}, {"time": 2863, "pitch": 47, "duration": 15, "velocity": 69}, {"time": 2875, "pitch": 59, "duration": 14, "velocity": 59}, {"time": 2875, "pitch": 62, "duration": 14, "velocity": 81}, {"time": 2875, "pitch": 66, "duration": 14, "velocity": 78}, {"time": 2881, "pitch": 47, "duration": 2, "velocity": 89}, {"time": 2887, "pitch": 47, "duration": 15, "velocity": 62}, {"time": 2893, "pitch": 62, "duration": 16, "velocity": 76}, {"time": 2893, "pitch": 66, "duration": 17, "velocity": 99}, {"time": 2899, "pitch": 59, "duration": 11, "velocity": 90}, {"time": 2905, "pitch": 45, "duration": 5, "velocity": 75}, {"time": 2911, "pitch": 43, "duration": 14, "velocity": 58}, {"time": 2923, "pitch": 62, "duration": 11, "velocity": 71}, {"time": 2923, "pitch": 67, "duration": 13, "velocity": 76}, {"time": 2923, "pitch": 71, "duration": 13, "velocity": 70}, {"time": 2929, "pitch": 43, "duration": 5, "velocity": 76}, {"time": 2935, "pitch": 40, "duration": 17, "velocity": 74}, {"time": 2941, "pitch": 64, "duration": 7, "velocity": 62}, {"time": 2947, "pitch": 67, "duration": 12, "velocity": 60}, {"time": 2947, "pitch": 71, "duration": 12, "velocity": 76}, {"time": 2953, "pitch": 64, "duration": 7, "velocity": 57}, {"time": 2959, "pitch": 38, "duration": 15, "velocity": 66}, {"time": 2965, "pitch": 50, "duration": 10, "velocity": 44}, {"time": 2971, "pitch": 62, "duration": 12, "velocity": 89}, {"time": 2971, "pitch": 66, "duration": 12, "velocity": 89}, {"time": 2977, "pitch": 57, "duration": 6, "velocity": 66}, {"time": 2983, "pitch": 36, "duration": 7, "velocity": 81}, {"time": 2983, "pitch": 48, "duration": 17, "velocity": 71}, {"time": 2989, "pitch": 55, "duration": 10, "velocity": 38}, {"time": 2995, "pitch": 64, "duration": 11, "velocity": 82}, {"time": 2995, "pitch": 67, "duration": 11, "velocity": 83}, {"time": 3001, "pitch": 36, "duration": 6, "velocity": 82}, {"time": 3001, "pitch": 60, "duration": 7, "velocity": 64}, {"time": 3007, "pitch": 35, "duration": 10, "velocity": 73}, {"time": 3007, "pitch": 47, "duration": 22, "velocity": 72}, {"time": 3013, "pitch": 55, "duration": 6, "velocity": 52}, {"time": 3019, "pitch": 59, "duration": 12, "velocity": 82}, {"time": 3019, "pitch": 62, "duration": 12, "velocity": 90}, {"time": 3025, "pitch": 35, "duration": 4, "velocity": 75}, {"time": 3025, "pitch": 55, "duration": 6, "velocity": 58}, {"time": 3031, "pitch": 33, "duration": 10, "velocity": 76}, {"time": 3031, "pitch": 45, "duration": 17, "velocity": 69}, {"time": 3037, "pitch": 57, "duration": 7, "velocity": 52}, {"time": 3043, "pitch": 61, "duration": 12, "velocity": 83}, {"time": 3043, "pitch": 64, "duration": 12, "velocity": 75}, {"time": 3049, "pitch": 33, "duration": 4, "velocity": 88}, {"time": 3049, "pitch": 57, "duration": 8, "velocity": 55}, {"time": 3055, "pitch": 35, "duration": 14, "velocity": 68}, {"time": 3055, "pitch": 47, "duration": 14, "velocity": 82}, {"time": 3067, "pitch": 59, "duration": 5, "velocity": 69}, {"time": 3067, "pitch": 62, "duration": 5, "velocity": 83}, {"time": 3067, "pitch": 66, "duration": 6, "velocity": 85}, {"time": 3073, "pitch": 35, "duration": 3, "velocity": 66}, {"time": 3073, "pitch": 47, "duration": 3, "velocity": 81}, {"time": 3079, "pitch": 35, "duration": 16, "velocity": 67}, {"time": 3079, "pitch": 47, "duration": 14, "velocity": 79}, {"time": 3091, "pitch": 62, "duration": 12, "velocity": 86}, {"time": 3091, "pitch": 66, "duration": 8, "velocity": 96}, {"time": 3097, "pitch": 47, "duration": 5, "velocity": 78}, {"time": 3103, "pitch": 40, "duration": 41, "velocity": 66}, {"time": 3103, "pitch": 52, "duration": 40, "velocity": 88}, {"time": 3103, "pitch": 59, "duration": 40, "velocity": 72}, {"time": 3103, "pitch": 64, "duration": 40, "velocity": 73}, {"time": 3103, "pitch": 67, "duration": 40, "velocity": 70}, {"time": 3151, "pitch": 40, "duration": 15, "velocity": 67}, {"time": 3151, "pitch": 52, "duration": 15, "velocity": 82}, {"time": 3163, "pitch": 59, "duration": 15, "velocity": 74}, {"time": 3163, "pitch": 64, "duration": 15, "velocity": 82}, {"time": 3163, "pitch": 67, "duration": 15, "velocity": 81}, {"time": 3169, "pitch": 40, "duration": 2, "velocity": 54}, {"time": 3169, "pitch": 52, "duration": 2, "velocity": 77}, {"time": 3175, "pitch": 40, "duration": 17, "velocity": 71}, {"time": 3175, "pitch": 52, "duration": 17, "velocity": 85}, {"time": 3181, "pitch": 64, "duration": 10, "velocity": 93}, {"time": 3181, "pitch": 67, "duration": 10, "velocity": 93}, {"time": 3193, "pitch": 59, "duration": 6, "velocity": 88}, {"time": 3193, "pitch": 64, "duration": 5, "velocity": 89}, {"time": 3193, "pitch": 67, "duration": 5, "velocity": 73}, {"time": 3196, "pitch": 37, "duration": 1, "velocity": 40}, {"time": 3199, "pitch": 37, "duration": 15, "velocity": 76}, {"time": 3199, "pitch": 49, "duration": 15, "velocity": 70}, {"time": 3211, "pitch": 61, "duration": 14, "velocity": 107}, {"time": 3211, "pitch": 64, "duration": 14, "velocity": 93}, {"time": 3211, "pitch": 67, "duration": 14, "velocity": 89}, {"time": 3217, "pitch": 37, "duration": 3, "velocity": 73}, {"time": 3217, "pitch": 49, "duration": 3, "velocity": 63}, {"time": 3223, "pitch": 37, "duration": 13, "velocity": 86}, {"time": 3223, "pitch": 49, "duration": 11, "velocity": 69}, {"time": 3229, "pitch": 61, "duration": 10, "velocity": 112}, {"time": 3229, "pitch": 64, "duration": 10, "velocity": 96}, {"time": 3229, "pitch": 67, "duration": 9, "velocity": 85}, {"time": 3241, "pitch": 61, "duration": 4, "velocity": 96}, {"time": 3241, "pitch": 64, "duration": 4, "velocity": 66}, {"time": 3241, "pitch": 67, "duration": 5, "velocity": 70}, {"time": 3247, "pitch": 36, "duration": 15, "velocity": 59}, {"time": 3247, "pitch": 48, "duration": 15, "velocity": 96}, {"time": 3247, "pitch": 60, "duration": 10, "velocity": 81}, {"time": 3259, "pitch": 60, "duration": 15, "velocity": 89}, {"time": 3259, "pitch": 64, "duration": 15, "velocity": 90}, {"time": 3259, "pitch": 67, "duration": 16, "velocity": 89}, {"time": 3265, "pitch": 36, "duration": 3, "velocity": 63}, {"time": 3265, "pitch": 48, "duration": 3, "velocity": 63}, {"time": 3271, "pitch": 36, "duration": 15, "velocity": 71}, {"time": 3271, "pitch": 48, "duration": 13, "velocity": 79}, {"time": 3277, "pitch": 60, "duration": 7, "velocity": 68}, {"time": 3283, "pitch": 64, "duration": 9, "velocity": 99}, {"time": 3283, "pitch": 67, "duration": 10, "velocity": 95}, {"time": 3289, "pitch": 60, "duration": 6, "velocity": 69}, {"time": 3295, "pitch": 35, "duration": 14, "velocity": 66}, {"time": 3295, "pitch": 47, "duration": 14, "velocity": 83}, {"time": 3307, "pitch": 59, "duration": 14, "velocity": 81}, {"time": 3307, "pitch": 62, "duration": 14, "velocity": 86}, {"time": 3307, "pitch": 66, "duration": 14, "velocity": 90}, {"time": 3313, "pitch": 35, "duration": 2, "velocity": 57}, {"time": 3313, "pitch": 47, "duration": 2, "velocity": 69}, {"time": 3319, "pitch": 35, "duration": 8, "velocity": 71}, {"time": 3319, "pitch": 47, "duration": 12, "velocity": 83}, {"time": 3325, "pitch": 59, "duration": 10, "velocity": 85}, {"time": 3325, "pitch": 62, "duration": 10, "velocity": 96}, {"time": 3325, "pitch": 66, "duration": 10, "velocity": 107}, {"time": 3337, "pitch": 59, "duration": 5, "velocity": 78}, {"time": 3337, "pitch": 62, "duration": 5, "velocity": 96}, {"time": 3337, "pitch": 66, "duration": 5, "velocity": 99}, {"time": 3343, "pitch": 40, "duration": 14, "velocity": 69}, {"time": 3343, "pitch": 52, "duration": 14, "velocity": 88}, {"time": 3355, "pitch": 59, "duration": 14, "velocity": 86}, {"time": 3355, "pitch": 64, "duration": 14, "velocity": 90}, {"time": 3355, "pitch": 67, "duration": 14, "velocity": 92}, {"time": 3361, "pitch": 40, "duration": 2, "velocity": 63}, {"time": 3361, "pitch": 52, "duration": 2, "velocity": 65}, {"time": 3367, "pitch": 40, "duration": 14, "velocity": 75}, {"time": 3367, "pitch": 52, "duration": 13, "velocity": 86}, {"time": 3373, "pitch": 59, "duration": 10, "velocity": 85}, {"time": 3373, "pitch": 64, "duration": 10, "velocity": 88}, {"time": 3373, "pitch": 67, "duration": 10, "velocity": 83}, {"time": 3385, "pitch": 59, "duration": 6, "velocity": 83}, {"time": 3385, "pitch": 64, "duration": 6, "velocity": 90}, {"time": 3385, "pitch": 67, "duration": 5, "velocity": 85}, {"time": 3391, "pitch": 37, "duration": 14, "velocity": 78}, {"time": 3391, "pitch": 49, "duration": 14, "velocity": 65}, {"time": 3403, "pitch": 61, "duration": 14, "velocity": 102}, {"time": 3403, "pitch": 64, "duration": 14, "velocity": 85}, {"time": 3403, "pitch": 67, "duration": 14, "velocity": 83}, {"time": 3409, "pitch": 37, "duration": 2, "velocity": 70}, {"time": 3409, "pitch": 49, "duration": 2, "velocity": 81}, {"time": 3415, "pitch": 37, "duration": 10, "velocity": 79}, {"time": 3415, "pitch": 49, "duration": 9, "velocity": 81}, {"time": 3421, "pitch": 61, "duration": 10, "velocity": 107}, {"time": 3421, "pitch": 64, "duration": 10, "velocity": 92}, {"time": 3421, "pitch": 67, "duration": 9, "velocity": 89}, {"time": 3433, "pitch": 61, "duration": 4, "velocity": 97}, {"time": 3433, "pitch": 64, "duration": 4, "velocity": 77}, {"time": 3433, "pitch": 67, "duration": 6, "velocity": 71}, {"time": 3439, "pitch": 36, "duration": 14, "velocity": 60}, {"time": 3439, "pitch": 48, "duration": 11, "velocity": 78}, {"time": 3451, "pitch": 64, "duration": 11, "velocity": 97}, {"time": 3451, "pitch": 67, "duration": 12, "velocity": 99}, {"time": 3457, "pitch": 60, "duration": 6, "velocity": 89}, {"time": 3463, "pitch": 35, "duration": 16, "velocity": 63}, {"time": 3463, "pitch": 47, "duration": 13, "velocity": 79}, {"time": 3475, "pitch": 62, "duration": 13, "velocity": 95}, {"time": 3475, "pitch": 66, "duration": 13, "velocity": 107}, {"time": 3481, "pitch": 59, "duration": 7, "velocity": 58}, {"time": 3487, "pitch": 33, "duration": 14, "velocity": 82}, {"time": 3493, "pitch": 45, "duration": 7, "velocity": 75}, {"time": 3499, "pitch": 60, "duration": 18, "velocity": 95}, {"time": 3499, "pitch": 64, "duration": 18, "velocity": 90}, {"time": 3505, "pitch": 57, "duration": 8, "velocity": 51}, {"time": 3511, "pitch": 48, "duration": 14, "velocity": 73}, {"time": 3523, "pitch": 60, "duration": 7, "velocity": 86}, {"time": 3523, "pitch": 64, "duration": 7, "velocity": 82}, {"time": 3535, "pitch": 36, "duration": 39, "velocity": 69}, {"time": 3541, "pitch": 48, "duration": 15, "velocity": 86}, {"time": 3547, "pitch": 60, "duration": 8, "velocity": 100}, {"time": 3553, "pitch": 63, "duration": 4, "velocity": 93}, {"time": 3553, "pitch": 67, "duration": 4, "velocity": 86}, {"time": 3559, "pitch": 48, "duration": 13, "velocity": 72}, {"time": 3559, "pitch": 60, "duration": 11, "velocity": 88}, {"time": 3559, "pitch": 63, "duration": 10, "velocity": 89}, {"time": 3559, "pitch": 67, "duration": 10, "velocity": 73}, {"time": 3571, "pitch": 63, "duration": 9, "velocity": 88}, {"time": 3571, "pitch": 67, "duration": 9, "velocity": 83}, {"time": 3577, "pitch": 60, "duration": 7, "velocity": 56}, {"time": 3583, "pitch": 35, "duration": 14, "velocity": 67}, {"time": 3595, "pitch": 59, "duration": 17, "velocity": 76}, {"time": 3595, "pitch": 62, "duration": 17, "velocity": 88}, {"time": 3595, "pitch": 66, "duration": 20, "velocity": 97}, {"time": 3601, "pitch": 35, "duration": 2, "velocity": 52}, {"time": 3601, "pitch": 47, "duration": 3, "velocity": 48}, {"time": 3607, "pitch": 35, "duration": 13, "velocity": 66}, {"time": 3607, "pitch": 47, "duration": 22, "velocity": 65}, {"time": 3619, "pitch": 62, "duration": 13, "velocity": 89}, {"time": 3619, "pitch": 66, "duration": 6, "velocity": 102}, {"time": 3625, "pitch": 59, "duration": 9, "velocity": 56}, {"time": 3631, "pitch": 40, "duration": 14, "velocity": 78}, {"time": 3637, "pitch": 47, "duration": 9, "velocity": 44}, {"time": 3643, "pitch": 59, "duration": 14, "velocity": 73}, {"time": 3643, "pitch": 64, "duration": 14, "velocity": 81}, {"time": 3643, "pitch": 67, "duration": 14, "velocity": 76}, {"time": 3649, "pitch": 40, "duration": 2, "velocity": 64}, {"time": 3655, "pitch": 40, "duration": 15, "velocity": 72}, {"time": 3655, "pitch": 52, "duration": 13, "velocity": 82}, {"time": 3667, "pitch": 64, "duration": 7, "velocity": 99}, {"time": 3667, "pitch": 67, "duration": 7, "velocity": 96}, {"time": 3673, "pitch": 59, "duration": 4, "velocity": 67}, {"time": 3679, "pitch": 38, "duration": 15, "velocity": 68}, {"time": 3679, "pitch": 50, "duration": 15, "velocity": 86}, {"time": 3679, "pitch": 57, "duration": 10, "velocity": 86}, {"time": 3679, "pitch": 62, "duration": 10, "velocity": 100}, {"time": 3679, "pitch": 66, "duration": 10, "velocity": 107}, {"time": 3691, "pitch": 62, "duration": 14, "velocity": 100}, {"time": 3691, "pitch": 66, "duration": 20, "velocity": 112}, {"time": 3697, "pitch": 38, "duration": 2, "velocity": 59}, {"time": 3697, "pitch": 50, "duration": 2, "velocity": 82}, {"time": 3703, "pitch": 38, "duration": 12, "velocity": 72}, {"time": 3703, "pitch": 50, "duration": 11, "velocity": 92}, {"time": 3709, "pitch": 57, "duration": 7, "velocity": 62}, {"time": 3709, "pitch": 62, "duration": 1, "velocity": 30}, {"time": 3715, "pitch": 62, "duration": 2, "velocity": 100}, {"time": 3715, "pitch": 66, "duration": 2, "velocity": 100}, {"time": 3727, "pitch": 36, "duration": 11, "velocity": 72}, {"time": 3727, "pitch": 48, "duration": 11, "velocity": 79}, {"time": 3727, "pitch": 60, "duration": 12, "velocity": 82}, {"time": 3727, "pitch": 64, "duration": 12, "velocity": 92}, {"time": 3727, "pitch": 67, "duration": 12, "velocity": 72}, {"time": 3727, "pitch": 72, "duration": 12, "velocity": 75}, {"time": 3769, "pitch": 40, "duration": 1, "velocity": 77}, {"time": 3775, "pitch": 40, "duration": 48, "velocity": 58}, {"time": 3775, "pitch": 47, "duration": 48, "velocity": 60}, {"time": 3775, "pitch": 52, "duration": 41, "velocity": 69}, {"time": 3775, "pitch": 59, "duration": 34, "velocity": 79}, {"time": 3775, "pitch": 64, "duration": 34, "velocity": 81}, {"time": 3775, "pitch": 67, "duration": 34, "velocity": 72}, {"time": 3811, "pitch": 64, "duration": 12, "velocity": 88}, {"time": 3811, "pitch": 67, "duration": 12, "velocity": 86}, {"time": 3817, "pitch": 59, "duration": 7, "velocity": 70}, {"time": 3823, "pitch": 40, "duration": 1, "velocity": 67}, {"time": 3823, "pitch": 52, "duration": 15, "velocity": 82}, {"time": 3835, "pitch": 59, "duration": 15, "velocity": 74}, {"time": 3835, "pitch": 64, "duration": 15, "velocity": 82}, {"time": 3835, "pitch": 67, "duration": 15, "velocity": 81}, {"time": 3841, "pitch": 40, "duration": 2, "velocity": 54}, {"time": 3841, "pitch": 52, "duration": 2, "velocity": 77}, {"time": 3847, "pitch": 40, "duration": 17, "velocity": 71}, {"time": 3847, "pitch": 52, "duration": 17, "velocity": 85}, {"time": 3853, "pitch": 64, "duration": 10, "velocity": 93}, {"time": 3853, "pitch": 67, "duration": 10, "velocity": 93}, {"time": 3865, "pitch": 59, "duration": 6, "velocity": 88}, {"time": 3865, "pitch": 64, "duration": 5, "velocity": 89}, {"time": 3865, "pitch": 67, "duration": 5, "velocity": 73}, {"time": 3868, "pitch": 37, "duration": 1, "velocity": 40}, {"time": 3871, "pitch": 37, "duration": 15, "velocity": 76}, {"time": 3871, "pitch": 49, "duration": 15, "velocity": 70}, {"time": 3883, "pitch": 61, "duration": 14, "velocity": 107}, {"time": 3883, "pitch": 64, "duration": 14, "velocity": 93}, {"time": 3883, "pitch": 67, "duration": 14, "velocity": 89}, {"time": 3889, "pitch": 37, "duration": 3, "velocity": 73}, {"time": 3889, "pitch": 49, "duration": 3, "velocity": 63}, {"time": 3895, "pitch": 37, "duration": 13, "velocity": 86}, {"time": 3895, "pitch": 49, "duration": 11, "velocity": 69}, {"time": 3901, "pitch": 61, "duration": 10, "velocity": 112}, {"time": 3901, "pitch": 64, "duration": 10, "velocity": 96}, {"time": 3901, "pitch": 67, "duration": 9, "velocity": 85}, {"time": 3913, "pitch": 61, "duration": 4, "velocity": 96}, {"time": 3913, "pitch": 64, "duration": 4, "velocity": 66}, {"time": 3913, "pitch": 67, "duration": 5, "velocity": 70}, {"time": 3919, "pitch": 36, "duration": 15, "velocity": 59}, {"time": 3919, "pitch": 48, "duration": 15, "velocity": 96}, {"time": 3919, "pitch": 60, "duration": 10, "velocity": 81}, {"time": 3931, "pitch": 60, "duration": 15, "velocity": 89}, {"time": 3931, "pitch": 64, "duration": 15, "velocity": 90}, {"time": 3931, "pitch": 67, "duration": 16, "velocity": 89}, {"time": 3937, "pitch": 36, "duration": 3, "velocity": 63}, {"time": 3937, "pitch": 48, "duration": 3, "velocity": 63}, {"time": 3943, "pitch": 36, "duration": 15, "velocity": 71}, {"time": 3943, "pitch": 48, "duration": 13, "velocity": 79}, {"time": 3949, "pitch": 60, "duration": 7, "velocity": 68}, {"time": 3955, "pitch": 64, "duration": 9, "velocity": 99}, {"time": 3955, "pitch": 67, "duration": 10, "velocity": 95}, {"time": 3961, "pitch": 60, "duration": 6, "velocity": 69}, {"time": 3967, "pitch": 35, "duration": 14, "velocity": 66}, {"time": 3967, "pitch": 47, "duration": 14, "velocity": 83}, {"time": 3979, "pitch": 59, "duration": 14, "velocity": 81}, {"time": 3979, "pitch": 62, "duration": 14, "velocity": 86}, {"time": 3979, "pitch": 66, "duration": 14, "velocity": 90}, {"time": 3985, "pitch": 35, "duration": 2, "velocity": 57}, {"time": 3985, "pitch": 47, "duration": 2, "velocity": 69}, {"time": 3991, "pitch": 35, "duration": 8, "velocity": 71}, {"time": 3991, "pitch": 47, "duration": 12, "velocity": 83}, {"time": 3997, "pitch": 59, "duration": 10, "velocity": 85}, {"time": 3997, "pitch": 62, "duration": 10, "velocity": 96}, {"time": 3997, "pitch": 66, "duration": 10, "velocity": 107}, {"time": 4009, "pitch": 59, "duration": 5, "velocity": 78}, {"time": 4009, "pitch": 62, "duration": 5, "velocity": 96}, {"time": 4009, "pitch": 66, "duration": 5, "velocity": 99}, {"time": 4015, "pitch": 40, "duration": 14, "velocity": 69}, {"time": 4015, "pitch": 52, "duration": 14, "velocity": 88}, {"time": 4027, "pitch": 59, "duration": 14, "velocity": 86}, {"time": 4027, "pitch": 64, "duration": 14, "velocity": 90}, {"time": 4027, "pitch": 67, "duration": 14, "velocity": 92}, {"time": 4033, "pitch": 40, "duration": 2, "velocity": 63}, {"time": 4033, "pitch": 52, "duration": 2, "velocity": 65}, {"time": 4039, "pitch": 40, "duration": 14, "velocity": 75}, {"time": 4039, "pitch": 52, "duration": 13, "velocity": 86}, {"time": 4045, "pitch": 59, "duration": 10, "velocity": 85}, {"time": 4045, "pitch": 64, "duration": 10, "velocity": 88}, {"time": 4045, "pitch": 67, "duration": 10, "velocity": 83}, {"time": 4057, "pitch": 59, "duration": 6, "velocity": 83}, {"time": 4057, "pitch": 64, "duration": 6, "velocity": 90}, {"time": 4057, "pitch": 67, "duration": 5, "velocity": 85}, {"time": 4063, "pitch": 37, "duration": 14, "velocity": 78}, {"time": 4063, "pitch": 49, "duration": 14, "velocity": 65}, {"time": 4075, "pitch": 61, "duration": 14, "velocity": 102}, {"time": 4075, "pitch": 64, "duration": 14, "velocity": 85}, {"time": 4075, "pitch": 67, "duration": 14, "velocity": 83}, {"time": 4081, "pitch": 37, "duration": 2, "velocity": 70}, {"time": 4081, "pitch": 49, "duration": 2, "velocity": 81}, {"time": 4087, "pitch": 37, "duration": 10, "velocity": 79}, {"time": 4087, "pitch": 49, "duration": 9, "velocity": 81}, {"time": 4093, "pitch": 61, "duration": 10, "velocity": 107}, {"time": 4093, "pitch": 64, "duration": 10, "velocity": 92}, {"time": 4093, "pitch": 67, "duration": 9, "velocity": 89}, {"time": 4105, "pitch": 61, "duration": 4, "velocity": 97}, {"time": 4105, "pitch": 64, "duration": 4, "velocity": 77}, {"time": 4105, "pitch": 67, "duration": 6, "velocity": 71}, {"time": 4111, "pitch": 36, "duration": 14, "velocity": 60}, {"time": 4111, "pitch": 48, "duration": 11, "velocity": 78}, {"time": 4123, "pitch": 64, "duration": 11, "velocity": 97}, {"time": 4123, "pitch": 67, "duration": 12, "velocity": 99}, {"time": 4129, "pitch": 60, "duration": 6, "velocity": 89}, {"time": 4135, "pitch": 35, "duration": 16, "velocity": 63}, {"time": 4135, "pitch": 47, "duration": 13, "velocity": 79}, {"time": 4147, "pitch": 62, "duration": 13, "velocity": 95}, {"time": 4147, "pitch": 66, "duration": 13, "velocity": 107}, {"time": 4153, "pitch": 59, "duration": 7, "velocity": 58}, {"time": 4159, "pitch": 33, "duration": 14, "velocity": 82}, {"time": 4165, "pitch": 45, "duration": 7, "velocity": 75}, {"time": 4171, "pitch": 60, "duration": 18, "velocity": 95}, {"time": 4171, "pitch": 64, "duration": 18, "velocity": 90}, {"time": 4177, "pitch": 57, "duration": 8, "velocity": 51}, {"time": 4183, "pitch": 48, "duration": 14, "velocity": 73}, {"time": 4195, "pitch": 60, "duration": 7, "velocity": 86}, {"time": 4195, "pitch": 64, "duration": 7, "velocity": 82}, {"time": 4207, "pitch": 36, "duration": 39, "velocity": 69}, {"time": 4213, "pitch": 48, "duration": 15, "velocity": 86}, {"time": 4219, "pitch": 60, "duration": 8, "velocity": 100}, {"time": 4225, "pitch": 63, "duration": 4, "velocity": 93}, {"time": 4225, "pitch": 67, "duration": 4, "velocity": 86}, {"time": 4231, "pitch": 48, "duration": 13, "velocity": 72}, {"time": 4231, "pitch": 60, "duration": 11, "velocity": 88}, {"time": 4231, "pitch": 63, "duration": 10, "velocity": 89}, {"time": 4231, "pitch": 67, "duration": 10, "velocity": 73}, {"time": 4243, "pitch": 63, "duration": 9, "velocity": 88}, {"time": 4243, "pitch": 67, "duration": 9, "velocity": 83}, {"time": 4249, "pitch": 60, "duration": 7, "velocity": 56}, {"time": 4255, "pitch": 35, "duration": 14, "velocity": 67}, {"time": 4267, "pitch": 59, "duration": 17, "velocity": 76}, {"time": 4267, "pitch": 62, "duration": 17, "velocity": 88}, {"time": 4267, "pitch": 66, "duration": 20, "velocity": 97}, {"time": 4273, "pitch": 35, "duration": 2, "velocity": 52}, {"time": 4273, "pitch": 47, "duration": 3, "velocity": 48}, {"time": 4279, "pitch": 35, "duration": 13, "velocity": 66}, {"time": 4279, "pitch": 47, "duration": 22, "velocity": 65}, {"time": 4291, "pitch": 62, "duration": 13, "velocity": 89}, {"time": 4291, "pitch": 66, "duration": 6, "velocity": 102}, {"time": 4297, "pitch": 59, "duration": 9, "velocity": 56}, {"time": 4303, "pitch": 40, "duration": 14, "velocity": 78}, {"time": 4309, "pitch": 47, "duration": 9, "velocity": 44}, {"time": 4315, "pitch": 59, "duration": 14, "velocity": 73}, {"time": 4315, "pitch": 64, "duration": 14, "velocity": 81}, {"time": 4315, "pitch": 67, "duration": 14, "velocity": 76}, {"time": 4321, "pitch": 40, "duration": 2, "velocity": 64}, {"time": 4327, "pitch": 40, "duration": 15, "velocity": 72}, {"time": 4327, "pitch": 52, "duration": 13, "velocity": 82}, {"time": 4339, "pitch": 64, "duration": 7, "velocity": 99}, {"time": 4339, "pitch": 67, "duration": 7, "velocity": 96}, {"time": 4345, "pitch": 59, "duration": 4, "velocity": 67}, {"time": 4351, "pitch": 38, "duration": 15, "velocity": 68}, {"time": 4351, "pitch": 50, "duration": 15, "velocity": 86}, {"time": 4351, "pitch": 57, "duration": 10, "velocity": 86}, {"time": 4351, "pitch": 62, "duration": 10, "velocity": 100}, {"time": 4351, "pitch": 66, "duration": 10, "velocity": 107}, {"time": 4363, "pitch": 62, "duration": 14, "velocity": 100}, {"time": 4363, "pitch": 66, "duration": 20, "velocity": 112}, {"time": 4369, "pitch": 38, "duration": 2, "velocity": 59}, {"time": 4369, "pitch": 50, "duration": 2, "velocity": 82}, {"time": 4375, "pitch": 38, "duration": 12, "velocity": 72}, {"time": 4375, "pitch": 50, "duration": 11, "velocity": 92}, {"time": 4381, "pitch": 57, "duration": 7, "velocity": 62}, {"time": 4381, "pitch": 62, "duration": 1, "velocity": 30}, {"time": 4387, "pitch": 62, "duration": 2, "velocity": 100}, {"time": 4387, "pitch": 66, "duration": 2, "velocity": 100}, {"time": 4399, "pitch": 36, "duration": 11, "velocity": 72}, {"time": 4399, "pitch": 48, "duration": 11, "velocity": 79}, {"time": 4399, "pitch": 60, "duration": 12, "velocity": 82}, {"time": 4399, "pitch": 64, "duration": 12, "velocity": 92}, {"time": 4399, "pitch": 67, "duration": 12, "velocity": 72}, {"time": 4399, "pitch": 72, "duration": 12, "velocity": 75}, {"time": 4441, "pitch": 40, "duration": 1, "velocity": 77}, {"time": 4441, "pitch": 52, "duration": 3, "velocity": 77}, {"time": 4447, "pitch": 40, "duration": 15, "velocity": 95}, {"time": 4447, "pitch": 52, "duration": 14, "velocity": 78}, {"time": 4459, "pitch": 59, "duration": 14, "velocity": 72}, {"time": 4459, "pitch": 64, "duration": 15, "velocity": 77}, {"time": 4459, "pitch": 67, "duration": 15, "velocity": 78}, {"time": 4465, "pitch": 40, "duration": 2, "velocity": 64}, {"time": 4465, "pitch": 52, "duration": 2, "velocity": 53}, {"time": 4471, "pitch": 40, "duration": 24, "velocity": 73}, {"time": 4471, "pitch": 52, "duration": 23, "velocity": 66}, {"time": 4477, "pitch": 64, "duration": 9, "velocity": 77}, {"time": 4477, "pitch": 67, "duration": 10, "velocity": 79}, {"time": 4489, "pitch": 59, "duration": 6, "velocity": 85}, {"time": 4489, "pitch": 64, "duration": 6, "velocity": 82}, {"time": 4489, "pitch": 67, "duration": 6, "velocity": 72}, {"time": 4495, "pitch": 40, "duration": 14, "velocity": 83}, {"time": 4495, "pitch": 52, "duration": 14, "velocity": 90}, {"time": 4507, "pitch": 59, "duration": 8, "velocity": 73}, {"time": 4507, "pitch": 64, "duration": 8, "velocity": 83}, {"time": 4507, "pitch": 67, "duration": 8, "velocity": 79}, {"time": 4513, "pitch": 40, "duration": 5, "velocity": 77}, {"time": 4513, "pitch": 52, "duration": 5, "velocity": 73}, {"time": 4519, "pitch": 50, "duration": 5, "velocity": 88}, {"time": 4519, "pitch": 57, "duration": 3, "velocity": 79}, {"time": 4519, "pitch": 62, "duration": 3, "velocity": 89}, {"time": 4519, "pitch": 66, "duration": 4, "velocity": 89}, {"time": 4525, "pitch": 35, "duration": 7, "velocity": 73}, {"time": 4525, "pitch": 47, "duration": 9, "velocity": 88}, {"time": 4525, "pitch": 59, "duration": 8, "velocity": 83}, {"time": 4525, "pitch": 62, "duration": 8, "velocity": 90}, {"time": 4525, "pitch": 66, "duration": 9, "velocity": 90}, {"time": 4537, "pitch": 35, "duration": 6, "velocity": 81}, {"time": 4537, "pitch": 47, "duration": 5, "velocity": 102}, {"time": 4537, "pitch": 59, "duration": 5, "velocity": 79}, {"time": 4537, "pitch": 62, "duration": 5, "velocity": 89}, {"time": 4537, "pitch": 66, "duration": 5, "velocity": 100}, {"time": 4543, "pitch": 40, "duration": 80, "velocity": 85}, {"time": 4543, "pitch": 52, "duration": 80, "velocity": 95}, {"time": 4543, "pitch": 59, "duration": 80, "velocity": 90}, {"time": 4543, "pitch": 64, "duration": 80, "velocity": 97}, {"time": 4543, "pitch": 67, "duration": 80, "velocity": 90}], "annotations": [{"time": 85, "annotation": {"number": 64, "value": 127}, "group": "control_change"}, {"time": 123, "annotation": {"number": 64, "value": 0}, "group": "control_change"}, {"time": 126, "annotation": {"number": 64, "value": 127}, "group": "control_change"}, {"time": 148, "annotation": {"number": 64, "value": 0}, "group": "control_change"}, {"time": 151, "annotation": {"number": 64, "value": 127}, "group": "control_change"}, {"time": 173, "annotation": {"number": 64, "value": 0}, "group": "control_change"}, {"time": 175, "annotation": {"number": 64, "value": 127}, "group": "control_change"}, {"time": 220, "annotation": {"number": 64, "value": 0}, "group": "control_change"}, {"time": 223, "annotation": {"number": 64, "value": 127}, "group": "control_change"}, {"time": 269, "annotation": {"number": 64, "value": 0}, "group": "control_change"}, {"time": 271, "annotation": {"number": 64, "value": 127}, "group": "control_change"}, {"time": 286, "annotation": {"number": 64, "value": 0}, "group": "control_change"}, {"time": 288, "annotation": {"number": 64, "value": 127}, "group": "control_change"}, {"time": 293, "annotation": {"number": 64, "value": 0}, "group": "control_change"}, {"time": 294, "annotation": {"number": 64, "value": 127}, "group": "control_change"}, {"time": 316, "annotation": {"number": 64, "value": 0}, "group": "control_change"}, {"time": 319, "annotation": {"number": 64, "value": 127}, "group": "control_change"}, {"time": 340, "annotation": {"number": 64, "value": 0}, "group": "control_change"}, {"time": 343, "annotation": {"number": 64, "value": 127}, "group": "control_change"}, {"time": 365, "annotation": {"number": 64, "value": 0}, "group": "control_change"}, {"time": 368, "annotation": {"number": 64, "value": 127}, "group": "control_change"}, {"time": 387, "annotation": {"number": 64, "value": 0}, "group": "control_change"}, {"time": 463, "annotation": {"number": 64, "value": 127}, "group": "control_change"}, {"time": 477, "annotation": {"number": 64, "value": 0}, "group": "control_change"}, {"time": 481, "annotation": {"number": 64, "value": 127}, "group": "control_change"}, {"time": 483, "annotation": {"number": 64, "value": 0}, "group": "control_change"}, {"time": 486, "annotation": {"number": 64, "value": 127}, "group": "control_change"}, {"time": 499, "annotation": {"number": 64, "value": 0}, "group": "control_change"}, {"time": 503, "annotation": {"number": 64, "value": 127}, "group": "control_change"}, {"time": 508, "annotation": {"number": 64, "value": 0}, "group": "control_change"}, {"time": 511, "annotation": {"number": 64, "value": 127}, "group": "control_change"}, {"time": 525, "annotation": {"number": 64, "value": 0}, "group": "control_change"}, {"time": 528, "annotation": {"number": 64, "value": 127}, "group": "control_change"}, {"time": 532, "annotation": {"number": 64, "value": 0}, "group": "control_change"}, {"time": 534, "annotation": {"number": 64, "value": 127}, "group": "control_change"}, {"time": 551, "annotation": {"number": 64, "value": 0}, "group": "control_change"}, {"time": 559, "annotation": {"number": 64, "value": 127}, "group": "control_change"}, {"time": 571, "annotation": {"number": 64, "value": 0}, "group": "control_change"}, {"time": 575, "annotation": {"number": 64, "value": 127}, "group": "control_change"}, {"time": 582, "annotation": {"number": 64, "value": 0}, "group": "control_change"}, {"time": 588, "annotation": {"number": 64, "value": 127}, "group": "control_change"}, {"time": 602, "annotation": {"number": 64, "value": 0}, "group": "control_change"}, {"time": 606, "annotation": {"number": 64, "value": 127}, "group": "control_change"}, {"time": 621, "annotation": {"number": 64, "value": 0}, "group": "control_change"}, {"time": 625, "annotation": {"number": 64, "value": 127}, "group": "control_change"}, {"time": 627, "annotation": {"number": 64, "value": 0}, "group": "control_change"}, {"time": 631, "annotation": {"number": 64, "value": 127}, "group": "control_change"}, {"time": 647, "annotation": {"number": 64, "value": 0}, "group": "control_change"}, {"time": 655, "annotation": {"number": 64, "value": 127}, "group": "control_change"}, {"time": 667, "annotation": {"number": 64, "value": 0}, "group": "control_change"}, {"time": 671, "annotation": {"number": 64, "value": 127}, "group": "control_change"}, {"time": 676, "annotation": {"number": 64, "value": 0}, "group": "control_change"}, {"time": 679, "annotation": {"number": 64, "value": 127}, "group": "control_change"}, {"time": 687, "annotation": {"number": 64, "value": 0}, "group": "control_change"}, {"time": 690, "annotation": {"number": 64, "value": 127}, "group": "control_change"}, {"time": 700, "annotation": {"number": 64, "value": 0}, "group": "control_change"}, {"time": 703, "annotation": {"number": 64, "value": 127}, "group": "control_change"}, {"time": 710, "annotation": {"number": 64, "value": 0}, "group": "control_change"}, {"time": 713, "annotation": {"number": 64, "value": 127}, "group": "control_change"}, {"time": 724, "annotation": {"number": 64, "value": 0}, "group": "control_change"}, {"time": 728, "annotation": {"number": 64, "value": 127}, "group": "control_change"}, {"time": 747, "annotation": {"number": 64, "value": 0}, "group": "control_change"}, {"time": 751, "annotation": {"number": 64, "value": 127}, "group": "control_change"}, {"time": 771, "annotation": {"number": 64, "value": 0}, "group": "control_change"}, {"time": 776, "annotation": {"number": 64, "value": 127}, "group": "control_change"}, {"time": 794, "annotation": {"number": 64, "value": 0}, "group": "control_change"}, {"time": 799, "annotation": {"number": 64, "value": 127}, "group": "control_change"}, {"time": 813, "annotation": {"number": 64, "value": 0}, "group": "control_change"}, {"time": 861, "annotation": {"number": 64, "value": 0}, "group": "control_change"}, {"time": 865, "annotation": {"number": 64, "value": 127}, "group": "control_change"}, {"time": 867, "annotation": {"number": 64, "value": 0}, "group": "control_change"}, {"time": 870, "annotation": {"number": 64, "value": 127}, "group": "control_change"}, {"time": 883, "annotation": {"number": 64, "value": 0}, "group": "control_change"}, {"time": 887, "annotation": {"number": 64, "value": 127}, "group": "control_change"}, {"time": 892, "annotation": {"number": 64, "value": 0}, "group": "control_change"}, {"time": 895, "annotation": {"number": 64, "value": 127}, "group": "control_change"}, {"time": 909, "annotation": {"number": 64, "value": 0}, "group": "control_change"}, {"time": 912, "annotation": {"number": 64, "value": 127}, "group": "control_change"}, {"time": 916, "annotation": {"number": 64, "value": 0}, "group": "control_change"}, {"time": 918, "annotation": {"number": 64, "value": 127}, "group": "control_change"}, {"time": 935, "annotation": {"number": 64, "value": 0}, "group": "control_change"}, {"time": 943, "annotation": {"number": 64, "value": 127}, "group": "control_change"}, {"time": 955, "annotation": {"number": 64, "value": 0}, "group": "control_change"}, {"time": 959, "annotation": {"number": 64, "value": 127}, "group": "control_change"}, {"time": 966, "annotation": {"number": 64, "value": 0}, "group": "control_change"}, {"time": 972, "annotation": {"number": 64, "value": 127}, "group": "control_change"}, {"time": 986, "annotation": {"number": 64, "value": 0}, "group": "control_change"}, {"time": 990, "annotation": {"number": 64, "value": 127}, "group": "control_change"}, {"time": 1005, "annotation": {"number": 64, "value": 0}, "group": "control_change"}, {"time": 1009, "annotation": {"number": 64, "value": 127}, "group": "control_change"}, {"time": 1011, "annotation": {"number": 64, "value": 0}, "group": "control_change"}, {"time": 1015, "annotation": {"number": 64, "value": 127}, "group": "control_change"}, {"time": 1031, "annotation": {"number": 64, "value": 0}, "group": "control_change"}, {"time": 1039, "annotation": {"number": 64, "value": 127}, "group": "control_change"}, {"time": 1051, "annotation": {"number": 64, "value": 0}, "group": "control_change"}, {"time": 1055, "annotation": {"number": 64, "value": 127}, "group": "control_change"}, {"time": 1060, "annotation": {"number": 64, "value": 0}, "group": "control_change"}, {"time": 1063, "annotation": {"number": 64, "value": 127}, "group": "control_change"}, {"time": 1071, "annotation": {"number": 64, "value": 0}, "group": "control_change"}, {"time": 1074, "annotation": {"number": 64, "value": 127}, "group": "control_change"}, {"time": 1084, "annotation": {"number": 64, "value": 0}, "group": "control_change"}, {"time": 1087, "annotation": {"number": 64, "value": 127}, "group": "control_change"}, {"time": 1094, "annotation": {"number": 64, "value": 0}, "group": "control_change"}, {"time": 1097, "annotation": {"number": 64, "value": 127}, "group": "control_change"}, {"time": 1108, "annotation": {"number": 64, "value": 0}, "group": "control_change"}, {"time": 1112, "annotation": {"number": 64, "value": 127}, "group": "control_change"}, {"time": 1131, "annotation": {"number": 64, "value": 0}, "group": "control_change"}, {"time": 1135, "annotation": {"number": 64, "value": 127}, "group": "control_change"}, {"time": 1155, "annotation": {"number": 64, "value": 0}, "group": "control_change"}, {"time": 1160, "annotation": {"number": 64, "value": 127}, "group": "control_change"}, {"time": 1178, "annotation": {"number": 64, "value": 0}, "group": "control_change"}, {"time": 1183, "annotation": {"number": 64, "value": 127}, "group": "control_change"}, {"time": 1212, "annotation": {"number": 64, "value": 127}, "group": "control_change"}, {"time": 1216, "annotation": {"number": 64, "value": 0}, "group": "control_change"}, {"time": 1277, "annotation": {"number": 64, "value": 127}, "group": "control_change"}, {"time": 1312, "annotation": {"number": 64, "value": 0}, "group": "control_change"}, {"time": 1315, "annotation": {"number": 64, "value": 127}, "group": "control_change"}, {"time": 1340, "annotation": {"number": 64, "value": 0}, "group": "control_change"}, {"time": 1344, "annotation": {"number": 64, "value": 127}, "group": "control_change"}, {"time": 1372, "annotation": {"number": 64, "value": 0}, "group": "control_change"}, {"time": 1376, "annotation": {"number": 64, "value": 127}, "group": "control_change"}, {"time": 1390, "annotation": {"number": 64, "value": 0}, "group": "control_change"}, {"time": 1393, "annotation": {"number": 64, "value": 127}, "group": "control_change"}, {"time": 1420, "annotation": {"number": 64, "value": 0}, "group": "control_change"}, {"time": 1424, "annotation": {"number": 64, "value": 127}, "group": "control_change"}, {"time": 1438, "annotation": {"number": 64, "value": 0}, "group": "control_change"}, {"time": 1441, "annotation": {"number": 64, "value": 127}, "group": "control_change"}, {"time": 1469, "annotation": {"number": 64, "value": 0}, "group": "control_change"}, {"time": 1474, "annotation": {"number": 64, "value": 127}, "group": "control_change"}, {"time": 1492, "annotation": {"number": 64, "value": 0}, "group": "control_change"}, {"time": 1506, "annotation": {"number": 64, "value": 127}, "group": "control_change"}, {"time": 1515, "annotation": {"number": 64, "value": 0}, "group": "control_change"}, {"time": 1519, "annotation": {"number": 64, "value": 127}, "group": "control_change"}, {"time": 1531, "annotation": {"number": 64, "value": 0}, "group": "control_change"}, {"time": 1537, "annotation": {"number": 64, "value": 127}, "group": "control_change"}, {"time": 1562, "annotation": {"number": 64, "value": 0}, "group": "control_change"}, {"time": 1567, "annotation": {"number": 64, "value": 127}, "group": "control_change"}, {"time": 1581, "annotation": {"number": 64, "value": 0}, "group": "control_change"}, {"time": 1584, "annotation": {"number": 64, "value": 127}, "group": "control_change"}, {"time": 1587, "annotation": {"number": 64, "value": 0}, "group": "control_change"}, {"time": 1591, "annotation": {"number": 64, "value": 127}, "group": "control_change"}, {"time": 1603, "annotation": {"number": 64, "value": 0}, "group": "control_change"}, {"time": 1615, "annotation": {"number": 64, "value": 127}, "group": "control_change"}, {"time": 1660, "annotation": {"number": 64, "value": 0}, "group": "control_change"}, {"time": 1663, "annotation": {"number": 64, "value": 127}, "group": "control_change"}, {"time": 1708, "annotation": {"number": 64, "value": 0}, "group": "control_change"}, {"time": 1711, "annotation": {"number": 64, "value": 127}, "group": "control_change"}, {"time": 1730, "annotation": {"number": 64, "value": 0}, "group": "control_change"}, {"time": 1735, "annotation": {"number": 64, "value": 127}, "group": "control_change"}, {"time": 1755, "annotation": {"number": 64, "value": 0}, "group": "control_change"}, {"time": 1759, "annotation": {"number": 64, "value": 127}, "group": "control_change"}, {"time": 1773, "annotation": {"number": 64, "value": 0}, "group": "control_change"}, {"time": 1778, "annotation": {"number": 64, "value": 127}, "group": "control_change"}, {"time": 1780, "annotation": {"number": 64, "value": 0}, "group": "control_change"}, {"time": 1784, "annotation": {"number": 64, "value": 127}, "group": "control_change"}, {"time": 1803, "annotation": {"number": 64, "value": 0}, "group": "control_change"}, {"time": 1807, "annotation": {"number": 64, "value": 127}, "group": "control_change"}, {"time": 1821, "annotation": {"number": 64, "value": 0}, "group": "control_change"}, {"time": 1826, "annotation": {"number": 64, "value": 127}, "group": "control_change"}, {"time": 1827, "annotation": {"number": 64, "value": 0}, "group": "control_change"}, {"time": 1831, "annotation": {"number": 64, "value": 127}, "group": "control_change"}, {"time": 1851, "annotation": {"number": 64, "value": 0}, "group": "control_change"}, {"time": 1957, "annotation": {"number": 64, "value": 127}, "group": "control_change"}, {"time": 1995, "annotation": {"number": 64, "value": 0}, "group": "control_change"}, {"time": 1998, "annotation": {"number": 64, "value": 127}, "group": "control_change"}, {"time": 2020, "annotation": {"number": 64, "value": 0}, "group": "control_change"}, {"time": 2023, "annotation": {"number": 64, "value": 127}, "group": "control_change"}, {"time": 2045, "annotation": {"number": 64, "value": 0}, "group": "control_change"}, {"time": 2047, "annotation": {"number": 64, "value": 127}, "group": "control_change"}, {"time": 2092, "annotation": {"number": 64, "value": 0}, "group": "control_change"}, {"time": 2095, "annotation": {"number": 64, "value": 127}, "group": "control_change"}, {"time": 2141, "annotation": {"number": 64, "value": 0}, "group": "control_change"}, {"time": 2143, "annotation": {"number": 64, "value": 127}, "group": "control_change"}, {"time": 2158, "annotation": {"number": 64, "value": 0}, "group": "control_change"}, {"time": 2160, "annotation": {"number": 64, "value": 127}, "group": "control_change"}, {"time": 2165, "annotation": {"number": 64, "value": 0}, "group": "control_change"}, {"time": 2166, "annotation": {"number": 64, "value": 127}, "group": "control_change"}, {"time": 2188, "annotation": {"number": 64, "value": 0}, "group": "control_change"}, {"time": 2191, "annotation": {"number": 64, "value": 127}, "group": "control_change"}, {"time": 2212, "annotation": {"number": 64, "value": 0}, "group": "control_change"}, {"time": 2215, "annotation": {"number": 64, "value": 127}, "group": "control_change"}, {"time": 2237, "annotation": {"number": 64, "value": 0}, "group": "control_change"}, {"time": 2240, "annotation": {"number": 64, "value": 127}, "group": "control_change"}, {"time": 2259, "annotation": {"number": 64, "value": 0}, "group": "control_change"}, {"time": 2335, "annotation": {"number": 64, "value": 127}, "group": "control_change"}, {"time": 2349, "annotation": {"number": 64, "value": 0}, "group": "control_change"}, {"time": 2353, "annotation": {"number": 64, "value": 127}, "group": "control_change"}, {"time": 2355, "annotation": {"number": 64, "value": 0}, "group": "control_change"}, {"time": 2358, "annotation": {"number": 64, "value": 127}, "group": "control_change"}, {"time": 2371, "annotation": {"number": 64, "value": 0}, "group": "control_change"}, {"time": 2375, "annotation": {"number": 64, "value": 127}, "group": "control_change"}, {"time": 2380, "annotation": {"number": 64, "value": 0}, "group": "control_change"}, {"time": 2383, "annotation": {"number": 64, "value": 127}, "group": "control_change"}, {"time": 2397, "annotation": {"number": 64, "value": 0}, "group": "control_change"}, {"time": 2400, "annotation": {"number": 64, "value": 127}, "group": "control_change"}, {"time": 2404, "annotation": {"number": 64, "value": 0}, "group": "control_change"}, {"time": 2406, "annotation": {"number": 64, "value": 127}, "group": "control_change"}, {"time": 2423, "annotation": {"number": 64, "value": 0}, "group": "control_change"}, {"time": 2431, "annotation": {"number": 64, "value": 127}, "group": "control_change"}, {"time": 2443, "annotation": {"number": 64, "value": 0}, "group": "control_change"}, {"time": 2447, "annotation": {"number": 64, "value": 127}, "group": "control_change"}, {"time": 2454, "annotation": {"number": 64, "value": 0}, "group": "control_change"}, {"time": 2460, "annotation": {"number": 64, "value": 127}, "group": "control_change"}, {"time": 2474, "annotation": {"number": 64, "value": 0}, "group": "control_change"}, {"time": 2478, "annotation": {"number": 64, "value": 127}, "group": "control_change"}, {"time": 2493, "annotation": {"number": 64, "value": 0}, "group": "control_change"}, {"time": 2497, "annotation": {"number": 64, "value": 127}, "group": "control_change"}, {"time": 2499, "annotation": {"number": 64, "value": 0}, "group": "control_change"}, {"time": 2503, "annotation": {"number": 64, "value": 127}, "group": "control_change"}, {"time": 2519, "annotation": {"number": 64, "value": 0}, "group": "control_change"}, {"time": 2527, "annotation": {"number": 64, "value": 127}, "group": "control_change"}, {"time": 2539, "annotation": {"number": 64, "value": 0}, "group": "control_change"}, {"time": 2543, "annotation": {"number": 64, "value": 127}, "group": "control_change"}, {"time": 2548, "annotation": {"number": 64, "value": 0}, "group": "control_change"}, {"time": 2551, "annotation": {"number": 64, "value": 127}, "group": "control_change"}, {"time": 2559, "annotation": {"number": 64, "value": 0}, "group": "control_change"}, {"time": 2562, "annotation": {"number": 64, "value": 127}, "group": "control_change"}, {"time": 2572, "annotation": {"number": 64, "value": 0}, "group": "control_change"}, {"time": 2575, "annotation": {"number": 64, "value": 127}, "group": "control_change"}, {"time": 2582, "annotation": {"number": 64, "value": 0}, "group": "control_change"}, {"time": 2585, "annotation": {"number": 64, "value": 127}, "group": "control_change"}, {"time": 2596, "annotation": {"number": 64, "value": 0}, "group": "control_change"}, {"time": 2600, "annotation": {"number": 64, "value": 127}, "group": "control_change"}, {"time": 2619, "annotation": {"number": 64, "value": 0}, "group": "control_change"}, {"time": 2623, "annotation": {"number": 64, "value": 127}, "group": "control_change"}, {"time": 2643, "annotation": {"number": 64, "value": 0}, "group": "control_change"}, {"time": 2648, "annotation": {"number": 64, "value": 127}, "group": "control_change"}, {"time": 2666, "annotation": {"number": 64, "value": 0}, "group": "control_change"}, {"time": 2671, "annotation": {"number": 64, "value": 127}, "group": "control_change"}, {"time": 2685, "annotation": {"number": 64, "value": 0}, "group": "control_change"}, {"time": 2733, "annotation": {"number": 64, "value": 0}, "group": "control_change"}, {"time": 2737, "annotation": {"number": 64, "value": 127}, "group": "control_change"}, {"time": 2739, "annotation": {"number": 64, "value": 0}, "group": "control_change"}, {"time": 2742, "annotation": {"number": 64, "value": 127}, "group": "control_change"}, {"time": 2755, "annotation": {"number": 64, "value": 0}, "group": "control_change"}, {"time": 2759, "annotation": {"number": 64, "value": 127}, "group": "control_change"}, {"time": 2764, "annotation": {"number": 64, "value": 0}, "group": "control_change"}, {"time": 2767, "annotation": {"number": 64, "value": 127}, "group": "control_change"}, {"time": 2781, "annotation": {"number": 64, "value": 0}, "group": "control_change"}, {"time": 2784, "annotation": {"number": 64, "value": 127}, "group": "control_change"}, {"time": 2788, "annotation": {"number": 64, "value": 0}, "group": "control_change"}, {"time": 2790, "annotation": {"number": 64, "value": 127}, "group": "control_change"}, {"time": 2807, "annotation": {"number": 64, "value": 0}, "group": "control_change"}, {"time": 2815, "annotation": {"number": 64, "value": 127}, "group": "control_change"}, {"time": 2827, "annotation": {"number": 64, "value": 0}, "group": "control_change"}, {"time": 2831, "annotation": {"number": 64, "value": 127}, "group": "control_change"}, {"time": 2838, "annotation": {"number": 64, "value": 0}, "group": "control_change"}, {"time": 2844, "annotation": {"number": 64, "value": 127}, "group": "control_change"}, {"time": 2858, "annotation": {"number": 64, "value": 0}, "group": "control_change"}, {"time": 2862, "annotation": {"number": 64, "value": 127}, "group": "control_change"}, {"time": 2877, "annotation": {"number": 64, "value": 0}, "group": "control_change"}, {"time": 2881, "annotation": {"number": 64, "value": 127}, "group": "control_change"}, {"time": 2883, "annotation": {"number": 64, "value": 0}, "group": "control_change"}, {"time": 2887, "annotation": {"number": 64, "value": 127}, "group": "control_change"}, {"time": 2903, "annotation": {"number": 64, "value": 0}, "group": "control_change"}, {"time": 2911, "annotation": {"number": 64, "value": 127}, "group": "control_change"}, {"time": 2923, "annotation": {"number": 64, "value": 0}, "group": "control_change"}, {"time": 2927, "annotation": {"number": 64, "value": 127}, "group": "control_change"}, {"time": 2932, "annotation": {"number": 64, "value": 0}, "group": "control_change"}, {"time": 2935, "annotation": {"number": 64, "value": 127}, "group": "control_change"}, {"time": 2943, "annotation": {"number": 64, "value": 0}, "group": "control_change"}, {"time": 2946, "annotation": {"number": 64, "value": 127}, "group": "control_change"}, {"time": 2956, "annotation": {"number": 64, "value": 0}, "group": "control_change"}, {"time": 2959, "annotation": {"number": 64, "value": 127}, "group": "control_change"}, {"time": 2966, "annotation": {"number": 64, "value": 0}, "group": "control_change"}, {"time": 2969, "annotation": {"number": 64, "value": 127}, "group": "control_change"}, {"time": 2980, "annotation": {"number": 64, "value": 0}, "group": "control_change"}, {"time": 2984, "annotation": {"number": 64, "value": 127}, "group": "control_change"}, {"time": 3003, "annotation": {"number": 64, "value": 0}, "group": "control_change"}, {"time": 3007, "annotation": {"number": 64, "value": 127}, "group": "control_change"}, {"time": 3027, "annotation": {"number": 64, "value": 0}, "group": "control_change"}, {"time": 3032, "annotation": {"number": 64, "value": 127}, "group": "control_change"}, {"time": 3050, "annotation": {"number": 64, "value": 0}, "group": "control_change"}, {"time": 3055, "annotation": {"number": 64, "value": 127}, "group": "control_change"}, {"time": 3084, "annotation": {"number": 64, "value": 127}, "group": "control_change"}, {"time": 3088, "annotation": {"number": 64, "value": 0}, "group": "control_change"}, {"time": 3149, "annotation": {"number": 64, "value": 127}, "group": "control_change"}, {"time": 3184, "annotation": {"number": 64, "value": 0}, "group": "control_change"}, {"time": 3187, "annotation": {"number": 64, "value": 127}, "group": "control_change"}, {"time": 3212, "annotation": {"number": 64, "value": 0}, "group": "control_change"}, {"time": 3216, "annotation": {"number": 64, "value": 127}, "group": "control_change"}, {"time": 3244, "annotation": {"number": 64, "value": 0}, "group": "control_change"}, {"time": 3248, "annotation": {"number": 64, "value": 127}, "group": "control_change"}, {"time": 3262, "annotation": {"number": 64, "value": 0}, "group": "control_change"}, {"time": 3265, "annotation": {"number": 64, "value": 127}, "group": "control_change"}, {"time": 3292, "annotation": {"number": 64, "value": 0}, "group": "control_change"}, {"time": 3296, "annotation": {"number": 64, "value": 127}, "group": "control_change"}, {"time": 3310, "annotation": {"number": 64, "value": 0}, "group": "control_change"}, {"time": 3313, "annotation": {"number": 64, "value": 127}, "group": "control_change"}, {"time": 3341, "annotation": {"number": 64, "value": 0}, "group": "control_change"}, {"time": 3346, "annotation": {"number": 64, "value": 127}, "group": "control_change"}, {"time": 3364, "annotation": {"number": 64, "value": 0}, "group": "control_change"}, {"time": 3378, "annotation": {"number": 64, "value": 127}, "group": "control_change"}, {"time": 3387, "annotation": {"number": 64, "value": 0}, "group": "control_change"}, {"time": 3391, "annotation": {"number": 64, "value": 127}, "group": "control_change"}, {"time": 3403, "annotation": {"number": 64, "value": 0}, "group": "control_change"}, {"time": 3409, "annotation": {"number": 64, "value": 127}, "group": "control_change"}, {"time": 3434, "annotation": {"number": 64, "value": 0}, "group": "control_change"}, {"time": 3439, "annotation": {"number": 64, "value": 127}, "group": "control_change"}, {"time": 3453, "annotation": {"number": 64, "value": 0}, "group": "control_change"}, {"time": 3456, "annotation": {"number": 64, "value": 127}, "group": "control_change"}, {"time": 3459, "annotation": {"number": 64, "value": 0}, "group": "control_change"}, {"time": 3463, "annotation": {"number": 64, "value": 127}, "group": "control_change"}, {"time": 3475, "annotation": {"number": 64, "value": 0}, "group": "control_change"}, {"time": 3487, "annotation": {"number": 64, "value": 127}, "group": "control_change"}, {"time": 3532, "annotation": {"number": 64, "value": 0}, "group": "control_change"}, {"time": 3535, "annotation": {"number": 64, "value": 127}, "group": "control_change"}, {"time": 3580, "annotation": {"number": 64, "value": 0}, "group": "control_change"}, {"time": 3583, "annotation": {"number": 64, "value": 127}, "group": "control_change"}, {"time": 3602, "annotation": {"number": 64, "value": 0}, "group": "control_change"}, {"time": 3607, "annotation": {"number": 64, "value": 127}, "group": "control_change"}, {"time": 3627, "annotation": {"number": 64, "value": 0}, "group": "control_change"}, {"time": 3631, "annotation": {"number": 64, "value": 127}, "group": "control_change"}, {"time": 3645, "annotation": {"number": 64, "value": 0}, "group": "control_change"}, {"time": 3650, "annotation": {"number": 64, "value": 127}, "group": "control_change"}, {"time": 3652, "annotation": {"number": 64, "value": 0}, "group": "control_change"}, {"time": 3656, "annotation": {"number": 64, "value": 127}, "group": "control_change"}, {"time": 3675, "annotation": {"number": 64, "value": 0}, "group": "control_change"}, {"time": 3679, "annotation": {"number": 64, "value": 127}, "group": "control_change"}, {"time": 3693, "annotation": {"number": 64, "value": 0}, "group": "control_change"}, {"time": 3698, "annotation": {"number": 64, "value": 127}, "group": "control_change"}, {"time": 3699, "annotation": {"number": 64, "value": 0}, "group": "control_change"}, {"time": 3703, "annotation": {"number": 64, "value": 127}, "group": "control_change"}, {"time": 3723, "annotation": {"number": 64, "value": 0}, "group": "control_change"}, {"time": 3856, "annotation": {"number": 64, "value": 0}, "group": "control_change"}, {"time": 3859, "annotation": {"number": 64, "value": 127}, "group": "control_change"}, {"time": 3884, "annotation": {"number": 64, "value": 0}, "group": "control_change"}, {"time": 3888, "annotation": {"number": 64, "value": 127}, "group": "control_change"}, {"time": 3916, "annotation": {"number": 64, "value": 0}, "group": "control_change"}, {"time": 3920, "annotation": {"number": 64, "value": 127}, "group": "control_change"}, {"time": 3934, "annotation": {"number": 64, "value": 0}, "group": "control_change"}, {"time": 3937, "annotation": {"number": 64, "value": 127}, "group": "control_change"}, {"time": 3964, "annotation": {"number": 64, "value": 0}, "group": "control_change"}, {"time": 3968, "annotation": {"number": 64, "value": 127}, "group": "control_change"}, {"time": 3982, "annotation": {"number": 64, "value": 0}, "group": "control_change"}, {"time": 3985, "annotation": {"number": 64, "value": 127}, "group": "control_change"}, {"time": 4013, "annotation": {"number": 64, "value": 0}, "group": "control_change"}, {"time": 4018, "annotation": {"number": 64, "value": 127}, "group": "control_change"}, {"time": 4036, "annotation": {"number": 64, "value": 0}, "group": "control_change"}, {"time": 4050, "annotation": {"number": 64, "value": 127}, "group": "control_change"}, {"time": 4059, "annotation": {"number": 64, "value": 0}, "group": "control_change"}, {"time": 4063, "annotation": {"number": 64, "value": 127}, "group": "control_change"}, {"time": 4075, "annotation": {"number": 64, "value": 0}, "group": "control_change"}, {"time": 4081, "annotation": {"number": 64, "value": 127}, "group": "control_change"}, {"time": 4106, "annotation": {"number": 64, "value": 0}, "group": "control_change"}, {"time": 4111, "annotation": {"number": 64, "value": 127}, "group": "control_change"}, {"time": 4125, "annotation": {"number": 64, "value": 0}, "group": "control_change"}, {"time": 4128, "annotation": {"number": 64, "value": 127}, "group": "control_change"}, {"time": 4131, "annotation": {"number": 64, "value": 0}, "group": "control_change"}, {"time": 4135, "annotation": {"number": 64, "value": 127}, "group": "control_change"}, {"time": 4147, "annotation": {"number": 64, "value": 0}, "group": "control_change"}, {"time": 4159, "annotation": {"number": 64, "value": 127}, "group": "control_change"}, {"time": 4204, "annotation": {"number": 64, "value": 0}, "group": "control_change"}, {"time": 4207, "annotation": {"number": 64, "value": 127}, "group": "control_change"}, {"time": 4252, "annotation": {"number": 64, "value": 0}, "group": "control_change"}, {"time": 4255, "annotation": {"number": 64, "value": 127}, "group": "control_change"}, {"time": 4274, "annotation": {"number": 64, "value": 0}, "group": "control_change"}, {"time": 4279, "annotation": {"number": 64, "value": 127}, "group": "control_change"}, {"time": 4299, "annotation": {"number": 64, "value": 0}, "group": "control_change"}, {"time": 4303, "annotation": {"number": 64, "value": 127}, "group": "control_change"}, {"time": 4317, "annotation": {"number": 64, "value": 0}, "group": "control_change"}, {"time": 4322, "annotation": {"number": 64, "value": 127}, "group": "control_change"}, {"time": 4324, "annotation": {"number": 64, "value": 0}, "group": "control_change"}, {"time": 4328, "annotation": {"number": 64, "value": 127}, "group": "control_change"}, {"time": 4347, "annotation": {"number": 64, "value": 0}, "group": "control_change"}, {"time": 4351, "annotation": {"number": 64, "value": 127}, "group": "control_change"}, {"time": 4365, "annotation": {"number": 64, "value": 0}, "group": "control_change"}, {"time": 4370, "annotation": {"number": 64, "value": 127}, "group": "control_change"}, {"time": 4371, "annotation": {"number": 64, "value": 0}, "group": "control_change"}, {"time": 4375, "annotation": {"number": 64, "value": 127}, "group": "control_change"}, {"time": 4395, "annotation": {"number": 64, "value": 0}, "group": "control_change"}, {"time": 4519, "annotation": {"number": 64, "value": 127}, "group": "control_change"}, {"time": 4522, "annotation": {"number": 64, "value": 0}, "group": "control_change"}]}]}