{"metadata": {"schema_version": "0.2", "title": "None", "source_filename": "079.mid", "source_format": "midi"}, "resolution": 12, "tempos": [{"time": 0, "qpm": 55.99997760000896}, {"time": 144, "qpm": 58.00004253336452}, {"time": 180, "qpm": 57.000031350017245}, {"time": 204, "qpm": 60.0}, {"time": 228, "qpm": 58.00004253336452}, {"time": 2844, "qpm": 56.499994820833805}, {"time": 2904, "qpm": 61.99999586666694}, {"time": 2928, "qpm": 58.00004253336452}], "time_signatures": [{"time": 0, "numerator": 1, "denominator": 4}], "tracks": [{"program": 0, "is_drum": false, "name": "MELODY", "notes": [{"time": 381, "pitch": 72, "duration": 3, "velocity": 100}, {"time": 384, "pitch": 74, "duration": 3, "velocity": 97}, {"time": 387, "pitch": 76, "duration": 3, "velocity": 117}, {"time": 390, "pitch": 79, "duration": 3, "velocity": 100}, {"time": 393, "pitch": 79, "duration": 3, "velocity": 97}, {"time": 396, "pitch": 79, "duration": 3, "velocity": 93}, {"time": 399, "pitch": 79, "duration": 3, "velocity": 100}, {"time": 402, "pitch": 79, "duration": 3, "velocity": 93}, {"time": 405, "pitch": 79, "duration": 3, "velocity": 97}, {"time": 408, "pitch": 76, "duration": 3, "velocity": 67}, {"time": 411, "pitch": 81, "duration": 6, "velocity": 102}, {"time": 417, "pitch": 79, "duration": 12, "velocity": 117}, {"time": 429, "pitch": 84, "duration": 3, "velocity": 127}, {"time": 432, "pitch": 83, "duration": 3, "velocity": 82}, {"time": 435, "pitch": 84, "duration": 6, "velocity": 122}, {"time": 441, "pitch": 83, "duration": 3, "velocity": 99}, {"time": 444, "pitch": 84, "duration": 9, "velocity": 127}, {"time": 453, "pitch": 76, "duration": 3, "velocity": 93}, {"time": 456, "pitch": 79, "duration": 21, "velocity": 92}, {"time": 477, "pitch": 76, "duration": 3, "velocity": 112}, {"time": 480, "pitch": 79, "duration": 3, "velocity": 102}, {"time": 483, "pitch": 81, "duration": 3, "velocity": 100}, {"time": 486, "pitch": 81, "duration": 3, "velocity": 95}, {"time": 489, "pitch": 81, "duration": 3, "velocity": 107}, {"time": 492, "pitch": 81, "duration": 3, "velocity": 117}, {"time": 495, "pitch": 81, "duration": 6, "velocity": 127}, {"time": 501, "pitch": 81, "duration": 3, "velocity": 117}, {"time": 504, "pitch": 84, "duration": 3, "velocity": 86}, {"time": 507, "pitch": 81, "duration": 6, "velocity": 127}, {"time": 513, "pitch": 79, "duration": 3, "velocity": 97}, {"time": 516, "pitch": 76, "duration": 15, "velocity": 79}, {"time": 531, "pitch": 74, "duration": 3, "velocity": 117}, {"time": 534, "pitch": 74, "duration": 3, "velocity": 93}, {"time": 537, "pitch": 74, "duration": 3, "velocity": 93}, {"time": 540, "pitch": 74, "duration": 3, "velocity": 96}, {"time": 543, "pitch": 74, "duration": 3, "velocity": 97}, {"time": 546, "pitch": 72, "duration": 6, "velocity": 107}, {"time": 552, "pitch": 69, "duration": 3, "velocity": 96}, {"time": 555, "pitch": 79, "duration": 6, "velocity": 102}, {"time": 561, "pitch": 76, "duration": 3, "velocity": 99}, {"time": 564, "pitch": 74, "duration": 9, "velocity": 96}, {"time": 573, "pitch": 74, "duration": 3, "velocity": 96}, {"time": 576, "pitch": 76, "duration": 3, "velocity": 96}, {"time": 579, "pitch": 79, "duration": 3, "velocity": 96}, {"time": 582, "pitch": 79, "duration": 3, "velocity": 89}, {"time": 585, "pitch": 79, "duration": 3, "velocity": 97}, {"time": 588, "pitch": 79, "duration": 3, "velocity": 96}, {"time": 591, "pitch": 79, "duration": 3, "velocity": 117}, {"time": 594, "pitch": 79, "duration": 3, "velocity": 100}, {"time": 597, "pitch": 79, "duration": 3, "velocity": 107}, {"time": 600, "pitch": 76, "duration": 3, "velocity": 92}, {"time": 603, "pitch": 81, "duration": 6, "velocity": 112}, {"time": 609, "pitch": 79, "duration": 12, "velocity": 102}, {"time": 621, "pitch": 81, "duration": 3, "velocity": 102}, {"time": 624, "pitch": 83, "duration": 3, "velocity": 100}, {"time": 627, "pitch": 84, "duration": 3, "velocity": 112}, {"time": 630, "pitch": 84, "duration": 3, "velocity": 100}, {"time": 633, "pitch": 84, "duration": 3, "velocity": 107}, {"time": 636, "pitch": 84, "duration": 3, "velocity": 112}, {"time": 639, "pitch": 84, "duration": 6, "velocity": 122}, {"time": 645, "pitch": 76, "duration": 3, "velocity": 74}, {"time": 648, "pitch": 74, "duration": 6, "velocity": 69}, {"time": 654, "pitch": 76, "duration": 15, "velocity": 102}, {"time": 669, "pitch": 76, "duration": 3, "velocity": 100}, {"time": 672, "pitch": 79, "duration": 3, "velocity": 93}, {"time": 675, "pitch": 81, "duration": 3, "velocity": 100}, {"time": 678, "pitch": 81, "duration": 3, "velocity": 96}, {"time": 681, "pitch": 81, "duration": 3, "velocity": 97}, {"time": 684, "pitch": 81, "duration": 3, "velocity": 97}, {"time": 687, "pitch": 81, "duration": 6, "velocity": 112}, {"time": 693, "pitch": 81, "duration": 3, "velocity": 107}, {"time": 696, "pitch": 84, "duration": 3, "velocity": 127}, {"time": 699, "pitch": 81, "duration": 6, "velocity": 99}, {"time": 705, "pitch": 79, "duration": 6, "velocity": 89}, {"time": 711, "pitch": 76, "duration": 12, "velocity": 95}, {"time": 723, "pitch": 74, "duration": 3, "velocity": 112}, {"time": 726, "pitch": 74, "duration": 3, "velocity": 90}, {"time": 729, "pitch": 74, "duration": 3, "velocity": 107}, {"time": 732, "pitch": 72, "duration": 3, "velocity": 100}, {"time": 735, "pitch": 69, "duration": 9, "velocity": 112}, {"time": 744, "pitch": 72, "duration": 3, "velocity": 112}, {"time": 747, "pitch": 72, "duration": 18, "velocity": 107}, {"time": 765, "pitch": 84, "duration": 3, "velocity": 127}, {"time": 768, "pitch": 83, "duration": 3, "velocity": 102}, {"time": 771, "pitch": 81, "duration": 6, "velocity": 127}, {"time": 777, "pitch": 83, "duration": 3, "velocity": 112}, {"time": 780, "pitch": 84, "duration": 9, "velocity": 127}, {"time": 789, "pitch": 86, "duration": 6, "velocity": 127}, {"time": 795, "pitch": 83, "duration": 6, "velocity": 117}, {"time": 801, "pitch": 81, "duration": 3, "velocity": 96}, {"time": 804, "pitch": 79, "duration": 9, "velocity": 97}, {"time": 813, "pitch": 76, "duration": 3, "velocity": 100}, {"time": 816, "pitch": 79, "duration": 3, "velocity": 100}, {"time": 819, "pitch": 81, "duration": 3, "velocity": 122}, {"time": 822, "pitch": 81, "duration": 3, "velocity": 107}, {"time": 825, "pitch": 81, "duration": 3, "velocity": 112}, {"time": 828, "pitch": 81, "duration": 3, "velocity": 100}, {"time": 831, "pitch": 81, "duration": 6, "velocity": 127}, {"time": 837, "pitch": 74, "duration": 3, "velocity": 112}, {"time": 840, "pitch": 76, "duration": 21, "velocity": 107}, {"time": 861, "pitch": 84, "duration": 3, "velocity": 127}, {"time": 864, "pitch": 83, "duration": 3, "velocity": 97}, {"time": 867, "pitch": 81, "duration": 6, "velocity": 107}, {"time": 873, "pitch": 83, "duration": 3, "velocity": 102}, {"time": 876, "pitch": 84, "duration": 9, "velocity": 127}, {"time": 885, "pitch": 88, "duration": 6, "velocity": 107}, {"time": 891, "pitch": 76, "duration": 3, "velocity": 122}, {"time": 894, "pitch": 79, "duration": 6, "velocity": 112}, {"time": 900, "pitch": 83, "duration": 6, "velocity": 107}, {"time": 906, "pitch": 79, "duration": 3, "velocity": 92}, {"time": 909, "pitch": 81, "duration": 3, "velocity": 99}, {"time": 912, "pitch": 83, "duration": 3, "velocity": 102}, {"time": 915, "pitch": 84, "duration": 3, "velocity": 122}, {"time": 918, "pitch": 84, "duration": 3, "velocity": 122}, {"time": 921, "pitch": 84, "duration": 3, "velocity": 127}, {"time": 924, "pitch": 84, "duration": 3, "velocity": 122}, {"time": 927, "pitch": 84, "duration": 6, "velocity": 127}, {"time": 933, "pitch": 84, "duration": 3, "velocity": 117}, {"time": 936, "pitch": 81, "duration": 3, "velocity": 93}, {"time": 939, "pitch": 88, "duration": 6, "velocity": 127}, {"time": 945, "pitch": 86, "duration": 3, "velocity": 107}, {"time": 948, "pitch": 86, "duration": 30, "velocity": 127}, {"time": 978, "pitch": 79, "duration": 3, "velocity": 90}, {"time": 981, "pitch": 84, "duration": 3, "velocity": 100}, {"time": 984, "pitch": 86, "duration": 3, "velocity": 100}, {"time": 987, "pitch": 88, "duration": 3, "velocity": 127}, {"time": 990, "pitch": 88, "duration": 3, "velocity": 99}, {"time": 993, "pitch": 88, "duration": 3, "velocity": 122}, {"time": 996, "pitch": 88, "duration": 3, "velocity": 127}, {"time": 999, "pitch": 88, "duration": 6, "velocity": 127}, {"time": 1005, "pitch": 86, "duration": 3, "velocity": 122}, {"time": 1008, "pitch": 84, "duration": 3, "velocity": 107}, {"time": 1011, "pitch": 86, "duration": 6, "velocity": 127}, {"time": 1017, "pitch": 88, "duration": 3, "velocity": 127}, {"time": 1020, "pitch": 86, "duration": 9, "velocity": 127}, {"time": 1029, "pitch": 88, "duration": 3, "velocity": 127}, {"time": 1032, "pitch": 86, "duration": 3, "velocity": 107}, {"time": 1035, "pitch": 84, "duration": 6, "velocity": 107}, {"time": 1041, "pitch": 83, "duration": 3, "velocity": 96}, {"time": 1044, "pitch": 84, "duration": 9, "velocity": 122}, {"time": 1053, "pitch": 76, "duration": 3, "velocity": 107}, {"time": 1056, "pitch": 79, "duration": 24, "velocity": 117}, {"time": 1080, "pitch": 79, "duration": 3, "velocity": 102}, {"time": 1083, "pitch": 81, "duration": 3, "velocity": 117}, {"time": 1086, "pitch": 84, "duration": 3, "velocity": 100}, {"time": 1089, "pitch": 84, "duration": 3, "velocity": 112}, {"time": 1092, "pitch": 81, "duration": 3, "velocity": 97}, {"time": 1095, "pitch": 86, "duration": 3, "velocity": 117}, {"time": 1098, "pitch": 84, "duration": 6, "velocity": 127}, {"time": 1104, "pitch": 88, "duration": 6, "velocity": 127}, {"time": 1110, "pitch": 88, "duration": 3, "velocity": 127}, {"time": 1113, "pitch": 86, "duration": 3, "velocity": 117}, {"time": 1116, "pitch": 88, "duration": 3, "velocity": 107}, {"time": 1119, "pitch": 86, "duration": 3, "velocity": 117}, {"time": 1122, "pitch": 84, "duration": 9, "velocity": 127}, {"time": 1131, "pitch": 86, "duration": 3, "velocity": 127}, {"time": 1134, "pitch": 86, "duration": 3, "velocity": 112}, {"time": 1137, "pitch": 86, "duration": 3, "velocity": 122}, {"time": 1140, "pitch": 84, "duration": 3, "velocity": 127}, {"time": 1143, "pitch": 81, "duration": 3, "velocity": 117}, {"time": 1146, "pitch": 88, "duration": 9, "velocity": 122}, {"time": 1155, "pitch": 86, "duration": 15, "velocity": 127}, {"time": 1170, "pitch": 79, "duration": 3, "velocity": 107}, {"time": 1173, "pitch": 84, "duration": 3, "velocity": 112}, {"time": 1176, "pitch": 86, "duration": 3, "velocity": 127}, {"time": 1179, "pitch": 88, "duration": 3, "velocity": 127}, {"time": 1182, "pitch": 88, "duration": 3, "velocity": 127}, {"time": 1185, "pitch": 88, "duration": 3, "velocity": 122}, {"time": 1188, "pitch": 88, "duration": 3, "velocity": 127}, {"time": 1191, "pitch": 88, "duration": 3, "velocity": 122}, {"time": 1194, "pitch": 86, "duration": 6, "velocity": 112}, {"time": 1200, "pitch": 84, "duration": 3, "velocity": 107}, {"time": 1203, "pitch": 86, "duration": 6, "velocity": 127}, {"time": 1209, "pitch": 88, "duration": 3, "velocity": 127}, {"time": 1212, "pitch": 86, "duration": 9, "velocity": 127}, {"time": 1221, "pitch": 88, "duration": 3, "velocity": 127}, {"time": 1224, "pitch": 86, "duration": 3, "velocity": 122}, {"time": 1227, "pitch": 84, "duration": 6, "velocity": 127}, {"time": 1233, "pitch": 83, "duration": 3, "velocity": 122}, {"time": 1236, "pitch": 84, "duration": 9, "velocity": 122}, {"time": 1245, "pitch": 88, "duration": 3, "velocity": 122}, {"time": 1248, "pitch": 91, "duration": 24, "velocity": 122}, {"time": 1272, "pitch": 84, "duration": 3, "velocity": 97}, {"time": 1275, "pitch": 93, "duration": 3, "velocity": 122}, {"time": 1278, "pitch": 93, "duration": 3, "velocity": 122}, {"time": 1281, "pitch": 93, "duration": 3, "velocity": 122}, {"time": 1284, "pitch": 93, "duration": 3, "velocity": 112}, {"time": 1287, "pitch": 93, "duration": 6, "velocity": 127}, {"time": 1293, "pitch": 93, "duration": 3, "velocity": 127}, {"time": 1296, "pitch": 91, "duration": 3, "velocity": 97}, {"time": 1299, "pitch": 91, "duration": 6, "velocity": 117}, {"time": 1305, "pitch": 91, "duration": 3, "velocity": 127}, {"time": 1308, "pitch": 88, "duration": 12, "velocity": 112}, {"time": 1320, "pitch": 84, "duration": 3, "velocity": 127}, {"time": 1323, "pitch": 86, "duration": 3, "velocity": 127}, {"time": 1326, "pitch": 86, "duration": 3, "velocity": 122}, {"time": 1329, "pitch": 86, "duration": 3, "velocity": 117}, {"time": 1332, "pitch": 86, "duration": 3, "velocity": 112}, {"time": 1335, "pitch": 86, "duration": 6, "velocity": 127}, {"time": 1341, "pitch": 84, "duration": 3, "velocity": 122}, {"time": 1344, "pitch": 86, "duration": 15, "velocity": 127}, {"time": 1359, "pitch": 81, "duration": 6, "velocity": 102}, {"time": 1365, "pitch": 83, "duration": 3, "velocity": 107}, {"time": 1368, "pitch": 84, "duration": 34, "velocity": 122}, {"time": 1605, "pitch": 72, "duration": 3, "velocity": 112}, {"time": 1608, "pitch": 74, "duration": 3, "velocity": 97}, {"time": 1611, "pitch": 76, "duration": 3, "velocity": 117}, {"time": 1614, "pitch": 79, "duration": 3, "velocity": 89}, {"time": 1617, "pitch": 79, "duration": 3, "velocity": 97}, {"time": 1620, "pitch": 79, "duration": 3, "velocity": 96}, {"time": 1623, "pitch": 79, "duration": 3, "velocity": 117}, {"time": 1626, "pitch": 79, "duration": 3, "velocity": 100}, {"time": 1629, "pitch": 79, "duration": 3, "velocity": 107}, {"time": 1632, "pitch": 76, "duration": 3, "velocity": 92}, {"time": 1635, "pitch": 81, "duration": 6, "velocity": 112}, {"time": 1641, "pitch": 79, "duration": 12, "velocity": 102}, {"time": 1653, "pitch": 81, "duration": 3, "velocity": 102}, {"time": 1656, "pitch": 83, "duration": 3, "velocity": 100}, {"time": 1659, "pitch": 84, "duration": 3, "velocity": 112}, {"time": 1662, "pitch": 84, "duration": 3, "velocity": 100}, {"time": 1665, "pitch": 84, "duration": 3, "velocity": 107}, {"time": 1668, "pitch": 84, "duration": 3, "velocity": 112}, {"time": 1671, "pitch": 84, "duration": 6, "velocity": 122}, {"time": 1677, "pitch": 76, "duration": 3, "velocity": 74}, {"time": 1680, "pitch": 74, "duration": 6, "velocity": 69}, {"time": 1686, "pitch": 76, "duration": 15, "velocity": 102}, {"time": 1701, "pitch": 76, "duration": 3, "velocity": 100}, {"time": 1704, "pitch": 79, "duration": 3, "velocity": 93}, {"time": 1707, "pitch": 81, "duration": 3, "velocity": 100}, {"time": 1710, "pitch": 81, "duration": 3, "velocity": 96}, {"time": 1713, "pitch": 81, "duration": 3, "velocity": 97}, {"time": 1716, "pitch": 81, "duration": 3, "velocity": 97}, {"time": 1719, "pitch": 81, "duration": 6, "velocity": 112}, {"time": 1725, "pitch": 81, "duration": 3, "velocity": 107}, {"time": 1728, "pitch": 84, "duration": 3, "velocity": 127}, {"time": 1731, "pitch": 81, "duration": 6, "velocity": 99}, {"time": 1737, "pitch": 79, "duration": 6, "velocity": 89}, {"time": 1743, "pitch": 76, "duration": 12, "velocity": 95}, {"time": 1755, "pitch": 74, "duration": 3, "velocity": 112}, {"time": 1758, "pitch": 74, "duration": 3, "velocity": 90}, {"time": 1761, "pitch": 74, "duration": 3, "velocity": 107}, {"time": 1764, "pitch": 72, "duration": 3, "velocity": 100}, {"time": 1767, "pitch": 69, "duration": 9, "velocity": 112}, {"time": 1776, "pitch": 72, "duration": 3, "velocity": 112}, {"time": 1779, "pitch": 72, "duration": 18, "velocity": 107}, {"time": 1797, "pitch": 84, "duration": 3, "velocity": 127}, {"time": 1800, "pitch": 83, "duration": 3, "velocity": 102}, {"time": 1803, "pitch": 81, "duration": 6, "velocity": 127}, {"time": 1809, "pitch": 83, "duration": 3, "velocity": 112}, {"time": 1812, "pitch": 84, "duration": 9, "velocity": 127}, {"time": 1821, "pitch": 86, "duration": 6, "velocity": 127}, {"time": 1827, "pitch": 83, "duration": 6, "velocity": 117}, {"time": 1833, "pitch": 81, "duration": 3, "velocity": 96}, {"time": 1836, "pitch": 79, "duration": 9, "velocity": 97}, {"time": 1845, "pitch": 76, "duration": 3, "velocity": 100}, {"time": 1848, "pitch": 79, "duration": 3, "velocity": 100}, {"time": 1851, "pitch": 81, "duration": 3, "velocity": 122}, {"time": 1854, "pitch": 81, "duration": 3, "velocity": 107}, {"time": 1857, "pitch": 81, "duration": 3, "velocity": 112}, {"time": 1860, "pitch": 81, "duration": 3, "velocity": 100}, {"time": 1863, "pitch": 81, "duration": 6, "velocity": 127}, {"time": 1869, "pitch": 74, "duration": 3, "velocity": 112}, {"time": 1872, "pitch": 76, "duration": 21, "velocity": 107}, {"time": 1893, "pitch": 84, "duration": 3, "velocity": 127}, {"time": 1896, "pitch": 83, "duration": 3, "velocity": 97}, {"time": 1899, "pitch": 81, "duration": 6, "velocity": 107}, {"time": 1905, "pitch": 83, "duration": 3, "velocity": 102}, {"time": 1908, "pitch": 84, "duration": 9, "velocity": 127}, {"time": 1917, "pitch": 88, "duration": 6, "velocity": 107}, {"time": 1923, "pitch": 76, "duration": 3, "velocity": 122}, {"time": 1926, "pitch": 79, "duration": 6, "velocity": 112}, {"time": 1932, "pitch": 83, "duration": 6, "velocity": 107}, {"time": 1938, "pitch": 79, "duration": 3, "velocity": 92}, {"time": 1941, "pitch": 81, "duration": 3, "velocity": 99}, {"time": 1944, "pitch": 83, "duration": 3, "velocity": 102}, {"time": 1947, "pitch": 84, "duration": 3, "velocity": 122}, {"time": 1950, "pitch": 84, "duration": 3, "velocity": 122}, {"time": 1953, "pitch": 84, "duration": 3, "velocity": 127}, {"time": 1956, "pitch": 84, "duration": 3, "velocity": 122}, {"time": 1959, "pitch": 84, "duration": 6, "velocity": 127}, {"time": 1965, "pitch": 84, "duration": 3, "velocity": 117}, {"time": 1968, "pitch": 81, "duration": 3, "velocity": 93}, {"time": 1971, "pitch": 88, "duration": 6, "velocity": 127}, {"time": 1977, "pitch": 86, "duration": 3, "velocity": 107}, {"time": 1980, "pitch": 86, "duration": 30, "velocity": 127}, {"time": 2010, "pitch": 79, "duration": 3, "velocity": 90}, {"time": 2013, "pitch": 84, "duration": 3, "velocity": 100}, {"time": 2016, "pitch": 86, "duration": 3, "velocity": 100}, {"time": 2019, "pitch": 88, "duration": 3, "velocity": 127}, {"time": 2022, "pitch": 88, "duration": 3, "velocity": 99}, {"time": 2025, "pitch": 88, "duration": 3, "velocity": 122}, {"time": 2028, "pitch": 88, "duration": 3, "velocity": 127}, {"time": 2031, "pitch": 88, "duration": 6, "velocity": 127}, {"time": 2037, "pitch": 86, "duration": 3, "velocity": 122}, {"time": 2040, "pitch": 84, "duration": 3, "velocity": 107}, {"time": 2043, "pitch": 86, "duration": 6, "velocity": 127}, {"time": 2049, "pitch": 88, "duration": 3, "velocity": 127}, {"time": 2052, "pitch": 86, "duration": 9, "velocity": 127}, {"time": 2061, "pitch": 88, "duration": 3, "velocity": 127}, {"time": 2064, "pitch": 86, "duration": 3, "velocity": 107}, {"time": 2067, "pitch": 84, "duration": 6, "velocity": 107}, {"time": 2073, "pitch": 83, "duration": 3, "velocity": 96}, {"time": 2076, "pitch": 84, "duration": 9, "velocity": 122}, {"time": 2085, "pitch": 76, "duration": 3, "velocity": 107}, {"time": 2088, "pitch": 79, "duration": 24, "velocity": 117}, {"time": 2112, "pitch": 79, "duration": 3, "velocity": 102}, {"time": 2115, "pitch": 81, "duration": 3, "velocity": 117}, {"time": 2118, "pitch": 84, "duration": 3, "velocity": 100}, {"time": 2121, "pitch": 84, "duration": 3, "velocity": 112}, {"time": 2124, "pitch": 81, "duration": 3, "velocity": 97}, {"time": 2127, "pitch": 86, "duration": 3, "velocity": 117}, {"time": 2130, "pitch": 84, "duration": 6, "velocity": 127}, {"time": 2136, "pitch": 88, "duration": 6, "velocity": 127}, {"time": 2142, "pitch": 88, "duration": 3, "velocity": 127}, {"time": 2145, "pitch": 86, "duration": 3, "velocity": 117}, {"time": 2148, "pitch": 88, "duration": 3, "velocity": 107}, {"time": 2151, "pitch": 86, "duration": 3, "velocity": 117}, {"time": 2154, "pitch": 84, "duration": 9, "velocity": 127}, {"time": 2163, "pitch": 86, "duration": 3, "velocity": 127}, {"time": 2166, "pitch": 86, "duration": 3, "velocity": 112}, {"time": 2169, "pitch": 86, "duration": 3, "velocity": 122}, {"time": 2172, "pitch": 84, "duration": 3, "velocity": 127}, {"time": 2175, "pitch": 81, "duration": 3, "velocity": 117}, {"time": 2178, "pitch": 88, "duration": 9, "velocity": 122}, {"time": 2187, "pitch": 86, "duration": 15, "velocity": 127}, {"time": 2202, "pitch": 79, "duration": 3, "velocity": 107}, {"time": 2205, "pitch": 84, "duration": 3, "velocity": 112}, {"time": 2208, "pitch": 86, "duration": 3, "velocity": 127}, {"time": 2211, "pitch": 88, "duration": 3, "velocity": 127}, {"time": 2214, "pitch": 88, "duration": 3, "velocity": 127}, {"time": 2217, "pitch": 88, "duration": 3, "velocity": 122}, {"time": 2220, "pitch": 88, "duration": 3, "velocity": 127}, {"time": 2223, "pitch": 88, "duration": 3, "velocity": 122}, {"time": 2226, "pitch": 86, "duration": 6, "velocity": 112}, {"time": 2232, "pitch": 84, "duration": 3, "velocity": 107}, {"time": 2235, "pitch": 86, "duration": 6, "velocity": 127}, {"time": 2241, "pitch": 88, "duration": 3, "velocity": 127}, {"time": 2244, "pitch": 86, "duration": 9, "velocity": 127}, {"time": 2253, "pitch": 88, "duration": 3, "velocity": 127}, {"time": 2256, "pitch": 86, "duration": 3, "velocity": 122}, {"time": 2259, "pitch": 84, "duration": 6, "velocity": 127}, {"time": 2265, "pitch": 83, "duration": 3, "velocity": 122}, {"time": 2268, "pitch": 84, "duration": 9, "velocity": 122}, {"time": 2277, "pitch": 88, "duration": 3, "velocity": 122}, {"time": 2280, "pitch": 91, "duration": 24, "velocity": 122}, {"time": 2304, "pitch": 84, "duration": 3, "velocity": 97}, {"time": 2307, "pitch": 93, "duration": 3, "velocity": 122}, {"time": 2310, "pitch": 93, "duration": 3, "velocity": 122}, {"time": 2313, "pitch": 93, "duration": 3, "velocity": 122}, {"time": 2316, "pitch": 93, "duration": 3, "velocity": 112}, {"time": 2319, "pitch": 93, "duration": 6, "velocity": 127}, {"time": 2325, "pitch": 93, "duration": 3, "velocity": 127}, {"time": 2328, "pitch": 91, "duration": 3, "velocity": 97}, {"time": 2331, "pitch": 91, "duration": 6, "velocity": 117}, {"time": 2337, "pitch": 91, "duration": 3, "velocity": 127}, {"time": 2340, "pitch": 88, "duration": 12, "velocity": 112}, {"time": 2352, "pitch": 84, "duration": 3, "velocity": 127}, {"time": 2355, "pitch": 86, "duration": 3, "velocity": 127}, {"time": 2358, "pitch": 86, "duration": 3, "velocity": 122}, {"time": 2361, "pitch": 86, "duration": 3, "velocity": 117}, {"time": 2364, "pitch": 86, "duration": 3, "velocity": 112}, {"time": 2367, "pitch": 86, "duration": 6, "velocity": 127}, {"time": 2373, "pitch": 84, "duration": 3, "velocity": 122}, {"time": 2376, "pitch": 86, "duration": 15, "velocity": 127}, {"time": 2391, "pitch": 81, "duration": 6, "velocity": 102}, {"time": 2397, "pitch": 83, "duration": 3, "velocity": 107}, {"time": 2400, "pitch": 86, "duration": 9, "velocity": 122}, {"time": 2409, "pitch": 84, "duration": 33, "velocity": 122}, {"time": 2442, "pitch": 79, "duration": 3, "velocity": 90}, {"time": 2445, "pitch": 84, "duration": 3, "velocity": 100}, {"time": 2448, "pitch": 86, "duration": 3, "velocity": 100}, {"time": 2451, "pitch": 88, "duration": 3, "velocity": 127}, {"time": 2454, "pitch": 88, "duration": 3, "velocity": 99}, {"time": 2457, "pitch": 88, "duration": 3, "velocity": 122}, {"time": 2460, "pitch": 88, "duration": 3, "velocity": 127}, {"time": 2463, "pitch": 88, "duration": 6, "velocity": 127}, {"time": 2469, "pitch": 86, "duration": 3, "velocity": 122}, {"time": 2472, "pitch": 84, "duration": 3, "velocity": 107}, {"time": 2475, "pitch": 86, "duration": 6, "velocity": 127}, {"time": 2481, "pitch": 88, "duration": 3, "velocity": 127}, {"time": 2484, "pitch": 86, "duration": 9, "velocity": 127}, {"time": 2493, "pitch": 88, "duration": 3, "velocity": 127}, {"time": 2496, "pitch": 86, "duration": 3, "velocity": 107}, {"time": 2499, "pitch": 84, "duration": 6, "velocity": 107}, {"time": 2505, "pitch": 83, "duration": 3, "velocity": 96}, {"time": 2508, "pitch": 84, "duration": 9, "velocity": 122}, {"time": 2517, "pitch": 76, "duration": 3, "velocity": 107}, {"time": 2520, "pitch": 79, "duration": 24, "velocity": 117}, {"time": 2544, "pitch": 79, "duration": 3, "velocity": 102}, {"time": 2547, "pitch": 81, "duration": 3, "velocity": 117}, {"time": 2550, "pitch": 84, "duration": 3, "velocity": 100}, {"time": 2553, "pitch": 84, "duration": 3, "velocity": 112}, {"time": 2556, "pitch": 81, "duration": 3, "velocity": 97}, {"time": 2559, "pitch": 86, "duration": 3, "velocity": 117}, {"time": 2562, "pitch": 84, "duration": 6, "velocity": 127}, {"time": 2568, "pitch": 88, "duration": 6, "velocity": 127}, {"time": 2574, "pitch": 88, "duration": 3, "velocity": 127}, {"time": 2577, "pitch": 86, "duration": 3, "velocity": 117}, {"time": 2580, "pitch": 88, "duration": 3, "velocity": 107}, {"time": 2583, "pitch": 86, "duration": 3, "velocity": 117}, {"time": 2586, "pitch": 84, "duration": 9, "velocity": 127}, {"time": 2595, "pitch": 86, "duration": 3, "velocity": 127}, {"time": 2598, "pitch": 86, "duration": 3, "velocity": 112}, {"time": 2601, "pitch": 86, "duration": 3, "velocity": 122}, {"time": 2604, "pitch": 84, "duration": 3, "velocity": 127}, {"time": 2607, "pitch": 81, "duration": 3, "velocity": 117}, {"time": 2610, "pitch": 88, "duration": 9, "velocity": 122}, {"time": 2619, "pitch": 86, "duration": 15, "velocity": 127}, {"time": 2634, "pitch": 79, "duration": 3, "velocity": 107}, {"time": 2637, "pitch": 84, "duration": 3, "velocity": 112}, {"time": 2640, "pitch": 86, "duration": 3, "velocity": 127}, {"time": 2643, "pitch": 88, "duration": 3, "velocity": 127}, {"time": 2646, "pitch": 88, "duration": 3, "velocity": 127}, {"time": 2649, "pitch": 88, "duration": 3, "velocity": 122}, {"time": 2652, "pitch": 88, "duration": 3, "velocity": 127}, {"time": 2655, "pitch": 88, "duration": 3, "velocity": 122}, {"time": 2658, "pitch": 86, "duration": 6, "velocity": 112}, {"time": 2664, "pitch": 84, "duration": 3, "velocity": 107}, {"time": 2667, "pitch": 86, "duration": 6, "velocity": 127}, {"time": 2673, "pitch": 88, "duration": 3, "velocity": 127}, {"time": 2676, "pitch": 86, "duration": 9, "velocity": 127}, {"time": 2685, "pitch": 88, "duration": 3, "velocity": 127}, {"time": 2688, "pitch": 86, "duration": 3, "velocity": 122}, {"time": 2691, "pitch": 84, "duration": 6, "velocity": 127}, {"time": 2697, "pitch": 83, "duration": 3, "velocity": 122}, {"time": 2700, "pitch": 84, "duration": 9, "velocity": 122}, {"time": 2709, "pitch": 88, "duration": 3, "velocity": 122}, {"time": 2712, "pitch": 91, "duration": 24, "velocity": 122}, {"time": 2736, "pitch": 84, "duration": 3, "velocity": 97}, {"time": 2739, "pitch": 93, "duration": 3, "velocity": 122}, {"time": 2742, "pitch": 93, "duration": 3, "velocity": 122}, {"time": 2745, "pitch": 93, "duration": 3, "velocity": 122}, {"time": 2748, "pitch": 93, "duration": 3, "velocity": 112}, {"time": 2751, "pitch": 93, "duration": 6, "velocity": 127}, {"time": 2757, "pitch": 93, "duration": 3, "velocity": 127}, {"time": 2760, "pitch": 91, "duration": 3, "velocity": 97}, {"time": 2763, "pitch": 91, "duration": 6, "velocity": 117}, {"time": 2769, "pitch": 91, "duration": 3, "velocity": 127}, {"time": 2772, "pitch": 88, "duration": 12, "velocity": 112}, {"time": 2784, "pitch": 84, "duration": 3, "velocity": 127}, {"time": 2787, "pitch": 86, "duration": 3, "velocity": 127}, {"time": 2790, "pitch": 86, "duration": 3, "velocity": 122}, {"time": 2793, "pitch": 86, "duration": 3, "velocity": 117}, {"time": 2796, "pitch": 86, "duration": 3, "velocity": 112}, {"time": 2799, "pitch": 86, "duration": 6, "velocity": 127}, {"time": 2805, "pitch": 84, "duration": 3, "velocity": 122}, {"time": 2808, "pitch": 86, "duration": 43, "velocity": 127}, {"time": 2851, "pitch": 81, "duration": 11, "velocity": 102}, {"time": 2862, "pitch": 83, "duration": 11, "velocity": 122}, {"time": 2873, "pitch": 86, "duration": 7, "velocity": 117}, {"time": 2880, "pitch": 84, "duration": 36, "velocity": 117}]}, {"program": 0, "is_drum": false, "name": "PIANO", "notes": [{"time": 7, "pitch": 55, "duration": 91, "velocity": 74}, {"time": 7, "pitch": 64, "duration": 92, "velocity": 83}, {"time": 7, "pitch": 60, "duration": 91, "velocity": 82}, {"time": 8, "pitch": 48, "duration": 91, "velocity": 81}, {"time": 8, "pitch": 43, "duration": 91, "velocity": 90}, {"time": 8, "pitch": 36, "duration": 91, "velocity": 65}, {"time": 99, "pitch": 48, "duration": 1, "velocity": 93}, {"time": 102, "pitch": 55, "duration": 10, "velocity": 58}, {"time": 105, "pitch": 60, "duration": 7, "velocity": 65}, {"time": 108, "pitch": 64, "duration": 3, "velocity": 78}, {"time": 111, "pitch": 67, "duration": 15, "velocity": 102}, {"time": 114, "pitch": 55, "duration": 3, "velocity": 71}, {"time": 117, "pitch": 64, "duration": 9, "velocity": 95}, {"time": 120, "pitch": 60, "duration": 3, "velocity": 74}, {"time": 123, "pitch": 47, "duration": 15, "velocity": 88}, {"time": 126, "pitch": 59, "duration": 3, "velocity": 75}, {"time": 129, "pitch": 64, "duration": 4, "velocity": 78}, {"time": 132, "pitch": 59, "duration": 4, "velocity": 76}, {"time": 135, "pitch": 67, "duration": 12, "velocity": 96}, {"time": 138, "pitch": 59, "duration": 3, "velocity": 69}, {"time": 141, "pitch": 64, "duration": 6, "velocity": 100}, {"time": 144, "pitch": 59, "duration": 3, "velocity": 83}, {"time": 147, "pitch": 45, "duration": 19, "velocity": 72}, {"time": 150, "pitch": 52, "duration": 9, "velocity": 71}, {"time": 153, "pitch": 57, "duration": 6, "velocity": 81}, {"time": 156, "pitch": 60, "duration": 3, "velocity": 71}, {"time": 159, "pitch": 64, "duration": 12, "velocity": 100}, {"time": 162, "pitch": 52, "duration": 3, "velocity": 73}, {"time": 165, "pitch": 60, "duration": 6, "velocity": 83}, {"time": 168, "pitch": 57, "duration": 2, "velocity": 58}, {"time": 171, "pitch": 43, "duration": 18, "velocity": 95}, {"time": 174, "pitch": 50, "duration": 8, "velocity": 55}, {"time": 177, "pitch": 55, "duration": 4, "velocity": 82}, {"time": 180, "pitch": 62, "duration": 8, "velocity": 122}, {"time": 183, "pitch": 59, "duration": 7, "velocity": 61}, {"time": 186, "pitch": 50, "duration": 3, "velocity": 68}, {"time": 189, "pitch": 55, "duration": 5, "velocity": 81}, {"time": 192, "pitch": 62, "duration": 3, "velocity": 93}, {"time": 195, "pitch": 41, "duration": 20, "velocity": 88}, {"time": 198, "pitch": 48, "duration": 17, "velocity": 60}, {"time": 201, "pitch": 53, "duration": 6, "velocity": 86}, {"time": 204, "pitch": 65, "duration": 16, "velocity": 117}, {"time": 207, "pitch": 60, "duration": 7, "velocity": 75}, {"time": 210, "pitch": 53, "duration": 3, "velocity": 71}, {"time": 213, "pitch": 57, "duration": 6, "velocity": 85}, {"time": 216, "pitch": 60, "duration": 3, "velocity": 79}, {"time": 219, "pitch": 40, "duration": 21, "velocity": 82}, {"time": 222, "pitch": 47, "duration": 17, "velocity": 67}, {"time": 225, "pitch": 52, "duration": 6, "velocity": 88}, {"time": 228, "pitch": 64, "duration": 7, "velocity": 107}, {"time": 231, "pitch": 59, "duration": 7, "velocity": 69}, {"time": 234, "pitch": 52, "duration": 4, "velocity": 82}, {"time": 237, "pitch": 64, "duration": 5, "velocity": 97}, {"time": 240, "pitch": 59, "duration": 2, "velocity": 89}, {"time": 243, "pitch": 38, "duration": 19, "velocity": 86}, {"time": 246, "pitch": 45, "duration": 16, "velocity": 85}, {"time": 249, "pitch": 50, "duration": 6, "velocity": 86}, {"time": 252, "pitch": 65, "duration": 16, "velocity": 100}, {"time": 255, "pitch": 57, "duration": 6, "velocity": 64}, {"time": 258, "pitch": 50, "duration": 8, "velocity": 93}, {"time": 261, "pitch": 62, "duration": 6, "velocity": 93}, {"time": 264, "pitch": 57, "duration": 3, "velocity": 93}, {"time": 267, "pitch": 43, "duration": 17, "velocity": 77}, {"time": 270, "pitch": 50, "duration": 10, "velocity": 77}, {"time": 273, "pitch": 55, "duration": 4, "velocity": 99}, {"time": 276, "pitch": 62, "duration": 14, "velocity": 102}, {"time": 279, "pitch": 59, "duration": 11, "velocity": 96}, {"time": 282, "pitch": 50, "duration": 3, "velocity": 86}, {"time": 285, "pitch": 55, "duration": 6, "velocity": 95}, {"time": 291, "pitch": 36, "duration": 22, "velocity": 93}, {"time": 294, "pitch": 43, "duration": 21, "velocity": 38}, {"time": 297, "pitch": 48, "duration": 6, "velocity": 77}, {"time": 300, "pitch": 55, "duration": 4, "velocity": 58}, {"time": 303, "pitch": 64, "duration": 20, "velocity": 100}, {"time": 306, "pitch": 48, "duration": 9, "velocity": 72}, {"time": 309, "pitch": 55, "duration": 11, "velocity": 92}, {"time": 312, "pitch": 60, "duration": 11, "velocity": 79}, {"time": 315, "pitch": 36, "duration": 17, "velocity": 79}, {"time": 318, "pitch": 43, "duration": 14, "velocity": 56}, {"time": 321, "pitch": 48, "duration": 7, "velocity": 58}, {"time": 324, "pitch": 55, "duration": 4, "velocity": 72}, {"time": 327, "pitch": 64, "duration": 12, "velocity": 96}, {"time": 330, "pitch": 48, "duration": 7, "velocity": 63}, {"time": 333, "pitch": 60, "duration": 6, "velocity": 53}, {"time": 339, "pitch": 43, "duration": 42, "velocity": 72}, {"time": 339, "pitch": 55, "duration": 46, "velocity": 92}, {"time": 339, "pitch": 59, "duration": 46, "velocity": 93}, {"time": 339, "pitch": 62, "duration": 46, "velocity": 92}, {"time": 387, "pitch": 36, "duration": 18, "velocity": 93}, {"time": 390, "pitch": 43, "duration": 13, "velocity": 74}, {"time": 393, "pitch": 48, "duration": 7, "velocity": 71}, {"time": 396, "pitch": 55, "duration": 4, "velocity": 73}, {"time": 399, "pitch": 64, "duration": 12, "velocity": 107}, {"time": 402, "pitch": 48, "duration": 5, "velocity": 58}, {"time": 405, "pitch": 60, "duration": 6, "velocity": 88}, {"time": 408, "pitch": 55, "duration": 3, "velocity": 70}, {"time": 411, "pitch": 47, "duration": 17, "velocity": 102}, {"time": 414, "pitch": 52, "duration": 8, "velocity": 66}, {"time": 417, "pitch": 55, "duration": 2, "velocity": 63}, {"time": 420, "pitch": 64, "duration": 14, "velocity": 93}, {"time": 429, "pitch": 52, "duration": 3, "velocity": 89}, {"time": 432, "pitch": 55, "duration": 3, "velocity": 88}, {"time": 435, "pitch": 45, "duration": 20, "velocity": 85}, {"time": 438, "pitch": 52, "duration": 8, "velocity": 40}, {"time": 441, "pitch": 57, "duration": 3, "velocity": 79}, {"time": 444, "pitch": 64, "duration": 15, "velocity": 107}, {"time": 447, "pitch": 57, "duration": 3, "velocity": 58}, {"time": 450, "pitch": 52, "duration": 5, "velocity": 72}, {"time": 453, "pitch": 60, "duration": 6, "velocity": 86}, {"time": 456, "pitch": 57, "duration": 2, "velocity": 81}, {"time": 459, "pitch": 43, "duration": 19, "velocity": 92}, {"time": 462, "pitch": 50, "duration": 10, "velocity": 58}, {"time": 465, "pitch": 55, "duration": 3, "velocity": 78}, {"time": 468, "pitch": 62, "duration": 15, "velocity": 127}, {"time": 471, "pitch": 59, "duration": 7, "velocity": 67}, {"time": 474, "pitch": 50, "duration": 3, "velocity": 63}, {"time": 477, "pitch": 55, "duration": 5, "velocity": 96}, {"time": 480, "pitch": 59, "duration": 2, "velocity": 73}, {"time": 483, "pitch": 41, "duration": 19, "velocity": 88}, {"time": 486, "pitch": 48, "duration": 16, "velocity": 63}, {"time": 489, "pitch": 53, "duration": 6, "velocity": 72}, {"time": 492, "pitch": 65, "duration": 15, "velocity": 112}, {"time": 495, "pitch": 60, "duration": 6, "velocity": 66}, {"time": 498, "pitch": 53, "duration": 2, "velocity": 60}, {"time": 501, "pitch": 57, "duration": 5, "velocity": 88}, {"time": 504, "pitch": 60, "duration": 4, "velocity": 72}, {"time": 507, "pitch": 40, "duration": 19, "velocity": 92}, {"time": 510, "pitch": 47, "duration": 15, "velocity": 59}, {"time": 513, "pitch": 52, "duration": 6, "velocity": 82}, {"time": 516, "pitch": 64, "duration": 15, "velocity": 112}, {"time": 519, "pitch": 59, "duration": 6, "velocity": 69}, {"time": 522, "pitch": 52, "duration": 3, "velocity": 72}, {"time": 525, "pitch": 55, "duration": 6, "velocity": 95}, {"time": 528, "pitch": 59, "duration": 3, "velocity": 59}, {"time": 531, "pitch": 38, "duration": 17, "velocity": 93}, {"time": 534, "pitch": 45, "duration": 15, "velocity": 53}, {"time": 537, "pitch": 50, "duration": 6, "velocity": 59}, {"time": 540, "pitch": 65, "duration": 15, "velocity": 102}, {"time": 543, "pitch": 57, "duration": 6, "velocity": 59}, {"time": 546, "pitch": 50, "duration": 7, "velocity": 53}, {"time": 549, "pitch": 62, "duration": 6, "velocity": 81}, {"time": 552, "pitch": 57, "duration": 3, "velocity": 61}, {"time": 555, "pitch": 43, "duration": 18, "velocity": 88}, {"time": 558, "pitch": 50, "duration": 9, "velocity": 52}, {"time": 561, "pitch": 55, "duration": 4, "velocity": 65}, {"time": 564, "pitch": 62, "duration": 15, "velocity": 99}, {"time": 567, "pitch": 59, "duration": 12, "velocity": 57}, {"time": 570, "pitch": 50, "duration": 2, "velocity": 58}, {"time": 573, "pitch": 55, "duration": 6, "velocity": 79}, {"time": 579, "pitch": 36, "duration": 18, "velocity": 85}, {"time": 582, "pitch": 43, "duration": 13, "velocity": 56}, {"time": 585, "pitch": 48, "duration": 6, "velocity": 82}, {"time": 588, "pitch": 64, "duration": 15, "velocity": 112}, {"time": 591, "pitch": 60, "duration": 6, "velocity": 69}, {"time": 594, "pitch": 48, "duration": 6, "velocity": 72}, {"time": 597, "pitch": 55, "duration": 6, "velocity": 93}, {"time": 600, "pitch": 60, "duration": 3, "velocity": 78}, {"time": 603, "pitch": 47, "duration": 19, "velocity": 100}, {"time": 609, "pitch": 59, "duration": 3, "velocity": 50}, {"time": 612, "pitch": 64, "duration": 5, "velocity": 97}, {"time": 615, "pitch": 59, "duration": 6, "velocity": 83}, {"time": 618, "pitch": 52, "duration": 7, "velocity": 64}, {"time": 621, "pitch": 64, "duration": 6, "velocity": 95}, {"time": 624, "pitch": 59, "duration": 3, "velocity": 65}, {"time": 627, "pitch": 45, "duration": 19, "velocity": 77}, {"time": 630, "pitch": 52, "duration": 9, "velocity": 67}, {"time": 633, "pitch": 57, "duration": 3, "velocity": 73}, {"time": 636, "pitch": 64, "duration": 15, "velocity": 107}, {"time": 639, "pitch": 57, "duration": 5, "velocity": 47}, {"time": 642, "pitch": 52, "duration": 4, "velocity": 58}, {"time": 645, "pitch": 60, "duration": 6, "velocity": 97}, {"time": 648, "pitch": 57, "duration": 2, "velocity": 72}, {"time": 651, "pitch": 40, "duration": 19, "velocity": 83}, {"time": 654, "pitch": 47, "duration": 20, "velocity": 45}, {"time": 657, "pitch": 52, "duration": 6, "velocity": 58}, {"time": 660, "pitch": 64, "duration": 15, "velocity": 100}, {"time": 663, "pitch": 59, "duration": 7, "velocity": 55}, {"time": 666, "pitch": 52, "duration": 2, "velocity": 66}, {"time": 669, "pitch": 55, "duration": 4, "velocity": 90}, {"time": 672, "pitch": 59, "duration": 2, "velocity": 68}, {"time": 675, "pitch": 41, "duration": 19, "velocity": 88}, {"time": 678, "pitch": 48, "duration": 15, "velocity": 53}, {"time": 681, "pitch": 53, "duration": 5, "velocity": 79}, {"time": 684, "pitch": 65, "duration": 15, "velocity": 95}, {"time": 687, "pitch": 60, "duration": 7, "velocity": 56}, {"time": 690, "pitch": 53, "duration": 2, "velocity": 74}, {"time": 693, "pitch": 57, "duration": 6, "velocity": 90}, {"time": 696, "pitch": 60, "duration": 3, "velocity": 59}, {"time": 699, "pitch": 40, "duration": 18, "velocity": 78}, {"time": 702, "pitch": 47, "duration": 14, "velocity": 47}, {"time": 705, "pitch": 52, "duration": 5, "velocity": 83}, {"time": 708, "pitch": 64, "duration": 14, "velocity": 97}, {"time": 711, "pitch": 59, "duration": 10, "velocity": 70}, {"time": 714, "pitch": 52, "duration": 2, "velocity": 66}, {"time": 717, "pitch": 55, "duration": 5, "velocity": 89}, {"time": 723, "pitch": 38, "duration": 11, "velocity": 89}, {"time": 726, "pitch": 57, "duration": 7, "velocity": 74}, {"time": 729, "pitch": 65, "duration": 4, "velocity": 122}, {"time": 732, "pitch": 62, "duration": 1, "velocity": 76}, {"time": 735, "pitch": 43, "duration": 10, "velocity": 117}, {"time": 738, "pitch": 55, "duration": 8, "velocity": 68}, {"time": 741, "pitch": 62, "duration": 5, "velocity": 102}, {"time": 744, "pitch": 59, "duration": 2, "velocity": 67}, {"time": 747, "pitch": 36, "duration": 18, "velocity": 92}, {"time": 750, "pitch": 43, "duration": 15, "velocity": 42}, {"time": 753, "pitch": 48, "duration": 7, "velocity": 72}, {"time": 756, "pitch": 55, "duration": 4, "velocity": 73}, {"time": 759, "pitch": 64, "duration": 12, "velocity": 102}, {"time": 762, "pitch": 48, "duration": 4, "velocity": 78}, {"time": 765, "pitch": 60, "duration": 6, "velocity": 99}, {"time": 768, "pitch": 55, "duration": 2, "velocity": 82}, {"time": 771, "pitch": 45, "duration": 18, "velocity": 99}, {"time": 774, "pitch": 52, "duration": 8, "velocity": 59}, {"time": 777, "pitch": 57, "duration": 3, "velocity": 86}, {"time": 780, "pitch": 64, "duration": 15, "velocity": 100}, {"time": 783, "pitch": 60, "duration": 6, "velocity": 38}, {"time": 786, "pitch": 52, "duration": 3, "velocity": 58}, {"time": 789, "pitch": 57, "duration": 6, "velocity": 86}, {"time": 792, "pitch": 60, "duration": 3, "velocity": 72}, {"time": 795, "pitch": 43, "duration": 19, "velocity": 73}, {"time": 798, "pitch": 50, "duration": 8, "velocity": 79}, {"time": 801, "pitch": 55, "duration": 3, "velocity": 71}, {"time": 804, "pitch": 59, "duration": 6, "velocity": 93}, {"time": 804, "pitch": 62, "duration": 6, "velocity": 100}, {"time": 807, "pitch": 55, "duration": 5, "velocity": 71}, {"time": 810, "pitch": 50, "duration": 4, "velocity": 89}, {"time": 813, "pitch": 59, "duration": 5, "velocity": 97}, {"time": 813, "pitch": 62, "duration": 6, "velocity": 100}, {"time": 816, "pitch": 55, "duration": 3, "velocity": 38}, {"time": 819, "pitch": 41, "duration": 19, "velocity": 83}, {"time": 822, "pitch": 48, "duration": 16, "velocity": 52}, {"time": 825, "pitch": 53, "duration": 6, "velocity": 86}, {"time": 828, "pitch": 57, "duration": 7, "velocity": 93}, {"time": 828, "pitch": 60, "duration": 7, "velocity": 95}, {"time": 834, "pitch": 53, "duration": 2, "velocity": 77}, {"time": 837, "pitch": 60, "duration": 6, "velocity": 100}, {"time": 840, "pitch": 57, "duration": 2, "velocity": 63}, {"time": 843, "pitch": 36, "duration": 17, "velocity": 83}, {"time": 846, "pitch": 43, "duration": 14, "velocity": 39}, {"time": 849, "pitch": 48, "duration": 6, "velocity": 76}, {"time": 852, "pitch": 60, "duration": 6, "velocity": 95}, {"time": 852, "pitch": 64, "duration": 14, "velocity": 95}, {"time": 855, "pitch": 55, "duration": 5, "velocity": 48}, {"time": 858, "pitch": 48, "duration": 4, "velocity": 72}, {"time": 861, "pitch": 59, "duration": 6, "velocity": 89}, {"time": 867, "pitch": 45, "duration": 18, "velocity": 61}, {"time": 870, "pitch": 52, "duration": 10, "velocity": 90}, {"time": 873, "pitch": 57, "duration": 3, "velocity": 86}, {"time": 876, "pitch": 64, "duration": 15, "velocity": 112}, {"time": 879, "pitch": 57, "duration": 6, "velocity": 55}, {"time": 882, "pitch": 52, "duration": 3, "velocity": 65}, {"time": 885, "pitch": 60, "duration": 5, "velocity": 89}, {"time": 888, "pitch": 57, "duration": 3, "velocity": 56}, {"time": 891, "pitch": 43, "duration": 19, "velocity": 81}, {"time": 894, "pitch": 50, "duration": 10, "velocity": 53}, {"time": 897, "pitch": 55, "duration": 5, "velocity": 78}, {"time": 900, "pitch": 62, "duration": 6, "velocity": 107}, {"time": 903, "pitch": 59, "duration": 6, "velocity": 75}, {"time": 906, "pitch": 50, "duration": 3, "velocity": 72}, {"time": 909, "pitch": 62, "duration": 5, "velocity": 100}, {"time": 912, "pitch": 59, "duration": 3, "velocity": 70}, {"time": 915, "pitch": 41, "duration": 22, "velocity": 95}, {"time": 918, "pitch": 48, "duration": 21, "velocity": 75}, {"time": 921, "pitch": 53, "duration": 6, "velocity": 82}, {"time": 924, "pitch": 60, "duration": 6, "velocity": 127}, {"time": 927, "pitch": 57, "duration": 5, "velocity": 58}, {"time": 930, "pitch": 53, "duration": 2, "velocity": 74}, {"time": 933, "pitch": 60, "duration": 5, "velocity": 95}, {"time": 936, "pitch": 57, "duration": 2, "velocity": 86}, {"time": 939, "pitch": 43, "duration": 18, "velocity": 92}, {"time": 942, "pitch": 50, "duration": 9, "velocity": 49}, {"time": 945, "pitch": 55, "duration": 4, "velocity": 90}, {"time": 948, "pitch": 62, "duration": 4, "velocity": 127}, {"time": 951, "pitch": 59, "duration": 6, "velocity": 88}, {"time": 954, "pitch": 50, "duration": 8, "velocity": 69}, {"time": 957, "pitch": 62, "duration": 4, "velocity": 102}, {"time": 960, "pitch": 59, "duration": 25, "velocity": 95}, {"time": 963, "pitch": 43, "duration": 22, "velocity": 92}, {"time": 963, "pitch": 55, "duration": 22, "velocity": 100}, {"time": 963, "pitch": 62, "duration": 23, "velocity": 67}, {"time": 987, "pitch": 48, "duration": 16, "velocity": 88}, {"time": 987, "pitch": 64, "duration": 7, "velocity": 117}, {"time": 987, "pitch": 67, "duration": 7, "velocity": 102}, {"time": 993, "pitch": 55, "duration": 7, "velocity": 92}, {"time": 996, "pitch": 60, "duration": 3, "velocity": 96}, {"time": 999, "pitch": 64, "duration": 6, "velocity": 122}, {"time": 999, "pitch": 67, "duration": 7, "velocity": 127}, {"time": 1002, "pitch": 55, "duration": 1, "velocity": 93}, {"time": 1005, "pitch": 60, "duration": 3, "velocity": 112}, {"time": 1008, "pitch": 64, "duration": 1, "velocity": 92}, {"time": 1011, "pitch": 40, "duration": 17, "velocity": 93}, {"time": 1011, "pitch": 59, "duration": 7, "velocity": 102}, {"time": 1011, "pitch": 64, "duration": 7, "velocity": 97}, {"time": 1011, "pitch": 67, "duration": 7, "velocity": 96}, {"time": 1014, "pitch": 47, "duration": 15, "velocity": 62}, {"time": 1017, "pitch": 52, "duration": 6, "velocity": 81}, {"time": 1020, "pitch": 59, "duration": 7, "velocity": 99}, {"time": 1020, "pitch": 64, "duration": 7, "velocity": 100}, {"time": 1020, "pitch": 67, "duration": 7, "velocity": 95}, {"time": 1026, "pitch": 52, "duration": 3, "velocity": 69}, {"time": 1029, "pitch": 64, "duration": 3, "velocity": 100}, {"time": 1029, "pitch": 67, "duration": 3, "velocity": 112}, {"time": 1032, "pitch": 59, "duration": 1, "velocity": 83}, {"time": 1035, "pitch": 45, "duration": 7, "velocity": 86}, {"time": 1035, "pitch": 57, "duration": 7, "velocity": 107}, {"time": 1035, "pitch": 60, "duration": 7, "velocity": 99}, {"time": 1035, "pitch": 64, "duration": 7, "velocity": 99}, {"time": 1041, "pitch": 52, "duration": 1, "velocity": 69}, {"time": 1044, "pitch": 60, "duration": 6, "velocity": 112}, {"time": 1044, "pitch": 64, "duration": 6, "velocity": 112}, {"time": 1053, "pitch": 60, "duration": 3, "velocity": 102}, {"time": 1053, "pitch": 64, "duration": 3, "velocity": 107}, {"time": 1056, "pitch": 57, "duration": 1, "velocity": 39}, {"time": 1059, "pitch": 43, "duration": 18, "velocity": 78}, {"time": 1059, "pitch": 59, "duration": 1, "velocity": 100}, {"time": 1059, "pitch": 62, "duration": 1, "velocity": 102}, {"time": 1062, "pitch": 50, "duration": 15, "velocity": 58}, {"time": 1065, "pitch": 55, "duration": 5, "velocity": 72}, {"time": 1068, "pitch": 59, "duration": 6, "velocity": 90}, {"time": 1068, "pitch": 62, "duration": 6, "velocity": 107}, {"time": 1068, "pitch": 67, "duration": 6, "velocity": 96}, {"time": 1074, "pitch": 55, "duration": 1, "velocity": 73}, {"time": 1077, "pitch": 62, "duration": 1, "velocity": 102}, {"time": 1077, "pitch": 67, "duration": 1, "velocity": 117}, {"time": 1083, "pitch": 41, "duration": 18, "velocity": 85}, {"time": 1083, "pitch": 57, "duration": 5, "velocity": 96}, {"time": 1083, "pitch": 60, "duration": 5, "velocity": 96}, {"time": 1086, "pitch": 48, "duration": 15, "velocity": 92}, {"time": 1089, "pitch": 53, "duration": 6, "velocity": 92}, {"time": 1092, "pitch": 57, "duration": 6, "velocity": 102}, {"time": 1092, "pitch": 60, "duration": 6, "velocity": 112}, {"time": 1092, "pitch": 65, "duration": 7, "velocity": 112}, {"time": 1098, "pitch": 53, "duration": 2, "velocity": 78}, {"time": 1101, "pitch": 60, "duration": 3, "velocity": 99}, {"time": 1101, "pitch": 65, "duration": 3, "velocity": 100}, {"time": 1104, "pitch": 57, "duration": 1, "velocity": 85}, {"time": 1107, "pitch": 40, "duration": 18, "velocity": 86}, {"time": 1107, "pitch": 55, "duration": 4, "velocity": 100}, {"time": 1107, "pitch": 59, "duration": 5, "velocity": 95}, {"time": 1110, "pitch": 47, "duration": 15, "velocity": 54}, {"time": 1113, "pitch": 52, "duration": 6, "velocity": 90}, {"time": 1116, "pitch": 55, "duration": 5, "velocity": 100}, {"time": 1116, "pitch": 59, "duration": 6, "velocity": 112}, {"time": 1116, "pitch": 64, "duration": 6, "velocity": 99}, {"time": 1122, "pitch": 52, "duration": 2, "velocity": 83}, {"time": 1125, "pitch": 59, "duration": 6, "velocity": 107}, {"time": 1125, "pitch": 64, "duration": 6, "velocity": 100}, {"time": 1131, "pitch": 38, "duration": 17, "velocity": 89}, {"time": 1134, "pitch": 45, "duration": 14, "velocity": 66}, {"time": 1137, "pitch": 50, "duration": 6, "velocity": 86}, {"time": 1140, "pitch": 57, "duration": 4, "velocity": 99}, {"time": 1140, "pitch": 62, "duration": 6, "velocity": 102}, {"time": 1140, "pitch": 65, "duration": 6, "velocity": 100}, {"time": 1146, "pitch": 50, "duration": 8, "velocity": 90}, {"time": 1149, "pitch": 62, "duration": 3, "velocity": 112}, {"time": 1149, "pitch": 65, "duration": 4, "velocity": 102}, {"time": 1152, "pitch": 57, "duration": 3, "velocity": 89}, {"time": 1155, "pitch": 43, "duration": 18, "velocity": 95}, {"time": 1155, "pitch": 59, "duration": 1, "velocity": 107}, {"time": 1155, "pitch": 62, "duration": 1, "velocity": 99}, {"time": 1155, "pitch": 64, "duration": 1, "velocity": 89}, {"time": 1158, "pitch": 50, "duration": 14, "velocity": 95}, {"time": 1161, "pitch": 55, "duration": 6, "velocity": 82}, {"time": 1164, "pitch": 62, "duration": 6, "velocity": 102}, {"time": 1164, "pitch": 67, "duration": 6, "velocity": 112}, {"time": 1164, "pitch": 71, "duration": 6, "velocity": 107}, {"time": 1170, "pitch": 55, "duration": 1, "velocity": 97}, {"time": 1173, "pitch": 67, "duration": 1, "velocity": 102}, {"time": 1173, "pitch": 71, "duration": 1, "velocity": 112}, {"time": 1179, "pitch": 36, "duration": 18, "velocity": 92}, {"time": 1179, "pitch": 55, "duration": 6, "velocity": 97}, {"time": 1179, "pitch": 60, "duration": 7, "velocity": 99}, {"time": 1179, "pitch": 64, "duration": 6, "velocity": 95}, {"time": 1182, "pitch": 43, "duration": 16, "velocity": 86}, {"time": 1185, "pitch": 48, "duration": 7, "velocity": 95}, {"time": 1188, "pitch": 60, "duration": 7, "velocity": 117}, {"time": 1188, "pitch": 64, "duration": 7, "velocity": 107}, {"time": 1191, "pitch": 55, "duration": 3, "velocity": 37}, {"time": 1194, "pitch": 48, "duration": 6, "velocity": 72}, {"time": 1197, "pitch": 60, "duration": 3, "velocity": 112}, {"time": 1197, "pitch": 64, "duration": 3, "velocity": 100}, {"time": 1200, "pitch": 55, "duration": 1, "velocity": 62}, {"time": 1203, "pitch": 43, "duration": 18, "velocity": 85}, {"time": 1203, "pitch": 55, "duration": 7, "velocity": 102}, {"time": 1203, "pitch": 59, "duration": 7, "velocity": 99}, {"time": 1203, "pitch": 62, "duration": 7, "velocity": 97}, {"time": 1209, "pitch": 50, "duration": 6, "velocity": 82}, {"time": 1212, "pitch": 55, "duration": 6, "velocity": 96}, {"time": 1212, "pitch": 59, "duration": 6, "velocity": 100}, {"time": 1212, "pitch": 62, "duration": 6, "velocity": 97}, {"time": 1218, "pitch": 50, "duration": 4, "velocity": 76}, {"time": 1221, "pitch": 59, "duration": 2, "velocity": 112}, {"time": 1221, "pitch": 62, "duration": 2, "velocity": 102}, {"time": 1227, "pitch": 45, "duration": 17, "velocity": 92}, {"time": 1227, "pitch": 57, "duration": 1, "velocity": 99}, {"time": 1227, "pitch": 60, "duration": 1, "velocity": 97}, {"time": 1227, "pitch": 64, "duration": 2, "velocity": 93}, {"time": 1230, "pitch": 52, "duration": 10, "velocity": 72}, {"time": 1233, "pitch": 57, "duration": 2, "velocity": 89}, {"time": 1236, "pitch": 64, "duration": 6, "velocity": 97}, {"time": 1236, "pitch": 69, "duration": 6, "velocity": 97}, {"time": 1236, "pitch": 72, "duration": 6, "velocity": 95}, {"time": 1242, "pitch": 52, "duration": 1, "velocity": 56}, {"time": 1245, "pitch": 69, "duration": 1, "velocity": 112}, {"time": 1245, "pitch": 72, "duration": 1, "velocity": 117}, {"time": 1251, "pitch": 40, "duration": 18, "velocity": 95}, {"time": 1251, "pitch": 64, "duration": 6, "velocity": 89}, {"time": 1251, "pitch": 67, "duration": 6, "velocity": 96}, {"time": 1251, "pitch": 71, "duration": 6, "velocity": 102}, {"time": 1254, "pitch": 47, "duration": 20, "velocity": 79}, {"time": 1257, "pitch": 52, "duration": 5, "velocity": 97}, {"time": 1260, "pitch": 67, "duration": 6, "velocity": 117}, {"time": 1260, "pitch": 71, "duration": 6, "velocity": 117}, {"time": 1263, "pitch": 64, "duration": 4, "velocity": 86}, {"time": 1266, "pitch": 52, "duration": 2, "velocity": 97}, {"time": 1269, "pitch": 67, "duration": 4, "velocity": 122}, {"time": 1269, "pitch": 71, "duration": 4, "velocity": 122}, {"time": 1272, "pitch": 64, "duration": 2, "velocity": 92}, {"time": 1275, "pitch": 41, "duration": 19, "velocity": 86}, {"time": 1275, "pitch": 65, "duration": 7, "velocity": 102}, {"time": 1275, "pitch": 69, "duration": 7, "velocity": 99}, {"time": 1275, "pitch": 71, "duration": 1, "velocity": 90}, {"time": 1278, "pitch": 48, "duration": 15, "velocity": 67}, {"time": 1281, "pitch": 53, "duration": 5, "velocity": 89}, {"time": 1284, "pitch": 65, "duration": 4, "velocity": 127}, {"time": 1284, "pitch": 69, "duration": 4, "velocity": 122}, {"time": 1287, "pitch": 60, "duration": 7, "velocity": 97}, {"time": 1290, "pitch": 53, "duration": 2, "velocity": 102}, {"time": 1293, "pitch": 69, "duration": 4, "velocity": 127}, {"time": 1296, "pitch": 60, "duration": 2, "velocity": 102}, {"time": 1299, "pitch": 40, "duration": 17, "velocity": 88}, {"time": 1299, "pitch": 64, "duration": 7, "velocity": 102}, {"time": 1299, "pitch": 67, "duration": 7, "velocity": 122}, {"time": 1302, "pitch": 47, "duration": 14, "velocity": 67}, {"time": 1305, "pitch": 52, "duration": 6, "velocity": 88}, {"time": 1308, "pitch": 64, "duration": 6, "velocity": 112}, {"time": 1308, "pitch": 67, "duration": 6, "velocity": 107}, {"time": 1311, "pitch": 59, "duration": 4, "velocity": 74}, {"time": 1314, "pitch": 52, "duration": 2, "velocity": 89}, {"time": 1317, "pitch": 64, "duration": 1, "velocity": 100}, {"time": 1317, "pitch": 67, "duration": 1, "velocity": 99}, {"time": 1323, "pitch": 38, "duration": 16, "velocity": 74}, {"time": 1323, "pitch": 57, "duration": 7, "velocity": 97}, {"time": 1323, "pitch": 62, "duration": 6, "velocity": 97}, {"time": 1323, "pitch": 65, "duration": 7, "velocity": 89}, {"time": 1326, "pitch": 45, "duration": 14, "velocity": 61}, {"time": 1329, "pitch": 50, "duration": 6, "velocity": 89}, {"time": 1332, "pitch": 62, "duration": 7, "velocity": 100}, {"time": 1332, "pitch": 65, "duration": 7, "velocity": 100}, {"time": 1338, "pitch": 50, "duration": 4, "velocity": 85}, {"time": 1341, "pitch": 62, "duration": 1, "velocity": 107}, {"time": 1341, "pitch": 65, "duration": 1, "velocity": 100}, {"time": 1347, "pitch": 43, "duration": 17, "velocity": 85}, {"time": 1347, "pitch": 59, "duration": 1, "velocity": 97}, {"time": 1347, "pitch": 62, "duration": 1, "velocity": 99}, {"time": 1350, "pitch": 50, "duration": 10, "velocity": 73}, {"time": 1353, "pitch": 55, "duration": 5, "velocity": 93}, {"time": 1356, "pitch": 67, "duration": 9, "velocity": 112}, {"time": 1356, "pitch": 71, "duration": 9, "velocity": 117}, {"time": 1362, "pitch": 50, "duration": 1, "velocity": 86}, {"time": 1365, "pitch": 62, "duration": 3, "velocity": 99}, {"time": 1371, "pitch": 36, "duration": 22, "velocity": 81}, {"time": 1371, "pitch": 60, "duration": 5, "velocity": 96}, {"time": 1371, "pitch": 64, "duration": 5, "velocity": 99}, {"time": 1371, "pitch": 67, "duration": 7, "velocity": 97}, {"time": 1374, "pitch": 43, "duration": 21, "velocity": 70}, {"time": 1377, "pitch": 48, "duration": 5, "velocity": 76}, {"time": 1380, "pitch": 64, "duration": 8, "velocity": 97}, {"time": 1380, "pitch": 67, "duration": 10, "velocity": 97}, {"time": 1380, "pitch": 70, "duration": 8, "velocity": 102}, {"time": 1386, "pitch": 48, "duration": 3, "velocity": 82}, {"time": 1389, "pitch": 60, "duration": 2, "velocity": 97}, {"time": 1389, "pitch": 64, "duration": 1, "velocity": 31}, {"time": 1392, "pitch": 60, "duration": 9, "velocity": 76}, {"time": 1392, "pitch": 64, "duration": 10, "velocity": 83}, {"time": 1392, "pitch": 67, "duration": 10, "velocity": 83}, {"time": 1392, "pitch": 70, "duration": 6, "velocity": 112}, {"time": 1395, "pitch": 36, "duration": 17, "velocity": 76}, {"time": 1398, "pitch": 43, "duration": 15, "velocity": 56}, {"time": 1401, "pitch": 48, "duration": 6, "velocity": 66}, {"time": 1404, "pitch": 64, "duration": 8, "velocity": 97}, {"time": 1404, "pitch": 67, "duration": 8, "velocity": 102}, {"time": 1410, "pitch": 48, "duration": 7, "velocity": 71}, {"time": 1413, "pitch": 64, "duration": 5, "velocity": 92}, {"time": 1413, "pitch": 67, "duration": 4, "velocity": 73}, {"time": 1419, "pitch": 41, "duration": 21, "velocity": 95}, {"time": 1419, "pitch": 60, "duration": 7, "velocity": 102}, {"time": 1419, "pitch": 65, "duration": 7, "velocity": 102}, {"time": 1419, "pitch": 69, "duration": 7, "velocity": 117}, {"time": 1422, "pitch": 48, "duration": 20, "velocity": 49}, {"time": 1425, "pitch": 53, "duration": 6, "velocity": 90}, {"time": 1428, "pitch": 60, "duration": 5, "velocity": 107}, {"time": 1428, "pitch": 65, "duration": 9, "velocity": 117}, {"time": 1428, "pitch": 69, "duration": 9, "velocity": 107}, {"time": 1434, "pitch": 53, "duration": 2, "velocity": 78}, {"time": 1437, "pitch": 60, "duration": 9, "velocity": 97}, {"time": 1440, "pitch": 65, "duration": 4, "velocity": 107}, {"time": 1440, "pitch": 69, "duration": 5, "velocity": 100}, {"time": 1443, "pitch": 41, "duration": 16, "velocity": 73}, {"time": 1446, "pitch": 48, "duration": 10, "velocity": 72}, {"time": 1449, "pitch": 53, "duration": 3, "velocity": 96}, {"time": 1452, "pitch": 65, "duration": 9, "velocity": 112}, {"time": 1452, "pitch": 69, "duration": 9, "velocity": 127}, {"time": 1458, "pitch": 48, "duration": 1, "velocity": 64}, {"time": 1461, "pitch": 60, "duration": 1, "velocity": 90}, {"time": 1467, "pitch": 40, "duration": 1, "velocity": 83}, {"time": 1467, "pitch": 64, "duration": 7, "velocity": 97}, {"time": 1467, "pitch": 67, "duration": 7, "velocity": 93}, {"time": 1467, "pitch": 71, "duration": 7, "velocity": 95}, {"time": 1473, "pitch": 52, "duration": 32, "velocity": 50}, {"time": 1476, "pitch": 64, "duration": 9, "velocity": 112}, {"time": 1476, "pitch": 67, "duration": 8, "velocity": 117}, {"time": 1476, "pitch": 71, "duration": 8, "velocity": 107}, {"time": 1485, "pitch": 59, "duration": 7, "velocity": 89}, {"time": 1488, "pitch": 64, "duration": 1, "velocity": 82}, {"time": 1488, "pitch": 76, "duration": 1, "velocity": 83}, {"time": 1491, "pitch": 55, "duration": 14, "velocity": 77}, {"time": 1491, "pitch": 64, "duration": 1, "velocity": 122}, {"time": 1491, "pitch": 76, "duration": 1, "velocity": 100}, {"time": 1497, "pitch": 59, "duration": 2, "velocity": 107}, {"time": 1500, "pitch": 64, "duration": 1, "velocity": 85}, {"time": 1500, "pitch": 76, "duration": 1, "velocity": 92}, {"time": 1503, "pitch": 65, "duration": 2, "velocity": 102}, {"time": 1503, "pitch": 77, "duration": 1, "velocity": 107}, {"time": 1506, "pitch": 59, "duration": 1, "velocity": 96}, {"time": 1506, "pitch": 64, "duration": 1, "velocity": 102}, {"time": 1506, "pitch": 76, "duration": 1, "velocity": 99}, {"time": 1512, "pitch": 65, "duration": 1, "velocity": 92}, {"time": 1512, "pitch": 77, "duration": 1, "velocity": 85}, {"time": 1515, "pitch": 38, "duration": 20, "velocity": 92}, {"time": 1515, "pitch": 62, "duration": 2, "velocity": 97}, {"time": 1515, "pitch": 74, "duration": 1, "velocity": 85}, {"time": 1518, "pitch": 45, "duration": 20, "velocity": 85}, {"time": 1521, "pitch": 50, "duration": 6, "velocity": 78}, {"time": 1524, "pitch": 62, "duration": 6, "velocity": 107}, {"time": 1524, "pitch": 65, "duration": 3, "velocity": 127}, {"time": 1530, "pitch": 50, "duration": 3, "velocity": 78}, {"time": 1533, "pitch": 65, "duration": 16, "velocity": 81}, {"time": 1533, "pitch": 69, "duration": 16, "velocity": 89}, {"time": 1536, "pitch": 62, "duration": 12, "velocity": 96}, {"time": 1539, "pitch": 38, "duration": 4, "velocity": 75}, {"time": 1542, "pitch": 45, "duration": 1, "velocity": 88}, {"time": 1545, "pitch": 50, "duration": 9, "velocity": 33}, {"time": 1548, "pitch": 53, "duration": 6, "velocity": 102}, {"time": 1551, "pitch": 65, "duration": 5, "velocity": 122}, {"time": 1551, "pitch": 69, "duration": 7, "velocity": 122}, {"time": 1554, "pitch": 57, "duration": 1, "velocity": 100}, {"time": 1557, "pitch": 62, "duration": 5, "velocity": 107}, {"time": 1560, "pitch": 65, "duration": 2, "velocity": 100}, {"time": 1563, "pitch": 43, "duration": 22, "velocity": 82}, {"time": 1563, "pitch": 62, "duration": 1, "velocity": 50}, {"time": 1563, "pitch": 67, "duration": 1, "velocity": 107}, {"time": 1563, "pitch": 71, "duration": 2, "velocity": 107}, {"time": 1566, "pitch": 50, "duration": 21, "velocity": 96}, {"time": 1569, "pitch": 55, "duration": 13, "velocity": 112}, {"time": 1572, "pitch": 59, "duration": 2, "velocity": 122}, {"time": 1575, "pitch": 62, "duration": 1, "velocity": 102}, {"time": 1578, "pitch": 67, "duration": 1, "velocity": 88}, {"time": 1581, "pitch": 71, "duration": 1, "velocity": 107}, {"time": 1584, "pitch": 74, "duration": 3, "velocity": 127}, {"time": 1587, "pitch": 43, "duration": 24, "velocity": 99}, {"time": 1587, "pitch": 67, "duration": 1, "velocity": 112}, {"time": 1587, "pitch": 69, "duration": 1, "velocity": 100}, {"time": 1593, "pitch": 50, "duration": 7, "velocity": 62}, {"time": 1596, "pitch": 55, "duration": 2, "velocity": 66}, {"time": 1599, "pitch": 59, "duration": 12, "velocity": 102}, {"time": 1599, "pitch": 62, "duration": 12, "velocity": 102}, {"time": 1611, "pitch": 36, "duration": 18, "velocity": 85}, {"time": 1614, "pitch": 43, "duration": 13, "velocity": 56}, {"time": 1617, "pitch": 48, "duration": 6, "velocity": 82}, {"time": 1620, "pitch": 64, "duration": 15, "velocity": 112}, {"time": 1623, "pitch": 60, "duration": 6, "velocity": 69}, {"time": 1626, "pitch": 48, "duration": 6, "velocity": 72}, {"time": 1629, "pitch": 55, "duration": 6, "velocity": 93}, {"time": 1632, "pitch": 60, "duration": 3, "velocity": 78}, {"time": 1635, "pitch": 47, "duration": 19, "velocity": 100}, {"time": 1641, "pitch": 59, "duration": 3, "velocity": 50}, {"time": 1644, "pitch": 64, "duration": 5, "velocity": 97}, {"time": 1647, "pitch": 59, "duration": 6, "velocity": 83}, {"time": 1650, "pitch": 52, "duration": 7, "velocity": 64}, {"time": 1653, "pitch": 64, "duration": 6, "velocity": 95}, {"time": 1656, "pitch": 59, "duration": 3, "velocity": 65}, {"time": 1659, "pitch": 45, "duration": 19, "velocity": 77}, {"time": 1662, "pitch": 52, "duration": 9, "velocity": 67}, {"time": 1665, "pitch": 57, "duration": 3, "velocity": 73}, {"time": 1668, "pitch": 64, "duration": 15, "velocity": 107}, {"time": 1671, "pitch": 57, "duration": 5, "velocity": 47}, {"time": 1674, "pitch": 52, "duration": 4, "velocity": 58}, {"time": 1677, "pitch": 60, "duration": 6, "velocity": 97}, {"time": 1680, "pitch": 57, "duration": 2, "velocity": 72}, {"time": 1683, "pitch": 40, "duration": 19, "velocity": 83}, {"time": 1686, "pitch": 47, "duration": 20, "velocity": 45}, {"time": 1689, "pitch": 52, "duration": 6, "velocity": 58}, {"time": 1692, "pitch": 64, "duration": 15, "velocity": 100}, {"time": 1695, "pitch": 59, "duration": 7, "velocity": 55}, {"time": 1698, "pitch": 52, "duration": 2, "velocity": 66}, {"time": 1701, "pitch": 55, "duration": 4, "velocity": 90}, {"time": 1704, "pitch": 59, "duration": 2, "velocity": 68}, {"time": 1707, "pitch": 41, "duration": 19, "velocity": 88}, {"time": 1710, "pitch": 48, "duration": 15, "velocity": 53}, {"time": 1713, "pitch": 53, "duration": 5, "velocity": 79}, {"time": 1716, "pitch": 65, "duration": 15, "velocity": 95}, {"time": 1719, "pitch": 60, "duration": 7, "velocity": 56}, {"time": 1722, "pitch": 53, "duration": 2, "velocity": 74}, {"time": 1725, "pitch": 57, "duration": 6, "velocity": 90}, {"time": 1728, "pitch": 60, "duration": 3, "velocity": 59}, {"time": 1731, "pitch": 40, "duration": 18, "velocity": 78}, {"time": 1734, "pitch": 47, "duration": 14, "velocity": 47}, {"time": 1737, "pitch": 52, "duration": 5, "velocity": 83}, {"time": 1740, "pitch": 64, "duration": 14, "velocity": 97}, {"time": 1743, "pitch": 59, "duration": 10, "velocity": 70}, {"time": 1746, "pitch": 52, "duration": 2, "velocity": 66}, {"time": 1749, "pitch": 55, "duration": 5, "velocity": 89}, {"time": 1755, "pitch": 38, "duration": 11, "velocity": 89}, {"time": 1758, "pitch": 57, "duration": 7, "velocity": 74}, {"time": 1761, "pitch": 65, "duration": 4, "velocity": 122}, {"time": 1764, "pitch": 62, "duration": 1, "velocity": 76}, {"time": 1767, "pitch": 43, "duration": 10, "velocity": 117}, {"time": 1770, "pitch": 55, "duration": 8, "velocity": 68}, {"time": 1773, "pitch": 62, "duration": 5, "velocity": 102}, {"time": 1776, "pitch": 59, "duration": 2, "velocity": 67}, {"time": 1779, "pitch": 36, "duration": 18, "velocity": 92}, {"time": 1782, "pitch": 43, "duration": 15, "velocity": 42}, {"time": 1785, "pitch": 48, "duration": 7, "velocity": 72}, {"time": 1788, "pitch": 55, "duration": 4, "velocity": 73}, {"time": 1791, "pitch": 64, "duration": 12, "velocity": 102}, {"time": 1794, "pitch": 48, "duration": 4, "velocity": 78}, {"time": 1797, "pitch": 60, "duration": 6, "velocity": 99}, {"time": 1800, "pitch": 55, "duration": 2, "velocity": 82}, {"time": 1803, "pitch": 45, "duration": 18, "velocity": 99}, {"time": 1806, "pitch": 52, "duration": 8, "velocity": 59}, {"time": 1809, "pitch": 57, "duration": 3, "velocity": 86}, {"time": 1812, "pitch": 64, "duration": 15, "velocity": 100}, {"time": 1815, "pitch": 60, "duration": 6, "velocity": 38}, {"time": 1818, "pitch": 52, "duration": 3, "velocity": 58}, {"time": 1821, "pitch": 57, "duration": 6, "velocity": 86}, {"time": 1824, "pitch": 60, "duration": 3, "velocity": 72}, {"time": 1827, "pitch": 43, "duration": 19, "velocity": 73}, {"time": 1830, "pitch": 50, "duration": 8, "velocity": 79}, {"time": 1833, "pitch": 55, "duration": 3, "velocity": 71}, {"time": 1836, "pitch": 59, "duration": 6, "velocity": 93}, {"time": 1836, "pitch": 62, "duration": 6, "velocity": 100}, {"time": 1839, "pitch": 55, "duration": 5, "velocity": 71}, {"time": 1842, "pitch": 50, "duration": 4, "velocity": 89}, {"time": 1845, "pitch": 59, "duration": 5, "velocity": 97}, {"time": 1845, "pitch": 62, "duration": 6, "velocity": 100}, {"time": 1848, "pitch": 55, "duration": 3, "velocity": 38}, {"time": 1851, "pitch": 41, "duration": 19, "velocity": 83}, {"time": 1854, "pitch": 48, "duration": 16, "velocity": 52}, {"time": 1857, "pitch": 53, "duration": 6, "velocity": 86}, {"time": 1860, "pitch": 57, "duration": 7, "velocity": 93}, {"time": 1860, "pitch": 60, "duration": 7, "velocity": 95}, {"time": 1866, "pitch": 53, "duration": 2, "velocity": 77}, {"time": 1869, "pitch": 60, "duration": 6, "velocity": 100}, {"time": 1872, "pitch": 57, "duration": 2, "velocity": 63}, {"time": 1875, "pitch": 36, "duration": 17, "velocity": 83}, {"time": 1878, "pitch": 43, "duration": 14, "velocity": 39}, {"time": 1881, "pitch": 48, "duration": 6, "velocity": 76}, {"time": 1884, "pitch": 60, "duration": 6, "velocity": 95}, {"time": 1884, "pitch": 64, "duration": 14, "velocity": 95}, {"time": 1887, "pitch": 55, "duration": 5, "velocity": 48}, {"time": 1890, "pitch": 48, "duration": 4, "velocity": 72}, {"time": 1893, "pitch": 59, "duration": 6, "velocity": 89}, {"time": 1899, "pitch": 45, "duration": 18, "velocity": 61}, {"time": 1902, "pitch": 52, "duration": 10, "velocity": 90}, {"time": 1905, "pitch": 57, "duration": 3, "velocity": 86}, {"time": 1908, "pitch": 64, "duration": 15, "velocity": 112}, {"time": 1911, "pitch": 57, "duration": 6, "velocity": 55}, {"time": 1914, "pitch": 52, "duration": 3, "velocity": 65}, {"time": 1917, "pitch": 60, "duration": 5, "velocity": 89}, {"time": 1920, "pitch": 57, "duration": 3, "velocity": 56}, {"time": 1923, "pitch": 43, "duration": 19, "velocity": 81}, {"time": 1926, "pitch": 50, "duration": 10, "velocity": 53}, {"time": 1929, "pitch": 55, "duration": 5, "velocity": 78}, {"time": 1932, "pitch": 62, "duration": 6, "velocity": 107}, {"time": 1935, "pitch": 59, "duration": 6, "velocity": 75}, {"time": 1938, "pitch": 50, "duration": 3, "velocity": 72}, {"time": 1941, "pitch": 62, "duration": 5, "velocity": 100}, {"time": 1944, "pitch": 59, "duration": 3, "velocity": 70}, {"time": 1947, "pitch": 41, "duration": 22, "velocity": 95}, {"time": 1950, "pitch": 48, "duration": 21, "velocity": 75}, {"time": 1953, "pitch": 53, "duration": 6, "velocity": 82}, {"time": 1956, "pitch": 60, "duration": 6, "velocity": 127}, {"time": 1959, "pitch": 57, "duration": 5, "velocity": 58}, {"time": 1962, "pitch": 53, "duration": 2, "velocity": 74}, {"time": 1965, "pitch": 60, "duration": 5, "velocity": 95}, {"time": 1968, "pitch": 57, "duration": 2, "velocity": 86}, {"time": 1971, "pitch": 43, "duration": 18, "velocity": 92}, {"time": 1974, "pitch": 50, "duration": 9, "velocity": 49}, {"time": 1977, "pitch": 55, "duration": 4, "velocity": 90}, {"time": 1980, "pitch": 62, "duration": 4, "velocity": 127}, {"time": 1983, "pitch": 59, "duration": 6, "velocity": 88}, {"time": 1986, "pitch": 50, "duration": 8, "velocity": 69}, {"time": 1989, "pitch": 62, "duration": 4, "velocity": 102}, {"time": 1992, "pitch": 59, "duration": 25, "velocity": 95}, {"time": 1995, "pitch": 43, "duration": 22, "velocity": 92}, {"time": 1995, "pitch": 55, "duration": 22, "velocity": 100}, {"time": 1995, "pitch": 62, "duration": 23, "velocity": 67}, {"time": 2019, "pitch": 48, "duration": 16, "velocity": 88}, {"time": 2019, "pitch": 64, "duration": 7, "velocity": 117}, {"time": 2019, "pitch": 67, "duration": 7, "velocity": 102}, {"time": 2025, "pitch": 55, "duration": 7, "velocity": 92}, {"time": 2028, "pitch": 60, "duration": 3, "velocity": 96}, {"time": 2031, "pitch": 64, "duration": 6, "velocity": 122}, {"time": 2031, "pitch": 67, "duration": 7, "velocity": 127}, {"time": 2034, "pitch": 55, "duration": 1, "velocity": 93}, {"time": 2037, "pitch": 60, "duration": 3, "velocity": 112}, {"time": 2040, "pitch": 64, "duration": 1, "velocity": 92}, {"time": 2043, "pitch": 40, "duration": 17, "velocity": 93}, {"time": 2043, "pitch": 59, "duration": 7, "velocity": 102}, {"time": 2043, "pitch": 64, "duration": 7, "velocity": 97}, {"time": 2043, "pitch": 67, "duration": 7, "velocity": 96}, {"time": 2046, "pitch": 47, "duration": 15, "velocity": 62}, {"time": 2049, "pitch": 52, "duration": 6, "velocity": 81}, {"time": 2052, "pitch": 59, "duration": 7, "velocity": 99}, {"time": 2052, "pitch": 64, "duration": 7, "velocity": 100}, {"time": 2052, "pitch": 67, "duration": 7, "velocity": 95}, {"time": 2058, "pitch": 52, "duration": 3, "velocity": 69}, {"time": 2061, "pitch": 64, "duration": 3, "velocity": 100}, {"time": 2061, "pitch": 67, "duration": 3, "velocity": 112}, {"time": 2064, "pitch": 59, "duration": 1, "velocity": 83}, {"time": 2067, "pitch": 45, "duration": 7, "velocity": 86}, {"time": 2067, "pitch": 57, "duration": 7, "velocity": 107}, {"time": 2067, "pitch": 60, "duration": 7, "velocity": 99}, {"time": 2067, "pitch": 64, "duration": 7, "velocity": 99}, {"time": 2073, "pitch": 52, "duration": 1, "velocity": 69}, {"time": 2076, "pitch": 60, "duration": 6, "velocity": 112}, {"time": 2076, "pitch": 64, "duration": 6, "velocity": 112}, {"time": 2085, "pitch": 60, "duration": 3, "velocity": 102}, {"time": 2085, "pitch": 64, "duration": 3, "velocity": 107}, {"time": 2088, "pitch": 57, "duration": 1, "velocity": 39}, {"time": 2091, "pitch": 43, "duration": 18, "velocity": 78}, {"time": 2091, "pitch": 59, "duration": 1, "velocity": 100}, {"time": 2091, "pitch": 62, "duration": 1, "velocity": 102}, {"time": 2094, "pitch": 50, "duration": 15, "velocity": 58}, {"time": 2097, "pitch": 55, "duration": 5, "velocity": 72}, {"time": 2100, "pitch": 59, "duration": 6, "velocity": 90}, {"time": 2100, "pitch": 62, "duration": 6, "velocity": 107}, {"time": 2100, "pitch": 67, "duration": 6, "velocity": 96}, {"time": 2106, "pitch": 55, "duration": 1, "velocity": 73}, {"time": 2109, "pitch": 62, "duration": 1, "velocity": 102}, {"time": 2109, "pitch": 67, "duration": 1, "velocity": 117}, {"time": 2115, "pitch": 41, "duration": 18, "velocity": 85}, {"time": 2115, "pitch": 57, "duration": 5, "velocity": 96}, {"time": 2115, "pitch": 60, "duration": 5, "velocity": 96}, {"time": 2118, "pitch": 48, "duration": 15, "velocity": 92}, {"time": 2121, "pitch": 53, "duration": 6, "velocity": 92}, {"time": 2124, "pitch": 57, "duration": 6, "velocity": 102}, {"time": 2124, "pitch": 60, "duration": 6, "velocity": 112}, {"time": 2124, "pitch": 65, "duration": 7, "velocity": 112}, {"time": 2130, "pitch": 53, "duration": 2, "velocity": 78}, {"time": 2133, "pitch": 60, "duration": 3, "velocity": 99}, {"time": 2133, "pitch": 65, "duration": 3, "velocity": 100}, {"time": 2136, "pitch": 57, "duration": 1, "velocity": 85}, {"time": 2139, "pitch": 40, "duration": 18, "velocity": 86}, {"time": 2139, "pitch": 55, "duration": 4, "velocity": 100}, {"time": 2139, "pitch": 59, "duration": 5, "velocity": 95}, {"time": 2142, "pitch": 47, "duration": 15, "velocity": 54}, {"time": 2145, "pitch": 52, "duration": 6, "velocity": 90}, {"time": 2148, "pitch": 55, "duration": 5, "velocity": 100}, {"time": 2148, "pitch": 59, "duration": 6, "velocity": 112}, {"time": 2148, "pitch": 64, "duration": 6, "velocity": 99}, {"time": 2154, "pitch": 52, "duration": 2, "velocity": 83}, {"time": 2157, "pitch": 59, "duration": 6, "velocity": 107}, {"time": 2157, "pitch": 64, "duration": 6, "velocity": 100}, {"time": 2163, "pitch": 38, "duration": 17, "velocity": 89}, {"time": 2166, "pitch": 45, "duration": 14, "velocity": 66}, {"time": 2169, "pitch": 50, "duration": 6, "velocity": 86}, {"time": 2172, "pitch": 57, "duration": 4, "velocity": 99}, {"time": 2172, "pitch": 62, "duration": 6, "velocity": 102}, {"time": 2172, "pitch": 65, "duration": 6, "velocity": 100}, {"time": 2178, "pitch": 50, "duration": 8, "velocity": 90}, {"time": 2181, "pitch": 62, "duration": 3, "velocity": 112}, {"time": 2181, "pitch": 65, "duration": 4, "velocity": 102}, {"time": 2184, "pitch": 57, "duration": 3, "velocity": 89}, {"time": 2187, "pitch": 43, "duration": 18, "velocity": 95}, {"time": 2187, "pitch": 59, "duration": 1, "velocity": 107}, {"time": 2187, "pitch": 62, "duration": 1, "velocity": 99}, {"time": 2187, "pitch": 64, "duration": 1, "velocity": 89}, {"time": 2190, "pitch": 50, "duration": 14, "velocity": 95}, {"time": 2193, "pitch": 55, "duration": 6, "velocity": 82}, {"time": 2196, "pitch": 62, "duration": 6, "velocity": 102}, {"time": 2196, "pitch": 67, "duration": 6, "velocity": 112}, {"time": 2196, "pitch": 71, "duration": 6, "velocity": 107}, {"time": 2202, "pitch": 55, "duration": 1, "velocity": 97}, {"time": 2205, "pitch": 67, "duration": 1, "velocity": 102}, {"time": 2205, "pitch": 71, "duration": 1, "velocity": 112}, {"time": 2211, "pitch": 36, "duration": 18, "velocity": 92}, {"time": 2211, "pitch": 55, "duration": 6, "velocity": 97}, {"time": 2211, "pitch": 60, "duration": 7, "velocity": 99}, {"time": 2211, "pitch": 64, "duration": 6, "velocity": 95}, {"time": 2214, "pitch": 43, "duration": 16, "velocity": 86}, {"time": 2217, "pitch": 48, "duration": 7, "velocity": 95}, {"time": 2220, "pitch": 60, "duration": 7, "velocity": 117}, {"time": 2220, "pitch": 64, "duration": 7, "velocity": 107}, {"time": 2223, "pitch": 55, "duration": 3, "velocity": 37}, {"time": 2226, "pitch": 48, "duration": 6, "velocity": 72}, {"time": 2229, "pitch": 60, "duration": 3, "velocity": 112}, {"time": 2229, "pitch": 64, "duration": 3, "velocity": 100}, {"time": 2232, "pitch": 55, "duration": 1, "velocity": 62}, {"time": 2235, "pitch": 43, "duration": 18, "velocity": 85}, {"time": 2235, "pitch": 55, "duration": 7, "velocity": 102}, {"time": 2235, "pitch": 59, "duration": 7, "velocity": 99}, {"time": 2235, "pitch": 62, "duration": 7, "velocity": 97}, {"time": 2241, "pitch": 50, "duration": 6, "velocity": 82}, {"time": 2244, "pitch": 55, "duration": 6, "velocity": 96}, {"time": 2244, "pitch": 59, "duration": 6, "velocity": 100}, {"time": 2244, "pitch": 62, "duration": 6, "velocity": 97}, {"time": 2250, "pitch": 50, "duration": 4, "velocity": 76}, {"time": 2253, "pitch": 59, "duration": 2, "velocity": 112}, {"time": 2253, "pitch": 62, "duration": 2, "velocity": 102}, {"time": 2259, "pitch": 45, "duration": 17, "velocity": 92}, {"time": 2259, "pitch": 57, "duration": 1, "velocity": 99}, {"time": 2259, "pitch": 60, "duration": 1, "velocity": 97}, {"time": 2259, "pitch": 64, "duration": 2, "velocity": 93}, {"time": 2262, "pitch": 52, "duration": 10, "velocity": 72}, {"time": 2265, "pitch": 57, "duration": 2, "velocity": 89}, {"time": 2268, "pitch": 64, "duration": 6, "velocity": 97}, {"time": 2268, "pitch": 69, "duration": 6, "velocity": 97}, {"time": 2268, "pitch": 72, "duration": 6, "velocity": 95}, {"time": 2274, "pitch": 52, "duration": 1, "velocity": 56}, {"time": 2277, "pitch": 69, "duration": 1, "velocity": 112}, {"time": 2277, "pitch": 72, "duration": 1, "velocity": 117}, {"time": 2283, "pitch": 40, "duration": 18, "velocity": 95}, {"time": 2283, "pitch": 64, "duration": 6, "velocity": 89}, {"time": 2283, "pitch": 67, "duration": 6, "velocity": 96}, {"time": 2283, "pitch": 71, "duration": 6, "velocity": 102}, {"time": 2286, "pitch": 47, "duration": 20, "velocity": 79}, {"time": 2289, "pitch": 52, "duration": 5, "velocity": 97}, {"time": 2292, "pitch": 67, "duration": 6, "velocity": 117}, {"time": 2292, "pitch": 71, "duration": 6, "velocity": 117}, {"time": 2295, "pitch": 64, "duration": 4, "velocity": 86}, {"time": 2298, "pitch": 52, "duration": 2, "velocity": 97}, {"time": 2301, "pitch": 67, "duration": 4, "velocity": 122}, {"time": 2301, "pitch": 71, "duration": 4, "velocity": 122}, {"time": 2304, "pitch": 64, "duration": 2, "velocity": 92}, {"time": 2307, "pitch": 41, "duration": 19, "velocity": 86}, {"time": 2307, "pitch": 65, "duration": 7, "velocity": 102}, {"time": 2307, "pitch": 69, "duration": 7, "velocity": 99}, {"time": 2307, "pitch": 71, "duration": 1, "velocity": 90}, {"time": 2310, "pitch": 48, "duration": 15, "velocity": 67}, {"time": 2313, "pitch": 53, "duration": 5, "velocity": 89}, {"time": 2316, "pitch": 65, "duration": 4, "velocity": 127}, {"time": 2316, "pitch": 69, "duration": 4, "velocity": 122}, {"time": 2319, "pitch": 60, "duration": 7, "velocity": 97}, {"time": 2322, "pitch": 53, "duration": 2, "velocity": 102}, {"time": 2325, "pitch": 69, "duration": 4, "velocity": 127}, {"time": 2328, "pitch": 60, "duration": 2, "velocity": 102}, {"time": 2331, "pitch": 40, "duration": 17, "velocity": 88}, {"time": 2331, "pitch": 64, "duration": 7, "velocity": 102}, {"time": 2331, "pitch": 67, "duration": 7, "velocity": 122}, {"time": 2334, "pitch": 47, "duration": 14, "velocity": 67}, {"time": 2337, "pitch": 52, "duration": 6, "velocity": 88}, {"time": 2340, "pitch": 64, "duration": 6, "velocity": 112}, {"time": 2340, "pitch": 67, "duration": 6, "velocity": 107}, {"time": 2343, "pitch": 59, "duration": 4, "velocity": 74}, {"time": 2346, "pitch": 52, "duration": 2, "velocity": 89}, {"time": 2349, "pitch": 64, "duration": 1, "velocity": 100}, {"time": 2349, "pitch": 67, "duration": 1, "velocity": 99}, {"time": 2355, "pitch": 38, "duration": 16, "velocity": 74}, {"time": 2355, "pitch": 57, "duration": 7, "velocity": 97}, {"time": 2355, "pitch": 62, "duration": 6, "velocity": 97}, {"time": 2355, "pitch": 65, "duration": 7, "velocity": 89}, {"time": 2358, "pitch": 45, "duration": 14, "velocity": 61}, {"time": 2361, "pitch": 50, "duration": 6, "velocity": 89}, {"time": 2364, "pitch": 62, "duration": 7, "velocity": 100}, {"time": 2364, "pitch": 65, "duration": 7, "velocity": 100}, {"time": 2370, "pitch": 50, "duration": 4, "velocity": 85}, {"time": 2373, "pitch": 62, "duration": 1, "velocity": 107}, {"time": 2373, "pitch": 65, "duration": 1, "velocity": 100}, {"time": 2379, "pitch": 43, "duration": 17, "velocity": 85}, {"time": 2379, "pitch": 59, "duration": 1, "velocity": 97}, {"time": 2379, "pitch": 62, "duration": 1, "velocity": 99}, {"time": 2382, "pitch": 50, "duration": 10, "velocity": 73}, {"time": 2385, "pitch": 55, "duration": 5, "velocity": 93}, {"time": 2388, "pitch": 67, "duration": 9, "velocity": 112}, {"time": 2388, "pitch": 71, "duration": 9, "velocity": 117}, {"time": 2394, "pitch": 50, "duration": 1, "velocity": 86}, {"time": 2397, "pitch": 62, "duration": 3, "velocity": 99}, {"time": 2403, "pitch": 36, "duration": 21, "velocity": 88}, {"time": 2406, "pitch": 43, "duration": 21, "velocity": 56}, {"time": 2409, "pitch": 48, "duration": 6, "velocity": 86}, {"time": 2412, "pitch": 64, "duration": 6, "velocity": 96}, {"time": 2412, "pitch": 67, "duration": 9, "velocity": 99}, {"time": 2418, "pitch": 48, "duration": 3, "velocity": 74}, {"time": 2421, "pitch": 62, "duration": 7, "velocity": 112}, {"time": 2424, "pitch": 64, "duration": 14, "velocity": 67}, {"time": 2427, "pitch": 36, "duration": 16, "velocity": 86}, {"time": 2427, "pitch": 60, "duration": 10, "velocity": 85}, {"time": 2427, "pitch": 67, "duration": 11, "velocity": 77}, {"time": 2439, "pitch": 64, "duration": 6, "velocity": 117}, {"time": 2439, "pitch": 67, "duration": 6, "velocity": 122}, {"time": 2442, "pitch": 48, "duration": 1, "velocity": 89}, {"time": 2445, "pitch": 62, "duration": 6, "velocity": 112}, {"time": 2451, "pitch": 36, "duration": 16, "velocity": 72}, {"time": 2454, "pitch": 43, "duration": 12, "velocity": 34}, {"time": 2457, "pitch": 48, "duration": 6, "velocity": 72}, {"time": 2460, "pitch": 64, "duration": 15, "velocity": 122}, {"time": 2475, "pitch": 40, "duration": 18, "velocity": 77}, {"time": 2478, "pitch": 47, "duration": 15, "velocity": 36}, {"time": 2481, "pitch": 52, "duration": 7, "velocity": 82}, {"time": 2484, "pitch": 59, "duration": 15, "velocity": 97}, {"time": 2490, "pitch": 52, "duration": 7, "velocity": 53}, {"time": 2493, "pitch": 55, "duration": 6, "velocity": 92}, {"time": 2499, "pitch": 45, "duration": 17, "velocity": 88}, {"time": 2502, "pitch": 52, "duration": 7, "velocity": 37}, {"time": 2505, "pitch": 57, "duration": 3, "velocity": 93}, {"time": 2508, "pitch": 64, "duration": 15, "velocity": 99}, {"time": 2517, "pitch": 60, "duration": 6, "velocity": 63}, {"time": 2520, "pitch": 57, "duration": 3, "velocity": 53}, {"time": 2523, "pitch": 43, "duration": 19, "velocity": 64}, {"time": 2526, "pitch": 50, "duration": 15, "velocity": 62}, {"time": 2529, "pitch": 55, "duration": 6, "velocity": 88}, {"time": 2532, "pitch": 67, "duration": 15, "velocity": 100}, {"time": 2535, "pitch": 62, "duration": 12, "velocity": 67}, {"time": 2538, "pitch": 55, "duration": 3, "velocity": 77}, {"time": 2541, "pitch": 59, "duration": 6, "velocity": 88}, {"time": 2547, "pitch": 41, "duration": 17, "velocity": 89}, {"time": 2550, "pitch": 48, "duration": 14, "velocity": 61}, {"time": 2553, "pitch": 53, "duration": 6, "velocity": 83}, {"time": 2556, "pitch": 65, "duration": 15, "velocity": 99}, {"time": 2562, "pitch": 53, "duration": 1, "velocity": 58}, {"time": 2565, "pitch": 60, "duration": 6, "velocity": 88}, {"time": 2568, "pitch": 57, "duration": 4, "velocity": 82}, {"time": 2571, "pitch": 40, "duration": 17, "velocity": 72}, {"time": 2574, "pitch": 47, "duration": 14, "velocity": 48}, {"time": 2577, "pitch": 52, "duration": 6, "velocity": 71}, {"time": 2580, "pitch": 64, "duration": 15, "velocity": 102}, {"time": 2583, "pitch": 59, "duration": 11, "velocity": 74}, {"time": 2586, "pitch": 52, "duration": 1, "velocity": 59}, {"time": 2589, "pitch": 55, "duration": 5, "velocity": 71}, {"time": 2595, "pitch": 38, "duration": 16, "velocity": 92}, {"time": 2598, "pitch": 45, "duration": 12, "velocity": 43}, {"time": 2601, "pitch": 50, "duration": 7, "velocity": 89}, {"time": 2604, "pitch": 57, "duration": 3, "velocity": 89}, {"time": 2607, "pitch": 65, "duration": 6, "velocity": 112}, {"time": 2610, "pitch": 50, "duration": 2, "velocity": 79}, {"time": 2613, "pitch": 62, "duration": 1, "velocity": 92}, {"time": 2619, "pitch": 43, "duration": 16, "velocity": 97}, {"time": 2619, "pitch": 55, "duration": 2, "velocity": 99}, {"time": 2619, "pitch": 59, "duration": 6, "velocity": 102}, {"time": 2619, "pitch": 62, "duration": 7, "velocity": 107}, {"time": 2622, "pitch": 50, "duration": 10, "velocity": 100}, {"time": 2625, "pitch": 55, "duration": 3, "velocity": 122}, {"time": 2628, "pitch": 57, "duration": 2, "velocity": 99}, {"time": 2628, "pitch": 60, "duration": 2, "velocity": 107}, {"time": 2631, "pitch": 59, "duration": 5, "velocity": 117}, {"time": 2631, "pitch": 62, "duration": 4, "velocity": 117}, {"time": 2634, "pitch": 50, "duration": 1, "velocity": 127}, {"time": 2637, "pitch": 59, "duration": 3, "velocity": 127}, {"time": 2637, "pitch": 62, "duration": 3, "velocity": 122}, {"time": 2640, "pitch": 55, "duration": 13, "velocity": 86}, {"time": 2643, "pitch": 36, "duration": 15, "velocity": 77}, {"time": 2643, "pitch": 60, "duration": 10, "velocity": 122}, {"time": 2643, "pitch": 64, "duration": 10, "velocity": 127}, {"time": 2649, "pitch": 43, "duration": 9, "velocity": 65}, {"time": 2652, "pitch": 48, "duration": 4, "velocity": 96}, {"time": 2655, "pitch": 60, "duration": 5, "velocity": 127}, {"time": 2655, "pitch": 64, "duration": 5, "velocity": 127}, {"time": 2658, "pitch": 48, "duration": 1, "velocity": 100}, {"time": 2661, "pitch": 55, "duration": 4, "velocity": 107}, {"time": 2667, "pitch": 43, "duration": 15, "velocity": 82}, {"time": 2667, "pitch": 55, "duration": 1, "velocity": 99}, {"time": 2667, "pitch": 59, "duration": 1, "velocity": 100}, {"time": 2667, "pitch": 62, "duration": 1, "velocity": 102}, {"time": 2670, "pitch": 50, "duration": 10, "velocity": 90}, {"time": 2673, "pitch": 55, "duration": 3, "velocity": 83}, {"time": 2676, "pitch": 67, "duration": 1, "velocity": 97}, {"time": 2676, "pitch": 71, "duration": 1, "velocity": 95}, {"time": 2679, "pitch": 67, "duration": 5, "velocity": 122}, {"time": 2679, "pitch": 71, "duration": 5, "velocity": 112}, {"time": 2682, "pitch": 50, "duration": 1, "velocity": 97}, {"time": 2685, "pitch": 62, "duration": 1, "velocity": 102}, {"time": 2691, "pitch": 45, "duration": 19, "velocity": 96}, {"time": 2691, "pitch": 57, "duration": 1, "velocity": 100}, {"time": 2691, "pitch": 60, "duration": 1, "velocity": 97}, {"time": 2691, "pitch": 64, "duration": 1, "velocity": 93}, {"time": 2694, "pitch": 52, "duration": 8, "velocity": 71}, {"time": 2697, "pitch": 57, "duration": 3, "velocity": 92}, {"time": 2700, "pitch": 69, "duration": 3, "velocity": 127}, {"time": 2700, "pitch": 72, "duration": 3, "velocity": 127}, {"time": 2706, "pitch": 52, "duration": 4, "velocity": 37}, {"time": 2709, "pitch": 71, "duration": 3, "velocity": 127}, {"time": 2712, "pitch": 69, "duration": 2, "velocity": 117}, {"time": 2715, "pitch": 40, "duration": 18, "velocity": 77}, {"time": 2715, "pitch": 67, "duration": 3, "velocity": 122}, {"time": 2715, "pitch": 71, "duration": 3, "velocity": 73}, {"time": 2718, "pitch": 47, "duration": 17, "velocity": 82}, {"time": 2721, "pitch": 52, "duration": 6, "velocity": 99}, {"time": 2724, "pitch": 71, "duration": 2, "velocity": 127}, {"time": 2727, "pitch": 69, "duration": 6, "velocity": 127}, {"time": 2730, "pitch": 52, "duration": 2, "velocity": 93}, {"time": 2733, "pitch": 67, "duration": 4, "velocity": 122}, {"time": 2736, "pitch": 47, "duration": 1, "velocity": 24}, {"time": 2739, "pitch": 41, "duration": 17, "velocity": 74}, {"time": 2739, "pitch": 65, "duration": 7, "velocity": 127}, {"time": 2742, "pitch": 48, "duration": 13, "velocity": 59}, {"time": 2745, "pitch": 53, "duration": 6, "velocity": 86}, {"time": 2748, "pitch": 69, "duration": 9, "velocity": 127}, {"time": 2754, "pitch": 53, "duration": 1, "velocity": 95}, {"time": 2757, "pitch": 65, "duration": 1, "velocity": 117}, {"time": 2763, "pitch": 40, "duration": 17, "velocity": 75}, {"time": 2763, "pitch": 64, "duration": 8, "velocity": 107}, {"time": 2763, "pitch": 67, "duration": 6, "velocity": 122}, {"time": 2766, "pitch": 47, "duration": 13, "velocity": 42}, {"time": 2769, "pitch": 52, "duration": 6, "velocity": 99}, {"time": 2772, "pitch": 67, "duration": 3, "velocity": 117}, {"time": 2775, "pitch": 65, "duration": 5, "velocity": 127}, {"time": 2778, "pitch": 52, "duration": 1, "velocity": 100}, {"time": 2781, "pitch": 64, "duration": 3, "velocity": 127}, {"time": 2784, "pitch": 65, "duration": 2, "velocity": 97}, {"time": 2787, "pitch": 38, "duration": 17, "velocity": 79}, {"time": 2787, "pitch": 62, "duration": 8, "velocity": 127}, {"time": 2790, "pitch": 45, "duration": 14, "velocity": 77}, {"time": 2793, "pitch": 50, "duration": 6, "velocity": 97}, {"time": 2796, "pitch": 65, "duration": 3, "velocity": 96}, {"time": 2799, "pitch": 69, "duration": 9, "velocity": 112}, {"time": 2802, "pitch": 50, "duration": 6, "velocity": 89}, {"time": 2805, "pitch": 65, "duration": 5, "velocity": 112}, {"time": 2808, "pitch": 62, "duration": 3, "velocity": 70}, {"time": 2811, "pitch": 43, "duration": 20, "velocity": 85}, {"time": 2811, "pitch": 67, "duration": 1, "velocity": 102}, {"time": 2814, "pitch": 50, "duration": 10, "velocity": 78}, {"time": 2817, "pitch": 55, "duration": 6, "velocity": 95}, {"time": 2820, "pitch": 57, "duration": 3, "velocity": 95}, {"time": 2823, "pitch": 59, "duration": 6, "velocity": 127}, {"time": 2826, "pitch": 50, "duration": 9, "velocity": 107}, {"time": 2829, "pitch": 62, "duration": 5, "velocity": 102}, {"time": 2832, "pitch": 59, "duration": 68, "velocity": 102}, {"time": 2835, "pitch": 43, "duration": 65, "velocity": 77}, {"time": 2835, "pitch": 55, "duration": 65, "velocity": 102}, {"time": 2835, "pitch": 62, "duration": 65, "velocity": 52}, {"time": 2895, "pitch": 41, "duration": 18, "velocity": 89}, {"time": 2900, "pitch": 48, "duration": 13, "velocity": 37}, {"time": 2906, "pitch": 64, "duration": 13, "velocity": 100}, {"time": 2912, "pitch": 60, "duration": 7, "velocity": 76}, {"time": 2919, "pitch": 40, "duration": 20, "velocity": 78}, {"time": 2924, "pitch": 52, "duration": 7, "velocity": 66}, {"time": 2928, "pitch": 64, "duration": 1, "velocity": 27}, {"time": 2930, "pitch": 67, "duration": 12, "velocity": 107}, {"time": 2936, "pitch": 64, "duration": 6, "velocity": 81}, {"time": 2942, "pitch": 38, "duration": 21, "velocity": 85}, {"time": 2948, "pitch": 45, "duration": 17, "velocity": 63}, {"time": 2955, "pitch": 62, "duration": 23, "velocity": 99}, {"time": 2955, "pitch": 65, "duration": 23, "velocity": 100}, {"time": 2958, "pitch": 50, "duration": 11, "velocity": 23}, {"time": 2961, "pitch": 57, "duration": 16, "velocity": 96}, {"time": 2974, "pitch": 43, "duration": 31, "velocity": 74}, {"time": 2979, "pitch": 50, "duration": 24, "velocity": 72}, {"time": 2985, "pitch": 55, "duration": 17, "velocity": 99}, {"time": 2991, "pitch": 59, "duration": 14, "velocity": 75}, {"time": 2998, "pitch": 67, "duration": 8, "velocity": 59}, {"time": 3017, "pitch": 36, "duration": 75, "velocity": 60}, {"time": 3017, "pitch": 60, "duration": 75, "velocity": 63}, {"time": 3018, "pitch": 64, "duration": 74, "velocity": 67}, {"time": 3018, "pitch": 48, "duration": 73, "velocity": 55}, {"time": 3019, "pitch": 67, "duration": 73, "velocity": 63}, {"time": 3019, "pitch": 43, "duration": 73, "velocity": 47}, {"time": 3020, "pitch": 71, "duration": 72, "velocity": 81}], "annotations": [{"time": 82, "annotation": {"number": 64, "value": 127}, "group": "control_change"}, {"time": 82, "annotation": {"number": 64, "value": 0}, "group": "control_change"}, {"time": 97, "annotation": {"number": 64, "value": 127}, "group": "control_change"}, {"time": 121, "annotation": {"number": 64, "value": 0}, "group": "control_change"}, {"time": 123, "annotation": {"number": 64, "value": 127}, "group": "control_change"}, {"time": 145, "annotation": {"number": 64, "value": 0}, "group": "control_change"}, {"time": 147, "annotation": {"number": 64, "value": 127}, "group": "control_change"}, {"time": 168, "annotation": {"number": 64, "value": 0}, "group": "control_change"}, {"time": 171, "annotation": {"number": 64, "value": 127}, "group": "control_change"}, {"time": 193, "annotation": {"number": 64, "value": 0}, "group": "control_change"}, {"time": 195, "annotation": {"number": 64, "value": 127}, "group": "control_change"}, {"time": 217, "annotation": {"number": 64, "value": 0}, "group": "control_change"}, {"time": 219, "annotation": {"number": 64, "value": 127}, "group": "control_change"}, {"time": 241, "annotation": {"number": 64, "value": 0}, "group": "control_change"}, {"time": 243, "annotation": {"number": 64, "value": 127}, "group": "control_change"}, {"time": 264, "annotation": {"number": 64, "value": 0}, "group": "control_change"}, {"time": 267, "annotation": {"number": 64, "value": 127}, "group": "control_change"}, {"time": 288, "annotation": {"number": 64, "value": 0}, "group": "control_change"}, {"time": 291, "annotation": {"number": 64, "value": 127}, "group": "control_change"}, {"time": 313, "annotation": {"number": 64, "value": 0}, "group": "control_change"}, {"time": 315, "annotation": {"number": 64, "value": 127}, "group": "control_change"}, {"time": 337, "annotation": {"number": 64, "value": 0}, "group": "control_change"}, {"time": 339, "annotation": {"number": 64, "value": 127}, "group": "control_change"}, {"time": 384, "annotation": {"number": 64, "value": 0}, "group": "control_change"}, {"time": 387, "annotation": {"number": 64, "value": 127}, "group": "control_change"}, {"time": 434, "annotation": {"number": 64, "value": 0}, "group": "control_change"}, {"time": 436, "annotation": {"number": 64, "value": 127}, "group": "control_change"}, {"time": 456, "annotation": {"number": 64, "value": 0}, "group": "control_change"}, {"time": 459, "annotation": {"number": 64, "value": 127}, "group": "control_change"}, {"time": 481, "annotation": {"number": 64, "value": 0}, "group": "control_change"}, {"time": 484, "annotation": {"number": 64, "value": 127}, "group": "control_change"}, {"time": 505, "annotation": {"number": 64, "value": 0}, "group": "control_change"}, {"time": 507, "annotation": {"number": 64, "value": 127}, "group": "control_change"}, {"time": 528, "annotation": {"number": 64, "value": 0}, "group": "control_change"}, {"time": 531, "annotation": {"number": 64, "value": 127}, "group": "control_change"}, {"time": 552, "annotation": {"number": 64, "value": 0}, "group": "control_change"}, {"time": 555, "annotation": {"number": 64, "value": 127}, "group": "control_change"}, {"time": 577, "annotation": {"number": 64, "value": 0}, "group": "control_change"}, {"time": 580, "annotation": {"number": 64, "value": 127}, "group": "control_change"}, {"time": 600, "annotation": {"number": 64, "value": 0}, "group": "control_change"}, {"time": 602, "annotation": {"number": 64, "value": 127}, "group": "control_change"}, {"time": 624, "annotation": {"number": 64, "value": 0}, "group": "control_change"}, {"time": 627, "annotation": {"number": 64, "value": 127}, "group": "control_change"}, {"time": 648, "annotation": {"number": 64, "value": 0}, "group": "control_change"}, {"time": 651, "annotation": {"number": 64, "value": 127}, "group": "control_change"}, {"time": 672, "annotation": {"number": 64, "value": 0}, "group": "control_change"}, {"time": 675, "annotation": {"number": 64, "value": 127}, "group": "control_change"}, {"time": 696, "annotation": {"number": 64, "value": 0}, "group": "control_change"}, {"time": 699, "annotation": {"number": 64, "value": 127}, "group": "control_change"}, {"time": 720, "annotation": {"number": 64, "value": 0}, "group": "control_change"}, {"time": 723, "annotation": {"number": 64, "value": 127}, "group": "control_change"}, {"time": 733, "annotation": {"number": 64, "value": 0}, "group": "control_change"}, {"time": 739, "annotation": {"number": 64, "value": 127}, "group": "control_change"}, {"time": 744, "annotation": {"number": 64, "value": 0}, "group": "control_change"}, {"time": 747, "annotation": {"number": 64, "value": 127}, "group": "control_change"}, {"time": 768, "annotation": {"number": 64, "value": 0}, "group": "control_change"}, {"time": 772, "annotation": {"number": 64, "value": 127}, "group": "control_change"}, {"time": 792, "annotation": {"number": 64, "value": 0}, "group": "control_change"}, {"time": 795, "annotation": {"number": 64, "value": 127}, "group": "control_change"}, {"time": 816, "annotation": {"number": 64, "value": 0}, "group": "control_change"}, {"time": 819, "annotation": {"number": 64, "value": 127}, "group": "control_change"}, {"time": 841, "annotation": {"number": 64, "value": 0}, "group": "control_change"}, {"time": 843, "annotation": {"number": 64, "value": 127}, "group": "control_change"}, {"time": 863, "annotation": {"number": 64, "value": 0}, "group": "control_change"}, {"time": 867, "annotation": {"number": 64, "value": 127}, "group": "control_change"}, {"time": 889, "annotation": {"number": 64, "value": 0}, "group": "control_change"}, {"time": 891, "annotation": {"number": 64, "value": 127}, "group": "control_change"}, {"time": 913, "annotation": {"number": 64, "value": 0}, "group": "control_change"}, {"time": 915, "annotation": {"number": 64, "value": 127}, "group": "control_change"}, {"time": 937, "annotation": {"number": 64, "value": 0}, "group": "control_change"}, {"time": 939, "annotation": {"number": 64, "value": 127}, "group": "control_change"}, {"time": 960, "annotation": {"number": 64, "value": 0}, "group": "control_change"}, {"time": 963, "annotation": {"number": 64, "value": 127}, "group": "control_change"}, {"time": 983, "annotation": {"number": 64, "value": 0}, "group": "control_change"}, {"time": 986, "annotation": {"number": 64, "value": 127}, "group": "control_change"}, {"time": 1009, "annotation": {"number": 64, "value": 0}, "group": "control_change"}, {"time": 1010, "annotation": {"number": 64, "value": 127}, "group": "control_change"}, {"time": 1032, "annotation": {"number": 64, "value": 0}, "group": "control_change"}, {"time": 1034, "annotation": {"number": 64, "value": 127}, "group": "control_change"}, {"time": 1056, "annotation": {"number": 64, "value": 0}, "group": "control_change"}, {"time": 1058, "annotation": {"number": 64, "value": 127}, "group": "control_change"}, {"time": 1081, "annotation": {"number": 64, "value": 0}, "group": "control_change"}, {"time": 1083, "annotation": {"number": 64, "value": 127}, "group": "control_change"}, {"time": 1105, "annotation": {"number": 64, "value": 0}, "group": "control_change"}, {"time": 1106, "annotation": {"number": 64, "value": 127}, "group": "control_change"}, {"time": 1128, "annotation": {"number": 64, "value": 0}, "group": "control_change"}, {"time": 1131, "annotation": {"number": 64, "value": 127}, "group": "control_change"}, {"time": 1152, "annotation": {"number": 64, "value": 0}, "group": "control_change"}, {"time": 1154, "annotation": {"number": 64, "value": 127}, "group": "control_change"}, {"time": 1177, "annotation": {"number": 64, "value": 0}, "group": "control_change"}, {"time": 1178, "annotation": {"number": 64, "value": 127}, "group": "control_change"}, {"time": 1200, "annotation": {"number": 64, "value": 0}, "group": "control_change"}, {"time": 1203, "annotation": {"number": 64, "value": 127}, "group": "control_change"}, {"time": 1225, "annotation": {"number": 64, "value": 0}, "group": "control_change"}, {"time": 1226, "annotation": {"number": 64, "value": 127}, "group": "control_change"}, {"time": 1248, "annotation": {"number": 64, "value": 0}, "group": "control_change"}, {"time": 1250, "annotation": {"number": 64, "value": 127}, "group": "control_change"}, {"time": 1273, "annotation": {"number": 64, "value": 0}, "group": "control_change"}, {"time": 1275, "annotation": {"number": 64, "value": 127}, "group": "control_change"}, {"time": 1297, "annotation": {"number": 64, "value": 0}, "group": "control_change"}, {"time": 1298, "annotation": {"number": 64, "value": 127}, "group": "control_change"}, {"time": 1321, "annotation": {"number": 64, "value": 0}, "group": "control_change"}, {"time": 1322, "annotation": {"number": 64, "value": 127}, "group": "control_change"}, {"time": 1345, "annotation": {"number": 64, "value": 0}, "group": "control_change"}, {"time": 1346, "annotation": {"number": 64, "value": 127}, "group": "control_change"}, {"time": 1368, "annotation": {"number": 64, "value": 0}, "group": "control_change"}, {"time": 1371, "annotation": {"number": 64, "value": 127}, "group": "control_change"}, {"time": 1392, "annotation": {"number": 64, "value": 0}, "group": "control_change"}, {"time": 1395, "annotation": {"number": 64, "value": 127}, "group": "control_change"}, {"time": 1416, "annotation": {"number": 64, "value": 0}, "group": "control_change"}, {"time": 1419, "annotation": {"number": 64, "value": 127}, "group": "control_change"}, {"time": 1440, "annotation": {"number": 64, "value": 0}, "group": "control_change"}, {"time": 1442, "annotation": {"number": 64, "value": 127}, "group": "control_change"}, {"time": 1465, "annotation": {"number": 64, "value": 0}, "group": "control_change"}, {"time": 1466, "annotation": {"number": 64, "value": 127}, "group": "control_change"}, {"time": 1513, "annotation": {"number": 64, "value": 0}, "group": "control_change"}, {"time": 1514, "annotation": {"number": 64, "value": 127}, "group": "control_change"}, {"time": 1560, "annotation": {"number": 64, "value": 0}, "group": "control_change"}, {"time": 1562, "annotation": {"number": 64, "value": 127}, "group": "control_change"}, {"time": 1585, "annotation": {"number": 64, "value": 0}, "group": "control_change"}, {"time": 1586, "annotation": {"number": 64, "value": 127}, "group": "control_change"}, {"time": 1608, "annotation": {"number": 64, "value": 0}, "group": "control_change"}, {"time": 1612, "annotation": {"number": 64, "value": 127}, "group": "control_change"}, {"time": 1632, "annotation": {"number": 64, "value": 0}, "group": "control_change"}, {"time": 1634, "annotation": {"number": 64, "value": 127}, "group": "control_change"}, {"time": 1656, "annotation": {"number": 64, "value": 0}, "group": "control_change"}, {"time": 1659, "annotation": {"number": 64, "value": 127}, "group": "control_change"}, {"time": 1680, "annotation": {"number": 64, "value": 0}, "group": "control_change"}, {"time": 1683, "annotation": {"number": 64, "value": 127}, "group": "control_change"}, {"time": 1704, "annotation": {"number": 64, "value": 0}, "group": "control_change"}, {"time": 1707, "annotation": {"number": 64, "value": 127}, "group": "control_change"}, {"time": 1728, "annotation": {"number": 64, "value": 0}, "group": "control_change"}, {"time": 1731, "annotation": {"number": 64, "value": 127}, "group": "control_change"}, {"time": 1752, "annotation": {"number": 64, "value": 0}, "group": "control_change"}, {"time": 1755, "annotation": {"number": 64, "value": 127}, "group": "control_change"}, {"time": 1765, "annotation": {"number": 64, "value": 0}, "group": "control_change"}, {"time": 1771, "annotation": {"number": 64, "value": 127}, "group": "control_change"}, {"time": 1776, "annotation": {"number": 64, "value": 0}, "group": "control_change"}, {"time": 1779, "annotation": {"number": 64, "value": 127}, "group": "control_change"}, {"time": 1800, "annotation": {"number": 64, "value": 0}, "group": "control_change"}, {"time": 1804, "annotation": {"number": 64, "value": 127}, "group": "control_change"}, {"time": 1824, "annotation": {"number": 64, "value": 0}, "group": "control_change"}, {"time": 1827, "annotation": {"number": 64, "value": 127}, "group": "control_change"}, {"time": 1848, "annotation": {"number": 64, "value": 0}, "group": "control_change"}, {"time": 1851, "annotation": {"number": 64, "value": 127}, "group": "control_change"}, {"time": 1873, "annotation": {"number": 64, "value": 0}, "group": "control_change"}, {"time": 1875, "annotation": {"number": 64, "value": 127}, "group": "control_change"}, {"time": 1895, "annotation": {"number": 64, "value": 0}, "group": "control_change"}, {"time": 1899, "annotation": {"number": 64, "value": 127}, "group": "control_change"}, {"time": 1921, "annotation": {"number": 64, "value": 0}, "group": "control_change"}, {"time": 1923, "annotation": {"number": 64, "value": 127}, "group": "control_change"}, {"time": 1945, "annotation": {"number": 64, "value": 0}, "group": "control_change"}, {"time": 1947, "annotation": {"number": 64, "value": 127}, "group": "control_change"}, {"time": 1969, "annotation": {"number": 64, "value": 0}, "group": "control_change"}, {"time": 1971, "annotation": {"number": 64, "value": 127}, "group": "control_change"}, {"time": 1992, "annotation": {"number": 64, "value": 0}, "group": "control_change"}, {"time": 1995, "annotation": {"number": 64, "value": 127}, "group": "control_change"}, {"time": 2015, "annotation": {"number": 64, "value": 0}, "group": "control_change"}, {"time": 2018, "annotation": {"number": 64, "value": 127}, "group": "control_change"}, {"time": 2041, "annotation": {"number": 64, "value": 0}, "group": "control_change"}, {"time": 2042, "annotation": {"number": 64, "value": 127}, "group": "control_change"}, {"time": 2064, "annotation": {"number": 64, "value": 0}, "group": "control_change"}, {"time": 2066, "annotation": {"number": 64, "value": 127}, "group": "control_change"}, {"time": 2088, "annotation": {"number": 64, "value": 0}, "group": "control_change"}, {"time": 2090, "annotation": {"number": 64, "value": 127}, "group": "control_change"}, {"time": 2113, "annotation": {"number": 64, "value": 0}, "group": "control_change"}, {"time": 2115, "annotation": {"number": 64, "value": 127}, "group": "control_change"}, {"time": 2137, "annotation": {"number": 64, "value": 0}, "group": "control_change"}, {"time": 2138, "annotation": {"number": 64, "value": 127}, "group": "control_change"}, {"time": 2160, "annotation": {"number": 64, "value": 0}, "group": "control_change"}, {"time": 2163, "annotation": {"number": 64, "value": 127}, "group": "control_change"}, {"time": 2184, "annotation": {"number": 64, "value": 0}, "group": "control_change"}, {"time": 2186, "annotation": {"number": 64, "value": 127}, "group": "control_change"}, {"time": 2209, "annotation": {"number": 64, "value": 0}, "group": "control_change"}, {"time": 2210, "annotation": {"number": 64, "value": 127}, "group": "control_change"}, {"time": 2232, "annotation": {"number": 64, "value": 0}, "group": "control_change"}, {"time": 2235, "annotation": {"number": 64, "value": 127}, "group": "control_change"}, {"time": 2257, "annotation": {"number": 64, "value": 0}, "group": "control_change"}, {"time": 2258, "annotation": {"number": 64, "value": 127}, "group": "control_change"}, {"time": 2280, "annotation": {"number": 64, "value": 0}, "group": "control_change"}, {"time": 2282, "annotation": {"number": 64, "value": 127}, "group": "control_change"}, {"time": 2305, "annotation": {"number": 64, "value": 0}, "group": "control_change"}, {"time": 2307, "annotation": {"number": 64, "value": 127}, "group": "control_change"}, {"time": 2329, "annotation": {"number": 64, "value": 0}, "group": "control_change"}, {"time": 2330, "annotation": {"number": 64, "value": 127}, "group": "control_change"}, {"time": 2353, "annotation": {"number": 64, "value": 0}, "group": "control_change"}, {"time": 2354, "annotation": {"number": 64, "value": 127}, "group": "control_change"}, {"time": 2377, "annotation": {"number": 64, "value": 0}, "group": "control_change"}, {"time": 2378, "annotation": {"number": 64, "value": 127}, "group": "control_change"}, {"time": 2400, "annotation": {"number": 64, "value": 0}, "group": "control_change"}, {"time": 2402, "annotation": {"number": 64, "value": 127}, "group": "control_change"}, {"time": 2403, "annotation": {"number": 64, "value": 127}, "group": "control_change"}, {"time": 2425, "annotation": {"number": 64, "value": 0}, "group": "control_change"}, {"time": 2427, "annotation": {"number": 64, "value": 127}, "group": "control_change"}, {"time": 2448, "annotation": {"number": 64, "value": 0}, "group": "control_change"}, {"time": 2450, "annotation": {"number": 64, "value": 127}, "group": "control_change"}, {"time": 2473, "annotation": {"number": 64, "value": 0}, "group": "control_change"}, {"time": 2475, "annotation": {"number": 64, "value": 127}, "group": "control_change"}, {"time": 2497, "annotation": {"number": 64, "value": 0}, "group": "control_change"}, {"time": 2499, "annotation": {"number": 64, "value": 127}, "group": "control_change"}, {"time": 2521, "annotation": {"number": 64, "value": 0}, "group": "control_change"}, {"time": 2523, "annotation": {"number": 64, "value": 127}, "group": "control_change"}, {"time": 2544, "annotation": {"number": 64, "value": 0}, "group": "control_change"}, {"time": 2547, "annotation": {"number": 64, "value": 127}, "group": "control_change"}, {"time": 2568, "annotation": {"number": 64, "value": 0}, "group": "control_change"}, {"time": 2570, "annotation": {"number": 64, "value": 127}, "group": "control_change"}, {"time": 2591, "annotation": {"number": 64, "value": 0}, "group": "control_change"}, {"time": 2595, "annotation": {"number": 64, "value": 127}, "group": "control_change"}, {"time": 2617, "annotation": {"number": 64, "value": 0}, "group": "control_change"}, {"time": 2619, "annotation": {"number": 64, "value": 127}, "group": "control_change"}, {"time": 2640, "annotation": {"number": 64, "value": 0}, "group": "control_change"}, {"time": 2643, "annotation": {"number": 64, "value": 127}, "group": "control_change"}, {"time": 2665, "annotation": {"number": 64, "value": 0}, "group": "control_change"}, {"time": 2666, "annotation": {"number": 64, "value": 127}, "group": "control_change"}, {"time": 2689, "annotation": {"number": 64, "value": 0}, "group": "control_change"}, {"time": 2691, "annotation": {"number": 64, "value": 127}, "group": "control_change"}, {"time": 2713, "annotation": {"number": 64, "value": 0}, "group": "control_change"}, {"time": 2714, "annotation": {"number": 64, "value": 127}, "group": "control_change"}, {"time": 2737, "annotation": {"number": 64, "value": 0}, "group": "control_change"}, {"time": 2738, "annotation": {"number": 64, "value": 127}, "group": "control_change"}, {"time": 2761, "annotation": {"number": 64, "value": 0}, "group": "control_change"}, {"time": 2762, "annotation": {"number": 64, "value": 127}, "group": "control_change"}, {"time": 2785, "annotation": {"number": 64, "value": 0}, "group": "control_change"}, {"time": 2787, "annotation": {"number": 64, "value": 127}, "group": "control_change"}, {"time": 2808, "annotation": {"number": 64, "value": 0}, "group": "control_change"}, {"time": 2810, "annotation": {"number": 64, "value": 127}, "group": "control_change"}, {"time": 2833, "annotation": {"number": 64, "value": 0}, "group": "control_change"}, {"time": 2895, "annotation": {"number": 64, "value": 127}, "group": "control_change"}, {"time": 2917, "annotation": {"number": 64, "value": 0}, "group": "control_change"}, {"time": 2920, "annotation": {"number": 64, "value": 127}, "group": "control_change"}, {"time": 2940, "annotation": {"number": 64, "value": 0}, "group": "control_change"}, {"time": 2943, "annotation": {"number": 64, "value": 127}, "group": "control_change"}, {"time": 2976, "annotation": {"number": 64, "value": 0}, "group": "control_change"}, {"time": 2980, "annotation": {"number": 64, "value": 127}, "group": "control_change"}, {"time": 3082, "annotation": {"number": 64, "value": 0}, "group": "control_change"}, {"time": 3089, "annotation": {"number": 64, "value": 127}, "group": "control_change"}, {"time": 3097, "annotation": {"number": 64, "value": 0}, "group": "control_change"}]}]}