{"metadata": {"schema_version": "0.2", "title": "None", "source_filename": "080.mid", "source_format": "midi"}, "resolution": 12, "tempos": [{"time": 0, "qpm": 71.00003550001774}, {"time": 264, "qpm": 71.51208733056104}, {"time": 2088, "qpm": 72.00002880001152}, {"time": 2170, "qpm": 71.00003550001774}, {"time": 2244, "qpm": 72.00002880001152}, {"time": 2302, "qpm": 71.00003550001774}, {"time": 2328, "qpm": 72.00002880001152}, {"time": 2484, "qpm": 71.00003550001774}, {"time": 2550, "qpm": 72.00002880001152}, {"time": 2592, "qpm": 72.99998296667064}, {"time": 2640, "qpm": 73.99998273333736}, {"time": 2652, "qpm": 82.00014760026568}, {"time": 2736, "qpm": 84.000084000084}, {"time": 2748, "qpm": 86.00005160003096}, {"time": 2760, "qpm": 89.00004005001803}, {"time": 2796, "qpm": 86.00005160003096}, {"time": 2820, "qpm": 84.000084000084}, {"time": 2868, "qpm": 72.99998296667064}, {"time": 2928, "qpm": 71.51208733056104}, {"time": 3273, "qpm": 69.99998833333528}, {"time": 3277, "qpm": 68.0000725334107}, {"time": 3301, "qpm": 71.51208733056104}], "key_signatures": [{"time": 0, "root": 0, "mode": "major"}], "time_signatures": [{"time": 0, "numerator": 4, "denominator": 4}, {"time": 0, "numerator": 1, "denominator": 4}], "tracks": [{"program": 0, "is_drum": false, "name": "MELODY", "notes": [{"time": 665, "pitch": 71, "duration": 2, "velocity": 101}, {"time": 671, "pitch": 71, "duration": 3, "velocity": 115}, {"time": 680, "pitch": 62, "duration": 1, "velocity": 115}, {"time": 683, "pitch": 71, "duration": 1, "velocity": 115}, {"time": 686, "pitch": 69, "duration": 1, "velocity": 106}, {"time": 689, "pitch": 69, "duration": 2, "velocity": 112}, {"time": 695, "pitch": 74, "duration": 2, "velocity": 104}, {"time": 704, "pitch": 74, "duration": 1, "velocity": 106}, {"time": 707, "pitch": 74, "duration": 3, "velocity": 115}, {"time": 713, "pitch": 72, "duration": 1, "velocity": 109}, {"time": 716, "pitch": 72, "duration": 7, "velocity": 112}, {"time": 725, "pitch": 71, "duration": 1, "velocity": 109}, {"time": 728, "pitch": 71, "duration": 7, "velocity": 109}, {"time": 737, "pitch": 69, "duration": 1, "velocity": 109}, {"time": 740, "pitch": 67, "duration": 5, "velocity": 112}, {"time": 749, "pitch": 64, "duration": 5, "velocity": 104}, {"time": 755, "pitch": 62, "duration": 5, "velocity": 106}, {"time": 761, "pitch": 71, "duration": 3, "velocity": 109}, {"time": 767, "pitch": 71, "duration": 3, "velocity": 115}, {"time": 776, "pitch": 71, "duration": 1, "velocity": 101}, {"time": 779, "pitch": 71, "duration": 2, "velocity": 112}, {"time": 782, "pitch": 69, "duration": 1, "velocity": 101}, {"time": 785, "pitch": 69, "duration": 2, "velocity": 106}, {"time": 791, "pitch": 69, "duration": 1, "velocity": 104}, {"time": 800, "pitch": 74, "duration": 1, "velocity": 109}, {"time": 803, "pitch": 74, "duration": 3, "velocity": 115}, {"time": 809, "pitch": 72, "duration": 1, "velocity": 106}, {"time": 812, "pitch": 72, "duration": 7, "velocity": 109}, {"time": 824, "pitch": 71, "duration": 1, "velocity": 109}, {"time": 827, "pitch": 71, "duration": 4, "velocity": 112}, {"time": 833, "pitch": 69, "duration": 3, "velocity": 112}, {"time": 839, "pitch": 67, "duration": 4, "velocity": 112}, {"time": 845, "pitch": 69, "duration": 5, "velocity": 112}, {"time": 857, "pitch": 71, "duration": 4, "velocity": 115}, {"time": 863, "pitch": 71, "duration": 6, "velocity": 112}, {"time": 872, "pitch": 71, "duration": 1, "velocity": 112}, {"time": 875, "pitch": 71, "duration": 4, "velocity": 115}, {"time": 881, "pitch": 76, "duration": 3, "velocity": 109}, {"time": 887, "pitch": 78, "duration": 3, "velocity": 115}, {"time": 893, "pitch": 78, "duration": 5, "velocity": 112}, {"time": 899, "pitch": 74, "duration": 3, "velocity": 115}, {"time": 905, "pitch": 74, "duration": 4, "velocity": 112}, {"time": 911, "pitch": 78, "duration": 4, "velocity": 120}, {"time": 920, "pitch": 79, "duration": 12, "velocity": 115}, {"time": 935, "pitch": 79, "duration": 4, "velocity": 118}, {"time": 941, "pitch": 79, "duration": 3, "velocity": 109}, {"time": 947, "pitch": 74, "duration": 4, "velocity": 115}, {"time": 953, "pitch": 74, "duration": 4, "velocity": 106}, {"time": 959, "pitch": 74, "duration": 4, "velocity": 109}, {"time": 965, "pitch": 74, "duration": 3, "velocity": 109}, {"time": 968, "pitch": 74, "duration": 9, "velocity": 115}, {"time": 977, "pitch": 71, "duration": 3, "velocity": 106}, {"time": 983, "pitch": 67, "duration": 3, "velocity": 115}, {"time": 989, "pitch": 74, "duration": 22, "velocity": 109}, {"time": 1025, "pitch": 74, "duration": 3, "velocity": 112}, {"time": 1031, "pitch": 74, "duration": 2, "velocity": 115}, {"time": 1037, "pitch": 67, "duration": 3, "velocity": 112}, {"time": 1043, "pitch": 76, "duration": 7, "velocity": 112}, {"time": 1052, "pitch": 76, "duration": 1, "velocity": 112}, {"time": 1055, "pitch": 74, "duration": 3, "velocity": 115}, {"time": 1061, "pitch": 71, "duration": 4, "velocity": 109}, {"time": 1067, "pitch": 69, "duration": 4, "velocity": 112}, {"time": 1076, "pitch": 69, "duration": 1, "velocity": 112}, {"time": 1079, "pitch": 71, "duration": 4, "velocity": 115}, {"time": 1085, "pitch": 72, "duration": 3, "velocity": 112}, {"time": 1091, "pitch": 74, "duration": 6, "velocity": 118}, {"time": 1097, "pitch": 74, "duration": 1, "velocity": 112}, {"time": 1100, "pitch": 71, "duration": 6, "velocity": 118}, {"time": 1109, "pitch": 69, "duration": 4, "velocity": 112}, {"time": 1115, "pitch": 68, "duration": 6, "velocity": 120}, {"time": 1124, "pitch": 68, "duration": 1, "velocity": 117}, {"time": 1127, "pitch": 69, "duration": 3, "velocity": 112}, {"time": 1133, "pitch": 71, "duration": 4, "velocity": 112}, {"time": 1139, "pitch": 72, "duration": 6, "velocity": 112}, {"time": 1145, "pitch": 71, "duration": 2, "velocity": 109}, {"time": 1151, "pitch": 67, "duration": 3, "velocity": 112}, {"time": 1157, "pitch": 64, "duration": 1, "velocity": 101}, {"time": 1160, "pitch": 67, "duration": 8, "velocity": 112}, {"time": 1184, "pitch": 71, "duration": 1, "velocity": 112}, {"time": 1187, "pitch": 72, "duration": 4, "velocity": 115}, {"time": 1193, "pitch": 71, "duration": 1, "velocity": 112}, {"time": 1196, "pitch": 67, "duration": 7, "velocity": 115}, {"time": 1205, "pitch": 76, "duration": 4, "velocity": 115}, {"time": 1211, "pitch": 74, "duration": 4, "velocity": 115}, {"time": 1217, "pitch": 74, "duration": 3, "velocity": 112}, {"time": 1223, "pitch": 74, "duration": 2, "velocity": 115}, {"time": 1229, "pitch": 67, "duration": 3, "velocity": 112}, {"time": 1235, "pitch": 76, "duration": 7, "velocity": 112}, {"time": 1244, "pitch": 76, "duration": 1, "velocity": 112}, {"time": 1247, "pitch": 74, "duration": 3, "velocity": 115}, {"time": 1253, "pitch": 71, "duration": 4, "velocity": 109}, {"time": 1259, "pitch": 69, "duration": 4, "velocity": 112}, {"time": 1268, "pitch": 69, "duration": 1, "velocity": 112}, {"time": 1271, "pitch": 71, "duration": 4, "velocity": 115}, {"time": 1277, "pitch": 72, "duration": 3, "velocity": 112}, {"time": 1283, "pitch": 74, "duration": 6, "velocity": 118}, {"time": 1289, "pitch": 74, "duration": 1, "velocity": 112}, {"time": 1292, "pitch": 74, "duration": 6, "velocity": 118}, {"time": 1301, "pitch": 78, "duration": 4, "velocity": 112}, {"time": 1307, "pitch": 76, "duration": 6, "velocity": 120}, {"time": 1318, "pitch": 76, "duration": 3, "velocity": 109}, {"time": 1323, "pitch": 74, "duration": 2, "velocity": 109}, {"time": 1326, "pitch": 71, "duration": 3, "velocity": 112}, {"time": 1330, "pitch": 72, "duration": 9, "velocity": 115}, {"time": 1342, "pitch": 72, "duration": 3, "velocity": 115}, {"time": 1347, "pitch": 71, "duration": 2, "velocity": 112}, {"time": 1350, "pitch": 71, "duration": 3, "velocity": 109}, {"time": 1354, "pitch": 67, "duration": 6, "velocity": 112}, {"time": 1361, "pitch": 62, "duration": 4, "velocity": 115}, {"time": 1367, "pitch": 69, "duration": 12, "velocity": 112}, {"time": 1379, "pitch": 71, "duration": 30, "velocity": 109}, {"time": 1414, "pitch": 76, "duration": 3, "velocity": 109}, {"time": 1419, "pitch": 74, "duration": 2, "velocity": 112}, {"time": 1423, "pitch": 71, "duration": 2, "velocity": 109}, {"time": 1426, "pitch": 72, "duration": 10, "velocity": 109}, {"time": 1438, "pitch": 72, "duration": 3, "velocity": 112}, {"time": 1443, "pitch": 71, "duration": 2, "velocity": 115}, {"time": 1447, "pitch": 69, "duration": 2, "velocity": 106}, {"time": 1451, "pitch": 67, "duration": 5, "velocity": 112}, {"time": 1457, "pitch": 62, "duration": 1, "velocity": 115}, {"time": 1460, "pitch": 62, "duration": 2, "velocity": 112}, {"time": 1463, "pitch": 69, "duration": 10, "velocity": 118}, {"time": 1475, "pitch": 67, "duration": 46, "velocity": 115}, {"time": 1673, "pitch": 71, "duration": 2, "velocity": 101}, {"time": 1679, "pitch": 71, "duration": 3, "velocity": 115}, {"time": 1688, "pitch": 62, "duration": 1, "velocity": 115}, {"time": 1691, "pitch": 71, "duration": 1, "velocity": 115}, {"time": 1694, "pitch": 69, "duration": 1, "velocity": 106}, {"time": 1697, "pitch": 69, "duration": 2, "velocity": 112}, {"time": 1703, "pitch": 74, "duration": 2, "velocity": 104}, {"time": 1712, "pitch": 74, "duration": 1, "velocity": 106}, {"time": 1715, "pitch": 74, "duration": 3, "velocity": 115}, {"time": 1721, "pitch": 72, "duration": 1, "velocity": 109}, {"time": 1724, "pitch": 72, "duration": 7, "velocity": 112}, {"time": 1733, "pitch": 71, "duration": 1, "velocity": 109}, {"time": 1736, "pitch": 71, "duration": 7, "velocity": 109}, {"time": 1745, "pitch": 69, "duration": 1, "velocity": 109}, {"time": 1748, "pitch": 67, "duration": 5, "velocity": 112}, {"time": 1757, "pitch": 64, "duration": 5, "velocity": 104}, {"time": 1763, "pitch": 62, "duration": 5, "velocity": 106}, {"time": 1769, "pitch": 71, "duration": 3, "velocity": 109}, {"time": 1775, "pitch": 71, "duration": 3, "velocity": 115}, {"time": 1784, "pitch": 71, "duration": 1, "velocity": 101}, {"time": 1787, "pitch": 71, "duration": 2, "velocity": 112}, {"time": 1790, "pitch": 69, "duration": 1, "velocity": 101}, {"time": 1793, "pitch": 69, "duration": 2, "velocity": 106}, {"time": 1799, "pitch": 69, "duration": 1, "velocity": 104}, {"time": 1808, "pitch": 74, "duration": 1, "velocity": 109}, {"time": 1811, "pitch": 74, "duration": 3, "velocity": 115}, {"time": 1817, "pitch": 72, "duration": 1, "velocity": 106}, {"time": 1820, "pitch": 72, "duration": 7, "velocity": 109}, {"time": 1832, "pitch": 71, "duration": 1, "velocity": 109}, {"time": 1835, "pitch": 71, "duration": 4, "velocity": 112}, {"time": 1841, "pitch": 69, "duration": 3, "velocity": 112}, {"time": 1847, "pitch": 67, "duration": 4, "velocity": 112}, {"time": 1853, "pitch": 69, "duration": 5, "velocity": 112}, {"time": 1865, "pitch": 71, "duration": 4, "velocity": 115}, {"time": 1871, "pitch": 71, "duration": 6, "velocity": 112}, {"time": 1880, "pitch": 71, "duration": 1, "velocity": 112}, {"time": 1883, "pitch": 71, "duration": 4, "velocity": 115}, {"time": 1889, "pitch": 76, "duration": 3, "velocity": 109}, {"time": 1895, "pitch": 78, "duration": 3, "velocity": 115}, {"time": 1901, "pitch": 78, "duration": 5, "velocity": 112}, {"time": 1907, "pitch": 74, "duration": 3, "velocity": 115}, {"time": 1913, "pitch": 74, "duration": 4, "velocity": 112}, {"time": 1919, "pitch": 78, "duration": 4, "velocity": 120}, {"time": 1928, "pitch": 79, "duration": 12, "velocity": 115}, {"time": 1943, "pitch": 79, "duration": 4, "velocity": 118}, {"time": 1949, "pitch": 79, "duration": 3, "velocity": 109}, {"time": 1955, "pitch": 74, "duration": 4, "velocity": 115}, {"time": 1961, "pitch": 74, "duration": 4, "velocity": 106}, {"time": 1967, "pitch": 74, "duration": 4, "velocity": 109}, {"time": 1973, "pitch": 74, "duration": 3, "velocity": 109}, {"time": 1976, "pitch": 74, "duration": 9, "velocity": 115}, {"time": 1985, "pitch": 71, "duration": 3, "velocity": 106}, {"time": 1991, "pitch": 67, "duration": 3, "velocity": 115}, {"time": 1997, "pitch": 74, "duration": 22, "velocity": 109}, {"time": 2033, "pitch": 74, "duration": 3, "velocity": 112}, {"time": 2039, "pitch": 74, "duration": 2, "velocity": 115}, {"time": 2045, "pitch": 67, "duration": 3, "velocity": 112}, {"time": 2051, "pitch": 76, "duration": 7, "velocity": 112}, {"time": 2060, "pitch": 76, "duration": 1, "velocity": 112}, {"time": 2063, "pitch": 74, "duration": 3, "velocity": 115}, {"time": 2069, "pitch": 71, "duration": 4, "velocity": 109}, {"time": 2075, "pitch": 69, "duration": 4, "velocity": 112}, {"time": 2084, "pitch": 69, "duration": 1, "velocity": 112}, {"time": 2087, "pitch": 71, "duration": 4, "velocity": 115}, {"time": 2093, "pitch": 72, "duration": 3, "velocity": 112}, {"time": 2099, "pitch": 74, "duration": 6, "velocity": 118}, {"time": 2105, "pitch": 74, "duration": 1, "velocity": 112}, {"time": 2108, "pitch": 71, "duration": 6, "velocity": 118}, {"time": 2117, "pitch": 69, "duration": 4, "velocity": 112}, {"time": 2123, "pitch": 68, "duration": 6, "velocity": 120}, {"time": 2132, "pitch": 68, "duration": 1, "velocity": 117}, {"time": 2135, "pitch": 69, "duration": 3, "velocity": 112}, {"time": 2141, "pitch": 71, "duration": 4, "velocity": 112}, {"time": 2147, "pitch": 72, "duration": 6, "velocity": 112}, {"time": 2153, "pitch": 71, "duration": 2, "velocity": 109}, {"time": 2159, "pitch": 67, "duration": 3, "velocity": 112}, {"time": 2165, "pitch": 64, "duration": 1, "velocity": 101}, {"time": 2168, "pitch": 67, "duration": 8, "velocity": 112}, {"time": 2192, "pitch": 71, "duration": 1, "velocity": 112}, {"time": 2195, "pitch": 72, "duration": 4, "velocity": 115}, {"time": 2201, "pitch": 71, "duration": 1, "velocity": 112}, {"time": 2204, "pitch": 67, "duration": 7, "velocity": 115}, {"time": 2213, "pitch": 76, "duration": 4, "velocity": 115}, {"time": 2219, "pitch": 74, "duration": 4, "velocity": 115}, {"time": 2225, "pitch": 74, "duration": 3, "velocity": 112}, {"time": 2231, "pitch": 74, "duration": 2, "velocity": 115}, {"time": 2237, "pitch": 67, "duration": 3, "velocity": 112}, {"time": 2243, "pitch": 76, "duration": 7, "velocity": 112}, {"time": 2252, "pitch": 76, "duration": 1, "velocity": 112}, {"time": 2255, "pitch": 74, "duration": 3, "velocity": 115}, {"time": 2261, "pitch": 71, "duration": 4, "velocity": 109}, {"time": 2267, "pitch": 69, "duration": 4, "velocity": 112}, {"time": 2276, "pitch": 69, "duration": 1, "velocity": 112}, {"time": 2279, "pitch": 71, "duration": 4, "velocity": 115}, {"time": 2285, "pitch": 72, "duration": 3, "velocity": 112}, {"time": 2291, "pitch": 74, "duration": 6, "velocity": 118}, {"time": 2297, "pitch": 74, "duration": 1, "velocity": 112}, {"time": 2300, "pitch": 74, "duration": 6, "velocity": 118}, {"time": 2309, "pitch": 78, "duration": 4, "velocity": 112}, {"time": 2315, "pitch": 76, "duration": 6, "velocity": 120}, {"time": 2326, "pitch": 76, "duration": 3, "velocity": 109}, {"time": 2331, "pitch": 74, "duration": 2, "velocity": 109}, {"time": 2334, "pitch": 71, "duration": 3, "velocity": 112}, {"time": 2338, "pitch": 72, "duration": 9, "velocity": 115}, {"time": 2350, "pitch": 72, "duration": 3, "velocity": 115}, {"time": 2355, "pitch": 71, "duration": 2, "velocity": 112}, {"time": 2358, "pitch": 71, "duration": 3, "velocity": 109}, {"time": 2362, "pitch": 67, "duration": 6, "velocity": 112}, {"time": 2369, "pitch": 62, "duration": 4, "velocity": 115}, {"time": 2375, "pitch": 69, "duration": 12, "velocity": 112}, {"time": 2387, "pitch": 71, "duration": 30, "velocity": 109}, {"time": 2422, "pitch": 76, "duration": 3, "velocity": 109}, {"time": 2427, "pitch": 74, "duration": 2, "velocity": 112}, {"time": 2431, "pitch": 71, "duration": 2, "velocity": 109}, {"time": 2434, "pitch": 72, "duration": 10, "velocity": 109}, {"time": 2446, "pitch": 72, "duration": 3, "velocity": 112}, {"time": 2451, "pitch": 71, "duration": 2, "velocity": 115}, {"time": 2455, "pitch": 69, "duration": 2, "velocity": 106}, {"time": 2459, "pitch": 67, "duration": 5, "velocity": 112}, {"time": 2465, "pitch": 62, "duration": 1, "velocity": 115}, {"time": 2468, "pitch": 62, "duration": 2, "velocity": 112}, {"time": 2471, "pitch": 69, "duration": 10, "velocity": 118}, {"time": 2483, "pitch": 67, "duration": 46, "velocity": 115}, {"time": 2909, "pitch": 76, "duration": 3, "velocity": 112}, {"time": 2915, "pitch": 76, "duration": 2, "velocity": 115}, {"time": 2921, "pitch": 69, "duration": 3, "velocity": 112}, {"time": 2927, "pitch": 78, "duration": 7, "velocity": 112}, {"time": 2936, "pitch": 78, "duration": 1, "velocity": 112}, {"time": 2939, "pitch": 76, "duration": 3, "velocity": 115}, {"time": 2945, "pitch": 73, "duration": 4, "velocity": 109}, {"time": 2951, "pitch": 71, "duration": 4, "velocity": 112}, {"time": 2960, "pitch": 71, "duration": 1, "velocity": 112}, {"time": 2963, "pitch": 73, "duration": 4, "velocity": 115}, {"time": 2969, "pitch": 74, "duration": 3, "velocity": 112}, {"time": 2975, "pitch": 76, "duration": 6, "velocity": 118}, {"time": 2981, "pitch": 76, "duration": 1, "velocity": 112}, {"time": 2984, "pitch": 73, "duration": 6, "velocity": 118}, {"time": 2993, "pitch": 71, "duration": 4, "velocity": 112}, {"time": 2999, "pitch": 70, "duration": 6, "velocity": 120}, {"time": 3008, "pitch": 70, "duration": 1, "velocity": 117}, {"time": 3011, "pitch": 71, "duration": 3, "velocity": 112}, {"time": 3017, "pitch": 73, "duration": 4, "velocity": 112}, {"time": 3023, "pitch": 74, "duration": 6, "velocity": 112}, {"time": 3029, "pitch": 73, "duration": 2, "velocity": 109}, {"time": 3035, "pitch": 69, "duration": 3, "velocity": 112}, {"time": 3041, "pitch": 66, "duration": 1, "velocity": 101}, {"time": 3044, "pitch": 69, "duration": 8, "velocity": 112}, {"time": 3068, "pitch": 73, "duration": 1, "velocity": 112}, {"time": 3071, "pitch": 74, "duration": 4, "velocity": 115}, {"time": 3077, "pitch": 73, "duration": 1, "velocity": 112}, {"time": 3080, "pitch": 69, "duration": 7, "velocity": 115}, {"time": 3089, "pitch": 78, "duration": 4, "velocity": 115}, {"time": 3095, "pitch": 76, "duration": 4, "velocity": 115}, {"time": 3101, "pitch": 76, "duration": 3, "velocity": 112}, {"time": 3107, "pitch": 76, "duration": 2, "velocity": 115}, {"time": 3113, "pitch": 69, "duration": 3, "velocity": 112}, {"time": 3119, "pitch": 78, "duration": 7, "velocity": 112}, {"time": 3128, "pitch": 78, "duration": 1, "velocity": 112}, {"time": 3131, "pitch": 76, "duration": 3, "velocity": 115}, {"time": 3137, "pitch": 73, "duration": 4, "velocity": 109}, {"time": 3143, "pitch": 71, "duration": 4, "velocity": 112}, {"time": 3152, "pitch": 71, "duration": 1, "velocity": 112}, {"time": 3155, "pitch": 73, "duration": 4, "velocity": 115}, {"time": 3161, "pitch": 74, "duration": 3, "velocity": 112}, {"time": 3167, "pitch": 76, "duration": 6, "velocity": 118}, {"time": 3173, "pitch": 76, "duration": 1, "velocity": 112}, {"time": 3176, "pitch": 76, "duration": 6, "velocity": 118}, {"time": 3185, "pitch": 80, "duration": 4, "velocity": 112}, {"time": 3191, "pitch": 78, "duration": 6, "velocity": 120}, {"time": 3202, "pitch": 78, "duration": 3, "velocity": 109}, {"time": 3207, "pitch": 76, "duration": 2, "velocity": 109}, {"time": 3210, "pitch": 73, "duration": 3, "velocity": 112}, {"time": 3214, "pitch": 74, "duration": 9, "velocity": 115}, {"time": 3226, "pitch": 74, "duration": 3, "velocity": 115}, {"time": 3231, "pitch": 73, "duration": 2, "velocity": 112}, {"time": 3234, "pitch": 73, "duration": 3, "velocity": 109}, {"time": 3238, "pitch": 69, "duration": 6, "velocity": 112}, {"time": 3245, "pitch": 64, "duration": 4, "velocity": 115}, {"time": 3251, "pitch": 71, "duration": 12, "velocity": 112}, {"time": 3263, "pitch": 73, "duration": 30, "velocity": 109}, {"time": 3298, "pitch": 78, "duration": 3, "velocity": 109}, {"time": 3303, "pitch": 76, "duration": 2, "velocity": 112}, {"time": 3307, "pitch": 73, "duration": 2, "velocity": 109}, {"time": 3310, "pitch": 74, "duration": 10, "velocity": 109}, {"time": 3322, "pitch": 74, "duration": 3, "velocity": 112}, {"time": 3327, "pitch": 73, "duration": 2, "velocity": 115}, {"time": 3331, "pitch": 71, "duration": 2, "velocity": 106}, {"time": 3335, "pitch": 69, "duration": 5, "velocity": 112}, {"time": 3341, "pitch": 64, "duration": 1, "velocity": 115}, {"time": 3344, "pitch": 64, "duration": 2, "velocity": 112}, {"time": 3347, "pitch": 71, "duration": 10, "velocity": 118}, {"time": 3359, "pitch": 69, "duration": 6, "velocity": 115}, {"time": 3365, "pitch": 76, "duration": 3, "velocity": 109}, {"time": 3371, "pitch": 76, "duration": 4, "velocity": 109}, {"time": 3377, "pitch": 76, "duration": 1, "velocity": 106}, {"time": 3380, "pitch": 76, "duration": 6, "velocity": 112}, {"time": 3389, "pitch": 74, "duration": 4, "velocity": 115}, {"time": 3395, "pitch": 73, "duration": 4, "velocity": 112}, {"time": 3400, "pitch": 74, "duration": 4, "velocity": 109}, {"time": 3407, "pitch": 74, "duration": 4, "velocity": 112}, {"time": 3413, "pitch": 73, "duration": 4, "velocity": 120}, {"time": 3419, "pitch": 73, "duration": 3, "velocity": 112}, {"time": 3425, "pitch": 73, "duration": 3, "velocity": 109}, {"time": 3431, "pitch": 73, "duration": 6, "velocity": 112}, {"time": 3437, "pitch": 71, "duration": 4, "velocity": 106}, {"time": 3443, "pitch": 69, "duration": 1, "velocity": 109}, {"time": 3446, "pitch": 71, "duration": 1, "velocity": 112}, {"time": 3449, "pitch": 69, "duration": 9, "velocity": 115}, {"time": 3461, "pitch": 76, "duration": 3, "velocity": 109}, {"time": 3467, "pitch": 76, "duration": 4, "velocity": 109}, {"time": 3473, "pitch": 76, "duration": 1, "velocity": 106}, {"time": 3476, "pitch": 76, "duration": 6, "velocity": 112}, {"time": 3485, "pitch": 74, "duration": 4, "velocity": 115}, {"time": 3491, "pitch": 73, "duration": 4, "velocity": 112}, {"time": 3496, "pitch": 74, "duration": 4, "velocity": 109}, {"time": 3503, "pitch": 74, "duration": 4, "velocity": 112}, {"time": 3509, "pitch": 73, "duration": 4, "velocity": 120}, {"time": 3515, "pitch": 73, "duration": 3, "velocity": 112}, {"time": 3521, "pitch": 73, "duration": 3, "velocity": 109}, {"time": 3527, "pitch": 73, "duration": 6, "velocity": 112}, {"time": 3533, "pitch": 76, "duration": 4, "velocity": 106}, {"time": 3539, "pitch": 71, "duration": 1, "velocity": 109}, {"time": 3542, "pitch": 69, "duration": 1, "velocity": 112}, {"time": 3545, "pitch": 69, "duration": 9, "velocity": 115}, {"time": 3557, "pitch": 76, "duration": 3, "velocity": 109}, {"time": 3563, "pitch": 76, "duration": 4, "velocity": 109}, {"time": 3569, "pitch": 76, "duration": 1, "velocity": 106}, {"time": 3572, "pitch": 76, "duration": 6, "velocity": 112}, {"time": 3581, "pitch": 74, "duration": 4, "velocity": 115}, {"time": 3587, "pitch": 73, "duration": 4, "velocity": 112}, {"time": 3592, "pitch": 74, "duration": 4, "velocity": 109}, {"time": 3599, "pitch": 74, "duration": 4, "velocity": 112}, {"time": 3605, "pitch": 73, "duration": 4, "velocity": 120}, {"time": 3611, "pitch": 73, "duration": 3, "velocity": 112}, {"time": 3617, "pitch": 73, "duration": 3, "velocity": 109}, {"time": 3623, "pitch": 73, "duration": 6, "velocity": 112}, {"time": 3629, "pitch": 71, "duration": 4, "velocity": 106}, {"time": 3635, "pitch": 69, "duration": 1, "velocity": 109}, {"time": 3638, "pitch": 71, "duration": 1, "velocity": 112}, {"time": 3641, "pitch": 69, "duration": 9, "velocity": 115}, {"time": 3653, "pitch": 76, "duration": 3, "velocity": 109}, {"time": 3659, "pitch": 76, "duration": 4, "velocity": 109}, {"time": 3665, "pitch": 76, "duration": 1, "velocity": 106}, {"time": 3668, "pitch": 76, "duration": 6, "velocity": 112}, {"time": 3677, "pitch": 74, "duration": 4, "velocity": 115}, {"time": 3683, "pitch": 73, "duration": 4, "velocity": 112}, {"time": 3688, "pitch": 74, "duration": 4, "velocity": 109}, {"time": 3695, "pitch": 74, "duration": 4, "velocity": 112}, {"time": 3701, "pitch": 73, "duration": 4, "velocity": 120}, {"time": 3707, "pitch": 73, "duration": 3, "velocity": 112}, {"time": 3713, "pitch": 73, "duration": 3, "velocity": 109}, {"time": 3719, "pitch": 73, "duration": 6, "velocity": 112}, {"time": 3725, "pitch": 76, "duration": 4, "velocity": 106}, {"time": 3731, "pitch": 71, "duration": 1, "velocity": 109}, {"time": 3734, "pitch": 69, "duration": 1, "velocity": 112}, {"time": 3737, "pitch": 69, "duration": 9, "velocity": 115}]}, {"program": 0, "is_drum": false, "name": "BRIDGE", "notes": [{"time": 10, "pitch": 67, "duration": 9, "velocity": 115}, {"time": 23, "pitch": 67, "duration": 12, "velocity": 109}, {"time": 37, "pitch": 74, "duration": 10, "velocity": 82}, {"time": 49, "pitch": 74, "duration": 10, "velocity": 106}, {"time": 63, "pitch": 76, "duration": 11, "velocity": 101}, {"time": 78, "pitch": 76, "duration": 11, "velocity": 106}, {"time": 92, "pitch": 74, "duration": 20, "velocity": 104}, {"time": 117, "pitch": 72, "duration": 10, "velocity": 106}, {"time": 129, "pitch": 72, "duration": 10, "velocity": 106}, {"time": 142, "pitch": 71, "duration": 10, "velocity": 112}, {"time": 156, "pitch": 71, "duration": 21, "velocity": 106}, {"time": 181, "pitch": 69, "duration": 12, "velocity": 106}, {"time": 197, "pitch": 69, "duration": 14, "velocity": 104}, {"time": 217, "pitch": 67, "duration": 49, "velocity": 104}, {"time": 275, "pitch": 71, "duration": 6, "velocity": 104}, {"time": 281, "pitch": 67, "duration": 6, "velocity": 99}, {"time": 287, "pitch": 71, "duration": 6, "velocity": 99}, {"time": 293, "pitch": 67, "duration": 6, "velocity": 101}, {"time": 299, "pitch": 71, "duration": 6, "velocity": 109}, {"time": 305, "pitch": 67, "duration": 6, "velocity": 101}, {"time": 311, "pitch": 71, "duration": 6, "velocity": 106}, {"time": 317, "pitch": 67, "duration": 7, "velocity": 104}, {"time": 323, "pitch": 72, "duration": 6, "velocity": 94}, {"time": 329, "pitch": 67, "duration": 6, "velocity": 101}, {"time": 335, "pitch": 72, "duration": 5, "velocity": 106}, {"time": 341, "pitch": 67, "duration": 6, "velocity": 99}, {"time": 347, "pitch": 72, "duration": 6, "velocity": 91}, {"time": 353, "pitch": 67, "duration": 6, "velocity": 91}, {"time": 359, "pitch": 72, "duration": 6, "velocity": 94}, {"time": 365, "pitch": 67, "duration": 5, "velocity": 101}, {"time": 371, "pitch": 69, "duration": 6, "velocity": 106}, {"time": 377, "pitch": 66, "duration": 6, "velocity": 107}, {"time": 383, "pitch": 69, "duration": 7, "velocity": 106}, {"time": 389, "pitch": 66, "duration": 6, "velocity": 99}, {"time": 395, "pitch": 74, "duration": 6, "velocity": 104}, {"time": 401, "pitch": 66, "duration": 6, "velocity": 101}, {"time": 407, "pitch": 74, "duration": 7, "velocity": 101}, {"time": 413, "pitch": 66, "duration": 5, "velocity": 110}, {"time": 419, "pitch": 72, "duration": 6, "velocity": 101}, {"time": 425, "pitch": 67, "duration": 7, "velocity": 96}, {"time": 431, "pitch": 72, "duration": 7, "velocity": 96}, {"time": 437, "pitch": 67, "duration": 7, "velocity": 91}, {"time": 443, "pitch": 72, "duration": 6, "velocity": 94}, {"time": 449, "pitch": 67, "duration": 7, "velocity": 85}, {"time": 455, "pitch": 72, "duration": 6, "velocity": 85}, {"time": 461, "pitch": 62, "duration": 7, "velocity": 91}, {"time": 467, "pitch": 67, "duration": 9, "velocity": 115}, {"time": 479, "pitch": 67, "duration": 9, "velocity": 118}, {"time": 491, "pitch": 74, "duration": 9, "velocity": 112}, {"time": 503, "pitch": 74, "duration": 9, "velocity": 115}, {"time": 515, "pitch": 72, "duration": 9, "velocity": 112}, {"time": 527, "pitch": 72, "duration": 9, "velocity": 112}, {"time": 539, "pitch": 76, "duration": 10, "velocity": 106}, {"time": 551, "pitch": 76, "duration": 9, "velocity": 109}, {"time": 563, "pitch": 74, "duration": 12, "velocity": 115}, {"time": 575, "pitch": 74, "duration": 9, "velocity": 115}, {"time": 587, "pitch": 78, "duration": 9, "velocity": 123}, {"time": 599, "pitch": 78, "duration": 8, "velocity": 123}, {"time": 611, "pitch": 79, "duration": 44, "velocity": 115}, {"time": 1043, "pitch": 76, "duration": 9, "velocity": 91}, {"time": 1049, "pitch": 67, "duration": 6, "velocity": 85}, {"time": 1055, "pitch": 72, "duration": 7, "velocity": 96}, {"time": 1061, "pitch": 67, "duration": 1, "velocity": 47}, {"time": 1067, "pitch": 78, "duration": 6, "velocity": 101}, {"time": 1073, "pitch": 69, "duration": 4, "velocity": 67}, {"time": 1079, "pitch": 74, "duration": 6, "velocity": 101}, {"time": 1091, "pitch": 74, "duration": 6, "velocity": 96}, {"time": 1097, "pitch": 69, "duration": 4, "velocity": 74}, {"time": 1103, "pitch": 74, "duration": 6, "velocity": 96}, {"time": 1115, "pitch": 74, "duration": 5, "velocity": 96}, {"time": 1121, "pitch": 71, "duration": 6, "velocity": 66}, {"time": 1127, "pitch": 78, "duration": 6, "velocity": 99}, {"time": 1133, "pitch": 71, "duration": 1, "velocity": 32}, {"time": 1139, "pitch": 76, "duration": 7, "velocity": 91}, {"time": 1151, "pitch": 76, "duration": 5, "velocity": 80}, {"time": 1157, "pitch": 69, "duration": 2, "velocity": 58}, {"time": 1163, "pitch": 74, "duration": 6, "velocity": 94}, {"time": 1169, "pitch": 69, "duration": 4, "velocity": 91}, {"time": 1175, "pitch": 74, "duration": 4, "velocity": 106}, {"time": 1181, "pitch": 72, "duration": 1, "velocity": 91}, {"time": 1184, "pitch": 71, "duration": 2, "velocity": 99}, {"time": 1187, "pitch": 69, "duration": 10, "velocity": 109}, {"time": 1199, "pitch": 72, "duration": 5, "velocity": 96}, {"time": 1205, "pitch": 69, "duration": 4, "velocity": 85}, {"time": 1211, "pitch": 74, "duration": 5, "velocity": 101}, {"time": 1217, "pitch": 69, "duration": 5, "velocity": 99}, {"time": 1223, "pitch": 74, "duration": 2, "velocity": 109}, {"time": 1226, "pitch": 72, "duration": 3, "velocity": 91}, {"time": 1229, "pitch": 71, "duration": 2, "velocity": 99}, {"time": 1232, "pitch": 69, "duration": 2, "velocity": 101}, {"time": 1235, "pitch": 76, "duration": 9, "velocity": 91}, {"time": 1241, "pitch": 67, "duration": 6, "velocity": 85}, {"time": 1247, "pitch": 72, "duration": 7, "velocity": 96}, {"time": 1253, "pitch": 67, "duration": 1, "velocity": 47}, {"time": 1259, "pitch": 78, "duration": 6, "velocity": 101}, {"time": 1265, "pitch": 69, "duration": 4, "velocity": 67}, {"time": 1271, "pitch": 74, "duration": 6, "velocity": 101}, {"time": 1283, "pitch": 74, "duration": 6, "velocity": 96}, {"time": 1289, "pitch": 69, "duration": 4, "velocity": 74}, {"time": 1295, "pitch": 74, "duration": 6, "velocity": 96}, {"time": 1307, "pitch": 74, "duration": 5, "velocity": 96}, {"time": 1313, "pitch": 71, "duration": 6, "velocity": 66}, {"time": 1319, "pitch": 78, "duration": 6, "velocity": 99}, {"time": 1325, "pitch": 71, "duration": 1, "velocity": 32}, {"time": 1331, "pitch": 76, "duration": 7, "velocity": 91}, {"time": 1343, "pitch": 76, "duration": 5, "velocity": 80}, {"time": 1349, "pitch": 69, "duration": 2, "velocity": 58}, {"time": 1355, "pitch": 74, "duration": 6, "velocity": 94}, {"time": 1361, "pitch": 69, "duration": 4, "velocity": 91}, {"time": 1379, "pitch": 71, "duration": 4, "velocity": 104}, {"time": 1379, "pitch": 76, "duration": 4, "velocity": 106}, {"time": 1388, "pitch": 64, "duration": 1, "velocity": 85}, {"time": 1388, "pitch": 71, "duration": 1, "velocity": 99}, {"time": 1391, "pitch": 64, "duration": 2, "velocity": 112}, {"time": 1391, "pitch": 71, "duration": 2, "velocity": 112}, {"time": 1397, "pitch": 64, "duration": 1, "velocity": 87}, {"time": 1397, "pitch": 68, "duration": 1, "velocity": 107}, {"time": 1400, "pitch": 64, "duration": 2, "velocity": 112}, {"time": 1400, "pitch": 68, "duration": 2, "velocity": 120}, {"time": 1412, "pitch": 76, "duration": 1, "velocity": 91}, {"time": 1412, "pitch": 80, "duration": 1, "velocity": 99}, {"time": 1415, "pitch": 76, "duration": 9, "velocity": 109}, {"time": 1415, "pitch": 80, "duration": 9, "velocity": 117}, {"time": 1475, "pitch": 67, "duration": 9, "velocity": 115}, {"time": 1475, "pitch": 79, "duration": 9, "velocity": 115}, {"time": 1487, "pitch": 67, "duration": 9, "velocity": 118}, {"time": 1487, "pitch": 79, "duration": 9, "velocity": 118}, {"time": 1499, "pitch": 74, "duration": 9, "velocity": 112}, {"time": 1499, "pitch": 86, "duration": 9, "velocity": 112}, {"time": 1511, "pitch": 74, "duration": 9, "velocity": 115}, {"time": 1511, "pitch": 86, "duration": 9, "velocity": 115}, {"time": 1523, "pitch": 72, "duration": 9, "velocity": 112}, {"time": 1523, "pitch": 84, "duration": 9, "velocity": 112}, {"time": 1535, "pitch": 72, "duration": 9, "velocity": 112}, {"time": 1535, "pitch": 84, "duration": 9, "velocity": 112}, {"time": 1547, "pitch": 76, "duration": 10, "velocity": 106}, {"time": 1547, "pitch": 88, "duration": 10, "velocity": 106}, {"time": 1559, "pitch": 76, "duration": 9, "velocity": 109}, {"time": 1559, "pitch": 88, "duration": 9, "velocity": 109}, {"time": 1571, "pitch": 74, "duration": 12, "velocity": 115}, {"time": 1571, "pitch": 86, "duration": 12, "velocity": 115}, {"time": 1583, "pitch": 74, "duration": 9, "velocity": 115}, {"time": 1583, "pitch": 86, "duration": 9, "velocity": 115}, {"time": 1595, "pitch": 78, "duration": 9, "velocity": 123}, {"time": 1595, "pitch": 90, "duration": 9, "velocity": 123}, {"time": 1607, "pitch": 78, "duration": 8, "velocity": 123}, {"time": 1607, "pitch": 90, "duration": 8, "velocity": 123}, {"time": 1619, "pitch": 79, "duration": 44, "velocity": 115}, {"time": 1619, "pitch": 91, "duration": 44, "velocity": 115}, {"time": 2050, "pitch": 76, "duration": 9, "velocity": 91}, {"time": 2056, "pitch": 67, "duration": 7, "velocity": 85}, {"time": 2062, "pitch": 72, "duration": 8, "velocity": 96}, {"time": 2068, "pitch": 67, "duration": 2, "velocity": 47}, {"time": 2074, "pitch": 78, "duration": 7, "velocity": 101}, {"time": 2080, "pitch": 69, "duration": 5, "velocity": 67}, {"time": 2086, "pitch": 74, "duration": 7, "velocity": 101}, {"time": 2098, "pitch": 74, "duration": 7, "velocity": 96}, {"time": 2104, "pitch": 69, "duration": 5, "velocity": 74}, {"time": 2110, "pitch": 74, "duration": 7, "velocity": 96}, {"time": 2122, "pitch": 74, "duration": 6, "velocity": 96}, {"time": 2128, "pitch": 71, "duration": 7, "velocity": 66}, {"time": 2134, "pitch": 78, "duration": 7, "velocity": 99}, {"time": 2140, "pitch": 71, "duration": 2, "velocity": 32}, {"time": 2146, "pitch": 76, "duration": 8, "velocity": 91}, {"time": 2158, "pitch": 76, "duration": 6, "velocity": 80}, {"time": 2164, "pitch": 69, "duration": 3, "velocity": 58}, {"time": 2170, "pitch": 74, "duration": 7, "velocity": 94}, {"time": 2176, "pitch": 69, "duration": 5, "velocity": 91}, {"time": 2182, "pitch": 74, "duration": 5, "velocity": 106}, {"time": 2188, "pitch": 72, "duration": 2, "velocity": 91}, {"time": 2191, "pitch": 71, "duration": 3, "velocity": 99}, {"time": 2194, "pitch": 69, "duration": 11, "velocity": 109}, {"time": 2206, "pitch": 72, "duration": 6, "velocity": 96}, {"time": 2212, "pitch": 69, "duration": 5, "velocity": 85}, {"time": 2218, "pitch": 74, "duration": 6, "velocity": 101}, {"time": 2224, "pitch": 69, "duration": 5, "velocity": 99}, {"time": 2230, "pitch": 74, "duration": 3, "velocity": 109}, {"time": 2233, "pitch": 72, "duration": 4, "velocity": 91}, {"time": 2236, "pitch": 71, "duration": 3, "velocity": 99}, {"time": 2239, "pitch": 69, "duration": 2, "velocity": 101}, {"time": 2242, "pitch": 76, "duration": 9, "velocity": 91}, {"time": 2248, "pitch": 67, "duration": 7, "velocity": 85}, {"time": 2254, "pitch": 72, "duration": 8, "velocity": 96}, {"time": 2260, "pitch": 67, "duration": 2, "velocity": 47}, {"time": 2266, "pitch": 78, "duration": 7, "velocity": 101}, {"time": 2272, "pitch": 69, "duration": 5, "velocity": 67}, {"time": 2278, "pitch": 74, "duration": 7, "velocity": 101}, {"time": 2290, "pitch": 74, "duration": 7, "velocity": 96}, {"time": 2296, "pitch": 69, "duration": 5, "velocity": 74}, {"time": 2302, "pitch": 74, "duration": 7, "velocity": 96}, {"time": 2314, "pitch": 74, "duration": 6, "velocity": 96}, {"time": 2320, "pitch": 71, "duration": 7, "velocity": 66}, {"time": 2326, "pitch": 78, "duration": 7, "velocity": 99}, {"time": 2332, "pitch": 71, "duration": 2, "velocity": 32}, {"time": 2338, "pitch": 76, "duration": 8, "velocity": 91}, {"time": 2350, "pitch": 76, "duration": 6, "velocity": 80}, {"time": 2356, "pitch": 69, "duration": 3, "velocity": 58}, {"time": 2362, "pitch": 74, "duration": 7, "velocity": 94}, {"time": 2368, "pitch": 69, "duration": 5, "velocity": 91}, {"time": 2387, "pitch": 71, "duration": 4, "velocity": 104}, {"time": 2387, "pitch": 76, "duration": 4, "velocity": 106}, {"time": 2396, "pitch": 64, "duration": 1, "velocity": 85}, {"time": 2396, "pitch": 71, "duration": 1, "velocity": 99}, {"time": 2399, "pitch": 64, "duration": 2, "velocity": 112}, {"time": 2399, "pitch": 71, "duration": 2, "velocity": 112}, {"time": 2405, "pitch": 64, "duration": 1, "velocity": 87}, {"time": 2405, "pitch": 68, "duration": 1, "velocity": 107}, {"time": 2408, "pitch": 64, "duration": 2, "velocity": 112}, {"time": 2408, "pitch": 68, "duration": 2, "velocity": 120}, {"time": 2420, "pitch": 76, "duration": 1, "velocity": 91}, {"time": 2420, "pitch": 80, "duration": 1, "velocity": 99}, {"time": 2423, "pitch": 76, "duration": 9, "velocity": 109}, {"time": 2423, "pitch": 80, "duration": 9, "velocity": 117}, {"time": 2483, "pitch": 79, "duration": 9, "velocity": 115}, {"time": 2495, "pitch": 79, "duration": 9, "velocity": 115}, {"time": 2507, "pitch": 86, "duration": 10, "velocity": 115}, {"time": 2519, "pitch": 86, "duration": 9, "velocity": 109}, {"time": 2531, "pitch": 88, "duration": 8, "velocity": 115}, {"time": 2543, "pitch": 88, "duration": 9, "velocity": 115}, {"time": 2555, "pitch": 86, "duration": 20, "velocity": 115}, {"time": 2579, "pitch": 84, "duration": 9, "velocity": 109}, {"time": 2591, "pitch": 84, "duration": 9, "velocity": 109}, {"time": 2603, "pitch": 83, "duration": 9, "velocity": 118}, {"time": 2615, "pitch": 83, "duration": 9, "velocity": 115}, {"time": 2627, "pitch": 81, "duration": 9, "velocity": 115}, {"time": 2639, "pitch": 81, "duration": 9, "velocity": 112}, {"time": 2651, "pitch": 79, "duration": 18, "velocity": 115}, {"time": 2669, "pitch": 76, "duration": 1, "velocity": 109}, {"time": 2672, "pitch": 78, "duration": 1, "velocity": 120}, {"time": 2675, "pitch": 79, "duration": 5, "velocity": 112}, {"time": 2681, "pitch": 78, "duration": 1, "velocity": 120}, {"time": 2684, "pitch": 79, "duration": 1, "velocity": 109}, {"time": 2687, "pitch": 81, "duration": 4, "velocity": 115}, {"time": 2693, "pitch": 79, "duration": 1, "velocity": 112}, {"time": 2696, "pitch": 81, "duration": 1, "velocity": 112}, {"time": 2699, "pitch": 83, "duration": 6, "velocity": 115}, {"time": 2705, "pitch": 81, "duration": 1, "velocity": 112}, {"time": 2708, "pitch": 83, "duration": 1, "velocity": 112}, {"time": 2711, "pitch": 84, "duration": 4, "velocity": 112}, {"time": 2717, "pitch": 83, "duration": 1, "velocity": 112}, {"time": 2720, "pitch": 84, "duration": 1, "velocity": 109}, {"time": 2723, "pitch": 86, "duration": 3, "velocity": 115}, {"time": 2729, "pitch": 84, "duration": 2, "velocity": 104}, {"time": 2732, "pitch": 86, "duration": 1, "velocity": 106}, {"time": 2735, "pitch": 88, "duration": 1, "velocity": 109}, {"time": 2738, "pitch": 86, "duration": 1, "velocity": 115}, {"time": 2741, "pitch": 84, "duration": 1, "velocity": 112}, {"time": 2744, "pitch": 86, "duration": 1, "velocity": 112}, {"time": 2747, "pitch": 88, "duration": 2, "velocity": 112}, {"time": 2750, "pitch": 86, "duration": 3, "velocity": 114}, {"time": 2753, "pitch": 84, "duration": 3, "velocity": 114}, {"time": 2756, "pitch": 88, "duration": 3, "velocity": 114}, {"time": 2759, "pitch": 90, "duration": 3, "velocity": 114}, {"time": 2762, "pitch": 88, "duration": 3, "velocity": 114}, {"time": 2765, "pitch": 86, "duration": 3, "velocity": 114}, {"time": 2768, "pitch": 88, "duration": 3, "velocity": 114}, {"time": 2771, "pitch": 90, "duration": 3, "velocity": 114}, {"time": 2774, "pitch": 88, "duration": 3, "velocity": 114}, {"time": 2777, "pitch": 86, "duration": 3, "velocity": 114}, {"time": 2780, "pitch": 90, "duration": 3, "velocity": 114}, {"time": 2783, "pitch": 79, "duration": 3, "velocity": 114}, {"time": 2783, "pitch": 91, "duration": 3, "velocity": 114}, {"time": 2789, "pitch": 74, "duration": 3, "velocity": 114}, {"time": 2789, "pitch": 86, "duration": 3, "velocity": 114}, {"time": 2795, "pitch": 72, "duration": 3, "velocity": 114}, {"time": 2795, "pitch": 84, "duration": 3, "velocity": 114}, {"time": 2801, "pitch": 71, "duration": 3, "velocity": 114}, {"time": 2801, "pitch": 83, "duration": 3, "velocity": 114}, {"time": 2807, "pitch": 79, "duration": 3, "velocity": 114}, {"time": 2807, "pitch": 91, "duration": 3, "velocity": 114}, {"time": 2813, "pitch": 74, "duration": 3, "velocity": 114}, {"time": 2813, "pitch": 86, "duration": 3, "velocity": 114}, {"time": 2819, "pitch": 72, "duration": 3, "velocity": 114}, {"time": 2819, "pitch": 84, "duration": 3, "velocity": 114}, {"time": 2825, "pitch": 71, "duration": 3, "velocity": 114}, {"time": 2825, "pitch": 83, "duration": 3, "velocity": 114}, {"time": 2831, "pitch": 74, "duration": 3, "velocity": 114}, {"time": 2831, "pitch": 86, "duration": 3, "velocity": 114}, {"time": 2837, "pitch": 72, "duration": 3, "velocity": 114}, {"time": 2837, "pitch": 84, "duration": 3, "velocity": 114}, {"time": 2843, "pitch": 71, "duration": 3, "velocity": 114}, {"time": 2843, "pitch": 83, "duration": 3, "velocity": 114}, {"time": 2849, "pitch": 69, "duration": 3, "velocity": 114}, {"time": 2849, "pitch": 81, "duration": 3, "velocity": 114}, {"time": 2855, "pitch": 71, "duration": 3, "velocity": 114}, {"time": 2855, "pitch": 83, "duration": 3, "velocity": 114}, {"time": 2867, "pitch": 76, "duration": 3, "velocity": 114}, {"time": 2867, "pitch": 88, "duration": 3, "velocity": 114}, {"time": 2879, "pitch": 69, "duration": 3, "velocity": 114}, {"time": 2879, "pitch": 81, "duration": 3, "velocity": 114}, {"time": 2927, "pitch": 78, "duration": 9, "velocity": 91}, {"time": 2933, "pitch": 69, "duration": 6, "velocity": 85}, {"time": 2939, "pitch": 74, "duration": 7, "velocity": 96}, {"time": 2945, "pitch": 69, "duration": 1, "velocity": 47}, {"time": 2951, "pitch": 80, "duration": 6, "velocity": 101}, {"time": 2957, "pitch": 71, "duration": 4, "velocity": 67}, {"time": 2963, "pitch": 76, "duration": 6, "velocity": 101}, {"time": 2975, "pitch": 76, "duration": 6, "velocity": 96}, {"time": 2981, "pitch": 71, "duration": 4, "velocity": 74}, {"time": 2987, "pitch": 76, "duration": 7, "velocity": 96}, {"time": 2999, "pitch": 76, "duration": 5, "velocity": 96}, {"time": 3005, "pitch": 73, "duration": 6, "velocity": 66}, {"time": 3011, "pitch": 80, "duration": 6, "velocity": 99}, {"time": 3017, "pitch": 73, "duration": 1, "velocity": 32}, {"time": 3023, "pitch": 78, "duration": 7, "velocity": 91}, {"time": 3035, "pitch": 78, "duration": 5, "velocity": 80}, {"time": 3041, "pitch": 71, "duration": 2, "velocity": 58}, {"time": 3047, "pitch": 76, "duration": 6, "velocity": 94}, {"time": 3053, "pitch": 71, "duration": 4, "velocity": 91}, {"time": 3059, "pitch": 76, "duration": 4, "velocity": 106}, {"time": 3065, "pitch": 74, "duration": 1, "velocity": 91}, {"time": 3068, "pitch": 73, "duration": 2, "velocity": 99}, {"time": 3071, "pitch": 71, "duration": 10, "velocity": 109}, {"time": 3083, "pitch": 74, "duration": 5, "velocity": 96}, {"time": 3089, "pitch": 71, "duration": 4, "velocity": 85}, {"time": 3095, "pitch": 76, "duration": 6, "velocity": 101}, {"time": 3101, "pitch": 71, "duration": 5, "velocity": 99}, {"time": 3107, "pitch": 76, "duration": 2, "velocity": 109}, {"time": 3110, "pitch": 74, "duration": 3, "velocity": 91}, {"time": 3113, "pitch": 73, "duration": 2, "velocity": 99}, {"time": 3116, "pitch": 71, "duration": 2, "velocity": 101}, {"time": 3119, "pitch": 78, "duration": 9, "velocity": 91}, {"time": 3125, "pitch": 69, "duration": 6, "velocity": 85}, {"time": 3131, "pitch": 74, "duration": 7, "velocity": 96}, {"time": 3137, "pitch": 69, "duration": 1, "velocity": 47}, {"time": 3143, "pitch": 80, "duration": 6, "velocity": 101}, {"time": 3149, "pitch": 71, "duration": 4, "velocity": 67}, {"time": 3155, "pitch": 76, "duration": 6, "velocity": 101}, {"time": 3167, "pitch": 76, "duration": 6, "velocity": 96}, {"time": 3173, "pitch": 71, "duration": 4, "velocity": 74}, {"time": 3179, "pitch": 76, "duration": 7, "velocity": 96}, {"time": 3191, "pitch": 76, "duration": 5, "velocity": 96}, {"time": 3197, "pitch": 73, "duration": 6, "velocity": 66}, {"time": 3203, "pitch": 80, "duration": 6, "velocity": 99}, {"time": 3209, "pitch": 73, "duration": 1, "velocity": 32}, {"time": 3215, "pitch": 78, "duration": 7, "velocity": 91}, {"time": 3227, "pitch": 78, "duration": 5, "velocity": 80}, {"time": 3233, "pitch": 71, "duration": 2, "velocity": 58}, {"time": 3239, "pitch": 76, "duration": 6, "velocity": 94}, {"time": 3245, "pitch": 71, "duration": 4, "velocity": 91}, {"time": 3263, "pitch": 73, "duration": 4, "velocity": 104}, {"time": 3263, "pitch": 78, "duration": 4, "velocity": 106}, {"time": 3272, "pitch": 66, "duration": 1, "velocity": 85}, {"time": 3272, "pitch": 73, "duration": 1, "velocity": 99}, {"time": 3275, "pitch": 66, "duration": 2, "velocity": 112}, {"time": 3275, "pitch": 73, "duration": 2, "velocity": 112}, {"time": 3281, "pitch": 66, "duration": 1, "velocity": 87}, {"time": 3281, "pitch": 70, "duration": 1, "velocity": 107}, {"time": 3284, "pitch": 66, "duration": 2, "velocity": 112}, {"time": 3284, "pitch": 70, "duration": 2, "velocity": 120}, {"time": 3296, "pitch": 78, "duration": 1, "velocity": 91}, {"time": 3296, "pitch": 82, "duration": 1, "velocity": 99}, {"time": 3299, "pitch": 78, "duration": 9, "velocity": 109}, {"time": 3299, "pitch": 82, "duration": 9, "velocity": 117}, {"time": 3359, "pitch": 76, "duration": 5, "velocity": 104}, {"time": 3365, "pitch": 69, "duration": 5, "velocity": 104}, {"time": 3371, "pitch": 76, "duration": 5, "velocity": 109}, {"time": 3377, "pitch": 69, "duration": 6, "velocity": 101}, {"time": 3383, "pitch": 76, "duration": 6, "velocity": 109}, {"time": 3389, "pitch": 69, "duration": 6, "velocity": 96}, {"time": 3395, "pitch": 76, "duration": 5, "velocity": 109}, {"time": 3401, "pitch": 69, "duration": 5, "velocity": 96}, {"time": 3407, "pitch": 76, "duration": 5, "velocity": 82}, {"time": 3413, "pitch": 69, "duration": 5, "velocity": 96}, {"time": 3419, "pitch": 76, "duration": 7, "velocity": 109}, {"time": 3428, "pitch": 69, "duration": 6, "velocity": 51}, {"time": 3431, "pitch": 76, "duration": 5, "velocity": 89}, {"time": 3437, "pitch": 69, "duration": 5, "velocity": 101}, {"time": 3443, "pitch": 74, "duration": 6, "velocity": 106}, {"time": 3449, "pitch": 69, "duration": 4, "velocity": 82}, {"time": 3455, "pitch": 76, "duration": 5, "velocity": 99}, {"time": 3461, "pitch": 69, "duration": 6, "velocity": 91}, {"time": 3467, "pitch": 76, "duration": 6, "velocity": 85}, {"time": 3473, "pitch": 69, "duration": 6, "velocity": 94}, {"time": 3479, "pitch": 76, "duration": 6, "velocity": 85}, {"time": 3485, "pitch": 69, "duration": 6, "velocity": 96}, {"time": 3491, "pitch": 76, "duration": 6, "velocity": 89}, {"time": 3497, "pitch": 69, "duration": 6, "velocity": 96}, {"time": 3503, "pitch": 76, "duration": 6, "velocity": 96}, {"time": 3512, "pitch": 69, "duration": 6, "velocity": 94}, {"time": 3515, "pitch": 76, "duration": 6, "velocity": 104}, {"time": 3521, "pitch": 69, "duration": 6, "velocity": 89}, {"time": 3527, "pitch": 76, "duration": 5, "velocity": 91}, {"time": 3533, "pitch": 69, "duration": 6, "velocity": 101}, {"time": 3539, "pitch": 74, "duration": 5, "velocity": 109}, {"time": 3545, "pitch": 69, "duration": 4, "velocity": 104}, {"time": 3551, "pitch": 76, "duration": 5, "velocity": 104}, {"time": 3557, "pitch": 69, "duration": 5, "velocity": 104}, {"time": 3563, "pitch": 76, "duration": 5, "velocity": 109}, {"time": 3569, "pitch": 69, "duration": 6, "velocity": 101}, {"time": 3575, "pitch": 76, "duration": 6, "velocity": 109}, {"time": 3581, "pitch": 69, "duration": 6, "velocity": 96}, {"time": 3587, "pitch": 76, "duration": 5, "velocity": 109}, {"time": 3593, "pitch": 69, "duration": 5, "velocity": 96}, {"time": 3599, "pitch": 76, "duration": 5, "velocity": 82}, {"time": 3605, "pitch": 69, "duration": 5, "velocity": 96}, {"time": 3611, "pitch": 76, "duration": 7, "velocity": 109}, {"time": 3620, "pitch": 69, "duration": 6, "velocity": 51}, {"time": 3623, "pitch": 76, "duration": 5, "velocity": 89}, {"time": 3629, "pitch": 69, "duration": 5, "velocity": 101}, {"time": 3635, "pitch": 74, "duration": 6, "velocity": 106}, {"time": 3641, "pitch": 69, "duration": 4, "velocity": 82}, {"time": 3647, "pitch": 76, "duration": 5, "velocity": 99}, {"time": 3653, "pitch": 69, "duration": 6, "velocity": 91}, {"time": 3659, "pitch": 76, "duration": 6, "velocity": 85}, {"time": 3665, "pitch": 69, "duration": 6, "velocity": 94}, {"time": 3671, "pitch": 76, "duration": 6, "velocity": 85}, {"time": 3677, "pitch": 69, "duration": 6, "velocity": 96}, {"time": 3683, "pitch": 76, "duration": 6, "velocity": 89}, {"time": 3689, "pitch": 69, "duration": 6, "velocity": 96}, {"time": 3695, "pitch": 76, "duration": 6, "velocity": 96}, {"time": 3704, "pitch": 69, "duration": 6, "velocity": 94}, {"time": 3707, "pitch": 76, "duration": 6, "velocity": 104}, {"time": 3713, "pitch": 69, "duration": 6, "velocity": 89}, {"time": 3719, "pitch": 76, "duration": 5, "velocity": 91}, {"time": 3725, "pitch": 69, "duration": 6, "velocity": 101}, {"time": 3731, "pitch": 74, "duration": 5, "velocity": 109}, {"time": 3737, "pitch": 69, "duration": 4, "velocity": 104}, {"time": 3743, "pitch": 81, "duration": 9, "velocity": 115}, {"time": 3755, "pitch": 81, "duration": 9, "velocity": 115}, {"time": 3767, "pitch": 88, "duration": 10, "velocity": 115}, {"time": 3779, "pitch": 88, "duration": 9, "velocity": 109}, {"time": 3791, "pitch": 90, "duration": 8, "velocity": 115}, {"time": 3803, "pitch": 90, "duration": 9, "velocity": 115}, {"time": 3815, "pitch": 88, "duration": 20, "velocity": 115}, {"time": 3839, "pitch": 86, "duration": 9, "velocity": 109}, {"time": 3851, "pitch": 86, "duration": 9, "velocity": 109}, {"time": 3863, "pitch": 85, "duration": 9, "velocity": 118}, {"time": 3875, "pitch": 85, "duration": 9, "velocity": 115}, {"time": 3887, "pitch": 83, "duration": 9, "velocity": 115}, {"time": 3899, "pitch": 83, "duration": 9, "velocity": 112}, {"time": 3911, "pitch": 81, "duration": 18, "velocity": 115}, {"time": 3935, "pitch": 83, "duration": 8, "velocity": 112}, {"time": 3947, "pitch": 83, "duration": 8, "velocity": 112}, {"time": 3959, "pitch": 81, "duration": 22, "velocity": 112}, {"time": 3983, "pitch": 83, "duration": 9, "velocity": 106}, {"time": 3995, "pitch": 83, "duration": 8, "velocity": 104}, {"time": 4007, "pitch": 81, "duration": 29, "velocity": 91}], "annotations": [{"time": 274, "annotation": {"number": 64, "value": 127}, "group": "control_change"}, {"time": 1379, "annotation": {"number": 64, "value": 127}, "group": "control_change"}, {"time": 1425, "annotation": {"number": 64, "value": 0}, "group": "control_change"}, {"time": 2387, "annotation": {"number": 64, "value": 127}, "group": "control_change"}, {"time": 2433, "annotation": {"number": 64, "value": 0}, "group": "control_change"}, {"time": 3263, "annotation": {"number": 64, "value": 127}, "group": "control_change"}, {"time": 3309, "annotation": {"number": 64, "value": 0}, "group": "control_change"}]}, {"program": 0, "is_drum": false, "name": "PIANO", "notes": [{"time": 275, "pitch": 43, "duration": 44, "velocity": 101}, {"time": 275, "pitch": 55, "duration": 8, "velocity": 82}, {"time": 275, "pitch": 59, "duration": 9, "velocity": 96}, {"time": 281, "pitch": 50, "duration": 8, "velocity": 76}, {"time": 287, "pitch": 55, "duration": 8, "velocity": 99}, {"time": 287, "pitch": 59, "duration": 8, "velocity": 99}, {"time": 293, "pitch": 50, "duration": 5, "velocity": 27}, {"time": 299, "pitch": 55, "duration": 6, "velocity": 78}, {"time": 299, "pitch": 59, "duration": 7, "velocity": 87}, {"time": 305, "pitch": 50, "duration": 7, "velocity": 62}, {"time": 311, "pitch": 55, "duration": 6, "velocity": 104}, {"time": 311, "pitch": 59, "duration": 8, "velocity": 109}, {"time": 317, "pitch": 50, "duration": 4, "velocity": 74}, {"time": 323, "pitch": 43, "duration": 45, "velocity": 91}, {"time": 323, "pitch": 55, "duration": 7, "velocity": 91}, {"time": 323, "pitch": 60, "duration": 7, "velocity": 96}, {"time": 329, "pitch": 50, "duration": 8, "velocity": 56}, {"time": 335, "pitch": 55, "duration": 8, "velocity": 96}, {"time": 335, "pitch": 60, "duration": 8, "velocity": 96}, {"time": 347, "pitch": 55, "duration": 6, "velocity": 106}, {"time": 347, "pitch": 60, "duration": 6, "velocity": 104}, {"time": 353, "pitch": 50, "duration": 7, "velocity": 61}, {"time": 359, "pitch": 55, "duration": 7, "velocity": 99}, {"time": 359, "pitch": 60, "duration": 10, "velocity": 101}, {"time": 365, "pitch": 50, "duration": 4, "velocity": 73}, {"time": 371, "pitch": 38, "duration": 40, "velocity": 87}, {"time": 371, "pitch": 50, "duration": 8, "velocity": 71}, {"time": 371, "pitch": 54, "duration": 7, "velocity": 47}, {"time": 371, "pitch": 57, "duration": 7, "velocity": 89}, {"time": 377, "pitch": 45, "duration": 21, "velocity": 59}, {"time": 383, "pitch": 54, "duration": 6, "velocity": 99}, {"time": 383, "pitch": 57, "duration": 7, "velocity": 104}, {"time": 395, "pitch": 54, "duration": 4, "velocity": 59}, {"time": 395, "pitch": 57, "duration": 7, "velocity": 76}, {"time": 401, "pitch": 50, "duration": 1, "velocity": 37}, {"time": 407, "pitch": 54, "duration": 7, "velocity": 79}, {"time": 407, "pitch": 57, "duration": 9, "velocity": 96}, {"time": 407, "pitch": 62, "duration": 10, "velocity": 101}, {"time": 413, "pitch": 50, "duration": 2, "velocity": 91}, {"time": 419, "pitch": 43, "duration": 44, "velocity": 91}, {"time": 419, "pitch": 55, "duration": 7, "velocity": 94}, {"time": 419, "pitch": 60, "duration": 8, "velocity": 94}, {"time": 425, "pitch": 50, "duration": 10, "velocity": 74}, {"time": 431, "pitch": 55, "duration": 9, "velocity": 104}, {"time": 431, "pitch": 60, "duration": 9, "velocity": 104}, {"time": 443, "pitch": 55, "duration": 6, "velocity": 76}, {"time": 443, "pitch": 60, "duration": 6, "velocity": 87}, {"time": 449, "pitch": 50, "duration": 7, "velocity": 62}, {"time": 455, "pitch": 55, "duration": 5, "velocity": 104}, {"time": 455, "pitch": 60, "duration": 7, "velocity": 104}, {"time": 461, "pitch": 50, "duration": 4, "velocity": 85}, {"time": 467, "pitch": 43, "duration": 43, "velocity": 87}, {"time": 467, "pitch": 55, "duration": 8, "velocity": 91}, {"time": 467, "pitch": 59, "duration": 8, "velocity": 91}, {"time": 473, "pitch": 50, "duration": 7, "velocity": 54}, {"time": 479, "pitch": 55, "duration": 8, "velocity": 104}, {"time": 479, "pitch": 59, "duration": 8, "velocity": 106}, {"time": 485, "pitch": 50, "duration": 7, "velocity": 34}, {"time": 491, "pitch": 55, "duration": 8, "velocity": 69}, {"time": 491, "pitch": 59, "duration": 7, "velocity": 80}, {"time": 497, "pitch": 50, "duration": 6, "velocity": 31}, {"time": 503, "pitch": 55, "duration": 2, "velocity": 99}, {"time": 503, "pitch": 59, "duration": 18, "velocity": 104}, {"time": 503, "pitch": 62, "duration": 18, "velocity": 109}, {"time": 509, "pitch": 55, "duration": 11, "velocity": 73}, {"time": 515, "pitch": 43, "duration": 45, "velocity": 96}, {"time": 521, "pitch": 50, "duration": 7, "velocity": 55}, {"time": 527, "pitch": 55, "duration": 8, "velocity": 101}, {"time": 527, "pitch": 60, "duration": 8, "velocity": 99}, {"time": 533, "pitch": 50, "duration": 6, "velocity": 47}, {"time": 539, "pitch": 55, "duration": 6, "velocity": 69}, {"time": 539, "pitch": 60, "duration": 6, "velocity": 74}, {"time": 545, "pitch": 50, "duration": 6, "velocity": 43}, {"time": 551, "pitch": 55, "duration": 9, "velocity": 106}, {"time": 551, "pitch": 60, "duration": 11, "velocity": 106}, {"time": 557, "pitch": 50, "duration": 4, "velocity": 69}, {"time": 563, "pitch": 38, "duration": 1, "velocity": 94}, {"time": 563, "pitch": 57, "duration": 4, "velocity": 89}, {"time": 563, "pitch": 62, "duration": 5, "velocity": 99}, {"time": 569, "pitch": 50, "duration": 31, "velocity": 87}, {"time": 575, "pitch": 62, "duration": 6, "velocity": 101}, {"time": 575, "pitch": 66, "duration": 5, "velocity": 107}, {"time": 581, "pitch": 57, "duration": 7, "velocity": 64}, {"time": 587, "pitch": 62, "duration": 8, "velocity": 91}, {"time": 587, "pitch": 66, "duration": 8, "velocity": 91}, {"time": 587, "pitch": 69, "duration": 5, "velocity": 99}, {"time": 593, "pitch": 57, "duration": 5, "velocity": 67}, {"time": 599, "pitch": 62, "duration": 2, "velocity": 106}, {"time": 599, "pitch": 66, "duration": 2, "velocity": 117}, {"time": 599, "pitch": 69, "duration": 2, "velocity": 104}, {"time": 611, "pitch": 43, "duration": 49, "velocity": 99}, {"time": 611, "pitch": 55, "duration": 8, "velocity": 94}, {"time": 611, "pitch": 60, "duration": 8, "velocity": 96}, {"time": 617, "pitch": 50, "duration": 6, "velocity": 59}, {"time": 623, "pitch": 55, "duration": 6, "velocity": 106}, {"time": 623, "pitch": 60, "duration": 9, "velocity": 101}, {"time": 629, "pitch": 50, "duration": 7, "velocity": 55}, {"time": 635, "pitch": 55, "duration": 9, "velocity": 94}, {"time": 635, "pitch": 59, "duration": 9, "velocity": 99}, {"time": 641, "pitch": 50, "duration": 18, "velocity": 43}, {"time": 647, "pitch": 55, "duration": 12, "velocity": 80}, {"time": 647, "pitch": 59, "duration": 12, "velocity": 87}, {"time": 659, "pitch": 43, "duration": 1, "velocity": 101}, {"time": 659, "pitch": 55, "duration": 1, "velocity": 91}, {"time": 659, "pitch": 59, "duration": 1, "velocity": 96}, {"time": 659, "pitch": 62, "duration": 6, "velocity": 101}, {"time": 671, "pitch": 55, "duration": 2, "velocity": 94}, {"time": 671, "pitch": 59, "duration": 3, "velocity": 106}, {"time": 671, "pitch": 62, "duration": 3, "velocity": 104}, {"time": 683, "pitch": 50, "duration": 14, "velocity": 99}, {"time": 683, "pitch": 57, "duration": 9, "velocity": 91}, {"time": 683, "pitch": 62, "duration": 8, "velocity": 104}, {"time": 683, "pitch": 66, "duration": 9, "velocity": 96}, {"time": 695, "pitch": 57, "duration": 2, "velocity": 106}, {"time": 695, "pitch": 62, "duration": 2, "velocity": 109}, {"time": 695, "pitch": 66, "duration": 2, "velocity": 113}, {"time": 707, "pitch": 48, "duration": 14, "velocity": 87}, {"time": 707, "pitch": 55, "duration": 9, "velocity": 94}, {"time": 707, "pitch": 60, "duration": 9, "velocity": 96}, {"time": 719, "pitch": 55, "duration": 2, "velocity": 104}, {"time": 719, "pitch": 60, "duration": 3, "velocity": 99}, {"time": 719, "pitch": 64, "duration": 2, "velocity": 101}, {"time": 731, "pitch": 50, "duration": 14, "velocity": 96}, {"time": 731, "pitch": 57, "duration": 10, "velocity": 99}, {"time": 731, "pitch": 62, "duration": 10, "velocity": 101}, {"time": 731, "pitch": 66, "duration": 10, "velocity": 99}, {"time": 743, "pitch": 57, "duration": 3, "velocity": 99}, {"time": 743, "pitch": 62, "duration": 2, "velocity": 104}, {"time": 743, "pitch": 66, "duration": 2, "velocity": 110}, {"time": 755, "pitch": 43, "duration": 15, "velocity": 99}, {"time": 755, "pitch": 55, "duration": 6, "velocity": 85}, {"time": 755, "pitch": 59, "duration": 6, "velocity": 87}, {"time": 755, "pitch": 62, "duration": 6, "velocity": 101}, {"time": 761, "pitch": 50, "duration": 7, "velocity": 58}, {"time": 767, "pitch": 55, "duration": 2, "velocity": 101}, {"time": 767, "pitch": 59, "duration": 3, "velocity": 106}, {"time": 767, "pitch": 62, "duration": 4, "velocity": 106}, {"time": 779, "pitch": 50, "duration": 17, "velocity": 101}, {"time": 779, "pitch": 57, "duration": 4, "velocity": 94}, {"time": 779, "pitch": 62, "duration": 8, "velocity": 101}, {"time": 785, "pitch": 57, "duration": 12, "velocity": 106}, {"time": 791, "pitch": 62, "duration": 4, "velocity": 106}, {"time": 791, "pitch": 66, "duration": 4, "velocity": 101}, {"time": 803, "pitch": 48, "duration": 17, "velocity": 99}, {"time": 803, "pitch": 55, "duration": 2, "velocity": 94}, {"time": 803, "pitch": 60, "duration": 8, "velocity": 89}, {"time": 803, "pitch": 64, "duration": 7, "velocity": 96}, {"time": 809, "pitch": 55, "duration": 5, "velocity": 82}, {"time": 815, "pitch": 60, "duration": 6, "velocity": 106}, {"time": 815, "pitch": 64, "duration": 3, "velocity": 109}, {"time": 821, "pitch": 55, "duration": 1, "velocity": 87}, {"time": 827, "pitch": 50, "duration": 12, "velocity": 101}, {"time": 827, "pitch": 57, "duration": 9, "velocity": 101}, {"time": 827, "pitch": 62, "duration": 9, "velocity": 106}, {"time": 827, "pitch": 66, "duration": 9, "velocity": 99}, {"time": 839, "pitch": 57, "duration": 1, "velocity": 106}, {"time": 839, "pitch": 62, "duration": 1, "velocity": 112}, {"time": 839, "pitch": 66, "duration": 2, "velocity": 113}, {"time": 851, "pitch": 47, "duration": 14, "velocity": 101}, {"time": 851, "pitch": 59, "duration": 9, "velocity": 106}, {"time": 851, "pitch": 64, "duration": 9, "velocity": 112}, {"time": 857, "pitch": 54, "duration": 8, "velocity": 63}, {"time": 863, "pitch": 59, "duration": 3, "velocity": 109}, {"time": 863, "pitch": 64, "duration": 6, "velocity": 115}, {"time": 869, "pitch": 59, "duration": 3, "velocity": 89}, {"time": 875, "pitch": 47, "duration": 16, "velocity": 89}, {"time": 875, "pitch": 59, "duration": 8, "velocity": 101}, {"time": 875, "pitch": 63, "duration": 8, "velocity": 101}, {"time": 881, "pitch": 54, "duration": 6, "velocity": 68}, {"time": 887, "pitch": 59, "duration": 3, "velocity": 101}, {"time": 887, "pitch": 63, "duration": 6, "velocity": 113}, {"time": 887, "pitch": 66, "duration": 5, "velocity": 107}, {"time": 893, "pitch": 59, "duration": 3, "velocity": 99}, {"time": 899, "pitch": 43, "duration": 17, "velocity": 94}, {"time": 899, "pitch": 59, "duration": 3, "velocity": 99}, {"time": 899, "pitch": 62, "duration": 7, "velocity": 106}, {"time": 899, "pitch": 67, "duration": 8, "velocity": 99}, {"time": 905, "pitch": 59, "duration": 3, "velocity": 78}, {"time": 911, "pitch": 59, "duration": 2, "velocity": 104}, {"time": 911, "pitch": 62, "duration": 5, "velocity": 109}, {"time": 911, "pitch": 67, "duration": 7, "velocity": 104}, {"time": 917, "pitch": 59, "duration": 2, "velocity": 85}, {"time": 923, "pitch": 45, "duration": 17, "velocity": 106}, {"time": 923, "pitch": 57, "duration": 4, "velocity": 104}, {"time": 923, "pitch": 61, "duration": 8, "velocity": 104}, {"time": 929, "pitch": 52, "duration": 7, "velocity": 78}, {"time": 935, "pitch": 57, "duration": 2, "velocity": 104}, {"time": 935, "pitch": 61, "duration": 7, "velocity": 113}, {"time": 935, "pitch": 64, "duration": 8, "velocity": 104}, {"time": 941, "pitch": 57, "duration": 2, "velocity": 91}, {"time": 947, "pitch": 45, "duration": 16, "velocity": 104}, {"time": 947, "pitch": 57, "duration": 7, "velocity": 106}, {"time": 947, "pitch": 60, "duration": 7, "velocity": 96}, {"time": 953, "pitch": 52, "duration": 7, "velocity": 47}, {"time": 959, "pitch": 57, "duration": 2, "velocity": 106}, {"time": 959, "pitch": 60, "duration": 7, "velocity": 106}, {"time": 959, "pitch": 64, "duration": 7, "velocity": 101}, {"time": 965, "pitch": 57, "duration": 3, "velocity": 106}, {"time": 971, "pitch": 48, "duration": 14, "velocity": 96}, {"time": 971, "pitch": 55, "duration": 3, "velocity": 96}, {"time": 971, "pitch": 60, "duration": 8, "velocity": 91}, {"time": 971, "pitch": 64, "duration": 8, "velocity": 99}, {"time": 977, "pitch": 55, "duration": 3, "velocity": 85}, {"time": 983, "pitch": 55, "duration": 2, "velocity": 104}, {"time": 983, "pitch": 60, "duration": 7, "velocity": 109}, {"time": 983, "pitch": 64, "duration": 8, "velocity": 101}, {"time": 989, "pitch": 55, "duration": 1, "velocity": 82}, {"time": 995, "pitch": 50, "duration": 20, "velocity": 96}, {"time": 995, "pitch": 57, "duration": 3, "velocity": 94}, {"time": 995, "pitch": 62, "duration": 8, "velocity": 101}, {"time": 1001, "pitch": 57, "duration": 3, "velocity": 87}, {"time": 1007, "pitch": 57, "duration": 1, "velocity": 99}, {"time": 1007, "pitch": 62, "duration": 8, "velocity": 115}, {"time": 1007, "pitch": 66, "duration": 8, "velocity": 117}, {"time": 1013, "pitch": 57, "duration": 3, "velocity": 80}, {"time": 1019, "pitch": 50, "duration": 14, "velocity": 106}, {"time": 1019, "pitch": 57, "duration": 13, "velocity": 106}, {"time": 1019, "pitch": 62, "duration": 13, "velocity": 109}, {"time": 1019, "pitch": 66, "duration": 13, "velocity": 110}, {"time": 1043, "pitch": 48, "duration": 19, "velocity": 99}, {"time": 1043, "pitch": 67, "duration": 7, "velocity": 109}, {"time": 1049, "pitch": 55, "duration": 15, "velocity": 80}, {"time": 1049, "pitch": 60, "duration": 3, "velocity": 96}, {"time": 1055, "pitch": 60, "duration": 2, "velocity": 109}, {"time": 1055, "pitch": 67, "duration": 9, "velocity": 109}, {"time": 1061, "pitch": 60, "duration": 4, "velocity": 106}, {"time": 1067, "pitch": 50, "duration": 18, "velocity": 109}, {"time": 1067, "pitch": 62, "duration": 3, "velocity": 106}, {"time": 1067, "pitch": 66, "duration": 5, "velocity": 117}, {"time": 1073, "pitch": 62, "duration": 4, "velocity": 112}, {"time": 1079, "pitch": 57, "duration": 7, "velocity": 96}, {"time": 1079, "pitch": 66, "duration": 5, "velocity": 120}, {"time": 1085, "pitch": 62, "duration": 6, "velocity": 115}, {"time": 1091, "pitch": 47, "duration": 18, "velocity": 96}, {"time": 1091, "pitch": 66, "duration": 6, "velocity": 120}, {"time": 1097, "pitch": 59, "duration": 4, "velocity": 101}, {"time": 1103, "pitch": 54, "duration": 5, "velocity": 53}, {"time": 1103, "pitch": 59, "duration": 2, "velocity": 115}, {"time": 1103, "pitch": 62, "duration": 6, "velocity": 112}, {"time": 1109, "pitch": 59, "duration": 2, "velocity": 115}, {"time": 1115, "pitch": 52, "duration": 16, "velocity": 109}, {"time": 1115, "pitch": 64, "duration": 6, "velocity": 101}, {"time": 1115, "pitch": 68, "duration": 6, "velocity": 101}, {"time": 1121, "pitch": 59, "duration": 7, "velocity": 82}, {"time": 1127, "pitch": 64, "duration": 3, "velocity": 118}, {"time": 1127, "pitch": 69, "duration": 6, "velocity": 120}, {"time": 1133, "pitch": 64, "duration": 5, "velocity": 115}, {"time": 1139, "pitch": 57, "duration": 9, "velocity": 106}, {"time": 1139, "pitch": 72, "duration": 6, "velocity": 104}, {"time": 1145, "pitch": 64, "duration": 6, "velocity": 115}, {"time": 1151, "pitch": 57, "duration": 2, "velocity": 112}, {"time": 1151, "pitch": 69, "duration": 6, "velocity": 115}, {"time": 1151, "pitch": 72, "duration": 7, "velocity": 106}, {"time": 1157, "pitch": 64, "duration": 4, "velocity": 112}, {"time": 1163, "pitch": 50, "duration": 8, "velocity": 109}, {"time": 1163, "pitch": 66, "duration": 6, "velocity": 113}, {"time": 1163, "pitch": 69, "duration": 6, "velocity": 106}, {"time": 1169, "pitch": 62, "duration": 3, "velocity": 112}, {"time": 1175, "pitch": 50, "duration": 6, "velocity": 101}, {"time": 1175, "pitch": 57, "duration": 7, "velocity": 96}, {"time": 1175, "pitch": 62, "duration": 2, "velocity": 109}, {"time": 1175, "pitch": 66, "duration": 5, "velocity": 123}, {"time": 1175, "pitch": 69, "duration": 5, "velocity": 109}, {"time": 1181, "pitch": 62, "duration": 4, "velocity": 115}, {"time": 1187, "pitch": 45, "duration": 16, "velocity": 106}, {"time": 1187, "pitch": 64, "duration": 3, "velocity": 94}, {"time": 1187, "pitch": 69, "duration": 6, "velocity": 106}, {"time": 1193, "pitch": 64, "duration": 7, "velocity": 109}, {"time": 1199, "pitch": 69, "duration": 5, "velocity": 115}, {"time": 1199, "pitch": 72, "duration": 9, "velocity": 115}, {"time": 1205, "pitch": 64, "duration": 6, "velocity": 115}, {"time": 1211, "pitch": 50, "duration": 22, "velocity": 112}, {"time": 1211, "pitch": 66, "duration": 5, "velocity": 107}, {"time": 1211, "pitch": 69, "duration": 5, "velocity": 106}, {"time": 1217, "pitch": 62, "duration": 7, "velocity": 118}, {"time": 1223, "pitch": 57, "duration": 10, "velocity": 89}, {"time": 1223, "pitch": 66, "duration": 3, "velocity": 123}, {"time": 1226, "pitch": 67, "duration": 2, "velocity": 109}, {"time": 1229, "pitch": 69, "duration": 3, "velocity": 112}, {"time": 1232, "pitch": 62, "duration": 2, "velocity": 115}, {"time": 1235, "pitch": 48, "duration": 19, "velocity": 99}, {"time": 1235, "pitch": 67, "duration": 7, "velocity": 109}, {"time": 1241, "pitch": 55, "duration": 15, "velocity": 80}, {"time": 1241, "pitch": 60, "duration": 3, "velocity": 96}, {"time": 1247, "pitch": 60, "duration": 2, "velocity": 109}, {"time": 1247, "pitch": 67, "duration": 9, "velocity": 109}, {"time": 1253, "pitch": 60, "duration": 4, "velocity": 106}, {"time": 1259, "pitch": 50, "duration": 18, "velocity": 109}, {"time": 1259, "pitch": 62, "duration": 3, "velocity": 106}, {"time": 1259, "pitch": 66, "duration": 5, "velocity": 117}, {"time": 1265, "pitch": 62, "duration": 4, "velocity": 112}, {"time": 1271, "pitch": 57, "duration": 7, "velocity": 96}, {"time": 1271, "pitch": 66, "duration": 5, "velocity": 120}, {"time": 1277, "pitch": 62, "duration": 6, "velocity": 115}, {"time": 1283, "pitch": 47, "duration": 18, "velocity": 96}, {"time": 1283, "pitch": 66, "duration": 6, "velocity": 120}, {"time": 1289, "pitch": 59, "duration": 4, "velocity": 101}, {"time": 1295, "pitch": 54, "duration": 5, "velocity": 53}, {"time": 1295, "pitch": 59, "duration": 2, "velocity": 115}, {"time": 1295, "pitch": 62, "duration": 6, "velocity": 112}, {"time": 1301, "pitch": 59, "duration": 2, "velocity": 115}, {"time": 1307, "pitch": 52, "duration": 16, "velocity": 109}, {"time": 1307, "pitch": 64, "duration": 6, "velocity": 101}, {"time": 1307, "pitch": 67, "duration": 6, "velocity": 101}, {"time": 1313, "pitch": 59, "duration": 7, "velocity": 82}, {"time": 1319, "pitch": 64, "duration": 3, "velocity": 118}, {"time": 1319, "pitch": 68, "duration": 6, "velocity": 120}, {"time": 1325, "pitch": 64, "duration": 5, "velocity": 115}, {"time": 1331, "pitch": 57, "duration": 9, "velocity": 106}, {"time": 1331, "pitch": 72, "duration": 6, "velocity": 104}, {"time": 1337, "pitch": 64, "duration": 6, "velocity": 115}, {"time": 1343, "pitch": 57, "duration": 2, "velocity": 112}, {"time": 1343, "pitch": 69, "duration": 6, "velocity": 115}, {"time": 1343, "pitch": 72, "duration": 7, "velocity": 106}, {"time": 1349, "pitch": 64, "duration": 4, "velocity": 112}, {"time": 1355, "pitch": 50, "duration": 8, "velocity": 109}, {"time": 1355, "pitch": 66, "duration": 6, "velocity": 113}, {"time": 1355, "pitch": 69, "duration": 6, "velocity": 106}, {"time": 1361, "pitch": 62, "duration": 3, "velocity": 112}, {"time": 1367, "pitch": 50, "duration": 6, "velocity": 101}, {"time": 1367, "pitch": 57, "duration": 7, "velocity": 96}, {"time": 1367, "pitch": 62, "duration": 2, "velocity": 109}, {"time": 1367, "pitch": 66, "duration": 5, "velocity": 123}, {"time": 1367, "pitch": 69, "duration": 5, "velocity": 109}, {"time": 1373, "pitch": 62, "duration": 4, "velocity": 115}, {"time": 1379, "pitch": 52, "duration": 23, "velocity": 112}, {"time": 1379, "pitch": 59, "duration": 3, "velocity": 106}, {"time": 1379, "pitch": 64, "duration": 8, "velocity": 106}, {"time": 1385, "pitch": 59, "duration": 3, "velocity": 96}, {"time": 1391, "pitch": 59, "duration": 4, "velocity": 115}, {"time": 1391, "pitch": 64, "duration": 6, "velocity": 112}, {"time": 1391, "pitch": 68, "duration": 6, "velocity": 120}, {"time": 1400, "pitch": 59, "duration": 1, "velocity": 85}, {"time": 1400, "pitch": 64, "duration": 1, "velocity": 89}, {"time": 1403, "pitch": 52, "duration": 15, "velocity": 112}, {"time": 1403, "pitch": 59, "duration": 4, "velocity": 106}, {"time": 1403, "pitch": 64, "duration": 10, "velocity": 112}, {"time": 1409, "pitch": 59, "duration": 3, "velocity": 104}, {"time": 1415, "pitch": 59, "duration": 7, "velocity": 115}, {"time": 1415, "pitch": 64, "duration": 6, "velocity": 112}, {"time": 1427, "pitch": 45, "duration": 17, "velocity": 106}, {"time": 1427, "pitch": 57, "duration": 9, "velocity": 106}, {"time": 1427, "pitch": 60, "duration": 8, "velocity": 94}, {"time": 1433, "pitch": 52, "duration": 9, "velocity": 73}, {"time": 1439, "pitch": 57, "duration": 2, "velocity": 112}, {"time": 1439, "pitch": 60, "duration": 6, "velocity": 109}, {"time": 1439, "pitch": 64, "duration": 6, "velocity": 109}, {"time": 1445, "pitch": 57, "duration": 4, "velocity": 96}, {"time": 1451, "pitch": 50, "duration": 23, "velocity": 101}, {"time": 1451, "pitch": 57, "duration": 3, "velocity": 109}, {"time": 1451, "pitch": 62, "duration": 8, "velocity": 106}, {"time": 1457, "pitch": 57, "duration": 2, "velocity": 87}, {"time": 1463, "pitch": 57, "duration": 11, "velocity": 112}, {"time": 1463, "pitch": 62, "duration": 11, "velocity": 112}, {"time": 1463, "pitch": 66, "duration": 11, "velocity": 107}, {"time": 1475, "pitch": 43, "duration": 43, "velocity": 87}, {"time": 1475, "pitch": 55, "duration": 8, "velocity": 91}, {"time": 1475, "pitch": 59, "duration": 8, "velocity": 91}, {"time": 1481, "pitch": 50, "duration": 7, "velocity": 54}, {"time": 1487, "pitch": 55, "duration": 8, "velocity": 104}, {"time": 1487, "pitch": 59, "duration": 8, "velocity": 106}, {"time": 1493, "pitch": 50, "duration": 7, "velocity": 34}, {"time": 1499, "pitch": 55, "duration": 8, "velocity": 69}, {"time": 1499, "pitch": 59, "duration": 7, "velocity": 80}, {"time": 1505, "pitch": 50, "duration": 6, "velocity": 31}, {"time": 1511, "pitch": 55, "duration": 2, "velocity": 99}, {"time": 1511, "pitch": 59, "duration": 18, "velocity": 104}, {"time": 1511, "pitch": 62, "duration": 18, "velocity": 109}, {"time": 1517, "pitch": 55, "duration": 11, "velocity": 73}, {"time": 1523, "pitch": 43, "duration": 45, "velocity": 96}, {"time": 1529, "pitch": 50, "duration": 7, "velocity": 55}, {"time": 1535, "pitch": 55, "duration": 8, "velocity": 101}, {"time": 1535, "pitch": 60, "duration": 8, "velocity": 99}, {"time": 1541, "pitch": 50, "duration": 6, "velocity": 47}, {"time": 1547, "pitch": 55, "duration": 6, "velocity": 69}, {"time": 1547, "pitch": 60, "duration": 6, "velocity": 74}, {"time": 1553, "pitch": 50, "duration": 6, "velocity": 43}, {"time": 1559, "pitch": 55, "duration": 9, "velocity": 106}, {"time": 1559, "pitch": 60, "duration": 11, "velocity": 106}, {"time": 1565, "pitch": 50, "duration": 4, "velocity": 69}, {"time": 1571, "pitch": 38, "duration": 1, "velocity": 94}, {"time": 1571, "pitch": 57, "duration": 4, "velocity": 89}, {"time": 1571, "pitch": 62, "duration": 5, "velocity": 99}, {"time": 1577, "pitch": 50, "duration": 31, "velocity": 87}, {"time": 1583, "pitch": 62, "duration": 6, "velocity": 101}, {"time": 1583, "pitch": 66, "duration": 5, "velocity": 107}, {"time": 1589, "pitch": 57, "duration": 7, "velocity": 64}, {"time": 1595, "pitch": 62, "duration": 8, "velocity": 91}, {"time": 1595, "pitch": 66, "duration": 8, "velocity": 91}, {"time": 1595, "pitch": 69, "duration": 5, "velocity": 99}, {"time": 1601, "pitch": 57, "duration": 5, "velocity": 67}, {"time": 1607, "pitch": 62, "duration": 2, "velocity": 106}, {"time": 1607, "pitch": 66, "duration": 2, "velocity": 117}, {"time": 1607, "pitch": 69, "duration": 2, "velocity": 104}, {"time": 1619, "pitch": 43, "duration": 49, "velocity": 99}, {"time": 1619, "pitch": 55, "duration": 8, "velocity": 94}, {"time": 1619, "pitch": 60, "duration": 8, "velocity": 96}, {"time": 1625, "pitch": 50, "duration": 6, "velocity": 59}, {"time": 1631, "pitch": 55, "duration": 6, "velocity": 106}, {"time": 1631, "pitch": 60, "duration": 9, "velocity": 101}, {"time": 1637, "pitch": 50, "duration": 7, "velocity": 55}, {"time": 1643, "pitch": 55, "duration": 9, "velocity": 94}, {"time": 1643, "pitch": 59, "duration": 9, "velocity": 99}, {"time": 1649, "pitch": 50, "duration": 18, "velocity": 43}, {"time": 1655, "pitch": 55, "duration": 12, "velocity": 80}, {"time": 1655, "pitch": 59, "duration": 12, "velocity": 87}, {"time": 1667, "pitch": 43, "duration": 1, "velocity": 101}, {"time": 1667, "pitch": 55, "duration": 1, "velocity": 91}, {"time": 1667, "pitch": 59, "duration": 1, "velocity": 96}, {"time": 1667, "pitch": 62, "duration": 6, "velocity": 101}, {"time": 1679, "pitch": 55, "duration": 2, "velocity": 94}, {"time": 1679, "pitch": 59, "duration": 3, "velocity": 106}, {"time": 1679, "pitch": 62, "duration": 3, "velocity": 104}, {"time": 1691, "pitch": 50, "duration": 14, "velocity": 99}, {"time": 1691, "pitch": 57, "duration": 9, "velocity": 91}, {"time": 1691, "pitch": 62, "duration": 8, "velocity": 104}, {"time": 1691, "pitch": 66, "duration": 9, "velocity": 96}, {"time": 1703, "pitch": 57, "duration": 2, "velocity": 106}, {"time": 1703, "pitch": 62, "duration": 2, "velocity": 109}, {"time": 1703, "pitch": 66, "duration": 2, "velocity": 113}, {"time": 1715, "pitch": 48, "duration": 14, "velocity": 87}, {"time": 1715, "pitch": 55, "duration": 9, "velocity": 94}, {"time": 1715, "pitch": 60, "duration": 9, "velocity": 96}, {"time": 1727, "pitch": 55, "duration": 2, "velocity": 104}, {"time": 1727, "pitch": 60, "duration": 3, "velocity": 99}, {"time": 1727, "pitch": 64, "duration": 2, "velocity": 101}, {"time": 1739, "pitch": 50, "duration": 14, "velocity": 96}, {"time": 1739, "pitch": 57, "duration": 10, "velocity": 99}, {"time": 1739, "pitch": 62, "duration": 10, "velocity": 101}, {"time": 1739, "pitch": 66, "duration": 10, "velocity": 99}, {"time": 1751, "pitch": 57, "duration": 3, "velocity": 99}, {"time": 1751, "pitch": 62, "duration": 2, "velocity": 104}, {"time": 1751, "pitch": 66, "duration": 2, "velocity": 110}, {"time": 1763, "pitch": 43, "duration": 15, "velocity": 99}, {"time": 1763, "pitch": 55, "duration": 6, "velocity": 85}, {"time": 1763, "pitch": 59, "duration": 6, "velocity": 87}, {"time": 1763, "pitch": 62, "duration": 6, "velocity": 101}, {"time": 1769, "pitch": 50, "duration": 7, "velocity": 58}, {"time": 1775, "pitch": 55, "duration": 2, "velocity": 101}, {"time": 1775, "pitch": 59, "duration": 3, "velocity": 106}, {"time": 1775, "pitch": 62, "duration": 4, "velocity": 106}, {"time": 1787, "pitch": 50, "duration": 17, "velocity": 101}, {"time": 1787, "pitch": 57, "duration": 4, "velocity": 94}, {"time": 1787, "pitch": 62, "duration": 8, "velocity": 101}, {"time": 1793, "pitch": 57, "duration": 12, "velocity": 106}, {"time": 1799, "pitch": 62, "duration": 4, "velocity": 106}, {"time": 1799, "pitch": 66, "duration": 4, "velocity": 101}, {"time": 1811, "pitch": 48, "duration": 17, "velocity": 99}, {"time": 1811, "pitch": 55, "duration": 2, "velocity": 94}, {"time": 1811, "pitch": 60, "duration": 8, "velocity": 89}, {"time": 1811, "pitch": 64, "duration": 7, "velocity": 96}, {"time": 1817, "pitch": 55, "duration": 5, "velocity": 82}, {"time": 1823, "pitch": 60, "duration": 6, "velocity": 106}, {"time": 1823, "pitch": 64, "duration": 3, "velocity": 109}, {"time": 1829, "pitch": 55, "duration": 1, "velocity": 87}, {"time": 1835, "pitch": 50, "duration": 12, "velocity": 101}, {"time": 1835, "pitch": 57, "duration": 9, "velocity": 101}, {"time": 1835, "pitch": 62, "duration": 9, "velocity": 106}, {"time": 1835, "pitch": 66, "duration": 9, "velocity": 99}, {"time": 1847, "pitch": 57, "duration": 1, "velocity": 106}, {"time": 1847, "pitch": 62, "duration": 1, "velocity": 112}, {"time": 1847, "pitch": 66, "duration": 2, "velocity": 113}, {"time": 1859, "pitch": 47, "duration": 14, "velocity": 101}, {"time": 1859, "pitch": 59, "duration": 9, "velocity": 106}, {"time": 1859, "pitch": 64, "duration": 9, "velocity": 112}, {"time": 1865, "pitch": 54, "duration": 8, "velocity": 63}, {"time": 1871, "pitch": 59, "duration": 3, "velocity": 109}, {"time": 1871, "pitch": 64, "duration": 6, "velocity": 115}, {"time": 1877, "pitch": 59, "duration": 3, "velocity": 89}, {"time": 1883, "pitch": 47, "duration": 16, "velocity": 89}, {"time": 1883, "pitch": 59, "duration": 8, "velocity": 101}, {"time": 1883, "pitch": 63, "duration": 8, "velocity": 101}, {"time": 1889, "pitch": 54, "duration": 6, "velocity": 68}, {"time": 1895, "pitch": 59, "duration": 3, "velocity": 101}, {"time": 1895, "pitch": 63, "duration": 6, "velocity": 113}, {"time": 1895, "pitch": 66, "duration": 5, "velocity": 107}, {"time": 1901, "pitch": 59, "duration": 3, "velocity": 99}, {"time": 1907, "pitch": 43, "duration": 17, "velocity": 94}, {"time": 1907, "pitch": 59, "duration": 3, "velocity": 99}, {"time": 1907, "pitch": 62, "duration": 7, "velocity": 106}, {"time": 1907, "pitch": 67, "duration": 8, "velocity": 99}, {"time": 1913, "pitch": 59, "duration": 3, "velocity": 78}, {"time": 1919, "pitch": 59, "duration": 2, "velocity": 104}, {"time": 1919, "pitch": 62, "duration": 5, "velocity": 109}, {"time": 1919, "pitch": 67, "duration": 7, "velocity": 104}, {"time": 1925, "pitch": 59, "duration": 2, "velocity": 85}, {"time": 1931, "pitch": 45, "duration": 17, "velocity": 106}, {"time": 1931, "pitch": 57, "duration": 4, "velocity": 104}, {"time": 1931, "pitch": 61, "duration": 8, "velocity": 104}, {"time": 1937, "pitch": 52, "duration": 7, "velocity": 78}, {"time": 1943, "pitch": 57, "duration": 2, "velocity": 104}, {"time": 1943, "pitch": 61, "duration": 7, "velocity": 113}, {"time": 1943, "pitch": 64, "duration": 8, "velocity": 104}, {"time": 1949, "pitch": 57, "duration": 2, "velocity": 91}, {"time": 1955, "pitch": 45, "duration": 16, "velocity": 104}, {"time": 1955, "pitch": 57, "duration": 7, "velocity": 106}, {"time": 1955, "pitch": 60, "duration": 7, "velocity": 96}, {"time": 1961, "pitch": 52, "duration": 7, "velocity": 47}, {"time": 1967, "pitch": 57, "duration": 2, "velocity": 106}, {"time": 1967, "pitch": 60, "duration": 7, "velocity": 106}, {"time": 1967, "pitch": 64, "duration": 7, "velocity": 101}, {"time": 1973, "pitch": 57, "duration": 3, "velocity": 106}, {"time": 1979, "pitch": 48, "duration": 14, "velocity": 96}, {"time": 1979, "pitch": 55, "duration": 3, "velocity": 96}, {"time": 1979, "pitch": 60, "duration": 8, "velocity": 91}, {"time": 1979, "pitch": 64, "duration": 8, "velocity": 99}, {"time": 1985, "pitch": 55, "duration": 3, "velocity": 85}, {"time": 1991, "pitch": 55, "duration": 2, "velocity": 104}, {"time": 1991, "pitch": 60, "duration": 7, "velocity": 109}, {"time": 1991, "pitch": 64, "duration": 8, "velocity": 101}, {"time": 1997, "pitch": 55, "duration": 1, "velocity": 82}, {"time": 2003, "pitch": 50, "duration": 20, "velocity": 96}, {"time": 2003, "pitch": 57, "duration": 3, "velocity": 94}, {"time": 2003, "pitch": 62, "duration": 8, "velocity": 101}, {"time": 2009, "pitch": 57, "duration": 3, "velocity": 87}, {"time": 2015, "pitch": 57, "duration": 1, "velocity": 99}, {"time": 2015, "pitch": 62, "duration": 8, "velocity": 115}, {"time": 2015, "pitch": 66, "duration": 8, "velocity": 117}, {"time": 2021, "pitch": 57, "duration": 3, "velocity": 80}, {"time": 2027, "pitch": 50, "duration": 14, "velocity": 106}, {"time": 2027, "pitch": 57, "duration": 13, "velocity": 106}, {"time": 2027, "pitch": 62, "duration": 13, "velocity": 109}, {"time": 2027, "pitch": 66, "duration": 13, "velocity": 110}, {"time": 2050, "pitch": 48, "duration": 20, "velocity": 99}, {"time": 2050, "pitch": 67, "duration": 8, "velocity": 109}, {"time": 2056, "pitch": 55, "duration": 16, "velocity": 80}, {"time": 2056, "pitch": 60, "duration": 4, "velocity": 96}, {"time": 2062, "pitch": 60, "duration": 3, "velocity": 109}, {"time": 2062, "pitch": 67, "duration": 10, "velocity": 109}, {"time": 2068, "pitch": 60, "duration": 5, "velocity": 106}, {"time": 2074, "pitch": 50, "duration": 19, "velocity": 109}, {"time": 2074, "pitch": 62, "duration": 4, "velocity": 106}, {"time": 2074, "pitch": 66, "duration": 6, "velocity": 117}, {"time": 2080, "pitch": 62, "duration": 5, "velocity": 112}, {"time": 2086, "pitch": 57, "duration": 8, "velocity": 96}, {"time": 2086, "pitch": 66, "duration": 6, "velocity": 120}, {"time": 2092, "pitch": 62, "duration": 6, "velocity": 115}, {"time": 2098, "pitch": 47, "duration": 19, "velocity": 96}, {"time": 2098, "pitch": 66, "duration": 7, "velocity": 120}, {"time": 2104, "pitch": 59, "duration": 4, "velocity": 101}, {"time": 2110, "pitch": 54, "duration": 6, "velocity": 53}, {"time": 2110, "pitch": 59, "duration": 3, "velocity": 115}, {"time": 2110, "pitch": 62, "duration": 7, "velocity": 112}, {"time": 2116, "pitch": 59, "duration": 3, "velocity": 115}, {"time": 2122, "pitch": 52, "duration": 17, "velocity": 109}, {"time": 2122, "pitch": 64, "duration": 7, "velocity": 101}, {"time": 2122, "pitch": 67, "duration": 7, "velocity": 101}, {"time": 2128, "pitch": 59, "duration": 8, "velocity": 82}, {"time": 2134, "pitch": 64, "duration": 4, "velocity": 118}, {"time": 2134, "pitch": 68, "duration": 7, "velocity": 120}, {"time": 2140, "pitch": 64, "duration": 6, "velocity": 115}, {"time": 2146, "pitch": 57, "duration": 10, "velocity": 106}, {"time": 2146, "pitch": 72, "duration": 7, "velocity": 104}, {"time": 2152, "pitch": 64, "duration": 7, "velocity": 115}, {"time": 2158, "pitch": 57, "duration": 3, "velocity": 112}, {"time": 2158, "pitch": 69, "duration": 7, "velocity": 115}, {"time": 2158, "pitch": 72, "duration": 8, "velocity": 106}, {"time": 2164, "pitch": 64, "duration": 4, "velocity": 112}, {"time": 2170, "pitch": 50, "duration": 9, "velocity": 109}, {"time": 2170, "pitch": 66, "duration": 7, "velocity": 113}, {"time": 2170, "pitch": 69, "duration": 7, "velocity": 106}, {"time": 2176, "pitch": 62, "duration": 4, "velocity": 112}, {"time": 2182, "pitch": 50, "duration": 7, "velocity": 101}, {"time": 2182, "pitch": 57, "duration": 8, "velocity": 96}, {"time": 2182, "pitch": 62, "duration": 3, "velocity": 109}, {"time": 2182, "pitch": 66, "duration": 6, "velocity": 123}, {"time": 2182, "pitch": 69, "duration": 6, "velocity": 109}, {"time": 2188, "pitch": 62, "duration": 4, "velocity": 115}, {"time": 2194, "pitch": 45, "duration": 17, "velocity": 106}, {"time": 2194, "pitch": 64, "duration": 3, "velocity": 94}, {"time": 2194, "pitch": 69, "duration": 7, "velocity": 106}, {"time": 2200, "pitch": 64, "duration": 8, "velocity": 109}, {"time": 2206, "pitch": 69, "duration": 6, "velocity": 115}, {"time": 2206, "pitch": 72, "duration": 10, "velocity": 115}, {"time": 2212, "pitch": 64, "duration": 6, "velocity": 115}, {"time": 2218, "pitch": 50, "duration": 23, "velocity": 112}, {"time": 2218, "pitch": 66, "duration": 6, "velocity": 107}, {"time": 2218, "pitch": 69, "duration": 6, "velocity": 106}, {"time": 2224, "pitch": 62, "duration": 8, "velocity": 118}, {"time": 2230, "pitch": 57, "duration": 11, "velocity": 89}, {"time": 2230, "pitch": 66, "duration": 4, "velocity": 123}, {"time": 2233, "pitch": 67, "duration": 3, "velocity": 109}, {"time": 2236, "pitch": 69, "duration": 4, "velocity": 112}, {"time": 2239, "pitch": 62, "duration": 3, "velocity": 115}, {"time": 2242, "pitch": 48, "duration": 20, "velocity": 99}, {"time": 2242, "pitch": 67, "duration": 8, "velocity": 109}, {"time": 2248, "pitch": 55, "duration": 16, "velocity": 80}, {"time": 2248, "pitch": 60, "duration": 4, "velocity": 96}, {"time": 2254, "pitch": 60, "duration": 3, "velocity": 109}, {"time": 2254, "pitch": 67, "duration": 10, "velocity": 109}, {"time": 2260, "pitch": 60, "duration": 5, "velocity": 106}, {"time": 2266, "pitch": 50, "duration": 19, "velocity": 109}, {"time": 2266, "pitch": 62, "duration": 4, "velocity": 106}, {"time": 2266, "pitch": 66, "duration": 6, "velocity": 117}, {"time": 2272, "pitch": 62, "duration": 5, "velocity": 112}, {"time": 2278, "pitch": 57, "duration": 8, "velocity": 96}, {"time": 2278, "pitch": 66, "duration": 6, "velocity": 120}, {"time": 2284, "pitch": 62, "duration": 6, "velocity": 115}, {"time": 2290, "pitch": 47, "duration": 19, "velocity": 96}, {"time": 2290, "pitch": 66, "duration": 7, "velocity": 120}, {"time": 2296, "pitch": 59, "duration": 4, "velocity": 101}, {"time": 2302, "pitch": 54, "duration": 6, "velocity": 53}, {"time": 2302, "pitch": 59, "duration": 3, "velocity": 115}, {"time": 2302, "pitch": 62, "duration": 7, "velocity": 112}, {"time": 2308, "pitch": 59, "duration": 3, "velocity": 115}, {"time": 2314, "pitch": 52, "duration": 17, "velocity": 109}, {"time": 2314, "pitch": 64, "duration": 7, "velocity": 101}, {"time": 2314, "pitch": 67, "duration": 7, "velocity": 101}, {"time": 2320, "pitch": 59, "duration": 8, "velocity": 82}, {"time": 2326, "pitch": 64, "duration": 4, "velocity": 118}, {"time": 2326, "pitch": 68, "duration": 7, "velocity": 120}, {"time": 2332, "pitch": 64, "duration": 6, "velocity": 115}, {"time": 2338, "pitch": 57, "duration": 10, "velocity": 106}, {"time": 2338, "pitch": 72, "duration": 7, "velocity": 104}, {"time": 2344, "pitch": 64, "duration": 7, "velocity": 115}, {"time": 2350, "pitch": 57, "duration": 3, "velocity": 112}, {"time": 2350, "pitch": 69, "duration": 7, "velocity": 115}, {"time": 2350, "pitch": 72, "duration": 8, "velocity": 106}, {"time": 2356, "pitch": 64, "duration": 4, "velocity": 112}, {"time": 2362, "pitch": 50, "duration": 9, "velocity": 109}, {"time": 2362, "pitch": 66, "duration": 7, "velocity": 113}, {"time": 2362, "pitch": 69, "duration": 7, "velocity": 106}, {"time": 2368, "pitch": 62, "duration": 4, "velocity": 112}, {"time": 2374, "pitch": 50, "duration": 7, "velocity": 101}, {"time": 2374, "pitch": 57, "duration": 8, "velocity": 96}, {"time": 2374, "pitch": 62, "duration": 3, "velocity": 109}, {"time": 2374, "pitch": 66, "duration": 6, "velocity": 123}, {"time": 2374, "pitch": 69, "duration": 6, "velocity": 109}, {"time": 2380, "pitch": 62, "duration": 4, "velocity": 115}, {"time": 2387, "pitch": 52, "duration": 23, "velocity": 112}, {"time": 2387, "pitch": 59, "duration": 3, "velocity": 106}, {"time": 2387, "pitch": 64, "duration": 8, "velocity": 106}, {"time": 2393, "pitch": 59, "duration": 3, "velocity": 96}, {"time": 2399, "pitch": 59, "duration": 4, "velocity": 115}, {"time": 2399, "pitch": 64, "duration": 6, "velocity": 112}, {"time": 2399, "pitch": 68, "duration": 6, "velocity": 120}, {"time": 2408, "pitch": 59, "duration": 1, "velocity": 85}, {"time": 2408, "pitch": 64, "duration": 1, "velocity": 89}, {"time": 2411, "pitch": 52, "duration": 15, "velocity": 112}, {"time": 2411, "pitch": 59, "duration": 4, "velocity": 106}, {"time": 2411, "pitch": 64, "duration": 10, "velocity": 112}, {"time": 2417, "pitch": 59, "duration": 3, "velocity": 104}, {"time": 2423, "pitch": 59, "duration": 7, "velocity": 115}, {"time": 2423, "pitch": 64, "duration": 6, "velocity": 112}, {"time": 2435, "pitch": 45, "duration": 17, "velocity": 106}, {"time": 2435, "pitch": 57, "duration": 9, "velocity": 106}, {"time": 2435, "pitch": 60, "duration": 8, "velocity": 94}, {"time": 2441, "pitch": 52, "duration": 9, "velocity": 73}, {"time": 2447, "pitch": 57, "duration": 2, "velocity": 112}, {"time": 2447, "pitch": 60, "duration": 6, "velocity": 109}, {"time": 2447, "pitch": 64, "duration": 6, "velocity": 109}, {"time": 2453, "pitch": 57, "duration": 4, "velocity": 96}, {"time": 2459, "pitch": 50, "duration": 23, "velocity": 101}, {"time": 2459, "pitch": 57, "duration": 3, "velocity": 109}, {"time": 2459, "pitch": 62, "duration": 8, "velocity": 106}, {"time": 2465, "pitch": 57, "duration": 2, "velocity": 87}, {"time": 2471, "pitch": 57, "duration": 11, "velocity": 112}, {"time": 2471, "pitch": 62, "duration": 11, "velocity": 112}, {"time": 2471, "pitch": 66, "duration": 11, "velocity": 107}, {"time": 2483, "pitch": 55, "duration": 5, "velocity": 112}, {"time": 2489, "pitch": 62, "duration": 6, "velocity": 101}, {"time": 2495, "pitch": 59, "duration": 7, "velocity": 101}, {"time": 2501, "pitch": 62, "duration": 6, "velocity": 99}, {"time": 2507, "pitch": 55, "duration": 6, "velocity": 94}, {"time": 2513, "pitch": 62, "duration": 6, "velocity": 101}, {"time": 2519, "pitch": 59, "duration": 7, "velocity": 96}, {"time": 2525, "pitch": 62, "duration": 6, "velocity": 101}, {"time": 2531, "pitch": 55, "duration": 6, "velocity": 99}, {"time": 2537, "pitch": 64, "duration": 6, "velocity": 104}, {"time": 2543, "pitch": 60, "duration": 8, "velocity": 89}, {"time": 2549, "pitch": 64, "duration": 4, "velocity": 96}, {"time": 2555, "pitch": 55, "duration": 6, "velocity": 101}, {"time": 2561, "pitch": 62, "duration": 6, "velocity": 101}, {"time": 2567, "pitch": 59, "duration": 6, "velocity": 96}, {"time": 2573, "pitch": 62, "duration": 5, "velocity": 99}, {"time": 2579, "pitch": 54, "duration": 6, "velocity": 113}, {"time": 2585, "pitch": 62, "duration": 5, "velocity": 109}, {"time": 2591, "pitch": 60, "duration": 6, "velocity": 99}, {"time": 2597, "pitch": 62, "duration": 5, "velocity": 106}, {"time": 2603, "pitch": 55, "duration": 6, "velocity": 94}, {"time": 2609, "pitch": 62, "duration": 5, "velocity": 104}, {"time": 2615, "pitch": 59, "duration": 6, "velocity": 96}, {"time": 2621, "pitch": 62, "duration": 4, "velocity": 96}, {"time": 2627, "pitch": 50, "duration": 7, "velocity": 101}, {"time": 2633, "pitch": 62, "duration": 6, "velocity": 109}, {"time": 2639, "pitch": 57, "duration": 6, "velocity": 104}, {"time": 2645, "pitch": 62, "duration": 4, "velocity": 106}, {"time": 2651, "pitch": 55, "duration": 2, "velocity": 106}, {"time": 2651, "pitch": 62, "duration": 2, "velocity": 89}, {"time": 2651, "pitch": 67, "duration": 2, "velocity": 94}, {"time": 2657, "pitch": 55, "duration": 1, "velocity": 101}, {"time": 2657, "pitch": 62, "duration": 2, "velocity": 91}, {"time": 2657, "pitch": 67, "duration": 2, "velocity": 91}, {"time": 2663, "pitch": 55, "duration": 2, "velocity": 104}, {"time": 2663, "pitch": 62, "duration": 2, "velocity": 96}, {"time": 2663, "pitch": 67, "duration": 2, "velocity": 99}, {"time": 2669, "pitch": 55, "duration": 2, "velocity": 96}, {"time": 2669, "pitch": 62, "duration": 2, "velocity": 94}, {"time": 2669, "pitch": 67, "duration": 3, "velocity": 99}, {"time": 2675, "pitch": 57, "duration": 2, "velocity": 109}, {"time": 2675, "pitch": 64, "duration": 2, "velocity": 96}, {"time": 2675, "pitch": 69, "duration": 2, "velocity": 99}, {"time": 2681, "pitch": 57, "duration": 2, "velocity": 99}, {"time": 2681, "pitch": 64, "duration": 2, "velocity": 89}, {"time": 2681, "pitch": 69, "duration": 2, "velocity": 96}, {"time": 2687, "pitch": 57, "duration": 2, "velocity": 101}, {"time": 2687, "pitch": 64, "duration": 2, "velocity": 94}, {"time": 2687, "pitch": 69, "duration": 2, "velocity": 99}, {"time": 2693, "pitch": 57, "duration": 2, "velocity": 96}, {"time": 2693, "pitch": 64, "duration": 2, "velocity": 94}, {"time": 2693, "pitch": 69, "duration": 3, "velocity": 99}, {"time": 2699, "pitch": 52, "duration": 2, "velocity": 96}, {"time": 2699, "pitch": 64, "duration": 2, "velocity": 96}, {"time": 2699, "pitch": 67, "duration": 2, "velocity": 106}, {"time": 2705, "pitch": 52, "duration": 2, "velocity": 94}, {"time": 2705, "pitch": 64, "duration": 2, "velocity": 87}, {"time": 2705, "pitch": 67, "duration": 3, "velocity": 96}, {"time": 2711, "pitch": 57, "duration": 2, "velocity": 106}, {"time": 2711, "pitch": 64, "duration": 2, "velocity": 96}, {"time": 2711, "pitch": 69, "duration": 2, "velocity": 101}, {"time": 2717, "pitch": 57, "duration": 2, "velocity": 101}, {"time": 2717, "pitch": 64, "duration": 2, "velocity": 101}, {"time": 2717, "pitch": 69, "duration": 2, "velocity": 106}, {"time": 2723, "pitch": 47, "duration": 2, "velocity": 99}, {"time": 2723, "pitch": 59, "duration": 3, "velocity": 104}, {"time": 2723, "pitch": 62, "duration": 3, "velocity": 104}, {"time": 2729, "pitch": 47, "duration": 2, "velocity": 89}, {"time": 2729, "pitch": 59, "duration": 2, "velocity": 96}, {"time": 2729, "pitch": 62, "duration": 2, "velocity": 104}, {"time": 2735, "pitch": 48, "duration": 1, "velocity": 99}, {"time": 2735, "pitch": 60, "duration": 2, "velocity": 89}, {"time": 2735, "pitch": 64, "duration": 1, "velocity": 91}, {"time": 2735, "pitch": 67, "duration": 2, "velocity": 99}, {"time": 2741, "pitch": 48, "duration": 1, "velocity": 91}, {"time": 2741, "pitch": 60, "duration": 2, "velocity": 82}, {"time": 2741, "pitch": 64, "duration": 2, "velocity": 89}, {"time": 2741, "pitch": 67, "duration": 2, "velocity": 94}, {"time": 2747, "pitch": 48, "duration": 2, "velocity": 96}, {"time": 2747, "pitch": 60, "duration": 2, "velocity": 96}, {"time": 2747, "pitch": 64, "duration": 1, "velocity": 99}, {"time": 2747, "pitch": 67, "duration": 2, "velocity": 99}, {"time": 2753, "pitch": 48, "duration": 2, "velocity": 94}, {"time": 2753, "pitch": 60, "duration": 2, "velocity": 96}, {"time": 2753, "pitch": 64, "duration": 2, "velocity": 99}, {"time": 2753, "pitch": 67, "duration": 2, "velocity": 99}, {"time": 2759, "pitch": 50, "duration": 2, "velocity": 104}, {"time": 2759, "pitch": 62, "duration": 2, "velocity": 101}, {"time": 2759, "pitch": 66, "duration": 2, "velocity": 107}, {"time": 2765, "pitch": 50, "duration": 1, "velocity": 91}, {"time": 2765, "pitch": 62, "duration": 2, "velocity": 96}, {"time": 2765, "pitch": 66, "duration": 2, "velocity": 104}, {"time": 2771, "pitch": 50, "duration": 1, "velocity": 101}, {"time": 2771, "pitch": 62, "duration": 2, "velocity": 96}, {"time": 2771, "pitch": 66, "duration": 2, "velocity": 110}, {"time": 2777, "pitch": 50, "duration": 1, "velocity": 104}, {"time": 2777, "pitch": 62, "duration": 2, "velocity": 101}, {"time": 2777, "pitch": 66, "duration": 2, "velocity": 113}, {"time": 2783, "pitch": 43, "duration": 6, "velocity": 114}, {"time": 2783, "pitch": 67, "duration": 3, "velocity": 114}, {"time": 2789, "pitch": 50, "duration": 6, "velocity": 114}, {"time": 2789, "pitch": 62, "duration": 3, "velocity": 114}, {"time": 2795, "pitch": 48, "duration": 6, "velocity": 114}, {"time": 2795, "pitch": 60, "duration": 3, "velocity": 114}, {"time": 2801, "pitch": 47, "duration": 6, "velocity": 114}, {"time": 2801, "pitch": 59, "duration": 3, "velocity": 114}, {"time": 2807, "pitch": 43, "duration": 6, "velocity": 114}, {"time": 2807, "pitch": 67, "duration": 3, "velocity": 114}, {"time": 2813, "pitch": 50, "duration": 6, "velocity": 114}, {"time": 2813, "pitch": 62, "duration": 3, "velocity": 114}, {"time": 2819, "pitch": 48, "duration": 6, "velocity": 114}, {"time": 2819, "pitch": 60, "duration": 3, "velocity": 114}, {"time": 2825, "pitch": 47, "duration": 6, "velocity": 114}, {"time": 2825, "pitch": 59, "duration": 3, "velocity": 114}, {"time": 2831, "pitch": 50, "duration": 6, "velocity": 114}, {"time": 2831, "pitch": 62, "duration": 3, "velocity": 114}, {"time": 2837, "pitch": 48, "duration": 6, "velocity": 114}, {"time": 2837, "pitch": 60, "duration": 3, "velocity": 114}, {"time": 2843, "pitch": 47, "duration": 6, "velocity": 114}, {"time": 2843, "pitch": 59, "duration": 3, "velocity": 114}, {"time": 2849, "pitch": 45, "duration": 6, "velocity": 114}, {"time": 2849, "pitch": 57, "duration": 3, "velocity": 114}, {"time": 2855, "pitch": 47, "duration": 6, "velocity": 114}, {"time": 2855, "pitch": 59, "duration": 3, "velocity": 114}, {"time": 2867, "pitch": 40, "duration": 6, "velocity": 114}, {"time": 2867, "pitch": 64, "duration": 3, "velocity": 114}, {"time": 2879, "pitch": 45, "duration": 22, "velocity": 104}, {"time": 2879, "pitch": 52, "duration": 21, "velocity": 96}, {"time": 2879, "pitch": 57, "duration": 22, "velocity": 101}, {"time": 2903, "pitch": 45, "duration": 5, "velocity": 109}, {"time": 2903, "pitch": 57, "duration": 5, "velocity": 101}, {"time": 2903, "pitch": 61, "duration": 5, "velocity": 104}, {"time": 2903, "pitch": 64, "duration": 5, "velocity": 101}, {"time": 2915, "pitch": 40, "duration": 11, "velocity": 106}, {"time": 2915, "pitch": 52, "duration": 11, "velocity": 101}, {"time": 2915, "pitch": 56, "duration": 11, "velocity": 113}, {"time": 2915, "pitch": 59, "duration": 11, "velocity": 106}, {"time": 2927, "pitch": 50, "duration": 19, "velocity": 99}, {"time": 2927, "pitch": 69, "duration": 7, "velocity": 109}, {"time": 2933, "pitch": 57, "duration": 15, "velocity": 80}, {"time": 2933, "pitch": 62, "duration": 3, "velocity": 96}, {"time": 2939, "pitch": 62, "duration": 2, "velocity": 109}, {"time": 2939, "pitch": 69, "duration": 9, "velocity": 109}, {"time": 2945, "pitch": 62, "duration": 4, "velocity": 106}, {"time": 2951, "pitch": 52, "duration": 18, "velocity": 109}, {"time": 2951, "pitch": 64, "duration": 3, "velocity": 106}, {"time": 2951, "pitch": 68, "duration": 5, "velocity": 117}, {"time": 2957, "pitch": 64, "duration": 5, "velocity": 112}, {"time": 2963, "pitch": 59, "duration": 7, "velocity": 96}, {"time": 2963, "pitch": 68, "duration": 5, "velocity": 120}, {"time": 2969, "pitch": 64, "duration": 6, "velocity": 115}, {"time": 2975, "pitch": 49, "duration": 18, "velocity": 96}, {"time": 2975, "pitch": 68, "duration": 6, "velocity": 120}, {"time": 2981, "pitch": 61, "duration": 4, "velocity": 101}, {"time": 2987, "pitch": 56, "duration": 5, "velocity": 53}, {"time": 2987, "pitch": 61, "duration": 2, "velocity": 115}, {"time": 2987, "pitch": 64, "duration": 6, "velocity": 112}, {"time": 2993, "pitch": 61, "duration": 2, "velocity": 115}, {"time": 2999, "pitch": 54, "duration": 17, "velocity": 109}, {"time": 2999, "pitch": 66, "duration": 6, "velocity": 101}, {"time": 2999, "pitch": 70, "duration": 6, "velocity": 101}, {"time": 3005, "pitch": 61, "duration": 7, "velocity": 82}, {"time": 3011, "pitch": 66, "duration": 3, "velocity": 118}, {"time": 3011, "pitch": 71, "duration": 6, "velocity": 120}, {"time": 3017, "pitch": 66, "duration": 5, "velocity": 115}, {"time": 3023, "pitch": 59, "duration": 9, "velocity": 106}, {"time": 3023, "pitch": 74, "duration": 6, "velocity": 104}, {"time": 3029, "pitch": 66, "duration": 6, "velocity": 115}, {"time": 3035, "pitch": 59, "duration": 2, "velocity": 112}, {"time": 3035, "pitch": 71, "duration": 6, "velocity": 115}, {"time": 3035, "pitch": 74, "duration": 7, "velocity": 106}, {"time": 3041, "pitch": 66, "duration": 4, "velocity": 112}, {"time": 3047, "pitch": 52, "duration": 8, "velocity": 109}, {"time": 3047, "pitch": 68, "duration": 6, "velocity": 113}, {"time": 3047, "pitch": 71, "duration": 6, "velocity": 106}, {"time": 3053, "pitch": 64, "duration": 4, "velocity": 112}, {"time": 3059, "pitch": 52, "duration": 6, "velocity": 101}, {"time": 3059, "pitch": 59, "duration": 7, "velocity": 96}, {"time": 3059, "pitch": 64, "duration": 2, "velocity": 109}, {"time": 3059, "pitch": 68, "duration": 5, "velocity": 123}, {"time": 3059, "pitch": 71, "duration": 6, "velocity": 109}, {"time": 3065, "pitch": 64, "duration": 4, "velocity": 115}, {"time": 3071, "pitch": 47, "duration": 16, "velocity": 106}, {"time": 3071, "pitch": 66, "duration": 3, "velocity": 94}, {"time": 3071, "pitch": 71, "duration": 6, "velocity": 106}, {"time": 3077, "pitch": 66, "duration": 7, "velocity": 109}, {"time": 3083, "pitch": 71, "duration": 5, "velocity": 115}, {"time": 3083, "pitch": 74, "duration": 9, "velocity": 115}, {"time": 3089, "pitch": 66, "duration": 6, "velocity": 115}, {"time": 3095, "pitch": 52, "duration": 22, "velocity": 112}, {"time": 3095, "pitch": 68, "duration": 5, "velocity": 107}, {"time": 3095, "pitch": 71, "duration": 5, "velocity": 106}, {"time": 3101, "pitch": 64, "duration": 7, "velocity": 118}, {"time": 3107, "pitch": 59, "duration": 10, "velocity": 89}, {"time": 3107, "pitch": 68, "duration": 3, "velocity": 123}, {"time": 3110, "pitch": 69, "duration": 2, "velocity": 109}, {"time": 3113, "pitch": 71, "duration": 3, "velocity": 112}, {"time": 3116, "pitch": 64, "duration": 2, "velocity": 115}, {"time": 3119, "pitch": 50, "duration": 19, "velocity": 99}, {"time": 3119, "pitch": 69, "duration": 7, "velocity": 109}, {"time": 3125, "pitch": 57, "duration": 15, "velocity": 80}, {"time": 3125, "pitch": 62, "duration": 3, "velocity": 96}, {"time": 3131, "pitch": 62, "duration": 2, "velocity": 109}, {"time": 3131, "pitch": 69, "duration": 9, "velocity": 109}, {"time": 3137, "pitch": 62, "duration": 4, "velocity": 106}, {"time": 3143, "pitch": 52, "duration": 18, "velocity": 109}, {"time": 3143, "pitch": 64, "duration": 3, "velocity": 106}, {"time": 3143, "pitch": 68, "duration": 5, "velocity": 117}, {"time": 3149, "pitch": 64, "duration": 5, "velocity": 112}, {"time": 3155, "pitch": 59, "duration": 7, "velocity": 96}, {"time": 3155, "pitch": 68, "duration": 5, "velocity": 120}, {"time": 3161, "pitch": 64, "duration": 6, "velocity": 115}, {"time": 3167, "pitch": 49, "duration": 18, "velocity": 96}, {"time": 3167, "pitch": 68, "duration": 6, "velocity": 120}, {"time": 3173, "pitch": 61, "duration": 4, "velocity": 101}, {"time": 3179, "pitch": 56, "duration": 5, "velocity": 53}, {"time": 3179, "pitch": 61, "duration": 2, "velocity": 115}, {"time": 3179, "pitch": 64, "duration": 6, "velocity": 112}, {"time": 3185, "pitch": 61, "duration": 2, "velocity": 115}, {"time": 3191, "pitch": 54, "duration": 17, "velocity": 109}, {"time": 3191, "pitch": 66, "duration": 6, "velocity": 101}, {"time": 3191, "pitch": 69, "duration": 6, "velocity": 101}, {"time": 3197, "pitch": 61, "duration": 7, "velocity": 82}, {"time": 3203, "pitch": 66, "duration": 3, "velocity": 118}, {"time": 3203, "pitch": 70, "duration": 6, "velocity": 120}, {"time": 3209, "pitch": 66, "duration": 5, "velocity": 115}, {"time": 3215, "pitch": 59, "duration": 9, "velocity": 106}, {"time": 3215, "pitch": 74, "duration": 6, "velocity": 104}, {"time": 3221, "pitch": 66, "duration": 6, "velocity": 115}, {"time": 3227, "pitch": 59, "duration": 2, "velocity": 112}, {"time": 3227, "pitch": 71, "duration": 6, "velocity": 115}, {"time": 3227, "pitch": 74, "duration": 7, "velocity": 106}, {"time": 3233, "pitch": 66, "duration": 4, "velocity": 112}, {"time": 3239, "pitch": 52, "duration": 8, "velocity": 109}, {"time": 3239, "pitch": 68, "duration": 6, "velocity": 113}, {"time": 3239, "pitch": 71, "duration": 6, "velocity": 106}, {"time": 3245, "pitch": 64, "duration": 4, "velocity": 112}, {"time": 3251, "pitch": 52, "duration": 6, "velocity": 101}, {"time": 3251, "pitch": 59, "duration": 7, "velocity": 96}, {"time": 3251, "pitch": 64, "duration": 2, "velocity": 109}, {"time": 3251, "pitch": 68, "duration": 5, "velocity": 123}, {"time": 3251, "pitch": 71, "duration": 6, "velocity": 109}, {"time": 3257, "pitch": 64, "duration": 4, "velocity": 115}, {"time": 3263, "pitch": 54, "duration": 23, "velocity": 112}, {"time": 3263, "pitch": 61, "duration": 3, "velocity": 106}, {"time": 3263, "pitch": 66, "duration": 8, "velocity": 106}, {"time": 3269, "pitch": 61, "duration": 3, "velocity": 96}, {"time": 3275, "pitch": 61, "duration": 4, "velocity": 115}, {"time": 3275, "pitch": 66, "duration": 6, "velocity": 112}, {"time": 3275, "pitch": 70, "duration": 6, "velocity": 120}, {"time": 3284, "pitch": 61, "duration": 1, "velocity": 85}, {"time": 3284, "pitch": 66, "duration": 1, "velocity": 89}, {"time": 3287, "pitch": 54, "duration": 15, "velocity": 112}, {"time": 3287, "pitch": 61, "duration": 4, "velocity": 106}, {"time": 3287, "pitch": 66, "duration": 10, "velocity": 112}, {"time": 3293, "pitch": 61, "duration": 3, "velocity": 104}, {"time": 3299, "pitch": 61, "duration": 7, "velocity": 115}, {"time": 3299, "pitch": 66, "duration": 6, "velocity": 112}, {"time": 3311, "pitch": 47, "duration": 17, "velocity": 106}, {"time": 3311, "pitch": 59, "duration": 9, "velocity": 106}, {"time": 3311, "pitch": 62, "duration": 8, "velocity": 94}, {"time": 3317, "pitch": 54, "duration": 9, "velocity": 73}, {"time": 3323, "pitch": 59, "duration": 2, "velocity": 112}, {"time": 3323, "pitch": 62, "duration": 6, "velocity": 109}, {"time": 3323, "pitch": 66, "duration": 6, "velocity": 109}, {"time": 3329, "pitch": 59, "duration": 4, "velocity": 96}, {"time": 3335, "pitch": 52, "duration": 23, "velocity": 101}, {"time": 3335, "pitch": 59, "duration": 3, "velocity": 109}, {"time": 3335, "pitch": 64, "duration": 8, "velocity": 106}, {"time": 3341, "pitch": 59, "duration": 2, "velocity": 87}, {"time": 3347, "pitch": 59, "duration": 11, "velocity": 112}, {"time": 3347, "pitch": 64, "duration": 11, "velocity": 112}, {"time": 3347, "pitch": 68, "duration": 11, "velocity": 107}, {"time": 3359, "pitch": 45, "duration": 21, "velocity": 106}, {"time": 3359, "pitch": 57, "duration": 5, "velocity": 101}, {"time": 3359, "pitch": 61, "duration": 6, "velocity": 110}, {"time": 3359, "pitch": 64, "duration": 5, "velocity": 99}, {"time": 3365, "pitch": 52, "duration": 7, "velocity": 85}, {"time": 3371, "pitch": 57, "duration": 5, "velocity": 106}, {"time": 3371, "pitch": 61, "duration": 5, "velocity": 120}, {"time": 3371, "pitch": 64, "duration": 5, "velocity": 106}, {"time": 3377, "pitch": 52, "duration": 3, "velocity": 45}, {"time": 3380, "pitch": 57, "duration": 4, "velocity": 104}, {"time": 3383, "pitch": 45, "duration": 15, "velocity": 91}, {"time": 3386, "pitch": 57, "duration": 4, "velocity": 109}, {"time": 3389, "pitch": 52, "duration": 7, "velocity": 89}, {"time": 3395, "pitch": 57, "duration": 9, "velocity": 112}, {"time": 3395, "pitch": 61, "duration": 7, "velocity": 120}, {"time": 3395, "pitch": 64, "duration": 9, "velocity": 109}, {"time": 3401, "pitch": 45, "duration": 4, "velocity": 101}, {"time": 3407, "pitch": 45, "duration": 22, "velocity": 104}, {"time": 3407, "pitch": 57, "duration": 10, "velocity": 106}, {"time": 3407, "pitch": 62, "duration": 10, "velocity": 109}, {"time": 3413, "pitch": 52, "duration": 7, "velocity": 66}, {"time": 3419, "pitch": 57, "duration": 6, "velocity": 115}, {"time": 3419, "pitch": 62, "duration": 6, "velocity": 115}, {"time": 3425, "pitch": 52, "duration": 3, "velocity": 20}, {"time": 3428, "pitch": 57, "duration": 4, "velocity": 106}, {"time": 3431, "pitch": 45, "duration": 20, "velocity": 96}, {"time": 3434, "pitch": 52, "duration": 7, "velocity": 89}, {"time": 3437, "pitch": 57, "duration": 2, "velocity": 112}, {"time": 3440, "pitch": 57, "duration": 4, "velocity": 106}, {"time": 3440, "pitch": 62, "duration": 5, "velocity": 115}, {"time": 3443, "pitch": 52, "duration": 7, "velocity": 94}, {"time": 3446, "pitch": 57, "duration": 3, "velocity": 99}, {"time": 3449, "pitch": 62, "duration": 1, "velocity": 101}, {"time": 3455, "pitch": 45, "duration": 21, "velocity": 106}, {"time": 3455, "pitch": 57, "duration": 8, "velocity": 104}, {"time": 3455, "pitch": 61, "duration": 7, "velocity": 99}, {"time": 3461, "pitch": 52, "duration": 6, "velocity": 39}, {"time": 3467, "pitch": 57, "duration": 5, "velocity": 109}, {"time": 3467, "pitch": 61, "duration": 14, "velocity": 117}, {"time": 3467, "pitch": 64, "duration": 15, "velocity": 104}, {"time": 3476, "pitch": 57, "duration": 5, "velocity": 89}, {"time": 3479, "pitch": 45, "duration": 15, "velocity": 101}, {"time": 3482, "pitch": 52, "duration": 10, "velocity": 73}, {"time": 3485, "pitch": 57, "duration": 3, "velocity": 104}, {"time": 3491, "pitch": 57, "duration": 6, "velocity": 109}, {"time": 3491, "pitch": 61, "duration": 9, "velocity": 120}, {"time": 3491, "pitch": 64, "duration": 9, "velocity": 104}, {"time": 3497, "pitch": 45, "duration": 3, "velocity": 94}, {"time": 3500, "pitch": 57, "duration": 1, "velocity": 101}, {"time": 3503, "pitch": 45, "duration": 23, "velocity": 104}, {"time": 3503, "pitch": 57, "duration": 9, "velocity": 106}, {"time": 3503, "pitch": 62, "duration": 9, "velocity": 101}, {"time": 3509, "pitch": 52, "duration": 7, "velocity": 42}, {"time": 3515, "pitch": 57, "duration": 6, "velocity": 115}, {"time": 3515, "pitch": 62, "duration": 10, "velocity": 115}, {"time": 3521, "pitch": 52, "duration": 4, "velocity": 46}, {"time": 3524, "pitch": 57, "duration": 1, "velocity": 94}, {"time": 3527, "pitch": 45, "duration": 23, "velocity": 104}, {"time": 3527, "pitch": 57, "duration": 6, "velocity": 106}, {"time": 3527, "pitch": 62, "duration": 7, "velocity": 109}, {"time": 3533, "pitch": 52, "duration": 15, "velocity": 62}, {"time": 3536, "pitch": 57, "duration": 2, "velocity": 104}, {"time": 3539, "pitch": 62, "duration": 3, "velocity": 115}, {"time": 3542, "pitch": 61, "duration": 3, "velocity": 120}, {"time": 3545, "pitch": 59, "duration": 4, "velocity": 101}, {"time": 3551, "pitch": 45, "duration": 21, "velocity": 106}, {"time": 3551, "pitch": 57, "duration": 5, "velocity": 101}, {"time": 3551, "pitch": 61, "duration": 6, "velocity": 110}, {"time": 3551, "pitch": 64, "duration": 5, "velocity": 99}, {"time": 3557, "pitch": 52, "duration": 7, "velocity": 85}, {"time": 3563, "pitch": 57, "duration": 5, "velocity": 106}, {"time": 3563, "pitch": 61, "duration": 5, "velocity": 120}, {"time": 3563, "pitch": 64, "duration": 5, "velocity": 106}, {"time": 3569, "pitch": 52, "duration": 3, "velocity": 45}, {"time": 3572, "pitch": 57, "duration": 4, "velocity": 104}, {"time": 3575, "pitch": 45, "duration": 15, "velocity": 91}, {"time": 3578, "pitch": 57, "duration": 4, "velocity": 109}, {"time": 3581, "pitch": 52, "duration": 7, "velocity": 89}, {"time": 3587, "pitch": 57, "duration": 9, "velocity": 112}, {"time": 3587, "pitch": 61, "duration": 7, "velocity": 120}, {"time": 3587, "pitch": 64, "duration": 9, "velocity": 109}, {"time": 3593, "pitch": 45, "duration": 4, "velocity": 101}, {"time": 3599, "pitch": 45, "duration": 22, "velocity": 104}, {"time": 3599, "pitch": 57, "duration": 10, "velocity": 106}, {"time": 3599, "pitch": 62, "duration": 10, "velocity": 109}, {"time": 3605, "pitch": 52, "duration": 7, "velocity": 66}, {"time": 3611, "pitch": 57, "duration": 6, "velocity": 115}, {"time": 3611, "pitch": 62, "duration": 6, "velocity": 115}, {"time": 3617, "pitch": 52, "duration": 3, "velocity": 20}, {"time": 3620, "pitch": 57, "duration": 4, "velocity": 106}, {"time": 3623, "pitch": 45, "duration": 20, "velocity": 96}, {"time": 3626, "pitch": 52, "duration": 7, "velocity": 89}, {"time": 3629, "pitch": 57, "duration": 2, "velocity": 112}, {"time": 3632, "pitch": 57, "duration": 4, "velocity": 106}, {"time": 3632, "pitch": 62, "duration": 5, "velocity": 115}, {"time": 3635, "pitch": 52, "duration": 7, "velocity": 94}, {"time": 3638, "pitch": 57, "duration": 3, "velocity": 99}, {"time": 3641, "pitch": 62, "duration": 1, "velocity": 101}, {"time": 3647, "pitch": 45, "duration": 21, "velocity": 106}, {"time": 3647, "pitch": 57, "duration": 8, "velocity": 104}, {"time": 3647, "pitch": 61, "duration": 7, "velocity": 99}, {"time": 3653, "pitch": 52, "duration": 6, "velocity": 39}, {"time": 3659, "pitch": 57, "duration": 5, "velocity": 109}, {"time": 3659, "pitch": 61, "duration": 14, "velocity": 117}, {"time": 3659, "pitch": 64, "duration": 15, "velocity": 104}, {"time": 3668, "pitch": 57, "duration": 5, "velocity": 89}, {"time": 3671, "pitch": 45, "duration": 15, "velocity": 101}, {"time": 3674, "pitch": 52, "duration": 10, "velocity": 73}, {"time": 3677, "pitch": 57, "duration": 3, "velocity": 104}, {"time": 3683, "pitch": 57, "duration": 6, "velocity": 109}, {"time": 3683, "pitch": 61, "duration": 9, "velocity": 120}, {"time": 3683, "pitch": 64, "duration": 9, "velocity": 104}, {"time": 3689, "pitch": 45, "duration": 3, "velocity": 94}, {"time": 3692, "pitch": 57, "duration": 1, "velocity": 101}, {"time": 3695, "pitch": 45, "duration": 23, "velocity": 104}, {"time": 3695, "pitch": 57, "duration": 9, "velocity": 106}, {"time": 3695, "pitch": 62, "duration": 9, "velocity": 101}, {"time": 3701, "pitch": 52, "duration": 7, "velocity": 42}, {"time": 3707, "pitch": 57, "duration": 6, "velocity": 115}, {"time": 3707, "pitch": 62, "duration": 10, "velocity": 115}, {"time": 3713, "pitch": 52, "duration": 4, "velocity": 46}, {"time": 3716, "pitch": 57, "duration": 1, "velocity": 94}, {"time": 3719, "pitch": 45, "duration": 23, "velocity": 104}, {"time": 3719, "pitch": 57, "duration": 6, "velocity": 106}, {"time": 3719, "pitch": 62, "duration": 7, "velocity": 109}, {"time": 3725, "pitch": 52, "duration": 15, "velocity": 62}, {"time": 3728, "pitch": 57, "duration": 2, "velocity": 104}, {"time": 3731, "pitch": 62, "duration": 3, "velocity": 115}, {"time": 3734, "pitch": 61, "duration": 3, "velocity": 120}, {"time": 3737, "pitch": 59, "duration": 4, "velocity": 101}, {"time": 3743, "pitch": 57, "duration": 5, "velocity": 112}, {"time": 3749, "pitch": 64, "duration": 6, "velocity": 101}, {"time": 3755, "pitch": 61, "duration": 7, "velocity": 101}, {"time": 3761, "pitch": 64, "duration": 6, "velocity": 99}, {"time": 3767, "pitch": 57, "duration": 6, "velocity": 94}, {"time": 3773, "pitch": 64, "duration": 6, "velocity": 101}, {"time": 3779, "pitch": 61, "duration": 7, "velocity": 96}, {"time": 3785, "pitch": 64, "duration": 6, "velocity": 101}, {"time": 3791, "pitch": 57, "duration": 6, "velocity": 99}, {"time": 3797, "pitch": 66, "duration": 6, "velocity": 104}, {"time": 3803, "pitch": 62, "duration": 8, "velocity": 89}, {"time": 3809, "pitch": 66, "duration": 4, "velocity": 96}, {"time": 3815, "pitch": 57, "duration": 6, "velocity": 101}, {"time": 3821, "pitch": 64, "duration": 6, "velocity": 101}, {"time": 3827, "pitch": 61, "duration": 6, "velocity": 96}, {"time": 3833, "pitch": 64, "duration": 5, "velocity": 99}, {"time": 3839, "pitch": 56, "duration": 6, "velocity": 113}, {"time": 3845, "pitch": 64, "duration": 5, "velocity": 109}, {"time": 3851, "pitch": 62, "duration": 6, "velocity": 99}, {"time": 3857, "pitch": 64, "duration": 5, "velocity": 106}, {"time": 3863, "pitch": 57, "duration": 6, "velocity": 94}, {"time": 3869, "pitch": 64, "duration": 5, "velocity": 104}, {"time": 3875, "pitch": 61, "duration": 6, "velocity": 96}, {"time": 3881, "pitch": 64, "duration": 4, "velocity": 96}, {"time": 3887, "pitch": 52, "duration": 7, "velocity": 101}, {"time": 3893, "pitch": 64, "duration": 6, "velocity": 109}, {"time": 3899, "pitch": 59, "duration": 6, "velocity": 104}, {"time": 3905, "pitch": 64, "duration": 4, "velocity": 106}, {"time": 3911, "pitch": 57, "duration": 8, "velocity": 91}, {"time": 3917, "pitch": 64, "duration": 6, "velocity": 94}, {"time": 3923, "pitch": 61, "duration": 7, "velocity": 74}, {"time": 3929, "pitch": 64, "duration": 6, "velocity": 96}, {"time": 3935, "pitch": 57, "duration": 9, "velocity": 94}, {"time": 3941, "pitch": 64, "duration": 7, "velocity": 52}, {"time": 3947, "pitch": 61, "duration": 19, "velocity": 50}, {"time": 3953, "pitch": 64, "duration": 6, "velocity": 85}, {"time": 3959, "pitch": 57, "duration": 7, "velocity": 61}, {"time": 3965, "pitch": 64, "duration": 7, "velocity": 82}, {"time": 3971, "pitch": 61, "duration": 18, "velocity": 79}, {"time": 3977, "pitch": 64, "duration": 7, "velocity": 74}, {"time": 3983, "pitch": 57, "duration": 20, "velocity": 71}, {"time": 3989, "pitch": 64, "duration": 7, "velocity": 76}, {"time": 3995, "pitch": 61, "duration": 48, "velocity": 74}, {"time": 4001, "pitch": 64, "duration": 42, "velocity": 87}, {"time": 4007, "pitch": 45, "duration": 35, "velocity": 52}, {"time": 4007, "pitch": 57, "duration": 35, "velocity": 76}], "annotations": [{"time": 284, "annotation": {"number": 64, "value": 127}, "group": "control_change"}, {"time": 321, "annotation": {"number": 64, "value": 0}, "group": "control_change"}, {"time": 328, "annotation": {"number": 64, "value": 127}, "group": "control_change"}, {"time": 356, "annotation": {"number": 64, "value": 0}, "group": "control_change"}, {"time": 359, "annotation": {"number": 64, "value": 127}, "group": "control_change"}, {"time": 368, "annotation": {"number": 64, "value": 0}, "group": "control_change"}, {"time": 375, "annotation": {"number": 64, "value": 127}, "group": "control_change"}, {"time": 416, "annotation": {"number": 64, "value": 0}, "group": "control_change"}, {"time": 424, "annotation": {"number": 64, "value": 127}, "group": "control_change"}, {"time": 464, "annotation": {"number": 64, "value": 0}, "group": "control_change"}, {"time": 471, "annotation": {"number": 64, "value": 127}, "group": "control_change"}, {"time": 514, "annotation": {"number": 64, "value": 0}, "group": "control_change"}, {"time": 521, "annotation": {"number": 64, "value": 127}, "group": "control_change"}, {"time": 564, "annotation": {"number": 64, "value": 127}, "group": "control_change"}, {"time": 614, "annotation": {"number": 64, "value": 0}, "group": "control_change"}, {"time": 618, "annotation": {"number": 64, "value": 127}, "group": "control_change"}, {"time": 633, "annotation": {"number": 64, "value": 0}, "group": "control_change"}, {"time": 636, "annotation": {"number": 64, "value": 127}, "group": "control_change"}, {"time": 661, "annotation": {"number": 64, "value": 127}, "group": "control_change"}, {"time": 682, "annotation": {"number": 64, "value": 0}, "group": "control_change"}, {"time": 686, "annotation": {"number": 64, "value": 127}, "group": "control_change"}, {"time": 706, "annotation": {"number": 64, "value": 0}, "group": "control_change"}, {"time": 710, "annotation": {"number": 64, "value": 127}, "group": "control_change"}, {"time": 729, "annotation": {"number": 64, "value": 0}, "group": "control_change"}, {"time": 738, "annotation": {"number": 64, "value": 127}, "group": "control_change"}, {"time": 753, "annotation": {"number": 64, "value": 0}, "group": "control_change"}, {"time": 761, "annotation": {"number": 64, "value": 127}, "group": "control_change"}, {"time": 777, "annotation": {"number": 64, "value": 0}, "group": "control_change"}, {"time": 791, "annotation": {"number": 64, "value": 127}, "group": "control_change"}, {"time": 801, "annotation": {"number": 64, "value": 0}, "group": "control_change"}, {"time": 810, "annotation": {"number": 64, "value": 127}, "group": "control_change"}, {"time": 827, "annotation": {"number": 64, "value": 0}, "group": "control_change"}, {"time": 833, "annotation": {"number": 64, "value": 127}, "group": "control_change"}, {"time": 849, "annotation": {"number": 64, "value": 0}, "group": "control_change"}, {"time": 854, "annotation": {"number": 64, "value": 127}, "group": "control_change"}, {"time": 874, "annotation": {"number": 64, "value": 0}, "group": "control_change"}, {"time": 879, "annotation": {"number": 64, "value": 127}, "group": "control_change"}, {"time": 897, "annotation": {"number": 64, "value": 0}, "group": "control_change"}, {"time": 901, "annotation": {"number": 64, "value": 127}, "group": "control_change"}, {"time": 923, "annotation": {"number": 64, "value": 0}, "group": "control_change"}, {"time": 928, "annotation": {"number": 64, "value": 127}, "group": "control_change"}, {"time": 946, "annotation": {"number": 64, "value": 0}, "group": "control_change"}, {"time": 953, "annotation": {"number": 64, "value": 127}, "group": "control_change"}, {"time": 970, "annotation": {"number": 64, "value": 0}, "group": "control_change"}, {"time": 976, "annotation": {"number": 64, "value": 127}, "group": "control_change"}, {"time": 994, "annotation": {"number": 64, "value": 0}, "group": "control_change"}, {"time": 1001, "annotation": {"number": 64, "value": 127}, "group": "control_change"}, {"time": 1020, "annotation": {"number": 64, "value": 0}, "group": "control_change"}, {"time": 1023, "annotation": {"number": 64, "value": 127}, "group": "control_change"}, {"time": 1039, "annotation": {"number": 64, "value": 0}, "group": "control_change"}, {"time": 1043, "annotation": {"number": 64, "value": 127}, "group": "control_change"}, {"time": 1065, "annotation": {"number": 64, "value": 0}, "group": "control_change"}, {"time": 1068, "annotation": {"number": 64, "value": 127}, "group": "control_change"}, {"time": 1089, "annotation": {"number": 64, "value": 0}, "group": "control_change"}, {"time": 1092, "annotation": {"number": 64, "value": 127}, "group": "control_change"}, {"time": 1114, "annotation": {"number": 64, "value": 0}, "group": "control_change"}, {"time": 1117, "annotation": {"number": 64, "value": 127}, "group": "control_change"}, {"time": 1137, "annotation": {"number": 64, "value": 0}, "group": "control_change"}, {"time": 1140, "annotation": {"number": 64, "value": 127}, "group": "control_change"}, {"time": 1162, "annotation": {"number": 64, "value": 0}, "group": "control_change"}, {"time": 1165, "annotation": {"number": 64, "value": 127}, "group": "control_change"}, {"time": 1185, "annotation": {"number": 64, "value": 0}, "group": "control_change"}, {"time": 1189, "annotation": {"number": 64, "value": 127}, "group": "control_change"}, {"time": 1210, "annotation": {"number": 64, "value": 0}, "group": "control_change"}, {"time": 1213, "annotation": {"number": 64, "value": 127}, "group": "control_change"}, {"time": 1234, "annotation": {"number": 64, "value": 0}, "group": "control_change"}, {"time": 1235, "annotation": {"number": 64, "value": 127}, "group": "control_change"}, {"time": 1257, "annotation": {"number": 64, "value": 0}, "group": "control_change"}, {"time": 1260, "annotation": {"number": 64, "value": 127}, "group": "control_change"}, {"time": 1281, "annotation": {"number": 64, "value": 0}, "group": "control_change"}, {"time": 1284, "annotation": {"number": 64, "value": 127}, "group": "control_change"}, {"time": 1306, "annotation": {"number": 64, "value": 0}, "group": "control_change"}, {"time": 1309, "annotation": {"number": 64, "value": 127}, "group": "control_change"}, {"time": 1329, "annotation": {"number": 64, "value": 0}, "group": "control_change"}, {"time": 1332, "annotation": {"number": 64, "value": 127}, "group": "control_change"}, {"time": 1354, "annotation": {"number": 64, "value": 0}, "group": "control_change"}, {"time": 1357, "annotation": {"number": 64, "value": 127}, "group": "control_change"}, {"time": 1377, "annotation": {"number": 64, "value": 0}, "group": "control_change"}, {"time": 1380, "annotation": {"number": 64, "value": 127}, "group": "control_change"}, {"time": 1406, "annotation": {"number": 64, "value": 0}, "group": "control_change"}, {"time": 1407, "annotation": {"number": 64, "value": 127}, "group": "control_change"}, {"time": 1426, "annotation": {"number": 64, "value": 0}, "group": "control_change"}, {"time": 1432, "annotation": {"number": 64, "value": 127}, "group": "control_change"}, {"time": 1449, "annotation": {"number": 64, "value": 0}, "group": "control_change"}, {"time": 1453, "annotation": {"number": 64, "value": 127}, "group": "control_change"}, {"time": 1473, "annotation": {"number": 64, "value": 0}, "group": "control_change"}, {"time": 1479, "annotation": {"number": 64, "value": 127}, "group": "control_change"}, {"time": 1522, "annotation": {"number": 64, "value": 0}, "group": "control_change"}, {"time": 1529, "annotation": {"number": 64, "value": 127}, "group": "control_change"}, {"time": 1572, "annotation": {"number": 64, "value": 127}, "group": "control_change"}, {"time": 1622, "annotation": {"number": 64, "value": 0}, "group": "control_change"}, {"time": 1626, "annotation": {"number": 64, "value": 127}, "group": "control_change"}, {"time": 1641, "annotation": {"number": 64, "value": 0}, "group": "control_change"}, {"time": 1644, "annotation": {"number": 64, "value": 127}, "group": "control_change"}, {"time": 1669, "annotation": {"number": 64, "value": 127}, "group": "control_change"}, {"time": 1690, "annotation": {"number": 64, "value": 0}, "group": "control_change"}, {"time": 1694, "annotation": {"number": 64, "value": 127}, "group": "control_change"}, {"time": 1714, "annotation": {"number": 64, "value": 0}, "group": "control_change"}, {"time": 1718, "annotation": {"number": 64, "value": 127}, "group": "control_change"}, {"time": 1737, "annotation": {"number": 64, "value": 0}, "group": "control_change"}, {"time": 1746, "annotation": {"number": 64, "value": 127}, "group": "control_change"}, {"time": 1761, "annotation": {"number": 64, "value": 0}, "group": "control_change"}, {"time": 1769, "annotation": {"number": 64, "value": 127}, "group": "control_change"}, {"time": 1785, "annotation": {"number": 64, "value": 0}, "group": "control_change"}, {"time": 1799, "annotation": {"number": 64, "value": 127}, "group": "control_change"}, {"time": 1809, "annotation": {"number": 64, "value": 0}, "group": "control_change"}, {"time": 1818, "annotation": {"number": 64, "value": 127}, "group": "control_change"}, {"time": 1835, "annotation": {"number": 64, "value": 0}, "group": "control_change"}, {"time": 1841, "annotation": {"number": 64, "value": 127}, "group": "control_change"}, {"time": 1857, "annotation": {"number": 64, "value": 0}, "group": "control_change"}, {"time": 1862, "annotation": {"number": 64, "value": 127}, "group": "control_change"}, {"time": 1882, "annotation": {"number": 64, "value": 0}, "group": "control_change"}, {"time": 1887, "annotation": {"number": 64, "value": 127}, "group": "control_change"}, {"time": 1905, "annotation": {"number": 64, "value": 0}, "group": "control_change"}, {"time": 1909, "annotation": {"number": 64, "value": 127}, "group": "control_change"}, {"time": 1931, "annotation": {"number": 64, "value": 0}, "group": "control_change"}, {"time": 1936, "annotation": {"number": 64, "value": 127}, "group": "control_change"}, {"time": 1954, "annotation": {"number": 64, "value": 0}, "group": "control_change"}, {"time": 1961, "annotation": {"number": 64, "value": 127}, "group": "control_change"}, {"time": 1978, "annotation": {"number": 64, "value": 0}, "group": "control_change"}, {"time": 1984, "annotation": {"number": 64, "value": 127}, "group": "control_change"}, {"time": 2002, "annotation": {"number": 64, "value": 0}, "group": "control_change"}, {"time": 2009, "annotation": {"number": 64, "value": 127}, "group": "control_change"}, {"time": 2028, "annotation": {"number": 64, "value": 0}, "group": "control_change"}, {"time": 2031, "annotation": {"number": 64, "value": 127}, "group": "control_change"}, {"time": 2047, "annotation": {"number": 64, "value": 0}, "group": "control_change"}, {"time": 2051, "annotation": {"number": 64, "value": 127}, "group": "control_change"}, {"time": 2073, "annotation": {"number": 64, "value": 0}, "group": "control_change"}, {"time": 2076, "annotation": {"number": 64, "value": 127}, "group": "control_change"}, {"time": 2097, "annotation": {"number": 64, "value": 0}, "group": "control_change"}, {"time": 2100, "annotation": {"number": 64, "value": 127}, "group": "control_change"}, {"time": 2122, "annotation": {"number": 64, "value": 0}, "group": "control_change"}, {"time": 2125, "annotation": {"number": 64, "value": 127}, "group": "control_change"}, {"time": 2145, "annotation": {"number": 64, "value": 0}, "group": "control_change"}, {"time": 2148, "annotation": {"number": 64, "value": 127}, "group": "control_change"}, {"time": 2170, "annotation": {"number": 64, "value": 0}, "group": "control_change"}, {"time": 2173, "annotation": {"number": 64, "value": 127}, "group": "control_change"}, {"time": 2193, "annotation": {"number": 64, "value": 0}, "group": "control_change"}, {"time": 2197, "annotation": {"number": 64, "value": 127}, "group": "control_change"}, {"time": 2218, "annotation": {"number": 64, "value": 0}, "group": "control_change"}, {"time": 2221, "annotation": {"number": 64, "value": 127}, "group": "control_change"}, {"time": 2242, "annotation": {"number": 64, "value": 0}, "group": "control_change"}, {"time": 2243, "annotation": {"number": 64, "value": 127}, "group": "control_change"}, {"time": 2265, "annotation": {"number": 64, "value": 0}, "group": "control_change"}, {"time": 2268, "annotation": {"number": 64, "value": 127}, "group": "control_change"}, {"time": 2289, "annotation": {"number": 64, "value": 0}, "group": "control_change"}, {"time": 2292, "annotation": {"number": 64, "value": 127}, "group": "control_change"}, {"time": 2314, "annotation": {"number": 64, "value": 0}, "group": "control_change"}, {"time": 2317, "annotation": {"number": 64, "value": 127}, "group": "control_change"}, {"time": 2337, "annotation": {"number": 64, "value": 0}, "group": "control_change"}, {"time": 2340, "annotation": {"number": 64, "value": 127}, "group": "control_change"}, {"time": 2362, "annotation": {"number": 64, "value": 0}, "group": "control_change"}, {"time": 2365, "annotation": {"number": 64, "value": 127}, "group": "control_change"}, {"time": 2385, "annotation": {"number": 64, "value": 0}, "group": "control_change"}, {"time": 2388, "annotation": {"number": 64, "value": 127}, "group": "control_change"}, {"time": 2414, "annotation": {"number": 64, "value": 0}, "group": "control_change"}, {"time": 2415, "annotation": {"number": 64, "value": 127}, "group": "control_change"}, {"time": 2434, "annotation": {"number": 64, "value": 0}, "group": "control_change"}, {"time": 2440, "annotation": {"number": 64, "value": 127}, "group": "control_change"}, {"time": 2457, "annotation": {"number": 64, "value": 0}, "group": "control_change"}, {"time": 2461, "annotation": {"number": 64, "value": 127}, "group": "control_change"}, {"time": 2481, "annotation": {"number": 64, "value": 0}, "group": "control_change"}, {"time": 2903, "annotation": {"number": 64, "value": 127}, "group": "control_change"}, {"time": 2913, "annotation": {"number": 64, "value": 0}, "group": "control_change"}, {"time": 2916, "annotation": {"number": 64, "value": 127}, "group": "control_change"}, {"time": 2923, "annotation": {"number": 64, "value": 0}, "group": "control_change"}, {"time": 2927, "annotation": {"number": 64, "value": 127}, "group": "control_change"}, {"time": 2949, "annotation": {"number": 64, "value": 0}, "group": "control_change"}, {"time": 2952, "annotation": {"number": 64, "value": 127}, "group": "control_change"}, {"time": 2973, "annotation": {"number": 64, "value": 0}, "group": "control_change"}, {"time": 2976, "annotation": {"number": 64, "value": 127}, "group": "control_change"}, {"time": 2998, "annotation": {"number": 64, "value": 0}, "group": "control_change"}, {"time": 3001, "annotation": {"number": 64, "value": 127}, "group": "control_change"}, {"time": 3021, "annotation": {"number": 64, "value": 0}, "group": "control_change"}, {"time": 3024, "annotation": {"number": 64, "value": 127}, "group": "control_change"}, {"time": 3046, "annotation": {"number": 64, "value": 0}, "group": "control_change"}, {"time": 3049, "annotation": {"number": 64, "value": 127}, "group": "control_change"}, {"time": 3069, "annotation": {"number": 64, "value": 0}, "group": "control_change"}, {"time": 3073, "annotation": {"number": 64, "value": 127}, "group": "control_change"}, {"time": 3094, "annotation": {"number": 64, "value": 0}, "group": "control_change"}, {"time": 3097, "annotation": {"number": 64, "value": 127}, "group": "control_change"}, {"time": 3118, "annotation": {"number": 64, "value": 0}, "group": "control_change"}, {"time": 3119, "annotation": {"number": 64, "value": 127}, "group": "control_change"}, {"time": 3141, "annotation": {"number": 64, "value": 0}, "group": "control_change"}, {"time": 3144, "annotation": {"number": 64, "value": 127}, "group": "control_change"}, {"time": 3165, "annotation": {"number": 64, "value": 0}, "group": "control_change"}, {"time": 3168, "annotation": {"number": 64, "value": 127}, "group": "control_change"}, {"time": 3190, "annotation": {"number": 64, "value": 0}, "group": "control_change"}, {"time": 3193, "annotation": {"number": 64, "value": 127}, "group": "control_change"}, {"time": 3213, "annotation": {"number": 64, "value": 0}, "group": "control_change"}, {"time": 3216, "annotation": {"number": 64, "value": 127}, "group": "control_change"}, {"time": 3238, "annotation": {"number": 64, "value": 0}, "group": "control_change"}, {"time": 3241, "annotation": {"number": 64, "value": 127}, "group": "control_change"}, {"time": 3261, "annotation": {"number": 64, "value": 0}, "group": "control_change"}, {"time": 3264, "annotation": {"number": 64, "value": 127}, "group": "control_change"}, {"time": 3290, "annotation": {"number": 64, "value": 0}, "group": "control_change"}, {"time": 3291, "annotation": {"number": 64, "value": 127}, "group": "control_change"}, {"time": 3310, "annotation": {"number": 64, "value": 0}, "group": "control_change"}, {"time": 3316, "annotation": {"number": 64, "value": 127}, "group": "control_change"}, {"time": 3333, "annotation": {"number": 64, "value": 0}, "group": "control_change"}, {"time": 3337, "annotation": {"number": 64, "value": 127}, "group": "control_change"}, {"time": 3357, "annotation": {"number": 64, "value": 0}, "group": "control_change"}, {"time": 3361, "annotation": {"number": 64, "value": 127}, "group": "control_change"}, {"time": 3405, "annotation": {"number": 64, "value": 0}, "group": "control_change"}, {"time": 3409, "annotation": {"number": 64, "value": 127}, "group": "control_change"}, {"time": 3431, "annotation": {"number": 64, "value": 0}, "group": "control_change"}, {"time": 3433, "annotation": {"number": 64, "value": 127}, "group": "control_change"}, {"time": 3452, "annotation": {"number": 64, "value": 0}, "group": "control_change"}, {"time": 3456, "annotation": {"number": 64, "value": 127}, "group": "control_change"}, {"time": 3477, "annotation": {"number": 64, "value": 0}, "group": "control_change"}, {"time": 3479, "annotation": {"number": 64, "value": 127}, "group": "control_change"}, {"time": 3500, "annotation": {"number": 64, "value": 0}, "group": "control_change"}, {"time": 3503, "annotation": {"number": 64, "value": 127}, "group": "control_change"}, {"time": 3550, "annotation": {"number": 64, "value": 0}, "group": "control_change"}, {"time": 3553, "annotation": {"number": 64, "value": 127}, "group": "control_change"}, {"time": 3597, "annotation": {"number": 64, "value": 0}, "group": "control_change"}, {"time": 3601, "annotation": {"number": 64, "value": 127}, "group": "control_change"}, {"time": 3623, "annotation": {"number": 64, "value": 0}, "group": "control_change"}, {"time": 3625, "annotation": {"number": 64, "value": 127}, "group": "control_change"}, {"time": 3644, "annotation": {"number": 64, "value": 0}, "group": "control_change"}, {"time": 3648, "annotation": {"number": 64, "value": 127}, "group": "control_change"}, {"time": 3669, "annotation": {"number": 64, "value": 0}, "group": "control_change"}, {"time": 3671, "annotation": {"number": 64, "value": 127}, "group": "control_change"}, {"time": 3692, "annotation": {"number": 64, "value": 0}, "group": "control_change"}, {"time": 3695, "annotation": {"number": 64, "value": 127}, "group": "control_change"}, {"time": 3742, "annotation": {"number": 64, "value": 0}, "group": "control_change"}]}]}