{"metadata": {"schema_version": "0.2", "title": "None", "source_filename": "081.mid", "source_format": "midi"}, "resolution": 12, "tempos": [{"time": 0, "qpm": 60.0}, {"time": 780, "qpm": 51.00002550001275}, {"time": 804, "qpm": 60.0}, {"time": 2586, "qpm": 56.000029866682596}, {"time": 2623, "qpm": 54.00000540000054}, {"time": 2628, "qpm": 53.000022083342536}], "time_signatures": [{"time": 0, "numerator": 1, "denominator": 4}], "tracks": [{"program": 0, "is_drum": false, "name": "MELODY", "notes": [{"time": 401, "pitch": 76, "duration": 3, "velocity": 94}, {"time": 404, "pitch": 78, "duration": 3, "velocity": 110}, {"time": 407, "pitch": 76, "duration": 3, "velocity": 104}, {"time": 410, "pitch": 74, "duration": 3, "velocity": 109}, {"time": 413, "pitch": 71, "duration": 6, "velocity": 106}, {"time": 419, "pitch": 74, "duration": 3, "velocity": 94}, {"time": 422, "pitch": 74, "duration": 27, "velocity": 101}, {"time": 449, "pitch": 71, "duration": 3, "velocity": 101}, {"time": 452, "pitch": 74, "duration": 3, "velocity": 101}, {"time": 455, "pitch": 74, "duration": 3, "velocity": 106}, {"time": 458, "pitch": 76, "duration": 3, "velocity": 104}, {"time": 461, "pitch": 74, "duration": 6, "velocity": 112}, {"time": 467, "pitch": 71, "duration": 3, "velocity": 109}, {"time": 470, "pitch": 69, "duration": 27, "velocity": 99}, {"time": 497, "pitch": 69, "duration": 3, "velocity": 112}, {"time": 500, "pitch": 71, "duration": 3, "velocity": 106}, {"time": 503, "pitch": 69, "duration": 3, "velocity": 109}, {"time": 506, "pitch": 67, "duration": 3, "velocity": 109}, {"time": 509, "pitch": 69, "duration": 3, "velocity": 104}, {"time": 512, "pitch": 64, "duration": 3, "velocity": 104}, {"time": 515, "pitch": 67, "duration": 15, "velocity": 109}, {"time": 530, "pitch": 67, "duration": 3, "velocity": 109}, {"time": 533, "pitch": 69, "duration": 3, "velocity": 109}, {"time": 536, "pitch": 64, "duration": 3, "velocity": 109}, {"time": 539, "pitch": 67, "duration": 12, "velocity": 94}, {"time": 551, "pitch": 67, "duration": 3, "velocity": 104}, {"time": 554, "pitch": 67, "duration": 3, "velocity": 104}, {"time": 557, "pitch": 67, "duration": 3, "velocity": 109}, {"time": 560, "pitch": 67, "duration": 3, "velocity": 109}, {"time": 563, "pitch": 67, "duration": 3, "velocity": 104}, {"time": 566, "pitch": 67, "duration": 3, "velocity": 106}, {"time": 569, "pitch": 74, "duration": 6, "velocity": 112}, {"time": 575, "pitch": 76, "duration": 4, "velocity": 106}, {"time": 579, "pitch": 69, "duration": 5, "velocity": 94}, {"time": 584, "pitch": 71, "duration": 3, "velocity": 80}, {"time": 586, "pitch": 69, "duration": 7, "velocity": 84}, {"time": 593, "pitch": 76, "duration": 3, "velocity": 94}, {"time": 596, "pitch": 76, "duration": 3, "velocity": 110}, {"time": 599, "pitch": 76, "duration": 3, "velocity": 104}, {"time": 602, "pitch": 71, "duration": 3, "velocity": 109}, {"time": 605, "pitch": 76, "duration": 6, "velocity": 106}, {"time": 611, "pitch": 71, "duration": 3, "velocity": 94}, {"time": 614, "pitch": 74, "duration": 27, "velocity": 101}, {"time": 641, "pitch": 71, "duration": 3, "velocity": 101}, {"time": 644, "pitch": 71, "duration": 3, "velocity": 101}, {"time": 647, "pitch": 74, "duration": 3, "velocity": 106}, {"time": 650, "pitch": 71, "duration": 3, "velocity": 104}, {"time": 653, "pitch": 74, "duration": 3, "velocity": 107}, {"time": 656, "pitch": 74, "duration": 3, "velocity": 99}, {"time": 659, "pitch": 76, "duration": 4, "velocity": 93}, {"time": 662, "pitch": 69, "duration": 27, "velocity": 99}, {"time": 689, "pitch": 74, "duration": 3, "velocity": 109}, {"time": 692, "pitch": 74, "duration": 3, "velocity": 109}, {"time": 695, "pitch": 76, "duration": 3, "velocity": 106}, {"time": 698, "pitch": 74, "duration": 3, "velocity": 115}, {"time": 701, "pitch": 79, "duration": 6, "velocity": 115}, {"time": 707, "pitch": 76, "duration": 6, "velocity": 112}, {"time": 713, "pitch": 74, "duration": 3, "velocity": 112}, {"time": 716, "pitch": 74, "duration": 3, "velocity": 109}, {"time": 719, "pitch": 76, "duration": 3, "velocity": 109}, {"time": 722, "pitch": 74, "duration": 3, "velocity": 115}, {"time": 725, "pitch": 79, "duration": 6, "velocity": 112}, {"time": 731, "pitch": 76, "duration": 9, "velocity": 112}, {"time": 740, "pitch": 74, "duration": 3, "velocity": 112}, {"time": 743, "pitch": 76, "duration": 3, "velocity": 101}, {"time": 746, "pitch": 74, "duration": 3, "velocity": 115}, {"time": 749, "pitch": 79, "duration": 3, "velocity": 115}, {"time": 752, "pitch": 76, "duration": 3, "velocity": 106}, {"time": 755, "pitch": 79, "duration": 3, "velocity": 112}, {"time": 758, "pitch": 76, "duration": 3, "velocity": 104}, {"time": 761, "pitch": 79, "duration": 6, "velocity": 115}, {"time": 767, "pitch": 79, "duration": 3, "velocity": 112}, {"time": 770, "pitch": 81, "duration": 6, "velocity": 115}, {"time": 776, "pitch": 83, "duration": 3, "velocity": 115}, {"time": 779, "pitch": 81, "duration": 3, "velocity": 112}, {"time": 782, "pitch": 74, "duration": 9, "velocity": 115}, {"time": 791, "pitch": 74, "duration": 3, "velocity": 115}, {"time": 794, "pitch": 76, "duration": 3, "velocity": 109}, {"time": 797, "pitch": 83, "duration": 3, "velocity": 115}, {"time": 800, "pitch": 81, "duration": 3, "velocity": 112}, {"time": 803, "pitch": 83, "duration": 3, "velocity": 115}, {"time": 806, "pitch": 81, "duration": 3, "velocity": 115}, {"time": 809, "pitch": 83, "duration": 6, "velocity": 118}, {"time": 815, "pitch": 86, "duration": 3, "velocity": 109}, {"time": 818, "pitch": 81, "duration": 6, "velocity": 112}, {"time": 824, "pitch": 81, "duration": 3, "velocity": 109}, {"time": 827, "pitch": 81, "duration": 3, "velocity": 112}, {"time": 830, "pitch": 81, "duration": 3, "velocity": 115}, {"time": 833, "pitch": 83, "duration": 12, "velocity": 115}, {"time": 845, "pitch": 86, "duration": 6, "velocity": 109}, {"time": 851, "pitch": 79, "duration": 36, "velocity": 109}, {"time": 887, "pitch": 79, "duration": 3, "velocity": 109}, {"time": 890, "pitch": 81, "duration": 3, "velocity": 112}, {"time": 893, "pitch": 83, "duration": 3, "velocity": 115}, {"time": 896, "pitch": 81, "duration": 3, "velocity": 115}, {"time": 899, "pitch": 83, "duration": 3, "velocity": 112}, {"time": 902, "pitch": 81, "duration": 3, "velocity": 115}, {"time": 905, "pitch": 83, "duration": 6, "velocity": 115}, {"time": 911, "pitch": 83, "duration": 3, "velocity": 112}, {"time": 914, "pitch": 83, "duration": 3, "velocity": 112}, {"time": 917, "pitch": 81, "duration": 3, "velocity": 118}, {"time": 920, "pitch": 81, "duration": 3, "velocity": 109}, {"time": 923, "pitch": 81, "duration": 3, "velocity": 112}, {"time": 926, "pitch": 81, "duration": 3, "velocity": 115}, {"time": 929, "pitch": 88, "duration": 6, "velocity": 115}, {"time": 935, "pitch": 86, "duration": 6, "velocity": 115}, {"time": 941, "pitch": 81, "duration": 6, "velocity": 106}, {"time": 947, "pitch": 79, "duration": 15, "velocity": 112}, {"time": 962, "pitch": 79, "duration": 3, "velocity": 109}, {"time": 965, "pitch": 78, "duration": 6, "velocity": 113}, {"time": 971, "pitch": 79, "duration": 3, "velocity": 109}, {"time": 974, "pitch": 78, "duration": 6, "velocity": 117}, {"time": 980, "pitch": 79, "duration": 9, "velocity": 117}, {"time": 989, "pitch": 76, "duration": 36, "velocity": 106}, {"time": 1025, "pitch": 83, "duration": 3, "velocity": 109}, {"time": 1028, "pitch": 81, "duration": 3, "velocity": 118}, {"time": 1031, "pitch": 79, "duration": 3, "velocity": 115}, {"time": 1034, "pitch": 81, "duration": 3, "velocity": 115}, {"time": 1037, "pitch": 83, "duration": 3, "velocity": 112}, {"time": 1040, "pitch": 81, "duration": 3, "velocity": 115}, {"time": 1043, "pitch": 83, "duration": 3, "velocity": 112}, {"time": 1046, "pitch": 81, "duration": 3, "velocity": 115}, {"time": 1049, "pitch": 83, "duration": 6, "velocity": 115}, {"time": 1055, "pitch": 86, "duration": 3, "velocity": 109}, {"time": 1058, "pitch": 81, "duration": 6, "velocity": 112}, {"time": 1064, "pitch": 81, "duration": 3, "velocity": 112}, {"time": 1067, "pitch": 81, "duration": 3, "velocity": 115}, {"time": 1070, "pitch": 81, "duration": 3, "velocity": 112}, {"time": 1073, "pitch": 83, "duration": 12, "velocity": 118}, {"time": 1085, "pitch": 86, "duration": 6, "velocity": 115}, {"time": 1091, "pitch": 79, "duration": 36, "velocity": 109}, {"time": 1127, "pitch": 79, "duration": 3, "velocity": 112}, {"time": 1130, "pitch": 81, "duration": 3, "velocity": 112}, {"time": 1133, "pitch": 83, "duration": 3, "velocity": 112}, {"time": 1136, "pitch": 81, "duration": 3, "velocity": 112}, {"time": 1139, "pitch": 83, "duration": 3, "velocity": 115}, {"time": 1142, "pitch": 81, "duration": 3, "velocity": 112}, {"time": 1145, "pitch": 83, "duration": 3, "velocity": 115}, {"time": 1148, "pitch": 86, "duration": 6, "velocity": 112}, {"time": 1154, "pitch": 79, "duration": 3, "velocity": 109}, {"time": 1157, "pitch": 81, "duration": 3, "velocity": 112}, {"time": 1160, "pitch": 81, "duration": 3, "velocity": 112}, {"time": 1163, "pitch": 81, "duration": 3, "velocity": 115}, {"time": 1166, "pitch": 81, "duration": 3, "velocity": 106}, {"time": 1169, "pitch": 88, "duration": 6, "velocity": 112}, {"time": 1175, "pitch": 86, "duration": 6, "velocity": 112}, {"time": 1181, "pitch": 78, "duration": 6, "velocity": 117}, {"time": 1187, "pitch": 79, "duration": 15, "velocity": 106}, {"time": 1202, "pitch": 79, "duration": 3, "velocity": 112}, {"time": 1205, "pitch": 78, "duration": 6, "velocity": 117}, {"time": 1211, "pitch": 78, "duration": 3, "velocity": 113}, {"time": 1214, "pitch": 79, "duration": 9, "velocity": 112}, {"time": 1223, "pitch": 78, "duration": 6, "velocity": 120}, {"time": 1229, "pitch": 74, "duration": 6, "velocity": 109}, {"time": 1235, "pitch": 76, "duration": 12, "velocity": 106}, {"time": 1247, "pitch": 83, "duration": 7, "velocity": 96}, {"time": 1253, "pitch": 81, "duration": 90, "velocity": 106}, {"time": 1625, "pitch": 76, "duration": 3, "velocity": 94}, {"time": 1628, "pitch": 78, "duration": 3, "velocity": 110}, {"time": 1631, "pitch": 76, "duration": 3, "velocity": 104}, {"time": 1634, "pitch": 74, "duration": 3, "velocity": 109}, {"time": 1637, "pitch": 71, "duration": 6, "velocity": 106}, {"time": 1643, "pitch": 74, "duration": 3, "velocity": 94}, {"time": 1646, "pitch": 74, "duration": 27, "velocity": 101}, {"time": 1673, "pitch": 71, "duration": 3, "velocity": 101}, {"time": 1676, "pitch": 74, "duration": 3, "velocity": 101}, {"time": 1679, "pitch": 74, "duration": 3, "velocity": 106}, {"time": 1682, "pitch": 76, "duration": 3, "velocity": 104}, {"time": 1685, "pitch": 74, "duration": 6, "velocity": 112}, {"time": 1691, "pitch": 71, "duration": 3, "velocity": 109}, {"time": 1694, "pitch": 69, "duration": 27, "velocity": 99}, {"time": 1721, "pitch": 69, "duration": 3, "velocity": 112}, {"time": 1724, "pitch": 71, "duration": 3, "velocity": 106}, {"time": 1727, "pitch": 69, "duration": 3, "velocity": 109}, {"time": 1730, "pitch": 67, "duration": 3, "velocity": 109}, {"time": 1733, "pitch": 69, "duration": 3, "velocity": 104}, {"time": 1736, "pitch": 64, "duration": 3, "velocity": 104}, {"time": 1739, "pitch": 67, "duration": 15, "velocity": 109}, {"time": 1754, "pitch": 67, "duration": 3, "velocity": 109}, {"time": 1757, "pitch": 69, "duration": 3, "velocity": 109}, {"time": 1760, "pitch": 64, "duration": 3, "velocity": 109}, {"time": 1763, "pitch": 67, "duration": 12, "velocity": 94}, {"time": 1775, "pitch": 67, "duration": 3, "velocity": 104}, {"time": 1778, "pitch": 67, "duration": 3, "velocity": 104}, {"time": 1781, "pitch": 67, "duration": 3, "velocity": 109}, {"time": 1784, "pitch": 67, "duration": 3, "velocity": 109}, {"time": 1787, "pitch": 67, "duration": 3, "velocity": 104}, {"time": 1790, "pitch": 67, "duration": 3, "velocity": 106}, {"time": 1793, "pitch": 74, "duration": 6, "velocity": 112}, {"time": 1799, "pitch": 76, "duration": 6, "velocity": 106}, {"time": 1805, "pitch": 69, "duration": 3, "velocity": 94}, {"time": 1808, "pitch": 71, "duration": 3, "velocity": 78}, {"time": 1811, "pitch": 69, "duration": 6, "velocity": 84}, {"time": 1817, "pitch": 76, "duration": 3, "velocity": 94}, {"time": 1820, "pitch": 78, "duration": 3, "velocity": 110}, {"time": 1823, "pitch": 76, "duration": 3, "velocity": 104}, {"time": 1826, "pitch": 71, "duration": 3, "velocity": 109}, {"time": 1829, "pitch": 76, "duration": 6, "velocity": 106}, {"time": 1835, "pitch": 71, "duration": 3, "velocity": 94}, {"time": 1838, "pitch": 74, "duration": 27, "velocity": 101}, {"time": 1865, "pitch": 71, "duration": 3, "velocity": 101}, {"time": 1868, "pitch": 71, "duration": 3, "velocity": 101}, {"time": 1871, "pitch": 74, "duration": 3, "velocity": 106}, {"time": 1874, "pitch": 71, "duration": 3, "velocity": 104}, {"time": 1877, "pitch": 76, "duration": 6, "velocity": 112}, {"time": 1883, "pitch": 71, "duration": 3, "velocity": 109}, {"time": 1886, "pitch": 69, "duration": 27, "velocity": 99}, {"time": 1913, "pitch": 74, "duration": 3, "velocity": 109}, {"time": 1916, "pitch": 74, "duration": 3, "velocity": 109}, {"time": 1919, "pitch": 76, "duration": 3, "velocity": 106}, {"time": 1922, "pitch": 74, "duration": 3, "velocity": 115}, {"time": 1925, "pitch": 79, "duration": 6, "velocity": 115}, {"time": 1931, "pitch": 76, "duration": 6, "velocity": 112}, {"time": 1937, "pitch": 74, "duration": 3, "velocity": 112}, {"time": 1940, "pitch": 74, "duration": 3, "velocity": 109}, {"time": 1943, "pitch": 76, "duration": 3, "velocity": 109}, {"time": 1946, "pitch": 74, "duration": 3, "velocity": 115}, {"time": 1949, "pitch": 79, "duration": 6, "velocity": 112}, {"time": 1955, "pitch": 76, "duration": 9, "velocity": 112}, {"time": 1964, "pitch": 74, "duration": 3, "velocity": 112}, {"time": 1967, "pitch": 76, "duration": 3, "velocity": 101}, {"time": 1970, "pitch": 74, "duration": 3, "velocity": 115}, {"time": 1973, "pitch": 79, "duration": 3, "velocity": 115}, {"time": 1976, "pitch": 76, "duration": 3, "velocity": 106}, {"time": 1979, "pitch": 79, "duration": 3, "velocity": 112}, {"time": 1982, "pitch": 76, "duration": 3, "velocity": 104}, {"time": 1985, "pitch": 79, "duration": 6, "velocity": 115}, {"time": 1991, "pitch": 79, "duration": 3, "velocity": 112}, {"time": 1994, "pitch": 81, "duration": 6, "velocity": 115}, {"time": 2000, "pitch": 83, "duration": 3, "velocity": 115}, {"time": 2003, "pitch": 81, "duration": 3, "velocity": 112}, {"time": 2006, "pitch": 74, "duration": 9, "velocity": 115}, {"time": 2015, "pitch": 74, "duration": 3, "velocity": 115}, {"time": 2018, "pitch": 76, "duration": 3, "velocity": 109}, {"time": 2021, "pitch": 83, "duration": 3, "velocity": 115}, {"time": 2024, "pitch": 81, "duration": 3, "velocity": 112}, {"time": 2027, "pitch": 83, "duration": 3, "velocity": 115}, {"time": 2030, "pitch": 81, "duration": 3, "velocity": 115}, {"time": 2033, "pitch": 83, "duration": 6, "velocity": 118}, {"time": 2039, "pitch": 86, "duration": 3, "velocity": 109}, {"time": 2042, "pitch": 81, "duration": 6, "velocity": 112}, {"time": 2048, "pitch": 81, "duration": 3, "velocity": 109}, {"time": 2051, "pitch": 81, "duration": 3, "velocity": 112}, {"time": 2054, "pitch": 81, "duration": 3, "velocity": 115}, {"time": 2057, "pitch": 83, "duration": 12, "velocity": 115}, {"time": 2069, "pitch": 86, "duration": 6, "velocity": 109}, {"time": 2075, "pitch": 79, "duration": 36, "velocity": 109}, {"time": 2111, "pitch": 79, "duration": 3, "velocity": 109}, {"time": 2114, "pitch": 81, "duration": 3, "velocity": 112}, {"time": 2117, "pitch": 83, "duration": 3, "velocity": 115}, {"time": 2120, "pitch": 81, "duration": 3, "velocity": 115}, {"time": 2123, "pitch": 83, "duration": 3, "velocity": 112}, {"time": 2126, "pitch": 81, "duration": 3, "velocity": 115}, {"time": 2129, "pitch": 83, "duration": 6, "velocity": 115}, {"time": 2135, "pitch": 83, "duration": 3, "velocity": 112}, {"time": 2138, "pitch": 83, "duration": 3, "velocity": 112}, {"time": 2141, "pitch": 81, "duration": 3, "velocity": 118}, {"time": 2144, "pitch": 81, "duration": 3, "velocity": 109}, {"time": 2147, "pitch": 81, "duration": 3, "velocity": 112}, {"time": 2150, "pitch": 81, "duration": 3, "velocity": 115}, {"time": 2153, "pitch": 88, "duration": 6, "velocity": 115}, {"time": 2159, "pitch": 86, "duration": 6, "velocity": 115}, {"time": 2165, "pitch": 81, "duration": 6, "velocity": 106}, {"time": 2171, "pitch": 79, "duration": 15, "velocity": 112}, {"time": 2186, "pitch": 79, "duration": 3, "velocity": 109}, {"time": 2189, "pitch": 78, "duration": 6, "velocity": 113}, {"time": 2195, "pitch": 79, "duration": 3, "velocity": 109}, {"time": 2198, "pitch": 78, "duration": 6, "velocity": 117}, {"time": 2204, "pitch": 79, "duration": 9, "velocity": 117}, {"time": 2213, "pitch": 76, "duration": 36, "velocity": 106}, {"time": 2249, "pitch": 83, "duration": 3, "velocity": 109}, {"time": 2252, "pitch": 81, "duration": 3, "velocity": 118}, {"time": 2255, "pitch": 79, "duration": 3, "velocity": 115}, {"time": 2258, "pitch": 81, "duration": 3, "velocity": 115}, {"time": 2261, "pitch": 83, "duration": 3, "velocity": 112}, {"time": 2264, "pitch": 81, "duration": 3, "velocity": 115}, {"time": 2267, "pitch": 83, "duration": 3, "velocity": 112}, {"time": 2270, "pitch": 81, "duration": 3, "velocity": 115}, {"time": 2273, "pitch": 83, "duration": 6, "velocity": 115}, {"time": 2279, "pitch": 86, "duration": 3, "velocity": 109}, {"time": 2282, "pitch": 81, "duration": 6, "velocity": 112}, {"time": 2288, "pitch": 81, "duration": 3, "velocity": 112}, {"time": 2291, "pitch": 81, "duration": 3, "velocity": 115}, {"time": 2294, "pitch": 81, "duration": 3, "velocity": 112}, {"time": 2297, "pitch": 83, "duration": 12, "velocity": 118}, {"time": 2309, "pitch": 86, "duration": 6, "velocity": 115}, {"time": 2315, "pitch": 79, "duration": 36, "velocity": 109}, {"time": 2351, "pitch": 79, "duration": 3, "velocity": 112}, {"time": 2354, "pitch": 81, "duration": 3, "velocity": 112}, {"time": 2357, "pitch": 83, "duration": 3, "velocity": 112}, {"time": 2360, "pitch": 81, "duration": 3, "velocity": 112}, {"time": 2363, "pitch": 83, "duration": 3, "velocity": 115}, {"time": 2366, "pitch": 81, "duration": 3, "velocity": 112}, {"time": 2369, "pitch": 83, "duration": 3, "velocity": 115}, {"time": 2372, "pitch": 86, "duration": 6, "velocity": 112}, {"time": 2378, "pitch": 79, "duration": 3, "velocity": 109}, {"time": 2381, "pitch": 81, "duration": 3, "velocity": 112}, {"time": 2384, "pitch": 81, "duration": 3, "velocity": 112}, {"time": 2387, "pitch": 81, "duration": 3, "velocity": 115}, {"time": 2390, "pitch": 81, "duration": 3, "velocity": 106}, {"time": 2393, "pitch": 88, "duration": 6, "velocity": 112}, {"time": 2399, "pitch": 86, "duration": 6, "velocity": 112}, {"time": 2405, "pitch": 78, "duration": 6, "velocity": 117}, {"time": 2411, "pitch": 79, "duration": 15, "velocity": 106}, {"time": 2426, "pitch": 79, "duration": 3, "velocity": 112}, {"time": 2429, "pitch": 78, "duration": 6, "velocity": 117}, {"time": 2435, "pitch": 78, "duration": 3, "velocity": 113}, {"time": 2438, "pitch": 79, "duration": 9, "velocity": 112}, {"time": 2447, "pitch": 78, "duration": 6, "velocity": 120}, {"time": 2453, "pitch": 74, "duration": 6, "velocity": 109}, {"time": 2459, "pitch": 76, "duration": 12, "velocity": 106}, {"time": 2471, "pitch": 83, "duration": 7, "velocity": 96}, {"time": 2477, "pitch": 81, "duration": 108, "velocity": 106}, {"time": 2585, "pitch": 76, "duration": 3, "velocity": 94}, {"time": 2588, "pitch": 78, "duration": 3, "velocity": 110}, {"time": 2591, "pitch": 76, "duration": 3, "velocity": 104}, {"time": 2594, "pitch": 74, "duration": 3, "velocity": 109}, {"time": 2597, "pitch": 71, "duration": 6, "velocity": 106}, {"time": 2603, "pitch": 74, "duration": 3, "velocity": 94}, {"time": 2606, "pitch": 74, "duration": 27, "velocity": 101}, {"time": 2633, "pitch": 71, "duration": 3, "velocity": 101}, {"time": 2636, "pitch": 74, "duration": 3, "velocity": 101}, {"time": 2639, "pitch": 74, "duration": 3, "velocity": 106}, {"time": 2642, "pitch": 76, "duration": 3, "velocity": 104}, {"time": 2645, "pitch": 74, "duration": 6, "velocity": 112}, {"time": 2651, "pitch": 71, "duration": 3, "velocity": 109}, {"time": 2654, "pitch": 69, "duration": 27, "velocity": 99}, {"time": 2681, "pitch": 69, "duration": 3, "velocity": 112}, {"time": 2684, "pitch": 71, "duration": 3, "velocity": 106}, {"time": 2687, "pitch": 69, "duration": 3, "velocity": 109}, {"time": 2690, "pitch": 67, "duration": 3, "velocity": 109}, {"time": 2693, "pitch": 69, "duration": 3, "velocity": 104}, {"time": 2696, "pitch": 64, "duration": 3, "velocity": 104}, {"time": 2699, "pitch": 67, "duration": 15, "velocity": 109}, {"time": 2714, "pitch": 67, "duration": 4, "velocity": 109}, {"time": 2718, "pitch": 69, "duration": 3, "velocity": 109}, {"time": 2721, "pitch": 64, "duration": 3, "velocity": 109}, {"time": 2724, "pitch": 67, "duration": 11, "velocity": 94}, {"time": 2735, "pitch": 67, "duration": 3, "velocity": 104}, {"time": 2738, "pitch": 67, "duration": 3, "velocity": 104}, {"time": 2741, "pitch": 67, "duration": 3, "velocity": 109}, {"time": 2744, "pitch": 67, "duration": 3, "velocity": 109}, {"time": 2747, "pitch": 67, "duration": 3, "velocity": 104}, {"time": 2750, "pitch": 67, "duration": 3, "velocity": 106}, {"time": 2753, "pitch": 74, "duration": 6, "velocity": 112}, {"time": 2759, "pitch": 76, "duration": 3, "velocity": 106}, {"time": 2762, "pitch": 71, "duration": 4, "velocity": 104}, {"time": 2766, "pitch": 69, "duration": 12, "velocity": 103}, {"time": 2778, "pitch": 69, "duration": 7, "velocity": 106}, {"time": 2785, "pitch": 71, "duration": 4, "velocity": 101}, {"time": 2789, "pitch": 69, "duration": 8, "velocity": 109}, {"time": 2797, "pitch": 67, "duration": 7, "velocity": 96}, {"time": 2804, "pitch": 76, "duration": 9, "velocity": 109}, {"time": 2813, "pitch": 74, "duration": 3, "velocity": 106}, {"time": 2816, "pitch": 71, "duration": 7, "velocity": 96}, {"time": 2823, "pitch": 69, "duration": 4, "velocity": 87}, {"time": 2827, "pitch": 67, "duration": 23, "velocity": 104}, {"time": 2850, "pitch": 67, "duration": 4, "velocity": 101}, {"time": 2854, "pitch": 67, "duration": 4, "velocity": 99}, {"time": 2858, "pitch": 69, "duration": 20, "velocity": 112}, {"time": 2878, "pitch": 71, "duration": 12, "velocity": 101}, {"time": 2889, "pitch": 69, "duration": 4, "velocity": 96}, {"time": 2893, "pitch": 67, "duration": 35, "velocity": 80}]}, {"program": 0, "is_drum": false, "name": "PIANO", "notes": [{"time": 9, "pitch": 62, "duration": 4, "velocity": 89}, {"time": 9, "pitch": 66, "duration": 17, "velocity": 108}, {"time": 9, "pitch": 50, "duration": 5, "velocity": 104}, {"time": 17, "pitch": 59, "duration": 6, "velocity": 78}, {"time": 17, "pitch": 57, "duration": 9, "velocity": 78}, {"time": 18, "pitch": 47, "duration": 5, "velocity": 78}, {"time": 18, "pitch": 62, "duration": 5, "velocity": 99}, {"time": 26, "pitch": 60, "duration": 8, "velocity": 64}, {"time": 27, "pitch": 64, "duration": 8, "velocity": 82}, {"time": 27, "pitch": 36, "duration": 2, "velocity": 94}, {"time": 32, "pitch": 48, "duration": 40, "velocity": 73}, {"time": 36, "pitch": 55, "duration": 35, "velocity": 26}, {"time": 37, "pitch": 60, "duration": 4, "velocity": 58}, {"time": 39, "pitch": 62, "duration": 48, "velocity": 99}, {"time": 42, "pitch": 67, "duration": 46, "velocity": 82}, {"time": 90, "pitch": 59, "duration": 3, "velocity": 78}, {"time": 91, "pitch": 62, "duration": 3, "velocity": 99}, {"time": 91, "pitch": 47, "duration": 3, "velocity": 73}, {"time": 92, "pitch": 66, "duration": 2, "velocity": 99}, {"time": 99, "pitch": 52, "duration": 3, "velocity": 78}, {"time": 100, "pitch": 55, "duration": 2, "velocity": 78}, {"time": 100, "pitch": 40, "duration": 2, "velocity": 71}, {"time": 100, "pitch": 59, "duration": 3, "velocity": 89}, {"time": 110, "pitch": 36, "duration": 6, "velocity": 91}, {"time": 113, "pitch": 43, "duration": 2, "velocity": 74}, {"time": 116, "pitch": 48, "duration": 2, "velocity": 73}, {"time": 118, "pitch": 50, "duration": 3, "velocity": 82}, {"time": 121, "pitch": 52, "duration": 1, "velocity": 71}, {"time": 124, "pitch": 48, "duration": 26, "velocity": 80}, {"time": 127, "pitch": 55, "duration": 22, "velocity": 55}, {"time": 130, "pitch": 60, "duration": 25, "velocity": 76}, {"time": 134, "pitch": 72, "duration": 21, "velocity": 10}, {"time": 179, "pitch": 60, "duration": 6, "velocity": 85}, {"time": 180, "pitch": 64, "duration": 6, "velocity": 91}, {"time": 180, "pitch": 48, "duration": 11, "velocity": 101}, {"time": 181, "pitch": 67, "duration": 5, "velocity": 91}, {"time": 185, "pitch": 55, "duration": 6, "velocity": 73}, {"time": 189, "pitch": 64, "duration": 3, "velocity": 106}, {"time": 189, "pitch": 67, "duration": 8, "velocity": 104}, {"time": 189, "pitch": 60, "duration": 2, "velocity": 101}, {"time": 193, "pitch": 60, "duration": 1, "velocity": 62}, {"time": 197, "pitch": 66, "duration": 7, "velocity": 86}, {"time": 197, "pitch": 59, "duration": 6, "velocity": 82}, {"time": 197, "pitch": 47, "duration": 12, "velocity": 91}, {"time": 197, "pitch": 62, "duration": 6, "velocity": 101}, {"time": 202, "pitch": 54, "duration": 6, "velocity": 22}, {"time": 206, "pitch": 62, "duration": 5, "velocity": 112}, {"time": 206, "pitch": 66, "duration": 6, "velocity": 117}, {"time": 206, "pitch": 59, "duration": 1, "velocity": 85}, {"time": 210, "pitch": 59, "duration": 2, "velocity": 91}, {"time": 214, "pitch": 60, "duration": 5, "velocity": 87}, {"time": 215, "pitch": 48, "duration": 10, "velocity": 101}, {"time": 215, "pitch": 64, "duration": 5, "velocity": 99}, {"time": 215, "pitch": 67, "duration": 4, "velocity": 19}, {"time": 219, "pitch": 55, "duration": 5, "velocity": 85}, {"time": 223, "pitch": 64, "duration": 3, "velocity": 104}, {"time": 223, "pitch": 60, "duration": 2, "velocity": 99}, {"time": 223, "pitch": 67, "duration": 8, "velocity": 101}, {"time": 231, "pitch": 47, "duration": 82, "velocity": 96}, {"time": 231, "pitch": 59, "duration": 5, "velocity": 89}, {"time": 231, "pitch": 66, "duration": 8, "velocity": 101}, {"time": 231, "pitch": 62, "duration": 11, "velocity": 104}, {"time": 236, "pitch": 54, "duration": 77, "velocity": 83}, {"time": 241, "pitch": 59, "duration": 73, "velocity": 112}, {"time": 246, "pitch": 62, "duration": 68, "velocity": 104}, {"time": 250, "pitch": 43, "duration": 64, "velocity": 69}, {"time": 317, "pitch": 67, "duration": 10, "velocity": 96}, {"time": 317, "pitch": 74, "duration": 9, "velocity": 94}, {"time": 323, "pitch": 62, "duration": 17, "velocity": 89}, {"time": 329, "pitch": 67, "duration": 11, "velocity": 89}, {"time": 329, "pitch": 74, "duration": 11, "velocity": 89}, {"time": 341, "pitch": 67, "duration": 10, "velocity": 99}, {"time": 341, "pitch": 74, "duration": 9, "velocity": 94}, {"time": 347, "pitch": 62, "duration": 17, "velocity": 91}, {"time": 353, "pitch": 67, "duration": 10, "velocity": 74}, {"time": 353, "pitch": 74, "duration": 10, "velocity": 94}, {"time": 365, "pitch": 62, "duration": 4, "velocity": 76}, {"time": 365, "pitch": 67, "duration": 10, "velocity": 89}, {"time": 365, "pitch": 74, "duration": 9, "velocity": 91}, {"time": 371, "pitch": 62, "duration": 17, "velocity": 94}, {"time": 377, "pitch": 67, "duration": 11, "velocity": 82}, {"time": 377, "pitch": 74, "duration": 10, "velocity": 96}, {"time": 389, "pitch": 67, "duration": 9, "velocity": 99}, {"time": 389, "pitch": 74, "duration": 7, "velocity": 94}, {"time": 395, "pitch": 62, "duration": 7, "velocity": 94}, {"time": 401, "pitch": 67, "duration": 12, "velocity": 87}, {"time": 401, "pitch": 74, "duration": 12, "velocity": 85}, {"time": 407, "pitch": 62, "duration": 6, "velocity": 89}, {"time": 413, "pitch": 43, "duration": 39, "velocity": 78}, {"time": 413, "pitch": 62, "duration": 3, "velocity": 85}, {"time": 413, "pitch": 67, "duration": 7, "velocity": 89}, {"time": 413, "pitch": 74, "duration": 7, "velocity": 87}, {"time": 419, "pitch": 62, "duration": 3, "velocity": 61}, {"time": 425, "pitch": 62, "duration": 3, "velocity": 96}, {"time": 425, "pitch": 67, "duration": 4, "velocity": 89}, {"time": 425, "pitch": 74, "duration": 4, "velocity": 94}, {"time": 437, "pitch": 62, "duration": 4, "velocity": 96}, {"time": 437, "pitch": 67, "duration": 8, "velocity": 91}, {"time": 437, "pitch": 74, "duration": 7, "velocity": 94}, {"time": 443, "pitch": 62, "duration": 4, "velocity": 85}, {"time": 449, "pitch": 62, "duration": 5, "velocity": 106}, {"time": 449, "pitch": 67, "duration": 4, "velocity": 101}, {"time": 449, "pitch": 74, "duration": 4, "velocity": 96}, {"time": 461, "pitch": 47, "duration": 41, "velocity": 89}, {"time": 461, "pitch": 59, "duration": 4, "velocity": 82}, {"time": 461, "pitch": 62, "duration": 3, "velocity": 94}, {"time": 461, "pitch": 66, "duration": 4, "velocity": 83}, {"time": 467, "pitch": 54, "duration": 19, "velocity": 37}, {"time": 473, "pitch": 66, "duration": 5, "velocity": 83}, {"time": 473, "pitch": 74, "duration": 5, "velocity": 73}, {"time": 485, "pitch": 66, "duration": 10, "velocity": 110}, {"time": 485, "pitch": 74, "duration": 10, "velocity": 87}, {"time": 491, "pitch": 54, "duration": 9, "velocity": 38}, {"time": 497, "pitch": 66, "duration": 4, "velocity": 110}, {"time": 497, "pitch": 74, "duration": 5, "velocity": 101}, {"time": 509, "pitch": 52, "duration": 39, "velocity": 99}, {"time": 509, "pitch": 64, "duration": 8, "velocity": 82}, {"time": 509, "pitch": 67, "duration": 8, "velocity": 96}, {"time": 515, "pitch": 59, "duration": 32, "velocity": 61}, {"time": 521, "pitch": 64, "duration": 9, "velocity": 96}, {"time": 521, "pitch": 67, "duration": 9, "velocity": 96}, {"time": 533, "pitch": 64, "duration": 8, "velocity": 91}, {"time": 533, "pitch": 67, "duration": 9, "velocity": 94}, {"time": 545, "pitch": 64, "duration": 3, "velocity": 101}, {"time": 545, "pitch": 67, "duration": 3, "velocity": 101}, {"time": 557, "pitch": 48, "duration": 16, "velocity": 94}, {"time": 557, "pitch": 60, "duration": 7, "velocity": 85}, {"time": 557, "pitch": 64, "duration": 6, "velocity": 80}, {"time": 557, "pitch": 67, "duration": 7, "velocity": 89}, {"time": 563, "pitch": 55, "duration": 8, "velocity": 32}, {"time": 569, "pitch": 60, "duration": 3, "velocity": 99}, {"time": 569, "pitch": 64, "duration": 3, "velocity": 99}, {"time": 569, "pitch": 67, "duration": 3, "velocity": 96}, {"time": 581, "pitch": 38, "duration": 2, "velocity": 82}, {"time": 581, "pitch": 62, "duration": 7, "velocity": 89}, {"time": 581, "pitch": 66, "duration": 8, "velocity": 74}, {"time": 581, "pitch": 69, "duration": 8, "velocity": 91}, {"time": 587, "pitch": 50, "duration": 8, "velocity": 59}, {"time": 593, "pitch": 62, "duration": 5, "velocity": 94}, {"time": 593, "pitch": 66, "duration": 5, "velocity": 101}, {"time": 593, "pitch": 69, "duration": 5, "velocity": 99}, {"time": 593, "pitch": 74, "duration": 4, "velocity": 89}, {"time": 605, "pitch": 43, "duration": 42, "velocity": 91}, {"time": 605, "pitch": 55, "duration": 6, "velocity": 85}, {"time": 605, "pitch": 59, "duration": 6, "velocity": 80}, {"time": 605, "pitch": 62, "duration": 6, "velocity": 101}, {"time": 611, "pitch": 50, "duration": 8, "velocity": 38}, {"time": 617, "pitch": 55, "duration": 3, "velocity": 96}, {"time": 617, "pitch": 62, "duration": 7, "velocity": 104}, {"time": 623, "pitch": 50, "duration": 7, "velocity": 69}, {"time": 629, "pitch": 55, "duration": 6, "velocity": 96}, {"time": 629, "pitch": 62, "duration": 5, "velocity": 106}, {"time": 635, "pitch": 50, "duration": 20, "velocity": 38}, {"time": 641, "pitch": 55, "duration": 5, "velocity": 104}, {"time": 641, "pitch": 62, "duration": 5, "velocity": 106}, {"time": 653, "pitch": 42, "duration": 43, "velocity": 68}, {"time": 653, "pitch": 54, "duration": 8, "velocity": 88}, {"time": 653, "pitch": 62, "duration": 9, "velocity": 101}, {"time": 665, "pitch": 54, "duration": 3, "velocity": 113}, {"time": 665, "pitch": 62, "duration": 5, "velocity": 106}, {"time": 677, "pitch": 54, "duration": 7, "velocity": 110}, {"time": 677, "pitch": 62, "duration": 7, "velocity": 99}, {"time": 683, "pitch": 50, "duration": 12, "velocity": 66}, {"time": 689, "pitch": 54, "duration": 4, "velocity": 117}, {"time": 689, "pitch": 62, "duration": 7, "velocity": 106}, {"time": 701, "pitch": 40, "duration": 17, "velocity": 89}, {"time": 701, "pitch": 55, "duration": 4, "velocity": 87}, {"time": 701, "pitch": 59, "duration": 7, "velocity": 99}, {"time": 707, "pitch": 55, "duration": 4, "velocity": 61}, {"time": 713, "pitch": 55, "duration": 4, "velocity": 104}, {"time": 713, "pitch": 59, "duration": 6, "velocity": 104}, {"time": 713, "pitch": 64, "duration": 7, "velocity": 82}, {"time": 725, "pitch": 47, "duration": 15, "velocity": 85}, {"time": 725, "pitch": 59, "duration": 7, "velocity": 85}, {"time": 725, "pitch": 62, "duration": 9, "velocity": 104}, {"time": 725, "pitch": 66, "duration": 9, "velocity": 99}, {"time": 731, "pitch": 54, "duration": 7, "velocity": 42}, {"time": 737, "pitch": 59, "duration": 4, "velocity": 99}, {"time": 737, "pitch": 62, "duration": 6, "velocity": 106}, {"time": 737, "pitch": 66, "duration": 6, "velocity": 117}, {"time": 743, "pitch": 47, "duration": 2, "velocity": 80}, {"time": 749, "pitch": 36, "duration": 2, "velocity": 99}, {"time": 749, "pitch": 60, "duration": 7, "velocity": 89}, {"time": 749, "pitch": 64, "duration": 6, "velocity": 96}, {"time": 749, "pitch": 67, "duration": 6, "velocity": 96}, {"time": 761, "pitch": 60, "duration": 2, "velocity": 99}, {"time": 761, "pitch": 64, "duration": 6, "velocity": 112}, {"time": 761, "pitch": 67, "duration": 6, "velocity": 104}, {"time": 761, "pitch": 72, "duration": 11, "velocity": 94}, {"time": 773, "pitch": 38, "duration": 1, "velocity": 104}, {"time": 773, "pitch": 62, "duration": 12, "velocity": 99}, {"time": 773, "pitch": 66, "duration": 23, "velocity": 83}, {"time": 773, "pitch": 69, "duration": 24, "velocity": 99}, {"time": 779, "pitch": 50, "duration": 18, "velocity": 80}, {"time": 785, "pitch": 57, "duration": 12, "velocity": 88}, {"time": 786, "pitch": 62, "duration": 13, "velocity": 88}, {"time": 797, "pitch": 43, "duration": 16, "velocity": 96}, {"time": 797, "pitch": 59, "duration": 3, "velocity": 89}, {"time": 797, "pitch": 62, "duration": 2, "velocity": 101}, {"time": 797, "pitch": 67, "duration": 8, "velocity": 91}, {"time": 809, "pitch": 59, "duration": 3, "velocity": 104}, {"time": 809, "pitch": 62, "duration": 7, "velocity": 106}, {"time": 809, "pitch": 67, "duration": 9, "velocity": 99}, {"time": 815, "pitch": 59, "duration": 4, "velocity": 94}, {"time": 821, "pitch": 50, "duration": 18, "velocity": 101}, {"time": 821, "pitch": 57, "duration": 4, "velocity": 96}, {"time": 821, "pitch": 62, "duration": 7, "velocity": 99}, {"time": 821, "pitch": 66, "duration": 8, "velocity": 88}, {"time": 833, "pitch": 57, "duration": 3, "velocity": 104}, {"time": 833, "pitch": 62, "duration": 5, "velocity": 109}, {"time": 833, "pitch": 66, "duration": 6, "velocity": 110}, {"time": 845, "pitch": 40, "duration": 13, "velocity": 96}, {"time": 845, "pitch": 59, "duration": 3, "velocity": 87}, {"time": 845, "pitch": 64, "duration": 7, "velocity": 94}, {"time": 845, "pitch": 67, "duration": 9, "velocity": 89}, {"time": 851, "pitch": 59, "duration": 7, "velocity": 69}, {"time": 857, "pitch": 64, "duration": 9, "velocity": 109}, {"time": 857, "pitch": 67, "duration": 10, "velocity": 101}, {"time": 863, "pitch": 59, "duration": 3, "velocity": 94}, {"time": 869, "pitch": 48, "duration": 9, "velocity": 101}, {"time": 869, "pitch": 60, "duration": 5, "velocity": 101}, {"time": 869, "pitch": 67, "duration": 10, "velocity": 101}, {"time": 875, "pitch": 55, "duration": 5, "velocity": 87}, {"time": 881, "pitch": 50, "duration": 7, "velocity": 106}, {"time": 881, "pitch": 62, "duration": 4, "velocity": 101}, {"time": 881, "pitch": 66, "duration": 7, "velocity": 101}, {"time": 887, "pitch": 62, "duration": 3, "velocity": 104}, {"time": 893, "pitch": 40, "duration": 15, "velocity": 101}, {"time": 893, "pitch": 64, "duration": 5, "velocity": 94}, {"time": 893, "pitch": 67, "duration": 7, "velocity": 91}, {"time": 899, "pitch": 47, "duration": 7, "velocity": 55}, {"time": 905, "pitch": 59, "duration": 1, "velocity": 94}, {"time": 905, "pitch": 64, "duration": 7, "velocity": 109}, {"time": 905, "pitch": 67, "duration": 11, "velocity": 106}, {"time": 911, "pitch": 59, "duration": 3, "velocity": 101}, {"time": 917, "pitch": 47, "duration": 16, "velocity": 101}, {"time": 917, "pitch": 59, "duration": 1, "velocity": 80}, {"time": 917, "pitch": 62, "duration": 10, "velocity": 104}, {"time": 917, "pitch": 66, "duration": 10, "velocity": 101}, {"time": 923, "pitch": 59, "duration": 5, "velocity": 85}, {"time": 929, "pitch": 59, "duration": 5, "velocity": 104}, {"time": 929, "pitch": 62, "duration": 5, "velocity": 109}, {"time": 929, "pitch": 66, "duration": 6, "velocity": 113}, {"time": 941, "pitch": 48, "duration": 14, "velocity": 101}, {"time": 941, "pitch": 60, "duration": 9, "velocity": 87}, {"time": 941, "pitch": 67, "duration": 8, "velocity": 91}, {"time": 947, "pitch": 55, "duration": 7, "velocity": 67}, {"time": 953, "pitch": 60, "duration": 4, "velocity": 106}, {"time": 953, "pitch": 67, "duration": 5, "velocity": 106}, {"time": 965, "pitch": 38, "duration": 2, "velocity": 104}, {"time": 965, "pitch": 62, "duration": 15, "velocity": 91}, {"time": 965, "pitch": 66, "duration": 24, "velocity": 99}, {"time": 977, "pitch": 57, "duration": 12, "velocity": 96}, {"time": 989, "pitch": 48, "duration": 21, "velocity": 91}, {"time": 989, "pitch": 60, "duration": 13, "velocity": 80}, {"time": 989, "pitch": 64, "duration": 7, "velocity": 89}, {"time": 995, "pitch": 55, "duration": 8, "velocity": 51}, {"time": 1001, "pitch": 62, "duration": 7, "velocity": 104}, {"time": 1007, "pitch": 55, "duration": 5, "velocity": 76}, {"time": 1013, "pitch": 50, "duration": 14, "velocity": 91}, {"time": 1013, "pitch": 62, "duration": 7, "velocity": 96}, {"time": 1013, "pitch": 66, "duration": 7, "velocity": 96}, {"time": 1019, "pitch": 57, "duration": 7, "velocity": 76}, {"time": 1025, "pitch": 62, "duration": 7, "velocity": 106}, {"time": 1025, "pitch": 66, "duration": 8, "velocity": 117}, {"time": 1025, "pitch": 74, "duration": 10, "velocity": 99}, {"time": 1031, "pitch": 50, "duration": 5, "velocity": 101}, {"time": 1031, "pitch": 57, "duration": 6, "velocity": 106}, {"time": 1034, "pitch": 62, "duration": 3, "velocity": 112}, {"time": 1034, "pitch": 66, "duration": 2, "velocity": 25}, {"time": 1037, "pitch": 43, "duration": 2, "velocity": 106}, {"time": 1037, "pitch": 62, "duration": 4, "velocity": 101}, {"time": 1037, "pitch": 67, "duration": 7, "velocity": 99}, {"time": 1037, "pitch": 71, "duration": 9, "velocity": 99}, {"time": 1043, "pitch": 50, "duration": 9, "velocity": 48}, {"time": 1043, "pitch": 62, "duration": 4, "velocity": 91}, {"time": 1049, "pitch": 62, "duration": 3, "velocity": 112}, {"time": 1049, "pitch": 67, "duration": 4, "velocity": 112}, {"time": 1049, "pitch": 71, "duration": 10, "velocity": 101}, {"time": 1055, "pitch": 62, "duration": 3, "velocity": 82}, {"time": 1061, "pitch": 50, "duration": 15, "velocity": 106}, {"time": 1061, "pitch": 62, "duration": 6, "velocity": 104}, {"time": 1061, "pitch": 66, "duration": 6, "velocity": 107}, {"time": 1061, "pitch": 69, "duration": 6, "velocity": 104}, {"time": 1067, "pitch": 57, "duration": 9, "velocity": 76}, {"time": 1073, "pitch": 62, "duration": 4, "velocity": 106}, {"time": 1073, "pitch": 66, "duration": 4, "velocity": 117}, {"time": 1073, "pitch": 69, "duration": 5, "velocity": 106}, {"time": 1079, "pitch": 50, "duration": 2, "velocity": 89}, {"time": 1085, "pitch": 40, "duration": 1, "velocity": 101}, {"time": 1085, "pitch": 64, "duration": 8, "velocity": 96}, {"time": 1085, "pitch": 67, "duration": 9, "velocity": 104}, {"time": 1091, "pitch": 52, "duration": 10, "velocity": 85}, {"time": 1097, "pitch": 64, "duration": 4, "velocity": 101}, {"time": 1097, "pitch": 67, "duration": 7, "velocity": 106}, {"time": 1097, "pitch": 71, "duration": 10, "velocity": 99}, {"time": 1103, "pitch": 64, "duration": 2, "velocity": 106}, {"time": 1109, "pitch": 48, "duration": 10, "velocity": 101}, {"time": 1109, "pitch": 60, "duration": 4, "velocity": 99}, {"time": 1109, "pitch": 64, "duration": 6, "velocity": 99}, {"time": 1109, "pitch": 67, "duration": 6, "velocity": 101}, {"time": 1115, "pitch": 55, "duration": 5, "velocity": 87}, {"time": 1118, "pitch": 60, "duration": 2, "velocity": 112}, {"time": 1121, "pitch": 50, "duration": 8, "velocity": 112}, {"time": 1121, "pitch": 62, "duration": 3, "velocity": 109}, {"time": 1121, "pitch": 66, "duration": 6, "velocity": 113}, {"time": 1124, "pitch": 57, "duration": 5, "velocity": 101}, {"time": 1127, "pitch": 62, "duration": 4, "velocity": 109}, {"time": 1130, "pitch": 66, "duration": 2, "velocity": 110}, {"time": 1133, "pitch": 43, "duration": 2, "velocity": 106}, {"time": 1133, "pitch": 62, "duration": 9, "velocity": 109}, {"time": 1133, "pitch": 67, "duration": 8, "velocity": 106}, {"time": 1139, "pitch": 50, "duration": 13, "velocity": 99}, {"time": 1145, "pitch": 62, "duration": 3, "velocity": 109}, {"time": 1145, "pitch": 67, "duration": 7, "velocity": 112}, {"time": 1145, "pitch": 71, "duration": 7, "velocity": 101}, {"time": 1151, "pitch": 62, "duration": 5, "velocity": 106}, {"time": 1157, "pitch": 62, "duration": 11, "velocity": 99}, {"time": 1157, "pitch": 54, "duration": 7, "velocity": 96}, {"time": 1157, "pitch": 57, "duration": 9, "velocity": 91}, {"time": 1158, "pitch": 38, "duration": 12, "velocity": 106}, {"time": 1163, "pitch": 52, "duration": 7, "velocity": 76}, {"time": 1166, "pitch": 57, "duration": 1, "velocity": 104}, {"time": 1169, "pitch": 69, "duration": 7, "velocity": 106}, {"time": 1170, "pitch": 60, "duration": 12, "velocity": 83}, {"time": 1170, "pitch": 64, "duration": 12, "velocity": 79}, {"time": 1170, "pitch": 57, "duration": 12, "velocity": 77}, {"time": 1170, "pitch": 45, "duration": 12, "velocity": 74}, {"time": 1181, "pitch": 40, "duration": 3, "velocity": 99}, {"time": 1181, "pitch": 52, "duration": 4, "velocity": 91}, {"time": 1181, "pitch": 55, "duration": 5, "velocity": 94}, {"time": 1187, "pitch": 52, "duration": 14, "velocity": 89}, {"time": 1193, "pitch": 64, "duration": 11, "velocity": 101}, {"time": 1193, "pitch": 67, "duration": 11, "velocity": 104}, {"time": 1199, "pitch": 59, "duration": 4, "velocity": 64}, {"time": 1205, "pitch": 50, "duration": 17, "velocity": 94}, {"time": 1205, "pitch": 62, "duration": 3, "velocity": 101}, {"time": 1205, "pitch": 66, "duration": 8, "velocity": 107}, {"time": 1211, "pitch": 62, "duration": 3, "velocity": 85}, {"time": 1217, "pitch": 62, "duration": 2, "velocity": 101}, {"time": 1217, "pitch": 66, "duration": 7, "velocity": 117}, {"time": 1217, "pitch": 69, "duration": 11, "velocity": 104}, {"time": 1223, "pitch": 62, "duration": 3, "velocity": 94}, {"time": 1229, "pitch": 48, "duration": 18, "velocity": 101}, {"time": 1229, "pitch": 60, "duration": 9, "velocity": 80}, {"time": 1229, "pitch": 64, "duration": 6, "velocity": 99}, {"time": 1235, "pitch": 55, "duration": 12, "velocity": 85}, {"time": 1241, "pitch": 60, "duration": 6, "velocity": 101}, {"time": 1244, "pitch": 62, "duration": 5, "velocity": 104}, {"time": 1247, "pitch": 67, "duration": 6, "velocity": 94}, {"time": 1250, "pitch": 60, "duration": 1, "velocity": 66}, {"time": 1253, "pitch": 50, "duration": 22, "velocity": 104}, {"time": 1253, "pitch": 62, "duration": 21, "velocity": 87}, {"time": 1253, "pitch": 66, "duration": 21, "velocity": 91}, {"time": 1277, "pitch": 40, "duration": 5, "velocity": 101}, {"time": 1277, "pitch": 59, "duration": 5, "velocity": 104}, {"time": 1277, "pitch": 64, "duration": 5, "velocity": 106}, {"time": 1277, "pitch": 67, "duration": 7, "velocity": 104}, {"time": 1289, "pitch": 47, "duration": 7, "velocity": 101}, {"time": 1289, "pitch": 59, "duration": 6, "velocity": 91}, {"time": 1289, "pitch": 62, "duration": 6, "velocity": 96}, {"time": 1289, "pitch": 66, "duration": 7, "velocity": 99}, {"time": 1301, "pitch": 48, "duration": 19, "velocity": 104}, {"time": 1301, "pitch": 60, "duration": 8, "velocity": 96}, {"time": 1301, "pitch": 67, "duration": 8, "velocity": 101}, {"time": 1307, "pitch": 55, "duration": 7, "velocity": 91}, {"time": 1313, "pitch": 60, "duration": 4, "velocity": 109}, {"time": 1313, "pitch": 64, "duration": 4, "velocity": 118}, {"time": 1313, "pitch": 67, "duration": 7, "velocity": 115}, {"time": 1316, "pitch": 55, "duration": 3, "velocity": 96}, {"time": 1319, "pitch": 60, "duration": 4, "velocity": 104}, {"time": 1322, "pitch": 64, "duration": 1, "velocity": 91}, {"time": 1325, "pitch": 40, "duration": 6, "velocity": 104}, {"time": 1325, "pitch": 52, "duration": 5, "velocity": 106}, {"time": 1325, "pitch": 55, "duration": 5, "velocity": 112}, {"time": 1337, "pitch": 47, "duration": 10, "velocity": 101}, {"time": 1337, "pitch": 59, "duration": 7, "velocity": 96}, {"time": 1337, "pitch": 62, "duration": 7, "velocity": 109}, {"time": 1337, "pitch": 66, "duration": 7, "velocity": 96}, {"time": 1349, "pitch": 41, "duration": 11, "velocity": 109}, {"time": 1349, "pitch": 53, "duration": 4, "velocity": 112}, {"time": 1349, "pitch": 57, "duration": 5, "velocity": 112}, {"time": 1352, "pitch": 48, "duration": 7, "velocity": 94}, {"time": 1355, "pitch": 53, "duration": 2, "velocity": 106}, {"time": 1358, "pitch": 53, "duration": 4, "velocity": 106}, {"time": 1358, "pitch": 57, "duration": 4, "velocity": 115}, {"time": 1358, "pitch": 60, "duration": 4, "velocity": 109}, {"time": 1361, "pitch": 41, "duration": 3, "velocity": 51}, {"time": 1361, "pitch": 48, "duration": 3, "velocity": 91}, {"time": 1364, "pitch": 53, "duration": 2, "velocity": 112}, {"time": 1364, "pitch": 57, "duration": 4, "velocity": 121}, {"time": 1364, "pitch": 60, "duration": 5, "velocity": 115}, {"time": 1364, "pitch": 65, "duration": 4, "velocity": 109}, {"time": 1373, "pitch": 46, "duration": 23, "velocity": 117}, {"time": 1373, "pitch": 58, "duration": 4, "velocity": 104}, {"time": 1373, "pitch": 62, "duration": 6, "velocity": 109}, {"time": 1376, "pitch": 53, "duration": 7, "velocity": 74}, {"time": 1379, "pitch": 58, "duration": 7, "velocity": 113}, {"time": 1382, "pitch": 62, "duration": 6, "velocity": 112}, {"time": 1382, "pitch": 65, "duration": 7, "velocity": 109}, {"time": 1385, "pitch": 53, "duration": 11, "velocity": 82}, {"time": 1388, "pitch": 58, "duration": 6, "velocity": 113}, {"time": 1391, "pitch": 62, "duration": 4, "velocity": 104}, {"time": 1394, "pitch": 65, "duration": 2, "velocity": 106}, {"time": 1397, "pitch": 46, "duration": 22, "velocity": 99}, {"time": 1397, "pitch": 60, "duration": 4, "velocity": 91}, {"time": 1397, "pitch": 64, "duration": 7, "velocity": 101}, {"time": 1400, "pitch": 53, "duration": 7, "velocity": 85}, {"time": 1403, "pitch": 60, "duration": 7, "velocity": 96}, {"time": 1406, "pitch": 64, "duration": 6, "velocity": 109}, {"time": 1406, "pitch": 67, "duration": 4, "velocity": 96}, {"time": 1409, "pitch": 53, "duration": 10, "velocity": 87}, {"time": 1412, "pitch": 60, "duration": 4, "velocity": 91}, {"time": 1415, "pitch": 64, "duration": 3, "velocity": 115}, {"time": 1415, "pitch": 67, "duration": 4, "velocity": 99}, {"time": 1418, "pitch": 60, "duration": 2, "velocity": 96}, {"time": 1421, "pitch": 46, "duration": 23, "velocity": 96}, {"time": 1421, "pitch": 58, "duration": 4, "velocity": 113}, {"time": 1421, "pitch": 62, "duration": 7, "velocity": 106}, {"time": 1424, "pitch": 53, "duration": 8, "velocity": 96}, {"time": 1427, "pitch": 58, "duration": 3, "velocity": 96}, {"time": 1430, "pitch": 58, "duration": 4, "velocity": 101}, {"time": 1430, "pitch": 62, "duration": 7, "velocity": 104}, {"time": 1430, "pitch": 65, "duration": 7, "velocity": 106}, {"time": 1433, "pitch": 53, "duration": 11, "velocity": 89}, {"time": 1436, "pitch": 58, "duration": 6, "velocity": 101}, {"time": 1439, "pitch": 62, "duration": 4, "velocity": 94}, {"time": 1442, "pitch": 65, "duration": 2, "velocity": 101}, {"time": 1445, "pitch": 48, "duration": 16, "velocity": 104}, {"time": 1445, "pitch": 60, "duration": 4, "velocity": 101}, {"time": 1445, "pitch": 64, "duration": 7, "velocity": 106}, {"time": 1445, "pitch": 67, "duration": 7, "velocity": 104}, {"time": 1448, "pitch": 55, "duration": 7, "velocity": 94}, {"time": 1451, "pitch": 60, "duration": 2, "velocity": 89}, {"time": 1454, "pitch": 60, "duration": 4, "velocity": 106}, {"time": 1454, "pitch": 64, "duration": 5, "velocity": 112}, {"time": 1454, "pitch": 67, "duration": 7, "velocity": 112}, {"time": 1454, "pitch": 72, "duration": 6, "velocity": 94}, {"time": 1457, "pitch": 55, "duration": 4, "velocity": 89}, {"time": 1460, "pitch": 60, "duration": 4, "velocity": 109}, {"time": 1475, "pitch": 48, "duration": 2, "velocity": 74}, {"time": 1475, "pitch": 58, "duration": 2, "velocity": 93}, {"time": 1475, "pitch": 62, "duration": 2, "velocity": 101}, {"time": 1481, "pitch": 44, "duration": 24, "velocity": 63}, {"time": 1481, "pitch": 51, "duration": 24, "velocity": 67}, {"time": 1481, "pitch": 56, "duration": 24, "velocity": 80}, {"time": 1481, "pitch": 63, "duration": 24, "velocity": 80}, {"time": 1517, "pitch": 43, "duration": 23, "velocity": 104}, {"time": 1517, "pitch": 55, "duration": 11, "velocity": 101}, {"time": 1517, "pitch": 59, "duration": 13, "velocity": 101}, {"time": 1526, "pitch": 50, "duration": 7, "velocity": 40}, {"time": 1529, "pitch": 55, "duration": 6, "velocity": 99}, {"time": 1532, "pitch": 62, "duration": 4, "velocity": 104}, {"time": 1541, "pitch": 43, "duration": 22, "velocity": 104}, {"time": 1541, "pitch": 55, "duration": 17, "velocity": 101}, {"time": 1541, "pitch": 60, "duration": 19, "velocity": 101}, {"time": 1556, "pitch": 50, "duration": 7, "velocity": 76}, {"time": 1559, "pitch": 55, "duration": 4, "velocity": 101}, {"time": 1562, "pitch": 60, "duration": 2, "velocity": 96}, {"time": 1565, "pitch": 43, "duration": 17, "velocity": 104}, {"time": 1565, "pitch": 55, "duration": 8, "velocity": 106}, {"time": 1565, "pitch": 59, "duration": 12, "velocity": 104}, {"time": 1571, "pitch": 50, "duration": 4, "velocity": 61}, {"time": 1574, "pitch": 55, "duration": 4, "velocity": 96}, {"time": 1577, "pitch": 50, "duration": 4, "velocity": 74}, {"time": 1580, "pitch": 55, "duration": 3, "velocity": 109}, {"time": 1580, "pitch": 59, "duration": 4, "velocity": 112}, {"time": 1580, "pitch": 62, "duration": 7, "velocity": 112}, {"time": 1583, "pitch": 43, "duration": 5, "velocity": 89}, {"time": 1586, "pitch": 55, "duration": 2, "velocity": 106}, {"time": 1587, "pitch": 60, "duration": 30, "velocity": 85}, {"time": 1588, "pitch": 36, "duration": 17, "velocity": 99}, {"time": 1588, "pitch": 64, "duration": 29, "velocity": 99}, {"time": 1589, "pitch": 67, "duration": 28, "velocity": 74}, {"time": 1590, "pitch": 72, "duration": 28, "velocity": 40}, {"time": 1643, "pitch": 47, "duration": 7, "velocity": 99}, {"time": 1643, "pitch": 59, "duration": 5, "velocity": 99}, {"time": 1643, "pitch": 62, "duration": 5, "velocity": 106}, {"time": 1643, "pitch": 66, "duration": 7, "velocity": 96}, {"time": 1652, "pitch": 48, "duration": 4, "velocity": 104}, {"time": 1652, "pitch": 60, "duration": 4, "velocity": 94}, {"time": 1652, "pitch": 64, "duration": 4, "velocity": 101}, {"time": 1661, "pitch": 38, "duration": 6, "velocity": 96}, {"time": 1661, "pitch": 62, "duration": 23, "velocity": 101}, {"time": 1661, "pitch": 66, "duration": 23, "velocity": 99}, {"time": 1685, "pitch": 47, "duration": 41, "velocity": 89}, {"time": 1685, "pitch": 59, "duration": 4, "velocity": 82}, {"time": 1685, "pitch": 62, "duration": 3, "velocity": 94}, {"time": 1685, "pitch": 66, "duration": 4, "velocity": 83}, {"time": 1691, "pitch": 54, "duration": 19, "velocity": 37}, {"time": 1697, "pitch": 66, "duration": 5, "velocity": 83}, {"time": 1697, "pitch": 74, "duration": 5, "velocity": 73}, {"time": 1709, "pitch": 66, "duration": 10, "velocity": 110}, {"time": 1709, "pitch": 74, "duration": 10, "velocity": 87}, {"time": 1715, "pitch": 54, "duration": 9, "velocity": 38}, {"time": 1721, "pitch": 66, "duration": 4, "velocity": 110}, {"time": 1721, "pitch": 74, "duration": 5, "velocity": 101}, {"time": 1733, "pitch": 52, "duration": 39, "velocity": 99}, {"time": 1733, "pitch": 64, "duration": 8, "velocity": 82}, {"time": 1733, "pitch": 67, "duration": 8, "velocity": 96}, {"time": 1739, "pitch": 59, "duration": 32, "velocity": 61}, {"time": 1745, "pitch": 64, "duration": 9, "velocity": 96}, {"time": 1745, "pitch": 67, "duration": 9, "velocity": 96}, {"time": 1757, "pitch": 64, "duration": 8, "velocity": 91}, {"time": 1757, "pitch": 67, "duration": 9, "velocity": 94}, {"time": 1769, "pitch": 64, "duration": 3, "velocity": 101}, {"time": 1769, "pitch": 67, "duration": 3, "velocity": 101}, {"time": 1781, "pitch": 61, "duration": 7, "velocity": 85}, {"time": 1781, "pitch": 64, "duration": 6, "velocity": 80}, {"time": 1781, "pitch": 67, "duration": 7, "velocity": 89}, {"time": 1781, "pitch": 49, "duration": 16, "velocity": 94}, {"time": 1787, "pitch": 55, "duration": 8, "velocity": 32}, {"time": 1793, "pitch": 61, "duration": 3, "velocity": 99}, {"time": 1793, "pitch": 64, "duration": 3, "velocity": 99}, {"time": 1793, "pitch": 67, "duration": 3, "velocity": 96}, {"time": 1805, "pitch": 38, "duration": 2, "velocity": 82}, {"time": 1805, "pitch": 62, "duration": 7, "velocity": 89}, {"time": 1805, "pitch": 66, "duration": 8, "velocity": 74}, {"time": 1805, "pitch": 69, "duration": 8, "velocity": 91}, {"time": 1811, "pitch": 50, "duration": 8, "velocity": 59}, {"time": 1817, "pitch": 62, "duration": 5, "velocity": 94}, {"time": 1817, "pitch": 66, "duration": 5, "velocity": 101}, {"time": 1817, "pitch": 69, "duration": 5, "velocity": 99}, {"time": 1817, "pitch": 74, "duration": 4, "velocity": 89}, {"time": 1829, "pitch": 43, "duration": 42, "velocity": 91}, {"time": 1829, "pitch": 55, "duration": 6, "velocity": 85}, {"time": 1829, "pitch": 59, "duration": 6, "velocity": 80}, {"time": 1829, "pitch": 62, "duration": 6, "velocity": 101}, {"time": 1835, "pitch": 50, "duration": 8, "velocity": 38}, {"time": 1841, "pitch": 55, "duration": 3, "velocity": 96}, {"time": 1841, "pitch": 62, "duration": 7, "velocity": 104}, {"time": 1847, "pitch": 50, "duration": 7, "velocity": 69}, {"time": 1853, "pitch": 55, "duration": 6, "velocity": 96}, {"time": 1853, "pitch": 62, "duration": 5, "velocity": 106}, {"time": 1859, "pitch": 50, "duration": 20, "velocity": 38}, {"time": 1865, "pitch": 55, "duration": 5, "velocity": 104}, {"time": 1865, "pitch": 62, "duration": 5, "velocity": 106}, {"time": 1877, "pitch": 42, "duration": 43, "velocity": 68}, {"time": 1877, "pitch": 54, "duration": 8, "velocity": 88}, {"time": 1877, "pitch": 62, "duration": 9, "velocity": 101}, {"time": 1889, "pitch": 54, "duration": 3, "velocity": 113}, {"time": 1889, "pitch": 62, "duration": 5, "velocity": 106}, {"time": 1901, "pitch": 54, "duration": 7, "velocity": 110}, {"time": 1901, "pitch": 62, "duration": 7, "velocity": 99}, {"time": 1907, "pitch": 50, "duration": 12, "velocity": 66}, {"time": 1913, "pitch": 54, "duration": 4, "velocity": 117}, {"time": 1913, "pitch": 62, "duration": 7, "velocity": 106}, {"time": 1925, "pitch": 40, "duration": 17, "velocity": 89}, {"time": 1925, "pitch": 55, "duration": 4, "velocity": 87}, {"time": 1925, "pitch": 59, "duration": 7, "velocity": 99}, {"time": 1931, "pitch": 55, "duration": 4, "velocity": 61}, {"time": 1937, "pitch": 55, "duration": 4, "velocity": 104}, {"time": 1937, "pitch": 59, "duration": 6, "velocity": 104}, {"time": 1937, "pitch": 64, "duration": 7, "velocity": 82}, {"time": 1949, "pitch": 47, "duration": 15, "velocity": 85}, {"time": 1949, "pitch": 59, "duration": 7, "velocity": 85}, {"time": 1949, "pitch": 62, "duration": 9, "velocity": 104}, {"time": 1949, "pitch": 66, "duration": 9, "velocity": 99}, {"time": 1955, "pitch": 54, "duration": 7, "velocity": 42}, {"time": 1961, "pitch": 59, "duration": 4, "velocity": 99}, {"time": 1961, "pitch": 62, "duration": 6, "velocity": 106}, {"time": 1961, "pitch": 66, "duration": 6, "velocity": 117}, {"time": 1967, "pitch": 47, "duration": 2, "velocity": 80}, {"time": 1973, "pitch": 61, "duration": 7, "velocity": 89}, {"time": 1973, "pitch": 64, "duration": 6, "velocity": 96}, {"time": 1973, "pitch": 67, "duration": 6, "velocity": 96}, {"time": 1973, "pitch": 37, "duration": 2, "velocity": 99}, {"time": 1985, "pitch": 64, "duration": 6, "velocity": 112}, {"time": 1985, "pitch": 67, "duration": 6, "velocity": 104}, {"time": 1985, "pitch": 61, "duration": 2, "velocity": 99}, {"time": 1985, "pitch": 73, "duration": 11, "velocity": 94}, {"time": 1997, "pitch": 38, "duration": 1, "velocity": 104}, {"time": 1997, "pitch": 62, "duration": 12, "velocity": 99}, {"time": 1997, "pitch": 66, "duration": 23, "velocity": 83}, {"time": 1997, "pitch": 69, "duration": 24, "velocity": 99}, {"time": 2003, "pitch": 50, "duration": 18, "velocity": 80}, {"time": 2009, "pitch": 57, "duration": 12, "velocity": 88}, {"time": 2010, "pitch": 62, "duration": 13, "velocity": 88}, {"time": 2021, "pitch": 43, "duration": 16, "velocity": 96}, {"time": 2021, "pitch": 59, "duration": 3, "velocity": 89}, {"time": 2021, "pitch": 62, "duration": 2, "velocity": 101}, {"time": 2021, "pitch": 67, "duration": 8, "velocity": 91}, {"time": 2033, "pitch": 59, "duration": 3, "velocity": 104}, {"time": 2033, "pitch": 62, "duration": 7, "velocity": 106}, {"time": 2033, "pitch": 67, "duration": 9, "velocity": 99}, {"time": 2039, "pitch": 59, "duration": 4, "velocity": 94}, {"time": 2045, "pitch": 50, "duration": 18, "velocity": 101}, {"time": 2045, "pitch": 57, "duration": 4, "velocity": 96}, {"time": 2045, "pitch": 62, "duration": 7, "velocity": 99}, {"time": 2045, "pitch": 66, "duration": 8, "velocity": 88}, {"time": 2057, "pitch": 57, "duration": 3, "velocity": 104}, {"time": 2057, "pitch": 62, "duration": 5, "velocity": 109}, {"time": 2057, "pitch": 66, "duration": 6, "velocity": 110}, {"time": 2069, "pitch": 40, "duration": 13, "velocity": 96}, {"time": 2069, "pitch": 59, "duration": 3, "velocity": 87}, {"time": 2069, "pitch": 64, "duration": 7, "velocity": 94}, {"time": 2069, "pitch": 67, "duration": 9, "velocity": 89}, {"time": 2075, "pitch": 59, "duration": 7, "velocity": 69}, {"time": 2081, "pitch": 64, "duration": 9, "velocity": 109}, {"time": 2081, "pitch": 67, "duration": 10, "velocity": 101}, {"time": 2087, "pitch": 59, "duration": 3, "velocity": 94}, {"time": 2093, "pitch": 48, "duration": 9, "velocity": 101}, {"time": 2093, "pitch": 60, "duration": 5, "velocity": 101}, {"time": 2093, "pitch": 67, "duration": 10, "velocity": 101}, {"time": 2099, "pitch": 55, "duration": 5, "velocity": 87}, {"time": 2105, "pitch": 50, "duration": 7, "velocity": 106}, {"time": 2105, "pitch": 62, "duration": 4, "velocity": 101}, {"time": 2105, "pitch": 66, "duration": 7, "velocity": 101}, {"time": 2111, "pitch": 62, "duration": 3, "velocity": 104}, {"time": 2117, "pitch": 43, "duration": 15, "velocity": 101}, {"time": 2117, "pitch": 67, "duration": 7, "velocity": 91}, {"time": 2117, "pitch": 62, "duration": 5, "velocity": 94}, {"time": 2123, "pitch": 50, "duration": 7, "velocity": 55}, {"time": 2129, "pitch": 59, "duration": 1, "velocity": 94}, {"time": 2129, "pitch": 67, "duration": 11, "velocity": 106}, {"time": 2129, "pitch": 62, "duration": 7, "velocity": 109}, {"time": 2135, "pitch": 59, "duration": 3, "velocity": 101}, {"time": 2141, "pitch": 62, "duration": 10, "velocity": 104}, {"time": 2141, "pitch": 50, "duration": 16, "velocity": 101}, {"time": 2141, "pitch": 57, "duration": 1, "velocity": 80}, {"time": 2141, "pitch": 66, "duration": 10, "velocity": 101}, {"time": 2147, "pitch": 57, "duration": 5, "velocity": 85}, {"time": 2153, "pitch": 62, "duration": 5, "velocity": 109}, {"time": 2153, "pitch": 66, "duration": 6, "velocity": 113}, {"time": 2153, "pitch": 57, "duration": 5, "velocity": 104}, {"time": 2165, "pitch": 47, "duration": 14, "velocity": 101}, {"time": 2165, "pitch": 59, "duration": 9, "velocity": 87}, {"time": 2165, "pitch": 64, "duration": 9, "velocity": 91}, {"time": 2171, "pitch": 55, "duration": 7, "velocity": 67}, {"time": 2177, "pitch": 64, "duration": 5, "velocity": 106}, {"time": 2177, "pitch": 59, "duration": 4, "velocity": 106}, {"time": 2189, "pitch": 38, "duration": 2, "velocity": 104}, {"time": 2189, "pitch": 62, "duration": 15, "velocity": 91}, {"time": 2189, "pitch": 66, "duration": 24, "velocity": 99}, {"time": 2201, "pitch": 57, "duration": 12, "velocity": 96}, {"time": 2213, "pitch": 48, "duration": 21, "velocity": 91}, {"time": 2213, "pitch": 60, "duration": 13, "velocity": 80}, {"time": 2213, "pitch": 64, "duration": 7, "velocity": 89}, {"time": 2219, "pitch": 55, "duration": 8, "velocity": 51}, {"time": 2225, "pitch": 62, "duration": 7, "velocity": 104}, {"time": 2231, "pitch": 55, "duration": 5, "velocity": 76}, {"time": 2237, "pitch": 50, "duration": 14, "velocity": 91}, {"time": 2237, "pitch": 62, "duration": 7, "velocity": 96}, {"time": 2237, "pitch": 66, "duration": 7, "velocity": 96}, {"time": 2243, "pitch": 57, "duration": 7, "velocity": 76}, {"time": 2249, "pitch": 62, "duration": 7, "velocity": 106}, {"time": 2249, "pitch": 66, "duration": 8, "velocity": 117}, {"time": 2249, "pitch": 74, "duration": 10, "velocity": 99}, {"time": 2255, "pitch": 50, "duration": 5, "velocity": 101}, {"time": 2255, "pitch": 57, "duration": 6, "velocity": 106}, {"time": 2258, "pitch": 62, "duration": 3, "velocity": 112}, {"time": 2258, "pitch": 66, "duration": 2, "velocity": 25}, {"time": 2261, "pitch": 43, "duration": 2, "velocity": 106}, {"time": 2261, "pitch": 62, "duration": 4, "velocity": 101}, {"time": 2261, "pitch": 67, "duration": 7, "velocity": 99}, {"time": 2261, "pitch": 71, "duration": 9, "velocity": 99}, {"time": 2267, "pitch": 50, "duration": 9, "velocity": 48}, {"time": 2267, "pitch": 62, "duration": 4, "velocity": 91}, {"time": 2273, "pitch": 62, "duration": 3, "velocity": 112}, {"time": 2273, "pitch": 67, "duration": 4, "velocity": 112}, {"time": 2273, "pitch": 71, "duration": 10, "velocity": 101}, {"time": 2279, "pitch": 62, "duration": 3, "velocity": 82}, {"time": 2285, "pitch": 50, "duration": 15, "velocity": 106}, {"time": 2285, "pitch": 62, "duration": 6, "velocity": 104}, {"time": 2285, "pitch": 66, "duration": 6, "velocity": 107}, {"time": 2285, "pitch": 69, "duration": 6, "velocity": 104}, {"time": 2291, "pitch": 57, "duration": 9, "velocity": 76}, {"time": 2297, "pitch": 62, "duration": 4, "velocity": 106}, {"time": 2297, "pitch": 66, "duration": 4, "velocity": 117}, {"time": 2297, "pitch": 69, "duration": 5, "velocity": 106}, {"time": 2303, "pitch": 50, "duration": 2, "velocity": 89}, {"time": 2309, "pitch": 40, "duration": 1, "velocity": 101}, {"time": 2309, "pitch": 64, "duration": 8, "velocity": 96}, {"time": 2309, "pitch": 67, "duration": 9, "velocity": 104}, {"time": 2315, "pitch": 52, "duration": 10, "velocity": 85}, {"time": 2321, "pitch": 64, "duration": 4, "velocity": 101}, {"time": 2321, "pitch": 67, "duration": 7, "velocity": 106}, {"time": 2321, "pitch": 71, "duration": 10, "velocity": 99}, {"time": 2327, "pitch": 64, "duration": 2, "velocity": 106}, {"time": 2333, "pitch": 59, "duration": 4, "velocity": 99}, {"time": 2333, "pitch": 62, "duration": 6, "velocity": 99}, {"time": 2333, "pitch": 66, "duration": 6, "velocity": 101}, {"time": 2333, "pitch": 47, "duration": 10, "velocity": 101}, {"time": 2339, "pitch": 54, "duration": 5, "velocity": 87}, {"time": 2345, "pitch": 48, "duration": 4, "velocity": 112}, {"time": 2345, "pitch": 64, "duration": 6, "velocity": 113}, {"time": 2345, "pitch": 60, "duration": 4, "velocity": 109}, {"time": 2348, "pitch": 57, "duration": 5, "velocity": 101}, {"time": 2351, "pitch": 62, "duration": 4, "velocity": 109}, {"time": 2351, "pitch": 50, "duration": 4, "velocity": 112}, {"time": 2354, "pitch": 66, "duration": 2, "velocity": 110}, {"time": 2357, "pitch": 43, "duration": 2, "velocity": 106}, {"time": 2357, "pitch": 62, "duration": 9, "velocity": 109}, {"time": 2357, "pitch": 67, "duration": 8, "velocity": 106}, {"time": 2363, "pitch": 50, "duration": 13, "velocity": 99}, {"time": 2369, "pitch": 62, "duration": 3, "velocity": 109}, {"time": 2369, "pitch": 67, "duration": 7, "velocity": 112}, {"time": 2369, "pitch": 71, "duration": 7, "velocity": 101}, {"time": 2375, "pitch": 62, "duration": 5, "velocity": 106}, {"time": 2381, "pitch": 62, "duration": 11, "velocity": 99}, {"time": 2381, "pitch": 54, "duration": 7, "velocity": 96}, {"time": 2381, "pitch": 57, "duration": 9, "velocity": 91}, {"time": 2382, "pitch": 38, "duration": 12, "velocity": 106}, {"time": 2387, "pitch": 52, "duration": 7, "velocity": 76}, {"time": 2390, "pitch": 57, "duration": 1, "velocity": 104}, {"time": 2393, "pitch": 69, "duration": 7, "velocity": 106}, {"time": 2394, "pitch": 60, "duration": 12, "velocity": 83}, {"time": 2394, "pitch": 64, "duration": 12, "velocity": 79}, {"time": 2394, "pitch": 57, "duration": 12, "velocity": 77}, {"time": 2394, "pitch": 45, "duration": 12, "velocity": 74}, {"time": 2405, "pitch": 40, "duration": 3, "velocity": 99}, {"time": 2405, "pitch": 52, "duration": 4, "velocity": 91}, {"time": 2405, "pitch": 55, "duration": 5, "velocity": 94}, {"time": 2411, "pitch": 52, "duration": 14, "velocity": 89}, {"time": 2417, "pitch": 64, "duration": 11, "velocity": 101}, {"time": 2417, "pitch": 67, "duration": 11, "velocity": 104}, {"time": 2423, "pitch": 59, "duration": 4, "velocity": 64}, {"time": 2429, "pitch": 50, "duration": 17, "velocity": 94}, {"time": 2429, "pitch": 62, "duration": 3, "velocity": 101}, {"time": 2429, "pitch": 66, "duration": 8, "velocity": 107}, {"time": 2435, "pitch": 62, "duration": 3, "velocity": 85}, {"time": 2441, "pitch": 62, "duration": 2, "velocity": 101}, {"time": 2441, "pitch": 66, "duration": 7, "velocity": 117}, {"time": 2441, "pitch": 69, "duration": 11, "velocity": 104}, {"time": 2447, "pitch": 62, "duration": 3, "velocity": 94}, {"time": 2453, "pitch": 48, "duration": 18, "velocity": 101}, {"time": 2453, "pitch": 60, "duration": 9, "velocity": 80}, {"time": 2453, "pitch": 64, "duration": 6, "velocity": 99}, {"time": 2459, "pitch": 55, "duration": 12, "velocity": 85}, {"time": 2465, "pitch": 60, "duration": 6, "velocity": 101}, {"time": 2468, "pitch": 62, "duration": 5, "velocity": 104}, {"time": 2471, "pitch": 67, "duration": 6, "velocity": 94}, {"time": 2474, "pitch": 60, "duration": 1, "velocity": 66}, {"time": 2477, "pitch": 50, "duration": 22, "velocity": 104}, {"time": 2477, "pitch": 62, "duration": 21, "velocity": 87}, {"time": 2477, "pitch": 66, "duration": 21, "velocity": 91}, {"time": 2501, "pitch": 48, "duration": 21, "velocity": 94}, {"time": 2501, "pitch": 60, "duration": 4, "velocity": 85}, {"time": 2501, "pitch": 66, "duration": 10, "velocity": 99}, {"time": 2507, "pitch": 60, "duration": 5, "velocity": 50}, {"time": 2513, "pitch": 62, "duration": 7, "velocity": 104}, {"time": 2513, "pitch": 66, "duration": 9, "velocity": 101}, {"time": 2519, "pitch": 60, "duration": 2, "velocity": 67}, {"time": 2525, "pitch": 47, "duration": 22, "velocity": 91}, {"time": 2525, "pitch": 59, "duration": 3, "velocity": 87}, {"time": 2525, "pitch": 62, "duration": 8, "velocity": 96}, {"time": 2525, "pitch": 66, "duration": 10, "velocity": 96}, {"time": 2531, "pitch": 59, "duration": 3, "velocity": 28}, {"time": 2537, "pitch": 59, "duration": 2, "velocity": 94}, {"time": 2537, "pitch": 62, "duration": 11, "velocity": 96}, {"time": 2537, "pitch": 66, "duration": 11, "velocity": 93}, {"time": 2543, "pitch": 59, "duration": 5, "velocity": 71}, {"time": 2549, "pitch": 45, "duration": 22, "velocity": 104}, {"time": 2549, "pitch": 60, "duration": 9, "velocity": 89}, {"time": 2549, "pitch": 57, "duration": 22, "velocity": 91}, {"time": 2555, "pitch": 52, "duration": 15, "velocity": 82}, {"time": 2561, "pitch": 64, "duration": 12, "velocity": 91}, {"time": 2568, "pitch": 60, "duration": 4, "velocity": 87}, {"time": 2573, "pitch": 45, "duration": 24, "velocity": 48}, {"time": 2575, "pitch": 52, "duration": 22, "velocity": 76}, {"time": 2575, "pitch": 57, "duration": 23, "velocity": 87}, {"time": 2577, "pitch": 60, "duration": 21, "velocity": 55}, {"time": 2597, "pitch": 55, "duration": 34, "velocity": 46}, {"time": 2597, "pitch": 43, "duration": 34, "velocity": 66}, {"time": 2597, "pitch": 59, "duration": 34, "velocity": 71}, {"time": 2598, "pitch": 62, "duration": 33, "velocity": 64}, {"time": 2644, "pitch": 62, "duration": 20, "velocity": 51}, {"time": 2644, "pitch": 66, "duration": 21, "velocity": 93}, {"time": 2645, "pitch": 69, "duration": 19, "velocity": 94}, {"time": 2647, "pitch": 50, "duration": 41, "velocity": 80}, {"time": 2665, "pitch": 57, "duration": 23, "velocity": 8}, {"time": 2667, "pitch": 62, "duration": 20, "velocity": 52}, {"time": 2669, "pitch": 66, "duration": 18, "velocity": 39}, {"time": 2669, "pitch": 74, "duration": 19, "velocity": 46}, {"time": 2692, "pitch": 64, "duration": 23, "velocity": 69}, {"time": 2693, "pitch": 52, "duration": 19, "velocity": 67}, {"time": 2693, "pitch": 67, "duration": 23, "velocity": 76}, {"time": 2694, "pitch": 71, "duration": 46, "velocity": 50}, {"time": 2717, "pitch": 62, "duration": 22, "velocity": 61}, {"time": 2717, "pitch": 50, "duration": 20, "velocity": 45}, {"time": 2718, "pitch": 67, "duration": 20, "velocity": 59}, {"time": 2739, "pitch": 60, "duration": 17, "velocity": 59}, {"time": 2740, "pitch": 64, "duration": 16, "velocity": 76}, {"time": 2741, "pitch": 48, "duration": 15, "velocity": 76}, {"time": 2741, "pitch": 67, "duration": 16, "velocity": 62}, {"time": 2764, "pitch": 62, "duration": 20, "velocity": 55}, {"time": 2765, "pitch": 66, "duration": 19, "velocity": 46}, {"time": 2765, "pitch": 38, "duration": 8, "velocity": 76}, {"time": 2765, "pitch": 69, "duration": 19, "velocity": 74}, {"time": 2785, "pitch": 43, "duration": 16, "velocity": 91}, {"time": 2786, "pitch": 62, "duration": 10, "velocity": 96}, {"time": 2786, "pitch": 55, "duration": 8, "velocity": 85}, {"time": 2792, "pitch": 50, "duration": 7, "velocity": 18}, {"time": 2797, "pitch": 62, "duration": 9, "velocity": 104}, {"time": 2797, "pitch": 55, "duration": 8, "velocity": 94}, {"time": 2809, "pitch": 47, "duration": 16, "velocity": 82}, {"time": 2809, "pitch": 62, "duration": 6, "velocity": 74}, {"time": 2809, "pitch": 57, "duration": 6, "velocity": 50}, {"time": 2814, "pitch": 54, "duration": 7, "velocity": 45}, {"time": 2820, "pitch": 66, "duration": 11, "velocity": 101}, {"time": 2820, "pitch": 57, "duration": 7, "velocity": 96}, {"time": 2826, "pitch": 62, "duration": 6, "velocity": 82}, {"time": 2832, "pitch": 60, "duration": 14, "velocity": 51}, {"time": 2832, "pitch": 36, "duration": 2, "velocity": 71}, {"time": 2832, "pitch": 64, "duration": 18, "velocity": 71}, {"time": 2837, "pitch": 48, "duration": 13, "velocity": 54}, {"time": 2843, "pitch": 55, "duration": 6, "velocity": 101}, {"time": 2849, "pitch": 60, "duration": 3, "velocity": 85}, {"time": 2855, "pitch": 38, "duration": 1, "velocity": 91}, {"time": 2859, "pitch": 50, "duration": 26, "velocity": 61}, {"time": 2861, "pitch": 54, "duration": 4, "velocity": 25}, {"time": 2863, "pitch": 57, "duration": 22, "velocity": 85}, {"time": 2865, "pitch": 62, "duration": 25, "velocity": 82}, {"time": 2871, "pitch": 66, "duration": 17, "velocity": 1}, {"time": 2892, "pitch": 43, "duration": 73, "velocity": 89}, {"time": 2895, "pitch": 50, "duration": 8, "velocity": 73}, {"time": 2897, "pitch": 57, "duration": 3, "velocity": 99}, {"time": 2900, "pitch": 59, "duration": 6, "velocity": 94}, {"time": 2902, "pitch": 55, "duration": 3, "velocity": 73}, {"time": 2904, "pitch": 50, "duration": 13, "velocity": 64}, {"time": 2908, "pitch": 55, "duration": 3, "velocity": 35}, {"time": 2911, "pitch": 62, "duration": 69, "velocity": 66}, {"time": 2914, "pitch": 55, "duration": 7, "velocity": 55}, {"time": 2920, "pitch": 50, "duration": 13, "velocity": 43}, {"time": 2935, "pitch": 55, "duration": 45, "velocity": 51}, {"time": 2935, "pitch": 50, "duration": 30, "velocity": 55}, {"time": 2937, "pitch": 59, "duration": 43, "velocity": 35}, {"time": 2937, "pitch": 67, "duration": 43, "velocity": 33}], "annotations": [{"time": 11, "annotation": {"number": 64, "value": 127}, "group": "control_change"}, {"time": 17, "annotation": {"number": 64, "value": 0}, "group": "control_change"}, {"time": 19, "annotation": {"number": 64, "value": 127}, "group": "control_change"}, {"time": 26, "annotation": {"number": 64, "value": 0}, "group": "control_change"}, {"time": 28, "annotation": {"number": 64, "value": 127}, "group": "control_change"}, {"time": 85, "annotation": {"number": 64, "value": 0}, "group": "control_change"}, {"time": 92, "annotation": {"number": 64, "value": 127}, "group": "control_change"}, {"time": 99, "annotation": {"number": 64, "value": 0}, "group": "control_change"}, {"time": 101, "annotation": {"number": 64, "value": 127}, "group": "control_change"}, {"time": 108, "annotation": {"number": 64, "value": 0}, "group": "control_change"}, {"time": 112, "annotation": {"number": 64, "value": 127}, "group": "control_change"}, {"time": 128, "annotation": {"number": 64, "value": 0}, "group": "control_change"}, {"time": 130, "annotation": {"number": 64, "value": 127}, "group": "control_change"}, {"time": 167, "annotation": {"number": 64, "value": 0}, "group": "control_change"}, {"time": 182, "annotation": {"number": 64, "value": 127}, "group": "control_change"}, {"time": 196, "annotation": {"number": 64, "value": 0}, "group": "control_change"}, {"time": 199, "annotation": {"number": 64, "value": 127}, "group": "control_change"}, {"time": 214, "annotation": {"number": 64, "value": 0}, "group": "control_change"}, {"time": 217, "annotation": {"number": 64, "value": 127}, "group": "control_change"}, {"time": 231, "annotation": {"number": 64, "value": 0}, "group": "control_change"}, {"time": 234, "annotation": {"number": 64, "value": 127}, "group": "control_change"}, {"time": 249, "annotation": {"number": 64, "value": 0}, "group": "control_change"}, {"time": 251, "annotation": {"number": 64, "value": 127}, "group": "control_change"}, {"time": 312, "annotation": {"number": 64, "value": 0}, "group": "control_change"}, {"time": 414, "annotation": {"number": 64, "value": 127}, "group": "control_change"}, {"time": 437, "annotation": {"number": 64, "value": 0}, "group": "control_change"}, {"time": 439, "annotation": {"number": 64, "value": 127}, "group": "control_change"}, {"time": 460, "annotation": {"number": 64, "value": 0}, "group": "control_change"}, {"time": 463, "annotation": {"number": 64, "value": 127}, "group": "control_change"}, {"time": 496, "annotation": {"number": 64, "value": 0}, "group": "control_change"}, {"time": 498, "annotation": {"number": 64, "value": 127}, "group": "control_change"}, {"time": 508, "annotation": {"number": 64, "value": 0}, "group": "control_change"}, {"time": 511, "annotation": {"number": 64, "value": 127}, "group": "control_change"}, {"time": 534, "annotation": {"number": 64, "value": 0}, "group": "control_change"}, {"time": 538, "annotation": {"number": 64, "value": 127}, "group": "control_change"}, {"time": 556, "annotation": {"number": 64, "value": 0}, "group": "control_change"}, {"time": 559, "annotation": {"number": 64, "value": 127}, "group": "control_change"}, {"time": 579, "annotation": {"number": 64, "value": 0}, "group": "control_change"}, {"time": 581, "annotation": {"number": 64, "value": 127}, "group": "control_change"}, {"time": 603, "annotation": {"number": 64, "value": 0}, "group": "control_change"}, {"time": 608, "annotation": {"number": 64, "value": 127}, "group": "control_change"}, {"time": 652, "annotation": {"number": 64, "value": 0}, "group": "control_change"}, {"time": 655, "annotation": {"number": 64, "value": 127}, "group": "control_change"}, {"time": 689, "annotation": {"number": 64, "value": 0}, "group": "control_change"}, {"time": 691, "annotation": {"number": 64, "value": 127}, "group": "control_change"}, {"time": 700, "annotation": {"number": 64, "value": 0}, "group": "control_change"}, {"time": 702, "annotation": {"number": 64, "value": 127}, "group": "control_change"}, {"time": 726, "annotation": {"number": 64, "value": 127}, "group": "control_change"}, {"time": 748, "annotation": {"number": 64, "value": 0}, "group": "control_change"}, {"time": 750, "annotation": {"number": 64, "value": 127}, "group": "control_change"}, {"time": 771, "annotation": {"number": 64, "value": 0}, "group": "control_change"}, {"time": 773, "annotation": {"number": 64, "value": 127}, "group": "control_change"}, {"time": 797, "annotation": {"number": 64, "value": 127}, "group": "control_change"}, {"time": 820, "annotation": {"number": 64, "value": 0}, "group": "control_change"}, {"time": 823, "annotation": {"number": 64, "value": 127}, "group": "control_change"}, {"time": 846, "annotation": {"number": 64, "value": 0}, "group": "control_change"}, {"time": 848, "annotation": {"number": 64, "value": 127}, "group": "control_change"}, {"time": 868, "annotation": {"number": 64, "value": 0}, "group": "control_change"}, {"time": 870, "annotation": {"number": 64, "value": 127}, "group": "control_change"}, {"time": 880, "annotation": {"number": 64, "value": 0}, "group": "control_change"}, {"time": 882, "annotation": {"number": 64, "value": 127}, "group": "control_change"}, {"time": 892, "annotation": {"number": 64, "value": 0}, "group": "control_change"}, {"time": 895, "annotation": {"number": 64, "value": 127}, "group": "control_change"}, {"time": 916, "annotation": {"number": 64, "value": 0}, "group": "control_change"}, {"time": 922, "annotation": {"number": 64, "value": 127}, "group": "control_change"}, {"time": 941, "annotation": {"number": 64, "value": 0}, "group": "control_change"}, {"time": 946, "annotation": {"number": 64, "value": 127}, "group": "control_change"}, {"time": 964, "annotation": {"number": 64, "value": 0}, "group": "control_change"}, {"time": 966, "annotation": {"number": 64, "value": 127}, "group": "control_change"}, {"time": 989, "annotation": {"number": 64, "value": 0}, "group": "control_change"}, {"time": 994, "annotation": {"number": 64, "value": 127}, "group": "control_change"}, {"time": 1013, "annotation": {"number": 64, "value": 0}, "group": "control_change"}, {"time": 1019, "annotation": {"number": 64, "value": 127}, "group": "control_change"}, {"time": 1037, "annotation": {"number": 64, "value": 0}, "group": "control_change"}, {"time": 1060, "annotation": {"number": 64, "value": 0}, "group": "control_change"}, {"time": 1063, "annotation": {"number": 64, "value": 127}, "group": "control_change"}, {"time": 1084, "annotation": {"number": 64, "value": 0}, "group": "control_change"}, {"time": 1086, "annotation": {"number": 64, "value": 127}, "group": "control_change"}, {"time": 1109, "annotation": {"number": 64, "value": 0}, "group": "control_change"}, {"time": 1111, "annotation": {"number": 64, "value": 127}, "group": "control_change"}, {"time": 1121, "annotation": {"number": 64, "value": 0}, "group": "control_change"}, {"time": 1123, "annotation": {"number": 64, "value": 127}, "group": "control_change"}, {"time": 1132, "annotation": {"number": 64, "value": 0}, "group": "control_change"}, {"time": 1134, "annotation": {"number": 64, "value": 127}, "group": "control_change"}, {"time": 1155, "annotation": {"number": 64, "value": 0}, "group": "control_change"}, {"time": 1158, "annotation": {"number": 64, "value": 127}, "group": "control_change"}, {"time": 1182, "annotation": {"number": 64, "value": 0}, "group": "control_change"}, {"time": 1184, "annotation": {"number": 64, "value": 127}, "group": "control_change"}, {"time": 1204, "annotation": {"number": 64, "value": 0}, "group": "control_change"}, {"time": 1206, "annotation": {"number": 64, "value": 127}, "group": "control_change"}, {"time": 1229, "annotation": {"number": 64, "value": 0}, "group": "control_change"}, {"time": 1234, "annotation": {"number": 64, "value": 127}, "group": "control_change"}, {"time": 1252, "annotation": {"number": 64, "value": 0}, "group": "control_change"}, {"time": 1277, "annotation": {"number": 64, "value": 127}, "group": "control_change"}, {"time": 1288, "annotation": {"number": 64, "value": 0}, "group": "control_change"}, {"time": 1290, "annotation": {"number": 64, "value": 127}, "group": "control_change"}, {"time": 1299, "annotation": {"number": 64, "value": 0}, "group": "control_change"}, {"time": 1302, "annotation": {"number": 64, "value": 127}, "group": "control_change"}, {"time": 1325, "annotation": {"number": 64, "value": 0}, "group": "control_change"}, {"time": 1327, "annotation": {"number": 64, "value": 127}, "group": "control_change"}, {"time": 1336, "annotation": {"number": 64, "value": 0}, "group": "control_change"}, {"time": 1338, "annotation": {"number": 64, "value": 127}, "group": "control_change"}, {"time": 1349, "annotation": {"number": 64, "value": 0}, "group": "control_change"}, {"time": 1352, "annotation": {"number": 64, "value": 127}, "group": "control_change"}, {"time": 1373, "annotation": {"number": 64, "value": 0}, "group": "control_change"}, {"time": 1375, "annotation": {"number": 64, "value": 127}, "group": "control_change"}, {"time": 1396, "annotation": {"number": 64, "value": 0}, "group": "control_change"}, {"time": 1400, "annotation": {"number": 64, "value": 127}, "group": "control_change"}, {"time": 1420, "annotation": {"number": 64, "value": 0}, "group": "control_change"}, {"time": 1425, "annotation": {"number": 64, "value": 127}, "group": "control_change"}, {"time": 1444, "annotation": {"number": 64, "value": 0}, "group": "control_change"}, {"time": 1447, "annotation": {"number": 64, "value": 127}, "group": "control_change"}, {"time": 1475, "annotation": {"number": 64, "value": 127}, "group": "control_change"}, {"time": 1476, "annotation": {"number": 64, "value": 0}, "group": "control_change"}, {"time": 1526, "annotation": {"number": 64, "value": 127}, "group": "control_change"}, {"time": 1541, "annotation": {"number": 64, "value": 0}, "group": "control_change"}, {"time": 1550, "annotation": {"number": 64, "value": 127}, "group": "control_change"}, {"time": 1550, "annotation": {"number": 64, "value": 0}, "group": "control_change"}, {"time": 1557, "annotation": {"number": 64, "value": 127}, "group": "control_change"}, {"time": 1564, "annotation": {"number": 64, "value": 0}, "group": "control_change"}, {"time": 1572, "annotation": {"number": 64, "value": 127}, "group": "control_change"}, {"time": 1588, "annotation": {"number": 64, "value": 0}, "group": "control_change"}, {"time": 1589, "annotation": {"number": 64, "value": 127}, "group": "control_change"}, {"time": 1634, "annotation": {"number": 64, "value": 0}, "group": "control_change"}, {"time": 1644, "annotation": {"number": 64, "value": 127}, "group": "control_change"}, {"time": 1651, "annotation": {"number": 64, "value": 0}, "group": "control_change"}, {"time": 1653, "annotation": {"number": 64, "value": 127}, "group": "control_change"}, {"time": 1660, "annotation": {"number": 64, "value": 0}, "group": "control_change"}, {"time": 1662, "annotation": {"number": 64, "value": 127}, "group": "control_change"}, {"time": 1683, "annotation": {"number": 64, "value": 0}, "group": "control_change"}, {"time": 1687, "annotation": {"number": 64, "value": 127}, "group": "control_change"}, {"time": 1720, "annotation": {"number": 64, "value": 0}, "group": "control_change"}, {"time": 1722, "annotation": {"number": 64, "value": 127}, "group": "control_change"}, {"time": 1732, "annotation": {"number": 64, "value": 0}, "group": "control_change"}, {"time": 1735, "annotation": {"number": 64, "value": 127}, "group": "control_change"}, {"time": 1758, "annotation": {"number": 64, "value": 0}, "group": "control_change"}, {"time": 1762, "annotation": {"number": 64, "value": 127}, "group": "control_change"}, {"time": 1780, "annotation": {"number": 64, "value": 0}, "group": "control_change"}, {"time": 1783, "annotation": {"number": 64, "value": 127}, "group": "control_change"}, {"time": 1803, "annotation": {"number": 64, "value": 0}, "group": "control_change"}, {"time": 1805, "annotation": {"number": 64, "value": 127}, "group": "control_change"}, {"time": 1827, "annotation": {"number": 64, "value": 0}, "group": "control_change"}, {"time": 1832, "annotation": {"number": 64, "value": 127}, "group": "control_change"}, {"time": 1876, "annotation": {"number": 64, "value": 0}, "group": "control_change"}, {"time": 1879, "annotation": {"number": 64, "value": 127}, "group": "control_change"}, {"time": 1913, "annotation": {"number": 64, "value": 0}, "group": "control_change"}, {"time": 1915, "annotation": {"number": 64, "value": 127}, "group": "control_change"}, {"time": 1924, "annotation": {"number": 64, "value": 0}, "group": "control_change"}, {"time": 1926, "annotation": {"number": 64, "value": 127}, "group": "control_change"}, {"time": 1950, "annotation": {"number": 64, "value": 127}, "group": "control_change"}, {"time": 1972, "annotation": {"number": 64, "value": 0}, "group": "control_change"}, {"time": 1974, "annotation": {"number": 64, "value": 127}, "group": "control_change"}, {"time": 1995, "annotation": {"number": 64, "value": 0}, "group": "control_change"}, {"time": 1997, "annotation": {"number": 64, "value": 127}, "group": "control_change"}, {"time": 2021, "annotation": {"number": 64, "value": 127}, "group": "control_change"}, {"time": 2044, "annotation": {"number": 64, "value": 0}, "group": "control_change"}, {"time": 2047, "annotation": {"number": 64, "value": 127}, "group": "control_change"}, {"time": 2070, "annotation": {"number": 64, "value": 0}, "group": "control_change"}, {"time": 2072, "annotation": {"number": 64, "value": 127}, "group": "control_change"}, {"time": 2092, "annotation": {"number": 64, "value": 0}, "group": "control_change"}, {"time": 2094, "annotation": {"number": 64, "value": 127}, "group": "control_change"}, {"time": 2104, "annotation": {"number": 64, "value": 0}, "group": "control_change"}, {"time": 2106, "annotation": {"number": 64, "value": 127}, "group": "control_change"}, {"time": 2116, "annotation": {"number": 64, "value": 0}, "group": "control_change"}, {"time": 2119, "annotation": {"number": 64, "value": 127}, "group": "control_change"}, {"time": 2140, "annotation": {"number": 64, "value": 0}, "group": "control_change"}, {"time": 2146, "annotation": {"number": 64, "value": 127}, "group": "control_change"}, {"time": 2165, "annotation": {"number": 64, "value": 0}, "group": "control_change"}, {"time": 2170, "annotation": {"number": 64, "value": 127}, "group": "control_change"}, {"time": 2188, "annotation": {"number": 64, "value": 0}, "group": "control_change"}, {"time": 2190, "annotation": {"number": 64, "value": 127}, "group": "control_change"}, {"time": 2213, "annotation": {"number": 64, "value": 0}, "group": "control_change"}, {"time": 2218, "annotation": {"number": 64, "value": 127}, "group": "control_change"}, {"time": 2237, "annotation": {"number": 64, "value": 0}, "group": "control_change"}, {"time": 2243, "annotation": {"number": 64, "value": 127}, "group": "control_change"}, {"time": 2261, "annotation": {"number": 64, "value": 0}, "group": "control_change"}, {"time": 2284, "annotation": {"number": 64, "value": 0}, "group": "control_change"}, {"time": 2287, "annotation": {"number": 64, "value": 127}, "group": "control_change"}, {"time": 2308, "annotation": {"number": 64, "value": 0}, "group": "control_change"}, {"time": 2310, "annotation": {"number": 64, "value": 127}, "group": "control_change"}, {"time": 2333, "annotation": {"number": 64, "value": 0}, "group": "control_change"}, {"time": 2335, "annotation": {"number": 64, "value": 127}, "group": "control_change"}, {"time": 2345, "annotation": {"number": 64, "value": 0}, "group": "control_change"}, {"time": 2347, "annotation": {"number": 64, "value": 127}, "group": "control_change"}, {"time": 2356, "annotation": {"number": 64, "value": 0}, "group": "control_change"}, {"time": 2358, "annotation": {"number": 64, "value": 127}, "group": "control_change"}, {"time": 2379, "annotation": {"number": 64, "value": 0}, "group": "control_change"}, {"time": 2382, "annotation": {"number": 64, "value": 127}, "group": "control_change"}, {"time": 2406, "annotation": {"number": 64, "value": 0}, "group": "control_change"}, {"time": 2408, "annotation": {"number": 64, "value": 127}, "group": "control_change"}, {"time": 2428, "annotation": {"number": 64, "value": 0}, "group": "control_change"}, {"time": 2430, "annotation": {"number": 64, "value": 127}, "group": "control_change"}, {"time": 2453, "annotation": {"number": 64, "value": 0}, "group": "control_change"}, {"time": 2458, "annotation": {"number": 64, "value": 127}, "group": "control_change"}, {"time": 2476, "annotation": {"number": 64, "value": 0}, "group": "control_change"}, {"time": 2506, "annotation": {"number": 64, "value": 127}, "group": "control_change"}, {"time": 2524, "annotation": {"number": 64, "value": 0}, "group": "control_change"}, {"time": 2530, "annotation": {"number": 64, "value": 127}, "group": "control_change"}, {"time": 2548, "annotation": {"number": 64, "value": 0}, "group": "control_change"}, {"time": 2554, "annotation": {"number": 64, "value": 127}, "group": "control_change"}, {"time": 2598, "annotation": {"number": 64, "value": 0}, "group": "control_change"}, {"time": 2598, "annotation": {"number": 64, "value": 127}, "group": "control_change"}, {"time": 2645, "annotation": {"number": 64, "value": 127}, "group": "control_change"}, {"time": 2645, "annotation": {"number": 64, "value": 0}, "group": "control_change"}, {"time": 2692, "annotation": {"number": 64, "value": 0}, "group": "control_change"}, {"time": 2695, "annotation": {"number": 64, "value": 127}, "group": "control_change"}, {"time": 2717, "annotation": {"number": 64, "value": 0}, "group": "control_change"}, {"time": 2719, "annotation": {"number": 64, "value": 127}, "group": "control_change"}, {"time": 2742, "annotation": {"number": 64, "value": 127}, "group": "control_change"}, {"time": 2742, "annotation": {"number": 64, "value": 0}, "group": "control_change"}, {"time": 2746, "annotation": {"number": 64, "value": 127}, "group": "control_change"}, {"time": 2746, "annotation": {"number": 64, "value": 0}, "group": "control_change"}, {"time": 2764, "annotation": {"number": 64, "value": 0}, "group": "control_change"}, {"time": 2766, "annotation": {"number": 64, "value": 127}, "group": "control_change"}, {"time": 2789, "annotation": {"number": 64, "value": 0}, "group": "control_change"}, {"time": 2789, "annotation": {"number": 64, "value": 127}, "group": "control_change"}, {"time": 2808, "annotation": {"number": 64, "value": 0}, "group": "control_change"}, {"time": 2811, "annotation": {"number": 64, "value": 127}, "group": "control_change"}, {"time": 2829, "annotation": {"number": 64, "value": 0}, "group": "control_change"}, {"time": 2832, "annotation": {"number": 64, "value": 127}, "group": "control_change"}, {"time": 2854, "annotation": {"number": 64, "value": 0}, "group": "control_change"}, {"time": 2855, "annotation": {"number": 64, "value": 127}, "group": "control_change"}, {"time": 2894, "annotation": {"number": 64, "value": 0}, "group": "control_change"}, {"time": 2896, "annotation": {"number": 64, "value": 127}, "group": "control_change"}, {"time": 2989, "annotation": {"number": 64, "value": 0}, "group": "control_change"}]}]}