{"metadata": {"schema_version": "0.2", "title": "None", "source_filename": "082.mid", "source_format": "midi"}, "resolution": 12, "tempos": [{"time": 0, "qpm": 59.00006686674245}], "time_signatures": [{"time": 0, "numerator": 1, "denominator": 4}], "tracks": [{"program": 4, "is_drum": false, "name": "MELODY", "notes": [{"time": 414, "pitch": 55, "duration": 7, "velocity": 115}, {"time": 423, "pitch": 55, "duration": 8, "velocity": 112}, {"time": 432, "pitch": 58, "duration": 2, "velocity": 120}, {"time": 435, "pitch": 60, "duration": 2, "velocity": 104}, {"time": 438, "pitch": 62, "duration": 15, "velocity": 109}, {"time": 456, "pitch": 58, "duration": 2, "velocity": 113}, {"time": 459, "pitch": 60, "duration": 2, "velocity": 106}, {"time": 462, "pitch": 62, "duration": 4, "velocity": 109}, {"time": 468, "pitch": 60, "duration": 2, "velocity": 101}, {"time": 471, "pitch": 60, "duration": 7, "velocity": 109}, {"time": 480, "pitch": 58, "duration": 2, "velocity": 117}, {"time": 483, "pitch": 60, "duration": 2, "velocity": 101}, {"time": 486, "pitch": 58, "duration": 3, "velocity": 113}, {"time": 489, "pitch": 55, "duration": 16, "velocity": 104}, {"time": 510, "pitch": 55, "duration": 5, "velocity": 112}, {"time": 516, "pitch": 58, "duration": 2, "velocity": 117}, {"time": 519, "pitch": 60, "duration": 2, "velocity": 94}, {"time": 522, "pitch": 58, "duration": 4, "velocity": 120}, {"time": 528, "pitch": 55, "duration": 3, "velocity": 115}, {"time": 534, "pitch": 65, "duration": 4, "velocity": 109}, {"time": 540, "pitch": 67, "duration": 2, "velocity": 109}, {"time": 543, "pitch": 69, "duration": 2, "velocity": 112}, {"time": 546, "pitch": 67, "duration": 3, "velocity": 109}, {"time": 549, "pitch": 65, "duration": 3, "velocity": 109}, {"time": 552, "pitch": 62, "duration": 2, "velocity": 104}, {"time": 555, "pitch": 60, "duration": 2, "velocity": 104}, {"time": 558, "pitch": 62, "duration": 30, "velocity": 112}, {"time": 606, "pitch": 62, "duration": 7, "velocity": 118}, {"time": 615, "pitch": 62, "duration": 7, "velocity": 115}, {"time": 624, "pitch": 65, "duration": 5, "velocity": 112}, {"time": 630, "pitch": 67, "duration": 15, "velocity": 112}, {"time": 648, "pitch": 65, "duration": 1, "velocity": 115}, {"time": 651, "pitch": 67, "duration": 2, "velocity": 112}, {"time": 654, "pitch": 67, "duration": 7, "velocity": 109}, {"time": 663, "pitch": 55, "duration": 2, "velocity": 109}, {"time": 666, "pitch": 58, "duration": 2, "velocity": 117}, {"time": 669, "pitch": 60, "duration": 2, "velocity": 101}, {"time": 672, "pitch": 62, "duration": 5, "velocity": 106}, {"time": 678, "pitch": 60, "duration": 20, "velocity": 99}, {"time": 702, "pitch": 62, "duration": 4, "velocity": 115}, {"time": 708, "pitch": 65, "duration": 1, "velocity": 115}, {"time": 711, "pitch": 67, "duration": 2, "velocity": 109}, {"time": 714, "pitch": 65, "duration": 4, "velocity": 118}, {"time": 720, "pitch": 62, "duration": 4, "velocity": 115}, {"time": 726, "pitch": 60, "duration": 4, "velocity": 109}, {"time": 732, "pitch": 62, "duration": 2, "velocity": 112}, {"time": 735, "pitch": 65, "duration": 2, "velocity": 112}, {"time": 738, "pitch": 62, "duration": 5, "velocity": 109}, {"time": 744, "pitch": 53, "duration": 2, "velocity": 106}, {"time": 747, "pitch": 58, "duration": 2, "velocity": 117}, {"time": 750, "pitch": 55, "duration": 36, "velocity": 96}, {"time": 798, "pitch": 55, "duration": 7, "velocity": 115}, {"time": 807, "pitch": 55, "duration": 8, "velocity": 112}, {"time": 816, "pitch": 58, "duration": 2, "velocity": 120}, {"time": 819, "pitch": 60, "duration": 2, "velocity": 104}, {"time": 822, "pitch": 62, "duration": 15, "velocity": 109}, {"time": 840, "pitch": 58, "duration": 2, "velocity": 113}, {"time": 843, "pitch": 60, "duration": 2, "velocity": 106}, {"time": 846, "pitch": 62, "duration": 4, "velocity": 109}, {"time": 852, "pitch": 60, "duration": 2, "velocity": 101}, {"time": 855, "pitch": 60, "duration": 7, "velocity": 109}, {"time": 864, "pitch": 58, "duration": 2, "velocity": 117}, {"time": 867, "pitch": 60, "duration": 2, "velocity": 101}, {"time": 870, "pitch": 58, "duration": 3, "velocity": 113}, {"time": 873, "pitch": 55, "duration": 16, "velocity": 104}, {"time": 894, "pitch": 55, "duration": 5, "velocity": 112}, {"time": 900, "pitch": 58, "duration": 2, "velocity": 117}, {"time": 903, "pitch": 60, "duration": 2, "velocity": 94}, {"time": 906, "pitch": 58, "duration": 4, "velocity": 120}, {"time": 912, "pitch": 55, "duration": 3, "velocity": 115}, {"time": 918, "pitch": 65, "duration": 4, "velocity": 109}, {"time": 924, "pitch": 67, "duration": 2, "velocity": 109}, {"time": 927, "pitch": 69, "duration": 2, "velocity": 112}, {"time": 930, "pitch": 67, "duration": 3, "velocity": 109}, {"time": 933, "pitch": 65, "duration": 3, "velocity": 109}, {"time": 936, "pitch": 62, "duration": 2, "velocity": 104}, {"time": 939, "pitch": 60, "duration": 2, "velocity": 104}, {"time": 942, "pitch": 62, "duration": 30, "velocity": 112}, {"time": 990, "pitch": 62, "duration": 7, "velocity": 118}, {"time": 999, "pitch": 62, "duration": 7, "velocity": 115}, {"time": 1008, "pitch": 65, "duration": 5, "velocity": 112}, {"time": 1014, "pitch": 67, "duration": 15, "velocity": 112}, {"time": 1032, "pitch": 65, "duration": 1, "velocity": 115}, {"time": 1035, "pitch": 67, "duration": 2, "velocity": 112}, {"time": 1038, "pitch": 67, "duration": 7, "velocity": 109}, {"time": 1047, "pitch": 55, "duration": 2, "velocity": 109}, {"time": 1050, "pitch": 58, "duration": 2, "velocity": 117}, {"time": 1053, "pitch": 60, "duration": 2, "velocity": 101}, {"time": 1056, "pitch": 62, "duration": 5, "velocity": 106}, {"time": 1062, "pitch": 60, "duration": 20, "velocity": 99}, {"time": 1086, "pitch": 62, "duration": 4, "velocity": 115}, {"time": 1092, "pitch": 65, "duration": 1, "velocity": 115}, {"time": 1095, "pitch": 67, "duration": 2, "velocity": 109}, {"time": 1098, "pitch": 65, "duration": 4, "velocity": 118}, {"time": 1104, "pitch": 62, "duration": 4, "velocity": 115}, {"time": 1110, "pitch": 60, "duration": 4, "velocity": 109}, {"time": 1116, "pitch": 62, "duration": 2, "velocity": 112}, {"time": 1119, "pitch": 65, "duration": 2, "velocity": 112}, {"time": 1122, "pitch": 62, "duration": 5, "velocity": 109}, {"time": 1128, "pitch": 53, "duration": 2, "velocity": 106}, {"time": 1131, "pitch": 58, "duration": 2, "velocity": 117}, {"time": 1134, "pitch": 55, "duration": 36, "velocity": 96}, {"time": 1182, "pitch": 62, "duration": 16, "velocity": 118}, {"time": 1200, "pitch": 70, "duration": 5, "velocity": 123}, {"time": 1206, "pitch": 67, "duration": 15, "velocity": 112}, {"time": 1224, "pitch": 70, "duration": 2, "velocity": 120}, {"time": 1227, "pitch": 72, "duration": 2, "velocity": 115}, {"time": 1230, "pitch": 74, "duration": 4, "velocity": 112}, {"time": 1236, "pitch": 72, "duration": 2, "velocity": 112}, {"time": 1239, "pitch": 74, "duration": 2, "velocity": 112}, {"time": 1242, "pitch": 72, "duration": 5, "velocity": 115}, {"time": 1248, "pitch": 70, "duration": 5, "velocity": 120}, {"time": 1254, "pitch": 67, "duration": 20, "velocity": 112}, {"time": 1278, "pitch": 69, "duration": 5, "velocity": 115}, {"time": 1284, "pitch": 67, "duration": 2, "velocity": 109}, {"time": 1287, "pitch": 69, "duration": 2, "velocity": 112}, {"time": 1290, "pitch": 67, "duration": 4, "velocity": 115}, {"time": 1296, "pitch": 65, "duration": 4, "velocity": 115}, {"time": 1302, "pitch": 67, "duration": 5, "velocity": 115}, {"time": 1308, "pitch": 65, "duration": 1, "velocity": 115}, {"time": 1311, "pitch": 67, "duration": 1, "velocity": 109}, {"time": 1314, "pitch": 58, "duration": 2, "velocity": 117}, {"time": 1317, "pitch": 60, "duration": 2, "velocity": 87}, {"time": 1320, "pitch": 62, "duration": 2, "velocity": 115}, {"time": 1323, "pitch": 65, "duration": 2, "velocity": 112}, {"time": 1326, "pitch": 62, "duration": 41, "velocity": 115}, {"time": 1374, "pitch": 67, "duration": 15, "velocity": 115}, {"time": 1392, "pitch": 62, "duration": 2, "velocity": 109}, {"time": 1395, "pitch": 65, "duration": 3, "velocity": 104}, {"time": 1398, "pitch": 60, "duration": 16, "velocity": 115}, {"time": 1416, "pitch": 60, "duration": 2, "velocity": 109}, {"time": 1419, "pitch": 62, "duration": 2, "velocity": 109}, {"time": 1422, "pitch": 65, "duration": 4, "velocity": 115}, {"time": 1428, "pitch": 65, "duration": 2, "velocity": 115}, {"time": 1431, "pitch": 62, "duration": 7, "velocity": 115}, {"time": 1440, "pitch": 74, "duration": 4, "velocity": 109}, {"time": 1446, "pitch": 72, "duration": 14, "velocity": 109}, {"time": 1470, "pitch": 65, "duration": 7, "velocity": 112}, {"time": 1479, "pitch": 65, "duration": 2, "velocity": 115}, {"time": 1482, "pitch": 65, "duration": 4, "velocity": 115}, {"time": 1488, "pitch": 62, "duration": 4, "velocity": 115}, {"time": 1494, "pitch": 72, "duration": 11, "velocity": 109}, {"time": 1512, "pitch": 67, "duration": 2, "velocity": 109}, {"time": 1515, "pitch": 65, "duration": 2, "velocity": 109}, {"time": 1518, "pitch": 67, "duration": 46, "velocity": 112}, {"time": 1758, "pitch": 55, "duration": 7, "velocity": 115}, {"time": 1767, "pitch": 55, "duration": 8, "velocity": 112}, {"time": 1776, "pitch": 58, "duration": 2, "velocity": 120}, {"time": 1779, "pitch": 60, "duration": 2, "velocity": 104}, {"time": 1782, "pitch": 62, "duration": 15, "velocity": 109}, {"time": 1800, "pitch": 58, "duration": 2, "velocity": 113}, {"time": 1803, "pitch": 60, "duration": 2, "velocity": 106}, {"time": 1806, "pitch": 62, "duration": 4, "velocity": 109}, {"time": 1812, "pitch": 60, "duration": 2, "velocity": 101}, {"time": 1815, "pitch": 60, "duration": 7, "velocity": 109}, {"time": 1824, "pitch": 58, "duration": 2, "velocity": 117}, {"time": 1827, "pitch": 60, "duration": 2, "velocity": 101}, {"time": 1830, "pitch": 58, "duration": 3, "velocity": 113}, {"time": 1833, "pitch": 55, "duration": 16, "velocity": 104}, {"time": 1854, "pitch": 55, "duration": 5, "velocity": 112}, {"time": 1860, "pitch": 58, "duration": 2, "velocity": 117}, {"time": 1863, "pitch": 60, "duration": 2, "velocity": 94}, {"time": 1866, "pitch": 58, "duration": 4, "velocity": 120}, {"time": 1872, "pitch": 55, "duration": 3, "velocity": 115}, {"time": 1878, "pitch": 65, "duration": 4, "velocity": 109}, {"time": 1884, "pitch": 67, "duration": 2, "velocity": 109}, {"time": 1887, "pitch": 69, "duration": 2, "velocity": 112}, {"time": 1890, "pitch": 67, "duration": 3, "velocity": 109}, {"time": 1893, "pitch": 65, "duration": 3, "velocity": 109}, {"time": 1896, "pitch": 62, "duration": 2, "velocity": 104}, {"time": 1899, "pitch": 60, "duration": 2, "velocity": 104}, {"time": 1902, "pitch": 62, "duration": 30, "velocity": 112}, {"time": 1950, "pitch": 62, "duration": 7, "velocity": 118}, {"time": 1959, "pitch": 62, "duration": 7, "velocity": 115}, {"time": 1968, "pitch": 65, "duration": 5, "velocity": 112}, {"time": 1974, "pitch": 67, "duration": 15, "velocity": 112}, {"time": 1992, "pitch": 65, "duration": 1, "velocity": 115}, {"time": 1995, "pitch": 67, "duration": 2, "velocity": 112}, {"time": 1998, "pitch": 67, "duration": 7, "velocity": 109}, {"time": 2007, "pitch": 55, "duration": 2, "velocity": 109}, {"time": 2010, "pitch": 58, "duration": 2, "velocity": 117}, {"time": 2013, "pitch": 60, "duration": 2, "velocity": 101}, {"time": 2016, "pitch": 62, "duration": 5, "velocity": 106}, {"time": 2022, "pitch": 60, "duration": 20, "velocity": 99}, {"time": 2046, "pitch": 62, "duration": 4, "velocity": 115}, {"time": 2052, "pitch": 65, "duration": 1, "velocity": 115}, {"time": 2055, "pitch": 67, "duration": 2, "velocity": 109}, {"time": 2058, "pitch": 65, "duration": 4, "velocity": 118}, {"time": 2064, "pitch": 62, "duration": 4, "velocity": 115}, {"time": 2070, "pitch": 60, "duration": 4, "velocity": 109}, {"time": 2076, "pitch": 62, "duration": 2, "velocity": 112}, {"time": 2079, "pitch": 65, "duration": 2, "velocity": 112}, {"time": 2082, "pitch": 62, "duration": 5, "velocity": 109}, {"time": 2088, "pitch": 53, "duration": 2, "velocity": 106}, {"time": 2091, "pitch": 58, "duration": 2, "velocity": 117}, {"time": 2094, "pitch": 55, "duration": 36, "velocity": 96}, {"time": 2142, "pitch": 55, "duration": 7, "velocity": 115}, {"time": 2151, "pitch": 55, "duration": 8, "velocity": 112}, {"time": 2160, "pitch": 58, "duration": 2, "velocity": 120}, {"time": 2163, "pitch": 60, "duration": 2, "velocity": 104}, {"time": 2166, "pitch": 62, "duration": 15, "velocity": 109}, {"time": 2184, "pitch": 58, "duration": 2, "velocity": 113}, {"time": 2187, "pitch": 60, "duration": 2, "velocity": 106}, {"time": 2190, "pitch": 62, "duration": 4, "velocity": 109}, {"time": 2196, "pitch": 60, "duration": 2, "velocity": 101}, {"time": 2199, "pitch": 60, "duration": 7, "velocity": 109}, {"time": 2208, "pitch": 58, "duration": 2, "velocity": 117}, {"time": 2211, "pitch": 60, "duration": 2, "velocity": 101}, {"time": 2214, "pitch": 58, "duration": 3, "velocity": 113}, {"time": 2217, "pitch": 55, "duration": 16, "velocity": 104}, {"time": 2238, "pitch": 55, "duration": 5, "velocity": 112}, {"time": 2244, "pitch": 58, "duration": 2, "velocity": 117}, {"time": 2247, "pitch": 60, "duration": 2, "velocity": 94}, {"time": 2250, "pitch": 58, "duration": 4, "velocity": 120}, {"time": 2256, "pitch": 55, "duration": 3, "velocity": 115}, {"time": 2262, "pitch": 65, "duration": 4, "velocity": 109}, {"time": 2268, "pitch": 67, "duration": 2, "velocity": 109}, {"time": 2271, "pitch": 69, "duration": 2, "velocity": 112}, {"time": 2274, "pitch": 67, "duration": 3, "velocity": 109}, {"time": 2277, "pitch": 65, "duration": 3, "velocity": 109}, {"time": 2280, "pitch": 62, "duration": 2, "velocity": 104}, {"time": 2283, "pitch": 60, "duration": 2, "velocity": 104}, {"time": 2286, "pitch": 62, "duration": 30, "velocity": 112}, {"time": 2334, "pitch": 62, "duration": 7, "velocity": 118}, {"time": 2343, "pitch": 62, "duration": 7, "velocity": 115}, {"time": 2352, "pitch": 65, "duration": 5, "velocity": 112}, {"time": 2358, "pitch": 67, "duration": 15, "velocity": 112}, {"time": 2376, "pitch": 65, "duration": 1, "velocity": 115}, {"time": 2379, "pitch": 67, "duration": 2, "velocity": 112}, {"time": 2382, "pitch": 67, "duration": 7, "velocity": 109}, {"time": 2391, "pitch": 55, "duration": 2, "velocity": 109}, {"time": 2394, "pitch": 58, "duration": 2, "velocity": 117}, {"time": 2397, "pitch": 60, "duration": 2, "velocity": 101}, {"time": 2400, "pitch": 62, "duration": 5, "velocity": 106}, {"time": 2406, "pitch": 60, "duration": 20, "velocity": 99}, {"time": 2430, "pitch": 62, "duration": 4, "velocity": 115}, {"time": 2436, "pitch": 65, "duration": 1, "velocity": 115}, {"time": 2439, "pitch": 67, "duration": 2, "velocity": 109}, {"time": 2442, "pitch": 65, "duration": 4, "velocity": 118}, {"time": 2448, "pitch": 62, "duration": 4, "velocity": 115}, {"time": 2454, "pitch": 60, "duration": 4, "velocity": 109}, {"time": 2460, "pitch": 62, "duration": 2, "velocity": 112}, {"time": 2463, "pitch": 65, "duration": 2, "velocity": 112}, {"time": 2466, "pitch": 62, "duration": 5, "velocity": 109}, {"time": 2472, "pitch": 53, "duration": 2, "velocity": 106}, {"time": 2475, "pitch": 58, "duration": 2, "velocity": 117}, {"time": 2478, "pitch": 55, "duration": 36, "velocity": 96}, {"time": 2526, "pitch": 62, "duration": 16, "velocity": 118}, {"time": 2544, "pitch": 70, "duration": 5, "velocity": 123}, {"time": 2550, "pitch": 67, "duration": 15, "velocity": 112}, {"time": 2568, "pitch": 70, "duration": 2, "velocity": 120}, {"time": 2571, "pitch": 72, "duration": 2, "velocity": 115}, {"time": 2574, "pitch": 74, "duration": 4, "velocity": 112}, {"time": 2580, "pitch": 72, "duration": 2, "velocity": 112}, {"time": 2583, "pitch": 74, "duration": 2, "velocity": 112}, {"time": 2586, "pitch": 72, "duration": 5, "velocity": 115}, {"time": 2592, "pitch": 70, "duration": 5, "velocity": 120}, {"time": 2598, "pitch": 67, "duration": 20, "velocity": 112}, {"time": 2622, "pitch": 69, "duration": 5, "velocity": 115}, {"time": 2628, "pitch": 67, "duration": 2, "velocity": 109}, {"time": 2631, "pitch": 69, "duration": 2, "velocity": 112}, {"time": 2634, "pitch": 67, "duration": 4, "velocity": 115}, {"time": 2640, "pitch": 65, "duration": 4, "velocity": 115}, {"time": 2646, "pitch": 67, "duration": 5, "velocity": 115}, {"time": 2652, "pitch": 65, "duration": 1, "velocity": 115}, {"time": 2655, "pitch": 67, "duration": 1, "velocity": 109}, {"time": 2658, "pitch": 58, "duration": 2, "velocity": 117}, {"time": 2661, "pitch": 60, "duration": 2, "velocity": 87}, {"time": 2664, "pitch": 62, "duration": 2, "velocity": 115}, {"time": 2667, "pitch": 65, "duration": 2, "velocity": 112}, {"time": 2670, "pitch": 62, "duration": 41, "velocity": 115}, {"time": 2718, "pitch": 67, "duration": 15, "velocity": 115}, {"time": 2736, "pitch": 62, "duration": 2, "velocity": 109}, {"time": 2739, "pitch": 65, "duration": 3, "velocity": 104}, {"time": 2742, "pitch": 60, "duration": 16, "velocity": 115}, {"time": 2760, "pitch": 60, "duration": 2, "velocity": 109}, {"time": 2763, "pitch": 62, "duration": 2, "velocity": 109}, {"time": 2766, "pitch": 65, "duration": 4, "velocity": 115}, {"time": 2772, "pitch": 65, "duration": 2, "velocity": 115}, {"time": 2775, "pitch": 62, "duration": 7, "velocity": 115}, {"time": 2784, "pitch": 74, "duration": 4, "velocity": 109}, {"time": 2790, "pitch": 72, "duration": 14, "velocity": 109}, {"time": 2814, "pitch": 65, "duration": 7, "velocity": 112}, {"time": 2823, "pitch": 65, "duration": 2, "velocity": 115}, {"time": 2826, "pitch": 65, "duration": 4, "velocity": 115}, {"time": 2832, "pitch": 62, "duration": 4, "velocity": 115}, {"time": 2838, "pitch": 72, "duration": 11, "velocity": 109}, {"time": 2856, "pitch": 67, "duration": 2, "velocity": 109}, {"time": 2859, "pitch": 65, "duration": 2, "velocity": 109}, {"time": 2862, "pitch": 67, "duration": 46, "velocity": 112}, {"time": 2910, "pitch": 65, "duration": 7, "velocity": 112}, {"time": 2919, "pitch": 65, "duration": 2, "velocity": 115}, {"time": 2922, "pitch": 65, "duration": 4, "velocity": 115}, {"time": 2928, "pitch": 62, "duration": 4, "velocity": 115}, {"time": 2934, "pitch": 72, "duration": 11, "velocity": 109}, {"time": 2946, "pitch": 69, "duration": 18, "velocity": 109}, {"time": 2976, "pitch": 67, "duration": 2, "velocity": 106}, {"time": 2979, "pitch": 65, "duration": 2, "velocity": 104}, {"time": 2982, "pitch": 67, "duration": 48, "velocity": 109}]}, {"program": 0, "is_drum": false, "name": "PIANO", "notes": [{"time": 30, "pitch": 43, "duration": 21, "velocity": 89}, {"time": 33, "pitch": 50, "duration": 15, "velocity": 73}, {"time": 36, "pitch": 55, "duration": 21, "velocity": 87}, {"time": 39, "pitch": 62, "duration": 34, "velocity": 104}, {"time": 54, "pitch": 43, "duration": 14, "velocity": 76}, {"time": 57, "pitch": 50, "duration": 10, "velocity": 80}, {"time": 60, "pitch": 55, "duration": 12, "velocity": 101}, {"time": 63, "pitch": 67, "duration": 16, "velocity": 101}, {"time": 78, "pitch": 48, "duration": 21, "velocity": 94}, {"time": 81, "pitch": 55, "duration": 19, "velocity": 78}, {"time": 84, "pitch": 60, "duration": 21, "velocity": 87}, {"time": 87, "pitch": 67, "duration": 22, "velocity": 91}, {"time": 102, "pitch": 48, "duration": 15, "velocity": 82}, {"time": 105, "pitch": 55, "duration": 12, "velocity": 87}, {"time": 108, "pitch": 60, "duration": 2, "velocity": 94}, {"time": 111, "pitch": 60, "duration": 8, "velocity": 94}, {"time": 111, "pitch": 63, "duration": 7, "velocity": 104}, {"time": 126, "pitch": 39, "duration": 14, "velocity": 104}, {"time": 129, "pitch": 46, "duration": 12, "velocity": 58}, {"time": 132, "pitch": 55, "duration": 9, "velocity": 74}, {"time": 135, "pitch": 58, "duration": 9, "velocity": 96}, {"time": 141, "pitch": 63, "duration": 5, "velocity": 88}, {"time": 144, "pitch": 55, "duration": 2, "velocity": 47}, {"time": 150, "pitch": 41, "duration": 19, "velocity": 96}, {"time": 150, "pitch": 53, "duration": 3, "velocity": 85}, {"time": 150, "pitch": 57, "duration": 7, "velocity": 87}, {"time": 153, "pitch": 48, "duration": 16, "velocity": 67}, {"time": 156, "pitch": 53, "duration": 14, "velocity": 87}, {"time": 159, "pitch": 60, "duration": 14, "velocity": 55}, {"time": 174, "pitch": 43, "duration": 23, "velocity": 96}, {"time": 177, "pitch": 50, "duration": 20, "velocity": 69}, {"time": 180, "pitch": 55, "duration": 22, "velocity": 89}, {"time": 183, "pitch": 62, "duration": 33, "velocity": 101}, {"time": 198, "pitch": 43, "duration": 21, "velocity": 82}, {"time": 201, "pitch": 50, "duration": 15, "velocity": 71}, {"time": 204, "pitch": 55, "duration": 12, "velocity": 74}, {"time": 207, "pitch": 67, "duration": 9, "velocity": 101}, {"time": 222, "pitch": 43, "duration": 21, "velocity": 89}, {"time": 225, "pitch": 50, "duration": 15, "velocity": 73}, {"time": 228, "pitch": 55, "duration": 21, "velocity": 87}, {"time": 231, "pitch": 62, "duration": 34, "velocity": 104}, {"time": 246, "pitch": 43, "duration": 14, "velocity": 76}, {"time": 249, "pitch": 50, "duration": 10, "velocity": 80}, {"time": 252, "pitch": 55, "duration": 12, "velocity": 101}, {"time": 255, "pitch": 67, "duration": 16, "velocity": 101}, {"time": 270, "pitch": 48, "duration": 21, "velocity": 94}, {"time": 273, "pitch": 55, "duration": 19, "velocity": 78}, {"time": 276, "pitch": 60, "duration": 21, "velocity": 87}, {"time": 279, "pitch": 67, "duration": 22, "velocity": 91}, {"time": 294, "pitch": 48, "duration": 15, "velocity": 82}, {"time": 297, "pitch": 55, "duration": 12, "velocity": 87}, {"time": 300, "pitch": 60, "duration": 2, "velocity": 94}, {"time": 303, "pitch": 60, "duration": 8, "velocity": 94}, {"time": 303, "pitch": 63, "duration": 7, "velocity": 104}, {"time": 318, "pitch": 39, "duration": 14, "velocity": 104}, {"time": 321, "pitch": 46, "duration": 12, "velocity": 58}, {"time": 324, "pitch": 55, "duration": 9, "velocity": 74}, {"time": 327, "pitch": 58, "duration": 9, "velocity": 96}, {"time": 333, "pitch": 63, "duration": 5, "velocity": 88}, {"time": 336, "pitch": 55, "duration": 2, "velocity": 47}, {"time": 342, "pitch": 41, "duration": 19, "velocity": 96}, {"time": 342, "pitch": 53, "duration": 3, "velocity": 85}, {"time": 342, "pitch": 57, "duration": 7, "velocity": 87}, {"time": 345, "pitch": 48, "duration": 16, "velocity": 67}, {"time": 348, "pitch": 53, "duration": 14, "velocity": 87}, {"time": 351, "pitch": 60, "duration": 14, "velocity": 55}, {"time": 366, "pitch": 43, "duration": 23, "velocity": 96}, {"time": 369, "pitch": 50, "duration": 20, "velocity": 69}, {"time": 372, "pitch": 55, "duration": 22, "velocity": 89}, {"time": 375, "pitch": 62, "duration": 33, "velocity": 101}, {"time": 390, "pitch": 43, "duration": 21, "velocity": 82}, {"time": 393, "pitch": 50, "duration": 15, "velocity": 71}, {"time": 396, "pitch": 55, "duration": 12, "velocity": 74}, {"time": 399, "pitch": 67, "duration": 9, "velocity": 101}, {"time": 414, "pitch": 43, "duration": 44, "velocity": 85}, {"time": 414, "pitch": 55, "duration": 7, "velocity": 64}, {"time": 414, "pitch": 58, "duration": 7, "velocity": 63}, {"time": 414, "pitch": 62, "duration": 7, "velocity": 99}, {"time": 420, "pitch": 50, "duration": 19, "velocity": 37}, {"time": 426, "pitch": 58, "duration": 6, "velocity": 104}, {"time": 426, "pitch": 62, "duration": 5, "velocity": 101}, {"time": 438, "pitch": 58, "duration": 9, "velocity": 96}, {"time": 438, "pitch": 62, "duration": 8, "velocity": 94}, {"time": 444, "pitch": 50, "duration": 9, "velocity": 28}, {"time": 450, "pitch": 58, "duration": 6, "velocity": 101}, {"time": 450, "pitch": 62, "duration": 6, "velocity": 99}, {"time": 456, "pitch": 55, "duration": 3, "velocity": 54}, {"time": 462, "pitch": 48, "duration": 17, "velocity": 96}, {"time": 462, "pitch": 55, "duration": 4, "velocity": 82}, {"time": 462, "pitch": 60, "duration": 8, "velocity": 94}, {"time": 468, "pitch": 55, "duration": 4, "velocity": 59}, {"time": 474, "pitch": 60, "duration": 4, "velocity": 104}, {"time": 474, "pitch": 63, "duration": 5, "velocity": 110}, {"time": 486, "pitch": 43, "duration": 16, "velocity": 78}, {"time": 486, "pitch": 58, "duration": 9, "velocity": 77}, {"time": 486, "pitch": 62, "duration": 8, "velocity": 101}, {"time": 492, "pitch": 50, "duration": 9, "velocity": 48}, {"time": 498, "pitch": 58, "duration": 6, "velocity": 113}, {"time": 498, "pitch": 62, "duration": 6, "velocity": 101}, {"time": 504, "pitch": 55, "duration": 6, "velocity": 80}, {"time": 510, "pitch": 39, "duration": 11, "velocity": 86}, {"time": 510, "pitch": 58, "duration": 7, "velocity": 101}, {"time": 510, "pitch": 63, "duration": 7, "velocity": 96}, {"time": 516, "pitch": 55, "duration": 7, "velocity": 73}, {"time": 522, "pitch": 58, "duration": 4, "velocity": 113}, {"time": 522, "pitch": 63, "duration": 5, "velocity": 110}, {"time": 534, "pitch": 41, "duration": 16, "velocity": 91}, {"time": 534, "pitch": 57, "duration": 3, "velocity": 85}, {"time": 534, "pitch": 60, "duration": 8, "velocity": 82}, {"time": 540, "pitch": 57, "duration": 5, "velocity": 94}, {"time": 546, "pitch": 60, "duration": 6, "velocity": 99}, {"time": 546, "pitch": 65, "duration": 8, "velocity": 101}, {"time": 552, "pitch": 57, "duration": 3, "velocity": 99}, {"time": 558, "pitch": 46, "duration": 16, "velocity": 77}, {"time": 558, "pitch": 58, "duration": 6, "velocity": 88}, {"time": 558, "pitch": 62, "duration": 6, "velocity": 101}, {"time": 564, "pitch": 53, "duration": 8, "velocity": 44}, {"time": 570, "pitch": 58, "duration": 3, "velocity": 110}, {"time": 570, "pitch": 62, "duration": 4, "velocity": 101}, {"time": 582, "pitch": 38, "duration": 9, "velocity": 80}, {"time": 582, "pitch": 57, "duration": 3, "velocity": 87}, {"time": 582, "pitch": 62, "duration": 9, "velocity": 99}, {"time": 588, "pitch": 57, "duration": 3, "velocity": 87}, {"time": 594, "pitch": 57, "duration": 6, "velocity": 104}, {"time": 594, "pitch": 62, "duration": 4, "velocity": 112}, {"time": 594, "pitch": 66, "duration": 4, "velocity": 110}, {"time": 606, "pitch": 43, "duration": 31, "velocity": 94}, {"time": 606, "pitch": 55, "duration": 10, "velocity": 91}, {"time": 606, "pitch": 58, "duration": 6, "velocity": 99}, {"time": 606, "pitch": 62, "duration": 7, "velocity": 104}, {"time": 612, "pitch": 50, "duration": 17, "velocity": 18}, {"time": 618, "pitch": 58, "duration": 2, "velocity": 104}, {"time": 618, "pitch": 62, "duration": 2, "velocity": 101}, {"time": 630, "pitch": 58, "duration": 7, "velocity": 110}, {"time": 630, "pitch": 62, "duration": 5, "velocity": 104}, {"time": 636, "pitch": 55, "duration": 3, "velocity": 64}, {"time": 642, "pitch": 58, "duration": 7, "velocity": 113}, {"time": 642, "pitch": 62, "duration": 7, "velocity": 104}, {"time": 648, "pitch": 55, "duration": 5, "velocity": 96}, {"time": 654, "pitch": 39, "duration": 13, "velocity": 88}, {"time": 654, "pitch": 58, "duration": 7, "velocity": 99}, {"time": 654, "pitch": 63, "duration": 8, "velocity": 86}, {"time": 660, "pitch": 55, "duration": 1, "velocity": 23}, {"time": 666, "pitch": 58, "duration": 5, "velocity": 110}, {"time": 666, "pitch": 63, "duration": 6, "velocity": 93}, {"time": 678, "pitch": 48, "duration": 16, "velocity": 80}, {"time": 678, "pitch": 55, "duration": 4, "velocity": 85}, {"time": 678, "pitch": 60, "duration": 8, "velocity": 78}, {"time": 678, "pitch": 63, "duration": 8, "velocity": 72}, {"time": 684, "pitch": 55, "duration": 4, "velocity": 76}, {"time": 690, "pitch": 60, "duration": 6, "velocity": 104}, {"time": 690, "pitch": 63, "duration": 6, "velocity": 113}, {"time": 702, "pitch": 50, "duration": 23, "velocity": 96}, {"time": 702, "pitch": 57, "duration": 3, "velocity": 96}, {"time": 702, "pitch": 62, "duration": 8, "velocity": 104}, {"time": 708, "pitch": 57, "duration": 2, "velocity": 38}, {"time": 714, "pitch": 57, "duration": 3, "velocity": 96}, {"time": 714, "pitch": 62, "duration": 5, "velocity": 106}, {"time": 714, "pitch": 65, "duration": 6, "velocity": 99}, {"time": 726, "pitch": 50, "duration": 15, "velocity": 99}, {"time": 726, "pitch": 57, "duration": 3, "velocity": 87}, {"time": 726, "pitch": 62, "duration": 7, "velocity": 91}, {"time": 732, "pitch": 57, "duration": 1, "velocity": 61}, {"time": 738, "pitch": 57, "duration": 2, "velocity": 101}, {"time": 738, "pitch": 62, "duration": 5, "velocity": 109}, {"time": 738, "pitch": 65, "duration": 7, "velocity": 104}, {"time": 744, "pitch": 57, "duration": 2, "velocity": 104}, {"time": 750, "pitch": 43, "duration": 48, "velocity": 96}, {"time": 750, "pitch": 55, "duration": 10, "velocity": 73}, {"time": 750, "pitch": 58, "duration": 9, "velocity": 99}, {"time": 750, "pitch": 62, "duration": 8, "velocity": 85}, {"time": 756, "pitch": 50, "duration": 41, "velocity": 73}, {"time": 762, "pitch": 58, "duration": 4, "velocity": 117}, {"time": 762, "pitch": 62, "duration": 5, "velocity": 106}, {"time": 774, "pitch": 58, "duration": 9, "velocity": 110}, {"time": 774, "pitch": 62, "duration": 10, "velocity": 104}, {"time": 780, "pitch": 55, "duration": 7, "velocity": 89}, {"time": 786, "pitch": 58, "duration": 12, "velocity": 101}, {"time": 786, "pitch": 62, "duration": 12, "velocity": 106}, {"time": 786, "pitch": 67, "duration": 12, "velocity": 99}, {"time": 792, "pitch": 55, "duration": 5, "velocity": 101}, {"time": 798, "pitch": 43, "duration": 44, "velocity": 85}, {"time": 798, "pitch": 55, "duration": 7, "velocity": 64}, {"time": 798, "pitch": 58, "duration": 7, "velocity": 63}, {"time": 798, "pitch": 62, "duration": 7, "velocity": 99}, {"time": 804, "pitch": 50, "duration": 19, "velocity": 37}, {"time": 810, "pitch": 58, "duration": 6, "velocity": 104}, {"time": 810, "pitch": 62, "duration": 5, "velocity": 101}, {"time": 822, "pitch": 58, "duration": 9, "velocity": 96}, {"time": 822, "pitch": 62, "duration": 8, "velocity": 94}, {"time": 828, "pitch": 50, "duration": 9, "velocity": 28}, {"time": 834, "pitch": 58, "duration": 6, "velocity": 101}, {"time": 834, "pitch": 62, "duration": 6, "velocity": 99}, {"time": 840, "pitch": 55, "duration": 3, "velocity": 54}, {"time": 846, "pitch": 48, "duration": 17, "velocity": 96}, {"time": 846, "pitch": 55, "duration": 4, "velocity": 82}, {"time": 846, "pitch": 60, "duration": 8, "velocity": 94}, {"time": 852, "pitch": 55, "duration": 4, "velocity": 59}, {"time": 858, "pitch": 60, "duration": 4, "velocity": 104}, {"time": 858, "pitch": 63, "duration": 5, "velocity": 110}, {"time": 870, "pitch": 43, "duration": 16, "velocity": 78}, {"time": 870, "pitch": 58, "duration": 9, "velocity": 77}, {"time": 870, "pitch": 62, "duration": 8, "velocity": 101}, {"time": 876, "pitch": 50, "duration": 9, "velocity": 48}, {"time": 882, "pitch": 58, "duration": 6, "velocity": 113}, {"time": 882, "pitch": 62, "duration": 6, "velocity": 101}, {"time": 888, "pitch": 55, "duration": 6, "velocity": 80}, {"time": 894, "pitch": 39, "duration": 11, "velocity": 86}, {"time": 894, "pitch": 58, "duration": 7, "velocity": 101}, {"time": 894, "pitch": 63, "duration": 7, "velocity": 96}, {"time": 900, "pitch": 55, "duration": 7, "velocity": 73}, {"time": 906, "pitch": 58, "duration": 4, "velocity": 113}, {"time": 906, "pitch": 63, "duration": 5, "velocity": 110}, {"time": 918, "pitch": 41, "duration": 16, "velocity": 91}, {"time": 918, "pitch": 57, "duration": 3, "velocity": 85}, {"time": 918, "pitch": 60, "duration": 8, "velocity": 82}, {"time": 924, "pitch": 57, "duration": 5, "velocity": 94}, {"time": 930, "pitch": 60, "duration": 6, "velocity": 99}, {"time": 930, "pitch": 65, "duration": 8, "velocity": 101}, {"time": 936, "pitch": 57, "duration": 3, "velocity": 99}, {"time": 942, "pitch": 46, "duration": 16, "velocity": 77}, {"time": 942, "pitch": 58, "duration": 6, "velocity": 88}, {"time": 942, "pitch": 62, "duration": 6, "velocity": 101}, {"time": 948, "pitch": 53, "duration": 8, "velocity": 44}, {"time": 954, "pitch": 58, "duration": 3, "velocity": 110}, {"time": 954, "pitch": 62, "duration": 4, "velocity": 101}, {"time": 966, "pitch": 38, "duration": 9, "velocity": 80}, {"time": 966, "pitch": 57, "duration": 3, "velocity": 87}, {"time": 966, "pitch": 62, "duration": 9, "velocity": 99}, {"time": 972, "pitch": 57, "duration": 3, "velocity": 87}, {"time": 978, "pitch": 57, "duration": 6, "velocity": 104}, {"time": 978, "pitch": 62, "duration": 4, "velocity": 112}, {"time": 978, "pitch": 66, "duration": 4, "velocity": 110}, {"time": 990, "pitch": 43, "duration": 31, "velocity": 94}, {"time": 990, "pitch": 55, "duration": 10, "velocity": 91}, {"time": 990, "pitch": 58, "duration": 6, "velocity": 99}, {"time": 990, "pitch": 62, "duration": 7, "velocity": 104}, {"time": 996, "pitch": 50, "duration": 17, "velocity": 18}, {"time": 1002, "pitch": 58, "duration": 2, "velocity": 104}, {"time": 1002, "pitch": 62, "duration": 2, "velocity": 101}, {"time": 1014, "pitch": 58, "duration": 7, "velocity": 110}, {"time": 1014, "pitch": 62, "duration": 5, "velocity": 104}, {"time": 1020, "pitch": 55, "duration": 3, "velocity": 64}, {"time": 1026, "pitch": 58, "duration": 7, "velocity": 113}, {"time": 1026, "pitch": 62, "duration": 7, "velocity": 104}, {"time": 1032, "pitch": 55, "duration": 5, "velocity": 96}, {"time": 1038, "pitch": 39, "duration": 13, "velocity": 88}, {"time": 1038, "pitch": 58, "duration": 7, "velocity": 99}, {"time": 1038, "pitch": 63, "duration": 8, "velocity": 86}, {"time": 1044, "pitch": 55, "duration": 1, "velocity": 23}, {"time": 1050, "pitch": 58, "duration": 5, "velocity": 110}, {"time": 1050, "pitch": 63, "duration": 6, "velocity": 93}, {"time": 1062, "pitch": 48, "duration": 16, "velocity": 80}, {"time": 1062, "pitch": 55, "duration": 4, "velocity": 85}, {"time": 1062, "pitch": 60, "duration": 8, "velocity": 78}, {"time": 1062, "pitch": 63, "duration": 8, "velocity": 72}, {"time": 1068, "pitch": 55, "duration": 4, "velocity": 76}, {"time": 1074, "pitch": 60, "duration": 6, "velocity": 104}, {"time": 1074, "pitch": 63, "duration": 6, "velocity": 113}, {"time": 1086, "pitch": 50, "duration": 23, "velocity": 96}, {"time": 1086, "pitch": 57, "duration": 3, "velocity": 96}, {"time": 1086, "pitch": 62, "duration": 8, "velocity": 104}, {"time": 1092, "pitch": 57, "duration": 2, "velocity": 38}, {"time": 1098, "pitch": 57, "duration": 3, "velocity": 96}, {"time": 1098, "pitch": 62, "duration": 5, "velocity": 106}, {"time": 1098, "pitch": 65, "duration": 6, "velocity": 99}, {"time": 1110, "pitch": 50, "duration": 15, "velocity": 99}, {"time": 1110, "pitch": 57, "duration": 3, "velocity": 87}, {"time": 1110, "pitch": 62, "duration": 7, "velocity": 91}, {"time": 1116, "pitch": 57, "duration": 1, "velocity": 61}, {"time": 1122, "pitch": 57, "duration": 2, "velocity": 101}, {"time": 1122, "pitch": 62, "duration": 5, "velocity": 109}, {"time": 1122, "pitch": 65, "duration": 7, "velocity": 104}, {"time": 1128, "pitch": 57, "duration": 2, "velocity": 104}, {"time": 1134, "pitch": 43, "duration": 48, "velocity": 96}, {"time": 1134, "pitch": 55, "duration": 10, "velocity": 73}, {"time": 1134, "pitch": 58, "duration": 9, "velocity": 99}, {"time": 1134, "pitch": 62, "duration": 8, "velocity": 85}, {"time": 1140, "pitch": 50, "duration": 41, "velocity": 73}, {"time": 1146, "pitch": 58, "duration": 4, "velocity": 117}, {"time": 1146, "pitch": 62, "duration": 5, "velocity": 106}, {"time": 1158, "pitch": 58, "duration": 9, "velocity": 110}, {"time": 1158, "pitch": 62, "duration": 10, "velocity": 104}, {"time": 1164, "pitch": 55, "duration": 7, "velocity": 89}, {"time": 1170, "pitch": 58, "duration": 12, "velocity": 101}, {"time": 1170, "pitch": 62, "duration": 12, "velocity": 106}, {"time": 1170, "pitch": 67, "duration": 12, "velocity": 99}, {"time": 1176, "pitch": 55, "duration": 5, "velocity": 101}, {"time": 1182, "pitch": 50, "duration": 18, "velocity": 104}, {"time": 1182, "pitch": 57, "duration": 3, "velocity": 104}, {"time": 1182, "pitch": 62, "duration": 8, "velocity": 109}, {"time": 1182, "pitch": 65, "duration": 8, "velocity": 104}, {"time": 1188, "pitch": 57, "duration": 3, "velocity": 73}, {"time": 1194, "pitch": 57, "duration": 3, "velocity": 104}, {"time": 1194, "pitch": 62, "duration": 7, "velocity": 106}, {"time": 1194, "pitch": 69, "duration": 6, "velocity": 91}, {"time": 1200, "pitch": 57, "duration": 3, "velocity": 99}, {"time": 1206, "pitch": 43, "duration": 18, "velocity": 82}, {"time": 1206, "pitch": 55, "duration": 6, "velocity": 94}, {"time": 1206, "pitch": 58, "duration": 5, "velocity": 88}, {"time": 1206, "pitch": 62, "duration": 7, "velocity": 94}, {"time": 1212, "pitch": 50, "duration": 12, "velocity": 85}, {"time": 1218, "pitch": 55, "duration": 3, "velocity": 106}, {"time": 1218, "pitch": 58, "duration": 6, "velocity": 113}, {"time": 1218, "pitch": 62, "duration": 5, "velocity": 106}, {"time": 1230, "pitch": 39, "duration": 13, "velocity": 81}, {"time": 1230, "pitch": 55, "duration": 2, "velocity": 91}, {"time": 1230, "pitch": 58, "duration": 7, "velocity": 101}, {"time": 1230, "pitch": 63, "duration": 7, "velocity": 99}, {"time": 1242, "pitch": 58, "duration": 2, "velocity": 117}, {"time": 1242, "pitch": 63, "duration": 3, "velocity": 117}, {"time": 1254, "pitch": 58, "duration": 5, "velocity": 99}, {"time": 1254, "pitch": 63, "duration": 5, "velocity": 107}, {"time": 1260, "pitch": 55, "duration": 5, "velocity": 66}, {"time": 1266, "pitch": 58, "duration": 6, "velocity": 113}, {"time": 1266, "pitch": 63, "duration": 6, "velocity": 107}, {"time": 1266, "pitch": 67, "duration": 6, "velocity": 101}, {"time": 1272, "pitch": 55, "duration": 2, "velocity": 109}, {"time": 1278, "pitch": 41, "duration": 18, "velocity": 99}, {"time": 1278, "pitch": 53, "duration": 10, "velocity": 91}, {"time": 1278, "pitch": 57, "duration": 6, "velocity": 99}, {"time": 1284, "pitch": 48, "duration": 11, "velocity": 51}, {"time": 1290, "pitch": 57, "duration": 5, "velocity": 115}, {"time": 1290, "pitch": 60, "duration": 5, "velocity": 104}, {"time": 1290, "pitch": 65, "duration": 6, "velocity": 94}, {"time": 1296, "pitch": 53, "duration": 2, "velocity": 94}, {"time": 1302, "pitch": 39, "duration": 8, "velocity": 110}, {"time": 1302, "pitch": 58, "duration": 7, "velocity": 99}, {"time": 1302, "pitch": 63, "duration": 6, "velocity": 96}, {"time": 1308, "pitch": 55, "duration": 4, "velocity": 87}, {"time": 1314, "pitch": 58, "duration": 6, "velocity": 117}, {"time": 1314, "pitch": 63, "duration": 6, "velocity": 110}, {"time": 1320, "pitch": 55, "duration": 5, "velocity": 109}, {"time": 1326, "pitch": 46, "duration": 16, "velocity": 107}, {"time": 1326, "pitch": 58, "duration": 4, "velocity": 107}, {"time": 1326, "pitch": 62, "duration": 4, "velocity": 109}, {"time": 1332, "pitch": 53, "duration": 7, "velocity": 46}, {"time": 1338, "pitch": 58, "duration": 3, "velocity": 107}, {"time": 1338, "pitch": 62, "duration": 6, "velocity": 109}, {"time": 1338, "pitch": 65, "duration": 6, "velocity": 106}, {"time": 1344, "pitch": 58, "duration": 1, "velocity": 107}, {"time": 1350, "pitch": 50, "duration": 15, "velocity": 112}, {"time": 1350, "pitch": 57, "duration": 4, "velocity": 101}, {"time": 1350, "pitch": 62, "duration": 6, "velocity": 112}, {"time": 1350, "pitch": 66, "duration": 9, "velocity": 101}, {"time": 1356, "pitch": 57, "duration": 4, "velocity": 101}, {"time": 1362, "pitch": 57, "duration": 3, "velocity": 112}, {"time": 1362, "pitch": 60, "duration": 6, "velocity": 112}, {"time": 1362, "pitch": 66, "duration": 6, "velocity": 110}, {"time": 1368, "pitch": 57, "duration": 2, "velocity": 104}, {"time": 1374, "pitch": 43, "duration": 22, "velocity": 104}, {"time": 1374, "pitch": 55, "duration": 5, "velocity": 99}, {"time": 1374, "pitch": 58, "duration": 8, "velocity": 104}, {"time": 1374, "pitch": 62, "duration": 9, "velocity": 106}, {"time": 1380, "pitch": 50, "duration": 14, "velocity": 51}, {"time": 1386, "pitch": 55, "duration": 2, "velocity": 104}, {"time": 1386, "pitch": 58, "duration": 6, "velocity": 117}, {"time": 1386, "pitch": 62, "duration": 11, "velocity": 112}, {"time": 1392, "pitch": 55, "duration": 2, "velocity": 99}, {"time": 1398, "pitch": 41, "duration": 19, "velocity": 96}, {"time": 1398, "pitch": 57, "duration": 3, "velocity": 106}, {"time": 1398, "pitch": 60, "duration": 10, "velocity": 101}, {"time": 1404, "pitch": 57, "duration": 5, "velocity": 96}, {"time": 1410, "pitch": 57, "duration": 3, "velocity": 106}, {"time": 1410, "pitch": 60, "duration": 9, "velocity": 104}, {"time": 1410, "pitch": 65, "duration": 10, "velocity": 106}, {"time": 1416, "pitch": 57, "duration": 3, "velocity": 94}, {"time": 1422, "pitch": 51, "duration": 16, "velocity": 104}, {"time": 1422, "pitch": 55, "duration": 3, "velocity": 99}, {"time": 1422, "pitch": 58, "duration": 8, "velocity": 96}, {"time": 1422, "pitch": 63, "duration": 8, "velocity": 101}, {"time": 1434, "pitch": 58, "duration": 6, "velocity": 107}, {"time": 1434, "pitch": 63, "duration": 7, "velocity": 99}, {"time": 1440, "pitch": 55, "duration": 2, "velocity": 106}, {"time": 1446, "pitch": 44, "duration": 14, "velocity": 88}, {"time": 1446, "pitch": 56, "duration": 8, "velocity": 91}, {"time": 1446, "pitch": 60, "duration": 7, "velocity": 99}, {"time": 1446, "pitch": 63, "duration": 9, "velocity": 99}, {"time": 1452, "pitch": 51, "duration": 9, "velocity": 70}, {"time": 1458, "pitch": 56, "duration": 4, "velocity": 113}, {"time": 1458, "pitch": 60, "duration": 4, "velocity": 106}, {"time": 1458, "pitch": 63, "duration": 5, "velocity": 117}, {"time": 1464, "pitch": 44, "duration": 1, "velocity": 110}, {"time": 1470, "pitch": 41, "duration": 15, "velocity": 99}, {"time": 1470, "pitch": 53, "duration": 3, "velocity": 82}, {"time": 1470, "pitch": 57, "duration": 7, "velocity": 104}, {"time": 1476, "pitch": 53, "duration": 5, "velocity": 89}, {"time": 1482, "pitch": 53, "duration": 2, "velocity": 106}, {"time": 1482, "pitch": 57, "duration": 7, "velocity": 115}, {"time": 1482, "pitch": 65, "duration": 11, "velocity": 106}, {"time": 1488, "pitch": 53, "duration": 2, "velocity": 106}, {"time": 1494, "pitch": 50, "duration": 14, "velocity": 104}, {"time": 1494, "pitch": 57, "duration": 4, "velocity": 89}, {"time": 1494, "pitch": 62, "duration": 8, "velocity": 104}, {"time": 1500, "pitch": 57, "duration": 4, "velocity": 85}, {"time": 1506, "pitch": 57, "duration": 2, "velocity": 106}, {"time": 1506, "pitch": 62, "duration": 6, "velocity": 109}, {"time": 1506, "pitch": 65, "duration": 10, "velocity": 101}, {"time": 1512, "pitch": 57, "duration": 2, "velocity": 96}, {"time": 1518, "pitch": 43, "duration": 18, "velocity": 99}, {"time": 1518, "pitch": 55, "duration": 7, "velocity": 91}, {"time": 1518, "pitch": 58, "duration": 7, "velocity": 77}, {"time": 1518, "pitch": 62, "duration": 7, "velocity": 99}, {"time": 1524, "pitch": 50, "duration": 7, "velocity": 43}, {"time": 1530, "pitch": 58, "duration": 4, "velocity": 117}, {"time": 1530, "pitch": 62, "duration": 6, "velocity": 109}, {"time": 1542, "pitch": 43, "duration": 17, "velocity": 91}, {"time": 1542, "pitch": 58, "duration": 7, "velocity": 110}, {"time": 1542, "pitch": 62, "duration": 7, "velocity": 106}, {"time": 1542, "pitch": 67, "duration": 7, "velocity": 104}, {"time": 1548, "pitch": 55, "duration": 4, "velocity": 42}, {"time": 1554, "pitch": 58, "duration": 10, "velocity": 117}, {"time": 1554, "pitch": 62, "duration": 11, "velocity": 104}, {"time": 1560, "pitch": 55, "duration": 5, "velocity": 76}, {"time": 1566, "pitch": 43, "duration": 21, "velocity": 89}, {"time": 1569, "pitch": 50, "duration": 15, "velocity": 73}, {"time": 1572, "pitch": 55, "duration": 21, "velocity": 87}, {"time": 1575, "pitch": 62, "duration": 34, "velocity": 104}, {"time": 1590, "pitch": 43, "duration": 14, "velocity": 76}, {"time": 1593, "pitch": 50, "duration": 10, "velocity": 80}, {"time": 1596, "pitch": 55, "duration": 12, "velocity": 101}, {"time": 1599, "pitch": 67, "duration": 16, "velocity": 101}, {"time": 1614, "pitch": 48, "duration": 21, "velocity": 94}, {"time": 1617, "pitch": 55, "duration": 19, "velocity": 78}, {"time": 1620, "pitch": 60, "duration": 21, "velocity": 87}, {"time": 1623, "pitch": 67, "duration": 22, "velocity": 91}, {"time": 1638, "pitch": 48, "duration": 15, "velocity": 82}, {"time": 1641, "pitch": 55, "duration": 12, "velocity": 87}, {"time": 1644, "pitch": 60, "duration": 2, "velocity": 94}, {"time": 1647, "pitch": 60, "duration": 8, "velocity": 94}, {"time": 1647, "pitch": 63, "duration": 7, "velocity": 104}, {"time": 1662, "pitch": 39, "duration": 14, "velocity": 104}, {"time": 1665, "pitch": 46, "duration": 12, "velocity": 58}, {"time": 1668, "pitch": 55, "duration": 9, "velocity": 74}, {"time": 1671, "pitch": 58, "duration": 9, "velocity": 96}, {"time": 1677, "pitch": 63, "duration": 5, "velocity": 88}, {"time": 1680, "pitch": 55, "duration": 2, "velocity": 47}, {"time": 1686, "pitch": 41, "duration": 19, "velocity": 96}, {"time": 1686, "pitch": 53, "duration": 3, "velocity": 85}, {"time": 1686, "pitch": 57, "duration": 7, "velocity": 87}, {"time": 1689, "pitch": 48, "duration": 16, "velocity": 67}, {"time": 1692, "pitch": 53, "duration": 14, "velocity": 87}, {"time": 1695, "pitch": 60, "duration": 14, "velocity": 55}, {"time": 1710, "pitch": 43, "duration": 23, "velocity": 96}, {"time": 1713, "pitch": 50, "duration": 20, "velocity": 69}, {"time": 1716, "pitch": 55, "duration": 22, "velocity": 89}, {"time": 1719, "pitch": 62, "duration": 33, "velocity": 101}, {"time": 1734, "pitch": 43, "duration": 21, "velocity": 82}, {"time": 1737, "pitch": 50, "duration": 15, "velocity": 71}, {"time": 1740, "pitch": 55, "duration": 12, "velocity": 74}, {"time": 1743, "pitch": 67, "duration": 9, "velocity": 101}, {"time": 1758, "pitch": 43, "duration": 44, "velocity": 85}, {"time": 1758, "pitch": 55, "duration": 7, "velocity": 64}, {"time": 1758, "pitch": 58, "duration": 7, "velocity": 63}, {"time": 1758, "pitch": 62, "duration": 7, "velocity": 99}, {"time": 1764, "pitch": 50, "duration": 19, "velocity": 37}, {"time": 1770, "pitch": 58, "duration": 6, "velocity": 104}, {"time": 1770, "pitch": 62, "duration": 5, "velocity": 101}, {"time": 1782, "pitch": 58, "duration": 9, "velocity": 96}, {"time": 1782, "pitch": 62, "duration": 8, "velocity": 94}, {"time": 1788, "pitch": 50, "duration": 9, "velocity": 28}, {"time": 1794, "pitch": 58, "duration": 6, "velocity": 101}, {"time": 1794, "pitch": 62, "duration": 6, "velocity": 99}, {"time": 1800, "pitch": 55, "duration": 3, "velocity": 54}, {"time": 1806, "pitch": 48, "duration": 17, "velocity": 96}, {"time": 1806, "pitch": 55, "duration": 4, "velocity": 82}, {"time": 1806, "pitch": 60, "duration": 8, "velocity": 94}, {"time": 1812, "pitch": 55, "duration": 4, "velocity": 59}, {"time": 1818, "pitch": 60, "duration": 4, "velocity": 104}, {"time": 1818, "pitch": 63, "duration": 5, "velocity": 110}, {"time": 1830, "pitch": 43, "duration": 16, "velocity": 78}, {"time": 1830, "pitch": 58, "duration": 9, "velocity": 77}, {"time": 1830, "pitch": 62, "duration": 8, "velocity": 101}, {"time": 1836, "pitch": 50, "duration": 9, "velocity": 48}, {"time": 1842, "pitch": 58, "duration": 6, "velocity": 113}, {"time": 1842, "pitch": 62, "duration": 6, "velocity": 101}, {"time": 1848, "pitch": 55, "duration": 6, "velocity": 80}, {"time": 1854, "pitch": 39, "duration": 11, "velocity": 86}, {"time": 1854, "pitch": 58, "duration": 7, "velocity": 101}, {"time": 1854, "pitch": 63, "duration": 7, "velocity": 96}, {"time": 1860, "pitch": 55, "duration": 7, "velocity": 73}, {"time": 1866, "pitch": 58, "duration": 4, "velocity": 113}, {"time": 1866, "pitch": 63, "duration": 5, "velocity": 110}, {"time": 1878, "pitch": 41, "duration": 16, "velocity": 91}, {"time": 1878, "pitch": 57, "duration": 3, "velocity": 85}, {"time": 1878, "pitch": 60, "duration": 8, "velocity": 82}, {"time": 1884, "pitch": 57, "duration": 5, "velocity": 94}, {"time": 1890, "pitch": 60, "duration": 6, "velocity": 99}, {"time": 1890, "pitch": 65, "duration": 8, "velocity": 101}, {"time": 1896, "pitch": 57, "duration": 3, "velocity": 99}, {"time": 1902, "pitch": 46, "duration": 16, "velocity": 77}, {"time": 1902, "pitch": 58, "duration": 6, "velocity": 88}, {"time": 1902, "pitch": 62, "duration": 6, "velocity": 101}, {"time": 1908, "pitch": 53, "duration": 8, "velocity": 44}, {"time": 1914, "pitch": 58, "duration": 3, "velocity": 110}, {"time": 1914, "pitch": 62, "duration": 4, "velocity": 101}, {"time": 1926, "pitch": 38, "duration": 9, "velocity": 80}, {"time": 1926, "pitch": 57, "duration": 3, "velocity": 87}, {"time": 1926, "pitch": 62, "duration": 9, "velocity": 99}, {"time": 1932, "pitch": 57, "duration": 3, "velocity": 87}, {"time": 1938, "pitch": 57, "duration": 6, "velocity": 104}, {"time": 1938, "pitch": 62, "duration": 4, "velocity": 112}, {"time": 1938, "pitch": 66, "duration": 4, "velocity": 110}, {"time": 1950, "pitch": 43, "duration": 31, "velocity": 94}, {"time": 1950, "pitch": 55, "duration": 10, "velocity": 91}, {"time": 1950, "pitch": 58, "duration": 6, "velocity": 99}, {"time": 1950, "pitch": 62, "duration": 7, "velocity": 104}, {"time": 1956, "pitch": 50, "duration": 17, "velocity": 18}, {"time": 1962, "pitch": 58, "duration": 2, "velocity": 104}, {"time": 1962, "pitch": 62, "duration": 2, "velocity": 101}, {"time": 1974, "pitch": 58, "duration": 7, "velocity": 110}, {"time": 1974, "pitch": 62, "duration": 5, "velocity": 104}, {"time": 1980, "pitch": 55, "duration": 3, "velocity": 64}, {"time": 1986, "pitch": 58, "duration": 7, "velocity": 113}, {"time": 1986, "pitch": 62, "duration": 7, "velocity": 104}, {"time": 1992, "pitch": 55, "duration": 5, "velocity": 96}, {"time": 1998, "pitch": 39, "duration": 13, "velocity": 88}, {"time": 1998, "pitch": 58, "duration": 7, "velocity": 99}, {"time": 1998, "pitch": 63, "duration": 8, "velocity": 86}, {"time": 2004, "pitch": 55, "duration": 1, "velocity": 23}, {"time": 2010, "pitch": 58, "duration": 5, "velocity": 110}, {"time": 2010, "pitch": 63, "duration": 6, "velocity": 93}, {"time": 2022, "pitch": 48, "duration": 16, "velocity": 80}, {"time": 2022, "pitch": 55, "duration": 4, "velocity": 85}, {"time": 2022, "pitch": 60, "duration": 8, "velocity": 78}, {"time": 2022, "pitch": 63, "duration": 8, "velocity": 72}, {"time": 2028, "pitch": 55, "duration": 4, "velocity": 76}, {"time": 2034, "pitch": 60, "duration": 6, "velocity": 104}, {"time": 2034, "pitch": 63, "duration": 6, "velocity": 113}, {"time": 2046, "pitch": 50, "duration": 23, "velocity": 96}, {"time": 2046, "pitch": 57, "duration": 3, "velocity": 96}, {"time": 2046, "pitch": 62, "duration": 8, "velocity": 104}, {"time": 2052, "pitch": 57, "duration": 2, "velocity": 38}, {"time": 2058, "pitch": 57, "duration": 3, "velocity": 96}, {"time": 2058, "pitch": 62, "duration": 5, "velocity": 106}, {"time": 2058, "pitch": 65, "duration": 6, "velocity": 99}, {"time": 2070, "pitch": 50, "duration": 15, "velocity": 99}, {"time": 2070, "pitch": 57, "duration": 3, "velocity": 87}, {"time": 2070, "pitch": 62, "duration": 7, "velocity": 91}, {"time": 2076, "pitch": 57, "duration": 1, "velocity": 61}, {"time": 2082, "pitch": 57, "duration": 2, "velocity": 101}, {"time": 2082, "pitch": 62, "duration": 5, "velocity": 109}, {"time": 2082, "pitch": 65, "duration": 7, "velocity": 104}, {"time": 2088, "pitch": 57, "duration": 2, "velocity": 104}, {"time": 2094, "pitch": 43, "duration": 48, "velocity": 96}, {"time": 2094, "pitch": 55, "duration": 10, "velocity": 73}, {"time": 2094, "pitch": 58, "duration": 9, "velocity": 99}, {"time": 2094, "pitch": 62, "duration": 8, "velocity": 85}, {"time": 2100, "pitch": 50, "duration": 41, "velocity": 73}, {"time": 2106, "pitch": 58, "duration": 4, "velocity": 117}, {"time": 2106, "pitch": 62, "duration": 5, "velocity": 106}, {"time": 2118, "pitch": 58, "duration": 9, "velocity": 110}, {"time": 2118, "pitch": 62, "duration": 10, "velocity": 104}, {"time": 2124, "pitch": 55, "duration": 7, "velocity": 89}, {"time": 2130, "pitch": 58, "duration": 12, "velocity": 101}, {"time": 2130, "pitch": 62, "duration": 12, "velocity": 106}, {"time": 2130, "pitch": 67, "duration": 12, "velocity": 99}, {"time": 2136, "pitch": 55, "duration": 5, "velocity": 101}, {"time": 2142, "pitch": 43, "duration": 44, "velocity": 85}, {"time": 2142, "pitch": 55, "duration": 7, "velocity": 64}, {"time": 2142, "pitch": 58, "duration": 7, "velocity": 63}, {"time": 2142, "pitch": 62, "duration": 7, "velocity": 99}, {"time": 2148, "pitch": 50, "duration": 19, "velocity": 37}, {"time": 2154, "pitch": 58, "duration": 6, "velocity": 104}, {"time": 2154, "pitch": 62, "duration": 5, "velocity": 101}, {"time": 2166, "pitch": 58, "duration": 9, "velocity": 96}, {"time": 2166, "pitch": 62, "duration": 8, "velocity": 94}, {"time": 2172, "pitch": 50, "duration": 9, "velocity": 28}, {"time": 2178, "pitch": 58, "duration": 6, "velocity": 101}, {"time": 2178, "pitch": 62, "duration": 6, "velocity": 99}, {"time": 2184, "pitch": 55, "duration": 3, "velocity": 54}, {"time": 2190, "pitch": 48, "duration": 17, "velocity": 96}, {"time": 2190, "pitch": 55, "duration": 4, "velocity": 82}, {"time": 2190, "pitch": 60, "duration": 8, "velocity": 94}, {"time": 2196, "pitch": 55, "duration": 4, "velocity": 59}, {"time": 2202, "pitch": 60, "duration": 4, "velocity": 104}, {"time": 2202, "pitch": 63, "duration": 5, "velocity": 110}, {"time": 2214, "pitch": 43, "duration": 16, "velocity": 78}, {"time": 2214, "pitch": 58, "duration": 9, "velocity": 77}, {"time": 2214, "pitch": 62, "duration": 8, "velocity": 101}, {"time": 2220, "pitch": 50, "duration": 9, "velocity": 48}, {"time": 2226, "pitch": 58, "duration": 6, "velocity": 113}, {"time": 2226, "pitch": 62, "duration": 6, "velocity": 101}, {"time": 2232, "pitch": 55, "duration": 6, "velocity": 80}, {"time": 2238, "pitch": 39, "duration": 11, "velocity": 86}, {"time": 2238, "pitch": 58, "duration": 7, "velocity": 101}, {"time": 2238, "pitch": 63, "duration": 7, "velocity": 96}, {"time": 2244, "pitch": 55, "duration": 7, "velocity": 73}, {"time": 2250, "pitch": 58, "duration": 4, "velocity": 113}, {"time": 2250, "pitch": 63, "duration": 5, "velocity": 110}, {"time": 2262, "pitch": 41, "duration": 16, "velocity": 91}, {"time": 2262, "pitch": 57, "duration": 3, "velocity": 85}, {"time": 2262, "pitch": 60, "duration": 8, "velocity": 82}, {"time": 2268, "pitch": 57, "duration": 5, "velocity": 94}, {"time": 2274, "pitch": 60, "duration": 6, "velocity": 99}, {"time": 2274, "pitch": 65, "duration": 8, "velocity": 101}, {"time": 2280, "pitch": 57, "duration": 3, "velocity": 99}, {"time": 2286, "pitch": 46, "duration": 16, "velocity": 77}, {"time": 2286, "pitch": 58, "duration": 6, "velocity": 88}, {"time": 2286, "pitch": 62, "duration": 6, "velocity": 101}, {"time": 2292, "pitch": 53, "duration": 8, "velocity": 44}, {"time": 2298, "pitch": 58, "duration": 3, "velocity": 110}, {"time": 2298, "pitch": 62, "duration": 4, "velocity": 101}, {"time": 2310, "pitch": 38, "duration": 9, "velocity": 80}, {"time": 2310, "pitch": 57, "duration": 3, "velocity": 87}, {"time": 2310, "pitch": 62, "duration": 9, "velocity": 99}, {"time": 2316, "pitch": 57, "duration": 3, "velocity": 87}, {"time": 2322, "pitch": 57, "duration": 6, "velocity": 104}, {"time": 2322, "pitch": 62, "duration": 4, "velocity": 112}, {"time": 2322, "pitch": 66, "duration": 4, "velocity": 110}, {"time": 2334, "pitch": 43, "duration": 31, "velocity": 94}, {"time": 2334, "pitch": 55, "duration": 10, "velocity": 91}, {"time": 2334, "pitch": 58, "duration": 6, "velocity": 99}, {"time": 2334, "pitch": 62, "duration": 7, "velocity": 104}, {"time": 2340, "pitch": 50, "duration": 17, "velocity": 18}, {"time": 2346, "pitch": 58, "duration": 2, "velocity": 104}, {"time": 2346, "pitch": 62, "duration": 2, "velocity": 101}, {"time": 2358, "pitch": 58, "duration": 7, "velocity": 110}, {"time": 2358, "pitch": 62, "duration": 5, "velocity": 104}, {"time": 2364, "pitch": 55, "duration": 3, "velocity": 64}, {"time": 2370, "pitch": 58, "duration": 7, "velocity": 113}, {"time": 2370, "pitch": 62, "duration": 7, "velocity": 104}, {"time": 2376, "pitch": 55, "duration": 5, "velocity": 96}, {"time": 2382, "pitch": 39, "duration": 13, "velocity": 88}, {"time": 2382, "pitch": 58, "duration": 7, "velocity": 99}, {"time": 2382, "pitch": 63, "duration": 8, "velocity": 86}, {"time": 2388, "pitch": 55, "duration": 1, "velocity": 23}, {"time": 2394, "pitch": 58, "duration": 5, "velocity": 110}, {"time": 2394, "pitch": 63, "duration": 6, "velocity": 93}, {"time": 2406, "pitch": 48, "duration": 16, "velocity": 80}, {"time": 2406, "pitch": 55, "duration": 4, "velocity": 85}, {"time": 2406, "pitch": 60, "duration": 8, "velocity": 78}, {"time": 2406, "pitch": 63, "duration": 8, "velocity": 72}, {"time": 2412, "pitch": 55, "duration": 4, "velocity": 76}, {"time": 2418, "pitch": 60, "duration": 6, "velocity": 104}, {"time": 2418, "pitch": 63, "duration": 6, "velocity": 113}, {"time": 2430, "pitch": 50, "duration": 23, "velocity": 96}, {"time": 2430, "pitch": 57, "duration": 3, "velocity": 96}, {"time": 2430, "pitch": 62, "duration": 8, "velocity": 104}, {"time": 2436, "pitch": 57, "duration": 2, "velocity": 38}, {"time": 2442, "pitch": 57, "duration": 3, "velocity": 96}, {"time": 2442, "pitch": 62, "duration": 5, "velocity": 106}, {"time": 2442, "pitch": 65, "duration": 6, "velocity": 99}, {"time": 2454, "pitch": 50, "duration": 15, "velocity": 99}, {"time": 2454, "pitch": 57, "duration": 3, "velocity": 87}, {"time": 2454, "pitch": 62, "duration": 7, "velocity": 91}, {"time": 2460, "pitch": 57, "duration": 1, "velocity": 61}, {"time": 2466, "pitch": 57, "duration": 2, "velocity": 101}, {"time": 2466, "pitch": 62, "duration": 5, "velocity": 109}, {"time": 2466, "pitch": 65, "duration": 7, "velocity": 104}, {"time": 2472, "pitch": 57, "duration": 2, "velocity": 104}, {"time": 2478, "pitch": 43, "duration": 48, "velocity": 96}, {"time": 2478, "pitch": 55, "duration": 10, "velocity": 73}, {"time": 2478, "pitch": 58, "duration": 9, "velocity": 99}, {"time": 2478, "pitch": 62, "duration": 8, "velocity": 85}, {"time": 2484, "pitch": 50, "duration": 41, "velocity": 73}, {"time": 2490, "pitch": 58, "duration": 4, "velocity": 117}, {"time": 2490, "pitch": 62, "duration": 5, "velocity": 106}, {"time": 2502, "pitch": 58, "duration": 9, "velocity": 110}, {"time": 2502, "pitch": 62, "duration": 10, "velocity": 104}, {"time": 2508, "pitch": 55, "duration": 7, "velocity": 89}, {"time": 2514, "pitch": 58, "duration": 12, "velocity": 101}, {"time": 2514, "pitch": 62, "duration": 12, "velocity": 106}, {"time": 2514, "pitch": 67, "duration": 12, "velocity": 99}, {"time": 2520, "pitch": 55, "duration": 5, "velocity": 101}, {"time": 2526, "pitch": 50, "duration": 18, "velocity": 104}, {"time": 2526, "pitch": 57, "duration": 3, "velocity": 104}, {"time": 2526, "pitch": 62, "duration": 8, "velocity": 109}, {"time": 2526, "pitch": 65, "duration": 8, "velocity": 104}, {"time": 2532, "pitch": 57, "duration": 3, "velocity": 73}, {"time": 2538, "pitch": 57, "duration": 3, "velocity": 104}, {"time": 2538, "pitch": 62, "duration": 7, "velocity": 106}, {"time": 2538, "pitch": 69, "duration": 6, "velocity": 91}, {"time": 2544, "pitch": 57, "duration": 3, "velocity": 99}, {"time": 2550, "pitch": 43, "duration": 18, "velocity": 82}, {"time": 2550, "pitch": 55, "duration": 6, "velocity": 94}, {"time": 2550, "pitch": 58, "duration": 5, "velocity": 88}, {"time": 2550, "pitch": 62, "duration": 7, "velocity": 94}, {"time": 2556, "pitch": 50, "duration": 12, "velocity": 85}, {"time": 2562, "pitch": 55, "duration": 3, "velocity": 106}, {"time": 2562, "pitch": 58, "duration": 6, "velocity": 113}, {"time": 2562, "pitch": 62, "duration": 5, "velocity": 106}, {"time": 2574, "pitch": 39, "duration": 13, "velocity": 81}, {"time": 2574, "pitch": 55, "duration": 2, "velocity": 91}, {"time": 2574, "pitch": 58, "duration": 7, "velocity": 101}, {"time": 2574, "pitch": 63, "duration": 7, "velocity": 99}, {"time": 2586, "pitch": 58, "duration": 2, "velocity": 117}, {"time": 2586, "pitch": 63, "duration": 3, "velocity": 117}, {"time": 2598, "pitch": 58, "duration": 5, "velocity": 99}, {"time": 2598, "pitch": 63, "duration": 5, "velocity": 107}, {"time": 2604, "pitch": 55, "duration": 5, "velocity": 66}, {"time": 2610, "pitch": 58, "duration": 6, "velocity": 113}, {"time": 2610, "pitch": 63, "duration": 6, "velocity": 107}, {"time": 2610, "pitch": 67, "duration": 6, "velocity": 101}, {"time": 2616, "pitch": 55, "duration": 2, "velocity": 109}, {"time": 2622, "pitch": 41, "duration": 18, "velocity": 99}, {"time": 2622, "pitch": 53, "duration": 10, "velocity": 91}, {"time": 2622, "pitch": 57, "duration": 6, "velocity": 99}, {"time": 2628, "pitch": 48, "duration": 11, "velocity": 51}, {"time": 2634, "pitch": 57, "duration": 5, "velocity": 115}, {"time": 2634, "pitch": 60, "duration": 5, "velocity": 104}, {"time": 2634, "pitch": 65, "duration": 6, "velocity": 94}, {"time": 2640, "pitch": 53, "duration": 2, "velocity": 94}, {"time": 2646, "pitch": 39, "duration": 8, "velocity": 110}, {"time": 2646, "pitch": 58, "duration": 7, "velocity": 99}, {"time": 2646, "pitch": 63, "duration": 6, "velocity": 96}, {"time": 2652, "pitch": 55, "duration": 4, "velocity": 87}, {"time": 2658, "pitch": 58, "duration": 6, "velocity": 117}, {"time": 2658, "pitch": 63, "duration": 6, "velocity": 110}, {"time": 2664, "pitch": 55, "duration": 5, "velocity": 109}, {"time": 2670, "pitch": 46, "duration": 16, "velocity": 107}, {"time": 2670, "pitch": 58, "duration": 4, "velocity": 107}, {"time": 2670, "pitch": 62, "duration": 4, "velocity": 109}, {"time": 2676, "pitch": 53, "duration": 7, "velocity": 46}, {"time": 2682, "pitch": 58, "duration": 3, "velocity": 107}, {"time": 2682, "pitch": 62, "duration": 6, "velocity": 109}, {"time": 2682, "pitch": 65, "duration": 6, "velocity": 106}, {"time": 2688, "pitch": 58, "duration": 1, "velocity": 107}, {"time": 2694, "pitch": 50, "duration": 15, "velocity": 112}, {"time": 2694, "pitch": 57, "duration": 4, "velocity": 101}, {"time": 2694, "pitch": 62, "duration": 6, "velocity": 112}, {"time": 2694, "pitch": 66, "duration": 9, "velocity": 101}, {"time": 2700, "pitch": 57, "duration": 4, "velocity": 101}, {"time": 2706, "pitch": 57, "duration": 3, "velocity": 112}, {"time": 2706, "pitch": 60, "duration": 6, "velocity": 112}, {"time": 2706, "pitch": 66, "duration": 6, "velocity": 110}, {"time": 2712, "pitch": 57, "duration": 2, "velocity": 104}, {"time": 2718, "pitch": 43, "duration": 22, "velocity": 104}, {"time": 2718, "pitch": 55, "duration": 5, "velocity": 99}, {"time": 2718, "pitch": 58, "duration": 8, "velocity": 104}, {"time": 2718, "pitch": 62, "duration": 9, "velocity": 106}, {"time": 2724, "pitch": 50, "duration": 14, "velocity": 51}, {"time": 2730, "pitch": 55, "duration": 2, "velocity": 104}, {"time": 2730, "pitch": 58, "duration": 6, "velocity": 117}, {"time": 2730, "pitch": 62, "duration": 11, "velocity": 112}, {"time": 2736, "pitch": 55, "duration": 2, "velocity": 99}, {"time": 2742, "pitch": 41, "duration": 19, "velocity": 96}, {"time": 2742, "pitch": 57, "duration": 3, "velocity": 106}, {"time": 2742, "pitch": 60, "duration": 10, "velocity": 101}, {"time": 2748, "pitch": 57, "duration": 5, "velocity": 96}, {"time": 2754, "pitch": 57, "duration": 3, "velocity": 106}, {"time": 2754, "pitch": 60, "duration": 9, "velocity": 104}, {"time": 2754, "pitch": 65, "duration": 10, "velocity": 106}, {"time": 2760, "pitch": 57, "duration": 3, "velocity": 94}, {"time": 2766, "pitch": 51, "duration": 16, "velocity": 104}, {"time": 2766, "pitch": 55, "duration": 3, "velocity": 99}, {"time": 2766, "pitch": 58, "duration": 8, "velocity": 96}, {"time": 2766, "pitch": 63, "duration": 8, "velocity": 101}, {"time": 2778, "pitch": 58, "duration": 6, "velocity": 107}, {"time": 2778, "pitch": 63, "duration": 7, "velocity": 99}, {"time": 2784, "pitch": 55, "duration": 2, "velocity": 106}, {"time": 2790, "pitch": 44, "duration": 14, "velocity": 88}, {"time": 2790, "pitch": 56, "duration": 8, "velocity": 91}, {"time": 2790, "pitch": 60, "duration": 7, "velocity": 99}, {"time": 2790, "pitch": 63, "duration": 9, "velocity": 99}, {"time": 2796, "pitch": 51, "duration": 9, "velocity": 70}, {"time": 2802, "pitch": 56, "duration": 4, "velocity": 113}, {"time": 2802, "pitch": 60, "duration": 4, "velocity": 106}, {"time": 2802, "pitch": 63, "duration": 5, "velocity": 117}, {"time": 2808, "pitch": 44, "duration": 1, "velocity": 110}, {"time": 2814, "pitch": 41, "duration": 15, "velocity": 99}, {"time": 2814, "pitch": 53, "duration": 3, "velocity": 82}, {"time": 2814, "pitch": 57, "duration": 7, "velocity": 104}, {"time": 2820, "pitch": 53, "duration": 5, "velocity": 89}, {"time": 2826, "pitch": 53, "duration": 2, "velocity": 106}, {"time": 2826, "pitch": 57, "duration": 7, "velocity": 115}, {"time": 2826, "pitch": 65, "duration": 11, "velocity": 106}, {"time": 2832, "pitch": 53, "duration": 2, "velocity": 106}, {"time": 2838, "pitch": 50, "duration": 14, "velocity": 104}, {"time": 2838, "pitch": 57, "duration": 4, "velocity": 89}, {"time": 2838, "pitch": 62, "duration": 8, "velocity": 104}, {"time": 2844, "pitch": 57, "duration": 4, "velocity": 85}, {"time": 2850, "pitch": 57, "duration": 2, "velocity": 106}, {"time": 2850, "pitch": 62, "duration": 6, "velocity": 109}, {"time": 2850, "pitch": 65, "duration": 10, "velocity": 101}, {"time": 2856, "pitch": 57, "duration": 2, "velocity": 96}, {"time": 2862, "pitch": 43, "duration": 18, "velocity": 99}, {"time": 2862, "pitch": 55, "duration": 7, "velocity": 91}, {"time": 2862, "pitch": 58, "duration": 7, "velocity": 77}, {"time": 2862, "pitch": 62, "duration": 7, "velocity": 99}, {"time": 2868, "pitch": 50, "duration": 7, "velocity": 43}, {"time": 2874, "pitch": 58, "duration": 4, "velocity": 117}, {"time": 2874, "pitch": 62, "duration": 6, "velocity": 109}, {"time": 2886, "pitch": 43, "duration": 17, "velocity": 91}, {"time": 2886, "pitch": 58, "duration": 7, "velocity": 110}, {"time": 2886, "pitch": 62, "duration": 7, "velocity": 106}, {"time": 2886, "pitch": 67, "duration": 7, "velocity": 104}, {"time": 2892, "pitch": 55, "duration": 4, "velocity": 42}, {"time": 2898, "pitch": 58, "duration": 10, "velocity": 117}, {"time": 2898, "pitch": 62, "duration": 11, "velocity": 104}, {"time": 2904, "pitch": 55, "duration": 5, "velocity": 76}, {"time": 2910, "pitch": 41, "duration": 15, "velocity": 99}, {"time": 2910, "pitch": 53, "duration": 3, "velocity": 82}, {"time": 2910, "pitch": 57, "duration": 7, "velocity": 104}, {"time": 2916, "pitch": 53, "duration": 5, "velocity": 89}, {"time": 2922, "pitch": 53, "duration": 2, "velocity": 106}, {"time": 2922, "pitch": 57, "duration": 7, "velocity": 115}, {"time": 2922, "pitch": 65, "duration": 11, "velocity": 106}, {"time": 2928, "pitch": 53, "duration": 2, "velocity": 106}, {"time": 2934, "pitch": 50, "duration": 14, "velocity": 104}, {"time": 2934, "pitch": 57, "duration": 4, "velocity": 89}, {"time": 2934, "pitch": 62, "duration": 8, "velocity": 104}, {"time": 2940, "pitch": 57, "duration": 4, "velocity": 85}, {"time": 2946, "pitch": 57, "duration": 2, "velocity": 106}, {"time": 2946, "pitch": 62, "duration": 6, "velocity": 109}, {"time": 2946, "pitch": 65, "duration": 10, "velocity": 101}, {"time": 2952, "pitch": 57, "duration": 2, "velocity": 96}, {"time": 2957, "pitch": 62, "duration": 14, "velocity": 82}, {"time": 2957, "pitch": 65, "duration": 13, "velocity": 91}, {"time": 2958, "pitch": 50, "duration": 10, "velocity": 87}, {"time": 2959, "pitch": 69, "duration": 12, "velocity": 67}, {"time": 2982, "pitch": 43, "duration": 45, "velocity": 96}, {"time": 2982, "pitch": 55, "duration": 10, "velocity": 82}, {"time": 2982, "pitch": 58, "duration": 7, "velocity": 79}, {"time": 2982, "pitch": 62, "duration": 7, "velocity": 89}, {"time": 2988, "pitch": 50, "duration": 6, "velocity": 16}, {"time": 2994, "pitch": 58, "duration": 2, "velocity": 107}, {"time": 2994, "pitch": 62, "duration": 6, "velocity": 104}, {"time": 3006, "pitch": 58, "duration": 6, "velocity": 96}, {"time": 3006, "pitch": 62, "duration": 6, "velocity": 101}, {"time": 3006, "pitch": 67, "duration": 5, "velocity": 99}, {"time": 3018, "pitch": 58, "duration": 10, "velocity": 113}, {"time": 3018, "pitch": 62, "duration": 11, "velocity": 106}, {"time": 3024, "pitch": 50, "duration": 5, "velocity": 80}, {"time": 3028, "pitch": 55, "duration": 45, "velocity": 80}, {"time": 3029, "pitch": 43, "duration": 44, "velocity": 74}, {"time": 3029, "pitch": 58, "duration": 44, "velocity": 99}, {"time": 3030, "pitch": 62, "duration": 43, "velocity": 82}, {"time": 3030, "pitch": 67, "duration": 43, "velocity": 76}], "annotations": [{"time": 32, "annotation": {"number": 64, "value": 127}, "group": "control_change"}, {"time": 56, "annotation": {"number": 64, "value": 0}, "group": "control_change"}, {"time": 59, "annotation": {"number": 64, "value": 127}, "group": "control_change"}, {"time": 78, "annotation": {"number": 64, "value": 0}, "group": "control_change"}, {"time": 81, "annotation": {"number": 64, "value": 127}, "group": "control_change"}, {"time": 104, "annotation": {"number": 64, "value": 0}, "group": "control_change"}, {"time": 105, "annotation": {"number": 64, "value": 127}, "group": "control_change"}, {"time": 126, "annotation": {"number": 64, "value": 0}, "group": "control_change"}, {"time": 128, "annotation": {"number": 64, "value": 127}, "group": "control_change"}, {"time": 150, "annotation": {"number": 64, "value": 0}, "group": "control_change"}, {"time": 154, "annotation": {"number": 64, "value": 127}, "group": "control_change"}, {"time": 173, "annotation": {"number": 64, "value": 0}, "group": "control_change"}, {"time": 177, "annotation": {"number": 64, "value": 127}, "group": "control_change"}, {"time": 201, "annotation": {"number": 64, "value": 0}, "group": "control_change"}, {"time": 203, "annotation": {"number": 64, "value": 127}, "group": "control_change"}, {"time": 221, "annotation": {"number": 64, "value": 0}, "group": "control_change"}, {"time": 224, "annotation": {"number": 64, "value": 127}, "group": "control_change"}, {"time": 248, "annotation": {"number": 64, "value": 0}, "group": "control_change"}, {"time": 251, "annotation": {"number": 64, "value": 127}, "group": "control_change"}, {"time": 270, "annotation": {"number": 64, "value": 0}, "group": "control_change"}, {"time": 273, "annotation": {"number": 64, "value": 127}, "group": "control_change"}, {"time": 296, "annotation": {"number": 64, "value": 0}, "group": "control_change"}, {"time": 297, "annotation": {"number": 64, "value": 127}, "group": "control_change"}, {"time": 318, "annotation": {"number": 64, "value": 0}, "group": "control_change"}, {"time": 320, "annotation": {"number": 64, "value": 127}, "group": "control_change"}, {"time": 342, "annotation": {"number": 64, "value": 0}, "group": "control_change"}, {"time": 346, "annotation": {"number": 64, "value": 127}, "group": "control_change"}, {"time": 365, "annotation": {"number": 64, "value": 0}, "group": "control_change"}, {"time": 369, "annotation": {"number": 64, "value": 127}, "group": "control_change"}, {"time": 393, "annotation": {"number": 64, "value": 0}, "group": "control_change"}, {"time": 395, "annotation": {"number": 64, "value": 127}, "group": "control_change"}, {"time": 413, "annotation": {"number": 64, "value": 0}, "group": "control_change"}, {"time": 416, "annotation": {"number": 64, "value": 127}, "group": "control_change"}, {"time": 441, "annotation": {"number": 64, "value": 0}, "group": "control_change"}, {"time": 445, "annotation": {"number": 64, "value": 127}, "group": "control_change"}, {"time": 463, "annotation": {"number": 64, "value": 0}, "group": "control_change"}, {"time": 468, "annotation": {"number": 64, "value": 127}, "group": "control_change"}, {"time": 485, "annotation": {"number": 64, "value": 0}, "group": "control_change"}, {"time": 493, "annotation": {"number": 64, "value": 127}, "group": "control_change"}, {"time": 509, "annotation": {"number": 64, "value": 0}, "group": "control_change"}, {"time": 512, "annotation": {"number": 64, "value": 127}, "group": "control_change"}, {"time": 533, "annotation": {"number": 64, "value": 0}, "group": "control_change"}, {"time": 537, "annotation": {"number": 64, "value": 127}, "group": "control_change"}, {"time": 557, "annotation": {"number": 64, "value": 0}, "group": "control_change"}, {"time": 563, "annotation": {"number": 64, "value": 127}, "group": "control_change"}, {"time": 581, "annotation": {"number": 64, "value": 0}, "group": "control_change"}, {"time": 583, "annotation": {"number": 64, "value": 127}, "group": "control_change"}, {"time": 605, "annotation": {"number": 64, "value": 0}, "group": "control_change"}, {"time": 612, "annotation": {"number": 64, "value": 127}, "group": "control_change"}, {"time": 644, "annotation": {"number": 64, "value": 0}, "group": "control_change"}, {"time": 646, "annotation": {"number": 64, "value": 127}, "group": "control_change"}, {"time": 652, "annotation": {"number": 64, "value": 0}, "group": "control_change"}, {"time": 656, "annotation": {"number": 64, "value": 127}, "group": "control_change"}, {"time": 677, "annotation": {"number": 64, "value": 0}, "group": "control_change"}, {"time": 682, "annotation": {"number": 64, "value": 127}, "group": "control_change"}, {"time": 701, "annotation": {"number": 64, "value": 0}, "group": "control_change"}, {"time": 704, "annotation": {"number": 64, "value": 127}, "group": "control_change"}, {"time": 748, "annotation": {"number": 64, "value": 0}, "group": "control_change"}, {"time": 757, "annotation": {"number": 64, "value": 127}, "group": "control_change"}, {"time": 782, "annotation": {"number": 64, "value": 0}, "group": "control_change"}, {"time": 800, "annotation": {"number": 64, "value": 127}, "group": "control_change"}, {"time": 825, "annotation": {"number": 64, "value": 0}, "group": "control_change"}, {"time": 829, "annotation": {"number": 64, "value": 127}, "group": "control_change"}, {"time": 847, "annotation": {"number": 64, "value": 0}, "group": "control_change"}, {"time": 852, "annotation": {"number": 64, "value": 127}, "group": "control_change"}, {"time": 869, "annotation": {"number": 64, "value": 0}, "group": "control_change"}, {"time": 877, "annotation": {"number": 64, "value": 127}, "group": "control_change"}, {"time": 893, "annotation": {"number": 64, "value": 0}, "group": "control_change"}, {"time": 896, "annotation": {"number": 64, "value": 127}, "group": "control_change"}, {"time": 917, "annotation": {"number": 64, "value": 0}, "group": "control_change"}, {"time": 921, "annotation": {"number": 64, "value": 127}, "group": "control_change"}, {"time": 941, "annotation": {"number": 64, "value": 0}, "group": "control_change"}, {"time": 947, "annotation": {"number": 64, "value": 127}, "group": "control_change"}, {"time": 965, "annotation": {"number": 64, "value": 0}, "group": "control_change"}, {"time": 967, "annotation": {"number": 64, "value": 127}, "group": "control_change"}, {"time": 989, "annotation": {"number": 64, "value": 0}, "group": "control_change"}, {"time": 996, "annotation": {"number": 64, "value": 127}, "group": "control_change"}, {"time": 1028, "annotation": {"number": 64, "value": 0}, "group": "control_change"}, {"time": 1030, "annotation": {"number": 64, "value": 127}, "group": "control_change"}, {"time": 1036, "annotation": {"number": 64, "value": 0}, "group": "control_change"}, {"time": 1040, "annotation": {"number": 64, "value": 127}, "group": "control_change"}, {"time": 1061, "annotation": {"number": 64, "value": 0}, "group": "control_change"}, {"time": 1066, "annotation": {"number": 64, "value": 127}, "group": "control_change"}, {"time": 1085, "annotation": {"number": 64, "value": 0}, "group": "control_change"}, {"time": 1088, "annotation": {"number": 64, "value": 127}, "group": "control_change"}, {"time": 1132, "annotation": {"number": 64, "value": 0}, "group": "control_change"}, {"time": 1141, "annotation": {"number": 64, "value": 127}, "group": "control_change"}, {"time": 1166, "annotation": {"number": 64, "value": 0}, "group": "control_change"}, {"time": 1188, "annotation": {"number": 64, "value": 127}, "group": "control_change"}, {"time": 1205, "annotation": {"number": 64, "value": 0}, "group": "control_change"}, {"time": 1211, "annotation": {"number": 64, "value": 127}, "group": "control_change"}, {"time": 1228, "annotation": {"number": 64, "value": 0}, "group": "control_change"}, {"time": 1231, "annotation": {"number": 64, "value": 127}, "group": "control_change"}, {"time": 1265, "annotation": {"number": 64, "value": 0}, "group": "control_change"}, {"time": 1266, "annotation": {"number": 64, "value": 127}, "group": "control_change"}, {"time": 1276, "annotation": {"number": 64, "value": 0}, "group": "control_change"}, {"time": 1281, "annotation": {"number": 64, "value": 127}, "group": "control_change"}, {"time": 1301, "annotation": {"number": 64, "value": 0}, "group": "control_change"}, {"time": 1305, "annotation": {"number": 64, "value": 127}, "group": "control_change"}, {"time": 1325, "annotation": {"number": 64, "value": 0}, "group": "control_change"}, {"time": 1329, "annotation": {"number": 64, "value": 127}, "group": "control_change"}, {"time": 1350, "annotation": {"number": 64, "value": 0}, "group": "control_change"}, {"time": 1353, "annotation": {"number": 64, "value": 127}, "group": "control_change"}, {"time": 1373, "annotation": {"number": 64, "value": 0}, "group": "control_change"}, {"time": 1380, "annotation": {"number": 64, "value": 127}, "group": "control_change"}, {"time": 1398, "annotation": {"number": 64, "value": 0}, "group": "control_change"}, {"time": 1401, "annotation": {"number": 64, "value": 127}, "group": "control_change"}, {"time": 1421, "annotation": {"number": 64, "value": 0}, "group": "control_change"}, {"time": 1423, "annotation": {"number": 64, "value": 127}, "group": "control_change"}, {"time": 1445, "annotation": {"number": 64, "value": 0}, "group": "control_change"}, {"time": 1451, "annotation": {"number": 64, "value": 127}, "group": "control_change"}, {"time": 1469, "annotation": {"number": 64, "value": 0}, "group": "control_change"}, {"time": 1473, "annotation": {"number": 64, "value": 127}, "group": "control_change"}, {"time": 1494, "annotation": {"number": 64, "value": 0}, "group": "control_change"}, {"time": 1499, "annotation": {"number": 64, "value": 127}, "group": "control_change"}, {"time": 1517, "annotation": {"number": 64, "value": 0}, "group": "control_change"}, {"time": 1523, "annotation": {"number": 64, "value": 127}, "group": "control_change"}, {"time": 1564, "annotation": {"number": 64, "value": 0}, "group": "control_change"}, {"time": 1568, "annotation": {"number": 64, "value": 127}, "group": "control_change"}, {"time": 1592, "annotation": {"number": 64, "value": 0}, "group": "control_change"}, {"time": 1595, "annotation": {"number": 64, "value": 127}, "group": "control_change"}, {"time": 1614, "annotation": {"number": 64, "value": 0}, "group": "control_change"}, {"time": 1617, "annotation": {"number": 64, "value": 127}, "group": "control_change"}, {"time": 1640, "annotation": {"number": 64, "value": 0}, "group": "control_change"}, {"time": 1641, "annotation": {"number": 64, "value": 127}, "group": "control_change"}, {"time": 1662, "annotation": {"number": 64, "value": 0}, "group": "control_change"}, {"time": 1664, "annotation": {"number": 64, "value": 127}, "group": "control_change"}, {"time": 1686, "annotation": {"number": 64, "value": 0}, "group": "control_change"}, {"time": 1690, "annotation": {"number": 64, "value": 127}, "group": "control_change"}, {"time": 1709, "annotation": {"number": 64, "value": 0}, "group": "control_change"}, {"time": 1713, "annotation": {"number": 64, "value": 127}, "group": "control_change"}, {"time": 1737, "annotation": {"number": 64, "value": 0}, "group": "control_change"}, {"time": 1739, "annotation": {"number": 64, "value": 127}, "group": "control_change"}, {"time": 1757, "annotation": {"number": 64, "value": 0}, "group": "control_change"}, {"time": 1760, "annotation": {"number": 64, "value": 127}, "group": "control_change"}, {"time": 1785, "annotation": {"number": 64, "value": 0}, "group": "control_change"}, {"time": 1789, "annotation": {"number": 64, "value": 127}, "group": "control_change"}, {"time": 1807, "annotation": {"number": 64, "value": 0}, "group": "control_change"}, {"time": 1812, "annotation": {"number": 64, "value": 127}, "group": "control_change"}, {"time": 1829, "annotation": {"number": 64, "value": 0}, "group": "control_change"}, {"time": 1837, "annotation": {"number": 64, "value": 127}, "group": "control_change"}, {"time": 1853, "annotation": {"number": 64, "value": 0}, "group": "control_change"}, {"time": 1856, "annotation": {"number": 64, "value": 127}, "group": "control_change"}, {"time": 1877, "annotation": {"number": 64, "value": 0}, "group": "control_change"}, {"time": 1881, "annotation": {"number": 64, "value": 127}, "group": "control_change"}, {"time": 1901, "annotation": {"number": 64, "value": 0}, "group": "control_change"}, {"time": 1907, "annotation": {"number": 64, "value": 127}, "group": "control_change"}, {"time": 1925, "annotation": {"number": 64, "value": 0}, "group": "control_change"}, {"time": 1927, "annotation": {"number": 64, "value": 127}, "group": "control_change"}, {"time": 1949, "annotation": {"number": 64, "value": 0}, "group": "control_change"}, {"time": 1956, "annotation": {"number": 64, "value": 127}, "group": "control_change"}, {"time": 1988, "annotation": {"number": 64, "value": 0}, "group": "control_change"}, {"time": 1990, "annotation": {"number": 64, "value": 127}, "group": "control_change"}, {"time": 1996, "annotation": {"number": 64, "value": 0}, "group": "control_change"}, {"time": 2000, "annotation": {"number": 64, "value": 127}, "group": "control_change"}, {"time": 2021, "annotation": {"number": 64, "value": 0}, "group": "control_change"}, {"time": 2026, "annotation": {"number": 64, "value": 127}, "group": "control_change"}, {"time": 2045, "annotation": {"number": 64, "value": 0}, "group": "control_change"}, {"time": 2048, "annotation": {"number": 64, "value": 127}, "group": "control_change"}, {"time": 2092, "annotation": {"number": 64, "value": 0}, "group": "control_change"}, {"time": 2101, "annotation": {"number": 64, "value": 127}, "group": "control_change"}, {"time": 2126, "annotation": {"number": 64, "value": 0}, "group": "control_change"}, {"time": 2144, "annotation": {"number": 64, "value": 127}, "group": "control_change"}, {"time": 2169, "annotation": {"number": 64, "value": 0}, "group": "control_change"}, {"time": 2173, "annotation": {"number": 64, "value": 127}, "group": "control_change"}, {"time": 2191, "annotation": {"number": 64, "value": 0}, "group": "control_change"}, {"time": 2196, "annotation": {"number": 64, "value": 127}, "group": "control_change"}, {"time": 2213, "annotation": {"number": 64, "value": 0}, "group": "control_change"}, {"time": 2221, "annotation": {"number": 64, "value": 127}, "group": "control_change"}, {"time": 2237, "annotation": {"number": 64, "value": 0}, "group": "control_change"}, {"time": 2240, "annotation": {"number": 64, "value": 127}, "group": "control_change"}, {"time": 2261, "annotation": {"number": 64, "value": 0}, "group": "control_change"}, {"time": 2265, "annotation": {"number": 64, "value": 127}, "group": "control_change"}, {"time": 2285, "annotation": {"number": 64, "value": 0}, "group": "control_change"}, {"time": 2291, "annotation": {"number": 64, "value": 127}, "group": "control_change"}, {"time": 2309, "annotation": {"number": 64, "value": 0}, "group": "control_change"}, {"time": 2311, "annotation": {"number": 64, "value": 127}, "group": "control_change"}, {"time": 2333, "annotation": {"number": 64, "value": 0}, "group": "control_change"}, {"time": 2340, "annotation": {"number": 64, "value": 127}, "group": "control_change"}, {"time": 2372, "annotation": {"number": 64, "value": 0}, "group": "control_change"}, {"time": 2374, "annotation": {"number": 64, "value": 127}, "group": "control_change"}, {"time": 2380, "annotation": {"number": 64, "value": 0}, "group": "control_change"}, {"time": 2384, "annotation": {"number": 64, "value": 127}, "group": "control_change"}, {"time": 2405, "annotation": {"number": 64, "value": 0}, "group": "control_change"}, {"time": 2410, "annotation": {"number": 64, "value": 127}, "group": "control_change"}, {"time": 2429, "annotation": {"number": 64, "value": 0}, "group": "control_change"}, {"time": 2432, "annotation": {"number": 64, "value": 127}, "group": "control_change"}, {"time": 2476, "annotation": {"number": 64, "value": 0}, "group": "control_change"}, {"time": 2485, "annotation": {"number": 64, "value": 127}, "group": "control_change"}, {"time": 2510, "annotation": {"number": 64, "value": 0}, "group": "control_change"}, {"time": 2532, "annotation": {"number": 64, "value": 127}, "group": "control_change"}, {"time": 2549, "annotation": {"number": 64, "value": 0}, "group": "control_change"}, {"time": 2555, "annotation": {"number": 64, "value": 127}, "group": "control_change"}, {"time": 2572, "annotation": {"number": 64, "value": 0}, "group": "control_change"}, {"time": 2575, "annotation": {"number": 64, "value": 127}, "group": "control_change"}, {"time": 2609, "annotation": {"number": 64, "value": 0}, "group": "control_change"}, {"time": 2610, "annotation": {"number": 64, "value": 127}, "group": "control_change"}, {"time": 2620, "annotation": {"number": 64, "value": 0}, "group": "control_change"}, {"time": 2625, "annotation": {"number": 64, "value": 127}, "group": "control_change"}, {"time": 2645, "annotation": {"number": 64, "value": 0}, "group": "control_change"}, {"time": 2649, "annotation": {"number": 64, "value": 127}, "group": "control_change"}, {"time": 2669, "annotation": {"number": 64, "value": 0}, "group": "control_change"}, {"time": 2673, "annotation": {"number": 64, "value": 127}, "group": "control_change"}, {"time": 2694, "annotation": {"number": 64, "value": 0}, "group": "control_change"}, {"time": 2697, "annotation": {"number": 64, "value": 127}, "group": "control_change"}, {"time": 2717, "annotation": {"number": 64, "value": 0}, "group": "control_change"}, {"time": 2724, "annotation": {"number": 64, "value": 127}, "group": "control_change"}, {"time": 2742, "annotation": {"number": 64, "value": 0}, "group": "control_change"}, {"time": 2745, "annotation": {"number": 64, "value": 127}, "group": "control_change"}, {"time": 2765, "annotation": {"number": 64, "value": 0}, "group": "control_change"}, {"time": 2767, "annotation": {"number": 64, "value": 127}, "group": "control_change"}, {"time": 2789, "annotation": {"number": 64, "value": 0}, "group": "control_change"}, {"time": 2795, "annotation": {"number": 64, "value": 127}, "group": "control_change"}, {"time": 2813, "annotation": {"number": 64, "value": 0}, "group": "control_change"}, {"time": 2817, "annotation": {"number": 64, "value": 127}, "group": "control_change"}, {"time": 2838, "annotation": {"number": 64, "value": 0}, "group": "control_change"}, {"time": 2843, "annotation": {"number": 64, "value": 127}, "group": "control_change"}, {"time": 2861, "annotation": {"number": 64, "value": 0}, "group": "control_change"}, {"time": 2867, "annotation": {"number": 64, "value": 127}, "group": "control_change"}, {"time": 2908, "annotation": {"number": 64, "value": 0}, "group": "control_change"}, {"time": 2913, "annotation": {"number": 64, "value": 127}, "group": "control_change"}, {"time": 2934, "annotation": {"number": 64, "value": 0}, "group": "control_change"}, {"time": 2939, "annotation": {"number": 64, "value": 127}, "group": "control_change"}, {"time": 2957, "annotation": {"number": 64, "value": 0}, "group": "control_change"}, {"time": 2959, "annotation": {"number": 64, "value": 127}, "group": "control_change"}, {"time": 2978, "annotation": {"number": 64, "value": 0}, "group": "control_change"}, {"time": 2984, "annotation": {"number": 64, "value": 127}, "group": "control_change"}, {"time": 3019, "annotation": {"number": 64, "value": 0}, "group": "control_change"}, {"time": 3024, "annotation": {"number": 64, "value": 127}, "group": "control_change"}, {"time": 3028, "annotation": {"number": 64, "value": 0}, "group": "control_change"}]}]}