{"metadata": {"schema_version": "0.2", "title": "None", "source_filename": "083.mid", "source_format": "midi"}, "resolution": 12, "tempos": [{"time": 0, "qpm": 60.0}], "time_signatures": [{"time": 0, "numerator": 1, "denominator": 4}], "tracks": [{"program": 0, "is_drum": false, "name": "MELODY", "notes": [{"time": 422, "pitch": 75, "duration": 2, "velocity": 104}, {"time": 425, "pitch": 77, "duration": 1, "velocity": 96}, {"time": 428, "pitch": 77, "duration": 8, "velocity": 109}, {"time": 440, "pitch": 77, "duration": 3, "velocity": 106}, {"time": 444, "pitch": 77, "duration": 3, "velocity": 101}, {"time": 449, "pitch": 75, "duration": 2, "velocity": 106}, {"time": 452, "pitch": 72, "duration": 3, "velocity": 99}, {"time": 455, "pitch": 75, "duration": 3, "velocity": 114}, {"time": 464, "pitch": 70, "duration": 4, "velocity": 112}, {"time": 470, "pitch": 70, "duration": 4, "velocity": 109}, {"time": 476, "pitch": 70, "duration": 4, "velocity": 109}, {"time": 482, "pitch": 68, "duration": 1, "velocity": 104}, {"time": 485, "pitch": 70, "duration": 16, "velocity": 109}, {"time": 518, "pitch": 75, "duration": 1, "velocity": 101}, {"time": 521, "pitch": 75, "duration": 1, "velocity": 106}, {"time": 524, "pitch": 75, "duration": 4, "velocity": 109}, {"time": 533, "pitch": 75, "duration": 4, "velocity": 109}, {"time": 539, "pitch": 75, "duration": 1, "velocity": 99}, {"time": 542, "pitch": 75, "duration": 1, "velocity": 106}, {"time": 545, "pitch": 72, "duration": 1, "velocity": 109}, {"time": 548, "pitch": 70, "duration": 1, "velocity": 109}, {"time": 551, "pitch": 72, "duration": 2, "velocity": 109}, {"time": 557, "pitch": 75, "duration": 1, "velocity": 115}, {"time": 560, "pitch": 77, "duration": 9, "velocity": 101}, {"time": 572, "pitch": 77, "duration": 4, "velocity": 109}, {"time": 578, "pitch": 75, "duration": 2, "velocity": 109}, {"time": 581, "pitch": 72, "duration": 22, "velocity": 106}, {"time": 614, "pitch": 77, "duration": 2, "velocity": 106}, {"time": 617, "pitch": 75, "duration": 1, "velocity": 101}, {"time": 620, "pitch": 77, "duration": 6, "velocity": 106}, {"time": 629, "pitch": 77, "duration": 4, "velocity": 112}, {"time": 635, "pitch": 77, "duration": 1, "velocity": 109}, {"time": 638, "pitch": 77, "duration": 2, "velocity": 104}, {"time": 641, "pitch": 75, "duration": 1, "velocity": 106}, {"time": 644, "pitch": 77, "duration": 1, "velocity": 106}, {"time": 647, "pitch": 80, "duration": 5, "velocity": 104}, {"time": 656, "pitch": 82, "duration": 4, "velocity": 109}, {"time": 662, "pitch": 82, "duration": 4, "velocity": 112}, {"time": 668, "pitch": 82, "duration": 2, "velocity": 109}, {"time": 671, "pitch": 80, "duration": 3, "velocity": 106}, {"time": 677, "pitch": 82, "duration": 16, "velocity": 109}, {"time": 710, "pitch": 82, "duration": 1, "velocity": 104}, {"time": 713, "pitch": 80, "duration": 1, "velocity": 106}, {"time": 716, "pitch": 82, "duration": 6, "velocity": 106}, {"time": 725, "pitch": 82, "duration": 1, "velocity": 96}, {"time": 728, "pitch": 82, "duration": 5, "velocity": 109}, {"time": 734, "pitch": 82, "duration": 1, "velocity": 109}, {"time": 737, "pitch": 80, "duration": 1, "velocity": 112}, {"time": 740, "pitch": 77, "duration": 2, "velocity": 96}, {"time": 743, "pitch": 80, "duration": 5, "velocity": 101}, {"time": 749, "pitch": 77, "duration": 1, "velocity": 106}, {"time": 752, "pitch": 80, "duration": 4, "velocity": 109}, {"time": 758, "pitch": 80, "duration": 4, "velocity": 112}, {"time": 764, "pitch": 79, "duration": 2, "velocity": 120}, {"time": 767, "pitch": 77, "duration": 1, "velocity": 94}, {"time": 770, "pitch": 79, "duration": 1, "velocity": 113}, {"time": 773, "pitch": 79, "duration": 25, "velocity": 110}, {"time": 806, "pitch": 75, "duration": 2, "velocity": 104}, {"time": 809, "pitch": 77, "duration": 1, "velocity": 96}, {"time": 812, "pitch": 77, "duration": 8, "velocity": 109}, {"time": 824, "pitch": 77, "duration": 3, "velocity": 106}, {"time": 828, "pitch": 77, "duration": 3, "velocity": 101}, {"time": 833, "pitch": 75, "duration": 2, "velocity": 106}, {"time": 836, "pitch": 72, "duration": 3, "velocity": 99}, {"time": 839, "pitch": 75, "duration": 3, "velocity": 114}, {"time": 848, "pitch": 70, "duration": 4, "velocity": 112}, {"time": 854, "pitch": 70, "duration": 4, "velocity": 109}, {"time": 860, "pitch": 70, "duration": 4, "velocity": 109}, {"time": 866, "pitch": 68, "duration": 1, "velocity": 104}, {"time": 869, "pitch": 70, "duration": 16, "velocity": 109}, {"time": 902, "pitch": 75, "duration": 1, "velocity": 101}, {"time": 905, "pitch": 75, "duration": 1, "velocity": 106}, {"time": 908, "pitch": 75, "duration": 4, "velocity": 109}, {"time": 917, "pitch": 75, "duration": 4, "velocity": 109}, {"time": 923, "pitch": 75, "duration": 1, "velocity": 99}, {"time": 926, "pitch": 75, "duration": 1, "velocity": 106}, {"time": 929, "pitch": 72, "duration": 1, "velocity": 109}, {"time": 932, "pitch": 70, "duration": 1, "velocity": 109}, {"time": 935, "pitch": 72, "duration": 2, "velocity": 109}, {"time": 941, "pitch": 75, "duration": 1, "velocity": 115}, {"time": 944, "pitch": 77, "duration": 9, "velocity": 101}, {"time": 956, "pitch": 77, "duration": 4, "velocity": 109}, {"time": 962, "pitch": 75, "duration": 2, "velocity": 109}, {"time": 965, "pitch": 72, "duration": 22, "velocity": 106}, {"time": 998, "pitch": 77, "duration": 2, "velocity": 106}, {"time": 1001, "pitch": 75, "duration": 1, "velocity": 101}, {"time": 1004, "pitch": 77, "duration": 6, "velocity": 106}, {"time": 1013, "pitch": 77, "duration": 4, "velocity": 112}, {"time": 1019, "pitch": 77, "duration": 1, "velocity": 109}, {"time": 1022, "pitch": 77, "duration": 2, "velocity": 104}, {"time": 1025, "pitch": 75, "duration": 1, "velocity": 106}, {"time": 1028, "pitch": 77, "duration": 1, "velocity": 106}, {"time": 1031, "pitch": 80, "duration": 5, "velocity": 104}, {"time": 1040, "pitch": 82, "duration": 4, "velocity": 109}, {"time": 1046, "pitch": 82, "duration": 4, "velocity": 112}, {"time": 1052, "pitch": 82, "duration": 2, "velocity": 109}, {"time": 1055, "pitch": 80, "duration": 3, "velocity": 106}, {"time": 1061, "pitch": 82, "duration": 16, "velocity": 109}, {"time": 1094, "pitch": 82, "duration": 1, "velocity": 104}, {"time": 1097, "pitch": 80, "duration": 1, "velocity": 106}, {"time": 1100, "pitch": 82, "duration": 9, "velocity": 106}, {"time": 1112, "pitch": 82, "duration": 5, "velocity": 109}, {"time": 1118, "pitch": 82, "duration": 1, "velocity": 109}, {"time": 1121, "pitch": 80, "duration": 1, "velocity": 112}, {"time": 1124, "pitch": 77, "duration": 2, "velocity": 96}, {"time": 1127, "pitch": 80, "duration": 5, "velocity": 101}, {"time": 1133, "pitch": 72, "duration": 1, "velocity": 106}, {"time": 1136, "pitch": 84, "duration": 3, "velocity": 109}, {"time": 1142, "pitch": 84, "duration": 4, "velocity": 109}, {"time": 1148, "pitch": 84, "duration": 2, "velocity": 106}, {"time": 1151, "pitch": 82, "duration": 3, "velocity": 106}, {"time": 1157, "pitch": 84, "duration": 17, "velocity": 115}, {"time": 1190, "pitch": 84, "duration": 1, "velocity": 106}, {"time": 1193, "pitch": 84, "duration": 1, "velocity": 104}, {"time": 1196, "pitch": 84, "duration": 4, "velocity": 109}, {"time": 1202, "pitch": 84, "duration": 1, "velocity": 109}, {"time": 1205, "pitch": 84, "duration": 1, "velocity": 109}, {"time": 1208, "pitch": 84, "duration": 1, "velocity": 109}, {"time": 1211, "pitch": 77, "duration": 3, "velocity": 115}, {"time": 1220, "pitch": 77, "duration": 1, "velocity": 112}, {"time": 1223, "pitch": 79, "duration": 1, "velocity": 117}, {"time": 1226, "pitch": 80, "duration": 2, "velocity": 109}, {"time": 1232, "pitch": 84, "duration": 4, "velocity": 106}, {"time": 1238, "pitch": 82, "duration": 3, "velocity": 112}, {"time": 1244, "pitch": 82, "duration": 1, "velocity": 106}, {"time": 1247, "pitch": 80, "duration": 3, "velocity": 109}, {"time": 1253, "pitch": 82, "duration": 23, "velocity": 112}, {"time": 1286, "pitch": 82, "duration": 1, "velocity": 109}, {"time": 1289, "pitch": 80, "duration": 1, "velocity": 109}, {"time": 1292, "pitch": 82, "duration": 1, "velocity": 112}, {"time": 1295, "pitch": 82, "duration": 2, "velocity": 112}, {"time": 1301, "pitch": 84, "duration": 4, "velocity": 115}, {"time": 1307, "pitch": 82, "duration": 1, "velocity": 106}, {"time": 1310, "pitch": 80, "duration": 1, "velocity": 112}, {"time": 1313, "pitch": 77, "duration": 1, "velocity": 112}, {"time": 1316, "pitch": 80, "duration": 1, "velocity": 112}, {"time": 1319, "pitch": 77, "duration": 1, "velocity": 109}, {"time": 1322, "pitch": 77, "duration": 1, "velocity": 109}, {"time": 1325, "pitch": 77, "duration": 1, "velocity": 112}, {"time": 1328, "pitch": 80, "duration": 3, "velocity": 112}, {"time": 1334, "pitch": 80, "duration": 3, "velocity": 112}, {"time": 1340, "pitch": 80, "duration": 1, "velocity": 106}, {"time": 1343, "pitch": 82, "duration": 1, "velocity": 109}, {"time": 1346, "pitch": 80, "duration": 1, "velocity": 112}, {"time": 1349, "pitch": 79, "duration": 20, "velocity": 113}, {"time": 1382, "pitch": 84, "duration": 1, "velocity": 106}, {"time": 1385, "pitch": 84, "duration": 1, "velocity": 104}, {"time": 1388, "pitch": 84, "duration": 4, "velocity": 109}, {"time": 1394, "pitch": 84, "duration": 1, "velocity": 109}, {"time": 1397, "pitch": 84, "duration": 1, "velocity": 109}, {"time": 1400, "pitch": 84, "duration": 1, "velocity": 109}, {"time": 1403, "pitch": 77, "duration": 3, "velocity": 115}, {"time": 1412, "pitch": 77, "duration": 1, "velocity": 112}, {"time": 1415, "pitch": 79, "duration": 1, "velocity": 117}, {"time": 1418, "pitch": 80, "duration": 2, "velocity": 109}, {"time": 1424, "pitch": 84, "duration": 4, "velocity": 106}, {"time": 1430, "pitch": 82, "duration": 3, "velocity": 112}, {"time": 1436, "pitch": 82, "duration": 1, "velocity": 106}, {"time": 1439, "pitch": 80, "duration": 3, "velocity": 109}, {"time": 1445, "pitch": 82, "duration": 23, "velocity": 112}, {"time": 1478, "pitch": 82, "duration": 1, "velocity": 109}, {"time": 1481, "pitch": 80, "duration": 1, "velocity": 109}, {"time": 1484, "pitch": 82, "duration": 1, "velocity": 112}, {"time": 1487, "pitch": 82, "duration": 2, "velocity": 112}, {"time": 1493, "pitch": 84, "duration": 4, "velocity": 115}, {"time": 1499, "pitch": 82, "duration": 1, "velocity": 106}, {"time": 1502, "pitch": 80, "duration": 1, "velocity": 112}, {"time": 1505, "pitch": 77, "duration": 1, "velocity": 112}, {"time": 1508, "pitch": 80, "duration": 3, "velocity": 112}, {"time": 1511, "pitch": 77, "duration": 4, "velocity": 96}, {"time": 1517, "pitch": 77, "duration": 1, "velocity": 101}, {"time": 1520, "pitch": 79, "duration": 4, "velocity": 117}, {"time": 1526, "pitch": 79, "duration": 3, "velocity": 109}, {"time": 1532, "pitch": 75, "duration": 1, "velocity": 104}, {"time": 1535, "pitch": 77, "duration": 1, "velocity": 109}, {"time": 1538, "pitch": 79, "duration": 3, "velocity": 117}, {"time": 1541, "pitch": 77, "duration": 21, "velocity": 106}, {"time": 1766, "pitch": 75, "duration": 2, "velocity": 104}, {"time": 1769, "pitch": 77, "duration": 1, "velocity": 96}, {"time": 1772, "pitch": 77, "duration": 8, "velocity": 109}, {"time": 1784, "pitch": 77, "duration": 3, "velocity": 106}, {"time": 1788, "pitch": 77, "duration": 3, "velocity": 101}, {"time": 1793, "pitch": 75, "duration": 2, "velocity": 106}, {"time": 1796, "pitch": 72, "duration": 3, "velocity": 99}, {"time": 1799, "pitch": 75, "duration": 3, "velocity": 114}, {"time": 1808, "pitch": 70, "duration": 4, "velocity": 112}, {"time": 1814, "pitch": 70, "duration": 4, "velocity": 109}, {"time": 1820, "pitch": 70, "duration": 4, "velocity": 109}, {"time": 1826, "pitch": 68, "duration": 1, "velocity": 104}, {"time": 1829, "pitch": 70, "duration": 16, "velocity": 109}, {"time": 1862, "pitch": 75, "duration": 1, "velocity": 101}, {"time": 1865, "pitch": 75, "duration": 1, "velocity": 106}, {"time": 1868, "pitch": 75, "duration": 4, "velocity": 109}, {"time": 1877, "pitch": 75, "duration": 4, "velocity": 109}, {"time": 1883, "pitch": 75, "duration": 1, "velocity": 99}, {"time": 1886, "pitch": 75, "duration": 1, "velocity": 106}, {"time": 1889, "pitch": 72, "duration": 1, "velocity": 109}, {"time": 1892, "pitch": 70, "duration": 1, "velocity": 109}, {"time": 1895, "pitch": 72, "duration": 2, "velocity": 109}, {"time": 1901, "pitch": 75, "duration": 1, "velocity": 115}, {"time": 1904, "pitch": 77, "duration": 9, "velocity": 101}, {"time": 1916, "pitch": 77, "duration": 4, "velocity": 109}, {"time": 1922, "pitch": 75, "duration": 2, "velocity": 109}, {"time": 1925, "pitch": 72, "duration": 22, "velocity": 106}, {"time": 1958, "pitch": 77, "duration": 2, "velocity": 106}, {"time": 1961, "pitch": 75, "duration": 1, "velocity": 101}, {"time": 1964, "pitch": 77, "duration": 6, "velocity": 106}, {"time": 1973, "pitch": 77, "duration": 4, "velocity": 112}, {"time": 1979, "pitch": 77, "duration": 1, "velocity": 109}, {"time": 1982, "pitch": 77, "duration": 2, "velocity": 104}, {"time": 1985, "pitch": 75, "duration": 1, "velocity": 106}, {"time": 1988, "pitch": 77, "duration": 1, "velocity": 106}, {"time": 1991, "pitch": 80, "duration": 5, "velocity": 104}, {"time": 2000, "pitch": 82, "duration": 4, "velocity": 109}, {"time": 2006, "pitch": 82, "duration": 4, "velocity": 112}, {"time": 2012, "pitch": 82, "duration": 2, "velocity": 109}, {"time": 2015, "pitch": 80, "duration": 3, "velocity": 106}, {"time": 2021, "pitch": 82, "duration": 16, "velocity": 109}, {"time": 2054, "pitch": 82, "duration": 1, "velocity": 104}, {"time": 2057, "pitch": 80, "duration": 1, "velocity": 106}, {"time": 2060, "pitch": 82, "duration": 9, "velocity": 106}, {"time": 2072, "pitch": 82, "duration": 5, "velocity": 109}, {"time": 2078, "pitch": 82, "duration": 1, "velocity": 109}, {"time": 2081, "pitch": 80, "duration": 1, "velocity": 112}, {"time": 2084, "pitch": 77, "duration": 2, "velocity": 96}, {"time": 2087, "pitch": 80, "duration": 5, "velocity": 101}, {"time": 2093, "pitch": 72, "duration": 1, "velocity": 106}, {"time": 2096, "pitch": 84, "duration": 3, "velocity": 109}, {"time": 2102, "pitch": 84, "duration": 4, "velocity": 109}, {"time": 2108, "pitch": 84, "duration": 2, "velocity": 106}, {"time": 2111, "pitch": 82, "duration": 3, "velocity": 106}, {"time": 2117, "pitch": 84, "duration": 17, "velocity": 115}, {"time": 2150, "pitch": 84, "duration": 1, "velocity": 106}, {"time": 2153, "pitch": 84, "duration": 1, "velocity": 104}, {"time": 2156, "pitch": 84, "duration": 4, "velocity": 109}, {"time": 2162, "pitch": 84, "duration": 1, "velocity": 109}, {"time": 2165, "pitch": 84, "duration": 1, "velocity": 109}, {"time": 2168, "pitch": 84, "duration": 1, "velocity": 109}, {"time": 2171, "pitch": 77, "duration": 3, "velocity": 115}, {"time": 2180, "pitch": 77, "duration": 1, "velocity": 112}, {"time": 2183, "pitch": 79, "duration": 1, "velocity": 117}, {"time": 2186, "pitch": 80, "duration": 2, "velocity": 109}, {"time": 2192, "pitch": 84, "duration": 4, "velocity": 106}, {"time": 2198, "pitch": 82, "duration": 3, "velocity": 112}, {"time": 2204, "pitch": 82, "duration": 1, "velocity": 106}, {"time": 2207, "pitch": 80, "duration": 3, "velocity": 109}, {"time": 2213, "pitch": 82, "duration": 23, "velocity": 112}, {"time": 2246, "pitch": 82, "duration": 1, "velocity": 109}, {"time": 2249, "pitch": 80, "duration": 1, "velocity": 109}, {"time": 2252, "pitch": 82, "duration": 1, "velocity": 112}, {"time": 2255, "pitch": 82, "duration": 2, "velocity": 112}, {"time": 2261, "pitch": 84, "duration": 4, "velocity": 115}, {"time": 2267, "pitch": 82, "duration": 1, "velocity": 106}, {"time": 2270, "pitch": 80, "duration": 1, "velocity": 112}, {"time": 2273, "pitch": 77, "duration": 1, "velocity": 112}, {"time": 2276, "pitch": 80, "duration": 1, "velocity": 112}, {"time": 2279, "pitch": 77, "duration": 1, "velocity": 109}, {"time": 2282, "pitch": 77, "duration": 1, "velocity": 109}, {"time": 2285, "pitch": 77, "duration": 1, "velocity": 112}, {"time": 2288, "pitch": 80, "duration": 3, "velocity": 112}, {"time": 2294, "pitch": 80, "duration": 3, "velocity": 112}, {"time": 2300, "pitch": 80, "duration": 1, "velocity": 106}, {"time": 2303, "pitch": 82, "duration": 1, "velocity": 109}, {"time": 2306, "pitch": 80, "duration": 1, "velocity": 112}, {"time": 2309, "pitch": 79, "duration": 20, "velocity": 113}, {"time": 2342, "pitch": 84, "duration": 1, "velocity": 106}, {"time": 2345, "pitch": 84, "duration": 1, "velocity": 104}, {"time": 2348, "pitch": 84, "duration": 4, "velocity": 109}, {"time": 2354, "pitch": 84, "duration": 1, "velocity": 109}, {"time": 2357, "pitch": 84, "duration": 1, "velocity": 109}, {"time": 2360, "pitch": 84, "duration": 1, "velocity": 109}, {"time": 2363, "pitch": 77, "duration": 3, "velocity": 115}, {"time": 2372, "pitch": 77, "duration": 1, "velocity": 112}, {"time": 2375, "pitch": 79, "duration": 1, "velocity": 117}, {"time": 2378, "pitch": 80, "duration": 2, "velocity": 109}, {"time": 2384, "pitch": 84, "duration": 4, "velocity": 106}, {"time": 2390, "pitch": 82, "duration": 3, "velocity": 112}, {"time": 2396, "pitch": 82, "duration": 1, "velocity": 106}, {"time": 2399, "pitch": 80, "duration": 3, "velocity": 109}, {"time": 2405, "pitch": 82, "duration": 23, "velocity": 112}, {"time": 2438, "pitch": 82, "duration": 1, "velocity": 109}, {"time": 2441, "pitch": 80, "duration": 1, "velocity": 109}, {"time": 2444, "pitch": 82, "duration": 1, "velocity": 112}, {"time": 2447, "pitch": 82, "duration": 2, "velocity": 112}, {"time": 2453, "pitch": 84, "duration": 4, "velocity": 115}, {"time": 2459, "pitch": 82, "duration": 1, "velocity": 106}, {"time": 2462, "pitch": 80, "duration": 1, "velocity": 112}, {"time": 2465, "pitch": 77, "duration": 1, "velocity": 112}, {"time": 2468, "pitch": 80, "duration": 3, "velocity": 112}, {"time": 2471, "pitch": 77, "duration": 4, "velocity": 96}, {"time": 2477, "pitch": 77, "duration": 1, "velocity": 101}, {"time": 2480, "pitch": 79, "duration": 4, "velocity": 117}, {"time": 2486, "pitch": 79, "duration": 3, "velocity": 109}, {"time": 2492, "pitch": 75, "duration": 1, "velocity": 104}, {"time": 2495, "pitch": 77, "duration": 1, "velocity": 109}, {"time": 2498, "pitch": 79, "duration": 3, "velocity": 117}, {"time": 2501, "pitch": 77, "duration": 21, "velocity": 106}, {"time": 2534, "pitch": 84, "duration": 1, "velocity": 106}, {"time": 2537, "pitch": 84, "duration": 1, "velocity": 104}, {"time": 2540, "pitch": 84, "duration": 4, "velocity": 109}, {"time": 2546, "pitch": 84, "duration": 1, "velocity": 109}, {"time": 2549, "pitch": 84, "duration": 1, "velocity": 109}, {"time": 2552, "pitch": 84, "duration": 1, "velocity": 109}, {"time": 2555, "pitch": 77, "duration": 3, "velocity": 115}, {"time": 2564, "pitch": 77, "duration": 1, "velocity": 112}, {"time": 2567, "pitch": 79, "duration": 1, "velocity": 117}, {"time": 2570, "pitch": 80, "duration": 2, "velocity": 109}, {"time": 2576, "pitch": 84, "duration": 4, "velocity": 106}, {"time": 2582, "pitch": 82, "duration": 3, "velocity": 112}, {"time": 2588, "pitch": 82, "duration": 1, "velocity": 106}, {"time": 2591, "pitch": 80, "duration": 3, "velocity": 109}, {"time": 2597, "pitch": 82, "duration": 23, "velocity": 112}, {"time": 2630, "pitch": 82, "duration": 1, "velocity": 109}, {"time": 2633, "pitch": 80, "duration": 1, "velocity": 109}, {"time": 2636, "pitch": 82, "duration": 1, "velocity": 112}, {"time": 2639, "pitch": 82, "duration": 2, "velocity": 112}, {"time": 2645, "pitch": 84, "duration": 4, "velocity": 115}, {"time": 2651, "pitch": 82, "duration": 1, "velocity": 106}, {"time": 2654, "pitch": 80, "duration": 1, "velocity": 112}, {"time": 2657, "pitch": 77, "duration": 1, "velocity": 112}, {"time": 2660, "pitch": 80, "duration": 1, "velocity": 112}, {"time": 2663, "pitch": 77, "duration": 1, "velocity": 109}, {"time": 2666, "pitch": 77, "duration": 1, "velocity": 109}, {"time": 2669, "pitch": 77, "duration": 1, "velocity": 112}, {"time": 2672, "pitch": 80, "duration": 3, "velocity": 112}, {"time": 2678, "pitch": 80, "duration": 3, "velocity": 112}, {"time": 2684, "pitch": 80, "duration": 1, "velocity": 106}, {"time": 2687, "pitch": 82, "duration": 1, "velocity": 109}, {"time": 2690, "pitch": 80, "duration": 1, "velocity": 112}, {"time": 2693, "pitch": 79, "duration": 20, "velocity": 113}, {"time": 2726, "pitch": 84, "duration": 1, "velocity": 106}, {"time": 2729, "pitch": 84, "duration": 1, "velocity": 104}, {"time": 2732, "pitch": 84, "duration": 4, "velocity": 109}, {"time": 2738, "pitch": 84, "duration": 1, "velocity": 109}, {"time": 2741, "pitch": 84, "duration": 1, "velocity": 109}, {"time": 2744, "pitch": 84, "duration": 1, "velocity": 109}, {"time": 2747, "pitch": 77, "duration": 3, "velocity": 115}, {"time": 2756, "pitch": 77, "duration": 1, "velocity": 112}, {"time": 2759, "pitch": 79, "duration": 1, "velocity": 117}, {"time": 2762, "pitch": 80, "duration": 2, "velocity": 109}, {"time": 2768, "pitch": 84, "duration": 4, "velocity": 106}, {"time": 2774, "pitch": 82, "duration": 3, "velocity": 112}, {"time": 2780, "pitch": 82, "duration": 1, "velocity": 106}, {"time": 2783, "pitch": 80, "duration": 3, "velocity": 109}, {"time": 2789, "pitch": 82, "duration": 23, "velocity": 112}, {"time": 2822, "pitch": 82, "duration": 1, "velocity": 109}, {"time": 2825, "pitch": 80, "duration": 1, "velocity": 109}, {"time": 2828, "pitch": 82, "duration": 1, "velocity": 112}, {"time": 2831, "pitch": 82, "duration": 2, "velocity": 112}, {"time": 2837, "pitch": 84, "duration": 4, "velocity": 115}, {"time": 2843, "pitch": 82, "duration": 1, "velocity": 106}, {"time": 2846, "pitch": 80, "duration": 1, "velocity": 112}, {"time": 2849, "pitch": 77, "duration": 1, "velocity": 112}, {"time": 2852, "pitch": 80, "duration": 3, "velocity": 112}, {"time": 2855, "pitch": 77, "duration": 4, "velocity": 96}, {"time": 2861, "pitch": 77, "duration": 1, "velocity": 101}, {"time": 2864, "pitch": 79, "duration": 4, "velocity": 117}, {"time": 2870, "pitch": 79, "duration": 3, "velocity": 109}, {"time": 2876, "pitch": 75, "duration": 1, "velocity": 104}, {"time": 2879, "pitch": 77, "duration": 1, "velocity": 109}, {"time": 2882, "pitch": 79, "duration": 3, "velocity": 117}, {"time": 2885, "pitch": 77, "duration": 21, "velocity": 106}, {"time": 2918, "pitch": 82, "duration": 2, "velocity": 94}, {"time": 2921, "pitch": 80, "duration": 2, "velocity": 99}, {"time": 2924, "pitch": 82, "duration": 3, "velocity": 104}, {"time": 2930, "pitch": 82, "duration": 3, "velocity": 104}, {"time": 2935, "pitch": 84, "duration": 5, "velocity": 106}, {"time": 2941, "pitch": 82, "duration": 2, "velocity": 104}, {"time": 2945, "pitch": 80, "duration": 1, "velocity": 106}, {"time": 2948, "pitch": 77, "duration": 1, "velocity": 99}, {"time": 2951, "pitch": 80, "duration": 2, "velocity": 101}, {"time": 2954, "pitch": 77, "duration": 18, "velocity": 104}, {"time": 2978, "pitch": 77, "duration": 3, "velocity": 99}, {"time": 2982, "pitch": 79, "duration": 5, "velocity": 110}, {"time": 2989, "pitch": 79, "duration": 6, "velocity": 113}, {"time": 2997, "pitch": 75, "duration": 3, "velocity": 104}, {"time": 3002, "pitch": 77, "duration": 4, "velocity": 104}, {"time": 3009, "pitch": 79, "duration": 15, "velocity": 110}, {"time": 3030, "pitch": 77, "duration": 33, "velocity": 101}]}, {"program": 0, "is_drum": false, "name": "PIANO", "notes": [{"time": 32, "pitch": 53, "duration": 21, "velocity": 109}, {"time": 35, "pitch": 60, "duration": 7, "velocity": 71}, {"time": 38, "pitch": 65, "duration": 4, "velocity": 85}, {"time": 41, "pitch": 72, "duration": 12, "velocity": 99}, {"time": 47, "pitch": 60, "duration": 6, "velocity": 46}, {"time": 50, "pitch": 65, "duration": 6, "velocity": 82}, {"time": 53, "pitch": 68, "duration": 6, "velocity": 91}, {"time": 56, "pitch": 56, "duration": 21, "velocity": 99}, {"time": 59, "pitch": 60, "duration": 17, "velocity": 78}, {"time": 62, "pitch": 63, "duration": 12, "velocity": 101}, {"time": 65, "pitch": 72, "duration": 10, "velocity": 101}, {"time": 74, "pitch": 68, "duration": 6, "velocity": 94}, {"time": 77, "pitch": 63, "duration": 5, "velocity": 91}, {"time": 80, "pitch": 51, "duration": 7, "velocity": 106}, {"time": 83, "pitch": 58, "duration": 4, "velocity": 94}, {"time": 86, "pitch": 63, "duration": 7, "velocity": 99}, {"time": 89, "pitch": 67, "duration": 15, "velocity": 120}, {"time": 104, "pitch": 46, "duration": 18, "velocity": 104}, {"time": 107, "pitch": 53, "duration": 6, "velocity": 91}, {"time": 110, "pitch": 58, "duration": 9, "velocity": 104}, {"time": 113, "pitch": 65, "duration": 5, "velocity": 106}, {"time": 116, "pitch": 53, "duration": 4, "velocity": 74}, {"time": 119, "pitch": 62, "duration": 7, "velocity": 45}, {"time": 119, "pitch": 65, "duration": 8, "velocity": 56}, {"time": 128, "pitch": 53, "duration": 18, "velocity": 106}, {"time": 131, "pitch": 60, "duration": 6, "velocity": 91}, {"time": 134, "pitch": 65, "duration": 9, "velocity": 99}, {"time": 137, "pitch": 72, "duration": 10, "velocity": 109}, {"time": 140, "pitch": 60, "duration": 5, "velocity": 73}, {"time": 143, "pitch": 68, "duration": 4, "velocity": 101}, {"time": 146, "pitch": 65, "duration": 4, "velocity": 71}, {"time": 149, "pitch": 68, "duration": 9, "velocity": 76}, {"time": 152, "pitch": 44, "duration": 14, "velocity": 101}, {"time": 155, "pitch": 51, "duration": 9, "velocity": 76}, {"time": 158, "pitch": 63, "duration": 9, "velocity": 99}, {"time": 161, "pitch": 72, "duration": 9, "velocity": 101}, {"time": 167, "pitch": 68, "duration": 4, "velocity": 101}, {"time": 170, "pitch": 63, "duration": 3, "velocity": 99}, {"time": 176, "pitch": 51, "duration": 17, "velocity": 91}, {"time": 176, "pitch": 63, "duration": 3, "velocity": 99}, {"time": 176, "pitch": 67, "duration": 9, "velocity": 99}, {"time": 179, "pitch": 58, "duration": 6, "velocity": 96}, {"time": 182, "pitch": 63, "duration": 4, "velocity": 94}, {"time": 185, "pitch": 70, "duration": 7, "velocity": 104}, {"time": 188, "pitch": 58, "duration": 5, "velocity": 71}, {"time": 191, "pitch": 67, "duration": 3, "velocity": 107}, {"time": 194, "pitch": 63, "duration": 5, "velocity": 96}, {"time": 200, "pitch": 46, "duration": 20, "velocity": 104}, {"time": 200, "pitch": 70, "duration": 9, "velocity": 101}, {"time": 203, "pitch": 53, "duration": 6, "velocity": 76}, {"time": 206, "pitch": 58, "duration": 3, "velocity": 104}, {"time": 209, "pitch": 62, "duration": 7, "velocity": 113}, {"time": 212, "pitch": 53, "duration": 9, "velocity": 99}, {"time": 215, "pitch": 58, "duration": 3, "velocity": 112}, {"time": 218, "pitch": 65, "duration": 6, "velocity": 101}, {"time": 221, "pitch": 58, "duration": 3, "velocity": 101}, {"time": 224, "pitch": 53, "duration": 18, "velocity": 106}, {"time": 224, "pitch": 72, "duration": 7, "velocity": 94}, {"time": 227, "pitch": 60, "duration": 6, "velocity": 94}, {"time": 230, "pitch": 65, "duration": 5, "velocity": 104}, {"time": 233, "pitch": 68, "duration": 7, "velocity": 112}, {"time": 239, "pitch": 60, "duration": 3, "velocity": 80}, {"time": 242, "pitch": 65, "duration": 3, "velocity": 104}, {"time": 245, "pitch": 68, "duration": 9, "velocity": 99}, {"time": 248, "pitch": 49, "duration": 20, "velocity": 101}, {"time": 251, "pitch": 56, "duration": 6, "velocity": 89}, {"time": 254, "pitch": 61, "duration": 4, "velocity": 104}, {"time": 257, "pitch": 65, "duration": 9, "velocity": 112}, {"time": 263, "pitch": 56, "duration": 7, "velocity": 94}, {"time": 266, "pitch": 61, "duration": 3, "velocity": 104}, {"time": 269, "pitch": 65, "duration": 3, "velocity": 99}, {"time": 272, "pitch": 51, "duration": 15, "velocity": 109}, {"time": 272, "pitch": 63, "duration": 3, "velocity": 104}, {"time": 272, "pitch": 67, "duration": 6, "velocity": 110}, {"time": 275, "pitch": 58, "duration": 7, "velocity": 94}, {"time": 278, "pitch": 63, "duration": 1, "velocity": 99}, {"time": 281, "pitch": 63, "duration": 3, "velocity": 101}, {"time": 281, "pitch": 70, "duration": 5, "velocity": 104}, {"time": 284, "pitch": 58, "duration": 4, "velocity": 91}, {"time": 287, "pitch": 67, "duration": 3, "velocity": 113}, {"time": 290, "pitch": 63, "duration": 4, "velocity": 96}, {"time": 296, "pitch": 44, "duration": 16, "velocity": 104}, {"time": 296, "pitch": 63, "duration": 2, "velocity": 94}, {"time": 296, "pitch": 68, "duration": 5, "velocity": 96}, {"time": 299, "pitch": 51, "duration": 6, "velocity": 80}, {"time": 302, "pitch": 63, "duration": 2, "velocity": 85}, {"time": 305, "pitch": 72, "duration": 7, "velocity": 101}, {"time": 308, "pitch": 51, "duration": 4, "velocity": 67}, {"time": 311, "pitch": 68, "duration": 3, "velocity": 109}, {"time": 314, "pitch": 63, "duration": 3, "velocity": 106}, {"time": 317, "pitch": 68, "duration": 1, "velocity": 94}, {"time": 320, "pitch": 49, "duration": 17, "velocity": 101}, {"time": 320, "pitch": 65, "duration": 7, "velocity": 109}, {"time": 323, "pitch": 56, "duration": 6, "velocity": 82}, {"time": 326, "pitch": 61, "duration": 7, "velocity": 96}, {"time": 329, "pitch": 68, "duration": 7, "velocity": 106}, {"time": 332, "pitch": 56, "duration": 4, "velocity": 80}, {"time": 335, "pitch": 65, "duration": 3, "velocity": 101}, {"time": 338, "pitch": 61, "duration": 2, "velocity": 87}, {"time": 344, "pitch": 46, "duration": 19, "velocity": 101}, {"time": 344, "pitch": 58, "duration": 3, "velocity": 94}, {"time": 344, "pitch": 62, "duration": 9, "velocity": 91}, {"time": 347, "pitch": 53, "duration": 6, "velocity": 73}, {"time": 350, "pitch": 58, "duration": 6, "velocity": 85}, {"time": 353, "pitch": 65, "duration": 15, "velocity": 99}, {"time": 356, "pitch": 53, "duration": 4, "velocity": 74}, {"time": 359, "pitch": 58, "duration": 4, "velocity": 106}, {"time": 362, "pitch": 53, "duration": 4, "velocity": 76}, {"time": 365, "pitch": 58, "duration": 3, "velocity": 99}, {"time": 368, "pitch": 48, "duration": 22, "velocity": 104}, {"time": 374, "pitch": 60, "duration": 6, "velocity": 109}, {"time": 377, "pitch": 55, "duration": 4, "velocity": 99}, {"time": 380, "pitch": 64, "duration": 6, "velocity": 117}, {"time": 383, "pitch": 60, "duration": 13, "velocity": 94}, {"time": 386, "pitch": 55, "duration": 4, "velocity": 93}, {"time": 389, "pitch": 67, "duration": 25, "velocity": 101}, {"time": 392, "pitch": 48, "duration": 21, "velocity": 76}, {"time": 395, "pitch": 55, "duration": 18, "velocity": 72}, {"time": 398, "pitch": 60, "duration": 16, "velocity": 99}, {"time": 416, "pitch": 53, "duration": 21, "velocity": 100}, {"time": 419, "pitch": 60, "duration": 7, "velocity": 73}, {"time": 422, "pitch": 65, "duration": 3, "velocity": 94}, {"time": 425, "pitch": 67, "duration": 3, "velocity": 105}, {"time": 428, "pitch": 60, "duration": 4, "velocity": 62}, {"time": 431, "pitch": 68, "duration": 1, "velocity": 94}, {"time": 434, "pitch": 60, "duration": 1, "velocity": 2}, {"time": 440, "pitch": 53, "duration": 18, "velocity": 102}, {"time": 440, "pitch": 65, "duration": 2, "velocity": 84}, {"time": 440, "pitch": 72, "duration": 3, "velocity": 97}, {"time": 443, "pitch": 60, "duration": 7, "velocity": 67}, {"time": 446, "pitch": 65, "duration": 1, "velocity": 53}, {"time": 449, "pitch": 65, "duration": 6, "velocity": 94}, {"time": 449, "pitch": 68, "duration": 7, "velocity": 97}, {"time": 455, "pitch": 60, "duration": 2, "velocity": 78}, {"time": 458, "pitch": 65, "duration": 1, "velocity": 108}, {"time": 464, "pitch": 46, "duration": 22, "velocity": 102}, {"time": 464, "pitch": 58, "duration": 3, "velocity": 92}, {"time": 464, "pitch": 65, "duration": 4, "velocity": 87}, {"time": 467, "pitch": 53, "duration": 18, "velocity": 67}, {"time": 470, "pitch": 58, "duration": 2, "velocity": 78}, {"time": 473, "pitch": 58, "duration": 8, "velocity": 53}, {"time": 473, "pitch": 70, "duration": 9, "velocity": 97}, {"time": 485, "pitch": 58, "duration": 4, "velocity": 105}, {"time": 485, "pitch": 65, "duration": 4, "velocity": 89}, {"time": 488, "pitch": 46, "duration": 21, "velocity": 102}, {"time": 491, "pitch": 53, "duration": 7, "velocity": 53}, {"time": 494, "pitch": 60, "duration": 1, "velocity": 34}, {"time": 497, "pitch": 61, "duration": 8, "velocity": 105}, {"time": 500, "pitch": 53, "duration": 7, "velocity": 71}, {"time": 506, "pitch": 58, "duration": 4, "velocity": 87}, {"time": 512, "pitch": 51, "duration": 19, "velocity": 87}, {"time": 512, "pitch": 58, "duration": 3, "velocity": 100}, {"time": 512, "pitch": 63, "duration": 5, "velocity": 84}, {"time": 518, "pitch": 58, "duration": 1, "velocity": 35}, {"time": 521, "pitch": 67, "duration": 6, "velocity": 105}, {"time": 527, "pitch": 63, "duration": 3, "velocity": 84}, {"time": 530, "pitch": 58, "duration": 4, "velocity": 87}, {"time": 536, "pitch": 51, "duration": 17, "velocity": 94}, {"time": 536, "pitch": 58, "duration": 3, "velocity": 82}, {"time": 536, "pitch": 63, "duration": 6, "velocity": 78}, {"time": 542, "pitch": 58, "duration": 1, "velocity": 42}, {"time": 545, "pitch": 58, "duration": 3, "velocity": 94}, {"time": 545, "pitch": 67, "duration": 6, "velocity": 93}, {"time": 551, "pitch": 58, "duration": 1, "velocity": 100}, {"time": 551, "pitch": 63, "duration": 3, "velocity": 92}, {"time": 554, "pitch": 58, "duration": 1, "velocity": 97}, {"time": 560, "pitch": 53, "duration": 21, "velocity": 100}, {"time": 560, "pitch": 65, "duration": 3, "velocity": 92}, {"time": 560, "pitch": 68, "duration": 5, "velocity": 97}, {"time": 563, "pitch": 60, "duration": 18, "velocity": 62}, {"time": 566, "pitch": 65, "duration": 2, "velocity": 69}, {"time": 569, "pitch": 67, "duration": 4, "velocity": 112}, {"time": 575, "pitch": 68, "duration": 4, "velocity": 105}, {"time": 584, "pitch": 53, "duration": 22, "velocity": 102}, {"time": 584, "pitch": 65, "duration": 2, "velocity": 78}, {"time": 584, "pitch": 72, "duration": 5, "velocity": 94}, {"time": 587, "pitch": 60, "duration": 7, "velocity": 55}, {"time": 590, "pitch": 65, "duration": 1, "velocity": 44}, {"time": 593, "pitch": 65, "duration": 7, "velocity": 94}, {"time": 593, "pitch": 68, "duration": 9, "velocity": 102}, {"time": 599, "pitch": 60, "duration": 7, "velocity": 82}, {"time": 602, "pitch": 65, "duration": 5, "velocity": 92}, {"time": 605, "pitch": 68, "duration": 2, "velocity": 97}, {"time": 608, "pitch": 53, "duration": 21, "velocity": 100}, {"time": 611, "pitch": 60, "duration": 7, "velocity": 73}, {"time": 614, "pitch": 65, "duration": 3, "velocity": 94}, {"time": 617, "pitch": 67, "duration": 3, "velocity": 105}, {"time": 620, "pitch": 60, "duration": 4, "velocity": 62}, {"time": 623, "pitch": 68, "duration": 1, "velocity": 94}, {"time": 626, "pitch": 60, "duration": 1, "velocity": 2}, {"time": 632, "pitch": 53, "duration": 18, "velocity": 102}, {"time": 632, "pitch": 65, "duration": 2, "velocity": 84}, {"time": 632, "pitch": 72, "duration": 3, "velocity": 97}, {"time": 635, "pitch": 60, "duration": 7, "velocity": 67}, {"time": 638, "pitch": 65, "duration": 1, "velocity": 53}, {"time": 641, "pitch": 65, "duration": 6, "velocity": 94}, {"time": 641, "pitch": 68, "duration": 7, "velocity": 97}, {"time": 647, "pitch": 60, "duration": 2, "velocity": 78}, {"time": 650, "pitch": 65, "duration": 1, "velocity": 108}, {"time": 656, "pitch": 46, "duration": 22, "velocity": 102}, {"time": 656, "pitch": 58, "duration": 3, "velocity": 92}, {"time": 656, "pitch": 65, "duration": 4, "velocity": 87}, {"time": 659, "pitch": 53, "duration": 18, "velocity": 67}, {"time": 662, "pitch": 58, "duration": 2, "velocity": 78}, {"time": 665, "pitch": 58, "duration": 8, "velocity": 53}, {"time": 665, "pitch": 70, "duration": 9, "velocity": 97}, {"time": 677, "pitch": 58, "duration": 4, "velocity": 105}, {"time": 677, "pitch": 65, "duration": 4, "velocity": 89}, {"time": 680, "pitch": 46, "duration": 21, "velocity": 102}, {"time": 683, "pitch": 53, "duration": 7, "velocity": 53}, {"time": 686, "pitch": 60, "duration": 1, "velocity": 34}, {"time": 689, "pitch": 61, "duration": 8, "velocity": 105}, {"time": 692, "pitch": 53, "duration": 7, "velocity": 71}, {"time": 698, "pitch": 58, "duration": 4, "velocity": 87}, {"time": 704, "pitch": 51, "duration": 15, "velocity": 100}, {"time": 704, "pitch": 63, "duration": 3, "velocity": 82}, {"time": 704, "pitch": 67, "duration": 6, "velocity": 82}, {"time": 707, "pitch": 58, "duration": 7, "velocity": 80}, {"time": 710, "pitch": 63, "duration": 1, "velocity": 82}, {"time": 713, "pitch": 63, "duration": 3, "velocity": 102}, {"time": 713, "pitch": 70, "duration": 3, "velocity": 92}, {"time": 716, "pitch": 58, "duration": 3, "velocity": 71}, {"time": 719, "pitch": 63, "duration": 1, "velocity": 100}, {"time": 719, "pitch": 67, "duration": 1, "velocity": 99}, {"time": 728, "pitch": 46, "duration": 16, "velocity": 97}, {"time": 728, "pitch": 58, "duration": 3, "velocity": 92}, {"time": 728, "pitch": 62, "duration": 6, "velocity": 70}, {"time": 731, "pitch": 53, "duration": 7, "velocity": 49}, {"time": 734, "pitch": 58, "duration": 7, "velocity": 94}, {"time": 737, "pitch": 65, "duration": 3, "velocity": 97}, {"time": 740, "pitch": 53, "duration": 4, "velocity": 71}, {"time": 743, "pitch": 58, "duration": 1, "velocity": 78}, {"time": 743, "pitch": 62, "duration": 4, "velocity": 102}, {"time": 743, "pitch": 65, "duration": 5, "velocity": 100}, {"time": 743, "pitch": 70, "duration": 5, "velocity": 97}, {"time": 746, "pitch": 58, "duration": 2, "velocity": 73}, {"time": 752, "pitch": 48, "duration": 22, "velocity": 105}, {"time": 752, "pitch": 60, "duration": 4, "velocity": 102}, {"time": 755, "pitch": 55, "duration": 6, "velocity": 44}, {"time": 758, "pitch": 60, "duration": 4, "velocity": 105}, {"time": 761, "pitch": 67, "duration": 4, "velocity": 116}, {"time": 764, "pitch": 55, "duration": 10, "velocity": 72}, {"time": 767, "pitch": 60, "duration": 8, "velocity": 84}, {"time": 770, "pitch": 64, "duration": 4, "velocity": 99}, {"time": 773, "pitch": 67, "duration": 2, "velocity": 99}, {"time": 776, "pitch": 48, "duration": 24, "velocity": 105}, {"time": 776, "pitch": 60, "duration": 4, "velocity": 89}, {"time": 776, "pitch": 64, "duration": 6, "velocity": 82}, {"time": 776, "pitch": 67, "duration": 6, "velocity": 68}, {"time": 776, "pitch": 72, "duration": 6, "velocity": 97}, {"time": 779, "pitch": 55, "duration": 10, "velocity": 45}, {"time": 788, "pitch": 60, "duration": 3, "velocity": 111}, {"time": 788, "pitch": 64, "duration": 4, "velocity": 112}, {"time": 788, "pitch": 67, "duration": 6, "velocity": 99}, {"time": 791, "pitch": 55, "duration": 9, "velocity": 102}, {"time": 794, "pitch": 60, "duration": 2, "velocity": 117}, {"time": 797, "pitch": 60, "duration": 2, "velocity": 94}, {"time": 797, "pitch": 64, "duration": 2, "velocity": 102}, {"time": 797, "pitch": 67, "duration": 3, "velocity": 74}, {"time": 797, "pitch": 72, "duration": 3, "velocity": 97}, {"time": 800, "pitch": 53, "duration": 21, "velocity": 100}, {"time": 803, "pitch": 60, "duration": 7, "velocity": 73}, {"time": 806, "pitch": 65, "duration": 3, "velocity": 94}, {"time": 809, "pitch": 67, "duration": 3, "velocity": 105}, {"time": 812, "pitch": 60, "duration": 4, "velocity": 62}, {"time": 815, "pitch": 68, "duration": 1, "velocity": 94}, {"time": 818, "pitch": 60, "duration": 1, "velocity": 2}, {"time": 824, "pitch": 53, "duration": 18, "velocity": 102}, {"time": 824, "pitch": 65, "duration": 2, "velocity": 84}, {"time": 824, "pitch": 72, "duration": 3, "velocity": 97}, {"time": 827, "pitch": 60, "duration": 7, "velocity": 67}, {"time": 830, "pitch": 65, "duration": 1, "velocity": 53}, {"time": 833, "pitch": 65, "duration": 6, "velocity": 94}, {"time": 833, "pitch": 68, "duration": 7, "velocity": 97}, {"time": 839, "pitch": 60, "duration": 2, "velocity": 78}, {"time": 842, "pitch": 65, "duration": 1, "velocity": 108}, {"time": 848, "pitch": 46, "duration": 22, "velocity": 102}, {"time": 848, "pitch": 58, "duration": 3, "velocity": 92}, {"time": 848, "pitch": 65, "duration": 4, "velocity": 87}, {"time": 851, "pitch": 53, "duration": 18, "velocity": 67}, {"time": 854, "pitch": 58, "duration": 2, "velocity": 78}, {"time": 857, "pitch": 58, "duration": 8, "velocity": 53}, {"time": 857, "pitch": 70, "duration": 9, "velocity": 97}, {"time": 869, "pitch": 58, "duration": 4, "velocity": 105}, {"time": 869, "pitch": 65, "duration": 4, "velocity": 89}, {"time": 872, "pitch": 46, "duration": 21, "velocity": 102}, {"time": 875, "pitch": 53, "duration": 7, "velocity": 53}, {"time": 878, "pitch": 60, "duration": 1, "velocity": 34}, {"time": 881, "pitch": 61, "duration": 8, "velocity": 105}, {"time": 884, "pitch": 53, "duration": 7, "velocity": 71}, {"time": 890, "pitch": 58, "duration": 4, "velocity": 87}, {"time": 896, "pitch": 51, "duration": 19, "velocity": 87}, {"time": 896, "pitch": 58, "duration": 3, "velocity": 100}, {"time": 896, "pitch": 63, "duration": 5, "velocity": 84}, {"time": 902, "pitch": 58, "duration": 1, "velocity": 35}, {"time": 905, "pitch": 67, "duration": 6, "velocity": 105}, {"time": 911, "pitch": 63, "duration": 3, "velocity": 84}, {"time": 914, "pitch": 58, "duration": 4, "velocity": 87}, {"time": 920, "pitch": 51, "duration": 17, "velocity": 94}, {"time": 920, "pitch": 58, "duration": 3, "velocity": 82}, {"time": 920, "pitch": 63, "duration": 6, "velocity": 78}, {"time": 926, "pitch": 58, "duration": 1, "velocity": 42}, {"time": 929, "pitch": 58, "duration": 3, "velocity": 94}, {"time": 929, "pitch": 67, "duration": 6, "velocity": 93}, {"time": 935, "pitch": 58, "duration": 1, "velocity": 100}, {"time": 935, "pitch": 63, "duration": 3, "velocity": 92}, {"time": 938, "pitch": 58, "duration": 1, "velocity": 97}, {"time": 944, "pitch": 53, "duration": 21, "velocity": 100}, {"time": 944, "pitch": 65, "duration": 3, "velocity": 92}, {"time": 944, "pitch": 68, "duration": 5, "velocity": 97}, {"time": 947, "pitch": 60, "duration": 18, "velocity": 62}, {"time": 950, "pitch": 65, "duration": 2, "velocity": 69}, {"time": 953, "pitch": 67, "duration": 4, "velocity": 112}, {"time": 959, "pitch": 68, "duration": 4, "velocity": 105}, {"time": 968, "pitch": 53, "duration": 22, "velocity": 102}, {"time": 968, "pitch": 65, "duration": 2, "velocity": 78}, {"time": 968, "pitch": 72, "duration": 5, "velocity": 94}, {"time": 971, "pitch": 60, "duration": 7, "velocity": 55}, {"time": 974, "pitch": 65, "duration": 1, "velocity": 44}, {"time": 977, "pitch": 65, "duration": 7, "velocity": 94}, {"time": 977, "pitch": 68, "duration": 9, "velocity": 102}, {"time": 983, "pitch": 60, "duration": 7, "velocity": 82}, {"time": 986, "pitch": 65, "duration": 5, "velocity": 92}, {"time": 989, "pitch": 68, "duration": 2, "velocity": 97}, {"time": 992, "pitch": 53, "duration": 21, "velocity": 100}, {"time": 995, "pitch": 60, "duration": 7, "velocity": 73}, {"time": 998, "pitch": 65, "duration": 3, "velocity": 94}, {"time": 1001, "pitch": 67, "duration": 3, "velocity": 105}, {"time": 1004, "pitch": 60, "duration": 4, "velocity": 62}, {"time": 1007, "pitch": 68, "duration": 1, "velocity": 94}, {"time": 1010, "pitch": 60, "duration": 1, "velocity": 2}, {"time": 1016, "pitch": 53, "duration": 18, "velocity": 102}, {"time": 1016, "pitch": 65, "duration": 2, "velocity": 84}, {"time": 1016, "pitch": 72, "duration": 3, "velocity": 97}, {"time": 1019, "pitch": 60, "duration": 7, "velocity": 67}, {"time": 1022, "pitch": 65, "duration": 1, "velocity": 53}, {"time": 1025, "pitch": 65, "duration": 6, "velocity": 94}, {"time": 1025, "pitch": 68, "duration": 7, "velocity": 97}, {"time": 1031, "pitch": 60, "duration": 2, "velocity": 78}, {"time": 1034, "pitch": 65, "duration": 1, "velocity": 108}, {"time": 1040, "pitch": 46, "duration": 22, "velocity": 102}, {"time": 1040, "pitch": 58, "duration": 3, "velocity": 92}, {"time": 1040, "pitch": 65, "duration": 4, "velocity": 87}, {"time": 1043, "pitch": 53, "duration": 18, "velocity": 67}, {"time": 1046, "pitch": 58, "duration": 2, "velocity": 78}, {"time": 1049, "pitch": 58, "duration": 8, "velocity": 53}, {"time": 1049, "pitch": 70, "duration": 9, "velocity": 97}, {"time": 1061, "pitch": 58, "duration": 4, "velocity": 105}, {"time": 1061, "pitch": 65, "duration": 4, "velocity": 89}, {"time": 1064, "pitch": 46, "duration": 21, "velocity": 102}, {"time": 1067, "pitch": 53, "duration": 7, "velocity": 53}, {"time": 1070, "pitch": 60, "duration": 1, "velocity": 34}, {"time": 1073, "pitch": 61, "duration": 8, "velocity": 105}, {"time": 1076, "pitch": 53, "duration": 7, "velocity": 71}, {"time": 1082, "pitch": 58, "duration": 4, "velocity": 87}, {"time": 1088, "pitch": 51, "duration": 15, "velocity": 100}, {"time": 1088, "pitch": 63, "duration": 3, "velocity": 82}, {"time": 1088, "pitch": 67, "duration": 6, "velocity": 82}, {"time": 1091, "pitch": 58, "duration": 7, "velocity": 80}, {"time": 1094, "pitch": 63, "duration": 1, "velocity": 82}, {"time": 1097, "pitch": 63, "duration": 3, "velocity": 102}, {"time": 1097, "pitch": 70, "duration": 3, "velocity": 92}, {"time": 1100, "pitch": 58, "duration": 3, "velocity": 71}, {"time": 1103, "pitch": 63, "duration": 1, "velocity": 100}, {"time": 1103, "pitch": 67, "duration": 1, "velocity": 99}, {"time": 1112, "pitch": 46, "duration": 16, "velocity": 97}, {"time": 1112, "pitch": 58, "duration": 3, "velocity": 92}, {"time": 1112, "pitch": 62, "duration": 6, "velocity": 70}, {"time": 1115, "pitch": 53, "duration": 7, "velocity": 49}, {"time": 1118, "pitch": 58, "duration": 7, "velocity": 94}, {"time": 1121, "pitch": 65, "duration": 3, "velocity": 97}, {"time": 1124, "pitch": 53, "duration": 4, "velocity": 71}, {"time": 1127, "pitch": 58, "duration": 1, "velocity": 78}, {"time": 1127, "pitch": 62, "duration": 4, "velocity": 102}, {"time": 1127, "pitch": 65, "duration": 5, "velocity": 100}, {"time": 1127, "pitch": 70, "duration": 5, "velocity": 97}, {"time": 1130, "pitch": 58, "duration": 2, "velocity": 73}, {"time": 1136, "pitch": 48, "duration": 22, "velocity": 105}, {"time": 1136, "pitch": 60, "duration": 4, "velocity": 102}, {"time": 1139, "pitch": 55, "duration": 6, "velocity": 44}, {"time": 1142, "pitch": 60, "duration": 4, "velocity": 105}, {"time": 1145, "pitch": 67, "duration": 4, "velocity": 116}, {"time": 1148, "pitch": 55, "duration": 10, "velocity": 72}, {"time": 1151, "pitch": 60, "duration": 8, "velocity": 84}, {"time": 1154, "pitch": 64, "duration": 4, "velocity": 99}, {"time": 1157, "pitch": 67, "duration": 2, "velocity": 99}, {"time": 1160, "pitch": 48, "duration": 24, "velocity": 105}, {"time": 1160, "pitch": 60, "duration": 4, "velocity": 89}, {"time": 1160, "pitch": 64, "duration": 6, "velocity": 82}, {"time": 1160, "pitch": 67, "duration": 6, "velocity": 68}, {"time": 1160, "pitch": 72, "duration": 6, "velocity": 97}, {"time": 1163, "pitch": 55, "duration": 10, "velocity": 45}, {"time": 1172, "pitch": 60, "duration": 3, "velocity": 111}, {"time": 1172, "pitch": 64, "duration": 4, "velocity": 112}, {"time": 1172, "pitch": 67, "duration": 6, "velocity": 99}, {"time": 1175, "pitch": 55, "duration": 9, "velocity": 102}, {"time": 1178, "pitch": 60, "duration": 2, "velocity": 117}, {"time": 1181, "pitch": 60, "duration": 2, "velocity": 94}, {"time": 1181, "pitch": 64, "duration": 2, "velocity": 102}, {"time": 1181, "pitch": 67, "duration": 3, "velocity": 74}, {"time": 1181, "pitch": 72, "duration": 3, "velocity": 97}, {"time": 1184, "pitch": 53, "duration": 21, "velocity": 108}, {"time": 1184, "pitch": 65, "duration": 3, "velocity": 100}, {"time": 1184, "pitch": 68, "duration": 6, "velocity": 102}, {"time": 1187, "pitch": 60, "duration": 9, "velocity": 44}, {"time": 1190, "pitch": 65, "duration": 1, "velocity": 69}, {"time": 1196, "pitch": 65, "duration": 3, "velocity": 111}, {"time": 1196, "pitch": 68, "duration": 3, "velocity": 120}, {"time": 1196, "pitch": 72, "duration": 3, "velocity": 111}, {"time": 1199, "pitch": 60, "duration": 8, "velocity": 92}, {"time": 1202, "pitch": 65, "duration": 1, "velocity": 92}, {"time": 1205, "pitch": 65, "duration": 7, "velocity": 114}, {"time": 1205, "pitch": 68, "duration": 9, "velocity": 120}, {"time": 1208, "pitch": 53, "duration": 18, "velocity": 105}, {"time": 1208, "pitch": 60, "duration": 10, "velocity": 71}, {"time": 1214, "pitch": 65, "duration": 4, "velocity": 78}, {"time": 1217, "pitch": 68, "duration": 1, "velocity": 105}, {"time": 1220, "pitch": 65, "duration": 3, "velocity": 102}, {"time": 1220, "pitch": 68, "duration": 6, "velocity": 108}, {"time": 1220, "pitch": 72, "duration": 4, "velocity": 97}, {"time": 1223, "pitch": 60, "duration": 2, "velocity": 87}, {"time": 1226, "pitch": 65, "duration": 2, "velocity": 105}, {"time": 1232, "pitch": 46, "duration": 22, "velocity": 100}, {"time": 1232, "pitch": 58, "duration": 3, "velocity": 100}, {"time": 1232, "pitch": 61, "duration": 3, "velocity": 97}, {"time": 1235, "pitch": 53, "duration": 10, "velocity": 48}, {"time": 1238, "pitch": 58, "duration": 4, "velocity": 92}, {"time": 1241, "pitch": 65, "duration": 1, "velocity": 92}, {"time": 1244, "pitch": 58, "duration": 4, "velocity": 111}, {"time": 1244, "pitch": 61, "duration": 4, "velocity": 117}, {"time": 1244, "pitch": 65, "duration": 7, "velocity": 108}, {"time": 1244, "pitch": 70, "duration": 10, "velocity": 102}, {"time": 1247, "pitch": 53, "duration": 7, "velocity": 92}, {"time": 1250, "pitch": 58, "duration": 2, "velocity": 105}, {"time": 1253, "pitch": 58, "duration": 6, "velocity": 97}, {"time": 1253, "pitch": 61, "duration": 6, "velocity": 108}, {"time": 1253, "pitch": 65, "duration": 7, "velocity": 94}, {"time": 1256, "pitch": 46, "duration": 21, "velocity": 102}, {"time": 1259, "pitch": 53, "duration": 9, "velocity": 67}, {"time": 1262, "pitch": 58, "duration": 7, "velocity": 108}, {"time": 1265, "pitch": 61, "duration": 3, "velocity": 111}, {"time": 1268, "pitch": 53, "duration": 3, "velocity": 80}, {"time": 1271, "pitch": 58, "duration": 3, "velocity": 120}, {"time": 1271, "pitch": 65, "duration": 4, "velocity": 100}, {"time": 1274, "pitch": 53, "duration": 4, "velocity": 94}, {"time": 1277, "pitch": 61, "duration": 2, "velocity": 84}, {"time": 1280, "pitch": 51, "duration": 11, "velocity": 108}, {"time": 1280, "pitch": 58, "duration": 4, "velocity": 82}, {"time": 1280, "pitch": 63, "duration": 5, "velocity": 100}, {"time": 1286, "pitch": 58, "duration": 1, "velocity": 71}, {"time": 1289, "pitch": 58, "duration": 4, "velocity": 102}, {"time": 1289, "pitch": 67, "duration": 4, "velocity": 109}, {"time": 1292, "pitch": 51, "duration": 10, "velocity": 84}, {"time": 1295, "pitch": 58, "duration": 1, "velocity": 100}, {"time": 1295, "pitch": 63, "duration": 6, "velocity": 97}, {"time": 1301, "pitch": 58, "duration": 1, "velocity": 108}, {"time": 1304, "pitch": 46, "duration": 17, "velocity": 100}, {"time": 1304, "pitch": 58, "duration": 3, "velocity": 87}, {"time": 1304, "pitch": 62, "duration": 6, "velocity": 52}, {"time": 1307, "pitch": 53, "duration": 7, "velocity": 78}, {"time": 1310, "pitch": 58, "duration": 1, "velocity": 97}, {"time": 1313, "pitch": 58, "duration": 4, "velocity": 117}, {"time": 1313, "pitch": 62, "duration": 4, "velocity": 112}, {"time": 1313, "pitch": 65, "duration": 4, "velocity": 108}, {"time": 1313, "pitch": 70, "duration": 3, "velocity": 94}, {"time": 1316, "pitch": 53, "duration": 4, "velocity": 89}, {"time": 1319, "pitch": 62, "duration": 3, "velocity": 105}, {"time": 1319, "pitch": 65, "duration": 6, "velocity": 102}, {"time": 1322, "pitch": 58, "duration": 4, "velocity": 84}, {"time": 1325, "pitch": 62, "duration": 2, "velocity": 99}, {"time": 1328, "pitch": 49, "duration": 21, "velocity": 102}, {"time": 1328, "pitch": 61, "duration": 3, "velocity": 87}, {"time": 1328, "pitch": 65, "duration": 5, "velocity": 100}, {"time": 1331, "pitch": 56, "duration": 7, "velocity": 58}, {"time": 1334, "pitch": 61, "duration": 1, "velocity": 71}, {"time": 1337, "pitch": 61, "duration": 4, "velocity": 114}, {"time": 1337, "pitch": 68, "duration": 4, "velocity": 105}, {"time": 1340, "pitch": 56, "duration": 10, "velocity": 94}, {"time": 1343, "pitch": 61, "duration": 2, "velocity": 108}, {"time": 1343, "pitch": 65, "duration": 4, "velocity": 111}, {"time": 1349, "pitch": 61, "duration": 1, "velocity": 94}, {"time": 1349, "pitch": 65, "duration": 1, "velocity": 21}, {"time": 1352, "pitch": 48, "duration": 11, "velocity": 89}, {"time": 1352, "pitch": 60, "duration": 2, "velocity": 102}, {"time": 1352, "pitch": 64, "duration": 4, "velocity": 105}, {"time": 1355, "pitch": 52, "duration": 7, "velocity": 59}, {"time": 1358, "pitch": 60, "duration": 1, "velocity": 114}, {"time": 1361, "pitch": 60, "duration": 4, "velocity": 111}, {"time": 1361, "pitch": 64, "duration": 4, "velocity": 112}, {"time": 1361, "pitch": 67, "duration": 4, "velocity": 99}, {"time": 1364, "pitch": 48, "duration": 12, "velocity": 47}, {"time": 1364, "pitch": 55, "duration": 4, "velocity": 102}, {"time": 1367, "pitch": 60, "duration": 6, "velocity": 117}, {"time": 1367, "pitch": 64, "duration": 7, "velocity": 109}, {"time": 1367, "pitch": 67, "duration": 7, "velocity": 93}, {"time": 1367, "pitch": 72, "duration": 8, "velocity": 97}, {"time": 1370, "pitch": 52, "duration": 3, "velocity": 99}, {"time": 1370, "pitch": 55, "duration": 3, "velocity": 79}, {"time": 1376, "pitch": 53, "duration": 21, "velocity": 108}, {"time": 1376, "pitch": 65, "duration": 3, "velocity": 100}, {"time": 1376, "pitch": 68, "duration": 6, "velocity": 102}, {"time": 1379, "pitch": 60, "duration": 9, "velocity": 44}, {"time": 1382, "pitch": 65, "duration": 1, "velocity": 69}, {"time": 1388, "pitch": 65, "duration": 3, "velocity": 111}, {"time": 1388, "pitch": 68, "duration": 3, "velocity": 120}, {"time": 1388, "pitch": 72, "duration": 3, "velocity": 111}, {"time": 1391, "pitch": 60, "duration": 8, "velocity": 92}, {"time": 1394, "pitch": 65, "duration": 1, "velocity": 92}, {"time": 1397, "pitch": 65, "duration": 7, "velocity": 114}, {"time": 1397, "pitch": 68, "duration": 9, "velocity": 120}, {"time": 1400, "pitch": 53, "duration": 18, "velocity": 105}, {"time": 1400, "pitch": 60, "duration": 10, "velocity": 71}, {"time": 1406, "pitch": 65, "duration": 4, "velocity": 78}, {"time": 1409, "pitch": 68, "duration": 1, "velocity": 105}, {"time": 1412, "pitch": 65, "duration": 3, "velocity": 102}, {"time": 1412, "pitch": 68, "duration": 6, "velocity": 108}, {"time": 1412, "pitch": 72, "duration": 4, "velocity": 97}, {"time": 1415, "pitch": 60, "duration": 2, "velocity": 87}, {"time": 1418, "pitch": 65, "duration": 2, "velocity": 105}, {"time": 1424, "pitch": 46, "duration": 22, "velocity": 100}, {"time": 1424, "pitch": 58, "duration": 3, "velocity": 100}, {"time": 1424, "pitch": 61, "duration": 3, "velocity": 97}, {"time": 1427, "pitch": 53, "duration": 10, "velocity": 48}, {"time": 1430, "pitch": 58, "duration": 4, "velocity": 92}, {"time": 1433, "pitch": 65, "duration": 1, "velocity": 92}, {"time": 1436, "pitch": 58, "duration": 4, "velocity": 111}, {"time": 1436, "pitch": 61, "duration": 4, "velocity": 117}, {"time": 1436, "pitch": 65, "duration": 7, "velocity": 108}, {"time": 1436, "pitch": 70, "duration": 10, "velocity": 102}, {"time": 1439, "pitch": 53, "duration": 7, "velocity": 92}, {"time": 1442, "pitch": 58, "duration": 2, "velocity": 105}, {"time": 1445, "pitch": 58, "duration": 6, "velocity": 97}, {"time": 1445, "pitch": 61, "duration": 6, "velocity": 108}, {"time": 1445, "pitch": 65, "duration": 7, "velocity": 94}, {"time": 1448, "pitch": 46, "duration": 21, "velocity": 102}, {"time": 1451, "pitch": 53, "duration": 9, "velocity": 67}, {"time": 1454, "pitch": 58, "duration": 7, "velocity": 108}, {"time": 1457, "pitch": 61, "duration": 3, "velocity": 111}, {"time": 1460, "pitch": 53, "duration": 3, "velocity": 80}, {"time": 1463, "pitch": 58, "duration": 3, "velocity": 120}, {"time": 1463, "pitch": 65, "duration": 4, "velocity": 100}, {"time": 1466, "pitch": 53, "duration": 4, "velocity": 94}, {"time": 1469, "pitch": 61, "duration": 2, "velocity": 84}, {"time": 1472, "pitch": 51, "duration": 11, "velocity": 108}, {"time": 1472, "pitch": 58, "duration": 4, "velocity": 82}, {"time": 1472, "pitch": 63, "duration": 5, "velocity": 100}, {"time": 1478, "pitch": 58, "duration": 1, "velocity": 71}, {"time": 1481, "pitch": 58, "duration": 4, "velocity": 102}, {"time": 1481, "pitch": 67, "duration": 4, "velocity": 109}, {"time": 1484, "pitch": 51, "duration": 10, "velocity": 84}, {"time": 1487, "pitch": 58, "duration": 1, "velocity": 100}, {"time": 1487, "pitch": 63, "duration": 6, "velocity": 97}, {"time": 1493, "pitch": 58, "duration": 1, "velocity": 108}, {"time": 1496, "pitch": 46, "duration": 17, "velocity": 100}, {"time": 1496, "pitch": 58, "duration": 3, "velocity": 87}, {"time": 1496, "pitch": 62, "duration": 6, "velocity": 52}, {"time": 1499, "pitch": 53, "duration": 7, "velocity": 78}, {"time": 1502, "pitch": 58, "duration": 1, "velocity": 97}, {"time": 1505, "pitch": 58, "duration": 4, "velocity": 117}, {"time": 1505, "pitch": 62, "duration": 4, "velocity": 112}, {"time": 1505, "pitch": 65, "duration": 4, "velocity": 108}, {"time": 1505, "pitch": 70, "duration": 3, "velocity": 94}, {"time": 1508, "pitch": 53, "duration": 4, "velocity": 89}, {"time": 1511, "pitch": 62, "duration": 3, "velocity": 105}, {"time": 1511, "pitch": 65, "duration": 6, "velocity": 102}, {"time": 1514, "pitch": 58, "duration": 4, "velocity": 84}, {"time": 1517, "pitch": 62, "duration": 2, "velocity": 99}, {"time": 1520, "pitch": 48, "duration": 17, "velocity": 105}, {"time": 1520, "pitch": 60, "duration": 6, "velocity": 102}, {"time": 1520, "pitch": 67, "duration": 9, "velocity": 74}, {"time": 1526, "pitch": 55, "duration": 7, "velocity": 40}, {"time": 1529, "pitch": 60, "duration": 2, "velocity": 111}, {"time": 1532, "pitch": 60, "duration": 3, "velocity": 114}, {"time": 1532, "pitch": 63, "duration": 3, "velocity": 114}, {"time": 1535, "pitch": 55, "duration": 2, "velocity": 102}, {"time": 1538, "pitch": 60, "duration": 4, "velocity": 117}, {"time": 1541, "pitch": 63, "duration": 1, "velocity": 84}, {"time": 1544, "pitch": 53, "duration": 24, "velocity": 105}, {"time": 1544, "pitch": 60, "duration": 3, "velocity": 97}, {"time": 1544, "pitch": 65, "duration": 7, "velocity": 97}, {"time": 1550, "pitch": 60, "duration": 1, "velocity": 19}, {"time": 1553, "pitch": 60, "duration": 4, "velocity": 114}, {"time": 1553, "pitch": 65, "duration": 4, "velocity": 102}, {"time": 1553, "pitch": 68, "duration": 5, "velocity": 102}, {"time": 1559, "pitch": 65, "duration": 3, "velocity": 97}, {"time": 1562, "pitch": 60, "duration": 5, "velocity": 94}, {"time": 1568, "pitch": 41, "duration": 13, "velocity": 101}, {"time": 1568, "pitch": 60, "duration": 9, "velocity": 101}, {"time": 1568, "pitch": 65, "duration": 7, "velocity": 101}, {"time": 1580, "pitch": 60, "duration": 2, "velocity": 104}, {"time": 1580, "pitch": 65, "duration": 8, "velocity": 109}, {"time": 1580, "pitch": 68, "duration": 7, "velocity": 104}, {"time": 1586, "pitch": 60, "duration": 4, "velocity": 59}, {"time": 1592, "pitch": 53, "duration": 13, "velocity": 101}, {"time": 1592, "pitch": 65, "duration": 8, "velocity": 99}, {"time": 1592, "pitch": 68, "duration": 8, "velocity": 101}, {"time": 1598, "pitch": 60, "duration": 2, "velocity": 45}, {"time": 1604, "pitch": 60, "duration": 2, "velocity": 106}, {"time": 1604, "pitch": 65, "duration": 6, "velocity": 112}, {"time": 1604, "pitch": 68, "duration": 6, "velocity": 104}, {"time": 1610, "pitch": 60, "duration": 2, "velocity": 109}, {"time": 1616, "pitch": 46, "duration": 14, "velocity": 104}, {"time": 1616, "pitch": 58, "duration": 7, "velocity": 99}, {"time": 1616, "pitch": 61, "duration": 6, "velocity": 91}, {"time": 1616, "pitch": 65, "duration": 7, "velocity": 104}, {"time": 1622, "pitch": 53, "duration": 7, "velocity": 43}, {"time": 1628, "pitch": 58, "duration": 3, "velocity": 109}, {"time": 1628, "pitch": 61, "duration": 4, "velocity": 109}, {"time": 1628, "pitch": 65, "duration": 4, "velocity": 106}, {"time": 1640, "pitch": 46, "duration": 19, "velocity": 106}, {"time": 1640, "pitch": 58, "duration": 6, "velocity": 101}, {"time": 1640, "pitch": 61, "duration": 7, "velocity": 96}, {"time": 1640, "pitch": 65, "duration": 6, "velocity": 101}, {"time": 1646, "pitch": 53, "duration": 12, "velocity": 82}, {"time": 1652, "pitch": 58, "duration": 6, "velocity": 109}, {"time": 1652, "pitch": 61, "duration": 4, "velocity": 109}, {"time": 1652, "pitch": 65, "duration": 6, "velocity": 109}, {"time": 1658, "pitch": 61, "duration": 5, "velocity": 96}, {"time": 1664, "pitch": 51, "duration": 17, "velocity": 104}, {"time": 1664, "pitch": 58, "duration": 4, "velocity": 101}, {"time": 1664, "pitch": 63, "duration": 5, "velocity": 104}, {"time": 1670, "pitch": 58, "duration": 1, "velocity": 96}, {"time": 1676, "pitch": 58, "duration": 2, "velocity": 96}, {"time": 1676, "pitch": 63, "duration": 6, "velocity": 109}, {"time": 1676, "pitch": 67, "duration": 7, "velocity": 113}, {"time": 1682, "pitch": 58, "duration": 4, "velocity": 101}, {"time": 1688, "pitch": 46, "duration": 16, "velocity": 96}, {"time": 1688, "pitch": 58, "duration": 6, "velocity": 106}, {"time": 1688, "pitch": 62, "duration": 7, "velocity": 107}, {"time": 1694, "pitch": 53, "duration": 9, "velocity": 73}, {"time": 1700, "pitch": 58, "duration": 2, "velocity": 109}, {"time": 1700, "pitch": 62, "duration": 6, "velocity": 120}, {"time": 1700, "pitch": 65, "duration": 6, "velocity": 106}, {"time": 1706, "pitch": 58, "duration": 2, "velocity": 112}, {"time": 1712, "pitch": 48, "duration": 7, "velocity": 101}, {"time": 1712, "pitch": 60, "duration": 7, "velocity": 104}, {"time": 1712, "pitch": 63, "duration": 7, "velocity": 106}, {"time": 1712, "pitch": 67, "duration": 10, "velocity": 104}, {"time": 1718, "pitch": 55, "duration": 2, "velocity": 104}, {"time": 1724, "pitch": 51, "duration": 6, "velocity": 101}, {"time": 1724, "pitch": 58, "duration": 3, "velocity": 106}, {"time": 1724, "pitch": 63, "duration": 7, "velocity": 109}, {"time": 1724, "pitch": 67, "duration": 7, "velocity": 113}, {"time": 1730, "pitch": 58, "duration": 1, "velocity": 82}, {"time": 1736, "pitch": 41, "duration": 25, "velocity": 96}, {"time": 1736, "pitch": 53, "duration": 6, "velocity": 85}, {"time": 1736, "pitch": 56, "duration": 6, "velocity": 76}, {"time": 1736, "pitch": 60, "duration": 7, "velocity": 101}, {"time": 1742, "pitch": 48, "duration": 6, "velocity": 61}, {"time": 1745, "pitch": 53, "duration": 1, "velocity": 109}, {"time": 1748, "pitch": 53, "duration": 4, "velocity": 104}, {"time": 1748, "pitch": 56, "duration": 4, "velocity": 99}, {"time": 1751, "pitch": 48, "duration": 9, "velocity": 89}, {"time": 1754, "pitch": 55, "duration": 6, "velocity": 99}, {"time": 1760, "pitch": 53, "duration": 21, "velocity": 100}, {"time": 1763, "pitch": 60, "duration": 7, "velocity": 73}, {"time": 1766, "pitch": 65, "duration": 3, "velocity": 94}, {"time": 1769, "pitch": 67, "duration": 3, "velocity": 105}, {"time": 1772, "pitch": 60, "duration": 4, "velocity": 62}, {"time": 1775, "pitch": 68, "duration": 1, "velocity": 94}, {"time": 1778, "pitch": 60, "duration": 1, "velocity": 2}, {"time": 1784, "pitch": 53, "duration": 18, "velocity": 102}, {"time": 1784, "pitch": 65, "duration": 2, "velocity": 84}, {"time": 1784, "pitch": 72, "duration": 3, "velocity": 97}, {"time": 1787, "pitch": 60, "duration": 7, "velocity": 67}, {"time": 1790, "pitch": 65, "duration": 1, "velocity": 53}, {"time": 1793, "pitch": 65, "duration": 6, "velocity": 94}, {"time": 1793, "pitch": 68, "duration": 7, "velocity": 97}, {"time": 1799, "pitch": 60, "duration": 2, "velocity": 78}, {"time": 1802, "pitch": 65, "duration": 1, "velocity": 108}, {"time": 1808, "pitch": 46, "duration": 22, "velocity": 102}, {"time": 1808, "pitch": 58, "duration": 3, "velocity": 92}, {"time": 1808, "pitch": 65, "duration": 4, "velocity": 87}, {"time": 1811, "pitch": 53, "duration": 18, "velocity": 67}, {"time": 1814, "pitch": 58, "duration": 2, "velocity": 78}, {"time": 1817, "pitch": 58, "duration": 8, "velocity": 53}, {"time": 1817, "pitch": 70, "duration": 9, "velocity": 97}, {"time": 1829, "pitch": 58, "duration": 4, "velocity": 105}, {"time": 1829, "pitch": 65, "duration": 4, "velocity": 89}, {"time": 1832, "pitch": 46, "duration": 21, "velocity": 102}, {"time": 1835, "pitch": 53, "duration": 7, "velocity": 53}, {"time": 1838, "pitch": 60, "duration": 1, "velocity": 34}, {"time": 1841, "pitch": 61, "duration": 8, "velocity": 105}, {"time": 1844, "pitch": 53, "duration": 7, "velocity": 71}, {"time": 1850, "pitch": 58, "duration": 4, "velocity": 87}, {"time": 1856, "pitch": 51, "duration": 19, "velocity": 87}, {"time": 1856, "pitch": 58, "duration": 3, "velocity": 100}, {"time": 1856, "pitch": 63, "duration": 5, "velocity": 84}, {"time": 1862, "pitch": 58, "duration": 1, "velocity": 35}, {"time": 1865, "pitch": 67, "duration": 6, "velocity": 105}, {"time": 1871, "pitch": 63, "duration": 3, "velocity": 84}, {"time": 1874, "pitch": 58, "duration": 4, "velocity": 87}, {"time": 1880, "pitch": 51, "duration": 17, "velocity": 94}, {"time": 1880, "pitch": 58, "duration": 3, "velocity": 82}, {"time": 1880, "pitch": 63, "duration": 6, "velocity": 78}, {"time": 1886, "pitch": 58, "duration": 1, "velocity": 42}, {"time": 1889, "pitch": 58, "duration": 3, "velocity": 94}, {"time": 1889, "pitch": 67, "duration": 6, "velocity": 93}, {"time": 1895, "pitch": 58, "duration": 1, "velocity": 100}, {"time": 1895, "pitch": 63, "duration": 3, "velocity": 92}, {"time": 1898, "pitch": 58, "duration": 1, "velocity": 97}, {"time": 1904, "pitch": 53, "duration": 21, "velocity": 100}, {"time": 1904, "pitch": 65, "duration": 3, "velocity": 92}, {"time": 1904, "pitch": 68, "duration": 5, "velocity": 97}, {"time": 1907, "pitch": 60, "duration": 18, "velocity": 62}, {"time": 1910, "pitch": 65, "duration": 2, "velocity": 69}, {"time": 1913, "pitch": 67, "duration": 4, "velocity": 112}, {"time": 1919, "pitch": 68, "duration": 4, "velocity": 105}, {"time": 1928, "pitch": 53, "duration": 22, "velocity": 102}, {"time": 1928, "pitch": 65, "duration": 2, "velocity": 78}, {"time": 1928, "pitch": 72, "duration": 5, "velocity": 94}, {"time": 1931, "pitch": 60, "duration": 7, "velocity": 55}, {"time": 1934, "pitch": 65, "duration": 1, "velocity": 44}, {"time": 1937, "pitch": 65, "duration": 7, "velocity": 94}, {"time": 1937, "pitch": 68, "duration": 9, "velocity": 102}, {"time": 1943, "pitch": 60, "duration": 7, "velocity": 82}, {"time": 1946, "pitch": 65, "duration": 5, "velocity": 92}, {"time": 1949, "pitch": 68, "duration": 2, "velocity": 97}, {"time": 1952, "pitch": 53, "duration": 21, "velocity": 100}, {"time": 1955, "pitch": 60, "duration": 7, "velocity": 73}, {"time": 1958, "pitch": 65, "duration": 3, "velocity": 94}, {"time": 1961, "pitch": 67, "duration": 3, "velocity": 105}, {"time": 1964, "pitch": 60, "duration": 4, "velocity": 62}, {"time": 1967, "pitch": 68, "duration": 1, "velocity": 94}, {"time": 1970, "pitch": 60, "duration": 1, "velocity": 2}, {"time": 1976, "pitch": 53, "duration": 18, "velocity": 102}, {"time": 1976, "pitch": 65, "duration": 2, "velocity": 84}, {"time": 1976, "pitch": 72, "duration": 3, "velocity": 97}, {"time": 1979, "pitch": 60, "duration": 7, "velocity": 67}, {"time": 1982, "pitch": 65, "duration": 1, "velocity": 53}, {"time": 1985, "pitch": 65, "duration": 6, "velocity": 94}, {"time": 1985, "pitch": 68, "duration": 7, "velocity": 97}, {"time": 1991, "pitch": 60, "duration": 2, "velocity": 78}, {"time": 1994, "pitch": 65, "duration": 1, "velocity": 108}, {"time": 2000, "pitch": 46, "duration": 22, "velocity": 102}, {"time": 2000, "pitch": 58, "duration": 3, "velocity": 92}, {"time": 2000, "pitch": 65, "duration": 4, "velocity": 87}, {"time": 2003, "pitch": 53, "duration": 18, "velocity": 67}, {"time": 2006, "pitch": 58, "duration": 2, "velocity": 78}, {"time": 2009, "pitch": 58, "duration": 8, "velocity": 53}, {"time": 2009, "pitch": 70, "duration": 9, "velocity": 97}, {"time": 2021, "pitch": 58, "duration": 4, "velocity": 105}, {"time": 2021, "pitch": 65, "duration": 4, "velocity": 89}, {"time": 2024, "pitch": 46, "duration": 21, "velocity": 102}, {"time": 2027, "pitch": 53, "duration": 7, "velocity": 53}, {"time": 2030, "pitch": 60, "duration": 1, "velocity": 34}, {"time": 2033, "pitch": 61, "duration": 8, "velocity": 105}, {"time": 2036, "pitch": 53, "duration": 7, "velocity": 71}, {"time": 2042, "pitch": 58, "duration": 4, "velocity": 87}, {"time": 2048, "pitch": 51, "duration": 15, "velocity": 100}, {"time": 2048, "pitch": 63, "duration": 3, "velocity": 82}, {"time": 2048, "pitch": 67, "duration": 6, "velocity": 82}, {"time": 2051, "pitch": 58, "duration": 7, "velocity": 80}, {"time": 2054, "pitch": 63, "duration": 1, "velocity": 82}, {"time": 2057, "pitch": 63, "duration": 3, "velocity": 102}, {"time": 2057, "pitch": 70, "duration": 3, "velocity": 92}, {"time": 2060, "pitch": 58, "duration": 3, "velocity": 71}, {"time": 2063, "pitch": 63, "duration": 1, "velocity": 100}, {"time": 2063, "pitch": 67, "duration": 1, "velocity": 99}, {"time": 2072, "pitch": 46, "duration": 16, "velocity": 97}, {"time": 2072, "pitch": 58, "duration": 3, "velocity": 92}, {"time": 2072, "pitch": 62, "duration": 6, "velocity": 70}, {"time": 2075, "pitch": 53, "duration": 7, "velocity": 49}, {"time": 2078, "pitch": 58, "duration": 7, "velocity": 94}, {"time": 2081, "pitch": 65, "duration": 3, "velocity": 97}, {"time": 2084, "pitch": 53, "duration": 4, "velocity": 71}, {"time": 2087, "pitch": 58, "duration": 1, "velocity": 78}, {"time": 2087, "pitch": 62, "duration": 4, "velocity": 102}, {"time": 2087, "pitch": 65, "duration": 5, "velocity": 100}, {"time": 2087, "pitch": 70, "duration": 5, "velocity": 97}, {"time": 2090, "pitch": 58, "duration": 2, "velocity": 73}, {"time": 2096, "pitch": 48, "duration": 22, "velocity": 105}, {"time": 2096, "pitch": 60, "duration": 4, "velocity": 102}, {"time": 2099, "pitch": 55, "duration": 6, "velocity": 44}, {"time": 2102, "pitch": 60, "duration": 4, "velocity": 105}, {"time": 2105, "pitch": 67, "duration": 4, "velocity": 116}, {"time": 2108, "pitch": 55, "duration": 10, "velocity": 72}, {"time": 2111, "pitch": 60, "duration": 8, "velocity": 84}, {"time": 2114, "pitch": 64, "duration": 4, "velocity": 99}, {"time": 2117, "pitch": 67, "duration": 2, "velocity": 99}, {"time": 2120, "pitch": 48, "duration": 24, "velocity": 105}, {"time": 2120, "pitch": 60, "duration": 4, "velocity": 89}, {"time": 2120, "pitch": 64, "duration": 6, "velocity": 82}, {"time": 2120, "pitch": 67, "duration": 6, "velocity": 68}, {"time": 2120, "pitch": 72, "duration": 6, "velocity": 97}, {"time": 2123, "pitch": 55, "duration": 10, "velocity": 45}, {"time": 2132, "pitch": 60, "duration": 3, "velocity": 111}, {"time": 2132, "pitch": 64, "duration": 4, "velocity": 112}, {"time": 2132, "pitch": 67, "duration": 6, "velocity": 99}, {"time": 2135, "pitch": 55, "duration": 9, "velocity": 102}, {"time": 2138, "pitch": 60, "duration": 2, "velocity": 117}, {"time": 2141, "pitch": 60, "duration": 2, "velocity": 94}, {"time": 2141, "pitch": 64, "duration": 2, "velocity": 102}, {"time": 2141, "pitch": 67, "duration": 3, "velocity": 74}, {"time": 2141, "pitch": 72, "duration": 3, "velocity": 97}, {"time": 2144, "pitch": 53, "duration": 21, "velocity": 108}, {"time": 2144, "pitch": 65, "duration": 3, "velocity": 100}, {"time": 2144, "pitch": 68, "duration": 6, "velocity": 102}, {"time": 2147, "pitch": 60, "duration": 9, "velocity": 44}, {"time": 2150, "pitch": 65, "duration": 1, "velocity": 69}, {"time": 2156, "pitch": 65, "duration": 3, "velocity": 111}, {"time": 2156, "pitch": 68, "duration": 3, "velocity": 120}, {"time": 2156, "pitch": 72, "duration": 3, "velocity": 111}, {"time": 2159, "pitch": 60, "duration": 8, "velocity": 92}, {"time": 2162, "pitch": 65, "duration": 1, "velocity": 92}, {"time": 2165, "pitch": 65, "duration": 7, "velocity": 114}, {"time": 2165, "pitch": 68, "duration": 9, "velocity": 120}, {"time": 2168, "pitch": 53, "duration": 18, "velocity": 105}, {"time": 2168, "pitch": 60, "duration": 10, "velocity": 71}, {"time": 2174, "pitch": 65, "duration": 4, "velocity": 78}, {"time": 2177, "pitch": 68, "duration": 1, "velocity": 105}, {"time": 2180, "pitch": 65, "duration": 3, "velocity": 102}, {"time": 2180, "pitch": 68, "duration": 6, "velocity": 108}, {"time": 2180, "pitch": 72, "duration": 4, "velocity": 97}, {"time": 2183, "pitch": 60, "duration": 2, "velocity": 87}, {"time": 2186, "pitch": 65, "duration": 2, "velocity": 105}, {"time": 2192, "pitch": 46, "duration": 22, "velocity": 100}, {"time": 2192, "pitch": 58, "duration": 3, "velocity": 100}, {"time": 2192, "pitch": 61, "duration": 3, "velocity": 97}, {"time": 2195, "pitch": 53, "duration": 10, "velocity": 48}, {"time": 2198, "pitch": 58, "duration": 4, "velocity": 92}, {"time": 2201, "pitch": 65, "duration": 1, "velocity": 92}, {"time": 2204, "pitch": 58, "duration": 4, "velocity": 111}, {"time": 2204, "pitch": 61, "duration": 4, "velocity": 117}, {"time": 2204, "pitch": 65, "duration": 7, "velocity": 108}, {"time": 2204, "pitch": 70, "duration": 10, "velocity": 102}, {"time": 2207, "pitch": 53, "duration": 7, "velocity": 92}, {"time": 2210, "pitch": 58, "duration": 2, "velocity": 105}, {"time": 2213, "pitch": 58, "duration": 6, "velocity": 97}, {"time": 2213, "pitch": 61, "duration": 6, "velocity": 108}, {"time": 2213, "pitch": 65, "duration": 7, "velocity": 94}, {"time": 2216, "pitch": 46, "duration": 21, "velocity": 102}, {"time": 2219, "pitch": 53, "duration": 9, "velocity": 67}, {"time": 2222, "pitch": 58, "duration": 7, "velocity": 108}, {"time": 2225, "pitch": 61, "duration": 3, "velocity": 111}, {"time": 2228, "pitch": 53, "duration": 3, "velocity": 80}, {"time": 2231, "pitch": 58, "duration": 3, "velocity": 120}, {"time": 2231, "pitch": 65, "duration": 4, "velocity": 100}, {"time": 2234, "pitch": 53, "duration": 4, "velocity": 94}, {"time": 2237, "pitch": 61, "duration": 2, "velocity": 84}, {"time": 2240, "pitch": 51, "duration": 11, "velocity": 108}, {"time": 2240, "pitch": 58, "duration": 4, "velocity": 82}, {"time": 2240, "pitch": 63, "duration": 5, "velocity": 100}, {"time": 2246, "pitch": 58, "duration": 1, "velocity": 71}, {"time": 2249, "pitch": 58, "duration": 4, "velocity": 102}, {"time": 2249, "pitch": 67, "duration": 4, "velocity": 109}, {"time": 2252, "pitch": 51, "duration": 10, "velocity": 84}, {"time": 2255, "pitch": 58, "duration": 1, "velocity": 100}, {"time": 2255, "pitch": 63, "duration": 6, "velocity": 97}, {"time": 2261, "pitch": 58, "duration": 1, "velocity": 108}, {"time": 2264, "pitch": 46, "duration": 17, "velocity": 100}, {"time": 2264, "pitch": 58, "duration": 3, "velocity": 87}, {"time": 2264, "pitch": 62, "duration": 6, "velocity": 52}, {"time": 2267, "pitch": 53, "duration": 7, "velocity": 78}, {"time": 2270, "pitch": 58, "duration": 1, "velocity": 97}, {"time": 2273, "pitch": 58, "duration": 4, "velocity": 117}, {"time": 2273, "pitch": 62, "duration": 4, "velocity": 112}, {"time": 2273, "pitch": 65, "duration": 4, "velocity": 108}, {"time": 2273, "pitch": 70, "duration": 3, "velocity": 94}, {"time": 2276, "pitch": 53, "duration": 4, "velocity": 89}, {"time": 2279, "pitch": 62, "duration": 3, "velocity": 105}, {"time": 2279, "pitch": 65, "duration": 6, "velocity": 102}, {"time": 2282, "pitch": 58, "duration": 4, "velocity": 84}, {"time": 2285, "pitch": 62, "duration": 2, "velocity": 99}, {"time": 2288, "pitch": 49, "duration": 21, "velocity": 102}, {"time": 2288, "pitch": 61, "duration": 3, "velocity": 87}, {"time": 2288, "pitch": 65, "duration": 5, "velocity": 100}, {"time": 2291, "pitch": 56, "duration": 7, "velocity": 58}, {"time": 2294, "pitch": 61, "duration": 1, "velocity": 71}, {"time": 2297, "pitch": 61, "duration": 4, "velocity": 114}, {"time": 2297, "pitch": 68, "duration": 4, "velocity": 105}, {"time": 2300, "pitch": 56, "duration": 10, "velocity": 94}, {"time": 2303, "pitch": 61, "duration": 2, "velocity": 108}, {"time": 2303, "pitch": 65, "duration": 4, "velocity": 111}, {"time": 2309, "pitch": 61, "duration": 1, "velocity": 94}, {"time": 2309, "pitch": 65, "duration": 1, "velocity": 21}, {"time": 2312, "pitch": 48, "duration": 11, "velocity": 89}, {"time": 2312, "pitch": 60, "duration": 2, "velocity": 102}, {"time": 2312, "pitch": 64, "duration": 4, "velocity": 105}, {"time": 2315, "pitch": 52, "duration": 7, "velocity": 59}, {"time": 2318, "pitch": 60, "duration": 1, "velocity": 114}, {"time": 2321, "pitch": 60, "duration": 4, "velocity": 111}, {"time": 2321, "pitch": 64, "duration": 4, "velocity": 112}, {"time": 2321, "pitch": 67, "duration": 4, "velocity": 99}, {"time": 2324, "pitch": 48, "duration": 12, "velocity": 47}, {"time": 2324, "pitch": 55, "duration": 4, "velocity": 102}, {"time": 2327, "pitch": 60, "duration": 6, "velocity": 117}, {"time": 2327, "pitch": 64, "duration": 7, "velocity": 109}, {"time": 2327, "pitch": 67, "duration": 7, "velocity": 93}, {"time": 2327, "pitch": 72, "duration": 8, "velocity": 97}, {"time": 2330, "pitch": 52, "duration": 3, "velocity": 99}, {"time": 2330, "pitch": 55, "duration": 3, "velocity": 79}, {"time": 2336, "pitch": 53, "duration": 21, "velocity": 108}, {"time": 2336, "pitch": 65, "duration": 3, "velocity": 100}, {"time": 2336, "pitch": 68, "duration": 6, "velocity": 102}, {"time": 2339, "pitch": 60, "duration": 9, "velocity": 44}, {"time": 2342, "pitch": 65, "duration": 1, "velocity": 69}, {"time": 2348, "pitch": 65, "duration": 3, "velocity": 111}, {"time": 2348, "pitch": 68, "duration": 3, "velocity": 120}, {"time": 2348, "pitch": 72, "duration": 3, "velocity": 111}, {"time": 2351, "pitch": 60, "duration": 8, "velocity": 92}, {"time": 2354, "pitch": 65, "duration": 1, "velocity": 92}, {"time": 2357, "pitch": 65, "duration": 7, "velocity": 114}, {"time": 2357, "pitch": 68, "duration": 9, "velocity": 120}, {"time": 2360, "pitch": 53, "duration": 18, "velocity": 105}, {"time": 2360, "pitch": 60, "duration": 10, "velocity": 71}, {"time": 2366, "pitch": 65, "duration": 4, "velocity": 78}, {"time": 2369, "pitch": 68, "duration": 1, "velocity": 105}, {"time": 2372, "pitch": 65, "duration": 3, "velocity": 102}, {"time": 2372, "pitch": 68, "duration": 6, "velocity": 108}, {"time": 2372, "pitch": 72, "duration": 4, "velocity": 97}, {"time": 2375, "pitch": 60, "duration": 2, "velocity": 87}, {"time": 2378, "pitch": 65, "duration": 2, "velocity": 105}, {"time": 2384, "pitch": 46, "duration": 22, "velocity": 100}, {"time": 2384, "pitch": 58, "duration": 3, "velocity": 100}, {"time": 2384, "pitch": 61, "duration": 3, "velocity": 97}, {"time": 2387, "pitch": 53, "duration": 10, "velocity": 48}, {"time": 2390, "pitch": 58, "duration": 4, "velocity": 92}, {"time": 2393, "pitch": 65, "duration": 1, "velocity": 92}, {"time": 2396, "pitch": 58, "duration": 4, "velocity": 111}, {"time": 2396, "pitch": 61, "duration": 4, "velocity": 117}, {"time": 2396, "pitch": 65, "duration": 7, "velocity": 108}, {"time": 2396, "pitch": 70, "duration": 10, "velocity": 102}, {"time": 2399, "pitch": 53, "duration": 7, "velocity": 92}, {"time": 2402, "pitch": 58, "duration": 2, "velocity": 105}, {"time": 2405, "pitch": 58, "duration": 6, "velocity": 97}, {"time": 2405, "pitch": 61, "duration": 6, "velocity": 108}, {"time": 2405, "pitch": 65, "duration": 7, "velocity": 94}, {"time": 2408, "pitch": 46, "duration": 21, "velocity": 102}, {"time": 2411, "pitch": 53, "duration": 9, "velocity": 67}, {"time": 2414, "pitch": 58, "duration": 7, "velocity": 108}, {"time": 2417, "pitch": 61, "duration": 3, "velocity": 111}, {"time": 2420, "pitch": 53, "duration": 3, "velocity": 80}, {"time": 2423, "pitch": 58, "duration": 3, "velocity": 120}, {"time": 2423, "pitch": 65, "duration": 4, "velocity": 100}, {"time": 2426, "pitch": 53, "duration": 4, "velocity": 94}, {"time": 2429, "pitch": 61, "duration": 2, "velocity": 84}, {"time": 2432, "pitch": 51, "duration": 11, "velocity": 108}, {"time": 2432, "pitch": 58, "duration": 4, "velocity": 82}, {"time": 2432, "pitch": 63, "duration": 5, "velocity": 100}, {"time": 2438, "pitch": 58, "duration": 1, "velocity": 71}, {"time": 2441, "pitch": 58, "duration": 4, "velocity": 102}, {"time": 2441, "pitch": 67, "duration": 4, "velocity": 109}, {"time": 2444, "pitch": 51, "duration": 10, "velocity": 84}, {"time": 2447, "pitch": 58, "duration": 1, "velocity": 100}, {"time": 2447, "pitch": 63, "duration": 6, "velocity": 97}, {"time": 2453, "pitch": 58, "duration": 1, "velocity": 108}, {"time": 2456, "pitch": 46, "duration": 17, "velocity": 100}, {"time": 2456, "pitch": 58, "duration": 3, "velocity": 87}, {"time": 2456, "pitch": 62, "duration": 6, "velocity": 52}, {"time": 2459, "pitch": 53, "duration": 7, "velocity": 78}, {"time": 2462, "pitch": 58, "duration": 1, "velocity": 97}, {"time": 2465, "pitch": 58, "duration": 4, "velocity": 117}, {"time": 2465, "pitch": 62, "duration": 4, "velocity": 112}, {"time": 2465, "pitch": 65, "duration": 4, "velocity": 108}, {"time": 2465, "pitch": 70, "duration": 3, "velocity": 94}, {"time": 2468, "pitch": 53, "duration": 4, "velocity": 89}, {"time": 2471, "pitch": 62, "duration": 3, "velocity": 105}, {"time": 2471, "pitch": 65, "duration": 6, "velocity": 102}, {"time": 2474, "pitch": 58, "duration": 4, "velocity": 84}, {"time": 2477, "pitch": 62, "duration": 2, "velocity": 99}, {"time": 2480, "pitch": 48, "duration": 17, "velocity": 105}, {"time": 2480, "pitch": 60, "duration": 6, "velocity": 102}, {"time": 2480, "pitch": 67, "duration": 9, "velocity": 74}, {"time": 2486, "pitch": 55, "duration": 7, "velocity": 40}, {"time": 2489, "pitch": 60, "duration": 2, "velocity": 111}, {"time": 2492, "pitch": 60, "duration": 3, "velocity": 114}, {"time": 2492, "pitch": 63, "duration": 3, "velocity": 114}, {"time": 2495, "pitch": 55, "duration": 2, "velocity": 102}, {"time": 2498, "pitch": 60, "duration": 4, "velocity": 117}, {"time": 2501, "pitch": 63, "duration": 1, "velocity": 84}, {"time": 2504, "pitch": 53, "duration": 24, "velocity": 105}, {"time": 2504, "pitch": 60, "duration": 3, "velocity": 97}, {"time": 2504, "pitch": 65, "duration": 7, "velocity": 97}, {"time": 2510, "pitch": 60, "duration": 1, "velocity": 19}, {"time": 2513, "pitch": 60, "duration": 4, "velocity": 114}, {"time": 2513, "pitch": 65, "duration": 4, "velocity": 102}, {"time": 2513, "pitch": 68, "duration": 5, "velocity": 102}, {"time": 2519, "pitch": 65, "duration": 3, "velocity": 97}, {"time": 2522, "pitch": 60, "duration": 5, "velocity": 94}, {"time": 2528, "pitch": 53, "duration": 21, "velocity": 108}, {"time": 2528, "pitch": 65, "duration": 3, "velocity": 100}, {"time": 2528, "pitch": 68, "duration": 6, "velocity": 102}, {"time": 2531, "pitch": 60, "duration": 9, "velocity": 44}, {"time": 2534, "pitch": 65, "duration": 1, "velocity": 69}, {"time": 2540, "pitch": 65, "duration": 3, "velocity": 111}, {"time": 2540, "pitch": 68, "duration": 3, "velocity": 120}, {"time": 2540, "pitch": 72, "duration": 3, "velocity": 111}, {"time": 2543, "pitch": 60, "duration": 8, "velocity": 92}, {"time": 2546, "pitch": 65, "duration": 1, "velocity": 92}, {"time": 2549, "pitch": 65, "duration": 7, "velocity": 114}, {"time": 2549, "pitch": 68, "duration": 9, "velocity": 120}, {"time": 2552, "pitch": 53, "duration": 18, "velocity": 105}, {"time": 2552, "pitch": 60, "duration": 10, "velocity": 71}, {"time": 2558, "pitch": 65, "duration": 4, "velocity": 78}, {"time": 2561, "pitch": 68, "duration": 1, "velocity": 105}, {"time": 2564, "pitch": 65, "duration": 3, "velocity": 102}, {"time": 2564, "pitch": 68, "duration": 6, "velocity": 108}, {"time": 2564, "pitch": 72, "duration": 4, "velocity": 97}, {"time": 2567, "pitch": 60, "duration": 2, "velocity": 87}, {"time": 2570, "pitch": 65, "duration": 2, "velocity": 105}, {"time": 2576, "pitch": 46, "duration": 22, "velocity": 100}, {"time": 2576, "pitch": 58, "duration": 3, "velocity": 100}, {"time": 2576, "pitch": 61, "duration": 3, "velocity": 97}, {"time": 2579, "pitch": 53, "duration": 10, "velocity": 48}, {"time": 2582, "pitch": 58, "duration": 4, "velocity": 92}, {"time": 2585, "pitch": 65, "duration": 1, "velocity": 92}, {"time": 2588, "pitch": 58, "duration": 4, "velocity": 111}, {"time": 2588, "pitch": 61, "duration": 4, "velocity": 117}, {"time": 2588, "pitch": 65, "duration": 7, "velocity": 108}, {"time": 2588, "pitch": 70, "duration": 10, "velocity": 102}, {"time": 2591, "pitch": 53, "duration": 7, "velocity": 92}, {"time": 2594, "pitch": 58, "duration": 2, "velocity": 105}, {"time": 2597, "pitch": 58, "duration": 6, "velocity": 97}, {"time": 2597, "pitch": 61, "duration": 6, "velocity": 108}, {"time": 2597, "pitch": 65, "duration": 7, "velocity": 94}, {"time": 2600, "pitch": 46, "duration": 21, "velocity": 102}, {"time": 2603, "pitch": 53, "duration": 9, "velocity": 67}, {"time": 2606, "pitch": 58, "duration": 7, "velocity": 108}, {"time": 2609, "pitch": 61, "duration": 3, "velocity": 111}, {"time": 2612, "pitch": 53, "duration": 3, "velocity": 80}, {"time": 2615, "pitch": 58, "duration": 3, "velocity": 120}, {"time": 2615, "pitch": 65, "duration": 4, "velocity": 100}, {"time": 2618, "pitch": 53, "duration": 4, "velocity": 94}, {"time": 2621, "pitch": 61, "duration": 2, "velocity": 84}, {"time": 2624, "pitch": 51, "duration": 11, "velocity": 108}, {"time": 2624, "pitch": 58, "duration": 4, "velocity": 82}, {"time": 2624, "pitch": 63, "duration": 5, "velocity": 100}, {"time": 2630, "pitch": 58, "duration": 1, "velocity": 71}, {"time": 2633, "pitch": 58, "duration": 4, "velocity": 102}, {"time": 2633, "pitch": 67, "duration": 4, "velocity": 109}, {"time": 2636, "pitch": 51, "duration": 10, "velocity": 84}, {"time": 2639, "pitch": 58, "duration": 1, "velocity": 100}, {"time": 2639, "pitch": 63, "duration": 6, "velocity": 97}, {"time": 2645, "pitch": 58, "duration": 1, "velocity": 108}, {"time": 2648, "pitch": 46, "duration": 17, "velocity": 100}, {"time": 2648, "pitch": 58, "duration": 3, "velocity": 87}, {"time": 2648, "pitch": 62, "duration": 6, "velocity": 52}, {"time": 2651, "pitch": 53, "duration": 7, "velocity": 78}, {"time": 2654, "pitch": 58, "duration": 1, "velocity": 97}, {"time": 2657, "pitch": 58, "duration": 4, "velocity": 117}, {"time": 2657, "pitch": 62, "duration": 4, "velocity": 112}, {"time": 2657, "pitch": 65, "duration": 4, "velocity": 108}, {"time": 2657, "pitch": 70, "duration": 3, "velocity": 94}, {"time": 2660, "pitch": 53, "duration": 4, "velocity": 89}, {"time": 2663, "pitch": 62, "duration": 3, "velocity": 105}, {"time": 2663, "pitch": 65, "duration": 6, "velocity": 102}, {"time": 2666, "pitch": 58, "duration": 4, "velocity": 84}, {"time": 2669, "pitch": 62, "duration": 2, "velocity": 99}, {"time": 2672, "pitch": 49, "duration": 21, "velocity": 102}, {"time": 2672, "pitch": 61, "duration": 3, "velocity": 87}, {"time": 2672, "pitch": 65, "duration": 5, "velocity": 100}, {"time": 2675, "pitch": 56, "duration": 7, "velocity": 58}, {"time": 2678, "pitch": 61, "duration": 1, "velocity": 71}, {"time": 2681, "pitch": 61, "duration": 4, "velocity": 114}, {"time": 2681, "pitch": 68, "duration": 4, "velocity": 105}, {"time": 2684, "pitch": 56, "duration": 10, "velocity": 94}, {"time": 2687, "pitch": 61, "duration": 2, "velocity": 108}, {"time": 2687, "pitch": 65, "duration": 4, "velocity": 111}, {"time": 2693, "pitch": 61, "duration": 1, "velocity": 94}, {"time": 2693, "pitch": 65, "duration": 1, "velocity": 21}, {"time": 2696, "pitch": 48, "duration": 11, "velocity": 89}, {"time": 2696, "pitch": 60, "duration": 2, "velocity": 102}, {"time": 2696, "pitch": 64, "duration": 4, "velocity": 105}, {"time": 2699, "pitch": 52, "duration": 7, "velocity": 59}, {"time": 2702, "pitch": 60, "duration": 1, "velocity": 114}, {"time": 2705, "pitch": 60, "duration": 4, "velocity": 111}, {"time": 2705, "pitch": 64, "duration": 4, "velocity": 112}, {"time": 2705, "pitch": 67, "duration": 4, "velocity": 99}, {"time": 2708, "pitch": 48, "duration": 12, "velocity": 47}, {"time": 2708, "pitch": 55, "duration": 4, "velocity": 102}, {"time": 2711, "pitch": 60, "duration": 6, "velocity": 117}, {"time": 2711, "pitch": 64, "duration": 7, "velocity": 109}, {"time": 2711, "pitch": 67, "duration": 7, "velocity": 93}, {"time": 2711, "pitch": 72, "duration": 8, "velocity": 97}, {"time": 2714, "pitch": 52, "duration": 3, "velocity": 99}, {"time": 2714, "pitch": 55, "duration": 3, "velocity": 79}, {"time": 2720, "pitch": 53, "duration": 21, "velocity": 108}, {"time": 2720, "pitch": 65, "duration": 3, "velocity": 100}, {"time": 2720, "pitch": 68, "duration": 6, "velocity": 102}, {"time": 2723, "pitch": 60, "duration": 9, "velocity": 44}, {"time": 2726, "pitch": 65, "duration": 1, "velocity": 69}, {"time": 2732, "pitch": 65, "duration": 3, "velocity": 111}, {"time": 2732, "pitch": 68, "duration": 3, "velocity": 120}, {"time": 2732, "pitch": 72, "duration": 3, "velocity": 111}, {"time": 2735, "pitch": 60, "duration": 8, "velocity": 92}, {"time": 2738, "pitch": 65, "duration": 1, "velocity": 92}, {"time": 2741, "pitch": 65, "duration": 7, "velocity": 114}, {"time": 2741, "pitch": 68, "duration": 9, "velocity": 120}, {"time": 2744, "pitch": 53, "duration": 18, "velocity": 105}, {"time": 2744, "pitch": 60, "duration": 10, "velocity": 71}, {"time": 2750, "pitch": 65, "duration": 4, "velocity": 78}, {"time": 2753, "pitch": 68, "duration": 1, "velocity": 105}, {"time": 2756, "pitch": 65, "duration": 3, "velocity": 102}, {"time": 2756, "pitch": 68, "duration": 6, "velocity": 108}, {"time": 2756, "pitch": 72, "duration": 4, "velocity": 97}, {"time": 2759, "pitch": 60, "duration": 2, "velocity": 87}, {"time": 2762, "pitch": 65, "duration": 2, "velocity": 105}, {"time": 2768, "pitch": 46, "duration": 22, "velocity": 100}, {"time": 2768, "pitch": 58, "duration": 3, "velocity": 100}, {"time": 2768, "pitch": 61, "duration": 3, "velocity": 97}, {"time": 2771, "pitch": 53, "duration": 10, "velocity": 48}, {"time": 2774, "pitch": 58, "duration": 4, "velocity": 92}, {"time": 2777, "pitch": 65, "duration": 1, "velocity": 92}, {"time": 2780, "pitch": 58, "duration": 4, "velocity": 111}, {"time": 2780, "pitch": 61, "duration": 4, "velocity": 117}, {"time": 2780, "pitch": 65, "duration": 7, "velocity": 108}, {"time": 2780, "pitch": 70, "duration": 10, "velocity": 102}, {"time": 2783, "pitch": 53, "duration": 7, "velocity": 92}, {"time": 2786, "pitch": 58, "duration": 2, "velocity": 105}, {"time": 2789, "pitch": 58, "duration": 6, "velocity": 97}, {"time": 2789, "pitch": 61, "duration": 6, "velocity": 108}, {"time": 2789, "pitch": 65, "duration": 7, "velocity": 94}, {"time": 2792, "pitch": 46, "duration": 21, "velocity": 102}, {"time": 2795, "pitch": 53, "duration": 9, "velocity": 67}, {"time": 2798, "pitch": 58, "duration": 7, "velocity": 108}, {"time": 2801, "pitch": 61, "duration": 3, "velocity": 111}, {"time": 2804, "pitch": 53, "duration": 3, "velocity": 80}, {"time": 2807, "pitch": 58, "duration": 3, "velocity": 120}, {"time": 2807, "pitch": 65, "duration": 4, "velocity": 100}, {"time": 2810, "pitch": 53, "duration": 4, "velocity": 94}, {"time": 2813, "pitch": 61, "duration": 2, "velocity": 84}, {"time": 2816, "pitch": 51, "duration": 11, "velocity": 108}, {"time": 2816, "pitch": 58, "duration": 4, "velocity": 82}, {"time": 2816, "pitch": 63, "duration": 5, "velocity": 100}, {"time": 2822, "pitch": 58, "duration": 1, "velocity": 71}, {"time": 2825, "pitch": 58, "duration": 4, "velocity": 102}, {"time": 2825, "pitch": 67, "duration": 4, "velocity": 109}, {"time": 2828, "pitch": 51, "duration": 10, "velocity": 84}, {"time": 2831, "pitch": 58, "duration": 1, "velocity": 100}, {"time": 2831, "pitch": 63, "duration": 6, "velocity": 97}, {"time": 2837, "pitch": 58, "duration": 1, "velocity": 108}, {"time": 2840, "pitch": 46, "duration": 17, "velocity": 100}, {"time": 2840, "pitch": 58, "duration": 3, "velocity": 87}, {"time": 2840, "pitch": 62, "duration": 6, "velocity": 52}, {"time": 2843, "pitch": 53, "duration": 7, "velocity": 78}, {"time": 2846, "pitch": 58, "duration": 1, "velocity": 97}, {"time": 2849, "pitch": 58, "duration": 4, "velocity": 117}, {"time": 2849, "pitch": 62, "duration": 4, "velocity": 112}, {"time": 2849, "pitch": 65, "duration": 4, "velocity": 108}, {"time": 2849, "pitch": 70, "duration": 3, "velocity": 94}, {"time": 2852, "pitch": 53, "duration": 4, "velocity": 89}, {"time": 2855, "pitch": 62, "duration": 3, "velocity": 105}, {"time": 2855, "pitch": 65, "duration": 6, "velocity": 102}, {"time": 2858, "pitch": 58, "duration": 4, "velocity": 84}, {"time": 2861, "pitch": 62, "duration": 2, "velocity": 99}, {"time": 2864, "pitch": 48, "duration": 17, "velocity": 105}, {"time": 2864, "pitch": 60, "duration": 6, "velocity": 102}, {"time": 2864, "pitch": 67, "duration": 9, "velocity": 74}, {"time": 2870, "pitch": 55, "duration": 7, "velocity": 40}, {"time": 2873, "pitch": 60, "duration": 2, "velocity": 111}, {"time": 2876, "pitch": 60, "duration": 3, "velocity": 114}, {"time": 2876, "pitch": 63, "duration": 3, "velocity": 114}, {"time": 2879, "pitch": 55, "duration": 2, "velocity": 102}, {"time": 2882, "pitch": 60, "duration": 4, "velocity": 117}, {"time": 2885, "pitch": 63, "duration": 1, "velocity": 84}, {"time": 2888, "pitch": 41, "duration": 23, "velocity": 100}, {"time": 2888, "pitch": 53, "duration": 12, "velocity": 82}, {"time": 2888, "pitch": 56, "duration": 14, "velocity": 87}, {"time": 2900, "pitch": 48, "duration": 12, "velocity": 78}, {"time": 2903, "pitch": 53, "duration": 9, "velocity": 76}, {"time": 2906, "pitch": 56, "duration": 6, "velocity": 67}, {"time": 2910, "pitch": 58, "duration": 9, "velocity": 76}, {"time": 2911, "pitch": 61, "duration": 9, "velocity": 80}, {"time": 2911, "pitch": 46, "duration": 47, "velocity": 104}, {"time": 2912, "pitch": 65, "duration": 9, "velocity": 87}, {"time": 2918, "pitch": 53, "duration": 39, "velocity": 29}, {"time": 2924, "pitch": 58, "duration": 34, "velocity": 101}, {"time": 2931, "pitch": 61, "duration": 4, "velocity": 94}, {"time": 2938, "pitch": 61, "duration": 20, "velocity": 80}, {"time": 2939, "pitch": 65, "duration": 19, "velocity": 66}, {"time": 2941, "pitch": 70, "duration": 18, "velocity": 26}, {"time": 2980, "pitch": 48, "duration": 12, "velocity": 89}, {"time": 2981, "pitch": 60, "duration": 52, "velocity": 74}, {"time": 2981, "pitch": 64, "duration": 51, "velocity": 68}, {"time": 2982, "pitch": 67, "duration": 50, "velocity": 79}, {"time": 2983, "pitch": 75, "duration": 49, "velocity": 82}, {"time": 3031, "pitch": 49, "duration": 14, "velocity": 112}, {"time": 3031, "pitch": 61, "duration": 7, "velocity": 94}, {"time": 3031, "pitch": 56, "duration": 3, "velocity": 94}, {"time": 3031, "pitch": 65, "duration": 7, "velocity": 99}, {"time": 3037, "pitch": 56, "duration": 2, "velocity": 78}, {"time": 3043, "pitch": 61, "duration": 4, "velocity": 112}, {"time": 3043, "pitch": 56, "duration": 2, "velocity": 109}, {"time": 3043, "pitch": 65, "duration": 6, "velocity": 109}, {"time": 3047, "pitch": 56, "duration": 5, "velocity": 101}, {"time": 3050, "pitch": 61, "duration": 3, "velocity": 96}, {"time": 3052, "pitch": 65, "duration": 3, "velocity": 99}, {"time": 3055, "pitch": 58, "duration": 4, "velocity": 99}, {"time": 3055, "pitch": 63, "duration": 5, "velocity": 106}, {"time": 3055, "pitch": 39, "duration": 2, "velocity": 109}, {"time": 3059, "pitch": 51, "duration": 10, "velocity": 42}, {"time": 3061, "pitch": 55, "duration": 4, "velocity": 104}, {"time": 3064, "pitch": 58, "duration": 6, "velocity": 118}, {"time": 3067, "pitch": 63, "duration": 4, "velocity": 118}, {"time": 3070, "pitch": 67, "duration": 4, "velocity": 120}, {"time": 3073, "pitch": 63, "duration": 2, "velocity": 106}, {"time": 3079, "pitch": 69, "duration": 3, "velocity": 117}, {"time": 3079, "pitch": 41, "duration": 25, "velocity": 104}, {"time": 3079, "pitch": 65, "duration": 3, "velocity": 106}, {"time": 3082, "pitch": 48, "duration": 22, "velocity": 87}, {"time": 3086, "pitch": 53, "duration": 2, "velocity": 109}, {"time": 3089, "pitch": 57, "duration": 1, "velocity": 117}, {"time": 3092, "pitch": 60, "duration": 3, "velocity": 101}, {"time": 3095, "pitch": 65, "duration": 5, "velocity": 94}, {"time": 3099, "pitch": 69, "duration": 5, "velocity": 120}, {"time": 3103, "pitch": 60, "duration": 3, "velocity": 89}, {"time": 3108, "pitch": 41, "duration": 26, "velocity": 99}, {"time": 3110, "pitch": 60, "duration": 2, "velocity": 64}, {"time": 3110, "pitch": 48, "duration": 24, "velocity": 62}, {"time": 3111, "pitch": 65, "duration": 2, "velocity": 74}, {"time": 3112, "pitch": 69, "duration": 2, "velocity": 83}, {"time": 3113, "pitch": 72, "duration": 3, "velocity": 87}, {"time": 3118, "pitch": 72, "duration": 18, "velocity": 67}, {"time": 3120, "pitch": 77, "duration": 16, "velocity": 74}], "annotations": [{"time": 33, "annotation": {"number": 64, "value": 127}, "group": "control_change"}, {"time": 56, "annotation": {"number": 64, "value": 0}, "group": "control_change"}, {"time": 60, "annotation": {"number": 64, "value": 127}, "group": "control_change"}, {"time": 78, "annotation": {"number": 64, "value": 0}, "group": "control_change"}, {"time": 83, "annotation": {"number": 64, "value": 127}, "group": "control_change"}, {"time": 104, "annotation": {"number": 64, "value": 0}, "group": "control_change"}, {"time": 109, "annotation": {"number": 64, "value": 127}, "group": "control_change"}, {"time": 128, "annotation": {"number": 64, "value": 0}, "group": "control_change"}, {"time": 132, "annotation": {"number": 64, "value": 127}, "group": "control_change"}, {"time": 151, "annotation": {"number": 64, "value": 0}, "group": "control_change"}, {"time": 156, "annotation": {"number": 64, "value": 127}, "group": "control_change"}, {"time": 175, "annotation": {"number": 64, "value": 0}, "group": "control_change"}, {"time": 180, "annotation": {"number": 64, "value": 127}, "group": "control_change"}, {"time": 200, "annotation": {"number": 64, "value": 0}, "group": "control_change"}, {"time": 204, "annotation": {"number": 64, "value": 127}, "group": "control_change"}, {"time": 222, "annotation": {"number": 64, "value": 0}, "group": "control_change"}, {"time": 227, "annotation": {"number": 64, "value": 127}, "group": "control_change"}, {"time": 246, "annotation": {"number": 64, "value": 0}, "group": "control_change"}, {"time": 251, "annotation": {"number": 64, "value": 127}, "group": "control_change"}, {"time": 271, "annotation": {"number": 64, "value": 0}, "group": "control_change"}, {"time": 274, "annotation": {"number": 64, "value": 127}, "group": "control_change"}, {"time": 295, "annotation": {"number": 64, "value": 0}, "group": "control_change"}, {"time": 298, "annotation": {"number": 64, "value": 127}, "group": "control_change"}, {"time": 319, "annotation": {"number": 64, "value": 0}, "group": "control_change"}, {"time": 325, "annotation": {"number": 64, "value": 127}, "group": "control_change"}, {"time": 344, "annotation": {"number": 64, "value": 0}, "group": "control_change"}, {"time": 354, "annotation": {"number": 64, "value": 127}, "group": "control_change"}, {"time": 367, "annotation": {"number": 64, "value": 0}, "group": "control_change"}, {"time": 370, "annotation": {"number": 64, "value": 127}, "group": "control_change"}, {"time": 391, "annotation": {"number": 64, "value": 0}, "group": "control_change"}, {"time": 393, "annotation": {"number": 64, "value": 127}, "group": "control_change"}, {"time": 414, "annotation": {"number": 64, "value": 0}, "group": "control_change"}, {"time": 418, "annotation": {"number": 64, "value": 127}, "group": "control_change"}, {"time": 418, "annotation": {"number": 64, "value": 0}, "group": "control_change"}, {"time": 421, "annotation": {"number": 64, "value": 127}, "group": "control_change"}, {"time": 439, "annotation": {"number": 64, "value": 0}, "group": "control_change"}, {"time": 441, "annotation": {"number": 64, "value": 127}, "group": "control_change"}, {"time": 464, "annotation": {"number": 64, "value": 0}, "group": "control_change"}, {"time": 467, "annotation": {"number": 64, "value": 127}, "group": "control_change"}, {"time": 487, "annotation": {"number": 64, "value": 0}, "group": "control_change"}, {"time": 489, "annotation": {"number": 64, "value": 127}, "group": "control_change"}, {"time": 511, "annotation": {"number": 64, "value": 0}, "group": "control_change"}, {"time": 513, "annotation": {"number": 64, "value": 127}, "group": "control_change"}, {"time": 535, "annotation": {"number": 64, "value": 0}, "group": "control_change"}, {"time": 538, "annotation": {"number": 64, "value": 127}, "group": "control_change"}, {"time": 560, "annotation": {"number": 64, "value": 0}, "group": "control_change"}, {"time": 563, "annotation": {"number": 64, "value": 127}, "group": "control_change"}, {"time": 583, "annotation": {"number": 64, "value": 0}, "group": "control_change"}, {"time": 586, "annotation": {"number": 64, "value": 127}, "group": "control_change"}, {"time": 606, "annotation": {"number": 64, "value": 0}, "group": "control_change"}, {"time": 610, "annotation": {"number": 64, "value": 127}, "group": "control_change"}, {"time": 610, "annotation": {"number": 64, "value": 0}, "group": "control_change"}, {"time": 613, "annotation": {"number": 64, "value": 127}, "group": "control_change"}, {"time": 631, "annotation": {"number": 64, "value": 0}, "group": "control_change"}, {"time": 633, "annotation": {"number": 64, "value": 127}, "group": "control_change"}, {"time": 656, "annotation": {"number": 64, "value": 0}, "group": "control_change"}, {"time": 659, "annotation": {"number": 64, "value": 127}, "group": "control_change"}, {"time": 679, "annotation": {"number": 64, "value": 0}, "group": "control_change"}, {"time": 681, "annotation": {"number": 64, "value": 127}, "group": "control_change"}, {"time": 703, "annotation": {"number": 64, "value": 0}, "group": "control_change"}, {"time": 704, "annotation": {"number": 64, "value": 127}, "group": "control_change"}, {"time": 726, "annotation": {"number": 64, "value": 0}, "group": "control_change"}, {"time": 730, "annotation": {"number": 64, "value": 127}, "group": "control_change"}, {"time": 751, "annotation": {"number": 64, "value": 0}, "group": "control_change"}, {"time": 753, "annotation": {"number": 64, "value": 127}, "group": "control_change"}, {"time": 775, "annotation": {"number": 64, "value": 0}, "group": "control_change"}, {"time": 777, "annotation": {"number": 64, "value": 127}, "group": "control_change"}, {"time": 798, "annotation": {"number": 64, "value": 0}, "group": "control_change"}, {"time": 802, "annotation": {"number": 64, "value": 127}, "group": "control_change"}, {"time": 802, "annotation": {"number": 64, "value": 0}, "group": "control_change"}, {"time": 805, "annotation": {"number": 64, "value": 127}, "group": "control_change"}, {"time": 823, "annotation": {"number": 64, "value": 0}, "group": "control_change"}, {"time": 825, "annotation": {"number": 64, "value": 127}, "group": "control_change"}, {"time": 848, "annotation": {"number": 64, "value": 0}, "group": "control_change"}, {"time": 851, "annotation": {"number": 64, "value": 127}, "group": "control_change"}, {"time": 871, "annotation": {"number": 64, "value": 0}, "group": "control_change"}, {"time": 873, "annotation": {"number": 64, "value": 127}, "group": "control_change"}, {"time": 895, "annotation": {"number": 64, "value": 0}, "group": "control_change"}, {"time": 897, "annotation": {"number": 64, "value": 127}, "group": "control_change"}, {"time": 919, "annotation": {"number": 64, "value": 0}, "group": "control_change"}, {"time": 922, "annotation": {"number": 64, "value": 127}, "group": "control_change"}, {"time": 944, "annotation": {"number": 64, "value": 0}, "group": "control_change"}, {"time": 947, "annotation": {"number": 64, "value": 127}, "group": "control_change"}, {"time": 967, "annotation": {"number": 64, "value": 0}, "group": "control_change"}, {"time": 970, "annotation": {"number": 64, "value": 127}, "group": "control_change"}, {"time": 990, "annotation": {"number": 64, "value": 0}, "group": "control_change"}, {"time": 994, "annotation": {"number": 64, "value": 127}, "group": "control_change"}, {"time": 994, "annotation": {"number": 64, "value": 0}, "group": "control_change"}, {"time": 997, "annotation": {"number": 64, "value": 127}, "group": "control_change"}, {"time": 1015, "annotation": {"number": 64, "value": 0}, "group": "control_change"}, {"time": 1017, "annotation": {"number": 64, "value": 127}, "group": "control_change"}, {"time": 1040, "annotation": {"number": 64, "value": 0}, "group": "control_change"}, {"time": 1043, "annotation": {"number": 64, "value": 127}, "group": "control_change"}, {"time": 1063, "annotation": {"number": 64, "value": 0}, "group": "control_change"}, {"time": 1065, "annotation": {"number": 64, "value": 127}, "group": "control_change"}, {"time": 1087, "annotation": {"number": 64, "value": 0}, "group": "control_change"}, {"time": 1088, "annotation": {"number": 64, "value": 127}, "group": "control_change"}, {"time": 1110, "annotation": {"number": 64, "value": 0}, "group": "control_change"}, {"time": 1114, "annotation": {"number": 64, "value": 127}, "group": "control_change"}, {"time": 1135, "annotation": {"number": 64, "value": 0}, "group": "control_change"}, {"time": 1137, "annotation": {"number": 64, "value": 127}, "group": "control_change"}, {"time": 1159, "annotation": {"number": 64, "value": 0}, "group": "control_change"}, {"time": 1161, "annotation": {"number": 64, "value": 127}, "group": "control_change"}, {"time": 1182, "annotation": {"number": 64, "value": 0}, "group": "control_change"}, {"time": 1184, "annotation": {"number": 64, "value": 127}, "group": "control_change"}, {"time": 1208, "annotation": {"number": 64, "value": 0}, "group": "control_change"}, {"time": 1210, "annotation": {"number": 64, "value": 127}, "group": "control_change"}, {"time": 1231, "annotation": {"number": 64, "value": 0}, "group": "control_change"}, {"time": 1233, "annotation": {"number": 64, "value": 127}, "group": "control_change"}, {"time": 1244, "annotation": {"number": 64, "value": 0}, "group": "control_change"}, {"time": 1250, "annotation": {"number": 64, "value": 127}, "group": "control_change"}, {"time": 1255, "annotation": {"number": 64, "value": 0}, "group": "control_change"}, {"time": 1257, "annotation": {"number": 64, "value": 127}, "group": "control_change"}, {"time": 1279, "annotation": {"number": 64, "value": 0}, "group": "control_change"}, {"time": 1281, "annotation": {"number": 64, "value": 127}, "group": "control_change"}, {"time": 1303, "annotation": {"number": 64, "value": 0}, "group": "control_change"}, {"time": 1306, "annotation": {"number": 64, "value": 127}, "group": "control_change"}, {"time": 1327, "annotation": {"number": 64, "value": 0}, "group": "control_change"}, {"time": 1331, "annotation": {"number": 64, "value": 127}, "group": "control_change"}, {"time": 1351, "annotation": {"number": 64, "value": 0}, "group": "control_change"}, {"time": 1353, "annotation": {"number": 64, "value": 127}, "group": "control_change"}, {"time": 1367, "annotation": {"number": 64, "value": 0}, "group": "control_change"}, {"time": 1376, "annotation": {"number": 64, "value": 127}, "group": "control_change"}, {"time": 1400, "annotation": {"number": 64, "value": 0}, "group": "control_change"}, {"time": 1402, "annotation": {"number": 64, "value": 127}, "group": "control_change"}, {"time": 1423, "annotation": {"number": 64, "value": 0}, "group": "control_change"}, {"time": 1425, "annotation": {"number": 64, "value": 127}, "group": "control_change"}, {"time": 1436, "annotation": {"number": 64, "value": 0}, "group": "control_change"}, {"time": 1442, "annotation": {"number": 64, "value": 127}, "group": "control_change"}, {"time": 1447, "annotation": {"number": 64, "value": 0}, "group": "control_change"}, {"time": 1449, "annotation": {"number": 64, "value": 127}, "group": "control_change"}, {"time": 1471, "annotation": {"number": 64, "value": 0}, "group": "control_change"}, {"time": 1473, "annotation": {"number": 64, "value": 127}, "group": "control_change"}, {"time": 1495, "annotation": {"number": 64, "value": 0}, "group": "control_change"}, {"time": 1498, "annotation": {"number": 64, "value": 127}, "group": "control_change"}, {"time": 1519, "annotation": {"number": 64, "value": 0}, "group": "control_change"}, {"time": 1524, "annotation": {"number": 64, "value": 127}, "group": "control_change"}, {"time": 1543, "annotation": {"number": 64, "value": 0}, "group": "control_change"}, {"time": 1547, "annotation": {"number": 64, "value": 127}, "group": "control_change"}, {"time": 1565, "annotation": {"number": 64, "value": 0}, "group": "control_change"}, {"time": 1569, "annotation": {"number": 64, "value": 127}, "group": "control_change"}, {"time": 1591, "annotation": {"number": 64, "value": 0}, "group": "control_change"}, {"time": 1596, "annotation": {"number": 64, "value": 127}, "group": "control_change"}, {"time": 1614, "annotation": {"number": 64, "value": 0}, "group": "control_change"}, {"time": 1621, "annotation": {"number": 64, "value": 127}, "group": "control_change"}, {"time": 1640, "annotation": {"number": 64, "value": 0}, "group": "control_change"}, {"time": 1645, "annotation": {"number": 64, "value": 127}, "group": "control_change"}, {"time": 1662, "annotation": {"number": 64, "value": 0}, "group": "control_change"}, {"time": 1667, "annotation": {"number": 64, "value": 127}, "group": "control_change"}, {"time": 1686, "annotation": {"number": 64, "value": 0}, "group": "control_change"}, {"time": 1693, "annotation": {"number": 64, "value": 127}, "group": "control_change"}, {"time": 1711, "annotation": {"number": 64, "value": 0}, "group": "control_change"}, {"time": 1713, "annotation": {"number": 64, "value": 127}, "group": "control_change"}, {"time": 1723, "annotation": {"number": 64, "value": 0}, "group": "control_change"}, {"time": 1725, "annotation": {"number": 64, "value": 127}, "group": "control_change"}, {"time": 1734, "annotation": {"number": 64, "value": 0}, "group": "control_change"}, {"time": 1736, "annotation": {"number": 64, "value": 127}, "group": "control_change"}, {"time": 1756, "annotation": {"number": 64, "value": 0}, "group": "control_change"}, {"time": 1762, "annotation": {"number": 64, "value": 127}, "group": "control_change"}, {"time": 1762, "annotation": {"number": 64, "value": 0}, "group": "control_change"}, {"time": 1765, "annotation": {"number": 64, "value": 127}, "group": "control_change"}, {"time": 1783, "annotation": {"number": 64, "value": 0}, "group": "control_change"}, {"time": 1785, "annotation": {"number": 64, "value": 127}, "group": "control_change"}, {"time": 1808, "annotation": {"number": 64, "value": 0}, "group": "control_change"}, {"time": 1811, "annotation": {"number": 64, "value": 127}, "group": "control_change"}, {"time": 1831, "annotation": {"number": 64, "value": 0}, "group": "control_change"}, {"time": 1833, "annotation": {"number": 64, "value": 127}, "group": "control_change"}, {"time": 1855, "annotation": {"number": 64, "value": 0}, "group": "control_change"}, {"time": 1857, "annotation": {"number": 64, "value": 127}, "group": "control_change"}, {"time": 1879, "annotation": {"number": 64, "value": 0}, "group": "control_change"}, {"time": 1882, "annotation": {"number": 64, "value": 127}, "group": "control_change"}, {"time": 1904, "annotation": {"number": 64, "value": 0}, "group": "control_change"}, {"time": 1907, "annotation": {"number": 64, "value": 127}, "group": "control_change"}, {"time": 1927, "annotation": {"number": 64, "value": 0}, "group": "control_change"}, {"time": 1930, "annotation": {"number": 64, "value": 127}, "group": "control_change"}, {"time": 1950, "annotation": {"number": 64, "value": 0}, "group": "control_change"}, {"time": 1954, "annotation": {"number": 64, "value": 127}, "group": "control_change"}, {"time": 1954, "annotation": {"number": 64, "value": 0}, "group": "control_change"}, {"time": 1957, "annotation": {"number": 64, "value": 127}, "group": "control_change"}, {"time": 1975, "annotation": {"number": 64, "value": 0}, "group": "control_change"}, {"time": 1977, "annotation": {"number": 64, "value": 127}, "group": "control_change"}, {"time": 2000, "annotation": {"number": 64, "value": 0}, "group": "control_change"}, {"time": 2003, "annotation": {"number": 64, "value": 127}, "group": "control_change"}, {"time": 2023, "annotation": {"number": 64, "value": 0}, "group": "control_change"}, {"time": 2025, "annotation": {"number": 64, "value": 127}, "group": "control_change"}, {"time": 2047, "annotation": {"number": 64, "value": 0}, "group": "control_change"}, {"time": 2048, "annotation": {"number": 64, "value": 127}, "group": "control_change"}, {"time": 2070, "annotation": {"number": 64, "value": 0}, "group": "control_change"}, {"time": 2074, "annotation": {"number": 64, "value": 127}, "group": "control_change"}, {"time": 2095, "annotation": {"number": 64, "value": 0}, "group": "control_change"}, {"time": 2097, "annotation": {"number": 64, "value": 127}, "group": "control_change"}, {"time": 2119, "annotation": {"number": 64, "value": 0}, "group": "control_change"}, {"time": 2121, "annotation": {"number": 64, "value": 127}, "group": "control_change"}, {"time": 2142, "annotation": {"number": 64, "value": 0}, "group": "control_change"}, {"time": 2144, "annotation": {"number": 64, "value": 127}, "group": "control_change"}, {"time": 2168, "annotation": {"number": 64, "value": 0}, "group": "control_change"}, {"time": 2170, "annotation": {"number": 64, "value": 127}, "group": "control_change"}, {"time": 2191, "annotation": {"number": 64, "value": 0}, "group": "control_change"}, {"time": 2193, "annotation": {"number": 64, "value": 127}, "group": "control_change"}, {"time": 2204, "annotation": {"number": 64, "value": 0}, "group": "control_change"}, {"time": 2210, "annotation": {"number": 64, "value": 127}, "group": "control_change"}, {"time": 2215, "annotation": {"number": 64, "value": 0}, "group": "control_change"}, {"time": 2217, "annotation": {"number": 64, "value": 127}, "group": "control_change"}, {"time": 2239, "annotation": {"number": 64, "value": 0}, "group": "control_change"}, {"time": 2241, "annotation": {"number": 64, "value": 127}, "group": "control_change"}, {"time": 2263, "annotation": {"number": 64, "value": 0}, "group": "control_change"}, {"time": 2266, "annotation": {"number": 64, "value": 127}, "group": "control_change"}, {"time": 2287, "annotation": {"number": 64, "value": 0}, "group": "control_change"}, {"time": 2291, "annotation": {"number": 64, "value": 127}, "group": "control_change"}, {"time": 2311, "annotation": {"number": 64, "value": 0}, "group": "control_change"}, {"time": 2313, "annotation": {"number": 64, "value": 127}, "group": "control_change"}, {"time": 2327, "annotation": {"number": 64, "value": 0}, "group": "control_change"}, {"time": 2336, "annotation": {"number": 64, "value": 127}, "group": "control_change"}, {"time": 2360, "annotation": {"number": 64, "value": 0}, "group": "control_change"}, {"time": 2362, "annotation": {"number": 64, "value": 127}, "group": "control_change"}, {"time": 2383, "annotation": {"number": 64, "value": 0}, "group": "control_change"}, {"time": 2385, "annotation": {"number": 64, "value": 127}, "group": "control_change"}, {"time": 2396, "annotation": {"number": 64, "value": 0}, "group": "control_change"}, {"time": 2402, "annotation": {"number": 64, "value": 127}, "group": "control_change"}, {"time": 2407, "annotation": {"number": 64, "value": 0}, "group": "control_change"}, {"time": 2409, "annotation": {"number": 64, "value": 127}, "group": "control_change"}, {"time": 2431, "annotation": {"number": 64, "value": 0}, "group": "control_change"}, {"time": 2433, "annotation": {"number": 64, "value": 127}, "group": "control_change"}, {"time": 2455, "annotation": {"number": 64, "value": 0}, "group": "control_change"}, {"time": 2458, "annotation": {"number": 64, "value": 127}, "group": "control_change"}, {"time": 2479, "annotation": {"number": 64, "value": 0}, "group": "control_change"}, {"time": 2484, "annotation": {"number": 64, "value": 127}, "group": "control_change"}, {"time": 2503, "annotation": {"number": 64, "value": 0}, "group": "control_change"}, {"time": 2507, "annotation": {"number": 64, "value": 127}, "group": "control_change"}, {"time": 2525, "annotation": {"number": 64, "value": 0}, "group": "control_change"}, {"time": 2528, "annotation": {"number": 64, "value": 127}, "group": "control_change"}, {"time": 2552, "annotation": {"number": 64, "value": 0}, "group": "control_change"}, {"time": 2554, "annotation": {"number": 64, "value": 127}, "group": "control_change"}, {"time": 2575, "annotation": {"number": 64, "value": 0}, "group": "control_change"}, {"time": 2577, "annotation": {"number": 64, "value": 127}, "group": "control_change"}, {"time": 2588, "annotation": {"number": 64, "value": 0}, "group": "control_change"}, {"time": 2594, "annotation": {"number": 64, "value": 127}, "group": "control_change"}, {"time": 2599, "annotation": {"number": 64, "value": 0}, "group": "control_change"}, {"time": 2601, "annotation": {"number": 64, "value": 127}, "group": "control_change"}, {"time": 2623, "annotation": {"number": 64, "value": 0}, "group": "control_change"}, {"time": 2625, "annotation": {"number": 64, "value": 127}, "group": "control_change"}, {"time": 2647, "annotation": {"number": 64, "value": 0}, "group": "control_change"}, {"time": 2650, "annotation": {"number": 64, "value": 127}, "group": "control_change"}, {"time": 2671, "annotation": {"number": 64, "value": 0}, "group": "control_change"}, {"time": 2675, "annotation": {"number": 64, "value": 127}, "group": "control_change"}, {"time": 2695, "annotation": {"number": 64, "value": 0}, "group": "control_change"}, {"time": 2697, "annotation": {"number": 64, "value": 127}, "group": "control_change"}, {"time": 2711, "annotation": {"number": 64, "value": 0}, "group": "control_change"}, {"time": 2720, "annotation": {"number": 64, "value": 127}, "group": "control_change"}, {"time": 2744, "annotation": {"number": 64, "value": 0}, "group": "control_change"}, {"time": 2746, "annotation": {"number": 64, "value": 127}, "group": "control_change"}, {"time": 2767, "annotation": {"number": 64, "value": 0}, "group": "control_change"}, {"time": 2769, "annotation": {"number": 64, "value": 127}, "group": "control_change"}, {"time": 2780, "annotation": {"number": 64, "value": 0}, "group": "control_change"}, {"time": 2786, "annotation": {"number": 64, "value": 127}, "group": "control_change"}, {"time": 2791, "annotation": {"number": 64, "value": 0}, "group": "control_change"}, {"time": 2793, "annotation": {"number": 64, "value": 127}, "group": "control_change"}, {"time": 2815, "annotation": {"number": 64, "value": 0}, "group": "control_change"}, {"time": 2817, "annotation": {"number": 64, "value": 127}, "group": "control_change"}, {"time": 2839, "annotation": {"number": 64, "value": 0}, "group": "control_change"}, {"time": 2842, "annotation": {"number": 64, "value": 127}, "group": "control_change"}, {"time": 2863, "annotation": {"number": 64, "value": 0}, "group": "control_change"}, {"time": 2868, "annotation": {"number": 64, "value": 127}, "group": "control_change"}, {"time": 2887, "annotation": {"number": 64, "value": 0}, "group": "control_change"}, {"time": 2891, "annotation": {"number": 64, "value": 127}, "group": "control_change"}, {"time": 2899, "annotation": {"number": 64, "value": 127}, "group": "control_change"}, {"time": 2909, "annotation": {"number": 64, "value": 0}, "group": "control_change"}, {"time": 2911, "annotation": {"number": 64, "value": 0}, "group": "control_change"}, {"time": 2913, "annotation": {"number": 64, "value": 127}, "group": "control_change"}, {"time": 2973, "annotation": {"number": 64, "value": 0}, "group": "control_change"}, {"time": 2983, "annotation": {"number": 64, "value": 127}, "group": "control_change"}, {"time": 3031, "annotation": {"number": 64, "value": 127}, "group": "control_change"}, {"time": 3033, "annotation": {"number": 64, "value": 127}, "group": "control_change"}, {"time": 3053, "annotation": {"number": 64, "value": 0}, "group": "control_change"}, {"time": 3054, "annotation": {"number": 64, "value": 0}, "group": "control_change"}, {"time": 3056, "annotation": {"number": 64, "value": 127}, "group": "control_change"}, {"time": 3057, "annotation": {"number": 64, "value": 127}, "group": "control_change"}, {"time": 3076, "annotation": {"number": 64, "value": 0}, "group": "control_change"}, {"time": 3078, "annotation": {"number": 64, "value": 0}, "group": "control_change"}, {"time": 3079, "annotation": {"number": 64, "value": 127}, "group": "control_change"}, {"time": 3080, "annotation": {"number": 64, "value": 127}, "group": "control_change"}, {"time": 3110, "annotation": {"number": 64, "value": 0}, "group": "control_change"}, {"time": 3112, "annotation": {"number": 64, "value": 127}, "group": "control_change"}, {"time": 3160, "annotation": {"number": 64, "value": 0}, "group": "control_change"}]}]}