{"metadata": {"schema_version": "0.2", "title": "None", "source_filename": "084.mid", "source_format": "midi"}, "resolution": 12, "tempos": [{"time": 0, "qpm": 72.00011520018433}, {"time": 2952, "qpm": 70.00007000007}, {"time": 2964, "qpm": 66.00021120067584}, {"time": 2980, "qpm": 64.0}, {"time": 2988, "qpm": 62.00005993339127}], "time_signatures": [{"time": 0, "numerator": 1, "denominator": 4}], "tracks": [{"program": 4, "is_drum": false, "name": "MELODY", "notes": [{"time": 225, "pitch": 67, "duration": 5, "velocity": 115}, {"time": 231, "pitch": 74, "duration": 1, "velocity": 106}, {"time": 234, "pitch": 74, "duration": 1, "velocity": 106}, {"time": 237, "pitch": 74, "duration": 4, "velocity": 109}, {"time": 243, "pitch": 72, "duration": 1, "velocity": 109}, {"time": 246, "pitch": 70, "duration": 1, "velocity": 120}, {"time": 249, "pitch": 74, "duration": 7, "velocity": 109}, {"time": 267, "pitch": 74, "duration": 2, "velocity": 115}, {"time": 270, "pitch": 79, "duration": 1, "velocity": 112}, {"time": 273, "pitch": 77, "duration": 3, "velocity": 115}, {"time": 279, "pitch": 77, "duration": 1, "velocity": 106}, {"time": 282, "pitch": 77, "duration": 1, "velocity": 109}, {"time": 285, "pitch": 77, "duration": 3, "velocity": 112}, {"time": 291, "pitch": 74, "duration": 2, "velocity": 115}, {"time": 294, "pitch": 72, "duration": 1, "velocity": 101}, {"time": 297, "pitch": 74, "duration": 14, "velocity": 106}, {"time": 321, "pitch": 74, "duration": 2, "velocity": 115}, {"time": 324, "pitch": 79, "duration": 1, "velocity": 112}, {"time": 327, "pitch": 79, "duration": 1, "velocity": 104}, {"time": 330, "pitch": 79, "duration": 1, "velocity": 109}, {"time": 333, "pitch": 79, "duration": 4, "velocity": 112}, {"time": 339, "pitch": 79, "duration": 2, "velocity": 112}, {"time": 342, "pitch": 77, "duration": 1, "velocity": 109}, {"time": 345, "pitch": 74, "duration": 4, "velocity": 115}, {"time": 351, "pitch": 72, "duration": 9, "velocity": 106}, {"time": 363, "pitch": 67, "duration": 2, "velocity": 115}, {"time": 366, "pitch": 70, "duration": 1, "velocity": 117}, {"time": 369, "pitch": 72, "duration": 1, "velocity": 104}, {"time": 372, "pitch": 72, "duration": 1, "velocity": 101}, {"time": 375, "pitch": 72, "duration": 1, "velocity": 104}, {"time": 378, "pitch": 72, "duration": 1, "velocity": 104}, {"time": 381, "pitch": 72, "duration": 4, "velocity": 109}, {"time": 387, "pitch": 70, "duration": 2, "velocity": 117}, {"time": 390, "pitch": 72, "duration": 3, "velocity": 109}, {"time": 396, "pitch": 74, "duration": 17, "velocity": 109}, {"time": 417, "pitch": 74, "duration": 4, "velocity": 115}, {"time": 423, "pitch": 79, "duration": 1, "velocity": 115}, {"time": 426, "pitch": 79, "duration": 1, "velocity": 106}, {"time": 429, "pitch": 79, "duration": 5, "velocity": 115}, {"time": 435, "pitch": 77, "duration": 4, "velocity": 112}, {"time": 441, "pitch": 82, "duration": 4, "velocity": 120}, {"time": 447, "pitch": 79, "duration": 8, "velocity": 112}, {"time": 459, "pitch": 79, "duration": 1, "velocity": 112}, {"time": 462, "pitch": 79, "duration": 1, "velocity": 106}, {"time": 465, "pitch": 77, "duration": 1, "velocity": 118}, {"time": 468, "pitch": 77, "duration": 7, "velocity": 112}, {"time": 477, "pitch": 77, "duration": 4, "velocity": 112}, {"time": 483, "pitch": 74, "duration": 2, "velocity": 109}, {"time": 486, "pitch": 72, "duration": 4, "velocity": 104}, {"time": 492, "pitch": 74, "duration": 12, "velocity": 109}, {"time": 513, "pitch": 74, "duration": 5, "velocity": 118}, {"time": 519, "pitch": 79, "duration": 2, "velocity": 112}, {"time": 522, "pitch": 79, "duration": 2, "velocity": 106}, {"time": 525, "pitch": 79, "duration": 7, "velocity": 112}, {"time": 534, "pitch": 77, "duration": 2, "velocity": 109}, {"time": 537, "pitch": 74, "duration": 4, "velocity": 115}, {"time": 543, "pitch": 72, "duration": 7, "velocity": 109}, {"time": 555, "pitch": 67, "duration": 2, "velocity": 104}, {"time": 558, "pitch": 70, "duration": 1, "velocity": 117}, {"time": 561, "pitch": 72, "duration": 4, "velocity": 109}, {"time": 567, "pitch": 72, "duration": 2, "velocity": 106}, {"time": 570, "pitch": 74, "duration": 1, "velocity": 109}, {"time": 573, "pitch": 77, "duration": 3, "velocity": 115}, {"time": 579, "pitch": 74, "duration": 3, "velocity": 109}, {"time": 585, "pitch": 65, "duration": 4, "velocity": 115}, {"time": 591, "pitch": 67, "duration": 15, "velocity": 104}, {"time": 609, "pitch": 70, "duration": 1, "velocity": 120}, {"time": 612, "pitch": 70, "duration": 4, "velocity": 110}, {"time": 618, "pitch": 70, "duration": 2, "velocity": 117}, {"time": 621, "pitch": 70, "duration": 4, "velocity": 117}, {"time": 627, "pitch": 74, "duration": 4, "velocity": 106}, {"time": 633, "pitch": 74, "duration": 15, "velocity": 115}, {"time": 651, "pitch": 74, "duration": 1, "velocity": 118}, {"time": 654, "pitch": 77, "duration": 1, "velocity": 112}, {"time": 657, "pitch": 79, "duration": 3, "velocity": 115}, {"time": 663, "pitch": 79, "duration": 3, "velocity": 115}, {"time": 669, "pitch": 81, "duration": 6, "velocity": 115}, {"time": 678, "pitch": 79, "duration": 2, "velocity": 109}, {"time": 681, "pitch": 77, "duration": 4, "velocity": 112}, {"time": 687, "pitch": 74, "duration": 9, "velocity": 115}, {"time": 699, "pitch": 74, "duration": 2, "velocity": 115}, {"time": 702, "pitch": 77, "duration": 1, "velocity": 112}, {"time": 705, "pitch": 79, "duration": 3, "velocity": 115}, {"time": 711, "pitch": 79, "duration": 2, "velocity": 112}, {"time": 717, "pitch": 79, "duration": 8, "velocity": 112}, {"time": 729, "pitch": 81, "duration": 2, "velocity": 115}, {"time": 735, "pitch": 81, "duration": 3, "velocity": 115}, {"time": 741, "pitch": 79, "duration": 2, "velocity": 109}, {"time": 744, "pitch": 82, "duration": 6, "velocity": 115}, {"time": 753, "pitch": 81, "duration": 31, "velocity": 118}, {"time": 801, "pitch": 74, "duration": 2, "velocity": 115}, {"time": 804, "pitch": 79, "duration": 1, "velocity": 115}, {"time": 807, "pitch": 79, "duration": 1, "velocity": 109}, {"time": 810, "pitch": 79, "duration": 9, "velocity": 112}, {"time": 825, "pitch": 74, "duration": 2, "velocity": 115}, {"time": 828, "pitch": 81, "duration": 1, "velocity": 115}, {"time": 831, "pitch": 81, "duration": 1, "velocity": 106}, {"time": 834, "pitch": 81, "duration": 6, "velocity": 115}, {"time": 843, "pitch": 79, "duration": 2, "velocity": 115}, {"time": 846, "pitch": 81, "duration": 1, "velocity": 109}, {"time": 849, "pitch": 82, "duration": 4, "velocity": 120}, {"time": 855, "pitch": 82, "duration": 1, "velocity": 113}, {"time": 858, "pitch": 82, "duration": 1, "velocity": 110}, {"time": 861, "pitch": 82, "duration": 4, "velocity": 120}, {"time": 867, "pitch": 79, "duration": 1, "velocity": 104}, {"time": 870, "pitch": 79, "duration": 4, "velocity": 112}, {"time": 876, "pitch": 77, "duration": 10, "velocity": 115}, {"time": 891, "pitch": 74, "duration": 1, "velocity": 112}, {"time": 894, "pitch": 77, "duration": 1, "velocity": 112}, {"time": 897, "pitch": 72, "duration": 3, "velocity": 115}, {"time": 903, "pitch": 72, "duration": 3, "velocity": 112}, {"time": 909, "pitch": 72, "duration": 1, "velocity": 106}, {"time": 912, "pitch": 72, "duration": 4, "velocity": 112}, {"time": 918, "pitch": 70, "duration": 1, "velocity": 120}, {"time": 921, "pitch": 72, "duration": 3, "velocity": 109}, {"time": 927, "pitch": 74, "duration": 7, "velocity": 112}, {"time": 939, "pitch": 74, "duration": 2, "velocity": 112}, {"time": 942, "pitch": 77, "duration": 1, "velocity": 112}, {"time": 945, "pitch": 79, "duration": 4, "velocity": 112}, {"time": 951, "pitch": 79, "duration": 1, "velocity": 109}, {"time": 954, "pitch": 79, "duration": 1, "velocity": 106}, {"time": 957, "pitch": 79, "duration": 4, "velocity": 112}, {"time": 963, "pitch": 82, "duration": 4, "velocity": 120}, {"time": 969, "pitch": 79, "duration": 2, "velocity": 109}, {"time": 975, "pitch": 81, "duration": 15, "velocity": 112}, {"time": 993, "pitch": 74, "duration": 2, "velocity": 115}, {"time": 996, "pitch": 79, "duration": 1, "velocity": 115}, {"time": 999, "pitch": 79, "duration": 1, "velocity": 109}, {"time": 1002, "pitch": 79, "duration": 9, "velocity": 112}, {"time": 1017, "pitch": 74, "duration": 2, "velocity": 115}, {"time": 1020, "pitch": 81, "duration": 1, "velocity": 115}, {"time": 1023, "pitch": 81, "duration": 1, "velocity": 106}, {"time": 1026, "pitch": 81, "duration": 6, "velocity": 115}, {"time": 1035, "pitch": 79, "duration": 2, "velocity": 115}, {"time": 1038, "pitch": 81, "duration": 1, "velocity": 109}, {"time": 1041, "pitch": 82, "duration": 4, "velocity": 120}, {"time": 1047, "pitch": 82, "duration": 1, "velocity": 113}, {"time": 1050, "pitch": 82, "duration": 1, "velocity": 110}, {"time": 1053, "pitch": 82, "duration": 4, "velocity": 120}, {"time": 1059, "pitch": 84, "duration": 2, "velocity": 118}, {"time": 1062, "pitch": 82, "duration": 1, "velocity": 120}, {"time": 1065, "pitch": 86, "duration": 12, "velocity": 115}, {"time": 1083, "pitch": 86, "duration": 1, "velocity": 112}, {"time": 1086, "pitch": 86, "duration": 1, "velocity": 112}, {"time": 1089, "pitch": 84, "duration": 3, "velocity": 115}, {"time": 1095, "pitch": 84, "duration": 3, "velocity": 112}, {"time": 1101, "pitch": 84, "duration": 1, "velocity": 106}, {"time": 1104, "pitch": 84, "duration": 4, "velocity": 112}, {"time": 1110, "pitch": 82, "duration": 1, "velocity": 120}, {"time": 1113, "pitch": 84, "duration": 3, "velocity": 109}, {"time": 1119, "pitch": 82, "duration": 2, "velocity": 117}, {"time": 1122, "pitch": 79, "duration": 6, "velocity": 115}, {"time": 1131, "pitch": 79, "duration": 2, "velocity": 112}, {"time": 1134, "pitch": 81, "duration": 1, "velocity": 112}, {"time": 1137, "pitch": 82, "duration": 3, "velocity": 120}, {"time": 1143, "pitch": 82, "duration": 1, "velocity": 120}, {"time": 1146, "pitch": 82, "duration": 1, "velocity": 117}, {"time": 1149, "pitch": 82, "duration": 4, "velocity": 120}, {"time": 1155, "pitch": 84, "duration": 2, "velocity": 115}, {"time": 1158, "pitch": 82, "duration": 1, "velocity": 117}, {"time": 1161, "pitch": 81, "duration": 8, "velocity": 109}, {"time": 1170, "pitch": 74, "duration": 2, "velocity": 106}, {"time": 1173, "pitch": 77, "duration": 4, "velocity": 112}, {"time": 1179, "pitch": 74, "duration": 8, "velocity": 115}, {"time": 1191, "pitch": 79, "duration": 34, "velocity": 112}, {"time": 1473, "pitch": 67, "duration": 4, "velocity": 115}, {"time": 1479, "pitch": 74, "duration": 1, "velocity": 115}, {"time": 1482, "pitch": 74, "duration": 1, "velocity": 106}, {"time": 1485, "pitch": 74, "duration": 5, "velocity": 115}, {"time": 1491, "pitch": 72, "duration": 3, "velocity": 112}, {"time": 1494, "pitch": 70, "duration": 6, "velocity": 114}, {"time": 1503, "pitch": 74, "duration": 8, "velocity": 112}, {"time": 1515, "pitch": 79, "duration": 1, "velocity": 112}, {"time": 1518, "pitch": 79, "duration": 1, "velocity": 106}, {"time": 1521, "pitch": 77, "duration": 1, "velocity": 118}, {"time": 1524, "pitch": 77, "duration": 7, "velocity": 112}, {"time": 1533, "pitch": 77, "duration": 4, "velocity": 112}, {"time": 1539, "pitch": 74, "duration": 2, "velocity": 109}, {"time": 1542, "pitch": 72, "duration": 4, "velocity": 104}, {"time": 1548, "pitch": 74, "duration": 12, "velocity": 109}, {"time": 1569, "pitch": 74, "duration": 5, "velocity": 118}, {"time": 1575, "pitch": 79, "duration": 2, "velocity": 112}, {"time": 1578, "pitch": 79, "duration": 2, "velocity": 106}, {"time": 1581, "pitch": 79, "duration": 7, "velocity": 112}, {"time": 1590, "pitch": 77, "duration": 2, "velocity": 109}, {"time": 1593, "pitch": 74, "duration": 4, "velocity": 115}, {"time": 1599, "pitch": 72, "duration": 7, "velocity": 109}, {"time": 1611, "pitch": 67, "duration": 2, "velocity": 104}, {"time": 1614, "pitch": 70, "duration": 1, "velocity": 117}, {"time": 1617, "pitch": 72, "duration": 4, "velocity": 109}, {"time": 1623, "pitch": 72, "duration": 2, "velocity": 106}, {"time": 1626, "pitch": 74, "duration": 1, "velocity": 109}, {"time": 1629, "pitch": 77, "duration": 3, "velocity": 115}, {"time": 1635, "pitch": 74, "duration": 3, "velocity": 109}, {"time": 1641, "pitch": 65, "duration": 4, "velocity": 115}, {"time": 1647, "pitch": 67, "duration": 15, "velocity": 104}, {"time": 1665, "pitch": 70, "duration": 1, "velocity": 120}, {"time": 1668, "pitch": 70, "duration": 4, "velocity": 110}, {"time": 1674, "pitch": 70, "duration": 2, "velocity": 117}, {"time": 1677, "pitch": 70, "duration": 4, "velocity": 117}, {"time": 1683, "pitch": 74, "duration": 4, "velocity": 106}, {"time": 1689, "pitch": 74, "duration": 15, "velocity": 115}, {"time": 1707, "pitch": 74, "duration": 1, "velocity": 118}, {"time": 1710, "pitch": 77, "duration": 1, "velocity": 112}, {"time": 1713, "pitch": 79, "duration": 3, "velocity": 115}, {"time": 1719, "pitch": 79, "duration": 3, "velocity": 115}, {"time": 1725, "pitch": 81, "duration": 6, "velocity": 115}, {"time": 1734, "pitch": 79, "duration": 2, "velocity": 109}, {"time": 1737, "pitch": 77, "duration": 4, "velocity": 112}, {"time": 1743, "pitch": 74, "duration": 9, "velocity": 115}, {"time": 1755, "pitch": 74, "duration": 2, "velocity": 115}, {"time": 1758, "pitch": 77, "duration": 1, "velocity": 112}, {"time": 1761, "pitch": 79, "duration": 3, "velocity": 115}, {"time": 1767, "pitch": 79, "duration": 2, "velocity": 112}, {"time": 1773, "pitch": 79, "duration": 8, "velocity": 112}, {"time": 1785, "pitch": 81, "duration": 2, "velocity": 115}, {"time": 1791, "pitch": 81, "duration": 3, "velocity": 115}, {"time": 1797, "pitch": 79, "duration": 2, "velocity": 109}, {"time": 1800, "pitch": 82, "duration": 6, "velocity": 115}, {"time": 1809, "pitch": 84, "duration": 31, "velocity": 118}, {"time": 1857, "pitch": 74, "duration": 2, "velocity": 115}, {"time": 1860, "pitch": 79, "duration": 1, "velocity": 115}, {"time": 1863, "pitch": 79, "duration": 1, "velocity": 109}, {"time": 1866, "pitch": 79, "duration": 9, "velocity": 112}, {"time": 1881, "pitch": 74, "duration": 2, "velocity": 115}, {"time": 1884, "pitch": 81, "duration": 1, "velocity": 115}, {"time": 1887, "pitch": 81, "duration": 1, "velocity": 106}, {"time": 1890, "pitch": 81, "duration": 6, "velocity": 115}, {"time": 1899, "pitch": 79, "duration": 2, "velocity": 115}, {"time": 1902, "pitch": 81, "duration": 1, "velocity": 109}, {"time": 1905, "pitch": 82, "duration": 4, "velocity": 120}, {"time": 1911, "pitch": 82, "duration": 1, "velocity": 113}, {"time": 1914, "pitch": 82, "duration": 1, "velocity": 110}, {"time": 1917, "pitch": 82, "duration": 4, "velocity": 120}, {"time": 1923, "pitch": 79, "duration": 1, "velocity": 104}, {"time": 1926, "pitch": 79, "duration": 4, "velocity": 112}, {"time": 1932, "pitch": 77, "duration": 10, "velocity": 115}, {"time": 1947, "pitch": 74, "duration": 1, "velocity": 112}, {"time": 1950, "pitch": 77, "duration": 1, "velocity": 112}, {"time": 1953, "pitch": 72, "duration": 3, "velocity": 115}, {"time": 1959, "pitch": 72, "duration": 3, "velocity": 112}, {"time": 1965, "pitch": 72, "duration": 1, "velocity": 106}, {"time": 1968, "pitch": 72, "duration": 4, "velocity": 112}, {"time": 1974, "pitch": 70, "duration": 1, "velocity": 120}, {"time": 1977, "pitch": 72, "duration": 3, "velocity": 109}, {"time": 1983, "pitch": 74, "duration": 7, "velocity": 112}, {"time": 1995, "pitch": 74, "duration": 2, "velocity": 112}, {"time": 1998, "pitch": 77, "duration": 1, "velocity": 112}, {"time": 2001, "pitch": 79, "duration": 4, "velocity": 112}, {"time": 2007, "pitch": 79, "duration": 1, "velocity": 109}, {"time": 2010, "pitch": 79, "duration": 1, "velocity": 106}, {"time": 2013, "pitch": 79, "duration": 4, "velocity": 112}, {"time": 2019, "pitch": 82, "duration": 4, "velocity": 120}, {"time": 2025, "pitch": 79, "duration": 2, "velocity": 109}, {"time": 2031, "pitch": 81, "duration": 15, "velocity": 112}, {"time": 2049, "pitch": 74, "duration": 2, "velocity": 115}, {"time": 2052, "pitch": 79, "duration": 1, "velocity": 115}, {"time": 2055, "pitch": 79, "duration": 1, "velocity": 109}, {"time": 2058, "pitch": 79, "duration": 9, "velocity": 112}, {"time": 2073, "pitch": 74, "duration": 2, "velocity": 115}, {"time": 2076, "pitch": 81, "duration": 1, "velocity": 115}, {"time": 2079, "pitch": 81, "duration": 1, "velocity": 106}, {"time": 2082, "pitch": 81, "duration": 6, "velocity": 115}, {"time": 2091, "pitch": 79, "duration": 2, "velocity": 115}, {"time": 2094, "pitch": 81, "duration": 1, "velocity": 109}, {"time": 2097, "pitch": 82, "duration": 4, "velocity": 120}, {"time": 2103, "pitch": 82, "duration": 1, "velocity": 113}, {"time": 2106, "pitch": 82, "duration": 1, "velocity": 110}, {"time": 2109, "pitch": 82, "duration": 4, "velocity": 120}, {"time": 2115, "pitch": 84, "duration": 2, "velocity": 118}, {"time": 2118, "pitch": 82, "duration": 1, "velocity": 120}, {"time": 2121, "pitch": 86, "duration": 12, "velocity": 115}, {"time": 2139, "pitch": 86, "duration": 1, "velocity": 112}, {"time": 2142, "pitch": 86, "duration": 1, "velocity": 112}, {"time": 2145, "pitch": 84, "duration": 3, "velocity": 115}, {"time": 2151, "pitch": 84, "duration": 3, "velocity": 112}, {"time": 2157, "pitch": 84, "duration": 1, "velocity": 106}, {"time": 2160, "pitch": 84, "duration": 4, "velocity": 112}, {"time": 2166, "pitch": 82, "duration": 1, "velocity": 120}, {"time": 2169, "pitch": 84, "duration": 3, "velocity": 109}, {"time": 2175, "pitch": 82, "duration": 2, "velocity": 117}, {"time": 2178, "pitch": 79, "duration": 6, "velocity": 115}, {"time": 2187, "pitch": 79, "duration": 2, "velocity": 112}, {"time": 2190, "pitch": 81, "duration": 1, "velocity": 112}, {"time": 2193, "pitch": 82, "duration": 3, "velocity": 120}, {"time": 2199, "pitch": 82, "duration": 1, "velocity": 120}, {"time": 2202, "pitch": 82, "duration": 1, "velocity": 117}, {"time": 2205, "pitch": 82, "duration": 4, "velocity": 120}, {"time": 2211, "pitch": 84, "duration": 2, "velocity": 115}, {"time": 2214, "pitch": 82, "duration": 1, "velocity": 117}, {"time": 2217, "pitch": 81, "duration": 8, "velocity": 109}, {"time": 2226, "pitch": 74, "duration": 2, "velocity": 106}, {"time": 2229, "pitch": 77, "duration": 4, "velocity": 112}, {"time": 2235, "pitch": 74, "duration": 8, "velocity": 115}, {"time": 2247, "pitch": 79, "duration": 34, "velocity": 112}, {"time": 2289, "pitch": 74, "duration": 2, "velocity": 115}, {"time": 2292, "pitch": 79, "duration": 1, "velocity": 115}, {"time": 2295, "pitch": 79, "duration": 1, "velocity": 109}, {"time": 2298, "pitch": 79, "duration": 9, "velocity": 112}, {"time": 2313, "pitch": 74, "duration": 2, "velocity": 115}, {"time": 2316, "pitch": 81, "duration": 1, "velocity": 115}, {"time": 2319, "pitch": 81, "duration": 1, "velocity": 106}, {"time": 2322, "pitch": 81, "duration": 6, "velocity": 115}, {"time": 2331, "pitch": 79, "duration": 2, "velocity": 115}, {"time": 2334, "pitch": 81, "duration": 1, "velocity": 109}, {"time": 2337, "pitch": 82, "duration": 4, "velocity": 120}, {"time": 2343, "pitch": 82, "duration": 1, "velocity": 113}, {"time": 2346, "pitch": 82, "duration": 1, "velocity": 110}, {"time": 2349, "pitch": 82, "duration": 4, "velocity": 120}, {"time": 2355, "pitch": 79, "duration": 1, "velocity": 104}, {"time": 2358, "pitch": 79, "duration": 4, "velocity": 112}, {"time": 2364, "pitch": 77, "duration": 10, "velocity": 115}, {"time": 2379, "pitch": 74, "duration": 1, "velocity": 112}, {"time": 2382, "pitch": 77, "duration": 1, "velocity": 112}, {"time": 2385, "pitch": 72, "duration": 3, "velocity": 115}, {"time": 2391, "pitch": 72, "duration": 3, "velocity": 112}, {"time": 2397, "pitch": 72, "duration": 1, "velocity": 106}, {"time": 2400, "pitch": 72, "duration": 4, "velocity": 112}, {"time": 2406, "pitch": 70, "duration": 1, "velocity": 120}, {"time": 2409, "pitch": 72, "duration": 3, "velocity": 109}, {"time": 2415, "pitch": 74, "duration": 7, "velocity": 112}, {"time": 2427, "pitch": 74, "duration": 2, "velocity": 112}, {"time": 2430, "pitch": 77, "duration": 1, "velocity": 112}, {"time": 2433, "pitch": 79, "duration": 4, "velocity": 112}, {"time": 2439, "pitch": 79, "duration": 1, "velocity": 109}, {"time": 2442, "pitch": 79, "duration": 1, "velocity": 106}, {"time": 2445, "pitch": 79, "duration": 4, "velocity": 112}, {"time": 2451, "pitch": 82, "duration": 4, "velocity": 120}, {"time": 2457, "pitch": 79, "duration": 2, "velocity": 109}, {"time": 2463, "pitch": 81, "duration": 15, "velocity": 112}, {"time": 2481, "pitch": 74, "duration": 2, "velocity": 115}, {"time": 2484, "pitch": 79, "duration": 1, "velocity": 115}, {"time": 2487, "pitch": 79, "duration": 1, "velocity": 109}, {"time": 2490, "pitch": 79, "duration": 9, "velocity": 112}, {"time": 2505, "pitch": 74, "duration": 2, "velocity": 115}, {"time": 2508, "pitch": 81, "duration": 1, "velocity": 115}, {"time": 2511, "pitch": 81, "duration": 1, "velocity": 106}, {"time": 2514, "pitch": 81, "duration": 6, "velocity": 115}, {"time": 2523, "pitch": 79, "duration": 2, "velocity": 115}, {"time": 2526, "pitch": 81, "duration": 1, "velocity": 109}, {"time": 2529, "pitch": 82, "duration": 4, "velocity": 120}, {"time": 2535, "pitch": 82, "duration": 1, "velocity": 113}, {"time": 2538, "pitch": 82, "duration": 1, "velocity": 110}, {"time": 2541, "pitch": 82, "duration": 4, "velocity": 120}, {"time": 2547, "pitch": 84, "duration": 2, "velocity": 118}, {"time": 2550, "pitch": 82, "duration": 1, "velocity": 120}, {"time": 2553, "pitch": 86, "duration": 12, "velocity": 115}, {"time": 2571, "pitch": 86, "duration": 1, "velocity": 112}, {"time": 2574, "pitch": 86, "duration": 1, "velocity": 112}, {"time": 2577, "pitch": 84, "duration": 3, "velocity": 115}, {"time": 2583, "pitch": 84, "duration": 3, "velocity": 112}, {"time": 2589, "pitch": 84, "duration": 1, "velocity": 106}, {"time": 2592, "pitch": 84, "duration": 4, "velocity": 112}, {"time": 2598, "pitch": 82, "duration": 1, "velocity": 120}, {"time": 2601, "pitch": 84, "duration": 3, "velocity": 109}, {"time": 2607, "pitch": 82, "duration": 2, "velocity": 117}, {"time": 2610, "pitch": 79, "duration": 6, "velocity": 115}, {"time": 2619, "pitch": 79, "duration": 2, "velocity": 112}, {"time": 2622, "pitch": 81, "duration": 1, "velocity": 112}, {"time": 2625, "pitch": 82, "duration": 3, "velocity": 120}, {"time": 2631, "pitch": 82, "duration": 1, "velocity": 120}, {"time": 2634, "pitch": 82, "duration": 1, "velocity": 117}, {"time": 2637, "pitch": 82, "duration": 4, "velocity": 120}, {"time": 2643, "pitch": 84, "duration": 2, "velocity": 115}, {"time": 2646, "pitch": 82, "duration": 1, "velocity": 117}, {"time": 2649, "pitch": 81, "duration": 8, "velocity": 109}, {"time": 2658, "pitch": 74, "duration": 2, "velocity": 106}, {"time": 2661, "pitch": 77, "duration": 4, "velocity": 112}, {"time": 2667, "pitch": 74, "duration": 8, "velocity": 115}, {"time": 2679, "pitch": 79, "duration": 34, "velocity": 112}, {"time": 2714, "pitch": 79, "duration": 3, "velocity": 109}, {"time": 2718, "pitch": 81, "duration": 1, "velocity": 104}, {"time": 2721, "pitch": 82, "duration": 5, "velocity": 117}, {"time": 2727, "pitch": 82, "duration": 2, "velocity": 110}, {"time": 2731, "pitch": 82, "duration": 1, "velocity": 113}, {"time": 2734, "pitch": 82, "duration": 6, "velocity": 117}, {"time": 2741, "pitch": 84, "duration": 3, "velocity": 104}, {"time": 2745, "pitch": 82, "duration": 2, "velocity": 113}, {"time": 2749, "pitch": 81, "duration": 25, "velocity": 106}, {"time": 2776, "pitch": 74, "duration": 2, "velocity": 101}, {"time": 2779, "pitch": 74, "duration": 2, "velocity": 101}, {"time": 2782, "pitch": 74, "duration": 5, "velocity": 109}, {"time": 2787, "pitch": 82, "duration": 6, "velocity": 112}, {"time": 2793, "pitch": 79, "duration": 35, "velocity": 104}]}, {"program": 0, "is_drum": false, "name": "PIANO", "notes": [{"time": 33, "pitch": 43, "duration": 18, "velocity": 82}, {"time": 33, "pitch": 55, "duration": 9, "velocity": 69}, {"time": 33, "pitch": 58, "duration": 9, "velocity": 72}, {"time": 33, "pitch": 62, "duration": 9, "velocity": 96}, {"time": 39, "pitch": 50, "duration": 8, "velocity": 38}, {"time": 45, "pitch": 58, "duration": 5, "velocity": 96}, {"time": 45, "pitch": 62, "duration": 6, "velocity": 101}, {"time": 57, "pitch": 58, "duration": 6, "velocity": 99}, {"time": 57, "pitch": 62, "duration": 7, "velocity": 101}, {"time": 69, "pitch": 58, "duration": 6, "velocity": 117}, {"time": 69, "pitch": 62, "duration": 7, "velocity": 106}, {"time": 75, "pitch": 55, "duration": 4, "velocity": 101}, {"time": 81, "pitch": 46, "duration": 20, "velocity": 65}, {"time": 81, "pitch": 58, "duration": 9, "velocity": 104}, {"time": 81, "pitch": 62, "duration": 9, "velocity": 99}, {"time": 93, "pitch": 58, "duration": 6, "velocity": 110}, {"time": 93, "pitch": 62, "duration": 5, "velocity": 101}, {"time": 105, "pitch": 58, "duration": 7, "velocity": 86}, {"time": 105, "pitch": 62, "duration": 6, "velocity": 80}, {"time": 111, "pitch": 53, "duration": 7, "velocity": 89}, {"time": 117, "pitch": 46, "duration": 4, "velocity": 91}, {"time": 117, "pitch": 58, "duration": 6, "velocity": 107}, {"time": 117, "pitch": 62, "duration": 7, "velocity": 104}, {"time": 123, "pitch": 53, "duration": 1, "velocity": 85}, {"time": 129, "pitch": 48, "duration": 42, "velocity": 94}, {"time": 129, "pitch": 60, "duration": 9, "velocity": 89}, {"time": 129, "pitch": 63, "duration": 9, "velocity": 93}, {"time": 141, "pitch": 60, "duration": 7, "velocity": 99}, {"time": 141, "pitch": 63, "duration": 7, "velocity": 101}, {"time": 153, "pitch": 60, "duration": 9, "velocity": 91}, {"time": 153, "pitch": 63, "duration": 9, "velocity": 88}, {"time": 165, "pitch": 60, "duration": 6, "velocity": 106}, {"time": 165, "pitch": 63, "duration": 6, "velocity": 110}, {"time": 171, "pitch": 55, "duration": 1, "velocity": 78}, {"time": 177, "pitch": 50, "duration": 21, "velocity": 101}, {"time": 177, "pitch": 57, "duration": 14, "velocity": 96}, {"time": 177, "pitch": 62, "duration": 11, "velocity": 96}, {"time": 189, "pitch": 62, "duration": 6, "velocity": 96}, {"time": 189, "pitch": 66, "duration": 7, "velocity": 99}, {"time": 201, "pitch": 57, "duration": 3, "velocity": 96}, {"time": 201, "pitch": 62, "duration": 6, "velocity": 104}, {"time": 201, "pitch": 66, "duration": 6, "velocity": 93}, {"time": 225, "pitch": 43, "duration": 25, "velocity": 99}, {"time": 225, "pitch": 55, "duration": 6, "velocity": 64}, {"time": 225, "pitch": 58, "duration": 7, "velocity": 93}, {"time": 225, "pitch": 62, "duration": 7, "velocity": 101}, {"time": 231, "pitch": 50, "duration": 7, "velocity": 38}, {"time": 237, "pitch": 58, "duration": 4, "velocity": 96}, {"time": 237, "pitch": 62, "duration": 5, "velocity": 99}, {"time": 249, "pitch": 58, "duration": 6, "velocity": 96}, {"time": 249, "pitch": 62, "duration": 5, "velocity": 89}, {"time": 261, "pitch": 58, "duration": 3, "velocity": 120}, {"time": 261, "pitch": 62, "duration": 4, "velocity": 104}, {"time": 267, "pitch": 57, "duration": 4, "velocity": 96}, {"time": 273, "pitch": 46, "duration": 17, "velocity": 79}, {"time": 273, "pitch": 53, "duration": 10, "velocity": 87}, {"time": 273, "pitch": 58, "duration": 7, "velocity": 74}, {"time": 285, "pitch": 58, "duration": 4, "velocity": 107}, {"time": 285, "pitch": 62, "duration": 3, "velocity": 99}, {"time": 297, "pitch": 58, "duration": 7, "velocity": 93}, {"time": 297, "pitch": 62, "duration": 7, "velocity": 99}, {"time": 309, "pitch": 58, "duration": 2, "velocity": 113}, {"time": 309, "pitch": 62, "duration": 3, "velocity": 96}, {"time": 321, "pitch": 39, "duration": 12, "velocity": 83}, {"time": 321, "pitch": 58, "duration": 7, "velocity": 88}, {"time": 321, "pitch": 63, "duration": 7, "velocity": 93}, {"time": 333, "pitch": 58, "duration": 5, "velocity": 113}, {"time": 333, "pitch": 63, "duration": 5, "velocity": 107}, {"time": 345, "pitch": 58, "duration": 7, "velocity": 107}, {"time": 345, "pitch": 63, "duration": 8, "velocity": 99}, {"time": 351, "pitch": 55, "duration": 7, "velocity": 87}, {"time": 357, "pitch": 58, "duration": 5, "velocity": 117}, {"time": 357, "pitch": 63, "duration": 6, "velocity": 107}, {"time": 369, "pitch": 45, "duration": 16, "velocity": 104}, {"time": 369, "pitch": 57, "duration": 8, "velocity": 99}, {"time": 369, "pitch": 60, "duration": 8, "velocity": 96}, {"time": 381, "pitch": 57, "duration": 4, "velocity": 104}, {"time": 381, "pitch": 60, "duration": 4, "velocity": 101}, {"time": 393, "pitch": 50, "duration": 13, "velocity": 96}, {"time": 393, "pitch": 57, "duration": 3, "velocity": 96}, {"time": 393, "pitch": 62, "duration": 7, "velocity": 101}, {"time": 399, "pitch": 57, "duration": 3, "velocity": 69}, {"time": 405, "pitch": 57, "duration": 2, "velocity": 101}, {"time": 405, "pitch": 62, "duration": 5, "velocity": 109}, {"time": 405, "pitch": 66, "duration": 5, "velocity": 99}, {"time": 417, "pitch": 43, "duration": 38, "velocity": 99}, {"time": 417, "pitch": 55, "duration": 5, "velocity": 89}, {"time": 417, "pitch": 58, "duration": 6, "velocity": 83}, {"time": 417, "pitch": 62, "duration": 7, "velocity": 101}, {"time": 429, "pitch": 58, "duration": 4, "velocity": 110}, {"time": 429, "pitch": 62, "duration": 3, "velocity": 106}, {"time": 441, "pitch": 58, "duration": 5, "velocity": 88}, {"time": 441, "pitch": 62, "duration": 5, "velocity": 96}, {"time": 447, "pitch": 50, "duration": 8, "velocity": 40}, {"time": 453, "pitch": 58, "duration": 3, "velocity": 117}, {"time": 453, "pitch": 62, "duration": 4, "velocity": 109}, {"time": 459, "pitch": 45, "duration": 2, "velocity": 94}, {"time": 465, "pitch": 46, "duration": 39, "velocity": 113}, {"time": 465, "pitch": 53, "duration": 10, "velocity": 94}, {"time": 465, "pitch": 58, "duration": 9, "velocity": 88}, {"time": 465, "pitch": 62, "duration": 8, "velocity": 99}, {"time": 477, "pitch": 58, "duration": 2, "velocity": 113}, {"time": 477, "pitch": 62, "duration": 3, "velocity": 101}, {"time": 489, "pitch": 58, "duration": 5, "velocity": 104}, {"time": 489, "pitch": 62, "duration": 6, "velocity": 101}, {"time": 501, "pitch": 58, "duration": 2, "velocity": 120}, {"time": 501, "pitch": 62, "duration": 3, "velocity": 104}, {"time": 513, "pitch": 39, "duration": 12, "velocity": 104}, {"time": 513, "pitch": 55, "duration": 8, "velocity": 78}, {"time": 513, "pitch": 58, "duration": 9, "velocity": 93}, {"time": 513, "pitch": 63, "duration": 9, "velocity": 101}, {"time": 525, "pitch": 58, "duration": 2, "velocity": 117}, {"time": 525, "pitch": 63, "duration": 2, "velocity": 117}, {"time": 537, "pitch": 41, "duration": 13, "velocity": 101}, {"time": 537, "pitch": 57, "duration": 3, "velocity": 89}, {"time": 537, "pitch": 60, "duration": 6, "velocity": 96}, {"time": 537, "pitch": 65, "duration": 7, "velocity": 101}, {"time": 543, "pitch": 57, "duration": 4, "velocity": 80}, {"time": 549, "pitch": 57, "duration": 3, "velocity": 109}, {"time": 549, "pitch": 60, "duration": 3, "velocity": 106}, {"time": 549, "pitch": 65, "duration": 4, "velocity": 104}, {"time": 561, "pitch": 45, "duration": 10, "velocity": 106}, {"time": 561, "pitch": 57, "duration": 9, "velocity": 104}, {"time": 561, "pitch": 60, "duration": 7, "velocity": 101}, {"time": 573, "pitch": 50, "duration": 6, "velocity": 106}, {"time": 573, "pitch": 57, "duration": 6, "velocity": 101}, {"time": 573, "pitch": 62, "duration": 5, "velocity": 106}, {"time": 573, "pitch": 66, "duration": 5, "velocity": 96}, {"time": 585, "pitch": 43, "duration": 18, "velocity": 106}, {"time": 585, "pitch": 55, "duration": 8, "velocity": 89}, {"time": 585, "pitch": 58, "duration": 7, "velocity": 96}, {"time": 585, "pitch": 62, "duration": 6, "velocity": 82}, {"time": 591, "pitch": 50, "duration": 8, "velocity": 69}, {"time": 597, "pitch": 58, "duration": 11, "velocity": 117}, {"time": 597, "pitch": 62, "duration": 12, "velocity": 112}, {"time": 597, "pitch": 67, "duration": 12, "velocity": 104}, {"time": 603, "pitch": 55, "duration": 5, "velocity": 104}, {"time": 609, "pitch": 46, "duration": 39, "velocity": 68}, {"time": 609, "pitch": 58, "duration": 10, "velocity": 91}, {"time": 609, "pitch": 62, "duration": 8, "velocity": 106}, {"time": 615, "pitch": 53, "duration": 22, "velocity": 94}, {"time": 621, "pitch": 62, "duration": 8, "velocity": 106}, {"time": 621, "pitch": 65, "duration": 7, "velocity": 109}, {"time": 627, "pitch": 58, "duration": 5, "velocity": 65}, {"time": 633, "pitch": 58, "duration": 9, "velocity": 91}, {"time": 633, "pitch": 62, "duration": 8, "velocity": 112}, {"time": 633, "pitch": 65, "duration": 8, "velocity": 104}, {"time": 639, "pitch": 53, "duration": 8, "velocity": 85}, {"time": 645, "pitch": 58, "duration": 2, "velocity": 110}, {"time": 645, "pitch": 62, "duration": 2, "velocity": 106}, {"time": 645, "pitch": 65, "duration": 4, "velocity": 106}, {"time": 657, "pitch": 39, "duration": 9, "velocity": 110}, {"time": 657, "pitch": 55, "duration": 7, "velocity": 99}, {"time": 657, "pitch": 58, "duration": 6, "velocity": 93}, {"time": 657, "pitch": 63, "duration": 7, "velocity": 93}, {"time": 663, "pitch": 46, "duration": 5, "velocity": 37}, {"time": 669, "pitch": 58, "duration": 6, "velocity": 113}, {"time": 669, "pitch": 63, "duration": 8, "velocity": 110}, {"time": 675, "pitch": 55, "duration": 2, "velocity": 94}, {"time": 681, "pitch": 50, "duration": 13, "velocity": 101}, {"time": 681, "pitch": 57, "duration": 3, "velocity": 85}, {"time": 681, "pitch": 62, "duration": 8, "velocity": 99}, {"time": 681, "pitch": 65, "duration": 8, "velocity": 101}, {"time": 687, "pitch": 57, "duration": 3, "velocity": 99}, {"time": 693, "pitch": 57, "duration": 3, "velocity": 109}, {"time": 693, "pitch": 62, "duration": 2, "velocity": 109}, {"time": 693, "pitch": 65, "duration": 3, "velocity": 104}, {"time": 705, "pitch": 39, "duration": 13, "velocity": 99}, {"time": 705, "pitch": 55, "duration": 4, "velocity": 94}, {"time": 705, "pitch": 58, "duration": 7, "velocity": 83}, {"time": 705, "pitch": 63, "duration": 9, "velocity": 101}, {"time": 711, "pitch": 55, "duration": 5, "velocity": 91}, {"time": 717, "pitch": 58, "duration": 6, "velocity": 120}, {"time": 717, "pitch": 63, "duration": 9, "velocity": 110}, {"time": 723, "pitch": 55, "duration": 2, "velocity": 91}, {"time": 729, "pitch": 45, "duration": 17, "velocity": 101}, {"time": 729, "pitch": 57, "duration": 3, "velocity": 101}, {"time": 729, "pitch": 60, "duration": 9, "velocity": 99}, {"time": 729, "pitch": 63, "duration": 8, "velocity": 99}, {"time": 735, "pitch": 57, "duration": 3, "velocity": 96}, {"time": 741, "pitch": 57, "duration": 4, "velocity": 112}, {"time": 741, "pitch": 60, "duration": 4, "velocity": 109}, {"time": 741, "pitch": 63, "duration": 4, "velocity": 113}, {"time": 753, "pitch": 38, "duration": 1, "velocity": 106}, {"time": 753, "pitch": 57, "duration": 5, "velocity": 104}, {"time": 753, "pitch": 62, "duration": 5, "velocity": 106}, {"time": 753, "pitch": 66, "duration": 7, "velocity": 99}, {"time": 759, "pitch": 50, "duration": 15, "velocity": 104}, {"time": 765, "pitch": 57, "duration": 9, "velocity": 118}, {"time": 768, "pitch": 60, "duration": 5, "velocity": 112}, {"time": 771, "pitch": 66, "duration": 3, "velocity": 120}, {"time": 774, "pitch": 69, "duration": 1, "velocity": 104}, {"time": 777, "pitch": 50, "duration": 6, "velocity": 109}, {"time": 777, "pitch": 57, "duration": 7, "velocity": 109}, {"time": 777, "pitch": 62, "duration": 6, "velocity": 99}, {"time": 777, "pitch": 66, "duration": 5, "velocity": 117}, {"time": 777, "pitch": 69, "duration": 5, "velocity": 112}, {"time": 786, "pitch": 62, "duration": 4, "velocity": 78}, {"time": 789, "pitch": 50, "duration": 5, "velocity": 106}, {"time": 789, "pitch": 74, "duration": 3, "velocity": 112}, {"time": 792, "pitch": 62, "duration": 3, "velocity": 112}, {"time": 795, "pitch": 48, "duration": 4, "velocity": 101}, {"time": 795, "pitch": 72, "duration": 4, "velocity": 109}, {"time": 798, "pitch": 62, "duration": 2, "velocity": 99}, {"time": 801, "pitch": 43, "duration": 16, "velocity": 101}, {"time": 801, "pitch": 55, "duration": 6, "velocity": 96}, {"time": 801, "pitch": 58, "duration": 7, "velocity": 107}, {"time": 801, "pitch": 62, "duration": 7, "velocity": 104}, {"time": 807, "pitch": 50, "duration": 9, "velocity": 80}, {"time": 813, "pitch": 58, "duration": 6, "velocity": 120}, {"time": 813, "pitch": 62, "duration": 7, "velocity": 106}, {"time": 819, "pitch": 55, "duration": 2, "velocity": 106}, {"time": 825, "pitch": 50, "duration": 14, "velocity": 104}, {"time": 825, "pitch": 57, "duration": 3, "velocity": 104}, {"time": 825, "pitch": 62, "duration": 7, "velocity": 106}, {"time": 825, "pitch": 65, "duration": 8, "velocity": 106}, {"time": 831, "pitch": 57, "duration": 2, "velocity": 85}, {"time": 837, "pitch": 57, "duration": 3, "velocity": 109}, {"time": 837, "pitch": 62, "duration": 2, "velocity": 109}, {"time": 837, "pitch": 65, "duration": 4, "velocity": 106}, {"time": 849, "pitch": 39, "duration": 12, "velocity": 86}, {"time": 849, "pitch": 58, "duration": 8, "velocity": 96}, {"time": 849, "pitch": 63, "duration": 8, "velocity": 96}, {"time": 855, "pitch": 55, "duration": 3, "velocity": 89}, {"time": 861, "pitch": 55, "duration": 2, "velocity": 106}, {"time": 861, "pitch": 58, "duration": 5, "velocity": 120}, {"time": 861, "pitch": 63, "duration": 6, "velocity": 110}, {"time": 873, "pitch": 50, "duration": 16, "velocity": 99}, {"time": 873, "pitch": 57, "duration": 3, "velocity": 87}, {"time": 873, "pitch": 62, "duration": 7, "velocity": 104}, {"time": 873, "pitch": 65, "duration": 8, "velocity": 106}, {"time": 879, "pitch": 57, "duration": 4, "velocity": 94}, {"time": 885, "pitch": 57, "duration": 2, "velocity": 112}, {"time": 885, "pitch": 62, "duration": 3, "velocity": 112}, {"time": 885, "pitch": 65, "duration": 7, "velocity": 109}, {"time": 891, "pitch": 57, "duration": 1, "velocity": 94}, {"time": 897, "pitch": 48, "duration": 15, "velocity": 96}, {"time": 897, "pitch": 55, "duration": 3, "velocity": 96}, {"time": 897, "pitch": 60, "duration": 7, "velocity": 94}, {"time": 897, "pitch": 63, "duration": 8, "velocity": 96}, {"time": 903, "pitch": 55, "duration": 3, "velocity": 76}, {"time": 909, "pitch": 55, "duration": 2, "velocity": 104}, {"time": 909, "pitch": 60, "duration": 7, "velocity": 106}, {"time": 909, "pitch": 63, "duration": 7, "velocity": 107}, {"time": 915, "pitch": 55, "duration": 2, "velocity": 94}, {"time": 921, "pitch": 50, "duration": 14, "velocity": 99}, {"time": 921, "pitch": 57, "duration": 3, "velocity": 104}, {"time": 921, "pitch": 62, "duration": 7, "velocity": 106}, {"time": 921, "pitch": 65, "duration": 8, "velocity": 104}, {"time": 927, "pitch": 57, "duration": 4, "velocity": 87}, {"time": 933, "pitch": 57, "duration": 6, "velocity": 109}, {"time": 933, "pitch": 62, "duration": 3, "velocity": 112}, {"time": 933, "pitch": 65, "duration": 10, "velocity": 106}, {"time": 945, "pitch": 39, "duration": 12, "velocity": 68}, {"time": 945, "pitch": 58, "duration": 8, "velocity": 101}, {"time": 945, "pitch": 63, "duration": 9, "velocity": 101}, {"time": 951, "pitch": 55, "duration": 3, "velocity": 80}, {"time": 957, "pitch": 58, "duration": 6, "velocity": 117}, {"time": 957, "pitch": 63, "duration": 7, "velocity": 117}, {"time": 963, "pitch": 55, "duration": 2, "velocity": 101}, {"time": 969, "pitch": 38, "duration": 1, "velocity": 109}, {"time": 969, "pitch": 57, "duration": 3, "velocity": 109}, {"time": 969, "pitch": 62, "duration": 4, "velocity": 112}, {"time": 969, "pitch": 66, "duration": 5, "velocity": 117}, {"time": 975, "pitch": 50, "duration": 1, "velocity": 101}, {"time": 978, "pitch": 50, "duration": 14, "velocity": 56}, {"time": 978, "pitch": 57, "duration": 13, "velocity": 115}, {"time": 981, "pitch": 62, "duration": 4, "velocity": 121}, {"time": 984, "pitch": 66, "duration": 1, "velocity": 123}, {"time": 987, "pitch": 62, "duration": 2, "velocity": 112}, {"time": 987, "pitch": 66, "duration": 3, "velocity": 120}, {"time": 987, "pitch": 69, "duration": 4, "velocity": 109}, {"time": 990, "pitch": 74, "duration": 2, "velocity": 104}, {"time": 993, "pitch": 43, "duration": 16, "velocity": 101}, {"time": 993, "pitch": 55, "duration": 6, "velocity": 96}, {"time": 993, "pitch": 58, "duration": 7, "velocity": 107}, {"time": 993, "pitch": 62, "duration": 7, "velocity": 104}, {"time": 999, "pitch": 50, "duration": 9, "velocity": 80}, {"time": 1005, "pitch": 58, "duration": 6, "velocity": 120}, {"time": 1005, "pitch": 62, "duration": 7, "velocity": 106}, {"time": 1011, "pitch": 55, "duration": 2, "velocity": 106}, {"time": 1017, "pitch": 50, "duration": 14, "velocity": 104}, {"time": 1017, "pitch": 57, "duration": 3, "velocity": 104}, {"time": 1017, "pitch": 62, "duration": 7, "velocity": 106}, {"time": 1017, "pitch": 65, "duration": 8, "velocity": 106}, {"time": 1023, "pitch": 57, "duration": 2, "velocity": 85}, {"time": 1029, "pitch": 57, "duration": 3, "velocity": 109}, {"time": 1029, "pitch": 62, "duration": 2, "velocity": 109}, {"time": 1029, "pitch": 65, "duration": 4, "velocity": 106}, {"time": 1041, "pitch": 39, "duration": 12, "velocity": 86}, {"time": 1041, "pitch": 58, "duration": 8, "velocity": 96}, {"time": 1041, "pitch": 63, "duration": 8, "velocity": 96}, {"time": 1047, "pitch": 55, "duration": 3, "velocity": 89}, {"time": 1053, "pitch": 55, "duration": 2, "velocity": 106}, {"time": 1053, "pitch": 58, "duration": 5, "velocity": 120}, {"time": 1053, "pitch": 63, "duration": 6, "velocity": 110}, {"time": 1065, "pitch": 50, "duration": 16, "velocity": 99}, {"time": 1065, "pitch": 57, "duration": 3, "velocity": 87}, {"time": 1065, "pitch": 62, "duration": 7, "velocity": 104}, {"time": 1065, "pitch": 65, "duration": 8, "velocity": 106}, {"time": 1071, "pitch": 57, "duration": 4, "velocity": 94}, {"time": 1077, "pitch": 57, "duration": 2, "velocity": 112}, {"time": 1077, "pitch": 62, "duration": 3, "velocity": 112}, {"time": 1077, "pitch": 65, "duration": 7, "velocity": 109}, {"time": 1083, "pitch": 57, "duration": 1, "velocity": 94}, {"time": 1089, "pitch": 48, "duration": 15, "velocity": 96}, {"time": 1089, "pitch": 55, "duration": 3, "velocity": 96}, {"time": 1089, "pitch": 60, "duration": 7, "velocity": 94}, {"time": 1089, "pitch": 63, "duration": 8, "velocity": 96}, {"time": 1095, "pitch": 55, "duration": 3, "velocity": 76}, {"time": 1101, "pitch": 55, "duration": 2, "velocity": 104}, {"time": 1101, "pitch": 60, "duration": 7, "velocity": 106}, {"time": 1101, "pitch": 63, "duration": 7, "velocity": 107}, {"time": 1107, "pitch": 55, "duration": 2, "velocity": 94}, {"time": 1113, "pitch": 43, "duration": 19, "velocity": 106}, {"time": 1113, "pitch": 58, "duration": 7, "velocity": 99}, {"time": 1113, "pitch": 62, "duration": 8, "velocity": 106}, {"time": 1119, "pitch": 50, "duration": 7, "velocity": 85}, {"time": 1125, "pitch": 58, "duration": 12, "velocity": 113}, {"time": 1125, "pitch": 62, "duration": 12, "velocity": 112}, {"time": 1125, "pitch": 67, "duration": 12, "velocity": 101}, {"time": 1131, "pitch": 55, "duration": 6, "velocity": 109}, {"time": 1137, "pitch": 39, "duration": 12, "velocity": 68}, {"time": 1137, "pitch": 58, "duration": 8, "velocity": 101}, {"time": 1137, "pitch": 63, "duration": 9, "velocity": 101}, {"time": 1143, "pitch": 55, "duration": 3, "velocity": 80}, {"time": 1149, "pitch": 58, "duration": 6, "velocity": 117}, {"time": 1149, "pitch": 63, "duration": 7, "velocity": 117}, {"time": 1155, "pitch": 55, "duration": 2, "velocity": 101}, {"time": 1161, "pitch": 38, "duration": 1, "velocity": 106}, {"time": 1161, "pitch": 57, "duration": 5, "velocity": 96}, {"time": 1161, "pitch": 62, "duration": 5, "velocity": 101}, {"time": 1161, "pitch": 66, "duration": 7, "velocity": 93}, {"time": 1161, "pitch": 72, "duration": 7, "velocity": 93}, {"time": 1167, "pitch": 50, "duration": 10, "velocity": 96}, {"time": 1170, "pitch": 57, "duration": 6, "velocity": 96}, {"time": 1173, "pitch": 62, "duration": 11, "velocity": 115}, {"time": 1173, "pitch": 72, "duration": 10, "velocity": 104}, {"time": 1173, "pitch": 66, "duration": 9, "velocity": 117}, {"time": 1185, "pitch": 43, "duration": 20, "velocity": 104}, {"time": 1185, "pitch": 62, "duration": 7, "velocity": 104}, {"time": 1185, "pitch": 67, "duration": 7, "velocity": 104}, {"time": 1191, "pitch": 50, "duration": 7, "velocity": 67}, {"time": 1197, "pitch": 62, "duration": 3, "velocity": 106}, {"time": 1197, "pitch": 67, "duration": 3, "velocity": 104}, {"time": 1197, "pitch": 70, "duration": 3, "velocity": 113}, {"time": 1209, "pitch": 43, "duration": 17, "velocity": 101}, {"time": 1209, "pitch": 55, "duration": 17, "velocity": 89}, {"time": 1209, "pitch": 58, "duration": 17, "velocity": 74}, {"time": 1209, "pitch": 62, "duration": 18, "velocity": 101}, {"time": 1233, "pitch": 39, "duration": 12, "velocity": 88}, {"time": 1233, "pitch": 55, "duration": 5, "velocity": 91}, {"time": 1233, "pitch": 58, "duration": 8, "velocity": 93}, {"time": 1233, "pitch": 63, "duration": 9, "velocity": 99}, {"time": 1245, "pitch": 58, "duration": 6, "velocity": 117}, {"time": 1245, "pitch": 63, "duration": 7, "velocity": 107}, {"time": 1251, "pitch": 55, "duration": 1, "velocity": 91}, {"time": 1257, "pitch": 41, "duration": 14, "velocity": 104}, {"time": 1257, "pitch": 57, "duration": 4, "velocity": 96}, {"time": 1257, "pitch": 60, "duration": 7, "velocity": 91}, {"time": 1263, "pitch": 57, "duration": 4, "velocity": 91}, {"time": 1269, "pitch": 60, "duration": 6, "velocity": 109}, {"time": 1269, "pitch": 65, "duration": 8, "velocity": 104}, {"time": 1275, "pitch": 57, "duration": 2, "velocity": 104}, {"time": 1281, "pitch": 50, "duration": 16, "velocity": 101}, {"time": 1281, "pitch": 57, "duration": 3, "velocity": 89}, {"time": 1281, "pitch": 62, "duration": 8, "velocity": 96}, {"time": 1287, "pitch": 57, "duration": 4, "velocity": 96}, {"time": 1293, "pitch": 57, "duration": 2, "velocity": 112}, {"time": 1293, "pitch": 62, "duration": 4, "velocity": 112}, {"time": 1293, "pitch": 65, "duration": 7, "velocity": 106}, {"time": 1305, "pitch": 43, "duration": 18, "velocity": 96}, {"time": 1305, "pitch": 58, "duration": 7, "velocity": 86}, {"time": 1305, "pitch": 62, "duration": 8, "velocity": 96}, {"time": 1311, "pitch": 50, "duration": 5, "velocity": 61}, {"time": 1317, "pitch": 58, "duration": 5, "velocity": 120}, {"time": 1317, "pitch": 62, "duration": 8, "velocity": 109}, {"time": 1317, "pitch": 67, "duration": 6, "velocity": 96}, {"time": 1320, "pitch": 50, "duration": 4, "velocity": 89}, {"time": 1323, "pitch": 55, "duration": 4, "velocity": 104}, {"time": 1329, "pitch": 39, "duration": 13, "velocity": 99}, {"time": 1329, "pitch": 55, "duration": 4, "velocity": 96}, {"time": 1329, "pitch": 58, "duration": 8, "velocity": 104}, {"time": 1335, "pitch": 46, "duration": 7, "velocity": 68}, {"time": 1341, "pitch": 58, "duration": 6, "velocity": 117}, {"time": 1341, "pitch": 63, "duration": 7, "velocity": 107}, {"time": 1347, "pitch": 55, "duration": 1, "velocity": 106}, {"time": 1353, "pitch": 38, "duration": 11, "velocity": 104}, {"time": 1353, "pitch": 57, "duration": 3, "velocity": 101}, {"time": 1353, "pitch": 62, "duration": 7, "velocity": 106}, {"time": 1353, "pitch": 65, "duration": 8, "velocity": 104}, {"time": 1359, "pitch": 57, "duration": 4, "velocity": 96}, {"time": 1365, "pitch": 57, "duration": 3, "velocity": 112}, {"time": 1365, "pitch": 62, "duration": 3, "velocity": 112}, {"time": 1365, "pitch": 65, "duration": 4, "velocity": 106}, {"time": 1377, "pitch": 48, "duration": 16, "velocity": 104}, {"time": 1377, "pitch": 55, "duration": 3, "velocity": 96}, {"time": 1377, "pitch": 60, "duration": 8, "velocity": 96}, {"time": 1377, "pitch": 63, "duration": 9, "velocity": 91}, {"time": 1383, "pitch": 55, "duration": 3, "velocity": 76}, {"time": 1389, "pitch": 55, "duration": 2, "velocity": 106}, {"time": 1389, "pitch": 60, "duration": 6, "velocity": 106}, {"time": 1389, "pitch": 63, "duration": 10, "velocity": 110}, {"time": 1395, "pitch": 55, "duration": 3, "velocity": 99}, {"time": 1398, "pitch": 60, "duration": 2, "velocity": 85}, {"time": 1401, "pitch": 44, "duration": 13, "velocity": 110}, {"time": 1401, "pitch": 56, "duration": 9, "velocity": 110}, {"time": 1401, "pitch": 60, "duration": 7, "velocity": 106}, {"time": 1401, "pitch": 63, "duration": 7, "velocity": 93}, {"time": 1407, "pitch": 51, "duration": 9, "velocity": 88}, {"time": 1413, "pitch": 56, "duration": 3, "velocity": 110}, {"time": 1413, "pitch": 60, "duration": 3, "velocity": 101}, {"time": 1413, "pitch": 63, "duration": 4, "velocity": 113}, {"time": 1419, "pitch": 44, "duration": 1, "velocity": 117}, {"time": 1425, "pitch": 41, "duration": 19, "velocity": 104}, {"time": 1425, "pitch": 57, "duration": 4, "velocity": 101}, {"time": 1425, "pitch": 60, "duration": 7, "velocity": 99}, {"time": 1425, "pitch": 65, "duration": 7, "velocity": 104}, {"time": 1431, "pitch": 57, "duration": 4, "velocity": 94}, {"time": 1437, "pitch": 57, "duration": 2, "velocity": 109}, {"time": 1437, "pitch": 65, "duration": 4, "velocity": 106}, {"time": 1440, "pitch": 60, "duration": 4, "velocity": 101}, {"time": 1443, "pitch": 57, "duration": 3, "velocity": 94}, {"time": 1446, "pitch": 65, "duration": 24, "velocity": 104}, {"time": 1449, "pitch": 41, "duration": 21, "velocity": 96}, {"time": 1449, "pitch": 57, "duration": 21, "velocity": 101}, {"time": 1449, "pitch": 60, "duration": 21, "velocity": 89}, {"time": 1473, "pitch": 43, "duration": 38, "velocity": 99}, {"time": 1473, "pitch": 55, "duration": 5, "velocity": 89}, {"time": 1473, "pitch": 58, "duration": 6, "velocity": 83}, {"time": 1473, "pitch": 62, "duration": 7, "velocity": 101}, {"time": 1485, "pitch": 58, "duration": 4, "velocity": 110}, {"time": 1485, "pitch": 62, "duration": 3, "velocity": 106}, {"time": 1497, "pitch": 58, "duration": 5, "velocity": 88}, {"time": 1497, "pitch": 62, "duration": 5, "velocity": 96}, {"time": 1503, "pitch": 50, "duration": 8, "velocity": 40}, {"time": 1509, "pitch": 58, "duration": 3, "velocity": 117}, {"time": 1509, "pitch": 62, "duration": 4, "velocity": 109}, {"time": 1515, "pitch": 45, "duration": 2, "velocity": 94}, {"time": 1521, "pitch": 46, "duration": 39, "velocity": 113}, {"time": 1521, "pitch": 53, "duration": 10, "velocity": 94}, {"time": 1521, "pitch": 58, "duration": 9, "velocity": 88}, {"time": 1521, "pitch": 62, "duration": 8, "velocity": 99}, {"time": 1533, "pitch": 58, "duration": 2, "velocity": 113}, {"time": 1533, "pitch": 62, "duration": 3, "velocity": 101}, {"time": 1545, "pitch": 58, "duration": 5, "velocity": 104}, {"time": 1545, "pitch": 62, "duration": 6, "velocity": 101}, {"time": 1557, "pitch": 58, "duration": 2, "velocity": 120}, {"time": 1557, "pitch": 62, "duration": 3, "velocity": 104}, {"time": 1569, "pitch": 39, "duration": 12, "velocity": 104}, {"time": 1569, "pitch": 55, "duration": 8, "velocity": 78}, {"time": 1569, "pitch": 58, "duration": 9, "velocity": 93}, {"time": 1569, "pitch": 63, "duration": 9, "velocity": 101}, {"time": 1581, "pitch": 58, "duration": 2, "velocity": 117}, {"time": 1581, "pitch": 63, "duration": 2, "velocity": 117}, {"time": 1593, "pitch": 41, "duration": 13, "velocity": 101}, {"time": 1593, "pitch": 57, "duration": 3, "velocity": 89}, {"time": 1593, "pitch": 60, "duration": 6, "velocity": 96}, {"time": 1593, "pitch": 65, "duration": 7, "velocity": 101}, {"time": 1599, "pitch": 57, "duration": 4, "velocity": 80}, {"time": 1605, "pitch": 57, "duration": 3, "velocity": 109}, {"time": 1605, "pitch": 60, "duration": 3, "velocity": 106}, {"time": 1605, "pitch": 65, "duration": 4, "velocity": 104}, {"time": 1617, "pitch": 45, "duration": 10, "velocity": 106}, {"time": 1617, "pitch": 57, "duration": 9, "velocity": 104}, {"time": 1617, "pitch": 60, "duration": 7, "velocity": 101}, {"time": 1629, "pitch": 50, "duration": 6, "velocity": 106}, {"time": 1629, "pitch": 57, "duration": 6, "velocity": 101}, {"time": 1629, "pitch": 62, "duration": 5, "velocity": 106}, {"time": 1629, "pitch": 66, "duration": 5, "velocity": 96}, {"time": 1641, "pitch": 43, "duration": 18, "velocity": 106}, {"time": 1641, "pitch": 55, "duration": 8, "velocity": 89}, {"time": 1641, "pitch": 58, "duration": 7, "velocity": 96}, {"time": 1641, "pitch": 62, "duration": 6, "velocity": 82}, {"time": 1647, "pitch": 50, "duration": 8, "velocity": 69}, {"time": 1653, "pitch": 58, "duration": 11, "velocity": 117}, {"time": 1653, "pitch": 62, "duration": 12, "velocity": 112}, {"time": 1653, "pitch": 67, "duration": 12, "velocity": 104}, {"time": 1659, "pitch": 55, "duration": 5, "velocity": 104}, {"time": 1665, "pitch": 46, "duration": 39, "velocity": 68}, {"time": 1665, "pitch": 58, "duration": 10, "velocity": 91}, {"time": 1665, "pitch": 62, "duration": 8, "velocity": 106}, {"time": 1671, "pitch": 53, "duration": 22, "velocity": 94}, {"time": 1677, "pitch": 62, "duration": 8, "velocity": 106}, {"time": 1677, "pitch": 65, "duration": 7, "velocity": 109}, {"time": 1683, "pitch": 58, "duration": 5, "velocity": 65}, {"time": 1689, "pitch": 58, "duration": 9, "velocity": 91}, {"time": 1689, "pitch": 62, "duration": 8, "velocity": 112}, {"time": 1689, "pitch": 65, "duration": 8, "velocity": 104}, {"time": 1695, "pitch": 53, "duration": 8, "velocity": 85}, {"time": 1701, "pitch": 58, "duration": 2, "velocity": 110}, {"time": 1701, "pitch": 62, "duration": 2, "velocity": 106}, {"time": 1701, "pitch": 65, "duration": 4, "velocity": 106}, {"time": 1713, "pitch": 39, "duration": 9, "velocity": 110}, {"time": 1713, "pitch": 55, "duration": 7, "velocity": 99}, {"time": 1713, "pitch": 58, "duration": 6, "velocity": 93}, {"time": 1713, "pitch": 63, "duration": 7, "velocity": 93}, {"time": 1719, "pitch": 46, "duration": 5, "velocity": 37}, {"time": 1725, "pitch": 58, "duration": 6, "velocity": 113}, {"time": 1725, "pitch": 63, "duration": 8, "velocity": 110}, {"time": 1731, "pitch": 55, "duration": 2, "velocity": 94}, {"time": 1737, "pitch": 50, "duration": 13, "velocity": 101}, {"time": 1737, "pitch": 57, "duration": 3, "velocity": 85}, {"time": 1737, "pitch": 62, "duration": 8, "velocity": 99}, {"time": 1737, "pitch": 65, "duration": 8, "velocity": 101}, {"time": 1743, "pitch": 57, "duration": 3, "velocity": 99}, {"time": 1749, "pitch": 57, "duration": 3, "velocity": 109}, {"time": 1749, "pitch": 62, "duration": 2, "velocity": 109}, {"time": 1749, "pitch": 65, "duration": 3, "velocity": 104}, {"time": 1761, "pitch": 39, "duration": 13, "velocity": 99}, {"time": 1761, "pitch": 55, "duration": 4, "velocity": 94}, {"time": 1761, "pitch": 58, "duration": 7, "velocity": 83}, {"time": 1761, "pitch": 63, "duration": 9, "velocity": 101}, {"time": 1767, "pitch": 55, "duration": 5, "velocity": 91}, {"time": 1773, "pitch": 58, "duration": 6, "velocity": 120}, {"time": 1773, "pitch": 63, "duration": 9, "velocity": 110}, {"time": 1779, "pitch": 55, "duration": 2, "velocity": 91}, {"time": 1785, "pitch": 45, "duration": 17, "velocity": 101}, {"time": 1785, "pitch": 57, "duration": 3, "velocity": 101}, {"time": 1785, "pitch": 60, "duration": 9, "velocity": 99}, {"time": 1785, "pitch": 63, "duration": 8, "velocity": 99}, {"time": 1791, "pitch": 57, "duration": 3, "velocity": 96}, {"time": 1797, "pitch": 57, "duration": 4, "velocity": 112}, {"time": 1797, "pitch": 60, "duration": 4, "velocity": 109}, {"time": 1797, "pitch": 63, "duration": 4, "velocity": 113}, {"time": 1809, "pitch": 38, "duration": 1, "velocity": 106}, {"time": 1809, "pitch": 57, "duration": 5, "velocity": 104}, {"time": 1809, "pitch": 62, "duration": 5, "velocity": 106}, {"time": 1809, "pitch": 66, "duration": 7, "velocity": 99}, {"time": 1815, "pitch": 50, "duration": 15, "velocity": 104}, {"time": 1821, "pitch": 57, "duration": 9, "velocity": 118}, {"time": 1824, "pitch": 60, "duration": 5, "velocity": 112}, {"time": 1827, "pitch": 66, "duration": 3, "velocity": 120}, {"time": 1830, "pitch": 69, "duration": 1, "velocity": 104}, {"time": 1833, "pitch": 50, "duration": 6, "velocity": 109}, {"time": 1833, "pitch": 57, "duration": 7, "velocity": 109}, {"time": 1833, "pitch": 62, "duration": 6, "velocity": 99}, {"time": 1833, "pitch": 66, "duration": 5, "velocity": 117}, {"time": 1833, "pitch": 69, "duration": 5, "velocity": 112}, {"time": 1842, "pitch": 62, "duration": 4, "velocity": 78}, {"time": 1845, "pitch": 50, "duration": 5, "velocity": 106}, {"time": 1845, "pitch": 74, "duration": 3, "velocity": 112}, {"time": 1848, "pitch": 62, "duration": 3, "velocity": 112}, {"time": 1851, "pitch": 48, "duration": 4, "velocity": 101}, {"time": 1851, "pitch": 72, "duration": 4, "velocity": 109}, {"time": 1854, "pitch": 62, "duration": 2, "velocity": 99}, {"time": 1857, "pitch": 43, "duration": 16, "velocity": 101}, {"time": 1857, "pitch": 55, "duration": 6, "velocity": 96}, {"time": 1857, "pitch": 58, "duration": 7, "velocity": 107}, {"time": 1857, "pitch": 62, "duration": 7, "velocity": 104}, {"time": 1863, "pitch": 50, "duration": 9, "velocity": 80}, {"time": 1869, "pitch": 58, "duration": 6, "velocity": 120}, {"time": 1869, "pitch": 62, "duration": 7, "velocity": 106}, {"time": 1875, "pitch": 55, "duration": 2, "velocity": 106}, {"time": 1881, "pitch": 50, "duration": 14, "velocity": 104}, {"time": 1881, "pitch": 57, "duration": 3, "velocity": 104}, {"time": 1881, "pitch": 62, "duration": 7, "velocity": 106}, {"time": 1881, "pitch": 65, "duration": 8, "velocity": 106}, {"time": 1887, "pitch": 57, "duration": 2, "velocity": 85}, {"time": 1893, "pitch": 57, "duration": 3, "velocity": 109}, {"time": 1893, "pitch": 62, "duration": 2, "velocity": 109}, {"time": 1893, "pitch": 65, "duration": 4, "velocity": 106}, {"time": 1905, "pitch": 39, "duration": 12, "velocity": 86}, {"time": 1905, "pitch": 58, "duration": 8, "velocity": 96}, {"time": 1905, "pitch": 63, "duration": 8, "velocity": 96}, {"time": 1911, "pitch": 55, "duration": 3, "velocity": 89}, {"time": 1917, "pitch": 55, "duration": 2, "velocity": 106}, {"time": 1917, "pitch": 58, "duration": 5, "velocity": 120}, {"time": 1917, "pitch": 63, "duration": 6, "velocity": 110}, {"time": 1929, "pitch": 50, "duration": 16, "velocity": 99}, {"time": 1929, "pitch": 57, "duration": 3, "velocity": 87}, {"time": 1929, "pitch": 62, "duration": 7, "velocity": 104}, {"time": 1929, "pitch": 65, "duration": 8, "velocity": 106}, {"time": 1935, "pitch": 57, "duration": 4, "velocity": 94}, {"time": 1941, "pitch": 57, "duration": 2, "velocity": 112}, {"time": 1941, "pitch": 62, "duration": 3, "velocity": 112}, {"time": 1941, "pitch": 65, "duration": 7, "velocity": 109}, {"time": 1947, "pitch": 57, "duration": 1, "velocity": 94}, {"time": 1953, "pitch": 48, "duration": 15, "velocity": 96}, {"time": 1953, "pitch": 55, "duration": 3, "velocity": 96}, {"time": 1953, "pitch": 60, "duration": 7, "velocity": 94}, {"time": 1953, "pitch": 63, "duration": 8, "velocity": 96}, {"time": 1959, "pitch": 55, "duration": 3, "velocity": 76}, {"time": 1965, "pitch": 55, "duration": 2, "velocity": 104}, {"time": 1965, "pitch": 60, "duration": 7, "velocity": 106}, {"time": 1965, "pitch": 63, "duration": 7, "velocity": 107}, {"time": 1971, "pitch": 55, "duration": 2, "velocity": 94}, {"time": 1977, "pitch": 50, "duration": 14, "velocity": 99}, {"time": 1977, "pitch": 57, "duration": 3, "velocity": 104}, {"time": 1977, "pitch": 62, "duration": 7, "velocity": 106}, {"time": 1977, "pitch": 65, "duration": 8, "velocity": 104}, {"time": 1983, "pitch": 57, "duration": 4, "velocity": 87}, {"time": 1989, "pitch": 57, "duration": 6, "velocity": 109}, {"time": 1989, "pitch": 62, "duration": 3, "velocity": 112}, {"time": 1989, "pitch": 65, "duration": 10, "velocity": 106}, {"time": 2001, "pitch": 39, "duration": 12, "velocity": 68}, {"time": 2001, "pitch": 58, "duration": 8, "velocity": 101}, {"time": 2001, "pitch": 63, "duration": 9, "velocity": 101}, {"time": 2007, "pitch": 55, "duration": 3, "velocity": 80}, {"time": 2013, "pitch": 58, "duration": 6, "velocity": 117}, {"time": 2013, "pitch": 63, "duration": 7, "velocity": 117}, {"time": 2019, "pitch": 55, "duration": 2, "velocity": 101}, {"time": 2025, "pitch": 38, "duration": 1, "velocity": 109}, {"time": 2025, "pitch": 57, "duration": 3, "velocity": 109}, {"time": 2025, "pitch": 62, "duration": 4, "velocity": 112}, {"time": 2025, "pitch": 66, "duration": 5, "velocity": 117}, {"time": 2031, "pitch": 50, "duration": 1, "velocity": 101}, {"time": 2034, "pitch": 50, "duration": 14, "velocity": 56}, {"time": 2034, "pitch": 57, "duration": 13, "velocity": 115}, {"time": 2037, "pitch": 62, "duration": 4, "velocity": 121}, {"time": 2040, "pitch": 66, "duration": 1, "velocity": 123}, {"time": 2043, "pitch": 62, "duration": 2, "velocity": 112}, {"time": 2043, "pitch": 66, "duration": 3, "velocity": 120}, {"time": 2043, "pitch": 69, "duration": 4, "velocity": 109}, {"time": 2046, "pitch": 74, "duration": 2, "velocity": 104}, {"time": 2049, "pitch": 43, "duration": 16, "velocity": 101}, {"time": 2049, "pitch": 55, "duration": 6, "velocity": 96}, {"time": 2049, "pitch": 58, "duration": 7, "velocity": 107}, {"time": 2049, "pitch": 62, "duration": 7, "velocity": 104}, {"time": 2055, "pitch": 50, "duration": 9, "velocity": 80}, {"time": 2061, "pitch": 58, "duration": 6, "velocity": 120}, {"time": 2061, "pitch": 62, "duration": 7, "velocity": 106}, {"time": 2067, "pitch": 55, "duration": 2, "velocity": 106}, {"time": 2073, "pitch": 50, "duration": 14, "velocity": 104}, {"time": 2073, "pitch": 57, "duration": 3, "velocity": 104}, {"time": 2073, "pitch": 62, "duration": 7, "velocity": 106}, {"time": 2073, "pitch": 65, "duration": 8, "velocity": 106}, {"time": 2079, "pitch": 57, "duration": 2, "velocity": 85}, {"time": 2085, "pitch": 57, "duration": 3, "velocity": 109}, {"time": 2085, "pitch": 62, "duration": 2, "velocity": 109}, {"time": 2085, "pitch": 65, "duration": 4, "velocity": 106}, {"time": 2097, "pitch": 39, "duration": 12, "velocity": 86}, {"time": 2097, "pitch": 58, "duration": 8, "velocity": 96}, {"time": 2097, "pitch": 63, "duration": 8, "velocity": 96}, {"time": 2103, "pitch": 55, "duration": 3, "velocity": 89}, {"time": 2109, "pitch": 55, "duration": 2, "velocity": 106}, {"time": 2109, "pitch": 58, "duration": 5, "velocity": 120}, {"time": 2109, "pitch": 63, "duration": 6, "velocity": 110}, {"time": 2121, "pitch": 50, "duration": 16, "velocity": 99}, {"time": 2121, "pitch": 57, "duration": 3, "velocity": 87}, {"time": 2121, "pitch": 62, "duration": 7, "velocity": 104}, {"time": 2121, "pitch": 65, "duration": 8, "velocity": 106}, {"time": 2127, "pitch": 57, "duration": 4, "velocity": 94}, {"time": 2133, "pitch": 57, "duration": 2, "velocity": 112}, {"time": 2133, "pitch": 62, "duration": 3, "velocity": 112}, {"time": 2133, "pitch": 65, "duration": 7, "velocity": 109}, {"time": 2139, "pitch": 57, "duration": 1, "velocity": 94}, {"time": 2145, "pitch": 48, "duration": 15, "velocity": 96}, {"time": 2145, "pitch": 55, "duration": 3, "velocity": 96}, {"time": 2145, "pitch": 60, "duration": 7, "velocity": 94}, {"time": 2145, "pitch": 63, "duration": 8, "velocity": 96}, {"time": 2151, "pitch": 55, "duration": 3, "velocity": 76}, {"time": 2157, "pitch": 55, "duration": 2, "velocity": 104}, {"time": 2157, "pitch": 60, "duration": 7, "velocity": 106}, {"time": 2157, "pitch": 63, "duration": 7, "velocity": 107}, {"time": 2163, "pitch": 55, "duration": 2, "velocity": 94}, {"time": 2169, "pitch": 43, "duration": 19, "velocity": 106}, {"time": 2169, "pitch": 58, "duration": 7, "velocity": 99}, {"time": 2169, "pitch": 62, "duration": 8, "velocity": 106}, {"time": 2175, "pitch": 50, "duration": 7, "velocity": 85}, {"time": 2181, "pitch": 58, "duration": 12, "velocity": 113}, {"time": 2181, "pitch": 62, "duration": 12, "velocity": 112}, {"time": 2181, "pitch": 67, "duration": 12, "velocity": 101}, {"time": 2187, "pitch": 55, "duration": 6, "velocity": 109}, {"time": 2193, "pitch": 39, "duration": 12, "velocity": 68}, {"time": 2193, "pitch": 58, "duration": 8, "velocity": 101}, {"time": 2193, "pitch": 63, "duration": 9, "velocity": 101}, {"time": 2199, "pitch": 55, "duration": 3, "velocity": 80}, {"time": 2205, "pitch": 58, "duration": 6, "velocity": 117}, {"time": 2205, "pitch": 63, "duration": 7, "velocity": 117}, {"time": 2211, "pitch": 55, "duration": 2, "velocity": 101}, {"time": 2217, "pitch": 38, "duration": 1, "velocity": 106}, {"time": 2217, "pitch": 57, "duration": 5, "velocity": 96}, {"time": 2217, "pitch": 62, "duration": 5, "velocity": 101}, {"time": 2217, "pitch": 66, "duration": 7, "velocity": 93}, {"time": 2223, "pitch": 50, "duration": 10, "velocity": 96}, {"time": 2226, "pitch": 57, "duration": 6, "velocity": 96}, {"time": 2229, "pitch": 62, "duration": 6, "velocity": 115}, {"time": 2232, "pitch": 66, "duration": 3, "velocity": 117}, {"time": 2235, "pitch": 69, "duration": 4, "velocity": 104}, {"time": 2241, "pitch": 43, "duration": 20, "velocity": 104}, {"time": 2241, "pitch": 62, "duration": 7, "velocity": 104}, {"time": 2241, "pitch": 67, "duration": 7, "velocity": 104}, {"time": 2247, "pitch": 50, "duration": 7, "velocity": 67}, {"time": 2253, "pitch": 62, "duration": 3, "velocity": 106}, {"time": 2253, "pitch": 67, "duration": 3, "velocity": 104}, {"time": 2253, "pitch": 70, "duration": 3, "velocity": 113}, {"time": 2265, "pitch": 43, "duration": 17, "velocity": 101}, {"time": 2265, "pitch": 55, "duration": 17, "velocity": 89}, {"time": 2265, "pitch": 58, "duration": 17, "velocity": 74}, {"time": 2265, "pitch": 62, "duration": 18, "velocity": 101}, {"time": 2289, "pitch": 43, "duration": 16, "velocity": 101}, {"time": 2289, "pitch": 55, "duration": 6, "velocity": 96}, {"time": 2289, "pitch": 58, "duration": 7, "velocity": 107}, {"time": 2289, "pitch": 62, "duration": 7, "velocity": 104}, {"time": 2295, "pitch": 50, "duration": 9, "velocity": 80}, {"time": 2301, "pitch": 58, "duration": 6, "velocity": 120}, {"time": 2301, "pitch": 62, "duration": 7, "velocity": 106}, {"time": 2307, "pitch": 55, "duration": 2, "velocity": 106}, {"time": 2313, "pitch": 50, "duration": 14, "velocity": 104}, {"time": 2313, "pitch": 57, "duration": 3, "velocity": 104}, {"time": 2313, "pitch": 62, "duration": 7, "velocity": 106}, {"time": 2313, "pitch": 65, "duration": 8, "velocity": 106}, {"time": 2319, "pitch": 57, "duration": 2, "velocity": 85}, {"time": 2325, "pitch": 57, "duration": 3, "velocity": 109}, {"time": 2325, "pitch": 62, "duration": 2, "velocity": 109}, {"time": 2325, "pitch": 65, "duration": 4, "velocity": 106}, {"time": 2337, "pitch": 39, "duration": 12, "velocity": 86}, {"time": 2337, "pitch": 58, "duration": 8, "velocity": 96}, {"time": 2337, "pitch": 63, "duration": 8, "velocity": 96}, {"time": 2343, "pitch": 55, "duration": 3, "velocity": 89}, {"time": 2349, "pitch": 55, "duration": 2, "velocity": 106}, {"time": 2349, "pitch": 58, "duration": 5, "velocity": 120}, {"time": 2349, "pitch": 63, "duration": 6, "velocity": 110}, {"time": 2361, "pitch": 50, "duration": 16, "velocity": 99}, {"time": 2361, "pitch": 57, "duration": 3, "velocity": 87}, {"time": 2361, "pitch": 62, "duration": 7, "velocity": 104}, {"time": 2361, "pitch": 65, "duration": 8, "velocity": 106}, {"time": 2367, "pitch": 57, "duration": 4, "velocity": 94}, {"time": 2373, "pitch": 57, "duration": 2, "velocity": 112}, {"time": 2373, "pitch": 62, "duration": 3, "velocity": 112}, {"time": 2373, "pitch": 65, "duration": 7, "velocity": 109}, {"time": 2379, "pitch": 57, "duration": 1, "velocity": 94}, {"time": 2385, "pitch": 48, "duration": 15, "velocity": 96}, {"time": 2385, "pitch": 55, "duration": 3, "velocity": 96}, {"time": 2385, "pitch": 60, "duration": 7, "velocity": 94}, {"time": 2385, "pitch": 63, "duration": 8, "velocity": 96}, {"time": 2391, "pitch": 55, "duration": 3, "velocity": 76}, {"time": 2397, "pitch": 55, "duration": 2, "velocity": 104}, {"time": 2397, "pitch": 60, "duration": 7, "velocity": 106}, {"time": 2397, "pitch": 63, "duration": 7, "velocity": 107}, {"time": 2403, "pitch": 55, "duration": 2, "velocity": 94}, {"time": 2409, "pitch": 50, "duration": 14, "velocity": 99}, {"time": 2409, "pitch": 57, "duration": 3, "velocity": 104}, {"time": 2409, "pitch": 62, "duration": 7, "velocity": 106}, {"time": 2409, "pitch": 65, "duration": 8, "velocity": 104}, {"time": 2415, "pitch": 57, "duration": 4, "velocity": 87}, {"time": 2421, "pitch": 57, "duration": 6, "velocity": 109}, {"time": 2421, "pitch": 62, "duration": 3, "velocity": 112}, {"time": 2421, "pitch": 65, "duration": 10, "velocity": 106}, {"time": 2433, "pitch": 39, "duration": 12, "velocity": 68}, {"time": 2433, "pitch": 58, "duration": 8, "velocity": 101}, {"time": 2433, "pitch": 63, "duration": 9, "velocity": 101}, {"time": 2439, "pitch": 55, "duration": 3, "velocity": 80}, {"time": 2445, "pitch": 58, "duration": 6, "velocity": 117}, {"time": 2445, "pitch": 63, "duration": 7, "velocity": 117}, {"time": 2451, "pitch": 55, "duration": 2, "velocity": 101}, {"time": 2457, "pitch": 38, "duration": 1, "velocity": 109}, {"time": 2457, "pitch": 57, "duration": 3, "velocity": 109}, {"time": 2457, "pitch": 62, "duration": 4, "velocity": 112}, {"time": 2457, "pitch": 66, "duration": 5, "velocity": 117}, {"time": 2463, "pitch": 50, "duration": 1, "velocity": 101}, {"time": 2466, "pitch": 50, "duration": 14, "velocity": 56}, {"time": 2466, "pitch": 57, "duration": 13, "velocity": 115}, {"time": 2469, "pitch": 62, "duration": 4, "velocity": 121}, {"time": 2472, "pitch": 66, "duration": 1, "velocity": 123}, {"time": 2475, "pitch": 62, "duration": 2, "velocity": 112}, {"time": 2475, "pitch": 66, "duration": 3, "velocity": 120}, {"time": 2475, "pitch": 69, "duration": 4, "velocity": 109}, {"time": 2478, "pitch": 74, "duration": 2, "velocity": 104}, {"time": 2481, "pitch": 43, "duration": 16, "velocity": 101}, {"time": 2481, "pitch": 55, "duration": 6, "velocity": 96}, {"time": 2481, "pitch": 58, "duration": 7, "velocity": 107}, {"time": 2481, "pitch": 62, "duration": 7, "velocity": 104}, {"time": 2487, "pitch": 50, "duration": 9, "velocity": 80}, {"time": 2493, "pitch": 58, "duration": 6, "velocity": 120}, {"time": 2493, "pitch": 62, "duration": 7, "velocity": 106}, {"time": 2499, "pitch": 55, "duration": 2, "velocity": 106}, {"time": 2505, "pitch": 50, "duration": 14, "velocity": 104}, {"time": 2505, "pitch": 57, "duration": 3, "velocity": 104}, {"time": 2505, "pitch": 62, "duration": 7, "velocity": 106}, {"time": 2505, "pitch": 65, "duration": 8, "velocity": 106}, {"time": 2511, "pitch": 57, "duration": 2, "velocity": 85}, {"time": 2517, "pitch": 57, "duration": 3, "velocity": 109}, {"time": 2517, "pitch": 62, "duration": 2, "velocity": 109}, {"time": 2517, "pitch": 65, "duration": 4, "velocity": 106}, {"time": 2529, "pitch": 39, "duration": 12, "velocity": 86}, {"time": 2529, "pitch": 58, "duration": 8, "velocity": 96}, {"time": 2529, "pitch": 63, "duration": 8, "velocity": 96}, {"time": 2535, "pitch": 55, "duration": 3, "velocity": 89}, {"time": 2541, "pitch": 55, "duration": 2, "velocity": 106}, {"time": 2541, "pitch": 58, "duration": 5, "velocity": 120}, {"time": 2541, "pitch": 63, "duration": 6, "velocity": 110}, {"time": 2553, "pitch": 50, "duration": 16, "velocity": 99}, {"time": 2553, "pitch": 57, "duration": 3, "velocity": 87}, {"time": 2553, "pitch": 62, "duration": 7, "velocity": 104}, {"time": 2553, "pitch": 65, "duration": 8, "velocity": 106}, {"time": 2559, "pitch": 57, "duration": 4, "velocity": 94}, {"time": 2565, "pitch": 57, "duration": 2, "velocity": 112}, {"time": 2565, "pitch": 62, "duration": 3, "velocity": 112}, {"time": 2565, "pitch": 65, "duration": 7, "velocity": 109}, {"time": 2571, "pitch": 57, "duration": 1, "velocity": 94}, {"time": 2577, "pitch": 48, "duration": 15, "velocity": 96}, {"time": 2577, "pitch": 55, "duration": 3, "velocity": 96}, {"time": 2577, "pitch": 60, "duration": 7, "velocity": 94}, {"time": 2577, "pitch": 63, "duration": 8, "velocity": 96}, {"time": 2583, "pitch": 55, "duration": 3, "velocity": 76}, {"time": 2589, "pitch": 55, "duration": 2, "velocity": 104}, {"time": 2589, "pitch": 60, "duration": 7, "velocity": 106}, {"time": 2589, "pitch": 63, "duration": 7, "velocity": 107}, {"time": 2595, "pitch": 55, "duration": 2, "velocity": 94}, {"time": 2601, "pitch": 43, "duration": 19, "velocity": 106}, {"time": 2601, "pitch": 58, "duration": 7, "velocity": 99}, {"time": 2601, "pitch": 62, "duration": 8, "velocity": 106}, {"time": 2607, "pitch": 50, "duration": 7, "velocity": 85}, {"time": 2613, "pitch": 58, "duration": 12, "velocity": 113}, {"time": 2613, "pitch": 62, "duration": 12, "velocity": 112}, {"time": 2613, "pitch": 67, "duration": 12, "velocity": 101}, {"time": 2619, "pitch": 55, "duration": 6, "velocity": 109}, {"time": 2625, "pitch": 39, "duration": 12, "velocity": 68}, {"time": 2625, "pitch": 58, "duration": 8, "velocity": 101}, {"time": 2625, "pitch": 63, "duration": 9, "velocity": 101}, {"time": 2631, "pitch": 55, "duration": 3, "velocity": 80}, {"time": 2637, "pitch": 58, "duration": 6, "velocity": 117}, {"time": 2637, "pitch": 63, "duration": 7, "velocity": 117}, {"time": 2643, "pitch": 55, "duration": 2, "velocity": 101}, {"time": 2649, "pitch": 38, "duration": 1, "velocity": 106}, {"time": 2649, "pitch": 57, "duration": 5, "velocity": 96}, {"time": 2649, "pitch": 62, "duration": 5, "velocity": 101}, {"time": 2649, "pitch": 66, "duration": 7, "velocity": 93}, {"time": 2655, "pitch": 50, "duration": 10, "velocity": 96}, {"time": 2658, "pitch": 57, "duration": 6, "velocity": 96}, {"time": 2661, "pitch": 62, "duration": 6, "velocity": 115}, {"time": 2664, "pitch": 66, "duration": 3, "velocity": 117}, {"time": 2667, "pitch": 69, "duration": 4, "velocity": 104}, {"time": 2673, "pitch": 43, "duration": 20, "velocity": 104}, {"time": 2673, "pitch": 62, "duration": 7, "velocity": 104}, {"time": 2673, "pitch": 67, "duration": 7, "velocity": 104}, {"time": 2679, "pitch": 50, "duration": 7, "velocity": 67}, {"time": 2685, "pitch": 62, "duration": 3, "velocity": 106}, {"time": 2685, "pitch": 67, "duration": 3, "velocity": 104}, {"time": 2685, "pitch": 70, "duration": 3, "velocity": 113}, {"time": 2697, "pitch": 43, "duration": 17, "velocity": 101}, {"time": 2697, "pitch": 55, "duration": 17, "velocity": 89}, {"time": 2697, "pitch": 58, "duration": 17, "velocity": 74}, {"time": 2697, "pitch": 62, "duration": 18, "velocity": 101}, {"time": 2719, "pitch": 55, "duration": 11, "velocity": 80}, {"time": 2720, "pitch": 58, "duration": 12, "velocity": 88}, {"time": 2720, "pitch": 39, "duration": 7, "velocity": 104}, {"time": 2721, "pitch": 63, "duration": 13, "velocity": 88}, {"time": 2746, "pitch": 57, "duration": 4, "velocity": 85}, {"time": 2747, "pitch": 62, "duration": 6, "velocity": 91}, {"time": 2748, "pitch": 38, "duration": 1, "velocity": 104}, {"time": 2749, "pitch": 65, "duration": 7, "velocity": 99}, {"time": 2754, "pitch": 50, "duration": 35, "velocity": 80}, {"time": 2758, "pitch": 57, "duration": 31, "velocity": 76}, {"time": 2760, "pitch": 60, "duration": 31, "velocity": 78}, {"time": 2764, "pitch": 65, "duration": 28, "velocity": 85}, {"time": 2768, "pitch": 69, "duration": 24, "velocity": 91}, {"time": 2793, "pitch": 43, "duration": 18, "velocity": 82}, {"time": 2793, "pitch": 55, "duration": 9, "velocity": 69}, {"time": 2793, "pitch": 58, "duration": 9, "velocity": 72}, {"time": 2793, "pitch": 62, "duration": 9, "velocity": 96}, {"time": 2799, "pitch": 50, "duration": 8, "velocity": 38}, {"time": 2805, "pitch": 58, "duration": 5, "velocity": 96}, {"time": 2805, "pitch": 62, "duration": 6, "velocity": 101}, {"time": 2817, "pitch": 58, "duration": 6, "velocity": 99}, {"time": 2817, "pitch": 62, "duration": 7, "velocity": 101}, {"time": 2829, "pitch": 58, "duration": 6, "velocity": 117}, {"time": 2829, "pitch": 62, "duration": 7, "velocity": 106}, {"time": 2835, "pitch": 55, "duration": 4, "velocity": 101}, {"time": 2841, "pitch": 46, "duration": 20, "velocity": 65}, {"time": 2841, "pitch": 58, "duration": 9, "velocity": 104}, {"time": 2841, "pitch": 62, "duration": 9, "velocity": 99}, {"time": 2853, "pitch": 58, "duration": 6, "velocity": 110}, {"time": 2853, "pitch": 62, "duration": 5, "velocity": 101}, {"time": 2865, "pitch": 58, "duration": 7, "velocity": 86}, {"time": 2865, "pitch": 62, "duration": 6, "velocity": 80}, {"time": 2871, "pitch": 53, "duration": 7, "velocity": 89}, {"time": 2877, "pitch": 46, "duration": 4, "velocity": 91}, {"time": 2877, "pitch": 58, "duration": 6, "velocity": 107}, {"time": 2877, "pitch": 62, "duration": 7, "velocity": 104}, {"time": 2883, "pitch": 53, "duration": 1, "velocity": 85}, {"time": 2889, "pitch": 48, "duration": 42, "velocity": 94}, {"time": 2889, "pitch": 60, "duration": 9, "velocity": 89}, {"time": 2889, "pitch": 63, "duration": 9, "velocity": 93}, {"time": 2901, "pitch": 60, "duration": 7, "velocity": 99}, {"time": 2901, "pitch": 63, "duration": 7, "velocity": 101}, {"time": 2913, "pitch": 60, "duration": 9, "velocity": 91}, {"time": 2913, "pitch": 63, "duration": 9, "velocity": 88}, {"time": 2925, "pitch": 60, "duration": 6, "velocity": 106}, {"time": 2925, "pitch": 63, "duration": 6, "velocity": 110}, {"time": 2931, "pitch": 55, "duration": 1, "velocity": 78}, {"time": 2937, "pitch": 38, "duration": 1, "velocity": 87}, {"time": 2937, "pitch": 65, "duration": 8, "velocity": 94}, {"time": 2937, "pitch": 57, "duration": 5, "velocity": 94}, {"time": 2943, "pitch": 50, "duration": 32, "velocity": 94}, {"time": 2949, "pitch": 65, "duration": 8, "velocity": 82}, {"time": 2949, "pitch": 62, "duration": 9, "velocity": 82}, {"time": 2954, "pitch": 57, "duration": 7, "velocity": 74}, {"time": 2961, "pitch": 65, "duration": 7, "velocity": 94}, {"time": 2961, "pitch": 69, "duration": 10, "velocity": 104}, {"time": 2961, "pitch": 62, "duration": 8, "velocity": 94}, {"time": 2967, "pitch": 57, "duration": 8, "velocity": 99}, {"time": 2973, "pitch": 65, "duration": 11, "velocity": 109}, {"time": 2979, "pitch": 62, "duration": 7, "velocity": 94}, {"time": 2985, "pitch": 43, "duration": 27, "velocity": 101}, {"time": 2989, "pitch": 50, "duration": 20, "velocity": 74}, {"time": 2993, "pitch": 55, "duration": 5, "velocity": 55}, {"time": 2996, "pitch": 57, "duration": 5, "velocity": 76}, {"time": 3000, "pitch": 58, "duration": 5, "velocity": 49}, {"time": 3005, "pitch": 62, "duration": 4, "velocity": 104}, {"time": 3009, "pitch": 55, "duration": 7, "velocity": 94}, {"time": 3014, "pitch": 74, "duration": 7, "velocity": 48}, {"time": 3015, "pitch": 79, "duration": 15, "velocity": 66}], "annotations": [{"time": 35, "annotation": {"number": 64, "value": 127}, "group": "control_change"}, {"time": 79, "annotation": {"number": 64, "value": 0}, "group": "control_change"}, {"time": 86, "annotation": {"number": 64, "value": 127}, "group": "control_change"}, {"time": 115, "annotation": {"number": 64, "value": 0}, "group": "control_change"}, {"time": 118, "annotation": {"number": 64, "value": 127}, "group": "control_change"}, {"time": 128, "annotation": {"number": 64, "value": 0}, "group": "control_change"}, {"time": 135, "annotation": {"number": 64, "value": 127}, "group": "control_change"}, {"time": 164, "annotation": {"number": 64, "value": 0}, "group": "control_change"}, {"time": 166, "annotation": {"number": 64, "value": 127}, "group": "control_change"}, {"time": 176, "annotation": {"number": 64, "value": 0}, "group": "control_change"}, {"time": 190, "annotation": {"number": 64, "value": 127}, "group": "control_change"}, {"time": 221, "annotation": {"number": 64, "value": 0}, "group": "control_change"}, {"time": 230, "annotation": {"number": 64, "value": 127}, "group": "control_change"}, {"time": 271, "annotation": {"number": 64, "value": 0}, "group": "control_change"}, {"time": 278, "annotation": {"number": 64, "value": 127}, "group": "control_change"}, {"time": 320, "annotation": {"number": 64, "value": 0}, "group": "control_change"}, {"time": 323, "annotation": {"number": 64, "value": 127}, "group": "control_change"}, {"time": 366, "annotation": {"number": 64, "value": 0}, "group": "control_change"}, {"time": 371, "annotation": {"number": 64, "value": 127}, "group": "control_change"}, {"time": 392, "annotation": {"number": 64, "value": 0}, "group": "control_change"}, {"time": 395, "annotation": {"number": 64, "value": 127}, "group": "control_change"}, {"time": 416, "annotation": {"number": 64, "value": 0}, "group": "control_change"}, {"time": 422, "annotation": {"number": 64, "value": 127}, "group": "control_change"}, {"time": 464, "annotation": {"number": 64, "value": 0}, "group": "control_change"}, {"time": 472, "annotation": {"number": 64, "value": 127}, "group": "control_change"}, {"time": 512, "annotation": {"number": 64, "value": 0}, "group": "control_change"}, {"time": 518, "annotation": {"number": 64, "value": 127}, "group": "control_change"}, {"time": 536, "annotation": {"number": 64, "value": 0}, "group": "control_change"}, {"time": 540, "annotation": {"number": 64, "value": 127}, "group": "control_change"}, {"time": 560, "annotation": {"number": 64, "value": 0}, "group": "control_change"}, {"time": 564, "annotation": {"number": 64, "value": 127}, "group": "control_change"}, {"time": 571, "annotation": {"number": 64, "value": 0}, "group": "control_change"}, {"time": 576, "annotation": {"number": 64, "value": 127}, "group": "control_change"}, {"time": 583, "annotation": {"number": 64, "value": 0}, "group": "control_change"}, {"time": 590, "annotation": {"number": 64, "value": 127}, "group": "control_change"}, {"time": 608, "annotation": {"number": 64, "value": 0}, "group": "control_change"}, {"time": 614, "annotation": {"number": 64, "value": 127}, "group": "control_change"}, {"time": 635, "annotation": {"number": 64, "value": 0}, "group": "control_change"}, {"time": 639, "annotation": {"number": 64, "value": 127}, "group": "control_change"}, {"time": 656, "annotation": {"number": 64, "value": 0}, "group": "control_change"}, {"time": 660, "annotation": {"number": 64, "value": 127}, "group": "control_change"}, {"time": 680, "annotation": {"number": 64, "value": 0}, "group": "control_change"}, {"time": 686, "annotation": {"number": 64, "value": 127}, "group": "control_change"}, {"time": 704, "annotation": {"number": 64, "value": 0}, "group": "control_change"}, {"time": 709, "annotation": {"number": 64, "value": 127}, "group": "control_change"}, {"time": 728, "annotation": {"number": 64, "value": 0}, "group": "control_change"}, {"time": 734, "annotation": {"number": 64, "value": 127}, "group": "control_change"}, {"time": 751, "annotation": {"number": 64, "value": 0}, "group": "control_change"}, {"time": 754, "annotation": {"number": 64, "value": 127}, "group": "control_change"}, {"time": 777, "annotation": {"number": 64, "value": 0}, "group": "control_change"}, {"time": 781, "annotation": {"number": 64, "value": 127}, "group": "control_change"}, {"time": 793, "annotation": {"number": 64, "value": 0}, "group": "control_change"}, {"time": 795, "annotation": {"number": 64, "value": 127}, "group": "control_change"}, {"time": 803, "annotation": {"number": 64, "value": 127}, "group": "control_change"}, {"time": 824, "annotation": {"number": 64, "value": 0}, "group": "control_change"}, {"time": 828, "annotation": {"number": 64, "value": 127}, "group": "control_change"}, {"time": 848, "annotation": {"number": 64, "value": 0}, "group": "control_change"}, {"time": 853, "annotation": {"number": 64, "value": 127}, "group": "control_change"}, {"time": 872, "annotation": {"number": 64, "value": 0}, "group": "control_change"}, {"time": 875, "annotation": {"number": 64, "value": 127}, "group": "control_change"}, {"time": 896, "annotation": {"number": 64, "value": 0}, "group": "control_change"}, {"time": 902, "annotation": {"number": 64, "value": 127}, "group": "control_change"}, {"time": 920, "annotation": {"number": 64, "value": 0}, "group": "control_change"}, {"time": 926, "annotation": {"number": 64, "value": 127}, "group": "control_change"}, {"time": 944, "annotation": {"number": 64, "value": 0}, "group": "control_change"}, {"time": 948, "annotation": {"number": 64, "value": 127}, "group": "control_change"}, {"time": 968, "annotation": {"number": 64, "value": 0}, "group": "control_change"}, {"time": 969, "annotation": {"number": 64, "value": 127}, "group": "control_change"}, {"time": 992, "annotation": {"number": 64, "value": 0}, "group": "control_change"}, {"time": 995, "annotation": {"number": 64, "value": 127}, "group": "control_change"}, {"time": 1016, "annotation": {"number": 64, "value": 0}, "group": "control_change"}, {"time": 1020, "annotation": {"number": 64, "value": 127}, "group": "control_change"}, {"time": 1040, "annotation": {"number": 64, "value": 0}, "group": "control_change"}, {"time": 1045, "annotation": {"number": 64, "value": 127}, "group": "control_change"}, {"time": 1064, "annotation": {"number": 64, "value": 0}, "group": "control_change"}, {"time": 1067, "annotation": {"number": 64, "value": 127}, "group": "control_change"}, {"time": 1088, "annotation": {"number": 64, "value": 0}, "group": "control_change"}, {"time": 1094, "annotation": {"number": 64, "value": 127}, "group": "control_change"}, {"time": 1112, "annotation": {"number": 64, "value": 0}, "group": "control_change"}, {"time": 1115, "annotation": {"number": 64, "value": 127}, "group": "control_change"}, {"time": 1136, "annotation": {"number": 64, "value": 0}, "group": "control_change"}, {"time": 1140, "annotation": {"number": 64, "value": 127}, "group": "control_change"}, {"time": 1160, "annotation": {"number": 64, "value": 0}, "group": "control_change"}, {"time": 1161, "annotation": {"number": 64, "value": 127}, "group": "control_change"}, {"time": 1183, "annotation": {"number": 64, "value": 0}, "group": "control_change"}, {"time": 1187, "annotation": {"number": 64, "value": 127}, "group": "control_change"}, {"time": 1215, "annotation": {"number": 64, "value": 127}, "group": "control_change"}, {"time": 1231, "annotation": {"number": 64, "value": 0}, "group": "control_change"}, {"time": 1235, "annotation": {"number": 64, "value": 127}, "group": "control_change"}, {"time": 1256, "annotation": {"number": 64, "value": 0}, "group": "control_change"}, {"time": 1260, "annotation": {"number": 64, "value": 127}, "group": "control_change"}, {"time": 1280, "annotation": {"number": 64, "value": 0}, "group": "control_change"}, {"time": 1286, "annotation": {"number": 64, "value": 127}, "group": "control_change"}, {"time": 1304, "annotation": {"number": 64, "value": 0}, "group": "control_change"}, {"time": 1310, "annotation": {"number": 64, "value": 127}, "group": "control_change"}, {"time": 1328, "annotation": {"number": 64, "value": 0}, "group": "control_change"}, {"time": 1333, "annotation": {"number": 64, "value": 127}, "group": "control_change"}, {"time": 1353, "annotation": {"number": 64, "value": 0}, "group": "control_change"}, {"time": 1358, "annotation": {"number": 64, "value": 127}, "group": "control_change"}, {"time": 1376, "annotation": {"number": 64, "value": 0}, "group": "control_change"}, {"time": 1382, "annotation": {"number": 64, "value": 127}, "group": "control_change"}, {"time": 1400, "annotation": {"number": 64, "value": 0}, "group": "control_change"}, {"time": 1405, "annotation": {"number": 64, "value": 127}, "group": "control_change"}, {"time": 1423, "annotation": {"number": 64, "value": 0}, "group": "control_change"}, {"time": 1426, "annotation": {"number": 64, "value": 127}, "group": "control_change"}, {"time": 1450, "annotation": {"number": 64, "value": 0}, "group": "control_change"}, {"time": 1478, "annotation": {"number": 64, "value": 127}, "group": "control_change"}, {"time": 1520, "annotation": {"number": 64, "value": 0}, "group": "control_change"}, {"time": 1528, "annotation": {"number": 64, "value": 127}, "group": "control_change"}, {"time": 1568, "annotation": {"number": 64, "value": 0}, "group": "control_change"}, {"time": 1574, "annotation": {"number": 64, "value": 127}, "group": "control_change"}, {"time": 1592, "annotation": {"number": 64, "value": 0}, "group": "control_change"}, {"time": 1596, "annotation": {"number": 64, "value": 127}, "group": "control_change"}, {"time": 1616, "annotation": {"number": 64, "value": 0}, "group": "control_change"}, {"time": 1620, "annotation": {"number": 64, "value": 127}, "group": "control_change"}, {"time": 1627, "annotation": {"number": 64, "value": 0}, "group": "control_change"}, {"time": 1632, "annotation": {"number": 64, "value": 127}, "group": "control_change"}, {"time": 1639, "annotation": {"number": 64, "value": 0}, "group": "control_change"}, {"time": 1646, "annotation": {"number": 64, "value": 127}, "group": "control_change"}, {"time": 1664, "annotation": {"number": 64, "value": 0}, "group": "control_change"}, {"time": 1670, "annotation": {"number": 64, "value": 127}, "group": "control_change"}, {"time": 1691, "annotation": {"number": 64, "value": 0}, "group": "control_change"}, {"time": 1695, "annotation": {"number": 64, "value": 127}, "group": "control_change"}, {"time": 1712, "annotation": {"number": 64, "value": 0}, "group": "control_change"}, {"time": 1716, "annotation": {"number": 64, "value": 127}, "group": "control_change"}, {"time": 1736, "annotation": {"number": 64, "value": 0}, "group": "control_change"}, {"time": 1742, "annotation": {"number": 64, "value": 127}, "group": "control_change"}, {"time": 1760, "annotation": {"number": 64, "value": 0}, "group": "control_change"}, {"time": 1765, "annotation": {"number": 64, "value": 127}, "group": "control_change"}, {"time": 1784, "annotation": {"number": 64, "value": 0}, "group": "control_change"}, {"time": 1790, "annotation": {"number": 64, "value": 127}, "group": "control_change"}, {"time": 1807, "annotation": {"number": 64, "value": 0}, "group": "control_change"}, {"time": 1810, "annotation": {"number": 64, "value": 127}, "group": "control_change"}, {"time": 1833, "annotation": {"number": 64, "value": 0}, "group": "control_change"}, {"time": 1837, "annotation": {"number": 64, "value": 127}, "group": "control_change"}, {"time": 1849, "annotation": {"number": 64, "value": 0}, "group": "control_change"}, {"time": 1851, "annotation": {"number": 64, "value": 127}, "group": "control_change"}, {"time": 1859, "annotation": {"number": 64, "value": 127}, "group": "control_change"}, {"time": 1880, "annotation": {"number": 64, "value": 0}, "group": "control_change"}, {"time": 1884, "annotation": {"number": 64, "value": 127}, "group": "control_change"}, {"time": 1904, "annotation": {"number": 64, "value": 0}, "group": "control_change"}, {"time": 1909, "annotation": {"number": 64, "value": 127}, "group": "control_change"}, {"time": 1928, "annotation": {"number": 64, "value": 0}, "group": "control_change"}, {"time": 1931, "annotation": {"number": 64, "value": 127}, "group": "control_change"}, {"time": 1952, "annotation": {"number": 64, "value": 0}, "group": "control_change"}, {"time": 1958, "annotation": {"number": 64, "value": 127}, "group": "control_change"}, {"time": 1976, "annotation": {"number": 64, "value": 0}, "group": "control_change"}, {"time": 1982, "annotation": {"number": 64, "value": 127}, "group": "control_change"}, {"time": 2000, "annotation": {"number": 64, "value": 0}, "group": "control_change"}, {"time": 2004, "annotation": {"number": 64, "value": 127}, "group": "control_change"}, {"time": 2024, "annotation": {"number": 64, "value": 0}, "group": "control_change"}, {"time": 2025, "annotation": {"number": 64, "value": 127}, "group": "control_change"}, {"time": 2048, "annotation": {"number": 64, "value": 0}, "group": "control_change"}, {"time": 2051, "annotation": {"number": 64, "value": 127}, "group": "control_change"}, {"time": 2072, "annotation": {"number": 64, "value": 0}, "group": "control_change"}, {"time": 2076, "annotation": {"number": 64, "value": 127}, "group": "control_change"}, {"time": 2096, "annotation": {"number": 64, "value": 0}, "group": "control_change"}, {"time": 2101, "annotation": {"number": 64, "value": 127}, "group": "control_change"}, {"time": 2120, "annotation": {"number": 64, "value": 0}, "group": "control_change"}, {"time": 2123, "annotation": {"number": 64, "value": 127}, "group": "control_change"}, {"time": 2144, "annotation": {"number": 64, "value": 0}, "group": "control_change"}, {"time": 2150, "annotation": {"number": 64, "value": 127}, "group": "control_change"}, {"time": 2168, "annotation": {"number": 64, "value": 0}, "group": "control_change"}, {"time": 2171, "annotation": {"number": 64, "value": 127}, "group": "control_change"}, {"time": 2192, "annotation": {"number": 64, "value": 0}, "group": "control_change"}, {"time": 2196, "annotation": {"number": 64, "value": 127}, "group": "control_change"}, {"time": 2216, "annotation": {"number": 64, "value": 0}, "group": "control_change"}, {"time": 2217, "annotation": {"number": 64, "value": 127}, "group": "control_change"}, {"time": 2239, "annotation": {"number": 64, "value": 0}, "group": "control_change"}, {"time": 2243, "annotation": {"number": 64, "value": 127}, "group": "control_change"}, {"time": 2271, "annotation": {"number": 64, "value": 127}, "group": "control_change"}, {"time": 2287, "annotation": {"number": 64, "value": 0}, "group": "control_change"}, {"time": 2291, "annotation": {"number": 64, "value": 127}, "group": "control_change"}, {"time": 2312, "annotation": {"number": 64, "value": 0}, "group": "control_change"}, {"time": 2316, "annotation": {"number": 64, "value": 127}, "group": "control_change"}, {"time": 2336, "annotation": {"number": 64, "value": 0}, "group": "control_change"}, {"time": 2341, "annotation": {"number": 64, "value": 127}, "group": "control_change"}, {"time": 2360, "annotation": {"number": 64, "value": 0}, "group": "control_change"}, {"time": 2363, "annotation": {"number": 64, "value": 127}, "group": "control_change"}, {"time": 2384, "annotation": {"number": 64, "value": 0}, "group": "control_change"}, {"time": 2390, "annotation": {"number": 64, "value": 127}, "group": "control_change"}, {"time": 2408, "annotation": {"number": 64, "value": 0}, "group": "control_change"}, {"time": 2414, "annotation": {"number": 64, "value": 127}, "group": "control_change"}, {"time": 2432, "annotation": {"number": 64, "value": 0}, "group": "control_change"}, {"time": 2436, "annotation": {"number": 64, "value": 127}, "group": "control_change"}, {"time": 2456, "annotation": {"number": 64, "value": 0}, "group": "control_change"}, {"time": 2457, "annotation": {"number": 64, "value": 127}, "group": "control_change"}, {"time": 2480, "annotation": {"number": 64, "value": 0}, "group": "control_change"}, {"time": 2483, "annotation": {"number": 64, "value": 127}, "group": "control_change"}, {"time": 2504, "annotation": {"number": 64, "value": 0}, "group": "control_change"}, {"time": 2508, "annotation": {"number": 64, "value": 127}, "group": "control_change"}, {"time": 2528, "annotation": {"number": 64, "value": 0}, "group": "control_change"}, {"time": 2533, "annotation": {"number": 64, "value": 127}, "group": "control_change"}, {"time": 2552, "annotation": {"number": 64, "value": 0}, "group": "control_change"}, {"time": 2555, "annotation": {"number": 64, "value": 127}, "group": "control_change"}, {"time": 2576, "annotation": {"number": 64, "value": 0}, "group": "control_change"}, {"time": 2582, "annotation": {"number": 64, "value": 127}, "group": "control_change"}, {"time": 2600, "annotation": {"number": 64, "value": 0}, "group": "control_change"}, {"time": 2603, "annotation": {"number": 64, "value": 127}, "group": "control_change"}, {"time": 2624, "annotation": {"number": 64, "value": 0}, "group": "control_change"}, {"time": 2628, "annotation": {"number": 64, "value": 127}, "group": "control_change"}, {"time": 2648, "annotation": {"number": 64, "value": 0}, "group": "control_change"}, {"time": 2649, "annotation": {"number": 64, "value": 127}, "group": "control_change"}, {"time": 2671, "annotation": {"number": 64, "value": 0}, "group": "control_change"}, {"time": 2675, "annotation": {"number": 64, "value": 127}, "group": "control_change"}, {"time": 2703, "annotation": {"number": 64, "value": 127}, "group": "control_change"}, {"time": 2719, "annotation": {"number": 64, "value": 0}, "group": "control_change"}, {"time": 2722, "annotation": {"number": 64, "value": 127}, "group": "control_change"}, {"time": 2745, "annotation": {"number": 64, "value": 0}, "group": "control_change"}, {"time": 2748, "annotation": {"number": 64, "value": 127}, "group": "control_change"}, {"time": 2792, "annotation": {"number": 64, "value": 0}, "group": "control_change"}, {"time": 2795, "annotation": {"number": 64, "value": 127}, "group": "control_change"}, {"time": 2839, "annotation": {"number": 64, "value": 0}, "group": "control_change"}, {"time": 2846, "annotation": {"number": 64, "value": 127}, "group": "control_change"}, {"time": 2875, "annotation": {"number": 64, "value": 0}, "group": "control_change"}, {"time": 2878, "annotation": {"number": 64, "value": 127}, "group": "control_change"}, {"time": 2888, "annotation": {"number": 64, "value": 0}, "group": "control_change"}, {"time": 2895, "annotation": {"number": 64, "value": 127}, "group": "control_change"}, {"time": 2924, "annotation": {"number": 64, "value": 0}, "group": "control_change"}, {"time": 2926, "annotation": {"number": 64, "value": 127}, "group": "control_change"}, {"time": 2936, "annotation": {"number": 64, "value": 0}, "group": "control_change"}, {"time": 2936, "annotation": {"number": 64, "value": 127}, "group": "control_change"}, {"time": 2986, "annotation": {"number": 64, "value": 0}, "group": "control_change"}, {"time": 2991, "annotation": {"number": 64, "value": 127}, "group": "control_change"}]}]}