{"metadata": {"schema_version": "0.2", "title": "None", "source_filename": "085.mid", "source_format": "midi"}, "resolution": 12, "tempos": [{"time": 0, "qpm": 90.00009000009}, {"time": 1565, "qpm": 89.00004005001803}, {"time": 1608, "qpm": 90.00009000009}, {"time": 2731, "qpm": 88.00002346667293}, {"time": 2759, "qpm": 90.00009000009}, {"time": 3535, "qpm": 89.00004005001803}, {"time": 3543, "qpm": 87.00002175000543}, {"time": 3575, "qpm": 90.00009000009}], "time_signatures": [{"time": 0, "numerator": 1, "denominator": 4}], "tracks": [{"program": 4, "is_drum": false, "name": "MELODY", "notes": [{"time": 400, "pitch": 68, "duration": 15, "velocity": 118}, {"time": 418, "pitch": 63, "duration": 3, "velocity": 118}, {"time": 424, "pitch": 68, "duration": 4, "velocity": 112}, {"time": 430, "pitch": 70, "duration": 3, "velocity": 115}, {"time": 436, "pitch": 72, "duration": 4, "velocity": 112}, {"time": 442, "pitch": 73, "duration": 4, "velocity": 106}, {"time": 448, "pitch": 75, "duration": 26, "velocity": 112}, {"time": 484, "pitch": 75, "duration": 4, "velocity": 115}, {"time": 490, "pitch": 77, "duration": 4, "velocity": 112}, {"time": 496, "pitch": 80, "duration": 14, "velocity": 115}, {"time": 514, "pitch": 82, "duration": 3, "velocity": 115}, {"time": 520, "pitch": 80, "duration": 6, "velocity": 115}, {"time": 529, "pitch": 77, "duration": 7, "velocity": 112}, {"time": 538, "pitch": 72, "duration": 4, "velocity": 112}, {"time": 544, "pitch": 75, "duration": 22, "velocity": 112}, {"time": 598, "pitch": 72, "duration": 4, "velocity": 106}, {"time": 604, "pitch": 72, "duration": 4, "velocity": 109}, {"time": 610, "pitch": 73, "duration": 4, "velocity": 106}, {"time": 616, "pitch": 72, "duration": 8, "velocity": 115}, {"time": 628, "pitch": 65, "duration": 4, "velocity": 112}, {"time": 634, "pitch": 68, "duration": 9, "velocity": 115}, {"time": 646, "pitch": 70, "duration": 26, "velocity": 115}, {"time": 694, "pitch": 70, "duration": 3, "velocity": 106}, {"time": 700, "pitch": 70, "duration": 4, "velocity": 109}, {"time": 706, "pitch": 68, "duration": 4, "velocity": 106}, {"time": 712, "pitch": 70, "duration": 9, "velocity": 112}, {"time": 724, "pitch": 72, "duration": 4, "velocity": 112}, {"time": 730, "pitch": 70, "duration": 9, "velocity": 115}, {"time": 742, "pitch": 63, "duration": 18, "velocity": 112}, {"time": 784, "pitch": 68, "duration": 15, "velocity": 118}, {"time": 802, "pitch": 63, "duration": 3, "velocity": 118}, {"time": 808, "pitch": 68, "duration": 4, "velocity": 112}, {"time": 814, "pitch": 70, "duration": 3, "velocity": 115}, {"time": 820, "pitch": 68, "duration": 4, "velocity": 112}, {"time": 826, "pitch": 75, "duration": 30, "velocity": 106}, {"time": 868, "pitch": 75, "duration": 4, "velocity": 115}, {"time": 874, "pitch": 77, "duration": 4, "velocity": 112}, {"time": 880, "pitch": 80, "duration": 14, "velocity": 115}, {"time": 898, "pitch": 82, "duration": 3, "velocity": 115}, {"time": 904, "pitch": 80, "duration": 6, "velocity": 115}, {"time": 913, "pitch": 77, "duration": 7, "velocity": 112}, {"time": 922, "pitch": 72, "duration": 4, "velocity": 112}, {"time": 928, "pitch": 75, "duration": 22, "velocity": 112}, {"time": 982, "pitch": 77, "duration": 3, "velocity": 104}, {"time": 988, "pitch": 77, "duration": 4, "velocity": 115}, {"time": 994, "pitch": 80, "duration": 4, "velocity": 115}, {"time": 1000, "pitch": 77, "duration": 8, "velocity": 115}, {"time": 1012, "pitch": 72, "duration": 4, "velocity": 109}, {"time": 1018, "pitch": 75, "duration": 9, "velocity": 109}, {"time": 1030, "pitch": 70, "duration": 20, "velocity": 112}, {"time": 1060, "pitch": 63, "duration": 4, "velocity": 115}, {"time": 1066, "pitch": 65, "duration": 4, "velocity": 112}, {"time": 1072, "pitch": 72, "duration": 14, "velocity": 109}, {"time": 1090, "pitch": 70, "duration": 3, "velocity": 112}, {"time": 1096, "pitch": 68, "duration": 9, "velocity": 112}, {"time": 1108, "pitch": 67, "duration": 6, "velocity": 113}, {"time": 1114, "pitch": 68, "duration": 26, "velocity": 109}, {"time": 1174, "pitch": 70, "duration": 4, "velocity": 112}, {"time": 1180, "pitch": 70, "duration": 3, "velocity": 118}, {"time": 1186, "pitch": 68, "duration": 4, "velocity": 115}, {"time": 1192, "pitch": 70, "duration": 9, "velocity": 115}, {"time": 1204, "pitch": 70, "duration": 3, "velocity": 118}, {"time": 1210, "pitch": 68, "duration": 4, "velocity": 115}, {"time": 1216, "pitch": 72, "duration": 4, "velocity": 115}, {"time": 1222, "pitch": 75, "duration": 32, "velocity": 112}, {"time": 1270, "pitch": 80, "duration": 3, "velocity": 112}, {"time": 1276, "pitch": 80, "duration": 3, "velocity": 112}, {"time": 1282, "pitch": 82, "duration": 4, "velocity": 115}, {"time": 1288, "pitch": 80, "duration": 9, "velocity": 118}, {"time": 1300, "pitch": 77, "duration": 4, "velocity": 115}, {"time": 1306, "pitch": 80, "duration": 12, "velocity": 115}, {"time": 1318, "pitch": 75, "duration": 30, "velocity": 115}, {"time": 1366, "pitch": 72, "duration": 4, "velocity": 106}, {"time": 1372, "pitch": 72, "duration": 4, "velocity": 112}, {"time": 1378, "pitch": 75, "duration": 4, "velocity": 115}, {"time": 1384, "pitch": 75, "duration": 8, "velocity": 115}, {"time": 1396, "pitch": 72, "duration": 4, "velocity": 115}, {"time": 1402, "pitch": 75, "duration": 3, "velocity": 112}, {"time": 1408, "pitch": 80, "duration": 14, "velocity": 112}, {"time": 1426, "pitch": 79, "duration": 10, "velocity": 120}, {"time": 1438, "pitch": 77, "duration": 17, "velocity": 106}, {"time": 1462, "pitch": 77, "duration": 3, "velocity": 109}, {"time": 1468, "pitch": 77, "duration": 3, "velocity": 115}, {"time": 1474, "pitch": 75, "duration": 4, "velocity": 112}, {"time": 1480, "pitch": 77, "duration": 10, "velocity": 112}, {"time": 1492, "pitch": 80, "duration": 4, "velocity": 115}, {"time": 1498, "pitch": 82, "duration": 11, "velocity": 115}, {"time": 1510, "pitch": 75, "duration": 40, "velocity": 112}, {"time": 1588, "pitch": 75, "duration": 4, "velocity": 115}, {"time": 1594, "pitch": 77, "duration": 4, "velocity": 112}, {"time": 1600, "pitch": 82, "duration": 3, "velocity": 118}, {"time": 1606, "pitch": 82, "duration": 9, "velocity": 118}, {"time": 1618, "pitch": 80, "duration": 4, "velocity": 115}, {"time": 1624, "pitch": 77, "duration": 9, "velocity": 112}, {"time": 1636, "pitch": 84, "duration": 10, "velocity": 115}, {"time": 1648, "pitch": 82, "duration": 26, "velocity": 115}, {"time": 1684, "pitch": 80, "duration": 5, "velocity": 109}, {"time": 1690, "pitch": 82, "duration": 3, "velocity": 121}, {"time": 1696, "pitch": 84, "duration": 4, "velocity": 115}, {"time": 1702, "pitch": 87, "duration": 4, "velocity": 106}, {"time": 1708, "pitch": 87, "duration": 3, "velocity": 106}, {"time": 1714, "pitch": 87, "duration": 3, "velocity": 109}, {"time": 1726, "pitch": 87, "duration": 6, "velocity": 112}, {"time": 1732, "pitch": 75, "duration": 12, "velocity": 115}, {"time": 1744, "pitch": 77, "duration": 36, "velocity": 106}, {"time": 1780, "pitch": 75, "duration": 4, "velocity": 115}, {"time": 1786, "pitch": 77, "duration": 3, "velocity": 109}, {"time": 1792, "pitch": 82, "duration": 3, "velocity": 115}, {"time": 1798, "pitch": 82, "duration": 10, "velocity": 118}, {"time": 1810, "pitch": 80, "duration": 3, "velocity": 112}, {"time": 1816, "pitch": 77, "duration": 9, "velocity": 112}, {"time": 1828, "pitch": 84, "duration": 10, "velocity": 115}, {"time": 1840, "pitch": 82, "duration": 26, "velocity": 115}, {"time": 1876, "pitch": 82, "duration": 4, "velocity": 115}, {"time": 1882, "pitch": 80, "duration": 4, "velocity": 115}, {"time": 1888, "pitch": 85, "duration": 8, "velocity": 115}, {"time": 1897, "pitch": 84, "duration": 7, "velocity": 115}, {"time": 1906, "pitch": 80, "duration": 4, "velocity": 115}, {"time": 1912, "pitch": 82, "duration": 10, "velocity": 115}, {"time": 1924, "pitch": 84, "duration": 10, "velocity": 115}, {"time": 1936, "pitch": 75, "duration": 27, "velocity": 115}, {"time": 1972, "pitch": 75, "duration": 4, "velocity": 115}, {"time": 1978, "pitch": 77, "duration": 4, "velocity": 112}, {"time": 1984, "pitch": 82, "duration": 3, "velocity": 118}, {"time": 1990, "pitch": 82, "duration": 9, "velocity": 118}, {"time": 2002, "pitch": 80, "duration": 4, "velocity": 115}, {"time": 2008, "pitch": 77, "duration": 9, "velocity": 112}, {"time": 2020, "pitch": 84, "duration": 10, "velocity": 115}, {"time": 2032, "pitch": 82, "duration": 26, "velocity": 115}, {"time": 2068, "pitch": 80, "duration": 5, "velocity": 109}, {"time": 2074, "pitch": 82, "duration": 3, "velocity": 121}, {"time": 2080, "pitch": 84, "duration": 4, "velocity": 115}, {"time": 2086, "pitch": 87, "duration": 4, "velocity": 106}, {"time": 2092, "pitch": 87, "duration": 3, "velocity": 106}, {"time": 2098, "pitch": 87, "duration": 6, "velocity": 109}, {"time": 2110, "pitch": 87, "duration": 6, "velocity": 112}, {"time": 2116, "pitch": 75, "duration": 12, "velocity": 115}, {"time": 2128, "pitch": 77, "duration": 36, "velocity": 106}, {"time": 2164, "pitch": 75, "duration": 4, "velocity": 115}, {"time": 2170, "pitch": 77, "duration": 3, "velocity": 109}, {"time": 2176, "pitch": 82, "duration": 3, "velocity": 115}, {"time": 2182, "pitch": 82, "duration": 10, "velocity": 118}, {"time": 2194, "pitch": 80, "duration": 3, "velocity": 112}, {"time": 2200, "pitch": 77, "duration": 9, "velocity": 112}, {"time": 2212, "pitch": 84, "duration": 10, "velocity": 115}, {"time": 2224, "pitch": 82, "duration": 26, "velocity": 115}, {"time": 2260, "pitch": 82, "duration": 4, "velocity": 115}, {"time": 2266, "pitch": 80, "duration": 4, "velocity": 115}, {"time": 2272, "pitch": 85, "duration": 18, "velocity": 115}, {"time": 2290, "pitch": 84, "duration": 4, "velocity": 115}, {"time": 2296, "pitch": 80, "duration": 10, "velocity": 115}, {"time": 2308, "pitch": 82, "duration": 10, "velocity": 115}, {"time": 2320, "pitch": 80, "duration": 27, "velocity": 115}, {"time": 2752, "pitch": 68, "duration": 15, "velocity": 118}, {"time": 2770, "pitch": 63, "duration": 3, "velocity": 118}, {"time": 2776, "pitch": 68, "duration": 4, "velocity": 112}, {"time": 2782, "pitch": 70, "duration": 3, "velocity": 115}, {"time": 2788, "pitch": 68, "duration": 4, "velocity": 112}, {"time": 2794, "pitch": 75, "duration": 30, "velocity": 106}, {"time": 2836, "pitch": 75, "duration": 4, "velocity": 115}, {"time": 2842, "pitch": 77, "duration": 4, "velocity": 112}, {"time": 2848, "pitch": 80, "duration": 14, "velocity": 115}, {"time": 2866, "pitch": 82, "duration": 3, "velocity": 115}, {"time": 2872, "pitch": 80, "duration": 6, "velocity": 115}, {"time": 2881, "pitch": 77, "duration": 7, "velocity": 112}, {"time": 2890, "pitch": 72, "duration": 4, "velocity": 112}, {"time": 2896, "pitch": 75, "duration": 22, "velocity": 112}, {"time": 2950, "pitch": 77, "duration": 3, "velocity": 104}, {"time": 2956, "pitch": 77, "duration": 4, "velocity": 115}, {"time": 2962, "pitch": 80, "duration": 4, "velocity": 115}, {"time": 2968, "pitch": 77, "duration": 8, "velocity": 115}, {"time": 2980, "pitch": 72, "duration": 4, "velocity": 109}, {"time": 2986, "pitch": 75, "duration": 9, "velocity": 109}, {"time": 2998, "pitch": 70, "duration": 20, "velocity": 112}, {"time": 3028, "pitch": 63, "duration": 4, "velocity": 115}, {"time": 3034, "pitch": 65, "duration": 4, "velocity": 112}, {"time": 3040, "pitch": 72, "duration": 14, "velocity": 109}, {"time": 3058, "pitch": 70, "duration": 3, "velocity": 112}, {"time": 3064, "pitch": 68, "duration": 9, "velocity": 112}, {"time": 3076, "pitch": 67, "duration": 6, "velocity": 113}, {"time": 3082, "pitch": 68, "duration": 26, "velocity": 109}, {"time": 3142, "pitch": 70, "duration": 4, "velocity": 112}, {"time": 3148, "pitch": 70, "duration": 3, "velocity": 118}, {"time": 3154, "pitch": 68, "duration": 4, "velocity": 115}, {"time": 3160, "pitch": 70, "duration": 9, "velocity": 115}, {"time": 3172, "pitch": 70, "duration": 3, "velocity": 118}, {"time": 3178, "pitch": 68, "duration": 4, "velocity": 115}, {"time": 3184, "pitch": 72, "duration": 4, "velocity": 115}, {"time": 3190, "pitch": 75, "duration": 32, "velocity": 112}, {"time": 3238, "pitch": 80, "duration": 3, "velocity": 112}, {"time": 3244, "pitch": 80, "duration": 3, "velocity": 112}, {"time": 3250, "pitch": 82, "duration": 4, "velocity": 115}, {"time": 3256, "pitch": 80, "duration": 9, "velocity": 118}, {"time": 3268, "pitch": 77, "duration": 4, "velocity": 115}, {"time": 3274, "pitch": 80, "duration": 12, "velocity": 115}, {"time": 3286, "pitch": 75, "duration": 30, "velocity": 115}, {"time": 3334, "pitch": 72, "duration": 4, "velocity": 106}, {"time": 3340, "pitch": 72, "duration": 4, "velocity": 112}, {"time": 3346, "pitch": 75, "duration": 4, "velocity": 115}, {"time": 3352, "pitch": 75, "duration": 8, "velocity": 115}, {"time": 3364, "pitch": 72, "duration": 4, "velocity": 115}, {"time": 3370, "pitch": 75, "duration": 3, "velocity": 112}, {"time": 3376, "pitch": 80, "duration": 14, "velocity": 112}, {"time": 3394, "pitch": 79, "duration": 10, "velocity": 120}, {"time": 3406, "pitch": 77, "duration": 17, "velocity": 106}, {"time": 3430, "pitch": 77, "duration": 3, "velocity": 109}, {"time": 3436, "pitch": 77, "duration": 3, "velocity": 115}, {"time": 3442, "pitch": 75, "duration": 4, "velocity": 112}, {"time": 3448, "pitch": 77, "duration": 10, "velocity": 112}, {"time": 3460, "pitch": 80, "duration": 4, "velocity": 115}, {"time": 3466, "pitch": 79, "duration": 11, "velocity": 115}, {"time": 3478, "pitch": 75, "duration": 40, "velocity": 112}, {"time": 3556, "pitch": 75, "duration": 4, "velocity": 115}, {"time": 3562, "pitch": 77, "duration": 4, "velocity": 112}, {"time": 3568, "pitch": 82, "duration": 3, "velocity": 118}, {"time": 3574, "pitch": 82, "duration": 9, "velocity": 118}, {"time": 3586, "pitch": 80, "duration": 4, "velocity": 115}, {"time": 3592, "pitch": 77, "duration": 9, "velocity": 112}, {"time": 3604, "pitch": 84, "duration": 10, "velocity": 115}, {"time": 3616, "pitch": 82, "duration": 26, "velocity": 115}, {"time": 3652, "pitch": 80, "duration": 5, "velocity": 109}, {"time": 3658, "pitch": 82, "duration": 3, "velocity": 121}, {"time": 3664, "pitch": 84, "duration": 4, "velocity": 115}, {"time": 3670, "pitch": 87, "duration": 4, "velocity": 106}, {"time": 3676, "pitch": 87, "duration": 3, "velocity": 106}, {"time": 3682, "pitch": 87, "duration": 3, "velocity": 109}, {"time": 3694, "pitch": 87, "duration": 6, "velocity": 112}, {"time": 3700, "pitch": 75, "duration": 12, "velocity": 115}, {"time": 3712, "pitch": 77, "duration": 36, "velocity": 106}, {"time": 3748, "pitch": 75, "duration": 4, "velocity": 115}, {"time": 3754, "pitch": 77, "duration": 3, "velocity": 109}, {"time": 3760, "pitch": 82, "duration": 3, "velocity": 115}, {"time": 3766, "pitch": 82, "duration": 10, "velocity": 118}, {"time": 3778, "pitch": 80, "duration": 3, "velocity": 112}, {"time": 3784, "pitch": 77, "duration": 9, "velocity": 112}, {"time": 3796, "pitch": 84, "duration": 10, "velocity": 115}, {"time": 3808, "pitch": 82, "duration": 26, "velocity": 115}, {"time": 3844, "pitch": 82, "duration": 4, "velocity": 115}, {"time": 3850, "pitch": 80, "duration": 4, "velocity": 115}, {"time": 3856, "pitch": 85, "duration": 8, "velocity": 115}, {"time": 3865, "pitch": 84, "duration": 7, "velocity": 115}, {"time": 3874, "pitch": 80, "duration": 4, "velocity": 115}, {"time": 3880, "pitch": 82, "duration": 10, "velocity": 115}, {"time": 3892, "pitch": 84, "duration": 10, "velocity": 115}, {"time": 3904, "pitch": 75, "duration": 27, "velocity": 115}, {"time": 3940, "pitch": 75, "duration": 4, "velocity": 115}, {"time": 3946, "pitch": 77, "duration": 4, "velocity": 112}, {"time": 3952, "pitch": 82, "duration": 3, "velocity": 118}, {"time": 3958, "pitch": 82, "duration": 9, "velocity": 118}, {"time": 3970, "pitch": 80, "duration": 4, "velocity": 115}, {"time": 3976, "pitch": 77, "duration": 9, "velocity": 112}, {"time": 3988, "pitch": 84, "duration": 10, "velocity": 115}, {"time": 4000, "pitch": 82, "duration": 26, "velocity": 115}, {"time": 4036, "pitch": 80, "duration": 5, "velocity": 109}, {"time": 4042, "pitch": 82, "duration": 3, "velocity": 121}, {"time": 4048, "pitch": 84, "duration": 4, "velocity": 115}, {"time": 4054, "pitch": 87, "duration": 4, "velocity": 106}, {"time": 4060, "pitch": 87, "duration": 3, "velocity": 106}, {"time": 4066, "pitch": 87, "duration": 6, "velocity": 109}, {"time": 4078, "pitch": 87, "duration": 6, "velocity": 112}, {"time": 4084, "pitch": 75, "duration": 12, "velocity": 115}, {"time": 4096, "pitch": 77, "duration": 36, "velocity": 106}, {"time": 4132, "pitch": 75, "duration": 4, "velocity": 115}, {"time": 4138, "pitch": 77, "duration": 3, "velocity": 109}, {"time": 4144, "pitch": 82, "duration": 3, "velocity": 115}, {"time": 4150, "pitch": 82, "duration": 10, "velocity": 118}, {"time": 4162, "pitch": 80, "duration": 3, "velocity": 112}, {"time": 4168, "pitch": 77, "duration": 9, "velocity": 112}, {"time": 4180, "pitch": 84, "duration": 10, "velocity": 115}, {"time": 4192, "pitch": 82, "duration": 26, "velocity": 115}, {"time": 4228, "pitch": 82, "duration": 4, "velocity": 115}, {"time": 4234, "pitch": 80, "duration": 4, "velocity": 115}, {"time": 4240, "pitch": 85, "duration": 18, "velocity": 115}, {"time": 4258, "pitch": 84, "duration": 4, "velocity": 115}, {"time": 4264, "pitch": 80, "duration": 10, "velocity": 115}, {"time": 4276, "pitch": 82, "duration": 10, "velocity": 115}, {"time": 4288, "pitch": 80, "duration": 27, "velocity": 115}, {"time": 4324, "pitch": 75, "duration": 4, "velocity": 115}, {"time": 4330, "pitch": 77, "duration": 4, "velocity": 112}, {"time": 4336, "pitch": 82, "duration": 3, "velocity": 118}, {"time": 4342, "pitch": 82, "duration": 9, "velocity": 118}, {"time": 4354, "pitch": 80, "duration": 4, "velocity": 115}, {"time": 4360, "pitch": 77, "duration": 9, "velocity": 112}, {"time": 4372, "pitch": 84, "duration": 10, "velocity": 115}, {"time": 4384, "pitch": 82, "duration": 26, "velocity": 115}, {"time": 4420, "pitch": 80, "duration": 5, "velocity": 109}, {"time": 4426, "pitch": 82, "duration": 3, "velocity": 121}, {"time": 4432, "pitch": 84, "duration": 4, "velocity": 115}, {"time": 4438, "pitch": 87, "duration": 4, "velocity": 106}, {"time": 4444, "pitch": 87, "duration": 3, "velocity": 106}, {"time": 4450, "pitch": 87, "duration": 6, "velocity": 109}, {"time": 4462, "pitch": 87, "duration": 6, "velocity": 112}, {"time": 4468, "pitch": 75, "duration": 12, "velocity": 115}, {"time": 4480, "pitch": 77, "duration": 36, "velocity": 106}, {"time": 4516, "pitch": 75, "duration": 4, "velocity": 115}, {"time": 4522, "pitch": 77, "duration": 3, "velocity": 109}, {"time": 4528, "pitch": 82, "duration": 3, "velocity": 115}, {"time": 4534, "pitch": 82, "duration": 10, "velocity": 118}, {"time": 4546, "pitch": 80, "duration": 3, "velocity": 112}, {"time": 4552, "pitch": 77, "duration": 9, "velocity": 112}, {"time": 4564, "pitch": 84, "duration": 10, "velocity": 115}, {"time": 4576, "pitch": 82, "duration": 26, "velocity": 115}, {"time": 4612, "pitch": 82, "duration": 4, "velocity": 115}, {"time": 4618, "pitch": 80, "duration": 4, "velocity": 115}, {"time": 4624, "pitch": 85, "duration": 18, "velocity": 115}, {"time": 4642, "pitch": 84, "duration": 4, "velocity": 115}, {"time": 4648, "pitch": 80, "duration": 10, "velocity": 115}, {"time": 4660, "pitch": 82, "duration": 10, "velocity": 115}, {"time": 4672, "pitch": 80, "duration": 27, "velocity": 115}]}, {"program": 0, "is_drum": false, "name": "PIANO", "notes": [{"time": 16, "pitch": 44, "duration": 45, "velocity": 106}, {"time": 22, "pitch": 51, "duration": 26, "velocity": 82}, {"time": 28, "pitch": 56, "duration": 7, "velocity": 101}, {"time": 34, "pitch": 58, "duration": 36, "velocity": 112}, {"time": 46, "pitch": 56, "duration": 24, "velocity": 99}, {"time": 52, "pitch": 51, "duration": 11, "velocity": 64}, {"time": 64, "pitch": 44, "duration": 49, "velocity": 101}, {"time": 70, "pitch": 51, "duration": 21, "velocity": 82}, {"time": 76, "pitch": 56, "duration": 18, "velocity": 91}, {"time": 82, "pitch": 58, "duration": 18, "velocity": 109}, {"time": 94, "pitch": 51, "duration": 8, "velocity": 56}, {"time": 100, "pitch": 56, "duration": 11, "velocity": 104}, {"time": 106, "pitch": 51, "duration": 6, "velocity": 55}, {"time": 112, "pitch": 42, "duration": 39, "velocity": 106}, {"time": 112, "pitch": 54, "duration": 9, "velocity": 76}, {"time": 112, "pitch": 61, "duration": 3, "velocity": 55}, {"time": 112, "pitch": 63, "duration": 19, "velocity": 69}, {"time": 118, "pitch": 49, "duration": 14, "velocity": 91}, {"time": 124, "pitch": 54, "duration": 4, "velocity": 82}, {"time": 130, "pitch": 54, "duration": 15, "velocity": 101}, {"time": 130, "pitch": 61, "duration": 16, "velocity": 96}, {"time": 142, "pitch": 49, "duration": 8, "velocity": 46}, {"time": 148, "pitch": 54, "duration": 5, "velocity": 106}, {"time": 160, "pitch": 49, "duration": 21, "velocity": 96}, {"time": 160, "pitch": 56, "duration": 8, "velocity": 91}, {"time": 160, "pitch": 61, "duration": 14, "velocity": 96}, {"time": 166, "pitch": 53, "duration": 14, "velocity": 50}, {"time": 172, "pitch": 56, "duration": 7, "velocity": 59}, {"time": 178, "pitch": 61, "duration": 9, "velocity": 96}, {"time": 184, "pitch": 51, "duration": 18, "velocity": 101}, {"time": 190, "pitch": 58, "duration": 4, "velocity": 101}, {"time": 196, "pitch": 58, "duration": 4, "velocity": 109}, {"time": 196, "pitch": 65, "duration": 6, "velocity": 109}, {"time": 202, "pitch": 58, "duration": 7, "velocity": 87}, {"time": 202, "pitch": 63, "duration": 6, "velocity": 109}, {"time": 208, "pitch": 44, "duration": 44, "velocity": 106}, {"time": 214, "pitch": 51, "duration": 15, "velocity": 66}, {"time": 220, "pitch": 56, "duration": 4, "velocity": 73}, {"time": 226, "pitch": 56, "duration": 19, "velocity": 96}, {"time": 226, "pitch": 60, "duration": 20, "velocity": 91}, {"time": 226, "pitch": 63, "duration": 23, "velocity": 99}, {"time": 244, "pitch": 51, "duration": 8, "velocity": 73}, {"time": 250, "pitch": 56, "duration": 13, "velocity": 89}, {"time": 256, "pitch": 44, "duration": 45, "velocity": 106}, {"time": 262, "pitch": 51, "duration": 14, "velocity": 73}, {"time": 274, "pitch": 56, "duration": 16, "velocity": 104}, {"time": 274, "pitch": 63, "duration": 15, "velocity": 106}, {"time": 286, "pitch": 51, "duration": 17, "velocity": 51}, {"time": 298, "pitch": 56, "duration": 6, "velocity": 94}, {"time": 298, "pitch": 63, "duration": 20, "velocity": 104}, {"time": 304, "pitch": 42, "duration": 41, "velocity": 99}, {"time": 310, "pitch": 49, "duration": 16, "velocity": 78}, {"time": 316, "pitch": 54, "duration": 4, "velocity": 94}, {"time": 322, "pitch": 54, "duration": 14, "velocity": 99}, {"time": 322, "pitch": 63, "duration": 17, "velocity": 96}, {"time": 334, "pitch": 49, "duration": 9, "velocity": 52}, {"time": 340, "pitch": 54, "duration": 3, "velocity": 99}, {"time": 340, "pitch": 58, "duration": 8, "velocity": 106}, {"time": 340, "pitch": 63, "duration": 11, "velocity": 74}, {"time": 346, "pitch": 54, "duration": 4, "velocity": 87}, {"time": 352, "pitch": 40, "duration": 11, "velocity": 104}, {"time": 353, "pitch": 61, "duration": 6, "velocity": 114}, {"time": 358, "pitch": 47, "duration": 5, "velocity": 59}, {"time": 364, "pitch": 52, "duration": 2, "velocity": 107}, {"time": 364, "pitch": 59, "duration": 9, "velocity": 91}, {"time": 370, "pitch": 52, "duration": 2, "velocity": 55}, {"time": 376, "pitch": 42, "duration": 17, "velocity": 104}, {"time": 376, "pitch": 56, "duration": 5, "velocity": 87}, {"time": 376, "pitch": 58, "duration": 10, "velocity": 94}, {"time": 382, "pitch": 56, "duration": 8, "velocity": 67}, {"time": 388, "pitch": 54, "duration": 12, "velocity": 101}, {"time": 388, "pitch": 58, "duration": 12, "velocity": 96}, {"time": 400, "pitch": 44, "duration": 40, "velocity": 104}, {"time": 400, "pitch": 56, "duration": 8, "velocity": 94}, {"time": 400, "pitch": 60, "duration": 13, "velocity": 99}, {"time": 406, "pitch": 51, "duration": 12, "velocity": 76}, {"time": 418, "pitch": 56, "duration": 12, "velocity": 101}, {"time": 418, "pitch": 63, "duration": 15, "velocity": 106}, {"time": 430, "pitch": 51, "duration": 6, "velocity": 18}, {"time": 436, "pitch": 56, "duration": 3, "velocity": 91}, {"time": 436, "pitch": 60, "duration": 18, "velocity": 104}, {"time": 442, "pitch": 56, "duration": 9, "velocity": 64}, {"time": 448, "pitch": 44, "duration": 41, "velocity": 91}, {"time": 454, "pitch": 51, "duration": 13, "velocity": 64}, {"time": 460, "pitch": 56, "duration": 4, "velocity": 80}, {"time": 466, "pitch": 56, "duration": 7, "velocity": 101}, {"time": 466, "pitch": 63, "duration": 9, "velocity": 106}, {"time": 472, "pitch": 51, "duration": 7, "velocity": 62}, {"time": 478, "pitch": 56, "duration": 7, "velocity": 101}, {"time": 478, "pitch": 60, "duration": 11, "velocity": 101}, {"time": 484, "pitch": 51, "duration": 5, "velocity": 54}, {"time": 496, "pitch": 41, "duration": 37, "velocity": 99}, {"time": 496, "pitch": 53, "duration": 7, "velocity": 89}, {"time": 496, "pitch": 56, "duration": 8, "velocity": 99}, {"time": 502, "pitch": 48, "duration": 13, "velocity": 50}, {"time": 508, "pitch": 60, "duration": 11, "velocity": 52}, {"time": 514, "pitch": 65, "duration": 11, "velocity": 109}, {"time": 520, "pitch": 48, "duration": 7, "velocity": 40}, {"time": 526, "pitch": 53, "duration": 5, "velocity": 82}, {"time": 526, "pitch": 56, "duration": 8, "velocity": 104}, {"time": 526, "pitch": 60, "duration": 14, "velocity": 104}, {"time": 526, "pitch": 65, "duration": 4, "velocity": 44}, {"time": 532, "pitch": 48, "duration": 2, "velocity": 18}, {"time": 538, "pitch": 53, "duration": 3, "velocity": 96}, {"time": 544, "pitch": 48, "duration": 36, "velocity": 89}, {"time": 550, "pitch": 55, "duration": 13, "velocity": 72}, {"time": 556, "pitch": 58, "duration": 5, "velocity": 104}, {"time": 562, "pitch": 58, "duration": 19, "velocity": 101}, {"time": 562, "pitch": 63, "duration": 19, "velocity": 109}, {"time": 574, "pitch": 55, "duration": 5, "velocity": 49}, {"time": 580, "pitch": 67, "duration": 7, "velocity": 117}, {"time": 586, "pitch": 58, "duration": 3, "velocity": 76}, {"time": 592, "pitch": 41, "duration": 36, "velocity": 94}, {"time": 592, "pitch": 53, "duration": 19, "velocity": 96}, {"time": 592, "pitch": 56, "duration": 14, "velocity": 96}, {"time": 598, "pitch": 48, "duration": 13, "velocity": 47}, {"time": 604, "pitch": 60, "duration": 12, "velocity": 94}, {"time": 610, "pitch": 65, "duration": 17, "velocity": 109}, {"time": 616, "pitch": 48, "duration": 11, "velocity": 39}, {"time": 622, "pitch": 53, "duration": 4, "velocity": 87}, {"time": 628, "pitch": 56, "duration": 5, "velocity": 106}, {"time": 628, "pitch": 60, "duration": 7, "velocity": 101}, {"time": 640, "pitch": 46, "duration": 43, "velocity": 104}, {"time": 640, "pitch": 58, "duration": 8, "velocity": 96}, {"time": 640, "pitch": 61, "duration": 14, "velocity": 96}, {"time": 646, "pitch": 53, "duration": 13, "velocity": 76}, {"time": 652, "pitch": 58, "duration": 5, "velocity": 82}, {"time": 658, "pitch": 58, "duration": 4, "velocity": 61}, {"time": 658, "pitch": 65, "duration": 17, "velocity": 99}, {"time": 664, "pitch": 53, "duration": 7, "velocity": 35}, {"time": 670, "pitch": 58, "duration": 6, "velocity": 109}, {"time": 676, "pitch": 53, "duration": 8, "velocity": 80}, {"time": 682, "pitch": 58, "duration": 4, "velocity": 101}, {"time": 688, "pitch": 46, "duration": 38, "velocity": 104}, {"time": 688, "pitch": 58, "duration": 8, "velocity": 104}, {"time": 688, "pitch": 61, "duration": 14, "velocity": 94}, {"time": 694, "pitch": 53, "duration": 13, "velocity": 66}, {"time": 700, "pitch": 58, "duration": 3, "velocity": 66}, {"time": 706, "pitch": 58, "duration": 8, "velocity": 106}, {"time": 706, "pitch": 65, "duration": 16, "velocity": 104}, {"time": 712, "pitch": 53, "duration": 11, "velocity": 32}, {"time": 718, "pitch": 58, "duration": 3, "velocity": 89}, {"time": 724, "pitch": 61, "duration": 9, "velocity": 112}, {"time": 736, "pitch": 39, "duration": 2, "velocity": 106}, {"time": 736, "pitch": 58, "duration": 5, "velocity": 99}, {"time": 736, "pitch": 63, "duration": 7, "velocity": 106}, {"time": 742, "pitch": 51, "duration": 33, "velocity": 54}, {"time": 748, "pitch": 58, "duration": 14, "velocity": 104}, {"time": 754, "pitch": 63, "duration": 4, "velocity": 109}, {"time": 760, "pitch": 63, "duration": 9, "velocity": 109}, {"time": 760, "pitch": 68, "duration": 10, "velocity": 104}, {"time": 766, "pitch": 58, "duration": 8, "velocity": 82}, {"time": 772, "pitch": 63, "duration": 4, "velocity": 109}, {"time": 772, "pitch": 70, "duration": 13, "velocity": 106}, {"time": 778, "pitch": 63, "duration": 5, "velocity": 106}, {"time": 784, "pitch": 44, "duration": 40, "velocity": 104}, {"time": 784, "pitch": 56, "duration": 8, "velocity": 94}, {"time": 784, "pitch": 60, "duration": 13, "velocity": 99}, {"time": 790, "pitch": 51, "duration": 12, "velocity": 76}, {"time": 802, "pitch": 56, "duration": 12, "velocity": 101}, {"time": 802, "pitch": 63, "duration": 15, "velocity": 106}, {"time": 814, "pitch": 51, "duration": 6, "velocity": 18}, {"time": 820, "pitch": 56, "duration": 3, "velocity": 91}, {"time": 820, "pitch": 60, "duration": 18, "velocity": 104}, {"time": 826, "pitch": 56, "duration": 9, "velocity": 64}, {"time": 832, "pitch": 44, "duration": 41, "velocity": 91}, {"time": 838, "pitch": 51, "duration": 13, "velocity": 64}, {"time": 844, "pitch": 56, "duration": 4, "velocity": 80}, {"time": 850, "pitch": 56, "duration": 7, "velocity": 101}, {"time": 850, "pitch": 63, "duration": 9, "velocity": 106}, {"time": 856, "pitch": 51, "duration": 7, "velocity": 62}, {"time": 862, "pitch": 56, "duration": 7, "velocity": 101}, {"time": 862, "pitch": 60, "duration": 11, "velocity": 101}, {"time": 868, "pitch": 51, "duration": 5, "velocity": 54}, {"time": 880, "pitch": 41, "duration": 37, "velocity": 99}, {"time": 880, "pitch": 53, "duration": 7, "velocity": 89}, {"time": 880, "pitch": 56, "duration": 8, "velocity": 99}, {"time": 886, "pitch": 48, "duration": 13, "velocity": 50}, {"time": 892, "pitch": 60, "duration": 11, "velocity": 52}, {"time": 898, "pitch": 65, "duration": 11, "velocity": 109}, {"time": 904, "pitch": 48, "duration": 7, "velocity": 40}, {"time": 910, "pitch": 53, "duration": 5, "velocity": 82}, {"time": 910, "pitch": 56, "duration": 8, "velocity": 104}, {"time": 910, "pitch": 60, "duration": 14, "velocity": 104}, {"time": 910, "pitch": 65, "duration": 4, "velocity": 44}, {"time": 916, "pitch": 48, "duration": 2, "velocity": 18}, {"time": 922, "pitch": 53, "duration": 3, "velocity": 96}, {"time": 928, "pitch": 48, "duration": 36, "velocity": 89}, {"time": 934, "pitch": 55, "duration": 13, "velocity": 72}, {"time": 940, "pitch": 58, "duration": 5, "velocity": 104}, {"time": 946, "pitch": 58, "duration": 19, "velocity": 101}, {"time": 946, "pitch": 63, "duration": 19, "velocity": 109}, {"time": 958, "pitch": 55, "duration": 5, "velocity": 49}, {"time": 964, "pitch": 67, "duration": 7, "velocity": 117}, {"time": 970, "pitch": 58, "duration": 3, "velocity": 76}, {"time": 976, "pitch": 41, "duration": 36, "velocity": 94}, {"time": 976, "pitch": 53, "duration": 19, "velocity": 96}, {"time": 976, "pitch": 56, "duration": 14, "velocity": 96}, {"time": 982, "pitch": 48, "duration": 13, "velocity": 47}, {"time": 988, "pitch": 60, "duration": 12, "velocity": 94}, {"time": 994, "pitch": 65, "duration": 17, "velocity": 109}, {"time": 1000, "pitch": 48, "duration": 11, "velocity": 39}, {"time": 1006, "pitch": 53, "duration": 4, "velocity": 87}, {"time": 1012, "pitch": 56, "duration": 5, "velocity": 106}, {"time": 1012, "pitch": 60, "duration": 7, "velocity": 101}, {"time": 1024, "pitch": 46, "duration": 43, "velocity": 104}, {"time": 1024, "pitch": 58, "duration": 8, "velocity": 96}, {"time": 1024, "pitch": 61, "duration": 14, "velocity": 96}, {"time": 1030, "pitch": 53, "duration": 13, "velocity": 76}, {"time": 1036, "pitch": 58, "duration": 5, "velocity": 82}, {"time": 1042, "pitch": 58, "duration": 4, "velocity": 61}, {"time": 1042, "pitch": 65, "duration": 17, "velocity": 99}, {"time": 1048, "pitch": 53, "duration": 7, "velocity": 35}, {"time": 1054, "pitch": 58, "duration": 6, "velocity": 109}, {"time": 1060, "pitch": 53, "duration": 8, "velocity": 80}, {"time": 1066, "pitch": 58, "duration": 4, "velocity": 101}, {"time": 1072, "pitch": 39, "duration": 37, "velocity": 106}, {"time": 1072, "pitch": 51, "duration": 14, "velocity": 94}, {"time": 1072, "pitch": 58, "duration": 14, "velocity": 96}, {"time": 1078, "pitch": 46, "duration": 16, "velocity": 89}, {"time": 1084, "pitch": 55, "duration": 3, "velocity": 63}, {"time": 1090, "pitch": 58, "duration": 13, "velocity": 101}, {"time": 1090, "pitch": 63, "duration": 14, "velocity": 115}, {"time": 1102, "pitch": 46, "duration": 7, "velocity": 91}, {"time": 1108, "pitch": 58, "duration": 3, "velocity": 106}, {"time": 1108, "pitch": 61, "duration": 9, "velocity": 104}, {"time": 1120, "pitch": 44, "duration": 46, "velocity": 104}, {"time": 1120, "pitch": 56, "duration": 7, "velocity": 96}, {"time": 1120, "pitch": 60, "duration": 13, "velocity": 101}, {"time": 1126, "pitch": 51, "duration": 13, "velocity": 87}, {"time": 1132, "pitch": 56, "duration": 3, "velocity": 59}, {"time": 1138, "pitch": 56, "duration": 8, "velocity": 106}, {"time": 1138, "pitch": 63, "duration": 14, "velocity": 106}, {"time": 1144, "pitch": 51, "duration": 21, "velocity": 80}, {"time": 1150, "pitch": 56, "duration": 3, "velocity": 106}, {"time": 1156, "pitch": 56, "duration": 4, "velocity": 112}, {"time": 1156, "pitch": 61, "duration": 6, "velocity": 104}, {"time": 1162, "pitch": 60, "duration": 6, "velocity": 112}, {"time": 1168, "pitch": 46, "duration": 38, "velocity": 109}, {"time": 1168, "pitch": 58, "duration": 9, "velocity": 96}, {"time": 1168, "pitch": 61, "duration": 14, "velocity": 99}, {"time": 1174, "pitch": 53, "duration": 13, "velocity": 74}, {"time": 1180, "pitch": 58, "duration": 3, "velocity": 67}, {"time": 1186, "pitch": 58, "duration": 15, "velocity": 109}, {"time": 1186, "pitch": 65, "duration": 15, "velocity": 101}, {"time": 1198, "pitch": 53, "duration": 9, "velocity": 43}, {"time": 1204, "pitch": 58, "duration": 4, "velocity": 106}, {"time": 1204, "pitch": 61, "duration": 6, "velocity": 99}, {"time": 1216, "pitch": 48, "duration": 41, "velocity": 87}, {"time": 1216, "pitch": 60, "duration": 7, "velocity": 87}, {"time": 1216, "pitch": 63, "duration": 14, "velocity": 101}, {"time": 1222, "pitch": 55, "duration": 13, "velocity": 66}, {"time": 1228, "pitch": 60, "duration": 4, "velocity": 85}, {"time": 1234, "pitch": 60, "duration": 10, "velocity": 109}, {"time": 1234, "pitch": 67, "duration": 10, "velocity": 107}, {"time": 1240, "pitch": 55, "duration": 9, "velocity": 45}, {"time": 1246, "pitch": 60, "duration": 7, "velocity": 106}, {"time": 1246, "pitch": 63, "duration": 15, "velocity": 109}, {"time": 1252, "pitch": 55, "duration": 4, "velocity": 55}, {"time": 1258, "pitch": 60, "duration": 3, "velocity": 96}, {"time": 1264, "pitch": 49, "duration": 22, "velocity": 96}, {"time": 1264, "pitch": 61, "duration": 8, "velocity": 91}, {"time": 1264, "pitch": 65, "duration": 14, "velocity": 99}, {"time": 1270, "pitch": 56, "duration": 13, "velocity": 80}, {"time": 1276, "pitch": 61, "duration": 2, "velocity": 58}, {"time": 1282, "pitch": 61, "duration": 20, "velocity": 99}, {"time": 1282, "pitch": 68, "duration": 26, "velocity": 104}, {"time": 1294, "pitch": 49, "duration": 11, "velocity": 76}, {"time": 1300, "pitch": 56, "duration": 7, "velocity": 104}, {"time": 1306, "pitch": 61, "duration": 3, "velocity": 101}, {"time": 1312, "pitch": 51, "duration": 25, "velocity": 106}, {"time": 1312, "pitch": 63, "duration": 7, "velocity": 99}, {"time": 1312, "pitch": 67, "duration": 12, "velocity": 93}, {"time": 1318, "pitch": 58, "duration": 14, "velocity": 85}, {"time": 1324, "pitch": 63, "duration": 2, "velocity": 82}, {"time": 1330, "pitch": 63, "duration": 14, "velocity": 109}, {"time": 1330, "pitch": 67, "duration": 20, "velocity": 117}, {"time": 1342, "pitch": 55, "duration": 4, "velocity": 1}, {"time": 1342, "pitch": 58, "duration": 7, "velocity": 89}, {"time": 1348, "pitch": 63, "duration": 7, "velocity": 106}, {"time": 1360, "pitch": 48, "duration": 36, "velocity": 94}, {"time": 1360, "pitch": 60, "duration": 8, "velocity": 94}, {"time": 1360, "pitch": 63, "duration": 9, "velocity": 104}, {"time": 1366, "pitch": 55, "duration": 13, "velocity": 91}, {"time": 1372, "pitch": 60, "duration": 4, "velocity": 104}, {"time": 1378, "pitch": 67, "duration": 19, "velocity": 117}, {"time": 1384, "pitch": 55, "duration": 8, "velocity": 53}, {"time": 1390, "pitch": 60, "duration": 8, "velocity": 66}, {"time": 1396, "pitch": 63, "duration": 8, "velocity": 106}, {"time": 1408, "pitch": 41, "duration": 15, "velocity": 101}, {"time": 1408, "pitch": 60, "duration": 8, "velocity": 96}, {"time": 1408, "pitch": 68, "duration": 19, "velocity": 99}, {"time": 1414, "pitch": 48, "duration": 7, "velocity": 50}, {"time": 1420, "pitch": 60, "duration": 7, "velocity": 99}, {"time": 1426, "pitch": 65, "duration": 20, "velocity": 96}, {"time": 1432, "pitch": 49, "duration": 16, "velocity": 101}, {"time": 1438, "pitch": 56, "duration": 9, "velocity": 99}, {"time": 1444, "pitch": 61, "duration": 6, "velocity": 109}, {"time": 1456, "pitch": 46, "duration": 38, "velocity": 104}, {"time": 1456, "pitch": 58, "duration": 9, "velocity": 96}, {"time": 1456, "pitch": 61, "duration": 13, "velocity": 96}, {"time": 1462, "pitch": 53, "duration": 13, "velocity": 67}, {"time": 1468, "pitch": 58, "duration": 3, "velocity": 94}, {"time": 1474, "pitch": 58, "duration": 8, "velocity": 109}, {"time": 1474, "pitch": 65, "duration": 13, "velocity": 101}, {"time": 1480, "pitch": 53, "duration": 14, "velocity": 80}, {"time": 1486, "pitch": 58, "duration": 3, "velocity": 91}, {"time": 1492, "pitch": 58, "duration": 3, "velocity": 109}, {"time": 1492, "pitch": 61, "duration": 3, "velocity": 109}, {"time": 1504, "pitch": 39, "duration": 2, "velocity": 106}, {"time": 1504, "pitch": 58, "duration": 4, "velocity": 99}, {"time": 1504, "pitch": 63, "duration": 5, "velocity": 101}, {"time": 1504, "pitch": 67, "duration": 7, "velocity": 107}, {"time": 1513, "pitch": 51, "duration": 31, "velocity": 1}, {"time": 1516, "pitch": 58, "duration": 14, "velocity": 109}, {"time": 1522, "pitch": 63, "duration": 4, "velocity": 115}, {"time": 1528, "pitch": 63, "duration": 7, "velocity": 112}, {"time": 1528, "pitch": 67, "duration": 6, "velocity": 117}, {"time": 1534, "pitch": 68, "duration": 4, "velocity": 104}, {"time": 1540, "pitch": 70, "duration": 2, "velocity": 104}, {"time": 1546, "pitch": 63, "duration": 4, "velocity": 94}, {"time": 1552, "pitch": 51, "duration": 20, "velocity": 109}, {"time": 1552, "pitch": 63, "duration": 7, "velocity": 104}, {"time": 1552, "pitch": 67, "duration": 9, "velocity": 104}, {"time": 1552, "pitch": 70, "duration": 9, "velocity": 104}, {"time": 1552, "pitch": 75, "duration": 9, "velocity": 101}, {"time": 1558, "pitch": 58, "duration": 14, "velocity": 85}, {"time": 1564, "pitch": 63, "duration": 4, "velocity": 99}, {"time": 1570, "pitch": 63, "duration": 15, "velocity": 109}, {"time": 1570, "pitch": 67, "duration": 15, "velocity": 120}, {"time": 1570, "pitch": 70, "duration": 15, "velocity": 112}, {"time": 1570, "pitch": 75, "duration": 14, "velocity": 99}, {"time": 1576, "pitch": 51, "duration": 2, "velocity": 71}, {"time": 1582, "pitch": 51, "duration": 16, "velocity": 104}, {"time": 1588, "pitch": 63, "duration": 10, "velocity": 112}, {"time": 1588, "pitch": 67, "duration": 10, "velocity": 113}, {"time": 1588, "pitch": 70, "duration": 11, "velocity": 109}, {"time": 1594, "pitch": 58, "duration": 5, "velocity": 101}, {"time": 1600, "pitch": 46, "duration": 43, "velocity": 104}, {"time": 1600, "pitch": 58, "duration": 7, "velocity": 96}, {"time": 1600, "pitch": 61, "duration": 8, "velocity": 96}, {"time": 1600, "pitch": 65, "duration": 9, "velocity": 101}, {"time": 1606, "pitch": 53, "duration": 13, "velocity": 78}, {"time": 1612, "pitch": 58, "duration": 3, "velocity": 101}, {"time": 1618, "pitch": 58, "duration": 4, "velocity": 115}, {"time": 1618, "pitch": 70, "duration": 5, "velocity": 104}, {"time": 1624, "pitch": 53, "duration": 16, "velocity": 80}, {"time": 1630, "pitch": 58, "duration": 3, "velocity": 101}, {"time": 1636, "pitch": 58, "duration": 3, "velocity": 106}, {"time": 1636, "pitch": 61, "duration": 4, "velocity": 106}, {"time": 1636, "pitch": 65, "duration": 12, "velocity": 104}, {"time": 1642, "pitch": 58, "duration": 4, "velocity": 99}, {"time": 1648, "pitch": 51, "duration": 20, "velocity": 101}, {"time": 1648, "pitch": 58, "duration": 4, "velocity": 101}, {"time": 1648, "pitch": 63, "duration": 9, "velocity": 106}, {"time": 1654, "pitch": 58, "duration": 7, "velocity": 89}, {"time": 1660, "pitch": 63, "duration": 3, "velocity": 89}, {"time": 1666, "pitch": 58, "duration": 8, "velocity": 101}, {"time": 1666, "pitch": 63, "duration": 8, "velocity": 106}, {"time": 1666, "pitch": 67, "duration": 14, "velocity": 113}, {"time": 1678, "pitch": 51, "duration": 8, "velocity": 76}, {"time": 1684, "pitch": 58, "duration": 3, "velocity": 115}, {"time": 1684, "pitch": 63, "duration": 9, "velocity": 112}, {"time": 1690, "pitch": 58, "duration": 2, "velocity": 96}, {"time": 1696, "pitch": 48, "duration": 35, "velocity": 89}, {"time": 1696, "pitch": 60, "duration": 8, "velocity": 101}, {"time": 1696, "pitch": 63, "duration": 13, "velocity": 106}, {"time": 1702, "pitch": 55, "duration": 14, "velocity": 86}, {"time": 1714, "pitch": 60, "duration": 14, "velocity": 109}, {"time": 1714, "pitch": 67, "duration": 16, "velocity": 110}, {"time": 1726, "pitch": 55, "duration": 3, "velocity": 46}, {"time": 1732, "pitch": 60, "duration": 4, "velocity": 101}, {"time": 1732, "pitch": 63, "duration": 8, "velocity": 106}, {"time": 1738, "pitch": 60, "duration": 3, "velocity": 82}, {"time": 1744, "pitch": 41, "duration": 39, "velocity": 99}, {"time": 1744, "pitch": 60, "duration": 6, "velocity": 99}, {"time": 1744, "pitch": 68, "duration": 11, "velocity": 101}, {"time": 1750, "pitch": 48, "duration": 13, "velocity": 64}, {"time": 1756, "pitch": 60, "duration": 3, "velocity": 76}, {"time": 1762, "pitch": 60, "duration": 8, "velocity": 104}, {"time": 1762, "pitch": 65, "duration": 9, "velocity": 101}, {"time": 1768, "pitch": 48, "duration": 14, "velocity": 69}, {"time": 1774, "pitch": 60, "duration": 3, "velocity": 99}, {"time": 1780, "pitch": 68, "duration": 5, "velocity": 109}, {"time": 1786, "pitch": 67, "duration": 5, "velocity": 113}, {"time": 1792, "pitch": 46, "duration": 25, "velocity": 104}, {"time": 1792, "pitch": 65, "duration": 13, "velocity": 94}, {"time": 1798, "pitch": 53, "duration": 13, "velocity": 76}, {"time": 1804, "pitch": 58, "duration": 3, "velocity": 89}, {"time": 1810, "pitch": 58, "duration": 12, "velocity": 109}, {"time": 1810, "pitch": 61, "duration": 12, "velocity": 104}, {"time": 1822, "pitch": 46, "duration": 12, "velocity": 71}, {"time": 1828, "pitch": 58, "duration": 3, "velocity": 112}, {"time": 1828, "pitch": 61, "duration": 7, "velocity": 112}, {"time": 1828, "pitch": 65, "duration": 9, "velocity": 109}, {"time": 1834, "pitch": 58, "duration": 4, "velocity": 85}, {"time": 1840, "pitch": 51, "duration": 22, "velocity": 104}, {"time": 1840, "pitch": 58, "duration": 3, "velocity": 104}, {"time": 1840, "pitch": 63, "duration": 8, "velocity": 106}, {"time": 1846, "pitch": 58, "duration": 8, "velocity": 87}, {"time": 1852, "pitch": 63, "duration": 2, "velocity": 76}, {"time": 1858, "pitch": 58, "duration": 16, "velocity": 109}, {"time": 1858, "pitch": 63, "duration": 15, "velocity": 112}, {"time": 1858, "pitch": 67, "duration": 16, "velocity": 113}, {"time": 1870, "pitch": 51, "duration": 13, "velocity": 99}, {"time": 1876, "pitch": 58, "duration": 3, "velocity": 99}, {"time": 1876, "pitch": 63, "duration": 2, "velocity": 104}, {"time": 1876, "pitch": 68, "duration": 7, "velocity": 106}, {"time": 1882, "pitch": 67, "duration": 6, "velocity": 110}, {"time": 1888, "pitch": 46, "duration": 20, "velocity": 87}, {"time": 1888, "pitch": 65, "duration": 13, "velocity": 94}, {"time": 1894, "pitch": 53, "duration": 13, "velocity": 85}, {"time": 1900, "pitch": 58, "duration": 3, "velocity": 101}, {"time": 1906, "pitch": 58, "duration": 15, "velocity": 109}, {"time": 1906, "pitch": 61, "duration": 15, "velocity": 106}, {"time": 1918, "pitch": 46, "duration": 8, "velocity": 73}, {"time": 1924, "pitch": 58, "duration": 3, "velocity": 112}, {"time": 1924, "pitch": 61, "duration": 8, "velocity": 106}, {"time": 1930, "pitch": 58, "duration": 3, "velocity": 78}, {"time": 1936, "pitch": 39, "duration": 2, "velocity": 106}, {"time": 1936, "pitch": 58, "duration": 5, "velocity": 104}, {"time": 1936, "pitch": 63, "duration": 7, "velocity": 109}, {"time": 1942, "pitch": 51, "duration": 35, "velocity": 48}, {"time": 1948, "pitch": 58, "duration": 26, "velocity": 109}, {"time": 1954, "pitch": 63, "duration": 3, "velocity": 87}, {"time": 1954, "pitch": 67, "duration": 4, "velocity": 63}, {"time": 1960, "pitch": 63, "duration": 7, "velocity": 115}, {"time": 1960, "pitch": 67, "duration": 7, "velocity": 120}, {"time": 1966, "pitch": 68, "duration": 5, "velocity": 109}, {"time": 1972, "pitch": 63, "duration": 4, "velocity": 106}, {"time": 1972, "pitch": 70, "duration": 6, "velocity": 104}, {"time": 1978, "pitch": 68, "duration": 6, "velocity": 106}, {"time": 1984, "pitch": 46, "duration": 43, "velocity": 104}, {"time": 1984, "pitch": 58, "duration": 7, "velocity": 96}, {"time": 1984, "pitch": 61, "duration": 8, "velocity": 96}, {"time": 1984, "pitch": 65, "duration": 9, "velocity": 101}, {"time": 1990, "pitch": 53, "duration": 13, "velocity": 78}, {"time": 1996, "pitch": 58, "duration": 3, "velocity": 101}, {"time": 2002, "pitch": 58, "duration": 4, "velocity": 115}, {"time": 2002, "pitch": 70, "duration": 5, "velocity": 104}, {"time": 2008, "pitch": 53, "duration": 16, "velocity": 80}, {"time": 2014, "pitch": 58, "duration": 3, "velocity": 101}, {"time": 2020, "pitch": 58, "duration": 3, "velocity": 106}, {"time": 2020, "pitch": 61, "duration": 4, "velocity": 106}, {"time": 2020, "pitch": 65, "duration": 12, "velocity": 104}, {"time": 2026, "pitch": 58, "duration": 4, "velocity": 99}, {"time": 2032, "pitch": 51, "duration": 20, "velocity": 101}, {"time": 2032, "pitch": 58, "duration": 4, "velocity": 101}, {"time": 2032, "pitch": 63, "duration": 9, "velocity": 106}, {"time": 2038, "pitch": 58, "duration": 7, "velocity": 89}, {"time": 2044, "pitch": 63, "duration": 3, "velocity": 89}, {"time": 2050, "pitch": 58, "duration": 8, "velocity": 101}, {"time": 2050, "pitch": 63, "duration": 8, "velocity": 106}, {"time": 2050, "pitch": 67, "duration": 14, "velocity": 113}, {"time": 2062, "pitch": 51, "duration": 8, "velocity": 76}, {"time": 2068, "pitch": 58, "duration": 3, "velocity": 115}, {"time": 2068, "pitch": 63, "duration": 9, "velocity": 112}, {"time": 2074, "pitch": 58, "duration": 2, "velocity": 96}, {"time": 2080, "pitch": 48, "duration": 35, "velocity": 89}, {"time": 2080, "pitch": 60, "duration": 8, "velocity": 101}, {"time": 2080, "pitch": 63, "duration": 13, "velocity": 106}, {"time": 2086, "pitch": 55, "duration": 14, "velocity": 86}, {"time": 2098, "pitch": 60, "duration": 14, "velocity": 109}, {"time": 2098, "pitch": 67, "duration": 16, "velocity": 110}, {"time": 2110, "pitch": 55, "duration": 3, "velocity": 46}, {"time": 2116, "pitch": 60, "duration": 4, "velocity": 101}, {"time": 2116, "pitch": 63, "duration": 8, "velocity": 106}, {"time": 2122, "pitch": 60, "duration": 3, "velocity": 82}, {"time": 2128, "pitch": 41, "duration": 39, "velocity": 99}, {"time": 2128, "pitch": 60, "duration": 6, "velocity": 99}, {"time": 2128, "pitch": 68, "duration": 11, "velocity": 101}, {"time": 2134, "pitch": 48, "duration": 13, "velocity": 64}, {"time": 2140, "pitch": 60, "duration": 3, "velocity": 76}, {"time": 2146, "pitch": 60, "duration": 8, "velocity": 104}, {"time": 2146, "pitch": 65, "duration": 9, "velocity": 101}, {"time": 2152, "pitch": 48, "duration": 14, "velocity": 69}, {"time": 2158, "pitch": 60, "duration": 3, "velocity": 99}, {"time": 2164, "pitch": 68, "duration": 5, "velocity": 109}, {"time": 2170, "pitch": 67, "duration": 5, "velocity": 113}, {"time": 2176, "pitch": 46, "duration": 25, "velocity": 104}, {"time": 2176, "pitch": 65, "duration": 13, "velocity": 94}, {"time": 2182, "pitch": 53, "duration": 13, "velocity": 76}, {"time": 2188, "pitch": 58, "duration": 3, "velocity": 89}, {"time": 2194, "pitch": 58, "duration": 12, "velocity": 109}, {"time": 2194, "pitch": 61, "duration": 12, "velocity": 104}, {"time": 2206, "pitch": 46, "duration": 12, "velocity": 71}, {"time": 2212, "pitch": 58, "duration": 3, "velocity": 112}, {"time": 2212, "pitch": 61, "duration": 7, "velocity": 112}, {"time": 2212, "pitch": 65, "duration": 9, "velocity": 109}, {"time": 2218, "pitch": 58, "duration": 4, "velocity": 85}, {"time": 2224, "pitch": 51, "duration": 22, "velocity": 104}, {"time": 2224, "pitch": 58, "duration": 3, "velocity": 104}, {"time": 2224, "pitch": 63, "duration": 8, "velocity": 106}, {"time": 2230, "pitch": 58, "duration": 8, "velocity": 87}, {"time": 2236, "pitch": 63, "duration": 2, "velocity": 76}, {"time": 2242, "pitch": 58, "duration": 16, "velocity": 109}, {"time": 2242, "pitch": 63, "duration": 15, "velocity": 112}, {"time": 2242, "pitch": 67, "duration": 16, "velocity": 113}, {"time": 2254, "pitch": 51, "duration": 13, "velocity": 99}, {"time": 2260, "pitch": 58, "duration": 3, "velocity": 99}, {"time": 2260, "pitch": 63, "duration": 2, "velocity": 104}, {"time": 2260, "pitch": 68, "duration": 7, "velocity": 106}, {"time": 2266, "pitch": 67, "duration": 6, "velocity": 110}, {"time": 2272, "pitch": 46, "duration": 21, "velocity": 101}, {"time": 2272, "pitch": 58, "duration": 8, "velocity": 104}, {"time": 2272, "pitch": 61, "duration": 13, "velocity": 96}, {"time": 2278, "pitch": 53, "duration": 12, "velocity": 74}, {"time": 2284, "pitch": 58, "duration": 7, "velocity": 109}, {"time": 2290, "pitch": 61, "duration": 5, "velocity": 106}, {"time": 2296, "pitch": 51, "duration": 15, "velocity": 96}, {"time": 2296, "pitch": 58, "duration": 4, "velocity": 106}, {"time": 2296, "pitch": 63, "duration": 7, "velocity": 106}, {"time": 2302, "pitch": 58, "duration": 4, "velocity": 104}, {"time": 2308, "pitch": 58, "duration": 3, "velocity": 109}, {"time": 2308, "pitch": 67, "duration": 7, "velocity": 110}, {"time": 2314, "pitch": 58, "duration": 3, "velocity": 91}, {"time": 2320, "pitch": 44, "duration": 25, "velocity": 101}, {"time": 2320, "pitch": 56, "duration": 8, "velocity": 94}, {"time": 2320, "pitch": 60, "duration": 15, "velocity": 91}, {"time": 2326, "pitch": 51, "duration": 14, "velocity": 76}, {"time": 2332, "pitch": 56, "duration": 3, "velocity": 67}, {"time": 2338, "pitch": 56, "duration": 11, "velocity": 104}, {"time": 2338, "pitch": 60, "duration": 13, "velocity": 104}, {"time": 2338, "pitch": 63, "duration": 14, "velocity": 106}, {"time": 2350, "pitch": 51, "duration": 12, "velocity": 78}, {"time": 2356, "pitch": 56, "duration": 5, "velocity": 104}, {"time": 2362, "pitch": 56, "duration": 6, "velocity": 80}, {"time": 2362, "pitch": 60, "duration": 5, "velocity": 59}, {"time": 2362, "pitch": 63, "duration": 7, "velocity": 96}, {"time": 2368, "pitch": 47, "duration": 25, "velocity": 63}, {"time": 2368, "pitch": 59, "duration": 7, "velocity": 66}, {"time": 2368, "pitch": 63, "duration": 1, "velocity": 101}, {"time": 2368, "pitch": 66, "duration": 13, "velocity": 82}, {"time": 2374, "pitch": 54, "duration": 15, "velocity": 73}, {"time": 2380, "pitch": 59, "duration": 21, "velocity": 107}, {"time": 2386, "pitch": 63, "duration": 15, "velocity": 106}, {"time": 2386, "pitch": 66, "duration": 15, "velocity": 106}, {"time": 2398, "pitch": 54, "duration": 8, "velocity": 50}, {"time": 2404, "pitch": 59, "duration": 2, "velocity": 104}, {"time": 2404, "pitch": 63, "duration": 7, "velocity": 104}, {"time": 2404, "pitch": 66, "duration": 11, "velocity": 104}, {"time": 2410, "pitch": 59, "duration": 3, "velocity": 83}, {"time": 2416, "pitch": 46, "duration": 42, "velocity": 96}, {"time": 2416, "pitch": 58, "duration": 7, "velocity": 99}, {"time": 2416, "pitch": 61, "duration": 14, "velocity": 96}, {"time": 2422, "pitch": 53, "duration": 13, "velocity": 82}, {"time": 2434, "pitch": 58, "duration": 15, "velocity": 106}, {"time": 2434, "pitch": 65, "duration": 15, "velocity": 104}, {"time": 2446, "pitch": 53, "duration": 11, "velocity": 31}, {"time": 2452, "pitch": 58, "duration": 3, "velocity": 101}, {"time": 2452, "pitch": 61, "duration": 7, "velocity": 96}, {"time": 2458, "pitch": 58, "duration": 2, "velocity": 69}, {"time": 2464, "pitch": 44, "duration": 45, "velocity": 99}, {"time": 2464, "pitch": 56, "duration": 8, "velocity": 91}, {"time": 2464, "pitch": 63, "duration": 14, "velocity": 99}, {"time": 2470, "pitch": 51, "duration": 13, "velocity": 56}, {"time": 2476, "pitch": 56, "duration": 3, "velocity": 66}, {"time": 2482, "pitch": 56, "duration": 14, "velocity": 104}, {"time": 2482, "pitch": 63, "duration": 15, "velocity": 106}, {"time": 2494, "pitch": 51, "duration": 11, "velocity": 69}, {"time": 2500, "pitch": 56, "duration": 9, "velocity": 101}, {"time": 2500, "pitch": 61, "duration": 11, "velocity": 104}, {"time": 2512, "pitch": 44, "duration": 24, "velocity": 101}, {"time": 2512, "pitch": 56, "duration": 6, "velocity": 96}, {"time": 2512, "pitch": 60, "duration": 9, "velocity": 96}, {"time": 2518, "pitch": 51, "duration": 14, "velocity": 74}, {"time": 2524, "pitch": 56, "duration": 3, "velocity": 61}, {"time": 2530, "pitch": 56, "duration": 15, "velocity": 101}, {"time": 2530, "pitch": 63, "duration": 16, "velocity": 106}, {"time": 2542, "pitch": 44, "duration": 7, "velocity": 32}, {"time": 2548, "pitch": 56, "duration": 2, "velocity": 109}, {"time": 2548, "pitch": 63, "duration": 8, "velocity": 106}, {"time": 2554, "pitch": 56, "duration": 6, "velocity": 61}, {"time": 2560, "pitch": 47, "duration": 21, "velocity": 83}, {"time": 2560, "pitch": 59, "duration": 7, "velocity": 96}, {"time": 2560, "pitch": 63, "duration": 13, "velocity": 101}, {"time": 2566, "pitch": 54, "duration": 13, "velocity": 71}, {"time": 2572, "pitch": 59, "duration": 3, "velocity": 61}, {"time": 2578, "pitch": 59, "duration": 16, "velocity": 117}, {"time": 2578, "pitch": 63, "duration": 19, "velocity": 106}, {"time": 2590, "pitch": 54, "duration": 18, "velocity": 73}, {"time": 2596, "pitch": 59, "duration": 7, "velocity": 110}, {"time": 2602, "pitch": 63, "duration": 7, "velocity": 104}, {"time": 2608, "pitch": 46, "duration": 22, "velocity": 99}, {"time": 2608, "pitch": 58, "duration": 8, "velocity": 99}, {"time": 2608, "pitch": 61, "duration": 11, "velocity": 94}, {"time": 2614, "pitch": 53, "duration": 13, "velocity": 74}, {"time": 2626, "pitch": 58, "duration": 15, "velocity": 106}, {"time": 2626, "pitch": 61, "duration": 15, "velocity": 106}, {"time": 2626, "pitch": 65, "duration": 15, "velocity": 101}, {"time": 2638, "pitch": 46, "duration": 11, "velocity": 67}, {"time": 2644, "pitch": 58, "duration": 3, "velocity": 109}, {"time": 2644, "pitch": 61, "duration": 7, "velocity": 104}, {"time": 2650, "pitch": 58, "duration": 2, "velocity": 73}, {"time": 2656, "pitch": 44, "duration": 25, "velocity": 101}, {"time": 2656, "pitch": 56, "duration": 8, "velocity": 101}, {"time": 2656, "pitch": 60, "duration": 14, "velocity": 101}, {"time": 2662, "pitch": 51, "duration": 13, "velocity": 47}, {"time": 2674, "pitch": 56, "duration": 10, "velocity": 104}, {"time": 2674, "pitch": 60, "duration": 9, "velocity": 106}, {"time": 2674, "pitch": 63, "duration": 9, "velocity": 106}, {"time": 2692, "pitch": 44, "duration": 6, "velocity": 106}, {"time": 2698, "pitch": 56, "duration": 5, "velocity": 96}, {"time": 2704, "pitch": 40, "duration": 12, "velocity": 113}, {"time": 2704, "pitch": 56, "duration": 4, "velocity": 76}, {"time": 2704, "pitch": 59, "duration": 8, "velocity": 110}, {"time": 2704, "pitch": 64, "duration": 10, "velocity": 110}, {"time": 2710, "pitch": 56, "duration": 13, "velocity": 82}, {"time": 2716, "pitch": 59, "duration": 7, "velocity": 120}, {"time": 2722, "pitch": 64, "duration": 4, "velocity": 99}, {"time": 2728, "pitch": 42, "duration": 12, "velocity": 104}, {"time": 2728, "pitch": 54, "duration": 7, "velocity": 106}, {"time": 2728, "pitch": 58, "duration": 8, "velocity": 109}, {"time": 2734, "pitch": 49, "duration": 6, "velocity": 91}, {"time": 2740, "pitch": 58, "duration": 12, "velocity": 101}, {"time": 2740, "pitch": 61, "duration": 12, "velocity": 94}, {"time": 2740, "pitch": 66, "duration": 13, "velocity": 101}, {"time": 2746, "pitch": 54, "duration": 6, "velocity": 85}, {"time": 2752, "pitch": 44, "duration": 40, "velocity": 104}, {"time": 2752, "pitch": 56, "duration": 8, "velocity": 94}, {"time": 2752, "pitch": 60, "duration": 13, "velocity": 99}, {"time": 2758, "pitch": 51, "duration": 12, "velocity": 76}, {"time": 2770, "pitch": 56, "duration": 12, "velocity": 101}, {"time": 2770, "pitch": 63, "duration": 15, "velocity": 106}, {"time": 2782, "pitch": 51, "duration": 6, "velocity": 18}, {"time": 2788, "pitch": 56, "duration": 3, "velocity": 91}, {"time": 2788, "pitch": 60, "duration": 18, "velocity": 104}, {"time": 2794, "pitch": 56, "duration": 9, "velocity": 64}, {"time": 2800, "pitch": 44, "duration": 41, "velocity": 91}, {"time": 2806, "pitch": 51, "duration": 13, "velocity": 64}, {"time": 2812, "pitch": 56, "duration": 4, "velocity": 80}, {"time": 2818, "pitch": 56, "duration": 7, "velocity": 101}, {"time": 2818, "pitch": 63, "duration": 9, "velocity": 106}, {"time": 2824, "pitch": 51, "duration": 7, "velocity": 62}, {"time": 2830, "pitch": 56, "duration": 7, "velocity": 101}, {"time": 2830, "pitch": 60, "duration": 11, "velocity": 101}, {"time": 2836, "pitch": 51, "duration": 5, "velocity": 54}, {"time": 2848, "pitch": 41, "duration": 37, "velocity": 99}, {"time": 2848, "pitch": 53, "duration": 7, "velocity": 89}, {"time": 2848, "pitch": 56, "duration": 8, "velocity": 99}, {"time": 2854, "pitch": 48, "duration": 13, "velocity": 50}, {"time": 2860, "pitch": 60, "duration": 11, "velocity": 52}, {"time": 2866, "pitch": 65, "duration": 11, "velocity": 109}, {"time": 2872, "pitch": 48, "duration": 7, "velocity": 40}, {"time": 2878, "pitch": 53, "duration": 5, "velocity": 82}, {"time": 2878, "pitch": 56, "duration": 8, "velocity": 104}, {"time": 2878, "pitch": 60, "duration": 14, "velocity": 104}, {"time": 2878, "pitch": 65, "duration": 4, "velocity": 44}, {"time": 2884, "pitch": 48, "duration": 2, "velocity": 18}, {"time": 2890, "pitch": 53, "duration": 3, "velocity": 96}, {"time": 2896, "pitch": 48, "duration": 36, "velocity": 89}, {"time": 2902, "pitch": 55, "duration": 13, "velocity": 72}, {"time": 2908, "pitch": 58, "duration": 5, "velocity": 104}, {"time": 2914, "pitch": 58, "duration": 19, "velocity": 101}, {"time": 2914, "pitch": 63, "duration": 19, "velocity": 109}, {"time": 2926, "pitch": 55, "duration": 5, "velocity": 49}, {"time": 2932, "pitch": 67, "duration": 7, "velocity": 117}, {"time": 2938, "pitch": 58, "duration": 3, "velocity": 76}, {"time": 2944, "pitch": 41, "duration": 36, "velocity": 94}, {"time": 2944, "pitch": 53, "duration": 19, "velocity": 96}, {"time": 2944, "pitch": 56, "duration": 14, "velocity": 96}, {"time": 2950, "pitch": 48, "duration": 13, "velocity": 47}, {"time": 2956, "pitch": 60, "duration": 12, "velocity": 94}, {"time": 2962, "pitch": 65, "duration": 17, "velocity": 109}, {"time": 2968, "pitch": 48, "duration": 11, "velocity": 39}, {"time": 2974, "pitch": 53, "duration": 4, "velocity": 87}, {"time": 2980, "pitch": 56, "duration": 5, "velocity": 106}, {"time": 2980, "pitch": 60, "duration": 7, "velocity": 101}, {"time": 2992, "pitch": 46, "duration": 43, "velocity": 104}, {"time": 2992, "pitch": 58, "duration": 8, "velocity": 96}, {"time": 2992, "pitch": 61, "duration": 14, "velocity": 96}, {"time": 2998, "pitch": 53, "duration": 13, "velocity": 76}, {"time": 3004, "pitch": 58, "duration": 5, "velocity": 82}, {"time": 3010, "pitch": 58, "duration": 4, "velocity": 61}, {"time": 3010, "pitch": 65, "duration": 17, "velocity": 99}, {"time": 3016, "pitch": 53, "duration": 7, "velocity": 35}, {"time": 3022, "pitch": 58, "duration": 6, "velocity": 109}, {"time": 3028, "pitch": 53, "duration": 8, "velocity": 80}, {"time": 3034, "pitch": 58, "duration": 4, "velocity": 101}, {"time": 3040, "pitch": 39, "duration": 37, "velocity": 106}, {"time": 3040, "pitch": 51, "duration": 14, "velocity": 94}, {"time": 3040, "pitch": 58, "duration": 14, "velocity": 96}, {"time": 3046, "pitch": 46, "duration": 16, "velocity": 89}, {"time": 3052, "pitch": 55, "duration": 3, "velocity": 63}, {"time": 3058, "pitch": 58, "duration": 13, "velocity": 101}, {"time": 3058, "pitch": 63, "duration": 14, "velocity": 115}, {"time": 3070, "pitch": 46, "duration": 7, "velocity": 91}, {"time": 3076, "pitch": 58, "duration": 3, "velocity": 106}, {"time": 3076, "pitch": 61, "duration": 9, "velocity": 104}, {"time": 3088, "pitch": 44, "duration": 46, "velocity": 104}, {"time": 3088, "pitch": 56, "duration": 7, "velocity": 96}, {"time": 3088, "pitch": 60, "duration": 13, "velocity": 101}, {"time": 3094, "pitch": 51, "duration": 13, "velocity": 87}, {"time": 3100, "pitch": 56, "duration": 3, "velocity": 59}, {"time": 3106, "pitch": 56, "duration": 8, "velocity": 106}, {"time": 3106, "pitch": 63, "duration": 14, "velocity": 106}, {"time": 3112, "pitch": 51, "duration": 21, "velocity": 80}, {"time": 3118, "pitch": 56, "duration": 3, "velocity": 106}, {"time": 3124, "pitch": 56, "duration": 4, "velocity": 112}, {"time": 3124, "pitch": 61, "duration": 6, "velocity": 104}, {"time": 3130, "pitch": 60, "duration": 6, "velocity": 112}, {"time": 3136, "pitch": 46, "duration": 38, "velocity": 109}, {"time": 3136, "pitch": 58, "duration": 9, "velocity": 96}, {"time": 3136, "pitch": 61, "duration": 14, "velocity": 99}, {"time": 3142, "pitch": 53, "duration": 13, "velocity": 74}, {"time": 3148, "pitch": 58, "duration": 3, "velocity": 67}, {"time": 3154, "pitch": 58, "duration": 15, "velocity": 109}, {"time": 3154, "pitch": 65, "duration": 15, "velocity": 101}, {"time": 3166, "pitch": 53, "duration": 9, "velocity": 43}, {"time": 3172, "pitch": 58, "duration": 4, "velocity": 106}, {"time": 3172, "pitch": 61, "duration": 6, "velocity": 99}, {"time": 3184, "pitch": 48, "duration": 41, "velocity": 87}, {"time": 3184, "pitch": 60, "duration": 7, "velocity": 87}, {"time": 3184, "pitch": 63, "duration": 14, "velocity": 101}, {"time": 3190, "pitch": 55, "duration": 13, "velocity": 66}, {"time": 3196, "pitch": 60, "duration": 4, "velocity": 85}, {"time": 3202, "pitch": 60, "duration": 10, "velocity": 109}, {"time": 3202, "pitch": 67, "duration": 10, "velocity": 107}, {"time": 3208, "pitch": 55, "duration": 9, "velocity": 45}, {"time": 3214, "pitch": 60, "duration": 7, "velocity": 106}, {"time": 3214, "pitch": 63, "duration": 15, "velocity": 109}, {"time": 3220, "pitch": 55, "duration": 4, "velocity": 55}, {"time": 3226, "pitch": 60, "duration": 3, "velocity": 96}, {"time": 3232, "pitch": 49, "duration": 22, "velocity": 96}, {"time": 3232, "pitch": 61, "duration": 8, "velocity": 91}, {"time": 3232, "pitch": 65, "duration": 14, "velocity": 99}, {"time": 3238, "pitch": 56, "duration": 13, "velocity": 80}, {"time": 3244, "pitch": 61, "duration": 2, "velocity": 58}, {"time": 3250, "pitch": 61, "duration": 20, "velocity": 99}, {"time": 3250, "pitch": 68, "duration": 26, "velocity": 104}, {"time": 3262, "pitch": 49, "duration": 11, "velocity": 76}, {"time": 3268, "pitch": 56, "duration": 7, "velocity": 104}, {"time": 3274, "pitch": 61, "duration": 3, "velocity": 101}, {"time": 3280, "pitch": 51, "duration": 25, "velocity": 106}, {"time": 3280, "pitch": 63, "duration": 7, "velocity": 99}, {"time": 3280, "pitch": 67, "duration": 12, "velocity": 93}, {"time": 3286, "pitch": 58, "duration": 14, "velocity": 85}, {"time": 3292, "pitch": 63, "duration": 2, "velocity": 82}, {"time": 3298, "pitch": 63, "duration": 14, "velocity": 109}, {"time": 3298, "pitch": 67, "duration": 20, "velocity": 117}, {"time": 3310, "pitch": 55, "duration": 4, "velocity": 1}, {"time": 3310, "pitch": 58, "duration": 7, "velocity": 89}, {"time": 3316, "pitch": 63, "duration": 7, "velocity": 106}, {"time": 3328, "pitch": 48, "duration": 36, "velocity": 94}, {"time": 3328, "pitch": 60, "duration": 8, "velocity": 94}, {"time": 3328, "pitch": 63, "duration": 9, "velocity": 104}, {"time": 3334, "pitch": 55, "duration": 13, "velocity": 91}, {"time": 3340, "pitch": 60, "duration": 4, "velocity": 104}, {"time": 3346, "pitch": 67, "duration": 19, "velocity": 117}, {"time": 3352, "pitch": 55, "duration": 8, "velocity": 53}, {"time": 3358, "pitch": 60, "duration": 8, "velocity": 66}, {"time": 3364, "pitch": 63, "duration": 8, "velocity": 106}, {"time": 3376, "pitch": 41, "duration": 15, "velocity": 101}, {"time": 3376, "pitch": 60, "duration": 8, "velocity": 96}, {"time": 3376, "pitch": 68, "duration": 19, "velocity": 99}, {"time": 3382, "pitch": 48, "duration": 7, "velocity": 50}, {"time": 3388, "pitch": 60, "duration": 7, "velocity": 99}, {"time": 3394, "pitch": 65, "duration": 20, "velocity": 96}, {"time": 3400, "pitch": 49, "duration": 16, "velocity": 101}, {"time": 3406, "pitch": 56, "duration": 9, "velocity": 99}, {"time": 3412, "pitch": 61, "duration": 6, "velocity": 109}, {"time": 3424, "pitch": 46, "duration": 38, "velocity": 104}, {"time": 3424, "pitch": 58, "duration": 9, "velocity": 96}, {"time": 3424, "pitch": 61, "duration": 13, "velocity": 96}, {"time": 3430, "pitch": 53, "duration": 13, "velocity": 67}, {"time": 3436, "pitch": 58, "duration": 3, "velocity": 94}, {"time": 3442, "pitch": 58, "duration": 8, "velocity": 109}, {"time": 3442, "pitch": 65, "duration": 13, "velocity": 101}, {"time": 3448, "pitch": 53, "duration": 14, "velocity": 80}, {"time": 3454, "pitch": 58, "duration": 3, "velocity": 91}, {"time": 3460, "pitch": 58, "duration": 3, "velocity": 109}, {"time": 3460, "pitch": 61, "duration": 3, "velocity": 109}, {"time": 3472, "pitch": 39, "duration": 2, "velocity": 106}, {"time": 3472, "pitch": 58, "duration": 4, "velocity": 99}, {"time": 3472, "pitch": 63, "duration": 5, "velocity": 101}, {"time": 3472, "pitch": 67, "duration": 7, "velocity": 107}, {"time": 3481, "pitch": 51, "duration": 31, "velocity": 1}, {"time": 3484, "pitch": 58, "duration": 14, "velocity": 109}, {"time": 3490, "pitch": 63, "duration": 4, "velocity": 115}, {"time": 3496, "pitch": 63, "duration": 7, "velocity": 112}, {"time": 3496, "pitch": 67, "duration": 6, "velocity": 117}, {"time": 3502, "pitch": 68, "duration": 4, "velocity": 104}, {"time": 3508, "pitch": 70, "duration": 2, "velocity": 104}, {"time": 3514, "pitch": 63, "duration": 4, "velocity": 94}, {"time": 3520, "pitch": 51, "duration": 20, "velocity": 109}, {"time": 3520, "pitch": 63, "duration": 7, "velocity": 104}, {"time": 3520, "pitch": 67, "duration": 9, "velocity": 104}, {"time": 3520, "pitch": 70, "duration": 9, "velocity": 104}, {"time": 3520, "pitch": 75, "duration": 9, "velocity": 101}, {"time": 3526, "pitch": 58, "duration": 14, "velocity": 85}, {"time": 3532, "pitch": 63, "duration": 4, "velocity": 99}, {"time": 3538, "pitch": 63, "duration": 15, "velocity": 109}, {"time": 3538, "pitch": 67, "duration": 15, "velocity": 120}, {"time": 3538, "pitch": 70, "duration": 15, "velocity": 112}, {"time": 3538, "pitch": 75, "duration": 14, "velocity": 99}, {"time": 3544, "pitch": 51, "duration": 2, "velocity": 71}, {"time": 3550, "pitch": 51, "duration": 16, "velocity": 104}, {"time": 3556, "pitch": 63, "duration": 10, "velocity": 112}, {"time": 3556, "pitch": 67, "duration": 10, "velocity": 113}, {"time": 3556, "pitch": 70, "duration": 11, "velocity": 109}, {"time": 3562, "pitch": 58, "duration": 5, "velocity": 101}, {"time": 3568, "pitch": 46, "duration": 43, "velocity": 104}, {"time": 3568, "pitch": 58, "duration": 7, "velocity": 96}, {"time": 3568, "pitch": 61, "duration": 8, "velocity": 96}, {"time": 3568, "pitch": 65, "duration": 9, "velocity": 101}, {"time": 3574, "pitch": 53, "duration": 13, "velocity": 78}, {"time": 3580, "pitch": 58, "duration": 3, "velocity": 101}, {"time": 3586, "pitch": 58, "duration": 4, "velocity": 115}, {"time": 3586, "pitch": 70, "duration": 5, "velocity": 104}, {"time": 3592, "pitch": 53, "duration": 16, "velocity": 80}, {"time": 3598, "pitch": 58, "duration": 3, "velocity": 101}, {"time": 3604, "pitch": 58, "duration": 3, "velocity": 106}, {"time": 3604, "pitch": 61, "duration": 4, "velocity": 106}, {"time": 3604, "pitch": 65, "duration": 12, "velocity": 104}, {"time": 3610, "pitch": 58, "duration": 4, "velocity": 99}, {"time": 3616, "pitch": 51, "duration": 20, "velocity": 101}, {"time": 3616, "pitch": 58, "duration": 4, "velocity": 101}, {"time": 3616, "pitch": 63, "duration": 9, "velocity": 106}, {"time": 3622, "pitch": 58, "duration": 7, "velocity": 89}, {"time": 3628, "pitch": 63, "duration": 3, "velocity": 89}, {"time": 3634, "pitch": 58, "duration": 8, "velocity": 101}, {"time": 3634, "pitch": 63, "duration": 8, "velocity": 106}, {"time": 3634, "pitch": 67, "duration": 14, "velocity": 113}, {"time": 3646, "pitch": 51, "duration": 8, "velocity": 76}, {"time": 3652, "pitch": 58, "duration": 3, "velocity": 115}, {"time": 3652, "pitch": 63, "duration": 9, "velocity": 112}, {"time": 3658, "pitch": 58, "duration": 2, "velocity": 96}, {"time": 3664, "pitch": 48, "duration": 35, "velocity": 89}, {"time": 3664, "pitch": 60, "duration": 8, "velocity": 101}, {"time": 3664, "pitch": 63, "duration": 13, "velocity": 106}, {"time": 3670, "pitch": 55, "duration": 14, "velocity": 86}, {"time": 3682, "pitch": 60, "duration": 14, "velocity": 109}, {"time": 3682, "pitch": 67, "duration": 16, "velocity": 110}, {"time": 3694, "pitch": 55, "duration": 3, "velocity": 46}, {"time": 3700, "pitch": 60, "duration": 4, "velocity": 101}, {"time": 3700, "pitch": 63, "duration": 8, "velocity": 106}, {"time": 3706, "pitch": 60, "duration": 3, "velocity": 82}, {"time": 3712, "pitch": 41, "duration": 39, "velocity": 99}, {"time": 3712, "pitch": 60, "duration": 6, "velocity": 99}, {"time": 3712, "pitch": 68, "duration": 11, "velocity": 101}, {"time": 3718, "pitch": 48, "duration": 13, "velocity": 64}, {"time": 3724, "pitch": 60, "duration": 3, "velocity": 76}, {"time": 3730, "pitch": 60, "duration": 8, "velocity": 104}, {"time": 3730, "pitch": 65, "duration": 9, "velocity": 101}, {"time": 3736, "pitch": 48, "duration": 14, "velocity": 69}, {"time": 3742, "pitch": 60, "duration": 3, "velocity": 99}, {"time": 3748, "pitch": 68, "duration": 5, "velocity": 109}, {"time": 3754, "pitch": 67, "duration": 5, "velocity": 113}, {"time": 3760, "pitch": 46, "duration": 25, "velocity": 104}, {"time": 3760, "pitch": 65, "duration": 13, "velocity": 94}, {"time": 3766, "pitch": 53, "duration": 13, "velocity": 76}, {"time": 3772, "pitch": 58, "duration": 3, "velocity": 89}, {"time": 3778, "pitch": 58, "duration": 12, "velocity": 109}, {"time": 3778, "pitch": 61, "duration": 12, "velocity": 104}, {"time": 3790, "pitch": 46, "duration": 12, "velocity": 71}, {"time": 3796, "pitch": 58, "duration": 3, "velocity": 112}, {"time": 3796, "pitch": 61, "duration": 7, "velocity": 112}, {"time": 3796, "pitch": 65, "duration": 9, "velocity": 109}, {"time": 3802, "pitch": 58, "duration": 4, "velocity": 85}, {"time": 3808, "pitch": 51, "duration": 22, "velocity": 104}, {"time": 3808, "pitch": 58, "duration": 3, "velocity": 104}, {"time": 3808, "pitch": 63, "duration": 8, "velocity": 106}, {"time": 3814, "pitch": 58, "duration": 8, "velocity": 87}, {"time": 3820, "pitch": 63, "duration": 2, "velocity": 76}, {"time": 3826, "pitch": 58, "duration": 16, "velocity": 109}, {"time": 3826, "pitch": 63, "duration": 15, "velocity": 112}, {"time": 3826, "pitch": 67, "duration": 16, "velocity": 113}, {"time": 3838, "pitch": 51, "duration": 13, "velocity": 99}, {"time": 3844, "pitch": 58, "duration": 3, "velocity": 99}, {"time": 3844, "pitch": 63, "duration": 2, "velocity": 104}, {"time": 3844, "pitch": 68, "duration": 7, "velocity": 106}, {"time": 3850, "pitch": 67, "duration": 6, "velocity": 110}, {"time": 3856, "pitch": 46, "duration": 20, "velocity": 87}, {"time": 3856, "pitch": 65, "duration": 13, "velocity": 94}, {"time": 3862, "pitch": 53, "duration": 13, "velocity": 85}, {"time": 3868, "pitch": 58, "duration": 3, "velocity": 101}, {"time": 3874, "pitch": 58, "duration": 15, "velocity": 109}, {"time": 3874, "pitch": 61, "duration": 15, "velocity": 106}, {"time": 3886, "pitch": 46, "duration": 8, "velocity": 73}, {"time": 3892, "pitch": 58, "duration": 3, "velocity": 112}, {"time": 3892, "pitch": 61, "duration": 8, "velocity": 106}, {"time": 3898, "pitch": 58, "duration": 3, "velocity": 78}, {"time": 3904, "pitch": 39, "duration": 2, "velocity": 106}, {"time": 3904, "pitch": 58, "duration": 5, "velocity": 104}, {"time": 3904, "pitch": 63, "duration": 7, "velocity": 109}, {"time": 3910, "pitch": 51, "duration": 35, "velocity": 48}, {"time": 3916, "pitch": 58, "duration": 26, "velocity": 109}, {"time": 3922, "pitch": 63, "duration": 3, "velocity": 87}, {"time": 3922, "pitch": 67, "duration": 4, "velocity": 63}, {"time": 3928, "pitch": 63, "duration": 7, "velocity": 115}, {"time": 3928, "pitch": 67, "duration": 7, "velocity": 120}, {"time": 3934, "pitch": 68, "duration": 5, "velocity": 109}, {"time": 3940, "pitch": 63, "duration": 4, "velocity": 106}, {"time": 3940, "pitch": 70, "duration": 6, "velocity": 104}, {"time": 3946, "pitch": 68, "duration": 6, "velocity": 106}, {"time": 3952, "pitch": 46, "duration": 43, "velocity": 104}, {"time": 3952, "pitch": 58, "duration": 7, "velocity": 96}, {"time": 3952, "pitch": 61, "duration": 8, "velocity": 96}, {"time": 3952, "pitch": 65, "duration": 9, "velocity": 101}, {"time": 3958, "pitch": 53, "duration": 13, "velocity": 78}, {"time": 3964, "pitch": 58, "duration": 3, "velocity": 101}, {"time": 3970, "pitch": 58, "duration": 4, "velocity": 115}, {"time": 3970, "pitch": 70, "duration": 5, "velocity": 104}, {"time": 3976, "pitch": 53, "duration": 16, "velocity": 80}, {"time": 3982, "pitch": 58, "duration": 3, "velocity": 101}, {"time": 3988, "pitch": 58, "duration": 3, "velocity": 106}, {"time": 3988, "pitch": 61, "duration": 4, "velocity": 106}, {"time": 3988, "pitch": 65, "duration": 12, "velocity": 104}, {"time": 3994, "pitch": 58, "duration": 4, "velocity": 99}, {"time": 4000, "pitch": 51, "duration": 20, "velocity": 101}, {"time": 4000, "pitch": 58, "duration": 4, "velocity": 101}, {"time": 4000, "pitch": 63, "duration": 9, "velocity": 106}, {"time": 4006, "pitch": 58, "duration": 7, "velocity": 89}, {"time": 4012, "pitch": 63, "duration": 3, "velocity": 89}, {"time": 4018, "pitch": 58, "duration": 8, "velocity": 101}, {"time": 4018, "pitch": 63, "duration": 8, "velocity": 106}, {"time": 4018, "pitch": 67, "duration": 14, "velocity": 113}, {"time": 4030, "pitch": 51, "duration": 8, "velocity": 76}, {"time": 4036, "pitch": 58, "duration": 3, "velocity": 115}, {"time": 4036, "pitch": 63, "duration": 9, "velocity": 112}, {"time": 4042, "pitch": 58, "duration": 2, "velocity": 96}, {"time": 4048, "pitch": 48, "duration": 35, "velocity": 89}, {"time": 4048, "pitch": 60, "duration": 8, "velocity": 101}, {"time": 4048, "pitch": 63, "duration": 13, "velocity": 106}, {"time": 4054, "pitch": 55, "duration": 14, "velocity": 86}, {"time": 4066, "pitch": 60, "duration": 14, "velocity": 109}, {"time": 4066, "pitch": 67, "duration": 16, "velocity": 110}, {"time": 4078, "pitch": 55, "duration": 3, "velocity": 46}, {"time": 4084, "pitch": 60, "duration": 4, "velocity": 101}, {"time": 4084, "pitch": 63, "duration": 8, "velocity": 106}, {"time": 4090, "pitch": 60, "duration": 3, "velocity": 82}, {"time": 4096, "pitch": 41, "duration": 39, "velocity": 99}, {"time": 4096, "pitch": 60, "duration": 6, "velocity": 99}, {"time": 4096, "pitch": 68, "duration": 11, "velocity": 101}, {"time": 4102, "pitch": 48, "duration": 13, "velocity": 64}, {"time": 4108, "pitch": 60, "duration": 3, "velocity": 76}, {"time": 4114, "pitch": 60, "duration": 8, "velocity": 104}, {"time": 4114, "pitch": 65, "duration": 9, "velocity": 101}, {"time": 4120, "pitch": 48, "duration": 14, "velocity": 69}, {"time": 4126, "pitch": 60, "duration": 3, "velocity": 99}, {"time": 4132, "pitch": 68, "duration": 5, "velocity": 109}, {"time": 4138, "pitch": 67, "duration": 5, "velocity": 113}, {"time": 4144, "pitch": 46, "duration": 25, "velocity": 104}, {"time": 4144, "pitch": 65, "duration": 13, "velocity": 94}, {"time": 4150, "pitch": 53, "duration": 13, "velocity": 76}, {"time": 4156, "pitch": 58, "duration": 3, "velocity": 89}, {"time": 4162, "pitch": 58, "duration": 12, "velocity": 109}, {"time": 4162, "pitch": 61, "duration": 12, "velocity": 104}, {"time": 4174, "pitch": 46, "duration": 12, "velocity": 71}, {"time": 4180, "pitch": 58, "duration": 3, "velocity": 112}, {"time": 4180, "pitch": 61, "duration": 7, "velocity": 112}, {"time": 4180, "pitch": 65, "duration": 9, "velocity": 109}, {"time": 4186, "pitch": 58, "duration": 4, "velocity": 85}, {"time": 4192, "pitch": 51, "duration": 22, "velocity": 104}, {"time": 4192, "pitch": 58, "duration": 3, "velocity": 104}, {"time": 4192, "pitch": 63, "duration": 8, "velocity": 106}, {"time": 4198, "pitch": 58, "duration": 8, "velocity": 87}, {"time": 4204, "pitch": 63, "duration": 2, "velocity": 76}, {"time": 4210, "pitch": 58, "duration": 16, "velocity": 109}, {"time": 4210, "pitch": 63, "duration": 15, "velocity": 112}, {"time": 4210, "pitch": 67, "duration": 16, "velocity": 113}, {"time": 4222, "pitch": 51, "duration": 13, "velocity": 99}, {"time": 4228, "pitch": 58, "duration": 3, "velocity": 99}, {"time": 4228, "pitch": 63, "duration": 2, "velocity": 104}, {"time": 4228, "pitch": 68, "duration": 7, "velocity": 106}, {"time": 4234, "pitch": 67, "duration": 6, "velocity": 110}, {"time": 4240, "pitch": 46, "duration": 20, "velocity": 87}, {"time": 4240, "pitch": 65, "duration": 13, "velocity": 94}, {"time": 4246, "pitch": 53, "duration": 13, "velocity": 85}, {"time": 4252, "pitch": 58, "duration": 3, "velocity": 101}, {"time": 4258, "pitch": 58, "duration": 15, "velocity": 109}, {"time": 4258, "pitch": 61, "duration": 15, "velocity": 106}, {"time": 4270, "pitch": 46, "duration": 8, "velocity": 73}, {"time": 4276, "pitch": 58, "duration": 3, "velocity": 112}, {"time": 4276, "pitch": 61, "duration": 8, "velocity": 106}, {"time": 4282, "pitch": 58, "duration": 3, "velocity": 78}, {"time": 4288, "pitch": 39, "duration": 2, "velocity": 106}, {"time": 4288, "pitch": 58, "duration": 5, "velocity": 104}, {"time": 4288, "pitch": 63, "duration": 7, "velocity": 109}, {"time": 4294, "pitch": 51, "duration": 35, "velocity": 48}, {"time": 4300, "pitch": 58, "duration": 26, "velocity": 109}, {"time": 4306, "pitch": 63, "duration": 3, "velocity": 87}, {"time": 4306, "pitch": 67, "duration": 4, "velocity": 63}, {"time": 4312, "pitch": 63, "duration": 7, "velocity": 115}, {"time": 4312, "pitch": 67, "duration": 7, "velocity": 120}, {"time": 4318, "pitch": 68, "duration": 5, "velocity": 109}, {"time": 4324, "pitch": 63, "duration": 4, "velocity": 106}, {"time": 4324, "pitch": 70, "duration": 6, "velocity": 104}, {"time": 4330, "pitch": 68, "duration": 6, "velocity": 106}, {"time": 4336, "pitch": 46, "duration": 43, "velocity": 104}, {"time": 4336, "pitch": 58, "duration": 7, "velocity": 96}, {"time": 4336, "pitch": 61, "duration": 8, "velocity": 96}, {"time": 4336, "pitch": 65, "duration": 9, "velocity": 101}, {"time": 4342, "pitch": 53, "duration": 13, "velocity": 78}, {"time": 4348, "pitch": 58, "duration": 3, "velocity": 101}, {"time": 4354, "pitch": 58, "duration": 4, "velocity": 115}, {"time": 4354, "pitch": 70, "duration": 5, "velocity": 104}, {"time": 4360, "pitch": 53, "duration": 16, "velocity": 80}, {"time": 4366, "pitch": 58, "duration": 3, "velocity": 101}, {"time": 4372, "pitch": 58, "duration": 3, "velocity": 106}, {"time": 4372, "pitch": 61, "duration": 4, "velocity": 106}, {"time": 4372, "pitch": 65, "duration": 12, "velocity": 104}, {"time": 4378, "pitch": 58, "duration": 4, "velocity": 99}, {"time": 4384, "pitch": 51, "duration": 20, "velocity": 101}, {"time": 4384, "pitch": 58, "duration": 4, "velocity": 101}, {"time": 4384, "pitch": 63, "duration": 9, "velocity": 106}, {"time": 4390, "pitch": 58, "duration": 7, "velocity": 89}, {"time": 4396, "pitch": 63, "duration": 3, "velocity": 89}, {"time": 4402, "pitch": 58, "duration": 8, "velocity": 101}, {"time": 4402, "pitch": 63, "duration": 8, "velocity": 106}, {"time": 4402, "pitch": 67, "duration": 14, "velocity": 113}, {"time": 4414, "pitch": 51, "duration": 8, "velocity": 76}, {"time": 4420, "pitch": 58, "duration": 3, "velocity": 115}, {"time": 4420, "pitch": 63, "duration": 9, "velocity": 112}, {"time": 4426, "pitch": 58, "duration": 2, "velocity": 96}, {"time": 4432, "pitch": 48, "duration": 35, "velocity": 89}, {"time": 4432, "pitch": 60, "duration": 8, "velocity": 101}, {"time": 4432, "pitch": 63, "duration": 13, "velocity": 106}, {"time": 4438, "pitch": 55, "duration": 14, "velocity": 86}, {"time": 4450, "pitch": 60, "duration": 14, "velocity": 109}, {"time": 4450, "pitch": 67, "duration": 16, "velocity": 110}, {"time": 4462, "pitch": 55, "duration": 3, "velocity": 46}, {"time": 4468, "pitch": 60, "duration": 4, "velocity": 101}, {"time": 4468, "pitch": 63, "duration": 8, "velocity": 106}, {"time": 4474, "pitch": 60, "duration": 3, "velocity": 82}, {"time": 4480, "pitch": 41, "duration": 39, "velocity": 99}, {"time": 4480, "pitch": 60, "duration": 6, "velocity": 99}, {"time": 4480, "pitch": 68, "duration": 11, "velocity": 101}, {"time": 4486, "pitch": 48, "duration": 13, "velocity": 64}, {"time": 4492, "pitch": 60, "duration": 3, "velocity": 76}, {"time": 4498, "pitch": 60, "duration": 8, "velocity": 104}, {"time": 4498, "pitch": 65, "duration": 9, "velocity": 101}, {"time": 4504, "pitch": 48, "duration": 14, "velocity": 69}, {"time": 4510, "pitch": 60, "duration": 3, "velocity": 99}, {"time": 4516, "pitch": 68, "duration": 5, "velocity": 109}, {"time": 4522, "pitch": 67, "duration": 5, "velocity": 113}, {"time": 4528, "pitch": 46, "duration": 25, "velocity": 104}, {"time": 4528, "pitch": 65, "duration": 13, "velocity": 94}, {"time": 4534, "pitch": 53, "duration": 13, "velocity": 76}, {"time": 4540, "pitch": 58, "duration": 3, "velocity": 89}, {"time": 4546, "pitch": 58, "duration": 12, "velocity": 109}, {"time": 4546, "pitch": 61, "duration": 12, "velocity": 104}, {"time": 4558, "pitch": 46, "duration": 12, "velocity": 71}, {"time": 4564, "pitch": 58, "duration": 3, "velocity": 112}, {"time": 4564, "pitch": 61, "duration": 7, "velocity": 112}, {"time": 4564, "pitch": 65, "duration": 9, "velocity": 109}, {"time": 4570, "pitch": 58, "duration": 4, "velocity": 85}, {"time": 4576, "pitch": 51, "duration": 22, "velocity": 104}, {"time": 4576, "pitch": 58, "duration": 3, "velocity": 104}, {"time": 4576, "pitch": 63, "duration": 8, "velocity": 106}, {"time": 4582, "pitch": 58, "duration": 8, "velocity": 87}, {"time": 4588, "pitch": 63, "duration": 2, "velocity": 76}, {"time": 4594, "pitch": 58, "duration": 16, "velocity": 109}, {"time": 4594, "pitch": 63, "duration": 15, "velocity": 112}, {"time": 4594, "pitch": 67, "duration": 16, "velocity": 113}, {"time": 4606, "pitch": 51, "duration": 13, "velocity": 99}, {"time": 4612, "pitch": 58, "duration": 3, "velocity": 99}, {"time": 4612, "pitch": 63, "duration": 2, "velocity": 104}, {"time": 4612, "pitch": 68, "duration": 7, "velocity": 106}, {"time": 4618, "pitch": 67, "duration": 6, "velocity": 110}, {"time": 4624, "pitch": 46, "duration": 21, "velocity": 101}, {"time": 4624, "pitch": 58, "duration": 8, "velocity": 104}, {"time": 4624, "pitch": 61, "duration": 13, "velocity": 96}, {"time": 4630, "pitch": 53, "duration": 12, "velocity": 74}, {"time": 4636, "pitch": 58, "duration": 7, "velocity": 109}, {"time": 4642, "pitch": 61, "duration": 5, "velocity": 106}, {"time": 4648, "pitch": 51, "duration": 15, "velocity": 96}, {"time": 4648, "pitch": 58, "duration": 4, "velocity": 106}, {"time": 4648, "pitch": 63, "duration": 7, "velocity": 106}, {"time": 4654, "pitch": 58, "duration": 4, "velocity": 104}, {"time": 4660, "pitch": 58, "duration": 3, "velocity": 109}, {"time": 4660, "pitch": 67, "duration": 7, "velocity": 110}, {"time": 4666, "pitch": 58, "duration": 3, "velocity": 91}, {"time": 4672, "pitch": 44, "duration": 25, "velocity": 101}, {"time": 4672, "pitch": 56, "duration": 8, "velocity": 94}, {"time": 4672, "pitch": 60, "duration": 15, "velocity": 91}, {"time": 4678, "pitch": 51, "duration": 14, "velocity": 76}, {"time": 4684, "pitch": 56, "duration": 3, "velocity": 67}, {"time": 4690, "pitch": 56, "duration": 11, "velocity": 104}, {"time": 4690, "pitch": 60, "duration": 13, "velocity": 104}, {"time": 4690, "pitch": 63, "duration": 14, "velocity": 106}, {"time": 4702, "pitch": 51, "duration": 12, "velocity": 78}, {"time": 4708, "pitch": 56, "duration": 5, "velocity": 104}, {"time": 4714, "pitch": 56, "duration": 6, "velocity": 80}, {"time": 4714, "pitch": 60, "duration": 5, "velocity": 59}, {"time": 4714, "pitch": 63, "duration": 7, "velocity": 96}, {"time": 4720, "pitch": 47, "duration": 25, "velocity": 63}, {"time": 4720, "pitch": 59, "duration": 7, "velocity": 66}, {"time": 4720, "pitch": 63, "duration": 1, "velocity": 101}, {"time": 4720, "pitch": 66, "duration": 13, "velocity": 82}, {"time": 4726, "pitch": 54, "duration": 15, "velocity": 73}, {"time": 4732, "pitch": 59, "duration": 21, "velocity": 107}, {"time": 4738, "pitch": 63, "duration": 15, "velocity": 106}, {"time": 4738, "pitch": 66, "duration": 15, "velocity": 106}, {"time": 4750, "pitch": 54, "duration": 8, "velocity": 50}, {"time": 4756, "pitch": 59, "duration": 2, "velocity": 104}, {"time": 4756, "pitch": 63, "duration": 7, "velocity": 104}, {"time": 4756, "pitch": 66, "duration": 11, "velocity": 104}, {"time": 4762, "pitch": 59, "duration": 3, "velocity": 83}, {"time": 4768, "pitch": 46, "duration": 42, "velocity": 96}, {"time": 4768, "pitch": 58, "duration": 7, "velocity": 99}, {"time": 4768, "pitch": 61, "duration": 14, "velocity": 96}, {"time": 4774, "pitch": 53, "duration": 13, "velocity": 82}, {"time": 4786, "pitch": 58, "duration": 15, "velocity": 106}, {"time": 4786, "pitch": 65, "duration": 15, "velocity": 104}, {"time": 4798, "pitch": 53, "duration": 11, "velocity": 31}, {"time": 4804, "pitch": 58, "duration": 3, "velocity": 101}, {"time": 4804, "pitch": 61, "duration": 7, "velocity": 96}, {"time": 4810, "pitch": 58, "duration": 2, "velocity": 69}, {"time": 4816, "pitch": 44, "duration": 45, "velocity": 99}, {"time": 4816, "pitch": 56, "duration": 8, "velocity": 91}, {"time": 4816, "pitch": 63, "duration": 14, "velocity": 99}, {"time": 4822, "pitch": 51, "duration": 13, "velocity": 56}, {"time": 4828, "pitch": 56, "duration": 3, "velocity": 66}, {"time": 4834, "pitch": 56, "duration": 14, "velocity": 104}, {"time": 4834, "pitch": 63, "duration": 15, "velocity": 106}, {"time": 4846, "pitch": 51, "duration": 11, "velocity": 69}, {"time": 4852, "pitch": 56, "duration": 9, "velocity": 101}, {"time": 4852, "pitch": 61, "duration": 11, "velocity": 104}, {"time": 4864, "pitch": 44, "duration": 24, "velocity": 101}, {"time": 4864, "pitch": 56, "duration": 6, "velocity": 96}, {"time": 4864, "pitch": 60, "duration": 9, "velocity": 96}, {"time": 4870, "pitch": 51, "duration": 14, "velocity": 74}, {"time": 4876, "pitch": 56, "duration": 3, "velocity": 61}, {"time": 4882, "pitch": 56, "duration": 15, "velocity": 101}, {"time": 4882, "pitch": 63, "duration": 16, "velocity": 106}, {"time": 4894, "pitch": 44, "duration": 7, "velocity": 32}, {"time": 4900, "pitch": 56, "duration": 2, "velocity": 109}, {"time": 4900, "pitch": 63, "duration": 8, "velocity": 106}, {"time": 4906, "pitch": 56, "duration": 6, "velocity": 61}, {"time": 4912, "pitch": 47, "duration": 21, "velocity": 83}, {"time": 4912, "pitch": 59, "duration": 7, "velocity": 96}, {"time": 4912, "pitch": 63, "duration": 13, "velocity": 101}, {"time": 4918, "pitch": 54, "duration": 13, "velocity": 71}, {"time": 4924, "pitch": 59, "duration": 3, "velocity": 61}, {"time": 4930, "pitch": 59, "duration": 16, "velocity": 117}, {"time": 4930, "pitch": 63, "duration": 19, "velocity": 106}, {"time": 4942, "pitch": 54, "duration": 18, "velocity": 73}, {"time": 4948, "pitch": 59, "duration": 7, "velocity": 110}, {"time": 4954, "pitch": 63, "duration": 7, "velocity": 104}, {"time": 4960, "pitch": 46, "duration": 22, "velocity": 99}, {"time": 4960, "pitch": 58, "duration": 8, "velocity": 99}, {"time": 4960, "pitch": 61, "duration": 11, "velocity": 94}, {"time": 4966, "pitch": 53, "duration": 13, "velocity": 74}, {"time": 4978, "pitch": 58, "duration": 15, "velocity": 106}, {"time": 4978, "pitch": 61, "duration": 15, "velocity": 106}, {"time": 4978, "pitch": 65, "duration": 15, "velocity": 101}, {"time": 4990, "pitch": 46, "duration": 11, "velocity": 67}, {"time": 4996, "pitch": 58, "duration": 3, "velocity": 109}, {"time": 4996, "pitch": 61, "duration": 7, "velocity": 104}, {"time": 5002, "pitch": 58, "duration": 2, "velocity": 73}, {"time": 5008, "pitch": 44, "duration": 25, "velocity": 101}, {"time": 5008, "pitch": 56, "duration": 8, "velocity": 101}, {"time": 5008, "pitch": 60, "duration": 14, "velocity": 101}, {"time": 5014, "pitch": 51, "duration": 13, "velocity": 47}, {"time": 5026, "pitch": 56, "duration": 10, "velocity": 104}, {"time": 5026, "pitch": 60, "duration": 9, "velocity": 106}, {"time": 5026, "pitch": 63, "duration": 9, "velocity": 106}, {"time": 5044, "pitch": 44, "duration": 6, "velocity": 106}, {"time": 5050, "pitch": 56, "duration": 5, "velocity": 96}, {"time": 5056, "pitch": 40, "duration": 12, "velocity": 113}, {"time": 5056, "pitch": 56, "duration": 4, "velocity": 76}, {"time": 5056, "pitch": 59, "duration": 8, "velocity": 110}, {"time": 5056, "pitch": 64, "duration": 10, "velocity": 110}, {"time": 5062, "pitch": 56, "duration": 13, "velocity": 82}, {"time": 5068, "pitch": 59, "duration": 7, "velocity": 120}, {"time": 5074, "pitch": 64, "duration": 4, "velocity": 99}, {"time": 5080, "pitch": 42, "duration": 12, "velocity": 104}, {"time": 5080, "pitch": 54, "duration": 7, "velocity": 106}, {"time": 5080, "pitch": 58, "duration": 8, "velocity": 109}, {"time": 5086, "pitch": 49, "duration": 6, "velocity": 91}, {"time": 5092, "pitch": 58, "duration": 12, "velocity": 101}, {"time": 5092, "pitch": 61, "duration": 12, "velocity": 94}, {"time": 5092, "pitch": 66, "duration": 13, "velocity": 101}, {"time": 5098, "pitch": 54, "duration": 6, "velocity": 85}, {"time": 5104, "pitch": 44, "duration": 44, "velocity": 106}, {"time": 5110, "pitch": 51, "duration": 15, "velocity": 66}, {"time": 5116, "pitch": 56, "duration": 4, "velocity": 73}, {"time": 5122, "pitch": 56, "duration": 19, "velocity": 96}, {"time": 5122, "pitch": 60, "duration": 20, "velocity": 91}, {"time": 5122, "pitch": 63, "duration": 23, "velocity": 99}, {"time": 5140, "pitch": 51, "duration": 8, "velocity": 73}, {"time": 5146, "pitch": 56, "duration": 13, "velocity": 89}, {"time": 5152, "pitch": 44, "duration": 45, "velocity": 106}, {"time": 5158, "pitch": 51, "duration": 14, "velocity": 73}, {"time": 5170, "pitch": 56, "duration": 16, "velocity": 104}, {"time": 5170, "pitch": 63, "duration": 15, "velocity": 106}, {"time": 5182, "pitch": 51, "duration": 17, "velocity": 51}, {"time": 5194, "pitch": 56, "duration": 6, "velocity": 94}, {"time": 5194, "pitch": 63, "duration": 20, "velocity": 104}, {"time": 5200, "pitch": 42, "duration": 41, "velocity": 99}, {"time": 5206, "pitch": 49, "duration": 16, "velocity": 78}, {"time": 5212, "pitch": 54, "duration": 4, "velocity": 94}, {"time": 5218, "pitch": 54, "duration": 14, "velocity": 99}, {"time": 5218, "pitch": 63, "duration": 17, "velocity": 96}, {"time": 5230, "pitch": 49, "duration": 9, "velocity": 52}, {"time": 5236, "pitch": 54, "duration": 3, "velocity": 99}, {"time": 5236, "pitch": 58, "duration": 8, "velocity": 106}, {"time": 5236, "pitch": 63, "duration": 11, "velocity": 74}, {"time": 5242, "pitch": 54, "duration": 4, "velocity": 87}, {"time": 5248, "pitch": 40, "duration": 11, "velocity": 104}, {"time": 5254, "pitch": 47, "duration": 5, "velocity": 59}, {"time": 5260, "pitch": 52, "duration": 2, "velocity": 107}, {"time": 5260, "pitch": 59, "duration": 9, "velocity": 91}, {"time": 5266, "pitch": 52, "duration": 2, "velocity": 55}, {"time": 5272, "pitch": 42, "duration": 17, "velocity": 104}, {"time": 5272, "pitch": 54, "duration": 10, "velocity": 87}, {"time": 5272, "pitch": 58, "duration": 9, "velocity": 94}, {"time": 5278, "pitch": 49, "duration": 8, "velocity": 67}, {"time": 5284, "pitch": 58, "duration": 12, "velocity": 101}, {"time": 5284, "pitch": 61, "duration": 12, "velocity": 96}, {"time": 5290, "pitch": 54, "duration": 6, "velocity": 74}, {"time": 5296, "pitch": 44, "duration": 44, "velocity": 106}, {"time": 5302, "pitch": 51, "duration": 15, "velocity": 66}, {"time": 5308, "pitch": 56, "duration": 4, "velocity": 73}, {"time": 5314, "pitch": 56, "duration": 19, "velocity": 96}, {"time": 5314, "pitch": 60, "duration": 20, "velocity": 91}, {"time": 5314, "pitch": 63, "duration": 23, "velocity": 99}, {"time": 5332, "pitch": 51, "duration": 8, "velocity": 73}, {"time": 5338, "pitch": 56, "duration": 13, "velocity": 89}, {"time": 5344, "pitch": 44, "duration": 45, "velocity": 106}, {"time": 5350, "pitch": 51, "duration": 14, "velocity": 73}, {"time": 5362, "pitch": 56, "duration": 16, "velocity": 104}, {"time": 5362, "pitch": 63, "duration": 15, "velocity": 106}, {"time": 5374, "pitch": 51, "duration": 17, "velocity": 51}, {"time": 5386, "pitch": 56, "duration": 6, "velocity": 94}, {"time": 5386, "pitch": 63, "duration": 20, "velocity": 104}, {"time": 5392, "pitch": 42, "duration": 41, "velocity": 99}, {"time": 5398, "pitch": 49, "duration": 16, "velocity": 78}, {"time": 5404, "pitch": 54, "duration": 4, "velocity": 94}, {"time": 5410, "pitch": 54, "duration": 14, "velocity": 99}, {"time": 5410, "pitch": 63, "duration": 17, "velocity": 96}, {"time": 5422, "pitch": 49, "duration": 9, "velocity": 52}, {"time": 5428, "pitch": 54, "duration": 3, "velocity": 99}, {"time": 5428, "pitch": 58, "duration": 8, "velocity": 106}, {"time": 5428, "pitch": 63, "duration": 11, "velocity": 74}, {"time": 5434, "pitch": 54, "duration": 4, "velocity": 87}, {"time": 5440, "pitch": 40, "duration": 11, "velocity": 104}, {"time": 5446, "pitch": 47, "duration": 5, "velocity": 59}, {"time": 5452, "pitch": 52, "duration": 2, "velocity": 107}, {"time": 5452, "pitch": 59, "duration": 9, "velocity": 91}, {"time": 5458, "pitch": 52, "duration": 2, "velocity": 55}, {"time": 5464, "pitch": 42, "duration": 17, "velocity": 104}, {"time": 5464, "pitch": 54, "duration": 10, "velocity": 87}, {"time": 5464, "pitch": 58, "duration": 9, "velocity": 94}, {"time": 5470, "pitch": 49, "duration": 8, "velocity": 67}, {"time": 5476, "pitch": 58, "duration": 12, "velocity": 101}, {"time": 5476, "pitch": 61, "duration": 12, "velocity": 96}, {"time": 5482, "pitch": 54, "duration": 6, "velocity": 74}], "annotations": [{"time": 17, "annotation": {"number": 64, "value": 127}, "group": "control_change"}, {"time": 60, "annotation": {"number": 64, "value": 0}, "group": "control_change"}, {"time": 64, "annotation": {"number": 64, "value": 127}, "group": "control_change"}, {"time": 107, "annotation": {"number": 64, "value": 0}, "group": "control_change"}, {"time": 112, "annotation": {"number": 64, "value": 127}, "group": "control_change"}, {"time": 154, "annotation": {"number": 64, "value": 0}, "group": "control_change"}, {"time": 160, "annotation": {"number": 64, "value": 127}, "group": "control_change"}, {"time": 180, "annotation": {"number": 64, "value": 0}, "group": "control_change"}, {"time": 184, "annotation": {"number": 64, "value": 127}, "group": "control_change"}, {"time": 204, "annotation": {"number": 64, "value": 0}, "group": "control_change"}, {"time": 209, "annotation": {"number": 64, "value": 127}, "group": "control_change"}, {"time": 251, "annotation": {"number": 64, "value": 0}, "group": "control_change"}, {"time": 256, "annotation": {"number": 64, "value": 127}, "group": "control_change"}, {"time": 298, "annotation": {"number": 64, "value": 0}, "group": "control_change"}, {"time": 304, "annotation": {"number": 64, "value": 127}, "group": "control_change"}, {"time": 346, "annotation": {"number": 64, "value": 0}, "group": "control_change"}, {"time": 352, "annotation": {"number": 64, "value": 127}, "group": "control_change"}, {"time": 372, "annotation": {"number": 64, "value": 0}, "group": "control_change"}, {"time": 376, "annotation": {"number": 64, "value": 127}, "group": "control_change"}, {"time": 396, "annotation": {"number": 64, "value": 0}, "group": "control_change"}, {"time": 401, "annotation": {"number": 64, "value": 127}, "group": "control_change"}, {"time": 444, "annotation": {"number": 64, "value": 0}, "group": "control_change"}, {"time": 448, "annotation": {"number": 64, "value": 127}, "group": "control_change"}, {"time": 493, "annotation": {"number": 64, "value": 0}, "group": "control_change"}, {"time": 497, "annotation": {"number": 64, "value": 127}, "group": "control_change"}, {"time": 541, "annotation": {"number": 64, "value": 0}, "group": "control_change"}, {"time": 545, "annotation": {"number": 64, "value": 127}, "group": "control_change"}, {"time": 586, "annotation": {"number": 64, "value": 0}, "group": "control_change"}, {"time": 592, "annotation": {"number": 64, "value": 127}, "group": "control_change"}, {"time": 633, "annotation": {"number": 64, "value": 0}, "group": "control_change"}, {"time": 640, "annotation": {"number": 64, "value": 127}, "group": "control_change"}, {"time": 683, "annotation": {"number": 64, "value": 0}, "group": "control_change"}, {"time": 688, "annotation": {"number": 64, "value": 127}, "group": "control_change"}, {"time": 731, "annotation": {"number": 64, "value": 0}, "group": "control_change"}, {"time": 736, "annotation": {"number": 64, "value": 127}, "group": "control_change"}, {"time": 779, "annotation": {"number": 64, "value": 0}, "group": "control_change"}, {"time": 784, "annotation": {"number": 64, "value": 127}, "group": "control_change"}, {"time": 828, "annotation": {"number": 64, "value": 0}, "group": "control_change"}, {"time": 832, "annotation": {"number": 64, "value": 127}, "group": "control_change"}, {"time": 875, "annotation": {"number": 64, "value": 0}, "group": "control_change"}, {"time": 880, "annotation": {"number": 64, "value": 127}, "group": "control_change"}, {"time": 922, "annotation": {"number": 64, "value": 0}, "group": "control_change"}, {"time": 928, "annotation": {"number": 64, "value": 127}, "group": "control_change"}, {"time": 971, "annotation": {"number": 64, "value": 0}, "group": "control_change"}, {"time": 976, "annotation": {"number": 64, "value": 127}, "group": "control_change"}, {"time": 1018, "annotation": {"number": 64, "value": 0}, "group": "control_change"}, {"time": 1024, "annotation": {"number": 64, "value": 127}, "group": "control_change"}, {"time": 1066, "annotation": {"number": 64, "value": 0}, "group": "control_change"}, {"time": 1072, "annotation": {"number": 64, "value": 127}, "group": "control_change"}, {"time": 1115, "annotation": {"number": 64, "value": 0}, "group": "control_change"}, {"time": 1120, "annotation": {"number": 64, "value": 127}, "group": "control_change"}, {"time": 1163, "annotation": {"number": 64, "value": 127}, "group": "control_change"}, {"time": 1164, "annotation": {"number": 64, "value": 0}, "group": "control_change"}, {"time": 1166, "annotation": {"number": 64, "value": 0}, "group": "control_change"}, {"time": 1169, "annotation": {"number": 64, "value": 127}, "group": "control_change"}, {"time": 1212, "annotation": {"number": 64, "value": 0}, "group": "control_change"}, {"time": 1217, "annotation": {"number": 64, "value": 127}, "group": "control_change"}, {"time": 1260, "annotation": {"number": 64, "value": 0}, "group": "control_change"}, {"time": 1264, "annotation": {"number": 64, "value": 127}, "group": "control_change"}, {"time": 1306, "annotation": {"number": 64, "value": 0}, "group": "control_change"}, {"time": 1312, "annotation": {"number": 64, "value": 127}, "group": "control_change"}, {"time": 1357, "annotation": {"number": 64, "value": 0}, "group": "control_change"}, {"time": 1360, "annotation": {"number": 64, "value": 127}, "group": "control_change"}, {"time": 1404, "annotation": {"number": 64, "value": 0}, "group": "control_change"}, {"time": 1409, "annotation": {"number": 64, "value": 127}, "group": "control_change"}, {"time": 1450, "annotation": {"number": 64, "value": 0}, "group": "control_change"}, {"time": 1456, "annotation": {"number": 64, "value": 127}, "group": "control_change"}, {"time": 1501, "annotation": {"number": 64, "value": 0}, "group": "control_change"}, {"time": 1504, "annotation": {"number": 64, "value": 127}, "group": "control_change"}, {"time": 1548, "annotation": {"number": 64, "value": 0}, "group": "control_change"}, {"time": 1552, "annotation": {"number": 64, "value": 127}, "group": "control_change"}, {"time": 1572, "annotation": {"number": 64, "value": 0}, "group": "control_change"}, {"time": 1576, "annotation": {"number": 64, "value": 127}, "group": "control_change"}, {"time": 1597, "annotation": {"number": 64, "value": 0}, "group": "control_change"}, {"time": 1601, "annotation": {"number": 64, "value": 127}, "group": "control_change"}, {"time": 1644, "annotation": {"number": 64, "value": 0}, "group": "control_change"}, {"time": 1648, "annotation": {"number": 64, "value": 127}, "group": "control_change"}, {"time": 1691, "annotation": {"number": 64, "value": 0}, "group": "control_change"}, {"time": 1696, "annotation": {"number": 64, "value": 127}, "group": "control_change"}, {"time": 1740, "annotation": {"number": 64, "value": 0}, "group": "control_change"}, {"time": 1745, "annotation": {"number": 64, "value": 127}, "group": "control_change"}, {"time": 1786, "annotation": {"number": 64, "value": 0}, "group": "control_change"}, {"time": 1792, "annotation": {"number": 64, "value": 127}, "group": "control_change"}, {"time": 1835, "annotation": {"number": 64, "value": 0}, "group": "control_change"}, {"time": 1840, "annotation": {"number": 64, "value": 127}, "group": "control_change"}, {"time": 1883, "annotation": {"number": 64, "value": 0}, "group": "control_change"}, {"time": 1888, "annotation": {"number": 64, "value": 127}, "group": "control_change"}, {"time": 1931, "annotation": {"number": 64, "value": 0}, "group": "control_change"}, {"time": 1936, "annotation": {"number": 64, "value": 127}, "group": "control_change"}, {"time": 1985, "annotation": {"number": 64, "value": 127}, "group": "control_change"}, {"time": 2028, "annotation": {"number": 64, "value": 0}, "group": "control_change"}, {"time": 2032, "annotation": {"number": 64, "value": 127}, "group": "control_change"}, {"time": 2075, "annotation": {"number": 64, "value": 0}, "group": "control_change"}, {"time": 2080, "annotation": {"number": 64, "value": 127}, "group": "control_change"}, {"time": 2124, "annotation": {"number": 64, "value": 0}, "group": "control_change"}, {"time": 2129, "annotation": {"number": 64, "value": 127}, "group": "control_change"}, {"time": 2170, "annotation": {"number": 64, "value": 0}, "group": "control_change"}, {"time": 2176, "annotation": {"number": 64, "value": 127}, "group": "control_change"}, {"time": 2219, "annotation": {"number": 64, "value": 0}, "group": "control_change"}, {"time": 2224, "annotation": {"number": 64, "value": 127}, "group": "control_change"}, {"time": 2267, "annotation": {"number": 64, "value": 0}, "group": "control_change"}, {"time": 2272, "annotation": {"number": 64, "value": 127}, "group": "control_change"}, {"time": 2315, "annotation": {"number": 64, "value": 0}, "group": "control_change"}, {"time": 2320, "annotation": {"number": 64, "value": 127}, "group": "control_change"}, {"time": 2357, "annotation": {"number": 64, "value": 127}, "group": "control_change"}, {"time": 2365, "annotation": {"number": 64, "value": 0}, "group": "control_change"}, {"time": 2369, "annotation": {"number": 64, "value": 127}, "group": "control_change"}, {"time": 2412, "annotation": {"number": 64, "value": 0}, "group": "control_change"}, {"time": 2417, "annotation": {"number": 64, "value": 127}, "group": "control_change"}, {"time": 2461, "annotation": {"number": 64, "value": 0}, "group": "control_change"}, {"time": 2465, "annotation": {"number": 64, "value": 127}, "group": "control_change"}, {"time": 2508, "annotation": {"number": 64, "value": 0}, "group": "control_change"}, {"time": 2513, "annotation": {"number": 64, "value": 127}, "group": "control_change"}, {"time": 2556, "annotation": {"number": 64, "value": 0}, "group": "control_change"}, {"time": 2561, "annotation": {"number": 64, "value": 127}, "group": "control_change"}, {"time": 2604, "annotation": {"number": 64, "value": 0}, "group": "control_change"}, {"time": 2609, "annotation": {"number": 64, "value": 127}, "group": "control_change"}, {"time": 2651, "annotation": {"number": 64, "value": 0}, "group": "control_change"}, {"time": 2657, "annotation": {"number": 64, "value": 127}, "group": "control_change"}, {"time": 2700, "annotation": {"number": 64, "value": 0}, "group": "control_change"}, {"time": 2704, "annotation": {"number": 64, "value": 127}, "group": "control_change"}, {"time": 2725, "annotation": {"number": 64, "value": 0}, "group": "control_change"}, {"time": 2729, "annotation": {"number": 64, "value": 127}, "group": "control_change"}, {"time": 2749, "annotation": {"number": 64, "value": 0}, "group": "control_change"}, {"time": 2752, "annotation": {"number": 64, "value": 127}, "group": "control_change"}, {"time": 2796, "annotation": {"number": 64, "value": 0}, "group": "control_change"}, {"time": 2800, "annotation": {"number": 64, "value": 127}, "group": "control_change"}, {"time": 2843, "annotation": {"number": 64, "value": 0}, "group": "control_change"}, {"time": 2848, "annotation": {"number": 64, "value": 127}, "group": "control_change"}, {"time": 2890, "annotation": {"number": 64, "value": 0}, "group": "control_change"}, {"time": 2896, "annotation": {"number": 64, "value": 127}, "group": "control_change"}, {"time": 2939, "annotation": {"number": 64, "value": 0}, "group": "control_change"}, {"time": 2944, "annotation": {"number": 64, "value": 127}, "group": "control_change"}, {"time": 2986, "annotation": {"number": 64, "value": 0}, "group": "control_change"}, {"time": 2992, "annotation": {"number": 64, "value": 127}, "group": "control_change"}, {"time": 3034, "annotation": {"number": 64, "value": 0}, "group": "control_change"}, {"time": 3040, "annotation": {"number": 64, "value": 127}, "group": "control_change"}, {"time": 3083, "annotation": {"number": 64, "value": 0}, "group": "control_change"}, {"time": 3088, "annotation": {"number": 64, "value": 127}, "group": "control_change"}, {"time": 3131, "annotation": {"number": 64, "value": 127}, "group": "control_change"}, {"time": 3132, "annotation": {"number": 64, "value": 0}, "group": "control_change"}, {"time": 3134, "annotation": {"number": 64, "value": 0}, "group": "control_change"}, {"time": 3137, "annotation": {"number": 64, "value": 127}, "group": "control_change"}, {"time": 3180, "annotation": {"number": 64, "value": 0}, "group": "control_change"}, {"time": 3185, "annotation": {"number": 64, "value": 127}, "group": "control_change"}, {"time": 3228, "annotation": {"number": 64, "value": 0}, "group": "control_change"}, {"time": 3232, "annotation": {"number": 64, "value": 127}, "group": "control_change"}, {"time": 3274, "annotation": {"number": 64, "value": 0}, "group": "control_change"}, {"time": 3280, "annotation": {"number": 64, "value": 127}, "group": "control_change"}, {"time": 3325, "annotation": {"number": 64, "value": 0}, "group": "control_change"}, {"time": 3328, "annotation": {"number": 64, "value": 127}, "group": "control_change"}, {"time": 3372, "annotation": {"number": 64, "value": 0}, "group": "control_change"}, {"time": 3377, "annotation": {"number": 64, "value": 127}, "group": "control_change"}, {"time": 3418, "annotation": {"number": 64, "value": 0}, "group": "control_change"}, {"time": 3424, "annotation": {"number": 64, "value": 127}, "group": "control_change"}, {"time": 3469, "annotation": {"number": 64, "value": 0}, "group": "control_change"}, {"time": 3472, "annotation": {"number": 64, "value": 127}, "group": "control_change"}, {"time": 3516, "annotation": {"number": 64, "value": 0}, "group": "control_change"}, {"time": 3520, "annotation": {"number": 64, "value": 127}, "group": "control_change"}, {"time": 3540, "annotation": {"number": 64, "value": 0}, "group": "control_change"}, {"time": 3544, "annotation": {"number": 64, "value": 127}, "group": "control_change"}, {"time": 3565, "annotation": {"number": 64, "value": 0}, "group": "control_change"}, {"time": 3569, "annotation": {"number": 64, "value": 127}, "group": "control_change"}, {"time": 3612, "annotation": {"number": 64, "value": 0}, "group": "control_change"}, {"time": 3616, "annotation": {"number": 64, "value": 127}, "group": "control_change"}, {"time": 3659, "annotation": {"number": 64, "value": 0}, "group": "control_change"}, {"time": 3664, "annotation": {"number": 64, "value": 127}, "group": "control_change"}, {"time": 3708, "annotation": {"number": 64, "value": 0}, "group": "control_change"}, {"time": 3713, "annotation": {"number": 64, "value": 127}, "group": "control_change"}, {"time": 3754, "annotation": {"number": 64, "value": 0}, "group": "control_change"}, {"time": 3760, "annotation": {"number": 64, "value": 127}, "group": "control_change"}, {"time": 3803, "annotation": {"number": 64, "value": 0}, "group": "control_change"}, {"time": 3808, "annotation": {"number": 64, "value": 127}, "group": "control_change"}, {"time": 3851, "annotation": {"number": 64, "value": 0}, "group": "control_change"}, {"time": 3856, "annotation": {"number": 64, "value": 127}, "group": "control_change"}, {"time": 3899, "annotation": {"number": 64, "value": 0}, "group": "control_change"}, {"time": 3904, "annotation": {"number": 64, "value": 127}, "group": "control_change"}, {"time": 3953, "annotation": {"number": 64, "value": 127}, "group": "control_change"}, {"time": 3996, "annotation": {"number": 64, "value": 0}, "group": "control_change"}, {"time": 4000, "annotation": {"number": 64, "value": 127}, "group": "control_change"}, {"time": 4043, "annotation": {"number": 64, "value": 0}, "group": "control_change"}, {"time": 4048, "annotation": {"number": 64, "value": 127}, "group": "control_change"}, {"time": 4092, "annotation": {"number": 64, "value": 0}, "group": "control_change"}, {"time": 4097, "annotation": {"number": 64, "value": 127}, "group": "control_change"}, {"time": 4138, "annotation": {"number": 64, "value": 0}, "group": "control_change"}, {"time": 4144, "annotation": {"number": 64, "value": 127}, "group": "control_change"}, {"time": 4187, "annotation": {"number": 64, "value": 0}, "group": "control_change"}, {"time": 4192, "annotation": {"number": 64, "value": 127}, "group": "control_change"}, {"time": 4235, "annotation": {"number": 64, "value": 0}, "group": "control_change"}, {"time": 4240, "annotation": {"number": 64, "value": 127}, "group": "control_change"}, {"time": 4283, "annotation": {"number": 64, "value": 0}, "group": "control_change"}, {"time": 4288, "annotation": {"number": 64, "value": 127}, "group": "control_change"}, {"time": 4337, "annotation": {"number": 64, "value": 127}, "group": "control_change"}, {"time": 4380, "annotation": {"number": 64, "value": 0}, "group": "control_change"}, {"time": 4384, "annotation": {"number": 64, "value": 127}, "group": "control_change"}, {"time": 4427, "annotation": {"number": 64, "value": 0}, "group": "control_change"}, {"time": 4432, "annotation": {"number": 64, "value": 127}, "group": "control_change"}, {"time": 4476, "annotation": {"number": 64, "value": 0}, "group": "control_change"}, {"time": 4481, "annotation": {"number": 64, "value": 127}, "group": "control_change"}, {"time": 4522, "annotation": {"number": 64, "value": 0}, "group": "control_change"}, {"time": 4528, "annotation": {"number": 64, "value": 127}, "group": "control_change"}, {"time": 4571, "annotation": {"number": 64, "value": 0}, "group": "control_change"}, {"time": 4576, "annotation": {"number": 64, "value": 127}, "group": "control_change"}, {"time": 4619, "annotation": {"number": 64, "value": 0}, "group": "control_change"}, {"time": 4624, "annotation": {"number": 64, "value": 127}, "group": "control_change"}, {"time": 4667, "annotation": {"number": 64, "value": 0}, "group": "control_change"}, {"time": 4672, "annotation": {"number": 64, "value": 127}, "group": "control_change"}, {"time": 4709, "annotation": {"number": 64, "value": 127}, "group": "control_change"}, {"time": 4717, "annotation": {"number": 64, "value": 0}, "group": "control_change"}, {"time": 4719, "annotation": {"number": 64, "value": 127}, "group": "control_change"}, {"time": 4734, "annotation": {"number": 64, "value": 0}, "group": "control_change"}, {"time": 4738, "annotation": {"number": 64, "value": 127}, "group": "control_change"}, {"time": 4764, "annotation": {"number": 64, "value": 0}, "group": "control_change"}, {"time": 4769, "annotation": {"number": 64, "value": 127}, "group": "control_change"}, {"time": 4811, "annotation": {"number": 64, "value": 0}, "group": "control_change"}, {"time": 4816, "annotation": {"number": 64, "value": 127}, "group": "control_change"}, {"time": 4859, "annotation": {"number": 64, "value": 0}, "group": "control_change"}, {"time": 4864, "annotation": {"number": 64, "value": 127}, "group": "control_change"}, {"time": 4905, "annotation": {"number": 64, "value": 0}, "group": "control_change"}, {"time": 4912, "annotation": {"number": 64, "value": 127}, "group": "control_change"}, {"time": 4956, "annotation": {"number": 64, "value": 0}, "group": "control_change"}, {"time": 4960, "annotation": {"number": 64, "value": 127}, "group": "control_change"}, {"time": 5003, "annotation": {"number": 64, "value": 0}, "group": "control_change"}, {"time": 5009, "annotation": {"number": 64, "value": 127}, "group": "control_change"}, {"time": 5051, "annotation": {"number": 64, "value": 0}, "group": "control_change"}, {"time": 5057, "annotation": {"number": 64, "value": 127}, "group": "control_change"}, {"time": 5076, "annotation": {"number": 64, "value": 0}, "group": "control_change"}, {"time": 5080, "annotation": {"number": 64, "value": 127}, "group": "control_change"}, {"time": 5099, "annotation": {"number": 64, "value": 0}, "group": "control_change"}, {"time": 5105, "annotation": {"number": 64, "value": 127}, "group": "control_change"}, {"time": 5147, "annotation": {"number": 64, "value": 0}, "group": "control_change"}, {"time": 5152, "annotation": {"number": 64, "value": 127}, "group": "control_change"}, {"time": 5195, "annotation": {"number": 64, "value": 0}, "group": "control_change"}, {"time": 5200, "annotation": {"number": 64, "value": 127}, "group": "control_change"}, {"time": 5243, "annotation": {"number": 64, "value": 0}, "group": "control_change"}, {"time": 5248, "annotation": {"number": 64, "value": 127}, "group": "control_change"}, {"time": 5269, "annotation": {"number": 64, "value": 0}, "group": "control_change"}, {"time": 5272, "annotation": {"number": 64, "value": 127}, "group": "control_change"}, {"time": 5291, "annotation": {"number": 64, "value": 0}, "group": "control_change"}, {"time": 5296, "annotation": {"number": 64, "value": 127}, "group": "control_change"}, {"time": 5338, "annotation": {"number": 64, "value": 0}, "group": "control_change"}, {"time": 5344, "annotation": {"number": 64, "value": 127}, "group": "control_change"}, {"time": 5387, "annotation": {"number": 64, "value": 0}, "group": "control_change"}, {"time": 5392, "annotation": {"number": 64, "value": 127}, "group": "control_change"}, {"time": 5435, "annotation": {"number": 64, "value": 0}, "group": "control_change"}, {"time": 5440, "annotation": {"number": 64, "value": 127}, "group": "control_change"}, {"time": 5461, "annotation": {"number": 64, "value": 0}, "group": "control_change"}, {"time": 5465, "annotation": {"number": 64, "value": 127}, "group": "control_change"}]}]}