{"metadata": {"schema_version": "0.2", "title": "None", "source_filename": "086.mid", "source_format": "midi"}, "resolution": 12, "tempos": [{"time": 0, "qpm": 61.480008238321105}, {"time": 3036, "qpm": 57.500014375003595}, {"time": 3096, "qpm": 61.99999586666694}, {"time": 3156, "qpm": 61.49998462500384}], "key_signatures": [{"time": 0, "root": 0, "mode": "major"}], "time_signatures": [{"time": 0, "numerator": 4, "denominator": 4}, {"time": 0, "numerator": 1, "denominator": 4}], "tracks": [{"program": 4, "is_drum": false, "name": "MELODY", "notes": [{"time": 443, "pitch": 78, "duration": 3, "velocity": 112}, {"time": 446, "pitch": 81, "duration": 8, "velocity": 97}, {"time": 455, "pitch": 81, "duration": 4, "velocity": 112}, {"time": 461, "pitch": 81, "duration": 4, "velocity": 112}, {"time": 467, "pitch": 81, "duration": 6, "velocity": 107}, {"time": 473, "pitch": 78, "duration": 5, "velocity": 112}, {"time": 479, "pitch": 76, "duration": 8, "velocity": 102}, {"time": 491, "pitch": 76, "duration": 5, "velocity": 112}, {"time": 497, "pitch": 81, "duration": 5, "velocity": 99}, {"time": 503, "pitch": 78, "duration": 6, "velocity": 107}, {"time": 509, "pitch": 76, "duration": 4, "velocity": 102}, {"time": 515, "pitch": 76, "duration": 7, "velocity": 102}, {"time": 524, "pitch": 73, "duration": 3, "velocity": 107}, {"time": 527, "pitch": 71, "duration": 7, "velocity": 102}, {"time": 539, "pitch": 71, "duration": 6, "velocity": 102}, {"time": 545, "pitch": 73, "duration": 6, "velocity": 117}, {"time": 551, "pitch": 76, "duration": 6, "velocity": 78}, {"time": 557, "pitch": 76, "duration": 5, "velocity": 100}, {"time": 563, "pitch": 71, "duration": 3, "velocity": 95}, {"time": 566, "pitch": 73, "duration": 3, "velocity": 107}, {"time": 569, "pitch": 71, "duration": 3, "velocity": 107}, {"time": 572, "pitch": 69, "duration": 2, "velocity": 95}, {"time": 575, "pitch": 66, "duration": 6, "velocity": 112}, {"time": 584, "pitch": 66, "duration": 3, "velocity": 117}, {"time": 587, "pitch": 71, "duration": 4, "velocity": 97}, {"time": 593, "pitch": 71, "duration": 2, "velocity": 112}, {"time": 596, "pitch": 69, "duration": 3, "velocity": 92}, {"time": 599, "pitch": 66, "duration": 4, "velocity": 97}, {"time": 602, "pitch": 66, "duration": 1, "velocity": 96}, {"time": 605, "pitch": 69, "duration": 3, "velocity": 86}, {"time": 608, "pitch": 66, "duration": 3, "velocity": 107}, {"time": 611, "pitch": 64, "duration": 13, "velocity": 97}, {"time": 635, "pitch": 76, "duration": 9, "velocity": 95}, {"time": 647, "pitch": 76, "duration": 5, "velocity": 127}, {"time": 653, "pitch": 76, "duration": 4, "velocity": 112}, {"time": 659, "pitch": 73, "duration": 6, "velocity": 117}, {"time": 665, "pitch": 71, "duration": 5, "velocity": 90}, {"time": 671, "pitch": 66, "duration": 7, "velocity": 99}, {"time": 677, "pitch": 64, "duration": 2, "velocity": 99}, {"time": 683, "pitch": 76, "duration": 4, "velocity": 112}, {"time": 689, "pitch": 76, "duration": 1, "velocity": 117}, {"time": 692, "pitch": 76, "duration": 1, "velocity": 97}, {"time": 695, "pitch": 78, "duration": 3, "velocity": 117}, {"time": 701, "pitch": 76, "duration": 3, "velocity": 102}, {"time": 704, "pitch": 73, "duration": 3, "velocity": 95}, {"time": 707, "pitch": 76, "duration": 7, "velocity": 99}, {"time": 716, "pitch": 78, "duration": 3, "velocity": 107}, {"time": 719, "pitch": 76, "duration": 7, "velocity": 100}, {"time": 728, "pitch": 66, "duration": 3, "velocity": 92}, {"time": 731, "pitch": 76, "duration": 5, "velocity": 96}, {"time": 737, "pitch": 78, "duration": 5, "velocity": 96}, {"time": 743, "pitch": 81, "duration": 5, "velocity": 96}, {"time": 749, "pitch": 81, "duration": 3, "velocity": 112}, {"time": 755, "pitch": 78, "duration": 3, "velocity": 117}, {"time": 758, "pitch": 81, "duration": 3, "velocity": 79}, {"time": 761, "pitch": 78, "duration": 3, "velocity": 107}, {"time": 764, "pitch": 76, "duration": 3, "velocity": 97}, {"time": 767, "pitch": 73, "duration": 3, "velocity": 122}, {"time": 770, "pitch": 71, "duration": 3, "velocity": 85}, {"time": 773, "pitch": 69, "duration": 2, "velocity": 96}, {"time": 776, "pitch": 69, "duration": 2, "velocity": 90}, {"time": 779, "pitch": 71, "duration": 3, "velocity": 102}, {"time": 785, "pitch": 71, "duration": 3, "velocity": 95}, {"time": 788, "pitch": 73, "duration": 3, "velocity": 99}, {"time": 791, "pitch": 71, "duration": 3, "velocity": 95}, {"time": 794, "pitch": 69, "duration": 1, "velocity": 100}, {"time": 797, "pitch": 69, "duration": 3, "velocity": 102}, {"time": 803, "pitch": 66, "duration": 20, "velocity": 99}, {"time": 827, "pitch": 69, "duration": 9, "velocity": 100}, {"time": 839, "pitch": 69, "duration": 4, "velocity": 99}, {"time": 845, "pitch": 69, "duration": 3, "velocity": 102}, {"time": 851, "pitch": 69, "duration": 3, "velocity": 102}, {"time": 857, "pitch": 69, "duration": 2, "velocity": 100}, {"time": 860, "pitch": 66, "duration": 3, "velocity": 122}, {"time": 863, "pitch": 64, "duration": 7, "velocity": 99}, {"time": 875, "pitch": 76, "duration": 4, "velocity": 112}, {"time": 881, "pitch": 78, "duration": 2, "velocity": 127}, {"time": 884, "pitch": 81, "duration": 2, "velocity": 96}, {"time": 887, "pitch": 78, "duration": 4, "velocity": 127}, {"time": 890, "pitch": 76, "duration": 1, "velocity": 96}, {"time": 893, "pitch": 76, "duration": 3, "velocity": 96}, {"time": 896, "pitch": 73, "duration": 3, "velocity": 97}, {"time": 899, "pitch": 76, "duration": 10, "velocity": 97}, {"time": 908, "pitch": 73, "duration": 3, "velocity": 107}, {"time": 911, "pitch": 71, "duration": 7, "velocity": 107}, {"time": 923, "pitch": 71, "duration": 6, "velocity": 102}, {"time": 929, "pitch": 73, "duration": 6, "velocity": 122}, {"time": 935, "pitch": 76, "duration": 5, "velocity": 100}, {"time": 941, "pitch": 76, "duration": 3, "velocity": 100}, {"time": 947, "pitch": 71, "duration": 3, "velocity": 122}, {"time": 950, "pitch": 73, "duration": 3, "velocity": 95}, {"time": 953, "pitch": 71, "duration": 3, "velocity": 97}, {"time": 956, "pitch": 69, "duration": 3, "velocity": 97}, {"time": 959, "pitch": 66, "duration": 7, "velocity": 117}, {"time": 971, "pitch": 71, "duration": 4, "velocity": 117}, {"time": 977, "pitch": 71, "duration": 3, "velocity": 117}, {"time": 980, "pitch": 69, "duration": 3, "velocity": 95}, {"time": 983, "pitch": 66, "duration": 4, "velocity": 97}, {"time": 989, "pitch": 69, "duration": 3, "velocity": 100}, {"time": 992, "pitch": 66, "duration": 3, "velocity": 107}, {"time": 995, "pitch": 64, "duration": 19, "velocity": 102}, {"time": 1019, "pitch": 76, "duration": 9, "velocity": 112}, {"time": 1031, "pitch": 76, "duration": 3, "velocity": 117}, {"time": 1037, "pitch": 76, "duration": 1, "velocity": 112}, {"time": 1040, "pitch": 76, "duration": 2, "velocity": 97}, {"time": 1043, "pitch": 73, "duration": 4, "velocity": 117}, {"time": 1049, "pitch": 73, "duration": 3, "velocity": 127}, {"time": 1052, "pitch": 71, "duration": 3, "velocity": 97}, {"time": 1055, "pitch": 69, "duration": 2, "velocity": 96}, {"time": 1058, "pitch": 66, "duration": 3, "velocity": 95}, {"time": 1061, "pitch": 64, "duration": 3, "velocity": 99}, {"time": 1067, "pitch": 76, "duration": 4, "velocity": 117}, {"time": 1073, "pitch": 76, "duration": 1, "velocity": 122}, {"time": 1076, "pitch": 76, "duration": 2, "velocity": 99}, {"time": 1079, "pitch": 78, "duration": 2, "velocity": 117}, {"time": 1082, "pitch": 76, "duration": 1, "velocity": 100}, {"time": 1085, "pitch": 76, "duration": 2, "velocity": 93}, {"time": 1088, "pitch": 73, "duration": 3, "velocity": 122}, {"time": 1091, "pitch": 76, "duration": 7, "velocity": 93}, {"time": 1100, "pitch": 78, "duration": 3, "velocity": 122}, {"time": 1103, "pitch": 76, "duration": 7, "velocity": 102}, {"time": 1115, "pitch": 76, "duration": 6, "velocity": 107}, {"time": 1121, "pitch": 78, "duration": 6, "velocity": 127}, {"time": 1127, "pitch": 81, "duration": 4, "velocity": 100}, {"time": 1133, "pitch": 81, "duration": 4, "velocity": 112}, {"time": 1139, "pitch": 78, "duration": 3, "velocity": 127}, {"time": 1142, "pitch": 81, "duration": 2, "velocity": 96}, {"time": 1145, "pitch": 78, "duration": 3, "velocity": 117}, {"time": 1145, "pitch": 78, "duration": 3, "velocity": 127}, {"time": 1151, "pitch": 73, "duration": 3, "velocity": 100}, {"time": 1154, "pitch": 71, "duration": 2, "velocity": 72}, {"time": 1157, "pitch": 69, "duration": 3, "velocity": 95}, {"time": 1163, "pitch": 71, "duration": 5, "velocity": 102}, {"time": 1169, "pitch": 73, "duration": 4, "velocity": 112}, {"time": 1175, "pitch": 71, "duration": 3, "velocity": 117}, {"time": 1178, "pitch": 69, "duration": 1, "velocity": 97}, {"time": 1181, "pitch": 69, "duration": 3, "velocity": 102}, {"time": 1184, "pitch": 66, "duration": 3, "velocity": 99}, {"time": 1187, "pitch": 69, "duration": 20, "velocity": 96}, {"time": 1211, "pitch": 81, "duration": 9, "velocity": 122}, {"time": 1223, "pitch": 81, "duration": 9, "velocity": 117}, {"time": 1235, "pitch": 76, "duration": 5, "velocity": 127}, {"time": 1241, "pitch": 73, "duration": 4, "velocity": 127}, {"time": 1247, "pitch": 76, "duration": 7, "velocity": 117}, {"time": 1259, "pitch": 81, "duration": 3, "velocity": 127}, {"time": 1265, "pitch": 81, "duration": 1, "velocity": 117}, {"time": 1268, "pitch": 81, "duration": 1, "velocity": 96}, {"time": 1271, "pitch": 78, "duration": 4, "velocity": 122}, {"time": 1277, "pitch": 76, "duration": 3, "velocity": 100}, {"time": 1280, "pitch": 73, "duration": 2, "velocity": 96}, {"time": 1283, "pitch": 76, "duration": 7, "velocity": 100}, {"time": 1292, "pitch": 78, "duration": 3, "velocity": 117}, {"time": 1295, "pitch": 76, "duration": 11, "velocity": 112}, {"time": 1307, "pitch": 71, "duration": 8, "velocity": 107}, {"time": 1316, "pitch": 73, "duration": 3, "velocity": 127}, {"time": 1319, "pitch": 76, "duration": 5, "velocity": 107}, {"time": 1331, "pitch": 66, "duration": 6, "velocity": 117}, {"time": 1337, "pitch": 64, "duration": 3, "velocity": 92}, {"time": 1340, "pitch": 66, "duration": 3, "velocity": 102}, {"time": 1343, "pitch": 69, "duration": 7, "velocity": 97}, {"time": 1355, "pitch": 69, "duration": 3, "velocity": 100}, {"time": 1361, "pitch": 69, "duration": 1, "velocity": 102}, {"time": 1364, "pitch": 73, "duration": 2, "velocity": 127}, {"time": 1367, "pitch": 71, "duration": 2, "velocity": 122}, {"time": 1370, "pitch": 69, "duration": 1, "velocity": 93}, {"time": 1373, "pitch": 69, "duration": 2, "velocity": 92}, {"time": 1376, "pitch": 66, "duration": 3, "velocity": 96}, {"time": 1379, "pitch": 64, "duration": 7, "velocity": 102}, {"time": 1388, "pitch": 66, "duration": 2, "velocity": 107}, {"time": 1391, "pitch": 64, "duration": 7, "velocity": 99}, {"time": 1403, "pitch": 81, "duration": 9, "velocity": 122}, {"time": 1415, "pitch": 81, "duration": 9, "velocity": 117}, {"time": 1427, "pitch": 76, "duration": 5, "velocity": 127}, {"time": 1433, "pitch": 73, "duration": 4, "velocity": 127}, {"time": 1439, "pitch": 76, "duration": 7, "velocity": 117}, {"time": 1451, "pitch": 81, "duration": 3, "velocity": 127}, {"time": 1457, "pitch": 81, "duration": 1, "velocity": 117}, {"time": 1460, "pitch": 81, "duration": 1, "velocity": 96}, {"time": 1463, "pitch": 78, "duration": 2, "velocity": 127}, {"time": 1466, "pitch": 76, "duration": 2, "velocity": 100}, {"time": 1469, "pitch": 81, "duration": 2, "velocity": 99}, {"time": 1472, "pitch": 78, "duration": 3, "velocity": 117}, {"time": 1475, "pitch": 76, "duration": 9, "velocity": 99}, {"time": 1484, "pitch": 78, "duration": 3, "velocity": 112}, {"time": 1487, "pitch": 76, "duration": 11, "velocity": 112}, {"time": 1499, "pitch": 71, "duration": 8, "velocity": 107}, {"time": 1508, "pitch": 73, "duration": 3, "velocity": 127}, {"time": 1511, "pitch": 76, "duration": 5, "velocity": 100}, {"time": 1511, "pitch": 76, "duration": 5, "velocity": 107}, {"time": 1523, "pitch": 66, "duration": 6, "velocity": 117}, {"time": 1529, "pitch": 64, "duration": 3, "velocity": 92}, {"time": 1532, "pitch": 66, "duration": 3, "velocity": 102}, {"time": 1535, "pitch": 69, "duration": 7, "velocity": 97}, {"time": 1547, "pitch": 71, "duration": 1, "velocity": 100}, {"time": 1550, "pitch": 71, "duration": 1, "velocity": 95}, {"time": 1553, "pitch": 71, "duration": 2, "velocity": 112}, {"time": 1556, "pitch": 69, "duration": 2, "velocity": 99}, {"time": 1559, "pitch": 66, "duration": 2, "velocity": 117}, {"time": 1562, "pitch": 66, "duration": 2, "velocity": 107}, {"time": 1565, "pitch": 69, "duration": 3, "velocity": 92}, {"time": 1568, "pitch": 66, "duration": 3, "velocity": 102}, {"time": 1571, "pitch": 64, "duration": 12, "velocity": 99}, {"time": 1835, "pitch": 78, "duration": 3, "velocity": 112}, {"time": 1838, "pitch": 81, "duration": 8, "velocity": 97}, {"time": 1847, "pitch": 81, "duration": 4, "velocity": 112}, {"time": 1853, "pitch": 81, "duration": 4, "velocity": 112}, {"time": 1859, "pitch": 81, "duration": 6, "velocity": 107}, {"time": 1865, "pitch": 78, "duration": 5, "velocity": 112}, {"time": 1871, "pitch": 76, "duration": 8, "velocity": 102}, {"time": 1883, "pitch": 76, "duration": 5, "velocity": 112}, {"time": 1889, "pitch": 78, "duration": 3, "velocity": 112}, {"time": 1892, "pitch": 81, "duration": 2, "velocity": 97}, {"time": 1895, "pitch": 76, "duration": 2, "velocity": 112}, {"time": 1898, "pitch": 76, "duration": 1, "velocity": 95}, {"time": 1901, "pitch": 76, "duration": 2, "velocity": 93}, {"time": 1904, "pitch": 73, "duration": 3, "velocity": 112}, {"time": 1907, "pitch": 76, "duration": 7, "velocity": 102}, {"time": 1916, "pitch": 73, "duration": 3, "velocity": 107}, {"time": 1919, "pitch": 71, "duration": 7, "velocity": 102}, {"time": 1931, "pitch": 71, "duration": 6, "velocity": 102}, {"time": 1937, "pitch": 73, "duration": 6, "velocity": 117}, {"time": 1943, "pitch": 76, "duration": 6, "velocity": 78}, {"time": 1949, "pitch": 76, "duration": 5, "velocity": 100}, {"time": 1955, "pitch": 71, "duration": 3, "velocity": 95}, {"time": 1958, "pitch": 73, "duration": 3, "velocity": 107}, {"time": 1961, "pitch": 71, "duration": 3, "velocity": 107}, {"time": 1964, "pitch": 69, "duration": 2, "velocity": 95}, {"time": 1967, "pitch": 66, "duration": 9, "velocity": 112}, {"time": 1979, "pitch": 71, "duration": 4, "velocity": 97}, {"time": 1985, "pitch": 71, "duration": 2, "velocity": 112}, {"time": 1988, "pitch": 69, "duration": 3, "velocity": 92}, {"time": 1991, "pitch": 66, "duration": 4, "velocity": 97}, {"time": 1997, "pitch": 69, "duration": 3, "velocity": 86}, {"time": 2000, "pitch": 66, "duration": 3, "velocity": 107}, {"time": 2003, "pitch": 64, "duration": 21, "velocity": 97}, {"time": 2027, "pitch": 76, "duration": 9, "velocity": 95}, {"time": 2039, "pitch": 76, "duration": 5, "velocity": 127}, {"time": 2045, "pitch": 76, "duration": 4, "velocity": 112}, {"time": 2051, "pitch": 73, "duration": 6, "velocity": 117}, {"time": 2057, "pitch": 71, "duration": 5, "velocity": 90}, {"time": 2063, "pitch": 66, "duration": 7, "velocity": 99}, {"time": 2069, "pitch": 64, "duration": 2, "velocity": 99}, {"time": 2075, "pitch": 76, "duration": 4, "velocity": 112}, {"time": 2081, "pitch": 76, "duration": 1, "velocity": 117}, {"time": 2084, "pitch": 76, "duration": 1, "velocity": 97}, {"time": 2087, "pitch": 78, "duration": 3, "velocity": 117}, {"time": 2093, "pitch": 76, "duration": 3, "velocity": 102}, {"time": 2096, "pitch": 73, "duration": 3, "velocity": 95}, {"time": 2099, "pitch": 76, "duration": 8, "velocity": 99}, {"time": 2108, "pitch": 78, "duration": 3, "velocity": 107}, {"time": 2111, "pitch": 76, "duration": 7, "velocity": 100}, {"time": 2120, "pitch": 66, "duration": 3, "velocity": 92}, {"time": 2123, "pitch": 76, "duration": 5, "velocity": 96}, {"time": 2129, "pitch": 78, "duration": 5, "velocity": 96}, {"time": 2135, "pitch": 81, "duration": 5, "velocity": 96}, {"time": 2141, "pitch": 81, "duration": 3, "velocity": 112}, {"time": 2147, "pitch": 78, "duration": 3, "velocity": 117}, {"time": 2150, "pitch": 81, "duration": 3, "velocity": 79}, {"time": 2153, "pitch": 78, "duration": 3, "velocity": 107}, {"time": 2156, "pitch": 76, "duration": 3, "velocity": 97}, {"time": 2159, "pitch": 73, "duration": 3, "velocity": 122}, {"time": 2162, "pitch": 71, "duration": 3, "velocity": 85}, {"time": 2165, "pitch": 69, "duration": 2, "velocity": 96}, {"time": 2171, "pitch": 71, "duration": 3, "velocity": 102}, {"time": 2177, "pitch": 71, "duration": 3, "velocity": 95}, {"time": 2180, "pitch": 73, "duration": 3, "velocity": 99}, {"time": 2183, "pitch": 71, "duration": 3, "velocity": 95}, {"time": 2186, "pitch": 69, "duration": 1, "velocity": 97}, {"time": 2189, "pitch": 69, "duration": 2, "velocity": 96}, {"time": 2192, "pitch": 66, "duration": 2, "velocity": 102}, {"time": 2195, "pitch": 69, "duration": 24, "velocity": 99}, {"time": 2219, "pitch": 81, "duration": 9, "velocity": 122}, {"time": 2231, "pitch": 81, "duration": 14, "velocity": 117}, {"time": 2243, "pitch": 76, "duration": 5, "velocity": 127}, {"time": 2249, "pitch": 73, "duration": 4, "velocity": 127}, {"time": 2255, "pitch": 76, "duration": 7, "velocity": 117}, {"time": 2267, "pitch": 81, "duration": 3, "velocity": 127}, {"time": 2273, "pitch": 81, "duration": 1, "velocity": 117}, {"time": 2276, "pitch": 81, "duration": 1, "velocity": 96}, {"time": 2279, "pitch": 78, "duration": 4, "velocity": 122}, {"time": 2285, "pitch": 76, "duration": 3, "velocity": 100}, {"time": 2288, "pitch": 73, "duration": 2, "velocity": 96}, {"time": 2291, "pitch": 76, "duration": 9, "velocity": 100}, {"time": 2300, "pitch": 78, "duration": 3, "velocity": 117}, {"time": 2303, "pitch": 76, "duration": 11, "velocity": 112}, {"time": 2315, "pitch": 71, "duration": 8, "velocity": 107}, {"time": 2324, "pitch": 73, "duration": 3, "velocity": 127}, {"time": 2327, "pitch": 76, "duration": 5, "velocity": 107}, {"time": 2339, "pitch": 66, "duration": 6, "velocity": 117}, {"time": 2345, "pitch": 64, "duration": 3, "velocity": 92}, {"time": 2348, "pitch": 66, "duration": 3, "velocity": 102}, {"time": 2351, "pitch": 69, "duration": 12, "velocity": 97}, {"time": 2363, "pitch": 69, "duration": 3, "velocity": 100}, {"time": 2369, "pitch": 69, "duration": 1, "velocity": 102}, {"time": 2372, "pitch": 73, "duration": 2, "velocity": 127}, {"time": 2375, "pitch": 71, "duration": 2, "velocity": 122}, {"time": 2378, "pitch": 69, "duration": 1, "velocity": 93}, {"time": 2381, "pitch": 69, "duration": 2, "velocity": 92}, {"time": 2384, "pitch": 66, "duration": 3, "velocity": 96}, {"time": 2387, "pitch": 64, "duration": 7, "velocity": 102}, {"time": 2396, "pitch": 66, "duration": 2, "velocity": 107}, {"time": 2399, "pitch": 64, "duration": 12, "velocity": 99}, {"time": 2411, "pitch": 81, "duration": 9, "velocity": 122}, {"time": 2423, "pitch": 81, "duration": 9, "velocity": 117}, {"time": 2435, "pitch": 76, "duration": 5, "velocity": 127}, {"time": 2441, "pitch": 73, "duration": 4, "velocity": 127}, {"time": 2447, "pitch": 76, "duration": 7, "velocity": 117}, {"time": 2459, "pitch": 81, "duration": 3, "velocity": 127}, {"time": 2465, "pitch": 81, "duration": 1, "velocity": 117}, {"time": 2468, "pitch": 81, "duration": 1, "velocity": 96}, {"time": 2471, "pitch": 78, "duration": 2, "velocity": 127}, {"time": 2474, "pitch": 76, "duration": 2, "velocity": 100}, {"time": 2477, "pitch": 81, "duration": 2, "velocity": 99}, {"time": 2480, "pitch": 78, "duration": 3, "velocity": 117}, {"time": 2483, "pitch": 76, "duration": 9, "velocity": 99}, {"time": 2492, "pitch": 78, "duration": 3, "velocity": 112}, {"time": 2495, "pitch": 76, "duration": 11, "velocity": 112}, {"time": 2507, "pitch": 71, "duration": 8, "velocity": 107}, {"time": 2516, "pitch": 73, "duration": 3, "velocity": 127}, {"time": 2519, "pitch": 76, "duration": 5, "velocity": 100}, {"time": 2519, "pitch": 76, "duration": 5, "velocity": 107}, {"time": 2531, "pitch": 66, "duration": 5, "velocity": 117}, {"time": 2537, "pitch": 64, "duration": 3, "velocity": 92}, {"time": 2540, "pitch": 66, "duration": 3, "velocity": 102}, {"time": 2543, "pitch": 69, "duration": 12, "velocity": 105}, {"time": 2555, "pitch": 71, "duration": 1, "velocity": 100}, {"time": 2558, "pitch": 71, "duration": 1, "velocity": 95}, {"time": 2561, "pitch": 71, "duration": 2, "velocity": 112}, {"time": 2564, "pitch": 69, "duration": 2, "velocity": 99}, {"time": 2567, "pitch": 66, "duration": 2, "velocity": 117}, {"time": 2570, "pitch": 64, "duration": 2, "velocity": 107}, {"time": 2573, "pitch": 69, "duration": 3, "velocity": 92}, {"time": 2576, "pitch": 66, "duration": 3, "velocity": 102}, {"time": 2579, "pitch": 64, "duration": 12, "velocity": 99}, {"time": 2603, "pitch": 81, "duration": 9, "velocity": 122}, {"time": 2615, "pitch": 81, "duration": 14, "velocity": 117}, {"time": 2627, "pitch": 76, "duration": 5, "velocity": 127}, {"time": 2633, "pitch": 73, "duration": 4, "velocity": 127}, {"time": 2639, "pitch": 76, "duration": 7, "velocity": 117}, {"time": 2651, "pitch": 81, "duration": 3, "velocity": 127}, {"time": 2657, "pitch": 81, "duration": 1, "velocity": 117}, {"time": 2660, "pitch": 81, "duration": 1, "velocity": 96}, {"time": 2663, "pitch": 78, "duration": 4, "velocity": 122}, {"time": 2669, "pitch": 76, "duration": 3, "velocity": 100}, {"time": 2672, "pitch": 73, "duration": 2, "velocity": 96}, {"time": 2675, "pitch": 76, "duration": 9, "velocity": 100}, {"time": 2684, "pitch": 78, "duration": 3, "velocity": 117}, {"time": 2687, "pitch": 76, "duration": 11, "velocity": 112}, {"time": 2699, "pitch": 71, "duration": 8, "velocity": 107}, {"time": 2708, "pitch": 73, "duration": 3, "velocity": 127}, {"time": 2711, "pitch": 76, "duration": 5, "velocity": 107}, {"time": 2723, "pitch": 66, "duration": 6, "velocity": 117}, {"time": 2729, "pitch": 64, "duration": 3, "velocity": 92}, {"time": 2732, "pitch": 66, "duration": 3, "velocity": 102}, {"time": 2735, "pitch": 69, "duration": 12, "velocity": 97}, {"time": 2747, "pitch": 69, "duration": 3, "velocity": 100}, {"time": 2753, "pitch": 69, "duration": 1, "velocity": 102}, {"time": 2756, "pitch": 73, "duration": 2, "velocity": 127}, {"time": 2759, "pitch": 71, "duration": 2, "velocity": 122}, {"time": 2762, "pitch": 69, "duration": 1, "velocity": 93}, {"time": 2765, "pitch": 69, "duration": 2, "velocity": 92}, {"time": 2768, "pitch": 66, "duration": 3, "velocity": 96}, {"time": 2771, "pitch": 64, "duration": 7, "velocity": 102}, {"time": 2780, "pitch": 66, "duration": 2, "velocity": 107}, {"time": 2783, "pitch": 64, "duration": 12, "velocity": 99}, {"time": 2795, "pitch": 81, "duration": 9, "velocity": 122}, {"time": 2807, "pitch": 81, "duration": 9, "velocity": 117}, {"time": 2819, "pitch": 76, "duration": 5, "velocity": 127}, {"time": 2825, "pitch": 73, "duration": 4, "velocity": 127}, {"time": 2831, "pitch": 76, "duration": 7, "velocity": 117}, {"time": 2843, "pitch": 81, "duration": 3, "velocity": 127}, {"time": 2849, "pitch": 81, "duration": 1, "velocity": 117}, {"time": 2852, "pitch": 81, "duration": 1, "velocity": 96}, {"time": 2855, "pitch": 78, "duration": 2, "velocity": 127}, {"time": 2858, "pitch": 76, "duration": 2, "velocity": 100}, {"time": 2861, "pitch": 81, "duration": 2, "velocity": 99}, {"time": 2864, "pitch": 78, "duration": 3, "velocity": 117}, {"time": 2867, "pitch": 76, "duration": 9, "velocity": 99}, {"time": 2876, "pitch": 78, "duration": 3, "velocity": 112}, {"time": 2879, "pitch": 76, "duration": 11, "velocity": 112}, {"time": 2891, "pitch": 71, "duration": 8, "velocity": 107}, {"time": 2900, "pitch": 73, "duration": 3, "velocity": 127}, {"time": 2903, "pitch": 76, "duration": 5, "velocity": 100}, {"time": 2903, "pitch": 76, "duration": 5, "velocity": 107}, {"time": 2915, "pitch": 66, "duration": 5, "velocity": 117}, {"time": 2921, "pitch": 64, "duration": 3, "velocity": 92}, {"time": 2924, "pitch": 66, "duration": 3, "velocity": 102}, {"time": 2927, "pitch": 69, "duration": 12, "velocity": 105}, {"time": 2939, "pitch": 71, "duration": 1, "velocity": 100}, {"time": 2942, "pitch": 71, "duration": 1, "velocity": 95}, {"time": 2945, "pitch": 71, "duration": 2, "velocity": 112}, {"time": 2948, "pitch": 69, "duration": 2, "velocity": 99}, {"time": 2951, "pitch": 66, "duration": 2, "velocity": 117}, {"time": 2954, "pitch": 64, "duration": 2, "velocity": 107}, {"time": 2957, "pitch": 69, "duration": 3, "velocity": 92}, {"time": 2960, "pitch": 66, "duration": 3, "velocity": 102}, {"time": 2963, "pitch": 64, "duration": 12, "velocity": 99}, {"time": 2987, "pitch": 71, "duration": 8, "velocity": 107}, {"time": 2996, "pitch": 73, "duration": 3, "velocity": 127}, {"time": 2999, "pitch": 76, "duration": 5, "velocity": 100}, {"time": 2999, "pitch": 76, "duration": 5, "velocity": 107}, {"time": 3011, "pitch": 66, "duration": 5, "velocity": 117}, {"time": 3017, "pitch": 64, "duration": 3, "velocity": 92}, {"time": 3020, "pitch": 66, "duration": 3, "velocity": 102}, {"time": 3023, "pitch": 69, "duration": 12, "velocity": 105}, {"time": 3041, "pitch": 83, "duration": 3, "velocity": 102}, {"time": 3047, "pitch": 83, "duration": 6, "velocity": 117}, {"time": 3053, "pitch": 81, "duration": 8, "velocity": 122}, {"time": 3062, "pitch": 78, "duration": 6, "velocity": 127}, {"time": 3068, "pitch": 76, "duration": 6, "velocity": 112}, {"time": 3074, "pitch": 81, "duration": 9, "velocity": 100}, {"time": 3083, "pitch": 78, "duration": 13, "velocity": 112}, {"time": 3095, "pitch": 78, "duration": 1, "velocity": 127}, {"time": 3098, "pitch": 76, "duration": 49, "velocity": 85}]}, {"program": 0, "is_drum": false, "name": "PIANO", "notes": [{"time": 11, "pitch": 45, "duration": 22, "velocity": 82}, {"time": 14, "pitch": 52, "duration": 21, "velocity": 55}, {"time": 17, "pitch": 57, "duration": 7, "velocity": 69}, {"time": 20, "pitch": 59, "duration": 4, "velocity": 73}, {"time": 23, "pitch": 64, "duration": 13, "velocity": 86}, {"time": 26, "pitch": 57, "duration": 2, "velocity": 47}, {"time": 29, "pitch": 59, "duration": 6, "velocity": 38}, {"time": 32, "pitch": 61, "duration": 3, "velocity": 38}, {"time": 35, "pitch": 45, "duration": 16, "velocity": 61}, {"time": 38, "pitch": 52, "duration": 13, "velocity": 32}, {"time": 41, "pitch": 57, "duration": 7, "velocity": 76}, {"time": 44, "pitch": 59, "duration": 4, "velocity": 62}, {"time": 47, "pitch": 64, "duration": 11, "velocity": 96}, {"time": 50, "pitch": 57, "duration": 1, "velocity": 66}, {"time": 53, "pitch": 61, "duration": 5, "velocity": 37}, {"time": 56, "pitch": 59, "duration": 3, "velocity": 58}, {"time": 59, "pitch": 42, "duration": 22, "velocity": 92}, {"time": 62, "pitch": 54, "duration": 4, "velocity": 59}, {"time": 65, "pitch": 57, "duration": 13, "velocity": 70}, {"time": 68, "pitch": 54, "duration": 4, "velocity": 52}, {"time": 71, "pitch": 66, "duration": 16, "velocity": 100}, {"time": 74, "pitch": 54, "duration": 8, "velocity": 52}, {"time": 77, "pitch": 61, "duration": 10, "velocity": 48}, {"time": 80, "pitch": 57, "duration": 5, "velocity": 67}, {"time": 83, "pitch": 42, "duration": 19, "velocity": 89}, {"time": 86, "pitch": 54, "duration": 10, "velocity": 88}, {"time": 89, "pitch": 57, "duration": 8, "velocity": 70}, {"time": 92, "pitch": 61, "duration": 4, "velocity": 58}, {"time": 95, "pitch": 66, "duration": 12, "velocity": 99}, {"time": 98, "pitch": 54, "duration": 3, "velocity": 58}, {"time": 101, "pitch": 57, "duration": 6, "velocity": 79}, {"time": 104, "pitch": 61, "duration": 2, "velocity": 90}, {"time": 107, "pitch": 38, "duration": 22, "velocity": 66}, {"time": 110, "pitch": 45, "duration": 22, "velocity": 53}, {"time": 113, "pitch": 50, "duration": 7, "velocity": 75}, {"time": 116, "pitch": 57, "duration": 18, "velocity": 76}, {"time": 119, "pitch": 66, "duration": 13, "velocity": 117}, {"time": 122, "pitch": 50, "duration": 2, "velocity": 57}, {"time": 125, "pitch": 64, "duration": 6, "velocity": 56}, {"time": 128, "pitch": 62, "duration": 4, "velocity": 53}, {"time": 131, "pitch": 38, "duration": 20, "velocity": 64}, {"time": 134, "pitch": 45, "duration": 19, "velocity": 61}, {"time": 137, "pitch": 50, "duration": 6, "velocity": 57}, {"time": 140, "pitch": 57, "duration": 5, "velocity": 75}, {"time": 143, "pitch": 66, "duration": 8, "velocity": 99}, {"time": 146, "pitch": 50, "duration": 2, "velocity": 70}, {"time": 149, "pitch": 62, "duration": 6, "velocity": 77}, {"time": 152, "pitch": 57, "duration": 4, "velocity": 72}, {"time": 155, "pitch": 40, "duration": 22, "velocity": 63}, {"time": 158, "pitch": 47, "duration": 22, "velocity": 38}, {"time": 161, "pitch": 52, "duration": 5, "velocity": 71}, {"time": 164, "pitch": 56, "duration": 4, "velocity": 72}, {"time": 167, "pitch": 59, "duration": 3, "velocity": 72}, {"time": 170, "pitch": 52, "duration": 5, "velocity": 71}, {"time": 173, "pitch": 59, "duration": 16, "velocity": 79}, {"time": 176, "pitch": 64, "duration": 13, "velocity": 77}, {"time": 179, "pitch": 40, "duration": 16, "velocity": 68}, {"time": 179, "pitch": 68, "duration": 11, "velocity": 63}, {"time": 188, "pitch": 47, "duration": 4, "velocity": 67}, {"time": 191, "pitch": 64, "duration": 6, "velocity": 100}, {"time": 194, "pitch": 47, "duration": 1, "velocity": 93}, {"time": 197, "pitch": 59, "duration": 7, "velocity": 93}, {"time": 203, "pitch": 45, "duration": 22, "velocity": 88}, {"time": 206, "pitch": 52, "duration": 10, "velocity": 69}, {"time": 209, "pitch": 57, "duration": 6, "velocity": 89}, {"time": 212, "pitch": 59, "duration": 3, "velocity": 83}, {"time": 215, "pitch": 64, "duration": 12, "velocity": 112}, {"time": 218, "pitch": 52, "duration": 8, "velocity": 86}, {"time": 221, "pitch": 61, "duration": 6, "velocity": 99}, {"time": 224, "pitch": 59, "duration": 3, "velocity": 96}, {"time": 227, "pitch": 45, "duration": 18, "velocity": 93}, {"time": 230, "pitch": 52, "duration": 15, "velocity": 63}, {"time": 233, "pitch": 57, "duration": 7, "velocity": 96}, {"time": 236, "pitch": 59, "duration": 2, "velocity": 88}, {"time": 239, "pitch": 64, "duration": 11, "velocity": 117}, {"time": 242, "pitch": 57, "duration": 2, "velocity": 97}, {"time": 245, "pitch": 61, "duration": 5, "velocity": 117}, {"time": 248, "pitch": 59, "duration": 2, "velocity": 75}, {"time": 251, "pitch": 42, "duration": 34, "velocity": 93}, {"time": 254, "pitch": 54, "duration": 5, "velocity": 86}, {"time": 257, "pitch": 57, "duration": 7, "velocity": 78}, {"time": 260, "pitch": 54, "duration": 12, "velocity": 77}, {"time": 263, "pitch": 66, "duration": 13, "velocity": 117}, {"time": 269, "pitch": 61, "duration": 7, "velocity": 107}, {"time": 272, "pitch": 57, "duration": 4, "velocity": 83}, {"time": 275, "pitch": 54, "duration": 4, "velocity": 112}, {"time": 278, "pitch": 57, "duration": 8, "velocity": 81}, {"time": 281, "pitch": 66, "duration": 6, "velocity": 100}, {"time": 284, "pitch": 61, "duration": 3, "velocity": 102}, {"time": 287, "pitch": 40, "duration": 11, "velocity": 72}, {"time": 290, "pitch": 57, "duration": 4, "velocity": 75}, {"time": 293, "pitch": 64, "duration": 5, "velocity": 88}, {"time": 296, "pitch": 57, "duration": 3, "velocity": 89}, {"time": 299, "pitch": 38, "duration": 22, "velocity": 88}, {"time": 302, "pitch": 45, "duration": 21, "velocity": 46}, {"time": 305, "pitch": 50, "duration": 6, "velocity": 79}, {"time": 308, "pitch": 57, "duration": 7, "velocity": 75}, {"time": 311, "pitch": 66, "duration": 12, "velocity": 102}, {"time": 314, "pitch": 50, "duration": 1, "velocity": 64}, {"time": 317, "pitch": 62, "duration": 6, "velocity": 81}, {"time": 320, "pitch": 57, "duration": 4, "velocity": 88}, {"time": 323, "pitch": 38, "duration": 22, "velocity": 85}, {"time": 326, "pitch": 45, "duration": 21, "velocity": 53}, {"time": 329, "pitch": 50, "duration": 6, "velocity": 79}, {"time": 332, "pitch": 57, "duration": 4, "velocity": 83}, {"time": 335, "pitch": 66, "duration": 8, "velocity": 112}, {"time": 338, "pitch": 50, "duration": 2, "velocity": 86}, {"time": 341, "pitch": 62, "duration": 5, "velocity": 83}, {"time": 344, "pitch": 57, "duration": 3, "velocity": 76}, {"time": 347, "pitch": 40, "duration": 21, "velocity": 77}, {"time": 350, "pitch": 47, "duration": 21, "velocity": 43}, {"time": 353, "pitch": 52, "duration": 6, "velocity": 81}, {"time": 356, "pitch": 59, "duration": 4, "velocity": 76}, {"time": 359, "pitch": 68, "duration": 10, "velocity": 97}, {"time": 362, "pitch": 52, "duration": 4, "velocity": 72}, {"time": 365, "pitch": 59, "duration": 7, "velocity": 76}, {"time": 368, "pitch": 64, "duration": 4, "velocity": 81}, {"time": 371, "pitch": 40, "duration": 16, "velocity": 70}, {"time": 374, "pitch": 47, "duration": 14, "velocity": 56}, {"time": 377, "pitch": 52, "duration": 7, "velocity": 78}, {"time": 380, "pitch": 59, "duration": 5, "velocity": 66}, {"time": 383, "pitch": 68, "duration": 12, "velocity": 100}, {"time": 386, "pitch": 52, "duration": 5, "velocity": 67}, {"time": 389, "pitch": 64, "duration": 6, "velocity": 71}, {"time": 392, "pitch": 59, "duration": 3, "velocity": 77}, {"time": 395, "pitch": 45, "duration": 21, "velocity": 74}, {"time": 398, "pitch": 52, "duration": 10, "velocity": 47}, {"time": 401, "pitch": 57, "duration": 7, "velocity": 73}, {"time": 404, "pitch": 59, "duration": 4, "velocity": 59}, {"time": 407, "pitch": 64, "duration": 21, "velocity": 86}, {"time": 410, "pitch": 52, "duration": 9, "velocity": 35}, {"time": 413, "pitch": 61, "duration": 15, "velocity": 73}, {"time": 419, "pitch": 45, "duration": 21, "velocity": 66}, {"time": 419, "pitch": 57, "duration": 6, "velocity": 69}, {"time": 425, "pitch": 52, "duration": 7, "velocity": 61}, {"time": 428, "pitch": 59, "duration": 4, "velocity": 55}, {"time": 431, "pitch": 64, "duration": 12, "velocity": 90}, {"time": 434, "pitch": 52, "duration": 8, "velocity": 46}, {"time": 443, "pitch": 45, "duration": 7, "velocity": 96}, {"time": 449, "pitch": 57, "duration": 6, "velocity": 89}, {"time": 449, "pitch": 61, "duration": 6, "velocity": 92}, {"time": 449, "pitch": 64, "duration": 7, "velocity": 83}, {"time": 452, "pitch": 45, "duration": 2, "velocity": 93}, {"time": 455, "pitch": 45, "duration": 9, "velocity": 66}, {"time": 461, "pitch": 57, "duration": 5, "velocity": 85}, {"time": 461, "pitch": 61, "duration": 5, "velocity": 96}, {"time": 461, "pitch": 64, "duration": 6, "velocity": 85}, {"time": 467, "pitch": 45, "duration": 7, "velocity": 96}, {"time": 473, "pitch": 57, "duration": 5, "velocity": 85}, {"time": 473, "pitch": 61, "duration": 7, "velocity": 99}, {"time": 473, "pitch": 64, "duration": 7, "velocity": 89}, {"time": 476, "pitch": 45, "duration": 1, "velocity": 96}, {"time": 479, "pitch": 45, "duration": 5, "velocity": 93}, {"time": 482, "pitch": 57, "duration": 2, "velocity": 86}, {"time": 482, "pitch": 61, "duration": 3, "velocity": 99}, {"time": 482, "pitch": 64, "duration": 3, "velocity": 90}, {"time": 485, "pitch": 44, "duration": 5, "velocity": 112}, {"time": 488, "pitch": 61, "duration": 3, "velocity": 99}, {"time": 488, "pitch": 64, "duration": 4, "velocity": 85}, {"time": 491, "pitch": 42, "duration": 7, "velocity": 100}, {"time": 497, "pitch": 57, "duration": 4, "velocity": 86}, {"time": 497, "pitch": 61, "duration": 4, "velocity": 112}, {"time": 500, "pitch": 42, "duration": 1, "velocity": 85}, {"time": 500, "pitch": 54, "duration": 1, "velocity": 88}, {"time": 503, "pitch": 42, "duration": 7, "velocity": 62}, {"time": 503, "pitch": 54, "duration": 5, "velocity": 92}, {"time": 506, "pitch": 57, "duration": 4, "velocity": 81}, {"time": 506, "pitch": 61, "duration": 5, "velocity": 96}, {"time": 506, "pitch": 66, "duration": 5, "velocity": 85}, {"time": 512, "pitch": 57, "duration": 2, "velocity": 66}, {"time": 512, "pitch": 61, "duration": 2, "velocity": 102}, {"time": 512, "pitch": 66, "duration": 2, "velocity": 92}, {"time": 515, "pitch": 40, "duration": 7, "velocity": 85}, {"time": 521, "pitch": 59, "duration": 7, "velocity": 85}, {"time": 521, "pitch": 64, "duration": 7, "velocity": 95}, {"time": 521, "pitch": 68, "duration": 7, "velocity": 107}, {"time": 524, "pitch": 40, "duration": 1, "velocity": 78}, {"time": 527, "pitch": 40, "duration": 9, "velocity": 81}, {"time": 530, "pitch": 59, "duration": 3, "velocity": 90}, {"time": 530, "pitch": 64, "duration": 4, "velocity": 95}, {"time": 530, "pitch": 68, "duration": 4, "velocity": 97}, {"time": 533, "pitch": 47, "duration": 4, "velocity": 90}, {"time": 536, "pitch": 59, "duration": 3, "velocity": 85}, {"time": 536, "pitch": 64, "duration": 3, "velocity": 90}, {"time": 536, "pitch": 68, "duration": 3, "velocity": 92}, {"time": 539, "pitch": 40, "duration": 7, "velocity": 96}, {"time": 545, "pitch": 59, "duration": 7, "velocity": 79}, {"time": 545, "pitch": 64, "duration": 7, "velocity": 78}, {"time": 545, "pitch": 68, "duration": 7, "velocity": 75}, {"time": 548, "pitch": 40, "duration": 1, "velocity": 83}, {"time": 551, "pitch": 40, "duration": 7, "velocity": 83}, {"time": 554, "pitch": 59, "duration": 4, "velocity": 77}, {"time": 554, "pitch": 64, "duration": 4, "velocity": 89}, {"time": 554, "pitch": 68, "duration": 4, "velocity": 93}, {"time": 560, "pitch": 59, "duration": 3, "velocity": 83}, {"time": 560, "pitch": 64, "duration": 2, "velocity": 86}, {"time": 560, "pitch": 68, "duration": 2, "velocity": 81}, {"time": 563, "pitch": 42, "duration": 7, "velocity": 97}, {"time": 569, "pitch": 57, "duration": 7, "velocity": 85}, {"time": 569, "pitch": 61, "duration": 6, "velocity": 99}, {"time": 569, "pitch": 66, "duration": 7, "velocity": 93}, {"time": 572, "pitch": 42, "duration": 1, "velocity": 70}, {"time": 572, "pitch": 54, "duration": 1, "velocity": 88}, {"time": 575, "pitch": 42, "duration": 7, "velocity": 61}, {"time": 575, "pitch": 54, "duration": 6, "velocity": 74}, {"time": 578, "pitch": 57, "duration": 4, "velocity": 82}, {"time": 578, "pitch": 61, "duration": 4, "velocity": 100}, {"time": 578, "pitch": 66, "duration": 4, "velocity": 95}, {"time": 584, "pitch": 57, "duration": 3, "velocity": 83}, {"time": 584, "pitch": 61, "duration": 3, "velocity": 102}, {"time": 584, "pitch": 66, "duration": 2, "velocity": 86}, {"time": 587, "pitch": 38, "duration": 7, "velocity": 90}, {"time": 593, "pitch": 57, "duration": 6, "velocity": 89}, {"time": 593, "pitch": 62, "duration": 6, "velocity": 96}, {"time": 593, "pitch": 66, "duration": 6, "velocity": 97}, {"time": 596, "pitch": 45, "duration": 1, "velocity": 53}, {"time": 596, "pitch": 50, "duration": 1, "velocity": 72}, {"time": 599, "pitch": 45, "duration": 10, "velocity": 66}, {"time": 599, "pitch": 50, "duration": 5, "velocity": 71}, {"time": 602, "pitch": 57, "duration": 4, "velocity": 82}, {"time": 602, "pitch": 62, "duration": 4, "velocity": 88}, {"time": 602, "pitch": 66, "duration": 4, "velocity": 86}, {"time": 608, "pitch": 57, "duration": 2, "velocity": 76}, {"time": 608, "pitch": 62, "duration": 1, "velocity": 86}, {"time": 608, "pitch": 66, "duration": 2, "velocity": 82}, {"time": 611, "pitch": 40, "duration": 7, "velocity": 81}, {"time": 617, "pitch": 59, "duration": 6, "velocity": 86}, {"time": 617, "pitch": 64, "duration": 6, "velocity": 95}, {"time": 617, "pitch": 68, "duration": 6, "velocity": 99}, {"time": 620, "pitch": 47, "duration": 1, "velocity": 61}, {"time": 620, "pitch": 52, "duration": 1, "velocity": 74}, {"time": 623, "pitch": 47, "duration": 7, "velocity": 73}, {"time": 623, "pitch": 52, "duration": 11, "velocity": 74}, {"time": 626, "pitch": 59, "duration": 4, "velocity": 79}, {"time": 626, "pitch": 64, "duration": 4, "velocity": 85}, {"time": 626, "pitch": 68, "duration": 4, "velocity": 89}, {"time": 632, "pitch": 59, "duration": 3, "velocity": 83}, {"time": 632, "pitch": 64, "duration": 2, "velocity": 89}, {"time": 632, "pitch": 68, "duration": 1, "velocity": 76}, {"time": 635, "pitch": 45, "duration": 7, "velocity": 82}, {"time": 641, "pitch": 57, "duration": 7, "velocity": 83}, {"time": 641, "pitch": 61, "duration": 7, "velocity": 99}, {"time": 641, "pitch": 64, "duration": 7, "velocity": 89}, {"time": 644, "pitch": 52, "duration": 1, "velocity": 76}, {"time": 647, "pitch": 52, "duration": 8, "velocity": 86}, {"time": 650, "pitch": 57, "duration": 4, "velocity": 75}, {"time": 650, "pitch": 61, "duration": 4, "velocity": 86}, {"time": 650, "pitch": 64, "duration": 4, "velocity": 75}, {"time": 656, "pitch": 57, "duration": 3, "velocity": 81}, {"time": 656, "pitch": 61, "duration": 2, "velocity": 90}, {"time": 656, "pitch": 64, "duration": 2, "velocity": 77}, {"time": 659, "pitch": 42, "duration": 7, "velocity": 100}, {"time": 665, "pitch": 57, "duration": 7, "velocity": 89}, {"time": 665, "pitch": 61, "duration": 7, "velocity": 107}, {"time": 665, "pitch": 66, "duration": 7, "velocity": 96}, {"time": 668, "pitch": 42, "duration": 1, "velocity": 82}, {"time": 668, "pitch": 54, "duration": 1, "velocity": 81}, {"time": 671, "pitch": 42, "duration": 5, "velocity": 68}, {"time": 671, "pitch": 54, "duration": 6, "velocity": 74}, {"time": 674, "pitch": 57, "duration": 4, "velocity": 82}, {"time": 674, "pitch": 61, "duration": 4, "velocity": 95}, {"time": 674, "pitch": 66, "duration": 4, "velocity": 88}, {"time": 680, "pitch": 57, "duration": 3, "velocity": 77}, {"time": 680, "pitch": 61, "duration": 2, "velocity": 97}, {"time": 680, "pitch": 66, "duration": 2, "velocity": 77}, {"time": 683, "pitch": 45, "duration": 7, "velocity": 82}, {"time": 689, "pitch": 57, "duration": 6, "velocity": 83}, {"time": 689, "pitch": 61, "duration": 7, "velocity": 97}, {"time": 689, "pitch": 64, "duration": 7, "velocity": 86}, {"time": 692, "pitch": 52, "duration": 2, "velocity": 79}, {"time": 695, "pitch": 52, "duration": 12, "velocity": 68}, {"time": 698, "pitch": 57, "duration": 4, "velocity": 75}, {"time": 698, "pitch": 61, "duration": 4, "velocity": 93}, {"time": 698, "pitch": 64, "duration": 5, "velocity": 78}, {"time": 704, "pitch": 57, "duration": 3, "velocity": 79}, {"time": 704, "pitch": 61, "duration": 3, "velocity": 92}, {"time": 704, "pitch": 64, "duration": 3, "velocity": 77}, {"time": 707, "pitch": 45, "duration": 7, "velocity": 90}, {"time": 713, "pitch": 57, "duration": 7, "velocity": 88}, {"time": 713, "pitch": 61, "duration": 7, "velocity": 100}, {"time": 713, "pitch": 64, "duration": 7, "velocity": 89}, {"time": 716, "pitch": 45, "duration": 1, "velocity": 59}, {"time": 716, "pitch": 52, "duration": 1, "velocity": 69}, {"time": 719, "pitch": 45, "duration": 6, "velocity": 70}, {"time": 719, "pitch": 52, "duration": 6, "velocity": 83}, {"time": 722, "pitch": 57, "duration": 4, "velocity": 82}, {"time": 722, "pitch": 61, "duration": 4, "velocity": 99}, {"time": 722, "pitch": 64, "duration": 4, "velocity": 86}, {"time": 728, "pitch": 57, "duration": 3, "velocity": 83}, {"time": 728, "pitch": 61, "duration": 3, "velocity": 97}, {"time": 728, "pitch": 64, "duration": 2, "velocity": 81}, {"time": 731, "pitch": 42, "duration": 7, "velocity": 83}, {"time": 737, "pitch": 57, "duration": 6, "velocity": 86}, {"time": 737, "pitch": 61, "duration": 6, "velocity": 107}, {"time": 737, "pitch": 66, "duration": 7, "velocity": 100}, {"time": 740, "pitch": 42, "duration": 1, "velocity": 74}, {"time": 740, "pitch": 54, "duration": 1, "velocity": 82}, {"time": 743, "pitch": 42, "duration": 7, "velocity": 79}, {"time": 743, "pitch": 54, "duration": 6, "velocity": 79}, {"time": 746, "pitch": 57, "duration": 4, "velocity": 82}, {"time": 746, "pitch": 61, "duration": 4, "velocity": 100}, {"time": 746, "pitch": 66, "duration": 4, "velocity": 89}, {"time": 752, "pitch": 57, "duration": 3, "velocity": 83}, {"time": 752, "pitch": 61, "duration": 3, "velocity": 112}, {"time": 752, "pitch": 66, "duration": 3, "velocity": 92}, {"time": 755, "pitch": 50, "duration": 7, "velocity": 68}, {"time": 761, "pitch": 57, "duration": 6, "velocity": 86}, {"time": 761, "pitch": 62, "duration": 7, "velocity": 93}, {"time": 761, "pitch": 66, "duration": 6, "velocity": 89}, {"time": 764, "pitch": 50, "duration": 1, "velocity": 73}, {"time": 767, "pitch": 50, "duration": 4, "velocity": 71}, {"time": 770, "pitch": 57, "duration": 4, "velocity": 88}, {"time": 770, "pitch": 62, "duration": 4, "velocity": 97}, {"time": 770, "pitch": 66, "duration": 4, "velocity": 99}, {"time": 776, "pitch": 57, "duration": 2, "velocity": 90}, {"time": 776, "pitch": 62, "duration": 2, "velocity": 95}, {"time": 776, "pitch": 66, "duration": 2, "velocity": 89}, {"time": 779, "pitch": 40, "duration": 7, "velocity": 56}, {"time": 779, "pitch": 47, "duration": 7, "velocity": 69}, {"time": 779, "pitch": 52, "duration": 7, "velocity": 69}, {"time": 785, "pitch": 59, "duration": 5, "velocity": 86}, {"time": 785, "pitch": 64, "duration": 6, "velocity": 93}, {"time": 785, "pitch": 68, "duration": 6, "velocity": 97}, {"time": 788, "pitch": 40, "duration": 1, "velocity": 42}, {"time": 788, "pitch": 47, "duration": 1, "velocity": 81}, {"time": 788, "pitch": 52, "duration": 1, "velocity": 74}, {"time": 791, "pitch": 40, "duration": 6, "velocity": 53}, {"time": 791, "pitch": 47, "duration": 6, "velocity": 72}, {"time": 791, "pitch": 52, "duration": 7, "velocity": 77}, {"time": 794, "pitch": 59, "duration": 4, "velocity": 82}, {"time": 794, "pitch": 64, "duration": 4, "velocity": 88}, {"time": 794, "pitch": 68, "duration": 4, "velocity": 90}, {"time": 800, "pitch": 59, "duration": 4, "velocity": 85}, {"time": 800, "pitch": 64, "duration": 2, "velocity": 78}, {"time": 800, "pitch": 68, "duration": 2, "velocity": 73}, {"time": 803, "pitch": 42, "duration": 7, "velocity": 90}, {"time": 809, "pitch": 57, "duration": 5, "velocity": 90}, {"time": 809, "pitch": 61, "duration": 4, "velocity": 99}, {"time": 812, "pitch": 42, "duration": 1, "velocity": 78}, {"time": 812, "pitch": 54, "duration": 1, "velocity": 78}, {"time": 815, "pitch": 44, "duration": 5, "velocity": 102}, {"time": 818, "pitch": 52, "duration": 4, "velocity": 85}, {"time": 818, "pitch": 56, "duration": 4, "velocity": 96}, {"time": 818, "pitch": 59, "duration": 4, "velocity": 89}, {"time": 824, "pitch": 52, "duration": 2, "velocity": 79}, {"time": 824, "pitch": 56, "duration": 2, "velocity": 97}, {"time": 824, "pitch": 59, "duration": 2, "velocity": 90}, {"time": 827, "pitch": 45, "duration": 7, "velocity": 97}, {"time": 833, "pitch": 57, "duration": 5, "velocity": 88}, {"time": 833, "pitch": 61, "duration": 7, "velocity": 96}, {"time": 833, "pitch": 64, "duration": 6, "velocity": 79}, {"time": 836, "pitch": 52, "duration": 1, "velocity": 96}, {"time": 839, "pitch": 52, "duration": 11, "velocity": 82}, {"time": 842, "pitch": 57, "duration": 4, "velocity": 72}, {"time": 842, "pitch": 61, "duration": 4, "velocity": 92}, {"time": 842, "pitch": 64, "duration": 4, "velocity": 79}, {"time": 848, "pitch": 57, "duration": 3, "velocity": 86}, {"time": 848, "pitch": 61, "duration": 3, "velocity": 100}, {"time": 848, "pitch": 64, "duration": 3, "velocity": 83}, {"time": 851, "pitch": 45, "duration": 7, "velocity": 86}, {"time": 857, "pitch": 57, "duration": 6, "velocity": 86}, {"time": 857, "pitch": 61, "duration": 6, "velocity": 112}, {"time": 857, "pitch": 64, "duration": 6, "velocity": 86}, {"time": 860, "pitch": 52, "duration": 1, "velocity": 90}, {"time": 863, "pitch": 52, "duration": 6, "velocity": 83}, {"time": 866, "pitch": 57, "duration": 4, "velocity": 86}, {"time": 866, "pitch": 61, "duration": 4, "velocity": 102}, {"time": 866, "pitch": 64, "duration": 4, "velocity": 88}, {"time": 872, "pitch": 57, "duration": 3, "velocity": 85}, {"time": 872, "pitch": 61, "duration": 2, "velocity": 99}, {"time": 872, "pitch": 64, "duration": 2, "velocity": 78}, {"time": 875, "pitch": 42, "duration": 6, "velocity": 92}, {"time": 881, "pitch": 57, "duration": 6, "velocity": 86}, {"time": 881, "pitch": 61, "duration": 6, "velocity": 102}, {"time": 881, "pitch": 66, "duration": 7, "velocity": 100}, {"time": 884, "pitch": 42, "duration": 1, "velocity": 58}, {"time": 884, "pitch": 54, "duration": 1, "velocity": 73}, {"time": 887, "pitch": 42, "duration": 10, "velocity": 62}, {"time": 887, "pitch": 54, "duration": 9, "velocity": 82}, {"time": 890, "pitch": 57, "duration": 4, "velocity": 79}, {"time": 890, "pitch": 61, "duration": 4, "velocity": 100}, {"time": 890, "pitch": 66, "duration": 4, "velocity": 89}, {"time": 896, "pitch": 57, "duration": 2, "velocity": 79}, {"time": 896, "pitch": 61, "duration": 2, "velocity": 100}, {"time": 896, "pitch": 66, "duration": 2, "velocity": 85}, {"time": 899, "pitch": 40, "duration": 7, "velocity": 89}, {"time": 905, "pitch": 59, "duration": 6, "velocity": 92}, {"time": 905, "pitch": 64, "duration": 6, "velocity": 97}, {"time": 905, "pitch": 68, "duration": 6, "velocity": 97}, {"time": 908, "pitch": 47, "duration": 1, "velocity": 62}, {"time": 908, "pitch": 52, "duration": 1, "velocity": 66}, {"time": 911, "pitch": 47, "duration": 10, "velocity": 74}, {"time": 911, "pitch": 52, "duration": 9, "velocity": 74}, {"time": 914, "pitch": 59, "duration": 4, "velocity": 86}, {"time": 914, "pitch": 64, "duration": 4, "velocity": 93}, {"time": 914, "pitch": 68, "duration": 4, "velocity": 90}, {"time": 920, "pitch": 59, "duration": 2, "velocity": 88}, {"time": 920, "pitch": 64, "duration": 2, "velocity": 92}, {"time": 920, "pitch": 68, "duration": 2, "velocity": 95}, {"time": 923, "pitch": 40, "duration": 7, "velocity": 55}, {"time": 923, "pitch": 47, "duration": 7, "velocity": 72}, {"time": 923, "pitch": 52, "duration": 7, "velocity": 79}, {"time": 929, "pitch": 59, "duration": 6, "velocity": 86}, {"time": 929, "pitch": 64, "duration": 7, "velocity": 92}, {"time": 929, "pitch": 68, "duration": 7, "velocity": 95}, {"time": 932, "pitch": 47, "duration": 1, "velocity": 60}, {"time": 932, "pitch": 52, "duration": 1, "velocity": 58}, {"time": 935, "pitch": 47, "duration": 9, "velocity": 79}, {"time": 935, "pitch": 52, "duration": 9, "velocity": 70}, {"time": 938, "pitch": 59, "duration": 4, "velocity": 82}, {"time": 938, "pitch": 64, "duration": 4, "velocity": 89}, {"time": 938, "pitch": 68, "duration": 4, "velocity": 93}, {"time": 944, "pitch": 59, "duration": 3, "velocity": 83}, {"time": 944, "pitch": 64, "duration": 3, "velocity": 89}, {"time": 944, "pitch": 68, "duration": 3, "velocity": 89}, {"time": 947, "pitch": 42, "duration": 7, "velocity": 95}, {"time": 953, "pitch": 57, "duration": 6, "velocity": 88}, {"time": 953, "pitch": 61, "duration": 6, "velocity": 97}, {"time": 953, "pitch": 66, "duration": 6, "velocity": 92}, {"time": 956, "pitch": 42, "duration": 1, "velocity": 67}, {"time": 956, "pitch": 54, "duration": 1, "velocity": 76}, {"time": 959, "pitch": 42, "duration": 8, "velocity": 78}, {"time": 959, "pitch": 54, "duration": 5, "velocity": 72}, {"time": 962, "pitch": 57, "duration": 4, "velocity": 79}, {"time": 962, "pitch": 61, "duration": 4, "velocity": 99}, {"time": 962, "pitch": 66, "duration": 4, "velocity": 92}, {"time": 968, "pitch": 57, "duration": 3, "velocity": 82}, {"time": 968, "pitch": 61, "duration": 3, "velocity": 100}, {"time": 968, "pitch": 66, "duration": 3, "velocity": 92}, {"time": 971, "pitch": 50, "duration": 7, "velocity": 58}, {"time": 977, "pitch": 57, "duration": 6, "velocity": 86}, {"time": 977, "pitch": 62, "duration": 7, "velocity": 93}, {"time": 977, "pitch": 66, "duration": 7, "velocity": 90}, {"time": 980, "pitch": 50, "duration": 1, "velocity": 69}, {"time": 983, "pitch": 50, "duration": 10, "velocity": 65}, {"time": 986, "pitch": 57, "duration": 4, "velocity": 74}, {"time": 986, "pitch": 62, "duration": 5, "velocity": 88}, {"time": 986, "pitch": 66, "duration": 5, "velocity": 86}, {"time": 992, "pitch": 57, "duration": 2, "velocity": 81}, {"time": 992, "pitch": 62, "duration": 2, "velocity": 89}, {"time": 992, "pitch": 66, "duration": 3, "velocity": 86}, {"time": 995, "pitch": 52, "duration": 7, "velocity": 72}, {"time": 1001, "pitch": 59, "duration": 4, "velocity": 86}, {"time": 1001, "pitch": 64, "duration": 7, "velocity": 92}, {"time": 1001, "pitch": 68, "duration": 6, "velocity": 92}, {"time": 1004, "pitch": 52, "duration": 1, "velocity": 83}, {"time": 1007, "pitch": 52, "duration": 10, "velocity": 85}, {"time": 1010, "pitch": 59, "duration": 4, "velocity": 81}, {"time": 1010, "pitch": 64, "duration": 4, "velocity": 83}, {"time": 1010, "pitch": 68, "duration": 4, "velocity": 85}, {"time": 1016, "pitch": 59, "duration": 3, "velocity": 90}, {"time": 1016, "pitch": 64, "duration": 2, "velocity": 92}, {"time": 1016, "pitch": 68, "duration": 1, "velocity": 72}, {"time": 1019, "pitch": 45, "duration": 7, "velocity": 82}, {"time": 1025, "pitch": 57, "duration": 5, "velocity": 85}, {"time": 1025, "pitch": 61, "duration": 5, "velocity": 95}, {"time": 1025, "pitch": 64, "duration": 6, "velocity": 82}, {"time": 1028, "pitch": 52, "duration": 1, "velocity": 82}, {"time": 1031, "pitch": 52, "duration": 6, "velocity": 78}, {"time": 1034, "pitch": 57, "duration": 4, "velocity": 78}, {"time": 1034, "pitch": 61, "duration": 4, "velocity": 95}, {"time": 1034, "pitch": 64, "duration": 4, "velocity": 79}, {"time": 1040, "pitch": 57, "duration": 3, "velocity": 74}, {"time": 1040, "pitch": 61, "duration": 3, "velocity": 93}, {"time": 1040, "pitch": 64, "duration": 3, "velocity": 81}, {"time": 1043, "pitch": 42, "duration": 7, "velocity": 89}, {"time": 1049, "pitch": 57, "duration": 5, "velocity": 81}, {"time": 1049, "pitch": 61, "duration": 5, "velocity": 97}, {"time": 1049, "pitch": 66, "duration": 6, "velocity": 77}, {"time": 1052, "pitch": 42, "duration": 1, "velocity": 60}, {"time": 1052, "pitch": 54, "duration": 1, "velocity": 79}, {"time": 1055, "pitch": 42, "duration": 5, "velocity": 74}, {"time": 1055, "pitch": 54, "duration": 5, "velocity": 64}, {"time": 1058, "pitch": 57, "duration": 4, "velocity": 79}, {"time": 1058, "pitch": 61, "duration": 4, "velocity": 97}, {"time": 1058, "pitch": 66, "duration": 5, "velocity": 92}, {"time": 1064, "pitch": 57, "duration": 3, "velocity": 78}, {"time": 1064, "pitch": 61, "duration": 2, "velocity": 100}, {"time": 1064, "pitch": 66, "duration": 2, "velocity": 81}, {"time": 1067, "pitch": 45, "duration": 7, "velocity": 77}, {"time": 1073, "pitch": 57, "duration": 5, "velocity": 88}, {"time": 1073, "pitch": 61, "duration": 5, "velocity": 100}, {"time": 1073, "pitch": 64, "duration": 6, "velocity": 85}, {"time": 1076, "pitch": 52, "duration": 1, "velocity": 83}, {"time": 1079, "pitch": 52, "duration": 11, "velocity": 72}, {"time": 1082, "pitch": 57, "duration": 4, "velocity": 82}, {"time": 1082, "pitch": 61, "duration": 4, "velocity": 95}, {"time": 1082, "pitch": 64, "duration": 4, "velocity": 86}, {"time": 1088, "pitch": 57, "duration": 3, "velocity": 81}, {"time": 1088, "pitch": 61, "duration": 2, "velocity": 93}, {"time": 1088, "pitch": 64, "duration": 3, "velocity": 85}, {"time": 1091, "pitch": 45, "duration": 6, "velocity": 82}, {"time": 1097, "pitch": 57, "duration": 5, "velocity": 93}, {"time": 1097, "pitch": 61, "duration": 6, "velocity": 99}, {"time": 1097, "pitch": 64, "duration": 6, "velocity": 93}, {"time": 1100, "pitch": 52, "duration": 1, "velocity": 92}, {"time": 1103, "pitch": 52, "duration": 4, "velocity": 85}, {"time": 1106, "pitch": 57, "duration": 3, "velocity": 89}, {"time": 1106, "pitch": 61, "duration": 3, "velocity": 107}, {"time": 1106, "pitch": 64, "duration": 4, "velocity": 93}, {"time": 1109, "pitch": 44, "duration": 5, "velocity": 96}, {"time": 1112, "pitch": 61, "duration": 3, "velocity": 99}, {"time": 1115, "pitch": 42, "duration": 6, "velocity": 95}, {"time": 1121, "pitch": 57, "duration": 4, "velocity": 81}, {"time": 1121, "pitch": 61, "duration": 4, "velocity": 112}, {"time": 1121, "pitch": 66, "duration": 4, "velocity": 97}, {"time": 1124, "pitch": 42, "duration": 1, "velocity": 77}, {"time": 1124, "pitch": 54, "duration": 1, "velocity": 79}, {"time": 1127, "pitch": 42, "duration": 5, "velocity": 71}, {"time": 1127, "pitch": 54, "duration": 4, "velocity": 77}, {"time": 1130, "pitch": 57, "duration": 4, "velocity": 88}, {"time": 1130, "pitch": 61, "duration": 4, "velocity": 107}, {"time": 1130, "pitch": 66, "duration": 4, "velocity": 96}, {"time": 1133, "pitch": 42, "duration": 3, "velocity": 48}, {"time": 1133, "pitch": 54, "duration": 3, "velocity": 76}, {"time": 1136, "pitch": 57, "duration": 2, "velocity": 88}, {"time": 1136, "pitch": 61, "duration": 2, "velocity": 112}, {"time": 1136, "pitch": 66, "duration": 2, "velocity": 97}, {"time": 1139, "pitch": 50, "duration": 7, "velocity": 89}, {"time": 1145, "pitch": 57, "duration": 6, "velocity": 77}, {"time": 1145, "pitch": 62, "duration": 4, "velocity": 90}, {"time": 1145, "pitch": 66, "duration": 6, "velocity": 89}, {"time": 1148, "pitch": 50, "duration": 1, "velocity": 82}, {"time": 1151, "pitch": 50, "duration": 6, "velocity": 88}, {"time": 1154, "pitch": 57, "duration": 4, "velocity": 75}, {"time": 1154, "pitch": 62, "duration": 4, "velocity": 92}, {"time": 1154, "pitch": 66, "duration": 4, "velocity": 90}, {"time": 1160, "pitch": 57, "duration": 3, "velocity": 77}, {"time": 1160, "pitch": 62, "duration": 3, "velocity": 95}, {"time": 1160, "pitch": 66, "duration": 1, "velocity": 81}, {"time": 1163, "pitch": 40, "duration": 7, "velocity": 66}, {"time": 1169, "pitch": 59, "duration": 6, "velocity": 85}, {"time": 1169, "pitch": 64, "duration": 6, "velocity": 95}, {"time": 1169, "pitch": 68, "duration": 6, "velocity": 93}, {"time": 1172, "pitch": 47, "duration": 1, "velocity": 51}, {"time": 1172, "pitch": 52, "duration": 1, "velocity": 63}, {"time": 1175, "pitch": 47, "duration": 10, "velocity": 70}, {"time": 1175, "pitch": 52, "duration": 8, "velocity": 61}, {"time": 1178, "pitch": 59, "duration": 4, "velocity": 77}, {"time": 1178, "pitch": 64, "duration": 4, "velocity": 81}, {"time": 1178, "pitch": 68, "duration": 4, "velocity": 77}, {"time": 1184, "pitch": 59, "duration": 2, "velocity": 81}, {"time": 1184, "pitch": 64, "duration": 2, "velocity": 79}, {"time": 1184, "pitch": 68, "duration": 2, "velocity": 74}, {"time": 1187, "pitch": 42, "duration": 7, "velocity": 83}, {"time": 1187, "pitch": 54, "duration": 6, "velocity": 79}, {"time": 1193, "pitch": 57, "duration": 4, "velocity": 88}, {"time": 1193, "pitch": 61, "duration": 3, "velocity": 107}, {"time": 1193, "pitch": 66, "duration": 3, "velocity": 95}, {"time": 1196, "pitch": 42, "duration": 2, "velocity": 93}, {"time": 1199, "pitch": 44, "duration": 7, "velocity": 112}, {"time": 1205, "pitch": 52, "duration": 5, "velocity": 74}, {"time": 1205, "pitch": 56, "duration": 5, "velocity": 97}, {"time": 1205, "pitch": 59, "duration": 5, "velocity": 89}, {"time": 1211, "pitch": 45, "duration": 7, "velocity": 70}, {"time": 1217, "pitch": 57, "duration": 3, "velocity": 93}, {"time": 1217, "pitch": 61, "duration": 3, "velocity": 117}, {"time": 1217, "pitch": 64, "duration": 4, "velocity": 96}, {"time": 1220, "pitch": 52, "duration": 1, "velocity": 86}, {"time": 1223, "pitch": 52, "duration": 4, "velocity": 102}, {"time": 1226, "pitch": 57, "duration": 4, "velocity": 95}, {"time": 1226, "pitch": 61, "duration": 4, "velocity": 117}, {"time": 1226, "pitch": 64, "duration": 4, "velocity": 95}, {"time": 1232, "pitch": 57, "duration": 3, "velocity": 92}, {"time": 1232, "pitch": 61, "duration": 2, "velocity": 117}, {"time": 1232, "pitch": 64, "duration": 2, "velocity": 86}, {"time": 1235, "pitch": 50, "duration": 6, "velocity": 95}, {"time": 1241, "pitch": 57, "duration": 5, "velocity": 95}, {"time": 1241, "pitch": 62, "duration": 5, "velocity": 102}, {"time": 1241, "pitch": 66, "duration": 6, "velocity": 102}, {"time": 1244, "pitch": 50, "duration": 1, "velocity": 92}, {"time": 1247, "pitch": 52, "duration": 7, "velocity": 122}, {"time": 1250, "pitch": 59, "duration": 3, "velocity": 99}, {"time": 1250, "pitch": 64, "duration": 4, "velocity": 97}, {"time": 1250, "pitch": 68, "duration": 3, "velocity": 107}, {"time": 1256, "pitch": 59, "duration": 3, "velocity": 97}, {"time": 1256, "pitch": 64, "duration": 2, "velocity": 117}, {"time": 1256, "pitch": 68, "duration": 3, "velocity": 112}, {"time": 1259, "pitch": 42, "duration": 10, "velocity": 117}, {"time": 1262, "pitch": 66, "duration": 1, "velocity": 33}, {"time": 1265, "pitch": 57, "duration": 3, "velocity": 102}, {"time": 1265, "pitch": 61, "duration": 3, "velocity": 127}, {"time": 1265, "pitch": 66, "duration": 3, "velocity": 122}, {"time": 1268, "pitch": 57, "duration": 1, "velocity": 90}, {"time": 1268, "pitch": 61, "duration": 1, "velocity": 92}, {"time": 1268, "pitch": 66, "duration": 1, "velocity": 96}, {"time": 1271, "pitch": 42, "duration": 8, "velocity": 66}, {"time": 1271, "pitch": 54, "duration": 8, "velocity": 66}, {"time": 1274, "pitch": 57, "duration": 4, "velocity": 95}, {"time": 1274, "pitch": 61, "duration": 4, "velocity": 122}, {"time": 1274, "pitch": 66, "duration": 4, "velocity": 100}, {"time": 1280, "pitch": 57, "duration": 2, "velocity": 97}, {"time": 1280, "pitch": 61, "duration": 2, "velocity": 122}, {"time": 1280, "pitch": 66, "duration": 2, "velocity": 107}, {"time": 1283, "pitch": 49, "duration": 6, "velocity": 88}, {"time": 1289, "pitch": 61, "duration": 5, "velocity": 112}, {"time": 1289, "pitch": 64, "duration": 4, "velocity": 107}, {"time": 1289, "pitch": 68, "duration": 4, "velocity": 107}, {"time": 1292, "pitch": 49, "duration": 1, "velocity": 39}, {"time": 1292, "pitch": 56, "duration": 1, "velocity": 85}, {"time": 1295, "pitch": 49, "duration": 7, "velocity": 92}, {"time": 1295, "pitch": 56, "duration": 5, "velocity": 93}, {"time": 1298, "pitch": 61, "duration": 4, "velocity": 102}, {"time": 1298, "pitch": 64, "duration": 4, "velocity": 112}, {"time": 1298, "pitch": 68, "duration": 4, "velocity": 122}, {"time": 1304, "pitch": 61, "duration": 2, "velocity": 102}, {"time": 1304, "pitch": 64, "duration": 1, "velocity": 93}, {"time": 1304, "pitch": 68, "duration": 2, "velocity": 117}, {"time": 1307, "pitch": 47, "duration": 7, "velocity": 88}, {"time": 1313, "pitch": 59, "duration": 6, "velocity": 97}, {"time": 1313, "pitch": 62, "duration": 5, "velocity": 122}, {"time": 1313, "pitch": 66, "duration": 5, "velocity": 117}, {"time": 1316, "pitch": 47, "duration": 2, "velocity": 89}, {"time": 1319, "pitch": 45, "duration": 9, "velocity": 85}, {"time": 1325, "pitch": 61, "duration": 5, "velocity": 127}, {"time": 1325, "pitch": 64, "duration": 5, "velocity": 102}, {"time": 1328, "pitch": 57, "duration": 3, "velocity": 90}, {"time": 1331, "pitch": 44, "duration": 7, "velocity": 100}, {"time": 1337, "pitch": 52, "duration": 3, "velocity": 86}, {"time": 1337, "pitch": 56, "duration": 3, "velocity": 96}, {"time": 1337, "pitch": 59, "duration": 3, "velocity": 89}, {"time": 1340, "pitch": 44, "duration": 2, "velocity": 107}, {"time": 1343, "pitch": 42, "duration": 9, "velocity": 100}, {"time": 1346, "pitch": 54, "duration": 5, "velocity": 89}, {"time": 1349, "pitch": 61, "duration": 6, "velocity": 127}, {"time": 1349, "pitch": 66, "duration": 6, "velocity": 122}, {"time": 1352, "pitch": 57, "duration": 3, "velocity": 89}, {"time": 1355, "pitch": 50, "duration": 7, "velocity": 93}, {"time": 1361, "pitch": 57, "duration": 4, "velocity": 90}, {"time": 1361, "pitch": 62, "duration": 6, "velocity": 99}, {"time": 1361, "pitch": 66, "duration": 6, "velocity": 99}, {"time": 1364, "pitch": 50, "duration": 1, "velocity": 93}, {"time": 1367, "pitch": 50, "duration": 5, "velocity": 95}, {"time": 1370, "pitch": 57, "duration": 4, "velocity": 99}, {"time": 1370, "pitch": 62, "duration": 4, "velocity": 102}, {"time": 1370, "pitch": 66, "duration": 4, "velocity": 107}, {"time": 1376, "pitch": 57, "duration": 2, "velocity": 99}, {"time": 1376, "pitch": 62, "duration": 2, "velocity": 100}, {"time": 1376, "pitch": 66, "duration": 2, "velocity": 99}, {"time": 1379, "pitch": 40, "duration": 6, "velocity": 59}, {"time": 1379, "pitch": 47, "duration": 7, "velocity": 85}, {"time": 1379, "pitch": 52, "duration": 7, "velocity": 88}, {"time": 1385, "pitch": 59, "duration": 7, "velocity": 96}, {"time": 1385, "pitch": 64, "duration": 7, "velocity": 112}, {"time": 1385, "pitch": 68, "duration": 7, "velocity": 112}, {"time": 1388, "pitch": 47, "duration": 1, "velocity": 88}, {"time": 1388, "pitch": 52, "duration": 1, "velocity": 85}, {"time": 1391, "pitch": 47, "duration": 10, "velocity": 86}, {"time": 1391, "pitch": 52, "duration": 10, "velocity": 85}, {"time": 1394, "pitch": 59, "duration": 4, "velocity": 95}, {"time": 1394, "pitch": 64, "duration": 4, "velocity": 100}, {"time": 1394, "pitch": 68, "duration": 4, "velocity": 102}, {"time": 1400, "pitch": 59, "duration": 2, "velocity": 96}, {"time": 1400, "pitch": 64, "duration": 2, "velocity": 102}, {"time": 1400, "pitch": 68, "duration": 2, "velocity": 102}, {"time": 1403, "pitch": 45, "duration": 8, "velocity": 97}, {"time": 1409, "pitch": 57, "duration": 6, "velocity": 93}, {"time": 1409, "pitch": 61, "duration": 6, "velocity": 107}, {"time": 1409, "pitch": 64, "duration": 6, "velocity": 89}, {"time": 1412, "pitch": 52, "duration": 1, "velocity": 99}, {"time": 1415, "pitch": 52, "duration": 10, "velocity": 99}, {"time": 1418, "pitch": 57, "duration": 4, "velocity": 92}, {"time": 1418, "pitch": 61, "duration": 4, "velocity": 107}, {"time": 1418, "pitch": 64, "duration": 4, "velocity": 92}, {"time": 1424, "pitch": 57, "duration": 3, "velocity": 86}, {"time": 1424, "pitch": 61, "duration": 3, "velocity": 107}, {"time": 1424, "pitch": 64, "duration": 2, "velocity": 86}, {"time": 1427, "pitch": 50, "duration": 9, "velocity": 96}, {"time": 1430, "pitch": 57, "duration": 4, "velocity": 90}, {"time": 1430, "pitch": 62, "duration": 4, "velocity": 99}, {"time": 1430, "pitch": 66, "duration": 4, "velocity": 100}, {"time": 1436, "pitch": 57, "duration": 2, "velocity": 92}, {"time": 1436, "pitch": 62, "duration": 2, "velocity": 96}, {"time": 1436, "pitch": 66, "duration": 2, "velocity": 99}, {"time": 1439, "pitch": 52, "duration": 6, "velocity": 112}, {"time": 1442, "pitch": 59, "duration": 1, "velocity": 89}, {"time": 1442, "pitch": 64, "duration": 1, "velocity": 100}, {"time": 1442, "pitch": 68, "duration": 1, "velocity": 99}, {"time": 1445, "pitch": 59, "duration": 6, "velocity": 100}, {"time": 1445, "pitch": 64, "duration": 4, "velocity": 112}, {"time": 1445, "pitch": 68, "duration": 4, "velocity": 112}, {"time": 1451, "pitch": 42, "duration": 7, "velocity": 95}, {"time": 1457, "pitch": 57, "duration": 6, "velocity": 96}, {"time": 1457, "pitch": 61, "duration": 6, "velocity": 117}, {"time": 1457, "pitch": 66, "duration": 6, "velocity": 99}, {"time": 1460, "pitch": 42, "duration": 1, "velocity": 36}, {"time": 1460, "pitch": 54, "duration": 1, "velocity": 69}, {"time": 1463, "pitch": 42, "duration": 8, "velocity": 78}, {"time": 1463, "pitch": 54, "duration": 6, "velocity": 83}, {"time": 1466, "pitch": 57, "duration": 4, "velocity": 92}, {"time": 1466, "pitch": 61, "duration": 4, "velocity": 122}, {"time": 1466, "pitch": 66, "duration": 4, "velocity": 100}, {"time": 1472, "pitch": 57, "duration": 2, "velocity": 96}, {"time": 1472, "pitch": 61, "duration": 2, "velocity": 122}, {"time": 1472, "pitch": 66, "duration": 3, "velocity": 99}, {"time": 1475, "pitch": 49, "duration": 7, "velocity": 82}, {"time": 1481, "pitch": 61, "duration": 6, "velocity": 112}, {"time": 1481, "pitch": 64, "duration": 6, "velocity": 112}, {"time": 1481, "pitch": 68, "duration": 6, "velocity": 112}, {"time": 1484, "pitch": 49, "duration": 1, "velocity": 63}, {"time": 1487, "pitch": 49, "duration": 5, "velocity": 95}, {"time": 1490, "pitch": 61, "duration": 4, "velocity": 102}, {"time": 1490, "pitch": 64, "duration": 2, "velocity": 100}, {"time": 1490, "pitch": 68, "duration": 4, "velocity": 112}, {"time": 1493, "pitch": 49, "duration": 5, "velocity": 100}, {"time": 1493, "pitch": 64, "duration": 1, "velocity": 21}, {"time": 1496, "pitch": 61, "duration": 3, "velocity": 102}, {"time": 1496, "pitch": 64, "duration": 1, "velocity": 90}, {"time": 1496, "pitch": 68, "duration": 2, "velocity": 96}, {"time": 1499, "pitch": 47, "duration": 7, "velocity": 96}, {"time": 1505, "pitch": 59, "duration": 5, "velocity": 93}, {"time": 1505, "pitch": 62, "duration": 4, "velocity": 97}, {"time": 1505, "pitch": 66, "duration": 4, "velocity": 107}, {"time": 1508, "pitch": 47, "duration": 2, "velocity": 95}, {"time": 1511, "pitch": 45, "duration": 9, "velocity": 86}, {"time": 1514, "pitch": 57, "duration": 4, "velocity": 92}, {"time": 1514, "pitch": 61, "duration": 4, "velocity": 99}, {"time": 1514, "pitch": 64, "duration": 4, "velocity": 90}, {"time": 1520, "pitch": 57, "duration": 3, "velocity": 90}, {"time": 1520, "pitch": 61, "duration": 2, "velocity": 102}, {"time": 1520, "pitch": 64, "duration": 2, "velocity": 89}, {"time": 1523, "pitch": 44, "duration": 8, "velocity": 96}, {"time": 1526, "pitch": 52, "duration": 5, "velocity": 82}, {"time": 1526, "pitch": 56, "duration": 5, "velocity": 95}, {"time": 1526, "pitch": 59, "duration": 5, "velocity": 90}, {"time": 1532, "pitch": 52, "duration": 1, "velocity": 81}, {"time": 1532, "pitch": 56, "duration": 1, "velocity": 97}, {"time": 1532, "pitch": 59, "duration": 1, "velocity": 88}, {"time": 1535, "pitch": 42, "duration": 9, "velocity": 88}, {"time": 1538, "pitch": 54, "duration": 3, "velocity": 37}, {"time": 1538, "pitch": 57, "duration": 1, "velocity": 69}, {"time": 1538, "pitch": 58, "duration": 1, "velocity": 41}, {"time": 1538, "pitch": 61, "duration": 3, "velocity": 90}, {"time": 1541, "pitch": 54, "duration": 2, "velocity": 66}, {"time": 1544, "pitch": 57, "duration": 2, "velocity": 90}, {"time": 1544, "pitch": 61, "duration": 2, "velocity": 102}, {"time": 1547, "pitch": 40, "duration": 7, "velocity": 92}, {"time": 1553, "pitch": 59, "duration": 6, "velocity": 83}, {"time": 1553, "pitch": 64, "duration": 6, "velocity": 95}, {"time": 1553, "pitch": 68, "duration": 6, "velocity": 96}, {"time": 1556, "pitch": 47, "duration": 1, "velocity": 75}, {"time": 1556, "pitch": 52, "duration": 1, "velocity": 66}, {"time": 1559, "pitch": 47, "duration": 10, "velocity": 76}, {"time": 1559, "pitch": 52, "duration": 9, "velocity": 64}, {"time": 1562, "pitch": 59, "duration": 4, "velocity": 85}, {"time": 1562, "pitch": 64, "duration": 4, "velocity": 95}, {"time": 1562, "pitch": 68, "duration": 4, "velocity": 97}, {"time": 1568, "pitch": 59, "duration": 3, "velocity": 85}, {"time": 1568, "pitch": 64, "duration": 2, "velocity": 95}, {"time": 1568, "pitch": 68, "duration": 3, "velocity": 97}, {"time": 1571, "pitch": 40, "duration": 6, "velocity": 59}, {"time": 1571, "pitch": 47, "duration": 7, "velocity": 70}, {"time": 1571, "pitch": 52, "duration": 7, "velocity": 95}, {"time": 1577, "pitch": 59, "duration": 5, "velocity": 78}, {"time": 1577, "pitch": 64, "duration": 5, "velocity": 93}, {"time": 1577, "pitch": 68, "duration": 5, "velocity": 96}, {"time": 1580, "pitch": 47, "duration": 1, "velocity": 89}, {"time": 1580, "pitch": 52, "duration": 1, "velocity": 79}, {"time": 1583, "pitch": 40, "duration": 8, "velocity": 76}, {"time": 1583, "pitch": 47, "duration": 8, "velocity": 86}, {"time": 1583, "pitch": 52, "duration": 9, "velocity": 90}, {"time": 1586, "pitch": 59, "duration": 4, "velocity": 81}, {"time": 1586, "pitch": 64, "duration": 4, "velocity": 99}, {"time": 1586, "pitch": 68, "duration": 4, "velocity": 97}, {"time": 1592, "pitch": 59, "duration": 3, "velocity": 83}, {"time": 1592, "pitch": 64, "duration": 2, "velocity": 95}, {"time": 1592, "pitch": 68, "duration": 3, "velocity": 99}, {"time": 1595, "pitch": 45, "duration": 22, "velocity": 83}, {"time": 1598, "pitch": 52, "duration": 11, "velocity": 86}, {"time": 1601, "pitch": 57, "duration": 8, "velocity": 92}, {"time": 1604, "pitch": 59, "duration": 3, "velocity": 95}, {"time": 1607, "pitch": 64, "duration": 13, "velocity": 97}, {"time": 1610, "pitch": 52, "duration": 9, "velocity": 69}, {"time": 1613, "pitch": 61, "duration": 6, "velocity": 83}, {"time": 1616, "pitch": 59, "duration": 3, "velocity": 72}, {"time": 1619, "pitch": 45, "duration": 13, "velocity": 77}, {"time": 1622, "pitch": 52, "duration": 10, "velocity": 92}, {"time": 1625, "pitch": 57, "duration": 5, "velocity": 97}, {"time": 1628, "pitch": 59, "duration": 4, "velocity": 97}, {"time": 1631, "pitch": 64, "duration": 12, "velocity": 107}, {"time": 1634, "pitch": 44, "duration": 8, "velocity": 112}, {"time": 1637, "pitch": 61, "duration": 6, "velocity": 117}, {"time": 1640, "pitch": 59, "duration": 3, "velocity": 89}, {"time": 1643, "pitch": 42, "duration": 22, "velocity": 100}, {"time": 1646, "pitch": 54, "duration": 4, "velocity": 67}, {"time": 1649, "pitch": 57, "duration": 9, "velocity": 89}, {"time": 1652, "pitch": 54, "duration": 4, "velocity": 75}, {"time": 1655, "pitch": 66, "duration": 16, "velocity": 127}, {"time": 1658, "pitch": 54, "duration": 10, "velocity": 76}, {"time": 1661, "pitch": 61, "duration": 11, "velocity": 100}, {"time": 1664, "pitch": 57, "duration": 8, "velocity": 90}, {"time": 1667, "pitch": 42, "duration": 17, "velocity": 83}, {"time": 1670, "pitch": 54, "duration": 10, "velocity": 90}, {"time": 1673, "pitch": 57, "duration": 3, "velocity": 93}, {"time": 1676, "pitch": 61, "duration": 2, "velocity": 78}, {"time": 1676, "pitch": 66, "duration": 2, "velocity": 93}, {"time": 1679, "pitch": 61, "duration": 6, "velocity": 96}, {"time": 1679, "pitch": 66, "duration": 8, "velocity": 100}, {"time": 1682, "pitch": 54, "duration": 1, "velocity": 99}, {"time": 1685, "pitch": 57, "duration": 13, "velocity": 96}, {"time": 1688, "pitch": 61, "duration": 2, "velocity": 97}, {"time": 1691, "pitch": 38, "duration": 21, "velocity": 75}, {"time": 1691, "pitch": 62, "duration": 7, "velocity": 90}, {"time": 1691, "pitch": 66, "duration": 9, "velocity": 97}, {"time": 1694, "pitch": 45, "duration": 21, "velocity": 55}, {"time": 1697, "pitch": 50, "duration": 7, "velocity": 90}, {"time": 1700, "pitch": 57, "duration": 4, "velocity": 81}, {"time": 1703, "pitch": 62, "duration": 6, "velocity": 97}, {"time": 1703, "pitch": 66, "duration": 13, "velocity": 112}, {"time": 1706, "pitch": 50, "duration": 2, "velocity": 72}, {"time": 1709, "pitch": 57, "duration": 12, "velocity": 93}, {"time": 1712, "pitch": 62, "duration": 3, "velocity": 97}, {"time": 1715, "pitch": 38, "duration": 21, "velocity": 85}, {"time": 1718, "pitch": 45, "duration": 20, "velocity": 61}, {"time": 1721, "pitch": 50, "duration": 7, "velocity": 93}, {"time": 1724, "pitch": 57, "duration": 5, "velocity": 77}, {"time": 1727, "pitch": 62, "duration": 7, "velocity": 74}, {"time": 1727, "pitch": 66, "duration": 11, "velocity": 122}, {"time": 1730, "pitch": 50, "duration": 3, "velocity": 81}, {"time": 1733, "pitch": 57, "duration": 6, "velocity": 95}, {"time": 1736, "pitch": 62, "duration": 11, "velocity": 99}, {"time": 1739, "pitch": 40, "duration": 22, "velocity": 82}, {"time": 1742, "pitch": 47, "duration": 22, "velocity": 81}, {"time": 1745, "pitch": 52, "duration": 7, "velocity": 89}, {"time": 1748, "pitch": 59, "duration": 4, "velocity": 82}, {"time": 1751, "pitch": 64, "duration": 7, "velocity": 92}, {"time": 1751, "pitch": 68, "duration": 22, "velocity": 102}, {"time": 1754, "pitch": 52, "duration": 4, "velocity": 93}, {"time": 1757, "pitch": 59, "duration": 12, "velocity": 90}, {"time": 1760, "pitch": 64, "duration": 13, "velocity": 88}, {"time": 1763, "pitch": 40, "duration": 18, "velocity": 85}, {"time": 1766, "pitch": 47, "duration": 15, "velocity": 69}, {"time": 1769, "pitch": 52, "duration": 7, "velocity": 95}, {"time": 1772, "pitch": 59, "duration": 4, "velocity": 82}, {"time": 1775, "pitch": 64, "duration": 8, "velocity": 93}, {"time": 1775, "pitch": 68, "duration": 7, "velocity": 107}, {"time": 1778, "pitch": 52, "duration": 8, "velocity": 85}, {"time": 1781, "pitch": 59, "duration": 6, "velocity": 99}, {"time": 1784, "pitch": 64, "duration": 4, "velocity": 70}, {"time": 1784, "pitch": 68, "duration": 3, "velocity": 97}, {"time": 1787, "pitch": 45, "duration": 22, "velocity": 88}, {"time": 1790, "pitch": 52, "duration": 11, "velocity": 86}, {"time": 1793, "pitch": 57, "duration": 7, "velocity": 95}, {"time": 1796, "pitch": 59, "duration": 3, "velocity": 93}, {"time": 1799, "pitch": 64, "duration": 14, "velocity": 99}, {"time": 1802, "pitch": 52, "duration": 9, "velocity": 68}, {"time": 1805, "pitch": 61, "duration": 7, "velocity": 102}, {"time": 1808, "pitch": 59, "duration": 4, "velocity": 65}, {"time": 1811, "pitch": 45, "duration": 24, "velocity": 83}, {"time": 1814, "pitch": 52, "duration": 18, "velocity": 69}, {"time": 1817, "pitch": 57, "duration": 6, "velocity": 69}, {"time": 1820, "pitch": 59, "duration": 4, "velocity": 67}, {"time": 1823, "pitch": 64, "duration": 12, "velocity": 86}, {"time": 1835, "pitch": 45, "duration": 1, "velocity": 97}, {"time": 1841, "pitch": 57, "duration": 5, "velocity": 88}, {"time": 1841, "pitch": 61, "duration": 7, "velocity": 96}, {"time": 1841, "pitch": 64, "duration": 6, "velocity": 79}, {"time": 1844, "pitch": 52, "duration": 1, "velocity": 96}, {"time": 1847, "pitch": 52, "duration": 11, "velocity": 82}, {"time": 1850, "pitch": 57, "duration": 4, "velocity": 72}, {"time": 1850, "pitch": 61, "duration": 4, "velocity": 92}, {"time": 1850, "pitch": 64, "duration": 4, "velocity": 79}, {"time": 1856, "pitch": 57, "duration": 3, "velocity": 86}, {"time": 1856, "pitch": 61, "duration": 3, "velocity": 100}, {"time": 1856, "pitch": 64, "duration": 3, "velocity": 83}, {"time": 1859, "pitch": 45, "duration": 7, "velocity": 86}, {"time": 1865, "pitch": 57, "duration": 6, "velocity": 86}, {"time": 1865, "pitch": 61, "duration": 6, "velocity": 112}, {"time": 1865, "pitch": 64, "duration": 6, "velocity": 86}, {"time": 1868, "pitch": 52, "duration": 1, "velocity": 90}, {"time": 1871, "pitch": 52, "duration": 6, "velocity": 83}, {"time": 1874, "pitch": 57, "duration": 4, "velocity": 86}, {"time": 1874, "pitch": 61, "duration": 4, "velocity": 102}, {"time": 1874, "pitch": 64, "duration": 4, "velocity": 88}, {"time": 1880, "pitch": 57, "duration": 3, "velocity": 85}, {"time": 1880, "pitch": 61, "duration": 2, "velocity": 99}, {"time": 1880, "pitch": 64, "duration": 2, "velocity": 78}, {"time": 1883, "pitch": 42, "duration": 6, "velocity": 92}, {"time": 1889, "pitch": 57, "duration": 6, "velocity": 86}, {"time": 1889, "pitch": 61, "duration": 6, "velocity": 102}, {"time": 1889, "pitch": 66, "duration": 7, "velocity": 100}, {"time": 1892, "pitch": 42, "duration": 1, "velocity": 58}, {"time": 1892, "pitch": 54, "duration": 1, "velocity": 73}, {"time": 1895, "pitch": 42, "duration": 10, "velocity": 62}, {"time": 1895, "pitch": 54, "duration": 9, "velocity": 82}, {"time": 1898, "pitch": 57, "duration": 4, "velocity": 79}, {"time": 1898, "pitch": 61, "duration": 4, "velocity": 100}, {"time": 1898, "pitch": 66, "duration": 4, "velocity": 89}, {"time": 1904, "pitch": 57, "duration": 2, "velocity": 79}, {"time": 1904, "pitch": 61, "duration": 2, "velocity": 100}, {"time": 1904, "pitch": 66, "duration": 2, "velocity": 85}, {"time": 1907, "pitch": 40, "duration": 7, "velocity": 89}, {"time": 1913, "pitch": 59, "duration": 6, "velocity": 92}, {"time": 1913, "pitch": 64, "duration": 6, "velocity": 97}, {"time": 1913, "pitch": 68, "duration": 6, "velocity": 97}, {"time": 1916, "pitch": 47, "duration": 1, "velocity": 62}, {"time": 1916, "pitch": 52, "duration": 1, "velocity": 66}, {"time": 1919, "pitch": 47, "duration": 10, "velocity": 74}, {"time": 1919, "pitch": 52, "duration": 9, "velocity": 74}, {"time": 1922, "pitch": 59, "duration": 4, "velocity": 86}, {"time": 1922, "pitch": 64, "duration": 4, "velocity": 93}, {"time": 1922, "pitch": 68, "duration": 4, "velocity": 90}, {"time": 1928, "pitch": 59, "duration": 2, "velocity": 88}, {"time": 1928, "pitch": 64, "duration": 2, "velocity": 92}, {"time": 1928, "pitch": 68, "duration": 2, "velocity": 95}, {"time": 1931, "pitch": 40, "duration": 7, "velocity": 55}, {"time": 1931, "pitch": 47, "duration": 7, "velocity": 72}, {"time": 1931, "pitch": 52, "duration": 7, "velocity": 79}, {"time": 1937, "pitch": 59, "duration": 6, "velocity": 86}, {"time": 1937, "pitch": 64, "duration": 7, "velocity": 92}, {"time": 1937, "pitch": 68, "duration": 7, "velocity": 95}, {"time": 1940, "pitch": 47, "duration": 1, "velocity": 60}, {"time": 1940, "pitch": 52, "duration": 1, "velocity": 58}, {"time": 1943, "pitch": 47, "duration": 9, "velocity": 79}, {"time": 1943, "pitch": 52, "duration": 9, "velocity": 70}, {"time": 1946, "pitch": 59, "duration": 4, "velocity": 82}, {"time": 1946, "pitch": 64, "duration": 4, "velocity": 89}, {"time": 1946, "pitch": 68, "duration": 4, "velocity": 93}, {"time": 1952, "pitch": 59, "duration": 3, "velocity": 83}, {"time": 1952, "pitch": 64, "duration": 3, "velocity": 89}, {"time": 1952, "pitch": 68, "duration": 3, "velocity": 89}, {"time": 1955, "pitch": 42, "duration": 7, "velocity": 95}, {"time": 1961, "pitch": 57, "duration": 6, "velocity": 88}, {"time": 1961, "pitch": 61, "duration": 6, "velocity": 97}, {"time": 1961, "pitch": 66, "duration": 6, "velocity": 92}, {"time": 1964, "pitch": 42, "duration": 1, "velocity": 67}, {"time": 1964, "pitch": 54, "duration": 1, "velocity": 76}, {"time": 1967, "pitch": 42, "duration": 8, "velocity": 78}, {"time": 1967, "pitch": 54, "duration": 5, "velocity": 72}, {"time": 1970, "pitch": 57, "duration": 4, "velocity": 79}, {"time": 1970, "pitch": 61, "duration": 4, "velocity": 99}, {"time": 1970, "pitch": 66, "duration": 4, "velocity": 92}, {"time": 1976, "pitch": 57, "duration": 3, "velocity": 82}, {"time": 1976, "pitch": 61, "duration": 3, "velocity": 100}, {"time": 1976, "pitch": 66, "duration": 3, "velocity": 92}, {"time": 1979, "pitch": 50, "duration": 7, "velocity": 58}, {"time": 1985, "pitch": 57, "duration": 6, "velocity": 86}, {"time": 1985, "pitch": 62, "duration": 7, "velocity": 93}, {"time": 1985, "pitch": 66, "duration": 7, "velocity": 90}, {"time": 1988, "pitch": 50, "duration": 1, "velocity": 69}, {"time": 1991, "pitch": 50, "duration": 10, "velocity": 65}, {"time": 1994, "pitch": 57, "duration": 4, "velocity": 74}, {"time": 1994, "pitch": 62, "duration": 5, "velocity": 88}, {"time": 1994, "pitch": 66, "duration": 5, "velocity": 86}, {"time": 2000, "pitch": 57, "duration": 2, "velocity": 81}, {"time": 2000, "pitch": 62, "duration": 2, "velocity": 89}, {"time": 2000, "pitch": 66, "duration": 3, "velocity": 86}, {"time": 2003, "pitch": 52, "duration": 7, "velocity": 72}, {"time": 2009, "pitch": 59, "duration": 4, "velocity": 86}, {"time": 2009, "pitch": 64, "duration": 7, "velocity": 92}, {"time": 2009, "pitch": 68, "duration": 6, "velocity": 92}, {"time": 2012, "pitch": 52, "duration": 1, "velocity": 83}, {"time": 2015, "pitch": 52, "duration": 10, "velocity": 85}, {"time": 2018, "pitch": 59, "duration": 4, "velocity": 81}, {"time": 2018, "pitch": 64, "duration": 4, "velocity": 83}, {"time": 2018, "pitch": 68, "duration": 4, "velocity": 85}, {"time": 2024, "pitch": 59, "duration": 3, "velocity": 90}, {"time": 2024, "pitch": 64, "duration": 2, "velocity": 92}, {"time": 2024, "pitch": 68, "duration": 1, "velocity": 72}, {"time": 2027, "pitch": 45, "duration": 7, "velocity": 82}, {"time": 2033, "pitch": 57, "duration": 5, "velocity": 85}, {"time": 2033, "pitch": 61, "duration": 5, "velocity": 95}, {"time": 2033, "pitch": 64, "duration": 6, "velocity": 82}, {"time": 2036, "pitch": 52, "duration": 1, "velocity": 82}, {"time": 2039, "pitch": 52, "duration": 6, "velocity": 78}, {"time": 2042, "pitch": 57, "duration": 4, "velocity": 78}, {"time": 2042, "pitch": 61, "duration": 4, "velocity": 95}, {"time": 2042, "pitch": 64, "duration": 4, "velocity": 79}, {"time": 2048, "pitch": 57, "duration": 3, "velocity": 74}, {"time": 2048, "pitch": 61, "duration": 3, "velocity": 93}, {"time": 2048, "pitch": 64, "duration": 3, "velocity": 81}, {"time": 2051, "pitch": 42, "duration": 7, "velocity": 89}, {"time": 2057, "pitch": 57, "duration": 5, "velocity": 81}, {"time": 2057, "pitch": 61, "duration": 5, "velocity": 97}, {"time": 2057, "pitch": 66, "duration": 6, "velocity": 77}, {"time": 2060, "pitch": 42, "duration": 1, "velocity": 60}, {"time": 2060, "pitch": 54, "duration": 1, "velocity": 79}, {"time": 2063, "pitch": 42, "duration": 5, "velocity": 74}, {"time": 2063, "pitch": 54, "duration": 5, "velocity": 64}, {"time": 2066, "pitch": 57, "duration": 4, "velocity": 79}, {"time": 2066, "pitch": 61, "duration": 4, "velocity": 97}, {"time": 2066, "pitch": 66, "duration": 5, "velocity": 92}, {"time": 2072, "pitch": 57, "duration": 3, "velocity": 78}, {"time": 2072, "pitch": 61, "duration": 2, "velocity": 100}, {"time": 2072, "pitch": 66, "duration": 2, "velocity": 81}, {"time": 2075, "pitch": 45, "duration": 7, "velocity": 77}, {"time": 2081, "pitch": 57, "duration": 5, "velocity": 88}, {"time": 2081, "pitch": 61, "duration": 5, "velocity": 100}, {"time": 2081, "pitch": 64, "duration": 6, "velocity": 85}, {"time": 2084, "pitch": 52, "duration": 1, "velocity": 83}, {"time": 2087, "pitch": 52, "duration": 11, "velocity": 72}, {"time": 2090, "pitch": 57, "duration": 4, "velocity": 82}, {"time": 2090, "pitch": 61, "duration": 4, "velocity": 95}, {"time": 2090, "pitch": 64, "duration": 4, "velocity": 86}, {"time": 2096, "pitch": 57, "duration": 3, "velocity": 81}, {"time": 2096, "pitch": 61, "duration": 2, "velocity": 93}, {"time": 2096, "pitch": 64, "duration": 3, "velocity": 85}, {"time": 2099, "pitch": 45, "duration": 6, "velocity": 82}, {"time": 2105, "pitch": 57, "duration": 5, "velocity": 93}, {"time": 2105, "pitch": 61, "duration": 6, "velocity": 99}, {"time": 2105, "pitch": 64, "duration": 6, "velocity": 93}, {"time": 2108, "pitch": 52, "duration": 1, "velocity": 92}, {"time": 2111, "pitch": 52, "duration": 4, "velocity": 85}, {"time": 2114, "pitch": 57, "duration": 3, "velocity": 89}, {"time": 2114, "pitch": 61, "duration": 3, "velocity": 107}, {"time": 2114, "pitch": 64, "duration": 4, "velocity": 93}, {"time": 2117, "pitch": 44, "duration": 5, "velocity": 96}, {"time": 2120, "pitch": 61, "duration": 3, "velocity": 99}, {"time": 2123, "pitch": 42, "duration": 6, "velocity": 95}, {"time": 2129, "pitch": 57, "duration": 4, "velocity": 81}, {"time": 2129, "pitch": 61, "duration": 4, "velocity": 112}, {"time": 2129, "pitch": 66, "duration": 4, "velocity": 97}, {"time": 2132, "pitch": 42, "duration": 1, "velocity": 77}, {"time": 2132, "pitch": 54, "duration": 1, "velocity": 79}, {"time": 2135, "pitch": 42, "duration": 5, "velocity": 71}, {"time": 2135, "pitch": 54, "duration": 4, "velocity": 77}, {"time": 2138, "pitch": 57, "duration": 4, "velocity": 88}, {"time": 2138, "pitch": 61, "duration": 4, "velocity": 107}, {"time": 2138, "pitch": 66, "duration": 4, "velocity": 96}, {"time": 2141, "pitch": 42, "duration": 3, "velocity": 48}, {"time": 2141, "pitch": 54, "duration": 3, "velocity": 76}, {"time": 2144, "pitch": 57, "duration": 2, "velocity": 88}, {"time": 2144, "pitch": 61, "duration": 2, "velocity": 112}, {"time": 2144, "pitch": 66, "duration": 2, "velocity": 97}, {"time": 2147, "pitch": 50, "duration": 7, "velocity": 89}, {"time": 2153, "pitch": 57, "duration": 6, "velocity": 77}, {"time": 2153, "pitch": 62, "duration": 4, "velocity": 90}, {"time": 2153, "pitch": 66, "duration": 6, "velocity": 89}, {"time": 2156, "pitch": 50, "duration": 1, "velocity": 82}, {"time": 2159, "pitch": 50, "duration": 6, "velocity": 88}, {"time": 2162, "pitch": 57, "duration": 4, "velocity": 75}, {"time": 2162, "pitch": 62, "duration": 4, "velocity": 92}, {"time": 2162, "pitch": 66, "duration": 4, "velocity": 90}, {"time": 2168, "pitch": 57, "duration": 3, "velocity": 77}, {"time": 2168, "pitch": 62, "duration": 3, "velocity": 95}, {"time": 2168, "pitch": 66, "duration": 1, "velocity": 81}, {"time": 2171, "pitch": 40, "duration": 7, "velocity": 66}, {"time": 2177, "pitch": 59, "duration": 6, "velocity": 85}, {"time": 2177, "pitch": 64, "duration": 6, "velocity": 95}, {"time": 2177, "pitch": 68, "duration": 6, "velocity": 93}, {"time": 2180, "pitch": 47, "duration": 1, "velocity": 51}, {"time": 2180, "pitch": 52, "duration": 1, "velocity": 63}, {"time": 2183, "pitch": 47, "duration": 10, "velocity": 70}, {"time": 2183, "pitch": 52, "duration": 8, "velocity": 61}, {"time": 2186, "pitch": 59, "duration": 4, "velocity": 77}, {"time": 2186, "pitch": 64, "duration": 4, "velocity": 81}, {"time": 2186, "pitch": 68, "duration": 4, "velocity": 77}, {"time": 2192, "pitch": 59, "duration": 2, "velocity": 81}, {"time": 2192, "pitch": 64, "duration": 2, "velocity": 79}, {"time": 2192, "pitch": 68, "duration": 2, "velocity": 74}, {"time": 2195, "pitch": 42, "duration": 7, "velocity": 83}, {"time": 2195, "pitch": 54, "duration": 6, "velocity": 79}, {"time": 2201, "pitch": 57, "duration": 4, "velocity": 88}, {"time": 2201, "pitch": 61, "duration": 3, "velocity": 107}, {"time": 2201, "pitch": 66, "duration": 3, "velocity": 95}, {"time": 2204, "pitch": 42, "duration": 2, "velocity": 93}, {"time": 2207, "pitch": 44, "duration": 7, "velocity": 112}, {"time": 2213, "pitch": 52, "duration": 5, "velocity": 74}, {"time": 2213, "pitch": 56, "duration": 5, "velocity": 97}, {"time": 2213, "pitch": 59, "duration": 5, "velocity": 89}, {"time": 2219, "pitch": 45, "duration": 7, "velocity": 70}, {"time": 2225, "pitch": 57, "duration": 3, "velocity": 93}, {"time": 2225, "pitch": 61, "duration": 3, "velocity": 117}, {"time": 2225, "pitch": 64, "duration": 4, "velocity": 96}, {"time": 2228, "pitch": 52, "duration": 1, "velocity": 86}, {"time": 2231, "pitch": 52, "duration": 4, "velocity": 102}, {"time": 2234, "pitch": 57, "duration": 4, "velocity": 95}, {"time": 2234, "pitch": 61, "duration": 4, "velocity": 117}, {"time": 2234, "pitch": 64, "duration": 4, "velocity": 95}, {"time": 2240, "pitch": 57, "duration": 3, "velocity": 92}, {"time": 2240, "pitch": 61, "duration": 2, "velocity": 117}, {"time": 2240, "pitch": 64, "duration": 2, "velocity": 86}, {"time": 2243, "pitch": 50, "duration": 6, "velocity": 95}, {"time": 2249, "pitch": 57, "duration": 5, "velocity": 95}, {"time": 2249, "pitch": 62, "duration": 5, "velocity": 102}, {"time": 2249, "pitch": 66, "duration": 6, "velocity": 102}, {"time": 2252, "pitch": 50, "duration": 1, "velocity": 92}, {"time": 2255, "pitch": 52, "duration": 7, "velocity": 122}, {"time": 2258, "pitch": 59, "duration": 3, "velocity": 99}, {"time": 2258, "pitch": 64, "duration": 4, "velocity": 97}, {"time": 2258, "pitch": 68, "duration": 3, "velocity": 107}, {"time": 2264, "pitch": 59, "duration": 3, "velocity": 97}, {"time": 2264, "pitch": 64, "duration": 2, "velocity": 117}, {"time": 2264, "pitch": 68, "duration": 3, "velocity": 112}, {"time": 2267, "pitch": 42, "duration": 10, "velocity": 117}, {"time": 2270, "pitch": 66, "duration": 1, "velocity": 33}, {"time": 2273, "pitch": 57, "duration": 3, "velocity": 102}, {"time": 2273, "pitch": 61, "duration": 3, "velocity": 127}, {"time": 2273, "pitch": 66, "duration": 3, "velocity": 122}, {"time": 2276, "pitch": 57, "duration": 1, "velocity": 90}, {"time": 2276, "pitch": 61, "duration": 1, "velocity": 92}, {"time": 2276, "pitch": 66, "duration": 1, "velocity": 96}, {"time": 2279, "pitch": 42, "duration": 8, "velocity": 66}, {"time": 2279, "pitch": 54, "duration": 8, "velocity": 66}, {"time": 2282, "pitch": 57, "duration": 4, "velocity": 95}, {"time": 2282, "pitch": 61, "duration": 4, "velocity": 122}, {"time": 2282, "pitch": 66, "duration": 4, "velocity": 100}, {"time": 2288, "pitch": 57, "duration": 2, "velocity": 97}, {"time": 2288, "pitch": 61, "duration": 2, "velocity": 122}, {"time": 2288, "pitch": 66, "duration": 2, "velocity": 107}, {"time": 2291, "pitch": 49, "duration": 6, "velocity": 88}, {"time": 2297, "pitch": 61, "duration": 5, "velocity": 112}, {"time": 2297, "pitch": 64, "duration": 4, "velocity": 107}, {"time": 2297, "pitch": 68, "duration": 4, "velocity": 107}, {"time": 2300, "pitch": 49, "duration": 1, "velocity": 39}, {"time": 2300, "pitch": 56, "duration": 1, "velocity": 85}, {"time": 2303, "pitch": 49, "duration": 7, "velocity": 92}, {"time": 2303, "pitch": 56, "duration": 5, "velocity": 93}, {"time": 2306, "pitch": 61, "duration": 4, "velocity": 102}, {"time": 2306, "pitch": 64, "duration": 4, "velocity": 112}, {"time": 2306, "pitch": 68, "duration": 4, "velocity": 122}, {"time": 2312, "pitch": 61, "duration": 2, "velocity": 102}, {"time": 2312, "pitch": 64, "duration": 1, "velocity": 93}, {"time": 2312, "pitch": 68, "duration": 2, "velocity": 117}, {"time": 2315, "pitch": 47, "duration": 7, "velocity": 88}, {"time": 2321, "pitch": 59, "duration": 6, "velocity": 97}, {"time": 2321, "pitch": 62, "duration": 5, "velocity": 122}, {"time": 2321, "pitch": 66, "duration": 5, "velocity": 117}, {"time": 2324, "pitch": 47, "duration": 2, "velocity": 89}, {"time": 2327, "pitch": 45, "duration": 9, "velocity": 85}, {"time": 2333, "pitch": 61, "duration": 5, "velocity": 127}, {"time": 2333, "pitch": 64, "duration": 5, "velocity": 102}, {"time": 2336, "pitch": 57, "duration": 3, "velocity": 90}, {"time": 2339, "pitch": 44, "duration": 7, "velocity": 100}, {"time": 2345, "pitch": 52, "duration": 3, "velocity": 86}, {"time": 2345, "pitch": 56, "duration": 3, "velocity": 96}, {"time": 2345, "pitch": 59, "duration": 3, "velocity": 89}, {"time": 2348, "pitch": 44, "duration": 2, "velocity": 107}, {"time": 2351, "pitch": 42, "duration": 9, "velocity": 100}, {"time": 2354, "pitch": 54, "duration": 5, "velocity": 89}, {"time": 2357, "pitch": 61, "duration": 6, "velocity": 127}, {"time": 2357, "pitch": 66, "duration": 6, "velocity": 122}, {"time": 2360, "pitch": 57, "duration": 3, "velocity": 89}, {"time": 2363, "pitch": 50, "duration": 7, "velocity": 93}, {"time": 2369, "pitch": 57, "duration": 4, "velocity": 90}, {"time": 2369, "pitch": 62, "duration": 6, "velocity": 99}, {"time": 2369, "pitch": 66, "duration": 6, "velocity": 99}, {"time": 2372, "pitch": 50, "duration": 1, "velocity": 93}, {"time": 2375, "pitch": 50, "duration": 5, "velocity": 95}, {"time": 2378, "pitch": 57, "duration": 4, "velocity": 99}, {"time": 2378, "pitch": 62, "duration": 4, "velocity": 102}, {"time": 2378, "pitch": 66, "duration": 4, "velocity": 107}, {"time": 2384, "pitch": 57, "duration": 2, "velocity": 99}, {"time": 2384, "pitch": 62, "duration": 2, "velocity": 100}, {"time": 2384, "pitch": 66, "duration": 2, "velocity": 99}, {"time": 2387, "pitch": 40, "duration": 6, "velocity": 59}, {"time": 2387, "pitch": 47, "duration": 7, "velocity": 85}, {"time": 2387, "pitch": 52, "duration": 7, "velocity": 88}, {"time": 2393, "pitch": 59, "duration": 7, "velocity": 96}, {"time": 2393, "pitch": 64, "duration": 7, "velocity": 112}, {"time": 2393, "pitch": 68, "duration": 7, "velocity": 112}, {"time": 2396, "pitch": 47, "duration": 1, "velocity": 88}, {"time": 2396, "pitch": 52, "duration": 1, "velocity": 85}, {"time": 2399, "pitch": 47, "duration": 10, "velocity": 86}, {"time": 2399, "pitch": 52, "duration": 10, "velocity": 85}, {"time": 2402, "pitch": 59, "duration": 4, "velocity": 95}, {"time": 2402, "pitch": 64, "duration": 4, "velocity": 100}, {"time": 2402, "pitch": 68, "duration": 4, "velocity": 102}, {"time": 2408, "pitch": 59, "duration": 2, "velocity": 96}, {"time": 2408, "pitch": 64, "duration": 2, "velocity": 102}, {"time": 2408, "pitch": 68, "duration": 2, "velocity": 102}, {"time": 2411, "pitch": 45, "duration": 8, "velocity": 97}, {"time": 2417, "pitch": 57, "duration": 6, "velocity": 93}, {"time": 2417, "pitch": 61, "duration": 6, "velocity": 107}, {"time": 2417, "pitch": 64, "duration": 6, "velocity": 89}, {"time": 2420, "pitch": 52, "duration": 1, "velocity": 99}, {"time": 2423, "pitch": 52, "duration": 10, "velocity": 99}, {"time": 2426, "pitch": 57, "duration": 4, "velocity": 92}, {"time": 2426, "pitch": 61, "duration": 4, "velocity": 107}, {"time": 2426, "pitch": 64, "duration": 4, "velocity": 92}, {"time": 2432, "pitch": 57, "duration": 3, "velocity": 86}, {"time": 2432, "pitch": 61, "duration": 3, "velocity": 107}, {"time": 2432, "pitch": 64, "duration": 2, "velocity": 86}, {"time": 2435, "pitch": 50, "duration": 9, "velocity": 96}, {"time": 2438, "pitch": 57, "duration": 4, "velocity": 90}, {"time": 2438, "pitch": 62, "duration": 4, "velocity": 99}, {"time": 2438, "pitch": 66, "duration": 4, "velocity": 100}, {"time": 2444, "pitch": 57, "duration": 2, "velocity": 92}, {"time": 2444, "pitch": 62, "duration": 2, "velocity": 96}, {"time": 2444, "pitch": 66, "duration": 2, "velocity": 99}, {"time": 2447, "pitch": 52, "duration": 6, "velocity": 112}, {"time": 2450, "pitch": 59, "duration": 1, "velocity": 89}, {"time": 2450, "pitch": 64, "duration": 1, "velocity": 100}, {"time": 2450, "pitch": 68, "duration": 1, "velocity": 99}, {"time": 2453, "pitch": 59, "duration": 6, "velocity": 100}, {"time": 2453, "pitch": 64, "duration": 4, "velocity": 112}, {"time": 2453, "pitch": 68, "duration": 4, "velocity": 112}, {"time": 2459, "pitch": 42, "duration": 7, "velocity": 95}, {"time": 2465, "pitch": 57, "duration": 6, "velocity": 96}, {"time": 2465, "pitch": 61, "duration": 6, "velocity": 117}, {"time": 2465, "pitch": 66, "duration": 6, "velocity": 99}, {"time": 2468, "pitch": 42, "duration": 1, "velocity": 36}, {"time": 2468, "pitch": 54, "duration": 1, "velocity": 69}, {"time": 2471, "pitch": 42, "duration": 8, "velocity": 78}, {"time": 2471, "pitch": 54, "duration": 6, "velocity": 83}, {"time": 2474, "pitch": 57, "duration": 4, "velocity": 92}, {"time": 2474, "pitch": 61, "duration": 4, "velocity": 122}, {"time": 2474, "pitch": 66, "duration": 4, "velocity": 100}, {"time": 2480, "pitch": 57, "duration": 2, "velocity": 96}, {"time": 2480, "pitch": 61, "duration": 2, "velocity": 122}, {"time": 2480, "pitch": 66, "duration": 3, "velocity": 99}, {"time": 2483, "pitch": 49, "duration": 7, "velocity": 82}, {"time": 2489, "pitch": 61, "duration": 6, "velocity": 112}, {"time": 2489, "pitch": 64, "duration": 6, "velocity": 112}, {"time": 2489, "pitch": 68, "duration": 6, "velocity": 112}, {"time": 2492, "pitch": 49, "duration": 1, "velocity": 63}, {"time": 2495, "pitch": 49, "duration": 5, "velocity": 95}, {"time": 2498, "pitch": 61, "duration": 4, "velocity": 102}, {"time": 2498, "pitch": 64, "duration": 2, "velocity": 100}, {"time": 2498, "pitch": 68, "duration": 4, "velocity": 112}, {"time": 2501, "pitch": 49, "duration": 5, "velocity": 100}, {"time": 2501, "pitch": 64, "duration": 1, "velocity": 21}, {"time": 2504, "pitch": 61, "duration": 3, "velocity": 102}, {"time": 2504, "pitch": 64, "duration": 1, "velocity": 90}, {"time": 2504, "pitch": 68, "duration": 2, "velocity": 96}, {"time": 2507, "pitch": 47, "duration": 7, "velocity": 96}, {"time": 2513, "pitch": 59, "duration": 5, "velocity": 93}, {"time": 2513, "pitch": 62, "duration": 4, "velocity": 97}, {"time": 2513, "pitch": 66, "duration": 4, "velocity": 107}, {"time": 2516, "pitch": 47, "duration": 2, "velocity": 95}, {"time": 2519, "pitch": 45, "duration": 9, "velocity": 86}, {"time": 2522, "pitch": 57, "duration": 4, "velocity": 92}, {"time": 2522, "pitch": 61, "duration": 4, "velocity": 99}, {"time": 2522, "pitch": 64, "duration": 4, "velocity": 90}, {"time": 2528, "pitch": 57, "duration": 3, "velocity": 90}, {"time": 2528, "pitch": 61, "duration": 2, "velocity": 102}, {"time": 2528, "pitch": 64, "duration": 2, "velocity": 89}, {"time": 2531, "pitch": 44, "duration": 8, "velocity": 96}, {"time": 2534, "pitch": 52, "duration": 5, "velocity": 82}, {"time": 2534, "pitch": 56, "duration": 5, "velocity": 95}, {"time": 2534, "pitch": 59, "duration": 5, "velocity": 90}, {"time": 2540, "pitch": 52, "duration": 1, "velocity": 81}, {"time": 2540, "pitch": 56, "duration": 1, "velocity": 97}, {"time": 2540, "pitch": 59, "duration": 1, "velocity": 88}, {"time": 2543, "pitch": 42, "duration": 9, "velocity": 88}, {"time": 2546, "pitch": 54, "duration": 3, "velocity": 37}, {"time": 2546, "pitch": 57, "duration": 1, "velocity": 69}, {"time": 2546, "pitch": 58, "duration": 1, "velocity": 41}, {"time": 2546, "pitch": 61, "duration": 3, "velocity": 90}, {"time": 2549, "pitch": 54, "duration": 2, "velocity": 66}, {"time": 2552, "pitch": 57, "duration": 2, "velocity": 90}, {"time": 2552, "pitch": 61, "duration": 2, "velocity": 102}, {"time": 2555, "pitch": 40, "duration": 7, "velocity": 92}, {"time": 2561, "pitch": 59, "duration": 6, "velocity": 83}, {"time": 2561, "pitch": 64, "duration": 6, "velocity": 95}, {"time": 2561, "pitch": 68, "duration": 6, "velocity": 96}, {"time": 2564, "pitch": 47, "duration": 1, "velocity": 75}, {"time": 2564, "pitch": 52, "duration": 1, "velocity": 66}, {"time": 2567, "pitch": 47, "duration": 10, "velocity": 76}, {"time": 2567, "pitch": 52, "duration": 9, "velocity": 64}, {"time": 2570, "pitch": 59, "duration": 4, "velocity": 85}, {"time": 2570, "pitch": 64, "duration": 4, "velocity": 95}, {"time": 2570, "pitch": 68, "duration": 4, "velocity": 97}, {"time": 2576, "pitch": 59, "duration": 3, "velocity": 85}, {"time": 2576, "pitch": 64, "duration": 2, "velocity": 95}, {"time": 2576, "pitch": 68, "duration": 3, "velocity": 97}, {"time": 2579, "pitch": 40, "duration": 6, "velocity": 59}, {"time": 2579, "pitch": 47, "duration": 7, "velocity": 70}, {"time": 2579, "pitch": 52, "duration": 7, "velocity": 95}, {"time": 2585, "pitch": 59, "duration": 5, "velocity": 78}, {"time": 2585, "pitch": 64, "duration": 5, "velocity": 93}, {"time": 2585, "pitch": 68, "duration": 5, "velocity": 96}, {"time": 2588, "pitch": 47, "duration": 1, "velocity": 89}, {"time": 2588, "pitch": 52, "duration": 1, "velocity": 79}, {"time": 2591, "pitch": 40, "duration": 8, "velocity": 76}, {"time": 2591, "pitch": 47, "duration": 8, "velocity": 86}, {"time": 2591, "pitch": 52, "duration": 9, "velocity": 90}, {"time": 2594, "pitch": 59, "duration": 4, "velocity": 81}, {"time": 2594, "pitch": 64, "duration": 4, "velocity": 99}, {"time": 2594, "pitch": 68, "duration": 4, "velocity": 97}, {"time": 2600, "pitch": 59, "duration": 3, "velocity": 83}, {"time": 2600, "pitch": 64, "duration": 2, "velocity": 95}, {"time": 2600, "pitch": 68, "duration": 3, "velocity": 99}, {"time": 2603, "pitch": 45, "duration": 7, "velocity": 70}, {"time": 2609, "pitch": 57, "duration": 3, "velocity": 93}, {"time": 2609, "pitch": 61, "duration": 3, "velocity": 117}, {"time": 2609, "pitch": 64, "duration": 4, "velocity": 96}, {"time": 2612, "pitch": 52, "duration": 1, "velocity": 86}, {"time": 2615, "pitch": 52, "duration": 4, "velocity": 102}, {"time": 2618, "pitch": 57, "duration": 4, "velocity": 95}, {"time": 2618, "pitch": 61, "duration": 4, "velocity": 117}, {"time": 2618, "pitch": 64, "duration": 4, "velocity": 95}, {"time": 2624, "pitch": 57, "duration": 3, "velocity": 92}, {"time": 2624, "pitch": 61, "duration": 2, "velocity": 117}, {"time": 2624, "pitch": 64, "duration": 2, "velocity": 86}, {"time": 2627, "pitch": 50, "duration": 6, "velocity": 95}, {"time": 2633, "pitch": 57, "duration": 5, "velocity": 95}, {"time": 2633, "pitch": 62, "duration": 5, "velocity": 102}, {"time": 2633, "pitch": 66, "duration": 6, "velocity": 102}, {"time": 2636, "pitch": 50, "duration": 1, "velocity": 92}, {"time": 2639, "pitch": 52, "duration": 7, "velocity": 122}, {"time": 2642, "pitch": 59, "duration": 3, "velocity": 99}, {"time": 2642, "pitch": 64, "duration": 4, "velocity": 97}, {"time": 2642, "pitch": 68, "duration": 3, "velocity": 107}, {"time": 2648, "pitch": 59, "duration": 3, "velocity": 97}, {"time": 2648, "pitch": 64, "duration": 2, "velocity": 117}, {"time": 2648, "pitch": 68, "duration": 3, "velocity": 112}, {"time": 2651, "pitch": 42, "duration": 10, "velocity": 117}, {"time": 2654, "pitch": 66, "duration": 1, "velocity": 33}, {"time": 2657, "pitch": 57, "duration": 3, "velocity": 102}, {"time": 2657, "pitch": 61, "duration": 3, "velocity": 127}, {"time": 2657, "pitch": 66, "duration": 3, "velocity": 122}, {"time": 2660, "pitch": 57, "duration": 1, "velocity": 90}, {"time": 2660, "pitch": 61, "duration": 1, "velocity": 92}, {"time": 2660, "pitch": 66, "duration": 1, "velocity": 96}, {"time": 2663, "pitch": 42, "duration": 8, "velocity": 66}, {"time": 2663, "pitch": 54, "duration": 8, "velocity": 66}, {"time": 2666, "pitch": 57, "duration": 4, "velocity": 95}, {"time": 2666, "pitch": 61, "duration": 4, "velocity": 122}, {"time": 2666, "pitch": 66, "duration": 4, "velocity": 100}, {"time": 2672, "pitch": 57, "duration": 2, "velocity": 97}, {"time": 2672, "pitch": 61, "duration": 2, "velocity": 122}, {"time": 2672, "pitch": 66, "duration": 2, "velocity": 107}, {"time": 2675, "pitch": 49, "duration": 6, "velocity": 88}, {"time": 2681, "pitch": 61, "duration": 5, "velocity": 112}, {"time": 2681, "pitch": 64, "duration": 4, "velocity": 107}, {"time": 2681, "pitch": 68, "duration": 4, "velocity": 107}, {"time": 2684, "pitch": 49, "duration": 1, "velocity": 39}, {"time": 2684, "pitch": 56, "duration": 1, "velocity": 85}, {"time": 2687, "pitch": 49, "duration": 7, "velocity": 92}, {"time": 2687, "pitch": 56, "duration": 5, "velocity": 93}, {"time": 2690, "pitch": 61, "duration": 4, "velocity": 102}, {"time": 2690, "pitch": 64, "duration": 4, "velocity": 112}, {"time": 2690, "pitch": 68, "duration": 4, "velocity": 122}, {"time": 2696, "pitch": 61, "duration": 2, "velocity": 102}, {"time": 2696, "pitch": 64, "duration": 1, "velocity": 93}, {"time": 2696, "pitch": 68, "duration": 2, "velocity": 117}, {"time": 2699, "pitch": 47, "duration": 7, "velocity": 88}, {"time": 2705, "pitch": 59, "duration": 6, "velocity": 97}, {"time": 2705, "pitch": 62, "duration": 5, "velocity": 122}, {"time": 2705, "pitch": 66, "duration": 5, "velocity": 117}, {"time": 2708, "pitch": 47, "duration": 2, "velocity": 89}, {"time": 2711, "pitch": 45, "duration": 9, "velocity": 85}, {"time": 2717, "pitch": 61, "duration": 5, "velocity": 127}, {"time": 2717, "pitch": 64, "duration": 5, "velocity": 102}, {"time": 2720, "pitch": 57, "duration": 3, "velocity": 90}, {"time": 2723, "pitch": 44, "duration": 7, "velocity": 100}, {"time": 2729, "pitch": 52, "duration": 3, "velocity": 86}, {"time": 2729, "pitch": 56, "duration": 3, "velocity": 96}, {"time": 2729, "pitch": 59, "duration": 3, "velocity": 89}, {"time": 2732, "pitch": 44, "duration": 2, "velocity": 107}, {"time": 2735, "pitch": 42, "duration": 9, "velocity": 100}, {"time": 2738, "pitch": 54, "duration": 5, "velocity": 89}, {"time": 2741, "pitch": 61, "duration": 6, "velocity": 127}, {"time": 2741, "pitch": 66, "duration": 6, "velocity": 122}, {"time": 2744, "pitch": 57, "duration": 3, "velocity": 89}, {"time": 2747, "pitch": 50, "duration": 7, "velocity": 93}, {"time": 2753, "pitch": 57, "duration": 4, "velocity": 90}, {"time": 2753, "pitch": 62, "duration": 6, "velocity": 99}, {"time": 2753, "pitch": 66, "duration": 6, "velocity": 99}, {"time": 2756, "pitch": 50, "duration": 1, "velocity": 93}, {"time": 2759, "pitch": 50, "duration": 5, "velocity": 95}, {"time": 2762, "pitch": 57, "duration": 4, "velocity": 99}, {"time": 2762, "pitch": 62, "duration": 4, "velocity": 102}, {"time": 2762, "pitch": 66, "duration": 4, "velocity": 107}, {"time": 2768, "pitch": 57, "duration": 2, "velocity": 99}, {"time": 2768, "pitch": 62, "duration": 2, "velocity": 100}, {"time": 2768, "pitch": 66, "duration": 2, "velocity": 99}, {"time": 2771, "pitch": 40, "duration": 6, "velocity": 59}, {"time": 2771, "pitch": 47, "duration": 7, "velocity": 85}, {"time": 2771, "pitch": 52, "duration": 7, "velocity": 88}, {"time": 2777, "pitch": 59, "duration": 7, "velocity": 96}, {"time": 2777, "pitch": 64, "duration": 7, "velocity": 112}, {"time": 2777, "pitch": 68, "duration": 7, "velocity": 112}, {"time": 2780, "pitch": 47, "duration": 1, "velocity": 88}, {"time": 2780, "pitch": 52, "duration": 1, "velocity": 85}, {"time": 2783, "pitch": 47, "duration": 10, "velocity": 86}, {"time": 2783, "pitch": 52, "duration": 10, "velocity": 85}, {"time": 2786, "pitch": 59, "duration": 4, "velocity": 95}, {"time": 2786, "pitch": 64, "duration": 4, "velocity": 100}, {"time": 2786, "pitch": 68, "duration": 4, "velocity": 102}, {"time": 2792, "pitch": 59, "duration": 2, "velocity": 96}, {"time": 2792, "pitch": 64, "duration": 2, "velocity": 102}, {"time": 2792, "pitch": 68, "duration": 2, "velocity": 102}, {"time": 2795, "pitch": 45, "duration": 8, "velocity": 97}, {"time": 2801, "pitch": 57, "duration": 6, "velocity": 93}, {"time": 2801, "pitch": 61, "duration": 6, "velocity": 107}, {"time": 2801, "pitch": 64, "duration": 6, "velocity": 89}, {"time": 2804, "pitch": 52, "duration": 1, "velocity": 99}, {"time": 2807, "pitch": 52, "duration": 10, "velocity": 99}, {"time": 2810, "pitch": 57, "duration": 4, "velocity": 92}, {"time": 2810, "pitch": 61, "duration": 4, "velocity": 107}, {"time": 2810, "pitch": 64, "duration": 4, "velocity": 92}, {"time": 2816, "pitch": 57, "duration": 3, "velocity": 86}, {"time": 2816, "pitch": 61, "duration": 3, "velocity": 107}, {"time": 2816, "pitch": 64, "duration": 2, "velocity": 86}, {"time": 2819, "pitch": 50, "duration": 9, "velocity": 96}, {"time": 2822, "pitch": 57, "duration": 4, "velocity": 90}, {"time": 2822, "pitch": 62, "duration": 4, "velocity": 99}, {"time": 2822, "pitch": 66, "duration": 4, "velocity": 100}, {"time": 2828, "pitch": 57, "duration": 2, "velocity": 92}, {"time": 2828, "pitch": 62, "duration": 2, "velocity": 96}, {"time": 2828, "pitch": 66, "duration": 2, "velocity": 99}, {"time": 2831, "pitch": 52, "duration": 6, "velocity": 112}, {"time": 2834, "pitch": 59, "duration": 1, "velocity": 89}, {"time": 2834, "pitch": 64, "duration": 1, "velocity": 100}, {"time": 2834, "pitch": 68, "duration": 1, "velocity": 99}, {"time": 2837, "pitch": 59, "duration": 6, "velocity": 100}, {"time": 2837, "pitch": 64, "duration": 4, "velocity": 112}, {"time": 2837, "pitch": 68, "duration": 4, "velocity": 112}, {"time": 2843, "pitch": 42, "duration": 7, "velocity": 95}, {"time": 2849, "pitch": 57, "duration": 6, "velocity": 96}, {"time": 2849, "pitch": 61, "duration": 6, "velocity": 117}, {"time": 2849, "pitch": 66, "duration": 6, "velocity": 99}, {"time": 2852, "pitch": 42, "duration": 1, "velocity": 36}, {"time": 2852, "pitch": 54, "duration": 1, "velocity": 69}, {"time": 2855, "pitch": 42, "duration": 8, "velocity": 78}, {"time": 2855, "pitch": 54, "duration": 6, "velocity": 83}, {"time": 2858, "pitch": 57, "duration": 4, "velocity": 92}, {"time": 2858, "pitch": 61, "duration": 4, "velocity": 122}, {"time": 2858, "pitch": 66, "duration": 4, "velocity": 100}, {"time": 2864, "pitch": 57, "duration": 2, "velocity": 96}, {"time": 2864, "pitch": 61, "duration": 2, "velocity": 122}, {"time": 2864, "pitch": 66, "duration": 3, "velocity": 99}, {"time": 2867, "pitch": 49, "duration": 7, "velocity": 82}, {"time": 2873, "pitch": 61, "duration": 6, "velocity": 112}, {"time": 2873, "pitch": 64, "duration": 6, "velocity": 112}, {"time": 2873, "pitch": 68, "duration": 6, "velocity": 112}, {"time": 2876, "pitch": 49, "duration": 1, "velocity": 63}, {"time": 2879, "pitch": 49, "duration": 5, "velocity": 95}, {"time": 2882, "pitch": 61, "duration": 4, "velocity": 102}, {"time": 2882, "pitch": 64, "duration": 2, "velocity": 100}, {"time": 2882, "pitch": 68, "duration": 4, "velocity": 112}, {"time": 2885, "pitch": 49, "duration": 5, "velocity": 100}, {"time": 2885, "pitch": 64, "duration": 1, "velocity": 21}, {"time": 2888, "pitch": 61, "duration": 3, "velocity": 102}, {"time": 2888, "pitch": 64, "duration": 1, "velocity": 90}, {"time": 2888, "pitch": 68, "duration": 2, "velocity": 96}, {"time": 2891, "pitch": 47, "duration": 7, "velocity": 96}, {"time": 2897, "pitch": 59, "duration": 5, "velocity": 93}, {"time": 2897, "pitch": 62, "duration": 4, "velocity": 97}, {"time": 2897, "pitch": 66, "duration": 4, "velocity": 107}, {"time": 2900, "pitch": 47, "duration": 2, "velocity": 95}, {"time": 2903, "pitch": 45, "duration": 9, "velocity": 86}, {"time": 2906, "pitch": 57, "duration": 4, "velocity": 92}, {"time": 2906, "pitch": 61, "duration": 4, "velocity": 99}, {"time": 2906, "pitch": 64, "duration": 4, "velocity": 90}, {"time": 2912, "pitch": 57, "duration": 3, "velocity": 90}, {"time": 2912, "pitch": 61, "duration": 2, "velocity": 102}, {"time": 2912, "pitch": 64, "duration": 2, "velocity": 89}, {"time": 2915, "pitch": 44, "duration": 8, "velocity": 96}, {"time": 2918, "pitch": 52, "duration": 5, "velocity": 82}, {"time": 2918, "pitch": 56, "duration": 5, "velocity": 95}, {"time": 2918, "pitch": 59, "duration": 5, "velocity": 90}, {"time": 2924, "pitch": 52, "duration": 1, "velocity": 81}, {"time": 2924, "pitch": 56, "duration": 1, "velocity": 97}, {"time": 2924, "pitch": 59, "duration": 1, "velocity": 88}, {"time": 2927, "pitch": 42, "duration": 9, "velocity": 88}, {"time": 2930, "pitch": 54, "duration": 3, "velocity": 37}, {"time": 2930, "pitch": 57, "duration": 1, "velocity": 69}, {"time": 2930, "pitch": 58, "duration": 1, "velocity": 41}, {"time": 2930, "pitch": 61, "duration": 3, "velocity": 90}, {"time": 2933, "pitch": 54, "duration": 2, "velocity": 66}, {"time": 2936, "pitch": 57, "duration": 2, "velocity": 90}, {"time": 2936, "pitch": 61, "duration": 2, "velocity": 102}, {"time": 2939, "pitch": 40, "duration": 7, "velocity": 92}, {"time": 2945, "pitch": 59, "duration": 6, "velocity": 83}, {"time": 2945, "pitch": 64, "duration": 6, "velocity": 95}, {"time": 2945, "pitch": 68, "duration": 6, "velocity": 96}, {"time": 2948, "pitch": 47, "duration": 1, "velocity": 75}, {"time": 2948, "pitch": 52, "duration": 1, "velocity": 66}, {"time": 2951, "pitch": 47, "duration": 10, "velocity": 76}, {"time": 2951, "pitch": 52, "duration": 9, "velocity": 64}, {"time": 2954, "pitch": 59, "duration": 4, "velocity": 85}, {"time": 2954, "pitch": 64, "duration": 4, "velocity": 95}, {"time": 2954, "pitch": 68, "duration": 4, "velocity": 97}, {"time": 2960, "pitch": 59, "duration": 3, "velocity": 85}, {"time": 2960, "pitch": 64, "duration": 2, "velocity": 95}, {"time": 2960, "pitch": 68, "duration": 3, "velocity": 97}, {"time": 2963, "pitch": 40, "duration": 6, "velocity": 59}, {"time": 2963, "pitch": 47, "duration": 7, "velocity": 70}, {"time": 2963, "pitch": 52, "duration": 7, "velocity": 95}, {"time": 2969, "pitch": 59, "duration": 5, "velocity": 78}, {"time": 2969, "pitch": 64, "duration": 5, "velocity": 93}, {"time": 2969, "pitch": 68, "duration": 5, "velocity": 96}, {"time": 2972, "pitch": 47, "duration": 1, "velocity": 89}, {"time": 2972, "pitch": 52, "duration": 1, "velocity": 79}, {"time": 2975, "pitch": 40, "duration": 8, "velocity": 76}, {"time": 2975, "pitch": 47, "duration": 8, "velocity": 86}, {"time": 2975, "pitch": 52, "duration": 9, "velocity": 90}, {"time": 2978, "pitch": 59, "duration": 4, "velocity": 81}, {"time": 2978, "pitch": 64, "duration": 4, "velocity": 99}, {"time": 2978, "pitch": 68, "duration": 4, "velocity": 97}, {"time": 2984, "pitch": 59, "duration": 3, "velocity": 83}, {"time": 2984, "pitch": 64, "duration": 2, "velocity": 95}, {"time": 2984, "pitch": 68, "duration": 3, "velocity": 99}, {"time": 2987, "pitch": 47, "duration": 7, "velocity": 107}, {"time": 2993, "pitch": 59, "duration": 6, "velocity": 92}, {"time": 2993, "pitch": 62, "duration": 6, "velocity": 100}, {"time": 2993, "pitch": 66, "duration": 6, "velocity": 102}, {"time": 2996, "pitch": 47, "duration": 1, "velocity": 99}, {"time": 2999, "pitch": 45, "duration": 7, "velocity": 97}, {"time": 3002, "pitch": 57, "duration": 4, "velocity": 95}, {"time": 3002, "pitch": 61, "duration": 4, "velocity": 107}, {"time": 3002, "pitch": 64, "duration": 4, "velocity": 97}, {"time": 3008, "pitch": 57, "duration": 3, "velocity": 90}, {"time": 3008, "pitch": 61, "duration": 2, "velocity": 99}, {"time": 3008, "pitch": 64, "duration": 2, "velocity": 89}, {"time": 3011, "pitch": 44, "duration": 7, "velocity": 97}, {"time": 3017, "pitch": 52, "duration": 3, "velocity": 83}, {"time": 3017, "pitch": 56, "duration": 3, "velocity": 96}, {"time": 3017, "pitch": 59, "duration": 4, "velocity": 92}, {"time": 3020, "pitch": 44, "duration": 1, "velocity": 102}, {"time": 3023, "pitch": 42, "duration": 11, "velocity": 100}, {"time": 3026, "pitch": 54, "duration": 7, "velocity": 90}, {"time": 3029, "pitch": 57, "duration": 5, "velocity": 88}, {"time": 3029, "pitch": 61, "duration": 5, "velocity": 112}, {"time": 3035, "pitch": 40, "duration": 18, "velocity": 89}, {"time": 3035, "pitch": 56, "duration": 19, "velocity": 102}, {"time": 3035, "pitch": 59, "duration": 20, "velocity": 99}, {"time": 3035, "pitch": 52, "duration": 19, "velocity": 99}, {"time": 3061, "pitch": 57, "duration": 34, "velocity": 97}, {"time": 3061, "pitch": 62, "duration": 34, "velocity": 102}, {"time": 3061, "pitch": 66, "duration": 34, "velocity": 117}, {"time": 3062, "pitch": 38, "duration": 35, "velocity": 93}, {"time": 3095, "pitch": 45, "duration": 22, "velocity": 96}, {"time": 3098, "pitch": 52, "duration": 10, "velocity": 82}, {"time": 3101, "pitch": 57, "duration": 7, "velocity": 72}, {"time": 3104, "pitch": 61, "duration": 3, "velocity": 96}, {"time": 3107, "pitch": 64, "duration": 12, "velocity": 102}, {"time": 3110, "pitch": 52, "duration": 9, "velocity": 55}, {"time": 3113, "pitch": 57, "duration": 5, "velocity": 67}, {"time": 3116, "pitch": 61, "duration": 4, "velocity": 88}, {"time": 3119, "pitch": 45, "duration": 13, "velocity": 83}, {"time": 3122, "pitch": 52, "duration": 7, "velocity": 83}, {"time": 3125, "pitch": 57, "duration": 3, "velocity": 93}, {"time": 3128, "pitch": 59, "duration": 4, "velocity": 100}, {"time": 3131, "pitch": 64, "duration": 11, "velocity": 96}, {"time": 3134, "pitch": 44, "duration": 8, "velocity": 99}, {"time": 3137, "pitch": 61, "duration": 6, "velocity": 117}, {"time": 3140, "pitch": 59, "duration": 3, "velocity": 72}, {"time": 3143, "pitch": 42, "duration": 21, "velocity": 88}, {"time": 3146, "pitch": 54, "duration": 5, "velocity": 74}, {"time": 3149, "pitch": 57, "duration": 7, "velocity": 86}, {"time": 3152, "pitch": 54, "duration": 4, "velocity": 74}, {"time": 3155, "pitch": 66, "duration": 17, "velocity": 122}, {"time": 3158, "pitch": 54, "duration": 7, "velocity": 74}, {"time": 3161, "pitch": 61, "duration": 9, "velocity": 122}, {"time": 3164, "pitch": 57, "duration": 6, "velocity": 88}, {"time": 3167, "pitch": 42, "duration": 11, "velocity": 102}, {"time": 3170, "pitch": 54, "duration": 3, "velocity": 83}, {"time": 3173, "pitch": 57, "duration": 6, "velocity": 90}, {"time": 3176, "pitch": 66, "duration": 5, "velocity": 127}, {"time": 3179, "pitch": 40, "duration": 11, "velocity": 93}, {"time": 3182, "pitch": 57, "duration": 4, "velocity": 73}, {"time": 3185, "pitch": 66, "duration": 6, "velocity": 100}, {"time": 3188, "pitch": 57, "duration": 4, "velocity": 90}, {"time": 3191, "pitch": 38, "duration": 22, "velocity": 77}, {"time": 3194, "pitch": 45, "duration": 22, "velocity": 59}, {"time": 3197, "pitch": 50, "duration": 6, "velocity": 95}, {"time": 3200, "pitch": 57, "duration": 4, "velocity": 83}, {"time": 3203, "pitch": 66, "duration": 20, "velocity": 127}, {"time": 3206, "pitch": 50, "duration": 12, "velocity": 71}, {"time": 3209, "pitch": 62, "duration": 15, "velocity": 85}, {"time": 3212, "pitch": 57, "duration": 10, "velocity": 90}, {"time": 3215, "pitch": 38, "duration": 21, "velocity": 72}, {"time": 3218, "pitch": 45, "duration": 21, "velocity": 63}, {"time": 3221, "pitch": 50, "duration": 7, "velocity": 88}, {"time": 3224, "pitch": 57, "duration": 9, "velocity": 77}, {"time": 3227, "pitch": 66, "duration": 10, "velocity": 127}, {"time": 3230, "pitch": 50, "duration": 3, "velocity": 71}, {"time": 3233, "pitch": 62, "duration": 6, "velocity": 85}, {"time": 3236, "pitch": 57, "duration": 3, "velocity": 86}, {"time": 3239, "pitch": 40, "duration": 21, "velocity": 86}, {"time": 3242, "pitch": 47, "duration": 21, "velocity": 53}, {"time": 3245, "pitch": 52, "duration": 6, "velocity": 86}, {"time": 3248, "pitch": 59, "duration": 5, "velocity": 83}, {"time": 3251, "pitch": 68, "duration": 11, "velocity": 127}, {"time": 3254, "pitch": 52, "duration": 3, "velocity": 90}, {"time": 3257, "pitch": 64, "duration": 6, "velocity": 77}, {"time": 3260, "pitch": 59, "duration": 3, "velocity": 82}, {"time": 3263, "pitch": 38, "duration": 44, "velocity": 82}, {"time": 3263, "pitch": 50, "duration": 4, "velocity": 88}, {"time": 3263, "pitch": 54, "duration": 7, "velocity": 90}, {"time": 3263, "pitch": 57, "duration": 11, "velocity": 77}, {"time": 3263, "pitch": 61, "duration": 10, "velocity": 81}, {"time": 3266, "pitch": 45, "duration": 41, "velocity": 62}, {"time": 3269, "pitch": 50, "duration": 37, "velocity": 93}, {"time": 3272, "pitch": 54, "duration": 7, "velocity": 93}, {"time": 3275, "pitch": 57, "duration": 4, "velocity": 74}, {"time": 3278, "pitch": 61, "duration": 1, "velocity": 55}, {"time": 3281, "pitch": 64, "duration": 3, "velocity": 85}, {"time": 3287, "pitch": 66, "duration": 1, "velocity": 66}, {"time": 3293, "pitch": 69, "duration": 1, "velocity": 68}, {"time": 3302, "pitch": 76, "duration": 5, "velocity": 66}, {"time": 3305, "pitch": 45, "duration": 2, "velocity": 93}, {"time": 3305, "pitch": 57, "duration": 9, "velocity": 78}, {"time": 3305, "pitch": 61, "duration": 16, "velocity": 96}, {"time": 3305, "pitch": 64, "duration": 14, "velocity": 96}, {"time": 3314, "pitch": 52, "duration": 56, "velocity": 61}, {"time": 3317, "pitch": 57, "duration": 53, "velocity": 79}, {"time": 3320, "pitch": 59, "duration": 5, "velocity": 71}, {"time": 3323, "pitch": 61, "duration": 3, "velocity": 70}, {"time": 3323, "pitch": 64, "duration": 1, "velocity": 70}, {"time": 3326, "pitch": 69, "duration": 5, "velocity": 72}, {"time": 3329, "pitch": 71, "duration": 3, "velocity": 55}, {"time": 3332, "pitch": 73, "duration": 3, "velocity": 78}, {"time": 3338, "pitch": 81, "duration": 6, "velocity": 58}, {"time": 3341, "pitch": 83, "duration": 4, "velocity": 48}, {"time": 3344, "pitch": 85, "duration": 4, "velocity": 81}, {"time": 3347, "pitch": 88, "duration": 1, "velocity": 64}, {"time": 3350, "pitch": 93, "duration": 1, "velocity": 73}], "annotations": [{"time": 11, "annotation": {"number": 64, "value": 127}, "group": "control_change"}, {"time": 57, "annotation": {"number": 64, "value": 0}, "group": "control_change"}, {"time": 59, "annotation": {"number": 64, "value": 127}, "group": "control_change"}, {"time": 105, "annotation": {"number": 64, "value": 0}, "group": "control_change"}, {"time": 108, "annotation": {"number": 64, "value": 127}, "group": "control_change"}, {"time": 129, "annotation": {"number": 64, "value": 0}, "group": "control_change"}, {"time": 133, "annotation": {"number": 64, "value": 127}, "group": "control_change"}, {"time": 153, "annotation": {"number": 64, "value": 0}, "group": "control_change"}, {"time": 154, "annotation": {"number": 64, "value": 127}, "group": "control_change"}, {"time": 201, "annotation": {"number": 64, "value": 0}, "group": "control_change"}, {"time": 203, "annotation": {"number": 64, "value": 127}, "group": "control_change"}, {"time": 224, "annotation": {"number": 64, "value": 0}, "group": "control_change"}, {"time": 226, "annotation": {"number": 64, "value": 127}, "group": "control_change"}, {"time": 249, "annotation": {"number": 64, "value": 0}, "group": "control_change"}, {"time": 253, "annotation": {"number": 64, "value": 127}, "group": "control_change"}, {"time": 286, "annotation": {"number": 64, "value": 0}, "group": "control_change"}, {"time": 299, "annotation": {"number": 64, "value": 127}, "group": "control_change"}, {"time": 344, "annotation": {"number": 64, "value": 0}, "group": "control_change"}, {"time": 348, "annotation": {"number": 64, "value": 127}, "group": "control_change"}, {"time": 392, "annotation": {"number": 64, "value": 0}, "group": "control_change"}, {"time": 396, "annotation": {"number": 64, "value": 0}, "group": "control_change"}, {"time": 396, "annotation": {"number": 64, "value": 127}, "group": "control_change"}, {"time": 439, "annotation": {"number": 64, "value": 0}, "group": "control_change"}, {"time": 450, "annotation": {"number": 64, "value": 127}, "group": "control_change"}, {"time": 450, "annotation": {"number": 64, "value": 0}, "group": "control_change"}, {"time": 451, "annotation": {"number": 64, "value": 0}, "group": "control_change"}, {"time": 578, "annotation": {"number": 64, "value": 127}, "group": "control_change"}, {"time": 586, "annotation": {"number": 64, "value": 0}, "group": "control_change"}, {"time": 592, "annotation": {"number": 64, "value": 127}, "group": "control_change"}, {"time": 606, "annotation": {"number": 64, "value": 0}, "group": "control_change"}, {"time": 675, "annotation": {"number": 64, "value": 127}, "group": "control_change"}, {"time": 680, "annotation": {"number": 64, "value": 0}, "group": "control_change"}, {"time": 746, "annotation": {"number": 64, "value": 127}, "group": "control_change"}, {"time": 752, "annotation": {"number": 64, "value": 0}, "group": "control_change"}, {"time": 795, "annotation": {"number": 64, "value": 127}, "group": "control_change"}, {"time": 799, "annotation": {"number": 64, "value": 0}, "group": "control_change"}, {"time": 839, "annotation": {"number": 64, "value": 127}, "group": "control_change"}, {"time": 845, "annotation": {"number": 64, "value": 0}, "group": "control_change"}, {"time": 866, "annotation": {"number": 64, "value": 127}, "group": "control_change"}, {"time": 866, "annotation": {"number": 64, "value": 0}, "group": "control_change"}, {"time": 873, "annotation": {"number": 64, "value": 0}, "group": "control_change"}, {"time": 991, "annotation": {"number": 64, "value": 127}, "group": "control_change"}, {"time": 994, "annotation": {"number": 64, "value": 0}, "group": "control_change"}, {"time": 1001, "annotation": {"number": 64, "value": 127}, "group": "control_change"}, {"time": 1015, "annotation": {"number": 64, "value": 0}, "group": "control_change"}, {"time": 1026, "annotation": {"number": 64, "value": 127}, "group": "control_change"}, {"time": 1028, "annotation": {"number": 64, "value": 0}, "group": "control_change"}, {"time": 1596, "annotation": {"number": 64, "value": 127}, "group": "control_change"}, {"time": 1616, "annotation": {"number": 64, "value": 0}, "group": "control_change"}, {"time": 1621, "annotation": {"number": 64, "value": 127}, "group": "control_change"}, {"time": 1624, "annotation": {"number": 64, "value": 0}, "group": "control_change"}, {"time": 1643, "annotation": {"number": 64, "value": 127}, "group": "control_change"}, {"time": 1665, "annotation": {"number": 64, "value": 0}, "group": "control_change"}, {"time": 1666, "annotation": {"number": 64, "value": 127}, "group": "control_change"}, {"time": 1689, "annotation": {"number": 64, "value": 0}, "group": "control_change"}, {"time": 1692, "annotation": {"number": 64, "value": 127}, "group": "control_change"}, {"time": 1712, "annotation": {"number": 64, "value": 0}, "group": "control_change"}, {"time": 1715, "annotation": {"number": 64, "value": 127}, "group": "control_change"}, {"time": 1736, "annotation": {"number": 64, "value": 0}, "group": "control_change"}, {"time": 1740, "annotation": {"number": 64, "value": 127}, "group": "control_change"}, {"time": 1760, "annotation": {"number": 64, "value": 0}, "group": "control_change"}, {"time": 1764, "annotation": {"number": 64, "value": 127}, "group": "control_change"}, {"time": 1783, "annotation": {"number": 64, "value": 0}, "group": "control_change"}, {"time": 1787, "annotation": {"number": 64, "value": 127}, "group": "control_change"}, {"time": 1808, "annotation": {"number": 64, "value": 0}, "group": "control_change"}, {"time": 1847, "annotation": {"number": 64, "value": 127}, "group": "control_change"}, {"time": 1853, "annotation": {"number": 64, "value": 0}, "group": "control_change"}, {"time": 1874, "annotation": {"number": 64, "value": 127}, "group": "control_change"}, {"time": 1874, "annotation": {"number": 64, "value": 0}, "group": "control_change"}, {"time": 1881, "annotation": {"number": 64, "value": 0}, "group": "control_change"}, {"time": 1999, "annotation": {"number": 64, "value": 127}, "group": "control_change"}, {"time": 2002, "annotation": {"number": 64, "value": 0}, "group": "control_change"}, {"time": 2009, "annotation": {"number": 64, "value": 127}, "group": "control_change"}, {"time": 2023, "annotation": {"number": 64, "value": 0}, "group": "control_change"}, {"time": 2034, "annotation": {"number": 64, "value": 127}, "group": "control_change"}, {"time": 2036, "annotation": {"number": 64, "value": 0}, "group": "control_change"}, {"time": 3004, "annotation": {"number": 64, "value": 127}, "group": "control_change"}, {"time": 3008, "annotation": {"number": 64, "value": 0}, "group": "control_change"}, {"time": 3102, "annotation": {"number": 64, "value": 127}, "group": "control_change"}, {"time": 3116, "annotation": {"number": 64, "value": 0}, "group": "control_change"}, {"time": 3120, "annotation": {"number": 64, "value": 127}, "group": "control_change"}, {"time": 3133, "annotation": {"number": 64, "value": 0}, "group": "control_change"}, {"time": 3143, "annotation": {"number": 64, "value": 127}, "group": "control_change"}, {"time": 3177, "annotation": {"number": 64, "value": 0}, "group": "control_change"}, {"time": 3193, "annotation": {"number": 64, "value": 127}, "group": "control_change"}, {"time": 3236, "annotation": {"number": 64, "value": 0}, "group": "control_change"}, {"time": 3241, "annotation": {"number": 64, "value": 127}, "group": "control_change"}, {"time": 3261, "annotation": {"number": 64, "value": 0}, "group": "control_change"}, {"time": 3264, "annotation": {"number": 64, "value": 127}, "group": "control_change"}, {"time": 3311, "annotation": {"number": 64, "value": 0}, "group": "control_change"}, {"time": 3312, "annotation": {"number": 64, "value": 127}, "group": "control_change"}, {"time": 3405, "annotation": {"number": 64, "value": 0}, "group": "control_change"}, {"time": 3406, "annotation": {"number": 64, "value": 127}, "group": "control_change"}, {"time": 3407, "annotation": {"number": 64, "value": 0}, "group": "control_change"}, {"time": 3408, "annotation": {"number": 64, "value": 127}, "group": "control_change"}, {"time": 3410, "annotation": {"number": 64, "value": 0}, "group": "control_change"}]}]}