{"metadata": {"schema_version": "0.2", "title": "None", "source_filename": "087.mid", "source_format": "midi"}, "resolution": 12, "tempos": [{"time": 0, "qpm": 73.00007178340392}], "time_signatures": [{"time": 0, "numerator": 1, "denominator": 4}], "tracks": [{"program": 0, "is_drum": false, "name": "MELODY", "notes": [{"time": 215, "pitch": 71, "duration": 4, "velocity": 107}, {"time": 218, "pitch": 69, "duration": 2, "velocity": 107}, {"time": 221, "pitch": 71, "duration": 4, "velocity": 107}, {"time": 224, "pitch": 69, "duration": 4, "velocity": 107}, {"time": 227, "pitch": 71, "duration": 6, "velocity": 107}, {"time": 233, "pitch": 69, "duration": 4, "velocity": 107}, {"time": 236, "pitch": 71, "duration": 4, "velocity": 107}, {"time": 242, "pitch": 74, "duration": 6, "velocity": 107}, {"time": 251, "pitch": 73, "duration": 5, "velocity": 107}, {"time": 257, "pitch": 71, "duration": 4, "velocity": 107}, {"time": 260, "pitch": 69, "duration": 16, "velocity": 107}, {"time": 311, "pitch": 71, "duration": 4, "velocity": 107}, {"time": 314, "pitch": 69, "duration": 2, "velocity": 107}, {"time": 317, "pitch": 71, "duration": 2, "velocity": 107}, {"time": 320, "pitch": 69, "duration": 3, "velocity": 107}, {"time": 323, "pitch": 71, "duration": 7, "velocity": 107}, {"time": 329, "pitch": 69, "duration": 4, "velocity": 107}, {"time": 332, "pitch": 71, "duration": 7, "velocity": 107}, {"time": 341, "pitch": 74, "duration": 7, "velocity": 107}, {"time": 347, "pitch": 76, "duration": 6, "velocity": 107}, {"time": 353, "pitch": 78, "duration": 6, "velocity": 107}, {"time": 359, "pitch": 73, "duration": 11, "velocity": 107}, {"time": 395, "pitch": 71, "duration": 5, "velocity": 107}, {"time": 401, "pitch": 73, "duration": 4, "velocity": 107}, {"time": 407, "pitch": 74, "duration": 15, "velocity": 107}, {"time": 419, "pitch": 83, "duration": 7, "velocity": 107}, {"time": 425, "pitch": 81, "duration": 4, "velocity": 107}, {"time": 428, "pitch": 78, "duration": 7, "velocity": 107}, {"time": 438, "pitch": 76, "duration": 18, "velocity": 107}, {"time": 455, "pitch": 76, "duration": 1, "velocity": 107}, {"time": 467, "pitch": 81, "duration": 6, "velocity": 107}, {"time": 473, "pitch": 78, "duration": 2, "velocity": 107}, {"time": 476, "pitch": 76, "duration": 6, "velocity": 107}, {"time": 482, "pitch": 74, "duration": 12, "velocity": 107}, {"time": 503, "pitch": 71, "duration": 9, "velocity": 107}, {"time": 515, "pitch": 78, "duration": 7, "velocity": 107}, {"time": 521, "pitch": 73, "duration": 13, "velocity": 107}, {"time": 539, "pitch": 69, "duration": 6, "velocity": 107}, {"time": 545, "pitch": 71, "duration": 2, "velocity": 107}, {"time": 548, "pitch": 71, "duration": 9, "velocity": 107}, {"time": 599, "pitch": 71, "duration": 3, "velocity": 107}, {"time": 602, "pitch": 69, "duration": 3, "velocity": 107}, {"time": 605, "pitch": 71, "duration": 4, "velocity": 107}, {"time": 608, "pitch": 69, "duration": 3, "velocity": 107}, {"time": 611, "pitch": 71, "duration": 7, "velocity": 107}, {"time": 617, "pitch": 69, "duration": 5, "velocity": 107}, {"time": 620, "pitch": 71, "duration": 5, "velocity": 107}, {"time": 626, "pitch": 74, "duration": 9, "velocity": 107}, {"time": 635, "pitch": 73, "duration": 6, "velocity": 107}, {"time": 641, "pitch": 71, "duration": 4, "velocity": 107}, {"time": 644, "pitch": 69, "duration": 38, "velocity": 107}, {"time": 695, "pitch": 71, "duration": 4, "velocity": 107}, {"time": 698, "pitch": 69, "duration": 3, "velocity": 107}, {"time": 701, "pitch": 71, "duration": 4, "velocity": 107}, {"time": 704, "pitch": 69, "duration": 4, "velocity": 108}, {"time": 707, "pitch": 71, "duration": 6, "velocity": 108}, {"time": 713, "pitch": 69, "duration": 5, "velocity": 108}, {"time": 716, "pitch": 71, "duration": 6, "velocity": 108}, {"time": 722, "pitch": 74, "duration": 8, "velocity": 112}, {"time": 731, "pitch": 76, "duration": 6, "velocity": 112}, {"time": 737, "pitch": 78, "duration": 4, "velocity": 112}, {"time": 744, "pitch": 73, "duration": 20, "velocity": 112}, {"time": 779, "pitch": 71, "duration": 5, "velocity": 110}, {"time": 785, "pitch": 73, "duration": 4, "velocity": 110}, {"time": 791, "pitch": 74, "duration": 7, "velocity": 110}, {"time": 803, "pitch": 83, "duration": 7, "velocity": 110}, {"time": 809, "pitch": 81, "duration": 2, "velocity": 110}, {"time": 812, "pitch": 78, "duration": 6, "velocity": 109}, {"time": 818, "pitch": 76, "duration": 17, "velocity": 109}, {"time": 839, "pitch": 76, "duration": 9, "velocity": 109}, {"time": 851, "pitch": 81, "duration": 6, "velocity": 109}, {"time": 857, "pitch": 78, "duration": 2, "velocity": 109}, {"time": 860, "pitch": 76, "duration": 6, "velocity": 109}, {"time": 866, "pitch": 74, "duration": 18, "velocity": 109}, {"time": 887, "pitch": 71, "duration": 10, "velocity": 109}, {"time": 899, "pitch": 78, "duration": 5, "velocity": 109}, {"time": 908, "pitch": 73, "duration": 9, "velocity": 110}, {"time": 923, "pitch": 69, "duration": 5, "velocity": 110}, {"time": 926, "pitch": 71, "duration": 5, "velocity": 110}, {"time": 932, "pitch": 71, "duration": 23, "velocity": 110}, {"time": 971, "pitch": 74, "duration": 5, "velocity": 111}, {"time": 977, "pitch": 73, "duration": 5, "velocity": 111}, {"time": 983, "pitch": 71, "duration": 10, "velocity": 111}, {"time": 995, "pitch": 83, "duration": 7, "velocity": 111}, {"time": 1007, "pitch": 81, "duration": 6, "velocity": 108}, {"time": 1013, "pitch": 76, "duration": 3, "velocity": 112}, {"time": 1016, "pitch": 78, "duration": 4, "velocity": 112}, {"time": 1022, "pitch": 79, "duration": 6, "velocity": 112}, {"time": 1031, "pitch": 78, "duration": 4, "velocity": 112}, {"time": 1037, "pitch": 79, "duration": 4, "velocity": 112}, {"time": 1043, "pitch": 78, "duration": 5, "velocity": 112}, {"time": 1046, "pitch": 76, "duration": 7, "velocity": 112}, {"time": 1055, "pitch": 74, "duration": 11, "velocity": 112}, {"time": 1067, "pitch": 74, "duration": 5, "velocity": 112}, {"time": 1073, "pitch": 73, "duration": 5, "velocity": 112}, {"time": 1079, "pitch": 71, "duration": 10, "velocity": 112}, {"time": 1091, "pitch": 83, "duration": 10, "velocity": 112}, {"time": 1103, "pitch": 81, "duration": 5, "velocity": 112}, {"time": 1109, "pitch": 76, "duration": 2, "velocity": 112}, {"time": 1112, "pitch": 78, "duration": 2, "velocity": 112}, {"time": 1118, "pitch": 79, "duration": 6, "velocity": 112}, {"time": 1127, "pitch": 78, "duration": 18, "velocity": 112}, {"time": 1163, "pitch": 74, "duration": 5, "velocity": 112}, {"time": 1169, "pitch": 73, "duration": 5, "velocity": 112}, {"time": 1175, "pitch": 71, "duration": 9, "velocity": 112}, {"time": 1187, "pitch": 81, "duration": 9, "velocity": 112}, {"time": 1199, "pitch": 79, "duration": 5, "velocity": 112}, {"time": 1205, "pitch": 76, "duration": 2, "velocity": 112}, {"time": 1208, "pitch": 78, "duration": 4, "velocity": 112}, {"time": 1214, "pitch": 79, "duration": 6, "velocity": 112}, {"time": 1223, "pitch": 81, "duration": 7, "velocity": 112}, {"time": 1229, "pitch": 78, "duration": 2, "velocity": 112}, {"time": 1232, "pitch": 81, "duration": 4, "velocity": 112}, {"time": 1238, "pitch": 85, "duration": 5, "velocity": 112}, {"time": 1247, "pitch": 86, "duration": 12, "velocity": 112}, {"time": 1259, "pitch": 83, "duration": 7, "velocity": 112}, {"time": 1265, "pitch": 81, "duration": 4, "velocity": 112}, {"time": 1268, "pitch": 76, "duration": 12, "velocity": 112}, {"time": 1283, "pitch": 83, "duration": 7, "velocity": 112}, {"time": 1289, "pitch": 81, "duration": 4, "velocity": 112}, {"time": 1292, "pitch": 76, "duration": 13, "velocity": 112}, {"time": 1307, "pitch": 73, "duration": 6, "velocity": 112}, {"time": 1313, "pitch": 74, "duration": 4, "velocity": 112}, {"time": 1316, "pitch": 73, "duration": 11, "velocity": 112}, {"time": 1325, "pitch": 71, "duration": 28, "velocity": 112}, {"time": 1751, "pitch": 71, "duration": 3, "velocity": 108}, {"time": 1754, "pitch": 69, "duration": 3, "velocity": 108}, {"time": 1757, "pitch": 71, "duration": 4, "velocity": 108}, {"time": 1760, "pitch": 69, "duration": 3, "velocity": 108}, {"time": 1763, "pitch": 71, "duration": 7, "velocity": 108}, {"time": 1769, "pitch": 69, "duration": 5, "velocity": 108}, {"time": 1772, "pitch": 71, "duration": 5, "velocity": 108}, {"time": 1778, "pitch": 74, "duration": 9, "velocity": 108}, {"time": 1787, "pitch": 73, "duration": 6, "velocity": 109}, {"time": 1793, "pitch": 71, "duration": 4, "velocity": 109}, {"time": 1796, "pitch": 69, "duration": 38, "velocity": 109}, {"time": 1847, "pitch": 71, "duration": 4, "velocity": 109}, {"time": 1850, "pitch": 69, "duration": 3, "velocity": 109}, {"time": 1853, "pitch": 71, "duration": 4, "velocity": 109}, {"time": 1856, "pitch": 69, "duration": 4, "velocity": 109}, {"time": 1859, "pitch": 71, "duration": 6, "velocity": 109}, {"time": 1865, "pitch": 69, "duration": 5, "velocity": 109}, {"time": 1868, "pitch": 71, "duration": 6, "velocity": 109}, {"time": 1874, "pitch": 74, "duration": 8, "velocity": 109}, {"time": 1883, "pitch": 76, "duration": 6, "velocity": 109}, {"time": 1889, "pitch": 78, "duration": 4, "velocity": 109}, {"time": 1896, "pitch": 73, "duration": 20, "velocity": 109}, {"time": 1931, "pitch": 71, "duration": 5, "velocity": 109}, {"time": 1937, "pitch": 73, "duration": 4, "velocity": 108}, {"time": 1943, "pitch": 74, "duration": 7, "velocity": 108}, {"time": 1955, "pitch": 83, "duration": 7, "velocity": 106}, {"time": 1961, "pitch": 81, "duration": 2, "velocity": 105}, {"time": 1964, "pitch": 78, "duration": 6, "velocity": 105}, {"time": 1970, "pitch": 76, "duration": 17, "velocity": 104}, {"time": 1991, "pitch": 76, "duration": 9, "velocity": 101}, {"time": 2003, "pitch": 81, "duration": 6, "velocity": 98}, {"time": 2009, "pitch": 78, "duration": 2, "velocity": 97}, {"time": 2012, "pitch": 76, "duration": 6, "velocity": 96}, {"time": 2018, "pitch": 74, "duration": 18, "velocity": 96}, {"time": 2039, "pitch": 71, "duration": 10, "velocity": 99}, {"time": 2051, "pitch": 78, "duration": 5, "velocity": 99}, {"time": 2060, "pitch": 73, "duration": 9, "velocity": 99}, {"time": 2075, "pitch": 69, "duration": 5, "velocity": 99}, {"time": 2078, "pitch": 71, "duration": 5, "velocity": 99}, {"time": 2084, "pitch": 71, "duration": 23, "velocity": 98}, {"time": 2123, "pitch": 74, "duration": 5, "velocity": 96}, {"time": 2129, "pitch": 73, "duration": 5, "velocity": 95}, {"time": 2135, "pitch": 71, "duration": 10, "velocity": 95}, {"time": 2147, "pitch": 83, "duration": 7, "velocity": 94}, {"time": 2159, "pitch": 81, "duration": 4, "velocity": 100}, {"time": 2165, "pitch": 76, "duration": 3, "velocity": 92}, {"time": 2168, "pitch": 78, "duration": 4, "velocity": 92}, {"time": 2174, "pitch": 79, "duration": 6, "velocity": 91}, {"time": 2183, "pitch": 78, "duration": 4, "velocity": 91}, {"time": 2189, "pitch": 79, "duration": 4, "velocity": 91}, {"time": 2195, "pitch": 78, "duration": 5, "velocity": 91}, {"time": 2198, "pitch": 76, "duration": 7, "velocity": 91}, {"time": 2207, "pitch": 74, "duration": 11, "velocity": 91}, {"time": 2219, "pitch": 74, "duration": 5, "velocity": 91}, {"time": 2225, "pitch": 73, "duration": 5, "velocity": 91}, {"time": 2231, "pitch": 71, "duration": 10, "velocity": 90}, {"time": 2243, "pitch": 83, "duration": 10, "velocity": 90}, {"time": 2255, "pitch": 81, "duration": 5, "velocity": 90}, {"time": 2261, "pitch": 76, "duration": 2, "velocity": 89}, {"time": 2264, "pitch": 78, "duration": 2, "velocity": 89}, {"time": 2270, "pitch": 79, "duration": 6, "velocity": 89}, {"time": 2279, "pitch": 78, "duration": 18, "velocity": 89}, {"time": 2315, "pitch": 74, "duration": 5, "velocity": 91}, {"time": 2321, "pitch": 73, "duration": 5, "velocity": 91}, {"time": 2327, "pitch": 71, "duration": 9, "velocity": 92}, {"time": 2339, "pitch": 81, "duration": 9, "velocity": 93}, {"time": 2351, "pitch": 79, "duration": 5, "velocity": 94}, {"time": 2357, "pitch": 76, "duration": 2, "velocity": 94}, {"time": 2360, "pitch": 78, "duration": 4, "velocity": 94}, {"time": 2366, "pitch": 79, "duration": 6, "velocity": 94}, {"time": 2375, "pitch": 81, "duration": 7, "velocity": 94}, {"time": 2381, "pitch": 78, "duration": 2, "velocity": 94}, {"time": 2384, "pitch": 81, "duration": 4, "velocity": 94}, {"time": 2390, "pitch": 85, "duration": 5, "velocity": 94}, {"time": 2399, "pitch": 86, "duration": 12, "velocity": 94}, {"time": 2411, "pitch": 83, "duration": 7, "velocity": 94}, {"time": 2417, "pitch": 81, "duration": 4, "velocity": 94}, {"time": 2420, "pitch": 76, "duration": 12, "velocity": 94}, {"time": 2435, "pitch": 83, "duration": 7, "velocity": 94}, {"time": 2441, "pitch": 81, "duration": 4, "velocity": 94}, {"time": 2444, "pitch": 76, "duration": 13, "velocity": 94}, {"time": 2459, "pitch": 73, "duration": 6, "velocity": 94}, {"time": 2465, "pitch": 74, "duration": 4, "velocity": 94}, {"time": 2468, "pitch": 73, "duration": 11, "velocity": 94}, {"time": 2477, "pitch": 71, "duration": 28, "velocity": 94}, {"time": 2507, "pitch": 74, "duration": 6, "velocity": 95}, {"time": 2513, "pitch": 73, "duration": 7, "velocity": 95}, {"time": 2519, "pitch": 71, "duration": 10, "velocity": 96}, {"time": 2531, "pitch": 83, "duration": 12, "velocity": 96}, {"time": 2543, "pitch": 81, "duration": 7, "velocity": 96}, {"time": 2549, "pitch": 76, "duration": 3, "velocity": 96}, {"time": 2552, "pitch": 78, "duration": 5, "velocity": 96}, {"time": 2558, "pitch": 79, "duration": 7, "velocity": 96}, {"time": 2567, "pitch": 78, "duration": 5, "velocity": 96}, {"time": 2573, "pitch": 79, "duration": 6, "velocity": 96}, {"time": 2579, "pitch": 78, "duration": 5, "velocity": 97}, {"time": 2582, "pitch": 76, "duration": 8, "velocity": 98}, {"time": 2591, "pitch": 74, "duration": 10, "velocity": 98}, {"time": 2603, "pitch": 74, "duration": 6, "velocity": 99}, {"time": 2609, "pitch": 73, "duration": 6, "velocity": 99}, {"time": 2615, "pitch": 71, "duration": 11, "velocity": 99}, {"time": 2627, "pitch": 83, "duration": 9, "velocity": 99}, {"time": 2639, "pitch": 81, "duration": 5, "velocity": 99}, {"time": 2645, "pitch": 76, "duration": 2, "velocity": 99}, {"time": 2648, "pitch": 78, "duration": 4, "velocity": 99}, {"time": 2654, "pitch": 79, "duration": 7, "velocity": 99}, {"time": 2663, "pitch": 78, "duration": 26, "velocity": 99}, {"time": 2699, "pitch": 74, "duration": 8, "velocity": 99}, {"time": 2705, "pitch": 73, "duration": 6, "velocity": 99}, {"time": 2711, "pitch": 71, "duration": 8, "velocity": 99}, {"time": 2723, "pitch": 83, "duration": 9, "velocity": 99}, {"time": 2735, "pitch": 81, "duration": 3, "velocity": 99}, {"time": 2741, "pitch": 76, "duration": 3, "velocity": 99}, {"time": 2744, "pitch": 78, "duration": 4, "velocity": 99}, {"time": 2750, "pitch": 79, "duration": 6, "velocity": 99}, {"time": 2759, "pitch": 81, "duration": 7, "velocity": 99}, {"time": 2765, "pitch": 78, "duration": 2, "velocity": 99}, {"time": 2768, "pitch": 81, "duration": 2, "velocity": 99}, {"time": 2774, "pitch": 85, "duration": 5, "velocity": 99}, {"time": 2780, "pitch": 86, "duration": 15, "velocity": 99}, {"time": 2795, "pitch": 83, "duration": 7, "velocity": 99}, {"time": 2801, "pitch": 81, "duration": 4, "velocity": 99}, {"time": 2804, "pitch": 76, "duration": 11, "velocity": 99}, {"time": 2819, "pitch": 83, "duration": 6, "velocity": 100}, {"time": 2825, "pitch": 81, "duration": 4, "velocity": 100}, {"time": 2828, "pitch": 76, "duration": 12, "velocity": 101}, {"time": 2840, "pitch": 73, "duration": 7, "velocity": 101}, {"time": 2846, "pitch": 74, "duration": 4, "velocity": 101}, {"time": 2852, "pitch": 73, "duration": 9, "velocity": 101}, {"time": 2858, "pitch": 71, "duration": 22, "velocity": 101}, {"time": 2891, "pitch": 83, "duration": 7, "velocity": 106}, {"time": 2897, "pitch": 81, "duration": 4, "velocity": 86}, {"time": 2900, "pitch": 76, "duration": 8, "velocity": 86}, {"time": 2915, "pitch": 83, "duration": 7, "velocity": 71}, {"time": 2921, "pitch": 81, "duration": 4, "velocity": 69}, {"time": 2924, "pitch": 76, "duration": 13, "velocity": 69}, {"time": 2939, "pitch": 85, "duration": 5, "velocity": 67}, {"time": 2945, "pitch": 86, "duration": 2, "velocity": 65}, {"time": 2948, "pitch": 85, "duration": 10, "velocity": 64}, {"time": 2960, "pitch": 83, "duration": 40, "velocity": 64}], "annotations": [{"time": 203, "annotation": {"number": 64, "value": 90}, "group": "control_change"}, {"time": 215, "annotation": {"number": 64, "value": 91}, "group": "control_change"}, {"time": 227, "annotation": {"number": 64, "value": 85}, "group": "control_change"}, {"time": 239, "annotation": {"number": 64, "value": 76}, "group": "control_change"}, {"time": 251, "annotation": {"number": 64, "value": 89}, "group": "control_change"}, {"time": 263, "annotation": {"number": 64, "value": 107}, "group": "control_change"}, {"time": 275, "annotation": {"number": 64, "value": 97}, "group": "control_change"}, {"time": 287, "annotation": {"number": 64, "value": 94}, "group": "control_change"}, {"time": 299, "annotation": {"number": 64, "value": 96}, "group": "control_change"}]}, {"program": 0, "is_drum": false, "name": "BRIDGE", "notes": [{"time": 11, "pitch": 62, "duration": 7, "velocity": 73}, {"time": 17, "pitch": 64, "duration": 5, "velocity": 70}, {"time": 23, "pitch": 66, "duration": 7, "velocity": 79}, {"time": 29, "pitch": 64, "duration": 2, "velocity": 69}, {"time": 32, "pitch": 59, "duration": 21, "velocity": 71}, {"time": 59, "pitch": 62, "duration": 7, "velocity": 87}, {"time": 65, "pitch": 64, "duration": 4, "velocity": 71}, {"time": 71, "pitch": 66, "duration": 6, "velocity": 98}, {"time": 77, "pitch": 64, "duration": 3, "velocity": 62}, {"time": 80, "pitch": 57, "duration": 18, "velocity": 81}, {"time": 107, "pitch": 62, "duration": 8, "velocity": 87}, {"time": 113, "pitch": 64, "duration": 4, "velocity": 72}, {"time": 119, "pitch": 66, "duration": 6, "velocity": 98}, {"time": 125, "pitch": 64, "duration": 2, "velocity": 69}, {"time": 128, "pitch": 59, "duration": 11, "velocity": 79}, {"time": 155, "pitch": 62, "duration": 7, "velocity": 81}, {"time": 161, "pitch": 64, "duration": 5, "velocity": 75}, {"time": 167, "pitch": 66, "duration": 36, "velocity": 86}, {"time": 377, "pitch": 62, "duration": 4, "velocity": 59}, {"time": 389, "pitch": 61, "duration": 9, "velocity": 74}, {"time": 491, "pitch": 83, "duration": 4, "velocity": 87}, {"time": 494, "pitch": 76, "duration": 3, "velocity": 66}, {"time": 497, "pitch": 78, "duration": 2, "velocity": 75}, {"time": 500, "pitch": 71, "duration": 10, "velocity": 108}, {"time": 551, "pitch": 76, "duration": 6, "velocity": 77}, {"time": 557, "pitch": 73, "duration": 7, "velocity": 74}, {"time": 563, "pitch": 74, "duration": 7, "velocity": 79}, {"time": 569, "pitch": 71, "duration": 12, "velocity": 71}, {"time": 668, "pitch": 86, "duration": 2, "velocity": 76}, {"time": 670, "pitch": 88, "duration": 2, "velocity": 86}, {"time": 671, "pitch": 86, "duration": 1, "velocity": 86}, {"time": 672, "pitch": 85, "duration": 1, "velocity": 74}, {"time": 761, "pitch": 74, "duration": 6, "velocity": 83}, {"time": 773, "pitch": 73, "duration": 8, "velocity": 79}, {"time": 875, "pitch": 95, "duration": 3, "velocity": 86}, {"time": 878, "pitch": 88, "duration": 4, "velocity": 63}, {"time": 881, "pitch": 90, "duration": 3, "velocity": 65}, {"time": 884, "pitch": 83, "duration": 3, "velocity": 61}, {"time": 1134, "pitch": 74, "duration": 1, "velocity": 76}, {"time": 1136, "pitch": 76, "duration": 2, "velocity": 77}, {"time": 1139, "pitch": 78, "duration": 7, "velocity": 77}, {"time": 1145, "pitch": 76, "duration": 3, "velocity": 84}, {"time": 1148, "pitch": 78, "duration": 3, "velocity": 88}, {"time": 1151, "pitch": 79, "duration": 6, "velocity": 91}, {"time": 1157, "pitch": 78, "duration": 3, "velocity": 95}, {"time": 1159, "pitch": 79, "duration": 3, "velocity": 100}, {"time": 1163, "pitch": 81, "duration": 5, "velocity": 98}, {"time": 1169, "pitch": 79, "duration": 3, "velocity": 105}, {"time": 1172, "pitch": 81, "duration": 2, "velocity": 112}, {"time": 1175, "pitch": 83, "duration": 21, "velocity": 113}, {"time": 1364, "pitch": 83, "duration": 3, "velocity": 60}, {"time": 1367, "pitch": 78, "duration": 36, "velocity": 64}, {"time": 1367, "pitch": 81, "duration": 3, "velocity": 64}, {"time": 1397, "pitch": 76, "duration": 8, "velocity": 74}, {"time": 1403, "pitch": 78, "duration": 4, "velocity": 64}, {"time": 1409, "pitch": 85, "duration": 6, "velocity": 95}, {"time": 1415, "pitch": 81, "duration": 25, "velocity": 95}, {"time": 1436, "pitch": 83, "duration": 3, "velocity": 69}, {"time": 1439, "pitch": 78, "duration": 13, "velocity": 77}, {"time": 1439, "pitch": 81, "duration": 1, "velocity": 71}, {"time": 1451, "pitch": 81, "duration": 9, "velocity": 85}, {"time": 1459, "pitch": 78, "duration": 4, "velocity": 69}, {"time": 1462, "pitch": 74, "duration": 3, "velocity": 54}, {"time": 1463, "pitch": 71, "duration": 13, "velocity": 67}, {"time": 1493, "pitch": 69, "duration": 7, "velocity": 70}, {"time": 1499, "pitch": 71, "duration": 3, "velocity": 79}, {"time": 1505, "pitch": 78, "duration": 5, "velocity": 85}, {"time": 1511, "pitch": 76, "duration": 24, "velocity": 100}, {"time": 1553, "pitch": 71, "duration": 3, "velocity": 76}, {"time": 1556, "pitch": 74, "duration": 2, "velocity": 72}, {"time": 1559, "pitch": 81, "duration": 2, "velocity": 72}, {"time": 1562, "pitch": 78, "duration": 1, "velocity": 64}, {"time": 1565, "pitch": 78, "duration": 1, "velocity": 95}, {"time": 1568, "pitch": 78, "duration": 13, "velocity": 93}, {"time": 1577, "pitch": 76, "duration": 4, "velocity": 108}, {"time": 1580, "pitch": 74, "duration": 2, "velocity": 74}, {"time": 1583, "pitch": 76, "duration": 3, "velocity": 98}, {"time": 1586, "pitch": 73, "duration": 2, "velocity": 117}, {"time": 1589, "pitch": 71, "duration": 3, "velocity": 81}, {"time": 1592, "pitch": 69, "duration": 10, "velocity": 86}, {"time": 1601, "pitch": 71, "duration": 3, "velocity": 86}, {"time": 1604, "pitch": 74, "duration": 2, "velocity": 74}, {"time": 1607, "pitch": 81, "duration": 2, "velocity": 98}, {"time": 1610, "pitch": 78, "duration": 1, "velocity": 63}, {"time": 1613, "pitch": 78, "duration": 2, "velocity": 93}, {"time": 1616, "pitch": 78, "duration": 7, "velocity": 98}, {"time": 1625, "pitch": 78, "duration": 3, "velocity": 81}, {"time": 1628, "pitch": 81, "duration": 2, "velocity": 85}, {"time": 1631, "pitch": 86, "duration": 2, "velocity": 87}, {"time": 1634, "pitch": 83, "duration": 1, "velocity": 73}, {"time": 1637, "pitch": 83, "duration": 2, "velocity": 108}, {"time": 1640, "pitch": 83, "duration": 8, "velocity": 114}, {"time": 1649, "pitch": 71, "duration": 3, "velocity": 73}, {"time": 1652, "pitch": 74, "duration": 4, "velocity": 59}, {"time": 1655, "pitch": 76, "duration": 2, "velocity": 77}, {"time": 1658, "pitch": 78, "duration": 2, "velocity": 81}, {"time": 1661, "pitch": 76, "duration": 2, "velocity": 86}, {"time": 1664, "pitch": 71, "duration": 2, "velocity": 61}, {"time": 1667, "pitch": 76, "duration": 3, "velocity": 69}, {"time": 1670, "pitch": 78, "duration": 4, "velocity": 76}, {"time": 1673, "pitch": 76, "duration": 3, "velocity": 81}, {"time": 1676, "pitch": 71, "duration": 3, "velocity": 79}, {"time": 1679, "pitch": 76, "duration": 3, "velocity": 74}, {"time": 1682, "pitch": 78, "duration": 4, "velocity": 74}, {"time": 1685, "pitch": 76, "duration": 3, "velocity": 74}, {"time": 1688, "pitch": 69, "duration": 3, "velocity": 58}, {"time": 1691, "pitch": 76, "duration": 4, "velocity": 69}, {"time": 1694, "pitch": 78, "duration": 4, "velocity": 54}, {"time": 1697, "pitch": 76, "duration": 4, "velocity": 77}, {"time": 1700, "pitch": 69, "duration": 5, "velocity": 98}, {"time": 1703, "pitch": 79, "duration": 8, "velocity": 114}, {"time": 1712, "pitch": 78, "duration": 9, "velocity": 111}, {"time": 1718, "pitch": 73, "duration": 3, "velocity": 86}, {"time": 1727, "pitch": 78, "duration": 2, "velocity": 117}, {"time": 1730, "pitch": 78, "duration": 4, "velocity": 122}, {"time": 1820, "pitch": 86, "duration": 1, "velocity": 73}, {"time": 1822, "pitch": 88, "duration": 1, "velocity": 87}, {"time": 1823, "pitch": 86, "duration": 1, "velocity": 72}, {"time": 1823, "pitch": 85, "duration": 3, "velocity": 98}, {"time": 1913, "pitch": 74, "duration": 6, "velocity": 83}, {"time": 1925, "pitch": 73, "duration": 8, "velocity": 79}, {"time": 2027, "pitch": 95, "duration": 4, "velocity": 77}, {"time": 2030, "pitch": 88, "duration": 4, "velocity": 72}, {"time": 2033, "pitch": 90, "duration": 3, "velocity": 73}, {"time": 2036, "pitch": 83, "duration": 4, "velocity": 111}, {"time": 2286, "pitch": 74, "duration": 1, "velocity": 76}, {"time": 2288, "pitch": 76, "duration": 2, "velocity": 77}, {"time": 2291, "pitch": 78, "duration": 7, "velocity": 77}, {"time": 2297, "pitch": 76, "duration": 3, "velocity": 84}, {"time": 2300, "pitch": 78, "duration": 3, "velocity": 88}, {"time": 2303, "pitch": 79, "duration": 6, "velocity": 91}, {"time": 2309, "pitch": 78, "duration": 3, "velocity": 95}, {"time": 2311, "pitch": 79, "duration": 3, "velocity": 100}, {"time": 2315, "pitch": 81, "duration": 5, "velocity": 98}, {"time": 2321, "pitch": 79, "duration": 3, "velocity": 105}, {"time": 2324, "pitch": 81, "duration": 2, "velocity": 112}, {"time": 2327, "pitch": 83, "duration": 21, "velocity": 113}, {"time": 2855, "pitch": 78, "duration": 4, "velocity": 76}, {"time": 2858, "pitch": 71, "duration": 3, "velocity": 68}, {"time": 2861, "pitch": 76, "duration": 4, "velocity": 63}, {"time": 2864, "pitch": 71, "duration": 3, "velocity": 60}, {"time": 2867, "pitch": 78, "duration": 4, "velocity": 63}, {"time": 2870, "pitch": 71, "duration": 3, "velocity": 73}, {"time": 2873, "pitch": 76, "duration": 3, "velocity": 61}, {"time": 2876, "pitch": 71, "duration": 4, "velocity": 67}, {"time": 2879, "pitch": 78, "duration": 4, "velocity": 68}, {"time": 2882, "pitch": 71, "duration": 3, "velocity": 63}, {"time": 2885, "pitch": 76, "duration": 4, "velocity": 67}, {"time": 2888, "pitch": 71, "duration": 3, "velocity": 68}, {"time": 2891, "pitch": 78, "duration": 3, "velocity": 75}, {"time": 2951, "pitch": 78, "duration": 4, "velocity": 98}, {"time": 2954, "pitch": 71, "duration": 3, "velocity": 68}, {"time": 2957, "pitch": 76, "duration": 4, "velocity": 73}, {"time": 2960, "pitch": 71, "duration": 3, "velocity": 71}, {"time": 2963, "pitch": 78, "duration": 4, "velocity": 83}, {"time": 2966, "pitch": 71, "duration": 3, "velocity": 73}, {"time": 2969, "pitch": 76, "duration": 4, "velocity": 67}, {"time": 2972, "pitch": 71, "duration": 4, "velocity": 67}, {"time": 2975, "pitch": 78, "duration": 3, "velocity": 77}, {"time": 2978, "pitch": 71, "duration": 3, "velocity": 86}, {"time": 2981, "pitch": 76, "duration": 4, "velocity": 71}, {"time": 2984, "pitch": 71, "duration": 4, "velocity": 70}, {"time": 2987, "pitch": 78, "duration": 4, "velocity": 85}, {"time": 2990, "pitch": 71, "duration": 3, "velocity": 85}, {"time": 2993, "pitch": 76, "duration": 4, "velocity": 71}, {"time": 2996, "pitch": 71, "duration": 4, "velocity": 79}, {"time": 2999, "pitch": 76, "duration": 3, "velocity": 87}, {"time": 3002, "pitch": 69, "duration": 4, "velocity": 72}, {"time": 3005, "pitch": 74, "duration": 3, "velocity": 74}, {"time": 3008, "pitch": 69, "duration": 4, "velocity": 63}, {"time": 3011, "pitch": 76, "duration": 4, "velocity": 72}, {"time": 3014, "pitch": 69, "duration": 4, "velocity": 67}, {"time": 3017, "pitch": 74, "duration": 4, "velocity": 65}, {"time": 3020, "pitch": 69, "duration": 4, "velocity": 66}, {"time": 3023, "pitch": 76, "duration": 4, "velocity": 63}, {"time": 3026, "pitch": 69, "duration": 4, "velocity": 60}, {"time": 3029, "pitch": 74, "duration": 4, "velocity": 60}, {"time": 3032, "pitch": 69, "duration": 4, "velocity": 65}, {"time": 3035, "pitch": 76, "duration": 4, "velocity": 75}, {"time": 3038, "pitch": 69, "duration": 4, "velocity": 74}, {"time": 3041, "pitch": 74, "duration": 4, "velocity": 63}, {"time": 3044, "pitch": 69, "duration": 4, "velocity": 75}, {"time": 3047, "pitch": 76, "duration": 27, "velocity": 70}, {"time": 3068, "pitch": 86, "duration": 8, "velocity": 58}, {"time": 3068, "pitch": 88, "duration": 30, "velocity": 64}, {"time": 3068, "pitch": 81, "duration": 37, "velocity": 59}, {"time": 3071, "pitch": 93, "duration": 43, "velocity": 63}, {"time": 3101, "pitch": 59, "duration": 64, "velocity": 52}, {"time": 3102, "pitch": 74, "duration": 62, "velocity": 49}, {"time": 3102, "pitch": 71, "duration": 63, "velocity": 14}, {"time": 3103, "pitch": 78, "duration": 62, "velocity": 37}, {"time": 3103, "pitch": 62, "duration": 62, "velocity": 56}, {"time": 3106, "pitch": 66, "duration": 59, "velocity": 59}], "annotations": [{"time": 11, "annotation": {"number": 64, "value": 102}, "group": "control_change"}, {"time": 23, "annotation": {"number": 64, "value": 107}, "group": "control_change"}, {"time": 35, "annotation": {"number": 64, "value": 113}, "group": "control_change"}, {"time": 47, "annotation": {"number": 64, "value": 107}, "group": "control_change"}, {"time": 59, "annotation": {"number": 64, "value": 100}, "group": "control_change"}, {"time": 71, "annotation": {"number": 64, "value": 94}, "group": "control_change"}, {"time": 371, "annotation": {"number": 64, "value": 100}, "group": "control_change"}, {"time": 383, "annotation": {"number": 64, "value": 99}, "group": "control_change"}, {"time": 395, "annotation": {"number": 64, "value": 104}, "group": "control_change"}, {"time": 479, "annotation": {"number": 64, "value": 67}, "group": "control_change"}, {"time": 491, "annotation": {"number": 64, "value": 68}, "group": "control_change"}, {"time": 503, "annotation": {"number": 64, "value": 63}, "group": "control_change"}, {"time": 515, "annotation": {"number": 64, "value": 62}, "group": "control_change"}, {"time": 527, "annotation": {"number": 64, "value": 57}, "group": "control_change"}, {"time": 539, "annotation": {"number": 64, "value": 53}, "group": "control_change"}, {"time": 551, "annotation": {"number": 64, "value": 52}, "group": "control_change"}, {"time": 563, "annotation": {"number": 64, "value": 46}, "group": "control_change"}, {"time": 575, "annotation": {"number": 64, "value": 53}, "group": "control_change"}, {"time": 587, "annotation": {"number": 64, "value": 83}, "group": "control_change"}, {"time": 743, "annotation": {"number": 64, "value": 104}, "group": "control_change"}, {"time": 755, "annotation": {"number": 64, "value": 95}, "group": "control_change"}, {"time": 767, "annotation": {"number": 64, "value": 90}, "group": "control_change"}, {"time": 779, "annotation": {"number": 64, "value": 91}, "group": "control_change"}, {"time": 791, "annotation": {"number": 64, "value": 102}, "group": "control_change"}, {"time": 803, "annotation": {"number": 64, "value": 105}, "group": "control_change"}, {"time": 1355, "annotation": {"number": 64, "value": 94}, "group": "control_change"}, {"time": 1367, "annotation": {"number": 64, "value": 92}, "group": "control_change"}, {"time": 1379, "annotation": {"number": 64, "value": 89}, "group": "control_change"}, {"time": 1391, "annotation": {"number": 64, "value": 99}, "group": "control_change"}, {"time": 2843, "annotation": {"number": 64, "value": 96}, "group": "control_change"}, {"time": 2855, "annotation": {"number": 64, "value": 95}, "group": "control_change"}, {"time": 2867, "annotation": {"number": 64, "value": 92}, "group": "control_change"}, {"time": 2879, "annotation": {"number": 64, "value": 86}, "group": "control_change"}, {"time": 2891, "annotation": {"number": 64, "value": 80}, "group": "control_change"}, {"time": 2903, "annotation": {"number": 64, "value": 86}, "group": "control_change"}]}, {"program": 0, "is_drum": false, "name": "PIANO", "notes": [{"time": 23, "pitch": 43, "duration": 37, "velocity": 74}, {"time": 23, "pitch": 55, "duration": 37, "velocity": 63}, {"time": 23, "pitch": 59, "duration": 37, "velocity": 58}, {"time": 23, "pitch": 62, "duration": 37, "velocity": 59}, {"time": 71, "pitch": 42, "duration": 41, "velocity": 65}, {"time": 71, "pitch": 54, "duration": 40, "velocity": 60}, {"time": 71, "pitch": 57, "duration": 39, "velocity": 65}, {"time": 71, "pitch": 61, "duration": 39, "velocity": 58}, {"time": 119, "pitch": 40, "duration": 40, "velocity": 57}, {"time": 119, "pitch": 52, "duration": 39, "velocity": 68}, {"time": 119, "pitch": 55, "duration": 39, "velocity": 74}, {"time": 119, "pitch": 59, "duration": 40, "velocity": 65}, {"time": 167, "pitch": 42, "duration": 39, "velocity": 63}, {"time": 167, "pitch": 54, "duration": 39, "velocity": 59}, {"time": 167, "pitch": 58, "duration": 37, "velocity": 64}, {"time": 167, "pitch": 61, "duration": 38, "velocity": 37}, {"time": 215, "pitch": 43, "duration": 42, "velocity": 71}, {"time": 215, "pitch": 55, "duration": 11, "velocity": 70}, {"time": 215, "pitch": 59, "duration": 12, "velocity": 60}, {"time": 215, "pitch": 62, "duration": 12, "velocity": 60}, {"time": 227, "pitch": 55, "duration": 12, "velocity": 70}, {"time": 227, "pitch": 59, "duration": 22, "velocity": 63}, {"time": 227, "pitch": 62, "duration": 11, "velocity": 66}, {"time": 239, "pitch": 55, "duration": 10, "velocity": 52}, {"time": 239, "pitch": 62, "duration": 10, "velocity": 59}, {"time": 251, "pitch": 55, "duration": 6, "velocity": 71}, {"time": 251, "pitch": 59, "duration": 6, "velocity": 62}, {"time": 251, "pitch": 62, "duration": 6, "velocity": 62}, {"time": 263, "pitch": 42, "duration": 46, "velocity": 57}, {"time": 263, "pitch": 54, "duration": 12, "velocity": 59}, {"time": 263, "pitch": 57, "duration": 11, "velocity": 60}, {"time": 263, "pitch": 61, "duration": 11, "velocity": 60}, {"time": 275, "pitch": 54, "duration": 11, "velocity": 63}, {"time": 275, "pitch": 57, "duration": 11, "velocity": 73}, {"time": 275, "pitch": 61, "duration": 11, "velocity": 60}, {"time": 287, "pitch": 54, "duration": 11, "velocity": 59}, {"time": 287, "pitch": 57, "duration": 10, "velocity": 62}, {"time": 287, "pitch": 61, "duration": 11, "velocity": 60}, {"time": 299, "pitch": 54, "duration": 6, "velocity": 67}, {"time": 299, "pitch": 57, "duration": 6, "velocity": 77}, {"time": 299, "pitch": 61, "duration": 6, "velocity": 73}, {"time": 311, "pitch": 40, "duration": 46, "velocity": 60}, {"time": 311, "pitch": 52, "duration": 11, "velocity": 63}, {"time": 311, "pitch": 55, "duration": 11, "velocity": 67}, {"time": 311, "pitch": 59, "duration": 11, "velocity": 68}, {"time": 323, "pitch": 52, "duration": 11, "velocity": 63}, {"time": 323, "pitch": 55, "duration": 11, "velocity": 69}, {"time": 323, "pitch": 59, "duration": 11, "velocity": 61}, {"time": 335, "pitch": 52, "duration": 11, "velocity": 56}, {"time": 335, "pitch": 55, "duration": 11, "velocity": 60}, {"time": 335, "pitch": 59, "duration": 11, "velocity": 58}, {"time": 347, "pitch": 52, "duration": 11, "velocity": 67}, {"time": 347, "pitch": 55, "duration": 10, "velocity": 76}, {"time": 347, "pitch": 59, "duration": 10, "velocity": 67}, {"time": 359, "pitch": 42, "duration": 39, "velocity": 59}, {"time": 359, "pitch": 54, "duration": 11, "velocity": 60}, {"time": 359, "pitch": 58, "duration": 9, "velocity": 59}, {"time": 359, "pitch": 61, "duration": 11, "velocity": 59}, {"time": 371, "pitch": 54, "duration": 31, "velocity": 39}, {"time": 371, "pitch": 61, "duration": 30, "velocity": 58}, {"time": 383, "pitch": 58, "duration": 19, "velocity": 1}, {"time": 407, "pitch": 43, "duration": 16, "velocity": 98}, {"time": 407, "pitch": 55, "duration": 14, "velocity": 83}, {"time": 407, "pitch": 59, "duration": 13, "velocity": 74}, {"time": 407, "pitch": 62, "duration": 14, "velocity": 72}, {"time": 428, "pitch": 45, "duration": 18, "velocity": 65}, {"time": 428, "pitch": 57, "duration": 18, "velocity": 59}, {"time": 428, "pitch": 61, "duration": 18, "velocity": 73}, {"time": 428, "pitch": 64, "duration": 18, "velocity": 67}, {"time": 455, "pitch": 42, "duration": 16, "velocity": 60}, {"time": 455, "pitch": 54, "duration": 16, "velocity": 66}, {"time": 455, "pitch": 57, "duration": 15, "velocity": 71}, {"time": 455, "pitch": 61, "duration": 16, "velocity": 62}, {"time": 476, "pitch": 66, "duration": 8, "velocity": 70}, {"time": 476, "pitch": 57, "duration": 12, "velocity": 85}, {"time": 476, "pitch": 59, "duration": 12, "velocity": 65}, {"time": 476, "pitch": 62, "duration": 8, "velocity": 100}, {"time": 503, "pitch": 43, "duration": 13, "velocity": 85}, {"time": 503, "pitch": 55, "duration": 13, "velocity": 66}, {"time": 503, "pitch": 59, "duration": 13, "velocity": 60}, {"time": 503, "pitch": 62, "duration": 13, "velocity": 58}, {"time": 524, "pitch": 45, "duration": 28, "velocity": 71}, {"time": 524, "pitch": 57, "duration": 26, "velocity": 64}, {"time": 524, "pitch": 61, "duration": 27, "velocity": 59}, {"time": 524, "pitch": 64, "duration": 26, "velocity": 59}, {"time": 551, "pitch": 47, "duration": 26, "velocity": 69}, {"time": 551, "pitch": 59, "duration": 25, "velocity": 63}, {"time": 551, "pitch": 62, "duration": 25, "velocity": 59}, {"time": 551, "pitch": 66, "duration": 26, "velocity": 54}, {"time": 599, "pitch": 43, "duration": 7, "velocity": 90}, {"time": 599, "pitch": 43, "duration": 7, "velocity": 93}, {"time": 599, "pitch": 55, "duration": 12, "velocity": 71}, {"time": 599, "pitch": 59, "duration": 12, "velocity": 60}, {"time": 599, "pitch": 62, "duration": 12, "velocity": 59}, {"time": 611, "pitch": 55, "duration": 10, "velocity": 70}, {"time": 611, "pitch": 59, "duration": 10, "velocity": 61}, {"time": 611, "pitch": 62, "duration": 10, "velocity": 63}, {"time": 623, "pitch": 55, "duration": 10, "velocity": 71}, {"time": 623, "pitch": 59, "duration": 10, "velocity": 61}, {"time": 623, "pitch": 62, "duration": 10, "velocity": 61}, {"time": 635, "pitch": 55, "duration": 5, "velocity": 74}, {"time": 635, "pitch": 59, "duration": 5, "velocity": 65}, {"time": 635, "pitch": 62, "duration": 6, "velocity": 65}, {"time": 647, "pitch": 42, "duration": 45, "velocity": 70}, {"time": 647, "pitch": 54, "duration": 11, "velocity": 65}, {"time": 647, "pitch": 57, "duration": 11, "velocity": 67}, {"time": 647, "pitch": 61, "duration": 11, "velocity": 60}, {"time": 659, "pitch": 54, "duration": 12, "velocity": 62}, {"time": 659, "pitch": 57, "duration": 11, "velocity": 73}, {"time": 659, "pitch": 61, "duration": 11, "velocity": 67}, {"time": 671, "pitch": 54, "duration": 11, "velocity": 60}, {"time": 671, "pitch": 57, "duration": 11, "velocity": 69}, {"time": 671, "pitch": 61, "duration": 11, "velocity": 59}, {"time": 683, "pitch": 54, "duration": 6, "velocity": 69}, {"time": 683, "pitch": 57, "duration": 6, "velocity": 73}, {"time": 683, "pitch": 61, "duration": 6, "velocity": 65}, {"time": 695, "pitch": 40, "duration": 20, "velocity": 45}, {"time": 695, "pitch": 40, "duration": 20, "velocity": 65}, {"time": 695, "pitch": 52, "duration": 11, "velocity": 66}, {"time": 695, "pitch": 55, "duration": 11, "velocity": 85}, {"time": 695, "pitch": 59, "duration": 11, "velocity": 71}, {"time": 707, "pitch": 52, "duration": 11, "velocity": 64}, {"time": 707, "pitch": 55, "duration": 11, "velocity": 60}, {"time": 707, "pitch": 59, "duration": 11, "velocity": 63}, {"time": 719, "pitch": 52, "duration": 10, "velocity": 61}, {"time": 719, "pitch": 55, "duration": 10, "velocity": 66}, {"time": 719, "pitch": 59, "duration": 10, "velocity": 63}, {"time": 731, "pitch": 52, "duration": 5, "velocity": 64}, {"time": 731, "pitch": 55, "duration": 5, "velocity": 86}, {"time": 731, "pitch": 59, "duration": 5, "velocity": 65}, {"time": 743, "pitch": 42, "duration": 41, "velocity": 69}, {"time": 743, "pitch": 54, "duration": 11, "velocity": 65}, {"time": 743, "pitch": 58, "duration": 11, "velocity": 66}, {"time": 743, "pitch": 61, "duration": 12, "velocity": 60}, {"time": 755, "pitch": 54, "duration": 11, "velocity": 68}, {"time": 755, "pitch": 58, "duration": 11, "velocity": 76}, {"time": 755, "pitch": 61, "duration": 12, "velocity": 67}, {"time": 767, "pitch": 54, "duration": 11, "velocity": 58}, {"time": 767, "pitch": 58, "duration": 11, "velocity": 61}, {"time": 767, "pitch": 61, "duration": 11, "velocity": 67}, {"time": 779, "pitch": 54, "duration": 7, "velocity": 74}, {"time": 779, "pitch": 58, "duration": 7, "velocity": 67}, {"time": 779, "pitch": 61, "duration": 7, "velocity": 79}, {"time": 791, "pitch": 43, "duration": 18, "velocity": 95}, {"time": 791, "pitch": 55, "duration": 11, "velocity": 76}, {"time": 791, "pitch": 59, "duration": 11, "velocity": 74}, {"time": 791, "pitch": 62, "duration": 11, "velocity": 73}, {"time": 803, "pitch": 55, "duration": 4, "velocity": 76}, {"time": 803, "pitch": 59, "duration": 5, "velocity": 69}, {"time": 803, "pitch": 62, "duration": 5, "velocity": 67}, {"time": 812, "pitch": 45, "duration": 20, "velocity": 72}, {"time": 812, "pitch": 57, "duration": 13, "velocity": 74}, {"time": 812, "pitch": 61, "duration": 14, "velocity": 72}, {"time": 812, "pitch": 64, "duration": 13, "velocity": 76}, {"time": 827, "pitch": 57, "duration": 5, "velocity": 73}, {"time": 827, "pitch": 61, "duration": 5, "velocity": 77}, {"time": 827, "pitch": 64, "duration": 5, "velocity": 79}, {"time": 839, "pitch": 42, "duration": 17, "velocity": 81}, {"time": 839, "pitch": 54, "duration": 10, "velocity": 67}, {"time": 839, "pitch": 57, "duration": 10, "velocity": 74}, {"time": 839, "pitch": 61, "duration": 10, "velocity": 62}, {"time": 851, "pitch": 54, "duration": 3, "velocity": 75}, {"time": 851, "pitch": 57, "duration": 3, "velocity": 86}, {"time": 851, "pitch": 61, "duration": 3, "velocity": 77}, {"time": 860, "pitch": 47, "duration": 22, "velocity": 76}, {"time": 860, "pitch": 59, "duration": 13, "velocity": 59}, {"time": 860, "pitch": 62, "duration": 13, "velocity": 61}, {"time": 860, "pitch": 66, "duration": 14, "velocity": 64}, {"time": 875, "pitch": 59, "duration": 8, "velocity": 67}, {"time": 875, "pitch": 62, "duration": 8, "velocity": 74}, {"time": 875, "pitch": 66, "duration": 8, "velocity": 68}, {"time": 887, "pitch": 43, "duration": 18, "velocity": 83}, {"time": 887, "pitch": 55, "duration": 10, "velocity": 83}, {"time": 887, "pitch": 59, "duration": 10, "velocity": 71}, {"time": 887, "pitch": 62, "duration": 10, "velocity": 69}, {"time": 899, "pitch": 55, "duration": 5, "velocity": 111}, {"time": 899, "pitch": 59, "duration": 5, "velocity": 90}, {"time": 899, "pitch": 62, "duration": 5, "velocity": 87}, {"time": 908, "pitch": 42, "duration": 17, "velocity": 61}, {"time": 908, "pitch": 54, "duration": 14, "velocity": 71}, {"time": 908, "pitch": 57, "duration": 13, "velocity": 77}, {"time": 908, "pitch": 61, "duration": 15, "velocity": 74}, {"time": 923, "pitch": 54, "duration": 3, "velocity": 73}, {"time": 923, "pitch": 57, "duration": 3, "velocity": 85}, {"time": 923, "pitch": 61, "duration": 4, "velocity": 74}, {"time": 935, "pitch": 47, "duration": 19, "velocity": 90}, {"time": 935, "pitch": 59, "duration": 19, "velocity": 65}, {"time": 935, "pitch": 62, "duration": 19, "velocity": 75}, {"time": 935, "pitch": 66, "duration": 19, "velocity": 67}, {"time": 959, "pitch": 47, "duration": 2, "velocity": 95}, {"time": 959, "pitch": 59, "duration": 1, "velocity": 86}, {"time": 959, "pitch": 62, "duration": 1, "velocity": 98}, {"time": 959, "pitch": 66, "duration": 1, "velocity": 93}, {"time": 962, "pitch": 47, "duration": 2, "velocity": 112}, {"time": 962, "pitch": 59, "duration": 2, "velocity": 93}, {"time": 962, "pitch": 62, "duration": 2, "velocity": 108}, {"time": 962, "pitch": 66, "duration": 2, "velocity": 98}, {"time": 983, "pitch": 43, "duration": 21, "velocity": 104}, {"time": 983, "pitch": 55, "duration": 10, "velocity": 104}, {"time": 983, "pitch": 59, "duration": 10, "velocity": 86}, {"time": 983, "pitch": 62, "duration": 10, "velocity": 86}, {"time": 995, "pitch": 55, "duration": 6, "velocity": 108}, {"time": 995, "pitch": 59, "duration": 6, "velocity": 93}, {"time": 995, "pitch": 62, "duration": 6, "velocity": 90}, {"time": 1007, "pitch": 45, "duration": 18, "velocity": 85}, {"time": 1007, "pitch": 57, "duration": 10, "velocity": 85}, {"time": 1007, "pitch": 61, "duration": 11, "velocity": 100}, {"time": 1007, "pitch": 64, "duration": 10, "velocity": 83}, {"time": 1019, "pitch": 57, "duration": 5, "velocity": 83}, {"time": 1019, "pitch": 61, "duration": 5, "velocity": 104}, {"time": 1019, "pitch": 64, "duration": 5, "velocity": 87}, {"time": 1031, "pitch": 42, "duration": 18, "velocity": 81}, {"time": 1031, "pitch": 54, "duration": 10, "velocity": 98}, {"time": 1031, "pitch": 57, "duration": 9, "velocity": 83}, {"time": 1031, "pitch": 61, "duration": 10, "velocity": 65}, {"time": 1043, "pitch": 54, "duration": 4, "velocity": 104}, {"time": 1043, "pitch": 57, "duration": 3, "velocity": 85}, {"time": 1043, "pitch": 61, "duration": 4, "velocity": 68}, {"time": 1055, "pitch": 47, "duration": 19, "velocity": 81}, {"time": 1055, "pitch": 59, "duration": 10, "velocity": 73}, {"time": 1055, "pitch": 62, "duration": 10, "velocity": 83}, {"time": 1055, "pitch": 66, "duration": 10, "velocity": 81}, {"time": 1067, "pitch": 59, "duration": 6, "velocity": 90}, {"time": 1067, "pitch": 62, "duration": 6, "velocity": 93}, {"time": 1067, "pitch": 66, "duration": 6, "velocity": 87}, {"time": 1079, "pitch": 43, "duration": 23, "velocity": 108}, {"time": 1079, "pitch": 55, "duration": 10, "velocity": 95}, {"time": 1079, "pitch": 59, "duration": 10, "velocity": 86}, {"time": 1079, "pitch": 62, "duration": 10, "velocity": 87}, {"time": 1091, "pitch": 55, "duration": 7, "velocity": 108}, {"time": 1091, "pitch": 59, "duration": 7, "velocity": 90}, {"time": 1091, "pitch": 62, "duration": 7, "velocity": 95}, {"time": 1103, "pitch": 45, "duration": 19, "velocity": 72}, {"time": 1103, "pitch": 57, "duration": 10, "velocity": 77}, {"time": 1103, "pitch": 61, "duration": 11, "velocity": 98}, {"time": 1103, "pitch": 64, "duration": 10, "velocity": 100}, {"time": 1115, "pitch": 57, "duration": 5, "velocity": 98}, {"time": 1115, "pitch": 61, "duration": 6, "velocity": 111}, {"time": 1115, "pitch": 64, "duration": 5, "velocity": 100}, {"time": 1127, "pitch": 50, "duration": 23, "velocity": 74}, {"time": 1127, "pitch": 62, "duration": 11, "velocity": 83}, {"time": 1127, "pitch": 66, "duration": 11, "velocity": 83}, {"time": 1127, "pitch": 69, "duration": 11, "velocity": 86}, {"time": 1139, "pitch": 62, "duration": 11, "velocity": 86}, {"time": 1139, "pitch": 66, "duration": 11, "velocity": 83}, {"time": 1139, "pitch": 69, "duration": 11, "velocity": 86}, {"time": 1151, "pitch": 50, "duration": 18, "velocity": 65}, {"time": 1151, "pitch": 62, "duration": 10, "velocity": 86}, {"time": 1151, "pitch": 66, "duration": 10, "velocity": 81}, {"time": 1151, "pitch": 69, "duration": 10, "velocity": 85}, {"time": 1163, "pitch": 62, "duration": 5, "velocity": 95}, {"time": 1163, "pitch": 66, "duration": 5, "velocity": 95}, {"time": 1163, "pitch": 69, "duration": 5, "velocity": 87}, {"time": 1175, "pitch": 43, "duration": 20, "velocity": 104}, {"time": 1175, "pitch": 55, "duration": 11, "velocity": 100}, {"time": 1175, "pitch": 59, "duration": 11, "velocity": 81}, {"time": 1175, "pitch": 62, "duration": 11, "velocity": 85}, {"time": 1187, "pitch": 55, "duration": 6, "velocity": 111}, {"time": 1187, "pitch": 59, "duration": 6, "velocity": 95}, {"time": 1187, "pitch": 62, "duration": 6, "velocity": 95}, {"time": 1199, "pitch": 45, "duration": 18, "velocity": 86}, {"time": 1199, "pitch": 57, "duration": 10, "velocity": 86}, {"time": 1199, "pitch": 61, "duration": 11, "velocity": 111}, {"time": 1199, "pitch": 64, "duration": 10, "velocity": 74}, {"time": 1211, "pitch": 57, "duration": 5, "velocity": 86}, {"time": 1211, "pitch": 61, "duration": 5, "velocity": 111}, {"time": 1211, "pitch": 64, "duration": 5, "velocity": 104}, {"time": 1223, "pitch": 42, "duration": 19, "velocity": 85}, {"time": 1223, "pitch": 54, "duration": 10, "velocity": 98}, {"time": 1223, "pitch": 57, "duration": 10, "velocity": 83}, {"time": 1226, "pitch": 61, "duration": 6, "velocity": 7}, {"time": 1235, "pitch": 54, "duration": 4, "velocity": 98}, {"time": 1235, "pitch": 57, "duration": 4, "velocity": 75}, {"time": 1235, "pitch": 61, "duration": 3, "velocity": 32}, {"time": 1247, "pitch": 44, "duration": 12, "velocity": 73}, {"time": 1247, "pitch": 50, "duration": 11, "velocity": 81}, {"time": 1247, "pitch": 54, "duration": 14, "velocity": 79}, {"time": 1247, "pitch": 59, "duration": 12, "velocity": 73}, {"time": 1262, "pitch": 43, "duration": 8, "velocity": 121}, {"time": 1262, "pitch": 55, "duration": 7, "velocity": 117}, {"time": 1262, "pitch": 59, "duration": 7, "velocity": 93}, {"time": 1262, "pitch": 62, "duration": 6, "velocity": 93}, {"time": 1271, "pitch": 40, "duration": 24, "velocity": 98}, {"time": 1271, "pitch": 52, "duration": 23, "velocity": 100}, {"time": 1271, "pitch": 55, "duration": 23, "velocity": 108}, {"time": 1271, "pitch": 59, "duration": 12, "velocity": 98}, {"time": 1283, "pitch": 59, "duration": 10, "velocity": 45}, {"time": 1295, "pitch": 42, "duration": 19, "velocity": 81}, {"time": 1295, "pitch": 54, "duration": 10, "velocity": 76}, {"time": 1295, "pitch": 57, "duration": 10, "velocity": 75}, {"time": 1295, "pitch": 61, "duration": 11, "velocity": 66}, {"time": 1307, "pitch": 54, "duration": 5, "velocity": 65}, {"time": 1307, "pitch": 57, "duration": 4, "velocity": 79}, {"time": 1307, "pitch": 61, "duration": 5, "velocity": 75}, {"time": 1319, "pitch": 47, "duration": 24, "velocity": 77}, {"time": 1319, "pitch": 59, "duration": 23, "velocity": 66}, {"time": 1319, "pitch": 62, "duration": 12, "velocity": 75}, {"time": 1319, "pitch": 66, "duration": 12, "velocity": 70}, {"time": 1331, "pitch": 62, "duration": 11, "velocity": 79}, {"time": 1331, "pitch": 66, "duration": 11, "velocity": 79}, {"time": 1343, "pitch": 47, "duration": 22, "velocity": 58}, {"time": 1343, "pitch": 59, "duration": 22, "velocity": 62}, {"time": 1343, "pitch": 62, "duration": 22, "velocity": 77}, {"time": 1343, "pitch": 66, "duration": 22, "velocity": 73}, {"time": 1367, "pitch": 66, "duration": 4, "velocity": 93}, {"time": 1370, "pitch": 59, "duration": 3, "velocity": 59}, {"time": 1373, "pitch": 64, "duration": 3, "velocity": 71}, {"time": 1376, "pitch": 59, "duration": 3, "velocity": 63}, {"time": 1379, "pitch": 66, "duration": 4, "velocity": 67}, {"time": 1382, "pitch": 59, "duration": 3, "velocity": 63}, {"time": 1385, "pitch": 64, "duration": 4, "velocity": 65}, {"time": 1388, "pitch": 59, "duration": 4, "velocity": 60}, {"time": 1391, "pitch": 66, "duration": 4, "velocity": 54}, {"time": 1394, "pitch": 59, "duration": 4, "velocity": 75}, {"time": 1397, "pitch": 64, "duration": 3, "velocity": 61}, {"time": 1400, "pitch": 59, "duration": 4, "velocity": 65}, {"time": 1403, "pitch": 66, "duration": 4, "velocity": 59}, {"time": 1406, "pitch": 59, "duration": 4, "velocity": 70}, {"time": 1409, "pitch": 64, "duration": 3, "velocity": 60}, {"time": 1412, "pitch": 59, "duration": 2, "velocity": 67}, {"time": 1415, "pitch": 66, "duration": 4, "velocity": 70}, {"time": 1418, "pitch": 57, "duration": 3, "velocity": 58}, {"time": 1421, "pitch": 64, "duration": 3, "velocity": 72}, {"time": 1424, "pitch": 57, "duration": 4, "velocity": 65}, {"time": 1427, "pitch": 66, "duration": 4, "velocity": 69}, {"time": 1430, "pitch": 57, "duration": 3, "velocity": 64}, {"time": 1433, "pitch": 64, "duration": 4, "velocity": 81}, {"time": 1436, "pitch": 57, "duration": 4, "velocity": 58}, {"time": 1439, "pitch": 66, "duration": 3, "velocity": 63}, {"time": 1442, "pitch": 57, "duration": 3, "velocity": 72}, {"time": 1445, "pitch": 64, "duration": 3, "velocity": 69}, {"time": 1448, "pitch": 57, "duration": 4, "velocity": 64}, {"time": 1451, "pitch": 66, "duration": 7, "velocity": 67}, {"time": 1463, "pitch": 43, "duration": 40, "velocity": 74}, {"time": 1463, "pitch": 55, "duration": 40, "velocity": 72}, {"time": 1463, "pitch": 59, "duration": 40, "velocity": 63}, {"time": 1463, "pitch": 62, "duration": 40, "velocity": 63}, {"time": 1511, "pitch": 42, "duration": 21, "velocity": 67}, {"time": 1511, "pitch": 54, "duration": 22, "velocity": 63}, {"time": 1511, "pitch": 57, "duration": 22, "velocity": 63}, {"time": 1511, "pitch": 61, "duration": 20, "velocity": 8}, {"time": 1535, "pitch": 42, "duration": 2, "velocity": 74}, {"time": 1535, "pitch": 54, "duration": 1, "velocity": 65}, {"time": 1538, "pitch": 42, "duration": 2, "velocity": 79}, {"time": 1538, "pitch": 54, "duration": 1, "velocity": 65}, {"time": 1541, "pitch": 42, "duration": 1, "velocity": 86}, {"time": 1541, "pitch": 54, "duration": 1, "velocity": 73}, {"time": 1541, "pitch": 58, "duration": 1, "velocity": 62}, {"time": 1544, "pitch": 42, "duration": 1, "velocity": 81}, {"time": 1544, "pitch": 54, "duration": 1, "velocity": 73}, {"time": 1544, "pitch": 58, "duration": 1, "velocity": 63}, {"time": 1544, "pitch": 61, "duration": 1, "velocity": 75}, {"time": 1547, "pitch": 42, "duration": 3, "velocity": 100}, {"time": 1547, "pitch": 54, "duration": 3, "velocity": 98}, {"time": 1547, "pitch": 58, "duration": 3, "velocity": 90}, {"time": 1547, "pitch": 61, "duration": 3, "velocity": 100}, {"time": 1550, "pitch": 42, "duration": 7, "velocity": 81}, {"time": 1550, "pitch": 54, "duration": 6, "velocity": 108}, {"time": 1550, "pitch": 58, "duration": 6, "velocity": 86}, {"time": 1550, "pitch": 61, "duration": 6, "velocity": 100}, {"time": 1559, "pitch": 43, "duration": 43, "velocity": 117}, {"time": 1559, "pitch": 55, "duration": 11, "velocity": 90}, {"time": 1559, "pitch": 59, "duration": 11, "velocity": 85}, {"time": 1559, "pitch": 62, "duration": 11, "velocity": 86}, {"time": 1571, "pitch": 55, "duration": 11, "velocity": 83}, {"time": 1571, "pitch": 59, "duration": 11, "velocity": 74}, {"time": 1571, "pitch": 62, "duration": 11, "velocity": 77}, {"time": 1583, "pitch": 55, "duration": 11, "velocity": 86}, {"time": 1583, "pitch": 59, "duration": 11, "velocity": 77}, {"time": 1583, "pitch": 62, "duration": 11, "velocity": 86}, {"time": 1595, "pitch": 55, "duration": 7, "velocity": 98}, {"time": 1595, "pitch": 59, "duration": 7, "velocity": 81}, {"time": 1595, "pitch": 62, "duration": 7, "velocity": 85}, {"time": 1607, "pitch": 42, "duration": 20, "velocity": 83}, {"time": 1607, "pitch": 54, "duration": 10, "velocity": 95}, {"time": 1607, "pitch": 57, "duration": 10, "velocity": 74}, {"time": 1607, "pitch": 61, "duration": 10, "velocity": 87}, {"time": 1619, "pitch": 54, "duration": 10, "velocity": 111}, {"time": 1619, "pitch": 57, "duration": 10, "velocity": 87}, {"time": 1619, "pitch": 61, "duration": 10, "velocity": 108}, {"time": 1631, "pitch": 47, "duration": 18, "velocity": 76}, {"time": 1631, "pitch": 59, "duration": 10, "velocity": 74}, {"time": 1631, "pitch": 62, "duration": 10, "velocity": 76}, {"time": 1631, "pitch": 66, "duration": 10, "velocity": 75}, {"time": 1643, "pitch": 59, "duration": 9, "velocity": 77}, {"time": 1643, "pitch": 62, "duration": 7, "velocity": 90}, {"time": 1643, "pitch": 66, "duration": 7, "velocity": 93}, {"time": 1655, "pitch": 43, "duration": 2, "velocity": 114}, {"time": 1655, "pitch": 55, "duration": 2, "velocity": 87}, {"time": 1655, "pitch": 59, "duration": 1, "velocity": 81}, {"time": 1655, "pitch": 62, "duration": 1, "velocity": 81}, {"time": 1661, "pitch": 43, "duration": 2, "velocity": 111}, {"time": 1661, "pitch": 55, "duration": 2, "velocity": 70}, {"time": 1661, "pitch": 59, "duration": 2, "velocity": 69}, {"time": 1661, "pitch": 62, "duration": 2, "velocity": 74}, {"time": 1667, "pitch": 43, "duration": 2, "velocity": 121}, {"time": 1667, "pitch": 55, "duration": 2, "velocity": 75}, {"time": 1667, "pitch": 59, "duration": 2, "velocity": 72}, {"time": 1667, "pitch": 62, "duration": 2, "velocity": 70}, {"time": 1673, "pitch": 43, "duration": 2, "velocity": 117}, {"time": 1673, "pitch": 55, "duration": 2, "velocity": 81}, {"time": 1673, "pitch": 59, "duration": 1, "velocity": 76}, {"time": 1673, "pitch": 62, "duration": 1, "velocity": 77}, {"time": 1679, "pitch": 42, "duration": 2, "velocity": 83}, {"time": 1679, "pitch": 54, "duration": 2, "velocity": 83}, {"time": 1679, "pitch": 57, "duration": 2, "velocity": 74}, {"time": 1679, "pitch": 61, "duration": 2, "velocity": 85}, {"time": 1685, "pitch": 42, "duration": 2, "velocity": 65}, {"time": 1685, "pitch": 54, "duration": 4, "velocity": 79}, {"time": 1685, "pitch": 57, "duration": 2, "velocity": 81}, {"time": 1685, "pitch": 61, "duration": 1, "velocity": 76}, {"time": 1691, "pitch": 42, "duration": 2, "velocity": 73}, {"time": 1691, "pitch": 54, "duration": 3, "velocity": 83}, {"time": 1691, "pitch": 57, "duration": 3, "velocity": 83}, {"time": 1691, "pitch": 61, "duration": 3, "velocity": 93}, {"time": 1697, "pitch": 42, "duration": 2, "velocity": 85}, {"time": 1697, "pitch": 54, "duration": 2, "velocity": 87}, {"time": 1697, "pitch": 57, "duration": 1, "velocity": 83}, {"time": 1697, "pitch": 61, "duration": 1, "velocity": 90}, {"time": 1703, "pitch": 43, "duration": 9, "velocity": 98}, {"time": 1703, "pitch": 55, "duration": 8, "velocity": 120}, {"time": 1712, "pitch": 42, "duration": 10, "velocity": 75}, {"time": 1712, "pitch": 54, "duration": 9, "velocity": 111}, {"time": 1721, "pitch": 37, "duration": 6, "velocity": 90}, {"time": 1721, "pitch": 49, "duration": 5, "velocity": 112}, {"time": 1727, "pitch": 42, "duration": 2, "velocity": 81}, {"time": 1727, "pitch": 42, "duration": 2, "velocity": 86}, {"time": 1727, "pitch": 54, "duration": 1, "velocity": 77}, {"time": 1727, "pitch": 54, "duration": 1, "velocity": 98}, {"time": 1730, "pitch": 42, "duration": 3, "velocity": 95}, {"time": 1730, "pitch": 42, "duration": 3, "velocity": 108}, {"time": 1730, "pitch": 54, "duration": 3, "velocity": 108}, {"time": 1730, "pitch": 54, "duration": 3, "velocity": 120}, {"time": 1730, "pitch": 58, "duration": 3, "velocity": 81}, {"time": 1730, "pitch": 61, "duration": 3, "velocity": 98}, {"time": 1751, "pitch": 43, "duration": 7, "velocity": 90}, {"time": 1751, "pitch": 43, "duration": 7, "velocity": 93}, {"time": 1751, "pitch": 55, "duration": 12, "velocity": 71}, {"time": 1751, "pitch": 59, "duration": 12, "velocity": 60}, {"time": 1751, "pitch": 62, "duration": 12, "velocity": 59}, {"time": 1763, "pitch": 55, "duration": 10, "velocity": 70}, {"time": 1763, "pitch": 59, "duration": 10, "velocity": 61}, {"time": 1763, "pitch": 62, "duration": 10, "velocity": 63}, {"time": 1775, "pitch": 55, "duration": 10, "velocity": 71}, {"time": 1775, "pitch": 59, "duration": 10, "velocity": 61}, {"time": 1775, "pitch": 62, "duration": 10, "velocity": 61}, {"time": 1787, "pitch": 55, "duration": 5, "velocity": 74}, {"time": 1787, "pitch": 59, "duration": 5, "velocity": 65}, {"time": 1787, "pitch": 62, "duration": 6, "velocity": 65}, {"time": 1799, "pitch": 42, "duration": 45, "velocity": 70}, {"time": 1799, "pitch": 54, "duration": 11, "velocity": 65}, {"time": 1799, "pitch": 57, "duration": 11, "velocity": 67}, {"time": 1799, "pitch": 61, "duration": 11, "velocity": 60}, {"time": 1811, "pitch": 54, "duration": 12, "velocity": 62}, {"time": 1811, "pitch": 57, "duration": 11, "velocity": 73}, {"time": 1811, "pitch": 61, "duration": 11, "velocity": 67}, {"time": 1823, "pitch": 54, "duration": 11, "velocity": 60}, {"time": 1823, "pitch": 57, "duration": 11, "velocity": 69}, {"time": 1823, "pitch": 61, "duration": 11, "velocity": 59}, {"time": 1835, "pitch": 54, "duration": 6, "velocity": 69}, {"time": 1835, "pitch": 57, "duration": 6, "velocity": 73}, {"time": 1835, "pitch": 61, "duration": 6, "velocity": 65}, {"time": 1847, "pitch": 40, "duration": 20, "velocity": 45}, {"time": 1847, "pitch": 40, "duration": 20, "velocity": 65}, {"time": 1847, "pitch": 52, "duration": 11, "velocity": 66}, {"time": 1847, "pitch": 55, "duration": 11, "velocity": 85}, {"time": 1847, "pitch": 59, "duration": 11, "velocity": 71}, {"time": 1859, "pitch": 52, "duration": 11, "velocity": 64}, {"time": 1859, "pitch": 55, "duration": 11, "velocity": 60}, {"time": 1859, "pitch": 59, "duration": 11, "velocity": 63}, {"time": 1871, "pitch": 52, "duration": 10, "velocity": 61}, {"time": 1871, "pitch": 55, "duration": 10, "velocity": 66}, {"time": 1871, "pitch": 59, "duration": 10, "velocity": 63}, {"time": 1883, "pitch": 52, "duration": 5, "velocity": 64}, {"time": 1883, "pitch": 55, "duration": 5, "velocity": 86}, {"time": 1883, "pitch": 59, "duration": 5, "velocity": 65}, {"time": 1895, "pitch": 42, "duration": 41, "velocity": 69}, {"time": 1895, "pitch": 54, "duration": 11, "velocity": 65}, {"time": 1895, "pitch": 58, "duration": 11, "velocity": 66}, {"time": 1895, "pitch": 61, "duration": 12, "velocity": 60}, {"time": 1907, "pitch": 54, "duration": 11, "velocity": 68}, {"time": 1907, "pitch": 58, "duration": 11, "velocity": 76}, {"time": 1907, "pitch": 61, "duration": 12, "velocity": 67}, {"time": 1919, "pitch": 54, "duration": 11, "velocity": 58}, {"time": 1919, "pitch": 58, "duration": 11, "velocity": 61}, {"time": 1919, "pitch": 61, "duration": 11, "velocity": 67}, {"time": 1931, "pitch": 54, "duration": 7, "velocity": 74}, {"time": 1931, "pitch": 58, "duration": 7, "velocity": 67}, {"time": 1931, "pitch": 61, "duration": 7, "velocity": 79}, {"time": 1943, "pitch": 43, "duration": 18, "velocity": 95}, {"time": 1943, "pitch": 55, "duration": 11, "velocity": 76}, {"time": 1943, "pitch": 59, "duration": 11, "velocity": 74}, {"time": 1943, "pitch": 62, "duration": 11, "velocity": 73}, {"time": 1955, "pitch": 55, "duration": 4, "velocity": 76}, {"time": 1955, "pitch": 59, "duration": 5, "velocity": 69}, {"time": 1955, "pitch": 62, "duration": 5, "velocity": 67}, {"time": 1964, "pitch": 45, "duration": 20, "velocity": 72}, {"time": 1964, "pitch": 57, "duration": 13, "velocity": 74}, {"time": 1964, "pitch": 61, "duration": 14, "velocity": 72}, {"time": 1964, "pitch": 64, "duration": 13, "velocity": 76}, {"time": 1979, "pitch": 57, "duration": 5, "velocity": 73}, {"time": 1979, "pitch": 61, "duration": 5, "velocity": 77}, {"time": 1979, "pitch": 64, "duration": 5, "velocity": 79}, {"time": 1991, "pitch": 42, "duration": 17, "velocity": 81}, {"time": 1991, "pitch": 54, "duration": 10, "velocity": 67}, {"time": 1991, "pitch": 57, "duration": 10, "velocity": 74}, {"time": 1991, "pitch": 61, "duration": 10, "velocity": 62}, {"time": 2003, "pitch": 54, "duration": 3, "velocity": 75}, {"time": 2003, "pitch": 57, "duration": 3, "velocity": 86}, {"time": 2003, "pitch": 61, "duration": 3, "velocity": 77}, {"time": 2012, "pitch": 47, "duration": 22, "velocity": 76}, {"time": 2012, "pitch": 59, "duration": 13, "velocity": 59}, {"time": 2012, "pitch": 62, "duration": 13, "velocity": 61}, {"time": 2012, "pitch": 66, "duration": 14, "velocity": 64}, {"time": 2027, "pitch": 59, "duration": 8, "velocity": 67}, {"time": 2027, "pitch": 62, "duration": 8, "velocity": 74}, {"time": 2027, "pitch": 66, "duration": 8, "velocity": 68}, {"time": 2039, "pitch": 43, "duration": 18, "velocity": 83}, {"time": 2039, "pitch": 55, "duration": 10, "velocity": 83}, {"time": 2039, "pitch": 59, "duration": 10, "velocity": 71}, {"time": 2039, "pitch": 62, "duration": 10, "velocity": 69}, {"time": 2051, "pitch": 55, "duration": 5, "velocity": 111}, {"time": 2051, "pitch": 59, "duration": 5, "velocity": 90}, {"time": 2051, "pitch": 62, "duration": 5, "velocity": 87}, {"time": 2060, "pitch": 42, "duration": 17, "velocity": 61}, {"time": 2060, "pitch": 54, "duration": 14, "velocity": 71}, {"time": 2060, "pitch": 57, "duration": 13, "velocity": 77}, {"time": 2060, "pitch": 61, "duration": 15, "velocity": 74}, {"time": 2075, "pitch": 54, "duration": 3, "velocity": 73}, {"time": 2075, "pitch": 57, "duration": 3, "velocity": 85}, {"time": 2075, "pitch": 61, "duration": 4, "velocity": 74}, {"time": 2087, "pitch": 47, "duration": 19, "velocity": 90}, {"time": 2087, "pitch": 59, "duration": 19, "velocity": 65}, {"time": 2087, "pitch": 62, "duration": 19, "velocity": 75}, {"time": 2087, "pitch": 66, "duration": 19, "velocity": 67}, {"time": 2111, "pitch": 47, "duration": 2, "velocity": 95}, {"time": 2111, "pitch": 59, "duration": 1, "velocity": 86}, {"time": 2111, "pitch": 62, "duration": 1, "velocity": 98}, {"time": 2111, "pitch": 66, "duration": 1, "velocity": 93}, {"time": 2114, "pitch": 47, "duration": 2, "velocity": 112}, {"time": 2114, "pitch": 59, "duration": 2, "velocity": 93}, {"time": 2114, "pitch": 62, "duration": 2, "velocity": 108}, {"time": 2114, "pitch": 66, "duration": 2, "velocity": 98}, {"time": 2135, "pitch": 43, "duration": 21, "velocity": 104}, {"time": 2135, "pitch": 55, "duration": 10, "velocity": 104}, {"time": 2135, "pitch": 59, "duration": 10, "velocity": 86}, {"time": 2135, "pitch": 62, "duration": 10, "velocity": 86}, {"time": 2147, "pitch": 55, "duration": 6, "velocity": 108}, {"time": 2147, "pitch": 59, "duration": 6, "velocity": 93}, {"time": 2147, "pitch": 62, "duration": 6, "velocity": 90}, {"time": 2159, "pitch": 45, "duration": 18, "velocity": 85}, {"time": 2159, "pitch": 57, "duration": 10, "velocity": 85}, {"time": 2159, "pitch": 61, "duration": 11, "velocity": 100}, {"time": 2159, "pitch": 64, "duration": 10, "velocity": 83}, {"time": 2171, "pitch": 57, "duration": 5, "velocity": 83}, {"time": 2171, "pitch": 61, "duration": 5, "velocity": 104}, {"time": 2171, "pitch": 64, "duration": 5, "velocity": 87}, {"time": 2183, "pitch": 42, "duration": 18, "velocity": 81}, {"time": 2183, "pitch": 54, "duration": 10, "velocity": 98}, {"time": 2183, "pitch": 57, "duration": 9, "velocity": 83}, {"time": 2183, "pitch": 61, "duration": 10, "velocity": 65}, {"time": 2195, "pitch": 54, "duration": 4, "velocity": 104}, {"time": 2195, "pitch": 57, "duration": 3, "velocity": 85}, {"time": 2195, "pitch": 61, "duration": 4, "velocity": 68}, {"time": 2207, "pitch": 47, "duration": 19, "velocity": 81}, {"time": 2207, "pitch": 59, "duration": 10, "velocity": 73}, {"time": 2207, "pitch": 62, "duration": 10, "velocity": 83}, {"time": 2207, "pitch": 66, "duration": 10, "velocity": 81}, {"time": 2219, "pitch": 59, "duration": 6, "velocity": 90}, {"time": 2219, "pitch": 62, "duration": 6, "velocity": 93}, {"time": 2219, "pitch": 66, "duration": 6, "velocity": 87}, {"time": 2231, "pitch": 43, "duration": 23, "velocity": 108}, {"time": 2231, "pitch": 55, "duration": 10, "velocity": 95}, {"time": 2231, "pitch": 59, "duration": 10, "velocity": 86}, {"time": 2231, "pitch": 62, "duration": 10, "velocity": 87}, {"time": 2243, "pitch": 55, "duration": 7, "velocity": 108}, {"time": 2243, "pitch": 59, "duration": 7, "velocity": 90}, {"time": 2243, "pitch": 62, "duration": 7, "velocity": 95}, {"time": 2255, "pitch": 45, "duration": 19, "velocity": 72}, {"time": 2255, "pitch": 57, "duration": 10, "velocity": 77}, {"time": 2255, "pitch": 61, "duration": 11, "velocity": 98}, {"time": 2255, "pitch": 64, "duration": 10, "velocity": 100}, {"time": 2267, "pitch": 57, "duration": 5, "velocity": 98}, {"time": 2267, "pitch": 61, "duration": 6, "velocity": 111}, {"time": 2267, "pitch": 64, "duration": 5, "velocity": 100}, {"time": 2279, "pitch": 50, "duration": 23, "velocity": 74}, {"time": 2279, "pitch": 62, "duration": 11, "velocity": 83}, {"time": 2279, "pitch": 66, "duration": 11, "velocity": 83}, {"time": 2279, "pitch": 69, "duration": 11, "velocity": 86}, {"time": 2291, "pitch": 62, "duration": 11, "velocity": 86}, {"time": 2291, "pitch": 66, "duration": 11, "velocity": 83}, {"time": 2291, "pitch": 69, "duration": 11, "velocity": 86}, {"time": 2303, "pitch": 50, "duration": 18, "velocity": 65}, {"time": 2303, "pitch": 62, "duration": 10, "velocity": 86}, {"time": 2303, "pitch": 66, "duration": 10, "velocity": 81}, {"time": 2303, "pitch": 69, "duration": 10, "velocity": 85}, {"time": 2315, "pitch": 62, "duration": 5, "velocity": 95}, {"time": 2315, "pitch": 66, "duration": 5, "velocity": 95}, {"time": 2315, "pitch": 69, "duration": 5, "velocity": 87}, {"time": 2327, "pitch": 43, "duration": 20, "velocity": 104}, {"time": 2327, "pitch": 55, "duration": 11, "velocity": 100}, {"time": 2327, "pitch": 59, "duration": 11, "velocity": 81}, {"time": 2327, "pitch": 62, "duration": 11, "velocity": 85}, {"time": 2339, "pitch": 55, "duration": 6, "velocity": 111}, {"time": 2339, "pitch": 59, "duration": 6, "velocity": 95}, {"time": 2339, "pitch": 62, "duration": 6, "velocity": 95}, {"time": 2351, "pitch": 45, "duration": 18, "velocity": 86}, {"time": 2351, "pitch": 57, "duration": 10, "velocity": 86}, {"time": 2351, "pitch": 61, "duration": 11, "velocity": 111}, {"time": 2351, "pitch": 64, "duration": 10, "velocity": 74}, {"time": 2363, "pitch": 57, "duration": 5, "velocity": 86}, {"time": 2363, "pitch": 61, "duration": 5, "velocity": 111}, {"time": 2363, "pitch": 64, "duration": 5, "velocity": 104}, {"time": 2375, "pitch": 42, "duration": 19, "velocity": 85}, {"time": 2375, "pitch": 54, "duration": 10, "velocity": 98}, {"time": 2375, "pitch": 57, "duration": 10, "velocity": 83}, {"time": 2378, "pitch": 61, "duration": 6, "velocity": 7}, {"time": 2387, "pitch": 54, "duration": 4, "velocity": 98}, {"time": 2387, "pitch": 57, "duration": 4, "velocity": 75}, {"time": 2387, "pitch": 61, "duration": 3, "velocity": 32}, {"time": 2399, "pitch": 44, "duration": 12, "velocity": 73}, {"time": 2399, "pitch": 50, "duration": 11, "velocity": 81}, {"time": 2399, "pitch": 54, "duration": 14, "velocity": 79}, {"time": 2399, "pitch": 59, "duration": 12, "velocity": 73}, {"time": 2414, "pitch": 43, "duration": 8, "velocity": 121}, {"time": 2414, "pitch": 55, "duration": 7, "velocity": 117}, {"time": 2414, "pitch": 59, "duration": 7, "velocity": 93}, {"time": 2414, "pitch": 62, "duration": 6, "velocity": 93}, {"time": 2423, "pitch": 40, "duration": 24, "velocity": 98}, {"time": 2423, "pitch": 52, "duration": 23, "velocity": 100}, {"time": 2423, "pitch": 55, "duration": 23, "velocity": 108}, {"time": 2423, "pitch": 59, "duration": 12, "velocity": 98}, {"time": 2435, "pitch": 59, "duration": 10, "velocity": 45}, {"time": 2447, "pitch": 42, "duration": 19, "velocity": 81}, {"time": 2447, "pitch": 54, "duration": 10, "velocity": 76}, {"time": 2447, "pitch": 57, "duration": 10, "velocity": 75}, {"time": 2447, "pitch": 61, "duration": 11, "velocity": 66}, {"time": 2459, "pitch": 54, "duration": 5, "velocity": 65}, {"time": 2459, "pitch": 57, "duration": 4, "velocity": 79}, {"time": 2459, "pitch": 61, "duration": 5, "velocity": 75}, {"time": 2471, "pitch": 47, "duration": 3, "velocity": 98}, {"time": 2471, "pitch": 59, "duration": 3, "velocity": 85}, {"time": 2471, "pitch": 62, "duration": 3, "velocity": 90}, {"time": 2471, "pitch": 66, "duration": 3, "velocity": 79}, {"time": 2477, "pitch": 47, "duration": 3, "velocity": 98}, {"time": 2477, "pitch": 59, "duration": 3, "velocity": 65}, {"time": 2477, "pitch": 62, "duration": 3, "velocity": 74}, {"time": 2477, "pitch": 66, "duration": 3, "velocity": 68}, {"time": 2483, "pitch": 47, "duration": 3, "velocity": 100}, {"time": 2483, "pitch": 59, "duration": 3, "velocity": 66}, {"time": 2483, "pitch": 62, "duration": 3, "velocity": 74}, {"time": 2483, "pitch": 66, "duration": 2, "velocity": 71}, {"time": 2489, "pitch": 47, "duration": 2, "velocity": 114}, {"time": 2489, "pitch": 59, "duration": 2, "velocity": 71}, {"time": 2489, "pitch": 62, "duration": 2, "velocity": 86}, {"time": 2489, "pitch": 66, "duration": 2, "velocity": 85}, {"time": 2498, "pitch": 47, "duration": 2, "velocity": 95}, {"time": 2498, "pitch": 59, "duration": 2, "velocity": 65}, {"time": 2498, "pitch": 62, "duration": 2, "velocity": 85}, {"time": 2498, "pitch": 66, "duration": 1, "velocity": 74}, {"time": 2501, "pitch": 47, "duration": 2, "velocity": 95}, {"time": 2501, "pitch": 59, "duration": 1, "velocity": 69}, {"time": 2501, "pitch": 62, "duration": 1, "velocity": 83}, {"time": 2501, "pitch": 66, "duration": 1, "velocity": 87}, {"time": 2504, "pitch": 47, "duration": 2, "velocity": 111}, {"time": 2504, "pitch": 59, "duration": 1, "velocity": 73}, {"time": 2504, "pitch": 62, "duration": 1, "velocity": 86}, {"time": 2504, "pitch": 66, "duration": 1, "velocity": 90}, {"time": 2507, "pitch": 47, "duration": 2, "velocity": 98}, {"time": 2507, "pitch": 59, "duration": 1, "velocity": 58}, {"time": 2507, "pitch": 62, "duration": 1, "velocity": 64}, {"time": 2507, "pitch": 66, "duration": 1, "velocity": 65}, {"time": 2510, "pitch": 47, "duration": 2, "velocity": 93}, {"time": 2510, "pitch": 59, "duration": 1, "velocity": 60}, {"time": 2510, "pitch": 62, "duration": 1, "velocity": 69}, {"time": 2510, "pitch": 66, "duration": 1, "velocity": 74}, {"time": 2513, "pitch": 47, "duration": 2, "velocity": 98}, {"time": 2513, "pitch": 59, "duration": 1, "velocity": 66}, {"time": 2513, "pitch": 62, "duration": 1, "velocity": 74}, {"time": 2513, "pitch": 66, "duration": 1, "velocity": 76}, {"time": 2516, "pitch": 47, "duration": 2, "velocity": 104}, {"time": 2516, "pitch": 59, "duration": 1, "velocity": 73}, {"time": 2516, "pitch": 62, "duration": 1, "velocity": 83}, {"time": 2516, "pitch": 66, "duration": 1, "velocity": 86}, {"time": 2519, "pitch": 66, "duration": 4, "velocity": 72}, {"time": 2522, "pitch": 59, "duration": 4, "velocity": 63}, {"time": 2525, "pitch": 64, "duration": 3, "velocity": 64}, {"time": 2528, "pitch": 59, "duration": 3, "velocity": 61}, {"time": 2531, "pitch": 66, "duration": 4, "velocity": 63}, {"time": 2534, "pitch": 59, "duration": 3, "velocity": 73}, {"time": 2537, "pitch": 64, "duration": 4, "velocity": 69}, {"time": 2540, "pitch": 59, "duration": 3, "velocity": 63}, {"time": 2543, "pitch": 64, "duration": 4, "velocity": 68}, {"time": 2546, "pitch": 57, "duration": 3, "velocity": 71}, {"time": 2549, "pitch": 61, "duration": 3, "velocity": 71}, {"time": 2552, "pitch": 57, "duration": 4, "velocity": 61}, {"time": 2555, "pitch": 64, "duration": 4, "velocity": 64}, {"time": 2558, "pitch": 57, "duration": 4, "velocity": 67}, {"time": 2561, "pitch": 61, "duration": 3, "velocity": 65}, {"time": 2564, "pitch": 57, "duration": 4, "velocity": 63}, {"time": 2567, "pitch": 66, "duration": 3, "velocity": 74}, {"time": 2570, "pitch": 57, "duration": 3, "velocity": 65}, {"time": 2573, "pitch": 61, "duration": 2, "velocity": 75}, {"time": 2576, "pitch": 57, "duration": 3, "velocity": 66}, {"time": 2579, "pitch": 66, "duration": 3, "velocity": 75}, {"time": 2582, "pitch": 57, "duration": 3, "velocity": 60}, {"time": 2585, "pitch": 61, "duration": 3, "velocity": 69}, {"time": 2588, "pitch": 57, "duration": 3, "velocity": 59}, {"time": 2591, "pitch": 66, "duration": 5, "velocity": 73}, {"time": 2594, "pitch": 64, "duration": 3, "velocity": 75}, {"time": 2597, "pitch": 62, "duration": 2, "velocity": 83}, {"time": 2600, "pitch": 61, "duration": 3, "velocity": 100}, {"time": 2603, "pitch": 47, "duration": 12, "velocity": 100}, {"time": 2603, "pitch": 59, "duration": 2, "velocity": 83}, {"time": 2606, "pitch": 57, "duration": 2, "velocity": 61}, {"time": 2615, "pitch": 43, "duration": 24, "velocity": 108}, {"time": 2615, "pitch": 55, "duration": 11, "velocity": 73}, {"time": 2615, "pitch": 59, "duration": 11, "velocity": 66}, {"time": 2615, "pitch": 62, "duration": 11, "velocity": 67}, {"time": 2627, "pitch": 55, "duration": 7, "velocity": 81}, {"time": 2627, "pitch": 59, "duration": 6, "velocity": 73}, {"time": 2627, "pitch": 62, "duration": 7, "velocity": 74}, {"time": 2639, "pitch": 45, "duration": 22, "velocity": 68}, {"time": 2639, "pitch": 57, "duration": 10, "velocity": 69}, {"time": 2639, "pitch": 61, "duration": 11, "velocity": 77}, {"time": 2642, "pitch": 64, "duration": 6, "velocity": 12}, {"time": 2651, "pitch": 57, "duration": 6, "velocity": 73}, {"time": 2651, "pitch": 61, "duration": 6, "velocity": 76}, {"time": 2651, "pitch": 64, "duration": 6, "velocity": 85}, {"time": 2663, "pitch": 38, "duration": 5, "velocity": 73}, {"time": 2663, "pitch": 50, "duration": 4, "velocity": 90}, {"time": 2663, "pitch": 54, "duration": 4, "velocity": 85}, {"time": 2663, "pitch": 57, "duration": 4, "velocity": 77}, {"time": 2669, "pitch": 38, "duration": 2, "velocity": 77}, {"time": 2669, "pitch": 50, "duration": 1, "velocity": 74}, {"time": 2669, "pitch": 54, "duration": 1, "velocity": 81}, {"time": 2669, "pitch": 57, "duration": 1, "velocity": 77}, {"time": 2672, "pitch": 38, "duration": 2, "velocity": 86}, {"time": 2672, "pitch": 50, "duration": 1, "velocity": 79}, {"time": 2672, "pitch": 54, "duration": 1, "velocity": 87}, {"time": 2672, "pitch": 57, "duration": 1, "velocity": 79}, {"time": 2675, "pitch": 38, "duration": 2, "velocity": 87}, {"time": 2675, "pitch": 50, "duration": 1, "velocity": 86}, {"time": 2675, "pitch": 54, "duration": 1, "velocity": 95}, {"time": 2675, "pitch": 57, "duration": 1, "velocity": 87}, {"time": 2678, "pitch": 38, "duration": 6, "velocity": 104}, {"time": 2678, "pitch": 50, "duration": 6, "velocity": 104}, {"time": 2678, "pitch": 54, "duration": 6, "velocity": 111}, {"time": 2678, "pitch": 57, "duration": 6, "velocity": 93}, {"time": 2687, "pitch": 50, "duration": 10, "velocity": 85}, {"time": 2687, "pitch": 62, "duration": 8, "velocity": 73}, {"time": 2687, "pitch": 66, "duration": 9, "velocity": 83}, {"time": 2687, "pitch": 69, "duration": 9, "velocity": 79}, {"time": 2699, "pitch": 50, "duration": 10, "velocity": 104}, {"time": 2699, "pitch": 60, "duration": 8, "velocity": 100}, {"time": 2699, "pitch": 66, "duration": 8, "velocity": 95}, {"time": 2699, "pitch": 69, "duration": 8, "velocity": 95}, {"time": 2711, "pitch": 43, "duration": 20, "velocity": 95}, {"time": 2711, "pitch": 55, "duration": 11, "velocity": 95}, {"time": 2711, "pitch": 59, "duration": 11, "velocity": 83}, {"time": 2711, "pitch": 62, "duration": 11, "velocity": 77}, {"time": 2723, "pitch": 55, "duration": 6, "velocity": 108}, {"time": 2723, "pitch": 59, "duration": 6, "velocity": 83}, {"time": 2723, "pitch": 62, "duration": 6, "velocity": 79}, {"time": 2735, "pitch": 45, "duration": 17, "velocity": 85}, {"time": 2735, "pitch": 57, "duration": 10, "velocity": 79}, {"time": 2735, "pitch": 61, "duration": 11, "velocity": 93}, {"time": 2735, "pitch": 64, "duration": 11, "velocity": 85}, {"time": 2747, "pitch": 57, "duration": 5, "velocity": 95}, {"time": 2747, "pitch": 61, "duration": 5, "velocity": 112}, {"time": 2747, "pitch": 64, "duration": 5, "velocity": 95}, {"time": 2759, "pitch": 42, "duration": 5, "velocity": 85}, {"time": 2759, "pitch": 54, "duration": 7, "velocity": 86}, {"time": 2759, "pitch": 57, "duration": 5, "velocity": 75}, {"time": 2759, "pitch": 61, "duration": 5, "velocity": 86}, {"time": 2768, "pitch": 42, "duration": 4, "velocity": 93}, {"time": 2768, "pitch": 54, "duration": 4, "velocity": 104}, {"time": 2768, "pitch": 57, "duration": 4, "velocity": 86}, {"time": 2768, "pitch": 61, "duration": 4, "velocity": 87}, {"time": 2774, "pitch": 42, "duration": 2, "velocity": 83}, {"time": 2774, "pitch": 54, "duration": 2, "velocity": 98}, {"time": 2774, "pitch": 57, "duration": 1, "velocity": 85}, {"time": 2774, "pitch": 61, "duration": 2, "velocity": 86}, {"time": 2780, "pitch": 56, "duration": 16, "velocity": 79}, {"time": 2780, "pitch": 62, "duration": 15, "velocity": 73}, {"time": 2780, "pitch": 66, "duration": 16, "velocity": 77}, {"time": 2780, "pitch": 71, "duration": 15, "velocity": 83}, {"time": 2807, "pitch": 40, "duration": 19, "velocity": 67}, {"time": 2807, "pitch": 52, "duration": 11, "velocity": 74}, {"time": 2807, "pitch": 55, "duration": 11, "velocity": 87}, {"time": 2807, "pitch": 59, "duration": 11, "velocity": 83}, {"time": 2819, "pitch": 52, "duration": 4, "velocity": 93}, {"time": 2819, "pitch": 55, "duration": 4, "velocity": 108}, {"time": 2819, "pitch": 59, "duration": 4, "velocity": 93}, {"time": 2828, "pitch": 42, "duration": 22, "velocity": 86}, {"time": 2828, "pitch": 54, "duration": 13, "velocity": 104}, {"time": 2828, "pitch": 57, "duration": 12, "velocity": 85}, {"time": 2828, "pitch": 61, "duration": 13, "velocity": 67}, {"time": 2843, "pitch": 54, "duration": 5, "velocity": 112}, {"time": 2843, "pitch": 57, "duration": 4, "velocity": 100}, {"time": 2843, "pitch": 61, "duration": 5, "velocity": 76}, {"time": 2855, "pitch": 47, "duration": 24, "velocity": 76}, {"time": 2855, "pitch": 59, "duration": 11, "velocity": 75}, {"time": 2855, "pitch": 62, "duration": 11, "velocity": 74}, {"time": 2855, "pitch": 66, "duration": 11, "velocity": 71}, {"time": 2867, "pitch": 59, "duration": 11, "velocity": 70}, {"time": 2867, "pitch": 62, "duration": 11, "velocity": 74}, {"time": 2867, "pitch": 66, "duration": 11, "velocity": 65}, {"time": 2879, "pitch": 47, "duration": 21, "velocity": 73}, {"time": 2879, "pitch": 59, "duration": 11, "velocity": 72}, {"time": 2879, "pitch": 62, "duration": 11, "velocity": 73}, {"time": 2879, "pitch": 66, "duration": 11, "velocity": 68}, {"time": 2891, "pitch": 59, "duration": 9, "velocity": 70}, {"time": 2891, "pitch": 62, "duration": 8, "velocity": 74}, {"time": 2891, "pitch": 66, "duration": 8, "velocity": 75}, {"time": 2903, "pitch": 40, "duration": 19, "velocity": 74}, {"time": 2903, "pitch": 52, "duration": 11, "velocity": 77}, {"time": 2903, "pitch": 55, "duration": 11, "velocity": 90}, {"time": 2903, "pitch": 59, "duration": 11, "velocity": 83}, {"time": 2915, "pitch": 52, "duration": 4, "velocity": 77}, {"time": 2915, "pitch": 55, "duration": 4, "velocity": 93}, {"time": 2915, "pitch": 59, "duration": 5, "velocity": 83}, {"time": 2924, "pitch": 42, "duration": 22, "velocity": 74}, {"time": 2924, "pitch": 54, "duration": 13, "velocity": 87}, {"time": 2924, "pitch": 57, "duration": 13, "velocity": 85}, {"time": 2924, "pitch": 61, "duration": 13, "velocity": 81}, {"time": 2939, "pitch": 54, "duration": 5, "velocity": 112}, {"time": 2939, "pitch": 57, "duration": 5, "velocity": 95}, {"time": 2939, "pitch": 61, "duration": 5, "velocity": 73}, {"time": 2951, "pitch": 43, "duration": 48, "velocity": 120}, {"time": 2951, "pitch": 59, "duration": 49, "velocity": 86}, {"time": 2951, "pitch": 62, "duration": 48, "velocity": 93}, {"time": 2951, "pitch": 66, "duration": 48, "velocity": 90}, {"time": 2999, "pitch": 47, "duration": 47, "velocity": 65}, {"time": 2999, "pitch": 59, "duration": 1, "velocity": 62}, {"time": 2999, "pitch": 62, "duration": 47, "velocity": 68}, {"time": 2999, "pitch": 66, "duration": 47, "velocity": 62}], "annotations": [{"time": 23, "annotation": {"number": 64, "value": 74}, "group": "control_change"}, {"time": 35, "annotation": {"number": 64, "value": 79}, "group": "control_change"}, {"time": 47, "annotation": {"number": 64, "value": 81}, "group": "control_change"}, {"time": 59, "annotation": {"number": 64, "value": 69}, "group": "control_change"}, {"time": 71, "annotation": {"number": 64, "value": 75}, "group": "control_change"}, {"time": 83, "annotation": {"number": 64, "value": 91}, "group": "control_change"}, {"time": 95, "annotation": {"number": 64, "value": 102}, "group": "control_change"}, {"time": 107, "annotation": {"number": 64, "value": 95}, "group": "control_change"}, {"time": 119, "annotation": {"number": 64, "value": 81}, "group": "control_change"}, {"time": 131, "annotation": {"number": 64, "value": 72}, "group": "control_change"}, {"time": 474, "annotation": {"number": 64, "value": 71}, "group": "control_change"}, {"time": 475, "annotation": {"number": 64, "value": 0}, "group": "control_change"}, {"time": 476, "annotation": {"number": 64, "value": 73}, "group": "control_change"}, {"time": 959, "annotation": {"number": 64, "value": 11}, "group": "control_change"}, {"time": 971, "annotation": {"number": 64, "value": 10}, "group": "control_change"}, {"time": 983, "annotation": {"number": 64, "value": 78}, "group": "control_change"}, {"time": 995, "annotation": {"number": 64, "value": 83}, "group": "control_change"}, {"time": 1007, "annotation": {"number": 64, "value": 90}, "group": "control_change"}, {"time": 1019, "annotation": {"number": 64, "value": 69}, "group": "control_change"}, {"time": 1247, "annotation": {"number": 64, "value": 23}, "group": "control_change"}, {"time": 1259, "annotation": {"number": 64, "value": 22}, "group": "control_change"}, {"time": 1271, "annotation": {"number": 64, "value": 73}, "group": "control_change"}, {"time": 1283, "annotation": {"number": 64, "value": 80}, "group": "control_change"}, {"time": 1655, "annotation": {"number": 64, "value": 16}, "group": "control_change"}, {"time": 1667, "annotation": {"number": 64, "value": 17}, "group": "control_change"}, {"time": 1679, "annotation": {"number": 64, "value": 7}, "group": "control_change"}, {"time": 1691, "annotation": {"number": 64, "value": 16}, "group": "control_change"}, {"time": 1703, "annotation": {"number": 64, "value": 23}, "group": "control_change"}, {"time": 1715, "annotation": {"number": 64, "value": 21}, "group": "control_change"}, {"time": 1727, "annotation": {"number": 64, "value": 81}, "group": "control_change"}, {"time": 1739, "annotation": {"number": 64, "value": 96}, "group": "control_change"}, {"time": 2111, "annotation": {"number": 64, "value": 16}, "group": "control_change"}, {"time": 2123, "annotation": {"number": 64, "value": 26}, "group": "control_change"}, {"time": 2135, "annotation": {"number": 64, "value": 78}, "group": "control_change"}, {"time": 2147, "annotation": {"number": 64, "value": 80}, "group": "control_change"}, {"time": 2159, "annotation": {"number": 64, "value": 78}, "group": "control_change"}, {"time": 2471, "annotation": {"number": 64, "value": 11}, "group": "control_change"}, {"time": 2483, "annotation": {"number": 64, "value": 4}, "group": "control_change"}, {"time": 2495, "annotation": {"number": 64, "value": 16}, "group": "control_change"}, {"time": 2507, "annotation": {"number": 64, "value": 20}, "group": "control_change"}, {"time": 2519, "annotation": {"number": 64, "value": 79}, "group": "control_change"}, {"time": 2531, "annotation": {"number": 64, "value": 80}, "group": "control_change"}, {"time": 2543, "annotation": {"number": 64, "value": 86}, "group": "control_change"}, {"time": 2555, "annotation": {"number": 64, "value": 68}, "group": "control_change"}, {"time": 2567, "annotation": {"number": 64, "value": 67}, "group": "control_change"}, {"time": 2579, "annotation": {"number": 64, "value": 86}, "group": "control_change"}, {"time": 2591, "annotation": {"number": 64, "value": 95}, "group": "control_change"}, {"time": 2603, "annotation": {"number": 64, "value": 80}, "group": "control_change"}, {"time": 2615, "annotation": {"number": 64, "value": 65}, "group": "control_change"}, {"time": 2783, "annotation": {"number": 64, "value": 33}, "group": "control_change"}, {"time": 2795, "annotation": {"number": 64, "value": 80}, "group": "control_change"}, {"time": 2807, "annotation": {"number": 64, "value": 73}, "group": "control_change"}, {"time": 2819, "annotation": {"number": 64, "value": 83}, "group": "control_change"}, {"time": 2831, "annotation": {"number": 64, "value": 85}, "group": "control_change"}, {"time": 2843, "annotation": {"number": 64, "value": 79}, "group": "control_change"}, {"time": 2855, "annotation": {"number": 64, "value": 78}, "group": "control_change"}, {"time": 2987, "annotation": {"number": 64, "value": 26}, "group": "control_change"}, {"time": 2999, "annotation": {"number": 64, "value": 76}, "group": "control_change"}, {"time": 3011, "annotation": {"number": 64, "value": 83}, "group": "control_change"}, {"time": 3023, "annotation": {"number": 64, "value": 90}, "group": "control_change"}, {"time": 3035, "annotation": {"number": 64, "value": 73}, "group": "control_change"}, {"time": 3047, "annotation": {"number": 64, "value": 80}, "group": "control_change"}]}]}