{"metadata": {"schema_version": "0.2", "title": "None", "source_filename": "088.mid", "source_format": "midi"}, "resolution": 12, "tempos": [{"time": 0, "qpm": 139.9704195846611}], "time_signatures": [{"time": 0, "numerator": 4, "denominator": 4}], "tracks": [{"program": 4, "is_drum": false, "name": "MELODY", "notes": [{"time": 777, "pitch": 75, "duration": 12, "velocity": 90}, {"time": 789, "pitch": 74, "duration": 12, "velocity": 85}, {"time": 801, "pitch": 70, "duration": 12, "velocity": 83}, {"time": 813, "pitch": 72, "duration": 48, "velocity": 89}, {"time": 861, "pitch": 67, "duration": 6, "velocity": 72}, {"time": 867, "pitch": 65, "duration": 6, "velocity": 76}, {"time": 873, "pitch": 63, "duration": 12, "velocity": 65}, {"time": 885, "pitch": 65, "duration": 12, "velocity": 66}, {"time": 897, "pitch": 70, "duration": 12, "velocity": 79}, {"time": 909, "pitch": 67, "duration": 60, "velocity": 94}, {"time": 969, "pitch": 67, "duration": 24, "velocity": 106}, {"time": 993, "pitch": 70, "duration": 12, "velocity": 105}, {"time": 1005, "pitch": 67, "duration": 12, "velocity": 95}, {"time": 1017, "pitch": 65, "duration": 36, "velocity": 92}, {"time": 1053, "pitch": 72, "duration": 6, "velocity": 90}, {"time": 1059, "pitch": 72, "duration": 6, "velocity": 90}, {"time": 1065, "pitch": 70, "duration": 12, "velocity": 90}, {"time": 1077, "pitch": 72, "duration": 12, "velocity": 91}, {"time": 1089, "pitch": 74, "duration": 12, "velocity": 93}, {"time": 1101, "pitch": 70, "duration": 6, "velocity": 64}, {"time": 1107, "pitch": 67, "duration": 54, "velocity": 52}, {"time": 1161, "pitch": 75, "duration": 12, "velocity": 101}, {"time": 1173, "pitch": 74, "duration": 12, "velocity": 94}, {"time": 1185, "pitch": 70, "duration": 12, "velocity": 87}, {"time": 1197, "pitch": 72, "duration": 48, "velocity": 91}, {"time": 1245, "pitch": 67, "duration": 7, "velocity": 93}, {"time": 1251, "pitch": 65, "duration": 6, "velocity": 84}, {"time": 1257, "pitch": 63, "duration": 12, "velocity": 81}, {"time": 1269, "pitch": 65, "duration": 12, "velocity": 73}, {"time": 1281, "pitch": 70, "duration": 12, "velocity": 87}, {"time": 1293, "pitch": 67, "duration": 48, "velocity": 95}, {"time": 1341, "pitch": 63, "duration": 6, "velocity": 87}, {"time": 1347, "pitch": 65, "duration": 6, "velocity": 86}, {"time": 1353, "pitch": 67, "duration": 24, "velocity": 89}, {"time": 1377, "pitch": 70, "duration": 12, "velocity": 90}, {"time": 1389, "pitch": 67, "duration": 12, "velocity": 90}, {"time": 1401, "pitch": 65, "duration": 24, "velocity": 87}, {"time": 1425, "pitch": 63, "duration": 12, "velocity": 90}, {"time": 1437, "pitch": 62, "duration": 12, "velocity": 68}, {"time": 1449, "pitch": 62, "duration": 9, "velocity": 66}, {"time": 1458, "pitch": 60, "duration": 87, "velocity": 63}, {"time": 1545, "pitch": 75, "duration": 12, "velocity": 96}, {"time": 1557, "pitch": 74, "duration": 12, "velocity": 93}, {"time": 1569, "pitch": 70, "duration": 12, "velocity": 90}, {"time": 1581, "pitch": 72, "duration": 48, "velocity": 96}, {"time": 1629, "pitch": 67, "duration": 6, "velocity": 94}, {"time": 1635, "pitch": 65, "duration": 6, "velocity": 84}, {"time": 1641, "pitch": 63, "duration": 12, "velocity": 66}, {"time": 1653, "pitch": 65, "duration": 12, "velocity": 84}, {"time": 1665, "pitch": 70, "duration": 12, "velocity": 93}, {"time": 1677, "pitch": 67, "duration": 60, "velocity": 100}, {"time": 1737, "pitch": 67, "duration": 24, "velocity": 99}, {"time": 1761, "pitch": 70, "duration": 12, "velocity": 97}, {"time": 1773, "pitch": 67, "duration": 6, "velocity": 72}, {"time": 1779, "pitch": 67, "duration": 6, "velocity": 92}, {"time": 1785, "pitch": 65, "duration": 36, "velocity": 69}, {"time": 1821, "pitch": 72, "duration": 6, "velocity": 63}, {"time": 1827, "pitch": 72, "duration": 6, "velocity": 90}, {"time": 1833, "pitch": 70, "duration": 12, "velocity": 98}, {"time": 1845, "pitch": 72, "duration": 12, "velocity": 97}, {"time": 1857, "pitch": 74, "duration": 12, "velocity": 99}, {"time": 1869, "pitch": 70, "duration": 6, "velocity": 72}, {"time": 1875, "pitch": 70, "duration": 12, "velocity": 84}, {"time": 1887, "pitch": 67, "duration": 42, "velocity": 58}, {"time": 1929, "pitch": 75, "duration": 12, "velocity": 109}, {"time": 1941, "pitch": 74, "duration": 12, "velocity": 103}, {"time": 1953, "pitch": 70, "duration": 12, "velocity": 98}, {"time": 1965, "pitch": 72, "duration": 48, "velocity": 101}, {"time": 2013, "pitch": 67, "duration": 6, "velocity": 99}, {"time": 2019, "pitch": 65, "duration": 6, "velocity": 89}, {"time": 2025, "pitch": 63, "duration": 12, "velocity": 87}, {"time": 2037, "pitch": 65, "duration": 12, "velocity": 91}, {"time": 2049, "pitch": 70, "duration": 12, "velocity": 95}, {"time": 2061, "pitch": 67, "duration": 48, "velocity": 103}, {"time": 2109, "pitch": 63, "duration": 7, "velocity": 90}, {"time": 2115, "pitch": 65, "duration": 6, "velocity": 81}, {"time": 2121, "pitch": 67, "duration": 12, "velocity": 89}, {"time": 2133, "pitch": 67, "duration": 6, "velocity": 93}, {"time": 2139, "pitch": 70, "duration": 18, "velocity": 85}, {"time": 2157, "pitch": 67, "duration": 12, "velocity": 74}, {"time": 2169, "pitch": 65, "duration": 18, "velocity": 84}, {"time": 2187, "pitch": 67, "duration": 18, "velocity": 87}, {"time": 2205, "pitch": 70, "duration": 12, "velocity": 80}, {"time": 2217, "pitch": 72, "duration": 108, "velocity": 101}, {"time": 2325, "pitch": 72, "duration": 12, "velocity": 103}, {"time": 2337, "pitch": 72, "duration": 12, "velocity": 90}, {"time": 2349, "pitch": 75, "duration": 12, "velocity": 93}, {"time": 2361, "pitch": 77, "duration": 12, "velocity": 97}, {"time": 2373, "pitch": 79, "duration": 12, "velocity": 94}, {"time": 2385, "pitch": 79, "duration": 12, "velocity": 97}, {"time": 2397, "pitch": 75, "duration": 24, "velocity": 96}, {"time": 2421, "pitch": 72, "duration": 12, "velocity": 105}, {"time": 2433, "pitch": 72, "duration": 12, "velocity": 93}, {"time": 2445, "pitch": 74, "duration": 12, "velocity": 94}, {"time": 2457, "pitch": 72, "duration": 12, "velocity": 96}, {"time": 2469, "pitch": 74, "duration": 6, "velocity": 90}, {"time": 2475, "pitch": 72, "duration": 6, "velocity": 87}, {"time": 2481, "pitch": 70, "duration": 12, "velocity": 90}, {"time": 2493, "pitch": 67, "duration": 24, "velocity": 91}, {"time": 2517, "pitch": 72, "duration": 12, "velocity": 98}, {"time": 2529, "pitch": 72, "duration": 12, "velocity": 92}, {"time": 2541, "pitch": 75, "duration": 12, "velocity": 97}, {"time": 2553, "pitch": 77, "duration": 12, "velocity": 80}, {"time": 2565, "pitch": 79, "duration": 12, "velocity": 62}, {"time": 2577, "pitch": 79, "duration": 12, "velocity": 90}, {"time": 2589, "pitch": 75, "duration": 24, "velocity": 97}, {"time": 2613, "pitch": 72, "duration": 12, "velocity": 97}, {"time": 2625, "pitch": 72, "duration": 12, "velocity": 95}, {"time": 2637, "pitch": 74, "duration": 12, "velocity": 93}, {"time": 2649, "pitch": 72, "duration": 12, "velocity": 87}, {"time": 2661, "pitch": 74, "duration": 6, "velocity": 90}, {"time": 2667, "pitch": 72, "duration": 6, "velocity": 84}, {"time": 2673, "pitch": 70, "duration": 12, "velocity": 87}, {"time": 2685, "pitch": 67, "duration": 24, "velocity": 67}, {"time": 2709, "pitch": 77, "duration": 6, "velocity": 87}, {"time": 2715, "pitch": 77, "duration": 6, "velocity": 86}, {"time": 2721, "pitch": 77, "duration": 12, "velocity": 90}, {"time": 2733, "pitch": 77, "duration": 12, "velocity": 84}, {"time": 2745, "pitch": 74, "duration": 13, "velocity": 77}, {"time": 2757, "pitch": 72, "duration": 12, "velocity": 77}, {"time": 2769, "pitch": 70, "duration": 12, "velocity": 89}, {"time": 2781, "pitch": 67, "duration": 24, "velocity": 66}, {"time": 2805, "pitch": 77, "duration": 6, "velocity": 95}, {"time": 2811, "pitch": 77, "duration": 6, "velocity": 93}, {"time": 2817, "pitch": 77, "duration": 12, "velocity": 87}, {"time": 2829, "pitch": 77, "duration": 12, "velocity": 90}, {"time": 2841, "pitch": 74, "duration": 12, "velocity": 95}, {"time": 2853, "pitch": 72, "duration": 12, "velocity": 98}, {"time": 2865, "pitch": 70, "duration": 12, "velocity": 90}, {"time": 2877, "pitch": 67, "duration": 12, "velocity": 86}, {"time": 2889, "pitch": 72, "duration": 12, "velocity": 66}, {"time": 2901, "pitch": 72, "duration": 84, "velocity": 66}, {"time": 3657, "pitch": 75, "duration": 12, "velocity": 90}, {"time": 3669, "pitch": 74, "duration": 12, "velocity": 85}, {"time": 3681, "pitch": 70, "duration": 12, "velocity": 83}, {"time": 3693, "pitch": 72, "duration": 48, "velocity": 89}, {"time": 3741, "pitch": 67, "duration": 6, "velocity": 72}, {"time": 3747, "pitch": 65, "duration": 6, "velocity": 76}, {"time": 3753, "pitch": 63, "duration": 12, "velocity": 65}, {"time": 3765, "pitch": 65, "duration": 12, "velocity": 66}, {"time": 3777, "pitch": 70, "duration": 12, "velocity": 79}, {"time": 3789, "pitch": 67, "duration": 60, "velocity": 94}, {"time": 3849, "pitch": 67, "duration": 24, "velocity": 106}, {"time": 3873, "pitch": 70, "duration": 12, "velocity": 105}, {"time": 3885, "pitch": 67, "duration": 6, "velocity": 95}, {"time": 3891, "pitch": 65, "duration": 42, "velocity": 92}, {"time": 3933, "pitch": 72, "duration": 6, "velocity": 90}, {"time": 3939, "pitch": 72, "duration": 6, "velocity": 90}, {"time": 3945, "pitch": 70, "duration": 12, "velocity": 90}, {"time": 3957, "pitch": 72, "duration": 12, "velocity": 91}, {"time": 3969, "pitch": 74, "duration": 12, "velocity": 93}, {"time": 3981, "pitch": 70, "duration": 6, "velocity": 64}, {"time": 3987, "pitch": 67, "duration": 54, "velocity": 52}, {"time": 4041, "pitch": 75, "duration": 12, "velocity": 101}, {"time": 4053, "pitch": 74, "duration": 12, "velocity": 94}, {"time": 4065, "pitch": 70, "duration": 12, "velocity": 87}, {"time": 4077, "pitch": 72, "duration": 48, "velocity": 91}, {"time": 4125, "pitch": 67, "duration": 7, "velocity": 93}, {"time": 4131, "pitch": 65, "duration": 6, "velocity": 84}, {"time": 4137, "pitch": 63, "duration": 12, "velocity": 81}, {"time": 4149, "pitch": 65, "duration": 12, "velocity": 73}, {"time": 4161, "pitch": 70, "duration": 12, "velocity": 87}, {"time": 4173, "pitch": 67, "duration": 48, "velocity": 95}, {"time": 4221, "pitch": 63, "duration": 6, "velocity": 87}, {"time": 4227, "pitch": 65, "duration": 6, "velocity": 86}, {"time": 4233, "pitch": 67, "duration": 12, "velocity": 89}, {"time": 4245, "pitch": 67, "duration": 6, "velocity": 89}, {"time": 4251, "pitch": 70, "duration": 18, "velocity": 90}, {"time": 4269, "pitch": 67, "duration": 12, "velocity": 90}, {"time": 4281, "pitch": 65, "duration": 15, "velocity": 87}, {"time": 4296, "pitch": 67, "duration": 21, "velocity": 87}, {"time": 4317, "pitch": 70, "duration": 12, "velocity": 90}, {"time": 4329, "pitch": 72, "duration": 108, "velocity": 68}, {"time": 4437, "pitch": 72, "duration": 12, "velocity": 103}, {"time": 4449, "pitch": 72, "duration": 12, "velocity": 90}, {"time": 4461, "pitch": 75, "duration": 12, "velocity": 93}, {"time": 4473, "pitch": 77, "duration": 12, "velocity": 97}, {"time": 4485, "pitch": 79, "duration": 12, "velocity": 94}, {"time": 4497, "pitch": 79, "duration": 12, "velocity": 97}, {"time": 4509, "pitch": 75, "duration": 24, "velocity": 96}, {"time": 4533, "pitch": 72, "duration": 12, "velocity": 105}, {"time": 4545, "pitch": 72, "duration": 12, "velocity": 93}, {"time": 4557, "pitch": 74, "duration": 12, "velocity": 94}, {"time": 4569, "pitch": 72, "duration": 12, "velocity": 96}, {"time": 4581, "pitch": 74, "duration": 6, "velocity": 90}, {"time": 4587, "pitch": 72, "duration": 6, "velocity": 87}, {"time": 4593, "pitch": 70, "duration": 12, "velocity": 90}, {"time": 4605, "pitch": 67, "duration": 24, "velocity": 91}, {"time": 4629, "pitch": 72, "duration": 12, "velocity": 98}, {"time": 4641, "pitch": 72, "duration": 12, "velocity": 92}, {"time": 4653, "pitch": 75, "duration": 12, "velocity": 97}, {"time": 4665, "pitch": 77, "duration": 12, "velocity": 80}, {"time": 4677, "pitch": 79, "duration": 12, "velocity": 62}, {"time": 4689, "pitch": 79, "duration": 12, "velocity": 90}, {"time": 4701, "pitch": 75, "duration": 24, "velocity": 97}, {"time": 4725, "pitch": 72, "duration": 12, "velocity": 97}, {"time": 4737, "pitch": 72, "duration": 12, "velocity": 95}, {"time": 4749, "pitch": 74, "duration": 12, "velocity": 93}, {"time": 4761, "pitch": 72, "duration": 12, "velocity": 87}, {"time": 4773, "pitch": 74, "duration": 6, "velocity": 90}, {"time": 4779, "pitch": 72, "duration": 6, "velocity": 84}, {"time": 4785, "pitch": 70, "duration": 12, "velocity": 87}, {"time": 4797, "pitch": 67, "duration": 24, "velocity": 67}, {"time": 4821, "pitch": 77, "duration": 6, "velocity": 87}, {"time": 4827, "pitch": 77, "duration": 6, "velocity": 86}, {"time": 4833, "pitch": 77, "duration": 12, "velocity": 90}, {"time": 4845, "pitch": 77, "duration": 12, "velocity": 84}, {"time": 4857, "pitch": 74, "duration": 13, "velocity": 77}, {"time": 4869, "pitch": 72, "duration": 12, "velocity": 77}, {"time": 4881, "pitch": 70, "duration": 12, "velocity": 89}, {"time": 4893, "pitch": 67, "duration": 24, "velocity": 66}, {"time": 4917, "pitch": 77, "duration": 6, "velocity": 95}, {"time": 4923, "pitch": 77, "duration": 6, "velocity": 93}, {"time": 4929, "pitch": 77, "duration": 12, "velocity": 87}, {"time": 4941, "pitch": 77, "duration": 12, "velocity": 90}, {"time": 4953, "pitch": 74, "duration": 12, "velocity": 95}, {"time": 4965, "pitch": 72, "duration": 12, "velocity": 98}, {"time": 4977, "pitch": 70, "duration": 12, "velocity": 90}, {"time": 4989, "pitch": 67, "duration": 12, "velocity": 86}, {"time": 5001, "pitch": 72, "duration": 12, "velocity": 66}, {"time": 5013, "pitch": 72, "duration": 96, "velocity": 66}, {"time": 5109, "pitch": 72, "duration": 12, "velocity": 103}, {"time": 5121, "pitch": 72, "duration": 12, "velocity": 90}, {"time": 5133, "pitch": 75, "duration": 12, "velocity": 93}, {"time": 5145, "pitch": 77, "duration": 12, "velocity": 97}, {"time": 5157, "pitch": 79, "duration": 12, "velocity": 94}, {"time": 5169, "pitch": 79, "duration": 12, "velocity": 97}, {"time": 5181, "pitch": 75, "duration": 24, "velocity": 96}, {"time": 5205, "pitch": 72, "duration": 12, "velocity": 105}, {"time": 5217, "pitch": 72, "duration": 12, "velocity": 93}, {"time": 5229, "pitch": 74, "duration": 12, "velocity": 94}, {"time": 5241, "pitch": 72, "duration": 12, "velocity": 96}, {"time": 5253, "pitch": 74, "duration": 6, "velocity": 90}, {"time": 5259, "pitch": 72, "duration": 6, "velocity": 87}, {"time": 5265, "pitch": 70, "duration": 12, "velocity": 90}, {"time": 5277, "pitch": 67, "duration": 24, "velocity": 91}, {"time": 5301, "pitch": 72, "duration": 12, "velocity": 98}, {"time": 5313, "pitch": 72, "duration": 12, "velocity": 92}, {"time": 5325, "pitch": 75, "duration": 12, "velocity": 97}, {"time": 5337, "pitch": 77, "duration": 12, "velocity": 80}, {"time": 5349, "pitch": 79, "duration": 12, "velocity": 62}, {"time": 5361, "pitch": 79, "duration": 12, "velocity": 90}, {"time": 5373, "pitch": 75, "duration": 24, "velocity": 97}, {"time": 5397, "pitch": 72, "duration": 12, "velocity": 97}, {"time": 5409, "pitch": 72, "duration": 12, "velocity": 95}, {"time": 5421, "pitch": 74, "duration": 12, "velocity": 93}, {"time": 5433, "pitch": 72, "duration": 12, "velocity": 87}, {"time": 5445, "pitch": 74, "duration": 6, "velocity": 90}, {"time": 5451, "pitch": 72, "duration": 6, "velocity": 84}, {"time": 5457, "pitch": 70, "duration": 12, "velocity": 87}, {"time": 5469, "pitch": 67, "duration": 24, "velocity": 67}, {"time": 5493, "pitch": 77, "duration": 6, "velocity": 87}, {"time": 5499, "pitch": 77, "duration": 6, "velocity": 86}, {"time": 5505, "pitch": 77, "duration": 12, "velocity": 90}, {"time": 5517, "pitch": 77, "duration": 12, "velocity": 84}, {"time": 5529, "pitch": 74, "duration": 14, "velocity": 77}, {"time": 5541, "pitch": 72, "duration": 12, "velocity": 77}, {"time": 5553, "pitch": 70, "duration": 12, "velocity": 89}, {"time": 5565, "pitch": 67, "duration": 24, "velocity": 66}, {"time": 5589, "pitch": 77, "duration": 6, "velocity": 95}, {"time": 5595, "pitch": 77, "duration": 6, "velocity": 93}, {"time": 5601, "pitch": 77, "duration": 12, "velocity": 87}, {"time": 5613, "pitch": 77, "duration": 12, "velocity": 90}, {"time": 5625, "pitch": 74, "duration": 12, "velocity": 95}, {"time": 5637, "pitch": 72, "duration": 12, "velocity": 98}, {"time": 5649, "pitch": 70, "duration": 12, "velocity": 90}, {"time": 5661, "pitch": 67, "duration": 12, "velocity": 86}, {"time": 5673, "pitch": 72, "duration": 12, "velocity": 66}, {"time": 5685, "pitch": 72, "duration": 180, "velocity": 66}, {"time": 5865, "pitch": 75, "duration": 12, "velocity": 90}, {"time": 5877, "pitch": 74, "duration": 12, "velocity": 85}, {"time": 5889, "pitch": 70, "duration": 12, "velocity": 83}, {"time": 5901, "pitch": 72, "duration": 48, "velocity": 89}, {"time": 5949, "pitch": 67, "duration": 6, "velocity": 72}, {"time": 5955, "pitch": 65, "duration": 6, "velocity": 76}, {"time": 5961, "pitch": 63, "duration": 12, "velocity": 65}, {"time": 5973, "pitch": 65, "duration": 12, "velocity": 66}, {"time": 5985, "pitch": 70, "duration": 12, "velocity": 79}, {"time": 5997, "pitch": 67, "duration": 60, "velocity": 94}, {"time": 6057, "pitch": 67, "duration": 24, "velocity": 106}, {"time": 6081, "pitch": 70, "duration": 12, "velocity": 105}, {"time": 6093, "pitch": 67, "duration": 12, "velocity": 95}, {"time": 6105, "pitch": 65, "duration": 36, "velocity": 92}, {"time": 6141, "pitch": 72, "duration": 6, "velocity": 90}, {"time": 6147, "pitch": 72, "duration": 6, "velocity": 90}, {"time": 6153, "pitch": 70, "duration": 12, "velocity": 90}, {"time": 6165, "pitch": 72, "duration": 12, "velocity": 91}, {"time": 6177, "pitch": 74, "duration": 12, "velocity": 93}, {"time": 6189, "pitch": 70, "duration": 6, "velocity": 64}, {"time": 6195, "pitch": 67, "duration": 54, "velocity": 52}, {"time": 6249, "pitch": 75, "duration": 12, "velocity": 101}, {"time": 6261, "pitch": 74, "duration": 12, "velocity": 94}, {"time": 6273, "pitch": 70, "duration": 12, "velocity": 87}, {"time": 6285, "pitch": 72, "duration": 48, "velocity": 91}, {"time": 6333, "pitch": 67, "duration": 7, "velocity": 93}, {"time": 6339, "pitch": 65, "duration": 6, "velocity": 84}, {"time": 6345, "pitch": 63, "duration": 12, "velocity": 81}, {"time": 6357, "pitch": 65, "duration": 12, "velocity": 73}, {"time": 6369, "pitch": 70, "duration": 12, "velocity": 87}, {"time": 6381, "pitch": 67, "duration": 48, "velocity": 95}, {"time": 6429, "pitch": 63, "duration": 6, "velocity": 87}, {"time": 6435, "pitch": 65, "duration": 6, "velocity": 86}, {"time": 6441, "pitch": 67, "duration": 18, "velocity": 89}, {"time": 6459, "pitch": 70, "duration": 18, "velocity": 90}, {"time": 6477, "pitch": 67, "duration": 12, "velocity": 90}, {"time": 6489, "pitch": 65, "duration": 24, "velocity": 87}, {"time": 6513, "pitch": 63, "duration": 12, "velocity": 87}, {"time": 6525, "pitch": 62, "duration": 12, "velocity": 90}, {"time": 6537, "pitch": 62, "duration": 6, "velocity": 68}, {"time": 6543, "pitch": 60, "duration": 42, "velocity": 68}], "annotations": [{"time": 2325, "annotation": {"number": 1, "value": 1}, "group": "control_change"}, {"time": 5204, "annotation": {"number": 1, "value": 1}, "group": "control_change"}]}, {"program": 0, "is_drum": false, "name": "PIANO", "notes": [{"time": 201, "pitch": 36, "duration": 43, "velocity": 80}, {"time": 201, "pitch": 55, "duration": 8, "velocity": 95}, {"time": 201, "pitch": 60, "duration": 8, "velocity": 99}, {"time": 201, "pitch": 63, "duration": 7, "velocity": 80}, {"time": 207, "pitch": 48, "duration": 18, "velocity": 60}, {"time": 213, "pitch": 55, "duration": 8, "velocity": 62}, {"time": 219, "pitch": 60, "duration": 3, "velocity": 61}, {"time": 225, "pitch": 55, "duration": 12, "velocity": 85}, {"time": 225, "pitch": 60, "duration": 11, "velocity": 78}, {"time": 225, "pitch": 63, "duration": 10, "velocity": 78}, {"time": 237, "pitch": 48, "duration": 16, "velocity": 55}, {"time": 243, "pitch": 55, "duration": 3, "velocity": 58}, {"time": 249, "pitch": 36, "duration": 40, "velocity": 73}, {"time": 249, "pitch": 55, "duration": 13, "velocity": 73}, {"time": 249, "pitch": 60, "duration": 13, "velocity": 69}, {"time": 249, "pitch": 63, "duration": 13, "velocity": 82}, {"time": 261, "pitch": 48, "duration": 14, "velocity": 47}, {"time": 273, "pitch": 55, "duration": 18, "velocity": 76}, {"time": 273, "pitch": 60, "duration": 16, "velocity": 72}, {"time": 273, "pitch": 63, "duration": 16, "velocity": 80}, {"time": 285, "pitch": 48, "duration": 9, "velocity": 40}, {"time": 291, "pitch": 43, "duration": 5, "velocity": 69}, {"time": 297, "pitch": 36, "duration": 82, "velocity": 72}, {"time": 297, "pitch": 48, "duration": 29, "velocity": 67}, {"time": 297, "pitch": 55, "duration": 19, "velocity": 78}, {"time": 297, "pitch": 60, "duration": 17, "velocity": 78}, {"time": 297, "pitch": 63, "duration": 12, "velocity": 82}, {"time": 321, "pitch": 55, "duration": 17, "velocity": 80}, {"time": 321, "pitch": 60, "duration": 14, "velocity": 75}, {"time": 321, "pitch": 63, "duration": 11, "velocity": 80}, {"time": 333, "pitch": 48, "duration": 20, "velocity": 45}, {"time": 345, "pitch": 55, "duration": 18, "velocity": 75}, {"time": 345, "pitch": 60, "duration": 18, "velocity": 78}, {"time": 345, "pitch": 63, "duration": 17, "velocity": 76}, {"time": 360, "pitch": 48, "duration": 21, "velocity": 42}, {"time": 369, "pitch": 55, "duration": 15, "velocity": 88}, {"time": 369, "pitch": 60, "duration": 15, "velocity": 67}, {"time": 369, "pitch": 63, "duration": 15, "velocity": 78}, {"time": 381, "pitch": 43, "duration": 9, "velocity": 73}, {"time": 393, "pitch": 36, "duration": 86, "velocity": 75}, {"time": 393, "pitch": 48, "duration": 28, "velocity": 70}, {"time": 393, "pitch": 55, "duration": 17, "velocity": 80}, {"time": 393, "pitch": 60, "duration": 16, "velocity": 73}, {"time": 393, "pitch": 63, "duration": 9, "velocity": 78}, {"time": 417, "pitch": 55, "duration": 11, "velocity": 80}, {"time": 417, "pitch": 60, "duration": 11, "velocity": 70}, {"time": 417, "pitch": 63, "duration": 14, "velocity": 78}, {"time": 429, "pitch": 48, "duration": 13, "velocity": 55}, {"time": 435, "pitch": 53, "duration": 3, "velocity": 61}, {"time": 435, "pitch": 58, "duration": 3, "velocity": 67}, {"time": 435, "pitch": 62, "duration": 3, "velocity": 73}, {"time": 441, "pitch": 53, "duration": 4, "velocity": 70}, {"time": 441, "pitch": 58, "duration": 3, "velocity": 88}, {"time": 441, "pitch": 62, "duration": 5, "velocity": 88}, {"time": 447, "pitch": 48, "duration": 4, "velocity": 45}, {"time": 450, "pitch": 55, "duration": 4, "velocity": 73}, {"time": 450, "pitch": 60, "duration": 4, "velocity": 67}, {"time": 450, "pitch": 63, "duration": 4, "velocity": 76}, {"time": 453, "pitch": 48, "duration": 6, "velocity": 50}, {"time": 459, "pitch": 53, "duration": 8, "velocity": 75}, {"time": 459, "pitch": 58, "duration": 3, "velocity": 63}, {"time": 459, "pitch": 62, "duration": 9, "velocity": 78}, {"time": 465, "pitch": 48, "duration": 8, "velocity": 53}, {"time": 471, "pitch": 53, "duration": 5, "velocity": 73}, {"time": 471, "pitch": 58, "duration": 6, "velocity": 75}, {"time": 477, "pitch": 48, "duration": 5, "velocity": 61}, {"time": 483, "pitch": 53, "duration": 2, "velocity": 54}, {"time": 489, "pitch": 36, "duration": 85, "velocity": 76}, {"time": 489, "pitch": 48, "duration": 8, "velocity": 80}, {"time": 489, "pitch": 55, "duration": 13, "velocity": 88}, {"time": 489, "pitch": 60, "duration": 12, "velocity": 75}, {"time": 489, "pitch": 63, "duration": 9, "velocity": 78}, {"time": 501, "pitch": 48, "duration": 16, "velocity": 52}, {"time": 513, "pitch": 58, "duration": 6, "velocity": 70}, {"time": 513, "pitch": 62, "duration": 7, "velocity": 88}, {"time": 525, "pitch": 60, "duration": 5, "velocity": 78}, {"time": 525, "pitch": 63, "duration": 6, "velocity": 80}, {"time": 528, "pitch": 48, "duration": 4, "velocity": 20}, {"time": 537, "pitch": 48, "duration": 29, "velocity": 72}, {"time": 537, "pitch": 62, "duration": 3, "velocity": 88}, {"time": 537, "pitch": 65, "duration": 4, "velocity": 88}, {"time": 549, "pitch": 63, "duration": 4, "velocity": 80}, {"time": 549, "pitch": 67, "duration": 4, "velocity": 75}, {"time": 555, "pitch": 62, "duration": 4, "velocity": 55}, {"time": 555, "pitch": 65, "duration": 5, "velocity": 66}, {"time": 561, "pitch": 60, "duration": 6, "velocity": 93}, {"time": 561, "pitch": 63, "duration": 5, "velocity": 91}, {"time": 573, "pitch": 48, "duration": 5, "velocity": 59}, {"time": 585, "pitch": 36, "duration": 86, "velocity": 73}, {"time": 585, "pitch": 48, "duration": 29, "velocity": 80}, {"time": 585, "pitch": 55, "duration": 7, "velocity": 76}, {"time": 585, "pitch": 60, "duration": 8, "velocity": 69}, {"time": 585, "pitch": 63, "duration": 7, "velocity": 76}, {"time": 597, "pitch": 55, "duration": 8, "velocity": 53}, {"time": 609, "pitch": 55, "duration": 15, "velocity": 64}, {"time": 609, "pitch": 60, "duration": 17, "velocity": 70}, {"time": 609, "pitch": 63, "duration": 16, "velocity": 69}, {"time": 627, "pitch": 48, "duration": 15, "velocity": 43}, {"time": 639, "pitch": 55, "duration": 6, "velocity": 73}, {"time": 639, "pitch": 60, "duration": 5, "velocity": 72}, {"time": 639, "pitch": 63, "duration": 12, "velocity": 75}, {"time": 651, "pitch": 48, "duration": 5, "velocity": 45}, {"time": 657, "pitch": 53, "duration": 10, "velocity": 76}, {"time": 657, "pitch": 58, "duration": 10, "velocity": 78}, {"time": 657, "pitch": 62, "duration": 12, "velocity": 75}, {"time": 663, "pitch": 48, "duration": 10, "velocity": 39}, {"time": 672, "pitch": 43, "duration": 8, "velocity": 66}, {"time": 675, "pitch": 39, "duration": 5, "velocity": 69}, {"time": 681, "pitch": 36, "duration": 82, "velocity": 67}, {"time": 681, "pitch": 48, "duration": 12, "velocity": 70}, {"time": 681, "pitch": 55, "duration": 17, "velocity": 73}, {"time": 681, "pitch": 60, "duration": 17, "velocity": 72}, {"time": 681, "pitch": 63, "duration": 12, "velocity": 75}, {"time": 696, "pitch": 63, "duration": 2, "velocity": 24}, {"time": 699, "pitch": 48, "duration": 7, "velocity": 35}, {"time": 705, "pitch": 55, "duration": 9, "velocity": 67}, {"time": 705, "pitch": 60, "duration": 8, "velocity": 67}, {"time": 705, "pitch": 63, "duration": 12, "velocity": 70}, {"time": 717, "pitch": 48, "duration": 7, "velocity": 44}, {"time": 723, "pitch": 53, "duration": 5, "velocity": 61}, {"time": 723, "pitch": 58, "duration": 3, "velocity": 61}, {"time": 723, "pitch": 62, "duration": 8, "velocity": 59}, {"time": 732, "pitch": 48, "duration": 4, "velocity": 35}, {"time": 735, "pitch": 53, "duration": 8, "velocity": 58}, {"time": 735, "pitch": 58, "duration": 8, "velocity": 66}, {"time": 747, "pitch": 48, "duration": 16, "velocity": 39}, {"time": 753, "pitch": 53, "duration": 8, "velocity": 82}, {"time": 759, "pitch": 55, "duration": 7, "velocity": 61}, {"time": 765, "pitch": 58, "duration": 4, "velocity": 62}, {"time": 771, "pitch": 60, "duration": 6, "velocity": 48}, {"time": 777, "pitch": 48, "duration": 87, "velocity": 73}, {"time": 777, "pitch": 63, "duration": 11, "velocity": 76}, {"time": 777, "pitch": 67, "duration": 9, "velocity": 73}, {"time": 789, "pitch": 55, "duration": 13, "velocity": 43}, {"time": 801, "pitch": 60, "duration": 25, "velocity": 52}, {"time": 801, "pitch": 62, "duration": 11, "velocity": 60}, {"time": 801, "pitch": 63, "duration": 11, "velocity": 64}, {"time": 801, "pitch": 67, "duration": 10, "velocity": 62}, {"time": 813, "pitch": 55, "duration": 39, "velocity": 37}, {"time": 825, "pitch": 62, "duration": 11, "velocity": 59}, {"time": 825, "pitch": 63, "duration": 12, "velocity": 63}, {"time": 825, "pitch": 67, "duration": 13, "velocity": 60}, {"time": 837, "pitch": 60, "duration": 23, "velocity": 43}, {"time": 849, "pitch": 62, "duration": 12, "velocity": 78}, {"time": 849, "pitch": 63, "duration": 11, "velocity": 76}, {"time": 849, "pitch": 67, "duration": 12, "velocity": 66}, {"time": 861, "pitch": 55, "duration": 7, "velocity": 56}, {"time": 861, "pitch": 65, "duration": 9, "velocity": 70}, {"time": 873, "pitch": 46, "duration": 34, "velocity": 69}, {"time": 873, "pitch": 62, "duration": 21, "velocity": 80}, {"time": 873, "pitch": 65, "duration": 19, "velocity": 91}, {"time": 885, "pitch": 53, "duration": 23, "velocity": 53}, {"time": 897, "pitch": 58, "duration": 13, "velocity": 61}, {"time": 909, "pitch": 63, "duration": 6, "velocity": 69}, {"time": 915, "pitch": 65, "duration": 5, "velocity": 66}, {"time": 921, "pitch": 39, "duration": 35, "velocity": 70}, {"time": 921, "pitch": 58, "duration": 16, "velocity": 66}, {"time": 921, "pitch": 63, "duration": 15, "velocity": 73}, {"time": 921, "pitch": 67, "duration": 15, "velocity": 73}, {"time": 933, "pitch": 46, "duration": 23, "velocity": 39}, {"time": 945, "pitch": 51, "duration": 16, "velocity": 55}, {"time": 945, "pitch": 58, "duration": 13, "velocity": 80}, {"time": 945, "pitch": 63, "duration": 1, "velocity": 43}, {"time": 945, "pitch": 70, "duration": 14, "velocity": 75}, {"time": 957, "pitch": 65, "duration": 10, "velocity": 73}, {"time": 969, "pitch": 48, "duration": 37, "velocity": 72}, {"time": 969, "pitch": 63, "duration": 16, "velocity": 76}, {"time": 969, "pitch": 67, "duration": 16, "velocity": 75}, {"time": 981, "pitch": 55, "duration": 16, "velocity": 46}, {"time": 993, "pitch": 60, "duration": 11, "velocity": 60}, {"time": 993, "pitch": 62, "duration": 13, "velocity": 75}, {"time": 993, "pitch": 63, "duration": 4, "velocity": 61}, {"time": 1005, "pitch": 55, "duration": 3, "velocity": 64}, {"time": 1005, "pitch": 63, "duration": 8, "velocity": 76}, {"time": 1017, "pitch": 41, "duration": 38, "velocity": 67}, {"time": 1017, "pitch": 60, "duration": 15, "velocity": 64}, {"time": 1017, "pitch": 63, "duration": 15, "velocity": 80}, {"time": 1017, "pitch": 68, "duration": 15, "velocity": 67}, {"time": 1029, "pitch": 48, "duration": 14, "velocity": 48}, {"time": 1041, "pitch": 53, "duration": 13, "velocity": 57}, {"time": 1041, "pitch": 60, "duration": 13, "velocity": 73}, {"time": 1041, "pitch": 63, "duration": 11, "velocity": 73}, {"time": 1041, "pitch": 68, "duration": 12, "velocity": 75}, {"time": 1053, "pitch": 48, "duration": 8, "velocity": 56}, {"time": 1065, "pitch": 46, "duration": 33, "velocity": 70}, {"time": 1065, "pitch": 58, "duration": 12, "velocity": 72}, {"time": 1065, "pitch": 63, "duration": 12, "velocity": 73}, {"time": 1065, "pitch": 70, "duration": 18, "velocity": 73}, {"time": 1077, "pitch": 53, "duration": 22, "velocity": 64}, {"time": 1083, "pitch": 58, "duration": 14, "velocity": 52}, {"time": 1089, "pitch": 63, "duration": 7, "velocity": 95}, {"time": 1095, "pitch": 65, "duration": 4, "velocity": 63}, {"time": 1101, "pitch": 65, "duration": 3, "velocity": 40}, {"time": 1101, "pitch": 67, "duration": 12, "velocity": 49}, {"time": 1113, "pitch": 43, "duration": 16, "velocity": 69}, {"time": 1113, "pitch": 58, "duration": 11, "velocity": 44}, {"time": 1113, "pitch": 62, "duration": 12, "velocity": 57}, {"time": 1113, "pitch": 65, "duration": 12, "velocity": 47}, {"time": 1161, "pitch": 48, "duration": 68, "velocity": 70}, {"time": 1161, "pitch": 67, "duration": 10, "velocity": 66}, {"time": 1161, "pitch": 70, "duration": 10, "velocity": 63}, {"time": 1173, "pitch": 55, "duration": 58, "velocity": 47}, {"time": 1173, "pitch": 67, "duration": 5, "velocity": 61}, {"time": 1173, "pitch": 74, "duration": 10, "velocity": 76}, {"time": 1185, "pitch": 60, "duration": 14, "velocity": 54}, {"time": 1185, "pitch": 65, "duration": 6, "velocity": 67}, {"time": 1185, "pitch": 70, "duration": 4, "velocity": 70}, {"time": 1197, "pitch": 67, "duration": 5, "velocity": 63}, {"time": 1197, "pitch": 72, "duration": 4, "velocity": 72}, {"time": 1203, "pitch": 60, "duration": 25, "velocity": 35}, {"time": 1209, "pitch": 62, "duration": 6, "velocity": 67}, {"time": 1215, "pitch": 63, "duration": 3, "velocity": 67}, {"time": 1221, "pitch": 67, "duration": 4, "velocity": 78}, {"time": 1227, "pitch": 70, "duration": 5, "velocity": 63}, {"time": 1233, "pitch": 48, "duration": 14, "velocity": 64}, {"time": 1239, "pitch": 74, "duration": 4, "velocity": 59}, {"time": 1245, "pitch": 55, "duration": 4, "velocity": 63}, {"time": 1245, "pitch": 70, "duration": 5, "velocity": 63}, {"time": 1251, "pitch": 65, "duration": 9, "velocity": 51}, {"time": 1257, "pitch": 46, "duration": 37, "velocity": 70}, {"time": 1257, "pitch": 63, "duration": 14, "velocity": 76}, {"time": 1269, "pitch": 53, "duration": 13, "velocity": 51}, {"time": 1281, "pitch": 58, "duration": 9, "velocity": 60}, {"time": 1281, "pitch": 62, "duration": 14, "velocity": 85}, {"time": 1281, "pitch": 65, "duration": 12, "velocity": 76}, {"time": 1293, "pitch": 53, "duration": 3, "velocity": 63}, {"time": 1299, "pitch": 63, "duration": 5, "velocity": 73}, {"time": 1302, "pitch": 65, "duration": 4, "velocity": 67}, {"time": 1305, "pitch": 39, "duration": 33, "velocity": 72}, {"time": 1305, "pitch": 58, "duration": 15, "velocity": 58}, {"time": 1305, "pitch": 63, "duration": 14, "velocity": 47}, {"time": 1305, "pitch": 67, "duration": 14, "velocity": 72}, {"time": 1317, "pitch": 46, "duration": 20, "velocity": 54}, {"time": 1329, "pitch": 51, "duration": 11, "velocity": 49}, {"time": 1329, "pitch": 58, "duration": 7, "velocity": 69}, {"time": 1329, "pitch": 63, "duration": 8, "velocity": 69}, {"time": 1329, "pitch": 67, "duration": 8, "velocity": 69}, {"time": 1341, "pitch": 58, "duration": 6, "velocity": 76}, {"time": 1341, "pitch": 65, "duration": 8, "velocity": 69}, {"time": 1353, "pitch": 48, "duration": 38, "velocity": 64}, {"time": 1353, "pitch": 60, "duration": 12, "velocity": 72}, {"time": 1353, "pitch": 63, "duration": 15, "velocity": 69}, {"time": 1365, "pitch": 55, "duration": 15, "velocity": 41}, {"time": 1377, "pitch": 60, "duration": 10, "velocity": 55}, {"time": 1377, "pitch": 63, "duration": 12, "velocity": 73}, {"time": 1377, "pitch": 67, "duration": 10, "velocity": 70}, {"time": 1389, "pitch": 55, "duration": 3, "velocity": 63}, {"time": 1401, "pitch": 41, "duration": 18, "velocity": 66}, {"time": 1401, "pitch": 60, "duration": 9, "velocity": 69}, {"time": 1401, "pitch": 63, "duration": 10, "velocity": 50}, {"time": 1401, "pitch": 68, "duration": 12, "velocity": 91}, {"time": 1407, "pitch": 48, "duration": 15, "velocity": 62}, {"time": 1413, "pitch": 53, "duration": 7, "velocity": 61}, {"time": 1449, "pitch": 48, "duration": 83, "velocity": 64}, {"time": 1449, "pitch": 63, "duration": 13, "velocity": 78}, {"time": 1449, "pitch": 67, "duration": 11, "velocity": 82}, {"time": 1455, "pitch": 55, "duration": 55, "velocity": 58}, {"time": 1461, "pitch": 60, "duration": 26, "velocity": 72}, {"time": 1497, "pitch": 60, "duration": 16, "velocity": 47}, {"time": 1545, "pitch": 36, "duration": 89, "velocity": 75}, {"time": 1545, "pitch": 60, "duration": 18, "velocity": 63}, {"time": 1545, "pitch": 63, "duration": 16, "velocity": 67}, {"time": 1545, "pitch": 67, "duration": 15, "velocity": 69}, {"time": 1557, "pitch": 48, "duration": 21, "velocity": 44}, {"time": 1569, "pitch": 60, "duration": 14, "velocity": 64}, {"time": 1569, "pitch": 63, "duration": 13, "velocity": 67}, {"time": 1569, "pitch": 67, "duration": 12, "velocity": 69}, {"time": 1581, "pitch": 48, "duration": 14, "velocity": 40}, {"time": 1593, "pitch": 60, "duration": 4, "velocity": 75}, {"time": 1593, "pitch": 63, "duration": 3, "velocity": 75}, {"time": 1593, "pitch": 67, "duration": 3, "velocity": 72}, {"time": 1605, "pitch": 48, "duration": 8, "velocity": 42}, {"time": 1611, "pitch": 53, "duration": 6, "velocity": 53}, {"time": 1611, "pitch": 58, "duration": 6, "velocity": 66}, {"time": 1611, "pitch": 62, "duration": 10, "velocity": 73}, {"time": 1617, "pitch": 48, "duration": 6, "velocity": 46}, {"time": 1623, "pitch": 55, "duration": 7, "velocity": 75}, {"time": 1623, "pitch": 58, "duration": 9, "velocity": 80}, {"time": 1623, "pitch": 63, "duration": 8, "velocity": 80}, {"time": 1629, "pitch": 48, "duration": 4, "velocity": 60}, {"time": 1635, "pitch": 60, "duration": 3, "velocity": 66}, {"time": 1641, "pitch": 34, "duration": 35, "velocity": 75}, {"time": 1641, "pitch": 46, "duration": 13, "velocity": 78}, {"time": 1641, "pitch": 53, "duration": 18, "velocity": 82}, {"time": 1641, "pitch": 58, "duration": 17, "velocity": 76}, {"time": 1641, "pitch": 62, "duration": 13, "velocity": 72}, {"time": 1659, "pitch": 46, "duration": 9, "velocity": 33}, {"time": 1665, "pitch": 53, "duration": 14, "velocity": 85}, {"time": 1665, "pitch": 58, "duration": 12, "velocity": 82}, {"time": 1665, "pitch": 62, "duration": 11, "velocity": 66}, {"time": 1671, "pitch": 46, "duration": 5, "velocity": 60}, {"time": 1677, "pitch": 36, "duration": 8, "velocity": 70}, {"time": 1683, "pitch": 38, "duration": 8, "velocity": 44}, {"time": 1689, "pitch": 39, "duration": 39, "velocity": 91}, {"time": 1689, "pitch": 55, "duration": 20, "velocity": 76}, {"time": 1689, "pitch": 58, "duration": 19, "velocity": 78}, {"time": 1689, "pitch": 63, "duration": 15, "velocity": 80}, {"time": 1707, "pitch": 51, "duration": 11, "velocity": 57}, {"time": 1713, "pitch": 55, "duration": 8, "velocity": 76}, {"time": 1713, "pitch": 58, "duration": 10, "velocity": 78}, {"time": 1713, "pitch": 63, "duration": 8, "velocity": 76}, {"time": 1725, "pitch": 51, "duration": 3, "velocity": 80}, {"time": 1725, "pitch": 55, "duration": 7, "velocity": 76}, {"time": 1725, "pitch": 62, "duration": 9, "velocity": 72}, {"time": 1737, "pitch": 36, "duration": 35, "velocity": 78}, {"time": 1737, "pitch": 48, "duration": 11, "velocity": 76}, {"time": 1737, "pitch": 55, "duration": 19, "velocity": 73}, {"time": 1737, "pitch": 60, "duration": 16, "velocity": 70}, {"time": 1737, "pitch": 63, "duration": 13, "velocity": 76}, {"time": 1755, "pitch": 48, "duration": 8, "velocity": 69}, {"time": 1761, "pitch": 55, "duration": 12, "velocity": 80}, {"time": 1761, "pitch": 60, "duration": 14, "velocity": 82}, {"time": 1761, "pitch": 63, "duration": 10, "velocity": 75}, {"time": 1773, "pitch": 48, "duration": 4, "velocity": 78}, {"time": 1779, "pitch": 55, "duration": 2, "velocity": 72}, {"time": 1785, "pitch": 41, "duration": 39, "velocity": 57}, {"time": 1785, "pitch": 48, "duration": 30, "velocity": 60}, {"time": 1785, "pitch": 53, "duration": 12, "velocity": 78}, {"time": 1785, "pitch": 56, "duration": 21, "velocity": 91}, {"time": 1785, "pitch": 60, "duration": 21, "velocity": 67}, {"time": 1785, "pitch": 63, "duration": 16, "velocity": 62}, {"time": 1803, "pitch": 53, "duration": 11, "velocity": 55}, {"time": 1809, "pitch": 56, "duration": 13, "velocity": 95}, {"time": 1809, "pitch": 60, "duration": 10, "velocity": 80}, {"time": 1809, "pitch": 63, "duration": 11, "velocity": 80}, {"time": 1821, "pitch": 48, "duration": 2, "velocity": 69}, {"time": 1833, "pitch": 34, "duration": 36, "velocity": 88}, {"time": 1833, "pitch": 46, "duration": 9, "velocity": 72}, {"time": 1833, "pitch": 53, "duration": 16, "velocity": 85}, {"time": 1833, "pitch": 58, "duration": 20, "velocity": 97}, {"time": 1833, "pitch": 62, "duration": 13, "velocity": 78}, {"time": 1833, "pitch": 65, "duration": 19, "velocity": 78}, {"time": 1848, "pitch": 46, "duration": 12, "velocity": 51}, {"time": 1857, "pitch": 53, "duration": 12, "velocity": 85}, {"time": 1857, "pitch": 58, "duration": 12, "velocity": 97}, {"time": 1857, "pitch": 62, "duration": 11, "velocity": 85}, {"time": 1857, "pitch": 65, "duration": 11, "velocity": 63}, {"time": 1869, "pitch": 46, "duration": 3, "velocity": 91}, {"time": 1881, "pitch": 43, "duration": 38, "velocity": 73}, {"time": 1881, "pitch": 55, "duration": 7, "velocity": 85}, {"time": 1881, "pitch": 58, "duration": 8, "velocity": 97}, {"time": 1881, "pitch": 62, "duration": 7, "velocity": 95}, {"time": 1887, "pitch": 50, "duration": 14, "velocity": 72}, {"time": 1893, "pitch": 55, "duration": 3, "velocity": 95}, {"time": 1899, "pitch": 55, "duration": 3, "velocity": 55}, {"time": 1899, "pitch": 58, "duration": 9, "velocity": 101}, {"time": 1899, "pitch": 65, "duration": 9, "velocity": 91}, {"time": 1911, "pitch": 55, "duration": 8, "velocity": 97}, {"time": 1911, "pitch": 62, "duration": 8, "velocity": 101}, {"time": 1917, "pitch": 50, "duration": 2, "velocity": 73}, {"time": 1923, "pitch": 60, "duration": 4, "velocity": 72}, {"time": 1926, "pitch": 62, "duration": 3, "velocity": 69}, {"time": 1929, "pitch": 36, "duration": 23, "velocity": 76}, {"time": 1929, "pitch": 55, "duration": 18, "velocity": 88}, {"time": 1929, "pitch": 58, "duration": 17, "velocity": 93}, {"time": 1929, "pitch": 63, "duration": 14, "velocity": 80}, {"time": 1941, "pitch": 43, "duration": 12, "velocity": 55}, {"time": 1953, "pitch": 48, "duration": 13, "velocity": 73}, {"time": 1953, "pitch": 55, "duration": 4, "velocity": 85}, {"time": 1953, "pitch": 58, "duration": 6, "velocity": 82}, {"time": 1953, "pitch": 63, "duration": 7, "velocity": 82}, {"time": 1965, "pitch": 50, "duration": 12, "velocity": 66}, {"time": 1977, "pitch": 51, "duration": 12, "velocity": 67}, {"time": 1989, "pitch": 53, "duration": 13, "velocity": 66}, {"time": 2001, "pitch": 55, "duration": 14, "velocity": 63}, {"time": 2025, "pitch": 46, "duration": 27, "velocity": 75}, {"time": 2025, "pitch": 62, "duration": 20, "velocity": 93}, {"time": 2025, "pitch": 65, "duration": 22, "velocity": 85}, {"time": 2025, "pitch": 70, "duration": 17, "velocity": 73}, {"time": 2037, "pitch": 53, "duration": 16, "velocity": 46}, {"time": 2049, "pitch": 58, "duration": 9, "velocity": 62}, {"time": 2055, "pitch": 62, "duration": 4, "velocity": 91}, {"time": 2061, "pitch": 63, "duration": 7, "velocity": 80}, {"time": 2067, "pitch": 70, "duration": 22, "velocity": 69}, {"time": 2073, "pitch": 51, "duration": 32, "velocity": 78}, {"time": 2073, "pitch": 58, "duration": 14, "velocity": 93}, {"time": 2073, "pitch": 63, "duration": 15, "velocity": 73}, {"time": 2073, "pitch": 67, "duration": 15, "velocity": 64}, {"time": 2085, "pitch": 55, "duration": 10, "velocity": 61}, {"time": 2091, "pitch": 58, "duration": 9, "velocity": 88}, {"time": 2091, "pitch": 65, "duration": 9, "velocity": 75}, {"time": 2097, "pitch": 55, "duration": 15, "velocity": 69}, {"time": 2103, "pitch": 58, "duration": 7, "velocity": 80}, {"time": 2103, "pitch": 62, "duration": 8, "velocity": 99}, {"time": 2109, "pitch": 50, "duration": 11, "velocity": 76}, {"time": 2115, "pitch": 58, "duration": 4, "velocity": 47}, {"time": 2121, "pitch": 48, "duration": 39, "velocity": 72}, {"time": 2121, "pitch": 63, "duration": 11, "velocity": 85}, {"time": 2124, "pitch": 60, "duration": 10, "velocity": 53}, {"time": 2133, "pitch": 55, "duration": 14, "velocity": 60}, {"time": 2145, "pitch": 60, "duration": 13, "velocity": 97}, {"time": 2145, "pitch": 63, "duration": 13, "velocity": 101}, {"time": 2157, "pitch": 55, "duration": 3, "velocity": 78}, {"time": 2169, "pitch": 43, "duration": 37, "velocity": 75}, {"time": 2169, "pitch": 58, "duration": 20, "velocity": 85}, {"time": 2169, "pitch": 62, "duration": 21, "velocity": 78}, {"time": 2169, "pitch": 67, "duration": 21, "velocity": 76}, {"time": 2181, "pitch": 50, "duration": 24, "velocity": 54}, {"time": 2193, "pitch": 55, "duration": 16, "velocity": 48}, {"time": 2193, "pitch": 58, "duration": 14, "velocity": 78}, {"time": 2193, "pitch": 65, "duration": 13, "velocity": 75}, {"time": 2205, "pitch": 67, "duration": 3, "velocity": 76}, {"time": 2217, "pitch": 48, "duration": 29, "velocity": 78}, {"time": 2217, "pitch": 63, "duration": 24, "velocity": 78}, {"time": 2217, "pitch": 67, "duration": 25, "velocity": 76}, {"time": 2259, "pitch": 46, "duration": 5, "velocity": 88}, {"time": 2259, "pitch": 58, "duration": 3, "velocity": 80}, {"time": 2259, "pitch": 62, "duration": 2, "velocity": 85}, {"time": 2259, "pitch": 65, "duration": 5, "velocity": 93}, {"time": 2265, "pitch": 48, "duration": 23, "velocity": 76}, {"time": 2265, "pitch": 60, "duration": 7, "velocity": 93}, {"time": 2265, "pitch": 63, "duration": 9, "velocity": 97}, {"time": 2265, "pitch": 67, "duration": 5, "velocity": 72}, {"time": 2313, "pitch": 36, "duration": 43, "velocity": 73}, {"time": 2313, "pitch": 48, "duration": 11, "velocity": 99}, {"time": 2313, "pitch": 60, "duration": 14, "velocity": 95}, {"time": 2313, "pitch": 63, "duration": 15, "velocity": 85}, {"time": 2313, "pitch": 67, "duration": 14, "velocity": 80}, {"time": 2331, "pitch": 48, "duration": 9, "velocity": 53}, {"time": 2337, "pitch": 60, "duration": 7, "velocity": 93}, {"time": 2337, "pitch": 63, "duration": 9, "velocity": 88}, {"time": 2337, "pitch": 67, "duration": 9, "velocity": 78}, {"time": 2349, "pitch": 48, "duration": 8, "velocity": 50}, {"time": 2349, "pitch": 62, "duration": 8, "velocity": 80}, {"time": 2349, "pitch": 65, "duration": 9, "velocity": 78}, {"time": 2361, "pitch": 36, "duration": 32, "velocity": 73}, {"time": 2361, "pitch": 48, "duration": 11, "velocity": 82}, {"time": 2361, "pitch": 63, "duration": 3, "velocity": 93}, {"time": 2361, "pitch": 67, "duration": 3, "velocity": 97}, {"time": 2373, "pitch": 63, "duration": 8, "velocity": 85}, {"time": 2373, "pitch": 67, "duration": 4, "velocity": 69}, {"time": 2373, "pitch": 70, "duration": 7, "velocity": 76}, {"time": 2379, "pitch": 48, "duration": 7, "velocity": 78}, {"time": 2385, "pitch": 60, "duration": 7, "velocity": 80}, {"time": 2385, "pitch": 67, "duration": 9, "velocity": 78}, {"time": 2391, "pitch": 48, "duration": 3, "velocity": 82}, {"time": 2397, "pitch": 60, "duration": 6, "velocity": 80}, {"time": 2397, "pitch": 65, "duration": 7, "velocity": 70}, {"time": 2403, "pitch": 67, "duration": 3, "velocity": 64}, {"time": 2409, "pitch": 48, "duration": 39, "velocity": 78}, {"time": 2409, "pitch": 63, "duration": 13, "velocity": 80}, {"time": 2409, "pitch": 67, "duration": 11, "velocity": 85}, {"time": 2415, "pitch": 55, "duration": 27, "velocity": 66}, {"time": 2421, "pitch": 60, "duration": 26, "velocity": 75}, {"time": 2427, "pitch": 62, "duration": 4, "velocity": 85}, {"time": 2433, "pitch": 63, "duration": 3, "velocity": 88}, {"time": 2439, "pitch": 65, "duration": 3, "velocity": 67}, {"time": 2451, "pitch": 55, "duration": 5, "velocity": 54}, {"time": 2457, "pitch": 48, "duration": 38, "velocity": 67}, {"time": 2457, "pitch": 67, "duration": 9, "velocity": 73}, {"time": 2463, "pitch": 55, "duration": 18, "velocity": 53}, {"time": 2469, "pitch": 67, "duration": 4, "velocity": 70}, {"time": 2475, "pitch": 60, "duration": 13, "velocity": 55}, {"time": 2481, "pitch": 65, "duration": 3, "velocity": 66}, {"time": 2487, "pitch": 55, "duration": 8, "velocity": 62}, {"time": 2493, "pitch": 65, "duration": 2, "velocity": 82}, {"time": 2505, "pitch": 48, "duration": 40, "velocity": 69}, {"time": 2511, "pitch": 62, "duration": 7, "velocity": 49}, {"time": 2511, "pitch": 65, "duration": 6, "velocity": 26}, {"time": 2517, "pitch": 55, "duration": 33, "velocity": 56}, {"time": 2523, "pitch": 60, "duration": 24, "velocity": 72}, {"time": 2529, "pitch": 62, "duration": 5, "velocity": 93}, {"time": 2535, "pitch": 63, "duration": 3, "velocity": 63}, {"time": 2541, "pitch": 65, "duration": 3, "velocity": 46}, {"time": 2553, "pitch": 48, "duration": 37, "velocity": 66}, {"time": 2553, "pitch": 74, "duration": 11, "velocity": 80}, {"time": 2559, "pitch": 55, "duration": 18, "velocity": 48}, {"time": 2565, "pitch": 67, "duration": 3, "velocity": 91}, {"time": 2571, "pitch": 60, "duration": 10, "velocity": 67}, {"time": 2577, "pitch": 62, "duration": 6, "velocity": 82}, {"time": 2583, "pitch": 63, "duration": 4, "velocity": 80}, {"time": 2589, "pitch": 55, "duration": 6, "velocity": 51}, {"time": 2589, "pitch": 65, "duration": 4, "velocity": 88}, {"time": 2595, "pitch": 70, "duration": 25, "velocity": 76}, {"time": 2601, "pitch": 48, "duration": 36, "velocity": 70}, {"time": 2607, "pitch": 55, "duration": 14, "velocity": 78}, {"time": 2613, "pitch": 62, "duration": 5, "velocity": 88}, {"time": 2619, "pitch": 63, "duration": 7, "velocity": 80}, {"time": 2625, "pitch": 65, "duration": 10, "velocity": 78}, {"time": 2631, "pitch": 55, "duration": 15, "velocity": 64}, {"time": 2637, "pitch": 62, "duration": 8, "velocity": 76}, {"time": 2643, "pitch": 63, "duration": 12, "velocity": 62}, {"time": 2649, "pitch": 48, "duration": 36, "velocity": 67}, {"time": 2649, "pitch": 67, "duration": 11, "velocity": 75}, {"time": 2655, "pitch": 55, "duration": 19, "velocity": 75}, {"time": 2661, "pitch": 62, "duration": 8, "velocity": 82}, {"time": 2667, "pitch": 63, "duration": 8, "velocity": 76}, {"time": 2673, "pitch": 67, "duration": 8, "velocity": 88}, {"time": 2679, "pitch": 55, "duration": 5, "velocity": 66}, {"time": 2679, "pitch": 62, "duration": 8, "velocity": 61}, {"time": 2685, "pitch": 63, "duration": 6, "velocity": 82}, {"time": 2691, "pitch": 70, "duration": 8, "velocity": 73}, {"time": 2697, "pitch": 41, "duration": 11, "velocity": 73}, {"time": 2697, "pitch": 68, "duration": 24, "velocity": 91}, {"time": 2703, "pitch": 48, "duration": 6, "velocity": 63}, {"time": 2709, "pitch": 53, "duration": 7, "velocity": 66}, {"time": 2715, "pitch": 55, "duration": 14, "velocity": 69}, {"time": 2721, "pitch": 56, "duration": 8, "velocity": 88}, {"time": 2727, "pitch": 60, "duration": 7, "velocity": 91}, {"time": 2733, "pitch": 63, "duration": 6, "velocity": 52}, {"time": 2739, "pitch": 67, "duration": 2, "velocity": 78}, {"time": 2745, "pitch": 43, "duration": 39, "velocity": 72}, {"time": 2745, "pitch": 58, "duration": 14, "velocity": 72}, {"time": 2745, "pitch": 65, "duration": 10, "velocity": 80}, {"time": 2751, "pitch": 50, "duration": 32, "velocity": 67}, {"time": 2757, "pitch": 55, "duration": 13, "velocity": 78}, {"time": 2763, "pitch": 58, "duration": 8, "velocity": 76}, {"time": 2769, "pitch": 62, "duration": 8, "velocity": 85}, {"time": 2775, "pitch": 55, "duration": 7, "velocity": 76}, {"time": 2781, "pitch": 58, "duration": 5, "velocity": 85}, {"time": 2787, "pitch": 63, "duration": 21, "velocity": 70}, {"time": 2793, "pitch": 46, "duration": 39, "velocity": 73}, {"time": 2793, "pitch": 62, "duration": 12, "velocity": 80}, {"time": 2793, "pitch": 65, "duration": 12, "velocity": 78}, {"time": 2793, "pitch": 70, "duration": 11, "velocity": 82}, {"time": 2799, "pitch": 53, "duration": 33, "velocity": 66}, {"time": 2805, "pitch": 58, "duration": 14, "velocity": 66}, {"time": 2811, "pitch": 62, "duration": 9, "velocity": 97}, {"time": 2817, "pitch": 65, "duration": 13, "velocity": 95}, {"time": 2823, "pitch": 58, "duration": 6, "velocity": 70}, {"time": 2829, "pitch": 62, "duration": 7, "velocity": 88}, {"time": 2835, "pitch": 70, "duration": 6, "velocity": 75}, {"time": 2841, "pitch": 43, "duration": 36, "velocity": 75}, {"time": 2841, "pitch": 58, "duration": 10, "velocity": 45}, {"time": 2841, "pitch": 62, "duration": 11, "velocity": 85}, {"time": 2841, "pitch": 65, "duration": 11, "velocity": 63}, {"time": 2847, "pitch": 50, "duration": 31, "velocity": 70}, {"time": 2853, "pitch": 55, "duration": 18, "velocity": 88}, {"time": 2859, "pitch": 58, "duration": 8, "velocity": 93}, {"time": 2865, "pitch": 62, "duration": 7, "velocity": 80}, {"time": 2871, "pitch": 65, "duration": 6, "velocity": 64}, {"time": 2877, "pitch": 55, "duration": 9, "velocity": 58}, {"time": 2877, "pitch": 70, "duration": 10, "velocity": 73}, {"time": 2889, "pitch": 48, "duration": 42, "velocity": 76}, {"time": 2889, "pitch": 63, "duration": 13, "velocity": 82}, {"time": 2889, "pitch": 67, "duration": 10, "velocity": 73}, {"time": 2895, "pitch": 55, "duration": 39, "velocity": 55}, {"time": 2901, "pitch": 60, "duration": 29, "velocity": 78}, {"time": 2907, "pitch": 62, "duration": 6, "velocity": 73}, {"time": 2913, "pitch": 63, "duration": 3, "velocity": 76}, {"time": 2919, "pitch": 67, "duration": 8, "velocity": 76}, {"time": 2925, "pitch": 72, "duration": 4, "velocity": 72}, {"time": 2931, "pitch": 75, "duration": 7, "velocity": 69}, {"time": 2937, "pitch": 48, "duration": 34, "velocity": 62}, {"time": 2937, "pitch": 74, "duration": 4, "velocity": 80}, {"time": 2943, "pitch": 55, "duration": 12, "velocity": 46}, {"time": 2943, "pitch": 72, "duration": 5, "velocity": 78}, {"time": 2949, "pitch": 67, "duration": 4, "velocity": 82}, {"time": 2955, "pitch": 65, "duration": 5, "velocity": 73}, {"time": 2961, "pitch": 63, "duration": 5, "velocity": 76}, {"time": 2967, "pitch": 55, "duration": 5, "velocity": 70}, {"time": 2967, "pitch": 62, "duration": 7, "velocity": 82}, {"time": 2973, "pitch": 63, "duration": 6, "velocity": 75}, {"time": 2979, "pitch": 65, "duration": 5, "velocity": 64}, {"time": 2985, "pitch": 46, "duration": 84, "velocity": 67}, {"time": 2985, "pitch": 58, "duration": 30, "velocity": 82}, {"time": 2985, "pitch": 62, "duration": 19, "velocity": 78}, {"time": 2985, "pitch": 65, "duration": 17, "velocity": 80}, {"time": 2985, "pitch": 70, "duration": 19, "velocity": 75}, {"time": 3009, "pitch": 62, "duration": 9, "velocity": 76}, {"time": 3009, "pitch": 65, "duration": 8, "velocity": 78}, {"time": 3009, "pitch": 70, "duration": 9, "velocity": 76}, {"time": 3021, "pitch": 58, "duration": 10, "velocity": 47}, {"time": 3027, "pitch": 60, "duration": 7, "velocity": 66}, {"time": 3027, "pitch": 62, "duration": 8, "velocity": 72}, {"time": 3027, "pitch": 65, "duration": 9, "velocity": 75}, {"time": 3039, "pitch": 62, "duration": 13, "velocity": 73}, {"time": 3039, "pitch": 67, "duration": 10, "velocity": 73}, {"time": 3051, "pitch": 58, "duration": 7, "velocity": 57}, {"time": 3057, "pitch": 62, "duration": 8, "velocity": 95}, {"time": 3057, "pitch": 65, "duration": 8, "velocity": 97}, {"time": 3063, "pitch": 58, "duration": 4, "velocity": 73}, {"time": 3069, "pitch": 62, "duration": 5, "velocity": 69}, {"time": 3075, "pitch": 65, "duration": 4, "velocity": 58}, {"time": 3081, "pitch": 44, "duration": 29, "velocity": 78}, {"time": 3081, "pitch": 56, "duration": 28, "velocity": 95}, {"time": 3081, "pitch": 60, "duration": 20, "velocity": 93}, {"time": 3081, "pitch": 63, "duration": 21, "velocity": 95}, {"time": 3081, "pitch": 68, "duration": 21, "velocity": 93}, {"time": 3105, "pitch": 60, "duration": 7, "velocity": 76}, {"time": 3105, "pitch": 63, "duration": 7, "velocity": 80}, {"time": 3105, "pitch": 68, "duration": 8, "velocity": 72}, {"time": 3111, "pitch": 44, "duration": 3, "velocity": 63}, {"time": 3114, "pitch": 56, "duration": 1, "velocity": 45}, {"time": 3117, "pitch": 44, "duration": 2, "velocity": 78}, {"time": 3117, "pitch": 56, "duration": 2, "velocity": 73}, {"time": 3117, "pitch": 60, "duration": 2, "velocity": 78}, {"time": 3117, "pitch": 63, "duration": 2, "velocity": 82}, {"time": 3117, "pitch": 68, "duration": 3, "velocity": 67}, {"time": 3123, "pitch": 44, "duration": 28, "velocity": 88}, {"time": 3123, "pitch": 56, "duration": 10, "velocity": 93}, {"time": 3123, "pitch": 60, "duration": 15, "velocity": 91}, {"time": 3123, "pitch": 63, "duration": 15, "velocity": 95}, {"time": 3123, "pitch": 68, "duration": 15, "velocity": 95}, {"time": 3138, "pitch": 56, "duration": 4, "velocity": 49}, {"time": 3147, "pitch": 56, "duration": 2, "velocity": 48}, {"time": 3153, "pitch": 41, "duration": 13, "velocity": 82}, {"time": 3153, "pitch": 53, "duration": 2, "velocity": 55}, {"time": 3153, "pitch": 60, "duration": 10, "velocity": 88}, {"time": 3153, "pitch": 63, "duration": 11, "velocity": 91}, {"time": 3153, "pitch": 68, "duration": 15, "velocity": 80}, {"time": 3159, "pitch": 53, "duration": 10, "velocity": 78}, {"time": 3165, "pitch": 60, "duration": 6, "velocity": 73}, {"time": 3177, "pitch": 43, "duration": 25, "velocity": 76}, {"time": 3177, "pitch": 55, "duration": 13, "velocity": 99}, {"time": 3177, "pitch": 58, "duration": 17, "velocity": 101}, {"time": 3177, "pitch": 62, "duration": 20, "velocity": 101}, {"time": 3177, "pitch": 65, "duration": 14, "velocity": 95}, {"time": 3195, "pitch": 55, "duration": 6, "velocity": 60}, {"time": 3201, "pitch": 58, "duration": 9, "velocity": 95}, {"time": 3201, "pitch": 62, "duration": 10, "velocity": 99}, {"time": 3201, "pitch": 65, "duration": 13, "velocity": 97}, {"time": 3207, "pitch": 38, "duration": 6, "velocity": 99}, {"time": 3213, "pitch": 39, "duration": 5, "velocity": 88}, {"time": 3219, "pitch": 43, "duration": 11, "velocity": 106}, {"time": 3219, "pitch": 58, "duration": 13, "velocity": 97}, {"time": 3219, "pitch": 62, "duration": 14, "velocity": 99}, {"time": 3219, "pitch": 65, "duration": 12, "velocity": 97}, {"time": 3231, "pitch": 43, "duration": 13, "velocity": 69}, {"time": 3237, "pitch": 58, "duration": 2, "velocity": 56}, {"time": 3243, "pitch": 58, "duration": 10, "velocity": 80}, {"time": 3243, "pitch": 62, "duration": 10, "velocity": 88}, {"time": 3243, "pitch": 65, "duration": 8, "velocity": 93}, {"time": 3249, "pitch": 43, "duration": 11, "velocity": 67}, {"time": 3255, "pitch": 58, "duration": 4, "velocity": 93}, {"time": 3261, "pitch": 43, "duration": 2, "velocity": 78}, {"time": 3261, "pitch": 62, "duration": 2, "velocity": 78}, {"time": 3261, "pitch": 65, "duration": 1, "velocity": 44}, {"time": 3273, "pitch": 44, "duration": 38, "velocity": 82}, {"time": 3273, "pitch": 56, "duration": 11, "velocity": 101}, {"time": 3273, "pitch": 60, "duration": 17, "velocity": 93}, {"time": 3273, "pitch": 63, "duration": 11, "velocity": 91}, {"time": 3273, "pitch": 68, "duration": 15, "velocity": 85}, {"time": 3291, "pitch": 56, "duration": 9, "velocity": 58}, {"time": 3297, "pitch": 60, "duration": 8, "velocity": 80}, {"time": 3297, "pitch": 63, "duration": 10, "velocity": 85}, {"time": 3297, "pitch": 68, "duration": 10, "velocity": 80}, {"time": 3303, "pitch": 56, "duration": 8, "velocity": 63}, {"time": 3309, "pitch": 60, "duration": 3, "velocity": 63}, {"time": 3315, "pitch": 44, "duration": 42, "velocity": 85}, {"time": 3315, "pitch": 56, "duration": 7, "velocity": 80}, {"time": 3315, "pitch": 60, "duration": 13, "velocity": 88}, {"time": 3315, "pitch": 63, "duration": 13, "velocity": 93}, {"time": 3315, "pitch": 68, "duration": 12, "velocity": 93}, {"time": 3327, "pitch": 56, "duration": 13, "velocity": 99}, {"time": 3333, "pitch": 60, "duration": 3, "velocity": 57}, {"time": 3339, "pitch": 60, "duration": 8, "velocity": 85}, {"time": 3339, "pitch": 63, "duration": 8, "velocity": 88}, {"time": 3339, "pitch": 68, "duration": 8, "velocity": 95}, {"time": 3345, "pitch": 56, "duration": 10, "velocity": 93}, {"time": 3351, "pitch": 60, "duration": 5, "velocity": 91}, {"time": 3351, "pitch": 63, "duration": 2, "velocity": 60}, {"time": 3351, "pitch": 68, "duration": 3, "velocity": 60}, {"time": 3357, "pitch": 60, "duration": 1, "velocity": 48}, {"time": 3357, "pitch": 63, "duration": 6, "velocity": 80}, {"time": 3363, "pitch": 65, "duration": 3, "velocity": 82}, {"time": 3369, "pitch": 34, "duration": 3, "velocity": 93}, {"time": 3369, "pitch": 58, "duration": 11, "velocity": 97}, {"time": 3369, "pitch": 63, "duration": 12, "velocity": 85}, {"time": 3369, "pitch": 65, "duration": 12, "velocity": 76}, {"time": 3369, "pitch": 70, "duration": 11, "velocity": 73}, {"time": 3381, "pitch": 46, "duration": 75, "velocity": 72}, {"time": 3384, "pitch": 58, "duration": 2, "velocity": 63}, {"time": 3384, "pitch": 63, "duration": 3, "velocity": 58}, {"time": 3387, "pitch": 53, "duration": 24, "velocity": 45}, {"time": 3387, "pitch": 65, "duration": 1, "velocity": 60}, {"time": 3393, "pitch": 70, "duration": 5, "velocity": 97}, {"time": 3396, "pitch": 58, "duration": 4, "velocity": 27}, {"time": 3396, "pitch": 74, "duration": 3, "velocity": 54}, {"time": 3396, "pitch": 75, "duration": 4, "velocity": 54}, {"time": 3399, "pitch": 77, "duration": 3, "velocity": 64}, {"time": 3402, "pitch": 82, "duration": 5, "velocity": 67}, {"time": 3405, "pitch": 77, "duration": 4, "velocity": 70}, {"time": 3408, "pitch": 75, "duration": 3, "velocity": 64}, {"time": 3411, "pitch": 70, "duration": 2, "velocity": 93}, {"time": 3414, "pitch": 58, "duration": 4, "velocity": 66}, {"time": 3417, "pitch": 53, "duration": 7, "velocity": 45}, {"time": 3423, "pitch": 58, "duration": 12, "velocity": 93}, {"time": 3423, "pitch": 62, "duration": 13, "velocity": 85}, {"time": 3435, "pitch": 53, "duration": 7, "velocity": 88}, {"time": 3441, "pitch": 58, "duration": 8, "velocity": 85}, {"time": 3441, "pitch": 63, "duration": 10, "velocity": 80}, {"time": 3453, "pitch": 53, "duration": 3, "velocity": 72}, {"time": 3465, "pitch": 48, "duration": 43, "velocity": 80}, {"time": 3465, "pitch": 58, "duration": 9, "velocity": 78}, {"time": 3465, "pitch": 63, "duration": 13, "velocity": 73}, {"time": 3471, "pitch": 55, "duration": 8, "velocity": 55}, {"time": 3477, "pitch": 60, "duration": 5, "velocity": 67}, {"time": 3483, "pitch": 63, "duration": 9, "velocity": 73}, {"time": 3489, "pitch": 55, "duration": 8, "velocity": 49}, {"time": 3495, "pitch": 60, "duration": 5, "velocity": 55}, {"time": 3501, "pitch": 62, "duration": 5, "velocity": 67}, {"time": 3507, "pitch": 55, "duration": 5, "velocity": 53}, {"time": 3507, "pitch": 63, "duration": 9, "velocity": 64}, {"time": 3513, "pitch": 48, "duration": 41, "velocity": 82}, {"time": 3519, "pitch": 55, "duration": 8, "velocity": 61}, {"time": 3525, "pitch": 60, "duration": 3, "velocity": 58}, {"time": 3531, "pitch": 65, "duration": 7, "velocity": 69}, {"time": 3537, "pitch": 63, "duration": 7, "velocity": 62}, {"time": 3543, "pitch": 62, "duration": 4, "velocity": 67}, {"time": 3549, "pitch": 58, "duration": 6, "velocity": 72}, {"time": 3555, "pitch": 55, "duration": 7, "velocity": 63}, {"time": 3561, "pitch": 48, "duration": 42, "velocity": 99}, {"time": 3567, "pitch": 55, "duration": 4, "velocity": 76}, {"time": 3573, "pitch": 60, "duration": 4, "velocity": 69}, {"time": 3579, "pitch": 63, "duration": 10, "velocity": 93}, {"time": 3591, "pitch": 51, "duration": 3, "velocity": 48}, {"time": 3597, "pitch": 60, "duration": 4, "velocity": 76}, {"time": 3603, "pitch": 62, "duration": 9, "velocity": 88}, {"time": 3609, "pitch": 48, "duration": 43, "velocity": 97}, {"time": 3615, "pitch": 58, "duration": 4, "velocity": 78}, {"time": 3627, "pitch": 72, "duration": 7, "velocity": 88}, {"time": 3633, "pitch": 70, "duration": 5, "velocity": 67}, {"time": 3639, "pitch": 67, "duration": 7, "velocity": 80}, {"time": 3645, "pitch": 63, "duration": 5, "velocity": 58}, {"time": 3651, "pitch": 62, "duration": 5, "velocity": 76}, {"time": 3657, "pitch": 36, "duration": 89, "velocity": 75}, {"time": 3657, "pitch": 60, "duration": 18, "velocity": 63}, {"time": 3657, "pitch": 63, "duration": 16, "velocity": 67}, {"time": 3657, "pitch": 67, "duration": 15, "velocity": 69}, {"time": 3669, "pitch": 48, "duration": 21, "velocity": 44}, {"time": 3681, "pitch": 60, "duration": 14, "velocity": 64}, {"time": 3681, "pitch": 63, "duration": 13, "velocity": 67}, {"time": 3681, "pitch": 67, "duration": 12, "velocity": 69}, {"time": 3693, "pitch": 48, "duration": 14, "velocity": 40}, {"time": 3705, "pitch": 60, "duration": 4, "velocity": 75}, {"time": 3705, "pitch": 63, "duration": 3, "velocity": 75}, {"time": 3705, "pitch": 67, "duration": 3, "velocity": 72}, {"time": 3717, "pitch": 48, "duration": 8, "velocity": 42}, {"time": 3723, "pitch": 53, "duration": 6, "velocity": 53}, {"time": 3723, "pitch": 58, "duration": 6, "velocity": 66}, {"time": 3723, "pitch": 62, "duration": 10, "velocity": 73}, {"time": 3729, "pitch": 48, "duration": 6, "velocity": 46}, {"time": 3735, "pitch": 55, "duration": 7, "velocity": 75}, {"time": 3735, "pitch": 58, "duration": 9, "velocity": 80}, {"time": 3735, "pitch": 63, "duration": 8, "velocity": 80}, {"time": 3741, "pitch": 48, "duration": 4, "velocity": 60}, {"time": 3747, "pitch": 60, "duration": 3, "velocity": 66}, {"time": 3753, "pitch": 34, "duration": 35, "velocity": 75}, {"time": 3753, "pitch": 46, "duration": 13, "velocity": 78}, {"time": 3753, "pitch": 53, "duration": 18, "velocity": 82}, {"time": 3753, "pitch": 58, "duration": 17, "velocity": 76}, {"time": 3753, "pitch": 62, "duration": 13, "velocity": 72}, {"time": 3771, "pitch": 46, "duration": 9, "velocity": 33}, {"time": 3777, "pitch": 53, "duration": 14, "velocity": 85}, {"time": 3777, "pitch": 58, "duration": 12, "velocity": 82}, {"time": 3777, "pitch": 62, "duration": 11, "velocity": 66}, {"time": 3783, "pitch": 46, "duration": 5, "velocity": 60}, {"time": 3789, "pitch": 36, "duration": 8, "velocity": 70}, {"time": 3795, "pitch": 38, "duration": 8, "velocity": 44}, {"time": 3801, "pitch": 39, "duration": 39, "velocity": 91}, {"time": 3801, "pitch": 55, "duration": 20, "velocity": 76}, {"time": 3801, "pitch": 58, "duration": 19, "velocity": 78}, {"time": 3801, "pitch": 63, "duration": 15, "velocity": 80}, {"time": 3819, "pitch": 51, "duration": 11, "velocity": 57}, {"time": 3825, "pitch": 55, "duration": 8, "velocity": 76}, {"time": 3825, "pitch": 58, "duration": 10, "velocity": 78}, {"time": 3825, "pitch": 63, "duration": 8, "velocity": 76}, {"time": 3837, "pitch": 51, "duration": 3, "velocity": 80}, {"time": 3837, "pitch": 55, "duration": 7, "velocity": 76}, {"time": 3837, "pitch": 63, "duration": 9, "velocity": 72}, {"time": 3849, "pitch": 36, "duration": 35, "velocity": 78}, {"time": 3849, "pitch": 48, "duration": 11, "velocity": 76}, {"time": 3849, "pitch": 55, "duration": 19, "velocity": 73}, {"time": 3849, "pitch": 60, "duration": 16, "velocity": 70}, {"time": 3849, "pitch": 63, "duration": 13, "velocity": 76}, {"time": 3867, "pitch": 48, "duration": 8, "velocity": 69}, {"time": 3873, "pitch": 55, "duration": 12, "velocity": 80}, {"time": 3873, "pitch": 60, "duration": 14, "velocity": 82}, {"time": 3873, "pitch": 63, "duration": 10, "velocity": 75}, {"time": 3885, "pitch": 48, "duration": 4, "velocity": 78}, {"time": 3891, "pitch": 55, "duration": 2, "velocity": 72}, {"time": 3897, "pitch": 41, "duration": 39, "velocity": 57}, {"time": 3897, "pitch": 48, "duration": 30, "velocity": 60}, {"time": 3897, "pitch": 53, "duration": 12, "velocity": 78}, {"time": 3897, "pitch": 56, "duration": 21, "velocity": 91}, {"time": 3897, "pitch": 60, "duration": 21, "velocity": 67}, {"time": 3897, "pitch": 63, "duration": 16, "velocity": 62}, {"time": 3915, "pitch": 53, "duration": 11, "velocity": 55}, {"time": 3921, "pitch": 56, "duration": 13, "velocity": 95}, {"time": 3921, "pitch": 60, "duration": 10, "velocity": 80}, {"time": 3921, "pitch": 63, "duration": 11, "velocity": 80}, {"time": 3933, "pitch": 48, "duration": 2, "velocity": 69}, {"time": 3945, "pitch": 34, "duration": 36, "velocity": 88}, {"time": 3945, "pitch": 46, "duration": 9, "velocity": 72}, {"time": 3945, "pitch": 53, "duration": 16, "velocity": 85}, {"time": 3945, "pitch": 58, "duration": 20, "velocity": 97}, {"time": 3945, "pitch": 62, "duration": 13, "velocity": 78}, {"time": 3945, "pitch": 65, "duration": 19, "velocity": 78}, {"time": 3960, "pitch": 46, "duration": 12, "velocity": 51}, {"time": 3969, "pitch": 53, "duration": 12, "velocity": 85}, {"time": 3969, "pitch": 58, "duration": 12, "velocity": 97}, {"time": 3969, "pitch": 62, "duration": 11, "velocity": 85}, {"time": 3969, "pitch": 65, "duration": 11, "velocity": 63}, {"time": 3981, "pitch": 46, "duration": 3, "velocity": 91}, {"time": 3993, "pitch": 43, "duration": 38, "velocity": 73}, {"time": 3993, "pitch": 55, "duration": 7, "velocity": 85}, {"time": 3993, "pitch": 58, "duration": 8, "velocity": 97}, {"time": 3993, "pitch": 62, "duration": 7, "velocity": 95}, {"time": 3999, "pitch": 50, "duration": 14, "velocity": 72}, {"time": 4005, "pitch": 55, "duration": 3, "velocity": 95}, {"time": 4011, "pitch": 55, "duration": 3, "velocity": 55}, {"time": 4011, "pitch": 58, "duration": 9, "velocity": 101}, {"time": 4011, "pitch": 65, "duration": 9, "velocity": 91}, {"time": 4023, "pitch": 55, "duration": 8, "velocity": 97}, {"time": 4023, "pitch": 62, "duration": 8, "velocity": 101}, {"time": 4029, "pitch": 50, "duration": 2, "velocity": 73}, {"time": 4035, "pitch": 60, "duration": 4, "velocity": 72}, {"time": 4038, "pitch": 62, "duration": 3, "velocity": 69}, {"time": 4041, "pitch": 36, "duration": 23, "velocity": 76}, {"time": 4041, "pitch": 55, "duration": 18, "velocity": 88}, {"time": 4041, "pitch": 58, "duration": 17, "velocity": 93}, {"time": 4041, "pitch": 63, "duration": 14, "velocity": 80}, {"time": 4053, "pitch": 43, "duration": 12, "velocity": 55}, {"time": 4065, "pitch": 48, "duration": 13, "velocity": 73}, {"time": 4065, "pitch": 55, "duration": 4, "velocity": 85}, {"time": 4065, "pitch": 58, "duration": 6, "velocity": 82}, {"time": 4065, "pitch": 63, "duration": 7, "velocity": 82}, {"time": 4077, "pitch": 50, "duration": 18, "velocity": 66}, {"time": 4089, "pitch": 51, "duration": 12, "velocity": 67}, {"time": 4101, "pitch": 53, "duration": 13, "velocity": 66}, {"time": 4113, "pitch": 55, "duration": 14, "velocity": 63}, {"time": 4125, "pitch": 57, "duration": 2, "velocity": 62}, {"time": 4137, "pitch": 46, "duration": 27, "velocity": 75}, {"time": 4137, "pitch": 62, "duration": 20, "velocity": 93}, {"time": 4137, "pitch": 65, "duration": 22, "velocity": 85}, {"time": 4137, "pitch": 70, "duration": 17, "velocity": 73}, {"time": 4149, "pitch": 53, "duration": 16, "velocity": 46}, {"time": 4161, "pitch": 58, "duration": 9, "velocity": 62}, {"time": 4167, "pitch": 62, "duration": 4, "velocity": 91}, {"time": 4173, "pitch": 63, "duration": 7, "velocity": 80}, {"time": 4179, "pitch": 70, "duration": 22, "velocity": 69}, {"time": 4185, "pitch": 51, "duration": 32, "velocity": 78}, {"time": 4185, "pitch": 58, "duration": 14, "velocity": 93}, {"time": 4185, "pitch": 63, "duration": 15, "velocity": 73}, {"time": 4185, "pitch": 67, "duration": 15, "velocity": 64}, {"time": 4197, "pitch": 55, "duration": 10, "velocity": 61}, {"time": 4203, "pitch": 58, "duration": 9, "velocity": 88}, {"time": 4203, "pitch": 65, "duration": 9, "velocity": 75}, {"time": 4209, "pitch": 55, "duration": 15, "velocity": 69}, {"time": 4215, "pitch": 58, "duration": 7, "velocity": 80}, {"time": 4215, "pitch": 62, "duration": 8, "velocity": 99}, {"time": 4221, "pitch": 50, "duration": 11, "velocity": 76}, {"time": 4227, "pitch": 58, "duration": 4, "velocity": 47}, {"time": 4233, "pitch": 48, "duration": 39, "velocity": 72}, {"time": 4233, "pitch": 63, "duration": 11, "velocity": 85}, {"time": 4236, "pitch": 60, "duration": 10, "velocity": 53}, {"time": 4245, "pitch": 55, "duration": 14, "velocity": 60}, {"time": 4257, "pitch": 60, "duration": 13, "velocity": 97}, {"time": 4257, "pitch": 63, "duration": 13, "velocity": 101}, {"time": 4269, "pitch": 55, "duration": 3, "velocity": 78}, {"time": 4281, "pitch": 43, "duration": 37, "velocity": 75}, {"time": 4281, "pitch": 58, "duration": 20, "velocity": 85}, {"time": 4281, "pitch": 62, "duration": 21, "velocity": 78}, {"time": 4281, "pitch": 67, "duration": 21, "velocity": 76}, {"time": 4293, "pitch": 50, "duration": 24, "velocity": 54}, {"time": 4305, "pitch": 55, "duration": 16, "velocity": 48}, {"time": 4305, "pitch": 58, "duration": 14, "velocity": 78}, {"time": 4305, "pitch": 65, "duration": 13, "velocity": 75}, {"time": 4317, "pitch": 67, "duration": 3, "velocity": 76}, {"time": 4329, "pitch": 48, "duration": 29, "velocity": 78}, {"time": 4329, "pitch": 63, "duration": 24, "velocity": 78}, {"time": 4329, "pitch": 67, "duration": 25, "velocity": 76}, {"time": 4371, "pitch": 46, "duration": 5, "velocity": 88}, {"time": 4371, "pitch": 58, "duration": 3, "velocity": 80}, {"time": 4371, "pitch": 62, "duration": 2, "velocity": 85}, {"time": 4371, "pitch": 65, "duration": 5, "velocity": 93}, {"time": 4377, "pitch": 48, "duration": 23, "velocity": 76}, {"time": 4377, "pitch": 60, "duration": 7, "velocity": 93}, {"time": 4377, "pitch": 63, "duration": 9, "velocity": 97}, {"time": 4377, "pitch": 67, "duration": 5, "velocity": 72}, {"time": 4425, "pitch": 36, "duration": 43, "velocity": 73}, {"time": 4425, "pitch": 48, "duration": 11, "velocity": 99}, {"time": 4425, "pitch": 60, "duration": 14, "velocity": 95}, {"time": 4425, "pitch": 63, "duration": 15, "velocity": 85}, {"time": 4425, "pitch": 67, "duration": 14, "velocity": 80}, {"time": 4443, "pitch": 48, "duration": 9, "velocity": 53}, {"time": 4449, "pitch": 60, "duration": 7, "velocity": 93}, {"time": 4449, "pitch": 63, "duration": 9, "velocity": 88}, {"time": 4449, "pitch": 67, "duration": 9, "velocity": 78}, {"time": 4461, "pitch": 48, "duration": 8, "velocity": 50}, {"time": 4461, "pitch": 62, "duration": 8, "velocity": 80}, {"time": 4461, "pitch": 65, "duration": 9, "velocity": 78}, {"time": 4473, "pitch": 36, "duration": 32, "velocity": 73}, {"time": 4473, "pitch": 48, "duration": 11, "velocity": 82}, {"time": 4473, "pitch": 63, "duration": 3, "velocity": 93}, {"time": 4473, "pitch": 67, "duration": 3, "velocity": 97}, {"time": 4485, "pitch": 63, "duration": 8, "velocity": 85}, {"time": 4485, "pitch": 67, "duration": 4, "velocity": 69}, {"time": 4485, "pitch": 70, "duration": 7, "velocity": 76}, {"time": 4491, "pitch": 48, "duration": 7, "velocity": 78}, {"time": 4497, "pitch": 60, "duration": 7, "velocity": 80}, {"time": 4497, "pitch": 67, "duration": 9, "velocity": 78}, {"time": 4503, "pitch": 48, "duration": 3, "velocity": 82}, {"time": 4509, "pitch": 60, "duration": 6, "velocity": 80}, {"time": 4509, "pitch": 65, "duration": 7, "velocity": 70}, {"time": 4515, "pitch": 67, "duration": 3, "velocity": 64}, {"time": 4521, "pitch": 48, "duration": 39, "velocity": 78}, {"time": 4521, "pitch": 63, "duration": 13, "velocity": 80}, {"time": 4521, "pitch": 67, "duration": 11, "velocity": 85}, {"time": 4527, "pitch": 55, "duration": 27, "velocity": 66}, {"time": 4533, "pitch": 60, "duration": 26, "velocity": 75}, {"time": 4539, "pitch": 62, "duration": 4, "velocity": 85}, {"time": 4545, "pitch": 63, "duration": 3, "velocity": 88}, {"time": 4551, "pitch": 65, "duration": 3, "velocity": 67}, {"time": 4560, "pitch": 55, "duration": 8, "velocity": 54}, {"time": 4569, "pitch": 48, "duration": 38, "velocity": 67}, {"time": 4569, "pitch": 67, "duration": 9, "velocity": 73}, {"time": 4575, "pitch": 55, "duration": 18, "velocity": 53}, {"time": 4581, "pitch": 67, "duration": 4, "velocity": 70}, {"time": 4587, "pitch": 60, "duration": 13, "velocity": 55}, {"time": 4593, "pitch": 65, "duration": 3, "velocity": 66}, {"time": 4599, "pitch": 55, "duration": 8, "velocity": 62}, {"time": 4605, "pitch": 65, "duration": 2, "velocity": 82}, {"time": 4605, "pitch": 70, "duration": 1, "velocity": 62}, {"time": 4617, "pitch": 48, "duration": 40, "velocity": 82}, {"time": 4617, "pitch": 62, "duration": 10, "velocity": 49}, {"time": 4617, "pitch": 65, "duration": 9, "velocity": 26}, {"time": 4629, "pitch": 55, "duration": 33, "velocity": 56}, {"time": 4635, "pitch": 60, "duration": 24, "velocity": 72}, {"time": 4641, "pitch": 62, "duration": 5, "velocity": 93}, {"time": 4647, "pitch": 63, "duration": 3, "velocity": 63}, {"time": 4653, "pitch": 65, "duration": 3, "velocity": 46}, {"time": 4653, "pitch": 67, "duration": 4, "velocity": 49}, {"time": 4665, "pitch": 48, "duration": 37, "velocity": 66}, {"time": 4665, "pitch": 74, "duration": 11, "velocity": 80}, {"time": 4671, "pitch": 55, "duration": 18, "velocity": 48}, {"time": 4677, "pitch": 67, "duration": 3, "velocity": 91}, {"time": 4677, "pitch": 72, "duration": 2, "velocity": 97}, {"time": 4683, "pitch": 60, "duration": 10, "velocity": 67}, {"time": 4689, "pitch": 62, "duration": 8, "velocity": 82}, {"time": 4695, "pitch": 63, "duration": 4, "velocity": 80}, {"time": 4701, "pitch": 55, "duration": 6, "velocity": 51}, {"time": 4701, "pitch": 65, "duration": 4, "velocity": 88}, {"time": 4707, "pitch": 70, "duration": 25, "velocity": 76}, {"time": 4713, "pitch": 48, "duration": 36, "velocity": 70}, {"time": 4719, "pitch": 55, "duration": 14, "velocity": 78}, {"time": 4725, "pitch": 62, "duration": 5, "velocity": 88}, {"time": 4731, "pitch": 63, "duration": 7, "velocity": 80}, {"time": 4737, "pitch": 65, "duration": 10, "velocity": 78}, {"time": 4743, "pitch": 55, "duration": 15, "velocity": 64}, {"time": 4749, "pitch": 62, "duration": 8, "velocity": 76}, {"time": 4755, "pitch": 63, "duration": 12, "velocity": 62}, {"time": 4761, "pitch": 48, "duration": 36, "velocity": 67}, {"time": 4761, "pitch": 67, "duration": 11, "velocity": 75}, {"time": 4767, "pitch": 55, "duration": 19, "velocity": 75}, {"time": 4773, "pitch": 62, "duration": 8, "velocity": 82}, {"time": 4779, "pitch": 63, "duration": 8, "velocity": 76}, {"time": 4785, "pitch": 67, "duration": 8, "velocity": 88}, {"time": 4791, "pitch": 55, "duration": 5, "velocity": 66}, {"time": 4791, "pitch": 62, "duration": 8, "velocity": 61}, {"time": 4797, "pitch": 63, "duration": 6, "velocity": 82}, {"time": 4803, "pitch": 70, "duration": 8, "velocity": 73}, {"time": 4809, "pitch": 41, "duration": 11, "velocity": 73}, {"time": 4809, "pitch": 68, "duration": 24, "velocity": 91}, {"time": 4815, "pitch": 48, "duration": 6, "velocity": 63}, {"time": 4821, "pitch": 53, "duration": 7, "velocity": 66}, {"time": 4827, "pitch": 55, "duration": 14, "velocity": 69}, {"time": 4833, "pitch": 56, "duration": 8, "velocity": 88}, {"time": 4839, "pitch": 60, "duration": 7, "velocity": 91}, {"time": 4845, "pitch": 63, "duration": 6, "velocity": 52}, {"time": 4851, "pitch": 67, "duration": 2, "velocity": 78}, {"time": 4857, "pitch": 43, "duration": 39, "velocity": 72}, {"time": 4857, "pitch": 58, "duration": 14, "velocity": 72}, {"time": 4857, "pitch": 65, "duration": 10, "velocity": 80}, {"time": 4863, "pitch": 50, "duration": 32, "velocity": 67}, {"time": 4869, "pitch": 55, "duration": 13, "velocity": 78}, {"time": 4875, "pitch": 58, "duration": 8, "velocity": 76}, {"time": 4881, "pitch": 62, "duration": 8, "velocity": 85}, {"time": 4887, "pitch": 55, "duration": 7, "velocity": 76}, {"time": 4893, "pitch": 58, "duration": 5, "velocity": 85}, {"time": 4905, "pitch": 46, "duration": 39, "velocity": 73}, {"time": 4905, "pitch": 62, "duration": 12, "velocity": 80}, {"time": 4905, "pitch": 65, "duration": 12, "velocity": 78}, {"time": 4905, "pitch": 70, "duration": 11, "velocity": 82}, {"time": 4911, "pitch": 53, "duration": 33, "velocity": 66}, {"time": 4917, "pitch": 58, "duration": 14, "velocity": 66}, {"time": 4923, "pitch": 62, "duration": 9, "velocity": 97}, {"time": 4929, "pitch": 65, "duration": 13, "velocity": 95}, {"time": 4935, "pitch": 58, "duration": 6, "velocity": 70}, {"time": 4941, "pitch": 62, "duration": 7, "velocity": 88}, {"time": 4947, "pitch": 70, "duration": 6, "velocity": 75}, {"time": 4953, "pitch": 43, "duration": 36, "velocity": 75}, {"time": 4953, "pitch": 58, "duration": 10, "velocity": 45}, {"time": 4953, "pitch": 62, "duration": 11, "velocity": 85}, {"time": 4953, "pitch": 65, "duration": 11, "velocity": 63}, {"time": 4959, "pitch": 50, "duration": 31, "velocity": 70}, {"time": 4965, "pitch": 55, "duration": 18, "velocity": 88}, {"time": 4971, "pitch": 58, "duration": 8, "velocity": 93}, {"time": 4977, "pitch": 62, "duration": 7, "velocity": 80}, {"time": 4983, "pitch": 65, "duration": 6, "velocity": 64}, {"time": 4989, "pitch": 55, "duration": 9, "velocity": 58}, {"time": 4989, "pitch": 70, "duration": 10, "velocity": 73}, {"time": 5001, "pitch": 48, "duration": 38, "velocity": 61}, {"time": 5001, "pitch": 63, "duration": 13, "velocity": 78}, {"time": 5001, "pitch": 67, "duration": 12, "velocity": 76}, {"time": 5007, "pitch": 55, "duration": 19, "velocity": 55}, {"time": 5013, "pitch": 60, "duration": 21, "velocity": 76}, {"time": 5019, "pitch": 62, "duration": 4, "velocity": 93}, {"time": 5025, "pitch": 63, "duration": 7, "velocity": 80}, {"time": 5031, "pitch": 65, "duration": 3, "velocity": 75}, {"time": 5037, "pitch": 55, "duration": 2, "velocity": 67}, {"time": 5037, "pitch": 65, "duration": 2, "velocity": 69}, {"time": 5043, "pitch": 46, "duration": 3, "velocity": 88}, {"time": 5043, "pitch": 58, "duration": 4, "velocity": 95}, {"time": 5049, "pitch": 48, "duration": 7, "velocity": 101}, {"time": 5049, "pitch": 60, "duration": 5, "velocity": 101}, {"time": 5061, "pitch": 46, "duration": 7, "velocity": 99}, {"time": 5061, "pitch": 58, "duration": 5, "velocity": 103}, {"time": 5067, "pitch": 48, "duration": 7, "velocity": 95}, {"time": 5067, "pitch": 60, "duration": 5, "velocity": 99}, {"time": 5073, "pitch": 51, "duration": 8, "velocity": 97}, {"time": 5073, "pitch": 63, "duration": 7, "velocity": 72}, {"time": 5079, "pitch": 50, "duration": 9, "velocity": 97}, {"time": 5079, "pitch": 62, "duration": 7, "velocity": 106}, {"time": 5085, "pitch": 48, "duration": 7, "velocity": 80}, {"time": 5085, "pitch": 60, "duration": 4, "velocity": 97}, {"time": 5091, "pitch": 46, "duration": 4, "velocity": 76}, {"time": 5091, "pitch": 58, "duration": 3, "velocity": 99}, {"time": 5097, "pitch": 36, "duration": 43, "velocity": 73}, {"time": 5097, "pitch": 48, "duration": 11, "velocity": 99}, {"time": 5097, "pitch": 60, "duration": 14, "velocity": 95}, {"time": 5097, "pitch": 63, "duration": 15, "velocity": 85}, {"time": 5097, "pitch": 67, "duration": 14, "velocity": 80}, {"time": 5115, "pitch": 48, "duration": 9, "velocity": 53}, {"time": 5121, "pitch": 60, "duration": 7, "velocity": 93}, {"time": 5121, "pitch": 63, "duration": 9, "velocity": 88}, {"time": 5121, "pitch": 67, "duration": 9, "velocity": 78}, {"time": 5133, "pitch": 48, "duration": 8, "velocity": 50}, {"time": 5133, "pitch": 62, "duration": 8, "velocity": 80}, {"time": 5133, "pitch": 65, "duration": 9, "velocity": 78}, {"time": 5145, "pitch": 36, "duration": 32, "velocity": 73}, {"time": 5145, "pitch": 48, "duration": 11, "velocity": 82}, {"time": 5145, "pitch": 63, "duration": 3, "velocity": 93}, {"time": 5145, "pitch": 67, "duration": 3, "velocity": 97}, {"time": 5157, "pitch": 63, "duration": 8, "velocity": 85}, {"time": 5157, "pitch": 67, "duration": 4, "velocity": 69}, {"time": 5157, "pitch": 70, "duration": 7, "velocity": 76}, {"time": 5163, "pitch": 48, "duration": 7, "velocity": 78}, {"time": 5169, "pitch": 60, "duration": 7, "velocity": 80}, {"time": 5169, "pitch": 67, "duration": 9, "velocity": 78}, {"time": 5175, "pitch": 48, "duration": 3, "velocity": 82}, {"time": 5181, "pitch": 60, "duration": 6, "velocity": 80}, {"time": 5181, "pitch": 65, "duration": 7, "velocity": 70}, {"time": 5187, "pitch": 67, "duration": 3, "velocity": 64}, {"time": 5193, "pitch": 48, "duration": 39, "velocity": 78}, {"time": 5193, "pitch": 63, "duration": 13, "velocity": 80}, {"time": 5193, "pitch": 67, "duration": 11, "velocity": 85}, {"time": 5199, "pitch": 55, "duration": 27, "velocity": 66}, {"time": 5205, "pitch": 60, "duration": 26, "velocity": 75}, {"time": 5211, "pitch": 62, "duration": 4, "velocity": 85}, {"time": 5217, "pitch": 63, "duration": 3, "velocity": 88}, {"time": 5223, "pitch": 65, "duration": 3, "velocity": 67}, {"time": 5235, "pitch": 55, "duration": 5, "velocity": 54}, {"time": 5241, "pitch": 48, "duration": 38, "velocity": 67}, {"time": 5241, "pitch": 67, "duration": 9, "velocity": 73}, {"time": 5247, "pitch": 55, "duration": 18, "velocity": 53}, {"time": 5253, "pitch": 67, "duration": 4, "velocity": 70}, {"time": 5259, "pitch": 60, "duration": 13, "velocity": 55}, {"time": 5265, "pitch": 65, "duration": 3, "velocity": 66}, {"time": 5271, "pitch": 55, "duration": 8, "velocity": 62}, {"time": 5277, "pitch": 65, "duration": 2, "velocity": 82}, {"time": 5277, "pitch": 70, "duration": 1, "velocity": 62}, {"time": 5277, "pitch": 72, "duration": 2, "velocity": 70}, {"time": 5289, "pitch": 48, "duration": 40, "velocity": 69}, {"time": 5289, "pitch": 62, "duration": 10, "velocity": 49}, {"time": 5289, "pitch": 65, "duration": 9, "velocity": 26}, {"time": 5301, "pitch": 55, "duration": 33, "velocity": 56}, {"time": 5307, "pitch": 60, "duration": 24, "velocity": 72}, {"time": 5313, "pitch": 62, "duration": 5, "velocity": 93}, {"time": 5319, "pitch": 63, "duration": 3, "velocity": 63}, {"time": 5325, "pitch": 65, "duration": 3, "velocity": 46}, {"time": 5325, "pitch": 67, "duration": 4, "velocity": 49}, {"time": 5337, "pitch": 48, "duration": 37, "velocity": 66}, {"time": 5337, "pitch": 74, "duration": 11, "velocity": 80}, {"time": 5343, "pitch": 55, "duration": 18, "velocity": 48}, {"time": 5349, "pitch": 67, "duration": 3, "velocity": 91}, {"time": 5349, "pitch": 72, "duration": 2, "velocity": 97}, {"time": 5355, "pitch": 60, "duration": 10, "velocity": 67}, {"time": 5361, "pitch": 62, "duration": 8, "velocity": 82}, {"time": 5367, "pitch": 63, "duration": 4, "velocity": 80}, {"time": 5373, "pitch": 55, "duration": 6, "velocity": 51}, {"time": 5373, "pitch": 65, "duration": 4, "velocity": 88}, {"time": 5379, "pitch": 70, "duration": 25, "velocity": 76}, {"time": 5385, "pitch": 48, "duration": 36, "velocity": 70}, {"time": 5391, "pitch": 55, "duration": 14, "velocity": 78}, {"time": 5397, "pitch": 62, "duration": 5, "velocity": 88}, {"time": 5403, "pitch": 63, "duration": 7, "velocity": 80}, {"time": 5409, "pitch": 65, "duration": 10, "velocity": 78}, {"time": 5415, "pitch": 55, "duration": 15, "velocity": 64}, {"time": 5421, "pitch": 62, "duration": 8, "velocity": 76}, {"time": 5427, "pitch": 63, "duration": 12, "velocity": 62}, {"time": 5433, "pitch": 48, "duration": 36, "velocity": 67}, {"time": 5433, "pitch": 67, "duration": 11, "velocity": 75}, {"time": 5439, "pitch": 55, "duration": 19, "velocity": 75}, {"time": 5445, "pitch": 62, "duration": 8, "velocity": 82}, {"time": 5451, "pitch": 63, "duration": 8, "velocity": 76}, {"time": 5457, "pitch": 67, "duration": 8, "velocity": 88}, {"time": 5463, "pitch": 55, "duration": 5, "velocity": 66}, {"time": 5463, "pitch": 62, "duration": 8, "velocity": 61}, {"time": 5469, "pitch": 63, "duration": 6, "velocity": 82}, {"time": 5475, "pitch": 70, "duration": 8, "velocity": 73}, {"time": 5481, "pitch": 41, "duration": 11, "velocity": 73}, {"time": 5481, "pitch": 68, "duration": 24, "velocity": 91}, {"time": 5487, "pitch": 48, "duration": 6, "velocity": 63}, {"time": 5493, "pitch": 53, "duration": 7, "velocity": 66}, {"time": 5499, "pitch": 55, "duration": 14, "velocity": 69}, {"time": 5505, "pitch": 56, "duration": 8, "velocity": 88}, {"time": 5511, "pitch": 60, "duration": 7, "velocity": 91}, {"time": 5517, "pitch": 63, "duration": 6, "velocity": 52}, {"time": 5523, "pitch": 67, "duration": 2, "velocity": 78}, {"time": 5529, "pitch": 43, "duration": 39, "velocity": 72}, {"time": 5529, "pitch": 58, "duration": 14, "velocity": 72}, {"time": 5529, "pitch": 65, "duration": 10, "velocity": 80}, {"time": 5535, "pitch": 50, "duration": 32, "velocity": 67}, {"time": 5541, "pitch": 55, "duration": 13, "velocity": 78}, {"time": 5547, "pitch": 58, "duration": 8, "velocity": 76}, {"time": 5553, "pitch": 62, "duration": 8, "velocity": 85}, {"time": 5559, "pitch": 55, "duration": 7, "velocity": 76}, {"time": 5565, "pitch": 58, "duration": 5, "velocity": 85}, {"time": 5571, "pitch": 63, "duration": 6, "velocity": 70}, {"time": 5577, "pitch": 46, "duration": 39, "velocity": 73}, {"time": 5577, "pitch": 62, "duration": 12, "velocity": 80}, {"time": 5577, "pitch": 65, "duration": 12, "velocity": 78}, {"time": 5577, "pitch": 70, "duration": 11, "velocity": 82}, {"time": 5583, "pitch": 53, "duration": 33, "velocity": 66}, {"time": 5589, "pitch": 58, "duration": 14, "velocity": 66}, {"time": 5595, "pitch": 62, "duration": 9, "velocity": 97}, {"time": 5601, "pitch": 65, "duration": 13, "velocity": 95}, {"time": 5607, "pitch": 58, "duration": 6, "velocity": 70}, {"time": 5613, "pitch": 62, "duration": 7, "velocity": 88}, {"time": 5619, "pitch": 70, "duration": 6, "velocity": 75}, {"time": 5625, "pitch": 43, "duration": 36, "velocity": 75}, {"time": 5625, "pitch": 58, "duration": 10, "velocity": 45}, {"time": 5625, "pitch": 62, "duration": 11, "velocity": 85}, {"time": 5625, "pitch": 65, "duration": 11, "velocity": 63}, {"time": 5631, "pitch": 50, "duration": 31, "velocity": 70}, {"time": 5637, "pitch": 55, "duration": 18, "velocity": 88}, {"time": 5643, "pitch": 58, "duration": 8, "velocity": 93}, {"time": 5649, "pitch": 62, "duration": 7, "velocity": 80}, {"time": 5655, "pitch": 65, "duration": 6, "velocity": 64}, {"time": 5661, "pitch": 55, "duration": 9, "velocity": 58}, {"time": 5661, "pitch": 70, "duration": 10, "velocity": 73}, {"time": 5673, "pitch": 48, "duration": 37, "velocity": 75}, {"time": 5673, "pitch": 63, "duration": 14, "velocity": 73}, {"time": 5673, "pitch": 67, "duration": 11, "velocity": 72}, {"time": 5685, "pitch": 55, "duration": 14, "velocity": 55}, {"time": 5697, "pitch": 60, "duration": 13, "velocity": 58}, {"time": 5697, "pitch": 62, "duration": 10, "velocity": 80}, {"time": 5709, "pitch": 55, "duration": 11, "velocity": 56}, {"time": 5709, "pitch": 63, "duration": 2, "velocity": 70}, {"time": 5715, "pitch": 67, "duration": 6, "velocity": 76}, {"time": 5721, "pitch": 48, "duration": 32, "velocity": 61}, {"time": 5721, "pitch": 75, "duration": 6, "velocity": 61}, {"time": 5727, "pitch": 74, "duration": 4, "velocity": 58}, {"time": 5733, "pitch": 72, "duration": 4, "velocity": 63}, {"time": 5739, "pitch": 70, "duration": 4, "velocity": 58}, {"time": 5745, "pitch": 67, "duration": 4, "velocity": 75}, {"time": 5751, "pitch": 65, "duration": 4, "velocity": 57}, {"time": 5757, "pitch": 63, "duration": 4, "velocity": 54}, {"time": 5763, "pitch": 62, "duration": 3, "velocity": 55}, {"time": 5769, "pitch": 46, "duration": 84, "velocity": 55}, {"time": 5769, "pitch": 60, "duration": 8, "velocity": 78}, {"time": 5775, "pitch": 62, "duration": 9, "velocity": 49}, {"time": 5781, "pitch": 53, "duration": 14, "velocity": 56}, {"time": 5787, "pitch": 58, "duration": 5, "velocity": 69}, {"time": 5793, "pitch": 62, "duration": 7, "velocity": 78}, {"time": 5799, "pitch": 53, "duration": 14, "velocity": 52}, {"time": 5805, "pitch": 58, "duration": 3, "velocity": 56}, {"time": 5805, "pitch": 65, "duration": 4, "velocity": 69}, {"time": 5811, "pitch": 58, "duration": 9, "velocity": 69}, {"time": 5811, "pitch": 70, "duration": 13, "velocity": 82}, {"time": 5823, "pitch": 58, "duration": 11, "velocity": 67}, {"time": 5823, "pitch": 65, "duration": 11, "velocity": 75}, {"time": 5835, "pitch": 53, "duration": 16, "velocity": 58}, {"time": 5841, "pitch": 58, "duration": 7, "velocity": 76}, {"time": 5847, "pitch": 65, "duration": 5, "velocity": 61}, {"time": 5853, "pitch": 70, "duration": 8, "velocity": 72}, {"time": 5865, "pitch": 48, "duration": 86, "velocity": 70}, {"time": 5865, "pitch": 60, "duration": 13, "velocity": 67}, {"time": 5865, "pitch": 63, "duration": 15, "velocity": 70}, {"time": 5865, "pitch": 67, "duration": 15, "velocity": 69}, {"time": 5880, "pitch": 55, "duration": 71, "velocity": 43}, {"time": 5889, "pitch": 60, "duration": 57, "velocity": 52}, {"time": 5889, "pitch": 62, "duration": 12, "velocity": 58}, {"time": 5901, "pitch": 63, "duration": 2, "velocity": 70}, {"time": 5925, "pitch": 67, "duration": 5, "velocity": 47}, {"time": 5925, "pitch": 75, "duration": 8, "velocity": 56}, {"time": 5937, "pitch": 65, "duration": 4, "velocity": 59}, {"time": 5937, "pitch": 74, "duration": 3, "velocity": 64}, {"time": 5949, "pitch": 63, "duration": 2, "velocity": 64}, {"time": 5949, "pitch": 72, "duration": 3, "velocity": 62}, {"time": 5961, "pitch": 46, "duration": 26, "velocity": 70}, {"time": 5961, "pitch": 77, "duration": 10, "velocity": 66}, {"time": 5973, "pitch": 53, "duration": 15, "velocity": 49}, {"time": 5973, "pitch": 74, "duration": 11, "velocity": 70}, {"time": 5985, "pitch": 58, "duration": 19, "velocity": 50}, {"time": 5985, "pitch": 70, "duration": 9, "velocity": 78}, {"time": 5997, "pitch": 67, "duration": 14, "velocity": 62}, {"time": 6009, "pitch": 51, "duration": 36, "velocity": 64}, {"time": 6009, "pitch": 75, "duration": 10, "velocity": 72}, {"time": 6021, "pitch": 58, "duration": 25, "velocity": 48}, {"time": 6021, "pitch": 77, "duration": 9, "velocity": 70}, {"time": 6030, "pitch": 70, "duration": 12, "velocity": 36}, {"time": 6033, "pitch": 63, "duration": 11, "velocity": 50}, {"time": 6033, "pitch": 75, "duration": 1, "velocity": 29}, {"time": 6033, "pitch": 79, "duration": 7, "velocity": 61}, {"time": 6057, "pitch": 48, "duration": 32, "velocity": 50}, {"time": 6057, "pitch": 63, "duration": 11, "velocity": 67}, {"time": 6057, "pitch": 67, "duration": 11, "velocity": 67}, {"time": 6069, "pitch": 55, "duration": 20, "velocity": 48}, {"time": 6069, "pitch": 62, "duration": 8, "velocity": 54}, {"time": 6069, "pitch": 65, "duration": 9, "velocity": 67}, {"time": 6081, "pitch": 60, "duration": 6, "velocity": 58}, {"time": 6081, "pitch": 63, "duration": 11, "velocity": 63}, {"time": 6081, "pitch": 67, "duration": 9, "velocity": 66}, {"time": 6093, "pitch": 70, "duration": 11, "velocity": 78}, {"time": 6105, "pitch": 41, "duration": 33, "velocity": 64}, {"time": 6105, "pitch": 60, "duration": 23, "velocity": 62}, {"time": 6105, "pitch": 63, "duration": 22, "velocity": 62}, {"time": 6105, "pitch": 68, "duration": 23, "velocity": 69}, {"time": 6117, "pitch": 48, "duration": 22, "velocity": 45}, {"time": 6129, "pitch": 53, "duration": 13, "velocity": 50}, {"time": 6153, "pitch": 46, "duration": 32, "velocity": 64}, {"time": 6153, "pitch": 58, "duration": 10, "velocity": 59}, {"time": 6153, "pitch": 62, "duration": 11, "velocity": 63}, {"time": 6153, "pitch": 65, "duration": 19, "velocity": 63}, {"time": 6165, "pitch": 53, "duration": 22, "velocity": 53}, {"time": 6177, "pitch": 58, "duration": 8, "velocity": 50}, {"time": 6201, "pitch": 43, "duration": 15, "velocity": 73}, {"time": 6201, "pitch": 58, "duration": 11, "velocity": 67}, {"time": 6201, "pitch": 65, "duration": 13, "velocity": 73}, {"time": 6213, "pitch": 50, "duration": 5, "velocity": 54}, {"time": 6219, "pitch": 55, "duration": 8, "velocity": 53}, {"time": 6225, "pitch": 57, "duration": 9, "velocity": 64}, {"time": 6231, "pitch": 58, "duration": 3, "velocity": 67}, {"time": 6237, "pitch": 60, "duration": 6, "velocity": 60}, {"time": 6243, "pitch": 67, "duration": 16, "velocity": 63}, {"time": 6249, "pitch": 48, "duration": 33, "velocity": 67}, {"time": 6249, "pitch": 63, "duration": 11, "velocity": 69}, {"time": 6261, "pitch": 55, "duration": 31, "velocity": 48}, {"time": 6261, "pitch": 62, "duration": 14, "velocity": 64}, {"time": 6273, "pitch": 60, "duration": 13, "velocity": 57}, {"time": 6273, "pitch": 63, "duration": 13, "velocity": 75}, {"time": 6285, "pitch": 67, "duration": 8, "velocity": 60}, {"time": 6297, "pitch": 48, "duration": 37, "velocity": 52}, {"time": 6309, "pitch": 55, "duration": 24, "velocity": 48}, {"time": 6309, "pitch": 67, "duration": 6, "velocity": 64}, {"time": 6309, "pitch": 75, "duration": 13, "velocity": 73}, {"time": 6321, "pitch": 60, "duration": 10, "velocity": 53}, {"time": 6321, "pitch": 65, "duration": 7, "velocity": 62}, {"time": 6321, "pitch": 74, "duration": 9, "velocity": 70}, {"time": 6333, "pitch": 72, "duration": 6, "velocity": 64}, {"time": 6339, "pitch": 70, "duration": 7, "velocity": 60}, {"time": 6345, "pitch": 46, "duration": 33, "velocity": 75}, {"time": 6345, "pitch": 62, "duration": 12, "velocity": 72}, {"time": 6345, "pitch": 65, "duration": 10, "velocity": 73}, {"time": 6345, "pitch": 70, "duration": 1, "velocity": 75}, {"time": 6357, "pitch": 53, "duration": 21, "velocity": 49}, {"time": 6369, "pitch": 58, "duration": 15, "velocity": 55}, {"time": 6369, "pitch": 63, "duration": 8, "velocity": 72}, {"time": 6369, "pitch": 67, "duration": 9, "velocity": 70}, {"time": 6390, "pitch": 67, "duration": 5, "velocity": 45}, {"time": 6393, "pitch": 51, "duration": 35, "velocity": 72}, {"time": 6393, "pitch": 70, "duration": 9, "velocity": 49}, {"time": 6393, "pitch": 75, "duration": 20, "velocity": 75}, {"time": 6408, "pitch": 58, "duration": 20, "velocity": 52}, {"time": 6417, "pitch": 63, "duration": 9, "velocity": 52}, {"time": 6417, "pitch": 67, "duration": 4, "velocity": 63}, {"time": 6417, "pitch": 72, "duration": 3, "velocity": 70}, {"time": 6429, "pitch": 65, "duration": 3, "velocity": 64}, {"time": 6429, "pitch": 70, "duration": 2, "velocity": 64}, {"time": 6441, "pitch": 48, "duration": 33, "velocity": 72}, {"time": 6441, "pitch": 63, "duration": 17, "velocity": 82}, {"time": 6441, "pitch": 67, "duration": 15, "velocity": 72}, {"time": 6453, "pitch": 55, "duration": 21, "velocity": 53}, {"time": 6465, "pitch": 60, "duration": 6, "velocity": 54}, {"time": 6465, "pitch": 62, "duration": 10, "velocity": 69}, {"time": 6465, "pitch": 65, "duration": 10, "velocity": 70}, {"time": 6477, "pitch": 67, "duration": 2, "velocity": 62}, {"time": 6489, "pitch": 43, "duration": 37, "velocity": 69}, {"time": 6489, "pitch": 58, "duration": 22, "velocity": 63}, {"time": 6489, "pitch": 62, "duration": 25, "velocity": 69}, {"time": 6489, "pitch": 67, "duration": 29, "velocity": 60}, {"time": 6501, "pitch": 50, "duration": 24, "velocity": 46}, {"time": 6513, "pitch": 55, "duration": 13, "velocity": 69}, {"time": 6525, "pitch": 58, "duration": 4, "velocity": 69}, {"time": 6537, "pitch": 48, "duration": 84, "velocity": 64}, {"time": 6537, "pitch": 63, "duration": 17, "velocity": 73}, {"time": 6537, "pitch": 67, "duration": 12, "velocity": 72}, {"time": 6549, "pitch": 55, "duration": 73, "velocity": 52}, {"time": 6561, "pitch": 60, "duration": 56, "velocity": 49}, {"time": 6633, "pitch": 44, "duration": 9, "velocity": 62}, {"time": 6645, "pitch": 39, "duration": 12, "velocity": 64}, {"time": 6645, "pitch": 51, "duration": 12, "velocity": 64}, {"time": 6657, "pitch": 46, "duration": 12, "velocity": 66}, {"time": 6657, "pitch": 56, "duration": 3, "velocity": 66}, {"time": 6669, "pitch": 44, "duration": 33, "velocity": 67}, {"time": 6705, "pitch": 39, "duration": 20, "velocity": 67}, {"time": 6705, "pitch": 63, "duration": 8, "velocity": 67}, {"time": 6729, "pitch": 43, "duration": 81, "velocity": 65}, {"time": 6729, "pitch": 55, "duration": 75, "velocity": 65}, {"time": 6729, "pitch": 65, "duration": 15, "velocity": 65}, {"time": 6741, "pitch": 62, "duration": 10, "velocity": 64}, {"time": 6747, "pitch": 65, "duration": 9, "velocity": 64}, {"time": 6768, "pitch": 62, "duration": 15, "velocity": 40}, {"time": 6825, "pitch": 48, "duration": 76, "velocity": 67}, {"time": 6840, "pitch": 55, "duration": 16, "velocity": 32}, {"time": 6852, "pitch": 60, "duration": 48, "velocity": 41}, {"time": 6852, "pitch": 62, "duration": 9, "velocity": 44}, {"time": 6852, "pitch": 63, "duration": 14, "velocity": 48}, {"time": 6852, "pitch": 67, "duration": 14, "velocity": 48}, {"time": 6870, "pitch": 55, "duration": 29, "velocity": 43}], "annotations": [{"time": 203, "annotation": {"number": 64, "value": 127}, "group": "control_change"}, {"time": 295, "annotation": {"number": 64, "value": 0}, "group": "control_change"}, {"time": 300, "annotation": {"number": 64, "value": 127}, "group": "control_change"}, {"time": 394, "annotation": {"number": 64, "value": 0}, "group": "control_change"}, {"time": 399, "annotation": {"number": 64, "value": 127}, "group": "control_change"}, {"time": 488, "annotation": {"number": 64, "value": 0}, "group": "control_change"}, {"time": 494, "annotation": {"number": 64, "value": 127}, "group": "control_change"}, {"time": 585, "annotation": {"number": 64, "value": 0}, "group": "control_change"}, {"time": 589, "annotation": {"number": 64, "value": 127}, "group": "control_change"}, {"time": 677, "annotation": {"number": 64, "value": 0}, "group": "control_change"}, {"time": 683, "annotation": {"number": 64, "value": 127}, "group": "control_change"}, {"time": 774, "annotation": {"number": 64, "value": 0}, "group": "control_change"}, {"time": 780, "annotation": {"number": 64, "value": 127}, "group": "control_change"}, {"time": 874, "annotation": {"number": 64, "value": 0}, "group": "control_change"}, {"time": 884, "annotation": {"number": 64, "value": 127}, "group": "control_change"}, {"time": 917, "annotation": {"number": 64, "value": 0}, "group": "control_change"}, {"time": 931, "annotation": {"number": 64, "value": 127}, "group": "control_change"}, {"time": 969, "annotation": {"number": 64, "value": 0}, "group": "control_change"}, {"time": 983, "annotation": {"number": 64, "value": 127}, "group": "control_change"}, {"time": 1015, "annotation": {"number": 64, "value": 0}, "group": "control_change"}, {"time": 1029, "annotation": {"number": 64, "value": 127}, "group": "control_change"}, {"time": 1066, "annotation": {"number": 64, "value": 0}, "group": "control_change"}, {"time": 1078, "annotation": {"number": 64, "value": 127}, "group": "control_change"}, {"time": 1111, "annotation": {"number": 64, "value": 0}, "group": "control_change"}, {"time": 1125, "annotation": {"number": 64, "value": 127}, "group": "control_change"}, {"time": 1159, "annotation": {"number": 64, "value": 0}, "group": "control_change"}, {"time": 1173, "annotation": {"number": 64, "value": 127}, "group": "control_change"}, {"time": 1256, "annotation": {"number": 64, "value": 0}, "group": "control_change"}, {"time": 1265, "annotation": {"number": 64, "value": 127}, "group": "control_change"}, {"time": 1303, "annotation": {"number": 64, "value": 0}, "group": "control_change"}, {"time": 1316, "annotation": {"number": 64, "value": 127}, "group": "control_change"}, {"time": 1351, "annotation": {"number": 64, "value": 0}, "group": "control_change"}, {"time": 1366, "annotation": {"number": 64, "value": 127}, "group": "control_change"}, {"time": 1398, "annotation": {"number": 64, "value": 0}, "group": "control_change"}, {"time": 1409, "annotation": {"number": 64, "value": 127}, "group": "control_change"}, {"time": 1447, "annotation": {"number": 64, "value": 0}, "group": "control_change"}, {"time": 1459, "annotation": {"number": 64, "value": 127}, "group": "control_change"}, {"time": 1504, "annotation": {"number": 64, "value": 0}, "group": "control_change"}, {"time": 1551, "annotation": {"number": 64, "value": 127}, "group": "control_change"}, {"time": 1640, "annotation": {"number": 64, "value": 0}, "group": "control_change"}, {"time": 1651, "annotation": {"number": 64, "value": 127}, "group": "control_change"}, {"time": 1683, "annotation": {"number": 64, "value": 0}, "group": "control_change"}, {"time": 1693, "annotation": {"number": 64, "value": 127}, "group": "control_change"}, {"time": 1737, "annotation": {"number": 64, "value": 0}, "group": "control_change"}, {"time": 1749, "annotation": {"number": 64, "value": 127}, "group": "control_change"}, {"time": 1781, "annotation": {"number": 64, "value": 0}, "group": "control_change"}, {"time": 1798, "annotation": {"number": 64, "value": 127}, "group": "control_change"}, {"time": 1830, "annotation": {"number": 64, "value": 0}, "group": "control_change"}, {"time": 1842, "annotation": {"number": 64, "value": 127}, "group": "control_change"}, {"time": 1881, "annotation": {"number": 64, "value": 0}, "group": "control_change"}, {"time": 1889, "annotation": {"number": 64, "value": 127}, "group": "control_change"}, {"time": 1925, "annotation": {"number": 64, "value": 0}, "group": "control_change"}, {"time": 1933, "annotation": {"number": 64, "value": 127}, "group": "control_change"}, {"time": 2024, "annotation": {"number": 64, "value": 0}, "group": "control_change"}, {"time": 2037, "annotation": {"number": 64, "value": 127}, "group": "control_change"}, {"time": 2066, "annotation": {"number": 64, "value": 0}, "group": "control_change"}, {"time": 2128, "annotation": {"number": 64, "value": 127}, "group": "control_change"}, {"time": 2168, "annotation": {"number": 64, "value": 0}, "group": "control_change"}, {"time": 2182, "annotation": {"number": 64, "value": 127}, "group": "control_change"}, {"time": 2221, "annotation": {"number": 64, "value": 0}, "group": "control_change"}, {"time": 2227, "annotation": {"number": 64, "value": 127}, "group": "control_change"}, {"time": 2252, "annotation": {"number": 64, "value": 0}, "group": "control_change"}, {"time": 2277, "annotation": {"number": 64, "value": 127}, "group": "control_change"}, {"time": 2292, "annotation": {"number": 64, "value": 0}, "group": "control_change"}, {"time": 2298, "annotation": {"number": 64, "value": 127}, "group": "control_change"}, {"time": 2312, "annotation": {"number": 64, "value": 0}, "group": "control_change"}, {"time": 2317, "annotation": {"number": 64, "value": 127}, "group": "control_change"}, {"time": 2410, "annotation": {"number": 64, "value": 0}, "group": "control_change"}, {"time": 2422, "annotation": {"number": 64, "value": 127}, "group": "control_change"}, {"time": 2457, "annotation": {"number": 64, "value": 0}, "group": "control_change"}, {"time": 2465, "annotation": {"number": 64, "value": 127}, "group": "control_change"}, {"time": 2511, "annotation": {"number": 64, "value": 0}, "group": "control_change"}, {"time": 2519, "annotation": {"number": 64, "value": 127}, "group": "control_change"}, {"time": 2522, "annotation": {"number": 64, "value": 0}, "group": "control_change"}, {"time": 2524, "annotation": {"number": 64, "value": 127}, "group": "control_change"}, {"time": 2601, "annotation": {"number": 64, "value": 0}, "group": "control_change"}, {"time": 2607, "annotation": {"number": 64, "value": 127}, "group": "control_change"}, {"time": 2648, "annotation": {"number": 64, "value": 0}, "group": "control_change"}, {"time": 2654, "annotation": {"number": 64, "value": 127}, "group": "control_change"}, {"time": 2697, "annotation": {"number": 64, "value": 0}, "group": "control_change"}, {"time": 2704, "annotation": {"number": 64, "value": 127}, "group": "control_change"}, {"time": 2746, "annotation": {"number": 64, "value": 0}, "group": "control_change"}, {"time": 2752, "annotation": {"number": 64, "value": 127}, "group": "control_change"}, {"time": 2755, "annotation": {"number": 64, "value": 0}, "group": "control_change"}, {"time": 2757, "annotation": {"number": 64, "value": 127}, "group": "control_change"}, {"time": 2793, "annotation": {"number": 64, "value": 0}, "group": "control_change"}, {"time": 2795, "annotation": {"number": 64, "value": 127}, "group": "control_change"}, {"time": 2797, "annotation": {"number": 64, "value": 0}, "group": "control_change"}, {"time": 2800, "annotation": {"number": 64, "value": 127}, "group": "control_change"}, {"time": 2843, "annotation": {"number": 64, "value": 0}, "group": "control_change"}, {"time": 2849, "annotation": {"number": 64, "value": 127}, "group": "control_change"}, {"time": 2887, "annotation": {"number": 64, "value": 0}, "group": "control_change"}, {"time": 2893, "annotation": {"number": 64, "value": 127}, "group": "control_change"}, {"time": 2984, "annotation": {"number": 64, "value": 0}, "group": "control_change"}, {"time": 2987, "annotation": {"number": 64, "value": 127}, "group": "control_change"}, {"time": 3079, "annotation": {"number": 64, "value": 0}, "group": "control_change"}, {"time": 3082, "annotation": {"number": 64, "value": 127}, "group": "control_change"}, {"time": 3116, "annotation": {"number": 64, "value": 0}, "group": "control_change"}, {"time": 3126, "annotation": {"number": 64, "value": 127}, "group": "control_change"}, {"time": 3129, "annotation": {"number": 64, "value": 0}, "group": "control_change"}, {"time": 3130, "annotation": {"number": 64, "value": 127}, "group": "control_change"}, {"time": 3175, "annotation": {"number": 64, "value": 0}, "group": "control_change"}, {"time": 3181, "annotation": {"number": 64, "value": 127}, "group": "control_change"}, {"time": 3213, "annotation": {"number": 64, "value": 0}, "group": "control_change"}, {"time": 3225, "annotation": {"number": 64, "value": 127}, "group": "control_change"}, {"time": 3272, "annotation": {"number": 64, "value": 0}, "group": "control_change"}, {"time": 3277, "annotation": {"number": 64, "value": 127}, "group": "control_change"}, {"time": 3317, "annotation": {"number": 64, "value": 0}, "group": "control_change"}, {"time": 3323, "annotation": {"number": 64, "value": 127}, "group": "control_change"}, {"time": 3326, "annotation": {"number": 64, "value": 0}, "group": "control_change"}, {"time": 3328, "annotation": {"number": 64, "value": 127}, "group": "control_change"}, {"time": 3365, "annotation": {"number": 64, "value": 0}, "group": "control_change"}, {"time": 3371, "annotation": {"number": 64, "value": 127}, "group": "control_change"}, {"time": 3463, "annotation": {"number": 64, "value": 0}, "group": "control_change"}, {"time": 3469, "annotation": {"number": 64, "value": 127}, "group": "control_change"}, {"time": 3558, "annotation": {"number": 64, "value": 0}, "group": "control_change"}, {"time": 3564, "annotation": {"number": 64, "value": 127}, "group": "control_change"}, {"time": 3604, "annotation": {"number": 64, "value": 0}, "group": "control_change"}, {"time": 3609, "annotation": {"number": 64, "value": 127}, "group": "control_change"}, {"time": 3657, "annotation": {"number": 64, "value": 0}, "group": "control_change"}, {"time": 3663, "annotation": {"number": 64, "value": 127}, "group": "control_change"}, {"time": 3752, "annotation": {"number": 64, "value": 0}, "group": "control_change"}, {"time": 3763, "annotation": {"number": 64, "value": 127}, "group": "control_change"}, {"time": 3795, "annotation": {"number": 64, "value": 0}, "group": "control_change"}, {"time": 3805, "annotation": {"number": 64, "value": 127}, "group": "control_change"}, {"time": 3849, "annotation": {"number": 64, "value": 0}, "group": "control_change"}, {"time": 3861, "annotation": {"number": 64, "value": 127}, "group": "control_change"}, {"time": 3893, "annotation": {"number": 64, "value": 0}, "group": "control_change"}, {"time": 3910, "annotation": {"number": 64, "value": 127}, "group": "control_change"}, {"time": 3942, "annotation": {"number": 64, "value": 0}, "group": "control_change"}, {"time": 3954, "annotation": {"number": 64, "value": 127}, "group": "control_change"}, {"time": 3993, "annotation": {"number": 64, "value": 0}, "group": "control_change"}, {"time": 4001, "annotation": {"number": 64, "value": 127}, "group": "control_change"}, {"time": 4037, "annotation": {"number": 64, "value": 0}, "group": "control_change"}, {"time": 4045, "annotation": {"number": 64, "value": 127}, "group": "control_change"}, {"time": 4136, "annotation": {"number": 64, "value": 0}, "group": "control_change"}, {"time": 4149, "annotation": {"number": 64, "value": 127}, "group": "control_change"}, {"time": 4178, "annotation": {"number": 64, "value": 0}, "group": "control_change"}, {"time": 4240, "annotation": {"number": 64, "value": 127}, "group": "control_change"}, {"time": 4280, "annotation": {"number": 64, "value": 0}, "group": "control_change"}, {"time": 4294, "annotation": {"number": 64, "value": 127}, "group": "control_change"}, {"time": 4333, "annotation": {"number": 64, "value": 0}, "group": "control_change"}, {"time": 4339, "annotation": {"number": 64, "value": 127}, "group": "control_change"}, {"time": 4364, "annotation": {"number": 64, "value": 0}, "group": "control_change"}, {"time": 4374, "annotation": {"number": 64, "value": 127}, "group": "control_change"}, {"time": 4404, "annotation": {"number": 64, "value": 0}, "group": "control_change"}, {"time": 4410, "annotation": {"number": 64, "value": 127}, "group": "control_change"}, {"time": 4424, "annotation": {"number": 64, "value": 0}, "group": "control_change"}, {"time": 4429, "annotation": {"number": 64, "value": 127}, "group": "control_change"}, {"time": 4522, "annotation": {"number": 64, "value": 0}, "group": "control_change"}, {"time": 4534, "annotation": {"number": 64, "value": 127}, "group": "control_change"}, {"time": 4569, "annotation": {"number": 64, "value": 0}, "group": "control_change"}, {"time": 4577, "annotation": {"number": 64, "value": 127}, "group": "control_change"}, {"time": 4623, "annotation": {"number": 64, "value": 0}, "group": "control_change"}, {"time": 4631, "annotation": {"number": 64, "value": 127}, "group": "control_change"}, {"time": 4634, "annotation": {"number": 64, "value": 0}, "group": "control_change"}, {"time": 4636, "annotation": {"number": 64, "value": 127}, "group": "control_change"}, {"time": 4713, "annotation": {"number": 64, "value": 0}, "group": "control_change"}, {"time": 4719, "annotation": {"number": 64, "value": 127}, "group": "control_change"}, {"time": 4760, "annotation": {"number": 64, "value": 0}, "group": "control_change"}, {"time": 4766, "annotation": {"number": 64, "value": 127}, "group": "control_change"}, {"time": 4809, "annotation": {"number": 64, "value": 0}, "group": "control_change"}, {"time": 4816, "annotation": {"number": 64, "value": 127}, "group": "control_change"}, {"time": 4858, "annotation": {"number": 64, "value": 0}, "group": "control_change"}, {"time": 4864, "annotation": {"number": 64, "value": 127}, "group": "control_change"}, {"time": 4867, "annotation": {"number": 64, "value": 0}, "group": "control_change"}, {"time": 4869, "annotation": {"number": 64, "value": 127}, "group": "control_change"}, {"time": 4905, "annotation": {"number": 64, "value": 0}, "group": "control_change"}, {"time": 4907, "annotation": {"number": 64, "value": 127}, "group": "control_change"}, {"time": 4909, "annotation": {"number": 64, "value": 0}, "group": "control_change"}, {"time": 4912, "annotation": {"number": 64, "value": 127}, "group": "control_change"}, {"time": 4955, "annotation": {"number": 64, "value": 0}, "group": "control_change"}, {"time": 4961, "annotation": {"number": 64, "value": 127}, "group": "control_change"}, {"time": 4999, "annotation": {"number": 64, "value": 0}, "group": "control_change"}, {"time": 5003, "annotation": {"number": 64, "value": 127}, "group": "control_change"}, {"time": 5046, "annotation": {"number": 64, "value": 0}, "group": "control_change"}, {"time": 5101, "annotation": {"number": 64, "value": 127}, "group": "control_change"}, {"time": 5194, "annotation": {"number": 64, "value": 0}, "group": "control_change"}, {"time": 5206, "annotation": {"number": 64, "value": 127}, "group": "control_change"}, {"time": 5241, "annotation": {"number": 64, "value": 0}, "group": "control_change"}, {"time": 5249, "annotation": {"number": 64, "value": 127}, "group": "control_change"}, {"time": 5295, "annotation": {"number": 64, "value": 0}, "group": "control_change"}, {"time": 5303, "annotation": {"number": 64, "value": 127}, "group": "control_change"}, {"time": 5306, "annotation": {"number": 64, "value": 0}, "group": "control_change"}, {"time": 5308, "annotation": {"number": 64, "value": 127}, "group": "control_change"}, {"time": 5385, "annotation": {"number": 64, "value": 0}, "group": "control_change"}, {"time": 5391, "annotation": {"number": 64, "value": 127}, "group": "control_change"}, {"time": 5432, "annotation": {"number": 64, "value": 0}, "group": "control_change"}, {"time": 5438, "annotation": {"number": 64, "value": 127}, "group": "control_change"}, {"time": 5481, "annotation": {"number": 64, "value": 0}, "group": "control_change"}, {"time": 5488, "annotation": {"number": 64, "value": 127}, "group": "control_change"}, {"time": 5530, "annotation": {"number": 64, "value": 0}, "group": "control_change"}, {"time": 5536, "annotation": {"number": 64, "value": 127}, "group": "control_change"}, {"time": 5539, "annotation": {"number": 64, "value": 0}, "group": "control_change"}, {"time": 5541, "annotation": {"number": 64, "value": 127}, "group": "control_change"}, {"time": 5577, "annotation": {"number": 64, "value": 0}, "group": "control_change"}, {"time": 5579, "annotation": {"number": 64, "value": 127}, "group": "control_change"}, {"time": 5581, "annotation": {"number": 64, "value": 0}, "group": "control_change"}, {"time": 5584, "annotation": {"number": 64, "value": 127}, "group": "control_change"}, {"time": 5627, "annotation": {"number": 64, "value": 0}, "group": "control_change"}, {"time": 5633, "annotation": {"number": 64, "value": 127}, "group": "control_change"}, {"time": 5671, "annotation": {"number": 64, "value": 0}, "group": "control_change"}, {"time": 5677, "annotation": {"number": 64, "value": 127}, "group": "control_change"}, {"time": 5771, "annotation": {"number": 64, "value": 0}, "group": "control_change"}, {"time": 5780, "annotation": {"number": 64, "value": 127}, "group": "control_change"}, {"time": 5864, "annotation": {"number": 64, "value": 0}, "group": "control_change"}, {"time": 5871, "annotation": {"number": 64, "value": 127}, "group": "control_change"}, {"time": 5961, "annotation": {"number": 64, "value": 0}, "group": "control_change"}, {"time": 5961, "annotation": {"number": 64, "value": 127}, "group": "control_change"}, {"time": 6009, "annotation": {"number": 64, "value": 0}, "group": "control_change"}, {"time": 6016, "annotation": {"number": 64, "value": 127}, "group": "control_change"}, {"time": 6058, "annotation": {"number": 64, "value": 0}, "group": "control_change"}, {"time": 6067, "annotation": {"number": 64, "value": 127}, "group": "control_change"}, {"time": 6070, "annotation": {"number": 64, "value": 0}, "group": "control_change"}, {"time": 6082, "annotation": {"number": 64, "value": 127}, "group": "control_change"}, {"time": 6108, "annotation": {"number": 64, "value": 0}, "group": "control_change"}, {"time": 6116, "annotation": {"number": 64, "value": 127}, "group": "control_change"}, {"time": 6154, "annotation": {"number": 64, "value": 0}, "group": "control_change"}, {"time": 6163, "annotation": {"number": 64, "value": 127}, "group": "control_change"}, {"time": 6199, "annotation": {"number": 64, "value": 0}, "group": "control_change"}, {"time": 6205, "annotation": {"number": 64, "value": 127}, "group": "control_change"}, {"time": 6249, "annotation": {"number": 64, "value": 0}, "group": "control_change"}, {"time": 6255, "annotation": {"number": 64, "value": 127}, "group": "control_change"}, {"time": 6345, "annotation": {"number": 64, "value": 0}, "group": "control_change"}, {"time": 6347, "annotation": {"number": 64, "value": 127}, "group": "control_change"}, {"time": 6394, "annotation": {"number": 64, "value": 0}, "group": "control_change"}, {"time": 6401, "annotation": {"number": 64, "value": 127}, "group": "control_change"}, {"time": 6445, "annotation": {"number": 64, "value": 0}, "group": "control_change"}, {"time": 6452, "annotation": {"number": 64, "value": 127}, "group": "control_change"}, {"time": 6487, "annotation": {"number": 64, "value": 0}, "group": "control_change"}, {"time": 6489, "annotation": {"number": 64, "value": 127}, "group": "control_change"}, {"time": 6538, "annotation": {"number": 64, "value": 0}, "group": "control_change"}, {"time": 6547, "annotation": {"number": 64, "value": 127}, "group": "control_change"}, {"time": 6549, "annotation": {"number": 64, "value": 0}, "group": "control_change"}, {"time": 6551, "annotation": {"number": 64, "value": 127}, "group": "control_change"}, {"time": 6635, "annotation": {"number": 64, "value": 127}, "group": "control_change"}, {"time": 6677, "annotation": {"number": 64, "value": 0}, "group": "control_change"}, {"time": 6682, "annotation": {"number": 64, "value": 127}, "group": "control_change"}, {"time": 6729, "annotation": {"number": 64, "value": 0}, "group": "control_change"}, {"time": 6735, "annotation": {"number": 64, "value": 127}, "group": "control_change"}, {"time": 6823, "annotation": {"number": 64, "value": 0}, "group": "control_change"}, {"time": 6825, "annotation": {"number": 64, "value": 127}, "group": "control_change"}, {"time": 6949, "annotation": {"number": 64, "value": 0}, "group": "control_change"}]}]}