{"metadata": {"schema_version": "0.2", "title": "None", "source_filename": "089.mid", "source_format": "midi"}, "resolution": 12, "tempos": [{"time": 0, "qpm": 82.00014760026568}, {"time": 912, "qpm": 83.0000650167176}, {"time": 972, "qpm": 82.00014760026568}, {"time": 1128, "qpm": 80.99997165000993}, {"time": 1200, "qpm": 82.00014760026568}, {"time": 1656, "qpm": 82.40003845335127}, {"time": 1836, "qpm": 82.00014760026568}], "time_signatures": [{"time": 0, "numerator": 1, "denominator": 4}], "tracks": [{"program": 0, "is_drum": false, "name": "MELODY", "notes": [{"time": 397, "pitch": 69, "duration": 3, "velocity": 97}, {"time": 403, "pitch": 69, "duration": 3, "velocity": 100}, {"time": 409, "pitch": 69, "duration": 6, "velocity": 100}, {"time": 415, "pitch": 69, "duration": 1, "velocity": 96}, {"time": 421, "pitch": 71, "duration": 12, "velocity": 127}, {"time": 433, "pitch": 73, "duration": 3, "velocity": 127}, {"time": 439, "pitch": 73, "duration": 27, "velocity": 127}, {"time": 481, "pitch": 73, "duration": 4, "velocity": 117}, {"time": 487, "pitch": 76, "duration": 3, "velocity": 93}, {"time": 493, "pitch": 78, "duration": 3, "velocity": 117}, {"time": 499, "pitch": 78, "duration": 3, "velocity": 107}, {"time": 505, "pitch": 78, "duration": 3, "velocity": 117}, {"time": 511, "pitch": 80, "duration": 4, "velocity": 100}, {"time": 517, "pitch": 78, "duration": 7, "velocity": 127}, {"time": 529, "pitch": 76, "duration": 3, "velocity": 99}, {"time": 535, "pitch": 73, "duration": 31, "velocity": 112}, {"time": 583, "pitch": 69, "duration": 2, "velocity": 97}, {"time": 589, "pitch": 69, "duration": 2, "velocity": 99}, {"time": 595, "pitch": 69, "duration": 2, "velocity": 97}, {"time": 601, "pitch": 69, "duration": 2, "velocity": 99}, {"time": 607, "pitch": 69, "duration": 2, "velocity": 100}, {"time": 613, "pitch": 71, "duration": 12, "velocity": 102}, {"time": 625, "pitch": 73, "duration": 4, "velocity": 122}, {"time": 631, "pitch": 73, "duration": 42, "velocity": 122}, {"time": 673, "pitch": 73, "duration": 6, "velocity": 127}, {"time": 679, "pitch": 71, "duration": 6, "velocity": 107}, {"time": 685, "pitch": 69, "duration": 8, "velocity": 107}, {"time": 691, "pitch": 69, "duration": 2, "velocity": 102}, {"time": 697, "pitch": 69, "duration": 3, "velocity": 112}, {"time": 703, "pitch": 69, "duration": 5, "velocity": 96}, {"time": 709, "pitch": 68, "duration": 12, "velocity": 112}, {"time": 721, "pitch": 69, "duration": 5, "velocity": 102}, {"time": 727, "pitch": 66, "duration": 28, "velocity": 107}, {"time": 769, "pitch": 73, "duration": 4, "velocity": 127}, {"time": 775, "pitch": 76, "duration": 6, "velocity": 100}, {"time": 781, "pitch": 78, "duration": 3, "velocity": 107}, {"time": 787, "pitch": 78, "duration": 3, "velocity": 107}, {"time": 793, "pitch": 78, "duration": 3, "velocity": 117}, {"time": 799, "pitch": 78, "duration": 3, "velocity": 112}, {"time": 805, "pitch": 80, "duration": 7, "velocity": 127}, {"time": 817, "pitch": 76, "duration": 5, "velocity": 102}, {"time": 823, "pitch": 73, "duration": 34, "velocity": 107}, {"time": 865, "pitch": 73, "duration": 4, "velocity": 117}, {"time": 871, "pitch": 71, "duration": 5, "velocity": 102}, {"time": 877, "pitch": 69, "duration": 3, "velocity": 95}, {"time": 883, "pitch": 69, "duration": 3, "velocity": 97}, {"time": 889, "pitch": 69, "duration": 3, "velocity": 99}, {"time": 895, "pitch": 69, "duration": 4, "velocity": 99}, {"time": 901, "pitch": 71, "duration": 10, "velocity": 102}, {"time": 913, "pitch": 73, "duration": 4, "velocity": 122}, {"time": 919, "pitch": 73, "duration": 35, "velocity": 127}, {"time": 961, "pitch": 73, "duration": 4, "velocity": 117}, {"time": 967, "pitch": 76, "duration": 3, "velocity": 102}, {"time": 973, "pitch": 78, "duration": 10, "velocity": 127}, {"time": 985, "pitch": 78, "duration": 6, "velocity": 127}, {"time": 991, "pitch": 78, "duration": 4, "velocity": 127}, {"time": 997, "pitch": 80, "duration": 9, "velocity": 127}, {"time": 1009, "pitch": 76, "duration": 7, "velocity": 112}, {"time": 1021, "pitch": 73, "duration": 8, "velocity": 122}, {"time": 1033, "pitch": 76, "duration": 4, "velocity": 100}, {"time": 1039, "pitch": 78, "duration": 19, "velocity": 127}, {"time": 1057, "pitch": 73, "duration": 4, "velocity": 127}, {"time": 1063, "pitch": 71, "duration": 5, "velocity": 112}, {"time": 1069, "pitch": 69, "duration": 3, "velocity": 99}, {"time": 1075, "pitch": 69, "duration": 3, "velocity": 99}, {"time": 1081, "pitch": 69, "duration": 3, "velocity": 100}, {"time": 1087, "pitch": 69, "duration": 3, "velocity": 107}, {"time": 1093, "pitch": 68, "duration": 5, "velocity": 127}, {"time": 1099, "pitch": 68, "duration": 4, "velocity": 100}, {"time": 1105, "pitch": 69, "duration": 5, "velocity": 112}, {"time": 1111, "pitch": 68, "duration": 5, "velocity": 112}, {"time": 1117, "pitch": 66, "duration": 34, "velocity": 112}, {"time": 1549, "pitch": 69, "duration": 3, "velocity": 97}, {"time": 1555, "pitch": 69, "duration": 3, "velocity": 100}, {"time": 1561, "pitch": 69, "duration": 6, "velocity": 100}, {"time": 1567, "pitch": 69, "duration": 1, "velocity": 96}, {"time": 1573, "pitch": 71, "duration": 12, "velocity": 127}, {"time": 1585, "pitch": 73, "duration": 3, "velocity": 127}, {"time": 1591, "pitch": 73, "duration": 27, "velocity": 127}, {"time": 1639, "pitch": 69, "duration": 3, "velocity": 93}, {"time": 1645, "pitch": 78, "duration": 3, "velocity": 117}, {"time": 1651, "pitch": 78, "duration": 3, "velocity": 107}, {"time": 1657, "pitch": 78, "duration": 3, "velocity": 117}, {"time": 1663, "pitch": 80, "duration": 4, "velocity": 100}, {"time": 1669, "pitch": 78, "duration": 7, "velocity": 127}, {"time": 1681, "pitch": 76, "duration": 3, "velocity": 99}, {"time": 1687, "pitch": 73, "duration": 31, "velocity": 112}, {"time": 1735, "pitch": 69, "duration": 2, "velocity": 97}, {"time": 1741, "pitch": 69, "duration": 2, "velocity": 99}, {"time": 1747, "pitch": 69, "duration": 2, "velocity": 97}, {"time": 1753, "pitch": 69, "duration": 2, "velocity": 99}, {"time": 1759, "pitch": 69, "duration": 2, "velocity": 100}, {"time": 1765, "pitch": 71, "duration": 12, "velocity": 102}, {"time": 1777, "pitch": 73, "duration": 4, "velocity": 122}, {"time": 1783, "pitch": 73, "duration": 42, "velocity": 122}, {"time": 1825, "pitch": 73, "duration": 6, "velocity": 127}, {"time": 1831, "pitch": 71, "duration": 6, "velocity": 107}, {"time": 1837, "pitch": 69, "duration": 8, "velocity": 107}, {"time": 1843, "pitch": 69, "duration": 2, "velocity": 102}, {"time": 1849, "pitch": 69, "duration": 3, "velocity": 112}, {"time": 1855, "pitch": 69, "duration": 5, "velocity": 96}, {"time": 1861, "pitch": 68, "duration": 12, "velocity": 112}, {"time": 1873, "pitch": 69, "duration": 5, "velocity": 102}, {"time": 1879, "pitch": 66, "duration": 28, "velocity": 107}, {"time": 1921, "pitch": 73, "duration": 4, "velocity": 127}, {"time": 1927, "pitch": 76, "duration": 6, "velocity": 100}, {"time": 1933, "pitch": 78, "duration": 3, "velocity": 107}, {"time": 1939, "pitch": 78, "duration": 3, "velocity": 107}, {"time": 1945, "pitch": 78, "duration": 3, "velocity": 117}, {"time": 1951, "pitch": 78, "duration": 3, "velocity": 112}, {"time": 1957, "pitch": 80, "duration": 7, "velocity": 127}, {"time": 1969, "pitch": 76, "duration": 5, "velocity": 102}, {"time": 1975, "pitch": 73, "duration": 34, "velocity": 107}, {"time": 2017, "pitch": 73, "duration": 4, "velocity": 117}, {"time": 2023, "pitch": 71, "duration": 5, "velocity": 102}, {"time": 2029, "pitch": 69, "duration": 3, "velocity": 95}, {"time": 2035, "pitch": 69, "duration": 3, "velocity": 97}, {"time": 2041, "pitch": 69, "duration": 3, "velocity": 99}, {"time": 2047, "pitch": 69, "duration": 4, "velocity": 99}, {"time": 2053, "pitch": 71, "duration": 10, "velocity": 102}, {"time": 2065, "pitch": 73, "duration": 4, "velocity": 122}, {"time": 2071, "pitch": 73, "duration": 35, "velocity": 127}, {"time": 2113, "pitch": 73, "duration": 4, "velocity": 117}, {"time": 2119, "pitch": 76, "duration": 3, "velocity": 102}, {"time": 2125, "pitch": 78, "duration": 10, "velocity": 127}, {"time": 2137, "pitch": 78, "duration": 6, "velocity": 127}, {"time": 2143, "pitch": 78, "duration": 4, "velocity": 127}, {"time": 2149, "pitch": 80, "duration": 9, "velocity": 127}, {"time": 2161, "pitch": 76, "duration": 7, "velocity": 112}, {"time": 2173, "pitch": 73, "duration": 8, "velocity": 122}, {"time": 2185, "pitch": 76, "duration": 4, "velocity": 100}, {"time": 2191, "pitch": 78, "duration": 19, "velocity": 127}, {"time": 2209, "pitch": 73, "duration": 4, "velocity": 127}, {"time": 2215, "pitch": 71, "duration": 5, "velocity": 112}, {"time": 2221, "pitch": 69, "duration": 3, "velocity": 99}, {"time": 2227, "pitch": 69, "duration": 3, "velocity": 99}, {"time": 2233, "pitch": 69, "duration": 3, "velocity": 100}, {"time": 2239, "pitch": 69, "duration": 3, "velocity": 107}, {"time": 2245, "pitch": 68, "duration": 5, "velocity": 127}, {"time": 2251, "pitch": 68, "duration": 4, "velocity": 100}, {"time": 2257, "pitch": 69, "duration": 5, "velocity": 112}, {"time": 2263, "pitch": 68, "duration": 5, "velocity": 112}, {"time": 2269, "pitch": 66, "duration": 34, "velocity": 112}, {"time": 2305, "pitch": 73, "duration": 4, "velocity": 127}, {"time": 2311, "pitch": 76, "duration": 6, "velocity": 100}, {"time": 2317, "pitch": 78, "duration": 3, "velocity": 107}, {"time": 2323, "pitch": 78, "duration": 3, "velocity": 107}, {"time": 2329, "pitch": 78, "duration": 3, "velocity": 117}, {"time": 2335, "pitch": 78, "duration": 3, "velocity": 112}, {"time": 2341, "pitch": 80, "duration": 7, "velocity": 127}, {"time": 2353, "pitch": 76, "duration": 5, "velocity": 102}, {"time": 2359, "pitch": 73, "duration": 34, "velocity": 107}, {"time": 2401, "pitch": 73, "duration": 4, "velocity": 117}, {"time": 2407, "pitch": 71, "duration": 5, "velocity": 102}, {"time": 2413, "pitch": 69, "duration": 3, "velocity": 95}, {"time": 2419, "pitch": 69, "duration": 3, "velocity": 97}, {"time": 2425, "pitch": 69, "duration": 3, "velocity": 99}, {"time": 2431, "pitch": 69, "duration": 4, "velocity": 99}, {"time": 2437, "pitch": 71, "duration": 10, "velocity": 102}, {"time": 2449, "pitch": 73, "duration": 4, "velocity": 122}, {"time": 2455, "pitch": 73, "duration": 35, "velocity": 127}, {"time": 2497, "pitch": 73, "duration": 4, "velocity": 117}, {"time": 2503, "pitch": 76, "duration": 3, "velocity": 102}, {"time": 2509, "pitch": 78, "duration": 10, "velocity": 127}, {"time": 2521, "pitch": 78, "duration": 6, "velocity": 127}, {"time": 2527, "pitch": 78, "duration": 4, "velocity": 127}, {"time": 2533, "pitch": 80, "duration": 9, "velocity": 127}, {"time": 2545, "pitch": 76, "duration": 7, "velocity": 112}, {"time": 2557, "pitch": 73, "duration": 8, "velocity": 122}, {"time": 2569, "pitch": 76, "duration": 4, "velocity": 100}, {"time": 2575, "pitch": 78, "duration": 19, "velocity": 127}, {"time": 2593, "pitch": 73, "duration": 4, "velocity": 127}, {"time": 2599, "pitch": 71, "duration": 5, "velocity": 112}, {"time": 2605, "pitch": 69, "duration": 3, "velocity": 99}, {"time": 2611, "pitch": 69, "duration": 3, "velocity": 99}, {"time": 2617, "pitch": 69, "duration": 3, "velocity": 100}, {"time": 2623, "pitch": 69, "duration": 3, "velocity": 107}, {"time": 2629, "pitch": 68, "duration": 5, "velocity": 127}, {"time": 2635, "pitch": 68, "duration": 4, "velocity": 100}, {"time": 2641, "pitch": 69, "duration": 5, "velocity": 112}, {"time": 2647, "pitch": 68, "duration": 5, "velocity": 112}, {"time": 2653, "pitch": 66, "duration": 34, "velocity": 112}, {"time": 3085, "pitch": 73, "duration": 21, "velocity": 122}, {"time": 3109, "pitch": 71, "duration": 9, "velocity": 112}, {"time": 3121, "pitch": 71, "duration": 6, "velocity": 102}, {"time": 3127, "pitch": 73, "duration": 43, "velocity": 117}, {"time": 3169, "pitch": 69, "duration": 6, "velocity": 100}, {"time": 3175, "pitch": 71, "duration": 6, "velocity": 96}, {"time": 3181, "pitch": 73, "duration": 21, "velocity": 117}, {"time": 3205, "pitch": 71, "duration": 16, "velocity": 127}, {"time": 3217, "pitch": 71, "duration": 4, "velocity": 100}, {"time": 3223, "pitch": 69, "duration": 47, "velocity": 100}, {"time": 3277, "pitch": 73, "duration": 13, "velocity": 127}, {"time": 3292, "pitch": 73, "duration": 2, "velocity": 27}, {"time": 3301, "pitch": 71, "duration": 11, "velocity": 122}, {"time": 3313, "pitch": 76, "duration": 13, "velocity": 112}, {"time": 3325, "pitch": 73, "duration": 29, "velocity": 122}, {"time": 3361, "pitch": 69, "duration": 5, "velocity": 102}, {"time": 3367, "pitch": 71, "duration": 5, "velocity": 95}, {"time": 3373, "pitch": 73, "duration": 13, "velocity": 122}, {"time": 3397, "pitch": 71, "duration": 10, "velocity": 117}, {"time": 3409, "pitch": 73, "duration": 12, "velocity": 127}, {"time": 3421, "pitch": 66, "duration": 31, "velocity": 117}, {"time": 3470, "pitch": 69, "duration": 4, "velocity": 122}, {"time": 3476, "pitch": 69, "duration": 2, "velocity": 97}, {"time": 3482, "pitch": 69, "duration": 2, "velocity": 97}, {"time": 3487, "pitch": 69, "duration": 4, "velocity": 99}, {"time": 3493, "pitch": 71, "duration": 11, "velocity": 122}, {"time": 3505, "pitch": 73, "duration": 4, "velocity": 122}, {"time": 3511, "pitch": 73, "duration": 31, "velocity": 122}, {"time": 3553, "pitch": 73, "duration": 6, "velocity": 122}, {"time": 3559, "pitch": 71, "duration": 6, "velocity": 107}, {"time": 3567, "pitch": 69, "duration": 5, "velocity": 96}, {"time": 3573, "pitch": 69, "duration": 5, "velocity": 95}, {"time": 3580, "pitch": 69, "duration": 5, "velocity": 99}, {"time": 3587, "pitch": 69, "duration": 7, "velocity": 97}, {"time": 3594, "pitch": 68, "duration": 12, "velocity": 122}, {"time": 3610, "pitch": 69, "duration": 16, "velocity": 122}, {"time": 3625, "pitch": 66, "duration": 83, "velocity": 127}]}, {"program": 0, "is_drum": false, "name": "PIANO", "notes": [{"time": 13, "pitch": 50, "duration": 23, "velocity": 93}, {"time": 13, "pitch": 64, "duration": 7, "velocity": 90}, {"time": 19, "pitch": 57, "duration": 7, "velocity": 92}, {"time": 25, "pitch": 64, "duration": 6, "velocity": 90}, {"time": 31, "pitch": 57, "duration": 7, "velocity": 96}, {"time": 37, "pitch": 52, "duration": 22, "velocity": 74}, {"time": 37, "pitch": 64, "duration": 5, "velocity": 95}, {"time": 43, "pitch": 59, "duration": 7, "velocity": 96}, {"time": 49, "pitch": 64, "duration": 6, "velocity": 97}, {"time": 55, "pitch": 66, "duration": 7, "velocity": 100}, {"time": 61, "pitch": 54, "duration": 36, "velocity": 93}, {"time": 61, "pitch": 64, "duration": 6, "velocity": 95}, {"time": 67, "pitch": 57, "duration": 6, "velocity": 95}, {"time": 73, "pitch": 64, "duration": 6, "velocity": 92}, {"time": 79, "pitch": 57, "duration": 7, "velocity": 96}, {"time": 85, "pitch": 59, "duration": 6, "velocity": 99}, {"time": 91, "pitch": 57, "duration": 6, "velocity": 97}, {"time": 97, "pitch": 54, "duration": 6, "velocity": 95}, {"time": 103, "pitch": 57, "duration": 6, "velocity": 89}, {"time": 109, "pitch": 50, "duration": 24, "velocity": 88}, {"time": 109, "pitch": 64, "duration": 7, "velocity": 90}, {"time": 115, "pitch": 57, "duration": 7, "velocity": 92}, {"time": 121, "pitch": 64, "duration": 6, "velocity": 90}, {"time": 127, "pitch": 57, "duration": 7, "velocity": 96}, {"time": 133, "pitch": 52, "duration": 22, "velocity": 90}, {"time": 133, "pitch": 64, "duration": 5, "velocity": 95}, {"time": 139, "pitch": 59, "duration": 7, "velocity": 96}, {"time": 145, "pitch": 64, "duration": 6, "velocity": 97}, {"time": 151, "pitch": 66, "duration": 7, "velocity": 100}, {"time": 157, "pitch": 54, "duration": 45, "velocity": 95}, {"time": 157, "pitch": 64, "duration": 6, "velocity": 95}, {"time": 163, "pitch": 57, "duration": 6, "velocity": 95}, {"time": 169, "pitch": 64, "duration": 6, "velocity": 92}, {"time": 175, "pitch": 57, "duration": 6, "velocity": 97}, {"time": 181, "pitch": 69, "duration": 6, "velocity": 93}, {"time": 187, "pitch": 66, "duration": 6, "velocity": 90}, {"time": 193, "pitch": 61, "duration": 6, "velocity": 100}, {"time": 199, "pitch": 64, "duration": 7, "velocity": 96}, {"time": 205, "pitch": 50, "duration": 24, "velocity": 88}, {"time": 205, "pitch": 64, "duration": 1, "velocity": 90}, {"time": 211, "pitch": 57, "duration": 7, "velocity": 92}, {"time": 217, "pitch": 64, "duration": 6, "velocity": 90}, {"time": 223, "pitch": 57, "duration": 7, "velocity": 96}, {"time": 229, "pitch": 52, "duration": 23, "velocity": 88}, {"time": 229, "pitch": 64, "duration": 5, "velocity": 95}, {"time": 235, "pitch": 59, "duration": 7, "velocity": 96}, {"time": 241, "pitch": 64, "duration": 6, "velocity": 97}, {"time": 247, "pitch": 66, "duration": 7, "velocity": 100}, {"time": 253, "pitch": 54, "duration": 45, "velocity": 107}, {"time": 253, "pitch": 64, "duration": 6, "velocity": 95}, {"time": 259, "pitch": 57, "duration": 6, "velocity": 95}, {"time": 265, "pitch": 64, "duration": 6, "velocity": 92}, {"time": 271, "pitch": 57, "duration": 7, "velocity": 96}, {"time": 277, "pitch": 59, "duration": 6, "velocity": 99}, {"time": 283, "pitch": 57, "duration": 6, "velocity": 97}, {"time": 295, "pitch": 57, "duration": 6, "velocity": 89}, {"time": 301, "pitch": 50, "duration": 23, "velocity": 92}, {"time": 301, "pitch": 64, "duration": 7, "velocity": 90}, {"time": 307, "pitch": 57, "duration": 7, "velocity": 92}, {"time": 313, "pitch": 64, "duration": 6, "velocity": 90}, {"time": 319, "pitch": 57, "duration": 7, "velocity": 96}, {"time": 325, "pitch": 52, "duration": 22, "velocity": 93}, {"time": 325, "pitch": 64, "duration": 5, "velocity": 95}, {"time": 331, "pitch": 59, "duration": 7, "velocity": 96}, {"time": 337, "pitch": 64, "duration": 6, "velocity": 97}, {"time": 343, "pitch": 66, "duration": 7, "velocity": 100}, {"time": 349, "pitch": 42, "duration": 39, "velocity": 96}, {"time": 349, "pitch": 64, "duration": 6, "velocity": 95}, {"time": 355, "pitch": 54, "duration": 7, "velocity": 95}, {"time": 361, "pitch": 61, "duration": 6, "velocity": 99}, {"time": 367, "pitch": 64, "duration": 9, "velocity": 90}, {"time": 373, "pitch": 66, "duration": 26, "velocity": 112}, {"time": 397, "pitch": 45, "duration": 17, "velocity": 99}, {"time": 403, "pitch": 52, "duration": 11, "velocity": 82}, {"time": 409, "pitch": 64, "duration": 12, "velocity": 99}, {"time": 415, "pitch": 61, "duration": 6, "velocity": 70}, {"time": 421, "pitch": 40, "duration": 15, "velocity": 69}, {"time": 427, "pitch": 52, "duration": 13, "velocity": 85}, {"time": 433, "pitch": 59, "duration": 12, "velocity": 99}, {"time": 445, "pitch": 42, "duration": 39, "velocity": 99}, {"time": 451, "pitch": 54, "duration": 11, "velocity": 78}, {"time": 457, "pitch": 66, "duration": 7, "velocity": 102}, {"time": 463, "pitch": 57, "duration": 8, "velocity": 78}, {"time": 469, "pitch": 61, "duration": 15, "velocity": 100}, {"time": 475, "pitch": 54, "duration": 9, "velocity": 54}, {"time": 481, "pitch": 59, "duration": 10, "velocity": 63}, {"time": 493, "pitch": 50, "duration": 13, "velocity": 95}, {"time": 499, "pitch": 57, "duration": 18, "velocity": 78}, {"time": 505, "pitch": 66, "duration": 11, "velocity": 112}, {"time": 511, "pitch": 62, "duration": 6, "velocity": 64}, {"time": 517, "pitch": 40, "duration": 14, "velocity": 86}, {"time": 523, "pitch": 47, "duration": 8, "velocity": 63}, {"time": 529, "pitch": 59, "duration": 12, "velocity": 89}, {"time": 541, "pitch": 42, "duration": 39, "velocity": 96}, {"time": 547, "pitch": 54, "duration": 9, "velocity": 93}, {"time": 553, "pitch": 57, "duration": 14, "velocity": 99}, {"time": 559, "pitch": 54, "duration": 12, "velocity": 82}, {"time": 565, "pitch": 61, "duration": 24, "velocity": 88}, {"time": 589, "pitch": 45, "duration": 18, "velocity": 90}, {"time": 595, "pitch": 52, "duration": 11, "velocity": 85}, {"time": 601, "pitch": 64, "duration": 13, "velocity": 97}, {"time": 607, "pitch": 61, "duration": 7, "velocity": 74}, {"time": 613, "pitch": 40, "duration": 16, "velocity": 83}, {"time": 619, "pitch": 47, "duration": 11, "velocity": 58}, {"time": 625, "pitch": 59, "duration": 13, "velocity": 92}, {"time": 631, "pitch": 56, "duration": 7, "velocity": 63}, {"time": 637, "pitch": 42, "duration": 39, "velocity": 85}, {"time": 643, "pitch": 54, "duration": 8, "velocity": 86}, {"time": 649, "pitch": 61, "duration": 12, "velocity": 117}, {"time": 655, "pitch": 54, "duration": 9, "velocity": 76}, {"time": 661, "pitch": 59, "duration": 12, "velocity": 100}, {"time": 667, "pitch": 54, "duration": 6, "velocity": 70}, {"time": 673, "pitch": 57, "duration": 12, "velocity": 92}, {"time": 679, "pitch": 61, "duration": 6, "velocity": 117}, {"time": 685, "pitch": 38, "duration": 17, "velocity": 79}, {"time": 691, "pitch": 45, "duration": 14, "velocity": 60}, {"time": 697, "pitch": 57, "duration": 12, "velocity": 96}, {"time": 703, "pitch": 54, "duration": 7, "velocity": 83}, {"time": 709, "pitch": 40, "duration": 15, "velocity": 75}, {"time": 715, "pitch": 47, "duration": 10, "velocity": 64}, {"time": 721, "pitch": 59, "duration": 13, "velocity": 93}, {"time": 733, "pitch": 42, "duration": 39, "velocity": 100}, {"time": 739, "pitch": 54, "duration": 9, "velocity": 82}, {"time": 745, "pitch": 57, "duration": 13, "velocity": 88}, {"time": 751, "pitch": 54, "duration": 9, "velocity": 66}, {"time": 757, "pitch": 59, "duration": 11, "velocity": 95}, {"time": 763, "pitch": 54, "duration": 5, "velocity": 86}, {"time": 769, "pitch": 61, "duration": 8, "velocity": 122}, {"time": 775, "pitch": 59, "duration": 6, "velocity": 77}, {"time": 781, "pitch": 38, "duration": 19, "velocity": 96}, {"time": 787, "pitch": 45, "duration": 19, "velocity": 83}, {"time": 793, "pitch": 62, "duration": 17, "velocity": 100}, {"time": 793, "pitch": 66, "duration": 11, "velocity": 127}, {"time": 799, "pitch": 57, "duration": 8, "velocity": 70}, {"time": 805, "pitch": 40, "duration": 15, "velocity": 89}, {"time": 811, "pitch": 47, "duration": 9, "velocity": 71}, {"time": 817, "pitch": 64, "duration": 14, "velocity": 95}, {"time": 817, "pitch": 68, "duration": 14, "velocity": 99}, {"time": 829, "pitch": 42, "duration": 40, "velocity": 99}, {"time": 835, "pitch": 54, "duration": 9, "velocity": 99}, {"time": 841, "pitch": 57, "duration": 18, "velocity": 79}, {"time": 841, "pitch": 61, "duration": 31, "velocity": 102}, {"time": 847, "pitch": 54, "duration": 8, "velocity": 77}, {"time": 853, "pitch": 59, "duration": 12, "velocity": 85}, {"time": 859, "pitch": 54, "duration": 6, "velocity": 86}, {"time": 865, "pitch": 57, "duration": 11, "velocity": 95}, {"time": 871, "pitch": 59, "duration": 4, "velocity": 96}, {"time": 877, "pitch": 38, "duration": 15, "velocity": 69}, {"time": 877, "pitch": 57, "duration": 10, "velocity": 76}, {"time": 877, "pitch": 62, "duration": 10, "velocity": 88}, {"time": 877, "pitch": 66, "duration": 10, "velocity": 96}, {"time": 883, "pitch": 45, "duration": 11, "velocity": 86}, {"time": 889, "pitch": 62, "duration": 7, "velocity": 95}, {"time": 889, "pitch": 66, "duration": 8, "velocity": 112}, {"time": 901, "pitch": 40, "duration": 14, "velocity": 70}, {"time": 901, "pitch": 59, "duration": 10, "velocity": 85}, {"time": 901, "pitch": 64, "duration": 9, "velocity": 79}, {"time": 901, "pitch": 68, "duration": 19, "velocity": 89}, {"time": 907, "pitch": 47, "duration": 8, "velocity": 60}, {"time": 913, "pitch": 64, "duration": 8, "velocity": 96}, {"time": 925, "pitch": 42, "duration": 40, "velocity": 93}, {"time": 925, "pitch": 57, "duration": 11, "velocity": 88}, {"time": 925, "pitch": 61, "duration": 11, "velocity": 117}, {"time": 931, "pitch": 54, "duration": 15, "velocity": 97}, {"time": 937, "pitch": 57, "duration": 7, "velocity": 34}, {"time": 937, "pitch": 59, "duration": 7, "velocity": 99}, {"time": 943, "pitch": 61, "duration": 19, "velocity": 92}, {"time": 949, "pitch": 54, "duration": 13, "velocity": 49}, {"time": 961, "pitch": 59, "duration": 6, "velocity": 112}, {"time": 967, "pitch": 57, "duration": 6, "velocity": 90}, {"time": 973, "pitch": 38, "duration": 16, "velocity": 99}, {"time": 979, "pitch": 45, "duration": 16, "velocity": 88}, {"time": 985, "pitch": 57, "duration": 12, "velocity": 112}, {"time": 991, "pitch": 54, "duration": 7, "velocity": 90}, {"time": 997, "pitch": 40, "duration": 15, "velocity": 88}, {"time": 1003, "pitch": 47, "duration": 10, "velocity": 73}, {"time": 1009, "pitch": 59, "duration": 10, "velocity": 100}, {"time": 1021, "pitch": 45, "duration": 14, "velocity": 100}, {"time": 1027, "pitch": 57, "duration": 17, "velocity": 96}, {"time": 1033, "pitch": 64, "duration": 10, "velocity": 112}, {"time": 1039, "pitch": 61, "duration": 5, "velocity": 122}, {"time": 1045, "pitch": 42, "duration": 17, "velocity": 96}, {"time": 1045, "pitch": 57, "duration": 13, "velocity": 73}, {"time": 1045, "pitch": 61, "duration": 10, "velocity": 92}, {"time": 1051, "pitch": 54, "duration": 7, "velocity": 96}, {"time": 1057, "pitch": 61, "duration": 7, "velocity": 117}, {"time": 1063, "pitch": 57, "duration": 9, "velocity": 76}, {"time": 1069, "pitch": 38, "duration": 15, "velocity": 72}, {"time": 1069, "pitch": 62, "duration": 10, "velocity": 100}, {"time": 1069, "pitch": 66, "duration": 13, "velocity": 112}, {"time": 1075, "pitch": 45, "duration": 11, "velocity": 81}, {"time": 1081, "pitch": 62, "duration": 9, "velocity": 97}, {"time": 1093, "pitch": 40, "duration": 15, "velocity": 71}, {"time": 1093, "pitch": 59, "duration": 7, "velocity": 79}, {"time": 1093, "pitch": 64, "duration": 5, "velocity": 92}, {"time": 1093, "pitch": 68, "duration": 5, "velocity": 97}, {"time": 1099, "pitch": 47, "duration": 9, "velocity": 72}, {"time": 1105, "pitch": 56, "duration": 13, "velocity": 100}, {"time": 1105, "pitch": 59, "duration": 13, "velocity": 82}, {"time": 1117, "pitch": 42, "duration": 50, "velocity": 100}, {"time": 1123, "pitch": 54, "duration": 8, "velocity": 82}, {"time": 1129, "pitch": 57, "duration": 13, "velocity": 96}, {"time": 1135, "pitch": 54, "duration": 31, "velocity": 81}, {"time": 1141, "pitch": 61, "duration": 26, "velocity": 112}, {"time": 1165, "pitch": 50, "duration": 23, "velocity": 93}, {"time": 1165, "pitch": 64, "duration": 7, "velocity": 90}, {"time": 1171, "pitch": 57, "duration": 7, "velocity": 92}, {"time": 1177, "pitch": 64, "duration": 6, "velocity": 90}, {"time": 1183, "pitch": 57, "duration": 7, "velocity": 96}, {"time": 1189, "pitch": 52, "duration": 22, "velocity": 74}, {"time": 1189, "pitch": 64, "duration": 5, "velocity": 95}, {"time": 1195, "pitch": 59, "duration": 7, "velocity": 96}, {"time": 1201, "pitch": 64, "duration": 6, "velocity": 97}, {"time": 1207, "pitch": 66, "duration": 7, "velocity": 100}, {"time": 1213, "pitch": 54, "duration": 36, "velocity": 93}, {"time": 1213, "pitch": 64, "duration": 6, "velocity": 95}, {"time": 1219, "pitch": 57, "duration": 6, "velocity": 95}, {"time": 1225, "pitch": 64, "duration": 6, "velocity": 92}, {"time": 1231, "pitch": 57, "duration": 7, "velocity": 96}, {"time": 1237, "pitch": 59, "duration": 6, "velocity": 99}, {"time": 1243, "pitch": 57, "duration": 6, "velocity": 97}, {"time": 1249, "pitch": 54, "duration": 6, "velocity": 95}, {"time": 1255, "pitch": 57, "duration": 6, "velocity": 89}, {"time": 1261, "pitch": 50, "duration": 24, "velocity": 88}, {"time": 1261, "pitch": 64, "duration": 7, "velocity": 90}, {"time": 1267, "pitch": 57, "duration": 7, "velocity": 92}, {"time": 1273, "pitch": 64, "duration": 6, "velocity": 90}, {"time": 1279, "pitch": 57, "duration": 7, "velocity": 96}, {"time": 1285, "pitch": 52, "duration": 22, "velocity": 90}, {"time": 1285, "pitch": 64, "duration": 5, "velocity": 95}, {"time": 1291, "pitch": 59, "duration": 7, "velocity": 96}, {"time": 1297, "pitch": 64, "duration": 6, "velocity": 97}, {"time": 1303, "pitch": 66, "duration": 7, "velocity": 100}, {"time": 1309, "pitch": 54, "duration": 45, "velocity": 95}, {"time": 1309, "pitch": 64, "duration": 6, "velocity": 95}, {"time": 1315, "pitch": 57, "duration": 6, "velocity": 95}, {"time": 1321, "pitch": 64, "duration": 6, "velocity": 92}, {"time": 1327, "pitch": 57, "duration": 6, "velocity": 97}, {"time": 1333, "pitch": 69, "duration": 6, "velocity": 93}, {"time": 1339, "pitch": 66, "duration": 6, "velocity": 90}, {"time": 1345, "pitch": 61, "duration": 6, "velocity": 100}, {"time": 1351, "pitch": 64, "duration": 7, "velocity": 96}, {"time": 1357, "pitch": 50, "duration": 24, "velocity": 88}, {"time": 1357, "pitch": 64, "duration": 1, "velocity": 90}, {"time": 1363, "pitch": 57, "duration": 7, "velocity": 92}, {"time": 1369, "pitch": 64, "duration": 6, "velocity": 90}, {"time": 1375, "pitch": 57, "duration": 7, "velocity": 96}, {"time": 1381, "pitch": 52, "duration": 23, "velocity": 88}, {"time": 1381, "pitch": 64, "duration": 5, "velocity": 95}, {"time": 1387, "pitch": 59, "duration": 7, "velocity": 96}, {"time": 1393, "pitch": 64, "duration": 6, "velocity": 97}, {"time": 1399, "pitch": 66, "duration": 7, "velocity": 100}, {"time": 1405, "pitch": 54, "duration": 45, "velocity": 107}, {"time": 1405, "pitch": 64, "duration": 6, "velocity": 95}, {"time": 1411, "pitch": 57, "duration": 6, "velocity": 95}, {"time": 1417, "pitch": 64, "duration": 6, "velocity": 92}, {"time": 1423, "pitch": 57, "duration": 7, "velocity": 96}, {"time": 1429, "pitch": 59, "duration": 6, "velocity": 99}, {"time": 1435, "pitch": 57, "duration": 6, "velocity": 97}, {"time": 1447, "pitch": 57, "duration": 6, "velocity": 89}, {"time": 1453, "pitch": 50, "duration": 23, "velocity": 92}, {"time": 1453, "pitch": 64, "duration": 7, "velocity": 90}, {"time": 1459, "pitch": 57, "duration": 7, "velocity": 92}, {"time": 1465, "pitch": 64, "duration": 6, "velocity": 90}, {"time": 1471, "pitch": 57, "duration": 7, "velocity": 96}, {"time": 1477, "pitch": 52, "duration": 22, "velocity": 93}, {"time": 1477, "pitch": 64, "duration": 5, "velocity": 95}, {"time": 1483, "pitch": 59, "duration": 7, "velocity": 96}, {"time": 1489, "pitch": 64, "duration": 6, "velocity": 97}, {"time": 1495, "pitch": 66, "duration": 7, "velocity": 100}, {"time": 1501, "pitch": 42, "duration": 39, "velocity": 96}, {"time": 1501, "pitch": 64, "duration": 6, "velocity": 95}, {"time": 1507, "pitch": 54, "duration": 7, "velocity": 95}, {"time": 1513, "pitch": 61, "duration": 6, "velocity": 99}, {"time": 1519, "pitch": 64, "duration": 9, "velocity": 90}, {"time": 1525, "pitch": 66, "duration": 26, "velocity": 112}, {"time": 1549, "pitch": 45, "duration": 17, "velocity": 99}, {"time": 1555, "pitch": 52, "duration": 11, "velocity": 82}, {"time": 1561, "pitch": 64, "duration": 12, "velocity": 99}, {"time": 1567, "pitch": 61, "duration": 6, "velocity": 70}, {"time": 1573, "pitch": 40, "duration": 15, "velocity": 69}, {"time": 1579, "pitch": 52, "duration": 13, "velocity": 85}, {"time": 1585, "pitch": 59, "duration": 12, "velocity": 99}, {"time": 1597, "pitch": 42, "duration": 39, "velocity": 99}, {"time": 1603, "pitch": 54, "duration": 11, "velocity": 78}, {"time": 1609, "pitch": 66, "duration": 7, "velocity": 102}, {"time": 1615, "pitch": 57, "duration": 8, "velocity": 78}, {"time": 1621, "pitch": 61, "duration": 15, "velocity": 100}, {"time": 1627, "pitch": 54, "duration": 9, "velocity": 54}, {"time": 1633, "pitch": 59, "duration": 10, "velocity": 63}, {"time": 1645, "pitch": 50, "duration": 13, "velocity": 95}, {"time": 1651, "pitch": 57, "duration": 18, "velocity": 78}, {"time": 1657, "pitch": 66, "duration": 11, "velocity": 112}, {"time": 1663, "pitch": 62, "duration": 6, "velocity": 64}, {"time": 1669, "pitch": 40, "duration": 14, "velocity": 86}, {"time": 1675, "pitch": 47, "duration": 8, "velocity": 63}, {"time": 1681, "pitch": 59, "duration": 12, "velocity": 89}, {"time": 1693, "pitch": 42, "duration": 39, "velocity": 96}, {"time": 1699, "pitch": 54, "duration": 9, "velocity": 93}, {"time": 1705, "pitch": 57, "duration": 14, "velocity": 99}, {"time": 1711, "pitch": 54, "duration": 12, "velocity": 82}, {"time": 1717, "pitch": 61, "duration": 24, "velocity": 88}, {"time": 1741, "pitch": 45, "duration": 18, "velocity": 90}, {"time": 1747, "pitch": 52, "duration": 11, "velocity": 85}, {"time": 1753, "pitch": 64, "duration": 13, "velocity": 97}, {"time": 1759, "pitch": 61, "duration": 7, "velocity": 74}, {"time": 1765, "pitch": 40, "duration": 16, "velocity": 83}, {"time": 1771, "pitch": 47, "duration": 11, "velocity": 58}, {"time": 1777, "pitch": 59, "duration": 13, "velocity": 92}, {"time": 1783, "pitch": 56, "duration": 7, "velocity": 63}, {"time": 1789, "pitch": 42, "duration": 39, "velocity": 85}, {"time": 1795, "pitch": 54, "duration": 8, "velocity": 86}, {"time": 1801, "pitch": 61, "duration": 12, "velocity": 117}, {"time": 1807, "pitch": 54, "duration": 9, "velocity": 76}, {"time": 1813, "pitch": 59, "duration": 12, "velocity": 100}, {"time": 1819, "pitch": 54, "duration": 6, "velocity": 70}, {"time": 1825, "pitch": 57, "duration": 12, "velocity": 92}, {"time": 1831, "pitch": 61, "duration": 6, "velocity": 117}, {"time": 1837, "pitch": 38, "duration": 17, "velocity": 79}, {"time": 1843, "pitch": 45, "duration": 14, "velocity": 60}, {"time": 1849, "pitch": 57, "duration": 12, "velocity": 96}, {"time": 1855, "pitch": 54, "duration": 7, "velocity": 83}, {"time": 1861, "pitch": 40, "duration": 15, "velocity": 75}, {"time": 1867, "pitch": 47, "duration": 10, "velocity": 64}, {"time": 1873, "pitch": 59, "duration": 13, "velocity": 93}, {"time": 1885, "pitch": 42, "duration": 39, "velocity": 100}, {"time": 1891, "pitch": 54, "duration": 9, "velocity": 82}, {"time": 1897, "pitch": 57, "duration": 13, "velocity": 88}, {"time": 1903, "pitch": 54, "duration": 9, "velocity": 66}, {"time": 1909, "pitch": 59, "duration": 11, "velocity": 95}, {"time": 1915, "pitch": 54, "duration": 5, "velocity": 86}, {"time": 1921, "pitch": 61, "duration": 8, "velocity": 122}, {"time": 1927, "pitch": 59, "duration": 6, "velocity": 77}, {"time": 1933, "pitch": 38, "duration": 19, "velocity": 96}, {"time": 1939, "pitch": 45, "duration": 19, "velocity": 83}, {"time": 1945, "pitch": 62, "duration": 17, "velocity": 100}, {"time": 1945, "pitch": 66, "duration": 11, "velocity": 127}, {"time": 1951, "pitch": 57, "duration": 8, "velocity": 70}, {"time": 1957, "pitch": 40, "duration": 15, "velocity": 89}, {"time": 1963, "pitch": 47, "duration": 9, "velocity": 71}, {"time": 1969, "pitch": 64, "duration": 14, "velocity": 95}, {"time": 1969, "pitch": 68, "duration": 14, "velocity": 99}, {"time": 1981, "pitch": 42, "duration": 40, "velocity": 99}, {"time": 1987, "pitch": 54, "duration": 9, "velocity": 99}, {"time": 1993, "pitch": 57, "duration": 18, "velocity": 79}, {"time": 1993, "pitch": 61, "duration": 31, "velocity": 102}, {"time": 1999, "pitch": 54, "duration": 8, "velocity": 77}, {"time": 2005, "pitch": 59, "duration": 12, "velocity": 85}, {"time": 2011, "pitch": 54, "duration": 6, "velocity": 86}, {"time": 2017, "pitch": 57, "duration": 11, "velocity": 95}, {"time": 2023, "pitch": 59, "duration": 4, "velocity": 96}, {"time": 2029, "pitch": 38, "duration": 15, "velocity": 69}, {"time": 2029, "pitch": 57, "duration": 10, "velocity": 76}, {"time": 2029, "pitch": 62, "duration": 10, "velocity": 88}, {"time": 2029, "pitch": 66, "duration": 10, "velocity": 96}, {"time": 2035, "pitch": 45, "duration": 11, "velocity": 86}, {"time": 2041, "pitch": 62, "duration": 7, "velocity": 95}, {"time": 2041, "pitch": 66, "duration": 8, "velocity": 112}, {"time": 2053, "pitch": 40, "duration": 14, "velocity": 70}, {"time": 2053, "pitch": 59, "duration": 10, "velocity": 85}, {"time": 2053, "pitch": 64, "duration": 9, "velocity": 79}, {"time": 2053, "pitch": 68, "duration": 19, "velocity": 89}, {"time": 2059, "pitch": 47, "duration": 8, "velocity": 60}, {"time": 2065, "pitch": 64, "duration": 8, "velocity": 96}, {"time": 2077, "pitch": 42, "duration": 40, "velocity": 93}, {"time": 2077, "pitch": 57, "duration": 11, "velocity": 88}, {"time": 2077, "pitch": 61, "duration": 11, "velocity": 117}, {"time": 2083, "pitch": 54, "duration": 15, "velocity": 97}, {"time": 2089, "pitch": 57, "duration": 7, "velocity": 34}, {"time": 2089, "pitch": 59, "duration": 7, "velocity": 99}, {"time": 2095, "pitch": 61, "duration": 19, "velocity": 92}, {"time": 2101, "pitch": 54, "duration": 13, "velocity": 49}, {"time": 2113, "pitch": 59, "duration": 6, "velocity": 112}, {"time": 2119, "pitch": 57, "duration": 6, "velocity": 90}, {"time": 2125, "pitch": 38, "duration": 16, "velocity": 99}, {"time": 2131, "pitch": 45, "duration": 16, "velocity": 88}, {"time": 2137, "pitch": 57, "duration": 12, "velocity": 112}, {"time": 2143, "pitch": 54, "duration": 7, "velocity": 90}, {"time": 2149, "pitch": 40, "duration": 15, "velocity": 88}, {"time": 2155, "pitch": 47, "duration": 10, "velocity": 73}, {"time": 2161, "pitch": 59, "duration": 10, "velocity": 100}, {"time": 2173, "pitch": 45, "duration": 14, "velocity": 100}, {"time": 2179, "pitch": 57, "duration": 17, "velocity": 96}, {"time": 2185, "pitch": 64, "duration": 10, "velocity": 112}, {"time": 2191, "pitch": 61, "duration": 5, "velocity": 122}, {"time": 2197, "pitch": 42, "duration": 17, "velocity": 96}, {"time": 2197, "pitch": 57, "duration": 13, "velocity": 73}, {"time": 2197, "pitch": 61, "duration": 10, "velocity": 92}, {"time": 2203, "pitch": 54, "duration": 7, "velocity": 96}, {"time": 2209, "pitch": 61, "duration": 7, "velocity": 117}, {"time": 2215, "pitch": 57, "duration": 9, "velocity": 76}, {"time": 2221, "pitch": 38, "duration": 15, "velocity": 72}, {"time": 2221, "pitch": 62, "duration": 10, "velocity": 100}, {"time": 2221, "pitch": 66, "duration": 13, "velocity": 112}, {"time": 2227, "pitch": 45, "duration": 11, "velocity": 81}, {"time": 2233, "pitch": 62, "duration": 9, "velocity": 97}, {"time": 2245, "pitch": 40, "duration": 15, "velocity": 71}, {"time": 2245, "pitch": 59, "duration": 7, "velocity": 79}, {"time": 2245, "pitch": 64, "duration": 5, "velocity": 92}, {"time": 2245, "pitch": 68, "duration": 5, "velocity": 97}, {"time": 2251, "pitch": 47, "duration": 9, "velocity": 72}, {"time": 2257, "pitch": 56, "duration": 13, "velocity": 100}, {"time": 2257, "pitch": 59, "duration": 13, "velocity": 82}, {"time": 2269, "pitch": 42, "duration": 36, "velocity": 100}, {"time": 2275, "pitch": 54, "duration": 8, "velocity": 82}, {"time": 2281, "pitch": 57, "duration": 13, "velocity": 96}, {"time": 2287, "pitch": 54, "duration": 18, "velocity": 81}, {"time": 2293, "pitch": 61, "duration": 12, "velocity": 112}, {"time": 2305, "pitch": 61, "duration": 8, "velocity": 122}, {"time": 2311, "pitch": 59, "duration": 6, "velocity": 77}, {"time": 2317, "pitch": 38, "duration": 19, "velocity": 96}, {"time": 2323, "pitch": 45, "duration": 19, "velocity": 83}, {"time": 2329, "pitch": 62, "duration": 17, "velocity": 100}, {"time": 2329, "pitch": 66, "duration": 11, "velocity": 127}, {"time": 2335, "pitch": 57, "duration": 8, "velocity": 70}, {"time": 2341, "pitch": 40, "duration": 15, "velocity": 89}, {"time": 2347, "pitch": 47, "duration": 9, "velocity": 71}, {"time": 2353, "pitch": 64, "duration": 14, "velocity": 95}, {"time": 2353, "pitch": 68, "duration": 14, "velocity": 99}, {"time": 2365, "pitch": 42, "duration": 40, "velocity": 99}, {"time": 2371, "pitch": 54, "duration": 9, "velocity": 99}, {"time": 2377, "pitch": 57, "duration": 18, "velocity": 79}, {"time": 2377, "pitch": 61, "duration": 31, "velocity": 102}, {"time": 2383, "pitch": 54, "duration": 8, "velocity": 77}, {"time": 2389, "pitch": 59, "duration": 12, "velocity": 85}, {"time": 2395, "pitch": 54, "duration": 6, "velocity": 86}, {"time": 2401, "pitch": 57, "duration": 11, "velocity": 95}, {"time": 2407, "pitch": 59, "duration": 4, "velocity": 96}, {"time": 2413, "pitch": 38, "duration": 15, "velocity": 69}, {"time": 2413, "pitch": 57, "duration": 10, "velocity": 76}, {"time": 2413, "pitch": 62, "duration": 10, "velocity": 88}, {"time": 2413, "pitch": 66, "duration": 10, "velocity": 96}, {"time": 2419, "pitch": 45, "duration": 11, "velocity": 86}, {"time": 2425, "pitch": 62, "duration": 7, "velocity": 95}, {"time": 2425, "pitch": 66, "duration": 8, "velocity": 112}, {"time": 2437, "pitch": 40, "duration": 14, "velocity": 70}, {"time": 2437, "pitch": 59, "duration": 10, "velocity": 85}, {"time": 2437, "pitch": 64, "duration": 9, "velocity": 79}, {"time": 2437, "pitch": 68, "duration": 19, "velocity": 89}, {"time": 2443, "pitch": 47, "duration": 8, "velocity": 60}, {"time": 2449, "pitch": 64, "duration": 8, "velocity": 96}, {"time": 2461, "pitch": 42, "duration": 40, "velocity": 93}, {"time": 2461, "pitch": 57, "duration": 11, "velocity": 88}, {"time": 2461, "pitch": 61, "duration": 11, "velocity": 117}, {"time": 2467, "pitch": 54, "duration": 15, "velocity": 97}, {"time": 2473, "pitch": 57, "duration": 7, "velocity": 34}, {"time": 2473, "pitch": 59, "duration": 7, "velocity": 99}, {"time": 2479, "pitch": 61, "duration": 19, "velocity": 92}, {"time": 2485, "pitch": 54, "duration": 13, "velocity": 49}, {"time": 2497, "pitch": 59, "duration": 6, "velocity": 112}, {"time": 2503, "pitch": 57, "duration": 6, "velocity": 90}, {"time": 2509, "pitch": 38, "duration": 16, "velocity": 99}, {"time": 2515, "pitch": 45, "duration": 16, "velocity": 88}, {"time": 2521, "pitch": 57, "duration": 12, "velocity": 112}, {"time": 2527, "pitch": 54, "duration": 7, "velocity": 90}, {"time": 2533, "pitch": 40, "duration": 15, "velocity": 88}, {"time": 2539, "pitch": 47, "duration": 10, "velocity": 73}, {"time": 2545, "pitch": 59, "duration": 10, "velocity": 100}, {"time": 2557, "pitch": 45, "duration": 14, "velocity": 100}, {"time": 2563, "pitch": 57, "duration": 17, "velocity": 96}, {"time": 2569, "pitch": 64, "duration": 10, "velocity": 112}, {"time": 2575, "pitch": 61, "duration": 5, "velocity": 122}, {"time": 2581, "pitch": 42, "duration": 17, "velocity": 96}, {"time": 2581, "pitch": 57, "duration": 13, "velocity": 73}, {"time": 2581, "pitch": 61, "duration": 10, "velocity": 92}, {"time": 2587, "pitch": 54, "duration": 7, "velocity": 96}, {"time": 2593, "pitch": 61, "duration": 7, "velocity": 117}, {"time": 2599, "pitch": 57, "duration": 9, "velocity": 76}, {"time": 2605, "pitch": 38, "duration": 15, "velocity": 72}, {"time": 2605, "pitch": 62, "duration": 10, "velocity": 100}, {"time": 2605, "pitch": 66, "duration": 13, "velocity": 112}, {"time": 2611, "pitch": 45, "duration": 11, "velocity": 81}, {"time": 2617, "pitch": 62, "duration": 9, "velocity": 97}, {"time": 2629, "pitch": 40, "duration": 15, "velocity": 71}, {"time": 2629, "pitch": 59, "duration": 7, "velocity": 79}, {"time": 2629, "pitch": 64, "duration": 5, "velocity": 92}, {"time": 2629, "pitch": 68, "duration": 5, "velocity": 97}, {"time": 2635, "pitch": 47, "duration": 9, "velocity": 72}, {"time": 2641, "pitch": 56, "duration": 12, "velocity": 100}, {"time": 2641, "pitch": 59, "duration": 12, "velocity": 82}, {"time": 2653, "pitch": 42, "duration": 48, "velocity": 99}, {"time": 2659, "pitch": 54, "duration": 7, "velocity": 95}, {"time": 2665, "pitch": 59, "duration": 11, "velocity": 93}, {"time": 2671, "pitch": 54, "duration": 9, "velocity": 82}, {"time": 2677, "pitch": 61, "duration": 9, "velocity": 112}, {"time": 2683, "pitch": 54, "duration": 18, "velocity": 46}, {"time": 2689, "pitch": 66, "duration": 13, "velocity": 99}, {"time": 2695, "pitch": 61, "duration": 7, "velocity": 88}, {"time": 2701, "pitch": 50, "duration": 23, "velocity": 93}, {"time": 2701, "pitch": 64, "duration": 7, "velocity": 90}, {"time": 2707, "pitch": 57, "duration": 7, "velocity": 92}, {"time": 2713, "pitch": 64, "duration": 6, "velocity": 90}, {"time": 2719, "pitch": 57, "duration": 7, "velocity": 96}, {"time": 2725, "pitch": 52, "duration": 22, "velocity": 74}, {"time": 2725, "pitch": 64, "duration": 5, "velocity": 95}, {"time": 2731, "pitch": 59, "duration": 7, "velocity": 96}, {"time": 2737, "pitch": 64, "duration": 6, "velocity": 97}, {"time": 2743, "pitch": 66, "duration": 7, "velocity": 100}, {"time": 2749, "pitch": 54, "duration": 36, "velocity": 93}, {"time": 2749, "pitch": 64, "duration": 6, "velocity": 95}, {"time": 2755, "pitch": 57, "duration": 6, "velocity": 95}, {"time": 2761, "pitch": 64, "duration": 6, "velocity": 92}, {"time": 2767, "pitch": 57, "duration": 7, "velocity": 96}, {"time": 2773, "pitch": 59, "duration": 6, "velocity": 99}, {"time": 2779, "pitch": 57, "duration": 6, "velocity": 97}, {"time": 2785, "pitch": 54, "duration": 6, "velocity": 95}, {"time": 2791, "pitch": 57, "duration": 6, "velocity": 89}, {"time": 2797, "pitch": 50, "duration": 24, "velocity": 88}, {"time": 2797, "pitch": 64, "duration": 7, "velocity": 90}, {"time": 2803, "pitch": 57, "duration": 7, "velocity": 92}, {"time": 2809, "pitch": 64, "duration": 6, "velocity": 90}, {"time": 2815, "pitch": 57, "duration": 7, "velocity": 96}, {"time": 2821, "pitch": 52, "duration": 22, "velocity": 90}, {"time": 2821, "pitch": 64, "duration": 5, "velocity": 95}, {"time": 2827, "pitch": 59, "duration": 7, "velocity": 96}, {"time": 2833, "pitch": 64, "duration": 6, "velocity": 97}, {"time": 2839, "pitch": 66, "duration": 7, "velocity": 100}, {"time": 2845, "pitch": 54, "duration": 45, "velocity": 95}, {"time": 2845, "pitch": 64, "duration": 6, "velocity": 95}, {"time": 2851, "pitch": 57, "duration": 6, "velocity": 95}, {"time": 2857, "pitch": 64, "duration": 6, "velocity": 92}, {"time": 2863, "pitch": 57, "duration": 6, "velocity": 97}, {"time": 2869, "pitch": 69, "duration": 6, "velocity": 93}, {"time": 2875, "pitch": 66, "duration": 6, "velocity": 90}, {"time": 2881, "pitch": 61, "duration": 6, "velocity": 100}, {"time": 2887, "pitch": 64, "duration": 7, "velocity": 96}, {"time": 2893, "pitch": 50, "duration": 24, "velocity": 88}, {"time": 2893, "pitch": 64, "duration": 1, "velocity": 90}, {"time": 2899, "pitch": 57, "duration": 7, "velocity": 92}, {"time": 2905, "pitch": 64, "duration": 6, "velocity": 90}, {"time": 2911, "pitch": 57, "duration": 7, "velocity": 96}, {"time": 2917, "pitch": 52, "duration": 23, "velocity": 88}, {"time": 2917, "pitch": 64, "duration": 5, "velocity": 95}, {"time": 2923, "pitch": 59, "duration": 7, "velocity": 96}, {"time": 2929, "pitch": 64, "duration": 6, "velocity": 97}, {"time": 2935, "pitch": 66, "duration": 7, "velocity": 100}, {"time": 2941, "pitch": 54, "duration": 45, "velocity": 107}, {"time": 2941, "pitch": 64, "duration": 6, "velocity": 95}, {"time": 2947, "pitch": 57, "duration": 6, "velocity": 95}, {"time": 2953, "pitch": 64, "duration": 6, "velocity": 92}, {"time": 2959, "pitch": 57, "duration": 7, "velocity": 96}, {"time": 2965, "pitch": 59, "duration": 6, "velocity": 99}, {"time": 2971, "pitch": 57, "duration": 6, "velocity": 97}, {"time": 2983, "pitch": 57, "duration": 6, "velocity": 89}, {"time": 2989, "pitch": 50, "duration": 23, "velocity": 92}, {"time": 2989, "pitch": 64, "duration": 7, "velocity": 90}, {"time": 2995, "pitch": 57, "duration": 7, "velocity": 92}, {"time": 3001, "pitch": 64, "duration": 6, "velocity": 90}, {"time": 3007, "pitch": 57, "duration": 7, "velocity": 96}, {"time": 3013, "pitch": 52, "duration": 22, "velocity": 93}, {"time": 3013, "pitch": 64, "duration": 5, "velocity": 95}, {"time": 3019, "pitch": 59, "duration": 7, "velocity": 96}, {"time": 3025, "pitch": 64, "duration": 6, "velocity": 97}, {"time": 3031, "pitch": 66, "duration": 7, "velocity": 100}, {"time": 3037, "pitch": 42, "duration": 39, "velocity": 96}, {"time": 3037, "pitch": 64, "duration": 6, "velocity": 95}, {"time": 3043, "pitch": 54, "duration": 7, "velocity": 95}, {"time": 3049, "pitch": 61, "duration": 6, "velocity": 99}, {"time": 3055, "pitch": 64, "duration": 9, "velocity": 90}, {"time": 3061, "pitch": 66, "duration": 24, "velocity": 112}, {"time": 3085, "pitch": 50, "duration": 23, "velocity": 93}, {"time": 3085, "pitch": 64, "duration": 7, "velocity": 90}, {"time": 3091, "pitch": 57, "duration": 7, "velocity": 92}, {"time": 3097, "pitch": 64, "duration": 6, "velocity": 90}, {"time": 3103, "pitch": 57, "duration": 7, "velocity": 96}, {"time": 3109, "pitch": 52, "duration": 22, "velocity": 74}, {"time": 3109, "pitch": 64, "duration": 5, "velocity": 95}, {"time": 3115, "pitch": 59, "duration": 7, "velocity": 96}, {"time": 3121, "pitch": 64, "duration": 6, "velocity": 97}, {"time": 3127, "pitch": 66, "duration": 7, "velocity": 100}, {"time": 3133, "pitch": 54, "duration": 36, "velocity": 93}, {"time": 3133, "pitch": 64, "duration": 6, "velocity": 95}, {"time": 3139, "pitch": 57, "duration": 6, "velocity": 95}, {"time": 3145, "pitch": 64, "duration": 6, "velocity": 92}, {"time": 3151, "pitch": 57, "duration": 7, "velocity": 96}, {"time": 3157, "pitch": 59, "duration": 6, "velocity": 99}, {"time": 3163, "pitch": 57, "duration": 6, "velocity": 97}, {"time": 3169, "pitch": 54, "duration": 6, "velocity": 95}, {"time": 3175, "pitch": 57, "duration": 6, "velocity": 89}, {"time": 3181, "pitch": 50, "duration": 24, "velocity": 88}, {"time": 3181, "pitch": 64, "duration": 7, "velocity": 90}, {"time": 3187, "pitch": 57, "duration": 7, "velocity": 92}, {"time": 3193, "pitch": 64, "duration": 6, "velocity": 90}, {"time": 3199, "pitch": 57, "duration": 7, "velocity": 96}, {"time": 3205, "pitch": 52, "duration": 22, "velocity": 90}, {"time": 3205, "pitch": 64, "duration": 5, "velocity": 95}, {"time": 3211, "pitch": 59, "duration": 7, "velocity": 96}, {"time": 3217, "pitch": 64, "duration": 6, "velocity": 97}, {"time": 3223, "pitch": 66, "duration": 7, "velocity": 100}, {"time": 3229, "pitch": 54, "duration": 45, "velocity": 95}, {"time": 3229, "pitch": 64, "duration": 6, "velocity": 95}, {"time": 3235, "pitch": 57, "duration": 6, "velocity": 95}, {"time": 3241, "pitch": 64, "duration": 6, "velocity": 92}, {"time": 3247, "pitch": 57, "duration": 6, "velocity": 97}, {"time": 3253, "pitch": 69, "duration": 6, "velocity": 93}, {"time": 3259, "pitch": 66, "duration": 6, "velocity": 90}, {"time": 3265, "pitch": 61, "duration": 6, "velocity": 100}, {"time": 3271, "pitch": 64, "duration": 7, "velocity": 96}, {"time": 3277, "pitch": 50, "duration": 24, "velocity": 88}, {"time": 3277, "pitch": 64, "duration": 1, "velocity": 90}, {"time": 3283, "pitch": 57, "duration": 7, "velocity": 92}, {"time": 3289, "pitch": 64, "duration": 6, "velocity": 90}, {"time": 3295, "pitch": 57, "duration": 7, "velocity": 96}, {"time": 3301, "pitch": 52, "duration": 23, "velocity": 88}, {"time": 3301, "pitch": 64, "duration": 5, "velocity": 95}, {"time": 3307, "pitch": 59, "duration": 7, "velocity": 96}, {"time": 3313, "pitch": 64, "duration": 6, "velocity": 97}, {"time": 3319, "pitch": 66, "duration": 7, "velocity": 100}, {"time": 3325, "pitch": 54, "duration": 45, "velocity": 107}, {"time": 3325, "pitch": 64, "duration": 6, "velocity": 95}, {"time": 3331, "pitch": 57, "duration": 6, "velocity": 95}, {"time": 3337, "pitch": 64, "duration": 6, "velocity": 92}, {"time": 3343, "pitch": 57, "duration": 7, "velocity": 96}, {"time": 3349, "pitch": 59, "duration": 6, "velocity": 99}, {"time": 3355, "pitch": 57, "duration": 6, "velocity": 97}, {"time": 3367, "pitch": 57, "duration": 6, "velocity": 89}, {"time": 3373, "pitch": 50, "duration": 23, "velocity": 92}, {"time": 3373, "pitch": 64, "duration": 7, "velocity": 90}, {"time": 3379, "pitch": 57, "duration": 7, "velocity": 92}, {"time": 3385, "pitch": 64, "duration": 6, "velocity": 90}, {"time": 3391, "pitch": 57, "duration": 7, "velocity": 96}, {"time": 3397, "pitch": 52, "duration": 22, "velocity": 93}, {"time": 3397, "pitch": 64, "duration": 5, "velocity": 95}, {"time": 3403, "pitch": 59, "duration": 7, "velocity": 96}, {"time": 3409, "pitch": 64, "duration": 6, "velocity": 97}, {"time": 3415, "pitch": 66, "duration": 7, "velocity": 100}, {"time": 3421, "pitch": 42, "duration": 39, "velocity": 96}, {"time": 3421, "pitch": 64, "duration": 6, "velocity": 95}, {"time": 3427, "pitch": 54, "duration": 7, "velocity": 95}, {"time": 3433, "pitch": 61, "duration": 6, "velocity": 99}, {"time": 3439, "pitch": 64, "duration": 9, "velocity": 90}, {"time": 3445, "pitch": 66, "duration": 24, "velocity": 112}, {"time": 3469, "pitch": 45, "duration": 22, "velocity": 97}, {"time": 3475, "pitch": 52, "duration": 14, "velocity": 74}, {"time": 3481, "pitch": 64, "duration": 12, "velocity": 99}, {"time": 3487, "pitch": 61, "duration": 7, "velocity": 69}, {"time": 3493, "pitch": 52, "duration": 14, "velocity": 100}, {"time": 3499, "pitch": 59, "duration": 7, "velocity": 60}, {"time": 3505, "pitch": 64, "duration": 12, "velocity": 73}, {"time": 3505, "pitch": 68, "duration": 12, "velocity": 100}, {"time": 3517, "pitch": 42, "duration": 40, "velocity": 93}, {"time": 3523, "pitch": 54, "duration": 9, "velocity": 85}, {"time": 3529, "pitch": 57, "duration": 13, "velocity": 88}, {"time": 3535, "pitch": 54, "duration": 19, "velocity": 55}, {"time": 3541, "pitch": 61, "duration": 24, "velocity": 96}, {"time": 3566, "pitch": 38, "duration": 21, "velocity": 95}, {"time": 3573, "pitch": 45, "duration": 21, "velocity": 100}, {"time": 3580, "pitch": 57, "duration": 15, "velocity": 93}, {"time": 3587, "pitch": 66, "duration": 8, "velocity": 112}, {"time": 3594, "pitch": 40, "duration": 21, "velocity": 90}, {"time": 3601, "pitch": 47, "duration": 13, "velocity": 77}, {"time": 3609, "pitch": 59, "duration": 19, "velocity": 83}, {"time": 3626, "pitch": 42, "duration": 115, "velocity": 97}, {"time": 3632, "pitch": 54, "duration": 109, "velocity": 89}, {"time": 3640, "pitch": 57, "duration": 11, "velocity": 83}, {"time": 3647, "pitch": 59, "duration": 9, "velocity": 70}, {"time": 3655, "pitch": 61, "duration": 86, "velocity": 79}, {"time": 3664, "pitch": 66, "duration": 77, "velocity": 79}, {"time": 3678, "pitch": 69, "duration": 63, "velocity": 58}], "annotations": [{"time": 398, "annotation": {"number": 64, "value": 127}, "group": "control_change"}, {"time": 419, "annotation": {"number": 64, "value": 0}, "group": "control_change"}, {"time": 431, "annotation": {"number": 64, "value": 127}, "group": "control_change"}, {"time": 442, "annotation": {"number": 64, "value": 0}, "group": "control_change"}, {"time": 445, "annotation": {"number": 64, "value": 127}, "group": "control_change"}, {"time": 490, "annotation": {"number": 64, "value": 0}, "group": "control_change"}, {"time": 494, "annotation": {"number": 64, "value": 127}, "group": "control_change"}, {"time": 514, "annotation": {"number": 64, "value": 0}, "group": "control_change"}, {"time": 517, "annotation": {"number": 64, "value": 127}, "group": "control_change"}, {"time": 539, "annotation": {"number": 64, "value": 0}, "group": "control_change"}, {"time": 543, "annotation": {"number": 64, "value": 127}, "group": "control_change"}, {"time": 584, "annotation": {"number": 64, "value": 0}, "group": "control_change"}, {"time": 589, "annotation": {"number": 64, "value": 127}, "group": "control_change"}, {"time": 612, "annotation": {"number": 64, "value": 0}, "group": "control_change"}, {"time": 615, "annotation": {"number": 64, "value": 127}, "group": "control_change"}, {"time": 682, "annotation": {"number": 64, "value": 0}, "group": "control_change"}, {"time": 686, "annotation": {"number": 64, "value": 127}, "group": "control_change"}, {"time": 707, "annotation": {"number": 64, "value": 0}, "group": "control_change"}, {"time": 711, "annotation": {"number": 64, "value": 127}, "group": "control_change"}, {"time": 731, "annotation": {"number": 64, "value": 0}, "group": "control_change"}, {"time": 735, "annotation": {"number": 64, "value": 127}, "group": "control_change"}, {"time": 776, "annotation": {"number": 64, "value": 0}, "group": "control_change"}, {"time": 782, "annotation": {"number": 64, "value": 127}, "group": "control_change"}, {"time": 801, "annotation": {"number": 64, "value": 0}, "group": "control_change"}, {"time": 805, "annotation": {"number": 64, "value": 127}, "group": "control_change"}, {"time": 827, "annotation": {"number": 64, "value": 0}, "group": "control_change"}, {"time": 831, "annotation": {"number": 64, "value": 127}, "group": "control_change"}, {"time": 875, "annotation": {"number": 64, "value": 0}, "group": "control_change"}, {"time": 876, "annotation": {"number": 64, "value": 127}, "group": "control_change"}, {"time": 922, "annotation": {"number": 64, "value": 0}, "group": "control_change"}, {"time": 925, "annotation": {"number": 64, "value": 127}, "group": "control_change"}, {"time": 971, "annotation": {"number": 64, "value": 0}, "group": "control_change"}, {"time": 972, "annotation": {"number": 64, "value": 127}, "group": "control_change"}, {"time": 994, "annotation": {"number": 64, "value": 0}, "group": "control_change"}, {"time": 998, "annotation": {"number": 64, "value": 127}, "group": "control_change"}, {"time": 1018, "annotation": {"number": 64, "value": 0}, "group": "control_change"}, {"time": 1023, "annotation": {"number": 64, "value": 127}, "group": "control_change"}, {"time": 1041, "annotation": {"number": 64, "value": 0}, "group": "control_change"}, {"time": 1045, "annotation": {"number": 64, "value": 127}, "group": "control_change"}, {"time": 1066, "annotation": {"number": 64, "value": 0}, "group": "control_change"}, {"time": 1069, "annotation": {"number": 64, "value": 127}, "group": "control_change"}, {"time": 1090, "annotation": {"number": 64, "value": 0}, "group": "control_change"}, {"time": 1093, "annotation": {"number": 64, "value": 127}, "group": "control_change"}, {"time": 1115, "annotation": {"number": 64, "value": 0}, "group": "control_change"}, {"time": 1118, "annotation": {"number": 64, "value": 127}, "group": "control_change"}, {"time": 1164, "annotation": {"number": 64, "value": 0}, "group": "control_change"}, {"time": 1550, "annotation": {"number": 64, "value": 127}, "group": "control_change"}, {"time": 1571, "annotation": {"number": 64, "value": 0}, "group": "control_change"}, {"time": 1583, "annotation": {"number": 64, "value": 127}, "group": "control_change"}, {"time": 1594, "annotation": {"number": 64, "value": 0}, "group": "control_change"}, {"time": 1597, "annotation": {"number": 64, "value": 127}, "group": "control_change"}, {"time": 1642, "annotation": {"number": 64, "value": 0}, "group": "control_change"}, {"time": 1646, "annotation": {"number": 64, "value": 127}, "group": "control_change"}, {"time": 1666, "annotation": {"number": 64, "value": 0}, "group": "control_change"}, {"time": 1669, "annotation": {"number": 64, "value": 127}, "group": "control_change"}, {"time": 1691, "annotation": {"number": 64, "value": 0}, "group": "control_change"}, {"time": 1695, "annotation": {"number": 64, "value": 127}, "group": "control_change"}, {"time": 1736, "annotation": {"number": 64, "value": 0}, "group": "control_change"}, {"time": 1741, "annotation": {"number": 64, "value": 127}, "group": "control_change"}, {"time": 1764, "annotation": {"number": 64, "value": 0}, "group": "control_change"}, {"time": 1767, "annotation": {"number": 64, "value": 127}, "group": "control_change"}, {"time": 1834, "annotation": {"number": 64, "value": 0}, "group": "control_change"}, {"time": 1838, "annotation": {"number": 64, "value": 127}, "group": "control_change"}, {"time": 1859, "annotation": {"number": 64, "value": 0}, "group": "control_change"}, {"time": 1863, "annotation": {"number": 64, "value": 127}, "group": "control_change"}, {"time": 1883, "annotation": {"number": 64, "value": 0}, "group": "control_change"}, {"time": 1887, "annotation": {"number": 64, "value": 127}, "group": "control_change"}, {"time": 1928, "annotation": {"number": 64, "value": 0}, "group": "control_change"}, {"time": 1934, "annotation": {"number": 64, "value": 127}, "group": "control_change"}, {"time": 1953, "annotation": {"number": 64, "value": 0}, "group": "control_change"}, {"time": 1957, "annotation": {"number": 64, "value": 127}, "group": "control_change"}, {"time": 1979, "annotation": {"number": 64, "value": 0}, "group": "control_change"}, {"time": 1983, "annotation": {"number": 64, "value": 127}, "group": "control_change"}, {"time": 2027, "annotation": {"number": 64, "value": 0}, "group": "control_change"}, {"time": 2028, "annotation": {"number": 64, "value": 127}, "group": "control_change"}, {"time": 2074, "annotation": {"number": 64, "value": 0}, "group": "control_change"}, {"time": 2077, "annotation": {"number": 64, "value": 127}, "group": "control_change"}, {"time": 2123, "annotation": {"number": 64, "value": 0}, "group": "control_change"}, {"time": 2124, "annotation": {"number": 64, "value": 127}, "group": "control_change"}, {"time": 2146, "annotation": {"number": 64, "value": 0}, "group": "control_change"}, {"time": 2150, "annotation": {"number": 64, "value": 127}, "group": "control_change"}, {"time": 2170, "annotation": {"number": 64, "value": 0}, "group": "control_change"}, {"time": 2175, "annotation": {"number": 64, "value": 127}, "group": "control_change"}, {"time": 2193, "annotation": {"number": 64, "value": 0}, "group": "control_change"}, {"time": 2197, "annotation": {"number": 64, "value": 127}, "group": "control_change"}, {"time": 2218, "annotation": {"number": 64, "value": 0}, "group": "control_change"}, {"time": 2221, "annotation": {"number": 64, "value": 127}, "group": "control_change"}, {"time": 2242, "annotation": {"number": 64, "value": 0}, "group": "control_change"}, {"time": 2245, "annotation": {"number": 64, "value": 127}, "group": "control_change"}, {"time": 2267, "annotation": {"number": 64, "value": 0}, "group": "control_change"}, {"time": 2270, "annotation": {"number": 64, "value": 127}, "group": "control_change"}, {"time": 2312, "annotation": {"number": 64, "value": 0}, "group": "control_change"}, {"time": 2318, "annotation": {"number": 64, "value": 127}, "group": "control_change"}, {"time": 2337, "annotation": {"number": 64, "value": 0}, "group": "control_change"}, {"time": 2341, "annotation": {"number": 64, "value": 127}, "group": "control_change"}, {"time": 2363, "annotation": {"number": 64, "value": 0}, "group": "control_change"}, {"time": 2367, "annotation": {"number": 64, "value": 127}, "group": "control_change"}, {"time": 2411, "annotation": {"number": 64, "value": 0}, "group": "control_change"}, {"time": 2412, "annotation": {"number": 64, "value": 127}, "group": "control_change"}, {"time": 2458, "annotation": {"number": 64, "value": 0}, "group": "control_change"}, {"time": 2461, "annotation": {"number": 64, "value": 127}, "group": "control_change"}, {"time": 2507, "annotation": {"number": 64, "value": 0}, "group": "control_change"}, {"time": 2508, "annotation": {"number": 64, "value": 127}, "group": "control_change"}, {"time": 2530, "annotation": {"number": 64, "value": 0}, "group": "control_change"}, {"time": 2534, "annotation": {"number": 64, "value": 127}, "group": "control_change"}, {"time": 2554, "annotation": {"number": 64, "value": 0}, "group": "control_change"}, {"time": 2559, "annotation": {"number": 64, "value": 127}, "group": "control_change"}, {"time": 2577, "annotation": {"number": 64, "value": 0}, "group": "control_change"}, {"time": 2581, "annotation": {"number": 64, "value": 127}, "group": "control_change"}, {"time": 2602, "annotation": {"number": 64, "value": 0}, "group": "control_change"}, {"time": 2605, "annotation": {"number": 64, "value": 127}, "group": "control_change"}, {"time": 2626, "annotation": {"number": 64, "value": 0}, "group": "control_change"}, {"time": 2629, "annotation": {"number": 64, "value": 127}, "group": "control_change"}, {"time": 2651, "annotation": {"number": 64, "value": 0}, "group": "control_change"}, {"time": 2653, "annotation": {"number": 64, "value": 127}, "group": "control_change"}, {"time": 2696, "annotation": {"number": 64, "value": 0}, "group": "control_change"}, {"time": 3469, "annotation": {"number": 64, "value": 127}, "group": "control_change"}, {"time": 3491, "annotation": {"number": 64, "value": 0}, "group": "control_change"}, {"time": 3494, "annotation": {"number": 64, "value": 127}, "group": "control_change"}, {"time": 3562, "annotation": {"number": 64, "value": 0}, "group": "control_change"}, {"time": 3566, "annotation": {"number": 64, "value": 127}, "group": "control_change"}, {"time": 3592, "annotation": {"number": 64, "value": 0}, "group": "control_change"}, {"time": 3596, "annotation": {"number": 64, "value": 127}, "group": "control_change"}, {"time": 3625, "annotation": {"number": 64, "value": 0}, "group": "control_change"}, {"time": 3628, "annotation": {"number": 64, "value": 127}, "group": "control_change"}, {"time": 3719, "annotation": {"number": 64, "value": 0}, "group": "control_change"}]}]}