{"metadata": {"schema_version": "0.2", "title": "None", "source_filename": "090.mid", "source_format": "midi"}, "resolution": 12, "tempos": [{"time": 0, "qpm": 72.00002880001152}], "key_signatures": [{"time": 0, "root": 0, "mode": "major"}], "time_signatures": [{"time": 0, "numerator": 4, "denominator": 4}, {"time": 0, "numerator": 1, "denominator": 4}], "tracks": [{"program": 0, "is_drum": false, "name": "MELODY", "notes": [{"time": 507, "pitch": 67, "duration": 6, "velocity": 107}, {"time": 513, "pitch": 74, "duration": 4, "velocity": 96}, {"time": 519, "pitch": 74, "duration": 26, "velocity": 117}, {"time": 555, "pitch": 74, "duration": 5, "velocity": 112}, {"time": 561, "pitch": 72, "duration": 5, "velocity": 102}, {"time": 567, "pitch": 72, "duration": 23, "velocity": 93}, {"time": 603, "pitch": 67, "duration": 6, "velocity": 99}, {"time": 609, "pitch": 72, "duration": 5, "velocity": 99}, {"time": 615, "pitch": 72, "duration": 27, "velocity": 102}, {"time": 663, "pitch": 77, "duration": 6, "velocity": 102}, {"time": 669, "pitch": 74, "duration": 27, "velocity": 99}, {"time": 699, "pitch": 74, "duration": 9, "velocity": 112}, {"time": 711, "pitch": 79, "duration": 25, "velocity": 122}, {"time": 747, "pitch": 79, "duration": 5, "velocity": 107}, {"time": 753, "pitch": 70, "duration": 3, "velocity": 112}, {"time": 756, "pitch": 72, "duration": 2, "velocity": 86}, {"time": 759, "pitch": 72, "duration": 29, "velocity": 100}, {"time": 795, "pitch": 72, "duration": 6, "velocity": 99}, {"time": 801, "pitch": 74, "duration": 6, "velocity": 102}, {"time": 807, "pitch": 77, "duration": 17, "velocity": 112}, {"time": 843, "pitch": 70, "duration": 3, "velocity": 122}, {"time": 849, "pitch": 70, "duration": 4, "velocity": 127}, {"time": 852, "pitch": 72, "duration": 3, "velocity": 77}, {"time": 855, "pitch": 70, "duration": 6, "velocity": 102}, {"time": 861, "pitch": 67, "duration": 18, "velocity": 95}, {"time": 891, "pitch": 67, "duration": 6, "velocity": 100}, {"time": 897, "pitch": 74, "duration": 5, "velocity": 102}, {"time": 903, "pitch": 74, "duration": 17, "velocity": 122}, {"time": 939, "pitch": 74, "duration": 6, "velocity": 122}, {"time": 945, "pitch": 72, "duration": 5, "velocity": 112}, {"time": 951, "pitch": 72, "duration": 30, "velocity": 102}, {"time": 987, "pitch": 67, "duration": 6, "velocity": 107}, {"time": 993, "pitch": 72, "duration": 5, "velocity": 99}, {"time": 999, "pitch": 72, "duration": 27, "velocity": 112}, {"time": 1035, "pitch": 77, "duration": 7, "velocity": 112}, {"time": 1041, "pitch": 79, "duration": 6, "velocity": 90}, {"time": 1047, "pitch": 77, "duration": 7, "velocity": 97}, {"time": 1053, "pitch": 74, "duration": 27, "velocity": 96}, {"time": 1083, "pitch": 74, "duration": 11, "velocity": 117}, {"time": 1095, "pitch": 79, "duration": 29, "velocity": 127}, {"time": 1131, "pitch": 79, "duration": 5, "velocity": 92}, {"time": 1137, "pitch": 70, "duration": 3, "velocity": 99}, {"time": 1140, "pitch": 72, "duration": 2, "velocity": 96}, {"time": 1143, "pitch": 72, "duration": 30, "velocity": 95}, {"time": 1179, "pitch": 72, "duration": 5, "velocity": 99}, {"time": 1185, "pitch": 74, "duration": 6, "velocity": 117}, {"time": 1191, "pitch": 77, "duration": 22, "velocity": 112}, {"time": 1227, "pitch": 72, "duration": 4, "velocity": 117}, {"time": 1233, "pitch": 72, "duration": 3, "velocity": 122}, {"time": 1236, "pitch": 74, "duration": 2, "velocity": 90}, {"time": 1239, "pitch": 70, "duration": 6, "velocity": 117}, {"time": 1245, "pitch": 67, "duration": 34, "velocity": 96}, {"time": 1287, "pitch": 74, "duration": 5, "velocity": 117}, {"time": 1293, "pitch": 74, "duration": 4, "velocity": 102}, {"time": 1299, "pitch": 74, "duration": 6, "velocity": 107}, {"time": 1305, "pitch": 82, "duration": 5, "velocity": 127}, {"time": 1311, "pitch": 79, "duration": 12, "velocity": 117}, {"time": 1329, "pitch": 77, "duration": 3, "velocity": 112}, {"time": 1332, "pitch": 79, "duration": 2, "velocity": 93}, {"time": 1335, "pitch": 79, "duration": 6, "velocity": 127}, {"time": 1341, "pitch": 77, "duration": 5, "velocity": 97}, {"time": 1347, "pitch": 72, "duration": 5, "velocity": 95}, {"time": 1353, "pitch": 79, "duration": 5, "velocity": 112}, {"time": 1359, "pitch": 77, "duration": 12, "velocity": 112}, {"time": 1383, "pitch": 72, "duration": 4, "velocity": 100}, {"time": 1389, "pitch": 72, "duration": 4, "velocity": 102}, {"time": 1395, "pitch": 72, "duration": 4, "velocity": 102}, {"time": 1401, "pitch": 74, "duration": 4, "velocity": 112}, {"time": 1407, "pitch": 72, "duration": 5, "velocity": 122}, {"time": 1413, "pitch": 70, "duration": 5, "velocity": 112}, {"time": 1419, "pitch": 67, "duration": 8, "velocity": 102}, {"time": 1431, "pitch": 70, "duration": 4, "velocity": 127}, {"time": 1437, "pitch": 67, "duration": 2, "velocity": 102}, {"time": 1440, "pitch": 67, "duration": 2, "velocity": 97}, {"time": 1443, "pitch": 79, "duration": 5, "velocity": 112}, {"time": 1449, "pitch": 77, "duration": 5, "velocity": 127}, {"time": 1455, "pitch": 74, "duration": 19, "velocity": 127}, {"time": 1479, "pitch": 74, "duration": 4, "velocity": 107}, {"time": 1485, "pitch": 74, "duration": 4, "velocity": 97}, {"time": 1491, "pitch": 74, "duration": 4, "velocity": 100}, {"time": 1497, "pitch": 82, "duration": 5, "velocity": 122}, {"time": 1503, "pitch": 79, "duration": 19, "velocity": 127}, {"time": 1521, "pitch": 77, "duration": 3, "velocity": 97}, {"time": 1524, "pitch": 79, "duration": 2, "velocity": 100}, {"time": 1527, "pitch": 82, "duration": 6, "velocity": 127}, {"time": 1536, "pitch": 79, "duration": 3, "velocity": 117}, {"time": 1539, "pitch": 77, "duration": 4, "velocity": 107}, {"time": 1545, "pitch": 72, "duration": 3, "velocity": 97}, {"time": 1548, "pitch": 77, "duration": 3, "velocity": 97}, {"time": 1551, "pitch": 74, "duration": 11, "velocity": 127}, {"time": 1575, "pitch": 72, "duration": 4, "velocity": 107}, {"time": 1581, "pitch": 72, "duration": 4, "velocity": 100}, {"time": 1587, "pitch": 72, "duration": 4, "velocity": 112}, {"time": 1593, "pitch": 74, "duration": 5, "velocity": 127}, {"time": 1599, "pitch": 79, "duration": 5, "velocity": 127}, {"time": 1605, "pitch": 77, "duration": 3, "velocity": 107}, {"time": 1608, "pitch": 74, "duration": 14, "velocity": 99}, {"time": 1623, "pitch": 77, "duration": 4, "velocity": 112}, {"time": 1629, "pitch": 77, "duration": 2, "velocity": 112}, {"time": 1632, "pitch": 79, "duration": 2, "velocity": 97}, {"time": 1635, "pitch": 81, "duration": 6, "velocity": 122}, {"time": 1641, "pitch": 77, "duration": 6, "velocity": 107}, {"time": 1647, "pitch": 79, "duration": 21, "velocity": 127}, {"time": 2115, "pitch": 67, "duration": 6, "velocity": 100}, {"time": 2121, "pitch": 74, "duration": 5, "velocity": 102}, {"time": 2127, "pitch": 74, "duration": 17, "velocity": 122}, {"time": 2163, "pitch": 74, "duration": 6, "velocity": 122}, {"time": 2169, "pitch": 72, "duration": 5, "velocity": 112}, {"time": 2175, "pitch": 72, "duration": 30, "velocity": 102}, {"time": 2211, "pitch": 67, "duration": 6, "velocity": 107}, {"time": 2217, "pitch": 72, "duration": 5, "velocity": 99}, {"time": 2223, "pitch": 72, "duration": 27, "velocity": 112}, {"time": 2259, "pitch": 77, "duration": 7, "velocity": 112}, {"time": 2265, "pitch": 79, "duration": 6, "velocity": 90}, {"time": 2271, "pitch": 77, "duration": 7, "velocity": 97}, {"time": 2277, "pitch": 74, "duration": 27, "velocity": 96}, {"time": 2307, "pitch": 74, "duration": 11, "velocity": 117}, {"time": 2319, "pitch": 79, "duration": 29, "velocity": 127}, {"time": 2355, "pitch": 79, "duration": 5, "velocity": 92}, {"time": 2361, "pitch": 70, "duration": 3, "velocity": 99}, {"time": 2364, "pitch": 72, "duration": 2, "velocity": 96}, {"time": 2367, "pitch": 72, "duration": 30, "velocity": 95}, {"time": 2403, "pitch": 72, "duration": 5, "velocity": 99}, {"time": 2409, "pitch": 74, "duration": 6, "velocity": 117}, {"time": 2415, "pitch": 77, "duration": 22, "velocity": 112}, {"time": 2451, "pitch": 72, "duration": 4, "velocity": 117}, {"time": 2457, "pitch": 72, "duration": 3, "velocity": 122}, {"time": 2460, "pitch": 74, "duration": 2, "velocity": 90}, {"time": 2463, "pitch": 70, "duration": 6, "velocity": 117}, {"time": 2469, "pitch": 67, "duration": 34, "velocity": 96}, {"time": 2511, "pitch": 74, "duration": 5, "velocity": 117}, {"time": 2517, "pitch": 74, "duration": 4, "velocity": 102}, {"time": 2523, "pitch": 74, "duration": 6, "velocity": 107}, {"time": 2529, "pitch": 82, "duration": 5, "velocity": 127}, {"time": 2535, "pitch": 79, "duration": 12, "velocity": 117}, {"time": 2553, "pitch": 77, "duration": 3, "velocity": 112}, {"time": 2556, "pitch": 79, "duration": 2, "velocity": 93}, {"time": 2559, "pitch": 79, "duration": 6, "velocity": 127}, {"time": 2565, "pitch": 77, "duration": 5, "velocity": 97}, {"time": 2571, "pitch": 72, "duration": 5, "velocity": 95}, {"time": 2577, "pitch": 79, "duration": 5, "velocity": 112}, {"time": 2583, "pitch": 77, "duration": 12, "velocity": 112}, {"time": 2607, "pitch": 72, "duration": 4, "velocity": 100}, {"time": 2613, "pitch": 72, "duration": 4, "velocity": 102}, {"time": 2619, "pitch": 72, "duration": 4, "velocity": 102}, {"time": 2625, "pitch": 74, "duration": 4, "velocity": 112}, {"time": 2631, "pitch": 72, "duration": 5, "velocity": 122}, {"time": 2637, "pitch": 70, "duration": 5, "velocity": 112}, {"time": 2643, "pitch": 67, "duration": 8, "velocity": 102}, {"time": 2655, "pitch": 70, "duration": 4, "velocity": 127}, {"time": 2661, "pitch": 67, "duration": 2, "velocity": 102}, {"time": 2664, "pitch": 67, "duration": 2, "velocity": 97}, {"time": 2667, "pitch": 79, "duration": 5, "velocity": 112}, {"time": 2673, "pitch": 77, "duration": 5, "velocity": 127}, {"time": 2679, "pitch": 74, "duration": 19, "velocity": 127}, {"time": 2703, "pitch": 74, "duration": 4, "velocity": 107}, {"time": 2709, "pitch": 74, "duration": 4, "velocity": 97}, {"time": 2715, "pitch": 74, "duration": 4, "velocity": 100}, {"time": 2721, "pitch": 82, "duration": 5, "velocity": 122}, {"time": 2727, "pitch": 79, "duration": 19, "velocity": 127}, {"time": 2745, "pitch": 77, "duration": 3, "velocity": 97}, {"time": 2748, "pitch": 79, "duration": 2, "velocity": 100}, {"time": 2751, "pitch": 82, "duration": 6, "velocity": 127}, {"time": 2760, "pitch": 79, "duration": 3, "velocity": 117}, {"time": 2763, "pitch": 77, "duration": 4, "velocity": 107}, {"time": 2769, "pitch": 72, "duration": 3, "velocity": 97}, {"time": 2772, "pitch": 77, "duration": 3, "velocity": 97}, {"time": 2775, "pitch": 74, "duration": 11, "velocity": 127}, {"time": 2799, "pitch": 72, "duration": 4, "velocity": 107}, {"time": 2805, "pitch": 72, "duration": 4, "velocity": 100}, {"time": 2811, "pitch": 72, "duration": 4, "velocity": 112}, {"time": 2817, "pitch": 74, "duration": 5, "velocity": 127}, {"time": 2823, "pitch": 79, "duration": 11, "velocity": 127}, {"time": 2835, "pitch": 74, "duration": 8, "velocity": 127}, {"time": 2847, "pitch": 77, "duration": 4, "velocity": 112}, {"time": 2853, "pitch": 77, "duration": 2, "velocity": 112}, {"time": 2856, "pitch": 79, "duration": 2, "velocity": 97}, {"time": 2859, "pitch": 81, "duration": 6, "velocity": 122}, {"time": 2865, "pitch": 77, "duration": 6, "velocity": 107}, {"time": 2871, "pitch": 79, "duration": 12, "velocity": 127}, {"time": 2919, "pitch": 74, "duration": 5, "velocity": 117}, {"time": 2925, "pitch": 74, "duration": 4, "velocity": 102}, {"time": 2931, "pitch": 74, "duration": 6, "velocity": 107}, {"time": 2937, "pitch": 82, "duration": 5, "velocity": 127}, {"time": 2943, "pitch": 79, "duration": 12, "velocity": 117}, {"time": 2961, "pitch": 77, "duration": 3, "velocity": 112}, {"time": 2964, "pitch": 79, "duration": 2, "velocity": 93}, {"time": 2967, "pitch": 79, "duration": 6, "velocity": 127}, {"time": 2973, "pitch": 77, "duration": 5, "velocity": 97}, {"time": 2979, "pitch": 72, "duration": 5, "velocity": 95}, {"time": 2985, "pitch": 79, "duration": 5, "velocity": 112}, {"time": 2991, "pitch": 77, "duration": 12, "velocity": 112}, {"time": 3015, "pitch": 72, "duration": 4, "velocity": 100}, {"time": 3021, "pitch": 72, "duration": 4, "velocity": 102}, {"time": 3027, "pitch": 72, "duration": 4, "velocity": 102}, {"time": 3033, "pitch": 74, "duration": 4, "velocity": 112}, {"time": 3039, "pitch": 72, "duration": 5, "velocity": 122}, {"time": 3045, "pitch": 70, "duration": 5, "velocity": 112}, {"time": 3051, "pitch": 67, "duration": 8, "velocity": 102}, {"time": 3063, "pitch": 70, "duration": 4, "velocity": 127}, {"time": 3069, "pitch": 67, "duration": 2, "velocity": 102}, {"time": 3072, "pitch": 67, "duration": 2, "velocity": 97}, {"time": 3075, "pitch": 79, "duration": 5, "velocity": 112}, {"time": 3081, "pitch": 77, "duration": 5, "velocity": 127}, {"time": 3087, "pitch": 74, "duration": 19, "velocity": 127}, {"time": 3111, "pitch": 74, "duration": 4, "velocity": 107}, {"time": 3117, "pitch": 74, "duration": 4, "velocity": 97}, {"time": 3123, "pitch": 74, "duration": 4, "velocity": 100}, {"time": 3129, "pitch": 82, "duration": 5, "velocity": 122}, {"time": 3135, "pitch": 79, "duration": 19, "velocity": 127}, {"time": 3153, "pitch": 77, "duration": 3, "velocity": 97}, {"time": 3156, "pitch": 79, "duration": 2, "velocity": 100}, {"time": 3159, "pitch": 82, "duration": 6, "velocity": 127}, {"time": 3168, "pitch": 79, "duration": 3, "velocity": 117}, {"time": 3171, "pitch": 77, "duration": 4, "velocity": 107}, {"time": 3177, "pitch": 72, "duration": 3, "velocity": 97}, {"time": 3180, "pitch": 77, "duration": 3, "velocity": 97}, {"time": 3183, "pitch": 74, "duration": 11, "velocity": 127}, {"time": 3207, "pitch": 72, "duration": 4, "velocity": 107}, {"time": 3213, "pitch": 72, "duration": 4, "velocity": 100}, {"time": 3219, "pitch": 72, "duration": 4, "velocity": 112}, {"time": 3225, "pitch": 74, "duration": 5, "velocity": 127}, {"time": 3231, "pitch": 79, "duration": 5, "velocity": 127}, {"time": 3237, "pitch": 77, "duration": 3, "velocity": 102}, {"time": 3240, "pitch": 74, "duration": 14, "velocity": 102}, {"time": 3255, "pitch": 77, "duration": 4, "velocity": 112}, {"time": 3261, "pitch": 77, "duration": 2, "velocity": 112}, {"time": 3264, "pitch": 79, "duration": 2, "velocity": 97}, {"time": 3267, "pitch": 81, "duration": 6, "velocity": 122}, {"time": 3273, "pitch": 77, "duration": 6, "velocity": 107}, {"time": 3279, "pitch": 79, "duration": 22, "velocity": 127}, {"time": 3303, "pitch": 72, "duration": 4, "velocity": 102}, {"time": 3309, "pitch": 72, "duration": 4, "velocity": 102}, {"time": 3315, "pitch": 72, "duration": 4, "velocity": 102}, {"time": 3321, "pitch": 74, "duration": 6, "velocity": 127}, {"time": 3327, "pitch": 79, "duration": 6, "velocity": 127}, {"time": 3333, "pitch": 77, "duration": 7, "velocity": 127}, {"time": 3339, "pitch": 74, "duration": 9, "velocity": 117}, {"time": 3351, "pitch": 77, "duration": 5, "velocity": 117}, {"time": 3357, "pitch": 77, "duration": 4, "velocity": 112}, {"time": 3360, "pitch": 79, "duration": 4, "velocity": 102}, {"time": 3365, "pitch": 81, "duration": 6, "velocity": 127}, {"time": 3372, "pitch": 77, "duration": 27, "velocity": 107}, {"time": 3399, "pitch": 79, "duration": 76, "velocity": 127}]}, {"program": 0, "is_drum": false, "name": "PIANO", "notes": [{"time": 3, "pitch": 39, "duration": 34, "velocity": 66}, {"time": 3, "pitch": 51, "duration": 35, "velocity": 67}, {"time": 3, "pitch": 67, "duration": 42, "velocity": 61}, {"time": 3, "pitch": 70, "duration": 43, "velocity": 63}, {"time": 3, "pitch": 75, "duration": 43, "velocity": 55}, {"time": 39, "pitch": 39, "duration": 12, "velocity": 97}, {"time": 45, "pitch": 51, "duration": 8, "velocity": 60}, {"time": 51, "pitch": 67, "duration": 23, "velocity": 70}, {"time": 57, "pitch": 70, "duration": 14, "velocity": 62}, {"time": 69, "pitch": 58, "duration": 9, "velocity": 36}, {"time": 72, "pitch": 51, "duration": 6, "velocity": 20}, {"time": 75, "pitch": 70, "duration": 12, "velocity": 95}, {"time": 81, "pitch": 67, "duration": 7, "velocity": 49}, {"time": 87, "pitch": 53, "duration": 34, "velocity": 85}, {"time": 93, "pitch": 60, "duration": 20, "velocity": 63}, {"time": 99, "pitch": 65, "duration": 20, "velocity": 77}, {"time": 105, "pitch": 72, "duration": 28, "velocity": 76}, {"time": 117, "pitch": 60, "duration": 4, "velocity": 43}, {"time": 123, "pitch": 69, "duration": 7, "velocity": 86}, {"time": 129, "pitch": 65, "duration": 6, "velocity": 56}, {"time": 135, "pitch": 43, "duration": 38, "velocity": 70}, {"time": 141, "pitch": 50, "duration": 33, "velocity": 56}, {"time": 147, "pitch": 67, "duration": 19, "velocity": 68}, {"time": 153, "pitch": 55, "duration": 9, "velocity": 31}, {"time": 153, "pitch": 70, "duration": 16, "velocity": 85}, {"time": 165, "pitch": 55, "duration": 12, "velocity": 65}, {"time": 171, "pitch": 70, "duration": 12, "velocity": 100}, {"time": 177, "pitch": 67, "duration": 7, "velocity": 59}, {"time": 183, "pitch": 48, "duration": 38, "velocity": 71}, {"time": 189, "pitch": 55, "duration": 17, "velocity": 63}, {"time": 195, "pitch": 60, "duration": 12, "velocity": 88}, {"time": 201, "pitch": 64, "duration": 30, "velocity": 95}, {"time": 213, "pitch": 55, "duration": 8, "velocity": 37}, {"time": 219, "pitch": 67, "duration": 12, "velocity": 86}, {"time": 225, "pitch": 72, "duration": 6, "velocity": 72}, {"time": 231, "pitch": 39, "duration": 5, "velocity": 95}, {"time": 231, "pitch": 63, "duration": 4, "velocity": 97}, {"time": 231, "pitch": 67, "duration": 4, "velocity": 99}, {"time": 231, "pitch": 70, "duration": 4, "velocity": 99}, {"time": 237, "pitch": 39, "duration": 35, "velocity": 69}, {"time": 237, "pitch": 51, "duration": 11, "velocity": 93}, {"time": 237, "pitch": 63, "duration": 15, "velocity": 107}, {"time": 237, "pitch": 67, "duration": 13, "velocity": 117}, {"time": 237, "pitch": 70, "duration": 14, "velocity": 107}, {"time": 249, "pitch": 51, "duration": 9, "velocity": 57}, {"time": 255, "pitch": 63, "duration": 6, "velocity": 102}, {"time": 255, "pitch": 67, "duration": 5, "velocity": 117}, {"time": 255, "pitch": 70, "duration": 7, "velocity": 99}, {"time": 261, "pitch": 51, "duration": 7, "velocity": 56}, {"time": 267, "pitch": 63, "duration": 5, "velocity": 89}, {"time": 267, "pitch": 67, "duration": 5, "velocity": 107}, {"time": 267, "pitch": 70, "duration": 5, "velocity": 112}, {"time": 273, "pitch": 51, "duration": 2, "velocity": 72}, {"time": 279, "pitch": 41, "duration": 43, "velocity": 79}, {"time": 279, "pitch": 60, "duration": 4, "velocity": 96}, {"time": 279, "pitch": 65, "duration": 4, "velocity": 100}, {"time": 279, "pitch": 69, "duration": 4, "velocity": 93}, {"time": 285, "pitch": 48, "duration": 8, "velocity": 68}, {"time": 285, "pitch": 60, "duration": 15, "velocity": 97}, {"time": 285, "pitch": 65, "duration": 14, "velocity": 96}, {"time": 285, "pitch": 69, "duration": 15, "velocity": 95}, {"time": 291, "pitch": 53, "duration": 15, "velocity": 79}, {"time": 297, "pitch": 48, "duration": 25, "velocity": 38}, {"time": 303, "pitch": 60, "duration": 7, "velocity": 86}, {"time": 303, "pitch": 65, "duration": 7, "velocity": 93}, {"time": 303, "pitch": 69, "duration": 7, "velocity": 90}, {"time": 309, "pitch": 53, "duration": 9, "velocity": 55}, {"time": 315, "pitch": 60, "duration": 9, "velocity": 90}, {"time": 315, "pitch": 65, "duration": 7, "velocity": 97}, {"time": 315, "pitch": 69, "duration": 6, "velocity": 93}, {"time": 321, "pitch": 53, "duration": 5, "velocity": 62}, {"time": 327, "pitch": 43, "duration": 42, "velocity": 72}, {"time": 327, "pitch": 55, "duration": 17, "velocity": 92}, {"time": 327, "pitch": 62, "duration": 3, "velocity": 90}, {"time": 327, "pitch": 67, "duration": 4, "velocity": 93}, {"time": 327, "pitch": 70, "duration": 4, "velocity": 96}, {"time": 333, "pitch": 62, "duration": 14, "velocity": 95}, {"time": 333, "pitch": 67, "duration": 14, "velocity": 99}, {"time": 333, "pitch": 70, "duration": 13, "velocity": 107}, {"time": 339, "pitch": 50, "duration": 30, "velocity": 47}, {"time": 345, "pitch": 55, "duration": 9, "velocity": 52}, {"time": 351, "pitch": 62, "duration": 8, "velocity": 99}, {"time": 351, "pitch": 67, "duration": 8, "velocity": 95}, {"time": 351, "pitch": 70, "duration": 8, "velocity": 102}, {"time": 357, "pitch": 55, "duration": 8, "velocity": 61}, {"time": 363, "pitch": 67, "duration": 6, "velocity": 100}, {"time": 363, "pitch": 70, "duration": 6, "velocity": 122}, {"time": 369, "pitch": 55, "duration": 3, "velocity": 68}, {"time": 375, "pitch": 48, "duration": 43, "velocity": 72}, {"time": 375, "pitch": 60, "duration": 3, "velocity": 96}, {"time": 375, "pitch": 64, "duration": 3, "velocity": 96}, {"time": 375, "pitch": 67, "duration": 3, "velocity": 93}, {"time": 381, "pitch": 55, "duration": 11, "velocity": 57}, {"time": 381, "pitch": 60, "duration": 15, "velocity": 93}, {"time": 381, "pitch": 64, "duration": 15, "velocity": 95}, {"time": 381, "pitch": 67, "duration": 14, "velocity": 92}, {"time": 393, "pitch": 55, "duration": 8, "velocity": 39}, {"time": 399, "pitch": 60, "duration": 9, "velocity": 85}, {"time": 399, "pitch": 64, "duration": 9, "velocity": 82}, {"time": 399, "pitch": 67, "duration": 9, "velocity": 79}, {"time": 405, "pitch": 55, "duration": 7, "velocity": 41}, {"time": 411, "pitch": 60, "duration": 6, "velocity": 89}, {"time": 411, "pitch": 64, "duration": 6, "velocity": 95}, {"time": 411, "pitch": 67, "duration": 6, "velocity": 92}, {"time": 417, "pitch": 55, "duration": 1, "velocity": 57}, {"time": 423, "pitch": 43, "duration": 47, "velocity": 70}, {"time": 423, "pitch": 62, "duration": 3, "velocity": 88}, {"time": 423, "pitch": 67, "duration": 3, "velocity": 97}, {"time": 423, "pitch": 70, "duration": 3, "velocity": 100}, {"time": 429, "pitch": 50, "duration": 43, "velocity": 62}, {"time": 429, "pitch": 62, "duration": 48, "velocity": 95}, {"time": 429, "pitch": 67, "duration": 29, "velocity": 112}, {"time": 429, "pitch": 70, "duration": 29, "velocity": 117}, {"time": 435, "pitch": 55, "duration": 26, "velocity": 60}, {"time": 459, "pitch": 70, "duration": 16, "velocity": 76}, {"time": 465, "pitch": 69, "duration": 5, "velocity": 23}, {"time": 471, "pitch": 43, "duration": 41, "velocity": 65}, {"time": 477, "pitch": 50, "duration": 40, "velocity": 45}, {"time": 483, "pitch": 67, "duration": 11, "velocity": 61}, {"time": 489, "pitch": 55, "duration": 10, "velocity": 34}, {"time": 495, "pitch": 70, "duration": 25, "velocity": 88}, {"time": 519, "pitch": 43, "duration": 38, "velocity": 83}, {"time": 525, "pitch": 50, "duration": 32, "velocity": 38}, {"time": 531, "pitch": 62, "duration": 36, "velocity": 93}, {"time": 537, "pitch": 55, "duration": 9, "velocity": 56}, {"time": 543, "pitch": 70, "duration": 24, "velocity": 95}, {"time": 567, "pitch": 48, "duration": 36, "velocity": 73}, {"time": 573, "pitch": 55, "duration": 8, "velocity": 56}, {"time": 579, "pitch": 60, "duration": 36, "velocity": 90}, {"time": 585, "pitch": 55, "duration": 15, "velocity": 36}, {"time": 591, "pitch": 63, "duration": 15, "velocity": 86}, {"time": 591, "pitch": 67, "duration": 14, "velocity": 79}, {"time": 606, "pitch": 63, "duration": 8, "velocity": 32}, {"time": 606, "pitch": 67, "duration": 5, "velocity": 35}, {"time": 615, "pitch": 41, "duration": 38, "velocity": 82}, {"time": 621, "pitch": 48, "duration": 32, "velocity": 77}, {"time": 627, "pitch": 53, "duration": 26, "velocity": 73}, {"time": 633, "pitch": 57, "duration": 21, "velocity": 78}, {"time": 633, "pitch": 60, "duration": 21, "velocity": 92}, {"time": 663, "pitch": 46, "duration": 39, "velocity": 97}, {"time": 669, "pitch": 58, "duration": 25, "velocity": 79}, {"time": 675, "pitch": 57, "duration": 7, "velocity": 64}, {"time": 681, "pitch": 62, "duration": 18, "velocity": 79}, {"time": 681, "pitch": 65, "duration": 15, "velocity": 83}, {"time": 696, "pitch": 58, "duration": 3, "velocity": 9}, {"time": 699, "pitch": 65, "duration": 13, "velocity": 90}, {"time": 705, "pitch": 62, "duration": 7, "velocity": 48}, {"time": 711, "pitch": 43, "duration": 38, "velocity": 86}, {"time": 717, "pitch": 50, "duration": 31, "velocity": 59}, {"time": 723, "pitch": 55, "duration": 7, "velocity": 64}, {"time": 729, "pitch": 58, "duration": 21, "velocity": 78}, {"time": 729, "pitch": 62, "duration": 22, "velocity": 85}, {"time": 759, "pitch": 48, "duration": 40, "velocity": 90}, {"time": 765, "pitch": 55, "duration": 32, "velocity": 70}, {"time": 771, "pitch": 60, "duration": 22, "velocity": 76}, {"time": 777, "pitch": 64, "duration": 17, "velocity": 68}, {"time": 777, "pitch": 67, "duration": 17, "velocity": 68}, {"time": 795, "pitch": 64, "duration": 11, "velocity": 93}, {"time": 795, "pitch": 67, "duration": 6, "velocity": 83}, {"time": 801, "pitch": 60, "duration": 5, "velocity": 56}, {"time": 807, "pitch": 41, "duration": 40, "velocity": 72}, {"time": 807, "pitch": 60, "duration": 11, "velocity": 69}, {"time": 807, "pitch": 65, "duration": 11, "velocity": 88}, {"time": 807, "pitch": 69, "duration": 10, "velocity": 89}, {"time": 813, "pitch": 48, "duration": 41, "velocity": 48}, {"time": 819, "pitch": 65, "duration": 11, "velocity": 65}, {"time": 819, "pitch": 69, "duration": 37, "velocity": 63}, {"time": 825, "pitch": 53, "duration": 18, "velocity": 69}, {"time": 831, "pitch": 65, "duration": 26, "velocity": 59}, {"time": 855, "pitch": 43, "duration": 46, "velocity": 89}, {"time": 861, "pitch": 50, "duration": 11, "velocity": 77}, {"time": 867, "pitch": 55, "duration": 13, "velocity": 86}, {"time": 873, "pitch": 50, "duration": 29, "velocity": 57}, {"time": 879, "pitch": 58, "duration": 24, "velocity": 71}, {"time": 879, "pitch": 62, "duration": 26, "velocity": 72}, {"time": 891, "pitch": 57, "duration": 11, "velocity": 66}, {"time": 903, "pitch": 43, "duration": 39, "velocity": 93}, {"time": 909, "pitch": 50, "duration": 9, "velocity": 76}, {"time": 915, "pitch": 55, "duration": 14, "velocity": 85}, {"time": 921, "pitch": 50, "duration": 22, "velocity": 53}, {"time": 927, "pitch": 58, "duration": 16, "velocity": 66}, {"time": 927, "pitch": 62, "duration": 17, "velocity": 69}, {"time": 951, "pitch": 48, "duration": 31, "velocity": 93}, {"time": 957, "pitch": 55, "duration": 8, "velocity": 58}, {"time": 963, "pitch": 60, "duration": 13, "velocity": 89}, {"time": 969, "pitch": 55, "duration": 13, "velocity": 51}, {"time": 975, "pitch": 63, "duration": 24, "velocity": 90}, {"time": 975, "pitch": 67, "duration": 24, "velocity": 78}, {"time": 987, "pitch": 60, "duration": 12, "velocity": 72}, {"time": 999, "pitch": 41, "duration": 39, "velocity": 75}, {"time": 1005, "pitch": 48, "duration": 8, "velocity": 61}, {"time": 1011, "pitch": 53, "duration": 15, "velocity": 88}, {"time": 1017, "pitch": 48, "duration": 9, "velocity": 45}, {"time": 1023, "pitch": 57, "duration": 17, "velocity": 72}, {"time": 1023, "pitch": 60, "duration": 13, "velocity": 63}, {"time": 1035, "pitch": 48, "duration": 5, "velocity": 60}, {"time": 1041, "pitch": 57, "duration": 6, "velocity": 59}, {"time": 1047, "pitch": 46, "duration": 36, "velocity": 107}, {"time": 1053, "pitch": 58, "duration": 9, "velocity": 83}, {"time": 1059, "pitch": 62, "duration": 11, "velocity": 93}, {"time": 1065, "pitch": 58, "duration": 8, "velocity": 48}, {"time": 1071, "pitch": 62, "duration": 13, "velocity": 85}, {"time": 1071, "pitch": 65, "duration": 11, "velocity": 95}, {"time": 1083, "pitch": 65, "duration": 12, "velocity": 90}, {"time": 1089, "pitch": 62, "duration": 7, "velocity": 95}, {"time": 1095, "pitch": 43, "duration": 36, "velocity": 81}, {"time": 1101, "pitch": 50, "duration": 9, "velocity": 55}, {"time": 1107, "pitch": 55, "duration": 14, "velocity": 92}, {"time": 1113, "pitch": 50, "duration": 8, "velocity": 45}, {"time": 1119, "pitch": 58, "duration": 24, "velocity": 96}, {"time": 1119, "pitch": 62, "duration": 24, "velocity": 88}, {"time": 1131, "pitch": 55, "duration": 11, "velocity": 86}, {"time": 1143, "pitch": 48, "duration": 33, "velocity": 93}, {"time": 1149, "pitch": 55, "duration": 8, "velocity": 43}, {"time": 1155, "pitch": 60, "duration": 13, "velocity": 89}, {"time": 1161, "pitch": 55, "duration": 10, "velocity": 32}, {"time": 1167, "pitch": 64, "duration": 25, "velocity": 78}, {"time": 1167, "pitch": 67, "duration": 24, "velocity": 86}, {"time": 1179, "pitch": 60, "duration": 13, "velocity": 81}, {"time": 1191, "pitch": 41, "duration": 39, "velocity": 77}, {"time": 1197, "pitch": 48, "duration": 8, "velocity": 59}, {"time": 1203, "pitch": 53, "duration": 17, "velocity": 76}, {"time": 1209, "pitch": 48, "duration": 10, "velocity": 44}, {"time": 1215, "pitch": 57, "duration": 25, "velocity": 78}, {"time": 1215, "pitch": 60, "duration": 25, "velocity": 89}, {"time": 1227, "pitch": 53, "duration": 11, "velocity": 76}, {"time": 1239, "pitch": 43, "duration": 25, "velocity": 95}, {"time": 1245, "pitch": 50, "duration": 9, "velocity": 58}, {"time": 1251, "pitch": 55, "duration": 11, "velocity": 83}, {"time": 1257, "pitch": 50, "duration": 10, "velocity": 69}, {"time": 1263, "pitch": 55, "duration": 1, "velocity": 33}, {"time": 1263, "pitch": 58, "duration": 2, "velocity": 122}, {"time": 1263, "pitch": 62, "duration": 3, "velocity": 96}, {"time": 1269, "pitch": 43, "duration": 11, "velocity": 79}, {"time": 1275, "pitch": 50, "duration": 4, "velocity": 62}, {"time": 1275, "pitch": 62, "duration": 5, "velocity": 100}, {"time": 1275, "pitch": 67, "duration": 5, "velocity": 117}, {"time": 1275, "pitch": 70, "duration": 5, "velocity": 122}, {"time": 1281, "pitch": 62, "duration": 4, "velocity": 99}, {"time": 1281, "pitch": 67, "duration": 3, "velocity": 99}, {"time": 1281, "pitch": 70, "duration": 5, "velocity": 112}, {"time": 1287, "pitch": 43, "duration": 21, "velocity": 95}, {"time": 1287, "pitch": 62, "duration": 6, "velocity": 127}, {"time": 1287, "pitch": 67, "duration": 6, "velocity": 107}, {"time": 1287, "pitch": 70, "duration": 6, "velocity": 127}, {"time": 1293, "pitch": 50, "duration": 8, "velocity": 72}, {"time": 1299, "pitch": 62, "duration": 6, "velocity": 100}, {"time": 1299, "pitch": 67, "duration": 4, "velocity": 122}, {"time": 1299, "pitch": 70, "duration": 6, "velocity": 122}, {"time": 1308, "pitch": 50, "duration": 2, "velocity": 78}, {"time": 1311, "pitch": 39, "duration": 17, "velocity": 122}, {"time": 1311, "pitch": 63, "duration": 4, "velocity": 102}, {"time": 1311, "pitch": 67, "duration": 2, "velocity": 112}, {"time": 1311, "pitch": 70, "duration": 3, "velocity": 99}, {"time": 1317, "pitch": 51, "duration": 7, "velocity": 96}, {"time": 1323, "pitch": 63, "duration": 3, "velocity": 127}, {"time": 1323, "pitch": 67, "duration": 6, "velocity": 127}, {"time": 1323, "pitch": 70, "duration": 7, "velocity": 127}, {"time": 1326, "pitch": 51, "duration": 2, "velocity": 107}, {"time": 1329, "pitch": 63, "duration": 1, "velocity": 102}, {"time": 1335, "pitch": 41, "duration": 19, "velocity": 86}, {"time": 1335, "pitch": 60, "duration": 8, "velocity": 117}, {"time": 1335, "pitch": 65, "duration": 10, "velocity": 112}, {"time": 1335, "pitch": 69, "duration": 8, "velocity": 96}, {"time": 1341, "pitch": 48, "duration": 8, "velocity": 79}, {"time": 1344, "pitch": 69, "duration": 1, "velocity": 30}, {"time": 1347, "pitch": 65, "duration": 7, "velocity": 122}, {"time": 1347, "pitch": 69, "duration": 7, "velocity": 117}, {"time": 1350, "pitch": 48, "duration": 4, "velocity": 92}, {"time": 1353, "pitch": 60, "duration": 2, "velocity": 100}, {"time": 1359, "pitch": 46, "duration": 17, "velocity": 122}, {"time": 1359, "pitch": 58, "duration": 7, "velocity": 117}, {"time": 1359, "pitch": 62, "duration": 6, "velocity": 112}, {"time": 1359, "pitch": 65, "duration": 5, "velocity": 122}, {"time": 1365, "pitch": 50, "duration": 11, "velocity": 63}, {"time": 1365, "pitch": 53, "duration": 7, "velocity": 50}, {"time": 1371, "pitch": 62, "duration": 6, "velocity": 127}, {"time": 1371, "pitch": 65, "duration": 6, "velocity": 102}, {"time": 1374, "pitch": 53, "duration": 3, "velocity": 99}, {"time": 1377, "pitch": 58, "duration": 1, "velocity": 127}, {"time": 1383, "pitch": 48, "duration": 41, "velocity": 93}, {"time": 1383, "pitch": 55, "duration": 14, "velocity": 107}, {"time": 1383, "pitch": 60, "duration": 6, "velocity": 122}, {"time": 1383, "pitch": 64, "duration": 6, "velocity": 112}, {"time": 1383, "pitch": 67, "duration": 6, "velocity": 112}, {"time": 1389, "pitch": 52, "duration": 34, "velocity": 58}, {"time": 1395, "pitch": 60, "duration": 10, "velocity": 117}, {"time": 1395, "pitch": 64, "duration": 10, "velocity": 127}, {"time": 1395, "pitch": 67, "duration": 10, "velocity": 122}, {"time": 1404, "pitch": 55, "duration": 4, "velocity": 95}, {"time": 1407, "pitch": 60, "duration": 7, "velocity": 102}, {"time": 1407, "pitch": 64, "duration": 7, "velocity": 117}, {"time": 1407, "pitch": 67, "duration": 7, "velocity": 112}, {"time": 1413, "pitch": 55, "duration": 6, "velocity": 97}, {"time": 1419, "pitch": 64, "duration": 5, "velocity": 127}, {"time": 1419, "pitch": 67, "duration": 6, "velocity": 127}, {"time": 1422, "pitch": 55, "duration": 3, "velocity": 112}, {"time": 1425, "pitch": 60, "duration": 1, "velocity": 102}, {"time": 1431, "pitch": 51, "duration": 11, "velocity": 127}, {"time": 1431, "pitch": 63, "duration": 4, "velocity": 127}, {"time": 1431, "pitch": 67, "duration": 4, "velocity": 117}, {"time": 1431, "pitch": 70, "duration": 5, "velocity": 127}, {"time": 1443, "pitch": 53, "duration": 4, "velocity": 112}, {"time": 1443, "pitch": 60, "duration": 4, "velocity": 107}, {"time": 1443, "pitch": 65, "duration": 4, "velocity": 112}, {"time": 1443, "pitch": 69, "duration": 4, "velocity": 112}, {"time": 1455, "pitch": 46, "duration": 17, "velocity": 97}, {"time": 1455, "pitch": 53, "duration": 12, "velocity": 85}, {"time": 1455, "pitch": 58, "duration": 6, "velocity": 127}, {"time": 1455, "pitch": 62, "duration": 6, "velocity": 102}, {"time": 1455, "pitch": 65, "duration": 6, "velocity": 95}, {"time": 1461, "pitch": 50, "duration": 11, "velocity": 72}, {"time": 1467, "pitch": 62, "duration": 7, "velocity": 127}, {"time": 1470, "pitch": 53, "duration": 3, "velocity": 102}, {"time": 1473, "pitch": 58, "duration": 5, "velocity": 127}, {"time": 1479, "pitch": 43, "duration": 21, "velocity": 97}, {"time": 1479, "pitch": 55, "duration": 6, "velocity": 112}, {"time": 1479, "pitch": 58, "duration": 6, "velocity": 127}, {"time": 1479, "pitch": 62, "duration": 6, "velocity": 107}, {"time": 1485, "pitch": 50, "duration": 7, "velocity": 86}, {"time": 1491, "pitch": 58, "duration": 8, "velocity": 127}, {"time": 1491, "pitch": 62, "duration": 6, "velocity": 117}, {"time": 1500, "pitch": 50, "duration": 2, "velocity": 72}, {"time": 1503, "pitch": 51, "duration": 11, "velocity": 107}, {"time": 1503, "pitch": 55, "duration": 1, "velocity": 74}, {"time": 1503, "pitch": 58, "duration": 4, "velocity": 127}, {"time": 1503, "pitch": 63, "duration": 4, "velocity": 122}, {"time": 1509, "pitch": 58, "duration": 9, "velocity": 127}, {"time": 1509, "pitch": 63, "duration": 9, "velocity": 127}, {"time": 1515, "pitch": 51, "duration": 2, "velocity": 127}, {"time": 1521, "pitch": 58, "duration": 3, "velocity": 127}, {"time": 1521, "pitch": 63, "duration": 3, "velocity": 127}, {"time": 1524, "pitch": 55, "duration": 2, "velocity": 89}, {"time": 1527, "pitch": 41, "duration": 16, "velocity": 89}, {"time": 1527, "pitch": 57, "duration": 7, "velocity": 127}, {"time": 1527, "pitch": 60, "duration": 7, "velocity": 102}, {"time": 1533, "pitch": 48, "duration": 8, "velocity": 70}, {"time": 1539, "pitch": 57, "duration": 6, "velocity": 127}, {"time": 1539, "pitch": 60, "duration": 6, "velocity": 122}, {"time": 1542, "pitch": 48, "duration": 2, "velocity": 89}, {"time": 1545, "pitch": 53, "duration": 1, "velocity": 83}, {"time": 1551, "pitch": 46, "duration": 19, "velocity": 93}, {"time": 1551, "pitch": 53, "duration": 13, "velocity": 78}, {"time": 1551, "pitch": 58, "duration": 8, "velocity": 127}, {"time": 1551, "pitch": 62, "duration": 8, "velocity": 100}, {"time": 1551, "pitch": 65, "duration": 8, "velocity": 92}, {"time": 1557, "pitch": 50, "duration": 11, "velocity": 55}, {"time": 1563, "pitch": 58, "duration": 4, "velocity": 127}, {"time": 1563, "pitch": 62, "duration": 5, "velocity": 127}, {"time": 1563, "pitch": 65, "duration": 5, "velocity": 107}, {"time": 1566, "pitch": 53, "duration": 3, "velocity": 107}, {"time": 1569, "pitch": 58, "duration": 3, "velocity": 127}, {"time": 1569, "pitch": 62, "duration": 2, "velocity": 68}, {"time": 1572, "pitch": 55, "duration": 1, "velocity": 59}, {"time": 1575, "pitch": 48, "duration": 17, "velocity": 112}, {"time": 1575, "pitch": 55, "duration": 10, "velocity": 96}, {"time": 1575, "pitch": 60, "duration": 10, "velocity": 97}, {"time": 1575, "pitch": 64, "duration": 10, "velocity": 95}, {"time": 1587, "pitch": 55, "duration": 10, "velocity": 112}, {"time": 1587, "pitch": 60, "duration": 10, "velocity": 112}, {"time": 1587, "pitch": 64, "duration": 10, "velocity": 100}, {"time": 1596, "pitch": 48, "duration": 4, "velocity": 102}, {"time": 1599, "pitch": 39, "duration": 17, "velocity": 67}, {"time": 1599, "pitch": 51, "duration": 13, "velocity": 86}, {"time": 1599, "pitch": 58, "duration": 7, "velocity": 102}, {"time": 1599, "pitch": 63, "duration": 7, "velocity": 127}, {"time": 1599, "pitch": 67, "duration": 6, "velocity": 92}, {"time": 1611, "pitch": 58, "duration": 1, "velocity": 89}, {"time": 1611, "pitch": 63, "duration": 7, "velocity": 127}, {"time": 1611, "pitch": 67, "duration": 7, "velocity": 102}, {"time": 1614, "pitch": 51, "duration": 3, "velocity": 107}, {"time": 1617, "pitch": 58, "duration": 2, "velocity": 99}, {"time": 1623, "pitch": 41, "duration": 19, "velocity": 76}, {"time": 1623, "pitch": 60, "duration": 9, "velocity": 122}, {"time": 1623, "pitch": 65, "duration": 10, "velocity": 127}, {"time": 1623, "pitch": 69, "duration": 10, "velocity": 117}, {"time": 1635, "pitch": 60, "duration": 7, "velocity": 100}, {"time": 1635, "pitch": 65, "duration": 6, "velocity": 122}, {"time": 1635, "pitch": 69, "duration": 6, "velocity": 117}, {"time": 1641, "pitch": 48, "duration": 5, "velocity": 83}, {"time": 1647, "pitch": 67, "duration": 7, "velocity": 97}, {"time": 1647, "pitch": 43, "duration": 21, "velocity": 100}, {"time": 1647, "pitch": 58, "duration": 7, "velocity": 127}, {"time": 1647, "pitch": 62, "duration": 7, "velocity": 107}, {"time": 1653, "pitch": 50, "duration": 15, "velocity": 63}, {"time": 1659, "pitch": 67, "duration": 5, "velocity": 99}, {"time": 1659, "pitch": 62, "duration": 12, "velocity": 112}, {"time": 1662, "pitch": 55, "duration": 5, "velocity": 107}, {"time": 1665, "pitch": 67, "duration": 6, "velocity": 42}, {"time": 1665, "pitch": 58, "duration": 6, "velocity": 127}, {"time": 1671, "pitch": 43, "duration": 21, "velocity": 96}, {"time": 1671, "pitch": 55, "duration": 13, "velocity": 93}, {"time": 1677, "pitch": 67, "duration": 2, "velocity": 79}, {"time": 1677, "pitch": 70, "duration": 2, "velocity": 96}, {"time": 1677, "pitch": 74, "duration": 2, "velocity": 72}, {"time": 1680, "pitch": 50, "duration": 12, "velocity": 51}, {"time": 1683, "pitch": 67, "duration": 2, "velocity": 102}, {"time": 1683, "pitch": 70, "duration": 6, "velocity": 127}, {"time": 1683, "pitch": 74, "duration": 7, "velocity": 122}, {"time": 1686, "pitch": 55, "duration": 3, "velocity": 97}, {"time": 1689, "pitch": 67, "duration": 5, "velocity": 89}, {"time": 1695, "pitch": 39, "duration": 41, "velocity": 107}, {"time": 1695, "pitch": 51, "duration": 8, "velocity": 92}, {"time": 1695, "pitch": 63, "duration": 3, "velocity": 100}, {"time": 1695, "pitch": 67, "duration": 2, "velocity": 102}, {"time": 1695, "pitch": 70, "duration": 2, "velocity": 102}, {"time": 1701, "pitch": 63, "duration": 15, "velocity": 102}, {"time": 1701, "pitch": 67, "duration": 12, "velocity": 112}, {"time": 1701, "pitch": 70, "duration": 13, "velocity": 117}, {"time": 1707, "pitch": 51, "duration": 15, "velocity": 97}, {"time": 1719, "pitch": 63, "duration": 7, "velocity": 100}, {"time": 1719, "pitch": 67, "duration": 6, "velocity": 127}, {"time": 1719, "pitch": 70, "duration": 7, "velocity": 107}, {"time": 1725, "pitch": 51, "duration": 8, "velocity": 72}, {"time": 1731, "pitch": 67, "duration": 10, "velocity": 122}, {"time": 1731, "pitch": 70, "duration": 4, "velocity": 122}, {"time": 1734, "pitch": 51, "duration": 2, "velocity": 59}, {"time": 1743, "pitch": 41, "duration": 43, "velocity": 88}, {"time": 1743, "pitch": 65, "duration": 2, "velocity": 97}, {"time": 1743, "pitch": 69, "duration": 3, "velocity": 112}, {"time": 1743, "pitch": 72, "duration": 3, "velocity": 102}, {"time": 1749, "pitch": 48, "duration": 8, "velocity": 65}, {"time": 1749, "pitch": 65, "duration": 13, "velocity": 99}, {"time": 1749, "pitch": 69, "duration": 13, "velocity": 117}, {"time": 1749, "pitch": 72, "duration": 13, "velocity": 117}, {"time": 1755, "pitch": 53, "duration": 12, "velocity": 88}, {"time": 1761, "pitch": 48, "duration": 24, "velocity": 49}, {"time": 1767, "pitch": 65, "duration": 7, "velocity": 52}, {"time": 1767, "pitch": 69, "duration": 8, "velocity": 52}, {"time": 1767, "pitch": 72, "duration": 8, "velocity": 55}, {"time": 1773, "pitch": 53, "duration": 9, "velocity": 53}, {"time": 1779, "pitch": 65, "duration": 5, "velocity": 96}, {"time": 1779, "pitch": 69, "duration": 5, "velocity": 112}, {"time": 1779, "pitch": 72, "duration": 5, "velocity": 107}, {"time": 1785, "pitch": 53, "duration": 2, "velocity": 66}, {"time": 1791, "pitch": 43, "duration": 42, "velocity": 52}, {"time": 1791, "pitch": 50, "duration": 17, "velocity": 67}, {"time": 1791, "pitch": 55, "duration": 10, "velocity": 96}, {"time": 1791, "pitch": 62, "duration": 2, "velocity": 100}, {"time": 1791, "pitch": 67, "duration": 2, "velocity": 96}, {"time": 1791, "pitch": 71, "duration": 3, "velocity": 95}, {"time": 1797, "pitch": 62, "duration": 14, "velocity": 102}, {"time": 1797, "pitch": 67, "duration": 15, "velocity": 112}, {"time": 1797, "pitch": 71, "duration": 13, "velocity": 96}, {"time": 1803, "pitch": 55, "duration": 17, "velocity": 63}, {"time": 1809, "pitch": 50, "duration": 25, "velocity": 35}, {"time": 1815, "pitch": 62, "duration": 10, "velocity": 85}, {"time": 1815, "pitch": 67, "duration": 10, "velocity": 88}, {"time": 1815, "pitch": 71, "duration": 10, "velocity": 75}, {"time": 1821, "pitch": 55, "duration": 9, "velocity": 41}, {"time": 1827, "pitch": 67, "duration": 5, "velocity": 117}, {"time": 1827, "pitch": 71, "duration": 6, "velocity": 102}, {"time": 1833, "pitch": 55, "duration": 4, "velocity": 58}, {"time": 1839, "pitch": 48, "duration": 40, "velocity": 75}, {"time": 1839, "pitch": 60, "duration": 2, "velocity": 93}, {"time": 1839, "pitch": 63, "duration": 3, "velocity": 117}, {"time": 1839, "pitch": 67, "duration": 2, "velocity": 89}, {"time": 1845, "pitch": 60, "duration": 15, "velocity": 100}, {"time": 1845, "pitch": 63, "duration": 15, "velocity": 127}, {"time": 1845, "pitch": 67, "duration": 14, "velocity": 96}, {"time": 1851, "pitch": 55, "duration": 15, "velocity": 64}, {"time": 1863, "pitch": 60, "duration": 10, "velocity": 96}, {"time": 1863, "pitch": 63, "duration": 10, "velocity": 122}, {"time": 1863, "pitch": 67, "duration": 10, "velocity": 89}, {"time": 1869, "pitch": 55, "duration": 7, "velocity": 43}, {"time": 1875, "pitch": 63, "duration": 3, "velocity": 127}, {"time": 1875, "pitch": 67, "duration": 4, "velocity": 96}, {"time": 1887, "pitch": 39, "duration": 2, "velocity": 82}, {"time": 1887, "pitch": 51, "duration": 2, "velocity": 86}, {"time": 1887, "pitch": 63, "duration": 2, "velocity": 99}, {"time": 1887, "pitch": 67, "duration": 1, "velocity": 100}, {"time": 1887, "pitch": 70, "duration": 2, "velocity": 122}, {"time": 1893, "pitch": 39, "duration": 35, "velocity": 82}, {"time": 1893, "pitch": 51, "duration": 11, "velocity": 93}, {"time": 1893, "pitch": 63, "duration": 14, "velocity": 112}, {"time": 1893, "pitch": 67, "duration": 11, "velocity": 122}, {"time": 1893, "pitch": 70, "duration": 13, "velocity": 127}, {"time": 1905, "pitch": 51, "duration": 10, "velocity": 55}, {"time": 1911, "pitch": 63, "duration": 7, "velocity": 99}, {"time": 1911, "pitch": 67, "duration": 6, "velocity": 112}, {"time": 1911, "pitch": 70, "duration": 7, "velocity": 107}, {"time": 1917, "pitch": 51, "duration": 7, "velocity": 61}, {"time": 1923, "pitch": 63, "duration": 4, "velocity": 99}, {"time": 1923, "pitch": 67, "duration": 4, "velocity": 127}, {"time": 1923, "pitch": 70, "duration": 4, "velocity": 127}, {"time": 1929, "pitch": 51, "duration": 2, "velocity": 76}, {"time": 1935, "pitch": 41, "duration": 42, "velocity": 72}, {"time": 1935, "pitch": 60, "duration": 2, "velocity": 95}, {"time": 1935, "pitch": 65, "duration": 2, "velocity": 99}, {"time": 1935, "pitch": 69, "duration": 2, "velocity": 96}, {"time": 1941, "pitch": 60, "duration": 14, "velocity": 107}, {"time": 1941, "pitch": 65, "duration": 13, "velocity": 102}, {"time": 1941, "pitch": 69, "duration": 13, "velocity": 99}, {"time": 1947, "pitch": 48, "duration": 27, "velocity": 59}, {"time": 1953, "pitch": 53, "duration": 9, "velocity": 53}, {"time": 1959, "pitch": 60, "duration": 7, "velocity": 92}, {"time": 1959, "pitch": 65, "duration": 7, "velocity": 95}, {"time": 1959, "pitch": 69, "duration": 7, "velocity": 88}, {"time": 1965, "pitch": 53, "duration": 7, "velocity": 55}, {"time": 1971, "pitch": 65, "duration": 6, "velocity": 112}, {"time": 1971, "pitch": 69, "duration": 7, "velocity": 102}, {"time": 1983, "pitch": 38, "duration": 3, "velocity": 75}, {"time": 1983, "pitch": 50, "duration": 3, "velocity": 88}, {"time": 1983, "pitch": 62, "duration": 2, "velocity": 93}, {"time": 1983, "pitch": 65, "duration": 2, "velocity": 95}, {"time": 1983, "pitch": 69, "duration": 2, "velocity": 95}, {"time": 1989, "pitch": 38, "duration": 36, "velocity": 72}, {"time": 1989, "pitch": 50, "duration": 22, "velocity": 95}, {"time": 1989, "pitch": 62, "duration": 15, "velocity": 90}, {"time": 1989, "pitch": 65, "duration": 16, "velocity": 99}, {"time": 1989, "pitch": 69, "duration": 15, "velocity": 93}, {"time": 2001, "pitch": 45, "duration": 24, "velocity": 36}, {"time": 2007, "pitch": 62, "duration": 7, "velocity": 93}, {"time": 2007, "pitch": 65, "duration": 9, "velocity": 86}, {"time": 2007, "pitch": 69, "duration": 9, "velocity": 77}, {"time": 2013, "pitch": 50, "duration": 9, "velocity": 55}, {"time": 2019, "pitch": 65, "duration": 9, "velocity": 107}, {"time": 2019, "pitch": 69, "duration": 6, "velocity": 102}, {"time": 2025, "pitch": 50, "duration": 6, "velocity": 63}, {"time": 2031, "pitch": 43, "duration": 43, "velocity": 86}, {"time": 2031, "pitch": 62, "duration": 2, "velocity": 95}, {"time": 2031, "pitch": 67, "duration": 2, "velocity": 99}, {"time": 2031, "pitch": 70, "duration": 2, "velocity": 117}, {"time": 2037, "pitch": 50, "duration": 8, "velocity": 58}, {"time": 2037, "pitch": 62, "duration": 16, "velocity": 95}, {"time": 2037, "pitch": 67, "duration": 17, "velocity": 102}, {"time": 2037, "pitch": 70, "duration": 16, "velocity": 122}, {"time": 2043, "pitch": 55, "duration": 9, "velocity": 71}, {"time": 2049, "pitch": 50, "duration": 20, "velocity": 37}, {"time": 2055, "pitch": 62, "duration": 6, "velocity": 63}, {"time": 2055, "pitch": 67, "duration": 6, "velocity": 57}, {"time": 2055, "pitch": 70, "duration": 9, "velocity": 58}, {"time": 2061, "pitch": 55, "duration": 7, "velocity": 58}, {"time": 2067, "pitch": 69, "duration": 6, "velocity": 122}, {"time": 2070, "pitch": 50, "duration": 9, "velocity": 38}, {"time": 2073, "pitch": 70, "duration": 11, "velocity": 90}, {"time": 2079, "pitch": 43, "duration": 50, "velocity": 81}, {"time": 2079, "pitch": 62, "duration": 3, "velocity": 66}, {"time": 2079, "pitch": 67, "duration": 3, "velocity": 44}, {"time": 2085, "pitch": 50, "duration": 11, "velocity": 44}, {"time": 2091, "pitch": 58, "duration": 22, "velocity": 82}, {"time": 2091, "pitch": 62, "duration": 22, "velocity": 69}, {"time": 2097, "pitch": 50, "duration": 30, "velocity": 52}, {"time": 2103, "pitch": 55, "duration": 12, "velocity": 68}, {"time": 2115, "pitch": 62, "duration": 14, "velocity": 96}, {"time": 2121, "pitch": 58, "duration": 7, "velocity": 88}, {"time": 2127, "pitch": 43, "duration": 2, "velocity": 93}, {"time": 2133, "pitch": 50, "duration": 9, "velocity": 76}, {"time": 2139, "pitch": 55, "duration": 14, "velocity": 85}, {"time": 2145, "pitch": 50, "duration": 22, "velocity": 53}, {"time": 2151, "pitch": 58, "duration": 16, "velocity": 66}, {"time": 2151, "pitch": 62, "duration": 17, "velocity": 69}, {"time": 2175, "pitch": 48, "duration": 31, "velocity": 93}, {"time": 2181, "pitch": 55, "duration": 8, "velocity": 58}, {"time": 2187, "pitch": 60, "duration": 13, "velocity": 89}, {"time": 2193, "pitch": 55, "duration": 13, "velocity": 51}, {"time": 2199, "pitch": 63, "duration": 24, "velocity": 90}, {"time": 2199, "pitch": 67, "duration": 24, "velocity": 78}, {"time": 2211, "pitch": 60, "duration": 12, "velocity": 72}, {"time": 2223, "pitch": 41, "duration": 39, "velocity": 75}, {"time": 2229, "pitch": 48, "duration": 8, "velocity": 61}, {"time": 2235, "pitch": 53, "duration": 15, "velocity": 88}, {"time": 2241, "pitch": 48, "duration": 9, "velocity": 45}, {"time": 2247, "pitch": 57, "duration": 17, "velocity": 72}, {"time": 2247, "pitch": 60, "duration": 13, "velocity": 63}, {"time": 2259, "pitch": 48, "duration": 5, "velocity": 60}, {"time": 2265, "pitch": 57, "duration": 6, "velocity": 59}, {"time": 2271, "pitch": 46, "duration": 36, "velocity": 107}, {"time": 2277, "pitch": 58, "duration": 9, "velocity": 83}, {"time": 2283, "pitch": 62, "duration": 11, "velocity": 93}, {"time": 2289, "pitch": 58, "duration": 8, "velocity": 48}, {"time": 2295, "pitch": 62, "duration": 13, "velocity": 85}, {"time": 2295, "pitch": 65, "duration": 11, "velocity": 95}, {"time": 2307, "pitch": 65, "duration": 12, "velocity": 90}, {"time": 2313, "pitch": 62, "duration": 7, "velocity": 95}, {"time": 2319, "pitch": 43, "duration": 36, "velocity": 81}, {"time": 2325, "pitch": 50, "duration": 9, "velocity": 55}, {"time": 2331, "pitch": 55, "duration": 14, "velocity": 92}, {"time": 2337, "pitch": 50, "duration": 8, "velocity": 45}, {"time": 2343, "pitch": 58, "duration": 24, "velocity": 96}, {"time": 2343, "pitch": 62, "duration": 24, "velocity": 88}, {"time": 2355, "pitch": 55, "duration": 11, "velocity": 86}, {"time": 2367, "pitch": 48, "duration": 33, "velocity": 93}, {"time": 2373, "pitch": 55, "duration": 8, "velocity": 43}, {"time": 2379, "pitch": 60, "duration": 13, "velocity": 89}, {"time": 2385, "pitch": 55, "duration": 10, "velocity": 32}, {"time": 2391, "pitch": 64, "duration": 25, "velocity": 78}, {"time": 2391, "pitch": 67, "duration": 24, "velocity": 86}, {"time": 2403, "pitch": 60, "duration": 13, "velocity": 81}, {"time": 2415, "pitch": 41, "duration": 39, "velocity": 77}, {"time": 2421, "pitch": 48, "duration": 8, "velocity": 59}, {"time": 2427, "pitch": 53, "duration": 17, "velocity": 76}, {"time": 2433, "pitch": 48, "duration": 10, "velocity": 44}, {"time": 2439, "pitch": 57, "duration": 25, "velocity": 78}, {"time": 2439, "pitch": 60, "duration": 25, "velocity": 89}, {"time": 2451, "pitch": 53, "duration": 11, "velocity": 76}, {"time": 2463, "pitch": 43, "duration": 25, "velocity": 95}, {"time": 2469, "pitch": 50, "duration": 9, "velocity": 58}, {"time": 2475, "pitch": 55, "duration": 11, "velocity": 83}, {"time": 2481, "pitch": 50, "duration": 10, "velocity": 69}, {"time": 2487, "pitch": 55, "duration": 1, "velocity": 33}, {"time": 2487, "pitch": 58, "duration": 2, "velocity": 122}, {"time": 2487, "pitch": 62, "duration": 3, "velocity": 96}, {"time": 2493, "pitch": 43, "duration": 11, "velocity": 79}, {"time": 2499, "pitch": 50, "duration": 4, "velocity": 62}, {"time": 2499, "pitch": 62, "duration": 5, "velocity": 100}, {"time": 2499, "pitch": 67, "duration": 5, "velocity": 117}, {"time": 2499, "pitch": 70, "duration": 5, "velocity": 122}, {"time": 2505, "pitch": 62, "duration": 4, "velocity": 99}, {"time": 2505, "pitch": 67, "duration": 3, "velocity": 99}, {"time": 2505, "pitch": 70, "duration": 5, "velocity": 112}, {"time": 2511, "pitch": 43, "duration": 21, "velocity": 95}, {"time": 2511, "pitch": 62, "duration": 6, "velocity": 127}, {"time": 2511, "pitch": 67, "duration": 6, "velocity": 107}, {"time": 2511, "pitch": 70, "duration": 6, "velocity": 127}, {"time": 2517, "pitch": 50, "duration": 8, "velocity": 72}, {"time": 2523, "pitch": 62, "duration": 6, "velocity": 100}, {"time": 2523, "pitch": 67, "duration": 4, "velocity": 122}, {"time": 2523, "pitch": 70, "duration": 6, "velocity": 122}, {"time": 2532, "pitch": 50, "duration": 2, "velocity": 78}, {"time": 2535, "pitch": 39, "duration": 17, "velocity": 122}, {"time": 2535, "pitch": 63, "duration": 4, "velocity": 102}, {"time": 2535, "pitch": 67, "duration": 2, "velocity": 112}, {"time": 2535, "pitch": 70, "duration": 3, "velocity": 99}, {"time": 2541, "pitch": 51, "duration": 7, "velocity": 96}, {"time": 2547, "pitch": 63, "duration": 3, "velocity": 127}, {"time": 2547, "pitch": 67, "duration": 6, "velocity": 127}, {"time": 2547, "pitch": 70, "duration": 7, "velocity": 127}, {"time": 2550, "pitch": 51, "duration": 2, "velocity": 107}, {"time": 2553, "pitch": 63, "duration": 1, "velocity": 102}, {"time": 2559, "pitch": 41, "duration": 19, "velocity": 86}, {"time": 2559, "pitch": 60, "duration": 8, "velocity": 117}, {"time": 2559, "pitch": 65, "duration": 10, "velocity": 112}, {"time": 2559, "pitch": 69, "duration": 8, "velocity": 96}, {"time": 2565, "pitch": 48, "duration": 8, "velocity": 79}, {"time": 2568, "pitch": 69, "duration": 1, "velocity": 30}, {"time": 2571, "pitch": 65, "duration": 7, "velocity": 122}, {"time": 2571, "pitch": 69, "duration": 7, "velocity": 117}, {"time": 2574, "pitch": 48, "duration": 4, "velocity": 92}, {"time": 2577, "pitch": 60, "duration": 2, "velocity": 100}, {"time": 2583, "pitch": 46, "duration": 17, "velocity": 122}, {"time": 2583, "pitch": 58, "duration": 7, "velocity": 117}, {"time": 2583, "pitch": 62, "duration": 6, "velocity": 112}, {"time": 2583, "pitch": 65, "duration": 5, "velocity": 122}, {"time": 2589, "pitch": 50, "duration": 11, "velocity": 63}, {"time": 2589, "pitch": 53, "duration": 7, "velocity": 50}, {"time": 2595, "pitch": 62, "duration": 6, "velocity": 127}, {"time": 2595, "pitch": 65, "duration": 6, "velocity": 102}, {"time": 2598, "pitch": 53, "duration": 3, "velocity": 99}, {"time": 2601, "pitch": 58, "duration": 1, "velocity": 127}, {"time": 2607, "pitch": 48, "duration": 41, "velocity": 93}, {"time": 2607, "pitch": 55, "duration": 14, "velocity": 107}, {"time": 2607, "pitch": 60, "duration": 6, "velocity": 122}, {"time": 2607, "pitch": 64, "duration": 6, "velocity": 112}, {"time": 2607, "pitch": 67, "duration": 6, "velocity": 112}, {"time": 2613, "pitch": 52, "duration": 34, "velocity": 58}, {"time": 2619, "pitch": 60, "duration": 10, "velocity": 117}, {"time": 2619, "pitch": 64, "duration": 10, "velocity": 127}, {"time": 2619, "pitch": 67, "duration": 10, "velocity": 122}, {"time": 2628, "pitch": 55, "duration": 4, "velocity": 95}, {"time": 2631, "pitch": 60, "duration": 7, "velocity": 102}, {"time": 2631, "pitch": 64, "duration": 7, "velocity": 117}, {"time": 2631, "pitch": 67, "duration": 7, "velocity": 112}, {"time": 2637, "pitch": 55, "duration": 6, "velocity": 97}, {"time": 2643, "pitch": 64, "duration": 5, "velocity": 127}, {"time": 2643, "pitch": 67, "duration": 6, "velocity": 127}, {"time": 2646, "pitch": 55, "duration": 3, "velocity": 112}, {"time": 2649, "pitch": 60, "duration": 1, "velocity": 102}, {"time": 2655, "pitch": 51, "duration": 11, "velocity": 127}, {"time": 2655, "pitch": 63, "duration": 4, "velocity": 127}, {"time": 2655, "pitch": 67, "duration": 4, "velocity": 117}, {"time": 2655, "pitch": 70, "duration": 5, "velocity": 127}, {"time": 2667, "pitch": 53, "duration": 4, "velocity": 112}, {"time": 2667, "pitch": 60, "duration": 4, "velocity": 107}, {"time": 2667, "pitch": 65, "duration": 4, "velocity": 112}, {"time": 2667, "pitch": 69, "duration": 4, "velocity": 112}, {"time": 2679, "pitch": 46, "duration": 17, "velocity": 97}, {"time": 2679, "pitch": 53, "duration": 12, "velocity": 85}, {"time": 2679, "pitch": 58, "duration": 6, "velocity": 127}, {"time": 2679, "pitch": 62, "duration": 6, "velocity": 102}, {"time": 2679, "pitch": 65, "duration": 6, "velocity": 95}, {"time": 2685, "pitch": 50, "duration": 11, "velocity": 72}, {"time": 2691, "pitch": 62, "duration": 7, "velocity": 127}, {"time": 2694, "pitch": 53, "duration": 3, "velocity": 102}, {"time": 2697, "pitch": 58, "duration": 5, "velocity": 127}, {"time": 2703, "pitch": 43, "duration": 21, "velocity": 97}, {"time": 2703, "pitch": 55, "duration": 6, "velocity": 112}, {"time": 2703, "pitch": 58, "duration": 6, "velocity": 127}, {"time": 2703, "pitch": 62, "duration": 6, "velocity": 107}, {"time": 2709, "pitch": 50, "duration": 7, "velocity": 86}, {"time": 2715, "pitch": 58, "duration": 8, "velocity": 127}, {"time": 2715, "pitch": 62, "duration": 6, "velocity": 117}, {"time": 2724, "pitch": 50, "duration": 2, "velocity": 72}, {"time": 2727, "pitch": 51, "duration": 11, "velocity": 107}, {"time": 2727, "pitch": 55, "duration": 1, "velocity": 74}, {"time": 2727, "pitch": 58, "duration": 4, "velocity": 127}, {"time": 2727, "pitch": 63, "duration": 4, "velocity": 122}, {"time": 2733, "pitch": 58, "duration": 9, "velocity": 127}, {"time": 2733, "pitch": 63, "duration": 9, "velocity": 127}, {"time": 2739, "pitch": 51, "duration": 2, "velocity": 127}, {"time": 2745, "pitch": 58, "duration": 3, "velocity": 127}, {"time": 2745, "pitch": 63, "duration": 3, "velocity": 127}, {"time": 2748, "pitch": 55, "duration": 2, "velocity": 89}, {"time": 2751, "pitch": 41, "duration": 16, "velocity": 89}, {"time": 2751, "pitch": 57, "duration": 7, "velocity": 127}, {"time": 2751, "pitch": 60, "duration": 7, "velocity": 102}, {"time": 2757, "pitch": 48, "duration": 8, "velocity": 70}, {"time": 2763, "pitch": 57, "duration": 6, "velocity": 127}, {"time": 2763, "pitch": 60, "duration": 6, "velocity": 122}, {"time": 2766, "pitch": 48, "duration": 2, "velocity": 89}, {"time": 2769, "pitch": 53, "duration": 1, "velocity": 83}, {"time": 2775, "pitch": 46, "duration": 19, "velocity": 93}, {"time": 2775, "pitch": 53, "duration": 13, "velocity": 78}, {"time": 2775, "pitch": 58, "duration": 8, "velocity": 127}, {"time": 2775, "pitch": 62, "duration": 8, "velocity": 100}, {"time": 2775, "pitch": 65, "duration": 8, "velocity": 92}, {"time": 2781, "pitch": 50, "duration": 11, "velocity": 55}, {"time": 2787, "pitch": 58, "duration": 4, "velocity": 127}, {"time": 2787, "pitch": 62, "duration": 5, "velocity": 127}, {"time": 2787, "pitch": 65, "duration": 5, "velocity": 107}, {"time": 2790, "pitch": 53, "duration": 3, "velocity": 107}, {"time": 2793, "pitch": 58, "duration": 3, "velocity": 127}, {"time": 2793, "pitch": 62, "duration": 2, "velocity": 68}, {"time": 2796, "pitch": 55, "duration": 1, "velocity": 59}, {"time": 2799, "pitch": 48, "duration": 17, "velocity": 112}, {"time": 2799, "pitch": 55, "duration": 10, "velocity": 96}, {"time": 2799, "pitch": 60, "duration": 10, "velocity": 97}, {"time": 2799, "pitch": 64, "duration": 10, "velocity": 95}, {"time": 2811, "pitch": 55, "duration": 10, "velocity": 112}, {"time": 2811, "pitch": 60, "duration": 10, "velocity": 112}, {"time": 2811, "pitch": 64, "duration": 10, "velocity": 100}, {"time": 2820, "pitch": 48, "duration": 4, "velocity": 102}, {"time": 2823, "pitch": 39, "duration": 17, "velocity": 67}, {"time": 2823, "pitch": 51, "duration": 13, "velocity": 86}, {"time": 2823, "pitch": 58, "duration": 7, "velocity": 102}, {"time": 2823, "pitch": 63, "duration": 7, "velocity": 127}, {"time": 2823, "pitch": 67, "duration": 6, "velocity": 92}, {"time": 2835, "pitch": 58, "duration": 1, "velocity": 89}, {"time": 2835, "pitch": 63, "duration": 7, "velocity": 127}, {"time": 2835, "pitch": 67, "duration": 7, "velocity": 102}, {"time": 2838, "pitch": 51, "duration": 3, "velocity": 107}, {"time": 2841, "pitch": 58, "duration": 2, "velocity": 99}, {"time": 2847, "pitch": 41, "duration": 19, "velocity": 76}, {"time": 2847, "pitch": 60, "duration": 9, "velocity": 122}, {"time": 2847, "pitch": 65, "duration": 10, "velocity": 127}, {"time": 2847, "pitch": 69, "duration": 10, "velocity": 117}, {"time": 2859, "pitch": 60, "duration": 7, "velocity": 100}, {"time": 2859, "pitch": 65, "duration": 6, "velocity": 122}, {"time": 2859, "pitch": 69, "duration": 6, "velocity": 117}, {"time": 2865, "pitch": 48, "duration": 5, "velocity": 83}, {"time": 2871, "pitch": 43, "duration": 49, "velocity": 88}, {"time": 2871, "pitch": 58, "duration": 7, "velocity": 127}, {"time": 2871, "pitch": 62, "duration": 2, "velocity": 102}, {"time": 2871, "pitch": 62, "duration": 2, "velocity": 107}, {"time": 2871, "pitch": 67, "duration": 2, "velocity": 117}, {"time": 2871, "pitch": 70, "duration": 3, "velocity": 117}, {"time": 2877, "pitch": 50, "duration": 8, "velocity": 49}, {"time": 2877, "pitch": 50, "duration": 8, "velocity": 63}, {"time": 2880, "pitch": 67, "duration": 2, "velocity": 64}, {"time": 2880, "pitch": 79, "duration": 1, "velocity": 72}, {"time": 2883, "pitch": 55, "duration": 8, "velocity": 92}, {"time": 2883, "pitch": 62, "duration": 12, "velocity": 112}, {"time": 2883, "pitch": 67, "duration": 2, "velocity": 117}, {"time": 2883, "pitch": 79, "duration": 2, "velocity": 99}, {"time": 2889, "pitch": 50, "duration": 3, "velocity": 48}, {"time": 2889, "pitch": 58, "duration": 6, "velocity": 127}, {"time": 2892, "pitch": 69, "duration": 2, "velocity": 89}, {"time": 2892, "pitch": 81, "duration": 1, "velocity": 79}, {"time": 2895, "pitch": 55, "duration": 7, "velocity": 92}, {"time": 2895, "pitch": 69, "duration": 2, "velocity": 112}, {"time": 2895, "pitch": 81, "duration": 2, "velocity": 96}, {"time": 2901, "pitch": 50, "duration": 19, "velocity": 39}, {"time": 2904, "pitch": 70, "duration": 2, "velocity": 99}, {"time": 2904, "pitch": 82, "duration": 1, "velocity": 89}, {"time": 2907, "pitch": 70, "duration": 2, "velocity": 127}, {"time": 2907, "pitch": 82, "duration": 1, "velocity": 83}, {"time": 2910, "pitch": 55, "duration": 3, "velocity": 107}, {"time": 2913, "pitch": 69, "duration": 6, "velocity": 122}, {"time": 2919, "pitch": 43, "duration": 1, "velocity": 86}, {"time": 2919, "pitch": 55, "duration": 4, "velocity": 102}, {"time": 2919, "pitch": 58, "duration": 4, "velocity": 122}, {"time": 2919, "pitch": 62, "duration": 4, "velocity": 97}, {"time": 2925, "pitch": 50, "duration": 8, "velocity": 64}, {"time": 2925, "pitch": 55, "duration": 10, "velocity": 102}, {"time": 2925, "pitch": 58, "duration": 12, "velocity": 127}, {"time": 2925, "pitch": 62, "duration": 12, "velocity": 99}, {"time": 2943, "pitch": 39, "duration": 3, "velocity": 88}, {"time": 2943, "pitch": 51, "duration": 3, "velocity": 95}, {"time": 2943, "pitch": 55, "duration": 2, "velocity": 93}, {"time": 2943, "pitch": 58, "duration": 2, "velocity": 127}, {"time": 2943, "pitch": 63, "duration": 2, "velocity": 117}, {"time": 2949, "pitch": 39, "duration": 10, "velocity": 93}, {"time": 2949, "pitch": 51, "duration": 11, "velocity": 107}, {"time": 2949, "pitch": 55, "duration": 5, "velocity": 90}, {"time": 2949, "pitch": 58, "duration": 5, "velocity": 122}, {"time": 2949, "pitch": 63, "duration": 5, "velocity": 100}, {"time": 2955, "pitch": 55, "duration": 8, "velocity": 112}, {"time": 2955, "pitch": 58, "duration": 7, "velocity": 127}, {"time": 2955, "pitch": 63, "duration": 7, "velocity": 127}, {"time": 2964, "pitch": 60, "duration": 1, "velocity": 40}, {"time": 2967, "pitch": 41, "duration": 13, "velocity": 89}, {"time": 2967, "pitch": 53, "duration": 7, "velocity": 107}, {"time": 2967, "pitch": 57, "duration": 7, "velocity": 112}, {"time": 2967, "pitch": 60, "duration": 7, "velocity": 107}, {"time": 2973, "pitch": 48, "duration": 7, "velocity": 63}, {"time": 2979, "pitch": 57, "duration": 2, "velocity": 112}, {"time": 2979, "pitch": 60, "duration": 2, "velocity": 117}, {"time": 2991, "pitch": 46, "duration": 2, "velocity": 95}, {"time": 2991, "pitch": 53, "duration": 2, "velocity": 85}, {"time": 2991, "pitch": 58, "duration": 2, "velocity": 127}, {"time": 2991, "pitch": 62, "duration": 2, "velocity": 99}, {"time": 2991, "pitch": 65, "duration": 2, "velocity": 90}, {"time": 2997, "pitch": 46, "duration": 12, "velocity": 117}, {"time": 2997, "pitch": 53, "duration": 10, "velocity": 100}, {"time": 2997, "pitch": 58, "duration": 15, "velocity": 127}, {"time": 2997, "pitch": 62, "duration": 14, "velocity": 100}, {"time": 2997, "pitch": 65, "duration": 13, "velocity": 93}, {"time": 3015, "pitch": 48, "duration": 14, "velocity": 107}, {"time": 3015, "pitch": 55, "duration": 10, "velocity": 117}, {"time": 3015, "pitch": 60, "duration": 10, "velocity": 127}, {"time": 3015, "pitch": 64, "duration": 10, "velocity": 122}, {"time": 3027, "pitch": 55, "duration": 2, "velocity": 107}, {"time": 3027, "pitch": 60, "duration": 2, "velocity": 117}, {"time": 3027, "pitch": 64, "duration": 2, "velocity": 100}, {"time": 3036, "pitch": 55, "duration": 2, "velocity": 81}, {"time": 3039, "pitch": 48, "duration": 2, "velocity": 117}, {"time": 3039, "pitch": 55, "duration": 2, "velocity": 73}, {"time": 3039, "pitch": 60, "duration": 2, "velocity": 107}, {"time": 3039, "pitch": 64, "duration": 2, "velocity": 99}, {"time": 3045, "pitch": 48, "duration": 10, "velocity": 127}, {"time": 3045, "pitch": 55, "duration": 9, "velocity": 99}, {"time": 3045, "pitch": 60, "duration": 10, "velocity": 117}, {"time": 3045, "pitch": 64, "duration": 10, "velocity": 99}, {"time": 3057, "pitch": 55, "duration": 1, "velocity": 102}, {"time": 3057, "pitch": 60, "duration": 1, "velocity": 97}, {"time": 3057, "pitch": 64, "duration": 1, "velocity": 83}, {"time": 3063, "pitch": 39, "duration": 6, "velocity": 100}, {"time": 3063, "pitch": 51, "duration": 6, "velocity": 100}, {"time": 3063, "pitch": 55, "duration": 7, "velocity": 100}, {"time": 3063, "pitch": 58, "duration": 6, "velocity": 122}, {"time": 3063, "pitch": 63, "duration": 7, "velocity": 122}, {"time": 3075, "pitch": 41, "duration": 6, "velocity": 99}, {"time": 3075, "pitch": 53, "duration": 7, "velocity": 107}, {"time": 3075, "pitch": 57, "duration": 6, "velocity": 117}, {"time": 3075, "pitch": 60, "duration": 6, "velocity": 117}, {"time": 3087, "pitch": 46, "duration": 19, "velocity": 92}, {"time": 3087, "pitch": 58, "duration": 7, "velocity": 127}, {"time": 3087, "pitch": 62, "duration": 7, "velocity": 100}, {"time": 3087, "pitch": 65, "duration": 6, "velocity": 96}, {"time": 3093, "pitch": 50, "duration": 13, "velocity": 48}, {"time": 3099, "pitch": 58, "duration": 4, "velocity": 127}, {"time": 3099, "pitch": 62, "duration": 4, "velocity": 96}, {"time": 3099, "pitch": 65, "duration": 4, "velocity": 92}, {"time": 3105, "pitch": 53, "duration": 2, "velocity": 70}, {"time": 3111, "pitch": 43, "duration": 22, "velocity": 76}, {"time": 3111, "pitch": 55, "duration": 5, "velocity": 112}, {"time": 3111, "pitch": 58, "duration": 5, "velocity": 127}, {"time": 3111, "pitch": 62, "duration": 5, "velocity": 107}, {"time": 3117, "pitch": 50, "duration": 8, "velocity": 66}, {"time": 3123, "pitch": 55, "duration": 2, "velocity": 100}, {"time": 3123, "pitch": 58, "duration": 2, "velocity": 127}, {"time": 3123, "pitch": 62, "duration": 2, "velocity": 96}, {"time": 3132, "pitch": 50, "duration": 4, "velocity": 78}, {"time": 3135, "pitch": 43, "duration": 21, "velocity": 92}, {"time": 3135, "pitch": 55, "duration": 2, "velocity": 93}, {"time": 3135, "pitch": 58, "duration": 2, "velocity": 117}, {"time": 3135, "pitch": 62, "duration": 2, "velocity": 90}, {"time": 3141, "pitch": 55, "duration": 7, "velocity": 102}, {"time": 3141, "pitch": 58, "duration": 7, "velocity": 127}, {"time": 3141, "pitch": 62, "duration": 9, "velocity": 100}, {"time": 3147, "pitch": 50, "duration": 8, "velocity": 99}, {"time": 3153, "pitch": 58, "duration": 4, "velocity": 127}, {"time": 3153, "pitch": 62, "duration": 5, "velocity": 117}, {"time": 3156, "pitch": 55, "duration": 3, "velocity": 88}, {"time": 3159, "pitch": 39, "duration": 4, "velocity": 117}, {"time": 3159, "pitch": 51, "duration": 5, "velocity": 107}, {"time": 3159, "pitch": 55, "duration": 4, "velocity": 117}, {"time": 3159, "pitch": 58, "duration": 5, "velocity": 107}, {"time": 3171, "pitch": 41, "duration": 4, "velocity": 99}, {"time": 3171, "pitch": 53, "duration": 5, "velocity": 107}, {"time": 3171, "pitch": 57, "duration": 5, "velocity": 117}, {"time": 3171, "pitch": 60, "duration": 5, "velocity": 107}, {"time": 3183, "pitch": 46, "duration": 8, "velocity": 117}, {"time": 3183, "pitch": 53, "duration": 2, "velocity": 90}, {"time": 3183, "pitch": 58, "duration": 2, "velocity": 112}, {"time": 3183, "pitch": 62, "duration": 2, "velocity": 95}, {"time": 3186, "pitch": 53, "duration": 5, "velocity": 90}, {"time": 3186, "pitch": 58, "duration": 7, "velocity": 117}, {"time": 3186, "pitch": 62, "duration": 4, "velocity": 90}, {"time": 3192, "pitch": 46, "duration": 6, "velocity": 112}, {"time": 3195, "pitch": 53, "duration": 10, "velocity": 99}, {"time": 3195, "pitch": 58, "duration": 10, "velocity": 127}, {"time": 3195, "pitch": 62, "duration": 7, "velocity": 107}, {"time": 3201, "pitch": 46, "duration": 5, "velocity": 127}, {"time": 3207, "pitch": 48, "duration": 16, "velocity": 122}, {"time": 3207, "pitch": 55, "duration": 11, "velocity": 112}, {"time": 3207, "pitch": 60, "duration": 11, "velocity": 117}, {"time": 3207, "pitch": 64, "duration": 11, "velocity": 122}, {"time": 3219, "pitch": 55, "duration": 9, "velocity": 107}, {"time": 3219, "pitch": 60, "duration": 9, "velocity": 127}, {"time": 3219, "pitch": 64, "duration": 9, "velocity": 117}, {"time": 3228, "pitch": 48, "duration": 3, "velocity": 59}, {"time": 3231, "pitch": 39, "duration": 17, "velocity": 102}, {"time": 3231, "pitch": 51, "duration": 13, "velocity": 95}, {"time": 3231, "pitch": 58, "duration": 7, "velocity": 117}, {"time": 3231, "pitch": 63, "duration": 7, "velocity": 122}, {"time": 3231, "pitch": 67, "duration": 6, "velocity": 97}, {"time": 3243, "pitch": 58, "duration": 1, "velocity": 86}, {"time": 3243, "pitch": 63, "duration": 6, "velocity": 127}, {"time": 3243, "pitch": 67, "duration": 6, "velocity": 107}, {"time": 3246, "pitch": 51, "duration": 3, "velocity": 99}, {"time": 3249, "pitch": 58, "duration": 1, "velocity": 112}, {"time": 3255, "pitch": 41, "duration": 18, "velocity": 83}, {"time": 3255, "pitch": 53, "duration": 6, "velocity": 112}, {"time": 3255, "pitch": 57, "duration": 6, "velocity": 122}, {"time": 3255, "pitch": 60, "duration": 7, "velocity": 112}, {"time": 3261, "pitch": 48, "duration": 6, "velocity": 58}, {"time": 3267, "pitch": 57, "duration": 6, "velocity": 122}, {"time": 3267, "pitch": 60, "duration": 7, "velocity": 127}, {"time": 3270, "pitch": 48, "duration": 4, "velocity": 100}, {"time": 3273, "pitch": 53, "duration": 2, "velocity": 102}, {"time": 3279, "pitch": 43, "duration": 23, "velocity": 81}, {"time": 3279, "pitch": 55, "duration": 7, "velocity": 117}, {"time": 3279, "pitch": 58, "duration": 8, "velocity": 127}, {"time": 3279, "pitch": 62, "duration": 7, "velocity": 100}, {"time": 3285, "pitch": 50, "duration": 7, "velocity": 86}, {"time": 3291, "pitch": 58, "duration": 4, "velocity": 127}, {"time": 3291, "pitch": 62, "duration": 4, "velocity": 117}, {"time": 3294, "pitch": 50, "duration": 9, "velocity": 117}, {"time": 3297, "pitch": 58, "duration": 6, "velocity": 127}, {"time": 3297, "pitch": 62, "duration": 6, "velocity": 122}, {"time": 3300, "pitch": 55, "duration": 3, "velocity": 95}, {"time": 3303, "pitch": 39, "duration": 16, "velocity": 97}, {"time": 3303, "pitch": 51, "duration": 13, "velocity": 86}, {"time": 3303, "pitch": 58, "duration": 7, "velocity": 112}, {"time": 3303, "pitch": 63, "duration": 10, "velocity": 112}, {"time": 3303, "pitch": 67, "duration": 6, "velocity": 90}, {"time": 3315, "pitch": 58, "duration": 1, "velocity": 71}, {"time": 3315, "pitch": 63, "duration": 6, "velocity": 127}, {"time": 3315, "pitch": 67, "duration": 6, "velocity": 99}, {"time": 3318, "pitch": 51, "duration": 2, "velocity": 112}, {"time": 3321, "pitch": 58, "duration": 1, "velocity": 127}, {"time": 3327, "pitch": 41, "duration": 21, "velocity": 76}, {"time": 3327, "pitch": 53, "duration": 9, "velocity": 97}, {"time": 3327, "pitch": 57, "duration": 10, "velocity": 97}, {"time": 3327, "pitch": 60, "duration": 10, "velocity": 97}, {"time": 3333, "pitch": 48, "duration": 6, "velocity": 49}, {"time": 3339, "pitch": 57, "duration": 11, "velocity": 122}, {"time": 3339, "pitch": 60, "duration": 11, "velocity": 127}, {"time": 3342, "pitch": 48, "duration": 5, "velocity": 96}, {"time": 3345, "pitch": 53, "duration": 6, "velocity": 97}, {"time": 3351, "pitch": 38, "duration": 38, "velocity": 60}, {"time": 3351, "pitch": 45, "duration": 38, "velocity": 71}, {"time": 3351, "pitch": 50, "duration": 34, "velocity": 78}, {"time": 3351, "pitch": 62, "duration": 38, "velocity": 100}, {"time": 3351, "pitch": 65, "duration": 39, "velocity": 97}, {"time": 3351, "pitch": 69, "duration": 38, "velocity": 95}, {"time": 3399, "pitch": 43, "duration": 41, "velocity": 99}, {"time": 3399, "pitch": 62, "duration": 11, "velocity": 96}, {"time": 3399, "pitch": 67, "duration": 11, "velocity": 99}, {"time": 3399, "pitch": 70, "duration": 11, "velocity": 112}, {"time": 3405, "pitch": 50, "duration": 32, "velocity": 64}, {"time": 3411, "pitch": 62, "duration": 8, "velocity": 75}, {"time": 3411, "pitch": 67, "duration": 10, "velocity": 95}, {"time": 3411, "pitch": 70, "duration": 11, "velocity": 107}, {"time": 3417, "pitch": 55, "duration": 10, "velocity": 73}, {"time": 3423, "pitch": 62, "duration": 7, "velocity": 72}, {"time": 3423, "pitch": 67, "duration": 10, "velocity": 75}, {"time": 3423, "pitch": 70, "duration": 10, "velocity": 72}, {"time": 3429, "pitch": 55, "duration": 4, "velocity": 57}, {"time": 3435, "pitch": 67, "duration": 10, "velocity": 112}, {"time": 3435, "pitch": 70, "duration": 7, "velocity": 127}, {"time": 3438, "pitch": 50, "duration": 2, "velocity": 53}, {"time": 3447, "pitch": 39, "duration": 34, "velocity": 107}, {"time": 3447, "pitch": 63, "duration": 7, "velocity": 73}, {"time": 3447, "pitch": 67, "duration": 4, "velocity": 59}, {"time": 3447, "pitch": 70, "duration": 8, "velocity": 73}, {"time": 3453, "pitch": 51, "duration": 8, "velocity": 64}, {"time": 3459, "pitch": 63, "duration": 10, "velocity": 82}, {"time": 3459, "pitch": 67, "duration": 7, "velocity": 79}, {"time": 3459, "pitch": 70, "duration": 8, "velocity": 69}, {"time": 3459, "pitch": 74, "duration": 7, "velocity": 64}, {"time": 3465, "pitch": 51, "duration": 9, "velocity": 37}, {"time": 3471, "pitch": 63, "duration": 7, "velocity": 41}, {"time": 3471, "pitch": 67, "duration": 6, "velocity": 53}, {"time": 3471, "pitch": 74, "duration": 5, "velocity": 31}, {"time": 3474, "pitch": 70, "duration": 4, "velocity": 19}, {"time": 3477, "pitch": 51, "duration": 5, "velocity": 54}, {"time": 3483, "pitch": 63, "duration": 6, "velocity": 97}, {"time": 3483, "pitch": 67, "duration": 6, "velocity": 107}, {"time": 3483, "pitch": 74, "duration": 5, "velocity": 78}, {"time": 3495, "pitch": 43, "duration": 81, "velocity": 62}, {"time": 3495, "pitch": 50, "duration": 81, "velocity": 73}, {"time": 3495, "pitch": 55, "duration": 81, "velocity": 92}, {"time": 3495, "pitch": 62, "duration": 81, "velocity": 102}, {"time": 3495, "pitch": 67, "duration": 81, "velocity": 100}, {"time": 3495, "pitch": 71, "duration": 81, "velocity": 95}], "annotations": [{"time": 3, "annotation": {"number": 64, "value": 127}, "group": "control_change"}, {"time": 38, "annotation": {"number": 64, "value": 0}, "group": "control_change"}, {"time": 39, "annotation": {"number": 64, "value": 127}, "group": "control_change"}, {"time": 85, "annotation": {"number": 64, "value": 0}, "group": "control_change"}, {"time": 87, "annotation": {"number": 64, "value": 127}, "group": "control_change"}, {"time": 133, "annotation": {"number": 64, "value": 0}, "group": "control_change"}, {"time": 136, "annotation": {"number": 64, "value": 127}, "group": "control_change"}, {"time": 182, "annotation": {"number": 64, "value": 0}, "group": "control_change"}, {"time": 183, "annotation": {"number": 64, "value": 127}, "group": "control_change"}, {"time": 229, "annotation": {"number": 64, "value": 0}, "group": "control_change"}, {"time": 231, "annotation": {"number": 64, "value": 127}, "group": "control_change"}, {"time": 232, "annotation": {"number": 64, "value": 127}, "group": "control_change"}, {"time": 242, "annotation": {"number": 64, "value": 0}, "group": "control_change"}, {"time": 244, "annotation": {"number": 64, "value": 127}, "group": "control_change"}, {"time": 277, "annotation": {"number": 64, "value": 0}, "group": "control_change"}, {"time": 280, "annotation": {"number": 64, "value": 127}, "group": "control_change"}, {"time": 326, "annotation": {"number": 64, "value": 0}, "group": "control_change"}, {"time": 327, "annotation": {"number": 64, "value": 127}, "group": "control_change"}, {"time": 373, "annotation": {"number": 64, "value": 0}, "group": "control_change"}, {"time": 375, "annotation": {"number": 64, "value": 127}, "group": "control_change"}, {"time": 421, "annotation": {"number": 64, "value": 0}, "group": "control_change"}, {"time": 424, "annotation": {"number": 64, "value": 127}, "group": "control_change"}, {"time": 470, "annotation": {"number": 64, "value": 0}, "group": "control_change"}, {"time": 472, "annotation": {"number": 64, "value": 127}, "group": "control_change"}, {"time": 517, "annotation": {"number": 64, "value": 0}, "group": "control_change"}, {"time": 519, "annotation": {"number": 64, "value": 127}, "group": "control_change"}, {"time": 565, "annotation": {"number": 64, "value": 0}, "group": "control_change"}, {"time": 567, "annotation": {"number": 64, "value": 127}, "group": "control_change"}, {"time": 614, "annotation": {"number": 64, "value": 0}, "group": "control_change"}, {"time": 615, "annotation": {"number": 64, "value": 127}, "group": "control_change"}, {"time": 661, "annotation": {"number": 64, "value": 0}, "group": "control_change"}, {"time": 663, "annotation": {"number": 64, "value": 127}, "group": "control_change"}, {"time": 709, "annotation": {"number": 64, "value": 0}, "group": "control_change"}, {"time": 711, "annotation": {"number": 64, "value": 127}, "group": "control_change"}, {"time": 758, "annotation": {"number": 64, "value": 0}, "group": "control_change"}, {"time": 760, "annotation": {"number": 64, "value": 127}, "group": "control_change"}, {"time": 805, "annotation": {"number": 64, "value": 0}, "group": "control_change"}, {"time": 808, "annotation": {"number": 64, "value": 127}, "group": "control_change"}, {"time": 852, "annotation": {"number": 64, "value": 0}, "group": "control_change"}, {"time": 856, "annotation": {"number": 64, "value": 127}, "group": "control_change"}, {"time": 900, "annotation": {"number": 64, "value": 0}, "group": "control_change"}, {"time": 904, "annotation": {"number": 64, "value": 127}, "group": "control_change"}, {"time": 947, "annotation": {"number": 64, "value": 0}, "group": "control_change"}, {"time": 952, "annotation": {"number": 64, "value": 127}, "group": "control_change"}, {"time": 972, "annotation": {"number": 64, "value": 0}, "group": "control_change"}, {"time": 975, "annotation": {"number": 64, "value": 127}, "group": "control_change"}, {"time": 997, "annotation": {"number": 64, "value": 0}, "group": "control_change"}, {"time": 1000, "annotation": {"number": 64, "value": 127}, "group": "control_change"}, {"time": 1046, "annotation": {"number": 64, "value": 0}, "group": "control_change"}, {"time": 1049, "annotation": {"number": 64, "value": 127}, "group": "control_change"}, {"time": 1093, "annotation": {"number": 64, "value": 0}, "group": "control_change"}, {"time": 1096, "annotation": {"number": 64, "value": 127}, "group": "control_change"}, {"time": 1141, "annotation": {"number": 64, "value": 0}, "group": "control_change"}, {"time": 1145, "annotation": {"number": 64, "value": 127}, "group": "control_change"}, {"time": 1189, "annotation": {"number": 64, "value": 0}, "group": "control_change"}, {"time": 1192, "annotation": {"number": 64, "value": 127}, "group": "control_change"}, {"time": 1237, "annotation": {"number": 64, "value": 0}, "group": "control_change"}, {"time": 1240, "annotation": {"number": 64, "value": 127}, "group": "control_change"}, {"time": 1286, "annotation": {"number": 64, "value": 0}, "group": "control_change"}, {"time": 1287, "annotation": {"number": 64, "value": 127}, "group": "control_change"}, {"time": 1309, "annotation": {"number": 64, "value": 0}, "group": "control_change"}, {"time": 1311, "annotation": {"number": 64, "value": 127}, "group": "control_change"}, {"time": 1334, "annotation": {"number": 64, "value": 0}, "group": "control_change"}, {"time": 1335, "annotation": {"number": 64, "value": 127}, "group": "control_change"}, {"time": 1358, "annotation": {"number": 64, "value": 0}, "group": "control_change"}, {"time": 1359, "annotation": {"number": 64, "value": 127}, "group": "control_change"}, {"time": 1381, "annotation": {"number": 64, "value": 0}, "group": "control_change"}, {"time": 1383, "annotation": {"number": 64, "value": 127}, "group": "control_change"}, {"time": 1406, "annotation": {"number": 64, "value": 0}, "group": "control_change"}, {"time": 1407, "annotation": {"number": 64, "value": 127}, "group": "control_change"}, {"time": 1429, "annotation": {"number": 64, "value": 0}, "group": "control_change"}, {"time": 1431, "annotation": {"number": 64, "value": 127}, "group": "control_change"}, {"time": 1441, "annotation": {"number": 64, "value": 0}, "group": "control_change"}, {"time": 1443, "annotation": {"number": 64, "value": 127}, "group": "control_change"}, {"time": 1453, "annotation": {"number": 64, "value": 0}, "group": "control_change"}, {"time": 1455, "annotation": {"number": 64, "value": 127}, "group": "control_change"}, {"time": 1477, "annotation": {"number": 64, "value": 0}, "group": "control_change"}, {"time": 1480, "annotation": {"number": 64, "value": 127}, "group": "control_change"}, {"time": 1501, "annotation": {"number": 64, "value": 0}, "group": "control_change"}, {"time": 1503, "annotation": {"number": 64, "value": 127}, "group": "control_change"}, {"time": 1525, "annotation": {"number": 64, "value": 0}, "group": "control_change"}, {"time": 1527, "annotation": {"number": 64, "value": 127}, "group": "control_change"}, {"time": 1549, "annotation": {"number": 64, "value": 0}, "group": "control_change"}, {"time": 1551, "annotation": {"number": 64, "value": 127}, "group": "control_change"}, {"time": 1573, "annotation": {"number": 64, "value": 0}, "group": "control_change"}, {"time": 1575, "annotation": {"number": 64, "value": 127}, "group": "control_change"}, {"time": 1596, "annotation": {"number": 64, "value": 0}, "group": "control_change"}, {"time": 1599, "annotation": {"number": 64, "value": 127}, "group": "control_change"}, {"time": 1620, "annotation": {"number": 64, "value": 0}, "group": "control_change"}, {"time": 1647, "annotation": {"number": 64, "value": 127}, "group": "control_change"}, {"time": 1667, "annotation": {"number": 64, "value": 0}, "group": "control_change"}, {"time": 1672, "annotation": {"number": 64, "value": 127}, "group": "control_change"}, {"time": 1693, "annotation": {"number": 64, "value": 0}, "group": "control_change"}, {"time": 1695, "annotation": {"number": 64, "value": 127}, "group": "control_change"}, {"time": 1741, "annotation": {"number": 64, "value": 0}, "group": "control_change"}, {"time": 1744, "annotation": {"number": 64, "value": 127}, "group": "control_change"}, {"time": 1788, "annotation": {"number": 64, "value": 0}, "group": "control_change"}, {"time": 1792, "annotation": {"number": 64, "value": 127}, "group": "control_change"}, {"time": 1837, "annotation": {"number": 64, "value": 0}, "group": "control_change"}, {"time": 1840, "annotation": {"number": 64, "value": 127}, "group": "control_change"}, {"time": 1885, "annotation": {"number": 64, "value": 0}, "group": "control_change"}, {"time": 1888, "annotation": {"number": 64, "value": 127}, "group": "control_change"}, {"time": 1933, "annotation": {"number": 64, "value": 0}, "group": "control_change"}, {"time": 1936, "annotation": {"number": 64, "value": 127}, "group": "control_change"}, {"time": 1980, "annotation": {"number": 64, "value": 0}, "group": "control_change"}, {"time": 1984, "annotation": {"number": 64, "value": 127}, "group": "control_change"}, {"time": 1988, "annotation": {"number": 64, "value": 0}, "group": "control_change"}, {"time": 1996, "annotation": {"number": 64, "value": 127}, "group": "control_change"}, {"time": 2028, "annotation": {"number": 64, "value": 0}, "group": "control_change"}, {"time": 2032, "annotation": {"number": 64, "value": 127}, "group": "control_change"}, {"time": 2077, "annotation": {"number": 64, "value": 0}, "group": "control_change"}, {"time": 2080, "annotation": {"number": 64, "value": 127}, "group": "control_change"}, {"time": 2127, "annotation": {"number": 64, "value": 0}, "group": "control_change"}, {"time": 2128, "annotation": {"number": 64, "value": 127}, "group": "control_change"}, {"time": 2171, "annotation": {"number": 64, "value": 0}, "group": "control_change"}, {"time": 2176, "annotation": {"number": 64, "value": 127}, "group": "control_change"}, {"time": 2196, "annotation": {"number": 64, "value": 0}, "group": "control_change"}, {"time": 2199, "annotation": {"number": 64, "value": 127}, "group": "control_change"}, {"time": 2221, "annotation": {"number": 64, "value": 0}, "group": "control_change"}, {"time": 2224, "annotation": {"number": 64, "value": 127}, "group": "control_change"}, {"time": 2270, "annotation": {"number": 64, "value": 0}, "group": "control_change"}, {"time": 2273, "annotation": {"number": 64, "value": 127}, "group": "control_change"}, {"time": 2317, "annotation": {"number": 64, "value": 0}, "group": "control_change"}, {"time": 2320, "annotation": {"number": 64, "value": 127}, "group": "control_change"}, {"time": 2365, "annotation": {"number": 64, "value": 0}, "group": "control_change"}, {"time": 2369, "annotation": {"number": 64, "value": 127}, "group": "control_change"}, {"time": 2413, "annotation": {"number": 64, "value": 0}, "group": "control_change"}, {"time": 2416, "annotation": {"number": 64, "value": 127}, "group": "control_change"}, {"time": 2461, "annotation": {"number": 64, "value": 0}, "group": "control_change"}, {"time": 2464, "annotation": {"number": 64, "value": 127}, "group": "control_change"}, {"time": 2510, "annotation": {"number": 64, "value": 0}, "group": "control_change"}, {"time": 2511, "annotation": {"number": 64, "value": 127}, "group": "control_change"}, {"time": 2533, "annotation": {"number": 64, "value": 0}, "group": "control_change"}, {"time": 2535, "annotation": {"number": 64, "value": 127}, "group": "control_change"}, {"time": 2558, "annotation": {"number": 64, "value": 0}, "group": "control_change"}, {"time": 2559, "annotation": {"number": 64, "value": 127}, "group": "control_change"}, {"time": 2582, "annotation": {"number": 64, "value": 0}, "group": "control_change"}, {"time": 2583, "annotation": {"number": 64, "value": 127}, "group": "control_change"}, {"time": 2605, "annotation": {"number": 64, "value": 0}, "group": "control_change"}, {"time": 2607, "annotation": {"number": 64, "value": 127}, "group": "control_change"}, {"time": 2630, "annotation": {"number": 64, "value": 0}, "group": "control_change"}, {"time": 2631, "annotation": {"number": 64, "value": 127}, "group": "control_change"}, {"time": 2653, "annotation": {"number": 64, "value": 0}, "group": "control_change"}, {"time": 2655, "annotation": {"number": 64, "value": 127}, "group": "control_change"}, {"time": 2665, "annotation": {"number": 64, "value": 0}, "group": "control_change"}, {"time": 2667, "annotation": {"number": 64, "value": 127}, "group": "control_change"}, {"time": 2677, "annotation": {"number": 64, "value": 0}, "group": "control_change"}, {"time": 2679, "annotation": {"number": 64, "value": 127}, "group": "control_change"}, {"time": 2701, "annotation": {"number": 64, "value": 0}, "group": "control_change"}, {"time": 2704, "annotation": {"number": 64, "value": 127}, "group": "control_change"}, {"time": 2725, "annotation": {"number": 64, "value": 0}, "group": "control_change"}, {"time": 2727, "annotation": {"number": 64, "value": 127}, "group": "control_change"}, {"time": 2749, "annotation": {"number": 64, "value": 0}, "group": "control_change"}, {"time": 2751, "annotation": {"number": 64, "value": 127}, "group": "control_change"}, {"time": 2773, "annotation": {"number": 64, "value": 0}, "group": "control_change"}, {"time": 2775, "annotation": {"number": 64, "value": 127}, "group": "control_change"}, {"time": 2797, "annotation": {"number": 64, "value": 0}, "group": "control_change"}, {"time": 2799, "annotation": {"number": 64, "value": 127}, "group": "control_change"}, {"time": 2820, "annotation": {"number": 64, "value": 0}, "group": "control_change"}, {"time": 2823, "annotation": {"number": 64, "value": 127}, "group": "control_change"}, {"time": 2844, "annotation": {"number": 64, "value": 0}, "group": "control_change"}, {"time": 2871, "annotation": {"number": 64, "value": 127}, "group": "control_change"}, {"time": 2891, "annotation": {"number": 64, "value": 0}, "group": "control_change"}, {"time": 2919, "annotation": {"number": 64, "value": 0}, "group": "control_change"}, {"time": 2920, "annotation": {"number": 64, "value": 127}, "group": "control_change"}, {"time": 2922, "annotation": {"number": 64, "value": 0}, "group": "control_change"}, {"time": 2931, "annotation": {"number": 64, "value": 127}, "group": "control_change"}, {"time": 2938, "annotation": {"number": 64, "value": 0}, "group": "control_change"}, {"time": 2943, "annotation": {"number": 64, "value": 127}, "group": "control_change"}, {"time": 2945, "annotation": {"number": 64, "value": 0}, "group": "control_change"}, {"time": 2956, "annotation": {"number": 64, "value": 127}, "group": "control_change"}, {"time": 2963, "annotation": {"number": 64, "value": 0}, "group": "control_change"}, {"time": 2968, "annotation": {"number": 64, "value": 127}, "group": "control_change"}, {"time": 2988, "annotation": {"number": 64, "value": 0}, "group": "control_change"}, {"time": 2992, "annotation": {"number": 64, "value": 127}, "group": "control_change"}, {"time": 2994, "annotation": {"number": 64, "value": 0}, "group": "control_change"}, {"time": 3003, "annotation": {"number": 64, "value": 127}, "group": "control_change"}, {"time": 3011, "annotation": {"number": 64, "value": 0}, "group": "control_change"}, {"time": 3016, "annotation": {"number": 64, "value": 127}, "group": "control_change"}, {"time": 3036, "annotation": {"number": 64, "value": 0}, "group": "control_change"}, {"time": 3039, "annotation": {"number": 64, "value": 127}, "group": "control_change"}, {"time": 3045, "annotation": {"number": 64, "value": 0}, "group": "control_change"}, {"time": 3051, "annotation": {"number": 64, "value": 127}, "group": "control_change"}, {"time": 3060, "annotation": {"number": 64, "value": 0}, "group": "control_change"}, {"time": 3064, "annotation": {"number": 64, "value": 127}, "group": "control_change"}, {"time": 3072, "annotation": {"number": 64, "value": 0}, "group": "control_change"}, {"time": 3076, "annotation": {"number": 64, "value": 127}, "group": "control_change"}, {"time": 3083, "annotation": {"number": 64, "value": 0}, "group": "control_change"}, {"time": 3088, "annotation": {"number": 64, "value": 127}, "group": "control_change"}, {"time": 3109, "annotation": {"number": 64, "value": 0}, "group": "control_change"}, {"time": 3111, "annotation": {"number": 64, "value": 127}, "group": "control_change"}, {"time": 3133, "annotation": {"number": 64, "value": 0}, "group": "control_change"}, {"time": 3136, "annotation": {"number": 64, "value": 127}, "group": "control_change"}, {"time": 3146, "annotation": {"number": 64, "value": 0}, "group": "control_change"}, {"time": 3147, "annotation": {"number": 64, "value": 127}, "group": "control_change"}, {"time": 3154, "annotation": {"number": 64, "value": 0}, "group": "control_change"}, {"time": 3159, "annotation": {"number": 64, "value": 127}, "group": "control_change"}, {"time": 3170, "annotation": {"number": 64, "value": 0}, "group": "control_change"}, {"time": 3172, "annotation": {"number": 64, "value": 127}, "group": "control_change"}, {"time": 3180, "annotation": {"number": 64, "value": 0}, "group": "control_change"}, {"time": 3183, "annotation": {"number": 64, "value": 127}, "group": "control_change"}, {"time": 3204, "annotation": {"number": 64, "value": 0}, "group": "control_change"}, {"time": 3219, "annotation": {"number": 64, "value": 127}, "group": "control_change"}, {"time": 3228, "annotation": {"number": 64, "value": 0}, "group": "control_change"}, {"time": 3232, "annotation": {"number": 64, "value": 127}, "group": "control_change"}, {"time": 3241, "annotation": {"number": 64, "value": 0}, "group": "control_change"}, {"time": 3243, "annotation": {"number": 64, "value": 127}, "group": "control_change"}, {"time": 3252, "annotation": {"number": 64, "value": 0}, "group": "control_change"}, {"time": 3256, "annotation": {"number": 64, "value": 127}, "group": "control_change"}, {"time": 3277, "annotation": {"number": 64, "value": 0}, "group": "control_change"}, {"time": 3279, "annotation": {"number": 64, "value": 127}, "group": "control_change"}, {"time": 3301, "annotation": {"number": 64, "value": 0}, "group": "control_change"}, {"time": 3304, "annotation": {"number": 64, "value": 127}, "group": "control_change"}, {"time": 3326, "annotation": {"number": 64, "value": 0}, "group": "control_change"}, {"time": 3328, "annotation": {"number": 64, "value": 127}, "group": "control_change"}, {"time": 3347, "annotation": {"number": 64, "value": 0}, "group": "control_change"}, {"time": 3352, "annotation": {"number": 64, "value": 127}, "group": "control_change"}, {"time": 3397, "annotation": {"number": 64, "value": 0}, "group": "control_change"}, {"time": 3400, "annotation": {"number": 64, "value": 127}, "group": "control_change"}, {"time": 3446, "annotation": {"number": 64, "value": 0}, "group": "control_change"}, {"time": 3448, "annotation": {"number": 64, "value": 127}, "group": "control_change"}, {"time": 3494, "annotation": {"number": 64, "value": 0}, "group": "control_change"}, {"time": 3503, "annotation": {"number": 64, "value": 127}, "group": "control_change"}, {"time": 3585, "annotation": {"number": 64, "value": 0}, "group": "control_change"}, {"time": 3586, "annotation": {"number": 64, "value": 127}, "group": "control_change"}, {"time": 3588, "annotation": {"number": 64, "value": 0}, "group": "control_change"}, {"time": 3589, "annotation": {"number": 64, "value": 127}, "group": "control_change"}, {"time": 3590, "annotation": {"number": 64, "value": 0}, "group": "control_change"}]}]}