{"metadata": {"schema_version": "0.2", "title": "None", "source_filename": "091.mid", "source_format": "midi"}, "resolution": 12, "tempos": [{"time": 0, "qpm": 62.99999685000016}], "time_signatures": [{"time": 0, "numerator": 1, "denominator": 4}], "tracks": [{"program": 0, "is_drum": false, "name": "MELODY", "notes": [{"time": 200, "pitch": 72, "duration": 3, "velocity": 99}, {"time": 203, "pitch": 75, "duration": 7, "velocity": 107}, {"time": 209, "pitch": 75, "duration": 1, "velocity": 92}, {"time": 212, "pitch": 77, "duration": 3, "velocity": 92}, {"time": 215, "pitch": 80, "duration": 3, "velocity": 100}, {"time": 218, "pitch": 77, "duration": 3, "velocity": 76}, {"time": 221, "pitch": 75, "duration": 15, "velocity": 112}, {"time": 248, "pitch": 72, "duration": 3, "velocity": 99}, {"time": 251, "pitch": 75, "duration": 6, "velocity": 83}, {"time": 260, "pitch": 77, "duration": 2, "velocity": 99}, {"time": 263, "pitch": 80, "duration": 2, "velocity": 97}, {"time": 266, "pitch": 82, "duration": 1, "velocity": 96}, {"time": 269, "pitch": 84, "duration": 18, "velocity": 112}, {"time": 296, "pitch": 84, "duration": 1, "velocity": 127}, {"time": 299, "pitch": 84, "duration": 1, "velocity": 93}, {"time": 302, "pitch": 84, "duration": 1, "velocity": 107}, {"time": 305, "pitch": 84, "duration": 1, "velocity": 100}, {"time": 308, "pitch": 84, "duration": 5, "velocity": 127}, {"time": 311, "pitch": 84, "duration": 2, "velocity": 97}, {"time": 317, "pitch": 72, "duration": 3, "velocity": 99}, {"time": 320, "pitch": 77, "duration": 6, "velocity": 107}, {"time": 326, "pitch": 75, "duration": 14, "velocity": 107}, {"time": 344, "pitch": 84, "duration": 1, "velocity": 107}, {"time": 347, "pitch": 84, "duration": 1, "velocity": 81}, {"time": 350, "pitch": 84, "duration": 1, "velocity": 96}, {"time": 353, "pitch": 84, "duration": 1, "velocity": 82}, {"time": 356, "pitch": 84, "duration": 1, "velocity": 100}, {"time": 359, "pitch": 84, "duration": 4, "velocity": 97}, {"time": 365, "pitch": 80, "duration": 1, "velocity": 89}, {"time": 368, "pitch": 80, "duration": 5, "velocity": 102}, {"time": 374, "pitch": 82, "duration": 14, "velocity": 117}, {"time": 392, "pitch": 72, "duration": 2, "velocity": 93}, {"time": 395, "pitch": 75, "duration": 4, "velocity": 97}, {"time": 401, "pitch": 75, "duration": 3, "velocity": 97}, {"time": 404, "pitch": 77, "duration": 3, "velocity": 86}, {"time": 407, "pitch": 80, "duration": 3, "velocity": 97}, {"time": 410, "pitch": 77, "duration": 3, "velocity": 86}, {"time": 413, "pitch": 75, "duration": 21, "velocity": 96}, {"time": 440, "pitch": 72, "duration": 3, "velocity": 97}, {"time": 443, "pitch": 75, "duration": 5, "velocity": 100}, {"time": 452, "pitch": 77, "duration": 2, "velocity": 93}, {"time": 455, "pitch": 80, "duration": 2, "velocity": 99}, {"time": 458, "pitch": 82, "duration": 2, "velocity": 96}, {"time": 461, "pitch": 84, "duration": 21, "velocity": 102}, {"time": 488, "pitch": 84, "duration": 1, "velocity": 100}, {"time": 491, "pitch": 84, "duration": 1, "velocity": 90}, {"time": 494, "pitch": 84, "duration": 1, "velocity": 97}, {"time": 497, "pitch": 84, "duration": 1, "velocity": 92}, {"time": 500, "pitch": 84, "duration": 1, "velocity": 112}, {"time": 503, "pitch": 84, "duration": 2, "velocity": 107}, {"time": 509, "pitch": 72, "duration": 3, "velocity": 83}, {"time": 512, "pitch": 77, "duration": 6, "velocity": 97}, {"time": 518, "pitch": 75, "duration": 15, "velocity": 92}, {"time": 536, "pitch": 84, "duration": 1, "velocity": 102}, {"time": 539, "pitch": 84, "duration": 1, "velocity": 90}, {"time": 542, "pitch": 84, "duration": 1, "velocity": 96}, {"time": 545, "pitch": 84, "duration": 1, "velocity": 88}, {"time": 548, "pitch": 84, "duration": 1, "velocity": 97}, {"time": 551, "pitch": 84, "duration": 3, "velocity": 117}, {"time": 557, "pitch": 80, "duration": 1, "velocity": 102}, {"time": 560, "pitch": 80, "duration": 4, "velocity": 117}, {"time": 566, "pitch": 82, "duration": 18, "velocity": 127}, {"time": 584, "pitch": 82, "duration": 1, "velocity": 112}, {"time": 587, "pitch": 82, "duration": 1, "velocity": 96}, {"time": 590, "pitch": 82, "duration": 1, "velocity": 107}, {"time": 593, "pitch": 82, "duration": 1, "velocity": 99}, {"time": 596, "pitch": 82, "duration": 1, "velocity": 107}, {"time": 599, "pitch": 84, "duration": 3, "velocity": 107}, {"time": 605, "pitch": 82, "duration": 1, "velocity": 127}, {"time": 608, "pitch": 80, "duration": 4, "velocity": 100}, {"time": 614, "pitch": 77, "duration": 10, "velocity": 96}, {"time": 632, "pitch": 84, "duration": 2, "velocity": 122}, {"time": 635, "pitch": 82, "duration": 3, "velocity": 96}, {"time": 638, "pitch": 80, "duration": 3, "velocity": 90}, {"time": 641, "pitch": 77, "duration": 3, "velocity": 88}, {"time": 644, "pitch": 82, "duration": 3, "velocity": 112}, {"time": 647, "pitch": 80, "duration": 4, "velocity": 122}, {"time": 653, "pitch": 72, "duration": 3, "velocity": 92}, {"time": 656, "pitch": 77, "duration": 6, "velocity": 100}, {"time": 662, "pitch": 75, "duration": 12, "velocity": 112}, {"time": 680, "pitch": 82, "duration": 1, "velocity": 117}, {"time": 683, "pitch": 82, "duration": 1, "velocity": 107}, {"time": 686, "pitch": 82, "duration": 1, "velocity": 107}, {"time": 689, "pitch": 82, "duration": 1, "velocity": 99}, {"time": 692, "pitch": 82, "duration": 1, "velocity": 117}, {"time": 695, "pitch": 84, "duration": 4, "velocity": 112}, {"time": 701, "pitch": 82, "duration": 3, "velocity": 122}, {"time": 704, "pitch": 80, "duration": 5, "velocity": 117}, {"time": 710, "pitch": 77, "duration": 13, "velocity": 96}, {"time": 728, "pitch": 84, "duration": 1, "velocity": 112}, {"time": 731, "pitch": 82, "duration": 1, "velocity": 100}, {"time": 734, "pitch": 84, "duration": 2, "velocity": 97}, {"time": 737, "pitch": 82, "duration": 1, "velocity": 112}, {"time": 740, "pitch": 84, "duration": 1, "velocity": 100}, {"time": 743, "pitch": 89, "duration": 4, "velocity": 97}, {"time": 749, "pitch": 84, "duration": 1, "velocity": 90}, {"time": 752, "pitch": 84, "duration": 4, "velocity": 102}, {"time": 758, "pitch": 87, "duration": 12, "velocity": 127}, {"time": 770, "pitch": 80, "duration": 2, "velocity": 122}, {"time": 773, "pitch": 82, "duration": 2, "velocity": 86}, {"time": 776, "pitch": 84, "duration": 3, "velocity": 112}, {"time": 782, "pitch": 87, "duration": 1, "velocity": 122}, {"time": 785, "pitch": 87, "duration": 4, "velocity": 122}, {"time": 794, "pitch": 89, "duration": 7, "velocity": 127}, {"time": 800, "pitch": 84, "duration": 4, "velocity": 107}, {"time": 806, "pitch": 87, "duration": 1, "velocity": 107}, {"time": 809, "pitch": 87, "duration": 8, "velocity": 117}, {"time": 824, "pitch": 89, "duration": 1, "velocity": 127}, {"time": 827, "pitch": 89, "duration": 1, "velocity": 95}, {"time": 830, "pitch": 89, "duration": 1, "velocity": 83}, {"time": 833, "pitch": 89, "duration": 1, "velocity": 99}, {"time": 836, "pitch": 89, "duration": 1, "velocity": 117}, {"time": 839, "pitch": 89, "duration": 2, "velocity": 127}, {"time": 845, "pitch": 84, "duration": 1, "velocity": 96}, {"time": 848, "pitch": 84, "duration": 3, "velocity": 112}, {"time": 854, "pitch": 87, "duration": 11, "velocity": 127}, {"time": 866, "pitch": 80, "duration": 1, "velocity": 122}, {"time": 869, "pitch": 82, "duration": 1, "velocity": 107}, {"time": 872, "pitch": 84, "duration": 7, "velocity": 127}, {"time": 878, "pitch": 87, "duration": 1, "velocity": 127}, {"time": 881, "pitch": 87, "duration": 6, "velocity": 107}, {"time": 890, "pitch": 89, "duration": 3, "velocity": 127}, {"time": 896, "pitch": 84, "duration": 5, "velocity": 122}, {"time": 902, "pitch": 87, "duration": 2, "velocity": 112}, {"time": 905, "pitch": 87, "duration": 5, "velocity": 127}, {"time": 920, "pitch": 89, "duration": 2, "velocity": 107}, {"time": 923, "pitch": 87, "duration": 3, "velocity": 97}, {"time": 926, "pitch": 84, "duration": 3, "velocity": 112}, {"time": 929, "pitch": 82, "duration": 2, "velocity": 102}, {"time": 932, "pitch": 84, "duration": 2, "velocity": 99}, {"time": 935, "pitch": 82, "duration": 2, "velocity": 117}, {"time": 938, "pitch": 80, "duration": 2, "velocity": 107}, {"time": 941, "pitch": 77, "duration": 3, "velocity": 95}, {"time": 944, "pitch": 82, "duration": 2, "velocity": 117}, {"time": 947, "pitch": 80, "duration": 2, "velocity": 122}, {"time": 950, "pitch": 77, "duration": 2, "velocity": 95}, {"time": 953, "pitch": 75, "duration": 2, "velocity": 117}, {"time": 956, "pitch": 75, "duration": 2, "velocity": 100}, {"time": 959, "pitch": 77, "duration": 3, "velocity": 95}, {"time": 962, "pitch": 80, "duration": 2, "velocity": 99}, {"time": 965, "pitch": 82, "duration": 2, "velocity": 99}, {"time": 968, "pitch": 84, "duration": 6, "velocity": 102}, {"time": 974, "pitch": 87, "duration": 3, "velocity": 117}, {"time": 980, "pitch": 87, "duration": 1, "velocity": 107}, {"time": 983, "pitch": 87, "duration": 2, "velocity": 92}, {"time": 986, "pitch": 77, "duration": 4, "velocity": 99}, {"time": 992, "pitch": 80, "duration": 37, "velocity": 122}, {"time": 1232, "pitch": 74, "duration": 2, "velocity": 93}, {"time": 1235, "pitch": 77, "duration": 4, "velocity": 97}, {"time": 1241, "pitch": 77, "duration": 3, "velocity": 97}, {"time": 1244, "pitch": 79, "duration": 3, "velocity": 86}, {"time": 1247, "pitch": 82, "duration": 3, "velocity": 97}, {"time": 1250, "pitch": 79, "duration": 3, "velocity": 86}, {"time": 1253, "pitch": 77, "duration": 21, "velocity": 96}, {"time": 1280, "pitch": 74, "duration": 3, "velocity": 97}, {"time": 1283, "pitch": 77, "duration": 5, "velocity": 100}, {"time": 1292, "pitch": 79, "duration": 2, "velocity": 93}, {"time": 1295, "pitch": 82, "duration": 2, "velocity": 99}, {"time": 1298, "pitch": 84, "duration": 2, "velocity": 96}, {"time": 1301, "pitch": 86, "duration": 21, "velocity": 102}, {"time": 1328, "pitch": 86, "duration": 1, "velocity": 100}, {"time": 1331, "pitch": 86, "duration": 1, "velocity": 90}, {"time": 1334, "pitch": 86, "duration": 1, "velocity": 97}, {"time": 1337, "pitch": 86, "duration": 1, "velocity": 92}, {"time": 1340, "pitch": 86, "duration": 1, "velocity": 112}, {"time": 1343, "pitch": 86, "duration": 2, "velocity": 107}, {"time": 1349, "pitch": 74, "duration": 3, "velocity": 83}, {"time": 1352, "pitch": 79, "duration": 6, "velocity": 97}, {"time": 1358, "pitch": 77, "duration": 15, "velocity": 92}, {"time": 1376, "pitch": 86, "duration": 1, "velocity": 102}, {"time": 1379, "pitch": 86, "duration": 1, "velocity": 90}, {"time": 1382, "pitch": 86, "duration": 1, "velocity": 96}, {"time": 1385, "pitch": 86, "duration": 1, "velocity": 88}, {"time": 1388, "pitch": 86, "duration": 1, "velocity": 97}, {"time": 1391, "pitch": 86, "duration": 3, "velocity": 117}, {"time": 1397, "pitch": 82, "duration": 1, "velocity": 102}, {"time": 1400, "pitch": 82, "duration": 4, "velocity": 117}, {"time": 1406, "pitch": 84, "duration": 18, "velocity": 127}, {"time": 1616, "pitch": 84, "duration": 1, "velocity": 112}, {"time": 1619, "pitch": 84, "duration": 1, "velocity": 96}, {"time": 1622, "pitch": 84, "duration": 1, "velocity": 107}, {"time": 1625, "pitch": 84, "duration": 1, "velocity": 99}, {"time": 1628, "pitch": 84, "duration": 1, "velocity": 107}, {"time": 1631, "pitch": 86, "duration": 3, "velocity": 107}, {"time": 1637, "pitch": 84, "duration": 1, "velocity": 127}, {"time": 1640, "pitch": 82, "duration": 4, "velocity": 100}, {"time": 1646, "pitch": 79, "duration": 10, "velocity": 96}, {"time": 1664, "pitch": 86, "duration": 2, "velocity": 122}, {"time": 1667, "pitch": 84, "duration": 3, "velocity": 96}, {"time": 1670, "pitch": 82, "duration": 3, "velocity": 90}, {"time": 1673, "pitch": 79, "duration": 3, "velocity": 88}, {"time": 1676, "pitch": 84, "duration": 3, "velocity": 112}, {"time": 1679, "pitch": 82, "duration": 4, "velocity": 122}, {"time": 1685, "pitch": 74, "duration": 3, "velocity": 92}, {"time": 1688, "pitch": 79, "duration": 6, "velocity": 100}, {"time": 1694, "pitch": 77, "duration": 12, "velocity": 112}, {"time": 1712, "pitch": 84, "duration": 1, "velocity": 117}, {"time": 1715, "pitch": 84, "duration": 1, "velocity": 107}, {"time": 1718, "pitch": 84, "duration": 1, "velocity": 107}, {"time": 1721, "pitch": 84, "duration": 1, "velocity": 99}, {"time": 1724, "pitch": 84, "duration": 1, "velocity": 117}, {"time": 1727, "pitch": 86, "duration": 4, "velocity": 112}, {"time": 1733, "pitch": 84, "duration": 3, "velocity": 122}, {"time": 1736, "pitch": 82, "duration": 5, "velocity": 117}, {"time": 1742, "pitch": 79, "duration": 13, "velocity": 96}, {"time": 1760, "pitch": 86, "duration": 1, "velocity": 112}, {"time": 1763, "pitch": 84, "duration": 1, "velocity": 100}, {"time": 1766, "pitch": 86, "duration": 2, "velocity": 97}, {"time": 1769, "pitch": 84, "duration": 1, "velocity": 112}, {"time": 1772, "pitch": 86, "duration": 1, "velocity": 100}, {"time": 1775, "pitch": 91, "duration": 4, "velocity": 97}, {"time": 1781, "pitch": 86, "duration": 1, "velocity": 90}, {"time": 1784, "pitch": 86, "duration": 4, "velocity": 102}, {"time": 1790, "pitch": 89, "duration": 12, "velocity": 127}, {"time": 1802, "pitch": 82, "duration": 2, "velocity": 122}, {"time": 1805, "pitch": 84, "duration": 2, "velocity": 86}, {"time": 1808, "pitch": 86, "duration": 3, "velocity": 112}, {"time": 1814, "pitch": 89, "duration": 1, "velocity": 122}, {"time": 1817, "pitch": 89, "duration": 4, "velocity": 122}, {"time": 1826, "pitch": 91, "duration": 7, "velocity": 127}, {"time": 1832, "pitch": 86, "duration": 4, "velocity": 107}, {"time": 1838, "pitch": 89, "duration": 1, "velocity": 107}, {"time": 1841, "pitch": 89, "duration": 8, "velocity": 117}, {"time": 1856, "pitch": 91, "duration": 1, "velocity": 127}, {"time": 1859, "pitch": 91, "duration": 1, "velocity": 95}, {"time": 1862, "pitch": 91, "duration": 1, "velocity": 83}, {"time": 1865, "pitch": 91, "duration": 1, "velocity": 99}, {"time": 1868, "pitch": 91, "duration": 1, "velocity": 117}, {"time": 1871, "pitch": 91, "duration": 2, "velocity": 127}, {"time": 1877, "pitch": 86, "duration": 1, "velocity": 96}, {"time": 1880, "pitch": 86, "duration": 3, "velocity": 112}, {"time": 1886, "pitch": 89, "duration": 11, "velocity": 127}, {"time": 1898, "pitch": 82, "duration": 1, "velocity": 122}, {"time": 1901, "pitch": 84, "duration": 1, "velocity": 107}, {"time": 1904, "pitch": 86, "duration": 7, "velocity": 127}, {"time": 1910, "pitch": 89, "duration": 1, "velocity": 127}, {"time": 1913, "pitch": 89, "duration": 6, "velocity": 107}, {"time": 1922, "pitch": 91, "duration": 3, "velocity": 127}, {"time": 1928, "pitch": 86, "duration": 5, "velocity": 122}, {"time": 1934, "pitch": 89, "duration": 2, "velocity": 112}, {"time": 1937, "pitch": 89, "duration": 5, "velocity": 127}, {"time": 1952, "pitch": 91, "duration": 2, "velocity": 107}, {"time": 1955, "pitch": 89, "duration": 3, "velocity": 97}, {"time": 1958, "pitch": 86, "duration": 3, "velocity": 112}, {"time": 1961, "pitch": 84, "duration": 2, "velocity": 102}, {"time": 1964, "pitch": 86, "duration": 2, "velocity": 99}, {"time": 1967, "pitch": 84, "duration": 2, "velocity": 117}, {"time": 1970, "pitch": 82, "duration": 2, "velocity": 107}, {"time": 1973, "pitch": 79, "duration": 3, "velocity": 95}, {"time": 1976, "pitch": 84, "duration": 2, "velocity": 117}, {"time": 1979, "pitch": 82, "duration": 2, "velocity": 122}, {"time": 1982, "pitch": 79, "duration": 2, "velocity": 95}, {"time": 1985, "pitch": 77, "duration": 2, "velocity": 117}, {"time": 1988, "pitch": 77, "duration": 2, "velocity": 100}, {"time": 1991, "pitch": 79, "duration": 3, "velocity": 95}, {"time": 1994, "pitch": 82, "duration": 2, "velocity": 99}, {"time": 1997, "pitch": 84, "duration": 2, "velocity": 99}, {"time": 2000, "pitch": 86, "duration": 6, "velocity": 102}, {"time": 2006, "pitch": 89, "duration": 3, "velocity": 117}, {"time": 2012, "pitch": 89, "duration": 1, "velocity": 107}, {"time": 2015, "pitch": 89, "duration": 2, "velocity": 92}, {"time": 2018, "pitch": 79, "duration": 4, "velocity": 99}, {"time": 2024, "pitch": 82, "duration": 12, "velocity": 122}, {"time": 2042, "pitch": 82, "duration": 2, "velocity": 122}, {"time": 2045, "pitch": 84, "duration": 2, "velocity": 86}, {"time": 2048, "pitch": 86, "duration": 3, "velocity": 112}, {"time": 2054, "pitch": 89, "duration": 1, "velocity": 122}, {"time": 2057, "pitch": 89, "duration": 4, "velocity": 122}, {"time": 2066, "pitch": 91, "duration": 7, "velocity": 127}, {"time": 2072, "pitch": 86, "duration": 4, "velocity": 107}, {"time": 2078, "pitch": 89, "duration": 1, "velocity": 107}, {"time": 2081, "pitch": 89, "duration": 8, "velocity": 117}, {"time": 2096, "pitch": 91, "duration": 1, "velocity": 127}, {"time": 2099, "pitch": 91, "duration": 1, "velocity": 95}, {"time": 2102, "pitch": 91, "duration": 1, "velocity": 83}, {"time": 2105, "pitch": 91, "duration": 1, "velocity": 99}, {"time": 2108, "pitch": 91, "duration": 1, "velocity": 117}, {"time": 2111, "pitch": 91, "duration": 2, "velocity": 127}, {"time": 2117, "pitch": 86, "duration": 1, "velocity": 96}, {"time": 2120, "pitch": 86, "duration": 3, "velocity": 112}, {"time": 2126, "pitch": 89, "duration": 11, "velocity": 127}, {"time": 2138, "pitch": 82, "duration": 1, "velocity": 122}, {"time": 2141, "pitch": 84, "duration": 1, "velocity": 107}, {"time": 2144, "pitch": 86, "duration": 7, "velocity": 127}, {"time": 2150, "pitch": 89, "duration": 1, "velocity": 127}, {"time": 2153, "pitch": 89, "duration": 6, "velocity": 107}, {"time": 2162, "pitch": 91, "duration": 3, "velocity": 127}, {"time": 2168, "pitch": 86, "duration": 5, "velocity": 122}, {"time": 2174, "pitch": 89, "duration": 2, "velocity": 112}, {"time": 2177, "pitch": 89, "duration": 5, "velocity": 127}, {"time": 2192, "pitch": 91, "duration": 2, "velocity": 107}, {"time": 2195, "pitch": 89, "duration": 3, "velocity": 97}, {"time": 2198, "pitch": 86, "duration": 3, "velocity": 112}, {"time": 2201, "pitch": 84, "duration": 2, "velocity": 102}, {"time": 2204, "pitch": 86, "duration": 2, "velocity": 99}, {"time": 2207, "pitch": 84, "duration": 2, "velocity": 117}, {"time": 2210, "pitch": 82, "duration": 2, "velocity": 107}, {"time": 2213, "pitch": 79, "duration": 3, "velocity": 95}, {"time": 2216, "pitch": 84, "duration": 2, "velocity": 117}, {"time": 2219, "pitch": 82, "duration": 2, "velocity": 122}, {"time": 2222, "pitch": 79, "duration": 2, "velocity": 95}, {"time": 2225, "pitch": 77, "duration": 2, "velocity": 117}, {"time": 2228, "pitch": 77, "duration": 2, "velocity": 100}, {"time": 2231, "pitch": 79, "duration": 3, "velocity": 95}, {"time": 2234, "pitch": 82, "duration": 2, "velocity": 99}, {"time": 2237, "pitch": 84, "duration": 2, "velocity": 99}, {"time": 2240, "pitch": 86, "duration": 6, "velocity": 102}, {"time": 2246, "pitch": 89, "duration": 3, "velocity": 117}, {"time": 2252, "pitch": 89, "duration": 1, "velocity": 107}, {"time": 2255, "pitch": 89, "duration": 2, "velocity": 92}, {"time": 2258, "pitch": 79, "duration": 4, "velocity": 99}, {"time": 2264, "pitch": 82, "duration": 20, "velocity": 122}]}, {"program": 0, "is_drum": false, "name": "BRIDGE", "notes": [{"time": 8, "pitch": 80, "duration": 4, "velocity": 86}, {"time": 11, "pitch": 75, "duration": 4, "velocity": 54}, {"time": 14, "pitch": 80, "duration": 3, "velocity": 89}, {"time": 17, "pitch": 84, "duration": 3, "velocity": 79}, {"time": 20, "pitch": 82, "duration": 6, "velocity": 102}, {"time": 26, "pitch": 84, "duration": 3, "velocity": 88}, {"time": 29, "pitch": 80, "duration": 12, "velocity": 95}, {"time": 35, "pitch": 75, "duration": 3, "velocity": 93}, {"time": 38, "pitch": 80, "duration": 3, "velocity": 97}, {"time": 41, "pitch": 84, "duration": 3, "velocity": 77}, {"time": 44, "pitch": 82, "duration": 7, "velocity": 102}, {"time": 50, "pitch": 84, "duration": 6, "velocity": 96}, {"time": 56, "pitch": 77, "duration": 4, "velocity": 92}, {"time": 59, "pitch": 75, "duration": 2, "velocity": 96}, {"time": 62, "pitch": 80, "duration": 5, "velocity": 96}, {"time": 65, "pitch": 84, "duration": 3, "velocity": 97}, {"time": 68, "pitch": 82, "duration": 6, "velocity": 96}, {"time": 74, "pitch": 84, "duration": 3, "velocity": 97}, {"time": 77, "pitch": 77, "duration": 10, "velocity": 92}, {"time": 83, "pitch": 75, "duration": 3, "velocity": 88}, {"time": 86, "pitch": 80, "duration": 3, "velocity": 99}, {"time": 89, "pitch": 84, "duration": 3, "velocity": 85}, {"time": 92, "pitch": 82, "duration": 7, "velocity": 107}, {"time": 98, "pitch": 84, "duration": 6, "velocity": 96}, {"time": 103, "pitch": 80, "duration": 3, "velocity": 95}, {"time": 107, "pitch": 75, "duration": 3, "velocity": 72}, {"time": 110, "pitch": 80, "duration": 3, "velocity": 88}, {"time": 113, "pitch": 84, "duration": 3, "velocity": 72}, {"time": 116, "pitch": 82, "duration": 7, "velocity": 102}, {"time": 122, "pitch": 84, "duration": 3, "velocity": 93}, {"time": 125, "pitch": 80, "duration": 8, "velocity": 117}, {"time": 131, "pitch": 75, "duration": 3, "velocity": 79}, {"time": 134, "pitch": 80, "duration": 3, "velocity": 95}, {"time": 137, "pitch": 84, "duration": 4, "velocity": 73}, {"time": 140, "pitch": 82, "duration": 10, "velocity": 107}, {"time": 146, "pitch": 84, "duration": 6, "velocity": 96}, {"time": 152, "pitch": 77, "duration": 3, "velocity": 97}, {"time": 155, "pitch": 75, "duration": 3, "velocity": 97}, {"time": 158, "pitch": 80, "duration": 2, "velocity": 97}, {"time": 161, "pitch": 84, "duration": 3, "velocity": 78}, {"time": 164, "pitch": 82, "duration": 7, "velocity": 97}, {"time": 170, "pitch": 84, "duration": 2, "velocity": 89}, {"time": 173, "pitch": 77, "duration": 6, "velocity": 92}, {"time": 179, "pitch": 75, "duration": 3, "velocity": 97}, {"time": 182, "pitch": 80, "duration": 3, "velocity": 97}, {"time": 185, "pitch": 84, "duration": 3, "velocity": 97}, {"time": 188, "pitch": 82, "duration": 5, "velocity": 99}, {"time": 194, "pitch": 84, "duration": 11, "velocity": 100}, {"time": 230, "pitch": 75, "duration": 1, "velocity": 86}, {"time": 233, "pitch": 77, "duration": 22, "velocity": 89}, {"time": 278, "pitch": 77, "duration": 1, "velocity": 83}, {"time": 281, "pitch": 80, "duration": 13, "velocity": 122}, {"time": 326, "pitch": 75, "duration": 1, "velocity": 85}, {"time": 329, "pitch": 77, "duration": 10, "velocity": 92}, {"time": 374, "pitch": 75, "duration": 3, "velocity": 93}, {"time": 377, "pitch": 72, "duration": 6, "velocity": 85}, {"time": 383, "pitch": 75, "duration": 3, "velocity": 85}, {"time": 386, "pitch": 72, "duration": 3, "velocity": 76}, {"time": 389, "pitch": 70, "duration": 11, "velocity": 85}, {"time": 416, "pitch": 72, "duration": 3, "velocity": 69}, {"time": 419, "pitch": 75, "duration": 4, "velocity": 69}, {"time": 425, "pitch": 75, "duration": 4, "velocity": 63}, {"time": 428, "pitch": 77, "duration": 3, "velocity": 69}, {"time": 431, "pitch": 80, "duration": 3, "velocity": 85}, {"time": 434, "pitch": 77, "duration": 3, "velocity": 82}, {"time": 437, "pitch": 75, "duration": 21, "velocity": 93}, {"time": 470, "pitch": 77, "duration": 6, "velocity": 102}, {"time": 476, "pitch": 80, "duration": 6, "velocity": 89}, {"time": 482, "pitch": 82, "duration": 6, "velocity": 96}, {"time": 488, "pitch": 84, "duration": 14, "velocity": 96}, {"time": 572, "pitch": 84, "duration": 3, "velocity": 100}, {"time": 575, "pitch": 87, "duration": 3, "velocity": 97}, {"time": 578, "pitch": 89, "duration": 3, "velocity": 96}, {"time": 581, "pitch": 87, "duration": 3, "velocity": 96}, {"time": 584, "pitch": 82, "duration": 16, "velocity": 92}, {"time": 995, "pitch": 80, "duration": 1, "velocity": 112}, {"time": 998, "pitch": 80, "duration": 3, "velocity": 102}, {"time": 1001, "pitch": 77, "duration": 1, "velocity": 85}, {"time": 1004, "pitch": 77, "duration": 2, "velocity": 93}, {"time": 1007, "pitch": 80, "duration": 3, "velocity": 96}, {"time": 1010, "pitch": 82, "duration": 5, "velocity": 92}, {"time": 1016, "pitch": 82, "duration": 4, "velocity": 122}, {"time": 1022, "pitch": 80, "duration": 3, "velocity": 122}, {"time": 1025, "pitch": 77, "duration": 2, "velocity": 92}, {"time": 1028, "pitch": 77, "duration": 2, "velocity": 83}, {"time": 1031, "pitch": 75, "duration": 1, "velocity": 97}, {"time": 1034, "pitch": 75, "duration": 4, "velocity": 107}, {"time": 1037, "pitch": 77, "duration": 1, "velocity": 102}, {"time": 1040, "pitch": 74, "duration": 3, "velocity": 107}, {"time": 1040, "pitch": 77, "duration": 5, "velocity": 99}, {"time": 1043, "pitch": 77, "duration": 2, "velocity": 112}, {"time": 1049, "pitch": 77, "duration": 4, "velocity": 97}, {"time": 1052, "pitch": 79, "duration": 2, "velocity": 117}, {"time": 1055, "pitch": 82, "duration": 3, "velocity": 127}, {"time": 1058, "pitch": 79, "duration": 3, "velocity": 90}, {"time": 1061, "pitch": 77, "duration": 18, "velocity": 96}, {"time": 1088, "pitch": 74, "duration": 3, "velocity": 96}, {"time": 1091, "pitch": 77, "duration": 3, "velocity": 107}, {"time": 1097, "pitch": 77, "duration": 3, "velocity": 97}, {"time": 1100, "pitch": 79, "duration": 3, "velocity": 99}, {"time": 1103, "pitch": 82, "duration": 4, "velocity": 102}, {"time": 1106, "pitch": 84, "duration": 4, "velocity": 99}, {"time": 1109, "pitch": 86, "duration": 23, "velocity": 107}, {"time": 1136, "pitch": 86, "duration": 1, "velocity": 112}, {"time": 1139, "pitch": 86, "duration": 1, "velocity": 97}, {"time": 1142, "pitch": 86, "duration": 1, "velocity": 107}, {"time": 1145, "pitch": 86, "duration": 1, "velocity": 102}, {"time": 1148, "pitch": 86, "duration": 2, "velocity": 127}, {"time": 1151, "pitch": 86, "duration": 3, "velocity": 127}, {"time": 1157, "pitch": 74, "duration": 2, "velocity": 92}, {"time": 1160, "pitch": 79, "duration": 5, "velocity": 97}, {"time": 1166, "pitch": 77, "duration": 15, "velocity": 112}, {"time": 1184, "pitch": 86, "duration": 1, "velocity": 112}, {"time": 1187, "pitch": 86, "duration": 1, "velocity": 100}, {"time": 1190, "pitch": 86, "duration": 1, "velocity": 100}, {"time": 1193, "pitch": 86, "duration": 1, "velocity": 99}, {"time": 1196, "pitch": 86, "duration": 1, "velocity": 107}, {"time": 1199, "pitch": 86, "duration": 2, "velocity": 95}, {"time": 1205, "pitch": 82, "duration": 1, "velocity": 99}, {"time": 1208, "pitch": 82, "duration": 4, "velocity": 122}, {"time": 1214, "pitch": 84, "duration": 16, "velocity": 112}, {"time": 1256, "pitch": 74, "duration": 3, "velocity": 69}, {"time": 1259, "pitch": 77, "duration": 4, "velocity": 69}, {"time": 1265, "pitch": 77, "duration": 4, "velocity": 63}, {"time": 1268, "pitch": 79, "duration": 3, "velocity": 69}, {"time": 1271, "pitch": 82, "duration": 3, "velocity": 85}, {"time": 1274, "pitch": 79, "duration": 3, "velocity": 82}, {"time": 1277, "pitch": 77, "duration": 21, "velocity": 93}, {"time": 1310, "pitch": 79, "duration": 6, "velocity": 102}, {"time": 1316, "pitch": 82, "duration": 6, "velocity": 89}, {"time": 1322, "pitch": 84, "duration": 6, "velocity": 96}, {"time": 1328, "pitch": 86, "duration": 14, "velocity": 96}, {"time": 1412, "pitch": 86, "duration": 3, "velocity": 100}, {"time": 1415, "pitch": 89, "duration": 3, "velocity": 97}, {"time": 1418, "pitch": 91, "duration": 3, "velocity": 96}, {"time": 1421, "pitch": 89, "duration": 3, "velocity": 96}, {"time": 1424, "pitch": 74, "duration": 3, "velocity": 99}, {"time": 1427, "pitch": 77, "duration": 4, "velocity": 96}, {"time": 1433, "pitch": 77, "duration": 3, "velocity": 97}, {"time": 1436, "pitch": 79, "duration": 3, "velocity": 99}, {"time": 1439, "pitch": 82, "duration": 3, "velocity": 112}, {"time": 1442, "pitch": 79, "duration": 3, "velocity": 89}, {"time": 1445, "pitch": 77, "duration": 20, "velocity": 107}, {"time": 1472, "pitch": 75, "duration": 6, "velocity": 122}, {"time": 1481, "pitch": 75, "duration": 3, "velocity": 117}, {"time": 1484, "pitch": 77, "duration": 2, "velocity": 97}, {"time": 1487, "pitch": 80, "duration": 3, "velocity": 100}, {"time": 1490, "pitch": 77, "duration": 3, "velocity": 102}, {"time": 1493, "pitch": 75, "duration": 23, "velocity": 122}, {"time": 1514, "pitch": 72, "duration": 5, "velocity": 100}, {"time": 1520, "pitch": 74, "duration": 7, "velocity": 112}, {"time": 1529, "pitch": 77, "duration": 3, "velocity": 86}, {"time": 1532, "pitch": 79, "duration": 3, "velocity": 95}, {"time": 1535, "pitch": 82, "duration": 3, "velocity": 112}, {"time": 1538, "pitch": 79, "duration": 3, "velocity": 99}, {"time": 1541, "pitch": 77, "duration": 21, "velocity": 92}, {"time": 1568, "pitch": 81, "duration": 2, "velocity": 99}, {"time": 1571, "pitch": 84, "duration": 4, "velocity": 96}, {"time": 1577, "pitch": 84, "duration": 2, "velocity": 100}, {"time": 1580, "pitch": 86, "duration": 2, "velocity": 99}, {"time": 1583, "pitch": 89, "duration": 3, "velocity": 100}, {"time": 1586, "pitch": 86, "duration": 2, "velocity": 112}, {"time": 1589, "pitch": 84, "duration": 22, "velocity": 127}, {"time": 2273, "pitch": 74, "duration": 3, "velocity": 96}, {"time": 2276, "pitch": 72, "duration": 5, "velocity": 102}, {"time": 2282, "pitch": 74, "duration": 2, "velocity": 78}, {"time": 2285, "pitch": 70, "duration": 3, "velocity": 86}, {"time": 2288, "pitch": 74, "duration": 4, "velocity": 86}, {"time": 2291, "pitch": 79, "duration": 4, "velocity": 54}, {"time": 2294, "pitch": 82, "duration": 3, "velocity": 89}, {"time": 2297, "pitch": 86, "duration": 3, "velocity": 79}, {"time": 2300, "pitch": 84, "duration": 6, "velocity": 102}, {"time": 2306, "pitch": 86, "duration": 3, "velocity": 88}, {"time": 2309, "pitch": 82, "duration": 12, "velocity": 95}, {"time": 2315, "pitch": 77, "duration": 3, "velocity": 93}, {"time": 2318, "pitch": 82, "duration": 3, "velocity": 97}, {"time": 2321, "pitch": 86, "duration": 3, "velocity": 77}, {"time": 2324, "pitch": 84, "duration": 7, "velocity": 102}, {"time": 2330, "pitch": 86, "duration": 6, "velocity": 96}, {"time": 2336, "pitch": 79, "duration": 4, "velocity": 92}, {"time": 2339, "pitch": 77, "duration": 2, "velocity": 96}, {"time": 2342, "pitch": 82, "duration": 5, "velocity": 96}, {"time": 2345, "pitch": 86, "duration": 3, "velocity": 97}, {"time": 2348, "pitch": 84, "duration": 6, "velocity": 96}, {"time": 2354, "pitch": 86, "duration": 3, "velocity": 97}, {"time": 2357, "pitch": 79, "duration": 10, "velocity": 92}, {"time": 2363, "pitch": 77, "duration": 3, "velocity": 88}, {"time": 2366, "pitch": 82, "duration": 3, "velocity": 99}, {"time": 2369, "pitch": 86, "duration": 3, "velocity": 85}, {"time": 2372, "pitch": 84, "duration": 7, "velocity": 107}, {"time": 2378, "pitch": 86, "duration": 3, "velocity": 96}, {"time": 2381, "pitch": 82, "duration": 6, "velocity": 95}, {"time": 2384, "pitch": 82, "duration": 3, "velocity": 107}, {"time": 2387, "pitch": 77, "duration": 3, "velocity": 72}, {"time": 2390, "pitch": 82, "duration": 3, "velocity": 88}, {"time": 2393, "pitch": 86, "duration": 3, "velocity": 72}, {"time": 2396, "pitch": 84, "duration": 7, "velocity": 102}, {"time": 2402, "pitch": 86, "duration": 3, "velocity": 93}, {"time": 2405, "pitch": 82, "duration": 8, "velocity": 117}, {"time": 2411, "pitch": 77, "duration": 3, "velocity": 79}, {"time": 2414, "pitch": 82, "duration": 3, "velocity": 95}, {"time": 2417, "pitch": 86, "duration": 4, "velocity": 73}, {"time": 2420, "pitch": 84, "duration": 10, "velocity": 107}, {"time": 2426, "pitch": 86, "duration": 6, "velocity": 96}, {"time": 2432, "pitch": 79, "duration": 4, "velocity": 97}, {"time": 2438, "pitch": 82, "duration": 2, "velocity": 97}, {"time": 2441, "pitch": 86, "duration": 3, "velocity": 78}, {"time": 2444, "pitch": 84, "duration": 7, "velocity": 97}, {"time": 2450, "pitch": 86, "duration": 2, "velocity": 89}, {"time": 2453, "pitch": 79, "duration": 7, "velocity": 92}, {"time": 2459, "pitch": 86, "duration": 3, "velocity": 96}, {"time": 2465, "pitch": 86, "duration": 2, "velocity": 97}, {"time": 2468, "pitch": 84, "duration": 5, "velocity": 99}, {"time": 2474, "pitch": 86, "duration": 6, "velocity": 100}, {"time": 2480, "pitch": 74, "duration": 4, "velocity": 86}, {"time": 2483, "pitch": 79, "duration": 4, "velocity": 54}, {"time": 2486, "pitch": 82, "duration": 3, "velocity": 89}, {"time": 2489, "pitch": 86, "duration": 3, "velocity": 79}, {"time": 2492, "pitch": 84, "duration": 6, "velocity": 102}, {"time": 2498, "pitch": 86, "duration": 3, "velocity": 88}, {"time": 2501, "pitch": 82, "duration": 12, "velocity": 95}, {"time": 2507, "pitch": 77, "duration": 3, "velocity": 93}, {"time": 2510, "pitch": 82, "duration": 3, "velocity": 97}, {"time": 2513, "pitch": 86, "duration": 3, "velocity": 77}, {"time": 2516, "pitch": 84, "duration": 7, "velocity": 102}, {"time": 2522, "pitch": 86, "duration": 6, "velocity": 96}, {"time": 2528, "pitch": 79, "duration": 4, "velocity": 92}, {"time": 2531, "pitch": 77, "duration": 2, "velocity": 96}, {"time": 2534, "pitch": 82, "duration": 5, "velocity": 96}, {"time": 2537, "pitch": 86, "duration": 3, "velocity": 97}, {"time": 2540, "pitch": 84, "duration": 6, "velocity": 96}, {"time": 2546, "pitch": 86, "duration": 3, "velocity": 97}, {"time": 2549, "pitch": 79, "duration": 10, "velocity": 92}]}, {"program": 0, "is_drum": false, "name": "PIANO", "notes": [{"time": 8, "pitch": 44, "duration": 23, "velocity": 77}, {"time": 8, "pitch": 63, "duration": 12, "velocity": 66}, {"time": 8, "pitch": 68, "duration": 10, "velocity": 61}, {"time": 14, "pitch": 56, "duration": 20, "velocity": 34}, {"time": 20, "pitch": 63, "duration": 18, "velocity": 67}, {"time": 20, "pitch": 68, "duration": 17, "velocity": 63}, {"time": 29, "pitch": 60, "duration": 7, "velocity": 53}, {"time": 32, "pitch": 44, "duration": 17, "velocity": 65}, {"time": 35, "pitch": 56, "duration": 12, "velocity": 53}, {"time": 38, "pitch": 60, "duration": 17, "velocity": 44}, {"time": 41, "pitch": 68, "duration": 12, "velocity": 75}, {"time": 56, "pitch": 41, "duration": 21, "velocity": 63}, {"time": 56, "pitch": 60, "duration": 7, "velocity": 50}, {"time": 56, "pitch": 65, "duration": 7, "velocity": 63}, {"time": 56, "pitch": 68, "duration": 7, "velocity": 81}, {"time": 59, "pitch": 48, "duration": 21, "velocity": 55}, {"time": 62, "pitch": 53, "duration": 19, "velocity": 66}, {"time": 65, "pitch": 60, "duration": 1, "velocity": 35}, {"time": 65, "pitch": 68, "duration": 21, "velocity": 89}, {"time": 74, "pitch": 60, "duration": 8, "velocity": 50}, {"time": 77, "pitch": 65, "duration": 7, "velocity": 54}, {"time": 80, "pitch": 41, "duration": 14, "velocity": 48}, {"time": 83, "pitch": 48, "duration": 12, "velocity": 58}, {"time": 86, "pitch": 53, "duration": 9, "velocity": 75}, {"time": 89, "pitch": 68, "duration": 11, "velocity": 93}, {"time": 98, "pitch": 65, "duration": 2, "velocity": 55}, {"time": 104, "pitch": 44, "duration": 22, "velocity": 78}, {"time": 104, "pitch": 56, "duration": 1, "velocity": 37}, {"time": 104, "pitch": 60, "duration": 3, "velocity": 59}, {"time": 104, "pitch": 63, "duration": 7, "velocity": 74}, {"time": 104, "pitch": 67, "duration": 7, "velocity": 69}, {"time": 107, "pitch": 56, "duration": 19, "velocity": 56}, {"time": 110, "pitch": 60, "duration": 14, "velocity": 60}, {"time": 113, "pitch": 67, "duration": 20, "velocity": 75}, {"time": 122, "pitch": 63, "duration": 11, "velocity": 55}, {"time": 125, "pitch": 60, "duration": 7, "velocity": 55}, {"time": 128, "pitch": 44, "duration": 17, "velocity": 78}, {"time": 131, "pitch": 56, "duration": 12, "velocity": 61}, {"time": 134, "pitch": 60, "duration": 17, "velocity": 67}, {"time": 137, "pitch": 67, "duration": 11, "velocity": 79}, {"time": 146, "pitch": 63, "duration": 4, "velocity": 67}, {"time": 152, "pitch": 41, "duration": 22, "velocity": 66}, {"time": 152, "pitch": 60, "duration": 7, "velocity": 62}, {"time": 152, "pitch": 65, "duration": 7, "velocity": 74}, {"time": 152, "pitch": 68, "duration": 7, "velocity": 83}, {"time": 155, "pitch": 48, "duration": 21, "velocity": 33}, {"time": 158, "pitch": 53, "duration": 17, "velocity": 70}, {"time": 161, "pitch": 65, "duration": 22, "velocity": 70}, {"time": 161, "pitch": 68, "duration": 22, "velocity": 82}, {"time": 170, "pitch": 60, "duration": 14, "velocity": 41}, {"time": 176, "pitch": 41, "duration": 8, "velocity": 71}, {"time": 179, "pitch": 48, "duration": 5, "velocity": 52}, {"time": 182, "pitch": 53, "duration": 2, "velocity": 53}, {"time": 185, "pitch": 65, "duration": 8, "velocity": 79}, {"time": 185, "pitch": 68, "duration": 9, "velocity": 90}, {"time": 200, "pitch": 44, "duration": 22, "velocity": 92}, {"time": 200, "pitch": 60, "duration": 4, "velocity": 64}, {"time": 200, "pitch": 63, "duration": 6, "velocity": 89}, {"time": 203, "pitch": 56, "duration": 10, "velocity": 88}, {"time": 206, "pitch": 60, "duration": 12, "velocity": 69}, {"time": 209, "pitch": 68, "duration": 19, "velocity": 95}, {"time": 215, "pitch": 56, "duration": 10, "velocity": 50}, {"time": 218, "pitch": 63, "duration": 10, "velocity": 53}, {"time": 221, "pitch": 60, "duration": 6, "velocity": 54}, {"time": 224, "pitch": 44, "duration": 17, "velocity": 83}, {"time": 227, "pitch": 56, "duration": 9, "velocity": 67}, {"time": 230, "pitch": 60, "duration": 5, "velocity": 58}, {"time": 233, "pitch": 68, "duration": 15, "velocity": 99}, {"time": 239, "pitch": 56, "duration": 1, "velocity": 34}, {"time": 248, "pitch": 41, "duration": 21, "velocity": 66}, {"time": 251, "pitch": 48, "duration": 20, "velocity": 60}, {"time": 254, "pitch": 53, "duration": 10, "velocity": 54}, {"time": 257, "pitch": 60, "duration": 16, "velocity": 92}, {"time": 266, "pitch": 56, "duration": 7, "velocity": 50}, {"time": 269, "pitch": 53, "duration": 3, "velocity": 48}, {"time": 272, "pitch": 41, "duration": 9, "velocity": 57}, {"time": 275, "pitch": 48, "duration": 6, "velocity": 42}, {"time": 278, "pitch": 53, "duration": 4, "velocity": 56}, {"time": 281, "pitch": 60, "duration": 13, "velocity": 89}, {"time": 287, "pitch": 56, "duration": 7, "velocity": 70}, {"time": 293, "pitch": 53, "duration": 4, "velocity": 57}, {"time": 296, "pitch": 37, "duration": 16, "velocity": 77}, {"time": 299, "pitch": 49, "duration": 9, "velocity": 68}, {"time": 302, "pitch": 56, "duration": 4, "velocity": 65}, {"time": 305, "pitch": 61, "duration": 14, "velocity": 93}, {"time": 311, "pitch": 49, "duration": 2, "velocity": 50}, {"time": 314, "pitch": 56, "duration": 4, "velocity": 73}, {"time": 320, "pitch": 48, "duration": 15, "velocity": 81}, {"time": 323, "pitch": 55, "duration": 7, "velocity": 52}, {"time": 326, "pitch": 60, "duration": 4, "velocity": 71}, {"time": 329, "pitch": 63, "duration": 14, "velocity": 100}, {"time": 335, "pitch": 60, "duration": 8, "velocity": 74}, {"time": 341, "pitch": 55, "duration": 3, "velocity": 48}, {"time": 344, "pitch": 37, "duration": 17, "velocity": 70}, {"time": 347, "pitch": 49, "duration": 19, "velocity": 56}, {"time": 350, "pitch": 53, "duration": 13, "velocity": 59}, {"time": 353, "pitch": 61, "duration": 14, "velocity": 99}, {"time": 362, "pitch": 56, "duration": 5, "velocity": 69}, {"time": 365, "pitch": 53, "duration": 2, "velocity": 34}, {"time": 368, "pitch": 39, "duration": 16, "velocity": 82}, {"time": 371, "pitch": 51, "duration": 9, "velocity": 77}, {"time": 374, "pitch": 55, "duration": 5, "velocity": 75}, {"time": 377, "pitch": 63, "duration": 15, "velocity": 107}, {"time": 380, "pitch": 58, "duration": 11, "velocity": 93}, {"time": 383, "pitch": 51, "duration": 2, "velocity": 82}, {"time": 386, "pitch": 55, "duration": 6, "velocity": 73}, {"time": 392, "pitch": 44, "duration": 21, "velocity": 102}, {"time": 395, "pitch": 48, "duration": 19, "velocity": 54}, {"time": 398, "pitch": 51, "duration": 7, "velocity": 78}, {"time": 401, "pitch": 56, "duration": 5, "velocity": 95}, {"time": 404, "pitch": 63, "duration": 18, "velocity": 102}, {"time": 407, "pitch": 51, "duration": 7, "velocity": 63}, {"time": 410, "pitch": 60, "duration": 9, "velocity": 26}, {"time": 413, "pitch": 56, "duration": 10, "velocity": 59}, {"time": 416, "pitch": 44, "duration": 18, "velocity": 85}, {"time": 419, "pitch": 48, "duration": 13, "velocity": 36}, {"time": 422, "pitch": 51, "duration": 8, "velocity": 67}, {"time": 425, "pitch": 63, "duration": 14, "velocity": 100}, {"time": 431, "pitch": 51, "duration": 2, "velocity": 59}, {"time": 434, "pitch": 60, "duration": 5, "velocity": 64}, {"time": 437, "pitch": 56, "duration": 3, "velocity": 50}, {"time": 440, "pitch": 41, "duration": 21, "velocity": 77}, {"time": 443, "pitch": 48, "duration": 21, "velocity": 59}, {"time": 446, "pitch": 53, "duration": 10, "velocity": 74}, {"time": 449, "pitch": 60, "duration": 19, "velocity": 89}, {"time": 458, "pitch": 56, "duration": 7, "velocity": 89}, {"time": 461, "pitch": 53, "duration": 4, "velocity": 57}, {"time": 464, "pitch": 41, "duration": 13, "velocity": 79}, {"time": 467, "pitch": 48, "duration": 9, "velocity": 61}, {"time": 470, "pitch": 53, "duration": 4, "velocity": 73}, {"time": 473, "pitch": 60, "duration": 13, "velocity": 99}, {"time": 482, "pitch": 56, "duration": 4, "velocity": 93}, {"time": 485, "pitch": 53, "duration": 3, "velocity": 76}, {"time": 488, "pitch": 37, "duration": 17, "velocity": 92}, {"time": 491, "pitch": 49, "duration": 10, "velocity": 66}, {"time": 494, "pitch": 53, "duration": 13, "velocity": 65}, {"time": 497, "pitch": 61, "duration": 14, "velocity": 122}, {"time": 503, "pitch": 49, "duration": 2, "velocity": 58}, {"time": 506, "pitch": 56, "duration": 5, "velocity": 97}, {"time": 509, "pitch": 53, "duration": 3, "velocity": 77}, {"time": 512, "pitch": 36, "duration": 17, "velocity": 74}, {"time": 515, "pitch": 43, "duration": 14, "velocity": 50}, {"time": 518, "pitch": 48, "duration": 7, "velocity": 72}, {"time": 521, "pitch": 63, "duration": 14, "velocity": 112}, {"time": 527, "pitch": 48, "duration": 2, "velocity": 60}, {"time": 530, "pitch": 60, "duration": 5, "velocity": 97}, {"time": 536, "pitch": 37, "duration": 24, "velocity": 89}, {"time": 539, "pitch": 49, "duration": 8, "velocity": 86}, {"time": 542, "pitch": 61, "duration": 9, "velocity": 71}, {"time": 545, "pitch": 65, "duration": 8, "velocity": 79}, {"time": 545, "pitch": 68, "duration": 8, "velocity": 107}, {"time": 551, "pitch": 49, "duration": 7, "velocity": 59}, {"time": 554, "pitch": 61, "duration": 7, "velocity": 100}, {"time": 554, "pitch": 65, "duration": 7, "velocity": 65}, {"time": 554, "pitch": 68, "duration": 7, "velocity": 50}, {"time": 560, "pitch": 37, "duration": 1, "velocity": 89}, {"time": 560, "pitch": 55, "duration": 8, "velocity": 88}, {"time": 560, "pitch": 58, "duration": 7, "velocity": 102}, {"time": 560, "pitch": 63, "duration": 7, "velocity": 97}, {"time": 566, "pitch": 49, "duration": 5, "velocity": 52}, {"time": 569, "pitch": 58, "duration": 8, "velocity": 100}, {"time": 569, "pitch": 63, "duration": 8, "velocity": 102}, {"time": 575, "pitch": 49, "duration": 3, "velocity": 81}, {"time": 578, "pitch": 55, "duration": 4, "velocity": 95}, {"time": 578, "pitch": 58, "duration": 1, "velocity": 33}, {"time": 584, "pitch": 46, "duration": 14, "velocity": 96}, {"time": 584, "pitch": 58, "duration": 9, "velocity": 112}, {"time": 584, "pitch": 61, "duration": 11, "velocity": 93}, {"time": 584, "pitch": 65, "duration": 15, "velocity": 82}, {"time": 596, "pitch": 58, "duration": 6, "velocity": 117}, {"time": 599, "pitch": 46, "duration": 1, "velocity": 86}, {"time": 602, "pitch": 61, "duration": 5, "velocity": 97}, {"time": 605, "pitch": 58, "duration": 3, "velocity": 100}, {"time": 608, "pitch": 41, "duration": 17, "velocity": 88}, {"time": 611, "pitch": 48, "duration": 9, "velocity": 69}, {"time": 614, "pitch": 53, "duration": 4, "velocity": 83}, {"time": 617, "pitch": 60, "duration": 11, "velocity": 107}, {"time": 623, "pitch": 48, "duration": 2, "velocity": 62}, {"time": 626, "pitch": 56, "duration": 4, "velocity": 96}, {"time": 629, "pitch": 53, "duration": 4, "velocity": 72}, {"time": 632, "pitch": 37, "duration": 17, "velocity": 92}, {"time": 635, "pitch": 49, "duration": 9, "velocity": 90}, {"time": 638, "pitch": 53, "duration": 12, "velocity": 63}, {"time": 641, "pitch": 61, "duration": 14, "velocity": 122}, {"time": 647, "pitch": 49, "duration": 2, "velocity": 57}, {"time": 650, "pitch": 56, "duration": 5, "velocity": 102}, {"time": 653, "pitch": 53, "duration": 2, "velocity": 35}, {"time": 656, "pitch": 36, "duration": 16, "velocity": 81}, {"time": 659, "pitch": 43, "duration": 9, "velocity": 60}, {"time": 662, "pitch": 55, "duration": 4, "velocity": 81}, {"time": 665, "pitch": 63, "duration": 13, "velocity": 127}, {"time": 668, "pitch": 60, "duration": 10, "velocity": 66}, {"time": 671, "pitch": 43, "duration": 2, "velocity": 85}, {"time": 674, "pitch": 55, "duration": 6, "velocity": 83}, {"time": 680, "pitch": 46, "duration": 17, "velocity": 107}, {"time": 683, "pitch": 49, "duration": 13, "velocity": 65}, {"time": 686, "pitch": 53, "duration": 7, "velocity": 41}, {"time": 689, "pitch": 58, "duration": 4, "velocity": 82}, {"time": 692, "pitch": 65, "duration": 11, "velocity": 76}, {"time": 695, "pitch": 53, "duration": 2, "velocity": 63}, {"time": 698, "pitch": 58, "duration": 6, "velocity": 78}, {"time": 704, "pitch": 41, "duration": 17, "velocity": 79}, {"time": 707, "pitch": 48, "duration": 9, "velocity": 77}, {"time": 710, "pitch": 53, "duration": 4, "velocity": 81}, {"time": 713, "pitch": 60, "duration": 13, "velocity": 107}, {"time": 719, "pitch": 48, "duration": 1, "velocity": 65}, {"time": 722, "pitch": 56, "duration": 6, "velocity": 102}, {"time": 725, "pitch": 53, "duration": 2, "velocity": 72}, {"time": 728, "pitch": 37, "duration": 18, "velocity": 93}, {"time": 731, "pitch": 49, "duration": 9, "velocity": 72}, {"time": 734, "pitch": 53, "duration": 7, "velocity": 71}, {"time": 737, "pitch": 61, "duration": 13, "velocity": 117}, {"time": 743, "pitch": 49, "duration": 7, "velocity": 78}, {"time": 746, "pitch": 56, "duration": 5, "velocity": 122}, {"time": 752, "pitch": 39, "duration": 17, "velocity": 95}, {"time": 752, "pitch": 55, "duration": 10, "velocity": 88}, {"time": 752, "pitch": 58, "duration": 4, "velocity": 96}, {"time": 758, "pitch": 51, "duration": 7, "velocity": 81}, {"time": 764, "pitch": 58, "duration": 5, "velocity": 127}, {"time": 764, "pitch": 63, "duration": 6, "velocity": 127}, {"time": 767, "pitch": 51, "duration": 2, "velocity": 117}, {"time": 770, "pitch": 55, "duration": 1, "velocity": 95}, {"time": 776, "pitch": 44, "duration": 17, "velocity": 107}, {"time": 776, "pitch": 56, "duration": 8, "velocity": 107}, {"time": 776, "pitch": 60, "duration": 6, "velocity": 117}, {"time": 776, "pitch": 63, "duration": 7, "velocity": 117}, {"time": 782, "pitch": 48, "duration": 9, "velocity": 35}, {"time": 782, "pitch": 51, "duration": 6, "velocity": 52}, {"time": 788, "pitch": 60, "duration": 5, "velocity": 127}, {"time": 788, "pitch": 63, "duration": 6, "velocity": 127}, {"time": 791, "pitch": 51, "duration": 2, "velocity": 97}, {"time": 794, "pitch": 56, "duration": 1, "velocity": 96}, {"time": 800, "pitch": 41, "duration": 17, "velocity": 79}, {"time": 800, "pitch": 53, "duration": 7, "velocity": 95}, {"time": 800, "pitch": 56, "duration": 10, "velocity": 112}, {"time": 800, "pitch": 60, "duration": 10, "velocity": 93}, {"time": 806, "pitch": 48, "duration": 7, "velocity": 44}, {"time": 812, "pitch": 56, "duration": 6, "velocity": 117}, {"time": 812, "pitch": 60, "duration": 6, "velocity": 97}, {"time": 815, "pitch": 48, "duration": 1, "velocity": 97}, {"time": 818, "pitch": 53, "duration": 4, "velocity": 97}, {"time": 821, "pitch": 56, "duration": 2, "velocity": 79}, {"time": 824, "pitch": 37, "duration": 17, "velocity": 102}, {"time": 824, "pitch": 53, "duration": 1, "velocity": 53}, {"time": 824, "pitch": 56, "duration": 10, "velocity": 122}, {"time": 824, "pitch": 61, "duration": 10, "velocity": 122}, {"time": 830, "pitch": 49, "duration": 6, "velocity": 78}, {"time": 836, "pitch": 56, "duration": 6, "velocity": 127}, {"time": 836, "pitch": 61, "duration": 6, "velocity": 127}, {"time": 839, "pitch": 49, "duration": 4, "velocity": 95}, {"time": 842, "pitch": 53, "duration": 1, "velocity": 89}, {"time": 848, "pitch": 39, "duration": 16, "velocity": 112}, {"time": 848, "pitch": 55, "duration": 8, "velocity": 97}, {"time": 848, "pitch": 58, "duration": 10, "velocity": 127}, {"time": 854, "pitch": 51, "duration": 6, "velocity": 95}, {"time": 860, "pitch": 58, "duration": 6, "velocity": 122}, {"time": 860, "pitch": 63, "duration": 6, "velocity": 127}, {"time": 863, "pitch": 51, "duration": 2, "velocity": 102}, {"time": 866, "pitch": 55, "duration": 1, "velocity": 90}, {"time": 872, "pitch": 44, "duration": 17, "velocity": 39}, {"time": 872, "pitch": 51, "duration": 13, "velocity": 99}, {"time": 872, "pitch": 56, "duration": 8, "velocity": 107}, {"time": 872, "pitch": 60, "duration": 6, "velocity": 122}, {"time": 872, "pitch": 63, "duration": 6, "velocity": 117}, {"time": 884, "pitch": 48, "duration": 3, "velocity": 22}, {"time": 884, "pitch": 60, "duration": 5, "velocity": 127}, {"time": 884, "pitch": 63, "duration": 6, "velocity": 122}, {"time": 887, "pitch": 51, "duration": 2, "velocity": 93}, {"time": 890, "pitch": 56, "duration": 1, "velocity": 97}, {"time": 893, "pitch": 56, "duration": 1, "velocity": 34}, {"time": 896, "pitch": 41, "duration": 16, "velocity": 66}, {"time": 896, "pitch": 53, "duration": 7, "velocity": 100}, {"time": 896, "pitch": 56, "duration": 7, "velocity": 107}, {"time": 896, "pitch": 60, "duration": 7, "velocity": 97}, {"time": 902, "pitch": 48, "duration": 7, "velocity": 65}, {"time": 908, "pitch": 56, "duration": 6, "velocity": 122}, {"time": 908, "pitch": 60, "duration": 7, "velocity": 100}, {"time": 911, "pitch": 48, "duration": 1, "velocity": 78}, {"time": 914, "pitch": 53, "duration": 2, "velocity": 93}, {"time": 920, "pitch": 37, "duration": 4, "velocity": 89}, {"time": 920, "pitch": 49, "duration": 3, "velocity": 96}, {"time": 920, "pitch": 53, "duration": 4, "velocity": 93}, {"time": 920, "pitch": 56, "duration": 3, "velocity": 112}, {"time": 932, "pitch": 36, "duration": 5, "velocity": 96}, {"time": 932, "pitch": 48, "duration": 3, "velocity": 96}, {"time": 932, "pitch": 51, "duration": 3, "velocity": 99}, {"time": 932, "pitch": 55, "duration": 3, "velocity": 81}, {"time": 941, "pitch": 61, "duration": 1, "velocity": 40}, {"time": 944, "pitch": 34, "duration": 2, "velocity": 95}, {"time": 944, "pitch": 58, "duration": 4, "velocity": 117}, {"time": 944, "pitch": 61, "duration": 4, "velocity": 102}, {"time": 956, "pitch": 39, "duration": 4, "velocity": 89}, {"time": 956, "pitch": 46, "duration": 4, "velocity": 89}, {"time": 956, "pitch": 51, "duration": 4, "velocity": 96}, {"time": 956, "pitch": 55, "duration": 4, "velocity": 107}, {"time": 956, "pitch": 58, "duration": 5, "velocity": 97}, {"time": 968, "pitch": 37, "duration": 3, "velocity": 100}, {"time": 968, "pitch": 49, "duration": 2, "velocity": 95}, {"time": 968, "pitch": 53, "duration": 2, "velocity": 95}, {"time": 968, "pitch": 56, "duration": 2, "velocity": 96}, {"time": 974, "pitch": 39, "duration": 11, "velocity": 89}, {"time": 974, "pitch": 51, "duration": 11, "velocity": 95}, {"time": 974, "pitch": 55, "duration": 11, "velocity": 85}, {"time": 974, "pitch": 58, "duration": 11, "velocity": 88}, {"time": 992, "pitch": 44, "duration": 18, "velocity": 71}, {"time": 992, "pitch": 51, "duration": 12, "velocity": 92}, {"time": 992, "pitch": 56, "duration": 9, "velocity": 100}, {"time": 992, "pitch": 60, "duration": 6, "velocity": 112}, {"time": 992, "pitch": 63, "duration": 7, "velocity": 97}, {"time": 998, "pitch": 48, "duration": 12, "velocity": 43}, {"time": 1004, "pitch": 60, "duration": 6, "velocity": 117}, {"time": 1004, "pitch": 63, "duration": 9, "velocity": 107}, {"time": 1007, "pitch": 51, "duration": 4, "velocity": 60}, {"time": 1010, "pitch": 56, "duration": 4, "velocity": 89}, {"time": 1013, "pitch": 60, "duration": 1, "velocity": 35}, {"time": 1016, "pitch": 44, "duration": 17, "velocity": 95}, {"time": 1016, "pitch": 51, "duration": 13, "velocity": 102}, {"time": 1016, "pitch": 56, "duration": 10, "velocity": 95}, {"time": 1016, "pitch": 60, "duration": 10, "velocity": 112}, {"time": 1016, "pitch": 63, "duration": 10, "velocity": 97}, {"time": 1028, "pitch": 60, "duration": 6, "velocity": 102}, {"time": 1028, "pitch": 63, "duration": 6, "velocity": 107}, {"time": 1031, "pitch": 51, "duration": 2, "velocity": 96}, {"time": 1034, "pitch": 56, "duration": 1, "velocity": 85}, {"time": 1040, "pitch": 34, "duration": 22, "velocity": 102}, {"time": 1040, "pitch": 58, "duration": 9, "velocity": 127}, {"time": 1040, "pitch": 62, "duration": 9, "velocity": 99}, {"time": 1040, "pitch": 65, "duration": 6, "velocity": 97}, {"time": 1046, "pitch": 46, "duration": 1, "velocity": 36}, {"time": 1049, "pitch": 46, "duration": 6, "velocity": 51}, {"time": 1052, "pitch": 58, "duration": 10, "velocity": 127}, {"time": 1052, "pitch": 62, "duration": 10, "velocity": 102}, {"time": 1052, "pitch": 65, "duration": 10, "velocity": 93}, {"time": 1058, "pitch": 46, "duration": 6, "velocity": 73}, {"time": 1064, "pitch": 34, "duration": 16, "velocity": 92}, {"time": 1064, "pitch": 58, "duration": 6, "velocity": 127}, {"time": 1064, "pitch": 62, "duration": 7, "velocity": 102}, {"time": 1064, "pitch": 65, "duration": 7, "velocity": 97}, {"time": 1070, "pitch": 46, "duration": 6, "velocity": 72}, {"time": 1076, "pitch": 58, "duration": 5, "velocity": 122}, {"time": 1076, "pitch": 62, "duration": 10, "velocity": 99}, {"time": 1076, "pitch": 65, "duration": 4, "velocity": 89}, {"time": 1079, "pitch": 46, "duration": 2, "velocity": 102}, {"time": 1082, "pitch": 57, "duration": 6, "velocity": 107}, {"time": 1088, "pitch": 43, "duration": 22, "velocity": 77}, {"time": 1088, "pitch": 58, "duration": 10, "velocity": 102}, {"time": 1088, "pitch": 62, "duration": 9, "velocity": 96}, {"time": 1094, "pitch": 50, "duration": 10, "velocity": 59}, {"time": 1100, "pitch": 55, "duration": 10, "velocity": 96}, {"time": 1100, "pitch": 58, "duration": 10, "velocity": 117}, {"time": 1100, "pitch": 62, "duration": 10, "velocity": 96}, {"time": 1106, "pitch": 50, "duration": 6, "velocity": 38}, {"time": 1112, "pitch": 43, "duration": 16, "velocity": 82}, {"time": 1112, "pitch": 55, "duration": 10, "velocity": 96}, {"time": 1112, "pitch": 58, "duration": 10, "velocity": 112}, {"time": 1112, "pitch": 62, "duration": 10, "velocity": 92}, {"time": 1118, "pitch": 50, "duration": 7, "velocity": 56}, {"time": 1124, "pitch": 58, "duration": 6, "velocity": 127}, {"time": 1124, "pitch": 62, "duration": 5, "velocity": 99}, {"time": 1127, "pitch": 50, "duration": 1, "velocity": 77}, {"time": 1130, "pitch": 55, "duration": 3, "velocity": 100}, {"time": 1136, "pitch": 39, "duration": 16, "velocity": 92}, {"time": 1136, "pitch": 51, "duration": 12, "velocity": 85}, {"time": 1136, "pitch": 55, "duration": 9, "velocity": 99}, {"time": 1136, "pitch": 58, "duration": 10, "velocity": 127}, {"time": 1136, "pitch": 63, "duration": 10, "velocity": 117}, {"time": 1148, "pitch": 55, "duration": 5, "velocity": 92}, {"time": 1148, "pitch": 58, "duration": 5, "velocity": 112}, {"time": 1148, "pitch": 63, "duration": 5, "velocity": 117}, {"time": 1151, "pitch": 51, "duration": 2, "velocity": 74}, {"time": 1160, "pitch": 38, "duration": 13, "velocity": 76}, {"time": 1160, "pitch": 57, "duration": 10, "velocity": 107}, {"time": 1160, "pitch": 62, "duration": 10, "velocity": 99}, {"time": 1160, "pitch": 65, "duration": 10, "velocity": 100}, {"time": 1166, "pitch": 45, "duration": 7, "velocity": 45}, {"time": 1172, "pitch": 57, "duration": 2, "velocity": 99}, {"time": 1172, "pitch": 62, "duration": 2, "velocity": 99}, {"time": 1172, "pitch": 65, "duration": 1, "velocity": 88}, {"time": 1184, "pitch": 39, "duration": 17, "velocity": 97}, {"time": 1184, "pitch": 51, "duration": 12, "velocity": 95}, {"time": 1184, "pitch": 55, "duration": 9, "velocity": 92}, {"time": 1184, "pitch": 58, "duration": 10, "velocity": 107}, {"time": 1184, "pitch": 62, "duration": 9, "velocity": 97}, {"time": 1196, "pitch": 55, "duration": 7, "velocity": 93}, {"time": 1196, "pitch": 58, "duration": 7, "velocity": 127}, {"time": 1196, "pitch": 62, "duration": 7, "velocity": 95}, {"time": 1199, "pitch": 51, "duration": 2, "velocity": 77}, {"time": 1208, "pitch": 41, "duration": 24, "velocity": 79}, {"time": 1208, "pitch": 53, "duration": 5, "velocity": 96}, {"time": 1208, "pitch": 57, "duration": 5, "velocity": 100}, {"time": 1208, "pitch": 60, "duration": 5, "velocity": 107}, {"time": 1214, "pitch": 48, "duration": 8, "velocity": 72}, {"time": 1220, "pitch": 53, "duration": 12, "velocity": 95}, {"time": 1220, "pitch": 57, "duration": 12, "velocity": 102}, {"time": 1220, "pitch": 60, "duration": 12, "velocity": 107}, {"time": 1226, "pitch": 48, "duration": 6, "velocity": 93}, {"time": 1232, "pitch": 46, "duration": 21, "velocity": 102}, {"time": 1235, "pitch": 50, "duration": 19, "velocity": 54}, {"time": 1238, "pitch": 53, "duration": 7, "velocity": 78}, {"time": 1241, "pitch": 58, "duration": 5, "velocity": 95}, {"time": 1244, "pitch": 65, "duration": 18, "velocity": 102}, {"time": 1247, "pitch": 53, "duration": 7, "velocity": 63}, {"time": 1250, "pitch": 62, "duration": 9, "velocity": 26}, {"time": 1253, "pitch": 58, "duration": 10, "velocity": 59}, {"time": 1256, "pitch": 46, "duration": 18, "velocity": 85}, {"time": 1259, "pitch": 50, "duration": 13, "velocity": 36}, {"time": 1262, "pitch": 53, "duration": 8, "velocity": 67}, {"time": 1265, "pitch": 65, "duration": 14, "velocity": 100}, {"time": 1271, "pitch": 53, "duration": 2, "velocity": 59}, {"time": 1274, "pitch": 62, "duration": 5, "velocity": 64}, {"time": 1277, "pitch": 58, "duration": 3, "velocity": 50}, {"time": 1280, "pitch": 43, "duration": 21, "velocity": 77}, {"time": 1283, "pitch": 50, "duration": 21, "velocity": 59}, {"time": 1286, "pitch": 55, "duration": 10, "velocity": 74}, {"time": 1289, "pitch": 62, "duration": 19, "velocity": 89}, {"time": 1298, "pitch": 58, "duration": 7, "velocity": 89}, {"time": 1301, "pitch": 55, "duration": 4, "velocity": 57}, {"time": 1304, "pitch": 43, "duration": 13, "velocity": 79}, {"time": 1307, "pitch": 50, "duration": 9, "velocity": 61}, {"time": 1310, "pitch": 55, "duration": 4, "velocity": 73}, {"time": 1313, "pitch": 62, "duration": 13, "velocity": 99}, {"time": 1322, "pitch": 58, "duration": 4, "velocity": 93}, {"time": 1325, "pitch": 55, "duration": 3, "velocity": 76}, {"time": 1328, "pitch": 39, "duration": 17, "velocity": 92}, {"time": 1331, "pitch": 51, "duration": 10, "velocity": 66}, {"time": 1334, "pitch": 55, "duration": 13, "velocity": 65}, {"time": 1337, "pitch": 63, "duration": 14, "velocity": 122}, {"time": 1343, "pitch": 51, "duration": 2, "velocity": 58}, {"time": 1346, "pitch": 58, "duration": 5, "velocity": 97}, {"time": 1349, "pitch": 55, "duration": 3, "velocity": 77}, {"time": 1352, "pitch": 38, "duration": 17, "velocity": 74}, {"time": 1355, "pitch": 45, "duration": 14, "velocity": 50}, {"time": 1358, "pitch": 50, "duration": 7, "velocity": 72}, {"time": 1361, "pitch": 65, "duration": 14, "velocity": 112}, {"time": 1367, "pitch": 50, "duration": 2, "velocity": 60}, {"time": 1370, "pitch": 62, "duration": 5, "velocity": 97}, {"time": 1376, "pitch": 39, "duration": 24, "velocity": 89}, {"time": 1379, "pitch": 51, "duration": 8, "velocity": 86}, {"time": 1382, "pitch": 63, "duration": 9, "velocity": 71}, {"time": 1385, "pitch": 67, "duration": 8, "velocity": 79}, {"time": 1385, "pitch": 70, "duration": 8, "velocity": 107}, {"time": 1391, "pitch": 51, "duration": 7, "velocity": 59}, {"time": 1394, "pitch": 63, "duration": 7, "velocity": 100}, {"time": 1394, "pitch": 67, "duration": 7, "velocity": 65}, {"time": 1394, "pitch": 70, "duration": 7, "velocity": 50}, {"time": 1400, "pitch": 41, "duration": 17, "velocity": 89}, {"time": 1400, "pitch": 57, "duration": 8, "velocity": 88}, {"time": 1400, "pitch": 60, "duration": 7, "velocity": 102}, {"time": 1400, "pitch": 65, "duration": 7, "velocity": 97}, {"time": 1406, "pitch": 51, "duration": 5, "velocity": 52}, {"time": 1409, "pitch": 60, "duration": 8, "velocity": 100}, {"time": 1409, "pitch": 65, "duration": 8, "velocity": 102}, {"time": 1415, "pitch": 51, "duration": 3, "velocity": 81}, {"time": 1418, "pitch": 57, "duration": 4, "velocity": 95}, {"time": 1418, "pitch": 60, "duration": 1, "velocity": 33}, {"time": 1424, "pitch": 46, "duration": 22, "velocity": 107}, {"time": 1424, "pitch": 65, "duration": 10, "velocity": 89}, {"time": 1424, "pitch": 70, "duration": 10, "velocity": 107}, {"time": 1424, "pitch": 74, "duration": 8, "velocity": 95}, {"time": 1430, "pitch": 58, "duration": 8, "velocity": 73}, {"time": 1436, "pitch": 65, "duration": 10, "velocity": 90}, {"time": 1436, "pitch": 70, "duration": 7, "velocity": 122}, {"time": 1436, "pitch": 74, "duration": 10, "velocity": 97}, {"time": 1442, "pitch": 58, "duration": 5, "velocity": 57}, {"time": 1448, "pitch": 65, "duration": 11, "velocity": 92}, {"time": 1448, "pitch": 70, "duration": 11, "velocity": 117}, {"time": 1448, "pitch": 74, "duration": 11, "velocity": 100}, {"time": 1460, "pitch": 65, "duration": 6, "velocity": 74}, {"time": 1460, "pitch": 70, "duration": 5, "velocity": 97}, {"time": 1460, "pitch": 74, "duration": 5, "velocity": 96}, {"time": 1472, "pitch": 44, "duration": 22, "velocity": 102}, {"time": 1472, "pitch": 68, "duration": 7, "velocity": 102}, {"time": 1472, "pitch": 72, "duration": 6, "velocity": 112}, {"time": 1472, "pitch": 75, "duration": 7, "velocity": 122}, {"time": 1478, "pitch": 56, "duration": 9, "velocity": 58}, {"time": 1484, "pitch": 68, "duration": 10, "velocity": 100}, {"time": 1484, "pitch": 72, "duration": 8, "velocity": 117}, {"time": 1484, "pitch": 75, "duration": 10, "velocity": 117}, {"time": 1490, "pitch": 56, "duration": 5, "velocity": 89}, {"time": 1496, "pitch": 44, "duration": 16, "velocity": 100}, {"time": 1496, "pitch": 56, "duration": 12, "velocity": 67}, {"time": 1496, "pitch": 68, "duration": 6, "velocity": 102}, {"time": 1496, "pitch": 72, "duration": 5, "velocity": 117}, {"time": 1496, "pitch": 75, "duration": 7, "velocity": 112}, {"time": 1505, "pitch": 72, "duration": 1, "velocity": 31}, {"time": 1508, "pitch": 68, "duration": 1, "velocity": 66}, {"time": 1508, "pitch": 72, "duration": 6, "velocity": 127}, {"time": 1508, "pitch": 75, "duration": 6, "velocity": 127}, {"time": 1511, "pitch": 56, "duration": 3, "velocity": 96}, {"time": 1514, "pitch": 68, "duration": 1, "velocity": 96}, {"time": 1520, "pitch": 46, "duration": 41, "velocity": 100}, {"time": 1520, "pitch": 58, "duration": 15, "velocity": 100}, {"time": 1520, "pitch": 65, "duration": 9, "velocity": 97}, {"time": 1520, "pitch": 70, "duration": 10, "velocity": 112}, {"time": 1520, "pitch": 74, "duration": 10, "velocity": 97}, {"time": 1532, "pitch": 65, "duration": 7, "velocity": 96}, {"time": 1532, "pitch": 70, "duration": 7, "velocity": 127}, {"time": 1532, "pitch": 74, "duration": 6, "velocity": 97}, {"time": 1538, "pitch": 58, "duration": 10, "velocity": 90}, {"time": 1544, "pitch": 65, "duration": 9, "velocity": 92}, {"time": 1544, "pitch": 70, "duration": 9, "velocity": 112}, {"time": 1544, "pitch": 74, "duration": 10, "velocity": 88}, {"time": 1550, "pitch": 58, "duration": 6, "velocity": 82}, {"time": 1556, "pitch": 70, "duration": 6, "velocity": 127}, {"time": 1556, "pitch": 74, "duration": 7, "velocity": 93}, {"time": 1559, "pitch": 58, "duration": 1, "velocity": 92}, {"time": 1562, "pitch": 65, "duration": 4, "velocity": 107}, {"time": 1568, "pitch": 41, "duration": 48, "velocity": 90}, {"time": 1568, "pitch": 65, "duration": 9, "velocity": 102}, {"time": 1568, "pitch": 69, "duration": 10, "velocity": 102}, {"time": 1568, "pitch": 72, "duration": 9, "velocity": 112}, {"time": 1574, "pitch": 53, "duration": 8, "velocity": 56}, {"time": 1580, "pitch": 65, "duration": 6, "velocity": 97}, {"time": 1580, "pitch": 69, "duration": 8, "velocity": 107}, {"time": 1580, "pitch": 72, "duration": 10, "velocity": 97}, {"time": 1586, "pitch": 53, "duration": 8, "velocity": 92}, {"time": 1589, "pitch": 65, "duration": 1, "velocity": 44}, {"time": 1592, "pitch": 65, "duration": 6, "velocity": 99}, {"time": 1592, "pitch": 69, "duration": 7, "velocity": 112}, {"time": 1592, "pitch": 72, "duration": 7, "velocity": 97}, {"time": 1598, "pitch": 53, "duration": 6, "velocity": 64}, {"time": 1604, "pitch": 69, "duration": 12, "velocity": 112}, {"time": 1604, "pitch": 72, "duration": 12, "velocity": 122}, {"time": 1607, "pitch": 53, "duration": 5, "velocity": 90}, {"time": 1610, "pitch": 65, "duration": 6, "velocity": 99}, {"time": 1616, "pitch": 48, "duration": 14, "velocity": 96}, {"time": 1616, "pitch": 60, "duration": 9, "velocity": 112}, {"time": 1616, "pitch": 63, "duration": 11, "velocity": 93}, {"time": 1616, "pitch": 67, "duration": 15, "velocity": 82}, {"time": 1628, "pitch": 60, "duration": 6, "velocity": 117}, {"time": 1631, "pitch": 48, "duration": 1, "velocity": 86}, {"time": 1634, "pitch": 63, "duration": 5, "velocity": 97}, {"time": 1637, "pitch": 60, "duration": 3, "velocity": 100}, {"time": 1640, "pitch": 43, "duration": 17, "velocity": 88}, {"time": 1643, "pitch": 50, "duration": 9, "velocity": 69}, {"time": 1646, "pitch": 55, "duration": 4, "velocity": 83}, {"time": 1649, "pitch": 62, "duration": 11, "velocity": 107}, {"time": 1655, "pitch": 50, "duration": 2, "velocity": 62}, {"time": 1658, "pitch": 58, "duration": 4, "velocity": 96}, {"time": 1661, "pitch": 55, "duration": 4, "velocity": 72}, {"time": 1664, "pitch": 39, "duration": 17, "velocity": 92}, {"time": 1667, "pitch": 51, "duration": 9, "velocity": 90}, {"time": 1670, "pitch": 55, "duration": 12, "velocity": 63}, {"time": 1673, "pitch": 63, "duration": 14, "velocity": 122}, {"time": 1679, "pitch": 51, "duration": 2, "velocity": 57}, {"time": 1682, "pitch": 58, "duration": 5, "velocity": 102}, {"time": 1685, "pitch": 55, "duration": 2, "velocity": 35}, {"time": 1688, "pitch": 38, "duration": 16, "velocity": 81}, {"time": 1691, "pitch": 45, "duration": 9, "velocity": 60}, {"time": 1694, "pitch": 57, "duration": 4, "velocity": 81}, {"time": 1697, "pitch": 65, "duration": 13, "velocity": 127}, {"time": 1700, "pitch": 62, "duration": 10, "velocity": 66}, {"time": 1703, "pitch": 45, "duration": 2, "velocity": 85}, {"time": 1706, "pitch": 57, "duration": 6, "velocity": 83}, {"time": 1712, "pitch": 48, "duration": 17, "velocity": 107}, {"time": 1715, "pitch": 51, "duration": 13, "velocity": 65}, {"time": 1718, "pitch": 55, "duration": 7, "velocity": 41}, {"time": 1721, "pitch": 60, "duration": 4, "velocity": 82}, {"time": 1724, "pitch": 67, "duration": 11, "velocity": 76}, {"time": 1727, "pitch": 55, "duration": 2, "velocity": 63}, {"time": 1730, "pitch": 60, "duration": 6, "velocity": 78}, {"time": 1736, "pitch": 43, "duration": 17, "velocity": 79}, {"time": 1739, "pitch": 50, "duration": 9, "velocity": 77}, {"time": 1742, "pitch": 55, "duration": 4, "velocity": 81}, {"time": 1745, "pitch": 62, "duration": 13, "velocity": 107}, {"time": 1751, "pitch": 50, "duration": 1, "velocity": 65}, {"time": 1754, "pitch": 58, "duration": 6, "velocity": 102}, {"time": 1757, "pitch": 55, "duration": 2, "velocity": 72}, {"time": 1760, "pitch": 39, "duration": 18, "velocity": 93}, {"time": 1763, "pitch": 51, "duration": 9, "velocity": 72}, {"time": 1766, "pitch": 55, "duration": 7, "velocity": 71}, {"time": 1769, "pitch": 63, "duration": 13, "velocity": 117}, {"time": 1775, "pitch": 51, "duration": 7, "velocity": 78}, {"time": 1778, "pitch": 58, "duration": 5, "velocity": 122}, {"time": 1784, "pitch": 41, "duration": 17, "velocity": 95}, {"time": 1784, "pitch": 57, "duration": 10, "velocity": 88}, {"time": 1784, "pitch": 60, "duration": 4, "velocity": 96}, {"time": 1790, "pitch": 53, "duration": 7, "velocity": 81}, {"time": 1796, "pitch": 60, "duration": 5, "velocity": 127}, {"time": 1796, "pitch": 65, "duration": 6, "velocity": 127}, {"time": 1799, "pitch": 53, "duration": 2, "velocity": 117}, {"time": 1802, "pitch": 57, "duration": 1, "velocity": 95}, {"time": 1808, "pitch": 46, "duration": 17, "velocity": 107}, {"time": 1808, "pitch": 58, "duration": 8, "velocity": 107}, {"time": 1808, "pitch": 62, "duration": 6, "velocity": 117}, {"time": 1808, "pitch": 65, "duration": 7, "velocity": 117}, {"time": 1814, "pitch": 50, "duration": 9, "velocity": 35}, {"time": 1814, "pitch": 53, "duration": 6, "velocity": 52}, {"time": 1820, "pitch": 62, "duration": 5, "velocity": 127}, {"time": 1820, "pitch": 65, "duration": 6, "velocity": 127}, {"time": 1823, "pitch": 53, "duration": 2, "velocity": 97}, {"time": 1826, "pitch": 58, "duration": 1, "velocity": 96}, {"time": 1832, "pitch": 43, "duration": 17, "velocity": 79}, {"time": 1832, "pitch": 55, "duration": 7, "velocity": 95}, {"time": 1832, "pitch": 58, "duration": 10, "velocity": 112}, {"time": 1832, "pitch": 62, "duration": 10, "velocity": 93}, {"time": 1838, "pitch": 50, "duration": 7, "velocity": 44}, {"time": 1844, "pitch": 58, "duration": 6, "velocity": 117}, {"time": 1844, "pitch": 62, "duration": 6, "velocity": 97}, {"time": 1847, "pitch": 50, "duration": 1, "velocity": 97}, {"time": 1850, "pitch": 55, "duration": 4, "velocity": 97}, {"time": 1853, "pitch": 58, "duration": 2, "velocity": 79}, {"time": 1856, "pitch": 39, "duration": 17, "velocity": 102}, {"time": 1856, "pitch": 55, "duration": 1, "velocity": 53}, {"time": 1856, "pitch": 58, "duration": 10, "velocity": 122}, {"time": 1856, "pitch": 63, "duration": 10, "velocity": 122}, {"time": 1862, "pitch": 51, "duration": 6, "velocity": 78}, {"time": 1868, "pitch": 58, "duration": 6, "velocity": 127}, {"time": 1868, "pitch": 63, "duration": 6, "velocity": 127}, {"time": 1871, "pitch": 51, "duration": 4, "velocity": 95}, {"time": 1874, "pitch": 55, "duration": 1, "velocity": 89}, {"time": 1880, "pitch": 41, "duration": 16, "velocity": 112}, {"time": 1880, "pitch": 57, "duration": 8, "velocity": 97}, {"time": 1880, "pitch": 60, "duration": 10, "velocity": 127}, {"time": 1886, "pitch": 53, "duration": 6, "velocity": 95}, {"time": 1892, "pitch": 60, "duration": 6, "velocity": 122}, {"time": 1892, "pitch": 65, "duration": 6, "velocity": 127}, {"time": 1895, "pitch": 53, "duration": 2, "velocity": 102}, {"time": 1898, "pitch": 57, "duration": 1, "velocity": 90}, {"time": 1904, "pitch": 46, "duration": 17, "velocity": 39}, {"time": 1904, "pitch": 53, "duration": 13, "velocity": 99}, {"time": 1904, "pitch": 58, "duration": 8, "velocity": 107}, {"time": 1904, "pitch": 62, "duration": 6, "velocity": 122}, {"time": 1904, "pitch": 65, "duration": 6, "velocity": 117}, {"time": 1916, "pitch": 50, "duration": 3, "velocity": 22}, {"time": 1916, "pitch": 62, "duration": 5, "velocity": 127}, {"time": 1916, "pitch": 65, "duration": 6, "velocity": 122}, {"time": 1919, "pitch": 53, "duration": 2, "velocity": 93}, {"time": 1922, "pitch": 58, "duration": 1, "velocity": 97}, {"time": 1925, "pitch": 58, "duration": 1, "velocity": 34}, {"time": 1928, "pitch": 43, "duration": 16, "velocity": 66}, {"time": 1928, "pitch": 55, "duration": 7, "velocity": 100}, {"time": 1928, "pitch": 58, "duration": 7, "velocity": 107}, {"time": 1928, "pitch": 62, "duration": 7, "velocity": 97}, {"time": 1934, "pitch": 50, "duration": 7, "velocity": 65}, {"time": 1940, "pitch": 58, "duration": 6, "velocity": 122}, {"time": 1940, "pitch": 62, "duration": 7, "velocity": 100}, {"time": 1943, "pitch": 50, "duration": 1, "velocity": 78}, {"time": 1946, "pitch": 55, "duration": 2, "velocity": 93}, {"time": 1952, "pitch": 39, "duration": 4, "velocity": 89}, {"time": 1952, "pitch": 51, "duration": 3, "velocity": 96}, {"time": 1952, "pitch": 55, "duration": 4, "velocity": 93}, {"time": 1952, "pitch": 58, "duration": 3, "velocity": 112}, {"time": 1964, "pitch": 38, "duration": 5, "velocity": 96}, {"time": 1964, "pitch": 50, "duration": 3, "velocity": 96}, {"time": 1964, "pitch": 53, "duration": 3, "velocity": 99}, {"time": 1964, "pitch": 57, "duration": 3, "velocity": 81}, {"time": 1973, "pitch": 63, "duration": 1, "velocity": 40}, {"time": 1976, "pitch": 36, "duration": 2, "velocity": 95}, {"time": 1976, "pitch": 60, "duration": 4, "velocity": 117}, {"time": 1976, "pitch": 63, "duration": 4, "velocity": 102}, {"time": 1988, "pitch": 41, "duration": 4, "velocity": 89}, {"time": 1988, "pitch": 48, "duration": 4, "velocity": 89}, {"time": 1988, "pitch": 53, "duration": 4, "velocity": 96}, {"time": 1988, "pitch": 57, "duration": 4, "velocity": 107}, {"time": 1988, "pitch": 60, "duration": 5, "velocity": 97}, {"time": 2000, "pitch": 39, "duration": 3, "velocity": 100}, {"time": 2000, "pitch": 51, "duration": 2, "velocity": 95}, {"time": 2000, "pitch": 55, "duration": 2, "velocity": 95}, {"time": 2000, "pitch": 58, "duration": 2, "velocity": 96}, {"time": 2006, "pitch": 41, "duration": 11, "velocity": 89}, {"time": 2006, "pitch": 53, "duration": 11, "velocity": 95}, {"time": 2006, "pitch": 57, "duration": 11, "velocity": 85}, {"time": 2006, "pitch": 60, "duration": 11, "velocity": 88}, {"time": 2024, "pitch": 46, "duration": 13, "velocity": 93}, {"time": 2024, "pitch": 58, "duration": 12, "velocity": 93}, {"time": 2024, "pitch": 65, "duration": 10, "velocity": 97}, {"time": 2024, "pitch": 70, "duration": 5, "velocity": 107}, {"time": 2024, "pitch": 74, "duration": 5, "velocity": 95}, {"time": 2030, "pitch": 70, "duration": 3, "velocity": 77}, {"time": 2030, "pitch": 74, "duration": 3, "velocity": 90}, {"time": 2036, "pitch": 65, "duration": 2, "velocity": 107}, {"time": 2036, "pitch": 70, "duration": 3, "velocity": 127}, {"time": 2036, "pitch": 74, "duration": 3, "velocity": 107}, {"time": 2039, "pitch": 46, "duration": 9, "velocity": 78}, {"time": 2039, "pitch": 58, "duration": 8, "velocity": 102}, {"time": 2042, "pitch": 65, "duration": 6, "velocity": 97}, {"time": 2042, "pitch": 70, "duration": 5, "velocity": 112}, {"time": 2042, "pitch": 74, "duration": 5, "velocity": 99}, {"time": 2048, "pitch": 46, "duration": 1, "velocity": 107}, {"time": 2048, "pitch": 58, "duration": 8, "velocity": 107}, {"time": 2048, "pitch": 62, "duration": 6, "velocity": 117}, {"time": 2048, "pitch": 65, "duration": 7, "velocity": 117}, {"time": 2054, "pitch": 50, "duration": 9, "velocity": 35}, {"time": 2054, "pitch": 53, "duration": 6, "velocity": 52}, {"time": 2060, "pitch": 62, "duration": 5, "velocity": 127}, {"time": 2060, "pitch": 65, "duration": 6, "velocity": 127}, {"time": 2063, "pitch": 53, "duration": 2, "velocity": 97}, {"time": 2066, "pitch": 58, "duration": 1, "velocity": 96}, {"time": 2072, "pitch": 43, "duration": 17, "velocity": 79}, {"time": 2072, "pitch": 55, "duration": 7, "velocity": 95}, {"time": 2072, "pitch": 58, "duration": 10, "velocity": 112}, {"time": 2072, "pitch": 62, "duration": 10, "velocity": 93}, {"time": 2078, "pitch": 50, "duration": 7, "velocity": 44}, {"time": 2084, "pitch": 58, "duration": 6, "velocity": 117}, {"time": 2084, "pitch": 62, "duration": 6, "velocity": 97}, {"time": 2087, "pitch": 50, "duration": 1, "velocity": 97}, {"time": 2090, "pitch": 55, "duration": 4, "velocity": 97}, {"time": 2093, "pitch": 58, "duration": 2, "velocity": 79}, {"time": 2096, "pitch": 39, "duration": 17, "velocity": 102}, {"time": 2096, "pitch": 55, "duration": 1, "velocity": 53}, {"time": 2096, "pitch": 58, "duration": 10, "velocity": 122}, {"time": 2096, "pitch": 63, "duration": 10, "velocity": 122}, {"time": 2102, "pitch": 51, "duration": 6, "velocity": 78}, {"time": 2108, "pitch": 58, "duration": 6, "velocity": 127}, {"time": 2108, "pitch": 63, "duration": 6, "velocity": 127}, {"time": 2111, "pitch": 51, "duration": 4, "velocity": 95}, {"time": 2114, "pitch": 55, "duration": 1, "velocity": 89}, {"time": 2120, "pitch": 41, "duration": 16, "velocity": 112}, {"time": 2120, "pitch": 57, "duration": 8, "velocity": 97}, {"time": 2120, "pitch": 60, "duration": 10, "velocity": 127}, {"time": 2126, "pitch": 53, "duration": 6, "velocity": 95}, {"time": 2132, "pitch": 60, "duration": 6, "velocity": 122}, {"time": 2132, "pitch": 65, "duration": 6, "velocity": 127}, {"time": 2135, "pitch": 53, "duration": 2, "velocity": 102}, {"time": 2138, "pitch": 57, "duration": 1, "velocity": 90}, {"time": 2144, "pitch": 46, "duration": 17, "velocity": 39}, {"time": 2144, "pitch": 53, "duration": 13, "velocity": 99}, {"time": 2144, "pitch": 58, "duration": 8, "velocity": 107}, {"time": 2144, "pitch": 62, "duration": 6, "velocity": 122}, {"time": 2144, "pitch": 65, "duration": 6, "velocity": 117}, {"time": 2156, "pitch": 50, "duration": 3, "velocity": 22}, {"time": 2156, "pitch": 62, "duration": 5, "velocity": 127}, {"time": 2156, "pitch": 65, "duration": 6, "velocity": 122}, {"time": 2159, "pitch": 53, "duration": 2, "velocity": 93}, {"time": 2162, "pitch": 58, "duration": 1, "velocity": 97}, {"time": 2165, "pitch": 58, "duration": 1, "velocity": 34}, {"time": 2168, "pitch": 43, "duration": 16, "velocity": 66}, {"time": 2168, "pitch": 55, "duration": 7, "velocity": 100}, {"time": 2168, "pitch": 58, "duration": 7, "velocity": 107}, {"time": 2168, "pitch": 62, "duration": 7, "velocity": 97}, {"time": 2174, "pitch": 50, "duration": 7, "velocity": 65}, {"time": 2180, "pitch": 58, "duration": 6, "velocity": 122}, {"time": 2180, "pitch": 62, "duration": 7, "velocity": 100}, {"time": 2183, "pitch": 50, "duration": 1, "velocity": 78}, {"time": 2186, "pitch": 55, "duration": 2, "velocity": 93}, {"time": 2192, "pitch": 39, "duration": 4, "velocity": 89}, {"time": 2192, "pitch": 51, "duration": 3, "velocity": 96}, {"time": 2192, "pitch": 55, "duration": 4, "velocity": 93}, {"time": 2192, "pitch": 58, "duration": 3, "velocity": 112}, {"time": 2204, "pitch": 38, "duration": 5, "velocity": 96}, {"time": 2204, "pitch": 50, "duration": 3, "velocity": 96}, {"time": 2204, "pitch": 53, "duration": 3, "velocity": 99}, {"time": 2204, "pitch": 57, "duration": 3, "velocity": 81}, {"time": 2213, "pitch": 63, "duration": 1, "velocity": 40}, {"time": 2216, "pitch": 36, "duration": 2, "velocity": 95}, {"time": 2216, "pitch": 60, "duration": 4, "velocity": 117}, {"time": 2216, "pitch": 63, "duration": 4, "velocity": 102}, {"time": 2228, "pitch": 41, "duration": 4, "velocity": 89}, {"time": 2228, "pitch": 48, "duration": 4, "velocity": 89}, {"time": 2228, "pitch": 53, "duration": 4, "velocity": 96}, {"time": 2228, "pitch": 57, "duration": 4, "velocity": 107}, {"time": 2228, "pitch": 60, "duration": 5, "velocity": 97}, {"time": 2240, "pitch": 39, "duration": 3, "velocity": 100}, {"time": 2240, "pitch": 51, "duration": 2, "velocity": 95}, {"time": 2240, "pitch": 55, "duration": 2, "velocity": 95}, {"time": 2240, "pitch": 58, "duration": 2, "velocity": 96}, {"time": 2246, "pitch": 41, "duration": 11, "velocity": 89}, {"time": 2246, "pitch": 53, "duration": 11, "velocity": 95}, {"time": 2246, "pitch": 57, "duration": 11, "velocity": 85}, {"time": 2246, "pitch": 60, "duration": 11, "velocity": 88}, {"time": 2264, "pitch": 46, "duration": 18, "velocity": 71}, {"time": 2264, "pitch": 53, "duration": 12, "velocity": 92}, {"time": 2264, "pitch": 58, "duration": 9, "velocity": 100}, {"time": 2264, "pitch": 62, "duration": 6, "velocity": 112}, {"time": 2264, "pitch": 65, "duration": 7, "velocity": 97}, {"time": 2270, "pitch": 50, "duration": 12, "velocity": 43}, {"time": 2276, "pitch": 62, "duration": 6, "velocity": 117}, {"time": 2276, "pitch": 65, "duration": 9, "velocity": 107}, {"time": 2279, "pitch": 53, "duration": 4, "velocity": 60}, {"time": 2282, "pitch": 58, "duration": 4, "velocity": 89}, {"time": 2285, "pitch": 62, "duration": 1, "velocity": 35}, {"time": 2288, "pitch": 46, "duration": 23, "velocity": 77}, {"time": 2288, "pitch": 65, "duration": 12, "velocity": 66}, {"time": 2288, "pitch": 69, "duration": 10, "velocity": 61}, {"time": 2294, "pitch": 58, "duration": 20, "velocity": 34}, {"time": 2300, "pitch": 65, "duration": 18, "velocity": 67}, {"time": 2300, "pitch": 69, "duration": 17, "velocity": 63}, {"time": 2309, "pitch": 62, "duration": 7, "velocity": 53}, {"time": 2312, "pitch": 46, "duration": 17, "velocity": 65}, {"time": 2315, "pitch": 58, "duration": 12, "velocity": 53}, {"time": 2318, "pitch": 62, "duration": 17, "velocity": 44}, {"time": 2321, "pitch": 69, "duration": 12, "velocity": 75}, {"time": 2336, "pitch": 43, "duration": 21, "velocity": 63}, {"time": 2336, "pitch": 62, "duration": 7, "velocity": 50}, {"time": 2336, "pitch": 67, "duration": 7, "velocity": 63}, {"time": 2336, "pitch": 70, "duration": 7, "velocity": 81}, {"time": 2339, "pitch": 50, "duration": 21, "velocity": 55}, {"time": 2342, "pitch": 55, "duration": 19, "velocity": 66}, {"time": 2345, "pitch": 62, "duration": 1, "velocity": 35}, {"time": 2345, "pitch": 70, "duration": 21, "velocity": 89}, {"time": 2354, "pitch": 62, "duration": 8, "velocity": 50}, {"time": 2357, "pitch": 67, "duration": 7, "velocity": 54}, {"time": 2360, "pitch": 43, "duration": 14, "velocity": 48}, {"time": 2363, "pitch": 50, "duration": 12, "velocity": 58}, {"time": 2366, "pitch": 55, "duration": 9, "velocity": 75}, {"time": 2369, "pitch": 70, "duration": 11, "velocity": 93}, {"time": 2378, "pitch": 67, "duration": 2, "velocity": 55}, {"time": 2384, "pitch": 46, "duration": 22, "velocity": 78}, {"time": 2384, "pitch": 58, "duration": 1, "velocity": 37}, {"time": 2384, "pitch": 62, "duration": 3, "velocity": 59}, {"time": 2384, "pitch": 65, "duration": 7, "velocity": 74}, {"time": 2384, "pitch": 69, "duration": 7, "velocity": 69}, {"time": 2387, "pitch": 58, "duration": 19, "velocity": 56}, {"time": 2390, "pitch": 62, "duration": 14, "velocity": 60}, {"time": 2393, "pitch": 69, "duration": 20, "velocity": 75}, {"time": 2402, "pitch": 65, "duration": 11, "velocity": 55}, {"time": 2405, "pitch": 62, "duration": 7, "velocity": 55}, {"time": 2408, "pitch": 46, "duration": 17, "velocity": 78}, {"time": 2411, "pitch": 58, "duration": 12, "velocity": 61}, {"time": 2414, "pitch": 62, "duration": 17, "velocity": 67}, {"time": 2417, "pitch": 69, "duration": 11, "velocity": 79}, {"time": 2426, "pitch": 65, "duration": 4, "velocity": 67}, {"time": 2432, "pitch": 43, "duration": 22, "velocity": 66}, {"time": 2432, "pitch": 62, "duration": 7, "velocity": 62}, {"time": 2432, "pitch": 67, "duration": 7, "velocity": 74}, {"time": 2432, "pitch": 70, "duration": 7, "velocity": 83}, {"time": 2435, "pitch": 50, "duration": 21, "velocity": 33}, {"time": 2438, "pitch": 55, "duration": 17, "velocity": 70}, {"time": 2441, "pitch": 67, "duration": 22, "velocity": 70}, {"time": 2441, "pitch": 70, "duration": 22, "velocity": 82}, {"time": 2450, "pitch": 62, "duration": 14, "velocity": 41}, {"time": 2456, "pitch": 43, "duration": 8, "velocity": 71}, {"time": 2459, "pitch": 50, "duration": 5, "velocity": 52}, {"time": 2462, "pitch": 55, "duration": 2, "velocity": 53}, {"time": 2465, "pitch": 67, "duration": 8, "velocity": 79}, {"time": 2465, "pitch": 70, "duration": 9, "velocity": 90}, {"time": 2480, "pitch": 46, "duration": 23, "velocity": 77}, {"time": 2480, "pitch": 65, "duration": 12, "velocity": 66}, {"time": 2480, "pitch": 69, "duration": 10, "velocity": 61}, {"time": 2486, "pitch": 58, "duration": 20, "velocity": 34}, {"time": 2492, "pitch": 65, "duration": 18, "velocity": 67}, {"time": 2492, "pitch": 69, "duration": 17, "velocity": 63}, {"time": 2501, "pitch": 62, "duration": 7, "velocity": 53}, {"time": 2504, "pitch": 46, "duration": 17, "velocity": 65}, {"time": 2507, "pitch": 58, "duration": 12, "velocity": 53}, {"time": 2510, "pitch": 62, "duration": 17, "velocity": 44}, {"time": 2513, "pitch": 69, "duration": 12, "velocity": 75}, {"time": 2528, "pitch": 43, "duration": 21, "velocity": 63}, {"time": 2528, "pitch": 62, "duration": 7, "velocity": 50}, {"time": 2528, "pitch": 67, "duration": 7, "velocity": 63}, {"time": 2528, "pitch": 70, "duration": 7, "velocity": 81}, {"time": 2531, "pitch": 50, "duration": 21, "velocity": 55}, {"time": 2534, "pitch": 55, "duration": 18, "velocity": 66}, {"time": 2537, "pitch": 62, "duration": 1, "velocity": 35}, {"time": 2537, "pitch": 70, "duration": 15, "velocity": 89}, {"time": 2546, "pitch": 62, "duration": 6, "velocity": 50}, {"time": 2549, "pitch": 67, "duration": 3, "velocity": 54}], "annotations": [{"time": 19, "annotation": {"number": 64, "value": 127}, "group": "control_change"}, {"time": 54, "annotation": {"number": 64, "value": 0}, "group": "control_change"}, {"time": 56, "annotation": {"number": 64, "value": 127}, "group": "control_change"}, {"time": 102, "annotation": {"number": 64, "value": 0}, "group": "control_change"}, {"time": 104, "annotation": {"number": 64, "value": 127}, "group": "control_change"}, {"time": 127, "annotation": {"number": 64, "value": 0}, "group": "control_change"}, {"time": 129, "annotation": {"number": 64, "value": 127}, "group": "control_change"}, {"time": 150, "annotation": {"number": 64, "value": 0}, "group": "control_change"}, {"time": 152, "annotation": {"number": 64, "value": 127}, "group": "control_change"}, {"time": 174, "annotation": {"number": 64, "value": 0}, "group": "control_change"}, {"time": 176, "annotation": {"number": 64, "value": 127}, "group": "control_change"}, {"time": 198, "annotation": {"number": 64, "value": 0}, "group": "control_change"}, {"time": 200, "annotation": {"number": 64, "value": 127}, "group": "control_change"}, {"time": 247, "annotation": {"number": 64, "value": 0}, "group": "control_change"}, {"time": 249, "annotation": {"number": 64, "value": 127}, "group": "control_change"}, {"time": 319, "annotation": {"number": 64, "value": 0}, "group": "control_change"}, {"time": 322, "annotation": {"number": 64, "value": 127}, "group": "control_change"}, {"time": 366, "annotation": {"number": 64, "value": 0}, "group": "control_change"}, {"time": 369, "annotation": {"number": 64, "value": 127}, "group": "control_change"}, {"time": 390, "annotation": {"number": 64, "value": 0}, "group": "control_change"}, {"time": 393, "annotation": {"number": 64, "value": 127}, "group": "control_change"}, {"time": 415, "annotation": {"number": 64, "value": 0}, "group": "control_change"}, {"time": 418, "annotation": {"number": 64, "value": 127}, "group": "control_change"}, {"time": 438, "annotation": {"number": 64, "value": 0}, "group": "control_change"}, {"time": 441, "annotation": {"number": 64, "value": 127}, "group": "control_change"}, {"time": 510, "annotation": {"number": 64, "value": 0}, "group": "control_change"}, {"time": 513, "annotation": {"number": 64, "value": 127}, "group": "control_change"}, {"time": 534, "annotation": {"number": 64, "value": 0}, "group": "control_change"}, {"time": 537, "annotation": {"number": 64, "value": 127}, "group": "control_change"}, {"time": 558, "annotation": {"number": 64, "value": 0}, "group": "control_change"}, {"time": 561, "annotation": {"number": 64, "value": 127}, "group": "control_change"}, {"time": 582, "annotation": {"number": 64, "value": 0}, "group": "control_change"}, {"time": 583, "annotation": {"number": 64, "value": 127}, "group": "control_change"}, {"time": 606, "annotation": {"number": 64, "value": 0}, "group": "control_change"}, {"time": 609, "annotation": {"number": 64, "value": 127}, "group": "control_change"}, {"time": 629, "annotation": {"number": 64, "value": 0}, "group": "control_change"}, {"time": 633, "annotation": {"number": 64, "value": 127}, "group": "control_change"}, {"time": 654, "annotation": {"number": 64, "value": 0}, "group": "control_change"}, {"time": 657, "annotation": {"number": 64, "value": 127}, "group": "control_change"}, {"time": 678, "annotation": {"number": 64, "value": 0}, "group": "control_change"}, {"time": 681, "annotation": {"number": 64, "value": 127}, "group": "control_change"}, {"time": 726, "annotation": {"number": 64, "value": 0}, "group": "control_change"}, {"time": 729, "annotation": {"number": 64, "value": 127}, "group": "control_change"}, {"time": 749, "annotation": {"number": 64, "value": 0}, "group": "control_change"}, {"time": 752, "annotation": {"number": 64, "value": 127}, "group": "control_change"}, {"time": 774, "annotation": {"number": 64, "value": 0}, "group": "control_change"}, {"time": 777, "annotation": {"number": 64, "value": 127}, "group": "control_change"}, {"time": 798, "annotation": {"number": 64, "value": 0}, "group": "control_change"}, {"time": 800, "annotation": {"number": 64, "value": 127}, "group": "control_change"}, {"time": 822, "annotation": {"number": 64, "value": 0}, "group": "control_change"}, {"time": 824, "annotation": {"number": 64, "value": 127}, "group": "control_change"}, {"time": 846, "annotation": {"number": 64, "value": 0}, "group": "control_change"}, {"time": 848, "annotation": {"number": 64, "value": 127}, "group": "control_change"}, {"time": 870, "annotation": {"number": 64, "value": 0}, "group": "control_change"}, {"time": 873, "annotation": {"number": 64, "value": 127}, "group": "control_change"}, {"time": 894, "annotation": {"number": 64, "value": 0}, "group": "control_change"}, {"time": 896, "annotation": {"number": 64, "value": 127}, "group": "control_change"}, {"time": 918, "annotation": {"number": 64, "value": 0}, "group": "control_change"}, {"time": 920, "annotation": {"number": 64, "value": 127}, "group": "control_change"}, {"time": 929, "annotation": {"number": 64, "value": 0}, "group": "control_change"}, {"time": 932, "annotation": {"number": 64, "value": 127}, "group": "control_change"}, {"time": 942, "annotation": {"number": 64, "value": 0}, "group": "control_change"}, {"time": 944, "annotation": {"number": 64, "value": 127}, "group": "control_change"}, {"time": 955, "annotation": {"number": 64, "value": 0}, "group": "control_change"}, {"time": 957, "annotation": {"number": 64, "value": 127}, "group": "control_change"}, {"time": 965, "annotation": {"number": 64, "value": 0}, "group": "control_change"}, {"time": 969, "annotation": {"number": 64, "value": 127}, "group": "control_change"}, {"time": 972, "annotation": {"number": 64, "value": 0}, "group": "control_change"}, {"time": 981, "annotation": {"number": 64, "value": 127}, "group": "control_change"}, {"time": 990, "annotation": {"number": 64, "value": 0}, "group": "control_change"}, {"time": 992, "annotation": {"number": 64, "value": 127}, "group": "control_change"}, {"time": 1014, "annotation": {"number": 64, "value": 0}, "group": "control_change"}, {"time": 1017, "annotation": {"number": 64, "value": 127}, "group": "control_change"}, {"time": 1038, "annotation": {"number": 64, "value": 0}, "group": "control_change"}, {"time": 1041, "annotation": {"number": 64, "value": 127}, "group": "control_change"}, {"time": 1086, "annotation": {"number": 64, "value": 0}, "group": "control_change"}, {"time": 1088, "annotation": {"number": 64, "value": 127}, "group": "control_change"}, {"time": 1110, "annotation": {"number": 64, "value": 0}, "group": "control_change"}, {"time": 1112, "annotation": {"number": 64, "value": 127}, "group": "control_change"}, {"time": 1133, "annotation": {"number": 64, "value": 0}, "group": "control_change"}, {"time": 1136, "annotation": {"number": 64, "value": 127}, "group": "control_change"}, {"time": 1158, "annotation": {"number": 64, "value": 0}, "group": "control_change"}, {"time": 1161, "annotation": {"number": 64, "value": 127}, "group": "control_change"}, {"time": 1183, "annotation": {"number": 64, "value": 0}, "group": "control_change"}, {"time": 1185, "annotation": {"number": 64, "value": 127}, "group": "control_change"}, {"time": 1207, "annotation": {"number": 64, "value": 0}, "group": "control_change"}, {"time": 1220, "annotation": {"number": 64, "value": 127}, "group": "control_change"}, {"time": 1227, "annotation": {"number": 64, "value": 0}, "group": "control_change"}, {"time": 1233, "annotation": {"number": 64, "value": 127}, "group": "control_change"}, {"time": 1255, "annotation": {"number": 64, "value": 0}, "group": "control_change"}, {"time": 1258, "annotation": {"number": 64, "value": 127}, "group": "control_change"}, {"time": 1278, "annotation": {"number": 64, "value": 0}, "group": "control_change"}, {"time": 1281, "annotation": {"number": 64, "value": 127}, "group": "control_change"}, {"time": 1350, "annotation": {"number": 64, "value": 0}, "group": "control_change"}, {"time": 1353, "annotation": {"number": 64, "value": 127}, "group": "control_change"}, {"time": 1374, "annotation": {"number": 64, "value": 0}, "group": "control_change"}, {"time": 1377, "annotation": {"number": 64, "value": 127}, "group": "control_change"}, {"time": 1398, "annotation": {"number": 64, "value": 0}, "group": "control_change"}, {"time": 1401, "annotation": {"number": 64, "value": 127}, "group": "control_change"}, {"time": 1422, "annotation": {"number": 64, "value": 0}, "group": "control_change"}, {"time": 1423, "annotation": {"number": 64, "value": 127}, "group": "control_change"}, {"time": 1425, "annotation": {"number": 64, "value": 127}, "group": "control_change"}, {"time": 1471, "annotation": {"number": 64, "value": 0}, "group": "control_change"}, {"time": 1475, "annotation": {"number": 64, "value": 127}, "group": "control_change"}, {"time": 1567, "annotation": {"number": 64, "value": 0}, "group": "control_change"}, {"time": 1568, "annotation": {"number": 64, "value": 127}, "group": "control_change"}, {"time": 1612, "annotation": {"number": 64, "value": 0}, "group": "control_change"}, {"time": 1638, "annotation": {"number": 64, "value": 0}, "group": "control_change"}, {"time": 1641, "annotation": {"number": 64, "value": 127}, "group": "control_change"}, {"time": 1661, "annotation": {"number": 64, "value": 0}, "group": "control_change"}, {"time": 1665, "annotation": {"number": 64, "value": 127}, "group": "control_change"}, {"time": 1686, "annotation": {"number": 64, "value": 0}, "group": "control_change"}, {"time": 1689, "annotation": {"number": 64, "value": 127}, "group": "control_change"}, {"time": 1710, "annotation": {"number": 64, "value": 0}, "group": "control_change"}, {"time": 1713, "annotation": {"number": 64, "value": 127}, "group": "control_change"}, {"time": 1758, "annotation": {"number": 64, "value": 0}, "group": "control_change"}, {"time": 1761, "annotation": {"number": 64, "value": 127}, "group": "control_change"}, {"time": 1781, "annotation": {"number": 64, "value": 0}, "group": "control_change"}, {"time": 1784, "annotation": {"number": 64, "value": 127}, "group": "control_change"}, {"time": 1806, "annotation": {"number": 64, "value": 0}, "group": "control_change"}, {"time": 1809, "annotation": {"number": 64, "value": 127}, "group": "control_change"}, {"time": 1830, "annotation": {"number": 64, "value": 0}, "group": "control_change"}, {"time": 1832, "annotation": {"number": 64, "value": 127}, "group": "control_change"}, {"time": 1854, "annotation": {"number": 64, "value": 0}, "group": "control_change"}, {"time": 1856, "annotation": {"number": 64, "value": 127}, "group": "control_change"}, {"time": 1878, "annotation": {"number": 64, "value": 0}, "group": "control_change"}, {"time": 1880, "annotation": {"number": 64, "value": 127}, "group": "control_change"}, {"time": 1902, "annotation": {"number": 64, "value": 0}, "group": "control_change"}, {"time": 1905, "annotation": {"number": 64, "value": 127}, "group": "control_change"}, {"time": 1926, "annotation": {"number": 64, "value": 0}, "group": "control_change"}, {"time": 1928, "annotation": {"number": 64, "value": 127}, "group": "control_change"}, {"time": 1950, "annotation": {"number": 64, "value": 0}, "group": "control_change"}, {"time": 1952, "annotation": {"number": 64, "value": 127}, "group": "control_change"}, {"time": 1961, "annotation": {"number": 64, "value": 0}, "group": "control_change"}, {"time": 1964, "annotation": {"number": 64, "value": 127}, "group": "control_change"}, {"time": 1974, "annotation": {"number": 64, "value": 0}, "group": "control_change"}, {"time": 1976, "annotation": {"number": 64, "value": 127}, "group": "control_change"}, {"time": 1987, "annotation": {"number": 64, "value": 0}, "group": "control_change"}, {"time": 1989, "annotation": {"number": 64, "value": 127}, "group": "control_change"}, {"time": 1997, "annotation": {"number": 64, "value": 0}, "group": "control_change"}, {"time": 2001, "annotation": {"number": 64, "value": 127}, "group": "control_change"}, {"time": 2004, "annotation": {"number": 64, "value": 0}, "group": "control_change"}, {"time": 2013, "annotation": {"number": 64, "value": 127}, "group": "control_change"}, {"time": 2022, "annotation": {"number": 64, "value": 0}, "group": "control_change"}, {"time": 2023, "annotation": {"number": 64, "value": 127}, "group": "control_change"}, {"time": 2045, "annotation": {"number": 64, "value": 0}, "group": "control_change"}, {"time": 2049, "annotation": {"number": 64, "value": 127}, "group": "control_change"}, {"time": 2070, "annotation": {"number": 64, "value": 0}, "group": "control_change"}, {"time": 2072, "annotation": {"number": 64, "value": 127}, "group": "control_change"}, {"time": 2094, "annotation": {"number": 64, "value": 0}, "group": "control_change"}, {"time": 2096, "annotation": {"number": 64, "value": 127}, "group": "control_change"}, {"time": 2118, "annotation": {"number": 64, "value": 0}, "group": "control_change"}, {"time": 2120, "annotation": {"number": 64, "value": 127}, "group": "control_change"}, {"time": 2142, "annotation": {"number": 64, "value": 0}, "group": "control_change"}, {"time": 2145, "annotation": {"number": 64, "value": 127}, "group": "control_change"}, {"time": 2166, "annotation": {"number": 64, "value": 0}, "group": "control_change"}, {"time": 2168, "annotation": {"number": 64, "value": 127}, "group": "control_change"}, {"time": 2190, "annotation": {"number": 64, "value": 0}, "group": "control_change"}, {"time": 2192, "annotation": {"number": 64, "value": 127}, "group": "control_change"}, {"time": 2201, "annotation": {"number": 64, "value": 0}, "group": "control_change"}, {"time": 2204, "annotation": {"number": 64, "value": 127}, "group": "control_change"}, {"time": 2214, "annotation": {"number": 64, "value": 0}, "group": "control_change"}, {"time": 2216, "annotation": {"number": 64, "value": 127}, "group": "control_change"}, {"time": 2227, "annotation": {"number": 64, "value": 0}, "group": "control_change"}, {"time": 2229, "annotation": {"number": 64, "value": 127}, "group": "control_change"}, {"time": 2237, "annotation": {"number": 64, "value": 0}, "group": "control_change"}, {"time": 2241, "annotation": {"number": 64, "value": 127}, "group": "control_change"}, {"time": 2244, "annotation": {"number": 64, "value": 0}, "group": "control_change"}, {"time": 2253, "annotation": {"number": 64, "value": 127}, "group": "control_change"}, {"time": 2262, "annotation": {"number": 64, "value": 0}, "group": "control_change"}, {"time": 2264, "annotation": {"number": 64, "value": 127}, "group": "control_change"}, {"time": 2286, "annotation": {"number": 64, "value": 0}, "group": "control_change"}, {"time": 2299, "annotation": {"number": 64, "value": 127}, "group": "control_change"}, {"time": 2334, "annotation": {"number": 64, "value": 0}, "group": "control_change"}, {"time": 2336, "annotation": {"number": 64, "value": 127}, "group": "control_change"}, {"time": 2382, "annotation": {"number": 64, "value": 0}, "group": "control_change"}, {"time": 2384, "annotation": {"number": 64, "value": 127}, "group": "control_change"}, {"time": 2407, "annotation": {"number": 64, "value": 0}, "group": "control_change"}, {"time": 2409, "annotation": {"number": 64, "value": 127}, "group": "control_change"}, {"time": 2430, "annotation": {"number": 64, "value": 0}, "group": "control_change"}, {"time": 2432, "annotation": {"number": 64, "value": 127}, "group": "control_change"}, {"time": 2454, "annotation": {"number": 64, "value": 0}, "group": "control_change"}, {"time": 2456, "annotation": {"number": 64, "value": 127}, "group": "control_change"}, {"time": 2478, "annotation": {"number": 64, "value": 0}, "group": "control_change"}, {"time": 2491, "annotation": {"number": 64, "value": 127}, "group": "control_change"}, {"time": 2526, "annotation": {"number": 64, "value": 0}, "group": "control_change"}, {"time": 2528, "annotation": {"number": 64, "value": 127}, "group": "control_change"}]}]}