{"metadata": {"schema_version": "0.2", "title": "None", "source_filename": "092.mid", "source_format": "midi"}, "resolution": 12, "tempos": [{"time": 0, "qpm": 78.40001254400201}, {"time": 204, "qpm": 78.000078000078}, {"time": 396, "qpm": 78.40001254400201}, {"time": 492, "qpm": 77.000077000077}, {"time": 576, "qpm": 78.000078000078}, {"time": 804, "qpm": 78.50002158750594}, {"time": 1020, "qpm": 78.000078000078}], "time_signatures": [{"time": 0, "numerator": 1, "denominator": 4}], "tracks": [{"program": 0, "is_drum": false, "name": "MELODY", "notes": [{"time": 438, "pitch": 66, "duration": 6, "velocity": 117}, {"time": 442, "pitch": 68, "duration": 5, "velocity": 100}, {"time": 446, "pitch": 70, "duration": 3, "velocity": 102}, {"time": 450, "pitch": 73, "duration": 7, "velocity": 127}, {"time": 458, "pitch": 73, "duration": 2, "velocity": 122}, {"time": 462, "pitch": 73, "duration": 16, "velocity": 127}, {"time": 486, "pitch": 66, "duration": 5, "velocity": 107}, {"time": 490, "pitch": 68, "duration": 4, "velocity": 96}, {"time": 494, "pitch": 70, "duration": 4, "velocity": 95}, {"time": 498, "pitch": 75, "duration": 6, "velocity": 112}, {"time": 506, "pitch": 75, "duration": 3, "velocity": 122}, {"time": 510, "pitch": 73, "duration": 19, "velocity": 127}, {"time": 534, "pitch": 63, "duration": 4, "velocity": 117}, {"time": 538, "pitch": 65, "duration": 4, "velocity": 81}, {"time": 542, "pitch": 66, "duration": 4, "velocity": 107}, {"time": 546, "pitch": 68, "duration": 6, "velocity": 102}, {"time": 554, "pitch": 70, "duration": 4, "velocity": 112}, {"time": 558, "pitch": 75, "duration": 8, "velocity": 117}, {"time": 566, "pitch": 73, "duration": 10, "velocity": 112}, {"time": 578, "pitch": 70, "duration": 2, "velocity": 117}, {"time": 582, "pitch": 68, "duration": 7, "velocity": 107}, {"time": 586, "pitch": 70, "duration": 15, "velocity": 99}, {"time": 630, "pitch": 66, "duration": 6, "velocity": 117}, {"time": 634, "pitch": 68, "duration": 5, "velocity": 100}, {"time": 638, "pitch": 70, "duration": 3, "velocity": 102}, {"time": 642, "pitch": 73, "duration": 7, "velocity": 127}, {"time": 650, "pitch": 73, "duration": 2, "velocity": 122}, {"time": 654, "pitch": 73, "duration": 16, "velocity": 127}, {"time": 678, "pitch": 66, "duration": 5, "velocity": 107}, {"time": 682, "pitch": 68, "duration": 4, "velocity": 96}, {"time": 686, "pitch": 70, "duration": 4, "velocity": 95}, {"time": 690, "pitch": 75, "duration": 6, "velocity": 112}, {"time": 698, "pitch": 75, "duration": 3, "velocity": 122}, {"time": 702, "pitch": 73, "duration": 4, "velocity": 127}, {"time": 706, "pitch": 75, "duration": 12, "velocity": 127}, {"time": 726, "pitch": 63, "duration": 4, "velocity": 117}, {"time": 730, "pitch": 65, "duration": 4, "velocity": 81}, {"time": 734, "pitch": 66, "duration": 4, "velocity": 107}, {"time": 738, "pitch": 68, "duration": 6, "velocity": 102}, {"time": 746, "pitch": 70, "duration": 4, "velocity": 112}, {"time": 750, "pitch": 75, "duration": 8, "velocity": 117}, {"time": 758, "pitch": 73, "duration": 10, "velocity": 112}, {"time": 770, "pitch": 66, "duration": 3, "velocity": 107}, {"time": 774, "pitch": 63, "duration": 7, "velocity": 107}, {"time": 778, "pitch": 66, "duration": 28, "velocity": 99}, {"time": 819, "pitch": 78, "duration": 2, "velocity": 122}, {"time": 823, "pitch": 77, "duration": 8, "velocity": 107}, {"time": 834, "pitch": 77, "duration": 6, "velocity": 127}, {"time": 843, "pitch": 74, "duration": 3, "velocity": 112}, {"time": 847, "pitch": 70, "duration": 13, "velocity": 107}, {"time": 866, "pitch": 70, "duration": 4, "velocity": 117}, {"time": 870, "pitch": 75, "duration": 7, "velocity": 102}, {"time": 878, "pitch": 75, "duration": 7, "velocity": 127}, {"time": 890, "pitch": 77, "duration": 5, "velocity": 127}, {"time": 894, "pitch": 75, "duration": 11, "velocity": 127}, {"time": 914, "pitch": 78, "duration": 3, "velocity": 127}, {"time": 918, "pitch": 77, "duration": 5, "velocity": 107}, {"time": 926, "pitch": 77, "duration": 2, "velocity": 107}, {"time": 930, "pitch": 77, "duration": 2, "velocity": 97}, {"time": 934, "pitch": 77, "duration": 2, "velocity": 112}, {"time": 938, "pitch": 74, "duration": 4, "velocity": 127}, {"time": 942, "pitch": 70, "duration": 15, "velocity": 111}, {"time": 958, "pitch": 70, "duration": 2, "velocity": 117}, {"time": 962, "pitch": 70, "duration": 3, "velocity": 112}, {"time": 966, "pitch": 82, "duration": 7, "velocity": 127}, {"time": 974, "pitch": 80, "duration": 11, "velocity": 127}, {"time": 982, "pitch": 78, "duration": 5, "velocity": 122}, {"time": 986, "pitch": 77, "duration": 4, "velocity": 90}, {"time": 990, "pitch": 78, "duration": 18, "velocity": 112}, {"time": 1010, "pitch": 73, "duration": 3, "velocity": 117}, {"time": 1014, "pitch": 75, "duration": 6, "velocity": 107}, {"time": 1022, "pitch": 75, "duration": 2, "velocity": 112}, {"time": 1026, "pitch": 75, "duration": 5, "velocity": 127}, {"time": 1034, "pitch": 75, "duration": 2, "velocity": 117}, {"time": 1038, "pitch": 75, "duration": 6, "velocity": 127}, {"time": 1046, "pitch": 75, "duration": 6, "velocity": 117}, {"time": 1054, "pitch": 73, "duration": 4, "velocity": 112}, {"time": 1058, "pitch": 71, "duration": 4, "velocity": 99}, {"time": 1062, "pitch": 73, "duration": 22, "velocity": 107}, {"time": 1086, "pitch": 70, "duration": 17, "velocity": 127}, {"time": 1106, "pitch": 73, "duration": 3, "velocity": 117}, {"time": 1110, "pitch": 75, "duration": 5, "velocity": 112}, {"time": 1118, "pitch": 75, "duration": 2, "velocity": 122}, {"time": 1122, "pitch": 75, "duration": 6, "velocity": 122}, {"time": 1130, "pitch": 75, "duration": 3, "velocity": 100}, {"time": 1134, "pitch": 75, "duration": 6, "velocity": 117}, {"time": 1142, "pitch": 78, "duration": 10, "velocity": 127}, {"time": 1154, "pitch": 75, "duration": 12, "velocity": 107}, {"time": 1162, "pitch": 73, "duration": 29, "velocity": 117}, {"time": 1194, "pitch": 73, "duration": 3, "velocity": 122}, {"time": 1198, "pitch": 70, "duration": 4, "velocity": 100}, {"time": 1202, "pitch": 68, "duration": 4, "velocity": 89}, {"time": 1206, "pitch": 70, "duration": 34, "velocity": 102}, {"time": 1242, "pitch": 73, "duration": 3, "velocity": 127}, {"time": 1246, "pitch": 70, "duration": 4, "velocity": 107}, {"time": 1250, "pitch": 68, "duration": 5, "velocity": 93}, {"time": 1254, "pitch": 70, "duration": 10, "velocity": 100}, {"time": 1266, "pitch": 63, "duration": 27, "velocity": 100}, {"time": 1290, "pitch": 63, "duration": 3, "velocity": 122}, {"time": 1294, "pitch": 65, "duration": 4, "velocity": 97}, {"time": 1298, "pitch": 66, "duration": 4, "velocity": 122}, {"time": 1302, "pitch": 68, "duration": 9, "velocity": 117}, {"time": 1310, "pitch": 70, "duration": 3, "velocity": 100}, {"time": 1314, "pitch": 68, "duration": 6, "velocity": 100}, {"time": 1322, "pitch": 70, "duration": 3, "velocity": 112}, {"time": 1326, "pitch": 75, "duration": 7, "velocity": 112}, {"time": 1338, "pitch": 73, "duration": 7, "velocity": 122}, {"time": 1346, "pitch": 70, "duration": 3, "velocity": 127}, {"time": 1350, "pitch": 68, "duration": 6, "velocity": 117}, {"time": 1358, "pitch": 70, "duration": 31, "velocity": 117}, {"time": 1386, "pitch": 73, "duration": 3, "velocity": 122}, {"time": 1390, "pitch": 70, "duration": 3, "velocity": 99}, {"time": 1394, "pitch": 68, "duration": 2, "velocity": 100}, {"time": 1398, "pitch": 70, "duration": 32, "velocity": 127}, {"time": 1434, "pitch": 73, "duration": 3, "velocity": 112}, {"time": 1438, "pitch": 70, "duration": 3, "velocity": 100}, {"time": 1442, "pitch": 68, "duration": 2, "velocity": 99}, {"time": 1446, "pitch": 70, "duration": 7, "velocity": 107}, {"time": 1454, "pitch": 63, "duration": 16, "velocity": 117}, {"time": 1483, "pitch": 63, "duration": 2, "velocity": 112}, {"time": 1487, "pitch": 65, "duration": 3, "velocity": 90}, {"time": 1491, "pitch": 66, "duration": 2, "velocity": 122}, {"time": 1495, "pitch": 68, "duration": 5, "velocity": 122}, {"time": 1503, "pitch": 70, "duration": 2, "velocity": 117}, {"time": 1507, "pitch": 68, "duration": 6, "velocity": 127}, {"time": 1515, "pitch": 70, "duration": 2, "velocity": 112}, {"time": 1519, "pitch": 75, "duration": 7, "velocity": 117}, {"time": 1527, "pitch": 73, "duration": 12, "velocity": 122}, {"time": 1538, "pitch": 66, "duration": 2, "velocity": 100}, {"time": 1543, "pitch": 63, "duration": 7, "velocity": 122}, {"time": 1550, "pitch": 66, "duration": 39, "velocity": 117}, {"time": 1971, "pitch": 78, "duration": 2, "velocity": 122}, {"time": 1975, "pitch": 77, "duration": 8, "velocity": 107}, {"time": 1986, "pitch": 77, "duration": 6, "velocity": 127}, {"time": 1995, "pitch": 74, "duration": 3, "velocity": 112}, {"time": 1999, "pitch": 70, "duration": 13, "velocity": 107}, {"time": 2018, "pitch": 70, "duration": 4, "velocity": 117}, {"time": 2022, "pitch": 75, "duration": 7, "velocity": 102}, {"time": 2030, "pitch": 75, "duration": 7, "velocity": 127}, {"time": 2042, "pitch": 77, "duration": 5, "velocity": 127}, {"time": 2046, "pitch": 75, "duration": 11, "velocity": 127}, {"time": 2066, "pitch": 78, "duration": 3, "velocity": 127}, {"time": 2070, "pitch": 77, "duration": 5, "velocity": 107}, {"time": 2078, "pitch": 77, "duration": 2, "velocity": 107}, {"time": 2082, "pitch": 77, "duration": 2, "velocity": 97}, {"time": 2086, "pitch": 77, "duration": 2, "velocity": 112}, {"time": 2090, "pitch": 74, "duration": 4, "velocity": 127}, {"time": 2094, "pitch": 70, "duration": 15, "velocity": 111}, {"time": 2110, "pitch": 70, "duration": 2, "velocity": 117}, {"time": 2114, "pitch": 70, "duration": 3, "velocity": 112}, {"time": 2118, "pitch": 82, "duration": 7, "velocity": 127}, {"time": 2126, "pitch": 80, "duration": 11, "velocity": 127}, {"time": 2134, "pitch": 78, "duration": 5, "velocity": 122}, {"time": 2138, "pitch": 77, "duration": 4, "velocity": 90}, {"time": 2142, "pitch": 78, "duration": 18, "velocity": 112}, {"time": 2162, "pitch": 73, "duration": 3, "velocity": 117}, {"time": 2166, "pitch": 75, "duration": 6, "velocity": 107}, {"time": 2174, "pitch": 75, "duration": 2, "velocity": 112}, {"time": 2178, "pitch": 75, "duration": 5, "velocity": 127}, {"time": 2186, "pitch": 75, "duration": 2, "velocity": 117}, {"time": 2190, "pitch": 75, "duration": 6, "velocity": 127}, {"time": 2198, "pitch": 75, "duration": 6, "velocity": 117}, {"time": 2206, "pitch": 73, "duration": 4, "velocity": 112}, {"time": 2210, "pitch": 71, "duration": 4, "velocity": 99}, {"time": 2214, "pitch": 73, "duration": 22, "velocity": 107}, {"time": 2238, "pitch": 70, "duration": 17, "velocity": 127}, {"time": 2258, "pitch": 73, "duration": 3, "velocity": 117}, {"time": 2262, "pitch": 75, "duration": 5, "velocity": 112}, {"time": 2270, "pitch": 75, "duration": 2, "velocity": 122}, {"time": 2274, "pitch": 75, "duration": 6, "velocity": 122}, {"time": 2282, "pitch": 75, "duration": 3, "velocity": 100}, {"time": 2286, "pitch": 75, "duration": 6, "velocity": 117}, {"time": 2294, "pitch": 78, "duration": 10, "velocity": 127}, {"time": 2306, "pitch": 75, "duration": 12, "velocity": 107}, {"time": 2314, "pitch": 73, "duration": 29, "velocity": 117}, {"time": 2346, "pitch": 73, "duration": 3, "velocity": 122}, {"time": 2350, "pitch": 70, "duration": 4, "velocity": 100}, {"time": 2354, "pitch": 68, "duration": 4, "velocity": 89}, {"time": 2358, "pitch": 70, "duration": 34, "velocity": 102}, {"time": 2394, "pitch": 73, "duration": 3, "velocity": 127}, {"time": 2398, "pitch": 70, "duration": 4, "velocity": 107}, {"time": 2402, "pitch": 68, "duration": 5, "velocity": 93}, {"time": 2406, "pitch": 70, "duration": 10, "velocity": 100}, {"time": 2418, "pitch": 63, "duration": 27, "velocity": 100}, {"time": 2442, "pitch": 63, "duration": 3, "velocity": 122}, {"time": 2446, "pitch": 65, "duration": 4, "velocity": 97}, {"time": 2450, "pitch": 66, "duration": 4, "velocity": 122}, {"time": 2454, "pitch": 68, "duration": 9, "velocity": 117}, {"time": 2462, "pitch": 70, "duration": 3, "velocity": 100}, {"time": 2466, "pitch": 68, "duration": 6, "velocity": 100}, {"time": 2474, "pitch": 70, "duration": 3, "velocity": 112}, {"time": 2478, "pitch": 75, "duration": 7, "velocity": 112}, {"time": 2490, "pitch": 73, "duration": 7, "velocity": 122}, {"time": 2498, "pitch": 70, "duration": 3, "velocity": 127}, {"time": 2502, "pitch": 68, "duration": 6, "velocity": 117}, {"time": 2510, "pitch": 70, "duration": 31, "velocity": 117}, {"time": 2538, "pitch": 73, "duration": 3, "velocity": 122}, {"time": 2542, "pitch": 70, "duration": 3, "velocity": 99}, {"time": 2546, "pitch": 68, "duration": 2, "velocity": 100}, {"time": 2550, "pitch": 70, "duration": 32, "velocity": 127}, {"time": 2586, "pitch": 73, "duration": 3, "velocity": 112}, {"time": 2590, "pitch": 70, "duration": 3, "velocity": 100}, {"time": 2594, "pitch": 68, "duration": 2, "velocity": 99}, {"time": 2598, "pitch": 70, "duration": 7, "velocity": 107}, {"time": 2606, "pitch": 63, "duration": 16, "velocity": 117}, {"time": 2635, "pitch": 63, "duration": 2, "velocity": 112}, {"time": 2639, "pitch": 65, "duration": 3, "velocity": 90}, {"time": 2643, "pitch": 66, "duration": 2, "velocity": 122}, {"time": 2647, "pitch": 68, "duration": 5, "velocity": 122}, {"time": 2655, "pitch": 70, "duration": 2, "velocity": 117}, {"time": 2659, "pitch": 68, "duration": 6, "velocity": 127}, {"time": 2667, "pitch": 70, "duration": 2, "velocity": 112}, {"time": 2671, "pitch": 75, "duration": 7, "velocity": 117}, {"time": 2679, "pitch": 73, "duration": 12, "velocity": 122}, {"time": 2690, "pitch": 66, "duration": 2, "velocity": 100}, {"time": 2695, "pitch": 63, "duration": 7, "velocity": 122}, {"time": 2702, "pitch": 66, "duration": 28, "velocity": 117}, {"time": 2730, "pitch": 63, "duration": 4, "velocity": 99}, {"time": 2734, "pitch": 65, "duration": 4, "velocity": 92}, {"time": 2738, "pitch": 66, "duration": 4, "velocity": 112}, {"time": 2742, "pitch": 68, "duration": 7, "velocity": 112}, {"time": 2750, "pitch": 70, "duration": 5, "velocity": 102}, {"time": 2754, "pitch": 68, "duration": 7, "velocity": 95}, {"time": 2762, "pitch": 70, "duration": 3, "velocity": 100}, {"time": 2766, "pitch": 75, "duration": 12, "velocity": 102}, {"time": 2778, "pitch": 73, "duration": 32, "velocity": 107}, {"time": 2816, "pitch": 66, "duration": 24, "velocity": 112}, {"time": 2839, "pitch": 63, "duration": 43, "velocity": 100}, {"time": 2882, "pitch": 66, "duration": 67, "velocity": 102}]}, {"program": 0, "is_drum": false, "name": "BRIDGE", "notes": [{"time": 6, "pitch": 78, "duration": 11, "velocity": 107}, {"time": 18, "pitch": 80, "duration": 7, "velocity": 122}, {"time": 26, "pitch": 78, "duration": 3, "velocity": 107}, {"time": 30, "pitch": 73, "duration": 18, "velocity": 100}, {"time": 54, "pitch": 75, "duration": 10, "velocity": 117}, {"time": 66, "pitch": 77, "duration": 9, "velocity": 95}, {"time": 74, "pitch": 75, "duration": 4, "velocity": 92}, {"time": 78, "pitch": 70, "duration": 18, "velocity": 99}, {"time": 102, "pitch": 70, "duration": 9, "velocity": 127}, {"time": 114, "pitch": 68, "duration": 8, "velocity": 100}, {"time": 122, "pitch": 73, "duration": 4, "velocity": 96}, {"time": 126, "pitch": 70, "duration": 10, "velocity": 107}, {"time": 138, "pitch": 68, "duration": 7, "velocity": 99}, {"time": 146, "pitch": 61, "duration": 4, "velocity": 89}, {"time": 150, "pitch": 63, "duration": 8, "velocity": 102}, {"time": 158, "pitch": 70, "duration": 23, "velocity": 95}, {"time": 198, "pitch": 78, "duration": 10, "velocity": 127}, {"time": 210, "pitch": 80, "duration": 8, "velocity": 122}, {"time": 218, "pitch": 78, "duration": 4, "velocity": 102}, {"time": 222, "pitch": 73, "duration": 20, "velocity": 112}, {"time": 246, "pitch": 75, "duration": 10, "velocity": 122}, {"time": 258, "pitch": 77, "duration": 8, "velocity": 100}, {"time": 266, "pitch": 75, "duration": 3, "velocity": 83}, {"time": 270, "pitch": 70, "duration": 23, "velocity": 99}, {"time": 294, "pitch": 70, "duration": 10, "velocity": 117}, {"time": 306, "pitch": 68, "duration": 7, "velocity": 112}, {"time": 314, "pitch": 73, "duration": 4, "velocity": 93}, {"time": 318, "pitch": 70, "duration": 11, "velocity": 117}, {"time": 330, "pitch": 68, "duration": 8, "velocity": 100}, {"time": 338, "pitch": 61, "duration": 4, "velocity": 93}, {"time": 342, "pitch": 63, "duration": 9, "velocity": 112}, {"time": 350, "pitch": 66, "duration": 40, "velocity": 117}, {"time": 390, "pitch": 49, "duration": 16, "velocity": 70}, {"time": 394, "pitch": 53, "duration": 12, "velocity": 68}, {"time": 398, "pitch": 57, "duration": 5, "velocity": 76}, {"time": 402, "pitch": 61, "duration": 11, "velocity": 82}, {"time": 406, "pitch": 65, "duration": 5, "velocity": 82}, {"time": 410, "pitch": 69, "duration": 5, "velocity": 86}, {"time": 414, "pitch": 73, "duration": 24, "velocity": 88}, {"time": 436, "pitch": 90, "duration": 2, "velocity": 84}, {"time": 437, "pitch": 89, "duration": 3, "velocity": 79}, {"time": 439, "pitch": 87, "duration": 2, "velocity": 78}, {"time": 440, "pitch": 85, "duration": 7, "velocity": 71}, {"time": 470, "pitch": 89, "duration": 9, "velocity": 96}, {"time": 478, "pitch": 90, "duration": 5, "velocity": 93}, {"time": 482, "pitch": 92, "duration": 4, "velocity": 76}, {"time": 486, "pitch": 94, "duration": 32, "velocity": 99}, {"time": 514, "pitch": 75, "duration": 6, "velocity": 96}, {"time": 518, "pitch": 78, "duration": 5, "velocity": 88}, {"time": 522, "pitch": 80, "duration": 5, "velocity": 93}, {"time": 526, "pitch": 82, "duration": 16, "velocity": 112}, {"time": 590, "pitch": 66, "duration": 5, "velocity": 92}, {"time": 594, "pitch": 68, "duration": 8, "velocity": 86}, {"time": 602, "pitch": 70, "duration": 3, "velocity": 85}, {"time": 606, "pitch": 70, "duration": 23, "velocity": 97}, {"time": 662, "pitch": 66, "duration": 4, "velocity": 93}, {"time": 666, "pitch": 68, "duration": 4, "velocity": 82}, {"time": 670, "pitch": 70, "duration": 5, "velocity": 67}, {"time": 674, "pitch": 73, "duration": 5, "velocity": 90}, {"time": 678, "pitch": 82, "duration": 14, "velocity": 66}, {"time": 710, "pitch": 78, "duration": 10, "velocity": 93}, {"time": 718, "pitch": 73, "duration": 8, "velocity": 70}, {"time": 726, "pitch": 75, "duration": 22, "velocity": 88}, {"time": 786, "pitch": 73, "duration": 24, "velocity": 102}, {"time": 786, "pitch": 85, "duration": 23, "velocity": 88}, {"time": 810, "pitch": 73, "duration": 2, "velocity": 72}, {"time": 810, "pitch": 85, "duration": 2, "velocity": 67}, {"time": 814, "pitch": 73, "duration": 2, "velocity": 82}, {"time": 814, "pitch": 85, "duration": 2, "velocity": 73}, {"time": 818, "pitch": 73, "duration": 3, "velocity": 99}, {"time": 818, "pitch": 85, "duration": 3, "velocity": 93}, {"time": 1170, "pitch": 78, "duration": 5, "velocity": 99}, {"time": 1174, "pitch": 80, "duration": 5, "velocity": 88}, {"time": 1178, "pitch": 82, "duration": 6, "velocity": 99}, {"time": 1182, "pitch": 85, "duration": 19, "velocity": 107}, {"time": 1218, "pitch": 97, "duration": 5, "velocity": 107}, {"time": 1222, "pitch": 94, "duration": 4, "velocity": 74}, {"time": 1226, "pitch": 92, "duration": 5, "velocity": 58}, {"time": 1230, "pitch": 94, "duration": 20, "velocity": 97}, {"time": 1250, "pitch": 90, "duration": 5, "velocity": 99}, {"time": 1254, "pitch": 87, "duration": 16, "velocity": 81}, {"time": 1362, "pitch": 70, "duration": 4, "velocity": 89}, {"time": 1366, "pitch": 71, "duration": 5, "velocity": 81}, {"time": 1370, "pitch": 73, "duration": 5, "velocity": 96}, {"time": 1374, "pitch": 75, "duration": 19, "velocity": 107}, {"time": 1410, "pitch": 85, "duration": 5, "velocity": 100}, {"time": 1414, "pitch": 82, "duration": 5, "velocity": 83}, {"time": 1418, "pitch": 80, "duration": 6, "velocity": 69}, {"time": 1422, "pitch": 82, "duration": 26, "velocity": 102}, {"time": 1590, "pitch": 78, "duration": 11, "velocity": 107}, {"time": 1602, "pitch": 80, "duration": 7, "velocity": 122}, {"time": 1610, "pitch": 78, "duration": 3, "velocity": 107}, {"time": 1614, "pitch": 73, "duration": 18, "velocity": 100}, {"time": 1638, "pitch": 75, "duration": 10, "velocity": 117}, {"time": 1650, "pitch": 77, "duration": 9, "velocity": 95}, {"time": 1658, "pitch": 75, "duration": 4, "velocity": 92}, {"time": 1662, "pitch": 70, "duration": 18, "velocity": 99}, {"time": 1686, "pitch": 70, "duration": 9, "velocity": 127}, {"time": 1698, "pitch": 68, "duration": 8, "velocity": 100}, {"time": 1706, "pitch": 73, "duration": 4, "velocity": 96}, {"time": 1710, "pitch": 70, "duration": 10, "velocity": 107}, {"time": 1722, "pitch": 68, "duration": 7, "velocity": 99}, {"time": 1730, "pitch": 61, "duration": 4, "velocity": 89}, {"time": 1734, "pitch": 63, "duration": 8, "velocity": 102}, {"time": 1742, "pitch": 70, "duration": 23, "velocity": 95}, {"time": 1782, "pitch": 78, "duration": 10, "velocity": 127}, {"time": 1794, "pitch": 80, "duration": 8, "velocity": 122}, {"time": 1802, "pitch": 78, "duration": 4, "velocity": 102}, {"time": 1806, "pitch": 73, "duration": 20, "velocity": 112}, {"time": 1830, "pitch": 75, "duration": 10, "velocity": 122}, {"time": 1842, "pitch": 77, "duration": 8, "velocity": 100}, {"time": 1850, "pitch": 75, "duration": 3, "velocity": 83}, {"time": 1854, "pitch": 70, "duration": 23, "velocity": 99}, {"time": 1878, "pitch": 70, "duration": 10, "velocity": 117}, {"time": 1890, "pitch": 68, "duration": 7, "velocity": 112}, {"time": 1898, "pitch": 73, "duration": 4, "velocity": 93}, {"time": 1902, "pitch": 70, "duration": 11, "velocity": 117}, {"time": 1914, "pitch": 68, "duration": 8, "velocity": 100}, {"time": 1922, "pitch": 61, "duration": 4, "velocity": 93}, {"time": 1926, "pitch": 63, "duration": 9, "velocity": 112}, {"time": 1934, "pitch": 66, "duration": 40, "velocity": 117}, {"time": 2322, "pitch": 78, "duration": 5, "velocity": 99}, {"time": 2326, "pitch": 80, "duration": 5, "velocity": 88}, {"time": 2330, "pitch": 82, "duration": 6, "velocity": 99}, {"time": 2334, "pitch": 85, "duration": 19, "velocity": 107}, {"time": 2370, "pitch": 97, "duration": 5, "velocity": 107}, {"time": 2374, "pitch": 94, "duration": 4, "velocity": 74}, {"time": 2378, "pitch": 92, "duration": 5, "velocity": 58}, {"time": 2382, "pitch": 94, "duration": 20, "velocity": 97}, {"time": 2402, "pitch": 90, "duration": 5, "velocity": 99}, {"time": 2406, "pitch": 87, "duration": 16, "velocity": 81}, {"time": 2514, "pitch": 70, "duration": 4, "velocity": 89}, {"time": 2518, "pitch": 71, "duration": 5, "velocity": 81}, {"time": 2522, "pitch": 73, "duration": 5, "velocity": 96}, {"time": 2526, "pitch": 75, "duration": 19, "velocity": 107}, {"time": 2562, "pitch": 85, "duration": 5, "velocity": 100}, {"time": 2566, "pitch": 82, "duration": 5, "velocity": 83}, {"time": 2570, "pitch": 80, "duration": 6, "velocity": 69}, {"time": 2574, "pitch": 82, "duration": 26, "velocity": 102}, {"time": 2903, "pitch": 66, "duration": 10, "velocity": 100}, {"time": 2915, "pitch": 66, "duration": 4, "velocity": 99}, {"time": 2919, "pitch": 68, "duration": 5, "velocity": 117}, {"time": 2923, "pitch": 70, "duration": 4, "velocity": 86}, {"time": 2928, "pitch": 73, "duration": 12, "velocity": 117}, {"time": 2939, "pitch": 71, "duration": 10, "velocity": 97}, {"time": 2960, "pitch": 70, "duration": 66, "velocity": 117}, {"time": 2983, "pitch": 78, "duration": 46, "velocity": 93}, {"time": 2988, "pitch": 82, "duration": 40, "velocity": 60}, {"time": 2992, "pitch": 85, "duration": 5, "velocity": 75}, {"time": 2997, "pitch": 89, "duration": 5, "velocity": 71}, {"time": 3001, "pitch": 90, "duration": 28, "velocity": 78}], "annotations": [{"time": 6, "annotation": {"number": 64, "value": 58}, "group": "control_change"}, {"time": 30, "annotation": {"number": 64, "value": 59}, "group": "control_change"}, {"time": 78, "annotation": {"number": 64, "value": 60}, "group": "control_change"}, {"time": 162, "annotation": {"number": 64, "value": 61}, "group": "control_change"}, {"time": 270, "annotation": {"number": 64, "value": 62}, "group": "control_change"}, {"time": 390, "annotation": {"number": 64, "value": 63}, "group": "control_change"}, {"time": 462, "annotation": {"number": 64, "value": 64}, "group": "control_change"}, {"time": 750, "annotation": {"number": 64, "value": 63}, "group": "control_change"}, {"time": 918, "annotation": {"number": 64, "value": 62}, "group": "control_change"}, {"time": 1050, "annotation": {"number": 64, "value": 61}, "group": "control_change"}, {"time": 1134, "annotation": {"number": 64, "value": 60}, "group": "control_change"}, {"time": 1314, "annotation": {"number": 64, "value": 59}, "group": "control_change"}, {"time": 1434, "annotation": {"number": 64, "value": 58}, "group": "control_change"}, {"time": 1554, "annotation": {"number": 64, "value": 57}, "group": "control_change"}, {"time": 1650, "annotation": {"number": 64, "value": 56}, "group": "control_change"}, {"time": 1746, "annotation": {"number": 64, "value": 55}, "group": "control_change"}, {"time": 1950, "annotation": {"number": 64, "value": 54}, "group": "control_change"}, {"time": 2094, "annotation": {"number": 64, "value": 53}, "group": "control_change"}, {"time": 2202, "annotation": {"number": 64, "value": 54}, "group": "control_change"}, {"time": 2250, "annotation": {"number": 64, "value": 55}, "group": "control_change"}, {"time": 2334, "annotation": {"number": 64, "value": 56}, "group": "control_change"}, {"time": 2430, "annotation": {"number": 64, "value": 57}, "group": "control_change"}, {"time": 2514, "annotation": {"number": 64, "value": 58}, "group": "control_change"}, {"time": 2610, "annotation": {"number": 64, "value": 59}, "group": "control_change"}, {"time": 2646, "annotation": {"number": 64, "value": 60}, "group": "control_change"}, {"time": 2718, "annotation": {"number": 64, "value": 61}, "group": "control_change"}, {"time": 2910, "annotation": {"number": 64, "value": 60}, "group": "control_change"}]}, {"program": 0, "is_drum": false, "name": "PIANO", "notes": [{"time": 6, "pitch": 42, "duration": 15, "velocity": 75}, {"time": 6, "pitch": 58, "duration": 12, "velocity": 76}, {"time": 6, "pitch": 61, "duration": 17, "velocity": 76}, {"time": 18, "pitch": 66, "duration": 6, "velocity": 72}, {"time": 30, "pitch": 46, "duration": 15, "velocity": 85}, {"time": 30, "pitch": 58, "duration": 11, "velocity": 90}, {"time": 30, "pitch": 61, "duration": 12, "velocity": 83}, {"time": 42, "pitch": 58, "duration": 3, "velocity": 97}, {"time": 42, "pitch": 61, "duration": 3, "velocity": 95}, {"time": 42, "pitch": 65, "duration": 3, "velocity": 85}, {"time": 54, "pitch": 47, "duration": 16, "velocity": 44}, {"time": 54, "pitch": 54, "duration": 14, "velocity": 75}, {"time": 54, "pitch": 59, "duration": 10, "velocity": 93}, {"time": 54, "pitch": 63, "duration": 10, "velocity": 93}, {"time": 54, "pitch": 66, "duration": 10, "velocity": 96}, {"time": 66, "pitch": 63, "duration": 6, "velocity": 97}, {"time": 66, "pitch": 66, "duration": 6, "velocity": 93}, {"time": 70, "pitch": 59, "duration": 5, "velocity": 73}, {"time": 78, "pitch": 46, "duration": 19, "velocity": 74}, {"time": 78, "pitch": 58, "duration": 13, "velocity": 100}, {"time": 78, "pitch": 61, "duration": 13, "velocity": 86}, {"time": 90, "pitch": 65, "duration": 9, "velocity": 96}, {"time": 94, "pitch": 61, "duration": 8, "velocity": 78}, {"time": 98, "pitch": 58, "duration": 3, "velocity": 77}, {"time": 102, "pitch": 44, "duration": 17, "velocity": 92}, {"time": 114, "pitch": 56, "duration": 5, "velocity": 40}, {"time": 114, "pitch": 59, "duration": 5, "velocity": 88}, {"time": 114, "pitch": 63, "duration": 5, "velocity": 92}, {"time": 126, "pitch": 49, "duration": 13, "velocity": 59}, {"time": 126, "pitch": 61, "duration": 13, "velocity": 97}, {"time": 126, "pitch": 65, "duration": 11, "velocity": 93}, {"time": 126, "pitch": 68, "duration": 10, "velocity": 97}, {"time": 138, "pitch": 68, "duration": 6, "velocity": 107}, {"time": 142, "pitch": 61, "duration": 3, "velocity": 82}, {"time": 150, "pitch": 42, "duration": 18, "velocity": 58}, {"time": 150, "pitch": 54, "duration": 14, "velocity": 71}, {"time": 150, "pitch": 58, "duration": 15, "velocity": 97}, {"time": 150, "pitch": 61, "duration": 11, "velocity": 97}, {"time": 162, "pitch": 61, "duration": 5, "velocity": 74}, {"time": 162, "pitch": 66, "duration": 6, "velocity": 93}, {"time": 166, "pitch": 54, "duration": 4, "velocity": 70}, {"time": 170, "pitch": 61, "duration": 2, "velocity": 35}, {"time": 174, "pitch": 49, "duration": 17, "velocity": 95}, {"time": 174, "pitch": 56, "duration": 13, "velocity": 96}, {"time": 174, "pitch": 61, "duration": 10, "velocity": 99}, {"time": 174, "pitch": 65, "duration": 8, "velocity": 93}, {"time": 174, "pitch": 68, "duration": 9, "velocity": 96}, {"time": 186, "pitch": 68, "duration": 8, "velocity": 127}, {"time": 190, "pitch": 56, "duration": 2, "velocity": 97}, {"time": 194, "pitch": 61, "duration": 1, "velocity": 83}, {"time": 198, "pitch": 42, "duration": 18, "velocity": 93}, {"time": 198, "pitch": 58, "duration": 9, "velocity": 97}, {"time": 198, "pitch": 61, "duration": 7, "velocity": 86}, {"time": 210, "pitch": 58, "duration": 7, "velocity": 107}, {"time": 210, "pitch": 61, "duration": 7, "velocity": 107}, {"time": 214, "pitch": 54, "duration": 4, "velocity": 67}, {"time": 218, "pitch": 58, "duration": 3, "velocity": 63}, {"time": 218, "pitch": 61, "duration": 2, "velocity": 34}, {"time": 222, "pitch": 46, "duration": 15, "velocity": 79}, {"time": 222, "pitch": 58, "duration": 10, "velocity": 99}, {"time": 222, "pitch": 61, "duration": 10, "velocity": 92}, {"time": 222, "pitch": 65, "duration": 10, "velocity": 89}, {"time": 234, "pitch": 65, "duration": 5, "velocity": 102}, {"time": 238, "pitch": 46, "duration": 2, "velocity": 93}, {"time": 242, "pitch": 58, "duration": 1, "velocity": 100}, {"time": 246, "pitch": 47, "duration": 18, "velocity": 70}, {"time": 246, "pitch": 54, "duration": 19, "velocity": 93}, {"time": 246, "pitch": 59, "duration": 11, "velocity": 95}, {"time": 258, "pitch": 63, "duration": 9, "velocity": 112}, {"time": 258, "pitch": 66, "duration": 8, "velocity": 100}, {"time": 266, "pitch": 59, "duration": 2, "velocity": 54}, {"time": 270, "pitch": 46, "duration": 15, "velocity": 83}, {"time": 270, "pitch": 58, "duration": 10, "velocity": 99}, {"time": 270, "pitch": 61, "duration": 10, "velocity": 93}, {"time": 282, "pitch": 58, "duration": 6, "velocity": 99}, {"time": 282, "pitch": 61, "duration": 10, "velocity": 97}, {"time": 286, "pitch": 46, "duration": 2, "velocity": 78}, {"time": 290, "pitch": 58, "duration": 2, "velocity": 85}, {"time": 294, "pitch": 44, "duration": 13, "velocity": 99}, {"time": 294, "pitch": 56, "duration": 9, "velocity": 95}, {"time": 294, "pitch": 59, "duration": 10, "velocity": 81}, {"time": 294, "pitch": 63, "duration": 7, "velocity": 81}, {"time": 306, "pitch": 59, "duration": 2, "velocity": 86}, {"time": 306, "pitch": 63, "duration": 3, "velocity": 89}, {"time": 310, "pitch": 44, "duration": 3, "velocity": 96}, {"time": 318, "pitch": 49, "duration": 14, "velocity": 92}, {"time": 318, "pitch": 61, "duration": 10, "velocity": 95}, {"time": 318, "pitch": 65, "duration": 10, "velocity": 92}, {"time": 318, "pitch": 68, "duration": 7, "velocity": 90}, {"time": 330, "pitch": 65, "duration": 8, "velocity": 96}, {"time": 330, "pitch": 68, "duration": 8, "velocity": 92}, {"time": 334, "pitch": 49, "duration": 2, "velocity": 78}, {"time": 338, "pitch": 61, "duration": 2, "velocity": 58}, {"time": 342, "pitch": 42, "duration": 19, "velocity": 85}, {"time": 342, "pitch": 58, "duration": 9, "velocity": 127}, {"time": 342, "pitch": 61, "duration": 9, "velocity": 99}, {"time": 350, "pitch": 54, "duration": 4, "velocity": 26}, {"time": 354, "pitch": 58, "duration": 6, "velocity": 99}, {"time": 354, "pitch": 61, "duration": 7, "velocity": 100}, {"time": 358, "pitch": 54, "duration": 4, "velocity": 63}, {"time": 362, "pitch": 58, "duration": 1, "velocity": 69}, {"time": 362, "pitch": 61, "duration": 2, "velocity": 53}, {"time": 366, "pitch": 42, "duration": 19, "velocity": 96}, {"time": 366, "pitch": 58, "duration": 17, "velocity": 100}, {"time": 366, "pitch": 61, "duration": 17, "velocity": 112}, {"time": 382, "pitch": 54, "duration": 5, "velocity": 55}, {"time": 386, "pitch": 58, "duration": 2, "velocity": 55}, {"time": 386, "pitch": 61, "duration": 2, "velocity": 42}, {"time": 390, "pitch": 49, "duration": 42, "velocity": 90}, {"time": 390, "pitch": 61, "duration": 41, "velocity": 97}, {"time": 390, "pitch": 65, "duration": 40, "velocity": 97}, {"time": 390, "pitch": 69, "duration": 39, "velocity": 88}, {"time": 438, "pitch": 42, "duration": 24, "velocity": 95}, {"time": 438, "pitch": 58, "duration": 12, "velocity": 72}, {"time": 438, "pitch": 61, "duration": 11, "velocity": 66}, {"time": 446, "pitch": 54, "duration": 6, "velocity": 52}, {"time": 450, "pitch": 58, "duration": 3, "velocity": 69}, {"time": 450, "pitch": 61, "duration": 1, "velocity": 95}, {"time": 450, "pitch": 66, "duration": 14, "velocity": 102}, {"time": 454, "pitch": 54, "duration": 9, "velocity": 43}, {"time": 458, "pitch": 58, "duration": 5, "velocity": 73}, {"time": 462, "pitch": 42, "duration": 19, "velocity": 73}, {"time": 470, "pitch": 54, "duration": 13, "velocity": 42}, {"time": 474, "pitch": 66, "duration": 11, "velocity": 93}, {"time": 478, "pitch": 61, "duration": 7, "velocity": 39}, {"time": 482, "pitch": 58, "duration": 3, "velocity": 76}, {"time": 486, "pitch": 51, "duration": 22, "velocity": 81}, {"time": 490, "pitch": 63, "duration": 4, "velocity": 42}, {"time": 498, "pitch": 70, "duration": 16, "velocity": 74}, {"time": 502, "pitch": 58, "duration": 7, "velocity": 42}, {"time": 506, "pitch": 63, "duration": 14, "velocity": 68}, {"time": 510, "pitch": 51, "duration": 17, "velocity": 67}, {"time": 510, "pitch": 58, "duration": 13, "velocity": 72}, {"time": 522, "pitch": 54, "duration": 4, "velocity": 26}, {"time": 522, "pitch": 66, "duration": 11, "velocity": 102}, {"time": 522, "pitch": 70, "duration": 10, "velocity": 97}, {"time": 526, "pitch": 58, "duration": 2, "velocity": 78}, {"time": 530, "pitch": 63, "duration": 3, "velocity": 66}, {"time": 534, "pitch": 44, "duration": 19, "velocity": 72}, {"time": 546, "pitch": 59, "duration": 12, "velocity": 72}, {"time": 546, "pitch": 63, "duration": 12, "velocity": 82}, {"time": 546, "pitch": 68, "duration": 12, "velocity": 82}, {"time": 558, "pitch": 49, "duration": 13, "velocity": 70}, {"time": 570, "pitch": 65, "duration": 10, "velocity": 89}, {"time": 570, "pitch": 68, "duration": 12, "velocity": 96}, {"time": 578, "pitch": 61, "duration": 5, "velocity": 66}, {"time": 582, "pitch": 42, "duration": 18, "velocity": 85}, {"time": 586, "pitch": 54, "duration": 9, "velocity": 68}, {"time": 590, "pitch": 58, "duration": 6, "velocity": 71}, {"time": 594, "pitch": 61, "duration": 8, "velocity": 96}, {"time": 598, "pitch": 54, "duration": 2, "velocity": 75}, {"time": 606, "pitch": 49, "duration": 17, "velocity": 79}, {"time": 606, "pitch": 53, "duration": 16, "velocity": 71}, {"time": 606, "pitch": 56, "duration": 14, "velocity": 85}, {"time": 606, "pitch": 61, "duration": 14, "velocity": 81}, {"time": 606, "pitch": 65, "duration": 11, "velocity": 93}, {"time": 606, "pitch": 68, "duration": 10, "velocity": 93}, {"time": 618, "pitch": 68, "duration": 13, "velocity": 107}, {"time": 622, "pitch": 56, "duration": 2, "velocity": 75}, {"time": 626, "pitch": 61, "duration": 5, "velocity": 77}, {"time": 630, "pitch": 42, "duration": 23, "velocity": 86}, {"time": 634, "pitch": 54, "duration": 19, "velocity": 73}, {"time": 638, "pitch": 58, "duration": 4, "velocity": 59}, {"time": 642, "pitch": 61, "duration": 18, "velocity": 99}, {"time": 642, "pitch": 66, "duration": 21, "velocity": 95}, {"time": 650, "pitch": 58, "duration": 12, "velocity": 58}, {"time": 654, "pitch": 42, "duration": 17, "velocity": 68}, {"time": 654, "pitch": 54, "duration": 14, "velocity": 63}, {"time": 666, "pitch": 61, "duration": 7, "velocity": 102}, {"time": 666, "pitch": 66, "duration": 7, "velocity": 83}, {"time": 670, "pitch": 54, "duration": 3, "velocity": 68}, {"time": 674, "pitch": 58, "duration": 1, "velocity": 75}, {"time": 678, "pitch": 51, "duration": 17, "velocity": 60}, {"time": 678, "pitch": 58, "duration": 13, "velocity": 68}, {"time": 678, "pitch": 63, "duration": 9, "velocity": 92}, {"time": 678, "pitch": 66, "duration": 9, "velocity": 93}, {"time": 678, "pitch": 70, "duration": 9, "velocity": 92}, {"time": 690, "pitch": 66, "duration": 22, "velocity": 69}, {"time": 690, "pitch": 70, "duration": 21, "velocity": 89}, {"time": 694, "pitch": 58, "duration": 6, "velocity": 64}, {"time": 698, "pitch": 63, "duration": 12, "velocity": 66}, {"time": 702, "pitch": 51, "duration": 17, "velocity": 102}, {"time": 702, "pitch": 58, "duration": 13, "velocity": 86}, {"time": 714, "pitch": 66, "duration": 8, "velocity": 112}, {"time": 714, "pitch": 70, "duration": 8, "velocity": 102}, {"time": 718, "pitch": 58, "duration": 2, "velocity": 77}, {"time": 722, "pitch": 63, "duration": 1, "velocity": 66}, {"time": 726, "pitch": 44, "duration": 18, "velocity": 81}, {"time": 726, "pitch": 59, "duration": 10, "velocity": 78}, {"time": 726, "pitch": 63, "duration": 10, "velocity": 72}, {"time": 738, "pitch": 63, "duration": 8, "velocity": 86}, {"time": 738, "pitch": 68, "duration": 9, "velocity": 90}, {"time": 742, "pitch": 56, "duration": 3, "velocity": 73}, {"time": 750, "pitch": 49, "duration": 17, "velocity": 61}, {"time": 750, "pitch": 56, "duration": 14, "velocity": 92}, {"time": 750, "pitch": 61, "duration": 10, "velocity": 86}, {"time": 750, "pitch": 65, "duration": 8, "velocity": 86}, {"time": 750, "pitch": 68, "duration": 10, "velocity": 88}, {"time": 762, "pitch": 65, "duration": 8, "velocity": 90}, {"time": 762, "pitch": 68, "duration": 8, "velocity": 75}, {"time": 766, "pitch": 56, "duration": 2, "velocity": 69}, {"time": 770, "pitch": 61, "duration": 2, "velocity": 58}, {"time": 774, "pitch": 42, "duration": 22, "velocity": 85}, {"time": 774, "pitch": 58, "duration": 9, "velocity": 107}, {"time": 774, "pitch": 61, "duration": 9, "velocity": 86}, {"time": 786, "pitch": 58, "duration": 7, "velocity": 99}, {"time": 786, "pitch": 61, "duration": 7, "velocity": 100}, {"time": 790, "pitch": 54, "duration": 6, "velocity": 81}, {"time": 794, "pitch": 58, "duration": 3, "velocity": 69}, {"time": 794, "pitch": 61, "duration": 3, "velocity": 52}, {"time": 798, "pitch": 42, "duration": 22, "velocity": 78}, {"time": 798, "pitch": 54, "duration": 15, "velocity": 96}, {"time": 798, "pitch": 58, "duration": 11, "velocity": 96}, {"time": 798, "pitch": 61, "duration": 11, "velocity": 95}, {"time": 810, "pitch": 58, "duration": 6, "velocity": 77}, {"time": 810, "pitch": 61, "duration": 6, "velocity": 75}, {"time": 814, "pitch": 54, "duration": 6, "velocity": 68}, {"time": 818, "pitch": 58, "duration": 5, "velocity": 95}, {"time": 818, "pitch": 61, "duration": 5, "velocity": 99}, {"time": 822, "pitch": 46, "duration": 21, "velocity": 96}, {"time": 822, "pitch": 58, "duration": 1, "velocity": 117}, {"time": 822, "pitch": 62, "duration": 11, "velocity": 97}, {"time": 822, "pitch": 65, "duration": 11, "velocity": 93}, {"time": 830, "pitch": 50, "duration": 14, "velocity": 33}, {"time": 830, "pitch": 53, "duration": 5, "velocity": 36}, {"time": 834, "pitch": 58, "duration": 9, "velocity": 107}, {"time": 834, "pitch": 62, "duration": 5, "velocity": 85}, {"time": 834, "pitch": 65, "duration": 5, "velocity": 69}, {"time": 838, "pitch": 53, "duration": 5, "velocity": 55}, {"time": 842, "pitch": 56, "duration": 4, "velocity": 52}, {"time": 846, "pitch": 46, "duration": 16, "velocity": 72}, {"time": 846, "pitch": 53, "duration": 12, "velocity": 65}, {"time": 846, "pitch": 56, "duration": 10, "velocity": 90}, {"time": 846, "pitch": 58, "duration": 10, "velocity": 92}, {"time": 846, "pitch": 62, "duration": 6, "velocity": 70}, {"time": 846, "pitch": 65, "duration": 6, "velocity": 70}, {"time": 858, "pitch": 56, "duration": 2, "velocity": 79}, {"time": 858, "pitch": 58, "duration": 4, "velocity": 92}, {"time": 858, "pitch": 62, "duration": 4, "velocity": 72}, {"time": 858, "pitch": 65, "duration": 3, "velocity": 76}, {"time": 862, "pitch": 53, "duration": 2, "velocity": 61}, {"time": 870, "pitch": 51, "duration": 14, "velocity": 41}, {"time": 870, "pitch": 58, "duration": 13, "velocity": 86}, {"time": 870, "pitch": 63, "duration": 10, "velocity": 100}, {"time": 870, "pitch": 66, "duration": 7, "velocity": 122}, {"time": 870, "pitch": 70, "duration": 10, "velocity": 97}, {"time": 882, "pitch": 54, "duration": 3, "velocity": 20}, {"time": 882, "pitch": 63, "duration": 6, "velocity": 89}, {"time": 882, "pitch": 66, "duration": 5, "velocity": 117}, {"time": 882, "pitch": 70, "duration": 7, "velocity": 99}, {"time": 882, "pitch": 73, "duration": 6, "velocity": 93}, {"time": 886, "pitch": 58, "duration": 2, "velocity": 92}, {"time": 890, "pitch": 63, "duration": 2, "velocity": 81}, {"time": 890, "pitch": 66, "duration": 2, "velocity": 66}, {"time": 890, "pitch": 70, "duration": 2, "velocity": 43}, {"time": 890, "pitch": 73, "duration": 2, "velocity": 43}, {"time": 894, "pitch": 51, "duration": 1, "velocity": 32}, {"time": 894, "pitch": 58, "duration": 12, "velocity": 96}, {"time": 894, "pitch": 63, "duration": 6, "velocity": 97}, {"time": 894, "pitch": 66, "duration": 3, "velocity": 117}, {"time": 894, "pitch": 70, "duration": 8, "velocity": 100}, {"time": 894, "pitch": 73, "duration": 6, "velocity": 89}, {"time": 898, "pitch": 51, "duration": 11, "velocity": 12}, {"time": 902, "pitch": 54, "duration": 7, "velocity": 30}, {"time": 906, "pitch": 66, "duration": 7, "velocity": 127}, {"time": 906, "pitch": 70, "duration": 7, "velocity": 122}, {"time": 906, "pitch": 73, "duration": 6, "velocity": 107}, {"time": 910, "pitch": 58, "duration": 2, "velocity": 97}, {"time": 914, "pitch": 63, "duration": 1, "velocity": 68}, {"time": 918, "pitch": 46, "duration": 15, "velocity": 69}, {"time": 918, "pitch": 50, "duration": 14, "velocity": 75}, {"time": 918, "pitch": 53, "duration": 13, "velocity": 68}, {"time": 918, "pitch": 58, "duration": 10, "velocity": 112}, {"time": 918, "pitch": 62, "duration": 10, "velocity": 89}, {"time": 918, "pitch": 65, "duration": 10, "velocity": 78}, {"time": 930, "pitch": 58, "duration": 7, "velocity": 107}, {"time": 930, "pitch": 62, "duration": 11, "velocity": 96}, {"time": 930, "pitch": 65, "duration": 8, "velocity": 86}, {"time": 934, "pitch": 50, "duration": 4, "velocity": 56}, {"time": 934, "pitch": 53, "duration": 4, "velocity": 66}, {"time": 938, "pitch": 58, "duration": 3, "velocity": 82}, {"time": 942, "pitch": 46, "duration": 16, "velocity": 71}, {"time": 942, "pitch": 53, "duration": 13, "velocity": 75}, {"time": 942, "pitch": 58, "duration": 10, "velocity": 107}, {"time": 942, "pitch": 62, "duration": 10, "velocity": 95}, {"time": 942, "pitch": 65, "duration": 10, "velocity": 86}, {"time": 954, "pitch": 58, "duration": 3, "velocity": 112}, {"time": 954, "pitch": 62, "duration": 4, "velocity": 100}, {"time": 954, "pitch": 65, "duration": 4, "velocity": 90}, {"time": 958, "pitch": 53, "duration": 2, "velocity": 76}, {"time": 966, "pitch": 51, "duration": 6, "velocity": 100}, {"time": 966, "pitch": 63, "duration": 9, "velocity": 100}, {"time": 966, "pitch": 66, "duration": 6, "velocity": 112}, {"time": 966, "pitch": 70, "duration": 6, "velocity": 97}, {"time": 978, "pitch": 49, "duration": 9, "velocity": 96}, {"time": 978, "pitch": 61, "duration": 7, "velocity": 107}, {"time": 978, "pitch": 65, "duration": 5, "velocity": 112}, {"time": 978, "pitch": 68, "duration": 6, "velocity": 112}, {"time": 990, "pitch": 48, "duration": 15, "velocity": 72}, {"time": 990, "pitch": 60, "duration": 11, "velocity": 95}, {"time": 990, "pitch": 63, "duration": 12, "velocity": 107}, {"time": 990, "pitch": 66, "duration": 11, "velocity": 100}, {"time": 1002, "pitch": 63, "duration": 10, "velocity": 95}, {"time": 1002, "pitch": 66, "duration": 10, "velocity": 102}, {"time": 1006, "pitch": 48, "duration": 2, "velocity": 73}, {"time": 1010, "pitch": 60, "duration": 2, "velocity": 70}, {"time": 1014, "pitch": 47, "duration": 16, "velocity": 63}, {"time": 1014, "pitch": 54, "duration": 13, "velocity": 82}, {"time": 1014, "pitch": 59, "duration": 10, "velocity": 96}, {"time": 1014, "pitch": 63, "duration": 11, "velocity": 95}, {"time": 1014, "pitch": 66, "duration": 10, "velocity": 92}, {"time": 1026, "pitch": 63, "duration": 8, "velocity": 97}, {"time": 1026, "pitch": 66, "duration": 9, "velocity": 107}, {"time": 1030, "pitch": 54, "duration": 2, "velocity": 85}, {"time": 1034, "pitch": 59, "duration": 1, "velocity": 54}, {"time": 1038, "pitch": 49, "duration": 17, "velocity": 82}, {"time": 1038, "pitch": 56, "duration": 13, "velocity": 92}, {"time": 1038, "pitch": 61, "duration": 10, "velocity": 89}, {"time": 1038, "pitch": 65, "duration": 6, "velocity": 77}, {"time": 1038, "pitch": 68, "duration": 7, "velocity": 83}, {"time": 1050, "pitch": 65, "duration": 8, "velocity": 122}, {"time": 1050, "pitch": 68, "duration": 8, "velocity": 122}, {"time": 1054, "pitch": 56, "duration": 2, "velocity": 95}, {"time": 1058, "pitch": 61, "duration": 1, "velocity": 63}, {"time": 1062, "pitch": 46, "duration": 14, "velocity": 93}, {"time": 1062, "pitch": 58, "duration": 9, "velocity": 127}, {"time": 1062, "pitch": 61, "duration": 10, "velocity": 122}, {"time": 1074, "pitch": 58, "duration": 6, "velocity": 127}, {"time": 1074, "pitch": 61, "duration": 10, "velocity": 112}, {"time": 1074, "pitch": 65, "duration": 8, "velocity": 97}, {"time": 1078, "pitch": 46, "duration": 5, "velocity": 93}, {"time": 1082, "pitch": 58, "duration": 2, "velocity": 99}, {"time": 1086, "pitch": 51, "duration": 15, "velocity": 48}, {"time": 1086, "pitch": 58, "duration": 12, "velocity": 92}, {"time": 1086, "pitch": 63, "duration": 9, "velocity": 102}, {"time": 1086, "pitch": 66, "duration": 9, "velocity": 112}, {"time": 1086, "pitch": 70, "duration": 9, "velocity": 93}, {"time": 1098, "pitch": 66, "duration": 9, "velocity": 127}, {"time": 1098, "pitch": 70, "duration": 9, "velocity": 117}, {"time": 1102, "pitch": 58, "duration": 2, "velocity": 92}, {"time": 1106, "pitch": 63, "duration": 2, "velocity": 93}, {"time": 1110, "pitch": 47, "duration": 14, "velocity": 72}, {"time": 1110, "pitch": 59, "duration": 10, "velocity": 97}, {"time": 1110, "pitch": 63, "duration": 10, "velocity": 122}, {"time": 1110, "pitch": 66, "duration": 9, "velocity": 99}, {"time": 1122, "pitch": 63, "duration": 9, "velocity": 117}, {"time": 1122, "pitch": 66, "duration": 9, "velocity": 107}, {"time": 1126, "pitch": 47, "duration": 3, "velocity": 69}, {"time": 1130, "pitch": 59, "duration": 2, "velocity": 83}, {"time": 1134, "pitch": 48, "duration": 15, "velocity": 75}, {"time": 1134, "pitch": 60, "duration": 10, "velocity": 92}, {"time": 1134, "pitch": 63, "duration": 10, "velocity": 112}, {"time": 1134, "pitch": 66, "duration": 9, "velocity": 112}, {"time": 1146, "pitch": 63, "duration": 5, "velocity": 127}, {"time": 1146, "pitch": 66, "duration": 6, "velocity": 112}, {"time": 1150, "pitch": 48, "duration": 2, "velocity": 69}, {"time": 1158, "pitch": 49, "duration": 17, "velocity": 86}, {"time": 1158, "pitch": 56, "duration": 13, "velocity": 100}, {"time": 1158, "pitch": 61, "duration": 10, "velocity": 107}, {"time": 1158, "pitch": 65, "duration": 6, "velocity": 102}, {"time": 1158, "pitch": 68, "duration": 8, "velocity": 112}, {"time": 1170, "pitch": 53, "duration": 4, "velocity": 25}, {"time": 1170, "pitch": 65, "duration": 7, "velocity": 112}, {"time": 1170, "pitch": 68, "duration": 8, "velocity": 117}, {"time": 1174, "pitch": 56, "duration": 2, "velocity": 93}, {"time": 1178, "pitch": 61, "duration": 3, "velocity": 96}, {"time": 1182, "pitch": 37, "duration": 24, "velocity": 97}, {"time": 1182, "pitch": 49, "duration": 23, "velocity": 76}, {"time": 1182, "pitch": 61, "duration": 23, "velocity": 112}, {"time": 1182, "pitch": 65, "duration": 23, "velocity": 99}, {"time": 1182, "pitch": 68, "duration": 24, "velocity": 117}, {"time": 1206, "pitch": 42, "duration": 24, "velocity": 95}, {"time": 1206, "pitch": 58, "duration": 12, "velocity": 72}, {"time": 1206, "pitch": 61, "duration": 11, "velocity": 66}, {"time": 1214, "pitch": 54, "duration": 6, "velocity": 52}, {"time": 1218, "pitch": 58, "duration": 3, "velocity": 69}, {"time": 1218, "pitch": 61, "duration": 1, "velocity": 95}, {"time": 1218, "pitch": 66, "duration": 14, "velocity": 102}, {"time": 1222, "pitch": 54, "duration": 9, "velocity": 43}, {"time": 1226, "pitch": 58, "duration": 5, "velocity": 73}, {"time": 1230, "pitch": 42, "duration": 19, "velocity": 73}, {"time": 1238, "pitch": 54, "duration": 13, "velocity": 42}, {"time": 1242, "pitch": 66, "duration": 11, "velocity": 93}, {"time": 1246, "pitch": 61, "duration": 7, "velocity": 39}, {"time": 1250, "pitch": 58, "duration": 3, "velocity": 76}, {"time": 1254, "pitch": 51, "duration": 22, "velocity": 81}, {"time": 1258, "pitch": 63, "duration": 4, "velocity": 42}, {"time": 1266, "pitch": 70, "duration": 16, "velocity": 74}, {"time": 1270, "pitch": 58, "duration": 7, "velocity": 42}, {"time": 1274, "pitch": 63, "duration": 14, "velocity": 68}, {"time": 1278, "pitch": 51, "duration": 17, "velocity": 67}, {"time": 1278, "pitch": 58, "duration": 13, "velocity": 72}, {"time": 1290, "pitch": 54, "duration": 4, "velocity": 26}, {"time": 1290, "pitch": 66, "duration": 11, "velocity": 102}, {"time": 1290, "pitch": 70, "duration": 10, "velocity": 97}, {"time": 1294, "pitch": 58, "duration": 2, "velocity": 78}, {"time": 1298, "pitch": 63, "duration": 3, "velocity": 66}, {"time": 1302, "pitch": 44, "duration": 19, "velocity": 72}, {"time": 1314, "pitch": 59, "duration": 12, "velocity": 72}, {"time": 1314, "pitch": 63, "duration": 12, "velocity": 82}, {"time": 1314, "pitch": 68, "duration": 12, "velocity": 82}, {"time": 1326, "pitch": 49, "duration": 13, "velocity": 70}, {"time": 1338, "pitch": 65, "duration": 10, "velocity": 89}, {"time": 1338, "pitch": 68, "duration": 12, "velocity": 96}, {"time": 1346, "pitch": 61, "duration": 5, "velocity": 66}, {"time": 1350, "pitch": 42, "duration": 18, "velocity": 85}, {"time": 1354, "pitch": 54, "duration": 9, "velocity": 68}, {"time": 1358, "pitch": 58, "duration": 6, "velocity": 71}, {"time": 1362, "pitch": 61, "duration": 8, "velocity": 96}, {"time": 1366, "pitch": 54, "duration": 2, "velocity": 75}, {"time": 1374, "pitch": 49, "duration": 17, "velocity": 79}, {"time": 1374, "pitch": 53, "duration": 16, "velocity": 71}, {"time": 1374, "pitch": 56, "duration": 14, "velocity": 85}, {"time": 1374, "pitch": 61, "duration": 14, "velocity": 81}, {"time": 1374, "pitch": 65, "duration": 11, "velocity": 93}, {"time": 1374, "pitch": 68, "duration": 10, "velocity": 93}, {"time": 1386, "pitch": 68, "duration": 13, "velocity": 107}, {"time": 1390, "pitch": 56, "duration": 2, "velocity": 75}, {"time": 1394, "pitch": 61, "duration": 5, "velocity": 77}, {"time": 1398, "pitch": 42, "duration": 23, "velocity": 86}, {"time": 1402, "pitch": 54, "duration": 19, "velocity": 73}, {"time": 1406, "pitch": 58, "duration": 4, "velocity": 59}, {"time": 1410, "pitch": 61, "duration": 18, "velocity": 99}, {"time": 1410, "pitch": 66, "duration": 21, "velocity": 95}, {"time": 1418, "pitch": 58, "duration": 12, "velocity": 58}, {"time": 1422, "pitch": 42, "duration": 17, "velocity": 68}, {"time": 1422, "pitch": 54, "duration": 14, "velocity": 63}, {"time": 1434, "pitch": 61, "duration": 7, "velocity": 102}, {"time": 1434, "pitch": 66, "duration": 7, "velocity": 83}, {"time": 1438, "pitch": 54, "duration": 3, "velocity": 68}, {"time": 1442, "pitch": 58, "duration": 1, "velocity": 75}, {"time": 1446, "pitch": 51, "duration": 17, "velocity": 60}, {"time": 1446, "pitch": 58, "duration": 13, "velocity": 68}, {"time": 1446, "pitch": 63, "duration": 9, "velocity": 92}, {"time": 1446, "pitch": 66, "duration": 9, "velocity": 93}, {"time": 1446, "pitch": 70, "duration": 9, "velocity": 92}, {"time": 1458, "pitch": 66, "duration": 22, "velocity": 69}, {"time": 1458, "pitch": 70, "duration": 21, "velocity": 89}, {"time": 1462, "pitch": 58, "duration": 6, "velocity": 64}, {"time": 1466, "pitch": 63, "duration": 12, "velocity": 66}, {"time": 1470, "pitch": 51, "duration": 17, "velocity": 102}, {"time": 1470, "pitch": 58, "duration": 13, "velocity": 86}, {"time": 1482, "pitch": 66, "duration": 8, "velocity": 112}, {"time": 1482, "pitch": 70, "duration": 8, "velocity": 102}, {"time": 1486, "pitch": 58, "duration": 2, "velocity": 77}, {"time": 1490, "pitch": 63, "duration": 1, "velocity": 66}, {"time": 1494, "pitch": 44, "duration": 18, "velocity": 81}, {"time": 1494, "pitch": 59, "duration": 10, "velocity": 78}, {"time": 1494, "pitch": 63, "duration": 10, "velocity": 72}, {"time": 1506, "pitch": 63, "duration": 8, "velocity": 86}, {"time": 1506, "pitch": 68, "duration": 9, "velocity": 90}, {"time": 1510, "pitch": 56, "duration": 3, "velocity": 73}, {"time": 1518, "pitch": 49, "duration": 17, "velocity": 61}, {"time": 1518, "pitch": 56, "duration": 14, "velocity": 92}, {"time": 1518, "pitch": 61, "duration": 10, "velocity": 86}, {"time": 1518, "pitch": 65, "duration": 8, "velocity": 86}, {"time": 1518, "pitch": 68, "duration": 10, "velocity": 88}, {"time": 1530, "pitch": 65, "duration": 8, "velocity": 90}, {"time": 1530, "pitch": 68, "duration": 8, "velocity": 75}, {"time": 1534, "pitch": 56, "duration": 2, "velocity": 69}, {"time": 1538, "pitch": 61, "duration": 2, "velocity": 58}, {"time": 1542, "pitch": 42, "duration": 22, "velocity": 85}, {"time": 1542, "pitch": 58, "duration": 9, "velocity": 107}, {"time": 1542, "pitch": 61, "duration": 9, "velocity": 86}, {"time": 1554, "pitch": 58, "duration": 7, "velocity": 99}, {"time": 1554, "pitch": 61, "duration": 7, "velocity": 100}, {"time": 1558, "pitch": 54, "duration": 6, "velocity": 81}, {"time": 1562, "pitch": 58, "duration": 3, "velocity": 69}, {"time": 1562, "pitch": 61, "duration": 3, "velocity": 52}, {"time": 1566, "pitch": 42, "duration": 22, "velocity": 78}, {"time": 1566, "pitch": 54, "duration": 15, "velocity": 96}, {"time": 1566, "pitch": 58, "duration": 11, "velocity": 96}, {"time": 1566, "pitch": 61, "duration": 11, "velocity": 95}, {"time": 1578, "pitch": 58, "duration": 6, "velocity": 77}, {"time": 1578, "pitch": 61, "duration": 6, "velocity": 75}, {"time": 1582, "pitch": 54, "duration": 6, "velocity": 68}, {"time": 1586, "pitch": 58, "duration": 4, "velocity": 95}, {"time": 1586, "pitch": 61, "duration": 4, "velocity": 99}, {"time": 1590, "pitch": 42, "duration": 15, "velocity": 75}, {"time": 1590, "pitch": 58, "duration": 12, "velocity": 76}, {"time": 1590, "pitch": 61, "duration": 17, "velocity": 76}, {"time": 1602, "pitch": 66, "duration": 6, "velocity": 72}, {"time": 1614, "pitch": 46, "duration": 15, "velocity": 85}, {"time": 1614, "pitch": 58, "duration": 11, "velocity": 90}, {"time": 1614, "pitch": 61, "duration": 12, "velocity": 83}, {"time": 1626, "pitch": 58, "duration": 3, "velocity": 97}, {"time": 1626, "pitch": 61, "duration": 3, "velocity": 95}, {"time": 1626, "pitch": 65, "duration": 3, "velocity": 85}, {"time": 1638, "pitch": 47, "duration": 16, "velocity": 44}, {"time": 1638, "pitch": 54, "duration": 14, "velocity": 75}, {"time": 1638, "pitch": 59, "duration": 10, "velocity": 93}, {"time": 1638, "pitch": 63, "duration": 10, "velocity": 93}, {"time": 1638, "pitch": 66, "duration": 10, "velocity": 96}, {"time": 1650, "pitch": 63, "duration": 6, "velocity": 97}, {"time": 1650, "pitch": 66, "duration": 6, "velocity": 93}, {"time": 1654, "pitch": 59, "duration": 5, "velocity": 73}, {"time": 1662, "pitch": 46, "duration": 19, "velocity": 74}, {"time": 1662, "pitch": 58, "duration": 13, "velocity": 100}, {"time": 1662, "pitch": 61, "duration": 13, "velocity": 86}, {"time": 1674, "pitch": 65, "duration": 9, "velocity": 96}, {"time": 1678, "pitch": 61, "duration": 8, "velocity": 78}, {"time": 1682, "pitch": 58, "duration": 3, "velocity": 77}, {"time": 1686, "pitch": 44, "duration": 17, "velocity": 92}, {"time": 1698, "pitch": 56, "duration": 5, "velocity": 40}, {"time": 1698, "pitch": 59, "duration": 5, "velocity": 88}, {"time": 1698, "pitch": 63, "duration": 5, "velocity": 92}, {"time": 1710, "pitch": 49, "duration": 13, "velocity": 59}, {"time": 1710, "pitch": 61, "duration": 13, "velocity": 97}, {"time": 1710, "pitch": 65, "duration": 11, "velocity": 93}, {"time": 1710, "pitch": 68, "duration": 10, "velocity": 97}, {"time": 1722, "pitch": 68, "duration": 6, "velocity": 107}, {"time": 1726, "pitch": 61, "duration": 3, "velocity": 82}, {"time": 1734, "pitch": 42, "duration": 18, "velocity": 58}, {"time": 1734, "pitch": 54, "duration": 14, "velocity": 71}, {"time": 1734, "pitch": 58, "duration": 15, "velocity": 97}, {"time": 1734, "pitch": 61, "duration": 11, "velocity": 97}, {"time": 1746, "pitch": 61, "duration": 5, "velocity": 74}, {"time": 1746, "pitch": 66, "duration": 6, "velocity": 93}, {"time": 1750, "pitch": 54, "duration": 4, "velocity": 70}, {"time": 1754, "pitch": 61, "duration": 2, "velocity": 35}, {"time": 1758, "pitch": 49, "duration": 17, "velocity": 95}, {"time": 1758, "pitch": 56, "duration": 13, "velocity": 96}, {"time": 1758, "pitch": 61, "duration": 10, "velocity": 99}, {"time": 1758, "pitch": 65, "duration": 8, "velocity": 93}, {"time": 1758, "pitch": 68, "duration": 9, "velocity": 96}, {"time": 1770, "pitch": 68, "duration": 8, "velocity": 127}, {"time": 1774, "pitch": 56, "duration": 2, "velocity": 97}, {"time": 1778, "pitch": 61, "duration": 1, "velocity": 83}, {"time": 1782, "pitch": 42, "duration": 18, "velocity": 93}, {"time": 1782, "pitch": 58, "duration": 9, "velocity": 97}, {"time": 1782, "pitch": 61, "duration": 7, "velocity": 86}, {"time": 1794, "pitch": 58, "duration": 7, "velocity": 107}, {"time": 1794, "pitch": 61, "duration": 7, "velocity": 107}, {"time": 1798, "pitch": 54, "duration": 4, "velocity": 67}, {"time": 1802, "pitch": 58, "duration": 3, "velocity": 63}, {"time": 1802, "pitch": 61, "duration": 2, "velocity": 34}, {"time": 1806, "pitch": 46, "duration": 15, "velocity": 79}, {"time": 1806, "pitch": 58, "duration": 10, "velocity": 99}, {"time": 1806, "pitch": 61, "duration": 10, "velocity": 92}, {"time": 1806, "pitch": 65, "duration": 10, "velocity": 89}, {"time": 1818, "pitch": 65, "duration": 5, "velocity": 102}, {"time": 1822, "pitch": 46, "duration": 2, "velocity": 93}, {"time": 1826, "pitch": 58, "duration": 1, "velocity": 100}, {"time": 1830, "pitch": 47, "duration": 18, "velocity": 70}, {"time": 1830, "pitch": 54, "duration": 19, "velocity": 93}, {"time": 1830, "pitch": 59, "duration": 11, "velocity": 95}, {"time": 1842, "pitch": 63, "duration": 9, "velocity": 112}, {"time": 1842, "pitch": 66, "duration": 8, "velocity": 100}, {"time": 1850, "pitch": 59, "duration": 2, "velocity": 54}, {"time": 1854, "pitch": 46, "duration": 15, "velocity": 83}, {"time": 1854, "pitch": 58, "duration": 10, "velocity": 99}, {"time": 1854, "pitch": 61, "duration": 10, "velocity": 93}, {"time": 1866, "pitch": 58, "duration": 6, "velocity": 99}, {"time": 1866, "pitch": 61, "duration": 10, "velocity": 97}, {"time": 1870, "pitch": 46, "duration": 2, "velocity": 78}, {"time": 1874, "pitch": 58, "duration": 2, "velocity": 85}, {"time": 1878, "pitch": 44, "duration": 13, "velocity": 99}, {"time": 1878, "pitch": 56, "duration": 9, "velocity": 95}, {"time": 1878, "pitch": 59, "duration": 10, "velocity": 81}, {"time": 1878, "pitch": 63, "duration": 7, "velocity": 81}, {"time": 1890, "pitch": 59, "duration": 2, "velocity": 86}, {"time": 1890, "pitch": 63, "duration": 3, "velocity": 89}, {"time": 1894, "pitch": 44, "duration": 3, "velocity": 96}, {"time": 1902, "pitch": 49, "duration": 14, "velocity": 92}, {"time": 1902, "pitch": 61, "duration": 10, "velocity": 95}, {"time": 1902, "pitch": 65, "duration": 10, "velocity": 92}, {"time": 1902, "pitch": 68, "duration": 7, "velocity": 90}, {"time": 1914, "pitch": 65, "duration": 8, "velocity": 96}, {"time": 1914, "pitch": 68, "duration": 8, "velocity": 92}, {"time": 1918, "pitch": 49, "duration": 2, "velocity": 78}, {"time": 1922, "pitch": 61, "duration": 2, "velocity": 58}, {"time": 1926, "pitch": 42, "duration": 22, "velocity": 86}, {"time": 1926, "pitch": 58, "duration": 10, "velocity": 99}, {"time": 1926, "pitch": 61, "duration": 10, "velocity": 100}, {"time": 1938, "pitch": 61, "duration": 10, "velocity": 102}, {"time": 1938, "pitch": 66, "duration": 10, "velocity": 99}, {"time": 1942, "pitch": 54, "duration": 6, "velocity": 35}, {"time": 1946, "pitch": 58, "duration": 2, "velocity": 66}, {"time": 1950, "pitch": 42, "duration": 2, "velocity": 69}, {"time": 1950, "pitch": 54, "duration": 2, "velocity": 68}, {"time": 1950, "pitch": 58, "duration": 2, "velocity": 83}, {"time": 1950, "pitch": 61, "duration": 2, "velocity": 61}, {"time": 1950, "pitch": 66, "duration": 2, "velocity": 64}, {"time": 1954, "pitch": 42, "duration": 2, "velocity": 67}, {"time": 1954, "pitch": 54, "duration": 2, "velocity": 85}, {"time": 1954, "pitch": 58, "duration": 2, "velocity": 86}, {"time": 1954, "pitch": 61, "duration": 2, "velocity": 63}, {"time": 1954, "pitch": 66, "duration": 2, "velocity": 57}, {"time": 1958, "pitch": 42, "duration": 2, "velocity": 52}, {"time": 1958, "pitch": 54, "duration": 2, "velocity": 77}, {"time": 1958, "pitch": 58, "duration": 2, "velocity": 85}, {"time": 1958, "pitch": 61, "duration": 1, "velocity": 76}, {"time": 1958, "pitch": 66, "duration": 2, "velocity": 65}, {"time": 1962, "pitch": 42, "duration": 1, "velocity": 73}, {"time": 1962, "pitch": 54, "duration": 1, "velocity": 97}, {"time": 1962, "pitch": 58, "duration": 2, "velocity": 107}, {"time": 1962, "pitch": 66, "duration": 1, "velocity": 34}, {"time": 1966, "pitch": 41, "duration": 2, "velocity": 48}, {"time": 1966, "pitch": 54, "duration": 4, "velocity": 117}, {"time": 1970, "pitch": 44, "duration": 4, "velocity": 107}, {"time": 1970, "pitch": 56, "duration": 3, "velocity": 122}, {"time": 1974, "pitch": 46, "duration": 21, "velocity": 96}, {"time": 1974, "pitch": 58, "duration": 11, "velocity": 117}, {"time": 1974, "pitch": 62, "duration": 11, "velocity": 97}, {"time": 1974, "pitch": 65, "duration": 11, "velocity": 93}, {"time": 1982, "pitch": 50, "duration": 14, "velocity": 33}, {"time": 1982, "pitch": 53, "duration": 5, "velocity": 36}, {"time": 1986, "pitch": 58, "duration": 9, "velocity": 107}, {"time": 1986, "pitch": 62, "duration": 5, "velocity": 85}, {"time": 1986, "pitch": 65, "duration": 5, "velocity": 69}, {"time": 1990, "pitch": 53, "duration": 5, "velocity": 55}, {"time": 1994, "pitch": 56, "duration": 4, "velocity": 52}, {"time": 1998, "pitch": 46, "duration": 16, "velocity": 72}, {"time": 1998, "pitch": 53, "duration": 12, "velocity": 65}, {"time": 1998, "pitch": 56, "duration": 10, "velocity": 90}, {"time": 1998, "pitch": 58, "duration": 10, "velocity": 92}, {"time": 1998, "pitch": 62, "duration": 6, "velocity": 70}, {"time": 1998, "pitch": 65, "duration": 6, "velocity": 70}, {"time": 2010, "pitch": 56, "duration": 2, "velocity": 79}, {"time": 2010, "pitch": 58, "duration": 4, "velocity": 92}, {"time": 2010, "pitch": 62, "duration": 4, "velocity": 72}, {"time": 2010, "pitch": 65, "duration": 3, "velocity": 76}, {"time": 2014, "pitch": 53, "duration": 2, "velocity": 61}, {"time": 2022, "pitch": 51, "duration": 14, "velocity": 41}, {"time": 2022, "pitch": 58, "duration": 13, "velocity": 86}, {"time": 2022, "pitch": 63, "duration": 10, "velocity": 100}, {"time": 2022, "pitch": 66, "duration": 7, "velocity": 122}, {"time": 2022, "pitch": 70, "duration": 10, "velocity": 97}, {"time": 2034, "pitch": 54, "duration": 3, "velocity": 20}, {"time": 2034, "pitch": 63, "duration": 6, "velocity": 89}, {"time": 2034, "pitch": 66, "duration": 5, "velocity": 117}, {"time": 2034, "pitch": 70, "duration": 7, "velocity": 99}, {"time": 2034, "pitch": 73, "duration": 6, "velocity": 93}, {"time": 2038, "pitch": 58, "duration": 2, "velocity": 92}, {"time": 2042, "pitch": 63, "duration": 2, "velocity": 81}, {"time": 2042, "pitch": 66, "duration": 2, "velocity": 66}, {"time": 2042, "pitch": 70, "duration": 2, "velocity": 43}, {"time": 2042, "pitch": 73, "duration": 2, "velocity": 43}, {"time": 2046, "pitch": 51, "duration": 1, "velocity": 32}, {"time": 2046, "pitch": 58, "duration": 12, "velocity": 96}, {"time": 2046, "pitch": 63, "duration": 6, "velocity": 97}, {"time": 2046, "pitch": 66, "duration": 3, "velocity": 117}, {"time": 2046, "pitch": 70, "duration": 8, "velocity": 100}, {"time": 2046, "pitch": 73, "duration": 6, "velocity": 89}, {"time": 2050, "pitch": 51, "duration": 11, "velocity": 12}, {"time": 2054, "pitch": 54, "duration": 7, "velocity": 30}, {"time": 2058, "pitch": 66, "duration": 7, "velocity": 127}, {"time": 2058, "pitch": 70, "duration": 7, "velocity": 122}, {"time": 2058, "pitch": 73, "duration": 6, "velocity": 107}, {"time": 2062, "pitch": 58, "duration": 2, "velocity": 97}, {"time": 2066, "pitch": 63, "duration": 1, "velocity": 68}, {"time": 2070, "pitch": 46, "duration": 15, "velocity": 69}, {"time": 2070, "pitch": 50, "duration": 14, "velocity": 75}, {"time": 2070, "pitch": 53, "duration": 13, "velocity": 68}, {"time": 2070, "pitch": 58, "duration": 10, "velocity": 112}, {"time": 2070, "pitch": 62, "duration": 10, "velocity": 89}, {"time": 2070, "pitch": 65, "duration": 10, "velocity": 78}, {"time": 2082, "pitch": 58, "duration": 7, "velocity": 107}, {"time": 2082, "pitch": 62, "duration": 11, "velocity": 96}, {"time": 2082, "pitch": 65, "duration": 8, "velocity": 86}, {"time": 2086, "pitch": 50, "duration": 4, "velocity": 56}, {"time": 2086, "pitch": 53, "duration": 4, "velocity": 66}, {"time": 2090, "pitch": 58, "duration": 3, "velocity": 82}, {"time": 2094, "pitch": 46, "duration": 16, "velocity": 71}, {"time": 2094, "pitch": 53, "duration": 13, "velocity": 75}, {"time": 2094, "pitch": 58, "duration": 10, "velocity": 107}, {"time": 2094, "pitch": 62, "duration": 10, "velocity": 95}, {"time": 2094, "pitch": 65, "duration": 10, "velocity": 86}, {"time": 2106, "pitch": 58, "duration": 3, "velocity": 112}, {"time": 2106, "pitch": 62, "duration": 4, "velocity": 100}, {"time": 2106, "pitch": 65, "duration": 4, "velocity": 90}, {"time": 2110, "pitch": 53, "duration": 2, "velocity": 76}, {"time": 2118, "pitch": 51, "duration": 6, "velocity": 100}, {"time": 2118, "pitch": 63, "duration": 9, "velocity": 100}, {"time": 2118, "pitch": 66, "duration": 6, "velocity": 112}, {"time": 2118, "pitch": 70, "duration": 6, "velocity": 97}, {"time": 2130, "pitch": 49, "duration": 9, "velocity": 96}, {"time": 2130, "pitch": 61, "duration": 7, "velocity": 107}, {"time": 2130, "pitch": 65, "duration": 5, "velocity": 112}, {"time": 2130, "pitch": 68, "duration": 6, "velocity": 112}, {"time": 2142, "pitch": 48, "duration": 15, "velocity": 72}, {"time": 2142, "pitch": 60, "duration": 11, "velocity": 95}, {"time": 2142, "pitch": 63, "duration": 12, "velocity": 107}, {"time": 2142, "pitch": 66, "duration": 11, "velocity": 100}, {"time": 2154, "pitch": 63, "duration": 10, "velocity": 95}, {"time": 2154, "pitch": 66, "duration": 10, "velocity": 102}, {"time": 2158, "pitch": 48, "duration": 2, "velocity": 73}, {"time": 2162, "pitch": 60, "duration": 2, "velocity": 70}, {"time": 2166, "pitch": 47, "duration": 16, "velocity": 63}, {"time": 2166, "pitch": 54, "duration": 13, "velocity": 82}, {"time": 2166, "pitch": 59, "duration": 10, "velocity": 96}, {"time": 2166, "pitch": 63, "duration": 11, "velocity": 95}, {"time": 2166, "pitch": 66, "duration": 10, "velocity": 92}, {"time": 2178, "pitch": 63, "duration": 8, "velocity": 97}, {"time": 2178, "pitch": 66, "duration": 9, "velocity": 107}, {"time": 2182, "pitch": 54, "duration": 2, "velocity": 85}, {"time": 2186, "pitch": 59, "duration": 1, "velocity": 54}, {"time": 2190, "pitch": 49, "duration": 17, "velocity": 82}, {"time": 2190, "pitch": 56, "duration": 13, "velocity": 92}, {"time": 2190, "pitch": 61, "duration": 10, "velocity": 89}, {"time": 2190, "pitch": 65, "duration": 6, "velocity": 77}, {"time": 2190, "pitch": 68, "duration": 7, "velocity": 83}, {"time": 2202, "pitch": 65, "duration": 8, "velocity": 122}, {"time": 2202, "pitch": 68, "duration": 8, "velocity": 122}, {"time": 2206, "pitch": 56, "duration": 2, "velocity": 95}, {"time": 2210, "pitch": 61, "duration": 1, "velocity": 63}, {"time": 2214, "pitch": 46, "duration": 14, "velocity": 93}, {"time": 2214, "pitch": 58, "duration": 9, "velocity": 127}, {"time": 2214, "pitch": 61, "duration": 10, "velocity": 122}, {"time": 2226, "pitch": 58, "duration": 6, "velocity": 127}, {"time": 2226, "pitch": 61, "duration": 10, "velocity": 112}, {"time": 2226, "pitch": 65, "duration": 8, "velocity": 97}, {"time": 2230, "pitch": 46, "duration": 5, "velocity": 93}, {"time": 2234, "pitch": 58, "duration": 2, "velocity": 99}, {"time": 2238, "pitch": 51, "duration": 15, "velocity": 48}, {"time": 2238, "pitch": 58, "duration": 12, "velocity": 92}, {"time": 2238, "pitch": 63, "duration": 9, "velocity": 102}, {"time": 2238, "pitch": 66, "duration": 9, "velocity": 112}, {"time": 2238, "pitch": 70, "duration": 9, "velocity": 93}, {"time": 2250, "pitch": 66, "duration": 9, "velocity": 127}, {"time": 2250, "pitch": 70, "duration": 9, "velocity": 117}, {"time": 2254, "pitch": 58, "duration": 2, "velocity": 92}, {"time": 2258, "pitch": 63, "duration": 2, "velocity": 93}, {"time": 2262, "pitch": 47, "duration": 14, "velocity": 72}, {"time": 2262, "pitch": 59, "duration": 10, "velocity": 97}, {"time": 2262, "pitch": 63, "duration": 10, "velocity": 122}, {"time": 2262, "pitch": 66, "duration": 9, "velocity": 99}, {"time": 2274, "pitch": 63, "duration": 9, "velocity": 117}, {"time": 2274, "pitch": 66, "duration": 9, "velocity": 107}, {"time": 2278, "pitch": 47, "duration": 3, "velocity": 69}, {"time": 2282, "pitch": 59, "duration": 2, "velocity": 83}, {"time": 2286, "pitch": 48, "duration": 15, "velocity": 75}, {"time": 2286, "pitch": 60, "duration": 10, "velocity": 92}, {"time": 2286, "pitch": 63, "duration": 10, "velocity": 112}, {"time": 2286, "pitch": 66, "duration": 9, "velocity": 112}, {"time": 2298, "pitch": 63, "duration": 5, "velocity": 127}, {"time": 2298, "pitch": 66, "duration": 6, "velocity": 112}, {"time": 2302, "pitch": 48, "duration": 2, "velocity": 69}, {"time": 2310, "pitch": 49, "duration": 17, "velocity": 86}, {"time": 2310, "pitch": 56, "duration": 13, "velocity": 100}, {"time": 2310, "pitch": 61, "duration": 10, "velocity": 107}, {"time": 2310, "pitch": 65, "duration": 6, "velocity": 102}, {"time": 2310, "pitch": 68, "duration": 8, "velocity": 112}, {"time": 2322, "pitch": 53, "duration": 4, "velocity": 25}, {"time": 2322, "pitch": 65, "duration": 7, "velocity": 112}, {"time": 2322, "pitch": 68, "duration": 8, "velocity": 117}, {"time": 2326, "pitch": 56, "duration": 2, "velocity": 93}, {"time": 2330, "pitch": 61, "duration": 3, "velocity": 96}, {"time": 2334, "pitch": 37, "duration": 24, "velocity": 97}, {"time": 2334, "pitch": 49, "duration": 23, "velocity": 76}, {"time": 2334, "pitch": 61, "duration": 23, "velocity": 112}, {"time": 2334, "pitch": 65, "duration": 23, "velocity": 99}, {"time": 2334, "pitch": 68, "duration": 24, "velocity": 117}, {"time": 2358, "pitch": 42, "duration": 24, "velocity": 95}, {"time": 2358, "pitch": 58, "duration": 12, "velocity": 72}, {"time": 2358, "pitch": 61, "duration": 11, "velocity": 66}, {"time": 2366, "pitch": 54, "duration": 6, "velocity": 52}, {"time": 2370, "pitch": 58, "duration": 3, "velocity": 69}, {"time": 2370, "pitch": 61, "duration": 1, "velocity": 95}, {"time": 2370, "pitch": 66, "duration": 14, "velocity": 102}, {"time": 2374, "pitch": 54, "duration": 9, "velocity": 43}, {"time": 2378, "pitch": 58, "duration": 5, "velocity": 73}, {"time": 2382, "pitch": 42, "duration": 19, "velocity": 73}, {"time": 2390, "pitch": 54, "duration": 13, "velocity": 42}, {"time": 2394, "pitch": 66, "duration": 11, "velocity": 93}, {"time": 2398, "pitch": 61, "duration": 7, "velocity": 39}, {"time": 2402, "pitch": 58, "duration": 3, "velocity": 76}, {"time": 2406, "pitch": 51, "duration": 22, "velocity": 81}, {"time": 2410, "pitch": 63, "duration": 4, "velocity": 42}, {"time": 2418, "pitch": 70, "duration": 16, "velocity": 74}, {"time": 2422, "pitch": 58, "duration": 7, "velocity": 42}, {"time": 2426, "pitch": 63, "duration": 14, "velocity": 68}, {"time": 2430, "pitch": 51, "duration": 17, "velocity": 67}, {"time": 2430, "pitch": 58, "duration": 13, "velocity": 72}, {"time": 2442, "pitch": 54, "duration": 4, "velocity": 26}, {"time": 2442, "pitch": 66, "duration": 11, "velocity": 102}, {"time": 2442, "pitch": 70, "duration": 10, "velocity": 97}, {"time": 2446, "pitch": 58, "duration": 2, "velocity": 78}, {"time": 2450, "pitch": 63, "duration": 3, "velocity": 66}, {"time": 2454, "pitch": 44, "duration": 19, "velocity": 72}, {"time": 2466, "pitch": 59, "duration": 12, "velocity": 72}, {"time": 2466, "pitch": 63, "duration": 12, "velocity": 82}, {"time": 2466, "pitch": 68, "duration": 12, "velocity": 82}, {"time": 2478, "pitch": 49, "duration": 13, "velocity": 70}, {"time": 2490, "pitch": 65, "duration": 10, "velocity": 89}, {"time": 2490, "pitch": 68, "duration": 12, "velocity": 96}, {"time": 2498, "pitch": 61, "duration": 5, "velocity": 66}, {"time": 2502, "pitch": 42, "duration": 18, "velocity": 85}, {"time": 2506, "pitch": 54, "duration": 9, "velocity": 68}, {"time": 2510, "pitch": 58, "duration": 6, "velocity": 71}, {"time": 2514, "pitch": 61, "duration": 8, "velocity": 96}, {"time": 2518, "pitch": 54, "duration": 2, "velocity": 75}, {"time": 2526, "pitch": 49, "duration": 17, "velocity": 79}, {"time": 2526, "pitch": 53, "duration": 16, "velocity": 71}, {"time": 2526, "pitch": 56, "duration": 14, "velocity": 85}, {"time": 2526, "pitch": 61, "duration": 14, "velocity": 81}, {"time": 2526, "pitch": 65, "duration": 11, "velocity": 93}, {"time": 2526, "pitch": 68, "duration": 10, "velocity": 93}, {"time": 2538, "pitch": 68, "duration": 13, "velocity": 107}, {"time": 2542, "pitch": 56, "duration": 2, "velocity": 75}, {"time": 2546, "pitch": 61, "duration": 5, "velocity": 77}, {"time": 2550, "pitch": 42, "duration": 23, "velocity": 86}, {"time": 2554, "pitch": 54, "duration": 19, "velocity": 73}, {"time": 2558, "pitch": 58, "duration": 4, "velocity": 59}, {"time": 2562, "pitch": 61, "duration": 18, "velocity": 99}, {"time": 2562, "pitch": 66, "duration": 21, "velocity": 95}, {"time": 2570, "pitch": 58, "duration": 12, "velocity": 58}, {"time": 2574, "pitch": 42, "duration": 17, "velocity": 68}, {"time": 2574, "pitch": 54, "duration": 14, "velocity": 63}, {"time": 2586, "pitch": 61, "duration": 7, "velocity": 102}, {"time": 2586, "pitch": 66, "duration": 7, "velocity": 83}, {"time": 2590, "pitch": 54, "duration": 3, "velocity": 68}, {"time": 2594, "pitch": 58, "duration": 1, "velocity": 75}, {"time": 2598, "pitch": 51, "duration": 17, "velocity": 60}, {"time": 2598, "pitch": 58, "duration": 13, "velocity": 68}, {"time": 2598, "pitch": 63, "duration": 9, "velocity": 92}, {"time": 2598, "pitch": 66, "duration": 9, "velocity": 93}, {"time": 2598, "pitch": 70, "duration": 9, "velocity": 92}, {"time": 2610, "pitch": 66, "duration": 22, "velocity": 69}, {"time": 2610, "pitch": 70, "duration": 21, "velocity": 89}, {"time": 2614, "pitch": 58, "duration": 6, "velocity": 64}, {"time": 2618, "pitch": 63, "duration": 12, "velocity": 66}, {"time": 2622, "pitch": 51, "duration": 17, "velocity": 102}, {"time": 2622, "pitch": 58, "duration": 13, "velocity": 86}, {"time": 2634, "pitch": 66, "duration": 8, "velocity": 112}, {"time": 2634, "pitch": 70, "duration": 8, "velocity": 102}, {"time": 2638, "pitch": 58, "duration": 2, "velocity": 77}, {"time": 2642, "pitch": 63, "duration": 1, "velocity": 66}, {"time": 2646, "pitch": 44, "duration": 18, "velocity": 81}, {"time": 2646, "pitch": 59, "duration": 10, "velocity": 78}, {"time": 2646, "pitch": 63, "duration": 10, "velocity": 72}, {"time": 2658, "pitch": 63, "duration": 8, "velocity": 86}, {"time": 2658, "pitch": 68, "duration": 9, "velocity": 90}, {"time": 2662, "pitch": 56, "duration": 3, "velocity": 73}, {"time": 2670, "pitch": 49, "duration": 17, "velocity": 61}, {"time": 2670, "pitch": 56, "duration": 14, "velocity": 92}, {"time": 2670, "pitch": 61, "duration": 10, "velocity": 86}, {"time": 2670, "pitch": 65, "duration": 8, "velocity": 86}, {"time": 2670, "pitch": 68, "duration": 10, "velocity": 88}, {"time": 2682, "pitch": 65, "duration": 8, "velocity": 90}, {"time": 2682, "pitch": 68, "duration": 8, "velocity": 75}, {"time": 2686, "pitch": 56, "duration": 2, "velocity": 69}, {"time": 2690, "pitch": 61, "duration": 2, "velocity": 58}, {"time": 2694, "pitch": 42, "duration": 20, "velocity": 85}, {"time": 2694, "pitch": 58, "duration": 9, "velocity": 107}, {"time": 2694, "pitch": 61, "duration": 9, "velocity": 86}, {"time": 2706, "pitch": 58, "duration": 7, "velocity": 99}, {"time": 2706, "pitch": 61, "duration": 7, "velocity": 100}, {"time": 2710, "pitch": 54, "duration": 4, "velocity": 81}, {"time": 2714, "pitch": 58, "duration": 1, "velocity": 69}, {"time": 2714, "pitch": 61, "duration": 1, "velocity": 52}, {"time": 2718, "pitch": 39, "duration": 18, "velocity": 77}, {"time": 2718, "pitch": 51, "duration": 13, "velocity": 74}, {"time": 2718, "pitch": 63, "duration": 10, "velocity": 92}, {"time": 2718, "pitch": 66, "duration": 10, "velocity": 83}, {"time": 2718, "pitch": 70, "duration": 9, "velocity": 77}, {"time": 2730, "pitch": 66, "duration": 13, "velocity": 96}, {"time": 2730, "pitch": 70, "duration": 13, "velocity": 90}, {"time": 2734, "pitch": 51, "duration": 4, "velocity": 53}, {"time": 2738, "pitch": 63, "duration": 5, "velocity": 92}, {"time": 2742, "pitch": 44, "duration": 15, "velocity": 93}, {"time": 2742, "pitch": 56, "duration": 8, "velocity": 85}, {"time": 2742, "pitch": 59, "duration": 6, "velocity": 75}, {"time": 2742, "pitch": 63, "duration": 1, "velocity": 64}, {"time": 2754, "pitch": 59, "duration": 8, "velocity": 95}, {"time": 2754, "pitch": 63, "duration": 8, "velocity": 95}, {"time": 2758, "pitch": 44, "duration": 2, "velocity": 70}, {"time": 2766, "pitch": 49, "duration": 75, "velocity": 96}, {"time": 2766, "pitch": 56, "duration": 69, "velocity": 96}, {"time": 2766, "pitch": 61, "duration": 72, "velocity": 96}, {"time": 2766, "pitch": 65, "duration": 74, "velocity": 92}, {"time": 2766, "pitch": 68, "duration": 75, "velocity": 86}, {"time": 2904, "pitch": 54, "duration": 13, "velocity": 82}, {"time": 2904, "pitch": 61, "duration": 10, "velocity": 86}, {"time": 2904, "pitch": 66, "duration": 10, "velocity": 81}, {"time": 2904, "pitch": 42, "duration": 17, "velocity": 83}, {"time": 2904, "pitch": 70, "duration": 9, "velocity": 73}, {"time": 2915, "pitch": 61, "duration": 1, "velocity": 48}, {"time": 2915, "pitch": 66, "duration": 9, "velocity": 77}, {"time": 2915, "pitch": 70, "duration": 10, "velocity": 97}, {"time": 2920, "pitch": 54, "duration": 5, "velocity": 72}, {"time": 2923, "pitch": 61, "duration": 6, "velocity": 83}, {"time": 2928, "pitch": 47, "duration": 33, "velocity": 77}, {"time": 2936, "pitch": 54, "duration": 25, "velocity": 61}, {"time": 2941, "pitch": 62, "duration": 19, "velocity": 93}, {"time": 2941, "pitch": 66, "duration": 20, "velocity": 97}, {"time": 2963, "pitch": 70, "duration": 69, "velocity": 83}, {"time": 2963, "pitch": 66, "duration": 70, "velocity": 82}, {"time": 2963, "pitch": 73, "duration": 70, "velocity": 64}, {"time": 2963, "pitch": 77, "duration": 70, "velocity": 67}, {"time": 2963, "pitch": 42, "duration": 70, "velocity": 79}, {"time": 2963, "pitch": 54, "duration": 70, "velocity": 86}], "annotations": [{"time": 8, "annotation": {"number": 64, "value": 127}, "group": "control_change"}, {"time": 53, "annotation": {"number": 64, "value": 0}, "group": "control_change"}, {"time": 56, "annotation": {"number": 64, "value": 127}, "group": "control_change"}, {"time": 101, "annotation": {"number": 64, "value": 0}, "group": "control_change"}, {"time": 104, "annotation": {"number": 64, "value": 127}, "group": "control_change"}, {"time": 125, "annotation": {"number": 64, "value": 0}, "group": "control_change"}, {"time": 127, "annotation": {"number": 64, "value": 127}, "group": "control_change"}, {"time": 150, "annotation": {"number": 64, "value": 0}, "group": "control_change"}, {"time": 153, "annotation": {"number": 64, "value": 127}, "group": "control_change"}, {"time": 222, "annotation": {"number": 64, "value": 0}, "group": "control_change"}, {"time": 225, "annotation": {"number": 64, "value": 127}, "group": "control_change"}, {"time": 388, "annotation": {"number": 64, "value": 0}, "group": "control_change"}, {"time": 394, "annotation": {"number": 64, "value": 127}, "group": "control_change"}, {"time": 418, "annotation": {"number": 64, "value": 0}, "group": "control_change"}, {"time": 438, "annotation": {"number": 64, "value": 127}, "group": "control_change"}, {"time": 486, "annotation": {"number": 64, "value": 0}, "group": "control_change"}, {"time": 489, "annotation": {"number": 64, "value": 127}, "group": "control_change"}, {"time": 533, "annotation": {"number": 64, "value": 0}, "group": "control_change"}, {"time": 534, "annotation": {"number": 64, "value": 127}, "group": "control_change"}, {"time": 557, "annotation": {"number": 64, "value": 0}, "group": "control_change"}, {"time": 560, "annotation": {"number": 64, "value": 127}, "group": "control_change"}, {"time": 580, "annotation": {"number": 64, "value": 0}, "group": "control_change"}, {"time": 581, "annotation": {"number": 64, "value": 127}, "group": "control_change"}, {"time": 608, "annotation": {"number": 64, "value": 0}, "group": "control_change"}, {"time": 618, "annotation": {"number": 64, "value": 127}, "group": "control_change"}, {"time": 628, "annotation": {"number": 64, "value": 0}, "group": "control_change"}, {"time": 631, "annotation": {"number": 64, "value": 127}, "group": "control_change"}, {"time": 652, "annotation": {"number": 64, "value": 0}, "group": "control_change"}, {"time": 656, "annotation": {"number": 64, "value": 127}, "group": "control_change"}, {"time": 678, "annotation": {"number": 64, "value": 0}, "group": "control_change"}, {"time": 682, "annotation": {"number": 64, "value": 127}, "group": "control_change"}, {"time": 751, "annotation": {"number": 64, "value": 0}, "group": "control_change"}, {"time": 762, "annotation": {"number": 64, "value": 127}, "group": "control_change"}, {"time": 772, "annotation": {"number": 64, "value": 0}, "group": "control_change"}, {"time": 775, "annotation": {"number": 64, "value": 127}, "group": "control_change"}, {"time": 809, "annotation": {"number": 64, "value": 0}, "group": "control_change"}, {"time": 823, "annotation": {"number": 64, "value": 127}, "group": "control_change"}, {"time": 928, "annotation": {"number": 64, "value": 0}, "group": "control_change"}, {"time": 930, "annotation": {"number": 64, "value": 127}, "group": "control_change"}, {"time": 941, "annotation": {"number": 64, "value": 0}, "group": "control_change"}, {"time": 943, "annotation": {"number": 64, "value": 127}, "group": "control_change"}, {"time": 965, "annotation": {"number": 64, "value": 0}, "group": "control_change"}, {"time": 967, "annotation": {"number": 64, "value": 127}, "group": "control_change"}, {"time": 977, "annotation": {"number": 64, "value": 0}, "group": "control_change"}, {"time": 979, "annotation": {"number": 64, "value": 127}, "group": "control_change"}, {"time": 989, "annotation": {"number": 64, "value": 0}, "group": "control_change"}, {"time": 991, "annotation": {"number": 64, "value": 127}, "group": "control_change"}, {"time": 1014, "annotation": {"number": 64, "value": 0}, "group": "control_change"}, {"time": 1015, "annotation": {"number": 64, "value": 127}, "group": "control_change"}, {"time": 1038, "annotation": {"number": 64, "value": 0}, "group": "control_change"}, {"time": 1040, "annotation": {"number": 64, "value": 127}, "group": "control_change"}, {"time": 1062, "annotation": {"number": 64, "value": 0}, "group": "control_change"}, {"time": 1063, "annotation": {"number": 64, "value": 127}, "group": "control_change"}, {"time": 1074, "annotation": {"number": 64, "value": 0}, "group": "control_change"}, {"time": 1074, "annotation": {"number": 64, "value": 127}, "group": "control_change"}, {"time": 1086, "annotation": {"number": 64, "value": 0}, "group": "control_change"}, {"time": 1088, "annotation": {"number": 64, "value": 127}, "group": "control_change"}, {"time": 1110, "annotation": {"number": 64, "value": 0}, "group": "control_change"}, {"time": 1111, "annotation": {"number": 64, "value": 127}, "group": "control_change"}, {"time": 1134, "annotation": {"number": 64, "value": 0}, "group": "control_change"}, {"time": 1135, "annotation": {"number": 64, "value": 127}, "group": "control_change"}, {"time": 1157, "annotation": {"number": 64, "value": 0}, "group": "control_change"}, {"time": 1159, "annotation": {"number": 64, "value": 127}, "group": "control_change"}, {"time": 1182, "annotation": {"number": 64, "value": 0}, "group": "control_change"}, {"time": 1254, "annotation": {"number": 64, "value": 0}, "group": "control_change"}, {"time": 1257, "annotation": {"number": 64, "value": 127}, "group": "control_change"}, {"time": 1301, "annotation": {"number": 64, "value": 0}, "group": "control_change"}, {"time": 1302, "annotation": {"number": 64, "value": 127}, "group": "control_change"}, {"time": 1325, "annotation": {"number": 64, "value": 0}, "group": "control_change"}, {"time": 1328, "annotation": {"number": 64, "value": 127}, "group": "control_change"}, {"time": 1348, "annotation": {"number": 64, "value": 0}, "group": "control_change"}, {"time": 1349, "annotation": {"number": 64, "value": 127}, "group": "control_change"}, {"time": 1376, "annotation": {"number": 64, "value": 0}, "group": "control_change"}, {"time": 1386, "annotation": {"number": 64, "value": 127}, "group": "control_change"}, {"time": 1396, "annotation": {"number": 64, "value": 0}, "group": "control_change"}, {"time": 1399, "annotation": {"number": 64, "value": 127}, "group": "control_change"}, {"time": 1420, "annotation": {"number": 64, "value": 0}, "group": "control_change"}, {"time": 1424, "annotation": {"number": 64, "value": 127}, "group": "control_change"}, {"time": 1446, "annotation": {"number": 64, "value": 0}, "group": "control_change"}, {"time": 1450, "annotation": {"number": 64, "value": 127}, "group": "control_change"}, {"time": 1519, "annotation": {"number": 64, "value": 0}, "group": "control_change"}, {"time": 1530, "annotation": {"number": 64, "value": 127}, "group": "control_change"}, {"time": 1540, "annotation": {"number": 64, "value": 0}, "group": "control_change"}, {"time": 1543, "annotation": {"number": 64, "value": 127}, "group": "control_change"}, {"time": 1577, "annotation": {"number": 64, "value": 0}, "group": "control_change"}, {"time": 1592, "annotation": {"number": 64, "value": 127}, "group": "control_change"}, {"time": 1637, "annotation": {"number": 64, "value": 0}, "group": "control_change"}, {"time": 1640, "annotation": {"number": 64, "value": 127}, "group": "control_change"}, {"time": 1685, "annotation": {"number": 64, "value": 0}, "group": "control_change"}, {"time": 1688, "annotation": {"number": 64, "value": 127}, "group": "control_change"}, {"time": 1709, "annotation": {"number": 64, "value": 0}, "group": "control_change"}, {"time": 1711, "annotation": {"number": 64, "value": 127}, "group": "control_change"}, {"time": 1734, "annotation": {"number": 64, "value": 0}, "group": "control_change"}, {"time": 1737, "annotation": {"number": 64, "value": 127}, "group": "control_change"}, {"time": 1806, "annotation": {"number": 64, "value": 0}, "group": "control_change"}, {"time": 1809, "annotation": {"number": 64, "value": 127}, "group": "control_change"}, {"time": 1927, "annotation": {"number": 64, "value": 127}, "group": "control_change"}, {"time": 1965, "annotation": {"number": 64, "value": 0}, "group": "control_change"}, {"time": 1975, "annotation": {"number": 64, "value": 127}, "group": "control_change"}, {"time": 2080, "annotation": {"number": 64, "value": 0}, "group": "control_change"}, {"time": 2082, "annotation": {"number": 64, "value": 127}, "group": "control_change"}, {"time": 2093, "annotation": {"number": 64, "value": 0}, "group": "control_change"}, {"time": 2095, "annotation": {"number": 64, "value": 127}, "group": "control_change"}, {"time": 2117, "annotation": {"number": 64, "value": 0}, "group": "control_change"}, {"time": 2119, "annotation": {"number": 64, "value": 127}, "group": "control_change"}, {"time": 2129, "annotation": {"number": 64, "value": 0}, "group": "control_change"}, {"time": 2131, "annotation": {"number": 64, "value": 127}, "group": "control_change"}, {"time": 2141, "annotation": {"number": 64, "value": 0}, "group": "control_change"}, {"time": 2143, "annotation": {"number": 64, "value": 127}, "group": "control_change"}, {"time": 2166, "annotation": {"number": 64, "value": 0}, "group": "control_change"}, {"time": 2167, "annotation": {"number": 64, "value": 127}, "group": "control_change"}, {"time": 2190, "annotation": {"number": 64, "value": 0}, "group": "control_change"}, {"time": 2192, "annotation": {"number": 64, "value": 127}, "group": "control_change"}, {"time": 2214, "annotation": {"number": 64, "value": 0}, "group": "control_change"}, {"time": 2215, "annotation": {"number": 64, "value": 127}, "group": "control_change"}, {"time": 2226, "annotation": {"number": 64, "value": 0}, "group": "control_change"}, {"time": 2226, "annotation": {"number": 64, "value": 127}, "group": "control_change"}, {"time": 2238, "annotation": {"number": 64, "value": 0}, "group": "control_change"}, {"time": 2240, "annotation": {"number": 64, "value": 127}, "group": "control_change"}, {"time": 2262, "annotation": {"number": 64, "value": 0}, "group": "control_change"}, {"time": 2263, "annotation": {"number": 64, "value": 127}, "group": "control_change"}, {"time": 2286, "annotation": {"number": 64, "value": 0}, "group": "control_change"}, {"time": 2287, "annotation": {"number": 64, "value": 127}, "group": "control_change"}, {"time": 2309, "annotation": {"number": 64, "value": 0}, "group": "control_change"}, {"time": 2311, "annotation": {"number": 64, "value": 127}, "group": "control_change"}, {"time": 2334, "annotation": {"number": 64, "value": 0}, "group": "control_change"}, {"time": 2406, "annotation": {"number": 64, "value": 0}, "group": "control_change"}, {"time": 2409, "annotation": {"number": 64, "value": 127}, "group": "control_change"}, {"time": 2453, "annotation": {"number": 64, "value": 0}, "group": "control_change"}, {"time": 2454, "annotation": {"number": 64, "value": 127}, "group": "control_change"}, {"time": 2477, "annotation": {"number": 64, "value": 0}, "group": "control_change"}, {"time": 2480, "annotation": {"number": 64, "value": 127}, "group": "control_change"}, {"time": 2500, "annotation": {"number": 64, "value": 0}, "group": "control_change"}, {"time": 2501, "annotation": {"number": 64, "value": 127}, "group": "control_change"}, {"time": 2528, "annotation": {"number": 64, "value": 0}, "group": "control_change"}, {"time": 2538, "annotation": {"number": 64, "value": 127}, "group": "control_change"}, {"time": 2548, "annotation": {"number": 64, "value": 0}, "group": "control_change"}, {"time": 2551, "annotation": {"number": 64, "value": 127}, "group": "control_change"}, {"time": 2572, "annotation": {"number": 64, "value": 0}, "group": "control_change"}, {"time": 2576, "annotation": {"number": 64, "value": 127}, "group": "control_change"}, {"time": 2598, "annotation": {"number": 64, "value": 0}, "group": "control_change"}, {"time": 2602, "annotation": {"number": 64, "value": 127}, "group": "control_change"}, {"time": 2671, "annotation": {"number": 64, "value": 0}, "group": "control_change"}, {"time": 2682, "annotation": {"number": 64, "value": 127}, "group": "control_change"}, {"time": 2692, "annotation": {"number": 64, "value": 0}, "group": "control_change"}, {"time": 2695, "annotation": {"number": 64, "value": 127}, "group": "control_change"}, {"time": 2719, "annotation": {"number": 64, "value": 127}, "group": "control_change"}, {"time": 2740, "annotation": {"number": 64, "value": 0}, "group": "control_change"}, {"time": 2742, "annotation": {"number": 64, "value": 127}, "group": "control_change"}, {"time": 2766, "annotation": {"number": 64, "value": 0}, "group": "control_change"}]}]}